0, 0, Header, 1, 8, 480
1, 0, Start_track
1, 0, Sequencer_specific, 10, 0, 0, 91, 35, 2, 0, 3, 0, 51, 0
1, 0, MIDI_port, 0
1, 0, System_exclusive, 10, 65, 16, 66, 18, 64, 0, 127, 0, 65, 247
1, 0, System_exclusive, 5, 126, 127, 9, 1, 247
1, 0, System_exclusive, 92, 40, 99, 41, 32, 77, 73, 68, 73, 32, 67, 65, 68, 32, 80, 114, 111, 100, 117, 99, 116, 105, 111, 110, 115, 32, 73, 110, 99, 32, 45, 45, 45, 45, 32, 104, 116, 116, 112, 47, 47, 119, 119, 119, 46, 112, 114, 111, 119, 101, 98, 46, 99, 111, 46, 117, 107, 47, 126, 119, 101, 98, 115, 116, 97, 114, 32, 45, 45, 45, 45, 32, 109, 105, 100, 105, 99, 97, 100, 64, 121, 97, 104, 111, 111, 46, 99, 111, 109, 32, 32, 32, 247
1, 0, Time_signature, 4, 2, 24, 8
1, 0, Key_signature, 0, "major"
1, 0, Tempo, 375000
1, 0, Marker_t, "Treat Me Nice by Elvis Presley"
1, 0, Marker_t, "MIDI C.A.D. Productions Inc"
1, 0, Marker_t, "midicad@yahoo.com"
1, 0, End_track
2, 0, Start_track
2, 0, Title_t, "Soft karaoke"
2, 0, Text_t, "@KMIDI KARAOKR FILE"
2, 0, Title_t, "Soft karaoke"
2, 0, Text_t, "@KMIDI KARAOKR FILE"
2, 0, Title_t, "Soft karaoke"
2, 0, Text_t, "@KMIDI KARAOKR FILE"
2, 0, Title_t, "Soft karaoke"
2, 0, Text_t, "@KMIDI KARAOKR FILE"
2, 0, Title_t, "MCPI"
2, 0, MIDI_port, 0
2, 488, Program_c, 0, 1
2, 492, Control_c, 0, 11, 127
2, 492, Control_c, 0, 7, 115
2, 492, Control_c, 0, 10, 46
2, 496, Control_c, 0, 93, 0
2, 496, Control_c, 0, 91, 50
2, 1920, Note_on_c, 0, 33, 112
2, 1920, Note_on_c, 0, 45, 123
2, 1920, Note_on_c, 0, 57, 123
2, 1920, Note_on_c, 0, 69, 112
2, 1923, Control_c, 0, 64, 127
2, 1989, Note_on_c, 0, 57, 0
2, 2014, Note_on_c, 0, 69, 0
2, 2051, Note_on_c, 0, 45, 0
2, 2161, Note_on_c, 0, 45, 50
2, 2169, Note_on_c, 0, 69, 106
2, 2169, Note_on_c, 0, 57, 93
2, 2250, Note_on_c, 0, 57, 0
2, 2251, Note_on_c, 0, 45, 0
2, 2259, Note_on_c, 0, 69, 0
2, 2300, Note_on_c, 0, 33, 0
2, 2400, Note_on_c, 0, 57, 90
2, 2400, Note_on_c, 0, 69, 100
2, 2479, Control_c, 0, 64, 0
2, 2485, Note_on_c, 0, 57, 0
2, 2489, Note_on_c, 0, 69, 0
2, 2640, Note_on_c, 0, 57, 118
2, 2640, Note_on_c, 0, 45, 125
2, 2640, Note_on_c, 0, 33, 118
2, 2640, Note_on_c, 0, 69, 125
2, 2679, Control_c, 0, 64, 127
2, 2725, Note_on_c, 0, 57, 0
2, 2768, Note_on_c, 0, 69, 0
2, 2773, Note_on_c, 0, 45, 0
2, 2805, Note_on_c, 0, 33, 0
2, 2880, Note_on_c, 0, 45, 83
2, 2880, Note_on_c, 0, 69, 102
2, 2880, Note_on_c, 0, 57, 100
2, 2880, Note_on_c, 0, 33, 93
2, 2965, Note_on_c, 0, 69, 0
2, 2967, Note_on_c, 0, 45, 0
2, 2974, Note_on_c, 0, 57, 0
2, 2981, Note_on_c, 0, 33, 0
2, 3120, Note_on_c, 0, 33, 90
2, 3120, Note_on_c, 0, 69, 98
2, 3120, Note_on_c, 0, 45, 96
2, 3120, Note_on_c, 0, 57, 89
2, 3175, Control_c, 0, 64, 0
2, 3191, Note_on_c, 0, 33, 0
2, 3201, Note_on_c, 0, 69, 0
2, 3201, Note_on_c, 0, 45, 0
2, 3201, Note_on_c, 0, 57, 0
2, 3355, Control_c, 0, 64, 127
2, 3360, Note_on_c, 0, 57, 123
2, 3360, Note_on_c, 0, 45, 118
2, 3360, Note_on_c, 0, 33, 110
2, 3360, Note_on_c, 0, 69, 125
2, 3444, Note_on_c, 0, 57, 0
2, 3456, Note_on_c, 0, 69, 0
2, 3457, Note_on_c, 0, 33, 0
2, 3470, Note_on_c, 0, 45, 0
2, 3600, Note_on_c, 0, 33, 81
2, 3600, Note_on_c, 0, 45, 88
2, 3600, Note_on_c, 0, 69, 100
2, 3600, Note_on_c, 0, 57, 92
2, 3687, Note_on_c, 0, 69, 0
2, 3690, Note_on_c, 0, 57, 0
2, 3695, Note_on_c, 0, 45, 0
2, 3700, Note_on_c, 0, 33, 0
2, 3849, Note_on_c, 0, 69, 96
2, 3849, Note_on_c, 0, 57, 92
2, 3849, Note_on_c, 0, 33, 98
2, 3849, Note_on_c, 0, 45, 104
2, 3927, Note_on_c, 0, 33, 0
2, 3930, Note_on_c, 0, 57, 0
2, 3936, Note_on_c, 0, 69, 0
2, 3939, Note_on_c, 0, 45, 0
2, 3950, Control_c, 0, 64, 0
2, 4080, Note_on_c, 0, 55, 125
2, 4080, Note_on_c, 0, 67, 125
2, 4080, Note_on_c, 0, 31, 123
2, 4080, Note_on_c, 0, 43, 125
2, 4150, Control_c, 0, 64, 127
2, 4169, Note_on_c, 0, 55, 0
2, 4186, Note_on_c, 0, 43, 0
2, 4200, Note_on_c, 0, 67, 0
2, 4205, Note_on_c, 0, 31, 0
2, 4320, Note_on_c, 0, 55, 79
2, 4320, Note_on_c, 0, 43, 88
2, 4320, Note_on_c, 0, 67, 92
2, 4320, Note_on_c, 0, 31, 96
2, 4421, Note_on_c, 0, 55, 0
2, 4431, Note_on_c, 0, 43, 0
2, 4435, Note_on_c, 0, 67, 0
2, 4435, Note_on_c, 0, 31, 0
2, 4560, Note_on_c, 0, 43, 98
2, 4560, Note_on_c, 0, 31, 95
2, 4560, Note_on_c, 0, 67, 98
2, 4560, Note_on_c, 0, 55, 92
2, 4646, Note_on_c, 0, 31, 0
2, 4649, Note_on_c, 0, 67, 0
2, 4650, Note_on_c, 0, 55, 0
2, 4659, Note_on_c, 0, 43, 0
2, 4669, Control_c, 0, 64, 0
2, 4800, Note_on_c, 0, 42, 110
2, 4800, Note_on_c, 0, 54, 125
2, 4800, Note_on_c, 0, 30, 120
2, 4800, Note_on_c, 0, 66, 123
2, 4848, Control_c, 0, 64, 127
2, 4896, Note_on_c, 0, 54, 0
2, 4917, Note_on_c, 0, 42, 0
2, 4920, Note_on_c, 0, 30, 0
2, 4949, Note_on_c, 0, 66, 0
2, 5040, Note_on_c, 0, 30, 95
2, 5040, Note_on_c, 0, 54, 64
2, 5040, Note_on_c, 0, 66, 78
2, 5040, Note_on_c, 0, 42, 78
2, 5108, Control_c, 0, 64, 0
2, 5124, Note_on_c, 0, 66, 0
2, 5135, Note_on_c, 0, 30, 0
2, 5142, Note_on_c, 0, 42, 0
2, 5144, Note_on_c, 0, 54, 0
2, 5280, Note_on_c, 0, 28, 118
2, 5280, Note_on_c, 0, 40, 108
2, 5280, Note_on_c, 0, 64, 125
2, 5280, Note_on_c, 0, 52, 118
2, 5280, Note_on_c, 0, 54, 78
2, 5285, Control_c, 0, 64, 127
2, 5321, Note_on_c, 0, 54, 0
2, 5418, Note_on_c, 0, 52, 0
2, 5419, Note_on_c, 0, 40, 0
2, 5423, Note_on_c, 0, 64, 0
2, 5429, Note_on_c, 0, 28, 0
2, 5440, Note_on_c, 0, 40, 58
2, 5440, Note_on_c, 0, 28, 82
2, 5520, Note_on_c, 0, 64, 106
2, 5520, Note_on_c, 0, 52, 102
2, 5543, Note_on_c, 0, 40, 0
2, 5545, Note_on_c, 0, 28, 0
2, 5584, Control_c, 0, 64, 0
2, 5599, Note_on_c, 0, 52, 0
2, 5610, Note_on_c, 0, 64, 0
2, 5760, Note_on_c, 0, 38, 106
2, 6080, Note_on_c, 0, 54, 86
2, 6080, Note_on_c, 0, 50, 95
2, 6134, Note_on_c, 0, 38, 0
2, 6145, Note_on_c, 0, 54, 0
2, 6240, Note_on_c, 0, 42, 125
2, 6280, Note_on_c, 0, 50, 0
2, 6560, Note_on_c, 0, 50, 95
2, 6560, Note_on_c, 0, 54, 92
2, 6690, Note_on_c, 0, 42, 0
2, 6720, Note_on_c, 0, 45, 110
2, 6750, Note_on_c, 0, 54, 0
2, 6755, Note_on_c, 0, 50, 0
2, 7040, Note_on_c, 0, 50, 90
2, 7040, Note_on_c, 0, 57, 85
2, 7197, Note_on_c, 0, 45, 0
2, 7200, Note_on_c, 0, 42, 120
2, 7262, Note_on_c, 0, 57, 0
2, 7300, Note_on_c, 0, 50, 0
2, 7520, Note_on_c, 0, 54, 85
2, 7520, Note_on_c, 0, 50, 88
2, 7672, Note_on_c, 0, 42, 0
2, 7680, Note_on_c, 0, 54, 0
2, 7680, Note_on_c, 0, 50, 0
2, 7680, Note_on_c, 0, 38, 96
2, 8000, Note_on_c, 0, 50, 102
2, 8160, Note_on_c, 0, 42, 112
2, 8222, Note_on_c, 0, 50, 0
2, 8225, Note_on_c, 0, 38, 0
2, 8480, Note_on_c, 0, 54, 102
2, 8635, Note_on_c, 0, 42, 0
2, 8640, Note_on_c, 0, 43, 78
2, 8640, Note_on_c, 0, 45, 98
2, 8674, Note_on_c, 0, 54, 0
2, 8740, Note_on_c, 0, 43, 0
2, 8960, Note_on_c, 0, 50, 100
2, 8960, Note_on_c, 0, 57, 90
2, 9105, Note_on_c, 0, 45, 0
2, 9120, Note_on_c, 0, 42, 110
2, 9196, Note_on_c, 0, 57, 0
2, 9207, Note_on_c, 0, 50, 0
2, 9440, Note_on_c, 0, 54, 110
2, 9440, Note_on_c, 0, 50, 98
2, 9560, Note_on_c, 0, 42, 0
2, 9600, Note_on_c, 0, 54, 0
2, 9600, Note_on_c, 0, 50, 0
2, 9600, Note_on_c, 0, 38, 106
2, 9920, Note_on_c, 0, 54, 86
2, 9920, Note_on_c, 0, 50, 95
2, 9974, Note_on_c, 0, 38, 0
2, 9985, Note_on_c, 0, 54, 0
2, 10080, Note_on_c, 0, 42, 125
2, 10120, Note_on_c, 0, 50, 0
2, 10400, Note_on_c, 0, 50, 95
2, 10400, Note_on_c, 0, 54, 92
2, 10530, Note_on_c, 0, 42, 0
2, 10560, Note_on_c, 0, 45, 110
2, 10590, Note_on_c, 0, 54, 0
2, 10595, Note_on_c, 0, 50, 0
2, 10880, Note_on_c, 0, 50, 90
2, 10880, Note_on_c, 0, 57, 85
2, 11037, Note_on_c, 0, 45, 0
2, 11040, Note_on_c, 0, 42, 120
2, 11102, Note_on_c, 0, 57, 0
2, 11140, Note_on_c, 0, 50, 0
2, 11360, Note_on_c, 0, 50, 88
2, 11360, Note_on_c, 0, 54, 85
2, 11512, Note_on_c, 0, 42, 0
2, 11520, Note_on_c, 0, 50, 0
2, 11520, Note_on_c, 0, 54, 0
2, 11520, Note_on_c, 0, 38, 96
2, 11840, Note_on_c, 0, 50, 102
2, 12000, Note_on_c, 0, 42, 112
2, 12062, Note_on_c, 0, 50, 0
2, 12065, Note_on_c, 0, 38, 0
2, 12320, Note_on_c, 0, 54, 102
2, 12475, Note_on_c, 0, 42, 0
2, 12480, Note_on_c, 0, 45, 98
2, 12480, Note_on_c, 0, 43, 78
2, 12514, Note_on_c, 0, 54, 0
2, 12580, Note_on_c, 0, 43, 0
2, 12800, Note_on_c, 0, 50, 100
2, 12800, Note_on_c, 0, 57, 90
2, 12945, Note_on_c, 0, 45, 0
2, 12960, Note_on_c, 0, 42, 110
2, 13036, Note_on_c, 0, 57, 0
2, 13047, Note_on_c, 0, 50, 0
2, 13280, Note_on_c, 0, 50, 98
2, 13280, Note_on_c, 0, 54, 110
2, 13400, Note_on_c, 0, 42, 0
2, 13440, Note_on_c, 0, 50, 0
2, 13440, Note_on_c, 0, 54, 0
2, 13440, Note_on_c, 0, 38, 106
2, 13760, Note_on_c, 0, 50, 95
2, 13760, Note_on_c, 0, 54, 86
2, 13814, Note_on_c, 0, 38, 0
2, 13825, Note_on_c, 0, 54, 0
2, 13920, Note_on_c, 0, 42, 125
2, 13960, Note_on_c, 0, 50, 0
2, 14240, Note_on_c, 0, 54, 92
2, 14240, Note_on_c, 0, 50, 95
2, 14370, Note_on_c, 0, 42, 0
2, 14400, Note_on_c, 0, 45, 110
2, 14430, Note_on_c, 0, 54, 0
2, 14435, Note_on_c, 0, 50, 0
2, 14720, Note_on_c, 0, 50, 90
2, 14720, Note_on_c, 0, 57, 85
2, 14877, Note_on_c, 0, 45, 0
2, 14880, Note_on_c, 0, 42, 120
2, 14942, Note_on_c, 0, 57, 0
2, 14980, Note_on_c, 0, 50, 0
2, 15200, Note_on_c, 0, 50, 88
2, 15200, Note_on_c, 0, 54, 85
2, 15352, Note_on_c, 0, 42, 0
2, 15360, Note_on_c, 0, 50, 0
2, 15360, Note_on_c, 0, 54, 0
2, 15360, Note_on_c, 0, 38, 96
2, 15680, Note_on_c, 0, 50, 102
2, 15840, Note_on_c, 0, 42, 112
2, 15902, Note_on_c, 0, 50, 0
2, 15905, Note_on_c, 0, 38, 0
2, 16160, Note_on_c, 0, 54, 102
2, 16315, Note_on_c, 0, 42, 0
2, 16320, Note_on_c, 0, 43, 78
2, 16320, Note_on_c, 0, 45, 98
2, 16354, Note_on_c, 0, 54, 0
2, 16420, Note_on_c, 0, 43, 0
2, 16640, Note_on_c, 0, 50, 100
2, 16640, Note_on_c, 0, 57, 90
2, 16785, Note_on_c, 0, 45, 0
2, 16800, Note_on_c, 0, 42, 110
2, 16876, Note_on_c, 0, 57, 0
2, 16887, Note_on_c, 0, 50, 0
2, 17120, Note_on_c, 0, 50, 98
2, 17120, Note_on_c, 0, 54, 110
2, 17240, Note_on_c, 0, 42, 0
2, 17280, Note_on_c, 0, 50, 0
2, 17280, Note_on_c, 0, 54, 0
2, 17280, Note_on_c, 0, 38, 96
2, 17600, Note_on_c, 0, 50, 104
2, 17760, Note_on_c, 0, 42, 125
2, 17766, Note_on_c, 0, 38, 0
2, 17816, Note_on_c, 0, 50, 0
2, 18080, Note_on_c, 0, 54, 110
2, 18236, Note_on_c, 0, 42, 0
2, 18240, Note_on_c, 0, 45, 102
2, 18285, Note_on_c, 0, 54, 0
2, 18560, Note_on_c, 0, 50, 98
2, 18560, Note_on_c, 0, 57, 98
2, 18694, Note_on_c, 0, 45, 0
2, 18720, Note_on_c, 0, 42, 125
2, 18771, Note_on_c, 0, 57, 0
2, 18785, Note_on_c, 0, 50, 0
2, 19040, Note_on_c, 0, 54, 98
2, 19040, Note_on_c, 0, 50, 90
2, 19171, Note_on_c, 0, 42, 0
2, 19200, Note_on_c, 0, 54, 0
2, 19200, Note_on_c, 0, 50, 0
2, 19200, Note_on_c, 0, 38, 110
2, 19455, Note_on_c, 0, 38, 0
2, 19520, Note_on_c, 0, 50, 125
2, 19680, Note_on_c, 0, 40, 125
2, 19787, Note_on_c, 0, 50, 0
2, 20000, Note_on_c, 0, 52, 123
2, 20083, Note_on_c, 0, 40, 0
2, 20160, Note_on_c, 0, 41, 114
2, 20251, Note_on_c, 0, 52, 0
2, 20480, Note_on_c, 0, 41, 0
2, 20480, Note_on_c, 0, 53, 125
2, 20640, Note_on_c, 0, 42, 123
2, 20773, Note_on_c, 0, 53, 0
2, 20960, Note_on_c, 0, 54, 89
2, 21021, Note_on_c, 0, 42, 0
2, 21120, Note_on_c, 0, 54, 0
2, 21120, Note_on_c, 0, 43, 125
2, 21435, Note_on_c, 0, 43, 0
2, 21440, Note_on_c, 0, 55, 123
2, 21600, Note_on_c, 0, 47, 125
2, 21758, Note_on_c, 0, 55, 0
2, 21916, Note_on_c, 0, 47, 0
2, 21920, Note_on_c, 0, 59, 125
2, 21920, Note_on_c, 0, 55, 123
2, 22080, Note_on_c, 0, 50, 115
2, 22166, Note_on_c, 0, 59, 0
2, 22218, Note_on_c, 0, 55, 0
2, 22376, Note_on_c, 0, 50, 0
2, 22400, Note_on_c, 0, 55, 120
2, 22400, Note_on_c, 0, 62, 104
2, 22560, Note_on_c, 0, 47, 120
2, 22560, Note_on_c, 0, 49, 95
2, 22705, Note_on_c, 0, 55, 0
2, 22708, Note_on_c, 0, 62, 0
2, 22790, Note_on_c, 0, 47, 0
2, 22799, Note_on_c, 0, 49, 0
2, 22880, Note_on_c, 0, 55, 106
2, 22880, Note_on_c, 0, 59, 115
2, 23040, Note_on_c, 0, 55, 0
2, 23040, Note_on_c, 0, 59, 0
2, 23040, Note_on_c, 0, 43, 98
2, 23360, Note_on_c, 0, 55, 106
2, 23360, Note_on_c, 0, 59, 112
2, 23420, Note_on_c, 0, 43, 0
2, 23520, Note_on_c, 0, 47, 125
2, 23668, Note_on_c, 0, 59, 0
2, 23670, Note_on_c, 0, 55, 0
2, 23840, Note_on_c, 0, 55, 104
2, 23840, Note_on_c, 0, 59, 115
2, 23933, Note_on_c, 0, 47, 0
2, 24000, Note_on_c, 0, 50, 125
2, 24125, Note_on_c, 0, 55, 0
2, 24125, Note_on_c, 0, 59, 0
2, 24320, Note_on_c, 0, 55, 96
2, 24320, Note_on_c, 0, 62, 123
2, 24437, Note_on_c, 0, 50, 0
2, 24480, Note_on_c, 0, 47, 125
2, 24618, Note_on_c, 0, 55, 0
2, 24635, Note_on_c, 0, 62, 0
2, 24776, Note_on_c, 0, 47, 0
2, 24800, Note_on_c, 0, 59, 120
2, 24800, Note_on_c, 0, 55, 115
2, 24960, Note_on_c, 0, 59, 0
2, 24960, Note_on_c, 0, 55, 0
2, 24960, Note_on_c, 0, 43, 112
2, 25280, Note_on_c, 0, 55, 115
2, 25280, Note_on_c, 0, 59, 115
2, 25395, Note_on_c, 0, 43, 0
2, 25440, Note_on_c, 0, 47, 125
2, 25565, Note_on_c, 0, 59, 0
2, 25570, Note_on_c, 0, 55, 0
2, 25760, Note_on_c, 0, 59, 115
2, 25760, Note_on_c, 0, 55, 102
2, 25851, Note_on_c, 0, 47, 0
2, 25920, Note_on_c, 0, 50, 120
2, 26015, Note_on_c, 0, 55, 0
2, 26017, Note_on_c, 0, 59, 0
2, 26240, Note_on_c, 0, 62, 123
2, 26240, Note_on_c, 0, 55, 108
2, 26357, Note_on_c, 0, 50, 0
2, 26400, Note_on_c, 0, 47, 123
2, 26514, Note_on_c, 0, 55, 0
2, 26550, Note_on_c, 0, 62, 0
2, 26720, Note_on_c, 0, 55, 110
2, 26720, Note_on_c, 0, 59, 118
2, 26785, Note_on_c, 0, 47, 0
2, 26880, Note_on_c, 0, 55, 0
2, 26880, Note_on_c, 0, 59, 0
2, 26880, Note_on_c, 0, 44, 99
2, 27180, Note_on_c, 0, 44, 0
2, 27200, Note_on_c, 0, 59, 118
2, 27200, Note_on_c, 0, 56, 111
2, 27360, Note_on_c, 0, 47, 120
2, 27446, Note_on_c, 0, 56, 0
2, 27466, Note_on_c, 0, 59, 0
2, 27680, Note_on_c, 0, 56, 111
2, 27680, Note_on_c, 0, 59, 118
2, 27840, Note_on_c, 0, 50, 110
2, 27855, Note_on_c, 0, 47, 0
2, 27940, Note_on_c, 0, 56, 0
2, 27960, Note_on_c, 0, 59, 0
2, 28160, Note_on_c, 0, 56, 114
2, 28160, Note_on_c, 0, 62, 110
2, 28314, Note_on_c, 0, 50, 0
2, 28320, Note_on_c, 0, 47, 118
2, 28421, Note_on_c, 0, 56, 0
2, 28460, Note_on_c, 0, 62, 0
2, 28640, Note_on_c, 0, 56, 117
2, 28640, Note_on_c, 0, 59, 115
2, 28745, Note_on_c, 0, 47, 0
2, 28800, Note_on_c, 0, 56, 0
2, 28800, Note_on_c, 0, 45, 120
2, 28880, Note_on_c, 0, 59, 0
2, 29120, Note_on_c, 0, 61, 100
2, 29120, Note_on_c, 0, 57, 106
2, 29210, Note_on_c, 0, 45, 0
2, 29280, Note_on_c, 0, 49, 125
2, 29404, Note_on_c, 0, 61, 0
2, 29425, Note_on_c, 0, 57, 0
2, 29600, Note_on_c, 0, 61, 120
2, 29600, Note_on_c, 0, 57, 123
2, 29619, Note_on_c, 0, 49, 0
2, 29760, Note_on_c, 0, 45, 115
2, 29842, Note_on_c, 0, 61, 0
2, 29910, Note_on_c, 0, 57, 0
2, 30080, Note_on_c, 0, 64, 102
2, 30080, Note_on_c, 0, 57, 108
2, 30240, Note_on_c, 0, 49, 123
2, 30296, Note_on_c, 0, 45, 0
2, 30330, Note_on_c, 0, 64, 0
2, 30383, Note_on_c, 0, 57, 0
2, 30416, Note_on_c, 0, 49, 0
2, 30560, Note_on_c, 0, 61, 90
2, 30560, Note_on_c, 0, 57, 104
2, 30720, Note_on_c, 0, 61, 0
2, 30720, Note_on_c, 0, 57, 0
2, 30720, Note_on_c, 0, 38, 96
2, 31040, Note_on_c, 0, 54, 118
2, 31040, Note_on_c, 0, 50, 95
2, 31040, Note_on_c, 0, 57, 106
2, 31106, Note_on_c, 0, 38, 0
2, 31200, Note_on_c, 0, 42, 85
2, 31296, Note_on_c, 0, 57, 0
2, 31346, Note_on_c, 0, 54, 0
2, 31359, Note_on_c, 0, 50, 0
2, 31520, Note_on_c, 0, 50, 90
2, 31520, Note_on_c, 0, 54, 108
2, 31520, Note_on_c, 0, 57, 106
2, 31649, Note_on_c, 0, 42, 0
2, 31680, Note_on_c, 0, 45, 125
2, 31806, Note_on_c, 0, 50, 0
2, 31810, Note_on_c, 0, 54, 0
2, 31830, Note_on_c, 0, 57, 0
2, 32000, Note_on_c, 0, 62, 110
2, 32000, Note_on_c, 0, 54, 115
2, 32000, Note_on_c, 0, 50, 96
2, 32000, Note_on_c, 0, 57, 118
2, 32116, Note_on_c, 0, 45, 0
2, 32160, Note_on_c, 0, 42, 106
2, 32279, Note_on_c, 0, 54, 0
2, 32288, Note_on_c, 0, 57, 0
2, 32290, Note_on_c, 0, 50, 0
2, 32305, Note_on_c, 0, 62, 0
2, 32480, Note_on_c, 0, 50, 98
2, 32480, Note_on_c, 0, 54, 118
2, 32480, Note_on_c, 0, 57, 104
2, 32637, Note_on_c, 0, 42, 0
2, 32640, Note_on_c, 0, 50, 0
2, 32640, Note_on_c, 0, 54, 0
2, 32640, Note_on_c, 0, 57, 0
2, 32640, Note_on_c, 0, 40, 98
2, 32960, Note_on_c, 0, 56, 125
2, 32960, Note_on_c, 0, 52, 110
2, 33074, Note_on_c, 0, 40, 0
2, 33120, Note_on_c, 0, 40, 84
2, 33120, Note_on_c, 0, 43, 42
2, 33120, Note_on_c, 0, 42, 77
2, 33139, Note_on_c, 0, 43, 0
2, 33180, Note_on_c, 0, 42, 0
2, 33234, Note_on_c, 0, 40, 0
2, 33240, Note_on_c, 0, 56, 0
2, 33269, Note_on_c, 0, 52, 0
2, 33440, Note_on_c, 0, 56, 121
2, 33440, Note_on_c, 0, 52, 108
2, 33600, Note_on_c, 0, 47, 120
2, 33685, Note_on_c, 0, 52, 0
2, 33759, Note_on_c, 0, 56, 0
2, 33920, Note_on_c, 0, 59, 115
2, 33920, Note_on_c, 0, 52, 96
2, 34055, Note_on_c, 0, 47, 0
2, 34080, Note_on_c, 0, 44, 111
2, 34215, Note_on_c, 0, 52, 0
2, 34221, Note_on_c, 0, 59, 0
2, 34400, Note_on_c, 0, 52, 78
2, 34400, Note_on_c, 0, 56, 117
2, 34483, Note_on_c, 0, 52, 0
2, 34488, Note_on_c, 0, 56, 0
2, 34560, Note_on_c, 0, 44, 0
2, 34560, Note_on_c, 0, 57, 125
2, 34560, Note_on_c, 0, 45, 120
2, 34560, Note_on_c, 0, 61, 125
2, 34560, Note_on_c, 0, 52, 125
2, 34820, Note_on_c, 0, 45, 0
2, 34826, Note_on_c, 0, 52, 0
2, 34835, Note_on_c, 0, 57, 0
2, 34838, Note_on_c, 0, 61, 0
2, 36480, Note_on_c, 0, 38, 125
2, 36765, Note_on_c, 0, 38, 0
2, 36800, Note_on_c, 0, 77, 125
2, 36800, Note_on_c, 0, 74, 112
2, 36800, Note_on_c, 0, 80, 117
2, 36800, Note_on_c, 0, 81, 104
2, 36800, Note_on_c, 0, 78, 102
2, 36869, Note_on_c, 0, 74, 0
2, 36880, Note_on_c, 0, 80, 0
2, 36902, Note_on_c, 0, 77, 0
2, 37090, Note_on_c, 0, 78, 0
2, 37135, Note_on_c, 0, 81, 0
2, 37280, Note_on_c, 0, 42, 125
2, 37280, Note_on_c, 0, 83, 102
2, 37280, Note_on_c, 0, 79, 110
2, 37402, Note_on_c, 0, 79, 0
2, 37440, Note_on_c, 0, 78, 78
2, 37440, Note_on_c, 0, 81, 95
2, 37440, Note_on_c, 0, 80, 121
2, 37440, Note_on_c, 0, 77, 108
2, 37483, Note_on_c, 0, 80, 0
2, 37500, Note_on_c, 0, 77, 0
2, 37512, Note_on_c, 0, 83, 0
2, 37667, Note_on_c, 0, 78, 0
2, 37715, Note_on_c, 0, 81, 0
2, 37760, Note_on_c, 0, 74, 120
2, 37905, Note_on_c, 0, 42, 0
2, 37920, Note_on_c, 0, 45, 123
2, 38026, Note_on_c, 0, 74, 0
2, 38336, Note_on_c, 0, 45, 0
2, 38400, Note_on_c, 0, 38, 125
2, 38635, Note_on_c, 0, 38, 0
2, 38720, Note_on_c, 0, 78, 112
2, 38720, Note_on_c, 0, 81, 112
2, 38720, Note_on_c, 0, 77, 117
2, 38720, Note_on_c, 0, 80, 125
2, 38757, Note_on_c, 0, 80, 0
2, 38765, Note_on_c, 0, 77, 0
2, 39055, Note_on_c, 0, 78, 0
2, 39092, Note_on_c, 0, 81, 0
2, 39200, Note_on_c, 0, 42, 125
2, 39200, Note_on_c, 0, 83, 95
2, 39200, Note_on_c, 0, 79, 112
2, 39321, Note_on_c, 0, 79, 0
2, 39360, Note_on_c, 0, 81, 93
2, 39360, Note_on_c, 0, 77, 102
2, 39360, Note_on_c, 0, 80, 121
2, 39440, Note_on_c, 0, 80, 0
2, 39455, Note_on_c, 0, 77, 0
2, 39465, Note_on_c, 0, 83, 0
2, 39520, Note_on_c, 0, 78, 98
2, 39624, Note_on_c, 0, 81, 0
2, 39680, Note_on_c, 0, 74, 100
2, 39699, Note_on_c, 0, 78, 0
2, 39768, Note_on_c, 0, 42, 0
2, 39840, Note_on_c, 0, 45, 120
2, 39969, Note_on_c, 0, 74, 0
2, 40128, Note_on_c, 0, 45, 0
2, 40320, Note_on_c, 0, 38, 106
2, 40640, Note_on_c, 0, 50, 95
2, 40640, Note_on_c, 0, 54, 86
2, 40694, Note_on_c, 0, 38, 0
2, 40705, Note_on_c, 0, 54, 0
2, 40800, Note_on_c, 0, 42, 125
2, 40840, Note_on_c, 0, 50, 0
2, 41120, Note_on_c, 0, 54, 92
2, 41120, Note_on_c, 0, 50, 95
2, 41250, Note_on_c, 0, 42, 0
2, 41280, Note_on_c, 0, 45, 110
2, 41310, Note_on_c, 0, 54, 0
2, 41315, Note_on_c, 0, 50, 0
2, 41600, Note_on_c, 0, 57, 85
2, 41600, Note_on_c, 0, 50, 90
2, 41757, Note_on_c, 0, 45, 0
2, 41760, Note_on_c, 0, 42, 120
2, 41822, Note_on_c, 0, 57, 0
2, 41860, Note_on_c, 0, 50, 0
2, 42080, Note_on_c, 0, 50, 88
2, 42080, Note_on_c, 0, 54, 85
2, 42232, Note_on_c, 0, 42, 0
2, 42240, Note_on_c, 0, 50, 0
2, 42240, Note_on_c, 0, 54, 0
2, 42240, Note_on_c, 0, 38, 96
2, 42560, Note_on_c, 0, 50, 102
2, 42720, Note_on_c, 0, 42, 112
2, 42782, Note_on_c, 0, 50, 0
2, 42785, Note_on_c, 0, 38, 0
2, 43040, Note_on_c, 0, 54, 102
2, 43195, Note_on_c, 0, 42, 0
2, 43200, Note_on_c, 0, 43, 78
2, 43200, Note_on_c, 0, 45, 98
2, 43234, Note_on_c, 0, 54, 0
2, 43300, Note_on_c, 0, 43, 0
2, 43520, Note_on_c, 0, 57, 90
2, 43520, Note_on_c, 0, 50, 100
2, 43665, Note_on_c, 0, 45, 0
2, 43680, Note_on_c, 0, 42, 110
2, 43756, Note_on_c, 0, 57, 0
2, 43767, Note_on_c, 0, 50, 0
2, 44000, Note_on_c, 0, 54, 110
2, 44000, Note_on_c, 0, 50, 98
2, 44120, Note_on_c, 0, 42, 0
2, 44160, Note_on_c, 0, 54, 0
2, 44160, Note_on_c, 0, 50, 0
2, 44160, Note_on_c, 0, 38, 96
2, 44480, Note_on_c, 0, 50, 104
2, 44640, Note_on_c, 0, 42, 125
2, 44646, Note_on_c, 0, 38, 0
2, 44696, Note_on_c, 0, 50, 0
2, 44960, Note_on_c, 0, 54, 110
2, 45116, Note_on_c, 0, 42, 0
2, 45120, Note_on_c, 0, 45, 102
2, 45165, Note_on_c, 0, 54, 0
2, 45440, Note_on_c, 0, 57, 98
2, 45440, Note_on_c, 0, 50, 98
2, 45574, Note_on_c, 0, 45, 0
2, 45600, Note_on_c, 0, 42, 125
2, 45651, Note_on_c, 0, 57, 0
2, 45665, Note_on_c, 0, 50, 0
2, 45920, Note_on_c, 0, 50, 90
2, 45920, Note_on_c, 0, 54, 98
2, 46051, Note_on_c, 0, 42, 0
2, 46080, Note_on_c, 0, 50, 0
2, 46080, Note_on_c, 0, 54, 0
2, 46080, Note_on_c, 0, 38, 110
2, 46335, Note_on_c, 0, 38, 0
2, 46400, Note_on_c, 0, 50, 125
2, 46560, Note_on_c, 0, 40, 125
2, 46667, Note_on_c, 0, 50, 0
2, 46880, Note_on_c, 0, 52, 123
2, 46963, Note_on_c, 0, 40, 0
2, 47040, Note_on_c, 0, 41, 114
2, 47131, Note_on_c, 0, 52, 0
2, 47360, Note_on_c, 0, 41, 0
2, 47360, Note_on_c, 0, 53, 125
2, 47520, Note_on_c, 0, 42, 123
2, 47653, Note_on_c, 0, 53, 0
2, 47840, Note_on_c, 0, 54, 89
2, 47901, Note_on_c, 0, 42, 0
2, 48000, Note_on_c, 0, 54, 0
2, 48000, Note_on_c, 0, 43, 125
2, 48315, Note_on_c, 0, 43, 0
2, 48320, Note_on_c, 0, 55, 123
2, 48480, Note_on_c, 0, 47, 125
2, 48638, Note_on_c, 0, 55, 0
2, 48796, Note_on_c, 0, 47, 0
2, 48800, Note_on_c, 0, 55, 123
2, 48800, Note_on_c, 0, 59, 125
2, 48960, Note_on_c, 0, 50, 115
2, 49046, Note_on_c, 0, 59, 0
2, 49098, Note_on_c, 0, 55, 0
2, 49256, Note_on_c, 0, 50, 0
2, 49280, Note_on_c, 0, 55, 120
2, 49280, Note_on_c, 0, 62, 104
2, 49440, Note_on_c, 0, 47, 120
2, 49440, Note_on_c, 0, 49, 95
2, 49585, Note_on_c, 0, 55, 0
2, 49588, Note_on_c, 0, 62, 0
2, 49670, Note_on_c, 0, 47, 0
2, 49679, Note_on_c, 0, 49, 0
2, 49760, Note_on_c, 0, 59, 115
2, 49760, Note_on_c, 0, 55, 106
2, 49920, Note_on_c, 0, 59, 0
2, 49920, Note_on_c, 0, 55, 0
2, 49920, Note_on_c, 0, 43, 98
2, 50240, Note_on_c, 0, 59, 112
2, 50240, Note_on_c, 0, 55, 106
2, 50300, Note_on_c, 0, 43, 0
2, 50400, Note_on_c, 0, 47, 125
2, 50548, Note_on_c, 0, 59, 0
2, 50550, Note_on_c, 0, 55, 0
2, 50720, Note_on_c, 0, 55, 104
2, 50720, Note_on_c, 0, 59, 115
2, 50813, Note_on_c, 0, 47, 0
2, 50880, Note_on_c, 0, 50, 125
2, 51005, Note_on_c, 0, 55, 0
2, 51005, Note_on_c, 0, 59, 0
2, 51200, Note_on_c, 0, 55, 96
2, 51200, Note_on_c, 0, 62, 123
2, 51317, Note_on_c, 0, 50, 0
2, 51360, Note_on_c, 0, 47, 125
2, 51498, Note_on_c, 0, 55, 0
2, 51515, Note_on_c, 0, 62, 0
2, 51656, Note_on_c, 0, 47, 0
2, 51680, Note_on_c, 0, 55, 115
2, 51680, Note_on_c, 0, 59, 120
2, 51840, Note_on_c, 0, 55, 0
2, 51840, Note_on_c, 0, 59, 0
2, 51840, Note_on_c, 0, 43, 112
2, 52160, Note_on_c, 0, 55, 115
2, 52160, Note_on_c, 0, 59, 115
2, 52275, Note_on_c, 0, 43, 0
2, 52320, Note_on_c, 0, 47, 125
2, 52445, Note_on_c, 0, 59, 0
2, 52450, Note_on_c, 0, 55, 0
2, 52640, Note_on_c, 0, 59, 115
2, 52640, Note_on_c, 0, 55, 102
2, 52731, Note_on_c, 0, 47, 0
2, 52800, Note_on_c, 0, 50, 120
2, 52895, Note_on_c, 0, 55, 0
2, 52897, Note_on_c, 0, 59, 0
2, 53120, Note_on_c, 0, 62, 123
2, 53120, Note_on_c, 0, 55, 108
2, 53237, Note_on_c, 0, 50, 0
2, 53280, Note_on_c, 0, 47, 123
2, 53394, Note_on_c, 0, 55, 0
2, 53430, Note_on_c, 0, 62, 0
2, 53600, Note_on_c, 0, 59, 118
2, 53600, Note_on_c, 0, 55, 110
2, 53665, Note_on_c, 0, 47, 0
2, 53760, Note_on_c, 0, 59, 0
2, 53760, Note_on_c, 0, 55, 0
2, 53760, Note_on_c, 0, 44, 99
2, 54060, Note_on_c, 0, 44, 0
2, 54080, Note_on_c, 0, 56, 111
2, 54080, Note_on_c, 0, 59, 118
2, 54240, Note_on_c, 0, 47, 120
2, 54326, Note_on_c, 0, 56, 0
2, 54346, Note_on_c, 0, 59, 0
2, 54560, Note_on_c, 0, 56, 111
2, 54560, Note_on_c, 0, 59, 118
2, 54720, Note_on_c, 0, 50, 110
2, 54735, Note_on_c, 0, 47, 0
2, 54820, Note_on_c, 0, 56, 0
2, 54840, Note_on_c, 0, 59, 0
2, 55040, Note_on_c, 0, 56, 114
2, 55040, Note_on_c, 0, 62, 110
2, 55194, Note_on_c, 0, 50, 0
2, 55200, Note_on_c, 0, 47, 118
2, 55301, Note_on_c, 0, 56, 0
2, 55340, Note_on_c, 0, 62, 0
2, 55520, Note_on_c, 0, 59, 115
2, 55520, Note_on_c, 0, 56, 117
2, 55625, Note_on_c, 0, 47, 0
2, 55680, Note_on_c, 0, 56, 0
2, 55680, Note_on_c, 0, 45, 120
2, 55760, Note_on_c, 0, 59, 0
2, 56000, Note_on_c, 0, 61, 100
2, 56000, Note_on_c, 0, 57, 106
2, 56090, Note_on_c, 0, 45, 0
2, 56160, Note_on_c, 0, 49, 125
2, 56284, Note_on_c, 0, 61, 0
2, 56305, Note_on_c, 0, 57, 0
2, 56480, Note_on_c, 0, 61, 120
2, 56480, Note_on_c, 0, 57, 123
2, 56499, Note_on_c, 0, 49, 0
2, 56640, Note_on_c, 0, 45, 115
2, 56722, Note_on_c, 0, 61, 0
2, 56790, Note_on_c, 0, 57, 0
2, 56960, Note_on_c, 0, 64, 102
2, 56960, Note_on_c, 0, 57, 108
2, 57120, Note_on_c, 0, 49, 123
2, 57176, Note_on_c, 0, 45, 0
2, 57210, Note_on_c, 0, 64, 0
2, 57263, Note_on_c, 0, 57, 0
2, 57296, Note_on_c, 0, 49, 0
2, 57440, Note_on_c, 0, 61, 90
2, 57440, Note_on_c, 0, 57, 104
2, 57600, Note_on_c, 0, 61, 0
2, 57600, Note_on_c, 0, 57, 0
2, 57600, Note_on_c, 0, 38, 96
2, 57920, Note_on_c, 0, 57, 106
2, 57920, Note_on_c, 0, 54, 118
2, 57920, Note_on_c, 0, 50, 95
2, 57986, Note_on_c, 0, 38, 0
2, 58080, Note_on_c, 0, 42, 85
2, 58176, Note_on_c, 0, 57, 0
2, 58226, Note_on_c, 0, 54, 0
2, 58239, Note_on_c, 0, 50, 0
2, 58400, Note_on_c, 0, 50, 90
2, 58400, Note_on_c, 0, 54, 108
2, 58400, Note_on_c, 0, 57, 106
2, 58529, Note_on_c, 0, 42, 0
2, 58560, Note_on_c, 0, 45, 125
2, 58686, Note_on_c, 0, 50, 0
2, 58690, Note_on_c, 0, 54, 0
2, 58710, Note_on_c, 0, 57, 0
2, 58880, Note_on_c, 0, 54, 115
2, 58880, Note_on_c, 0, 62, 110
2, 58880, Note_on_c, 0, 57, 118
2, 58880, Note_on_c, 0, 50, 96
2, 58996, Note_on_c, 0, 45, 0
2, 59040, Note_on_c, 0, 42, 106
2, 59159, Note_on_c, 0, 54, 0
2, 59168, Note_on_c, 0, 57, 0
2, 59170, Note_on_c, 0, 50, 0
2, 59185, Note_on_c, 0, 62, 0
2, 59360, Note_on_c, 0, 54, 118
2, 59360, Note_on_c, 0, 50, 98
2, 59360, Note_on_c, 0, 57, 104
2, 59517, Note_on_c, 0, 42, 0
2, 59520, Note_on_c, 0, 54, 0
2, 59520, Note_on_c, 0, 50, 0
2, 59520, Note_on_c, 0, 57, 0
2, 59520, Note_on_c, 0, 40, 98
2, 59840, Note_on_c, 0, 56, 125
2, 59840, Note_on_c, 0, 52, 110
2, 59954, Note_on_c, 0, 40, 0
2, 60000, Note_on_c, 0, 42, 77
2, 60000, Note_on_c, 0, 40, 84
2, 60000, Note_on_c, 0, 43, 42
2, 60019, Note_on_c, 0, 43, 0
2, 60060, Note_on_c, 0, 42, 0
2, 60114, Note_on_c, 0, 40, 0
2, 60120, Note_on_c, 0, 56, 0
2, 60149, Note_on_c, 0, 52, 0
2, 60320, Note_on_c, 0, 52, 108
2, 60320, Note_on_c, 0, 56, 121
2, 60480, Note_on_c, 0, 47, 120
2, 60565, Note_on_c, 0, 52, 0
2, 60639, Note_on_c, 0, 56, 0
2, 60800, Note_on_c, 0, 52, 96
2, 60800, Note_on_c, 0, 59, 115
2, 60935, Note_on_c, 0, 47, 0
2, 60960, Note_on_c, 0, 44, 111
2, 61095, Note_on_c, 0, 52, 0
2, 61101, Note_on_c, 0, 59, 0
2, 61280, Note_on_c, 0, 52, 78
2, 61280, Note_on_c, 0, 56, 117
2, 61363, Note_on_c, 0, 52, 0
2, 61368, Note_on_c, 0, 56, 0
2, 61440, Note_on_c, 0, 44, 0
2, 61440, Note_on_c, 0, 61, 125
2, 61440, Note_on_c, 0, 45, 120
2, 61440, Note_on_c, 0, 57, 125
2, 61440, Note_on_c, 0, 52, 125
2, 61700, Note_on_c, 0, 45, 0
2, 61706, Note_on_c, 0, 52, 0
2, 61715, Note_on_c, 0, 57, 0
2, 61718, Note_on_c, 0, 61, 0
2, 63360, Note_on_c, 0, 38, 125
2, 63645, Note_on_c, 0, 38, 0
2, 63680, Note_on_c, 0, 80, 117
2, 63680, Note_on_c, 0, 74, 112
2, 63680, Note_on_c, 0, 77, 125
2, 63680, Note_on_c, 0, 78, 102
2, 63680, Note_on_c, 0, 81, 104
2, 63749, Note_on_c, 0, 74, 0
2, 63760, Note_on_c, 0, 80, 0
2, 63782, Note_on_c, 0, 77, 0
2, 63970, Note_on_c, 0, 78, 0
2, 64015, Note_on_c, 0, 81, 0
2, 64160, Note_on_c, 0, 42, 125
2, 64160, Note_on_c, 0, 79, 110
2, 64160, Note_on_c, 0, 83, 102
2, 64282, Note_on_c, 0, 79, 0
2, 64320, Note_on_c, 0, 81, 95
2, 64320, Note_on_c, 0, 80, 121
2, 64320, Note_on_c, 0, 78, 78
2, 64320, Note_on_c, 0, 77, 108
2, 64363, Note_on_c, 0, 80, 0
2, 64380, Note_on_c, 0, 77, 0
2, 64392, Note_on_c, 0, 83, 0
2, 64547, Note_on_c, 0, 78, 0
2, 64595, Note_on_c, 0, 81, 0
2, 64640, Note_on_c, 0, 74, 120
2, 64785, Note_on_c, 0, 42, 0
2, 64800, Note_on_c, 0, 45, 123
2, 64906, Note_on_c, 0, 74, 0
2, 65216, Note_on_c, 0, 45, 0
2, 65280, Note_on_c, 0, 38, 125
2, 65515, Note_on_c, 0, 38, 0
2, 65600, Note_on_c, 0, 77, 117
2, 65600, Note_on_c, 0, 80, 125
2, 65600, Note_on_c, 0, 78, 112
2, 65600, Note_on_c, 0, 81, 112
2, 65637, Note_on_c, 0, 80, 0
2, 65645, Note_on_c, 0, 77, 0
2, 65935, Note_on_c, 0, 78, 0
2, 65972, Note_on_c, 0, 81, 0
2, 66080, Note_on_c, 0, 79, 112
2, 66080, Note_on_c, 0, 42, 125
2, 66080, Note_on_c, 0, 83, 95
2, 66201, Note_on_c, 0, 79, 0
2, 66240, Note_on_c, 0, 80, 121
2, 66240, Note_on_c, 0, 81, 93
2, 66240, Note_on_c, 0, 77, 102
2, 66320, Note_on_c, 0, 80, 0
2, 66335, Note_on_c, 0, 77, 0
2, 66345, Note_on_c, 0, 83, 0
2, 66400, Note_on_c, 0, 78, 98
2, 66504, Note_on_c, 0, 81, 0
2, 66560, Note_on_c, 0, 74, 100
2, 66579, Note_on_c, 0, 78, 0
2, 66648, Note_on_c, 0, 42, 0
2, 66720, Note_on_c, 0, 45, 120
2, 66849, Note_on_c, 0, 74, 0
2, 67008, Note_on_c, 0, 45, 0
2, 67200, Note_on_c, 0, 43, 93
2, 67520, Note_on_c, 0, 62, 83
2, 67520, Note_on_c, 0, 59, 95
2, 67520, Note_on_c, 0, 55, 89
2, 67605, Note_on_c, 0, 43, 0
2, 67680, Note_on_c, 0, 47, 123
2, 67735, Note_on_c, 0, 59, 0
2, 67739, Note_on_c, 0, 55, 0
2, 67760, Note_on_c, 0, 62, 0
2, 68000, Note_on_c, 0, 59, 92
2, 68000, Note_on_c, 0, 55, 84
2, 68000, Note_on_c, 0, 62, 83
2, 68160, Note_on_c, 0, 50, 108
2, 68174, Note_on_c, 0, 47, 0
2, 68224, Note_on_c, 0, 59, 0
2, 68240, Note_on_c, 0, 55, 0
2, 68245, Note_on_c, 0, 62, 0
2, 68480, Note_on_c, 0, 59, 78
2, 68480, Note_on_c, 0, 62, 76
2, 68480, Note_on_c, 0, 55, 64
2, 68640, Note_on_c, 0, 47, 123
2, 68645, Note_on_c, 0, 50, 0
2, 68755, Note_on_c, 0, 59, 0
2, 68771, Note_on_c, 0, 62, 0
2, 68776, Note_on_c, 0, 55, 0
2, 68960, Note_on_c, 0, 62, 72
2, 68960, Note_on_c, 0, 59, 74
2, 68960, Note_on_c, 0, 55, 66
2, 69065, Note_on_c, 0, 62, 0
2, 69066, Note_on_c, 0, 47, 0
2, 69085, Note_on_c, 0, 59, 0
2, 69092, Note_on_c, 0, 55, 0
2, 69120, Note_on_c, 0, 38, 102
2, 69440, Note_on_c, 0, 57, 71
2, 69440, Note_on_c, 0, 50, 64
2, 69440, Note_on_c, 0, 54, 77
2, 69542, Note_on_c, 0, 38, 0
2, 69600, Note_on_c, 0, 42, 90
2, 69701, Note_on_c, 0, 50, 0
2, 69710, Note_on_c, 0, 54, 0
2, 69715, Note_on_c, 0, 57, 0
2, 69920, Note_on_c, 0, 57, 88
2, 69920, Note_on_c, 0, 50, 86
2, 69920, Note_on_c, 0, 54, 95
2, 70072, Note_on_c, 0, 42, 0
2, 70080, Note_on_c, 0, 45, 108
2, 70170, Note_on_c, 0, 54, 0
2, 70185, Note_on_c, 0, 50, 0
2, 70190, Note_on_c, 0, 57, 0
2, 70400, Note_on_c, 0, 57, 84
2, 70400, Note_on_c, 0, 54, 90
2, 70400, Note_on_c, 0, 50, 83
2, 70560, Note_on_c, 0, 42, 110
2, 70568, Note_on_c, 0, 45, 0
2, 70681, Note_on_c, 0, 50, 0
2, 70690, Note_on_c, 0, 54, 0
2, 70716, Note_on_c, 0, 57, 0
2, 70880, Note_on_c, 0, 54, 96
2, 70880, Note_on_c, 0, 57, 88
2, 70880, Note_on_c, 0, 50, 85
2, 70986, Note_on_c, 0, 50, 0
2, 71019, Note_on_c, 0, 54, 0
2, 71040, Note_on_c, 0, 42, 0
2, 71040, Note_on_c, 0, 57, 0
2, 71040, Note_on_c, 0, 45, 125
2, 71360, Note_on_c, 0, 61, 93
2, 71360, Note_on_c, 0, 52, 84
2, 71360, Note_on_c, 0, 57, 98
2, 71496, Note_on_c, 0, 45, 0
2, 71520, Note_on_c, 0, 43, 104
2, 71590, Note_on_c, 0, 57, 0
2, 71596, Note_on_c, 0, 61, 0
2, 71600, Note_on_c, 0, 52, 0
2, 71840, Note_on_c, 0, 61, 98
2, 71840, Note_on_c, 0, 52, 98
2, 71840, Note_on_c, 0, 57, 106
2, 72000, Note_on_c, 0, 42, 98
2, 72024, Note_on_c, 0, 43, 0
2, 72067, Note_on_c, 0, 57, 0
2, 72072, Note_on_c, 0, 61, 0
2, 72085, Note_on_c, 0, 52, 0
2, 72320, Note_on_c, 0, 52, 92
2, 72320, Note_on_c, 0, 61, 90
2, 72320, Note_on_c, 0, 57, 93
2, 72460, Note_on_c, 0, 42, 0
2, 72480, Note_on_c, 0, 40, 95
2, 72535, Note_on_c, 0, 57, 0
2, 72560, Note_on_c, 0, 61, 0
2, 72565, Note_on_c, 0, 52, 0
2, 72800, Note_on_c, 0, 52, 79
2, 72800, Note_on_c, 0, 61, 93
2, 72800, Note_on_c, 0, 57, 89
2, 72843, Note_on_c, 0, 40, 0
2, 72960, Note_on_c, 0, 52, 0
2, 72960, Note_on_c, 0, 61, 0
2, 72960, Note_on_c, 0, 57, 0
2, 72960, Note_on_c, 0, 38, 98
2, 73280, Note_on_c, 0, 50, 85
2, 73280, Note_on_c, 0, 57, 95
2, 73280, Note_on_c, 0, 54, 100
2, 73379, Note_on_c, 0, 38, 0
2, 73440, Note_on_c, 0, 40, 100
2, 73534, Note_on_c, 0, 54, 0
2, 73540, Note_on_c, 0, 57, 0
2, 73545, Note_on_c, 0, 50, 0
2, 73760, Note_on_c, 0, 54, 102
2, 73760, Note_on_c, 0, 57, 93
2, 73760, Note_on_c, 0, 50, 89
2, 73920, Note_on_c, 0, 42, 125
2, 73987, Note_on_c, 0, 40, 0
2, 73992, Note_on_c, 0, 54, 0
2, 74005, Note_on_c, 0, 57, 0
2, 74011, Note_on_c, 0, 50, 0
2, 74240, Note_on_c, 0, 57, 92
2, 74240, Note_on_c, 0, 50, 75
2, 74240, Note_on_c, 0, 54, 96
2, 74386, Note_on_c, 0, 42, 0
2, 74400, Note_on_c, 0, 38, 106
2, 74481, Note_on_c, 0, 54, 0
2, 74485, Note_on_c, 0, 50, 0
2, 74505, Note_on_c, 0, 57, 0
2, 74720, Note_on_c, 0, 54, 88
2, 74720, Note_on_c, 0, 50, 74
2, 74720, Note_on_c, 0, 57, 85
2, 74860, Note_on_c, 0, 54, 0
2, 74867, Note_on_c, 0, 50, 0
2, 74880, Note_on_c, 0, 38, 0
2, 74880, Note_on_c, 0, 57, 0
2, 74880, Note_on_c, 0, 43, 123
2, 75200, Note_on_c, 0, 55, 118
2, 75200, Note_on_c, 0, 59, 98
2, 75200, Note_on_c, 0, 62, 100
2, 75360, Note_on_c, 0, 41, 49
2, 75360, Note_on_c, 0, 47, 104
2, 75381, Note_on_c, 0, 43, 0
2, 75385, Note_on_c, 0, 41, 0
2, 75394, Note_on_c, 0, 55, 0
2, 75413, Note_on_c, 0, 59, 0
2, 75414, Note_on_c, 0, 62, 0
2, 75680, Note_on_c, 0, 55, 118
2, 75680, Note_on_c, 0, 59, 102
2, 75680, Note_on_c, 0, 62, 102
2, 75729, Note_on_c, 0, 47, 0
2, 75840, Note_on_c, 0, 50, 125
2, 75930, Note_on_c, 0, 62, 0
2, 75935, Note_on_c, 0, 55, 0
2, 75946, Note_on_c, 0, 59, 0
2, 76160, Note_on_c, 0, 55, 100
2, 76160, Note_on_c, 0, 59, 90
2, 76160, Note_on_c, 0, 62, 89
2, 76251, Note_on_c, 0, 50, 0
2, 76320, Note_on_c, 0, 47, 96
2, 76401, Note_on_c, 0, 62, 0
2, 76411, Note_on_c, 0, 59, 0
2, 76415, Note_on_c, 0, 55, 0
2, 76640, Note_on_c, 0, 62, 88
2, 76640, Note_on_c, 0, 59, 95
2, 76640, Note_on_c, 0, 55, 106
2, 76745, Note_on_c, 0, 47, 0
2, 76794, Note_on_c, 0, 55, 0
2, 76800, Note_on_c, 0, 62, 0
2, 76800, Note_on_c, 0, 59, 0
2, 76800, Note_on_c, 0, 38, 106
2, 77120, Note_on_c, 0, 54, 112
2, 77120, Note_on_c, 0, 57, 108
2, 77277, Note_on_c, 0, 38, 0
2, 77280, Note_on_c, 0, 42, 100
2, 77395, Note_on_c, 0, 54, 0
2, 77396, Note_on_c, 0, 57, 0
2, 77600, Note_on_c, 0, 57, 100
2, 77600, Note_on_c, 0, 54, 108
2, 77737, Note_on_c, 0, 42, 0
2, 77760, Note_on_c, 0, 45, 125
2, 77875, Note_on_c, 0, 57, 0
2, 77876, Note_on_c, 0, 54, 0
2, 78080, Note_on_c, 0, 54, 110
2, 78080, Note_on_c, 0, 57, 104
2, 78240, Note_on_c, 0, 42, 112
2, 78266, Note_on_c, 0, 45, 0
2, 78320, Note_on_c, 0, 57, 0
2, 78369, Note_on_c, 0, 54, 0
2, 78560, Note_on_c, 0, 54, 110
2, 78560, Note_on_c, 0, 57, 110
2, 78691, Note_on_c, 0, 42, 0
2, 78720, Note_on_c, 0, 54, 0
2, 78720, Note_on_c, 0, 57, 0
2, 78720, Note_on_c, 0, 40, 104
2, 79040, Note_on_c, 0, 56, 111
2, 79040, Note_on_c, 0, 59, 110
2, 79040, Note_on_c, 0, 64, 106
2, 79100, Note_on_c, 0, 40, 0
2, 79200, Note_on_c, 0, 42, 110
2, 79343, Note_on_c, 0, 64, 0
2, 79355, Note_on_c, 0, 56, 0
2, 79363, Note_on_c, 0, 59, 0
2, 79520, Note_on_c, 0, 64, 104
2, 79520, Note_on_c, 0, 56, 102
2, 79520, Note_on_c, 0, 59, 104
2, 79680, Note_on_c, 0, 44, 125
2, 79701, Note_on_c, 0, 42, 0
2, 79810, Note_on_c, 0, 64, 0
2, 79825, Note_on_c, 0, 56, 0
2, 79835, Note_on_c, 0, 59, 0
2, 80000, Note_on_c, 0, 64, 102
2, 80000, Note_on_c, 0, 56, 111
2, 80000, Note_on_c, 0, 59, 108
2, 80141, Note_on_c, 0, 44, 0
2, 80160, Note_on_c, 0, 47, 112
2, 80276, Note_on_c, 0, 56, 0
2, 80283, Note_on_c, 0, 64, 0
2, 80296, Note_on_c, 0, 59, 0
2, 80480, Note_on_c, 0, 64, 92
2, 80480, Note_on_c, 0, 59, 102
2, 80480, Note_on_c, 0, 56, 105
2, 80615, Note_on_c, 0, 47, 0
2, 80640, Note_on_c, 0, 59, 0
2, 80640, Note_on_c, 0, 56, 0
2, 80640, Note_on_c, 0, 45, 123
2, 80722, Note_on_c, 0, 64, 0
2, 80960, Note_on_c, 0, 61, 100
2, 80960, Note_on_c, 0, 52, 100
2, 80960, Note_on_c, 0, 57, 98
2, 80960, Note_on_c, 0, 64, 98
2, 81106, Note_on_c, 0, 45, 0
2, 81120, Note_on_c, 0, 43, 110
2, 81206, Note_on_c, 0, 52, 0
2, 81270, Note_on_c, 0, 64, 0
2, 81355, Note_on_c, 0, 57, 0
2, 81364, Note_on_c, 0, 61, 0
2, 81440, Note_on_c, 0, 57, 115
2, 81440, Note_on_c, 0, 64, 100
2, 81440, Note_on_c, 0, 61, 102
2, 81440, Note_on_c, 0, 52, 100
2, 81600, Note_on_c, 0, 42, 98
2, 81606, Note_on_c, 0, 43, 0
2, 81702, Note_on_c, 0, 52, 0
2, 81710, Note_on_c, 0, 61, 0
2, 81711, Note_on_c, 0, 64, 0
2, 81719, Note_on_c, 0, 57, 0
2, 81920, Note_on_c, 0, 52, 106
2, 81920, Note_on_c, 0, 57, 112
2, 81920, Note_on_c, 0, 64, 98
2, 81920, Note_on_c, 0, 61, 98
2, 82080, Note_on_c, 0, 40, 92
2, 82086, Note_on_c, 0, 42, 0
2, 82170, Note_on_c, 0, 64, 0
2, 82170, Note_on_c, 0, 61, 0
2, 82175, Note_on_c, 0, 52, 0
2, 82199, Note_on_c, 0, 57, 0
2, 82400, Note_on_c, 0, 52, 102
2, 82400, Note_on_c, 0, 57, 108
2, 82400, Note_on_c, 0, 61, 100
2, 82400, Note_on_c, 0, 64, 96
2, 82471, Note_on_c, 0, 40, 0
2, 82556, Note_on_c, 0, 52, 0
2, 82560, Note_on_c, 0, 57, 0
2, 82560, Note_on_c, 0, 61, 0
2, 82560, Note_on_c, 0, 64, 0
2, 82560, Note_on_c, 0, 38, 106
2, 82880, Note_on_c, 0, 50, 95
2, 82880, Note_on_c, 0, 54, 86
2, 82934, Note_on_c, 0, 38, 0
2, 82945, Note_on_c, 0, 54, 0
2, 83040, Note_on_c, 0, 42, 125
2, 83080, Note_on_c, 0, 50, 0
2, 83360, Note_on_c, 0, 54, 92
2, 83360, Note_on_c, 0, 50, 95
2, 83490, Note_on_c, 0, 42, 0
2, 83520, Note_on_c, 0, 45, 110
2, 83550, Note_on_c, 0, 54, 0
2, 83555, Note_on_c, 0, 50, 0
2, 83840, Note_on_c, 0, 57, 85
2, 83840, Note_on_c, 0, 50, 90
2, 83997, Note_on_c, 0, 45, 0
2, 84000, Note_on_c, 0, 42, 120
2, 84062, Note_on_c, 0, 57, 0
2, 84100, Note_on_c, 0, 50, 0
2, 84320, Note_on_c, 0, 54, 85
2, 84320, Note_on_c, 0, 50, 88
2, 84472, Note_on_c, 0, 42, 0
2, 84480, Note_on_c, 0, 54, 0
2, 84480, Note_on_c, 0, 50, 0
2, 84480, Note_on_c, 0, 38, 96
2, 84800, Note_on_c, 0, 50, 102
2, 84960, Note_on_c, 0, 42, 112
2, 85022, Note_on_c, 0, 50, 0
2, 85025, Note_on_c, 0, 38, 0
2, 85280, Note_on_c, 0, 54, 102
2, 85435, Note_on_c, 0, 42, 0
2, 85440, Note_on_c, 0, 43, 78
2, 85440, Note_on_c, 0, 45, 98
2, 85474, Note_on_c, 0, 54, 0
2, 85540, Note_on_c, 0, 43, 0
2, 85760, Note_on_c, 0, 50, 100
2, 85760, Note_on_c, 0, 57, 90
2, 85905, Note_on_c, 0, 45, 0
2, 85920, Note_on_c, 0, 42, 110
2, 85996, Note_on_c, 0, 57, 0
2, 86007, Note_on_c, 0, 50, 0
2, 86240, Note_on_c, 0, 54, 110
2, 86240, Note_on_c, 0, 50, 98
2, 86360, Note_on_c, 0, 42, 0
2, 86400, Note_on_c, 0, 54, 0
2, 86400, Note_on_c, 0, 50, 0
2, 86400, Note_on_c, 0, 38, 96
2, 86720, Note_on_c, 0, 50, 104
2, 86880, Note_on_c, 0, 42, 125
2, 86886, Note_on_c, 0, 38, 0
2, 86936, Note_on_c, 0, 50, 0
2, 87200, Note_on_c, 0, 54, 110
2, 87356, Note_on_c, 0, 42, 0
2, 87360, Note_on_c, 0, 45, 102
2, 87405, Note_on_c, 0, 54, 0
2, 87680, Note_on_c, 0, 57, 98
2, 87680, Note_on_c, 0, 50, 98
2, 87814, Note_on_c, 0, 45, 0
2, 87840, Note_on_c, 0, 42, 125
2, 87891, Note_on_c, 0, 57, 0
2, 87905, Note_on_c, 0, 50, 0
2, 88160, Note_on_c, 0, 50, 90
2, 88160, Note_on_c, 0, 54, 98
2, 88291, Note_on_c, 0, 42, 0
2, 88320, Note_on_c, 0, 50, 0
2, 88320, Note_on_c, 0, 54, 0
2, 88320, Note_on_c, 0, 38, 110
2, 88575, Note_on_c, 0, 38, 0
2, 88640, Note_on_c, 0, 50, 125
2, 88800, Note_on_c, 0, 40, 125
2, 88907, Note_on_c, 0, 50, 0
2, 89120, Note_on_c, 0, 52, 123
2, 89203, Note_on_c, 0, 40, 0
2, 89280, Note_on_c, 0, 41, 114
2, 89371, Note_on_c, 0, 52, 0
2, 89600, Note_on_c, 0, 41, 0
2, 89600, Note_on_c, 0, 53, 125
2, 89760, Note_on_c, 0, 42, 123
2, 89893, Note_on_c, 0, 53, 0
2, 90080, Note_on_c, 0, 54, 89
2, 90141, Note_on_c, 0, 42, 0
2, 90240, Note_on_c, 0, 54, 0
2, 90240, Note_on_c, 0, 43, 125
2, 90555, Note_on_c, 0, 43, 0
2, 90560, Note_on_c, 0, 55, 123
2, 90720, Note_on_c, 0, 47, 125
2, 90878, Note_on_c, 0, 55, 0
2, 91036, Note_on_c, 0, 47, 0
2, 91040, Note_on_c, 0, 55, 123
2, 91040, Note_on_c, 0, 59, 125
2, 91200, Note_on_c, 0, 50, 115
2, 91286, Note_on_c, 0, 59, 0
2, 91338, Note_on_c, 0, 55, 0
2, 91496, Note_on_c, 0, 50, 0
2, 91520, Note_on_c, 0, 62, 104
2, 91520, Note_on_c, 0, 55, 120
2, 91680, Note_on_c, 0, 47, 120
2, 91680, Note_on_c, 0, 49, 95
2, 91825, Note_on_c, 0, 55, 0
2, 91828, Note_on_c, 0, 62, 0
2, 91910, Note_on_c, 0, 47, 0
2, 91919, Note_on_c, 0, 49, 0
2, 92000, Note_on_c, 0, 59, 115
2, 92000, Note_on_c, 0, 55, 106
2, 92160, Note_on_c, 0, 59, 0
2, 92160, Note_on_c, 0, 55, 0
2, 92160, Note_on_c, 0, 43, 98
2, 92480, Note_on_c, 0, 59, 112
2, 92480, Note_on_c, 0, 55, 106
2, 92540, Note_on_c, 0, 43, 0
2, 92640, Note_on_c, 0, 47, 125
2, 92788, Note_on_c, 0, 59, 0
2, 92790, Note_on_c, 0, 55, 0
2, 92960, Note_on_c, 0, 59, 115
2, 92960, Note_on_c, 0, 55, 104
2, 93053, Note_on_c, 0, 47, 0
2, 93120, Note_on_c, 0, 50, 125
2, 93245, Note_on_c, 0, 59, 0
2, 93245, Note_on_c, 0, 55, 0
2, 93440, Note_on_c, 0, 55, 96
2, 93440, Note_on_c, 0, 62, 123
2, 93557, Note_on_c, 0, 50, 0
2, 93600, Note_on_c, 0, 47, 125
2, 93738, Note_on_c, 0, 55, 0
2, 93755, Note_on_c, 0, 62, 0
2, 93896, Note_on_c, 0, 47, 0
2, 93920, Note_on_c, 0, 59, 120
2, 93920, Note_on_c, 0, 55, 115
2, 94080, Note_on_c, 0, 59, 0
2, 94080, Note_on_c, 0, 55, 0
2, 94080, Note_on_c, 0, 43, 112
2, 94400, Note_on_c, 0, 59, 115
2, 94400, Note_on_c, 0, 55, 115
2, 94515, Note_on_c, 0, 43, 0
2, 94560, Note_on_c, 0, 47, 125
2, 94685, Note_on_c, 0, 59, 0
2, 94690, Note_on_c, 0, 55, 0
2, 94880, Note_on_c, 0, 59, 115
2, 94880, Note_on_c, 0, 55, 102
2, 94971, Note_on_c, 0, 47, 0
2, 95040, Note_on_c, 0, 50, 120
2, 95135, Note_on_c, 0, 55, 0
2, 95137, Note_on_c, 0, 59, 0
2, 95360, Note_on_c, 0, 55, 108
2, 95360, Note_on_c, 0, 62, 123
2, 95477, Note_on_c, 0, 50, 0
2, 95520, Note_on_c, 0, 47, 123
2, 95634, Note_on_c, 0, 55, 0
2, 95670, Note_on_c, 0, 62, 0
2, 95840, Note_on_c, 0, 55, 110
2, 95840, Note_on_c, 0, 59, 118
2, 95905, Note_on_c, 0, 47, 0
2, 96000, Note_on_c, 0, 55, 0
2, 96000, Note_on_c, 0, 59, 0
2, 96000, Note_on_c, 0, 44, 99
2, 96300, Note_on_c, 0, 44, 0
2, 96320, Note_on_c, 0, 59, 118
2, 96320, Note_on_c, 0, 56, 111
2, 96480, Note_on_c, 0, 47, 120
2, 96566, Note_on_c, 0, 56, 0
2, 96586, Note_on_c, 0, 59, 0
2, 96800, Note_on_c, 0, 59, 118
2, 96800, Note_on_c, 0, 56, 111
2, 96960, Note_on_c, 0, 50, 110
2, 96975, Note_on_c, 0, 47, 0
2, 97060, Note_on_c, 0, 56, 0
2, 97080, Note_on_c, 0, 59, 0
2, 97280, Note_on_c, 0, 62, 110
2, 97280, Note_on_c, 0, 56, 114
2, 97434, Note_on_c, 0, 50, 0
2, 97440, Note_on_c, 0, 47, 118
2, 97541, Note_on_c, 0, 56, 0
2, 97580, Note_on_c, 0, 62, 0
2, 97760, Note_on_c, 0, 56, 117
2, 97760, Note_on_c, 0, 59, 115
2, 97865, Note_on_c, 0, 47, 0
2, 97920, Note_on_c, 0, 56, 0
2, 97920, Note_on_c, 0, 45, 120
2, 98000, Note_on_c, 0, 59, 0
2, 98240, Note_on_c, 0, 61, 100
2, 98240, Note_on_c, 0, 57, 106
2, 98330, Note_on_c, 0, 45, 0
2, 98400, Note_on_c, 0, 49, 125
2, 98524, Note_on_c, 0, 61, 0
2, 98545, Note_on_c, 0, 57, 0
2, 98720, Note_on_c, 0, 57, 123
2, 98720, Note_on_c, 0, 61, 120
2, 98739, Note_on_c, 0, 49, 0
2, 98880, Note_on_c, 0, 45, 115
2, 98962, Note_on_c, 0, 61, 0
2, 99030, Note_on_c, 0, 57, 0
2, 99200, Note_on_c, 0, 57, 108
2, 99200, Note_on_c, 0, 64, 102
2, 99360, Note_on_c, 0, 49, 123
2, 99416, Note_on_c, 0, 45, 0
2, 99450, Note_on_c, 0, 64, 0
2, 99503, Note_on_c, 0, 57, 0
2, 99536, Note_on_c, 0, 49, 0
2, 99680, Note_on_c, 0, 57, 104
2, 99680, Note_on_c, 0, 61, 90
2, 99840, Note_on_c, 0, 57, 0
2, 99840, Note_on_c, 0, 61, 0
2, 99840, Note_on_c, 0, 38, 96
2, 100160, Note_on_c, 0, 57, 106
2, 100160, Note_on_c, 0, 50, 95
2, 100160, Note_on_c, 0, 54, 118
2, 100226, Note_on_c, 0, 38, 0
2, 100320, Note_on_c, 0, 42, 85
2, 100416, Note_on_c, 0, 57, 0
2, 100466, Note_on_c, 0, 54, 0
2, 100479, Note_on_c, 0, 50, 0
2, 100640, Note_on_c, 0, 54, 108
2, 100640, Note_on_c, 0, 50, 90
2, 100640, Note_on_c, 0, 57, 106
2, 100769, Note_on_c, 0, 42, 0
2, 100800, Note_on_c, 0, 45, 125
2, 100926, Note_on_c, 0, 50, 0
2, 100930, Note_on_c, 0, 54, 0
2, 100950, Note_on_c, 0, 57, 0
2, 101120, Note_on_c, 0, 57, 118
2, 101120, Note_on_c, 0, 54, 115
2, 101120, Note_on_c, 0, 50, 96
2, 101120, Note_on_c, 0, 62, 110
2, 101236, Note_on_c, 0, 45, 0
2, 101280, Note_on_c, 0, 42, 106
2, 101399, Note_on_c, 0, 54, 0
2, 101408, Note_on_c, 0, 57, 0
2, 101410, Note_on_c, 0, 50, 0
2, 101425, Note_on_c, 0, 62, 0
2, 101600, Note_on_c, 0, 57, 104
2, 101600, Note_on_c, 0, 50, 98
2, 101600, Note_on_c, 0, 54, 118
2, 101757, Note_on_c, 0, 42, 0
2, 101760, Note_on_c, 0, 57, 0
2, 101760, Note_on_c, 0, 50, 0
2, 101760, Note_on_c, 0, 54, 0
2, 101760, Note_on_c, 0, 40, 98
2, 102080, Note_on_c, 0, 52, 110
2, 102080, Note_on_c, 0, 56, 125
2, 102194, Note_on_c, 0, 40, 0
2, 102240, Note_on_c, 0, 40, 84
2, 102240, Note_on_c, 0, 42, 77
2, 102240, Note_on_c, 0, 43, 42
2, 102259, Note_on_c, 0, 43, 0
2, 102300, Note_on_c, 0, 42, 0
2, 102354, Note_on_c, 0, 40, 0
2, 102360, Note_on_c, 0, 56, 0
2, 102389, Note_on_c, 0, 52, 0
2, 102560, Note_on_c, 0, 56, 121
2, 102560, Note_on_c, 0, 52, 108
2, 102720, Note_on_c, 0, 47, 120
2, 102805, Note_on_c, 0, 52, 0
2, 102879, Note_on_c, 0, 56, 0
2, 103040, Note_on_c, 0, 59, 115
2, 103040, Note_on_c, 0, 52, 96
2, 103175, Note_on_c, 0, 47, 0
2, 103200, Note_on_c, 0, 44, 111
2, 103335, Note_on_c, 0, 52, 0
2, 103341, Note_on_c, 0, 59, 0
2, 103520, Note_on_c, 0, 52, 78
2, 103520, Note_on_c, 0, 56, 117
2, 103603, Note_on_c, 0, 52, 0
2, 103608, Note_on_c, 0, 56, 0
2, 103680, Note_on_c, 0, 44, 0
2, 103680, Note_on_c, 0, 61, 125
2, 103680, Note_on_c, 0, 57, 125
2, 103680, Note_on_c, 0, 45, 120
2, 103680, Note_on_c, 0, 52, 125
2, 103940, Note_on_c, 0, 45, 0
2, 103946, Note_on_c, 0, 52, 0
2, 103955, Note_on_c, 0, 57, 0
2, 103958, Note_on_c, 0, 61, 0
2, 105600, Note_on_c, 0, 38, 125
2, 105885, Note_on_c, 0, 38, 0
2, 105920, Note_on_c, 0, 77, 125
2, 105920, Note_on_c, 0, 80, 117
2, 105920, Note_on_c, 0, 78, 102
2, 105920, Note_on_c, 0, 81, 104
2, 105920, Note_on_c, 0, 74, 112
2, 105989, Note_on_c, 0, 74, 0
2, 106000, Note_on_c, 0, 80, 0
2, 106022, Note_on_c, 0, 77, 0
2, 106210, Note_on_c, 0, 78, 0
2, 106255, Note_on_c, 0, 81, 0
2, 106400, Note_on_c, 0, 42, 125
2, 106400, Note_on_c, 0, 83, 102
2, 106400, Note_on_c, 0, 79, 110
2, 106522, Note_on_c, 0, 79, 0
2, 106560, Note_on_c, 0, 80, 121
2, 106560, Note_on_c, 0, 81, 95
2, 106560, Note_on_c, 0, 78, 78
2, 106560, Note_on_c, 0, 77, 108
2, 106603, Note_on_c, 0, 80, 0
2, 106620, Note_on_c, 0, 77, 0
2, 106632, Note_on_c, 0, 83, 0
2, 106787, Note_on_c, 0, 78, 0
2, 106835, Note_on_c, 0, 81, 0
2, 106880, Note_on_c, 0, 74, 120
2, 107025, Note_on_c, 0, 42, 0
2, 107040, Note_on_c, 0, 45, 123
2, 107146, Note_on_c, 0, 74, 0
2, 107456, Note_on_c, 0, 45, 0
2, 107520, Note_on_c, 0, 38, 125
2, 107755, Note_on_c, 0, 38, 0
2, 107840, Note_on_c, 0, 80, 125
2, 107840, Note_on_c, 0, 81, 112
2, 107840, Note_on_c, 0, 78, 112
2, 107840, Note_on_c, 0, 77, 117
2, 107877, Note_on_c, 0, 80, 0
2, 107885, Note_on_c, 0, 77, 0
2, 108175, Note_on_c, 0, 78, 0
2, 108212, Note_on_c, 0, 81, 0
2, 108320, Note_on_c, 0, 79, 112
2, 108320, Note_on_c, 0, 83, 95
2, 108320, Note_on_c, 0, 42, 125
2, 108441, Note_on_c, 0, 79, 0
2, 108480, Note_on_c, 0, 80, 121
2, 108480, Note_on_c, 0, 77, 102
2, 108480, Note_on_c, 0, 81, 93
2, 108560, Note_on_c, 0, 80, 0
2, 108575, Note_on_c, 0, 77, 0
2, 108585, Note_on_c, 0, 83, 0
2, 108640, Note_on_c, 0, 78, 98
2, 108744, Note_on_c, 0, 81, 0
2, 108800, Note_on_c, 0, 74, 100
2, 108819, Note_on_c, 0, 78, 0
2, 108888, Note_on_c, 0, 42, 0
2, 108960, Note_on_c, 0, 45, 120
2, 109089, Note_on_c, 0, 74, 0
2, 109248, Note_on_c, 0, 45, 0
2, 109440, Note_on_c, 0, 43, 93
2, 109760, Note_on_c, 0, 59, 95
2, 109760, Note_on_c, 0, 62, 83
2, 109760, Note_on_c, 0, 55, 89
2, 109845, Note_on_c, 0, 43, 0
2, 109920, Note_on_c, 0, 47, 123
2, 109975, Note_on_c, 0, 59, 0
2, 109979, Note_on_c, 0, 55, 0
2, 110000, Note_on_c, 0, 62, 0
2, 110240, Note_on_c, 0, 55, 84
2, 110240, Note_on_c, 0, 59, 92
2, 110240, Note_on_c, 0, 62, 83
2, 110400, Note_on_c, 0, 50, 108
2, 110414, Note_on_c, 0, 47, 0
2, 110464, Note_on_c, 0, 59, 0
2, 110480, Note_on_c, 0, 55, 0
2, 110485, Note_on_c, 0, 62, 0
2, 110720, Note_on_c, 0, 55, 64
2, 110720, Note_on_c, 0, 59, 78
2, 110720, Note_on_c, 0, 62, 76
2, 110880, Note_on_c, 0, 47, 123
2, 110885, Note_on_c, 0, 50, 0
2, 110995, Note_on_c, 0, 59, 0
2, 111011, Note_on_c, 0, 62, 0
2, 111016, Note_on_c, 0, 55, 0
2, 111200, Note_on_c, 0, 59, 74
2, 111200, Note_on_c, 0, 62, 72
2, 111200, Note_on_c, 0, 55, 66
2, 111305, Note_on_c, 0, 62, 0
2, 111306, Note_on_c, 0, 47, 0
2, 111325, Note_on_c, 0, 59, 0
2, 111332, Note_on_c, 0, 55, 0
2, 111360, Note_on_c, 0, 38, 102
2, 111680, Note_on_c, 0, 57, 71
2, 111680, Note_on_c, 0, 50, 64
2, 111680, Note_on_c, 0, 54, 77
2, 111782, Note_on_c, 0, 38, 0
2, 111840, Note_on_c, 0, 42, 90
2, 111941, Note_on_c, 0, 50, 0
2, 111950, Note_on_c, 0, 54, 0
2, 111955, Note_on_c, 0, 57, 0
2, 112160, Note_on_c, 0, 54, 95
2, 112160, Note_on_c, 0, 57, 88
2, 112160, Note_on_c, 0, 50, 86
2, 112312, Note_on_c, 0, 42, 0
2, 112320, Note_on_c, 0, 45, 108
2, 112410, Note_on_c, 0, 54, 0
2, 112425, Note_on_c, 0, 50, 0
2, 112430, Note_on_c, 0, 57, 0
2, 112640, Note_on_c, 0, 50, 83
2, 112640, Note_on_c, 0, 57, 84
2, 112640, Note_on_c, 0, 54, 90
2, 112800, Note_on_c, 0, 42, 110
2, 112808, Note_on_c, 0, 45, 0
2, 112921, Note_on_c, 0, 50, 0
2, 112930, Note_on_c, 0, 54, 0
2, 112956, Note_on_c, 0, 57, 0
2, 113120, Note_on_c, 0, 54, 96
2, 113120, Note_on_c, 0, 50, 85
2, 113120, Note_on_c, 0, 57, 88
2, 113226, Note_on_c, 0, 50, 0
2, 113259, Note_on_c, 0, 54, 0
2, 113280, Note_on_c, 0, 42, 0
2, 113280, Note_on_c, 0, 57, 0
2, 113280, Note_on_c, 0, 45, 125
2, 113600, Note_on_c, 0, 57, 98
2, 113600, Note_on_c, 0, 61, 93
2, 113600, Note_on_c, 0, 52, 84
2, 113736, Note_on_c, 0, 45, 0
2, 113760, Note_on_c, 0, 43, 104
2, 113830, Note_on_c, 0, 57, 0
2, 113836, Note_on_c, 0, 61, 0
2, 113840, Note_on_c, 0, 52, 0
2, 114080, Note_on_c, 0, 57, 106
2, 114080, Note_on_c, 0, 61, 98
2, 114080, Note_on_c, 0, 52, 98
2, 114240, Note_on_c, 0, 42, 98
2, 114264, Note_on_c, 0, 43, 0
2, 114307, Note_on_c, 0, 57, 0
2, 114312, Note_on_c, 0, 61, 0
2, 114325, Note_on_c, 0, 52, 0
2, 114560, Note_on_c, 0, 57, 93
2, 114560, Note_on_c, 0, 52, 92
2, 114560, Note_on_c, 0, 61, 90
2, 114700, Note_on_c, 0, 42, 0
2, 114720, Note_on_c, 0, 40, 95
2, 114775, Note_on_c, 0, 57, 0
2, 114800, Note_on_c, 0, 61, 0
2, 114805, Note_on_c, 0, 52, 0
2, 115040, Note_on_c, 0, 61, 93
2, 115040, Note_on_c, 0, 57, 89
2, 115040, Note_on_c, 0, 52, 79
2, 115083, Note_on_c, 0, 40, 0
2, 115200, Note_on_c, 0, 61, 0
2, 115200, Note_on_c, 0, 57, 0
2, 115200, Note_on_c, 0, 52, 0
2, 115200, Note_on_c, 0, 38, 98
2, 115520, Note_on_c, 0, 57, 95
2, 115520, Note_on_c, 0, 54, 100
2, 115520, Note_on_c, 0, 50, 85
2, 115619, Note_on_c, 0, 38, 0
2, 115680, Note_on_c, 0, 40, 100
2, 115774, Note_on_c, 0, 54, 0
2, 115780, Note_on_c, 0, 57, 0
2, 115785, Note_on_c, 0, 50, 0
2, 116000, Note_on_c, 0, 57, 93
2, 116000, Note_on_c, 0, 54, 102
2, 116000, Note_on_c, 0, 50, 89
2, 116160, Note_on_c, 0, 42, 125
2, 116227, Note_on_c, 0, 40, 0
2, 116232, Note_on_c, 0, 54, 0
2, 116245, Note_on_c, 0, 57, 0
2, 116251, Note_on_c, 0, 50, 0
2, 116480, Note_on_c, 0, 54, 96
2, 116480, Note_on_c, 0, 50, 75
2, 116480, Note_on_c, 0, 57, 92
2, 116626, Note_on_c, 0, 42, 0
2, 116640, Note_on_c, 0, 38, 106
2, 116721, Note_on_c, 0, 54, 0
2, 116725, Note_on_c, 0, 50, 0
2, 116745, Note_on_c, 0, 57, 0
2, 116960, Note_on_c, 0, 54, 88
2, 116960, Note_on_c, 0, 57, 85
2, 116960, Note_on_c, 0, 50, 74
2, 117100, Note_on_c, 0, 54, 0
2, 117107, Note_on_c, 0, 50, 0
2, 117120, Note_on_c, 0, 38, 0
2, 117120, Note_on_c, 0, 57, 0
2, 117120, Note_on_c, 0, 43, 123
2, 117440, Note_on_c, 0, 55, 118
2, 117440, Note_on_c, 0, 59, 98
2, 117440, Note_on_c, 0, 62, 100
2, 117600, Note_on_c, 0, 41, 49
2, 117600, Note_on_c, 0, 47, 104
2, 117621, Note_on_c, 0, 43, 0
2, 117625, Note_on_c, 0, 41, 0
2, 117634, Note_on_c, 0, 55, 0
2, 117653, Note_on_c, 0, 59, 0
2, 117654, Note_on_c, 0, 62, 0
2, 117920, Note_on_c, 0, 62, 102
2, 117920, Note_on_c, 0, 59, 102
2, 117920, Note_on_c, 0, 55, 118
2, 117969, Note_on_c, 0, 47, 0
2, 118080, Note_on_c, 0, 50, 125
2, 118170, Note_on_c, 0, 62, 0
2, 118175, Note_on_c, 0, 55, 0
2, 118186, Note_on_c, 0, 59, 0
2, 118400, Note_on_c, 0, 62, 89
2, 118400, Note_on_c, 0, 55, 100
2, 118400, Note_on_c, 0, 59, 90
2, 118491, Note_on_c, 0, 50, 0
2, 118560, Note_on_c, 0, 47, 96
2, 118641, Note_on_c, 0, 62, 0
2, 118651, Note_on_c, 0, 59, 0
2, 118655, Note_on_c, 0, 55, 0
2, 118880, Note_on_c, 0, 62, 88
2, 118880, Note_on_c, 0, 55, 106
2, 118880, Note_on_c, 0, 59, 95
2, 118985, Note_on_c, 0, 47, 0
2, 119034, Note_on_c, 0, 55, 0
2, 119040, Note_on_c, 0, 62, 0
2, 119040, Note_on_c, 0, 59, 0
2, 119040, Note_on_c, 0, 38, 106
2, 119360, Note_on_c, 0, 57, 108
2, 119360, Note_on_c, 0, 54, 112
2, 119517, Note_on_c, 0, 38, 0
2, 119520, Note_on_c, 0, 42, 100
2, 119635, Note_on_c, 0, 54, 0
2, 119636, Note_on_c, 0, 57, 0
2, 119840, Note_on_c, 0, 54, 108
2, 119840, Note_on_c, 0, 57, 100
2, 119977, Note_on_c, 0, 42, 0
2, 120000, Note_on_c, 0, 45, 125
2, 120115, Note_on_c, 0, 57, 0
2, 120116, Note_on_c, 0, 54, 0
2, 120320, Note_on_c, 0, 54, 110
2, 120320, Note_on_c, 0, 57, 104
2, 120480, Note_on_c, 0, 42, 112
2, 120506, Note_on_c, 0, 45, 0
2, 120560, Note_on_c, 0, 57, 0
2, 120609, Note_on_c, 0, 54, 0
2, 120800, Note_on_c, 0, 57, 110
2, 120800, Note_on_c, 0, 54, 110
2, 120931, Note_on_c, 0, 42, 0
2, 120960, Note_on_c, 0, 57, 0
2, 120960, Note_on_c, 0, 54, 0
2, 120960, Note_on_c, 0, 40, 104
2, 121280, Note_on_c, 0, 64, 106
2, 121280, Note_on_c, 0, 59, 110
2, 121280, Note_on_c, 0, 56, 111
2, 121340, Note_on_c, 0, 40, 0
2, 121440, Note_on_c, 0, 42, 110
2, 121583, Note_on_c, 0, 64, 0
2, 121595, Note_on_c, 0, 56, 0
2, 121603, Note_on_c, 0, 59, 0
2, 121760, Note_on_c, 0, 64, 104
2, 121760, Note_on_c, 0, 56, 102
2, 121760, Note_on_c, 0, 59, 104
2, 121920, Note_on_c, 0, 44, 125
2, 121941, Note_on_c, 0, 42, 0
2, 122050, Note_on_c, 0, 64, 0
2, 122065, Note_on_c, 0, 56, 0
2, 122075, Note_on_c, 0, 59, 0
2, 122240, Note_on_c, 0, 56, 111
2, 122240, Note_on_c, 0, 64, 102
2, 122240, Note_on_c, 0, 59, 108
2, 122381, Note_on_c, 0, 44, 0
2, 122400, Note_on_c, 0, 47, 112
2, 122516, Note_on_c, 0, 56, 0
2, 122523, Note_on_c, 0, 64, 0
2, 122536, Note_on_c, 0, 59, 0
2, 122720, Note_on_c, 0, 59, 102
2, 122720, Note_on_c, 0, 56, 105
2, 122720, Note_on_c, 0, 64, 92
2, 122855, Note_on_c, 0, 47, 0
2, 122880, Note_on_c, 0, 59, 0
2, 122880, Note_on_c, 0, 56, 0
2, 122880, Note_on_c, 0, 45, 123
2, 122962, Note_on_c, 0, 64, 0
2, 123200, Note_on_c, 0, 57, 98
2, 123200, Note_on_c, 0, 64, 98
2, 123200, Note_on_c, 0, 52, 100
2, 123200, Note_on_c, 0, 61, 100
2, 123346, Note_on_c, 0, 45, 0
2, 123360, Note_on_c, 0, 43, 110
2, 123446, Note_on_c, 0, 52, 0
2, 123510, Note_on_c, 0, 64, 0
2, 123595, Note_on_c, 0, 57, 0
2, 123604, Note_on_c, 0, 61, 0
2, 123680, Note_on_c, 0, 57, 115
2, 123680, Note_on_c, 0, 61, 102
2, 123680, Note_on_c, 0, 52, 100
2, 123680, Note_on_c, 0, 64, 100
2, 123840, Note_on_c, 0, 42, 98
2, 123846, Note_on_c, 0, 43, 0
2, 123942, Note_on_c, 0, 52, 0
2, 123950, Note_on_c, 0, 61, 0
2, 123951, Note_on_c, 0, 64, 0
2, 123959, Note_on_c, 0, 57, 0
2, 124160, Note_on_c, 0, 64, 98
2, 124160, Note_on_c, 0, 52, 106
2, 124160, Note_on_c, 0, 57, 112
2, 124160, Note_on_c, 0, 61, 98
2, 124320, Note_on_c, 0, 40, 92
2, 124326, Note_on_c, 0, 42, 0
2, 124410, Note_on_c, 0, 64, 0
2, 124410, Note_on_c, 0, 61, 0
2, 124415, Note_on_c, 0, 52, 0
2, 124439, Note_on_c, 0, 57, 0
2, 124640, Note_on_c, 0, 52, 102
2, 124640, Note_on_c, 0, 57, 108
2, 124640, Note_on_c, 0, 61, 100
2, 124640, Note_on_c, 0, 64, 96
2, 124711, Note_on_c, 0, 40, 0
2, 124796, Note_on_c, 0, 52, 0
2, 124800, Note_on_c, 0, 57, 0
2, 124800, Note_on_c, 0, 61, 0
2, 124800, Note_on_c, 0, 64, 0
2, 124800, Note_on_c, 0, 38, 106
2, 125120, Note_on_c, 0, 50, 95
2, 125120, Note_on_c, 0, 54, 86
2, 125174, Note_on_c, 0, 38, 0
2, 125185, Note_on_c, 0, 54, 0
2, 125280, Note_on_c, 0, 42, 125
2, 125320, Note_on_c, 0, 50, 0
2, 125600, Note_on_c, 0, 54, 92
2, 125600, Note_on_c, 0, 50, 95
2, 125730, Note_on_c, 0, 42, 0
2, 125760, Note_on_c, 0, 45, 110
2, 125790, Note_on_c, 0, 54, 0
2, 125795, Note_on_c, 0, 50, 0
2, 126080, Note_on_c, 0, 57, 85
2, 126080, Note_on_c, 0, 50, 90
2, 126237, Note_on_c, 0, 45, 0
2, 126240, Note_on_c, 0, 42, 120
2, 126302, Note_on_c, 0, 57, 0
2, 126340, Note_on_c, 0, 50, 0
2, 126560, Note_on_c, 0, 50, 88
2, 126560, Note_on_c, 0, 54, 85
2, 126712, Note_on_c, 0, 42, 0
2, 126720, Note_on_c, 0, 50, 0
2, 126720, Note_on_c, 0, 54, 0
2, 126720, Note_on_c, 0, 38, 96
2, 127040, Note_on_c, 0, 50, 102
2, 127200, Note_on_c, 0, 42, 112
2, 127262, Note_on_c, 0, 50, 0
2, 127265, Note_on_c, 0, 38, 0
2, 127520, Note_on_c, 0, 54, 102
2, 127675, Note_on_c, 0, 42, 0
2, 127680, Note_on_c, 0, 45, 98
2, 127680, Note_on_c, 0, 43, 78
2, 127714, Note_on_c, 0, 54, 0
2, 127780, Note_on_c, 0, 43, 0
2, 128000, Note_on_c, 0, 50, 100
2, 128000, Note_on_c, 0, 57, 90
2, 128145, Note_on_c, 0, 45, 0
2, 128160, Note_on_c, 0, 42, 110
2, 128236, Note_on_c, 0, 57, 0
2, 128247, Note_on_c, 0, 50, 0
2, 128480, Note_on_c, 0, 50, 98
2, 128480, Note_on_c, 0, 54, 110
2, 128600, Note_on_c, 0, 42, 0
2, 128640, Note_on_c, 0, 50, 0
2, 128640, Note_on_c, 0, 54, 0
2, 128640, Note_on_c, 0, 38, 96
2, 128960, Note_on_c, 0, 50, 104
2, 129120, Note_on_c, 0, 42, 125
2, 129126, Note_on_c, 0, 38, 0
2, 129176, Note_on_c, 0, 50, 0
2, 129440, Note_on_c, 0, 54, 110
2, 129596, Note_on_c, 0, 42, 0
2, 129600, Note_on_c, 0, 45, 102
2, 129645, Note_on_c, 0, 54, 0
2, 129920, Note_on_c, 0, 50, 98
2, 129920, Note_on_c, 0, 57, 98
2, 130054, Note_on_c, 0, 45, 0
2, 130080, Note_on_c, 0, 42, 125
2, 130131, Note_on_c, 0, 57, 0
2, 130145, Note_on_c, 0, 50, 0
2, 130400, Note_on_c, 0, 54, 98
2, 130400, Note_on_c, 0, 50, 90
2, 130531, Note_on_c, 0, 42, 0
2, 130560, Note_on_c, 0, 54, 0
2, 130560, Note_on_c, 0, 50, 0
2, 130560, Note_on_c, 0, 38, 110
2, 130815, Note_on_c, 0, 38, 0
2, 130880, Note_on_c, 0, 50, 125
2, 131040, Note_on_c, 0, 40, 125
2, 131147, Note_on_c, 0, 50, 0
2, 131360, Note_on_c, 0, 52, 123
2, 131443, Note_on_c, 0, 40, 0
2, 131520, Note_on_c, 0, 41, 114
2, 131611, Note_on_c, 0, 52, 0
2, 131840, Note_on_c, 0, 41, 0
2, 131840, Note_on_c, 0, 53, 125
2, 132000, Note_on_c, 0, 42, 123
2, 132133, Note_on_c, 0, 53, 0
2, 132320, Note_on_c, 0, 54, 89
2, 132381, Note_on_c, 0, 42, 0
2, 132480, Note_on_c, 0, 54, 0
2, 132480, Note_on_c, 0, 43, 125
2, 132795, Note_on_c, 0, 43, 0
2, 132800, Note_on_c, 0, 55, 123
2, 132960, Note_on_c, 0, 47, 125
2, 133118, Note_on_c, 0, 55, 0
2, 133276, Note_on_c, 0, 47, 0
2, 133280, Note_on_c, 0, 55, 123
2, 133280, Note_on_c, 0, 59, 125
2, 133440, Note_on_c, 0, 50, 115
2, 133526, Note_on_c, 0, 59, 0
2, 133578, Note_on_c, 0, 55, 0
2, 133736, Note_on_c, 0, 50, 0
2, 133760, Note_on_c, 0, 55, 120
2, 133760, Note_on_c, 0, 62, 104
2, 133920, Note_on_c, 0, 47, 120
2, 133920, Note_on_c, 0, 49, 95
2, 134065, Note_on_c, 0, 55, 0
2, 134068, Note_on_c, 0, 62, 0
2, 134150, Note_on_c, 0, 47, 0
2, 134159, Note_on_c, 0, 49, 0
2, 134240, Note_on_c, 0, 55, 106
2, 134240, Note_on_c, 0, 59, 115
2, 134400, Note_on_c, 0, 55, 0
2, 134400, Note_on_c, 0, 59, 0
2, 134400, Note_on_c, 0, 43, 98
2, 134720, Note_on_c, 0, 55, 106
2, 134720, Note_on_c, 0, 59, 112
2, 134780, Note_on_c, 0, 43, 0
2, 134880, Note_on_c, 0, 47, 125
2, 135028, Note_on_c, 0, 59, 0
2, 135030, Note_on_c, 0, 55, 0
2, 135200, Note_on_c, 0, 59, 115
2, 135200, Note_on_c, 0, 55, 104
2, 135293, Note_on_c, 0, 47, 0
2, 135360, Note_on_c, 0, 50, 125
2, 135485, Note_on_c, 0, 59, 0
2, 135485, Note_on_c, 0, 55, 0
2, 135680, Note_on_c, 0, 55, 96
2, 135680, Note_on_c, 0, 62, 123
2, 135797, Note_on_c, 0, 50, 0
2, 135840, Note_on_c, 0, 47, 125
2, 135978, Note_on_c, 0, 55, 0
2, 135995, Note_on_c, 0, 62, 0
2, 136136, Note_on_c, 0, 47, 0
2, 136160, Note_on_c, 0, 59, 120
2, 136160, Note_on_c, 0, 55, 115
2, 136320, Note_on_c, 0, 59, 0
2, 136320, Note_on_c, 0, 55, 0
2, 136320, Note_on_c, 0, 43, 112
2, 136640, Note_on_c, 0, 59, 115
2, 136640, Note_on_c, 0, 55, 115
2, 136755, Note_on_c, 0, 43, 0
2, 136800, Note_on_c, 0, 47, 125
2, 136925, Note_on_c, 0, 59, 0
2, 136930, Note_on_c, 0, 55, 0
2, 137120, Note_on_c, 0, 55, 102
2, 137120, Note_on_c, 0, 59, 115
2, 137211, Note_on_c, 0, 47, 0
2, 137280, Note_on_c, 0, 50, 120
2, 137375, Note_on_c, 0, 55, 0
2, 137377, Note_on_c, 0, 59, 0
2, 137600, Note_on_c, 0, 62, 123
2, 137600, Note_on_c, 0, 55, 108
2, 137717, Note_on_c, 0, 50, 0
2, 137760, Note_on_c, 0, 47, 123
2, 137874, Note_on_c, 0, 55, 0
2, 137910, Note_on_c, 0, 62, 0
2, 138080, Note_on_c, 0, 55, 110
2, 138080, Note_on_c, 0, 59, 118
2, 138145, Note_on_c, 0, 47, 0
2, 138240, Note_on_c, 0, 55, 0
2, 138240, Note_on_c, 0, 59, 0
2, 138240, Note_on_c, 0, 44, 99
2, 138540, Note_on_c, 0, 44, 0
2, 138560, Note_on_c, 0, 56, 111
2, 138560, Note_on_c, 0, 59, 118
2, 138720, Note_on_c, 0, 47, 120
2, 138806, Note_on_c, 0, 56, 0
2, 138826, Note_on_c, 0, 59, 0
2, 139040, Note_on_c, 0, 56, 111
2, 139040, Note_on_c, 0, 59, 118
2, 139200, Note_on_c, 0, 50, 110
2, 139215, Note_on_c, 0, 47, 0
2, 139300, Note_on_c, 0, 56, 0
2, 139320, Note_on_c, 0, 59, 0
2, 139520, Note_on_c, 0, 56, 114
2, 139520, Note_on_c, 0, 62, 110
2, 139674, Note_on_c, 0, 50, 0
2, 139680, Note_on_c, 0, 47, 118
2, 139781, Note_on_c, 0, 56, 0
2, 139820, Note_on_c, 0, 62, 0
2, 140000, Note_on_c, 0, 56, 117
2, 140000, Note_on_c, 0, 59, 115
2, 140105, Note_on_c, 0, 47, 0
2, 140160, Note_on_c, 0, 56, 0
2, 140160, Note_on_c, 0, 45, 120
2, 140240, Note_on_c, 0, 59, 0
2, 140480, Note_on_c, 0, 61, 100
2, 140480, Note_on_c, 0, 57, 106
2, 140570, Note_on_c, 0, 45, 0
2, 140640, Note_on_c, 0, 49, 125
2, 140764, Note_on_c, 0, 61, 0
2, 140785, Note_on_c, 0, 57, 0
2, 140960, Note_on_c, 0, 57, 123
2, 140960, Note_on_c, 0, 61, 120
2, 140979, Note_on_c, 0, 49, 0
2, 141120, Note_on_c, 0, 45, 115
2, 141202, Note_on_c, 0, 61, 0
2, 141270, Note_on_c, 0, 57, 0
2, 141440, Note_on_c, 0, 64, 102
2, 141440, Note_on_c, 0, 57, 108
2, 141600, Note_on_c, 0, 49, 123
2, 141656, Note_on_c, 0, 45, 0
2, 141690, Note_on_c, 0, 64, 0
2, 141743, Note_on_c, 0, 57, 0
2, 141776, Note_on_c, 0, 49, 0
2, 141920, Note_on_c, 0, 57, 104
2, 141920, Note_on_c, 0, 61, 90
2, 142080, Note_on_c, 0, 57, 0
2, 142080, Note_on_c, 0, 61, 0
2, 142080, Note_on_c, 0, 38, 96
2, 142400, Note_on_c, 0, 54, 118
2, 142400, Note_on_c, 0, 50, 95
2, 142400, Note_on_c, 0, 57, 106
2, 142466, Note_on_c, 0, 38, 0
2, 142560, Note_on_c, 0, 42, 85
2, 142656, Note_on_c, 0, 57, 0
2, 142706, Note_on_c, 0, 54, 0
2, 142719, Note_on_c, 0, 50, 0
2, 142880, Note_on_c, 0, 57, 106
2, 142880, Note_on_c, 0, 54, 108
2, 142880, Note_on_c, 0, 50, 90
2, 143009, Note_on_c, 0, 42, 0
2, 143040, Note_on_c, 0, 45, 125
2, 143166, Note_on_c, 0, 50, 0
2, 143170, Note_on_c, 0, 54, 0
2, 143190, Note_on_c, 0, 57, 0
2, 143360, Note_on_c, 0, 50, 96
2, 143360, Note_on_c, 0, 62, 110
2, 143360, Note_on_c, 0, 57, 118
2, 143360, Note_on_c, 0, 54, 115
2, 143476, Note_on_c, 0, 45, 0
2, 143520, Note_on_c, 0, 42, 106
2, 143639, Note_on_c, 0, 54, 0
2, 143648, Note_on_c, 0, 57, 0
2, 143650, Note_on_c, 0, 50, 0
2, 143665, Note_on_c, 0, 62, 0
2, 143840, Note_on_c, 0, 50, 98
2, 143840, Note_on_c, 0, 54, 118
2, 143840, Note_on_c, 0, 57, 104
2, 143997, Note_on_c, 0, 42, 0
2, 144000, Note_on_c, 0, 50, 0
2, 144000, Note_on_c, 0, 54, 0
2, 144000, Note_on_c, 0, 57, 0
2, 144000, Note_on_c, 0, 40, 98
2, 144320, Note_on_c, 0, 56, 125
2, 144320, Note_on_c, 0, 52, 110
2, 144434, Note_on_c, 0, 40, 0
2, 144480, Note_on_c, 0, 43, 42
2, 144480, Note_on_c, 0, 40, 84
2, 144480, Note_on_c, 0, 42, 77
2, 144499, Note_on_c, 0, 43, 0
2, 144540, Note_on_c, 0, 42, 0
2, 144594, Note_on_c, 0, 40, 0
2, 144600, Note_on_c, 0, 56, 0
2, 144629, Note_on_c, 0, 52, 0
2, 144800, Note_on_c, 0, 52, 108
2, 144800, Note_on_c, 0, 56, 121
2, 144960, Note_on_c, 0, 47, 120
2, 145045, Note_on_c, 0, 52, 0
2, 145119, Note_on_c, 0, 56, 0
2, 145280, Note_on_c, 0, 59, 115
2, 145280, Note_on_c, 0, 52, 96
2, 145415, Note_on_c, 0, 47, 0
2, 145440, Note_on_c, 0, 44, 111
2, 145575, Note_on_c, 0, 52, 0
2, 145581, Note_on_c, 0, 59, 0
2, 145760, Note_on_c, 0, 56, 117
2, 145760, Note_on_c, 0, 52, 78
2, 145843, Note_on_c, 0, 52, 0
2, 145848, Note_on_c, 0, 56, 0
2, 145920, Note_on_c, 0, 44, 0
2, 145920, Note_on_c, 0, 45, 120
2, 145920, Note_on_c, 0, 57, 125
2, 145920, Note_on_c, 0, 52, 125
2, 145920, Note_on_c, 0, 61, 125
2, 146180, Note_on_c, 0, 45, 0
2, 146186, Note_on_c, 0, 52, 0
2, 146195, Note_on_c, 0, 57, 0
2, 146198, Note_on_c, 0, 61, 0
2, 148160, Note_on_c, 0, 81, 115
2, 148160, Note_on_c, 0, 80, 108
2, 148160, Note_on_c, 0, 86, 106
2, 148216, Note_on_c, 0, 80, 0
2, 148507, Note_on_c, 0, 86, 0
2, 148534, Note_on_c, 0, 81, 0
2, 148640, Note_on_c, 0, 74, 79
2, 148745, Note_on_c, 0, 74, 0
2, 148800, Note_on_c, 0, 80, 125
2, 148800, Note_on_c, 0, 81, 118
2, 148800, Note_on_c, 0, 86, 112
2, 148855, Note_on_c, 0, 80, 0
2, 149061, Note_on_c, 0, 81, 0
2, 149075, Note_on_c, 0, 86, 0
2, 149760, Note_on_c, 0, 38, 125
2, 149995, Note_on_c, 0, 38, 0
2, 150080, Note_on_c, 0, 81, 112
2, 150080, Note_on_c, 0, 78, 112
2, 150080, Note_on_c, 0, 77, 117
2, 150080, Note_on_c, 0, 80, 125
2, 150117, Note_on_c, 0, 80, 0
2, 150125, Note_on_c, 0, 77, 0
2, 150415, Note_on_c, 0, 78, 0
2, 150452, Note_on_c, 0, 81, 0
2, 150560, Note_on_c, 0, 83, 95
2, 150560, Note_on_c, 0, 42, 125
2, 150560, Note_on_c, 0, 79, 112
2, 150681, Note_on_c, 0, 79, 0
2, 150720, Note_on_c, 0, 80, 121
2, 150720, Note_on_c, 0, 77, 102
2, 150720, Note_on_c, 0, 81, 93
2, 150800, Note_on_c, 0, 80, 0
2, 150815, Note_on_c, 0, 77, 0
2, 150825, Note_on_c, 0, 83, 0
2, 150880, Note_on_c, 0, 78, 98
2, 150984, Note_on_c, 0, 81, 0
2, 151040, Note_on_c, 0, 74, 100
2, 151059, Note_on_c, 0, 78, 0
2, 151128, Note_on_c, 0, 42, 0
2, 151200, Note_on_c, 0, 45, 120
2, 151329, Note_on_c, 0, 74, 0
2, 151488, Note_on_c, 0, 45, 0
2, 152000, Note_on_c, 0, 80, 108
2, 152000, Note_on_c, 0, 81, 115
2, 152000, Note_on_c, 0, 86, 106
2, 152056, Note_on_c, 0, 80, 0
2, 152347, Note_on_c, 0, 86, 0
2, 152374, Note_on_c, 0, 81, 0
2, 152480, Note_on_c, 0, 74, 79
2, 152585, Note_on_c, 0, 74, 0
2, 152640, Note_on_c, 0, 80, 125
2, 152640, Note_on_c, 0, 86, 112
2, 152640, Note_on_c, 0, 81, 118
2, 152695, Note_on_c, 0, 80, 0
2, 152901, Note_on_c, 0, 81, 0
2, 152915, Note_on_c, 0, 86, 0
2, 153600, Note_on_c, 0, 38, 125
2, 153835, Note_on_c, 0, 38, 0
2, 153920, Note_on_c, 0, 78, 112
2, 153920, Note_on_c, 0, 77, 117
2, 153920, Note_on_c, 0, 81, 112
2, 153920, Note_on_c, 0, 80, 125
2, 153957, Note_on_c, 0, 80, 0
2, 153965, Note_on_c, 0, 77, 0
2, 154255, Note_on_c, 0, 78, 0
2, 154292, Note_on_c, 0, 81, 0
2, 154400, Note_on_c, 0, 83, 95
2, 154400, Note_on_c, 0, 79, 112
2, 154400, Note_on_c, 0, 42, 125
2, 154521, Note_on_c, 0, 79, 0
2, 154560, Note_on_c, 0, 77, 102
2, 154560, Note_on_c, 0, 80, 121
2, 154560, Note_on_c, 0, 81, 93
2, 154640, Note_on_c, 0, 80, 0
2, 154655, Note_on_c, 0, 77, 0
2, 154665, Note_on_c, 0, 83, 0
2, 154720, Note_on_c, 0, 78, 98
2, 154824, Note_on_c, 0, 81, 0
2, 154880, Note_on_c, 0, 74, 100
2, 154899, Note_on_c, 0, 78, 0
2, 154968, Note_on_c, 0, 42, 0
2, 155040, Note_on_c, 0, 45, 120
2, 155169, Note_on_c, 0, 74, 0
2, 155328, Note_on_c, 0, 45, 0
2, 155520, Note_on_c, 0, 40, 98
2, 155840, Note_on_c, 0, 52, 110
2, 155840, Note_on_c, 0, 56, 125
2, 155954, Note_on_c, 0, 40, 0
2, 156000, Note_on_c, 0, 40, 84
2, 156000, Note_on_c, 0, 42, 77
2, 156000, Note_on_c, 0, 43, 42
2, 156019, Note_on_c, 0, 43, 0
2, 156060, Note_on_c, 0, 42, 0
2, 156114, Note_on_c, 0, 40, 0
2, 156120, Note_on_c, 0, 56, 0
2, 156149, Note_on_c, 0, 52, 0
2, 156320, Note_on_c, 0, 56, 121
2, 156320, Note_on_c, 0, 52, 108
2, 156480, Note_on_c, 0, 47, 120
2, 156565, Note_on_c, 0, 52, 0
2, 156639, Note_on_c, 0, 56, 0
2, 156800, Note_on_c, 0, 59, 115
2, 156800, Note_on_c, 0, 52, 96
2, 156935, Note_on_c, 0, 47, 0
2, 156960, Note_on_c, 0, 44, 111
2, 157095, Note_on_c, 0, 52, 0
2, 157101, Note_on_c, 0, 59, 0
2, 157280, Note_on_c, 0, 52, 78
2, 157280, Note_on_c, 0, 56, 117
2, 157363, Note_on_c, 0, 52, 0
2, 157368, Note_on_c, 0, 56, 0
2, 157440, Note_on_c, 0, 44, 0
2, 157440, Note_on_c, 0, 45, 125
2, 157760, Note_on_c, 0, 61, 93
2, 157760, Note_on_c, 0, 52, 84
2, 157760, Note_on_c, 0, 57, 98
2, 157896, Note_on_c, 0, 45, 0
2, 157920, Note_on_c, 0, 43, 104
2, 157990, Note_on_c, 0, 57, 0
2, 157996, Note_on_c, 0, 61, 0
2, 158000, Note_on_c, 0, 52, 0
2, 158240, Note_on_c, 0, 52, 98
2, 158240, Note_on_c, 0, 57, 106
2, 158240, Note_on_c, 0, 61, 98
2, 158400, Note_on_c, 0, 42, 98
2, 158424, Note_on_c, 0, 43, 0
2, 158467, Note_on_c, 0, 57, 0
2, 158472, Note_on_c, 0, 61, 0
2, 158485, Note_on_c, 0, 52, 0
2, 158720, Note_on_c, 0, 52, 92
2, 158720, Note_on_c, 0, 61, 90
2, 158720, Note_on_c, 0, 57, 93
2, 158860, Note_on_c, 0, 42, 0
2, 158880, Note_on_c, 0, 40, 95
2, 158935, Note_on_c, 0, 57, 0
2, 158960, Note_on_c, 0, 61, 0
2, 158965, Note_on_c, 0, 52, 0
2, 159200, Note_on_c, 0, 61, 93
2, 159200, Note_on_c, 0, 52, 79
2, 159200, Note_on_c, 0, 57, 89
2, 159243, Note_on_c, 0, 40, 0
2, 159360, Note_on_c, 0, 61, 0
2, 159360, Note_on_c, 0, 52, 0
2, 159360, Note_on_c, 0, 57, 0
2, 159360, Note_on_c, 0, 54, 100
2, 159360, Note_on_c, 0, 57, 95
2, 159360, Note_on_c, 0, 38, 98
2, 159360, Note_on_c, 0, 50, 85
2, 159614, Note_on_c, 0, 54, 0
2, 159620, Note_on_c, 0, 57, 0
2, 159625, Note_on_c, 0, 50, 0
2, 159779, Note_on_c, 0, 38, 0
2, 161760, Note_on_c, 0, 55, 104
2, 161760, Note_on_c, 0, 61, 120
2, 161760, Note_on_c, 0, 65, 117
2, 161760, Note_on_c, 0, 58, 114
2, 161760, Note_on_c, 0, 39, 117
2, 161977, Note_on_c, 0, 65, 0
2, 161997, Note_on_c, 0, 61, 0
2, 162000, Note_on_c, 0, 55, 0
2, 162025, Note_on_c, 0, 58, 0
2, 162080, Note_on_c, 0, 57, 110
2, 162080, Note_on_c, 0, 64, 104
2, 162080, Note_on_c, 0, 60, 111
2, 162080, Note_on_c, 0, 54, 95
2, 162080, Note_on_c, 0, 38, 88
2, 162092, Note_on_c, 0, 39, 0
2, 167030, Note_on_c, 0, 60, 0
2, 167040, Note_on_c, 0, 57, 0
2, 167040, Note_on_c, 0, 64, 0
2, 167040, Note_on_c, 0, 54, 0
2, 167040, Note_on_c, 0, 38, 0
2, 167040, End_track
3, 0, Start_track
3, 0, Text_t, "@LENGL"
3, 0, Text_t, "@TTREAT ME NICE"
3, 10974, Text_t, "/"
3, 13280, Text_t, "When"
3, 13440, Text_t, " I"
3, 13920, Text_t, " walk"
3, 14400, Text_t, " through"
3, 14880, Text_t, " that"
3, 15360, Text_t, " door"
3, 17160, Text_t, "/"
3, 17280, Text_t, "Ba"
3, 17766, Text_t, "by"
3, 18242, Text_t, " be"
3, 18720, Text_t, " po"
3, 19200, Text_t, "lite"
3, 20984, Text_t, "/"
3, 21120, Text_t, "You're"
3, 21440, Text_t, " gon"
3, 21758, Text_t, "na"
3, 22080, Text_t, " make"
3, 22560, Text_t, " me"
3, 23040, Text_t, " sore"
3, 24704, Text_t, "/"
3, 24800, Text_t, "If"
3, 24960, Text_t, " you"
3, 25440, Text_t, " don't"
3, 25920, Text_t, " greet"
3, 26400, Text_t, " me"
3, 26880, Text_t, " right"
3, 28244, Text_t, "/"
3, 28320, Text_t, "Don't"
3, 28640, Text_t, " you"
3, 28800, Text_t, " ev"
3, 29280, Text_t, "er"
3, 29760, Text_t, " kiss"
3, 30296, Text_t, " me"
3, 30720, Text_t, " once,"
3, 31596, Text_t, "/"
3, 31680, Text_t, "kiss"
3, 32160, Text_t, " me"
3, 32640, Text_t, " twice"
3, 35532, Text_t, "/"
3, 35646, Text_t, "Treat"
3, 36126, Text_t, " me"
3, 36416, Text_t, " nice"
3, 39900, Text_t, "/"
3, 39999, Text_t, "I"
3, 40320, Text_t, " know"
3, 40800, Text_t, " that"
3, 41280, Text_t, " you've"
3, 41760, Text_t, " been"
3, 42240, Text_t, " told"
3, 44024, Text_t, "/"
3, 44160, Text_t, "It's"
3, 44646, Text_t, " not"
3, 45122, Text_t, " fair"
3, 45600, Text_t, " to"
3, 46080, Text_t, " tease"
3, 47712, Text_t, "/"
3, 47840, Text_t, "So"
3, 48000, Text_t, " if"
3, 48480, Text_t, " you"
3, 48960, Text_t, " come"
3, 49440, Text_t, " on"
3, 49920, Text_t, " cold"
3, 51584, Text_t, "/"
3, 51680, Text_t, "I'm"
3, 51840, Text_t, " real"
3, 52320, Text_t, "ly"
3, 52800, Text_t, " gon"
3, 53280, Text_t, "na"
3, 53760, Text_t, " freeze"
3, 55112, Text_t, "/"
3, 55200, Text_t, "If"
3, 55520, Text_t, " you"
3, 55680, Text_t, " don't"
3, 56160, Text_t, " want"
3, 56640, Text_t, " me"
3, 57176, Text_t, " to"
3, 57600, Text_t, " be"
3, 58448, Text_t, "/"
3, 58560, Text_t, "cold"
3, 59040, Text_t, " as"
3, 59520, Text_t, " ice...."
3, 62423, Text_t, " Treat"
3, 62847, Text_t, " me"
3, 63296, Text_t, " nice"
3, 67084, Text_t, "/"
3, 67200, Text_t, "Make"
3, 67680, Text_t, " me"
3, 68174, Text_t, " feel"
3, 68659, Text_t, " at"
3, 69120, Text_t, " home"
3, 70952, Text_t, "/"
3, 71040, Text_t, "If"
3, 71520, Text_t, " you"
3, 72024, Text_t, " real"
3, 72484, Text_t, "ly"
3, 72960, Text_t, " care"
3, 74812, Text_t, "/"
3, 74880, Text_t, "Scratch"
3, 75381, Text_t, " my"
3, 75840, Text_t, " back"
3, 76320, Text_t, " and"
3, 76800, Text_t, " run"
3, 77280, Text_t, " your"
3, 77760, Text_t, " pret"
3, 78240, Text_t, "ty"
3, 78701, Text_t, "/"
3, 78720, Text_t, "Fing"
3, 79200, Text_t, "ers"
3, 79701, Text_t, " through"
3, 80162, Text_t, " my"
3, 80640, Text_t, " hair"
3, 82308, Text_t, "/"
3, 82400, Text_t, "You"
3, 82560, Text_t, " know"
3, 83040, Text_t, " I'll"
3, 83520, Text_t, " be"
3, 84000, Text_t, " your"
3, 84480, Text_t, " slave"
3, 86300, Text_t, "/"
3, 86400, Text_t, "If"
3, 86886, Text_t, " you"
3, 87362, Text_t, " ask"
3, 87840, Text_t, " me"
3, 88320, Text_t, " to"
3, 89984, Text_t, "/"
3, 90080, Text_t, "But"
3, 90240, Text_t, " if"
3, 90720, Text_t, " you"
3, 91200, Text_t, " don't"
3, 91680, Text_t, " be"
3, 92160, Text_t, "have"
3, 93856, Text_t, "/"
3, 93920, Text_t, "I'll"
3, 94080, Text_t, " walk"
3, 94560, Text_t, " right"
3, 95040, Text_t, " out"
3, 95520, Text_t, " on"
3, 96000, Text_t, " you"
3, 97336, Text_t, "/"
3, 97440, Text_t, "If"
3, 97761, Text_t, " you"
3, 97920, Text_t, " want"
3, 98400, Text_t, " my"
3, 98880, Text_t, " love"
3, 99416, Text_t, " then"
3, 99840, Text_t, " take"
3, 100712, Text_t, "/"
3, 100800, Text_t, "my"
3, 101280, Text_t, " a"
3, 101760, Text_t, "dvice...."
3, 104780, Text_t, " Treat"
3, 105212, Text_t, " me"
3, 105548, Text_t, " nice"
3, 109384, Text_t, "/"
3, 109440, Text_t, "Make"
3, 109920, Text_t, " me"
3, 110400, Text_t, " feel"
3, 110885, Text_t, " at"
3, 111360, Text_t, " home"
3, 113212, Text_t, "/"
3, 113280, Text_t, "If"
3, 113760, Text_t, " you"
3, 114240, Text_t, " real"
3, 114720, Text_t, "ly"
3, 115200, Text_t, " care"
3, 117032, Text_t, "/"
3, 117120, Text_t, "Scratch"
3, 117621, Text_t, " my"
3, 118080, Text_t, " back"
3, 118560, Text_t, " and"
3, 119040, Text_t, " run"
3, 119520, Text_t, " your"
3, 120000, Text_t, " pret"
3, 120506, Text_t, "ty"
3, 120954, Text_t, "/"
3, 120960, Text_t, "Fing"
3, 121440, Text_t, "ers"
3, 121941, Text_t, " through"
3, 122402, Text_t, " my"
3, 122880, Text_t, " hair"
3, 124528, Text_t, "/"
3, 124640, Text_t, "You"
3, 124800, Text_t, " know"
3, 125280, Text_t, " I'll"
3, 125760, Text_t, " be"
3, 126240, Text_t, " your"
3, 126720, Text_t, " slave"
3, 128536, Text_t, "/"
3, 128640, Text_t, "If"
3, 129126, Text_t, " you"
3, 129602, Text_t, " ask"
3, 130080, Text_t, " me"
3, 130560, Text_t, " to"
3, 132268, Text_t, "/"
3, 132320, Text_t, "But"
3, 132480, Text_t, " if"
3, 132960, Text_t, " you"
3, 133440, Text_t, " don't"
3, 133920, Text_t, " be"
3, 134400, Text_t, "have"
3, 136112, Text_t, "/"
3, 136160, Text_t, "I'll"
3, 136320, Text_t, " walk"
3, 136800, Text_t, " right"
3, 137280, Text_t, " out"
3, 137760, Text_t, " on"
3, 138240, Text_t, " you"
3, 139616, Text_t, "/"
3, 139680, Text_t, "If"
3, 140000, Text_t, " you"
3, 140168, Text_t, " want"
3, 140640, Text_t, " my"
3, 141120, Text_t, " love"
3, 141656, Text_t, " then"
3, 142080, Text_t, " take"
3, 142956, Text_t, "/"
3, 143040, Text_t, "my"
3, 143520, Text_t, " a"
3, 144000, Text_t, "dvice...."
3, 146946, Text_t, " Treat"
3, 147410, Text_t, " me"
3, 147802, Text_t, " nice"
3, 154300, Text_t, "/"
3, 154400, Text_t, "If"
3, 155040, Text_t, " you"
3, 155520, Text_t, " real"
3, 155984, Text_t, "ly"
3, 156480, Text_t, " want"
3, 156960, Text_t, " my"
3, 157440, Text_t, " love"
3, 157864, Text_t, "/"
3, 157920, Text_t, "then"
3, 158400, Text_t, " treat"
3, 158880, Text_t, " me"
3, 159360, Text_t, " nice"
3, 159360, End_track
4, 0, Start_track
4, 0, MIDI_port, 0
4, 508, Program_c, 1, 32
4, 512, Control_c, 1, 10, 64
4, 512, Control_c, 1, 11, 127
4, 512, Control_c, 1, 7, 110
4, 516, Control_c, 1, 93, 36
4, 516, Control_c, 1, 91, 30
4, 5760, Note_on_c, 1, 38, 127
4, 6175, Note_on_c, 1, 38, 0
4, 6240, Note_on_c, 1, 42, 122
4, 6665, Note_on_c, 1, 42, 0
4, 6720, Note_on_c, 1, 45, 88
4, 7136, Note_on_c, 1, 45, 0
4, 7200, Note_on_c, 1, 42, 108
4, 7625, Note_on_c, 1, 42, 0
4, 7680, Note_on_c, 1, 38, 98
4, 8160, Note_on_c, 1, 42, 92
4, 8216, Note_on_c, 1, 38, 0
4, 8610, Note_on_c, 1, 42, 0
4, 8640, Note_on_c, 1, 45, 91
4, 9080, Note_on_c, 1, 45, 0
4, 9120, Note_on_c, 1, 42, 95
4, 9530, Note_on_c, 1, 42, 0
4, 9600, Note_on_c, 1, 38, 127
4, 10015, Note_on_c, 1, 38, 0
4, 10080, Note_on_c, 1, 42, 122
4, 10505, Note_on_c, 1, 42, 0
4, 10560, Note_on_c, 1, 45, 88
4, 10976, Note_on_c, 1, 45, 0
4, 11040, Note_on_c, 1, 42, 108
4, 11465, Note_on_c, 1, 42, 0
4, 11520, Note_on_c, 1, 38, 98
4, 12000, Note_on_c, 1, 42, 92
4, 12056, Note_on_c, 1, 38, 0
4, 12450, Note_on_c, 1, 42, 0
4, 12480, Note_on_c, 1, 45, 91
4, 12920, Note_on_c, 1, 45, 0
4, 12960, Note_on_c, 1, 42, 95
4, 13370, Note_on_c, 1, 42, 0
4, 13440, Note_on_c, 1, 38, 114
4, 13912, Note_on_c, 1, 38, 0
4, 13920, Note_on_c, 1, 42, 104
4, 14341, Note_on_c, 1, 42, 0
4, 14400, Note_on_c, 1, 45, 97
4, 14867, Note_on_c, 1, 45, 0
4, 14880, Note_on_c, 1, 42, 102
4, 15286, Note_on_c, 1, 42, 0
4, 15360, Note_on_c, 1, 38, 100
4, 15760, Note_on_c, 1, 38, 0
4, 15840, Note_on_c, 1, 42, 108
4, 16279, Note_on_c, 1, 42, 0
4, 16320, Note_on_c, 1, 45, 100
4, 16739, Note_on_c, 1, 45, 0
4, 16800, Note_on_c, 1, 42, 122
4, 17203, Note_on_c, 1, 42, 0
4, 17280, Note_on_c, 1, 38, 120
4, 17721, Note_on_c, 1, 38, 0
4, 17760, Note_on_c, 1, 42, 127
4, 18154, Note_on_c, 1, 42, 0
4, 18240, Note_on_c, 1, 45, 106
4, 18661, Note_on_c, 1, 45, 0
4, 18720, Note_on_c, 1, 42, 125
4, 19180, Note_on_c, 1, 42, 0
4, 19200, Note_on_c, 1, 38, 112
4, 19605, Note_on_c, 1, 38, 0
4, 19680, Note_on_c, 1, 40, 125
4, 20111, Note_on_c, 1, 40, 0
4, 20160, Note_on_c, 1, 41, 127
4, 20619, Note_on_c, 1, 41, 0
4, 20640, Note_on_c, 1, 42, 117
4, 20640, Note_on_c, 1, 40, 78
4, 20759, Note_on_c, 1, 40, 0
4, 21048, Note_on_c, 1, 42, 0
4, 21120, Note_on_c, 1, 43, 120
4, 21518, Note_on_c, 1, 43, 0
4, 21600, Note_on_c, 1, 47, 127
4, 22020, Note_on_c, 1, 47, 0
4, 22080, Note_on_c, 1, 50, 83
4, 22502, Note_on_c, 1, 50, 0
4, 22560, Note_on_c, 1, 47, 97
4, 23011, Note_on_c, 1, 47, 0
4, 23040, Note_on_c, 1, 43, 122
4, 23470, Note_on_c, 1, 43, 0
4, 23520, Note_on_c, 1, 47, 127
4, 23975, Note_on_c, 1, 47, 0
4, 24000, Note_on_c, 1, 50, 92
4, 24480, Note_on_c, 1, 47, 117
4, 24485, Note_on_c, 1, 50, 0
4, 24904, Note_on_c, 1, 47, 0
4, 24960, Note_on_c, 1, 43, 127
4, 25374, Note_on_c, 1, 43, 0
4, 25440, Note_on_c, 1, 47, 122
4, 25838, Note_on_c, 1, 47, 0
4, 25920, Note_on_c, 1, 50, 120
4, 26380, Note_on_c, 1, 50, 0
4, 26400, Note_on_c, 1, 47, 122
4, 26825, Note_on_c, 1, 47, 0
4, 26880, Note_on_c, 1, 44, 116
4, 27352, Note_on_c, 1, 44, 0
4, 27360, Note_on_c, 1, 47, 88
4, 27822, Note_on_c, 1, 47, 0
4, 27840, Note_on_c, 1, 50, 90
4, 28285, Note_on_c, 1, 50, 0
4, 28320, Note_on_c, 1, 47, 87
4, 28738, Note_on_c, 1, 47, 0
4, 28800, Note_on_c, 1, 45, 108
4, 29236, Note_on_c, 1, 45, 0
4, 29280, Note_on_c, 1, 49, 122
4, 29750, Note_on_c, 1, 49, 0
4, 29760, Note_on_c, 1, 52, 97
4, 30240, Note_on_c, 1, 49, 97
4, 30340, Note_on_c, 1, 52, 0
4, 30626, Note_on_c, 1, 49, 0
4, 30720, Note_on_c, 1, 38, 110
4, 31190, Note_on_c, 1, 38, 0
4, 31200, Note_on_c, 1, 42, 120
4, 31630, Note_on_c, 1, 42, 0
4, 31680, Note_on_c, 1, 45, 110
4, 32160, Note_on_c, 1, 42, 106
4, 32165, Note_on_c, 1, 45, 0
4, 32635, Note_on_c, 1, 42, 0
4, 32640, Note_on_c, 1, 40, 127
4, 33087, Note_on_c, 1, 40, 0
4, 33120, Note_on_c, 1, 44, 99
4, 33544, Note_on_c, 1, 44, 0
4, 33600, Note_on_c, 1, 47, 112
4, 34075, Note_on_c, 1, 47, 0
4, 34080, Note_on_c, 1, 40, 104
4, 34320, Note_on_c, 1, 44, 74
4, 34414, Note_on_c, 1, 40, 0
4, 34502, Note_on_c, 1, 44, 0
4, 34560, Note_on_c, 1, 45, 127
4, 34935, Note_on_c, 1, 45, 0
4, 36480, Note_on_c, 1, 38, 127
4, 37110, Note_on_c, 1, 38, 0
4, 37215, Note_on_c, 1, 42, 125
4, 37891, Note_on_c, 1, 42, 0
4, 37933, Note_on_c, 1, 45, 120
4, 38364, Note_on_c, 1, 45, 0
4, 38436, Note_on_c, 1, 38, 110
4, 39028, Note_on_c, 1, 38, 0
4, 39140, Note_on_c, 1, 42, 122
4, 39807, Note_on_c, 1, 42, 0
4, 39850, Note_on_c, 1, 45, 122
4, 40160, Note_on_c, 1, 45, 0
4, 40320, Note_on_c, 1, 38, 114
4, 40792, Note_on_c, 1, 38, 0
4, 40800, Note_on_c, 1, 42, 104
4, 41221, Note_on_c, 1, 42, 0
4, 41280, Note_on_c, 1, 45, 97
4, 41747, Note_on_c, 1, 45, 0
4, 41760, Note_on_c, 1, 42, 102
4, 42166, Note_on_c, 1, 42, 0
4, 42240, Note_on_c, 1, 38, 100
4, 42640, Note_on_c, 1, 38, 0
4, 42720, Note_on_c, 1, 42, 108
4, 43159, Note_on_c, 1, 42, 0
4, 43200, Note_on_c, 1, 45, 100
4, 43619, Note_on_c, 1, 45, 0
4, 43680, Note_on_c, 1, 42, 122
4, 44083, Note_on_c, 1, 42, 0
4, 44160, Note_on_c, 1, 38, 120
4, 44601, Note_on_c, 1, 38, 0
4, 44640, Note_on_c, 1, 42, 127
4, 45034, Note_on_c, 1, 42, 0
4, 45120, Note_on_c, 1, 45, 106
4, 45541, Note_on_c, 1, 45, 0
4, 45600, Note_on_c, 1, 42, 125
4, 46060, Note_on_c, 1, 42, 0
4, 46080, Note_on_c, 1, 38, 112
4, 46485, Note_on_c, 1, 38, 0
4, 46560, Note_on_c, 1, 40, 125
4, 46991, Note_on_c, 1, 40, 0
4, 47040, Note_on_c, 1, 41, 127
4, 47499, Note_on_c, 1, 41, 0
4, 47520, Note_on_c, 1, 40, 78
4, 47520, Note_on_c, 1, 42, 117
4, 47639, Note_on_c, 1, 40, 0
4, 47928, Note_on_c, 1, 42, 0
4, 48000, Note_on_c, 1, 43, 120
4, 48398, Note_on_c, 1, 43, 0
4, 48480, Note_on_c, 1, 47, 127
4, 48900, Note_on_c, 1, 47, 0
4, 48960, Note_on_c, 1, 50, 83
4, 49382, Note_on_c, 1, 50, 0
4, 49440, Note_on_c, 1, 47, 97
4, 49891, Note_on_c, 1, 47, 0
4, 49920, Note_on_c, 1, 43, 122
4, 50350, Note_on_c, 1, 43, 0
4, 50400, Note_on_c, 1, 47, 127
4, 50855, Note_on_c, 1, 47, 0
4, 50880, Note_on_c, 1, 50, 92
4, 51360, Note_on_c, 1, 47, 117
4, 51365, Note_on_c, 1, 50, 0
4, 51784, Note_on_c, 1, 47, 0
4, 51840, Note_on_c, 1, 43, 127
4, 52254, Note_on_c, 1, 43, 0
4, 52320, Note_on_c, 1, 47, 122
4, 52718, Note_on_c, 1, 47, 0
4, 52800, Note_on_c, 1, 50, 120
4, 53260, Note_on_c, 1, 50, 0
4, 53280, Note_on_c, 1, 47, 122
4, 53705, Note_on_c, 1, 47, 0
4, 53760, Note_on_c, 1, 44, 116
4, 54232, Note_on_c, 1, 44, 0
4, 54240, Note_on_c, 1, 47, 88
4, 54702, Note_on_c, 1, 47, 0
4, 54720, Note_on_c, 1, 50, 90
4, 55165, Note_on_c, 1, 50, 0
4, 55200, Note_on_c, 1, 47, 87
4, 55618, Note_on_c, 1, 47, 0
4, 55680, Note_on_c, 1, 45, 108
4, 56116, Note_on_c, 1, 45, 0
4, 56160, Note_on_c, 1, 49, 122
4, 56630, Note_on_c, 1, 49, 0
4, 56640, Note_on_c, 1, 52, 97
4, 57120, Note_on_c, 1, 49, 97
4, 57220, Note_on_c, 1, 52, 0
4, 57506, Note_on_c, 1, 49, 0
4, 57600, Note_on_c, 1, 38, 110
4, 58070, Note_on_c, 1, 38, 0
4, 58080, Note_on_c, 1, 42, 120
4, 58510, Note_on_c, 1, 42, 0
4, 58560, Note_on_c, 1, 45, 110
4, 59040, Note_on_c, 1, 42, 106
4, 59045, Note_on_c, 1, 45, 0
4, 59515, Note_on_c, 1, 42, 0
4, 59520, Note_on_c, 1, 40, 127
4, 59967, Note_on_c, 1, 40, 0
4, 60000, Note_on_c, 1, 44, 99
4, 60424, Note_on_c, 1, 44, 0
4, 60480, Note_on_c, 1, 47, 112
4, 60955, Note_on_c, 1, 47, 0
4, 60960, Note_on_c, 1, 40, 104
4, 61200, Note_on_c, 1, 44, 74
4, 61294, Note_on_c, 1, 40, 0
4, 61382, Note_on_c, 1, 44, 0
4, 61440, Note_on_c, 1, 45, 127
4, 61815, Note_on_c, 1, 45, 0
4, 63360, Note_on_c, 1, 38, 127
4, 63990, Note_on_c, 1, 38, 0
4, 64095, Note_on_c, 1, 42, 125
4, 64771, Note_on_c, 1, 42, 0
4, 64813, Note_on_c, 1, 45, 120
4, 65244, Note_on_c, 1, 45, 0
4, 65316, Note_on_c, 1, 38, 110
4, 65908, Note_on_c, 1, 38, 0
4, 66020, Note_on_c, 1, 42, 122
4, 66687, Note_on_c, 1, 42, 0
4, 66730, Note_on_c, 1, 45, 122
4, 67040, Note_on_c, 1, 45, 0
4, 67200, Note_on_c, 1, 43, 97
4, 67680, Note_on_c, 1, 47, 104
4, 67685, Note_on_c, 1, 43, 0
4, 68156, Note_on_c, 1, 47, 0
4, 68160, Note_on_c, 1, 50, 85
4, 68640, Note_on_c, 1, 47, 92
4, 68691, Note_on_c, 1, 50, 0
4, 69020, Note_on_c, 1, 47, 0
4, 69120, Note_on_c, 1, 38, 75
4, 69600, Note_on_c, 1, 42, 102
4, 69655, Note_on_c, 1, 38, 0
4, 70016, Note_on_c, 1, 42, 0
4, 70080, Note_on_c, 1, 45, 98
4, 70560, Note_on_c, 1, 42, 97
4, 70585, Note_on_c, 1, 45, 0
4, 70984, Note_on_c, 1, 42, 0
4, 71040, Note_on_c, 1, 45, 94
4, 71511, Note_on_c, 1, 45, 0
4, 71520, Note_on_c, 1, 43, 110
4, 72000, Note_on_c, 1, 42, 120
4, 72014, Note_on_c, 1, 43, 0
4, 72470, Note_on_c, 1, 42, 0
4, 72480, Note_on_c, 1, 43, 92
4, 72920, Note_on_c, 1, 43, 0
4, 72960, Note_on_c, 1, 38, 104
4, 73440, Note_on_c, 1, 40, 114
4, 73511, Note_on_c, 1, 38, 0
4, 73910, Note_on_c, 1, 40, 0
4, 73920, Note_on_c, 1, 42, 120
4, 74377, Note_on_c, 1, 42, 0
4, 74400, Note_on_c, 1, 38, 98
4, 74818, Note_on_c, 1, 38, 0
4, 74880, Note_on_c, 1, 43, 122
4, 75329, Note_on_c, 1, 43, 0
4, 75360, Note_on_c, 1, 47, 127
4, 75780, Note_on_c, 1, 47, 0
4, 75840, Note_on_c, 1, 50, 80
4, 76320, Note_on_c, 1, 47, 95
4, 76371, Note_on_c, 1, 50, 0
4, 76777, Note_on_c, 1, 47, 0
4, 76800, Note_on_c, 1, 38, 95
4, 77265, Note_on_c, 1, 38, 0
4, 77280, Note_on_c, 1, 42, 120
4, 77756, Note_on_c, 1, 42, 0
4, 77760, Note_on_c, 1, 45, 100
4, 78240, Note_on_c, 1, 42, 127
4, 78250, Note_on_c, 1, 45, 0
4, 78686, Note_on_c, 1, 42, 0
4, 78720, Note_on_c, 1, 40, 117
4, 79200, Note_on_c, 1, 42, 127
4, 79236, Note_on_c, 1, 40, 0
4, 79680, Note_on_c, 1, 44, 119
4, 79683, Note_on_c, 1, 42, 0
4, 80139, Note_on_c, 1, 44, 0
4, 80160, Note_on_c, 1, 47, 98
4, 80640, Note_on_c, 1, 47, 0
4, 80640, Note_on_c, 1, 45, 125
4, 81120, Note_on_c, 1, 43, 127
4, 81150, Note_on_c, 1, 45, 0
4, 81600, Note_on_c, 1, 42, 127
4, 81700, Note_on_c, 1, 43, 0
4, 82051, Note_on_c, 1, 42, 0
4, 82080, Note_on_c, 1, 40, 120
4, 82426, Note_on_c, 1, 40, 0
4, 82560, Note_on_c, 1, 38, 114
4, 83032, Note_on_c, 1, 38, 0
4, 83040, Note_on_c, 1, 42, 104
4, 83461, Note_on_c, 1, 42, 0
4, 83520, Note_on_c, 1, 45, 97
4, 83987, Note_on_c, 1, 45, 0
4, 84000, Note_on_c, 1, 42, 102
4, 84406, Note_on_c, 1, 42, 0
4, 84480, Note_on_c, 1, 38, 100
4, 84880, Note_on_c, 1, 38, 0
4, 84960, Note_on_c, 1, 42, 108
4, 85399, Note_on_c, 1, 42, 0
4, 85440, Note_on_c, 1, 45, 100
4, 85859, Note_on_c, 1, 45, 0
4, 85920, Note_on_c, 1, 42, 122
4, 86323, Note_on_c, 1, 42, 0
4, 86400, Note_on_c, 1, 38, 120
4, 86841, Note_on_c, 1, 38, 0
4, 86880, Note_on_c, 1, 42, 127
4, 87274, Note_on_c, 1, 42, 0
4, 87360, Note_on_c, 1, 45, 106
4, 87781, Note_on_c, 1, 45, 0
4, 87840, Note_on_c, 1, 42, 125
4, 88300, Note_on_c, 1, 42, 0
4, 88320, Note_on_c, 1, 38, 112
4, 88725, Note_on_c, 1, 38, 0
4, 88800, Note_on_c, 1, 40, 125
4, 89231, Note_on_c, 1, 40, 0
4, 89280, Note_on_c, 1, 41, 127
4, 89739, Note_on_c, 1, 41, 0
4, 89760, Note_on_c, 1, 42, 117
4, 89760, Note_on_c, 1, 40, 78
4, 89879, Note_on_c, 1, 40, 0
4, 90168, Note_on_c, 1, 42, 0
4, 90240, Note_on_c, 1, 43, 120
4, 90638, Note_on_c, 1, 43, 0
4, 90720, Note_on_c, 1, 47, 127
4, 91140, Note_on_c, 1, 47, 0
4, 91200, Note_on_c, 1, 50, 83
4, 91622, Note_on_c, 1, 50, 0
4, 91680, Note_on_c, 1, 47, 97
4, 92131, Note_on_c, 1, 47, 0
4, 92160, Note_on_c, 1, 43, 122
4, 92590, Note_on_c, 1, 43, 0
4, 92640, Note_on_c, 1, 47, 127
4, 93095, Note_on_c, 1, 47, 0
4, 93120, Note_on_c, 1, 50, 92
4, 93600, Note_on_c, 1, 47, 117
4, 93605, Note_on_c, 1, 50, 0
4, 94024, Note_on_c, 1, 47, 0
4, 94080, Note_on_c, 1, 43, 127
4, 94494, Note_on_c, 1, 43, 0
4, 94560, Note_on_c, 1, 47, 122
4, 94958, Note_on_c, 1, 47, 0
4, 95040, Note_on_c, 1, 50, 120
4, 95500, Note_on_c, 1, 50, 0
4, 95520, Note_on_c, 1, 47, 122
4, 95945, Note_on_c, 1, 47, 0
4, 96000, Note_on_c, 1, 44, 116
4, 96472, Note_on_c, 1, 44, 0
4, 96480, Note_on_c, 1, 47, 88
4, 96942, Note_on_c, 1, 47, 0
4, 96960, Note_on_c, 1, 50, 90
4, 97405, Note_on_c, 1, 50, 0
4, 97440, Note_on_c, 1, 47, 87
4, 97858, Note_on_c, 1, 47, 0
4, 97920, Note_on_c, 1, 45, 108
4, 98356, Note_on_c, 1, 45, 0
4, 98400, Note_on_c, 1, 49, 122
4, 98870, Note_on_c, 1, 49, 0
4, 98880, Note_on_c, 1, 52, 97
4, 99360, Note_on_c, 1, 49, 97
4, 99460, Note_on_c, 1, 52, 0
4, 99746, Note_on_c, 1, 49, 0
4, 99840, Note_on_c, 1, 38, 110
4, 100310, Note_on_c, 1, 38, 0
4, 100320, Note_on_c, 1, 42, 120
4, 100750, Note_on_c, 1, 42, 0
4, 100800, Note_on_c, 1, 45, 110
4, 101280, Note_on_c, 1, 42, 106
4, 101285, Note_on_c, 1, 45, 0
4, 101755, Note_on_c, 1, 42, 0
4, 101760, Note_on_c, 1, 40, 127
4, 102207, Note_on_c, 1, 40, 0
4, 102240, Note_on_c, 1, 44, 99
4, 102664, Note_on_c, 1, 44, 0
4, 102720, Note_on_c, 1, 47, 112
4, 103195, Note_on_c, 1, 47, 0
4, 103200, Note_on_c, 1, 40, 104
4, 103440, Note_on_c, 1, 44, 74
4, 103534, Note_on_c, 1, 40, 0
4, 103622, Note_on_c, 1, 44, 0
4, 103680, Note_on_c, 1, 45, 127
4, 104055, Note_on_c, 1, 45, 0
4, 105600, Note_on_c, 1, 38, 127
4, 106230, Note_on_c, 1, 38, 0
4, 106335, Note_on_c, 1, 42, 125
4, 107011, Note_on_c, 1, 42, 0
4, 107053, Note_on_c, 1, 45, 120
4, 107484, Note_on_c, 1, 45, 0
4, 107556, Note_on_c, 1, 38, 110
4, 108148, Note_on_c, 1, 38, 0
4, 108260, Note_on_c, 1, 42, 122
4, 108927, Note_on_c, 1, 42, 0
4, 108970, Note_on_c, 1, 45, 122
4, 109280, Note_on_c, 1, 45, 0
4, 109440, Note_on_c, 1, 43, 97
4, 109920, Note_on_c, 1, 47, 104
4, 109925, Note_on_c, 1, 43, 0
4, 110396, Note_on_c, 1, 47, 0
4, 110400, Note_on_c, 1, 50, 85
4, 110880, Note_on_c, 1, 47, 92
4, 110931, Note_on_c, 1, 50, 0
4, 111260, Note_on_c, 1, 47, 0
4, 111360, Note_on_c, 1, 38, 75
4, 111840, Note_on_c, 1, 42, 102
4, 111895, Note_on_c, 1, 38, 0
4, 112256, Note_on_c, 1, 42, 0
4, 112320, Note_on_c, 1, 45, 98
4, 112800, Note_on_c, 1, 42, 97
4, 112825, Note_on_c, 1, 45, 0
4, 113224, Note_on_c, 1, 42, 0
4, 113280, Note_on_c, 1, 45, 94
4, 113751, Note_on_c, 1, 45, 0
4, 113760, Note_on_c, 1, 43, 110
4, 114240, Note_on_c, 1, 42, 120
4, 114254, Note_on_c, 1, 43, 0
4, 114710, Note_on_c, 1, 42, 0
4, 114720, Note_on_c, 1, 43, 92
4, 115160, Note_on_c, 1, 43, 0
4, 115200, Note_on_c, 1, 38, 104
4, 115680, Note_on_c, 1, 40, 114
4, 115751, Note_on_c, 1, 38, 0
4, 116150, Note_on_c, 1, 40, 0
4, 116160, Note_on_c, 1, 42, 120
4, 116617, Note_on_c, 1, 42, 0
4, 116640, Note_on_c, 1, 38, 98
4, 117058, Note_on_c, 1, 38, 0
4, 117120, Note_on_c, 1, 43, 122
4, 117569, Note_on_c, 1, 43, 0
4, 117600, Note_on_c, 1, 47, 127
4, 118020, Note_on_c, 1, 47, 0
4, 118080, Note_on_c, 1, 50, 80
4, 118560, Note_on_c, 1, 47, 95
4, 118611, Note_on_c, 1, 50, 0
4, 119017, Note_on_c, 1, 47, 0
4, 119040, Note_on_c, 1, 38, 95
4, 119505, Note_on_c, 1, 38, 0
4, 119520, Note_on_c, 1, 42, 120
4, 119996, Note_on_c, 1, 42, 0
4, 120000, Note_on_c, 1, 45, 100
4, 120480, Note_on_c, 1, 42, 127
4, 120490, Note_on_c, 1, 45, 0
4, 120926, Note_on_c, 1, 42, 0
4, 120960, Note_on_c, 1, 40, 117
4, 121440, Note_on_c, 1, 42, 127
4, 121476, Note_on_c, 1, 40, 0
4, 121920, Note_on_c, 1, 44, 119
4, 121923, Note_on_c, 1, 42, 0
4, 122379, Note_on_c, 1, 44, 0
4, 122400, Note_on_c, 1, 47, 98
4, 122880, Note_on_c, 1, 47, 0
4, 122880, Note_on_c, 1, 45, 125
4, 123360, Note_on_c, 1, 43, 127
4, 123390, Note_on_c, 1, 45, 0
4, 123840, Note_on_c, 1, 42, 127
4, 123940, Note_on_c, 1, 43, 0
4, 124291, Note_on_c, 1, 42, 0
4, 124320, Note_on_c, 1, 40, 120
4, 124666, Note_on_c, 1, 40, 0
4, 124800, Note_on_c, 1, 38, 114
4, 125272, Note_on_c, 1, 38, 0
4, 125280, Note_on_c, 1, 42, 104
4, 125701, Note_on_c, 1, 42, 0
4, 125760, Note_on_c, 1, 45, 97
4, 126227, Note_on_c, 1, 45, 0
4, 126240, Note_on_c, 1, 42, 102
4, 126646, Note_on_c, 1, 42, 0
4, 126720, Note_on_c, 1, 38, 100
4, 127120, Note_on_c, 1, 38, 0
4, 127200, Note_on_c, 1, 42, 108
4, 127639, Note_on_c, 1, 42, 0
4, 127680, Note_on_c, 1, 45, 100
4, 128099, Note_on_c, 1, 45, 0
4, 128160, Note_on_c, 1, 42, 122
4, 128563, Note_on_c, 1, 42, 0
4, 128640, Note_on_c, 1, 38, 120
4, 129081, Note_on_c, 1, 38, 0
4, 129120, Note_on_c, 1, 42, 127
4, 129514, Note_on_c, 1, 42, 0
4, 129600, Note_on_c, 1, 45, 106
4, 130021, Note_on_c, 1, 45, 0
4, 130080, Note_on_c, 1, 42, 125
4, 130540, Note_on_c, 1, 42, 0
4, 130560, Note_on_c, 1, 38, 112
4, 130965, Note_on_c, 1, 38, 0
4, 131040, Note_on_c, 1, 40, 125
4, 131471, Note_on_c, 1, 40, 0
4, 131520, Note_on_c, 1, 41, 127
4, 131979, Note_on_c, 1, 41, 0
4, 132000, Note_on_c, 1, 42, 117
4, 132000, Note_on_c, 1, 40, 78
4, 132119, Note_on_c, 1, 40, 0
4, 132408, Note_on_c, 1, 42, 0
4, 132480, Note_on_c, 1, 43, 120
4, 132878, Note_on_c, 1, 43, 0
4, 132960, Note_on_c, 1, 47, 127
4, 133380, Note_on_c, 1, 47, 0
4, 133440, Note_on_c, 1, 50, 83
4, 133862, Note_on_c, 1, 50, 0
4, 133920, Note_on_c, 1, 47, 97
4, 134371, Note_on_c, 1, 47, 0
4, 134400, Note_on_c, 1, 43, 122
4, 134830, Note_on_c, 1, 43, 0
4, 134880, Note_on_c, 1, 47, 127
4, 135335, Note_on_c, 1, 47, 0
4, 135360, Note_on_c, 1, 50, 92
4, 135840, Note_on_c, 1, 47, 117
4, 135845, Note_on_c, 1, 50, 0
4, 136264, Note_on_c, 1, 47, 0
4, 136320, Note_on_c, 1, 43, 127
4, 136734, Note_on_c, 1, 43, 0
4, 136800, Note_on_c, 1, 47, 122
4, 137198, Note_on_c, 1, 47, 0
4, 137280, Note_on_c, 1, 50, 120
4, 137740, Note_on_c, 1, 50, 0
4, 137760, Note_on_c, 1, 47, 122
4, 138185, Note_on_c, 1, 47, 0
4, 138240, Note_on_c, 1, 44, 116
4, 138712, Note_on_c, 1, 44, 0
4, 138720, Note_on_c, 1, 47, 88
4, 139182, Note_on_c, 1, 47, 0
4, 139200, Note_on_c, 1, 50, 90
4, 139645, Note_on_c, 1, 50, 0
4, 139680, Note_on_c, 1, 47, 87
4, 140098, Note_on_c, 1, 47, 0
4, 140160, Note_on_c, 1, 45, 108
4, 140596, Note_on_c, 1, 45, 0
4, 140640, Note_on_c, 1, 49, 122
4, 141110, Note_on_c, 1, 49, 0
4, 141120, Note_on_c, 1, 52, 97
4, 141600, Note_on_c, 1, 49, 97
4, 141700, Note_on_c, 1, 52, 0
4, 141986, Note_on_c, 1, 49, 0
4, 142080, Note_on_c, 1, 38, 110
4, 142550, Note_on_c, 1, 38, 0
4, 142560, Note_on_c, 1, 42, 120
4, 142990, Note_on_c, 1, 42, 0
4, 143040, Note_on_c, 1, 45, 110
4, 143520, Note_on_c, 1, 42, 106
4, 143525, Note_on_c, 1, 45, 0
4, 143995, Note_on_c, 1, 42, 0
4, 144000, Note_on_c, 1, 40, 127
4, 144447, Note_on_c, 1, 40, 0
4, 144480, Note_on_c, 1, 44, 99
4, 144904, Note_on_c, 1, 44, 0
4, 144960, Note_on_c, 1, 47, 112
4, 145435, Note_on_c, 1, 47, 0
4, 145440, Note_on_c, 1, 40, 104
4, 145680, Note_on_c, 1, 44, 74
4, 145774, Note_on_c, 1, 40, 0
4, 145862, Note_on_c, 1, 44, 0
4, 145920, Note_on_c, 1, 45, 127
4, 146295, Note_on_c, 1, 45, 0
4, 147840, Note_on_c, 1, 38, 127
4, 148470, Note_on_c, 1, 38, 0
4, 148575, Note_on_c, 1, 42, 125
4, 149251, Note_on_c, 1, 42, 0
4, 149293, Note_on_c, 1, 45, 120
4, 149724, Note_on_c, 1, 45, 0
4, 149796, Note_on_c, 1, 38, 110
4, 150388, Note_on_c, 1, 38, 0
4, 150500, Note_on_c, 1, 42, 122
4, 151167, Note_on_c, 1, 42, 0
4, 151210, Note_on_c, 1, 45, 122
4, 151520, Note_on_c, 1, 45, 0
4, 151680, Note_on_c, 1, 38, 127
4, 152310, Note_on_c, 1, 38, 0
4, 152415, Note_on_c, 1, 42, 125
4, 153091, Note_on_c, 1, 42, 0
4, 153133, Note_on_c, 1, 45, 120
4, 153564, Note_on_c, 1, 45, 0
4, 153636, Note_on_c, 1, 38, 110
4, 154228, Note_on_c, 1, 38, 0
4, 154340, Note_on_c, 1, 42, 122
4, 155007, Note_on_c, 1, 42, 0
4, 155050, Note_on_c, 1, 45, 122
4, 155360, Note_on_c, 1, 45, 0
4, 155520, Note_on_c, 1, 40, 127
4, 155967, Note_on_c, 1, 40, 0
4, 156000, Note_on_c, 1, 44, 99
4, 156424, Note_on_c, 1, 44, 0
4, 156480, Note_on_c, 1, 47, 112
4, 156955, Note_on_c, 1, 47, 0
4, 156960, Note_on_c, 1, 40, 104
4, 157200, Note_on_c, 1, 44, 74
4, 157294, Note_on_c, 1, 40, 0
4, 157382, Note_on_c, 1, 44, 0
4, 157440, Note_on_c, 1, 45, 94
4, 157911, Note_on_c, 1, 45, 0
4, 157920, Note_on_c, 1, 43, 110
4, 158400, Note_on_c, 1, 42, 120
4, 158414, Note_on_c, 1, 43, 0
4, 158870, Note_on_c, 1, 42, 0
4, 158880, Note_on_c, 1, 43, 92
4, 159320, Note_on_c, 1, 43, 0
4, 159360, Note_on_c, 1, 38, 104
4, 159911, Note_on_c, 1, 38, 0
4, 161755, Note_on_c, 1, 39, 127
4, 162067, Note_on_c, 1, 39, 0
4, 162084, Note_on_c, 1, 38, 95
4, 167040, Note_on_c, 1, 38, 0
4, 167040, End_track
5, 0, Start_track
5, 0, MIDI_port, 0
5, 528, Program_c, 2, 26
5, 532, Control_c, 2, 10, 73
5, 532, Control_c, 2, 11, 127
5, 532, Control_c, 2, 7, 105
5, 536, Control_c, 2, 93, 17
5, 536, Control_c, 2, 91, 50
5, 15640, Note_on_c, 2, 68, 113
5, 15670, Note_on_c, 2, 77, 92
5, 15670, Pitch_bend_c, 2, 8192
5, 15674, Note_on_c, 2, 73, 43
5, 15706, Note_on_c, 2, 73, 0
5, 15707, Note_on_c, 2, 74, 31
5, 15714, Note_on_c, 2, 68, 0
5, 15715, Note_on_c, 2, 69, 78
5, 15719, Note_on_c, 2, 77, 0
5, 15720, Note_on_c, 2, 78, 68
5, 15912, Note_on_c, 2, 78, 0
5, 15914, Note_on_c, 2, 69, 0
5, 15929, Note_on_c, 2, 74, 0
5, 16120, Note_on_c, 2, 68, 113
5, 16121, Pitch_bend_c, 2, 7936
5, 16155, Pitch_bend_c, 2, 8192
5, 16155, Note_on_c, 2, 73, 78
5, 16189, Note_on_c, 2, 73, 0
5, 16190, Note_on_c, 2, 74, 66
5, 16195, Note_on_c, 2, 68, 0
5, 16195, Note_on_c, 2, 78, 86
5, 16197, Note_on_c, 2, 69, 86
5, 16625, Note_on_c, 2, 69, 0
5, 16626, Note_on_c, 2, 68, 8
5, 16814, Note_on_c, 2, 68, 0
5, 16815, Note_on_c, 2, 74, 0
5, 16818, Note_on_c, 2, 78, 0
5, 19480, Note_on_c, 2, 68, 113
5, 19510, Note_on_c, 2, 77, 92
5, 19514, Note_on_c, 2, 73, 43
5, 19546, Note_on_c, 2, 73, 0
5, 19547, Note_on_c, 2, 74, 31
5, 19554, Note_on_c, 2, 68, 0
5, 19555, Note_on_c, 2, 69, 78
5, 19559, Note_on_c, 2, 77, 0
5, 19560, Note_on_c, 2, 78, 68
5, 19752, Note_on_c, 2, 78, 0
5, 19754, Note_on_c, 2, 69, 0
5, 19769, Note_on_c, 2, 74, 0
5, 19960, Note_on_c, 2, 68, 113
5, 19961, Pitch_bend_c, 2, 7936
5, 19995, Note_on_c, 2, 73, 78
5, 19995, Pitch_bend_c, 2, 8192
5, 20029, Note_on_c, 2, 73, 0
5, 20030, Note_on_c, 2, 74, 66
5, 20035, Note_on_c, 2, 68, 0
5, 20035, Note_on_c, 2, 78, 86
5, 20037, Note_on_c, 2, 69, 86
5, 20465, Note_on_c, 2, 69, 0
5, 20466, Note_on_c, 2, 68, 8
5, 20654, Note_on_c, 2, 68, 0
5, 20655, Note_on_c, 2, 74, 0
5, 20658, Note_on_c, 2, 78, 0
5, 21621, Note_on_c, 2, 71, 86
5, 21645, Note_on_c, 2, 74, 71
5, 21648, Note_on_c, 2, 79, 80
5, 21835, Note_on_c, 2, 71, 0
5, 21860, Note_on_c, 2, 74, 0
5, 21880, Note_on_c, 2, 79, 0
5, 23360, Note_on_c, 2, 71, 86
5, 23363, Pitch_bend_c, 2, 8703
5, 23489, Pitch_bend_c, 2, 8362
5, 23516, Note_on_c, 2, 71, 0
5, 23528, Note_on_c, 2, 74, 80
5, 23539, Pitch_bend_c, 2, 8192
5, 23681, Note_on_c, 2, 75, 86
5, 23693, Note_on_c, 2, 74, 0
5, 23825, Note_on_c, 2, 75, 0
5, 23829, Note_on_c, 2, 76, 98
5, 23976, Note_on_c, 2, 79, 98
5, 23989, Note_on_c, 2, 76, 0
5, 24000, Pitch_bend_c, 2, 7936
5, 24086, Pitch_bend_c, 2, 7851
5, 24235, Pitch_bend_c, 2, 7425
5, 24250, Pitch_bend_c, 2, 4185
5, 24266, Pitch_bend_c, 2, 260
5, 24283, Note_on_c, 2, 76, 41
5, 24285, Pitch_bend_c, 2, 8447
5, 24310, Note_on_c, 2, 79, 0
5, 24314, Pitch_bend_c, 2, 4096
5, 24330, Note_on_c, 2, 76, 0
5, 24332, Note_on_c, 2, 74, 35
5, 24334, Pitch_bend_c, 2, 7595
5, 24349, Pitch_bend_c, 2, 4356
5, 24365, Pitch_bend_c, 2, 1112
5, 24383, Pitch_bend_c, 2, 89
5, 24400, Note_on_c, 2, 74, 0
5, 24401, Note_on_c, 2, 71, 11
5, 24403, Pitch_bend_c, 2, 8107
5, 24430, Pitch_bend_c, 2, 1283
5, 24441, Note_on_c, 2, 71, 0
5, 27189, Note_on_c, 2, 65, 87
5, 27196, Pitch_bend_c, 2, 8192
5, 27197, Note_on_c, 2, 71, 79
5, 27205, Note_on_c, 2, 74, 76
5, 27212, Note_on_c, 2, 80, 64
5, 27380, Note_on_c, 2, 65, 0
5, 27394, Note_on_c, 2, 74, 0
5, 27395, Note_on_c, 2, 80, 0
5, 27398, Note_on_c, 2, 71, 0
5, 27654, Note_on_c, 2, 80, 58
5, 27681, Note_on_c, 2, 74, 29
5, 27700, Note_on_c, 2, 71, 61
5, 27715, Note_on_c, 2, 65, 52
5, 27805, Note_on_c, 2, 71, 0
5, 27806, Note_on_c, 2, 80, 0
5, 27807, Note_on_c, 2, 74, 0
5, 27859, Note_on_c, 2, 74, 82
5, 27863, Note_on_c, 2, 80, 37
5, 27865, Note_on_c, 2, 71, 79
5, 28213, Note_on_c, 2, 74, 0
5, 28216, Note_on_c, 2, 65, 0
5, 28223, Note_on_c, 2, 71, 0
5, 28231, Note_on_c, 2, 72, 18
5, 28255, Note_on_c, 2, 62, 24
5, 28264, Note_on_c, 2, 72, 0
5, 28275, Note_on_c, 2, 62, 0
5, 28275, Note_on_c, 2, 61, 17
5, 28316, Note_on_c, 2, 61, 0
5, 28319, Note_on_c, 2, 60, 10
5, 28341, Note_on_c, 2, 60, 0
5, 28343, Note_on_c, 2, 59, 7
5, 28363, Note_on_c, 2, 59, 0
5, 28446, Note_on_c, 2, 80, 0
5, 29120, Note_on_c, 2, 64, 95
5, 29120, Note_on_c, 2, 69, 104
5, 29121, Note_on_c, 2, 81, 71
5, 29121, Note_on_c, 2, 73, 101
5, 29303, Note_on_c, 2, 73, 0
5, 29320, Note_on_c, 2, 81, 0
5, 29331, Note_on_c, 2, 64, 0
5, 29346, Note_on_c, 2, 69, 0
5, 29760, Note_on_c, 2, 69, 113
5, 29760, Note_on_c, 2, 64, 74
5, 29761, Note_on_c, 2, 81, 89
5, 29761, Note_on_c, 2, 73, 107
5, 29929, Note_on_c, 2, 81, 0
5, 29931, Note_on_c, 2, 64, 0
5, 29935, Note_on_c, 2, 73, 0
5, 29945, Note_on_c, 2, 69, 0
5, 31036, Note_on_c, 2, 69, 104
5, 31036, Note_on_c, 2, 74, 101
5, 31037, Note_on_c, 2, 66, 95
5, 31185, Note_on_c, 2, 74, 0
5, 31203, Note_on_c, 2, 69, 0
5, 31213, Note_on_c, 2, 66, 0
5, 31677, Note_on_c, 2, 66, 91
5, 31679, Note_on_c, 2, 69, 113
5, 31679, Note_on_c, 2, 74, 101
5, 31930, Note_on_c, 2, 69, 0
5, 31948, Note_on_c, 2, 74, 0
5, 31968, Note_on_c, 2, 66, 0
5, 33600, Note_on_c, 2, 59, 93
5, 33615, Pitch_bend_c, 2, 8107
5, 33760, Note_on_c, 2, 60, 95
5, 33770, Note_on_c, 2, 59, 0
5, 33820, Pitch_bend_c, 2, 8192
5, 33920, Note_on_c, 2, 60, 0
5, 33920, Note_on_c, 2, 61, 86
5, 34060, Pitch_bend_c, 2, 8107
5, 34079, Note_on_c, 2, 61, 0
5, 34080, Note_on_c, 2, 64, 52
5, 34238, Note_on_c, 2, 64, 0
5, 34240, Note_on_c, 2, 66, 101
5, 34274, Pitch_bend_c, 2, 7339
5, 34395, Note_on_c, 2, 66, 0
5, 34400, Note_on_c, 2, 67, 104
5, 34560, Note_on_c, 2, 67, 0
5, 34581, Note_on_c, 2, 69, 95
5, 34787, Note_on_c, 2, 69, 0
5, 34795, Pitch_bend_c, 2, 4011
5, 34810, Pitch_bend_c, 2, 6828
5, 34810, Note_on_c, 2, 66, 62
5, 34834, Pitch_bend_c, 2, 5464
5, 34845, Note_on_c, 2, 66, 0
5, 34846, Note_on_c, 2, 64, 47
5, 34849, Pitch_bend_c, 2, 7169
5, 34870, Pitch_bend_c, 2, 5634
5, 34884, Note_on_c, 2, 64, 0
5, 34885, Note_on_c, 2, 62, 41
5, 34885, Pitch_bend_c, 2, 8107
5, 34898, Pitch_bend_c, 2, 2817
5, 34923, Note_on_c, 2, 62, 0
5, 34924, Pitch_bend_c, 2, 7680
5, 34924, Note_on_c, 2, 60, 26
5, 34936, Pitch_bend_c, 2, 3414
5, 34951, Note_on_c, 2, 60, 0
5, 34951, Note_on_c, 2, 58, 14
5, 34954, Pitch_bend_c, 2, 7766
5, 34965, Pitch_bend_c, 2, 2988
5, 34990, Note_on_c, 2, 58, 0
5, 36771, Note_on_c, 2, 57, 57
5, 36788, Pitch_bend_c, 2, 8192
5, 36790, Note_on_c, 2, 62, 40
5, 36805, Note_on_c, 2, 66, 46
5, 36996, Note_on_c, 2, 57, 0
5, 37001, Note_on_c, 2, 66, 0
5, 37006, Note_on_c, 2, 62, 0
5, 37488, Note_on_c, 2, 57, 40
5, 37718, Note_on_c, 2, 69, 24
5, 37925, Note_on_c, 2, 69, 0
5, 37935, Note_on_c, 2, 57, 0
5, 37935, Note_on_c, 2, 57, 50
5, 37943, Note_on_c, 2, 62, 75
5, 37951, Note_on_c, 2, 66, 81
5, 37961, Note_on_c, 2, 69, 33
5, 38071, Note_on_c, 2, 69, 0
5, 38115, Note_on_c, 2, 57, 0
5, 38121, Note_on_c, 2, 66, 0
5, 38125, Note_on_c, 2, 62, 0
5, 38691, Note_on_c, 2, 57, 57
5, 38710, Note_on_c, 2, 62, 40
5, 38725, Note_on_c, 2, 66, 46
5, 38916, Note_on_c, 2, 57, 0
5, 38921, Note_on_c, 2, 66, 0
5, 38926, Note_on_c, 2, 62, 0
5, 39408, Note_on_c, 2, 57, 40
5, 39638, Note_on_c, 2, 69, 24
5, 39845, Note_on_c, 2, 69, 0
5, 39855, Note_on_c, 2, 57, 0
5, 39855, Note_on_c, 2, 57, 50
5, 39863, Note_on_c, 2, 62, 75
5, 39871, Note_on_c, 2, 66, 81
5, 39881, Note_on_c, 2, 69, 33
5, 39991, Note_on_c, 2, 69, 0
5, 40035, Note_on_c, 2, 57, 0
5, 40041, Note_on_c, 2, 66, 0
5, 40045, Note_on_c, 2, 62, 0
5, 42539, Note_on_c, 2, 69, 95
5, 42539, Note_on_c, 2, 74, 95
5, 42539, Note_on_c, 2, 78, 86
5, 42761, Note_on_c, 2, 78, 0
5, 42765, Note_on_c, 2, 69, 0
5, 42768, Note_on_c, 2, 74, 0
5, 42995, Pitch_bend_c, 2, 7339
5, 42995, Note_on_c, 2, 78, 53
5, 43121, Pitch_bend_c, 2, 7425
5, 43195, Pitch_bend_c, 2, 8192
5, 43196, Note_on_c, 2, 69, 95
5, 43213, Note_on_c, 2, 78, 0
5, 43215, Note_on_c, 2, 78, 89
5, 43220, Note_on_c, 2, 74, 72
5, 43573, Note_on_c, 2, 69, 0
5, 43575, Note_on_c, 2, 68, 34
5, 43583, Note_on_c, 2, 74, 0
5, 43585, Note_on_c, 2, 73, 31
5, 43627, Note_on_c, 2, 73, 0
5, 43629, Note_on_c, 2, 72, 8
5, 43631, Note_on_c, 2, 68, 0
5, 43632, Note_on_c, 2, 67, 8
5, 43746, Note_on_c, 2, 72, 0
5, 43772, Note_on_c, 2, 67, 0
5, 43815, Note_on_c, 2, 78, 0
5, 46379, Note_on_c, 2, 74, 95
5, 46379, Note_on_c, 2, 78, 86
5, 46379, Note_on_c, 2, 69, 95
5, 46601, Note_on_c, 2, 78, 0
5, 46605, Note_on_c, 2, 69, 0
5, 46608, Note_on_c, 2, 74, 0
5, 46835, Note_on_c, 2, 78, 53
5, 46835, Pitch_bend_c, 2, 7339
5, 46961, Pitch_bend_c, 2, 7425
5, 47035, Pitch_bend_c, 2, 8192
5, 47036, Note_on_c, 2, 69, 95
5, 47053, Note_on_c, 2, 78, 0
5, 47055, Note_on_c, 2, 78, 89
5, 47060, Note_on_c, 2, 74, 72
5, 47413, Note_on_c, 2, 69, 0
5, 47415, Note_on_c, 2, 68, 34
5, 47423, Note_on_c, 2, 74, 0
5, 47425, Note_on_c, 2, 73, 31
5, 47467, Note_on_c, 2, 73, 0
5, 47469, Note_on_c, 2, 72, 8
5, 47471, Note_on_c, 2, 68, 0
5, 47472, Note_on_c, 2, 67, 8
5, 47586, Note_on_c, 2, 72, 0
5, 47612, Note_on_c, 2, 67, 0
5, 47655, Note_on_c, 2, 78, 0
5, 50200, Note_on_c, 2, 71, 60
5, 50201, Pitch_bend_c, 2, 8703
5, 50219, Pitch_bend_c, 2, 8192
5, 50220, Note_on_c, 2, 79, 98
5, 50226, Note_on_c, 2, 74, 8
5, 50440, Note_on_c, 2, 79, 0
5, 50460, Note_on_c, 2, 71, 0
5, 50480, Note_on_c, 2, 74, 0
5, 50664, Note_on_c, 2, 79, 86
5, 50700, Note_on_c, 2, 74, 72
5, 50832, Note_on_c, 2, 79, 0
5, 50847, Note_on_c, 2, 74, 0
5, 50889, Note_on_c, 2, 71, 25
5, 50911, Note_on_c, 2, 79, 104
5, 50957, Note_on_c, 2, 74, 8
5, 51239, Note_on_c, 2, 79, 0
5, 51240, Note_on_c, 2, 78, 65
5, 51305, Note_on_c, 2, 78, 0
5, 51305, Note_on_c, 2, 77, 47
5, 51327, Note_on_c, 2, 77, 0
5, 51346, Note_on_c, 2, 71, 0
5, 51366, Note_on_c, 2, 74, 0
5, 54069, Note_on_c, 2, 65, 87
5, 54077, Note_on_c, 2, 71, 79
5, 54085, Note_on_c, 2, 74, 76
5, 54092, Note_on_c, 2, 80, 64
5, 54260, Note_on_c, 2, 65, 0
5, 54274, Note_on_c, 2, 74, 0
5, 54275, Note_on_c, 2, 80, 0
5, 54278, Note_on_c, 2, 71, 0
5, 54534, Note_on_c, 2, 80, 58
5, 54561, Note_on_c, 2, 74, 29
5, 54580, Note_on_c, 2, 71, 61
5, 54595, Note_on_c, 2, 65, 52
5, 54685, Note_on_c, 2, 71, 0
5, 54686, Note_on_c, 2, 80, 0
5, 54687, Note_on_c, 2, 74, 0
5, 54739, Note_on_c, 2, 74, 82
5, 54743, Note_on_c, 2, 80, 37
5, 54745, Note_on_c, 2, 71, 79
5, 55093, Note_on_c, 2, 74, 0
5, 55096, Note_on_c, 2, 65, 0
5, 55103, Note_on_c, 2, 71, 0
5, 55111, Note_on_c, 2, 72, 18
5, 55135, Note_on_c, 2, 62, 24
5, 55144, Note_on_c, 2, 72, 0
5, 55155, Note_on_c, 2, 62, 0
5, 55155, Note_on_c, 2, 61, 17
5, 55196, Note_on_c, 2, 61, 0
5, 55199, Note_on_c, 2, 60, 10
5, 55221, Note_on_c, 2, 60, 0
5, 55223, Note_on_c, 2, 59, 7
5, 55243, Note_on_c, 2, 59, 0
5, 55326, Note_on_c, 2, 80, 0
5, 56000, Note_on_c, 2, 69, 104
5, 56000, Note_on_c, 2, 64, 95
5, 56001, Note_on_c, 2, 73, 101
5, 56001, Note_on_c, 2, 81, 71
5, 56183, Note_on_c, 2, 73, 0
5, 56200, Note_on_c, 2, 81, 0
5, 56211, Note_on_c, 2, 64, 0
5, 56226, Note_on_c, 2, 69, 0
5, 56640, Note_on_c, 2, 69, 113
5, 56640, Note_on_c, 2, 64, 74
5, 56641, Note_on_c, 2, 73, 107
5, 56641, Note_on_c, 2, 81, 89
5, 56809, Note_on_c, 2, 81, 0
5, 56811, Note_on_c, 2, 64, 0
5, 56815, Note_on_c, 2, 73, 0
5, 56825, Note_on_c, 2, 69, 0
5, 57916, Note_on_c, 2, 69, 104
5, 57916, Note_on_c, 2, 74, 101
5, 57917, Note_on_c, 2, 66, 95
5, 58065, Note_on_c, 2, 74, 0
5, 58083, Note_on_c, 2, 69, 0
5, 58093, Note_on_c, 2, 66, 0
5, 58557, Note_on_c, 2, 66, 91
5, 58559, Note_on_c, 2, 74, 101
5, 58559, Note_on_c, 2, 69, 113
5, 58810, Note_on_c, 2, 69, 0
5, 58828, Note_on_c, 2, 74, 0
5, 58848, Note_on_c, 2, 66, 0
5, 60480, Note_on_c, 2, 71, 93
5, 60495, Pitch_bend_c, 2, 8107
5, 60640, Note_on_c, 2, 72, 95
5, 60650, Note_on_c, 2, 71, 0
5, 60700, Pitch_bend_c, 2, 8192
5, 60800, Note_on_c, 2, 72, 0
5, 60800, Note_on_c, 2, 73, 86
5, 60940, Pitch_bend_c, 2, 8107
5, 60959, Note_on_c, 2, 73, 0
5, 60960, Note_on_c, 2, 76, 52
5, 61118, Note_on_c, 2, 76, 0
5, 61120, Note_on_c, 2, 78, 101
5, 61154, Pitch_bend_c, 2, 7339
5, 61275, Note_on_c, 2, 78, 0
5, 61280, Note_on_c, 2, 79, 104
5, 61440, Note_on_c, 2, 79, 0
5, 61483, Note_on_c, 2, 81, 95
5, 61675, Pitch_bend_c, 2, 4011
5, 61689, Note_on_c, 2, 81, 0
5, 61690, Pitch_bend_c, 2, 6828
5, 61690, Note_on_c, 2, 78, 62
5, 61714, Pitch_bend_c, 2, 5464
5, 61725, Note_on_c, 2, 78, 0
5, 61726, Note_on_c, 2, 76, 47
5, 61729, Pitch_bend_c, 2, 7169
5, 61750, Pitch_bend_c, 2, 5634
5, 61764, Note_on_c, 2, 76, 0
5, 61765, Note_on_c, 2, 74, 41
5, 61765, Pitch_bend_c, 2, 8107
5, 61778, Pitch_bend_c, 2, 2817
5, 61803, Note_on_c, 2, 74, 0
5, 61804, Note_on_c, 2, 72, 26
5, 61804, Pitch_bend_c, 2, 7680
5, 61816, Pitch_bend_c, 2, 3414
5, 61831, Note_on_c, 2, 72, 0
5, 61831, Note_on_c, 2, 70, 14
5, 61834, Pitch_bend_c, 2, 7766
5, 61845, Pitch_bend_c, 2, 2988
5, 61870, Note_on_c, 2, 70, 0
5, 63651, Note_on_c, 2, 57, 57
5, 63668, Pitch_bend_c, 2, 8192
5, 63670, Note_on_c, 2, 62, 40
5, 63685, Note_on_c, 2, 66, 46
5, 63876, Note_on_c, 2, 57, 0
5, 63881, Note_on_c, 2, 66, 0
5, 63886, Note_on_c, 2, 62, 0
5, 64368, Note_on_c, 2, 57, 40
5, 64598, Note_on_c, 2, 69, 24
5, 64805, Note_on_c, 2, 69, 0
5, 64815, Note_on_c, 2, 57, 0
5, 64815, Note_on_c, 2, 57, 50
5, 64823, Note_on_c, 2, 62, 75
5, 64831, Note_on_c, 2, 66, 81
5, 64841, Note_on_c, 2, 69, 33
5, 64951, Note_on_c, 2, 69, 0
5, 64995, Note_on_c, 2, 57, 0
5, 65001, Note_on_c, 2, 66, 0
5, 65005, Note_on_c, 2, 62, 0
5, 65571, Note_on_c, 2, 57, 57
5, 65590, Note_on_c, 2, 62, 40
5, 65605, Note_on_c, 2, 66, 46
5, 65796, Note_on_c, 2, 57, 0
5, 65801, Note_on_c, 2, 66, 0
5, 65806, Note_on_c, 2, 62, 0
5, 66288, Note_on_c, 2, 57, 40
5, 66518, Note_on_c, 2, 69, 24
5, 66725, Note_on_c, 2, 69, 0
5, 66735, Note_on_c, 2, 57, 0
5, 66735, Note_on_c, 2, 57, 50
5, 66743, Note_on_c, 2, 62, 75
5, 66751, Note_on_c, 2, 66, 81
5, 66761, Note_on_c, 2, 69, 33
5, 66871, Note_on_c, 2, 69, 0
5, 66915, Note_on_c, 2, 57, 0
5, 66921, Note_on_c, 2, 66, 0
5, 66925, Note_on_c, 2, 62, 0
5, 67511, Note_on_c, 2, 59, 95
5, 67514, Note_on_c, 2, 62, 104
5, 67516, Note_on_c, 2, 67, 101
5, 67519, Note_on_c, 2, 71, 86
5, 67759, Note_on_c, 2, 62, 0
5, 67759, Note_on_c, 2, 71, 0
5, 67760, Note_on_c, 2, 67, 0
5, 67786, Note_on_c, 2, 59, 0
5, 68165, Note_on_c, 2, 59, 49
5, 68176, Note_on_c, 2, 62, 86
5, 68180, Note_on_c, 2, 67, 89
5, 68230, Pitch_bend_c, 2, 9385
5, 68240, Pitch_bend_c, 2, 8192
5, 68414, Note_on_c, 2, 59, 0
5, 68415, Note_on_c, 2, 62, 0
5, 68439, Note_on_c, 2, 67, 0
5, 68648, Note_on_c, 2, 62, 78
5, 68653, Note_on_c, 2, 67, 107
5, 68658, Note_on_c, 2, 71, 86
5, 68940, Note_on_c, 2, 71, 0
5, 68955, Note_on_c, 2, 67, 0
5, 68971, Note_on_c, 2, 62, 0
5, 69599, Note_on_c, 2, 74, 64
5, 69695, Pitch_bend_c, 2, 8107
5, 69739, Pitch_bend_c, 2, 8192
5, 69756, Note_on_c, 2, 76, 104
5, 69765, Note_on_c, 2, 74, 0
5, 69915, Note_on_c, 2, 77, 115
5, 69935, Note_on_c, 2, 76, 0
5, 70070, Note_on_c, 2, 77, 0
5, 70085, Note_on_c, 2, 78, 107
5, 70464, Pitch_bend_c, 2, 8021
5, 70502, Note_on_c, 2, 78, 0
5, 71040, Note_on_c, 2, 52, 39
5, 71043, Note_on_c, 2, 57, 25
5, 71080, Note_on_c, 2, 52, 0
5, 71094, Note_on_c, 2, 57, 0
5, 71357, Note_on_c, 2, 69, 89
5, 71364, Note_on_c, 2, 66, 101
5, 71366, Note_on_c, 2, 61, 43
5, 71367, Note_on_c, 2, 64, 95
5, 71370, Pitch_bend_c, 2, 8192
5, 71372, Note_on_c, 2, 57, 39
5, 71389, Note_on_c, 2, 66, 0
5, 71576, Note_on_c, 2, 61, 0
5, 71600, Note_on_c, 2, 57, 0
5, 71658, Note_on_c, 2, 64, 0
5, 71661, Note_on_c, 2, 69, 0
5, 71840, Note_on_c, 2, 69, 62
5, 71846, Note_on_c, 2, 64, 8
5, 71981, Note_on_c, 2, 69, 0
5, 71995, Note_on_c, 2, 64, 0
5, 71995, Note_on_c, 2, 57, 35
5, 72000, Note_on_c, 2, 61, 51
5, 72005, Note_on_c, 2, 64, 78
5, 72006, Note_on_c, 2, 69, 62
5, 72220, Note_on_c, 2, 57, 0
5, 72220, Note_on_c, 2, 69, 0
5, 72225, Note_on_c, 2, 64, 0
5, 72255, Note_on_c, 2, 61, 0
5, 72480, Note_on_c, 2, 57, 67
5, 72485, Note_on_c, 2, 61, 95
5, 72486, Note_on_c, 2, 64, 101
5, 72488, Note_on_c, 2, 69, 89
5, 72781, Note_on_c, 2, 57, 0
5, 72790, Note_on_c, 2, 69, 0
5, 72805, Note_on_c, 2, 61, 0
5, 72812, Note_on_c, 2, 64, 0
5, 73264, Note_on_c, 2, 70, 62
5, 73270, Note_on_c, 2, 66, 95
5, 73274, Note_on_c, 2, 62, 60
5, 73279, Note_on_c, 2, 57, 32
5, 73299, Note_on_c, 2, 70, 0
5, 73468, Note_on_c, 2, 57, 0
5, 73495, Note_on_c, 2, 62, 0
5, 73509, Note_on_c, 2, 66, 0
5, 73757, Note_on_c, 2, 66, 19
5, 73834, Pitch_bend_c, 2, 8533
5, 73894, Pitch_bend_c, 2, 8192
5, 73911, Note_on_c, 2, 57, 18
5, 73915, Note_on_c, 2, 62, 60
5, 73919, Note_on_c, 2, 66, 0
5, 73919, Note_on_c, 2, 66, 101
5, 73929, Note_on_c, 2, 70, 20
5, 73953, Note_on_c, 2, 70, 0
5, 74146, Note_on_c, 2, 57, 0
5, 74150, Note_on_c, 2, 66, 0
5, 74155, Note_on_c, 2, 62, 0
5, 74396, Note_on_c, 2, 66, 89
5, 74400, Note_on_c, 2, 70, 47
5, 74420, Note_on_c, 2, 70, 0
5, 74710, Note_on_c, 2, 70, 35
5, 74732, Note_on_c, 2, 66, 0
5, 74734, Note_on_c, 2, 70, 0
5, 74846, Pitch_bend_c, 2, 7084
5, 74863, Pitch_bend_c, 2, 8192
5, 74869, Note_on_c, 2, 57, 16
5, 74875, Note_on_c, 2, 61, 66
5, 74908, Note_on_c, 2, 61, 0
5, 74919, Note_on_c, 2, 57, 0
5, 75189, Note_on_c, 2, 70, 74
5, 75197, Note_on_c, 2, 67, 78
5, 75204, Note_on_c, 2, 71, 56
5, 75234, Note_on_c, 2, 70, 0
5, 75285, Note_on_c, 2, 71, 0
5, 75665, Note_on_c, 2, 67, 0
5, 75670, Note_on_c, 2, 71, 71
5, 75675, Note_on_c, 2, 67, 66
5, 75829, Note_on_c, 2, 67, 0
5, 75832, Note_on_c, 2, 71, 0
5, 76161, Note_on_c, 2, 71, 74
5, 76166, Note_on_c, 2, 67, 54
5, 76289, Note_on_c, 2, 67, 0
5, 76291, Note_on_c, 2, 71, 0
5, 76320, Note_on_c, 2, 62, 115
5, 76324, Note_on_c, 2, 68, 101
5, 76325, Note_on_c, 2, 71, 101
5, 76330, Note_on_c, 2, 67, 95
5, 76345, Note_on_c, 2, 68, 0
5, 76539, Note_on_c, 2, 67, 0
5, 76555, Note_on_c, 2, 71, 0
5, 76621, Note_on_c, 2, 62, 0
5, 76635, Note_on_c, 2, 61, 69
5, 76646, Note_on_c, 2, 66, 20
5, 76650, Note_on_c, 2, 60, 51
5, 76660, Note_on_c, 2, 59, 34
5, 76680, Note_on_c, 2, 60, 0
5, 76685, Note_on_c, 2, 61, 0
5, 76800, Note_on_c, 2, 66, 0
5, 76801, Note_on_c, 2, 52, 32
5, 76810, Note_on_c, 2, 62, 25
5, 76813, Note_on_c, 2, 66, 38
5, 76838, Note_on_c, 2, 62, 0
5, 76885, Note_on_c, 2, 66, 0
5, 76924, Note_on_c, 2, 52, 0
5, 77020, Note_on_c, 2, 59, 0
5, 77114, Note_on_c, 2, 70, 59
5, 77119, Note_on_c, 2, 66, 89
5, 77122, Note_on_c, 2, 62, 16
5, 77135, Note_on_c, 2, 70, 0
5, 77260, Note_on_c, 2, 66, 0
5, 77266, Note_on_c, 2, 62, 0
5, 77276, Pitch_bend_c, 2, 7595
5, 77277, Note_on_c, 2, 62, 86
5, 77283, Note_on_c, 2, 66, 83
5, 77286, Pitch_bend_c, 2, 8192
5, 77399, Note_on_c, 2, 66, 0
5, 77419, Note_on_c, 2, 62, 0
5, 77594, Note_on_c, 2, 66, 78
5, 77630, Pitch_bend_c, 2, 8447
5, 77786, Pitch_bend_c, 2, 8533
5, 77837, Note_on_c, 2, 66, 0
5, 78063, Pitch_bend_c, 2, 9641
5, 78075, Note_on_c, 2, 66, 95
5, 78076, Pitch_bend_c, 2, 8192
5, 78080, Note_on_c, 2, 62, 86
5, 78084, Note_on_c, 2, 57, 88
5, 78245, Note_on_c, 2, 66, 101
5, 78253, Note_on_c, 2, 70, 47
5, 78270, Note_on_c, 2, 66, 0
5, 78304, Note_on_c, 2, 70, 0
5, 78351, Note_on_c, 2, 57, 0
5, 78380, Note_on_c, 2, 62, 0
5, 78388, Note_on_c, 2, 66, 0
5, 78557, Note_on_c, 2, 72, 50
5, 78562, Note_on_c, 2, 68, 54
5, 78600, Note_on_c, 2, 72, 0
5, 78720, Note_on_c, 2, 68, 0
5, 78721, Note_on_c, 2, 59, 74
5, 78724, Note_on_c, 2, 64, 104
5, 78726, Note_on_c, 2, 68, 101
5, 78730, Note_on_c, 2, 71, 47
5, 78945, Note_on_c, 2, 71, 0
5, 78946, Note_on_c, 2, 68, 0
5, 78952, Note_on_c, 2, 59, 0
5, 78961, Note_on_c, 2, 64, 0
5, 79195, Note_on_c, 2, 59, 35
5, 79200, Note_on_c, 2, 64, 60
5, 79201, Note_on_c, 2, 68, 83
5, 79456, Note_on_c, 2, 59, 0
5, 79461, Note_on_c, 2, 68, 0
5, 79485, Note_on_c, 2, 64, 0
5, 79510, Note_on_c, 2, 72, 23
5, 79530, Note_on_c, 2, 72, 0
5, 79680, Note_on_c, 2, 59, 60
5, 79684, Note_on_c, 2, 64, 104
5, 79686, Note_on_c, 2, 68, 101
5, 79896, Note_on_c, 2, 68, 0
5, 79902, Note_on_c, 2, 59, 0
5, 79935, Note_on_c, 2, 64, 0
5, 80160, Note_on_c, 2, 64, 51
5, 80165, Note_on_c, 2, 68, 107
5, 80352, Note_on_c, 2, 68, 0
5, 80375, Note_on_c, 2, 64, 0
5, 80491, Note_on_c, 2, 66, 47
5, 80570, Note_on_c, 2, 66, 0
5, 80656, Note_on_c, 2, 68, 54
5, 80660, Note_on_c, 2, 73, 53
5, 80676, Note_on_c, 2, 68, 0
5, 80879, Note_on_c, 2, 73, 0
5, 80960, Note_on_c, 2, 73, 83
5, 80965, Note_on_c, 2, 69, 78
5, 81210, Note_on_c, 2, 73, 0
5, 81265, Note_on_c, 2, 69, 0
5, 81437, Note_on_c, 2, 73, 68
5, 81440, Note_on_c, 2, 69, 31
5, 81580, Note_on_c, 2, 73, 0
5, 81599, Note_on_c, 2, 69, 0
5, 81599, Note_on_c, 2, 64, 115
5, 81600, Note_on_c, 2, 69, 113
5, 81601, Note_on_c, 2, 73, 95
5, 81825, Note_on_c, 2, 73, 0
5, 81832, Note_on_c, 2, 64, 0
5, 81850, Note_on_c, 2, 69, 0
5, 81910, Pitch_bend_c, 2, 10152
5, 81916, Note_on_c, 2, 72, 35
5, 81936, Note_on_c, 2, 72, 0
5, 82079, Note_on_c, 2, 69, 101
5, 82083, Note_on_c, 2, 73, 110
5, 82086, Pitch_bend_c, 2, 8192
5, 82350, Note_on_c, 2, 73, 0
5, 82386, Note_on_c, 2, 72, 71
5, 82392, Note_on_c, 2, 69, 0
5, 82397, Note_on_c, 2, 67, 48
5, 82400, Note_on_c, 2, 71, 62
5, 82407, Note_on_c, 2, 70, 59
5, 82412, Note_on_c, 2, 66, 31
5, 82415, Note_on_c, 2, 69, 44
5, 82420, Note_on_c, 2, 65, 31
5, 82425, Note_on_c, 2, 71, 0
5, 82430, Note_on_c, 2, 72, 0
5, 82430, Note_on_c, 2, 70, 0
5, 82439, Note_on_c, 2, 66, 0
5, 82446, Note_on_c, 2, 67, 0
5, 82460, Note_on_c, 2, 69, 0
5, 82465, Note_on_c, 2, 65, 0
5, 84779, Note_on_c, 2, 69, 95
5, 84779, Note_on_c, 2, 74, 95
5, 84779, Note_on_c, 2, 78, 86
5, 85001, Note_on_c, 2, 78, 0
5, 85005, Note_on_c, 2, 69, 0
5, 85008, Note_on_c, 2, 74, 0
5, 85235, Pitch_bend_c, 2, 7339
5, 85235, Note_on_c, 2, 78, 53
5, 85361, Pitch_bend_c, 2, 7425
5, 85435, Pitch_bend_c, 2, 8192
5, 85436, Note_on_c, 2, 69, 95
5, 85453, Note_on_c, 2, 78, 0
5, 85455, Note_on_c, 2, 78, 89
5, 85460, Note_on_c, 2, 74, 72
5, 85813, Note_on_c, 2, 69, 0
5, 85815, Note_on_c, 2, 68, 34
5, 85823, Note_on_c, 2, 74, 0
5, 85825, Note_on_c, 2, 73, 31
5, 85867, Note_on_c, 2, 73, 0
5, 85869, Note_on_c, 2, 72, 8
5, 85871, Note_on_c, 2, 68, 0
5, 85872, Note_on_c, 2, 67, 8
5, 85986, Note_on_c, 2, 72, 0
5, 86012, Note_on_c, 2, 67, 0
5, 86055, Note_on_c, 2, 78, 0
5, 88619, Note_on_c, 2, 78, 86
5, 88619, Note_on_c, 2, 69, 95
5, 88619, Note_on_c, 2, 74, 95
5, 88841, Note_on_c, 2, 78, 0
5, 88845, Note_on_c, 2, 69, 0
5, 88848, Note_on_c, 2, 74, 0
5, 89075, Pitch_bend_c, 2, 7339
5, 89075, Note_on_c, 2, 78, 53
5, 89201, Pitch_bend_c, 2, 7425
5, 89275, Pitch_bend_c, 2, 8192
5, 89276, Note_on_c, 2, 69, 95
5, 89293, Note_on_c, 2, 78, 0
5, 89295, Note_on_c, 2, 78, 89
5, 89300, Note_on_c, 2, 74, 72
5, 89653, Note_on_c, 2, 69, 0
5, 89655, Note_on_c, 2, 68, 34
5, 89663, Note_on_c, 2, 74, 0
5, 89665, Note_on_c, 2, 73, 31
5, 89707, Note_on_c, 2, 73, 0
5, 89709, Note_on_c, 2, 72, 8
5, 89711, Note_on_c, 2, 68, 0
5, 89712, Note_on_c, 2, 67, 8
5, 89826, Note_on_c, 2, 72, 0
5, 89852, Note_on_c, 2, 67, 0
5, 89895, Note_on_c, 2, 78, 0
5, 92440, Note_on_c, 2, 71, 60
5, 92441, Pitch_bend_c, 2, 8703
5, 92459, Pitch_bend_c, 2, 8192
5, 92460, Note_on_c, 2, 79, 98
5, 92466, Note_on_c, 2, 74, 8
5, 92680, Note_on_c, 2, 79, 0
5, 92700, Note_on_c, 2, 71, 0
5, 92720, Note_on_c, 2, 74, 0
5, 92904, Note_on_c, 2, 79, 86
5, 92940, Note_on_c, 2, 74, 72
5, 93072, Note_on_c, 2, 79, 0
5, 93087, Note_on_c, 2, 74, 0
5, 93129, Note_on_c, 2, 71, 25
5, 93151, Note_on_c, 2, 79, 104
5, 93197, Note_on_c, 2, 74, 8
5, 93479, Note_on_c, 2, 79, 0
5, 93480, Note_on_c, 2, 78, 65
5, 93545, Note_on_c, 2, 78, 0
5, 93545, Note_on_c, 2, 77, 47
5, 93567, Note_on_c, 2, 77, 0
5, 93586, Note_on_c, 2, 71, 0
5, 93606, Note_on_c, 2, 74, 0
5, 96309, Note_on_c, 2, 65, 87
5, 96317, Note_on_c, 2, 71, 79
5, 96325, Note_on_c, 2, 74, 76
5, 96332, Note_on_c, 2, 80, 64
5, 96500, Note_on_c, 2, 65, 0
5, 96514, Note_on_c, 2, 74, 0
5, 96515, Note_on_c, 2, 80, 0
5, 96518, Note_on_c, 2, 71, 0
5, 96774, Note_on_c, 2, 80, 58
5, 96801, Note_on_c, 2, 74, 29
5, 96820, Note_on_c, 2, 71, 61
5, 96835, Note_on_c, 2, 65, 52
5, 96925, Note_on_c, 2, 71, 0
5, 96926, Note_on_c, 2, 80, 0
5, 96927, Note_on_c, 2, 74, 0
5, 96979, Note_on_c, 2, 74, 82
5, 96983, Note_on_c, 2, 80, 37
5, 96985, Note_on_c, 2, 71, 79
5, 97333, Note_on_c, 2, 74, 0
5, 97336, Note_on_c, 2, 65, 0
5, 97343, Note_on_c, 2, 71, 0
5, 97351, Note_on_c, 2, 72, 18
5, 97375, Note_on_c, 2, 62, 24
5, 97384, Note_on_c, 2, 72, 0
5, 97395, Note_on_c, 2, 62, 0
5, 97395, Note_on_c, 2, 61, 17
5, 97436, Note_on_c, 2, 61, 0
5, 97439, Note_on_c, 2, 60, 10
5, 97461, Note_on_c, 2, 60, 0
5, 97463, Note_on_c, 2, 59, 7
5, 97483, Note_on_c, 2, 59, 0
5, 97566, Note_on_c, 2, 80, 0
5, 98240, Note_on_c, 2, 64, 95
5, 98240, Note_on_c, 2, 69, 104
5, 98241, Note_on_c, 2, 73, 101
5, 98241, Note_on_c, 2, 81, 71
5, 98243, Pitch_bend_c, 2, 8533
5, 98250, Pitch_bend_c, 2, 8192
5, 98423, Note_on_c, 2, 73, 0
5, 98440, Note_on_c, 2, 81, 0
5, 98451, Note_on_c, 2, 64, 0
5, 98466, Note_on_c, 2, 69, 0
5, 98880, Note_on_c, 2, 69, 113
5, 98880, Note_on_c, 2, 64, 74
5, 98881, Note_on_c, 2, 73, 107
5, 98881, Note_on_c, 2, 81, 89
5, 99049, Note_on_c, 2, 81, 0
5, 99051, Note_on_c, 2, 64, 0
5, 99055, Note_on_c, 2, 73, 0
5, 99065, Note_on_c, 2, 69, 0
5, 100156, Note_on_c, 2, 74, 101
5, 100156, Note_on_c, 2, 69, 104
5, 100157, Note_on_c, 2, 66, 95
5, 100305, Note_on_c, 2, 74, 0
5, 100323, Note_on_c, 2, 69, 0
5, 100333, Note_on_c, 2, 66, 0
5, 100797, Note_on_c, 2, 66, 91
5, 100799, Note_on_c, 2, 74, 101
5, 100799, Note_on_c, 2, 69, 113
5, 101050, Note_on_c, 2, 69, 0
5, 101068, Note_on_c, 2, 74, 0
5, 101088, Note_on_c, 2, 66, 0
5, 102720, Note_on_c, 2, 71, 93
5, 102735, Pitch_bend_c, 2, 8107
5, 102880, Note_on_c, 2, 72, 95
5, 102890, Note_on_c, 2, 71, 0
5, 102940, Pitch_bend_c, 2, 8192
5, 103040, Note_on_c, 2, 72, 0
5, 103040, Note_on_c, 2, 73, 86
5, 103180, Pitch_bend_c, 2, 8107
5, 103199, Note_on_c, 2, 73, 0
5, 103200, Note_on_c, 2, 76, 52
5, 103358, Note_on_c, 2, 76, 0
5, 103360, Note_on_c, 2, 78, 101
5, 103394, Pitch_bend_c, 2, 7339
5, 103515, Note_on_c, 2, 78, 0
5, 103520, Note_on_c, 2, 79, 104
5, 103680, Note_on_c, 2, 79, 0
5, 103723, Note_on_c, 2, 81, 95
5, 103915, Pitch_bend_c, 2, 7936
5, 103929, Note_on_c, 2, 81, 0
5, 103930, Note_on_c, 2, 78, 62
5, 103940, Pitch_bend_c, 2, 6828
5, 103954, Pitch_bend_c, 2, 5464
5, 103965, Note_on_c, 2, 78, 0
5, 103966, Note_on_c, 2, 76, 47
5, 103969, Pitch_bend_c, 2, 7169
5, 103990, Pitch_bend_c, 2, 5634
5, 104004, Note_on_c, 2, 76, 0
5, 104005, Pitch_bend_c, 2, 4356
5, 104005, Note_on_c, 2, 74, 41
5, 104030, Pitch_bend_c, 2, 2817
5, 104043, Note_on_c, 2, 74, 0
5, 104044, Pitch_bend_c, 2, 7680
5, 104044, Note_on_c, 2, 72, 26
5, 104056, Pitch_bend_c, 2, 3414
5, 104071, Note_on_c, 2, 72, 0
5, 104071, Note_on_c, 2, 70, 14
5, 104074, Pitch_bend_c, 2, 6572
5, 104096, Pitch_bend_c, 2, 2988
5, 104110, Note_on_c, 2, 70, 0
5, 105891, Note_on_c, 2, 57, 57
5, 105908, Pitch_bend_c, 2, 8192
5, 105910, Note_on_c, 2, 62, 40
5, 105925, Note_on_c, 2, 66, 46
5, 106116, Note_on_c, 2, 57, 0
5, 106121, Note_on_c, 2, 66, 0
5, 106126, Note_on_c, 2, 62, 0
5, 106608, Note_on_c, 2, 57, 40
5, 106838, Note_on_c, 2, 69, 24
5, 107045, Note_on_c, 2, 69, 0
5, 107055, Note_on_c, 2, 57, 0
5, 107055, Note_on_c, 2, 57, 50
5, 107063, Note_on_c, 2, 62, 75
5, 107071, Note_on_c, 2, 66, 81
5, 107081, Note_on_c, 2, 69, 33
5, 107191, Note_on_c, 2, 69, 0
5, 107235, Note_on_c, 2, 57, 0
5, 107241, Note_on_c, 2, 66, 0
5, 107245, Note_on_c, 2, 62, 0
5, 107811, Note_on_c, 2, 57, 57
5, 107830, Note_on_c, 2, 62, 40
5, 107845, Note_on_c, 2, 66, 46
5, 108036, Note_on_c, 2, 57, 0
5, 108041, Note_on_c, 2, 66, 0
5, 108046, Note_on_c, 2, 62, 0
5, 108528, Note_on_c, 2, 57, 40
5, 108758, Note_on_c, 2, 69, 24
5, 108965, Note_on_c, 2, 69, 0
5, 108975, Note_on_c, 2, 57, 0
5, 108975, Note_on_c, 2, 57, 50
5, 108983, Note_on_c, 2, 62, 75
5, 108991, Note_on_c, 2, 66, 81
5, 109001, Note_on_c, 2, 69, 33
5, 109111, Note_on_c, 2, 69, 0
5, 109155, Note_on_c, 2, 57, 0
5, 109161, Note_on_c, 2, 66, 0
5, 109165, Note_on_c, 2, 62, 0
5, 109751, Note_on_c, 2, 59, 95
5, 109754, Note_on_c, 2, 62, 104
5, 109756, Note_on_c, 2, 67, 101
5, 109759, Note_on_c, 2, 71, 86
5, 109999, Note_on_c, 2, 62, 0
5, 109999, Note_on_c, 2, 71, 0
5, 110000, Note_on_c, 2, 67, 0
5, 110026, Note_on_c, 2, 59, 0
5, 110405, Note_on_c, 2, 59, 49
5, 110416, Note_on_c, 2, 62, 86
5, 110420, Note_on_c, 2, 67, 89
5, 110470, Pitch_bend_c, 2, 9385
5, 110480, Pitch_bend_c, 2, 8192
5, 110654, Note_on_c, 2, 59, 0
5, 110655, Note_on_c, 2, 62, 0
5, 110679, Note_on_c, 2, 67, 0
5, 110888, Note_on_c, 2, 62, 78
5, 110893, Note_on_c, 2, 67, 107
5, 110898, Note_on_c, 2, 71, 86
5, 111180, Note_on_c, 2, 71, 0
5, 111195, Note_on_c, 2, 67, 0
5, 111211, Note_on_c, 2, 62, 0
5, 111839, Note_on_c, 2, 74, 64
5, 111935, Pitch_bend_c, 2, 8107
5, 111979, Pitch_bend_c, 2, 8192
5, 111996, Note_on_c, 2, 76, 104
5, 112005, Note_on_c, 2, 74, 0
5, 112155, Note_on_c, 2, 77, 115
5, 112175, Note_on_c, 2, 76, 0
5, 112310, Note_on_c, 2, 77, 0
5, 112325, Note_on_c, 2, 78, 107
5, 112704, Pitch_bend_c, 2, 8021
5, 112742, Note_on_c, 2, 78, 0
5, 113280, Note_on_c, 2, 52, 39
5, 113283, Note_on_c, 2, 57, 25
5, 113320, Note_on_c, 2, 52, 0
5, 113334, Note_on_c, 2, 57, 0
5, 113597, Note_on_c, 2, 69, 89
5, 113604, Note_on_c, 2, 66, 101
5, 113606, Note_on_c, 2, 61, 43
5, 113607, Note_on_c, 2, 64, 95
5, 113610, Pitch_bend_c, 2, 8192
5, 113612, Note_on_c, 2, 57, 39
5, 113629, Note_on_c, 2, 66, 0
5, 113816, Note_on_c, 2, 61, 0
5, 113840, Note_on_c, 2, 57, 0
5, 113898, Note_on_c, 2, 64, 0
5, 113901, Note_on_c, 2, 69, 0
5, 114080, Note_on_c, 2, 69, 62
5, 114086, Note_on_c, 2, 64, 8
5, 114221, Note_on_c, 2, 69, 0
5, 114235, Note_on_c, 2, 64, 0
5, 114235, Note_on_c, 2, 57, 35
5, 114240, Note_on_c, 2, 61, 51
5, 114245, Note_on_c, 2, 64, 78
5, 114246, Note_on_c, 2, 69, 62
5, 114460, Note_on_c, 2, 57, 0
5, 114460, Note_on_c, 2, 69, 0
5, 114465, Note_on_c, 2, 64, 0
5, 114495, Note_on_c, 2, 61, 0
5, 114720, Note_on_c, 2, 57, 67
5, 114725, Note_on_c, 2, 61, 95
5, 114726, Note_on_c, 2, 64, 101
5, 114728, Note_on_c, 2, 69, 89
5, 115021, Note_on_c, 2, 57, 0
5, 115030, Note_on_c, 2, 69, 0
5, 115045, Note_on_c, 2, 61, 0
5, 115052, Note_on_c, 2, 64, 0
5, 115504, Note_on_c, 2, 70, 62
5, 115510, Note_on_c, 2, 66, 95
5, 115514, Note_on_c, 2, 62, 60
5, 115519, Note_on_c, 2, 57, 32
5, 115539, Note_on_c, 2, 70, 0
5, 115708, Note_on_c, 2, 57, 0
5, 115735, Note_on_c, 2, 62, 0
5, 115749, Note_on_c, 2, 66, 0
5, 115997, Note_on_c, 2, 66, 19
5, 116074, Pitch_bend_c, 2, 8533
5, 116134, Pitch_bend_c, 2, 8192
5, 116151, Note_on_c, 2, 57, 18
5, 116155, Note_on_c, 2, 62, 60
5, 116159, Note_on_c, 2, 66, 0
5, 116159, Note_on_c, 2, 66, 101
5, 116169, Note_on_c, 2, 70, 20
5, 116193, Note_on_c, 2, 70, 0
5, 116386, Note_on_c, 2, 57, 0
5, 116390, Note_on_c, 2, 66, 0
5, 116395, Note_on_c, 2, 62, 0
5, 116636, Note_on_c, 2, 66, 89
5, 116640, Note_on_c, 2, 70, 47
5, 116660, Note_on_c, 2, 70, 0
5, 116950, Note_on_c, 2, 70, 35
5, 116972, Note_on_c, 2, 66, 0
5, 116974, Note_on_c, 2, 70, 0
5, 117086, Pitch_bend_c, 2, 7084
5, 117103, Pitch_bend_c, 2, 8192
5, 117109, Note_on_c, 2, 57, 16
5, 117115, Note_on_c, 2, 61, 66
5, 117148, Note_on_c, 2, 61, 0
5, 117159, Note_on_c, 2, 57, 0
5, 117429, Note_on_c, 2, 70, 74
5, 117437, Note_on_c, 2, 67, 78
5, 117444, Note_on_c, 2, 71, 56
5, 117474, Note_on_c, 2, 70, 0
5, 117525, Note_on_c, 2, 71, 0
5, 117905, Note_on_c, 2, 67, 0
5, 117910, Note_on_c, 2, 71, 71
5, 117915, Note_on_c, 2, 67, 66
5, 118069, Note_on_c, 2, 67, 0
5, 118072, Note_on_c, 2, 71, 0
5, 118401, Note_on_c, 2, 71, 74
5, 118406, Note_on_c, 2, 67, 54
5, 118529, Note_on_c, 2, 67, 0
5, 118531, Note_on_c, 2, 71, 0
5, 118560, Note_on_c, 2, 62, 115
5, 118564, Note_on_c, 2, 68, 101
5, 118565, Note_on_c, 2, 71, 101
5, 118570, Note_on_c, 2, 67, 95
5, 118585, Note_on_c, 2, 68, 0
5, 118779, Note_on_c, 2, 67, 0
5, 118795, Note_on_c, 2, 71, 0
5, 118861, Note_on_c, 2, 62, 0
5, 118875, Note_on_c, 2, 61, 69
5, 118886, Note_on_c, 2, 66, 20
5, 118890, Note_on_c, 2, 60, 51
5, 118890, Pitch_bend_c, 2, 4185
5, 118900, Note_on_c, 2, 59, 34
5, 118900, Pitch_bend_c, 2, 8192
5, 118920, Note_on_c, 2, 60, 0
5, 118925, Note_on_c, 2, 61, 0
5, 119040, Note_on_c, 2, 66, 0
5, 119041, Note_on_c, 2, 52, 32
5, 119050, Note_on_c, 2, 62, 25
5, 119053, Note_on_c, 2, 66, 38
5, 119078, Note_on_c, 2, 62, 0
5, 119125, Note_on_c, 2, 66, 0
5, 119164, Note_on_c, 2, 52, 0
5, 119260, Note_on_c, 2, 59, 0
5, 119354, Note_on_c, 2, 70, 59
5, 119359, Note_on_c, 2, 66, 89
5, 119362, Note_on_c, 2, 62, 16
5, 119375, Note_on_c, 2, 70, 0
5, 119500, Note_on_c, 2, 66, 0
5, 119506, Note_on_c, 2, 62, 0
5, 119516, Pitch_bend_c, 2, 7595
5, 119517, Note_on_c, 2, 62, 86
5, 119523, Note_on_c, 2, 66, 83
5, 119526, Pitch_bend_c, 2, 8192
5, 119639, Note_on_c, 2, 66, 0
5, 119659, Note_on_c, 2, 62, 0
5, 119834, Note_on_c, 2, 66, 78
5, 119870, Pitch_bend_c, 2, 8447
5, 120026, Pitch_bend_c, 2, 8533
5, 120077, Note_on_c, 2, 66, 0
5, 120303, Pitch_bend_c, 2, 9641
5, 120315, Note_on_c, 2, 66, 95
5, 120316, Pitch_bend_c, 2, 8192
5, 120320, Note_on_c, 2, 62, 86
5, 120324, Note_on_c, 2, 57, 88
5, 120485, Note_on_c, 2, 66, 101
5, 120493, Note_on_c, 2, 70, 47
5, 120510, Note_on_c, 2, 66, 0
5, 120544, Note_on_c, 2, 70, 0
5, 120591, Note_on_c, 2, 57, 0
5, 120620, Note_on_c, 2, 62, 0
5, 120628, Note_on_c, 2, 66, 0
5, 120797, Note_on_c, 2, 72, 50
5, 120802, Note_on_c, 2, 68, 54
5, 120840, Note_on_c, 2, 72, 0
5, 120960, Note_on_c, 2, 68, 0
5, 120961, Note_on_c, 2, 59, 74
5, 120964, Note_on_c, 2, 64, 104
5, 120966, Note_on_c, 2, 68, 101
5, 120970, Note_on_c, 2, 71, 47
5, 121185, Note_on_c, 2, 71, 0
5, 121186, Note_on_c, 2, 68, 0
5, 121192, Note_on_c, 2, 59, 0
5, 121201, Note_on_c, 2, 64, 0
5, 121435, Note_on_c, 2, 59, 35
5, 121440, Note_on_c, 2, 64, 60
5, 121441, Note_on_c, 2, 68, 83
5, 121696, Note_on_c, 2, 59, 0
5, 121701, Note_on_c, 2, 68, 0
5, 121725, Note_on_c, 2, 64, 0
5, 121750, Note_on_c, 2, 72, 23
5, 121770, Note_on_c, 2, 72, 0
5, 121920, Note_on_c, 2, 59, 60
5, 121924, Note_on_c, 2, 64, 104
5, 121926, Note_on_c, 2, 68, 101
5, 122136, Note_on_c, 2, 68, 0
5, 122142, Note_on_c, 2, 59, 0
5, 122175, Note_on_c, 2, 64, 0
5, 122400, Note_on_c, 2, 64, 51
5, 122405, Note_on_c, 2, 68, 107
5, 122592, Note_on_c, 2, 68, 0
5, 122615, Note_on_c, 2, 64, 0
5, 122731, Note_on_c, 2, 66, 47
5, 122810, Note_on_c, 2, 66, 0
5, 122896, Note_on_c, 2, 68, 54
5, 122900, Note_on_c, 2, 73, 53
5, 122916, Note_on_c, 2, 68, 0
5, 123119, Note_on_c, 2, 73, 0
5, 123200, Note_on_c, 2, 73, 83
5, 123205, Note_on_c, 2, 69, 78
5, 123450, Note_on_c, 2, 73, 0
5, 123505, Note_on_c, 2, 69, 0
5, 123677, Note_on_c, 2, 73, 68
5, 123680, Note_on_c, 2, 69, 31
5, 123820, Note_on_c, 2, 73, 0
5, 123839, Note_on_c, 2, 69, 0
5, 123839, Note_on_c, 2, 64, 115
5, 123840, Note_on_c, 2, 69, 113
5, 123841, Note_on_c, 2, 73, 95
5, 124065, Note_on_c, 2, 73, 0
5, 124072, Note_on_c, 2, 64, 0
5, 124090, Note_on_c, 2, 69, 0
5, 124150, Pitch_bend_c, 2, 10152
5, 124156, Note_on_c, 2, 72, 35
5, 124176, Note_on_c, 2, 72, 0
5, 124319, Note_on_c, 2, 69, 101
5, 124323, Note_on_c, 2, 73, 110
5, 124326, Pitch_bend_c, 2, 8192
5, 124590, Note_on_c, 2, 73, 0
5, 124626, Note_on_c, 2, 72, 71
5, 124632, Note_on_c, 2, 69, 0
5, 124637, Note_on_c, 2, 67, 48
5, 124640, Note_on_c, 2, 71, 62
5, 124647, Note_on_c, 2, 70, 59
5, 124652, Note_on_c, 2, 66, 31
5, 124655, Note_on_c, 2, 69, 44
5, 124660, Note_on_c, 2, 65, 31
5, 124665, Note_on_c, 2, 71, 0
5, 124670, Note_on_c, 2, 72, 0
5, 124670, Note_on_c, 2, 70, 0
5, 124679, Note_on_c, 2, 66, 0
5, 124686, Note_on_c, 2, 67, 0
5, 124700, Note_on_c, 2, 69, 0
5, 124705, Note_on_c, 2, 65, 0
5, 127019, Note_on_c, 2, 74, 95
5, 127019, Note_on_c, 2, 78, 86
5, 127019, Note_on_c, 2, 69, 95
5, 127241, Note_on_c, 2, 78, 0
5, 127245, Note_on_c, 2, 69, 0
5, 127248, Note_on_c, 2, 74, 0
5, 127475, Pitch_bend_c, 2, 7339
5, 127475, Note_on_c, 2, 78, 53
5, 127601, Pitch_bend_c, 2, 7425
5, 127675, Pitch_bend_c, 2, 8192
5, 127676, Note_on_c, 2, 69, 95
5, 127693, Note_on_c, 2, 78, 0
5, 127695, Note_on_c, 2, 78, 89
5, 127700, Note_on_c, 2, 74, 72
5, 128053, Note_on_c, 2, 69, 0
5, 128055, Note_on_c, 2, 68, 34
5, 128063, Note_on_c, 2, 74, 0
5, 128065, Note_on_c, 2, 73, 31
5, 128107, Note_on_c, 2, 73, 0
5, 128109, Note_on_c, 2, 72, 8
5, 128111, Note_on_c, 2, 68, 0
5, 128112, Note_on_c, 2, 67, 8
5, 128226, Note_on_c, 2, 72, 0
5, 128252, Note_on_c, 2, 67, 0
5, 128295, Note_on_c, 2, 78, 0
5, 130859, Note_on_c, 2, 74, 95
5, 130859, Note_on_c, 2, 69, 95
5, 130859, Note_on_c, 2, 78, 86
5, 131081, Note_on_c, 2, 78, 0
5, 131085, Note_on_c, 2, 69, 0
5, 131088, Note_on_c, 2, 74, 0
5, 131315, Note_on_c, 2, 78, 53
5, 131315, Pitch_bend_c, 2, 7339
5, 131441, Pitch_bend_c, 2, 7425
5, 131515, Pitch_bend_c, 2, 8192
5, 131516, Note_on_c, 2, 69, 95
5, 131533, Note_on_c, 2, 78, 0
5, 131535, Note_on_c, 2, 78, 89
5, 131540, Note_on_c, 2, 74, 72
5, 131893, Note_on_c, 2, 69, 0
5, 131895, Note_on_c, 2, 68, 34
5, 131903, Note_on_c, 2, 74, 0
5, 131905, Note_on_c, 2, 73, 31
5, 131947, Note_on_c, 2, 73, 0
5, 131949, Note_on_c, 2, 72, 8
5, 131951, Note_on_c, 2, 68, 0
5, 131952, Note_on_c, 2, 67, 8
5, 132066, Note_on_c, 2, 72, 0
5, 132092, Note_on_c, 2, 67, 0
5, 132135, Note_on_c, 2, 78, 0
5, 134680, Note_on_c, 2, 71, 60
5, 134681, Pitch_bend_c, 2, 8703
5, 134699, Pitch_bend_c, 2, 8192
5, 134700, Note_on_c, 2, 79, 98
5, 134706, Note_on_c, 2, 74, 8
5, 134920, Note_on_c, 2, 79, 0
5, 134940, Note_on_c, 2, 71, 0
5, 134960, Note_on_c, 2, 74, 0
5, 135144, Note_on_c, 2, 79, 86
5, 135180, Note_on_c, 2, 74, 72
5, 135312, Note_on_c, 2, 79, 0
5, 135327, Note_on_c, 2, 74, 0
5, 135369, Note_on_c, 2, 71, 25
5, 135391, Note_on_c, 2, 79, 104
5, 135437, Note_on_c, 2, 74, 8
5, 135719, Note_on_c, 2, 79, 0
5, 135720, Note_on_c, 2, 78, 65
5, 135785, Note_on_c, 2, 78, 0
5, 135785, Note_on_c, 2, 77, 47
5, 135807, Note_on_c, 2, 77, 0
5, 135826, Note_on_c, 2, 71, 0
5, 135846, Note_on_c, 2, 74, 0
5, 138549, Note_on_c, 2, 65, 87
5, 138557, Note_on_c, 2, 71, 79
5, 138565, Note_on_c, 2, 74, 76
5, 138572, Note_on_c, 2, 80, 64
5, 138740, Note_on_c, 2, 65, 0
5, 138754, Note_on_c, 2, 74, 0
5, 138755, Note_on_c, 2, 80, 0
5, 138758, Note_on_c, 2, 71, 0
5, 139014, Note_on_c, 2, 80, 58
5, 139041, Note_on_c, 2, 74, 29
5, 139060, Note_on_c, 2, 71, 61
5, 139075, Note_on_c, 2, 65, 52
5, 139165, Note_on_c, 2, 71, 0
5, 139166, Note_on_c, 2, 80, 0
5, 139167, Note_on_c, 2, 74, 0
5, 139219, Note_on_c, 2, 74, 82
5, 139223, Note_on_c, 2, 80, 37
5, 139225, Note_on_c, 2, 71, 79
5, 139573, Note_on_c, 2, 74, 0
5, 139576, Note_on_c, 2, 65, 0
5, 139583, Note_on_c, 2, 71, 0
5, 139591, Note_on_c, 2, 72, 18
5, 139615, Note_on_c, 2, 62, 24
5, 139624, Note_on_c, 2, 72, 0
5, 139635, Note_on_c, 2, 62, 0
5, 139635, Note_on_c, 2, 61, 17
5, 139676, Note_on_c, 2, 61, 0
5, 139679, Note_on_c, 2, 60, 10
5, 139701, Note_on_c, 2, 60, 0
5, 139703, Note_on_c, 2, 59, 7
5, 139723, Note_on_c, 2, 59, 0
5, 139806, Note_on_c, 2, 80, 0
5, 140480, Note_on_c, 2, 69, 104
5, 140480, Note_on_c, 2, 64, 95
5, 140481, Note_on_c, 2, 81, 71
5, 140481, Note_on_c, 2, 73, 101
5, 140483, Pitch_bend_c, 2, 8533
5, 140490, Pitch_bend_c, 2, 8192
5, 140663, Note_on_c, 2, 73, 0
5, 140680, Note_on_c, 2, 81, 0
5, 140691, Note_on_c, 2, 64, 0
5, 140706, Note_on_c, 2, 69, 0
5, 141120, Note_on_c, 2, 64, 74
5, 141120, Note_on_c, 2, 69, 113
5, 141121, Note_on_c, 2, 73, 107
5, 141121, Note_on_c, 2, 81, 89
5, 141289, Note_on_c, 2, 81, 0
5, 141291, Note_on_c, 2, 64, 0
5, 141295, Note_on_c, 2, 73, 0
5, 141305, Note_on_c, 2, 69, 0
5, 142396, Note_on_c, 2, 74, 101
5, 142396, Note_on_c, 2, 69, 104
5, 142397, Note_on_c, 2, 66, 95
5, 142545, Note_on_c, 2, 74, 0
5, 142563, Note_on_c, 2, 69, 0
5, 142573, Note_on_c, 2, 66, 0
5, 143037, Note_on_c, 2, 66, 91
5, 143039, Note_on_c, 2, 74, 101
5, 143039, Note_on_c, 2, 69, 113
5, 143290, Note_on_c, 2, 69, 0
5, 143308, Note_on_c, 2, 74, 0
5, 143328, Note_on_c, 2, 66, 0
5, 144960, Note_on_c, 2, 71, 93
5, 144975, Pitch_bend_c, 2, 8107
5, 145120, Note_on_c, 2, 72, 95
5, 145130, Note_on_c, 2, 71, 0
5, 145180, Pitch_bend_c, 2, 8192
5, 145280, Note_on_c, 2, 72, 0
5, 145280, Note_on_c, 2, 73, 86
5, 145420, Pitch_bend_c, 2, 8107
5, 145439, Note_on_c, 2, 73, 0
5, 145440, Note_on_c, 2, 76, 52
5, 145598, Note_on_c, 2, 76, 0
5, 145600, Note_on_c, 2, 78, 101
5, 145634, Pitch_bend_c, 2, 7339
5, 145755, Note_on_c, 2, 78, 0
5, 145760, Note_on_c, 2, 79, 104
5, 145920, Note_on_c, 2, 79, 0
5, 145955, Note_on_c, 2, 81, 95
5, 146155, Pitch_bend_c, 2, 4011
5, 146161, Note_on_c, 2, 81, 0
5, 146170, Note_on_c, 2, 78, 62
5, 146170, Pitch_bend_c, 2, 7936
5, 146180, Pitch_bend_c, 2, 5464
5, 146205, Note_on_c, 2, 78, 0
5, 146206, Note_on_c, 2, 76, 47
5, 146209, Pitch_bend_c, 2, 8107
5, 146218, Pitch_bend_c, 2, 7169
5, 146230, Pitch_bend_c, 2, 8107
5, 146244, Note_on_c, 2, 76, 0
5, 146245, Note_on_c, 2, 74, 41
5, 146258, Pitch_bend_c, 2, 4356
5, 146270, Pitch_bend_c, 2, 2817
5, 146283, Note_on_c, 2, 74, 0
5, 146284, Pitch_bend_c, 2, 3414
5, 146284, Note_on_c, 2, 72, 26
5, 146311, Note_on_c, 2, 72, 0
5, 146311, Note_on_c, 2, 70, 14
5, 146314, Pitch_bend_c, 2, 7766
5, 146325, Pitch_bend_c, 2, 6572
5, 146336, Pitch_bend_c, 2, 2988
5, 146350, Note_on_c, 2, 70, 0
5, 147864, Note_on_c, 2, 50, 115
5, 147915, Pitch_bend_c, 2, 9385
5, 148040, Note_on_c, 2, 50, 0
5, 148068, Pitch_bend_c, 2, 8788
5, 148632, Note_on_c, 2, 53, 115
5, 148686, Pitch_bend_c, 2, 9556
5, 148715, Pitch_bend_c, 2, 10920
5, 148779, Pitch_bend_c, 2, 11687
5, 148870, Pitch_bend_c, 2, 12028
5, 149025, Pitch_bend_c, 2, 12113
5, 149098, Note_on_c, 2, 53, 0
5, 149115, Note_on_c, 2, 57, 53
5, 149136, Pitch_bend_c, 2, 8788
5, 149249, Note_on_c, 2, 57, 0
5, 149280, Note_on_c, 2, 59, 115
5, 149484, Note_on_c, 2, 59, 0
5, 149602, Note_on_c, 2, 57, 101
5, 149760, Note_on_c, 2, 57, 0
5, 149784, Note_on_c, 2, 50, 115
5, 149835, Pitch_bend_c, 2, 9385
5, 149960, Note_on_c, 2, 50, 0
5, 149988, Pitch_bend_c, 2, 8788
5, 150552, Note_on_c, 2, 53, 115
5, 150606, Pitch_bend_c, 2, 9556
5, 150635, Pitch_bend_c, 2, 10920
5, 150699, Pitch_bend_c, 2, 11687
5, 150790, Pitch_bend_c, 2, 12028
5, 150945, Pitch_bend_c, 2, 12113
5, 151018, Note_on_c, 2, 53, 0
5, 151035, Note_on_c, 2, 57, 53
5, 151056, Pitch_bend_c, 2, 8788
5, 151169, Note_on_c, 2, 57, 0
5, 151200, Note_on_c, 2, 59, 115
5, 151404, Note_on_c, 2, 59, 0
5, 151522, Note_on_c, 2, 57, 101
5, 151680, Note_on_c, 2, 57, 0
5, 151704, Note_on_c, 2, 50, 115
5, 151755, Pitch_bend_c, 2, 9385
5, 151880, Note_on_c, 2, 50, 0
5, 151908, Pitch_bend_c, 2, 8788
5, 152472, Note_on_c, 2, 53, 115
5, 152526, Pitch_bend_c, 2, 9556
5, 152555, Pitch_bend_c, 2, 10920
5, 152619, Pitch_bend_c, 2, 11687
5, 152710, Pitch_bend_c, 2, 12028
5, 152865, Pitch_bend_c, 2, 12113
5, 152938, Note_on_c, 2, 53, 0
5, 152955, Note_on_c, 2, 57, 53
5, 152976, Pitch_bend_c, 2, 8788
5, 153089, Note_on_c, 2, 57, 0
5, 153120, Note_on_c, 2, 59, 115
5, 153324, Note_on_c, 2, 59, 0
5, 153442, Note_on_c, 2, 57, 101
5, 153600, Note_on_c, 2, 57, 0
5, 153624, Note_on_c, 2, 50, 115
5, 153675, Pitch_bend_c, 2, 9385
5, 153800, Note_on_c, 2, 50, 0
5, 153828, Pitch_bend_c, 2, 8788
5, 154392, Note_on_c, 2, 53, 115
5, 154446, Pitch_bend_c, 2, 9556
5, 154475, Pitch_bend_c, 2, 10920
5, 154539, Pitch_bend_c, 2, 11687
5, 154630, Pitch_bend_c, 2, 12028
5, 154785, Pitch_bend_c, 2, 12113
5, 154858, Note_on_c, 2, 53, 0
5, 154875, Note_on_c, 2, 57, 53
5, 154896, Pitch_bend_c, 2, 8788
5, 155009, Note_on_c, 2, 57, 0
5, 155040, Note_on_c, 2, 59, 115
5, 155244, Note_on_c, 2, 59, 0
5, 155362, Note_on_c, 2, 57, 101
5, 155520, Note_on_c, 2, 57, 0
5, 156480, Note_on_c, 2, 71, 93
5, 156495, Pitch_bend_c, 2, 8107
5, 156640, Note_on_c, 2, 72, 95
5, 156650, Note_on_c, 2, 71, 0
5, 156700, Pitch_bend_c, 2, 8192
5, 156800, Note_on_c, 2, 72, 0
5, 156800, Note_on_c, 2, 73, 86
5, 156940, Pitch_bend_c, 2, 8107
5, 156959, Note_on_c, 2, 73, 0
5, 156960, Note_on_c, 2, 76, 52
5, 157118, Note_on_c, 2, 76, 0
5, 157120, Note_on_c, 2, 78, 101
5, 157154, Pitch_bend_c, 2, 7339
5, 157275, Note_on_c, 2, 78, 0
5, 157280, Note_on_c, 2, 79, 104
5, 157440, Note_on_c, 2, 79, 0
5, 157475, Note_on_c, 2, 81, 95
5, 157675, Pitch_bend_c, 2, 7936
5, 157681, Note_on_c, 2, 81, 0
5, 157690, Note_on_c, 2, 78, 62
5, 157700, Pitch_bend_c, 2, 6828
5, 157714, Pitch_bend_c, 2, 5464
5, 157725, Note_on_c, 2, 78, 0
5, 157726, Note_on_c, 2, 76, 47
5, 157729, Pitch_bend_c, 2, 7169
5, 157750, Pitch_bend_c, 2, 5634
5, 157764, Note_on_c, 2, 76, 0
5, 157765, Pitch_bend_c, 2, 4356
5, 157765, Note_on_c, 2, 74, 41
5, 157790, Pitch_bend_c, 2, 2817
5, 157803, Note_on_c, 2, 74, 0
5, 157804, Note_on_c, 2, 72, 26
5, 157804, Pitch_bend_c, 2, 7680
5, 157816, Pitch_bend_c, 2, 3414
5, 157831, Note_on_c, 2, 72, 0
5, 157831, Note_on_c, 2, 70, 14
5, 157834, Pitch_bend_c, 2, 6572
5, 157856, Pitch_bend_c, 2, 2988
5, 157870, Note_on_c, 2, 70, 0
5, 161710, Note_on_c, 2, 58, 63
5, 161776, Pitch_bend_c, 2, 8192
5, 161779, Note_on_c, 2, 62, 60
5, 161850, Note_on_c, 2, 67, 66
5, 162015, Note_on_c, 2, 58, 0
5, 162045, Note_on_c, 2, 67, 0
5, 162045, Note_on_c, 2, 66, 13
5, 162074, Note_on_c, 2, 62, 0
5, 162086, Note_on_c, 2, 66, 0
5, 162146, Note_on_c, 2, 56, 56
5, 162175, Note_on_c, 2, 61, 25
5, 162176, Note_on_c, 2, 56, 0
5, 162180, Note_on_c, 2, 57, 53
5, 165305, Note_on_c, 2, 61, 0
5, 165385, Note_on_c, 2, 57, 0
5, 165385, MIDI_port, 0
5, 165385, MIDI_port, 0
5, 165385, MIDI_port, 0
5, 165385, MIDI_port, 0
5, 165385, MIDI_port, 0
5, 165385, MIDI_port, 0
5, 165385, MIDI_port, 0
5, 165385, MIDI_port, 0
5, 165385, MIDI_port, 0
5, 165385, MIDI_port, 0
5, 165385, MIDI_port, 0
5, 165385, MIDI_port, 0
5, 165385, MIDI_port, 0
5, 165385, MIDI_port, 0
5, 165385, MIDI_port, 0
5, 165385, MIDI_port, 0
5, 165385, MIDI_port, 0
5, 165385, MIDI_port, 0
5, 165385, MIDI_port, 0
5, 165385, End_track
6, 0, Start_track
6, 0, MIDI_port, 0
6, 548, Program_c, 3, 53
6, 552, Control_c, 3, 11, 127
6, 552, Control_c, 3, 10, 51
6, 552, Control_c, 3, 7, 110
6, 556, Control_c, 3, 91, 50
6, 556, Control_c, 3, 93, 50
6, 40320, Note_on_c, 3, 66, 114
6, 40320, Note_on_c, 3, 62, 117
6, 40320, Note_on_c, 3, 54, 83
6, 41766, Note_on_c, 3, 66, 0
6, 41768, Note_on_c, 3, 67, 73
6, 41774, Note_on_c, 3, 64, 98
6, 41776, Note_on_c, 3, 55, 78
6, 41852, Note_on_c, 3, 62, 0
6, 41875, Note_on_c, 3, 54, 0
6, 42226, Note_on_c, 3, 64, 0
6, 42240, Note_on_c, 3, 67, 0
6, 42240, Note_on_c, 3, 55, 0
6, 42241, Note_on_c, 3, 57, 96
6, 42314, Note_on_c, 3, 57, 0
6, 42549, Note_on_c, 3, 66, 119
6, 42549, Note_on_c, 3, 62, 117
6, 42549, Note_on_c, 3, 69, 119
6, 42559, Note_on_c, 3, 57, 119
6, 42662, Note_on_c, 3, 57, 0
6, 42700, Note_on_c, 3, 62, 0
6, 42704, Note_on_c, 3, 66, 0
6, 42735, Note_on_c, 3, 69, 0
6, 43191, Note_on_c, 3, 62, 119
6, 43191, Note_on_c, 3, 69, 119
6, 43191, Note_on_c, 3, 66, 119
6, 43197, Note_on_c, 3, 57, 119
6, 43495, Note_on_c, 3, 57, 0
6, 43549, Note_on_c, 3, 66, 0
6, 43554, Note_on_c, 3, 62, 0
6, 43560, Note_on_c, 3, 69, 0
6, 44151, Note_on_c, 3, 66, 104
6, 44151, Note_on_c, 3, 62, 97
6, 44160, Note_on_c, 3, 54, 60
6, 45431, Note_on_c, 3, 62, 0
6, 45436, Note_on_c, 3, 55, 106
6, 45439, Note_on_c, 3, 66, 0
6, 45446, Note_on_c, 3, 64, 109
6, 45452, Note_on_c, 3, 67, 86
6, 45464, Note_on_c, 3, 54, 0
6, 46080, Note_on_c, 3, 55, 0
6, 46080, Note_on_c, 3, 64, 0
6, 46080, Note_on_c, 3, 67, 0
6, 46379, Note_on_c, 3, 57, 119
6, 46395, Note_on_c, 3, 62, 114
6, 46395, Note_on_c, 3, 69, 119
6, 46396, Note_on_c, 3, 66, 119
6, 46598, Note_on_c, 3, 57, 0
6, 46652, Note_on_c, 3, 62, 0
6, 46665, Note_on_c, 3, 66, 0
6, 46695, Note_on_c, 3, 69, 0
6, 47027, Note_on_c, 3, 66, 119
6, 47029, Note_on_c, 3, 69, 114
6, 47029, Note_on_c, 3, 62, 119
6, 47031, Note_on_c, 3, 57, 119
6, 47443, Note_on_c, 3, 57, 0
6, 47454, Note_on_c, 3, 62, 0
6, 47484, Note_on_c, 3, 66, 0
6, 47495, Note_on_c, 3, 69, 0
6, 47992, Note_on_c, 3, 71, 119
6, 47992, Note_on_c, 3, 67, 119
6, 47997, Note_on_c, 3, 62, 119
6, 48496, Note_on_c, 3, 59, 62
6, 48560, Note_on_c, 3, 59, 0
6, 48960, Note_on_c, 3, 59, 79
6, 49055, Note_on_c, 3, 62, 0
6, 49407, Note_on_c, 3, 71, 0
6, 49434, Note_on_c, 3, 73, 84
6, 49439, Note_on_c, 3, 69, 102
6, 49443, Note_on_c, 3, 61, 106
6, 49443, Note_on_c, 3, 71, 65
6, 49479, Note_on_c, 3, 71, 0
6, 49494, Note_on_c, 3, 59, 0
6, 49521, Note_on_c, 3, 67, 0
6, 49579, Note_on_c, 3, 69, 0
6, 49588, Note_on_c, 3, 73, 0
6, 49675, Note_on_c, 3, 61, 0
6, 49740, Note_on_c, 3, 74, 109
6, 49741, Note_on_c, 3, 71, 117
6, 49745, Note_on_c, 3, 69, 73
6, 49746, Note_on_c, 3, 62, 119
6, 49892, Note_on_c, 3, 69, 0
6, 50055, Note_on_c, 3, 62, 0
6, 50084, Note_on_c, 3, 71, 0
6, 50085, Note_on_c, 3, 74, 0
6, 50229, Note_on_c, 3, 67, 114
6, 50229, Note_on_c, 3, 74, 114
6, 50229, Note_on_c, 3, 71, 119
6, 50239, Note_on_c, 3, 62, 119
6, 50438, Note_on_c, 3, 62, 0
6, 50450, Note_on_c, 3, 71, 0
6, 50451, Note_on_c, 3, 67, 0
6, 50474, Note_on_c, 3, 74, 0
6, 50881, Note_on_c, 3, 71, 119
6, 50881, Note_on_c, 3, 74, 119
6, 50881, Note_on_c, 3, 67, 119
6, 50885, Note_on_c, 3, 62, 119
6, 51293, Note_on_c, 3, 62, 0
6, 51345, Note_on_c, 3, 71, 0
6, 51347, Note_on_c, 3, 67, 0
6, 51350, Note_on_c, 3, 74, 0
6, 51831, Note_on_c, 3, 67, 119
6, 51831, Note_on_c, 3, 71, 119
6, 51836, Note_on_c, 3, 59, 109
6, 53194, Note_on_c, 3, 67, 0
6, 53219, Note_on_c, 3, 71, 0
6, 53269, Note_on_c, 3, 73, 72
6, 53270, Note_on_c, 3, 69, 117
6, 53270, Note_on_c, 3, 61, 117
6, 53305, Note_on_c, 3, 59, 0
6, 53679, Note_on_c, 3, 61, 0
6, 53683, Note_on_c, 3, 73, 0
6, 53699, Note_on_c, 3, 69, 0
6, 54056, Note_on_c, 3, 71, 114
6, 54058, Note_on_c, 3, 74, 102
6, 54062, Note_on_c, 3, 73, 83
6, 54064, Note_on_c, 3, 62, 119
6, 54246, Note_on_c, 3, 73, 0
6, 54390, Note_on_c, 3, 62, 0
6, 54394, Note_on_c, 3, 74, 0
6, 54456, Note_on_c, 3, 71, 0
6, 54705, Note_on_c, 3, 71, 119
6, 54705, Note_on_c, 3, 74, 119
6, 54711, Note_on_c, 3, 62, 119
6, 55295, Note_on_c, 3, 62, 0
6, 55310, Note_on_c, 3, 71, 0
6, 55340, Note_on_c, 3, 74, 0
6, 55674, Note_on_c, 3, 64, 114
6, 55674, Note_on_c, 3, 69, 117
6, 55674, Note_on_c, 3, 73, 119
6, 55681, Note_on_c, 3, 57, 119
6, 55751, Note_on_c, 3, 57, 0
6, 57115, Note_on_c, 3, 57, 90
6, 57117, Note_on_c, 3, 59, 80
6, 57149, Note_on_c, 3, 57, 0
6, 57149, Note_on_c, 3, 59, 0
6, 57535, Note_on_c, 3, 64, 0
6, 57555, Note_on_c, 3, 69, 0
6, 57574, Note_on_c, 3, 73, 0
6, 57605, Note_on_c, 3, 74, 89
6, 57606, Note_on_c, 3, 66, 119
6, 57606, Note_on_c, 3, 69, 119
6, 57610, Note_on_c, 3, 61, 96
6, 57610, Note_on_c, 3, 62, 84
6, 57675, Note_on_c, 3, 61, 0
6, 59300, Note_on_c, 3, 62, 0
6, 59371, Note_on_c, 3, 69, 0
6, 59380, Note_on_c, 3, 74, 0
6, 59382, Note_on_c, 3, 66, 0
6, 59516, Note_on_c, 3, 64, 119
6, 59516, Note_on_c, 3, 71, 119
6, 59516, Note_on_c, 3, 52, 96
6, 59517, Note_on_c, 3, 68, 119
6, 60464, Note_on_c, 3, 56, 108
6, 60949, Note_on_c, 3, 59, 112
6, 61340, Note_on_c, 3, 56, 0
6, 61373, Note_on_c, 3, 64, 0
6, 61374, Note_on_c, 3, 68, 0
6, 61379, Note_on_c, 3, 59, 0
6, 61384, Note_on_c, 3, 71, 0
6, 61390, Note_on_c, 3, 52, 0
6, 61444, Note_on_c, 3, 73, 109
6, 61445, Note_on_c, 3, 64, 109
6, 61445, Note_on_c, 3, 69, 114
6, 61448, Note_on_c, 3, 61, 109
6, 61448, Note_on_c, 3, 57, 109
6, 61915, Note_on_c, 3, 61, 0
6, 61920, Note_on_c, 3, 57, 0
6, 61930, Note_on_c, 3, 73, 0
6, 61935, Note_on_c, 3, 69, 0
6, 61936, Note_on_c, 3, 64, 0
6, 69434, Note_on_c, 3, 62, 47
6, 69470, Note_on_c, 3, 62, 0
6, 69595, Note_on_c, 3, 67, 117
6, 69595, Note_on_c, 3, 62, 102
6, 69595, Note_on_c, 3, 71, 109
6, 69909, Note_on_c, 3, 67, 0
6, 69912, Note_on_c, 3, 66, 83
6, 69914, Note_on_c, 3, 69, 80
6, 69927, Note_on_c, 3, 71, 0
6, 69980, Note_on_c, 3, 62, 0
6, 69994, Note_on_c, 3, 69, 0
6, 70008, Note_on_c, 3, 66, 0
6, 70075, Note_on_c, 3, 67, 114
6, 70076, Note_on_c, 3, 62, 96
6, 70076, Note_on_c, 3, 71, 119
6, 70081, Note_on_c, 3, 66, 68
6, 70115, Note_on_c, 3, 66, 0
6, 70324, Note_on_c, 3, 67, 0
6, 70359, Note_on_c, 3, 71, 0
6, 70394, Note_on_c, 3, 66, 106
6, 70395, Note_on_c, 3, 69, 96
6, 70575, Note_on_c, 3, 62, 0
6, 70591, Note_on_c, 3, 66, 0
6, 70591, Note_on_c, 3, 69, 0
6, 73275, Note_on_c, 3, 69, 70
6, 73276, Note_on_c, 3, 66, 70
6, 73279, Note_on_c, 3, 62, 58
6, 73350, Note_on_c, 3, 62, 0
6, 73356, Note_on_c, 3, 69, 0
6, 73358, Note_on_c, 3, 66, 0
6, 73434, Note_on_c, 3, 71, 89
6, 73435, Note_on_c, 3, 67, 100
6, 73436, Note_on_c, 3, 62, 79
6, 73740, Note_on_c, 3, 71, 0
6, 73750, Note_on_c, 3, 69, 63
6, 73754, Note_on_c, 3, 66, 68
6, 73760, Note_on_c, 3, 67, 0
6, 73815, Note_on_c, 3, 62, 0
6, 73830, Note_on_c, 3, 69, 0
6, 73840, Note_on_c, 3, 66, 0
6, 73914, Note_on_c, 3, 62, 94
6, 73914, Note_on_c, 3, 67, 109
6, 73915, Note_on_c, 3, 71, 112
6, 74219, Note_on_c, 3, 69, 72
6, 74221, Note_on_c, 3, 66, 76
6, 74225, Note_on_c, 3, 71, 0
6, 74249, Note_on_c, 3, 67, 0
6, 74280, Note_on_c, 3, 62, 0
6, 74330, Note_on_c, 3, 69, 0
6, 74350, Note_on_c, 3, 66, 0
6, 74397, Note_on_c, 3, 62, 100
6, 74399, Note_on_c, 3, 67, 119
6, 74400, Note_on_c, 3, 71, 98
6, 74401, Note_on_c, 3, 69, 96
6, 74525, Note_on_c, 3, 69, 0
6, 74581, Note_on_c, 3, 69, 72
6, 74678, Note_on_c, 3, 67, 0
6, 74705, Note_on_c, 3, 71, 0
6, 74705, Note_on_c, 3, 66, 73
6, 74855, Note_on_c, 3, 69, 0
6, 74880, Note_on_c, 3, 62, 0
6, 74880, Note_on_c, 3, 66, 0
6, 80944, Note_on_c, 3, 64, 119
6, 80944, Note_on_c, 3, 61, 119
6, 80945, Note_on_c, 3, 57, 119
6, 80950, Note_on_c, 3, 52, 104
6, 81174, Note_on_c, 3, 52, 0
6, 81211, Note_on_c, 3, 57, 0
6, 81214, Note_on_c, 3, 64, 0
6, 81215, Note_on_c, 3, 61, 0
6, 81427, Note_on_c, 3, 61, 100
6, 81429, Note_on_c, 3, 64, 92
6, 81429, Note_on_c, 3, 57, 102
6, 81430, Note_on_c, 3, 52, 98
6, 81491, Note_on_c, 3, 64, 0
6, 81498, Note_on_c, 3, 61, 0
6, 81503, Note_on_c, 3, 57, 0
6, 81505, Note_on_c, 3, 52, 0
6, 81594, Note_on_c, 3, 64, 119
6, 81595, Note_on_c, 3, 57, 119
6, 81595, Note_on_c, 3, 61, 119
6, 81601, Note_on_c, 3, 52, 119
6, 81961, Note_on_c, 3, 52, 0
6, 82022, Note_on_c, 3, 57, 0
6, 82022, Note_on_c, 3, 61, 0
6, 82030, Note_on_c, 3, 64, 0
6, 82076, Note_on_c, 3, 64, 98
6, 82080, Note_on_c, 3, 57, 119
6, 82080, Note_on_c, 3, 61, 117
6, 82080, Note_on_c, 3, 52, 90
6, 82370, Note_on_c, 3, 52, 0
6, 82371, Note_on_c, 3, 61, 0
6, 82380, Note_on_c, 3, 64, 0
6, 82380, Note_on_c, 3, 57, 0
6, 82560, Note_on_c, 3, 62, 117
6, 82560, Note_on_c, 3, 66, 114
6, 82560, Note_on_c, 3, 54, 83
6, 84006, Note_on_c, 3, 66, 0
6, 84008, Note_on_c, 3, 67, 73
6, 84014, Note_on_c, 3, 64, 98
6, 84016, Note_on_c, 3, 55, 78
6, 84092, Note_on_c, 3, 62, 0
6, 84115, Note_on_c, 3, 54, 0
6, 84466, Note_on_c, 3, 64, 0
6, 84480, Note_on_c, 3, 67, 0
6, 84480, Note_on_c, 3, 55, 0
6, 84481, Note_on_c, 3, 57, 96
6, 84554, Note_on_c, 3, 57, 0
6, 84789, Note_on_c, 3, 69, 119
6, 84789, Note_on_c, 3, 66, 119
6, 84789, Note_on_c, 3, 62, 117
6, 84799, Note_on_c, 3, 57, 119
6, 84902, Note_on_c, 3, 57, 0
6, 84940, Note_on_c, 3, 62, 0
6, 84944, Note_on_c, 3, 66, 0
6, 84975, Note_on_c, 3, 69, 0
6, 85431, Note_on_c, 3, 69, 119
6, 85431, Note_on_c, 3, 62, 119
6, 85431, Note_on_c, 3, 66, 119
6, 85437, Note_on_c, 3, 57, 119
6, 85735, Note_on_c, 3, 57, 0
6, 85789, Note_on_c, 3, 66, 0
6, 85794, Note_on_c, 3, 62, 0
6, 85800, Note_on_c, 3, 69, 0
6, 86391, Note_on_c, 3, 66, 104
6, 86391, Note_on_c, 3, 62, 97
6, 86400, Note_on_c, 3, 54, 60
6, 87671, Note_on_c, 3, 62, 0
6, 87676, Note_on_c, 3, 55, 106
6, 87679, Note_on_c, 3, 66, 0
6, 87686, Note_on_c, 3, 64, 109
6, 87692, Note_on_c, 3, 67, 86
6, 87704, Note_on_c, 3, 54, 0
6, 88320, Note_on_c, 3, 55, 0
6, 88320, Note_on_c, 3, 64, 0
6, 88320, Note_on_c, 3, 67, 0
6, 88619, Note_on_c, 3, 57, 119
6, 88635, Note_on_c, 3, 62, 114
6, 88635, Note_on_c, 3, 69, 119
6, 88636, Note_on_c, 3, 66, 119
6, 88838, Note_on_c, 3, 57, 0
6, 88892, Note_on_c, 3, 62, 0
6, 88905, Note_on_c, 3, 66, 0
6, 88935, Note_on_c, 3, 69, 0
6, 89267, Note_on_c, 3, 66, 119
6, 89269, Note_on_c, 3, 69, 114
6, 89269, Note_on_c, 3, 62, 119
6, 89271, Note_on_c, 3, 57, 119
6, 89683, Note_on_c, 3, 57, 0
6, 89694, Note_on_c, 3, 62, 0
6, 89724, Note_on_c, 3, 66, 0
6, 89735, Note_on_c, 3, 69, 0
6, 90232, Note_on_c, 3, 67, 119
6, 90232, Note_on_c, 3, 71, 119
6, 90237, Note_on_c, 3, 62, 119
6, 90736, Note_on_c, 3, 59, 62
6, 90800, Note_on_c, 3, 59, 0
6, 91200, Note_on_c, 3, 59, 79
6, 91295, Note_on_c, 3, 62, 0
6, 91647, Note_on_c, 3, 71, 0
6, 91674, Note_on_c, 3, 73, 84
6, 91679, Note_on_c, 3, 69, 102
6, 91683, Note_on_c, 3, 61, 106
6, 91683, Note_on_c, 3, 71, 65
6, 91719, Note_on_c, 3, 71, 0
6, 91734, Note_on_c, 3, 59, 0
6, 91761, Note_on_c, 3, 67, 0
6, 91819, Note_on_c, 3, 69, 0
6, 91828, Note_on_c, 3, 73, 0
6, 91915, Note_on_c, 3, 61, 0
6, 91980, Note_on_c, 3, 74, 109
6, 91981, Note_on_c, 3, 71, 117
6, 91985, Note_on_c, 3, 69, 73
6, 91986, Note_on_c, 3, 62, 119
6, 92132, Note_on_c, 3, 69, 0
6, 92295, Note_on_c, 3, 62, 0
6, 92324, Note_on_c, 3, 71, 0
6, 92325, Note_on_c, 3, 74, 0
6, 92469, Note_on_c, 3, 71, 119
6, 92469, Note_on_c, 3, 74, 114
6, 92469, Note_on_c, 3, 67, 114
6, 92479, Note_on_c, 3, 62, 119
6, 92678, Note_on_c, 3, 62, 0
6, 92690, Note_on_c, 3, 71, 0
6, 92691, Note_on_c, 3, 67, 0
6, 92714, Note_on_c, 3, 74, 0
6, 93121, Note_on_c, 3, 67, 119
6, 93121, Note_on_c, 3, 74, 119
6, 93121, Note_on_c, 3, 71, 119
6, 93125, Note_on_c, 3, 62, 119
6, 93533, Note_on_c, 3, 62, 0
6, 93585, Note_on_c, 3, 71, 0
6, 93587, Note_on_c, 3, 67, 0
6, 93590, Note_on_c, 3, 74, 0
6, 94071, Note_on_c, 3, 71, 119
6, 94071, Note_on_c, 3, 67, 119
6, 94076, Note_on_c, 3, 59, 109
6, 95434, Note_on_c, 3, 67, 0
6, 95459, Note_on_c, 3, 71, 0
6, 95509, Note_on_c, 3, 73, 72
6, 95510, Note_on_c, 3, 69, 117
6, 95510, Note_on_c, 3, 61, 117
6, 95545, Note_on_c, 3, 59, 0
6, 95919, Note_on_c, 3, 61, 0
6, 95923, Note_on_c, 3, 73, 0
6, 95939, Note_on_c, 3, 69, 0
6, 96296, Note_on_c, 3, 71, 114
6, 96298, Note_on_c, 3, 74, 102
6, 96302, Note_on_c, 3, 73, 83
6, 96304, Note_on_c, 3, 62, 119
6, 96486, Note_on_c, 3, 73, 0
6, 96630, Note_on_c, 3, 62, 0
6, 96634, Note_on_c, 3, 74, 0
6, 96696, Note_on_c, 3, 71, 0
6, 96945, Note_on_c, 3, 71, 119
6, 96945, Note_on_c, 3, 74, 119
6, 96951, Note_on_c, 3, 62, 119
6, 97535, Note_on_c, 3, 62, 0
6, 97550, Note_on_c, 3, 71, 0
6, 97580, Note_on_c, 3, 74, 0
6, 97914, Note_on_c, 3, 69, 117
6, 97914, Note_on_c, 3, 64, 114
6, 97914, Note_on_c, 3, 73, 119
6, 97921, Note_on_c, 3, 57, 119
6, 97991, Note_on_c, 3, 57, 0
6, 99355, Note_on_c, 3, 57, 90
6, 99357, Note_on_c, 3, 59, 80
6, 99389, Note_on_c, 3, 57, 0
6, 99389, Note_on_c, 3, 59, 0
6, 99775, Note_on_c, 3, 64, 0
6, 99795, Note_on_c, 3, 69, 0
6, 99814, Note_on_c, 3, 73, 0
6, 99845, Note_on_c, 3, 74, 89
6, 99846, Note_on_c, 3, 66, 119
6, 99846, Note_on_c, 3, 69, 119
6, 99850, Note_on_c, 3, 61, 96
6, 99850, Note_on_c, 3, 62, 84
6, 99915, Note_on_c, 3, 61, 0
6, 101540, Note_on_c, 3, 62, 0
6, 101611, Note_on_c, 3, 69, 0
6, 101620, Note_on_c, 3, 74, 0
6, 101622, Note_on_c, 3, 66, 0
6, 101756, Note_on_c, 3, 64, 119
6, 101756, Note_on_c, 3, 71, 119
6, 101756, Note_on_c, 3, 52, 96
6, 101757, Note_on_c, 3, 68, 119
6, 102704, Note_on_c, 3, 56, 108
6, 103189, Note_on_c, 3, 59, 112
6, 103580, Note_on_c, 3, 56, 0
6, 103613, Note_on_c, 3, 64, 0
6, 103614, Note_on_c, 3, 68, 0
6, 103619, Note_on_c, 3, 59, 0
6, 103624, Note_on_c, 3, 71, 0
6, 103630, Note_on_c, 3, 52, 0
6, 103684, Note_on_c, 3, 73, 109
6, 103685, Note_on_c, 3, 64, 109
6, 103685, Note_on_c, 3, 69, 114
6, 103688, Note_on_c, 3, 57, 109
6, 103688, Note_on_c, 3, 61, 109
6, 104155, Note_on_c, 3, 61, 0
6, 104160, Note_on_c, 3, 57, 0
6, 104170, Note_on_c, 3, 73, 0
6, 104175, Note_on_c, 3, 69, 0
6, 104176, Note_on_c, 3, 64, 0
6, 111674, Note_on_c, 3, 62, 47
6, 111710, Note_on_c, 3, 62, 0
6, 111835, Note_on_c, 3, 67, 117
6, 111835, Note_on_c, 3, 71, 109
6, 111835, Note_on_c, 3, 62, 102
6, 112149, Note_on_c, 3, 67, 0
6, 112152, Note_on_c, 3, 66, 83
6, 112154, Note_on_c, 3, 69, 80
6, 112167, Note_on_c, 3, 71, 0
6, 112220, Note_on_c, 3, 62, 0
6, 112234, Note_on_c, 3, 69, 0
6, 112248, Note_on_c, 3, 66, 0
6, 112315, Note_on_c, 3, 67, 114
6, 112316, Note_on_c, 3, 62, 96
6, 112316, Note_on_c, 3, 71, 119
6, 112321, Note_on_c, 3, 66, 68
6, 112355, Note_on_c, 3, 66, 0
6, 112564, Note_on_c, 3, 67, 0
6, 112599, Note_on_c, 3, 71, 0
6, 112634, Note_on_c, 3, 66, 106
6, 112635, Note_on_c, 3, 69, 96
6, 112815, Note_on_c, 3, 62, 0
6, 112831, Note_on_c, 3, 66, 0
6, 112831, Note_on_c, 3, 69, 0
6, 115515, Note_on_c, 3, 69, 70
6, 115516, Note_on_c, 3, 66, 70
6, 115519, Note_on_c, 3, 62, 58
6, 115590, Note_on_c, 3, 62, 0
6, 115596, Note_on_c, 3, 69, 0
6, 115598, Note_on_c, 3, 66, 0
6, 115674, Note_on_c, 3, 71, 89
6, 115675, Note_on_c, 3, 67, 100
6, 115676, Note_on_c, 3, 62, 79
6, 115980, Note_on_c, 3, 71, 0
6, 115990, Note_on_c, 3, 69, 63
6, 115994, Note_on_c, 3, 66, 68
6, 116000, Note_on_c, 3, 67, 0
6, 116055, Note_on_c, 3, 62, 0
6, 116070, Note_on_c, 3, 69, 0
6, 116080, Note_on_c, 3, 66, 0
6, 116154, Note_on_c, 3, 62, 94
6, 116154, Note_on_c, 3, 67, 109
6, 116155, Note_on_c, 3, 71, 112
6, 116459, Note_on_c, 3, 69, 72
6, 116461, Note_on_c, 3, 66, 76
6, 116465, Note_on_c, 3, 71, 0
6, 116489, Note_on_c, 3, 67, 0
6, 116520, Note_on_c, 3, 62, 0
6, 116570, Note_on_c, 3, 69, 0
6, 116590, Note_on_c, 3, 66, 0
6, 116637, Note_on_c, 3, 62, 100
6, 116639, Note_on_c, 3, 67, 119
6, 116640, Note_on_c, 3, 71, 98
6, 116641, Note_on_c, 3, 69, 96
6, 116765, Note_on_c, 3, 69, 0
6, 116821, Note_on_c, 3, 69, 72
6, 116918, Note_on_c, 3, 67, 0
6, 116945, Note_on_c, 3, 71, 0
6, 116945, Note_on_c, 3, 66, 73
6, 117095, Note_on_c, 3, 69, 0
6, 117120, Note_on_c, 3, 62, 0
6, 117120, Note_on_c, 3, 66, 0
6, 123184, Note_on_c, 3, 64, 119
6, 123184, Note_on_c, 3, 61, 119
6, 123185, Note_on_c, 3, 57, 119
6, 123190, Note_on_c, 3, 52, 104
6, 123414, Note_on_c, 3, 52, 0
6, 123451, Note_on_c, 3, 57, 0
6, 123454, Note_on_c, 3, 64, 0
6, 123455, Note_on_c, 3, 61, 0
6, 123667, Note_on_c, 3, 61, 100
6, 123669, Note_on_c, 3, 57, 102
6, 123669, Note_on_c, 3, 64, 92
6, 123670, Note_on_c, 3, 52, 98
6, 123731, Note_on_c, 3, 64, 0
6, 123738, Note_on_c, 3, 61, 0
6, 123743, Note_on_c, 3, 57, 0
6, 123745, Note_on_c, 3, 52, 0
6, 123834, Note_on_c, 3, 64, 119
6, 123835, Note_on_c, 3, 57, 119
6, 123835, Note_on_c, 3, 61, 119
6, 123841, Note_on_c, 3, 52, 119
6, 124201, Note_on_c, 3, 52, 0
6, 124262, Note_on_c, 3, 57, 0
6, 124262, Note_on_c, 3, 61, 0
6, 124270, Note_on_c, 3, 64, 0
6, 124316, Note_on_c, 3, 64, 98
6, 124320, Note_on_c, 3, 61, 117
6, 124320, Note_on_c, 3, 52, 90
6, 124320, Note_on_c, 3, 57, 119
6, 124610, Note_on_c, 3, 52, 0
6, 124611, Note_on_c, 3, 61, 0
6, 124620, Note_on_c, 3, 64, 0
6, 124620, Note_on_c, 3, 57, 0
6, 124800, Note_on_c, 3, 54, 83
6, 124800, Note_on_c, 3, 62, 117
6, 124800, Note_on_c, 3, 66, 114
6, 126246, Note_on_c, 3, 66, 0
6, 126248, Note_on_c, 3, 67, 73
6, 126254, Note_on_c, 3, 64, 98
6, 126256, Note_on_c, 3, 55, 78
6, 126332, Note_on_c, 3, 62, 0
6, 126355, Note_on_c, 3, 54, 0
6, 126706, Note_on_c, 3, 64, 0
6, 126720, Note_on_c, 3, 67, 0
6, 126720, Note_on_c, 3, 55, 0
6, 126721, Note_on_c, 3, 57, 96
6, 126794, Note_on_c, 3, 57, 0
6, 127029, Note_on_c, 3, 69, 119
6, 127029, Note_on_c, 3, 66, 119
6, 127029, Note_on_c, 3, 62, 117
6, 127039, Note_on_c, 3, 57, 119
6, 127142, Note_on_c, 3, 57, 0
6, 127180, Note_on_c, 3, 62, 0
6, 127184, Note_on_c, 3, 66, 0
6, 127215, Note_on_c, 3, 69, 0
6, 127671, Note_on_c, 3, 69, 119
6, 127671, Note_on_c, 3, 66, 119
6, 127671, Note_on_c, 3, 62, 119
6, 127677, Note_on_c, 3, 57, 119
6, 127975, Note_on_c, 3, 57, 0
6, 128029, Note_on_c, 3, 66, 0
6, 128034, Note_on_c, 3, 62, 0
6, 128040, Note_on_c, 3, 69, 0
6, 128631, Note_on_c, 3, 66, 104
6, 128631, Note_on_c, 3, 62, 97
6, 128640, Note_on_c, 3, 54, 60
6, 129911, Note_on_c, 3, 62, 0
6, 129916, Note_on_c, 3, 55, 106
6, 129919, Note_on_c, 3, 66, 0
6, 129926, Note_on_c, 3, 64, 109
6, 129932, Note_on_c, 3, 67, 86
6, 129944, Note_on_c, 3, 54, 0
6, 130560, Note_on_c, 3, 55, 0
6, 130560, Note_on_c, 3, 64, 0
6, 130560, Note_on_c, 3, 67, 0
6, 130859, Note_on_c, 3, 57, 119
6, 130875, Note_on_c, 3, 62, 114
6, 130875, Note_on_c, 3, 69, 119
6, 130876, Note_on_c, 3, 66, 119
6, 131078, Note_on_c, 3, 57, 0
6, 131132, Note_on_c, 3, 62, 0
6, 131145, Note_on_c, 3, 66, 0
6, 131175, Note_on_c, 3, 69, 0
6, 131507, Note_on_c, 3, 66, 119
6, 131509, Note_on_c, 3, 69, 114
6, 131509, Note_on_c, 3, 62, 119
6, 131511, Note_on_c, 3, 57, 119
6, 131923, Note_on_c, 3, 57, 0
6, 131934, Note_on_c, 3, 62, 0
6, 131964, Note_on_c, 3, 66, 0
6, 131975, Note_on_c, 3, 69, 0
6, 132472, Note_on_c, 3, 67, 119
6, 132472, Note_on_c, 3, 71, 119
6, 132477, Note_on_c, 3, 62, 119
6, 132976, Note_on_c, 3, 59, 62
6, 133040, Note_on_c, 3, 59, 0
6, 133440, Note_on_c, 3, 59, 79
6, 133535, Note_on_c, 3, 62, 0
6, 133887, Note_on_c, 3, 71, 0
6, 133914, Note_on_c, 3, 73, 84
6, 133919, Note_on_c, 3, 69, 102
6, 133923, Note_on_c, 3, 71, 65
6, 133923, Note_on_c, 3, 61, 106
6, 133959, Note_on_c, 3, 71, 0
6, 133974, Note_on_c, 3, 59, 0
6, 134001, Note_on_c, 3, 67, 0
6, 134059, Note_on_c, 3, 69, 0
6, 134068, Note_on_c, 3, 73, 0
6, 134155, Note_on_c, 3, 61, 0
6, 134220, Note_on_c, 3, 74, 109
6, 134221, Note_on_c, 3, 71, 117
6, 134225, Note_on_c, 3, 69, 73
6, 134226, Note_on_c, 3, 62, 119
6, 134372, Note_on_c, 3, 69, 0
6, 134535, Note_on_c, 3, 62, 0
6, 134564, Note_on_c, 3, 71, 0
6, 134565, Note_on_c, 3, 74, 0
6, 134709, Note_on_c, 3, 67, 114
6, 134709, Note_on_c, 3, 71, 119
6, 134709, Note_on_c, 3, 74, 114
6, 134719, Note_on_c, 3, 62, 119
6, 134918, Note_on_c, 3, 62, 0
6, 134930, Note_on_c, 3, 71, 0
6, 134931, Note_on_c, 3, 67, 0
6, 134954, Note_on_c, 3, 74, 0
6, 135361, Note_on_c, 3, 67, 119
6, 135361, Note_on_c, 3, 71, 119
6, 135361, Note_on_c, 3, 74, 119
6, 135365, Note_on_c, 3, 62, 119
6, 135773, Note_on_c, 3, 62, 0
6, 135825, Note_on_c, 3, 71, 0
6, 135827, Note_on_c, 3, 67, 0
6, 135830, Note_on_c, 3, 74, 0
6, 136311, Note_on_c, 3, 71, 119
6, 136311, Note_on_c, 3, 67, 119
6, 136316, Note_on_c, 3, 59, 109
6, 137674, Note_on_c, 3, 67, 0
6, 137699, Note_on_c, 3, 71, 0
6, 137749, Note_on_c, 3, 73, 72
6, 137750, Note_on_c, 3, 69, 117
6, 137750, Note_on_c, 3, 61, 117
6, 137785, Note_on_c, 3, 59, 0
6, 138159, Note_on_c, 3, 61, 0
6, 138163, Note_on_c, 3, 73, 0
6, 138179, Note_on_c, 3, 69, 0
6, 138536, Note_on_c, 3, 71, 114
6, 138538, Note_on_c, 3, 74, 102
6, 138542, Note_on_c, 3, 73, 83
6, 138544, Note_on_c, 3, 62, 119
6, 138726, Note_on_c, 3, 73, 0
6, 138870, Note_on_c, 3, 62, 0
6, 138874, Note_on_c, 3, 74, 0
6, 138936, Note_on_c, 3, 71, 0
6, 139185, Note_on_c, 3, 74, 119
6, 139185, Note_on_c, 3, 71, 119
6, 139191, Note_on_c, 3, 62, 119
6, 139775, Note_on_c, 3, 62, 0
6, 139790, Note_on_c, 3, 71, 0
6, 139820, Note_on_c, 3, 74, 0
6, 140154, Note_on_c, 3, 64, 114
6, 140154, Note_on_c, 3, 69, 117
6, 140154, Note_on_c, 3, 73, 119
6, 140161, Note_on_c, 3, 57, 119
6, 140231, Note_on_c, 3, 57, 0
6, 141595, Note_on_c, 3, 57, 90
6, 141597, Note_on_c, 3, 59, 80
6, 141629, Note_on_c, 3, 57, 0
6, 141629, Note_on_c, 3, 59, 0
6, 142015, Note_on_c, 3, 64, 0
6, 142035, Note_on_c, 3, 69, 0
6, 142054, Note_on_c, 3, 73, 0
6, 142085, Note_on_c, 3, 74, 89
6, 142086, Note_on_c, 3, 69, 119
6, 142086, Note_on_c, 3, 66, 119
6, 142090, Note_on_c, 3, 61, 96
6, 142090, Note_on_c, 3, 62, 84
6, 142155, Note_on_c, 3, 61, 0
6, 143780, Note_on_c, 3, 62, 0
6, 143851, Note_on_c, 3, 69, 0
6, 143860, Note_on_c, 3, 74, 0
6, 143862, Note_on_c, 3, 66, 0
6, 143996, Note_on_c, 3, 64, 119
6, 143996, Note_on_c, 3, 52, 96
6, 143996, Note_on_c, 3, 71, 119
6, 143997, Note_on_c, 3, 68, 119
6, 144944, Note_on_c, 3, 56, 108
6, 145429, Note_on_c, 3, 59, 112
6, 145820, Note_on_c, 3, 56, 0
6, 145853, Note_on_c, 3, 64, 0
6, 145854, Note_on_c, 3, 68, 0
6, 145859, Note_on_c, 3, 59, 0
6, 145864, Note_on_c, 3, 71, 0
6, 145870, Note_on_c, 3, 52, 0
6, 145924, Note_on_c, 3, 73, 109
6, 145925, Note_on_c, 3, 69, 114
6, 145925, Note_on_c, 3, 64, 109
6, 145928, Note_on_c, 3, 57, 109
6, 145928, Note_on_c, 3, 61, 109
6, 146395, Note_on_c, 3, 61, 0
6, 146400, Note_on_c, 3, 57, 0
6, 146410, Note_on_c, 3, 73, 0
6, 146415, Note_on_c, 3, 69, 0
6, 146416, Note_on_c, 3, 64, 0
6, 155520, Note_on_c, 3, 68, 119
6, 155520, Note_on_c, 3, 64, 104
6, 155520, Note_on_c, 3, 71, 109
6, 155521, Note_on_c, 3, 56, 119
6, 157348, Note_on_c, 3, 71, 0
6, 157355, Note_on_c, 3, 68, 0
6, 157364, Note_on_c, 3, 64, 0
6, 157400, Note_on_c, 3, 56, 0
6, 157450, Note_on_c, 3, 69, 102
6, 157451, Note_on_c, 3, 73, 89
6, 157451, Note_on_c, 3, 67, 119
6, 157451, Note_on_c, 3, 61, 114
6, 157454, Note_on_c, 3, 64, 106
6, 157454, Note_on_c, 3, 57, 102
6, 157455, Note_on_c, 3, 71, 92
6, 157542, Note_on_c, 3, 71, 0
6, 157586, Note_on_c, 3, 67, 0
6, 159300, Note_on_c, 3, 64, 0
6, 159311, Note_on_c, 3, 69, 0
6, 159312, Note_on_c, 3, 73, 0
6, 159316, Note_on_c, 3, 61, 0
6, 159327, Note_on_c, 3, 57, 0
6, 159360, Note_on_c, 3, 62, 100
6, 159360, Note_on_c, 3, 57, 96
6, 159827, Note_on_c, 3, 59, 100
6, 159836, Note_on_c, 3, 54, 94
6, 159859, Note_on_c, 3, 57, 0
6, 159866, Note_on_c, 3, 62, 0
6, 160286, Note_on_c, 3, 54, 0
6, 160309, Note_on_c, 3, 57, 119
6, 160311, Note_on_c, 3, 52, 96
6, 160358, Note_on_c, 3, 59, 0
6, 160775, Note_on_c, 3, 52, 0
6, 160777, Note_on_c, 3, 50, 75
6, 160780, Note_on_c, 3, 54, 82
6, 160782, Note_on_c, 3, 57, 0
6, 161250, Note_on_c, 3, 50, 0
6, 161266, Note_on_c, 3, 50, 86
6, 161277, Note_on_c, 3, 45, 88
6, 161279, Note_on_c, 3, 54, 0
6, 165110, Note_on_c, 3, 50, 0
6, 165120, Note_on_c, 3, 45, 0
6, 165120, End_track
7, 0, Start_track
7, 0, MIDI_port, 0
7, 568, Program_c, 4, 25
7, 572, Control_c, 4, 7, 93
7, 572, Control_c, 4, 10, 79
7, 572, Control_c, 4, 11, 127
7, 576, Control_c, 4, 93, 35
7, 576, Control_c, 4, 91, 30
7, 5765, Note_on_c, 4, 50, 112
7, 5765, Note_on_c, 4, 54, 109
7, 5768, Note_on_c, 4, 62, 110
7, 5768, Note_on_c, 4, 57, 112
7, 5769, Note_on_c, 4, 66, 74
7, 5774, Note_on_c, 4, 45, 69
7, 5790, Pitch_bend_c, 4, 8192
7, 6065, Note_on_c, 4, 66, 0
7, 6084, Note_on_c, 4, 66, 62
7, 6215, Note_on_c, 4, 66, 0
7, 6240, Note_on_c, 4, 54, 0
7, 6245, Note_on_c, 4, 54, 102
7, 6250, Note_on_c, 4, 66, 74
7, 6250, Note_on_c, 4, 62, 110
7, 6254, Note_on_c, 4, 62, 0
7, 6273, Note_on_c, 4, 66, 0
7, 6296, Note_on_c, 4, 62, 0
7, 6335, Note_on_c, 4, 50, 0
7, 6345, Note_on_c, 4, 45, 0
7, 6388, Note_on_c, 4, 61, 63
7, 6408, Note_on_c, 4, 62, 40
7, 6488, Note_on_c, 4, 61, 0
7, 6554, Note_on_c, 4, 54, 0
7, 6555, Note_on_c, 4, 57, 0
7, 6556, Note_on_c, 4, 66, 35
7, 6560, Note_on_c, 4, 57, 92
7, 6562, Note_on_c, 4, 54, 67
7, 6566, Note_on_c, 4, 50, 45
7, 6574, Note_on_c, 4, 45, 7
7, 6618, Note_on_c, 4, 66, 0
7, 6690, Note_on_c, 4, 54, 0
7, 6712, Note_on_c, 4, 62, 0
7, 6716, Note_on_c, 4, 55, 74
7, 6723, Note_on_c, 4, 54, 74
7, 6725, Note_on_c, 4, 62, 98
7, 6729, Note_on_c, 4, 66, 62
7, 6745, Note_on_c, 4, 55, 0
7, 6975, Note_on_c, 4, 66, 0
7, 7009, Note_on_c, 4, 62, 0
7, 7030, Note_on_c, 4, 54, 0
7, 7035, Note_on_c, 4, 66, 80
7, 7039, Note_on_c, 4, 62, 86
7, 7040, Note_on_c, 4, 56, 67
7, 7046, Note_on_c, 4, 54, 74
7, 7055, Note_on_c, 4, 45, 35
7, 7067, Note_on_c, 4, 56, 0
7, 7114, Note_on_c, 4, 45, 0
7, 7186, Note_on_c, 4, 45, 0
7, 7201, Note_on_c, 4, 62, 104
7, 7204, Note_on_c, 4, 66, 92
7, 7215, Note_on_c, 4, 62, 0
7, 7240, Note_on_c, 4, 66, 0
7, 7243, Note_on_c, 4, 50, 0
7, 7275, Note_on_c, 4, 62, 0
7, 7441, Note_on_c, 4, 66, 0
7, 7490, Note_on_c, 4, 57, 0
7, 7505, Note_on_c, 4, 54, 0
7, 7507, Note_on_c, 4, 66, 86
7, 7510, Note_on_c, 4, 62, 86
7, 7514, Note_on_c, 4, 57, 66
7, 7516, Note_on_c, 4, 54, 57
7, 7527, Note_on_c, 4, 50, 5
7, 7659, Note_on_c, 4, 50, 0
7, 7680, Note_on_c, 4, 54, 0
7, 7680, Note_on_c, 4, 45, 25
7, 7681, Note_on_c, 4, 50, 69
7, 7688, Note_on_c, 4, 54, 85
7, 7994, Note_on_c, 4, 66, 0
7, 7999, Note_on_c, 4, 66, 89
7, 8005, Note_on_c, 4, 62, 80
7, 8007, Note_on_c, 4, 57, 83
7, 8027, Note_on_c, 4, 62, 0
7, 8036, Note_on_c, 4, 57, 0
7, 8154, Note_on_c, 4, 57, 0
7, 8170, Note_on_c, 4, 57, 75
7, 8170, Note_on_c, 4, 54, 92
7, 8171, Note_on_c, 4, 66, 89
7, 8176, Note_on_c, 4, 54, 0
7, 8199, Note_on_c, 4, 54, 0
7, 8221, Note_on_c, 4, 66, 0
7, 8232, Note_on_c, 4, 45, 0
7, 8240, Note_on_c, 4, 66, 0
7, 8241, Note_on_c, 4, 50, 0
7, 8430, Note_on_c, 4, 57, 0
7, 8466, Note_on_c, 4, 62, 0
7, 8474, Note_on_c, 4, 66, 83
7, 8477, Note_on_c, 4, 62, 86
7, 8479, Note_on_c, 4, 57, 92
7, 8480, Note_on_c, 4, 54, 78
7, 8484, Note_on_c, 4, 50, 40
7, 8751, Note_on_c, 4, 66, 0
7, 8956, Note_on_c, 4, 66, 83
7, 8964, Note_on_c, 4, 54, 92
7, 8972, Note_on_c, 4, 45, 28
7, 8980, Note_on_c, 4, 54, 0
7, 9085, Note_on_c, 4, 45, 0
7, 9124, Note_on_c, 4, 45, 51
7, 9126, Note_on_c, 4, 66, 68
7, 9154, Note_on_c, 4, 66, 0
7, 9165, Note_on_c, 4, 66, 0
7, 9175, Note_on_c, 4, 45, 0
7, 9206, Note_on_c, 4, 50, 0
7, 9241, Note_on_c, 4, 54, 0
7, 9248, Note_on_c, 4, 62, 0
7, 9434, Note_on_c, 4, 66, 86
7, 9435, Note_on_c, 4, 57, 0
7, 9435, Note_on_c, 4, 63, 92
7, 9440, Note_on_c, 4, 54, 74
7, 9440, Note_on_c, 4, 57, 75
7, 9440, Note_on_c, 4, 62, 98
7, 9444, Note_on_c, 4, 50, 57
7, 9450, Note_on_c, 4, 45, 17
7, 9460, Note_on_c, 4, 63, 0
7, 9600, Note_on_c, 4, 66, 0
7, 9600, Note_on_c, 4, 57, 0
7, 9608, Note_on_c, 4, 57, 110
7, 9610, Note_on_c, 4, 66, 86
7, 9875, Note_on_c, 4, 66, 0
7, 9907, Note_on_c, 4, 62, 0
7, 9920, Note_on_c, 4, 66, 92
7, 9922, Note_on_c, 4, 62, 98
7, 9932, Note_on_c, 4, 54, 74
7, 9934, Note_on_c, 4, 50, 86
7, 9950, Note_on_c, 4, 54, 0
7, 9988, Note_on_c, 4, 50, 0
7, 10088, Note_on_c, 4, 50, 0
7, 10093, Note_on_c, 4, 62, 98
7, 10095, Note_on_c, 4, 66, 71
7, 10129, Note_on_c, 4, 62, 0
7, 10150, Note_on_c, 4, 66, 0
7, 10165, Note_on_c, 4, 62, 0
7, 10169, Note_on_c, 4, 45, 0
7, 10170, Note_on_c, 4, 66, 0
7, 10392, Note_on_c, 4, 66, 95
7, 10395, Note_on_c, 4, 62, 98
7, 10400, Note_on_c, 4, 57, 101
7, 10402, Note_on_c, 4, 57, 0
7, 10402, Note_on_c, 4, 54, 95
7, 10409, Note_on_c, 4, 50, 92
7, 10415, Note_on_c, 4, 54, 0
7, 10544, Note_on_c, 4, 45, 41
7, 10823, Note_on_c, 4, 66, 0
7, 10875, Note_on_c, 4, 62, 0
7, 10875, Note_on_c, 4, 66, 77
7, 10880, Note_on_c, 4, 62, 98
7, 11006, Note_on_c, 4, 66, 0
7, 11044, Note_on_c, 4, 44, 48
7, 11050, Note_on_c, 4, 54, 81
7, 11050, Note_on_c, 4, 57, 110
7, 11053, Note_on_c, 4, 63, 41
7, 11075, Note_on_c, 4, 44, 0
7, 11078, Note_on_c, 4, 63, 0
7, 11085, Note_on_c, 4, 54, 0
7, 11091, Note_on_c, 4, 57, 0
7, 11119, Note_on_c, 4, 45, 0
7, 11135, Note_on_c, 4, 50, 0
7, 11314, Note_on_c, 4, 57, 0
7, 11331, Note_on_c, 4, 62, 0
7, 11331, Note_on_c, 4, 54, 0
7, 11350, Note_on_c, 4, 66, 68
7, 11355, Note_on_c, 4, 62, 92
7, 11360, Note_on_c, 4, 57, 101
7, 11361, Note_on_c, 4, 54, 74
7, 11365, Note_on_c, 4, 50, 51
7, 11372, Note_on_c, 4, 45, 20
7, 11500, Note_on_c, 4, 50, 0
7, 11502, Note_on_c, 4, 45, 0
7, 11520, Note_on_c, 4, 66, 0
7, 11526, Note_on_c, 4, 45, 43
7, 11530, Note_on_c, 4, 50, 57
7, 11534, Note_on_c, 4, 66, 53
7, 11720, Note_on_c, 4, 66, 0
7, 11835, Note_on_c, 4, 62, 0
7, 11835, Note_on_c, 4, 66, 89
7, 11839, Note_on_c, 4, 62, 104
7, 11840, Note_on_c, 4, 54, 81
7, 11842, Note_on_c, 4, 54, 0
7, 11842, Note_on_c, 4, 57, 92
7, 11854, Note_on_c, 4, 57, 0
7, 11999, Note_on_c, 4, 50, 0
7, 12008, Note_on_c, 4, 50, 104
7, 12010, Note_on_c, 4, 54, 98
7, 12011, Note_on_c, 4, 57, 92
7, 12026, Note_on_c, 4, 57, 0
7, 12035, Note_on_c, 4, 54, 0
7, 12041, Note_on_c, 4, 62, 0
7, 12049, Note_on_c, 4, 50, 0
7, 12116, Note_on_c, 4, 45, 0
7, 12145, Note_on_c, 4, 62, 69
7, 12155, Note_on_c, 4, 61, 34
7, 12175, Note_on_c, 4, 62, 22
7, 12194, Note_on_c, 4, 62, 0
7, 12240, Note_on_c, 4, 62, 0
7, 12248, Note_on_c, 4, 57, 0
7, 12255, Note_on_c, 4, 61, 0
7, 12265, Note_on_c, 4, 66, 0
7, 12294, Note_on_c, 4, 54, 0
7, 12314, Note_on_c, 4, 66, 89
7, 12316, Note_on_c, 4, 62, 98
7, 12320, Note_on_c, 4, 57, 92
7, 12322, Note_on_c, 4, 54, 85
7, 12326, Note_on_c, 4, 50, 104
7, 12332, Note_on_c, 4, 45, 48
7, 12743, Note_on_c, 4, 66, 0
7, 12765, Note_on_c, 4, 62, 0
7, 12795, Note_on_c, 4, 66, 80
7, 12799, Note_on_c, 4, 62, 98
7, 12969, Note_on_c, 4, 56, 75
7, 12971, Note_on_c, 4, 62, 98
7, 12973, Note_on_c, 4, 57, 75
7, 12974, Note_on_c, 4, 66, 83
7, 12990, Note_on_c, 4, 56, 0
7, 13000, Note_on_c, 4, 57, 0
7, 13022, Note_on_c, 4, 66, 0
7, 13022, Note_on_c, 4, 62, 0
7, 13036, Note_on_c, 4, 54, 0
7, 13046, Note_on_c, 4, 45, 0
7, 13052, Note_on_c, 4, 50, 0
7, 13116, Note_on_c, 4, 53, 5
7, 13171, Note_on_c, 4, 66, 0
7, 13218, Note_on_c, 4, 62, 0
7, 13220, Note_on_c, 4, 53, 0
7, 13224, Note_on_c, 4, 57, 0
7, 13274, Note_on_c, 4, 66, 83
7, 13277, Note_on_c, 4, 62, 98
7, 13280, Note_on_c, 4, 57, 92
7, 13284, Note_on_c, 4, 54, 71
7, 13287, Note_on_c, 4, 50, 45
7, 13295, Note_on_c, 4, 45, 20
7, 13401, Note_on_c, 4, 45, 0
7, 13434, Note_on_c, 4, 50, 0
7, 13445, Note_on_c, 4, 45, 61
7, 13445, Note_on_c, 4, 50, 112
7, 13695, Note_on_c, 4, 66, 0
7, 13755, Note_on_c, 4, 62, 0
7, 13755, Note_on_c, 4, 66, 65
7, 13759, Note_on_c, 4, 62, 75
7, 13929, Note_on_c, 4, 66, 77
7, 13930, Note_on_c, 4, 57, 75
7, 13930, Note_on_c, 4, 62, 80
7, 13956, Note_on_c, 4, 45, 0
7, 13966, Note_on_c, 4, 57, 0
7, 13974, Note_on_c, 4, 62, 0
7, 13978, Note_on_c, 4, 66, 0
7, 13981, Note_on_c, 4, 66, 0
7, 13981, Note_on_c, 4, 57, 0
7, 14000, Note_on_c, 4, 50, 0
7, 14002, Note_on_c, 4, 54, 0
7, 14178, Note_on_c, 4, 62, 0
7, 14232, Note_on_c, 4, 66, 83
7, 14235, Note_on_c, 4, 62, 98
7, 14239, Note_on_c, 4, 57, 75
7, 14242, Note_on_c, 4, 54, 53
7, 14245, Note_on_c, 4, 50, 16
7, 14655, Note_on_c, 4, 66, 0
7, 14717, Note_on_c, 4, 66, 74
7, 14721, Note_on_c, 4, 62, 86
7, 14726, Note_on_c, 4, 62, 0
7, 14731, Note_on_c, 4, 57, 48
7, 14779, Note_on_c, 4, 57, 0
7, 14890, Note_on_c, 4, 57, 0
7, 14891, Note_on_c, 4, 57, 110
7, 14894, Note_on_c, 4, 66, 86
7, 14895, Note_on_c, 4, 62, 98
7, 14945, Note_on_c, 4, 62, 0
7, 14956, Note_on_c, 4, 66, 0
7, 14975, Note_on_c, 4, 54, 0
7, 14990, Note_on_c, 4, 50, 0
7, 15123, Note_on_c, 4, 62, 0
7, 15145, Note_on_c, 4, 66, 0
7, 15170, Note_on_c, 4, 57, 0
7, 15200, Note_on_c, 4, 66, 77
7, 15202, Note_on_c, 4, 62, 92
7, 15210, Note_on_c, 4, 57, 48
7, 15211, Note_on_c, 4, 54, 53
7, 15215, Note_on_c, 4, 50, 5
7, 15347, Note_on_c, 4, 50, 0
7, 15368, Note_on_c, 4, 45, 28
7, 15370, Note_on_c, 4, 50, 57
7, 15623, Note_on_c, 4, 66, 0
7, 15676, Note_on_c, 4, 66, 74
7, 15680, Note_on_c, 4, 62, 69
7, 15685, Note_on_c, 4, 62, 0
7, 15853, Note_on_c, 4, 62, 98
7, 15900, Note_on_c, 4, 62, 0
7, 15920, Note_on_c, 4, 66, 0
7, 15922, Note_on_c, 4, 50, 0
7, 15946, Note_on_c, 4, 54, 0
7, 15984, Note_on_c, 4, 66, 68
7, 16039, Note_on_c, 4, 45, 0
7, 16105, Note_on_c, 4, 62, 0
7, 16156, Note_on_c, 4, 66, 80
7, 16160, Note_on_c, 4, 62, 92
7, 16167, Note_on_c, 4, 54, 53
7, 16172, Note_on_c, 4, 50, 10
7, 16208, Note_on_c, 4, 66, 0
7, 16297, Note_on_c, 4, 50, 0
7, 16304, Note_on_c, 4, 54, 0
7, 16326, Note_on_c, 4, 50, 86
7, 16330, Note_on_c, 4, 54, 81
7, 16330, Note_on_c, 4, 57, 112
7, 16370, Note_on_c, 4, 57, 0
7, 16400, Note_on_c, 4, 66, 0
7, 16464, Note_on_c, 4, 66, 59
7, 16635, Note_on_c, 4, 66, 77
7, 16639, Note_on_c, 4, 62, 0
7, 16640, Note_on_c, 4, 62, 86
7, 16645, Note_on_c, 4, 66, 0
7, 16785, Note_on_c, 4, 45, 28
7, 16815, Note_on_c, 4, 66, 71
7, 16835, Note_on_c, 4, 50, 0
7, 16885, Note_on_c, 4, 66, 0
7, 16909, Note_on_c, 4, 62, 0
7, 16915, Note_on_c, 4, 66, 0
7, 16920, Note_on_c, 4, 54, 0
7, 16958, Note_on_c, 4, 45, 0
7, 17112, Note_on_c, 4, 66, 62
7, 17117, Note_on_c, 4, 62, 98
7, 17120, Note_on_c, 4, 57, 31
7, 17122, Note_on_c, 4, 57, 0
7, 17125, Note_on_c, 4, 54, 53
7, 17139, Note_on_c, 4, 66, 0
7, 17280, Note_on_c, 4, 54, 0
7, 17283, Note_on_c, 4, 45, 48
7, 17284, Note_on_c, 4, 50, 110
7, 17285, Note_on_c, 4, 54, 81
7, 17293, Note_on_c, 4, 66, 44
7, 17507, Note_on_c, 4, 66, 0
7, 17551, Note_on_c, 4, 62, 0
7, 17576, Note_on_c, 4, 54, 0
7, 17591, Note_on_c, 4, 66, 74
7, 17595, Note_on_c, 4, 62, 75
7, 17755, Note_on_c, 4, 45, 0
7, 17761, Note_on_c, 4, 45, 61
7, 17765, Note_on_c, 4, 50, 0
7, 17765, Note_on_c, 4, 50, 112
7, 17766, Note_on_c, 4, 57, 83
7, 17769, Note_on_c, 4, 62, 98
7, 17770, Note_on_c, 4, 57, 0
7, 17770, Note_on_c, 4, 66, 77
7, 17770, Note_on_c, 4, 54, 102
7, 17806, Note_on_c, 4, 50, 0
7, 17810, Note_on_c, 4, 66, 0
7, 17818, Note_on_c, 4, 62, 0
7, 17842, Note_on_c, 4, 66, 0
7, 17845, Note_on_c, 4, 45, 0
7, 17864, Note_on_c, 4, 54, 0
7, 17923, Note_on_c, 4, 53, 8
7, 18016, Note_on_c, 4, 62, 0
7, 18051, Note_on_c, 4, 57, 0
7, 18071, Note_on_c, 4, 66, 74
7, 18074, Note_on_c, 4, 62, 92
7, 18080, Note_on_c, 4, 57, 57
7, 18089, Note_on_c, 4, 54, 46
7, 18107, Note_on_c, 4, 53, 0
7, 18215, Note_on_c, 4, 54, 0
7, 18239, Note_on_c, 4, 50, 5
7, 18241, Note_on_c, 4, 54, 78
7, 18250, Note_on_c, 4, 66, 62
7, 18296, Note_on_c, 4, 66, 0
7, 18450, Note_on_c, 4, 66, 0
7, 18528, Note_on_c, 4, 62, 0
7, 18555, Note_on_c, 4, 66, 71
7, 18559, Note_on_c, 4, 62, 80
7, 18571, Note_on_c, 4, 50, 16
7, 18623, Note_on_c, 4, 50, 0
7, 18725, Note_on_c, 4, 54, 102
7, 18729, Note_on_c, 4, 57, 101
7, 18730, Note_on_c, 4, 66, 86
7, 18730, Note_on_c, 4, 62, 98
7, 18734, Note_on_c, 4, 57, 0
7, 18740, Note_on_c, 4, 54, 0
7, 18741, Note_on_c, 4, 62, 0
7, 18750, Note_on_c, 4, 66, 0
7, 18786, Note_on_c, 4, 54, 0
7, 18794, Note_on_c, 4, 66, 0
7, 18873, Note_on_c, 4, 53, 39
7, 18885, Note_on_c, 4, 50, 0
7, 18885, Note_on_c, 4, 54, 15
7, 18935, Note_on_c, 4, 62, 0
7, 18935, Note_on_c, 4, 53, 0
7, 18973, Note_on_c, 4, 57, 0
7, 19024, Note_on_c, 4, 54, 0
7, 19030, Note_on_c, 4, 66, 80
7, 19035, Note_on_c, 4, 62, 92
7, 19039, Note_on_c, 4, 57, 40
7, 19041, Note_on_c, 4, 54, 53
7, 19200, Note_on_c, 4, 54, 0
7, 19200, Note_on_c, 4, 45, 33
7, 19204, Note_on_c, 4, 50, 92
7, 19206, Note_on_c, 4, 54, 85
7, 19456, Note_on_c, 4, 66, 0
7, 19514, Note_on_c, 4, 62, 0
7, 19515, Note_on_c, 4, 66, 65
7, 19519, Note_on_c, 4, 62, 69
7, 19690, Note_on_c, 4, 57, 92
7, 19691, Note_on_c, 4, 62, 92
7, 19693, Note_on_c, 4, 66, 77
7, 19701, Note_on_c, 4, 57, 0
7, 19713, Note_on_c, 4, 66, 0
7, 19738, Note_on_c, 4, 50, 0
7, 19741, Note_on_c, 4, 45, 0
7, 19742, Note_on_c, 4, 62, 0
7, 19765, Note_on_c, 4, 66, 0
7, 19805, Note_on_c, 4, 54, 0
7, 19926, Note_on_c, 4, 62, 0
7, 19992, Note_on_c, 4, 66, 68
7, 19995, Note_on_c, 4, 62, 98
7, 20001, Note_on_c, 4, 54, 57
7, 20005, Note_on_c, 4, 50, 5
7, 20096, Note_on_c, 4, 66, 0
7, 20140, Note_on_c, 4, 50, 0
7, 20160, Note_on_c, 4, 50, 51
7, 20171, Note_on_c, 4, 66, 35
7, 20229, Note_on_c, 4, 66, 0
7, 20475, Note_on_c, 4, 66, 62
7, 20476, Note_on_c, 4, 62, 0
7, 20480, Note_on_c, 4, 62, 80
7, 20484, Note_on_c, 4, 57, 57
7, 20496, Note_on_c, 4, 57, 0
7, 20497, Note_on_c, 4, 66, 0
7, 20620, Note_on_c, 4, 57, 0
7, 20641, Note_on_c, 4, 45, 43
7, 20643, Note_on_c, 4, 50, 112
7, 20645, Note_on_c, 4, 62, 0
7, 20645, Note_on_c, 4, 57, 101
7, 20646, Note_on_c, 4, 54, 105
7, 20646, Note_on_c, 4, 63, 98
7, 20648, Note_on_c, 4, 66, 83
7, 20650, Note_on_c, 4, 50, 0
7, 20651, Note_on_c, 4, 62, 98
7, 20666, Note_on_c, 4, 63, 0
7, 20668, Note_on_c, 4, 66, 0
7, 20671, Note_on_c, 4, 54, 0
7, 20789, Note_on_c, 4, 62, 0
7, 20795, Note_on_c, 4, 45, 0
7, 20795, Note_on_c, 4, 50, 0
7, 20846, Note_on_c, 4, 54, 0
7, 20945, Note_on_c, 4, 57, 0
7, 20954, Note_on_c, 4, 66, 38
7, 20961, Note_on_c, 4, 58, 5
7, 20971, Pitch_bend_c, 4, 7084
7, 20979, Note_on_c, 4, 66, 0
7, 20999, Pitch_bend_c, 4, 9470
7, 21120, Note_on_c, 4, 58, 0
7, 21125, Note_on_c, 4, 50, 98
7, 21128, Note_on_c, 4, 55, 88
7, 21130, Note_on_c, 4, 59, 92
7, 21133, Note_on_c, 4, 62, 63
7, 21135, Note_on_c, 4, 67, 56
7, 21146, Pitch_bend_c, 4, 8192
7, 21305, Note_on_c, 4, 62, 0
7, 21307, Note_on_c, 4, 67, 0
7, 21366, Note_on_c, 4, 59, 0
7, 21431, Note_on_c, 4, 67, 83
7, 21435, Note_on_c, 4, 62, 75
7, 21440, Note_on_c, 4, 59, 57
7, 21590, Note_on_c, 4, 55, 0
7, 21604, Note_on_c, 4, 59, 0
7, 21605, Note_on_c, 4, 55, 81
7, 21606, Note_on_c, 4, 59, 101
7, 21609, Note_on_c, 4, 62, 98
7, 21610, Note_on_c, 4, 67, 104
7, 21650, Note_on_c, 4, 55, 0
7, 21655, Note_on_c, 4, 50, 0
7, 21656, Note_on_c, 4, 62, 0
7, 21665, Note_on_c, 4, 59, 0
7, 21680, Note_on_c, 4, 67, 0
7, 21680, Note_on_c, 4, 62, 0
7, 21690, Note_on_c, 4, 67, 0
7, 21874, Pitch_bend_c, 4, 7425
7, 21886, Pitch_bend_c, 4, 8192
7, 21910, Note_on_c, 4, 67, 68
7, 21914, Note_on_c, 4, 62, 51
7, 21917, Note_on_c, 4, 59, 40
7, 21919, Note_on_c, 4, 55, 53
7, 22081, Note_on_c, 4, 42, 43
7, 22084, Note_on_c, 4, 50, 110
7, 22085, Note_on_c, 4, 55, 95
7, 22089, Note_on_c, 4, 62, 80
7, 22089, Note_on_c, 4, 59, 83
7, 22090, Note_on_c, 4, 67, 71
7, 22105, Note_on_c, 4, 59, 0
7, 22108, Note_on_c, 4, 55, 0
7, 22149, Note_on_c, 4, 62, 0
7, 22172, Note_on_c, 4, 67, 0
7, 22330, Note_on_c, 4, 67, 0
7, 22400, Note_on_c, 4, 67, 74
7, 22570, Note_on_c, 4, 59, 110
7, 22571, Note_on_c, 4, 59, 0
7, 22573, Note_on_c, 4, 67, 107
7, 22575, Note_on_c, 4, 62, 57
7, 22575, Note_on_c, 4, 42, 33
7, 22598, Note_on_c, 4, 62, 0
7, 22600, Note_on_c, 4, 62, 0
7, 22614, Note_on_c, 4, 50, 0
7, 22620, Note_on_c, 4, 67, 0
7, 22627, Note_on_c, 4, 42, 0
7, 22629, Note_on_c, 4, 59, 0
7, 22642, Note_on_c, 4, 55, 0
7, 22642, Note_on_c, 4, 67, 0
7, 22720, Note_on_c, 4, 66, 32
7, 22830, Note_on_c, 4, 66, 0
7, 22875, Note_on_c, 4, 67, 83
7, 22877, Note_on_c, 4, 62, 86
7, 22881, Note_on_c, 4, 59, 48
7, 22884, Note_on_c, 4, 55, 43
7, 23040, Note_on_c, 4, 62, 0
7, 23040, Note_on_c, 4, 59, 0
7, 23040, Note_on_c, 4, 55, 0
7, 23043, Note_on_c, 4, 50, 80
7, 23045, Note_on_c, 4, 55, 88
7, 23049, Note_on_c, 4, 59, 110
7, 23050, Note_on_c, 4, 62, 98
7, 23308, Note_on_c, 4, 67, 0
7, 23314, Note_on_c, 4, 62, 0
7, 23355, Note_on_c, 4, 67, 86
7, 23359, Note_on_c, 4, 62, 80
7, 23500, Note_on_c, 4, 59, 0
7, 23525, Note_on_c, 4, 42, 51
7, 23525, Note_on_c, 4, 50, 112
7, 23530, Note_on_c, 4, 60, 110
7, 23531, Note_on_c, 4, 67, 104
7, 23535, Note_on_c, 4, 50, 0
7, 23541, Note_on_c, 4, 42, 0
7, 23560, Note_on_c, 4, 60, 0
7, 23579, Note_on_c, 4, 67, 0
7, 23586, Note_on_c, 4, 50, 0
7, 23595, Note_on_c, 4, 67, 0
7, 23621, Note_on_c, 4, 62, 0
7, 23630, Note_on_c, 4, 55, 0
7, 23664, Note_on_c, 4, 59, 83
7, 23751, Note_on_c, 4, 59, 0
7, 23835, Note_on_c, 4, 67, 89
7, 23839, Note_on_c, 4, 62, 104
7, 23844, Note_on_c, 4, 59, 92
7, 23846, Note_on_c, 4, 55, 78
7, 23851, Note_on_c, 4, 50, 51
7, 24254, Note_on_c, 4, 67, 0
7, 24304, Note_on_c, 4, 62, 0
7, 24314, Note_on_c, 4, 67, 83
7, 24316, Note_on_c, 4, 62, 75
7, 24386, Note_on_c, 4, 42, 0
7, 24481, Note_on_c, 4, 42, 33
7, 24489, Note_on_c, 4, 59, 92
7, 24490, Note_on_c, 4, 67, 98
7, 24490, Note_on_c, 4, 62, 104
7, 24511, Note_on_c, 4, 67, 0
7, 24511, Note_on_c, 4, 62, 0
7, 24523, Note_on_c, 4, 59, 0
7, 24528, Note_on_c, 4, 55, 0
7, 24540, Note_on_c, 4, 59, 0
7, 24540, Note_on_c, 4, 62, 0
7, 24545, Note_on_c, 4, 50, 0
7, 24560, Note_on_c, 4, 67, 0
7, 24638, Note_on_c, 4, 66, 23
7, 24746, Note_on_c, 4, 66, 0
7, 24800, Note_on_c, 4, 62, 104
7, 24800, Note_on_c, 4, 67, 95
7, 24801, Note_on_c, 4, 59, 83
7, 24805, Note_on_c, 4, 55, 64
7, 24944, Note_on_c, 4, 50, 5
7, 24955, Note_on_c, 4, 55, 0
7, 24960, Note_on_c, 4, 62, 0
7, 24960, Note_on_c, 4, 67, 0
7, 24960, Note_on_c, 4, 50, 51
7, 24964, Note_on_c, 4, 55, 85
7, 24968, Note_on_c, 4, 62, 104
7, 24970, Note_on_c, 4, 67, 77
7, 25021, Note_on_c, 4, 50, 0
7, 25184, Note_on_c, 4, 67, 0
7, 25241, Note_on_c, 4, 62, 0
7, 25267, Note_on_c, 4, 59, 0
7, 25275, Note_on_c, 4, 67, 86
7, 25280, Note_on_c, 4, 62, 98
7, 25282, Note_on_c, 4, 59, 66
7, 25440, Note_on_c, 4, 42, 30
7, 25441, Note_on_c, 4, 42, 0
7, 25445, Note_on_c, 4, 59, 112
7, 25446, Note_on_c, 4, 67, 89
7, 25455, Note_on_c, 4, 59, 0
7, 25486, Note_on_c, 4, 55, 0
7, 25493, Note_on_c, 4, 50, 0
7, 25494, Note_on_c, 4, 67, 0
7, 25504, Note_on_c, 4, 62, 0
7, 25505, Note_on_c, 4, 59, 0
7, 25699, Note_on_c, 4, 67, 0
7, 25754, Note_on_c, 4, 67, 92
7, 25756, Note_on_c, 4, 62, 104
7, 25761, Note_on_c, 4, 59, 83
7, 25764, Note_on_c, 4, 55, 78
7, 25767, Note_on_c, 4, 50, 22
7, 25926, Note_on_c, 4, 62, 104
7, 25929, Note_on_c, 4, 67, 80
7, 25964, Note_on_c, 4, 62, 0
7, 25986, Note_on_c, 4, 67, 0
7, 26169, Note_on_c, 4, 67, 0
7, 26195, Note_on_c, 4, 62, 0
7, 26239, Note_on_c, 4, 67, 83
7, 26242, Note_on_c, 4, 62, 110
7, 26246, Note_on_c, 4, 59, 101
7, 26251, Note_on_c, 4, 55, 81
7, 26275, Note_on_c, 4, 59, 0
7, 26296, Note_on_c, 4, 55, 0
7, 26324, Note_on_c, 4, 50, 0
7, 26372, Note_on_c, 4, 59, 0
7, 26385, Note_on_c, 4, 50, 63
7, 26396, Note_on_c, 4, 42, 0
7, 26404, Note_on_c, 4, 62, 0
7, 26406, Note_on_c, 4, 59, 110
7, 26409, Note_on_c, 4, 63, 104
7, 26414, Note_on_c, 4, 62, 98
7, 26414, Note_on_c, 4, 67, 107
7, 26434, Note_on_c, 4, 63, 0
7, 26440, Note_on_c, 4, 67, 0
7, 26460, Note_on_c, 4, 67, 0
7, 26512, Note_on_c, 4, 62, 0
7, 26525, Note_on_c, 4, 55, 0
7, 26560, Note_on_c, 4, 66, 20
7, 26578, Note_on_c, 4, 59, 0
7, 26580, Note_on_c, 4, 50, 0
7, 26683, Note_on_c, 4, 66, 0
7, 26720, Note_on_c, 4, 66, 77
7, 26722, Note_on_c, 4, 61, 69
7, 26839, Note_on_c, 4, 61, 0
7, 26852, Note_on_c, 4, 66, 0
7, 26879, Note_on_c, 4, 68, 14
7, 26885, Note_on_c, 4, 52, 64
7, 26886, Note_on_c, 4, 59, 75
7, 26890, Note_on_c, 4, 62, 69
7, 26893, Note_on_c, 4, 68, 74
7, 26916, Note_on_c, 4, 52, 0
7, 26945, Note_on_c, 4, 68, 0
7, 27107, Note_on_c, 4, 68, 0
7, 27160, Note_on_c, 4, 62, 0
7, 27190, Note_on_c, 4, 59, 0
7, 27196, Note_on_c, 4, 68, 92
7, 27200, Note_on_c, 4, 62, 110
7, 27204, Note_on_c, 4, 59, 92
7, 27207, Note_on_c, 4, 53, 64
7, 27212, Note_on_c, 4, 47, 28
7, 27364, Note_on_c, 4, 62, 0
7, 27366, Note_on_c, 4, 62, 63
7, 27619, Note_on_c, 4, 68, 0
7, 27640, Note_on_c, 4, 62, 0
7, 27674, Note_on_c, 4, 68, 98
7, 27677, Note_on_c, 4, 62, 110
7, 27681, Note_on_c, 4, 59, 112
7, 27686, Note_on_c, 4, 53, 74
7, 27690, Note_on_c, 4, 59, 0
7, 27714, Note_on_c, 4, 53, 0
7, 27845, Note_on_c, 4, 68, 104
7, 27845, Note_on_c, 4, 62, 110
7, 27848, Note_on_c, 4, 62, 0
7, 27893, Note_on_c, 4, 68, 0
7, 28100, Note_on_c, 4, 68, 0
7, 28151, Note_on_c, 4, 62, 0
7, 28159, Note_on_c, 4, 68, 86
7, 28161, Note_on_c, 4, 62, 98
7, 28319, Note_on_c, 4, 47, 0
7, 28320, Note_on_c, 4, 47, 69
7, 28329, Note_on_c, 4, 59, 101
7, 28330, Note_on_c, 4, 68, 92
7, 28331, Note_on_c, 4, 53, 81
7, 28365, Note_on_c, 4, 59, 0
7, 28379, Note_on_c, 4, 53, 0
7, 28379, Note_on_c, 4, 68, 0
7, 28515, Note_on_c, 4, 53, 0
7, 28520, Note_on_c, 4, 68, 0
7, 28530, Note_on_c, 4, 59, 0
7, 28642, Note_on_c, 4, 66, 62
7, 28651, Note_on_c, 4, 61, 22
7, 28696, Note_on_c, 4, 62, 0
7, 28800, Note_on_c, 4, 47, 0
7, 28800, Note_on_c, 4, 66, 0
7, 28800, Note_on_c, 4, 61, 0
7, 28810, Note_on_c, 4, 57, 83
7, 28810, Note_on_c, 4, 47, 92
7, 28811, Note_on_c, 4, 61, 112
7, 28813, Note_on_c, 4, 66, 89
7, 28814, Note_on_c, 4, 52, 81
7, 28874, Note_on_c, 4, 47, 0
7, 29036, Note_on_c, 4, 66, 0
7, 29085, Note_on_c, 4, 61, 0
7, 29119, Note_on_c, 4, 66, 65
7, 29122, Note_on_c, 4, 61, 57
7, 29254, Note_on_c, 4, 66, 0
7, 29275, Note_on_c, 4, 52, 0
7, 29280, Note_on_c, 4, 57, 0
7, 29283, Note_on_c, 4, 49, 63
7, 29288, Note_on_c, 4, 57, 112
7, 29290, Note_on_c, 4, 52, 43
7, 29291, Note_on_c, 4, 61, 86
7, 29291, Note_on_c, 4, 69, 77
7, 29328, Note_on_c, 4, 61, 0
7, 29355, Note_on_c, 4, 52, 0
7, 29431, Note_on_c, 4, 53, 8
7, 29475, Note_on_c, 4, 69, 0
7, 29497, Note_on_c, 4, 61, 0
7, 29550, Note_on_c, 4, 53, 0
7, 29596, Note_on_c, 4, 69, 80
7, 29604, Note_on_c, 4, 61, 34
7, 29609, Note_on_c, 4, 52, 25
7, 29675, Note_on_c, 4, 52, 0
7, 29759, Note_on_c, 4, 45, 38
7, 29765, Note_on_c, 4, 49, 86
7, 29770, Note_on_c, 4, 61, 86
7, 29770, Note_on_c, 4, 52, 50
7, 29775, Note_on_c, 4, 49, 0
7, 29789, Note_on_c, 4, 61, 0
7, 30023, Note_on_c, 4, 69, 0
7, 30026, Note_on_c, 4, 61, 0
7, 30074, Note_on_c, 4, 69, 83
7, 30076, Note_on_c, 4, 61, 80
7, 30232, Note_on_c, 4, 57, 0
7, 30232, Note_on_c, 4, 52, 0
7, 30245, Note_on_c, 4, 57, 112
7, 30246, Note_on_c, 4, 52, 32
7, 30276, Note_on_c, 4, 45, 0
7, 30294, Note_on_c, 4, 69, 0
7, 30394, Note_on_c, 4, 66, 5
7, 30538, Note_on_c, 4, 66, 0
7, 30550, Note_on_c, 4, 66, 62
7, 30621, Note_on_c, 4, 49, 0
7, 30621, Note_on_c, 4, 52, 0
7, 30659, Note_on_c, 4, 66, 0
7, 30705, Note_on_c, 4, 53, 5
7, 30720, Note_on_c, 4, 61, 0
7, 30720, Note_on_c, 4, 57, 0
7, 30723, Note_on_c, 4, 50, 104
7, 30723, Note_on_c, 4, 45, 38
7, 30728, Note_on_c, 4, 54, 85
7, 30728, Note_on_c, 4, 62, 98
7, 30728, Note_on_c, 4, 67, 68
7, 30728, Note_on_c, 4, 57, 92
7, 30775, Note_on_c, 4, 67, 0
7, 30812, Note_on_c, 4, 53, 0
7, 30865, Note_on_c, 4, 66, 44
7, 31000, Note_on_c, 4, 62, 0
7, 31013, Note_on_c, 4, 54, 0
7, 31030, Note_on_c, 4, 66, 74
7, 31039, Note_on_c, 4, 62, 92
7, 31040, Note_on_c, 4, 54, 71
7, 31052, Note_on_c, 4, 66, 0
7, 31208, Note_on_c, 4, 66, 65
7, 31220, Note_on_c, 4, 66, 0
7, 31235, Note_on_c, 4, 45, 0
7, 31240, Note_on_c, 4, 50, 0
7, 31248, Note_on_c, 4, 54, 0
7, 31280, Note_on_c, 4, 62, 0
7, 31469, Note_on_c, 4, 66, 0
7, 31516, Note_on_c, 4, 66, 62
7, 31520, Note_on_c, 4, 62, 92
7, 31526, Note_on_c, 4, 54, 57
7, 31540, Note_on_c, 4, 66, 0
7, 31667, Note_on_c, 4, 54, 0
7, 31681, Note_on_c, 4, 50, 86
7, 31683, Note_on_c, 4, 54, 85
7, 31685, Note_on_c, 4, 62, 104
7, 31688, Note_on_c, 4, 66, 77
7, 31708, Note_on_c, 4, 62, 0
7, 31850, Note_on_c, 4, 45, 5
7, 31981, Note_on_c, 4, 62, 0
7, 31982, Note_on_c, 4, 66, 0
7, 32004, Note_on_c, 4, 66, 65
7, 32132, Note_on_c, 4, 66, 0
7, 32165, Note_on_c, 4, 63, 98
7, 32168, Note_on_c, 4, 66, 89
7, 32169, Note_on_c, 4, 57, 92
7, 32170, Note_on_c, 4, 62, 98
7, 32174, Note_on_c, 4, 57, 0
7, 32190, Note_on_c, 4, 45, 0
7, 32190, Note_on_c, 4, 63, 0
7, 32244, Note_on_c, 4, 50, 0
7, 32283, Note_on_c, 4, 54, 0
7, 32301, Note_on_c, 4, 62, 0
7, 32455, Note_on_c, 4, 66, 0
7, 32480, Note_on_c, 4, 66, 44
7, 32484, Note_on_c, 4, 61, 5
7, 32630, Note_on_c, 4, 57, 0
7, 32640, Note_on_c, 4, 66, 0
7, 32640, Note_on_c, 4, 61, 0
7, 32644, Note_on_c, 4, 52, 57
7, 32645, Note_on_c, 4, 59, 83
7, 32649, Note_on_c, 4, 68, 92
7, 32654, Note_on_c, 4, 64, 92
7, 32778, Note_on_c, 4, 52, 0
7, 32930, Note_on_c, 4, 68, 0
7, 32961, Note_on_c, 4, 68, 77
7, 33120, Note_on_c, 4, 52, 29
7, 33125, Note_on_c, 4, 68, 110
7, 33144, Note_on_c, 4, 68, 0
7, 33361, Note_on_c, 4, 52, 0
7, 33395, Note_on_c, 4, 68, 0
7, 33441, Note_on_c, 4, 68, 83
7, 33605, Note_on_c, 4, 68, 112
7, 33621, Note_on_c, 4, 68, 0
7, 33902, Note_on_c, 4, 68, 0
7, 33921, Note_on_c, 4, 68, 89
7, 33930, Note_on_c, 4, 52, 8
7, 34045, Note_on_c, 4, 52, 0
7, 34065, Note_on_c, 4, 64, 0
7, 34081, Note_on_c, 4, 52, 85
7, 34086, Note_on_c, 4, 68, 89
7, 34105, Note_on_c, 4, 68, 0
7, 34109, Note_on_c, 4, 68, 0
7, 34115, Note_on_c, 4, 59, 0
7, 34225, Note_on_c, 4, 66, 38
7, 34395, Note_on_c, 4, 66, 68
7, 34399, Note_on_c, 4, 61, 63
7, 34435, Note_on_c, 4, 66, 0
7, 34493, Note_on_c, 4, 66, 0
7, 34550, Note_on_c, 4, 61, 0
7, 34565, Note_on_c, 4, 49, 80
7, 34569, Note_on_c, 4, 69, 107
7, 34570, Note_on_c, 4, 57, 101
7, 34719, Note_on_c, 4, 52, 0
7, 34720, Note_on_c, 4, 53, 8
7, 34825, Note_on_c, 4, 69, 0
7, 34835, Note_on_c, 4, 57, 0
7, 34933, Note_on_c, 4, 49, 0
7, 34956, Note_on_c, 4, 53, 0
7, 36479, Note_on_c, 4, 50, 112
7, 36480, Note_on_c, 4, 45, 79
7, 36481, Note_on_c, 4, 66, 86
7, 36481, Note_on_c, 4, 54, 109
7, 36484, Note_on_c, 4, 63, 104
7, 36485, Note_on_c, 4, 57, 75
7, 36490, Note_on_c, 4, 62, 104
7, 36504, Note_on_c, 4, 66, 0
7, 36510, Note_on_c, 4, 63, 0
7, 36805, Note_on_c, 4, 66, 35
7, 36830, Note_on_c, 4, 66, 0
7, 36970, Note_on_c, 4, 62, 98
7, 36970, Note_on_c, 4, 57, 101
7, 36971, Note_on_c, 4, 62, 0
7, 36991, Note_on_c, 4, 62, 0
7, 36996, Note_on_c, 4, 57, 0
7, 37009, Note_on_c, 4, 50, 0
7, 37013, Note_on_c, 4, 45, 0
7, 37062, Note_on_c, 4, 54, 0
7, 37105, Note_on_c, 4, 66, 23
7, 37108, Note_on_c, 4, 61, 28
7, 37246, Note_on_c, 4, 57, 0
7, 37277, Note_on_c, 4, 62, 98
7, 37282, Note_on_c, 4, 57, 83
7, 37285, Note_on_c, 4, 54, 81
7, 37289, Note_on_c, 4, 50, 57
7, 37292, Note_on_c, 4, 45, 10
7, 37316, Note_on_c, 4, 61, 0
7, 37422, Note_on_c, 4, 54, 0
7, 37425, Note_on_c, 4, 66, 0
7, 37445, Note_on_c, 4, 54, 92
7, 37450, Note_on_c, 4, 66, 65
7, 37730, Note_on_c, 4, 66, 0
7, 37762, Note_on_c, 4, 66, 44
7, 37765, Note_on_c, 4, 62, 0
7, 37765, Note_on_c, 4, 62, 69
7, 37770, Note_on_c, 4, 57, 48
7, 37810, Note_on_c, 4, 57, 0
7, 37860, Note_on_c, 4, 66, 0
7, 37910, Note_on_c, 4, 62, 0
7, 37929, Note_on_c, 4, 62, 104
7, 37929, Note_on_c, 4, 66, 83
7, 37931, Note_on_c, 4, 57, 110
7, 37935, Note_on_c, 4, 57, 0
7, 37951, Note_on_c, 4, 66, 0
7, 37958, Note_on_c, 4, 54, 0
7, 37971, Note_on_c, 4, 50, 0
7, 38005, Note_on_c, 4, 45, 0
7, 38085, Note_on_c, 4, 57, 0
7, 38200, Note_on_c, 4, 62, 0
7, 38235, Note_on_c, 4, 66, 62
7, 38239, Note_on_c, 4, 62, 98
7, 38241, Note_on_c, 4, 57, 57
7, 38245, Note_on_c, 4, 54, 60
7, 38250, Note_on_c, 4, 50, 16
7, 38260, Note_on_c, 4, 66, 0
7, 38366, Note_on_c, 4, 50, 0
7, 38390, Note_on_c, 4, 54, 0
7, 38397, Note_on_c, 4, 45, 28
7, 38400, Note_on_c, 4, 50, 98
7, 38403, Note_on_c, 4, 54, 98
7, 38410, Note_on_c, 4, 66, 56
7, 38655, Note_on_c, 4, 66, 0
7, 38714, Note_on_c, 4, 62, 0
7, 38715, Note_on_c, 4, 66, 65
7, 38719, Note_on_c, 4, 62, 75
7, 38885, Note_on_c, 4, 44, 30
7, 38886, Note_on_c, 4, 62, 98
7, 38888, Note_on_c, 4, 66, 74
7, 38903, Note_on_c, 4, 50, 0
7, 38910, Note_on_c, 4, 45, 0
7, 38915, Note_on_c, 4, 44, 0
7, 38918, Note_on_c, 4, 62, 0
7, 38935, Note_on_c, 4, 66, 0
7, 38940, Note_on_c, 4, 54, 0
7, 39123, Note_on_c, 4, 66, 0
7, 39125, Note_on_c, 4, 57, 0
7, 39165, Note_on_c, 4, 62, 0
7, 39196, Note_on_c, 4, 66, 62
7, 39199, Note_on_c, 4, 62, 80
7, 39201, Note_on_c, 4, 57, 57
7, 39205, Note_on_c, 4, 54, 57
7, 39210, Note_on_c, 4, 50, 16
7, 39340, Note_on_c, 4, 54, 0
7, 39360, Note_on_c, 4, 54, 88
7, 39365, Note_on_c, 4, 66, 65
7, 39405, Note_on_c, 4, 66, 0
7, 39560, Note_on_c, 4, 66, 0
7, 39650, Note_on_c, 4, 62, 0
7, 39675, Note_on_c, 4, 66, 65
7, 39679, Note_on_c, 4, 62, 69
7, 39841, Note_on_c, 4, 54, 112
7, 39845, Note_on_c, 4, 54, 0
7, 39846, Note_on_c, 4, 66, 74
7, 39890, Note_on_c, 4, 50, 0
7, 39891, Note_on_c, 4, 66, 0
7, 39936, Note_on_c, 4, 54, 0
7, 40005, Note_on_c, 4, 52, 5
7, 40071, Note_on_c, 4, 66, 0
7, 40088, Note_on_c, 4, 52, 0
7, 40141, Note_on_c, 4, 62, 0
7, 40145, Note_on_c, 4, 57, 0
7, 40154, Note_on_c, 4, 66, 65
7, 40156, Note_on_c, 4, 62, 75
7, 40161, Note_on_c, 4, 57, 31
7, 40162, Note_on_c, 4, 54, 46
7, 40317, Note_on_c, 4, 54, 0
7, 40320, Note_on_c, 4, 66, 0
7, 40320, Note_on_c, 4, 62, 0
7, 40320, Note_on_c, 4, 57, 0
7, 40320, Note_on_c, 4, 62, 98
7, 40320, Note_on_c, 4, 66, 83
7, 40320, Note_on_c, 4, 54, 71
7, 40320, Note_on_c, 4, 57, 92
7, 40325, Note_on_c, 4, 50, 112
7, 40325, Note_on_c, 4, 45, 61
7, 40575, Note_on_c, 4, 66, 0
7, 40635, Note_on_c, 4, 62, 0
7, 40635, Note_on_c, 4, 66, 65
7, 40639, Note_on_c, 4, 62, 75
7, 40809, Note_on_c, 4, 66, 77
7, 40810, Note_on_c, 4, 57, 75
7, 40810, Note_on_c, 4, 62, 80
7, 40836, Note_on_c, 4, 45, 0
7, 40846, Note_on_c, 4, 57, 0
7, 40854, Note_on_c, 4, 62, 0
7, 40858, Note_on_c, 4, 66, 0
7, 40861, Note_on_c, 4, 66, 0
7, 40861, Note_on_c, 4, 57, 0
7, 40880, Note_on_c, 4, 50, 0
7, 40882, Note_on_c, 4, 54, 0
7, 41058, Note_on_c, 4, 62, 0
7, 41112, Note_on_c, 4, 66, 83
7, 41115, Note_on_c, 4, 62, 98
7, 41119, Note_on_c, 4, 57, 75
7, 41122, Note_on_c, 4, 54, 53
7, 41125, Note_on_c, 4, 50, 16
7, 41535, Note_on_c, 4, 66, 0
7, 41597, Note_on_c, 4, 66, 74
7, 41601, Note_on_c, 4, 62, 86
7, 41606, Note_on_c, 4, 62, 0
7, 41611, Note_on_c, 4, 57, 48
7, 41659, Note_on_c, 4, 57, 0
7, 41770, Note_on_c, 4, 57, 0
7, 41771, Note_on_c, 4, 57, 110
7, 41774, Note_on_c, 4, 66, 86
7, 41775, Note_on_c, 4, 62, 98
7, 41825, Note_on_c, 4, 62, 0
7, 41836, Note_on_c, 4, 66, 0
7, 41855, Note_on_c, 4, 54, 0
7, 41870, Note_on_c, 4, 50, 0
7, 42003, Note_on_c, 4, 62, 0
7, 42025, Note_on_c, 4, 66, 0
7, 42050, Note_on_c, 4, 57, 0
7, 42080, Note_on_c, 4, 66, 77
7, 42082, Note_on_c, 4, 62, 92
7, 42090, Note_on_c, 4, 57, 48
7, 42091, Note_on_c, 4, 54, 53
7, 42095, Note_on_c, 4, 50, 5
7, 42227, Note_on_c, 4, 50, 0
7, 42248, Note_on_c, 4, 45, 28
7, 42250, Note_on_c, 4, 50, 57
7, 42503, Note_on_c, 4, 66, 0
7, 42556, Note_on_c, 4, 66, 74
7, 42560, Note_on_c, 4, 62, 69
7, 42565, Note_on_c, 4, 62, 0
7, 42733, Note_on_c, 4, 62, 98
7, 42780, Note_on_c, 4, 62, 0
7, 42800, Note_on_c, 4, 66, 0
7, 42802, Note_on_c, 4, 50, 0
7, 42826, Note_on_c, 4, 54, 0
7, 42864, Note_on_c, 4, 66, 68
7, 42919, Note_on_c, 4, 45, 0
7, 42985, Note_on_c, 4, 62, 0
7, 43036, Note_on_c, 4, 66, 80
7, 43040, Note_on_c, 4, 62, 92
7, 43047, Note_on_c, 4, 54, 53
7, 43052, Note_on_c, 4, 50, 10
7, 43088, Note_on_c, 4, 66, 0
7, 43177, Note_on_c, 4, 50, 0
7, 43184, Note_on_c, 4, 54, 0
7, 43206, Note_on_c, 4, 50, 86
7, 43210, Note_on_c, 4, 57, 112
7, 43210, Note_on_c, 4, 54, 81
7, 43250, Note_on_c, 4, 57, 0
7, 43280, Note_on_c, 4, 66, 0
7, 43344, Note_on_c, 4, 66, 59
7, 43515, Note_on_c, 4, 66, 77
7, 43519, Note_on_c, 4, 62, 0
7, 43520, Note_on_c, 4, 62, 86
7, 43525, Note_on_c, 4, 66, 0
7, 43665, Note_on_c, 4, 45, 28
7, 43695, Note_on_c, 4, 66, 71
7, 43715, Note_on_c, 4, 50, 0
7, 43765, Note_on_c, 4, 66, 0
7, 43789, Note_on_c, 4, 62, 0
7, 43795, Note_on_c, 4, 66, 0
7, 43800, Note_on_c, 4, 54, 0
7, 43838, Note_on_c, 4, 45, 0
7, 43992, Note_on_c, 4, 66, 62
7, 43997, Note_on_c, 4, 62, 98
7, 44000, Note_on_c, 4, 57, 31
7, 44002, Note_on_c, 4, 57, 0
7, 44005, Note_on_c, 4, 54, 53
7, 44019, Note_on_c, 4, 66, 0
7, 44160, Note_on_c, 4, 54, 0
7, 44163, Note_on_c, 4, 45, 48
7, 44164, Note_on_c, 4, 50, 110
7, 44165, Note_on_c, 4, 54, 81
7, 44173, Note_on_c, 4, 66, 44
7, 44387, Note_on_c, 4, 66, 0
7, 44431, Note_on_c, 4, 62, 0
7, 44456, Note_on_c, 4, 54, 0
7, 44471, Note_on_c, 4, 66, 74
7, 44475, Note_on_c, 4, 62, 75
7, 44635, Note_on_c, 4, 45, 0
7, 44641, Note_on_c, 4, 45, 61
7, 44645, Note_on_c, 4, 50, 0
7, 44645, Note_on_c, 4, 50, 112
7, 44646, Note_on_c, 4, 57, 83
7, 44649, Note_on_c, 4, 62, 98
7, 44650, Note_on_c, 4, 57, 0
7, 44650, Note_on_c, 4, 66, 77
7, 44650, Note_on_c, 4, 54, 102
7, 44686, Note_on_c, 4, 50, 0
7, 44690, Note_on_c, 4, 66, 0
7, 44698, Note_on_c, 4, 62, 0
7, 44722, Note_on_c, 4, 66, 0
7, 44725, Note_on_c, 4, 45, 0
7, 44744, Note_on_c, 4, 54, 0
7, 44803, Note_on_c, 4, 53, 8
7, 44896, Note_on_c, 4, 62, 0
7, 44931, Note_on_c, 4, 57, 0
7, 44951, Note_on_c, 4, 66, 74
7, 44954, Note_on_c, 4, 62, 92
7, 44960, Note_on_c, 4, 57, 57
7, 44969, Note_on_c, 4, 54, 46
7, 44987, Note_on_c, 4, 53, 0
7, 45095, Note_on_c, 4, 54, 0
7, 45119, Note_on_c, 4, 50, 5
7, 45121, Note_on_c, 4, 54, 78
7, 45130, Note_on_c, 4, 66, 62
7, 45176, Note_on_c, 4, 66, 0
7, 45330, Note_on_c, 4, 66, 0
7, 45408, Note_on_c, 4, 62, 0
7, 45435, Note_on_c, 4, 66, 71
7, 45439, Note_on_c, 4, 62, 80
7, 45451, Note_on_c, 4, 50, 16
7, 45503, Note_on_c, 4, 50, 0
7, 45605, Note_on_c, 4, 54, 102
7, 45609, Note_on_c, 4, 57, 101
7, 45610, Note_on_c, 4, 66, 86
7, 45610, Note_on_c, 4, 62, 98
7, 45614, Note_on_c, 4, 57, 0
7, 45620, Note_on_c, 4, 54, 0
7, 45621, Note_on_c, 4, 62, 0
7, 45630, Note_on_c, 4, 66, 0
7, 45666, Note_on_c, 4, 54, 0
7, 45674, Note_on_c, 4, 66, 0
7, 45753, Note_on_c, 4, 53, 39
7, 45765, Note_on_c, 4, 50, 0
7, 45765, Note_on_c, 4, 54, 15
7, 45815, Note_on_c, 4, 62, 0
7, 45815, Note_on_c, 4, 53, 0
7, 45853, Note_on_c, 4, 57, 0
7, 45904, Note_on_c, 4, 54, 0
7, 45910, Note_on_c, 4, 66, 80
7, 45915, Note_on_c, 4, 62, 92
7, 45919, Note_on_c, 4, 57, 40
7, 45921, Note_on_c, 4, 54, 53
7, 46080, Note_on_c, 4, 54, 0
7, 46080, Note_on_c, 4, 45, 33
7, 46084, Note_on_c, 4, 50, 92
7, 46086, Note_on_c, 4, 54, 85
7, 46336, Note_on_c, 4, 66, 0
7, 46394, Note_on_c, 4, 62, 0
7, 46395, Note_on_c, 4, 66, 65
7, 46399, Note_on_c, 4, 62, 69
7, 46570, Note_on_c, 4, 57, 92
7, 46571, Note_on_c, 4, 62, 92
7, 46573, Note_on_c, 4, 66, 77
7, 46581, Note_on_c, 4, 57, 0
7, 46593, Note_on_c, 4, 66, 0
7, 46618, Note_on_c, 4, 50, 0
7, 46621, Note_on_c, 4, 45, 0
7, 46622, Note_on_c, 4, 62, 0
7, 46645, Note_on_c, 4, 66, 0
7, 46685, Note_on_c, 4, 54, 0
7, 46806, Note_on_c, 4, 62, 0
7, 46872, Note_on_c, 4, 66, 68
7, 46875, Note_on_c, 4, 62, 98
7, 46881, Note_on_c, 4, 54, 57
7, 46885, Note_on_c, 4, 50, 5
7, 46976, Note_on_c, 4, 66, 0
7, 47020, Note_on_c, 4, 50, 0
7, 47040, Note_on_c, 4, 50, 51
7, 47051, Note_on_c, 4, 66, 35
7, 47109, Note_on_c, 4, 66, 0
7, 47355, Note_on_c, 4, 66, 62
7, 47356, Note_on_c, 4, 62, 0
7, 47360, Note_on_c, 4, 62, 80
7, 47364, Note_on_c, 4, 57, 57
7, 47376, Note_on_c, 4, 57, 0
7, 47377, Note_on_c, 4, 66, 0
7, 47500, Note_on_c, 4, 57, 0
7, 47521, Note_on_c, 4, 45, 43
7, 47523, Note_on_c, 4, 50, 112
7, 47525, Note_on_c, 4, 62, 0
7, 47525, Note_on_c, 4, 57, 101
7, 47526, Note_on_c, 4, 63, 98
7, 47526, Note_on_c, 4, 54, 105
7, 47528, Note_on_c, 4, 66, 83
7, 47530, Note_on_c, 4, 50, 0
7, 47531, Note_on_c, 4, 62, 98
7, 47546, Note_on_c, 4, 63, 0
7, 47548, Note_on_c, 4, 66, 0
7, 47551, Note_on_c, 4, 54, 0
7, 47669, Note_on_c, 4, 62, 0
7, 47675, Note_on_c, 4, 45, 0
7, 47675, Note_on_c, 4, 50, 0
7, 47726, Note_on_c, 4, 54, 0
7, 47825, Note_on_c, 4, 57, 0
7, 47834, Note_on_c, 4, 66, 38
7, 47841, Note_on_c, 4, 58, 5
7, 47851, Pitch_bend_c, 4, 7084
7, 47859, Note_on_c, 4, 66, 0
7, 47879, Pitch_bend_c, 4, 9470
7, 48000, Note_on_c, 4, 58, 0
7, 48005, Note_on_c, 4, 50, 98
7, 48008, Note_on_c, 4, 55, 88
7, 48010, Note_on_c, 4, 59, 92
7, 48013, Note_on_c, 4, 62, 63
7, 48015, Note_on_c, 4, 67, 56
7, 48026, Pitch_bend_c, 4, 8192
7, 48185, Note_on_c, 4, 62, 0
7, 48187, Note_on_c, 4, 67, 0
7, 48246, Note_on_c, 4, 59, 0
7, 48311, Note_on_c, 4, 67, 83
7, 48315, Note_on_c, 4, 62, 75
7, 48320, Note_on_c, 4, 59, 57
7, 48470, Note_on_c, 4, 55, 0
7, 48484, Note_on_c, 4, 59, 0
7, 48485, Note_on_c, 4, 55, 81
7, 48486, Note_on_c, 4, 59, 101
7, 48489, Note_on_c, 4, 62, 98
7, 48490, Note_on_c, 4, 67, 104
7, 48530, Note_on_c, 4, 55, 0
7, 48535, Note_on_c, 4, 50, 0
7, 48536, Note_on_c, 4, 62, 0
7, 48545, Note_on_c, 4, 59, 0
7, 48560, Note_on_c, 4, 67, 0
7, 48560, Note_on_c, 4, 62, 0
7, 48570, Note_on_c, 4, 67, 0
7, 48754, Pitch_bend_c, 4, 7425
7, 48766, Pitch_bend_c, 4, 8192
7, 48790, Note_on_c, 4, 67, 68
7, 48794, Note_on_c, 4, 62, 51
7, 48797, Note_on_c, 4, 59, 40
7, 48799, Note_on_c, 4, 55, 53
7, 48961, Note_on_c, 4, 42, 43
7, 48964, Note_on_c, 4, 50, 110
7, 48965, Note_on_c, 4, 55, 95
7, 48969, Note_on_c, 4, 62, 80
7, 48969, Note_on_c, 4, 59, 83
7, 48970, Note_on_c, 4, 67, 71
7, 48985, Note_on_c, 4, 59, 0
7, 48988, Note_on_c, 4, 55, 0
7, 49029, Note_on_c, 4, 62, 0
7, 49052, Note_on_c, 4, 67, 0
7, 49210, Note_on_c, 4, 67, 0
7, 49280, Note_on_c, 4, 67, 74
7, 49450, Note_on_c, 4, 59, 110
7, 49451, Note_on_c, 4, 59, 0
7, 49453, Note_on_c, 4, 67, 107
7, 49455, Note_on_c, 4, 62, 57
7, 49455, Note_on_c, 4, 42, 33
7, 49478, Note_on_c, 4, 62, 0
7, 49480, Note_on_c, 4, 62, 0
7, 49494, Note_on_c, 4, 50, 0
7, 49500, Note_on_c, 4, 67, 0
7, 49507, Note_on_c, 4, 42, 0
7, 49509, Note_on_c, 4, 59, 0
7, 49522, Note_on_c, 4, 55, 0
7, 49522, Note_on_c, 4, 67, 0
7, 49600, Note_on_c, 4, 66, 32
7, 49710, Note_on_c, 4, 66, 0
7, 49755, Note_on_c, 4, 67, 83
7, 49757, Note_on_c, 4, 62, 86
7, 49761, Note_on_c, 4, 59, 48
7, 49764, Note_on_c, 4, 55, 43
7, 49920, Note_on_c, 4, 62, 0
7, 49920, Note_on_c, 4, 59, 0
7, 49920, Note_on_c, 4, 55, 0
7, 49923, Note_on_c, 4, 50, 80
7, 49925, Note_on_c, 4, 55, 88
7, 49929, Note_on_c, 4, 59, 110
7, 49930, Note_on_c, 4, 62, 98
7, 50188, Note_on_c, 4, 67, 0
7, 50194, Note_on_c, 4, 62, 0
7, 50235, Note_on_c, 4, 67, 86
7, 50239, Note_on_c, 4, 62, 80
7, 50380, Note_on_c, 4, 59, 0
7, 50405, Note_on_c, 4, 50, 112
7, 50405, Note_on_c, 4, 42, 51
7, 50410, Note_on_c, 4, 60, 110
7, 50411, Note_on_c, 4, 67, 104
7, 50415, Note_on_c, 4, 50, 0
7, 50421, Note_on_c, 4, 42, 0
7, 50440, Note_on_c, 4, 60, 0
7, 50459, Note_on_c, 4, 67, 0
7, 50466, Note_on_c, 4, 50, 0
7, 50475, Note_on_c, 4, 67, 0
7, 50501, Note_on_c, 4, 62, 0
7, 50510, Note_on_c, 4, 55, 0
7, 50544, Note_on_c, 4, 59, 83
7, 50631, Note_on_c, 4, 59, 0
7, 50715, Note_on_c, 4, 67, 89
7, 50719, Note_on_c, 4, 62, 104
7, 50724, Note_on_c, 4, 59, 92
7, 50726, Note_on_c, 4, 55, 78
7, 50731, Note_on_c, 4, 50, 51
7, 51134, Note_on_c, 4, 67, 0
7, 51184, Note_on_c, 4, 62, 0
7, 51194, Note_on_c, 4, 67, 83
7, 51196, Note_on_c, 4, 62, 75
7, 51266, Note_on_c, 4, 42, 0
7, 51361, Note_on_c, 4, 42, 33
7, 51369, Note_on_c, 4, 59, 92
7, 51370, Note_on_c, 4, 67, 98
7, 51370, Note_on_c, 4, 62, 104
7, 51391, Note_on_c, 4, 67, 0
7, 51391, Note_on_c, 4, 62, 0
7, 51403, Note_on_c, 4, 59, 0
7, 51408, Note_on_c, 4, 55, 0
7, 51420, Note_on_c, 4, 59, 0
7, 51420, Note_on_c, 4, 62, 0
7, 51425, Note_on_c, 4, 50, 0
7, 51440, Note_on_c, 4, 67, 0
7, 51518, Note_on_c, 4, 66, 23
7, 51626, Note_on_c, 4, 66, 0
7, 51680, Note_on_c, 4, 62, 104
7, 51680, Note_on_c, 4, 67, 95
7, 51681, Note_on_c, 4, 59, 83
7, 51685, Note_on_c, 4, 55, 64
7, 51824, Note_on_c, 4, 50, 5
7, 51835, Note_on_c, 4, 55, 0
7, 51840, Note_on_c, 4, 62, 0
7, 51840, Note_on_c, 4, 67, 0
7, 51840, Note_on_c, 4, 50, 51
7, 51844, Note_on_c, 4, 55, 85
7, 51848, Note_on_c, 4, 62, 104
7, 51850, Note_on_c, 4, 67, 77
7, 51901, Note_on_c, 4, 50, 0
7, 52064, Note_on_c, 4, 67, 0
7, 52121, Note_on_c, 4, 62, 0
7, 52147, Note_on_c, 4, 59, 0
7, 52155, Note_on_c, 4, 67, 86
7, 52160, Note_on_c, 4, 62, 98
7, 52162, Note_on_c, 4, 59, 66
7, 52320, Note_on_c, 4, 42, 30
7, 52321, Note_on_c, 4, 42, 0
7, 52325, Note_on_c, 4, 59, 112
7, 52326, Note_on_c, 4, 67, 89
7, 52335, Note_on_c, 4, 59, 0
7, 52366, Note_on_c, 4, 55, 0
7, 52373, Note_on_c, 4, 50, 0
7, 52374, Note_on_c, 4, 67, 0
7, 52384, Note_on_c, 4, 62, 0
7, 52385, Note_on_c, 4, 59, 0
7, 52579, Note_on_c, 4, 67, 0
7, 52634, Note_on_c, 4, 67, 92
7, 52636, Note_on_c, 4, 62, 104
7, 52641, Note_on_c, 4, 59, 83
7, 52644, Note_on_c, 4, 55, 78
7, 52647, Note_on_c, 4, 50, 22
7, 52806, Note_on_c, 4, 62, 104
7, 52809, Note_on_c, 4, 67, 80
7, 52844, Note_on_c, 4, 62, 0
7, 52866, Note_on_c, 4, 67, 0
7, 53049, Note_on_c, 4, 67, 0
7, 53075, Note_on_c, 4, 62, 0
7, 53119, Note_on_c, 4, 67, 83
7, 53122, Note_on_c, 4, 62, 110
7, 53126, Note_on_c, 4, 59, 101
7, 53131, Note_on_c, 4, 55, 81
7, 53155, Note_on_c, 4, 59, 0
7, 53176, Note_on_c, 4, 55, 0
7, 53204, Note_on_c, 4, 50, 0
7, 53252, Note_on_c, 4, 59, 0
7, 53265, Note_on_c, 4, 50, 63
7, 53276, Note_on_c, 4, 42, 0
7, 53284, Note_on_c, 4, 62, 0
7, 53286, Note_on_c, 4, 59, 110
7, 53289, Note_on_c, 4, 63, 104
7, 53294, Note_on_c, 4, 62, 98
7, 53294, Note_on_c, 4, 67, 107
7, 53314, Note_on_c, 4, 63, 0
7, 53320, Note_on_c, 4, 67, 0
7, 53340, Note_on_c, 4, 67, 0
7, 53392, Note_on_c, 4, 62, 0
7, 53405, Note_on_c, 4, 55, 0
7, 53440, Note_on_c, 4, 66, 20
7, 53458, Note_on_c, 4, 59, 0
7, 53460, Note_on_c, 4, 50, 0
7, 53563, Note_on_c, 4, 66, 0
7, 53600, Note_on_c, 4, 66, 77
7, 53602, Note_on_c, 4, 61, 69
7, 53719, Note_on_c, 4, 61, 0
7, 53732, Note_on_c, 4, 66, 0
7, 53759, Note_on_c, 4, 68, 14
7, 53765, Note_on_c, 4, 52, 64
7, 53766, Note_on_c, 4, 59, 75
7, 53770, Note_on_c, 4, 62, 69
7, 53773, Note_on_c, 4, 68, 74
7, 53796, Note_on_c, 4, 52, 0
7, 53825, Note_on_c, 4, 68, 0
7, 53987, Note_on_c, 4, 68, 0
7, 54040, Note_on_c, 4, 62, 0
7, 54070, Note_on_c, 4, 59, 0
7, 54076, Note_on_c, 4, 68, 92
7, 54080, Note_on_c, 4, 62, 110
7, 54084, Note_on_c, 4, 59, 92
7, 54087, Note_on_c, 4, 53, 64
7, 54092, Note_on_c, 4, 47, 28
7, 54244, Note_on_c, 4, 62, 0
7, 54246, Note_on_c, 4, 62, 63
7, 54499, Note_on_c, 4, 68, 0
7, 54520, Note_on_c, 4, 62, 0
7, 54554, Note_on_c, 4, 68, 98
7, 54557, Note_on_c, 4, 62, 110
7, 54561, Note_on_c, 4, 59, 112
7, 54566, Note_on_c, 4, 53, 74
7, 54570, Note_on_c, 4, 59, 0
7, 54594, Note_on_c, 4, 53, 0
7, 54725, Note_on_c, 4, 68, 104
7, 54725, Note_on_c, 4, 62, 110
7, 54728, Note_on_c, 4, 62, 0
7, 54773, Note_on_c, 4, 68, 0
7, 54980, Note_on_c, 4, 68, 0
7, 55031, Note_on_c, 4, 62, 0
7, 55039, Note_on_c, 4, 68, 86
7, 55041, Note_on_c, 4, 62, 98
7, 55199, Note_on_c, 4, 47, 0
7, 55200, Note_on_c, 4, 47, 69
7, 55209, Note_on_c, 4, 59, 101
7, 55210, Note_on_c, 4, 68, 92
7, 55211, Note_on_c, 4, 53, 81
7, 55245, Note_on_c, 4, 59, 0
7, 55259, Note_on_c, 4, 53, 0
7, 55259, Note_on_c, 4, 68, 0
7, 55395, Note_on_c, 4, 53, 0
7, 55400, Note_on_c, 4, 68, 0
7, 55410, Note_on_c, 4, 59, 0
7, 55522, Note_on_c, 4, 66, 62
7, 55531, Note_on_c, 4, 61, 22
7, 55576, Note_on_c, 4, 62, 0
7, 55680, Note_on_c, 4, 47, 0
7, 55680, Note_on_c, 4, 66, 0
7, 55680, Note_on_c, 4, 61, 0
7, 55690, Note_on_c, 4, 57, 83
7, 55690, Note_on_c, 4, 47, 92
7, 55691, Note_on_c, 4, 61, 112
7, 55693, Note_on_c, 4, 66, 89
7, 55694, Note_on_c, 4, 52, 81
7, 55754, Note_on_c, 4, 47, 0
7, 55916, Note_on_c, 4, 66, 0
7, 55965, Note_on_c, 4, 61, 0
7, 55999, Note_on_c, 4, 66, 65
7, 56002, Note_on_c, 4, 61, 57
7, 56134, Note_on_c, 4, 66, 0
7, 56155, Note_on_c, 4, 52, 0
7, 56160, Note_on_c, 4, 57, 0
7, 56163, Note_on_c, 4, 49, 63
7, 56168, Note_on_c, 4, 57, 112
7, 56170, Note_on_c, 4, 52, 43
7, 56171, Note_on_c, 4, 69, 77
7, 56171, Note_on_c, 4, 61, 86
7, 56208, Note_on_c, 4, 61, 0
7, 56235, Note_on_c, 4, 52, 0
7, 56311, Note_on_c, 4, 53, 8
7, 56355, Note_on_c, 4, 69, 0
7, 56377, Note_on_c, 4, 61, 0
7, 56430, Note_on_c, 4, 53, 0
7, 56476, Note_on_c, 4, 69, 80
7, 56484, Note_on_c, 4, 61, 34
7, 56489, Note_on_c, 4, 52, 25
7, 56555, Note_on_c, 4, 52, 0
7, 56639, Note_on_c, 4, 45, 38
7, 56645, Note_on_c, 4, 49, 86
7, 56650, Note_on_c, 4, 52, 50
7, 56650, Note_on_c, 4, 61, 86
7, 56655, Note_on_c, 4, 49, 0
7, 56669, Note_on_c, 4, 61, 0
7, 56903, Note_on_c, 4, 69, 0
7, 56906, Note_on_c, 4, 61, 0
7, 56954, Note_on_c, 4, 69, 83
7, 56956, Note_on_c, 4, 61, 80
7, 57112, Note_on_c, 4, 57, 0
7, 57112, Note_on_c, 4, 52, 0
7, 57125, Note_on_c, 4, 57, 112
7, 57126, Note_on_c, 4, 52, 32
7, 57156, Note_on_c, 4, 45, 0
7, 57174, Note_on_c, 4, 69, 0
7, 57274, Note_on_c, 4, 66, 5
7, 57418, Note_on_c, 4, 66, 0
7, 57430, Note_on_c, 4, 66, 62
7, 57501, Note_on_c, 4, 49, 0
7, 57501, Note_on_c, 4, 52, 0
7, 57539, Note_on_c, 4, 66, 0
7, 57585, Note_on_c, 4, 53, 5
7, 57600, Note_on_c, 4, 61, 0
7, 57600, Note_on_c, 4, 57, 0
7, 57603, Note_on_c, 4, 45, 38
7, 57603, Note_on_c, 4, 50, 104
7, 57608, Note_on_c, 4, 54, 85
7, 57608, Note_on_c, 4, 57, 92
7, 57608, Note_on_c, 4, 67, 68
7, 57608, Note_on_c, 4, 62, 98
7, 57655, Note_on_c, 4, 67, 0
7, 57692, Note_on_c, 4, 53, 0
7, 57745, Note_on_c, 4, 66, 44
7, 57880, Note_on_c, 4, 62, 0
7, 57893, Note_on_c, 4, 54, 0
7, 57910, Note_on_c, 4, 66, 74
7, 57919, Note_on_c, 4, 62, 92
7, 57920, Note_on_c, 4, 54, 71
7, 57932, Note_on_c, 4, 66, 0
7, 58088, Note_on_c, 4, 66, 65
7, 58100, Note_on_c, 4, 66, 0
7, 58115, Note_on_c, 4, 45, 0
7, 58120, Note_on_c, 4, 50, 0
7, 58128, Note_on_c, 4, 54, 0
7, 58160, Note_on_c, 4, 62, 0
7, 58349, Note_on_c, 4, 66, 0
7, 58396, Note_on_c, 4, 66, 62
7, 58400, Note_on_c, 4, 62, 92
7, 58406, Note_on_c, 4, 54, 57
7, 58420, Note_on_c, 4, 66, 0
7, 58547, Note_on_c, 4, 54, 0
7, 58561, Note_on_c, 4, 50, 86
7, 58563, Note_on_c, 4, 54, 85
7, 58565, Note_on_c, 4, 62, 104
7, 58568, Note_on_c, 4, 66, 77
7, 58588, Note_on_c, 4, 62, 0
7, 58730, Note_on_c, 4, 45, 5
7, 58861, Note_on_c, 4, 62, 0
7, 58862, Note_on_c, 4, 66, 0
7, 58884, Note_on_c, 4, 66, 65
7, 59012, Note_on_c, 4, 66, 0
7, 59045, Note_on_c, 4, 63, 98
7, 59048, Note_on_c, 4, 66, 89
7, 59049, Note_on_c, 4, 57, 92
7, 59050, Note_on_c, 4, 62, 98
7, 59054, Note_on_c, 4, 57, 0
7, 59070, Note_on_c, 4, 45, 0
7, 59070, Note_on_c, 4, 63, 0
7, 59124, Note_on_c, 4, 50, 0
7, 59163, Note_on_c, 4, 54, 0
7, 59181, Note_on_c, 4, 62, 0
7, 59335, Note_on_c, 4, 66, 0
7, 59360, Note_on_c, 4, 66, 44
7, 59364, Note_on_c, 4, 61, 5
7, 59510, Note_on_c, 4, 57, 0
7, 59520, Note_on_c, 4, 66, 0
7, 59520, Note_on_c, 4, 61, 0
7, 59524, Note_on_c, 4, 52, 57
7, 59525, Note_on_c, 4, 59, 83
7, 59529, Note_on_c, 4, 68, 92
7, 59534, Note_on_c, 4, 64, 92
7, 59658, Note_on_c, 4, 52, 0
7, 59810, Note_on_c, 4, 68, 0
7, 59841, Note_on_c, 4, 68, 77
7, 60000, Note_on_c, 4, 52, 29
7, 60005, Note_on_c, 4, 68, 110
7, 60024, Note_on_c, 4, 68, 0
7, 60241, Note_on_c, 4, 52, 0
7, 60275, Note_on_c, 4, 68, 0
7, 60321, Note_on_c, 4, 68, 83
7, 60485, Note_on_c, 4, 68, 112
7, 60501, Note_on_c, 4, 68, 0
7, 60782, Note_on_c, 4, 68, 0
7, 60801, Note_on_c, 4, 68, 89
7, 60810, Note_on_c, 4, 52, 8
7, 60925, Note_on_c, 4, 52, 0
7, 60945, Note_on_c, 4, 64, 0
7, 60961, Note_on_c, 4, 52, 85
7, 60966, Note_on_c, 4, 68, 89
7, 60985, Note_on_c, 4, 68, 0
7, 60989, Note_on_c, 4, 68, 0
7, 60995, Note_on_c, 4, 59, 0
7, 61105, Note_on_c, 4, 66, 38
7, 61275, Note_on_c, 4, 66, 68
7, 61279, Note_on_c, 4, 61, 63
7, 61315, Note_on_c, 4, 66, 0
7, 61373, Note_on_c, 4, 66, 0
7, 61430, Note_on_c, 4, 61, 0
7, 61445, Note_on_c, 4, 49, 80
7, 61449, Note_on_c, 4, 69, 107
7, 61450, Note_on_c, 4, 57, 101
7, 61599, Note_on_c, 4, 52, 0
7, 61600, Note_on_c, 4, 53, 8
7, 61705, Note_on_c, 4, 69, 0
7, 61715, Note_on_c, 4, 57, 0
7, 61813, Note_on_c, 4, 49, 0
7, 61836, Note_on_c, 4, 53, 0
7, 63359, Note_on_c, 4, 50, 112
7, 63360, Note_on_c, 4, 45, 79
7, 63361, Note_on_c, 4, 54, 109
7, 63361, Note_on_c, 4, 66, 86
7, 63364, Note_on_c, 4, 63, 104
7, 63365, Note_on_c, 4, 57, 75
7, 63370, Note_on_c, 4, 62, 104
7, 63384, Note_on_c, 4, 66, 0
7, 63390, Note_on_c, 4, 63, 0
7, 63685, Note_on_c, 4, 66, 35
7, 63710, Note_on_c, 4, 66, 0
7, 63850, Note_on_c, 4, 62, 98
7, 63850, Note_on_c, 4, 57, 101
7, 63851, Note_on_c, 4, 62, 0
7, 63871, Note_on_c, 4, 62, 0
7, 63876, Note_on_c, 4, 57, 0
7, 63889, Note_on_c, 4, 50, 0
7, 63893, Note_on_c, 4, 45, 0
7, 63942, Note_on_c, 4, 54, 0
7, 63985, Note_on_c, 4, 66, 23
7, 63988, Note_on_c, 4, 61, 28
7, 64126, Note_on_c, 4, 57, 0
7, 64157, Note_on_c, 4, 62, 98
7, 64162, Note_on_c, 4, 57, 83
7, 64165, Note_on_c, 4, 54, 81
7, 64169, Note_on_c, 4, 50, 57
7, 64172, Note_on_c, 4, 45, 10
7, 64196, Note_on_c, 4, 61, 0
7, 64302, Note_on_c, 4, 54, 0
7, 64305, Note_on_c, 4, 66, 0
7, 64325, Note_on_c, 4, 54, 92
7, 64330, Note_on_c, 4, 66, 65
7, 64610, Note_on_c, 4, 66, 0
7, 64642, Note_on_c, 4, 66, 44
7, 64645, Note_on_c, 4, 62, 0
7, 64645, Note_on_c, 4, 62, 69
7, 64650, Note_on_c, 4, 57, 48
7, 64690, Note_on_c, 4, 57, 0
7, 64740, Note_on_c, 4, 66, 0
7, 64790, Note_on_c, 4, 62, 0
7, 64809, Note_on_c, 4, 62, 104
7, 64809, Note_on_c, 4, 66, 83
7, 64811, Note_on_c, 4, 57, 110
7, 64815, Note_on_c, 4, 57, 0
7, 64831, Note_on_c, 4, 66, 0
7, 64838, Note_on_c, 4, 54, 0
7, 64851, Note_on_c, 4, 50, 0
7, 64885, Note_on_c, 4, 45, 0
7, 64965, Note_on_c, 4, 57, 0
7, 65080, Note_on_c, 4, 62, 0
7, 65115, Note_on_c, 4, 66, 62
7, 65119, Note_on_c, 4, 62, 98
7, 65121, Note_on_c, 4, 57, 57
7, 65125, Note_on_c, 4, 54, 60
7, 65130, Note_on_c, 4, 50, 16
7, 65140, Note_on_c, 4, 66, 0
7, 65246, Note_on_c, 4, 50, 0
7, 65270, Note_on_c, 4, 54, 0
7, 65277, Note_on_c, 4, 45, 28
7, 65280, Note_on_c, 4, 50, 98
7, 65283, Note_on_c, 4, 54, 98
7, 65290, Note_on_c, 4, 66, 56
7, 65535, Note_on_c, 4, 66, 0
7, 65594, Note_on_c, 4, 62, 0
7, 65595, Note_on_c, 4, 66, 65
7, 65599, Note_on_c, 4, 62, 75
7, 65765, Note_on_c, 4, 44, 30
7, 65766, Note_on_c, 4, 62, 98
7, 65768, Note_on_c, 4, 66, 74
7, 65783, Note_on_c, 4, 50, 0
7, 65790, Note_on_c, 4, 45, 0
7, 65795, Note_on_c, 4, 44, 0
7, 65798, Note_on_c, 4, 62, 0
7, 65815, Note_on_c, 4, 66, 0
7, 65820, Note_on_c, 4, 54, 0
7, 66003, Note_on_c, 4, 66, 0
7, 66005, Note_on_c, 4, 57, 0
7, 66045, Note_on_c, 4, 62, 0
7, 66076, Note_on_c, 4, 66, 62
7, 66079, Note_on_c, 4, 62, 80
7, 66081, Note_on_c, 4, 57, 57
7, 66085, Note_on_c, 4, 54, 57
7, 66090, Note_on_c, 4, 50, 16
7, 66220, Note_on_c, 4, 54, 0
7, 66240, Note_on_c, 4, 54, 88
7, 66245, Note_on_c, 4, 66, 65
7, 66285, Note_on_c, 4, 66, 0
7, 66440, Note_on_c, 4, 66, 0
7, 66530, Note_on_c, 4, 62, 0
7, 66555, Note_on_c, 4, 66, 65
7, 66559, Note_on_c, 4, 62, 69
7, 66721, Note_on_c, 4, 54, 112
7, 66725, Note_on_c, 4, 54, 0
7, 66726, Note_on_c, 4, 66, 74
7, 66770, Note_on_c, 4, 50, 0
7, 66771, Note_on_c, 4, 66, 0
7, 66816, Note_on_c, 4, 54, 0
7, 66885, Note_on_c, 4, 52, 5
7, 66951, Note_on_c, 4, 66, 0
7, 66968, Note_on_c, 4, 52, 0
7, 67021, Note_on_c, 4, 62, 0
7, 67025, Note_on_c, 4, 57, 0
7, 67034, Note_on_c, 4, 66, 65
7, 67036, Note_on_c, 4, 62, 75
7, 67041, Note_on_c, 4, 57, 31
7, 67042, Note_on_c, 4, 54, 46
7, 67197, Note_on_c, 4, 54, 0
7, 67200, Note_on_c, 4, 66, 0
7, 67200, Note_on_c, 4, 62, 0
7, 67200, Note_on_c, 4, 57, 0
7, 67200, Note_on_c, 4, 50, 75
7, 67204, Note_on_c, 4, 59, 101
7, 67204, Note_on_c, 4, 43, 10
7, 67205, Note_on_c, 4, 55, 98
7, 67205, Note_on_c, 4, 67, 104
7, 67205, Note_on_c, 4, 63, 104
7, 67214, Note_on_c, 4, 62, 69
7, 67251, Note_on_c, 4, 63, 0
7, 67401, Note_on_c, 4, 55, 0
7, 67449, Note_on_c, 4, 62, 0
7, 67460, Note_on_c, 4, 50, 0
7, 67488, Note_on_c, 4, 67, 0
7, 67555, Note_on_c, 4, 43, 0
7, 67605, Note_on_c, 4, 59, 0
7, 67685, Note_on_c, 4, 43, 48
7, 67685, Note_on_c, 4, 55, 112
7, 67686, Note_on_c, 4, 59, 101
7, 67690, Note_on_c, 4, 67, 109
7, 67691, Note_on_c, 4, 62, 75
7, 67693, Note_on_c, 4, 50, 112
7, 67705, Pitch_bend_c, 4, 6998
7, 67708, Pitch_bend_c, 4, 8192
7, 67905, Note_on_c, 4, 50, 0
7, 67921, Note_on_c, 4, 62, 0
7, 67938, Note_on_c, 4, 55, 0
7, 67974, Note_on_c, 4, 59, 0
7, 67987, Note_on_c, 4, 67, 0
7, 68165, Note_on_c, 4, 42, 46
7, 68166, Note_on_c, 4, 50, 112
7, 68169, Note_on_c, 4, 43, 0
7, 68169, Note_on_c, 4, 55, 109
7, 68171, Note_on_c, 4, 62, 98
7, 68171, Note_on_c, 4, 59, 110
7, 68176, Note_on_c, 4, 67, 107
7, 68408, Note_on_c, 4, 67, 0
7, 68413, Note_on_c, 4, 55, 0
7, 68429, Note_on_c, 4, 50, 0
7, 68520, Note_on_c, 4, 59, 0
7, 68536, Note_on_c, 4, 62, 0
7, 68645, Note_on_c, 4, 50, 69
7, 68646, Note_on_c, 4, 55, 95
7, 68649, Note_on_c, 4, 59, 92
7, 68650, Note_on_c, 4, 62, 34
7, 68650, Note_on_c, 4, 67, 107
7, 68676, Note_on_c, 4, 42, 0
7, 68849, Note_on_c, 4, 55, 0
7, 68870, Note_on_c, 4, 67, 0
7, 68875, Note_on_c, 4, 50, 0
7, 68909, Note_on_c, 4, 59, 0
7, 69034, Note_on_c, 4, 62, 0
7, 69125, Note_on_c, 4, 50, 28
7, 69126, Note_on_c, 4, 54, 78
7, 69130, Note_on_c, 4, 57, 110
7, 69131, Note_on_c, 4, 62, 98
7, 69131, Note_on_c, 4, 66, 80
7, 69410, Note_on_c, 4, 62, 0
7, 69413, Note_on_c, 4, 66, 0
7, 69442, Note_on_c, 4, 62, 92
7, 69592, Note_on_c, 4, 54, 0
7, 69604, Note_on_c, 4, 45, 43
7, 69605, Note_on_c, 4, 54, 102
7, 69613, Note_on_c, 4, 66, 50
7, 69635, Note_on_c, 4, 66, 0
7, 69648, Note_on_c, 4, 50, 0
7, 69666, Note_on_c, 4, 54, 0
7, 69669, Note_on_c, 4, 45, 0
7, 69735, Note_on_c, 4, 62, 0
7, 69905, Note_on_c, 4, 54, 11
7, 69915, Note_on_c, 4, 66, 53
7, 69917, Note_on_c, 4, 62, 86
7, 69924, Note_on_c, 4, 54, 50
7, 69925, Note_on_c, 4, 67, 11
7, 69940, Note_on_c, 4, 66, 0
7, 69963, Note_on_c, 4, 57, 0
7, 69995, Note_on_c, 4, 54, 0
7, 70080, Note_on_c, 4, 54, 0
7, 70080, Note_on_c, 4, 45, 25
7, 70081, Note_on_c, 4, 50, 40
7, 70084, Note_on_c, 4, 54, 67
7, 70086, Note_on_c, 4, 57, 31
7, 70089, Note_on_c, 4, 62, 98
7, 70131, Note_on_c, 4, 62, 0
7, 70346, Note_on_c, 4, 67, 0
7, 70351, Note_on_c, 4, 62, 0
7, 70399, Note_on_c, 4, 66, 59
7, 70400, Note_on_c, 4, 57, 0
7, 70405, Note_on_c, 4, 62, 75
7, 70405, Note_on_c, 4, 57, 40
7, 70409, Note_on_c, 4, 67, 20
7, 70422, Note_on_c, 4, 66, 0
7, 70514, Note_on_c, 4, 67, 0
7, 70565, Note_on_c, 4, 44, 35
7, 70569, Note_on_c, 4, 54, 102
7, 70570, Note_on_c, 4, 57, 110
7, 70583, Note_on_c, 4, 45, 0
7, 70585, Note_on_c, 4, 57, 0
7, 70586, Note_on_c, 4, 54, 0
7, 70600, Note_on_c, 4, 54, 0
7, 70622, Note_on_c, 4, 50, 0
7, 70641, Note_on_c, 4, 62, 0
7, 70657, Note_on_c, 4, 44, 0
7, 70879, Note_on_c, 4, 52, 48
7, 70882, Note_on_c, 4, 66, 59
7, 70886, Note_on_c, 4, 61, 57
7, 71034, Note_on_c, 4, 61, 0
7, 71040, Note_on_c, 4, 57, 0
7, 71040, Note_on_c, 4, 52, 0
7, 71040, Note_on_c, 4, 66, 0
7, 71040, Note_on_c, 4, 52, 75
7, 71044, Note_on_c, 4, 45, 10
7, 71044, Note_on_c, 4, 61, 101
7, 71045, Note_on_c, 4, 65, 104
7, 71045, Note_on_c, 4, 69, 104
7, 71045, Note_on_c, 4, 57, 98
7, 71054, Note_on_c, 4, 64, 69
7, 71091, Note_on_c, 4, 65, 0
7, 71241, Note_on_c, 4, 57, 0
7, 71289, Note_on_c, 4, 64, 0
7, 71300, Note_on_c, 4, 52, 0
7, 71328, Note_on_c, 4, 69, 0
7, 71395, Note_on_c, 4, 45, 0
7, 71445, Note_on_c, 4, 61, 0
7, 71525, Note_on_c, 4, 45, 48
7, 71525, Note_on_c, 4, 57, 112
7, 71526, Note_on_c, 4, 61, 101
7, 71530, Note_on_c, 4, 69, 109
7, 71531, Note_on_c, 4, 64, 75
7, 71533, Note_on_c, 4, 52, 112
7, 71745, Note_on_c, 4, 52, 0
7, 71761, Note_on_c, 4, 64, 0
7, 71778, Note_on_c, 4, 57, 0
7, 71814, Note_on_c, 4, 61, 0
7, 71827, Note_on_c, 4, 69, 0
7, 72005, Note_on_c, 4, 44, 46
7, 72006, Note_on_c, 4, 52, 112
7, 72009, Note_on_c, 4, 45, 0
7, 72009, Note_on_c, 4, 57, 109
7, 72011, Note_on_c, 4, 61, 110
7, 72011, Note_on_c, 4, 64, 98
7, 72016, Note_on_c, 4, 69, 107
7, 72248, Note_on_c, 4, 69, 0
7, 72253, Note_on_c, 4, 57, 0
7, 72269, Note_on_c, 4, 52, 0
7, 72360, Note_on_c, 4, 61, 0
7, 72376, Note_on_c, 4, 64, 0
7, 72485, Note_on_c, 4, 52, 69
7, 72486, Note_on_c, 4, 57, 95
7, 72489, Note_on_c, 4, 61, 92
7, 72490, Note_on_c, 4, 69, 107
7, 72490, Note_on_c, 4, 64, 34
7, 72516, Note_on_c, 4, 44, 0
7, 72689, Note_on_c, 4, 57, 0
7, 72710, Note_on_c, 4, 69, 0
7, 72715, Note_on_c, 4, 52, 0
7, 72749, Note_on_c, 4, 61, 0
7, 72874, Note_on_c, 4, 64, 0
7, 72965, Note_on_c, 4, 50, 28
7, 72966, Note_on_c, 4, 54, 78
7, 72970, Note_on_c, 4, 57, 110
7, 72971, Note_on_c, 4, 62, 98
7, 72971, Note_on_c, 4, 66, 80
7, 73250, Note_on_c, 4, 62, 0
7, 73253, Note_on_c, 4, 66, 0
7, 73282, Note_on_c, 4, 62, 92
7, 73432, Note_on_c, 4, 54, 0
7, 73444, Note_on_c, 4, 45, 43
7, 73445, Note_on_c, 4, 54, 102
7, 73453, Note_on_c, 4, 66, 50
7, 73475, Note_on_c, 4, 66, 0
7, 73488, Note_on_c, 4, 50, 0
7, 73506, Note_on_c, 4, 54, 0
7, 73509, Note_on_c, 4, 45, 0
7, 73575, Note_on_c, 4, 62, 0
7, 73745, Note_on_c, 4, 54, 11
7, 73755, Note_on_c, 4, 66, 53
7, 73757, Note_on_c, 4, 62, 86
7, 73764, Note_on_c, 4, 54, 50
7, 73765, Note_on_c, 4, 67, 11
7, 73780, Note_on_c, 4, 66, 0
7, 73803, Note_on_c, 4, 57, 0
7, 73835, Note_on_c, 4, 54, 0
7, 73920, Note_on_c, 4, 54, 0
7, 73920, Note_on_c, 4, 45, 25
7, 73921, Note_on_c, 4, 50, 40
7, 73924, Note_on_c, 4, 54, 67
7, 73926, Note_on_c, 4, 57, 31
7, 73929, Note_on_c, 4, 62, 98
7, 73971, Note_on_c, 4, 62, 0
7, 74186, Note_on_c, 4, 67, 0
7, 74191, Note_on_c, 4, 62, 0
7, 74239, Note_on_c, 4, 66, 59
7, 74240, Note_on_c, 4, 57, 0
7, 74245, Note_on_c, 4, 57, 40
7, 74245, Note_on_c, 4, 62, 75
7, 74249, Note_on_c, 4, 67, 20
7, 74262, Note_on_c, 4, 66, 0
7, 74354, Note_on_c, 4, 67, 0
7, 74405, Note_on_c, 4, 44, 35
7, 74409, Note_on_c, 4, 54, 102
7, 74410, Note_on_c, 4, 57, 110
7, 74423, Note_on_c, 4, 45, 0
7, 74425, Note_on_c, 4, 57, 0
7, 74426, Note_on_c, 4, 54, 0
7, 74440, Note_on_c, 4, 54, 0
7, 74462, Note_on_c, 4, 50, 0
7, 74481, Note_on_c, 4, 62, 0
7, 74497, Note_on_c, 4, 44, 0
7, 74719, Note_on_c, 4, 52, 48
7, 74722, Note_on_c, 4, 66, 59
7, 74726, Note_on_c, 4, 61, 57
7, 74874, Note_on_c, 4, 61, 0
7, 74880, Note_on_c, 4, 57, 0
7, 74880, Note_on_c, 4, 52, 0
7, 74880, Note_on_c, 4, 66, 0
7, 74880, Note_on_c, 4, 50, 75
7, 74884, Note_on_c, 4, 59, 101
7, 74884, Note_on_c, 4, 43, 10
7, 74885, Note_on_c, 4, 63, 104
7, 74885, Note_on_c, 4, 55, 98
7, 74885, Note_on_c, 4, 67, 104
7, 74894, Note_on_c, 4, 62, 69
7, 74931, Note_on_c, 4, 63, 0
7, 75081, Note_on_c, 4, 55, 0
7, 75129, Note_on_c, 4, 62, 0
7, 75140, Note_on_c, 4, 50, 0
7, 75168, Note_on_c, 4, 67, 0
7, 75235, Note_on_c, 4, 43, 0
7, 75285, Note_on_c, 4, 59, 0
7, 75365, Note_on_c, 4, 55, 112
7, 75365, Note_on_c, 4, 43, 48
7, 75366, Note_on_c, 4, 59, 101
7, 75370, Note_on_c, 4, 67, 109
7, 75371, Note_on_c, 4, 62, 75
7, 75373, Note_on_c, 4, 50, 112
7, 75585, Note_on_c, 4, 50, 0
7, 75601, Note_on_c, 4, 62, 0
7, 75618, Note_on_c, 4, 55, 0
7, 75654, Note_on_c, 4, 59, 0
7, 75667, Note_on_c, 4, 67, 0
7, 75845, Note_on_c, 4, 42, 46
7, 75846, Note_on_c, 4, 50, 112
7, 75849, Note_on_c, 4, 43, 0
7, 75849, Note_on_c, 4, 55, 109
7, 75851, Note_on_c, 4, 62, 98
7, 75851, Note_on_c, 4, 59, 110
7, 75856, Note_on_c, 4, 67, 107
7, 76088, Note_on_c, 4, 67, 0
7, 76093, Note_on_c, 4, 55, 0
7, 76109, Note_on_c, 4, 50, 0
7, 76200, Note_on_c, 4, 59, 0
7, 76216, Note_on_c, 4, 62, 0
7, 76325, Note_on_c, 4, 50, 69
7, 76326, Note_on_c, 4, 55, 95
7, 76329, Note_on_c, 4, 59, 92
7, 76330, Note_on_c, 4, 62, 34
7, 76330, Note_on_c, 4, 67, 107
7, 76356, Note_on_c, 4, 42, 0
7, 76529, Note_on_c, 4, 55, 0
7, 76550, Note_on_c, 4, 67, 0
7, 76555, Note_on_c, 4, 50, 0
7, 76589, Note_on_c, 4, 59, 0
7, 76714, Note_on_c, 4, 62, 0
7, 76805, Note_on_c, 4, 50, 28
7, 76806, Note_on_c, 4, 54, 78
7, 76810, Note_on_c, 4, 57, 110
7, 76811, Note_on_c, 4, 66, 80
7, 76811, Note_on_c, 4, 62, 98
7, 77090, Note_on_c, 4, 62, 0
7, 77093, Note_on_c, 4, 66, 0
7, 77122, Note_on_c, 4, 62, 92
7, 77272, Note_on_c, 4, 54, 0
7, 77284, Note_on_c, 4, 45, 43
7, 77285, Note_on_c, 4, 54, 102
7, 77293, Note_on_c, 4, 66, 50
7, 77315, Note_on_c, 4, 66, 0
7, 77328, Note_on_c, 4, 50, 0
7, 77346, Note_on_c, 4, 54, 0
7, 77349, Note_on_c, 4, 45, 0
7, 77415, Note_on_c, 4, 62, 0
7, 77585, Note_on_c, 4, 54, 11
7, 77595, Note_on_c, 4, 66, 53
7, 77597, Note_on_c, 4, 62, 86
7, 77604, Note_on_c, 4, 54, 50
7, 77605, Note_on_c, 4, 67, 11
7, 77620, Note_on_c, 4, 66, 0
7, 77643, Note_on_c, 4, 57, 0
7, 77675, Note_on_c, 4, 54, 0
7, 77760, Note_on_c, 4, 54, 0
7, 77760, Note_on_c, 4, 45, 25
7, 77761, Note_on_c, 4, 50, 40
7, 77764, Note_on_c, 4, 54, 67
7, 77766, Note_on_c, 4, 57, 31
7, 77769, Note_on_c, 4, 62, 98
7, 77811, Note_on_c, 4, 62, 0
7, 78026, Note_on_c, 4, 67, 0
7, 78031, Note_on_c, 4, 62, 0
7, 78079, Note_on_c, 4, 66, 59
7, 78080, Note_on_c, 4, 57, 0
7, 78085, Note_on_c, 4, 57, 40
7, 78085, Note_on_c, 4, 62, 75
7, 78089, Note_on_c, 4, 67, 20
7, 78102, Note_on_c, 4, 66, 0
7, 78194, Note_on_c, 4, 67, 0
7, 78245, Note_on_c, 4, 44, 35
7, 78249, Note_on_c, 4, 54, 102
7, 78250, Note_on_c, 4, 57, 110
7, 78263, Note_on_c, 4, 45, 0
7, 78265, Note_on_c, 4, 57, 0
7, 78266, Note_on_c, 4, 54, 0
7, 78280, Note_on_c, 4, 54, 0
7, 78302, Note_on_c, 4, 50, 0
7, 78321, Note_on_c, 4, 62, 0
7, 78337, Note_on_c, 4, 44, 0
7, 78559, Note_on_c, 4, 52, 48
7, 78562, Note_on_c, 4, 66, 59
7, 78566, Note_on_c, 4, 61, 57
7, 78714, Note_on_c, 4, 61, 0
7, 78720, Note_on_c, 4, 57, 0
7, 78720, Note_on_c, 4, 52, 0
7, 78720, Note_on_c, 4, 66, 0
7, 78725, Note_on_c, 4, 52, 88
7, 78728, Note_on_c, 4, 59, 101
7, 78729, Note_on_c, 4, 68, 101
7, 78734, Note_on_c, 4, 64, 104
7, 78785, Note_on_c, 4, 52, 0
7, 78871, Note_on_c, 4, 52, 25
7, 78979, Note_on_c, 4, 68, 0
7, 79016, Note_on_c, 4, 59, 0
7, 79040, Note_on_c, 4, 68, 47
7, 79060, Note_on_c, 4, 68, 0
7, 79205, Note_on_c, 4, 59, 92
7, 79208, Note_on_c, 4, 68, 112
7, 79210, Note_on_c, 4, 52, 46
7, 79236, Note_on_c, 4, 52, 0
7, 79285, Note_on_c, 4, 52, 0
7, 79480, Note_on_c, 4, 68, 0
7, 79512, Note_on_c, 4, 59, 0
7, 79547, Note_on_c, 4, 64, 0
7, 79681, Note_on_c, 4, 52, 105
7, 79683, Note_on_c, 4, 59, 83
7, 79685, Note_on_c, 4, 65, 98
7, 79685, Note_on_c, 4, 68, 107
7, 79690, Note_on_c, 4, 64, 92
7, 79711, Note_on_c, 4, 65, 0
7, 79953, Note_on_c, 4, 68, 0
7, 79975, Note_on_c, 4, 59, 0
7, 80164, Note_on_c, 4, 59, 110
7, 80166, Note_on_c, 4, 68, 112
7, 80320, Note_on_c, 4, 63, 28
7, 80323, Note_on_c, 4, 64, 0
7, 80330, Note_on_c, 4, 68, 0
7, 80344, Note_on_c, 4, 63, 0
7, 80345, Note_on_c, 4, 59, 0
7, 80485, Note_on_c, 4, 66, 47
7, 80561, Note_on_c, 4, 66, 0
7, 80594, Note_on_c, 4, 52, 0
7, 80640, Note_on_c, 4, 52, 75
7, 80644, Note_on_c, 4, 45, 10
7, 80644, Note_on_c, 4, 61, 101
7, 80645, Note_on_c, 4, 57, 98
7, 80645, Note_on_c, 4, 65, 104
7, 80645, Note_on_c, 4, 69, 104
7, 80654, Note_on_c, 4, 64, 69
7, 80691, Note_on_c, 4, 65, 0
7, 80841, Note_on_c, 4, 57, 0
7, 80889, Note_on_c, 4, 64, 0
7, 80900, Note_on_c, 4, 52, 0
7, 80928, Note_on_c, 4, 69, 0
7, 80995, Note_on_c, 4, 45, 0
7, 81045, Note_on_c, 4, 61, 0
7, 81125, Note_on_c, 4, 45, 48
7, 81125, Note_on_c, 4, 57, 112
7, 81126, Note_on_c, 4, 61, 101
7, 81130, Note_on_c, 4, 69, 109
7, 81131, Note_on_c, 4, 64, 75
7, 81133, Note_on_c, 4, 52, 112
7, 81145, Pitch_bend_c, 4, 6998
7, 81148, Pitch_bend_c, 4, 8192
7, 81345, Note_on_c, 4, 52, 0
7, 81361, Note_on_c, 4, 64, 0
7, 81378, Note_on_c, 4, 57, 0
7, 81414, Note_on_c, 4, 61, 0
7, 81427, Note_on_c, 4, 69, 0
7, 81605, Note_on_c, 4, 44, 46
7, 81606, Note_on_c, 4, 52, 112
7, 81609, Note_on_c, 4, 45, 0
7, 81609, Note_on_c, 4, 57, 109
7, 81611, Note_on_c, 4, 64, 98
7, 81611, Note_on_c, 4, 61, 110
7, 81616, Note_on_c, 4, 69, 107
7, 81848, Note_on_c, 4, 69, 0
7, 81853, Note_on_c, 4, 57, 0
7, 81869, Note_on_c, 4, 52, 0
7, 81960, Note_on_c, 4, 61, 0
7, 81976, Note_on_c, 4, 64, 0
7, 82085, Note_on_c, 4, 52, 69
7, 82086, Note_on_c, 4, 57, 95
7, 82089, Note_on_c, 4, 61, 92
7, 82090, Note_on_c, 4, 64, 34
7, 82090, Note_on_c, 4, 69, 107
7, 82116, Note_on_c, 4, 44, 0
7, 82289, Note_on_c, 4, 57, 0
7, 82310, Note_on_c, 4, 69, 0
7, 82315, Note_on_c, 4, 52, 0
7, 82349, Note_on_c, 4, 61, 0
7, 82474, Note_on_c, 4, 64, 0
7, 82560, Note_on_c, 4, 57, 92
7, 82560, Note_on_c, 4, 62, 98
7, 82560, Note_on_c, 4, 66, 83
7, 82560, Note_on_c, 4, 54, 71
7, 82565, Note_on_c, 4, 45, 61
7, 82565, Note_on_c, 4, 50, 112
7, 82815, Note_on_c, 4, 66, 0
7, 82875, Note_on_c, 4, 62, 0
7, 82875, Note_on_c, 4, 66, 65
7, 82879, Note_on_c, 4, 62, 75
7, 83049, Note_on_c, 4, 66, 77
7, 83050, Note_on_c, 4, 57, 75
7, 83050, Note_on_c, 4, 62, 80
7, 83076, Note_on_c, 4, 45, 0
7, 83086, Note_on_c, 4, 57, 0
7, 83094, Note_on_c, 4, 62, 0
7, 83098, Note_on_c, 4, 66, 0
7, 83101, Note_on_c, 4, 66, 0
7, 83101, Note_on_c, 4, 57, 0
7, 83120, Note_on_c, 4, 50, 0
7, 83122, Note_on_c, 4, 54, 0
7, 83298, Note_on_c, 4, 62, 0
7, 83352, Note_on_c, 4, 66, 83
7, 83355, Note_on_c, 4, 62, 98
7, 83359, Note_on_c, 4, 57, 75
7, 83362, Note_on_c, 4, 54, 53
7, 83365, Note_on_c, 4, 50, 16
7, 83775, Note_on_c, 4, 66, 0
7, 83837, Note_on_c, 4, 66, 74
7, 83841, Note_on_c, 4, 62, 86
7, 83846, Note_on_c, 4, 62, 0
7, 83851, Note_on_c, 4, 57, 48
7, 83899, Note_on_c, 4, 57, 0
7, 84010, Note_on_c, 4, 57, 0
7, 84011, Note_on_c, 4, 57, 110
7, 84014, Note_on_c, 4, 66, 86
7, 84015, Note_on_c, 4, 62, 98
7, 84065, Note_on_c, 4, 62, 0
7, 84076, Note_on_c, 4, 66, 0
7, 84095, Note_on_c, 4, 54, 0
7, 84110, Note_on_c, 4, 50, 0
7, 84243, Note_on_c, 4, 62, 0
7, 84265, Note_on_c, 4, 66, 0
7, 84290, Note_on_c, 4, 57, 0
7, 84320, Note_on_c, 4, 66, 77
7, 84322, Note_on_c, 4, 62, 92
7, 84330, Note_on_c, 4, 57, 48
7, 84331, Note_on_c, 4, 54, 53
7, 84335, Note_on_c, 4, 50, 5
7, 84467, Note_on_c, 4, 50, 0
7, 84488, Note_on_c, 4, 45, 28
7, 84490, Note_on_c, 4, 50, 57
7, 84743, Note_on_c, 4, 66, 0
7, 84796, Note_on_c, 4, 66, 74
7, 84800, Note_on_c, 4, 62, 69
7, 84805, Note_on_c, 4, 62, 0
7, 84973, Note_on_c, 4, 62, 98
7, 85020, Note_on_c, 4, 62, 0
7, 85040, Note_on_c, 4, 66, 0
7, 85042, Note_on_c, 4, 50, 0
7, 85066, Note_on_c, 4, 54, 0
7, 85104, Note_on_c, 4, 66, 68
7, 85159, Note_on_c, 4, 45, 0
7, 85225, Note_on_c, 4, 62, 0
7, 85276, Note_on_c, 4, 66, 80
7, 85280, Note_on_c, 4, 62, 92
7, 85287, Note_on_c, 4, 54, 53
7, 85292, Note_on_c, 4, 50, 10
7, 85328, Note_on_c, 4, 66, 0
7, 85417, Note_on_c, 4, 50, 0
7, 85424, Note_on_c, 4, 54, 0
7, 85446, Note_on_c, 4, 50, 86
7, 85450, Note_on_c, 4, 57, 112
7, 85450, Note_on_c, 4, 54, 81
7, 85490, Note_on_c, 4, 57, 0
7, 85520, Note_on_c, 4, 66, 0
7, 85584, Note_on_c, 4, 66, 59
7, 85755, Note_on_c, 4, 66, 77
7, 85759, Note_on_c, 4, 62, 0
7, 85760, Note_on_c, 4, 62, 86
7, 85765, Note_on_c, 4, 66, 0
7, 85905, Note_on_c, 4, 45, 28
7, 85935, Note_on_c, 4, 66, 71
7, 85955, Note_on_c, 4, 50, 0
7, 86005, Note_on_c, 4, 66, 0
7, 86029, Note_on_c, 4, 62, 0
7, 86035, Note_on_c, 4, 66, 0
7, 86040, Note_on_c, 4, 54, 0
7, 86078, Note_on_c, 4, 45, 0
7, 86232, Note_on_c, 4, 66, 62
7, 86237, Note_on_c, 4, 62, 98
7, 86240, Note_on_c, 4, 57, 31
7, 86242, Note_on_c, 4, 57, 0
7, 86245, Note_on_c, 4, 54, 53
7, 86259, Note_on_c, 4, 66, 0
7, 86400, Note_on_c, 4, 54, 0
7, 86403, Note_on_c, 4, 45, 48
7, 86404, Note_on_c, 4, 50, 110
7, 86405, Note_on_c, 4, 54, 81
7, 86413, Note_on_c, 4, 66, 44
7, 86627, Note_on_c, 4, 66, 0
7, 86671, Note_on_c, 4, 62, 0
7, 86696, Note_on_c, 4, 54, 0
7, 86711, Note_on_c, 4, 66, 74
7, 86715, Note_on_c, 4, 62, 75
7, 86875, Note_on_c, 4, 45, 0
7, 86881, Note_on_c, 4, 45, 61
7, 86885, Note_on_c, 4, 50, 0
7, 86885, Note_on_c, 4, 50, 112
7, 86886, Note_on_c, 4, 57, 83
7, 86889, Note_on_c, 4, 62, 98
7, 86890, Note_on_c, 4, 57, 0
7, 86890, Note_on_c, 4, 66, 77
7, 86890, Note_on_c, 4, 54, 102
7, 86926, Note_on_c, 4, 50, 0
7, 86930, Note_on_c, 4, 66, 0
7, 86938, Note_on_c, 4, 62, 0
7, 86962, Note_on_c, 4, 66, 0
7, 86965, Note_on_c, 4, 45, 0
7, 86984, Note_on_c, 4, 54, 0
7, 87043, Note_on_c, 4, 53, 8
7, 87136, Note_on_c, 4, 62, 0
7, 87171, Note_on_c, 4, 57, 0
7, 87191, Note_on_c, 4, 66, 74
7, 87194, Note_on_c, 4, 62, 92
7, 87200, Note_on_c, 4, 57, 57
7, 87209, Note_on_c, 4, 54, 46
7, 87227, Note_on_c, 4, 53, 0
7, 87335, Note_on_c, 4, 54, 0
7, 87359, Note_on_c, 4, 50, 5
7, 87361, Note_on_c, 4, 54, 78
7, 87370, Note_on_c, 4, 66, 62
7, 87416, Note_on_c, 4, 66, 0
7, 87570, Note_on_c, 4, 66, 0
7, 87648, Note_on_c, 4, 62, 0
7, 87675, Note_on_c, 4, 66, 71
7, 87679, Note_on_c, 4, 62, 80
7, 87691, Note_on_c, 4, 50, 16
7, 87743, Note_on_c, 4, 50, 0
7, 87845, Note_on_c, 4, 54, 102
7, 87849, Note_on_c, 4, 57, 101
7, 87850, Note_on_c, 4, 66, 86
7, 87850, Note_on_c, 4, 62, 98
7, 87854, Note_on_c, 4, 57, 0
7, 87860, Note_on_c, 4, 54, 0
7, 87861, Note_on_c, 4, 62, 0
7, 87870, Note_on_c, 4, 66, 0
7, 87906, Note_on_c, 4, 54, 0
7, 87914, Note_on_c, 4, 66, 0
7, 87993, Note_on_c, 4, 53, 39
7, 88005, Note_on_c, 4, 50, 0
7, 88005, Note_on_c, 4, 54, 15
7, 88055, Note_on_c, 4, 62, 0
7, 88055, Note_on_c, 4, 53, 0
7, 88093, Note_on_c, 4, 57, 0
7, 88144, Note_on_c, 4, 54, 0
7, 88150, Note_on_c, 4, 66, 80
7, 88155, Note_on_c, 4, 62, 92
7, 88159, Note_on_c, 4, 57, 40
7, 88161, Note_on_c, 4, 54, 53
7, 88320, Note_on_c, 4, 54, 0
7, 88320, Note_on_c, 4, 45, 33
7, 88324, Note_on_c, 4, 50, 92
7, 88326, Note_on_c, 4, 54, 85
7, 88576, Note_on_c, 4, 66, 0
7, 88634, Note_on_c, 4, 62, 0
7, 88635, Note_on_c, 4, 66, 65
7, 88639, Note_on_c, 4, 62, 69
7, 88810, Note_on_c, 4, 57, 92
7, 88811, Note_on_c, 4, 62, 92
7, 88813, Note_on_c, 4, 66, 77
7, 88821, Note_on_c, 4, 57, 0
7, 88833, Note_on_c, 4, 66, 0
7, 88858, Note_on_c, 4, 50, 0
7, 88861, Note_on_c, 4, 45, 0
7, 88862, Note_on_c, 4, 62, 0
7, 88885, Note_on_c, 4, 66, 0
7, 88925, Note_on_c, 4, 54, 0
7, 89046, Note_on_c, 4, 62, 0
7, 89112, Note_on_c, 4, 66, 68
7, 89115, Note_on_c, 4, 62, 98
7, 89121, Note_on_c, 4, 54, 57
7, 89125, Note_on_c, 4, 50, 5
7, 89216, Note_on_c, 4, 66, 0
7, 89260, Note_on_c, 4, 50, 0
7, 89280, Note_on_c, 4, 50, 51
7, 89291, Note_on_c, 4, 66, 35
7, 89349, Note_on_c, 4, 66, 0
7, 89595, Note_on_c, 4, 66, 62
7, 89596, Note_on_c, 4, 62, 0
7, 89600, Note_on_c, 4, 62, 80
7, 89604, Note_on_c, 4, 57, 57
7, 89616, Note_on_c, 4, 57, 0
7, 89617, Note_on_c, 4, 66, 0
7, 89740, Note_on_c, 4, 57, 0
7, 89761, Note_on_c, 4, 45, 43
7, 89763, Note_on_c, 4, 50, 112
7, 89765, Note_on_c, 4, 62, 0
7, 89765, Note_on_c, 4, 57, 101
7, 89766, Note_on_c, 4, 63, 98
7, 89766, Note_on_c, 4, 54, 105
7, 89768, Note_on_c, 4, 66, 83
7, 89770, Note_on_c, 4, 50, 0
7, 89771, Note_on_c, 4, 62, 98
7, 89786, Note_on_c, 4, 63, 0
7, 89788, Note_on_c, 4, 66, 0
7, 89791, Note_on_c, 4, 54, 0
7, 89909, Note_on_c, 4, 62, 0
7, 89915, Note_on_c, 4, 45, 0
7, 89915, Note_on_c, 4, 50, 0
7, 89966, Note_on_c, 4, 54, 0
7, 90065, Note_on_c, 4, 57, 0
7, 90074, Note_on_c, 4, 66, 38
7, 90081, Note_on_c, 4, 58, 5
7, 90091, Pitch_bend_c, 4, 7084
7, 90099, Note_on_c, 4, 66, 0
7, 90119, Pitch_bend_c, 4, 9470
7, 90240, Note_on_c, 4, 58, 0
7, 90245, Note_on_c, 4, 50, 98
7, 90248, Note_on_c, 4, 55, 88
7, 90250, Note_on_c, 4, 59, 92
7, 90253, Note_on_c, 4, 62, 63
7, 90255, Note_on_c, 4, 67, 56
7, 90266, Pitch_bend_c, 4, 8192
7, 90425, Note_on_c, 4, 62, 0
7, 90427, Note_on_c, 4, 67, 0
7, 90486, Note_on_c, 4, 59, 0
7, 90551, Note_on_c, 4, 67, 83
7, 90555, Note_on_c, 4, 62, 75
7, 90560, Note_on_c, 4, 59, 57
7, 90710, Note_on_c, 4, 55, 0
7, 90724, Note_on_c, 4, 59, 0
7, 90725, Note_on_c, 4, 55, 81
7, 90726, Note_on_c, 4, 59, 101
7, 90729, Note_on_c, 4, 62, 98
7, 90730, Note_on_c, 4, 67, 104
7, 90770, Note_on_c, 4, 55, 0
7, 90775, Note_on_c, 4, 50, 0
7, 90776, Note_on_c, 4, 62, 0
7, 90785, Note_on_c, 4, 59, 0
7, 90800, Note_on_c, 4, 67, 0
7, 90800, Note_on_c, 4, 62, 0
7, 90810, Note_on_c, 4, 67, 0
7, 90994, Pitch_bend_c, 4, 7425
7, 91006, Pitch_bend_c, 4, 8192
7, 91030, Note_on_c, 4, 67, 68
7, 91034, Note_on_c, 4, 62, 51
7, 91037, Note_on_c, 4, 59, 40
7, 91039, Note_on_c, 4, 55, 53
7, 91201, Note_on_c, 4, 42, 43
7, 91204, Note_on_c, 4, 50, 110
7, 91205, Note_on_c, 4, 55, 95
7, 91209, Note_on_c, 4, 59, 83
7, 91209, Note_on_c, 4, 62, 80
7, 91210, Note_on_c, 4, 67, 71
7, 91225, Note_on_c, 4, 59, 0
7, 91228, Note_on_c, 4, 55, 0
7, 91269, Note_on_c, 4, 62, 0
7, 91292, Note_on_c, 4, 67, 0
7, 91450, Note_on_c, 4, 67, 0
7, 91520, Note_on_c, 4, 67, 74
7, 91690, Note_on_c, 4, 59, 110
7, 91691, Note_on_c, 4, 59, 0
7, 91693, Note_on_c, 4, 67, 107
7, 91695, Note_on_c, 4, 42, 33
7, 91695, Note_on_c, 4, 62, 57
7, 91718, Note_on_c, 4, 62, 0
7, 91720, Note_on_c, 4, 62, 0
7, 91734, Note_on_c, 4, 50, 0
7, 91740, Note_on_c, 4, 67, 0
7, 91747, Note_on_c, 4, 42, 0
7, 91749, Note_on_c, 4, 59, 0
7, 91762, Note_on_c, 4, 55, 0
7, 91762, Note_on_c, 4, 67, 0
7, 91840, Note_on_c, 4, 66, 32
7, 91950, Note_on_c, 4, 66, 0
7, 91995, Note_on_c, 4, 67, 83
7, 91997, Note_on_c, 4, 62, 86
7, 92001, Note_on_c, 4, 59, 48
7, 92004, Note_on_c, 4, 55, 43
7, 92160, Note_on_c, 4, 62, 0
7, 92160, Note_on_c, 4, 59, 0
7, 92160, Note_on_c, 4, 55, 0
7, 92163, Note_on_c, 4, 50, 80
7, 92165, Note_on_c, 4, 55, 88
7, 92169, Note_on_c, 4, 59, 110
7, 92170, Note_on_c, 4, 62, 98
7, 92428, Note_on_c, 4, 67, 0
7, 92434, Note_on_c, 4, 62, 0
7, 92475, Note_on_c, 4, 67, 86
7, 92479, Note_on_c, 4, 62, 80
7, 92620, Note_on_c, 4, 59, 0
7, 92645, Note_on_c, 4, 50, 112
7, 92645, Note_on_c, 4, 42, 51
7, 92650, Note_on_c, 4, 60, 110
7, 92651, Note_on_c, 4, 67, 104
7, 92655, Note_on_c, 4, 50, 0
7, 92661, Note_on_c, 4, 42, 0
7, 92680, Note_on_c, 4, 60, 0
7, 92699, Note_on_c, 4, 67, 0
7, 92706, Note_on_c, 4, 50, 0
7, 92715, Note_on_c, 4, 67, 0
7, 92741, Note_on_c, 4, 62, 0
7, 92750, Note_on_c, 4, 55, 0
7, 92784, Note_on_c, 4, 59, 83
7, 92871, Note_on_c, 4, 59, 0
7, 92955, Note_on_c, 4, 67, 89
7, 92959, Note_on_c, 4, 62, 104
7, 92964, Note_on_c, 4, 59, 92
7, 92966, Note_on_c, 4, 55, 78
7, 92971, Note_on_c, 4, 50, 51
7, 93374, Note_on_c, 4, 67, 0
7, 93424, Note_on_c, 4, 62, 0
7, 93434, Note_on_c, 4, 67, 83
7, 93436, Note_on_c, 4, 62, 75
7, 93506, Note_on_c, 4, 42, 0
7, 93601, Note_on_c, 4, 42, 33
7, 93609, Note_on_c, 4, 59, 92
7, 93610, Note_on_c, 4, 67, 98
7, 93610, Note_on_c, 4, 62, 104
7, 93631, Note_on_c, 4, 67, 0
7, 93631, Note_on_c, 4, 62, 0
7, 93643, Note_on_c, 4, 59, 0
7, 93648, Note_on_c, 4, 55, 0
7, 93660, Note_on_c, 4, 59, 0
7, 93660, Note_on_c, 4, 62, 0
7, 93665, Note_on_c, 4, 50, 0
7, 93680, Note_on_c, 4, 67, 0
7, 93758, Note_on_c, 4, 66, 23
7, 93866, Note_on_c, 4, 66, 0
7, 93920, Note_on_c, 4, 62, 104
7, 93920, Note_on_c, 4, 67, 95
7, 93921, Note_on_c, 4, 59, 83
7, 93925, Note_on_c, 4, 55, 64
7, 94064, Note_on_c, 4, 50, 5
7, 94075, Note_on_c, 4, 55, 0
7, 94080, Note_on_c, 4, 62, 0
7, 94080, Note_on_c, 4, 67, 0
7, 94080, Note_on_c, 4, 50, 51
7, 94084, Note_on_c, 4, 55, 85
7, 94088, Note_on_c, 4, 62, 104
7, 94090, Note_on_c, 4, 67, 77
7, 94141, Note_on_c, 4, 50, 0
7, 94304, Note_on_c, 4, 67, 0
7, 94361, Note_on_c, 4, 62, 0
7, 94387, Note_on_c, 4, 59, 0
7, 94395, Note_on_c, 4, 67, 86
7, 94400, Note_on_c, 4, 62, 98
7, 94402, Note_on_c, 4, 59, 66
7, 94560, Note_on_c, 4, 42, 30
7, 94561, Note_on_c, 4, 42, 0
7, 94565, Note_on_c, 4, 59, 112
7, 94566, Note_on_c, 4, 67, 89
7, 94575, Note_on_c, 4, 59, 0
7, 94606, Note_on_c, 4, 55, 0
7, 94613, Note_on_c, 4, 50, 0
7, 94614, Note_on_c, 4, 67, 0
7, 94624, Note_on_c, 4, 62, 0
7, 94625, Note_on_c, 4, 59, 0
7, 94819, Note_on_c, 4, 67, 0
7, 94874, Note_on_c, 4, 67, 92
7, 94876, Note_on_c, 4, 62, 104
7, 94881, Note_on_c, 4, 59, 83
7, 94884, Note_on_c, 4, 55, 78
7, 94887, Note_on_c, 4, 50, 22
7, 95046, Note_on_c, 4, 62, 104
7, 95049, Note_on_c, 4, 67, 80
7, 95084, Note_on_c, 4, 62, 0
7, 95106, Note_on_c, 4, 67, 0
7, 95289, Note_on_c, 4, 67, 0
7, 95315, Note_on_c, 4, 62, 0
7, 95359, Note_on_c, 4, 67, 83
7, 95362, Note_on_c, 4, 62, 110
7, 95366, Note_on_c, 4, 59, 101
7, 95371, Note_on_c, 4, 55, 81
7, 95395, Note_on_c, 4, 59, 0
7, 95416, Note_on_c, 4, 55, 0
7, 95444, Note_on_c, 4, 50, 0
7, 95492, Note_on_c, 4, 59, 0
7, 95505, Note_on_c, 4, 50, 63
7, 95516, Note_on_c, 4, 42, 0
7, 95524, Note_on_c, 4, 62, 0
7, 95526, Note_on_c, 4, 59, 110
7, 95529, Note_on_c, 4, 63, 104
7, 95534, Note_on_c, 4, 67, 107
7, 95534, Note_on_c, 4, 62, 98
7, 95554, Note_on_c, 4, 63, 0
7, 95560, Note_on_c, 4, 67, 0
7, 95580, Note_on_c, 4, 67, 0
7, 95632, Note_on_c, 4, 62, 0
7, 95645, Note_on_c, 4, 55, 0
7, 95680, Note_on_c, 4, 66, 20
7, 95698, Note_on_c, 4, 59, 0
7, 95700, Note_on_c, 4, 50, 0
7, 95803, Note_on_c, 4, 66, 0
7, 95840, Note_on_c, 4, 66, 77
7, 95842, Note_on_c, 4, 61, 69
7, 95959, Note_on_c, 4, 61, 0
7, 95972, Note_on_c, 4, 66, 0
7, 95999, Note_on_c, 4, 68, 14
7, 96005, Note_on_c, 4, 52, 64
7, 96006, Note_on_c, 4, 59, 75
7, 96010, Note_on_c, 4, 62, 69
7, 96013, Note_on_c, 4, 68, 74
7, 96036, Note_on_c, 4, 52, 0
7, 96065, Note_on_c, 4, 68, 0
7, 96227, Note_on_c, 4, 68, 0
7, 96280, Note_on_c, 4, 62, 0
7, 96310, Note_on_c, 4, 59, 0
7, 96316, Note_on_c, 4, 68, 92
7, 96320, Note_on_c, 4, 62, 110
7, 96324, Note_on_c, 4, 59, 92
7, 96327, Note_on_c, 4, 53, 64
7, 96332, Note_on_c, 4, 47, 28
7, 96484, Note_on_c, 4, 62, 0
7, 96486, Note_on_c, 4, 62, 63
7, 96739, Note_on_c, 4, 68, 0
7, 96760, Note_on_c, 4, 62, 0
7, 96794, Note_on_c, 4, 68, 98
7, 96797, Note_on_c, 4, 62, 110
7, 96801, Note_on_c, 4, 59, 112
7, 96806, Note_on_c, 4, 53, 74
7, 96810, Note_on_c, 4, 59, 0
7, 96834, Note_on_c, 4, 53, 0
7, 96965, Note_on_c, 4, 62, 110
7, 96965, Note_on_c, 4, 68, 104
7, 96968, Note_on_c, 4, 62, 0
7, 97013, Note_on_c, 4, 68, 0
7, 97220, Note_on_c, 4, 68, 0
7, 97271, Note_on_c, 4, 62, 0
7, 97279, Note_on_c, 4, 68, 86
7, 97281, Note_on_c, 4, 62, 98
7, 97439, Note_on_c, 4, 47, 0
7, 97440, Note_on_c, 4, 47, 69
7, 97449, Note_on_c, 4, 59, 101
7, 97450, Note_on_c, 4, 68, 92
7, 97451, Note_on_c, 4, 53, 81
7, 97485, Note_on_c, 4, 59, 0
7, 97499, Note_on_c, 4, 53, 0
7, 97499, Note_on_c, 4, 68, 0
7, 97635, Note_on_c, 4, 53, 0
7, 97640, Note_on_c, 4, 68, 0
7, 97650, Note_on_c, 4, 59, 0
7, 97762, Note_on_c, 4, 66, 62
7, 97771, Note_on_c, 4, 61, 22
7, 97816, Note_on_c, 4, 62, 0
7, 97920, Note_on_c, 4, 47, 0
7, 97920, Note_on_c, 4, 66, 0
7, 97920, Note_on_c, 4, 61, 0
7, 97930, Note_on_c, 4, 57, 83
7, 97930, Note_on_c, 4, 47, 92
7, 97931, Note_on_c, 4, 61, 112
7, 97933, Note_on_c, 4, 66, 89
7, 97934, Note_on_c, 4, 52, 81
7, 97994, Note_on_c, 4, 47, 0
7, 98156, Note_on_c, 4, 66, 0
7, 98205, Note_on_c, 4, 61, 0
7, 98239, Note_on_c, 4, 66, 65
7, 98242, Note_on_c, 4, 61, 57
7, 98374, Note_on_c, 4, 66, 0
7, 98395, Note_on_c, 4, 52, 0
7, 98400, Note_on_c, 4, 57, 0
7, 98403, Note_on_c, 4, 49, 63
7, 98408, Note_on_c, 4, 57, 112
7, 98410, Note_on_c, 4, 52, 43
7, 98411, Note_on_c, 4, 61, 86
7, 98411, Note_on_c, 4, 69, 77
7, 98448, Note_on_c, 4, 61, 0
7, 98475, Note_on_c, 4, 52, 0
7, 98551, Note_on_c, 4, 53, 8
7, 98595, Note_on_c, 4, 69, 0
7, 98617, Note_on_c, 4, 61, 0
7, 98670, Note_on_c, 4, 53, 0
7, 98716, Note_on_c, 4, 69, 80
7, 98724, Note_on_c, 4, 61, 34
7, 98729, Note_on_c, 4, 52, 25
7, 98795, Note_on_c, 4, 52, 0
7, 98879, Note_on_c, 4, 45, 38
7, 98885, Note_on_c, 4, 49, 86
7, 98890, Note_on_c, 4, 52, 50
7, 98890, Note_on_c, 4, 61, 86
7, 98895, Note_on_c, 4, 49, 0
7, 98909, Note_on_c, 4, 61, 0
7, 99143, Note_on_c, 4, 69, 0
7, 99146, Note_on_c, 4, 61, 0
7, 99194, Note_on_c, 4, 69, 83
7, 99196, Note_on_c, 4, 61, 80
7, 99352, Note_on_c, 4, 57, 0
7, 99352, Note_on_c, 4, 52, 0
7, 99365, Note_on_c, 4, 57, 112
7, 99366, Note_on_c, 4, 52, 32
7, 99396, Note_on_c, 4, 45, 0
7, 99414, Note_on_c, 4, 69, 0
7, 99514, Note_on_c, 4, 66, 5
7, 99658, Note_on_c, 4, 66, 0
7, 99670, Note_on_c, 4, 66, 62
7, 99741, Note_on_c, 4, 49, 0
7, 99741, Note_on_c, 4, 52, 0
7, 99779, Note_on_c, 4, 66, 0
7, 99825, Note_on_c, 4, 53, 5
7, 99840, Note_on_c, 4, 61, 0
7, 99840, Note_on_c, 4, 57, 0
7, 99843, Note_on_c, 4, 50, 104
7, 99843, Note_on_c, 4, 45, 38
7, 99848, Note_on_c, 4, 54, 85
7, 99848, Note_on_c, 4, 57, 92
7, 99848, Note_on_c, 4, 67, 68
7, 99848, Note_on_c, 4, 62, 98
7, 99895, Note_on_c, 4, 67, 0
7, 99932, Note_on_c, 4, 53, 0
7, 99985, Note_on_c, 4, 66, 44
7, 100120, Note_on_c, 4, 62, 0
7, 100133, Note_on_c, 4, 54, 0
7, 100150, Note_on_c, 4, 66, 74
7, 100159, Note_on_c, 4, 62, 92
7, 100160, Note_on_c, 4, 54, 71
7, 100172, Note_on_c, 4, 66, 0
7, 100328, Note_on_c, 4, 66, 65
7, 100340, Note_on_c, 4, 66, 0
7, 100355, Note_on_c, 4, 45, 0
7, 100360, Note_on_c, 4, 50, 0
7, 100368, Note_on_c, 4, 54, 0
7, 100400, Note_on_c, 4, 62, 0
7, 100589, Note_on_c, 4, 66, 0
7, 100636, Note_on_c, 4, 66, 62
7, 100640, Note_on_c, 4, 62, 92
7, 100646, Note_on_c, 4, 54, 57
7, 100660, Note_on_c, 4, 66, 0
7, 100787, Note_on_c, 4, 54, 0
7, 100801, Note_on_c, 4, 50, 86
7, 100803, Note_on_c, 4, 54, 85
7, 100805, Note_on_c, 4, 62, 104
7, 100808, Note_on_c, 4, 66, 77
7, 100828, Note_on_c, 4, 62, 0
7, 100970, Note_on_c, 4, 45, 5
7, 101101, Note_on_c, 4, 62, 0
7, 101102, Note_on_c, 4, 66, 0
7, 101124, Note_on_c, 4, 66, 65
7, 101252, Note_on_c, 4, 66, 0
7, 101285, Note_on_c, 4, 63, 98
7, 101288, Note_on_c, 4, 66, 89
7, 101289, Note_on_c, 4, 57, 92
7, 101290, Note_on_c, 4, 62, 98
7, 101294, Note_on_c, 4, 57, 0
7, 101310, Note_on_c, 4, 45, 0
7, 101310, Note_on_c, 4, 63, 0
7, 101364, Note_on_c, 4, 50, 0
7, 101403, Note_on_c, 4, 54, 0
7, 101421, Note_on_c, 4, 62, 0
7, 101575, Note_on_c, 4, 66, 0
7, 101600, Note_on_c, 4, 66, 44
7, 101604, Note_on_c, 4, 61, 5
7, 101750, Note_on_c, 4, 57, 0
7, 101760, Note_on_c, 4, 66, 0
7, 101760, Note_on_c, 4, 61, 0
7, 101764, Note_on_c, 4, 52, 57
7, 101765, Note_on_c, 4, 59, 83
7, 101769, Note_on_c, 4, 68, 92
7, 101774, Note_on_c, 4, 64, 92
7, 101898, Note_on_c, 4, 52, 0
7, 102050, Note_on_c, 4, 68, 0
7, 102081, Note_on_c, 4, 68, 77
7, 102240, Note_on_c, 4, 52, 29
7, 102245, Note_on_c, 4, 68, 110
7, 102264, Note_on_c, 4, 68, 0
7, 102481, Note_on_c, 4, 52, 0
7, 102515, Note_on_c, 4, 68, 0
7, 102561, Note_on_c, 4, 68, 83
7, 102725, Note_on_c, 4, 68, 112
7, 102741, Note_on_c, 4, 68, 0
7, 103022, Note_on_c, 4, 68, 0
7, 103041, Note_on_c, 4, 68, 89
7, 103050, Note_on_c, 4, 52, 8
7, 103165, Note_on_c, 4, 52, 0
7, 103185, Note_on_c, 4, 64, 0
7, 103201, Note_on_c, 4, 52, 85
7, 103206, Note_on_c, 4, 68, 89
7, 103225, Note_on_c, 4, 68, 0
7, 103229, Note_on_c, 4, 68, 0
7, 103235, Note_on_c, 4, 59, 0
7, 103345, Note_on_c, 4, 66, 38
7, 103515, Note_on_c, 4, 66, 68
7, 103519, Note_on_c, 4, 61, 63
7, 103555, Note_on_c, 4, 66, 0
7, 103613, Note_on_c, 4, 66, 0
7, 103670, Note_on_c, 4, 61, 0
7, 103685, Note_on_c, 4, 49, 80
7, 103689, Note_on_c, 4, 69, 107
7, 103690, Note_on_c, 4, 57, 101
7, 103839, Note_on_c, 4, 52, 0
7, 103840, Note_on_c, 4, 53, 8
7, 103945, Note_on_c, 4, 69, 0
7, 103955, Note_on_c, 4, 57, 0
7, 104053, Note_on_c, 4, 49, 0
7, 104076, Note_on_c, 4, 53, 0
7, 105599, Note_on_c, 4, 50, 112
7, 105600, Note_on_c, 4, 45, 79
7, 105601, Note_on_c, 4, 66, 86
7, 105601, Note_on_c, 4, 54, 109
7, 105604, Note_on_c, 4, 63, 104
7, 105605, Note_on_c, 4, 57, 75
7, 105610, Note_on_c, 4, 62, 104
7, 105624, Note_on_c, 4, 66, 0
7, 105630, Note_on_c, 4, 63, 0
7, 105925, Note_on_c, 4, 66, 35
7, 105950, Note_on_c, 4, 66, 0
7, 106090, Note_on_c, 4, 62, 98
7, 106090, Note_on_c, 4, 57, 101
7, 106091, Note_on_c, 4, 62, 0
7, 106111, Note_on_c, 4, 62, 0
7, 106116, Note_on_c, 4, 57, 0
7, 106129, Note_on_c, 4, 50, 0
7, 106133, Note_on_c, 4, 45, 0
7, 106182, Note_on_c, 4, 54, 0
7, 106225, Note_on_c, 4, 66, 23
7, 106228, Note_on_c, 4, 61, 28
7, 106366, Note_on_c, 4, 57, 0
7, 106397, Note_on_c, 4, 62, 98
7, 106402, Note_on_c, 4, 57, 83
7, 106405, Note_on_c, 4, 54, 81
7, 106409, Note_on_c, 4, 50, 57
7, 106412, Note_on_c, 4, 45, 10
7, 106436, Note_on_c, 4, 61, 0
7, 106542, Note_on_c, 4, 54, 0
7, 106545, Note_on_c, 4, 66, 0
7, 106565, Note_on_c, 4, 54, 92
7, 106570, Note_on_c, 4, 66, 65
7, 106850, Note_on_c, 4, 66, 0
7, 106882, Note_on_c, 4, 66, 44
7, 106885, Note_on_c, 4, 62, 0
7, 106885, Note_on_c, 4, 62, 69
7, 106890, Note_on_c, 4, 57, 48
7, 106930, Note_on_c, 4, 57, 0
7, 106980, Note_on_c, 4, 66, 0
7, 107030, Note_on_c, 4, 62, 0
7, 107049, Note_on_c, 4, 62, 104
7, 107049, Note_on_c, 4, 66, 83
7, 107051, Note_on_c, 4, 57, 110
7, 107055, Note_on_c, 4, 57, 0
7, 107071, Note_on_c, 4, 66, 0
7, 107078, Note_on_c, 4, 54, 0
7, 107091, Note_on_c, 4, 50, 0
7, 107125, Note_on_c, 4, 45, 0
7, 107205, Note_on_c, 4, 57, 0
7, 107320, Note_on_c, 4, 62, 0
7, 107355, Note_on_c, 4, 66, 62
7, 107359, Note_on_c, 4, 62, 98
7, 107361, Note_on_c, 4, 57, 57
7, 107365, Note_on_c, 4, 54, 60
7, 107370, Note_on_c, 4, 50, 16
7, 107380, Note_on_c, 4, 66, 0
7, 107486, Note_on_c, 4, 50, 0
7, 107510, Note_on_c, 4, 54, 0
7, 107517, Note_on_c, 4, 45, 28
7, 107520, Note_on_c, 4, 50, 98
7, 107523, Note_on_c, 4, 54, 98
7, 107530, Note_on_c, 4, 66, 56
7, 107775, Note_on_c, 4, 66, 0
7, 107834, Note_on_c, 4, 62, 0
7, 107835, Note_on_c, 4, 66, 65
7, 107839, Note_on_c, 4, 62, 75
7, 108005, Note_on_c, 4, 44, 30
7, 108006, Note_on_c, 4, 62, 98
7, 108008, Note_on_c, 4, 66, 74
7, 108023, Note_on_c, 4, 50, 0
7, 108030, Note_on_c, 4, 45, 0
7, 108035, Note_on_c, 4, 44, 0
7, 108038, Note_on_c, 4, 62, 0
7, 108055, Note_on_c, 4, 66, 0
7, 108060, Note_on_c, 4, 54, 0
7, 108243, Note_on_c, 4, 66, 0
7, 108245, Note_on_c, 4, 57, 0
7, 108285, Note_on_c, 4, 62, 0
7, 108316, Note_on_c, 4, 66, 62
7, 108319, Note_on_c, 4, 62, 80
7, 108321, Note_on_c, 4, 57, 57
7, 108325, Note_on_c, 4, 54, 57
7, 108330, Note_on_c, 4, 50, 16
7, 108460, Note_on_c, 4, 54, 0
7, 108480, Note_on_c, 4, 54, 88
7, 108485, Note_on_c, 4, 66, 65
7, 108525, Note_on_c, 4, 66, 0
7, 108680, Note_on_c, 4, 66, 0
7, 108770, Note_on_c, 4, 62, 0
7, 108795, Note_on_c, 4, 66, 65
7, 108799, Note_on_c, 4, 62, 69
7, 108961, Note_on_c, 4, 54, 112
7, 108965, Note_on_c, 4, 54, 0
7, 108966, Note_on_c, 4, 66, 74
7, 109010, Note_on_c, 4, 50, 0
7, 109011, Note_on_c, 4, 66, 0
7, 109056, Note_on_c, 4, 54, 0
7, 109125, Note_on_c, 4, 52, 5
7, 109191, Note_on_c, 4, 66, 0
7, 109208, Note_on_c, 4, 52, 0
7, 109261, Note_on_c, 4, 62, 0
7, 109265, Note_on_c, 4, 57, 0
7, 109274, Note_on_c, 4, 66, 65
7, 109276, Note_on_c, 4, 62, 75
7, 109281, Note_on_c, 4, 57, 31
7, 109282, Note_on_c, 4, 54, 46
7, 109437, Note_on_c, 4, 54, 0
7, 109440, Note_on_c, 4, 66, 0
7, 109440, Note_on_c, 4, 62, 0
7, 109440, Note_on_c, 4, 57, 0
7, 109440, Note_on_c, 4, 50, 75
7, 109444, Note_on_c, 4, 59, 101
7, 109444, Note_on_c, 4, 43, 10
7, 109445, Note_on_c, 4, 55, 98
7, 109445, Note_on_c, 4, 63, 104
7, 109445, Note_on_c, 4, 67, 104
7, 109454, Note_on_c, 4, 62, 69
7, 109491, Note_on_c, 4, 63, 0
7, 109641, Note_on_c, 4, 55, 0
7, 109689, Note_on_c, 4, 62, 0
7, 109700, Note_on_c, 4, 50, 0
7, 109728, Note_on_c, 4, 67, 0
7, 109795, Note_on_c, 4, 43, 0
7, 109845, Note_on_c, 4, 59, 0
7, 109925, Note_on_c, 4, 43, 48
7, 109925, Note_on_c, 4, 55, 112
7, 109926, Note_on_c, 4, 59, 101
7, 109930, Note_on_c, 4, 67, 109
7, 109931, Note_on_c, 4, 62, 75
7, 109933, Note_on_c, 4, 50, 112
7, 110145, Note_on_c, 4, 50, 0
7, 110161, Note_on_c, 4, 62, 0
7, 110178, Note_on_c, 4, 55, 0
7, 110214, Note_on_c, 4, 59, 0
7, 110227, Note_on_c, 4, 67, 0
7, 110405, Note_on_c, 4, 42, 46
7, 110406, Note_on_c, 4, 50, 112
7, 110409, Note_on_c, 4, 43, 0
7, 110409, Note_on_c, 4, 55, 109
7, 110411, Note_on_c, 4, 62, 98
7, 110411, Note_on_c, 4, 59, 110
7, 110416, Note_on_c, 4, 67, 107
7, 110648, Note_on_c, 4, 67, 0
7, 110653, Note_on_c, 4, 55, 0
7, 110669, Note_on_c, 4, 50, 0
7, 110760, Note_on_c, 4, 59, 0
7, 110776, Note_on_c, 4, 62, 0
7, 110885, Note_on_c, 4, 50, 69
7, 110886, Note_on_c, 4, 55, 95
7, 110889, Note_on_c, 4, 59, 92
7, 110890, Note_on_c, 4, 62, 34
7, 110890, Note_on_c, 4, 67, 107
7, 110916, Note_on_c, 4, 42, 0
7, 111089, Note_on_c, 4, 55, 0
7, 111110, Note_on_c, 4, 67, 0
7, 111115, Note_on_c, 4, 50, 0
7, 111149, Note_on_c, 4, 59, 0
7, 111274, Note_on_c, 4, 62, 0
7, 111365, Note_on_c, 4, 50, 28
7, 111366, Note_on_c, 4, 54, 78
7, 111370, Note_on_c, 4, 57, 110
7, 111371, Note_on_c, 4, 66, 80
7, 111371, Note_on_c, 4, 62, 98
7, 111650, Note_on_c, 4, 62, 0
7, 111653, Note_on_c, 4, 66, 0
7, 111682, Note_on_c, 4, 62, 92
7, 111832, Note_on_c, 4, 54, 0
7, 111844, Note_on_c, 4, 45, 43
7, 111845, Note_on_c, 4, 54, 102
7, 111853, Note_on_c, 4, 66, 50
7, 111875, Note_on_c, 4, 66, 0
7, 111888, Note_on_c, 4, 50, 0
7, 111906, Note_on_c, 4, 54, 0
7, 111909, Note_on_c, 4, 45, 0
7, 111975, Note_on_c, 4, 62, 0
7, 112145, Note_on_c, 4, 54, 11
7, 112155, Note_on_c, 4, 66, 53
7, 112157, Note_on_c, 4, 62, 86
7, 112164, Note_on_c, 4, 54, 50
7, 112165, Note_on_c, 4, 67, 11
7, 112180, Note_on_c, 4, 66, 0
7, 112203, Note_on_c, 4, 57, 0
7, 112235, Note_on_c, 4, 54, 0
7, 112320, Note_on_c, 4, 54, 0
7, 112320, Note_on_c, 4, 45, 25
7, 112321, Note_on_c, 4, 50, 40
7, 112324, Note_on_c, 4, 54, 67
7, 112326, Note_on_c, 4, 57, 31
7, 112329, Note_on_c, 4, 62, 98
7, 112371, Note_on_c, 4, 62, 0
7, 112586, Note_on_c, 4, 67, 0
7, 112591, Note_on_c, 4, 62, 0
7, 112639, Note_on_c, 4, 66, 59
7, 112640, Note_on_c, 4, 57, 0
7, 112645, Note_on_c, 4, 57, 40
7, 112645, Note_on_c, 4, 62, 75
7, 112649, Note_on_c, 4, 67, 20
7, 112662, Note_on_c, 4, 66, 0
7, 112754, Note_on_c, 4, 67, 0
7, 112805, Note_on_c, 4, 44, 35
7, 112809, Note_on_c, 4, 54, 102
7, 112810, Note_on_c, 4, 57, 110
7, 112823, Note_on_c, 4, 45, 0
7, 112825, Note_on_c, 4, 57, 0
7, 112826, Note_on_c, 4, 54, 0
7, 112840, Note_on_c, 4, 54, 0
7, 112862, Note_on_c, 4, 50, 0
7, 112881, Note_on_c, 4, 62, 0
7, 112897, Note_on_c, 4, 44, 0
7, 113119, Note_on_c, 4, 52, 48
7, 113122, Note_on_c, 4, 66, 59
7, 113126, Note_on_c, 4, 61, 57
7, 113274, Note_on_c, 4, 61, 0
7, 113280, Note_on_c, 4, 57, 0
7, 113280, Note_on_c, 4, 52, 0
7, 113280, Note_on_c, 4, 66, 0
7, 113280, Note_on_c, 4, 52, 75
7, 113284, Note_on_c, 4, 61, 101
7, 113284, Note_on_c, 4, 45, 10
7, 113285, Note_on_c, 4, 65, 104
7, 113285, Note_on_c, 4, 69, 104
7, 113285, Note_on_c, 4, 57, 98
7, 113294, Note_on_c, 4, 64, 69
7, 113331, Note_on_c, 4, 65, 0
7, 113481, Note_on_c, 4, 57, 0
7, 113529, Note_on_c, 4, 64, 0
7, 113540, Note_on_c, 4, 52, 0
7, 113568, Note_on_c, 4, 69, 0
7, 113635, Note_on_c, 4, 45, 0
7, 113685, Note_on_c, 4, 61, 0
7, 113765, Note_on_c, 4, 45, 48
7, 113765, Note_on_c, 4, 57, 112
7, 113766, Note_on_c, 4, 61, 101
7, 113770, Note_on_c, 4, 69, 109
7, 113771, Note_on_c, 4, 64, 75
7, 113773, Note_on_c, 4, 52, 112
7, 113985, Note_on_c, 4, 52, 0
7, 114001, Note_on_c, 4, 64, 0
7, 114018, Note_on_c, 4, 57, 0
7, 114054, Note_on_c, 4, 61, 0
7, 114067, Note_on_c, 4, 69, 0
7, 114245, Note_on_c, 4, 44, 46
7, 114246, Note_on_c, 4, 52, 112
7, 114249, Note_on_c, 4, 45, 0
7, 114249, Note_on_c, 4, 57, 109
7, 114251, Note_on_c, 4, 61, 110
7, 114251, Note_on_c, 4, 64, 98
7, 114256, Note_on_c, 4, 69, 107
7, 114488, Note_on_c, 4, 69, 0
7, 114493, Note_on_c, 4, 57, 0
7, 114509, Note_on_c, 4, 52, 0
7, 114600, Note_on_c, 4, 61, 0
7, 114616, Note_on_c, 4, 64, 0
7, 114725, Note_on_c, 4, 52, 69
7, 114726, Note_on_c, 4, 57, 95
7, 114729, Note_on_c, 4, 61, 92
7, 114730, Note_on_c, 4, 69, 107
7, 114730, Note_on_c, 4, 64, 34
7, 114756, Note_on_c, 4, 44, 0
7, 114929, Note_on_c, 4, 57, 0
7, 114950, Note_on_c, 4, 69, 0
7, 114955, Note_on_c, 4, 52, 0
7, 114989, Note_on_c, 4, 61, 0
7, 115114, Note_on_c, 4, 64, 0
7, 115205, Note_on_c, 4, 50, 28
7, 115206, Note_on_c, 4, 54, 78
7, 115210, Note_on_c, 4, 57, 110
7, 115211, Note_on_c, 4, 66, 80
7, 115211, Note_on_c, 4, 62, 98
7, 115490, Note_on_c, 4, 62, 0
7, 115493, Note_on_c, 4, 66, 0
7, 115522, Note_on_c, 4, 62, 92
7, 115672, Note_on_c, 4, 54, 0
7, 115684, Note_on_c, 4, 45, 43
7, 115685, Note_on_c, 4, 54, 102
7, 115693, Note_on_c, 4, 66, 50
7, 115715, Note_on_c, 4, 66, 0
7, 115728, Note_on_c, 4, 50, 0
7, 115746, Note_on_c, 4, 54, 0
7, 115749, Note_on_c, 4, 45, 0
7, 115815, Note_on_c, 4, 62, 0
7, 115985, Note_on_c, 4, 54, 11
7, 115995, Note_on_c, 4, 66, 53
7, 115997, Note_on_c, 4, 62, 86
7, 116004, Note_on_c, 4, 54, 50
7, 116005, Note_on_c, 4, 67, 11
7, 116020, Note_on_c, 4, 66, 0
7, 116043, Note_on_c, 4, 57, 0
7, 116075, Note_on_c, 4, 54, 0
7, 116160, Note_on_c, 4, 54, 0
7, 116160, Note_on_c, 4, 45, 25
7, 116161, Note_on_c, 4, 50, 40
7, 116164, Note_on_c, 4, 54, 67
7, 116166, Note_on_c, 4, 57, 31
7, 116169, Note_on_c, 4, 62, 98
7, 116211, Note_on_c, 4, 62, 0
7, 116426, Note_on_c, 4, 67, 0
7, 116431, Note_on_c, 4, 62, 0
7, 116479, Note_on_c, 4, 66, 59
7, 116480, Note_on_c, 4, 57, 0
7, 116485, Note_on_c, 4, 62, 75
7, 116485, Note_on_c, 4, 57, 40
7, 116489, Note_on_c, 4, 67, 20
7, 116502, Note_on_c, 4, 66, 0
7, 116594, Note_on_c, 4, 67, 0
7, 116645, Note_on_c, 4, 44, 35
7, 116649, Note_on_c, 4, 54, 102
7, 116650, Note_on_c, 4, 57, 110
7, 116663, Note_on_c, 4, 45, 0
7, 116665, Note_on_c, 4, 57, 0
7, 116666, Note_on_c, 4, 54, 0
7, 116680, Note_on_c, 4, 54, 0
7, 116702, Note_on_c, 4, 50, 0
7, 116721, Note_on_c, 4, 62, 0
7, 116737, Note_on_c, 4, 44, 0
7, 116959, Note_on_c, 4, 52, 48
7, 116962, Note_on_c, 4, 66, 59
7, 116966, Note_on_c, 4, 61, 57
7, 117114, Note_on_c, 4, 61, 0
7, 117120, Note_on_c, 4, 57, 0
7, 117120, Note_on_c, 4, 52, 0
7, 117120, Note_on_c, 4, 66, 0
7, 117120, Note_on_c, 4, 50, 75
7, 117124, Note_on_c, 4, 59, 101
7, 117124, Note_on_c, 4, 43, 10
7, 117125, Note_on_c, 4, 63, 104
7, 117125, Note_on_c, 4, 55, 98
7, 117125, Note_on_c, 4, 67, 104
7, 117134, Note_on_c, 4, 62, 69
7, 117171, Note_on_c, 4, 63, 0
7, 117321, Note_on_c, 4, 55, 0
7, 117369, Note_on_c, 4, 62, 0
7, 117380, Note_on_c, 4, 50, 0
7, 117408, Note_on_c, 4, 67, 0
7, 117475, Note_on_c, 4, 43, 0
7, 117525, Note_on_c, 4, 59, 0
7, 117605, Note_on_c, 4, 55, 112
7, 117605, Note_on_c, 4, 43, 48
7, 117606, Note_on_c, 4, 59, 101
7, 117610, Note_on_c, 4, 67, 109
7, 117611, Note_on_c, 4, 62, 75
7, 117613, Note_on_c, 4, 50, 112
7, 117825, Note_on_c, 4, 50, 0
7, 117841, Note_on_c, 4, 62, 0
7, 117858, Note_on_c, 4, 55, 0
7, 117894, Note_on_c, 4, 59, 0
7, 117907, Note_on_c, 4, 67, 0
7, 118085, Note_on_c, 4, 42, 46
7, 118086, Note_on_c, 4, 50, 112
7, 118089, Note_on_c, 4, 43, 0
7, 118089, Note_on_c, 4, 55, 109
7, 118091, Note_on_c, 4, 62, 98
7, 118091, Note_on_c, 4, 59, 110
7, 118096, Note_on_c, 4, 67, 107
7, 118328, Note_on_c, 4, 67, 0
7, 118333, Note_on_c, 4, 55, 0
7, 118349, Note_on_c, 4, 50, 0
7, 118440, Note_on_c, 4, 59, 0
7, 118456, Note_on_c, 4, 62, 0
7, 118565, Note_on_c, 4, 50, 69
7, 118566, Note_on_c, 4, 55, 95
7, 118569, Note_on_c, 4, 59, 92
7, 118570, Note_on_c, 4, 67, 107
7, 118570, Note_on_c, 4, 62, 34
7, 118596, Note_on_c, 4, 42, 0
7, 118769, Note_on_c, 4, 55, 0
7, 118790, Note_on_c, 4, 67, 0
7, 118795, Note_on_c, 4, 50, 0
7, 118829, Note_on_c, 4, 59, 0
7, 118954, Note_on_c, 4, 62, 0
7, 119045, Note_on_c, 4, 50, 28
7, 119046, Note_on_c, 4, 54, 78
7, 119050, Note_on_c, 4, 57, 110
7, 119051, Note_on_c, 4, 62, 98
7, 119051, Note_on_c, 4, 66, 80
7, 119330, Note_on_c, 4, 62, 0
7, 119333, Note_on_c, 4, 66, 0
7, 119362, Note_on_c, 4, 62, 92
7, 119512, Note_on_c, 4, 54, 0
7, 119524, Note_on_c, 4, 45, 43
7, 119525, Note_on_c, 4, 54, 102
7, 119533, Note_on_c, 4, 66, 50
7, 119555, Note_on_c, 4, 66, 0
7, 119568, Note_on_c, 4, 50, 0
7, 119586, Note_on_c, 4, 54, 0
7, 119589, Note_on_c, 4, 45, 0
7, 119655, Note_on_c, 4, 62, 0
7, 119825, Note_on_c, 4, 54, 11
7, 119835, Note_on_c, 4, 66, 53
7, 119837, Note_on_c, 4, 62, 86
7, 119844, Note_on_c, 4, 54, 50
7, 119845, Note_on_c, 4, 67, 11
7, 119860, Note_on_c, 4, 66, 0
7, 119883, Note_on_c, 4, 57, 0
7, 119915, Note_on_c, 4, 54, 0
7, 120000, Note_on_c, 4, 54, 0
7, 120000, Note_on_c, 4, 45, 25
7, 120001, Note_on_c, 4, 50, 40
7, 120004, Note_on_c, 4, 54, 67
7, 120006, Note_on_c, 4, 57, 31
7, 120009, Note_on_c, 4, 62, 98
7, 120051, Note_on_c, 4, 62, 0
7, 120266, Note_on_c, 4, 67, 0
7, 120271, Note_on_c, 4, 62, 0
7, 120319, Note_on_c, 4, 66, 59
7, 120320, Note_on_c, 4, 57, 0
7, 120325, Note_on_c, 4, 62, 75
7, 120325, Note_on_c, 4, 57, 40
7, 120329, Note_on_c, 4, 67, 20
7, 120342, Note_on_c, 4, 66, 0
7, 120434, Note_on_c, 4, 67, 0
7, 120485, Note_on_c, 4, 44, 35
7, 120489, Note_on_c, 4, 54, 102
7, 120490, Note_on_c, 4, 57, 110
7, 120503, Note_on_c, 4, 45, 0
7, 120505, Note_on_c, 4, 57, 0
7, 120506, Note_on_c, 4, 54, 0
7, 120520, Note_on_c, 4, 54, 0
7, 120542, Note_on_c, 4, 50, 0
7, 120561, Note_on_c, 4, 62, 0
7, 120577, Note_on_c, 4, 44, 0
7, 120799, Note_on_c, 4, 52, 48
7, 120802, Note_on_c, 4, 66, 59
7, 120806, Note_on_c, 4, 61, 57
7, 120954, Note_on_c, 4, 61, 0
7, 120960, Note_on_c, 4, 57, 0
7, 120960, Note_on_c, 4, 52, 0
7, 120960, Note_on_c, 4, 66, 0
7, 120965, Note_on_c, 4, 52, 88
7, 120968, Note_on_c, 4, 59, 101
7, 120969, Note_on_c, 4, 68, 101
7, 120974, Note_on_c, 4, 64, 104
7, 121025, Note_on_c, 4, 52, 0
7, 121111, Note_on_c, 4, 52, 25
7, 121219, Note_on_c, 4, 68, 0
7, 121256, Note_on_c, 4, 59, 0
7, 121280, Note_on_c, 4, 68, 47
7, 121300, Note_on_c, 4, 68, 0
7, 121445, Note_on_c, 4, 59, 92
7, 121448, Note_on_c, 4, 68, 112
7, 121450, Note_on_c, 4, 52, 46
7, 121476, Note_on_c, 4, 52, 0
7, 121525, Note_on_c, 4, 52, 0
7, 121720, Note_on_c, 4, 68, 0
7, 121752, Note_on_c, 4, 59, 0
7, 121787, Note_on_c, 4, 64, 0
7, 121921, Note_on_c, 4, 52, 105
7, 121923, Note_on_c, 4, 59, 83
7, 121925, Note_on_c, 4, 65, 98
7, 121925, Note_on_c, 4, 68, 107
7, 121930, Note_on_c, 4, 64, 92
7, 121951, Note_on_c, 4, 65, 0
7, 122193, Note_on_c, 4, 68, 0
7, 122215, Note_on_c, 4, 59, 0
7, 122404, Note_on_c, 4, 59, 110
7, 122406, Note_on_c, 4, 68, 112
7, 122560, Note_on_c, 4, 63, 28
7, 122563, Note_on_c, 4, 64, 0
7, 122570, Note_on_c, 4, 68, 0
7, 122584, Note_on_c, 4, 63, 0
7, 122585, Note_on_c, 4, 59, 0
7, 122725, Note_on_c, 4, 66, 47
7, 122801, Note_on_c, 4, 66, 0
7, 122834, Note_on_c, 4, 52, 0
7, 122880, Note_on_c, 4, 52, 75
7, 122884, Note_on_c, 4, 45, 10
7, 122884, Note_on_c, 4, 61, 101
7, 122885, Note_on_c, 4, 69, 104
7, 122885, Note_on_c, 4, 65, 104
7, 122885, Note_on_c, 4, 57, 98
7, 122894, Note_on_c, 4, 64, 69
7, 122931, Note_on_c, 4, 65, 0
7, 123081, Note_on_c, 4, 57, 0
7, 123129, Note_on_c, 4, 64, 0
7, 123140, Note_on_c, 4, 52, 0
7, 123168, Note_on_c, 4, 69, 0
7, 123235, Note_on_c, 4, 45, 0
7, 123285, Note_on_c, 4, 61, 0
7, 123365, Note_on_c, 4, 57, 112
7, 123365, Note_on_c, 4, 45, 48
7, 123366, Note_on_c, 4, 61, 101
7, 123370, Note_on_c, 4, 69, 109
7, 123371, Note_on_c, 4, 64, 75
7, 123373, Note_on_c, 4, 52, 112
7, 123585, Note_on_c, 4, 52, 0
7, 123601, Note_on_c, 4, 64, 0
7, 123618, Note_on_c, 4, 57, 0
7, 123654, Note_on_c, 4, 61, 0
7, 123667, Note_on_c, 4, 69, 0
7, 123845, Note_on_c, 4, 44, 46
7, 123846, Note_on_c, 4, 52, 112
7, 123849, Note_on_c, 4, 45, 0
7, 123849, Note_on_c, 4, 57, 109
7, 123851, Note_on_c, 4, 64, 98
7, 123851, Note_on_c, 4, 61, 110
7, 123856, Note_on_c, 4, 69, 107
7, 124088, Note_on_c, 4, 69, 0
7, 124093, Note_on_c, 4, 57, 0
7, 124109, Note_on_c, 4, 52, 0
7, 124200, Note_on_c, 4, 61, 0
7, 124216, Note_on_c, 4, 64, 0
7, 124325, Note_on_c, 4, 52, 69
7, 124326, Note_on_c, 4, 57, 95
7, 124329, Note_on_c, 4, 61, 92
7, 124330, Note_on_c, 4, 69, 107
7, 124330, Note_on_c, 4, 64, 34
7, 124356, Note_on_c, 4, 44, 0
7, 124529, Note_on_c, 4, 57, 0
7, 124550, Note_on_c, 4, 69, 0
7, 124555, Note_on_c, 4, 52, 0
7, 124589, Note_on_c, 4, 61, 0
7, 124714, Note_on_c, 4, 64, 0
7, 124800, Note_on_c, 4, 54, 71
7, 124800, Note_on_c, 4, 57, 92
7, 124800, Note_on_c, 4, 66, 83
7, 124800, Note_on_c, 4, 62, 98
7, 124805, Note_on_c, 4, 50, 112
7, 124805, Note_on_c, 4, 45, 61
7, 125055, Note_on_c, 4, 66, 0
7, 125115, Note_on_c, 4, 62, 0
7, 125115, Note_on_c, 4, 66, 65
7, 125119, Note_on_c, 4, 62, 75
7, 125289, Note_on_c, 4, 66, 77
7, 125290, Note_on_c, 4, 62, 80
7, 125290, Note_on_c, 4, 57, 75
7, 125316, Note_on_c, 4, 45, 0
7, 125326, Note_on_c, 4, 57, 0
7, 125334, Note_on_c, 4, 62, 0
7, 125338, Note_on_c, 4, 66, 0
7, 125341, Note_on_c, 4, 66, 0
7, 125341, Note_on_c, 4, 57, 0
7, 125360, Note_on_c, 4, 50, 0
7, 125362, Note_on_c, 4, 54, 0
7, 125538, Note_on_c, 4, 62, 0
7, 125592, Note_on_c, 4, 66, 83
7, 125595, Note_on_c, 4, 62, 98
7, 125599, Note_on_c, 4, 57, 75
7, 125602, Note_on_c, 4, 54, 53
7, 125605, Note_on_c, 4, 50, 16
7, 126015, Note_on_c, 4, 66, 0
7, 126077, Note_on_c, 4, 66, 74
7, 126081, Note_on_c, 4, 62, 86
7, 126086, Note_on_c, 4, 62, 0
7, 126091, Note_on_c, 4, 57, 48
7, 126139, Note_on_c, 4, 57, 0
7, 126250, Note_on_c, 4, 57, 0
7, 126251, Note_on_c, 4, 57, 110
7, 126254, Note_on_c, 4, 66, 86
7, 126255, Note_on_c, 4, 62, 98
7, 126305, Note_on_c, 4, 62, 0
7, 126316, Note_on_c, 4, 66, 0
7, 126335, Note_on_c, 4, 54, 0
7, 126350, Note_on_c, 4, 50, 0
7, 126483, Note_on_c, 4, 62, 0
7, 126505, Note_on_c, 4, 66, 0
7, 126530, Note_on_c, 4, 57, 0
7, 126560, Note_on_c, 4, 66, 77
7, 126562, Note_on_c, 4, 62, 92
7, 126570, Note_on_c, 4, 57, 48
7, 126571, Note_on_c, 4, 54, 53
7, 126575, Note_on_c, 4, 50, 5
7, 126707, Note_on_c, 4, 50, 0
7, 126728, Note_on_c, 4, 45, 28
7, 126730, Note_on_c, 4, 50, 57
7, 126983, Note_on_c, 4, 66, 0
7, 127036, Note_on_c, 4, 66, 74
7, 127040, Note_on_c, 4, 62, 69
7, 127045, Note_on_c, 4, 62, 0
7, 127213, Note_on_c, 4, 62, 98
7, 127260, Note_on_c, 4, 62, 0
7, 127280, Note_on_c, 4, 66, 0
7, 127282, Note_on_c, 4, 50, 0
7, 127306, Note_on_c, 4, 54, 0
7, 127344, Note_on_c, 4, 66, 68
7, 127399, Note_on_c, 4, 45, 0
7, 127465, Note_on_c, 4, 62, 0
7, 127516, Note_on_c, 4, 66, 80
7, 127520, Note_on_c, 4, 62, 92
7, 127527, Note_on_c, 4, 54, 53
7, 127532, Note_on_c, 4, 50, 10
7, 127568, Note_on_c, 4, 66, 0
7, 127657, Note_on_c, 4, 50, 0
7, 127664, Note_on_c, 4, 54, 0
7, 127686, Note_on_c, 4, 50, 86
7, 127690, Note_on_c, 4, 54, 81
7, 127690, Note_on_c, 4, 57, 112
7, 127730, Note_on_c, 4, 57, 0
7, 127760, Note_on_c, 4, 66, 0
7, 127824, Note_on_c, 4, 66, 59
7, 127995, Note_on_c, 4, 66, 77
7, 127999, Note_on_c, 4, 62, 0
7, 128000, Note_on_c, 4, 62, 86
7, 128005, Note_on_c, 4, 66, 0
7, 128145, Note_on_c, 4, 45, 28
7, 128175, Note_on_c, 4, 66, 71
7, 128195, Note_on_c, 4, 50, 0
7, 128245, Note_on_c, 4, 66, 0
7, 128269, Note_on_c, 4, 62, 0
7, 128275, Note_on_c, 4, 66, 0
7, 128280, Note_on_c, 4, 54, 0
7, 128318, Note_on_c, 4, 45, 0
7, 128472, Note_on_c, 4, 66, 62
7, 128477, Note_on_c, 4, 62, 98
7, 128480, Note_on_c, 4, 57, 31
7, 128482, Note_on_c, 4, 57, 0
7, 128485, Note_on_c, 4, 54, 53
7, 128499, Note_on_c, 4, 66, 0
7, 128640, Note_on_c, 4, 54, 0
7, 128643, Note_on_c, 4, 45, 48
7, 128644, Note_on_c, 4, 50, 110
7, 128645, Note_on_c, 4, 54, 81
7, 128653, Note_on_c, 4, 66, 44
7, 128867, Note_on_c, 4, 66, 0
7, 128911, Note_on_c, 4, 62, 0
7, 128936, Note_on_c, 4, 54, 0
7, 128951, Note_on_c, 4, 66, 74
7, 128955, Note_on_c, 4, 62, 75
7, 129115, Note_on_c, 4, 45, 0
7, 129121, Note_on_c, 4, 45, 61
7, 129125, Note_on_c, 4, 50, 0
7, 129125, Note_on_c, 4, 50, 112
7, 129126, Note_on_c, 4, 57, 83
7, 129129, Note_on_c, 4, 62, 98
7, 129130, Note_on_c, 4, 57, 0
7, 129130, Note_on_c, 4, 54, 102
7, 129130, Note_on_c, 4, 66, 77
7, 129166, Note_on_c, 4, 50, 0
7, 129170, Note_on_c, 4, 66, 0
7, 129178, Note_on_c, 4, 62, 0
7, 129202, Note_on_c, 4, 66, 0
7, 129205, Note_on_c, 4, 45, 0
7, 129224, Note_on_c, 4, 54, 0
7, 129283, Note_on_c, 4, 53, 8
7, 129376, Note_on_c, 4, 62, 0
7, 129411, Note_on_c, 4, 57, 0
7, 129431, Note_on_c, 4, 66, 74
7, 129434, Note_on_c, 4, 62, 92
7, 129440, Note_on_c, 4, 57, 57
7, 129449, Note_on_c, 4, 54, 46
7, 129467, Note_on_c, 4, 53, 0
7, 129575, Note_on_c, 4, 54, 0
7, 129599, Note_on_c, 4, 50, 5
7, 129601, Note_on_c, 4, 54, 78
7, 129610, Note_on_c, 4, 66, 62
7, 129656, Note_on_c, 4, 66, 0
7, 129810, Note_on_c, 4, 66, 0
7, 129888, Note_on_c, 4, 62, 0
7, 129915, Note_on_c, 4, 66, 71
7, 129919, Note_on_c, 4, 62, 80
7, 129931, Note_on_c, 4, 50, 16
7, 129983, Note_on_c, 4, 50, 0
7, 130085, Note_on_c, 4, 54, 102
7, 130089, Note_on_c, 4, 57, 101
7, 130090, Note_on_c, 4, 62, 98
7, 130090, Note_on_c, 4, 66, 86
7, 130094, Note_on_c, 4, 57, 0
7, 130100, Note_on_c, 4, 54, 0
7, 130101, Note_on_c, 4, 62, 0
7, 130110, Note_on_c, 4, 66, 0
7, 130146, Note_on_c, 4, 54, 0
7, 130154, Note_on_c, 4, 66, 0
7, 130233, Note_on_c, 4, 53, 39
7, 130245, Note_on_c, 4, 50, 0
7, 130245, Note_on_c, 4, 54, 15
7, 130295, Note_on_c, 4, 62, 0
7, 130295, Note_on_c, 4, 53, 0
7, 130333, Note_on_c, 4, 57, 0
7, 130384, Note_on_c, 4, 54, 0
7, 130390, Note_on_c, 4, 66, 80
7, 130395, Note_on_c, 4, 62, 92
7, 130399, Note_on_c, 4, 57, 40
7, 130401, Note_on_c, 4, 54, 53
7, 130560, Note_on_c, 4, 54, 0
7, 130560, Note_on_c, 4, 45, 33
7, 130564, Note_on_c, 4, 50, 92
7, 130566, Note_on_c, 4, 54, 85
7, 130816, Note_on_c, 4, 66, 0
7, 130874, Note_on_c, 4, 62, 0
7, 130875, Note_on_c, 4, 66, 65
7, 130879, Note_on_c, 4, 62, 69
7, 131050, Note_on_c, 4, 57, 92
7, 131051, Note_on_c, 4, 62, 92
7, 131053, Note_on_c, 4, 66, 77
7, 131061, Note_on_c, 4, 57, 0
7, 131073, Note_on_c, 4, 66, 0
7, 131098, Note_on_c, 4, 50, 0
7, 131101, Note_on_c, 4, 45, 0
7, 131102, Note_on_c, 4, 62, 0
7, 131125, Note_on_c, 4, 66, 0
7, 131165, Note_on_c, 4, 54, 0
7, 131286, Note_on_c, 4, 62, 0
7, 131352, Note_on_c, 4, 66, 68
7, 131355, Note_on_c, 4, 62, 98
7, 131361, Note_on_c, 4, 54, 57
7, 131365, Note_on_c, 4, 50, 5
7, 131456, Note_on_c, 4, 66, 0
7, 131500, Note_on_c, 4, 50, 0
7, 131520, Note_on_c, 4, 50, 51
7, 131531, Note_on_c, 4, 66, 35
7, 131589, Note_on_c, 4, 66, 0
7, 131835, Note_on_c, 4, 66, 62
7, 131836, Note_on_c, 4, 62, 0
7, 131840, Note_on_c, 4, 62, 80
7, 131844, Note_on_c, 4, 57, 57
7, 131856, Note_on_c, 4, 57, 0
7, 131857, Note_on_c, 4, 66, 0
7, 131980, Note_on_c, 4, 57, 0
7, 132001, Note_on_c, 4, 45, 43
7, 132003, Note_on_c, 4, 50, 112
7, 132005, Note_on_c, 4, 62, 0
7, 132005, Note_on_c, 4, 57, 101
7, 132006, Note_on_c, 4, 54, 105
7, 132006, Note_on_c, 4, 63, 98
7, 132008, Note_on_c, 4, 66, 83
7, 132010, Note_on_c, 4, 50, 0
7, 132011, Note_on_c, 4, 62, 98
7, 132026, Note_on_c, 4, 63, 0
7, 132028, Note_on_c, 4, 66, 0
7, 132031, Note_on_c, 4, 54, 0
7, 132149, Note_on_c, 4, 62, 0
7, 132155, Note_on_c, 4, 45, 0
7, 132155, Note_on_c, 4, 50, 0
7, 132206, Note_on_c, 4, 54, 0
7, 132305, Note_on_c, 4, 57, 0
7, 132314, Note_on_c, 4, 66, 38
7, 132321, Note_on_c, 4, 58, 5
7, 132331, Pitch_bend_c, 4, 7084
7, 132339, Note_on_c, 4, 66, 0
7, 132359, Pitch_bend_c, 4, 9470
7, 132480, Note_on_c, 4, 58, 0
7, 132485, Note_on_c, 4, 50, 98
7, 132488, Note_on_c, 4, 55, 88
7, 132490, Note_on_c, 4, 59, 92
7, 132493, Note_on_c, 4, 62, 63
7, 132495, Note_on_c, 4, 67, 56
7, 132506, Pitch_bend_c, 4, 8192
7, 132665, Note_on_c, 4, 62, 0
7, 132667, Note_on_c, 4, 67, 0
7, 132726, Note_on_c, 4, 59, 0
7, 132791, Note_on_c, 4, 67, 83
7, 132795, Note_on_c, 4, 62, 75
7, 132800, Note_on_c, 4, 59, 57
7, 132950, Note_on_c, 4, 55, 0
7, 132964, Note_on_c, 4, 59, 0
7, 132965, Note_on_c, 4, 55, 81
7, 132966, Note_on_c, 4, 59, 101
7, 132969, Note_on_c, 4, 62, 98
7, 132970, Note_on_c, 4, 67, 104
7, 133010, Note_on_c, 4, 55, 0
7, 133015, Note_on_c, 4, 50, 0
7, 133016, Note_on_c, 4, 62, 0
7, 133025, Note_on_c, 4, 59, 0
7, 133040, Note_on_c, 4, 67, 0
7, 133040, Note_on_c, 4, 62, 0
7, 133050, Note_on_c, 4, 67, 0
7, 133234, Pitch_bend_c, 4, 7425
7, 133246, Pitch_bend_c, 4, 8192
7, 133270, Note_on_c, 4, 67, 68
7, 133274, Note_on_c, 4, 62, 51
7, 133277, Note_on_c, 4, 59, 40
7, 133279, Note_on_c, 4, 55, 53
7, 133441, Note_on_c, 4, 42, 43
7, 133444, Note_on_c, 4, 50, 110
7, 133445, Note_on_c, 4, 55, 95
7, 133449, Note_on_c, 4, 59, 83
7, 133449, Note_on_c, 4, 62, 80
7, 133450, Note_on_c, 4, 67, 71
7, 133465, Note_on_c, 4, 59, 0
7, 133468, Note_on_c, 4, 55, 0
7, 133509, Note_on_c, 4, 62, 0
7, 133532, Note_on_c, 4, 67, 0
7, 133690, Note_on_c, 4, 67, 0
7, 133760, Note_on_c, 4, 67, 74
7, 133930, Note_on_c, 4, 59, 110
7, 133931, Note_on_c, 4, 59, 0
7, 133933, Note_on_c, 4, 67, 107
7, 133935, Note_on_c, 4, 62, 57
7, 133935, Note_on_c, 4, 42, 33
7, 133958, Note_on_c, 4, 62, 0
7, 133960, Note_on_c, 4, 62, 0
7, 133974, Note_on_c, 4, 50, 0
7, 133980, Note_on_c, 4, 67, 0
7, 133987, Note_on_c, 4, 42, 0
7, 133989, Note_on_c, 4, 59, 0
7, 134002, Note_on_c, 4, 55, 0
7, 134002, Note_on_c, 4, 67, 0
7, 134080, Note_on_c, 4, 66, 32
7, 134190, Note_on_c, 4, 66, 0
7, 134235, Note_on_c, 4, 67, 83
7, 134237, Note_on_c, 4, 62, 86
7, 134241, Note_on_c, 4, 59, 48
7, 134244, Note_on_c, 4, 55, 43
7, 134400, Note_on_c, 4, 62, 0
7, 134400, Note_on_c, 4, 59, 0
7, 134400, Note_on_c, 4, 55, 0
7, 134403, Note_on_c, 4, 50, 80
7, 134405, Note_on_c, 4, 55, 88
7, 134409, Note_on_c, 4, 59, 110
7, 134410, Note_on_c, 4, 62, 98
7, 134668, Note_on_c, 4, 67, 0
7, 134674, Note_on_c, 4, 62, 0
7, 134715, Note_on_c, 4, 67, 86
7, 134719, Note_on_c, 4, 62, 80
7, 134860, Note_on_c, 4, 59, 0
7, 134885, Note_on_c, 4, 42, 51
7, 134885, Note_on_c, 4, 50, 112
7, 134890, Note_on_c, 4, 60, 110
7, 134891, Note_on_c, 4, 67, 104
7, 134895, Note_on_c, 4, 50, 0
7, 134901, Note_on_c, 4, 42, 0
7, 134920, Note_on_c, 4, 60, 0
7, 134939, Note_on_c, 4, 67, 0
7, 134946, Note_on_c, 4, 50, 0
7, 134955, Note_on_c, 4, 67, 0
7, 134981, Note_on_c, 4, 62, 0
7, 134990, Note_on_c, 4, 55, 0
7, 135024, Note_on_c, 4, 59, 83
7, 135111, Note_on_c, 4, 59, 0
7, 135195, Note_on_c, 4, 67, 89
7, 135199, Note_on_c, 4, 62, 104
7, 135204, Note_on_c, 4, 59, 92
7, 135206, Note_on_c, 4, 55, 78
7, 135211, Note_on_c, 4, 50, 51
7, 135614, Note_on_c, 4, 67, 0
7, 135664, Note_on_c, 4, 62, 0
7, 135674, Note_on_c, 4, 67, 83
7, 135676, Note_on_c, 4, 62, 75
7, 135746, Note_on_c, 4, 42, 0
7, 135841, Note_on_c, 4, 42, 33
7, 135849, Note_on_c, 4, 59, 92
7, 135850, Note_on_c, 4, 67, 98
7, 135850, Note_on_c, 4, 62, 104
7, 135871, Note_on_c, 4, 67, 0
7, 135871, Note_on_c, 4, 62, 0
7, 135883, Note_on_c, 4, 59, 0
7, 135888, Note_on_c, 4, 55, 0
7, 135900, Note_on_c, 4, 59, 0
7, 135900, Note_on_c, 4, 62, 0
7, 135905, Note_on_c, 4, 50, 0
7, 135920, Note_on_c, 4, 67, 0
7, 135998, Note_on_c, 4, 66, 23
7, 136106, Note_on_c, 4, 66, 0
7, 136160, Note_on_c, 4, 67, 95
7, 136160, Note_on_c, 4, 62, 104
7, 136161, Note_on_c, 4, 59, 83
7, 136165, Note_on_c, 4, 55, 64
7, 136304, Note_on_c, 4, 50, 5
7, 136315, Note_on_c, 4, 55, 0
7, 136320, Note_on_c, 4, 67, 0
7, 136320, Note_on_c, 4, 62, 0
7, 136320, Note_on_c, 4, 50, 51
7, 136324, Note_on_c, 4, 55, 85
7, 136328, Note_on_c, 4, 62, 104
7, 136330, Note_on_c, 4, 67, 77
7, 136381, Note_on_c, 4, 50, 0
7, 136544, Note_on_c, 4, 67, 0
7, 136601, Note_on_c, 4, 62, 0
7, 136627, Note_on_c, 4, 59, 0
7, 136635, Note_on_c, 4, 67, 86
7, 136640, Note_on_c, 4, 62, 98
7, 136642, Note_on_c, 4, 59, 66
7, 136800, Note_on_c, 4, 42, 30
7, 136801, Note_on_c, 4, 42, 0
7, 136805, Note_on_c, 4, 59, 112
7, 136806, Note_on_c, 4, 67, 89
7, 136815, Note_on_c, 4, 59, 0
7, 136846, Note_on_c, 4, 55, 0
7, 136853, Note_on_c, 4, 50, 0
7, 136854, Note_on_c, 4, 67, 0
7, 136864, Note_on_c, 4, 62, 0
7, 136865, Note_on_c, 4, 59, 0
7, 137059, Note_on_c, 4, 67, 0
7, 137114, Note_on_c, 4, 67, 92
7, 137116, Note_on_c, 4, 62, 104
7, 137121, Note_on_c, 4, 59, 83
7, 137124, Note_on_c, 4, 55, 78
7, 137127, Note_on_c, 4, 50, 22
7, 137286, Note_on_c, 4, 62, 104
7, 137289, Note_on_c, 4, 67, 80
7, 137324, Note_on_c, 4, 62, 0
7, 137346, Note_on_c, 4, 67, 0
7, 137529, Note_on_c, 4, 67, 0
7, 137555, Note_on_c, 4, 62, 0
7, 137599, Note_on_c, 4, 67, 83
7, 137602, Note_on_c, 4, 62, 110
7, 137606, Note_on_c, 4, 59, 101
7, 137611, Note_on_c, 4, 55, 81
7, 137635, Note_on_c, 4, 59, 0
7, 137656, Note_on_c, 4, 55, 0
7, 137684, Note_on_c, 4, 50, 0
7, 137732, Note_on_c, 4, 59, 0
7, 137745, Note_on_c, 4, 50, 63
7, 137756, Note_on_c, 4, 42, 0
7, 137764, Note_on_c, 4, 62, 0
7, 137766, Note_on_c, 4, 59, 110
7, 137769, Note_on_c, 4, 63, 104
7, 137774, Note_on_c, 4, 67, 107
7, 137774, Note_on_c, 4, 62, 98
7, 137794, Note_on_c, 4, 63, 0
7, 137800, Note_on_c, 4, 67, 0
7, 137820, Note_on_c, 4, 67, 0
7, 137872, Note_on_c, 4, 62, 0
7, 137885, Note_on_c, 4, 55, 0
7, 137920, Note_on_c, 4, 66, 20
7, 137938, Note_on_c, 4, 59, 0
7, 137940, Note_on_c, 4, 50, 0
7, 138043, Note_on_c, 4, 66, 0
7, 138080, Note_on_c, 4, 66, 77
7, 138082, Note_on_c, 4, 61, 69
7, 138199, Note_on_c, 4, 61, 0
7, 138212, Note_on_c, 4, 66, 0
7, 138239, Note_on_c, 4, 68, 14
7, 138245, Note_on_c, 4, 52, 64
7, 138246, Note_on_c, 4, 59, 75
7, 138250, Note_on_c, 4, 62, 69
7, 138253, Note_on_c, 4, 68, 74
7, 138276, Note_on_c, 4, 52, 0
7, 138305, Note_on_c, 4, 68, 0
7, 138467, Note_on_c, 4, 68, 0
7, 138520, Note_on_c, 4, 62, 0
7, 138550, Note_on_c, 4, 59, 0
7, 138556, Note_on_c, 4, 68, 92
7, 138560, Note_on_c, 4, 62, 110
7, 138564, Note_on_c, 4, 59, 92
7, 138567, Note_on_c, 4, 53, 64
7, 138572, Note_on_c, 4, 47, 28
7, 138724, Note_on_c, 4, 62, 0
7, 138726, Note_on_c, 4, 62, 63
7, 138979, Note_on_c, 4, 68, 0
7, 139000, Note_on_c, 4, 62, 0
7, 139034, Note_on_c, 4, 68, 98
7, 139037, Note_on_c, 4, 62, 110
7, 139041, Note_on_c, 4, 59, 112
7, 139046, Note_on_c, 4, 53, 74
7, 139050, Note_on_c, 4, 59, 0
7, 139074, Note_on_c, 4, 53, 0
7, 139205, Note_on_c, 4, 62, 110
7, 139205, Note_on_c, 4, 68, 104
7, 139208, Note_on_c, 4, 62, 0
7, 139253, Note_on_c, 4, 68, 0
7, 139460, Note_on_c, 4, 68, 0
7, 139511, Note_on_c, 4, 62, 0
7, 139519, Note_on_c, 4, 68, 86
7, 139521, Note_on_c, 4, 62, 98
7, 139679, Note_on_c, 4, 47, 0
7, 139680, Note_on_c, 4, 47, 69
7, 139689, Note_on_c, 4, 59, 101
7, 139690, Note_on_c, 4, 68, 92
7, 139691, Note_on_c, 4, 53, 81
7, 139725, Note_on_c, 4, 59, 0
7, 139739, Note_on_c, 4, 53, 0
7, 139739, Note_on_c, 4, 68, 0
7, 139875, Note_on_c, 4, 53, 0
7, 139880, Note_on_c, 4, 68, 0
7, 139890, Note_on_c, 4, 59, 0
7, 140002, Note_on_c, 4, 66, 62
7, 140011, Note_on_c, 4, 61, 22
7, 140056, Note_on_c, 4, 62, 0
7, 140160, Note_on_c, 4, 47, 0
7, 140160, Note_on_c, 4, 66, 0
7, 140160, Note_on_c, 4, 61, 0
7, 140170, Note_on_c, 4, 57, 83
7, 140170, Note_on_c, 4, 47, 92
7, 140171, Note_on_c, 4, 61, 112
7, 140173, Note_on_c, 4, 66, 89
7, 140174, Note_on_c, 4, 52, 81
7, 140234, Note_on_c, 4, 47, 0
7, 140396, Note_on_c, 4, 66, 0
7, 140445, Note_on_c, 4, 61, 0
7, 140479, Note_on_c, 4, 66, 65
7, 140482, Note_on_c, 4, 61, 57
7, 140614, Note_on_c, 4, 66, 0
7, 140635, Note_on_c, 4, 52, 0
7, 140640, Note_on_c, 4, 57, 0
7, 140643, Note_on_c, 4, 49, 63
7, 140648, Note_on_c, 4, 57, 112
7, 140650, Note_on_c, 4, 52, 43
7, 140651, Note_on_c, 4, 69, 77
7, 140651, Note_on_c, 4, 61, 86
7, 140688, Note_on_c, 4, 61, 0
7, 140715, Note_on_c, 4, 52, 0
7, 140791, Note_on_c, 4, 53, 8
7, 140835, Note_on_c, 4, 69, 0
7, 140857, Note_on_c, 4, 61, 0
7, 140910, Note_on_c, 4, 53, 0
7, 140956, Note_on_c, 4, 69, 80
7, 140964, Note_on_c, 4, 61, 34
7, 140969, Note_on_c, 4, 52, 25
7, 141035, Note_on_c, 4, 52, 0
7, 141119, Note_on_c, 4, 45, 38
7, 141125, Note_on_c, 4, 49, 86
7, 141130, Note_on_c, 4, 52, 50
7, 141130, Note_on_c, 4, 61, 86
7, 141135, Note_on_c, 4, 49, 0
7, 141149, Note_on_c, 4, 61, 0
7, 141383, Note_on_c, 4, 69, 0
7, 141386, Note_on_c, 4, 61, 0
7, 141434, Note_on_c, 4, 69, 83
7, 141436, Note_on_c, 4, 61, 80
7, 141592, Note_on_c, 4, 57, 0
7, 141592, Note_on_c, 4, 52, 0
7, 141605, Note_on_c, 4, 57, 112
7, 141606, Note_on_c, 4, 52, 32
7, 141636, Note_on_c, 4, 45, 0
7, 141654, Note_on_c, 4, 69, 0
7, 141754, Note_on_c, 4, 66, 5
7, 141898, Note_on_c, 4, 66, 0
7, 141910, Note_on_c, 4, 66, 62
7, 141981, Note_on_c, 4, 49, 0
7, 141981, Note_on_c, 4, 52, 0
7, 142019, Note_on_c, 4, 66, 0
7, 142065, Note_on_c, 4, 53, 5
7, 142080, Note_on_c, 4, 61, 0
7, 142080, Note_on_c, 4, 57, 0
7, 142083, Note_on_c, 4, 45, 38
7, 142083, Note_on_c, 4, 50, 104
7, 142088, Note_on_c, 4, 67, 68
7, 142088, Note_on_c, 4, 54, 85
7, 142088, Note_on_c, 4, 62, 98
7, 142088, Note_on_c, 4, 57, 92
7, 142135, Note_on_c, 4, 67, 0
7, 142172, Note_on_c, 4, 53, 0
7, 142225, Note_on_c, 4, 66, 44
7, 142360, Note_on_c, 4, 62, 0
7, 142373, Note_on_c, 4, 54, 0
7, 142390, Note_on_c, 4, 66, 74
7, 142399, Note_on_c, 4, 62, 92
7, 142400, Note_on_c, 4, 54, 71
7, 142412, Note_on_c, 4, 66, 0
7, 142568, Note_on_c, 4, 66, 65
7, 142580, Note_on_c, 4, 66, 0
7, 142595, Note_on_c, 4, 45, 0
7, 142600, Note_on_c, 4, 50, 0
7, 142608, Note_on_c, 4, 54, 0
7, 142640, Note_on_c, 4, 62, 0
7, 142829, Note_on_c, 4, 66, 0
7, 142876, Note_on_c, 4, 66, 62
7, 142880, Note_on_c, 4, 62, 92
7, 142886, Note_on_c, 4, 54, 57
7, 142900, Note_on_c, 4, 66, 0
7, 143027, Note_on_c, 4, 54, 0
7, 143041, Note_on_c, 4, 50, 86
7, 143043, Note_on_c, 4, 54, 85
7, 143045, Note_on_c, 4, 62, 104
7, 143048, Note_on_c, 4, 66, 77
7, 143068, Note_on_c, 4, 62, 0
7, 143210, Note_on_c, 4, 45, 5
7, 143341, Note_on_c, 4, 62, 0
7, 143342, Note_on_c, 4, 66, 0
7, 143364, Note_on_c, 4, 66, 65
7, 143492, Note_on_c, 4, 66, 0
7, 143525, Note_on_c, 4, 63, 98
7, 143528, Note_on_c, 4, 66, 89
7, 143529, Note_on_c, 4, 57, 92
7, 143530, Note_on_c, 4, 62, 98
7, 143534, Note_on_c, 4, 57, 0
7, 143550, Note_on_c, 4, 45, 0
7, 143550, Note_on_c, 4, 63, 0
7, 143604, Note_on_c, 4, 50, 0
7, 143643, Note_on_c, 4, 54, 0
7, 143661, Note_on_c, 4, 62, 0
7, 143815, Note_on_c, 4, 66, 0
7, 143840, Note_on_c, 4, 66, 44
7, 143844, Note_on_c, 4, 61, 5
7, 143990, Note_on_c, 4, 57, 0
7, 144000, Note_on_c, 4, 66, 0
7, 144000, Note_on_c, 4, 61, 0
7, 144004, Note_on_c, 4, 52, 57
7, 144005, Note_on_c, 4, 59, 83
7, 144009, Note_on_c, 4, 68, 92
7, 144014, Note_on_c, 4, 64, 92
7, 144138, Note_on_c, 4, 52, 0
7, 144290, Note_on_c, 4, 68, 0
7, 144321, Note_on_c, 4, 68, 77
7, 144480, Note_on_c, 4, 52, 29
7, 144485, Note_on_c, 4, 68, 110
7, 144504, Note_on_c, 4, 68, 0
7, 144721, Note_on_c, 4, 52, 0
7, 144755, Note_on_c, 4, 68, 0
7, 144801, Note_on_c, 4, 68, 83
7, 144965, Note_on_c, 4, 68, 112
7, 144981, Note_on_c, 4, 68, 0
7, 145262, Note_on_c, 4, 68, 0
7, 145281, Note_on_c, 4, 68, 89
7, 145290, Note_on_c, 4, 52, 8
7, 145405, Note_on_c, 4, 52, 0
7, 145425, Note_on_c, 4, 64, 0
7, 145441, Note_on_c, 4, 52, 85
7, 145446, Note_on_c, 4, 68, 89
7, 145465, Note_on_c, 4, 68, 0
7, 145469, Note_on_c, 4, 68, 0
7, 145475, Note_on_c, 4, 59, 0
7, 145585, Note_on_c, 4, 66, 38
7, 145755, Note_on_c, 4, 66, 68
7, 145759, Note_on_c, 4, 61, 63
7, 145795, Note_on_c, 4, 66, 0
7, 145853, Note_on_c, 4, 66, 0
7, 145910, Note_on_c, 4, 61, 0
7, 145925, Note_on_c, 4, 49, 80
7, 145929, Note_on_c, 4, 69, 107
7, 145930, Note_on_c, 4, 57, 101
7, 146079, Note_on_c, 4, 52, 0
7, 146080, Note_on_c, 4, 53, 8
7, 146185, Note_on_c, 4, 69, 0
7, 146195, Note_on_c, 4, 57, 0
7, 146293, Note_on_c, 4, 49, 0
7, 146316, Note_on_c, 4, 53, 0
7, 147836, Pitch_bend_c, 4, 9726
7, 147840, Note_on_c, 4, 62, 98
7, 147840, Note_on_c, 4, 66, 83
7, 147840, Note_on_c, 4, 57, 92
7, 147840, Note_on_c, 4, 54, 71
7, 147845, Note_on_c, 4, 45, 61
7, 147845, Note_on_c, 4, 50, 112
7, 148095, Note_on_c, 4, 66, 0
7, 148155, Note_on_c, 4, 62, 0
7, 148155, Note_on_c, 4, 66, 65
7, 148159, Note_on_c, 4, 62, 75
7, 148329, Note_on_c, 4, 66, 77
7, 148330, Note_on_c, 4, 62, 80
7, 148330, Note_on_c, 4, 57, 75
7, 148356, Note_on_c, 4, 45, 0
7, 148366, Note_on_c, 4, 57, 0
7, 148374, Note_on_c, 4, 62, 0
7, 148378, Note_on_c, 4, 66, 0
7, 148381, Note_on_c, 4, 66, 0
7, 148381, Note_on_c, 4, 57, 0
7, 148400, Note_on_c, 4, 50, 0
7, 148402, Note_on_c, 4, 54, 0
7, 148578, Note_on_c, 4, 62, 0
7, 148632, Note_on_c, 4, 66, 83
7, 148635, Note_on_c, 4, 62, 98
7, 148639, Note_on_c, 4, 57, 75
7, 148642, Note_on_c, 4, 54, 53
7, 148645, Note_on_c, 4, 50, 16
7, 149055, Note_on_c, 4, 66, 0
7, 149117, Note_on_c, 4, 66, 74
7, 149121, Note_on_c, 4, 62, 86
7, 149126, Note_on_c, 4, 62, 0
7, 149131, Note_on_c, 4, 57, 48
7, 149179, Note_on_c, 4, 57, 0
7, 149290, Note_on_c, 4, 57, 0
7, 149291, Note_on_c, 4, 57, 110
7, 149294, Note_on_c, 4, 66, 86
7, 149295, Note_on_c, 4, 62, 98
7, 149345, Note_on_c, 4, 62, 0
7, 149356, Note_on_c, 4, 66, 0
7, 149375, Note_on_c, 4, 54, 0
7, 149390, Note_on_c, 4, 50, 0
7, 149523, Note_on_c, 4, 62, 0
7, 149545, Note_on_c, 4, 66, 0
7, 149570, Note_on_c, 4, 57, 0
7, 149600, Note_on_c, 4, 66, 77
7, 149602, Note_on_c, 4, 62, 92
7, 149610, Note_on_c, 4, 57, 48
7, 149611, Note_on_c, 4, 54, 53
7, 149615, Note_on_c, 4, 50, 5
7, 149747, Note_on_c, 4, 50, 0
7, 149768, Note_on_c, 4, 45, 28
7, 149770, Note_on_c, 4, 50, 57
7, 150023, Note_on_c, 4, 66, 0
7, 150076, Note_on_c, 4, 66, 74
7, 150080, Note_on_c, 4, 62, 69
7, 150085, Note_on_c, 4, 62, 0
7, 150253, Note_on_c, 4, 62, 98
7, 150300, Note_on_c, 4, 62, 0
7, 150320, Note_on_c, 4, 66, 0
7, 150322, Note_on_c, 4, 50, 0
7, 150346, Note_on_c, 4, 54, 0
7, 150384, Note_on_c, 4, 66, 68
7, 150439, Note_on_c, 4, 45, 0
7, 150505, Note_on_c, 4, 62, 0
7, 150556, Note_on_c, 4, 66, 80
7, 150560, Note_on_c, 4, 62, 92
7, 150567, Note_on_c, 4, 54, 53
7, 150572, Note_on_c, 4, 50, 10
7, 150608, Note_on_c, 4, 66, 0
7, 150697, Note_on_c, 4, 50, 0
7, 150704, Note_on_c, 4, 54, 0
7, 150726, Note_on_c, 4, 50, 86
7, 150730, Note_on_c, 4, 57, 112
7, 150730, Note_on_c, 4, 54, 81
7, 150770, Note_on_c, 4, 57, 0
7, 150800, Note_on_c, 4, 66, 0
7, 150864, Note_on_c, 4, 66, 59
7, 151035, Note_on_c, 4, 66, 77
7, 151039, Note_on_c, 4, 62, 0
7, 151040, Note_on_c, 4, 62, 86
7, 151045, Note_on_c, 4, 66, 0
7, 151185, Note_on_c, 4, 45, 28
7, 151215, Note_on_c, 4, 66, 71
7, 151235, Note_on_c, 4, 50, 0
7, 151285, Note_on_c, 4, 66, 0
7, 151309, Note_on_c, 4, 62, 0
7, 151315, Note_on_c, 4, 66, 0
7, 151320, Note_on_c, 4, 54, 0
7, 151358, Note_on_c, 4, 45, 0
7, 151512, Note_on_c, 4, 66, 62
7, 151517, Note_on_c, 4, 62, 98
7, 151520, Note_on_c, 4, 57, 31
7, 151522, Note_on_c, 4, 57, 0
7, 151525, Note_on_c, 4, 54, 53
7, 151539, Note_on_c, 4, 66, 0
7, 151680, Note_on_c, 4, 54, 0
7, 151683, Note_on_c, 4, 45, 48
7, 151684, Note_on_c, 4, 50, 110
7, 151685, Note_on_c, 4, 54, 81
7, 151693, Note_on_c, 4, 66, 44
7, 151907, Note_on_c, 4, 66, 0
7, 151951, Note_on_c, 4, 62, 0
7, 151976, Note_on_c, 4, 54, 0
7, 151991, Note_on_c, 4, 66, 74
7, 151995, Note_on_c, 4, 62, 75
7, 152155, Note_on_c, 4, 45, 0
7, 152161, Note_on_c, 4, 45, 61
7, 152165, Note_on_c, 4, 50, 0
7, 152165, Note_on_c, 4, 50, 112
7, 152166, Note_on_c, 4, 57, 83
7, 152169, Note_on_c, 4, 62, 98
7, 152170, Note_on_c, 4, 57, 0
7, 152170, Note_on_c, 4, 66, 77
7, 152170, Note_on_c, 4, 54, 102
7, 152206, Note_on_c, 4, 50, 0
7, 152210, Note_on_c, 4, 66, 0
7, 152218, Note_on_c, 4, 62, 0
7, 152242, Note_on_c, 4, 66, 0
7, 152245, Note_on_c, 4, 45, 0
7, 152264, Note_on_c, 4, 54, 0
7, 152323, Note_on_c, 4, 53, 8
7, 152416, Note_on_c, 4, 62, 0
7, 152451, Note_on_c, 4, 57, 0
7, 152471, Note_on_c, 4, 66, 74
7, 152474, Note_on_c, 4, 62, 92
7, 152480, Note_on_c, 4, 57, 57
7, 152489, Note_on_c, 4, 54, 46
7, 152507, Note_on_c, 4, 53, 0
7, 152615, Note_on_c, 4, 54, 0
7, 152639, Note_on_c, 4, 50, 5
7, 152641, Note_on_c, 4, 54, 78
7, 152650, Note_on_c, 4, 66, 62
7, 152696, Note_on_c, 4, 66, 0
7, 152850, Note_on_c, 4, 66, 0
7, 152928, Note_on_c, 4, 62, 0
7, 152955, Note_on_c, 4, 66, 71
7, 152959, Note_on_c, 4, 62, 80
7, 152971, Note_on_c, 4, 50, 16
7, 153023, Note_on_c, 4, 50, 0
7, 153125, Note_on_c, 4, 54, 102
7, 153129, Note_on_c, 4, 57, 101
7, 153130, Note_on_c, 4, 66, 86
7, 153130, Note_on_c, 4, 62, 98
7, 153134, Note_on_c, 4, 57, 0
7, 153140, Note_on_c, 4, 54, 0
7, 153141, Note_on_c, 4, 62, 0
7, 153150, Note_on_c, 4, 66, 0
7, 153186, Note_on_c, 4, 54, 0
7, 153194, Note_on_c, 4, 66, 0
7, 153273, Note_on_c, 4, 53, 39
7, 153285, Note_on_c, 4, 50, 0
7, 153285, Note_on_c, 4, 54, 15
7, 153335, Note_on_c, 4, 62, 0
7, 153335, Note_on_c, 4, 53, 0
7, 153373, Note_on_c, 4, 57, 0
7, 153424, Note_on_c, 4, 54, 0
7, 153430, Note_on_c, 4, 66, 80
7, 153435, Note_on_c, 4, 62, 92
7, 153439, Note_on_c, 4, 57, 40
7, 153441, Note_on_c, 4, 54, 53
7, 153600, Note_on_c, 4, 54, 0
7, 153600, Note_on_c, 4, 45, 33
7, 153604, Note_on_c, 4, 50, 92
7, 153606, Note_on_c, 4, 54, 85
7, 153856, Note_on_c, 4, 66, 0
7, 153914, Note_on_c, 4, 62, 0
7, 153915, Note_on_c, 4, 66, 65
7, 153919, Note_on_c, 4, 62, 69
7, 154090, Note_on_c, 4, 57, 92
7, 154091, Note_on_c, 4, 62, 92
7, 154093, Note_on_c, 4, 66, 77
7, 154101, Note_on_c, 4, 57, 0
7, 154113, Note_on_c, 4, 66, 0
7, 154138, Note_on_c, 4, 50, 0
7, 154141, Note_on_c, 4, 45, 0
7, 154142, Note_on_c, 4, 62, 0
7, 154165, Note_on_c, 4, 66, 0
7, 154205, Note_on_c, 4, 54, 0
7, 154326, Note_on_c, 4, 62, 0
7, 154392, Note_on_c, 4, 66, 68
7, 154395, Note_on_c, 4, 62, 98
7, 154401, Note_on_c, 4, 54, 57
7, 154405, Note_on_c, 4, 50, 5
7, 154496, Note_on_c, 4, 66, 0
7, 154540, Note_on_c, 4, 50, 0
7, 154560, Note_on_c, 4, 50, 51
7, 154571, Note_on_c, 4, 66, 35
7, 154629, Note_on_c, 4, 66, 0
7, 154875, Note_on_c, 4, 66, 62
7, 154876, Note_on_c, 4, 62, 0
7, 154880, Note_on_c, 4, 62, 80
7, 154884, Note_on_c, 4, 57, 57
7, 154896, Note_on_c, 4, 57, 0
7, 154897, Note_on_c, 4, 66, 0
7, 155020, Note_on_c, 4, 57, 0
7, 155041, Note_on_c, 4, 45, 43
7, 155043, Note_on_c, 4, 50, 112
7, 155045, Note_on_c, 4, 62, 0
7, 155045, Note_on_c, 4, 57, 101
7, 155046, Note_on_c, 4, 63, 98
7, 155046, Note_on_c, 4, 54, 105
7, 155048, Note_on_c, 4, 66, 83
7, 155050, Note_on_c, 4, 50, 0
7, 155051, Note_on_c, 4, 62, 98
7, 155066, Note_on_c, 4, 63, 0
7, 155068, Note_on_c, 4, 66, 0
7, 155071, Note_on_c, 4, 54, 0
7, 155189, Note_on_c, 4, 62, 0
7, 155195, Note_on_c, 4, 45, 0
7, 155195, Note_on_c, 4, 50, 0
7, 155246, Note_on_c, 4, 54, 0
7, 155345, Note_on_c, 4, 57, 0
7, 155354, Note_on_c, 4, 66, 38
7, 155361, Note_on_c, 4, 58, 5
7, 155371, Pitch_bend_c, 4, 7084
7, 155379, Note_on_c, 4, 66, 0
7, 155399, Pitch_bend_c, 4, 9470
7, 155520, Note_on_c, 4, 58, 0
7, 155525, Note_on_c, 4, 52, 88
7, 155528, Note_on_c, 4, 59, 101
7, 155529, Note_on_c, 4, 68, 101
7, 155534, Note_on_c, 4, 64, 104
7, 155556, Pitch_bend_c, 4, 8192
7, 155585, Note_on_c, 4, 52, 0
7, 155671, Note_on_c, 4, 52, 25
7, 155779, Note_on_c, 4, 68, 0
7, 155816, Note_on_c, 4, 59, 0
7, 155840, Note_on_c, 4, 68, 47
7, 155860, Note_on_c, 4, 68, 0
7, 156005, Note_on_c, 4, 59, 92
7, 156008, Note_on_c, 4, 68, 112
7, 156010, Note_on_c, 4, 52, 46
7, 156036, Note_on_c, 4, 52, 0
7, 156085, Note_on_c, 4, 52, 0
7, 156280, Note_on_c, 4, 68, 0
7, 156312, Note_on_c, 4, 59, 0
7, 156347, Note_on_c, 4, 64, 0
7, 156481, Note_on_c, 4, 52, 105
7, 156483, Note_on_c, 4, 59, 83
7, 156485, Note_on_c, 4, 68, 107
7, 156485, Note_on_c, 4, 65, 98
7, 156490, Note_on_c, 4, 64, 92
7, 156511, Note_on_c, 4, 65, 0
7, 156753, Note_on_c, 4, 68, 0
7, 156775, Note_on_c, 4, 59, 0
7, 156964, Note_on_c, 4, 59, 110
7, 156966, Note_on_c, 4, 68, 112
7, 157120, Note_on_c, 4, 63, 28
7, 157123, Note_on_c, 4, 64, 0
7, 157130, Note_on_c, 4, 68, 0
7, 157144, Note_on_c, 4, 63, 0
7, 157145, Note_on_c, 4, 59, 0
7, 157285, Note_on_c, 4, 66, 47
7, 157361, Note_on_c, 4, 66, 0
7, 157394, Note_on_c, 4, 52, 0
7, 157440, Note_on_c, 4, 52, 75
7, 157444, Note_on_c, 4, 45, 10
7, 157444, Note_on_c, 4, 61, 101
7, 157445, Note_on_c, 4, 69, 104
7, 157445, Note_on_c, 4, 57, 98
7, 157445, Note_on_c, 4, 65, 104
7, 157454, Note_on_c, 4, 64, 69
7, 157491, Note_on_c, 4, 65, 0
7, 157641, Note_on_c, 4, 57, 0
7, 157689, Note_on_c, 4, 64, 0
7, 157700, Note_on_c, 4, 52, 0
7, 157728, Note_on_c, 4, 69, 0
7, 157795, Note_on_c, 4, 45, 0
7, 157845, Note_on_c, 4, 61, 0
7, 157925, Note_on_c, 4, 57, 112
7, 157925, Note_on_c, 4, 45, 48
7, 157926, Note_on_c, 4, 61, 101
7, 157930, Note_on_c, 4, 69, 109
7, 157931, Note_on_c, 4, 64, 75
7, 157933, Note_on_c, 4, 52, 112
7, 158145, Note_on_c, 4, 52, 0
7, 158161, Note_on_c, 4, 64, 0
7, 158178, Note_on_c, 4, 57, 0
7, 158214, Note_on_c, 4, 61, 0
7, 158227, Note_on_c, 4, 69, 0
7, 158405, Note_on_c, 4, 44, 46
7, 158406, Note_on_c, 4, 52, 112
7, 158409, Note_on_c, 4, 45, 0
7, 158409, Note_on_c, 4, 57, 109
7, 158411, Note_on_c, 4, 64, 98
7, 158411, Note_on_c, 4, 61, 110
7, 158416, Note_on_c, 4, 69, 107
7, 158648, Note_on_c, 4, 69, 0
7, 158653, Note_on_c, 4, 57, 0
7, 158669, Note_on_c, 4, 52, 0
7, 158760, Note_on_c, 4, 61, 0
7, 158776, Note_on_c, 4, 64, 0
7, 158885, Note_on_c, 4, 52, 69
7, 158886, Note_on_c, 4, 57, 95
7, 158889, Note_on_c, 4, 61, 92
7, 158890, Note_on_c, 4, 64, 34
7, 158890, Note_on_c, 4, 69, 107
7, 158916, Note_on_c, 4, 44, 0
7, 159089, Note_on_c, 4, 57, 0
7, 159110, Note_on_c, 4, 69, 0
7, 159115, Note_on_c, 4, 52, 0
7, 159149, Note_on_c, 4, 61, 0
7, 159274, Note_on_c, 4, 64, 0
7, 159360, Note_on_c, 4, 66, 83
7, 159360, Note_on_c, 4, 54, 71
7, 159360, Note_on_c, 4, 62, 98
7, 159360, Note_on_c, 4, 57, 92
7, 159365, Note_on_c, 4, 45, 61
7, 159365, Note_on_c, 4, 50, 112
7, 159615, Note_on_c, 4, 66, 0
7, 159675, Note_on_c, 4, 62, 0
7, 159840, Note_on_c, 4, 54, 0
7, 159840, Note_on_c, 4, 50, 0
7, 159876, Note_on_c, 4, 45, 0
7, 159886, Note_on_c, 4, 57, 0
7, 159886, End_track
8, 0, Start_track
8, 0, MIDI_port, 0
8, 672, Control_c, 9, 11, 127
8, 672, Control_c, 9, 7, 115
8, 676, Control_c, 9, 91, 100
8, 676, Control_c, 9, 93, 100
8, 5760, Note_on_c, 9, 35, 120
8, 5760, Note_on_c, 9, 42, 127
8, 5760, Note_on_c, 9, 37, 78
8, 5764, Note_on_c, 9, 35, 0
8, 5764, Note_on_c, 9, 42, 0
8, 5764, Note_on_c, 9, 37, 0
8, 6000, Note_on_c, 9, 39, 57
8, 6004, Note_on_c, 9, 39, 0
8, 6080, Note_on_c, 9, 37, 78
8, 6080, Note_on_c, 9, 42, 110
8, 6084, Note_on_c, 9, 37, 0
8, 6084, Note_on_c, 9, 42, 0
8, 6240, Note_on_c, 9, 40, 127
8, 6240, Note_on_c, 9, 42, 119
8, 6240, Note_on_c, 9, 37, 107
8, 6244, Note_on_c, 9, 40, 0
8, 6244, Note_on_c, 9, 42, 0
8, 6244, Note_on_c, 9, 37, 0
8, 6480, Note_on_c, 9, 39, 47
8, 6484, Note_on_c, 9, 39, 0
8, 6560, Note_on_c, 9, 35, 64
8, 6560, Note_on_c, 9, 42, 93
8, 6560, Note_on_c, 9, 37, 81
8, 6564, Note_on_c, 9, 35, 0
8, 6564, Note_on_c, 9, 42, 0
8, 6564, Note_on_c, 9, 37, 0
8, 6720, Note_on_c, 9, 42, 113
8, 6720, Note_on_c, 9, 37, 89
8, 6720, Note_on_c, 9, 35, 110
8, 6724, Note_on_c, 9, 42, 0
8, 6724, Note_on_c, 9, 37, 0
8, 6724, Note_on_c, 9, 35, 0
8, 7040, Note_on_c, 9, 42, 93
8, 7040, Note_on_c, 9, 37, 54
8, 7044, Note_on_c, 9, 42, 0
8, 7044, Note_on_c, 9, 37, 0
8, 7045, Note_on_c, 9, 39, 51
8, 7049, Note_on_c, 9, 39, 0
8, 7200, Note_on_c, 9, 37, 82
8, 7200, Note_on_c, 9, 40, 127
8, 7200, Note_on_c, 9, 42, 119
8, 7200, Note_on_c, 9, 39, 35
8, 7204, Note_on_c, 9, 37, 0
8, 7204, Note_on_c, 9, 40, 0
8, 7204, Note_on_c, 9, 42, 0
8, 7204, Note_on_c, 9, 39, 0
8, 7520, Note_on_c, 9, 37, 73
8, 7520, Note_on_c, 9, 42, 93
8, 7524, Note_on_c, 9, 37, 0
8, 7524, Note_on_c, 9, 42, 0
8, 7680, Note_on_c, 9, 37, 107
8, 7680, Note_on_c, 9, 35, 92
8, 7680, Note_on_c, 9, 42, 107
8, 7684, Note_on_c, 9, 37, 0
8, 7684, Note_on_c, 9, 35, 0
8, 7684, Note_on_c, 9, 42, 0
8, 7920, Note_on_c, 9, 39, 57
8, 7924, Note_on_c, 9, 39, 0
8, 8000, Note_on_c, 9, 37, 79
8, 8000, Note_on_c, 9, 42, 101
8, 8004, Note_on_c, 9, 37, 0
8, 8004, Note_on_c, 9, 42, 0
8, 8160, Note_on_c, 9, 37, 95
8, 8160, Note_on_c, 9, 42, 119
8, 8160, Note_on_c, 9, 40, 127
8, 8164, Note_on_c, 9, 37, 0
8, 8164, Note_on_c, 9, 42, 0
8, 8164, Note_on_c, 9, 40, 0
8, 8400, Note_on_c, 9, 39, 47
8, 8404, Note_on_c, 9, 39, 0
8, 8480, Note_on_c, 9, 35, 75
8, 8480, Note_on_c, 9, 37, 82
8, 8480, Note_on_c, 9, 42, 85
8, 8484, Note_on_c, 9, 35, 0
8, 8484, Note_on_c, 9, 37, 0
8, 8484, Note_on_c, 9, 42, 0
8, 8640, Note_on_c, 9, 37, 97
8, 8640, Note_on_c, 9, 42, 91
8, 8640, Note_on_c, 9, 35, 106
8, 8644, Note_on_c, 9, 37, 0
8, 8644, Note_on_c, 9, 42, 0
8, 8644, Note_on_c, 9, 35, 0
8, 8960, Note_on_c, 9, 42, 85
8, 8960, Note_on_c, 9, 37, 77
8, 8964, Note_on_c, 9, 42, 0
8, 8964, Note_on_c, 9, 37, 0
8, 8965, Note_on_c, 9, 39, 51
8, 8969, Note_on_c, 9, 39, 0
8, 9120, Note_on_c, 9, 39, 35
8, 9120, Note_on_c, 9, 40, 127
8, 9120, Note_on_c, 9, 42, 107
8, 9120, Note_on_c, 9, 37, 97
8, 9124, Note_on_c, 9, 39, 0
8, 9124, Note_on_c, 9, 40, 0
8, 9124, Note_on_c, 9, 42, 0
8, 9124, Note_on_c, 9, 37, 0
8, 9440, Note_on_c, 9, 37, 81
8, 9440, Note_on_c, 9, 42, 77
8, 9444, Note_on_c, 9, 37, 0
8, 9444, Note_on_c, 9, 42, 0
8, 9600, Note_on_c, 9, 35, 120
8, 9600, Note_on_c, 9, 37, 78
8, 9600, Note_on_c, 9, 42, 127
8, 9604, Note_on_c, 9, 35, 0
8, 9604, Note_on_c, 9, 37, 0
8, 9604, Note_on_c, 9, 42, 0
8, 9840, Note_on_c, 9, 39, 57
8, 9844, Note_on_c, 9, 39, 0
8, 9920, Note_on_c, 9, 37, 78
8, 9920, Note_on_c, 9, 42, 110
8, 9924, Note_on_c, 9, 37, 0
8, 9924, Note_on_c, 9, 42, 0
8, 10080, Note_on_c, 9, 40, 127
8, 10080, Note_on_c, 9, 37, 107
8, 10080, Note_on_c, 9, 42, 119
8, 10084, Note_on_c, 9, 40, 0
8, 10084, Note_on_c, 9, 37, 0
8, 10084, Note_on_c, 9, 42, 0
8, 10320, Note_on_c, 9, 39, 47
8, 10324, Note_on_c, 9, 39, 0
8, 10400, Note_on_c, 9, 35, 64
8, 10400, Note_on_c, 9, 37, 81
8, 10400, Note_on_c, 9, 42, 93
8, 10404, Note_on_c, 9, 35, 0
8, 10404, Note_on_c, 9, 37, 0
8, 10404, Note_on_c, 9, 42, 0
8, 10560, Note_on_c, 9, 42, 113
8, 10560, Note_on_c, 9, 37, 89
8, 10560, Note_on_c, 9, 35, 110
8, 10564, Note_on_c, 9, 42, 0
8, 10564, Note_on_c, 9, 37, 0
8, 10564, Note_on_c, 9, 35, 0
8, 10880, Note_on_c, 9, 37, 54
8, 10880, Note_on_c, 9, 42, 93
8, 10884, Note_on_c, 9, 37, 0
8, 10884, Note_on_c, 9, 42, 0
8, 10885, Note_on_c, 9, 39, 51
8, 10889, Note_on_c, 9, 39, 0
8, 11040, Note_on_c, 9, 40, 127
8, 11040, Note_on_c, 9, 37, 82
8, 11040, Note_on_c, 9, 39, 35
8, 11040, Note_on_c, 9, 42, 119
8, 11044, Note_on_c, 9, 40, 0
8, 11044, Note_on_c, 9, 37, 0
8, 11044, Note_on_c, 9, 39, 0
8, 11044, Note_on_c, 9, 42, 0
8, 11360, Note_on_c, 9, 37, 73
8, 11360, Note_on_c, 9, 42, 93
8, 11364, Note_on_c, 9, 37, 0
8, 11364, Note_on_c, 9, 42, 0
8, 11520, Note_on_c, 9, 35, 92
8, 11520, Note_on_c, 9, 42, 107
8, 11520, Note_on_c, 9, 37, 107
8, 11524, Note_on_c, 9, 35, 0
8, 11524, Note_on_c, 9, 42, 0
8, 11524, Note_on_c, 9, 37, 0
8, 11760, Note_on_c, 9, 39, 57
8, 11764, Note_on_c, 9, 39, 0
8, 11840, Note_on_c, 9, 37, 79
8, 11840, Note_on_c, 9, 42, 101
8, 11844, Note_on_c, 9, 37, 0
8, 11844, Note_on_c, 9, 42, 0
8, 12000, Note_on_c, 9, 37, 95
8, 12000, Note_on_c, 9, 42, 119
8, 12000, Note_on_c, 9, 40, 127
8, 12004, Note_on_c, 9, 37, 0
8, 12004, Note_on_c, 9, 42, 0
8, 12004, Note_on_c, 9, 40, 0
8, 12240, Note_on_c, 9, 39, 47
8, 12244, Note_on_c, 9, 39, 0
8, 12320, Note_on_c, 9, 35, 75
8, 12320, Note_on_c, 9, 42, 85
8, 12320, Note_on_c, 9, 37, 82
8, 12324, Note_on_c, 9, 35, 0
8, 12324, Note_on_c, 9, 42, 0
8, 12324, Note_on_c, 9, 37, 0
8, 12480, Note_on_c, 9, 35, 106
8, 12480, Note_on_c, 9, 37, 97
8, 12480, Note_on_c, 9, 42, 91
8, 12484, Note_on_c, 9, 35, 0
8, 12484, Note_on_c, 9, 37, 0
8, 12484, Note_on_c, 9, 42, 0
8, 12800, Note_on_c, 9, 42, 85
8, 12800, Note_on_c, 9, 37, 77
8, 12804, Note_on_c, 9, 42, 0
8, 12804, Note_on_c, 9, 37, 0
8, 12805, Note_on_c, 9, 39, 51
8, 12809, Note_on_c, 9, 39, 0
8, 12960, Note_on_c, 9, 42, 107
8, 12960, Note_on_c, 9, 37, 97
8, 12960, Note_on_c, 9, 39, 35
8, 12960, Note_on_c, 9, 40, 127
8, 12964, Note_on_c, 9, 42, 0
8, 12964, Note_on_c, 9, 37, 0
8, 12964, Note_on_c, 9, 39, 0
8, 12964, Note_on_c, 9, 40, 0
8, 13280, Note_on_c, 9, 42, 77
8, 13280, Note_on_c, 9, 37, 81
8, 13284, Note_on_c, 9, 42, 0
8, 13284, Note_on_c, 9, 37, 0
8, 13440, Note_on_c, 9, 42, 119
8, 13440, Note_on_c, 9, 35, 120
8, 13440, Note_on_c, 9, 37, 107
8, 13444, Note_on_c, 9, 42, 0
8, 13444, Note_on_c, 9, 35, 0
8, 13444, Note_on_c, 9, 37, 0
8, 13680, Note_on_c, 9, 39, 57
8, 13684, Note_on_c, 9, 39, 0
8, 13760, Note_on_c, 9, 37, 89
8, 13760, Note_on_c, 9, 42, 91
8, 13764, Note_on_c, 9, 37, 0
8, 13764, Note_on_c, 9, 42, 0
8, 13920, Note_on_c, 9, 37, 101
8, 13920, Note_on_c, 9, 40, 127
8, 13920, Note_on_c, 9, 42, 89
8, 13924, Note_on_c, 9, 37, 0
8, 13924, Note_on_c, 9, 40, 0
8, 13924, Note_on_c, 9, 42, 0
8, 14160, Note_on_c, 9, 39, 47
8, 14164, Note_on_c, 9, 39, 0
8, 14240, Note_on_c, 9, 37, 68
8, 14240, Note_on_c, 9, 35, 64
8, 14240, Note_on_c, 9, 42, 84
8, 14244, Note_on_c, 9, 37, 0
8, 14244, Note_on_c, 9, 35, 0
8, 14244, Note_on_c, 9, 42, 0
8, 14400, Note_on_c, 9, 35, 110
8, 14400, Note_on_c, 9, 37, 101
8, 14400, Note_on_c, 9, 42, 104
8, 14404, Note_on_c, 9, 35, 0
8, 14404, Note_on_c, 9, 37, 0
8, 14404, Note_on_c, 9, 42, 0
8, 14720, Note_on_c, 9, 42, 78
8, 14720, Note_on_c, 9, 37, 79
8, 14724, Note_on_c, 9, 42, 0
8, 14724, Note_on_c, 9, 37, 0
8, 14725, Note_on_c, 9, 39, 51
8, 14729, Note_on_c, 9, 39, 0
8, 14880, Note_on_c, 9, 37, 101
8, 14880, Note_on_c, 9, 40, 127
8, 14880, Note_on_c, 9, 39, 35
8, 14880, Note_on_c, 9, 42, 113
8, 14884, Note_on_c, 9, 37, 0
8, 14884, Note_on_c, 9, 40, 0
8, 14884, Note_on_c, 9, 39, 0
8, 14884, Note_on_c, 9, 42, 0
8, 15200, Note_on_c, 9, 37, 71
8, 15200, Note_on_c, 9, 42, 82
8, 15204, Note_on_c, 9, 37, 0
8, 15204, Note_on_c, 9, 42, 0
8, 15360, Note_on_c, 9, 37, 107
8, 15360, Note_on_c, 9, 35, 92
8, 15360, Note_on_c, 9, 42, 104
8, 15364, Note_on_c, 9, 37, 0
8, 15364, Note_on_c, 9, 35, 0
8, 15364, Note_on_c, 9, 42, 0
8, 15600, Note_on_c, 9, 39, 57
8, 15604, Note_on_c, 9, 39, 0
8, 15680, Note_on_c, 9, 42, 91
8, 15680, Note_on_c, 9, 37, 65
8, 15684, Note_on_c, 9, 42, 0
8, 15684, Note_on_c, 9, 37, 0
8, 15840, Note_on_c, 9, 40, 127
8, 15840, Note_on_c, 9, 37, 107
8, 15840, Note_on_c, 9, 42, 113
8, 15844, Note_on_c, 9, 40, 0
8, 15844, Note_on_c, 9, 37, 0
8, 15844, Note_on_c, 9, 42, 0
8, 16080, Note_on_c, 9, 39, 47
8, 16084, Note_on_c, 9, 39, 0
8, 16160, Note_on_c, 9, 37, 81
8, 16160, Note_on_c, 9, 42, 91
8, 16160, Note_on_c, 9, 35, 75
8, 16164, Note_on_c, 9, 37, 0
8, 16164, Note_on_c, 9, 42, 0
8, 16164, Note_on_c, 9, 35, 0
8, 16320, Note_on_c, 9, 35, 106
8, 16320, Note_on_c, 9, 42, 110
8, 16320, Note_on_c, 9, 37, 110
8, 16324, Note_on_c, 9, 35, 0
8, 16324, Note_on_c, 9, 42, 0
8, 16324, Note_on_c, 9, 37, 0
8, 16640, Note_on_c, 9, 42, 95
8, 16640, Note_on_c, 9, 37, 79
8, 16644, Note_on_c, 9, 42, 0
8, 16644, Note_on_c, 9, 37, 0
8, 16645, Note_on_c, 9, 39, 51
8, 16649, Note_on_c, 9, 39, 0
8, 16800, Note_on_c, 9, 40, 127
8, 16800, Note_on_c, 9, 37, 113
8, 16800, Note_on_c, 9, 42, 110
8, 16800, Note_on_c, 9, 39, 35
8, 16804, Note_on_c, 9, 40, 0
8, 16804, Note_on_c, 9, 37, 0
8, 16804, Note_on_c, 9, 42, 0
8, 16804, Note_on_c, 9, 39, 0
8, 17120, Note_on_c, 9, 37, 68
8, 17120, Note_on_c, 9, 42, 81
8, 17124, Note_on_c, 9, 37, 0
8, 17124, Note_on_c, 9, 42, 0
8, 17280, Note_on_c, 9, 37, 113
8, 17280, Note_on_c, 9, 35, 120
8, 17280, Note_on_c, 9, 42, 119
8, 17284, Note_on_c, 9, 37, 0
8, 17284, Note_on_c, 9, 35, 0
8, 17284, Note_on_c, 9, 42, 0
8, 17520, Note_on_c, 9, 39, 57
8, 17524, Note_on_c, 9, 39, 0
8, 17600, Note_on_c, 9, 37, 82
8, 17600, Note_on_c, 9, 42, 99
8, 17604, Note_on_c, 9, 37, 0
8, 17604, Note_on_c, 9, 42, 0
8, 17760, Note_on_c, 9, 37, 110
8, 17760, Note_on_c, 9, 40, 127
8, 17760, Note_on_c, 9, 42, 113
8, 17764, Note_on_c, 9, 37, 0
8, 17764, Note_on_c, 9, 40, 0
8, 17764, Note_on_c, 9, 42, 0
8, 18000, Note_on_c, 9, 39, 47
8, 18004, Note_on_c, 9, 39, 0
8, 18080, Note_on_c, 9, 37, 73
8, 18080, Note_on_c, 9, 35, 64
8, 18080, Note_on_c, 9, 42, 104
8, 18084, Note_on_c, 9, 37, 0
8, 18084, Note_on_c, 9, 35, 0
8, 18084, Note_on_c, 9, 42, 0
8, 18240, Note_on_c, 9, 42, 110
8, 18240, Note_on_c, 9, 37, 110
8, 18240, Note_on_c, 9, 35, 110
8, 18244, Note_on_c, 9, 42, 0
8, 18244, Note_on_c, 9, 37, 0
8, 18244, Note_on_c, 9, 35, 0
8, 18560, Note_on_c, 9, 37, 82
8, 18560, Note_on_c, 9, 42, 104
8, 18564, Note_on_c, 9, 37, 0
8, 18564, Note_on_c, 9, 42, 0
8, 18565, Note_on_c, 9, 39, 51
8, 18569, Note_on_c, 9, 39, 0
8, 18720, Note_on_c, 9, 39, 35
8, 18720, Note_on_c, 9, 40, 127
8, 18720, Note_on_c, 9, 37, 99
8, 18720, Note_on_c, 9, 42, 113
8, 18724, Note_on_c, 9, 39, 0
8, 18724, Note_on_c, 9, 40, 0
8, 18724, Note_on_c, 9, 37, 0
8, 18724, Note_on_c, 9, 42, 0
8, 19040, Note_on_c, 9, 42, 99
8, 19040, Note_on_c, 9, 37, 67
8, 19044, Note_on_c, 9, 42, 0
8, 19044, Note_on_c, 9, 37, 0
8, 19200, Note_on_c, 9, 37, 110
8, 19200, Note_on_c, 9, 42, 107
8, 19200, Note_on_c, 9, 35, 92
8, 19204, Note_on_c, 9, 37, 0
8, 19204, Note_on_c, 9, 42, 0
8, 19204, Note_on_c, 9, 35, 0
8, 19440, Note_on_c, 9, 39, 57
8, 19444, Note_on_c, 9, 39, 0
8, 19520, Note_on_c, 9, 42, 101
8, 19520, Note_on_c, 9, 37, 77
8, 19524, Note_on_c, 9, 42, 0
8, 19524, Note_on_c, 9, 37, 0
8, 19680, Note_on_c, 9, 37, 104
8, 19680, Note_on_c, 9, 42, 107
8, 19680, Note_on_c, 9, 40, 127
8, 19684, Note_on_c, 9, 37, 0
8, 19684, Note_on_c, 9, 42, 0
8, 19684, Note_on_c, 9, 40, 0
8, 19713, Pitch_bend_c, 9, 8192
8, 19920, Note_on_c, 9, 39, 47
8, 19924, Note_on_c, 9, 39, 0
8, 20000, Note_on_c, 9, 37, 79
8, 20000, Note_on_c, 9, 42, 99
8, 20000, Note_on_c, 9, 35, 75
8, 20004, Note_on_c, 9, 37, 0
8, 20004, Note_on_c, 9, 42, 0
8, 20004, Note_on_c, 9, 35, 0
8, 20160, Note_on_c, 9, 37, 107
8, 20160, Note_on_c, 9, 35, 106
8, 20160, Note_on_c, 9, 42, 107
8, 20164, Note_on_c, 9, 37, 0
8, 20164, Note_on_c, 9, 35, 0
8, 20164, Note_on_c, 9, 42, 0
8, 20480, Note_on_c, 9, 42, 101
8, 20480, Note_on_c, 9, 37, 87
8, 20484, Note_on_c, 9, 42, 0
8, 20484, Note_on_c, 9, 37, 0
8, 20485, Note_on_c, 9, 39, 51
8, 20489, Note_on_c, 9, 39, 0
8, 20640, Note_on_c, 9, 37, 104
8, 20640, Note_on_c, 9, 39, 35
8, 20640, Note_on_c, 9, 42, 116
8, 20640, Note_on_c, 9, 40, 127
8, 20644, Note_on_c, 9, 37, 0
8, 20644, Note_on_c, 9, 39, 0
8, 20644, Note_on_c, 9, 42, 0
8, 20644, Note_on_c, 9, 40, 0
8, 20960, Note_on_c, 9, 42, 101
8, 20960, Note_on_c, 9, 37, 84
8, 20964, Note_on_c, 9, 42, 0
8, 20964, Note_on_c, 9, 37, 0
8, 21120, Note_on_c, 9, 37, 104
8, 21120, Note_on_c, 9, 42, 127
8, 21120, Note_on_c, 9, 35, 120
8, 21124, Note_on_c, 9, 37, 0
8, 21124, Note_on_c, 9, 42, 0
8, 21124, Note_on_c, 9, 35, 0
8, 21360, Note_on_c, 9, 39, 57
8, 21364, Note_on_c, 9, 39, 0
8, 21440, Note_on_c, 9, 37, 95
8, 21440, Note_on_c, 9, 42, 110
8, 21444, Note_on_c, 9, 37, 0
8, 21444, Note_on_c, 9, 42, 0
8, 21600, Note_on_c, 9, 40, 127
8, 21600, Note_on_c, 9, 42, 119
8, 21600, Note_on_c, 9, 37, 104
8, 21604, Note_on_c, 9, 40, 0
8, 21604, Note_on_c, 9, 42, 0
8, 21604, Note_on_c, 9, 37, 0
8, 21840, Note_on_c, 9, 39, 47
8, 21844, Note_on_c, 9, 39, 0
8, 21920, Note_on_c, 9, 42, 93
8, 21920, Note_on_c, 9, 37, 87
8, 21920, Note_on_c, 9, 35, 64
8, 21924, Note_on_c, 9, 42, 0
8, 21924, Note_on_c, 9, 37, 0
8, 21924, Note_on_c, 9, 35, 0
8, 22080, Note_on_c, 9, 37, 113
8, 22080, Note_on_c, 9, 42, 113
8, 22080, Note_on_c, 9, 35, 110
8, 22084, Note_on_c, 9, 37, 0
8, 22084, Note_on_c, 9, 42, 0
8, 22084, Note_on_c, 9, 35, 0
8, 22400, Note_on_c, 9, 42, 93
8, 22400, Note_on_c, 9, 37, 85
8, 22404, Note_on_c, 9, 42, 0
8, 22404, Note_on_c, 9, 37, 0
8, 22405, Note_on_c, 9, 39, 51
8, 22409, Note_on_c, 9, 39, 0
8, 22560, Note_on_c, 9, 37, 113
8, 22560, Note_on_c, 9, 39, 35
8, 22560, Note_on_c, 9, 40, 127
8, 22560, Note_on_c, 9, 42, 119
8, 22564, Note_on_c, 9, 37, 0
8, 22564, Note_on_c, 9, 39, 0
8, 22564, Note_on_c, 9, 40, 0
8, 22564, Note_on_c, 9, 42, 0
8, 22880, Note_on_c, 9, 37, 104
8, 22880, Note_on_c, 9, 42, 93
8, 22884, Note_on_c, 9, 37, 0
8, 22884, Note_on_c, 9, 42, 0
8, 23040, Note_on_c, 9, 37, 113
8, 23040, Note_on_c, 9, 42, 107
8, 23040, Note_on_c, 9, 35, 92
8, 23044, Note_on_c, 9, 37, 0
8, 23044, Note_on_c, 9, 42, 0
8, 23044, Note_on_c, 9, 35, 0
8, 23280, Note_on_c, 9, 39, 57
8, 23284, Note_on_c, 9, 39, 0
8, 23360, Note_on_c, 9, 37, 91
8, 23360, Note_on_c, 9, 42, 101
8, 23364, Note_on_c, 9, 37, 0
8, 23364, Note_on_c, 9, 42, 0
8, 23520, Note_on_c, 9, 42, 119
8, 23520, Note_on_c, 9, 40, 127
8, 23520, Note_on_c, 9, 37, 107
8, 23524, Note_on_c, 9, 42, 0
8, 23524, Note_on_c, 9, 40, 0
8, 23524, Note_on_c, 9, 37, 0
8, 23760, Note_on_c, 9, 39, 47
8, 23764, Note_on_c, 9, 39, 0
8, 23840, Note_on_c, 9, 42, 85
8, 23840, Note_on_c, 9, 35, 75
8, 23840, Note_on_c, 9, 37, 99
8, 23844, Note_on_c, 9, 42, 0
8, 23844, Note_on_c, 9, 35, 0
8, 23844, Note_on_c, 9, 37, 0
8, 24000, Note_on_c, 9, 42, 91
8, 24000, Note_on_c, 9, 37, 113
8, 24000, Note_on_c, 9, 35, 106
8, 24004, Note_on_c, 9, 42, 0
8, 24004, Note_on_c, 9, 37, 0
8, 24004, Note_on_c, 9, 35, 0
8, 24320, Note_on_c, 9, 42, 85
8, 24320, Note_on_c, 9, 37, 93
8, 24324, Note_on_c, 9, 42, 0
8, 24324, Note_on_c, 9, 37, 0
8, 24325, Note_on_c, 9, 39, 51
8, 24329, Note_on_c, 9, 39, 0
8, 24480, Note_on_c, 9, 42, 107
8, 24480, Note_on_c, 9, 37, 113
8, 24480, Note_on_c, 9, 39, 35
8, 24480, Note_on_c, 9, 40, 127
8, 24484, Note_on_c, 9, 42, 0
8, 24484, Note_on_c, 9, 37, 0
8, 24484, Note_on_c, 9, 39, 0
8, 24484, Note_on_c, 9, 40, 0
8, 24800, Note_on_c, 9, 37, 104
8, 24800, Note_on_c, 9, 42, 77
8, 24804, Note_on_c, 9, 37, 0
8, 24804, Note_on_c, 9, 42, 0
8, 24960, Note_on_c, 9, 42, 119
8, 24960, Note_on_c, 9, 37, 78
8, 24960, Note_on_c, 9, 35, 120
8, 24964, Note_on_c, 9, 42, 0
8, 24964, Note_on_c, 9, 37, 0
8, 24964, Note_on_c, 9, 35, 0
8, 25200, Note_on_c, 9, 39, 57
8, 25204, Note_on_c, 9, 39, 0
8, 25280, Note_on_c, 9, 37, 78
8, 25280, Note_on_c, 9, 42, 91
8, 25284, Note_on_c, 9, 37, 0
8, 25284, Note_on_c, 9, 42, 0
8, 25440, Note_on_c, 9, 42, 89
8, 25440, Note_on_c, 9, 40, 127
8, 25440, Note_on_c, 9, 37, 107
8, 25444, Note_on_c, 9, 42, 0
8, 25444, Note_on_c, 9, 40, 0
8, 25444, Note_on_c, 9, 37, 0
8, 25680, Note_on_c, 9, 39, 47
8, 25684, Note_on_c, 9, 39, 0
8, 25760, Note_on_c, 9, 37, 81
8, 25760, Note_on_c, 9, 42, 84
8, 25760, Note_on_c, 9, 35, 64
8, 25764, Note_on_c, 9, 37, 0
8, 25764, Note_on_c, 9, 42, 0
8, 25764, Note_on_c, 9, 35, 0
8, 25920, Note_on_c, 9, 35, 110
8, 25920, Note_on_c, 9, 42, 104
8, 25920, Note_on_c, 9, 37, 89
8, 25924, Note_on_c, 9, 35, 0
8, 25924, Note_on_c, 9, 42, 0
8, 25924, Note_on_c, 9, 37, 0
8, 26240, Note_on_c, 9, 37, 54
8, 26240, Note_on_c, 9, 42, 78
8, 26244, Note_on_c, 9, 37, 0
8, 26244, Note_on_c, 9, 42, 0
8, 26245, Note_on_c, 9, 39, 51
8, 26249, Note_on_c, 9, 39, 0
8, 26400, Note_on_c, 9, 40, 127
8, 26400, Note_on_c, 9, 37, 82
8, 26400, Note_on_c, 9, 39, 35
8, 26400, Note_on_c, 9, 42, 113
8, 26404, Note_on_c, 9, 40, 0
8, 26404, Note_on_c, 9, 37, 0
8, 26404, Note_on_c, 9, 39, 0
8, 26404, Note_on_c, 9, 42, 0
8, 26720, Note_on_c, 9, 42, 82
8, 26720, Note_on_c, 9, 37, 73
8, 26724, Note_on_c, 9, 42, 0
8, 26724, Note_on_c, 9, 37, 0
8, 26880, Note_on_c, 9, 42, 104
8, 26880, Note_on_c, 9, 37, 107
8, 26880, Note_on_c, 9, 35, 92
8, 26884, Note_on_c, 9, 42, 0
8, 26884, Note_on_c, 9, 37, 0
8, 26884, Note_on_c, 9, 35, 0
8, 27120, Note_on_c, 9, 39, 57
8, 27124, Note_on_c, 9, 39, 0
8, 27200, Note_on_c, 9, 42, 91
8, 27200, Note_on_c, 9, 37, 79
8, 27204, Note_on_c, 9, 42, 0
8, 27204, Note_on_c, 9, 37, 0
8, 27360, Note_on_c, 9, 37, 95
8, 27360, Note_on_c, 9, 42, 113
8, 27360, Note_on_c, 9, 40, 127
8, 27364, Note_on_c, 9, 37, 0
8, 27364, Note_on_c, 9, 42, 0
8, 27364, Note_on_c, 9, 40, 0
8, 27600, Note_on_c, 9, 39, 47
8, 27604, Note_on_c, 9, 39, 0
8, 27680, Note_on_c, 9, 37, 82
8, 27680, Note_on_c, 9, 35, 75
8, 27680, Note_on_c, 9, 42, 91
8, 27684, Note_on_c, 9, 37, 0
8, 27684, Note_on_c, 9, 35, 0
8, 27684, Note_on_c, 9, 42, 0
8, 27840, Note_on_c, 9, 37, 97
8, 27840, Note_on_c, 9, 35, 106
8, 27840, Note_on_c, 9, 42, 110
8, 27844, Note_on_c, 9, 37, 0
8, 27844, Note_on_c, 9, 35, 0
8, 27844, Note_on_c, 9, 42, 0
8, 28160, Note_on_c, 9, 42, 95
8, 28160, Note_on_c, 9, 37, 77
8, 28164, Note_on_c, 9, 42, 0
8, 28164, Note_on_c, 9, 37, 0
8, 28165, Note_on_c, 9, 39, 51
8, 28169, Note_on_c, 9, 39, 0
8, 28320, Note_on_c, 9, 37, 97
8, 28320, Note_on_c, 9, 40, 127
8, 28320, Note_on_c, 9, 39, 35
8, 28320, Note_on_c, 9, 42, 110
8, 28324, Note_on_c, 9, 37, 0
8, 28324, Note_on_c, 9, 40, 0
8, 28324, Note_on_c, 9, 39, 0
8, 28324, Note_on_c, 9, 42, 0
8, 28640, Note_on_c, 9, 37, 81
8, 28640, Note_on_c, 9, 42, 81
8, 28644, Note_on_c, 9, 37, 0
8, 28644, Note_on_c, 9, 42, 0
8, 28800, Note_on_c, 9, 35, 120
8, 28800, Note_on_c, 9, 42, 119
8, 28800, Note_on_c, 9, 37, 107
8, 28804, Note_on_c, 9, 35, 0
8, 28804, Note_on_c, 9, 42, 0
8, 28804, Note_on_c, 9, 37, 0
8, 29040, Note_on_c, 9, 39, 57
8, 29044, Note_on_c, 9, 39, 0
8, 29120, Note_on_c, 9, 37, 89
8, 29120, Note_on_c, 9, 42, 99
8, 29124, Note_on_c, 9, 37, 0
8, 29124, Note_on_c, 9, 42, 0
8, 29280, Note_on_c, 9, 42, 113
8, 29280, Note_on_c, 9, 40, 127
8, 29280, Note_on_c, 9, 37, 101
8, 29284, Note_on_c, 9, 42, 0
8, 29284, Note_on_c, 9, 40, 0
8, 29284, Note_on_c, 9, 37, 0
8, 29520, Note_on_c, 9, 39, 47
8, 29524, Note_on_c, 9, 39, 0
8, 29600, Note_on_c, 9, 37, 68
8, 29600, Note_on_c, 9, 42, 104
8, 29600, Note_on_c, 9, 35, 64
8, 29604, Note_on_c, 9, 37, 0
8, 29604, Note_on_c, 9, 42, 0
8, 29604, Note_on_c, 9, 35, 0
8, 29760, Note_on_c, 9, 37, 101
8, 29760, Note_on_c, 9, 42, 110
8, 29760, Note_on_c, 9, 35, 110
8, 29764, Note_on_c, 9, 37, 0
8, 29764, Note_on_c, 9, 42, 0
8, 29764, Note_on_c, 9, 35, 0
8, 30080, Note_on_c, 9, 42, 104
8, 30080, Note_on_c, 9, 37, 79
8, 30084, Note_on_c, 9, 42, 0
8, 30084, Note_on_c, 9, 37, 0
8, 30085, Note_on_c, 9, 39, 51
8, 30089, Note_on_c, 9, 39, 0
8, 30240, Note_on_c, 9, 39, 35
8, 30240, Note_on_c, 9, 40, 127
8, 30240, Note_on_c, 9, 37, 101
8, 30240, Note_on_c, 9, 42, 113
8, 30244, Note_on_c, 9, 39, 0
8, 30244, Note_on_c, 9, 40, 0
8, 30244, Note_on_c, 9, 37, 0
8, 30244, Note_on_c, 9, 42, 0
8, 30560, Note_on_c, 9, 42, 99
8, 30560, Note_on_c, 9, 37, 71
8, 30564, Note_on_c, 9, 42, 0
8, 30564, Note_on_c, 9, 37, 0
8, 30720, Note_on_c, 9, 37, 107
8, 30720, Note_on_c, 9, 42, 107
8, 30720, Note_on_c, 9, 35, 92
8, 30724, Note_on_c, 9, 37, 0
8, 30724, Note_on_c, 9, 42, 0
8, 30724, Note_on_c, 9, 35, 0
8, 30960, Note_on_c, 9, 39, 57
8, 30964, Note_on_c, 9, 39, 0
8, 31040, Note_on_c, 9, 37, 65
8, 31040, Note_on_c, 9, 42, 101
8, 31044, Note_on_c, 9, 37, 0
8, 31044, Note_on_c, 9, 42, 0
8, 31200, Note_on_c, 9, 42, 107
8, 31200, Note_on_c, 9, 40, 127
8, 31200, Note_on_c, 9, 37, 107
8, 31204, Note_on_c, 9, 42, 0
8, 31204, Note_on_c, 9, 40, 0
8, 31204, Note_on_c, 9, 37, 0
8, 31440, Note_on_c, 9, 39, 47
8, 31444, Note_on_c, 9, 39, 0
8, 31520, Note_on_c, 9, 35, 75
8, 31520, Note_on_c, 9, 37, 81
8, 31520, Note_on_c, 9, 42, 99
8, 31524, Note_on_c, 9, 35, 0
8, 31524, Note_on_c, 9, 37, 0
8, 31524, Note_on_c, 9, 42, 0
8, 31680, Note_on_c, 9, 35, 106
8, 31680, Note_on_c, 9, 37, 110
8, 31680, Note_on_c, 9, 42, 107
8, 31684, Note_on_c, 9, 35, 0
8, 31684, Note_on_c, 9, 37, 0
8, 31684, Note_on_c, 9, 42, 0
8, 32000, Note_on_c, 9, 37, 79
8, 32000, Note_on_c, 9, 42, 101
8, 32004, Note_on_c, 9, 37, 0
8, 32004, Note_on_c, 9, 42, 0
8, 32005, Note_on_c, 9, 39, 51
8, 32009, Note_on_c, 9, 39, 0
8, 32160, Note_on_c, 9, 40, 127
8, 32160, Note_on_c, 9, 39, 35
8, 32160, Note_on_c, 9, 42, 116
8, 32160, Note_on_c, 9, 37, 113
8, 32164, Note_on_c, 9, 40, 0
8, 32164, Note_on_c, 9, 39, 0
8, 32164, Note_on_c, 9, 42, 0
8, 32164, Note_on_c, 9, 37, 0
8, 32480, Note_on_c, 9, 42, 101
8, 32480, Note_on_c, 9, 37, 68
8, 32484, Note_on_c, 9, 42, 0
8, 32484, Note_on_c, 9, 37, 0
8, 32640, Note_on_c, 9, 35, 120
8, 32640, Note_on_c, 9, 42, 119
8, 32640, Note_on_c, 9, 37, 113
8, 32644, Note_on_c, 9, 35, 0
8, 32644, Note_on_c, 9, 42, 0
8, 32644, Note_on_c, 9, 37, 0
8, 32880, Note_on_c, 9, 39, 57
8, 32884, Note_on_c, 9, 39, 0
8, 32960, Note_on_c, 9, 37, 82
8, 32960, Note_on_c, 9, 42, 91
8, 32964, Note_on_c, 9, 37, 0
8, 32964, Note_on_c, 9, 42, 0
8, 33120, Note_on_c, 9, 37, 110
8, 33120, Note_on_c, 9, 42, 89
8, 33120, Note_on_c, 9, 40, 127
8, 33124, Note_on_c, 9, 37, 0
8, 33124, Note_on_c, 9, 42, 0
8, 33124, Note_on_c, 9, 40, 0
8, 33360, Note_on_c, 9, 39, 47
8, 33364, Note_on_c, 9, 39, 0
8, 33440, Note_on_c, 9, 37, 73
8, 33440, Note_on_c, 9, 35, 64
8, 33440, Note_on_c, 9, 42, 84
8, 33444, Note_on_c, 9, 37, 0
8, 33444, Note_on_c, 9, 35, 0
8, 33444, Note_on_c, 9, 42, 0
8, 33600, Note_on_c, 9, 37, 110
8, 33600, Note_on_c, 9, 35, 110
8, 33600, Note_on_c, 9, 42, 104
8, 33604, Note_on_c, 9, 37, 0
8, 33604, Note_on_c, 9, 35, 0
8, 33604, Note_on_c, 9, 42, 0
8, 33920, Note_on_c, 9, 42, 78
8, 33920, Note_on_c, 9, 37, 82
8, 33924, Note_on_c, 9, 42, 0
8, 33924, Note_on_c, 9, 37, 0
8, 33925, Note_on_c, 9, 39, 51
8, 33929, Note_on_c, 9, 39, 0
8, 34080, Note_on_c, 9, 42, 113
8, 34080, Note_on_c, 9, 37, 99
8, 34080, Note_on_c, 9, 40, 127
8, 34080, Note_on_c, 9, 39, 35
8, 34084, Note_on_c, 9, 42, 0
8, 34084, Note_on_c, 9, 37, 0
8, 34084, Note_on_c, 9, 40, 0
8, 34084, Note_on_c, 9, 39, 0
8, 34400, Note_on_c, 9, 42, 82
8, 34400, Note_on_c, 9, 37, 67
8, 34404, Note_on_c, 9, 42, 0
8, 34404, Note_on_c, 9, 37, 0
8, 34560, Note_on_c, 9, 37, 110
8, 34560, Note_on_c, 9, 35, 92
8, 34560, Note_on_c, 9, 42, 104
8, 34560, Note_on_c, 9, 40, 127
8, 34564, Note_on_c, 9, 37, 0
8, 34564, Note_on_c, 9, 35, 0
8, 34564, Note_on_c, 9, 42, 0
8, 34564, Note_on_c, 9, 40, 0
8, 36480, Note_on_c, 9, 42, 119
8, 36480, Note_on_c, 9, 35, 120
8, 36480, Note_on_c, 9, 37, 104
8, 36484, Note_on_c, 9, 42, 0
8, 36484, Note_on_c, 9, 35, 0
8, 36484, Note_on_c, 9, 37, 0
8, 36720, Note_on_c, 9, 39, 57
8, 36724, Note_on_c, 9, 39, 0
8, 36800, Note_on_c, 9, 37, 95
8, 36800, Note_on_c, 9, 42, 99
8, 36804, Note_on_c, 9, 37, 0
8, 36804, Note_on_c, 9, 42, 0
8, 36960, Note_on_c, 9, 37, 104
8, 36960, Note_on_c, 9, 40, 127
8, 36960, Note_on_c, 9, 42, 113
8, 36964, Note_on_c, 9, 37, 0
8, 36964, Note_on_c, 9, 40, 0
8, 36964, Note_on_c, 9, 42, 0
8, 37200, Note_on_c, 9, 39, 47
8, 37204, Note_on_c, 9, 39, 0
8, 37280, Note_on_c, 9, 42, 104
8, 37280, Note_on_c, 9, 35, 64
8, 37280, Note_on_c, 9, 37, 87
8, 37284, Note_on_c, 9, 42, 0
8, 37284, Note_on_c, 9, 35, 0
8, 37284, Note_on_c, 9, 37, 0
8, 37440, Note_on_c, 9, 37, 113
8, 37440, Note_on_c, 9, 35, 110
8, 37440, Note_on_c, 9, 42, 110
8, 37444, Note_on_c, 9, 37, 0
8, 37444, Note_on_c, 9, 35, 0
8, 37444, Note_on_c, 9, 42, 0
8, 37760, Note_on_c, 9, 42, 104
8, 37760, Note_on_c, 9, 37, 85
8, 37764, Note_on_c, 9, 42, 0
8, 37764, Note_on_c, 9, 37, 0
8, 37765, Note_on_c, 9, 39, 51
8, 37769, Note_on_c, 9, 39, 0
8, 37920, Note_on_c, 9, 37, 113
8, 37920, Note_on_c, 9, 42, 113
8, 37920, Note_on_c, 9, 40, 127
8, 37920, Note_on_c, 9, 39, 35
8, 37924, Note_on_c, 9, 37, 0
8, 37924, Note_on_c, 9, 42, 0
8, 37924, Note_on_c, 9, 40, 0
8, 37924, Note_on_c, 9, 39, 0
8, 38240, Note_on_c, 9, 37, 104
8, 38240, Note_on_c, 9, 42, 99
8, 38244, Note_on_c, 9, 37, 0
8, 38244, Note_on_c, 9, 42, 0
8, 38400, Note_on_c, 9, 37, 113
8, 38400, Note_on_c, 9, 42, 107
8, 38400, Note_on_c, 9, 35, 92
8, 38404, Note_on_c, 9, 37, 0
8, 38404, Note_on_c, 9, 42, 0
8, 38404, Note_on_c, 9, 35, 0
8, 38640, Note_on_c, 9, 39, 57
8, 38644, Note_on_c, 9, 39, 0
8, 38720, Note_on_c, 9, 42, 101
8, 38720, Note_on_c, 9, 37, 91
8, 38724, Note_on_c, 9, 42, 0
8, 38724, Note_on_c, 9, 37, 0
8, 38880, Note_on_c, 9, 40, 127
8, 38880, Note_on_c, 9, 37, 107
8, 38880, Note_on_c, 9, 42, 107
8, 38884, Note_on_c, 9, 40, 0
8, 38884, Note_on_c, 9, 37, 0
8, 38884, Note_on_c, 9, 42, 0
8, 39120, Note_on_c, 9, 39, 47
8, 39124, Note_on_c, 9, 39, 0
8, 39200, Note_on_c, 9, 37, 99
8, 39200, Note_on_c, 9, 35, 75
8, 39200, Note_on_c, 9, 42, 99
8, 39204, Note_on_c, 9, 37, 0
8, 39204, Note_on_c, 9, 35, 0
8, 39204, Note_on_c, 9, 42, 0
8, 39360, Note_on_c, 9, 35, 106
8, 39360, Note_on_c, 9, 37, 113
8, 39360, Note_on_c, 9, 42, 107
8, 39364, Note_on_c, 9, 35, 0
8, 39364, Note_on_c, 9, 37, 0
8, 39364, Note_on_c, 9, 42, 0
8, 39680, Note_on_c, 9, 42, 101
8, 39680, Note_on_c, 9, 37, 93
8, 39684, Note_on_c, 9, 42, 0
8, 39684, Note_on_c, 9, 37, 0
8, 39685, Note_on_c, 9, 39, 51
8, 39689, Note_on_c, 9, 39, 0
8, 39840, Note_on_c, 9, 39, 35
8, 39840, Note_on_c, 9, 42, 116
8, 39840, Note_on_c, 9, 37, 113
8, 39840, Note_on_c, 9, 40, 127
8, 39844, Note_on_c, 9, 39, 0
8, 39844, Note_on_c, 9, 42, 0
8, 39844, Note_on_c, 9, 37, 0
8, 39844, Note_on_c, 9, 40, 0
8, 40160, Note_on_c, 9, 42, 101
8, 40160, Note_on_c, 9, 37, 104
8, 40164, Note_on_c, 9, 42, 0
8, 40164, Note_on_c, 9, 37, 0
8, 40320, Note_on_c, 9, 42, 127
8, 40320, Note_on_c, 9, 35, 120
8, 40320, Note_on_c, 9, 37, 78
8, 40324, Note_on_c, 9, 42, 0
8, 40324, Note_on_c, 9, 35, 0
8, 40324, Note_on_c, 9, 37, 0
8, 40560, Note_on_c, 9, 39, 57
8, 40564, Note_on_c, 9, 39, 0
8, 40640, Note_on_c, 9, 42, 110
8, 40640, Note_on_c, 9, 37, 78
8, 40644, Note_on_c, 9, 42, 0
8, 40644, Note_on_c, 9, 37, 0
8, 40800, Note_on_c, 9, 40, 127
8, 40800, Note_on_c, 9, 42, 119
8, 40800, Note_on_c, 9, 37, 107
8, 40804, Note_on_c, 9, 40, 0
8, 40804, Note_on_c, 9, 42, 0
8, 40804, Note_on_c, 9, 37, 0
8, 41040, Note_on_c, 9, 39, 47
8, 41044, Note_on_c, 9, 39, 0
8, 41120, Note_on_c, 9, 37, 81
8, 41120, Note_on_c, 9, 42, 93
8, 41120, Note_on_c, 9, 35, 64
8, 41124, Note_on_c, 9, 37, 0
8, 41124, Note_on_c, 9, 42, 0
8, 41124, Note_on_c, 9, 35, 0
8, 41280, Note_on_c, 9, 42, 113
8, 41280, Note_on_c, 9, 37, 89
8, 41280, Note_on_c, 9, 35, 110
8, 41284, Note_on_c, 9, 42, 0
8, 41284, Note_on_c, 9, 37, 0
8, 41284, Note_on_c, 9, 35, 0
8, 41600, Note_on_c, 9, 37, 54
8, 41600, Note_on_c, 9, 42, 93
8, 41604, Note_on_c, 9, 37, 0
8, 41604, Note_on_c, 9, 42, 0
8, 41605, Note_on_c, 9, 39, 51
8, 41609, Note_on_c, 9, 39, 0
8, 41760, Note_on_c, 9, 40, 127
8, 41760, Note_on_c, 9, 39, 35
8, 41760, Note_on_c, 9, 42, 119
8, 41760, Note_on_c, 9, 37, 82
8, 41764, Note_on_c, 9, 40, 0
8, 41764, Note_on_c, 9, 39, 0
8, 41764, Note_on_c, 9, 42, 0
8, 41764, Note_on_c, 9, 37, 0
8, 42080, Note_on_c, 9, 37, 73
8, 42080, Note_on_c, 9, 42, 93
8, 42084, Note_on_c, 9, 37, 0
8, 42084, Note_on_c, 9, 42, 0
8, 42240, Note_on_c, 9, 37, 107
8, 42240, Note_on_c, 9, 42, 107
8, 42240, Note_on_c, 9, 35, 92
8, 42244, Note_on_c, 9, 37, 0
8, 42244, Note_on_c, 9, 42, 0
8, 42244, Note_on_c, 9, 35, 0
8, 42480, Note_on_c, 9, 39, 57
8, 42484, Note_on_c, 9, 39, 0
8, 42560, Note_on_c, 9, 37, 79
8, 42560, Note_on_c, 9, 42, 101
8, 42564, Note_on_c, 9, 37, 0
8, 42564, Note_on_c, 9, 42, 0
8, 42720, Note_on_c, 9, 40, 127
8, 42720, Note_on_c, 9, 37, 95
8, 42720, Note_on_c, 9, 42, 119
8, 42724, Note_on_c, 9, 40, 0
8, 42724, Note_on_c, 9, 37, 0
8, 42724, Note_on_c, 9, 42, 0
8, 42960, Note_on_c, 9, 39, 47
8, 42964, Note_on_c, 9, 39, 0
8, 43040, Note_on_c, 9, 35, 75
8, 43040, Note_on_c, 9, 42, 85
8, 43040, Note_on_c, 9, 37, 82
8, 43044, Note_on_c, 9, 35, 0
8, 43044, Note_on_c, 9, 42, 0
8, 43044, Note_on_c, 9, 37, 0
8, 43200, Note_on_c, 9, 35, 106
8, 43200, Note_on_c, 9, 42, 91
8, 43200, Note_on_c, 9, 37, 97
8, 43204, Note_on_c, 9, 35, 0
8, 43204, Note_on_c, 9, 42, 0
8, 43204, Note_on_c, 9, 37, 0
8, 43520, Note_on_c, 9, 37, 77
8, 43520, Note_on_c, 9, 42, 85
8, 43524, Note_on_c, 9, 37, 0
8, 43524, Note_on_c, 9, 42, 0
8, 43525, Note_on_c, 9, 39, 51
8, 43529, Note_on_c, 9, 39, 0
8, 43680, Note_on_c, 9, 42, 107
8, 43680, Note_on_c, 9, 39, 35
8, 43680, Note_on_c, 9, 40, 127
8, 43680, Note_on_c, 9, 37, 97
8, 43684, Note_on_c, 9, 42, 0
8, 43684, Note_on_c, 9, 39, 0
8, 43684, Note_on_c, 9, 40, 0
8, 43684, Note_on_c, 9, 37, 0
8, 44000, Note_on_c, 9, 37, 81
8, 44000, Note_on_c, 9, 42, 77
8, 44004, Note_on_c, 9, 37, 0
8, 44004, Note_on_c, 9, 42, 0
8, 44160, Note_on_c, 9, 37, 107
8, 44160, Note_on_c, 9, 35, 120
8, 44160, Note_on_c, 9, 42, 119
8, 44164, Note_on_c, 9, 37, 0
8, 44164, Note_on_c, 9, 35, 0
8, 44164, Note_on_c, 9, 42, 0
8, 44400, Note_on_c, 9, 39, 57
8, 44404, Note_on_c, 9, 39, 0
8, 44480, Note_on_c, 9, 42, 91
8, 44480, Note_on_c, 9, 37, 89
8, 44484, Note_on_c, 9, 42, 0
8, 44484, Note_on_c, 9, 37, 0
8, 44640, Note_on_c, 9, 37, 101
8, 44640, Note_on_c, 9, 40, 127
8, 44640, Note_on_c, 9, 42, 89
8, 44644, Note_on_c, 9, 37, 0
8, 44644, Note_on_c, 9, 40, 0
8, 44644, Note_on_c, 9, 42, 0
8, 44880, Note_on_c, 9, 39, 47
8, 44884, Note_on_c, 9, 39, 0
8, 44960, Note_on_c, 9, 37, 68
8, 44960, Note_on_c, 9, 42, 84
8, 44960, Note_on_c, 9, 35, 64
8, 44964, Note_on_c, 9, 37, 0
8, 44964, Note_on_c, 9, 42, 0
8, 44964, Note_on_c, 9, 35, 0
8, 45120, Note_on_c, 9, 37, 101
8, 45120, Note_on_c, 9, 42, 104
8, 45120, Note_on_c, 9, 35, 110
8, 45124, Note_on_c, 9, 37, 0
8, 45124, Note_on_c, 9, 42, 0
8, 45124, Note_on_c, 9, 35, 0
8, 45440, Note_on_c, 9, 37, 79
8, 45440, Note_on_c, 9, 42, 78
8, 45444, Note_on_c, 9, 37, 0
8, 45444, Note_on_c, 9, 42, 0
8, 45445, Note_on_c, 9, 39, 51
8, 45449, Note_on_c, 9, 39, 0
8, 45600, Note_on_c, 9, 39, 35
8, 45600, Note_on_c, 9, 40, 127
8, 45600, Note_on_c, 9, 37, 101
8, 45600, Note_on_c, 9, 42, 113
8, 45604, Note_on_c, 9, 39, 0
8, 45604, Note_on_c, 9, 40, 0
8, 45604, Note_on_c, 9, 37, 0
8, 45604, Note_on_c, 9, 42, 0
8, 45920, Note_on_c, 9, 37, 71
8, 45920, Note_on_c, 9, 42, 82
8, 45924, Note_on_c, 9, 37, 0
8, 45924, Note_on_c, 9, 42, 0
8, 46080, Note_on_c, 9, 35, 92
8, 46080, Note_on_c, 9, 37, 107
8, 46080, Note_on_c, 9, 42, 104
8, 46084, Note_on_c, 9, 35, 0
8, 46084, Note_on_c, 9, 37, 0
8, 46084, Note_on_c, 9, 42, 0
8, 46320, Note_on_c, 9, 39, 57
8, 46324, Note_on_c, 9, 39, 0
8, 46400, Note_on_c, 9, 42, 91
8, 46400, Note_on_c, 9, 37, 65
8, 46404, Note_on_c, 9, 42, 0
8, 46404, Note_on_c, 9, 37, 0
8, 46560, Note_on_c, 9, 42, 113
8, 46560, Note_on_c, 9, 37, 107
8, 46560, Note_on_c, 9, 40, 127
8, 46564, Note_on_c, 9, 42, 0
8, 46564, Note_on_c, 9, 37, 0
8, 46564, Note_on_c, 9, 40, 0
8, 46800, Note_on_c, 9, 39, 47
8, 46804, Note_on_c, 9, 39, 0
8, 46880, Note_on_c, 9, 35, 75
8, 46880, Note_on_c, 9, 37, 81
8, 46880, Note_on_c, 9, 42, 91
8, 46884, Note_on_c, 9, 35, 0
8, 46884, Note_on_c, 9, 37, 0
8, 46884, Note_on_c, 9, 42, 0
8, 47040, Note_on_c, 9, 35, 106
8, 47040, Note_on_c, 9, 37, 110
8, 47040, Note_on_c, 9, 42, 110
8, 47044, Note_on_c, 9, 35, 0
8, 47044, Note_on_c, 9, 37, 0
8, 47044, Note_on_c, 9, 42, 0
8, 47360, Note_on_c, 9, 37, 79
8, 47360, Note_on_c, 9, 42, 95
8, 47364, Note_on_c, 9, 37, 0
8, 47364, Note_on_c, 9, 42, 0
8, 47365, Note_on_c, 9, 39, 51
8, 47369, Note_on_c, 9, 39, 0
8, 47520, Note_on_c, 9, 42, 110
8, 47520, Note_on_c, 9, 40, 127
8, 47520, Note_on_c, 9, 37, 113
8, 47520, Note_on_c, 9, 39, 35
8, 47524, Note_on_c, 9, 42, 0
8, 47524, Note_on_c, 9, 40, 0
8, 47524, Note_on_c, 9, 37, 0
8, 47524, Note_on_c, 9, 39, 0
8, 47840, Note_on_c, 9, 37, 68
8, 47840, Note_on_c, 9, 42, 81
8, 47844, Note_on_c, 9, 37, 0
8, 47844, Note_on_c, 9, 42, 0
8, 48000, Note_on_c, 9, 42, 119
8, 48000, Note_on_c, 9, 37, 113
8, 48000, Note_on_c, 9, 35, 120
8, 48004, Note_on_c, 9, 42, 0
8, 48004, Note_on_c, 9, 37, 0
8, 48004, Note_on_c, 9, 35, 0
8, 48240, Note_on_c, 9, 39, 57
8, 48244, Note_on_c, 9, 39, 0
8, 48320, Note_on_c, 9, 42, 99
8, 48320, Note_on_c, 9, 37, 82
8, 48324, Note_on_c, 9, 42, 0
8, 48324, Note_on_c, 9, 37, 0
8, 48480, Note_on_c, 9, 42, 113
8, 48480, Note_on_c, 9, 37, 110
8, 48480, Note_on_c, 9, 40, 127
8, 48484, Note_on_c, 9, 42, 0
8, 48484, Note_on_c, 9, 37, 0
8, 48484, Note_on_c, 9, 40, 0
8, 48720, Note_on_c, 9, 39, 47
8, 48724, Note_on_c, 9, 39, 0
8, 48800, Note_on_c, 9, 37, 73
8, 48800, Note_on_c, 9, 35, 64
8, 48800, Note_on_c, 9, 42, 104
8, 48804, Note_on_c, 9, 37, 0
8, 48804, Note_on_c, 9, 35, 0
8, 48804, Note_on_c, 9, 42, 0
8, 48960, Note_on_c, 9, 42, 110
8, 48960, Note_on_c, 9, 35, 110
8, 48960, Note_on_c, 9, 37, 110
8, 48964, Note_on_c, 9, 42, 0
8, 48964, Note_on_c, 9, 35, 0
8, 48964, Note_on_c, 9, 37, 0
8, 49280, Note_on_c, 9, 42, 104
8, 49280, Note_on_c, 9, 37, 82
8, 49284, Note_on_c, 9, 42, 0
8, 49284, Note_on_c, 9, 37, 0
8, 49285, Note_on_c, 9, 39, 51
8, 49289, Note_on_c, 9, 39, 0
8, 49440, Note_on_c, 9, 39, 35
8, 49440, Note_on_c, 9, 37, 99
8, 49440, Note_on_c, 9, 40, 127
8, 49440, Note_on_c, 9, 42, 113
8, 49444, Note_on_c, 9, 39, 0
8, 49444, Note_on_c, 9, 37, 0
8, 49444, Note_on_c, 9, 40, 0
8, 49444, Note_on_c, 9, 42, 0
8, 49760, Note_on_c, 9, 42, 99
8, 49760, Note_on_c, 9, 37, 67
8, 49764, Note_on_c, 9, 42, 0
8, 49764, Note_on_c, 9, 37, 0
8, 49920, Note_on_c, 9, 42, 107
8, 49920, Note_on_c, 9, 37, 110
8, 49920, Note_on_c, 9, 35, 92
8, 49924, Note_on_c, 9, 42, 0
8, 49924, Note_on_c, 9, 37, 0
8, 49924, Note_on_c, 9, 35, 0
8, 50160, Note_on_c, 9, 39, 57
8, 50164, Note_on_c, 9, 39, 0
8, 50240, Note_on_c, 9, 37, 77
8, 50240, Note_on_c, 9, 42, 101
8, 50244, Note_on_c, 9, 37, 0
8, 50244, Note_on_c, 9, 42, 0
8, 50400, Note_on_c, 9, 37, 104
8, 50400, Note_on_c, 9, 42, 107
8, 50400, Note_on_c, 9, 40, 127
8, 50404, Note_on_c, 9, 37, 0
8, 50404, Note_on_c, 9, 42, 0
8, 50404, Note_on_c, 9, 40, 0
8, 50640, Note_on_c, 9, 39, 47
8, 50644, Note_on_c, 9, 39, 0
8, 50720, Note_on_c, 9, 35, 75
8, 50720, Note_on_c, 9, 42, 99
8, 50720, Note_on_c, 9, 37, 79
8, 50724, Note_on_c, 9, 35, 0
8, 50724, Note_on_c, 9, 42, 0
8, 50724, Note_on_c, 9, 37, 0
8, 50880, Note_on_c, 9, 35, 106
8, 50880, Note_on_c, 9, 42, 107
8, 50880, Note_on_c, 9, 37, 107
8, 50884, Note_on_c, 9, 35, 0
8, 50884, Note_on_c, 9, 42, 0
8, 50884, Note_on_c, 9, 37, 0
8, 51200, Note_on_c, 9, 37, 87
8, 51200, Note_on_c, 9, 42, 101
8, 51204, Note_on_c, 9, 37, 0
8, 51204, Note_on_c, 9, 42, 0
8, 51205, Note_on_c, 9, 39, 51
8, 51209, Note_on_c, 9, 39, 0
8, 51360, Note_on_c, 9, 39, 35
8, 51360, Note_on_c, 9, 37, 104
8, 51360, Note_on_c, 9, 40, 127
8, 51360, Note_on_c, 9, 42, 116
8, 51364, Note_on_c, 9, 39, 0
8, 51364, Note_on_c, 9, 37, 0
8, 51364, Note_on_c, 9, 40, 0
8, 51364, Note_on_c, 9, 42, 0
8, 51680, Note_on_c, 9, 42, 101
8, 51680, Note_on_c, 9, 37, 84
8, 51684, Note_on_c, 9, 42, 0
8, 51684, Note_on_c, 9, 37, 0
8, 51840, Note_on_c, 9, 35, 120
8, 51840, Note_on_c, 9, 42, 127
8, 51840, Note_on_c, 9, 37, 104
8, 51844, Note_on_c, 9, 35, 0
8, 51844, Note_on_c, 9, 42, 0
8, 51844, Note_on_c, 9, 37, 0
8, 52080, Note_on_c, 9, 39, 57
8, 52084, Note_on_c, 9, 39, 0
8, 52160, Note_on_c, 9, 42, 110
8, 52160, Note_on_c, 9, 37, 95
8, 52164, Note_on_c, 9, 42, 0
8, 52164, Note_on_c, 9, 37, 0
8, 52320, Note_on_c, 9, 42, 119
8, 52320, Note_on_c, 9, 40, 127
8, 52320, Note_on_c, 9, 37, 104
8, 52324, Note_on_c, 9, 42, 0
8, 52324, Note_on_c, 9, 40, 0
8, 52324, Note_on_c, 9, 37, 0
8, 52560, Note_on_c, 9, 39, 47
8, 52564, Note_on_c, 9, 39, 0
8, 52640, Note_on_c, 9, 35, 64
8, 52640, Note_on_c, 9, 42, 93
8, 52640, Note_on_c, 9, 37, 87
8, 52644, Note_on_c, 9, 35, 0
8, 52644, Note_on_c, 9, 42, 0
8, 52644, Note_on_c, 9, 37, 0
8, 52800, Note_on_c, 9, 37, 113
8, 52800, Note_on_c, 9, 42, 113
8, 52800, Note_on_c, 9, 35, 110
8, 52804, Note_on_c, 9, 37, 0
8, 52804, Note_on_c, 9, 42, 0
8, 52804, Note_on_c, 9, 35, 0
8, 53120, Note_on_c, 9, 37, 85
8, 53120, Note_on_c, 9, 42, 93
8, 53124, Note_on_c, 9, 37, 0
8, 53124, Note_on_c, 9, 42, 0
8, 53125, Note_on_c, 9, 39, 51
8, 53129, Note_on_c, 9, 39, 0
8, 53280, Note_on_c, 9, 42, 119
8, 53280, Note_on_c, 9, 39, 35
8, 53280, Note_on_c, 9, 40, 127
8, 53280, Note_on_c, 9, 37, 113
8, 53284, Note_on_c, 9, 42, 0
8, 53284, Note_on_c, 9, 39, 0
8, 53284, Note_on_c, 9, 40, 0
8, 53284, Note_on_c, 9, 37, 0
8, 53600, Note_on_c, 9, 42, 93
8, 53600, Note_on_c, 9, 37, 104
8, 53604, Note_on_c, 9, 42, 0
8, 53604, Note_on_c, 9, 37, 0
8, 53760, Note_on_c, 9, 42, 107
8, 53760, Note_on_c, 9, 35, 92
8, 53760, Note_on_c, 9, 37, 113
8, 53764, Note_on_c, 9, 42, 0
8, 53764, Note_on_c, 9, 35, 0
8, 53764, Note_on_c, 9, 37, 0
8, 54000, Note_on_c, 9, 39, 57
8, 54004, Note_on_c, 9, 39, 0
8, 54080, Note_on_c, 9, 37, 91
8, 54080, Note_on_c, 9, 42, 101
8, 54084, Note_on_c, 9, 37, 0
8, 54084, Note_on_c, 9, 42, 0
8, 54240, Note_on_c, 9, 37, 107
8, 54240, Note_on_c, 9, 40, 127
8, 54240, Note_on_c, 9, 42, 119
8, 54244, Note_on_c, 9, 37, 0
8, 54244, Note_on_c, 9, 40, 0
8, 54244, Note_on_c, 9, 42, 0
8, 54480, Note_on_c, 9, 39, 47
8, 54484, Note_on_c, 9, 39, 0
8, 54560, Note_on_c, 9, 37, 99
8, 54560, Note_on_c, 9, 42, 85
8, 54560, Note_on_c, 9, 35, 75
8, 54564, Note_on_c, 9, 37, 0
8, 54564, Note_on_c, 9, 42, 0
8, 54564, Note_on_c, 9, 35, 0
8, 54720, Note_on_c, 9, 37, 113
8, 54720, Note_on_c, 9, 42, 91
8, 54720, Note_on_c, 9, 35, 106
8, 54724, Note_on_c, 9, 37, 0
8, 54724, Note_on_c, 9, 42, 0
8, 54724, Note_on_c, 9, 35, 0
8, 55040, Note_on_c, 9, 37, 93
8, 55040, Note_on_c, 9, 42, 85
8, 55044, Note_on_c, 9, 37, 0
8, 55044, Note_on_c, 9, 42, 0
8, 55045, Note_on_c, 9, 39, 51
8, 55049, Note_on_c, 9, 39, 0
8, 55200, Note_on_c, 9, 39, 35
8, 55200, Note_on_c, 9, 40, 127
8, 55200, Note_on_c, 9, 37, 113
8, 55200, Note_on_c, 9, 42, 107
8, 55204, Note_on_c, 9, 39, 0
8, 55204, Note_on_c, 9, 40, 0
8, 55204, Note_on_c, 9, 37, 0
8, 55204, Note_on_c, 9, 42, 0
8, 55520, Note_on_c, 9, 37, 104
8, 55520, Note_on_c, 9, 42, 77
8, 55524, Note_on_c, 9, 37, 0
8, 55524, Note_on_c, 9, 42, 0
8, 55680, Note_on_c, 9, 42, 119
8, 55680, Note_on_c, 9, 35, 120
8, 55680, Note_on_c, 9, 37, 78
8, 55684, Note_on_c, 9, 42, 0
8, 55684, Note_on_c, 9, 35, 0
8, 55684, Note_on_c, 9, 37, 0
8, 55920, Note_on_c, 9, 39, 57
8, 55924, Note_on_c, 9, 39, 0
8, 56000, Note_on_c, 9, 37, 78
8, 56000, Note_on_c, 9, 42, 91
8, 56004, Note_on_c, 9, 37, 0
8, 56004, Note_on_c, 9, 42, 0
8, 56160, Note_on_c, 9, 40, 127
8, 56160, Note_on_c, 9, 42, 89
8, 56160, Note_on_c, 9, 37, 107
8, 56164, Note_on_c, 9, 40, 0
8, 56164, Note_on_c, 9, 42, 0
8, 56164, Note_on_c, 9, 37, 0
8, 56400, Note_on_c, 9, 39, 47
8, 56404, Note_on_c, 9, 39, 0
8, 56480, Note_on_c, 9, 37, 81
8, 56480, Note_on_c, 9, 42, 84
8, 56480, Note_on_c, 9, 35, 64
8, 56484, Note_on_c, 9, 37, 0
8, 56484, Note_on_c, 9, 42, 0
8, 56484, Note_on_c, 9, 35, 0
8, 56640, Note_on_c, 9, 35, 110
8, 56640, Note_on_c, 9, 42, 104
8, 56640, Note_on_c, 9, 37, 89
8, 56644, Note_on_c, 9, 35, 0
8, 56644, Note_on_c, 9, 42, 0
8, 56644, Note_on_c, 9, 37, 0
8, 56960, Note_on_c, 9, 42, 78
8, 56960, Note_on_c, 9, 37, 54
8, 56964, Note_on_c, 9, 42, 0
8, 56964, Note_on_c, 9, 37, 0
8, 56965, Note_on_c, 9, 39, 51
8, 56969, Note_on_c, 9, 39, 0
8, 57120, Note_on_c, 9, 37, 82
8, 57120, Note_on_c, 9, 39, 35
8, 57120, Note_on_c, 9, 42, 113
8, 57120, Note_on_c, 9, 40, 127
8, 57124, Note_on_c, 9, 37, 0
8, 57124, Note_on_c, 9, 39, 0
8, 57124, Note_on_c, 9, 42, 0
8, 57124, Note_on_c, 9, 40, 0
8, 57440, Note_on_c, 9, 42, 82
8, 57440, Note_on_c, 9, 37, 73
8, 57444, Note_on_c, 9, 42, 0
8, 57444, Note_on_c, 9, 37, 0
8, 57600, Note_on_c, 9, 42, 104
8, 57600, Note_on_c, 9, 35, 92
8, 57600, Note_on_c, 9, 37, 107
8, 57604, Note_on_c, 9, 42, 0
8, 57604, Note_on_c, 9, 35, 0
8, 57604, Note_on_c, 9, 37, 0
8, 57840, Note_on_c, 9, 39, 57
8, 57844, Note_on_c, 9, 39, 0
8, 57920, Note_on_c, 9, 37, 79
8, 57920, Note_on_c, 9, 42, 91
8, 57924, Note_on_c, 9, 37, 0
8, 57924, Note_on_c, 9, 42, 0
8, 58080, Note_on_c, 9, 42, 113
8, 58080, Note_on_c, 9, 37, 95
8, 58080, Note_on_c, 9, 40, 127
8, 58084, Note_on_c, 9, 42, 0
8, 58084, Note_on_c, 9, 37, 0
8, 58084, Note_on_c, 9, 40, 0
8, 58320, Note_on_c, 9, 39, 47
8, 58324, Note_on_c, 9, 39, 0
8, 58400, Note_on_c, 9, 37, 82
8, 58400, Note_on_c, 9, 42, 91
8, 58400, Note_on_c, 9, 35, 75
8, 58404, Note_on_c, 9, 37, 0
8, 58404, Note_on_c, 9, 42, 0
8, 58404, Note_on_c, 9, 35, 0
8, 58560, Note_on_c, 9, 37, 97
8, 58560, Note_on_c, 9, 42, 110
8, 58560, Note_on_c, 9, 35, 106
8, 58564, Note_on_c, 9, 37, 0
8, 58564, Note_on_c, 9, 42, 0
8, 58564, Note_on_c, 9, 35, 0
8, 58880, Note_on_c, 9, 37, 77
8, 58880, Note_on_c, 9, 42, 95
8, 58884, Note_on_c, 9, 37, 0
8, 58884, Note_on_c, 9, 42, 0
8, 58885, Note_on_c, 9, 39, 51
8, 58889, Note_on_c, 9, 39, 0
8, 59040, Note_on_c, 9, 42, 110
8, 59040, Note_on_c, 9, 37, 97
8, 59040, Note_on_c, 9, 39, 35
8, 59040, Note_on_c, 9, 40, 127
8, 59044, Note_on_c, 9, 42, 0
8, 59044, Note_on_c, 9, 37, 0
8, 59044, Note_on_c, 9, 39, 0
8, 59044, Note_on_c, 9, 40, 0
8, 59360, Note_on_c, 9, 42, 81
8, 59360, Note_on_c, 9, 37, 81
8, 59364, Note_on_c, 9, 42, 0
8, 59364, Note_on_c, 9, 37, 0
8, 59520, Note_on_c, 9, 37, 107
8, 59520, Note_on_c, 9, 42, 119
8, 59520, Note_on_c, 9, 35, 120
8, 59524, Note_on_c, 9, 37, 0
8, 59524, Note_on_c, 9, 42, 0
8, 59524, Note_on_c, 9, 35, 0
8, 59760, Note_on_c, 9, 39, 57
8, 59764, Note_on_c, 9, 39, 0
8, 59840, Note_on_c, 9, 37, 89
8, 59840, Note_on_c, 9, 42, 99
8, 59844, Note_on_c, 9, 37, 0
8, 59844, Note_on_c, 9, 42, 0
8, 60000, Note_on_c, 9, 40, 127
8, 60000, Note_on_c, 9, 42, 113
8, 60000, Note_on_c, 9, 37, 101
8, 60004, Note_on_c, 9, 40, 0
8, 60004, Note_on_c, 9, 42, 0
8, 60004, Note_on_c, 9, 37, 0
8, 60240, Note_on_c, 9, 39, 47
8, 60244, Note_on_c, 9, 39, 0
8, 60320, Note_on_c, 9, 35, 64
8, 60320, Note_on_c, 9, 42, 104
8, 60320, Note_on_c, 9, 37, 68
8, 60324, Note_on_c, 9, 35, 0
8, 60324, Note_on_c, 9, 42, 0
8, 60324, Note_on_c, 9, 37, 0
8, 60480, Note_on_c, 9, 42, 110
8, 60480, Note_on_c, 9, 37, 101
8, 60480, Note_on_c, 9, 35, 110
8, 60484, Note_on_c, 9, 42, 0
8, 60484, Note_on_c, 9, 37, 0
8, 60484, Note_on_c, 9, 35, 0
8, 60800, Note_on_c, 9, 42, 104
8, 60800, Note_on_c, 9, 37, 79
8, 60804, Note_on_c, 9, 42, 0
8, 60804, Note_on_c, 9, 37, 0
8, 60805, Note_on_c, 9, 39, 51
8, 60809, Note_on_c, 9, 39, 0
8, 60960, Note_on_c, 9, 42, 113
8, 60960, Note_on_c, 9, 37, 101
8, 60960, Note_on_c, 9, 40, 127
8, 60960, Note_on_c, 9, 39, 35
8, 60964, Note_on_c, 9, 42, 0
8, 60964, Note_on_c, 9, 37, 0
8, 60964, Note_on_c, 9, 40, 0
8, 60964, Note_on_c, 9, 39, 0
8, 61280, Note_on_c, 9, 37, 71
8, 61280, Note_on_c, 9, 42, 99
8, 61284, Note_on_c, 9, 37, 0
8, 61284, Note_on_c, 9, 42, 0
8, 61440, Note_on_c, 9, 37, 107
8, 61440, Note_on_c, 9, 35, 92
8, 61440, Note_on_c, 9, 42, 107
8, 61440, Note_on_c, 9, 40, 127
8, 61444, Note_on_c, 9, 37, 0
8, 61444, Note_on_c, 9, 35, 0
8, 61444, Note_on_c, 9, 42, 0
8, 61444, Note_on_c, 9, 40, 0
8, 63360, Note_on_c, 9, 37, 113
8, 63360, Note_on_c, 9, 42, 127
8, 63360, Note_on_c, 9, 35, 120
8, 63364, Note_on_c, 9, 37, 0
8, 63364, Note_on_c, 9, 42, 0
8, 63364, Note_on_c, 9, 35, 0
8, 63600, Note_on_c, 9, 39, 57
8, 63604, Note_on_c, 9, 39, 0
8, 63680, Note_on_c, 9, 37, 82
8, 63680, Note_on_c, 9, 42, 110
8, 63684, Note_on_c, 9, 37, 0
8, 63684, Note_on_c, 9, 42, 0
8, 63840, Note_on_c, 9, 37, 110
8, 63840, Note_on_c, 9, 42, 119
8, 63840, Note_on_c, 9, 40, 127
8, 63844, Note_on_c, 9, 37, 0
8, 63844, Note_on_c, 9, 42, 0
8, 63844, Note_on_c, 9, 40, 0
8, 64080, Note_on_c, 9, 39, 47
8, 64084, Note_on_c, 9, 39, 0
8, 64160, Note_on_c, 9, 42, 93
8, 64160, Note_on_c, 9, 37, 73
8, 64160, Note_on_c, 9, 35, 64
8, 64164, Note_on_c, 9, 42, 0
8, 64164, Note_on_c, 9, 37, 0
8, 64164, Note_on_c, 9, 35, 0
8, 64320, Note_on_c, 9, 42, 113
8, 64320, Note_on_c, 9, 35, 110
8, 64320, Note_on_c, 9, 37, 110
8, 64324, Note_on_c, 9, 42, 0
8, 64324, Note_on_c, 9, 35, 0
8, 64324, Note_on_c, 9, 37, 0
8, 64640, Note_on_c, 9, 42, 93
8, 64640, Note_on_c, 9, 37, 82
8, 64644, Note_on_c, 9, 42, 0
8, 64644, Note_on_c, 9, 37, 0
8, 64645, Note_on_c, 9, 39, 51
8, 64649, Note_on_c, 9, 39, 0
8, 64800, Note_on_c, 9, 37, 99
8, 64800, Note_on_c, 9, 39, 35
8, 64800, Note_on_c, 9, 42, 119
8, 64800, Note_on_c, 9, 40, 127
8, 64804, Note_on_c, 9, 37, 0
8, 64804, Note_on_c, 9, 39, 0
8, 64804, Note_on_c, 9, 42, 0
8, 64804, Note_on_c, 9, 40, 0
8, 65120, Note_on_c, 9, 37, 67
8, 65120, Note_on_c, 9, 42, 93
8, 65124, Note_on_c, 9, 37, 0
8, 65124, Note_on_c, 9, 42, 0
8, 65280, Note_on_c, 9, 35, 92
8, 65280, Note_on_c, 9, 42, 107
8, 65280, Note_on_c, 9, 37, 110
8, 65284, Note_on_c, 9, 35, 0
8, 65284, Note_on_c, 9, 42, 0
8, 65284, Note_on_c, 9, 37, 0
8, 65520, Note_on_c, 9, 39, 57
8, 65524, Note_on_c, 9, 39, 0
8, 65600, Note_on_c, 9, 37, 77
8, 65600, Note_on_c, 9, 42, 101
8, 65604, Note_on_c, 9, 37, 0
8, 65604, Note_on_c, 9, 42, 0
8, 65760, Note_on_c, 9, 42, 119
8, 65760, Note_on_c, 9, 40, 127
8, 65760, Note_on_c, 9, 37, 104
8, 65764, Note_on_c, 9, 42, 0
8, 65764, Note_on_c, 9, 40, 0
8, 65764, Note_on_c, 9, 37, 0
8, 66000, Note_on_c, 9, 39, 47
8, 66004, Note_on_c, 9, 39, 0
8, 66080, Note_on_c, 9, 37, 79
8, 66080, Note_on_c, 9, 42, 85
8, 66080, Note_on_c, 9, 35, 75
8, 66084, Note_on_c, 9, 37, 0
8, 66084, Note_on_c, 9, 42, 0
8, 66084, Note_on_c, 9, 35, 0
8, 66240, Note_on_c, 9, 37, 107
8, 66240, Note_on_c, 9, 42, 91
8, 66240, Note_on_c, 9, 35, 106
8, 66244, Note_on_c, 9, 37, 0
8, 66244, Note_on_c, 9, 42, 0
8, 66244, Note_on_c, 9, 35, 0
8, 66560, Note_on_c, 9, 37, 87
8, 66560, Note_on_c, 9, 42, 85
8, 66564, Note_on_c, 9, 37, 0
8, 66564, Note_on_c, 9, 42, 0
8, 66565, Note_on_c, 9, 39, 51
8, 66569, Note_on_c, 9, 39, 0
8, 66720, Note_on_c, 9, 39, 35
8, 66720, Note_on_c, 9, 42, 107
8, 66720, Note_on_c, 9, 40, 127
8, 66720, Note_on_c, 9, 37, 104
8, 66724, Note_on_c, 9, 39, 0
8, 66724, Note_on_c, 9, 42, 0
8, 66724, Note_on_c, 9, 40, 0
8, 66724, Note_on_c, 9, 37, 0
8, 67040, Note_on_c, 9, 42, 77
8, 67040, Note_on_c, 9, 37, 84
8, 67044, Note_on_c, 9, 42, 0
8, 67044, Note_on_c, 9, 37, 0
8, 67200, Note_on_c, 9, 37, 104
8, 67200, Note_on_c, 9, 35, 120
8, 67200, Note_on_c, 9, 42, 119
8, 67204, Note_on_c, 9, 37, 0
8, 67204, Note_on_c, 9, 35, 0
8, 67204, Note_on_c, 9, 42, 0
8, 67440, Note_on_c, 9, 39, 57
8, 67444, Note_on_c, 9, 39, 0
8, 67520, Note_on_c, 9, 42, 91
8, 67520, Note_on_c, 9, 37, 95
8, 67524, Note_on_c, 9, 42, 0
8, 67524, Note_on_c, 9, 37, 0
8, 67680, Note_on_c, 9, 40, 127
8, 67680, Note_on_c, 9, 42, 89
8, 67680, Note_on_c, 9, 37, 104
8, 67684, Note_on_c, 9, 40, 0
8, 67684, Note_on_c, 9, 42, 0
8, 67684, Note_on_c, 9, 37, 0
8, 67920, Note_on_c, 9, 39, 47
8, 67924, Note_on_c, 9, 39, 0
8, 68000, Note_on_c, 9, 37, 87
8, 68000, Note_on_c, 9, 42, 84
8, 68000, Note_on_c, 9, 35, 64
8, 68004, Note_on_c, 9, 37, 0
8, 68004, Note_on_c, 9, 42, 0
8, 68004, Note_on_c, 9, 35, 0
8, 68160, Note_on_c, 9, 42, 104
8, 68160, Note_on_c, 9, 37, 113
8, 68160, Note_on_c, 9, 35, 110
8, 68164, Note_on_c, 9, 42, 0
8, 68164, Note_on_c, 9, 37, 0
8, 68164, Note_on_c, 9, 35, 0
8, 68480, Note_on_c, 9, 42, 78
8, 68480, Note_on_c, 9, 37, 85
8, 68484, Note_on_c, 9, 42, 0
8, 68484, Note_on_c, 9, 37, 0
8, 68485, Note_on_c, 9, 39, 51
8, 68489, Note_on_c, 9, 39, 0
8, 68640, Note_on_c, 9, 42, 113
8, 68640, Note_on_c, 9, 40, 127
8, 68640, Note_on_c, 9, 37, 113
8, 68640, Note_on_c, 9, 39, 35
8, 68644, Note_on_c, 9, 42, 0
8, 68644, Note_on_c, 9, 40, 0
8, 68644, Note_on_c, 9, 37, 0
8, 68644, Note_on_c, 9, 39, 0
8, 68960, Note_on_c, 9, 42, 82
8, 68960, Note_on_c, 9, 37, 104
8, 68964, Note_on_c, 9, 42, 0
8, 68964, Note_on_c, 9, 37, 0
8, 69120, Note_on_c, 9, 35, 92
8, 69120, Note_on_c, 9, 42, 104
8, 69120, Note_on_c, 9, 37, 113
8, 69124, Note_on_c, 9, 35, 0
8, 69124, Note_on_c, 9, 42, 0
8, 69124, Note_on_c, 9, 37, 0
8, 69360, Note_on_c, 9, 39, 57
8, 69364, Note_on_c, 9, 39, 0
8, 69440, Note_on_c, 9, 42, 91
8, 69440, Note_on_c, 9, 37, 91
8, 69444, Note_on_c, 9, 42, 0
8, 69444, Note_on_c, 9, 37, 0
8, 69600, Note_on_c, 9, 42, 113
8, 69600, Note_on_c, 9, 40, 127
8, 69600, Note_on_c, 9, 37, 107
8, 69604, Note_on_c, 9, 42, 0
8, 69604, Note_on_c, 9, 40, 0
8, 69604, Note_on_c, 9, 37, 0
8, 69840, Note_on_c, 9, 39, 47
8, 69844, Note_on_c, 9, 39, 0
8, 69920, Note_on_c, 9, 35, 75
8, 69920, Note_on_c, 9, 37, 99
8, 69920, Note_on_c, 9, 42, 91
8, 69924, Note_on_c, 9, 35, 0
8, 69924, Note_on_c, 9, 37, 0
8, 69924, Note_on_c, 9, 42, 0
8, 70080, Note_on_c, 9, 42, 110
8, 70080, Note_on_c, 9, 37, 113
8, 70080, Note_on_c, 9, 35, 106
8, 70084, Note_on_c, 9, 42, 0
8, 70084, Note_on_c, 9, 37, 0
8, 70084, Note_on_c, 9, 35, 0
8, 70400, Note_on_c, 9, 42, 95
8, 70400, Note_on_c, 9, 37, 93
8, 70404, Note_on_c, 9, 42, 0
8, 70404, Note_on_c, 9, 37, 0
8, 70405, Note_on_c, 9, 39, 51
8, 70409, Note_on_c, 9, 39, 0
8, 70560, Note_on_c, 9, 37, 113
8, 70560, Note_on_c, 9, 39, 35
8, 70560, Note_on_c, 9, 42, 110
8, 70560, Note_on_c, 9, 40, 127
8, 70564, Note_on_c, 9, 37, 0
8, 70564, Note_on_c, 9, 39, 0
8, 70564, Note_on_c, 9, 42, 0
8, 70564, Note_on_c, 9, 40, 0
8, 70880, Note_on_c, 9, 37, 104
8, 70880, Note_on_c, 9, 42, 81
8, 70884, Note_on_c, 9, 37, 0
8, 70884, Note_on_c, 9, 42, 0
8, 71040, Note_on_c, 9, 35, 92
8, 71040, Note_on_c, 9, 42, 119
8, 71040, Note_on_c, 9, 37, 107
8, 71044, Note_on_c, 9, 35, 0
8, 71044, Note_on_c, 9, 42, 0
8, 71044, Note_on_c, 9, 37, 0
8, 71280, Note_on_c, 9, 39, 57
8, 71284, Note_on_c, 9, 39, 0
8, 71360, Note_on_c, 9, 42, 99
8, 71360, Note_on_c, 9, 37, 65
8, 71364, Note_on_c, 9, 42, 0
8, 71364, Note_on_c, 9, 37, 0
8, 71520, Note_on_c, 9, 37, 107
8, 71520, Note_on_c, 9, 42, 113
8, 71520, Note_on_c, 9, 40, 127
8, 71524, Note_on_c, 9, 37, 0
8, 71524, Note_on_c, 9, 42, 0
8, 71524, Note_on_c, 9, 40, 0
8, 71760, Note_on_c, 9, 39, 47
8, 71764, Note_on_c, 9, 39, 0
8, 71840, Note_on_c, 9, 37, 81
8, 71840, Note_on_c, 9, 42, 104
8, 71840, Note_on_c, 9, 35, 75
8, 71844, Note_on_c, 9, 37, 0
8, 71844, Note_on_c, 9, 42, 0
8, 71844, Note_on_c, 9, 35, 0
8, 72000, Note_on_c, 9, 37, 110
8, 72000, Note_on_c, 9, 35, 106
8, 72000, Note_on_c, 9, 42, 110
8, 72004, Note_on_c, 9, 37, 0
8, 72004, Note_on_c, 9, 35, 0
8, 72004, Note_on_c, 9, 42, 0
8, 72320, Note_on_c, 9, 42, 104
8, 72320, Note_on_c, 9, 37, 79
8, 72324, Note_on_c, 9, 42, 0
8, 72324, Note_on_c, 9, 37, 0
8, 72325, Note_on_c, 9, 39, 51
8, 72329, Note_on_c, 9, 39, 0
8, 72480, Note_on_c, 9, 37, 113
8, 72480, Note_on_c, 9, 39, 35
8, 72480, Note_on_c, 9, 42, 113
8, 72480, Note_on_c, 9, 40, 127
8, 72484, Note_on_c, 9, 37, 0
8, 72484, Note_on_c, 9, 39, 0
8, 72484, Note_on_c, 9, 42, 0
8, 72484, Note_on_c, 9, 40, 0
8, 72800, Note_on_c, 9, 42, 99
8, 72800, Note_on_c, 9, 37, 68
8, 72804, Note_on_c, 9, 42, 0
8, 72804, Note_on_c, 9, 37, 0
8, 72960, Note_on_c, 9, 42, 107
8, 72960, Note_on_c, 9, 37, 113
8, 72960, Note_on_c, 9, 35, 120
8, 72964, Note_on_c, 9, 42, 0
8, 72964, Note_on_c, 9, 37, 0
8, 72964, Note_on_c, 9, 35, 0
8, 73200, Note_on_c, 9, 39, 57
8, 73204, Note_on_c, 9, 39, 0
8, 73280, Note_on_c, 9, 42, 101
8, 73280, Note_on_c, 9, 37, 82
8, 73284, Note_on_c, 9, 42, 0
8, 73284, Note_on_c, 9, 37, 0
8, 73440, Note_on_c, 9, 42, 107
8, 73440, Note_on_c, 9, 40, 127
8, 73440, Note_on_c, 9, 37, 110
8, 73444, Note_on_c, 9, 42, 0
8, 73444, Note_on_c, 9, 40, 0
8, 73444, Note_on_c, 9, 37, 0
8, 73680, Note_on_c, 9, 39, 47
8, 73684, Note_on_c, 9, 39, 0
8, 73760, Note_on_c, 9, 37, 73
8, 73760, Note_on_c, 9, 42, 99
8, 73760, Note_on_c, 9, 35, 64
8, 73764, Note_on_c, 9, 37, 0
8, 73764, Note_on_c, 9, 42, 0
8, 73764, Note_on_c, 9, 35, 0
8, 73920, Note_on_c, 9, 42, 107
8, 73920, Note_on_c, 9, 37, 110
8, 73920, Note_on_c, 9, 35, 110
8, 73924, Note_on_c, 9, 42, 0
8, 73924, Note_on_c, 9, 37, 0
8, 73924, Note_on_c, 9, 35, 0
8, 74240, Note_on_c, 9, 37, 82
8, 74240, Note_on_c, 9, 42, 101
8, 74244, Note_on_c, 9, 37, 0
8, 74244, Note_on_c, 9, 42, 0
8, 74245, Note_on_c, 9, 39, 51
8, 74249, Note_on_c, 9, 39, 0
8, 74400, Note_on_c, 9, 39, 35
8, 74400, Note_on_c, 9, 37, 99
8, 74400, Note_on_c, 9, 42, 116
8, 74400, Note_on_c, 9, 40, 127
8, 74404, Note_on_c, 9, 39, 0
8, 74404, Note_on_c, 9, 37, 0
8, 74404, Note_on_c, 9, 42, 0
8, 74404, Note_on_c, 9, 40, 0
8, 74720, Note_on_c, 9, 37, 67
8, 74720, Note_on_c, 9, 42, 101
8, 74724, Note_on_c, 9, 37, 0
8, 74724, Note_on_c, 9, 42, 0
8, 74880, Note_on_c, 9, 42, 119
8, 74880, Note_on_c, 9, 35, 92
8, 74880, Note_on_c, 9, 37, 110
8, 74884, Note_on_c, 9, 42, 0
8, 74884, Note_on_c, 9, 35, 0
8, 74884, Note_on_c, 9, 37, 0
8, 75120, Note_on_c, 9, 39, 57
8, 75124, Note_on_c, 9, 39, 0
8, 75200, Note_on_c, 9, 37, 77
8, 75200, Note_on_c, 9, 42, 91
8, 75204, Note_on_c, 9, 37, 0
8, 75204, Note_on_c, 9, 42, 0
8, 75360, Note_on_c, 9, 37, 104
8, 75360, Note_on_c, 9, 42, 89
8, 75360, Note_on_c, 9, 40, 127
8, 75364, Note_on_c, 9, 37, 0
8, 75364, Note_on_c, 9, 42, 0
8, 75364, Note_on_c, 9, 40, 0
8, 75600, Note_on_c, 9, 39, 47
8, 75604, Note_on_c, 9, 39, 0
8, 75680, Note_on_c, 9, 35, 75
8, 75680, Note_on_c, 9, 37, 79
8, 75680, Note_on_c, 9, 42, 84
8, 75684, Note_on_c, 9, 35, 0
8, 75684, Note_on_c, 9, 37, 0
8, 75684, Note_on_c, 9, 42, 0
8, 75840, Note_on_c, 9, 37, 107
8, 75840, Note_on_c, 9, 35, 106
8, 75840, Note_on_c, 9, 42, 104
8, 75844, Note_on_c, 9, 37, 0
8, 75844, Note_on_c, 9, 35, 0
8, 75844, Note_on_c, 9, 42, 0
8, 76160, Note_on_c, 9, 37, 87
8, 76160, Note_on_c, 9, 42, 78
8, 76164, Note_on_c, 9, 37, 0
8, 76164, Note_on_c, 9, 42, 0
8, 76165, Note_on_c, 9, 39, 51
8, 76169, Note_on_c, 9, 39, 0
8, 76320, Note_on_c, 9, 40, 127
8, 76320, Note_on_c, 9, 39, 35
8, 76320, Note_on_c, 9, 42, 113
8, 76320, Note_on_c, 9, 37, 104
8, 76324, Note_on_c, 9, 40, 0
8, 76324, Note_on_c, 9, 39, 0
8, 76324, Note_on_c, 9, 42, 0
8, 76324, Note_on_c, 9, 37, 0
8, 76640, Note_on_c, 9, 37, 84
8, 76640, Note_on_c, 9, 42, 82
8, 76644, Note_on_c, 9, 37, 0
8, 76644, Note_on_c, 9, 42, 0
8, 76800, Note_on_c, 9, 37, 104
8, 76800, Note_on_c, 9, 42, 104
8, 76800, Note_on_c, 9, 35, 120
8, 76804, Note_on_c, 9, 37, 0
8, 76804, Note_on_c, 9, 42, 0
8, 76804, Note_on_c, 9, 35, 0
8, 77040, Note_on_c, 9, 39, 57
8, 77044, Note_on_c, 9, 39, 0
8, 77120, Note_on_c, 9, 37, 95
8, 77120, Note_on_c, 9, 42, 91
8, 77124, Note_on_c, 9, 37, 0
8, 77124, Note_on_c, 9, 42, 0
8, 77280, Note_on_c, 9, 40, 127
8, 77280, Note_on_c, 9, 37, 104
8, 77280, Note_on_c, 9, 42, 113
8, 77284, Note_on_c, 9, 40, 0
8, 77284, Note_on_c, 9, 37, 0
8, 77284, Note_on_c, 9, 42, 0
8, 77520, Note_on_c, 9, 39, 47
8, 77524, Note_on_c, 9, 39, 0
8, 77600, Note_on_c, 9, 42, 91
8, 77600, Note_on_c, 9, 35, 64
8, 77600, Note_on_c, 9, 37, 87
8, 77604, Note_on_c, 9, 42, 0
8, 77604, Note_on_c, 9, 35, 0
8, 77604, Note_on_c, 9, 37, 0
8, 77760, Note_on_c, 9, 37, 113
8, 77760, Note_on_c, 9, 42, 110
8, 77760, Note_on_c, 9, 35, 110
8, 77764, Note_on_c, 9, 37, 0
8, 77764, Note_on_c, 9, 42, 0
8, 77764, Note_on_c, 9, 35, 0
8, 78080, Note_on_c, 9, 42, 95
8, 78080, Note_on_c, 9, 37, 85
8, 78084, Note_on_c, 9, 42, 0
8, 78084, Note_on_c, 9, 37, 0
8, 78085, Note_on_c, 9, 39, 51
8, 78089, Note_on_c, 9, 39, 0
8, 78240, Note_on_c, 9, 40, 127
8, 78240, Note_on_c, 9, 37, 113
8, 78240, Note_on_c, 9, 39, 35
8, 78240, Note_on_c, 9, 42, 110
8, 78244, Note_on_c, 9, 40, 0
8, 78244, Note_on_c, 9, 37, 0
8, 78244, Note_on_c, 9, 39, 0
8, 78244, Note_on_c, 9, 42, 0
8, 78560, Note_on_c, 9, 42, 81
8, 78560, Note_on_c, 9, 37, 104
8, 78564, Note_on_c, 9, 42, 0
8, 78564, Note_on_c, 9, 37, 0
8, 78720, Note_on_c, 9, 42, 119
8, 78720, Note_on_c, 9, 35, 92
8, 78720, Note_on_c, 9, 37, 113
8, 78724, Note_on_c, 9, 42, 0
8, 78724, Note_on_c, 9, 35, 0
8, 78724, Note_on_c, 9, 37, 0
8, 78960, Note_on_c, 9, 39, 57
8, 78964, Note_on_c, 9, 39, 0
8, 79040, Note_on_c, 9, 42, 99
8, 79040, Note_on_c, 9, 37, 91
8, 79044, Note_on_c, 9, 42, 0
8, 79044, Note_on_c, 9, 37, 0
8, 79200, Note_on_c, 9, 40, 127
8, 79200, Note_on_c, 9, 42, 113
8, 79200, Note_on_c, 9, 37, 107
8, 79204, Note_on_c, 9, 40, 0
8, 79204, Note_on_c, 9, 42, 0
8, 79204, Note_on_c, 9, 37, 0
8, 79440, Note_on_c, 9, 39, 47
8, 79444, Note_on_c, 9, 39, 0
8, 79520, Note_on_c, 9, 35, 75
8, 79520, Note_on_c, 9, 42, 104
8, 79520, Note_on_c, 9, 37, 99
8, 79524, Note_on_c, 9, 35, 0
8, 79524, Note_on_c, 9, 42, 0
8, 79524, Note_on_c, 9, 37, 0
8, 79680, Note_on_c, 9, 42, 110
8, 79680, Note_on_c, 9, 35, 106
8, 79680, Note_on_c, 9, 37, 113
8, 79684, Note_on_c, 9, 42, 0
8, 79684, Note_on_c, 9, 35, 0
8, 79684, Note_on_c, 9, 37, 0
8, 80000, Note_on_c, 9, 42, 104
8, 80000, Note_on_c, 9, 37, 93
8, 80004, Note_on_c, 9, 42, 0
8, 80004, Note_on_c, 9, 37, 0
8, 80005, Note_on_c, 9, 39, 51
8, 80009, Note_on_c, 9, 39, 0
8, 80160, Note_on_c, 9, 42, 113
8, 80160, Note_on_c, 9, 40, 127
8, 80160, Note_on_c, 9, 39, 35
8, 80160, Note_on_c, 9, 37, 113
8, 80164, Note_on_c, 9, 42, 0
8, 80164, Note_on_c, 9, 40, 0
8, 80164, Note_on_c, 9, 39, 0
8, 80164, Note_on_c, 9, 37, 0
8, 80480, Note_on_c, 9, 42, 99
8, 80480, Note_on_c, 9, 37, 104
8, 80484, Note_on_c, 9, 42, 0
8, 80484, Note_on_c, 9, 37, 0
8, 80640, Note_on_c, 9, 37, 78
8, 80640, Note_on_c, 9, 42, 107
8, 80640, Note_on_c, 9, 35, 120
8, 80644, Note_on_c, 9, 37, 0
8, 80644, Note_on_c, 9, 42, 0
8, 80644, Note_on_c, 9, 35, 0
8, 80880, Note_on_c, 9, 39, 57
8, 80884, Note_on_c, 9, 39, 0
8, 80960, Note_on_c, 9, 42, 101
8, 80960, Note_on_c, 9, 37, 78
8, 80964, Note_on_c, 9, 42, 0
8, 80964, Note_on_c, 9, 37, 0
8, 81120, Note_on_c, 9, 40, 127
8, 81120, Note_on_c, 9, 37, 107
8, 81120, Note_on_c, 9, 42, 107
8, 81124, Note_on_c, 9, 40, 0
8, 81124, Note_on_c, 9, 37, 0
8, 81124, Note_on_c, 9, 42, 0
8, 81360, Note_on_c, 9, 39, 47
8, 81364, Note_on_c, 9, 39, 0
8, 81440, Note_on_c, 9, 35, 64
8, 81440, Note_on_c, 9, 37, 81
8, 81440, Note_on_c, 9, 42, 99
8, 81444, Note_on_c, 9, 35, 0
8, 81444, Note_on_c, 9, 37, 0
8, 81444, Note_on_c, 9, 42, 0
8, 81600, Note_on_c, 9, 42, 107
8, 81600, Note_on_c, 9, 35, 110
8, 81600, Note_on_c, 9, 37, 89
8, 81604, Note_on_c, 9, 42, 0
8, 81604, Note_on_c, 9, 35, 0
8, 81604, Note_on_c, 9, 37, 0
8, 81920, Note_on_c, 9, 37, 54
8, 81920, Note_on_c, 9, 42, 101
8, 81924, Note_on_c, 9, 37, 0
8, 81924, Note_on_c, 9, 42, 0
8, 81925, Note_on_c, 9, 39, 51
8, 81929, Note_on_c, 9, 39, 0
8, 82080, Note_on_c, 9, 40, 127
8, 82080, Note_on_c, 9, 37, 82
8, 82080, Note_on_c, 9, 42, 116
8, 82080, Note_on_c, 9, 39, 35
8, 82084, Note_on_c, 9, 40, 0
8, 82084, Note_on_c, 9, 37, 0
8, 82084, Note_on_c, 9, 42, 0
8, 82084, Note_on_c, 9, 39, 0
8, 82400, Note_on_c, 9, 42, 101
8, 82400, Note_on_c, 9, 37, 73
8, 82404, Note_on_c, 9, 42, 0
8, 82404, Note_on_c, 9, 37, 0
8, 82560, Note_on_c, 9, 35, 120
8, 82560, Note_on_c, 9, 42, 127
8, 82560, Note_on_c, 9, 37, 78
8, 82564, Note_on_c, 9, 35, 0
8, 82564, Note_on_c, 9, 42, 0
8, 82564, Note_on_c, 9, 37, 0
8, 82800, Note_on_c, 9, 39, 57
8, 82804, Note_on_c, 9, 39, 0
8, 82880, Note_on_c, 9, 37, 78
8, 82880, Note_on_c, 9, 42, 110
8, 82884, Note_on_c, 9, 37, 0
8, 82884, Note_on_c, 9, 42, 0
8, 83040, Note_on_c, 9, 42, 119
8, 83040, Note_on_c, 9, 37, 107
8, 83040, Note_on_c, 9, 40, 127
8, 83044, Note_on_c, 9, 42, 0
8, 83044, Note_on_c, 9, 37, 0
8, 83044, Note_on_c, 9, 40, 0
8, 83280, Note_on_c, 9, 39, 47
8, 83284, Note_on_c, 9, 39, 0
8, 83360, Note_on_c, 9, 42, 93
8, 83360, Note_on_c, 9, 37, 81
8, 83360, Note_on_c, 9, 35, 64
8, 83364, Note_on_c, 9, 42, 0
8, 83364, Note_on_c, 9, 37, 0
8, 83364, Note_on_c, 9, 35, 0
8, 83520, Note_on_c, 9, 35, 110
8, 83520, Note_on_c, 9, 42, 113
8, 83520, Note_on_c, 9, 37, 89
8, 83524, Note_on_c, 9, 35, 0
8, 83524, Note_on_c, 9, 42, 0
8, 83524, Note_on_c, 9, 37, 0
8, 83840, Note_on_c, 9, 42, 93
8, 83840, Note_on_c, 9, 37, 54
8, 83844, Note_on_c, 9, 42, 0
8, 83844, Note_on_c, 9, 37, 0
8, 83845, Note_on_c, 9, 39, 51
8, 83849, Note_on_c, 9, 39, 0
8, 84000, Note_on_c, 9, 40, 127
8, 84000, Note_on_c, 9, 39, 35
8, 84000, Note_on_c, 9, 37, 82
8, 84000, Note_on_c, 9, 42, 119
8, 84004, Note_on_c, 9, 40, 0
8, 84004, Note_on_c, 9, 39, 0
8, 84004, Note_on_c, 9, 37, 0
8, 84004, Note_on_c, 9, 42, 0
8, 84320, Note_on_c, 9, 37, 73
8, 84320, Note_on_c, 9, 42, 93
8, 84324, Note_on_c, 9, 37, 0
8, 84324, Note_on_c, 9, 42, 0
8, 84480, Note_on_c, 9, 35, 92
8, 84480, Note_on_c, 9, 37, 107
8, 84480, Note_on_c, 9, 42, 107
8, 84484, Note_on_c, 9, 35, 0
8, 84484, Note_on_c, 9, 37, 0
8, 84484, Note_on_c, 9, 42, 0
8, 84720, Note_on_c, 9, 39, 57
8, 84724, Note_on_c, 9, 39, 0
8, 84800, Note_on_c, 9, 42, 101
8, 84800, Note_on_c, 9, 37, 79
8, 84804, Note_on_c, 9, 42, 0
8, 84804, Note_on_c, 9, 37, 0
8, 84960, Note_on_c, 9, 37, 95
8, 84960, Note_on_c, 9, 42, 119
8, 84960, Note_on_c, 9, 40, 127
8, 84964, Note_on_c, 9, 37, 0
8, 84964, Note_on_c, 9, 42, 0
8, 84964, Note_on_c, 9, 40, 0
8, 85200, Note_on_c, 9, 39, 47
8, 85204, Note_on_c, 9, 39, 0
8, 85280, Note_on_c, 9, 37, 82
8, 85280, Note_on_c, 9, 35, 75
8, 85280, Note_on_c, 9, 42, 85
8, 85284, Note_on_c, 9, 37, 0
8, 85284, Note_on_c, 9, 35, 0
8, 85284, Note_on_c, 9, 42, 0
8, 85440, Note_on_c, 9, 35, 106
8, 85440, Note_on_c, 9, 37, 97
8, 85440, Note_on_c, 9, 42, 91
8, 85444, Note_on_c, 9, 35, 0
8, 85444, Note_on_c, 9, 37, 0
8, 85444, Note_on_c, 9, 42, 0
8, 85760, Note_on_c, 9, 42, 85
8, 85760, Note_on_c, 9, 37, 77
8, 85764, Note_on_c, 9, 42, 0
8, 85764, Note_on_c, 9, 37, 0
8, 85765, Note_on_c, 9, 39, 51
8, 85769, Note_on_c, 9, 39, 0
8, 85920, Note_on_c, 9, 42, 107
8, 85920, Note_on_c, 9, 40, 127
8, 85920, Note_on_c, 9, 37, 97
8, 85920, Note_on_c, 9, 39, 35
8, 85924, Note_on_c, 9, 42, 0
8, 85924, Note_on_c, 9, 40, 0
8, 85924, Note_on_c, 9, 37, 0
8, 85924, Note_on_c, 9, 39, 0
8, 86240, Note_on_c, 9, 37, 81
8, 86240, Note_on_c, 9, 42, 77
8, 86244, Note_on_c, 9, 37, 0
8, 86244, Note_on_c, 9, 42, 0
8, 86400, Note_on_c, 9, 37, 107
8, 86400, Note_on_c, 9, 42, 119
8, 86400, Note_on_c, 9, 35, 120
8, 86404, Note_on_c, 9, 37, 0
8, 86404, Note_on_c, 9, 42, 0
8, 86404, Note_on_c, 9, 35, 0
8, 86640, Note_on_c, 9, 39, 57
8, 86644, Note_on_c, 9, 39, 0
8, 86720, Note_on_c, 9, 37, 89
8, 86720, Note_on_c, 9, 42, 91
8, 86724, Note_on_c, 9, 37, 0
8, 86724, Note_on_c, 9, 42, 0
8, 86880, Note_on_c, 9, 42, 89
8, 86880, Note_on_c, 9, 40, 127
8, 86880, Note_on_c, 9, 37, 101
8, 86884, Note_on_c, 9, 42, 0
8, 86884, Note_on_c, 9, 40, 0
8, 86884, Note_on_c, 9, 37, 0
8, 87120, Note_on_c, 9, 39, 47
8, 87124, Note_on_c, 9, 39, 0
8, 87200, Note_on_c, 9, 42, 84
8, 87200, Note_on_c, 9, 35, 64
8, 87200, Note_on_c, 9, 37, 68
8, 87204, Note_on_c, 9, 42, 0
8, 87204, Note_on_c, 9, 35, 0
8, 87204, Note_on_c, 9, 37, 0
8, 87360, Note_on_c, 9, 37, 101
8, 87360, Note_on_c, 9, 42, 104
8, 87360, Note_on_c, 9, 35, 110
8, 87364, Note_on_c, 9, 37, 0
8, 87364, Note_on_c, 9, 42, 0
8, 87364, Note_on_c, 9, 35, 0
8, 87680, Note_on_c, 9, 42, 78
8, 87680, Note_on_c, 9, 37, 79
8, 87684, Note_on_c, 9, 42, 0
8, 87684, Note_on_c, 9, 37, 0
8, 87685, Note_on_c, 9, 39, 51
8, 87689, Note_on_c, 9, 39, 0
8, 87840, Note_on_c, 9, 42, 113
8, 87840, Note_on_c, 9, 37, 101
8, 87840, Note_on_c, 9, 39, 35
8, 87840, Note_on_c, 9, 40, 127
8, 87844, Note_on_c, 9, 42, 0
8, 87844, Note_on_c, 9, 37, 0
8, 87844, Note_on_c, 9, 39, 0
8, 87844, Note_on_c, 9, 40, 0
8, 88160, Note_on_c, 9, 42, 82
8, 88160, Note_on_c, 9, 37, 71
8, 88164, Note_on_c, 9, 42, 0
8, 88164, Note_on_c, 9, 37, 0
8, 88320, Note_on_c, 9, 37, 107
8, 88320, Note_on_c, 9, 35, 92
8, 88320, Note_on_c, 9, 42, 104
8, 88324, Note_on_c, 9, 37, 0
8, 88324, Note_on_c, 9, 35, 0
8, 88324, Note_on_c, 9, 42, 0
8, 88560, Note_on_c, 9, 39, 57
8, 88564, Note_on_c, 9, 39, 0
8, 88640, Note_on_c, 9, 37, 65
8, 88640, Note_on_c, 9, 42, 91
8, 88644, Note_on_c, 9, 37, 0
8, 88644, Note_on_c, 9, 42, 0
8, 88800, Note_on_c, 9, 40, 127
8, 88800, Note_on_c, 9, 42, 113
8, 88800, Note_on_c, 9, 37, 107
8, 88804, Note_on_c, 9, 40, 0
8, 88804, Note_on_c, 9, 42, 0
8, 88804, Note_on_c, 9, 37, 0
8, 89040, Note_on_c, 9, 39, 47
8, 89044, Note_on_c, 9, 39, 0
8, 89120, Note_on_c, 9, 35, 75
8, 89120, Note_on_c, 9, 37, 81
8, 89120, Note_on_c, 9, 42, 91
8, 89124, Note_on_c, 9, 35, 0
8, 89124, Note_on_c, 9, 37, 0
8, 89124, Note_on_c, 9, 42, 0
8, 89280, Note_on_c, 9, 35, 106
8, 89280, Note_on_c, 9, 42, 110
8, 89280, Note_on_c, 9, 37, 110
8, 89284, Note_on_c, 9, 35, 0
8, 89284, Note_on_c, 9, 42, 0
8, 89284, Note_on_c, 9, 37, 0
8, 89600, Note_on_c, 9, 42, 95
8, 89600, Note_on_c, 9, 37, 79
8, 89604, Note_on_c, 9, 42, 0
8, 89604, Note_on_c, 9, 37, 0
8, 89605, Note_on_c, 9, 39, 51
8, 89609, Note_on_c, 9, 39, 0
8, 89760, Note_on_c, 9, 42, 110
8, 89760, Note_on_c, 9, 40, 127
8, 89760, Note_on_c, 9, 39, 35
8, 89760, Note_on_c, 9, 37, 113
8, 89764, Note_on_c, 9, 42, 0
8, 89764, Note_on_c, 9, 40, 0
8, 89764, Note_on_c, 9, 39, 0
8, 89764, Note_on_c, 9, 37, 0
8, 90080, Note_on_c, 9, 37, 68
8, 90080, Note_on_c, 9, 42, 81
8, 90084, Note_on_c, 9, 37, 0
8, 90084, Note_on_c, 9, 42, 0
8, 90240, Note_on_c, 9, 42, 119
8, 90240, Note_on_c, 9, 37, 113
8, 90240, Note_on_c, 9, 35, 120
8, 90244, Note_on_c, 9, 42, 0
8, 90244, Note_on_c, 9, 37, 0
8, 90244, Note_on_c, 9, 35, 0
8, 90480, Note_on_c, 9, 39, 57
8, 90484, Note_on_c, 9, 39, 0
8, 90560, Note_on_c, 9, 37, 82
8, 90560, Note_on_c, 9, 42, 99
8, 90564, Note_on_c, 9, 37, 0
8, 90564, Note_on_c, 9, 42, 0
8, 90720, Note_on_c, 9, 37, 110
8, 90720, Note_on_c, 9, 42, 113
8, 90720, Note_on_c, 9, 40, 127
8, 90724, Note_on_c, 9, 37, 0
8, 90724, Note_on_c, 9, 42, 0
8, 90724, Note_on_c, 9, 40, 0
8, 90960, Note_on_c, 9, 39, 47
8, 90964, Note_on_c, 9, 39, 0
8, 91040, Note_on_c, 9, 42, 104
8, 91040, Note_on_c, 9, 35, 64
8, 91040, Note_on_c, 9, 37, 73
8, 91044, Note_on_c, 9, 42, 0
8, 91044, Note_on_c, 9, 35, 0
8, 91044, Note_on_c, 9, 37, 0
8, 91200, Note_on_c, 9, 42, 110
8, 91200, Note_on_c, 9, 35, 110
8, 91200, Note_on_c, 9, 37, 110
8, 91204, Note_on_c, 9, 42, 0
8, 91204, Note_on_c, 9, 35, 0
8, 91204, Note_on_c, 9, 37, 0
8, 91520, Note_on_c, 9, 42, 104
8, 91520, Note_on_c, 9, 37, 82
8, 91524, Note_on_c, 9, 42, 0
8, 91524, Note_on_c, 9, 37, 0
8, 91525, Note_on_c, 9, 39, 51
8, 91529, Note_on_c, 9, 39, 0
8, 91680, Note_on_c, 9, 37, 99
8, 91680, Note_on_c, 9, 40, 127
8, 91680, Note_on_c, 9, 42, 113
8, 91680, Note_on_c, 9, 39, 35
8, 91684, Note_on_c, 9, 37, 0
8, 91684, Note_on_c, 9, 40, 0
8, 91684, Note_on_c, 9, 42, 0
8, 91684, Note_on_c, 9, 39, 0
8, 92000, Note_on_c, 9, 42, 99
8, 92000, Note_on_c, 9, 37, 67
8, 92004, Note_on_c, 9, 42, 0
8, 92004, Note_on_c, 9, 37, 0
8, 92160, Note_on_c, 9, 35, 92
8, 92160, Note_on_c, 9, 37, 110
8, 92160, Note_on_c, 9, 42, 107
8, 92164, Note_on_c, 9, 35, 0
8, 92164, Note_on_c, 9, 37, 0
8, 92164, Note_on_c, 9, 42, 0
8, 92400, Note_on_c, 9, 39, 57
8, 92404, Note_on_c, 9, 39, 0
8, 92480, Note_on_c, 9, 37, 77
8, 92480, Note_on_c, 9, 42, 101
8, 92484, Note_on_c, 9, 37, 0
8, 92484, Note_on_c, 9, 42, 0
8, 92640, Note_on_c, 9, 40, 127
8, 92640, Note_on_c, 9, 42, 107
8, 92640, Note_on_c, 9, 37, 104
8, 92644, Note_on_c, 9, 40, 0
8, 92644, Note_on_c, 9, 42, 0
8, 92644, Note_on_c, 9, 37, 0
8, 92880, Note_on_c, 9, 39, 47
8, 92884, Note_on_c, 9, 39, 0
8, 92960, Note_on_c, 9, 37, 79
8, 92960, Note_on_c, 9, 42, 99
8, 92960, Note_on_c, 9, 35, 75
8, 92964, Note_on_c, 9, 37, 0
8, 92964, Note_on_c, 9, 42, 0
8, 92964, Note_on_c, 9, 35, 0
8, 93120, Note_on_c, 9, 42, 107
8, 93120, Note_on_c, 9, 35, 106
8, 93120, Note_on_c, 9, 37, 107
8, 93124, Note_on_c, 9, 42, 0
8, 93124, Note_on_c, 9, 35, 0
8, 93124, Note_on_c, 9, 37, 0
8, 93440, Note_on_c, 9, 37, 87
8, 93440, Note_on_c, 9, 42, 101
8, 93444, Note_on_c, 9, 37, 0
8, 93444, Note_on_c, 9, 42, 0
8, 93445, Note_on_c, 9, 39, 51
8, 93449, Note_on_c, 9, 39, 0
8, 93600, Note_on_c, 9, 40, 127
8, 93600, Note_on_c, 9, 39, 35
8, 93600, Note_on_c, 9, 42, 116
8, 93600, Note_on_c, 9, 37, 104
8, 93604, Note_on_c, 9, 40, 0
8, 93604, Note_on_c, 9, 39, 0
8, 93604, Note_on_c, 9, 42, 0
8, 93604, Note_on_c, 9, 37, 0
8, 93920, Note_on_c, 9, 42, 101
8, 93920, Note_on_c, 9, 37, 84
8, 93924, Note_on_c, 9, 42, 0
8, 93924, Note_on_c, 9, 37, 0
8, 94080, Note_on_c, 9, 37, 104
8, 94080, Note_on_c, 9, 35, 120
8, 94080, Note_on_c, 9, 42, 127
8, 94084, Note_on_c, 9, 37, 0
8, 94084, Note_on_c, 9, 35, 0
8, 94084, Note_on_c, 9, 42, 0
8, 94320, Note_on_c, 9, 39, 57
8, 94324, Note_on_c, 9, 39, 0
8, 94400, Note_on_c, 9, 42, 110
8, 94400, Note_on_c, 9, 37, 95
8, 94404, Note_on_c, 9, 42, 0
8, 94404, Note_on_c, 9, 37, 0
8, 94560, Note_on_c, 9, 37, 104
8, 94560, Note_on_c, 9, 40, 127
8, 94560, Note_on_c, 9, 42, 119
8, 94564, Note_on_c, 9, 37, 0
8, 94564, Note_on_c, 9, 40, 0
8, 94564, Note_on_c, 9, 42, 0
8, 94800, Note_on_c, 9, 39, 47
8, 94804, Note_on_c, 9, 39, 0
8, 94880, Note_on_c, 9, 37, 87
8, 94880, Note_on_c, 9, 35, 64
8, 94880, Note_on_c, 9, 42, 93
8, 94884, Note_on_c, 9, 37, 0
8, 94884, Note_on_c, 9, 35, 0
8, 94884, Note_on_c, 9, 42, 0
8, 95040, Note_on_c, 9, 37, 113
8, 95040, Note_on_c, 9, 35, 110
8, 95040, Note_on_c, 9, 42, 113
8, 95044, Note_on_c, 9, 37, 0
8, 95044, Note_on_c, 9, 35, 0
8, 95044, Note_on_c, 9, 42, 0
8, 95360, Note_on_c, 9, 42, 93
8, 95360, Note_on_c, 9, 37, 85
8, 95364, Note_on_c, 9, 42, 0
8, 95364, Note_on_c, 9, 37, 0
8, 95365, Note_on_c, 9, 39, 51
8, 95369, Note_on_c, 9, 39, 0
8, 95520, Note_on_c, 9, 37, 113
8, 95520, Note_on_c, 9, 40, 127
8, 95520, Note_on_c, 9, 39, 35
8, 95520, Note_on_c, 9, 42, 119
8, 95524, Note_on_c, 9, 37, 0
8, 95524, Note_on_c, 9, 40, 0
8, 95524, Note_on_c, 9, 39, 0
8, 95524, Note_on_c, 9, 42, 0
8, 95840, Note_on_c, 9, 37, 104
8, 95840, Note_on_c, 9, 42, 93
8, 95844, Note_on_c, 9, 37, 0
8, 95844, Note_on_c, 9, 42, 0
8, 96000, Note_on_c, 9, 42, 107
8, 96000, Note_on_c, 9, 37, 113
8, 96000, Note_on_c, 9, 35, 92
8, 96004, Note_on_c, 9, 42, 0
8, 96004, Note_on_c, 9, 37, 0
8, 96004, Note_on_c, 9, 35, 0
8, 96240, Note_on_c, 9, 39, 57
8, 96244, Note_on_c, 9, 39, 0
8, 96320, Note_on_c, 9, 37, 91
8, 96320, Note_on_c, 9, 42, 101
8, 96324, Note_on_c, 9, 37, 0
8, 96324, Note_on_c, 9, 42, 0
8, 96480, Note_on_c, 9, 42, 119
8, 96480, Note_on_c, 9, 37, 107
8, 96480, Note_on_c, 9, 40, 127
8, 96484, Note_on_c, 9, 42, 0
8, 96484, Note_on_c, 9, 37, 0
8, 96484, Note_on_c, 9, 40, 0
8, 96720, Note_on_c, 9, 39, 47
8, 96724, Note_on_c, 9, 39, 0
8, 96800, Note_on_c, 9, 37, 99
8, 96800, Note_on_c, 9, 42, 85
8, 96800, Note_on_c, 9, 35, 75
8, 96804, Note_on_c, 9, 37, 0
8, 96804, Note_on_c, 9, 42, 0
8, 96804, Note_on_c, 9, 35, 0
8, 96960, Note_on_c, 9, 35, 106
8, 96960, Note_on_c, 9, 42, 91
8, 96960, Note_on_c, 9, 37, 113
8, 96964, Note_on_c, 9, 35, 0
8, 96964, Note_on_c, 9, 42, 0
8, 96964, Note_on_c, 9, 37, 0
8, 97280, Note_on_c, 9, 37, 93
8, 97280, Note_on_c, 9, 42, 85
8, 97284, Note_on_c, 9, 37, 0
8, 97284, Note_on_c, 9, 42, 0
8, 97285, Note_on_c, 9, 39, 51
8, 97289, Note_on_c, 9, 39, 0
8, 97440, Note_on_c, 9, 42, 107
8, 97440, Note_on_c, 9, 40, 127
8, 97440, Note_on_c, 9, 37, 113
8, 97440, Note_on_c, 9, 39, 35
8, 97444, Note_on_c, 9, 42, 0
8, 97444, Note_on_c, 9, 40, 0
8, 97444, Note_on_c, 9, 37, 0
8, 97444, Note_on_c, 9, 39, 0
8, 97760, Note_on_c, 9, 37, 104
8, 97760, Note_on_c, 9, 42, 77
8, 97764, Note_on_c, 9, 37, 0
8, 97764, Note_on_c, 9, 42, 0
8, 97920, Note_on_c, 9, 37, 78
8, 97920, Note_on_c, 9, 42, 119
8, 97920, Note_on_c, 9, 35, 120
8, 97924, Note_on_c, 9, 37, 0
8, 97924, Note_on_c, 9, 42, 0
8, 97924, Note_on_c, 9, 35, 0
8, 98160, Note_on_c, 9, 39, 57
8, 98164, Note_on_c, 9, 39, 0
8, 98240, Note_on_c, 9, 37, 78
8, 98240, Note_on_c, 9, 42, 91
8, 98244, Note_on_c, 9, 37, 0
8, 98244, Note_on_c, 9, 42, 0
8, 98400, Note_on_c, 9, 37, 107
8, 98400, Note_on_c, 9, 40, 127
8, 98400, Note_on_c, 9, 42, 89
8, 98404, Note_on_c, 9, 37, 0
8, 98404, Note_on_c, 9, 40, 0
8, 98404, Note_on_c, 9, 42, 0
8, 98640, Note_on_c, 9, 39, 47
8, 98644, Note_on_c, 9, 39, 0
8, 98720, Note_on_c, 9, 35, 64
8, 98720, Note_on_c, 9, 37, 81
8, 98720, Note_on_c, 9, 42, 84
8, 98724, Note_on_c, 9, 35, 0
8, 98724, Note_on_c, 9, 37, 0
8, 98724, Note_on_c, 9, 42, 0
8, 98880, Note_on_c, 9, 37, 89
8, 98880, Note_on_c, 9, 42, 104
8, 98880, Note_on_c, 9, 35, 110
8, 98884, Note_on_c, 9, 37, 0
8, 98884, Note_on_c, 9, 42, 0
8, 98884, Note_on_c, 9, 35, 0
8, 99200, Note_on_c, 9, 42, 78
8, 99200, Note_on_c, 9, 37, 54
8, 99204, Note_on_c, 9, 42, 0
8, 99204, Note_on_c, 9, 37, 0
8, 99205, Note_on_c, 9, 39, 51
8, 99209, Note_on_c, 9, 39, 0
8, 99360, Note_on_c, 9, 37, 82
8, 99360, Note_on_c, 9, 42, 113
8, 99360, Note_on_c, 9, 39, 35
8, 99360, Note_on_c, 9, 40, 127
8, 99364, Note_on_c, 9, 37, 0
8, 99364, Note_on_c, 9, 42, 0
8, 99364, Note_on_c, 9, 39, 0
8, 99364, Note_on_c, 9, 40, 0
8, 99680, Note_on_c, 9, 37, 73
8, 99680, Note_on_c, 9, 42, 82
8, 99684, Note_on_c, 9, 37, 0
8, 99684, Note_on_c, 9, 42, 0
8, 99840, Note_on_c, 9, 37, 107
8, 99840, Note_on_c, 9, 35, 92
8, 99840, Note_on_c, 9, 42, 104
8, 99844, Note_on_c, 9, 37, 0
8, 99844, Note_on_c, 9, 35, 0
8, 99844, Note_on_c, 9, 42, 0
8, 100080, Note_on_c, 9, 39, 57
8, 100084, Note_on_c, 9, 39, 0
8, 100160, Note_on_c, 9, 37, 79
8, 100160, Note_on_c, 9, 42, 91
8, 100164, Note_on_c, 9, 37, 0
8, 100164, Note_on_c, 9, 42, 0
8, 100320, Note_on_c, 9, 37, 95
8, 100320, Note_on_c, 9, 42, 113
8, 100320, Note_on_c, 9, 40, 127
8, 100324, Note_on_c, 9, 37, 0
8, 100324, Note_on_c, 9, 42, 0
8, 100324, Note_on_c, 9, 40, 0
8, 100560, Note_on_c, 9, 39, 47
8, 100564, Note_on_c, 9, 39, 0
8, 100640, Note_on_c, 9, 37, 82
8, 100640, Note_on_c, 9, 42, 91
8, 100640, Note_on_c, 9, 35, 75
8, 100644, Note_on_c, 9, 37, 0
8, 100644, Note_on_c, 9, 42, 0
8, 100644, Note_on_c, 9, 35, 0
8, 100800, Note_on_c, 9, 35, 106
8, 100800, Note_on_c, 9, 42, 110
8, 100800, Note_on_c, 9, 37, 97
8, 100804, Note_on_c, 9, 35, 0
8, 100804, Note_on_c, 9, 42, 0
8, 100804, Note_on_c, 9, 37, 0
8, 101120, Note_on_c, 9, 37, 77
8, 101120, Note_on_c, 9, 42, 95
8, 101124, Note_on_c, 9, 37, 0
8, 101124, Note_on_c, 9, 42, 0
8, 101125, Note_on_c, 9, 39, 51
8, 101129, Note_on_c, 9, 39, 0
8, 101280, Note_on_c, 9, 40, 127
8, 101280, Note_on_c, 9, 39, 35
8, 101280, Note_on_c, 9, 42, 110
8, 101280, Note_on_c, 9, 37, 97
8, 101284, Note_on_c, 9, 40, 0
8, 101284, Note_on_c, 9, 39, 0
8, 101284, Note_on_c, 9, 42, 0
8, 101284, Note_on_c, 9, 37, 0
8, 101600, Note_on_c, 9, 37, 81
8, 101600, Note_on_c, 9, 42, 81
8, 101604, Note_on_c, 9, 37, 0
8, 101604, Note_on_c, 9, 42, 0
8, 101760, Note_on_c, 9, 35, 120
8, 101760, Note_on_c, 9, 37, 107
8, 101760, Note_on_c, 9, 42, 119
8, 101764, Note_on_c, 9, 35, 0
8, 101764, Note_on_c, 9, 37, 0
8, 101764, Note_on_c, 9, 42, 0
8, 102000, Note_on_c, 9, 39, 57
8, 102004, Note_on_c, 9, 39, 0
8, 102080, Note_on_c, 9, 37, 89
8, 102080, Note_on_c, 9, 42, 99
8, 102084, Note_on_c, 9, 37, 0
8, 102084, Note_on_c, 9, 42, 0
8, 102240, Note_on_c, 9, 37, 101
8, 102240, Note_on_c, 9, 40, 127
8, 102240, Note_on_c, 9, 42, 113
8, 102244, Note_on_c, 9, 37, 0
8, 102244, Note_on_c, 9, 40, 0
8, 102244, Note_on_c, 9, 42, 0
8, 102480, Note_on_c, 9, 39, 47
8, 102484, Note_on_c, 9, 39, 0
8, 102560, Note_on_c, 9, 37, 68
8, 102560, Note_on_c, 9, 35, 64
8, 102560, Note_on_c, 9, 42, 104
8, 102564, Note_on_c, 9, 37, 0
8, 102564, Note_on_c, 9, 35, 0
8, 102564, Note_on_c, 9, 42, 0
8, 102720, Note_on_c, 9, 35, 110
8, 102720, Note_on_c, 9, 37, 101
8, 102720, Note_on_c, 9, 42, 110
8, 102724, Note_on_c, 9, 35, 0
8, 102724, Note_on_c, 9, 37, 0
8, 102724, Note_on_c, 9, 42, 0
8, 103040, Note_on_c, 9, 37, 79
8, 103040, Note_on_c, 9, 42, 104
8, 103044, Note_on_c, 9, 37, 0
8, 103044, Note_on_c, 9, 42, 0
8, 103045, Note_on_c, 9, 39, 51
8, 103049, Note_on_c, 9, 39, 0
8, 103200, Note_on_c, 9, 40, 127
8, 103200, Note_on_c, 9, 42, 113
8, 103200, Note_on_c, 9, 39, 35
8, 103200, Note_on_c, 9, 37, 101
8, 103204, Note_on_c, 9, 40, 0
8, 103204, Note_on_c, 9, 42, 0
8, 103204, Note_on_c, 9, 39, 0
8, 103204, Note_on_c, 9, 37, 0
8, 103520, Note_on_c, 9, 42, 99
8, 103520, Note_on_c, 9, 37, 71
8, 103524, Note_on_c, 9, 42, 0
8, 103524, Note_on_c, 9, 37, 0
8, 103680, Note_on_c, 9, 35, 92
8, 103680, Note_on_c, 9, 42, 107
8, 103680, Note_on_c, 9, 37, 107
8, 103680, Note_on_c, 9, 40, 127
8, 103684, Note_on_c, 9, 35, 0
8, 103684, Note_on_c, 9, 42, 0
8, 103684, Note_on_c, 9, 37, 0
8, 103684, Note_on_c, 9, 40, 0
8, 105600, Note_on_c, 9, 42, 127
8, 105600, Note_on_c, 9, 35, 120
8, 105600, Note_on_c, 9, 37, 113
8, 105604, Note_on_c, 9, 42, 0
8, 105604, Note_on_c, 9, 35, 0
8, 105604, Note_on_c, 9, 37, 0
8, 105840, Note_on_c, 9, 39, 57
8, 105844, Note_on_c, 9, 39, 0
8, 105920, Note_on_c, 9, 37, 82
8, 105920, Note_on_c, 9, 42, 110
8, 105924, Note_on_c, 9, 37, 0
8, 105924, Note_on_c, 9, 42, 0
8, 106080, Note_on_c, 9, 40, 127
8, 106080, Note_on_c, 9, 37, 110
8, 106080, Note_on_c, 9, 42, 119
8, 106084, Note_on_c, 9, 40, 0
8, 106084, Note_on_c, 9, 37, 0
8, 106084, Note_on_c, 9, 42, 0
8, 106320, Note_on_c, 9, 39, 47
8, 106324, Note_on_c, 9, 39, 0
8, 106400, Note_on_c, 9, 37, 73
8, 106400, Note_on_c, 9, 42, 93
8, 106400, Note_on_c, 9, 35, 64
8, 106404, Note_on_c, 9, 37, 0
8, 106404, Note_on_c, 9, 42, 0
8, 106404, Note_on_c, 9, 35, 0
8, 106560, Note_on_c, 9, 42, 113
8, 106560, Note_on_c, 9, 35, 110
8, 106560, Note_on_c, 9, 37, 110
8, 106564, Note_on_c, 9, 42, 0
8, 106564, Note_on_c, 9, 35, 0
8, 106564, Note_on_c, 9, 37, 0
8, 106880, Note_on_c, 9, 42, 93
8, 106880, Note_on_c, 9, 37, 82
8, 106884, Note_on_c, 9, 42, 0
8, 106884, Note_on_c, 9, 37, 0
8, 106885, Note_on_c, 9, 39, 51
8, 106889, Note_on_c, 9, 39, 0
8, 107040, Note_on_c, 9, 42, 119
8, 107040, Note_on_c, 9, 37, 99
8, 107040, Note_on_c, 9, 39, 35
8, 107040, Note_on_c, 9, 40, 127
8, 107044, Note_on_c, 9, 42, 0
8, 107044, Note_on_c, 9, 37, 0
8, 107044, Note_on_c, 9, 39, 0
8, 107044, Note_on_c, 9, 40, 0
8, 107360, Note_on_c, 9, 42, 93
8, 107360, Note_on_c, 9, 37, 67
8, 107364, Note_on_c, 9, 42, 0
8, 107364, Note_on_c, 9, 37, 0
8, 107520, Note_on_c, 9, 35, 92
8, 107520, Note_on_c, 9, 37, 110
8, 107520, Note_on_c, 9, 42, 107
8, 107524, Note_on_c, 9, 35, 0
8, 107524, Note_on_c, 9, 37, 0
8, 107524, Note_on_c, 9, 42, 0
8, 107760, Note_on_c, 9, 39, 57
8, 107764, Note_on_c, 9, 39, 0
8, 107840, Note_on_c, 9, 42, 101
8, 107840, Note_on_c, 9, 37, 77
8, 107844, Note_on_c, 9, 42, 0
8, 107844, Note_on_c, 9, 37, 0
8, 108000, Note_on_c, 9, 40, 127
8, 108000, Note_on_c, 9, 42, 119
8, 108000, Note_on_c, 9, 37, 104
8, 108004, Note_on_c, 9, 40, 0
8, 108004, Note_on_c, 9, 42, 0
8, 108004, Note_on_c, 9, 37, 0
8, 108240, Note_on_c, 9, 39, 47
8, 108244, Note_on_c, 9, 39, 0
8, 108320, Note_on_c, 9, 37, 79
8, 108320, Note_on_c, 9, 35, 75
8, 108320, Note_on_c, 9, 42, 85
8, 108324, Note_on_c, 9, 37, 0
8, 108324, Note_on_c, 9, 35, 0
8, 108324, Note_on_c, 9, 42, 0
8, 108480, Note_on_c, 9, 42, 91
8, 108480, Note_on_c, 9, 35, 106
8, 108480, Note_on_c, 9, 37, 107
8, 108484, Note_on_c, 9, 42, 0
8, 108484, Note_on_c, 9, 35, 0
8, 108484, Note_on_c, 9, 37, 0
8, 108800, Note_on_c, 9, 42, 85
8, 108800, Note_on_c, 9, 37, 87
8, 108804, Note_on_c, 9, 42, 0
8, 108804, Note_on_c, 9, 37, 0
8, 108805, Note_on_c, 9, 39, 51
8, 108809, Note_on_c, 9, 39, 0
8, 108960, Note_on_c, 9, 37, 104
8, 108960, Note_on_c, 9, 40, 127
8, 108960, Note_on_c, 9, 39, 35
8, 108960, Note_on_c, 9, 42, 107
8, 108964, Note_on_c, 9, 37, 0
8, 108964, Note_on_c, 9, 40, 0
8, 108964, Note_on_c, 9, 39, 0
8, 108964, Note_on_c, 9, 42, 0
8, 109280, Note_on_c, 9, 42, 77
8, 109280, Note_on_c, 9, 37, 84
8, 109284, Note_on_c, 9, 42, 0
8, 109284, Note_on_c, 9, 37, 0
8, 109440, Note_on_c, 9, 42, 119
8, 109440, Note_on_c, 9, 35, 120
8, 109440, Note_on_c, 9, 37, 104
8, 109444, Note_on_c, 9, 42, 0
8, 109444, Note_on_c, 9, 35, 0
8, 109444, Note_on_c, 9, 37, 0
8, 109680, Note_on_c, 9, 39, 57
8, 109684, Note_on_c, 9, 39, 0
8, 109760, Note_on_c, 9, 42, 91
8, 109760, Note_on_c, 9, 37, 95
8, 109764, Note_on_c, 9, 42, 0
8, 109764, Note_on_c, 9, 37, 0
8, 109920, Note_on_c, 9, 42, 89
8, 109920, Note_on_c, 9, 40, 127
8, 109920, Note_on_c, 9, 37, 104
8, 109924, Note_on_c, 9, 42, 0
8, 109924, Note_on_c, 9, 40, 0
8, 109924, Note_on_c, 9, 37, 0
8, 110160, Note_on_c, 9, 39, 47
8, 110164, Note_on_c, 9, 39, 0
8, 110240, Note_on_c, 9, 37, 87
8, 110240, Note_on_c, 9, 42, 84
8, 110240, Note_on_c, 9, 35, 64
8, 110244, Note_on_c, 9, 37, 0
8, 110244, Note_on_c, 9, 42, 0
8, 110244, Note_on_c, 9, 35, 0
8, 110400, Note_on_c, 9, 42, 104
8, 110400, Note_on_c, 9, 35, 110
8, 110400, Note_on_c, 9, 37, 113
8, 110404, Note_on_c, 9, 42, 0
8, 110404, Note_on_c, 9, 35, 0
8, 110404, Note_on_c, 9, 37, 0
8, 110720, Note_on_c, 9, 42, 78
8, 110720, Note_on_c, 9, 37, 85
8, 110724, Note_on_c, 9, 42, 0
8, 110724, Note_on_c, 9, 37, 0
8, 110725, Note_on_c, 9, 39, 51
8, 110729, Note_on_c, 9, 39, 0
8, 110880, Note_on_c, 9, 39, 35
8, 110880, Note_on_c, 9, 42, 113
8, 110880, Note_on_c, 9, 40, 127
8, 110880, Note_on_c, 9, 37, 113
8, 110884, Note_on_c, 9, 39, 0
8, 110884, Note_on_c, 9, 42, 0
8, 110884, Note_on_c, 9, 40, 0
8, 110884, Note_on_c, 9, 37, 0
8, 111200, Note_on_c, 9, 37, 104
8, 111200, Note_on_c, 9, 42, 82
8, 111204, Note_on_c, 9, 37, 0
8, 111204, Note_on_c, 9, 42, 0
8, 111360, Note_on_c, 9, 35, 92
8, 111360, Note_on_c, 9, 37, 113
8, 111360, Note_on_c, 9, 42, 104
8, 111364, Note_on_c, 9, 35, 0
8, 111364, Note_on_c, 9, 37, 0
8, 111364, Note_on_c, 9, 42, 0
8, 111600, Note_on_c, 9, 39, 57
8, 111604, Note_on_c, 9, 39, 0
8, 111680, Note_on_c, 9, 37, 91
8, 111680, Note_on_c, 9, 42, 91
8, 111684, Note_on_c, 9, 37, 0
8, 111684, Note_on_c, 9, 42, 0
8, 111840, Note_on_c, 9, 37, 107
8, 111840, Note_on_c, 9, 42, 113
8, 111840, Note_on_c, 9, 40, 127
8, 111844, Note_on_c, 9, 37, 0
8, 111844, Note_on_c, 9, 42, 0
8, 111844, Note_on_c, 9, 40, 0
8, 112080, Note_on_c, 9, 39, 47
8, 112084, Note_on_c, 9, 39, 0
8, 112160, Note_on_c, 9, 42, 91
8, 112160, Note_on_c, 9, 35, 75
8, 112160, Note_on_c, 9, 37, 99
8, 112164, Note_on_c, 9, 42, 0
8, 112164, Note_on_c, 9, 35, 0
8, 112164, Note_on_c, 9, 37, 0
8, 112320, Note_on_c, 9, 37, 113
8, 112320, Note_on_c, 9, 35, 106
8, 112320, Note_on_c, 9, 42, 110
8, 112324, Note_on_c, 9, 37, 0
8, 112324, Note_on_c, 9, 35, 0
8, 112324, Note_on_c, 9, 42, 0
8, 112640, Note_on_c, 9, 37, 93
8, 112640, Note_on_c, 9, 42, 95
8, 112644, Note_on_c, 9, 37, 0
8, 112644, Note_on_c, 9, 42, 0
8, 112645, Note_on_c, 9, 39, 51
8, 112649, Note_on_c, 9, 39, 0
8, 112800, Note_on_c, 9, 37, 113
8, 112800, Note_on_c, 9, 40, 127
8, 112800, Note_on_c, 9, 42, 110
8, 112800, Note_on_c, 9, 39, 35
8, 112804, Note_on_c, 9, 37, 0
8, 112804, Note_on_c, 9, 40, 0
8, 112804, Note_on_c, 9, 42, 0
8, 112804, Note_on_c, 9, 39, 0
8, 113120, Note_on_c, 9, 42, 81
8, 113120, Note_on_c, 9, 37, 104
8, 113124, Note_on_c, 9, 42, 0
8, 113124, Note_on_c, 9, 37, 0
8, 113280, Note_on_c, 9, 42, 119
8, 113280, Note_on_c, 9, 35, 92
8, 113280, Note_on_c, 9, 37, 107
8, 113284, Note_on_c, 9, 42, 0
8, 113284, Note_on_c, 9, 35, 0
8, 113284, Note_on_c, 9, 37, 0
8, 113520, Note_on_c, 9, 39, 57
8, 113524, Note_on_c, 9, 39, 0
8, 113600, Note_on_c, 9, 42, 99
8, 113600, Note_on_c, 9, 37, 65
8, 113604, Note_on_c, 9, 42, 0
8, 113604, Note_on_c, 9, 37, 0
8, 113760, Note_on_c, 9, 42, 113
8, 113760, Note_on_c, 9, 40, 127
8, 113760, Note_on_c, 9, 37, 107
8, 113764, Note_on_c, 9, 42, 0
8, 113764, Note_on_c, 9, 40, 0
8, 113764, Note_on_c, 9, 37, 0
8, 114000, Note_on_c, 9, 39, 47
8, 114004, Note_on_c, 9, 39, 0
8, 114080, Note_on_c, 9, 42, 104
8, 114080, Note_on_c, 9, 37, 81
8, 114080, Note_on_c, 9, 35, 75
8, 114084, Note_on_c, 9, 42, 0
8, 114084, Note_on_c, 9, 37, 0
8, 114084, Note_on_c, 9, 35, 0
8, 114240, Note_on_c, 9, 35, 106
8, 114240, Note_on_c, 9, 37, 110
8, 114240, Note_on_c, 9, 42, 110
8, 114244, Note_on_c, 9, 35, 0
8, 114244, Note_on_c, 9, 37, 0
8, 114244, Note_on_c, 9, 42, 0
8, 114560, Note_on_c, 9, 42, 104
8, 114560, Note_on_c, 9, 37, 79
8, 114564, Note_on_c, 9, 42, 0
8, 114564, Note_on_c, 9, 37, 0
8, 114565, Note_on_c, 9, 39, 51
8, 114569, Note_on_c, 9, 39, 0
8, 114720, Note_on_c, 9, 42, 113
8, 114720, Note_on_c, 9, 39, 35
8, 114720, Note_on_c, 9, 40, 127
8, 114720, Note_on_c, 9, 37, 113
8, 114724, Note_on_c, 9, 42, 0
8, 114724, Note_on_c, 9, 39, 0
8, 114724, Note_on_c, 9, 40, 0
8, 114724, Note_on_c, 9, 37, 0
8, 115040, Note_on_c, 9, 37, 68
8, 115040, Note_on_c, 9, 42, 99
8, 115044, Note_on_c, 9, 37, 0
8, 115044, Note_on_c, 9, 42, 0
8, 115200, Note_on_c, 9, 35, 120
8, 115200, Note_on_c, 9, 42, 107
8, 115200, Note_on_c, 9, 37, 113
8, 115204, Note_on_c, 9, 35, 0
8, 115204, Note_on_c, 9, 42, 0
8, 115204, Note_on_c, 9, 37, 0
8, 115440, Note_on_c, 9, 39, 57
8, 115444, Note_on_c, 9, 39, 0
8, 115520, Note_on_c, 9, 37, 82
8, 115520, Note_on_c, 9, 42, 101
8, 115524, Note_on_c, 9, 37, 0
8, 115524, Note_on_c, 9, 42, 0
8, 115680, Note_on_c, 9, 40, 127
8, 115680, Note_on_c, 9, 42, 107
8, 115680, Note_on_c, 9, 37, 110
8, 115684, Note_on_c, 9, 40, 0
8, 115684, Note_on_c, 9, 42, 0
8, 115684, Note_on_c, 9, 37, 0
8, 115920, Note_on_c, 9, 39, 47
8, 115924, Note_on_c, 9, 39, 0
8, 116000, Note_on_c, 9, 35, 64
8, 116000, Note_on_c, 9, 37, 73
8, 116000, Note_on_c, 9, 42, 99
8, 116004, Note_on_c, 9, 35, 0
8, 116004, Note_on_c, 9, 37, 0
8, 116004, Note_on_c, 9, 42, 0
8, 116160, Note_on_c, 9, 37, 110
8, 116160, Note_on_c, 9, 42, 107
8, 116160, Note_on_c, 9, 35, 110
8, 116164, Note_on_c, 9, 37, 0
8, 116164, Note_on_c, 9, 42, 0
8, 116164, Note_on_c, 9, 35, 0
8, 116480, Note_on_c, 9, 37, 82
8, 116480, Note_on_c, 9, 42, 101
8, 116484, Note_on_c, 9, 37, 0
8, 116484, Note_on_c, 9, 42, 0
8, 116485, Note_on_c, 9, 39, 51
8, 116489, Note_on_c, 9, 39, 0
8, 116640, Note_on_c, 9, 40, 127
8, 116640, Note_on_c, 9, 39, 35
8, 116640, Note_on_c, 9, 42, 116
8, 116640, Note_on_c, 9, 37, 99
8, 116644, Note_on_c, 9, 40, 0
8, 116644, Note_on_c, 9, 39, 0
8, 116644, Note_on_c, 9, 42, 0
8, 116644, Note_on_c, 9, 37, 0
8, 116960, Note_on_c, 9, 42, 101
8, 116960, Note_on_c, 9, 37, 67
8, 116964, Note_on_c, 9, 42, 0
8, 116964, Note_on_c, 9, 37, 0
8, 117120, Note_on_c, 9, 42, 119
8, 117120, Note_on_c, 9, 35, 92
8, 117120, Note_on_c, 9, 37, 110
8, 117124, Note_on_c, 9, 42, 0
8, 117124, Note_on_c, 9, 35, 0
8, 117124, Note_on_c, 9, 37, 0
8, 117360, Note_on_c, 9, 39, 57
8, 117364, Note_on_c, 9, 39, 0
8, 117440, Note_on_c, 9, 37, 77
8, 117440, Note_on_c, 9, 42, 91
8, 117444, Note_on_c, 9, 37, 0
8, 117444, Note_on_c, 9, 42, 0
8, 117600, Note_on_c, 9, 42, 89
8, 117600, Note_on_c, 9, 37, 104
8, 117600, Note_on_c, 9, 40, 127
8, 117604, Note_on_c, 9, 42, 0
8, 117604, Note_on_c, 9, 37, 0
8, 117604, Note_on_c, 9, 40, 0
8, 117840, Note_on_c, 9, 39, 47
8, 117844, Note_on_c, 9, 39, 0
8, 117920, Note_on_c, 9, 42, 84
8, 117920, Note_on_c, 9, 35, 75
8, 117920, Note_on_c, 9, 37, 79
8, 117924, Note_on_c, 9, 42, 0
8, 117924, Note_on_c, 9, 35, 0
8, 117924, Note_on_c, 9, 37, 0
8, 118080, Note_on_c, 9, 42, 104
8, 118080, Note_on_c, 9, 35, 106
8, 118080, Note_on_c, 9, 37, 107
8, 118084, Note_on_c, 9, 42, 0
8, 118084, Note_on_c, 9, 35, 0
8, 118084, Note_on_c, 9, 37, 0
8, 118400, Note_on_c, 9, 42, 78
8, 118400, Note_on_c, 9, 37, 87
8, 118404, Note_on_c, 9, 42, 0
8, 118404, Note_on_c, 9, 37, 0
8, 118405, Note_on_c, 9, 39, 51
8, 118409, Note_on_c, 9, 39, 0
8, 118560, Note_on_c, 9, 42, 113
8, 118560, Note_on_c, 9, 40, 127
8, 118560, Note_on_c, 9, 37, 104
8, 118560, Note_on_c, 9, 39, 35
8, 118564, Note_on_c, 9, 42, 0
8, 118564, Note_on_c, 9, 40, 0
8, 118564, Note_on_c, 9, 37, 0
8, 118564, Note_on_c, 9, 39, 0
8, 118880, Note_on_c, 9, 37, 84
8, 118880, Note_on_c, 9, 42, 82
8, 118884, Note_on_c, 9, 37, 0
8, 118884, Note_on_c, 9, 42, 0
8, 119040, Note_on_c, 9, 35, 120
8, 119040, Note_on_c, 9, 37, 104
8, 119040, Note_on_c, 9, 42, 104
8, 119044, Note_on_c, 9, 35, 0
8, 119044, Note_on_c, 9, 37, 0
8, 119044, Note_on_c, 9, 42, 0
8, 119280, Note_on_c, 9, 39, 57
8, 119284, Note_on_c, 9, 39, 0
8, 119360, Note_on_c, 9, 42, 91
8, 119360, Note_on_c, 9, 37, 95
8, 119364, Note_on_c, 9, 42, 0
8, 119364, Note_on_c, 9, 37, 0
8, 119520, Note_on_c, 9, 42, 113
8, 119520, Note_on_c, 9, 40, 127
8, 119520, Note_on_c, 9, 37, 104
8, 119524, Note_on_c, 9, 42, 0
8, 119524, Note_on_c, 9, 40, 0
8, 119524, Note_on_c, 9, 37, 0
8, 119760, Note_on_c, 9, 39, 47
8, 119764, Note_on_c, 9, 39, 0
8, 119840, Note_on_c, 9, 35, 64
8, 119840, Note_on_c, 9, 42, 91
8, 119840, Note_on_c, 9, 37, 87
8, 119844, Note_on_c, 9, 35, 0
8, 119844, Note_on_c, 9, 42, 0
8, 119844, Note_on_c, 9, 37, 0
8, 120000, Note_on_c, 9, 35, 110
8, 120000, Note_on_c, 9, 42, 110
8, 120000, Note_on_c, 9, 37, 113
8, 120004, Note_on_c, 9, 35, 0
8, 120004, Note_on_c, 9, 42, 0
8, 120004, Note_on_c, 9, 37, 0
8, 120320, Note_on_c, 9, 42, 95
8, 120320, Note_on_c, 9, 37, 85
8, 120324, Note_on_c, 9, 42, 0
8, 120324, Note_on_c, 9, 37, 0
8, 120325, Note_on_c, 9, 39, 51
8, 120329, Note_on_c, 9, 39, 0
8, 120480, Note_on_c, 9, 40, 127
8, 120480, Note_on_c, 9, 42, 110
8, 120480, Note_on_c, 9, 39, 35
8, 120480, Note_on_c, 9, 37, 113
8, 120484, Note_on_c, 9, 40, 0
8, 120484, Note_on_c, 9, 42, 0
8, 120484, Note_on_c, 9, 39, 0
8, 120484, Note_on_c, 9, 37, 0
8, 120800, Note_on_c, 9, 42, 81
8, 120800, Note_on_c, 9, 37, 104
8, 120804, Note_on_c, 9, 42, 0
8, 120804, Note_on_c, 9, 37, 0
8, 120960, Note_on_c, 9, 42, 119
8, 120960, Note_on_c, 9, 37, 113
8, 120960, Note_on_c, 9, 35, 92
8, 120964, Note_on_c, 9, 42, 0
8, 120964, Note_on_c, 9, 37, 0
8, 120964, Note_on_c, 9, 35, 0
8, 121200, Note_on_c, 9, 39, 57
8, 121204, Note_on_c, 9, 39, 0
8, 121280, Note_on_c, 9, 37, 91
8, 121280, Note_on_c, 9, 42, 99
8, 121284, Note_on_c, 9, 37, 0
8, 121284, Note_on_c, 9, 42, 0
8, 121440, Note_on_c, 9, 40, 127
8, 121440, Note_on_c, 9, 37, 107
8, 121440, Note_on_c, 9, 42, 113
8, 121444, Note_on_c, 9, 40, 0
8, 121444, Note_on_c, 9, 37, 0
8, 121444, Note_on_c, 9, 42, 0
8, 121680, Note_on_c, 9, 39, 47
8, 121684, Note_on_c, 9, 39, 0
8, 121760, Note_on_c, 9, 35, 75
8, 121760, Note_on_c, 9, 42, 104
8, 121760, Note_on_c, 9, 37, 99
8, 121764, Note_on_c, 9, 35, 0
8, 121764, Note_on_c, 9, 42, 0
8, 121764, Note_on_c, 9, 37, 0
8, 121920, Note_on_c, 9, 37, 113
8, 121920, Note_on_c, 9, 42, 110
8, 121920, Note_on_c, 9, 35, 106
8, 121924, Note_on_c, 9, 37, 0
8, 121924, Note_on_c, 9, 42, 0
8, 121924, Note_on_c, 9, 35, 0
8, 122240, Note_on_c, 9, 42, 104
8, 122240, Note_on_c, 9, 37, 93
8, 122244, Note_on_c, 9, 42, 0
8, 122244, Note_on_c, 9, 37, 0
8, 122245, Note_on_c, 9, 39, 51
8, 122249, Note_on_c, 9, 39, 0
8, 122400, Note_on_c, 9, 37, 113
8, 122400, Note_on_c, 9, 42, 113
8, 122400, Note_on_c, 9, 39, 35
8, 122400, Note_on_c, 9, 40, 127
8, 122404, Note_on_c, 9, 37, 0
8, 122404, Note_on_c, 9, 42, 0
8, 122404, Note_on_c, 9, 39, 0
8, 122404, Note_on_c, 9, 40, 0
8, 122720, Note_on_c, 9, 37, 104
8, 122720, Note_on_c, 9, 42, 99
8, 122724, Note_on_c, 9, 37, 0
8, 122724, Note_on_c, 9, 42, 0
8, 122880, Note_on_c, 9, 35, 120
8, 122880, Note_on_c, 9, 42, 107
8, 122880, Note_on_c, 9, 37, 78
8, 122884, Note_on_c, 9, 35, 0
8, 122884, Note_on_c, 9, 42, 0
8, 122884, Note_on_c, 9, 37, 0
8, 123120, Note_on_c, 9, 39, 57
8, 123124, Note_on_c, 9, 39, 0
8, 123200, Note_on_c, 9, 42, 101
8, 123200, Note_on_c, 9, 37, 78
8, 123204, Note_on_c, 9, 42, 0
8, 123204, Note_on_c, 9, 37, 0
8, 123360, Note_on_c, 9, 40, 127
8, 123360, Note_on_c, 9, 37, 107
8, 123360, Note_on_c, 9, 42, 107
8, 123364, Note_on_c, 9, 40, 0
8, 123364, Note_on_c, 9, 37, 0
8, 123364, Note_on_c, 9, 42, 0
8, 123600, Note_on_c, 9, 39, 47
8, 123604, Note_on_c, 9, 39, 0
8, 123680, Note_on_c, 9, 42, 99
8, 123680, Note_on_c, 9, 35, 64
8, 123680, Note_on_c, 9, 37, 81
8, 123684, Note_on_c, 9, 42, 0
8, 123684, Note_on_c, 9, 35, 0
8, 123684, Note_on_c, 9, 37, 0
8, 123840, Note_on_c, 9, 42, 107
8, 123840, Note_on_c, 9, 35, 110
8, 123840, Note_on_c, 9, 37, 89
8, 123844, Note_on_c, 9, 42, 0
8, 123844, Note_on_c, 9, 35, 0
8, 123844, Note_on_c, 9, 37, 0
8, 124160, Note_on_c, 9, 37, 54
8, 124160, Note_on_c, 9, 42, 101
8, 124164, Note_on_c, 9, 37, 0
8, 124164, Note_on_c, 9, 42, 0
8, 124165, Note_on_c, 9, 39, 51
8, 124169, Note_on_c, 9, 39, 0
8, 124320, Note_on_c, 9, 42, 116
8, 124320, Note_on_c, 9, 39, 35
8, 124320, Note_on_c, 9, 40, 127
8, 124320, Note_on_c, 9, 37, 82
8, 124324, Note_on_c, 9, 42, 0
8, 124324, Note_on_c, 9, 39, 0
8, 124324, Note_on_c, 9, 40, 0
8, 124324, Note_on_c, 9, 37, 0
8, 124640, Note_on_c, 9, 37, 73
8, 124640, Note_on_c, 9, 42, 101
8, 124644, Note_on_c, 9, 37, 0
8, 124644, Note_on_c, 9, 42, 0
8, 124800, Note_on_c, 9, 42, 127
8, 124800, Note_on_c, 9, 35, 120
8, 124800, Note_on_c, 9, 37, 78
8, 124804, Note_on_c, 9, 42, 0
8, 124804, Note_on_c, 9, 35, 0
8, 124804, Note_on_c, 9, 37, 0
8, 125040, Note_on_c, 9, 39, 57
8, 125044, Note_on_c, 9, 39, 0
8, 125120, Note_on_c, 9, 37, 78
8, 125120, Note_on_c, 9, 42, 110
8, 125124, Note_on_c, 9, 37, 0
8, 125124, Note_on_c, 9, 42, 0
8, 125280, Note_on_c, 9, 42, 119
8, 125280, Note_on_c, 9, 37, 107
8, 125280, Note_on_c, 9, 40, 127
8, 125284, Note_on_c, 9, 42, 0
8, 125284, Note_on_c, 9, 37, 0
8, 125284, Note_on_c, 9, 40, 0
8, 125520, Note_on_c, 9, 39, 47
8, 125524, Note_on_c, 9, 39, 0
8, 125600, Note_on_c, 9, 37, 81
8, 125600, Note_on_c, 9, 42, 93
8, 125600, Note_on_c, 9, 35, 64
8, 125604, Note_on_c, 9, 37, 0
8, 125604, Note_on_c, 9, 42, 0
8, 125604, Note_on_c, 9, 35, 0
8, 125760, Note_on_c, 9, 42, 113
8, 125760, Note_on_c, 9, 37, 89
8, 125760, Note_on_c, 9, 35, 110
8, 125764, Note_on_c, 9, 42, 0
8, 125764, Note_on_c, 9, 37, 0
8, 125764, Note_on_c, 9, 35, 0
8, 126080, Note_on_c, 9, 42, 93
8, 126080, Note_on_c, 9, 37, 54
8, 126084, Note_on_c, 9, 42, 0
8, 126084, Note_on_c, 9, 37, 0
8, 126085, Note_on_c, 9, 39, 51
8, 126089, Note_on_c, 9, 39, 0
8, 126240, Note_on_c, 9, 40, 127
8, 126240, Note_on_c, 9, 37, 82
8, 126240, Note_on_c, 9, 42, 119
8, 126240, Note_on_c, 9, 39, 35
8, 126244, Note_on_c, 9, 40, 0
8, 126244, Note_on_c, 9, 37, 0
8, 126244, Note_on_c, 9, 42, 0
8, 126244, Note_on_c, 9, 39, 0
8, 126560, Note_on_c, 9, 42, 93
8, 126560, Note_on_c, 9, 37, 73
8, 126564, Note_on_c, 9, 42, 0
8, 126564, Note_on_c, 9, 37, 0
8, 126720, Note_on_c, 9, 35, 92
8, 126720, Note_on_c, 9, 37, 107
8, 126720, Note_on_c, 9, 42, 107
8, 126724, Note_on_c, 9, 35, 0
8, 126724, Note_on_c, 9, 37, 0
8, 126724, Note_on_c, 9, 42, 0
8, 126960, Note_on_c, 9, 39, 57
8, 126964, Note_on_c, 9, 39, 0
8, 127040, Note_on_c, 9, 37, 79
8, 127040, Note_on_c, 9, 42, 101
8, 127044, Note_on_c, 9, 37, 0
8, 127044, Note_on_c, 9, 42, 0
8, 127200, Note_on_c, 9, 42, 119
8, 127200, Note_on_c, 9, 40, 127
8, 127200, Note_on_c, 9, 37, 95
8, 127204, Note_on_c, 9, 42, 0
8, 127204, Note_on_c, 9, 40, 0
8, 127204, Note_on_c, 9, 37, 0
8, 127440, Note_on_c, 9, 39, 47
8, 127444, Note_on_c, 9, 39, 0
8, 127520, Note_on_c, 9, 37, 82
8, 127520, Note_on_c, 9, 35, 75
8, 127520, Note_on_c, 9, 42, 85
8, 127524, Note_on_c, 9, 37, 0
8, 127524, Note_on_c, 9, 35, 0
8, 127524, Note_on_c, 9, 42, 0
8, 127680, Note_on_c, 9, 42, 91
8, 127680, Note_on_c, 9, 37, 97
8, 127680, Note_on_c, 9, 35, 106
8, 127684, Note_on_c, 9, 42, 0
8, 127684, Note_on_c, 9, 37, 0
8, 127684, Note_on_c, 9, 35, 0
8, 128000, Note_on_c, 9, 42, 85
8, 128000, Note_on_c, 9, 37, 77
8, 128004, Note_on_c, 9, 42, 0
8, 128004, Note_on_c, 9, 37, 0
8, 128005, Note_on_c, 9, 39, 51
8, 128009, Note_on_c, 9, 39, 0
8, 128160, Note_on_c, 9, 37, 97
8, 128160, Note_on_c, 9, 42, 107
8, 128160, Note_on_c, 9, 39, 35
8, 128160, Note_on_c, 9, 40, 127
8, 128164, Note_on_c, 9, 37, 0
8, 128164, Note_on_c, 9, 42, 0
8, 128164, Note_on_c, 9, 39, 0
8, 128164, Note_on_c, 9, 40, 0
8, 128480, Note_on_c, 9, 42, 77
8, 128480, Note_on_c, 9, 37, 81
8, 128484, Note_on_c, 9, 42, 0
8, 128484, Note_on_c, 9, 37, 0
8, 128640, Note_on_c, 9, 37, 107
8, 128640, Note_on_c, 9, 42, 119
8, 128640, Note_on_c, 9, 35, 120
8, 128644, Note_on_c, 9, 37, 0
8, 128644, Note_on_c, 9, 42, 0
8, 128644, Note_on_c, 9, 35, 0
8, 128880, Note_on_c, 9, 39, 57
8, 128884, Note_on_c, 9, 39, 0
8, 128960, Note_on_c, 9, 37, 89
8, 128960, Note_on_c, 9, 42, 91
8, 128964, Note_on_c, 9, 37, 0
8, 128964, Note_on_c, 9, 42, 0
8, 129120, Note_on_c, 9, 42, 89
8, 129120, Note_on_c, 9, 40, 127
8, 129120, Note_on_c, 9, 37, 101
8, 129124, Note_on_c, 9, 42, 0
8, 129124, Note_on_c, 9, 40, 0
8, 129124, Note_on_c, 9, 37, 0
8, 129360, Note_on_c, 9, 39, 47
8, 129364, Note_on_c, 9, 39, 0
8, 129440, Note_on_c, 9, 42, 84
8, 129440, Note_on_c, 9, 37, 68
8, 129440, Note_on_c, 9, 35, 64
8, 129444, Note_on_c, 9, 42, 0
8, 129444, Note_on_c, 9, 37, 0
8, 129444, Note_on_c, 9, 35, 0
8, 129600, Note_on_c, 9, 35, 110
8, 129600, Note_on_c, 9, 37, 101
8, 129600, Note_on_c, 9, 42, 104
8, 129604, Note_on_c, 9, 35, 0
8, 129604, Note_on_c, 9, 37, 0
8, 129604, Note_on_c, 9, 42, 0
8, 129920, Note_on_c, 9, 37, 79
8, 129920, Note_on_c, 9, 42, 78
8, 129924, Note_on_c, 9, 37, 0
8, 129924, Note_on_c, 9, 42, 0
8, 129925, Note_on_c, 9, 39, 51
8, 129929, Note_on_c, 9, 39, 0
8, 130080, Note_on_c, 9, 40, 127
8, 130080, Note_on_c, 9, 37, 101
8, 130080, Note_on_c, 9, 39, 35
8, 130080, Note_on_c, 9, 42, 113
8, 130084, Note_on_c, 9, 40, 0
8, 130084, Note_on_c, 9, 37, 0
8, 130084, Note_on_c, 9, 39, 0
8, 130084, Note_on_c, 9, 42, 0
8, 130400, Note_on_c, 9, 37, 71
8, 130400, Note_on_c, 9, 42, 82
8, 130404, Note_on_c, 9, 37, 0
8, 130404, Note_on_c, 9, 42, 0
8, 130560, Note_on_c, 9, 35, 92
8, 130560, Note_on_c, 9, 37, 107
8, 130560, Note_on_c, 9, 42, 104
8, 130564, Note_on_c, 9, 35, 0
8, 130564, Note_on_c, 9, 37, 0
8, 130564, Note_on_c, 9, 42, 0
8, 130800, Note_on_c, 9, 39, 57
8, 130804, Note_on_c, 9, 39, 0
8, 130880, Note_on_c, 9, 37, 65
8, 130880, Note_on_c, 9, 42, 91
8, 130884, Note_on_c, 9, 37, 0
8, 130884, Note_on_c, 9, 42, 0
8, 131040, Note_on_c, 9, 42, 113
8, 131040, Note_on_c, 9, 40, 127
8, 131040, Note_on_c, 9, 37, 107
8, 131044, Note_on_c, 9, 42, 0
8, 131044, Note_on_c, 9, 40, 0
8, 131044, Note_on_c, 9, 37, 0
8, 131280, Note_on_c, 9, 39, 47
8, 131284, Note_on_c, 9, 39, 0
8, 131360, Note_on_c, 9, 42, 91
8, 131360, Note_on_c, 9, 35, 75
8, 131360, Note_on_c, 9, 37, 81
8, 131364, Note_on_c, 9, 42, 0
8, 131364, Note_on_c, 9, 35, 0
8, 131364, Note_on_c, 9, 37, 0
8, 131520, Note_on_c, 9, 35, 106
8, 131520, Note_on_c, 9, 42, 110
8, 131520, Note_on_c, 9, 37, 110
8, 131524, Note_on_c, 9, 35, 0
8, 131524, Note_on_c, 9, 42, 0
8, 131524, Note_on_c, 9, 37, 0
8, 131840, Note_on_c, 9, 42, 95
8, 131840, Note_on_c, 9, 37, 79
8, 131844, Note_on_c, 9, 42, 0
8, 131844, Note_on_c, 9, 37, 0
8, 131845, Note_on_c, 9, 39, 51
8, 131849, Note_on_c, 9, 39, 0
8, 132000, Note_on_c, 9, 37, 113
8, 132000, Note_on_c, 9, 39, 35
8, 132000, Note_on_c, 9, 40, 127
8, 132000, Note_on_c, 9, 42, 110
8, 132004, Note_on_c, 9, 37, 0
8, 132004, Note_on_c, 9, 39, 0
8, 132004, Note_on_c, 9, 40, 0
8, 132004, Note_on_c, 9, 42, 0
8, 132320, Note_on_c, 9, 42, 81
8, 132320, Note_on_c, 9, 37, 68
8, 132324, Note_on_c, 9, 42, 0
8, 132324, Note_on_c, 9, 37, 0
8, 132480, Note_on_c, 9, 37, 113
8, 132480, Note_on_c, 9, 35, 120
8, 132480, Note_on_c, 9, 42, 119
8, 132484, Note_on_c, 9, 37, 0
8, 132484, Note_on_c, 9, 35, 0
8, 132484, Note_on_c, 9, 42, 0
8, 132720, Note_on_c, 9, 39, 57
8, 132724, Note_on_c, 9, 39, 0
8, 132800, Note_on_c, 9, 42, 99
8, 132800, Note_on_c, 9, 37, 82
8, 132804, Note_on_c, 9, 42, 0
8, 132804, Note_on_c, 9, 37, 0
8, 132960, Note_on_c, 9, 40, 127
8, 132960, Note_on_c, 9, 42, 113
8, 132960, Note_on_c, 9, 37, 110
8, 132964, Note_on_c, 9, 40, 0
8, 132964, Note_on_c, 9, 42, 0
8, 132964, Note_on_c, 9, 37, 0
8, 133200, Note_on_c, 9, 39, 47
8, 133204, Note_on_c, 9, 39, 0
8, 133280, Note_on_c, 9, 42, 104
8, 133280, Note_on_c, 9, 35, 64
8, 133280, Note_on_c, 9, 37, 73
8, 133284, Note_on_c, 9, 42, 0
8, 133284, Note_on_c, 9, 35, 0
8, 133284, Note_on_c, 9, 37, 0
8, 133440, Note_on_c, 9, 35, 110
8, 133440, Note_on_c, 9, 37, 110
8, 133440, Note_on_c, 9, 42, 110
8, 133444, Note_on_c, 9, 35, 0
8, 133444, Note_on_c, 9, 37, 0
8, 133444, Note_on_c, 9, 42, 0
8, 133760, Note_on_c, 9, 37, 82
8, 133760, Note_on_c, 9, 42, 104
8, 133764, Note_on_c, 9, 37, 0
8, 133764, Note_on_c, 9, 42, 0
8, 133765, Note_on_c, 9, 39, 51
8, 133769, Note_on_c, 9, 39, 0
8, 133920, Note_on_c, 9, 42, 113
8, 133920, Note_on_c, 9, 39, 35
8, 133920, Note_on_c, 9, 37, 99
8, 133920, Note_on_c, 9, 40, 127
8, 133924, Note_on_c, 9, 42, 0
8, 133924, Note_on_c, 9, 39, 0
8, 133924, Note_on_c, 9, 37, 0
8, 133924, Note_on_c, 9, 40, 0
8, 134240, Note_on_c, 9, 37, 67
8, 134240, Note_on_c, 9, 42, 99
8, 134244, Note_on_c, 9, 37, 0
8, 134244, Note_on_c, 9, 42, 0
8, 134400, Note_on_c, 9, 37, 110
8, 134400, Note_on_c, 9, 35, 92
8, 134400, Note_on_c, 9, 42, 107
8, 134404, Note_on_c, 9, 37, 0
8, 134404, Note_on_c, 9, 35, 0
8, 134404, Note_on_c, 9, 42, 0
8, 134640, Note_on_c, 9, 39, 57
8, 134644, Note_on_c, 9, 39, 0
8, 134720, Note_on_c, 9, 37, 77
8, 134720, Note_on_c, 9, 42, 101
8, 134724, Note_on_c, 9, 37, 0
8, 134724, Note_on_c, 9, 42, 0
8, 134880, Note_on_c, 9, 42, 107
8, 134880, Note_on_c, 9, 37, 104
8, 134880, Note_on_c, 9, 40, 127
8, 134884, Note_on_c, 9, 42, 0
8, 134884, Note_on_c, 9, 37, 0
8, 134884, Note_on_c, 9, 40, 0
8, 135120, Note_on_c, 9, 39, 47
8, 135124, Note_on_c, 9, 39, 0
8, 135200, Note_on_c, 9, 37, 79
8, 135200, Note_on_c, 9, 35, 75
8, 135200, Note_on_c, 9, 42, 99
8, 135204, Note_on_c, 9, 37, 0
8, 135204, Note_on_c, 9, 35, 0
8, 135204, Note_on_c, 9, 42, 0
8, 135360, Note_on_c, 9, 35, 106
8, 135360, Note_on_c, 9, 42, 107
8, 135360, Note_on_c, 9, 37, 107
8, 135364, Note_on_c, 9, 35, 0
8, 135364, Note_on_c, 9, 42, 0
8, 135364, Note_on_c, 9, 37, 0
8, 135680, Note_on_c, 9, 37, 87
8, 135680, Note_on_c, 9, 42, 101
8, 135684, Note_on_c, 9, 37, 0
8, 135684, Note_on_c, 9, 42, 0
8, 135685, Note_on_c, 9, 39, 51
8, 135689, Note_on_c, 9, 39, 0
8, 135840, Note_on_c, 9, 37, 104
8, 135840, Note_on_c, 9, 39, 35
8, 135840, Note_on_c, 9, 40, 127
8, 135840, Note_on_c, 9, 42, 116
8, 135844, Note_on_c, 9, 37, 0
8, 135844, Note_on_c, 9, 39, 0
8, 135844, Note_on_c, 9, 40, 0
8, 135844, Note_on_c, 9, 42, 0
8, 136160, Note_on_c, 9, 42, 101
8, 136160, Note_on_c, 9, 37, 84
8, 136164, Note_on_c, 9, 42, 0
8, 136164, Note_on_c, 9, 37, 0
8, 136320, Note_on_c, 9, 37, 104
8, 136320, Note_on_c, 9, 35, 120
8, 136320, Note_on_c, 9, 42, 127
8, 136324, Note_on_c, 9, 37, 0
8, 136324, Note_on_c, 9, 35, 0
8, 136324, Note_on_c, 9, 42, 0
8, 136560, Note_on_c, 9, 39, 57
8, 136564, Note_on_c, 9, 39, 0
8, 136640, Note_on_c, 9, 37, 95
8, 136640, Note_on_c, 9, 42, 110
8, 136644, Note_on_c, 9, 37, 0
8, 136644, Note_on_c, 9, 42, 0
8, 136800, Note_on_c, 9, 40, 127
8, 136800, Note_on_c, 9, 37, 104
8, 136800, Note_on_c, 9, 42, 119
8, 136804, Note_on_c, 9, 40, 0
8, 136804, Note_on_c, 9, 37, 0
8, 136804, Note_on_c, 9, 42, 0
8, 137040, Note_on_c, 9, 39, 47
8, 137044, Note_on_c, 9, 39, 0
8, 137120, Note_on_c, 9, 37, 87
8, 137120, Note_on_c, 9, 42, 93
8, 137120, Note_on_c, 9, 35, 64
8, 137124, Note_on_c, 9, 37, 0
8, 137124, Note_on_c, 9, 42, 0
8, 137124, Note_on_c, 9, 35, 0
8, 137280, Note_on_c, 9, 37, 113
8, 137280, Note_on_c, 9, 35, 110
8, 137280, Note_on_c, 9, 42, 113
8, 137284, Note_on_c, 9, 37, 0
8, 137284, Note_on_c, 9, 35, 0
8, 137284, Note_on_c, 9, 42, 0
8, 137600, Note_on_c, 9, 42, 93
8, 137600, Note_on_c, 9, 37, 85
8, 137604, Note_on_c, 9, 42, 0
8, 137604, Note_on_c, 9, 37, 0
8, 137605, Note_on_c, 9, 39, 51
8, 137609, Note_on_c, 9, 39, 0
8, 137760, Note_on_c, 9, 42, 119
8, 137760, Note_on_c, 9, 40, 127
8, 137760, Note_on_c, 9, 37, 113
8, 137760, Note_on_c, 9, 39, 35
8, 137764, Note_on_c, 9, 42, 0
8, 137764, Note_on_c, 9, 40, 0
8, 137764, Note_on_c, 9, 37, 0
8, 137764, Note_on_c, 9, 39, 0
8, 138080, Note_on_c, 9, 37, 104
8, 138080, Note_on_c, 9, 42, 93
8, 138084, Note_on_c, 9, 37, 0
8, 138084, Note_on_c, 9, 42, 0
8, 138240, Note_on_c, 9, 42, 107
8, 138240, Note_on_c, 9, 35, 92
8, 138240, Note_on_c, 9, 37, 113
8, 138244, Note_on_c, 9, 42, 0
8, 138244, Note_on_c, 9, 35, 0
8, 138244, Note_on_c, 9, 37, 0
8, 138480, Note_on_c, 9, 39, 57
8, 138484, Note_on_c, 9, 39, 0
8, 138560, Note_on_c, 9, 37, 91
8, 138560, Note_on_c, 9, 42, 101
8, 138564, Note_on_c, 9, 37, 0
8, 138564, Note_on_c, 9, 42, 0
8, 138720, Note_on_c, 9, 40, 127
8, 138720, Note_on_c, 9, 37, 107
8, 138720, Note_on_c, 9, 42, 119
8, 138724, Note_on_c, 9, 40, 0
8, 138724, Note_on_c, 9, 37, 0
8, 138724, Note_on_c, 9, 42, 0
8, 138960, Note_on_c, 9, 39, 47
8, 138964, Note_on_c, 9, 39, 0
8, 139040, Note_on_c, 9, 37, 99
8, 139040, Note_on_c, 9, 42, 85
8, 139040, Note_on_c, 9, 35, 75
8, 139044, Note_on_c, 9, 37, 0
8, 139044, Note_on_c, 9, 42, 0
8, 139044, Note_on_c, 9, 35, 0
8, 139200, Note_on_c, 9, 37, 113
8, 139200, Note_on_c, 9, 42, 91
8, 139200, Note_on_c, 9, 35, 106
8, 139204, Note_on_c, 9, 37, 0
8, 139204, Note_on_c, 9, 42, 0
8, 139204, Note_on_c, 9, 35, 0
8, 139520, Note_on_c, 9, 37, 93
8, 139520, Note_on_c, 9, 42, 85
8, 139524, Note_on_c, 9, 37, 0
8, 139524, Note_on_c, 9, 42, 0
8, 139525, Note_on_c, 9, 39, 51
8, 139529, Note_on_c, 9, 39, 0
8, 139680, Note_on_c, 9, 37, 113
8, 139680, Note_on_c, 9, 39, 35
8, 139680, Note_on_c, 9, 42, 107
8, 139680, Note_on_c, 9, 40, 127
8, 139684, Note_on_c, 9, 37, 0
8, 139684, Note_on_c, 9, 39, 0
8, 139684, Note_on_c, 9, 42, 0
8, 139684, Note_on_c, 9, 40, 0
8, 140000, Note_on_c, 9, 37, 104
8, 140000, Note_on_c, 9, 42, 77
8, 140004, Note_on_c, 9, 37, 0
8, 140004, Note_on_c, 9, 42, 0
8, 140160, Note_on_c, 9, 35, 120
8, 140160, Note_on_c, 9, 37, 78
8, 140160, Note_on_c, 9, 42, 119
8, 140164, Note_on_c, 9, 35, 0
8, 140164, Note_on_c, 9, 37, 0
8, 140164, Note_on_c, 9, 42, 0
8, 140400, Note_on_c, 9, 39, 57
8, 140404, Note_on_c, 9, 39, 0
8, 140480, Note_on_c, 9, 42, 91
8, 140480, Note_on_c, 9, 37, 78
8, 140484, Note_on_c, 9, 42, 0
8, 140484, Note_on_c, 9, 37, 0
8, 140640, Note_on_c, 9, 42, 89
8, 140640, Note_on_c, 9, 40, 127
8, 140640, Note_on_c, 9, 37, 107
8, 140644, Note_on_c, 9, 42, 0
8, 140644, Note_on_c, 9, 40, 0
8, 140644, Note_on_c, 9, 37, 0
8, 140880, Note_on_c, 9, 39, 47
8, 140884, Note_on_c, 9, 39, 0
8, 140960, Note_on_c, 9, 35, 64
8, 140960, Note_on_c, 9, 37, 81
8, 140960, Note_on_c, 9, 42, 84
8, 140964, Note_on_c, 9, 35, 0
8, 140964, Note_on_c, 9, 37, 0
8, 140964, Note_on_c, 9, 42, 0
8, 141120, Note_on_c, 9, 42, 104
8, 141120, Note_on_c, 9, 37, 89
8, 141120, Note_on_c, 9, 35, 110
8, 141124, Note_on_c, 9, 42, 0
8, 141124, Note_on_c, 9, 37, 0
8, 141124, Note_on_c, 9, 35, 0
8, 141440, Note_on_c, 9, 37, 54
8, 141440, Note_on_c, 9, 42, 78
8, 141444, Note_on_c, 9, 37, 0
8, 141444, Note_on_c, 9, 42, 0
8, 141445, Note_on_c, 9, 39, 51
8, 141449, Note_on_c, 9, 39, 0
8, 141600, Note_on_c, 9, 42, 113
8, 141600, Note_on_c, 9, 40, 127
8, 141600, Note_on_c, 9, 37, 82
8, 141600, Note_on_c, 9, 39, 35
8, 141604, Note_on_c, 9, 42, 0
8, 141604, Note_on_c, 9, 40, 0
8, 141604, Note_on_c, 9, 37, 0
8, 141604, Note_on_c, 9, 39, 0
8, 141920, Note_on_c, 9, 37, 73
8, 141920, Note_on_c, 9, 42, 82
8, 141924, Note_on_c, 9, 37, 0
8, 141924, Note_on_c, 9, 42, 0
8, 142080, Note_on_c, 9, 37, 107
8, 142080, Note_on_c, 9, 42, 104
8, 142080, Note_on_c, 9, 35, 92
8, 142084, Note_on_c, 9, 37, 0
8, 142084, Note_on_c, 9, 42, 0
8, 142084, Note_on_c, 9, 35, 0
8, 142320, Note_on_c, 9, 39, 57
8, 142324, Note_on_c, 9, 39, 0
8, 142400, Note_on_c, 9, 42, 91
8, 142400, Note_on_c, 9, 37, 79
8, 142404, Note_on_c, 9, 42, 0
8, 142404, Note_on_c, 9, 37, 0
8, 142560, Note_on_c, 9, 40, 127
8, 142560, Note_on_c, 9, 37, 95
8, 142560, Note_on_c, 9, 42, 113
8, 142564, Note_on_c, 9, 40, 0
8, 142564, Note_on_c, 9, 37, 0
8, 142564, Note_on_c, 9, 42, 0
8, 142800, Note_on_c, 9, 39, 47
8, 142804, Note_on_c, 9, 39, 0
8, 142880, Note_on_c, 9, 35, 75
8, 142880, Note_on_c, 9, 42, 91
8, 142880, Note_on_c, 9, 37, 82
8, 142884, Note_on_c, 9, 35, 0
8, 142884, Note_on_c, 9, 42, 0
8, 142884, Note_on_c, 9, 37, 0
8, 143040, Note_on_c, 9, 37, 97
8, 143040, Note_on_c, 9, 35, 106
8, 143040, Note_on_c, 9, 42, 110
8, 143044, Note_on_c, 9, 37, 0
8, 143044, Note_on_c, 9, 35, 0
8, 143044, Note_on_c, 9, 42, 0
8, 143360, Note_on_c, 9, 37, 77
8, 143360, Note_on_c, 9, 42, 95
8, 143364, Note_on_c, 9, 37, 0
8, 143364, Note_on_c, 9, 42, 0
8, 143365, Note_on_c, 9, 39, 51
8, 143369, Note_on_c, 9, 39, 0
8, 143520, Note_on_c, 9, 37, 97
8, 143520, Note_on_c, 9, 39, 35
8, 143520, Note_on_c, 9, 40, 127
8, 143520, Note_on_c, 9, 42, 110
8, 143524, Note_on_c, 9, 37, 0
8, 143524, Note_on_c, 9, 39, 0
8, 143524, Note_on_c, 9, 40, 0
8, 143524, Note_on_c, 9, 42, 0
8, 143840, Note_on_c, 9, 42, 81
8, 143840, Note_on_c, 9, 37, 81
8, 143844, Note_on_c, 9, 42, 0
8, 143844, Note_on_c, 9, 37, 0
8, 144000, Note_on_c, 9, 35, 120
8, 144000, Note_on_c, 9, 37, 107
8, 144000, Note_on_c, 9, 42, 119
8, 144004, Note_on_c, 9, 35, 0
8, 144004, Note_on_c, 9, 37, 0
8, 144004, Note_on_c, 9, 42, 0
8, 144240, Note_on_c, 9, 39, 57
8, 144244, Note_on_c, 9, 39, 0
8, 144320, Note_on_c, 9, 37, 89
8, 144320, Note_on_c, 9, 42, 99
8, 144324, Note_on_c, 9, 37, 0
8, 144324, Note_on_c, 9, 42, 0
8, 144480, Note_on_c, 9, 37, 101
8, 144480, Note_on_c, 9, 42, 113
8, 144480, Note_on_c, 9, 40, 127
8, 144484, Note_on_c, 9, 37, 0
8, 144484, Note_on_c, 9, 42, 0
8, 144484, Note_on_c, 9, 40, 0
8, 144720, Note_on_c, 9, 39, 47
8, 144724, Note_on_c, 9, 39, 0
8, 144800, Note_on_c, 9, 35, 64
8, 144800, Note_on_c, 9, 42, 104
8, 144800, Note_on_c, 9, 37, 68
8, 144804, Note_on_c, 9, 35, 0
8, 144804, Note_on_c, 9, 42, 0
8, 144804, Note_on_c, 9, 37, 0
8, 144960, Note_on_c, 9, 35, 110
8, 144960, Note_on_c, 9, 42, 110
8, 144960, Note_on_c, 9, 37, 101
8, 144964, Note_on_c, 9, 35, 0
8, 144964, Note_on_c, 9, 42, 0
8, 144964, Note_on_c, 9, 37, 0
8, 145280, Note_on_c, 9, 37, 79
8, 145280, Note_on_c, 9, 42, 104
8, 145284, Note_on_c, 9, 37, 0
8, 145284, Note_on_c, 9, 42, 0
8, 145285, Note_on_c, 9, 39, 51
8, 145289, Note_on_c, 9, 39, 0
8, 145440, Note_on_c, 9, 37, 101
8, 145440, Note_on_c, 9, 42, 113
8, 145440, Note_on_c, 9, 40, 127
8, 145440, Note_on_c, 9, 39, 35
8, 145444, Note_on_c, 9, 37, 0
8, 145444, Note_on_c, 9, 42, 0
8, 145444, Note_on_c, 9, 40, 0
8, 145444, Note_on_c, 9, 39, 0
8, 145760, Note_on_c, 9, 42, 99
8, 145760, Note_on_c, 9, 37, 71
8, 145764, Note_on_c, 9, 42, 0
8, 145764, Note_on_c, 9, 37, 0
8, 145920, Note_on_c, 9, 35, 92
8, 145920, Note_on_c, 9, 42, 107
8, 145920, Note_on_c, 9, 37, 107
8, 145920, Note_on_c, 9, 40, 127
8, 145924, Note_on_c, 9, 35, 0
8, 145924, Note_on_c, 9, 42, 0
8, 145924, Note_on_c, 9, 37, 0
8, 145924, Note_on_c, 9, 40, 0
8, 147840, Note_on_c, 9, 35, 120
8, 147840, Note_on_c, 9, 42, 127
8, 147840, Note_on_c, 9, 37, 113
8, 147844, Note_on_c, 9, 35, 0
8, 147844, Note_on_c, 9, 42, 0
8, 147844, Note_on_c, 9, 37, 0
8, 148080, Note_on_c, 9, 39, 57
8, 148084, Note_on_c, 9, 39, 0
8, 148160, Note_on_c, 9, 42, 110
8, 148160, Note_on_c, 9, 37, 82
8, 148164, Note_on_c, 9, 42, 0
8, 148164, Note_on_c, 9, 37, 0
8, 148320, Note_on_c, 9, 37, 110
8, 148320, Note_on_c, 9, 42, 119
8, 148320, Note_on_c, 9, 40, 127
8, 148324, Note_on_c, 9, 37, 0
8, 148324, Note_on_c, 9, 42, 0
8, 148324, Note_on_c, 9, 40, 0
8, 148560, Note_on_c, 9, 39, 47
8, 148564, Note_on_c, 9, 39, 0
8, 148640, Note_on_c, 9, 35, 64
8, 148640, Note_on_c, 9, 42, 93
8, 148640, Note_on_c, 9, 37, 73
8, 148644, Note_on_c, 9, 35, 0
8, 148644, Note_on_c, 9, 42, 0
8, 148644, Note_on_c, 9, 37, 0
8, 148800, Note_on_c, 9, 37, 110
8, 148800, Note_on_c, 9, 42, 113
8, 148800, Note_on_c, 9, 35, 110
8, 148804, Note_on_c, 9, 37, 0
8, 148804, Note_on_c, 9, 42, 0
8, 148804, Note_on_c, 9, 35, 0
8, 149120, Note_on_c, 9, 37, 82
8, 149120, Note_on_c, 9, 42, 93
8, 149124, Note_on_c, 9, 37, 0
8, 149124, Note_on_c, 9, 42, 0
8, 149125, Note_on_c, 9, 39, 51
8, 149129, Note_on_c, 9, 39, 0
8, 149280, Note_on_c, 9, 39, 35
8, 149280, Note_on_c, 9, 37, 99
8, 149280, Note_on_c, 9, 42, 119
8, 149280, Note_on_c, 9, 40, 127
8, 149284, Note_on_c, 9, 39, 0
8, 149284, Note_on_c, 9, 37, 0
8, 149284, Note_on_c, 9, 42, 0
8, 149284, Note_on_c, 9, 40, 0
8, 149600, Note_on_c, 9, 42, 93
8, 149600, Note_on_c, 9, 37, 67
8, 149604, Note_on_c, 9, 42, 0
8, 149604, Note_on_c, 9, 37, 0
8, 149760, Note_on_c, 9, 37, 110
8, 149760, Note_on_c, 9, 35, 92
8, 149760, Note_on_c, 9, 42, 107
8, 149764, Note_on_c, 9, 37, 0
8, 149764, Note_on_c, 9, 35, 0
8, 149764, Note_on_c, 9, 42, 0
8, 150000, Note_on_c, 9, 39, 57
8, 150004, Note_on_c, 9, 39, 0
8, 150080, Note_on_c, 9, 42, 101
8, 150080, Note_on_c, 9, 37, 77
8, 150084, Note_on_c, 9, 42, 0
8, 150084, Note_on_c, 9, 37, 0
8, 150240, Note_on_c, 9, 37, 104
8, 150240, Note_on_c, 9, 40, 127
8, 150240, Note_on_c, 9, 42, 119
8, 150244, Note_on_c, 9, 37, 0
8, 150244, Note_on_c, 9, 40, 0
8, 150244, Note_on_c, 9, 42, 0
8, 150480, Note_on_c, 9, 39, 47
8, 150484, Note_on_c, 9, 39, 0
8, 150560, Note_on_c, 9, 37, 79
8, 150560, Note_on_c, 9, 42, 85
8, 150560, Note_on_c, 9, 35, 75
8, 150564, Note_on_c, 9, 37, 0
8, 150564, Note_on_c, 9, 42, 0
8, 150564, Note_on_c, 9, 35, 0
8, 150720, Note_on_c, 9, 42, 91
8, 150720, Note_on_c, 9, 37, 107
8, 150720, Note_on_c, 9, 35, 106
8, 150724, Note_on_c, 9, 42, 0
8, 150724, Note_on_c, 9, 37, 0
8, 150724, Note_on_c, 9, 35, 0
8, 151040, Note_on_c, 9, 42, 85
8, 151040, Note_on_c, 9, 37, 87
8, 151044, Note_on_c, 9, 42, 0
8, 151044, Note_on_c, 9, 37, 0
8, 151045, Note_on_c, 9, 39, 51
8, 151049, Note_on_c, 9, 39, 0
8, 151200, Note_on_c, 9, 39, 35
8, 151200, Note_on_c, 9, 37, 104
8, 151200, Note_on_c, 9, 42, 107
8, 151200, Note_on_c, 9, 40, 127
8, 151204, Note_on_c, 9, 39, 0
8, 151204, Note_on_c, 9, 37, 0
8, 151204, Note_on_c, 9, 42, 0
8, 151204, Note_on_c, 9, 40, 0
8, 151520, Note_on_c, 9, 37, 84
8, 151520, Note_on_c, 9, 42, 77
8, 151524, Note_on_c, 9, 37, 0
8, 151524, Note_on_c, 9, 42, 0
8, 151680, Note_on_c, 9, 35, 120
8, 151680, Note_on_c, 9, 37, 113
8, 151680, Note_on_c, 9, 42, 127
8, 151684, Note_on_c, 9, 35, 0
8, 151684, Note_on_c, 9, 37, 0
8, 151684, Note_on_c, 9, 42, 0
8, 151920, Note_on_c, 9, 39, 57
8, 151924, Note_on_c, 9, 39, 0
8, 152000, Note_on_c, 9, 37, 82
8, 152000, Note_on_c, 9, 42, 110
8, 152004, Note_on_c, 9, 37, 0
8, 152004, Note_on_c, 9, 42, 0
8, 152160, Note_on_c, 9, 40, 127
8, 152160, Note_on_c, 9, 42, 119
8, 152160, Note_on_c, 9, 37, 110
8, 152164, Note_on_c, 9, 40, 0
8, 152164, Note_on_c, 9, 42, 0
8, 152164, Note_on_c, 9, 37, 0
8, 152400, Note_on_c, 9, 39, 47
8, 152404, Note_on_c, 9, 39, 0
8, 152480, Note_on_c, 9, 42, 93
8, 152480, Note_on_c, 9, 37, 73
8, 152480, Note_on_c, 9, 35, 64
8, 152484, Note_on_c, 9, 42, 0
8, 152484, Note_on_c, 9, 37, 0
8, 152484, Note_on_c, 9, 35, 0
8, 152640, Note_on_c, 9, 42, 113
8, 152640, Note_on_c, 9, 37, 110
8, 152640, Note_on_c, 9, 35, 110
8, 152644, Note_on_c, 9, 42, 0
8, 152644, Note_on_c, 9, 37, 0
8, 152644, Note_on_c, 9, 35, 0
8, 152960, Note_on_c, 9, 42, 93
8, 152960, Note_on_c, 9, 37, 82
8, 152964, Note_on_c, 9, 42, 0
8, 152964, Note_on_c, 9, 37, 0
8, 152965, Note_on_c, 9, 39, 51
8, 152969, Note_on_c, 9, 39, 0
8, 153120, Note_on_c, 9, 39, 35
8, 153120, Note_on_c, 9, 37, 99
8, 153120, Note_on_c, 9, 42, 119
8, 153120, Note_on_c, 9, 40, 127
8, 153124, Note_on_c, 9, 39, 0
8, 153124, Note_on_c, 9, 37, 0
8, 153124, Note_on_c, 9, 42, 0
8, 153124, Note_on_c, 9, 40, 0
8, 153440, Note_on_c, 9, 42, 93
8, 153440, Note_on_c, 9, 37, 67
8, 153444, Note_on_c, 9, 42, 0
8, 153444, Note_on_c, 9, 37, 0
8, 153600, Note_on_c, 9, 42, 107
8, 153600, Note_on_c, 9, 35, 92
8, 153600, Note_on_c, 9, 37, 110
8, 153604, Note_on_c, 9, 42, 0
8, 153604, Note_on_c, 9, 35, 0
8, 153604, Note_on_c, 9, 37, 0
8, 153840, Note_on_c, 9, 39, 57
8, 153844, Note_on_c, 9, 39, 0
8, 153920, Note_on_c, 9, 42, 101
8, 153920, Note_on_c, 9, 37, 77
8, 153924, Note_on_c, 9, 42, 0
8, 153924, Note_on_c, 9, 37, 0
8, 154080, Note_on_c, 9, 40, 127
8, 154080, Note_on_c, 9, 37, 104
8, 154080, Note_on_c, 9, 42, 119
8, 154084, Note_on_c, 9, 40, 0
8, 154084, Note_on_c, 9, 37, 0
8, 154084, Note_on_c, 9, 42, 0
8, 154320, Note_on_c, 9, 39, 47
8, 154324, Note_on_c, 9, 39, 0
8, 154400, Note_on_c, 9, 37, 79
8, 154400, Note_on_c, 9, 42, 85
8, 154400, Note_on_c, 9, 35, 75
8, 154404, Note_on_c, 9, 37, 0
8, 154404, Note_on_c, 9, 42, 0
8, 154404, Note_on_c, 9, 35, 0
8, 154560, Note_on_c, 9, 37, 107
8, 154560, Note_on_c, 9, 42, 91
8, 154560, Note_on_c, 9, 35, 106
8, 154564, Note_on_c, 9, 37, 0
8, 154564, Note_on_c, 9, 42, 0
8, 154564, Note_on_c, 9, 35, 0
8, 154880, Note_on_c, 9, 42, 85
8, 154880, Note_on_c, 9, 37, 87
8, 154884, Note_on_c, 9, 42, 0
8, 154884, Note_on_c, 9, 37, 0
8, 154885, Note_on_c, 9, 39, 51
8, 154889, Note_on_c, 9, 39, 0
8, 155040, Note_on_c, 9, 42, 107
8, 155040, Note_on_c, 9, 40, 127
8, 155040, Note_on_c, 9, 39, 35
8, 155040, Note_on_c, 9, 37, 104
8, 155044, Note_on_c, 9, 42, 0
8, 155044, Note_on_c, 9, 40, 0
8, 155044, Note_on_c, 9, 39, 0
8, 155044, Note_on_c, 9, 37, 0
8, 155360, Note_on_c, 9, 37, 84
8, 155360, Note_on_c, 9, 42, 77
8, 155364, Note_on_c, 9, 37, 0
8, 155364, Note_on_c, 9, 42, 0
8, 155520, Note_on_c, 9, 35, 120
8, 155520, Note_on_c, 9, 37, 107
8, 155520, Note_on_c, 9, 42, 119
8, 155524, Note_on_c, 9, 35, 0
8, 155524, Note_on_c, 9, 37, 0
8, 155524, Note_on_c, 9, 42, 0
8, 155760, Note_on_c, 9, 39, 57
8, 155764, Note_on_c, 9, 39, 0
8, 155840, Note_on_c, 9, 42, 99
8, 155840, Note_on_c, 9, 37, 89
8, 155844, Note_on_c, 9, 42, 0
8, 155844, Note_on_c, 9, 37, 0
8, 156000, Note_on_c, 9, 37, 101
8, 156000, Note_on_c, 9, 40, 127
8, 156000, Note_on_c, 9, 42, 113
8, 156004, Note_on_c, 9, 37, 0
8, 156004, Note_on_c, 9, 40, 0
8, 156004, Note_on_c, 9, 42, 0
8, 156240, Note_on_c, 9, 39, 47
8, 156244, Note_on_c, 9, 39, 0
8, 156320, Note_on_c, 9, 42, 104
8, 156320, Note_on_c, 9, 35, 64
8, 156320, Note_on_c, 9, 37, 68
8, 156324, Note_on_c, 9, 42, 0
8, 156324, Note_on_c, 9, 35, 0
8, 156324, Note_on_c, 9, 37, 0
8, 156480, Note_on_c, 9, 42, 110
8, 156480, Note_on_c, 9, 35, 110
8, 156480, Note_on_c, 9, 37, 101
8, 156484, Note_on_c, 9, 42, 0
8, 156484, Note_on_c, 9, 35, 0
8, 156484, Note_on_c, 9, 37, 0
8, 156800, Note_on_c, 9, 37, 79
8, 156800, Note_on_c, 9, 42, 104
8, 156804, Note_on_c, 9, 37, 0
8, 156804, Note_on_c, 9, 42, 0
8, 156805, Note_on_c, 9, 39, 51
8, 156809, Note_on_c, 9, 39, 0
8, 156960, Note_on_c, 9, 40, 127
8, 156960, Note_on_c, 9, 42, 113
8, 156960, Note_on_c, 9, 37, 101
8, 156960, Note_on_c, 9, 39, 35
8, 156964, Note_on_c, 9, 40, 0
8, 156964, Note_on_c, 9, 42, 0
8, 156964, Note_on_c, 9, 37, 0
8, 156964, Note_on_c, 9, 39, 0
8, 157280, Note_on_c, 9, 37, 71
8, 157280, Note_on_c, 9, 42, 99
8, 157284, Note_on_c, 9, 37, 0
8, 157284, Note_on_c, 9, 42, 0
8, 157440, Note_on_c, 9, 42, 119
8, 157440, Note_on_c, 9, 35, 92
8, 157440, Note_on_c, 9, 37, 107
8, 157444, Note_on_c, 9, 42, 0
8, 157444, Note_on_c, 9, 35, 0
8, 157444, Note_on_c, 9, 37, 0
8, 157680, Note_on_c, 9, 39, 57
8, 157684, Note_on_c, 9, 39, 0
8, 157760, Note_on_c, 9, 37, 65
8, 157760, Note_on_c, 9, 42, 99
8, 157764, Note_on_c, 9, 37, 0
8, 157764, Note_on_c, 9, 42, 0
8, 157920, Note_on_c, 9, 42, 113
8, 157920, Note_on_c, 9, 37, 107
8, 157920, Note_on_c, 9, 40, 127
8, 157924, Note_on_c, 9, 42, 0
8, 157924, Note_on_c, 9, 37, 0
8, 157924, Note_on_c, 9, 40, 0
8, 158160, Note_on_c, 9, 39, 47
8, 158164, Note_on_c, 9, 39, 0
8, 158240, Note_on_c, 9, 35, 75
8, 158240, Note_on_c, 9, 37, 81
8, 158240, Note_on_c, 9, 42, 104
8, 158244, Note_on_c, 9, 35, 0
8, 158244, Note_on_c, 9, 37, 0
8, 158244, Note_on_c, 9, 42, 0
8, 158400, Note_on_c, 9, 42, 110
8, 158400, Note_on_c, 9, 37, 110
8, 158400, Note_on_c, 9, 35, 106
8, 158404, Note_on_c, 9, 42, 0
8, 158404, Note_on_c, 9, 37, 0
8, 158404, Note_on_c, 9, 35, 0
8, 158720, Note_on_c, 9, 37, 79
8, 158720, Note_on_c, 9, 42, 104
8, 158724, Note_on_c, 9, 37, 0
8, 158724, Note_on_c, 9, 42, 0
8, 158725, Note_on_c, 9, 39, 51
8, 158729, Note_on_c, 9, 39, 0
8, 158880, Note_on_c, 9, 40, 127
8, 158880, Note_on_c, 9, 39, 35
8, 158880, Note_on_c, 9, 37, 113
8, 158880, Note_on_c, 9, 42, 113
8, 158884, Note_on_c, 9, 40, 0
8, 158884, Note_on_c, 9, 39, 0
8, 158884, Note_on_c, 9, 37, 0
8, 158884, Note_on_c, 9, 42, 0
8, 159200, Note_on_c, 9, 42, 99
8, 159200, Note_on_c, 9, 37, 68
8, 159204, Note_on_c, 9, 42, 0
8, 159204, Note_on_c, 9, 37, 0
8, 159360, Note_on_c, 9, 35, 120
8, 159360, Note_on_c, 9, 37, 113
8, 159360, Note_on_c, 9, 42, 107
8, 159364, Note_on_c, 9, 35, 0
8, 159364, Note_on_c, 9, 37, 0
8, 159364, Note_on_c, 9, 42, 0
8, 159374, Note_on_c, 9, 39, 57
8, 159378, Note_on_c, 9, 39, 0
8, 159380, Note_on_c, 9, 40, 127
8, 159384, Note_on_c, 9, 40, 0
8, 159384, End_track
0, 0, End_of_file
