0, 0, Header, 0, 1, 96
1, 0, Start_track
1, 0, Title_t, "TRULY                           ;Words and music by Lionel Richie"
1, 0, Copyright_t, "(C) 1994 Tune 1000 Corporation  ;Brockman Music/Brenda Richie Publishing Co."
1, 0, Time_signature, 4, 2, 24, 8
1, 0, Tempo, 857143
1, 0, Key_signature, -5, "major"
1, 0, System_exclusive, 5, 126, 127, 9, 1, 247
1, 0, Lyric_t, "ALL rights reserved. Not for broadcast or "
1, 0, Lyric_t, "\015"
1, 0, Lyric_t, "transmission of any kind. "
1, 0, Lyric_t, "\015"
1, 0, Lyric_t, "DO NOT DUPLICATE. NOT FOR RENTAL. "
1, 0, Lyric_t, "\015"
1, 98, Program_c, 0, 0
1, 99, Control_c, 0, 7, 105
1, 99, Control_c, 0, 10, 60
1, 99, Control_c, 0, 11, 127
1, 100, Control_c, 0, 91, 65
1, 100, Control_c, 0, 93, 20
1, 103, Program_c, 1, 35
1, 104, Control_c, 1, 7, 105
1, 104, Control_c, 1, 10, 64
1, 104, Control_c, 1, 11, 127
1, 105, Control_c, 1, 91, 30
1, 105, Control_c, 1, 93, 30
1, 108, Program_c, 2, 25
1, 109, Control_c, 2, 7, 65
1, 109, Control_c, 2, 10, 107
1, 109, Control_c, 2, 11, 127
1, 110, Control_c, 2, 91, 69
1, 110, Control_c, 2, 93, 20
1, 113, Program_c, 3, 4
1, 114, Control_c, 3, 7, 100
1, 114, Control_c, 3, 10, 64
1, 114, Control_c, 3, 11, 127
1, 115, Control_c, 3, 91, 65
1, 115, Control_c, 3, 93, 10
1, 118, Program_c, 5, 60
1, 119, Control_c, 5, 7, 90
1, 119, Control_c, 5, 10, 86
1, 119, Control_c, 5, 11, 127
1, 120, Control_c, 5, 91, 65
1, 120, Control_c, 5, 93, 20
1, 123, Program_c, 6, 88
1, 124, Control_c, 6, 7, 95
1, 124, Control_c, 6, 10, 56
1, 124, Control_c, 6, 11, 127
1, 125, Control_c, 6, 91, 50
1, 125, Control_c, 6, 93, 0
1, 128, Program_c, 7, 48
1, 129, Control_c, 7, 7, 105
1, 129, Control_c, 7, 10, 51
1, 129, Control_c, 7, 11, 127
1, 130, Control_c, 7, 91, 65
1, 130, Control_c, 7, 93, 0
1, 133, Program_c, 8, 46
1, 134, Control_c, 8, 7, 60
1, 134, Control_c, 8, 10, 27
1, 134, Control_c, 8, 11, 127
1, 135, Control_c, 8, 91, 70
1, 135, Control_c, 8, 93, 0
1, 139, Control_c, 9, 7, 105
1, 139, Control_c, 9, 11, 127
1, 140, Control_c, 9, 91, 60
1, 140, Control_c, 9, 93, 0
1, 143, Program_c, 10, 73
1, 144, Control_c, 10, 7, 105
1, 144, Control_c, 10, 10, 33
1, 144, Control_c, 10, 11, 127
1, 145, Control_c, 10, 91, 90
1, 145, Control_c, 10, 93, 0
1, 148, Program_c, 11, 26
1, 149, Control_c, 11, 7, 65
1, 149, Control_c, 11, 10, 37
1, 149, Control_c, 11, 11, 127
1, 150, Control_c, 11, 91, 70
1, 150, Control_c, 11, 93, 40
1, 384, Time_signature, 4, 2, 24, 8
1, 384, Note_on_c, 0, 61, 92
1, 384, Note_on_c, 0, 68, 79
1, 385, Control_c, 0, 1, 0
1, 385, Pitch_bend_c, 0, 8192
1, 386, Note_on_c, 0, 73, 87
1, 387, Note_on_c, 0, 75, 92
1, 389, Note_on_c, 0, 80, 107
1, 389, Control_c, 0, 64, 127
1, 427, Note_off_c, 0, 80, 64
1, 438, Note_on_c, 0, 80, 96
1, 469, Note_off_c, 0, 80, 64
1, 486, Note_on_c, 0, 80, 99
1, 512, Note_off_c, 0, 73, 64
1, 514, Note_off_c, 0, 80, 64
1, 519, Note_off_c, 0, 61, 64
1, 520, Note_off_c, 0, 68, 64
1, 524, Note_off_c, 0, 75, 64
1, 531, Note_on_c, 0, 75, 69
1, 531, Note_on_c, 0, 80, 87
1, 532, Note_on_c, 0, 72, 89
1, 532, Control_c, 0, 64, 0
1, 533, Note_on_c, 0, 68, 81
1, 535, Note_on_c, 0, 61, 95
1, 565, Control_c, 0, 64, 127
1, 768, Time_signature, 2, 2, 24, 8
1, 901, Note_off_c, 0, 72, 64
1, 901, Note_off_c, 0, 75, 64
1, 904, Note_off_c, 0, 61, 64
1, 904, Note_off_c, 0, 80, 64
1, 907, Note_off_c, 0, 68, 64
1, 909, Control_c, 0, 64, 0
1, 953, Note_on_c, 0, 61, 98
1, 954, Note_on_c, 0, 68, 92
1, 955, Note_on_c, 0, 73, 86
1, 956, Note_on_c, 0, 75, 93
1, 960, Time_signature, 4, 2, 24, 8
1, 963, Note_on_c, 0, 80, 109
1, 982, Control_c, 0, 64, 127
1, 998, Note_off_c, 0, 80, 64
1, 1010, Note_on_c, 0, 80, 103
1, 1038, Note_off_c, 0, 80, 64
1, 1058, Note_on_c, 0, 80, 106
1, 1091, Note_off_c, 0, 80, 64
1, 1099, Note_off_c, 0, 61, 64
1, 1099, Control_c, 0, 64, 0
1, 1101, Note_off_c, 0, 73, 64
1, 1103, Note_off_c, 0, 68, 64
1, 1103, Note_off_c, 0, 75, 64
1, 1107, Note_on_c, 0, 75, 92
1, 1108, Note_on_c, 0, 80, 92
1, 1109, Note_on_c, 0, 68, 80
1, 1109, Note_on_c, 0, 61, 94
1, 1109, Note_on_c, 0, 72, 98
1, 1110, Control_c, 0, 64, 127
1, 1316, Lyric_t, "\012"
1, 1344, Time_signature, 2, 2, 24, 8
1, 1498, Control_c, 0, 64, 0
1, 1515, Note_off_c, 0, 72, 64
1, 1515, Note_off_c, 0, 68, 64
1, 1515, Note_off_c, 0, 75, 64
1, 1516, Note_off_c, 0, 80, 64
1, 1518, Note_off_c, 0, 61, 64
1, 1536, Time_signature, 4, 2, 24, 8
1, 1536, Note_on_c, 0, 77, 123
1, 1538, Note_on_c, 0, 61, 87
1, 1539, Lyric_t, "Girl, "
1, 1539, Note_on_c, 3, 65, 103
1, 1540, Control_c, 3, 1, 0
1, 1540, Pitch_bend_c, 3, 8192
1, 1541, Control_c, 0, 64, 127
1, 1582, Note_on_c, 0, 68, 73
1, 1587, Note_off_c, 0, 77, 64
1, 1631, Note_on_c, 0, 73, 93
1, 1639, Note_off_c, 0, 68, 64
1, 1679, Note_on_c, 0, 68, 88
1, 1685, Note_off_c, 0, 73, 64
1, 1711, Note_off_c, 3, 65, 64
1, 1725, Lyric_t, "tell "
1, 1725, Note_on_c, 3, 66, 102
1, 1729, Note_on_c, 0, 78, 110
1, 1737, Note_off_c, 0, 68, 64
1, 1775, Note_on_c, 0, 68, 82
1, 1780, Note_off_c, 0, 78, 64
1, 1797, Note_off_c, 3, 66, 64
1, 1798, Lyric_t, "me "
1, 1798, Note_on_c, 3, 65, 92
1, 1801, Note_on_c, 0, 77, 120
1, 1811, Note_off_c, 0, 68, 64
1, 1846, Note_on_c, 0, 75, 104
1, 1848, Lyric_t, "on"
1, 1848, Note_on_c, 3, 63, 99
1, 1850, Note_off_c, 0, 77, 64
1, 1853, Note_off_c, 3, 65, 64
1, 1876, Note_off_c, 0, 75, 64
1, 1878, Control_c, 0, 64, 0
1, 1881, Lyric_t, "ly "
1, 1881, Note_on_c, 3, 65, 102
1, 1883, Note_off_c, 3, 63, 64
1, 1883, Note_on_c, 0, 77, 111
1, 1887, Note_off_c, 0, 61, 64
1, 1902, Tempo, 937500
1, 1911, Note_off_c, 3, 65, 64
1, 1915, Note_off_c, 0, 77, 64
1, 1917, Lyric_t, "this, "
1, 1917, Lyric_t, "\015"
1, 1917, Note_on_c, 3, 65, 98
1, 1918, Note_on_c, 0, 60, 90
1, 1919, Tempo, 833333
1, 1920, Control_c, 0, 64, 127
1, 1921, Note_on_c, 0, 77, 115
1, 1969, Note_on_c, 0, 68, 79
1, 1978, Note_off_c, 0, 77, 64
1, 2015, Note_on_c, 0, 72, 98
1, 2021, Note_off_c, 0, 68, 64
1, 2062, Note_on_c, 0, 68, 86
1, 2066, Note_off_c, 0, 72, 64
1, 2104, Note_off_c, 3, 65, 64
1, 2110, Lyric_t, "that "
1, 2110, Note_on_c, 3, 66, 99
1, 2111, Note_on_c, 0, 78, 95
1, 2115, Note_off_c, 0, 68, 64
1, 2159, Note_on_c, 0, 68, 91
1, 2163, Note_off_c, 0, 78, 64
1, 2181, Lyric_t, "I "
1, 2181, Note_on_c, 3, 65, 89
1, 2186, Note_off_c, 3, 66, 64
1, 2187, Note_on_c, 0, 77, 116
1, 2200, Note_off_c, 0, 68, 64
1, 2231, Note_off_c, 3, 65, 64
1, 2233, Lyric_t, "have "
1, 2233, Note_on_c, 3, 63, 97
1, 2233, Note_off_c, 0, 77, 64
1, 2233, Note_on_c, 0, 75, 95
1, 2265, Note_off_c, 0, 75, 64
1, 2266, Note_on_c, 0, 77, 113
1, 2267, Control_c, 0, 64, 0
1, 2268, Lyric_t, "your "
1, 2268, Note_on_c, 3, 65, 96
1, 2271, Note_off_c, 3, 63, 64
1, 2272, Note_off_c, 0, 60, 64
1, 2283, Tempo, 1000000
1, 2294, Note_off_c, 3, 65, 64
1, 2295, Tempo, 833333
1, 2299, Note_off_c, 0, 77, 64
1, 2302, Lyric_t, "heart "
1, 2302, Note_on_c, 3, 65, 92
1, 2302, Note_on_c, 0, 59, 93
1, 2304, Note_on_c, 0, 77, 119
1, 2317, Control_c, 0, 64, 127
1, 2351, Note_on_c, 0, 68, 83
1, 2362, Note_off_c, 0, 77, 64
1, 2397, Note_on_c, 0, 71, 105
1, 2401, Note_off_c, 0, 68, 64
1, 2447, Note_on_c, 0, 75, 91
1, 2494, Note_on_c, 0, 80, 102
1, 2496, Note_off_c, 0, 75, 64
1, 2499, Note_off_c, 0, 71, 64
1, 2543, Note_on_c, 0, 68, 100
1, 2580, Note_off_c, 0, 80, 64
1, 2591, Note_on_c, 0, 71, 105
1, 2605, Note_off_c, 0, 68, 64
1, 2612, Note_off_c, 3, 65, 64
1, 2636, Lyric_t, "for "
1, 2636, Note_on_c, 3, 63, 99
1, 2641, Note_on_c, 0, 75, 100
1, 2650, Note_off_c, 0, 71, 64
1, 2660, Control_c, 0, 64, 0
1, 2673, Note_off_c, 0, 59, 64
1, 2680, Note_off_c, 3, 63, 64
1, 2685, Note_off_c, 0, 75, 64
1, 2686, Lyric_t, "al"
1, 2686, Note_on_c, 3, 63, 102
1, 2687, Note_on_c, 0, 58, 84
1, 2688, Note_on_c, 0, 75, 104
1, 2710, Control_c, 0, 64, 127
1, 2737, Note_on_c, 0, 68, 73
1, 2745, Note_off_c, 0, 75, 64
1, 2785, Note_on_c, 0, 71, 96
1, 2802, Note_off_c, 0, 68, 64
1, 2826, Tempo, 909091
1, 2833, Note_on_c, 0, 77, 110
1, 2834, Note_on_c, 3, 65, 87
1, 2834, Note_off_c, 0, 71, 64
1, 2841, Note_off_c, 3, 63, 64
1, 2849, Control_c, 0, 64, 0
1, 2867, Note_off_c, 0, 58, 64
1, 2877, Lyric_t, "ways, "
1, 2877, Lyric_t, "\015"
1, 2877, Note_on_c, 3, 62, 97
1, 2878, Note_off_c, 3, 65, 64
1, 2880, Note_off_c, 0, 77, 64
1, 2880, Note_on_c, 0, 74, 111
1, 2882, Note_on_c, 0, 58, 74
1, 2892, Lyric_t, "\012"
1, 2897, Control_c, 0, 64, 127
1, 2905, Note_off_c, 3, 62, 64
1, 2921, Lyric_t, "and "
1, 2921, Note_on_c, 3, 68, 109
1, 2924, Note_on_c, 0, 80, 109
1, 2974, Note_off_c, 0, 74, 64
1, 2992, Note_off_c, 3, 68, 64
1, 2994, Note_on_c, 3, 70, 90
1, 3005, Note_on_c, 3, 68, 101
1, 3011, Note_off_c, 3, 70, 64
1, 3013, Note_on_c, 3, 66, 89
1, 3020, Note_off_c, 3, 68, 64
1, 3054, Note_off_c, 0, 80, 64
1, 3055, Control_c, 0, 64, 0
1, 3058, Tempo, 833333
1, 3060, Note_off_c, 3, 66, 64
1, 3060, Note_off_c, 0, 58, 64
1, 3067, Lyric_t, "you "
1, 3067, Note_on_c, 3, 66, 92
1, 3071, Note_on_c, 0, 78, 106
1, 3071, Note_on_c, 0, 63, 92
1, 3095, Control_c, 0, 64, 127
1, 3121, Note_on_c, 0, 70, 79
1, 3130, Note_off_c, 0, 78, 64
1, 3167, Note_on_c, 0, 75, 99
1, 3170, Note_on_c, 10, 78, 38
1, 3171, Control_c, 10, 1, 0
1, 3171, Pitch_bend_c, 10, 8192
1, 3183, Note_off_c, 0, 70, 64
1, 3216, Note_on_c, 0, 70, 81
1, 3228, Note_off_c, 0, 75, 64
1, 3262, Lyric_t, "want "
1, 3262, Note_off_c, 3, 66, 64
1, 3262, Note_on_c, 3, 68, 101
1, 3263, Note_on_c, 10, 80, 47
1, 3264, Note_on_c, 0, 80, 103
1, 3268, Note_off_c, 10, 78, 64
1, 3275, Note_off_c, 0, 70, 64
1, 3311, Note_on_c, 0, 70, 86
1, 3317, Note_off_c, 0, 80, 64
1, 3327, Note_on_c, 10, 78, 44
1, 3329, Note_off_c, 10, 80, 64
1, 3331, Lyric_t, "me "
1, 3331, Note_off_c, 3, 68, 64
1, 3331, Note_on_c, 3, 66, 93
1, 3334, Note_on_c, 0, 78, 97
1, 3353, Note_off_c, 0, 70, 64
1, 3381, Lyric_t, "by "
1, 3381, Note_off_c, 3, 66, 64
1, 3381, Note_on_c, 3, 65, 97
1, 3381, Note_on_c, 0, 77, 105
1, 3384, Note_off_c, 10, 78, 64
1, 3386, Note_on_c, 10, 77, 36
1, 3388, Note_off_c, 0, 78, 64
1, 3407, Note_on_c, 10, 78, 45
1, 3410, Note_off_c, 10, 77, 64
1, 3416, Lyric_t, "your "
1, 3416, Note_on_c, 3, 66, 91
1, 3418, Note_on_c, 0, 78, 95
1, 3419, Note_off_c, 3, 65, 64
1, 3420, Note_off_c, 0, 63, 64
1, 3422, Note_off_c, 0, 77, 64
1, 3423, Control_c, 0, 64, 0
1, 3440, Note_off_c, 10, 78, 64
1, 3443, Note_off_c, 3, 66, 64
1, 3451, Lyric_t, "side "
1, 3451, Lyric_t, "\015"
1, 3451, Note_on_c, 3, 66, 96
1, 3453, Note_on_c, 0, 62, 87
1, 3454, Note_off_c, 0, 78, 64
1, 3457, Note_on_c, 0, 78, 106
1, 3457, Note_on_c, 10, 74, 39
1, 3473, Control_c, 0, 64, 127
1, 3505, Note_on_c, 0, 70, 82
1, 3516, Note_off_c, 0, 78, 64
1, 3551, Note_on_c, 0, 74, 104
1, 3552, Note_on_c, 10, 82, 49
1, 3560, Note_off_c, 10, 74, 64
1, 3563, Note_off_c, 0, 70, 64
1, 3600, Note_on_c, 0, 70, 76
1, 3606, Note_off_c, 0, 74, 64
1, 3609, Note_off_c, 3, 66, 64
1, 3647, Lyric_t, "whis"
1, 3647, Note_on_c, 3, 68, 98
1, 3649, Note_on_c, 0, 80, 103
1, 3669, Note_off_c, 0, 70, 64
1, 3696, Note_on_c, 0, 70, 73
1, 3712, Note_off_c, 0, 80, 64
1, 3717, Lyric_t, "per"
1, 3717, Note_on_c, 3, 66, 91
1, 3721, Note_off_c, 3, 68, 64
1, 3723, Note_on_c, 0, 78, 95
1, 3752, Note_off_c, 0, 70, 64
1, 3767, Note_on_c, 0, 77, 96
1, 3768, Note_off_c, 3, 66, 64
1, 3769, Lyric_t, "ing "
1, 3769, Note_on_c, 3, 65, 96
1, 3772, Note_off_c, 0, 78, 64
1, 3799, Lyric_t, "the "
1, 3799, Note_on_c, 3, 66, 87
1, 3803, Note_on_c, 0, 78, 100
1, 3805, Note_off_c, 3, 65, 64
1, 3807, Note_off_c, 0, 77, 64
1, 3813, Control_c, 0, 64, 0
1, 3814, Tempo, 1016949
1, 3820, Note_off_c, 0, 62, 64
1, 3827, Note_off_c, 3, 66, 64
1, 3828, Note_off_c, 0, 78, 64
1, 3834, Lyric_t, "words, "
1, 3834, Lyric_t, "\015"
1, 3834, Note_on_c, 3, 66, 93
1, 3836, Tempo, 833333
1, 3838, Note_on_c, 0, 78, 99
1, 3839, Note_on_c, 0, 61, 84
1, 3839, Note_off_c, 10, 82, 64
1, 3840, Note_on_c, 10, 82, 42
1, 3853, Control_c, 0, 64, 127
1, 3886, Note_on_c, 0, 68, 82
1, 3901, Note_off_c, 0, 78, 64
1, 3934, Note_on_c, 0, 73, 93
1, 3941, Note_off_c, 0, 68, 64
1, 3978, Note_on_c, 10, 80, 44
1, 3980, Note_off_c, 3, 66, 64
1, 3982, Lyric_t, "I'll "
1, 3982, Note_on_c, 3, 65, 97
1, 3982, Note_on_c, 0, 77, 98
1, 3984, Note_off_c, 10, 82, 64
1, 3990, Note_off_c, 0, 73, 64
1, 4028, Note_on_c, 10, 85, 47
1, 4030, Lyric_t, "al"
1, 4030, Note_on_c, 3, 63, 97
1, 4031, Note_off_c, 3, 65, 64
1, 4031, Note_on_c, 0, 75, 92
1, 4034, Note_off_c, 0, 77, 64
1, 4034, Note_off_c, 10, 80, 64
1, 4175, Note_on_c, 0, 73, 88
1, 4176, Note_off_c, 0, 75, 64
1, 4176, Note_on_c, 10, 77, 35
1, 4179, Note_off_c, 3, 63, 64
1, 4180, Note_off_c, 10, 85, 64
1, 4181, Lyric_t, "ways "
1, 4181, Note_on_c, 3, 61, 95
1, 4188, Note_off_c, 0, 61, 64
1, 4207, Control_c, 0, 64, 0
1, 4218, Note_off_c, 3, 61, 64
1, 4218, Note_off_c, 0, 73, 64
1, 4223, Note_on_c, 0, 56, 90
1, 4225, Lyric_t, "love "
1, 4225, Note_on_c, 3, 65, 97
1, 4225, Note_on_c, 10, 80, 39
1, 4226, Note_on_c, 0, 77, 105
1, 4230, Note_off_c, 10, 77, 64
1, 4251, Control_c, 0, 64, 127
1, 4273, Note_on_c, 0, 68, 79
1, 4274, Note_off_c, 0, 77, 64
1, 4320, Note_on_c, 0, 73, 92
1, 4366, Note_off_c, 0, 68, 64
1, 4369, Note_on_c, 0, 78, 97
1, 4370, Note_off_c, 3, 65, 64
1, 4370, Note_on_c, 3, 66, 93
1, 4373, Note_off_c, 0, 73, 64
1, 4392, Control_c, 0, 64, 0
1, 4408, Note_off_c, 0, 56, 64
1, 4417, Note_on_c, 0, 75, 103
1, 4417, Note_on_c, 0, 56, 71
1, 4419, Note_off_c, 3, 66, 64
1, 4420, Lyric_t, "you. "
1, 4420, Lyric_t, "\015"
1, 4420, Note_on_c, 3, 63, 97
1, 4421, Note_off_c, 0, 78, 64
1, 4429, Control_c, 0, 64, 127
1, 4464, Note_on_c, 0, 68, 71
1, 4469, Note_off_c, 0, 75, 64
1, 4512, Note_on_c, 0, 73, 107
1, 4518, Note_off_c, 0, 68, 64
1, 4559, Note_on_c, 0, 68, 75
1, 4562, Note_off_c, 0, 73, 64
1, 4578, Tempo, 909091
1, 4580, Note_off_c, 3, 63, 64
1, 4583, Control_c, 0, 64, 0
1, 4593, Note_off_c, 0, 56, 64
1, 4602, Tempo, 833333
1, 4606, Note_on_c, 0, 72, 104
1, 4606, Note_on_c, 8, 60, 96
1, 4607, Note_on_c, 0, 56, 76
1, 4607, Control_c, 8, 1, 0
1, 4607, Pitch_bend_c, 8, 8192
1, 4612, Note_off_c, 0, 68, 64
1, 4615, Control_c, 0, 64, 127
1, 4657, Note_on_c, 0, 68, 69
1, 4666, Note_off_c, 0, 72, 64
1, 4667, Note_off_c, 8, 60, 64
1, 4672, Lyric_t, "\012"
1, 4700, Note_on_c, 8, 61, 90
1, 4704, Note_on_c, 0, 73, 97
1, 4712, Note_off_c, 0, 68, 64
1, 4755, Note_on_c, 0, 68, 74
1, 4761, Note_off_c, 8, 61, 64
1, 4762, Note_off_c, 0, 73, 64
1, 4776, Control_c, 0, 64, 0
1, 4796, Tempo, 869565
1, 4801, Note_on_c, 8, 63, 98
1, 4802, Note_on_c, 0, 75, 98
1, 4807, Control_c, 0, 64, 127
1, 4808, Note_off_c, 0, 68, 64
1, 4850, Note_on_c, 0, 68, 73
1, 4858, Note_off_c, 0, 75, 64
1, 4870, Note_off_c, 8, 63, 64
1, 4892, Tempo, 923077
1, 4895, Lyric_t, "And "
1, 4895, Note_on_c, 3, 61, 110
1, 4897, Note_on_c, 0, 73, 97
1, 4899, Note_on_c, 8, 61, 88
1, 4902, Note_off_c, 0, 68, 64
1, 4928, Lyric_t, "for"
1, 4928, Note_on_c, 3, 60, 93
1, 4931, Note_off_c, 3, 61, 64
1, 4938, Note_off_c, 8, 61, 64
1, 4967, Note_off_c, 10, 80, 64
1, 4968, Lyric_t, "ev"
1, 4968, Note_on_c, 3, 61, 98
1, 4968, Note_off_c, 0, 56, 64
1, 4974, Note_off_c, 3, 60, 64
1, 4977, Control_c, 0, 64, 0
1, 4980, Note_off_c, 0, 73, 64
1, 4992, Tempo, 833333
1, 4992, Note_on_c, 9, 35, 98
1, 4993, Note_off_c, 9, 35, 64
1, 4993, Control_c, 9, 91, 80
1, 4993, Control_c, 9, 1, 0
1, 4993, Pitch_bend_c, 9, 8192
1, 4993, Note_on_c, 1, 30, 108
1, 4993, Note_on_c, 2, 58, 92
1, 4994, Control_c, 1, 1, 0
1, 4994, Pitch_bend_c, 1, 8192
1, 4994, Note_on_c, 0, 42, 110
1, 4994, Control_c, 2, 1, 0
1, 4994, Pitch_bend_c, 2, 8192
1, 5042, Lyric_t, "er "
1, 5042, Lyric_t, "\015"
1, 5042, Note_on_c, 3, 70, 97
1, 5042, Note_on_c, 2, 53, 82
1, 5044, Note_on_c, 0, 58, 70
1, 5045, Note_off_c, 3, 61, 64
1, 5084, Note_off_c, 2, 58, 64
1, 5088, Note_on_c, 6, 85, 77
1, 5089, Note_on_c, 9, 44, 89
1, 5089, Control_c, 6, 1, 0
1, 5089, Pitch_bend_c, 6, 8192
1, 5090, Note_off_c, 9, 44, 64
1, 5090, Note_on_c, 2, 58, 84
1, 5092, Note_on_c, 0, 61, 92
1, 5135, Note_on_c, 8, 61, 91
1, 5136, Note_on_c, 6, 77, 62
1, 5138, Note_on_c, 2, 61, 96
1, 5142, Note_on_c, 0, 65, 85
1, 5144, Note_off_c, 6, 85, 64
1, 5153, Note_off_c, 0, 58, 64
1, 5170, Note_off_c, 6, 77, 64
1, 5181, Note_off_c, 0, 61, 64
1, 5183, Note_on_c, 8, 65, 95
1, 5184, Note_on_c, 6, 77, 71
1, 5188, Note_on_c, 0, 70, 116
1, 5192, Note_off_c, 0, 65, 64
1, 5215, Note_off_c, 2, 53, 64
1, 5232, Note_on_c, 8, 70, 89
1, 5233, Note_off_c, 2, 58, 64
1, 5234, Note_on_c, 2, 53, 90
1, 5282, Note_on_c, 2, 58, 82
1, 5289, Note_off_c, 2, 61, 64
1, 5291, Note_off_c, 6, 77, 64
1, 5293, Note_off_c, 0, 70, 64
1, 5309, Note_on_c, 0, 70, 122
1, 5315, Note_off_c, 8, 61, 64
1, 5324, Note_on_c, 6, 78, 56
1, 5328, Note_off_c, 2, 53, 64
1, 5330, Note_on_c, 2, 53, 77
1, 5335, Note_on_c, 0, 72, 109
1, 5335, Note_off_c, 8, 65, 64
1, 5338, Note_off_c, 8, 70, 64
1, 5341, Note_off_c, 0, 70, 64
1, 5343, Note_off_c, 1, 30, 64
1, 5351, Note_off_c, 0, 42, 64
1, 5368, Note_off_c, 3, 70, 64
1, 5370, Note_off_c, 2, 53, 64
1, 5370, Note_off_c, 2, 58, 64
1, 5370, Note_off_c, 6, 78, 64
1, 5371, Note_on_c, 6, 75, 51
1, 5371, Note_on_c, 8, 63, 92
1, 5375, Note_on_c, 1, 29, 106
1, 5377, Note_off_c, 0, 72, 64
1, 5377, Note_on_c, 0, 41, 113
1, 5378, Note_on_c, 2, 56, 74
1, 5378, Note_on_c, 8, 72, 95
1, 5425, Note_on_c, 2, 51, 84
1, 5426, Note_on_c, 0, 53, 77
1, 5448, Note_off_c, 2, 56, 64
1, 5465, Note_off_c, 8, 63, 64
1, 5470, Note_on_c, 8, 63, 89
1, 5471, Note_on_c, 9, 44, 87
1, 5472, Note_off_c, 9, 44, 64
1, 5472, Note_on_c, 2, 56, 80
1, 5474, Note_on_c, 0, 60, 103
1, 5495, Note_off_c, 8, 72, 64
1, 5521, Note_on_c, 0, 56, 86
1, 5521, Note_on_c, 2, 60, 96
1, 5521, Note_on_c, 8, 60, 73
1, 5522, Note_off_c, 0, 60, 64
1, 5525, Note_off_c, 0, 53, 64
1, 5529, Note_off_c, 8, 63, 64
1, 5553, Note_off_c, 2, 56, 64
1, 5556, Note_off_c, 0, 56, 64
1, 5567, Lyric_t, "I "
1, 5567, Note_on_c, 3, 66, 102
1, 5567, Note_on_c, 8, 63, 94
1, 5568, Note_on_c, 0, 68, 110
1, 5571, Note_on_c, 2, 56, 90
1, 5591, Lyric_t, "will "
1, 5591, Note_on_c, 3, 65, 95
1, 5593, Note_off_c, 8, 60, 64
1, 5594, Note_off_c, 3, 66, 64
1, 5608, Note_off_c, 2, 51, 64
1, 5617, Lyric_t, "be "
1, 5617, Note_on_c, 3, 63, 97
1, 5617, Note_on_c, 8, 60, 84
1, 5618, Note_on_c, 0, 56, 86
1, 5618, Note_on_c, 2, 51, 81
1, 5619, Note_off_c, 8, 63, 64
1, 5620, Note_off_c, 0, 68, 64
1, 5621, Note_off_c, 3, 65, 64
1, 5656, Note_off_c, 6, 75, 64
1, 5660, Note_off_c, 2, 56, 64
1, 5666, Note_on_c, 2, 56, 72
1, 5670, Note_off_c, 0, 56, 64
1, 5670, Note_on_c, 0, 63, 100
1, 5698, Note_off_c, 2, 60, 64
1, 5716, Note_on_c, 2, 60, 72
1, 5717, Note_on_c, 0, 56, 70
1, 5721, Lyric_t, "your "
1, 5721, Note_off_c, 3, 63, 64
1, 5721, Note_on_c, 3, 61, 92
1, 5721, Note_off_c, 0, 63, 64
1, 5726, Note_off_c, 8, 60, 64
1, 5741, Note_off_c, 1, 29, 64
1, 5756, Note_off_c, 2, 51, 64
1, 5756, Note_on_c, 8, 61, 103
1, 5758, Note_off_c, 0, 56, 64
1, 5758, Note_off_c, 0, 41, 64
1, 5759, Note_off_c, 2, 60, 64
1, 5761, Note_on_c, 0, 42, 112
1, 5761, Note_off_c, 2, 56, 64
1, 5762, Note_on_c, 8, 70, 93
1, 5763, Note_on_c, 1, 30, 104
1, 5764, Note_on_c, 2, 53, 95
1, 5805, Note_off_c, 3, 61, 64
1, 5808, Note_on_c, 0, 58, 89
1, 5810, Note_on_c, 2, 58, 73
1, 5816, Lyric_t, "lov"
1, 5816, Note_on_c, 3, 61, 109
1, 5855, Note_on_c, 0, 61, 106
1, 5856, Note_on_c, 2, 61, 96
1, 5857, Note_on_c, 9, 44, 76
1, 5858, Note_off_c, 9, 44, 64
1, 5860, Lyric_t, "er. "
1, 5860, Lyric_t, "\015"
1, 5860, Note_on_c, 3, 70, 99
1, 5863, Note_off_c, 3, 61, 64
1, 5870, Note_off_c, 8, 70, 64
1, 5876, Note_off_c, 8, 61, 64
1, 5902, Note_on_c, 6, 85, 66
1, 5903, Note_on_c, 2, 65, 114
1, 5903, Note_on_c, 8, 61, 102
1, 5904, Note_on_c, 0, 65, 91
1, 5926, Note_on_c, 6, 84, 73
1, 5934, Note_off_c, 6, 85, 64
1, 5943, Note_off_c, 0, 61, 64
1, 5949, Note_off_c, 0, 58, 64
1, 5951, Note_on_c, 0, 70, 110
1, 5952, Note_on_c, 8, 65, 92
1, 5953, Note_on_c, 6, 82, 72
1, 5954, Note_off_c, 0, 65, 64
1, 5957, Note_off_c, 0, 42, 64
1, 5964, Note_off_c, 6, 84, 64
1, 5991, Note_off_c, 2, 58, 64
1, 5995, Note_off_c, 1, 30, 64
1, 5995, Note_on_c, 1, 37, 111
1, 5999, Note_on_c, 0, 65, 88
1, 5999, Note_on_c, 2, 58, 60
1, 5999, Note_on_c, 6, 77, 64
1, 5999, Note_on_c, 8, 70, 91
1, 6005, Note_off_c, 6, 82, 64
1, 6006, Note_off_c, 0, 70, 64
1, 6011, Note_off_c, 2, 53, 64
1, 6025, Note_off_c, 2, 61, 64
1, 6029, Note_off_c, 2, 65, 64
1, 6041, Pitch_bend_c, 1, 8074
1, 6042, Pitch_bend_c, 1, 7840
1, 6044, Pitch_bend_c, 1, 7489
1, 6046, Pitch_bend_c, 1, 7255
1, 6046, Note_off_c, 0, 65, 64
1, 6047, Note_on_c, 0, 61, 99
1, 6047, Note_on_c, 2, 61, 90
1, 6048, Pitch_bend_c, 1, 6904
1, 6050, Pitch_bend_c, 1, 6553
1, 6051, Pitch_bend_c, 1, 6319
1, 6053, Pitch_bend_c, 1, 5968
1, 6055, Pitch_bend_c, 1, 5617
1, 6057, Pitch_bend_c, 1, 5266
1, 6059, Note_off_c, 1, 37, 64
1, 6059, Pitch_bend_c, 1, 5032
1, 6061, Pitch_bend_c, 1, 4798
1, 6064, Pitch_bend_c, 1, 5032
1, 6065, Note_off_c, 8, 65, 64
1, 6066, Pitch_bend_c, 1, 5851
1, 6068, Pitch_bend_c, 1, 7372
1, 6070, Pitch_bend_c, 1, 8192
1, 6070, Note_on_c, 0, 63, 102
1, 6073, Note_on_c, 1, 30, 106
1, 6075, Note_off_c, 3, 70, 64
1, 6079, Note_off_c, 8, 70, 64
1, 6079, Note_off_c, 8, 61, 64
1, 6080, Note_off_c, 0, 61, 64
1, 6087, Note_off_c, 2, 58, 64
1, 6092, Note_on_c, 0, 65, 105
1, 6094, Note_on_c, 8, 61, 97
1, 6095, Note_off_c, 1, 30, 64
1, 6095, Note_on_c, 2, 58, 98
1, 6096, Note_off_c, 6, 77, 64
1, 6097, Note_on_c, 6, 77, 60
1, 6100, Note_off_c, 0, 63, 64
1, 6112, Lyric_t, "\012"
1, 6115, Note_on_c, 0, 66, 92
1, 6118, Note_off_c, 0, 65, 64
1, 6137, Note_on_c, 1, 29, 103
1, 6137, Note_off_c, 0, 66, 64
1, 6139, Note_off_c, 2, 58, 64
1, 6139, Note_off_c, 2, 61, 64
1, 6141, Note_on_c, 0, 56, 99
1, 6142, Note_on_c, 0, 41, 105
1, 6142, Note_on_c, 2, 60, 91
1, 6143, Note_on_c, 6, 56, 61
1, 6143, Note_on_c, 8, 63, 86
1, 6143, Note_on_c, 8, 72, 102
1, 6147, Note_off_c, 8, 61, 64
1, 6148, Note_off_c, 6, 77, 64
1, 6189, Note_off_c, 8, 72, 64
1, 6190, Note_on_c, 2, 56, 83
1, 6192, Note_on_c, 8, 72, 83
1, 6193, Note_on_c, 6, 63, 61
1, 6195, Note_on_c, 0, 53, 82
1, 6209, Note_off_c, 0, 56, 64
1, 6218, Note_off_c, 2, 60, 64
1, 6224, Note_off_c, 6, 56, 64
1, 6237, Note_off_c, 8, 63, 64
1, 6238, Note_off_c, 8, 72, 64
1, 6239, Note_on_c, 9, 44, 77
1, 6239, Note_on_c, 2, 63, 77
1, 6239, Note_on_c, 2, 60, 82
1, 6239, Note_on_c, 8, 68, 96
1, 6240, Note_off_c, 9, 44, 64
1, 6241, Note_on_c, 0, 60, 115
1, 6241, Note_on_c, 6, 68, 36
1, 6248, Note_off_c, 0, 53, 64
1, 6287, Note_on_c, 8, 60, 79
1, 6288, Note_off_c, 2, 60, 64
1, 6288, Note_off_c, 2, 56, 64
1, 6289, Note_on_c, 2, 56, 65
1, 6289, Note_on_c, 2, 60, 88
1, 6291, Note_off_c, 8, 68, 64
1, 6292, Note_on_c, 0, 56, 86
1, 6297, Note_off_c, 6, 63, 64
1, 6299, Note_off_c, 0, 60, 64
1, 6316, Note_off_c, 6, 68, 64
1, 6327, Note_off_c, 0, 56, 64
1, 6334, Note_off_c, 8, 60, 64
1, 6335, Lyric_t, "And "
1, 6335, Note_on_c, 3, 66, 109
1, 6335, Note_on_c, 8, 72, 99
1, 6337, Note_off_c, 2, 63, 64
1, 6337, Note_on_c, 2, 68, 84
1, 6338, Note_on_c, 0, 68, 112
1, 6338, Note_off_c, 2, 60, 64
1, 6338, Note_off_c, 2, 56, 64
1, 6364, Lyric_t, "I "
1, 6364, Note_on_c, 3, 65, 95
1, 6365, Note_off_c, 3, 66, 64
1, 6381, Note_off_c, 8, 72, 64
1, 6382, Note_on_c, 8, 68, 84
1, 6384, Note_on_c, 0, 63, 99
1, 6386, Note_on_c, 2, 63, 101
1, 6391, Lyric_t, "know "
1, 6391, Note_on_c, 3, 63, 102
1, 6392, Note_off_c, 3, 65, 64
1, 6432, Note_off_c, 1, 29, 64
1, 6432, Note_on_c, 0, 60, 104
1, 6432, Note_on_c, 2, 60, 93
1, 6440, Note_off_c, 0, 68, 64
1, 6467, Pitch_bend_c, 1, 7840
1, 6469, Pitch_bend_c, 1, 7138
1, 6471, Pitch_bend_c, 1, 6553
1, 6473, Pitch_bend_c, 1, 5734
1, 6475, Pitch_bend_c, 1, 5266
1, 6475, Note_off_c, 8, 68, 64
1, 6476, Pitch_bend_c, 1, 4564
1, 6478, Pitch_bend_c, 1, 4330
1, 6479, Note_off_c, 0, 63, 64
1, 6479, Note_on_c, 2, 53, 90
1, 6479, Note_on_c, 8, 68, 84
1, 6480, Control_c, 9, 91, 60
1, 6480, Pitch_bend_c, 1, 4096
1, 6480, Note_on_c, 0, 53, 88
1, 6481, Note_on_c, 9, 35, 98
1, 6481, Note_on_c, 1, 32, 105
1, 6482, Note_off_c, 9, 35, 64
1, 6485, Lyric_t, "if "
1, 6485, Note_off_c, 3, 63, 64
1, 6485, Note_on_c, 3, 61, 101
1, 6486, Pitch_bend_c, 1, 4213
1, 6487, Pitch_bend_c, 1, 4447
1, 6489, Pitch_bend_c, 1, 4915
1, 6489, Note_off_c, 0, 60, 64
1, 6491, Pitch_bend_c, 1, 5617
1, 6493, Pitch_bend_c, 1, 6436
1, 6495, Pitch_bend_c, 1, 7138
1, 6497, Pitch_bend_c, 1, 7957
1, 6498, Pitch_bend_c, 1, 8192
1, 6518, Note_off_c, 0, 53, 64
1, 6520, Note_off_c, 2, 53, 64
1, 6520, Note_off_c, 2, 60, 64
1, 6520, Note_off_c, 2, 63, 64
1, 6522, Note_off_c, 3, 61, 64
1, 6522, Note_off_c, 1, 32, 64
1, 6522, Note_off_c, 0, 41, 64
1, 6522, Note_off_c, 8, 68, 64
1, 6523, Note_off_c, 2, 68, 64
1, 6526, Note_on_c, 8, 58, 78
1, 6527, Note_on_c, 9, 35, 96
1, 6527, Note_on_c, 2, 54, 91
1, 6528, Note_off_c, 9, 35, 64
1, 6528, Control_c, 9, 91, 80
1, 6529, Note_on_c, 1, 30, 105
1, 6530, Note_on_c, 0, 42, 107
1, 6530, Note_on_c, 8, 61, 93
1, 6532, Lyric_t, "you "
1, 6532, Note_on_c, 3, 70, 102
1, 6577, Note_on_c, 2, 58, 72
1, 6580, Note_on_c, 0, 53, 90
1, 6616, Note_on_c, 5, 58, 50
1, 6617, Control_c, 5, 1, 0
1, 6617, Pitch_bend_c, 5, 8192
1, 6621, Note_on_c, 6, 85, 71
1, 6623, Note_on_c, 2, 61, 93
1, 6626, Note_on_c, 9, 44, 86
1, 6626, Note_on_c, 0, 61, 92
1, 6627, Note_off_c, 9, 44, 64
1, 6654, Note_off_c, 2, 58, 64
1, 6661, Note_off_c, 8, 61, 64
1, 6665, Note_on_c, 5, 56, 63
1, 6668, Note_off_c, 8, 58, 64
1, 6670, Note_on_c, 0, 58, 79
1, 6670, Note_off_c, 5, 58, 64
1, 6671, Note_on_c, 8, 61, 102
1, 6672, Note_on_c, 2, 58, 88
1, 6672, Note_off_c, 6, 85, 64
1, 6672, Note_on_c, 6, 82, 72
1, 6700, Note_off_c, 2, 54, 64
1, 6707, Note_off_c, 5, 56, 64
1, 6715, Note_on_c, 0, 68, 116
1, 6715, Note_on_c, 5, 68, 64
1, 6719, Note_on_c, 8, 68, 91
1, 6720, Note_on_c, 2, 68, 83
1, 6723, Note_off_c, 8, 61, 64
1, 6764, Note_off_c, 2, 68, 64
1, 6764, Note_on_c, 6, 80, 59
1, 6767, Note_on_c, 2, 65, 92
1, 6768, Note_off_c, 6, 82, 64
1, 6789, Note_off_c, 3, 70, 64
1, 6800, Note_off_c, 2, 61, 64
1, 6811, Note_off_c, 0, 68, 64
1, 6811, Note_on_c, 0, 66, 93
1, 6811, Note_on_c, 5, 66, 51
1, 6811, Note_on_c, 6, 78, 61
1, 6812, Note_off_c, 6, 80, 64
1, 6817, Note_on_c, 2, 61, 103
1, 6817, Note_off_c, 5, 68, 64
1, 6838, Lyric_t, "real"
1, 6838, Note_on_c, 3, 72, 113
1, 6849, Note_off_c, 2, 58, 64
1, 6859, Note_off_c, 8, 68, 64
1, 6864, Note_on_c, 2, 58, 68
1, 6870, Note_off_c, 3, 72, 64
1, 6872, Lyric_t, "ly "
1, 6872, Note_on_c, 3, 73, 100
1, 6888, Note_off_c, 0, 61, 64
1, 6888, Note_off_c, 0, 53, 64
1, 6890, Note_off_c, 0, 42, 64
1, 6893, Note_off_c, 0, 58, 64
1, 6895, Note_off_c, 0, 66, 64
1, 6900, Note_off_c, 1, 30, 64
1, 6904, Note_off_c, 2, 61, 64
1, 6906, Note_on_c, 0, 41, 93
1, 6908, Note_off_c, 5, 66, 64
1, 6908, Note_on_c, 8, 63, 92
1, 6909, Note_off_c, 6, 78, 64
1, 6910, Note_on_c, 1, 29, 106
1, 6910, Note_off_c, 2, 65, 64
1, 6911, Note_on_c, 6, 77, 61
1, 6912, Note_off_c, 2, 58, 64
1, 6913, Note_on_c, 5, 63, 70
1, 6913, Note_on_c, 8, 72, 100
1, 6914, Lyric_t, "care, "
1, 6914, Lyric_t, "\015"
1, 6914, Note_on_c, 3, 68, 101
1, 6914, Note_on_c, 2, 56, 85
1, 6915, Note_off_c, 3, 73, 64
1, 6959, Note_on_c, 0, 53, 74
1, 6959, Note_on_c, 2, 63, 113
1, 7002, Note_off_c, 5, 63, 64
1, 7005, Note_on_c, 2, 61, 105
1, 7007, Note_on_c, 0, 56, 100
1, 7007, Note_on_c, 5, 61, 61
1, 7009, Note_on_c, 9, 44, 82
1, 7010, Note_off_c, 9, 44, 64
1, 7017, Note_off_c, 8, 72, 64
1, 7019, Note_off_c, 0, 53, 64
1, 7019, Note_off_c, 8, 63, 64
1, 7052, Note_off_c, 2, 61, 64
1, 7054, Note_on_c, 2, 60, 89
1, 7055, Note_on_c, 8, 60, 84
1, 7056, Note_on_c, 5, 60, 58
1, 7057, Note_on_c, 0, 53, 76
1, 7064, Note_off_c, 0, 56, 64
1, 7064, Note_off_c, 5, 61, 64
1, 7100, Note_off_c, 5, 60, 64
1, 7102, Note_on_c, 2, 70, 102
1, 7102, Note_on_c, 8, 68, 85
1, 7107, Note_on_c, 0, 68, 102
1, 7108, Note_on_c, 5, 70, 62
1, 7116, Note_off_c, 3, 68, 64
1, 7128, Note_off_c, 8, 60, 64
1, 7135, Note_off_c, 2, 63, 64
1, 7154, Note_on_c, 0, 56, 78
1, 7154, Note_on_c, 2, 63, 88
1, 7162, Note_off_c, 0, 53, 64
1, 7180, Note_off_c, 2, 70, 64
1, 7192, Note_off_c, 2, 63, 64
1, 7202, Note_on_c, 0, 60, 106
1, 7203, Note_on_c, 2, 68, 80
1, 7203, Note_on_c, 2, 65, 93
1, 7212, Note_off_c, 0, 56, 64
1, 7218, Note_off_c, 1, 29, 64
1, 7232, Note_off_c, 0, 68, 64
1, 7235, Note_off_c, 8, 68, 64
1, 7237, Note_off_c, 2, 56, 64
1, 7247, Control_c, 9, 91, 60
1, 7248, Note_on_c, 9, 35, 97
1, 7248, Note_off_c, 5, 70, 64
1, 7249, Note_off_c, 9, 35, 64
1, 7250, Note_on_c, 1, 41, 113
1, 7250, Note_off_c, 0, 60, 64
1, 7251, Note_on_c, 5, 68, 61
1, 7252, Note_on_c, 2, 56, 76
1, 7254, Note_on_c, 0, 56, 67
1, 7255, Lyric_t, "I "
1, 7255, Note_on_c, 3, 60, 114
1, 7256, Note_off_c, 6, 77, 64
1, 7274, Note_on_c, 1, 34, 102
1, 7275, Lyric_t, "will "
1, 7275, Note_on_c, 3, 61, 99
1, 7276, Note_off_c, 1, 41, 64
1, 7281, Note_on_c, 5, 66, 58
1, 7284, Note_off_c, 5, 68, 64
1, 7285, Note_off_c, 3, 60, 64
1, 7291, Note_off_c, 0, 41, 64
1, 7292, Note_off_c, 2, 60, 64
1, 7292, Note_off_c, 2, 65, 64
1, 7292, Note_off_c, 2, 68, 64
1, 7293, Note_off_c, 0, 56, 64
1, 7296, Note_off_c, 2, 56, 64
1, 7297, Note_on_c, 9, 35, 101
1, 7297, Note_on_c, 0, 54, 100
1, 7297, Note_on_c, 8, 68, 93
1, 7298, Note_off_c, 9, 35, 64
1, 7298, Control_c, 9, 91, 80
1, 7299, Note_on_c, 1, 39, 105
1, 7300, Note_off_c, 1, 34, 64
1, 7302, Note_on_c, 0, 39, 98
1, 7303, Lyric_t, "al"
1, 7303, Note_on_c, 3, 66, 99
1, 7303, Note_on_c, 5, 68, 64
1, 7307, Note_off_c, 3, 61, 64
1, 7311, Note_off_c, 5, 66, 64
1, 7331, Note_on_c, 3, 65, 95
1, 7339, Note_off_c, 3, 66, 64
1, 7346, Note_on_c, 2, 51, 93
1, 7350, Note_on_c, 0, 51, 78
1, 7351, Note_off_c, 0, 54, 64
1, 7360, Lyric_t, "ways "
1, 7360, Note_on_c, 3, 63, 97
1, 7365, Note_off_c, 3, 65, 64
1, 7393, Note_on_c, 9, 44, 72
1, 7393, Note_on_c, 5, 66, 63
1, 7394, Note_off_c, 9, 44, 64
1, 7394, Note_on_c, 0, 58, 98
1, 7394, Note_on_c, 0, 66, 106
1, 7396, Note_off_c, 5, 68, 64
1, 7397, Note_on_c, 2, 73, 105
1, 7403, Note_off_c, 0, 51, 64
1, 7422, Note_off_c, 2, 73, 64
1, 7422, Note_on_c, 2, 70, 89
1, 7429, Note_off_c, 8, 68, 64
1, 7438, Note_off_c, 0, 66, 64
1, 7441, Note_on_c, 0, 66, 106
1, 7442, Note_on_c, 8, 58, 76
1, 7445, Note_on_c, 2, 66, 90
1, 7446, Note_off_c, 0, 58, 64
1, 7449, Note_on_c, 0, 54, 78
1, 7467, Note_on_c, 2, 61, 93
1, 7482, Note_off_c, 2, 66, 64
1, 7488, Note_off_c, 2, 70, 64
1, 7488, Note_off_c, 5, 66, 64
1, 7489, Note_off_c, 0, 66, 64
1, 7489, Note_on_c, 5, 58, 56
1, 7490, Note_off_c, 2, 51, 64
1, 7490, Note_off_c, 2, 61, 64
1, 7490, Note_on_c, 5, 65, 66
1, 7490, Note_on_c, 5, 61, 63
1, 7491, Note_on_c, 2, 63, 80
1, 7491, Note_on_c, 8, 66, 89
1, 7492, Note_on_c, 0, 66, 106
1, 7492, Note_on_c, 2, 66, 95
1, 7497, Note_on_c, 0, 61, 110
1, 7500, Note_off_c, 0, 54, 64
1, 7500, Note_off_c, 8, 58, 64
1, 7534, Note_off_c, 2, 66, 64
1, 7541, Note_on_c, 2, 66, 87
1, 7543, Note_off_c, 3, 63, 64
1, 7545, Note_on_c, 0, 54, 83
1, 7550, Note_off_c, 0, 61, 64
1, 7572, Note_off_c, 2, 63, 64
1, 7580, Note_off_c, 0, 66, 64
1, 7582, Note_off_c, 5, 61, 64
1, 7582, Note_off_c, 5, 65, 64
1, 7584, Note_on_c, 5, 60, 56
1, 7587, Note_off_c, 5, 58, 64
1, 7588, Note_on_c, 5, 63, 51
1, 7589, Note_on_c, 2, 63, 90
1, 7590, Note_on_c, 0, 58, 93
1, 7596, Note_off_c, 0, 54, 64
1, 7631, Note_off_c, 0, 39, 64
1, 7634, Note_off_c, 2, 63, 64
1, 7635, Note_on_c, 0, 51, 86
1, 7637, Note_on_c, 2, 63, 54
1, 7638, Lyric_t, "be "
1, 7638, Note_on_c, 3, 70, 118
1, 7639, Note_off_c, 0, 58, 64
1, 7644, Note_off_c, 1, 39, 64
1, 7654, Note_off_c, 8, 66, 64
1, 7676, Note_off_c, 2, 66, 64
1, 7676, Note_off_c, 5, 63, 64
1, 7678, Note_off_c, 5, 60, 64
1, 7679, Note_off_c, 0, 51, 64
1, 7680, Note_off_c, 2, 63, 64
1, 7681, Note_on_c, 9, 35, 100
1, 7681, Note_on_c, 9, 51, 69
1, 7681, Note_on_c, 0, 44, 103
1, 7681, Note_on_c, 2, 56, 90
1, 7681, Note_on_c, 5, 58, 56
1, 7681, Note_on_c, 7, 73, 56
1, 7681, Note_on_c, 8, 73, 96
1, 7682, Note_off_c, 9, 51, 64
1, 7682, Note_off_c, 9, 35, 64
1, 7682, Note_on_c, 0, 51, 99
1, 7682, Note_on_c, 0, 61, 103
1, 7682, Note_on_c, 0, 56, 104
1, 7682, Note_on_c, 5, 61, 54
1, 7682, Control_c, 7, 1, 0
1, 7682, Pitch_bend_c, 7, 8192
1, 7682, Note_on_c, 7, 65, 56
1, 7682, Note_on_c, 8, 65, 96
1, 7683, Note_on_c, 1, 32, 109
1, 7684, Note_on_c, 2, 61, 103
1, 7684, Note_on_c, 7, 61, 56
1, 7686, Note_on_c, 2, 63, 87
1, 7710, Note_on_c, 3, 68, 92
1, 7716, Note_off_c, 3, 70, 64
1, 7736, Note_off_c, 3, 68, 64
1, 7739, Lyric_t, "there. "
1, 7739, Lyric_t, "\015"
1, 7739, Note_on_c, 3, 68, 104
1, 7743, Note_off_c, 8, 65, 64
1, 7744, Note_off_c, 8, 73, 64
1, 7768, Tempo, 895522
1, 7770, Note_off_c, 0, 51, 64
1, 7771, Note_off_c, 0, 56, 64
1, 7771, Note_off_c, 2, 63, 64
1, 7773, Note_off_c, 2, 56, 64
1, 7775, Note_off_c, 0, 61, 64
1, 7775, Note_off_c, 2, 61, 64
1, 7776, Note_off_c, 7, 65, 64
1, 7776, Note_off_c, 7, 73, 64
1, 7776, Note_on_c, 7, 72, 54
1, 7777, Note_on_c, 2, 56, 87
1, 7777, Note_on_c, 5, 56, 58
1, 7777, Note_on_c, 5, 60, 66
1, 7778, Note_off_c, 7, 61, 64
1, 7779, Note_on_c, 9, 55, 51
1, 7779, Note_on_c, 2, 60, 90
1, 7780, Note_off_c, 9, 55, 64
1, 7780, Note_off_c, 5, 61, 64
1, 7780, Note_off_c, 5, 58, 64
1, 7780, Note_on_c, 7, 60, 54
1, 7780, Note_on_c, 8, 63, 96
1, 7780, Note_on_c, 8, 72, 106
1, 7781, Note_on_c, 2, 63, 70
1, 7783, Note_on_c, 0, 56, 92
1, 7783, Note_on_c, 7, 63, 54
1, 7784, Note_on_c, 0, 51, 78
1, 7784, Note_on_c, 0, 60, 99
1, 7842, Note_off_c, 8, 72, 64
1, 7850, Lyric_t, "\012"
1, 7850, Note_off_c, 8, 63, 64
1, 7864, Note_off_c, 0, 51, 64
1, 7866, Note_off_c, 2, 60, 64
1, 7866, Note_off_c, 2, 56, 64
1, 7866, Note_off_c, 7, 72, 64
1, 7867, Note_off_c, 0, 44, 64
1, 7867, Note_off_c, 0, 56, 64
1, 7867, Note_off_c, 0, 60, 64
1, 7868, Note_off_c, 7, 60, 64
1, 7870, Tempo, 1071429
1, 7871, Note_off_c, 2, 63, 64
1, 7872, Note_off_c, 1, 32, 64
1, 7872, Note_on_c, 2, 56, 90
1, 7873, Note_on_c, 1, 32, 100
1, 7873, Note_on_c, 5, 58, 54
1, 7873, Note_on_c, 8, 70, 89
1, 7874, Note_on_c, 2, 61, 97
1, 7874, Note_off_c, 5, 56, 64
1, 7874, Note_off_c, 7, 63, 64
1, 7874, Note_on_c, 8, 61, 87
1, 7875, Note_on_c, 9, 55, 51
1, 7875, Note_on_c, 2, 63, 82
1, 7876, Note_off_c, 9, 55, 64
1, 7876, Note_off_c, 5, 60, 64
1, 7876, Note_on_c, 7, 58, 52
1, 7877, Note_on_c, 7, 61, 52
1, 7877, Note_on_c, 7, 70, 52
1, 7880, Note_on_c, 0, 56, 92
1, 7880, Note_on_c, 0, 44, 86
1, 7881, Note_on_c, 0, 58, 83
1, 7881, Note_on_c, 0, 51, 85
1, 7942, Note_off_c, 8, 61, 64
1, 7946, Note_off_c, 8, 70, 64
1, 7956, Note_off_c, 2, 56, 64
1, 7963, Note_off_c, 0, 51, 64
1, 7965, Note_off_c, 2, 61, 64
1, 7966, Note_off_c, 0, 58, 64
1, 7966, Note_off_c, 0, 56, 64
1, 7966, Note_off_c, 2, 63, 64
1, 7968, Note_off_c, 1, 32, 64
1, 7968, Note_on_c, 2, 56, 72
1, 7968, Note_off_c, 5, 58, 64
1, 7968, Note_on_c, 5, 56, 43
1, 7970, Note_off_c, 7, 70, 64
1, 7970, Note_off_c, 7, 61, 64
1, 7971, Note_on_c, 9, 55, 51
1, 7971, Note_on_c, 2, 60, 78
1, 7971, Note_on_c, 8, 68, 81
1, 7972, Note_off_c, 9, 55, 64
1, 7972, Note_on_c, 1, 32, 99
1, 7972, Note_off_c, 7, 58, 64
1, 7972, Note_on_c, 7, 68, 52
1, 7972, Note_on_c, 7, 60, 52
1, 7972, Note_on_c, 8, 60, 87
1, 7973, Note_on_c, 2, 63, 80
1, 7974, Note_on_c, 7, 56, 52
1, 7977, Note_on_c, 0, 56, 74
1, 7978, Note_on_c, 0, 51, 76
1, 7980, Note_off_c, 3, 68, 64
1, 8012, Tempo, 845070
1, 8016, Note_on_c, 9, 46, 75
1, 8017, Note_off_c, 9, 46, 64
1, 8017, Note_off_c, 0, 44, 64
1, 8050, Note_off_c, 8, 60, 64
1, 8050, Note_off_c, 8, 68, 64
1, 8051, Note_off_c, 5, 56, 64
1, 8052, Note_off_c, 2, 56, 64
1, 8056, Note_off_c, 1, 32, 64
1, 8056, Note_off_c, 0, 51, 64
1, 8057, Note_off_c, 0, 56, 64
1, 8060, Note_off_c, 2, 63, 64
1, 8060, Note_off_c, 2, 60, 64
1, 8060, Note_off_c, 7, 56, 64
1, 8060, Note_off_c, 7, 68, 64
1, 8064, Control_c, 9, 91, 65
1, 8064, Note_on_c, 0, 65, 123
1, 8064, Note_on_c, 2, 56, 65
1, 8064, Note_off_c, 7, 60, 64
1, 8064, Note_on_c, 8, 77, 127
1, 8065, Note_on_c, 9, 35, 110
1, 8065, Note_on_c, 7, 77, 47
1, 8066, Note_off_c, 9, 35, 64
1, 8066, Note_on_c, 9, 42, 54
1, 8066, Note_on_c, 0, 49, 87
1, 8066, Note_on_c, 2, 61, 83
1, 8067, Note_off_c, 9, 42, 64
1, 8069, Note_on_c, 1, 37, 110
1, 8069, Control_c, 0, 64, 127
1, 8069, Note_on_c, 2, 65, 65
1, 8070, Lyric_t, "Now "
1, 8070, Note_on_c, 3, 65, 103
1, 8086, Note_on_c, 8, 68, 68
1, 8092, Note_off_c, 8, 77, 64
1, 8110, Note_on_c, 0, 56, 73
1, 8112, Note_off_c, 2, 56, 64
1, 8113, Note_on_c, 8, 73, 95
1, 8115, Note_off_c, 0, 65, 64
1, 8117, Note_on_c, 2, 56, 92
1, 8117, Note_off_c, 8, 68, 64
1, 8120, Note_off_c, 2, 61, 64
1, 8140, Note_on_c, 2, 61, 91
1, 8141, Note_off_c, 2, 65, 64
1, 8155, Note_off_c, 7, 77, 64
1, 8158, Note_on_c, 7, 73, 52
1, 8159, Note_on_c, 0, 61, 93
1, 8159, Note_off_c, 8, 73, 64
1, 8161, Note_on_c, 9, 37, 96
1, 8161, Note_on_c, 9, 42, 49
1, 8162, Note_off_c, 9, 42, 64
1, 8162, Note_off_c, 9, 37, 64
1, 8162, Note_on_c, 8, 68, 109
1, 8163, Note_on_c, 2, 65, 107
1, 8167, Note_off_c, 0, 56, 64
1, 8191, Note_off_c, 3, 65, 64
1, 8205, Note_off_c, 2, 61, 64
1, 8206, Note_off_c, 8, 68, 64
1, 8207, Note_on_c, 0, 56, 88
1, 8209, Note_on_c, 8, 65, 95
1, 8210, Note_off_c, 2, 56, 64
1, 8212, Note_on_c, 2, 61, 95
1, 8213, Note_off_c, 0, 61, 64
1, 8231, Lyric_t, "I "
1, 8231, Note_on_c, 3, 65, 103
1, 8249, Note_off_c, 2, 61, 64
1, 8253, Note_off_c, 2, 65, 64
1, 8253, Note_on_c, 2, 56, 90
1, 8255, Note_on_c, 2, 61, 97
1, 8256, Note_on_c, 9, 42, 46
1, 8256, Note_off_c, 7, 73, 64
1, 8256, Note_on_c, 7, 80, 52
1, 8257, Note_off_c, 3, 65, 64
1, 8257, Note_off_c, 9, 42, 64
1, 8257, Note_on_c, 0, 66, 110
1, 8257, Note_on_c, 2, 65, 96
1, 8263, Lyric_t, "need "
1, 8263, Note_on_c, 3, 66, 110
1, 8265, Note_off_c, 0, 56, 64
1, 8303, Note_on_c, 0, 56, 82
1, 8308, Note_off_c, 0, 66, 64
1, 8310, Note_off_c, 3, 66, 64
1, 8327, Lyric_t, "to "
1, 8327, Note_on_c, 3, 65, 100
1, 8329, Note_on_c, 0, 65, 120
1, 8339, Note_off_c, 0, 56, 64
1, 8345, Note_off_c, 2, 56, 64
1, 8347, Note_on_c, 2, 53, 51
1, 8348, Note_off_c, 2, 61, 64
1, 8349, Note_on_c, 2, 56, 77
1, 8350, Note_off_c, 2, 65, 64
1, 8350, Note_on_c, 2, 61, 84
1, 8351, Note_on_c, 9, 42, 57
1, 8352, Note_off_c, 9, 42, 64
1, 8352, Note_on_c, 2, 65, 86
1, 8358, Note_off_c, 8, 65, 64
1, 8374, Note_on_c, 0, 63, 104
1, 8377, Note_off_c, 3, 65, 64
1, 8378, Note_off_c, 0, 65, 64
1, 8382, Lyric_t, "tell "
1, 8382, Note_on_c, 3, 63, 105
1, 8400, Note_on_c, 9, 42, 46
1, 8401, Note_off_c, 9, 42, 64
1, 8404, Note_off_c, 0, 63, 64
1, 8406, Control_c, 0, 64, 0
1, 8409, Lyric_t, "you "
1, 8409, Note_on_c, 3, 65, 100
1, 8410, Note_off_c, 3, 63, 64
1, 8411, Note_on_c, 0, 65, 111
1, 8414, Note_off_c, 1, 37, 64
1, 8415, Note_off_c, 0, 49, 64
1, 8419, Note_off_c, 2, 65, 64
1, 8419, Note_off_c, 2, 56, 64
1, 8425, Note_off_c, 2, 61, 64
1, 8427, Note_off_c, 2, 53, 64
1, 8439, Note_off_c, 3, 65, 64
1, 8443, Note_off_c, 0, 65, 64
1, 8444, Note_on_c, 2, 53, 94
1, 8446, Lyric_t, "this: "
1, 8446, Lyric_t, "\015"
1, 8446, Note_on_c, 3, 65, 99
1, 8446, Note_on_c, 1, 36, 112
1, 8446, Note_on_c, 0, 48, 90
1, 8447, Note_on_c, 9, 35, 100
1, 8447, Note_on_c, 9, 42, 29
1, 8448, Note_off_c, 9, 42, 64
1, 8448, Note_off_c, 9, 35, 64
1, 8448, Control_c, 0, 64, 127
1, 8448, Note_on_c, 8, 77, 121
1, 8449, Note_on_c, 0, 65, 115
1, 8471, Note_on_c, 8, 68, 95
1, 8480, Note_off_c, 8, 77, 64
1, 8492, Note_on_c, 2, 56, 77
1, 8496, Note_on_c, 8, 72, 110
1, 8497, Note_on_c, 0, 56, 79
1, 8501, Note_off_c, 8, 68, 64
1, 8506, Note_off_c, 0, 65, 64
1, 8514, Note_off_c, 8, 72, 64
1, 8517, Note_on_c, 2, 60, 68
1, 8522, Note_on_c, 8, 72, 120
1, 8543, Note_on_c, 9, 37, 94
1, 8543, Note_on_c, 9, 42, 55
1, 8543, Note_on_c, 0, 60, 98
1, 8543, Note_on_c, 2, 65, 96
1, 8544, Note_off_c, 9, 42, 64
1, 8544, Note_off_c, 9, 37, 64
1, 8549, Note_off_c, 0, 56, 64
1, 8555, Note_off_c, 2, 65, 64
1, 8555, Note_on_c, 2, 66, 87
1, 8565, Note_off_c, 2, 56, 64
1, 8569, Note_off_c, 2, 66, 64
1, 8569, Note_on_c, 2, 65, 83
1, 8580, Note_off_c, 8, 72, 64
1, 8586, Note_off_c, 3, 65, 64
1, 8588, Note_off_c, 2, 60, 64
1, 8590, Note_on_c, 0, 56, 86
1, 8591, Note_on_c, 8, 60, 86
1, 8592, Note_off_c, 7, 80, 64
1, 8592, Note_on_c, 7, 72, 51
1, 8593, Note_on_c, 2, 60, 85
1, 8594, Note_off_c, 0, 60, 64
1, 8616, Note_on_c, 8, 65, 76
1, 8627, Note_off_c, 2, 53, 64
1, 8627, Note_off_c, 8, 60, 64
1, 8631, Note_on_c, 2, 53, 54
1, 8634, Note_off_c, 2, 60, 64
1, 8636, Note_off_c, 2, 65, 64
1, 8636, Note_on_c, 2, 56, 77
1, 8637, Note_on_c, 2, 60, 86
1, 8639, Lyric_t, "There's "
1, 8639, Note_on_c, 3, 66, 115
1, 8639, Note_on_c, 9, 42, 51
1, 8639, Note_on_c, 0, 66, 95
1, 8640, Note_off_c, 9, 42, 64
1, 8640, Note_on_c, 2, 65, 89
1, 8641, Note_off_c, 7, 72, 64
1, 8641, Note_on_c, 7, 80, 50
1, 8643, Note_off_c, 0, 56, 64
1, 8679, Note_off_c, 2, 53, 64
1, 8682, Note_off_c, 2, 56, 64
1, 8683, Note_on_c, 2, 53, 82
1, 8689, Note_on_c, 0, 56, 91
1, 8691, Note_off_c, 0, 66, 64
1, 8704, Note_off_c, 3, 66, 64
1, 8712, Lyric_t, "no "
1, 8712, Note_on_c, 3, 65, 102
1, 8715, Note_on_c, 0, 65, 116
1, 8723, Note_off_c, 2, 53, 64
1, 8730, Note_off_c, 0, 56, 64
1, 8731, Note_off_c, 2, 60, 64
1, 8733, Note_on_c, 2, 56, 88
1, 8733, Note_on_c, 2, 60, 103
1, 8735, Note_off_c, 2, 65, 64
1, 8736, Note_on_c, 2, 65, 100
1, 8736, Note_off_c, 8, 65, 64
1, 8737, Note_on_c, 9, 42, 45
1, 8738, Note_off_c, 9, 42, 64
1, 8758, Note_off_c, 1, 36, 64
1, 8761, Note_off_c, 0, 65, 64
1, 8761, Note_on_c, 0, 63, 95
1, 8762, Lyric_t, "oth"
1, 8762, Note_off_c, 3, 65, 64
1, 8762, Note_on_c, 3, 63, 102
1, 8782, Note_on_c, 1, 32, 107
1, 8783, Note_on_c, 2, 53, 89
1, 8784, Note_on_c, 9, 42, 46
1, 8784, Note_off_c, 2, 56, 64
1, 8785, Note_off_c, 9, 42, 64
1, 8785, Note_on_c, 2, 56, 84
1, 8793, Note_off_c, 0, 63, 64
1, 8794, Lyric_t, "er "
1, 8794, Note_on_c, 3, 65, 99
1, 8794, Note_on_c, 0, 65, 113
1, 8795, Note_off_c, 3, 63, 64
1, 8795, Control_c, 0, 64, 0
1, 8796, Note_off_c, 2, 65, 64
1, 8798, Note_off_c, 2, 56, 64
1, 8799, Note_off_c, 2, 60, 64
1, 8800, Note_off_c, 0, 48, 64
1, 8803, Note_off_c, 2, 53, 64
1, 8808, Note_on_c, 1, 36, 111
1, 8811, Note_off_c, 1, 32, 64
1, 8825, Note_off_c, 3, 65, 64
1, 8827, Note_off_c, 0, 65, 64
1, 8830, Note_on_c, 0, 47, 93
1, 8830, Note_on_c, 2, 56, 90
1, 8832, Lyric_t, "love "
1, 8832, Note_on_c, 3, 65, 102
1, 8832, Note_on_c, 9, 35, 99
1, 8832, Note_on_c, 9, 42, 49
1, 8832, Note_on_c, 0, 65, 119
1, 8833, Note_off_c, 9, 42, 64
1, 8833, Note_off_c, 9, 35, 64
1, 8833, Note_on_c, 2, 59, 82
1, 8835, Note_on_c, 8, 77, 127
1, 8836, Note_on_c, 1, 35, 109
1, 8838, Note_off_c, 1, 36, 64
1, 8845, Control_c, 0, 64, 127
1, 8855, Note_on_c, 8, 68, 96
1, 8869, Note_off_c, 8, 77, 64
1, 8877, Note_on_c, 0, 56, 83
1, 8879, Note_on_c, 8, 71, 110
1, 8884, Note_off_c, 8, 68, 64
1, 8885, Note_off_c, 2, 59, 64
1, 8890, Note_off_c, 0, 65, 64
1, 8925, Note_on_c, 0, 59, 105
1, 8927, Note_on_c, 9, 37, 96
1, 8927, Note_on_c, 9, 42, 55
1, 8927, Note_off_c, 0, 56, 64
1, 8928, Note_off_c, 9, 42, 64
1, 8928, Note_off_c, 9, 37, 64
1, 8929, Note_on_c, 2, 59, 95
1, 8930, Note_on_c, 2, 63, 104
1, 8931, Note_on_c, 2, 68, 84
1, 8973, Note_on_c, 8, 59, 87
1, 8974, Note_off_c, 2, 59, 64
1, 8975, Note_on_c, 0, 63, 91
1, 8975, Note_on_c, 2, 59, 94
1, 8976, Note_off_c, 2, 63, 64
1, 8977, Note_on_c, 2, 63, 95
1, 8997, Note_off_c, 3, 65, 64
1, 9019, Note_off_c, 7, 80, 64
1, 9019, Note_on_c, 7, 83, 66
1, 9021, Note_off_c, 2, 59, 64
1, 9022, Note_on_c, 0, 68, 102
1, 9024, Note_off_c, 0, 63, 64
1, 9024, Note_off_c, 2, 63, 64
1, 9025, Note_on_c, 9, 42, 50
1, 9025, Note_on_c, 2, 59, 76
1, 9026, Note_off_c, 9, 42, 64
1, 9027, Note_off_c, 0, 59, 64
1, 9040, Note_off_c, 8, 71, 64
1, 9060, Note_off_c, 8, 59, 64
1, 9065, Note_off_c, 2, 56, 64
1, 9066, Note_on_c, 2, 56, 86
1, 9067, Note_off_c, 2, 59, 64
1, 9071, Note_on_c, 8, 59, 97
1, 9072, Note_on_c, 0, 56, 100
1, 9092, Note_off_c, 7, 83, 64
1, 9092, Note_on_c, 7, 82, 53
1, 9108, Note_off_c, 0, 68, 64
1, 9113, Note_off_c, 2, 56, 64
1, 9114, Note_on_c, 2, 56, 88
1, 9117, Note_on_c, 2, 59, 95
1, 9119, Note_on_c, 9, 42, 45
1, 9119, Note_on_c, 0, 59, 105
1, 9119, Note_on_c, 2, 63, 68
1, 9120, Note_off_c, 9, 42, 64
1, 9134, Note_off_c, 0, 56, 64
1, 9148, Note_off_c, 8, 59, 64
1, 9152, Note_off_c, 1, 35, 64
1, 9158, Note_off_c, 7, 82, 64
1, 9158, Note_on_c, 7, 80, 50
1, 9163, Note_off_c, 2, 56, 64
1, 9164, Note_on_c, 2, 56, 80
1, 9165, Note_on_c, 1, 32, 107
1, 9165, Note_off_c, 2, 59, 64
1, 9166, Note_on_c, 2, 59, 98
1, 9167, Note_on_c, 9, 35, 89
1, 9167, Note_on_c, 9, 42, 42
1, 9167, Note_on_c, 0, 63, 100
1, 9167, Note_on_c, 8, 63, 99
1, 9168, Lyric_t, "like "
1, 9168, Note_on_c, 3, 63, 118
1, 9168, Note_off_c, 9, 42, 64
1, 9168, Note_off_c, 9, 35, 64
1, 9178, Note_off_c, 0, 59, 64
1, 9188, Control_c, 0, 64, 0
1, 9201, Note_off_c, 0, 47, 64
1, 9203, Note_off_c, 3, 63, 64
1, 9203, Note_off_c, 7, 80, 64
1, 9210, Note_on_c, 1, 34, 109
1, 9211, Note_off_c, 0, 63, 64
1, 9211, Note_on_c, 7, 87, 58
1, 9213, Note_off_c, 2, 59, 64
1, 9213, Note_off_c, 8, 63, 64
1, 9214, Note_off_c, 1, 32, 64
1, 9214, Note_on_c, 2, 59, 75
1, 9214, Note_on_c, 8, 63, 114
1, 9215, Lyric_t, "your "
1, 9215, Note_on_c, 3, 63, 113
1, 9215, Note_on_c, 0, 46, 84
1, 9215, Note_off_c, 2, 63, 64
1, 9216, Note_on_c, 9, 35, 99
1, 9216, Note_on_c, 9, 42, 54
1, 9216, Note_on_c, 0, 63, 104
1, 9216, Note_on_c, 2, 63, 68
1, 9217, Note_off_c, 9, 42, 64
1, 9217, Note_off_c, 9, 35, 64
1, 9218, Note_off_c, 2, 68, 64
1, 9238, Control_c, 0, 64, 127
1, 9259, Note_off_c, 2, 59, 64
1, 9260, Note_on_c, 2, 59, 85
1, 9261, Note_on_c, 8, 68, 96
1, 9265, Note_on_c, 0, 56, 73
1, 9269, Note_off_c, 8, 63, 64
1, 9273, Note_off_c, 0, 63, 64
1, 9308, Note_off_c, 2, 59, 64
1, 9309, Note_off_c, 2, 63, 64
1, 9309, Note_on_c, 2, 59, 97
1, 9310, Note_on_c, 2, 63, 104
1, 9311, Note_on_c, 9, 37, 95
1, 9311, Note_on_c, 9, 42, 51
1, 9312, Note_off_c, 9, 42, 64
1, 9312, Note_off_c, 9, 37, 64
1, 9312, Note_on_c, 2, 68, 91
1, 9313, Note_on_c, 0, 59, 96
1, 9330, Note_off_c, 0, 56, 64
1, 9354, Note_off_c, 2, 56, 64
1, 9355, Note_on_c, 2, 56, 65
1, 9357, Note_off_c, 2, 59, 64
1, 9357, Note_on_c, 8, 63, 90
1, 9358, Note_off_c, 3, 63, 64
1, 9358, Note_on_c, 3, 65, 100
1, 9358, Note_on_c, 2, 59, 113
1, 9358, Note_off_c, 8, 68, 64
1, 9359, Note_off_c, 2, 63, 64
1, 9360, Note_on_c, 2, 63, 115
1, 9361, Note_on_c, 0, 65, 110
1, 9361, Note_off_c, 2, 68, 64
1, 9362, Note_off_c, 0, 59, 64
1, 9362, Note_on_c, 2, 68, 103
1, 9377, Control_c, 0, 64, 0
1, 9385, Note_off_c, 2, 68, 64
1, 9389, Note_off_c, 2, 56, 64
1, 9392, Note_off_c, 2, 59, 64
1, 9392, Note_off_c, 2, 63, 64
1, 9395, Note_off_c, 0, 46, 64
1, 9405, Note_off_c, 3, 65, 64
1, 9406, Lyric_t, "love "
1, 9406, Lyric_t, "\015"
1, 9406, Note_on_c, 3, 62, 103
1, 9406, Note_off_c, 7, 87, 64
1, 9406, Note_on_c, 7, 86, 57
1, 9406, Note_off_c, 8, 63, 64
1, 9408, Note_on_c, 9, 42, 47
1, 9408, Note_off_c, 0, 65, 64
1, 9408, Note_on_c, 0, 62, 111
1, 9408, Note_on_c, 8, 62, 96
1, 9409, Note_off_c, 9, 42, 64
1, 9410, Note_on_c, 0, 46, 74
1, 9410, Note_on_c, 2, 53, 47
1, 9412, Note_on_c, 2, 58, 58
1, 9422, Lyric_t, "\012"
1, 9425, Control_c, 0, 64, 127
1, 9430, Note_off_c, 3, 62, 64
1, 9442, Note_off_c, 1, 34, 64
1, 9452, Lyric_t, "and "
1, 9452, Note_on_c, 3, 68, 118
1, 9452, Note_off_c, 2, 53, 64
1, 9453, Note_on_c, 2, 53, 92
1, 9454, Note_on_c, 9, 35, 114
1, 9454, Note_on_c, 0, 68, 109
1, 9454, Note_off_c, 2, 58, 64
1, 9454, Note_off_c, 7, 86, 64
1, 9454, Note_on_c, 7, 83, 58
1, 9455, Note_off_c, 9, 35, 64
1, 9455, Note_on_c, 2, 58, 115
1, 9456, Note_on_c, 1, 38, 107
1, 9456, Note_on_c, 2, 62, 113
1, 9458, Note_on_c, 2, 67, 76
1, 9496, Note_off_c, 8, 62, 64
1, 9498, Note_off_c, 7, 83, 64
1, 9498, Note_on_c, 7, 82, 54
1, 9505, Note_on_c, 9, 42, 52
1, 9506, Note_off_c, 9, 42, 64
1, 9516, Note_off_c, 3, 68, 64
1, 9517, Note_on_c, 3, 70, 91
1, 9517, Note_off_c, 0, 62, 64
1, 9532, Note_on_c, 3, 68, 103
1, 9541, Note_off_c, 3, 70, 64
1, 9543, Note_off_c, 7, 82, 64
1, 9543, Note_on_c, 7, 80, 52
1, 9546, Note_off_c, 2, 53, 64
1, 9548, Note_off_c, 2, 58, 64
1, 9550, Note_on_c, 2, 58, 75
1, 9551, Note_on_c, 9, 42, 55
1, 9552, Note_on_c, 3, 66, 89
1, 9552, Note_off_c, 9, 42, 64
1, 9556, Note_off_c, 3, 68, 64
1, 9576, Note_off_c, 2, 67, 64
1, 9582, Note_off_c, 2, 62, 64
1, 9583, Control_c, 0, 64, 0
1, 9584, Note_off_c, 0, 68, 64
1, 9584, Note_off_c, 2, 58, 64
1, 9588, Note_off_c, 0, 46, 64
1, 9591, Note_off_c, 3, 66, 64
1, 9591, Note_off_c, 1, 38, 64
1, 9592, Note_off_c, 7, 80, 64
1, 9592, Note_on_c, 7, 78, 53
1, 9596, Note_on_c, 2, 54, 76
1, 9598, Lyric_t, "I, "
1, 9598, Note_on_c, 3, 66, 100
1, 9599, Note_on_c, 9, 35, 99
1, 9599, Note_on_c, 9, 42, 54
1, 9599, Note_on_c, 1, 39, 107
1, 9599, Note_on_c, 0, 66, 106
1, 9599, Note_on_c, 0, 51, 92
1, 9599, Note_on_c, 2, 58, 99
1, 9600, Note_off_c, 9, 42, 64
1, 9600, Note_off_c, 9, 35, 64
1, 9600, Note_on_c, 2, 63, 97
1, 9600, Note_on_c, 8, 66, 101
1, 9602, Note_on_c, 2, 66, 69
1, 9623, Control_c, 0, 64, 127
1, 9647, Note_off_c, 2, 58, 64
1, 9648, Note_on_c, 8, 58, 86
1, 9649, Note_on_c, 0, 58, 79
1, 9649, Note_on_c, 2, 58, 74
1, 9651, Note_off_c, 8, 66, 64
1, 9658, Note_off_c, 0, 66, 64
1, 9691, Note_off_c, 2, 58, 64
1, 9693, Note_off_c, 2, 66, 64
1, 9694, Note_off_c, 2, 63, 64
1, 9694, Note_on_c, 2, 58, 88
1, 9695, Note_on_c, 9, 37, 95
1, 9695, Note_on_c, 9, 42, 51
1, 9695, Note_on_c, 0, 63, 99
1, 9695, Note_on_c, 2, 63, 95
1, 9696, Note_off_c, 9, 42, 64
1, 9696, Note_off_c, 9, 37, 64
1, 9697, Note_on_c, 2, 66, 92
1, 9709, Note_off_c, 3, 66, 64
1, 9711, Note_off_c, 0, 58, 64
1, 9739, Note_off_c, 2, 58, 64
1, 9740, Note_off_c, 7, 78, 64
1, 9740, Note_on_c, 7, 75, 55
1, 9741, Note_on_c, 2, 58, 75
1, 9742, Note_off_c, 2, 63, 64
1, 9743, Note_off_c, 2, 66, 64
1, 9743, Note_on_c, 2, 63, 99
1, 9744, Note_on_c, 0, 58, 81
1, 9744, Note_on_c, 2, 66, 99
1, 9756, Note_off_c, 0, 63, 64
1, 9787, Note_off_c, 2, 58, 64
1, 9787, Note_off_c, 7, 75, 64
1, 9787, Note_on_c, 7, 82, 54
1, 9789, Note_off_c, 2, 63, 64
1, 9790, Lyric_t, "as "
1, 9790, Note_on_c, 3, 68, 112
1, 9791, Note_on_c, 2, 63, 65
1, 9792, Note_on_c, 9, 42, 53
1, 9792, Note_on_c, 0, 68, 103
1, 9793, Note_off_c, 9, 42, 64
1, 9793, Note_off_c, 2, 66, 64
1, 9794, Note_on_c, 2, 66, 57
1, 9803, Note_off_c, 0, 58, 64
1, 9824, Note_off_c, 8, 58, 64
1, 9836, Note_on_c, 2, 58, 77
1, 9837, Note_off_c, 2, 63, 64
1, 9838, Note_on_c, 2, 63, 83
1, 9839, Note_on_c, 0, 58, 86
1, 9839, Note_off_c, 2, 66, 64
1, 9840, Note_on_c, 2, 66, 75
1, 9845, Note_off_c, 0, 68, 64
1, 9858, Note_off_c, 3, 68, 64
1, 9862, Note_on_c, 0, 66, 97
1, 9863, Lyric_t, "long "
1, 9863, Note_on_c, 3, 66, 106
1, 9880, Note_off_c, 2, 54, 64
1, 9881, Note_off_c, 0, 58, 64
1, 9883, Note_off_c, 2, 58, 64
1, 9885, Note_on_c, 2, 58, 95
1, 9886, Note_off_c, 2, 63, 64
1, 9887, Note_on_c, 9, 42, 53
1, 9887, Note_on_c, 2, 63, 92
1, 9888, Note_off_c, 9, 42, 64
1, 9888, Note_off_c, 2, 66, 64
1, 9889, Note_on_c, 2, 66, 70
1, 9909, Note_off_c, 3, 66, 64
1, 9909, Note_on_c, 0, 65, 105
1, 9912, Lyric_t, "as "
1, 9912, Note_on_c, 3, 65, 99
1, 9916, Note_off_c, 0, 66, 64
1, 9926, Note_off_c, 1, 39, 64
1, 9931, Note_off_c, 2, 58, 64
1, 9932, Note_on_c, 2, 58, 86
1, 9933, Note_off_c, 2, 63, 64
1, 9934, Note_on_c, 2, 63, 90
1, 9935, Note_on_c, 9, 35, 95
1, 9935, Note_on_c, 9, 42, 50
1, 9935, Note_on_c, 1, 34, 109
1, 9935, Note_off_c, 2, 66, 64
1, 9936, Note_off_c, 9, 42, 64
1, 9936, Note_off_c, 9, 35, 64
1, 9936, Note_on_c, 2, 66, 84
1, 9942, Note_off_c, 3, 65, 64
1, 9943, Lyric_t, "I "
1, 9943, Note_on_c, 3, 66, 96
1, 9946, Note_on_c, 0, 66, 95
1, 9948, Note_off_c, 0, 51, 64
1, 9950, Note_off_c, 0, 65, 64
1, 9951, Control_c, 0, 64, 0
1, 9973, Note_on_c, 8, 66, 105
1, 9976, Note_off_c, 3, 66, 64
1, 9976, Note_off_c, 2, 63, 64
1, 9978, Note_off_c, 2, 58, 64
1, 9981, Note_on_c, 0, 50, 87
1, 9981, Note_on_c, 2, 58, 92
1, 9982, Lyric_t, "live, "
1, 9982, Lyric_t, "\015"
1, 9982, Note_on_c, 3, 66, 100
1, 9982, Note_off_c, 0, 66, 64
1, 9983, Note_on_c, 9, 35, 98
1, 9983, Note_on_c, 9, 42, 55
1, 9983, Note_on_c, 1, 38, 111
1, 9983, Note_on_c, 2, 62, 87
1, 9984, Note_off_c, 9, 42, 64
1, 9984, Note_off_c, 9, 35, 64
1, 9985, Note_off_c, 1, 34, 64
1, 9985, Note_on_c, 0, 66, 106
1, 10001, Control_c, 0, 64, 127
1, 10027, Note_off_c, 2, 58, 64
1, 10029, Note_on_c, 2, 58, 86
1, 10030, Note_on_c, 8, 58, 86
1, 10031, Note_off_c, 2, 62, 64
1, 10031, Note_off_c, 8, 66, 64
1, 10033, Note_on_c, 0, 58, 82
1, 10044, Note_off_c, 0, 66, 64
1, 10073, Note_on_c, 2, 54, 33
1, 10074, Note_off_c, 2, 58, 64
1, 10076, Note_on_c, 2, 58, 88
1, 10078, Note_off_c, 2, 66, 64
1, 10078, Note_on_c, 2, 62, 84
1, 10079, Note_on_c, 9, 37, 95
1, 10079, Note_on_c, 9, 42, 53
1, 10079, Note_on_c, 0, 62, 104
1, 10079, Note_on_c, 2, 66, 72
1, 10080, Note_off_c, 9, 42, 64
1, 10080, Note_off_c, 9, 37, 64
1, 10091, Note_off_c, 3, 66, 64
1, 10091, Note_off_c, 0, 58, 64
1, 10123, Note_off_c, 7, 82, 64
1, 10123, Note_on_c, 7, 75, 55
1, 10125, Note_off_c, 2, 58, 64
1, 10126, Note_on_c, 2, 58, 95
1, 10127, Note_off_c, 2, 62, 64
1, 10128, Note_on_c, 0, 58, 76
1, 10128, Note_off_c, 2, 66, 64
1, 10128, Note_on_c, 2, 62, 100
1, 10129, Note_on_c, 2, 66, 90
1, 10134, Note_off_c, 0, 62, 64
1, 10145, Lyric_t, "I'll "
1, 10145, Note_on_c, 3, 66, 102
1, 10173, Note_off_c, 7, 75, 64
1, 10173, Note_on_c, 7, 82, 54
1, 10174, Note_on_c, 9, 42, 55
1, 10175, Note_off_c, 9, 42, 64
1, 10176, Note_off_c, 2, 62, 64
1, 10177, Note_on_c, 0, 68, 103
1, 10178, Note_off_c, 3, 66, 64
1, 10179, Note_off_c, 2, 66, 64
1, 10180, Lyric_t, "give "
1, 10180, Note_on_c, 3, 68, 99
1, 10184, Note_off_c, 8, 58, 64
1, 10197, Note_off_c, 0, 58, 64
1, 10221, Note_off_c, 2, 58, 64
1, 10223, Note_on_c, 2, 58, 90
1, 10224, Note_on_c, 0, 58, 73
1, 10225, Note_on_c, 2, 62, 83
1, 10240, Lyric_t, "you "
1, 10240, Note_on_c, 3, 66, 105
1, 10240, Note_off_c, 0, 68, 64
1, 10244, Note_off_c, 3, 68, 64
1, 10251, Note_on_c, 0, 66, 95
1, 10266, Note_off_c, 2, 54, 64
1, 10268, Note_on_c, 2, 54, 33
1, 10269, Note_off_c, 2, 58, 64
1, 10271, Note_on_c, 9, 42, 53
1, 10271, Note_on_c, 2, 58, 97
1, 10272, Note_off_c, 9, 42, 64
1, 10272, Note_off_c, 2, 62, 64
1, 10273, Note_on_c, 2, 62, 90
1, 10280, Note_off_c, 0, 58, 64
1, 10295, Note_on_c, 0, 65, 96
1, 10296, Note_off_c, 3, 66, 64
1, 10298, Lyric_t, "all "
1, 10298, Note_on_c, 3, 65, 98
1, 10300, Note_off_c, 0, 66, 64
1, 10319, Note_on_c, 1, 46, 109
1, 10319, Note_off_c, 2, 58, 64
1, 10320, Note_on_c, 9, 35, 95
1, 10320, Note_on_c, 9, 42, 51
1, 10320, Note_off_c, 2, 62, 64
1, 10320, Note_on_c, 2, 58, 105
1, 10321, Note_off_c, 9, 42, 64
1, 10321, Note_off_c, 9, 35, 64
1, 10321, Note_on_c, 2, 62, 105
1, 10324, Note_off_c, 1, 38, 64
1, 10327, Note_off_c, 3, 65, 64
1, 10329, Lyric_t, "the "
1, 10329, Note_on_c, 3, 66, 95
1, 10331, Note_on_c, 0, 66, 100
1, 10335, Note_off_c, 0, 65, 64
1, 10341, Control_c, 0, 64, 0
1, 10348, Note_off_c, 0, 50, 64
1, 10348, Note_off_c, 2, 62, 64
1, 10356, Note_off_c, 0, 66, 64
1, 10360, Note_off_c, 3, 66, 64
1, 10366, Note_on_c, 0, 66, 99
1, 10366, Note_on_c, 8, 66, 105
1, 10367, Note_on_c, 9, 35, 98
1, 10367, Note_on_c, 9, 42, 48
1, 10367, Note_on_c, 0, 49, 84
1, 10367, Note_off_c, 2, 58, 64
1, 10368, Lyric_t, "joy "
1, 10368, Lyric_t, "\015"
1, 10368, Note_on_c, 3, 66, 104
1, 10368, Note_off_c, 9, 42, 64
1, 10368, Note_off_c, 9, 35, 64
1, 10368, Note_off_c, 1, 46, 64
1, 10368, Note_on_c, 1, 37, 105
1, 10368, Note_on_c, 2, 58, 105
1, 10370, Note_on_c, 2, 61, 88
1, 10370, Note_off_c, 2, 61, 64
1, 10371, Note_on_c, 2, 61, 90
1, 10381, Control_c, 0, 64, 127
1, 10412, Note_off_c, 2, 54, 64
1, 10414, Note_on_c, 0, 56, 82
1, 10414, Note_on_c, 2, 54, 55
1, 10416, Note_off_c, 2, 58, 64
1, 10416, Note_off_c, 8, 66, 64
1, 10416, Note_on_c, 8, 56, 88
1, 10417, Note_on_c, 2, 58, 80
1, 10429, Note_off_c, 0, 66, 64
1, 10459, Note_off_c, 2, 58, 64
1, 10462, Note_on_c, 0, 61, 93
1, 10462, Note_off_c, 2, 61, 64
1, 10462, Note_on_c, 2, 58, 91
1, 10463, Note_on_c, 9, 37, 94
1, 10463, Note_on_c, 9, 42, 55
1, 10463, Note_on_c, 2, 61, 88
1, 10464, Note_off_c, 9, 42, 64
1, 10464, Note_off_c, 9, 37, 64
1, 10465, Note_on_c, 2, 66, 46
1, 10469, Note_off_c, 0, 56, 64
1, 10474, Note_off_c, 8, 56, 64
1, 10504, Note_off_c, 3, 66, 64
1, 10505, Note_off_c, 2, 54, 64
1, 10506, Note_off_c, 2, 58, 64
1, 10506, Note_on_c, 2, 54, 75
1, 10508, Note_on_c, 2, 58, 110
1, 10509, Lyric_t, "my "
1, 10509, Note_on_c, 3, 65, 103
1, 10509, Note_off_c, 2, 61, 64
1, 10510, Note_on_c, 0, 65, 98
1, 10510, Note_on_c, 2, 61, 102
1, 10510, Note_off_c, 7, 82, 64
1, 10510, Note_on_c, 7, 80, 54
1, 10511, Note_on_c, 8, 65, 98
1, 10518, Note_off_c, 0, 61, 64
1, 10555, Note_off_c, 7, 80, 64
1, 10555, Note_on_c, 7, 85, 58
1, 10556, Note_off_c, 3, 65, 64
1, 10556, Note_off_c, 8, 65, 64
1, 10557, Note_on_c, 8, 63, 95
1, 10559, Lyric_t, "heart "
1, 10559, Note_on_c, 3, 63, 105
1, 10559, Note_on_c, 9, 42, 52
1, 10559, Note_on_c, 0, 63, 92
1, 10560, Note_off_c, 9, 42, 64
1, 10562, Note_off_c, 0, 65, 64
1, 10594, Note_off_c, 2, 58, 64
1, 10598, Note_off_c, 2, 66, 64
1, 10599, Note_off_c, 2, 54, 64
1, 10603, Note_on_c, 2, 58, 65
1, 10605, Note_off_c, 2, 61, 64
1, 10606, Note_on_c, 2, 61, 83
1, 10607, Note_on_c, 2, 66, 76
1, 10650, Note_off_c, 2, 61, 64
1, 10650, Note_on_c, 2, 54, 42
1, 10651, Note_off_c, 2, 58, 64
1, 10653, Note_on_c, 2, 58, 92
1, 10655, Note_on_c, 9, 42, 52
1, 10655, Note_on_c, 2, 61, 83
1, 10656, Note_off_c, 9, 42, 64
1, 10668, Note_off_c, 8, 63, 64
1, 10702, Note_off_c, 3, 63, 64
1, 10702, Note_off_c, 2, 61, 64
1, 10702, Note_off_c, 2, 58, 64
1, 10702, Note_off_c, 2, 66, 64
1, 10703, Note_on_c, 9, 42, 53
1, 10703, Note_on_c, 0, 61, 88
1, 10703, Note_on_c, 2, 58, 97
1, 10703, Note_off_c, 7, 85, 64
1, 10703, Note_on_c, 7, 77, 56
1, 10704, Note_off_c, 9, 42, 64
1, 10704, Note_off_c, 1, 37, 64
1, 10704, Note_off_c, 0, 63, 64
1, 10704, Note_on_c, 2, 61, 103
1, 10705, Lyric_t, "and "
1, 10705, Note_on_c, 3, 61, 88
1, 10705, Note_on_c, 2, 66, 86
1, 10707, Note_on_c, 1, 34, 113
1, 10716, Note_off_c, 0, 49, 64
1, 10730, Note_on_c, 1, 33, 107
1, 10731, Note_off_c, 1, 34, 64
1, 10732, Note_off_c, 2, 61, 64
1, 10732, Note_off_c, 2, 58, 64
1, 10735, Control_c, 0, 64, 0
1, 10736, Note_off_c, 2, 54, 64
1, 10736, Note_off_c, 2, 66, 64
1, 10744, Note_off_c, 3, 61, 64
1, 10746, Note_off_c, 0, 61, 64
1, 10747, Note_off_c, 1, 33, 64
1, 10749, Note_off_c, 7, 77, 64
1, 10749, Note_on_c, 7, 80, 59
1, 10751, Note_on_c, 0, 44, 90
1, 10752, Lyric_t, "soul "
1, 10752, Note_on_c, 3, 65, 104
1, 10752, Note_on_c, 9, 35, 101
1, 10752, Note_on_c, 9, 42, 49
1, 10753, Note_off_c, 9, 42, 64
1, 10753, Note_off_c, 9, 35, 64
1, 10754, Note_on_c, 1, 32, 113
1, 10754, Note_on_c, 0, 65, 105
1, 10756, Note_on_c, 2, 53, 33
1, 10779, Control_c, 0, 64, 127
1, 10799, Note_off_c, 2, 53, 64
1, 10800, Note_on_c, 2, 53, 61
1, 10801, Note_on_c, 0, 56, 79
1, 10802, Note_off_c, 0, 65, 64
1, 10803, Note_on_c, 2, 56, 69
1, 10844, Note_off_c, 2, 56, 64
1, 10847, Note_on_c, 2, 56, 97
1, 10848, Note_on_c, 9, 37, 96
1, 10848, Note_on_c, 9, 42, 52
1, 10848, Note_on_c, 0, 61, 92
1, 10849, Note_off_c, 9, 42, 64
1, 10849, Note_off_c, 9, 37, 64
1, 10850, Note_on_c, 2, 61, 95
1, 10894, Note_off_c, 0, 56, 64
1, 10895, Note_off_c, 2, 56, 64
1, 10895, Note_off_c, 7, 80, 64
1, 10895, Note_on_c, 7, 73, 54
1, 10897, Note_on_c, 0, 66, 97
1, 10897, Note_off_c, 2, 61, 64
1, 10897, Note_on_c, 2, 56, 101
1, 10898, Note_on_c, 9, 51, 63
1, 10899, Lyric_t, "can "
1, 10899, Note_on_c, 3, 66, 99
1, 10899, Note_off_c, 9, 51, 64
1, 10899, Note_on_c, 2, 61, 77
1, 10901, Note_off_c, 0, 61, 64
1, 10903, Note_off_c, 3, 65, 64
1, 10920, Control_c, 0, 64, 0
1, 10923, Note_off_c, 3, 66, 64
1, 10927, Note_on_c, 3, 65, 103
1, 10936, Note_off_c, 0, 44, 64
1, 10936, Note_off_c, 2, 56, 64
1, 10938, Note_off_c, 2, 61, 64
1, 10938, Note_off_c, 2, 53, 64
1, 10940, Note_off_c, 1, 32, 64
1, 10942, Note_on_c, 1, 44, 105
1, 10942, Note_on_c, 2, 51, 70
1, 10943, Note_off_c, 3, 65, 64
1, 10944, Note_on_c, 9, 35, 105
1, 10944, Note_on_c, 9, 55, 71
1, 10945, Note_off_c, 9, 55, 64
1, 10945, Note_off_c, 9, 35, 64
1, 10945, Note_on_c, 0, 63, 103
1, 10945, Note_on_c, 0, 44, 71
1, 10945, Note_on_c, 2, 56, 114
1, 10945, Note_off_c, 7, 73, 64
1, 10945, Note_on_c, 7, 75, 46
1, 10947, Note_on_c, 2, 60, 103
1, 10949, Note_off_c, 0, 66, 64
1, 10950, Lyric_t, "give. "
1, 10950, Lyric_t, "\015"
1, 10950, Note_on_c, 3, 65, 111
1, 10957, Control_c, 0, 64, 127
1, 10972, Note_off_c, 3, 65, 64
1, 10973, Note_on_c, 3, 63, 101
1, 10991, Note_on_c, 9, 42, 55
1, 10992, Note_off_c, 9, 42, 64
1, 10992, Note_on_c, 0, 56, 71
1, 10997, Note_off_c, 0, 63, 64
1, 11034, Note_off_c, 2, 51, 64
1, 11038, Note_on_c, 2, 51, 88
1, 11039, Note_on_c, 9, 42, 47
1, 11039, Note_off_c, 2, 60, 64
1, 11039, Note_off_c, 2, 56, 64
1, 11040, Note_off_c, 9, 42, 64
1, 11040, Note_on_c, 0, 61, 107
1, 11040, Note_on_c, 2, 56, 104
1, 11042, Note_on_c, 2, 61, 88
1, 11046, Note_off_c, 0, 56, 64
1, 11087, Note_on_c, 0, 56, 75
1, 11088, Note_on_c, 9, 42, 61
1, 11089, Note_off_c, 9, 42, 64
1, 11090, Note_off_c, 0, 61, 64
1, 11111, Control_c, 0, 64, 0
1, 11118, Note_off_c, 2, 51, 64
1, 11121, Note_off_c, 0, 44, 64
1, 11122, Note_off_c, 2, 56, 64
1, 11126, Note_on_c, 2, 51, 86
1, 11131, Note_on_c, 2, 56, 97
1, 11132, Note_off_c, 3, 63, 64
1, 11134, Note_on_c, 1, 56, 101
1, 11134, Note_on_c, 0, 60, 104
1, 11135, Note_on_c, 0, 44, 76
1, 11135, Note_on_c, 5, 60, 45
1, 11136, Note_on_c, 9, 35, 104
1, 11136, Note_on_c, 9, 46, 70
1, 11137, Note_off_c, 9, 46, 64
1, 11137, Note_off_c, 9, 35, 64
1, 11137, Note_off_c, 1, 44, 64
1, 11137, Note_off_c, 2, 61, 64
1, 11137, Note_on_c, 6, 72, 70
1, 11138, Note_on_c, 2, 60, 105
1, 11140, Note_off_c, 0, 56, 64
1, 11143, Control_c, 0, 64, 127
1, 11185, Note_on_c, 9, 42, 61
1, 11185, Note_on_c, 0, 56, 69
1, 11186, Note_off_c, 9, 42, 64
1, 11194, Note_off_c, 0, 60, 64
1, 11216, Note_off_c, 2, 60, 64
1, 11217, Note_off_c, 6, 72, 64
1, 11219, Note_off_c, 2, 51, 64
1, 11222, Note_off_c, 2, 56, 64
1, 11222, Note_on_c, 2, 51, 64
1, 11223, Note_off_c, 5, 60, 64
1, 11228, Note_on_c, 2, 56, 101
1, 11230, Note_on_c, 5, 61, 85
1, 11230, Note_on_c, 6, 73, 61
1, 11231, Note_on_c, 9, 37, 96
1, 11232, Note_off_c, 9, 37, 64
1, 11232, Note_on_c, 0, 61, 97
1, 11232, Note_on_c, 2, 61, 101
1, 11234, Lyric_t, "\012"
1, 11240, Note_off_c, 0, 56, 64
1, 11273, Note_off_c, 2, 51, 64
1, 11279, Note_on_c, 2, 51, 91
1, 11283, Note_on_c, 0, 56, 74
1, 11290, Note_off_c, 0, 61, 64
1, 11304, Control_c, 0, 64, 0
1, 11312, Note_off_c, 2, 61, 64
1, 11318, Note_off_c, 2, 56, 64
1, 11322, Note_on_c, 2, 56, 111
1, 11322, Note_off_c, 5, 61, 64
1, 11325, Note_off_c, 6, 73, 64
1, 11327, Note_on_c, 2, 63, 103
1, 11327, Note_on_c, 5, 60, 86
1, 11328, Note_on_c, 6, 75, 68
1, 11330, Note_on_c, 0, 63, 98
1, 11335, Control_c, 0, 64, 127
1, 11336, Note_off_c, 0, 56, 64
1, 11346, Note_off_c, 5, 60, 64
1, 11356, Note_off_c, 1, 56, 64
1, 11363, Note_on_c, 5, 61, 84
1, 11375, Note_off_c, 2, 51, 64
1, 11376, Note_on_c, 1, 51, 100
1, 11378, Note_on_c, 0, 56, 73
1, 11378, Note_off_c, 5, 61, 64
1, 11380, Note_on_c, 2, 51, 57
1, 11386, Note_off_c, 0, 63, 64
1, 11393, Note_on_c, 5, 63, 89
1, 11407, Note_off_c, 2, 63, 64
1, 11409, Pitch_bend_c, 1, 7606
1, 11410, Note_off_c, 2, 51, 64
1, 11410, Note_off_c, 5, 63, 64
1, 11411, Pitch_bend_c, 1, 6670
1, 11413, Pitch_bend_c, 1, 5968
1, 11413, Note_on_c, 2, 51, 76
1, 11414, Note_off_c, 2, 56, 64
1, 11415, Pitch_bend_c, 1, 5266
1, 11417, Pitch_bend_c, 1, 4681
1, 11418, Pitch_bend_c, 1, 4330
1, 11418, Note_on_c, 2, 56, 101
1, 11419, Note_off_c, 6, 75, 64
1, 11420, Note_off_c, 1, 51, 64
1, 11420, Pitch_bend_c, 1, 3979
1, 11423, Note_on_c, 2, 61, 82
1, 11423, Note_on_c, 5, 63, 73
1, 11424, Control_c, 9, 91, 84
1, 11425, Note_on_c, 9, 45, 98
1, 11425, Note_on_c, 1, 44, 103
1, 11425, Note_on_c, 0, 61, 97
1, 11426, Note_off_c, 9, 45, 64
1, 11426, Pitch_bend_c, 1, 4447
1, 11426, Note_on_c, 6, 73, 67
1, 11427, Pitch_bend_c, 1, 5851
1, 11429, Pitch_bend_c, 1, 8192
1, 11430, Note_off_c, 0, 56, 64
1, 11438, Note_off_c, 1, 44, 64
1, 11449, Note_off_c, 5, 63, 64
1, 11454, Note_on_c, 5, 68, 79
1, 11456, Note_on_c, 9, 47, 102
1, 11457, Lyric_t, "Let "
1, 11457, Note_on_c, 3, 61, 115
1, 11457, Note_off_c, 9, 47, 64
1, 11458, Note_on_c, 1, 39, 106
1, 11470, Note_off_c, 1, 39, 64
1, 11474, Note_on_c, 8, 56, 99
1, 11477, Note_off_c, 5, 68, 64
1, 11479, Note_on_c, 8, 58, 95
1, 11480, Note_off_c, 8, 56, 64
1, 11482, Note_off_c, 3, 61, 64
1, 11485, Note_on_c, 8, 60, 106
1, 11486, Note_off_c, 0, 61, 64
1, 11487, Note_off_c, 8, 58, 64
1, 11489, Note_on_c, 9, 41, 101
1, 11489, Note_off_c, 6, 73, 64
1, 11490, Note_off_c, 9, 41, 64
1, 11490, Note_on_c, 1, 32, 105
1, 11490, Note_on_c, 5, 63, 89
1, 11491, Note_on_c, 8, 61, 110
1, 11492, Note_off_c, 8, 60, 64
1, 11495, Lyric_t, "me "
1, 11495, Note_on_c, 3, 61, 112
1, 11495, Note_on_c, 8, 63, 120
1, 11496, Note_off_c, 0, 44, 64
1, 11498, Note_off_c, 8, 61, 64
1, 11500, Note_off_c, 2, 56, 64
1, 11500, Note_on_c, 8, 65, 118
1, 11502, Note_off_c, 8, 63, 64
1, 11503, Note_off_c, 2, 51, 64
1, 11505, Note_off_c, 1, 32, 64
1, 11505, Control_c, 0, 64, 0
1, 11505, Note_on_c, 8, 66, 116
1, 11507, Note_off_c, 8, 65, 64
1, 11509, Note_off_c, 2, 61, 64
1, 11509, Note_on_c, 8, 68, 116
1, 11510, Note_off_c, 7, 75, 64
1, 11511, Note_off_c, 8, 66, 64
1, 11514, Note_on_c, 8, 70, 113
1, 11515, Note_off_c, 5, 63, 64
1, 11516, Note_off_c, 8, 68, 64
1, 11517, Note_off_c, 3, 61, 64
1, 11517, Note_on_c, 11, 61, 87
1, 11518, Control_c, 11, 1, 0
1, 11518, Pitch_bend_c, 11, 8192
1, 11521, Note_on_c, 0, 61, 99
1, 11521, Note_on_c, 0, 70, 96
1, 11521, Note_on_c, 11, 65, 95
1, 11522, Control_c, 9, 91, 65
1, 11522, Note_on_c, 9, 55, 50
1, 11522, Note_on_c, 9, 52, 50
1, 11522, Note_on_c, 0, 65, 98
1, 11522, Note_on_c, 0, 42, 88
1, 11522, Note_on_c, 10, 77, 61
1, 11523, Note_off_c, 9, 52, 64
1, 11523, Note_off_c, 9, 55, 64
1, 11523, Note_on_c, 9, 35, 109
1, 11524, Note_off_c, 9, 35, 64
1, 11524, Note_on_c, 1, 30, 114
1, 11524, Note_on_c, 5, 65, 69
1, 11526, Note_on_c, 6, 77, 72
1, 11527, Note_on_c, 11, 70, 95
1, 11529, Lyric_t, "hold "
1, 11529, Note_on_c, 3, 61, 118
1, 11569, Note_on_c, 0, 58, 74
1, 11570, Note_off_c, 3, 61, 64
1, 11571, Lyric_t, "you; "
1, 11571, Lyric_t, "\015"
1, 11571, Note_on_c, 3, 70, 109
1, 11614, Note_on_c, 8, 61, 114
1, 11616, Note_off_c, 0, 61, 64
1, 11617, Note_on_c, 9, 37, 63
1, 11617, Note_on_c, 9, 51, 78
1, 11617, Note_on_c, 0, 61, 74
1, 11617, Note_on_c, 2, 70, 104
1, 11618, Note_off_c, 9, 51, 64
1, 11618, Note_off_c, 9, 37, 64
1, 11620, Note_on_c, 6, 85, 70
1, 11630, Note_off_c, 6, 77, 64
1, 11634, Note_off_c, 8, 70, 64
1, 11640, Note_off_c, 0, 58, 64
1, 11663, Note_on_c, 0, 58, 73
1, 11663, Note_on_c, 2, 65, 99
1, 11664, Note_on_c, 7, 85, 72
1, 11667, Note_on_c, 8, 65, 102
1, 11671, Note_off_c, 0, 70, 64
1, 11681, Note_off_c, 8, 61, 64
1, 11710, Note_on_c, 7, 84, 70
1, 11711, Note_on_c, 0, 70, 110
1, 11712, Note_off_c, 7, 85, 64
1, 11713, Note_on_c, 9, 51, 76
1, 11713, Note_on_c, 2, 61, 73
1, 11713, Note_off_c, 6, 85, 64
1, 11713, Note_on_c, 6, 77, 70
1, 11714, Note_off_c, 9, 51, 64
1, 11714, Note_on_c, 8, 70, 96
1, 11722, Note_off_c, 8, 65, 64
1, 11748, Note_off_c, 0, 58, 64
1, 11758, Note_off_c, 2, 70, 64
1, 11759, Note_on_c, 0, 58, 79
1, 11759, Note_on_c, 2, 70, 102
1, 11788, Note_off_c, 8, 70, 64
1, 11801, Note_off_c, 2, 65, 64
1, 11807, Note_off_c, 0, 61, 64
1, 11808, Note_on_c, 9, 37, 59
1, 11808, Note_on_c, 9, 51, 76
1, 11808, Note_on_c, 0, 61, 72
1, 11809, Note_off_c, 9, 51, 64
1, 11809, Note_off_c, 9, 37, 64
1, 11810, Note_on_c, 2, 65, 94
1, 11817, Note_off_c, 11, 70, 64
1, 11819, Note_off_c, 1, 30, 64
1, 11822, Note_off_c, 11, 65, 64
1, 11824, Note_off_c, 11, 61, 64
1, 11827, Note_off_c, 0, 70, 64
1, 11830, Note_off_c, 0, 65, 64
1, 11834, Note_off_c, 0, 58, 64
1, 11834, Note_on_c, 0, 70, 116
1, 11835, Note_on_c, 1, 36, 113
1, 11851, Note_off_c, 1, 36, 64
1, 11856, Note_on_c, 7, 82, 72
1, 11857, Note_off_c, 0, 61, 64
1, 11857, Note_on_c, 0, 58, 71
1, 11858, Note_on_c, 6, 78, 67
1, 11859, Note_off_c, 7, 84, 64
1, 11864, Note_off_c, 6, 77, 64
1, 11866, Note_off_c, 0, 70, 64
1, 11869, Note_on_c, 1, 37, 108
1, 11875, Note_on_c, 0, 72, 113
1, 11885, Note_off_c, 1, 37, 64
1, 11890, Note_off_c, 2, 61, 64
1, 11895, Note_on_c, 8, 60, 90
1, 11896, Note_off_c, 0, 42, 64
1, 11896, Note_off_c, 7, 82, 64
1, 11899, Note_off_c, 2, 65, 64
1, 11900, Note_off_c, 0, 58, 64
1, 11901, Note_off_c, 2, 70, 64
1, 11901, Note_on_c, 7, 82, 68
1, 11902, Note_on_c, 11, 63, 98
1, 11902, Note_on_c, 11, 60, 83
1, 11902, Note_on_c, 5, 63, 61
1, 11904, Note_off_c, 3, 70, 64
1, 11904, Note_on_c, 9, 35, 105
1, 11904, Note_on_c, 9, 51, 79
1, 11905, Note_off_c, 9, 51, 64
1, 11905, Note_off_c, 9, 35, 64
1, 11905, Note_on_c, 0, 68, 106
1, 11905, Note_on_c, 0, 41, 72
1, 11905, Note_on_c, 10, 75, 38
1, 11906, Note_on_c, 1, 29, 109
1, 11906, Note_off_c, 5, 65, 64
1, 11906, Note_on_c, 8, 68, 96
1, 11907, Note_off_c, 6, 78, 64
1, 11907, Note_off_c, 10, 77, 64
1, 11908, Note_on_c, 11, 68, 91
1, 11908, Note_on_c, 6, 75, 63
1, 11913, Note_off_c, 0, 72, 64
1, 11926, Note_on_c, 7, 84, 63
1, 11928, Note_off_c, 8, 60, 64
1, 11934, Note_off_c, 7, 82, 64
1, 11951, Note_on_c, 7, 80, 64
1, 11953, Note_on_c, 0, 56, 73
1, 11958, Note_off_c, 7, 84, 64
1, 11970, Note_off_c, 8, 68, 64
1, 11975, Note_on_c, 2, 63, 105
1, 12000, Note_on_c, 9, 37, 56
1, 12000, Note_on_c, 9, 51, 80
1, 12000, Note_on_c, 0, 60, 77
1, 12001, Note_off_c, 9, 51, 64
1, 12001, Note_off_c, 9, 37, 64
1, 12005, Note_on_c, 2, 68, 115
1, 12028, Note_off_c, 0, 56, 64
1, 12041, Note_off_c, 2, 63, 64
1, 12047, Lyric_t, "I "
1, 12047, Note_on_c, 3, 65, 104
1, 12049, Note_on_c, 0, 56, 73
1, 12051, Note_off_c, 0, 60, 64
1, 12053, Note_on_c, 2, 63, 90
1, 12086, Note_off_c, 3, 65, 64
1, 12092, Note_off_c, 5, 63, 64
1, 12095, Note_on_c, 5, 68, 64
1, 12097, Lyric_t, "need "
1, 12097, Note_on_c, 3, 66, 102
1, 12097, Note_on_c, 9, 51, 75
1, 12098, Note_off_c, 9, 51, 64
1, 12124, Note_off_c, 0, 56, 64
1, 12140, Note_off_c, 2, 68, 64
1, 12142, Note_on_c, 0, 56, 73
1, 12143, Note_off_c, 3, 66, 64
1, 12146, Note_on_c, 2, 68, 102
1, 12148, Lyric_t, "to "
1, 12148, Note_on_c, 3, 65, 100
1, 12175, Lyric_t, "have "
1, 12175, Note_off_c, 3, 65, 64
1, 12175, Note_on_c, 3, 63, 107
1, 12183, Note_off_c, 2, 63, 64
1, 12190, Note_on_c, 0, 60, 76
1, 12191, Note_on_c, 5, 63, 63
1, 12192, Note_on_c, 9, 37, 63
1, 12192, Note_on_c, 9, 51, 78
1, 12193, Note_off_c, 9, 51, 64
1, 12193, Note_off_c, 9, 37, 64
1, 12193, Note_on_c, 2, 63, 86
1, 12198, Note_off_c, 5, 68, 64
1, 12215, Note_off_c, 3, 63, 64
1, 12218, Note_off_c, 0, 56, 64
1, 12220, Lyric_t, "you "
1, 12220, Note_on_c, 3, 65, 103
1, 12223, Note_off_c, 1, 29, 64
1, 12224, Note_off_c, 11, 68, 64
1, 12228, Note_off_c, 11, 63, 64
1, 12235, Note_off_c, 11, 60, 64
1, 12237, Note_on_c, 1, 32, 110
1, 12239, Note_on_c, 9, 35, 105
1, 12240, Note_off_c, 9, 35, 64
1, 12240, Note_on_c, 0, 56, 74
1, 12245, Note_off_c, 0, 60, 64
1, 12249, Note_off_c, 0, 68, 64
1, 12260, Note_off_c, 10, 75, 64
1, 12268, Note_off_c, 2, 63, 64
1, 12270, Note_off_c, 2, 68, 64
1, 12272, Note_off_c, 6, 75, 64
1, 12279, Note_off_c, 1, 32, 64
1, 12280, Note_off_c, 0, 41, 64
1, 12280, Note_off_c, 0, 56, 64
1, 12285, Note_on_c, 1, 30, 105
1, 12286, Note_on_c, 11, 61, 86
1, 12286, Note_on_c, 6, 77, 73
1, 12286, Note_on_c, 10, 77, 57
1, 12287, Note_on_c, 0, 61, 93
1, 12287, Note_on_c, 0, 70, 97
1, 12287, Note_on_c, 5, 65, 59
1, 12288, Note_on_c, 9, 35, 106
1, 12288, Note_on_c, 9, 51, 79
1, 12288, Note_on_c, 0, 65, 96
1, 12288, Note_off_c, 5, 63, 64
1, 12289, Note_off_c, 9, 51, 64
1, 12289, Note_off_c, 9, 35, 64
1, 12289, Note_on_c, 0, 42, 87
1, 12290, Note_on_c, 11, 65, 90
1, 12292, Note_on_c, 11, 70, 85
1, 12292, Note_off_c, 7, 80, 64
1, 12300, Note_off_c, 3, 65, 64
1, 12335, Lyric_t, "near "
1, 12335, Note_on_c, 3, 61, 112
1, 12335, Note_on_c, 2, 61, 120
1, 12338, Note_on_c, 0, 58, 71
1, 12360, Note_on_c, 2, 65, 119
1, 12380, Note_on_c, 8, 61, 112
1, 12382, Note_off_c, 5, 65, 64
1, 12382, Note_on_c, 5, 61, 67
1, 12383, Note_on_c, 9, 37, 60
1, 12383, Note_on_c, 9, 51, 78
1, 12383, Note_on_c, 2, 70, 119
1, 12384, Lyric_t, "me. "
1, 12384, Lyric_t, "\015"
1, 12384, Note_on_c, 3, 70, 102
1, 12384, Note_off_c, 9, 51, 64
1, 12384, Note_off_c, 9, 37, 64
1, 12384, Note_on_c, 6, 89, 60
1, 12385, Note_off_c, 3, 61, 64
1, 12385, Note_off_c, 0, 61, 64
1, 12386, Note_on_c, 0, 61, 71
1, 12391, Note_off_c, 6, 77, 64
1, 12404, Note_off_c, 0, 58, 64
1, 12428, Note_off_c, 2, 65, 64
1, 12430, Note_on_c, 7, 85, 76
1, 12432, Note_on_c, 8, 65, 105
1, 12433, Note_on_c, 0, 58, 72
1, 12433, Note_on_c, 2, 65, 84
1, 12433, Note_on_c, 6, 85, 73
1, 12435, Note_off_c, 8, 61, 64
1, 12440, Note_off_c, 6, 89, 64
1, 12478, Note_off_c, 0, 70, 64
1, 12478, Note_off_c, 2, 61, 64
1, 12478, Note_on_c, 8, 70, 99
1, 12479, Note_on_c, 5, 60, 60
1, 12480, Note_on_c, 0, 70, 116
1, 12480, Note_off_c, 5, 61, 64
1, 12480, Note_off_c, 7, 85, 64
1, 12480, Note_on_c, 7, 84, 73
1, 12481, Note_on_c, 9, 51, 77
1, 12482, Note_off_c, 9, 51, 64
1, 12482, Note_on_c, 6, 84, 66
1, 12483, Note_on_c, 2, 61, 92
1, 12484, Note_off_c, 8, 65, 64
1, 12487, Note_off_c, 0, 58, 64
1, 12488, Note_off_c, 6, 85, 64
1, 12506, Note_off_c, 1, 30, 64
1, 12523, Note_off_c, 2, 70, 64
1, 12525, Note_on_c, 1, 37, 113
1, 12527, Note_on_c, 0, 58, 76
1, 12527, Note_on_c, 5, 58, 58
1, 12529, Note_on_c, 2, 70, 117
1, 12529, Note_on_c, 6, 82, 71
1, 12531, Note_off_c, 5, 60, 64
1, 12534, Note_off_c, 6, 84, 64
1, 12543, Note_off_c, 8, 70, 64
1, 12559, Pitch_bend_c, 1, 7957
1, 12560, Pitch_bend_c, 1, 7606
1, 12562, Pitch_bend_c, 1, 7255
1, 12562, Note_off_c, 0, 65, 64
1, 12564, Pitch_bend_c, 1, 6904
1, 12565, Note_off_c, 2, 65, 64
1, 12566, Pitch_bend_c, 1, 6553
1, 12568, Pitch_bend_c, 1, 6202
1, 12570, Pitch_bend_c, 1, 5734
1, 12571, Note_off_c, 0, 61, 64
1, 12572, Pitch_bend_c, 1, 5266
1, 12573, Pitch_bend_c, 1, 4798
1, 12573, Note_off_c, 0, 70, 64
1, 12575, Pitch_bend_c, 1, 4447
1, 12575, Note_on_c, 0, 61, 110
1, 12576, Note_on_c, 9, 37, 64
1, 12576, Note_on_c, 9, 51, 77
1, 12577, Note_off_c, 9, 51, 64
1, 12577, Note_off_c, 9, 37, 64
1, 12577, Pitch_bend_c, 1, 4213
1, 12577, Note_on_c, 6, 77, 68
1, 12578, Note_on_c, 2, 65, 82
1, 12579, Pitch_bend_c, 1, 3628
1, 12579, Note_off_c, 6, 82, 64
1, 12581, Pitch_bend_c, 1, 3160
1, 12583, Pitch_bend_c, 1, 2575
1, 12584, Pitch_bend_c, 1, 2107
1, 12586, Pitch_bend_c, 1, 1873
1, 12587, Note_off_c, 11, 70, 64
1, 12590, Pitch_bend_c, 1, 2224
1, 12593, Note_off_c, 1, 37, 64
1, 12598, Pitch_bend_c, 1, 8192
1, 12598, Note_off_c, 11, 65, 64
1, 12599, Note_on_c, 0, 63, 106
1, 12600, Note_on_c, 1, 30, 110
1, 12602, Note_off_c, 0, 58, 64
1, 12602, Note_off_c, 11, 61, 64
1, 12614, Note_off_c, 2, 61, 64
1, 12621, Note_on_c, 7, 82, 68
1, 12623, Note_on_c, 0, 58, 72
1, 12623, Note_off_c, 7, 84, 64
1, 12624, Note_on_c, 0, 65, 103
1, 12624, Note_on_c, 2, 61, 64
1, 12625, Note_off_c, 1, 30, 64
1, 12626, Note_off_c, 0, 61, 64
1, 12629, Note_off_c, 0, 63, 64
1, 12644, Lyric_t, "\012"
1, 12647, Note_on_c, 0, 66, 99
1, 12649, Note_off_c, 0, 65, 64
1, 12658, Note_off_c, 2, 65, 64
1, 12660, Note_off_c, 2, 61, 64
1, 12660, Note_off_c, 2, 70, 64
1, 12664, Note_off_c, 0, 58, 64
1, 12664, Note_off_c, 0, 42, 64
1, 12665, Note_on_c, 8, 60, 102
1, 12666, Note_off_c, 10, 77, 64
1, 12667, Note_on_c, 7, 94, 75
1, 12669, Note_off_c, 6, 77, 64
1, 12669, Note_on_c, 6, 75, 57
1, 12669, Note_on_c, 10, 75, 40
1, 12670, Note_on_c, 1, 29, 109
1, 12670, Note_on_c, 11, 60, 80
1, 12671, Note_on_c, 9, 35, 104
1, 12671, Note_on_c, 0, 41, 80
1, 12671, Note_on_c, 5, 56, 41
1, 12672, Note_off_c, 9, 35, 64
1, 12672, Note_on_c, 9, 51, 73
1, 12672, Note_on_c, 11, 63, 89
1, 12672, Note_off_c, 5, 58, 64
1, 12673, Note_off_c, 9, 51, 64
1, 12673, Note_on_c, 0, 68, 98
1, 12678, Note_on_c, 8, 68, 96
1, 12679, Note_on_c, 11, 68, 83
1, 12680, Note_off_c, 7, 82, 64
1, 12681, Note_off_c, 0, 66, 64
1, 12688, Note_off_c, 3, 70, 64
1, 12688, Note_off_c, 8, 60, 64
1, 12721, Note_on_c, 0, 56, 78
1, 12725, Note_on_c, 2, 60, 118
1, 12749, Note_on_c, 2, 63, 118
1, 12755, Note_off_c, 8, 68, 64
1, 12768, Note_on_c, 9, 37, 62
1, 12768, Note_on_c, 0, 60, 79
1, 12769, Note_off_c, 9, 37, 64
1, 12769, Note_on_c, 9, 51, 78
1, 12769, Note_on_c, 7, 92, 65
1, 12770, Note_off_c, 9, 51, 64
1, 12772, Note_on_c, 2, 68, 119
1, 12775, Note_off_c, 7, 94, 64
1, 12796, Note_off_c, 0, 56, 64
1, 12810, Note_off_c, 2, 63, 64
1, 12816, Note_on_c, 0, 56, 71
1, 12816, Note_off_c, 11, 68, 64
1, 12818, Note_off_c, 0, 60, 64
1, 12819, Note_on_c, 2, 63, 92
1, 12823, Note_on_c, 11, 68, 108
1, 12845, Note_off_c, 11, 68, 64
1, 12845, Note_on_c, 11, 70, 89
1, 12860, Note_off_c, 0, 68, 64
1, 12861, Note_off_c, 2, 60, 64
1, 12862, Note_on_c, 0, 72, 123
1, 12863, Note_on_c, 0, 68, 92
1, 12865, Note_on_c, 9, 51, 78
1, 12866, Note_off_c, 9, 51, 64
1, 12867, Lyric_t, "And "
1, 12867, Note_on_c, 3, 66, 116
1, 12867, Note_on_c, 2, 60, 86
1, 12870, Note_off_c, 11, 70, 64
1, 12871, Note_on_c, 11, 68, 89
1, 12882, Note_off_c, 0, 56, 64
1, 12893, Lyric_t, "I "
1, 12893, Note_on_c, 3, 65, 102
1, 12897, Note_off_c, 3, 66, 64
1, 12904, Note_off_c, 2, 68, 64
1, 12911, Note_on_c, 0, 56, 76
1, 12912, Note_on_c, 2, 68, 116
1, 12930, Note_off_c, 3, 65, 64
1, 12936, Lyric_t, "feel "
1, 12936, Note_on_c, 3, 63, 107
1, 12943, Note_off_c, 6, 75, 64
1, 12947, Note_off_c, 2, 63, 64
1, 12958, Note_on_c, 0, 75, 81
1, 12959, Note_on_c, 9, 37, 62
1, 12959, Note_on_c, 9, 51, 86
1, 12959, Note_on_c, 0, 60, 78
1, 12960, Note_off_c, 9, 51, 64
1, 12960, Note_off_c, 9, 37, 64
1, 12960, Note_on_c, 6, 75, 54
1, 12962, Note_on_c, 2, 63, 90
1, 12978, Note_off_c, 0, 56, 64
1, 12988, Note_off_c, 1, 29, 64
1, 12991, Note_off_c, 2, 60, 64
1, 12995, Note_off_c, 6, 75, 64
1, 13002, Note_off_c, 3, 63, 64
1, 13006, Lyric_t, "with "
1, 13006, Note_on_c, 3, 61, 112
1, 13006, Note_on_c, 9, 35, 104
1, 13006, Note_on_c, 1, 29, 111
1, 13007, Note_off_c, 9, 35, 64
1, 13007, Note_on_c, 6, 75, 54
1, 13008, Note_on_c, 0, 56, 76
1, 13008, Note_on_c, 2, 60, 75
1, 13010, Note_off_c, 0, 60, 64
1, 13012, Note_off_c, 10, 75, 64
1, 13027, Note_off_c, 1, 29, 64
1, 13027, Note_off_c, 0, 72, 64
1, 13030, Note_off_c, 0, 68, 64
1, 13032, Note_off_c, 7, 92, 64
1, 13034, Note_off_c, 0, 75, 64
1, 13040, Note_off_c, 0, 56, 64
1, 13044, Note_off_c, 11, 60, 64
1, 13045, Note_off_c, 11, 63, 64
1, 13046, Note_off_c, 2, 63, 64
1, 13050, Note_off_c, 2, 60, 64
1, 13050, Note_off_c, 2, 68, 64
1, 13050, Note_off_c, 11, 68, 64
1, 13051, Note_on_c, 0, 61, 93
1, 13052, Note_off_c, 3, 61, 64
1, 13052, Note_off_c, 0, 41, 64
1, 13052, Note_off_c, 5, 56, 64
1, 13054, Lyric_t, "you "
1, 13054, Note_on_c, 3, 70, 106
1, 13054, Note_on_c, 1, 30, 109
1, 13054, Note_off_c, 6, 75, 64
1, 13054, Note_on_c, 6, 77, 68
1, 13054, Note_on_c, 10, 77, 55
1, 13055, Note_on_c, 9, 35, 105
1, 13055, Note_on_c, 9, 51, 76
1, 13055, Note_on_c, 0, 65, 103
1, 13055, Note_on_c, 0, 42, 74
1, 13055, Note_on_c, 11, 61, 87
1, 13055, Note_on_c, 7, 85, 78
1, 13056, Note_off_c, 9, 51, 64
1, 13056, Note_off_c, 9, 35, 64
1, 13056, Note_on_c, 5, 58, 54
1, 13057, Note_on_c, 0, 70, 98
1, 13060, Note_on_c, 11, 65, 89
1, 13069, Note_on_c, 11, 70, 90
1, 13079, Note_on_c, 7, 84, 77
1, 13080, Note_off_c, 7, 85, 64
1, 13103, Note_on_c, 2, 61, 111
1, 13105, Note_on_c, 0, 58, 70
1, 13125, Note_on_c, 2, 65, 114
1, 13148, Note_on_c, 2, 70, 119
1, 13150, Note_on_c, 7, 82, 65
1, 13151, Note_on_c, 9, 37, 61
1, 13151, Note_on_c, 9, 51, 77
1, 13151, Note_on_c, 6, 85, 67
1, 13151, Note_on_c, 8, 61, 114
1, 13152, Note_off_c, 9, 51, 64
1, 13152, Note_off_c, 9, 37, 64
1, 13152, Note_off_c, 0, 61, 64
1, 13153, Note_on_c, 0, 61, 73
1, 13156, Note_off_c, 7, 84, 64
1, 13163, Note_off_c, 6, 77, 64
1, 13176, Note_off_c, 0, 58, 64
1, 13191, Note_off_c, 2, 65, 64
1, 13198, Note_on_c, 2, 65, 87
1, 13200, Note_off_c, 8, 61, 64
1, 13200, Note_on_c, 8, 65, 103
1, 13201, Note_on_c, 0, 58, 70
1, 13212, Note_off_c, 0, 70, 64
1, 13241, Note_off_c, 2, 61, 64
1, 13245, Note_off_c, 6, 85, 64
1, 13246, Note_on_c, 6, 77, 70
1, 13247, Note_on_c, 9, 51, 72
1, 13247, Note_on_c, 8, 70, 100
1, 13248, Note_off_c, 9, 51, 64
1, 13248, Note_on_c, 0, 70, 118
1, 13248, Note_on_c, 2, 61, 91
1, 13249, Note_off_c, 0, 58, 64
1, 13250, Note_off_c, 7, 82, 64
1, 13250, Note_on_c, 7, 84, 74
1, 13255, Note_off_c, 8, 65, 64
1, 13289, Note_off_c, 2, 70, 64
1, 13293, Lyric_t, "in "
1, 13293, Note_on_c, 3, 72, 123
1, 13293, Note_on_c, 2, 70, 102
1, 13294, Note_on_c, 0, 58, 76
1, 13300, Note_off_c, 3, 70, 64
1, 13335, Note_off_c, 2, 65, 64
1, 13335, Note_off_c, 8, 70, 64
1, 13338, Note_off_c, 3, 72, 64
1, 13341, Note_on_c, 2, 65, 90
1, 13342, Lyric_t, "my "
1, 13342, Note_on_c, 3, 73, 118
1, 13342, Note_off_c, 0, 61, 64
1, 13343, Note_on_c, 9, 37, 65
1, 13343, Note_on_c, 9, 51, 76
1, 13343, Note_on_c, 0, 61, 72
1, 13344, Note_off_c, 9, 51, 64
1, 13344, Note_off_c, 9, 37, 64
1, 13344, Note_off_c, 1, 30, 64
1, 13362, Note_off_c, 0, 58, 64
1, 13369, Note_on_c, 1, 37, 108
1, 13377, Note_off_c, 2, 61, 64
1, 13382, Note_off_c, 1, 37, 64
1, 13387, Note_off_c, 11, 61, 64
1, 13388, Note_off_c, 11, 70, 64
1, 13388, Note_off_c, 6, 77, 64
1, 13389, Note_off_c, 11, 65, 64
1, 13391, Note_on_c, 0, 58, 74
1, 13392, Note_on_c, 2, 61, 70
1, 13392, Note_on_c, 6, 78, 70
1, 13392, Note_on_c, 7, 85, 71
1, 13396, Note_off_c, 7, 84, 64
1, 13406, Note_on_c, 1, 37, 113
1, 13420, Note_off_c, 1, 37, 64
1, 13427, Note_off_c, 0, 65, 64
1, 13428, Note_on_c, 8, 60, 101
1, 13432, Note_off_c, 0, 70, 64
1, 13433, Note_off_c, 0, 61, 64
1, 13434, Note_off_c, 0, 42, 64
1, 13436, Note_off_c, 0, 58, 64
1, 13436, Note_off_c, 2, 70, 64
1, 13436, Note_off_c, 6, 78, 64
1, 13437, Note_on_c, 11, 60, 88
1, 13438, Note_on_c, 0, 68, 95
1, 13438, Note_on_c, 0, 65, 95
1, 13438, Note_on_c, 0, 60, 93
1, 13439, Note_on_c, 9, 35, 104
1, 13439, Note_off_c, 2, 61, 64
1, 13439, Note_off_c, 2, 65, 64
1, 13439, Note_on_c, 5, 56, 55
1, 13439, Note_on_c, 7, 87, 67
1, 13439, Note_off_c, 10, 77, 64
1, 13439, Note_on_c, 10, 75, 45
1, 13440, Note_off_c, 9, 35, 64
1, 13440, Note_on_c, 9, 51, 80
1, 13440, Note_on_c, 0, 41, 77
1, 13440, Note_on_c, 8, 68, 97
1, 13441, Note_off_c, 9, 51, 64
1, 13441, Note_on_c, 6, 75, 56
1, 13442, Note_on_c, 11, 63, 95
1, 13442, Note_off_c, 5, 58, 64
1, 13443, Note_on_c, 1, 29, 108
1, 13443, Note_off_c, 7, 85, 64
1, 13449, Note_on_c, 11, 68, 84
1, 13453, Note_off_c, 8, 60, 64
1, 13482, Note_off_c, 3, 73, 64
1, 13485, Note_on_c, 2, 60, 110
1, 13487, Lyric_t, "arms "
1, 13487, Lyric_t, "\015"
1, 13487, Note_on_c, 3, 68, 113
1, 13489, Note_on_c, 0, 56, 76
1, 13507, Note_on_c, 2, 63, 118
1, 13529, Note_off_c, 8, 68, 64
1, 13533, Note_on_c, 2, 68, 120
1, 13535, Note_on_c, 9, 37, 65
1, 13535, Note_on_c, 9, 51, 78
1, 13535, Note_off_c, 0, 60, 64
1, 13535, Note_on_c, 0, 72, 106
1, 13536, Note_off_c, 9, 51, 64
1, 13536, Note_off_c, 9, 37, 64
1, 13536, Note_on_c, 0, 60, 76
1, 13541, Note_off_c, 0, 68, 64
1, 13564, Note_off_c, 11, 60, 64
1, 13570, Note_off_c, 0, 56, 64
1, 13576, Note_off_c, 2, 63, 64
1, 13576, Note_off_c, 11, 68, 64
1, 13576, Note_off_c, 11, 63, 64
1, 13581, Note_on_c, 2, 63, 102
1, 13582, Note_on_c, 7, 85, 73
1, 13583, Note_on_c, 11, 63, 111
1, 13583, Note_on_c, 11, 68, 113
1, 13585, Note_on_c, 0, 68, 102
1, 13585, Note_on_c, 0, 56, 73
1, 13588, Note_off_c, 7, 87, 64
1, 13594, Note_off_c, 0, 72, 64
1, 13608, Note_off_c, 11, 68, 64
1, 13608, Note_off_c, 11, 63, 64
1, 13608, Note_on_c, 11, 69, 96
1, 13608, Note_on_c, 11, 64, 105
1, 13610, Note_off_c, 11, 64, 64
1, 13610, Note_off_c, 11, 69, 64
1, 13610, Note_on_c, 11, 65, 103
1, 13610, Note_on_c, 11, 70, 84
1, 13623, Note_off_c, 2, 60, 64
1, 13627, Note_off_c, 0, 68, 64
1, 13630, Note_on_c, 7, 84, 70
1, 13631, Note_on_c, 9, 51, 87
1, 13631, Note_on_c, 2, 60, 100
1, 13631, Note_off_c, 11, 70, 64
1, 13631, Note_on_c, 11, 69, 64
1, 13632, Note_off_c, 9, 51, 64
1, 13632, Note_off_c, 11, 65, 64
1, 13632, Note_on_c, 11, 64, 84
1, 13633, Note_on_c, 0, 68, 112
1, 13634, Note_off_c, 7, 85, 64
1, 13635, Note_off_c, 0, 56, 64
1, 13636, Note_off_c, 3, 68, 64
1, 13637, Note_off_c, 11, 69, 64
1, 13637, Note_on_c, 11, 68, 62
1, 13638, Note_off_c, 11, 64, 64
1, 13638, Note_on_c, 11, 63, 60
1, 13672, Note_off_c, 2, 68, 64
1, 13677, Note_on_c, 2, 68, 100
1, 13679, Note_on_c, 0, 56, 76
1, 13701, Note_on_c, 7, 85, 65
1, 13707, Note_off_c, 7, 84, 64
1, 13714, Note_off_c, 2, 63, 64
1, 13724, Note_on_c, 2, 63, 65
1, 13726, Note_off_c, 0, 60, 64
1, 13727, Note_on_c, 9, 37, 61
1, 13727, Note_on_c, 9, 51, 90
1, 13727, Note_on_c, 0, 60, 76
1, 13728, Note_off_c, 9, 51, 64
1, 13728, Note_off_c, 9, 37, 64
1, 13738, Note_off_c, 1, 29, 64
1, 13756, Note_off_c, 0, 56, 64
1, 13764, Note_off_c, 2, 60, 64
1, 13771, Note_on_c, 7, 87, 71
1, 13772, Lyric_t, "this "
1, 13772, Note_on_c, 3, 61, 116
1, 13776, Note_on_c, 9, 35, 106
1, 13776, Note_on_c, 1, 37, 116
1, 13776, Note_on_c, 0, 56, 74
1, 13776, Note_on_c, 2, 60, 72
1, 13776, Note_off_c, 7, 85, 64
1, 13777, Note_off_c, 9, 35, 64
1, 13784, Note_off_c, 10, 75, 64
1, 13792, Note_off_c, 1, 37, 64
1, 13792, Note_off_c, 0, 68, 64
1, 13798, Note_off_c, 0, 65, 64
1, 13799, Note_on_c, 1, 38, 111
1, 13800, Note_off_c, 11, 63, 64
1, 13802, Note_off_c, 0, 60, 64
1, 13805, Note_off_c, 11, 68, 64
1, 13807, Note_off_c, 5, 56, 64
1, 13815, Note_off_c, 3, 61, 64
1, 13815, Note_off_c, 1, 38, 64
1, 13816, Note_off_c, 0, 41, 64
1, 13816, Note_off_c, 6, 75, 64
1, 13818, Note_off_c, 0, 56, 64
1, 13818, Note_off_c, 2, 60, 64
1, 13818, Note_off_c, 2, 63, 64
1, 13819, Note_on_c, 5, 58, 67
1, 13820, Note_off_c, 2, 68, 64
1, 13821, Lyric_t, "love "
1, 13821, Note_on_c, 3, 65, 107
1, 13823, Note_on_c, 1, 39, 111
1, 13823, Note_on_c, 0, 39, 79
1, 13823, Note_on_c, 7, 89, 72
1, 13824, Note_on_c, 9, 35, 103
1, 13824, Note_on_c, 9, 51, 90
1, 13824, Note_on_c, 0, 58, 92
1, 13824, Note_on_c, 0, 63, 100
1, 13824, Note_on_c, 11, 58, 92
1, 13825, Note_off_c, 9, 51, 64
1, 13825, Note_off_c, 9, 35, 64
1, 13825, Note_on_c, 0, 66, 81
1, 13826, Note_on_c, 11, 61, 91
1, 13827, Note_off_c, 7, 87, 64
1, 13828, Note_on_c, 6, 75, 66
1, 13830, Note_on_c, 11, 66, 86
1, 13873, Note_on_c, 9, 51, 50
1, 13873, Note_on_c, 0, 54, 74
1, 13874, Note_off_c, 9, 51, 64
1, 13874, Note_on_c, 2, 54, 104
1, 13899, Note_on_c, 2, 58, 106
1, 13919, Note_off_c, 0, 58, 64
1, 13919, Note_off_c, 11, 58, 64
1, 13919, Note_on_c, 8, 58, 112
1, 13920, Lyric_t, "will "
1, 13920, Note_on_c, 3, 66, 96
1, 13920, Note_on_c, 0, 58, 68
1, 13921, Note_on_c, 9, 37, 65
1, 13921, Note_on_c, 9, 51, 72
1, 13922, Note_off_c, 9, 51, 64
1, 13922, Note_off_c, 9, 37, 64
1, 13926, Note_on_c, 2, 63, 118
1, 13928, Note_off_c, 3, 65, 64
1, 13948, Note_off_c, 0, 54, 64
1, 13948, Note_on_c, 2, 66, 99
1, 13964, Note_off_c, 7, 89, 64
1, 13966, Note_off_c, 2, 63, 64
1, 13967, Note_on_c, 7, 87, 70
1, 13968, Lyric_t, "last "
1, 13968, Note_on_c, 3, 63, 107
1, 13969, Note_off_c, 3, 66, 64
1, 13969, Note_on_c, 9, 51, 61
1, 13969, Note_on_c, 0, 54, 73
1, 13970, Note_off_c, 9, 51, 64
1, 13970, Note_off_c, 11, 61, 64
1, 13971, Note_off_c, 8, 58, 64
1, 13972, Note_on_c, 2, 63, 108
1, 13973, Note_off_c, 11, 66, 64
1, 13973, Note_on_c, 8, 63, 108
1, 13974, Note_on_c, 11, 66, 59
1, 13974, Note_on_c, 11, 61, 67
1, 14010, Note_off_c, 2, 58, 64
1, 14016, Note_on_c, 5, 61, 59
1, 14017, Note_on_c, 9, 51, 68
1, 14018, Note_off_c, 9, 51, 64
1, 14019, Note_off_c, 7, 87, 64
1, 14019, Note_on_c, 7, 85, 70
1, 14019, Note_on_c, 8, 66, 96
1, 14020, Note_off_c, 11, 61, 64
1, 14020, Note_on_c, 11, 58, 79
1, 14020, Note_off_c, 5, 58, 64
1, 14021, Note_on_c, 2, 58, 94
1, 14021, Note_on_c, 11, 61, 72
1, 14022, Note_off_c, 11, 66, 64
1, 14023, Note_on_c, 11, 66, 72
1, 14024, Note_off_c, 0, 54, 64
1, 14025, Note_off_c, 8, 63, 64
1, 14048, Note_off_c, 0, 66, 64
1, 14049, Note_off_c, 0, 63, 64
1, 14050, Note_off_c, 0, 58, 64
1, 14060, Note_off_c, 2, 66, 64
1, 14062, Note_on_c, 0, 54, 74
1, 14065, Note_on_c, 9, 51, 63
1, 14065, Note_on_c, 2, 66, 98
1, 14066, Note_off_c, 9, 51, 64
1, 14076, Note_off_c, 8, 66, 64
1, 14077, Note_off_c, 3, 63, 64
1, 14090, Note_on_c, 7, 87, 76
1, 14094, Note_off_c, 7, 85, 64
1, 14099, Note_off_c, 2, 63, 64
1, 14109, Note_on_c, 0, 58, 69
1, 14110, Note_on_c, 2, 63, 91
1, 14111, Note_on_c, 5, 58, 65
1, 14112, Note_on_c, 9, 37, 69
1, 14112, Note_on_c, 9, 51, 72
1, 14112, Note_off_c, 11, 58, 64
1, 14113, Note_off_c, 9, 51, 64
1, 14113, Note_off_c, 9, 37, 64
1, 14113, Note_off_c, 5, 61, 64
1, 14114, Note_on_c, 11, 58, 55
1, 14115, Note_off_c, 11, 61, 64
1, 14116, Note_on_c, 11, 61, 75
1, 14117, Note_off_c, 11, 66, 64
1, 14118, Note_on_c, 11, 66, 82
1, 14132, Note_off_c, 1, 39, 64
1, 14138, Note_off_c, 0, 54, 64
1, 14147, Note_off_c, 2, 58, 64
1, 14157, Note_on_c, 7, 89, 67
1, 14158, Note_on_c, 0, 54, 73
1, 14159, Lyric_t, "for"
1, 14159, Note_on_c, 3, 63, 119
1, 14160, Note_on_c, 1, 41, 113
1, 14161, Note_on_c, 9, 51, 86
1, 14161, Note_on_c, 2, 58, 70
1, 14162, Note_off_c, 9, 51, 64
1, 14162, Note_off_c, 7, 87, 64
1, 14164, Note_off_c, 0, 58, 64
1, 14176, Note_off_c, 1, 41, 64
1, 14184, Note_on_c, 1, 42, 108
1, 14192, Note_off_c, 6, 75, 64
1, 14194, Note_off_c, 2, 58, 64
1, 14194, Note_off_c, 2, 66, 64
1, 14196, Note_off_c, 2, 54, 64
1, 14196, Note_off_c, 2, 63, 64
1, 14200, Note_off_c, 1, 42, 64
1, 14200, Note_off_c, 0, 54, 64
1, 14201, Note_off_c, 0, 39, 64
1, 14202, Note_on_c, 2, 51, 92
1, 14205, Note_on_c, 0, 44, 84
1, 14205, Note_on_c, 0, 63, 96
1, 14205, Note_on_c, 0, 68, 80
1, 14205, Note_on_c, 0, 61, 83
1, 14205, Note_on_c, 0, 66, 66
1, 14205, Note_on_c, 5, 61, 64
1, 14205, Note_off_c, 7, 89, 64
1, 14206, Note_on_c, 2, 56, 114
1, 14206, Note_on_c, 7, 89, 75
1, 14207, Note_off_c, 3, 63, 64
1, 14207, Note_on_c, 9, 35, 103
1, 14207, Note_on_c, 9, 49, 79
1, 14207, Note_off_c, 11, 61, 64
1, 14208, Note_off_c, 9, 49, 64
1, 14208, Note_off_c, 9, 35, 64
1, 14208, Note_off_c, 11, 58, 64
1, 14208, Note_on_c, 8, 66, 117
1, 14209, Tempo, 923077
1, 14209, Note_on_c, 11, 58, 86
1, 14209, Note_off_c, 5, 58, 64
1, 14210, Lyric_t, "ev"
1, 14210, Note_on_c, 3, 70, 112
1, 14210, Note_on_c, 1, 44, 116
1, 14210, Note_off_c, 11, 66, 64
1, 14212, Note_on_c, 2, 61, 113
1, 14231, Note_off_c, 8, 66, 64
1, 14255, Note_on_c, 3, 68, 100
1, 14259, Note_off_c, 3, 70, 64
1, 14288, Note_off_c, 0, 66, 64
1, 14289, Note_off_c, 0, 68, 64
1, 14290, Note_off_c, 0, 61, 64
1, 14291, Note_off_c, 0, 63, 64
1, 14293, Note_off_c, 2, 61, 64
1, 14294, Note_off_c, 3, 68, 64
1, 14294, Note_off_c, 0, 44, 64
1, 14296, Note_off_c, 2, 51, 64
1, 14297, Note_on_c, 2, 51, 86
1, 14298, Lyric_t, "er, "
1, 14298, Lyric_t, "\015"
1, 14298, Note_on_c, 3, 68, 103
1, 14298, Note_off_c, 2, 56, 64
1, 14300, Note_on_c, 2, 56, 115
1, 14300, Note_off_c, 11, 58, 64
1, 14302, Note_on_c, 0, 68, 85
1, 14302, Note_on_c, 0, 63, 87
1, 14302, Note_on_c, 0, 60, 84
1, 14302, Note_on_c, 0, 44, 79
1, 14302, Note_off_c, 5, 61, 64
1, 14303, Note_on_c, 5, 60, 72
1, 14304, Tempo, 952381
1, 14304, Note_on_c, 8, 63, 104
1, 14306, Note_on_c, 2, 60, 97
1, 14307, Note_on_c, 11, 56, 73
1, 14313, Note_off_c, 8, 63, 64
1, 14320, Lyric_t, "\012"
1, 14326, Note_off_c, 7, 89, 64
1, 14329, Note_on_c, 7, 90, 72
1, 14349, Note_on_c, 9, 57, 31
1, 14350, Note_off_c, 9, 57, 64
1, 14352, Note_off_c, 3, 68, 64
1, 14358, Note_on_c, 9, 49, 37
1, 14359, Note_off_c, 9, 49, 64
1, 14363, Lyric_t, "be"
1, 14363, Note_on_c, 3, 68, 100
1, 14364, Note_off_c, 7, 90, 64
1, 14366, Note_on_c, 7, 87, 76
1, 14367, Note_on_c, 9, 57, 43
1, 14368, Note_off_c, 9, 57, 64
1, 14376, Note_on_c, 9, 49, 48
1, 14377, Note_off_c, 9, 49, 64
1, 14378, Note_off_c, 0, 60, 64
1, 14382, Note_off_c, 0, 68, 64
1, 14382, Note_off_c, 0, 63, 64
1, 14384, Note_off_c, 0, 44, 64
1, 14385, Note_off_c, 3, 68, 64
1, 14386, Note_on_c, 9, 57, 54
1, 14387, Note_off_c, 9, 57, 64
1, 14393, Lyric_t, "cause "
1, 14393, Note_on_c, 3, 68, 123
1, 14395, Note_on_c, 9, 49, 60
1, 14395, Note_off_c, 2, 60, 64
1, 14396, Note_off_c, 9, 49, 64
1, 14396, Note_off_c, 11, 56, 64
1, 14396, Note_on_c, 5, 61, 81
1, 14397, Note_on_c, 1, 32, 107
1, 14397, Note_off_c, 2, 51, 64
1, 14397, Note_off_c, 7, 87, 64
1, 14398, Note_on_c, 0, 58, 80
1, 14398, Note_on_c, 0, 44, 87
1, 14398, Note_on_c, 0, 63, 85
1, 14398, Note_on_c, 2, 51, 74
1, 14399, Note_off_c, 1, 44, 64
1, 14399, Note_on_c, 0, 68, 89
1, 14399, Note_off_c, 2, 56, 64
1, 14401, Tempo, 1000000
1, 14401, Note_on_c, 2, 56, 115
1, 14402, Note_off_c, 5, 60, 64
1, 14402, Note_on_c, 7, 89, 74
1, 14402, Note_on_c, 8, 66, 100
1, 14403, Note_on_c, 2, 61, 115
1, 14403, Note_on_c, 11, 58, 88
1, 14405, Note_on_c, 9, 57, 55
1, 14406, Note_off_c, 9, 57, 64
1, 14412, Note_on_c, 9, 49, 56
1, 14413, Note_off_c, 9, 49, 64
1, 14416, Note_off_c, 8, 66, 64
1, 14421, Note_on_c, 9, 57, 61
1, 14422, Note_off_c, 9, 57, 64
1, 14430, Note_on_c, 9, 49, 65
1, 14431, Note_off_c, 9, 49, 64
1, 14435, Note_off_c, 7, 89, 64
1, 14435, Note_on_c, 7, 90, 70
1, 14438, Note_on_c, 9, 57, 68
1, 14439, Note_off_c, 9, 57, 64
1, 14447, Note_on_c, 9, 49, 71
1, 14448, Note_off_c, 9, 49, 64
1, 14450, Note_on_c, 9, 35, 93
1, 14451, Note_off_c, 9, 35, 64
1, 14465, Note_off_c, 7, 90, 64
1, 14467, Note_on_c, 7, 87, 74
1, 14476, Note_off_c, 0, 58, 64
1, 14477, Note_off_c, 3, 68, 64
1, 14483, Note_off_c, 0, 68, 64
1, 14485, Note_off_c, 0, 63, 64
1, 14487, Lyric_t, "I'm "
1, 14487, Note_on_c, 3, 68, 121
1, 14487, Note_off_c, 0, 44, 64
1, 14490, Note_off_c, 2, 61, 64
1, 14493, Note_off_c, 2, 51, 64
1, 14494, Note_off_c, 2, 56, 64
1, 14494, Note_on_c, 2, 51, 75
1, 14495, Control_c, 9, 91, 85
1, 14495, Note_on_c, 0, 63, 88
1, 14495, Note_on_c, 0, 68, 87
1, 14495, Note_on_c, 0, 60, 83
1, 14495, Note_off_c, 5, 61, 64
1, 14495, Note_on_c, 5, 60, 81
1, 14496, Tempo, 1071429
1, 14496, Note_on_c, 9, 35, 97
1, 14496, Note_on_c, 9, 48, 110
1, 14496, Note_on_c, 0, 44, 94
1, 14496, Note_on_c, 2, 56, 113
1, 14496, Note_off_c, 11, 58, 64
1, 14497, Note_off_c, 9, 48, 64
1, 14497, Note_off_c, 9, 35, 64
1, 14498, Note_off_c, 7, 87, 64
1, 14500, Note_on_c, 2, 60, 113
1, 14502, Note_on_c, 7, 89, 77
1, 14503, Note_on_c, 11, 56, 85
1, 14515, Note_on_c, 8, 54, 98
1, 14518, Note_off_c, 8, 54, 64
1, 14518, Note_on_c, 8, 56, 89
1, 14519, Note_on_c, 9, 43, 102
1, 14520, Note_off_c, 9, 43, 64
1, 14521, Note_on_c, 8, 58, 81
1, 14522, Note_off_c, 8, 56, 64
1, 14524, Note_off_c, 8, 58, 64
1, 14524, Note_on_c, 8, 60, 98
1, 14526, Note_on_c, 8, 61, 105
1, 14527, Note_off_c, 8, 60, 64
1, 14529, Note_on_c, 8, 63, 109
1, 14530, Note_off_c, 8, 61, 64
1, 14532, Note_on_c, 8, 65, 104
1, 14533, Note_on_c, 7, 90, 72
1, 14534, Note_off_c, 7, 89, 64
1, 14534, Note_off_c, 8, 63, 64
1, 14535, Note_on_c, 8, 66, 100
1, 14537, Note_off_c, 8, 65, 64
1, 14538, Note_on_c, 8, 68, 99
1, 14540, Note_off_c, 8, 66, 64
1, 14541, Note_on_c, 8, 70, 98
1, 14543, Note_off_c, 8, 68, 64
1, 14545, Note_on_c, 9, 45, 112
1, 14545, Note_on_c, 8, 72, 102
1, 14546, Note_off_c, 9, 45, 64
1, 14547, Note_off_c, 3, 68, 64
1, 14547, Note_on_c, 9, 43, 120
1, 14547, Note_off_c, 8, 70, 64
1, 14548, Note_off_c, 9, 43, 64
1, 14548, Note_on_c, 8, 73, 109
1, 14550, Note_off_c, 8, 72, 64
1, 14551, Note_on_c, 8, 75, 104
1, 14553, Note_off_c, 8, 73, 64
1, 14554, Note_on_c, 8, 77, 95
1, 14556, Note_off_c, 8, 75, 64
1, 14557, Note_on_c, 8, 78, 96
1, 14558, Note_on_c, 9, 57, 43
1, 14559, Note_off_c, 9, 57, 64
1, 14559, Note_off_c, 8, 77, 64
1, 14561, Note_on_c, 8, 80, 92
1, 14563, Note_off_c, 8, 78, 64
1, 14564, Note_on_c, 8, 82, 92
1, 14565, Note_off_c, 7, 90, 64
1, 14565, Note_on_c, 7, 87, 76
1, 14566, Note_off_c, 8, 80, 64
1, 14567, Note_on_c, 9, 49, 48
1, 14568, Note_off_c, 9, 49, 64
1, 14568, Note_on_c, 8, 84, 90
1, 14570, Note_off_c, 8, 82, 64
1, 14571, Note_on_c, 8, 85, 92
1, 14572, Note_off_c, 2, 56, 64
1, 14573, Note_off_c, 2, 51, 64
1, 14573, Note_off_c, 8, 84, 64
1, 14574, Note_on_c, 9, 57, 58
1, 14574, Note_off_c, 2, 60, 64
1, 14574, Note_on_c, 8, 87, 97
1, 14575, Note_off_c, 9, 57, 64
1, 14575, Note_off_c, 0, 60, 64
1, 14576, Note_off_c, 0, 63, 64
1, 14576, Note_off_c, 0, 68, 64
1, 14576, Note_off_c, 0, 44, 64
1, 14576, Note_off_c, 8, 85, 64
1, 14577, Note_on_c, 8, 89, 91
1, 14580, Note_off_c, 8, 87, 64
1, 14581, Note_on_c, 8, 90, 87
1, 14583, Note_on_c, 9, 49, 62
1, 14583, Note_off_c, 8, 89, 64
1, 14584, Note_off_c, 9, 49, 64
1, 14584, Note_on_c, 8, 92, 89
1, 14586, Note_off_c, 1, 32, 64
1, 14586, Note_on_c, 2, 53, 65
1, 14586, Note_off_c, 8, 90, 64
1, 14587, Note_on_c, 2, 56, 105
1, 14587, Note_on_c, 8, 94, 92
1, 14588, Lyric_t, "tru"
1, 14588, Note_on_c, 3, 75, 119
1, 14588, Note_on_c, 2, 61, 102
1, 14588, Note_on_c, 5, 63, 87
1, 14589, Note_on_c, 9, 57, 73
1, 14589, Note_on_c, 2, 65, 101
1, 14589, Note_off_c, 5, 60, 64
1, 14589, Note_off_c, 8, 92, 64
1, 14590, Note_off_c, 9, 57, 64
1, 14591, Note_off_c, 11, 56, 64
1, 14591, Note_on_c, 8, 96, 92
1, 14592, Tempo, 857143
1, 14592, Control_c, 9, 91, 65
1, 14592, Note_on_c, 9, 49, 86
1, 14592, Note_on_c, 1, 37, 107
1, 14592, Note_on_c, 0, 49, 98
1, 14592, Note_on_c, 0, 56, 110
1, 14593, Note_off_c, 9, 49, 64
1, 14593, Note_on_c, 9, 35, 108
1, 14593, Note_off_c, 8, 94, 64
1, 14594, Note_off_c, 9, 35, 64
1, 14595, Note_off_c, 8, 96, 64
1, 14595, Note_on_c, 8, 97, 92
1, 14597, Note_off_c, 7, 87, 64
1, 14598, Note_off_c, 8, 97, 64
1, 14599, Note_on_c, 7, 92, 82
1, 14639, Note_on_c, 0, 53, 95
1, 14640, Note_off_c, 2, 56, 64
1, 14641, Note_on_c, 9, 42, 72
1, 14641, Note_off_c, 2, 61, 64
1, 14641, Note_on_c, 2, 56, 81
1, 14642, Note_off_c, 9, 42, 64
1, 14642, Note_off_c, 2, 65, 64
1, 14642, Note_on_c, 2, 61, 90
1, 14643, Note_on_c, 2, 65, 90
1, 14645, Lyric_t, "ly, "
1, 14645, Lyric_t, "\015"
1, 14645, Note_on_c, 3, 77, 115
1, 14646, Note_off_c, 0, 56, 64
1, 14648, Note_off_c, 3, 75, 64
1, 14686, Note_on_c, 0, 56, 92
1, 14687, Note_on_c, 9, 38, 116
1, 14688, Note_off_c, 9, 38, 64
1, 14688, Note_on_c, 9, 42, 83
1, 14689, Note_off_c, 9, 42, 64
1, 14689, Note_off_c, 2, 56, 64
1, 14690, Note_off_c, 2, 65, 64
1, 14690, Note_off_c, 2, 61, 64
1, 14690, Note_on_c, 2, 56, 88
1, 14691, Note_off_c, 0, 53, 64
1, 14691, Note_on_c, 2, 61, 101
1, 14691, Note_on_c, 2, 65, 98
1, 14725, Note_off_c, 1, 37, 64
1, 14735, Note_on_c, 9, 35, 68
1, 14735, Note_on_c, 9, 42, 58
1, 14735, Note_on_c, 1, 37, 111
1, 14736, Note_off_c, 9, 42, 64
1, 14736, Note_off_c, 9, 35, 64
1, 14736, Note_off_c, 2, 65, 64
1, 14737, Note_on_c, 0, 53, 91
1, 14738, Note_off_c, 2, 61, 64
1, 14738, Note_off_c, 2, 56, 64
1, 14739, Note_on_c, 2, 65, 104
1, 14739, Note_on_c, 2, 61, 102
1, 14739, Note_on_c, 2, 56, 99
1, 14740, Note_off_c, 2, 53, 64
1, 14741, Note_on_c, 2, 53, 68
1, 14744, Note_off_c, 0, 56, 64
1, 14777, Note_off_c, 1, 37, 64
1, 14782, Note_off_c, 5, 63, 64
1, 14782, Note_on_c, 5, 65, 75
1, 14783, Note_on_c, 9, 35, 86
1, 14783, Note_on_c, 9, 42, 66
1, 14783, Note_on_c, 1, 37, 111
1, 14783, Note_on_c, 0, 61, 109
1, 14784, Note_off_c, 9, 42, 64
1, 14784, Note_off_c, 9, 35, 64
1, 14784, Note_off_c, 0, 53, 64
1, 14828, Note_off_c, 2, 56, 64
1, 14830, Note_on_c, 9, 42, 44
1, 14830, Note_off_c, 2, 61, 64
1, 14831, Note_off_c, 9, 42, 64
1, 14831, Note_on_c, 0, 56, 106
1, 14831, Note_off_c, 2, 65, 64
1, 14831, Note_on_c, 2, 56, 86
1, 14832, Note_on_c, 2, 61, 88
1, 14833, Note_on_c, 2, 65, 72
1, 14840, Note_off_c, 0, 61, 64
1, 14875, Note_off_c, 2, 53, 64
1, 14878, Note_off_c, 2, 56, 64
1, 14878, Note_off_c, 2, 61, 64
1, 14878, Note_on_c, 2, 53, 61
1, 14879, Note_on_c, 9, 38, 115
1, 14879, Note_on_c, 9, 42, 71
1, 14879, Note_off_c, 2, 65, 64
1, 14879, Note_on_c, 2, 56, 100
1, 14879, Note_on_c, 2, 61, 106
1, 14880, Note_off_c, 9, 42, 64
1, 14880, Note_off_c, 9, 38, 64
1, 14880, Note_on_c, 0, 61, 120
1, 14880, Note_on_c, 2, 65, 106
1, 14884, Note_off_c, 0, 56, 64
1, 14889, Note_off_c, 1, 37, 64
1, 14898, Note_on_c, 8, 68, 83
1, 14903, Note_on_c, 1, 32, 106
1, 14915, Note_off_c, 7, 92, 64
1, 14915, Note_off_c, 8, 68, 64
1, 14923, Note_on_c, 7, 85, 85
1, 14923, Note_on_c, 8, 73, 100
1, 14925, Note_off_c, 1, 32, 64
1, 14925, Note_off_c, 2, 56, 64
1, 14926, Note_on_c, 2, 56, 98
1, 14927, Note_on_c, 9, 35, 104
1, 14927, Note_on_c, 9, 42, 60
1, 14927, Note_on_c, 1, 39, 108
1, 14927, Note_off_c, 2, 61, 64
1, 14928, Note_off_c, 9, 42, 64
1, 14928, Note_off_c, 9, 35, 64
1, 14928, Note_off_c, 2, 65, 64
1, 14928, Note_on_c, 2, 61, 105
1, 14929, Note_on_c, 2, 65, 104
1, 14941, Note_off_c, 0, 61, 64
1, 14943, Note_off_c, 8, 73, 64
1, 14945, Note_off_c, 7, 85, 64
1, 14947, Note_on_c, 7, 89, 74
1, 14951, Note_on_c, 1, 32, 110
1, 14954, Note_off_c, 0, 49, 64
1, 14956, Note_off_c, 1, 39, 64
1, 14970, Note_off_c, 2, 53, 64
1, 14972, Note_on_c, 0, 56, 105
1, 14972, Note_on_c, 0, 59, 104
1, 14973, Note_on_c, 0, 63, 113
1, 14973, Note_off_c, 2, 56, 64
1, 14974, Note_off_c, 2, 61, 64
1, 14974, Note_on_c, 2, 53, 58
1, 14974, Note_on_c, 2, 56, 88
1, 14974, Note_off_c, 7, 89, 64
1, 14974, Note_on_c, 7, 94, 85
1, 14975, Note_on_c, 9, 35, 108
1, 14975, Note_on_c, 9, 42, 69
1, 14975, Note_on_c, 1, 37, 109
1, 14975, Note_off_c, 2, 65, 64
1, 14975, Note_on_c, 2, 61, 90
1, 14976, Note_off_c, 9, 42, 64
1, 14976, Note_off_c, 9, 35, 64
1, 14976, Note_off_c, 1, 32, 64
1, 14976, Note_on_c, 2, 65, 64
1, 14976, Note_on_c, 5, 63, 75
1, 14977, Note_off_c, 5, 65, 64
1, 15021, Note_off_c, 2, 56, 64
1, 15022, Note_on_c, 2, 56, 88
1, 15023, Note_on_c, 9, 42, 58
1, 15023, Note_off_c, 2, 61, 64
1, 15024, Note_off_c, 9, 42, 64
1, 15024, Note_on_c, 2, 61, 86
1, 15055, Note_off_c, 0, 59, 64
1, 15055, Note_off_c, 0, 56, 64
1, 15059, Note_off_c, 0, 63, 64
1, 15066, Note_on_c, 5, 65, 73
1, 15067, Note_off_c, 2, 53, 64
1, 15068, Note_off_c, 2, 56, 64
1, 15068, Note_off_c, 7, 94, 64
1, 15069, Note_on_c, 0, 65, 108
1, 15069, Note_off_c, 2, 61, 64
1, 15069, Note_on_c, 2, 53, 64
1, 15069, Note_off_c, 5, 63, 64
1, 15069, Note_on_c, 7, 92, 79
1, 15070, Note_on_c, 9, 42, 67
1, 15070, Note_on_c, 0, 59, 104
1, 15070, Note_on_c, 0, 56, 103
1, 15070, Note_off_c, 2, 65, 64
1, 15070, Note_on_c, 2, 61, 106
1, 15070, Note_on_c, 2, 56, 95
1, 15071, Note_off_c, 9, 42, 64
1, 15071, Note_on_c, 9, 38, 114
1, 15071, Note_on_c, 2, 65, 105
1, 15072, Note_off_c, 9, 38, 64
1, 15117, Note_off_c, 2, 61, 64
1, 15118, Note_off_c, 2, 65, 64
1, 15118, Note_on_c, 2, 61, 97
1, 15119, Note_on_c, 9, 42, 58
1, 15119, Note_on_c, 2, 65, 95
1, 15120, Note_off_c, 9, 42, 64
1, 15129, Note_off_c, 2, 56, 64
1, 15131, Note_off_c, 2, 53, 64
1, 15133, Note_off_c, 2, 61, 64
1, 15136, Note_off_c, 2, 65, 64
1, 15142, Note_off_c, 1, 37, 64
1, 15144, Note_on_c, 1, 32, 108
1, 15145, Note_off_c, 0, 56, 64
1, 15145, Note_off_c, 0, 65, 64
1, 15146, Note_off_c, 0, 59, 64
1, 15152, Note_off_c, 3, 77, 64
1, 15153, Note_off_c, 1, 32, 64
1, 15163, Note_on_c, 2, 54, 32
1, 15164, Note_on_c, 2, 59, 88
1, 15164, Note_on_c, 5, 66, 70
1, 15164, Note_on_c, 7, 90, 76
1, 15165, Note_on_c, 2, 63, 106
1, 15165, Note_off_c, 5, 65, 64
1, 15166, Note_on_c, 2, 66, 109
1, 15167, Note_on_c, 9, 42, 71
1, 15167, Note_on_c, 0, 63, 105
1, 15167, Note_on_c, 0, 59, 89
1, 15168, Note_off_c, 9, 42, 64
1, 15168, Note_on_c, 0, 56, 95
1, 15169, Note_on_c, 1, 35, 116
1, 15169, Note_on_c, 0, 66, 111
1, 15169, Note_off_c, 7, 92, 64
1, 15213, Note_off_c, 2, 66, 64
1, 15214, Note_on_c, 2, 66, 107
1, 15215, Note_on_c, 9, 42, 63
1, 15215, Note_off_c, 2, 63, 64
1, 15216, Note_off_c, 9, 42, 64
1, 15216, Note_off_c, 2, 59, 64
1, 15216, Note_on_c, 2, 63, 106
1, 15217, Note_on_c, 2, 59, 108
1, 15230, Note_off_c, 1, 35, 64
1, 15241, Note_off_c, 2, 66, 64
1, 15242, Note_on_c, 1, 37, 108
1, 15243, Note_off_c, 2, 54, 64
1, 15245, Note_off_c, 2, 59, 64
1, 15247, Note_off_c, 2, 63, 64
1, 15249, Note_off_c, 0, 66, 64
1, 15251, Note_off_c, 0, 63, 64
1, 15251, Note_off_c, 0, 59, 64
1, 15253, Note_off_c, 1, 37, 64
1, 15253, Note_off_c, 0, 56, 64
1, 15259, Note_off_c, 5, 66, 64
1, 15261, Lyric_t, "tru"
1, 15261, Note_on_c, 3, 75, 119
1, 15261, Note_on_c, 5, 65, 73
1, 15263, Note_on_c, 9, 38, 115
1, 15263, Note_on_c, 9, 42, 71
1, 15263, Note_on_c, 7, 89, 73
1, 15264, Note_off_c, 9, 42, 64
1, 15264, Note_off_c, 9, 38, 64
1, 15264, Note_on_c, 2, 53, 58
1, 15265, Note_on_c, 1, 34, 117
1, 15265, Note_on_c, 0, 56, 99
1, 15265, Note_on_c, 0, 59, 97
1, 15265, Note_on_c, 2, 56, 90
1, 15265, Note_off_c, 7, 90, 64
1, 15266, Note_on_c, 0, 61, 105
1, 15266, Note_on_c, 0, 65, 108
1, 15266, Note_on_c, 2, 65, 97
1, 15266, Note_on_c, 2, 61, 102
1, 15289, Note_on_c, 7, 90, 73
1, 15292, Lyric_t, "ly "
1, 15292, Note_on_c, 3, 77, 112
1, 15294, Note_off_c, 3, 75, 64
1, 15294, Note_off_c, 7, 89, 64
1, 15307, Note_off_c, 1, 34, 64
1, 15307, Note_off_c, 0, 59, 64
1, 15309, Note_off_c, 0, 56, 64
1, 15309, Note_off_c, 0, 61, 64
1, 15309, Note_off_c, 0, 65, 64
1, 15311, Note_on_c, 9, 46, 80
1, 15311, Note_off_c, 2, 65, 64
1, 15312, Note_off_c, 9, 46, 64
1, 15312, Note_on_c, 1, 32, 114
1, 15312, Note_on_c, 2, 65, 106
1, 15313, Note_off_c, 2, 61, 64
1, 15313, Note_off_c, 2, 56, 64
1, 15314, Note_on_c, 2, 56, 98
1, 15314, Note_on_c, 2, 61, 104
1, 15315, Note_on_c, 0, 65, 85
1, 15315, Note_on_c, 0, 56, 91
1, 15315, Note_on_c, 0, 61, 105
1, 15315, Note_on_c, 0, 59, 99
1, 15322, Lyric_t, "in "
1, 15322, Note_on_c, 3, 78, 103
1, 15324, Note_off_c, 3, 77, 64
1, 15333, Note_off_c, 2, 56, 64
1, 15335, Note_off_c, 0, 59, 64
1, 15336, Note_off_c, 0, 61, 64
1, 15337, Note_off_c, 0, 56, 64
1, 15337, Note_off_c, 0, 65, 64
1, 15339, Note_off_c, 2, 53, 64
1, 15340, Note_off_c, 2, 65, 64
1, 15340, Note_off_c, 2, 61, 64
1, 15348, Note_off_c, 3, 78, 64
1, 15356, Lyric_t, "love "
1, 15356, Note_on_c, 3, 77, 110
1, 15356, Note_off_c, 1, 32, 64
1, 15358, Note_on_c, 2, 54, 80
1, 15359, Note_on_c, 1, 30, 113
1, 15359, Note_on_c, 2, 58, 97
1, 15360, Note_on_c, 9, 35, 108
1, 15360, Note_on_c, 9, 49, 86
1, 15360, Note_on_c, 2, 61, 104
1, 15361, Note_off_c, 9, 49, 64
1, 15361, Note_off_c, 9, 35, 64
1, 15361, Note_on_c, 2, 65, 100
1, 15362, Note_off_c, 5, 65, 64
1, 15363, Note_on_c, 0, 61, 114
1, 15363, Note_on_c, 0, 70, 109
1, 15363, Note_on_c, 0, 65, 115
1, 15363, Note_on_c, 0, 58, 120
1, 15364, Note_on_c, 5, 70, 75
1, 15364, Note_off_c, 7, 90, 64
1, 15366, Note_on_c, 7, 92, 78
1, 15407, Note_off_c, 2, 58, 64
1, 15409, Note_off_c, 2, 61, 64
1, 15410, Note_on_c, 2, 61, 82
1, 15411, Note_on_c, 2, 58, 77
1, 15412, Note_off_c, 2, 65, 64
1, 15454, Note_off_c, 2, 58, 64
1, 15455, Note_off_c, 2, 61, 64
1, 15455, Note_on_c, 2, 58, 90
1, 15456, Note_on_c, 9, 38, 115
1, 15456, Note_on_c, 9, 42, 67
1, 15456, Note_on_c, 2, 61, 104
1, 15457, Note_off_c, 9, 42, 64
1, 15457, Note_off_c, 9, 38, 64
1, 15457, Note_on_c, 2, 65, 109
1, 15479, Note_off_c, 3, 77, 64
1, 15487, Lyric_t, "with "
1, 15487, Note_on_c, 3, 75, 106
1, 15495, Note_off_c, 0, 58, 64
1, 15495, Note_off_c, 0, 61, 64
1, 15495, Note_off_c, 0, 70, 64
1, 15495, Note_off_c, 0, 65, 64
1, 15501, Note_off_c, 1, 30, 64
1, 15505, Note_on_c, 9, 42, 60
1, 15505, Note_on_c, 1, 30, 109
1, 15505, Note_on_c, 0, 61, 114
1, 15505, Note_on_c, 0, 58, 107
1, 15505, Note_on_c, 0, 70, 118
1, 15505, Note_off_c, 2, 65, 64
1, 15505, Note_on_c, 11, 65, 109
1, 15506, Note_off_c, 9, 42, 64
1, 15506, Note_on_c, 0, 65, 119
1, 15506, Note_off_c, 2, 61, 64
1, 15506, Note_on_c, 2, 65, 105
1, 15507, Note_off_c, 2, 58, 64
1, 15507, Note_on_c, 2, 61, 105
1, 15508, Note_off_c, 2, 54, 64
1, 15508, Note_on_c, 2, 58, 104
1, 15508, Note_on_c, 11, 68, 100
1, 15509, Note_on_c, 2, 54, 74
1, 15523, Note_off_c, 3, 75, 64
1, 15529, Note_off_c, 11, 68, 64
1, 15530, Lyric_t, "you, "
1, 15530, Note_on_c, 3, 77, 107
1, 15530, Note_off_c, 11, 65, 64
1, 15530, Note_on_c, 11, 70, 85
1, 15530, Note_on_c, 11, 66, 105
1, 15545, Note_off_c, 1, 30, 64
1, 15546, Note_off_c, 0, 65, 64
1, 15546, Note_off_c, 0, 70, 64
1, 15546, Note_off_c, 0, 61, 64
1, 15548, Note_off_c, 0, 58, 64
1, 15552, Note_on_c, 1, 30, 110
1, 15552, Note_off_c, 2, 65, 64
1, 15553, Note_on_c, 9, 42, 67
1, 15553, Note_on_c, 2, 65, 86
1, 15554, Note_off_c, 9, 42, 64
1, 15555, Note_on_c, 0, 70, 106
1, 15555, Note_on_c, 0, 61, 112
1, 15555, Note_on_c, 0, 58, 103
1, 15555, Note_off_c, 11, 66, 64
1, 15556, Note_on_c, 0, 65, 115
1, 15556, Note_on_c, 11, 65, 112
1, 15557, Note_on_c, 11, 68, 111
1, 15558, Note_off_c, 11, 70, 64
1, 15565, Note_off_c, 3, 77, 64
1, 15566, Lyric_t, "girl. "
1, 15566, Lyric_t, "\015"
1, 15566, Note_on_c, 3, 73, 103
1, 15579, Note_on_c, 8, 77, 100
1, 15596, Note_off_c, 2, 58, 64
1, 15599, Note_off_c, 2, 61, 64
1, 15599, Note_on_c, 2, 58, 89
1, 15599, Note_off_c, 8, 77, 64
1, 15600, Note_on_c, 9, 42, 50
1, 15601, Note_off_c, 9, 42, 64
1, 15601, Note_off_c, 2, 65, 64
1, 15601, Note_on_c, 2, 61, 104
1, 15602, Note_on_c, 2, 65, 95
1, 15604, Note_on_c, 8, 82, 102
1, 15624, Note_off_c, 8, 82, 64
1, 15627, Note_on_c, 8, 85, 116
1, 15640, Note_off_c, 8, 85, 64
1, 15642, Note_off_c, 2, 54, 64
1, 15645, Note_off_c, 2, 58, 64
1, 15645, Note_on_c, 2, 54, 63
1, 15645, Note_off_c, 11, 68, 64
1, 15646, Note_off_c, 2, 61, 64
1, 15646, Note_off_c, 2, 65, 64
1, 15646, Note_on_c, 2, 58, 106
1, 15647, Note_on_c, 2, 65, 108
1, 15647, Note_on_c, 2, 61, 108
1, 15648, Note_on_c, 9, 38, 115
1, 15649, Note_off_c, 9, 38, 64
1, 15649, Note_on_c, 9, 42, 60
1, 15649, Note_off_c, 11, 65, 64
1, 15650, Note_off_c, 9, 42, 64
1, 15685, Note_off_c, 1, 30, 64
1, 15695, Note_on_c, 9, 35, 102
1, 15695, Note_on_c, 9, 42, 55
1, 15695, Note_on_c, 1, 29, 112
1, 15695, Note_off_c, 2, 65, 64
1, 15696, Note_off_c, 9, 42, 64
1, 15696, Note_off_c, 9, 35, 64
1, 15696, Note_off_c, 2, 61, 64
1, 15696, Note_on_c, 2, 65, 106
1, 15697, Note_off_c, 2, 58, 64
1, 15697, Note_off_c, 2, 54, 64
1, 15697, Note_on_c, 2, 61, 106
1, 15698, Note_on_c, 2, 58, 106
1, 15698, Note_on_c, 2, 54, 88
1, 15716, Note_off_c, 2, 54, 64
1, 15717, Note_off_c, 2, 61, 64
1, 15719, Note_on_c, 1, 30, 104
1, 15719, Note_off_c, 2, 58, 64
1, 15719, Note_off_c, 2, 65, 64
1, 15724, Note_off_c, 1, 29, 64
1, 15729, Note_off_c, 0, 58, 64
1, 15736, Note_off_c, 0, 70, 64
1, 15736, Note_off_c, 0, 61, 64
1, 15738, Note_off_c, 0, 65, 64
1, 15742, Note_on_c, 0, 61, 106
1, 15742, Note_on_c, 0, 66, 100
1, 15742, Note_on_c, 0, 70, 92
1, 15744, Note_on_c, 9, 35, 106
1, 15744, Note_on_c, 9, 42, 61
1, 15744, Note_on_c, 1, 32, 111
1, 15744, Note_on_c, 2, 58, 85
1, 15744, Note_on_c, 2, 61, 103
1, 15745, Note_off_c, 9, 42, 64
1, 15745, Note_off_c, 9, 35, 64
1, 15745, Note_on_c, 2, 66, 97
1, 15746, Note_on_c, 2, 54, 56
1, 15748, Note_off_c, 1, 30, 64
1, 15788, Note_off_c, 2, 58, 64
1, 15790, Note_on_c, 2, 58, 89
1, 15791, Note_on_c, 9, 42, 44
1, 15792, Note_off_c, 9, 42, 64
1, 15806, Lyric_t, "\012"
1, 15826, Note_off_c, 5, 70, 64
1, 15833, Note_off_c, 0, 61, 64
1, 15833, Note_off_c, 7, 92, 64
1, 15834, Note_off_c, 2, 54, 64
1, 15835, Note_off_c, 2, 58, 64
1, 15836, Note_off_c, 3, 73, 64
1, 15836, Note_off_c, 2, 61, 64
1, 15837, Note_off_c, 2, 66, 64
1, 15837, Note_on_c, 2, 54, 75
1, 15837, Note_on_c, 2, 58, 103
1, 15837, Note_on_c, 7, 89, 84
1, 15838, Note_on_c, 2, 61, 110
1, 15838, Note_on_c, 2, 66, 109
1, 15838, Note_on_c, 5, 70, 93
1, 15838, Note_on_c, 5, 73, 87
1, 15839, Note_on_c, 9, 38, 115
1, 15839, Note_on_c, 9, 42, 61
1, 15839, Note_on_c, 11, 73, 108
1, 15840, Tempo, 895522
1, 15840, Note_off_c, 9, 42, 64
1, 15840, Note_off_c, 9, 38, 64
1, 15842, Note_on_c, 0, 61, 106
1, 15863, Note_off_c, 7, 89, 64
1, 15869, Note_off_c, 5, 73, 64
1, 15869, Note_on_c, 7, 90, 71
1, 15871, Note_off_c, 5, 70, 64
1, 15884, Note_off_c, 1, 32, 64
1, 15884, Note_off_c, 2, 58, 64
1, 15884, Note_off_c, 11, 73, 64
1, 15885, Note_off_c, 2, 61, 64
1, 15885, Note_on_c, 2, 58, 86
1, 15886, Note_off_c, 2, 66, 64
1, 15886, Note_on_c, 2, 61, 98
1, 15887, Note_on_c, 9, 46, 71
1, 15887, Note_on_c, 2, 66, 86
1, 15888, Note_off_c, 9, 46, 64
1, 15888, Note_on_c, 0, 56, 106
1, 15888, Note_on_c, 11, 72, 84
1, 15888, Note_on_c, 5, 72, 90
1, 15888, Note_on_c, 5, 68, 75
1, 15889, Note_on_c, 1, 32, 109
1, 15895, Note_off_c, 7, 90, 64
1, 15902, Note_on_c, 7, 87, 79
1, 15913, Note_off_c, 5, 68, 64
1, 15914, Note_off_c, 0, 61, 64
1, 15914, Note_off_c, 5, 72, 64
1, 15927, Note_off_c, 7, 87, 64
1, 15931, Note_off_c, 11, 72, 64
1, 15932, Tempo, 937500
1, 15932, Note_off_c, 2, 54, 64
1, 15933, Note_off_c, 2, 58, 64
1, 15933, Note_off_c, 2, 61, 64
1, 15933, Note_off_c, 2, 66, 64
1, 15933, Note_on_c, 2, 54, 55
1, 15934, Note_on_c, 2, 58, 98
1, 15934, Note_on_c, 2, 61, 106
1, 15934, Note_on_c, 2, 66, 106
1, 15935, Note_on_c, 1, 44, 108
1, 15935, Note_on_c, 0, 61, 106
1, 15935, Note_on_c, 5, 66, 79
1, 15935, Note_on_c, 5, 70, 84
1, 15935, Note_on_c, 7, 89, 69
1, 15936, Note_on_c, 9, 35, 104
1, 15937, Note_off_c, 9, 35, 64
1, 15937, Note_on_c, 9, 42, 72
1, 15937, Note_on_c, 11, 70, 111
1, 15938, Note_off_c, 9, 42, 64
1, 15939, Note_off_c, 1, 32, 64
1, 15960, Note_off_c, 0, 56, 64
1, 15960, Note_off_c, 7, 89, 64
1, 15961, Note_off_c, 5, 66, 64
1, 15962, Note_off_c, 5, 70, 64
1, 15966, Note_on_c, 7, 90, 70
1, 15976, Note_off_c, 11, 70, 64
1, 15980, Note_off_c, 2, 58, 64
1, 15981, Note_off_c, 2, 61, 64
1, 15981, Note_on_c, 2, 58, 95
1, 15982, Note_off_c, 2, 66, 64
1, 15982, Note_on_c, 2, 61, 106
1, 15982, Note_on_c, 5, 68, 91
1, 15983, Control_c, 9, 91, 80
1, 15983, Note_on_c, 2, 66, 104
1, 15983, Note_on_c, 5, 65, 84
1, 15984, Note_on_c, 9, 48, 120
1, 15984, Note_on_c, 11, 68, 91
1, 15985, Note_off_c, 9, 48, 64
1, 15985, Note_on_c, 0, 56, 102
1, 15987, Note_off_c, 0, 61, 64
1, 15992, Note_off_c, 7, 90, 64
1, 15998, Note_on_c, 7, 87, 72
1, 16002, Note_on_c, 8, 96, 95
1, 16007, Note_off_c, 5, 68, 64
1, 16007, Note_on_c, 8, 94, 103
1, 16008, Note_off_c, 5, 65, 64
1, 16009, Note_off_c, 8, 96, 64
1, 16013, Note_on_c, 8, 92, 101
1, 16015, Note_off_c, 8, 94, 64
1, 16018, Note_on_c, 8, 90, 108
1, 16020, Note_off_c, 8, 92, 64
1, 16023, Note_off_c, 7, 87, 64
1, 16023, Note_on_c, 8, 89, 105
1, 16024, Note_off_c, 8, 90, 64
1, 16026, Note_off_c, 11, 68, 64
1, 16027, Note_off_c, 2, 54, 64
1, 16028, Note_off_c, 2, 58, 64
1, 16028, Note_off_c, 2, 61, 64
1, 16028, Note_on_c, 8, 87, 109
1, 16029, Lyric_t, "I'm "
1, 16029, Note_on_c, 3, 68, 123
1, 16029, Note_off_c, 2, 66, 64
1, 16029, Note_on_c, 2, 54, 58
1, 16029, Note_on_c, 2, 58, 98
1, 16029, Note_on_c, 2, 61, 109
1, 16029, Note_on_c, 5, 66, 77
1, 16029, Note_on_c, 5, 63, 95
1, 16029, Note_off_c, 8, 89, 64
1, 16030, Note_on_c, 2, 66, 110
1, 16031, Note_on_c, 11, 66, 108
1, 16032, Note_on_c, 0, 61, 112
1, 16032, Note_on_c, 8, 85, 111
1, 16033, Note_on_c, 7, 89, 75
1, 16034, Note_on_c, 9, 45, 124
1, 16034, Note_off_c, 8, 87, 64
1, 16035, Note_off_c, 9, 45, 64
1, 16037, Note_on_c, 8, 84, 99
1, 16038, Note_off_c, 0, 56, 64
1, 16039, Note_off_c, 8, 85, 64
1, 16042, Note_on_c, 8, 82, 109
1, 16043, Note_off_c, 8, 84, 64
1, 16047, Note_on_c, 8, 80, 101
1, 16048, Note_off_c, 8, 82, 64
1, 16049, Note_off_c, 5, 66, 64
1, 16051, Note_on_c, 8, 78, 102
1, 16053, Note_off_c, 8, 80, 64
1, 16055, Note_off_c, 5, 63, 64
1, 16057, Note_on_c, 8, 77, 94
1, 16058, Note_off_c, 8, 78, 64
1, 16059, Note_off_c, 7, 89, 64
1, 16060, Note_off_c, 1, 44, 64
1, 16060, Note_on_c, 5, 61, 61
1, 16061, Note_on_c, 1, 39, 106
1, 16061, Note_on_c, 5, 65, 76
1, 16061, Note_on_c, 8, 75, 100
1, 16062, Note_off_c, 11, 66, 64
1, 16062, Note_off_c, 8, 77, 64
1, 16063, Note_on_c, 11, 65, 104
1, 16064, Note_on_c, 0, 56, 103
1, 16065, Note_off_c, 2, 66, 64
1, 16065, Note_on_c, 7, 90, 70
1, 16066, Note_off_c, 2, 61, 64
1, 16066, Note_off_c, 2, 58, 64
1, 16066, Note_on_c, 2, 66, 104
1, 16066, Note_on_c, 8, 73, 105
1, 16067, Note_on_c, 9, 43, 111
1, 16067, Note_on_c, 2, 58, 104
1, 16067, Note_on_c, 2, 61, 109
1, 16067, Note_off_c, 8, 75, 64
1, 16068, Note_off_c, 9, 43, 64
1, 16069, Note_off_c, 0, 61, 64
1, 16070, Note_on_c, 8, 72, 101
1, 16072, Note_off_c, 8, 73, 64
1, 16075, Note_on_c, 8, 70, 100
1, 16076, Note_off_c, 8, 72, 64
1, 16079, Note_on_c, 8, 68, 104
1, 16081, Note_off_c, 8, 70, 64
1, 16084, Note_off_c, 5, 61, 64
1, 16084, Note_on_c, 8, 66, 105
1, 16085, Note_off_c, 8, 68, 64
1, 16086, Note_off_c, 5, 65, 64
1, 16088, Note_on_c, 8, 65, 107
1, 16089, Note_off_c, 8, 66, 64
1, 16091, Note_on_c, 1, 32, 107
1, 16091, Note_off_c, 7, 90, 64
1, 16092, Note_on_c, 8, 63, 108
1, 16093, Note_off_c, 0, 56, 64
1, 16094, Note_on_c, 5, 63, 84
1, 16094, Note_on_c, 5, 60, 85
1, 16094, Note_off_c, 8, 65, 64
1, 16096, Note_off_c, 1, 39, 64
1, 16096, Note_on_c, 11, 63, 105
1, 16097, Note_on_c, 0, 56, 109
1, 16097, Note_off_c, 11, 65, 64
1, 16097, Note_on_c, 7, 87, 81
1, 16097, Note_on_c, 8, 61, 107
1, 16098, Note_off_c, 8, 63, 64
1, 16099, Note_on_c, 9, 43, 122
1, 16100, Note_off_c, 9, 43, 64
1, 16100, Note_off_c, 2, 61, 64
1, 16100, Note_off_c, 2, 66, 64
1, 16101, Note_off_c, 2, 54, 64
1, 16102, Note_on_c, 8, 60, 108
1, 16103, Note_off_c, 8, 61, 64
1, 16106, Note_on_c, 8, 58, 108
1, 16107, Note_off_c, 8, 60, 64
1, 16109, Note_off_c, 2, 58, 64
1, 16111, Note_on_c, 8, 56, 111
1, 16112, Note_off_c, 8, 58, 64
1, 16113, Note_off_c, 3, 68, 64
1, 16113, Note_off_c, 0, 70, 64
1, 16116, Note_off_c, 0, 66, 64
1, 16116, Note_on_c, 8, 54, 113
1, 16117, Note_off_c, 8, 56, 64
1, 16119, Note_off_c, 5, 63, 64
1, 16120, Note_off_c, 0, 56, 64
1, 16121, Note_off_c, 5, 60, 64
1, 16121, Note_off_c, 7, 87, 64
1, 16121, Note_on_c, 8, 53, 103
1, 16122, Note_off_c, 8, 54, 64
1, 16123, Note_off_c, 1, 32, 64
1, 16127, Lyric_t, "tru"
1, 16127, Note_on_c, 3, 75, 113
1, 16127, Note_on_c, 0, 49, 107
1, 16127, Note_on_c, 0, 61, 114
1, 16127, Note_on_c, 0, 65, 119
1, 16127, Note_on_c, 8, 51, 105
1, 16128, Control_c, 9, 91, 65
1, 16128, Note_on_c, 9, 49, 90
1, 16128, Note_on_c, 1, 37, 108
1, 16128, Note_on_c, 5, 63, 78
1, 16128, Note_off_c, 8, 53, 64
1, 16129, Note_off_c, 9, 49, 64
1, 16129, Note_on_c, 9, 35, 108
1, 16129, Note_on_c, 7, 94, 75
1, 16130, Note_off_c, 9, 35, 64
1, 16131, Note_on_c, 2, 53, 86
1, 16132, Note_on_c, 2, 56, 106
1, 16132, Note_off_c, 11, 63, 64
1, 16133, Note_on_c, 2, 61, 104
1, 16133, Note_on_c, 2, 65, 100
1, 16133, Note_off_c, 8, 51, 64
1, 16133, Note_on_c, 8, 49, 104
1, 16137, Note_off_c, 8, 49, 64
1, 16164, Tempo, 857143
1, 16173, Note_off_c, 0, 61, 64
1, 16175, Note_off_c, 2, 53, 64
1, 16176, Lyric_t, "ly "
1, 16176, Lyric_t, "\015"
1, 16176, Note_off_c, 3, 75, 64
1, 16176, Note_on_c, 3, 77, 118
1, 16176, Note_on_c, 0, 56, 118
1, 16177, Note_on_c, 9, 42, 64
1, 16177, Note_off_c, 2, 56, 64
1, 16177, Note_off_c, 2, 65, 64
1, 16178, Note_off_c, 9, 42, 64
1, 16178, Note_on_c, 2, 53, 82
1, 16178, Note_on_c, 2, 56, 90
1, 16179, Note_on_c, 2, 65, 84
1, 16221, Note_off_c, 7, 94, 64
1, 16222, Note_on_c, 0, 61, 104
1, 16222, Note_off_c, 2, 65, 64
1, 16222, Note_off_c, 2, 61, 64
1, 16222, Note_off_c, 2, 53, 64
1, 16222, Note_on_c, 7, 92, 81
1, 16223, Note_off_c, 2, 56, 64
1, 16223, Note_on_c, 2, 53, 86
1, 16224, Note_on_c, 2, 56, 101
1, 16225, Note_on_c, 9, 38, 115
1, 16225, Note_on_c, 9, 42, 75
1, 16225, Note_on_c, 2, 61, 111
1, 16226, Note_off_c, 9, 42, 64
1, 16226, Note_off_c, 9, 38, 64
1, 16226, Note_on_c, 2, 65, 106
1, 16230, Note_off_c, 0, 56, 64
1, 16266, Note_off_c, 1, 37, 64
1, 16271, Note_on_c, 1, 37, 108
1, 16271, Note_on_c, 0, 56, 98
1, 16271, Note_off_c, 2, 65, 64
1, 16271, Note_on_c, 11, 56, 124
1, 16273, Note_on_c, 9, 42, 43
1, 16273, Note_off_c, 2, 61, 64
1, 16273, Note_off_c, 2, 56, 64
1, 16274, Note_off_c, 9, 42, 64
1, 16274, Note_off_c, 2, 53, 64
1, 16274, Note_on_c, 2, 61, 104
1, 16274, Note_on_c, 2, 56, 104
1, 16274, Note_on_c, 2, 65, 98
1, 16275, Note_on_c, 2, 53, 64
1, 16291, Note_off_c, 0, 61, 64
1, 16293, Note_off_c, 11, 56, 64
1, 16293, Note_on_c, 11, 57, 112
1, 16297, Note_off_c, 11, 57, 64
1, 16297, Note_on_c, 11, 58, 110
1, 16316, Note_off_c, 2, 56, 64
1, 16316, Note_off_c, 2, 61, 64
1, 16317, Note_off_c, 1, 37, 64
1, 16318, Note_on_c, 2, 56, 73
1, 16318, Note_off_c, 11, 58, 64
1, 16318, Note_on_c, 11, 57, 94
1, 16318, Note_on_c, 5, 65, 69
1, 16319, Note_on_c, 9, 35, 108
1, 16319, Note_on_c, 9, 42, 72
1, 16319, Note_on_c, 0, 61, 100
1, 16319, Note_on_c, 2, 61, 75
1, 16320, Note_off_c, 9, 42, 64
1, 16320, Note_off_c, 9, 35, 64
1, 16320, Note_on_c, 1, 37, 111
1, 16323, Note_off_c, 11, 57, 64
1, 16323, Note_on_c, 11, 56, 75
1, 16323, Note_off_c, 5, 63, 64
1, 16329, Note_off_c, 0, 56, 64
1, 16361, Note_off_c, 2, 53, 64
1, 16365, Note_off_c, 2, 65, 64
1, 16365, Note_off_c, 2, 56, 64
1, 16365, Note_off_c, 2, 61, 64
1, 16365, Note_on_c, 2, 53, 62
1, 16366, Note_on_c, 2, 56, 99
1, 16366, Note_on_c, 2, 61, 104
1, 16367, Note_on_c, 9, 42, 52
1, 16367, Note_on_c, 2, 65, 86
1, 16368, Note_off_c, 9, 42, 64
1, 16368, Note_on_c, 0, 56, 92
1, 16377, Note_off_c, 0, 61, 64
1, 16389, Note_on_c, 8, 68, 86
1, 16411, Note_off_c, 8, 68, 64
1, 16413, Note_off_c, 2, 65, 64
1, 16413, Note_off_c, 2, 61, 64
1, 16414, Note_on_c, 2, 61, 104
1, 16414, Note_on_c, 2, 65, 108
1, 16414, Note_on_c, 8, 73, 108
1, 16415, Note_on_c, 9, 38, 114
1, 16415, Note_on_c, 9, 42, 72
1, 16416, Note_off_c, 9, 42, 64
1, 16416, Note_off_c, 9, 38, 64
1, 16417, Note_on_c, 0, 61, 109
1, 16424, Note_off_c, 3, 77, 64
1, 16424, Note_off_c, 0, 56, 64
1, 16433, Note_off_c, 1, 37, 64
1, 16436, Note_off_c, 8, 73, 64
1, 16437, Note_off_c, 7, 92, 64
1, 16439, Note_on_c, 7, 85, 79
1, 16440, Note_on_c, 1, 32, 107
1, 16449, Note_off_c, 1, 32, 64
1, 16461, Note_off_c, 2, 65, 64
1, 16462, Note_off_c, 2, 61, 64
1, 16462, Note_on_c, 2, 65, 106
1, 16463, Note_on_c, 9, 35, 107
1, 16463, Note_on_c, 9, 42, 52
1, 16463, Note_on_c, 2, 61, 107
1, 16463, Note_on_c, 7, 89, 81
1, 16464, Note_off_c, 9, 42, 64
1, 16464, Note_off_c, 9, 35, 64
1, 16464, Note_on_c, 1, 39, 109
1, 16465, Note_on_c, 0, 56, 109
1, 16465, Note_off_c, 7, 85, 64
1, 16474, Note_off_c, 0, 61, 64
1, 16476, Note_off_c, 11, 56, 64
1, 16487, Note_on_c, 1, 38, 108
1, 16488, Note_off_c, 1, 39, 64
1, 16488, Note_on_c, 7, 92, 74
1, 16494, Note_off_c, 0, 65, 64
1, 16494, Note_off_c, 7, 89, 64
1, 16496, Note_off_c, 0, 56, 64
1, 16505, Note_off_c, 0, 49, 64
1, 16506, Note_off_c, 5, 65, 64
1, 16507, Note_off_c, 2, 61, 64
1, 16507, Note_off_c, 2, 56, 64
1, 16509, Note_off_c, 2, 65, 64
1, 16509, Note_on_c, 2, 56, 95
1, 16509, Note_on_c, 2, 61, 92
1, 16509, Note_on_c, 5, 63, 76
1, 16510, Note_on_c, 2, 65, 83
1, 16511, Note_on_c, 0, 63, 114
1, 16511, Note_on_c, 0, 56, 126
1, 16512, Note_on_c, 9, 35, 105
1, 16512, Note_on_c, 9, 42, 67
1, 16512, Note_on_c, 0, 59, 125
1, 16513, Note_off_c, 9, 42, 64
1, 16513, Note_off_c, 9, 35, 64
1, 16513, Note_off_c, 1, 38, 64
1, 16513, Note_on_c, 1, 37, 109
1, 16514, Note_on_c, 7, 94, 83
1, 16519, Note_off_c, 7, 92, 64
1, 16555, Note_off_c, 2, 53, 64
1, 16556, Note_off_c, 2, 56, 64
1, 16556, Note_on_c, 2, 53, 64
1, 16557, Note_on_c, 2, 56, 101
1, 16558, Note_off_c, 2, 61, 64
1, 16559, Note_on_c, 9, 42, 53
1, 16559, Note_on_c, 2, 61, 75
1, 16560, Note_off_c, 9, 42, 64
1, 16592, Note_off_c, 0, 59, 64
1, 16596, Note_off_c, 0, 56, 64
1, 16597, Note_off_c, 0, 63, 64
1, 16601, Note_off_c, 5, 63, 64
1, 16603, Note_off_c, 2, 61, 64
1, 16603, Note_off_c, 2, 56, 64
1, 16604, Note_off_c, 2, 65, 64
1, 16604, Note_on_c, 5, 65, 79
1, 16604, Note_on_c, 7, 92, 78
1, 16605, Note_on_c, 2, 56, 107
1, 16605, Note_on_c, 2, 61, 112
1, 16605, Note_on_c, 2, 65, 112
1, 16606, Note_off_c, 7, 94, 64
1, 16607, Note_on_c, 9, 38, 115
1, 16607, Note_on_c, 9, 42, 72
1, 16608, Note_off_c, 9, 42, 64
1, 16608, Note_off_c, 9, 38, 64
1, 16608, Note_on_c, 0, 56, 116
1, 16608, Note_on_c, 0, 65, 127
1, 16608, Note_on_c, 0, 59, 127
1, 16653, Note_off_c, 2, 65, 64
1, 16653, Note_off_c, 2, 61, 64
1, 16653, Note_off_c, 2, 56, 64
1, 16654, Note_on_c, 2, 56, 101
1, 16654, Note_on_c, 2, 61, 107
1, 16654, Note_on_c, 2, 65, 104
1, 16655, Note_on_c, 9, 42, 40
1, 16656, Note_off_c, 9, 42, 64
1, 16656, Note_off_c, 1, 37, 64
1, 16657, Note_on_c, 1, 37, 114
1, 16667, Note_off_c, 2, 53, 64
1, 16669, Note_off_c, 1, 37, 64
1, 16669, Note_off_c, 2, 56, 64
1, 16669, Note_off_c, 2, 61, 64
1, 16669, Note_off_c, 2, 65, 64
1, 16679, Note_on_c, 1, 32, 109
1, 16682, Note_off_c, 0, 65, 64
1, 16686, Note_off_c, 0, 59, 64
1, 16686, Note_off_c, 0, 56, 64
1, 16689, Note_off_c, 1, 32, 64
1, 16700, Note_on_c, 2, 59, 96
1, 16701, Note_on_c, 2, 66, 106
1, 16701, Note_on_c, 2, 63, 107
1, 16701, Note_on_c, 5, 66, 79
1, 16702, Note_on_c, 7, 90, 76
1, 16703, Note_off_c, 7, 92, 64
1, 16704, Note_on_c, 9, 35, 109
1, 16704, Note_on_c, 9, 42, 66
1, 16704, Note_on_c, 0, 66, 122
1, 16704, Note_on_c, 0, 59, 120
1, 16704, Note_on_c, 0, 56, 120
1, 16704, Note_on_c, 0, 63, 103
1, 16705, Note_off_c, 9, 42, 64
1, 16705, Note_off_c, 9, 35, 64
1, 16705, Note_on_c, 1, 35, 110
1, 16705, Note_off_c, 5, 65, 64
1, 16748, Note_off_c, 2, 66, 64
1, 16749, Note_off_c, 2, 63, 64
1, 16749, Note_off_c, 2, 59, 64
1, 16749, Note_on_c, 2, 66, 105
1, 16750, Note_on_c, 2, 59, 98
1, 16750, Note_on_c, 2, 63, 107
1, 16753, Note_on_c, 9, 42, 53
1, 16754, Note_off_c, 9, 42, 64
1, 16771, Note_off_c, 1, 35, 64
1, 16772, Note_off_c, 2, 66, 64
1, 16773, Note_off_c, 2, 59, 64
1, 16776, Note_off_c, 2, 63, 64
1, 16778, Note_on_c, 1, 37, 110
1, 16784, Note_off_c, 1, 37, 64
1, 16787, Note_off_c, 0, 63, 64
1, 16787, Note_off_c, 0, 66, 64
1, 16788, Note_off_c, 0, 56, 64
1, 16788, Note_off_c, 0, 59, 64
1, 16796, Lyric_t, "head "
1, 16796, Note_on_c, 3, 77, 122
1, 16797, Note_on_c, 5, 68, 79
1, 16797, Note_on_c, 7, 89, 74
1, 16798, Note_on_c, 0, 59, 116
1, 16798, Note_on_c, 0, 56, 98
1, 16799, Note_on_c, 0, 65, 119
1, 16799, Note_on_c, 0, 61, 112
1, 16799, Note_on_c, 2, 56, 100
1, 16800, Note_on_c, 9, 38, 114
1, 16800, Note_on_c, 9, 42, 69
1, 16800, Note_on_c, 2, 53, 73
1, 16800, Note_off_c, 7, 90, 64
1, 16801, Note_off_c, 9, 42, 64
1, 16801, Note_off_c, 9, 38, 64
1, 16801, Note_on_c, 1, 34, 113
1, 16802, Note_on_c, 2, 61, 106
1, 16802, Note_on_c, 2, 65, 108
1, 16802, Note_off_c, 5, 66, 64
1, 16823, Note_off_c, 3, 77, 64
1, 16823, Note_off_c, 1, 34, 64
1, 16823, Note_on_c, 1, 32, 109
1, 16824, Note_on_c, 7, 90, 69
1, 16826, Lyric_t, "o"
1, 16826, Note_on_c, 3, 78, 115
1, 16830, Note_off_c, 7, 89, 64
1, 16843, Note_off_c, 2, 65, 64
1, 16844, Note_off_c, 2, 61, 64
1, 16845, Note_off_c, 2, 56, 64
1, 16845, Note_on_c, 2, 65, 109
1, 16846, Note_off_c, 2, 53, 64
1, 16846, Note_on_c, 2, 61, 108
1, 16846, Note_on_c, 2, 56, 109
1, 16847, Note_on_c, 9, 46, 72
1, 16848, Note_off_c, 9, 46, 64
1, 16848, Note_on_c, 2, 53, 80
1, 16871, Note_on_c, 7, 91, 82
1, 16872, Note_off_c, 7, 90, 64
1, 16883, Note_off_c, 2, 53, 64
1, 16884, Note_off_c, 2, 56, 64
1, 16885, Note_off_c, 2, 61, 64
1, 16885, Note_off_c, 5, 68, 64
1, 16886, Note_off_c, 0, 61, 64
1, 16886, Note_off_c, 0, 59, 64
1, 16886, Note_off_c, 2, 65, 64
1, 16887, Note_off_c, 0, 65, 64
1, 16887, Note_on_c, 8, 73, 97
1, 16890, Note_off_c, 0, 56, 64
1, 16891, Note_off_c, 3, 78, 64
1, 16891, Note_on_c, 2, 54, 89
1, 16892, Note_on_c, 8, 77, 109
1, 16893, Note_off_c, 1, 32, 64
1, 16893, Note_on_c, 0, 58, 95
1, 16893, Note_on_c, 2, 58, 110
1, 16893, Note_on_c, 5, 70, 78
1, 16894, Lyric_t, "ver "
1, 16894, Note_on_c, 3, 80, 112
1, 16894, Note_on_c, 9, 52, 111
1, 16894, Note_on_c, 0, 61, 104
1, 16894, Note_on_c, 0, 42, 118
1, 16894, Note_on_c, 0, 65, 112
1, 16894, Note_on_c, 2, 61, 111
1, 16895, Note_off_c, 9, 52, 64
1, 16895, Note_on_c, 9, 35, 105
1, 16895, Note_on_c, 1, 30, 109
1, 16896, Note_off_c, 9, 35, 64
1, 16896, Note_on_c, 7, 92, 69
1, 16897, Note_on_c, 2, 65, 110
1, 16900, Note_off_c, 7, 91, 64
1, 16903, Note_off_c, 8, 73, 64
1, 16910, Note_off_c, 8, 77, 64
1, 16921, Note_off_c, 3, 80, 64
1, 16922, Lyric_t, "heels "
1, 16922, Note_on_c, 3, 77, 109
1, 16932, Note_off_c, 0, 58, 64
1, 16940, Note_off_c, 2, 58, 64
1, 16941, Note_off_c, 2, 61, 64
1, 16941, Note_on_c, 2, 58, 82
1, 16942, Note_on_c, 2, 61, 95
1, 16943, Note_off_c, 2, 65, 64
1, 16944, Note_on_c, 0, 58, 76
1, 16944, Note_on_c, 2, 65, 89
1, 16959, Note_off_c, 0, 61, 64
1, 16986, Note_off_c, 2, 61, 64
1, 16987, Note_off_c, 2, 65, 64
1, 16987, Note_off_c, 2, 58, 64
1, 16988, Note_off_c, 2, 54, 64
1, 16989, Note_on_c, 2, 58, 105
1, 16989, Note_on_c, 2, 61, 108
1, 16989, Note_on_c, 2, 54, 86
1, 16990, Note_on_c, 9, 38, 114
1, 16990, Note_off_c, 0, 58, 64
1, 16990, Note_on_c, 2, 65, 108
1, 16991, Note_off_c, 9, 38, 64
1, 16991, Note_on_c, 9, 42, 66
1, 16992, Note_off_c, 9, 42, 64
1, 16992, Note_on_c, 0, 61, 103
1, 17013, Note_on_c, 8, 61, 105
1, 17033, Note_off_c, 1, 30, 64
1, 17037, Note_off_c, 2, 65, 64
1, 17038, Note_on_c, 2, 65, 103
1, 17038, Note_on_c, 8, 65, 111
1, 17039, Note_on_c, 9, 35, 103
1, 17039, Note_off_c, 2, 61, 64
1, 17040, Note_off_c, 3, 77, 64
1, 17040, Note_off_c, 9, 35, 64
1, 17040, Note_on_c, 1, 30, 107
1, 17040, Note_on_c, 2, 61, 103
1, 17040, Note_off_c, 8, 61, 64
1, 17041, Note_on_c, 0, 58, 67
1, 17052, Lyric_t, "with "
1, 17052, Note_on_c, 3, 75, 119
1, 17057, Note_off_c, 8, 65, 64
1, 17062, Note_on_c, 8, 70, 94
1, 17078, Note_off_c, 0, 61, 64
1, 17082, Note_off_c, 0, 58, 64
1, 17085, Note_off_c, 1, 30, 64
1, 17087, Note_on_c, 8, 73, 102
1, 17088, Lyric_t, "your "
1, 17088, Note_on_c, 3, 77, 103
1, 17088, Note_on_c, 9, 35, 103
1, 17088, Note_on_c, 9, 42, 66
1, 17088, Note_on_c, 0, 61, 93
1, 17089, Note_off_c, 9, 42, 64
1, 17089, Note_off_c, 9, 35, 64
1, 17089, Note_on_c, 1, 30, 106
1, 17091, Note_off_c, 8, 70, 64
1, 17092, Note_off_c, 3, 75, 64
1, 17112, Note_on_c, 3, 73, 100
1, 17112, Note_on_c, 8, 77, 108
1, 17118, Note_off_c, 8, 73, 64
1, 17120, Note_off_c, 3, 77, 64
1, 17131, Note_off_c, 2, 54, 64
1, 17133, Note_off_c, 2, 58, 64
1, 17133, Note_off_c, 2, 61, 64
1, 17133, Note_on_c, 2, 54, 70
1, 17134, Note_off_c, 3, 73, 64
1, 17134, Note_off_c, 2, 65, 64
1, 17134, Note_on_c, 2, 61, 103
1, 17134, Note_on_c, 2, 58, 95
1, 17135, Note_on_c, 0, 58, 72
1, 17135, Note_on_c, 2, 65, 93
1, 17135, Note_on_c, 8, 82, 106
1, 17136, Lyric_t, "love. "
1, 17136, Lyric_t, "\015"
1, 17136, Note_on_c, 3, 73, 100
1, 17137, Note_off_c, 8, 77, 64
1, 17145, Note_off_c, 8, 82, 64
1, 17159, Note_on_c, 8, 85, 122
1, 17164, Note_off_c, 0, 61, 64
1, 17166, Note_off_c, 8, 85, 64
1, 17176, Note_off_c, 5, 70, 64
1, 17180, Note_off_c, 2, 54, 64
1, 17181, Note_off_c, 2, 58, 64
1, 17181, Note_on_c, 2, 54, 92
1, 17182, Note_off_c, 2, 61, 64
1, 17182, Note_on_c, 2, 58, 110
1, 17182, Note_on_c, 5, 68, 89
1, 17183, Note_on_c, 9, 38, 113
1, 17183, Note_on_c, 9, 42, 67
1, 17183, Note_off_c, 0, 58, 64
1, 17183, Note_on_c, 0, 61, 107
1, 17183, Note_off_c, 2, 65, 64
1, 17183, Note_on_c, 2, 61, 107
1, 17184, Note_off_c, 9, 42, 64
1, 17184, Note_off_c, 9, 38, 64
1, 17184, Note_on_c, 2, 65, 106
1, 17203, Note_off_c, 5, 68, 64
1, 17217, Note_on_c, 5, 66, 75
1, 17228, Note_off_c, 1, 30, 64
1, 17231, Note_on_c, 1, 29, 110
1, 17231, Note_off_c, 0, 65, 64
1, 17231, Note_off_c, 2, 65, 64
1, 17232, Note_on_c, 9, 35, 103
1, 17232, Note_on_c, 2, 65, 107
1, 17233, Note_off_c, 9, 35, 64
1, 17233, Note_on_c, 0, 58, 95
1, 17233, Note_off_c, 2, 61, 64
1, 17233, Note_off_c, 2, 58, 64
1, 17234, Note_on_c, 2, 58, 101
1, 17234, Note_on_c, 2, 61, 104
1, 17236, Note_off_c, 5, 66, 64
1, 17240, Note_off_c, 0, 61, 64
1, 17249, Note_off_c, 2, 65, 64
1, 17249, Note_on_c, 5, 65, 73
1, 17250, Note_off_c, 0, 42, 64
1, 17250, Note_off_c, 2, 54, 64
1, 17250, Note_off_c, 2, 61, 64
1, 17251, Note_off_c, 2, 58, 64
1, 17252, Note_off_c, 0, 58, 64
1, 17256, Note_on_c, 1, 30, 106
1, 17261, Note_off_c, 1, 29, 64
1, 17266, Note_off_c, 5, 65, 64
1, 17278, Note_on_c, 0, 58, 112
1, 17278, Note_on_c, 0, 61, 122
1, 17278, Note_on_c, 0, 66, 110
1, 17278, Note_on_c, 0, 44, 127
1, 17278, Note_on_c, 2, 54, 75
1, 17279, Note_on_c, 2, 58, 97
1, 17280, Note_on_c, 9, 35, 103
1, 17280, Note_on_c, 9, 42, 63
1, 17280, Note_on_c, 2, 66, 101
1, 17280, Note_on_c, 2, 61, 103
1, 17280, Note_on_c, 5, 68, 95
1, 17281, Note_off_c, 9, 42, 64
1, 17281, Note_off_c, 9, 35, 64
1, 17281, Note_on_c, 1, 32, 110
1, 17283, Note_on_c, 8, 78, 101
1, 17284, Note_off_c, 7, 92, 64
1, 17287, Note_off_c, 1, 30, 64
1, 17289, Note_off_c, 8, 78, 64
1, 17298, Note_off_c, 5, 68, 64
1, 17311, Note_on_c, 5, 66, 74
1, 17324, Note_off_c, 2, 54, 64
1, 17326, Note_off_c, 2, 58, 64
1, 17326, Note_on_c, 2, 54, 81
1, 17327, Note_on_c, 2, 58, 101
1, 17328, Note_off_c, 2, 61, 64
1, 17329, Note_on_c, 2, 61, 86
1, 17330, Note_off_c, 5, 66, 64
1, 17341, Note_on_c, 5, 65, 71
1, 17362, Note_off_c, 0, 61, 64
1, 17362, Note_off_c, 0, 58, 64
1, 17363, Note_off_c, 0, 66, 64
1, 17363, Note_off_c, 5, 65, 64
1, 17365, Note_off_c, 0, 44, 64
1, 17368, Note_off_c, 3, 73, 64
1, 17372, Note_off_c, 2, 61, 64
1, 17372, Note_off_c, 2, 58, 64
1, 17372, Note_off_c, 2, 54, 64
1, 17373, Note_off_c, 2, 66, 64
1, 17373, Note_on_c, 2, 54, 83
1, 17373, Note_on_c, 2, 58, 108
1, 17374, Note_on_c, 0, 61, 120
1, 17374, Note_on_c, 0, 66, 116
1, 17374, Note_on_c, 0, 58, 112
1, 17374, Note_on_c, 2, 61, 110
1, 17374, Note_on_c, 2, 66, 110
1, 17375, Note_on_c, 9, 38, 114
1, 17375, Note_on_c, 9, 42, 71
1, 17375, Note_on_c, 0, 44, 127
1, 17375, Note_on_c, 5, 68, 78
1, 17376, Note_off_c, 9, 42, 64
1, 17376, Note_off_c, 9, 38, 64
1, 17377, Note_off_c, 1, 32, 64
1, 17388, Lyric_t, "\012"
1, 17399, Note_on_c, 1, 39, 103
1, 17404, Note_off_c, 1, 39, 64
1, 17417, Note_off_c, 0, 44, 64
1, 17421, Note_off_c, 2, 66, 64
1, 17422, Note_on_c, 2, 66, 104
1, 17423, Note_on_c, 9, 44, 71
1, 17423, Note_off_c, 2, 61, 64
1, 17424, Note_off_c, 9, 44, 64
1, 17424, Note_on_c, 0, 44, 124
1, 17424, Note_off_c, 2, 58, 64
1, 17424, Note_on_c, 2, 61, 104
1, 17425, Note_on_c, 1, 44, 109
1, 17425, Note_off_c, 2, 54, 64
1, 17425, Note_on_c, 2, 58, 104
1, 17426, Note_on_c, 2, 54, 68
1, 17432, Note_off_c, 1, 44, 64
1, 17447, Note_on_c, 9, 47, 103
1, 17447, Note_on_c, 9, 48, 110
1, 17448, Note_off_c, 9, 48, 64
1, 17448, Note_off_c, 9, 47, 64
1, 17450, Note_on_c, 1, 39, 109
1, 17456, Note_off_c, 1, 39, 64
1, 17469, Note_on_c, 9, 47, 100
1, 17469, Note_on_c, 9, 48, 109
1, 17470, Note_off_c, 9, 48, 64
1, 17470, Note_off_c, 9, 47, 64
1, 17472, Tempo, 882353
1, 17473, Note_on_c, 1, 44, 108
1, 17496, Note_off_c, 5, 68, 64
1, 17502, Note_on_c, 5, 66, 77
1, 17510, Note_off_c, 0, 44, 64
1, 17516, Note_off_c, 2, 58, 64
1, 17517, Note_on_c, 9, 47, 106
1, 17517, Note_on_c, 9, 45, 100
1, 17517, Note_off_c, 2, 61, 64
1, 17518, Note_off_c, 9, 45, 64
1, 17518, Note_off_c, 9, 47, 64
1, 17518, Note_on_c, 2, 58, 88
1, 17518, Note_on_c, 2, 61, 95
1, 17519, Note_off_c, 2, 66, 64
1, 17519, Note_off_c, 5, 66, 64
1, 17520, Note_on_c, 0, 44, 114
1, 17520, Note_on_c, 2, 66, 77
1, 17534, Note_on_c, 5, 65, 73
1, 17536, Note_off_c, 1, 44, 64
1, 17542, Note_on_c, 1, 39, 106
1, 17550, Note_on_c, 8, 54, 99
1, 17554, Note_off_c, 5, 65, 64
1, 17557, Note_on_c, 8, 56, 92
1, 17559, Note_off_c, 8, 54, 64
1, 17560, Note_off_c, 0, 44, 64
1, 17565, Note_off_c, 2, 66, 64
1, 17565, Note_off_c, 2, 61, 64
1, 17565, Note_off_c, 2, 58, 64
1, 17565, Note_on_c, 5, 68, 85
1, 17565, Note_on_c, 8, 58, 96
1, 17566, Note_on_c, 9, 49, 87
1, 17566, Note_on_c, 2, 58, 104
1, 17566, Note_on_c, 2, 61, 107
1, 17567, Note_off_c, 9, 49, 64
1, 17567, Note_on_c, 0, 44, 126
1, 17567, Note_on_c, 2, 66, 107
1, 17567, Note_off_c, 8, 56, 64
1, 17568, Note_on_c, 9, 35, 108
1, 17569, Note_off_c, 9, 35, 64
1, 17569, Note_off_c, 1, 39, 64
1, 17570, Note_on_c, 1, 32, 106
1, 17572, Note_on_c, 8, 60, 97
1, 17574, Note_off_c, 8, 58, 64
1, 17579, Note_on_c, 8, 61, 105
1, 17581, Note_off_c, 8, 60, 64
1, 17585, Note_on_c, 8, 63, 102
1, 17588, Note_off_c, 8, 61, 64
1, 17592, Note_on_c, 8, 65, 96
1, 17594, Note_off_c, 8, 63, 64
1, 17598, Note_on_c, 8, 66, 95
1, 17601, Note_off_c, 8, 65, 64
1, 17604, Note_on_c, 8, 68, 96
1, 17607, Note_off_c, 8, 66, 64
1, 17608, Note_off_c, 0, 44, 64
1, 17609, Note_on_c, 8, 70, 94
1, 17611, Lyric_t, "I "
1, 17611, Note_on_c, 3, 68, 115
1, 17612, Note_off_c, 2, 66, 64
1, 17612, Note_off_c, 8, 68, 64
1, 17613, Note_off_c, 2, 61, 64
1, 17614, Note_on_c, 0, 44, 102
1, 17614, Note_on_c, 2, 66, 102
1, 17614, Note_on_c, 2, 61, 102
1, 17614, Note_on_c, 8, 72, 95
1, 17617, Note_off_c, 8, 70, 64
1, 17619, Note_on_c, 8, 73, 97
1, 17622, Note_off_c, 8, 72, 64
1, 17624, Note_on_c, 8, 75, 99
1, 17627, Note_off_c, 8, 73, 64
1, 17628, Note_off_c, 2, 58, 64
1, 17628, Note_on_c, 8, 77, 101
1, 17629, Note_off_c, 2, 61, 64
1, 17630, Note_off_c, 2, 54, 64
1, 17631, Note_off_c, 8, 75, 64
1, 17632, Note_off_c, 2, 66, 64
1, 17632, Note_on_c, 8, 78, 99
1, 17635, Note_off_c, 8, 77, 64
1, 17636, Note_on_c, 8, 80, 100
1, 17639, Note_off_c, 8, 78, 64
1, 17640, Note_on_c, 8, 82, 103
1, 17643, Note_off_c, 8, 80, 64
1, 17644, Note_on_c, 8, 84, 103
1, 17646, Note_off_c, 8, 82, 64
1, 17648, Note_on_c, 8, 85, 105
1, 17650, Note_off_c, 8, 84, 64
1, 17651, Note_on_c, 8, 87, 105
1, 17652, Note_off_c, 1, 32, 64
1, 17654, Note_off_c, 8, 85, 64
1, 17655, Note_on_c, 8, 89, 104
1, 17656, Note_off_c, 3, 68, 64
1, 17657, Note_off_c, 0, 44, 64
1, 17657, Note_off_c, 0, 58, 64
1, 17658, Note_off_c, 0, 61, 64
1, 17658, Note_off_c, 8, 87, 64
1, 17658, Note_on_c, 8, 90, 105
1, 17659, Note_on_c, 0, 49, 122
1, 17659, Note_on_c, 2, 53, 43
1, 17660, Lyric_t, "need "
1, 17660, Note_on_c, 3, 80, 123
1, 17660, Note_off_c, 0, 66, 64
1, 17660, Note_on_c, 0, 61, 106
1, 17660, Note_on_c, 0, 56, 122
1, 17661, Note_on_c, 0, 65, 109
1, 17661, Note_on_c, 2, 56, 95
1, 17661, Note_on_c, 2, 61, 104
1, 17661, Note_off_c, 8, 89, 64
1, 17662, Note_on_c, 2, 65, 105
1, 17662, Note_on_c, 8, 92, 108
1, 17663, Note_on_c, 9, 35, 117
1, 17663, Note_on_c, 9, 49, 91
1, 17663, Note_on_c, 1, 37, 110
1, 17663, Note_on_c, 7, 90, 88
1, 17664, Tempo, 857143
1, 17664, Note_off_c, 9, 49, 64
1, 17664, Note_off_c, 9, 35, 64
1, 17665, Note_off_c, 8, 90, 64
1, 17665, Note_on_c, 8, 94, 103
1, 17669, Note_off_c, 8, 92, 64
1, 17669, Note_on_c, 8, 96, 107
1, 17673, Note_off_c, 8, 94, 64
1, 17673, Note_on_c, 8, 97, 101
1, 17677, Note_off_c, 8, 96, 64
1, 17682, Note_off_c, 8, 97, 64
1, 17710, Note_off_c, 2, 56, 64
1, 17711, Note_on_c, 2, 56, 93
1, 17754, Note_off_c, 7, 90, 64
1, 17755, Note_on_c, 7, 89, 83
1, 17756, Note_off_c, 2, 56, 64
1, 17757, Note_off_c, 2, 65, 64
1, 17757, Note_off_c, 2, 61, 64
1, 17758, Note_on_c, 2, 56, 102
1, 17758, Note_on_c, 2, 61, 104
1, 17758, Note_on_c, 2, 65, 104
1, 17759, Note_on_c, 9, 38, 112
1, 17759, Note_on_c, 9, 42, 73
1, 17760, Note_off_c, 9, 42, 64
1, 17760, Note_off_c, 9, 38, 64
1, 17801, Note_off_c, 0, 65, 64
1, 17801, Note_off_c, 0, 49, 64
1, 17803, Note_off_c, 0, 56, 64
1, 17803, Note_off_c, 0, 61, 64
1, 17804, Note_off_c, 1, 37, 64
1, 17806, Lyric_t, "you "
1, 17806, Lyric_t, "\015"
1, 17806, Note_on_c, 3, 82, 104
1, 17806, Note_off_c, 2, 65, 64
1, 17807, Note_on_c, 9, 35, 101
1, 17807, Note_on_c, 1, 37, 109
1, 17807, Note_on_c, 2, 65, 104
1, 17808, Note_off_c, 9, 35, 64
1, 17809, Note_off_c, 3, 80, 64
1, 17809, Note_on_c, 0, 56, 79
1, 17809, Note_off_c, 2, 53, 64
1, 17810, Note_on_c, 0, 65, 104
1, 17810, Note_on_c, 0, 49, 79
1, 17810, Note_on_c, 0, 61, 106
1, 17810, Note_on_c, 2, 53, 79
1, 17843, Note_off_c, 3, 82, 64
1, 17844, Note_on_c, 3, 77, 107
1, 17846, Note_on_c, 8, 68, 84
1, 17850, Note_off_c, 0, 49, 64
1, 17850, Note_on_c, 8, 73, 108
1, 17851, Note_off_c, 0, 56, 64
1, 17852, Note_off_c, 0, 65, 64
1, 17852, Note_off_c, 0, 61, 64
1, 17853, Note_off_c, 1, 37, 64
1, 17853, Note_off_c, 2, 56, 64
1, 17853, Note_on_c, 7, 87, 83
1, 17854, Note_off_c, 2, 65, 64
1, 17854, Note_off_c, 2, 61, 64
1, 17854, Note_on_c, 2, 56, 92
1, 17854, Note_on_c, 8, 77, 120
1, 17855, Note_on_c, 9, 35, 101
1, 17855, Note_on_c, 9, 42, 76
1, 17855, Note_on_c, 2, 65, 86
1, 17856, Note_off_c, 9, 42, 64
1, 17856, Note_off_c, 9, 35, 64
1, 17856, Note_on_c, 1, 37, 109
1, 17856, Note_on_c, 2, 61, 94
1, 17856, Note_off_c, 7, 89, 64
1, 17858, Note_on_c, 0, 49, 116
1, 17858, Note_on_c, 0, 65, 105
1, 17858, Note_on_c, 0, 61, 112
1, 17859, Note_on_c, 0, 56, 114
1, 17874, Note_off_c, 3, 77, 64
1, 17874, Note_on_c, 3, 80, 106
1, 17901, Note_off_c, 2, 61, 64
1, 17901, Note_off_c, 2, 56, 64
1, 17902, Note_on_c, 2, 56, 91
1, 17902, Note_on_c, 2, 61, 98
1, 17903, Note_off_c, 2, 65, 64
1, 17904, Note_on_c, 2, 65, 78
1, 17947, Note_off_c, 2, 53, 64
1, 17949, Note_off_c, 2, 61, 64
1, 17949, Note_off_c, 2, 56, 64
1, 17949, Note_off_c, 2, 65, 64
1, 17949, Note_on_c, 2, 53, 69
1, 17950, Note_on_c, 2, 65, 109
1, 17950, Note_on_c, 2, 56, 106
1, 17950, Note_on_c, 2, 61, 107
1, 17952, Note_on_c, 9, 38, 112
1, 17952, Note_on_c, 9, 42, 78
1, 17953, Note_off_c, 9, 42, 64
1, 17953, Note_off_c, 9, 38, 64
1, 17959, Note_off_c, 1, 37, 64
1, 17976, Note_on_c, 1, 32, 112
1, 17991, Note_off_c, 1, 32, 64
1, 17993, Note_off_c, 0, 61, 64
1, 17996, Note_off_c, 8, 73, 64
1, 17997, Note_off_c, 2, 53, 64
1, 17998, Note_off_c, 0, 65, 64
1, 17998, Note_off_c, 2, 56, 64
1, 17998, Note_on_c, 2, 53, 75
1, 17999, Note_on_c, 9, 46, 72
1, 17999, Note_off_c, 2, 61, 64
1, 17999, Note_on_c, 2, 56, 101
1, 18000, Note_off_c, 9, 46, 64
1, 18000, Note_on_c, 1, 39, 111
1, 18000, Note_off_c, 2, 65, 64
1, 18000, Note_on_c, 2, 61, 104
1, 18000, Note_off_c, 8, 68, 64
1, 18001, Note_on_c, 2, 65, 101
1, 18003, Note_off_c, 0, 56, 64
1, 18003, Note_off_c, 7, 87, 64
1, 18003, Note_on_c, 7, 85, 81
1, 18008, Note_off_c, 8, 77, 64
1, 18012, Note_off_c, 0, 49, 64
1, 18020, Note_off_c, 1, 39, 64
1, 18025, Note_on_c, 1, 32, 106
1, 18036, Note_off_c, 5, 68, 64
1, 18045, Note_off_c, 2, 53, 64
1, 18046, Note_on_c, 2, 53, 67
1, 18046, Note_on_c, 5, 63, 93
1, 18046, Note_on_c, 8, 75, 114
1, 18047, Note_on_c, 0, 56, 104
1, 18047, Note_on_c, 0, 63, 107
1, 18047, Note_on_c, 0, 59, 115
1, 18047, Note_off_c, 2, 61, 64
1, 18048, Note_on_c, 1, 37, 107
1, 18048, Note_off_c, 2, 65, 64
1, 18048, Note_on_c, 2, 61, 90
1, 18049, Note_on_c, 9, 35, 107
1, 18049, Note_on_c, 9, 42, 70
1, 18049, Note_off_c, 1, 32, 64
1, 18049, Note_on_c, 2, 65, 82
1, 18049, Note_off_c, 7, 85, 64
1, 18049, Note_on_c, 7, 94, 82
1, 18050, Note_off_c, 9, 42, 64
1, 18050, Note_off_c, 9, 35, 64
1, 18094, Note_off_c, 2, 56, 64
1, 18095, Note_off_c, 2, 61, 64
1, 18095, Note_on_c, 2, 56, 86
1, 18096, Note_off_c, 2, 65, 64
1, 18096, Note_on_c, 2, 61, 92
1, 18097, Note_on_c, 9, 42, 52
1, 18097, Note_on_c, 2, 65, 73
1, 18098, Note_on_c, 3, 82, 99
1, 18098, Note_off_c, 9, 42, 64
1, 18108, Note_off_c, 3, 80, 64
1, 18124, Note_off_c, 8, 75, 64
1, 18133, Note_off_c, 0, 59, 64
1, 18133, Note_off_c, 0, 63, 64
1, 18133, Note_off_c, 0, 56, 64
1, 18137, Note_off_c, 5, 63, 64
1, 18140, Note_on_c, 8, 77, 115
1, 18141, Note_on_c, 7, 92, 81
1, 18142, Note_off_c, 3, 82, 64
1, 18142, Note_on_c, 0, 59, 125
1, 18142, Note_on_c, 0, 65, 127
1, 18142, Note_on_c, 0, 56, 109
1, 18142, Note_off_c, 2, 53, 64
1, 18143, Note_on_c, 9, 38, 112
1, 18143, Note_on_c, 2, 53, 79
1, 18143, Note_on_c, 5, 65, 94
1, 18144, Note_off_c, 9, 38, 64
1, 18144, Note_on_c, 9, 42, 80
1, 18144, Note_off_c, 2, 56, 64
1, 18145, Note_off_c, 9, 42, 64
1, 18145, Note_off_c, 2, 65, 64
1, 18145, Note_off_c, 2, 61, 64
1, 18145, Note_on_c, 2, 56, 106
1, 18146, Note_on_c, 2, 65, 108
1, 18146, Note_on_c, 2, 61, 108
1, 18147, Note_off_c, 7, 94, 64
1, 18192, Note_off_c, 2, 61, 64
1, 18192, Note_off_c, 2, 56, 64
1, 18193, Note_on_c, 9, 35, 103
1, 18193, Note_on_c, 9, 42, 49
1, 18193, Note_off_c, 2, 65, 64
1, 18193, Note_on_c, 2, 56, 93
1, 18193, Note_on_c, 2, 61, 104
1, 18194, Note_off_c, 9, 42, 64
1, 18194, Note_off_c, 9, 35, 64
1, 18194, Note_on_c, 2, 65, 101
1, 18197, Note_off_c, 8, 77, 64
1, 18205, Note_off_c, 2, 53, 64
1, 18208, Note_off_c, 1, 37, 64
1, 18208, Note_off_c, 2, 56, 64
1, 18208, Note_off_c, 2, 61, 64
1, 18210, Note_off_c, 2, 65, 64
1, 18215, Note_off_c, 0, 65, 64
1, 18217, Note_on_c, 1, 32, 106
1, 18219, Note_off_c, 0, 59, 64
1, 18222, Note_off_c, 0, 56, 64
1, 18226, Note_off_c, 1, 32, 64
1, 18233, Note_on_c, 7, 90, 80
1, 18234, Note_off_c, 5, 65, 64
1, 18235, Note_on_c, 8, 78, 110
1, 18238, Note_on_c, 0, 63, 112
1, 18238, Note_on_c, 0, 66, 124
1, 18238, Note_on_c, 0, 56, 106
1, 18238, Note_on_c, 0, 59, 122
1, 18238, Note_on_c, 2, 54, 82
1, 18238, Note_on_c, 5, 66, 82
1, 18240, Note_on_c, 9, 35, 108
1, 18240, Note_on_c, 9, 42, 75
1, 18240, Note_on_c, 2, 63, 106
1, 18240, Note_on_c, 2, 59, 101
1, 18240, Note_off_c, 7, 92, 64
1, 18241, Note_off_c, 9, 42, 64
1, 18241, Note_off_c, 9, 35, 64
1, 18241, Note_on_c, 1, 35, 112
1, 18287, Note_off_c, 2, 59, 64
1, 18288, Note_off_c, 2, 63, 64
1, 18288, Note_on_c, 2, 59, 95
1, 18289, Note_on_c, 2, 63, 104
1, 18301, Note_off_c, 2, 63, 64
1, 18302, Note_off_c, 2, 59, 64
1, 18303, Note_off_c, 2, 54, 64
1, 18305, Note_off_c, 1, 35, 64
1, 18313, Note_off_c, 8, 78, 64
1, 18314, Note_on_c, 1, 37, 107
1, 18324, Note_off_c, 0, 59, 64
1, 18324, Note_off_c, 0, 56, 64
1, 18324, Note_off_c, 0, 66, 64
1, 18325, Note_off_c, 0, 63, 64
1, 18326, Note_off_c, 1, 37, 64
1, 18331, Note_off_c, 5, 66, 64
1, 18333, Note_on_c, 5, 68, 72
1, 18333, Note_on_c, 7, 89, 80
1, 18333, Note_on_c, 8, 77, 120
1, 18334, Note_on_c, 0, 61, 110
1, 18334, Note_on_c, 2, 53, 72
1, 18334, Note_off_c, 7, 90, 64
1, 18335, Note_on_c, 9, 38, 115
1, 18335, Note_on_c, 9, 42, 63
1, 18335, Note_on_c, 1, 34, 111
1, 18335, Note_on_c, 0, 56, 124
1, 18335, Note_on_c, 0, 65, 125
1, 18335, Note_on_c, 0, 59, 123
1, 18335, Note_on_c, 2, 56, 103
1, 18336, Note_off_c, 9, 42, 64
1, 18336, Note_off_c, 9, 38, 64
1, 18336, Note_on_c, 2, 61, 108
1, 18337, Note_on_c, 2, 65, 107
1, 18367, Note_off_c, 8, 77, 64
1, 18381, Note_off_c, 1, 34, 64
1, 18383, Lyric_t, "and "
1, 18383, Note_on_c, 3, 73, 123
1, 18383, Note_on_c, 9, 46, 77
1, 18383, Note_on_c, 1, 32, 107
1, 18383, Note_off_c, 2, 65, 64
1, 18384, Note_off_c, 9, 46, 64
1, 18384, Note_off_c, 2, 61, 64
1, 18384, Note_on_c, 2, 65, 98
1, 18385, Note_on_c, 2, 61, 100
1, 18398, Note_off_c, 2, 56, 64
1, 18399, Note_off_c, 2, 65, 64
1, 18402, Note_off_c, 2, 53, 64
1, 18402, Note_off_c, 2, 61, 64
1, 18418, Note_off_c, 0, 59, 64
1, 18418, Note_off_c, 0, 61, 64
1, 18420, Note_on_c, 8, 70, 100
1, 18421, Note_off_c, 0, 65, 64
1, 18421, Note_off_c, 0, 56, 64
1, 18424, Note_off_c, 7, 89, 64
1, 18425, Note_off_c, 1, 32, 64
1, 18425, Note_on_c, 8, 73, 110
1, 18426, Note_off_c, 3, 73, 64
1, 18426, Note_on_c, 7, 92, 80
1, 18427, Note_off_c, 5, 68, 64
1, 18429, Note_on_c, 2, 54, 69
1, 18429, Note_on_c, 5, 70, 82
1, 18429, Note_on_c, 8, 77, 121
1, 18430, Note_on_c, 2, 58, 101
1, 18430, Note_on_c, 2, 61, 107
1, 18431, Note_on_c, 1, 30, 111
1, 18431, Note_on_c, 2, 65, 106
1, 18432, Note_on_c, 9, 35, 105
1, 18432, Note_on_c, 9, 42, 63
1, 18433, Lyric_t, "with "
1, 18433, Note_on_c, 3, 80, 116
1, 18433, Note_off_c, 9, 42, 64
1, 18433, Note_off_c, 9, 35, 64
1, 18435, Note_on_c, 0, 61, 114
1, 18435, Note_on_c, 0, 70, 109
1, 18435, Note_on_c, 0, 65, 115
1, 18435, Note_on_c, 0, 58, 120
1, 18455, Note_off_c, 8, 70, 64
1, 18457, Note_off_c, 3, 80, 64
1, 18463, Lyric_t, "your "
1, 18463, Note_on_c, 3, 78, 115
1, 18467, Note_off_c, 8, 73, 64
1, 18475, Note_off_c, 8, 77, 64
1, 18479, Note_off_c, 2, 58, 64
1, 18480, Note_off_c, 2, 61, 64
1, 18482, Note_on_c, 2, 58, 82
1, 18483, Note_on_c, 2, 61, 75
1, 18498, Note_off_c, 3, 78, 64
1, 18506, Lyric_t, "love "
1, 18506, Note_on_c, 3, 77, 114
1, 18524, Note_off_c, 2, 61, 64
1, 18524, Note_off_c, 2, 58, 64
1, 18526, Note_off_c, 2, 65, 64
1, 18526, Note_on_c, 2, 58, 89
1, 18526, Note_on_c, 2, 61, 103
1, 18527, Note_on_c, 9, 38, 114
1, 18527, Note_on_c, 9, 42, 67
1, 18527, Note_on_c, 2, 65, 103
1, 18528, Note_off_c, 9, 42, 64
1, 18528, Note_off_c, 9, 38, 64
1, 18552, Note_on_c, 8, 61, 127
1, 18567, Note_off_c, 0, 58, 64
1, 18567, Note_off_c, 0, 61, 64
1, 18567, Note_off_c, 0, 70, 64
1, 18567, Note_off_c, 0, 65, 64
1, 18572, Note_off_c, 1, 30, 64
1, 18575, Note_off_c, 2, 65, 64
1, 18576, Note_on_c, 9, 35, 100
1, 18576, Note_on_c, 9, 42, 72
1, 18576, Note_off_c, 2, 61, 64
1, 18576, Note_on_c, 2, 65, 106
1, 18577, Note_off_c, 9, 42, 64
1, 18577, Note_off_c, 9, 35, 64
1, 18577, Note_on_c, 1, 30, 109
1, 18577, Note_on_c, 0, 61, 114
1, 18577, Note_on_c, 0, 58, 107
1, 18577, Note_on_c, 0, 70, 118
1, 18577, Note_off_c, 2, 58, 64
1, 18577, Note_off_c, 2, 54, 64
1, 18577, Note_on_c, 2, 61, 106
1, 18578, Note_on_c, 0, 65, 119
1, 18578, Note_on_c, 2, 54, 82
1, 18578, Note_on_c, 2, 58, 107
1, 18580, Note_on_c, 8, 65, 105
1, 18587, Note_off_c, 8, 61, 64
1, 18602, Note_on_c, 8, 70, 102
1, 18618, Note_off_c, 0, 65, 64
1, 18618, Note_off_c, 0, 70, 64
1, 18618, Note_off_c, 0, 61, 64
1, 18619, Note_off_c, 1, 30, 64
1, 18620, Note_off_c, 0, 58, 64
1, 18623, Note_off_c, 2, 61, 64
1, 18624, Note_on_c, 9, 35, 108
1, 18624, Note_on_c, 9, 42, 62
1, 18624, Note_on_c, 2, 61, 90
1, 18625, Note_off_c, 9, 42, 64
1, 18625, Note_off_c, 9, 35, 64
1, 18625, Note_on_c, 1, 30, 109
1, 18625, Note_off_c, 2, 65, 64
1, 18627, Note_on_c, 0, 70, 106
1, 18627, Note_on_c, 0, 61, 112
1, 18627, Note_on_c, 0, 58, 103
1, 18627, Note_on_c, 2, 65, 52
1, 18628, Note_on_c, 0, 65, 115
1, 18628, Note_on_c, 8, 77, 122
1, 18629, Note_off_c, 8, 65, 64
1, 18633, Note_off_c, 8, 70, 64
1, 18647, Note_off_c, 3, 77, 64
1, 18650, Lyric_t, "I'm "
1, 18650, Note_on_c, 3, 78, 108
1, 18668, Note_off_c, 2, 58, 64
1, 18669, Note_off_c, 2, 61, 64
1, 18670, Note_off_c, 2, 65, 64
1, 18670, Note_on_c, 2, 61, 100
1, 18670, Note_on_c, 2, 58, 86
1, 18671, Note_on_c, 2, 65, 92
1, 18671, Note_on_c, 11, 77, 86
1, 18673, Note_on_c, 9, 42, 58
1, 18673, Note_on_c, 11, 80, 84
1, 18674, Note_off_c, 9, 42, 64
1, 18688, Note_off_c, 8, 77, 64
1, 18715, Note_off_c, 3, 78, 64
1, 18716, Lyric_t, "free, "
1, 18716, Lyric_t, "\015"
1, 18716, Note_on_c, 3, 73, 105
1, 18716, Note_off_c, 11, 77, 64
1, 18717, Note_off_c, 2, 58, 64
1, 18718, Note_off_c, 2, 61, 64
1, 18718, Note_on_c, 2, 58, 97
1, 18719, Note_on_c, 9, 42, 66
1, 18719, Note_off_c, 2, 65, 64
1, 18719, Note_on_c, 2, 61, 104
1, 18720, Note_off_c, 9, 42, 64
1, 18720, Note_on_c, 9, 38, 114
1, 18720, Note_on_c, 2, 65, 108
1, 18720, Note_off_c, 11, 80, 64
1, 18720, Note_on_c, 11, 73, 83
1, 18721, Note_off_c, 9, 38, 64
1, 18722, Note_on_c, 11, 77, 81
1, 18741, Note_off_c, 1, 30, 64
1, 18765, Note_off_c, 2, 65, 64
1, 18766, Note_on_c, 2, 65, 106
1, 18766, Note_off_c, 11, 77, 64
1, 18767, Note_on_c, 1, 30, 115
1, 18767, Note_off_c, 2, 61, 64
1, 18768, Note_off_c, 2, 58, 64
1, 18768, Note_on_c, 2, 61, 100
1, 18769, Note_on_c, 9, 35, 102
1, 18769, Note_on_c, 9, 46, 72
1, 18769, Note_on_c, 2, 58, 98
1, 18769, Note_off_c, 11, 73, 64
1, 18770, Note_off_c, 9, 46, 64
1, 18770, Note_off_c, 9, 35, 64
1, 18770, Note_on_c, 11, 70, 86
1, 18773, Note_on_c, 11, 73, 86
1, 18791, Note_on_c, 1, 31, 107
1, 18791, Note_off_c, 2, 54, 64
1, 18794, Note_off_c, 2, 58, 64
1, 18794, Note_off_c, 2, 61, 64
1, 18795, Note_off_c, 1, 30, 64
1, 18796, Note_off_c, 2, 65, 64
1, 18801, Note_off_c, 0, 58, 64
1, 18808, Note_off_c, 0, 70, 64
1, 18808, Note_off_c, 0, 61, 64
1, 18810, Note_off_c, 0, 65, 64
1, 18813, Note_on_c, 9, 55, 95
1, 18814, Note_off_c, 9, 55, 64
1, 18814, Note_on_c, 0, 66, 100
1, 18814, Note_on_c, 0, 61, 106
1, 18814, Note_on_c, 0, 70, 92
1, 18814, Note_on_c, 2, 54, 68
1, 18815, Note_on_c, 9, 52, 72
1, 18815, Note_on_c, 2, 58, 98
1, 18815, Note_on_c, 5, 73, 78
1, 18816, Note_off_c, 9, 52, 64
1, 18816, Note_on_c, 9, 35, 108
1, 18816, Note_on_c, 1, 32, 111
1, 18816, Note_on_c, 2, 61, 104
1, 18816, Note_off_c, 5, 70, 64
1, 18817, Note_off_c, 9, 35, 64
1, 18817, Note_on_c, 2, 66, 101
1, 18818, Note_off_c, 1, 31, 64
1, 18861, Note_off_c, 2, 54, 64
1, 18861, Note_off_c, 11, 73, 64
1, 18862, Note_off_c, 2, 58, 64
1, 18862, Note_on_c, 2, 54, 73
1, 18863, Note_on_c, 2, 58, 68
1, 18863, Note_off_c, 11, 70, 64
1, 18893, Note_off_c, 5, 73, 64
1, 18905, Note_off_c, 0, 61, 64
1, 18905, Note_off_c, 7, 92, 64
1, 18906, Lyric_t, "\012"
1, 18907, Note_off_c, 2, 58, 64
1, 18907, Note_off_c, 2, 54, 64
1, 18908, Note_off_c, 2, 61, 64
1, 18909, Note_off_c, 2, 66, 64
1, 18909, Note_on_c, 2, 54, 84
1, 18909, Note_on_c, 2, 58, 106
1, 18909, Note_on_c, 2, 61, 107
1, 18909, Note_on_c, 5, 73, 84
1, 18909, Note_on_c, 5, 70, 81
1, 18910, Note_on_c, 2, 66, 107
1, 18911, Note_on_c, 9, 38, 114
1, 18911, Note_on_c, 9, 42, 78
1, 18911, Note_on_c, 11, 73, 108
1, 18911, Note_on_c, 7, 89, 76
1, 18912, Tempo, 869565
1, 18912, Note_off_c, 9, 42, 64
1, 18912, Note_off_c, 9, 38, 64
1, 18912, Note_on_c, 0, 61, 106
1, 18932, Note_off_c, 7, 89, 64
1, 18938, Note_off_c, 5, 73, 64
1, 18941, Note_off_c, 5, 70, 64
1, 18944, Note_off_c, 1, 32, 64
1, 18944, Note_on_c, 7, 90, 78
1, 18956, Note_off_c, 11, 73, 64
1, 18957, Note_off_c, 2, 66, 64
1, 18958, Note_off_c, 2, 61, 64
1, 18958, Note_on_c, 2, 66, 104
1, 18959, Note_on_c, 9, 35, 103
1, 18959, Note_on_c, 9, 44, 86
1, 18959, Note_on_c, 1, 32, 111
1, 18959, Note_on_c, 2, 61, 103
1, 18959, Note_on_c, 5, 72, 91
1, 18959, Note_on_c, 5, 68, 79
1, 18960, Note_off_c, 9, 44, 64
1, 18960, Note_off_c, 9, 35, 64
1, 18960, Note_on_c, 0, 56, 106
1, 18960, Note_on_c, 11, 72, 104
1, 18961, Note_off_c, 2, 54, 64
1, 18962, Note_on_c, 2, 54, 75
1, 18965, Note_off_c, 7, 90, 64
1, 18976, Note_on_c, 7, 87, 78
1, 18984, Note_off_c, 0, 61, 64
1, 18986, Note_off_c, 5, 72, 64
1, 18988, Note_off_c, 5, 68, 64
1, 18999, Note_off_c, 7, 87, 64
1, 19003, Note_off_c, 11, 72, 64
1, 19004, Tempo, 882353
1, 19004, Note_off_c, 3, 73, 64
1, 19005, Note_off_c, 2, 54, 64
1, 19005, Note_off_c, 2, 58, 64
1, 19006, Note_off_c, 2, 61, 64
1, 19006, Note_on_c, 2, 54, 89
1, 19007, Note_on_c, 9, 47, 114
1, 19007, Note_on_c, 1, 44, 111
1, 19007, Note_on_c, 0, 61, 106
1, 19007, Note_off_c, 2, 66, 64
1, 19007, Note_on_c, 2, 61, 106
1, 19007, Note_on_c, 2, 58, 103
1, 19007, Note_on_c, 5, 70, 77
1, 19007, Note_on_c, 5, 66, 75
1, 19008, Note_off_c, 9, 47, 64
1, 19008, Note_on_c, 2, 66, 103
1, 19009, Note_on_c, 9, 35, 107
1, 19009, Note_on_c, 11, 70, 111
1, 19010, Note_off_c, 9, 35, 64
1, 19010, Note_on_c, 7, 89, 77
1, 19012, Note_off_c, 1, 32, 64
1, 19028, Note_off_c, 7, 89, 64
1, 19032, Note_off_c, 0, 56, 64
1, 19037, Note_off_c, 5, 70, 64
1, 19038, Note_off_c, 5, 66, 64
1, 19042, Note_on_c, 7, 90, 79
1, 19048, Note_off_c, 11, 70, 64
1, 19051, Note_off_c, 2, 61, 64
1, 19052, Note_off_c, 2, 54, 64
1, 19052, Note_off_c, 2, 58, 64
1, 19053, Note_on_c, 2, 54, 86
1, 19054, Note_off_c, 1, 44, 64
1, 19054, Note_off_c, 2, 66, 64
1, 19054, Note_on_c, 2, 58, 107
1, 19054, Note_on_c, 2, 61, 106
1, 19055, Note_on_c, 2, 66, 101
1, 19055, Note_on_c, 5, 65, 73
1, 19055, Note_on_c, 5, 68, 79
1, 19056, Note_on_c, 1, 44, 107
1, 19056, Note_on_c, 11, 68, 103
1, 19057, Note_on_c, 0, 56, 102
1, 19058, Note_on_c, 9, 45, 104
1, 19059, Note_off_c, 9, 45, 64
1, 19059, Note_off_c, 0, 61, 64
1, 19062, Note_off_c, 7, 90, 64
1, 19074, Note_on_c, 7, 87, 79
1, 19080, Note_off_c, 5, 68, 64
1, 19080, Note_off_c, 5, 65, 64
1, 19094, Note_off_c, 7, 87, 64
1, 19098, Note_off_c, 11, 68, 64
1, 19100, Note_off_c, 2, 54, 64
1, 19101, Tempo, 909091
1, 19101, Note_off_c, 1, 44, 64
1, 19101, Note_off_c, 2, 58, 64
1, 19101, Note_off_c, 2, 61, 64
1, 19101, Note_off_c, 2, 66, 64
1, 19101, Note_on_c, 2, 54, 90
1, 19102, Note_on_c, 2, 58, 108
1, 19102, Note_on_c, 2, 61, 107
1, 19102, Note_on_c, 5, 66, 87
1, 19102, Note_on_c, 5, 63, 99
1, 19103, Note_on_c, 2, 66, 108
1, 19103, Note_on_c, 11, 66, 108
1, 19104, Note_on_c, 0, 61, 112
1, 19105, Note_on_c, 9, 45, 97
1, 19105, Note_on_c, 1, 44, 112
1, 19105, Note_on_c, 7, 89, 79
1, 19106, Note_off_c, 9, 45, 64
1, 19107, Note_on_c, 8, 96, 79
1, 19110, Note_off_c, 0, 56, 64
1, 19112, Note_on_c, 8, 94, 88
1, 19113, Note_off_c, 8, 96, 64
1, 19119, Note_on_c, 8, 92, 95
1, 19120, Note_off_c, 8, 94, 64
1, 19124, Note_off_c, 5, 66, 64
1, 19125, Note_off_c, 7, 89, 64
1, 19125, Note_on_c, 8, 90, 96
1, 19127, Note_off_c, 8, 92, 64
1, 19129, Lyric_t, "and "
1, 19129, Note_on_c, 3, 68, 123
1, 19130, Note_off_c, 11, 66, 64
1, 19131, Note_off_c, 5, 63, 64
1, 19132, Note_on_c, 8, 89, 92
1, 19133, Note_on_c, 5, 61, 78
1, 19133, Note_off_c, 8, 90, 64
1, 19134, Note_on_c, 5, 65, 83
1, 19135, Note_on_c, 11, 65, 104
1, 19136, Note_on_c, 0, 56, 103
1, 19137, Note_off_c, 2, 66, 64
1, 19137, Note_off_c, 2, 61, 64
1, 19138, Note_on_c, 1, 39, 109
1, 19138, Note_off_c, 2, 58, 64
1, 19138, Note_on_c, 2, 66, 108
1, 19138, Note_on_c, 2, 61, 110
1, 19138, Note_on_c, 7, 90, 79
1, 19138, Note_on_c, 8, 87, 93
1, 19139, Note_on_c, 9, 43, 100
1, 19139, Note_on_c, 2, 58, 108
1, 19140, Note_off_c, 9, 43, 64
1, 19140, Note_off_c, 8, 89, 64
1, 19141, Note_off_c, 1, 44, 64
1, 19141, Note_off_c, 0, 61, 64
1, 19144, Note_on_c, 8, 85, 96
1, 19146, Note_off_c, 8, 87, 64
1, 19151, Note_on_c, 8, 84, 93
1, 19152, Note_off_c, 8, 85, 64
1, 19156, Note_on_c, 8, 82, 99
1, 19158, Note_off_c, 8, 84, 64
1, 19159, Note_off_c, 5, 61, 64
1, 19160, Note_off_c, 5, 65, 64
1, 19160, Note_off_c, 7, 90, 64
1, 19162, Note_on_c, 8, 80, 95
1, 19163, Note_off_c, 8, 82, 64
1, 19165, Note_off_c, 0, 56, 64
1, 19167, Note_on_c, 5, 63, 74
1, 19167, Note_on_c, 5, 60, 79
1, 19167, Note_on_c, 8, 78, 101
1, 19168, Note_on_c, 11, 63, 105
1, 19169, Note_on_c, 0, 56, 109
1, 19169, Note_off_c, 11, 65, 64
1, 19169, Note_on_c, 7, 87, 79
1, 19169, Note_off_c, 8, 80, 64
1, 19170, Note_on_c, 1, 32, 108
1, 19170, Note_off_c, 2, 58, 64
1, 19171, Note_on_c, 9, 41, 110
1, 19171, Note_off_c, 1, 39, 64
1, 19171, Note_off_c, 2, 61, 64
1, 19172, Note_off_c, 9, 41, 64
1, 19172, Note_off_c, 2, 66, 64
1, 19172, Note_on_c, 8, 77, 97
1, 19174, Note_off_c, 8, 78, 64
1, 19176, Note_on_c, 8, 75, 103
1, 19178, Note_off_c, 8, 77, 64
1, 19180, Note_on_c, 9, 57, 45
1, 19181, Note_off_c, 9, 57, 64
1, 19181, Note_on_c, 8, 73, 101
1, 19182, Note_off_c, 8, 75, 64
1, 19183, Note_off_c, 2, 54, 64
1, 19185, Note_off_c, 0, 70, 64
1, 19185, Note_on_c, 8, 72, 102
1, 19187, Note_on_c, 9, 49, 51
1, 19187, Note_off_c, 8, 73, 64
1, 19188, Note_off_c, 9, 49, 64
1, 19188, Note_off_c, 0, 66, 64
1, 19190, Note_off_c, 5, 63, 64
1, 19190, Note_on_c, 8, 70, 97
1, 19191, Note_off_c, 5, 60, 64
1, 19191, Note_off_c, 8, 72, 64
1, 19192, Note_on_c, 9, 57, 61
1, 19192, Note_off_c, 0, 56, 64
1, 19193, Note_off_c, 9, 57, 64
1, 19194, Note_on_c, 8, 68, 96
1, 19195, Note_off_c, 7, 87, 64
1, 19195, Note_off_c, 8, 70, 64
1, 19198, Note_off_c, 1, 32, 64
1, 19199, Note_off_c, 3, 68, 64
1, 19199, Note_on_c, 9, 49, 70
1, 19199, Note_on_c, 1, 37, 111
1, 19199, Note_on_c, 0, 49, 107
1, 19199, Note_on_c, 0, 61, 114
1, 19199, Note_on_c, 0, 65, 119
1, 19199, Note_on_c, 8, 66, 94
1, 19200, Tempo, 882353
1, 19200, Note_off_c, 9, 49, 64
1, 19200, Note_off_c, 8, 68, 64
1, 19202, Lyric_t, "tru"
1, 19202, Note_on_c, 3, 75, 109
1, 19202, Note_on_c, 9, 35, 110
1, 19202, Note_on_c, 2, 53, 50
1, 19202, Note_on_c, 5, 63, 81
1, 19202, Note_on_c, 7, 94, 79
1, 19203, Note_off_c, 9, 35, 64
1, 19203, Note_on_c, 2, 56, 104
1, 19203, Note_on_c, 2, 61, 110
1, 19204, Note_on_c, 2, 65, 104
1, 19204, Note_off_c, 11, 63, 64
1, 19204, Note_on_c, 8, 65, 97
1, 19205, Note_off_c, 8, 66, 64
1, 19208, Note_on_c, 8, 63, 95
1, 19209, Note_off_c, 8, 65, 64
1, 19213, Note_off_c, 8, 63, 64
1, 19213, Note_on_c, 8, 61, 91
1, 19218, Note_off_c, 8, 61, 64
1, 19240, Note_off_c, 2, 53, 64
1, 19244, Note_off_c, 3, 75, 64
1, 19245, Note_off_c, 0, 61, 64
1, 19247, Lyric_t, "ly "
1, 19247, Lyric_t, "\015"
1, 19247, Note_on_c, 3, 77, 108
1, 19248, Note_on_c, 0, 56, 118
1, 19249, Note_off_c, 2, 56, 64
1, 19249, Note_off_c, 2, 61, 64
1, 19249, Note_on_c, 2, 53, 70
1, 19250, Note_on_c, 9, 42, 64
1, 19250, Note_on_c, 2, 56, 95
1, 19251, Note_off_c, 9, 42, 64
1, 19251, Note_on_c, 2, 61, 83
1, 19274, Note_off_c, 2, 53, 64
1, 19293, Note_off_c, 2, 56, 64
1, 19293, Note_on_c, 7, 92, 76
1, 19294, Note_on_c, 0, 61, 104
1, 19294, Note_off_c, 2, 65, 64
1, 19295, Note_off_c, 2, 61, 64
1, 19295, Note_on_c, 2, 56, 92
1, 19296, Note_on_c, 2, 61, 106
1, 19297, Note_on_c, 9, 38, 115
1, 19297, Note_on_c, 9, 42, 71
1, 19297, Note_on_c, 2, 65, 101
1, 19297, Note_off_c, 7, 94, 64
1, 19298, Note_off_c, 9, 42, 64
1, 19298, Note_off_c, 9, 38, 64
1, 19302, Note_off_c, 0, 56, 64
1, 19335, Note_off_c, 1, 37, 64
1, 19341, Note_off_c, 2, 56, 64
1, 19342, Note_off_c, 2, 61, 64
1, 19343, Note_on_c, 1, 37, 109
1, 19343, Note_on_c, 0, 56, 98
1, 19343, Note_off_c, 2, 65, 64
1, 19343, Note_on_c, 2, 56, 92
1, 19343, Note_on_c, 2, 61, 107
1, 19344, Note_on_c, 9, 42, 47
1, 19344, Note_on_c, 2, 65, 106
1, 19344, Note_on_c, 11, 56, 120
1, 19345, Note_off_c, 9, 42, 64
1, 19363, Note_off_c, 0, 61, 64
1, 19367, Note_off_c, 11, 56, 64
1, 19367, Note_on_c, 11, 57, 103
1, 19373, Note_off_c, 11, 57, 64
1, 19373, Note_on_c, 11, 58, 95
1, 19389, Note_off_c, 1, 37, 64
1, 19389, Note_off_c, 11, 58, 64
1, 19389, Note_on_c, 11, 57, 82
1, 19390, Note_on_c, 5, 65, 74
1, 19391, Note_on_c, 9, 35, 106
1, 19391, Note_on_c, 9, 42, 59
1, 19391, Note_on_c, 1, 37, 115
1, 19391, Note_on_c, 0, 61, 100
1, 19392, Note_off_c, 9, 42, 64
1, 19392, Note_off_c, 9, 35, 64
1, 19392, Note_off_c, 2, 61, 64
1, 19392, Note_on_c, 2, 53, 34
1, 19392, Note_off_c, 11, 57, 64
1, 19392, Note_off_c, 5, 63, 64
1, 19393, Note_on_c, 2, 61, 85
1, 19393, Note_on_c, 11, 56, 82
1, 19401, Note_off_c, 0, 56, 64
1, 19437, Note_off_c, 2, 56, 64
1, 19438, Note_off_c, 2, 65, 64
1, 19438, Note_off_c, 2, 61, 64
1, 19438, Note_on_c, 2, 56, 92
1, 19439, Note_on_c, 9, 42, 53
1, 19439, Note_on_c, 2, 65, 93
1, 19439, Note_on_c, 2, 61, 99
1, 19440, Note_off_c, 9, 42, 64
1, 19440, Note_on_c, 0, 56, 92
1, 19449, Note_off_c, 0, 61, 64
1, 19484, Note_off_c, 2, 53, 64
1, 19485, Note_off_c, 2, 56, 64
1, 19486, Note_off_c, 2, 65, 64
1, 19486, Note_off_c, 2, 61, 64
1, 19486, Note_on_c, 2, 53, 92
1, 19486, Note_on_c, 2, 56, 107
1, 19487, Note_on_c, 9, 38, 115
1, 19487, Note_on_c, 9, 42, 63
1, 19487, Note_on_c, 2, 65, 110
1, 19487, Note_on_c, 2, 61, 112
1, 19488, Note_off_c, 9, 42, 64
1, 19488, Note_off_c, 9, 38, 64
1, 19489, Note_on_c, 0, 61, 109
1, 19496, Note_off_c, 0, 56, 64
1, 19501, Note_off_c, 1, 37, 64
1, 19514, Note_on_c, 1, 32, 109
1, 19525, Note_off_c, 1, 32, 64
1, 19528, Note_off_c, 7, 92, 64
1, 19533, Note_off_c, 2, 65, 64
1, 19534, Note_off_c, 2, 61, 64
1, 19534, Note_on_c, 2, 65, 101
1, 19535, Note_on_c, 2, 61, 102
1, 19536, Note_on_c, 9, 35, 103
1, 19536, Note_on_c, 9, 42, 53
1, 19536, Note_on_c, 1, 39, 112
1, 19536, Note_on_c, 7, 84, 81
1, 19537, Note_off_c, 9, 42, 64
1, 19537, Note_off_c, 9, 35, 64
1, 19537, Note_on_c, 0, 56, 109
1, 19546, Note_off_c, 0, 61, 64
1, 19559, Note_on_c, 1, 38, 109
1, 19560, Note_off_c, 1, 39, 64
1, 19561, Note_on_c, 7, 85, 75
1, 19566, Note_off_c, 0, 65, 64
1, 19568, Note_off_c, 0, 56, 64
1, 19569, Note_off_c, 7, 84, 64
1, 19576, Note_off_c, 5, 65, 64
1, 19577, Note_off_c, 0, 49, 64
1, 19580, Note_off_c, 11, 56, 64
1, 19580, Note_on_c, 5, 63, 73
1, 19581, Note_off_c, 2, 61, 64
1, 19582, Note_on_c, 2, 61, 100
1, 19583, Note_on_c, 9, 35, 107
1, 19583, Note_on_c, 9, 42, 69
1, 19583, Note_on_c, 0, 63, 114
1, 19583, Note_on_c, 0, 56, 126
1, 19583, Note_off_c, 2, 65, 64
1, 19584, Note_off_c, 9, 42, 64
1, 19584, Note_off_c, 9, 35, 64
1, 19584, Note_on_c, 0, 59, 125
1, 19584, Note_on_c, 2, 65, 95
1, 19585, Note_off_c, 1, 38, 64
1, 19585, Note_on_c, 1, 37, 111
1, 19585, Note_on_c, 7, 94, 84
1, 19591, Note_off_c, 7, 85, 64
1, 19629, Note_off_c, 2, 56, 64
1, 19630, Note_off_c, 2, 61, 64
1, 19630, Note_on_c, 2, 56, 98
1, 19631, Note_on_c, 9, 42, 37
1, 19631, Note_on_c, 2, 61, 103
1, 19632, Note_off_c, 9, 42, 64
1, 19632, Note_off_c, 2, 65, 64
1, 19633, Note_on_c, 2, 65, 98
1, 19664, Note_off_c, 0, 59, 64
1, 19668, Note_off_c, 0, 56, 64
1, 19669, Note_off_c, 0, 63, 64
1, 19677, Note_off_c, 2, 53, 64
1, 19677, Note_on_c, 5, 65, 81
1, 19677, Note_off_c, 7, 94, 64
1, 19678, Note_off_c, 2, 61, 64
1, 19678, Note_off_c, 2, 56, 64
1, 19678, Note_on_c, 2, 53, 75
1, 19679, Note_on_c, 9, 38, 116
1, 19679, Note_on_c, 9, 42, 69
1, 19679, Note_off_c, 2, 65, 64
1, 19679, Note_on_c, 2, 56, 108
1, 19679, Note_on_c, 2, 61, 111
1, 19679, Note_off_c, 5, 63, 64
1, 19679, Note_on_c, 7, 92, 79
1, 19680, Note_off_c, 9, 42, 64
1, 19680, Note_off_c, 9, 38, 64
1, 19680, Note_on_c, 0, 56, 116
1, 19680, Note_on_c, 0, 65, 127
1, 19680, Note_on_c, 0, 59, 127
1, 19680, Note_on_c, 2, 65, 110
1, 19720, Note_off_c, 1, 37, 64
1, 19725, Note_off_c, 2, 65, 64
1, 19726, Note_off_c, 2, 61, 64
1, 19726, Note_on_c, 2, 65, 106
1, 19727, Note_on_c, 9, 42, 54
1, 19727, Note_on_c, 2, 61, 106
1, 19728, Note_off_c, 9, 42, 64
1, 19729, Note_on_c, 1, 37, 109
1, 19740, Note_off_c, 3, 77, 64
1, 19744, Note_off_c, 2, 56, 64
1, 19746, Note_off_c, 2, 53, 64
1, 19747, Note_off_c, 2, 61, 64
1, 19750, Note_off_c, 2, 65, 64
1, 19754, Note_off_c, 0, 65, 64
1, 19758, Note_off_c, 0, 59, 64
1, 19758, Note_off_c, 0, 56, 64
1, 19774, Note_on_c, 2, 59, 107
1, 19774, Note_on_c, 2, 54, 75
1, 19774, Note_on_c, 2, 63, 108
1, 19774, Note_on_c, 5, 66, 74
1, 19775, Note_on_c, 9, 35, 109
1, 19775, Note_on_c, 9, 42, 61
1, 19775, Note_on_c, 7, 99, 78
1, 19776, Note_off_c, 9, 42, 64
1, 19776, Note_off_c, 9, 35, 64
1, 19776, Note_off_c, 1, 37, 64
1, 19776, Note_on_c, 0, 66, 122
1, 19776, Note_on_c, 0, 59, 120
1, 19776, Note_on_c, 0, 56, 120
1, 19776, Note_on_c, 0, 63, 103
1, 19777, Note_on_c, 1, 34, 112
1, 19780, Note_off_c, 5, 65, 64
1, 19781, Note_off_c, 7, 92, 64
1, 19822, Note_off_c, 2, 54, 64
1, 19822, Note_off_c, 2, 59, 64
1, 19823, Note_on_c, 2, 54, 62
1, 19823, Note_on_c, 2, 59, 86
1, 19824, Note_on_c, 9, 42, 61
1, 19825, Note_off_c, 9, 42, 64
1, 19833, Note_off_c, 2, 63, 64
1, 19835, Note_off_c, 2, 59, 64
1, 19835, Note_off_c, 2, 54, 64
1, 19859, Note_off_c, 0, 63, 64
1, 19859, Note_off_c, 0, 66, 64
1, 19860, Note_off_c, 0, 56, 64
1, 19860, Note_off_c, 0, 59, 64
1, 19867, Note_off_c, 1, 34, 64
1, 19868, Note_on_c, 2, 53, 52
1, 19869, Note_on_c, 2, 56, 106
1, 19869, Note_on_c, 5, 68, 75
1, 19870, Note_on_c, 0, 59, 116
1, 19870, Note_on_c, 0, 56, 98
1, 19870, Note_on_c, 2, 61, 107
1, 19870, Note_on_c, 7, 97, 79
1, 19871, Note_on_c, 1, 32, 110
1, 19871, Note_on_c, 0, 65, 119
1, 19871, Note_on_c, 0, 61, 112
1, 19872, Note_on_c, 9, 45, 103
1, 19872, Note_on_c, 2, 65, 106
1, 19872, Note_off_c, 7, 99, 64
1, 19873, Note_off_c, 9, 45, 64
1, 19875, Note_off_c, 5, 66, 64
1, 19899, Lyric_t, "you "
1, 19899, Note_on_c, 3, 75, 121
1, 19917, Note_off_c, 2, 65, 64
1, 19919, Note_on_c, 9, 43, 111
1, 19919, Note_off_c, 2, 61, 64
1, 19920, Note_off_c, 9, 43, 64
1, 19920, Note_on_c, 2, 61, 95
1, 19920, Note_on_c, 2, 65, 101
1, 19925, Note_off_c, 3, 75, 64
1, 19930, Lyric_t, "know "
1, 19930, Note_on_c, 3, 77, 109
1, 19933, Note_off_c, 2, 56, 64
1, 19935, Note_off_c, 2, 61, 64
1, 19937, Note_off_c, 2, 53, 64
1, 19938, Note_off_c, 2, 65, 64
1, 19954, Note_off_c, 1, 32, 64
1, 19958, Note_off_c, 0, 61, 64
1, 19958, Note_off_c, 0, 59, 64
1, 19959, Note_off_c, 0, 65, 64
1, 19962, Note_off_c, 0, 56, 64
1, 19962, Note_off_c, 7, 97, 64
1, 19963, Note_off_c, 3, 77, 64
1, 19963, Note_off_c, 5, 68, 64
1, 19964, Note_on_c, 0, 58, 110
1, 19964, Note_on_c, 0, 66, 110
1, 19964, Note_on_c, 0, 61, 116
1, 19964, Note_on_c, 7, 94, 67
1, 19965, Note_on_c, 0, 54, 107
1, 19965, Note_on_c, 2, 54, 93
1, 19965, Note_on_c, 2, 58, 109
1, 19966, Note_on_c, 2, 61, 110
1, 19966, Note_on_c, 2, 66, 110
1, 19967, Lyric_t, "you're "
1, 19967, Note_on_c, 3, 78, 107
1, 19967, Note_on_c, 9, 35, 105
1, 19967, Note_on_c, 1, 30, 112
1, 19968, Note_off_c, 9, 35, 64
1, 19968, Note_on_c, 9, 51, 89
1, 19968, Note_on_c, 5, 70, 71
1, 19969, Note_off_c, 9, 51, 64
1, 20036, Note_off_c, 2, 66, 64
1, 20036, Note_off_c, 2, 58, 64
1, 20037, Note_off_c, 2, 54, 64
1, 20039, Note_off_c, 2, 61, 64
1, 20045, Note_off_c, 0, 54, 64
1, 20052, Note_off_c, 3, 78, 64
1, 20053, Note_off_c, 0, 66, 64
1, 20054, Note_off_c, 0, 61, 64
1, 20054, Note_off_c, 0, 58, 64
1, 20059, Lyric_t, "all "
1, 20059, Note_on_c, 3, 77, 111
1, 20059, Note_on_c, 2, 53, 91
1, 20060, Note_on_c, 7, 92, 58
1, 20061, Note_on_c, 0, 53, 95
1, 20061, Note_on_c, 2, 56, 105
1, 20061, Note_on_c, 5, 68, 70
1, 20062, Note_on_c, 9, 57, 45
1, 20062, Note_on_c, 2, 61, 108
1, 20063, Note_off_c, 9, 57, 64
1, 20063, Note_on_c, 0, 61, 106
1, 20063, Note_on_c, 0, 56, 95
1, 20064, Note_on_c, 9, 35, 93
1, 20064, Note_off_c, 1, 30, 64
1, 20064, Note_on_c, 0, 65, 102
1, 20065, Note_off_c, 9, 35, 64
1, 20065, Note_on_c, 1, 29, 106
1, 20065, Note_on_c, 2, 65, 108
1, 20066, Tempo, 923077
1, 20066, Note_off_c, 7, 94, 64
1, 20073, Note_off_c, 5, 70, 64
1, 20108, Note_off_c, 3, 77, 64
1, 20111, Lyric_t, "right "
1, 20111, Note_on_c, 3, 73, 113
1, 20122, Note_off_c, 2, 65, 64
1, 20123, Note_off_c, 2, 56, 64
1, 20124, Note_off_c, 2, 61, 64
1, 20125, Note_off_c, 2, 53, 64
1, 20136, Note_off_c, 0, 65, 64
1, 20136, Note_off_c, 0, 53, 64
1, 20142, Note_off_c, 0, 61, 64
1, 20144, Note_off_c, 0, 56, 64
1, 20157, Note_on_c, 2, 54, 86
1, 20157, Control_c, 7, 11, 126
1, 20158, Note_on_c, 5, 66, 61
1, 20159, Note_on_c, 9, 51, 93
1, 20159, Note_on_c, 1, 39, 108
1, 20160, Note_off_c, 9, 51, 64
1, 20160, Note_on_c, 9, 35, 89
1, 20160, Note_on_c, 0, 39, 98
1, 20161, Note_off_c, 9, 35, 64
1, 20161, Note_on_c, 0, 58, 97
1, 20161, Note_on_c, 0, 54, 99
1, 20161, Note_on_c, 0, 61, 103
1, 20162, Note_on_c, 2, 58, 96
1, 20162, Note_off_c, 5, 68, 64
1, 20163, Note_on_c, 2, 63, 101
1, 20163, Note_on_c, 7, 90, 51
1, 20165, Note_on_c, 2, 66, 101
1, 20166, Note_off_c, 1, 29, 64
1, 20169, Control_c, 7, 11, 124
1, 20170, Note_off_c, 7, 92, 64
1, 20181, Control_c, 7, 11, 122
1, 20193, Control_c, 7, 11, 120
1, 20205, Control_c, 7, 11, 118
1, 20216, Control_c, 5, 11, 125
1, 20217, Control_c, 7, 11, 116
1, 20228, Control_c, 5, 11, 123
1, 20228, Control_c, 7, 11, 114
1, 20239, Note_off_c, 0, 61, 64
1, 20240, Control_c, 5, 11, 121
1, 20240, Control_c, 7, 11, 112
1, 20252, Control_c, 5, 11, 119
1, 20252, Control_c, 7, 11, 110
1, 20255, Note_on_c, 0, 61, 93
1, 20261, Control_c, 5, 11, 117
1, 20264, Control_c, 7, 11, 108
1, 20267, Note_off_c, 0, 54, 64
1, 20273, Control_c, 5, 11, 115
1, 20276, Control_c, 7, 11, 106
1, 20285, Control_c, 5, 11, 113
1, 20288, Control_c, 7, 11, 104
1, 20297, Control_c, 5, 11, 111
1, 20297, Control_c, 7, 11, 102
1, 20306, Note_on_c, 0, 54, 78
1, 20309, Control_c, 5, 11, 109
1, 20309, Control_c, 7, 11, 100
1, 20311, Note_off_c, 0, 61, 64
1, 20320, Control_c, 5, 11, 107
1, 20321, Control_c, 7, 11, 98
1, 20332, Control_c, 5, 11, 105
1, 20333, Control_c, 7, 11, 96
1, 20344, Control_c, 5, 11, 103
1, 20345, Control_c, 7, 11, 94
1, 20352, Time_signature, 6, 2, 24, 8
1, 20354, Note_on_c, 0, 61, 83
1, 20356, Control_c, 5, 11, 101
1, 20357, Control_c, 7, 11, 92
1, 20365, Control_c, 5, 11, 99
1, 20368, Note_off_c, 3, 73, 64
1, 20368, Note_off_c, 0, 54, 64
1, 20368, Control_c, 7, 11, 90
1, 20377, Control_c, 5, 11, 97
1, 20380, Control_c, 7, 11, 88
1, 20389, Control_c, 5, 11, 95
1, 20392, Control_c, 7, 11, 86
1, 20400, Note_on_c, 0, 54, 71
1, 20401, Control_c, 5, 11, 93
1, 20404, Control_c, 7, 11, 84
1, 20408, Note_off_c, 0, 61, 64
1, 20412, Control_c, 5, 11, 91
1, 20416, Control_c, 7, 11, 82
1, 20424, Control_c, 5, 11, 89
1, 20428, Control_c, 7, 11, 80
1, 20436, Control_c, 5, 11, 87
1, 20437, Control_c, 7, 11, 78
1, 20448, Note_off_c, 5, 66, 64
1, 20448, Control_c, 5, 11, 85
1, 20449, Note_on_c, 0, 61, 83
1, 20449, Control_c, 7, 11, 76
1, 20459, Note_off_c, 0, 54, 64
1, 20460, Control_c, 5, 11, 83
1, 20461, Control_c, 7, 11, 74
1, 20469, Control_c, 5, 11, 81
1, 20473, Control_c, 7, 11, 72
1, 20481, Control_c, 5, 11, 79
1, 20485, Control_c, 7, 11, 70
1, 20490, Note_off_c, 2, 66, 64
1, 20493, Control_c, 5, 11, 77
1, 20495, Note_on_c, 0, 54, 81
1, 20495, Note_off_c, 2, 63, 64
1, 20497, Control_c, 7, 11, 68
1, 20498, Note_off_c, 2, 58, 64
1, 20498, Note_off_c, 2, 54, 64
1, 20501, Note_off_c, 0, 61, 64
1, 20505, Control_c, 5, 11, 75
1, 20508, Control_c, 7, 11, 66
1, 20520, Control_c, 7, 11, 64
1, 20527, Note_off_c, 0, 58, 64
1, 20532, Control_c, 7, 11, 62
1, 20537, Note_off_c, 0, 39, 64
1, 20538, Note_off_c, 0, 54, 64
1, 20541, Lyric_t, "with "
1, 20541, Note_on_c, 3, 73, 99
1, 20541, Note_off_c, 1, 39, 64
1, 20542, Note_on_c, 0, 39, 97
1, 20543, Note_on_c, 0, 61, 102
1, 20544, Control_c, 7, 11, 60
1, 20545, Note_on_c, 1, 39, 100
1, 20556, Note_off_c, 7, 90, 64
1, 20556, Control_c, 7, 11, 58
1, 20561, Control_c, 5, 11, 126
1, 20565, Control_c, 7, 11, 56
1, 20591, Note_on_c, 0, 54, 71
1, 20599, Note_off_c, 0, 61, 64
1, 20638, Note_on_c, 0, 57, 104
1, 20641, Note_on_c, 5, 66, 36
1, 20667, Note_on_c, 3, 69, 88
1, 20677, Note_off_c, 3, 73, 64
1, 20685, Note_on_c, 0, 61, 88
1, 20695, Note_on_c, 3, 68, 81
1, 20700, Note_off_c, 3, 69, 64
1, 20732, Control_c, 7, 11, 127
1, 20733, Note_on_c, 0, 66, 80
1, 20740, Note_off_c, 0, 39, 64
1, 20742, Note_off_c, 0, 54, 64
1, 20765, Note_off_c, 0, 61, 64
1, 20785, Note_on_c, 0, 54, 82
1, 20795, Note_off_c, 0, 57, 64
1, 20808, Control_c, 5, 11, 127
1, 20809, Control_c, 5, 11, 126
1, 20812, Tempo, 1034483
1, 20813, Note_off_c, 0, 66, 64
1, 20817, Control_c, 5, 11, 122
1, 20825, Control_c, 5, 11, 118
1, 20833, Note_on_c, 0, 61, 92
1, 20833, Control_c, 5, 11, 114
1, 20841, Control_c, 5, 11, 110
1, 20849, Control_c, 5, 11, 106
1, 20857, Control_c, 5, 11, 101
1, 20865, Control_c, 5, 11, 97
1, 20873, Control_c, 5, 11, 93
1, 20881, Control_c, 5, 11, 89
1, 20889, Control_c, 5, 11, 85
1, 20894, Note_off_c, 3, 68, 64
1, 20897, Control_c, 5, 11, 81
1, 20905, Control_c, 5, 11, 76
1, 20911, Note_off_c, 0, 54, 64
1, 20913, Control_c, 5, 11, 72
1, 20914, Note_off_c, 0, 61, 64
1, 20921, Control_c, 5, 11, 68
1, 20928, Time_signature, 4, 2, 24, 8
1, 20928, Tempo, 909091
1, 20928, Note_on_c, 0, 49, 100
1, 20928, Note_off_c, 5, 66, 64
1, 20928, Note_on_c, 5, 65, 36
1, 20929, Note_off_c, 1, 39, 64
1, 20929, Note_on_c, 1, 37, 97
1, 20929, Control_c, 5, 11, 64
1, 20936, Lyric_t, "me. "
1, 20936, Lyric_t, "\015"
1, 20936, Note_on_c, 3, 75, 101
1, 20937, Control_c, 5, 11, 60
1, 20952, Note_on_c, 11, 68, 70
1, 20953, Note_on_c, 3, 77, 95
1, 20961, Note_off_c, 3, 75, 64
1, 20975, Note_on_c, 0, 56, 85
1, 20975, Note_on_c, 11, 61, 57
1, 20977, Note_on_c, 2, 49, 75
1, 20979, Note_on_c, 3, 73, 80
1, 20984, Note_off_c, 3, 77, 64
1, 21025, Note_on_c, 2, 56, 99
1, 21026, Note_on_c, 0, 61, 64
1, 21037, Note_off_c, 2, 49, 64
1, 21067, Note_on_c, 0, 63, 81
1, 21071, Note_on_c, 2, 49, 84
1, 21086, Note_off_c, 2, 56, 64
1, 21112, Note_off_c, 11, 68, 64
1, 21115, Note_on_c, 0, 68, 81
1, 21117, Note_off_c, 11, 61, 64
1, 21119, Note_on_c, 2, 56, 95
1, 21160, Note_on_c, 0, 73, 81
1, 21166, Note_on_c, 2, 61, 88
1, 21209, Note_on_c, 0, 75, 92
1, 21212, Note_on_c, 2, 63, 87
1, 21213, Note_off_c, 2, 56, 64
1, 21260, Note_on_c, 2, 56, 84
1, 21261, Note_on_c, 0, 80, 86
1, 21266, Note_off_c, 3, 73, 64
1, 21278, Note_off_c, 2, 63, 64
1, 21295, Note_off_c, 1, 37, 64
1, 21296, Note_off_c, 0, 61, 64
1, 21296, Note_off_c, 0, 49, 64
1, 21300, Note_off_c, 0, 75, 64
1, 21300, Note_off_c, 0, 68, 64
1, 21300, Note_off_c, 0, 63, 64
1, 21300, Note_off_c, 0, 73, 64
1, 21301, Note_off_c, 2, 61, 64
1, 21304, Note_off_c, 0, 56, 64
1, 21304, Note_on_c, 0, 73, 88
1, 21308, Note_on_c, 0, 49, 80
1, 21308, Note_on_c, 0, 75, 97
1, 21308, Note_off_c, 2, 49, 64
1, 21308, Note_on_c, 2, 61, 98
1, 21308, Note_off_c, 5, 65, 64
1, 21310, Note_on_c, 0, 56, 79
1, 21310, Note_on_c, 0, 61, 68
1, 21310, Note_on_c, 2, 68, 82
1, 21311, Note_on_c, 1, 49, 93
1, 21311, Note_on_c, 6, 68, 34
1, 21312, Note_off_c, 0, 80, 64
1, 21312, Note_off_c, 2, 56, 64
1, 21314, Note_on_c, 0, 80, 68
1, 21316, Note_on_c, 8, 85, 93
1, 21317, Note_on_c, 0, 85, 80
1, 21320, Note_on_c, 9, 53, 53
1, 21321, Note_on_c, 9, 51, 54
1, 21327, Note_on_c, 8, 80, 91
1, 21451, Control_c, 1, 11, 126
1, 21455, Control_c, 1, 11, 125
1, 21458, Control_c, 1, 11, 124
1, 21462, Control_c, 1, 11, 123
1, 21466, Control_c, 1, 11, 122
1, 21469, Control_c, 1, 11, 121
1, 21472, Control_c, 1, 11, 120
1, 21475, Control_c, 1, 11, 119
1, 21479, Control_c, 1, 11, 118
1, 21482, Control_c, 1, 11, 117
1, 21486, Control_c, 1, 11, 116
1, 21490, Control_c, 1, 11, 115
1, 21493, Control_c, 1, 11, 114
1, 21494, Note_off_c, 9, 53, 64
1, 21495, Note_off_c, 9, 51, 64
1, 21496, Control_c, 1, 11, 113
1, 21499, Control_c, 1, 11, 112
1, 21503, Control_c, 1, 11, 111
1, 21506, Control_c, 1, 11, 110
1, 21510, Control_c, 1, 11, 109
1, 21514, Control_c, 1, 11, 108
1, 21517, Control_c, 1, 11, 107
1, 21520, Control_c, 1, 11, 106
1, 21523, Control_c, 1, 11, 105
1, 21527, Control_c, 1, 11, 104
1, 21530, Control_c, 1, 11, 103
1, 21534, Control_c, 1, 11, 102
1, 21538, Control_c, 1, 11, 101
1, 21541, Control_c, 1, 11, 100
1, 21544, Control_c, 1, 11, 99
1, 21547, Control_c, 1, 11, 98
1, 21551, Control_c, 1, 11, 97
1, 21554, Control_c, 1, 11, 96
1, 21555, Note_off_c, 8, 85, 64
1, 21558, Control_c, 1, 11, 95
1, 21562, Control_c, 1, 11, 94
1, 21565, Control_c, 1, 11, 93
1, 21568, Control_c, 1, 11, 92
1, 21571, Control_c, 1, 11, 91
1, 21575, Control_c, 1, 11, 90
1, 21578, Control_c, 1, 11, 89
1, 21582, Control_c, 1, 11, 88
1, 21585, Note_off_c, 8, 80, 64
1, 21586, Control_c, 1, 11, 87
1, 21589, Control_c, 1, 11, 86
1, 21592, Control_c, 1, 11, 85
1, 21597, Control_c, 1, 11, 84
1, 21600, Control_c, 1, 11, 83
1, 21603, Control_c, 1, 11, 82
1, 21607, Control_c, 1, 11, 81
1, 21610, Control_c, 1, 11, 80
1, 21614, Control_c, 1, 11, 79
1, 21618, Control_c, 1, 11, 78
1, 21621, Control_c, 1, 11, 77
1, 21624, Control_c, 1, 11, 76
1, 21627, Control_c, 1, 11, 75
1, 21631, Control_c, 1, 11, 74
1, 21634, Control_c, 1, 11, 73
1, 21638, Control_c, 1, 11, 72
1, 21642, Control_c, 1, 11, 71
1, 21645, Control_c, 1, 11, 70
1, 21648, Control_c, 1, 11, 69
1, 21651, Control_c, 1, 11, 68
1, 21652, Note_off_c, 0, 56, 64
1, 21655, Control_c, 1, 11, 67
1, 21656, Note_off_c, 0, 73, 64
1, 21658, Control_c, 1, 11, 66
1, 21660, Note_off_c, 0, 75, 64
1, 21660, Note_off_c, 0, 49, 64
1, 21660, Note_off_c, 0, 61, 64
1, 21662, Control_c, 1, 11, 65
1, 21666, Control_c, 1, 11, 64
1, 21668, Note_off_c, 0, 85, 64
1, 21668, Note_off_c, 0, 80, 64
1, 21669, Control_c, 1, 11, 63
1, 21672, Control_c, 1, 11, 62
1, 21675, Control_c, 1, 11, 61
1, 21677, Note_off_c, 2, 68, 64
1, 21679, Control_c, 1, 11, 60
1, 21679, Note_off_c, 2, 61, 64
1, 21682, Control_c, 1, 11, 59
1, 21686, Control_c, 1, 11, 58
1, 21690, Control_c, 1, 11, 57
1, 21693, Control_c, 1, 11, 56
1, 21696, Control_c, 1, 11, 55
1, 21699, Control_c, 1, 11, 54
1, 21700, Note_off_c, 6, 68, 64
1, 21703, Control_c, 1, 11, 53
1, 21706, Control_c, 1, 11, 52
1, 21710, Control_c, 1, 11, 51
1, 21714, Control_c, 1, 11, 50
1, 21717, Control_c, 1, 11, 49
1, 21720, Control_c, 1, 11, 48
1, 21723, Control_c, 1, 11, 47
1, 21727, Control_c, 1, 11, 46
1, 21730, Control_c, 1, 11, 45
1, 21734, Control_c, 1, 11, 44
1, 21738, Control_c, 1, 11, 43
1, 21742, Control_c, 1, 11, 42
1, 21746, Control_c, 1, 11, 41
1, 21749, Control_c, 1, 11, 40
1, 21752, Control_c, 1, 11, 39
1, 21755, Control_c, 1, 11, 38
1, 21759, Control_c, 1, 11, 37
1, 21762, Control_c, 1, 11, 36
1, 21766, Control_c, 1, 11, 35
1, 21770, Control_c, 1, 11, 34
1, 21773, Control_c, 1, 11, 33
1, 21776, Control_c, 1, 11, 32
1, 21779, Control_c, 1, 11, 31
1, 21783, Control_c, 1, 11, 30
1, 21786, Control_c, 1, 11, 29
1, 21790, Control_c, 1, 11, 28
1, 21794, Control_c, 1, 11, 27
1, 21797, Control_c, 1, 11, 26
1, 21800, Control_c, 1, 11, 25
1, 21803, Control_c, 1, 11, 24
1, 21807, Control_c, 1, 11, 23
1, 21810, Control_c, 1, 11, 22
1, 21814, Control_c, 1, 11, 21
1, 21818, Control_c, 1, 11, 20
1, 21821, Control_c, 1, 11, 19
1, 21824, Control_c, 1, 11, 18
1, 21827, Control_c, 1, 11, 17
1, 21831, Control_c, 1, 11, 16
1, 21834, Control_c, 1, 11, 15
1, 21838, Control_c, 1, 11, 14
1, 21842, Control_c, 1, 11, 13
1, 21845, Control_c, 1, 11, 12
1, 21848, Control_c, 1, 11, 11
1, 21851, Control_c, 1, 11, 10
1, 21855, Control_c, 1, 11, 9
1, 21858, Control_c, 1, 11, 8
1, 21862, Control_c, 1, 11, 7
1, 21866, Control_c, 1, 11, 6
1, 21869, Control_c, 1, 11, 5
1, 21872, Control_c, 1, 11, 4
1, 21875, Control_c, 1, 11, 3
1, 21879, Control_c, 1, 11, 2
1, 21882, Control_c, 1, 11, 1
1, 21896, Note_off_c, 1, 49, 64
1, 21896, End_track
0, 0, End_of_file
