0, 0, Header, 1, 18, 480
1, 0, Start_track
1, 0, Tempo, 731707
1, 0, Time_signature, 4, 2, 24, 8
1, 0, End_track
2, 0, Start_track
2, 0, Title_t, "Words"
2, 0, Lyric_t, "Trumpets "
2, 0, Lyric_t, "\015"
2, 0, Lyric_t, "Jason Derulo "
2, 0, Lyric_t, "\015"
2, 0, Lyric_t, "\015"
2, 0, Lyric_t, "\015"
2, 1440, Lyric_t, "Ev"
2, 1680, Lyric_t, "ery "
2, 1920, Lyric_t, "time "
2, 2760, Lyric_t, "that "
2, 2880, Lyric_t, "you "
2, 3360, Lyric_t, "get "
2, 3600, Lyric_t, "un"
2, 4080, Lyric_t, "dressed "
2, 4080, Lyric_t, "\015"
2, 5280, Lyric_t, "I "
2, 5520, Lyric_t, "hear "
2, 5760, Lyric_t, "sym"
2, 6600, Lyric_t, "pho"
2, 6720, Lyric_t, "nies "
2, 7200, Lyric_t, "in "
2, 7440, Lyric_t, "my "
2, 7920, Lyric_t, "head "
2, 7920, Lyric_t, "\015"
2, 9360, Lyric_t, "I "
2, 9600, Lyric_t, "wrote "
2, 10080, Lyric_t, "this "
2, 10320, Lyric_t, "song "
2, 10800, Lyric_t, "just "
2, 11520, Lyric_t, "look"
2, 11760, Lyric_t, "ing "
2, 12000, Lyric_t, "at "
2, 12240, Lyric_t, "you "
2, 12720, Lyric_t, "oh, "
2, 13200, Lyric_t, "oh "
2, 13200, Lyric_t, "\015"
2, 13920, Lyric_t, "Yet "
2, 14040, Lyric_t, "the "
2, 14160, Lyric_t, "drums "
2, 14400, Lyric_t, "they "
2, 14640, Lyric_t, "swing "
2, 14880, Lyric_t, "low "
2, 14880, Lyric_t, "\015"
2, 15720, Lyric_t, "And "
2, 15840, Lyric_t, "the "
2, 15960, Lyric_t, "trum"
2, 16200, Lyric_t, "pets "
2, 16440, Lyric_t, "they "
2, 16680, Lyric_t, "go "
2, 16680, Lyric_t, "\015"
2, 19560, Lyric_t, "And "
2, 19680, Lyric_t, "the "
2, 19800, Lyric_t, "trum"
2, 20040, Lyric_t, "pets "
2, 20280, Lyric_t, "they "
2, 20520, Lyric_t, "go "
2, 20520, Lyric_t, "\015"
2, 23400, Lyric_t, "Yeah "
2, 23520, Lyric_t, "the "
2, 23640, Lyric_t, "trum"
2, 23880, Lyric_t, "pets "
2, 24120, Lyric_t, "they "
2, 24360, Lyric_t, "go "
2, 24360, Lyric_t, "\015"
2, 29760, Lyric_t, "(Ooh, "
2, 30720, Lyric_t, "yeah) "
2, 30720, Lyric_t, "\015"
2, 31560, Lyric_t, "And "
2, 31680, Lyric_t, "they "
2, 31920, Lyric_t, "go "
2, 31920, Lyric_t, "\015"
2, 31920, Lyric_t, "\015"
2, 33120, Lyric_t, "Is "
2, 33240, Lyric_t, "it "
2, 33360, Lyric_t, "weird "
2, 33600, Lyric_t, "that "
2, 33720, Lyric_t, "I "
2, 33840, Lyric_t, "hear "
2, 33840, Lyric_t, "\015"
2, 34320, Lyric_t, "Vi"
2, 34440, Lyric_t, "o"
2, 34560, Lyric_t, "lins "
2, 34680, Lyric_t, "when"
2, 34800, Lyric_t, "ev"
2, 34920, Lyric_t, "er "
2, 35040, Lyric_t, "you're "
2, 35280, Lyric_t, "gone "
2, 35280, Lyric_t, "\015"
2, 35640, Lyric_t, "When"
2, 35760, Lyric_t, "ev"
2, 35880, Lyric_t, "er "
2, 36000, Lyric_t, "you're "
2, 36240, Lyric_t, "gone "
2, 36240, Lyric_t, "\015"
2, 36960, Lyric_t, "Is "
2, 37080, Lyric_t, "it "
2, 37200, Lyric_t, "weird "
2, 37440, Lyric_t, "that "
2, 37560, Lyric_t, "your "
2, 37680, Lyric_t, "ass "
2, 37680, Lyric_t, "\015"
2, 38040, Lyric_t, "Re"
2, 38160, Lyric_t, "mind "
2, 38280, Lyric_t, "me "
2, 38400, Lyric_t, "of "
2, 38520, Lyric_t, "a "
2, 38640, Lyric_t, "Kan"
2, 38760, Lyric_t, "ye "
2, 38880, Lyric_t, "West "
2, 39120, Lyric_t, "song? "
2, 39120, Lyric_t, "\015"
2, 39600, Lyric_t, "Kanye "
2, 39720, Lyric_t, "West "
2, 39840, Lyric_t, "song "
2, 39840, Lyric_t, "\015"
2, 39840, Lyric_t, "\015"
2, 40800, Lyric_t, "Is "
2, 40920, Lyric_t, "it "
2, 41040, Lyric_t, "weird "
2, 41280, Lyric_t, "that "
2, 41400, Lyric_t, "I "
2, 41520, Lyric_t, "hear "
2, 41520, Lyric_t, "\015"
2, 42000, Lyric_t, "Trum"
2, 42120, Lyric_t, "pets "
2, 42240, Lyric_t, "when "
2, 42360, Lyric_t, "you're "
2, 42480, Lyric_t, "turn"
2, 42600, Lyric_t, "ing "
2, 42720, Lyric_t, "me "
2, 42960, Lyric_t, "on? "
2, 42960, Lyric_t, "\015"
2, 43440, Lyric_t, "Turn"
2, 43560, Lyric_t, "ing "
2, 43680, Lyric_t, "me "
2, 43920, Lyric_t, "on "
2, 43920, Lyric_t, "\015"
2, 44640, Lyric_t, "Is "
2, 44760, Lyric_t, "it "
2, 44880, Lyric_t, "weird "
2, 45120, Lyric_t, "that "
2, 45240, Lyric_t, "your "
2, 45360, Lyric_t, "bra "
2, 45360, Lyric_t, "\015"
2, 45720, Lyric_t, "Re"
2, 45840, Lyric_t, "mind "
2, 45960, Lyric_t, "me "
2, 46080, Lyric_t, "of "
2, 46200, Lyric_t, "a "
2, 46320, Lyric_t, "Ka"
2, 46440, Lyric_t, "ty "
2, 46560, Lyric_t, "Per"
2, 46680, Lyric_t, "ry "
2, 46800, Lyric_t, "song? "
2, 46800, Lyric_t, "\015"
2, 46800, Lyric_t, "\015"
2, 47280, Lyric_t, "Ev"
2, 47520, Lyric_t, "ery "
2, 47760, Lyric_t, "time "
2, 48840, Lyric_t, "that "
2, 48960, Lyric_t, "you "
2, 49440, Lyric_t, "get "
2, 49680, Lyric_t, "un"
2, 50160, Lyric_t, "dressed "
2, 50160, Lyric_t, "\015"
2, 51360, Lyric_t, "I "
2, 51600, Lyric_t, "hear "
2, 51840, Lyric_t, "sym"
2, 52680, Lyric_t, "pho"
2, 52800, Lyric_t, "nies "
2, 53280, Lyric_t, "in "
2, 53520, Lyric_t, "my "
2, 54000, Lyric_t, "head "
2, 54000, Lyric_t, "\015"
2, 55440, Lyric_t, "I "
2, 55680, Lyric_t, "wrote "
2, 56160, Lyric_t, "this "
2, 56400, Lyric_t, "song "
2, 56880, Lyric_t, "just "
2, 57600, Lyric_t, "look"
2, 57840, Lyric_t, "ing "
2, 58080, Lyric_t, "at "
2, 58320, Lyric_t, "you "
2, 58800, Lyric_t, "o"
2, 59040, Lyric_t, "oh, "
2, 59280, Lyric_t, "oh "
2, 59280, Lyric_t, "\015"
2, 60000, Lyric_t, "Yeah "
2, 60120, Lyric_t, "the "
2, 60240, Lyric_t, "drums "
2, 60480, Lyric_t, "they "
2, 60720, Lyric_t, "swing "
2, 60960, Lyric_t, "low "
2, 60960, Lyric_t, "\015"
2, 61800, Lyric_t, "And "
2, 61920, Lyric_t, "the "
2, 62040, Lyric_t, "trum"
2, 62280, Lyric_t, "pets "
2, 62520, Lyric_t, "they "
2, 62760, Lyric_t, "go "
2, 64200, Lyric_t, "(and "
2, 64320, Lyric_t, "they "
2, 64440, Lyric_t, "play"
2, 64560, Lyric_t, "ing "
2, 64680, Lyric_t, "for "
2, 64800, Lyric_t, "you, "
2, 64920, Lyric_t, "girl) "
2, 64920, Lyric_t, "\015"
2, 65640, Lyric_t, "And "
2, 65760, Lyric_t, "the "
2, 65880, Lyric_t, "trum"
2, 66120, Lyric_t, "pets "
2, 66360, Lyric_t, "they "
2, 66600, Lyric_t, "go "
2, 67680, Lyric_t, "(ha, yeah) "
2, 67680, Lyric_t, "\015"
2, 69480, Lyric_t, "Yeah "
2, 69600, Lyric_t, "the "
2, 69720, Lyric_t, "trum"
2, 69960, Lyric_t, "pets "
2, 70200, Lyric_t, "they "
2, 70440, Lyric_t, "go "
2, 70440, Lyric_t, "\015"
2, 73320, Lyric_t, "Yeah "
2, 73440, Lyric_t, "the "
2, 73560, Lyric_t, "trum"
2, 73800, Lyric_t, "pets "
2, 74040, Lyric_t, "they "
2, 74280, Lyric_t, "go "
2, 74280, Lyric_t, "\015"
2, 74640, Lyric_t, "Da, "
2, 75000, Lyric_t, "ra, "
2, 75120, Lyric_t, "ra, "
2, 75360, Lyric_t, "ra, "
2, 75720, Lyric_t, "da "
2, 75720, Lyric_t, "\015"
2, 75840, Lyric_t, "Da, "
2, 76080, Lyric_t, "ra, "
2, 76200, Lyric_t, "ra "
2, 76200, Lyric_t, "\015"
2, 76320, Lyric_t, "Da, "
2, 76560, Lyric_t, "ra, "
2, 76920, Lyric_t, "ra, "
2, 77040, Lyric_t, "ra, "
2, 77280, Lyric_t, "da "
2, 77280, Lyric_t, "\015"
2, 77640, Lyric_t, "And "
2, 77760, Lyric_t, "they "
2, 78000, Lyric_t, "go "
2, 78000, Lyric_t, "\015"
2, 78000, Lyric_t, "\015"
2, 78720, Lyric_t, "(Damn) "
2, 79200, Lyric_t, "Is "
2, 79320, Lyric_t, "it "
2, 79440, Lyric_t, "weird "
2, 79680, Lyric_t, "that "
2, 79800, Lyric_t, "I "
2, 79920, Lyric_t, "hear "
2, 79920, Lyric_t, "\015"
2, 80400, Lyric_t, "An"
2, 80520, Lyric_t, "gels "
2, 80640, Lyric_t, "ev"
2, 80760, Lyric_t, "ery "
2, 80880, Lyric_t, "time "
2, 81000, Lyric_t, "that "
2, 81120, Lyric_t, "you "
2, 81360, Lyric_t, "moan? "
2, 81360, Lyric_t, "\015"
2, 81840, Lyric_t, "Time "
2, 81960, Lyric_t, "that "
2, 82080, Lyric_t, "you "
2, 82320, Lyric_t, "moan "
2, 82320, Lyric_t, "\015"
2, 83040, Lyric_t, "Is "
2, 83160, Lyric_t, "it "
2, 83280, Lyric_t, "weird "
2, 83520, Lyric_t, "that "
2, 83640, Lyric_t, "your "
2, 83760, Lyric_t, "eyes "
2, 83760, Lyric_t, "\015"
2, 84120, Lyric_t, "Re"
2, 84240, Lyric_t, "mind "
2, 84360, Lyric_t, "me "
2, 84480, Lyric_t, "of "
2, 84600, Lyric_t, "a "
2, 84720, Lyric_t, "Cold"
2, 84960, Lyric_t, "play "
2, 85200, Lyric_t, "song? "
2, 85200, Lyric_t, "\015"
2, 85680, Lyric_t, "Cold"
2, 85920, Lyric_t, "play "
2, 86160, Lyric_t, "song "
2, 86160, Lyric_t, "\015"
2, 86160, Lyric_t, "\015"
2, 86880, Lyric_t, "Is "
2, 87000, Lyric_t, "it "
2, 87120, Lyric_t, "weird "
2, 87360, Lyric_t, "that "
2, 87480, Lyric_t, "I "
2, 87600, Lyric_t, "hear "
2, 87600, Lyric_t, "\015"
2, 88080, Lyric_t, "Trum"
2, 88200, Lyric_t, "pets "
2, 88320, Lyric_t, "when "
2, 88440, Lyric_t, "you're "
2, 88560, Lyric_t, "turn"
2, 88680, Lyric_t, "ing "
2, 88800, Lyric_t, "me "
2, 89040, Lyric_t, "on? "
2, 89040, Lyric_t, "\015"
2, 89520, Lyric_t, "Turn"
2, 89640, Lyric_t, "ing "
2, 89760, Lyric_t, "me "
2, 90000, Lyric_t, "on "
2, 90000, Lyric_t, "\015"
2, 90720, Lyric_t, "Is "
2, 90840, Lyric_t, "it "
2, 90960, Lyric_t, "weird "
2, 91200, Lyric_t, "that "
2, 91320, Lyric_t, "your "
2, 91440, Lyric_t, "bra "
2, 91440, Lyric_t, "\015"
2, 91800, Lyric_t, "Re"
2, 91920, Lyric_t, "mind "
2, 92040, Lyric_t, "me "
2, 92160, Lyric_t, "of "
2, 92280, Lyric_t, "a "
2, 92400, Lyric_t, "Ka"
2, 92520, Lyric_t, "ty "
2, 92640, Lyric_t, "Per"
2, 92760, Lyric_t, "ry "
2, 92880, Lyric_t, "song? "
2, 92880, Lyric_t, "\015"
2, 92880, Lyric_t, "\015"
2, 93360, Lyric_t, "Ev"
2, 93600, Lyric_t, "ery "
2, 93840, Lyric_t, "time "
2, 94560, Lyric_t, "that "
2, 94800, Lyric_t, "you "
2, 95280, Lyric_t, "get "
2, 95520, Lyric_t, "un"
2, 96000, Lyric_t, "dressed "
2, 96000, Lyric_t, "\015"
2, 97200, Lyric_t, "I "
2, 97440, Lyric_t, "hear "
2, 97680, Lyric_t, "sym"
2, 98400, Lyric_t, "pho"
2, 98640, Lyric_t, "nies "
2, 99360, Lyric_t, "in "
2, 99600, Lyric_t, "my "
2, 100080, Lyric_t, "head "
2, 100080, Lyric_t, "\015"
2, 101280, Lyric_t, "I "
2, 101520, Lyric_t, "wrote "
2, 102000, Lyric_t, "this "
2, 102240, Lyric_t, "song, "
2, 103440, Lyric_t, "look"
2, 103680, Lyric_t, "ing "
2, 103920, Lyric_t, "at "
2, 104160, Lyric_t, "you "
2, 104640, Lyric_t, "oh"
2, 104880, Lyric_t, ", "
2, 105120, Lyric_t, "oh "
2, 105120, Lyric_t, "\015"
2, 106800, Lyric_t, "Oh "
2, 106920, Lyric_t, "yeah "
2, 106920, Lyric_t, "\015"
2, 106920, Lyric_t, "\015"
2, 108480, Lyric_t, "Ev"
2, 108720, Lyric_t, "ery "
2, 108960, Lyric_t, "time "
2, 110040, Lyric_t, "that "
2, 110160, Lyric_t, "you "
2, 110640, Lyric_t, "get "
2, 110880, Lyric_t, "un"
2, 111360, Lyric_t, "dressed "
2, 111600, Lyric_t, "(ev"
2, 111720, Lyric_t, "ery "
2, 111960, Lyric_t, "time "
2, 112200, Lyric_t, "that "
2, 112320, Lyric_t, "you "
2, 112440, Lyric_t, "get...) "
2, 112440, Lyric_t, "\015"
2, 112560, Lyric_t, "I "
2, 112800, Lyric_t, "hear "
2, 113040, Lyric_t, "sym"
2, 113880, Lyric_t, "pho"
2, 114000, Lyric_t, "nies "
2, 114480, Lyric_t, "in "
2, 114720, Lyric_t, "my "
2, 115200, Lyric_t, "head "
2, 115440, Lyric_t, "(I "
2, 115560, Lyric_t, "hear "
2, 115800, Lyric_t, "sym"
2, 116040, Lyric_t, "pho"
2, 116160, Lyric_t, "nies "
2, 116280, Lyric_t, "in "
2, 116400, Lyric_t, "my head) "
2, 116400, Lyric_t, "\015"
2, 116640, Lyric_t, "I wrote "
2, 117120, Lyric_t, "this "
2, 117360, Lyric_t, "song just "
2, 117840, Lyric_t, "(I wrote "
2, 117960, Lyric_t, "this "
2, 118200, Lyric_t, "song) "
2, 118560, Lyric_t, "look"
2, 118800, Lyric_t, "ing "
2, 119040, Lyric_t, "at "
2, 119280, Lyric_t, "you "
2, 119640, Lyric_t, "(just "
2, 119760, Lyric_t, "look"
2, 119880, Lyric_t, "ing "
2, 120000, Lyric_t, "at "
2, 120120, Lyric_t, "you "
2, 120360, Lyric_t, "girl) "
2, 120360, Lyric_t, "\015"
2, 121440, Lyric_t, "Yeah "
2, 121560, Lyric_t, "the "
2, 121680, Lyric_t, "drums "
2, 121920, Lyric_t, "they "
2, 122160, Lyric_t, "swing "
2, 122400, Lyric_t, "low "
2, 122400, Lyric_t, "\015"
2, 123240, Lyric_t, "And "
2, 123360, Lyric_t, "the "
2, 123480, Lyric_t, "trum"
2, 123720, Lyric_t, "pets "
2, 123960, Lyric_t, "they "
2, 124200, Lyric_t, "go "
2, 125760, Lyric_t, "(a"
2, 125880, Lyric_t, "ca"
2, 126000, Lyric_t, "pel"
2, 126120, Lyric_t, "la "
2, 126240, Lyric_t, "on "
2, 126360, Lyric_t, "them) "
2, 126360, Lyric_t, "\015"
2, 127080, Lyric_t, "And "
2, 127200, Lyric_t, "the "
2, 127320, Lyric_t, "trum"
2, 127560, Lyric_t, "pets "
2, 127800, Lyric_t, "they "
2, 128040, Lyric_t, "go "
2, 128040, Lyric_t, "\015"
2, 132000, Lyric_t, "Come "
2, 132120, Lyric_t, "on, "
2, 132960, Lyric_t, "come "
2, 133080, Lyric_t, "on, "
2, 133920, Lyric_t, "come "
2, 134040, Lyric_t, "on, "
2, 135600, Lyric_t, "they "
2, 135840, Lyric_t, "go "
2, 135840, End_track
3, 0, Start_track
3, 0, Program_c, 0, 0
3, 0, Control_c, 0, 7, 70
3, 1680, Note_on_c, 0, 60, 110
3, 2140, Note_on_c, 0, 60, 0
3, 2160, Note_on_c, 0, 60, 110
3, 2620, Note_on_c, 0, 60, 0
3, 2640, Note_on_c, 0, 53, 110
3, 3100, Note_on_c, 0, 53, 0
3, 3120, Note_on_c, 0, 53, 110
3, 3580, Note_on_c, 0, 53, 0
3, 3600, Note_on_c, 0, 57, 110
3, 4060, Note_on_c, 0, 57, 0
3, 4080, Note_on_c, 0, 57, 110
3, 4540, Note_on_c, 0, 57, 0
3, 4560, Note_on_c, 0, 55, 110
3, 5020, Note_on_c, 0, 55, 0
3, 5040, Note_on_c, 0, 55, 110
3, 5500, Note_on_c, 0, 55, 0
3, 5520, Note_on_c, 0, 60, 110
3, 5980, Note_on_c, 0, 60, 0
3, 6000, Note_on_c, 0, 60, 110
3, 6460, Note_on_c, 0, 60, 0
3, 6480, Note_on_c, 0, 53, 110
3, 6940, Note_on_c, 0, 53, 0
3, 6960, Note_on_c, 0, 53, 110
3, 7420, Note_on_c, 0, 53, 0
3, 7440, Note_on_c, 0, 57, 110
3, 7900, Note_on_c, 0, 57, 0
3, 7920, Note_on_c, 0, 57, 110
3, 8380, Note_on_c, 0, 57, 0
3, 8400, Note_on_c, 0, 55, 110
3, 8860, Note_on_c, 0, 55, 0
3, 8880, Note_on_c, 0, 55, 110
3, 9340, Note_on_c, 0, 55, 0
3, 9360, Note_on_c, 0, 60, 110
3, 9820, Note_on_c, 0, 60, 0
3, 9840, Note_on_c, 0, 60, 110
3, 10300, Note_on_c, 0, 60, 0
3, 10320, Note_on_c, 0, 53, 110
3, 10780, Note_on_c, 0, 53, 0
3, 10800, Note_on_c, 0, 53, 110
3, 11260, Note_on_c, 0, 53, 0
3, 11280, Note_on_c, 0, 57, 110
3, 11740, Note_on_c, 0, 57, 0
3, 11760, Note_on_c, 0, 57, 110
3, 12220, Note_on_c, 0, 57, 0
3, 12240, Note_on_c, 0, 55, 110
3, 12700, Note_on_c, 0, 55, 0
3, 12720, Note_on_c, 0, 55, 110
3, 13180, Note_on_c, 0, 55, 0
3, 47760, Note_on_c, 0, 60, 110
3, 48220, Note_on_c, 0, 60, 0
3, 48240, Note_on_c, 0, 60, 110
3, 48700, Note_on_c, 0, 60, 0
3, 48720, Note_on_c, 0, 53, 110
3, 49180, Note_on_c, 0, 53, 0
3, 49200, Note_on_c, 0, 53, 110
3, 49660, Note_on_c, 0, 53, 0
3, 49680, Note_on_c, 0, 57, 110
3, 50140, Note_on_c, 0, 57, 0
3, 50160, Note_on_c, 0, 57, 110
3, 50620, Note_on_c, 0, 57, 0
3, 50640, Note_on_c, 0, 55, 110
3, 51100, Note_on_c, 0, 55, 0
3, 51120, Note_on_c, 0, 55, 110
3, 51580, Note_on_c, 0, 55, 0
3, 51600, Note_on_c, 0, 60, 110
3, 52060, Note_on_c, 0, 60, 0
3, 52080, Note_on_c, 0, 60, 110
3, 52540, Note_on_c, 0, 60, 0
3, 52560, Note_on_c, 0, 53, 110
3, 53020, Note_on_c, 0, 53, 0
3, 53040, Note_on_c, 0, 53, 110
3, 53500, Note_on_c, 0, 53, 0
3, 53520, Note_on_c, 0, 57, 110
3, 53980, Note_on_c, 0, 57, 0
3, 54000, Note_on_c, 0, 57, 110
3, 54460, Note_on_c, 0, 57, 0
3, 54480, Note_on_c, 0, 55, 110
3, 54940, Note_on_c, 0, 55, 0
3, 54960, Note_on_c, 0, 55, 110
3, 55420, Note_on_c, 0, 55, 0
3, 55440, Note_on_c, 0, 60, 110
3, 55900, Note_on_c, 0, 60, 0
3, 55920, Note_on_c, 0, 60, 110
3, 56380, Note_on_c, 0, 60, 0
3, 56400, Note_on_c, 0, 53, 110
3, 56860, Note_on_c, 0, 53, 0
3, 56880, Note_on_c, 0, 53, 110
3, 57340, Note_on_c, 0, 53, 0
3, 57360, Note_on_c, 0, 57, 110
3, 57820, Note_on_c, 0, 57, 0
3, 57840, Note_on_c, 0, 57, 110
3, 58300, Note_on_c, 0, 57, 0
3, 58320, Note_on_c, 0, 55, 110
3, 58780, Note_on_c, 0, 55, 0
3, 58800, Note_on_c, 0, 55, 110
3, 59260, Note_on_c, 0, 55, 0
3, 93840, Note_on_c, 0, 72, 110
3, 94300, Note_on_c, 0, 72, 0
3, 94320, Note_on_c, 0, 72, 110
3, 94780, Note_on_c, 0, 72, 0
3, 94800, Note_on_c, 0, 65, 110
3, 95260, Note_on_c, 0, 65, 0
3, 95280, Note_on_c, 0, 65, 110
3, 95740, Note_on_c, 0, 65, 0
3, 95760, Note_on_c, 0, 69, 110
3, 96220, Note_on_c, 0, 69, 0
3, 96240, Note_on_c, 0, 69, 110
3, 96700, Note_on_c, 0, 69, 0
3, 96720, Note_on_c, 0, 67, 110
3, 97180, Note_on_c, 0, 67, 0
3, 97200, Note_on_c, 0, 67, 110
3, 97660, Note_on_c, 0, 67, 0
3, 97680, Note_on_c, 0, 72, 110
3, 98140, Note_on_c, 0, 72, 0
3, 98160, Note_on_c, 0, 72, 110
3, 98620, Note_on_c, 0, 72, 0
3, 98640, Note_on_c, 0, 65, 110
3, 99100, Note_on_c, 0, 65, 0
3, 99120, Note_on_c, 0, 65, 110
3, 99580, Note_on_c, 0, 65, 0
3, 99600, Note_on_c, 0, 69, 110
3, 100060, Note_on_c, 0, 69, 0
3, 100080, Note_on_c, 0, 69, 110
3, 100540, Note_on_c, 0, 69, 0
3, 100560, Note_on_c, 0, 67, 110
3, 101020, Note_on_c, 0, 67, 0
3, 101040, Note_on_c, 0, 67, 110
3, 101500, Note_on_c, 0, 67, 0
3, 101520, Note_on_c, 0, 72, 110
3, 101980, Note_on_c, 0, 72, 0
3, 102000, Note_on_c, 0, 72, 110
3, 102460, Note_on_c, 0, 72, 0
3, 102480, Note_on_c, 0, 65, 110
3, 102940, Note_on_c, 0, 65, 0
3, 102960, Note_on_c, 0, 65, 110
3, 103420, Note_on_c, 0, 65, 0
3, 103440, Note_on_c, 0, 69, 110
3, 103900, Note_on_c, 0, 69, 0
3, 103920, Note_on_c, 0, 69, 110
3, 104380, Note_on_c, 0, 69, 0
3, 104400, Note_on_c, 0, 67, 110
3, 104860, Note_on_c, 0, 67, 0
3, 104880, Note_on_c, 0, 67, 110
3, 105340, Note_on_c, 0, 67, 0
3, 105340, End_track
4, 0, Start_track
4, 0, Program_c, 1, 0
4, 0, Control_c, 1, 7, 65
4, 1920, Note_on_c, 1, 84, 110
4, 1920, Note_on_c, 1, 79, 110
4, 1920, Note_on_c, 1, 76, 110
4, 2140, Note_on_c, 1, 84, 0
4, 2140, Note_on_c, 1, 79, 0
4, 2140, Note_on_c, 1, 76, 0
4, 2400, Note_on_c, 1, 84, 110
4, 2400, Note_on_c, 1, 79, 110
4, 2400, Note_on_c, 1, 76, 110
4, 2620, Note_on_c, 1, 84, 0
4, 2620, Note_on_c, 1, 79, 0
4, 2620, Note_on_c, 1, 76, 0
4, 2880, Note_on_c, 1, 77, 110
4, 2880, Note_on_c, 1, 81, 110
4, 2880, Note_on_c, 1, 72, 110
4, 3100, Note_on_c, 1, 77, 0
4, 3100, Note_on_c, 1, 81, 0
4, 3100, Note_on_c, 1, 72, 0
4, 3360, Note_on_c, 1, 77, 110
4, 3360, Note_on_c, 1, 81, 110
4, 3360, Note_on_c, 1, 72, 110
4, 3580, Note_on_c, 1, 77, 0
4, 3580, Note_on_c, 1, 81, 0
4, 3580, Note_on_c, 1, 72, 0
4, 3840, Note_on_c, 1, 76, 110
4, 3840, Note_on_c, 1, 81, 110
4, 3840, Note_on_c, 1, 72, 110
4, 4060, Note_on_c, 1, 76, 0
4, 4060, Note_on_c, 1, 81, 0
4, 4060, Note_on_c, 1, 72, 0
4, 4320, Note_on_c, 1, 76, 110
4, 4320, Note_on_c, 1, 81, 110
4, 4320, Note_on_c, 1, 72, 110
4, 4540, Note_on_c, 1, 76, 0
4, 4540, Note_on_c, 1, 81, 0
4, 4540, Note_on_c, 1, 72, 0
4, 4800, Note_on_c, 1, 79, 110
4, 4800, Note_on_c, 1, 74, 110
4, 4800, Note_on_c, 1, 71, 110
4, 5020, Note_on_c, 1, 79, 0
4, 5020, Note_on_c, 1, 74, 0
4, 5020, Note_on_c, 1, 71, 0
4, 5280, Note_on_c, 1, 79, 110
4, 5280, Note_on_c, 1, 74, 110
4, 5280, Note_on_c, 1, 71, 110
4, 5500, Note_on_c, 1, 79, 0
4, 5500, Note_on_c, 1, 74, 0
4, 5500, Note_on_c, 1, 71, 0
4, 5760, Note_on_c, 1, 76, 110
4, 5760, Note_on_c, 1, 79, 110
4, 5760, Note_on_c, 1, 84, 110
4, 5980, Note_on_c, 1, 76, 0
4, 5980, Note_on_c, 1, 79, 0
4, 5980, Note_on_c, 1, 84, 0
4, 6240, Note_on_c, 1, 76, 110
4, 6240, Note_on_c, 1, 79, 110
4, 6240, Note_on_c, 1, 84, 110
4, 6460, Note_on_c, 1, 76, 0
4, 6460, Note_on_c, 1, 79, 0
4, 6460, Note_on_c, 1, 84, 0
4, 6720, Note_on_c, 1, 81, 110
4, 6720, Note_on_c, 1, 77, 110
4, 6720, Note_on_c, 1, 72, 110
4, 6940, Note_on_c, 1, 81, 0
4, 6940, Note_on_c, 1, 77, 0
4, 6940, Note_on_c, 1, 72, 0
4, 7200, Note_on_c, 1, 81, 110
4, 7200, Note_on_c, 1, 77, 110
4, 7200, Note_on_c, 1, 72, 110
4, 7420, Note_on_c, 1, 81, 0
4, 7420, Note_on_c, 1, 77, 0
4, 7420, Note_on_c, 1, 72, 0
4, 7680, Note_on_c, 1, 81, 110
4, 7680, Note_on_c, 1, 76, 110
4, 7680, Note_on_c, 1, 72, 110
4, 7900, Note_on_c, 1, 81, 0
4, 7900, Note_on_c, 1, 76, 0
4, 7900, Note_on_c, 1, 72, 0
4, 8160, Note_on_c, 1, 81, 110
4, 8160, Note_on_c, 1, 76, 110
4, 8160, Note_on_c, 1, 72, 110
4, 8380, Note_on_c, 1, 81, 0
4, 8380, Note_on_c, 1, 76, 0
4, 8380, Note_on_c, 1, 72, 0
4, 8640, Note_on_c, 1, 79, 110
4, 8640, Note_on_c, 1, 74, 110
4, 8640, Note_on_c, 1, 71, 110
4, 8860, Note_on_c, 1, 79, 0
4, 8860, Note_on_c, 1, 74, 0
4, 8860, Note_on_c, 1, 71, 0
4, 9120, Note_on_c, 1, 71, 110
4, 9120, Note_on_c, 1, 74, 110
4, 9120, Note_on_c, 1, 79, 110
4, 9340, Note_on_c, 1, 71, 0
4, 9340, Note_on_c, 1, 74, 0
4, 9340, Note_on_c, 1, 79, 0
4, 9600, Note_on_c, 1, 76, 110
4, 9600, Note_on_c, 1, 79, 110
4, 9600, Note_on_c, 1, 84, 110
4, 9820, Note_on_c, 1, 76, 0
4, 9820, Note_on_c, 1, 79, 0
4, 9820, Note_on_c, 1, 84, 0
4, 10080, Note_on_c, 1, 76, 110
4, 10080, Note_on_c, 1, 79, 110
4, 10080, Note_on_c, 1, 84, 110
4, 10300, Note_on_c, 1, 76, 0
4, 10300, Note_on_c, 1, 79, 0
4, 10300, Note_on_c, 1, 84, 0
4, 10560, Note_on_c, 1, 81, 110
4, 10560, Note_on_c, 1, 77, 110
4, 10560, Note_on_c, 1, 72, 110
4, 10780, Note_on_c, 1, 81, 0
4, 10780, Note_on_c, 1, 77, 0
4, 10780, Note_on_c, 1, 72, 0
4, 11040, Note_on_c, 1, 81, 110
4, 11040, Note_on_c, 1, 77, 110
4, 11040, Note_on_c, 1, 72, 110
4, 11260, Note_on_c, 1, 81, 0
4, 11260, Note_on_c, 1, 77, 0
4, 11260, Note_on_c, 1, 72, 0
4, 11520, Note_on_c, 1, 81, 110
4, 11520, Note_on_c, 1, 76, 110
4, 11520, Note_on_c, 1, 72, 110
4, 11740, Note_on_c, 1, 81, 0
4, 11740, Note_on_c, 1, 76, 0
4, 11740, Note_on_c, 1, 72, 0
4, 12000, Note_on_c, 1, 81, 110
4, 12000, Note_on_c, 1, 76, 110
4, 12000, Note_on_c, 1, 72, 110
4, 12220, Note_on_c, 1, 81, 0
4, 12220, Note_on_c, 1, 76, 0
4, 12220, Note_on_c, 1, 72, 0
4, 12480, Note_on_c, 1, 79, 110
4, 12480, Note_on_c, 1, 74, 110
4, 12480, Note_on_c, 1, 71, 110
4, 12700, Note_on_c, 1, 79, 0
4, 12700, Note_on_c, 1, 74, 0
4, 12700, Note_on_c, 1, 71, 0
4, 12960, Note_on_c, 1, 71, 110
4, 12960, Note_on_c, 1, 74, 110
4, 12960, Note_on_c, 1, 79, 110
4, 13180, Note_on_c, 1, 71, 0
4, 13180, Note_on_c, 1, 74, 0
4, 13180, Note_on_c, 1, 79, 0
4, 48000, Note_on_c, 1, 76, 110
4, 48000, Note_on_c, 1, 79, 110
4, 48000, Note_on_c, 1, 84, 110
4, 48220, Note_on_c, 1, 76, 0
4, 48220, Note_on_c, 1, 79, 0
4, 48220, Note_on_c, 1, 84, 0
4, 48480, Note_on_c, 1, 76, 110
4, 48480, Note_on_c, 1, 79, 110
4, 48480, Note_on_c, 1, 84, 110
4, 48700, Note_on_c, 1, 76, 0
4, 48700, Note_on_c, 1, 79, 0
4, 48700, Note_on_c, 1, 84, 0
4, 48960, Note_on_c, 1, 72, 110
4, 48960, Note_on_c, 1, 77, 110
4, 48960, Note_on_c, 1, 81, 110
4, 49180, Note_on_c, 1, 72, 0
4, 49180, Note_on_c, 1, 77, 0
4, 49180, Note_on_c, 1, 81, 0
4, 49440, Note_on_c, 1, 72, 110
4, 49440, Note_on_c, 1, 77, 110
4, 49440, Note_on_c, 1, 81, 110
4, 49660, Note_on_c, 1, 72, 0
4, 49660, Note_on_c, 1, 77, 0
4, 49660, Note_on_c, 1, 81, 0
4, 49920, Note_on_c, 1, 72, 110
4, 49920, Note_on_c, 1, 76, 110
4, 49920, Note_on_c, 1, 81, 110
4, 50140, Note_on_c, 1, 72, 0
4, 50140, Note_on_c, 1, 76, 0
4, 50140, Note_on_c, 1, 81, 0
4, 50400, Note_on_c, 1, 72, 110
4, 50400, Note_on_c, 1, 76, 110
4, 50400, Note_on_c, 1, 81, 110
4, 50620, Note_on_c, 1, 72, 0
4, 50620, Note_on_c, 1, 76, 0
4, 50620, Note_on_c, 1, 81, 0
4, 50880, Note_on_c, 1, 71, 110
4, 50880, Note_on_c, 1, 79, 110
4, 50880, Note_on_c, 1, 74, 110
4, 51100, Note_on_c, 1, 71, 0
4, 51100, Note_on_c, 1, 79, 0
4, 51100, Note_on_c, 1, 74, 0
4, 51360, Note_on_c, 1, 71, 110
4, 51360, Note_on_c, 1, 79, 110
4, 51360, Note_on_c, 1, 74, 110
4, 51580, Note_on_c, 1, 71, 0
4, 51580, Note_on_c, 1, 79, 0
4, 51580, Note_on_c, 1, 74, 0
4, 51840, Note_on_c, 1, 76, 110
4, 51840, Note_on_c, 1, 79, 110
4, 51840, Note_on_c, 1, 84, 110
4, 52060, Note_on_c, 1, 76, 0
4, 52060, Note_on_c, 1, 79, 0
4, 52060, Note_on_c, 1, 84, 0
4, 52320, Note_on_c, 1, 76, 110
4, 52320, Note_on_c, 1, 79, 110
4, 52320, Note_on_c, 1, 84, 110
4, 52540, Note_on_c, 1, 76, 0
4, 52540, Note_on_c, 1, 79, 0
4, 52540, Note_on_c, 1, 84, 0
4, 52800, Note_on_c, 1, 81, 110
4, 52800, Note_on_c, 1, 77, 110
4, 52800, Note_on_c, 1, 72, 110
4, 53020, Note_on_c, 1, 81, 0
4, 53020, Note_on_c, 1, 77, 0
4, 53020, Note_on_c, 1, 72, 0
4, 53280, Note_on_c, 1, 81, 110
4, 53280, Note_on_c, 1, 77, 110
4, 53280, Note_on_c, 1, 72, 110
4, 53500, Note_on_c, 1, 81, 0
4, 53500, Note_on_c, 1, 77, 0
4, 53500, Note_on_c, 1, 72, 0
4, 53760, Note_on_c, 1, 81, 110
4, 53760, Note_on_c, 1, 76, 110
4, 53760, Note_on_c, 1, 72, 110
4, 53980, Note_on_c, 1, 81, 0
4, 53980, Note_on_c, 1, 76, 0
4, 53980, Note_on_c, 1, 72, 0
4, 54240, Note_on_c, 1, 81, 110
4, 54240, Note_on_c, 1, 76, 110
4, 54240, Note_on_c, 1, 72, 110
4, 54460, Note_on_c, 1, 81, 0
4, 54460, Note_on_c, 1, 76, 0
4, 54460, Note_on_c, 1, 72, 0
4, 54720, Note_on_c, 1, 79, 110
4, 54720, Note_on_c, 1, 74, 110
4, 54720, Note_on_c, 1, 71, 110
4, 54940, Note_on_c, 1, 79, 0
4, 54940, Note_on_c, 1, 74, 0
4, 54940, Note_on_c, 1, 71, 0
4, 55200, Note_on_c, 1, 71, 110
4, 55200, Note_on_c, 1, 74, 110
4, 55200, Note_on_c, 1, 79, 110
4, 55420, Note_on_c, 1, 71, 0
4, 55420, Note_on_c, 1, 74, 0
4, 55420, Note_on_c, 1, 79, 0
4, 55680, Note_on_c, 1, 76, 110
4, 55680, Note_on_c, 1, 79, 110
4, 55680, Note_on_c, 1, 84, 110
4, 55900, Note_on_c, 1, 76, 0
4, 55900, Note_on_c, 1, 79, 0
4, 55900, Note_on_c, 1, 84, 0
4, 56160, Note_on_c, 1, 76, 110
4, 56160, Note_on_c, 1, 79, 110
4, 56160, Note_on_c, 1, 84, 110
4, 56380, Note_on_c, 1, 76, 0
4, 56380, Note_on_c, 1, 79, 0
4, 56380, Note_on_c, 1, 84, 0
4, 56640, Note_on_c, 1, 81, 110
4, 56640, Note_on_c, 1, 77, 110
4, 56640, Note_on_c, 1, 72, 110
4, 56860, Note_on_c, 1, 81, 0
4, 56860, Note_on_c, 1, 77, 0
4, 56860, Note_on_c, 1, 72, 0
4, 57120, Note_on_c, 1, 81, 110
4, 57120, Note_on_c, 1, 77, 110
4, 57120, Note_on_c, 1, 72, 110
4, 57340, Note_on_c, 1, 81, 0
4, 57340, Note_on_c, 1, 77, 0
4, 57340, Note_on_c, 1, 72, 0
4, 57600, Note_on_c, 1, 81, 110
4, 57600, Note_on_c, 1, 76, 110
4, 57600, Note_on_c, 1, 72, 110
4, 57820, Note_on_c, 1, 81, 0
4, 57820, Note_on_c, 1, 76, 0
4, 57820, Note_on_c, 1, 72, 0
4, 58080, Note_on_c, 1, 81, 110
4, 58080, Note_on_c, 1, 76, 110
4, 58080, Note_on_c, 1, 72, 110
4, 58300, Note_on_c, 1, 81, 0
4, 58300, Note_on_c, 1, 76, 0
4, 58300, Note_on_c, 1, 72, 0
4, 58560, Note_on_c, 1, 79, 110
4, 58560, Note_on_c, 1, 74, 110
4, 58560, Note_on_c, 1, 71, 110
4, 58780, Note_on_c, 1, 79, 0
4, 58780, Note_on_c, 1, 74, 0
4, 58780, Note_on_c, 1, 71, 0
4, 59040, Note_on_c, 1, 71, 110
4, 59040, Note_on_c, 1, 74, 110
4, 59040, Note_on_c, 1, 79, 110
4, 59260, Note_on_c, 1, 71, 0
4, 59260, Note_on_c, 1, 74, 0
4, 59260, Note_on_c, 1, 79, 0
4, 94080, Note_on_c, 1, 76, 110
4, 94080, Note_on_c, 1, 79, 110
4, 94080, Note_on_c, 1, 84, 110
4, 94300, Note_on_c, 1, 76, 0
4, 94300, Note_on_c, 1, 79, 0
4, 94300, Note_on_c, 1, 84, 0
4, 94560, Note_on_c, 1, 76, 110
4, 94560, Note_on_c, 1, 79, 110
4, 94560, Note_on_c, 1, 84, 110
4, 94780, Note_on_c, 1, 76, 0
4, 94780, Note_on_c, 1, 79, 0
4, 94780, Note_on_c, 1, 84, 0
4, 95040, Note_on_c, 1, 72, 110
4, 95040, Note_on_c, 1, 77, 110
4, 95040, Note_on_c, 1, 81, 110
4, 95260, Note_on_c, 1, 72, 0
4, 95260, Note_on_c, 1, 77, 0
4, 95260, Note_on_c, 1, 81, 0
4, 95520, Note_on_c, 1, 72, 110
4, 95520, Note_on_c, 1, 77, 110
4, 95520, Note_on_c, 1, 81, 110
4, 95740, Note_on_c, 1, 72, 0
4, 95740, Note_on_c, 1, 77, 0
4, 95740, Note_on_c, 1, 81, 0
4, 96000, Note_on_c, 1, 72, 110
4, 96000, Note_on_c, 1, 76, 110
4, 96000, Note_on_c, 1, 81, 110
4, 96220, Note_on_c, 1, 72, 0
4, 96220, Note_on_c, 1, 76, 0
4, 96220, Note_on_c, 1, 81, 0
4, 96480, Note_on_c, 1, 72, 110
4, 96480, Note_on_c, 1, 76, 110
4, 96480, Note_on_c, 1, 81, 110
4, 96700, Note_on_c, 1, 72, 0
4, 96700, Note_on_c, 1, 76, 0
4, 96700, Note_on_c, 1, 81, 0
4, 96960, Note_on_c, 1, 71, 110
4, 96960, Note_on_c, 1, 79, 110
4, 96960, Note_on_c, 1, 74, 110
4, 97180, Note_on_c, 1, 71, 0
4, 97180, Note_on_c, 1, 79, 0
4, 97180, Note_on_c, 1, 74, 0
4, 97440, Note_on_c, 1, 71, 110
4, 97440, Note_on_c, 1, 79, 110
4, 97440, Note_on_c, 1, 74, 110
4, 97660, Note_on_c, 1, 71, 0
4, 97660, Note_on_c, 1, 79, 0
4, 97660, Note_on_c, 1, 74, 0
4, 97920, Note_on_c, 1, 76, 110
4, 97920, Note_on_c, 1, 79, 110
4, 97920, Note_on_c, 1, 84, 110
4, 98140, Note_on_c, 1, 76, 0
4, 98140, Note_on_c, 1, 79, 0
4, 98140, Note_on_c, 1, 84, 0
4, 98400, Note_on_c, 1, 76, 110
4, 98400, Note_on_c, 1, 79, 110
4, 98400, Note_on_c, 1, 84, 110
4, 98620, Note_on_c, 1, 76, 0
4, 98620, Note_on_c, 1, 79, 0
4, 98620, Note_on_c, 1, 84, 0
4, 98880, Note_on_c, 1, 81, 110
4, 98880, Note_on_c, 1, 77, 110
4, 98880, Note_on_c, 1, 72, 110
4, 99100, Note_on_c, 1, 81, 0
4, 99100, Note_on_c, 1, 77, 0
4, 99100, Note_on_c, 1, 72, 0
4, 99360, Note_on_c, 1, 81, 110
4, 99360, Note_on_c, 1, 77, 110
4, 99360, Note_on_c, 1, 72, 110
4, 99580, Note_on_c, 1, 81, 0
4, 99580, Note_on_c, 1, 77, 0
4, 99580, Note_on_c, 1, 72, 0
4, 99840, Note_on_c, 1, 81, 110
4, 99840, Note_on_c, 1, 76, 110
4, 99840, Note_on_c, 1, 72, 110
4, 100060, Note_on_c, 1, 81, 0
4, 100060, Note_on_c, 1, 76, 0
4, 100060, Note_on_c, 1, 72, 0
4, 100320, Note_on_c, 1, 81, 110
4, 100320, Note_on_c, 1, 76, 110
4, 100320, Note_on_c, 1, 72, 110
4, 100540, Note_on_c, 1, 81, 0
4, 100540, Note_on_c, 1, 76, 0
4, 100540, Note_on_c, 1, 72, 0
4, 100800, Note_on_c, 1, 79, 110
4, 100800, Note_on_c, 1, 74, 110
4, 100800, Note_on_c, 1, 71, 110
4, 101020, Note_on_c, 1, 79, 0
4, 101020, Note_on_c, 1, 74, 0
4, 101020, Note_on_c, 1, 71, 0
4, 101280, Note_on_c, 1, 71, 110
4, 101280, Note_on_c, 1, 74, 110
4, 101280, Note_on_c, 1, 79, 110
4, 101500, Note_on_c, 1, 71, 0
4, 101500, Note_on_c, 1, 74, 0
4, 101500, Note_on_c, 1, 79, 0
4, 101760, Note_on_c, 1, 76, 110
4, 101760, Note_on_c, 1, 79, 110
4, 101760, Note_on_c, 1, 84, 110
4, 101980, Note_on_c, 1, 76, 0
4, 101980, Note_on_c, 1, 79, 0
4, 101980, Note_on_c, 1, 84, 0
4, 102240, Note_on_c, 1, 76, 110
4, 102240, Note_on_c, 1, 79, 110
4, 102240, Note_on_c, 1, 84, 110
4, 102460, Note_on_c, 1, 76, 0
4, 102460, Note_on_c, 1, 79, 0
4, 102460, Note_on_c, 1, 84, 0
4, 102720, Note_on_c, 1, 81, 110
4, 102720, Note_on_c, 1, 77, 110
4, 102720, Note_on_c, 1, 72, 110
4, 102940, Note_on_c, 1, 81, 0
4, 102940, Note_on_c, 1, 77, 0
4, 102940, Note_on_c, 1, 72, 0
4, 103200, Note_on_c, 1, 81, 110
4, 103200, Note_on_c, 1, 77, 110
4, 103200, Note_on_c, 1, 72, 110
4, 103420, Note_on_c, 1, 81, 0
4, 103420, Note_on_c, 1, 77, 0
4, 103420, Note_on_c, 1, 72, 0
4, 103680, Note_on_c, 1, 81, 110
4, 103680, Note_on_c, 1, 76, 110
4, 103680, Note_on_c, 1, 72, 110
4, 103900, Note_on_c, 1, 81, 0
4, 103900, Note_on_c, 1, 76, 0
4, 103900, Note_on_c, 1, 72, 0
4, 104160, Note_on_c, 1, 81, 110
4, 104160, Note_on_c, 1, 76, 110
4, 104160, Note_on_c, 1, 72, 110
4, 104380, Note_on_c, 1, 81, 0
4, 104380, Note_on_c, 1, 76, 0
4, 104380, Note_on_c, 1, 72, 0
4, 104640, Note_on_c, 1, 79, 110
4, 104640, Note_on_c, 1, 74, 110
4, 104640, Note_on_c, 1, 71, 110
4, 104860, Note_on_c, 1, 79, 0
4, 104860, Note_on_c, 1, 74, 0
4, 104860, Note_on_c, 1, 71, 0
4, 105120, Note_on_c, 1, 71, 110
4, 105120, Note_on_c, 1, 74, 110
4, 105120, Note_on_c, 1, 79, 110
4, 105340, Note_on_c, 1, 71, 0
4, 105340, Note_on_c, 1, 74, 0
4, 105340, Note_on_c, 1, 79, 0
4, 105340, End_track
5, 0, Start_track
5, 0, Program_c, 2, 54
5, 0, Control_c, 2, 7, 55
5, 9360, Note_on_c, 2, 48, 110
5, 9360, Note_on_c, 2, 52, 110
5, 9360, Note_on_c, 2, 60, 110
5, 9360, Note_on_c, 2, 64, 110
5, 10300, Note_on_c, 2, 48, 0
5, 10300, Note_on_c, 2, 52, 0
5, 10300, Note_on_c, 2, 60, 0
5, 10300, Note_on_c, 2, 64, 0
5, 10320, Note_on_c, 2, 53, 110
5, 10320, Note_on_c, 2, 65, 110
5, 11260, Note_on_c, 2, 53, 0
5, 11260, Note_on_c, 2, 65, 0
5, 11280, Note_on_c, 2, 52, 110
5, 11280, Note_on_c, 2, 64, 110
5, 12220, Note_on_c, 2, 52, 0
5, 12220, Note_on_c, 2, 64, 0
5, 12240, Note_on_c, 2, 50, 110
5, 12240, Note_on_c, 2, 62, 110
5, 13180, Note_on_c, 2, 50, 0
5, 13180, Note_on_c, 2, 62, 0
5, 13200, Note_on_c, 2, 48, 110
5, 13200, Note_on_c, 2, 52, 110
5, 13200, Note_on_c, 2, 60, 110
5, 13200, Note_on_c, 2, 64, 110
5, 14140, Note_on_c, 2, 48, 0
5, 14140, Note_on_c, 2, 52, 0
5, 14140, Note_on_c, 2, 60, 0
5, 14140, Note_on_c, 2, 64, 0
5, 14160, Note_on_c, 2, 53, 110
5, 14160, Note_on_c, 2, 65, 110
5, 15100, Note_on_c, 2, 53, 0
5, 15100, Note_on_c, 2, 65, 0
5, 15120, Note_on_c, 2, 52, 110
5, 15120, Note_on_c, 2, 64, 110
5, 16060, Note_on_c, 2, 52, 0
5, 16060, Note_on_c, 2, 64, 0
5, 16080, Note_on_c, 2, 50, 110
5, 16080, Note_on_c, 2, 62, 110
5, 17020, Note_on_c, 2, 50, 0
5, 17020, Note_on_c, 2, 62, 0
5, 32400, Note_on_c, 2, 48, 110
5, 32400, Note_on_c, 2, 52, 110
5, 32400, Note_on_c, 2, 60, 110
5, 32400, Note_on_c, 2, 64, 110
5, 33340, Note_on_c, 2, 48, 0
5, 33340, Note_on_c, 2, 52, 0
5, 33340, Note_on_c, 2, 60, 0
5, 33340, Note_on_c, 2, 64, 0
5, 33360, Note_on_c, 2, 53, 110
5, 33360, Note_on_c, 2, 65, 110
5, 34300, Note_on_c, 2, 53, 0
5, 34300, Note_on_c, 2, 65, 0
5, 34320, Note_on_c, 2, 52, 110
5, 34320, Note_on_c, 2, 64, 110
5, 35260, Note_on_c, 2, 52, 0
5, 35260, Note_on_c, 2, 64, 0
5, 35280, Note_on_c, 2, 50, 110
5, 35280, Note_on_c, 2, 62, 110
5, 36220, Note_on_c, 2, 50, 0
5, 36220, Note_on_c, 2, 62, 0
5, 36240, Note_on_c, 2, 48, 110
5, 36240, Note_on_c, 2, 52, 110
5, 36240, Note_on_c, 2, 60, 110
5, 36240, Note_on_c, 2, 64, 110
5, 37180, Note_on_c, 2, 48, 0
5, 37180, Note_on_c, 2, 52, 0
5, 37180, Note_on_c, 2, 60, 0
5, 37180, Note_on_c, 2, 64, 0
5, 37200, Note_on_c, 2, 53, 110
5, 37200, Note_on_c, 2, 65, 110
5, 38140, Note_on_c, 2, 53, 0
5, 38140, Note_on_c, 2, 65, 0
5, 39120, Note_on_c, 2, 50, 110
5, 39120, Note_on_c, 2, 62, 110
5, 40060, Note_on_c, 2, 50, 0
5, 40060, Note_on_c, 2, 62, 0
5, 40080, Note_on_c, 2, 48, 110
5, 40080, Note_on_c, 2, 52, 110
5, 40080, Note_on_c, 2, 60, 110
5, 40080, Note_on_c, 2, 64, 110
5, 41020, Note_on_c, 2, 48, 0
5, 41020, Note_on_c, 2, 52, 0
5, 41020, Note_on_c, 2, 60, 0
5, 41020, Note_on_c, 2, 64, 0
5, 41040, Note_on_c, 2, 53, 110
5, 41040, Note_on_c, 2, 65, 110
5, 41980, Note_on_c, 2, 53, 0
5, 41980, Note_on_c, 2, 65, 0
5, 42000, Note_on_c, 2, 52, 110
5, 42000, Note_on_c, 2, 64, 110
5, 42940, Note_on_c, 2, 52, 0
5, 42940, Note_on_c, 2, 64, 0
5, 42960, Note_on_c, 2, 50, 110
5, 42960, Note_on_c, 2, 62, 110
5, 43900, Note_on_c, 2, 50, 0
5, 43900, Note_on_c, 2, 62, 0
5, 43920, Note_on_c, 2, 48, 110
5, 43920, Note_on_c, 2, 52, 110
5, 43920, Note_on_c, 2, 60, 110
5, 43920, Note_on_c, 2, 64, 110
5, 44860, Note_on_c, 2, 48, 0
5, 44860, Note_on_c, 2, 52, 0
5, 44860, Note_on_c, 2, 60, 0
5, 44860, Note_on_c, 2, 64, 0
5, 44880, Note_on_c, 2, 53, 110
5, 44880, Note_on_c, 2, 65, 110
5, 45820, Note_on_c, 2, 53, 0
5, 45820, Note_on_c, 2, 65, 0
5, 55440, Note_on_c, 2, 48, 110
5, 55440, Note_on_c, 2, 52, 110
5, 55440, Note_on_c, 2, 60, 110
5, 55440, Note_on_c, 2, 64, 110
5, 56380, Note_on_c, 2, 48, 0
5, 56380, Note_on_c, 2, 52, 0
5, 56380, Note_on_c, 2, 60, 0
5, 56380, Note_on_c, 2, 64, 0
5, 56400, Note_on_c, 2, 53, 110
5, 56400, Note_on_c, 2, 65, 110
5, 57340, Note_on_c, 2, 53, 0
5, 57340, Note_on_c, 2, 65, 0
5, 57360, Note_on_c, 2, 52, 110
5, 57360, Note_on_c, 2, 64, 110
5, 58300, Note_on_c, 2, 52, 0
5, 58300, Note_on_c, 2, 64, 0
5, 58320, Note_on_c, 2, 50, 110
5, 58320, Note_on_c, 2, 62, 110
5, 59260, Note_on_c, 2, 50, 0
5, 59260, Note_on_c, 2, 62, 0
5, 59280, Note_on_c, 2, 48, 110
5, 59280, Note_on_c, 2, 52, 110
5, 59280, Note_on_c, 2, 60, 110
5, 59280, Note_on_c, 2, 64, 110
5, 60220, Note_on_c, 2, 48, 0
5, 60220, Note_on_c, 2, 52, 0
5, 60220, Note_on_c, 2, 60, 0
5, 60220, Note_on_c, 2, 64, 0
5, 60240, Note_on_c, 2, 53, 110
5, 60240, Note_on_c, 2, 65, 110
5, 61180, Note_on_c, 2, 53, 0
5, 61180, Note_on_c, 2, 65, 0
5, 61200, Note_on_c, 2, 52, 110
5, 61200, Note_on_c, 2, 64, 110
5, 62140, Note_on_c, 2, 52, 0
5, 62140, Note_on_c, 2, 64, 0
5, 62160, Note_on_c, 2, 50, 110
5, 62160, Note_on_c, 2, 62, 110
5, 63100, Note_on_c, 2, 50, 0
5, 63100, Note_on_c, 2, 62, 0
5, 78480, Note_on_c, 2, 48, 110
5, 78480, Note_on_c, 2, 52, 110
5, 78480, Note_on_c, 2, 60, 110
5, 78480, Note_on_c, 2, 64, 110
5, 79420, Note_on_c, 2, 48, 0
5, 79420, Note_on_c, 2, 52, 0
5, 79420, Note_on_c, 2, 60, 0
5, 79420, Note_on_c, 2, 64, 0
5, 79440, Note_on_c, 2, 53, 110
5, 79440, Note_on_c, 2, 65, 110
5, 80380, Note_on_c, 2, 53, 0
5, 80380, Note_on_c, 2, 65, 0
5, 80400, Note_on_c, 2, 52, 110
5, 80400, Note_on_c, 2, 64, 110
5, 81340, Note_on_c, 2, 52, 0
5, 81340, Note_on_c, 2, 64, 0
5, 81360, Note_on_c, 2, 50, 110
5, 81360, Note_on_c, 2, 62, 110
5, 82300, Note_on_c, 2, 50, 0
5, 82300, Note_on_c, 2, 62, 0
5, 82320, Note_on_c, 2, 48, 110
5, 82320, Note_on_c, 2, 52, 110
5, 82320, Note_on_c, 2, 60, 110
5, 82320, Note_on_c, 2, 64, 110
5, 83260, Note_on_c, 2, 48, 0
5, 83260, Note_on_c, 2, 52, 0
5, 83260, Note_on_c, 2, 60, 0
5, 83260, Note_on_c, 2, 64, 0
5, 83280, Note_on_c, 2, 53, 110
5, 83280, Note_on_c, 2, 65, 110
5, 84220, Note_on_c, 2, 53, 0
5, 84220, Note_on_c, 2, 65, 0
5, 85200, Note_on_c, 2, 50, 110
5, 85200, Note_on_c, 2, 62, 110
5, 86140, Note_on_c, 2, 50, 0
5, 86140, Note_on_c, 2, 62, 0
5, 86160, Note_on_c, 2, 48, 110
5, 86160, Note_on_c, 2, 52, 110
5, 86160, Note_on_c, 2, 60, 110
5, 86160, Note_on_c, 2, 64, 110
5, 87100, Note_on_c, 2, 48, 0
5, 87100, Note_on_c, 2, 52, 0
5, 87100, Note_on_c, 2, 60, 0
5, 87100, Note_on_c, 2, 64, 0
5, 87120, Note_on_c, 2, 53, 110
5, 87120, Note_on_c, 2, 65, 110
5, 88060, Note_on_c, 2, 53, 0
5, 88060, Note_on_c, 2, 65, 0
5, 88080, Note_on_c, 2, 52, 110
5, 88080, Note_on_c, 2, 64, 110
5, 89020, Note_on_c, 2, 52, 0
5, 89020, Note_on_c, 2, 64, 0
5, 89040, Note_on_c, 2, 50, 110
5, 89040, Note_on_c, 2, 62, 110
5, 89980, Note_on_c, 2, 50, 0
5, 89980, Note_on_c, 2, 62, 0
5, 90000, Note_on_c, 2, 48, 110
5, 90000, Note_on_c, 2, 52, 110
5, 90000, Note_on_c, 2, 60, 110
5, 90000, Note_on_c, 2, 64, 110
5, 90940, Note_on_c, 2, 48, 0
5, 90940, Note_on_c, 2, 52, 0
5, 90940, Note_on_c, 2, 60, 0
5, 90940, Note_on_c, 2, 64, 0
5, 90960, Note_on_c, 2, 53, 110
5, 90960, Note_on_c, 2, 65, 110
5, 91900, Note_on_c, 2, 53, 0
5, 91900, Note_on_c, 2, 65, 0
5, 101520, Note_on_c, 2, 48, 110
5, 101520, Note_on_c, 2, 52, 110
5, 101520, Note_on_c, 2, 60, 110
5, 101520, Note_on_c, 2, 64, 110
5, 102460, Note_on_c, 2, 48, 0
5, 102460, Note_on_c, 2, 52, 0
5, 102460, Note_on_c, 2, 60, 0
5, 102460, Note_on_c, 2, 64, 0
5, 102480, Note_on_c, 2, 53, 110
5, 102480, Note_on_c, 2, 65, 110
5, 103420, Note_on_c, 2, 53, 0
5, 103420, Note_on_c, 2, 65, 0
5, 103440, Note_on_c, 2, 52, 110
5, 103440, Note_on_c, 2, 64, 110
5, 104380, Note_on_c, 2, 52, 0
5, 104380, Note_on_c, 2, 64, 0
5, 104400, Note_on_c, 2, 50, 110
5, 104400, Note_on_c, 2, 62, 110
5, 105340, Note_on_c, 2, 50, 0
5, 105340, Note_on_c, 2, 62, 0
5, 105360, Note_on_c, 2, 48, 110
5, 105360, Note_on_c, 2, 52, 110
5, 105360, Note_on_c, 2, 60, 110
5, 105360, Note_on_c, 2, 64, 110
5, 106300, Note_on_c, 2, 48, 0
5, 106300, Note_on_c, 2, 52, 0
5, 106300, Note_on_c, 2, 60, 0
5, 106300, Note_on_c, 2, 64, 0
5, 106320, Note_on_c, 2, 53, 110
5, 106320, Note_on_c, 2, 65, 110
5, 107260, Note_on_c, 2, 53, 0
5, 107260, Note_on_c, 2, 65, 0
5, 107280, Note_on_c, 2, 52, 110
5, 107280, Note_on_c, 2, 64, 110
5, 108220, Note_on_c, 2, 52, 0
5, 108220, Note_on_c, 2, 64, 0
5, 108240, Note_on_c, 2, 50, 110
5, 108240, Note_on_c, 2, 62, 110
5, 109180, Note_on_c, 2, 50, 0
5, 109180, Note_on_c, 2, 62, 0
5, 128400, Note_on_c, 2, 48, 110
5, 128400, Note_on_c, 2, 52, 110
5, 128400, Note_on_c, 2, 60, 110
5, 128400, Note_on_c, 2, 64, 110
5, 129340, Note_on_c, 2, 48, 0
5, 129340, Note_on_c, 2, 52, 0
5, 129340, Note_on_c, 2, 60, 0
5, 129340, Note_on_c, 2, 64, 0
5, 129360, Note_on_c, 2, 53, 110
5, 129360, Note_on_c, 2, 65, 110
5, 130300, Note_on_c, 2, 53, 0
5, 130300, Note_on_c, 2, 65, 0
5, 130320, Note_on_c, 2, 52, 110
5, 130320, Note_on_c, 2, 64, 110
5, 131260, Note_on_c, 2, 52, 0
5, 131260, Note_on_c, 2, 64, 0
5, 131280, Note_on_c, 2, 50, 110
5, 131280, Note_on_c, 2, 62, 110
5, 132220, Note_on_c, 2, 50, 0
5, 132220, Note_on_c, 2, 62, 0
5, 132240, Note_on_c, 2, 48, 110
5, 132240, Note_on_c, 2, 52, 110
5, 132240, Note_on_c, 2, 60, 110
5, 132240, Note_on_c, 2, 64, 110
5, 133180, Note_on_c, 2, 48, 0
5, 133180, Note_on_c, 2, 52, 0
5, 133180, Note_on_c, 2, 60, 0
5, 133180, Note_on_c, 2, 64, 0
5, 133200, Note_on_c, 2, 53, 110
5, 133200, Note_on_c, 2, 65, 110
5, 134140, Note_on_c, 2, 53, 0
5, 134140, Note_on_c, 2, 65, 0
5, 134160, Note_on_c, 2, 52, 110
5, 134160, Note_on_c, 2, 64, 110
5, 135100, Note_on_c, 2, 52, 0
5, 135100, Note_on_c, 2, 64, 0
5, 135120, Note_on_c, 2, 50, 110
5, 135120, Note_on_c, 2, 62, 110
5, 136060, Note_on_c, 2, 50, 0
5, 136060, Note_on_c, 2, 62, 0
5, 136060, End_track
6, 0, Start_track
6, 0, Program_c, 3, 54
6, 0, Control_c, 3, 7, 56
6, 17040, Note_on_c, 3, 48, 110
6, 17040, Note_on_c, 3, 60, 110
6, 17980, Note_on_c, 3, 48, 0
6, 17980, Note_on_c, 3, 60, 0
6, 18000, Note_on_c, 3, 53, 110
6, 18000, Note_on_c, 3, 65, 110
6, 18940, Note_on_c, 3, 53, 0
6, 18940, Note_on_c, 3, 65, 0
6, 18960, Note_on_c, 3, 57, 110
6, 18960, Note_on_c, 3, 69, 110
6, 19900, Note_on_c, 3, 57, 0
6, 19900, Note_on_c, 3, 69, 0
6, 19920, Note_on_c, 3, 55, 110
6, 19920, Note_on_c, 3, 67, 110
6, 20860, Note_on_c, 3, 55, 0
6, 20860, Note_on_c, 3, 67, 0
6, 20880, Note_on_c, 3, 48, 110
6, 20880, Note_on_c, 3, 60, 110
6, 21820, Note_on_c, 3, 48, 0
6, 21820, Note_on_c, 3, 60, 0
6, 21840, Note_on_c, 3, 53, 110
6, 21840, Note_on_c, 3, 65, 110
6, 22780, Note_on_c, 3, 53, 0
6, 22780, Note_on_c, 3, 65, 0
6, 22800, Note_on_c, 3, 57, 110
6, 22800, Note_on_c, 3, 69, 110
6, 23740, Note_on_c, 3, 57, 0
6, 23740, Note_on_c, 3, 69, 0
6, 23760, Note_on_c, 3, 55, 110
6, 23760, Note_on_c, 3, 67, 110
6, 24700, Note_on_c, 3, 55, 0
6, 24700, Note_on_c, 3, 67, 0
6, 24720, Note_on_c, 3, 48, 110
6, 24720, Note_on_c, 3, 60, 110
6, 25660, Note_on_c, 3, 48, 0
6, 25660, Note_on_c, 3, 60, 0
6, 25680, Note_on_c, 3, 53, 110
6, 25680, Note_on_c, 3, 65, 110
6, 26620, Note_on_c, 3, 53, 0
6, 26620, Note_on_c, 3, 65, 0
6, 26640, Note_on_c, 3, 57, 110
6, 26640, Note_on_c, 3, 69, 110
6, 27580, Note_on_c, 3, 57, 0
6, 27580, Note_on_c, 3, 69, 0
6, 27600, Note_on_c, 3, 55, 110
6, 27600, Note_on_c, 3, 67, 110
6, 28540, Note_on_c, 3, 55, 0
6, 28540, Note_on_c, 3, 67, 0
6, 28560, Note_on_c, 3, 48, 110
6, 28560, Note_on_c, 3, 60, 110
6, 29500, Note_on_c, 3, 48, 0
6, 29500, Note_on_c, 3, 60, 0
6, 29520, Note_on_c, 3, 53, 110
6, 29520, Note_on_c, 3, 65, 110
6, 30460, Note_on_c, 3, 53, 0
6, 30460, Note_on_c, 3, 65, 0
6, 30480, Note_on_c, 3, 57, 110
6, 30480, Note_on_c, 3, 69, 110
6, 31420, Note_on_c, 3, 57, 0
6, 31420, Note_on_c, 3, 69, 0
6, 31440, Note_on_c, 3, 55, 110
6, 31440, Note_on_c, 3, 67, 110
6, 32380, Note_on_c, 3, 55, 0
6, 32380, Note_on_c, 3, 67, 0
6, 63120, Note_on_c, 3, 60, 110
6, 63120, Note_on_c, 3, 48, 110
6, 64060, Note_on_c, 3, 60, 0
6, 64060, Note_on_c, 3, 48, 0
6, 64080, Note_on_c, 3, 65, 110
6, 64080, Note_on_c, 3, 53, 110
6, 65020, Note_on_c, 3, 65, 0
6, 65020, Note_on_c, 3, 53, 0
6, 65040, Note_on_c, 3, 69, 110
6, 65040, Note_on_c, 3, 57, 110
6, 65980, Note_on_c, 3, 69, 0
6, 65980, Note_on_c, 3, 57, 0
6, 66000, Note_on_c, 3, 67, 110
6, 66000, Note_on_c, 3, 55, 110
6, 66940, Note_on_c, 3, 67, 0
6, 66940, Note_on_c, 3, 55, 0
6, 66960, Note_on_c, 3, 60, 110
6, 66960, Note_on_c, 3, 48, 110
6, 67900, Note_on_c, 3, 60, 0
6, 67900, Note_on_c, 3, 48, 0
6, 67920, Note_on_c, 3, 65, 110
6, 67920, Note_on_c, 3, 53, 110
6, 68860, Note_on_c, 3, 65, 0
6, 68860, Note_on_c, 3, 53, 0
6, 68880, Note_on_c, 3, 69, 110
6, 68880, Note_on_c, 3, 57, 110
6, 69820, Note_on_c, 3, 69, 0
6, 69820, Note_on_c, 3, 57, 0
6, 69840, Note_on_c, 3, 67, 110
6, 69840, Note_on_c, 3, 55, 110
6, 70780, Note_on_c, 3, 67, 0
6, 70780, Note_on_c, 3, 55, 0
6, 70800, Note_on_c, 3, 60, 110
6, 70800, Note_on_c, 3, 48, 110
6, 71740, Note_on_c, 3, 60, 0
6, 71740, Note_on_c, 3, 48, 0
6, 71760, Note_on_c, 3, 65, 110
6, 71760, Note_on_c, 3, 53, 110
6, 72700, Note_on_c, 3, 65, 0
6, 72700, Note_on_c, 3, 53, 0
6, 72720, Note_on_c, 3, 69, 110
6, 72720, Note_on_c, 3, 57, 110
6, 73660, Note_on_c, 3, 69, 0
6, 73660, Note_on_c, 3, 57, 0
6, 73680, Note_on_c, 3, 67, 110
6, 73680, Note_on_c, 3, 55, 110
6, 74620, Note_on_c, 3, 67, 0
6, 74620, Note_on_c, 3, 55, 0
6, 74640, Note_on_c, 3, 60, 110
6, 74640, Note_on_c, 3, 48, 110
6, 75580, Note_on_c, 3, 60, 0
6, 75580, Note_on_c, 3, 48, 0
6, 75600, Note_on_c, 3, 65, 110
6, 75600, Note_on_c, 3, 53, 110
6, 76540, Note_on_c, 3, 65, 0
6, 76540, Note_on_c, 3, 53, 0
6, 76560, Note_on_c, 3, 69, 110
6, 76560, Note_on_c, 3, 57, 110
6, 77500, Note_on_c, 3, 69, 0
6, 77500, Note_on_c, 3, 57, 0
6, 77520, Note_on_c, 3, 67, 110
6, 77520, Note_on_c, 3, 55, 110
6, 78460, Note_on_c, 3, 67, 0
6, 78460, Note_on_c, 3, 55, 0
6, 109200, Note_on_c, 3, 48, 110
6, 109200, Note_on_c, 3, 60, 110
6, 110140, Note_on_c, 3, 48, 0
6, 110140, Note_on_c, 3, 60, 0
6, 110160, Note_on_c, 3, 53, 110
6, 110160, Note_on_c, 3, 65, 110
6, 111100, Note_on_c, 3, 53, 0
6, 111100, Note_on_c, 3, 65, 0
6, 111120, Note_on_c, 3, 57, 110
6, 111120, Note_on_c, 3, 69, 110
6, 112060, Note_on_c, 3, 57, 0
6, 112060, Note_on_c, 3, 69, 0
6, 112080, Note_on_c, 3, 55, 110
6, 112080, Note_on_c, 3, 67, 110
6, 113020, Note_on_c, 3, 55, 0
6, 113020, Note_on_c, 3, 67, 0
6, 113040, Note_on_c, 3, 48, 110
6, 113040, Note_on_c, 3, 60, 110
6, 113980, Note_on_c, 3, 48, 0
6, 113980, Note_on_c, 3, 60, 0
6, 114000, Note_on_c, 3, 53, 110
6, 114000, Note_on_c, 3, 65, 110
6, 114940, Note_on_c, 3, 53, 0
6, 114940, Note_on_c, 3, 65, 0
6, 114960, Note_on_c, 3, 57, 110
6, 114960, Note_on_c, 3, 69, 110
6, 115900, Note_on_c, 3, 57, 0
6, 115900, Note_on_c, 3, 69, 0
6, 115920, Note_on_c, 3, 71, 110
6, 115920, Note_on_c, 3, 59, 110
6, 116860, Note_on_c, 3, 71, 0
6, 116860, Note_on_c, 3, 59, 0
6, 116880, Note_on_c, 3, 48, 110
6, 116880, Note_on_c, 3, 60, 110
6, 117820, Note_on_c, 3, 48, 0
6, 117820, Note_on_c, 3, 60, 0
6, 117840, Note_on_c, 3, 53, 110
6, 117840, Note_on_c, 3, 65, 110
6, 118780, Note_on_c, 3, 53, 0
6, 118780, Note_on_c, 3, 65, 0
6, 118800, Note_on_c, 3, 57, 110
6, 118800, Note_on_c, 3, 69, 110
6, 119740, Note_on_c, 3, 57, 0
6, 119740, Note_on_c, 3, 69, 0
6, 119760, Note_on_c, 3, 55, 110
6, 119760, Note_on_c, 3, 67, 110
6, 120700, Note_on_c, 3, 55, 0
6, 120700, Note_on_c, 3, 67, 0
6, 120720, Note_on_c, 3, 64, 110
6, 120720, Note_on_c, 3, 52, 110
6, 120720, Note_on_c, 3, 60, 110
6, 120720, Note_on_c, 3, 48, 110
6, 121660, Note_on_c, 3, 64, 0
6, 121660, Note_on_c, 3, 52, 0
6, 121660, Note_on_c, 3, 60, 0
6, 121660, Note_on_c, 3, 48, 0
6, 121680, Note_on_c, 3, 53, 110
6, 121680, Note_on_c, 3, 65, 110
6, 122620, Note_on_c, 3, 53, 0
6, 122620, Note_on_c, 3, 65, 0
6, 122640, Note_on_c, 3, 64, 110
6, 122640, Note_on_c, 3, 52, 110
6, 123580, Note_on_c, 3, 64, 0
6, 123580, Note_on_c, 3, 52, 0
6, 123600, Note_on_c, 3, 62, 110
6, 123600, Note_on_c, 3, 50, 110
6, 124540, Note_on_c, 3, 62, 0
6, 124540, Note_on_c, 3, 50, 0
6, 128400, Note_on_c, 3, 48, 110
6, 128400, Note_on_c, 3, 60, 110
6, 129340, Note_on_c, 3, 48, 0
6, 129340, Note_on_c, 3, 60, 0
6, 129360, Note_on_c, 3, 53, 110
6, 129360, Note_on_c, 3, 65, 110
6, 130300, Note_on_c, 3, 53, 0
6, 130300, Note_on_c, 3, 65, 0
6, 130320, Note_on_c, 3, 57, 110
6, 130320, Note_on_c, 3, 69, 110
6, 131260, Note_on_c, 3, 57, 0
6, 131260, Note_on_c, 3, 69, 0
6, 131280, Note_on_c, 3, 71, 110
6, 131280, Note_on_c, 3, 59, 110
6, 132220, Note_on_c, 3, 71, 0
6, 132220, Note_on_c, 3, 59, 0
6, 132240, Note_on_c, 3, 60, 110
6, 132240, Note_on_c, 3, 48, 110
6, 133180, Note_on_c, 3, 60, 0
6, 133180, Note_on_c, 3, 48, 0
6, 133200, Note_on_c, 3, 65, 110
6, 133200, Note_on_c, 3, 53, 110
6, 134140, Note_on_c, 3, 65, 0
6, 134140, Note_on_c, 3, 53, 0
6, 134160, Note_on_c, 3, 69, 110
6, 134160, Note_on_c, 3, 57, 110
6, 135100, Note_on_c, 3, 69, 0
6, 135100, Note_on_c, 3, 57, 0
6, 135120, Note_on_c, 3, 59, 110
6, 135120, Note_on_c, 3, 71, 110
6, 136060, Note_on_c, 3, 59, 0
6, 136060, Note_on_c, 3, 71, 0
6, 136060, End_track
7, 0, Start_track
7, 0, Program_c, 4, 33
7, 0, Control_c, 4, 7, 86
7, 17040, Note_on_c, 4, 36, 110
7, 17980, Note_on_c, 4, 36, 0
7, 18000, Note_on_c, 4, 41, 110
7, 18940, Note_on_c, 4, 41, 0
7, 18960, Note_on_c, 4, 45, 110
7, 19900, Note_on_c, 4, 45, 0
7, 19920, Note_on_c, 4, 43, 110
7, 20860, Note_on_c, 4, 43, 0
7, 20880, Note_on_c, 4, 36, 110
7, 21820, Note_on_c, 4, 36, 0
7, 21840, Note_on_c, 4, 41, 110
7, 22780, Note_on_c, 4, 41, 0
7, 22800, Note_on_c, 4, 45, 110
7, 23740, Note_on_c, 4, 45, 0
7, 23760, Note_on_c, 4, 43, 110
7, 24700, Note_on_c, 4, 43, 0
7, 24720, Note_on_c, 4, 36, 110
7, 24720, Note_on_c, 4, 48, 110
7, 25660, Note_on_c, 4, 36, 0
7, 25660, Note_on_c, 4, 48, 0
7, 25680, Note_on_c, 4, 41, 110
7, 25680, Note_on_c, 4, 53, 110
7, 26620, Note_on_c, 4, 41, 0
7, 26620, Note_on_c, 4, 53, 0
7, 26640, Note_on_c, 4, 45, 110
7, 26640, Note_on_c, 4, 57, 110
7, 27580, Note_on_c, 4, 45, 0
7, 27580, Note_on_c, 4, 57, 0
7, 27600, Note_on_c, 4, 43, 110
7, 27600, Note_on_c, 4, 55, 110
7, 28540, Note_on_c, 4, 43, 0
7, 28540, Note_on_c, 4, 55, 0
7, 28560, Note_on_c, 4, 36, 110
7, 28560, Note_on_c, 4, 48, 110
7, 29500, Note_on_c, 4, 36, 0
7, 29500, Note_on_c, 4, 48, 0
7, 29520, Note_on_c, 4, 41, 110
7, 29520, Note_on_c, 4, 53, 110
7, 30460, Note_on_c, 4, 41, 0
7, 30460, Note_on_c, 4, 53, 0
7, 30480, Note_on_c, 4, 45, 110
7, 30480, Note_on_c, 4, 57, 110
7, 31420, Note_on_c, 4, 45, 0
7, 31420, Note_on_c, 4, 57, 0
7, 31440, Note_on_c, 4, 43, 110
7, 31440, Note_on_c, 4, 55, 110
7, 32380, Note_on_c, 4, 43, 0
7, 32380, Note_on_c, 4, 55, 0
7, 63120, Note_on_c, 4, 36, 110
7, 64060, Note_on_c, 4, 36, 0
7, 64080, Note_on_c, 4, 41, 110
7, 65020, Note_on_c, 4, 41, 0
7, 65040, Note_on_c, 4, 45, 110
7, 65980, Note_on_c, 4, 45, 0
7, 66000, Note_on_c, 4, 43, 110
7, 66940, Note_on_c, 4, 43, 0
7, 66960, Note_on_c, 4, 36, 110
7, 67900, Note_on_c, 4, 36, 0
7, 67920, Note_on_c, 4, 41, 110
7, 68860, Note_on_c, 4, 41, 0
7, 68880, Note_on_c, 4, 45, 110
7, 69820, Note_on_c, 4, 45, 0
7, 69840, Note_on_c, 4, 43, 110
7, 70780, Note_on_c, 4, 43, 0
7, 70800, Note_on_c, 4, 36, 110
7, 70800, Note_on_c, 4, 48, 110
7, 71740, Note_on_c, 4, 36, 0
7, 71740, Note_on_c, 4, 48, 0
7, 71760, Note_on_c, 4, 41, 110
7, 71760, Note_on_c, 4, 53, 110
7, 72700, Note_on_c, 4, 41, 0
7, 72700, Note_on_c, 4, 53, 0
7, 72720, Note_on_c, 4, 45, 110
7, 72720, Note_on_c, 4, 57, 110
7, 73660, Note_on_c, 4, 45, 0
7, 73660, Note_on_c, 4, 57, 0
7, 73680, Note_on_c, 4, 43, 110
7, 73680, Note_on_c, 4, 55, 110
7, 74620, Note_on_c, 4, 43, 0
7, 74620, Note_on_c, 4, 55, 0
7, 74640, Note_on_c, 4, 36, 110
7, 74640, Note_on_c, 4, 48, 110
7, 75580, Note_on_c, 4, 36, 0
7, 75580, Note_on_c, 4, 48, 0
7, 75600, Note_on_c, 4, 41, 110
7, 75600, Note_on_c, 4, 53, 110
7, 76540, Note_on_c, 4, 41, 0
7, 76540, Note_on_c, 4, 53, 0
7, 76560, Note_on_c, 4, 45, 110
7, 76560, Note_on_c, 4, 57, 110
7, 77500, Note_on_c, 4, 45, 0
7, 77500, Note_on_c, 4, 57, 0
7, 77520, Note_on_c, 4, 43, 110
7, 77520, Note_on_c, 4, 55, 110
7, 78460, Note_on_c, 4, 43, 0
7, 78460, Note_on_c, 4, 55, 0
7, 109200, Note_on_c, 4, 36, 110
7, 109200, Note_on_c, 4, 48, 110
7, 110140, Note_on_c, 4, 36, 0
7, 110140, Note_on_c, 4, 48, 0
7, 110160, Note_on_c, 4, 41, 110
7, 110160, Note_on_c, 4, 53, 110
7, 111100, Note_on_c, 4, 41, 0
7, 111100, Note_on_c, 4, 53, 0
7, 111120, Note_on_c, 4, 45, 110
7, 111120, Note_on_c, 4, 57, 110
7, 112060, Note_on_c, 4, 45, 0
7, 112060, Note_on_c, 4, 57, 0
7, 112080, Note_on_c, 4, 43, 110
7, 112080, Note_on_c, 4, 55, 110
7, 113020, Note_on_c, 4, 43, 0
7, 113020, Note_on_c, 4, 55, 0
7, 113040, Note_on_c, 4, 36, 110
7, 113040, Note_on_c, 4, 48, 110
7, 113980, Note_on_c, 4, 36, 0
7, 113980, Note_on_c, 4, 48, 0
7, 114000, Note_on_c, 4, 41, 110
7, 114000, Note_on_c, 4, 53, 110
7, 114940, Note_on_c, 4, 41, 0
7, 114940, Note_on_c, 4, 53, 0
7, 114960, Note_on_c, 4, 45, 110
7, 114960, Note_on_c, 4, 57, 110
7, 115900, Note_on_c, 4, 45, 0
7, 115900, Note_on_c, 4, 57, 0
7, 115920, Note_on_c, 4, 43, 110
7, 115920, Note_on_c, 4, 55, 110
7, 116860, Note_on_c, 4, 43, 0
7, 116860, Note_on_c, 4, 55, 0
7, 116880, Note_on_c, 4, 36, 110
7, 116880, Note_on_c, 4, 48, 110
7, 117820, Note_on_c, 4, 36, 0
7, 117820, Note_on_c, 4, 48, 0
7, 117840, Note_on_c, 4, 41, 110
7, 117840, Note_on_c, 4, 53, 110
7, 118780, Note_on_c, 4, 41, 0
7, 118780, Note_on_c, 4, 53, 0
7, 118800, Note_on_c, 4, 45, 110
7, 118800, Note_on_c, 4, 57, 110
7, 119740, Note_on_c, 4, 45, 0
7, 119740, Note_on_c, 4, 57, 0
7, 119760, Note_on_c, 4, 43, 110
7, 119760, Note_on_c, 4, 55, 110
7, 120700, Note_on_c, 4, 43, 0
7, 120700, Note_on_c, 4, 55, 0
7, 120700, End_track
8, 0, Start_track
8, 0, Program_c, 5, 59
8, 0, Control_c, 5, 7, 76
8, 17040, Note_on_c, 5, 72, 110
8, 17100, Note_on_c, 5, 72, 0
8, 17280, Note_on_c, 5, 72, 110
8, 17340, Note_on_c, 5, 72, 0
8, 17520, Note_on_c, 5, 69, 110
8, 17580, Note_on_c, 5, 69, 0
8, 17640, Note_on_c, 5, 72, 110
8, 17700, Note_on_c, 5, 72, 0
8, 17760, Note_on_c, 5, 69, 110
8, 17820, Note_on_c, 5, 69, 0
8, 17880, Note_on_c, 5, 67, 110
8, 17920, Note_on_c, 5, 67, 0
8, 18000, Note_on_c, 5, 72, 110
8, 18060, Note_on_c, 5, 72, 0
8, 18240, Note_on_c, 5, 72, 110
8, 18300, Note_on_c, 5, 72, 0
8, 18480, Note_on_c, 5, 69, 110
8, 18540, Note_on_c, 5, 69, 0
8, 18600, Note_on_c, 5, 72, 110
8, 18660, Note_on_c, 5, 72, 0
8, 18720, Note_on_c, 5, 69, 110
8, 18780, Note_on_c, 5, 69, 0
8, 18840, Note_on_c, 5, 67, 110
8, 18880, Note_on_c, 5, 67, 0
8, 18960, Note_on_c, 5, 72, 110
8, 19020, Note_on_c, 5, 72, 0
8, 19200, Note_on_c, 5, 72, 110
8, 19260, Note_on_c, 5, 72, 0
8, 19440, Note_on_c, 5, 69, 110
8, 19500, Note_on_c, 5, 69, 0
8, 19560, Note_on_c, 5, 72, 110
8, 19620, Note_on_c, 5, 72, 0
8, 19680, Note_on_c, 5, 69, 110
8, 19740, Note_on_c, 5, 69, 0
8, 19800, Note_on_c, 5, 67, 110
8, 19840, Note_on_c, 5, 67, 0
8, 19920, Note_on_c, 5, 74, 110
8, 19980, Note_on_c, 5, 74, 0
8, 20160, Note_on_c, 5, 74, 110
8, 20220, Note_on_c, 5, 74, 0
8, 20400, Note_on_c, 5, 67, 110
8, 20460, Note_on_c, 5, 67, 0
8, 20520, Note_on_c, 5, 69, 110
8, 20580, Note_on_c, 5, 69, 0
8, 20640, Note_on_c, 5, 72, 110
8, 20700, Note_on_c, 5, 72, 0
8, 20760, Note_on_c, 5, 69, 110
8, 20800, Note_on_c, 5, 69, 0
8, 20880, Note_on_c, 5, 72, 110
8, 20940, Note_on_c, 5, 72, 0
8, 21120, Note_on_c, 5, 72, 110
8, 21180, Note_on_c, 5, 72, 0
8, 21360, Note_on_c, 5, 69, 110
8, 21420, Note_on_c, 5, 69, 0
8, 21480, Note_on_c, 5, 72, 110
8, 21540, Note_on_c, 5, 72, 0
8, 21600, Note_on_c, 5, 69, 110
8, 21660, Note_on_c, 5, 69, 0
8, 21720, Note_on_c, 5, 67, 110
8, 21760, Note_on_c, 5, 67, 0
8, 21840, Note_on_c, 5, 72, 110
8, 21900, Note_on_c, 5, 72, 0
8, 22080, Note_on_c, 5, 72, 110
8, 22140, Note_on_c, 5, 72, 0
8, 22320, Note_on_c, 5, 69, 110
8, 22380, Note_on_c, 5, 69, 0
8, 22440, Note_on_c, 5, 72, 110
8, 22500, Note_on_c, 5, 72, 0
8, 22560, Note_on_c, 5, 69, 110
8, 22620, Note_on_c, 5, 69, 0
8, 22680, Note_on_c, 5, 67, 110
8, 22720, Note_on_c, 5, 67, 0
8, 22800, Note_on_c, 5, 72, 110
8, 22860, Note_on_c, 5, 72, 0
8, 23040, Note_on_c, 5, 72, 110
8, 23100, Note_on_c, 5, 72, 0
8, 23280, Note_on_c, 5, 69, 110
8, 23340, Note_on_c, 5, 69, 0
8, 23400, Note_on_c, 5, 72, 110
8, 23460, Note_on_c, 5, 72, 0
8, 23520, Note_on_c, 5, 69, 110
8, 23580, Note_on_c, 5, 69, 0
8, 23640, Note_on_c, 5, 67, 110
8, 23680, Note_on_c, 5, 67, 0
8, 23760, Note_on_c, 5, 74, 110
8, 23820, Note_on_c, 5, 74, 0
8, 24000, Note_on_c, 5, 74, 110
8, 24060, Note_on_c, 5, 74, 0
8, 24240, Note_on_c, 5, 67, 110
8, 24300, Note_on_c, 5, 67, 0
8, 24360, Note_on_c, 5, 69, 110
8, 24420, Note_on_c, 5, 69, 0
8, 24480, Note_on_c, 5, 72, 110
8, 24540, Note_on_c, 5, 72, 0
8, 24600, Note_on_c, 5, 69, 110
8, 24640, Note_on_c, 5, 69, 0
8, 24720, Note_on_c, 5, 72, 110
8, 24780, Note_on_c, 5, 72, 0
8, 24960, Note_on_c, 5, 72, 110
8, 25020, Note_on_c, 5, 72, 0
8, 25200, Note_on_c, 5, 69, 110
8, 25260, Note_on_c, 5, 69, 0
8, 25320, Note_on_c, 5, 72, 110
8, 25380, Note_on_c, 5, 72, 0
8, 25440, Note_on_c, 5, 69, 110
8, 25500, Note_on_c, 5, 69, 0
8, 25560, Note_on_c, 5, 67, 110
8, 25600, Note_on_c, 5, 67, 0
8, 25680, Note_on_c, 5, 72, 110
8, 25740, Note_on_c, 5, 72, 0
8, 25920, Note_on_c, 5, 72, 110
8, 25980, Note_on_c, 5, 72, 0
8, 26160, Note_on_c, 5, 69, 110
8, 26220, Note_on_c, 5, 69, 0
8, 26280, Note_on_c, 5, 72, 110
8, 26340, Note_on_c, 5, 72, 0
8, 26400, Note_on_c, 5, 69, 110
8, 26460, Note_on_c, 5, 69, 0
8, 26520, Note_on_c, 5, 67, 110
8, 26560, Note_on_c, 5, 67, 0
8, 26640, Note_on_c, 5, 72, 110
8, 26700, Note_on_c, 5, 72, 0
8, 26880, Note_on_c, 5, 72, 110
8, 26940, Note_on_c, 5, 72, 0
8, 27120, Note_on_c, 5, 69, 110
8, 27180, Note_on_c, 5, 69, 0
8, 27240, Note_on_c, 5, 72, 110
8, 27300, Note_on_c, 5, 72, 0
8, 27360, Note_on_c, 5, 69, 110
8, 27420, Note_on_c, 5, 69, 0
8, 27480, Note_on_c, 5, 67, 110
8, 27520, Note_on_c, 5, 67, 0
8, 27600, Note_on_c, 5, 74, 110
8, 27660, Note_on_c, 5, 74, 0
8, 27840, Note_on_c, 5, 74, 110
8, 27900, Note_on_c, 5, 74, 0
8, 28080, Note_on_c, 5, 67, 110
8, 28140, Note_on_c, 5, 67, 0
8, 28200, Note_on_c, 5, 69, 110
8, 28260, Note_on_c, 5, 69, 0
8, 28320, Note_on_c, 5, 72, 110
8, 28380, Note_on_c, 5, 72, 0
8, 28440, Note_on_c, 5, 69, 110
8, 28480, Note_on_c, 5, 69, 0
8, 28560, Note_on_c, 5, 72, 110
8, 28620, Note_on_c, 5, 72, 0
8, 28800, Note_on_c, 5, 72, 110
8, 28860, Note_on_c, 5, 72, 0
8, 29040, Note_on_c, 5, 69, 110
8, 29100, Note_on_c, 5, 69, 0
8, 29160, Note_on_c, 5, 72, 110
8, 29220, Note_on_c, 5, 72, 0
8, 29280, Note_on_c, 5, 69, 110
8, 29340, Note_on_c, 5, 69, 0
8, 29400, Note_on_c, 5, 67, 110
8, 29440, Note_on_c, 5, 67, 0
8, 29520, Note_on_c, 5, 72, 110
8, 29580, Note_on_c, 5, 72, 0
8, 29760, Note_on_c, 5, 72, 110
8, 29820, Note_on_c, 5, 72, 0
8, 30000, Note_on_c, 5, 69, 110
8, 30060, Note_on_c, 5, 69, 0
8, 30120, Note_on_c, 5, 72, 110
8, 30180, Note_on_c, 5, 72, 0
8, 30240, Note_on_c, 5, 69, 110
8, 30300, Note_on_c, 5, 69, 0
8, 30360, Note_on_c, 5, 67, 110
8, 30400, Note_on_c, 5, 67, 0
8, 30480, Note_on_c, 5, 72, 110
8, 30540, Note_on_c, 5, 72, 0
8, 30720, Note_on_c, 5, 72, 110
8, 30780, Note_on_c, 5, 72, 0
8, 30960, Note_on_c, 5, 69, 110
8, 31020, Note_on_c, 5, 69, 0
8, 31080, Note_on_c, 5, 72, 110
8, 31140, Note_on_c, 5, 72, 0
8, 31200, Note_on_c, 5, 69, 110
8, 31260, Note_on_c, 5, 69, 0
8, 31320, Note_on_c, 5, 67, 110
8, 31360, Note_on_c, 5, 67, 0
8, 31440, Note_on_c, 5, 74, 110
8, 31500, Note_on_c, 5, 74, 0
8, 31680, Note_on_c, 5, 74, 110
8, 31740, Note_on_c, 5, 74, 0
8, 31920, Note_on_c, 5, 67, 110
8, 31980, Note_on_c, 5, 67, 0
8, 32040, Note_on_c, 5, 69, 110
8, 32100, Note_on_c, 5, 69, 0
8, 32160, Note_on_c, 5, 72, 110
8, 32220, Note_on_c, 5, 72, 0
8, 32280, Note_on_c, 5, 69, 110
8, 32320, Note_on_c, 5, 69, 0
8, 63120, Note_on_c, 5, 72, 110
8, 63180, Note_on_c, 5, 72, 0
8, 63360, Note_on_c, 5, 72, 110
8, 63420, Note_on_c, 5, 72, 0
8, 63600, Note_on_c, 5, 69, 110
8, 63660, Note_on_c, 5, 69, 0
8, 63720, Note_on_c, 5, 72, 110
8, 63780, Note_on_c, 5, 72, 0
8, 63840, Note_on_c, 5, 69, 110
8, 63900, Note_on_c, 5, 69, 0
8, 63960, Note_on_c, 5, 67, 110
8, 64000, Note_on_c, 5, 67, 0
8, 64080, Note_on_c, 5, 72, 110
8, 64140, Note_on_c, 5, 72, 0
8, 64320, Note_on_c, 5, 72, 110
8, 64380, Note_on_c, 5, 72, 0
8, 64560, Note_on_c, 5, 69, 110
8, 64620, Note_on_c, 5, 69, 0
8, 64680, Note_on_c, 5, 72, 110
8, 64740, Note_on_c, 5, 72, 0
8, 64800, Note_on_c, 5, 69, 110
8, 64860, Note_on_c, 5, 69, 0
8, 64920, Note_on_c, 5, 67, 110
8, 64960, Note_on_c, 5, 67, 0
8, 65040, Note_on_c, 5, 72, 110
8, 65100, Note_on_c, 5, 72, 0
8, 65280, Note_on_c, 5, 72, 110
8, 65340, Note_on_c, 5, 72, 0
8, 65520, Note_on_c, 5, 69, 110
8, 65580, Note_on_c, 5, 69, 0
8, 65640, Note_on_c, 5, 72, 110
8, 65700, Note_on_c, 5, 72, 0
8, 65760, Note_on_c, 5, 69, 110
8, 65820, Note_on_c, 5, 69, 0
8, 65880, Note_on_c, 5, 67, 110
8, 65920, Note_on_c, 5, 67, 0
8, 66000, Note_on_c, 5, 74, 110
8, 66060, Note_on_c, 5, 74, 0
8, 66240, Note_on_c, 5, 74, 110
8, 66300, Note_on_c, 5, 74, 0
8, 66480, Note_on_c, 5, 67, 110
8, 66540, Note_on_c, 5, 67, 0
8, 66600, Note_on_c, 5, 69, 110
8, 66660, Note_on_c, 5, 69, 0
8, 66720, Note_on_c, 5, 72, 110
8, 66780, Note_on_c, 5, 72, 0
8, 66840, Note_on_c, 5, 69, 110
8, 66880, Note_on_c, 5, 69, 0
8, 66960, Note_on_c, 5, 72, 110
8, 67020, Note_on_c, 5, 72, 0
8, 67200, Note_on_c, 5, 72, 110
8, 67260, Note_on_c, 5, 72, 0
8, 67440, Note_on_c, 5, 69, 110
8, 67500, Note_on_c, 5, 69, 0
8, 67560, Note_on_c, 5, 72, 110
8, 67620, Note_on_c, 5, 72, 0
8, 67680, Note_on_c, 5, 69, 110
8, 67740, Note_on_c, 5, 69, 0
8, 67800, Note_on_c, 5, 67, 110
8, 67840, Note_on_c, 5, 67, 0
8, 67920, Note_on_c, 5, 72, 110
8, 67980, Note_on_c, 5, 72, 0
8, 68160, Note_on_c, 5, 72, 110
8, 68220, Note_on_c, 5, 72, 0
8, 68400, Note_on_c, 5, 69, 110
8, 68460, Note_on_c, 5, 69, 0
8, 68520, Note_on_c, 5, 72, 110
8, 68580, Note_on_c, 5, 72, 0
8, 68640, Note_on_c, 5, 69, 110
8, 68700, Note_on_c, 5, 69, 0
8, 68760, Note_on_c, 5, 67, 110
8, 68800, Note_on_c, 5, 67, 0
8, 68880, Note_on_c, 5, 72, 110
8, 68940, Note_on_c, 5, 72, 0
8, 69120, Note_on_c, 5, 72, 110
8, 69180, Note_on_c, 5, 72, 0
8, 69360, Note_on_c, 5, 69, 110
8, 69420, Note_on_c, 5, 69, 0
8, 69480, Note_on_c, 5, 72, 110
8, 69540, Note_on_c, 5, 72, 0
8, 69600, Note_on_c, 5, 69, 110
8, 69660, Note_on_c, 5, 69, 0
8, 69720, Note_on_c, 5, 67, 110
8, 69760, Note_on_c, 5, 67, 0
8, 69840, Note_on_c, 5, 74, 110
8, 69900, Note_on_c, 5, 74, 0
8, 70080, Note_on_c, 5, 74, 110
8, 70140, Note_on_c, 5, 74, 0
8, 70320, Note_on_c, 5, 67, 110
8, 70380, Note_on_c, 5, 67, 0
8, 70440, Note_on_c, 5, 69, 110
8, 70500, Note_on_c, 5, 69, 0
8, 70560, Note_on_c, 5, 72, 110
8, 70620, Note_on_c, 5, 72, 0
8, 70680, Note_on_c, 5, 69, 110
8, 70720, Note_on_c, 5, 69, 0
8, 70800, Note_on_c, 5, 72, 110
8, 70860, Note_on_c, 5, 72, 0
8, 71040, Note_on_c, 5, 72, 110
8, 71100, Note_on_c, 5, 72, 0
8, 71280, Note_on_c, 5, 69, 110
8, 71340, Note_on_c, 5, 69, 0
8, 71400, Note_on_c, 5, 72, 110
8, 71460, Note_on_c, 5, 72, 0
8, 71520, Note_on_c, 5, 69, 110
8, 71580, Note_on_c, 5, 69, 0
8, 71640, Note_on_c, 5, 67, 110
8, 71680, Note_on_c, 5, 67, 0
8, 71760, Note_on_c, 5, 72, 110
8, 71820, Note_on_c, 5, 72, 0
8, 72000, Note_on_c, 5, 72, 110
8, 72060, Note_on_c, 5, 72, 0
8, 72240, Note_on_c, 5, 69, 110
8, 72300, Note_on_c, 5, 69, 0
8, 72360, Note_on_c, 5, 72, 110
8, 72420, Note_on_c, 5, 72, 0
8, 72480, Note_on_c, 5, 69, 110
8, 72540, Note_on_c, 5, 69, 0
8, 72600, Note_on_c, 5, 67, 110
8, 72640, Note_on_c, 5, 67, 0
8, 72720, Note_on_c, 5, 72, 110
8, 72780, Note_on_c, 5, 72, 0
8, 72960, Note_on_c, 5, 72, 110
8, 73020, Note_on_c, 5, 72, 0
8, 73200, Note_on_c, 5, 69, 110
8, 73260, Note_on_c, 5, 69, 0
8, 73320, Note_on_c, 5, 72, 110
8, 73380, Note_on_c, 5, 72, 0
8, 73440, Note_on_c, 5, 69, 110
8, 73500, Note_on_c, 5, 69, 0
8, 73560, Note_on_c, 5, 67, 110
8, 73600, Note_on_c, 5, 67, 0
8, 73680, Note_on_c, 5, 74, 110
8, 73740, Note_on_c, 5, 74, 0
8, 73920, Note_on_c, 5, 74, 110
8, 73980, Note_on_c, 5, 74, 0
8, 74160, Note_on_c, 5, 67, 110
8, 74220, Note_on_c, 5, 67, 0
8, 74280, Note_on_c, 5, 69, 110
8, 74340, Note_on_c, 5, 69, 0
8, 74400, Note_on_c, 5, 72, 110
8, 74460, Note_on_c, 5, 72, 0
8, 74520, Note_on_c, 5, 69, 110
8, 74560, Note_on_c, 5, 69, 0
8, 74640, Note_on_c, 5, 72, 110
8, 74700, Note_on_c, 5, 72, 0
8, 74880, Note_on_c, 5, 72, 110
8, 74940, Note_on_c, 5, 72, 0
8, 75120, Note_on_c, 5, 69, 110
8, 75180, Note_on_c, 5, 69, 0
8, 75240, Note_on_c, 5, 72, 110
8, 75300, Note_on_c, 5, 72, 0
8, 75360, Note_on_c, 5, 69, 110
8, 75420, Note_on_c, 5, 69, 0
8, 75480, Note_on_c, 5, 67, 110
8, 75520, Note_on_c, 5, 67, 0
8, 75600, Note_on_c, 5, 72, 110
8, 75660, Note_on_c, 5, 72, 0
8, 75840, Note_on_c, 5, 72, 110
8, 75900, Note_on_c, 5, 72, 0
8, 76080, Note_on_c, 5, 69, 110
8, 76140, Note_on_c, 5, 69, 0
8, 76200, Note_on_c, 5, 72, 110
8, 76260, Note_on_c, 5, 72, 0
8, 76320, Note_on_c, 5, 69, 110
8, 76380, Note_on_c, 5, 69, 0
8, 76440, Note_on_c, 5, 67, 110
8, 76480, Note_on_c, 5, 67, 0
8, 76560, Note_on_c, 5, 72, 110
8, 76620, Note_on_c, 5, 72, 0
8, 76800, Note_on_c, 5, 72, 110
8, 76860, Note_on_c, 5, 72, 0
8, 77040, Note_on_c, 5, 69, 110
8, 77100, Note_on_c, 5, 69, 0
8, 77160, Note_on_c, 5, 72, 110
8, 77220, Note_on_c, 5, 72, 0
8, 77280, Note_on_c, 5, 69, 110
8, 77340, Note_on_c, 5, 69, 0
8, 77400, Note_on_c, 5, 67, 110
8, 77440, Note_on_c, 5, 67, 0
8, 77520, Note_on_c, 5, 74, 110
8, 77580, Note_on_c, 5, 74, 0
8, 77760, Note_on_c, 5, 74, 110
8, 77820, Note_on_c, 5, 74, 0
8, 78000, Note_on_c, 5, 67, 110
8, 78060, Note_on_c, 5, 67, 0
8, 78120, Note_on_c, 5, 69, 110
8, 78180, Note_on_c, 5, 69, 0
8, 78240, Note_on_c, 5, 72, 110
8, 78300, Note_on_c, 5, 72, 0
8, 78360, Note_on_c, 5, 69, 110
8, 78400, Note_on_c, 5, 69, 0
8, 109200, Note_on_c, 5, 72, 110
8, 109260, Note_on_c, 5, 72, 0
8, 109440, Note_on_c, 5, 72, 110
8, 109500, Note_on_c, 5, 72, 0
8, 109680, Note_on_c, 5, 69, 110
8, 109740, Note_on_c, 5, 69, 0
8, 109800, Note_on_c, 5, 72, 110
8, 109860, Note_on_c, 5, 72, 0
8, 109920, Note_on_c, 5, 69, 110
8, 109980, Note_on_c, 5, 69, 0
8, 110040, Note_on_c, 5, 67, 110
8, 110080, Note_on_c, 5, 67, 0
8, 110160, Note_on_c, 5, 72, 110
8, 110220, Note_on_c, 5, 72, 0
8, 110400, Note_on_c, 5, 72, 110
8, 110460, Note_on_c, 5, 72, 0
8, 110640, Note_on_c, 5, 69, 110
8, 110700, Note_on_c, 5, 69, 0
8, 110760, Note_on_c, 5, 72, 110
8, 110820, Note_on_c, 5, 72, 0
8, 110880, Note_on_c, 5, 69, 110
8, 110940, Note_on_c, 5, 69, 0
8, 111000, Note_on_c, 5, 67, 110
8, 111040, Note_on_c, 5, 67, 0
8, 111120, Note_on_c, 5, 72, 110
8, 111180, Note_on_c, 5, 72, 0
8, 111360, Note_on_c, 5, 72, 110
8, 111420, Note_on_c, 5, 72, 0
8, 111600, Note_on_c, 5, 69, 110
8, 111660, Note_on_c, 5, 69, 0
8, 111720, Note_on_c, 5, 72, 110
8, 111780, Note_on_c, 5, 72, 0
8, 111840, Note_on_c, 5, 69, 110
8, 111900, Note_on_c, 5, 69, 0
8, 111960, Note_on_c, 5, 67, 110
8, 112000, Note_on_c, 5, 67, 0
8, 112080, Note_on_c, 5, 74, 110
8, 112140, Note_on_c, 5, 74, 0
8, 112320, Note_on_c, 5, 74, 110
8, 112380, Note_on_c, 5, 74, 0
8, 112560, Note_on_c, 5, 67, 110
8, 112620, Note_on_c, 5, 67, 0
8, 112680, Note_on_c, 5, 69, 110
8, 112740, Note_on_c, 5, 69, 0
8, 112800, Note_on_c, 5, 72, 110
8, 112860, Note_on_c, 5, 72, 0
8, 112920, Note_on_c, 5, 69, 110
8, 112960, Note_on_c, 5, 69, 0
8, 113040, Note_on_c, 5, 72, 110
8, 113100, Note_on_c, 5, 72, 0
8, 113280, Note_on_c, 5, 72, 110
8, 113340, Note_on_c, 5, 72, 0
8, 113520, Note_on_c, 5, 69, 110
8, 113580, Note_on_c, 5, 69, 0
8, 113640, Note_on_c, 5, 72, 110
8, 113700, Note_on_c, 5, 72, 0
8, 113760, Note_on_c, 5, 69, 110
8, 113820, Note_on_c, 5, 69, 0
8, 113880, Note_on_c, 5, 67, 110
8, 113920, Note_on_c, 5, 67, 0
8, 114000, Note_on_c, 5, 72, 110
8, 114060, Note_on_c, 5, 72, 0
8, 114240, Note_on_c, 5, 72, 110
8, 114300, Note_on_c, 5, 72, 0
8, 114480, Note_on_c, 5, 69, 110
8, 114540, Note_on_c, 5, 69, 0
8, 114600, Note_on_c, 5, 72, 110
8, 114660, Note_on_c, 5, 72, 0
8, 114720, Note_on_c, 5, 69, 110
8, 114780, Note_on_c, 5, 69, 0
8, 114840, Note_on_c, 5, 67, 110
8, 114880, Note_on_c, 5, 67, 0
8, 114960, Note_on_c, 5, 72, 110
8, 115020, Note_on_c, 5, 72, 0
8, 115200, Note_on_c, 5, 72, 110
8, 115260, Note_on_c, 5, 72, 0
8, 115440, Note_on_c, 5, 69, 110
8, 115500, Note_on_c, 5, 69, 0
8, 115560, Note_on_c, 5, 72, 110
8, 115620, Note_on_c, 5, 72, 0
8, 115680, Note_on_c, 5, 69, 110
8, 115740, Note_on_c, 5, 69, 0
8, 115800, Note_on_c, 5, 67, 110
8, 115840, Note_on_c, 5, 67, 0
8, 115920, Note_on_c, 5, 74, 110
8, 115980, Note_on_c, 5, 74, 0
8, 116160, Note_on_c, 5, 74, 110
8, 116220, Note_on_c, 5, 74, 0
8, 116400, Note_on_c, 5, 67, 110
8, 116460, Note_on_c, 5, 67, 0
8, 116520, Note_on_c, 5, 69, 110
8, 116580, Note_on_c, 5, 69, 0
8, 116640, Note_on_c, 5, 72, 110
8, 116700, Note_on_c, 5, 72, 0
8, 116760, Note_on_c, 5, 69, 110
8, 116800, Note_on_c, 5, 69, 0
8, 116880, Note_on_c, 5, 72, 110
8, 116940, Note_on_c, 5, 72, 0
8, 117120, Note_on_c, 5, 72, 110
8, 117180, Note_on_c, 5, 72, 0
8, 117360, Note_on_c, 5, 69, 110
8, 117420, Note_on_c, 5, 69, 0
8, 117480, Note_on_c, 5, 72, 110
8, 117540, Note_on_c, 5, 72, 0
8, 117600, Note_on_c, 5, 69, 110
8, 117660, Note_on_c, 5, 69, 0
8, 117720, Note_on_c, 5, 67, 110
8, 117760, Note_on_c, 5, 67, 0
8, 117840, Note_on_c, 5, 72, 110
8, 117900, Note_on_c, 5, 72, 0
8, 118080, Note_on_c, 5, 72, 110
8, 118140, Note_on_c, 5, 72, 0
8, 118320, Note_on_c, 5, 69, 110
8, 118380, Note_on_c, 5, 69, 0
8, 118440, Note_on_c, 5, 72, 110
8, 118500, Note_on_c, 5, 72, 0
8, 118560, Note_on_c, 5, 69, 110
8, 118620, Note_on_c, 5, 69, 0
8, 118680, Note_on_c, 5, 67, 110
8, 118720, Note_on_c, 5, 67, 0
8, 118800, Note_on_c, 5, 72, 110
8, 118860, Note_on_c, 5, 72, 0
8, 119040, Note_on_c, 5, 72, 110
8, 119100, Note_on_c, 5, 72, 0
8, 119280, Note_on_c, 5, 69, 110
8, 119340, Note_on_c, 5, 69, 0
8, 119400, Note_on_c, 5, 72, 110
8, 119460, Note_on_c, 5, 72, 0
8, 119520, Note_on_c, 5, 69, 110
8, 119580, Note_on_c, 5, 69, 0
8, 119640, Note_on_c, 5, 67, 110
8, 119680, Note_on_c, 5, 67, 0
8, 119760, Note_on_c, 5, 74, 110
8, 119820, Note_on_c, 5, 74, 0
8, 120000, Note_on_c, 5, 74, 110
8, 120060, Note_on_c, 5, 74, 0
8, 120240, Note_on_c, 5, 67, 110
8, 120300, Note_on_c, 5, 67, 0
8, 120360, Note_on_c, 5, 69, 110
8, 120420, Note_on_c, 5, 69, 0
8, 120480, Note_on_c, 5, 72, 110
8, 120540, Note_on_c, 5, 72, 0
8, 120600, Note_on_c, 5, 69, 110
8, 120640, Note_on_c, 5, 69, 0
8, 120640, End_track
9, 0, Start_track
9, 0, Program_c, 6, 108
9, 0, Control_c, 6, 7, 56
9, 24960, Note_on_c, 6, 79, 110
9, 25060, Note_on_c, 6, 79, 0
9, 25080, Note_on_c, 6, 79, 110
9, 25180, Note_on_c, 6, 79, 0
9, 25320, Note_on_c, 6, 78, 110
9, 25420, Note_on_c, 6, 78, 0
9, 25560, Note_on_c, 6, 77, 110
9, 25660, Note_on_c, 6, 77, 0
9, 25680, Note_on_c, 6, 77, 110
9, 25780, Note_on_c, 6, 77, 0
9, 25920, Note_on_c, 6, 76, 110
9, 26020, Note_on_c, 6, 76, 0
9, 26040, Note_on_c, 6, 75, 110
9, 26140, Note_on_c, 6, 75, 0
9, 26280, Note_on_c, 6, 75, 110
9, 26380, Note_on_c, 6, 75, 0
9, 26400, Note_on_c, 6, 74, 110
9, 26500, Note_on_c, 6, 74, 0
9, 26640, Note_on_c, 6, 74, 110
9, 26740, Note_on_c, 6, 74, 0
9, 26760, Note_on_c, 6, 73, 110
9, 26860, Note_on_c, 6, 73, 0
9, 27000, Note_on_c, 6, 73, 110
9, 27100, Note_on_c, 6, 73, 0
9, 27120, Note_on_c, 6, 72, 110
9, 27220, Note_on_c, 6, 72, 0
9, 27240, Note_on_c, 6, 72, 110
9, 27340, Note_on_c, 6, 72, 0
9, 27360, Note_on_c, 6, 72, 110
9, 27460, Note_on_c, 6, 72, 0
9, 27480, Note_on_c, 6, 71, 110
9, 27580, Note_on_c, 6, 71, 0
9, 27720, Note_on_c, 6, 71, 110
9, 27820, Note_on_c, 6, 71, 0
9, 27840, Note_on_c, 6, 69, 110
9, 27940, Note_on_c, 6, 69, 0
9, 28080, Note_on_c, 6, 69, 110
9, 28180, Note_on_c, 6, 69, 0
9, 28200, Note_on_c, 6, 72, 110
9, 28300, Note_on_c, 6, 72, 0
9, 28440, Note_on_c, 6, 72, 110
9, 28540, Note_on_c, 6, 72, 0
9, 28800, Note_on_c, 6, 79, 110
9, 28900, Note_on_c, 6, 79, 0
9, 28920, Note_on_c, 6, 79, 110
9, 29020, Note_on_c, 6, 79, 0
9, 29160, Note_on_c, 6, 78, 110
9, 29260, Note_on_c, 6, 78, 0
9, 29400, Note_on_c, 6, 77, 110
9, 29500, Note_on_c, 6, 77, 0
9, 29520, Note_on_c, 6, 77, 110
9, 29620, Note_on_c, 6, 77, 0
9, 29760, Note_on_c, 6, 76, 110
9, 29860, Note_on_c, 6, 76, 0
9, 29880, Note_on_c, 6, 75, 110
9, 29980, Note_on_c, 6, 75, 0
9, 30120, Note_on_c, 6, 75, 110
9, 30220, Note_on_c, 6, 75, 0
9, 30240, Note_on_c, 6, 74, 110
9, 30340, Note_on_c, 6, 74, 0
9, 30480, Note_on_c, 6, 74, 110
9, 30580, Note_on_c, 6, 74, 0
9, 30600, Note_on_c, 6, 73, 110
9, 30700, Note_on_c, 6, 73, 0
9, 30840, Note_on_c, 6, 73, 110
9, 30940, Note_on_c, 6, 73, 0
9, 30960, Note_on_c, 6, 72, 110
9, 31060, Note_on_c, 6, 72, 0
9, 31080, Note_on_c, 6, 72, 110
9, 31180, Note_on_c, 6, 72, 0
9, 31200, Note_on_c, 6, 72, 110
9, 31300, Note_on_c, 6, 72, 0
9, 31320, Note_on_c, 6, 71, 110
9, 31420, Note_on_c, 6, 71, 0
9, 31560, Note_on_c, 6, 71, 110
9, 31660, Note_on_c, 6, 71, 0
9, 31680, Note_on_c, 6, 69, 110
9, 31780, Note_on_c, 6, 69, 0
9, 31920, Note_on_c, 6, 69, 110
9, 32020, Note_on_c, 6, 69, 0
9, 32040, Note_on_c, 6, 72, 110
9, 32140, Note_on_c, 6, 72, 0
9, 32280, Note_on_c, 6, 72, 110
9, 32380, Note_on_c, 6, 72, 0
9, 44160, Note_on_c, 6, 79, 110
9, 44260, Note_on_c, 6, 79, 0
9, 44280, Note_on_c, 6, 79, 110
9, 44380, Note_on_c, 6, 79, 0
9, 44520, Note_on_c, 6, 78, 110
9, 44620, Note_on_c, 6, 78, 0
9, 44760, Note_on_c, 6, 77, 110
9, 44860, Note_on_c, 6, 77, 0
9, 44880, Note_on_c, 6, 77, 110
9, 44980, Note_on_c, 6, 77, 0
9, 45120, Note_on_c, 6, 76, 110
9, 45220, Note_on_c, 6, 76, 0
9, 45240, Note_on_c, 6, 75, 110
9, 45340, Note_on_c, 6, 75, 0
9, 45480, Note_on_c, 6, 75, 110
9, 45580, Note_on_c, 6, 75, 0
9, 45600, Note_on_c, 6, 74, 110
9, 45700, Note_on_c, 6, 74, 0
9, 71040, Note_on_c, 6, 79, 110
9, 71140, Note_on_c, 6, 79, 0
9, 71160, Note_on_c, 6, 79, 110
9, 71260, Note_on_c, 6, 79, 0
9, 71400, Note_on_c, 6, 78, 110
9, 71500, Note_on_c, 6, 78, 0
9, 71640, Note_on_c, 6, 77, 110
9, 71740, Note_on_c, 6, 77, 0
9, 71760, Note_on_c, 6, 77, 110
9, 71860, Note_on_c, 6, 77, 0
9, 72000, Note_on_c, 6, 76, 110
9, 72100, Note_on_c, 6, 76, 0
9, 72120, Note_on_c, 6, 75, 110
9, 72220, Note_on_c, 6, 75, 0
9, 72360, Note_on_c, 6, 75, 110
9, 72460, Note_on_c, 6, 75, 0
9, 72480, Note_on_c, 6, 74, 110
9, 72580, Note_on_c, 6, 74, 0
9, 72720, Note_on_c, 6, 74, 110
9, 72820, Note_on_c, 6, 74, 0
9, 72840, Note_on_c, 6, 73, 110
9, 72940, Note_on_c, 6, 73, 0
9, 73080, Note_on_c, 6, 73, 110
9, 73180, Note_on_c, 6, 73, 0
9, 73200, Note_on_c, 6, 72, 110
9, 73300, Note_on_c, 6, 72, 0
9, 73320, Note_on_c, 6, 72, 110
9, 73420, Note_on_c, 6, 72, 0
9, 73440, Note_on_c, 6, 72, 110
9, 73540, Note_on_c, 6, 72, 0
9, 73560, Note_on_c, 6, 71, 110
9, 73660, Note_on_c, 6, 71, 0
9, 73800, Note_on_c, 6, 71, 110
9, 73900, Note_on_c, 6, 71, 0
9, 73920, Note_on_c, 6, 69, 110
9, 74020, Note_on_c, 6, 69, 0
9, 74160, Note_on_c, 6, 69, 110
9, 74260, Note_on_c, 6, 69, 0
9, 74280, Note_on_c, 6, 72, 110
9, 74380, Note_on_c, 6, 72, 0
9, 74520, Note_on_c, 6, 72, 110
9, 74620, Note_on_c, 6, 72, 0
9, 74880, Note_on_c, 6, 79, 110
9, 74980, Note_on_c, 6, 79, 0
9, 75000, Note_on_c, 6, 79, 110
9, 75100, Note_on_c, 6, 79, 0
9, 75240, Note_on_c, 6, 78, 110
9, 75340, Note_on_c, 6, 78, 0
9, 75480, Note_on_c, 6, 77, 110
9, 75580, Note_on_c, 6, 77, 0
9, 75600, Note_on_c, 6, 77, 110
9, 75700, Note_on_c, 6, 77, 0
9, 75840, Note_on_c, 6, 76, 110
9, 75940, Note_on_c, 6, 76, 0
9, 75960, Note_on_c, 6, 75, 110
9, 76060, Note_on_c, 6, 75, 0
9, 76200, Note_on_c, 6, 75, 110
9, 76300, Note_on_c, 6, 75, 0
9, 76320, Note_on_c, 6, 74, 110
9, 76420, Note_on_c, 6, 74, 0
9, 76560, Note_on_c, 6, 74, 110
9, 76660, Note_on_c, 6, 74, 0
9, 76680, Note_on_c, 6, 73, 110
9, 76780, Note_on_c, 6, 73, 0
9, 76920, Note_on_c, 6, 73, 110
9, 77020, Note_on_c, 6, 73, 0
9, 77040, Note_on_c, 6, 72, 110
9, 77140, Note_on_c, 6, 72, 0
9, 77160, Note_on_c, 6, 72, 110
9, 77260, Note_on_c, 6, 72, 0
9, 77280, Note_on_c, 6, 72, 110
9, 77380, Note_on_c, 6, 72, 0
9, 77400, Note_on_c, 6, 71, 110
9, 77500, Note_on_c, 6, 71, 0
9, 77640, Note_on_c, 6, 71, 110
9, 77740, Note_on_c, 6, 71, 0
9, 77760, Note_on_c, 6, 69, 110
9, 77860, Note_on_c, 6, 69, 0
9, 78000, Note_on_c, 6, 69, 110
9, 78100, Note_on_c, 6, 69, 0
9, 78120, Note_on_c, 6, 72, 110
9, 78220, Note_on_c, 6, 72, 0
9, 78360, Note_on_c, 6, 72, 110
9, 78460, Note_on_c, 6, 72, 0
9, 86400, Note_on_c, 6, 79, 110
9, 86500, Note_on_c, 6, 79, 0
9, 86520, Note_on_c, 6, 79, 110
9, 86620, Note_on_c, 6, 79, 0
9, 86760, Note_on_c, 6, 78, 110
9, 86860, Note_on_c, 6, 78, 0
9, 87000, Note_on_c, 6, 77, 110
9, 87100, Note_on_c, 6, 77, 0
9, 87120, Note_on_c, 6, 77, 110
9, 87220, Note_on_c, 6, 77, 0
9, 87360, Note_on_c, 6, 76, 110
9, 87460, Note_on_c, 6, 76, 0
9, 87480, Note_on_c, 6, 75, 110
9, 87580, Note_on_c, 6, 75, 0
9, 87720, Note_on_c, 6, 75, 110
9, 87820, Note_on_c, 6, 75, 0
9, 87840, Note_on_c, 6, 74, 110
9, 87940, Note_on_c, 6, 74, 0
9, 88080, Note_on_c, 6, 74, 110
9, 88180, Note_on_c, 6, 74, 0
9, 88200, Note_on_c, 6, 73, 110
9, 88300, Note_on_c, 6, 73, 0
9, 90240, Note_on_c, 6, 79, 110
9, 90340, Note_on_c, 6, 79, 0
9, 90360, Note_on_c, 6, 79, 110
9, 90460, Note_on_c, 6, 79, 0
9, 90600, Note_on_c, 6, 78, 110
9, 90700, Note_on_c, 6, 78, 0
9, 90840, Note_on_c, 6, 77, 110
9, 90940, Note_on_c, 6, 77, 0
9, 90960, Note_on_c, 6, 77, 110
9, 91060, Note_on_c, 6, 77, 0
9, 91200, Note_on_c, 6, 76, 110
9, 91300, Note_on_c, 6, 76, 0
9, 91320, Note_on_c, 6, 75, 110
9, 91420, Note_on_c, 6, 75, 0
9, 91560, Note_on_c, 6, 75, 110
9, 91660, Note_on_c, 6, 75, 0
9, 91680, Note_on_c, 6, 74, 110
9, 91780, Note_on_c, 6, 74, 0
9, 109440, Note_on_c, 6, 79, 110
9, 109540, Note_on_c, 6, 79, 0
9, 109560, Note_on_c, 6, 79, 110
9, 109660, Note_on_c, 6, 79, 0
9, 109800, Note_on_c, 6, 78, 110
9, 109900, Note_on_c, 6, 78, 0
9, 110040, Note_on_c, 6, 77, 110
9, 110140, Note_on_c, 6, 77, 0
9, 110160, Note_on_c, 6, 77, 110
9, 110260, Note_on_c, 6, 77, 0
9, 110400, Note_on_c, 6, 76, 110
9, 110500, Note_on_c, 6, 76, 0
9, 110520, Note_on_c, 6, 75, 110
9, 110620, Note_on_c, 6, 75, 0
9, 110760, Note_on_c, 6, 75, 110
9, 110860, Note_on_c, 6, 75, 0
9, 110880, Note_on_c, 6, 74, 110
9, 110980, Note_on_c, 6, 74, 0
9, 111120, Note_on_c, 6, 74, 110
9, 111220, Note_on_c, 6, 74, 0
9, 111240, Note_on_c, 6, 73, 110
9, 111340, Note_on_c, 6, 73, 0
9, 111480, Note_on_c, 6, 73, 110
9, 111580, Note_on_c, 6, 73, 0
9, 111600, Note_on_c, 6, 72, 110
9, 111700, Note_on_c, 6, 72, 0
9, 111720, Note_on_c, 6, 72, 110
9, 111820, Note_on_c, 6, 72, 0
9, 111840, Note_on_c, 6, 72, 110
9, 111940, Note_on_c, 6, 72, 0
9, 111960, Note_on_c, 6, 71, 110
9, 112060, Note_on_c, 6, 71, 0
9, 112200, Note_on_c, 6, 71, 110
9, 112300, Note_on_c, 6, 71, 0
9, 112320, Note_on_c, 6, 69, 110
9, 112420, Note_on_c, 6, 69, 0
9, 112560, Note_on_c, 6, 69, 110
9, 112660, Note_on_c, 6, 69, 0
9, 112680, Note_on_c, 6, 72, 110
9, 112780, Note_on_c, 6, 72, 0
9, 112920, Note_on_c, 6, 72, 110
9, 113020, Note_on_c, 6, 72, 0
9, 113280, Note_on_c, 6, 79, 110
9, 113380, Note_on_c, 6, 79, 0
9, 113400, Note_on_c, 6, 79, 110
9, 113500, Note_on_c, 6, 79, 0
9, 113640, Note_on_c, 6, 78, 110
9, 113740, Note_on_c, 6, 78, 0
9, 113880, Note_on_c, 6, 77, 110
9, 113980, Note_on_c, 6, 77, 0
9, 114000, Note_on_c, 6, 77, 110
9, 114100, Note_on_c, 6, 77, 0
9, 114240, Note_on_c, 6, 76, 110
9, 114340, Note_on_c, 6, 76, 0
9, 114360, Note_on_c, 6, 75, 110
9, 114460, Note_on_c, 6, 75, 0
9, 114600, Note_on_c, 6, 75, 110
9, 114700, Note_on_c, 6, 75, 0
9, 114720, Note_on_c, 6, 74, 110
9, 114820, Note_on_c, 6, 74, 0
9, 114960, Note_on_c, 6, 74, 110
9, 115060, Note_on_c, 6, 74, 0
9, 115080, Note_on_c, 6, 73, 110
9, 115180, Note_on_c, 6, 73, 0
9, 115320, Note_on_c, 6, 73, 110
9, 115420, Note_on_c, 6, 73, 0
9, 115440, Note_on_c, 6, 72, 110
9, 115540, Note_on_c, 6, 72, 0
9, 115560, Note_on_c, 6, 72, 110
9, 115660, Note_on_c, 6, 72, 0
9, 115680, Note_on_c, 6, 72, 110
9, 115780, Note_on_c, 6, 72, 0
9, 115800, Note_on_c, 6, 71, 110
9, 115900, Note_on_c, 6, 71, 0
9, 116040, Note_on_c, 6, 71, 110
9, 116140, Note_on_c, 6, 71, 0
9, 116160, Note_on_c, 6, 69, 110
9, 116260, Note_on_c, 6, 69, 0
9, 116400, Note_on_c, 6, 69, 110
9, 116500, Note_on_c, 6, 69, 0
9, 116520, Note_on_c, 6, 72, 110
9, 116620, Note_on_c, 6, 72, 0
9, 116760, Note_on_c, 6, 72, 110
9, 116860, Note_on_c, 6, 72, 0
9, 117120, Note_on_c, 6, 79, 110
9, 117220, Note_on_c, 6, 79, 0
9, 117240, Note_on_c, 6, 79, 110
9, 117340, Note_on_c, 6, 79, 0
9, 117480, Note_on_c, 6, 78, 110
9, 117580, Note_on_c, 6, 78, 0
9, 117720, Note_on_c, 6, 77, 110
9, 117820, Note_on_c, 6, 77, 0
9, 117840, Note_on_c, 6, 77, 110
9, 117940, Note_on_c, 6, 77, 0
9, 118080, Note_on_c, 6, 76, 110
9, 118180, Note_on_c, 6, 76, 0
9, 118200, Note_on_c, 6, 75, 110
9, 118300, Note_on_c, 6, 75, 0
9, 118440, Note_on_c, 6, 75, 110
9, 118540, Note_on_c, 6, 75, 0
9, 118560, Note_on_c, 6, 74, 110
9, 118660, Note_on_c, 6, 74, 0
9, 118800, Note_on_c, 6, 74, 110
9, 118900, Note_on_c, 6, 74, 0
9, 118920, Note_on_c, 6, 73, 110
9, 119020, Note_on_c, 6, 73, 0
9, 119160, Note_on_c, 6, 73, 110
9, 119260, Note_on_c, 6, 73, 0
9, 119280, Note_on_c, 6, 72, 110
9, 119380, Note_on_c, 6, 72, 0
9, 119400, Note_on_c, 6, 72, 110
9, 119500, Note_on_c, 6, 72, 0
9, 119520, Note_on_c, 6, 72, 110
9, 119620, Note_on_c, 6, 72, 0
9, 119640, Note_on_c, 6, 71, 110
9, 119740, Note_on_c, 6, 71, 0
9, 119880, Note_on_c, 6, 71, 110
9, 119980, Note_on_c, 6, 71, 0
9, 120000, Note_on_c, 6, 69, 110
9, 120100, Note_on_c, 6, 69, 0
9, 120240, Note_on_c, 6, 69, 110
9, 120340, Note_on_c, 6, 69, 0
9, 120360, Note_on_c, 6, 72, 110
9, 120460, Note_on_c, 6, 72, 0
9, 120600, Note_on_c, 6, 72, 110
9, 120700, Note_on_c, 6, 72, 0
9, 120960, Note_on_c, 6, 79, 110
9, 121060, Note_on_c, 6, 79, 0
9, 121080, Note_on_c, 6, 79, 110
9, 121180, Note_on_c, 6, 79, 0
9, 121320, Note_on_c, 6, 78, 110
9, 121420, Note_on_c, 6, 78, 0
9, 121560, Note_on_c, 6, 77, 110
9, 121660, Note_on_c, 6, 77, 0
9, 121680, Note_on_c, 6, 77, 110
9, 121780, Note_on_c, 6, 77, 0
9, 121920, Note_on_c, 6, 76, 110
9, 122020, Note_on_c, 6, 76, 0
9, 122040, Note_on_c, 6, 75, 110
9, 122140, Note_on_c, 6, 75, 0
9, 122280, Note_on_c, 6, 75, 110
9, 122380, Note_on_c, 6, 75, 0
9, 122400, Note_on_c, 6, 74, 110
9, 122500, Note_on_c, 6, 74, 0
9, 122640, Note_on_c, 6, 74, 110
9, 122740, Note_on_c, 6, 74, 0
9, 122760, Note_on_c, 6, 73, 110
9, 122860, Note_on_c, 6, 73, 0
9, 122860, End_track
10, 0, Start_track
10, 0, Program_c, 7, 56
10, 0, Control_c, 7, 7, 81
10, 17040, Note_on_c, 7, 60, 110
10, 17140, Note_on_c, 7, 60, 0
10, 17280, Note_on_c, 7, 60, 110
10, 17380, Note_on_c, 7, 60, 0
10, 18000, Note_on_c, 7, 65, 110
10, 18100, Note_on_c, 7, 65, 0
10, 18240, Note_on_c, 7, 65, 110
10, 18340, Note_on_c, 7, 65, 0
10, 18960, Note_on_c, 7, 69, 110
10, 19060, Note_on_c, 7, 69, 0
10, 19200, Note_on_c, 7, 69, 110
10, 19300, Note_on_c, 7, 69, 0
10, 19920, Note_on_c, 7, 67, 110
10, 20020, Note_on_c, 7, 67, 0
10, 20160, Note_on_c, 7, 67, 110
10, 20260, Note_on_c, 7, 67, 0
10, 20400, Note_on_c, 7, 67, 110
10, 20500, Note_on_c, 7, 67, 0
10, 20520, Note_on_c, 7, 69, 110
10, 20620, Note_on_c, 7, 69, 0
10, 20640, Note_on_c, 7, 72, 110
10, 20740, Note_on_c, 7, 72, 0
10, 20760, Note_on_c, 7, 69, 110
10, 20860, Note_on_c, 7, 69, 0
10, 20880, Note_on_c, 7, 60, 110
10, 20980, Note_on_c, 7, 60, 0
10, 21120, Note_on_c, 7, 60, 110
10, 21220, Note_on_c, 7, 60, 0
10, 21840, Note_on_c, 7, 65, 110
10, 21940, Note_on_c, 7, 65, 0
10, 22080, Note_on_c, 7, 65, 110
10, 22180, Note_on_c, 7, 65, 0
10, 22800, Note_on_c, 7, 69, 110
10, 22900, Note_on_c, 7, 69, 0
10, 23040, Note_on_c, 7, 69, 110
10, 23140, Note_on_c, 7, 69, 0
10, 23760, Note_on_c, 7, 67, 110
10, 23860, Note_on_c, 7, 67, 0
10, 24000, Note_on_c, 7, 67, 110
10, 24100, Note_on_c, 7, 67, 0
10, 24240, Note_on_c, 7, 67, 110
10, 24340, Note_on_c, 7, 67, 0
10, 24360, Note_on_c, 7, 69, 110
10, 24460, Note_on_c, 7, 69, 0
10, 24480, Note_on_c, 7, 72, 110
10, 24580, Note_on_c, 7, 72, 0
10, 24600, Note_on_c, 7, 69, 110
10, 24700, Note_on_c, 7, 69, 0
10, 24720, Note_on_c, 7, 60, 110
10, 24720, Note_on_c, 7, 72, 110
10, 24820, Note_on_c, 7, 60, 0
10, 24820, Note_on_c, 7, 72, 0
10, 24960, Note_on_c, 7, 60, 110
10, 24960, Note_on_c, 7, 72, 110
10, 25060, Note_on_c, 7, 60, 0
10, 25060, Note_on_c, 7, 72, 0
10, 25680, Note_on_c, 7, 65, 110
10, 25680, Note_on_c, 7, 77, 110
10, 25780, Note_on_c, 7, 65, 0
10, 25780, Note_on_c, 7, 77, 0
10, 25920, Note_on_c, 7, 65, 110
10, 25920, Note_on_c, 7, 77, 110
10, 26020, Note_on_c, 7, 65, 0
10, 26020, Note_on_c, 7, 77, 0
10, 26640, Note_on_c, 7, 69, 110
10, 26640, Note_on_c, 7, 81, 110
10, 26740, Note_on_c, 7, 69, 0
10, 26740, Note_on_c, 7, 81, 0
10, 26880, Note_on_c, 7, 69, 110
10, 26880, Note_on_c, 7, 81, 110
10, 26980, Note_on_c, 7, 69, 0
10, 26980, Note_on_c, 7, 81, 0
10, 27600, Note_on_c, 7, 67, 110
10, 27600, Note_on_c, 7, 79, 110
10, 27700, Note_on_c, 7, 67, 0
10, 27700, Note_on_c, 7, 79, 0
10, 27840, Note_on_c, 7, 67, 110
10, 27840, Note_on_c, 7, 79, 110
10, 27940, Note_on_c, 7, 67, 0
10, 27940, Note_on_c, 7, 79, 0
10, 28080, Note_on_c, 7, 67, 110
10, 28080, Note_on_c, 7, 79, 110
10, 28180, Note_on_c, 7, 67, 0
10, 28180, Note_on_c, 7, 79, 0
10, 28200, Note_on_c, 7, 69, 110
10, 28200, Note_on_c, 7, 81, 110
10, 28300, Note_on_c, 7, 69, 0
10, 28300, Note_on_c, 7, 81, 0
10, 28320, Note_on_c, 7, 72, 110
10, 28320, Note_on_c, 7, 84, 110
10, 28420, Note_on_c, 7, 72, 0
10, 28420, Note_on_c, 7, 84, 0
10, 28440, Note_on_c, 7, 69, 110
10, 28440, Note_on_c, 7, 81, 110
10, 28540, Note_on_c, 7, 69, 0
10, 28540, Note_on_c, 7, 81, 0
10, 28560, Note_on_c, 7, 60, 110
10, 28560, Note_on_c, 7, 72, 110
10, 28660, Note_on_c, 7, 60, 0
10, 28660, Note_on_c, 7, 72, 0
10, 28800, Note_on_c, 7, 60, 110
10, 28800, Note_on_c, 7, 72, 110
10, 28900, Note_on_c, 7, 60, 0
10, 28900, Note_on_c, 7, 72, 0
10, 29520, Note_on_c, 7, 65, 110
10, 29520, Note_on_c, 7, 77, 110
10, 29620, Note_on_c, 7, 65, 0
10, 29620, Note_on_c, 7, 77, 0
10, 29760, Note_on_c, 7, 65, 110
10, 29760, Note_on_c, 7, 77, 110
10, 29860, Note_on_c, 7, 65, 0
10, 29860, Note_on_c, 7, 77, 0
10, 30480, Note_on_c, 7, 69, 110
10, 30480, Note_on_c, 7, 81, 110
10, 30580, Note_on_c, 7, 69, 0
10, 30580, Note_on_c, 7, 81, 0
10, 30720, Note_on_c, 7, 69, 110
10, 30720, Note_on_c, 7, 81, 110
10, 30820, Note_on_c, 7, 69, 0
10, 30820, Note_on_c, 7, 81, 0
10, 31440, Note_on_c, 7, 67, 110
10, 31440, Note_on_c, 7, 79, 110
10, 31540, Note_on_c, 7, 67, 0
10, 31540, Note_on_c, 7, 79, 0
10, 31680, Note_on_c, 7, 67, 110
10, 31680, Note_on_c, 7, 79, 110
10, 31780, Note_on_c, 7, 67, 0
10, 31780, Note_on_c, 7, 79, 0
10, 31920, Note_on_c, 7, 67, 110
10, 31920, Note_on_c, 7, 79, 110
10, 32020, Note_on_c, 7, 67, 0
10, 32020, Note_on_c, 7, 79, 0
10, 32040, Note_on_c, 7, 69, 110
10, 32040, Note_on_c, 7, 81, 110
10, 32140, Note_on_c, 7, 69, 0
10, 32140, Note_on_c, 7, 81, 0
10, 32160, Note_on_c, 7, 72, 110
10, 32160, Note_on_c, 7, 84, 110
10, 32260, Note_on_c, 7, 72, 0
10, 32260, Note_on_c, 7, 84, 0
10, 32280, Note_on_c, 7, 69, 110
10, 32280, Note_on_c, 7, 81, 110
10, 32380, Note_on_c, 7, 69, 0
10, 32380, Note_on_c, 7, 81, 0
10, 40800, Note_on_c, 7, 77, 110
10, 40800, Note_on_c, 7, 65, 110
10, 40900, Note_on_c, 7, 77, 0
10, 40900, Note_on_c, 7, 65, 0
10, 40920, Note_on_c, 7, 77, 110
10, 40920, Note_on_c, 7, 65, 110
10, 41020, Note_on_c, 7, 77, 0
10, 41020, Note_on_c, 7, 65, 0
10, 41040, Note_on_c, 7, 77, 110
10, 41040, Note_on_c, 7, 65, 110
10, 41260, Note_on_c, 7, 77, 0
10, 41260, Note_on_c, 7, 65, 0
10, 41280, Note_on_c, 7, 76, 110
10, 41280, Note_on_c, 7, 64, 110
10, 41380, Note_on_c, 7, 76, 0
10, 41380, Note_on_c, 7, 64, 0
10, 41400, Note_on_c, 7, 74, 110
10, 41400, Note_on_c, 7, 62, 110
10, 41500, Note_on_c, 7, 74, 0
10, 41500, Note_on_c, 7, 62, 0
10, 41520, Note_on_c, 7, 72, 110
10, 41520, Note_on_c, 7, 60, 110
10, 41740, Note_on_c, 7, 72, 0
10, 41740, Note_on_c, 7, 60, 0
10, 42000, Note_on_c, 7, 62, 110
10, 42000, Note_on_c, 7, 74, 110
10, 42100, Note_on_c, 7, 62, 0
10, 42100, Note_on_c, 7, 74, 0
10, 42120, Note_on_c, 7, 64, 110
10, 42120, Note_on_c, 7, 76, 110
10, 42220, Note_on_c, 7, 64, 0
10, 42220, Note_on_c, 7, 76, 0
10, 42240, Note_on_c, 7, 74, 110
10, 42240, Note_on_c, 7, 62, 110
10, 42340, Note_on_c, 7, 74, 0
10, 42340, Note_on_c, 7, 62, 0
10, 42360, Note_on_c, 7, 72, 110
10, 42360, Note_on_c, 7, 60, 110
10, 42460, Note_on_c, 7, 72, 0
10, 42460, Note_on_c, 7, 60, 0
10, 42480, Note_on_c, 7, 74, 110
10, 42480, Note_on_c, 7, 62, 110
10, 42580, Note_on_c, 7, 74, 0
10, 42580, Note_on_c, 7, 62, 0
10, 42600, Note_on_c, 7, 72, 110
10, 42600, Note_on_c, 7, 60, 110
10, 42700, Note_on_c, 7, 72, 0
10, 42700, Note_on_c, 7, 60, 0
10, 42720, Note_on_c, 7, 74, 110
10, 42720, Note_on_c, 7, 62, 110
10, 42940, Note_on_c, 7, 74, 0
10, 42940, Note_on_c, 7, 62, 0
10, 42960, Note_on_c, 7, 74, 110
10, 42960, Note_on_c, 7, 62, 110
10, 43180, Note_on_c, 7, 74, 0
10, 43180, Note_on_c, 7, 62, 0
10, 63120, Note_on_c, 7, 60, 110
10, 63220, Note_on_c, 7, 60, 0
10, 63360, Note_on_c, 7, 60, 110
10, 63460, Note_on_c, 7, 60, 0
10, 64080, Note_on_c, 7, 65, 110
10, 64180, Note_on_c, 7, 65, 0
10, 64320, Note_on_c, 7, 65, 110
10, 64420, Note_on_c, 7, 65, 0
10, 65040, Note_on_c, 7, 69, 110
10, 65140, Note_on_c, 7, 69, 0
10, 65280, Note_on_c, 7, 69, 110
10, 65380, Note_on_c, 7, 69, 0
10, 66000, Note_on_c, 7, 67, 110
10, 66100, Note_on_c, 7, 67, 0
10, 66240, Note_on_c, 7, 67, 110
10, 66340, Note_on_c, 7, 67, 0
10, 66480, Note_on_c, 7, 67, 110
10, 66580, Note_on_c, 7, 67, 0
10, 66600, Note_on_c, 7, 69, 110
10, 66700, Note_on_c, 7, 69, 0
10, 66720, Note_on_c, 7, 72, 110
10, 66820, Note_on_c, 7, 72, 0
10, 66840, Note_on_c, 7, 69, 110
10, 66940, Note_on_c, 7, 69, 0
10, 66960, Note_on_c, 7, 60, 110
10, 67060, Note_on_c, 7, 60, 0
10, 67200, Note_on_c, 7, 60, 110
10, 67300, Note_on_c, 7, 60, 0
10, 67920, Note_on_c, 7, 65, 110
10, 68020, Note_on_c, 7, 65, 0
10, 68160, Note_on_c, 7, 65, 110
10, 68260, Note_on_c, 7, 65, 0
10, 68880, Note_on_c, 7, 69, 110
10, 68980, Note_on_c, 7, 69, 0
10, 69120, Note_on_c, 7, 69, 110
10, 69220, Note_on_c, 7, 69, 0
10, 69840, Note_on_c, 7, 67, 110
10, 69940, Note_on_c, 7, 67, 0
10, 70080, Note_on_c, 7, 67, 110
10, 70180, Note_on_c, 7, 67, 0
10, 70320, Note_on_c, 7, 67, 110
10, 70420, Note_on_c, 7, 67, 0
10, 70440, Note_on_c, 7, 69, 110
10, 70540, Note_on_c, 7, 69, 0
10, 70560, Note_on_c, 7, 72, 110
10, 70660, Note_on_c, 7, 72, 0
10, 70680, Note_on_c, 7, 69, 110
10, 70780, Note_on_c, 7, 69, 0
10, 70800, Note_on_c, 7, 60, 110
10, 70800, Note_on_c, 7, 72, 110
10, 70900, Note_on_c, 7, 60, 0
10, 70900, Note_on_c, 7, 72, 0
10, 71040, Note_on_c, 7, 60, 110
10, 71040, Note_on_c, 7, 72, 110
10, 71140, Note_on_c, 7, 60, 0
10, 71140, Note_on_c, 7, 72, 0
10, 71760, Note_on_c, 7, 65, 110
10, 71760, Note_on_c, 7, 77, 110
10, 71860, Note_on_c, 7, 65, 0
10, 71860, Note_on_c, 7, 77, 0
10, 72000, Note_on_c, 7, 65, 110
10, 72000, Note_on_c, 7, 77, 110
10, 72100, Note_on_c, 7, 65, 0
10, 72100, Note_on_c, 7, 77, 0
10, 72720, Note_on_c, 7, 69, 110
10, 72720, Note_on_c, 7, 81, 110
10, 72820, Note_on_c, 7, 69, 0
10, 72820, Note_on_c, 7, 81, 0
10, 72960, Note_on_c, 7, 69, 110
10, 72960, Note_on_c, 7, 81, 110
10, 73060, Note_on_c, 7, 69, 0
10, 73060, Note_on_c, 7, 81, 0
10, 73680, Note_on_c, 7, 67, 110
10, 73680, Note_on_c, 7, 79, 110
10, 73780, Note_on_c, 7, 67, 0
10, 73780, Note_on_c, 7, 79, 0
10, 73920, Note_on_c, 7, 67, 110
10, 73920, Note_on_c, 7, 79, 110
10, 74020, Note_on_c, 7, 67, 0
10, 74020, Note_on_c, 7, 79, 0
10, 74160, Note_on_c, 7, 67, 110
10, 74160, Note_on_c, 7, 79, 110
10, 74260, Note_on_c, 7, 67, 0
10, 74260, Note_on_c, 7, 79, 0
10, 74280, Note_on_c, 7, 69, 110
10, 74280, Note_on_c, 7, 81, 110
10, 74380, Note_on_c, 7, 69, 0
10, 74380, Note_on_c, 7, 81, 0
10, 74400, Note_on_c, 7, 72, 110
10, 74400, Note_on_c, 7, 84, 110
10, 74500, Note_on_c, 7, 72, 0
10, 74500, Note_on_c, 7, 84, 0
10, 74520, Note_on_c, 7, 69, 110
10, 74520, Note_on_c, 7, 81, 110
10, 74620, Note_on_c, 7, 69, 0
10, 74620, Note_on_c, 7, 81, 0
10, 74640, Note_on_c, 7, 60, 110
10, 74640, Note_on_c, 7, 72, 110
10, 74740, Note_on_c, 7, 60, 0
10, 74740, Note_on_c, 7, 72, 0
10, 74880, Note_on_c, 7, 60, 110
10, 74880, Note_on_c, 7, 72, 110
10, 74980, Note_on_c, 7, 60, 0
10, 74980, Note_on_c, 7, 72, 0
10, 75600, Note_on_c, 7, 65, 110
10, 75600, Note_on_c, 7, 77, 110
10, 75700, Note_on_c, 7, 65, 0
10, 75700, Note_on_c, 7, 77, 0
10, 75840, Note_on_c, 7, 65, 110
10, 75840, Note_on_c, 7, 77, 110
10, 75940, Note_on_c, 7, 65, 0
10, 75940, Note_on_c, 7, 77, 0
10, 76560, Note_on_c, 7, 69, 110
10, 76560, Note_on_c, 7, 81, 110
10, 76660, Note_on_c, 7, 69, 0
10, 76660, Note_on_c, 7, 81, 0
10, 76800, Note_on_c, 7, 69, 110
10, 76800, Note_on_c, 7, 81, 110
10, 76900, Note_on_c, 7, 69, 0
10, 76900, Note_on_c, 7, 81, 0
10, 77520, Note_on_c, 7, 67, 110
10, 77520, Note_on_c, 7, 79, 110
10, 77620, Note_on_c, 7, 67, 0
10, 77620, Note_on_c, 7, 79, 0
10, 77760, Note_on_c, 7, 67, 110
10, 77760, Note_on_c, 7, 79, 110
10, 77860, Note_on_c, 7, 67, 0
10, 77860, Note_on_c, 7, 79, 0
10, 78000, Note_on_c, 7, 67, 110
10, 78000, Note_on_c, 7, 79, 110
10, 78100, Note_on_c, 7, 67, 0
10, 78100, Note_on_c, 7, 79, 0
10, 78120, Note_on_c, 7, 69, 110
10, 78120, Note_on_c, 7, 81, 110
10, 78220, Note_on_c, 7, 69, 0
10, 78220, Note_on_c, 7, 81, 0
10, 78240, Note_on_c, 7, 72, 110
10, 78240, Note_on_c, 7, 84, 110
10, 78340, Note_on_c, 7, 72, 0
10, 78340, Note_on_c, 7, 84, 0
10, 78360, Note_on_c, 7, 69, 110
10, 78360, Note_on_c, 7, 81, 110
10, 78460, Note_on_c, 7, 69, 0
10, 78460, Note_on_c, 7, 81, 0
10, 86880, Note_on_c, 7, 65, 110
10, 86880, Note_on_c, 7, 77, 110
10, 86980, Note_on_c, 7, 65, 0
10, 86980, Note_on_c, 7, 77, 0
10, 87000, Note_on_c, 7, 65, 110
10, 87000, Note_on_c, 7, 77, 110
10, 87100, Note_on_c, 7, 65, 0
10, 87100, Note_on_c, 7, 77, 0
10, 87120, Note_on_c, 7, 65, 110
10, 87120, Note_on_c, 7, 77, 110
10, 87340, Note_on_c, 7, 65, 0
10, 87340, Note_on_c, 7, 77, 0
10, 87360, Note_on_c, 7, 64, 110
10, 87360, Note_on_c, 7, 76, 110
10, 87460, Note_on_c, 7, 64, 0
10, 87460, Note_on_c, 7, 76, 0
10, 87480, Note_on_c, 7, 62, 110
10, 87480, Note_on_c, 7, 74, 110
10, 87580, Note_on_c, 7, 62, 0
10, 87580, Note_on_c, 7, 74, 0
10, 87600, Note_on_c, 7, 60, 110
10, 87600, Note_on_c, 7, 72, 110
10, 87820, Note_on_c, 7, 60, 0
10, 87820, Note_on_c, 7, 72, 0
10, 88080, Note_on_c, 7, 62, 110
10, 88080, Note_on_c, 7, 74, 110
10, 88180, Note_on_c, 7, 62, 0
10, 88180, Note_on_c, 7, 74, 0
10, 88200, Note_on_c, 7, 64, 110
10, 88200, Note_on_c, 7, 76, 110
10, 88300, Note_on_c, 7, 64, 0
10, 88300, Note_on_c, 7, 76, 0
10, 88320, Note_on_c, 7, 62, 110
10, 88320, Note_on_c, 7, 74, 110
10, 88420, Note_on_c, 7, 62, 0
10, 88420, Note_on_c, 7, 74, 0
10, 88440, Note_on_c, 7, 60, 110
10, 88440, Note_on_c, 7, 72, 110
10, 88540, Note_on_c, 7, 60, 0
10, 88540, Note_on_c, 7, 72, 0
10, 88560, Note_on_c, 7, 62, 110
10, 88560, Note_on_c, 7, 74, 110
10, 88660, Note_on_c, 7, 62, 0
10, 88660, Note_on_c, 7, 74, 0
10, 88680, Note_on_c, 7, 60, 110
10, 88680, Note_on_c, 7, 72, 110
10, 88780, Note_on_c, 7, 60, 0
10, 88780, Note_on_c, 7, 72, 0
10, 88800, Note_on_c, 7, 62, 110
10, 88800, Note_on_c, 7, 74, 110
10, 89020, Note_on_c, 7, 62, 0
10, 89020, Note_on_c, 7, 74, 0
10, 89040, Note_on_c, 7, 62, 110
10, 89040, Note_on_c, 7, 74, 110
10, 89260, Note_on_c, 7, 62, 0
10, 89260, Note_on_c, 7, 74, 0
10, 109200, Note_on_c, 7, 60, 110
10, 109200, Note_on_c, 7, 72, 110
10, 109300, Note_on_c, 7, 60, 0
10, 109300, Note_on_c, 7, 72, 0
10, 109440, Note_on_c, 7, 60, 110
10, 109440, Note_on_c, 7, 72, 110
10, 109540, Note_on_c, 7, 60, 0
10, 109540, Note_on_c, 7, 72, 0
10, 110160, Note_on_c, 7, 65, 110
10, 110160, Note_on_c, 7, 77, 110
10, 110260, Note_on_c, 7, 65, 0
10, 110260, Note_on_c, 7, 77, 0
10, 110400, Note_on_c, 7, 65, 110
10, 110400, Note_on_c, 7, 77, 110
10, 110500, Note_on_c, 7, 65, 0
10, 110500, Note_on_c, 7, 77, 0
10, 111120, Note_on_c, 7, 69, 110
10, 111120, Note_on_c, 7, 81, 110
10, 111220, Note_on_c, 7, 69, 0
10, 111220, Note_on_c, 7, 81, 0
10, 111360, Note_on_c, 7, 69, 110
10, 111360, Note_on_c, 7, 81, 110
10, 111460, Note_on_c, 7, 69, 0
10, 111460, Note_on_c, 7, 81, 0
10, 112080, Note_on_c, 7, 67, 110
10, 112080, Note_on_c, 7, 79, 110
10, 112180, Note_on_c, 7, 67, 0
10, 112180, Note_on_c, 7, 79, 0
10, 112320, Note_on_c, 7, 67, 110
10, 112320, Note_on_c, 7, 79, 110
10, 112420, Note_on_c, 7, 67, 0
10, 112420, Note_on_c, 7, 79, 0
10, 112560, Note_on_c, 7, 67, 110
10, 112560, Note_on_c, 7, 79, 110
10, 112660, Note_on_c, 7, 67, 0
10, 112660, Note_on_c, 7, 79, 0
10, 112680, Note_on_c, 7, 69, 110
10, 112680, Note_on_c, 7, 81, 110
10, 112780, Note_on_c, 7, 69, 0
10, 112780, Note_on_c, 7, 81, 0
10, 112800, Note_on_c, 7, 72, 110
10, 112800, Note_on_c, 7, 84, 110
10, 112900, Note_on_c, 7, 72, 0
10, 112900, Note_on_c, 7, 84, 0
10, 112920, Note_on_c, 7, 69, 110
10, 112920, Note_on_c, 7, 81, 110
10, 113020, Note_on_c, 7, 69, 0
10, 113020, Note_on_c, 7, 81, 0
10, 113040, Note_on_c, 7, 60, 110
10, 113040, Note_on_c, 7, 72, 110
10, 113140, Note_on_c, 7, 60, 0
10, 113140, Note_on_c, 7, 72, 0
10, 113280, Note_on_c, 7, 60, 110
10, 113280, Note_on_c, 7, 72, 110
10, 113380, Note_on_c, 7, 60, 0
10, 113380, Note_on_c, 7, 72, 0
10, 114000, Note_on_c, 7, 65, 110
10, 114000, Note_on_c, 7, 77, 110
10, 114100, Note_on_c, 7, 65, 0
10, 114100, Note_on_c, 7, 77, 0
10, 114240, Note_on_c, 7, 65, 110
10, 114240, Note_on_c, 7, 77, 110
10, 114340, Note_on_c, 7, 65, 0
10, 114340, Note_on_c, 7, 77, 0
10, 114960, Note_on_c, 7, 69, 110
10, 114960, Note_on_c, 7, 81, 110
10, 115060, Note_on_c, 7, 69, 0
10, 115060, Note_on_c, 7, 81, 0
10, 115200, Note_on_c, 7, 69, 110
10, 115200, Note_on_c, 7, 81, 110
10, 115300, Note_on_c, 7, 69, 0
10, 115300, Note_on_c, 7, 81, 0
10, 115920, Note_on_c, 7, 67, 110
10, 115920, Note_on_c, 7, 79, 110
10, 116020, Note_on_c, 7, 67, 0
10, 116020, Note_on_c, 7, 79, 0
10, 116160, Note_on_c, 7, 67, 110
10, 116160, Note_on_c, 7, 79, 110
10, 116260, Note_on_c, 7, 67, 0
10, 116260, Note_on_c, 7, 79, 0
10, 116400, Note_on_c, 7, 67, 110
10, 116400, Note_on_c, 7, 79, 110
10, 116500, Note_on_c, 7, 67, 0
10, 116500, Note_on_c, 7, 79, 0
10, 116520, Note_on_c, 7, 69, 110
10, 116520, Note_on_c, 7, 81, 110
10, 116620, Note_on_c, 7, 69, 0
10, 116620, Note_on_c, 7, 81, 0
10, 116640, Note_on_c, 7, 72, 110
10, 116640, Note_on_c, 7, 84, 110
10, 116740, Note_on_c, 7, 72, 0
10, 116740, Note_on_c, 7, 84, 0
10, 116760, Note_on_c, 7, 69, 110
10, 116760, Note_on_c, 7, 81, 110
10, 116860, Note_on_c, 7, 69, 0
10, 116860, Note_on_c, 7, 81, 0
10, 116880, Note_on_c, 7, 60, 110
10, 116880, Note_on_c, 7, 72, 110
10, 116980, Note_on_c, 7, 60, 0
10, 116980, Note_on_c, 7, 72, 0
10, 117120, Note_on_c, 7, 60, 110
10, 117120, Note_on_c, 7, 72, 110
10, 117220, Note_on_c, 7, 60, 0
10, 117220, Note_on_c, 7, 72, 0
10, 117840, Note_on_c, 7, 65, 110
10, 117840, Note_on_c, 7, 77, 110
10, 117940, Note_on_c, 7, 65, 0
10, 117940, Note_on_c, 7, 77, 0
10, 118080, Note_on_c, 7, 65, 110
10, 118080, Note_on_c, 7, 77, 110
10, 118180, Note_on_c, 7, 65, 0
10, 118180, Note_on_c, 7, 77, 0
10, 118800, Note_on_c, 7, 69, 110
10, 118800, Note_on_c, 7, 81, 110
10, 118900, Note_on_c, 7, 69, 0
10, 118900, Note_on_c, 7, 81, 0
10, 119040, Note_on_c, 7, 69, 110
10, 119040, Note_on_c, 7, 81, 110
10, 119140, Note_on_c, 7, 69, 0
10, 119140, Note_on_c, 7, 81, 0
10, 119760, Note_on_c, 7, 67, 110
10, 119760, Note_on_c, 7, 79, 110
10, 119860, Note_on_c, 7, 67, 0
10, 119860, Note_on_c, 7, 79, 0
10, 120000, Note_on_c, 7, 67, 110
10, 120000, Note_on_c, 7, 79, 110
10, 120100, Note_on_c, 7, 67, 0
10, 120100, Note_on_c, 7, 79, 0
10, 120240, Note_on_c, 7, 67, 110
10, 120240, Note_on_c, 7, 79, 110
10, 120340, Note_on_c, 7, 67, 0
10, 120340, Note_on_c, 7, 79, 0
10, 120360, Note_on_c, 7, 69, 110
10, 120360, Note_on_c, 7, 81, 110
10, 120460, Note_on_c, 7, 69, 0
10, 120460, Note_on_c, 7, 81, 0
10, 120480, Note_on_c, 7, 72, 110
10, 120480, Note_on_c, 7, 84, 110
10, 120580, Note_on_c, 7, 72, 0
10, 120580, Note_on_c, 7, 84, 0
10, 120600, Note_on_c, 7, 69, 110
10, 120600, Note_on_c, 7, 81, 110
10, 120700, Note_on_c, 7, 69, 0
10, 120700, Note_on_c, 7, 81, 0
10, 120700, End_track
11, 0, Start_track
11, 0, Program_c, 8, 56
11, 0, Control_c, 8, 7, 79
11, 17040, Note_on_c, 8, 72, 110
11, 17040, Note_on_c, 8, 60, 110
11, 17140, Note_on_c, 8, 72, 0
11, 17140, Note_on_c, 8, 60, 0
11, 17280, Note_on_c, 8, 72, 110
11, 17280, Note_on_c, 8, 60, 110
11, 17380, Note_on_c, 8, 72, 0
11, 17380, Note_on_c, 8, 60, 0
11, 17520, Note_on_c, 8, 69, 110
11, 17520, Note_on_c, 8, 57, 110
11, 17620, Note_on_c, 8, 69, 0
11, 17620, Note_on_c, 8, 57, 0
11, 17640, Note_on_c, 8, 72, 110
11, 17640, Note_on_c, 8, 60, 110
11, 17740, Note_on_c, 8, 72, 0
11, 17740, Note_on_c, 8, 60, 0
11, 17760, Note_on_c, 8, 69, 110
11, 17760, Note_on_c, 8, 57, 110
11, 17860, Note_on_c, 8, 69, 0
11, 17860, Note_on_c, 8, 57, 0
11, 17880, Note_on_c, 8, 67, 110
11, 17880, Note_on_c, 8, 55, 110
11, 17960, Note_on_c, 8, 67, 0
11, 17960, Note_on_c, 8, 55, 0
11, 18000, Note_on_c, 8, 72, 110
11, 18000, Note_on_c, 8, 60, 110
11, 18100, Note_on_c, 8, 72, 0
11, 18100, Note_on_c, 8, 60, 0
11, 18240, Note_on_c, 8, 72, 110
11, 18240, Note_on_c, 8, 60, 110
11, 18340, Note_on_c, 8, 72, 0
11, 18340, Note_on_c, 8, 60, 0
11, 18480, Note_on_c, 8, 69, 110
11, 18480, Note_on_c, 8, 57, 110
11, 18580, Note_on_c, 8, 69, 0
11, 18580, Note_on_c, 8, 57, 0
11, 18600, Note_on_c, 8, 72, 110
11, 18600, Note_on_c, 8, 60, 110
11, 18700, Note_on_c, 8, 72, 0
11, 18700, Note_on_c, 8, 60, 0
11, 18720, Note_on_c, 8, 69, 110
11, 18720, Note_on_c, 8, 57, 110
11, 18820, Note_on_c, 8, 69, 0
11, 18820, Note_on_c, 8, 57, 0
11, 18840, Note_on_c, 8, 67, 110
11, 18840, Note_on_c, 8, 55, 110
11, 18920, Note_on_c, 8, 67, 0
11, 18920, Note_on_c, 8, 55, 0
11, 18960, Note_on_c, 8, 72, 110
11, 18960, Note_on_c, 8, 60, 110
11, 19060, Note_on_c, 8, 72, 0
11, 19060, Note_on_c, 8, 60, 0
11, 19200, Note_on_c, 8, 72, 110
11, 19200, Note_on_c, 8, 60, 110
11, 19300, Note_on_c, 8, 72, 0
11, 19300, Note_on_c, 8, 60, 0
11, 19440, Note_on_c, 8, 69, 110
11, 19440, Note_on_c, 8, 57, 110
11, 19540, Note_on_c, 8, 69, 0
11, 19540, Note_on_c, 8, 57, 0
11, 19560, Note_on_c, 8, 72, 110
11, 19560, Note_on_c, 8, 60, 110
11, 19660, Note_on_c, 8, 72, 0
11, 19660, Note_on_c, 8, 60, 0
11, 19680, Note_on_c, 8, 69, 110
11, 19680, Note_on_c, 8, 57, 110
11, 19780, Note_on_c, 8, 69, 0
11, 19780, Note_on_c, 8, 57, 0
11, 19800, Note_on_c, 8, 67, 110
11, 19800, Note_on_c, 8, 55, 110
11, 19880, Note_on_c, 8, 67, 0
11, 19880, Note_on_c, 8, 55, 0
11, 19920, Note_on_c, 8, 74, 110
11, 19920, Note_on_c, 8, 62, 110
11, 20020, Note_on_c, 8, 74, 0
11, 20020, Note_on_c, 8, 62, 0
11, 20160, Note_on_c, 8, 74, 110
11, 20160, Note_on_c, 8, 62, 110
11, 20260, Note_on_c, 8, 74, 0
11, 20260, Note_on_c, 8, 62, 0
11, 20400, Note_on_c, 8, 67, 110
11, 20400, Note_on_c, 8, 55, 110
11, 20500, Note_on_c, 8, 67, 0
11, 20500, Note_on_c, 8, 55, 0
11, 20520, Note_on_c, 8, 69, 110
11, 20520, Note_on_c, 8, 57, 110
11, 20620, Note_on_c, 8, 69, 0
11, 20620, Note_on_c, 8, 57, 0
11, 20640, Note_on_c, 8, 72, 110
11, 20640, Note_on_c, 8, 60, 110
11, 20740, Note_on_c, 8, 72, 0
11, 20740, Note_on_c, 8, 60, 0
11, 20760, Note_on_c, 8, 69, 110
11, 20760, Note_on_c, 8, 57, 110
11, 20840, Note_on_c, 8, 69, 0
11, 20840, Note_on_c, 8, 57, 0
11, 20880, Note_on_c, 8, 72, 110
11, 20880, Note_on_c, 8, 60, 110
11, 20980, Note_on_c, 8, 72, 0
11, 20980, Note_on_c, 8, 60, 0
11, 21120, Note_on_c, 8, 72, 110
11, 21120, Note_on_c, 8, 60, 110
11, 21220, Note_on_c, 8, 72, 0
11, 21220, Note_on_c, 8, 60, 0
11, 21360, Note_on_c, 8, 69, 110
11, 21360, Note_on_c, 8, 57, 110
11, 21460, Note_on_c, 8, 69, 0
11, 21460, Note_on_c, 8, 57, 0
11, 21480, Note_on_c, 8, 72, 110
11, 21480, Note_on_c, 8, 60, 110
11, 21580, Note_on_c, 8, 72, 0
11, 21580, Note_on_c, 8, 60, 0
11, 21600, Note_on_c, 8, 69, 110
11, 21600, Note_on_c, 8, 57, 110
11, 21700, Note_on_c, 8, 69, 0
11, 21700, Note_on_c, 8, 57, 0
11, 21720, Note_on_c, 8, 67, 110
11, 21720, Note_on_c, 8, 55, 110
11, 21800, Note_on_c, 8, 67, 0
11, 21800, Note_on_c, 8, 55, 0
11, 21840, Note_on_c, 8, 72, 110
11, 21840, Note_on_c, 8, 60, 110
11, 21940, Note_on_c, 8, 72, 0
11, 21940, Note_on_c, 8, 60, 0
11, 22080, Note_on_c, 8, 72, 110
11, 22080, Note_on_c, 8, 60, 110
11, 22180, Note_on_c, 8, 72, 0
11, 22180, Note_on_c, 8, 60, 0
11, 22320, Note_on_c, 8, 69, 110
11, 22320, Note_on_c, 8, 57, 110
11, 22420, Note_on_c, 8, 69, 0
11, 22420, Note_on_c, 8, 57, 0
11, 22440, Note_on_c, 8, 72, 110
11, 22440, Note_on_c, 8, 60, 110
11, 22540, Note_on_c, 8, 72, 0
11, 22540, Note_on_c, 8, 60, 0
11, 22560, Note_on_c, 8, 69, 110
11, 22560, Note_on_c, 8, 57, 110
11, 22660, Note_on_c, 8, 69, 0
11, 22660, Note_on_c, 8, 57, 0
11, 22680, Note_on_c, 8, 67, 110
11, 22680, Note_on_c, 8, 55, 110
11, 22760, Note_on_c, 8, 67, 0
11, 22760, Note_on_c, 8, 55, 0
11, 22800, Note_on_c, 8, 72, 110
11, 22800, Note_on_c, 8, 60, 110
11, 22900, Note_on_c, 8, 72, 0
11, 22900, Note_on_c, 8, 60, 0
11, 23040, Note_on_c, 8, 72, 110
11, 23040, Note_on_c, 8, 60, 110
11, 23140, Note_on_c, 8, 72, 0
11, 23140, Note_on_c, 8, 60, 0
11, 23280, Note_on_c, 8, 69, 110
11, 23280, Note_on_c, 8, 57, 110
11, 23380, Note_on_c, 8, 69, 0
11, 23380, Note_on_c, 8, 57, 0
11, 23400, Note_on_c, 8, 72, 110
11, 23400, Note_on_c, 8, 60, 110
11, 23500, Note_on_c, 8, 72, 0
11, 23500, Note_on_c, 8, 60, 0
11, 23520, Note_on_c, 8, 69, 110
11, 23520, Note_on_c, 8, 57, 110
11, 23620, Note_on_c, 8, 69, 0
11, 23620, Note_on_c, 8, 57, 0
11, 23640, Note_on_c, 8, 67, 110
11, 23640, Note_on_c, 8, 55, 110
11, 23720, Note_on_c, 8, 67, 0
11, 23720, Note_on_c, 8, 55, 0
11, 23760, Note_on_c, 8, 74, 110
11, 23760, Note_on_c, 8, 62, 110
11, 23860, Note_on_c, 8, 74, 0
11, 23860, Note_on_c, 8, 62, 0
11, 24000, Note_on_c, 8, 74, 110
11, 24000, Note_on_c, 8, 62, 110
11, 24100, Note_on_c, 8, 74, 0
11, 24100, Note_on_c, 8, 62, 0
11, 24240, Note_on_c, 8, 67, 110
11, 24240, Note_on_c, 8, 55, 110
11, 24340, Note_on_c, 8, 67, 0
11, 24340, Note_on_c, 8, 55, 0
11, 24360, Note_on_c, 8, 69, 110
11, 24360, Note_on_c, 8, 57, 110
11, 24460, Note_on_c, 8, 69, 0
11, 24460, Note_on_c, 8, 57, 0
11, 24480, Note_on_c, 8, 72, 110
11, 24480, Note_on_c, 8, 60, 110
11, 24580, Note_on_c, 8, 72, 0
11, 24580, Note_on_c, 8, 60, 0
11, 24600, Note_on_c, 8, 69, 110
11, 24600, Note_on_c, 8, 57, 110
11, 24680, Note_on_c, 8, 69, 0
11, 24680, Note_on_c, 8, 57, 0
11, 24720, Note_on_c, 8, 72, 110
11, 24720, Note_on_c, 8, 60, 110
11, 24820, Note_on_c, 8, 72, 0
11, 24820, Note_on_c, 8, 60, 0
11, 24960, Note_on_c, 8, 72, 110
11, 24960, Note_on_c, 8, 60, 110
11, 25060, Note_on_c, 8, 72, 0
11, 25060, Note_on_c, 8, 60, 0
11, 25200, Note_on_c, 8, 69, 110
11, 25200, Note_on_c, 8, 57, 110
11, 25300, Note_on_c, 8, 69, 0
11, 25300, Note_on_c, 8, 57, 0
11, 25320, Note_on_c, 8, 72, 110
11, 25320, Note_on_c, 8, 60, 110
11, 25420, Note_on_c, 8, 72, 0
11, 25420, Note_on_c, 8, 60, 0
11, 25440, Note_on_c, 8, 69, 110
11, 25440, Note_on_c, 8, 57, 110
11, 25540, Note_on_c, 8, 69, 0
11, 25540, Note_on_c, 8, 57, 0
11, 25560, Note_on_c, 8, 67, 110
11, 25560, Note_on_c, 8, 55, 110
11, 25640, Note_on_c, 8, 67, 0
11, 25640, Note_on_c, 8, 55, 0
11, 25680, Note_on_c, 8, 72, 110
11, 25680, Note_on_c, 8, 60, 110
11, 25780, Note_on_c, 8, 72, 0
11, 25780, Note_on_c, 8, 60, 0
11, 25920, Note_on_c, 8, 72, 110
11, 25920, Note_on_c, 8, 60, 110
11, 26020, Note_on_c, 8, 72, 0
11, 26020, Note_on_c, 8, 60, 0
11, 26160, Note_on_c, 8, 69, 110
11, 26160, Note_on_c, 8, 57, 110
11, 26260, Note_on_c, 8, 69, 0
11, 26260, Note_on_c, 8, 57, 0
11, 26280, Note_on_c, 8, 72, 110
11, 26280, Note_on_c, 8, 60, 110
11, 26380, Note_on_c, 8, 72, 0
11, 26380, Note_on_c, 8, 60, 0
11, 26400, Note_on_c, 8, 69, 110
11, 26400, Note_on_c, 8, 57, 110
11, 26500, Note_on_c, 8, 69, 0
11, 26500, Note_on_c, 8, 57, 0
11, 26520, Note_on_c, 8, 67, 110
11, 26520, Note_on_c, 8, 55, 110
11, 26600, Note_on_c, 8, 67, 0
11, 26600, Note_on_c, 8, 55, 0
11, 26640, Note_on_c, 8, 72, 110
11, 26640, Note_on_c, 8, 60, 110
11, 26740, Note_on_c, 8, 72, 0
11, 26740, Note_on_c, 8, 60, 0
11, 26880, Note_on_c, 8, 72, 110
11, 26880, Note_on_c, 8, 60, 110
11, 26980, Note_on_c, 8, 72, 0
11, 26980, Note_on_c, 8, 60, 0
11, 27120, Note_on_c, 8, 69, 110
11, 27120, Note_on_c, 8, 57, 110
11, 27220, Note_on_c, 8, 69, 0
11, 27220, Note_on_c, 8, 57, 0
11, 27240, Note_on_c, 8, 72, 110
11, 27240, Note_on_c, 8, 60, 110
11, 27340, Note_on_c, 8, 72, 0
11, 27340, Note_on_c, 8, 60, 0
11, 27360, Note_on_c, 8, 69, 110
11, 27360, Note_on_c, 8, 57, 110
11, 27460, Note_on_c, 8, 69, 0
11, 27460, Note_on_c, 8, 57, 0
11, 27480, Note_on_c, 8, 67, 110
11, 27480, Note_on_c, 8, 55, 110
11, 27560, Note_on_c, 8, 67, 0
11, 27560, Note_on_c, 8, 55, 0
11, 27600, Note_on_c, 8, 74, 110
11, 27600, Note_on_c, 8, 62, 110
11, 27700, Note_on_c, 8, 74, 0
11, 27700, Note_on_c, 8, 62, 0
11, 27840, Note_on_c, 8, 74, 110
11, 27840, Note_on_c, 8, 62, 110
11, 27940, Note_on_c, 8, 74, 0
11, 27940, Note_on_c, 8, 62, 0
11, 28080, Note_on_c, 8, 67, 110
11, 28080, Note_on_c, 8, 55, 110
11, 28180, Note_on_c, 8, 67, 0
11, 28180, Note_on_c, 8, 55, 0
11, 28200, Note_on_c, 8, 69, 110
11, 28200, Note_on_c, 8, 57, 110
11, 28300, Note_on_c, 8, 69, 0
11, 28300, Note_on_c, 8, 57, 0
11, 28320, Note_on_c, 8, 72, 110
11, 28320, Note_on_c, 8, 60, 110
11, 28420, Note_on_c, 8, 72, 0
11, 28420, Note_on_c, 8, 60, 0
11, 28440, Note_on_c, 8, 69, 110
11, 28440, Note_on_c, 8, 57, 110
11, 28520, Note_on_c, 8, 69, 0
11, 28520, Note_on_c, 8, 57, 0
11, 28560, Note_on_c, 8, 72, 110
11, 28560, Note_on_c, 8, 60, 110
11, 28660, Note_on_c, 8, 72, 0
11, 28660, Note_on_c, 8, 60, 0
11, 28800, Note_on_c, 8, 72, 110
11, 28800, Note_on_c, 8, 60, 110
11, 28900, Note_on_c, 8, 72, 0
11, 28900, Note_on_c, 8, 60, 0
11, 29040, Note_on_c, 8, 69, 110
11, 29040, Note_on_c, 8, 57, 110
11, 29140, Note_on_c, 8, 69, 0
11, 29140, Note_on_c, 8, 57, 0
11, 29160, Note_on_c, 8, 72, 110
11, 29160, Note_on_c, 8, 60, 110
11, 29260, Note_on_c, 8, 72, 0
11, 29260, Note_on_c, 8, 60, 0
11, 29280, Note_on_c, 8, 69, 110
11, 29280, Note_on_c, 8, 57, 110
11, 29380, Note_on_c, 8, 69, 0
11, 29380, Note_on_c, 8, 57, 0
11, 29400, Note_on_c, 8, 67, 110
11, 29400, Note_on_c, 8, 55, 110
11, 29480, Note_on_c, 8, 67, 0
11, 29480, Note_on_c, 8, 55, 0
11, 29520, Note_on_c, 8, 72, 110
11, 29520, Note_on_c, 8, 60, 110
11, 29620, Note_on_c, 8, 72, 0
11, 29620, Note_on_c, 8, 60, 0
11, 29760, Note_on_c, 8, 72, 110
11, 29760, Note_on_c, 8, 60, 110
11, 29860, Note_on_c, 8, 72, 0
11, 29860, Note_on_c, 8, 60, 0
11, 30000, Note_on_c, 8, 69, 110
11, 30000, Note_on_c, 8, 57, 110
11, 30100, Note_on_c, 8, 69, 0
11, 30100, Note_on_c, 8, 57, 0
11, 30120, Note_on_c, 8, 72, 110
11, 30120, Note_on_c, 8, 60, 110
11, 30220, Note_on_c, 8, 72, 0
11, 30220, Note_on_c, 8, 60, 0
11, 30240, Note_on_c, 8, 69, 110
11, 30240, Note_on_c, 8, 57, 110
11, 30340, Note_on_c, 8, 69, 0
11, 30340, Note_on_c, 8, 57, 0
11, 30360, Note_on_c, 8, 67, 110
11, 30360, Note_on_c, 8, 55, 110
11, 30440, Note_on_c, 8, 67, 0
11, 30440, Note_on_c, 8, 55, 0
11, 30480, Note_on_c, 8, 72, 110
11, 30480, Note_on_c, 8, 60, 110
11, 30580, Note_on_c, 8, 72, 0
11, 30580, Note_on_c, 8, 60, 0
11, 30720, Note_on_c, 8, 72, 110
11, 30720, Note_on_c, 8, 60, 110
11, 30820, Note_on_c, 8, 72, 0
11, 30820, Note_on_c, 8, 60, 0
11, 30960, Note_on_c, 8, 69, 110
11, 30960, Note_on_c, 8, 57, 110
11, 31060, Note_on_c, 8, 69, 0
11, 31060, Note_on_c, 8, 57, 0
11, 31080, Note_on_c, 8, 72, 110
11, 31080, Note_on_c, 8, 60, 110
11, 31180, Note_on_c, 8, 72, 0
11, 31180, Note_on_c, 8, 60, 0
11, 31200, Note_on_c, 8, 69, 110
11, 31200, Note_on_c, 8, 57, 110
11, 31300, Note_on_c, 8, 69, 0
11, 31300, Note_on_c, 8, 57, 0
11, 31320, Note_on_c, 8, 67, 110
11, 31320, Note_on_c, 8, 55, 110
11, 31400, Note_on_c, 8, 67, 0
11, 31400, Note_on_c, 8, 55, 0
11, 31440, Note_on_c, 8, 74, 110
11, 31440, Note_on_c, 8, 62, 110
11, 31540, Note_on_c, 8, 74, 0
11, 31540, Note_on_c, 8, 62, 0
11, 31680, Note_on_c, 8, 74, 110
11, 31680, Note_on_c, 8, 62, 110
11, 31780, Note_on_c, 8, 74, 0
11, 31780, Note_on_c, 8, 62, 0
11, 31920, Note_on_c, 8, 67, 110
11, 31920, Note_on_c, 8, 55, 110
11, 32020, Note_on_c, 8, 67, 0
11, 32020, Note_on_c, 8, 55, 0
11, 32040, Note_on_c, 8, 69, 110
11, 32040, Note_on_c, 8, 57, 110
11, 32140, Note_on_c, 8, 69, 0
11, 32140, Note_on_c, 8, 57, 0
11, 32160, Note_on_c, 8, 72, 110
11, 32160, Note_on_c, 8, 60, 110
11, 32260, Note_on_c, 8, 72, 0
11, 32260, Note_on_c, 8, 60, 0
11, 32280, Note_on_c, 8, 69, 110
11, 32280, Note_on_c, 8, 57, 110
11, 32360, Note_on_c, 8, 69, 0
11, 32360, Note_on_c, 8, 57, 0
11, 63120, Note_on_c, 8, 72, 110
11, 63120, Note_on_c, 8, 60, 110
11, 63220, Note_on_c, 8, 72, 0
11, 63220, Note_on_c, 8, 60, 0
11, 63360, Note_on_c, 8, 72, 110
11, 63360, Note_on_c, 8, 60, 110
11, 63460, Note_on_c, 8, 72, 0
11, 63460, Note_on_c, 8, 60, 0
11, 63600, Note_on_c, 8, 69, 110
11, 63600, Note_on_c, 8, 57, 110
11, 63700, Note_on_c, 8, 69, 0
11, 63700, Note_on_c, 8, 57, 0
11, 63720, Note_on_c, 8, 72, 110
11, 63720, Note_on_c, 8, 60, 110
11, 63820, Note_on_c, 8, 72, 0
11, 63820, Note_on_c, 8, 60, 0
11, 63840, Note_on_c, 8, 69, 110
11, 63840, Note_on_c, 8, 57, 110
11, 63940, Note_on_c, 8, 69, 0
11, 63940, Note_on_c, 8, 57, 0
11, 63960, Note_on_c, 8, 67, 110
11, 63960, Note_on_c, 8, 55, 110
11, 64040, Note_on_c, 8, 67, 0
11, 64040, Note_on_c, 8, 55, 0
11, 64080, Note_on_c, 8, 72, 110
11, 64080, Note_on_c, 8, 60, 110
11, 64180, Note_on_c, 8, 72, 0
11, 64180, Note_on_c, 8, 60, 0
11, 64320, Note_on_c, 8, 72, 110
11, 64320, Note_on_c, 8, 60, 110
11, 64420, Note_on_c, 8, 72, 0
11, 64420, Note_on_c, 8, 60, 0
11, 64560, Note_on_c, 8, 69, 110
11, 64560, Note_on_c, 8, 57, 110
11, 64660, Note_on_c, 8, 69, 0
11, 64660, Note_on_c, 8, 57, 0
11, 64680, Note_on_c, 8, 72, 110
11, 64680, Note_on_c, 8, 60, 110
11, 64780, Note_on_c, 8, 72, 0
11, 64780, Note_on_c, 8, 60, 0
11, 64800, Note_on_c, 8, 69, 110
11, 64800, Note_on_c, 8, 57, 110
11, 64900, Note_on_c, 8, 69, 0
11, 64900, Note_on_c, 8, 57, 0
11, 64920, Note_on_c, 8, 67, 110
11, 64920, Note_on_c, 8, 55, 110
11, 65000, Note_on_c, 8, 67, 0
11, 65000, Note_on_c, 8, 55, 0
11, 65040, Note_on_c, 8, 72, 110
11, 65040, Note_on_c, 8, 60, 110
11, 65140, Note_on_c, 8, 72, 0
11, 65140, Note_on_c, 8, 60, 0
11, 65280, Note_on_c, 8, 72, 110
11, 65280, Note_on_c, 8, 60, 110
11, 65380, Note_on_c, 8, 72, 0
11, 65380, Note_on_c, 8, 60, 0
11, 65520, Note_on_c, 8, 69, 110
11, 65520, Note_on_c, 8, 57, 110
11, 65620, Note_on_c, 8, 69, 0
11, 65620, Note_on_c, 8, 57, 0
11, 65640, Note_on_c, 8, 72, 110
11, 65640, Note_on_c, 8, 60, 110
11, 65740, Note_on_c, 8, 72, 0
11, 65740, Note_on_c, 8, 60, 0
11, 65760, Note_on_c, 8, 69, 110
11, 65760, Note_on_c, 8, 57, 110
11, 65860, Note_on_c, 8, 69, 0
11, 65860, Note_on_c, 8, 57, 0
11, 65880, Note_on_c, 8, 67, 110
11, 65880, Note_on_c, 8, 55, 110
11, 65960, Note_on_c, 8, 67, 0
11, 65960, Note_on_c, 8, 55, 0
11, 66000, Note_on_c, 8, 74, 110
11, 66000, Note_on_c, 8, 62, 110
11, 66100, Note_on_c, 8, 74, 0
11, 66100, Note_on_c, 8, 62, 0
11, 66240, Note_on_c, 8, 74, 110
11, 66240, Note_on_c, 8, 62, 110
11, 66340, Note_on_c, 8, 74, 0
11, 66340, Note_on_c, 8, 62, 0
11, 66480, Note_on_c, 8, 67, 110
11, 66480, Note_on_c, 8, 55, 110
11, 66580, Note_on_c, 8, 67, 0
11, 66580, Note_on_c, 8, 55, 0
11, 66600, Note_on_c, 8, 69, 110
11, 66600, Note_on_c, 8, 57, 110
11, 66700, Note_on_c, 8, 69, 0
11, 66700, Note_on_c, 8, 57, 0
11, 66720, Note_on_c, 8, 72, 110
11, 66720, Note_on_c, 8, 60, 110
11, 66820, Note_on_c, 8, 72, 0
11, 66820, Note_on_c, 8, 60, 0
11, 66840, Note_on_c, 8, 69, 110
11, 66840, Note_on_c, 8, 57, 110
11, 66920, Note_on_c, 8, 69, 0
11, 66920, Note_on_c, 8, 57, 0
11, 66960, Note_on_c, 8, 72, 110
11, 66960, Note_on_c, 8, 60, 110
11, 67060, Note_on_c, 8, 72, 0
11, 67060, Note_on_c, 8, 60, 0
11, 67200, Note_on_c, 8, 72, 110
11, 67200, Note_on_c, 8, 60, 110
11, 67300, Note_on_c, 8, 72, 0
11, 67300, Note_on_c, 8, 60, 0
11, 67440, Note_on_c, 8, 69, 110
11, 67440, Note_on_c, 8, 57, 110
11, 67540, Note_on_c, 8, 69, 0
11, 67540, Note_on_c, 8, 57, 0
11, 67560, Note_on_c, 8, 72, 110
11, 67560, Note_on_c, 8, 60, 110
11, 67660, Note_on_c, 8, 72, 0
11, 67660, Note_on_c, 8, 60, 0
11, 67680, Note_on_c, 8, 69, 110
11, 67680, Note_on_c, 8, 57, 110
11, 67780, Note_on_c, 8, 69, 0
11, 67780, Note_on_c, 8, 57, 0
11, 67800, Note_on_c, 8, 67, 110
11, 67800, Note_on_c, 8, 55, 110
11, 67880, Note_on_c, 8, 67, 0
11, 67880, Note_on_c, 8, 55, 0
11, 67920, Note_on_c, 8, 72, 110
11, 67920, Note_on_c, 8, 60, 110
11, 68020, Note_on_c, 8, 72, 0
11, 68020, Note_on_c, 8, 60, 0
11, 68160, Note_on_c, 8, 72, 110
11, 68160, Note_on_c, 8, 60, 110
11, 68260, Note_on_c, 8, 72, 0
11, 68260, Note_on_c, 8, 60, 0
11, 68400, Note_on_c, 8, 69, 110
11, 68400, Note_on_c, 8, 57, 110
11, 68500, Note_on_c, 8, 69, 0
11, 68500, Note_on_c, 8, 57, 0
11, 68520, Note_on_c, 8, 72, 110
11, 68520, Note_on_c, 8, 60, 110
11, 68620, Note_on_c, 8, 72, 0
11, 68620, Note_on_c, 8, 60, 0
11, 68640, Note_on_c, 8, 69, 110
11, 68640, Note_on_c, 8, 57, 110
11, 68740, Note_on_c, 8, 69, 0
11, 68740, Note_on_c, 8, 57, 0
11, 68760, Note_on_c, 8, 67, 110
11, 68760, Note_on_c, 8, 55, 110
11, 68840, Note_on_c, 8, 67, 0
11, 68840, Note_on_c, 8, 55, 0
11, 68880, Note_on_c, 8, 72, 110
11, 68880, Note_on_c, 8, 60, 110
11, 68980, Note_on_c, 8, 72, 0
11, 68980, Note_on_c, 8, 60, 0
11, 69120, Note_on_c, 8, 72, 110
11, 69120, Note_on_c, 8, 60, 110
11, 69220, Note_on_c, 8, 72, 0
11, 69220, Note_on_c, 8, 60, 0
11, 69360, Note_on_c, 8, 69, 110
11, 69360, Note_on_c, 8, 57, 110
11, 69460, Note_on_c, 8, 69, 0
11, 69460, Note_on_c, 8, 57, 0
11, 69480, Note_on_c, 8, 72, 110
11, 69480, Note_on_c, 8, 60, 110
11, 69580, Note_on_c, 8, 72, 0
11, 69580, Note_on_c, 8, 60, 0
11, 69600, Note_on_c, 8, 69, 110
11, 69600, Note_on_c, 8, 57, 110
11, 69700, Note_on_c, 8, 69, 0
11, 69700, Note_on_c, 8, 57, 0
11, 69720, Note_on_c, 8, 67, 110
11, 69720, Note_on_c, 8, 55, 110
11, 69800, Note_on_c, 8, 67, 0
11, 69800, Note_on_c, 8, 55, 0
11, 69840, Note_on_c, 8, 74, 110
11, 69840, Note_on_c, 8, 62, 110
11, 69940, Note_on_c, 8, 74, 0
11, 69940, Note_on_c, 8, 62, 0
11, 70080, Note_on_c, 8, 74, 110
11, 70080, Note_on_c, 8, 62, 110
11, 70180, Note_on_c, 8, 74, 0
11, 70180, Note_on_c, 8, 62, 0
11, 70320, Note_on_c, 8, 67, 110
11, 70320, Note_on_c, 8, 55, 110
11, 70420, Note_on_c, 8, 67, 0
11, 70420, Note_on_c, 8, 55, 0
11, 70440, Note_on_c, 8, 69, 110
11, 70440, Note_on_c, 8, 57, 110
11, 70540, Note_on_c, 8, 69, 0
11, 70540, Note_on_c, 8, 57, 0
11, 70560, Note_on_c, 8, 72, 110
11, 70560, Note_on_c, 8, 60, 110
11, 70660, Note_on_c, 8, 72, 0
11, 70660, Note_on_c, 8, 60, 0
11, 70680, Note_on_c, 8, 69, 110
11, 70680, Note_on_c, 8, 57, 110
11, 70760, Note_on_c, 8, 69, 0
11, 70760, Note_on_c, 8, 57, 0
11, 70800, Note_on_c, 8, 72, 110
11, 70800, Note_on_c, 8, 60, 110
11, 70900, Note_on_c, 8, 72, 0
11, 70900, Note_on_c, 8, 60, 0
11, 71040, Note_on_c, 8, 72, 110
11, 71040, Note_on_c, 8, 60, 110
11, 71140, Note_on_c, 8, 72, 0
11, 71140, Note_on_c, 8, 60, 0
11, 71280, Note_on_c, 8, 69, 110
11, 71280, Note_on_c, 8, 57, 110
11, 71380, Note_on_c, 8, 69, 0
11, 71380, Note_on_c, 8, 57, 0
11, 71400, Note_on_c, 8, 72, 110
11, 71400, Note_on_c, 8, 60, 110
11, 71500, Note_on_c, 8, 72, 0
11, 71500, Note_on_c, 8, 60, 0
11, 71520, Note_on_c, 8, 69, 110
11, 71520, Note_on_c, 8, 57, 110
11, 71620, Note_on_c, 8, 69, 0
11, 71620, Note_on_c, 8, 57, 0
11, 71640, Note_on_c, 8, 67, 110
11, 71640, Note_on_c, 8, 55, 110
11, 71720, Note_on_c, 8, 67, 0
11, 71720, Note_on_c, 8, 55, 0
11, 71760, Note_on_c, 8, 72, 110
11, 71760, Note_on_c, 8, 60, 110
11, 71860, Note_on_c, 8, 72, 0
11, 71860, Note_on_c, 8, 60, 0
11, 72000, Note_on_c, 8, 72, 110
11, 72000, Note_on_c, 8, 60, 110
11, 72100, Note_on_c, 8, 72, 0
11, 72100, Note_on_c, 8, 60, 0
11, 72240, Note_on_c, 8, 69, 110
11, 72240, Note_on_c, 8, 57, 110
11, 72340, Note_on_c, 8, 69, 0
11, 72340, Note_on_c, 8, 57, 0
11, 72360, Note_on_c, 8, 72, 110
11, 72360, Note_on_c, 8, 60, 110
11, 72460, Note_on_c, 8, 72, 0
11, 72460, Note_on_c, 8, 60, 0
11, 72480, Note_on_c, 8, 69, 110
11, 72480, Note_on_c, 8, 57, 110
11, 72580, Note_on_c, 8, 69, 0
11, 72580, Note_on_c, 8, 57, 0
11, 72600, Note_on_c, 8, 67, 110
11, 72600, Note_on_c, 8, 55, 110
11, 72680, Note_on_c, 8, 67, 0
11, 72680, Note_on_c, 8, 55, 0
11, 72720, Note_on_c, 8, 72, 110
11, 72720, Note_on_c, 8, 60, 110
11, 72820, Note_on_c, 8, 72, 0
11, 72820, Note_on_c, 8, 60, 0
11, 72960, Note_on_c, 8, 72, 110
11, 72960, Note_on_c, 8, 60, 110
11, 73060, Note_on_c, 8, 72, 0
11, 73060, Note_on_c, 8, 60, 0
11, 73200, Note_on_c, 8, 69, 110
11, 73200, Note_on_c, 8, 57, 110
11, 73300, Note_on_c, 8, 69, 0
11, 73300, Note_on_c, 8, 57, 0
11, 73320, Note_on_c, 8, 72, 110
11, 73320, Note_on_c, 8, 60, 110
11, 73420, Note_on_c, 8, 72, 0
11, 73420, Note_on_c, 8, 60, 0
11, 73440, Note_on_c, 8, 69, 110
11, 73440, Note_on_c, 8, 57, 110
11, 73540, Note_on_c, 8, 69, 0
11, 73540, Note_on_c, 8, 57, 0
11, 73560, Note_on_c, 8, 67, 110
11, 73560, Note_on_c, 8, 55, 110
11, 73640, Note_on_c, 8, 67, 0
11, 73640, Note_on_c, 8, 55, 0
11, 73680, Note_on_c, 8, 74, 110
11, 73680, Note_on_c, 8, 62, 110
11, 73780, Note_on_c, 8, 74, 0
11, 73780, Note_on_c, 8, 62, 0
11, 73920, Note_on_c, 8, 74, 110
11, 73920, Note_on_c, 8, 62, 110
11, 74020, Note_on_c, 8, 74, 0
11, 74020, Note_on_c, 8, 62, 0
11, 74160, Note_on_c, 8, 67, 110
11, 74160, Note_on_c, 8, 55, 110
11, 74260, Note_on_c, 8, 67, 0
11, 74260, Note_on_c, 8, 55, 0
11, 74280, Note_on_c, 8, 69, 110
11, 74280, Note_on_c, 8, 57, 110
11, 74380, Note_on_c, 8, 69, 0
11, 74380, Note_on_c, 8, 57, 0
11, 74400, Note_on_c, 8, 72, 110
11, 74400, Note_on_c, 8, 60, 110
11, 74500, Note_on_c, 8, 72, 0
11, 74500, Note_on_c, 8, 60, 0
11, 74520, Note_on_c, 8, 69, 110
11, 74520, Note_on_c, 8, 57, 110
11, 74600, Note_on_c, 8, 69, 0
11, 74600, Note_on_c, 8, 57, 0
11, 74640, Note_on_c, 8, 72, 110
11, 74640, Note_on_c, 8, 60, 110
11, 74740, Note_on_c, 8, 72, 0
11, 74740, Note_on_c, 8, 60, 0
11, 74880, Note_on_c, 8, 72, 110
11, 74880, Note_on_c, 8, 60, 110
11, 74980, Note_on_c, 8, 72, 0
11, 74980, Note_on_c, 8, 60, 0
11, 75120, Note_on_c, 8, 69, 110
11, 75120, Note_on_c, 8, 57, 110
11, 75220, Note_on_c, 8, 69, 0
11, 75220, Note_on_c, 8, 57, 0
11, 75240, Note_on_c, 8, 72, 110
11, 75240, Note_on_c, 8, 60, 110
11, 75340, Note_on_c, 8, 72, 0
11, 75340, Note_on_c, 8, 60, 0
11, 75360, Note_on_c, 8, 69, 110
11, 75360, Note_on_c, 8, 57, 110
11, 75460, Note_on_c, 8, 69, 0
11, 75460, Note_on_c, 8, 57, 0
11, 75480, Note_on_c, 8, 67, 110
11, 75480, Note_on_c, 8, 55, 110
11, 75560, Note_on_c, 8, 67, 0
11, 75560, Note_on_c, 8, 55, 0
11, 75600, Note_on_c, 8, 72, 110
11, 75600, Note_on_c, 8, 60, 110
11, 75700, Note_on_c, 8, 72, 0
11, 75700, Note_on_c, 8, 60, 0
11, 75840, Note_on_c, 8, 72, 110
11, 75840, Note_on_c, 8, 60, 110
11, 75940, Note_on_c, 8, 72, 0
11, 75940, Note_on_c, 8, 60, 0
11, 76080, Note_on_c, 8, 69, 110
11, 76080, Note_on_c, 8, 57, 110
11, 76180, Note_on_c, 8, 69, 0
11, 76180, Note_on_c, 8, 57, 0
11, 76200, Note_on_c, 8, 72, 110
11, 76200, Note_on_c, 8, 60, 110
11, 76300, Note_on_c, 8, 72, 0
11, 76300, Note_on_c, 8, 60, 0
11, 76320, Note_on_c, 8, 69, 110
11, 76320, Note_on_c, 8, 57, 110
11, 76420, Note_on_c, 8, 69, 0
11, 76420, Note_on_c, 8, 57, 0
11, 76440, Note_on_c, 8, 67, 110
11, 76440, Note_on_c, 8, 55, 110
11, 76520, Note_on_c, 8, 67, 0
11, 76520, Note_on_c, 8, 55, 0
11, 76560, Note_on_c, 8, 72, 110
11, 76560, Note_on_c, 8, 60, 110
11, 76660, Note_on_c, 8, 72, 0
11, 76660, Note_on_c, 8, 60, 0
11, 76800, Note_on_c, 8, 72, 110
11, 76800, Note_on_c, 8, 60, 110
11, 76900, Note_on_c, 8, 72, 0
11, 76900, Note_on_c, 8, 60, 0
11, 77040, Note_on_c, 8, 69, 110
11, 77040, Note_on_c, 8, 57, 110
11, 77140, Note_on_c, 8, 69, 0
11, 77140, Note_on_c, 8, 57, 0
11, 77160, Note_on_c, 8, 72, 110
11, 77160, Note_on_c, 8, 60, 110
11, 77260, Note_on_c, 8, 72, 0
11, 77260, Note_on_c, 8, 60, 0
11, 77280, Note_on_c, 8, 69, 110
11, 77280, Note_on_c, 8, 57, 110
11, 77380, Note_on_c, 8, 69, 0
11, 77380, Note_on_c, 8, 57, 0
11, 77400, Note_on_c, 8, 67, 110
11, 77400, Note_on_c, 8, 55, 110
11, 77480, Note_on_c, 8, 67, 0
11, 77480, Note_on_c, 8, 55, 0
11, 77520, Note_on_c, 8, 74, 110
11, 77520, Note_on_c, 8, 62, 110
11, 77620, Note_on_c, 8, 74, 0
11, 77620, Note_on_c, 8, 62, 0
11, 77760, Note_on_c, 8, 74, 110
11, 77760, Note_on_c, 8, 62, 110
11, 77860, Note_on_c, 8, 74, 0
11, 77860, Note_on_c, 8, 62, 0
11, 78000, Note_on_c, 8, 67, 110
11, 78000, Note_on_c, 8, 55, 110
11, 78100, Note_on_c, 8, 67, 0
11, 78100, Note_on_c, 8, 55, 0
11, 78120, Note_on_c, 8, 69, 110
11, 78120, Note_on_c, 8, 57, 110
11, 78220, Note_on_c, 8, 69, 0
11, 78220, Note_on_c, 8, 57, 0
11, 78240, Note_on_c, 8, 72, 110
11, 78240, Note_on_c, 8, 60, 110
11, 78340, Note_on_c, 8, 72, 0
11, 78340, Note_on_c, 8, 60, 0
11, 78360, Note_on_c, 8, 69, 110
11, 78360, Note_on_c, 8, 57, 110
11, 78440, Note_on_c, 8, 69, 0
11, 78440, Note_on_c, 8, 57, 0
11, 109200, Note_on_c, 8, 60, 110
11, 109200, Note_on_c, 8, 72, 110
11, 109300, Note_on_c, 8, 60, 0
11, 109300, Note_on_c, 8, 72, 0
11, 109440, Note_on_c, 8, 60, 110
11, 109440, Note_on_c, 8, 72, 110
11, 109540, Note_on_c, 8, 60, 0
11, 109540, Note_on_c, 8, 72, 0
11, 109680, Note_on_c, 8, 57, 110
11, 109680, Note_on_c, 8, 69, 110
11, 109780, Note_on_c, 8, 57, 0
11, 109780, Note_on_c, 8, 69, 0
11, 109800, Note_on_c, 8, 60, 110
11, 109800, Note_on_c, 8, 72, 110
11, 109900, Note_on_c, 8, 60, 0
11, 109900, Note_on_c, 8, 72, 0
11, 109920, Note_on_c, 8, 57, 110
11, 109920, Note_on_c, 8, 69, 110
11, 110020, Note_on_c, 8, 57, 0
11, 110020, Note_on_c, 8, 69, 0
11, 110040, Note_on_c, 8, 55, 110
11, 110040, Note_on_c, 8, 67, 110
11, 110120, Note_on_c, 8, 55, 0
11, 110120, Note_on_c, 8, 67, 0
11, 110160, Note_on_c, 8, 60, 110
11, 110160, Note_on_c, 8, 72, 110
11, 110260, Note_on_c, 8, 60, 0
11, 110260, Note_on_c, 8, 72, 0
11, 110400, Note_on_c, 8, 60, 110
11, 110400, Note_on_c, 8, 72, 110
11, 110500, Note_on_c, 8, 60, 0
11, 110500, Note_on_c, 8, 72, 0
11, 110640, Note_on_c, 8, 57, 110
11, 110640, Note_on_c, 8, 69, 110
11, 110740, Note_on_c, 8, 57, 0
11, 110740, Note_on_c, 8, 69, 0
11, 110760, Note_on_c, 8, 60, 110
11, 110760, Note_on_c, 8, 72, 110
11, 110860, Note_on_c, 8, 60, 0
11, 110860, Note_on_c, 8, 72, 0
11, 110880, Note_on_c, 8, 57, 110
11, 110880, Note_on_c, 8, 69, 110
11, 110980, Note_on_c, 8, 57, 0
11, 110980, Note_on_c, 8, 69, 0
11, 111000, Note_on_c, 8, 55, 110
11, 111000, Note_on_c, 8, 67, 110
11, 111080, Note_on_c, 8, 55, 0
11, 111080, Note_on_c, 8, 67, 0
11, 111120, Note_on_c, 8, 60, 110
11, 111120, Note_on_c, 8, 72, 110
11, 111220, Note_on_c, 8, 60, 0
11, 111220, Note_on_c, 8, 72, 0
11, 111360, Note_on_c, 8, 60, 110
11, 111360, Note_on_c, 8, 72, 110
11, 111460, Note_on_c, 8, 60, 0
11, 111460, Note_on_c, 8, 72, 0
11, 111600, Note_on_c, 8, 57, 110
11, 111600, Note_on_c, 8, 69, 110
11, 111700, Note_on_c, 8, 57, 0
11, 111700, Note_on_c, 8, 69, 0
11, 111720, Note_on_c, 8, 60, 110
11, 111720, Note_on_c, 8, 72, 110
11, 111820, Note_on_c, 8, 60, 0
11, 111820, Note_on_c, 8, 72, 0
11, 111840, Note_on_c, 8, 57, 110
11, 111840, Note_on_c, 8, 69, 110
11, 111940, Note_on_c, 8, 57, 0
11, 111940, Note_on_c, 8, 69, 0
11, 111960, Note_on_c, 8, 55, 110
11, 111960, Note_on_c, 8, 67, 110
11, 112040, Note_on_c, 8, 55, 0
11, 112040, Note_on_c, 8, 67, 0
11, 112080, Note_on_c, 8, 74, 110
11, 112080, Note_on_c, 8, 62, 110
11, 112180, Note_on_c, 8, 74, 0
11, 112180, Note_on_c, 8, 62, 0
11, 112320, Note_on_c, 8, 74, 110
11, 112320, Note_on_c, 8, 62, 110
11, 112420, Note_on_c, 8, 74, 0
11, 112420, Note_on_c, 8, 62, 0
11, 112560, Note_on_c, 8, 67, 110
11, 112560, Note_on_c, 8, 55, 110
11, 112660, Note_on_c, 8, 67, 0
11, 112660, Note_on_c, 8, 55, 0
11, 112680, Note_on_c, 8, 69, 110
11, 112680, Note_on_c, 8, 57, 110
11, 112780, Note_on_c, 8, 69, 0
11, 112780, Note_on_c, 8, 57, 0
11, 112800, Note_on_c, 8, 72, 110
11, 112800, Note_on_c, 8, 60, 110
11, 112900, Note_on_c, 8, 72, 0
11, 112900, Note_on_c, 8, 60, 0
11, 112920, Note_on_c, 8, 69, 110
11, 112920, Note_on_c, 8, 57, 110
11, 113000, Note_on_c, 8, 69, 0
11, 113000, Note_on_c, 8, 57, 0
11, 113040, Note_on_c, 8, 60, 110
11, 113040, Note_on_c, 8, 72, 110
11, 113140, Note_on_c, 8, 60, 0
11, 113140, Note_on_c, 8, 72, 0
11, 113280, Note_on_c, 8, 60, 110
11, 113280, Note_on_c, 8, 72, 110
11, 113380, Note_on_c, 8, 60, 0
11, 113380, Note_on_c, 8, 72, 0
11, 113520, Note_on_c, 8, 57, 110
11, 113520, Note_on_c, 8, 69, 110
11, 113620, Note_on_c, 8, 57, 0
11, 113620, Note_on_c, 8, 69, 0
11, 113640, Note_on_c, 8, 60, 110
11, 113640, Note_on_c, 8, 72, 110
11, 113740, Note_on_c, 8, 60, 0
11, 113740, Note_on_c, 8, 72, 0
11, 113760, Note_on_c, 8, 57, 110
11, 113760, Note_on_c, 8, 69, 110
11, 113860, Note_on_c, 8, 57, 0
11, 113860, Note_on_c, 8, 69, 0
11, 113880, Note_on_c, 8, 55, 110
11, 113880, Note_on_c, 8, 67, 110
11, 113960, Note_on_c, 8, 55, 0
11, 113960, Note_on_c, 8, 67, 0
11, 114000, Note_on_c, 8, 60, 110
11, 114000, Note_on_c, 8, 72, 110
11, 114100, Note_on_c, 8, 60, 0
11, 114100, Note_on_c, 8, 72, 0
11, 114240, Note_on_c, 8, 60, 110
11, 114240, Note_on_c, 8, 72, 110
11, 114340, Note_on_c, 8, 60, 0
11, 114340, Note_on_c, 8, 72, 0
11, 114480, Note_on_c, 8, 57, 110
11, 114480, Note_on_c, 8, 69, 110
11, 114580, Note_on_c, 8, 57, 0
11, 114580, Note_on_c, 8, 69, 0
11, 114600, Note_on_c, 8, 60, 110
11, 114600, Note_on_c, 8, 72, 110
11, 114700, Note_on_c, 8, 60, 0
11, 114700, Note_on_c, 8, 72, 0
11, 114720, Note_on_c, 8, 57, 110
11, 114720, Note_on_c, 8, 69, 110
11, 114820, Note_on_c, 8, 57, 0
11, 114820, Note_on_c, 8, 69, 0
11, 114840, Note_on_c, 8, 55, 110
11, 114840, Note_on_c, 8, 67, 110
11, 114920, Note_on_c, 8, 55, 0
11, 114920, Note_on_c, 8, 67, 0
11, 114960, Note_on_c, 8, 60, 110
11, 114960, Note_on_c, 8, 72, 110
11, 115060, Note_on_c, 8, 60, 0
11, 115060, Note_on_c, 8, 72, 0
11, 115200, Note_on_c, 8, 60, 110
11, 115200, Note_on_c, 8, 72, 110
11, 115300, Note_on_c, 8, 60, 0
11, 115300, Note_on_c, 8, 72, 0
11, 115440, Note_on_c, 8, 57, 110
11, 115440, Note_on_c, 8, 69, 110
11, 115540, Note_on_c, 8, 57, 0
11, 115540, Note_on_c, 8, 69, 0
11, 115560, Note_on_c, 8, 60, 110
11, 115560, Note_on_c, 8, 72, 110
11, 115660, Note_on_c, 8, 60, 0
11, 115660, Note_on_c, 8, 72, 0
11, 115680, Note_on_c, 8, 57, 110
11, 115680, Note_on_c, 8, 69, 110
11, 115780, Note_on_c, 8, 57, 0
11, 115780, Note_on_c, 8, 69, 0
11, 115800, Note_on_c, 8, 55, 110
11, 115800, Note_on_c, 8, 67, 110
11, 115880, Note_on_c, 8, 55, 0
11, 115880, Note_on_c, 8, 67, 0
11, 115920, Note_on_c, 8, 74, 110
11, 115920, Note_on_c, 8, 62, 110
11, 116020, Note_on_c, 8, 74, 0
11, 116020, Note_on_c, 8, 62, 0
11, 116160, Note_on_c, 8, 74, 110
11, 116160, Note_on_c, 8, 62, 110
11, 116260, Note_on_c, 8, 74, 0
11, 116260, Note_on_c, 8, 62, 0
11, 116400, Note_on_c, 8, 67, 110
11, 116400, Note_on_c, 8, 55, 110
11, 116500, Note_on_c, 8, 67, 0
11, 116500, Note_on_c, 8, 55, 0
11, 116520, Note_on_c, 8, 69, 110
11, 116520, Note_on_c, 8, 57, 110
11, 116620, Note_on_c, 8, 69, 0
11, 116620, Note_on_c, 8, 57, 0
11, 116640, Note_on_c, 8, 72, 110
11, 116640, Note_on_c, 8, 60, 110
11, 116740, Note_on_c, 8, 72, 0
11, 116740, Note_on_c, 8, 60, 0
11, 116760, Note_on_c, 8, 69, 110
11, 116760, Note_on_c, 8, 57, 110
11, 116840, Note_on_c, 8, 69, 0
11, 116840, Note_on_c, 8, 57, 0
11, 116880, Note_on_c, 8, 60, 110
11, 116880, Note_on_c, 8, 72, 110
11, 116980, Note_on_c, 8, 60, 0
11, 116980, Note_on_c, 8, 72, 0
11, 117120, Note_on_c, 8, 60, 110
11, 117120, Note_on_c, 8, 72, 110
11, 117220, Note_on_c, 8, 60, 0
11, 117220, Note_on_c, 8, 72, 0
11, 117360, Note_on_c, 8, 57, 110
11, 117360, Note_on_c, 8, 69, 110
11, 117460, Note_on_c, 8, 57, 0
11, 117460, Note_on_c, 8, 69, 0
11, 117480, Note_on_c, 8, 60, 110
11, 117480, Note_on_c, 8, 72, 110
11, 117580, Note_on_c, 8, 60, 0
11, 117580, Note_on_c, 8, 72, 0
11, 117600, Note_on_c, 8, 57, 110
11, 117600, Note_on_c, 8, 69, 110
11, 117700, Note_on_c, 8, 57, 0
11, 117700, Note_on_c, 8, 69, 0
11, 117720, Note_on_c, 8, 55, 110
11, 117720, Note_on_c, 8, 67, 110
11, 117800, Note_on_c, 8, 55, 0
11, 117800, Note_on_c, 8, 67, 0
11, 117840, Note_on_c, 8, 60, 110
11, 117840, Note_on_c, 8, 72, 110
11, 117940, Note_on_c, 8, 60, 0
11, 117940, Note_on_c, 8, 72, 0
11, 118080, Note_on_c, 8, 60, 110
11, 118080, Note_on_c, 8, 72, 110
11, 118180, Note_on_c, 8, 60, 0
11, 118180, Note_on_c, 8, 72, 0
11, 118320, Note_on_c, 8, 57, 110
11, 118320, Note_on_c, 8, 69, 110
11, 118420, Note_on_c, 8, 57, 0
11, 118420, Note_on_c, 8, 69, 0
11, 118440, Note_on_c, 8, 60, 110
11, 118440, Note_on_c, 8, 72, 110
11, 118540, Note_on_c, 8, 60, 0
11, 118540, Note_on_c, 8, 72, 0
11, 118560, Note_on_c, 8, 57, 110
11, 118560, Note_on_c, 8, 69, 110
11, 118660, Note_on_c, 8, 57, 0
11, 118660, Note_on_c, 8, 69, 0
11, 118680, Note_on_c, 8, 55, 110
11, 118680, Note_on_c, 8, 67, 110
11, 118760, Note_on_c, 8, 55, 0
11, 118760, Note_on_c, 8, 67, 0
11, 118800, Note_on_c, 8, 60, 110
11, 118800, Note_on_c, 8, 72, 110
11, 118900, Note_on_c, 8, 60, 0
11, 118900, Note_on_c, 8, 72, 0
11, 119040, Note_on_c, 8, 60, 110
11, 119040, Note_on_c, 8, 72, 110
11, 119140, Note_on_c, 8, 60, 0
11, 119140, Note_on_c, 8, 72, 0
11, 119280, Note_on_c, 8, 57, 110
11, 119280, Note_on_c, 8, 69, 110
11, 119380, Note_on_c, 8, 57, 0
11, 119380, Note_on_c, 8, 69, 0
11, 119400, Note_on_c, 8, 60, 110
11, 119400, Note_on_c, 8, 72, 110
11, 119500, Note_on_c, 8, 60, 0
11, 119500, Note_on_c, 8, 72, 0
11, 119520, Note_on_c, 8, 57, 110
11, 119520, Note_on_c, 8, 69, 110
11, 119620, Note_on_c, 8, 57, 0
11, 119620, Note_on_c, 8, 69, 0
11, 119640, Note_on_c, 8, 55, 110
11, 119640, Note_on_c, 8, 67, 110
11, 119720, Note_on_c, 8, 55, 0
11, 119720, Note_on_c, 8, 67, 0
11, 119760, Note_on_c, 8, 74, 110
11, 119760, Note_on_c, 8, 62, 110
11, 119860, Note_on_c, 8, 74, 0
11, 119860, Note_on_c, 8, 62, 0
11, 120000, Note_on_c, 8, 74, 110
11, 120000, Note_on_c, 8, 62, 110
11, 120100, Note_on_c, 8, 74, 0
11, 120100, Note_on_c, 8, 62, 0
11, 120240, Note_on_c, 8, 67, 110
11, 120240, Note_on_c, 8, 55, 110
11, 120340, Note_on_c, 8, 67, 0
11, 120340, Note_on_c, 8, 55, 0
11, 120360, Note_on_c, 8, 69, 110
11, 120360, Note_on_c, 8, 57, 110
11, 120460, Note_on_c, 8, 69, 0
11, 120460, Note_on_c, 8, 57, 0
11, 120480, Note_on_c, 8, 72, 110
11, 120480, Note_on_c, 8, 60, 110
11, 120580, Note_on_c, 8, 72, 0
11, 120580, Note_on_c, 8, 60, 0
11, 120600, Note_on_c, 8, 69, 110
11, 120600, Note_on_c, 8, 57, 110
11, 120680, Note_on_c, 8, 69, 0
11, 120680, Note_on_c, 8, 57, 0
11, 136680, Note_on_c, 8, 67, 110
11, 136780, Note_on_c, 8, 67, 0
11, 136800, Note_on_c, 8, 72, 110
11, 136900, Note_on_c, 8, 72, 0
11, 137040, Note_on_c, 8, 77, 110
11, 137140, Note_on_c, 8, 77, 0
11, 137280, Note_on_c, 8, 76, 110
11, 137440, Note_on_c, 8, 76, 0
11, 137520, Note_on_c, 8, 72, 110
11, 137680, Note_on_c, 8, 72, 0
11, 137760, Note_on_c, 8, 74, 110
11, 137980, Note_on_c, 8, 74, 0
11, 138720, Note_on_c, 8, 67, 110
11, 138820, Note_on_c, 8, 67, 0
11, 138840, Note_on_c, 8, 72, 110
11, 138940, Note_on_c, 8, 72, 0
11, 138960, Note_on_c, 8, 74, 110
11, 139180, Note_on_c, 8, 74, 0
11, 139200, Note_on_c, 8, 74, 110
11, 139300, Note_on_c, 8, 74, 0
11, 139440, Note_on_c, 8, 76, 110
11, 139540, Note_on_c, 8, 76, 0
11, 139560, Note_on_c, 8, 74, 110
11, 139660, Note_on_c, 8, 74, 0
11, 139680, Note_on_c, 8, 72, 110
11, 139780, Note_on_c, 8, 72, 0
11, 139780, End_track
12, 0, Start_track
12, 0, Program_c, 9, 0
12, 0, Control_c, 9, 7, 78
12, 17040, Note_on_c, 9, 47, 110
12, 17040, Note_on_c, 9, 52, 110
12, 17040, Note_on_c, 9, 43, 110
12, 17140, Note_on_c, 9, 47, 0
12, 17140, Note_on_c, 9, 52, 0
12, 17140, Note_on_c, 9, 43, 0
12, 17280, Note_on_c, 9, 43, 110
12, 17280, Note_on_c, 9, 46, 110
12, 17280, Note_on_c, 9, 49, 110
12, 17380, Note_on_c, 9, 43, 0
12, 17380, Note_on_c, 9, 46, 0
12, 17380, Note_on_c, 9, 49, 0
12, 17520, Note_on_c, 9, 28, 110
12, 17620, Note_on_c, 9, 28, 0
12, 17640, Note_on_c, 9, 28, 110
12, 17740, Note_on_c, 9, 28, 0
12, 17760, Note_on_c, 9, 43, 110
12, 17860, Note_on_c, 9, 43, 0
12, 18240, Note_on_c, 9, 43, 110
12, 18340, Note_on_c, 9, 43, 0
12, 18480, Note_on_c, 9, 28, 110
12, 18580, Note_on_c, 9, 28, 0
12, 18600, Note_on_c, 9, 28, 110
12, 18700, Note_on_c, 9, 28, 0
12, 18720, Note_on_c, 9, 43, 110
12, 18820, Note_on_c, 9, 43, 0
12, 19200, Note_on_c, 9, 43, 110
12, 19300, Note_on_c, 9, 43, 0
12, 19440, Note_on_c, 9, 28, 110
12, 19540, Note_on_c, 9, 28, 0
12, 19560, Note_on_c, 9, 28, 110
12, 19660, Note_on_c, 9, 28, 0
12, 19680, Note_on_c, 9, 43, 110
12, 19780, Note_on_c, 9, 43, 0
12, 20160, Note_on_c, 9, 43, 110
12, 20260, Note_on_c, 9, 43, 0
12, 20400, Note_on_c, 9, 28, 110
12, 20500, Note_on_c, 9, 28, 0
12, 20520, Note_on_c, 9, 28, 110
12, 20620, Note_on_c, 9, 28, 0
12, 20880, Note_on_c, 9, 43, 110
12, 20880, Note_on_c, 9, 47, 110
12, 20880, Note_on_c, 9, 52, 110
12, 20980, Note_on_c, 9, 43, 0
12, 20980, Note_on_c, 9, 47, 0
12, 20980, Note_on_c, 9, 52, 0
12, 21120, Note_on_c, 9, 43, 110
12, 21120, Note_on_c, 9, 46, 110
12, 21120, Note_on_c, 9, 49, 110
12, 21220, Note_on_c, 9, 43, 0
12, 21220, Note_on_c, 9, 46, 0
12, 21220, Note_on_c, 9, 49, 0
12, 21360, Note_on_c, 9, 28, 110
12, 21460, Note_on_c, 9, 28, 0
12, 21480, Note_on_c, 9, 28, 110
12, 21580, Note_on_c, 9, 28, 0
12, 21600, Note_on_c, 9, 43, 110
12, 21700, Note_on_c, 9, 43, 0
12, 22080, Note_on_c, 9, 43, 110
12, 22180, Note_on_c, 9, 43, 0
12, 22320, Note_on_c, 9, 28, 110
12, 22420, Note_on_c, 9, 28, 0
12, 22440, Note_on_c, 9, 28, 110
12, 22540, Note_on_c, 9, 28, 0
12, 22560, Note_on_c, 9, 43, 110
12, 22660, Note_on_c, 9, 43, 0
12, 23040, Note_on_c, 9, 43, 110
12, 23140, Note_on_c, 9, 43, 0
12, 23280, Note_on_c, 9, 28, 110
12, 23380, Note_on_c, 9, 28, 0
12, 23400, Note_on_c, 9, 28, 110
12, 23500, Note_on_c, 9, 28, 0
12, 23520, Note_on_c, 9, 43, 110
12, 23620, Note_on_c, 9, 43, 0
12, 24000, Note_on_c, 9, 43, 110
12, 24100, Note_on_c, 9, 43, 0
12, 24240, Note_on_c, 9, 28, 110
12, 24340, Note_on_c, 9, 28, 0
12, 24360, Note_on_c, 9, 28, 110
12, 24460, Note_on_c, 9, 28, 0
12, 24720, Note_on_c, 9, 43, 110
12, 24720, Note_on_c, 9, 47, 110
12, 24720, Note_on_c, 9, 52, 110
12, 24820, Note_on_c, 9, 43, 0
12, 24820, Note_on_c, 9, 47, 0
12, 24820, Note_on_c, 9, 52, 0
12, 24960, Note_on_c, 9, 43, 110
12, 24960, Note_on_c, 9, 46, 110
12, 24960, Note_on_c, 9, 49, 110
12, 25060, Note_on_c, 9, 43, 0
12, 25060, Note_on_c, 9, 46, 0
12, 25060, Note_on_c, 9, 49, 0
12, 25200, Note_on_c, 9, 28, 110
12, 25300, Note_on_c, 9, 28, 0
12, 25320, Note_on_c, 9, 28, 110
12, 25420, Note_on_c, 9, 28, 0
12, 25440, Note_on_c, 9, 43, 110
12, 25540, Note_on_c, 9, 43, 0
12, 25920, Note_on_c, 9, 43, 110
12, 26020, Note_on_c, 9, 43, 0
12, 26160, Note_on_c, 9, 28, 110
12, 26260, Note_on_c, 9, 28, 0
12, 26280, Note_on_c, 9, 28, 110
12, 26380, Note_on_c, 9, 28, 0
12, 26400, Note_on_c, 9, 43, 110
12, 26500, Note_on_c, 9, 43, 0
12, 26880, Note_on_c, 9, 43, 110
12, 26980, Note_on_c, 9, 43, 0
12, 27120, Note_on_c, 9, 28, 110
12, 27220, Note_on_c, 9, 28, 0
12, 27240, Note_on_c, 9, 28, 110
12, 27340, Note_on_c, 9, 28, 0
12, 27360, Note_on_c, 9, 43, 110
12, 27460, Note_on_c, 9, 43, 0
12, 27840, Note_on_c, 9, 43, 110
12, 27940, Note_on_c, 9, 43, 0
12, 28080, Note_on_c, 9, 28, 110
12, 28180, Note_on_c, 9, 28, 0
12, 28200, Note_on_c, 9, 28, 110
12, 28300, Note_on_c, 9, 28, 0
12, 28560, Note_on_c, 9, 43, 110
12, 28560, Note_on_c, 9, 47, 110
12, 28560, Note_on_c, 9, 52, 110
12, 28660, Note_on_c, 9, 43, 0
12, 28660, Note_on_c, 9, 47, 0
12, 28660, Note_on_c, 9, 52, 0
12, 28800, Note_on_c, 9, 43, 110
12, 28800, Note_on_c, 9, 46, 110
12, 28800, Note_on_c, 9, 49, 110
12, 28900, Note_on_c, 9, 43, 0
12, 28900, Note_on_c, 9, 46, 0
12, 28900, Note_on_c, 9, 49, 0
12, 29040, Note_on_c, 9, 28, 110
12, 29140, Note_on_c, 9, 28, 0
12, 29160, Note_on_c, 9, 28, 110
12, 29260, Note_on_c, 9, 28, 0
12, 29280, Note_on_c, 9, 43, 110
12, 29380, Note_on_c, 9, 43, 0
12, 29760, Note_on_c, 9, 43, 110
12, 29860, Note_on_c, 9, 43, 0
12, 30000, Note_on_c, 9, 28, 110
12, 30100, Note_on_c, 9, 28, 0
12, 30120, Note_on_c, 9, 28, 110
12, 30220, Note_on_c, 9, 28, 0
12, 30240, Note_on_c, 9, 43, 110
12, 30340, Note_on_c, 9, 43, 0
12, 30720, Note_on_c, 9, 43, 110
12, 30820, Note_on_c, 9, 43, 0
12, 30960, Note_on_c, 9, 28, 110
12, 31060, Note_on_c, 9, 28, 0
12, 31080, Note_on_c, 9, 28, 110
12, 31180, Note_on_c, 9, 28, 0
12, 31200, Note_on_c, 9, 43, 110
12, 31300, Note_on_c, 9, 43, 0
12, 31680, Note_on_c, 9, 43, 110
12, 31780, Note_on_c, 9, 43, 0
12, 31920, Note_on_c, 9, 28, 110
12, 32020, Note_on_c, 9, 28, 0
12, 32040, Note_on_c, 9, 28, 110
12, 32140, Note_on_c, 9, 28, 0
12, 32400, Note_on_c, 9, 43, 110
12, 32400, Note_on_c, 9, 47, 110
12, 32400, Note_on_c, 9, 52, 110
12, 32500, Note_on_c, 9, 43, 0
12, 32500, Note_on_c, 9, 47, 0
12, 32500, Note_on_c, 9, 52, 0
12, 32640, Note_on_c, 9, 43, 110
12, 32640, Note_on_c, 9, 46, 110
12, 32640, Note_on_c, 9, 49, 110
12, 32740, Note_on_c, 9, 43, 0
12, 32740, Note_on_c, 9, 46, 0
12, 32740, Note_on_c, 9, 49, 0
12, 32880, Note_on_c, 9, 28, 110
12, 32980, Note_on_c, 9, 28, 0
12, 33000, Note_on_c, 9, 28, 110
12, 33100, Note_on_c, 9, 28, 0
12, 33120, Note_on_c, 9, 43, 110
12, 33220, Note_on_c, 9, 43, 0
12, 33600, Note_on_c, 9, 43, 110
12, 33700, Note_on_c, 9, 43, 0
12, 33840, Note_on_c, 9, 28, 110
12, 33940, Note_on_c, 9, 28, 0
12, 33960, Note_on_c, 9, 28, 110
12, 34060, Note_on_c, 9, 28, 0
12, 34080, Note_on_c, 9, 43, 110
12, 34180, Note_on_c, 9, 43, 0
12, 34560, Note_on_c, 9, 43, 110
12, 34660, Note_on_c, 9, 43, 0
12, 34800, Note_on_c, 9, 28, 110
12, 34900, Note_on_c, 9, 28, 0
12, 34920, Note_on_c, 9, 28, 110
12, 35020, Note_on_c, 9, 28, 0
12, 35040, Note_on_c, 9, 43, 110
12, 35140, Note_on_c, 9, 43, 0
12, 35520, Note_on_c, 9, 43, 110
12, 35620, Note_on_c, 9, 43, 0
12, 35760, Note_on_c, 9, 28, 110
12, 35860, Note_on_c, 9, 28, 0
12, 35880, Note_on_c, 9, 28, 110
12, 35980, Note_on_c, 9, 28, 0
12, 36240, Note_on_c, 9, 43, 110
12, 36240, Note_on_c, 9, 47, 110
12, 36240, Note_on_c, 9, 52, 110
12, 36340, Note_on_c, 9, 43, 0
12, 36340, Note_on_c, 9, 47, 0
12, 36340, Note_on_c, 9, 52, 0
12, 36480, Note_on_c, 9, 43, 110
12, 36480, Note_on_c, 9, 46, 110
12, 36480, Note_on_c, 9, 49, 110
12, 36580, Note_on_c, 9, 43, 0
12, 36580, Note_on_c, 9, 46, 0
12, 36580, Note_on_c, 9, 49, 0
12, 36720, Note_on_c, 9, 28, 110
12, 36820, Note_on_c, 9, 28, 0
12, 36840, Note_on_c, 9, 28, 110
12, 36940, Note_on_c, 9, 28, 0
12, 36960, Note_on_c, 9, 43, 110
12, 37060, Note_on_c, 9, 43, 0
12, 37440, Note_on_c, 9, 43, 110
12, 37540, Note_on_c, 9, 43, 0
12, 37680, Note_on_c, 9, 28, 110
12, 37780, Note_on_c, 9, 28, 0
12, 37800, Note_on_c, 9, 28, 110
12, 37900, Note_on_c, 9, 28, 0
12, 37920, Note_on_c, 9, 43, 110
12, 38020, Note_on_c, 9, 43, 0
12, 38400, Note_on_c, 9, 43, 110
12, 38500, Note_on_c, 9, 43, 0
12, 38640, Note_on_c, 9, 28, 110
12, 38740, Note_on_c, 9, 28, 0
12, 38760, Note_on_c, 9, 28, 110
12, 38860, Note_on_c, 9, 28, 0
12, 38880, Note_on_c, 9, 43, 110
12, 38980, Note_on_c, 9, 43, 0
12, 39360, Note_on_c, 9, 43, 110
12, 39460, Note_on_c, 9, 43, 0
12, 39600, Note_on_c, 9, 28, 110
12, 39700, Note_on_c, 9, 28, 0
12, 39720, Note_on_c, 9, 28, 110
12, 39820, Note_on_c, 9, 28, 0
12, 40080, Note_on_c, 9, 43, 110
12, 40080, Note_on_c, 9, 47, 110
12, 40080, Note_on_c, 9, 52, 110
12, 40180, Note_on_c, 9, 43, 0
12, 40180, Note_on_c, 9, 47, 0
12, 40180, Note_on_c, 9, 52, 0
12, 40320, Note_on_c, 9, 43, 110
12, 40320, Note_on_c, 9, 46, 110
12, 40320, Note_on_c, 9, 49, 110
12, 40420, Note_on_c, 9, 43, 0
12, 40420, Note_on_c, 9, 46, 0
12, 40420, Note_on_c, 9, 49, 0
12, 40560, Note_on_c, 9, 28, 110
12, 40660, Note_on_c, 9, 28, 0
12, 40680, Note_on_c, 9, 28, 110
12, 40780, Note_on_c, 9, 28, 0
12, 40800, Note_on_c, 9, 43, 110
12, 40900, Note_on_c, 9, 43, 0
12, 41280, Note_on_c, 9, 43, 110
12, 41380, Note_on_c, 9, 43, 0
12, 41520, Note_on_c, 9, 28, 110
12, 41620, Note_on_c, 9, 28, 0
12, 41640, Note_on_c, 9, 28, 110
12, 41740, Note_on_c, 9, 28, 0
12, 41760, Note_on_c, 9, 43, 110
12, 41860, Note_on_c, 9, 43, 0
12, 42240, Note_on_c, 9, 43, 110
12, 42340, Note_on_c, 9, 43, 0
12, 42480, Note_on_c, 9, 28, 110
12, 42580, Note_on_c, 9, 28, 0
12, 42600, Note_on_c, 9, 28, 110
12, 42700, Note_on_c, 9, 28, 0
12, 42720, Note_on_c, 9, 43, 110
12, 42820, Note_on_c, 9, 43, 0
12, 43200, Note_on_c, 9, 43, 110
12, 43300, Note_on_c, 9, 43, 0
12, 43440, Note_on_c, 9, 28, 110
12, 43540, Note_on_c, 9, 28, 0
12, 43560, Note_on_c, 9, 28, 110
12, 43660, Note_on_c, 9, 28, 0
12, 43920, Note_on_c, 9, 43, 110
12, 43920, Note_on_c, 9, 47, 110
12, 43920, Note_on_c, 9, 52, 110
12, 44020, Note_on_c, 9, 43, 0
12, 44020, Note_on_c, 9, 47, 0
12, 44020, Note_on_c, 9, 52, 0
12, 44160, Note_on_c, 9, 43, 110
12, 44160, Note_on_c, 9, 46, 110
12, 44160, Note_on_c, 9, 49, 110
12, 44260, Note_on_c, 9, 43, 0
12, 44260, Note_on_c, 9, 46, 0
12, 44260, Note_on_c, 9, 49, 0
12, 44400, Note_on_c, 9, 28, 110
12, 44500, Note_on_c, 9, 28, 0
12, 44520, Note_on_c, 9, 28, 110
12, 44620, Note_on_c, 9, 28, 0
12, 44640, Note_on_c, 9, 43, 110
12, 44740, Note_on_c, 9, 43, 0
12, 45120, Note_on_c, 9, 43, 110
12, 45220, Note_on_c, 9, 43, 0
12, 45360, Note_on_c, 9, 28, 110
12, 45460, Note_on_c, 9, 28, 0
12, 45480, Note_on_c, 9, 28, 110
12, 45580, Note_on_c, 9, 28, 0
12, 45600, Note_on_c, 9, 43, 110
12, 45700, Note_on_c, 9, 43, 0
12, 63120, Note_on_c, 9, 43, 110
12, 63120, Note_on_c, 9, 47, 110
12, 63120, Note_on_c, 9, 52, 110
12, 63220, Note_on_c, 9, 43, 0
12, 63220, Note_on_c, 9, 47, 0
12, 63220, Note_on_c, 9, 52, 0
12, 63360, Note_on_c, 9, 43, 110
12, 63360, Note_on_c, 9, 46, 110
12, 63360, Note_on_c, 9, 49, 110
12, 63460, Note_on_c, 9, 43, 0
12, 63460, Note_on_c, 9, 46, 0
12, 63460, Note_on_c, 9, 49, 0
12, 63600, Note_on_c, 9, 28, 110
12, 63700, Note_on_c, 9, 28, 0
12, 63720, Note_on_c, 9, 28, 110
12, 63820, Note_on_c, 9, 28, 0
12, 63840, Note_on_c, 9, 43, 110
12, 63940, Note_on_c, 9, 43, 0
12, 64320, Note_on_c, 9, 43, 110
12, 64420, Note_on_c, 9, 43, 0
12, 64560, Note_on_c, 9, 28, 110
12, 64660, Note_on_c, 9, 28, 0
12, 64680, Note_on_c, 9, 28, 110
12, 64780, Note_on_c, 9, 28, 0
12, 64800, Note_on_c, 9, 43, 110
12, 64900, Note_on_c, 9, 43, 0
12, 65280, Note_on_c, 9, 43, 110
12, 65380, Note_on_c, 9, 43, 0
12, 65520, Note_on_c, 9, 28, 110
12, 65620, Note_on_c, 9, 28, 0
12, 65640, Note_on_c, 9, 28, 110
12, 65740, Note_on_c, 9, 28, 0
12, 65760, Note_on_c, 9, 43, 110
12, 65860, Note_on_c, 9, 43, 0
12, 66240, Note_on_c, 9, 43, 110
12, 66340, Note_on_c, 9, 43, 0
12, 66480, Note_on_c, 9, 28, 110
12, 66580, Note_on_c, 9, 28, 0
12, 66600, Note_on_c, 9, 28, 110
12, 66700, Note_on_c, 9, 28, 0
12, 66960, Note_on_c, 9, 43, 110
12, 66960, Note_on_c, 9, 47, 110
12, 66960, Note_on_c, 9, 52, 110
12, 67060, Note_on_c, 9, 43, 0
12, 67060, Note_on_c, 9, 47, 0
12, 67060, Note_on_c, 9, 52, 0
12, 67200, Note_on_c, 9, 43, 110
12, 67200, Note_on_c, 9, 46, 110
12, 67200, Note_on_c, 9, 49, 110
12, 67300, Note_on_c, 9, 43, 0
12, 67300, Note_on_c, 9, 46, 0
12, 67300, Note_on_c, 9, 49, 0
12, 67440, Note_on_c, 9, 28, 110
12, 67540, Note_on_c, 9, 28, 0
12, 67560, Note_on_c, 9, 28, 110
12, 67660, Note_on_c, 9, 28, 0
12, 67680, Note_on_c, 9, 43, 110
12, 67780, Note_on_c, 9, 43, 0
12, 68160, Note_on_c, 9, 43, 110
12, 68260, Note_on_c, 9, 43, 0
12, 68400, Note_on_c, 9, 28, 110
12, 68500, Note_on_c, 9, 28, 0
12, 68520, Note_on_c, 9, 28, 110
12, 68620, Note_on_c, 9, 28, 0
12, 68640, Note_on_c, 9, 43, 110
12, 68740, Note_on_c, 9, 43, 0
12, 69120, Note_on_c, 9, 43, 110
12, 69220, Note_on_c, 9, 43, 0
12, 69360, Note_on_c, 9, 28, 110
12, 69460, Note_on_c, 9, 28, 0
12, 69480, Note_on_c, 9, 28, 110
12, 69580, Note_on_c, 9, 28, 0
12, 69600, Note_on_c, 9, 43, 110
12, 69700, Note_on_c, 9, 43, 0
12, 70080, Note_on_c, 9, 43, 110
12, 70180, Note_on_c, 9, 43, 0
12, 70320, Note_on_c, 9, 28, 110
12, 70420, Note_on_c, 9, 28, 0
12, 70440, Note_on_c, 9, 28, 110
12, 70540, Note_on_c, 9, 28, 0
12, 70800, Note_on_c, 9, 43, 110
12, 70800, Note_on_c, 9, 47, 110
12, 70800, Note_on_c, 9, 52, 110
12, 70900, Note_on_c, 9, 43, 0
12, 70900, Note_on_c, 9, 47, 0
12, 70900, Note_on_c, 9, 52, 0
12, 71040, Note_on_c, 9, 43, 110
12, 71040, Note_on_c, 9, 46, 110
12, 71040, Note_on_c, 9, 49, 110
12, 71140, Note_on_c, 9, 43, 0
12, 71140, Note_on_c, 9, 46, 0
12, 71140, Note_on_c, 9, 49, 0
12, 71280, Note_on_c, 9, 28, 110
12, 71380, Note_on_c, 9, 28, 0
12, 71400, Note_on_c, 9, 28, 110
12, 71500, Note_on_c, 9, 28, 0
12, 71520, Note_on_c, 9, 43, 110
12, 71620, Note_on_c, 9, 43, 0
12, 72000, Note_on_c, 9, 43, 110
12, 72100, Note_on_c, 9, 43, 0
12, 72240, Note_on_c, 9, 28, 110
12, 72340, Note_on_c, 9, 28, 0
12, 72360, Note_on_c, 9, 28, 110
12, 72460, Note_on_c, 9, 28, 0
12, 72480, Note_on_c, 9, 43, 110
12, 72580, Note_on_c, 9, 43, 0
12, 72960, Note_on_c, 9, 43, 110
12, 73060, Note_on_c, 9, 43, 0
12, 73200, Note_on_c, 9, 28, 110
12, 73300, Note_on_c, 9, 28, 0
12, 73320, Note_on_c, 9, 28, 110
12, 73420, Note_on_c, 9, 28, 0
12, 73440, Note_on_c, 9, 43, 110
12, 73540, Note_on_c, 9, 43, 0
12, 73920, Note_on_c, 9, 43, 110
12, 74020, Note_on_c, 9, 43, 0
12, 74160, Note_on_c, 9, 28, 110
12, 74260, Note_on_c, 9, 28, 0
12, 74280, Note_on_c, 9, 28, 110
12, 74380, Note_on_c, 9, 28, 0
12, 74640, Note_on_c, 9, 43, 110
12, 74640, Note_on_c, 9, 47, 110
12, 74640, Note_on_c, 9, 52, 110
12, 74740, Note_on_c, 9, 43, 0
12, 74740, Note_on_c, 9, 47, 0
12, 74740, Note_on_c, 9, 52, 0
12, 74880, Note_on_c, 9, 43, 110
12, 74880, Note_on_c, 9, 46, 110
12, 74880, Note_on_c, 9, 49, 110
12, 74980, Note_on_c, 9, 43, 0
12, 74980, Note_on_c, 9, 46, 0
12, 74980, Note_on_c, 9, 49, 0
12, 75120, Note_on_c, 9, 28, 110
12, 75220, Note_on_c, 9, 28, 0
12, 75240, Note_on_c, 9, 28, 110
12, 75340, Note_on_c, 9, 28, 0
12, 75360, Note_on_c, 9, 43, 110
12, 75460, Note_on_c, 9, 43, 0
12, 75840, Note_on_c, 9, 43, 110
12, 75940, Note_on_c, 9, 43, 0
12, 76080, Note_on_c, 9, 28, 110
12, 76180, Note_on_c, 9, 28, 0
12, 76200, Note_on_c, 9, 28, 110
12, 76300, Note_on_c, 9, 28, 0
12, 76320, Note_on_c, 9, 43, 110
12, 76420, Note_on_c, 9, 43, 0
12, 76800, Note_on_c, 9, 43, 110
12, 76900, Note_on_c, 9, 43, 0
12, 77040, Note_on_c, 9, 28, 110
12, 77140, Note_on_c, 9, 28, 0
12, 77160, Note_on_c, 9, 28, 110
12, 77260, Note_on_c, 9, 28, 0
12, 77280, Note_on_c, 9, 43, 110
12, 77380, Note_on_c, 9, 43, 0
12, 77760, Note_on_c, 9, 43, 110
12, 77860, Note_on_c, 9, 43, 0
12, 78000, Note_on_c, 9, 28, 110
12, 78100, Note_on_c, 9, 28, 0
12, 78120, Note_on_c, 9, 28, 110
12, 78220, Note_on_c, 9, 28, 0
12, 78480, Note_on_c, 9, 43, 110
12, 78480, Note_on_c, 9, 47, 110
12, 78480, Note_on_c, 9, 52, 110
12, 78580, Note_on_c, 9, 43, 0
12, 78580, Note_on_c, 9, 47, 0
12, 78580, Note_on_c, 9, 52, 0
12, 78720, Note_on_c, 9, 43, 110
12, 78720, Note_on_c, 9, 46, 110
12, 78720, Note_on_c, 9, 49, 110
12, 78820, Note_on_c, 9, 43, 0
12, 78820, Note_on_c, 9, 46, 0
12, 78820, Note_on_c, 9, 49, 0
12, 78960, Note_on_c, 9, 28, 110
12, 79060, Note_on_c, 9, 28, 0
12, 79080, Note_on_c, 9, 28, 110
12, 79180, Note_on_c, 9, 28, 0
12, 79200, Note_on_c, 9, 43, 110
12, 79300, Note_on_c, 9, 43, 0
12, 79680, Note_on_c, 9, 43, 110
12, 79780, Note_on_c, 9, 43, 0
12, 79920, Note_on_c, 9, 28, 110
12, 80020, Note_on_c, 9, 28, 0
12, 80040, Note_on_c, 9, 28, 110
12, 80140, Note_on_c, 9, 28, 0
12, 80160, Note_on_c, 9, 43, 110
12, 80260, Note_on_c, 9, 43, 0
12, 80640, Note_on_c, 9, 43, 110
12, 80740, Note_on_c, 9, 43, 0
12, 80880, Note_on_c, 9, 28, 110
12, 80980, Note_on_c, 9, 28, 0
12, 81000, Note_on_c, 9, 28, 110
12, 81100, Note_on_c, 9, 28, 0
12, 81120, Note_on_c, 9, 43, 110
12, 81220, Note_on_c, 9, 43, 0
12, 81600, Note_on_c, 9, 43, 110
12, 81700, Note_on_c, 9, 43, 0
12, 81840, Note_on_c, 9, 28, 110
12, 81940, Note_on_c, 9, 28, 0
12, 81960, Note_on_c, 9, 28, 110
12, 82060, Note_on_c, 9, 28, 0
12, 82320, Note_on_c, 9, 43, 110
12, 82320, Note_on_c, 9, 47, 110
12, 82320, Note_on_c, 9, 52, 110
12, 82420, Note_on_c, 9, 43, 0
12, 82420, Note_on_c, 9, 47, 0
12, 82420, Note_on_c, 9, 52, 0
12, 82560, Note_on_c, 9, 43, 110
12, 82560, Note_on_c, 9, 46, 110
12, 82560, Note_on_c, 9, 49, 110
12, 82660, Note_on_c, 9, 43, 0
12, 82660, Note_on_c, 9, 46, 0
12, 82660, Note_on_c, 9, 49, 0
12, 82800, Note_on_c, 9, 28, 110
12, 82900, Note_on_c, 9, 28, 0
12, 82920, Note_on_c, 9, 28, 110
12, 83020, Note_on_c, 9, 28, 0
12, 83040, Note_on_c, 9, 43, 110
12, 83140, Note_on_c, 9, 43, 0
12, 83520, Note_on_c, 9, 43, 110
12, 83620, Note_on_c, 9, 43, 0
12, 83760, Note_on_c, 9, 28, 110
12, 83860, Note_on_c, 9, 28, 0
12, 83880, Note_on_c, 9, 28, 110
12, 83980, Note_on_c, 9, 28, 0
12, 84000, Note_on_c, 9, 43, 110
12, 84100, Note_on_c, 9, 43, 0
12, 84480, Note_on_c, 9, 43, 110
12, 84580, Note_on_c, 9, 43, 0
12, 84720, Note_on_c, 9, 28, 110
12, 84820, Note_on_c, 9, 28, 0
12, 84840, Note_on_c, 9, 28, 110
12, 84940, Note_on_c, 9, 28, 0
12, 84960, Note_on_c, 9, 43, 110
12, 85060, Note_on_c, 9, 43, 0
12, 85440, Note_on_c, 9, 43, 110
12, 85540, Note_on_c, 9, 43, 0
12, 85680, Note_on_c, 9, 28, 110
12, 85780, Note_on_c, 9, 28, 0
12, 85800, Note_on_c, 9, 28, 110
12, 85900, Note_on_c, 9, 28, 0
12, 86160, Note_on_c, 9, 43, 110
12, 86160, Note_on_c, 9, 47, 110
12, 86160, Note_on_c, 9, 52, 110
12, 86260, Note_on_c, 9, 43, 0
12, 86260, Note_on_c, 9, 47, 0
12, 86260, Note_on_c, 9, 52, 0
12, 86400, Note_on_c, 9, 43, 110
12, 86400, Note_on_c, 9, 46, 110
12, 86400, Note_on_c, 9, 49, 110
12, 86500, Note_on_c, 9, 43, 0
12, 86500, Note_on_c, 9, 46, 0
12, 86500, Note_on_c, 9, 49, 0
12, 86640, Note_on_c, 9, 28, 110
12, 86740, Note_on_c, 9, 28, 0
12, 86760, Note_on_c, 9, 28, 110
12, 86860, Note_on_c, 9, 28, 0
12, 86880, Note_on_c, 9, 43, 110
12, 86980, Note_on_c, 9, 43, 0
12, 87360, Note_on_c, 9, 43, 110
12, 87460, Note_on_c, 9, 43, 0
12, 87600, Note_on_c, 9, 28, 110
12, 87700, Note_on_c, 9, 28, 0
12, 87720, Note_on_c, 9, 28, 110
12, 87820, Note_on_c, 9, 28, 0
12, 87840, Note_on_c, 9, 43, 110
12, 87940, Note_on_c, 9, 43, 0
12, 88320, Note_on_c, 9, 43, 110
12, 88420, Note_on_c, 9, 43, 0
12, 88560, Note_on_c, 9, 28, 110
12, 88660, Note_on_c, 9, 28, 0
12, 88680, Note_on_c, 9, 28, 110
12, 88780, Note_on_c, 9, 28, 0
12, 88800, Note_on_c, 9, 43, 110
12, 88900, Note_on_c, 9, 43, 0
12, 89280, Note_on_c, 9, 43, 110
12, 89380, Note_on_c, 9, 43, 0
12, 89520, Note_on_c, 9, 28, 110
12, 89620, Note_on_c, 9, 28, 0
12, 89640, Note_on_c, 9, 28, 110
12, 89740, Note_on_c, 9, 28, 0
12, 90000, Note_on_c, 9, 43, 110
12, 90000, Note_on_c, 9, 47, 110
12, 90000, Note_on_c, 9, 52, 110
12, 90100, Note_on_c, 9, 43, 0
12, 90100, Note_on_c, 9, 47, 0
12, 90100, Note_on_c, 9, 52, 0
12, 90240, Note_on_c, 9, 43, 110
12, 90240, Note_on_c, 9, 46, 110
12, 90240, Note_on_c, 9, 49, 110
12, 90340, Note_on_c, 9, 43, 0
12, 90340, Note_on_c, 9, 46, 0
12, 90340, Note_on_c, 9, 49, 0
12, 90480, Note_on_c, 9, 28, 110
12, 90580, Note_on_c, 9, 28, 0
12, 90600, Note_on_c, 9, 28, 110
12, 90700, Note_on_c, 9, 28, 0
12, 90720, Note_on_c, 9, 43, 110
12, 90820, Note_on_c, 9, 43, 0
12, 91200, Note_on_c, 9, 43, 110
12, 91300, Note_on_c, 9, 43, 0
12, 91440, Note_on_c, 9, 28, 110
12, 91540, Note_on_c, 9, 28, 0
12, 91560, Note_on_c, 9, 28, 110
12, 91660, Note_on_c, 9, 28, 0
12, 91680, Note_on_c, 9, 43, 110
12, 91780, Note_on_c, 9, 43, 0
12, 109200, Note_on_c, 9, 43, 110
12, 109200, Note_on_c, 9, 47, 110
12, 109200, Note_on_c, 9, 52, 110
12, 109300, Note_on_c, 9, 43, 0
12, 109300, Note_on_c, 9, 47, 0
12, 109300, Note_on_c, 9, 52, 0
12, 109440, Note_on_c, 9, 43, 110
12, 109440, Note_on_c, 9, 46, 110
12, 109440, Note_on_c, 9, 49, 110
12, 109540, Note_on_c, 9, 43, 0
12, 109540, Note_on_c, 9, 46, 0
12, 109540, Note_on_c, 9, 49, 0
12, 109680, Note_on_c, 9, 28, 110
12, 109780, Note_on_c, 9, 28, 0
12, 109800, Note_on_c, 9, 28, 110
12, 109900, Note_on_c, 9, 28, 0
12, 109920, Note_on_c, 9, 43, 110
12, 110020, Note_on_c, 9, 43, 0
12, 110400, Note_on_c, 9, 43, 110
12, 110500, Note_on_c, 9, 43, 0
12, 110640, Note_on_c, 9, 28, 110
12, 110740, Note_on_c, 9, 28, 0
12, 110760, Note_on_c, 9, 28, 110
12, 110860, Note_on_c, 9, 28, 0
12, 110880, Note_on_c, 9, 43, 110
12, 110980, Note_on_c, 9, 43, 0
12, 111360, Note_on_c, 9, 43, 110
12, 111460, Note_on_c, 9, 43, 0
12, 111600, Note_on_c, 9, 28, 110
12, 111700, Note_on_c, 9, 28, 0
12, 111720, Note_on_c, 9, 28, 110
12, 111820, Note_on_c, 9, 28, 0
12, 111840, Note_on_c, 9, 43, 110
12, 111940, Note_on_c, 9, 43, 0
12, 112320, Note_on_c, 9, 43, 110
12, 112420, Note_on_c, 9, 43, 0
12, 112560, Note_on_c, 9, 28, 110
12, 112660, Note_on_c, 9, 28, 0
12, 112680, Note_on_c, 9, 28, 110
12, 112780, Note_on_c, 9, 28, 0
12, 113040, Note_on_c, 9, 43, 110
12, 113040, Note_on_c, 9, 47, 110
12, 113040, Note_on_c, 9, 52, 110
12, 113140, Note_on_c, 9, 43, 0
12, 113140, Note_on_c, 9, 47, 0
12, 113140, Note_on_c, 9, 52, 0
12, 113280, Note_on_c, 9, 43, 110
12, 113280, Note_on_c, 9, 46, 110
12, 113280, Note_on_c, 9, 49, 110
12, 113380, Note_on_c, 9, 43, 0
12, 113380, Note_on_c, 9, 46, 0
12, 113380, Note_on_c, 9, 49, 0
12, 113520, Note_on_c, 9, 28, 110
12, 113620, Note_on_c, 9, 28, 0
12, 113640, Note_on_c, 9, 28, 110
12, 113740, Note_on_c, 9, 28, 0
12, 113760, Note_on_c, 9, 43, 110
12, 113860, Note_on_c, 9, 43, 0
12, 114240, Note_on_c, 9, 43, 110
12, 114340, Note_on_c, 9, 43, 0
12, 114480, Note_on_c, 9, 28, 110
12, 114580, Note_on_c, 9, 28, 0
12, 114600, Note_on_c, 9, 28, 110
12, 114700, Note_on_c, 9, 28, 0
12, 114720, Note_on_c, 9, 43, 110
12, 114820, Note_on_c, 9, 43, 0
12, 115200, Note_on_c, 9, 43, 110
12, 115300, Note_on_c, 9, 43, 0
12, 115440, Note_on_c, 9, 28, 110
12, 115540, Note_on_c, 9, 28, 0
12, 115560, Note_on_c, 9, 28, 110
12, 115660, Note_on_c, 9, 28, 0
12, 115680, Note_on_c, 9, 43, 110
12, 115780, Note_on_c, 9, 43, 0
12, 116160, Note_on_c, 9, 43, 110
12, 116260, Note_on_c, 9, 43, 0
12, 116400, Note_on_c, 9, 28, 110
12, 116500, Note_on_c, 9, 28, 0
12, 116520, Note_on_c, 9, 28, 110
12, 116620, Note_on_c, 9, 28, 0
12, 116880, Note_on_c, 9, 43, 110
12, 116880, Note_on_c, 9, 47, 110
12, 116880, Note_on_c, 9, 52, 110
12, 116980, Note_on_c, 9, 43, 0
12, 116980, Note_on_c, 9, 47, 0
12, 116980, Note_on_c, 9, 52, 0
12, 117120, Note_on_c, 9, 43, 110
12, 117120, Note_on_c, 9, 46, 110
12, 117120, Note_on_c, 9, 49, 110
12, 117220, Note_on_c, 9, 43, 0
12, 117220, Note_on_c, 9, 46, 0
12, 117220, Note_on_c, 9, 49, 0
12, 117360, Note_on_c, 9, 28, 110
12, 117460, Note_on_c, 9, 28, 0
12, 117480, Note_on_c, 9, 28, 110
12, 117580, Note_on_c, 9, 28, 0
12, 117600, Note_on_c, 9, 43, 110
12, 117700, Note_on_c, 9, 43, 0
12, 118080, Note_on_c, 9, 43, 110
12, 118180, Note_on_c, 9, 43, 0
12, 118320, Note_on_c, 9, 28, 110
12, 118420, Note_on_c, 9, 28, 0
12, 118440, Note_on_c, 9, 28, 110
12, 118540, Note_on_c, 9, 28, 0
12, 118560, Note_on_c, 9, 43, 110
12, 118660, Note_on_c, 9, 43, 0
12, 119040, Note_on_c, 9, 43, 110
12, 119140, Note_on_c, 9, 43, 0
12, 119280, Note_on_c, 9, 28, 110
12, 119380, Note_on_c, 9, 28, 0
12, 119400, Note_on_c, 9, 28, 110
12, 119500, Note_on_c, 9, 28, 0
12, 119520, Note_on_c, 9, 43, 110
12, 119620, Note_on_c, 9, 43, 0
12, 120000, Note_on_c, 9, 43, 110
12, 120100, Note_on_c, 9, 43, 0
12, 120240, Note_on_c, 9, 28, 110
12, 120340, Note_on_c, 9, 28, 0
12, 120360, Note_on_c, 9, 28, 110
12, 120460, Note_on_c, 9, 28, 0
12, 120720, Note_on_c, 9, 43, 110
12, 120720, Note_on_c, 9, 47, 110
12, 120720, Note_on_c, 9, 52, 110
12, 120820, Note_on_c, 9, 43, 0
12, 120820, Note_on_c, 9, 47, 0
12, 120820, Note_on_c, 9, 52, 0
12, 120960, Note_on_c, 9, 43, 110
12, 120960, Note_on_c, 9, 46, 110
12, 120960, Note_on_c, 9, 49, 110
12, 121060, Note_on_c, 9, 43, 0
12, 121060, Note_on_c, 9, 46, 0
12, 121060, Note_on_c, 9, 49, 0
12, 121200, Note_on_c, 9, 28, 110
12, 121300, Note_on_c, 9, 28, 0
12, 121320, Note_on_c, 9, 28, 110
12, 121420, Note_on_c, 9, 28, 0
12, 121440, Note_on_c, 9, 43, 110
12, 121540, Note_on_c, 9, 43, 0
12, 121920, Note_on_c, 9, 43, 110
12, 122020, Note_on_c, 9, 43, 0
12, 122160, Note_on_c, 9, 28, 110
12, 122260, Note_on_c, 9, 28, 0
12, 122280, Note_on_c, 9, 28, 110
12, 122380, Note_on_c, 9, 28, 0
12, 122400, Note_on_c, 9, 43, 110
12, 122500, Note_on_c, 9, 43, 0
12, 128400, Note_on_c, 9, 43, 110
12, 128400, Note_on_c, 9, 52, 110
12, 128500, Note_on_c, 9, 43, 0
12, 128500, Note_on_c, 9, 52, 0
12, 128640, Note_on_c, 9, 57, 110
12, 128640, Note_on_c, 9, 43, 110
12, 128740, Note_on_c, 9, 57, 0
12, 128740, Note_on_c, 9, 43, 0
12, 128880, Note_on_c, 9, 41, 110
12, 128880, Note_on_c, 9, 43, 110
12, 128980, Note_on_c, 9, 41, 0
12, 128980, Note_on_c, 9, 43, 0
12, 129120, Note_on_c, 9, 43, 110
12, 129220, Note_on_c, 9, 43, 0
12, 129360, Note_on_c, 9, 41, 110
12, 129360, Note_on_c, 9, 43, 110
12, 129460, Note_on_c, 9, 41, 0
12, 129460, Note_on_c, 9, 43, 0
12, 129600, Note_on_c, 9, 57, 110
12, 129600, Note_on_c, 9, 43, 110
12, 129700, Note_on_c, 9, 57, 0
12, 129700, Note_on_c, 9, 43, 0
12, 129840, Note_on_c, 9, 41, 110
12, 129840, Note_on_c, 9, 43, 110
12, 129940, Note_on_c, 9, 41, 0
12, 129940, Note_on_c, 9, 43, 0
12, 130080, Note_on_c, 9, 43, 110
12, 130180, Note_on_c, 9, 43, 0
12, 130320, Note_on_c, 9, 41, 110
12, 130320, Note_on_c, 9, 43, 110
12, 130420, Note_on_c, 9, 41, 0
12, 130420, Note_on_c, 9, 43, 0
12, 130560, Note_on_c, 9, 57, 110
12, 130560, Note_on_c, 9, 43, 110
12, 130660, Note_on_c, 9, 57, 0
12, 130660, Note_on_c, 9, 43, 0
12, 130800, Note_on_c, 9, 41, 110
12, 130800, Note_on_c, 9, 43, 110
12, 130900, Note_on_c, 9, 41, 0
12, 130900, Note_on_c, 9, 43, 0
12, 131040, Note_on_c, 9, 43, 110
12, 131140, Note_on_c, 9, 43, 0
12, 131280, Note_on_c, 9, 41, 110
12, 131280, Note_on_c, 9, 43, 110
12, 131380, Note_on_c, 9, 41, 0
12, 131380, Note_on_c, 9, 43, 0
12, 131520, Note_on_c, 9, 57, 110
12, 131520, Note_on_c, 9, 43, 110
12, 131620, Note_on_c, 9, 57, 0
12, 131620, Note_on_c, 9, 43, 0
12, 131760, Note_on_c, 9, 41, 110
12, 131760, Note_on_c, 9, 43, 110
12, 131860, Note_on_c, 9, 41, 0
12, 131860, Note_on_c, 9, 43, 0
12, 132000, Note_on_c, 9, 43, 110
12, 132100, Note_on_c, 9, 43, 0
12, 132240, Note_on_c, 9, 52, 110
12, 132240, Note_on_c, 9, 43, 110
12, 132340, Note_on_c, 9, 52, 0
12, 132340, Note_on_c, 9, 43, 0
12, 132480, Note_on_c, 9, 57, 110
12, 132480, Note_on_c, 9, 43, 110
12, 132580, Note_on_c, 9, 57, 0
12, 132580, Note_on_c, 9, 43, 0
12, 132720, Note_on_c, 9, 41, 110
12, 132720, Note_on_c, 9, 43, 110
12, 132820, Note_on_c, 9, 41, 0
12, 132820, Note_on_c, 9, 43, 0
12, 132960, Note_on_c, 9, 43, 110
12, 133060, Note_on_c, 9, 43, 0
12, 133200, Note_on_c, 9, 41, 110
12, 133200, Note_on_c, 9, 43, 110
12, 133300, Note_on_c, 9, 41, 0
12, 133300, Note_on_c, 9, 43, 0
12, 133440, Note_on_c, 9, 57, 110
12, 133440, Note_on_c, 9, 43, 110
12, 133540, Note_on_c, 9, 57, 0
12, 133540, Note_on_c, 9, 43, 0
12, 133680, Note_on_c, 9, 41, 110
12, 133680, Note_on_c, 9, 43, 110
12, 133780, Note_on_c, 9, 41, 0
12, 133780, Note_on_c, 9, 43, 0
12, 133920, Note_on_c, 9, 43, 110
12, 134020, Note_on_c, 9, 43, 0
12, 134160, Note_on_c, 9, 43, 110
12, 134160, Note_on_c, 9, 41, 110
12, 134260, Note_on_c, 9, 43, 0
12, 134260, Note_on_c, 9, 41, 0
12, 134400, Note_on_c, 9, 57, 110
12, 134400, Note_on_c, 9, 43, 110
12, 134500, Note_on_c, 9, 57, 0
12, 134500, Note_on_c, 9, 43, 0
12, 134640, Note_on_c, 9, 43, 110
12, 134640, Note_on_c, 9, 41, 110
12, 134740, Note_on_c, 9, 43, 0
12, 134740, Note_on_c, 9, 41, 0
12, 134880, Note_on_c, 9, 43, 110
12, 134980, Note_on_c, 9, 43, 0
12, 135120, Note_on_c, 9, 43, 110
12, 135120, Note_on_c, 9, 41, 110
12, 135220, Note_on_c, 9, 43, 0
12, 135220, Note_on_c, 9, 41, 0
12, 135360, Note_on_c, 9, 57, 110
12, 135360, Note_on_c, 9, 43, 110
12, 135460, Note_on_c, 9, 57, 0
12, 135460, Note_on_c, 9, 43, 0
12, 135600, Note_on_c, 9, 43, 110
12, 135600, Note_on_c, 9, 41, 110
12, 135700, Note_on_c, 9, 43, 0
12, 135700, Note_on_c, 9, 41, 0
12, 135840, Note_on_c, 9, 43, 110
12, 135940, Note_on_c, 9, 43, 0
12, 135940, End_track
13, 0, Start_track
13, 0, Program_c, 10, 52
13, 0, Control_c, 10, 7, 68
13, 24720, Note_on_c, 10, 76, 110
13, 24720, Note_on_c, 10, 64, 110
13, 25660, Note_on_c, 10, 76, 0
13, 25660, Note_on_c, 10, 64, 0
13, 25680, Note_on_c, 10, 77, 110
13, 25680, Note_on_c, 10, 65, 110
13, 26620, Note_on_c, 10, 77, 0
13, 26620, Note_on_c, 10, 65, 0
13, 26640, Note_on_c, 10, 76, 110
13, 26640, Note_on_c, 10, 64, 110
13, 27580, Note_on_c, 10, 76, 0
13, 27580, Note_on_c, 10, 64, 0
13, 27600, Note_on_c, 10, 62, 110
13, 27600, Note_on_c, 10, 74, 110
13, 28200, Note_on_c, 10, 76, 110
13, 28200, Note_on_c, 10, 64, 110
13, 28300, Note_on_c, 10, 76, 0
13, 28300, Note_on_c, 10, 64, 0
13, 28320, Note_on_c, 10, 79, 110
13, 28320, Note_on_c, 10, 67, 110
13, 28420, Note_on_c, 10, 79, 0
13, 28420, Note_on_c, 10, 67, 0
13, 28440, Note_on_c, 10, 76, 110
13, 28440, Note_on_c, 10, 64, 110
13, 28540, Note_on_c, 10, 62, 0
13, 28540, Note_on_c, 10, 74, 0
13, 29500, Note_on_c, 10, 76, 0
13, 29500, Note_on_c, 10, 64, 0
13, 29520, Note_on_c, 10, 77, 110
13, 29520, Note_on_c, 10, 65, 110
13, 30460, Note_on_c, 10, 77, 0
13, 30460, Note_on_c, 10, 65, 0
13, 30480, Note_on_c, 10, 64, 110
13, 30480, Note_on_c, 10, 76, 110
13, 31420, Note_on_c, 10, 64, 0
13, 31420, Note_on_c, 10, 76, 0
13, 31440, Note_on_c, 10, 62, 110
13, 31440, Note_on_c, 10, 74, 110
13, 32380, Note_on_c, 10, 62, 0
13, 32380, Note_on_c, 10, 74, 0
13, 35640, Note_on_c, 10, 72, 110
13, 35740, Note_on_c, 10, 72, 0
13, 35760, Note_on_c, 10, 72, 110
13, 35860, Note_on_c, 10, 72, 0
13, 35880, Note_on_c, 10, 72, 110
13, 35980, Note_on_c, 10, 72, 0
13, 36000, Note_on_c, 10, 71, 110
13, 36220, Note_on_c, 10, 71, 0
13, 36240, Note_on_c, 10, 72, 110
13, 36460, Note_on_c, 10, 72, 0
13, 39600, Note_on_c, 10, 72, 110
13, 39700, Note_on_c, 10, 72, 0
13, 39720, Note_on_c, 10, 72, 110
13, 39820, Note_on_c, 10, 72, 0
13, 39840, Note_on_c, 10, 71, 110
13, 40060, Note_on_c, 10, 71, 0
13, 40080, Note_on_c, 10, 72, 110
13, 40300, Note_on_c, 10, 72, 0
13, 43440, Note_on_c, 10, 72, 110
13, 43540, Note_on_c, 10, 72, 0
13, 43560, Note_on_c, 10, 72, 110
13, 43660, Note_on_c, 10, 72, 0
13, 43680, Note_on_c, 10, 71, 110
13, 43900, Note_on_c, 10, 71, 0
13, 43920, Note_on_c, 10, 72, 110
13, 44140, Note_on_c, 10, 72, 0
13, 70800, Note_on_c, 10, 76, 110
13, 70800, Note_on_c, 10, 64, 110
13, 71740, Note_on_c, 10, 76, 0
13, 71740, Note_on_c, 10, 64, 0
13, 71760, Note_on_c, 10, 77, 110
13, 71760, Note_on_c, 10, 65, 110
13, 72700, Note_on_c, 10, 77, 0
13, 72700, Note_on_c, 10, 65, 0
13, 72720, Note_on_c, 10, 76, 110
13, 72720, Note_on_c, 10, 64, 110
13, 73660, Note_on_c, 10, 76, 0
13, 73660, Note_on_c, 10, 64, 0
13, 73680, Note_on_c, 10, 74, 110
13, 73680, Note_on_c, 10, 62, 110
13, 74280, Note_on_c, 10, 64, 110
13, 74280, Note_on_c, 10, 76, 110
13, 74380, Note_on_c, 10, 64, 0
13, 74380, Note_on_c, 10, 76, 0
13, 74400, Note_on_c, 10, 67, 110
13, 74400, Note_on_c, 10, 79, 110
13, 74500, Note_on_c, 10, 67, 0
13, 74500, Note_on_c, 10, 79, 0
13, 74520, Note_on_c, 10, 64, 110
13, 74520, Note_on_c, 10, 76, 110
13, 74620, Note_on_c, 10, 74, 0
13, 74620, Note_on_c, 10, 62, 0
13, 75580, Note_on_c, 10, 64, 0
13, 75580, Note_on_c, 10, 76, 0
13, 75600, Note_on_c, 10, 65, 110
13, 75600, Note_on_c, 10, 77, 110
13, 76540, Note_on_c, 10, 65, 0
13, 76540, Note_on_c, 10, 77, 0
13, 76560, Note_on_c, 10, 64, 110
13, 76560, Note_on_c, 10, 76, 110
13, 77500, Note_on_c, 10, 64, 0
13, 77500, Note_on_c, 10, 76, 0
13, 77520, Note_on_c, 10, 62, 110
13, 77520, Note_on_c, 10, 74, 110
13, 78460, Note_on_c, 10, 62, 0
13, 78460, Note_on_c, 10, 74, 0
13, 81840, Note_on_c, 10, 72, 110
13, 81940, Note_on_c, 10, 72, 0
13, 81960, Note_on_c, 10, 72, 110
13, 82060, Note_on_c, 10, 72, 0
13, 82080, Note_on_c, 10, 71, 110
13, 82300, Note_on_c, 10, 71, 0
13, 82320, Note_on_c, 10, 72, 110
13, 82540, Note_on_c, 10, 72, 0
13, 85680, Note_on_c, 10, 72, 110
13, 85900, Note_on_c, 10, 72, 0
13, 85920, Note_on_c, 10, 71, 110
13, 86140, Note_on_c, 10, 71, 0
13, 86160, Note_on_c, 10, 72, 110
13, 86380, Note_on_c, 10, 72, 0
13, 89520, Note_on_c, 10, 72, 110
13, 89620, Note_on_c, 10, 72, 0
13, 89640, Note_on_c, 10, 72, 110
13, 89740, Note_on_c, 10, 72, 0
13, 89760, Note_on_c, 10, 71, 110
13, 89980, Note_on_c, 10, 71, 0
13, 90000, Note_on_c, 10, 72, 110
13, 90220, Note_on_c, 10, 72, 0
13, 93840, Note_on_c, 10, 60, 110
13, 93940, Note_on_c, 10, 60, 0
13, 94080, Note_on_c, 10, 60, 110
13, 94180, Note_on_c, 10, 60, 0
13, 94320, Note_on_c, 10, 57, 110
13, 94420, Note_on_c, 10, 57, 0
13, 94440, Note_on_c, 10, 60, 110
13, 94540, Note_on_c, 10, 60, 0
13, 94560, Note_on_c, 10, 57, 110
13, 94660, Note_on_c, 10, 57, 0
13, 94680, Note_on_c, 10, 55, 110
13, 94760, Note_on_c, 10, 55, 0
13, 94800, Note_on_c, 10, 60, 110
13, 94900, Note_on_c, 10, 60, 0
13, 95040, Note_on_c, 10, 60, 110
13, 95140, Note_on_c, 10, 60, 0
13, 95280, Note_on_c, 10, 57, 110
13, 95380, Note_on_c, 10, 57, 0
13, 95400, Note_on_c, 10, 60, 110
13, 95500, Note_on_c, 10, 60, 0
13, 95520, Note_on_c, 10, 57, 110
13, 95620, Note_on_c, 10, 57, 0
13, 95640, Note_on_c, 10, 55, 110
13, 95720, Note_on_c, 10, 55, 0
13, 95760, Note_on_c, 10, 60, 110
13, 95860, Note_on_c, 10, 60, 0
13, 96000, Note_on_c, 10, 60, 110
13, 96100, Note_on_c, 10, 60, 0
13, 96240, Note_on_c, 10, 57, 110
13, 96340, Note_on_c, 10, 57, 0
13, 96360, Note_on_c, 10, 60, 110
13, 96460, Note_on_c, 10, 60, 0
13, 96480, Note_on_c, 10, 57, 110
13, 96580, Note_on_c, 10, 57, 0
13, 96600, Note_on_c, 10, 55, 110
13, 96680, Note_on_c, 10, 55, 0
13, 96720, Note_on_c, 10, 62, 110
13, 96820, Note_on_c, 10, 62, 0
13, 96960, Note_on_c, 10, 62, 110
13, 97060, Note_on_c, 10, 62, 0
13, 97200, Note_on_c, 10, 55, 110
13, 97300, Note_on_c, 10, 55, 0
13, 97320, Note_on_c, 10, 57, 110
13, 97420, Note_on_c, 10, 57, 0
13, 97440, Note_on_c, 10, 60, 110
13, 97540, Note_on_c, 10, 60, 0
13, 97560, Note_on_c, 10, 57, 110
13, 97640, Note_on_c, 10, 57, 0
13, 97680, Note_on_c, 10, 60, 110
13, 97780, Note_on_c, 10, 60, 0
13, 97920, Note_on_c, 10, 60, 110
13, 98020, Note_on_c, 10, 60, 0
13, 98160, Note_on_c, 10, 57, 110
13, 98260, Note_on_c, 10, 57, 0
13, 98280, Note_on_c, 10, 60, 110
13, 98380, Note_on_c, 10, 60, 0
13, 98400, Note_on_c, 10, 57, 110
13, 98500, Note_on_c, 10, 57, 0
13, 98520, Note_on_c, 10, 55, 110
13, 98600, Note_on_c, 10, 55, 0
13, 98640, Note_on_c, 10, 60, 110
13, 98740, Note_on_c, 10, 60, 0
13, 98880, Note_on_c, 10, 60, 110
13, 98980, Note_on_c, 10, 60, 0
13, 99120, Note_on_c, 10, 57, 110
13, 99220, Note_on_c, 10, 57, 0
13, 99240, Note_on_c, 10, 60, 110
13, 99340, Note_on_c, 10, 60, 0
13, 99360, Note_on_c, 10, 57, 110
13, 99460, Note_on_c, 10, 57, 0
13, 99480, Note_on_c, 10, 55, 110
13, 99560, Note_on_c, 10, 55, 0
13, 99600, Note_on_c, 10, 60, 110
13, 99700, Note_on_c, 10, 60, 0
13, 99840, Note_on_c, 10, 60, 110
13, 99940, Note_on_c, 10, 60, 0
13, 100080, Note_on_c, 10, 57, 110
13, 100180, Note_on_c, 10, 57, 0
13, 100200, Note_on_c, 10, 60, 110
13, 100300, Note_on_c, 10, 60, 0
13, 100320, Note_on_c, 10, 57, 110
13, 100420, Note_on_c, 10, 57, 0
13, 100440, Note_on_c, 10, 55, 110
13, 100520, Note_on_c, 10, 55, 0
13, 100560, Note_on_c, 10, 62, 110
13, 100660, Note_on_c, 10, 62, 0
13, 100800, Note_on_c, 10, 62, 110
13, 100900, Note_on_c, 10, 62, 0
13, 101040, Note_on_c, 10, 55, 110
13, 101140, Note_on_c, 10, 55, 0
13, 101160, Note_on_c, 10, 57, 110
13, 101260, Note_on_c, 10, 57, 0
13, 101280, Note_on_c, 10, 60, 110
13, 101380, Note_on_c, 10, 60, 0
13, 101400, Note_on_c, 10, 57, 110
13, 101480, Note_on_c, 10, 57, 0
13, 101520, Note_on_c, 10, 60, 110
13, 101520, Note_on_c, 10, 52, 110
13, 101520, Note_on_c, 10, 64, 110
13, 101620, Note_on_c, 10, 60, 0
13, 101760, Note_on_c, 10, 60, 110
13, 101860, Note_on_c, 10, 60, 0
13, 102000, Note_on_c, 10, 57, 110
13, 102100, Note_on_c, 10, 57, 0
13, 102120, Note_on_c, 10, 60, 110
13, 102220, Note_on_c, 10, 60, 0
13, 102240, Note_on_c, 10, 57, 110
13, 102340, Note_on_c, 10, 57, 0
13, 102360, Note_on_c, 10, 55, 110
13, 102440, Note_on_c, 10, 55, 0
13, 102460, Note_on_c, 10, 52, 0
13, 102460, Note_on_c, 10, 64, 0
13, 102480, Note_on_c, 10, 60, 110
13, 102480, Note_on_c, 10, 53, 110
13, 102480, Note_on_c, 10, 65, 110
13, 102580, Note_on_c, 10, 60, 0
13, 102720, Note_on_c, 10, 60, 110
13, 102820, Note_on_c, 10, 60, 0
13, 102960, Note_on_c, 10, 57, 110
13, 103060, Note_on_c, 10, 57, 0
13, 103080, Note_on_c, 10, 60, 110
13, 103180, Note_on_c, 10, 60, 0
13, 103200, Note_on_c, 10, 57, 110
13, 103300, Note_on_c, 10, 57, 0
13, 103320, Note_on_c, 10, 55, 110
13, 103400, Note_on_c, 10, 55, 0
13, 103420, Note_on_c, 10, 53, 0
13, 103420, Note_on_c, 10, 65, 0
13, 103440, Note_on_c, 10, 60, 110
13, 103440, Note_on_c, 10, 52, 110
13, 103440, Note_on_c, 10, 64, 110
13, 103540, Note_on_c, 10, 60, 0
13, 103680, Note_on_c, 10, 60, 110
13, 103780, Note_on_c, 10, 60, 0
13, 103920, Note_on_c, 10, 57, 110
13, 104020, Note_on_c, 10, 57, 0
13, 104040, Note_on_c, 10, 60, 110
13, 104140, Note_on_c, 10, 60, 0
13, 104160, Note_on_c, 10, 57, 110
13, 104260, Note_on_c, 10, 57, 0
13, 104280, Note_on_c, 10, 55, 110
13, 104360, Note_on_c, 10, 55, 0
13, 104380, Note_on_c, 10, 52, 0
13, 104380, Note_on_c, 10, 64, 0
13, 104400, Note_on_c, 10, 62, 110
13, 104400, Note_on_c, 10, 50, 110
13, 104400, Note_on_c, 10, 62, 110
13, 104500, Note_on_c, 10, 62, 0
13, 104640, Note_on_c, 10, 62, 110
13, 104740, Note_on_c, 10, 62, 0
13, 104880, Note_on_c, 10, 55, 110
13, 104980, Note_on_c, 10, 55, 0
13, 105000, Note_on_c, 10, 57, 110
13, 105100, Note_on_c, 10, 57, 0
13, 105120, Note_on_c, 10, 60, 110
13, 105220, Note_on_c, 10, 60, 0
13, 105240, Note_on_c, 10, 57, 110
13, 105320, Note_on_c, 10, 57, 0
13, 105340, Note_on_c, 10, 50, 0
13, 105340, Note_on_c, 10, 62, 0
13, 109200, Note_on_c, 10, 64, 110
13, 109200, Note_on_c, 10, 76, 110
13, 110140, Note_on_c, 10, 64, 0
13, 110140, Note_on_c, 10, 76, 0
13, 110160, Note_on_c, 10, 65, 110
13, 110160, Note_on_c, 10, 77, 110
13, 111100, Note_on_c, 10, 65, 0
13, 111100, Note_on_c, 10, 77, 0
13, 111120, Note_on_c, 10, 64, 110
13, 111120, Note_on_c, 10, 76, 110
13, 112060, Note_on_c, 10, 64, 0
13, 112060, Note_on_c, 10, 76, 0
13, 112080, Note_on_c, 10, 62, 110
13, 112080, Note_on_c, 10, 74, 110
13, 113020, Note_on_c, 10, 62, 0
13, 113020, Note_on_c, 10, 74, 0
13, 113040, Note_on_c, 10, 64, 110
13, 113040, Note_on_c, 10, 76, 110
13, 113980, Note_on_c, 10, 64, 0
13, 113980, Note_on_c, 10, 76, 0
13, 114000, Note_on_c, 10, 65, 110
13, 114000, Note_on_c, 10, 77, 110
13, 114940, Note_on_c, 10, 65, 0
13, 114940, Note_on_c, 10, 77, 0
13, 114960, Note_on_c, 10, 64, 110
13, 114960, Note_on_c, 10, 76, 110
13, 115900, Note_on_c, 10, 64, 0
13, 115900, Note_on_c, 10, 76, 0
13, 115920, Note_on_c, 10, 62, 110
13, 115920, Note_on_c, 10, 74, 110
13, 116860, Note_on_c, 10, 62, 0
13, 116860, Note_on_c, 10, 74, 0
13, 116880, Note_on_c, 10, 64, 110
13, 116880, Note_on_c, 10, 76, 110
13, 117820, Note_on_c, 10, 64, 0
13, 117820, Note_on_c, 10, 76, 0
13, 117840, Note_on_c, 10, 65, 110
13, 117840, Note_on_c, 10, 77, 110
13, 118780, Note_on_c, 10, 65, 0
13, 118780, Note_on_c, 10, 77, 0
13, 118800, Note_on_c, 10, 64, 110
13, 118800, Note_on_c, 10, 76, 110
13, 119740, Note_on_c, 10, 64, 0
13, 119740, Note_on_c, 10, 76, 0
13, 119760, Note_on_c, 10, 62, 110
13, 119760, Note_on_c, 10, 74, 110
13, 120700, Note_on_c, 10, 62, 0
13, 120700, Note_on_c, 10, 74, 0
13, 120700, End_track
14, 0, Start_track
14, 0, Program_c, 11, 54
14, 0, Control_c, 11, 7, 64
14, 24720, Note_on_c, 11, 60, 110
14, 24720, Note_on_c, 11, 72, 110
14, 24820, Note_on_c, 11, 60, 0
14, 24820, Note_on_c, 11, 72, 0
14, 24960, Note_on_c, 11, 60, 110
14, 24960, Note_on_c, 11, 72, 110
14, 25060, Note_on_c, 11, 60, 0
14, 25060, Note_on_c, 11, 72, 0
14, 25200, Note_on_c, 11, 57, 110
14, 25200, Note_on_c, 11, 69, 110
14, 25300, Note_on_c, 11, 57, 0
14, 25300, Note_on_c, 11, 69, 0
14, 25320, Note_on_c, 11, 60, 110
14, 25320, Note_on_c, 11, 72, 110
14, 25420, Note_on_c, 11, 60, 0
14, 25420, Note_on_c, 11, 72, 0
14, 25440, Note_on_c, 11, 57, 110
14, 25440, Note_on_c, 11, 69, 110
14, 25540, Note_on_c, 11, 57, 0
14, 25540, Note_on_c, 11, 69, 0
14, 25560, Note_on_c, 11, 55, 110
14, 25560, Note_on_c, 11, 67, 110
14, 25640, Note_on_c, 11, 55, 0
14, 25640, Note_on_c, 11, 67, 0
14, 25680, Note_on_c, 11, 60, 110
14, 25680, Note_on_c, 11, 72, 110
14, 25780, Note_on_c, 11, 60, 0
14, 25780, Note_on_c, 11, 72, 0
14, 25920, Note_on_c, 11, 60, 110
14, 25920, Note_on_c, 11, 72, 110
14, 26020, Note_on_c, 11, 60, 0
14, 26020, Note_on_c, 11, 72, 0
14, 26160, Note_on_c, 11, 57, 110
14, 26160, Note_on_c, 11, 69, 110
14, 26260, Note_on_c, 11, 57, 0
14, 26260, Note_on_c, 11, 69, 0
14, 26280, Note_on_c, 11, 60, 110
14, 26280, Note_on_c, 11, 72, 110
14, 26380, Note_on_c, 11, 60, 0
14, 26380, Note_on_c, 11, 72, 0
14, 26400, Note_on_c, 11, 57, 110
14, 26400, Note_on_c, 11, 69, 110
14, 26500, Note_on_c, 11, 57, 0
14, 26500, Note_on_c, 11, 69, 0
14, 26520, Note_on_c, 11, 55, 110
14, 26520, Note_on_c, 11, 67, 110
14, 26600, Note_on_c, 11, 55, 0
14, 26600, Note_on_c, 11, 67, 0
14, 26640, Note_on_c, 11, 60, 110
14, 26640, Note_on_c, 11, 72, 110
14, 26740, Note_on_c, 11, 60, 0
14, 26740, Note_on_c, 11, 72, 0
14, 26880, Note_on_c, 11, 60, 110
14, 26880, Note_on_c, 11, 72, 110
14, 26980, Note_on_c, 11, 60, 0
14, 26980, Note_on_c, 11, 72, 0
14, 27120, Note_on_c, 11, 57, 110
14, 27120, Note_on_c, 11, 69, 110
14, 27220, Note_on_c, 11, 57, 0
14, 27220, Note_on_c, 11, 69, 0
14, 27240, Note_on_c, 11, 60, 110
14, 27240, Note_on_c, 11, 72, 110
14, 27340, Note_on_c, 11, 60, 0
14, 27340, Note_on_c, 11, 72, 0
14, 27360, Note_on_c, 11, 57, 110
14, 27360, Note_on_c, 11, 69, 110
14, 27460, Note_on_c, 11, 57, 0
14, 27460, Note_on_c, 11, 69, 0
14, 27480, Note_on_c, 11, 67, 110
14, 27480, Note_on_c, 11, 55, 110
14, 27560, Note_on_c, 11, 67, 0
14, 27560, Note_on_c, 11, 55, 0
14, 28560, Note_on_c, 11, 60, 110
14, 28560, Note_on_c, 11, 72, 110
14, 28660, Note_on_c, 11, 60, 0
14, 28660, Note_on_c, 11, 72, 0
14, 28800, Note_on_c, 11, 60, 110
14, 28800, Note_on_c, 11, 72, 110
14, 28900, Note_on_c, 11, 60, 0
14, 28900, Note_on_c, 11, 72, 0
14, 29040, Note_on_c, 11, 57, 110
14, 29040, Note_on_c, 11, 69, 110
14, 29140, Note_on_c, 11, 57, 0
14, 29140, Note_on_c, 11, 69, 0
14, 29160, Note_on_c, 11, 60, 110
14, 29160, Note_on_c, 11, 72, 110
14, 29260, Note_on_c, 11, 60, 0
14, 29260, Note_on_c, 11, 72, 0
14, 29280, Note_on_c, 11, 57, 110
14, 29280, Note_on_c, 11, 69, 110
14, 29380, Note_on_c, 11, 57, 0
14, 29380, Note_on_c, 11, 69, 0
14, 29400, Note_on_c, 11, 55, 110
14, 29400, Note_on_c, 11, 67, 110
14, 29480, Note_on_c, 11, 55, 0
14, 29480, Note_on_c, 11, 67, 0
14, 29520, Note_on_c, 11, 60, 110
14, 29520, Note_on_c, 11, 72, 110
14, 29620, Note_on_c, 11, 60, 0
14, 29620, Note_on_c, 11, 72, 0
14, 29760, Note_on_c, 11, 60, 110
14, 29760, Note_on_c, 11, 72, 110
14, 29860, Note_on_c, 11, 60, 0
14, 29860, Note_on_c, 11, 72, 0
14, 30000, Note_on_c, 11, 57, 110
14, 30000, Note_on_c, 11, 69, 110
14, 30100, Note_on_c, 11, 57, 0
14, 30100, Note_on_c, 11, 69, 0
14, 30120, Note_on_c, 11, 60, 110
14, 30120, Note_on_c, 11, 72, 110
14, 30220, Note_on_c, 11, 60, 0
14, 30220, Note_on_c, 11, 72, 0
14, 30240, Note_on_c, 11, 57, 110
14, 30240, Note_on_c, 11, 69, 110
14, 30340, Note_on_c, 11, 57, 0
14, 30340, Note_on_c, 11, 69, 0
14, 30360, Note_on_c, 11, 55, 110
14, 30360, Note_on_c, 11, 67, 110
14, 30440, Note_on_c, 11, 55, 0
14, 30440, Note_on_c, 11, 67, 0
14, 30480, Note_on_c, 11, 60, 110
14, 30480, Note_on_c, 11, 72, 110
14, 30580, Note_on_c, 11, 60, 0
14, 30580, Note_on_c, 11, 72, 0
14, 30720, Note_on_c, 11, 60, 110
14, 30720, Note_on_c, 11, 72, 110
14, 30820, Note_on_c, 11, 60, 0
14, 30820, Note_on_c, 11, 72, 0
14, 30960, Note_on_c, 11, 57, 110
14, 30960, Note_on_c, 11, 69, 110
14, 31060, Note_on_c, 11, 57, 0
14, 31060, Note_on_c, 11, 69, 0
14, 31080, Note_on_c, 11, 60, 110
14, 31080, Note_on_c, 11, 72, 110
14, 31180, Note_on_c, 11, 60, 0
14, 31180, Note_on_c, 11, 72, 0
14, 31200, Note_on_c, 11, 57, 110
14, 31200, Note_on_c, 11, 69, 110
14, 31300, Note_on_c, 11, 57, 0
14, 31300, Note_on_c, 11, 69, 0
14, 31320, Note_on_c, 11, 67, 110
14, 31320, Note_on_c, 11, 55, 110
14, 31400, Note_on_c, 11, 67, 0
14, 31400, Note_on_c, 11, 55, 0
14, 70800, Note_on_c, 11, 72, 110
14, 70800, Note_on_c, 11, 60, 110
14, 70900, Note_on_c, 11, 72, 0
14, 70900, Note_on_c, 11, 60, 0
14, 71040, Note_on_c, 11, 72, 110
14, 71040, Note_on_c, 11, 60, 110
14, 71140, Note_on_c, 11, 72, 0
14, 71140, Note_on_c, 11, 60, 0
14, 71280, Note_on_c, 11, 69, 110
14, 71280, Note_on_c, 11, 57, 110
14, 71380, Note_on_c, 11, 69, 0
14, 71380, Note_on_c, 11, 57, 0
14, 71400, Note_on_c, 11, 72, 110
14, 71400, Note_on_c, 11, 60, 110
14, 71500, Note_on_c, 11, 72, 0
14, 71500, Note_on_c, 11, 60, 0
14, 71520, Note_on_c, 11, 69, 110
14, 71520, Note_on_c, 11, 57, 110
14, 71620, Note_on_c, 11, 69, 0
14, 71620, Note_on_c, 11, 57, 0
14, 71640, Note_on_c, 11, 67, 110
14, 71640, Note_on_c, 11, 55, 110
14, 71720, Note_on_c, 11, 67, 0
14, 71720, Note_on_c, 11, 55, 0
14, 71760, Note_on_c, 11, 60, 110
14, 71760, Note_on_c, 11, 72, 110
14, 71860, Note_on_c, 11, 60, 0
14, 71860, Note_on_c, 11, 72, 0
14, 72000, Note_on_c, 11, 60, 110
14, 72000, Note_on_c, 11, 72, 110
14, 72100, Note_on_c, 11, 60, 0
14, 72100, Note_on_c, 11, 72, 0
14, 72240, Note_on_c, 11, 57, 110
14, 72240, Note_on_c, 11, 69, 110
14, 72340, Note_on_c, 11, 57, 0
14, 72340, Note_on_c, 11, 69, 0
14, 72360, Note_on_c, 11, 60, 110
14, 72360, Note_on_c, 11, 72, 110
14, 72460, Note_on_c, 11, 60, 0
14, 72460, Note_on_c, 11, 72, 0
14, 72480, Note_on_c, 11, 57, 110
14, 72480, Note_on_c, 11, 69, 110
14, 72580, Note_on_c, 11, 57, 0
14, 72580, Note_on_c, 11, 69, 0
14, 72600, Note_on_c, 11, 55, 110
14, 72600, Note_on_c, 11, 67, 110
14, 72680, Note_on_c, 11, 55, 0
14, 72680, Note_on_c, 11, 67, 0
14, 72720, Note_on_c, 11, 60, 110
14, 72720, Note_on_c, 11, 72, 110
14, 72820, Note_on_c, 11, 60, 0
14, 72820, Note_on_c, 11, 72, 0
14, 72960, Note_on_c, 11, 60, 110
14, 72960, Note_on_c, 11, 72, 110
14, 73060, Note_on_c, 11, 60, 0
14, 73060, Note_on_c, 11, 72, 0
14, 73200, Note_on_c, 11, 57, 110
14, 73200, Note_on_c, 11, 69, 110
14, 73300, Note_on_c, 11, 57, 0
14, 73300, Note_on_c, 11, 69, 0
14, 73320, Note_on_c, 11, 60, 110
14, 73320, Note_on_c, 11, 72, 110
14, 73420, Note_on_c, 11, 60, 0
14, 73420, Note_on_c, 11, 72, 0
14, 73440, Note_on_c, 11, 57, 110
14, 73440, Note_on_c, 11, 69, 110
14, 73540, Note_on_c, 11, 57, 0
14, 73540, Note_on_c, 11, 69, 0
14, 73560, Note_on_c, 11, 67, 110
14, 73560, Note_on_c, 11, 55, 110
14, 73640, Note_on_c, 11, 67, 0
14, 73640, Note_on_c, 11, 55, 0
14, 74640, Note_on_c, 11, 72, 110
14, 74640, Note_on_c, 11, 60, 110
14, 74740, Note_on_c, 11, 72, 0
14, 74740, Note_on_c, 11, 60, 0
14, 74880, Note_on_c, 11, 72, 110
14, 74880, Note_on_c, 11, 60, 110
14, 74980, Note_on_c, 11, 72, 0
14, 74980, Note_on_c, 11, 60, 0
14, 75120, Note_on_c, 11, 69, 110
14, 75120, Note_on_c, 11, 57, 110
14, 75220, Note_on_c, 11, 69, 0
14, 75220, Note_on_c, 11, 57, 0
14, 75240, Note_on_c, 11, 72, 110
14, 75240, Note_on_c, 11, 60, 110
14, 75340, Note_on_c, 11, 72, 0
14, 75340, Note_on_c, 11, 60, 0
14, 75360, Note_on_c, 11, 69, 110
14, 75360, Note_on_c, 11, 57, 110
14, 75460, Note_on_c, 11, 69, 0
14, 75460, Note_on_c, 11, 57, 0
14, 75480, Note_on_c, 11, 67, 110
14, 75480, Note_on_c, 11, 55, 110
14, 75560, Note_on_c, 11, 67, 0
14, 75560, Note_on_c, 11, 55, 0
14, 75600, Note_on_c, 11, 72, 110
14, 75600, Note_on_c, 11, 60, 110
14, 75700, Note_on_c, 11, 72, 0
14, 75700, Note_on_c, 11, 60, 0
14, 75840, Note_on_c, 11, 60, 110
14, 75840, Note_on_c, 11, 72, 110
14, 75940, Note_on_c, 11, 60, 0
14, 75940, Note_on_c, 11, 72, 0
14, 76080, Note_on_c, 11, 57, 110
14, 76080, Note_on_c, 11, 69, 110
14, 76180, Note_on_c, 11, 57, 0
14, 76180, Note_on_c, 11, 69, 0
14, 76200, Note_on_c, 11, 60, 110
14, 76200, Note_on_c, 11, 72, 110
14, 76300, Note_on_c, 11, 60, 0
14, 76300, Note_on_c, 11, 72, 0
14, 76320, Note_on_c, 11, 57, 110
14, 76320, Note_on_c, 11, 69, 110
14, 76420, Note_on_c, 11, 57, 0
14, 76420, Note_on_c, 11, 69, 0
14, 76440, Note_on_c, 11, 55, 110
14, 76440, Note_on_c, 11, 67, 110
14, 76520, Note_on_c, 11, 55, 0
14, 76520, Note_on_c, 11, 67, 0
14, 76560, Note_on_c, 11, 60, 110
14, 76560, Note_on_c, 11, 72, 110
14, 76660, Note_on_c, 11, 60, 0
14, 76660, Note_on_c, 11, 72, 0
14, 76800, Note_on_c, 11, 60, 110
14, 76800, Note_on_c, 11, 72, 110
14, 76900, Note_on_c, 11, 60, 0
14, 76900, Note_on_c, 11, 72, 0
14, 77040, Note_on_c, 11, 57, 110
14, 77040, Note_on_c, 11, 69, 110
14, 77140, Note_on_c, 11, 57, 0
14, 77140, Note_on_c, 11, 69, 0
14, 77160, Note_on_c, 11, 60, 110
14, 77160, Note_on_c, 11, 72, 110
14, 77260, Note_on_c, 11, 60, 0
14, 77260, Note_on_c, 11, 72, 0
14, 77280, Note_on_c, 11, 57, 110
14, 77280, Note_on_c, 11, 69, 110
14, 77380, Note_on_c, 11, 57, 0
14, 77380, Note_on_c, 11, 69, 0
14, 77400, Note_on_c, 11, 67, 110
14, 77400, Note_on_c, 11, 55, 110
14, 77480, Note_on_c, 11, 67, 0
14, 77480, Note_on_c, 11, 55, 0
14, 109200, Note_on_c, 11, 60, 110
14, 109200, Note_on_c, 11, 72, 110
14, 109300, Note_on_c, 11, 60, 0
14, 109300, Note_on_c, 11, 72, 0
14, 109440, Note_on_c, 11, 60, 110
14, 109440, Note_on_c, 11, 72, 110
14, 109540, Note_on_c, 11, 60, 0
14, 109540, Note_on_c, 11, 72, 0
14, 109680, Note_on_c, 11, 57, 110
14, 109680, Note_on_c, 11, 69, 110
14, 109780, Note_on_c, 11, 57, 0
14, 109780, Note_on_c, 11, 69, 0
14, 109800, Note_on_c, 11, 60, 110
14, 109800, Note_on_c, 11, 72, 110
14, 109900, Note_on_c, 11, 60, 0
14, 109900, Note_on_c, 11, 72, 0
14, 109920, Note_on_c, 11, 57, 110
14, 109920, Note_on_c, 11, 69, 110
14, 110020, Note_on_c, 11, 57, 0
14, 110020, Note_on_c, 11, 69, 0
14, 110040, Note_on_c, 11, 55, 110
14, 110040, Note_on_c, 11, 67, 110
14, 110120, Note_on_c, 11, 55, 0
14, 110120, Note_on_c, 11, 67, 0
14, 110160, Note_on_c, 11, 60, 110
14, 110160, Note_on_c, 11, 72, 110
14, 110260, Note_on_c, 11, 60, 0
14, 110260, Note_on_c, 11, 72, 0
14, 110400, Note_on_c, 11, 60, 110
14, 110400, Note_on_c, 11, 72, 110
14, 110500, Note_on_c, 11, 60, 0
14, 110500, Note_on_c, 11, 72, 0
14, 110640, Note_on_c, 11, 57, 110
14, 110640, Note_on_c, 11, 69, 110
14, 110740, Note_on_c, 11, 57, 0
14, 110740, Note_on_c, 11, 69, 0
14, 110760, Note_on_c, 11, 60, 110
14, 110760, Note_on_c, 11, 72, 110
14, 110860, Note_on_c, 11, 60, 0
14, 110860, Note_on_c, 11, 72, 0
14, 110880, Note_on_c, 11, 57, 110
14, 110880, Note_on_c, 11, 69, 110
14, 110980, Note_on_c, 11, 57, 0
14, 110980, Note_on_c, 11, 69, 0
14, 111000, Note_on_c, 11, 55, 110
14, 111000, Note_on_c, 11, 67, 110
14, 111080, Note_on_c, 11, 55, 0
14, 111080, Note_on_c, 11, 67, 0
14, 111120, Note_on_c, 11, 60, 110
14, 111120, Note_on_c, 11, 72, 110
14, 111220, Note_on_c, 11, 60, 0
14, 111220, Note_on_c, 11, 72, 0
14, 111360, Note_on_c, 11, 60, 110
14, 111360, Note_on_c, 11, 72, 110
14, 111460, Note_on_c, 11, 60, 0
14, 111460, Note_on_c, 11, 72, 0
14, 111600, Note_on_c, 11, 57, 110
14, 111600, Note_on_c, 11, 69, 110
14, 111700, Note_on_c, 11, 57, 0
14, 111700, Note_on_c, 11, 69, 0
14, 111720, Note_on_c, 11, 60, 110
14, 111720, Note_on_c, 11, 72, 110
14, 111820, Note_on_c, 11, 60, 0
14, 111820, Note_on_c, 11, 72, 0
14, 111840, Note_on_c, 11, 57, 110
14, 111840, Note_on_c, 11, 69, 110
14, 111940, Note_on_c, 11, 57, 0
14, 111940, Note_on_c, 11, 69, 0
14, 111960, Note_on_c, 11, 67, 110
14, 111960, Note_on_c, 11, 55, 110
14, 112040, Note_on_c, 11, 67, 0
14, 112040, Note_on_c, 11, 55, 0
14, 113040, Note_on_c, 11, 60, 110
14, 113040, Note_on_c, 11, 72, 110
14, 113140, Note_on_c, 11, 60, 0
14, 113140, Note_on_c, 11, 72, 0
14, 113280, Note_on_c, 11, 60, 110
14, 113280, Note_on_c, 11, 72, 110
14, 113380, Note_on_c, 11, 60, 0
14, 113380, Note_on_c, 11, 72, 0
14, 113520, Note_on_c, 11, 57, 110
14, 113520, Note_on_c, 11, 69, 110
14, 113620, Note_on_c, 11, 57, 0
14, 113620, Note_on_c, 11, 69, 0
14, 113640, Note_on_c, 11, 60, 110
14, 113640, Note_on_c, 11, 72, 110
14, 113740, Note_on_c, 11, 60, 0
14, 113740, Note_on_c, 11, 72, 0
14, 113760, Note_on_c, 11, 57, 110
14, 113760, Note_on_c, 11, 69, 110
14, 113860, Note_on_c, 11, 57, 0
14, 113860, Note_on_c, 11, 69, 0
14, 113880, Note_on_c, 11, 55, 110
14, 113880, Note_on_c, 11, 67, 110
14, 113960, Note_on_c, 11, 55, 0
14, 113960, Note_on_c, 11, 67, 0
14, 114000, Note_on_c, 11, 60, 110
14, 114000, Note_on_c, 11, 72, 110
14, 114100, Note_on_c, 11, 60, 0
14, 114100, Note_on_c, 11, 72, 0
14, 114240, Note_on_c, 11, 60, 110
14, 114240, Note_on_c, 11, 72, 110
14, 114340, Note_on_c, 11, 60, 0
14, 114340, Note_on_c, 11, 72, 0
14, 114480, Note_on_c, 11, 57, 110
14, 114480, Note_on_c, 11, 69, 110
14, 114580, Note_on_c, 11, 57, 0
14, 114580, Note_on_c, 11, 69, 0
14, 114600, Note_on_c, 11, 60, 110
14, 114600, Note_on_c, 11, 72, 110
14, 114700, Note_on_c, 11, 60, 0
14, 114700, Note_on_c, 11, 72, 0
14, 114720, Note_on_c, 11, 57, 110
14, 114720, Note_on_c, 11, 69, 110
14, 114820, Note_on_c, 11, 57, 0
14, 114820, Note_on_c, 11, 69, 0
14, 114840, Note_on_c, 11, 55, 110
14, 114840, Note_on_c, 11, 67, 110
14, 114920, Note_on_c, 11, 55, 0
14, 114920, Note_on_c, 11, 67, 0
14, 114960, Note_on_c, 11, 60, 110
14, 114960, Note_on_c, 11, 72, 110
14, 115060, Note_on_c, 11, 60, 0
14, 115060, Note_on_c, 11, 72, 0
14, 115200, Note_on_c, 11, 60, 110
14, 115200, Note_on_c, 11, 72, 110
14, 115300, Note_on_c, 11, 60, 0
14, 115300, Note_on_c, 11, 72, 0
14, 115440, Note_on_c, 11, 57, 110
14, 115440, Note_on_c, 11, 69, 110
14, 115540, Note_on_c, 11, 57, 0
14, 115540, Note_on_c, 11, 69, 0
14, 115560, Note_on_c, 11, 60, 110
14, 115560, Note_on_c, 11, 72, 110
14, 115660, Note_on_c, 11, 60, 0
14, 115660, Note_on_c, 11, 72, 0
14, 115680, Note_on_c, 11, 57, 110
14, 115680, Note_on_c, 11, 69, 110
14, 115780, Note_on_c, 11, 57, 0
14, 115780, Note_on_c, 11, 69, 0
14, 115800, Note_on_c, 11, 67, 110
14, 115800, Note_on_c, 11, 55, 110
14, 115880, Note_on_c, 11, 67, 0
14, 115880, Note_on_c, 11, 55, 0
14, 116880, Note_on_c, 11, 60, 110
14, 116880, Note_on_c, 11, 72, 110
14, 116980, Note_on_c, 11, 60, 0
14, 116980, Note_on_c, 11, 72, 0
14, 117120, Note_on_c, 11, 60, 110
14, 117120, Note_on_c, 11, 72, 110
14, 117220, Note_on_c, 11, 60, 0
14, 117220, Note_on_c, 11, 72, 0
14, 117360, Note_on_c, 11, 57, 110
14, 117360, Note_on_c, 11, 69, 110
14, 117460, Note_on_c, 11, 57, 0
14, 117460, Note_on_c, 11, 69, 0
14, 117480, Note_on_c, 11, 60, 110
14, 117480, Note_on_c, 11, 72, 110
14, 117580, Note_on_c, 11, 60, 0
14, 117580, Note_on_c, 11, 72, 0
14, 117600, Note_on_c, 11, 57, 110
14, 117600, Note_on_c, 11, 69, 110
14, 117700, Note_on_c, 11, 57, 0
14, 117700, Note_on_c, 11, 69, 0
14, 117720, Note_on_c, 11, 55, 110
14, 117720, Note_on_c, 11, 67, 110
14, 117800, Note_on_c, 11, 55, 0
14, 117800, Note_on_c, 11, 67, 0
14, 117840, Note_on_c, 11, 60, 110
14, 117840, Note_on_c, 11, 72, 110
14, 117940, Note_on_c, 11, 60, 0
14, 117940, Note_on_c, 11, 72, 0
14, 118080, Note_on_c, 11, 60, 110
14, 118080, Note_on_c, 11, 72, 110
14, 118180, Note_on_c, 11, 60, 0
14, 118180, Note_on_c, 11, 72, 0
14, 118320, Note_on_c, 11, 57, 110
14, 118320, Note_on_c, 11, 69, 110
14, 118420, Note_on_c, 11, 57, 0
14, 118420, Note_on_c, 11, 69, 0
14, 118440, Note_on_c, 11, 60, 110
14, 118440, Note_on_c, 11, 72, 110
14, 118540, Note_on_c, 11, 60, 0
14, 118540, Note_on_c, 11, 72, 0
14, 118560, Note_on_c, 11, 57, 110
14, 118560, Note_on_c, 11, 69, 110
14, 118660, Note_on_c, 11, 57, 0
14, 118660, Note_on_c, 11, 69, 0
14, 118680, Note_on_c, 11, 55, 110
14, 118680, Note_on_c, 11, 67, 110
14, 118760, Note_on_c, 11, 55, 0
14, 118760, Note_on_c, 11, 67, 0
14, 118800, Note_on_c, 11, 60, 110
14, 118800, Note_on_c, 11, 72, 110
14, 118900, Note_on_c, 11, 60, 0
14, 118900, Note_on_c, 11, 72, 0
14, 119040, Note_on_c, 11, 60, 110
14, 119040, Note_on_c, 11, 72, 110
14, 119140, Note_on_c, 11, 60, 0
14, 119140, Note_on_c, 11, 72, 0
14, 119280, Note_on_c, 11, 57, 110
14, 119280, Note_on_c, 11, 69, 110
14, 119380, Note_on_c, 11, 57, 0
14, 119380, Note_on_c, 11, 69, 0
14, 119400, Note_on_c, 11, 60, 110
14, 119400, Note_on_c, 11, 72, 110
14, 119500, Note_on_c, 11, 60, 0
14, 119500, Note_on_c, 11, 72, 0
14, 119520, Note_on_c, 11, 57, 110
14, 119520, Note_on_c, 11, 69, 110
14, 119620, Note_on_c, 11, 57, 0
14, 119620, Note_on_c, 11, 69, 0
14, 119640, Note_on_c, 11, 67, 110
14, 119640, Note_on_c, 11, 55, 110
14, 119720, Note_on_c, 11, 67, 0
14, 119720, Note_on_c, 11, 55, 0
14, 128400, Note_on_c, 11, 72, 110
14, 128400, Note_on_c, 11, 67, 110
14, 129340, Note_on_c, 11, 72, 0
14, 129340, Note_on_c, 11, 67, 0
14, 129360, Note_on_c, 11, 69, 110
14, 130300, Note_on_c, 11, 69, 0
14, 130320, Note_on_c, 11, 72, 110
14, 130320, Note_on_c, 11, 67, 110
14, 131260, Note_on_c, 11, 72, 0
14, 131260, Note_on_c, 11, 67, 0
14, 131280, Note_on_c, 11, 71, 110
14, 131280, Note_on_c, 11, 67, 110
14, 132220, Note_on_c, 11, 71, 0
14, 132220, Note_on_c, 11, 67, 0
14, 132240, Note_on_c, 11, 67, 110
14, 132240, Note_on_c, 11, 72, 110
14, 133180, Note_on_c, 11, 67, 0
14, 133180, Note_on_c, 11, 72, 0
14, 133200, Note_on_c, 11, 69, 110
14, 134140, Note_on_c, 11, 69, 0
14, 134160, Note_on_c, 11, 72, 110
14, 134160, Note_on_c, 11, 67, 110
14, 135100, Note_on_c, 11, 72, 0
14, 135100, Note_on_c, 11, 67, 0
14, 135120, Note_on_c, 11, 67, 110
14, 135120, Note_on_c, 11, 71, 110
14, 136060, Note_on_c, 11, 67, 0
14, 136060, Note_on_c, 11, 71, 0
14, 136060, End_track
15, 0, Start_track
15, 0, Program_c, 12, 57
15, 0, Control_c, 12, 7, 90
15, 111600, Note_on_c, 12, 76, 110
15, 111700, Note_on_c, 12, 76, 0
15, 111720, Note_on_c, 12, 76, 110
15, 111940, Note_on_c, 12, 76, 0
15, 111960, Note_on_c, 12, 76, 110
15, 112180, Note_on_c, 12, 76, 0
15, 112200, Note_on_c, 12, 74, 110
15, 112300, Note_on_c, 12, 74, 0
15, 112320, Note_on_c, 12, 72, 110
15, 112420, Note_on_c, 12, 72, 0
15, 112440, Note_on_c, 12, 74, 110
15, 112540, Note_on_c, 12, 74, 0
15, 112560, Note_on_c, 12, 76, 110
15, 112780, Note_on_c, 12, 76, 0
15, 112800, Note_on_c, 12, 72, 110
15, 113020, Note_on_c, 12, 72, 0
15, 115200, Note_on_c, 12, 74, 110
15, 115420, Note_on_c, 12, 74, 0
15, 115440, Note_on_c, 12, 76, 110
15, 115540, Note_on_c, 12, 76, 0
15, 115560, Note_on_c, 12, 76, 110
15, 115780, Note_on_c, 12, 76, 0
15, 115800, Note_on_c, 12, 76, 110
15, 116020, Note_on_c, 12, 76, 0
15, 116040, Note_on_c, 12, 74, 110
15, 116140, Note_on_c, 12, 74, 0
15, 116160, Note_on_c, 12, 72, 110
15, 116260, Note_on_c, 12, 72, 0
15, 116280, Note_on_c, 12, 74, 110
15, 116380, Note_on_c, 12, 74, 0
15, 116400, Note_on_c, 12, 76, 110
15, 116620, Note_on_c, 12, 76, 0
15, 116640, Note_on_c, 12, 72, 110
15, 116860, Note_on_c, 12, 72, 0
15, 117840, Note_on_c, 12, 79, 110
15, 117940, Note_on_c, 12, 79, 0
15, 117960, Note_on_c, 12, 79, 110
15, 118180, Note_on_c, 12, 79, 0
15, 118200, Note_on_c, 12, 79, 110
15, 118420, Note_on_c, 12, 79, 0
15, 119640, Note_on_c, 12, 76, 110
15, 119740, Note_on_c, 12, 76, 0
15, 119760, Note_on_c, 12, 79, 110
15, 119860, Note_on_c, 12, 79, 0
15, 119880, Note_on_c, 12, 79, 110
15, 119980, Note_on_c, 12, 79, 0
15, 120000, Note_on_c, 12, 79, 110
15, 120100, Note_on_c, 12, 79, 0
15, 120120, Note_on_c, 12, 79, 110
15, 120340, Note_on_c, 12, 79, 0
15, 120360, Note_on_c, 12, 76, 110
15, 120580, Note_on_c, 12, 76, 0
15, 124560, Note_on_c, 12, 48, 110
15, 124560, Note_on_c, 12, 60, 110
15, 124660, Note_on_c, 12, 48, 0
15, 124660, Note_on_c, 12, 60, 0
15, 124800, Note_on_c, 12, 48, 110
15, 124800, Note_on_c, 12, 60, 110
15, 124900, Note_on_c, 12, 48, 0
15, 124900, Note_on_c, 12, 60, 0
15, 125040, Note_on_c, 12, 45, 110
15, 125040, Note_on_c, 12, 57, 110
15, 125140, Note_on_c, 12, 45, 0
15, 125140, Note_on_c, 12, 57, 0
15, 125160, Note_on_c, 12, 60, 110
15, 125160, Note_on_c, 12, 48, 110
15, 125260, Note_on_c, 12, 60, 0
15, 125260, Note_on_c, 12, 48, 0
15, 125280, Note_on_c, 12, 57, 110
15, 125280, Note_on_c, 12, 45, 110
15, 125380, Note_on_c, 12, 57, 0
15, 125380, Note_on_c, 12, 45, 0
15, 125400, Note_on_c, 12, 55, 110
15, 125400, Note_on_c, 12, 43, 110
15, 125480, Note_on_c, 12, 55, 0
15, 125480, Note_on_c, 12, 43, 0
15, 125520, Note_on_c, 12, 48, 110
15, 125520, Note_on_c, 12, 60, 110
15, 125620, Note_on_c, 12, 48, 0
15, 125620, Note_on_c, 12, 60, 0
15, 125760, Note_on_c, 12, 48, 110
15, 125760, Note_on_c, 12, 60, 110
15, 125860, Note_on_c, 12, 48, 0
15, 125860, Note_on_c, 12, 60, 0
15, 126000, Note_on_c, 12, 45, 110
15, 126000, Note_on_c, 12, 57, 110
15, 126100, Note_on_c, 12, 45, 0
15, 126100, Note_on_c, 12, 57, 0
15, 126120, Note_on_c, 12, 48, 110
15, 126120, Note_on_c, 12, 60, 110
15, 126220, Note_on_c, 12, 48, 0
15, 126220, Note_on_c, 12, 60, 0
15, 126240, Note_on_c, 12, 45, 110
15, 126240, Note_on_c, 12, 57, 110
15, 126340, Note_on_c, 12, 45, 0
15, 126340, Note_on_c, 12, 57, 0
15, 126360, Note_on_c, 12, 43, 110
15, 126360, Note_on_c, 12, 55, 110
15, 126440, Note_on_c, 12, 43, 0
15, 126440, Note_on_c, 12, 55, 0
15, 126480, Note_on_c, 12, 48, 110
15, 126480, Note_on_c, 12, 60, 110
15, 126580, Note_on_c, 12, 48, 0
15, 126580, Note_on_c, 12, 60, 0
15, 126720, Note_on_c, 12, 48, 110
15, 126720, Note_on_c, 12, 60, 110
15, 126820, Note_on_c, 12, 48, 0
15, 126820, Note_on_c, 12, 60, 0
15, 126960, Note_on_c, 12, 45, 110
15, 126960, Note_on_c, 12, 57, 110
15, 127060, Note_on_c, 12, 45, 0
15, 127060, Note_on_c, 12, 57, 0
15, 127080, Note_on_c, 12, 48, 110
15, 127080, Note_on_c, 12, 60, 110
15, 127180, Note_on_c, 12, 48, 0
15, 127180, Note_on_c, 12, 60, 0
15, 127200, Note_on_c, 12, 45, 110
15, 127200, Note_on_c, 12, 57, 110
15, 127300, Note_on_c, 12, 45, 0
15, 127300, Note_on_c, 12, 57, 0
15, 127320, Note_on_c, 12, 43, 110
15, 127320, Note_on_c, 12, 55, 110
15, 127400, Note_on_c, 12, 43, 0
15, 127400, Note_on_c, 12, 55, 0
15, 127440, Note_on_c, 12, 62, 110
15, 127440, Note_on_c, 12, 50, 110
15, 127540, Note_on_c, 12, 62, 0
15, 127540, Note_on_c, 12, 50, 0
15, 127680, Note_on_c, 12, 62, 110
15, 127680, Note_on_c, 12, 50, 110
15, 127780, Note_on_c, 12, 62, 0
15, 127780, Note_on_c, 12, 50, 0
15, 127920, Note_on_c, 12, 55, 110
15, 127920, Note_on_c, 12, 43, 110
15, 128020, Note_on_c, 12, 55, 0
15, 128020, Note_on_c, 12, 43, 0
15, 128040, Note_on_c, 12, 57, 110
15, 128040, Note_on_c, 12, 45, 110
15, 128140, Note_on_c, 12, 57, 0
15, 128140, Note_on_c, 12, 45, 0
15, 128160, Note_on_c, 12, 60, 110
15, 128160, Note_on_c, 12, 48, 110
15, 128260, Note_on_c, 12, 60, 0
15, 128260, Note_on_c, 12, 48, 0
15, 128280, Note_on_c, 12, 57, 110
15, 128280, Note_on_c, 12, 45, 110
15, 128360, Note_on_c, 12, 57, 0
15, 128360, Note_on_c, 12, 45, 0
15, 128400, Note_on_c, 12, 48, 110
15, 128400, Note_on_c, 12, 60, 110
15, 128500, Note_on_c, 12, 48, 0
15, 128500, Note_on_c, 12, 60, 0
15, 128640, Note_on_c, 12, 48, 110
15, 128640, Note_on_c, 12, 60, 110
15, 128740, Note_on_c, 12, 48, 0
15, 128740, Note_on_c, 12, 60, 0
15, 128880, Note_on_c, 12, 45, 110
15, 128880, Note_on_c, 12, 57, 110
15, 128980, Note_on_c, 12, 45, 0
15, 128980, Note_on_c, 12, 57, 0
15, 129000, Note_on_c, 12, 48, 110
15, 129000, Note_on_c, 12, 60, 110
15, 129100, Note_on_c, 12, 48, 0
15, 129100, Note_on_c, 12, 60, 0
15, 129120, Note_on_c, 12, 45, 110
15, 129120, Note_on_c, 12, 57, 110
15, 129220, Note_on_c, 12, 45, 0
15, 129220, Note_on_c, 12, 57, 0
15, 129240, Note_on_c, 12, 43, 110
15, 129240, Note_on_c, 12, 55, 110
15, 129320, Note_on_c, 12, 43, 0
15, 129320, Note_on_c, 12, 55, 0
15, 129360, Note_on_c, 12, 48, 110
15, 129360, Note_on_c, 12, 60, 110
15, 129460, Note_on_c, 12, 48, 0
15, 129460, Note_on_c, 12, 60, 0
15, 129600, Note_on_c, 12, 48, 110
15, 129600, Note_on_c, 12, 60, 110
15, 129700, Note_on_c, 12, 48, 0
15, 129700, Note_on_c, 12, 60, 0
15, 129840, Note_on_c, 12, 45, 110
15, 129840, Note_on_c, 12, 57, 110
15, 129940, Note_on_c, 12, 45, 0
15, 129940, Note_on_c, 12, 57, 0
15, 129960, Note_on_c, 12, 48, 110
15, 129960, Note_on_c, 12, 60, 110
15, 130060, Note_on_c, 12, 48, 0
15, 130060, Note_on_c, 12, 60, 0
15, 130080, Note_on_c, 12, 45, 110
15, 130080, Note_on_c, 12, 57, 110
15, 130180, Note_on_c, 12, 45, 0
15, 130180, Note_on_c, 12, 57, 0
15, 130200, Note_on_c, 12, 43, 110
15, 130200, Note_on_c, 12, 55, 110
15, 130280, Note_on_c, 12, 43, 0
15, 130280, Note_on_c, 12, 55, 0
15, 130320, Note_on_c, 12, 48, 110
15, 130320, Note_on_c, 12, 60, 110
15, 130420, Note_on_c, 12, 48, 0
15, 130420, Note_on_c, 12, 60, 0
15, 130560, Note_on_c, 12, 48, 110
15, 130560, Note_on_c, 12, 60, 110
15, 130660, Note_on_c, 12, 48, 0
15, 130660, Note_on_c, 12, 60, 0
15, 130800, Note_on_c, 12, 45, 110
15, 130800, Note_on_c, 12, 57, 110
15, 130900, Note_on_c, 12, 45, 0
15, 130900, Note_on_c, 12, 57, 0
15, 130920, Note_on_c, 12, 48, 110
15, 130920, Note_on_c, 12, 60, 110
15, 131020, Note_on_c, 12, 48, 0
15, 131020, Note_on_c, 12, 60, 0
15, 131040, Note_on_c, 12, 45, 110
15, 131040, Note_on_c, 12, 57, 110
15, 131140, Note_on_c, 12, 45, 0
15, 131140, Note_on_c, 12, 57, 0
15, 131160, Note_on_c, 12, 43, 110
15, 131160, Note_on_c, 12, 55, 110
15, 131240, Note_on_c, 12, 43, 0
15, 131240, Note_on_c, 12, 55, 0
15, 131280, Note_on_c, 12, 62, 110
15, 131280, Note_on_c, 12, 50, 110
15, 131380, Note_on_c, 12, 62, 0
15, 131380, Note_on_c, 12, 50, 0
15, 131520, Note_on_c, 12, 62, 110
15, 131520, Note_on_c, 12, 50, 110
15, 131620, Note_on_c, 12, 62, 0
15, 131620, Note_on_c, 12, 50, 0
15, 131760, Note_on_c, 12, 55, 110
15, 131760, Note_on_c, 12, 43, 110
15, 131860, Note_on_c, 12, 55, 0
15, 131860, Note_on_c, 12, 43, 0
15, 131880, Note_on_c, 12, 57, 110
15, 131880, Note_on_c, 12, 45, 110
15, 131980, Note_on_c, 12, 57, 0
15, 131980, Note_on_c, 12, 45, 0
15, 132000, Note_on_c, 12, 60, 110
15, 132000, Note_on_c, 12, 48, 110
15, 132100, Note_on_c, 12, 60, 0
15, 132100, Note_on_c, 12, 48, 0
15, 132120, Note_on_c, 12, 57, 110
15, 132120, Note_on_c, 12, 45, 110
15, 132200, Note_on_c, 12, 57, 0
15, 132200, Note_on_c, 12, 45, 0
15, 132240, Note_on_c, 12, 48, 110
15, 132240, Note_on_c, 12, 60, 110
15, 132340, Note_on_c, 12, 48, 0
15, 132340, Note_on_c, 12, 60, 0
15, 132480, Note_on_c, 12, 48, 110
15, 132480, Note_on_c, 12, 60, 110
15, 132580, Note_on_c, 12, 48, 0
15, 132580, Note_on_c, 12, 60, 0
15, 132720, Note_on_c, 12, 45, 110
15, 132720, Note_on_c, 12, 57, 110
15, 132820, Note_on_c, 12, 45, 0
15, 132820, Note_on_c, 12, 57, 0
15, 132840, Note_on_c, 12, 48, 110
15, 132840, Note_on_c, 12, 60, 110
15, 132940, Note_on_c, 12, 48, 0
15, 132940, Note_on_c, 12, 60, 0
15, 132960, Note_on_c, 12, 45, 110
15, 132960, Note_on_c, 12, 57, 110
15, 133060, Note_on_c, 12, 45, 0
15, 133060, Note_on_c, 12, 57, 0
15, 133080, Note_on_c, 12, 43, 110
15, 133080, Note_on_c, 12, 55, 110
15, 133160, Note_on_c, 12, 43, 0
15, 133160, Note_on_c, 12, 55, 0
15, 133200, Note_on_c, 12, 48, 110
15, 133200, Note_on_c, 12, 60, 110
15, 133300, Note_on_c, 12, 48, 0
15, 133300, Note_on_c, 12, 60, 0
15, 133440, Note_on_c, 12, 48, 110
15, 133440, Note_on_c, 12, 60, 110
15, 133540, Note_on_c, 12, 48, 0
15, 133540, Note_on_c, 12, 60, 0
15, 133680, Note_on_c, 12, 45, 110
15, 133680, Note_on_c, 12, 57, 110
15, 133780, Note_on_c, 12, 45, 0
15, 133780, Note_on_c, 12, 57, 0
15, 133800, Note_on_c, 12, 48, 110
15, 133800, Note_on_c, 12, 60, 110
15, 133900, Note_on_c, 12, 48, 0
15, 133900, Note_on_c, 12, 60, 0
15, 133920, Note_on_c, 12, 45, 110
15, 133920, Note_on_c, 12, 57, 110
15, 134020, Note_on_c, 12, 45, 0
15, 134020, Note_on_c, 12, 57, 0
15, 134040, Note_on_c, 12, 43, 110
15, 134040, Note_on_c, 12, 55, 110
15, 134120, Note_on_c, 12, 43, 0
15, 134120, Note_on_c, 12, 55, 0
15, 134160, Note_on_c, 12, 48, 110
15, 134160, Note_on_c, 12, 60, 110
15, 134260, Note_on_c, 12, 48, 0
15, 134260, Note_on_c, 12, 60, 0
15, 134400, Note_on_c, 12, 48, 110
15, 134400, Note_on_c, 12, 60, 110
15, 134500, Note_on_c, 12, 48, 0
15, 134500, Note_on_c, 12, 60, 0
15, 134640, Note_on_c, 12, 45, 110
15, 134640, Note_on_c, 12, 57, 110
15, 134740, Note_on_c, 12, 45, 0
15, 134740, Note_on_c, 12, 57, 0
15, 134760, Note_on_c, 12, 48, 110
15, 134760, Note_on_c, 12, 60, 110
15, 134860, Note_on_c, 12, 48, 0
15, 134860, Note_on_c, 12, 60, 0
15, 134880, Note_on_c, 12, 45, 110
15, 134880, Note_on_c, 12, 57, 110
15, 134980, Note_on_c, 12, 45, 0
15, 134980, Note_on_c, 12, 57, 0
15, 135000, Note_on_c, 12, 43, 110
15, 135000, Note_on_c, 12, 55, 110
15, 135080, Note_on_c, 12, 43, 0
15, 135080, Note_on_c, 12, 55, 0
15, 135120, Note_on_c, 12, 62, 110
15, 135120, Note_on_c, 12, 50, 110
15, 135220, Note_on_c, 12, 62, 0
15, 135220, Note_on_c, 12, 50, 0
15, 135360, Note_on_c, 12, 62, 110
15, 135360, Note_on_c, 12, 50, 110
15, 135460, Note_on_c, 12, 62, 0
15, 135460, Note_on_c, 12, 50, 0
15, 135600, Note_on_c, 12, 55, 110
15, 135600, Note_on_c, 12, 43, 110
15, 135700, Note_on_c, 12, 55, 0
15, 135700, Note_on_c, 12, 43, 0
15, 135720, Note_on_c, 12, 57, 110
15, 135720, Note_on_c, 12, 45, 110
15, 135820, Note_on_c, 12, 57, 0
15, 135820, Note_on_c, 12, 45, 0
15, 135840, Note_on_c, 12, 60, 110
15, 135840, Note_on_c, 12, 48, 110
15, 135940, Note_on_c, 12, 60, 0
15, 135940, Note_on_c, 12, 48, 0
15, 135960, Note_on_c, 12, 57, 110
15, 135960, Note_on_c, 12, 45, 110
15, 136040, Note_on_c, 12, 57, 0
15, 136040, Note_on_c, 12, 45, 0
15, 136040, End_track
16, 0, Start_track
16, 0, Program_c, 13, 123
16, 0, Control_c, 13, 7, 25
16, 45840, Note_on_c, 13, 76, 110
16, 45840, Note_on_c, 13, 77, 110
16, 45840, Note_on_c, 13, 73, 110
16, 45840, Note_on_c, 13, 74, 110
16, 45880, Note_on_c, 13, 76, 0
16, 45880, Note_on_c, 13, 77, 0
16, 45880, Note_on_c, 13, 73, 0
16, 45880, Note_on_c, 13, 74, 0
16, 45900, Note_on_c, 13, 76, 110
16, 45900, Note_on_c, 13, 75, 110
16, 45900, Note_on_c, 13, 73, 110
16, 45900, Note_on_c, 13, 72, 110
16, 45940, Note_on_c, 13, 76, 0
16, 45940, Note_on_c, 13, 75, 0
16, 45940, Note_on_c, 13, 73, 0
16, 45940, Note_on_c, 13, 72, 0
16, 45960, Note_on_c, 13, 75, 110
16, 45960, Note_on_c, 13, 74, 110
16, 45960, Note_on_c, 13, 71, 110
16, 45960, Note_on_c, 13, 72, 110
16, 46000, Note_on_c, 13, 75, 0
16, 46000, Note_on_c, 13, 74, 0
16, 46000, Note_on_c, 13, 71, 0
16, 46000, Note_on_c, 13, 72, 0
16, 46020, Note_on_c, 13, 73, 110
16, 46020, Note_on_c, 13, 74, 110
16, 46020, Note_on_c, 13, 71, 110
16, 46020, Note_on_c, 13, 70, 110
16, 46060, Note_on_c, 13, 73, 0
16, 46060, Note_on_c, 13, 74, 0
16, 46060, Note_on_c, 13, 71, 0
16, 46060, Note_on_c, 13, 70, 0
16, 46080, Note_on_c, 13, 73, 110
16, 46080, Note_on_c, 13, 72, 110
16, 46080, Note_on_c, 13, 70, 110
16, 46080, Note_on_c, 13, 69, 110
16, 46120, Note_on_c, 13, 73, 0
16, 46120, Note_on_c, 13, 72, 0
16, 46120, Note_on_c, 13, 70, 0
16, 46120, Note_on_c, 13, 69, 0
16, 46140, Note_on_c, 13, 72, 110
16, 46140, Note_on_c, 13, 71, 110
16, 46140, Note_on_c, 13, 69, 110
16, 46140, Note_on_c, 13, 68, 110
16, 46180, Note_on_c, 13, 72, 0
16, 46180, Note_on_c, 13, 71, 0
16, 46180, Note_on_c, 13, 69, 0
16, 46180, Note_on_c, 13, 68, 0
16, 46200, Note_on_c, 13, 71, 110
16, 46200, Note_on_c, 13, 70, 110
16, 46200, Note_on_c, 13, 68, 110
16, 46200, Note_on_c, 13, 67, 110
16, 46240, Note_on_c, 13, 71, 0
16, 46240, Note_on_c, 13, 70, 0
16, 46240, Note_on_c, 13, 68, 0
16, 46240, Note_on_c, 13, 67, 0
16, 46260, Note_on_c, 13, 70, 110
16, 46260, Note_on_c, 13, 69, 110
16, 46260, Note_on_c, 13, 67, 110
16, 46260, Note_on_c, 13, 66, 110
16, 46300, Note_on_c, 13, 70, 0
16, 46300, Note_on_c, 13, 69, 0
16, 46300, Note_on_c, 13, 67, 0
16, 46300, Note_on_c, 13, 66, 0
16, 46320, Note_on_c, 13, 69, 110
16, 46320, Note_on_c, 13, 68, 110
16, 46320, Note_on_c, 13, 66, 110
16, 46320, Note_on_c, 13, 65, 110
16, 46360, Note_on_c, 13, 69, 0
16, 46360, Note_on_c, 13, 68, 0
16, 46360, Note_on_c, 13, 66, 0
16, 46360, Note_on_c, 13, 65, 0
16, 46380, Note_on_c, 13, 68, 110
16, 46380, Note_on_c, 13, 67, 110
16, 46380, Note_on_c, 13, 65, 110
16, 46380, Note_on_c, 13, 64, 110
16, 46420, Note_on_c, 13, 68, 0
16, 46420, Note_on_c, 13, 67, 0
16, 46420, Note_on_c, 13, 65, 0
16, 46420, Note_on_c, 13, 64, 0
16, 46440, Note_on_c, 13, 67, 110
16, 46440, Note_on_c, 13, 66, 110
16, 46440, Note_on_c, 13, 64, 110
16, 46440, Note_on_c, 13, 63, 110
16, 46480, Note_on_c, 13, 67, 0
16, 46480, Note_on_c, 13, 66, 0
16, 46480, Note_on_c, 13, 64, 0
16, 46480, Note_on_c, 13, 63, 0
16, 46500, Note_on_c, 13, 66, 110
16, 46500, Note_on_c, 13, 65, 110
16, 46500, Note_on_c, 13, 63, 110
16, 46500, Note_on_c, 13, 62, 110
16, 46540, Note_on_c, 13, 66, 0
16, 46540, Note_on_c, 13, 65, 0
16, 46540, Note_on_c, 13, 63, 0
16, 46540, Note_on_c, 13, 62, 0
16, 46560, Note_on_c, 13, 64, 110
16, 46560, Note_on_c, 13, 65, 110
16, 46560, Note_on_c, 13, 61, 110
16, 46560, Note_on_c, 13, 62, 110
16, 46600, Note_on_c, 13, 64, 0
16, 46600, Note_on_c, 13, 65, 0
16, 46600, Note_on_c, 13, 61, 0
16, 46600, Note_on_c, 13, 62, 0
16, 46620, Note_on_c, 13, 64, 110
16, 46620, Note_on_c, 13, 63, 110
16, 46620, Note_on_c, 13, 61, 110
16, 46620, Note_on_c, 13, 60, 110
16, 46660, Note_on_c, 13, 64, 0
16, 46660, Note_on_c, 13, 63, 0
16, 46660, Note_on_c, 13, 61, 0
16, 46660, Note_on_c, 13, 60, 0
16, 46680, Note_on_c, 13, 63, 110
16, 46680, Note_on_c, 13, 62, 110
16, 46680, Note_on_c, 13, 60, 110
16, 46680, Note_on_c, 13, 59, 110
16, 46720, Note_on_c, 13, 63, 0
16, 46720, Note_on_c, 13, 62, 0
16, 46720, Note_on_c, 13, 60, 0
16, 46720, Note_on_c, 13, 59, 0
16, 46740, Note_on_c, 13, 62, 110
16, 46740, Note_on_c, 13, 61, 110
16, 46740, Note_on_c, 13, 59, 110
16, 46740, Note_on_c, 13, 58, 110
16, 46780, Note_on_c, 13, 62, 0
16, 46780, Note_on_c, 13, 61, 0
16, 46780, Note_on_c, 13, 59, 0
16, 46780, Note_on_c, 13, 58, 0
16, 46800, Note_on_c, 13, 61, 110
16, 46800, Note_on_c, 13, 60, 110
16, 46800, Note_on_c, 13, 58, 110
16, 46800, Note_on_c, 13, 57, 110
16, 46840, Note_on_c, 13, 61, 0
16, 46840, Note_on_c, 13, 60, 0
16, 46840, Note_on_c, 13, 58, 0
16, 46840, Note_on_c, 13, 57, 0
16, 46860, Note_on_c, 13, 60, 110
16, 46860, Note_on_c, 13, 59, 110
16, 46860, Note_on_c, 13, 57, 110
16, 46860, Note_on_c, 13, 56, 110
16, 46900, Note_on_c, 13, 60, 0
16, 46900, Note_on_c, 13, 59, 0
16, 46900, Note_on_c, 13, 57, 0
16, 46900, Note_on_c, 13, 56, 0
16, 46920, Note_on_c, 13, 59, 110
16, 46920, Note_on_c, 13, 55, 110
16, 46920, Note_on_c, 13, 56, 110
16, 46920, Note_on_c, 13, 58, 110
16, 46960, Note_on_c, 13, 59, 0
16, 46960, Note_on_c, 13, 55, 0
16, 46960, Note_on_c, 13, 56, 0
16, 46960, Note_on_c, 13, 58, 0
16, 46980, Note_on_c, 13, 54, 110
16, 46980, Note_on_c, 13, 55, 110
16, 46980, Note_on_c, 13, 58, 110
16, 46980, Note_on_c, 13, 57, 110
16, 47020, Note_on_c, 13, 54, 0
16, 47020, Note_on_c, 13, 55, 0
16, 47020, Note_on_c, 13, 58, 0
16, 47020, Note_on_c, 13, 57, 0
16, 47040, Note_on_c, 13, 54, 110
16, 47040, Note_on_c, 13, 57, 110
16, 47040, Note_on_c, 13, 56, 110
16, 47040, Note_on_c, 13, 53, 110
16, 47080, Note_on_c, 13, 54, 0
16, 47080, Note_on_c, 13, 57, 0
16, 47080, Note_on_c, 13, 56, 0
16, 47080, Note_on_c, 13, 53, 0
16, 47100, Note_on_c, 13, 55, 110
16, 47100, Note_on_c, 13, 56, 110
16, 47100, Note_on_c, 13, 52, 110
16, 47100, Note_on_c, 13, 53, 110
16, 47140, Note_on_c, 13, 55, 0
16, 47140, Note_on_c, 13, 56, 0
16, 47140, Note_on_c, 13, 52, 0
16, 47140, Note_on_c, 13, 53, 0
16, 47160, Note_on_c, 13, 54, 110
16, 47160, Note_on_c, 13, 55, 110
16, 47160, Note_on_c, 13, 51, 110
16, 47160, Note_on_c, 13, 52, 110
16, 47200, Note_on_c, 13, 54, 0
16, 47200, Note_on_c, 13, 55, 0
16, 47200, Note_on_c, 13, 51, 0
16, 47200, Note_on_c, 13, 52, 0
16, 47220, Note_on_c, 13, 54, 110
16, 47220, Note_on_c, 13, 53, 110
16, 47220, Note_on_c, 13, 51, 110
16, 47220, Note_on_c, 13, 50, 110
16, 47260, Note_on_c, 13, 54, 0
16, 47260, Note_on_c, 13, 53, 0
16, 47260, Note_on_c, 13, 51, 0
16, 47260, Note_on_c, 13, 50, 0
16, 47280, Note_on_c, 13, 53, 110
16, 47280, Note_on_c, 13, 52, 110
16, 47280, Note_on_c, 13, 50, 110
16, 47280, Note_on_c, 13, 49, 110
16, 47320, Note_on_c, 13, 53, 0
16, 47320, Note_on_c, 13, 52, 0
16, 47320, Note_on_c, 13, 50, 0
16, 47320, Note_on_c, 13, 49, 0
16, 47340, Note_on_c, 13, 52, 110
16, 47340, Note_on_c, 13, 51, 110
16, 47340, Note_on_c, 13, 49, 110
16, 47340, Note_on_c, 13, 48, 110
16, 47380, Note_on_c, 13, 52, 0
16, 47380, Note_on_c, 13, 51, 0
16, 47380, Note_on_c, 13, 49, 0
16, 47380, Note_on_c, 13, 48, 0
16, 47400, Note_on_c, 13, 51, 110
16, 47400, Note_on_c, 13, 50, 110
16, 47400, Note_on_c, 13, 48, 110
16, 47440, Note_on_c, 13, 51, 0
16, 47440, Note_on_c, 13, 50, 0
16, 47440, Note_on_c, 13, 48, 0
16, 47460, Note_on_c, 13, 50, 110
16, 47460, Note_on_c, 13, 49, 110
16, 47500, Note_on_c, 13, 50, 0
16, 47500, Note_on_c, 13, 49, 0
16, 47520, Note_on_c, 13, 49, 110
16, 47520, Note_on_c, 13, 48, 110
16, 47560, Note_on_c, 13, 49, 0
16, 47560, Note_on_c, 13, 48, 0
16, 47580, Note_on_c, 13, 48, 110
16, 47620, Note_on_c, 13, 48, 0
16, 91920, Note_on_c, 13, 73, 110
16, 91920, Note_on_c, 13, 77, 110
16, 91920, Note_on_c, 13, 76, 110
16, 91920, Note_on_c, 13, 74, 110
16, 91960, Note_on_c, 13, 73, 0
16, 91960, Note_on_c, 13, 77, 0
16, 91960, Note_on_c, 13, 76, 0
16, 91960, Note_on_c, 13, 74, 0
16, 91980, Note_on_c, 13, 72, 110
16, 91980, Note_on_c, 13, 73, 110
16, 91980, Note_on_c, 13, 75, 110
16, 91980, Note_on_c, 13, 76, 110
16, 92020, Note_on_c, 13, 72, 0
16, 92020, Note_on_c, 13, 73, 0
16, 92020, Note_on_c, 13, 75, 0
16, 92020, Note_on_c, 13, 76, 0
16, 92040, Note_on_c, 13, 72, 110
16, 92040, Note_on_c, 13, 71, 110
16, 92040, Note_on_c, 13, 74, 110
16, 92040, Note_on_c, 13, 75, 110
16, 92080, Note_on_c, 13, 72, 0
16, 92080, Note_on_c, 13, 71, 0
16, 92080, Note_on_c, 13, 74, 0
16, 92080, Note_on_c, 13, 75, 0
16, 92100, Note_on_c, 13, 70, 110
16, 92100, Note_on_c, 13, 71, 110
16, 92100, Note_on_c, 13, 73, 110
16, 92100, Note_on_c, 13, 74, 110
16, 92140, Note_on_c, 13, 70, 0
16, 92140, Note_on_c, 13, 71, 0
16, 92140, Note_on_c, 13, 73, 0
16, 92140, Note_on_c, 13, 74, 0
16, 92160, Note_on_c, 13, 70, 110
16, 92160, Note_on_c, 13, 69, 110
16, 92160, Note_on_c, 13, 72, 110
16, 92160, Note_on_c, 13, 73, 110
16, 92200, Note_on_c, 13, 70, 0
16, 92200, Note_on_c, 13, 69, 0
16, 92200, Note_on_c, 13, 72, 0
16, 92200, Note_on_c, 13, 73, 0
16, 92220, Note_on_c, 13, 68, 110
16, 92220, Note_on_c, 13, 69, 110
16, 92220, Note_on_c, 13, 71, 110
16, 92220, Note_on_c, 13, 72, 110
16, 92260, Note_on_c, 13, 68, 0
16, 92260, Note_on_c, 13, 69, 0
16, 92260, Note_on_c, 13, 71, 0
16, 92260, Note_on_c, 13, 72, 0
16, 92280, Note_on_c, 13, 67, 110
16, 92280, Note_on_c, 13, 68, 110
16, 92280, Note_on_c, 13, 70, 110
16, 92280, Note_on_c, 13, 71, 110
16, 92320, Note_on_c, 13, 67, 0
16, 92320, Note_on_c, 13, 68, 0
16, 92320, Note_on_c, 13, 70, 0
16, 92320, Note_on_c, 13, 71, 0
16, 92340, Note_on_c, 13, 66, 110
16, 92340, Note_on_c, 13, 67, 110
16, 92340, Note_on_c, 13, 69, 110
16, 92340, Note_on_c, 13, 70, 110
16, 92380, Note_on_c, 13, 66, 0
16, 92380, Note_on_c, 13, 67, 0
16, 92380, Note_on_c, 13, 69, 0
16, 92380, Note_on_c, 13, 70, 0
16, 92400, Note_on_c, 13, 65, 110
16, 92400, Note_on_c, 13, 66, 110
16, 92400, Note_on_c, 13, 69, 110
16, 92400, Note_on_c, 13, 68, 110
16, 92440, Note_on_c, 13, 65, 0
16, 92440, Note_on_c, 13, 66, 0
16, 92440, Note_on_c, 13, 69, 0
16, 92440, Note_on_c, 13, 68, 0
16, 92460, Note_on_c, 13, 64, 110
16, 92460, Note_on_c, 13, 65, 110
16, 92460, Note_on_c, 13, 67, 110
16, 92460, Note_on_c, 13, 68, 110
16, 92500, Note_on_c, 13, 64, 0
16, 92500, Note_on_c, 13, 65, 0
16, 92500, Note_on_c, 13, 67, 0
16, 92500, Note_on_c, 13, 68, 0
16, 92520, Note_on_c, 13, 63, 110
16, 92520, Note_on_c, 13, 64, 110
16, 92520, Note_on_c, 13, 66, 110
16, 92520, Note_on_c, 13, 67, 110
16, 92560, Note_on_c, 13, 63, 0
16, 92560, Note_on_c, 13, 64, 0
16, 92560, Note_on_c, 13, 66, 0
16, 92560, Note_on_c, 13, 67, 0
16, 92580, Note_on_c, 13, 62, 110
16, 92580, Note_on_c, 13, 63, 110
16, 92580, Note_on_c, 13, 65, 110
16, 92580, Note_on_c, 13, 66, 110
16, 92620, Note_on_c, 13, 62, 0
16, 92620, Note_on_c, 13, 63, 0
16, 92620, Note_on_c, 13, 65, 0
16, 92620, Note_on_c, 13, 66, 0
16, 92640, Note_on_c, 13, 62, 110
16, 92640, Note_on_c, 13, 61, 110
16, 92640, Note_on_c, 13, 65, 110
16, 92640, Note_on_c, 13, 64, 110
16, 92680, Note_on_c, 13, 62, 0
16, 92680, Note_on_c, 13, 61, 0
16, 92680, Note_on_c, 13, 65, 0
16, 92680, Note_on_c, 13, 64, 0
16, 92700, Note_on_c, 13, 60, 110
16, 92700, Note_on_c, 13, 61, 110
16, 92700, Note_on_c, 13, 63, 110
16, 92700, Note_on_c, 13, 64, 110
16, 92740, Note_on_c, 13, 60, 0
16, 92740, Note_on_c, 13, 61, 0
16, 92740, Note_on_c, 13, 63, 0
16, 92740, Note_on_c, 13, 64, 0
16, 92760, Note_on_c, 13, 59, 110
16, 92760, Note_on_c, 13, 60, 110
16, 92760, Note_on_c, 13, 62, 110
16, 92760, Note_on_c, 13, 63, 110
16, 92800, Note_on_c, 13, 59, 0
16, 92800, Note_on_c, 13, 60, 0
16, 92800, Note_on_c, 13, 62, 0
16, 92800, Note_on_c, 13, 63, 0
16, 92820, Note_on_c, 13, 58, 110
16, 92820, Note_on_c, 13, 59, 110
16, 92820, Note_on_c, 13, 61, 110
16, 92820, Note_on_c, 13, 62, 110
16, 92860, Note_on_c, 13, 58, 0
16, 92860, Note_on_c, 13, 59, 0
16, 92860, Note_on_c, 13, 61, 0
16, 92860, Note_on_c, 13, 62, 0
16, 92880, Note_on_c, 13, 58, 110
16, 92880, Note_on_c, 13, 57, 110
16, 92880, Note_on_c, 13, 61, 110
16, 92880, Note_on_c, 13, 60, 110
16, 92920, Note_on_c, 13, 58, 0
16, 92920, Note_on_c, 13, 57, 0
16, 92920, Note_on_c, 13, 61, 0
16, 92920, Note_on_c, 13, 60, 0
16, 92940, Note_on_c, 13, 56, 110
16, 92940, Note_on_c, 13, 57, 110
16, 92940, Note_on_c, 13, 59, 110
16, 92940, Note_on_c, 13, 60, 110
16, 92980, Note_on_c, 13, 56, 0
16, 92980, Note_on_c, 13, 57, 0
16, 92980, Note_on_c, 13, 59, 0
16, 92980, Note_on_c, 13, 60, 0
16, 93000, Note_on_c, 13, 58, 110
16, 93000, Note_on_c, 13, 56, 110
16, 93000, Note_on_c, 13, 55, 110
16, 93000, Note_on_c, 13, 59, 110
16, 93040, Note_on_c, 13, 58, 0
16, 93040, Note_on_c, 13, 56, 0
16, 93040, Note_on_c, 13, 55, 0
16, 93040, Note_on_c, 13, 59, 0
16, 93060, Note_on_c, 13, 57, 110
16, 93060, Note_on_c, 13, 58, 110
16, 93060, Note_on_c, 13, 55, 110
16, 93060, Note_on_c, 13, 54, 110
16, 93100, Note_on_c, 13, 57, 0
16, 93100, Note_on_c, 13, 58, 0
16, 93100, Note_on_c, 13, 55, 0
16, 93100, Note_on_c, 13, 54, 0
16, 93120, Note_on_c, 13, 53, 110
16, 93120, Note_on_c, 13, 56, 110
16, 93120, Note_on_c, 13, 57, 110
16, 93120, Note_on_c, 13, 54, 110
16, 93160, Note_on_c, 13, 53, 0
16, 93160, Note_on_c, 13, 56, 0
16, 93160, Note_on_c, 13, 57, 0
16, 93160, Note_on_c, 13, 54, 0
16, 93180, Note_on_c, 13, 53, 110
16, 93180, Note_on_c, 13, 52, 110
16, 93180, Note_on_c, 13, 56, 110
16, 93180, Note_on_c, 13, 55, 110
16, 93220, Note_on_c, 13, 53, 0
16, 93220, Note_on_c, 13, 52, 0
16, 93220, Note_on_c, 13, 56, 0
16, 93220, Note_on_c, 13, 55, 0
16, 93240, Note_on_c, 13, 52, 110
16, 93240, Note_on_c, 13, 51, 110
16, 93240, Note_on_c, 13, 55, 110
16, 93240, Note_on_c, 13, 54, 110
16, 93280, Note_on_c, 13, 52, 0
16, 93280, Note_on_c, 13, 51, 0
16, 93280, Note_on_c, 13, 55, 0
16, 93280, Note_on_c, 13, 54, 0
16, 93300, Note_on_c, 13, 50, 110
16, 93300, Note_on_c, 13, 51, 110
16, 93300, Note_on_c, 13, 53, 110
16, 93300, Note_on_c, 13, 54, 110
16, 93340, Note_on_c, 13, 50, 0
16, 93340, Note_on_c, 13, 51, 0
16, 93340, Note_on_c, 13, 53, 0
16, 93340, Note_on_c, 13, 54, 0
16, 93360, Note_on_c, 13, 49, 110
16, 93360, Note_on_c, 13, 50, 110
16, 93360, Note_on_c, 13, 52, 110
16, 93360, Note_on_c, 13, 53, 110
16, 93400, Note_on_c, 13, 49, 0
16, 93400, Note_on_c, 13, 50, 0
16, 93400, Note_on_c, 13, 52, 0
16, 93400, Note_on_c, 13, 53, 0
16, 93420, Note_on_c, 13, 48, 110
16, 93420, Note_on_c, 13, 49, 110
16, 93420, Note_on_c, 13, 51, 110
16, 93420, Note_on_c, 13, 52, 110
16, 93460, Note_on_c, 13, 48, 0
16, 93460, Note_on_c, 13, 49, 0
16, 93460, Note_on_c, 13, 51, 0
16, 93460, Note_on_c, 13, 52, 0
16, 93480, Note_on_c, 13, 48, 110
16, 93480, Note_on_c, 13, 51, 110
16, 93480, Note_on_c, 13, 50, 110
16, 93520, Note_on_c, 13, 48, 0
16, 93520, Note_on_c, 13, 51, 0
16, 93520, Note_on_c, 13, 50, 0
16, 93540, Note_on_c, 13, 49, 110
16, 93540, Note_on_c, 13, 50, 110
16, 93580, Note_on_c, 13, 49, 0
16, 93580, Note_on_c, 13, 50, 0
16, 93600, Note_on_c, 13, 49, 110
16, 93600, Note_on_c, 13, 48, 110
16, 93640, Note_on_c, 13, 49, 0
16, 93640, Note_on_c, 13, 48, 0
16, 93660, Note_on_c, 13, 48, 110
16, 93700, Note_on_c, 13, 48, 0
16, 93700, End_track
17, 0, Start_track
17, 0, Program_c, 14, 57
17, 0, Control_c, 14, 7, 101
17, 1440, Note_on_c, 14, 72, 110
17, 1660, Note_on_c, 14, 72, 0
17, 1680, Note_on_c, 14, 71, 110
17, 1900, Note_on_c, 14, 71, 0
17, 1920, Note_on_c, 14, 69, 110
17, 2140, Note_on_c, 14, 69, 0
17, 2760, Note_on_c, 14, 69, 110
17, 2860, Note_on_c, 14, 69, 0
17, 2880, Note_on_c, 14, 67, 110
17, 3100, Note_on_c, 14, 67, 0
17, 3360, Note_on_c, 14, 60, 110
17, 3580, Note_on_c, 14, 60, 0
17, 3600, Note_on_c, 14, 62, 110
17, 3820, Note_on_c, 14, 62, 0
17, 4080, Note_on_c, 14, 62, 110
17, 4300, Note_on_c, 14, 62, 0
17, 5280, Note_on_c, 14, 72, 110
17, 5500, Note_on_c, 14, 72, 0
17, 5520, Note_on_c, 14, 71, 110
17, 5740, Note_on_c, 14, 71, 0
17, 5760, Note_on_c, 14, 69, 110
17, 6460, Note_on_c, 14, 69, 0
17, 6600, Note_on_c, 14, 69, 110
17, 6700, Note_on_c, 14, 69, 0
17, 6720, Note_on_c, 14, 67, 110
17, 6940, Note_on_c, 14, 67, 0
17, 7200, Note_on_c, 14, 60, 110
17, 7420, Note_on_c, 14, 60, 0
17, 7440, Note_on_c, 14, 62, 110
17, 7660, Note_on_c, 14, 62, 0
17, 7920, Note_on_c, 14, 62, 110
17, 8140, Note_on_c, 14, 62, 0
17, 9360, Note_on_c, 14, 60, 110
17, 9580, Note_on_c, 14, 60, 0
17, 9600, Note_on_c, 14, 64, 110
17, 9820, Note_on_c, 14, 64, 0
17, 10080, Note_on_c, 14, 67, 110
17, 10300, Note_on_c, 14, 67, 0
17, 10320, Note_on_c, 14, 65, 110
17, 10540, Note_on_c, 14, 65, 0
17, 10800, Note_on_c, 14, 60, 110
17, 11140, Note_on_c, 14, 60, 0
17, 11520, Note_on_c, 14, 67, 110
17, 11740, Note_on_c, 14, 67, 0
17, 11760, Note_on_c, 14, 65, 110
17, 11980, Note_on_c, 14, 65, 0
17, 12000, Note_on_c, 14, 64, 110
17, 12220, Note_on_c, 14, 64, 0
17, 12240, Note_on_c, 14, 62, 110
17, 12700, Note_on_c, 14, 62, 0
17, 12720, Note_on_c, 14, 60, 110
17, 12940, Note_on_c, 14, 60, 0
17, 12960, Note_on_c, 14, 64, 110
17, 13180, Note_on_c, 14, 64, 0
17, 13200, Note_on_c, 14, 60, 110
17, 13420, Note_on_c, 14, 60, 0
17, 13920, Note_on_c, 14, 60, 110
17, 14020, Note_on_c, 14, 60, 0
17, 14040, Note_on_c, 14, 62, 110
17, 14140, Note_on_c, 14, 62, 0
17, 14160, Note_on_c, 14, 65, 110
17, 14380, Note_on_c, 14, 65, 0
17, 14400, Note_on_c, 14, 64, 110
17, 14620, Note_on_c, 14, 64, 0
17, 14640, Note_on_c, 14, 60, 110
17, 14860, Note_on_c, 14, 60, 0
17, 14880, Note_on_c, 14, 62, 110
17, 15100, Note_on_c, 14, 62, 0
17, 15720, Note_on_c, 14, 60, 110
17, 15820, Note_on_c, 14, 60, 0
17, 15840, Note_on_c, 14, 60, 110
17, 15940, Note_on_c, 14, 60, 0
17, 15960, Note_on_c, 14, 62, 110
17, 16180, Note_on_c, 14, 62, 0
17, 16200, Note_on_c, 14, 62, 110
17, 16420, Note_on_c, 14, 62, 0
17, 16440, Note_on_c, 14, 64, 110
17, 16660, Note_on_c, 14, 64, 0
17, 16680, Note_on_c, 14, 60, 110
17, 16900, Note_on_c, 14, 60, 0
17, 19560, Note_on_c, 14, 60, 110
17, 19660, Note_on_c, 14, 60, 0
17, 19680, Note_on_c, 14, 60, 110
17, 19780, Note_on_c, 14, 60, 0
17, 19800, Note_on_c, 14, 62, 110
17, 20020, Note_on_c, 14, 62, 0
17, 20040, Note_on_c, 14, 62, 110
17, 20260, Note_on_c, 14, 62, 0
17, 20280, Note_on_c, 14, 64, 110
17, 20500, Note_on_c, 14, 64, 0
17, 20520, Note_on_c, 14, 60, 110
17, 20740, Note_on_c, 14, 60, 0
17, 23400, Note_on_c, 14, 60, 110
17, 23500, Note_on_c, 14, 60, 0
17, 23520, Note_on_c, 14, 60, 110
17, 23620, Note_on_c, 14, 60, 0
17, 23640, Note_on_c, 14, 62, 110
17, 23860, Note_on_c, 14, 62, 0
17, 23880, Note_on_c, 14, 62, 110
17, 24100, Note_on_c, 14, 62, 0
17, 24120, Note_on_c, 14, 64, 110
17, 24340, Note_on_c, 14, 64, 0
17, 24360, Note_on_c, 14, 67, 110
17, 24940, Note_on_c, 14, 67, 0
17, 29760, Note_on_c, 14, 74, 110
17, 30460, Note_on_c, 14, 74, 0
17, 30720, Note_on_c, 14, 72, 110
17, 31180, Note_on_c, 14, 72, 0
17, 31560, Note_on_c, 14, 62, 110
17, 31660, Note_on_c, 14, 62, 0
17, 31680, Note_on_c, 14, 64, 110
17, 31900, Note_on_c, 14, 64, 0
17, 31920, Note_on_c, 14, 67, 110
17, 32020, Note_on_c, 14, 67, 0
17, 32040, Note_on_c, 14, 64, 110
17, 32260, Note_on_c, 14, 64, 0
17, 32280, Note_on_c, 14, 62, 110
17, 32500, Note_on_c, 14, 62, 0
17, 33120, Note_on_c, 14, 65, 110
17, 33220, Note_on_c, 14, 65, 0
17, 33240, Note_on_c, 14, 65, 110
17, 33340, Note_on_c, 14, 65, 0
17, 33360, Note_on_c, 14, 65, 110
17, 33580, Note_on_c, 14, 65, 0
17, 33600, Note_on_c, 14, 64, 110
17, 33700, Note_on_c, 14, 64, 0
17, 33720, Note_on_c, 14, 62, 110
17, 33820, Note_on_c, 14, 62, 0
17, 33840, Note_on_c, 14, 60, 110
17, 33940, Note_on_c, 14, 60, 0
17, 34320, Note_on_c, 14, 64, 110
17, 34420, Note_on_c, 14, 64, 0
17, 34440, Note_on_c, 14, 64, 110
17, 34540, Note_on_c, 14, 64, 0
17, 34560, Note_on_c, 14, 62, 110
17, 34660, Note_on_c, 14, 62, 0
17, 34680, Note_on_c, 14, 62, 110
17, 34780, Note_on_c, 14, 62, 0
17, 34800, Note_on_c, 14, 60, 110
17, 34900, Note_on_c, 14, 60, 0
17, 34920, Note_on_c, 14, 62, 110
17, 35020, Note_on_c, 14, 62, 0
17, 35040, Note_on_c, 14, 62, 110
17, 35260, Note_on_c, 14, 62, 0
17, 35280, Note_on_c, 14, 62, 110
17, 35500, Note_on_c, 14, 62, 0
17, 36960, Note_on_c, 14, 65, 110
17, 37060, Note_on_c, 14, 65, 0
17, 37080, Note_on_c, 14, 65, 110
17, 37180, Note_on_c, 14, 65, 0
17, 37200, Note_on_c, 14, 65, 110
17, 37420, Note_on_c, 14, 65, 0
17, 37440, Note_on_c, 14, 64, 110
17, 37540, Note_on_c, 14, 64, 0
17, 37560, Note_on_c, 14, 62, 110
17, 37660, Note_on_c, 14, 62, 0
17, 37680, Note_on_c, 14, 60, 110
17, 37780, Note_on_c, 14, 60, 0
17, 38040, Note_on_c, 14, 62, 110
17, 38140, Note_on_c, 14, 62, 0
17, 38160, Note_on_c, 14, 64, 110
17, 38260, Note_on_c, 14, 64, 0
17, 38280, Note_on_c, 14, 64, 110
17, 38380, Note_on_c, 14, 64, 0
17, 38400, Note_on_c, 14, 62, 110
17, 38500, Note_on_c, 14, 62, 0
17, 38520, Note_on_c, 14, 62, 110
17, 38620, Note_on_c, 14, 62, 0
17, 38640, Note_on_c, 14, 60, 110
17, 38740, Note_on_c, 14, 60, 0
17, 38760, Note_on_c, 14, 62, 110
17, 38860, Note_on_c, 14, 62, 0
17, 38880, Note_on_c, 14, 62, 110
17, 39100, Note_on_c, 14, 62, 0
17, 39120, Note_on_c, 14, 62, 110
17, 39340, Note_on_c, 14, 62, 0
17, 40800, Note_on_c, 14, 65, 110
17, 40900, Note_on_c, 14, 65, 0
17, 40920, Note_on_c, 14, 65, 110
17, 41020, Note_on_c, 14, 65, 0
17, 41040, Note_on_c, 14, 65, 110
17, 41260, Note_on_c, 14, 65, 0
17, 41280, Note_on_c, 14, 64, 110
17, 41380, Note_on_c, 14, 64, 0
17, 41400, Note_on_c, 14, 62, 110
17, 41500, Note_on_c, 14, 62, 0
17, 41520, Note_on_c, 14, 60, 110
17, 41620, Note_on_c, 14, 60, 0
17, 42000, Note_on_c, 14, 62, 110
17, 42100, Note_on_c, 14, 62, 0
17, 42120, Note_on_c, 14, 64, 110
17, 42220, Note_on_c, 14, 64, 0
17, 42240, Note_on_c, 14, 62, 110
17, 42340, Note_on_c, 14, 62, 0
17, 42360, Note_on_c, 14, 60, 110
17, 42460, Note_on_c, 14, 60, 0
17, 42480, Note_on_c, 14, 62, 110
17, 42580, Note_on_c, 14, 62, 0
17, 42600, Note_on_c, 14, 60, 110
17, 42700, Note_on_c, 14, 60, 0
17, 42720, Note_on_c, 14, 62, 110
17, 42940, Note_on_c, 14, 62, 0
17, 42960, Note_on_c, 14, 62, 110
17, 43180, Note_on_c, 14, 62, 0
17, 44640, Note_on_c, 14, 65, 110
17, 44740, Note_on_c, 14, 65, 0
17, 44760, Note_on_c, 14, 65, 110
17, 44860, Note_on_c, 14, 65, 0
17, 44880, Note_on_c, 14, 65, 110
17, 45100, Note_on_c, 14, 65, 0
17, 45120, Note_on_c, 14, 64, 110
17, 45220, Note_on_c, 14, 64, 0
17, 45240, Note_on_c, 14, 62, 110
17, 45340, Note_on_c, 14, 62, 0
17, 45360, Note_on_c, 14, 60, 110
17, 45460, Note_on_c, 14, 60, 0
17, 45720, Note_on_c, 14, 62, 110
17, 45820, Note_on_c, 14, 62, 0
17, 45840, Note_on_c, 14, 67, 110
17, 45940, Note_on_c, 14, 67, 0
17, 45960, Note_on_c, 14, 64, 110
17, 46060, Note_on_c, 14, 64, 0
17, 46080, Note_on_c, 14, 62, 110
17, 46180, Note_on_c, 14, 62, 0
17, 46200, Note_on_c, 14, 62, 110
17, 46300, Note_on_c, 14, 62, 0
17, 46320, Note_on_c, 14, 60, 110
17, 46420, Note_on_c, 14, 60, 0
17, 46440, Note_on_c, 14, 62, 110
17, 46540, Note_on_c, 14, 62, 0
17, 46560, Note_on_c, 14, 60, 110
17, 46660, Note_on_c, 14, 60, 0
17, 46680, Note_on_c, 14, 59, 110
17, 46780, Note_on_c, 14, 59, 0
17, 46800, Note_on_c, 14, 60, 110
17, 47020, Note_on_c, 14, 60, 0
17, 47280, Note_on_c, 14, 72, 110
17, 47500, Note_on_c, 14, 72, 0
17, 47520, Note_on_c, 14, 71, 110
17, 47740, Note_on_c, 14, 71, 0
17, 47760, Note_on_c, 14, 69, 110
17, 47980, Note_on_c, 14, 69, 0
17, 48840, Note_on_c, 14, 69, 110
17, 48940, Note_on_c, 14, 69, 0
17, 48960, Note_on_c, 14, 67, 110
17, 49180, Note_on_c, 14, 67, 0
17, 49440, Note_on_c, 14, 60, 110
17, 49660, Note_on_c, 14, 60, 0
17, 49680, Note_on_c, 14, 62, 110
17, 49900, Note_on_c, 14, 62, 0
17, 50160, Note_on_c, 14, 62, 110
17, 50380, Note_on_c, 14, 62, 0
17, 51360, Note_on_c, 14, 72, 110
17, 51580, Note_on_c, 14, 72, 0
17, 51600, Note_on_c, 14, 71, 110
17, 51820, Note_on_c, 14, 71, 0
17, 51840, Note_on_c, 14, 69, 110
17, 52540, Note_on_c, 14, 69, 0
17, 52680, Note_on_c, 14, 69, 110
17, 52780, Note_on_c, 14, 69, 0
17, 52800, Note_on_c, 14, 67, 110
17, 53020, Note_on_c, 14, 67, 0
17, 53280, Note_on_c, 14, 60, 110
17, 53500, Note_on_c, 14, 60, 0
17, 53520, Note_on_c, 14, 62, 110
17, 53740, Note_on_c, 14, 62, 0
17, 54000, Note_on_c, 14, 62, 110
17, 54220, Note_on_c, 14, 62, 0
17, 55440, Note_on_c, 14, 60, 110
17, 55660, Note_on_c, 14, 60, 0
17, 55680, Note_on_c, 14, 64, 110
17, 55900, Note_on_c, 14, 64, 0
17, 56160, Note_on_c, 14, 67, 110
17, 56380, Note_on_c, 14, 67, 0
17, 56400, Note_on_c, 14, 65, 110
17, 56620, Note_on_c, 14, 65, 0
17, 56880, Note_on_c, 14, 60, 110
17, 57220, Note_on_c, 14, 60, 0
17, 57600, Note_on_c, 14, 67, 110
17, 57820, Note_on_c, 14, 67, 0
17, 57840, Note_on_c, 14, 65, 110
17, 58060, Note_on_c, 14, 65, 0
17, 58080, Note_on_c, 14, 64, 110
17, 58300, Note_on_c, 14, 64, 0
17, 58320, Note_on_c, 14, 62, 110
17, 58780, Note_on_c, 14, 62, 0
17, 58800, Note_on_c, 14, 60, 110
17, 59020, Note_on_c, 14, 60, 0
17, 59040, Note_on_c, 14, 64, 110
17, 59260, Note_on_c, 14, 64, 0
17, 59280, Note_on_c, 14, 60, 110
17, 59500, Note_on_c, 14, 60, 0
17, 60000, Note_on_c, 14, 60, 110
17, 60100, Note_on_c, 14, 60, 0
17, 60120, Note_on_c, 14, 62, 110
17, 60220, Note_on_c, 14, 62, 0
17, 60240, Note_on_c, 14, 65, 110
17, 60460, Note_on_c, 14, 65, 0
17, 60480, Note_on_c, 14, 64, 110
17, 60700, Note_on_c, 14, 64, 0
17, 60720, Note_on_c, 14, 60, 110
17, 60940, Note_on_c, 14, 60, 0
17, 60960, Note_on_c, 14, 62, 110
17, 61180, Note_on_c, 14, 62, 0
17, 61800, Note_on_c, 14, 60, 110
17, 61900, Note_on_c, 14, 60, 0
17, 61920, Note_on_c, 14, 60, 110
17, 62020, Note_on_c, 14, 60, 0
17, 62040, Note_on_c, 14, 62, 110
17, 62260, Note_on_c, 14, 62, 0
17, 62280, Note_on_c, 14, 62, 110
17, 62500, Note_on_c, 14, 62, 0
17, 62520, Note_on_c, 14, 64, 110
17, 62740, Note_on_c, 14, 64, 0
17, 62760, Note_on_c, 14, 60, 110
17, 62980, Note_on_c, 14, 60, 0
17, 64200, Note_on_c, 14, 65, 110
17, 64300, Note_on_c, 14, 65, 0
17, 64320, Note_on_c, 14, 65, 110
17, 64420, Note_on_c, 14, 65, 0
17, 64440, Note_on_c, 14, 65, 110
17, 64540, Note_on_c, 14, 65, 0
17, 64560, Note_on_c, 14, 65, 110
17, 64660, Note_on_c, 14, 65, 0
17, 64680, Note_on_c, 14, 65, 110
17, 64780, Note_on_c, 14, 65, 0
17, 64800, Note_on_c, 14, 65, 110
17, 64900, Note_on_c, 14, 65, 0
17, 64920, Note_on_c, 14, 64, 110
17, 65260, Note_on_c, 14, 64, 0
17, 65640, Note_on_c, 14, 60, 110
17, 65740, Note_on_c, 14, 60, 0
17, 65760, Note_on_c, 14, 60, 110
17, 65860, Note_on_c, 14, 60, 0
17, 65880, Note_on_c, 14, 62, 110
17, 66100, Note_on_c, 14, 62, 0
17, 66120, Note_on_c, 14, 62, 110
17, 66340, Note_on_c, 14, 62, 0
17, 66360, Note_on_c, 14, 64, 110
17, 66580, Note_on_c, 14, 64, 0
17, 66600, Note_on_c, 14, 60, 110
17, 66820, Note_on_c, 14, 60, 0
17, 67680, Note_on_c, 14, 62, 110
17, 68140, Note_on_c, 14, 62, 0
17, 69480, Note_on_c, 14, 60, 110
17, 69580, Note_on_c, 14, 60, 0
17, 69600, Note_on_c, 14, 60, 110
17, 69700, Note_on_c, 14, 60, 0
17, 69720, Note_on_c, 14, 62, 110
17, 69940, Note_on_c, 14, 62, 0
17, 69960, Note_on_c, 14, 62, 110
17, 70180, Note_on_c, 14, 62, 0
17, 70200, Note_on_c, 14, 64, 110
17, 70420, Note_on_c, 14, 64, 0
17, 70440, Note_on_c, 14, 67, 110
17, 71020, Note_on_c, 14, 67, 0
17, 73320, Note_on_c, 14, 60, 110
17, 73420, Note_on_c, 14, 60, 0
17, 73440, Note_on_c, 14, 60, 110
17, 73540, Note_on_c, 14, 60, 0
17, 73560, Note_on_c, 14, 62, 110
17, 73780, Note_on_c, 14, 62, 0
17, 73800, Note_on_c, 14, 62, 110
17, 74020, Note_on_c, 14, 62, 0
17, 74040, Note_on_c, 14, 60, 110
17, 74260, Note_on_c, 14, 60, 0
17, 74280, Note_on_c, 14, 59, 110
17, 74500, Note_on_c, 14, 59, 0
17, 74640, Note_on_c, 14, 60, 110
17, 74740, Note_on_c, 14, 60, 0
17, 75000, Note_on_c, 14, 60, 110
17, 75100, Note_on_c, 14, 60, 0
17, 75120, Note_on_c, 14, 60, 110
17, 75220, Note_on_c, 14, 60, 0
17, 75360, Note_on_c, 14, 60, 110
17, 75460, Note_on_c, 14, 60, 0
17, 75720, Note_on_c, 14, 60, 110
17, 75820, Note_on_c, 14, 60, 0
17, 75840, Note_on_c, 14, 60, 110
17, 75940, Note_on_c, 14, 60, 0
17, 76080, Note_on_c, 14, 60, 110
17, 76180, Note_on_c, 14, 60, 0
17, 76200, Note_on_c, 14, 60, 110
17, 76300, Note_on_c, 14, 60, 0
17, 76320, Note_on_c, 14, 60, 110
17, 76420, Note_on_c, 14, 60, 0
17, 76560, Note_on_c, 14, 60, 110
17, 76660, Note_on_c, 14, 60, 0
17, 76920, Note_on_c, 14, 60, 110
17, 77020, Note_on_c, 14, 60, 0
17, 77040, Note_on_c, 14, 60, 110
17, 77140, Note_on_c, 14, 60, 0
17, 77280, Note_on_c, 14, 60, 110
17, 77380, Note_on_c, 14, 60, 0
17, 77640, Note_on_c, 14, 62, 110
17, 77740, Note_on_c, 14, 62, 0
17, 77760, Note_on_c, 14, 64, 110
17, 77980, Note_on_c, 14, 64, 0
17, 78000, Note_on_c, 14, 67, 110
17, 78100, Note_on_c, 14, 67, 0
17, 78120, Note_on_c, 14, 64, 110
17, 78340, Note_on_c, 14, 64, 0
17, 78360, Note_on_c, 14, 62, 110
17, 78580, Note_on_c, 14, 62, 0
17, 78720, Note_on_c, 14, 59, 110
17, 78940, Note_on_c, 14, 59, 0
17, 79200, Note_on_c, 14, 65, 110
17, 79300, Note_on_c, 14, 65, 0
17, 79320, Note_on_c, 14, 65, 110
17, 79420, Note_on_c, 14, 65, 0
17, 79440, Note_on_c, 14, 65, 110
17, 79660, Note_on_c, 14, 65, 0
17, 79680, Note_on_c, 14, 64, 110
17, 79780, Note_on_c, 14, 64, 0
17, 79800, Note_on_c, 14, 62, 110
17, 79900, Note_on_c, 14, 62, 0
17, 79920, Note_on_c, 14, 60, 110
17, 80020, Note_on_c, 14, 60, 0
17, 80400, Note_on_c, 14, 64, 110
17, 80500, Note_on_c, 14, 64, 0
17, 80520, Note_on_c, 14, 64, 110
17, 80620, Note_on_c, 14, 64, 0
17, 80640, Note_on_c, 14, 62, 110
17, 80740, Note_on_c, 14, 62, 0
17, 80760, Note_on_c, 14, 62, 110
17, 80860, Note_on_c, 14, 62, 0
17, 80880, Note_on_c, 14, 60, 110
17, 80980, Note_on_c, 14, 60, 0
17, 81000, Note_on_c, 14, 62, 110
17, 81100, Note_on_c, 14, 62, 0
17, 81120, Note_on_c, 14, 62, 110
17, 81340, Note_on_c, 14, 62, 0
17, 81360, Note_on_c, 14, 62, 110
17, 81580, Note_on_c, 14, 62, 0
17, 83040, Note_on_c, 14, 65, 110
17, 83140, Note_on_c, 14, 65, 0
17, 83160, Note_on_c, 14, 65, 110
17, 83260, Note_on_c, 14, 65, 0
17, 83280, Note_on_c, 14, 65, 110
17, 83500, Note_on_c, 14, 65, 0
17, 83520, Note_on_c, 14, 64, 110
17, 83620, Note_on_c, 14, 64, 0
17, 83640, Note_on_c, 14, 62, 110
17, 83740, Note_on_c, 14, 62, 0
17, 83760, Note_on_c, 14, 60, 110
17, 83860, Note_on_c, 14, 60, 0
17, 84120, Note_on_c, 14, 62, 110
17, 84220, Note_on_c, 14, 62, 0
17, 84240, Note_on_c, 14, 64, 110
17, 84340, Note_on_c, 14, 64, 0
17, 84360, Note_on_c, 14, 64, 110
17, 84460, Note_on_c, 14, 64, 0
17, 84480, Note_on_c, 14, 62, 110
17, 84580, Note_on_c, 14, 62, 0
17, 84600, Note_on_c, 14, 62, 110
17, 84700, Note_on_c, 14, 62, 0
17, 84720, Note_on_c, 14, 60, 110
17, 84820, Note_on_c, 14, 60, 0
17, 84960, Note_on_c, 14, 62, 110
17, 85180, Note_on_c, 14, 62, 0
17, 85200, Note_on_c, 14, 62, 110
17, 85420, Note_on_c, 14, 62, 0
17, 86880, Note_on_c, 14, 65, 110
17, 86980, Note_on_c, 14, 65, 0
17, 87000, Note_on_c, 14, 65, 110
17, 87100, Note_on_c, 14, 65, 0
17, 87120, Note_on_c, 14, 65, 110
17, 87340, Note_on_c, 14, 65, 0
17, 87360, Note_on_c, 14, 64, 110
17, 87460, Note_on_c, 14, 64, 0
17, 87480, Note_on_c, 14, 62, 110
17, 87580, Note_on_c, 14, 62, 0
17, 87600, Note_on_c, 14, 60, 110
17, 87700, Note_on_c, 14, 60, 0
17, 88080, Note_on_c, 14, 62, 110
17, 88180, Note_on_c, 14, 62, 0
17, 88200, Note_on_c, 14, 64, 110
17, 88300, Note_on_c, 14, 64, 0
17, 88320, Note_on_c, 14, 62, 110
17, 88420, Note_on_c, 14, 62, 0
17, 88440, Note_on_c, 14, 60, 110
17, 88540, Note_on_c, 14, 60, 0
17, 88560, Note_on_c, 14, 62, 110
17, 88660, Note_on_c, 14, 62, 0
17, 88680, Note_on_c, 14, 60, 110
17, 88780, Note_on_c, 14, 60, 0
17, 88800, Note_on_c, 14, 62, 110
17, 89020, Note_on_c, 14, 62, 0
17, 89040, Note_on_c, 14, 62, 110
17, 89260, Note_on_c, 14, 62, 0
17, 90720, Note_on_c, 14, 65, 110
17, 90820, Note_on_c, 14, 65, 0
17, 90840, Note_on_c, 14, 65, 110
17, 90940, Note_on_c, 14, 65, 0
17, 90960, Note_on_c, 14, 65, 110
17, 91180, Note_on_c, 14, 65, 0
17, 91200, Note_on_c, 14, 64, 110
17, 91300, Note_on_c, 14, 64, 0
17, 91320, Note_on_c, 14, 62, 110
17, 91420, Note_on_c, 14, 62, 0
17, 91440, Note_on_c, 14, 60, 110
17, 91540, Note_on_c, 14, 60, 0
17, 91800, Note_on_c, 14, 62, 110
17, 91900, Note_on_c, 14, 62, 0
17, 91920, Note_on_c, 14, 67, 110
17, 92020, Note_on_c, 14, 67, 0
17, 92040, Note_on_c, 14, 64, 110
17, 92140, Note_on_c, 14, 64, 0
17, 92160, Note_on_c, 14, 62, 110
17, 92260, Note_on_c, 14, 62, 0
17, 92280, Note_on_c, 14, 62, 110
17, 92380, Note_on_c, 14, 62, 0
17, 92400, Note_on_c, 14, 60, 110
17, 92500, Note_on_c, 14, 60, 0
17, 92520, Note_on_c, 14, 62, 110
17, 92620, Note_on_c, 14, 62, 0
17, 92640, Note_on_c, 14, 60, 110
17, 92740, Note_on_c, 14, 60, 0
17, 92760, Note_on_c, 14, 59, 110
17, 92860, Note_on_c, 14, 59, 0
17, 92880, Note_on_c, 14, 60, 110
17, 93100, Note_on_c, 14, 60, 0
17, 93360, Note_on_c, 14, 84, 110
17, 93580, Note_on_c, 14, 84, 0
17, 93600, Note_on_c, 14, 81, 110
17, 93820, Note_on_c, 14, 81, 0
17, 93840, Note_on_c, 14, 84, 110
17, 94540, Note_on_c, 14, 84, 0
17, 94560, Note_on_c, 14, 84, 110
17, 94780, Note_on_c, 14, 84, 0
17, 94800, Note_on_c, 14, 81, 110
17, 95020, Note_on_c, 14, 81, 0
17, 95280, Note_on_c, 14, 81, 110
17, 95500, Note_on_c, 14, 81, 0
17, 95520, Note_on_c, 14, 79, 110
17, 95740, Note_on_c, 14, 79, 0
17, 96000, Note_on_c, 14, 79, 110
17, 96460, Note_on_c, 14, 79, 0
17, 96480, Note_on_c, 14, 81, 110
17, 96700, Note_on_c, 14, 81, 0
17, 97200, Note_on_c, 14, 84, 110
17, 97420, Note_on_c, 14, 84, 0
17, 97440, Note_on_c, 14, 81, 110
17, 97660, Note_on_c, 14, 81, 0
17, 97680, Note_on_c, 14, 84, 110
17, 97900, Note_on_c, 14, 84, 0
17, 98400, Note_on_c, 14, 84, 110
17, 98620, Note_on_c, 14, 84, 0
17, 98640, Note_on_c, 14, 81, 110
17, 98860, Note_on_c, 14, 81, 0
17, 99360, Note_on_c, 14, 77, 110
17, 99580, Note_on_c, 14, 77, 0
17, 99600, Note_on_c, 14, 79, 110
17, 99820, Note_on_c, 14, 79, 0
17, 100080, Note_on_c, 14, 76, 110
17, 100540, Note_on_c, 14, 76, 0
17, 100560, Note_on_c, 14, 79, 110
17, 100780, Note_on_c, 14, 79, 0
17, 101280, Note_on_c, 14, 81, 110
17, 101500, Note_on_c, 14, 81, 0
17, 101520, Note_on_c, 14, 84, 110
17, 101860, Note_on_c, 14, 84, 0
17, 102000, Note_on_c, 14, 79, 110
17, 102220, Note_on_c, 14, 79, 0
17, 102240, Note_on_c, 14, 81, 110
17, 102700, Note_on_c, 14, 81, 0
17, 103440, Note_on_c, 14, 86, 110
17, 103660, Note_on_c, 14, 86, 0
17, 103680, Note_on_c, 14, 86, 110
17, 103900, Note_on_c, 14, 86, 0
17, 103920, Note_on_c, 14, 88, 110
17, 104140, Note_on_c, 14, 88, 0
17, 104160, Note_on_c, 14, 86, 110
17, 104380, Note_on_c, 14, 86, 0
17, 104640, Note_on_c, 14, 84, 110
17, 104860, Note_on_c, 14, 84, 0
17, 104880, Note_on_c, 14, 88, 110
17, 105100, Note_on_c, 14, 88, 0
17, 105120, Note_on_c, 14, 84, 110
17, 105340, Note_on_c, 14, 84, 0
17, 106800, Note_on_c, 14, 79, 110
17, 106900, Note_on_c, 14, 79, 0
17, 106920, Note_on_c, 14, 81, 110
17, 107140, Note_on_c, 14, 81, 0
17, 108480, Note_on_c, 14, 72, 110
17, 108700, Note_on_c, 14, 72, 0
17, 108720, Note_on_c, 14, 71, 110
17, 108940, Note_on_c, 14, 71, 0
17, 108960, Note_on_c, 14, 69, 110
17, 109180, Note_on_c, 14, 69, 0
17, 110040, Note_on_c, 14, 69, 110
17, 110140, Note_on_c, 14, 69, 0
17, 110160, Note_on_c, 14, 67, 110
17, 110380, Note_on_c, 14, 67, 0
17, 110640, Note_on_c, 14, 60, 110
17, 110860, Note_on_c, 14, 60, 0
17, 110880, Note_on_c, 14, 62, 110
17, 111100, Note_on_c, 14, 62, 0
17, 111360, Note_on_c, 14, 62, 110
17, 111580, Note_on_c, 14, 62, 0
17, 112560, Note_on_c, 14, 72, 110
17, 112780, Note_on_c, 14, 72, 0
17, 112800, Note_on_c, 14, 71, 110
17, 113020, Note_on_c, 14, 71, 0
17, 113040, Note_on_c, 14, 69, 110
17, 113740, Note_on_c, 14, 69, 0
17, 113880, Note_on_c, 14, 69, 110
17, 113980, Note_on_c, 14, 69, 0
17, 114000, Note_on_c, 14, 67, 110
17, 114220, Note_on_c, 14, 67, 0
17, 114480, Note_on_c, 14, 60, 110
17, 114700, Note_on_c, 14, 60, 0
17, 114720, Note_on_c, 14, 62, 110
17, 114940, Note_on_c, 14, 62, 0
17, 115200, Note_on_c, 14, 62, 110
17, 115420, Note_on_c, 14, 62, 0
17, 116400, Note_on_c, 14, 60, 110
17, 116620, Note_on_c, 14, 60, 0
17, 116640, Note_on_c, 14, 64, 110
17, 116860, Note_on_c, 14, 64, 0
17, 117120, Note_on_c, 14, 67, 110
17, 117340, Note_on_c, 14, 67, 0
17, 117360, Note_on_c, 14, 65, 110
17, 117580, Note_on_c, 14, 65, 0
17, 117840, Note_on_c, 14, 60, 110
17, 118180, Note_on_c, 14, 60, 0
17, 118560, Note_on_c, 14, 67, 110
17, 118780, Note_on_c, 14, 67, 0
17, 118800, Note_on_c, 14, 65, 110
17, 119020, Note_on_c, 14, 65, 0
17, 119040, Note_on_c, 14, 64, 110
17, 119260, Note_on_c, 14, 64, 0
17, 119280, Note_on_c, 14, 62, 110
17, 119740, Note_on_c, 14, 62, 0
17, 119760, Note_on_c, 14, 60, 110
17, 119980, Note_on_c, 14, 60, 0
17, 120000, Note_on_c, 14, 64, 110
17, 120220, Note_on_c, 14, 64, 0
17, 120240, Note_on_c, 14, 60, 110
17, 120460, Note_on_c, 14, 60, 0
17, 121440, Note_on_c, 14, 60, 110
17, 121540, Note_on_c, 14, 60, 0
17, 121560, Note_on_c, 14, 62, 110
17, 121660, Note_on_c, 14, 62, 0
17, 121680, Note_on_c, 14, 65, 110
17, 121900, Note_on_c, 14, 65, 0
17, 121920, Note_on_c, 14, 64, 110
17, 122140, Note_on_c, 14, 64, 0
17, 122160, Note_on_c, 14, 60, 110
17, 122380, Note_on_c, 14, 60, 0
17, 122400, Note_on_c, 14, 62, 110
17, 122620, Note_on_c, 14, 62, 0
17, 123240, Note_on_c, 14, 60, 110
17, 123340, Note_on_c, 14, 60, 0
17, 123360, Note_on_c, 14, 60, 110
17, 123460, Note_on_c, 14, 60, 0
17, 123480, Note_on_c, 14, 62, 110
17, 123700, Note_on_c, 14, 62, 0
17, 123720, Note_on_c, 14, 62, 110
17, 123940, Note_on_c, 14, 62, 0
17, 123960, Note_on_c, 14, 64, 110
17, 124180, Note_on_c, 14, 64, 0
17, 124200, Note_on_c, 14, 60, 110
17, 124420, Note_on_c, 14, 60, 0
17, 125760, Note_on_c, 14, 72, 110
17, 125860, Note_on_c, 14, 72, 0
17, 125880, Note_on_c, 14, 72, 110
17, 125980, Note_on_c, 14, 72, 0
17, 126000, Note_on_c, 14, 72, 110
17, 126100, Note_on_c, 14, 72, 0
17, 126120, Note_on_c, 14, 72, 110
17, 126220, Note_on_c, 14, 72, 0
17, 126240, Note_on_c, 14, 72, 110
17, 126340, Note_on_c, 14, 72, 0
17, 126360, Note_on_c, 14, 72, 110
17, 126460, Note_on_c, 14, 72, 0
17, 127080, Note_on_c, 14, 60, 110
17, 127180, Note_on_c, 14, 60, 0
17, 127200, Note_on_c, 14, 60, 110
17, 127300, Note_on_c, 14, 60, 0
17, 127320, Note_on_c, 14, 62, 110
17, 127540, Note_on_c, 14, 62, 0
17, 127560, Note_on_c, 14, 62, 110
17, 127780, Note_on_c, 14, 62, 0
17, 127800, Note_on_c, 14, 64, 110
17, 128020, Note_on_c, 14, 64, 0
17, 128040, Note_on_c, 14, 67, 110
17, 128620, Note_on_c, 14, 67, 0
17, 132000, Note_on_c, 14, 67, 110
17, 132100, Note_on_c, 14, 67, 0
17, 132120, Note_on_c, 14, 67, 110
17, 132220, Note_on_c, 14, 67, 0
17, 132960, Note_on_c, 14, 67, 110
17, 133060, Note_on_c, 14, 67, 0
17, 133080, Note_on_c, 14, 67, 110
17, 133180, Note_on_c, 14, 67, 0
17, 133920, Note_on_c, 14, 67, 110
17, 134020, Note_on_c, 14, 67, 0
17, 134040, Note_on_c, 14, 67, 110
17, 134140, Note_on_c, 14, 67, 0
17, 135600, Note_on_c, 14, 59, 110
17, 135820, Note_on_c, 14, 59, 0
17, 135840, Note_on_c, 14, 60, 110
17, 136300, Note_on_c, 14, 60, 0
17, 136300, End_track
18, 0, Start_track
18, 0, Program_c, 15, 89
18, 0, Control_c, 15, 7, 79
18, 138120, Note_on_c, 15, 88, 110
18, 138120, Note_on_c, 15, 84, 110
18, 138120, Note_on_c, 15, 72, 110
18, 140140, Note_on_c, 15, 88, 0
18, 140140, Note_on_c, 15, 84, 0
18, 140140, Note_on_c, 15, 72, 0
18, 140140, End_track
0, 0, End_of_file
