0, 0, Header, 1, 12, 192
1, 0, Start_track
1, 0, Title_t, "Try Again"
1, 0, Text_t, "By Aaliyah"
1, 0, Text_t, "Generated by NoteWorthy Composer"
1, 0, Tempo, 631578
1, 0, Time_signature, 4, 2, 24, 8
1, 0, Key_signature, 4, "major"
1, 0, End_track
2, 0, Start_track
2, 0, MIDI_port, 0
2, 0, Title_t, "Staff"
2, 0, Control_c, 0, 7, 127
2, 0, Control_c, 0, 10, 64
2, 0, Program_c, 0, 51
2, 0, Note_on_c, 0, 28, 110
2, 0, Note_on_c, 0, 40, 110
2, 160, Note_on_c, 0, 28, 0
2, 160, Note_on_c, 0, 40, 0
2, 960, Note_on_c, 0, 28, 110
2, 960, Note_on_c, 0, 40, 110
2, 1054, Note_on_c, 0, 28, 0
2, 1054, Note_on_c, 0, 40, 0
2, 1152, Note_on_c, 0, 28, 110
2, 1152, Note_on_c, 0, 40, 110
2, 1246, Note_on_c, 0, 28, 0
2, 1246, Note_on_c, 0, 40, 0
2, 1344, Note_on_c, 0, 30, 110
2, 1344, Note_on_c, 0, 42, 110
2, 1438, Note_on_c, 0, 30, 0
2, 1438, Note_on_c, 0, 42, 0
2, 1536, Note_on_c, 0, 32, 110
2, 1536, Note_on_c, 0, 44, 110
2, 1696, Note_on_c, 0, 32, 0
2, 1696, Note_on_c, 0, 44, 0
2, 2688, Note_on_c, 0, 32, 110
2, 2688, Note_on_c, 0, 44, 110
2, 2782, Note_on_c, 0, 32, 0
2, 2782, Note_on_c, 0, 44, 0
2, 2880, Note_on_c, 0, 30, 110
2, 2880, Note_on_c, 0, 42, 110
2, 2974, Note_on_c, 0, 30, 0
2, 2974, Note_on_c, 0, 42, 0
2, 3072, Note_on_c, 0, 28, 110
2, 3072, Note_on_c, 0, 40, 110
2, 3232, Note_on_c, 0, 28, 0
2, 3232, Note_on_c, 0, 40, 0
2, 4032, Note_on_c, 0, 28, 110
2, 4032, Note_on_c, 0, 40, 110
2, 4126, Note_on_c, 0, 28, 0
2, 4126, Note_on_c, 0, 40, 0
2, 4224, Note_on_c, 0, 28, 110
2, 4224, Note_on_c, 0, 40, 110
2, 4318, Note_on_c, 0, 28, 0
2, 4318, Note_on_c, 0, 40, 0
2, 4416, Note_on_c, 0, 30, 110
2, 4416, Note_on_c, 0, 42, 110
2, 4510, Note_on_c, 0, 30, 0
2, 4510, Note_on_c, 0, 42, 0
2, 4608, Note_on_c, 0, 32, 110
2, 4608, Note_on_c, 0, 44, 110
2, 4768, Note_on_c, 0, 32, 0
2, 4768, Note_on_c, 0, 44, 0
2, 5280, Note_on_c, 0, 32, 110
2, 5280, Note_on_c, 0, 44, 110
2, 5326, Note_on_c, 0, 32, 0
2, 5326, Note_on_c, 0, 44, 0
2, 5328, Note_on_c, 0, 32, 110
2, 5328, Note_on_c, 0, 44, 110
2, 5374, Note_on_c, 0, 32, 0
2, 5374, Note_on_c, 0, 44, 0
2, 5376, Note_on_c, 0, 32, 110
2, 5376, Note_on_c, 0, 44, 110
2, 5470, Note_on_c, 0, 32, 0
2, 5470, Note_on_c, 0, 44, 0
2, 5664, Note_on_c, 0, 32, 110
2, 5664, Note_on_c, 0, 44, 110
2, 5710, Note_on_c, 0, 32, 0
2, 5710, Note_on_c, 0, 44, 0
2, 5712, Note_on_c, 0, 32, 110
2, 5712, Note_on_c, 0, 44, 110
2, 5758, Note_on_c, 0, 32, 0
2, 5758, Note_on_c, 0, 44, 0
2, 5760, Note_on_c, 0, 32, 110
2, 5760, Note_on_c, 0, 44, 110
2, 5854, Note_on_c, 0, 32, 0
2, 5854, Note_on_c, 0, 44, 0
2, 66048, Note_on_c, 0, 32, 110
2, 66048, Note_on_c, 0, 44, 110
2, 67536, Note_on_c, 0, 32, 0
2, 67536, Note_on_c, 0, 44, 0
2, 69120, Note_on_c, 0, 32, 110
2, 69120, Note_on_c, 0, 44, 110
2, 70608, Note_on_c, 0, 32, 0
2, 70608, Note_on_c, 0, 44, 0
2, 72192, Note_on_c, 0, 32, 110
2, 72192, Note_on_c, 0, 44, 110
2, 73680, Note_on_c, 0, 32, 0
2, 73680, Note_on_c, 0, 44, 0
2, 75264, Note_on_c, 0, 32, 110
2, 75264, Note_on_c, 0, 44, 110
2, 76752, Note_on_c, 0, 32, 0
2, 76752, Note_on_c, 0, 44, 0
2, 78336, Note_on_c, 0, 32, 110
2, 78336, Note_on_c, 0, 44, 110
2, 79824, Note_on_c, 0, 32, 0
2, 79824, Note_on_c, 0, 44, 0
2, 79824, End_track
3, 0, Start_track
3, 0, MIDI_port, 0
3, 0, Title_t, "Staff-1"
3, 0, Control_c, 0, 7, 127
3, 0, Control_c, 0, 10, 64
3, 0, Program_c, 0, 51
3, 96, Note_on_c, 0, 68, 110
3, 128, Note_on_c, 0, 68, 0
3, 144, Note_on_c, 0, 68, 110
3, 176, Note_on_c, 0, 68, 0
3, 192, Note_on_c, 0, 68, 110
3, 224, Note_on_c, 0, 68, 0
3, 288, Note_on_c, 0, 68, 110
3, 320, Note_on_c, 0, 68, 0
3, 384, Note_on_c, 0, 68, 110
3, 416, Note_on_c, 0, 68, 0
3, 432, Note_on_c, 0, 68, 110
3, 464, Note_on_c, 0, 68, 0
3, 480, Note_on_c, 0, 68, 110
3, 512, Note_on_c, 0, 68, 0
3, 576, Note_on_c, 0, 68, 110
3, 608, Note_on_c, 0, 68, 0
3, 672, Note_on_c, 0, 68, 110
3, 704, Note_on_c, 0, 68, 0
3, 720, Note_on_c, 0, 68, 110
3, 752, Note_on_c, 0, 68, 0
3, 768, Note_on_c, 0, 68, 110
3, 800, Note_on_c, 0, 68, 0
3, 864, Note_on_c, 0, 68, 110
3, 896, Note_on_c, 0, 68, 0
3, 912, Note_on_c, 0, 68, 110
3, 944, Note_on_c, 0, 68, 0
3, 960, Note_on_c, 0, 68, 110
3, 992, Note_on_c, 0, 68, 0
3, 1056, Note_on_c, 0, 68, 110
3, 1088, Note_on_c, 0, 68, 0
3, 1104, Note_on_c, 0, 68, 110
3, 1136, Note_on_c, 0, 68, 0
3, 1248, Note_on_c, 0, 68, 110
3, 1280, Note_on_c, 0, 68, 0
3, 1440, Note_on_c, 0, 68, 110
3, 1472, Note_on_c, 0, 68, 0
3, 1632, Note_on_c, 0, 68, 110
3, 1664, Note_on_c, 0, 68, 0
3, 1680, Note_on_c, 0, 68, 110
3, 1712, Note_on_c, 0, 68, 0
3, 1728, Note_on_c, 0, 68, 110
3, 1760, Note_on_c, 0, 68, 0
3, 1824, Note_on_c, 0, 68, 110
3, 1856, Note_on_c, 0, 68, 0
3, 1920, Note_on_c, 0, 68, 110
3, 1952, Note_on_c, 0, 68, 0
3, 1968, Note_on_c, 0, 68, 110
3, 2000, Note_on_c, 0, 68, 0
3, 2016, Note_on_c, 0, 68, 110
3, 2048, Note_on_c, 0, 68, 0
3, 2112, Note_on_c, 0, 68, 110
3, 2144, Note_on_c, 0, 68, 0
3, 2208, Note_on_c, 0, 68, 110
3, 2240, Note_on_c, 0, 68, 0
3, 2256, Note_on_c, 0, 68, 110
3, 2288, Note_on_c, 0, 68, 0
3, 2304, Note_on_c, 0, 68, 110
3, 2336, Note_on_c, 0, 68, 0
3, 2400, Note_on_c, 0, 68, 110
3, 2432, Note_on_c, 0, 68, 0
3, 2448, Note_on_c, 0, 68, 110
3, 2480, Note_on_c, 0, 68, 0
3, 2496, Note_on_c, 0, 68, 110
3, 2528, Note_on_c, 0, 68, 0
3, 2592, Note_on_c, 0, 68, 110
3, 2624, Note_on_c, 0, 68, 0
3, 2640, Note_on_c, 0, 68, 110
3, 2672, Note_on_c, 0, 68, 0
3, 2784, Note_on_c, 0, 68, 110
3, 2816, Note_on_c, 0, 68, 0
3, 2976, Note_on_c, 0, 68, 110
3, 3008, Note_on_c, 0, 68, 0
3, 3168, Note_on_c, 0, 68, 110
3, 3200, Note_on_c, 0, 68, 0
3, 3216, Note_on_c, 0, 68, 110
3, 3248, Note_on_c, 0, 68, 0
3, 3264, Note_on_c, 0, 68, 110
3, 3296, Note_on_c, 0, 68, 0
3, 3360, Note_on_c, 0, 68, 110
3, 3392, Note_on_c, 0, 68, 0
3, 3456, Note_on_c, 0, 68, 110
3, 3488, Note_on_c, 0, 68, 0
3, 3504, Note_on_c, 0, 68, 110
3, 3536, Note_on_c, 0, 68, 0
3, 3552, Note_on_c, 0, 68, 110
3, 3584, Note_on_c, 0, 68, 0
3, 3648, Note_on_c, 0, 68, 110
3, 3680, Note_on_c, 0, 68, 0
3, 3744, Note_on_c, 0, 68, 110
3, 3776, Note_on_c, 0, 68, 0
3, 3792, Note_on_c, 0, 68, 110
3, 3824, Note_on_c, 0, 68, 0
3, 3840, Note_on_c, 0, 68, 110
3, 3872, Note_on_c, 0, 68, 0
3, 3936, Note_on_c, 0, 68, 110
3, 3968, Note_on_c, 0, 68, 0
3, 3984, Note_on_c, 0, 68, 110
3, 4016, Note_on_c, 0, 68, 0
3, 4032, Note_on_c, 0, 68, 110
3, 4064, Note_on_c, 0, 68, 0
3, 4128, Note_on_c, 0, 68, 110
3, 4160, Note_on_c, 0, 68, 0
3, 4176, Note_on_c, 0, 68, 110
3, 4208, Note_on_c, 0, 68, 0
3, 4320, Note_on_c, 0, 68, 110
3, 4352, Note_on_c, 0, 68, 0
3, 4512, Note_on_c, 0, 68, 110
3, 4544, Note_on_c, 0, 68, 0
3, 4704, Note_on_c, 0, 68, 110
3, 4736, Note_on_c, 0, 68, 0
3, 4752, Note_on_c, 0, 68, 110
3, 4784, Note_on_c, 0, 68, 0
3, 4800, Note_on_c, 0, 68, 110
3, 4832, Note_on_c, 0, 68, 0
3, 4896, Note_on_c, 0, 68, 110
3, 4928, Note_on_c, 0, 68, 0
3, 4992, Note_on_c, 0, 68, 110
3, 5024, Note_on_c, 0, 68, 0
3, 5040, Note_on_c, 0, 68, 110
3, 5072, Note_on_c, 0, 68, 0
3, 5088, Note_on_c, 0, 68, 110
3, 5120, Note_on_c, 0, 68, 0
3, 5184, Note_on_c, 0, 68, 110
3, 5216, Note_on_c, 0, 68, 0
3, 5280, Note_on_c, 0, 68, 110
3, 5312, Note_on_c, 0, 68, 0
3, 5328, Note_on_c, 0, 68, 110
3, 5360, Note_on_c, 0, 68, 0
3, 5376, Note_on_c, 0, 68, 110
3, 5408, Note_on_c, 0, 68, 0
3, 5472, Note_on_c, 0, 68, 110
3, 5504, Note_on_c, 0, 68, 0
3, 5520, Note_on_c, 0, 68, 110
3, 5552, Note_on_c, 0, 68, 0
3, 5568, Note_on_c, 0, 68, 110
3, 5600, Note_on_c, 0, 68, 0
3, 5664, Note_on_c, 0, 68, 110
3, 5696, Note_on_c, 0, 68, 0
3, 5712, Note_on_c, 0, 68, 110
3, 5744, Note_on_c, 0, 68, 0
3, 5856, Note_on_c, 0, 68, 110
3, 5888, Note_on_c, 0, 68, 0
3, 6048, Note_on_c, 0, 68, 110
3, 6080, Note_on_c, 0, 68, 0
3, 66144, Note_on_c, 0, 68, 110
3, 66190, Note_on_c, 0, 68, 0
3, 66192, Note_on_c, 0, 68, 110
3, 66238, Note_on_c, 0, 68, 0
3, 66240, Note_on_c, 0, 68, 110
3, 66286, Note_on_c, 0, 68, 0
3, 66288, Note_on_c, 0, 68, 110
3, 66334, Note_on_c, 0, 68, 0
3, 66336, Note_on_c, 0, 68, 110
3, 66382, Note_on_c, 0, 68, 0
3, 66384, Note_on_c, 0, 70, 110
3, 66478, Note_on_c, 0, 70, 0
3, 66480, Note_on_c, 0, 70, 110
3, 66526, Note_on_c, 0, 70, 0
3, 66528, Note_on_c, 0, 68, 110
3, 66622, Note_on_c, 0, 68, 0
3, 66624, Note_on_c, 0, 70, 110
3, 66718, Note_on_c, 0, 70, 0
3, 66720, Note_on_c, 0, 68, 110
3, 66814, Note_on_c, 0, 68, 0
3, 66912, Note_on_c, 0, 68, 110
3, 66958, Note_on_c, 0, 68, 0
3, 66960, Note_on_c, 0, 68, 110
3, 67006, Note_on_c, 0, 68, 0
3, 67008, Note_on_c, 0, 68, 110
3, 67054, Note_on_c, 0, 68, 0
3, 67056, Note_on_c, 0, 68, 110
3, 67102, Note_on_c, 0, 68, 0
3, 67104, Note_on_c, 0, 68, 110
3, 67150, Note_on_c, 0, 68, 0
3, 67152, Note_on_c, 0, 70, 110
3, 67246, Note_on_c, 0, 70, 0
3, 67248, Note_on_c, 0, 70, 110
3, 67294, Note_on_c, 0, 70, 0
3, 67296, Note_on_c, 0, 61, 110
3, 67390, Note_on_c, 0, 61, 0
3, 67392, Note_on_c, 0, 63, 110
3, 67486, Note_on_c, 0, 63, 0
3, 67488, Note_on_c, 0, 61, 110
3, 67582, Note_on_c, 0, 61, 0
3, 69216, Note_on_c, 0, 68, 110
3, 69262, Note_on_c, 0, 68, 0
3, 69264, Note_on_c, 0, 68, 110
3, 69310, Note_on_c, 0, 68, 0
3, 69312, Note_on_c, 0, 68, 110
3, 69358, Note_on_c, 0, 68, 0
3, 69360, Note_on_c, 0, 68, 110
3, 69406, Note_on_c, 0, 68, 0
3, 69408, Note_on_c, 0, 68, 110
3, 69454, Note_on_c, 0, 68, 0
3, 69456, Note_on_c, 0, 70, 110
3, 69550, Note_on_c, 0, 70, 0
3, 69552, Note_on_c, 0, 70, 110
3, 69598, Note_on_c, 0, 70, 0
3, 69600, Note_on_c, 0, 68, 110
3, 69694, Note_on_c, 0, 68, 0
3, 69696, Note_on_c, 0, 70, 110
3, 69790, Note_on_c, 0, 70, 0
3, 69792, Note_on_c, 0, 68, 110
3, 69886, Note_on_c, 0, 68, 0
3, 69984, Note_on_c, 0, 68, 110
3, 70030, Note_on_c, 0, 68, 0
3, 70032, Note_on_c, 0, 68, 110
3, 70078, Note_on_c, 0, 68, 0
3, 70080, Note_on_c, 0, 68, 110
3, 70126, Note_on_c, 0, 68, 0
3, 70128, Note_on_c, 0, 68, 110
3, 70174, Note_on_c, 0, 68, 0
3, 70176, Note_on_c, 0, 68, 110
3, 70222, Note_on_c, 0, 68, 0
3, 70224, Note_on_c, 0, 70, 110
3, 70318, Note_on_c, 0, 70, 0
3, 70320, Note_on_c, 0, 70, 110
3, 70366, Note_on_c, 0, 70, 0
3, 70368, Note_on_c, 0, 61, 110
3, 70462, Note_on_c, 0, 61, 0
3, 70464, Note_on_c, 0, 63, 110
3, 70558, Note_on_c, 0, 63, 0
3, 70560, Note_on_c, 0, 61, 110
3, 70654, Note_on_c, 0, 61, 0
3, 72288, Note_on_c, 0, 68, 110
3, 72334, Note_on_c, 0, 68, 0
3, 72336, Note_on_c, 0, 68, 110
3, 72382, Note_on_c, 0, 68, 0
3, 72384, Note_on_c, 0, 68, 110
3, 72430, Note_on_c, 0, 68, 0
3, 72432, Note_on_c, 0, 68, 110
3, 72478, Note_on_c, 0, 68, 0
3, 72480, Note_on_c, 0, 68, 110
3, 72526, Note_on_c, 0, 68, 0
3, 72528, Note_on_c, 0, 70, 110
3, 72622, Note_on_c, 0, 70, 0
3, 72624, Note_on_c, 0, 70, 110
3, 72670, Note_on_c, 0, 70, 0
3, 72672, Note_on_c, 0, 68, 110
3, 72766, Note_on_c, 0, 68, 0
3, 72768, Note_on_c, 0, 70, 110
3, 72862, Note_on_c, 0, 70, 0
3, 72864, Note_on_c, 0, 68, 110
3, 72958, Note_on_c, 0, 68, 0
3, 73056, Note_on_c, 0, 68, 110
3, 73102, Note_on_c, 0, 68, 0
3, 73104, Note_on_c, 0, 68, 110
3, 73150, Note_on_c, 0, 68, 0
3, 73152, Note_on_c, 0, 68, 110
3, 73198, Note_on_c, 0, 68, 0
3, 73200, Note_on_c, 0, 68, 110
3, 73246, Note_on_c, 0, 68, 0
3, 73248, Note_on_c, 0, 68, 110
3, 73294, Note_on_c, 0, 68, 0
3, 73296, Note_on_c, 0, 70, 110
3, 73390, Note_on_c, 0, 70, 0
3, 73392, Note_on_c, 0, 70, 110
3, 73438, Note_on_c, 0, 70, 0
3, 73440, Note_on_c, 0, 61, 110
3, 73534, Note_on_c, 0, 61, 0
3, 73536, Note_on_c, 0, 63, 110
3, 73630, Note_on_c, 0, 63, 0
3, 73632, Note_on_c, 0, 61, 110
3, 73726, Note_on_c, 0, 61, 0
3, 75360, Note_on_c, 0, 68, 110
3, 75406, Note_on_c, 0, 68, 0
3, 75408, Note_on_c, 0, 68, 110
3, 75454, Note_on_c, 0, 68, 0
3, 75456, Note_on_c, 0, 68, 110
3, 75502, Note_on_c, 0, 68, 0
3, 75504, Note_on_c, 0, 68, 110
3, 75550, Note_on_c, 0, 68, 0
3, 75552, Note_on_c, 0, 68, 110
3, 75598, Note_on_c, 0, 68, 0
3, 75600, Note_on_c, 0, 70, 110
3, 75694, Note_on_c, 0, 70, 0
3, 75696, Note_on_c, 0, 70, 110
3, 75742, Note_on_c, 0, 70, 0
3, 75744, Note_on_c, 0, 68, 110
3, 75838, Note_on_c, 0, 68, 0
3, 75840, Note_on_c, 0, 70, 110
3, 75934, Note_on_c, 0, 70, 0
3, 75936, Note_on_c, 0, 68, 110
3, 76030, Note_on_c, 0, 68, 0
3, 76128, Note_on_c, 0, 68, 110
3, 76174, Note_on_c, 0, 68, 0
3, 76176, Note_on_c, 0, 68, 110
3, 76222, Note_on_c, 0, 68, 0
3, 76224, Note_on_c, 0, 68, 110
3, 76270, Note_on_c, 0, 68, 0
3, 76272, Note_on_c, 0, 68, 110
3, 76318, Note_on_c, 0, 68, 0
3, 76320, Note_on_c, 0, 68, 110
3, 76366, Note_on_c, 0, 68, 0
3, 76368, Note_on_c, 0, 70, 110
3, 76462, Note_on_c, 0, 70, 0
3, 76464, Note_on_c, 0, 70, 110
3, 76510, Note_on_c, 0, 70, 0
3, 76512, Note_on_c, 0, 61, 110
3, 76606, Note_on_c, 0, 61, 0
3, 76608, Note_on_c, 0, 63, 110
3, 76702, Note_on_c, 0, 63, 0
3, 76704, Note_on_c, 0, 61, 110
3, 76798, Note_on_c, 0, 61, 0
3, 78432, Note_on_c, 0, 68, 110
3, 78478, Note_on_c, 0, 68, 0
3, 78480, Note_on_c, 0, 68, 110
3, 78526, Note_on_c, 0, 68, 0
3, 78528, Note_on_c, 0, 68, 110
3, 78574, Note_on_c, 0, 68, 0
3, 78576, Note_on_c, 0, 68, 110
3, 78622, Note_on_c, 0, 68, 0
3, 78624, Note_on_c, 0, 68, 110
3, 78670, Note_on_c, 0, 68, 0
3, 78672, Note_on_c, 0, 70, 110
3, 78766, Note_on_c, 0, 70, 0
3, 78768, Note_on_c, 0, 70, 110
3, 78814, Note_on_c, 0, 70, 0
3, 78816, Note_on_c, 0, 68, 110
3, 78910, Note_on_c, 0, 68, 0
3, 78912, Note_on_c, 0, 70, 110
3, 79006, Note_on_c, 0, 70, 0
3, 79008, Note_on_c, 0, 68, 110
3, 79102, Note_on_c, 0, 68, 0
3, 79200, Note_on_c, 0, 68, 110
3, 79246, Note_on_c, 0, 68, 0
3, 79248, Note_on_c, 0, 68, 110
3, 79294, Note_on_c, 0, 68, 0
3, 79296, Note_on_c, 0, 68, 110
3, 79342, Note_on_c, 0, 68, 0
3, 79344, Note_on_c, 0, 68, 110
3, 79390, Note_on_c, 0, 68, 0
3, 79392, Note_on_c, 0, 68, 110
3, 79438, Note_on_c, 0, 68, 0
3, 79440, Note_on_c, 0, 70, 110
3, 79534, Note_on_c, 0, 70, 0
3, 79536, Note_on_c, 0, 70, 110
3, 79582, Note_on_c, 0, 70, 0
3, 79584, Note_on_c, 0, 61, 110
3, 79678, Note_on_c, 0, 61, 0
3, 79680, Note_on_c, 0, 63, 110
3, 79774, Note_on_c, 0, 63, 0
3, 79776, Note_on_c, 0, 61, 110
3, 79870, Note_on_c, 0, 61, 0
3, 79870, End_track
4, 0, Start_track
4, 0, MIDI_port, 0
4, 0, Title_t, "Staff-2"
4, 0, Control_c, 1, 7, 60
4, 0, Control_c, 1, 10, 64
4, 0, Program_c, 1, 52
4, 0, Note_on_c, 1, 64, 110
4, 768, Control_c, 1, 64, 127
4, 1152, Note_on_c, 1, 64, 0
4, 1344, Note_on_c, 1, 70, 110
4, 1536, Note_on_c, 1, 70, 0
4, 1536, Control_c, 1, 64, 0
4, 1536, Note_on_c, 1, 71, 110
4, 3024, Note_on_c, 1, 71, 0
4, 3072, Note_on_c, 1, 64, 110
4, 3840, Control_c, 1, 64, 127
4, 4224, Note_on_c, 1, 64, 0
4, 4416, Note_on_c, 1, 70, 110
4, 4608, Note_on_c, 1, 70, 0
4, 4608, Control_c, 1, 64, 0
4, 4608, Note_on_c, 1, 71, 110
4, 6096, Note_on_c, 1, 71, 0
4, 6096, End_track
5, 0, Start_track
5, 0, MIDI_port, 0
5, 0, Title_t, "Staff-3"
5, 0, Control_c, 2, 7, 65
5, 0, Control_c, 2, 10, 64
5, 0, Program_c, 2, 104
5, 960, Note_on_c, 2, 75, 110
5, 1054, Note_on_c, 2, 75, 0
5, 1056, Note_on_c, 2, 75, 110
5, 1102, Note_on_c, 2, 75, 0
5, 1104, Note_on_c, 2, 75, 110
5, 1150, Note_on_c, 2, 75, 0
5, 1152, Note_on_c, 2, 70, 110
5, 1312, Note_on_c, 2, 70, 0
5, 1344, Note_on_c, 2, 73, 110
5, 1504, Note_on_c, 2, 73, 0
5, 1536, Note_on_c, 2, 68, 110
5, 1630, Note_on_c, 2, 68, 0
5, 2496, Note_on_c, 2, 73, 110
5, 2590, Note_on_c, 2, 73, 0
5, 2592, Note_on_c, 2, 75, 110
5, 2686, Note_on_c, 2, 75, 0
5, 2688, Note_on_c, 2, 70, 110
5, 2848, Note_on_c, 2, 70, 0
5, 2880, Note_on_c, 2, 73, 110
5, 3040, Note_on_c, 2, 73, 0
5, 4032, Note_on_c, 2, 75, 110
5, 4126, Note_on_c, 2, 75, 0
5, 4128, Note_on_c, 2, 75, 110
5, 4174, Note_on_c, 2, 75, 0
5, 4176, Note_on_c, 2, 75, 110
5, 4222, Note_on_c, 2, 75, 0
5, 4224, Note_on_c, 2, 70, 110
5, 4384, Note_on_c, 2, 70, 0
5, 4416, Note_on_c, 2, 73, 110
5, 4576, Note_on_c, 2, 73, 0
5, 4608, Note_on_c, 2, 68, 110
5, 4702, Note_on_c, 2, 68, 0
5, 5376, Note_on_c, 2, 68, 110
5, 5408, Note_on_c, 2, 68, 0
5, 5472, Note_on_c, 2, 68, 110
5, 5504, Note_on_c, 2, 68, 0
5, 5520, Note_on_c, 2, 68, 110
5, 5552, Note_on_c, 2, 68, 0
5, 5568, Note_on_c, 2, 68, 110
5, 5600, Note_on_c, 2, 68, 0
5, 5664, Note_on_c, 2, 68, 110
5, 5696, Note_on_c, 2, 68, 0
5, 5712, Note_on_c, 2, 68, 110
5, 5744, Note_on_c, 2, 68, 0
5, 5856, Note_on_c, 2, 68, 110
5, 5888, Note_on_c, 2, 68, 0
5, 6048, Note_on_c, 2, 68, 110
5, 6080, Note_on_c, 2, 68, 0
5, 6080, End_track
6, 0, Start_track
6, 0, MIDI_port, 0
6, 0, Title_t, "Staff-4"
6, 0, Control_c, 9, 7, 127
6, 0, Control_c, 9, 10, 64
6, 1536, Note_on_c, 9, 69, 110
6, 1630, Note_on_c, 9, 69, 0
6, 1632, Note_on_c, 9, 69, 110
6, 1726, Note_on_c, 9, 69, 0
6, 1776, Note_on_c, 9, 69, 110
6, 1870, Note_on_c, 9, 69, 0
6, 1872, Note_on_c, 9, 69, 110
6, 1966, Note_on_c, 9, 69, 0
6, 2016, Note_on_c, 9, 69, 110
6, 2110, Note_on_c, 9, 69, 0
6, 2160, Note_on_c, 9, 69, 110
6, 2254, Note_on_c, 9, 69, 0
6, 2304, Note_on_c, 9, 69, 110
6, 2398, Note_on_c, 9, 69, 0
6, 2400, Note_on_c, 9, 69, 110
6, 2494, Note_on_c, 9, 69, 0
6, 2544, Note_on_c, 9, 69, 110
6, 2638, Note_on_c, 9, 69, 0
6, 2640, Note_on_c, 9, 69, 110
6, 2734, Note_on_c, 9, 69, 0
6, 2784, Note_on_c, 9, 69, 110
6, 2878, Note_on_c, 9, 69, 0
6, 2928, Note_on_c, 9, 69, 110
6, 3022, Note_on_c, 9, 69, 0
6, 3072, Note_on_c, 9, 69, 110
6, 3166, Note_on_c, 9, 69, 0
6, 3168, Note_on_c, 9, 69, 110
6, 3262, Note_on_c, 9, 69, 0
6, 3312, Note_on_c, 9, 69, 110
6, 3406, Note_on_c, 9, 69, 0
6, 3408, Note_on_c, 9, 69, 110
6, 3502, Note_on_c, 9, 69, 0
6, 3552, Note_on_c, 9, 69, 110
6, 3646, Note_on_c, 9, 69, 0
6, 3696, Note_on_c, 9, 69, 110
6, 3790, Note_on_c, 9, 69, 0
6, 3840, Note_on_c, 9, 69, 110
6, 3934, Note_on_c, 9, 69, 0
6, 3936, Note_on_c, 9, 69, 110
6, 4030, Note_on_c, 9, 69, 0
6, 4080, Note_on_c, 9, 69, 110
6, 4174, Note_on_c, 9, 69, 0
6, 4176, Note_on_c, 9, 69, 110
6, 4270, Note_on_c, 9, 69, 0
6, 4320, Note_on_c, 9, 69, 110
6, 4366, Note_on_c, 9, 69, 0
6, 4368, Note_on_c, 9, 69, 110
6, 4462, Note_on_c, 9, 69, 0
6, 4464, Note_on_c, 9, 69, 110
6, 4558, Note_on_c, 9, 69, 0
6, 4608, Note_on_c, 9, 69, 110
6, 4702, Note_on_c, 9, 69, 0
6, 4704, Note_on_c, 9, 69, 110
6, 4798, Note_on_c, 9, 69, 0
6, 4848, Note_on_c, 9, 69, 110
6, 4942, Note_on_c, 9, 69, 0
6, 4944, Note_on_c, 9, 69, 110
6, 5038, Note_on_c, 9, 69, 0
6, 5088, Note_on_c, 9, 69, 110
6, 5182, Note_on_c, 9, 69, 0
6, 5232, Note_on_c, 9, 69, 110
6, 5326, Note_on_c, 9, 69, 0
6, 6144, Note_on_c, 9, 69, 110
6, 6238, Note_on_c, 9, 69, 0
6, 6240, Note_on_c, 9, 69, 110
6, 6334, Note_on_c, 9, 69, 0
6, 6384, Note_on_c, 9, 69, 110
6, 6478, Note_on_c, 9, 69, 0
6, 6480, Note_on_c, 9, 69, 110
6, 6574, Note_on_c, 9, 69, 0
6, 6624, Note_on_c, 9, 69, 110
6, 6718, Note_on_c, 9, 69, 0
6, 6768, Note_on_c, 9, 69, 110
6, 6862, Note_on_c, 9, 69, 0
6, 6912, Note_on_c, 9, 69, 110
6, 7006, Note_on_c, 9, 69, 0
6, 7008, Note_on_c, 9, 69, 110
6, 7102, Note_on_c, 9, 69, 0
6, 7152, Note_on_c, 9, 69, 110
6, 7246, Note_on_c, 9, 69, 0
6, 7248, Note_on_c, 9, 69, 110
6, 7342, Note_on_c, 9, 69, 0
6, 7392, Note_on_c, 9, 69, 110
6, 7438, Note_on_c, 9, 69, 0
6, 7440, Note_on_c, 9, 69, 110
6, 7534, Note_on_c, 9, 69, 0
6, 7536, Note_on_c, 9, 69, 110
6, 7630, Note_on_c, 9, 69, 0
6, 7680, Note_on_c, 9, 69, 110
6, 7774, Note_on_c, 9, 69, 0
6, 7776, Note_on_c, 9, 69, 110
6, 7870, Note_on_c, 9, 69, 0
6, 7920, Note_on_c, 9, 69, 110
6, 8014, Note_on_c, 9, 69, 0
6, 8016, Note_on_c, 9, 69, 110
6, 8110, Note_on_c, 9, 69, 0
6, 8160, Note_on_c, 9, 69, 110
6, 8254, Note_on_c, 9, 69, 0
6, 8304, Note_on_c, 9, 69, 110
6, 8398, Note_on_c, 9, 69, 0
6, 8448, Note_on_c, 9, 69, 110
6, 8542, Note_on_c, 9, 69, 0
6, 8544, Note_on_c, 9, 69, 110
6, 8638, Note_on_c, 9, 69, 0
6, 8688, Note_on_c, 9, 69, 110
6, 8782, Note_on_c, 9, 69, 0
6, 8784, Note_on_c, 9, 69, 110
6, 8878, Note_on_c, 9, 69, 0
6, 8928, Note_on_c, 9, 69, 110
6, 8974, Note_on_c, 9, 69, 0
6, 8976, Note_on_c, 9, 69, 110
6, 9070, Note_on_c, 9, 69, 0
6, 9072, Note_on_c, 9, 69, 110
6, 9166, Note_on_c, 9, 69, 0
6, 9216, Note_on_c, 9, 69, 110
6, 9310, Note_on_c, 9, 69, 0
6, 9312, Note_on_c, 9, 69, 110
6, 9406, Note_on_c, 9, 69, 0
6, 9456, Note_on_c, 9, 69, 110
6, 9550, Note_on_c, 9, 69, 0
6, 9552, Note_on_c, 9, 69, 110
6, 9646, Note_on_c, 9, 69, 0
6, 9696, Note_on_c, 9, 69, 110
6, 9790, Note_on_c, 9, 69, 0
6, 9840, Note_on_c, 9, 69, 110
6, 9934, Note_on_c, 9, 69, 0
6, 9984, Note_on_c, 9, 69, 110
6, 10078, Note_on_c, 9, 69, 0
6, 10080, Note_on_c, 9, 69, 110
6, 10174, Note_on_c, 9, 69, 0
6, 10224, Note_on_c, 9, 69, 110
6, 10318, Note_on_c, 9, 69, 0
6, 10320, Note_on_c, 9, 69, 110
6, 10414, Note_on_c, 9, 69, 0
6, 10464, Note_on_c, 9, 69, 110
6, 10510, Note_on_c, 9, 69, 0
6, 10512, Note_on_c, 9, 69, 110
6, 10606, Note_on_c, 9, 69, 0
6, 10608, Note_on_c, 9, 69, 110
6, 10702, Note_on_c, 9, 69, 0
6, 10752, Note_on_c, 9, 69, 110
6, 10846, Note_on_c, 9, 69, 0
6, 10848, Note_on_c, 9, 69, 110
6, 10942, Note_on_c, 9, 69, 0
6, 10992, Note_on_c, 9, 69, 110
6, 11086, Note_on_c, 9, 69, 0
6, 11088, Note_on_c, 9, 69, 110
6, 11182, Note_on_c, 9, 69, 0
6, 11232, Note_on_c, 9, 69, 110
6, 11326, Note_on_c, 9, 69, 0
6, 11376, Note_on_c, 9, 69, 110
6, 11470, Note_on_c, 9, 69, 0
6, 11520, Note_on_c, 9, 69, 110
6, 11614, Note_on_c, 9, 69, 0
6, 11616, Note_on_c, 9, 69, 110
6, 11710, Note_on_c, 9, 69, 0
6, 11760, Note_on_c, 9, 69, 110
6, 11854, Note_on_c, 9, 69, 0
6, 11856, Note_on_c, 9, 69, 110
6, 11950, Note_on_c, 9, 69, 0
6, 12000, Note_on_c, 9, 69, 110
6, 12046, Note_on_c, 9, 69, 0
6, 12048, Note_on_c, 9, 69, 110
6, 12142, Note_on_c, 9, 69, 0
6, 12144, Note_on_c, 9, 69, 110
6, 12238, Note_on_c, 9, 69, 0
6, 12288, Note_on_c, 9, 69, 110
6, 12382, Note_on_c, 9, 69, 0
6, 12384, Note_on_c, 9, 69, 110
6, 12478, Note_on_c, 9, 69, 0
6, 12528, Note_on_c, 9, 69, 110
6, 12622, Note_on_c, 9, 69, 0
6, 12624, Note_on_c, 9, 69, 110
6, 12718, Note_on_c, 9, 69, 0
6, 12768, Note_on_c, 9, 69, 110
6, 12862, Note_on_c, 9, 69, 0
6, 12912, Note_on_c, 9, 69, 110
6, 13006, Note_on_c, 9, 69, 0
6, 13056, Note_on_c, 9, 69, 110
6, 13150, Note_on_c, 9, 69, 0
6, 13152, Note_on_c, 9, 69, 110
6, 13246, Note_on_c, 9, 69, 0
6, 13296, Note_on_c, 9, 69, 110
6, 13390, Note_on_c, 9, 69, 0
6, 13392, Note_on_c, 9, 69, 110
6, 13486, Note_on_c, 9, 69, 0
6, 13536, Note_on_c, 9, 69, 110
6, 13582, Note_on_c, 9, 69, 0
6, 13584, Note_on_c, 9, 69, 110
6, 13678, Note_on_c, 9, 69, 0
6, 13680, Note_on_c, 9, 69, 110
6, 13774, Note_on_c, 9, 69, 0
6, 13824, Note_on_c, 9, 69, 110
6, 13918, Note_on_c, 9, 69, 0
6, 13920, Note_on_c, 9, 69, 110
6, 14014, Note_on_c, 9, 69, 0
6, 14064, Note_on_c, 9, 69, 110
6, 14158, Note_on_c, 9, 69, 0
6, 14160, Note_on_c, 9, 69, 110
6, 14254, Note_on_c, 9, 69, 0
6, 14304, Note_on_c, 9, 69, 110
6, 14398, Note_on_c, 9, 69, 0
6, 14448, Note_on_c, 9, 69, 110
6, 14542, Note_on_c, 9, 69, 0
6, 14592, Note_on_c, 9, 69, 110
6, 14686, Note_on_c, 9, 69, 0
6, 14688, Note_on_c, 9, 69, 110
6, 14782, Note_on_c, 9, 69, 0
6, 14832, Note_on_c, 9, 69, 110
6, 14926, Note_on_c, 9, 69, 0
6, 14928, Note_on_c, 9, 69, 110
6, 15022, Note_on_c, 9, 69, 0
6, 15072, Note_on_c, 9, 69, 110
6, 15118, Note_on_c, 9, 69, 0
6, 15120, Note_on_c, 9, 69, 110
6, 15214, Note_on_c, 9, 69, 0
6, 15216, Note_on_c, 9, 69, 110
6, 15310, Note_on_c, 9, 69, 0
6, 15360, Note_on_c, 9, 69, 110
6, 15454, Note_on_c, 9, 69, 0
6, 15456, Note_on_c, 9, 69, 110
6, 15550, Note_on_c, 9, 69, 0
6, 15600, Note_on_c, 9, 69, 110
6, 15694, Note_on_c, 9, 69, 0
6, 15696, Note_on_c, 9, 69, 110
6, 15790, Note_on_c, 9, 69, 0
6, 15840, Note_on_c, 9, 69, 110
6, 15934, Note_on_c, 9, 69, 0
6, 15984, Note_on_c, 9, 69, 110
6, 16078, Note_on_c, 9, 69, 0
6, 16128, Note_on_c, 9, 69, 110
6, 16222, Note_on_c, 9, 69, 0
6, 16224, Note_on_c, 9, 69, 110
6, 16318, Note_on_c, 9, 69, 0
6, 16368, Note_on_c, 9, 69, 110
6, 16462, Note_on_c, 9, 69, 0
6, 16464, Note_on_c, 9, 69, 110
6, 16558, Note_on_c, 9, 69, 0
6, 16608, Note_on_c, 9, 69, 110
6, 16654, Note_on_c, 9, 69, 0
6, 16656, Note_on_c, 9, 69, 110
6, 16750, Note_on_c, 9, 69, 0
6, 16752, Note_on_c, 9, 69, 110
6, 16846, Note_on_c, 9, 69, 0
6, 16896, Note_on_c, 9, 69, 110
6, 16990, Note_on_c, 9, 69, 0
6, 16992, Note_on_c, 9, 69, 110
6, 17086, Note_on_c, 9, 69, 0
6, 17136, Note_on_c, 9, 69, 110
6, 17230, Note_on_c, 9, 69, 0
6, 17232, Note_on_c, 9, 69, 110
6, 17326, Note_on_c, 9, 69, 0
6, 17376, Note_on_c, 9, 69, 110
6, 17470, Note_on_c, 9, 69, 0
6, 17520, Note_on_c, 9, 69, 110
6, 17614, Note_on_c, 9, 69, 0
6, 17664, Note_on_c, 9, 69, 110
6, 17758, Note_on_c, 9, 69, 0
6, 17760, Note_on_c, 9, 69, 110
6, 17854, Note_on_c, 9, 69, 0
6, 17904, Note_on_c, 9, 69, 110
6, 17998, Note_on_c, 9, 69, 0
6, 18000, Note_on_c, 9, 69, 110
6, 18094, Note_on_c, 9, 69, 0
6, 18144, Note_on_c, 9, 69, 110
6, 18190, Note_on_c, 9, 69, 0
6, 18192, Note_on_c, 9, 69, 110
6, 18286, Note_on_c, 9, 69, 0
6, 18288, Note_on_c, 9, 69, 110
6, 18382, Note_on_c, 9, 69, 0
6, 18432, Note_on_c, 9, 69, 110
6, 18526, Note_on_c, 9, 69, 0
6, 18528, Note_on_c, 9, 69, 110
6, 18622, Note_on_c, 9, 69, 0
6, 18672, Note_on_c, 9, 69, 110
6, 18766, Note_on_c, 9, 69, 0
6, 18768, Note_on_c, 9, 69, 110
6, 18862, Note_on_c, 9, 69, 0
6, 18912, Note_on_c, 9, 69, 110
6, 19006, Note_on_c, 9, 69, 0
6, 19056, Note_on_c, 9, 69, 110
6, 19150, Note_on_c, 9, 69, 0
6, 19200, Note_on_c, 9, 69, 110
6, 19294, Note_on_c, 9, 69, 0
6, 19296, Note_on_c, 9, 69, 110
6, 19390, Note_on_c, 9, 69, 0
6, 19440, Note_on_c, 9, 69, 110
6, 19534, Note_on_c, 9, 69, 0
6, 19536, Note_on_c, 9, 69, 110
6, 19630, Note_on_c, 9, 69, 0
6, 19680, Note_on_c, 9, 69, 110
6, 19726, Note_on_c, 9, 69, 0
6, 19728, Note_on_c, 9, 69, 110
6, 19822, Note_on_c, 9, 69, 0
6, 19824, Note_on_c, 9, 69, 110
6, 19918, Note_on_c, 9, 69, 0
6, 19968, Note_on_c, 9, 69, 110
6, 20062, Note_on_c, 9, 69, 0
6, 20064, Note_on_c, 9, 69, 110
6, 20158, Note_on_c, 9, 69, 0
6, 20208, Note_on_c, 9, 69, 110
6, 20302, Note_on_c, 9, 69, 0
6, 20304, Note_on_c, 9, 69, 110
6, 20398, Note_on_c, 9, 69, 0
6, 20448, Note_on_c, 9, 69, 110
6, 20542, Note_on_c, 9, 69, 0
6, 20592, Note_on_c, 9, 69, 110
6, 20686, Note_on_c, 9, 69, 0
6, 20736, Note_on_c, 9, 69, 110
6, 20830, Note_on_c, 9, 69, 0
6, 20832, Note_on_c, 9, 69, 110
6, 20926, Note_on_c, 9, 69, 0
6, 20976, Note_on_c, 9, 69, 110
6, 21070, Note_on_c, 9, 69, 0
6, 21072, Note_on_c, 9, 69, 110
6, 21166, Note_on_c, 9, 69, 0
6, 21216, Note_on_c, 9, 69, 110
6, 21262, Note_on_c, 9, 69, 0
6, 21264, Note_on_c, 9, 69, 110
6, 21358, Note_on_c, 9, 69, 0
6, 21360, Note_on_c, 9, 69, 110
6, 21454, Note_on_c, 9, 69, 0
6, 21504, Note_on_c, 9, 69, 110
6, 21598, Note_on_c, 9, 69, 0
6, 21600, Note_on_c, 9, 69, 110
6, 21694, Note_on_c, 9, 69, 0
6, 21744, Note_on_c, 9, 69, 110
6, 21838, Note_on_c, 9, 69, 0
6, 21840, Note_on_c, 9, 69, 110
6, 21934, Note_on_c, 9, 69, 0
6, 21984, Note_on_c, 9, 69, 110
6, 22078, Note_on_c, 9, 69, 0
6, 22128, Note_on_c, 9, 69, 110
6, 22222, Note_on_c, 9, 69, 0
6, 22272, Note_on_c, 9, 69, 110
6, 22366, Note_on_c, 9, 69, 0
6, 22368, Note_on_c, 9, 69, 110
6, 22462, Note_on_c, 9, 69, 0
6, 22512, Note_on_c, 9, 69, 110
6, 22606, Note_on_c, 9, 69, 0
6, 22608, Note_on_c, 9, 69, 110
6, 22702, Note_on_c, 9, 69, 0
6, 22752, Note_on_c, 9, 69, 110
6, 22798, Note_on_c, 9, 69, 0
6, 22800, Note_on_c, 9, 69, 110
6, 22894, Note_on_c, 9, 69, 0
6, 22896, Note_on_c, 9, 69, 110
6, 22990, Note_on_c, 9, 69, 0
6, 23040, Note_on_c, 9, 69, 110
6, 23134, Note_on_c, 9, 69, 0
6, 23136, Note_on_c, 9, 69, 110
6, 23230, Note_on_c, 9, 69, 0
6, 23280, Note_on_c, 9, 69, 110
6, 23374, Note_on_c, 9, 69, 0
6, 23376, Note_on_c, 9, 69, 110
6, 23470, Note_on_c, 9, 69, 0
6, 23520, Note_on_c, 9, 69, 110
6, 23614, Note_on_c, 9, 69, 0
6, 23664, Note_on_c, 9, 69, 110
6, 23758, Note_on_c, 9, 69, 0
6, 23808, Note_on_c, 9, 69, 110
6, 23902, Note_on_c, 9, 69, 0
6, 23904, Note_on_c, 9, 69, 110
6, 23998, Note_on_c, 9, 69, 0
6, 24048, Note_on_c, 9, 69, 110
6, 24142, Note_on_c, 9, 69, 0
6, 24144, Note_on_c, 9, 69, 110
6, 24238, Note_on_c, 9, 69, 0
6, 24288, Note_on_c, 9, 69, 110
6, 24334, Note_on_c, 9, 69, 0
6, 24336, Note_on_c, 9, 69, 110
6, 24430, Note_on_c, 9, 69, 0
6, 24432, Note_on_c, 9, 69, 110
6, 24526, Note_on_c, 9, 69, 0
6, 24576, Note_on_c, 9, 69, 110
6, 24670, Note_on_c, 9, 69, 0
6, 24672, Note_on_c, 9, 69, 110
6, 24766, Note_on_c, 9, 69, 0
6, 24816, Note_on_c, 9, 69, 110
6, 24910, Note_on_c, 9, 69, 0
6, 24912, Note_on_c, 9, 69, 110
6, 25006, Note_on_c, 9, 69, 0
6, 25056, Note_on_c, 9, 69, 110
6, 25150, Note_on_c, 9, 69, 0
6, 25200, Note_on_c, 9, 69, 110
6, 25294, Note_on_c, 9, 69, 0
6, 25344, Note_on_c, 9, 69, 110
6, 25438, Note_on_c, 9, 69, 0
6, 25440, Note_on_c, 9, 69, 110
6, 25534, Note_on_c, 9, 69, 0
6, 25584, Note_on_c, 9, 69, 110
6, 25678, Note_on_c, 9, 69, 0
6, 25680, Note_on_c, 9, 69, 110
6, 25774, Note_on_c, 9, 69, 0
6, 25824, Note_on_c, 9, 69, 110
6, 25870, Note_on_c, 9, 69, 0
6, 25872, Note_on_c, 9, 69, 110
6, 25966, Note_on_c, 9, 69, 0
6, 25968, Note_on_c, 9, 69, 110
6, 26062, Note_on_c, 9, 69, 0
6, 26112, Note_on_c, 9, 69, 110
6, 26206, Note_on_c, 9, 69, 0
6, 26208, Note_on_c, 9, 69, 110
6, 26302, Note_on_c, 9, 69, 0
6, 26352, Note_on_c, 9, 69, 110
6, 26446, Note_on_c, 9, 69, 0
6, 26448, Note_on_c, 9, 69, 110
6, 26542, Note_on_c, 9, 69, 0
6, 26592, Note_on_c, 9, 69, 110
6, 26686, Note_on_c, 9, 69, 0
6, 26736, Note_on_c, 9, 69, 110
6, 26830, Note_on_c, 9, 69, 0
6, 26880, Note_on_c, 9, 69, 110
6, 26974, Note_on_c, 9, 69, 0
6, 26976, Note_on_c, 9, 69, 110
6, 27070, Note_on_c, 9, 69, 0
6, 27120, Note_on_c, 9, 69, 110
6, 27214, Note_on_c, 9, 69, 0
6, 27216, Note_on_c, 9, 69, 110
6, 27310, Note_on_c, 9, 69, 0
6, 27360, Note_on_c, 9, 69, 110
6, 27406, Note_on_c, 9, 69, 0
6, 27408, Note_on_c, 9, 69, 110
6, 27502, Note_on_c, 9, 69, 0
6, 27504, Note_on_c, 9, 69, 110
6, 27598, Note_on_c, 9, 69, 0
6, 27648, Note_on_c, 9, 69, 110
6, 27742, Note_on_c, 9, 69, 0
6, 27744, Note_on_c, 9, 69, 110
6, 27838, Note_on_c, 9, 69, 0
6, 27888, Note_on_c, 9, 69, 110
6, 27982, Note_on_c, 9, 69, 0
6, 27984, Note_on_c, 9, 69, 110
6, 28078, Note_on_c, 9, 69, 0
6, 28128, Note_on_c, 9, 69, 110
6, 28222, Note_on_c, 9, 69, 0
6, 28272, Note_on_c, 9, 69, 110
6, 28366, Note_on_c, 9, 69, 0
6, 28416, Note_on_c, 9, 69, 110
6, 28510, Note_on_c, 9, 69, 0
6, 28512, Note_on_c, 9, 69, 110
6, 28606, Note_on_c, 9, 69, 0
6, 28656, Note_on_c, 9, 69, 110
6, 28750, Note_on_c, 9, 69, 0
6, 28752, Note_on_c, 9, 69, 110
6, 28846, Note_on_c, 9, 69, 0
6, 28896, Note_on_c, 9, 69, 110
6, 28942, Note_on_c, 9, 69, 0
6, 28944, Note_on_c, 9, 69, 110
6, 29038, Note_on_c, 9, 69, 0
6, 29040, Note_on_c, 9, 69, 110
6, 29134, Note_on_c, 9, 69, 0
6, 29184, Note_on_c, 9, 69, 110
6, 29278, Note_on_c, 9, 69, 0
6, 29280, Note_on_c, 9, 69, 110
6, 29374, Note_on_c, 9, 69, 0
6, 29424, Note_on_c, 9, 69, 110
6, 29518, Note_on_c, 9, 69, 0
6, 29520, Note_on_c, 9, 69, 110
6, 29614, Note_on_c, 9, 69, 0
6, 29664, Note_on_c, 9, 69, 110
6, 29758, Note_on_c, 9, 69, 0
6, 29808, Note_on_c, 9, 69, 110
6, 29902, Note_on_c, 9, 69, 0
6, 29952, Note_on_c, 9, 69, 110
6, 30046, Note_on_c, 9, 69, 0
6, 30048, Note_on_c, 9, 69, 110
6, 30142, Note_on_c, 9, 69, 0
6, 30192, Note_on_c, 9, 69, 110
6, 30286, Note_on_c, 9, 69, 0
6, 30288, Note_on_c, 9, 69, 110
6, 30382, Note_on_c, 9, 69, 0
6, 30432, Note_on_c, 9, 69, 110
6, 30478, Note_on_c, 9, 69, 0
6, 30480, Note_on_c, 9, 69, 110
6, 30574, Note_on_c, 9, 69, 0
6, 30576, Note_on_c, 9, 69, 110
6, 30670, Note_on_c, 9, 69, 0
6, 30720, Note_on_c, 9, 69, 110
6, 30814, Note_on_c, 9, 69, 0
6, 30816, Note_on_c, 9, 69, 110
6, 30910, Note_on_c, 9, 69, 0
6, 30960, Note_on_c, 9, 69, 110
6, 31054, Note_on_c, 9, 69, 0
6, 31056, Note_on_c, 9, 69, 110
6, 31150, Note_on_c, 9, 69, 0
6, 31200, Note_on_c, 9, 69, 110
6, 31294, Note_on_c, 9, 69, 0
6, 31344, Note_on_c, 9, 69, 110
6, 31438, Note_on_c, 9, 69, 0
6, 31488, Note_on_c, 9, 69, 110
6, 31582, Note_on_c, 9, 69, 0
6, 31584, Note_on_c, 9, 69, 110
6, 31678, Note_on_c, 9, 69, 0
6, 31728, Note_on_c, 9, 69, 110
6, 31822, Note_on_c, 9, 69, 0
6, 31824, Note_on_c, 9, 69, 110
6, 31918, Note_on_c, 9, 69, 0
6, 31968, Note_on_c, 9, 69, 110
6, 32014, Note_on_c, 9, 69, 0
6, 32016, Note_on_c, 9, 69, 110
6, 32110, Note_on_c, 9, 69, 0
6, 32112, Note_on_c, 9, 69, 110
6, 32206, Note_on_c, 9, 69, 0
6, 32256, Note_on_c, 9, 69, 110
6, 32350, Note_on_c, 9, 69, 0
6, 32352, Note_on_c, 9, 69, 110
6, 32446, Note_on_c, 9, 69, 0
6, 32496, Note_on_c, 9, 69, 110
6, 32590, Note_on_c, 9, 69, 0
6, 32592, Note_on_c, 9, 69, 110
6, 32686, Note_on_c, 9, 69, 0
6, 32736, Note_on_c, 9, 69, 110
6, 32830, Note_on_c, 9, 69, 0
6, 32880, Note_on_c, 9, 69, 110
6, 32974, Note_on_c, 9, 69, 0
6, 33024, Note_on_c, 9, 69, 110
6, 33118, Note_on_c, 9, 69, 0
6, 33120, Note_on_c, 9, 69, 110
6, 33214, Note_on_c, 9, 69, 0
6, 33264, Note_on_c, 9, 69, 110
6, 33358, Note_on_c, 9, 69, 0
6, 33360, Note_on_c, 9, 69, 110
6, 33454, Note_on_c, 9, 69, 0
6, 33504, Note_on_c, 9, 69, 110
6, 33550, Note_on_c, 9, 69, 0
6, 33552, Note_on_c, 9, 69, 110
6, 33646, Note_on_c, 9, 69, 0
6, 33648, Note_on_c, 9, 69, 110
6, 33742, Note_on_c, 9, 69, 0
6, 33792, Note_on_c, 9, 69, 110
6, 33886, Note_on_c, 9, 69, 0
6, 33888, Note_on_c, 9, 69, 110
6, 33982, Note_on_c, 9, 69, 0
6, 34032, Note_on_c, 9, 69, 110
6, 34126, Note_on_c, 9, 69, 0
6, 34128, Note_on_c, 9, 69, 110
6, 34222, Note_on_c, 9, 69, 0
6, 34272, Note_on_c, 9, 69, 110
6, 34366, Note_on_c, 9, 69, 0
6, 34416, Note_on_c, 9, 69, 110
6, 34510, Note_on_c, 9, 69, 0
6, 34560, Note_on_c, 9, 69, 110
6, 34654, Note_on_c, 9, 69, 0
6, 34656, Note_on_c, 9, 69, 110
6, 34750, Note_on_c, 9, 69, 0
6, 34800, Note_on_c, 9, 69, 110
6, 34894, Note_on_c, 9, 69, 0
6, 34896, Note_on_c, 9, 69, 110
6, 34990, Note_on_c, 9, 69, 0
6, 35040, Note_on_c, 9, 69, 110
6, 35086, Note_on_c, 9, 69, 0
6, 35088, Note_on_c, 9, 69, 110
6, 35182, Note_on_c, 9, 69, 0
6, 35184, Note_on_c, 9, 69, 110
6, 35278, Note_on_c, 9, 69, 0
6, 35328, Note_on_c, 9, 69, 110
6, 35422, Note_on_c, 9, 69, 0
6, 35424, Note_on_c, 9, 69, 110
6, 35518, Note_on_c, 9, 69, 0
6, 35568, Note_on_c, 9, 69, 110
6, 35662, Note_on_c, 9, 69, 0
6, 35664, Note_on_c, 9, 69, 110
6, 35758, Note_on_c, 9, 69, 0
6, 35808, Note_on_c, 9, 69, 110
6, 35902, Note_on_c, 9, 69, 0
6, 35952, Note_on_c, 9, 69, 110
6, 36046, Note_on_c, 9, 69, 0
6, 36096, Note_on_c, 9, 69, 110
6, 36190, Note_on_c, 9, 69, 0
6, 36192, Note_on_c, 9, 69, 110
6, 36286, Note_on_c, 9, 69, 0
6, 36336, Note_on_c, 9, 69, 110
6, 36430, Note_on_c, 9, 69, 0
6, 36432, Note_on_c, 9, 69, 110
6, 36526, Note_on_c, 9, 69, 0
6, 36576, Note_on_c, 9, 69, 110
6, 36622, Note_on_c, 9, 69, 0
6, 36624, Note_on_c, 9, 69, 110
6, 36718, Note_on_c, 9, 69, 0
6, 36720, Note_on_c, 9, 69, 110
6, 36814, Note_on_c, 9, 69, 0
6, 36864, Note_on_c, 9, 69, 110
6, 36958, Note_on_c, 9, 69, 0
6, 36960, Note_on_c, 9, 69, 110
6, 37054, Note_on_c, 9, 69, 0
6, 37104, Note_on_c, 9, 69, 110
6, 37198, Note_on_c, 9, 69, 0
6, 37200, Note_on_c, 9, 69, 110
6, 37294, Note_on_c, 9, 69, 0
6, 37344, Note_on_c, 9, 69, 110
6, 37438, Note_on_c, 9, 69, 0
6, 37488, Note_on_c, 9, 69, 110
6, 37582, Note_on_c, 9, 69, 0
6, 37632, Note_on_c, 9, 69, 110
6, 37726, Note_on_c, 9, 69, 0
6, 37728, Note_on_c, 9, 69, 110
6, 37822, Note_on_c, 9, 69, 0
6, 37872, Note_on_c, 9, 69, 110
6, 37966, Note_on_c, 9, 69, 0
6, 37968, Note_on_c, 9, 69, 110
6, 38062, Note_on_c, 9, 69, 0
6, 38112, Note_on_c, 9, 69, 110
6, 38158, Note_on_c, 9, 69, 0
6, 38160, Note_on_c, 9, 69, 110
6, 38254, Note_on_c, 9, 69, 0
6, 38256, Note_on_c, 9, 69, 110
6, 38350, Note_on_c, 9, 69, 0
6, 38400, Note_on_c, 9, 69, 110
6, 38494, Note_on_c, 9, 69, 0
6, 38496, Note_on_c, 9, 69, 110
6, 38590, Note_on_c, 9, 69, 0
6, 38640, Note_on_c, 9, 69, 110
6, 38734, Note_on_c, 9, 69, 0
6, 38736, Note_on_c, 9, 69, 110
6, 38830, Note_on_c, 9, 69, 0
6, 38880, Note_on_c, 9, 69, 110
6, 38974, Note_on_c, 9, 69, 0
6, 39024, Note_on_c, 9, 69, 110
6, 39118, Note_on_c, 9, 69, 0
6, 39168, Note_on_c, 9, 69, 110
6, 39262, Note_on_c, 9, 69, 0
6, 39264, Note_on_c, 9, 69, 110
6, 39358, Note_on_c, 9, 69, 0
6, 39408, Note_on_c, 9, 69, 110
6, 39502, Note_on_c, 9, 69, 0
6, 39504, Note_on_c, 9, 69, 110
6, 39598, Note_on_c, 9, 69, 0
6, 39648, Note_on_c, 9, 69, 110
6, 39694, Note_on_c, 9, 69, 0
6, 39696, Note_on_c, 9, 69, 110
6, 39790, Note_on_c, 9, 69, 0
6, 39792, Note_on_c, 9, 69, 110
6, 39886, Note_on_c, 9, 69, 0
6, 39936, Note_on_c, 9, 69, 110
6, 40030, Note_on_c, 9, 69, 0
6, 40032, Note_on_c, 9, 69, 110
6, 40126, Note_on_c, 9, 69, 0
6, 40176, Note_on_c, 9, 69, 110
6, 40270, Note_on_c, 9, 69, 0
6, 40272, Note_on_c, 9, 69, 110
6, 40366, Note_on_c, 9, 69, 0
6, 40416, Note_on_c, 9, 69, 110
6, 40510, Note_on_c, 9, 69, 0
6, 40560, Note_on_c, 9, 69, 110
6, 40654, Note_on_c, 9, 69, 0
6, 40704, Note_on_c, 9, 69, 110
6, 40798, Note_on_c, 9, 69, 0
6, 40800, Note_on_c, 9, 69, 110
6, 40894, Note_on_c, 9, 69, 0
6, 40944, Note_on_c, 9, 69, 110
6, 41038, Note_on_c, 9, 69, 0
6, 41040, Note_on_c, 9, 69, 110
6, 41134, Note_on_c, 9, 69, 0
6, 41184, Note_on_c, 9, 69, 110
6, 41230, Note_on_c, 9, 69, 0
6, 41232, Note_on_c, 9, 69, 110
6, 41326, Note_on_c, 9, 69, 0
6, 41328, Note_on_c, 9, 69, 110
6, 41422, Note_on_c, 9, 69, 0
6, 41472, Note_on_c, 9, 69, 110
6, 41566, Note_on_c, 9, 69, 0
6, 41568, Note_on_c, 9, 69, 110
6, 41662, Note_on_c, 9, 69, 0
6, 41712, Note_on_c, 9, 69, 110
6, 41806, Note_on_c, 9, 69, 0
6, 41808, Note_on_c, 9, 69, 110
6, 41902, Note_on_c, 9, 69, 0
6, 41952, Note_on_c, 9, 69, 110
6, 42046, Note_on_c, 9, 69, 0
6, 42096, Note_on_c, 9, 69, 110
6, 42190, Note_on_c, 9, 69, 0
6, 42240, Note_on_c, 9, 69, 110
6, 42334, Note_on_c, 9, 69, 0
6, 42336, Note_on_c, 9, 69, 110
6, 42430, Note_on_c, 9, 69, 0
6, 42480, Note_on_c, 9, 69, 110
6, 42574, Note_on_c, 9, 69, 0
6, 42576, Note_on_c, 9, 69, 110
6, 42670, Note_on_c, 9, 69, 0
6, 42720, Note_on_c, 9, 69, 110
6, 42766, Note_on_c, 9, 69, 0
6, 42768, Note_on_c, 9, 69, 110
6, 42862, Note_on_c, 9, 69, 0
6, 42864, Note_on_c, 9, 69, 110
6, 42958, Note_on_c, 9, 69, 0
6, 43008, Note_on_c, 9, 69, 110
6, 43102, Note_on_c, 9, 69, 0
6, 43104, Note_on_c, 9, 69, 110
6, 43198, Note_on_c, 9, 69, 0
6, 43248, Note_on_c, 9, 69, 110
6, 43342, Note_on_c, 9, 69, 0
6, 43344, Note_on_c, 9, 69, 110
6, 43438, Note_on_c, 9, 69, 0
6, 43488, Note_on_c, 9, 69, 110
6, 43582, Note_on_c, 9, 69, 0
6, 43632, Note_on_c, 9, 69, 110
6, 43726, Note_on_c, 9, 69, 0
6, 43776, Note_on_c, 9, 69, 110
6, 43870, Note_on_c, 9, 69, 0
6, 43872, Note_on_c, 9, 69, 110
6, 43966, Note_on_c, 9, 69, 0
6, 44016, Note_on_c, 9, 69, 110
6, 44110, Note_on_c, 9, 69, 0
6, 44112, Note_on_c, 9, 69, 110
6, 44206, Note_on_c, 9, 69, 0
6, 44256, Note_on_c, 9, 69, 110
6, 44302, Note_on_c, 9, 69, 0
6, 44304, Note_on_c, 9, 69, 110
6, 44398, Note_on_c, 9, 69, 0
6, 44400, Note_on_c, 9, 69, 110
6, 44494, Note_on_c, 9, 69, 0
6, 44544, Note_on_c, 9, 69, 110
6, 44638, Note_on_c, 9, 69, 0
6, 44640, Note_on_c, 9, 69, 110
6, 44734, Note_on_c, 9, 69, 0
6, 44784, Note_on_c, 9, 69, 110
6, 44878, Note_on_c, 9, 69, 0
6, 44880, Note_on_c, 9, 69, 110
6, 44974, Note_on_c, 9, 69, 0
6, 45024, Note_on_c, 9, 69, 110
6, 45118, Note_on_c, 9, 69, 0
6, 45168, Note_on_c, 9, 69, 110
6, 45262, Note_on_c, 9, 69, 0
6, 45312, Note_on_c, 9, 69, 110
6, 45406, Note_on_c, 9, 69, 0
6, 45408, Note_on_c, 9, 69, 110
6, 45502, Note_on_c, 9, 69, 0
6, 45552, Note_on_c, 9, 69, 110
6, 45646, Note_on_c, 9, 69, 0
6, 45648, Note_on_c, 9, 69, 110
6, 45742, Note_on_c, 9, 69, 0
6, 45792, Note_on_c, 9, 69, 110
6, 45838, Note_on_c, 9, 69, 0
6, 45840, Note_on_c, 9, 69, 110
6, 45934, Note_on_c, 9, 69, 0
6, 45936, Note_on_c, 9, 69, 110
6, 46030, Note_on_c, 9, 69, 0
6, 47616, Note_on_c, 9, 69, 110
6, 47710, Note_on_c, 9, 69, 0
6, 47712, Note_on_c, 9, 69, 110
6, 47806, Note_on_c, 9, 69, 0
6, 47856, Note_on_c, 9, 69, 110
6, 47950, Note_on_c, 9, 69, 0
6, 47952, Note_on_c, 9, 69, 110
6, 48046, Note_on_c, 9, 69, 0
6, 48096, Note_on_c, 9, 69, 110
6, 48190, Note_on_c, 9, 69, 0
6, 48240, Note_on_c, 9, 69, 110
6, 48334, Note_on_c, 9, 69, 0
6, 48384, Note_on_c, 9, 69, 110
6, 48478, Note_on_c, 9, 69, 0
6, 48480, Note_on_c, 9, 69, 110
6, 48574, Note_on_c, 9, 69, 0
6, 48624, Note_on_c, 9, 69, 110
6, 48718, Note_on_c, 9, 69, 0
6, 48720, Note_on_c, 9, 69, 110
6, 48814, Note_on_c, 9, 69, 0
6, 48864, Note_on_c, 9, 69, 110
6, 48910, Note_on_c, 9, 69, 0
6, 48912, Note_on_c, 9, 69, 110
6, 49006, Note_on_c, 9, 69, 0
6, 49008, Note_on_c, 9, 69, 110
6, 49102, Note_on_c, 9, 69, 0
6, 49152, Note_on_c, 9, 69, 110
6, 49246, Note_on_c, 9, 69, 0
6, 49248, Note_on_c, 9, 69, 110
6, 49342, Note_on_c, 9, 69, 0
6, 49392, Note_on_c, 9, 69, 110
6, 49486, Note_on_c, 9, 69, 0
6, 49488, Note_on_c, 9, 69, 110
6, 49582, Note_on_c, 9, 69, 0
6, 49632, Note_on_c, 9, 69, 110
6, 49726, Note_on_c, 9, 69, 0
6, 49776, Note_on_c, 9, 69, 110
6, 49870, Note_on_c, 9, 69, 0
6, 49920, Note_on_c, 9, 69, 110
6, 50014, Note_on_c, 9, 69, 0
6, 50016, Note_on_c, 9, 69, 110
6, 50110, Note_on_c, 9, 69, 0
6, 50160, Note_on_c, 9, 69, 110
6, 50254, Note_on_c, 9, 69, 0
6, 50256, Note_on_c, 9, 69, 110
6, 50350, Note_on_c, 9, 69, 0
6, 50400, Note_on_c, 9, 69, 110
6, 50446, Note_on_c, 9, 69, 0
6, 50448, Note_on_c, 9, 69, 110
6, 50542, Note_on_c, 9, 69, 0
6, 50544, Note_on_c, 9, 69, 110
6, 50638, Note_on_c, 9, 69, 0
6, 50688, Note_on_c, 9, 69, 110
6, 50782, Note_on_c, 9, 69, 0
6, 50784, Note_on_c, 9, 69, 110
6, 50878, Note_on_c, 9, 69, 0
6, 50928, Note_on_c, 9, 69, 110
6, 51022, Note_on_c, 9, 69, 0
6, 51024, Note_on_c, 9, 69, 110
6, 51118, Note_on_c, 9, 69, 0
6, 51168, Note_on_c, 9, 69, 110
6, 51262, Note_on_c, 9, 69, 0
6, 51312, Note_on_c, 9, 69, 110
6, 51406, Note_on_c, 9, 69, 0
6, 51456, Note_on_c, 9, 69, 110
6, 51550, Note_on_c, 9, 69, 0
6, 51552, Note_on_c, 9, 69, 110
6, 51646, Note_on_c, 9, 69, 0
6, 51696, Note_on_c, 9, 69, 110
6, 51790, Note_on_c, 9, 69, 0
6, 51792, Note_on_c, 9, 69, 110
6, 51886, Note_on_c, 9, 69, 0
6, 51936, Note_on_c, 9, 69, 110
6, 51982, Note_on_c, 9, 69, 0
6, 51984, Note_on_c, 9, 69, 110
6, 52078, Note_on_c, 9, 69, 0
6, 52080, Note_on_c, 9, 69, 110
6, 52174, Note_on_c, 9, 69, 0
6, 52224, Note_on_c, 9, 69, 110
6, 52318, Note_on_c, 9, 69, 0
6, 52320, Note_on_c, 9, 69, 110
6, 52414, Note_on_c, 9, 69, 0
6, 52464, Note_on_c, 9, 69, 110
6, 52558, Note_on_c, 9, 69, 0
6, 52560, Note_on_c, 9, 69, 110
6, 52654, Note_on_c, 9, 69, 0
6, 52704, Note_on_c, 9, 69, 110
6, 52798, Note_on_c, 9, 69, 0
6, 52848, Note_on_c, 9, 69, 110
6, 52942, Note_on_c, 9, 69, 0
6, 52992, Note_on_c, 9, 69, 110
6, 53086, Note_on_c, 9, 69, 0
6, 53088, Note_on_c, 9, 69, 110
6, 53182, Note_on_c, 9, 69, 0
6, 53232, Note_on_c, 9, 69, 110
6, 53326, Note_on_c, 9, 69, 0
6, 53328, Note_on_c, 9, 69, 110
6, 53422, Note_on_c, 9, 69, 0
6, 53472, Note_on_c, 9, 69, 110
6, 53518, Note_on_c, 9, 69, 0
6, 53520, Note_on_c, 9, 69, 110
6, 53614, Note_on_c, 9, 69, 0
6, 53616, Note_on_c, 9, 69, 110
6, 53710, Note_on_c, 9, 69, 0
6, 53760, Note_on_c, 9, 69, 110
6, 53854, Note_on_c, 9, 69, 0
6, 53856, Note_on_c, 9, 69, 110
6, 53950, Note_on_c, 9, 69, 0
6, 54000, Note_on_c, 9, 69, 110
6, 54094, Note_on_c, 9, 69, 0
6, 54096, Note_on_c, 9, 69, 110
6, 54190, Note_on_c, 9, 69, 0
6, 54240, Note_on_c, 9, 69, 110
6, 54334, Note_on_c, 9, 69, 0
6, 54384, Note_on_c, 9, 69, 110
6, 54478, Note_on_c, 9, 69, 0
6, 54528, Note_on_c, 9, 69, 110
6, 54622, Note_on_c, 9, 69, 0
6, 54624, Note_on_c, 9, 69, 110
6, 54718, Note_on_c, 9, 69, 0
6, 54768, Note_on_c, 9, 69, 110
6, 54862, Note_on_c, 9, 69, 0
6, 54864, Note_on_c, 9, 69, 110
6, 54958, Note_on_c, 9, 69, 0
6, 55008, Note_on_c, 9, 69, 110
6, 55054, Note_on_c, 9, 69, 0
6, 55056, Note_on_c, 9, 69, 110
6, 55150, Note_on_c, 9, 69, 0
6, 55152, Note_on_c, 9, 69, 110
6, 55246, Note_on_c, 9, 69, 0
6, 55296, Note_on_c, 9, 69, 110
6, 55390, Note_on_c, 9, 69, 0
6, 55392, Note_on_c, 9, 69, 110
6, 55486, Note_on_c, 9, 69, 0
6, 55536, Note_on_c, 9, 69, 110
6, 55630, Note_on_c, 9, 69, 0
6, 55632, Note_on_c, 9, 69, 110
6, 55726, Note_on_c, 9, 69, 0
6, 55776, Note_on_c, 9, 69, 110
6, 55870, Note_on_c, 9, 69, 0
6, 55920, Note_on_c, 9, 69, 110
6, 56014, Note_on_c, 9, 69, 0
6, 56064, Note_on_c, 9, 69, 110
6, 56158, Note_on_c, 9, 69, 0
6, 56160, Note_on_c, 9, 69, 110
6, 56254, Note_on_c, 9, 69, 0
6, 56304, Note_on_c, 9, 69, 110
6, 56398, Note_on_c, 9, 69, 0
6, 56400, Note_on_c, 9, 69, 110
6, 56494, Note_on_c, 9, 69, 0
6, 56544, Note_on_c, 9, 69, 110
6, 56590, Note_on_c, 9, 69, 0
6, 56592, Note_on_c, 9, 69, 110
6, 56686, Note_on_c, 9, 69, 0
6, 56688, Note_on_c, 9, 69, 110
6, 56782, Note_on_c, 9, 69, 0
6, 56832, Note_on_c, 9, 69, 110
6, 56926, Note_on_c, 9, 69, 0
6, 56928, Note_on_c, 9, 69, 110
6, 57022, Note_on_c, 9, 69, 0
6, 57072, Note_on_c, 9, 69, 110
6, 57166, Note_on_c, 9, 69, 0
6, 57168, Note_on_c, 9, 69, 110
6, 57262, Note_on_c, 9, 69, 0
6, 57312, Note_on_c, 9, 69, 110
6, 57406, Note_on_c, 9, 69, 0
6, 57456, Note_on_c, 9, 69, 110
6, 57550, Note_on_c, 9, 69, 0
6, 57600, Note_on_c, 9, 69, 110
6, 57694, Note_on_c, 9, 69, 0
6, 57696, Note_on_c, 9, 69, 110
6, 57790, Note_on_c, 9, 69, 0
6, 57840, Note_on_c, 9, 69, 110
6, 57934, Note_on_c, 9, 69, 0
6, 57936, Note_on_c, 9, 69, 110
6, 58030, Note_on_c, 9, 69, 0
6, 58080, Note_on_c, 9, 69, 110
6, 58126, Note_on_c, 9, 69, 0
6, 58128, Note_on_c, 9, 69, 110
6, 58222, Note_on_c, 9, 69, 0
6, 58224, Note_on_c, 9, 69, 110
6, 58318, Note_on_c, 9, 69, 0
6, 58368, Note_on_c, 9, 69, 110
6, 58462, Note_on_c, 9, 69, 0
6, 58464, Note_on_c, 9, 69, 110
6, 58558, Note_on_c, 9, 69, 0
6, 58608, Note_on_c, 9, 69, 110
6, 58702, Note_on_c, 9, 69, 0
6, 58704, Note_on_c, 9, 69, 110
6, 58798, Note_on_c, 9, 69, 0
6, 58848, Note_on_c, 9, 69, 110
6, 58942, Note_on_c, 9, 69, 0
6, 58992, Note_on_c, 9, 69, 110
6, 59086, Note_on_c, 9, 69, 0
6, 59136, Note_on_c, 9, 69, 110
6, 59230, Note_on_c, 9, 69, 0
6, 59232, Note_on_c, 9, 69, 110
6, 59326, Note_on_c, 9, 69, 0
6, 59376, Note_on_c, 9, 69, 110
6, 59470, Note_on_c, 9, 69, 0
6, 59472, Note_on_c, 9, 69, 110
6, 59566, Note_on_c, 9, 69, 0
6, 59616, Note_on_c, 9, 69, 110
6, 59662, Note_on_c, 9, 69, 0
6, 59664, Note_on_c, 9, 69, 110
6, 59758, Note_on_c, 9, 69, 0
6, 59760, Note_on_c, 9, 69, 110
6, 59854, Note_on_c, 9, 69, 0
6, 59904, Note_on_c, 9, 69, 110
6, 59998, Note_on_c, 9, 69, 0
6, 60000, Note_on_c, 9, 69, 110
6, 60094, Note_on_c, 9, 69, 0
6, 60144, Note_on_c, 9, 69, 110
6, 60238, Note_on_c, 9, 69, 0
6, 60240, Note_on_c, 9, 69, 110
6, 60334, Note_on_c, 9, 69, 0
6, 60384, Note_on_c, 9, 69, 110
6, 60478, Note_on_c, 9, 69, 0
6, 60528, Note_on_c, 9, 69, 110
6, 60622, Note_on_c, 9, 69, 0
6, 60672, Note_on_c, 9, 69, 110
6, 60766, Note_on_c, 9, 69, 0
6, 60768, Note_on_c, 9, 69, 110
6, 60862, Note_on_c, 9, 69, 0
6, 60912, Note_on_c, 9, 69, 110
6, 61006, Note_on_c, 9, 69, 0
6, 61008, Note_on_c, 9, 69, 110
6, 61102, Note_on_c, 9, 69, 0
6, 61152, Note_on_c, 9, 69, 110
6, 61198, Note_on_c, 9, 69, 0
6, 61200, Note_on_c, 9, 69, 110
6, 61294, Note_on_c, 9, 69, 0
6, 61296, Note_on_c, 9, 69, 110
6, 61390, Note_on_c, 9, 69, 0
6, 61440, Note_on_c, 9, 69, 110
6, 61534, Note_on_c, 9, 69, 0
6, 61536, Note_on_c, 9, 69, 110
6, 61630, Note_on_c, 9, 69, 0
6, 61680, Note_on_c, 9, 69, 110
6, 61774, Note_on_c, 9, 69, 0
6, 61776, Note_on_c, 9, 69, 110
6, 61870, Note_on_c, 9, 69, 0
6, 61920, Note_on_c, 9, 69, 110
6, 62014, Note_on_c, 9, 69, 0
6, 62064, Note_on_c, 9, 69, 110
6, 62158, Note_on_c, 9, 69, 0
6, 62208, Note_on_c, 9, 69, 110
6, 62302, Note_on_c, 9, 69, 0
6, 62304, Note_on_c, 9, 69, 110
6, 62398, Note_on_c, 9, 69, 0
6, 62448, Note_on_c, 9, 69, 110
6, 62542, Note_on_c, 9, 69, 0
6, 62544, Note_on_c, 9, 69, 110
6, 62638, Note_on_c, 9, 69, 0
6, 62688, Note_on_c, 9, 69, 110
6, 62734, Note_on_c, 9, 69, 0
6, 62736, Note_on_c, 9, 69, 110
6, 62830, Note_on_c, 9, 69, 0
6, 62832, Note_on_c, 9, 69, 110
6, 62926, Note_on_c, 9, 69, 0
6, 62976, Note_on_c, 9, 69, 110
6, 63070, Note_on_c, 9, 69, 0
6, 63072, Note_on_c, 9, 69, 110
6, 63166, Note_on_c, 9, 69, 0
6, 63216, Note_on_c, 9, 69, 110
6, 63310, Note_on_c, 9, 69, 0
6, 63312, Note_on_c, 9, 69, 110
6, 63406, Note_on_c, 9, 69, 0
6, 63456, Note_on_c, 9, 69, 110
6, 63550, Note_on_c, 9, 69, 0
6, 63600, Note_on_c, 9, 69, 110
6, 63694, Note_on_c, 9, 69, 0
6, 63744, Note_on_c, 9, 69, 110
6, 63838, Note_on_c, 9, 69, 0
6, 63840, Note_on_c, 9, 69, 110
6, 63934, Note_on_c, 9, 69, 0
6, 63984, Note_on_c, 9, 69, 110
6, 64078, Note_on_c, 9, 69, 0
6, 64080, Note_on_c, 9, 69, 110
6, 64174, Note_on_c, 9, 69, 0
6, 64224, Note_on_c, 9, 69, 110
6, 64270, Note_on_c, 9, 69, 0
6, 64272, Note_on_c, 9, 69, 110
6, 64366, Note_on_c, 9, 69, 0
6, 64368, Note_on_c, 9, 69, 110
6, 64462, Note_on_c, 9, 69, 0
6, 64512, Note_on_c, 9, 69, 110
6, 64606, Note_on_c, 9, 69, 0
6, 64608, Note_on_c, 9, 69, 110
6, 64702, Note_on_c, 9, 69, 0
6, 64752, Note_on_c, 9, 69, 110
6, 64846, Note_on_c, 9, 69, 0
6, 64848, Note_on_c, 9, 69, 110
6, 64942, Note_on_c, 9, 69, 0
6, 64992, Note_on_c, 9, 69, 110
6, 65086, Note_on_c, 9, 69, 0
6, 65136, Note_on_c, 9, 69, 110
6, 65230, Note_on_c, 9, 69, 0
6, 65280, Note_on_c, 9, 69, 110
6, 65374, Note_on_c, 9, 69, 0
6, 65376, Note_on_c, 9, 69, 110
6, 65470, Note_on_c, 9, 69, 0
6, 65520, Note_on_c, 9, 69, 110
6, 65614, Note_on_c, 9, 69, 0
6, 65616, Note_on_c, 9, 69, 110
6, 65710, Note_on_c, 9, 69, 0
6, 65760, Note_on_c, 9, 69, 110
6, 65806, Note_on_c, 9, 69, 0
6, 65808, Note_on_c, 9, 69, 110
6, 65902, Note_on_c, 9, 69, 0
6, 65904, Note_on_c, 9, 69, 110
6, 65998, Note_on_c, 9, 69, 0
6, 66048, Note_on_c, 9, 69, 110
6, 66142, Note_on_c, 9, 69, 0
6, 66144, Note_on_c, 9, 69, 110
6, 66238, Note_on_c, 9, 69, 0
6, 66288, Note_on_c, 9, 69, 110
6, 66382, Note_on_c, 9, 69, 0
6, 66384, Note_on_c, 9, 69, 110
6, 66478, Note_on_c, 9, 69, 0
6, 66528, Note_on_c, 9, 69, 110
6, 66622, Note_on_c, 9, 69, 0
6, 66672, Note_on_c, 9, 69, 110
6, 66766, Note_on_c, 9, 69, 0
6, 66816, Note_on_c, 9, 69, 110
6, 66910, Note_on_c, 9, 69, 0
6, 66912, Note_on_c, 9, 69, 110
6, 67006, Note_on_c, 9, 69, 0
6, 67056, Note_on_c, 9, 69, 110
6, 67150, Note_on_c, 9, 69, 0
6, 67152, Note_on_c, 9, 69, 110
6, 67246, Note_on_c, 9, 69, 0
6, 67296, Note_on_c, 9, 69, 110
6, 67342, Note_on_c, 9, 69, 0
6, 67344, Note_on_c, 9, 69, 110
6, 67438, Note_on_c, 9, 69, 0
6, 67440, Note_on_c, 9, 69, 110
6, 67534, Note_on_c, 9, 69, 0
6, 67584, Note_on_c, 9, 69, 110
6, 67678, Note_on_c, 9, 69, 0
6, 67680, Note_on_c, 9, 69, 110
6, 67774, Note_on_c, 9, 69, 0
6, 67824, Note_on_c, 9, 69, 110
6, 67918, Note_on_c, 9, 69, 0
6, 67920, Note_on_c, 9, 69, 110
6, 68014, Note_on_c, 9, 69, 0
6, 68064, Note_on_c, 9, 69, 110
6, 68158, Note_on_c, 9, 69, 0
6, 68208, Note_on_c, 9, 69, 110
6, 68302, Note_on_c, 9, 69, 0
6, 68352, Note_on_c, 9, 69, 110
6, 68446, Note_on_c, 9, 69, 0
6, 68448, Note_on_c, 9, 69, 110
6, 68542, Note_on_c, 9, 69, 0
6, 68592, Note_on_c, 9, 69, 110
6, 68686, Note_on_c, 9, 69, 0
6, 68688, Note_on_c, 9, 69, 110
6, 68782, Note_on_c, 9, 69, 0
6, 68832, Note_on_c, 9, 69, 110
6, 68878, Note_on_c, 9, 69, 0
6, 68880, Note_on_c, 9, 69, 110
6, 68974, Note_on_c, 9, 69, 0
6, 68976, Note_on_c, 9, 69, 110
6, 69070, Note_on_c, 9, 69, 0
6, 69120, Note_on_c, 9, 69, 110
6, 69214, Note_on_c, 9, 69, 0
6, 69216, Note_on_c, 9, 69, 110
6, 69310, Note_on_c, 9, 69, 0
6, 69360, Note_on_c, 9, 69, 110
6, 69454, Note_on_c, 9, 69, 0
6, 69456, Note_on_c, 9, 69, 110
6, 69550, Note_on_c, 9, 69, 0
6, 69600, Note_on_c, 9, 69, 110
6, 69694, Note_on_c, 9, 69, 0
6, 69744, Note_on_c, 9, 69, 110
6, 69838, Note_on_c, 9, 69, 0
6, 69888, Note_on_c, 9, 69, 110
6, 69982, Note_on_c, 9, 69, 0
6, 69984, Note_on_c, 9, 69, 110
6, 70078, Note_on_c, 9, 69, 0
6, 70128, Note_on_c, 9, 69, 110
6, 70222, Note_on_c, 9, 69, 0
6, 70224, Note_on_c, 9, 69, 110
6, 70318, Note_on_c, 9, 69, 0
6, 70368, Note_on_c, 9, 69, 110
6, 70414, Note_on_c, 9, 69, 0
6, 70416, Note_on_c, 9, 69, 110
6, 70510, Note_on_c, 9, 69, 0
6, 70512, Note_on_c, 9, 69, 110
6, 70606, Note_on_c, 9, 69, 0
6, 70656, Note_on_c, 9, 69, 110
6, 70750, Note_on_c, 9, 69, 0
6, 70752, Note_on_c, 9, 69, 110
6, 70846, Note_on_c, 9, 69, 0
6, 70896, Note_on_c, 9, 69, 110
6, 70990, Note_on_c, 9, 69, 0
6, 70992, Note_on_c, 9, 69, 110
6, 71086, Note_on_c, 9, 69, 0
6, 71136, Note_on_c, 9, 69, 110
6, 71230, Note_on_c, 9, 69, 0
6, 71280, Note_on_c, 9, 69, 110
6, 71374, Note_on_c, 9, 69, 0
6, 71424, Note_on_c, 9, 69, 110
6, 71518, Note_on_c, 9, 69, 0
6, 71520, Note_on_c, 9, 69, 110
6, 71614, Note_on_c, 9, 69, 0
6, 71664, Note_on_c, 9, 69, 110
6, 71758, Note_on_c, 9, 69, 0
6, 71760, Note_on_c, 9, 69, 110
6, 71854, Note_on_c, 9, 69, 0
6, 71904, Note_on_c, 9, 69, 110
6, 71950, Note_on_c, 9, 69, 0
6, 71952, Note_on_c, 9, 69, 110
6, 72046, Note_on_c, 9, 69, 0
6, 72048, Note_on_c, 9, 69, 110
6, 72142, Note_on_c, 9, 69, 0
6, 72192, Note_on_c, 9, 69, 110
6, 72286, Note_on_c, 9, 69, 0
6, 72288, Note_on_c, 9, 69, 110
6, 72382, Note_on_c, 9, 69, 0
6, 72432, Note_on_c, 9, 69, 110
6, 72526, Note_on_c, 9, 69, 0
6, 72528, Note_on_c, 9, 69, 110
6, 72622, Note_on_c, 9, 69, 0
6, 72672, Note_on_c, 9, 69, 110
6, 72766, Note_on_c, 9, 69, 0
6, 72816, Note_on_c, 9, 69, 110
6, 72910, Note_on_c, 9, 69, 0
6, 72960, Note_on_c, 9, 69, 110
6, 73054, Note_on_c, 9, 69, 0
6, 73056, Note_on_c, 9, 69, 110
6, 73150, Note_on_c, 9, 69, 0
6, 73200, Note_on_c, 9, 69, 110
6, 73294, Note_on_c, 9, 69, 0
6, 73296, Note_on_c, 9, 69, 110
6, 73390, Note_on_c, 9, 69, 0
6, 73440, Note_on_c, 9, 69, 110
6, 73486, Note_on_c, 9, 69, 0
6, 73488, Note_on_c, 9, 69, 110
6, 73582, Note_on_c, 9, 69, 0
6, 73584, Note_on_c, 9, 69, 110
6, 73678, Note_on_c, 9, 69, 0
6, 73728, Note_on_c, 9, 69, 110
6, 73822, Note_on_c, 9, 69, 0
6, 73824, Note_on_c, 9, 69, 110
6, 73918, Note_on_c, 9, 69, 0
6, 73968, Note_on_c, 9, 69, 110
6, 74062, Note_on_c, 9, 69, 0
6, 74064, Note_on_c, 9, 69, 110
6, 74158, Note_on_c, 9, 69, 0
6, 74208, Note_on_c, 9, 69, 110
6, 74302, Note_on_c, 9, 69, 0
6, 74352, Note_on_c, 9, 69, 110
6, 74446, Note_on_c, 9, 69, 0
6, 74496, Note_on_c, 9, 69, 110
6, 74590, Note_on_c, 9, 69, 0
6, 74592, Note_on_c, 9, 69, 110
6, 74686, Note_on_c, 9, 69, 0
6, 74736, Note_on_c, 9, 69, 110
6, 74830, Note_on_c, 9, 69, 0
6, 74832, Note_on_c, 9, 69, 110
6, 74926, Note_on_c, 9, 69, 0
6, 74976, Note_on_c, 9, 69, 110
6, 75022, Note_on_c, 9, 69, 0
6, 75024, Note_on_c, 9, 69, 110
6, 75118, Note_on_c, 9, 69, 0
6, 75120, Note_on_c, 9, 69, 110
6, 75214, Note_on_c, 9, 69, 0
6, 75264, Note_on_c, 9, 69, 110
6, 75358, Note_on_c, 9, 69, 0
6, 75360, Note_on_c, 9, 69, 110
6, 75454, Note_on_c, 9, 69, 0
6, 75504, Note_on_c, 9, 69, 110
6, 75598, Note_on_c, 9, 69, 0
6, 75600, Note_on_c, 9, 69, 110
6, 75694, Note_on_c, 9, 69, 0
6, 75744, Note_on_c, 9, 69, 110
6, 75838, Note_on_c, 9, 69, 0
6, 75888, Note_on_c, 9, 69, 110
6, 75982, Note_on_c, 9, 69, 0
6, 76032, Note_on_c, 9, 69, 110
6, 76126, Note_on_c, 9, 69, 0
6, 76128, Note_on_c, 9, 69, 110
6, 76222, Note_on_c, 9, 69, 0
6, 76272, Note_on_c, 9, 69, 110
6, 76366, Note_on_c, 9, 69, 0
6, 76368, Note_on_c, 9, 69, 110
6, 76462, Note_on_c, 9, 69, 0
6, 76512, Note_on_c, 9, 69, 110
6, 76558, Note_on_c, 9, 69, 0
6, 76560, Note_on_c, 9, 69, 110
6, 76654, Note_on_c, 9, 69, 0
6, 76656, Note_on_c, 9, 69, 110
6, 76750, Note_on_c, 9, 69, 0
6, 76800, Note_on_c, 9, 69, 110
6, 76894, Note_on_c, 9, 69, 0
6, 76896, Note_on_c, 9, 69, 110
6, 76990, Note_on_c, 9, 69, 0
6, 77040, Note_on_c, 9, 69, 110
6, 77134, Note_on_c, 9, 69, 0
6, 77136, Note_on_c, 9, 69, 110
6, 77230, Note_on_c, 9, 69, 0
6, 77280, Note_on_c, 9, 69, 110
6, 77374, Note_on_c, 9, 69, 0
6, 77424, Note_on_c, 9, 69, 110
6, 77518, Note_on_c, 9, 69, 0
6, 77568, Note_on_c, 9, 69, 110
6, 77662, Note_on_c, 9, 69, 0
6, 77664, Note_on_c, 9, 69, 110
6, 77758, Note_on_c, 9, 69, 0
6, 77808, Note_on_c, 9, 69, 110
6, 77902, Note_on_c, 9, 69, 0
6, 77904, Note_on_c, 9, 69, 110
6, 77998, Note_on_c, 9, 69, 0
6, 78048, Note_on_c, 9, 69, 110
6, 78094, Note_on_c, 9, 69, 0
6, 78096, Note_on_c, 9, 69, 110
6, 78190, Note_on_c, 9, 69, 0
6, 78192, Note_on_c, 9, 69, 110
6, 78286, Note_on_c, 9, 69, 0
6, 78336, Note_on_c, 9, 69, 110
6, 78430, Note_on_c, 9, 69, 0
6, 78432, Note_on_c, 9, 69, 110
6, 78526, Note_on_c, 9, 69, 0
6, 78576, Note_on_c, 9, 69, 110
6, 78670, Note_on_c, 9, 69, 0
6, 78672, Note_on_c, 9, 69, 110
6, 78766, Note_on_c, 9, 69, 0
6, 78816, Note_on_c, 9, 69, 110
6, 78910, Note_on_c, 9, 69, 0
6, 78960, Note_on_c, 9, 69, 110
6, 79054, Note_on_c, 9, 69, 0
6, 79104, Note_on_c, 9, 69, 110
6, 79198, Note_on_c, 9, 69, 0
6, 79200, Note_on_c, 9, 69, 110
6, 79294, Note_on_c, 9, 69, 0
6, 79344, Note_on_c, 9, 69, 110
6, 79438, Note_on_c, 9, 69, 0
6, 79440, Note_on_c, 9, 69, 110
6, 79534, Note_on_c, 9, 69, 0
6, 79584, Note_on_c, 9, 69, 110
6, 79630, Note_on_c, 9, 69, 0
6, 79632, Note_on_c, 9, 69, 110
6, 79726, Note_on_c, 9, 69, 0
6, 79728, Note_on_c, 9, 69, 110
6, 79822, Note_on_c, 9, 69, 0
6, 79872, Note_on_c, 9, 69, 110
6, 79966, Note_on_c, 9, 69, 0
6, 79968, Note_on_c, 9, 69, 110
6, 80062, Note_on_c, 9, 69, 0
6, 80112, Note_on_c, 9, 69, 110
6, 80206, Note_on_c, 9, 69, 0
6, 80208, Note_on_c, 9, 69, 110
6, 80302, Note_on_c, 9, 69, 0
6, 80352, Note_on_c, 9, 69, 110
6, 80446, Note_on_c, 9, 69, 0
6, 80496, Note_on_c, 9, 69, 110
6, 80590, Note_on_c, 9, 69, 0
6, 80640, Note_on_c, 9, 69, 110
6, 80734, Note_on_c, 9, 69, 0
6, 80736, Note_on_c, 9, 69, 110
6, 80830, Note_on_c, 9, 69, 0
6, 80880, Note_on_c, 9, 69, 110
6, 80974, Note_on_c, 9, 69, 0
6, 80976, Note_on_c, 9, 69, 110
6, 81070, Note_on_c, 9, 69, 0
6, 81120, Note_on_c, 9, 69, 110
6, 81166, Note_on_c, 9, 69, 0
6, 81168, Note_on_c, 9, 69, 110
6, 81262, Note_on_c, 9, 69, 0
6, 81264, Note_on_c, 9, 69, 110
6, 81358, Note_on_c, 9, 69, 0
6, 81408, Note_on_c, 9, 69, 110
6, 81502, Note_on_c, 9, 69, 0
6, 81504, Note_on_c, 9, 69, 110
6, 81598, Note_on_c, 9, 69, 0
6, 81648, Note_on_c, 9, 69, 110
6, 81742, Note_on_c, 9, 69, 0
6, 81744, Note_on_c, 9, 69, 110
6, 81838, Note_on_c, 9, 69, 0
6, 81888, Note_on_c, 9, 69, 110
6, 81982, Note_on_c, 9, 69, 0
6, 82032, Note_on_c, 9, 69, 110
6, 82126, Note_on_c, 9, 69, 0
6, 82176, Note_on_c, 9, 69, 110
6, 82270, Note_on_c, 9, 69, 0
6, 82272, Note_on_c, 9, 69, 110
6, 82366, Note_on_c, 9, 69, 0
6, 82416, Note_on_c, 9, 69, 110
6, 82510, Note_on_c, 9, 69, 0
6, 82512, Note_on_c, 9, 69, 110
6, 82606, Note_on_c, 9, 69, 0
6, 82656, Note_on_c, 9, 69, 110
6, 82702, Note_on_c, 9, 69, 0
6, 82704, Note_on_c, 9, 69, 110
6, 82798, Note_on_c, 9, 69, 0
6, 82800, Note_on_c, 9, 69, 110
6, 82894, Note_on_c, 9, 69, 0
6, 82944, Note_on_c, 9, 69, 110
6, 83038, Note_on_c, 9, 69, 0
6, 83040, Note_on_c, 9, 69, 110
6, 83134, Note_on_c, 9, 69, 0
6, 83184, Note_on_c, 9, 69, 110
6, 83278, Note_on_c, 9, 69, 0
6, 83280, Note_on_c, 9, 69, 110
6, 83374, Note_on_c, 9, 69, 0
6, 83424, Note_on_c, 9, 69, 110
6, 83518, Note_on_c, 9, 69, 0
6, 83568, Note_on_c, 9, 69, 110
6, 83662, Note_on_c, 9, 69, 0
6, 83712, Note_on_c, 9, 69, 110
6, 83806, Note_on_c, 9, 69, 0
6, 83808, Note_on_c, 9, 69, 110
6, 83902, Note_on_c, 9, 69, 0
6, 83952, Note_on_c, 9, 69, 110
6, 84046, Note_on_c, 9, 69, 0
6, 84048, Note_on_c, 9, 69, 110
6, 84142, Note_on_c, 9, 69, 0
6, 84192, Note_on_c, 9, 69, 110
6, 84238, Note_on_c, 9, 69, 0
6, 84240, Note_on_c, 9, 69, 110
6, 84334, Note_on_c, 9, 69, 0
6, 84336, Note_on_c, 9, 69, 110
6, 84430, Note_on_c, 9, 69, 0
6, 84480, Note_on_c, 9, 69, 110
6, 84574, Note_on_c, 9, 69, 0
6, 84576, Note_on_c, 9, 69, 110
6, 84670, Note_on_c, 9, 69, 0
6, 84720, Note_on_c, 9, 69, 110
6, 84814, Note_on_c, 9, 69, 0
6, 84816, Note_on_c, 9, 69, 110
6, 84910, Note_on_c, 9, 69, 0
6, 84960, Note_on_c, 9, 69, 110
6, 85054, Note_on_c, 9, 69, 0
6, 85104, Note_on_c, 9, 69, 110
6, 85198, Note_on_c, 9, 69, 0
6, 85248, Note_on_c, 9, 69, 110
6, 85342, Note_on_c, 9, 69, 0
6, 85344, Note_on_c, 9, 69, 110
6, 85438, Note_on_c, 9, 69, 0
6, 85488, Note_on_c, 9, 69, 110
6, 85582, Note_on_c, 9, 69, 0
6, 85584, Note_on_c, 9, 69, 110
6, 85678, Note_on_c, 9, 69, 0
6, 85728, Note_on_c, 9, 69, 110
6, 85774, Note_on_c, 9, 69, 0
6, 85776, Note_on_c, 9, 69, 110
6, 85870, Note_on_c, 9, 69, 0
6, 85872, Note_on_c, 9, 69, 110
6, 85966, Note_on_c, 9, 69, 0
6, 85966, End_track
7, 0, Start_track
7, 0, MIDI_port, 0
7, 0, Title_t, "Staff-5"
7, 0, Control_c, 9, 7, 127
7, 0, Control_c, 9, 10, 64
7, 3072, Note_on_c, 9, 35, 110
7, 3232, Note_on_c, 9, 35, 0
7, 3264, Note_on_c, 9, 40, 110
7, 3424, Note_on_c, 9, 40, 0
7, 3648, Note_on_c, 9, 40, 110
7, 3694, Note_on_c, 9, 40, 0
7, 3696, Note_on_c, 9, 35, 110
7, 3790, Note_on_c, 9, 35, 0
7, 3840, Note_on_c, 9, 35, 110
7, 3934, Note_on_c, 9, 35, 0
7, 3984, Note_on_c, 9, 35, 110
7, 4030, Note_on_c, 9, 35, 0
7, 4032, Note_on_c, 9, 40, 110
7, 4192, Note_on_c, 9, 40, 0
7, 4416, Note_on_c, 9, 40, 110
7, 4576, Note_on_c, 9, 40, 0
7, 4608, Note_on_c, 9, 35, 110
7, 4702, Note_on_c, 9, 35, 0
7, 4752, Note_on_c, 9, 35, 110
7, 4798, Note_on_c, 9, 35, 0
7, 4800, Note_on_c, 9, 40, 110
7, 4846, Note_on_c, 9, 40, 0
7, 4848, Note_on_c, 9, 35, 110
7, 4894, Note_on_c, 9, 35, 0
7, 4944, Note_on_c, 9, 35, 110
7, 4990, Note_on_c, 9, 35, 0
7, 5088, Note_on_c, 9, 35, 110
7, 5182, Note_on_c, 9, 35, 0
7, 5184, Note_on_c, 9, 40, 110
7, 5230, Note_on_c, 9, 40, 0
7, 5232, Note_on_c, 9, 35, 110
7, 5326, Note_on_c, 9, 35, 0
7, 6144, Note_on_c, 9, 35, 110
7, 6304, Note_on_c, 9, 35, 0
7, 6336, Note_on_c, 9, 40, 110
7, 6496, Note_on_c, 9, 40, 0
7, 6720, Note_on_c, 9, 40, 110
7, 6766, Note_on_c, 9, 40, 0
7, 6768, Note_on_c, 9, 35, 110
7, 6862, Note_on_c, 9, 35, 0
7, 6912, Note_on_c, 9, 35, 110
7, 7006, Note_on_c, 9, 35, 0
7, 7056, Note_on_c, 9, 35, 110
7, 7102, Note_on_c, 9, 35, 0
7, 7104, Note_on_c, 9, 40, 110
7, 7264, Note_on_c, 9, 40, 0
7, 7488, Note_on_c, 9, 40, 110
7, 7648, Note_on_c, 9, 40, 0
7, 7680, Note_on_c, 9, 35, 110
7, 7774, Note_on_c, 9, 35, 0
7, 7824, Note_on_c, 9, 35, 110
7, 7870, Note_on_c, 9, 35, 0
7, 7872, Note_on_c, 9, 40, 110
7, 7918, Note_on_c, 9, 40, 0
7, 7920, Note_on_c, 9, 35, 110
7, 7966, Note_on_c, 9, 35, 0
7, 8016, Note_on_c, 9, 35, 110
7, 8062, Note_on_c, 9, 35, 0
7, 8160, Note_on_c, 9, 35, 110
7, 8254, Note_on_c, 9, 35, 0
7, 8256, Note_on_c, 9, 40, 110
7, 8302, Note_on_c, 9, 40, 0
7, 8304, Note_on_c, 9, 35, 110
7, 8398, Note_on_c, 9, 35, 0
7, 8448, Note_on_c, 9, 35, 110
7, 8542, Note_on_c, 9, 35, 0
7, 8592, Note_on_c, 9, 35, 110
7, 8638, Note_on_c, 9, 35, 0
7, 8640, Note_on_c, 9, 40, 110
7, 8800, Note_on_c, 9, 40, 0
7, 9024, Note_on_c, 9, 40, 110
7, 9118, Note_on_c, 9, 40, 0
7, 9120, Note_on_c, 9, 35, 110
7, 9214, Note_on_c, 9, 35, 0
7, 9216, Note_on_c, 9, 35, 110
7, 9376, Note_on_c, 9, 35, 0
7, 9408, Note_on_c, 9, 40, 110
7, 9568, Note_on_c, 9, 40, 0
7, 9792, Note_on_c, 9, 40, 110
7, 9838, Note_on_c, 9, 40, 0
7, 9840, Note_on_c, 9, 35, 110
7, 9934, Note_on_c, 9, 35, 0
7, 9984, Note_on_c, 9, 35, 110
7, 10078, Note_on_c, 9, 35, 0
7, 10128, Note_on_c, 9, 35, 110
7, 10174, Note_on_c, 9, 35, 0
7, 10176, Note_on_c, 9, 40, 110
7, 10336, Note_on_c, 9, 40, 0
7, 10560, Note_on_c, 9, 40, 110
7, 10720, Note_on_c, 9, 40, 0
7, 10752, Note_on_c, 9, 35, 110
7, 10846, Note_on_c, 9, 35, 0
7, 10896, Note_on_c, 9, 35, 110
7, 10942, Note_on_c, 9, 35, 0
7, 10944, Note_on_c, 9, 40, 110
7, 10990, Note_on_c, 9, 40, 0
7, 10992, Note_on_c, 9, 35, 110
7, 11038, Note_on_c, 9, 35, 0
7, 11088, Note_on_c, 9, 35, 110
7, 11134, Note_on_c, 9, 35, 0
7, 11232, Note_on_c, 9, 35, 110
7, 11326, Note_on_c, 9, 35, 0
7, 11328, Note_on_c, 9, 40, 110
7, 11374, Note_on_c, 9, 40, 0
7, 11376, Note_on_c, 9, 35, 110
7, 11470, Note_on_c, 9, 35, 0
7, 11520, Note_on_c, 9, 35, 110
7, 11614, Note_on_c, 9, 35, 0
7, 11664, Note_on_c, 9, 35, 110
7, 11710, Note_on_c, 9, 35, 0
7, 11712, Note_on_c, 9, 40, 110
7, 11872, Note_on_c, 9, 40, 0
7, 12096, Note_on_c, 9, 40, 110
7, 12190, Note_on_c, 9, 40, 0
7, 12192, Note_on_c, 9, 35, 110
7, 12286, Note_on_c, 9, 35, 0
7, 12288, Note_on_c, 9, 35, 110
7, 12448, Note_on_c, 9, 35, 0
7, 12480, Note_on_c, 9, 40, 110
7, 12640, Note_on_c, 9, 40, 0
7, 12864, Note_on_c, 9, 40, 110
7, 12910, Note_on_c, 9, 40, 0
7, 12912, Note_on_c, 9, 35, 110
7, 13006, Note_on_c, 9, 35, 0
7, 13056, Note_on_c, 9, 35, 110
7, 13150, Note_on_c, 9, 35, 0
7, 13200, Note_on_c, 9, 35, 110
7, 13246, Note_on_c, 9, 35, 0
7, 13248, Note_on_c, 9, 40, 110
7, 13408, Note_on_c, 9, 40, 0
7, 13632, Note_on_c, 9, 40, 110
7, 13792, Note_on_c, 9, 40, 0
7, 13824, Note_on_c, 9, 35, 110
7, 13918, Note_on_c, 9, 35, 0
7, 13968, Note_on_c, 9, 35, 110
7, 14014, Note_on_c, 9, 35, 0
7, 14016, Note_on_c, 9, 40, 110
7, 14062, Note_on_c, 9, 40, 0
7, 14064, Note_on_c, 9, 35, 110
7, 14110, Note_on_c, 9, 35, 0
7, 14160, Note_on_c, 9, 35, 110
7, 14206, Note_on_c, 9, 35, 0
7, 14304, Note_on_c, 9, 35, 110
7, 14398, Note_on_c, 9, 35, 0
7, 14400, Note_on_c, 9, 40, 110
7, 14446, Note_on_c, 9, 40, 0
7, 14448, Note_on_c, 9, 35, 110
7, 14542, Note_on_c, 9, 35, 0
7, 14592, Note_on_c, 9, 35, 110
7, 14686, Note_on_c, 9, 35, 0
7, 14736, Note_on_c, 9, 35, 110
7, 14782, Note_on_c, 9, 35, 0
7, 14784, Note_on_c, 9, 40, 110
7, 14944, Note_on_c, 9, 40, 0
7, 15168, Note_on_c, 9, 40, 110
7, 15262, Note_on_c, 9, 40, 0
7, 15264, Note_on_c, 9, 35, 110
7, 15358, Note_on_c, 9, 35, 0
7, 15360, Note_on_c, 9, 35, 110
7, 15520, Note_on_c, 9, 35, 0
7, 15552, Note_on_c, 9, 40, 110
7, 15712, Note_on_c, 9, 40, 0
7, 15936, Note_on_c, 9, 40, 110
7, 15982, Note_on_c, 9, 40, 0
7, 15984, Note_on_c, 9, 35, 110
7, 16078, Note_on_c, 9, 35, 0
7, 16128, Note_on_c, 9, 35, 110
7, 16222, Note_on_c, 9, 35, 0
7, 16272, Note_on_c, 9, 35, 110
7, 16318, Note_on_c, 9, 35, 0
7, 16320, Note_on_c, 9, 40, 110
7, 16480, Note_on_c, 9, 40, 0
7, 16704, Note_on_c, 9, 40, 110
7, 16864, Note_on_c, 9, 40, 0
7, 16896, Note_on_c, 9, 35, 110
7, 16990, Note_on_c, 9, 35, 0
7, 17040, Note_on_c, 9, 35, 110
7, 17086, Note_on_c, 9, 35, 0
7, 17088, Note_on_c, 9, 40, 110
7, 17134, Note_on_c, 9, 40, 0
7, 17136, Note_on_c, 9, 35, 110
7, 17182, Note_on_c, 9, 35, 0
7, 17232, Note_on_c, 9, 35, 110
7, 17278, Note_on_c, 9, 35, 0
7, 17376, Note_on_c, 9, 35, 110
7, 17470, Note_on_c, 9, 35, 0
7, 17472, Note_on_c, 9, 40, 110
7, 17518, Note_on_c, 9, 40, 0
7, 17520, Note_on_c, 9, 35, 110
7, 17614, Note_on_c, 9, 35, 0
7, 17664, Note_on_c, 9, 35, 110
7, 17758, Note_on_c, 9, 35, 0
7, 17808, Note_on_c, 9, 35, 110
7, 17854, Note_on_c, 9, 35, 0
7, 17856, Note_on_c, 9, 40, 110
7, 18016, Note_on_c, 9, 40, 0
7, 18240, Note_on_c, 9, 40, 110
7, 18334, Note_on_c, 9, 40, 0
7, 18336, Note_on_c, 9, 35, 110
7, 18430, Note_on_c, 9, 35, 0
7, 18432, Note_on_c, 9, 35, 110
7, 18592, Note_on_c, 9, 35, 0
7, 18624, Note_on_c, 9, 40, 110
7, 18784, Note_on_c, 9, 40, 0
7, 19008, Note_on_c, 9, 40, 110
7, 19054, Note_on_c, 9, 40, 0
7, 19056, Note_on_c, 9, 35, 110
7, 19150, Note_on_c, 9, 35, 0
7, 19200, Note_on_c, 9, 35, 110
7, 19294, Note_on_c, 9, 35, 0
7, 19344, Note_on_c, 9, 35, 110
7, 19390, Note_on_c, 9, 35, 0
7, 19392, Note_on_c, 9, 40, 110
7, 19552, Note_on_c, 9, 40, 0
7, 19776, Note_on_c, 9, 40, 110
7, 19936, Note_on_c, 9, 40, 0
7, 19968, Note_on_c, 9, 35, 110
7, 20062, Note_on_c, 9, 35, 0
7, 20112, Note_on_c, 9, 35, 110
7, 20158, Note_on_c, 9, 35, 0
7, 20160, Note_on_c, 9, 40, 110
7, 20206, Note_on_c, 9, 40, 0
7, 20208, Note_on_c, 9, 35, 110
7, 20254, Note_on_c, 9, 35, 0
7, 20304, Note_on_c, 9, 35, 110
7, 20350, Note_on_c, 9, 35, 0
7, 20448, Note_on_c, 9, 35, 110
7, 20542, Note_on_c, 9, 35, 0
7, 20544, Note_on_c, 9, 40, 110
7, 20590, Note_on_c, 9, 40, 0
7, 20592, Note_on_c, 9, 35, 110
7, 20686, Note_on_c, 9, 35, 0
7, 20736, Note_on_c, 9, 35, 110
7, 20830, Note_on_c, 9, 35, 0
7, 20880, Note_on_c, 9, 35, 110
7, 20926, Note_on_c, 9, 35, 0
7, 20928, Note_on_c, 9, 40, 110
7, 21088, Note_on_c, 9, 40, 0
7, 21312, Note_on_c, 9, 40, 110
7, 21406, Note_on_c, 9, 40, 0
7, 21408, Note_on_c, 9, 35, 110
7, 21502, Note_on_c, 9, 35, 0
7, 21504, Note_on_c, 9, 35, 110
7, 21664, Note_on_c, 9, 35, 0
7, 21696, Note_on_c, 9, 40, 110
7, 21856, Note_on_c, 9, 40, 0
7, 22080, Note_on_c, 9, 40, 110
7, 22126, Note_on_c, 9, 40, 0
7, 22128, Note_on_c, 9, 35, 110
7, 22222, Note_on_c, 9, 35, 0
7, 22272, Note_on_c, 9, 35, 110
7, 22366, Note_on_c, 9, 35, 0
7, 22416, Note_on_c, 9, 35, 110
7, 22462, Note_on_c, 9, 35, 0
7, 22464, Note_on_c, 9, 40, 110
7, 22624, Note_on_c, 9, 40, 0
7, 22848, Note_on_c, 9, 40, 110
7, 23008, Note_on_c, 9, 40, 0
7, 23040, Note_on_c, 9, 35, 110
7, 23134, Note_on_c, 9, 35, 0
7, 23184, Note_on_c, 9, 35, 110
7, 23230, Note_on_c, 9, 35, 0
7, 23232, Note_on_c, 9, 40, 110
7, 23278, Note_on_c, 9, 40, 0
7, 23280, Note_on_c, 9, 35, 110
7, 23326, Note_on_c, 9, 35, 0
7, 23376, Note_on_c, 9, 35, 110
7, 23422, Note_on_c, 9, 35, 0
7, 23520, Note_on_c, 9, 35, 110
7, 23614, Note_on_c, 9, 35, 0
7, 23616, Note_on_c, 9, 40, 110
7, 23662, Note_on_c, 9, 40, 0
7, 23664, Note_on_c, 9, 35, 110
7, 23758, Note_on_c, 9, 35, 0
7, 23808, Note_on_c, 9, 35, 110
7, 23902, Note_on_c, 9, 35, 0
7, 23952, Note_on_c, 9, 35, 110
7, 23998, Note_on_c, 9, 35, 0
7, 24000, Note_on_c, 9, 40, 110
7, 24160, Note_on_c, 9, 40, 0
7, 24384, Note_on_c, 9, 40, 110
7, 24478, Note_on_c, 9, 40, 0
7, 24480, Note_on_c, 9, 35, 110
7, 24574, Note_on_c, 9, 35, 0
7, 24576, Note_on_c, 9, 35, 110
7, 24736, Note_on_c, 9, 35, 0
7, 24768, Note_on_c, 9, 40, 110
7, 24928, Note_on_c, 9, 40, 0
7, 25152, Note_on_c, 9, 40, 110
7, 25198, Note_on_c, 9, 40, 0
7, 25200, Note_on_c, 9, 35, 110
7, 25294, Note_on_c, 9, 35, 0
7, 25344, Note_on_c, 9, 35, 110
7, 25438, Note_on_c, 9, 35, 0
7, 25488, Note_on_c, 9, 35, 110
7, 25534, Note_on_c, 9, 35, 0
7, 25536, Note_on_c, 9, 40, 110
7, 25696, Note_on_c, 9, 40, 0
7, 25920, Note_on_c, 9, 40, 110
7, 26080, Note_on_c, 9, 40, 0
7, 26112, Note_on_c, 9, 35, 110
7, 26206, Note_on_c, 9, 35, 0
7, 26256, Note_on_c, 9, 35, 110
7, 26302, Note_on_c, 9, 35, 0
7, 26304, Note_on_c, 9, 40, 110
7, 26350, Note_on_c, 9, 40, 0
7, 26352, Note_on_c, 9, 35, 110
7, 26398, Note_on_c, 9, 35, 0
7, 26448, Note_on_c, 9, 35, 110
7, 26494, Note_on_c, 9, 35, 0
7, 26592, Note_on_c, 9, 35, 110
7, 26686, Note_on_c, 9, 35, 0
7, 26688, Note_on_c, 9, 40, 110
7, 26734, Note_on_c, 9, 40, 0
7, 26736, Note_on_c, 9, 35, 110
7, 26830, Note_on_c, 9, 35, 0
7, 26880, Note_on_c, 9, 35, 110
7, 26974, Note_on_c, 9, 35, 0
7, 27024, Note_on_c, 9, 35, 110
7, 27070, Note_on_c, 9, 35, 0
7, 27072, Note_on_c, 9, 40, 110
7, 27232, Note_on_c, 9, 40, 0
7, 27456, Note_on_c, 9, 40, 110
7, 27550, Note_on_c, 9, 40, 0
7, 27552, Note_on_c, 9, 35, 110
7, 27646, Note_on_c, 9, 35, 0
7, 27648, Note_on_c, 9, 35, 110
7, 27808, Note_on_c, 9, 35, 0
7, 27840, Note_on_c, 9, 40, 110
7, 28000, Note_on_c, 9, 40, 0
7, 28224, Note_on_c, 9, 40, 110
7, 28270, Note_on_c, 9, 40, 0
7, 28272, Note_on_c, 9, 35, 110
7, 28366, Note_on_c, 9, 35, 0
7, 28416, Note_on_c, 9, 35, 110
7, 28510, Note_on_c, 9, 35, 0
7, 28560, Note_on_c, 9, 35, 110
7, 28606, Note_on_c, 9, 35, 0
7, 28608, Note_on_c, 9, 40, 110
7, 28768, Note_on_c, 9, 40, 0
7, 28992, Note_on_c, 9, 40, 110
7, 29152, Note_on_c, 9, 40, 0
7, 29184, Note_on_c, 9, 35, 110
7, 29278, Note_on_c, 9, 35, 0
7, 29328, Note_on_c, 9, 35, 110
7, 29374, Note_on_c, 9, 35, 0
7, 29376, Note_on_c, 9, 40, 110
7, 29422, Note_on_c, 9, 40, 0
7, 29424, Note_on_c, 9, 35, 110
7, 29470, Note_on_c, 9, 35, 0
7, 29520, Note_on_c, 9, 35, 110
7, 29566, Note_on_c, 9, 35, 0
7, 29664, Note_on_c, 9, 35, 110
7, 29758, Note_on_c, 9, 35, 0
7, 29760, Note_on_c, 9, 40, 110
7, 29806, Note_on_c, 9, 40, 0
7, 29808, Note_on_c, 9, 35, 110
7, 29902, Note_on_c, 9, 35, 0
7, 29952, Note_on_c, 9, 35, 110
7, 30046, Note_on_c, 9, 35, 0
7, 30096, Note_on_c, 9, 35, 110
7, 30142, Note_on_c, 9, 35, 0
7, 30144, Note_on_c, 9, 40, 110
7, 30304, Note_on_c, 9, 40, 0
7, 30528, Note_on_c, 9, 40, 110
7, 30622, Note_on_c, 9, 40, 0
7, 30624, Note_on_c, 9, 35, 110
7, 30718, Note_on_c, 9, 35, 0
7, 30720, Note_on_c, 9, 35, 110
7, 30880, Note_on_c, 9, 35, 0
7, 30912, Note_on_c, 9, 40, 110
7, 31072, Note_on_c, 9, 40, 0
7, 31296, Note_on_c, 9, 40, 110
7, 31342, Note_on_c, 9, 40, 0
7, 31344, Note_on_c, 9, 35, 110
7, 31438, Note_on_c, 9, 35, 0
7, 31488, Note_on_c, 9, 35, 110
7, 31582, Note_on_c, 9, 35, 0
7, 31632, Note_on_c, 9, 35, 110
7, 31678, Note_on_c, 9, 35, 0
7, 31680, Note_on_c, 9, 40, 110
7, 31840, Note_on_c, 9, 40, 0
7, 32064, Note_on_c, 9, 40, 110
7, 32224, Note_on_c, 9, 40, 0
7, 32256, Note_on_c, 9, 35, 110
7, 32350, Note_on_c, 9, 35, 0
7, 32400, Note_on_c, 9, 35, 110
7, 32446, Note_on_c, 9, 35, 0
7, 32448, Note_on_c, 9, 40, 110
7, 32494, Note_on_c, 9, 40, 0
7, 32496, Note_on_c, 9, 35, 110
7, 32542, Note_on_c, 9, 35, 0
7, 32592, Note_on_c, 9, 35, 110
7, 32638, Note_on_c, 9, 35, 0
7, 32736, Note_on_c, 9, 35, 110
7, 32830, Note_on_c, 9, 35, 0
7, 32832, Note_on_c, 9, 40, 110
7, 32878, Note_on_c, 9, 40, 0
7, 32880, Note_on_c, 9, 35, 110
7, 32974, Note_on_c, 9, 35, 0
7, 33024, Note_on_c, 9, 35, 110
7, 33118, Note_on_c, 9, 35, 0
7, 33168, Note_on_c, 9, 35, 110
7, 33214, Note_on_c, 9, 35, 0
7, 33216, Note_on_c, 9, 40, 110
7, 33376, Note_on_c, 9, 40, 0
7, 33600, Note_on_c, 9, 40, 110
7, 33694, Note_on_c, 9, 40, 0
7, 33696, Note_on_c, 9, 35, 110
7, 33790, Note_on_c, 9, 35, 0
7, 33792, Note_on_c, 9, 35, 110
7, 33952, Note_on_c, 9, 35, 0
7, 33984, Note_on_c, 9, 40, 110
7, 34144, Note_on_c, 9, 40, 0
7, 34368, Note_on_c, 9, 40, 110
7, 34414, Note_on_c, 9, 40, 0
7, 34416, Note_on_c, 9, 35, 110
7, 34510, Note_on_c, 9, 35, 0
7, 34560, Note_on_c, 9, 35, 110
7, 34654, Note_on_c, 9, 35, 0
7, 34704, Note_on_c, 9, 35, 110
7, 34750, Note_on_c, 9, 35, 0
7, 34752, Note_on_c, 9, 40, 110
7, 34912, Note_on_c, 9, 40, 0
7, 35136, Note_on_c, 9, 40, 110
7, 35296, Note_on_c, 9, 40, 0
7, 35328, Note_on_c, 9, 35, 110
7, 35422, Note_on_c, 9, 35, 0
7, 35472, Note_on_c, 9, 35, 110
7, 35518, Note_on_c, 9, 35, 0
7, 35520, Note_on_c, 9, 40, 110
7, 35566, Note_on_c, 9, 40, 0
7, 35568, Note_on_c, 9, 35, 110
7, 35614, Note_on_c, 9, 35, 0
7, 35664, Note_on_c, 9, 35, 110
7, 35710, Note_on_c, 9, 35, 0
7, 35808, Note_on_c, 9, 35, 110
7, 35902, Note_on_c, 9, 35, 0
7, 35904, Note_on_c, 9, 40, 110
7, 35950, Note_on_c, 9, 40, 0
7, 35952, Note_on_c, 9, 35, 110
7, 36046, Note_on_c, 9, 35, 0
7, 36096, Note_on_c, 9, 35, 110
7, 36190, Note_on_c, 9, 35, 0
7, 36240, Note_on_c, 9, 35, 110
7, 36286, Note_on_c, 9, 35, 0
7, 36288, Note_on_c, 9, 40, 110
7, 36448, Note_on_c, 9, 40, 0
7, 36672, Note_on_c, 9, 40, 110
7, 36766, Note_on_c, 9, 40, 0
7, 36768, Note_on_c, 9, 35, 110
7, 36862, Note_on_c, 9, 35, 0
7, 36864, Note_on_c, 9, 35, 110
7, 37024, Note_on_c, 9, 35, 0
7, 37056, Note_on_c, 9, 40, 110
7, 37216, Note_on_c, 9, 40, 0
7, 37440, Note_on_c, 9, 40, 110
7, 37486, Note_on_c, 9, 40, 0
7, 37488, Note_on_c, 9, 35, 110
7, 37582, Note_on_c, 9, 35, 0
7, 37632, Note_on_c, 9, 35, 110
7, 37726, Note_on_c, 9, 35, 0
7, 37776, Note_on_c, 9, 35, 110
7, 37822, Note_on_c, 9, 35, 0
7, 37824, Note_on_c, 9, 40, 110
7, 37984, Note_on_c, 9, 40, 0
7, 38208, Note_on_c, 9, 40, 110
7, 38368, Note_on_c, 9, 40, 0
7, 38400, Note_on_c, 9, 35, 110
7, 38494, Note_on_c, 9, 35, 0
7, 38544, Note_on_c, 9, 35, 110
7, 38590, Note_on_c, 9, 35, 0
7, 38592, Note_on_c, 9, 40, 110
7, 38638, Note_on_c, 9, 40, 0
7, 38640, Note_on_c, 9, 35, 110
7, 38686, Note_on_c, 9, 35, 0
7, 38736, Note_on_c, 9, 35, 110
7, 38782, Note_on_c, 9, 35, 0
7, 38880, Note_on_c, 9, 35, 110
7, 38974, Note_on_c, 9, 35, 0
7, 38976, Note_on_c, 9, 40, 110
7, 39022, Note_on_c, 9, 40, 0
7, 39024, Note_on_c, 9, 35, 110
7, 39118, Note_on_c, 9, 35, 0
7, 39168, Note_on_c, 9, 35, 110
7, 39262, Note_on_c, 9, 35, 0
7, 39312, Note_on_c, 9, 35, 110
7, 39358, Note_on_c, 9, 35, 0
7, 39360, Note_on_c, 9, 40, 110
7, 39520, Note_on_c, 9, 40, 0
7, 39744, Note_on_c, 9, 40, 110
7, 39838, Note_on_c, 9, 40, 0
7, 39840, Note_on_c, 9, 35, 110
7, 39934, Note_on_c, 9, 35, 0
7, 39936, Note_on_c, 9, 35, 110
7, 40096, Note_on_c, 9, 35, 0
7, 40128, Note_on_c, 9, 40, 110
7, 40288, Note_on_c, 9, 40, 0
7, 40512, Note_on_c, 9, 40, 110
7, 40558, Note_on_c, 9, 40, 0
7, 40560, Note_on_c, 9, 35, 110
7, 40654, Note_on_c, 9, 35, 0
7, 40704, Note_on_c, 9, 35, 110
7, 40798, Note_on_c, 9, 35, 0
7, 40848, Note_on_c, 9, 35, 110
7, 40894, Note_on_c, 9, 35, 0
7, 40896, Note_on_c, 9, 40, 110
7, 41056, Note_on_c, 9, 40, 0
7, 41280, Note_on_c, 9, 40, 110
7, 41440, Note_on_c, 9, 40, 0
7, 41472, Note_on_c, 9, 35, 110
7, 41566, Note_on_c, 9, 35, 0
7, 41616, Note_on_c, 9, 35, 110
7, 41662, Note_on_c, 9, 35, 0
7, 41664, Note_on_c, 9, 40, 110
7, 41710, Note_on_c, 9, 40, 0
7, 41712, Note_on_c, 9, 35, 110
7, 41758, Note_on_c, 9, 35, 0
7, 41808, Note_on_c, 9, 35, 110
7, 41854, Note_on_c, 9, 35, 0
7, 41952, Note_on_c, 9, 35, 110
7, 42046, Note_on_c, 9, 35, 0
7, 42048, Note_on_c, 9, 40, 110
7, 42094, Note_on_c, 9, 40, 0
7, 42096, Note_on_c, 9, 35, 110
7, 42190, Note_on_c, 9, 35, 0
7, 42240, Note_on_c, 9, 35, 110
7, 42334, Note_on_c, 9, 35, 0
7, 42384, Note_on_c, 9, 35, 110
7, 42430, Note_on_c, 9, 35, 0
7, 42432, Note_on_c, 9, 40, 110
7, 42592, Note_on_c, 9, 40, 0
7, 42816, Note_on_c, 9, 40, 110
7, 42910, Note_on_c, 9, 40, 0
7, 42912, Note_on_c, 9, 35, 110
7, 43006, Note_on_c, 9, 35, 0
7, 43008, Note_on_c, 9, 35, 110
7, 43168, Note_on_c, 9, 35, 0
7, 43200, Note_on_c, 9, 40, 110
7, 43360, Note_on_c, 9, 40, 0
7, 43584, Note_on_c, 9, 40, 110
7, 43630, Note_on_c, 9, 40, 0
7, 43632, Note_on_c, 9, 35, 110
7, 43726, Note_on_c, 9, 35, 0
7, 43776, Note_on_c, 9, 35, 110
7, 43870, Note_on_c, 9, 35, 0
7, 43920, Note_on_c, 9, 35, 110
7, 43966, Note_on_c, 9, 35, 0
7, 43968, Note_on_c, 9, 40, 110
7, 44128, Note_on_c, 9, 40, 0
7, 44352, Note_on_c, 9, 40, 110
7, 44512, Note_on_c, 9, 40, 0
7, 44544, Note_on_c, 9, 35, 110
7, 44638, Note_on_c, 9, 35, 0
7, 44688, Note_on_c, 9, 35, 110
7, 44734, Note_on_c, 9, 35, 0
7, 44736, Note_on_c, 9, 40, 110
7, 44782, Note_on_c, 9, 40, 0
7, 44784, Note_on_c, 9, 35, 110
7, 44830, Note_on_c, 9, 35, 0
7, 44880, Note_on_c, 9, 35, 110
7, 44926, Note_on_c, 9, 35, 0
7, 45024, Note_on_c, 9, 35, 110
7, 45118, Note_on_c, 9, 35, 0
7, 45120, Note_on_c, 9, 40, 110
7, 45166, Note_on_c, 9, 40, 0
7, 45168, Note_on_c, 9, 35, 110
7, 45262, Note_on_c, 9, 35, 0
7, 45312, Note_on_c, 9, 35, 110
7, 45406, Note_on_c, 9, 35, 0
7, 45456, Note_on_c, 9, 35, 110
7, 45502, Note_on_c, 9, 35, 0
7, 45504, Note_on_c, 9, 40, 110
7, 45664, Note_on_c, 9, 40, 0
7, 45888, Note_on_c, 9, 40, 110
7, 45982, Note_on_c, 9, 40, 0
7, 45984, Note_on_c, 9, 35, 110
7, 46078, Note_on_c, 9, 35, 0
7, 47424, Note_on_c, 9, 40, 110
7, 47584, Note_on_c, 9, 40, 0
7, 47616, Note_on_c, 9, 35, 110
7, 47710, Note_on_c, 9, 35, 0
7, 47760, Note_on_c, 9, 35, 110
7, 47806, Note_on_c, 9, 35, 0
7, 47808, Note_on_c, 9, 40, 110
7, 47854, Note_on_c, 9, 40, 0
7, 47856, Note_on_c, 9, 35, 110
7, 47902, Note_on_c, 9, 35, 0
7, 47952, Note_on_c, 9, 35, 110
7, 47998, Note_on_c, 9, 35, 0
7, 48096, Note_on_c, 9, 35, 110
7, 48190, Note_on_c, 9, 35, 0
7, 48192, Note_on_c, 9, 40, 110
7, 48238, Note_on_c, 9, 40, 0
7, 48240, Note_on_c, 9, 35, 110
7, 48334, Note_on_c, 9, 35, 0
7, 48384, Note_on_c, 9, 35, 110
7, 48478, Note_on_c, 9, 35, 0
7, 48528, Note_on_c, 9, 35, 110
7, 48574, Note_on_c, 9, 35, 0
7, 48576, Note_on_c, 9, 40, 110
7, 48736, Note_on_c, 9, 40, 0
7, 48960, Note_on_c, 9, 40, 110
7, 49054, Note_on_c, 9, 40, 0
7, 49056, Note_on_c, 9, 35, 110
7, 49150, Note_on_c, 9, 35, 0
7, 49152, Note_on_c, 9, 35, 110
7, 49312, Note_on_c, 9, 35, 0
7, 49344, Note_on_c, 9, 40, 110
7, 49504, Note_on_c, 9, 40, 0
7, 49728, Note_on_c, 9, 40, 110
7, 49774, Note_on_c, 9, 40, 0
7, 49776, Note_on_c, 9, 35, 110
7, 49870, Note_on_c, 9, 35, 0
7, 49920, Note_on_c, 9, 35, 110
7, 50014, Note_on_c, 9, 35, 0
7, 50064, Note_on_c, 9, 35, 110
7, 50110, Note_on_c, 9, 35, 0
7, 50112, Note_on_c, 9, 40, 110
7, 50272, Note_on_c, 9, 40, 0
7, 50496, Note_on_c, 9, 40, 110
7, 50656, Note_on_c, 9, 40, 0
7, 50688, Note_on_c, 9, 35, 110
7, 50782, Note_on_c, 9, 35, 0
7, 50832, Note_on_c, 9, 35, 110
7, 50878, Note_on_c, 9, 35, 0
7, 50880, Note_on_c, 9, 40, 110
7, 50926, Note_on_c, 9, 40, 0
7, 50928, Note_on_c, 9, 35, 110
7, 50974, Note_on_c, 9, 35, 0
7, 51024, Note_on_c, 9, 35, 110
7, 51070, Note_on_c, 9, 35, 0
7, 51168, Note_on_c, 9, 35, 110
7, 51262, Note_on_c, 9, 35, 0
7, 51264, Note_on_c, 9, 40, 110
7, 51310, Note_on_c, 9, 40, 0
7, 51312, Note_on_c, 9, 35, 110
7, 51406, Note_on_c, 9, 35, 0
7, 51456, Note_on_c, 9, 35, 110
7, 51550, Note_on_c, 9, 35, 0
7, 51600, Note_on_c, 9, 35, 110
7, 51646, Note_on_c, 9, 35, 0
7, 51648, Note_on_c, 9, 40, 110
7, 51808, Note_on_c, 9, 40, 0
7, 52032, Note_on_c, 9, 40, 110
7, 52126, Note_on_c, 9, 40, 0
7, 52128, Note_on_c, 9, 35, 110
7, 52222, Note_on_c, 9, 35, 0
7, 52224, Note_on_c, 9, 35, 110
7, 52384, Note_on_c, 9, 35, 0
7, 52416, Note_on_c, 9, 40, 110
7, 52576, Note_on_c, 9, 40, 0
7, 52800, Note_on_c, 9, 40, 110
7, 52846, Note_on_c, 9, 40, 0
7, 52848, Note_on_c, 9, 35, 110
7, 52942, Note_on_c, 9, 35, 0
7, 52992, Note_on_c, 9, 35, 110
7, 53086, Note_on_c, 9, 35, 0
7, 53136, Note_on_c, 9, 35, 110
7, 53182, Note_on_c, 9, 35, 0
7, 53184, Note_on_c, 9, 40, 110
7, 53344, Note_on_c, 9, 40, 0
7, 53568, Note_on_c, 9, 40, 110
7, 53728, Note_on_c, 9, 40, 0
7, 53760, Note_on_c, 9, 35, 110
7, 53854, Note_on_c, 9, 35, 0
7, 53904, Note_on_c, 9, 35, 110
7, 53950, Note_on_c, 9, 35, 0
7, 53952, Note_on_c, 9, 40, 110
7, 53998, Note_on_c, 9, 40, 0
7, 54000, Note_on_c, 9, 35, 110
7, 54046, Note_on_c, 9, 35, 0
7, 54096, Note_on_c, 9, 35, 110
7, 54142, Note_on_c, 9, 35, 0
7, 54240, Note_on_c, 9, 35, 110
7, 54334, Note_on_c, 9, 35, 0
7, 54336, Note_on_c, 9, 40, 110
7, 54382, Note_on_c, 9, 40, 0
7, 54384, Note_on_c, 9, 35, 110
7, 54478, Note_on_c, 9, 35, 0
7, 54528, Note_on_c, 9, 35, 110
7, 54622, Note_on_c, 9, 35, 0
7, 54672, Note_on_c, 9, 35, 110
7, 54718, Note_on_c, 9, 35, 0
7, 54720, Note_on_c, 9, 40, 110
7, 54880, Note_on_c, 9, 40, 0
7, 55104, Note_on_c, 9, 40, 110
7, 55198, Note_on_c, 9, 40, 0
7, 55200, Note_on_c, 9, 35, 110
7, 55294, Note_on_c, 9, 35, 0
7, 55296, Note_on_c, 9, 35, 110
7, 55456, Note_on_c, 9, 35, 0
7, 55488, Note_on_c, 9, 40, 110
7, 55648, Note_on_c, 9, 40, 0
7, 55872, Note_on_c, 9, 40, 110
7, 55918, Note_on_c, 9, 40, 0
7, 55920, Note_on_c, 9, 35, 110
7, 56014, Note_on_c, 9, 35, 0
7, 56064, Note_on_c, 9, 35, 110
7, 56158, Note_on_c, 9, 35, 0
7, 56208, Note_on_c, 9, 35, 110
7, 56254, Note_on_c, 9, 35, 0
7, 56256, Note_on_c, 9, 40, 110
7, 56416, Note_on_c, 9, 40, 0
7, 56640, Note_on_c, 9, 40, 110
7, 56800, Note_on_c, 9, 40, 0
7, 56832, Note_on_c, 9, 35, 110
7, 56926, Note_on_c, 9, 35, 0
7, 56976, Note_on_c, 9, 35, 110
7, 57022, Note_on_c, 9, 35, 0
7, 57024, Note_on_c, 9, 40, 110
7, 57070, Note_on_c, 9, 40, 0
7, 57072, Note_on_c, 9, 35, 110
7, 57118, Note_on_c, 9, 35, 0
7, 57168, Note_on_c, 9, 35, 110
7, 57214, Note_on_c, 9, 35, 0
7, 57312, Note_on_c, 9, 35, 110
7, 57406, Note_on_c, 9, 35, 0
7, 57408, Note_on_c, 9, 40, 110
7, 57454, Note_on_c, 9, 40, 0
7, 57456, Note_on_c, 9, 35, 110
7, 57550, Note_on_c, 9, 35, 0
7, 57600, Note_on_c, 9, 35, 110
7, 57694, Note_on_c, 9, 35, 0
7, 57744, Note_on_c, 9, 35, 110
7, 57790, Note_on_c, 9, 35, 0
7, 57792, Note_on_c, 9, 40, 110
7, 57952, Note_on_c, 9, 40, 0
7, 58176, Note_on_c, 9, 40, 110
7, 58270, Note_on_c, 9, 40, 0
7, 58272, Note_on_c, 9, 35, 110
7, 58366, Note_on_c, 9, 35, 0
7, 58368, Note_on_c, 9, 35, 110
7, 58528, Note_on_c, 9, 35, 0
7, 58560, Note_on_c, 9, 40, 110
7, 58720, Note_on_c, 9, 40, 0
7, 58944, Note_on_c, 9, 40, 110
7, 58990, Note_on_c, 9, 40, 0
7, 58992, Note_on_c, 9, 35, 110
7, 59086, Note_on_c, 9, 35, 0
7, 59136, Note_on_c, 9, 35, 110
7, 59230, Note_on_c, 9, 35, 0
7, 59280, Note_on_c, 9, 35, 110
7, 59326, Note_on_c, 9, 35, 0
7, 59328, Note_on_c, 9, 40, 110
7, 59488, Note_on_c, 9, 40, 0
7, 59712, Note_on_c, 9, 40, 110
7, 59872, Note_on_c, 9, 40, 0
7, 59904, Note_on_c, 9, 35, 110
7, 59998, Note_on_c, 9, 35, 0
7, 60048, Note_on_c, 9, 35, 110
7, 60094, Note_on_c, 9, 35, 0
7, 60096, Note_on_c, 9, 40, 110
7, 60142, Note_on_c, 9, 40, 0
7, 60144, Note_on_c, 9, 35, 110
7, 60190, Note_on_c, 9, 35, 0
7, 60240, Note_on_c, 9, 35, 110
7, 60286, Note_on_c, 9, 35, 0
7, 60384, Note_on_c, 9, 35, 110
7, 60478, Note_on_c, 9, 35, 0
7, 60480, Note_on_c, 9, 40, 110
7, 60526, Note_on_c, 9, 40, 0
7, 60528, Note_on_c, 9, 35, 110
7, 60622, Note_on_c, 9, 35, 0
7, 60672, Note_on_c, 9, 35, 110
7, 60766, Note_on_c, 9, 35, 0
7, 60816, Note_on_c, 9, 35, 110
7, 60862, Note_on_c, 9, 35, 0
7, 60864, Note_on_c, 9, 40, 110
7, 61024, Note_on_c, 9, 40, 0
7, 61248, Note_on_c, 9, 40, 110
7, 61342, Note_on_c, 9, 40, 0
7, 61344, Note_on_c, 9, 35, 110
7, 61438, Note_on_c, 9, 35, 0
7, 61440, Note_on_c, 9, 35, 110
7, 61600, Note_on_c, 9, 35, 0
7, 61632, Note_on_c, 9, 40, 110
7, 61792, Note_on_c, 9, 40, 0
7, 62016, Note_on_c, 9, 40, 110
7, 62062, Note_on_c, 9, 40, 0
7, 62064, Note_on_c, 9, 35, 110
7, 62158, Note_on_c, 9, 35, 0
7, 62208, Note_on_c, 9, 35, 110
7, 62302, Note_on_c, 9, 35, 0
7, 62352, Note_on_c, 9, 35, 110
7, 62398, Note_on_c, 9, 35, 0
7, 62400, Note_on_c, 9, 40, 110
7, 62560, Note_on_c, 9, 40, 0
7, 62784, Note_on_c, 9, 40, 110
7, 62944, Note_on_c, 9, 40, 0
7, 62976, Note_on_c, 9, 35, 110
7, 63070, Note_on_c, 9, 35, 0
7, 63120, Note_on_c, 9, 35, 110
7, 63166, Note_on_c, 9, 35, 0
7, 63168, Note_on_c, 9, 40, 110
7, 63214, Note_on_c, 9, 40, 0
7, 63216, Note_on_c, 9, 35, 110
7, 63262, Note_on_c, 9, 35, 0
7, 63312, Note_on_c, 9, 35, 110
7, 63358, Note_on_c, 9, 35, 0
7, 63456, Note_on_c, 9, 35, 110
7, 63550, Note_on_c, 9, 35, 0
7, 63552, Note_on_c, 9, 40, 110
7, 63598, Note_on_c, 9, 40, 0
7, 63600, Note_on_c, 9, 35, 110
7, 63694, Note_on_c, 9, 35, 0
7, 63744, Note_on_c, 9, 35, 110
7, 63838, Note_on_c, 9, 35, 0
7, 63888, Note_on_c, 9, 35, 110
7, 63934, Note_on_c, 9, 35, 0
7, 63936, Note_on_c, 9, 40, 110
7, 64096, Note_on_c, 9, 40, 0
7, 64320, Note_on_c, 9, 40, 110
7, 64414, Note_on_c, 9, 40, 0
7, 64416, Note_on_c, 9, 35, 110
7, 64510, Note_on_c, 9, 35, 0
7, 64512, Note_on_c, 9, 35, 110
7, 64672, Note_on_c, 9, 35, 0
7, 64704, Note_on_c, 9, 40, 110
7, 64864, Note_on_c, 9, 40, 0
7, 65088, Note_on_c, 9, 40, 110
7, 65134, Note_on_c, 9, 40, 0
7, 65136, Note_on_c, 9, 35, 110
7, 65230, Note_on_c, 9, 35, 0
7, 65280, Note_on_c, 9, 35, 110
7, 65374, Note_on_c, 9, 35, 0
7, 65424, Note_on_c, 9, 35, 110
7, 65470, Note_on_c, 9, 35, 0
7, 65472, Note_on_c, 9, 40, 110
7, 65632, Note_on_c, 9, 40, 0
7, 65856, Note_on_c, 9, 40, 110
7, 66016, Note_on_c, 9, 40, 0
7, 66048, Note_on_c, 9, 35, 110
7, 66142, Note_on_c, 9, 35, 0
7, 66192, Note_on_c, 9, 35, 110
7, 66238, Note_on_c, 9, 35, 0
7, 66240, Note_on_c, 9, 40, 110
7, 66286, Note_on_c, 9, 40, 0
7, 66288, Note_on_c, 9, 35, 110
7, 66334, Note_on_c, 9, 35, 0
7, 66384, Note_on_c, 9, 35, 110
7, 66430, Note_on_c, 9, 35, 0
7, 66528, Note_on_c, 9, 35, 110
7, 66622, Note_on_c, 9, 35, 0
7, 66624, Note_on_c, 9, 40, 110
7, 66670, Note_on_c, 9, 40, 0
7, 66672, Note_on_c, 9, 35, 110
7, 66766, Note_on_c, 9, 35, 0
7, 66816, Note_on_c, 9, 35, 110
7, 66910, Note_on_c, 9, 35, 0
7, 66960, Note_on_c, 9, 35, 110
7, 67006, Note_on_c, 9, 35, 0
7, 67008, Note_on_c, 9, 40, 110
7, 67168, Note_on_c, 9, 40, 0
7, 67392, Note_on_c, 9, 40, 110
7, 67486, Note_on_c, 9, 40, 0
7, 67488, Note_on_c, 9, 35, 110
7, 67582, Note_on_c, 9, 35, 0
7, 67584, Note_on_c, 9, 35, 110
7, 67744, Note_on_c, 9, 35, 0
7, 67776, Note_on_c, 9, 40, 110
7, 67936, Note_on_c, 9, 40, 0
7, 68160, Note_on_c, 9, 40, 110
7, 68206, Note_on_c, 9, 40, 0
7, 68208, Note_on_c, 9, 35, 110
7, 68302, Note_on_c, 9, 35, 0
7, 68352, Note_on_c, 9, 35, 110
7, 68446, Note_on_c, 9, 35, 0
7, 68496, Note_on_c, 9, 35, 110
7, 68542, Note_on_c, 9, 35, 0
7, 68544, Note_on_c, 9, 40, 110
7, 68704, Note_on_c, 9, 40, 0
7, 68928, Note_on_c, 9, 40, 110
7, 69088, Note_on_c, 9, 40, 0
7, 69120, Note_on_c, 9, 35, 110
7, 69214, Note_on_c, 9, 35, 0
7, 69264, Note_on_c, 9, 35, 110
7, 69310, Note_on_c, 9, 35, 0
7, 69312, Note_on_c, 9, 40, 110
7, 69358, Note_on_c, 9, 40, 0
7, 69360, Note_on_c, 9, 35, 110
7, 69406, Note_on_c, 9, 35, 0
7, 69456, Note_on_c, 9, 35, 110
7, 69502, Note_on_c, 9, 35, 0
7, 69600, Note_on_c, 9, 35, 110
7, 69694, Note_on_c, 9, 35, 0
7, 69696, Note_on_c, 9, 40, 110
7, 69742, Note_on_c, 9, 40, 0
7, 69744, Note_on_c, 9, 35, 110
7, 69838, Note_on_c, 9, 35, 0
7, 69888, Note_on_c, 9, 35, 110
7, 69982, Note_on_c, 9, 35, 0
7, 70032, Note_on_c, 9, 35, 110
7, 70078, Note_on_c, 9, 35, 0
7, 70080, Note_on_c, 9, 40, 110
7, 70240, Note_on_c, 9, 40, 0
7, 70464, Note_on_c, 9, 40, 110
7, 70558, Note_on_c, 9, 40, 0
7, 70560, Note_on_c, 9, 35, 110
7, 70654, Note_on_c, 9, 35, 0
7, 70656, Note_on_c, 9, 35, 110
7, 70816, Note_on_c, 9, 35, 0
7, 70848, Note_on_c, 9, 40, 110
7, 71008, Note_on_c, 9, 40, 0
7, 71232, Note_on_c, 9, 40, 110
7, 71278, Note_on_c, 9, 40, 0
7, 71280, Note_on_c, 9, 35, 110
7, 71374, Note_on_c, 9, 35, 0
7, 71424, Note_on_c, 9, 35, 110
7, 71518, Note_on_c, 9, 35, 0
7, 71568, Note_on_c, 9, 35, 110
7, 71614, Note_on_c, 9, 35, 0
7, 71616, Note_on_c, 9, 40, 110
7, 71776, Note_on_c, 9, 40, 0
7, 72000, Note_on_c, 9, 40, 110
7, 72160, Note_on_c, 9, 40, 0
7, 72192, Note_on_c, 9, 35, 110
7, 72286, Note_on_c, 9, 35, 0
7, 72336, Note_on_c, 9, 35, 110
7, 72382, Note_on_c, 9, 35, 0
7, 72384, Note_on_c, 9, 40, 110
7, 72430, Note_on_c, 9, 40, 0
7, 72432, Note_on_c, 9, 35, 110
7, 72478, Note_on_c, 9, 35, 0
7, 72528, Note_on_c, 9, 35, 110
7, 72574, Note_on_c, 9, 35, 0
7, 72672, Note_on_c, 9, 35, 110
7, 72766, Note_on_c, 9, 35, 0
7, 72768, Note_on_c, 9, 40, 110
7, 72814, Note_on_c, 9, 40, 0
7, 72816, Note_on_c, 9, 35, 110
7, 72910, Note_on_c, 9, 35, 0
7, 72960, Note_on_c, 9, 35, 110
7, 73054, Note_on_c, 9, 35, 0
7, 73104, Note_on_c, 9, 35, 110
7, 73150, Note_on_c, 9, 35, 0
7, 73152, Note_on_c, 9, 40, 110
7, 73312, Note_on_c, 9, 40, 0
7, 73536, Note_on_c, 9, 40, 110
7, 73630, Note_on_c, 9, 40, 0
7, 73632, Note_on_c, 9, 35, 110
7, 73726, Note_on_c, 9, 35, 0
7, 73728, Note_on_c, 9, 35, 110
7, 73888, Note_on_c, 9, 35, 0
7, 73920, Note_on_c, 9, 40, 110
7, 74080, Note_on_c, 9, 40, 0
7, 74304, Note_on_c, 9, 40, 110
7, 74350, Note_on_c, 9, 40, 0
7, 74352, Note_on_c, 9, 35, 110
7, 74446, Note_on_c, 9, 35, 0
7, 74496, Note_on_c, 9, 35, 110
7, 74590, Note_on_c, 9, 35, 0
7, 74640, Note_on_c, 9, 35, 110
7, 74686, Note_on_c, 9, 35, 0
7, 74688, Note_on_c, 9, 40, 110
7, 74848, Note_on_c, 9, 40, 0
7, 75072, Note_on_c, 9, 40, 110
7, 75232, Note_on_c, 9, 40, 0
7, 75264, Note_on_c, 9, 35, 110
7, 75358, Note_on_c, 9, 35, 0
7, 75408, Note_on_c, 9, 35, 110
7, 75454, Note_on_c, 9, 35, 0
7, 75456, Note_on_c, 9, 40, 110
7, 75502, Note_on_c, 9, 40, 0
7, 75504, Note_on_c, 9, 35, 110
7, 75550, Note_on_c, 9, 35, 0
7, 75600, Note_on_c, 9, 35, 110
7, 75646, Note_on_c, 9, 35, 0
7, 75744, Note_on_c, 9, 35, 110
7, 75838, Note_on_c, 9, 35, 0
7, 75840, Note_on_c, 9, 40, 110
7, 75886, Note_on_c, 9, 40, 0
7, 75888, Note_on_c, 9, 35, 110
7, 75982, Note_on_c, 9, 35, 0
7, 76032, Note_on_c, 9, 35, 110
7, 76126, Note_on_c, 9, 35, 0
7, 76176, Note_on_c, 9, 35, 110
7, 76222, Note_on_c, 9, 35, 0
7, 76224, Note_on_c, 9, 40, 110
7, 76384, Note_on_c, 9, 40, 0
7, 76608, Note_on_c, 9, 40, 110
7, 76702, Note_on_c, 9, 40, 0
7, 76704, Note_on_c, 9, 35, 110
7, 76798, Note_on_c, 9, 35, 0
7, 76800, Note_on_c, 9, 35, 110
7, 76960, Note_on_c, 9, 35, 0
7, 76992, Note_on_c, 9, 40, 110
7, 77152, Note_on_c, 9, 40, 0
7, 77376, Note_on_c, 9, 40, 110
7, 77422, Note_on_c, 9, 40, 0
7, 77424, Note_on_c, 9, 35, 110
7, 77518, Note_on_c, 9, 35, 0
7, 77568, Note_on_c, 9, 35, 110
7, 77662, Note_on_c, 9, 35, 0
7, 77712, Note_on_c, 9, 35, 110
7, 77758, Note_on_c, 9, 35, 0
7, 77760, Note_on_c, 9, 40, 110
7, 77920, Note_on_c, 9, 40, 0
7, 78144, Note_on_c, 9, 40, 110
7, 78304, Note_on_c, 9, 40, 0
7, 78336, Note_on_c, 9, 35, 110
7, 78430, Note_on_c, 9, 35, 0
7, 78480, Note_on_c, 9, 35, 110
7, 78526, Note_on_c, 9, 35, 0
7, 78528, Note_on_c, 9, 40, 110
7, 78574, Note_on_c, 9, 40, 0
7, 78576, Note_on_c, 9, 35, 110
7, 78622, Note_on_c, 9, 35, 0
7, 78672, Note_on_c, 9, 35, 110
7, 78718, Note_on_c, 9, 35, 0
7, 78816, Note_on_c, 9, 35, 110
7, 78910, Note_on_c, 9, 35, 0
7, 78912, Note_on_c, 9, 40, 110
7, 78958, Note_on_c, 9, 40, 0
7, 78960, Note_on_c, 9, 35, 110
7, 79054, Note_on_c, 9, 35, 0
7, 79104, Note_on_c, 9, 35, 110
7, 79198, Note_on_c, 9, 35, 0
7, 79248, Note_on_c, 9, 35, 110
7, 79294, Note_on_c, 9, 35, 0
7, 79296, Note_on_c, 9, 40, 110
7, 79456, Note_on_c, 9, 40, 0
7, 79680, Note_on_c, 9, 40, 110
7, 79774, Note_on_c, 9, 40, 0
7, 79776, Note_on_c, 9, 35, 110
7, 79870, Note_on_c, 9, 35, 0
7, 79872, Note_on_c, 9, 35, 110
7, 80032, Note_on_c, 9, 35, 0
7, 80064, Note_on_c, 9, 40, 110
7, 80224, Note_on_c, 9, 40, 0
7, 80448, Note_on_c, 9, 40, 110
7, 80494, Note_on_c, 9, 40, 0
7, 80496, Note_on_c, 9, 35, 110
7, 80590, Note_on_c, 9, 35, 0
7, 80640, Note_on_c, 9, 35, 110
7, 80734, Note_on_c, 9, 35, 0
7, 80784, Note_on_c, 9, 35, 110
7, 80830, Note_on_c, 9, 35, 0
7, 80832, Note_on_c, 9, 40, 110
7, 80992, Note_on_c, 9, 40, 0
7, 81216, Note_on_c, 9, 40, 110
7, 81376, Note_on_c, 9, 40, 0
7, 81408, Note_on_c, 9, 35, 110
7, 81502, Note_on_c, 9, 35, 0
7, 81552, Note_on_c, 9, 35, 110
7, 81598, Note_on_c, 9, 35, 0
7, 81600, Note_on_c, 9, 40, 110
7, 81646, Note_on_c, 9, 40, 0
7, 81648, Note_on_c, 9, 35, 110
7, 81694, Note_on_c, 9, 35, 0
7, 81744, Note_on_c, 9, 35, 110
7, 81790, Note_on_c, 9, 35, 0
7, 81888, Note_on_c, 9, 35, 110
7, 81982, Note_on_c, 9, 35, 0
7, 81984, Note_on_c, 9, 40, 110
7, 82030, Note_on_c, 9, 40, 0
7, 82032, Note_on_c, 9, 35, 110
7, 82126, Note_on_c, 9, 35, 0
7, 82176, Note_on_c, 9, 35, 110
7, 82270, Note_on_c, 9, 35, 0
7, 82320, Note_on_c, 9, 35, 110
7, 82366, Note_on_c, 9, 35, 0
7, 82368, Note_on_c, 9, 40, 110
7, 82528, Note_on_c, 9, 40, 0
7, 82752, Note_on_c, 9, 40, 110
7, 82846, Note_on_c, 9, 40, 0
7, 82848, Note_on_c, 9, 35, 110
7, 82942, Note_on_c, 9, 35, 0
7, 82944, Note_on_c, 9, 35, 110
7, 83104, Note_on_c, 9, 35, 0
7, 83136, Note_on_c, 9, 40, 110
7, 83296, Note_on_c, 9, 40, 0
7, 83520, Note_on_c, 9, 40, 110
7, 83566, Note_on_c, 9, 40, 0
7, 83568, Note_on_c, 9, 35, 110
7, 83662, Note_on_c, 9, 35, 0
7, 83712, Note_on_c, 9, 35, 110
7, 83806, Note_on_c, 9, 35, 0
7, 83856, Note_on_c, 9, 35, 110
7, 83902, Note_on_c, 9, 35, 0
7, 83904, Note_on_c, 9, 40, 110
7, 84064, Note_on_c, 9, 40, 0
7, 84288, Note_on_c, 9, 40, 110
7, 84448, Note_on_c, 9, 40, 0
7, 84480, Note_on_c, 9, 35, 110
7, 84574, Note_on_c, 9, 35, 0
7, 84624, Note_on_c, 9, 35, 110
7, 84670, Note_on_c, 9, 35, 0
7, 84672, Note_on_c, 9, 40, 110
7, 84718, Note_on_c, 9, 40, 0
7, 84720, Note_on_c, 9, 35, 110
7, 84766, Note_on_c, 9, 35, 0
7, 84816, Note_on_c, 9, 35, 110
7, 84862, Note_on_c, 9, 35, 0
7, 84960, Note_on_c, 9, 35, 110
7, 85054, Note_on_c, 9, 35, 0
7, 85056, Note_on_c, 9, 40, 110
7, 85102, Note_on_c, 9, 40, 0
7, 85104, Note_on_c, 9, 35, 110
7, 85198, Note_on_c, 9, 35, 0
7, 85248, Note_on_c, 9, 35, 110
7, 85342, Note_on_c, 9, 35, 0
7, 85392, Note_on_c, 9, 35, 110
7, 85438, Note_on_c, 9, 35, 0
7, 85440, Note_on_c, 9, 40, 110
7, 85600, Note_on_c, 9, 40, 0
7, 85824, Note_on_c, 9, 40, 110
7, 85918, Note_on_c, 9, 40, 0
7, 85920, Note_on_c, 9, 35, 110
7, 86014, Note_on_c, 9, 35, 0
7, 86014, End_track
8, 0, Start_track
8, 0, MIDI_port, 0
8, 0, Title_t, "Staff-6"
8, 0, Control_c, 3, 7, 110
8, 0, Control_c, 3, 10, 64
8, 0, Program_c, 3, 81
8, 6144, Note_on_c, 3, 37, 110
8, 6192, Note_on_c, 3, 37, 0
8, 6192, Note_on_c, 3, 25, 110
8, 6240, Note_on_c, 3, 25, 0
8, 6240, Note_on_c, 3, 40, 110
8, 6288, Note_on_c, 3, 40, 0
8, 6288, Note_on_c, 3, 28, 110
8, 6336, Note_on_c, 3, 28, 0
8, 6384, Note_on_c, 3, 30, 110
8, 6432, Note_on_c, 3, 30, 0
8, 6480, Note_on_c, 3, 28, 110
8, 6528, Note_on_c, 3, 28, 0
8, 6528, Note_on_c, 3, 25, 110
8, 6576, Note_on_c, 3, 25, 0
8, 6576, Note_on_c, 3, 37, 110
8, 6624, Note_on_c, 3, 37, 0
8, 6624, Note_on_c, 3, 25, 110
8, 6672, Note_on_c, 3, 25, 0
8, 6672, Note_on_c, 3, 40, 110
8, 6720, Note_on_c, 3, 40, 0
8, 6768, Note_on_c, 3, 37, 110
8, 6816, Note_on_c, 3, 37, 0
8, 6864, Note_on_c, 3, 25, 110
8, 6912, Note_on_c, 3, 25, 0
8, 6912, Note_on_c, 3, 37, 110
8, 6960, Note_on_c, 3, 37, 0
8, 6960, Note_on_c, 3, 25, 110
8, 7008, Note_on_c, 3, 25, 0
8, 7056, Note_on_c, 3, 25, 110
8, 7104, Note_on_c, 3, 25, 0
8, 7104, Note_on_c, 3, 42, 110
8, 7152, Note_on_c, 3, 42, 0
8, 7152, Note_on_c, 3, 25, 110
8, 7200, Note_on_c, 3, 25, 0
8, 7200, Note_on_c, 3, 40, 110
8, 7248, Note_on_c, 3, 40, 0
8, 7248, Note_on_c, 3, 25, 110
8, 7296, Note_on_c, 3, 25, 0
8, 7296, Note_on_c, 3, 37, 110
8, 7344, Note_on_c, 3, 37, 0
8, 7344, Note_on_c, 3, 25, 110
8, 7392, Note_on_c, 3, 25, 0
8, 7440, Note_on_c, 3, 25, 110
8, 7488, Note_on_c, 3, 25, 0
8, 7488, Note_on_c, 3, 42, 110
8, 7536, Note_on_c, 3, 42, 0
8, 7536, Note_on_c, 3, 25, 110
8, 7584, Note_on_c, 3, 25, 0
8, 7584, Note_on_c, 3, 40, 110
8, 7632, Note_on_c, 3, 40, 0
8, 7632, Note_on_c, 3, 25, 110
8, 7680, Note_on_c, 3, 25, 0
8, 7680, Note_on_c, 3, 44, 110
8, 7728, Note_on_c, 3, 44, 0
8, 7728, Note_on_c, 3, 32, 110
8, 7776, Note_on_c, 3, 32, 0
8, 7776, Note_on_c, 3, 39, 110
8, 7824, Note_on_c, 3, 39, 0
8, 7824, Note_on_c, 3, 32, 110
8, 7872, Note_on_c, 3, 32, 0
8, 7872, Note_on_c, 3, 56, 110
8, 7920, Note_on_c, 3, 56, 0
8, 7920, Note_on_c, 3, 32, 110
8, 7968, Note_on_c, 3, 32, 0
8, 7968, Note_on_c, 3, 39, 110
8, 8016, Note_on_c, 3, 39, 0
8, 8016, Note_on_c, 3, 32, 110
8, 8064, Note_on_c, 3, 32, 0
8, 8064, Note_on_c, 3, 32, 110
8, 8112, Note_on_c, 3, 32, 0
8, 8112, Note_on_c, 3, 39, 110
8, 8160, Note_on_c, 3, 39, 0
8, 8160, Note_on_c, 3, 32, 110
8, 8208, Note_on_c, 3, 32, 0
8, 8208, Note_on_c, 3, 44, 110
8, 8256, Note_on_c, 3, 44, 0
8, 8256, Note_on_c, 3, 32, 110
8, 8304, Note_on_c, 3, 32, 0
8, 8304, Note_on_c, 3, 44, 110
8, 8352, Note_on_c, 3, 44, 0
8, 8352, Note_on_c, 3, 32, 110
8, 8400, Note_on_c, 3, 32, 0
8, 8400, Note_on_c, 3, 32, 110
8, 8448, Note_on_c, 3, 32, 0
8, 8448, Note_on_c, 3, 44, 110
8, 8496, Note_on_c, 3, 44, 0
8, 8496, Note_on_c, 3, 32, 110
8, 8544, Note_on_c, 3, 32, 0
8, 8544, Note_on_c, 3, 39, 110
8, 8592, Note_on_c, 3, 39, 0
8, 8592, Note_on_c, 3, 32, 110
8, 8640, Note_on_c, 3, 32, 0
8, 8640, Note_on_c, 3, 56, 110
8, 8688, Note_on_c, 3, 56, 0
8, 8688, Note_on_c, 3, 32, 110
8, 8736, Note_on_c, 3, 32, 0
8, 8736, Note_on_c, 3, 39, 110
8, 8784, Note_on_c, 3, 39, 0
8, 8784, Note_on_c, 3, 32, 110
8, 8832, Note_on_c, 3, 32, 0
8, 8832, Note_on_c, 3, 32, 110
8, 8880, Note_on_c, 3, 32, 0
8, 8880, Note_on_c, 3, 39, 110
8, 8928, Note_on_c, 3, 39, 0
8, 8928, Note_on_c, 3, 32, 110
8, 8976, Note_on_c, 3, 32, 0
8, 8976, Note_on_c, 3, 44, 110
8, 9024, Note_on_c, 3, 44, 0
8, 9024, Note_on_c, 3, 32, 110
8, 9072, Note_on_c, 3, 32, 0
8, 9072, Note_on_c, 3, 44, 110
8, 9120, Note_on_c, 3, 44, 0
8, 9120, Note_on_c, 3, 32, 110
8, 9168, Note_on_c, 3, 32, 0
8, 9168, Note_on_c, 3, 32, 110
8, 9216, Note_on_c, 3, 32, 0
8, 9216, Note_on_c, 3, 37, 110
8, 9264, Note_on_c, 3, 37, 0
8, 9264, Note_on_c, 3, 25, 110
8, 9312, Note_on_c, 3, 25, 0
8, 9312, Note_on_c, 3, 40, 110
8, 9360, Note_on_c, 3, 40, 0
8, 9360, Note_on_c, 3, 28, 110
8, 9408, Note_on_c, 3, 28, 0
8, 9456, Note_on_c, 3, 30, 110
8, 9504, Note_on_c, 3, 30, 0
8, 9552, Note_on_c, 3, 28, 110
8, 9600, Note_on_c, 3, 28, 0
8, 9600, Note_on_c, 3, 25, 110
8, 9648, Note_on_c, 3, 25, 0
8, 9648, Note_on_c, 3, 37, 110
8, 9696, Note_on_c, 3, 37, 0
8, 9696, Note_on_c, 3, 25, 110
8, 9744, Note_on_c, 3, 25, 0
8, 9744, Note_on_c, 3, 40, 110
8, 9792, Note_on_c, 3, 40, 0
8, 9840, Note_on_c, 3, 37, 110
8, 9888, Note_on_c, 3, 37, 0
8, 9936, Note_on_c, 3, 25, 110
8, 9984, Note_on_c, 3, 25, 0
8, 9984, Note_on_c, 3, 37, 110
8, 10032, Note_on_c, 3, 37, 0
8, 10032, Note_on_c, 3, 25, 110
8, 10080, Note_on_c, 3, 25, 0
8, 10128, Note_on_c, 3, 25, 110
8, 10176, Note_on_c, 3, 25, 0
8, 10176, Note_on_c, 3, 42, 110
8, 10224, Note_on_c, 3, 42, 0
8, 10224, Note_on_c, 3, 25, 110
8, 10272, Note_on_c, 3, 25, 0
8, 10272, Note_on_c, 3, 40, 110
8, 10320, Note_on_c, 3, 40, 0
8, 10320, Note_on_c, 3, 25, 110
8, 10368, Note_on_c, 3, 25, 0
8, 10368, Note_on_c, 3, 37, 110
8, 10416, Note_on_c, 3, 37, 0
8, 10416, Note_on_c, 3, 25, 110
8, 10464, Note_on_c, 3, 25, 0
8, 10512, Note_on_c, 3, 25, 110
8, 10560, Note_on_c, 3, 25, 0
8, 10560, Note_on_c, 3, 42, 110
8, 10608, Note_on_c, 3, 42, 0
8, 10608, Note_on_c, 3, 25, 110
8, 10656, Note_on_c, 3, 25, 0
8, 10656, Note_on_c, 3, 40, 110
8, 10704, Note_on_c, 3, 40, 0
8, 10704, Note_on_c, 3, 25, 110
8, 10752, Note_on_c, 3, 25, 0
8, 10752, Note_on_c, 3, 44, 110
8, 10800, Note_on_c, 3, 44, 0
8, 10800, Note_on_c, 3, 32, 110
8, 10848, Note_on_c, 3, 32, 0
8, 10848, Note_on_c, 3, 39, 110
8, 10896, Note_on_c, 3, 39, 0
8, 10896, Note_on_c, 3, 32, 110
8, 10944, Note_on_c, 3, 32, 0
8, 10944, Note_on_c, 3, 56, 110
8, 10992, Note_on_c, 3, 56, 0
8, 10992, Note_on_c, 3, 32, 110
8, 11040, Note_on_c, 3, 32, 0
8, 11040, Note_on_c, 3, 39, 110
8, 11088, Note_on_c, 3, 39, 0
8, 11088, Note_on_c, 3, 32, 110
8, 11136, Note_on_c, 3, 32, 0
8, 11136, Note_on_c, 3, 32, 110
8, 11184, Note_on_c, 3, 32, 0
8, 11184, Note_on_c, 3, 39, 110
8, 11232, Note_on_c, 3, 39, 0
8, 11232, Note_on_c, 3, 32, 110
8, 11280, Note_on_c, 3, 32, 0
8, 11280, Note_on_c, 3, 44, 110
8, 11328, Note_on_c, 3, 44, 0
8, 11328, Note_on_c, 3, 32, 110
8, 11376, Note_on_c, 3, 32, 0
8, 11376, Note_on_c, 3, 44, 110
8, 11424, Note_on_c, 3, 44, 0
8, 11424, Note_on_c, 3, 32, 110
8, 11472, Note_on_c, 3, 32, 0
8, 11472, Note_on_c, 3, 32, 110
8, 11520, Note_on_c, 3, 32, 0
8, 11520, Note_on_c, 3, 44, 110
8, 11568, Note_on_c, 3, 44, 0
8, 11568, Note_on_c, 3, 32, 110
8, 11616, Note_on_c, 3, 32, 0
8, 11616, Note_on_c, 3, 39, 110
8, 11664, Note_on_c, 3, 39, 0
8, 11664, Note_on_c, 3, 32, 110
8, 11712, Note_on_c, 3, 32, 0
8, 11712, Note_on_c, 3, 56, 110
8, 11760, Note_on_c, 3, 56, 0
8, 11760, Note_on_c, 3, 32, 110
8, 11808, Note_on_c, 3, 32, 0
8, 11808, Note_on_c, 3, 39, 110
8, 11856, Note_on_c, 3, 39, 0
8, 11856, Note_on_c, 3, 32, 110
8, 11904, Note_on_c, 3, 32, 0
8, 11904, Note_on_c, 3, 32, 110
8, 11952, Note_on_c, 3, 32, 0
8, 11952, Note_on_c, 3, 39, 110
8, 12000, Note_on_c, 3, 39, 0
8, 12000, Note_on_c, 3, 32, 110
8, 12048, Note_on_c, 3, 32, 0
8, 12048, Note_on_c, 3, 44, 110
8, 12096, Note_on_c, 3, 44, 0
8, 12096, Note_on_c, 3, 32, 110
8, 12144, Note_on_c, 3, 32, 0
8, 12144, Note_on_c, 3, 44, 110
8, 12192, Note_on_c, 3, 44, 0
8, 12192, Note_on_c, 3, 32, 110
8, 12240, Note_on_c, 3, 32, 0
8, 12240, Note_on_c, 3, 32, 110
8, 12288, Note_on_c, 3, 32, 0
8, 12288, Note_on_c, 3, 37, 110
8, 12336, Note_on_c, 3, 37, 0
8, 12336, Note_on_c, 3, 25, 110
8, 12384, Note_on_c, 3, 25, 0
8, 12384, Note_on_c, 3, 40, 110
8, 12432, Note_on_c, 3, 40, 0
8, 12432, Note_on_c, 3, 28, 110
8, 12480, Note_on_c, 3, 28, 0
8, 12528, Note_on_c, 3, 30, 110
8, 12576, Note_on_c, 3, 30, 0
8, 12624, Note_on_c, 3, 28, 110
8, 12672, Note_on_c, 3, 28, 0
8, 12672, Note_on_c, 3, 25, 110
8, 12720, Note_on_c, 3, 25, 0
8, 12720, Note_on_c, 3, 37, 110
8, 12768, Note_on_c, 3, 37, 0
8, 12768, Note_on_c, 3, 25, 110
8, 12816, Note_on_c, 3, 25, 0
8, 12816, Note_on_c, 3, 40, 110
8, 12864, Note_on_c, 3, 40, 0
8, 12912, Note_on_c, 3, 37, 110
8, 12960, Note_on_c, 3, 37, 0
8, 13008, Note_on_c, 3, 25, 110
8, 13056, Note_on_c, 3, 25, 0
8, 13056, Note_on_c, 3, 37, 110
8, 13104, Note_on_c, 3, 37, 0
8, 13104, Note_on_c, 3, 25, 110
8, 13152, Note_on_c, 3, 25, 0
8, 13200, Note_on_c, 3, 25, 110
8, 13248, Note_on_c, 3, 25, 0
8, 13248, Note_on_c, 3, 42, 110
8, 13296, Note_on_c, 3, 42, 0
8, 13296, Note_on_c, 3, 25, 110
8, 13344, Note_on_c, 3, 25, 0
8, 13344, Note_on_c, 3, 40, 110
8, 13392, Note_on_c, 3, 40, 0
8, 13392, Note_on_c, 3, 25, 110
8, 13440, Note_on_c, 3, 25, 0
8, 13440, Note_on_c, 3, 37, 110
8, 13488, Note_on_c, 3, 37, 0
8, 13488, Note_on_c, 3, 25, 110
8, 13536, Note_on_c, 3, 25, 0
8, 13584, Note_on_c, 3, 25, 110
8, 13632, Note_on_c, 3, 25, 0
8, 13632, Note_on_c, 3, 42, 110
8, 13680, Note_on_c, 3, 42, 0
8, 13680, Note_on_c, 3, 25, 110
8, 13728, Note_on_c, 3, 25, 0
8, 13728, Note_on_c, 3, 40, 110
8, 13776, Note_on_c, 3, 40, 0
8, 13776, Note_on_c, 3, 25, 110
8, 13824, Note_on_c, 3, 25, 0
8, 13824, Note_on_c, 3, 44, 110
8, 13872, Note_on_c, 3, 44, 0
8, 13872, Note_on_c, 3, 32, 110
8, 13920, Note_on_c, 3, 32, 0
8, 13920, Note_on_c, 3, 39, 110
8, 13968, Note_on_c, 3, 39, 0
8, 13968, Note_on_c, 3, 32, 110
8, 14016, Note_on_c, 3, 32, 0
8, 14016, Note_on_c, 3, 56, 110
8, 14064, Note_on_c, 3, 56, 0
8, 14064, Note_on_c, 3, 32, 110
8, 14112, Note_on_c, 3, 32, 0
8, 14112, Note_on_c, 3, 39, 110
8, 14160, Note_on_c, 3, 39, 0
8, 14160, Note_on_c, 3, 32, 110
8, 14208, Note_on_c, 3, 32, 0
8, 14208, Note_on_c, 3, 32, 110
8, 14256, Note_on_c, 3, 32, 0
8, 14256, Note_on_c, 3, 39, 110
8, 14304, Note_on_c, 3, 39, 0
8, 14304, Note_on_c, 3, 32, 110
8, 14352, Note_on_c, 3, 32, 0
8, 14352, Note_on_c, 3, 44, 110
8, 14400, Note_on_c, 3, 44, 0
8, 14400, Note_on_c, 3, 32, 110
8, 14448, Note_on_c, 3, 32, 0
8, 14448, Note_on_c, 3, 44, 110
8, 14496, Note_on_c, 3, 44, 0
8, 14496, Note_on_c, 3, 32, 110
8, 14544, Note_on_c, 3, 32, 0
8, 14544, Note_on_c, 3, 32, 110
8, 14592, Note_on_c, 3, 32, 0
8, 14592, Note_on_c, 3, 44, 110
8, 14640, Note_on_c, 3, 44, 0
8, 14640, Note_on_c, 3, 32, 110
8, 14688, Note_on_c, 3, 32, 0
8, 14688, Note_on_c, 3, 39, 110
8, 14736, Note_on_c, 3, 39, 0
8, 14736, Note_on_c, 3, 32, 110
8, 14784, Note_on_c, 3, 32, 0
8, 14784, Note_on_c, 3, 56, 110
8, 14832, Note_on_c, 3, 56, 0
8, 14832, Note_on_c, 3, 32, 110
8, 14880, Note_on_c, 3, 32, 0
8, 14880, Note_on_c, 3, 39, 110
8, 14928, Note_on_c, 3, 39, 0
8, 14928, Note_on_c, 3, 32, 110
8, 14976, Note_on_c, 3, 32, 0
8, 14976, Note_on_c, 3, 32, 110
8, 15024, Note_on_c, 3, 32, 0
8, 15024, Note_on_c, 3, 39, 110
8, 15072, Note_on_c, 3, 39, 0
8, 15072, Note_on_c, 3, 32, 110
8, 15120, Note_on_c, 3, 32, 0
8, 15120, Note_on_c, 3, 44, 110
8, 15168, Note_on_c, 3, 44, 0
8, 15168, Note_on_c, 3, 32, 110
8, 15216, Note_on_c, 3, 32, 0
8, 15216, Note_on_c, 3, 44, 110
8, 15264, Note_on_c, 3, 44, 0
8, 15264, Note_on_c, 3, 32, 110
8, 15312, Note_on_c, 3, 32, 0
8, 15312, Note_on_c, 3, 32, 110
8, 15360, Note_on_c, 3, 32, 0
8, 15360, Note_on_c, 3, 37, 110
8, 15408, Note_on_c, 3, 37, 0
8, 15408, Note_on_c, 3, 25, 110
8, 15456, Note_on_c, 3, 25, 0
8, 15456, Note_on_c, 3, 40, 110
8, 15504, Note_on_c, 3, 40, 0
8, 15504, Note_on_c, 3, 28, 110
8, 15552, Note_on_c, 3, 28, 0
8, 15600, Note_on_c, 3, 30, 110
8, 15648, Note_on_c, 3, 30, 0
8, 15696, Note_on_c, 3, 28, 110
8, 15744, Note_on_c, 3, 28, 0
8, 15744, Note_on_c, 3, 25, 110
8, 15792, Note_on_c, 3, 25, 0
8, 15792, Note_on_c, 3, 37, 110
8, 15840, Note_on_c, 3, 37, 0
8, 15840, Note_on_c, 3, 25, 110
8, 15888, Note_on_c, 3, 25, 0
8, 15888, Note_on_c, 3, 40, 110
8, 15936, Note_on_c, 3, 40, 0
8, 15984, Note_on_c, 3, 37, 110
8, 16032, Note_on_c, 3, 37, 0
8, 16080, Note_on_c, 3, 25, 110
8, 16128, Note_on_c, 3, 25, 0
8, 16128, Note_on_c, 3, 37, 110
8, 16176, Note_on_c, 3, 37, 0
8, 16176, Note_on_c, 3, 25, 110
8, 16224, Note_on_c, 3, 25, 0
8, 16272, Note_on_c, 3, 25, 110
8, 16320, Note_on_c, 3, 25, 0
8, 16320, Note_on_c, 3, 42, 110
8, 16368, Note_on_c, 3, 42, 0
8, 16368, Note_on_c, 3, 25, 110
8, 16416, Note_on_c, 3, 25, 0
8, 16416, Note_on_c, 3, 40, 110
8, 16464, Note_on_c, 3, 40, 0
8, 16464, Note_on_c, 3, 25, 110
8, 16512, Note_on_c, 3, 25, 0
8, 16512, Note_on_c, 3, 37, 110
8, 16560, Note_on_c, 3, 37, 0
8, 16560, Note_on_c, 3, 25, 110
8, 16608, Note_on_c, 3, 25, 0
8, 16656, Note_on_c, 3, 25, 110
8, 16704, Note_on_c, 3, 25, 0
8, 16704, Note_on_c, 3, 42, 110
8, 16752, Note_on_c, 3, 42, 0
8, 16752, Note_on_c, 3, 25, 110
8, 16800, Note_on_c, 3, 25, 0
8, 16800, Note_on_c, 3, 40, 110
8, 16848, Note_on_c, 3, 40, 0
8, 16848, Note_on_c, 3, 25, 110
8, 16896, Note_on_c, 3, 25, 0
8, 16896, Note_on_c, 3, 44, 110
8, 16944, Note_on_c, 3, 44, 0
8, 16944, Note_on_c, 3, 32, 110
8, 16992, Note_on_c, 3, 32, 0
8, 16992, Note_on_c, 3, 39, 110
8, 17040, Note_on_c, 3, 39, 0
8, 17040, Note_on_c, 3, 32, 110
8, 17088, Note_on_c, 3, 32, 0
8, 17088, Note_on_c, 3, 56, 110
8, 17136, Note_on_c, 3, 56, 0
8, 17136, Note_on_c, 3, 32, 110
8, 17184, Note_on_c, 3, 32, 0
8, 17184, Note_on_c, 3, 39, 110
8, 17232, Note_on_c, 3, 39, 0
8, 17232, Note_on_c, 3, 32, 110
8, 17280, Note_on_c, 3, 32, 0
8, 17280, Note_on_c, 3, 32, 110
8, 17328, Note_on_c, 3, 32, 0
8, 17328, Note_on_c, 3, 39, 110
8, 17376, Note_on_c, 3, 39, 0
8, 17376, Note_on_c, 3, 32, 110
8, 17424, Note_on_c, 3, 32, 0
8, 17424, Note_on_c, 3, 44, 110
8, 17472, Note_on_c, 3, 44, 0
8, 17472, Note_on_c, 3, 32, 110
8, 17520, Note_on_c, 3, 32, 0
8, 17520, Note_on_c, 3, 44, 110
8, 17568, Note_on_c, 3, 44, 0
8, 17568, Note_on_c, 3, 32, 110
8, 17616, Note_on_c, 3, 32, 0
8, 17616, Note_on_c, 3, 32, 110
8, 17664, Note_on_c, 3, 32, 0
8, 17664, Note_on_c, 3, 44, 110
8, 17712, Note_on_c, 3, 44, 0
8, 17712, Note_on_c, 3, 32, 110
8, 17760, Note_on_c, 3, 32, 0
8, 17760, Note_on_c, 3, 39, 110
8, 17808, Note_on_c, 3, 39, 0
8, 17808, Note_on_c, 3, 32, 110
8, 17856, Note_on_c, 3, 32, 0
8, 17856, Note_on_c, 3, 56, 110
8, 17904, Note_on_c, 3, 56, 0
8, 17904, Note_on_c, 3, 32, 110
8, 17952, Note_on_c, 3, 32, 0
8, 17952, Note_on_c, 3, 39, 110
8, 18000, Note_on_c, 3, 39, 0
8, 18000, Note_on_c, 3, 32, 110
8, 18048, Note_on_c, 3, 32, 0
8, 18048, Note_on_c, 3, 32, 110
8, 18096, Note_on_c, 3, 32, 0
8, 18096, Note_on_c, 3, 39, 110
8, 18144, Note_on_c, 3, 39, 0
8, 18144, Note_on_c, 3, 32, 110
8, 18192, Note_on_c, 3, 32, 0
8, 18192, Note_on_c, 3, 44, 110
8, 18240, Note_on_c, 3, 44, 0
8, 18240, Note_on_c, 3, 32, 110
8, 18288, Note_on_c, 3, 32, 0
8, 18288, Note_on_c, 3, 44, 110
8, 18336, Note_on_c, 3, 44, 0
8, 18336, Note_on_c, 3, 32, 110
8, 18384, Note_on_c, 3, 32, 0
8, 18384, Note_on_c, 3, 32, 110
8, 18432, Note_on_c, 3, 32, 0
8, 21504, Note_on_c, 3, 37, 110
8, 21552, Note_on_c, 3, 37, 0
8, 21552, Note_on_c, 3, 25, 110
8, 21600, Note_on_c, 3, 25, 0
8, 21600, Note_on_c, 3, 40, 110
8, 21648, Note_on_c, 3, 40, 0
8, 21648, Note_on_c, 3, 28, 110
8, 21696, Note_on_c, 3, 28, 0
8, 21744, Note_on_c, 3, 30, 110
8, 21792, Note_on_c, 3, 30, 0
8, 21840, Note_on_c, 3, 28, 110
8, 21888, Note_on_c, 3, 28, 0
8, 21888, Note_on_c, 3, 25, 110
8, 21936, Note_on_c, 3, 25, 0
8, 21936, Note_on_c, 3, 37, 110
8, 21984, Note_on_c, 3, 37, 0
8, 21984, Note_on_c, 3, 25, 110
8, 22032, Note_on_c, 3, 25, 0
8, 22032, Note_on_c, 3, 40, 110
8, 22080, Note_on_c, 3, 40, 0
8, 22128, Note_on_c, 3, 37, 110
8, 22176, Note_on_c, 3, 37, 0
8, 22224, Note_on_c, 3, 25, 110
8, 22272, Note_on_c, 3, 25, 0
8, 22272, Note_on_c, 3, 37, 110
8, 22320, Note_on_c, 3, 37, 0
8, 22320, Note_on_c, 3, 25, 110
8, 22368, Note_on_c, 3, 25, 0
8, 22416, Note_on_c, 3, 25, 110
8, 22464, Note_on_c, 3, 25, 0
8, 22464, Note_on_c, 3, 42, 110
8, 22512, Note_on_c, 3, 42, 0
8, 22512, Note_on_c, 3, 25, 110
8, 22560, Note_on_c, 3, 25, 0
8, 22560, Note_on_c, 3, 40, 110
8, 22608, Note_on_c, 3, 40, 0
8, 22608, Note_on_c, 3, 25, 110
8, 22656, Note_on_c, 3, 25, 0
8, 22656, Note_on_c, 3, 37, 110
8, 22704, Note_on_c, 3, 37, 0
8, 22704, Note_on_c, 3, 25, 110
8, 22752, Note_on_c, 3, 25, 0
8, 22800, Note_on_c, 3, 25, 110
8, 22848, Note_on_c, 3, 25, 0
8, 22848, Note_on_c, 3, 42, 110
8, 22896, Note_on_c, 3, 42, 0
8, 22896, Note_on_c, 3, 25, 110
8, 22944, Note_on_c, 3, 25, 0
8, 22944, Note_on_c, 3, 40, 110
8, 22992, Note_on_c, 3, 40, 0
8, 22992, Note_on_c, 3, 25, 110
8, 23040, Note_on_c, 3, 25, 0
8, 23040, Note_on_c, 3, 44, 110
8, 23088, Note_on_c, 3, 44, 0
8, 23088, Note_on_c, 3, 32, 110
8, 23136, Note_on_c, 3, 32, 0
8, 23136, Note_on_c, 3, 39, 110
8, 23184, Note_on_c, 3, 39, 0
8, 23184, Note_on_c, 3, 32, 110
8, 23232, Note_on_c, 3, 32, 0
8, 23232, Note_on_c, 3, 56, 110
8, 23280, Note_on_c, 3, 56, 0
8, 23280, Note_on_c, 3, 32, 110
8, 23328, Note_on_c, 3, 32, 0
8, 23328, Note_on_c, 3, 39, 110
8, 23376, Note_on_c, 3, 39, 0
8, 23376, Note_on_c, 3, 32, 110
8, 23424, Note_on_c, 3, 32, 0
8, 23424, Note_on_c, 3, 32, 110
8, 23472, Note_on_c, 3, 32, 0
8, 23472, Note_on_c, 3, 39, 110
8, 23520, Note_on_c, 3, 39, 0
8, 23520, Note_on_c, 3, 32, 110
8, 23568, Note_on_c, 3, 32, 0
8, 23568, Note_on_c, 3, 44, 110
8, 23616, Note_on_c, 3, 44, 0
8, 23616, Note_on_c, 3, 32, 110
8, 23664, Note_on_c, 3, 32, 0
8, 23664, Note_on_c, 3, 44, 110
8, 23712, Note_on_c, 3, 44, 0
8, 23712, Note_on_c, 3, 32, 110
8, 23760, Note_on_c, 3, 32, 0
8, 23760, Note_on_c, 3, 32, 110
8, 23808, Note_on_c, 3, 32, 0
8, 23808, Note_on_c, 3, 44, 110
8, 23856, Note_on_c, 3, 44, 0
8, 23856, Note_on_c, 3, 32, 110
8, 23904, Note_on_c, 3, 32, 0
8, 23904, Note_on_c, 3, 39, 110
8, 23952, Note_on_c, 3, 39, 0
8, 23952, Note_on_c, 3, 32, 110
8, 24000, Note_on_c, 3, 32, 0
8, 24000, Note_on_c, 3, 56, 110
8, 24048, Note_on_c, 3, 56, 0
8, 24048, Note_on_c, 3, 32, 110
8, 24096, Note_on_c, 3, 32, 0
8, 24096, Note_on_c, 3, 39, 110
8, 24144, Note_on_c, 3, 39, 0
8, 24144, Note_on_c, 3, 32, 110
8, 24192, Note_on_c, 3, 32, 0
8, 24192, Note_on_c, 3, 32, 110
8, 24240, Note_on_c, 3, 32, 0
8, 24240, Note_on_c, 3, 39, 110
8, 24288, Note_on_c, 3, 39, 0
8, 24288, Note_on_c, 3, 32, 110
8, 24336, Note_on_c, 3, 32, 0
8, 24336, Note_on_c, 3, 44, 110
8, 24384, Note_on_c, 3, 44, 0
8, 24384, Note_on_c, 3, 32, 110
8, 24432, Note_on_c, 3, 32, 0
8, 24432, Note_on_c, 3, 44, 110
8, 24480, Note_on_c, 3, 44, 0
8, 24480, Note_on_c, 3, 32, 110
8, 24528, Note_on_c, 3, 32, 0
8, 24528, Note_on_c, 3, 32, 110
8, 24576, Note_on_c, 3, 32, 0
8, 24576, Note_on_c, 3, 37, 110
8, 24624, Note_on_c, 3, 37, 0
8, 24624, Note_on_c, 3, 25, 110
8, 24672, Note_on_c, 3, 25, 0
8, 24672, Note_on_c, 3, 40, 110
8, 24720, Note_on_c, 3, 40, 0
8, 24720, Note_on_c, 3, 28, 110
8, 24768, Note_on_c, 3, 28, 0
8, 24816, Note_on_c, 3, 30, 110
8, 24864, Note_on_c, 3, 30, 0
8, 24912, Note_on_c, 3, 28, 110
8, 24960, Note_on_c, 3, 28, 0
8, 24960, Note_on_c, 3, 25, 110
8, 25008, Note_on_c, 3, 25, 0
8, 25008, Note_on_c, 3, 37, 110
8, 25056, Note_on_c, 3, 37, 0
8, 25056, Note_on_c, 3, 25, 110
8, 25104, Note_on_c, 3, 25, 0
8, 25104, Note_on_c, 3, 40, 110
8, 25152, Note_on_c, 3, 40, 0
8, 25200, Note_on_c, 3, 37, 110
8, 25248, Note_on_c, 3, 37, 0
8, 25296, Note_on_c, 3, 25, 110
8, 25344, Note_on_c, 3, 25, 0
8, 25344, Note_on_c, 3, 37, 110
8, 25392, Note_on_c, 3, 37, 0
8, 25392, Note_on_c, 3, 25, 110
8, 25440, Note_on_c, 3, 25, 0
8, 25488, Note_on_c, 3, 25, 110
8, 25536, Note_on_c, 3, 25, 0
8, 25536, Note_on_c, 3, 42, 110
8, 25584, Note_on_c, 3, 42, 0
8, 25584, Note_on_c, 3, 25, 110
8, 25632, Note_on_c, 3, 25, 0
8, 25632, Note_on_c, 3, 40, 110
8, 25680, Note_on_c, 3, 40, 0
8, 25680, Note_on_c, 3, 25, 110
8, 25728, Note_on_c, 3, 25, 0
8, 25728, Note_on_c, 3, 37, 110
8, 25776, Note_on_c, 3, 37, 0
8, 25776, Note_on_c, 3, 25, 110
8, 25824, Note_on_c, 3, 25, 0
8, 25872, Note_on_c, 3, 25, 110
8, 25920, Note_on_c, 3, 25, 0
8, 25920, Note_on_c, 3, 42, 110
8, 25968, Note_on_c, 3, 42, 0
8, 25968, Note_on_c, 3, 25, 110
8, 26016, Note_on_c, 3, 25, 0
8, 26016, Note_on_c, 3, 40, 110
8, 26064, Note_on_c, 3, 40, 0
8, 26064, Note_on_c, 3, 25, 110
8, 26112, Note_on_c, 3, 25, 0
8, 26112, Note_on_c, 3, 44, 110
8, 26160, Note_on_c, 3, 44, 0
8, 26160, Note_on_c, 3, 32, 110
8, 26208, Note_on_c, 3, 32, 0
8, 26208, Note_on_c, 3, 39, 110
8, 26256, Note_on_c, 3, 39, 0
8, 26256, Note_on_c, 3, 32, 110
8, 26304, Note_on_c, 3, 32, 0
8, 26304, Note_on_c, 3, 56, 110
8, 26352, Note_on_c, 3, 56, 0
8, 26352, Note_on_c, 3, 32, 110
8, 26400, Note_on_c, 3, 32, 0
8, 26400, Note_on_c, 3, 39, 110
8, 26448, Note_on_c, 3, 39, 0
8, 26448, Note_on_c, 3, 32, 110
8, 26496, Note_on_c, 3, 32, 0
8, 26496, Note_on_c, 3, 32, 110
8, 26544, Note_on_c, 3, 32, 0
8, 26544, Note_on_c, 3, 39, 110
8, 26592, Note_on_c, 3, 39, 0
8, 26592, Note_on_c, 3, 32, 110
8, 26640, Note_on_c, 3, 32, 0
8, 26640, Note_on_c, 3, 44, 110
8, 26688, Note_on_c, 3, 44, 0
8, 26688, Note_on_c, 3, 32, 110
8, 26736, Note_on_c, 3, 32, 0
8, 26736, Note_on_c, 3, 44, 110
8, 26784, Note_on_c, 3, 44, 0
8, 26784, Note_on_c, 3, 32, 110
8, 26832, Note_on_c, 3, 32, 0
8, 26832, Note_on_c, 3, 32, 110
8, 26880, Note_on_c, 3, 32, 0
8, 26880, Note_on_c, 3, 44, 110
8, 26928, Note_on_c, 3, 44, 0
8, 26928, Note_on_c, 3, 32, 110
8, 26976, Note_on_c, 3, 32, 0
8, 26976, Note_on_c, 3, 39, 110
8, 27024, Note_on_c, 3, 39, 0
8, 27024, Note_on_c, 3, 32, 110
8, 27072, Note_on_c, 3, 32, 0
8, 27072, Note_on_c, 3, 56, 110
8, 27120, Note_on_c, 3, 56, 0
8, 27120, Note_on_c, 3, 32, 110
8, 27168, Note_on_c, 3, 32, 0
8, 27168, Note_on_c, 3, 39, 110
8, 27216, Note_on_c, 3, 39, 0
8, 27216, Note_on_c, 3, 32, 110
8, 27264, Note_on_c, 3, 32, 0
8, 27264, Note_on_c, 3, 32, 110
8, 27312, Note_on_c, 3, 32, 0
8, 27312, Note_on_c, 3, 39, 110
8, 27360, Note_on_c, 3, 39, 0
8, 27360, Note_on_c, 3, 32, 110
8, 27408, Note_on_c, 3, 32, 0
8, 27408, Note_on_c, 3, 44, 110
8, 27456, Note_on_c, 3, 44, 0
8, 27456, Note_on_c, 3, 32, 110
8, 27504, Note_on_c, 3, 32, 0
8, 27504, Note_on_c, 3, 44, 110
8, 27552, Note_on_c, 3, 44, 0
8, 27552, Note_on_c, 3, 32, 110
8, 27600, Note_on_c, 3, 32, 0
8, 27600, Note_on_c, 3, 32, 110
8, 27648, Note_on_c, 3, 32, 0
8, 27648, Note_on_c, 3, 37, 110
8, 27696, Note_on_c, 3, 37, 0
8, 27696, Note_on_c, 3, 25, 110
8, 27744, Note_on_c, 3, 25, 0
8, 27744, Note_on_c, 3, 40, 110
8, 27792, Note_on_c, 3, 40, 0
8, 27792, Note_on_c, 3, 28, 110
8, 27840, Note_on_c, 3, 28, 0
8, 27888, Note_on_c, 3, 30, 110
8, 27936, Note_on_c, 3, 30, 0
8, 27984, Note_on_c, 3, 28, 110
8, 28032, Note_on_c, 3, 28, 0
8, 28032, Note_on_c, 3, 25, 110
8, 28080, Note_on_c, 3, 25, 0
8, 28080, Note_on_c, 3, 37, 110
8, 28128, Note_on_c, 3, 37, 0
8, 28128, Note_on_c, 3, 25, 110
8, 28176, Note_on_c, 3, 25, 0
8, 28176, Note_on_c, 3, 40, 110
8, 28224, Note_on_c, 3, 40, 0
8, 28272, Note_on_c, 3, 37, 110
8, 28320, Note_on_c, 3, 37, 0
8, 28368, Note_on_c, 3, 25, 110
8, 28416, Note_on_c, 3, 25, 0
8, 28416, Note_on_c, 3, 37, 110
8, 28464, Note_on_c, 3, 37, 0
8, 28464, Note_on_c, 3, 25, 110
8, 28512, Note_on_c, 3, 25, 0
8, 28560, Note_on_c, 3, 25, 110
8, 28608, Note_on_c, 3, 25, 0
8, 28608, Note_on_c, 3, 42, 110
8, 28656, Note_on_c, 3, 42, 0
8, 28656, Note_on_c, 3, 25, 110
8, 28704, Note_on_c, 3, 25, 0
8, 28704, Note_on_c, 3, 40, 110
8, 28752, Note_on_c, 3, 40, 0
8, 28752, Note_on_c, 3, 25, 110
8, 28800, Note_on_c, 3, 25, 0
8, 28800, Note_on_c, 3, 37, 110
8, 28848, Note_on_c, 3, 37, 0
8, 28848, Note_on_c, 3, 25, 110
8, 28896, Note_on_c, 3, 25, 0
8, 28944, Note_on_c, 3, 25, 110
8, 28992, Note_on_c, 3, 25, 0
8, 28992, Note_on_c, 3, 42, 110
8, 29040, Note_on_c, 3, 42, 0
8, 29040, Note_on_c, 3, 25, 110
8, 29088, Note_on_c, 3, 25, 0
8, 29088, Note_on_c, 3, 40, 110
8, 29136, Note_on_c, 3, 40, 0
8, 29136, Note_on_c, 3, 25, 110
8, 29184, Note_on_c, 3, 25, 0
8, 29184, Note_on_c, 3, 44, 110
8, 29232, Note_on_c, 3, 44, 0
8, 29232, Note_on_c, 3, 32, 110
8, 29280, Note_on_c, 3, 32, 0
8, 29280, Note_on_c, 3, 39, 110
8, 29328, Note_on_c, 3, 39, 0
8, 29328, Note_on_c, 3, 32, 110
8, 29376, Note_on_c, 3, 32, 0
8, 29376, Note_on_c, 3, 56, 110
8, 29424, Note_on_c, 3, 56, 0
8, 29424, Note_on_c, 3, 32, 110
8, 29472, Note_on_c, 3, 32, 0
8, 29472, Note_on_c, 3, 39, 110
8, 29520, Note_on_c, 3, 39, 0
8, 29520, Note_on_c, 3, 32, 110
8, 29568, Note_on_c, 3, 32, 0
8, 29568, Note_on_c, 3, 32, 110
8, 29616, Note_on_c, 3, 32, 0
8, 29616, Note_on_c, 3, 39, 110
8, 29664, Note_on_c, 3, 39, 0
8, 29664, Note_on_c, 3, 32, 110
8, 29712, Note_on_c, 3, 32, 0
8, 29712, Note_on_c, 3, 44, 110
8, 29760, Note_on_c, 3, 44, 0
8, 29760, Note_on_c, 3, 32, 110
8, 29808, Note_on_c, 3, 32, 0
8, 29808, Note_on_c, 3, 44, 110
8, 29856, Note_on_c, 3, 44, 0
8, 29856, Note_on_c, 3, 32, 110
8, 29904, Note_on_c, 3, 32, 0
8, 29904, Note_on_c, 3, 32, 110
8, 29952, Note_on_c, 3, 32, 0
8, 29952, Note_on_c, 3, 44, 110
8, 30000, Note_on_c, 3, 44, 0
8, 30000, Note_on_c, 3, 32, 110
8, 30048, Note_on_c, 3, 32, 0
8, 30048, Note_on_c, 3, 39, 110
8, 30096, Note_on_c, 3, 39, 0
8, 30096, Note_on_c, 3, 32, 110
8, 30144, Note_on_c, 3, 32, 0
8, 30144, Note_on_c, 3, 56, 110
8, 30192, Note_on_c, 3, 56, 0
8, 30192, Note_on_c, 3, 32, 110
8, 30240, Note_on_c, 3, 32, 0
8, 30240, Note_on_c, 3, 39, 110
8, 30288, Note_on_c, 3, 39, 0
8, 30288, Note_on_c, 3, 32, 110
8, 30336, Note_on_c, 3, 32, 0
8, 30336, Note_on_c, 3, 32, 110
8, 30384, Note_on_c, 3, 32, 0
8, 30384, Note_on_c, 3, 39, 110
8, 30432, Note_on_c, 3, 39, 0
8, 30432, Note_on_c, 3, 32, 110
8, 30480, Note_on_c, 3, 32, 0
8, 30480, Note_on_c, 3, 44, 110
8, 30528, Note_on_c, 3, 44, 0
8, 30528, Note_on_c, 3, 32, 110
8, 30576, Note_on_c, 3, 32, 0
8, 30576, Note_on_c, 3, 44, 110
8, 30624, Note_on_c, 3, 44, 0
8, 30624, Note_on_c, 3, 32, 110
8, 30672, Note_on_c, 3, 32, 0
8, 30672, Note_on_c, 3, 32, 110
8, 30720, Note_on_c, 3, 32, 0
8, 30720, Note_on_c, 3, 37, 110
8, 30768, Note_on_c, 3, 37, 0
8, 30768, Note_on_c, 3, 25, 110
8, 30816, Note_on_c, 3, 25, 0
8, 30816, Note_on_c, 3, 40, 110
8, 30864, Note_on_c, 3, 40, 0
8, 30864, Note_on_c, 3, 28, 110
8, 30912, Note_on_c, 3, 28, 0
8, 30960, Note_on_c, 3, 30, 110
8, 31008, Note_on_c, 3, 30, 0
8, 31056, Note_on_c, 3, 28, 110
8, 31104, Note_on_c, 3, 28, 0
8, 31104, Note_on_c, 3, 25, 110
8, 31152, Note_on_c, 3, 25, 0
8, 31152, Note_on_c, 3, 37, 110
8, 31200, Note_on_c, 3, 37, 0
8, 31200, Note_on_c, 3, 25, 110
8, 31248, Note_on_c, 3, 25, 0
8, 31248, Note_on_c, 3, 40, 110
8, 31296, Note_on_c, 3, 40, 0
8, 31344, Note_on_c, 3, 37, 110
8, 31392, Note_on_c, 3, 37, 0
8, 31440, Note_on_c, 3, 25, 110
8, 31488, Note_on_c, 3, 25, 0
8, 31488, Note_on_c, 3, 37, 110
8, 31536, Note_on_c, 3, 37, 0
8, 31536, Note_on_c, 3, 25, 110
8, 31584, Note_on_c, 3, 25, 0
8, 31632, Note_on_c, 3, 25, 110
8, 31680, Note_on_c, 3, 25, 0
8, 31680, Note_on_c, 3, 42, 110
8, 31728, Note_on_c, 3, 42, 0
8, 31728, Note_on_c, 3, 25, 110
8, 31776, Note_on_c, 3, 25, 0
8, 31776, Note_on_c, 3, 40, 110
8, 31824, Note_on_c, 3, 40, 0
8, 31824, Note_on_c, 3, 25, 110
8, 31872, Note_on_c, 3, 25, 0
8, 31872, Note_on_c, 3, 37, 110
8, 31920, Note_on_c, 3, 37, 0
8, 31920, Note_on_c, 3, 25, 110
8, 31968, Note_on_c, 3, 25, 0
8, 32016, Note_on_c, 3, 25, 110
8, 32064, Note_on_c, 3, 25, 0
8, 32064, Note_on_c, 3, 42, 110
8, 32112, Note_on_c, 3, 42, 0
8, 32112, Note_on_c, 3, 25, 110
8, 32160, Note_on_c, 3, 25, 0
8, 32160, Note_on_c, 3, 40, 110
8, 32208, Note_on_c, 3, 40, 0
8, 32208, Note_on_c, 3, 25, 110
8, 32256, Note_on_c, 3, 25, 0
8, 32256, Note_on_c, 3, 44, 110
8, 32304, Note_on_c, 3, 44, 0
8, 32304, Note_on_c, 3, 32, 110
8, 32352, Note_on_c, 3, 32, 0
8, 32352, Note_on_c, 3, 39, 110
8, 32400, Note_on_c, 3, 39, 0
8, 32400, Note_on_c, 3, 32, 110
8, 32448, Note_on_c, 3, 32, 0
8, 32448, Note_on_c, 3, 56, 110
8, 32496, Note_on_c, 3, 56, 0
8, 32496, Note_on_c, 3, 32, 110
8, 32544, Note_on_c, 3, 32, 0
8, 32544, Note_on_c, 3, 39, 110
8, 32592, Note_on_c, 3, 39, 0
8, 32592, Note_on_c, 3, 32, 110
8, 32640, Note_on_c, 3, 32, 0
8, 32640, Note_on_c, 3, 32, 110
8, 32688, Note_on_c, 3, 32, 0
8, 32688, Note_on_c, 3, 39, 110
8, 32736, Note_on_c, 3, 39, 0
8, 32736, Note_on_c, 3, 32, 110
8, 32784, Note_on_c, 3, 32, 0
8, 32784, Note_on_c, 3, 44, 110
8, 32832, Note_on_c, 3, 44, 0
8, 32832, Note_on_c, 3, 32, 110
8, 32880, Note_on_c, 3, 32, 0
8, 32880, Note_on_c, 3, 44, 110
8, 32928, Note_on_c, 3, 44, 0
8, 32928, Note_on_c, 3, 32, 110
8, 32976, Note_on_c, 3, 32, 0
8, 32976, Note_on_c, 3, 32, 110
8, 33024, Note_on_c, 3, 32, 0
8, 33024, Note_on_c, 3, 44, 110
8, 33072, Note_on_c, 3, 44, 0
8, 33072, Note_on_c, 3, 32, 110
8, 33120, Note_on_c, 3, 32, 0
8, 33120, Note_on_c, 3, 39, 110
8, 33168, Note_on_c, 3, 39, 0
8, 33168, Note_on_c, 3, 32, 110
8, 33216, Note_on_c, 3, 32, 0
8, 33216, Note_on_c, 3, 56, 110
8, 33264, Note_on_c, 3, 56, 0
8, 33264, Note_on_c, 3, 32, 110
8, 33312, Note_on_c, 3, 32, 0
8, 33312, Note_on_c, 3, 39, 110
8, 33360, Note_on_c, 3, 39, 0
8, 33360, Note_on_c, 3, 32, 110
8, 33408, Note_on_c, 3, 32, 0
8, 33408, Note_on_c, 3, 32, 110
8, 33456, Note_on_c, 3, 32, 0
8, 33456, Note_on_c, 3, 39, 110
8, 33504, Note_on_c, 3, 39, 0
8, 33504, Note_on_c, 3, 32, 110
8, 33552, Note_on_c, 3, 32, 0
8, 33552, Note_on_c, 3, 44, 110
8, 33600, Note_on_c, 3, 44, 0
8, 33600, Note_on_c, 3, 32, 110
8, 33648, Note_on_c, 3, 32, 0
8, 33648, Note_on_c, 3, 44, 110
8, 33696, Note_on_c, 3, 44, 0
8, 33696, Note_on_c, 3, 32, 110
8, 33744, Note_on_c, 3, 32, 0
8, 33744, Note_on_c, 3, 32, 110
8, 33792, Note_on_c, 3, 32, 0
8, 33792, Note_on_c, 3, 37, 110
8, 33840, Note_on_c, 3, 37, 0
8, 33840, Note_on_c, 3, 25, 110
8, 33888, Note_on_c, 3, 25, 0
8, 33888, Note_on_c, 3, 40, 110
8, 33936, Note_on_c, 3, 40, 0
8, 33936, Note_on_c, 3, 28, 110
8, 33984, Note_on_c, 3, 28, 0
8, 34032, Note_on_c, 3, 30, 110
8, 34080, Note_on_c, 3, 30, 0
8, 34128, Note_on_c, 3, 28, 110
8, 34176, Note_on_c, 3, 28, 0
8, 34176, Note_on_c, 3, 25, 110
8, 34224, Note_on_c, 3, 25, 0
8, 34224, Note_on_c, 3, 37, 110
8, 34272, Note_on_c, 3, 37, 0
8, 34272, Note_on_c, 3, 25, 110
8, 34320, Note_on_c, 3, 25, 0
8, 34320, Note_on_c, 3, 40, 110
8, 34368, Note_on_c, 3, 40, 0
8, 34416, Note_on_c, 3, 37, 110
8, 34464, Note_on_c, 3, 37, 0
8, 34512, Note_on_c, 3, 25, 110
8, 34560, Note_on_c, 3, 25, 0
8, 34560, Note_on_c, 3, 37, 110
8, 34608, Note_on_c, 3, 37, 0
8, 34608, Note_on_c, 3, 25, 110
8, 34656, Note_on_c, 3, 25, 0
8, 34704, Note_on_c, 3, 25, 110
8, 34752, Note_on_c, 3, 25, 0
8, 34752, Note_on_c, 3, 42, 110
8, 34800, Note_on_c, 3, 42, 0
8, 34800, Note_on_c, 3, 25, 110
8, 34848, Note_on_c, 3, 25, 0
8, 34848, Note_on_c, 3, 40, 110
8, 34896, Note_on_c, 3, 40, 0
8, 34896, Note_on_c, 3, 25, 110
8, 34944, Note_on_c, 3, 25, 0
8, 34944, Note_on_c, 3, 37, 110
8, 34992, Note_on_c, 3, 37, 0
8, 34992, Note_on_c, 3, 25, 110
8, 35040, Note_on_c, 3, 25, 0
8, 35088, Note_on_c, 3, 25, 110
8, 35136, Note_on_c, 3, 25, 0
8, 35136, Note_on_c, 3, 42, 110
8, 35184, Note_on_c, 3, 42, 0
8, 35184, Note_on_c, 3, 25, 110
8, 35232, Note_on_c, 3, 25, 0
8, 35232, Note_on_c, 3, 40, 110
8, 35280, Note_on_c, 3, 40, 0
8, 35280, Note_on_c, 3, 25, 110
8, 35328, Note_on_c, 3, 25, 0
8, 35328, Note_on_c, 3, 44, 110
8, 35376, Note_on_c, 3, 44, 0
8, 35376, Note_on_c, 3, 32, 110
8, 35424, Note_on_c, 3, 32, 0
8, 35424, Note_on_c, 3, 39, 110
8, 35472, Note_on_c, 3, 39, 0
8, 35472, Note_on_c, 3, 32, 110
8, 35520, Note_on_c, 3, 32, 0
8, 35520, Note_on_c, 3, 56, 110
8, 35568, Note_on_c, 3, 56, 0
8, 35568, Note_on_c, 3, 32, 110
8, 35616, Note_on_c, 3, 32, 0
8, 35616, Note_on_c, 3, 39, 110
8, 35664, Note_on_c, 3, 39, 0
8, 35664, Note_on_c, 3, 32, 110
8, 35712, Note_on_c, 3, 32, 0
8, 35712, Note_on_c, 3, 32, 110
8, 35760, Note_on_c, 3, 32, 0
8, 35760, Note_on_c, 3, 39, 110
8, 35808, Note_on_c, 3, 39, 0
8, 35808, Note_on_c, 3, 32, 110
8, 35856, Note_on_c, 3, 32, 0
8, 35856, Note_on_c, 3, 44, 110
8, 35904, Note_on_c, 3, 44, 0
8, 35904, Note_on_c, 3, 32, 110
8, 35952, Note_on_c, 3, 32, 0
8, 35952, Note_on_c, 3, 44, 110
8, 36000, Note_on_c, 3, 44, 0
8, 36000, Note_on_c, 3, 32, 110
8, 36048, Note_on_c, 3, 32, 0
8, 36048, Note_on_c, 3, 32, 110
8, 36096, Note_on_c, 3, 32, 0
8, 36096, Note_on_c, 3, 44, 110
8, 36144, Note_on_c, 3, 44, 0
8, 36144, Note_on_c, 3, 32, 110
8, 36192, Note_on_c, 3, 32, 0
8, 36192, Note_on_c, 3, 39, 110
8, 36240, Note_on_c, 3, 39, 0
8, 36240, Note_on_c, 3, 32, 110
8, 36288, Note_on_c, 3, 32, 0
8, 36288, Note_on_c, 3, 56, 110
8, 36336, Note_on_c, 3, 56, 0
8, 36336, Note_on_c, 3, 32, 110
8, 36384, Note_on_c, 3, 32, 0
8, 36384, Note_on_c, 3, 39, 110
8, 36432, Note_on_c, 3, 39, 0
8, 36432, Note_on_c, 3, 32, 110
8, 36480, Note_on_c, 3, 32, 0
8, 36480, Note_on_c, 3, 32, 110
8, 36528, Note_on_c, 3, 32, 0
8, 36528, Note_on_c, 3, 39, 110
8, 36576, Note_on_c, 3, 39, 0
8, 36576, Note_on_c, 3, 32, 110
8, 36624, Note_on_c, 3, 32, 0
8, 36624, Note_on_c, 3, 44, 110
8, 36672, Note_on_c, 3, 44, 0
8, 36672, Note_on_c, 3, 32, 110
8, 36720, Note_on_c, 3, 32, 0
8, 36720, Note_on_c, 3, 44, 110
8, 36768, Note_on_c, 3, 44, 0
8, 36768, Note_on_c, 3, 32, 110
8, 36816, Note_on_c, 3, 32, 0
8, 36816, Note_on_c, 3, 32, 110
8, 36864, Note_on_c, 3, 32, 0
8, 36864, Note_on_c, 3, 37, 110
8, 36912, Note_on_c, 3, 37, 0
8, 36912, Note_on_c, 3, 25, 110
8, 36960, Note_on_c, 3, 25, 0
8, 36960, Note_on_c, 3, 40, 110
8, 37008, Note_on_c, 3, 40, 0
8, 37008, Note_on_c, 3, 28, 110
8, 37056, Note_on_c, 3, 28, 0
8, 37104, Note_on_c, 3, 30, 110
8, 37152, Note_on_c, 3, 30, 0
8, 37200, Note_on_c, 3, 28, 110
8, 37248, Note_on_c, 3, 28, 0
8, 37248, Note_on_c, 3, 25, 110
8, 37296, Note_on_c, 3, 25, 0
8, 37296, Note_on_c, 3, 37, 110
8, 37344, Note_on_c, 3, 37, 0
8, 37344, Note_on_c, 3, 25, 110
8, 37392, Note_on_c, 3, 25, 0
8, 37392, Note_on_c, 3, 40, 110
8, 37440, Note_on_c, 3, 40, 0
8, 37488, Note_on_c, 3, 37, 110
8, 37536, Note_on_c, 3, 37, 0
8, 37584, Note_on_c, 3, 25, 110
8, 37632, Note_on_c, 3, 25, 0
8, 37632, Note_on_c, 3, 37, 110
8, 37680, Note_on_c, 3, 37, 0
8, 37680, Note_on_c, 3, 25, 110
8, 37728, Note_on_c, 3, 25, 0
8, 37776, Note_on_c, 3, 25, 110
8, 37824, Note_on_c, 3, 25, 0
8, 37824, Note_on_c, 3, 42, 110
8, 37872, Note_on_c, 3, 42, 0
8, 37872, Note_on_c, 3, 25, 110
8, 37920, Note_on_c, 3, 25, 0
8, 37920, Note_on_c, 3, 40, 110
8, 37968, Note_on_c, 3, 40, 0
8, 37968, Note_on_c, 3, 25, 110
8, 38016, Note_on_c, 3, 25, 0
8, 38016, Note_on_c, 3, 37, 110
8, 38064, Note_on_c, 3, 37, 0
8, 38064, Note_on_c, 3, 25, 110
8, 38112, Note_on_c, 3, 25, 0
8, 38160, Note_on_c, 3, 25, 110
8, 38208, Note_on_c, 3, 25, 0
8, 38208, Note_on_c, 3, 42, 110
8, 38256, Note_on_c, 3, 42, 0
8, 38256, Note_on_c, 3, 25, 110
8, 38304, Note_on_c, 3, 25, 0
8, 38304, Note_on_c, 3, 40, 110
8, 38352, Note_on_c, 3, 40, 0
8, 38352, Note_on_c, 3, 25, 110
8, 38400, Note_on_c, 3, 25, 0
8, 38400, Note_on_c, 3, 44, 110
8, 38448, Note_on_c, 3, 44, 0
8, 38448, Note_on_c, 3, 32, 110
8, 38496, Note_on_c, 3, 32, 0
8, 38496, Note_on_c, 3, 39, 110
8, 38544, Note_on_c, 3, 39, 0
8, 38544, Note_on_c, 3, 32, 110
8, 38592, Note_on_c, 3, 32, 0
8, 38592, Note_on_c, 3, 56, 110
8, 38640, Note_on_c, 3, 56, 0
8, 38640, Note_on_c, 3, 32, 110
8, 38688, Note_on_c, 3, 32, 0
8, 38688, Note_on_c, 3, 39, 110
8, 38736, Note_on_c, 3, 39, 0
8, 38736, Note_on_c, 3, 32, 110
8, 38784, Note_on_c, 3, 32, 0
8, 38784, Note_on_c, 3, 32, 110
8, 38832, Note_on_c, 3, 32, 0
8, 38832, Note_on_c, 3, 39, 110
8, 38880, Note_on_c, 3, 39, 0
8, 38880, Note_on_c, 3, 32, 110
8, 38928, Note_on_c, 3, 32, 0
8, 38928, Note_on_c, 3, 44, 110
8, 38976, Note_on_c, 3, 44, 0
8, 38976, Note_on_c, 3, 32, 110
8, 39024, Note_on_c, 3, 32, 0
8, 39024, Note_on_c, 3, 44, 110
8, 39072, Note_on_c, 3, 44, 0
8, 39072, Note_on_c, 3, 32, 110
8, 39120, Note_on_c, 3, 32, 0
8, 39120, Note_on_c, 3, 32, 110
8, 39168, Note_on_c, 3, 32, 0
8, 39168, Note_on_c, 3, 44, 110
8, 39216, Note_on_c, 3, 44, 0
8, 39216, Note_on_c, 3, 32, 110
8, 39264, Note_on_c, 3, 32, 0
8, 39264, Note_on_c, 3, 39, 110
8, 39312, Note_on_c, 3, 39, 0
8, 39312, Note_on_c, 3, 32, 110
8, 39360, Note_on_c, 3, 32, 0
8, 39360, Note_on_c, 3, 56, 110
8, 39408, Note_on_c, 3, 56, 0
8, 39408, Note_on_c, 3, 32, 110
8, 39456, Note_on_c, 3, 32, 0
8, 39456, Note_on_c, 3, 39, 110
8, 39504, Note_on_c, 3, 39, 0
8, 39504, Note_on_c, 3, 32, 110
8, 39552, Note_on_c, 3, 32, 0
8, 39552, Note_on_c, 3, 32, 110
8, 39600, Note_on_c, 3, 32, 0
8, 39600, Note_on_c, 3, 39, 110
8, 39648, Note_on_c, 3, 39, 0
8, 39648, Note_on_c, 3, 32, 110
8, 39696, Note_on_c, 3, 32, 0
8, 39696, Note_on_c, 3, 44, 110
8, 39744, Note_on_c, 3, 44, 0
8, 39744, Note_on_c, 3, 32, 110
8, 39792, Note_on_c, 3, 32, 0
8, 39792, Note_on_c, 3, 44, 110
8, 39840, Note_on_c, 3, 44, 0
8, 39840, Note_on_c, 3, 32, 110
8, 39888, Note_on_c, 3, 32, 0
8, 39888, Note_on_c, 3, 32, 110
8, 39936, Note_on_c, 3, 32, 0
8, 39936, Note_on_c, 3, 37, 110
8, 39984, Note_on_c, 3, 37, 0
8, 39984, Note_on_c, 3, 25, 110
8, 40032, Note_on_c, 3, 25, 0
8, 40032, Note_on_c, 3, 40, 110
8, 40080, Note_on_c, 3, 40, 0
8, 40080, Note_on_c, 3, 28, 110
8, 40128, Note_on_c, 3, 28, 0
8, 40176, Note_on_c, 3, 30, 110
8, 40224, Note_on_c, 3, 30, 0
8, 40272, Note_on_c, 3, 28, 110
8, 40320, Note_on_c, 3, 28, 0
8, 40320, Note_on_c, 3, 25, 110
8, 40368, Note_on_c, 3, 25, 0
8, 40368, Note_on_c, 3, 37, 110
8, 40416, Note_on_c, 3, 37, 0
8, 40416, Note_on_c, 3, 25, 110
8, 40464, Note_on_c, 3, 25, 0
8, 40464, Note_on_c, 3, 40, 110
8, 40512, Note_on_c, 3, 40, 0
8, 40560, Note_on_c, 3, 37, 110
8, 40608, Note_on_c, 3, 37, 0
8, 40656, Note_on_c, 3, 25, 110
8, 40704, Note_on_c, 3, 25, 0
8, 40704, Note_on_c, 3, 37, 110
8, 40752, Note_on_c, 3, 37, 0
8, 40752, Note_on_c, 3, 25, 110
8, 40800, Note_on_c, 3, 25, 0
8, 40848, Note_on_c, 3, 25, 110
8, 40896, Note_on_c, 3, 25, 0
8, 40896, Note_on_c, 3, 42, 110
8, 40944, Note_on_c, 3, 42, 0
8, 40944, Note_on_c, 3, 25, 110
8, 40992, Note_on_c, 3, 25, 0
8, 40992, Note_on_c, 3, 40, 110
8, 41040, Note_on_c, 3, 40, 0
8, 41040, Note_on_c, 3, 25, 110
8, 41088, Note_on_c, 3, 25, 0
8, 41088, Note_on_c, 3, 37, 110
8, 41136, Note_on_c, 3, 37, 0
8, 41136, Note_on_c, 3, 25, 110
8, 41184, Note_on_c, 3, 25, 0
8, 41232, Note_on_c, 3, 25, 110
8, 41280, Note_on_c, 3, 25, 0
8, 41280, Note_on_c, 3, 42, 110
8, 41328, Note_on_c, 3, 42, 0
8, 41328, Note_on_c, 3, 25, 110
8, 41376, Note_on_c, 3, 25, 0
8, 41376, Note_on_c, 3, 40, 110
8, 41424, Note_on_c, 3, 40, 0
8, 41424, Note_on_c, 3, 25, 110
8, 41472, Note_on_c, 3, 25, 0
8, 41472, Note_on_c, 3, 44, 110
8, 41520, Note_on_c, 3, 44, 0
8, 41520, Note_on_c, 3, 32, 110
8, 41568, Note_on_c, 3, 32, 0
8, 41568, Note_on_c, 3, 39, 110
8, 41616, Note_on_c, 3, 39, 0
8, 41616, Note_on_c, 3, 32, 110
8, 41664, Note_on_c, 3, 32, 0
8, 41664, Note_on_c, 3, 56, 110
8, 41712, Note_on_c, 3, 56, 0
8, 41712, Note_on_c, 3, 32, 110
8, 41760, Note_on_c, 3, 32, 0
8, 41760, Note_on_c, 3, 39, 110
8, 41808, Note_on_c, 3, 39, 0
8, 41808, Note_on_c, 3, 32, 110
8, 41856, Note_on_c, 3, 32, 0
8, 41856, Note_on_c, 3, 32, 110
8, 41904, Note_on_c, 3, 32, 0
8, 41904, Note_on_c, 3, 39, 110
8, 41952, Note_on_c, 3, 39, 0
8, 41952, Note_on_c, 3, 32, 110
8, 42000, Note_on_c, 3, 32, 0
8, 42000, Note_on_c, 3, 44, 110
8, 42048, Note_on_c, 3, 44, 0
8, 42048, Note_on_c, 3, 32, 110
8, 42096, Note_on_c, 3, 32, 0
8, 42096, Note_on_c, 3, 44, 110
8, 42144, Note_on_c, 3, 44, 0
8, 42144, Note_on_c, 3, 32, 110
8, 42192, Note_on_c, 3, 32, 0
8, 42192, Note_on_c, 3, 32, 110
8, 42240, Note_on_c, 3, 32, 0
8, 42240, Note_on_c, 3, 44, 110
8, 42288, Note_on_c, 3, 44, 0
8, 42288, Note_on_c, 3, 32, 110
8, 42336, Note_on_c, 3, 32, 0
8, 42336, Note_on_c, 3, 39, 110
8, 42384, Note_on_c, 3, 39, 0
8, 42384, Note_on_c, 3, 32, 110
8, 42432, Note_on_c, 3, 32, 0
8, 42432, Note_on_c, 3, 56, 110
8, 42480, Note_on_c, 3, 56, 0
8, 42480, Note_on_c, 3, 32, 110
8, 42528, Note_on_c, 3, 32, 0
8, 42528, Note_on_c, 3, 39, 110
8, 42576, Note_on_c, 3, 39, 0
8, 42576, Note_on_c, 3, 32, 110
8, 42624, Note_on_c, 3, 32, 0
8, 42624, Note_on_c, 3, 32, 110
8, 42672, Note_on_c, 3, 32, 0
8, 42672, Note_on_c, 3, 39, 110
8, 42720, Note_on_c, 3, 39, 0
8, 42720, Note_on_c, 3, 32, 110
8, 42768, Note_on_c, 3, 32, 0
8, 42768, Note_on_c, 3, 44, 110
8, 42816, Note_on_c, 3, 44, 0
8, 42816, Note_on_c, 3, 32, 110
8, 42864, Note_on_c, 3, 32, 0
8, 42864, Note_on_c, 3, 44, 110
8, 42912, Note_on_c, 3, 44, 0
8, 42912, Note_on_c, 3, 32, 110
8, 42960, Note_on_c, 3, 32, 0
8, 42960, Note_on_c, 3, 32, 110
8, 43008, Note_on_c, 3, 32, 0
8, 43008, Note_on_c, 3, 37, 110
8, 43056, Note_on_c, 3, 37, 0
8, 43056, Note_on_c, 3, 25, 110
8, 43104, Note_on_c, 3, 25, 0
8, 43104, Note_on_c, 3, 40, 110
8, 43152, Note_on_c, 3, 40, 0
8, 43152, Note_on_c, 3, 28, 110
8, 43200, Note_on_c, 3, 28, 0
8, 43248, Note_on_c, 3, 30, 110
8, 43296, Note_on_c, 3, 30, 0
8, 43344, Note_on_c, 3, 28, 110
8, 43392, Note_on_c, 3, 28, 0
8, 43392, Note_on_c, 3, 25, 110
8, 43440, Note_on_c, 3, 25, 0
8, 43440, Note_on_c, 3, 37, 110
8, 43488, Note_on_c, 3, 37, 0
8, 43488, Note_on_c, 3, 25, 110
8, 43536, Note_on_c, 3, 25, 0
8, 43536, Note_on_c, 3, 40, 110
8, 43584, Note_on_c, 3, 40, 0
8, 43632, Note_on_c, 3, 37, 110
8, 43680, Note_on_c, 3, 37, 0
8, 43728, Note_on_c, 3, 25, 110
8, 43776, Note_on_c, 3, 25, 0
8, 43776, Note_on_c, 3, 37, 110
8, 43824, Note_on_c, 3, 37, 0
8, 43824, Note_on_c, 3, 25, 110
8, 43872, Note_on_c, 3, 25, 0
8, 43920, Note_on_c, 3, 25, 110
8, 43968, Note_on_c, 3, 25, 0
8, 43968, Note_on_c, 3, 42, 110
8, 44016, Note_on_c, 3, 42, 0
8, 44016, Note_on_c, 3, 25, 110
8, 44064, Note_on_c, 3, 25, 0
8, 44064, Note_on_c, 3, 40, 110
8, 44112, Note_on_c, 3, 40, 0
8, 44112, Note_on_c, 3, 25, 110
8, 44160, Note_on_c, 3, 25, 0
8, 44160, Note_on_c, 3, 37, 110
8, 44208, Note_on_c, 3, 37, 0
8, 44208, Note_on_c, 3, 25, 110
8, 44256, Note_on_c, 3, 25, 0
8, 44304, Note_on_c, 3, 25, 110
8, 44352, Note_on_c, 3, 25, 0
8, 44352, Note_on_c, 3, 42, 110
8, 44400, Note_on_c, 3, 42, 0
8, 44400, Note_on_c, 3, 25, 110
8, 44448, Note_on_c, 3, 25, 0
8, 44448, Note_on_c, 3, 40, 110
8, 44496, Note_on_c, 3, 40, 0
8, 44496, Note_on_c, 3, 25, 110
8, 44544, Note_on_c, 3, 25, 0
8, 44544, Note_on_c, 3, 44, 110
8, 44592, Note_on_c, 3, 44, 0
8, 44592, Note_on_c, 3, 32, 110
8, 44640, Note_on_c, 3, 32, 0
8, 44640, Note_on_c, 3, 39, 110
8, 44688, Note_on_c, 3, 39, 0
8, 44688, Note_on_c, 3, 32, 110
8, 44736, Note_on_c, 3, 32, 0
8, 44736, Note_on_c, 3, 56, 110
8, 44784, Note_on_c, 3, 56, 0
8, 44784, Note_on_c, 3, 32, 110
8, 44832, Note_on_c, 3, 32, 0
8, 44832, Note_on_c, 3, 39, 110
8, 44880, Note_on_c, 3, 39, 0
8, 44880, Note_on_c, 3, 32, 110
8, 44928, Note_on_c, 3, 32, 0
8, 44928, Note_on_c, 3, 32, 110
8, 44976, Note_on_c, 3, 32, 0
8, 44976, Note_on_c, 3, 39, 110
8, 45024, Note_on_c, 3, 39, 0
8, 45024, Note_on_c, 3, 32, 110
8, 45072, Note_on_c, 3, 32, 0
8, 45072, Note_on_c, 3, 44, 110
8, 45120, Note_on_c, 3, 44, 0
8, 45120, Note_on_c, 3, 32, 110
8, 45168, Note_on_c, 3, 32, 0
8, 45168, Note_on_c, 3, 44, 110
8, 45216, Note_on_c, 3, 44, 0
8, 45216, Note_on_c, 3, 32, 110
8, 45264, Note_on_c, 3, 32, 0
8, 45264, Note_on_c, 3, 32, 110
8, 45312, Note_on_c, 3, 32, 0
8, 45312, Note_on_c, 3, 44, 110
8, 45360, Note_on_c, 3, 44, 0
8, 45360, Note_on_c, 3, 32, 110
8, 45408, Note_on_c, 3, 32, 0
8, 45408, Note_on_c, 3, 39, 110
8, 45456, Note_on_c, 3, 39, 0
8, 45456, Note_on_c, 3, 32, 110
8, 45504, Note_on_c, 3, 32, 0
8, 45504, Note_on_c, 3, 56, 110
8, 45552, Note_on_c, 3, 56, 0
8, 45552, Note_on_c, 3, 32, 110
8, 45600, Note_on_c, 3, 32, 0
8, 45600, Note_on_c, 3, 39, 110
8, 45648, Note_on_c, 3, 39, 0
8, 45648, Note_on_c, 3, 32, 110
8, 45696, Note_on_c, 3, 32, 0
8, 45696, Note_on_c, 3, 32, 110
8, 45744, Note_on_c, 3, 32, 0
8, 45744, Note_on_c, 3, 39, 110
8, 45792, Note_on_c, 3, 39, 0
8, 45792, Note_on_c, 3, 32, 110
8, 45840, Note_on_c, 3, 32, 0
8, 45840, Note_on_c, 3, 44, 110
8, 45888, Note_on_c, 3, 44, 0
8, 45888, Note_on_c, 3, 32, 110
8, 45936, Note_on_c, 3, 32, 0
8, 45936, Note_on_c, 3, 44, 110
8, 45984, Note_on_c, 3, 44, 0
8, 45984, Note_on_c, 3, 32, 110
8, 46032, Note_on_c, 3, 32, 0
8, 46032, Note_on_c, 3, 32, 110
8, 46080, Note_on_c, 3, 32, 0
8, 46080, Note_on_c, 3, 37, 110
8, 46128, Note_on_c, 3, 37, 0
8, 46128, Note_on_c, 3, 25, 110
8, 46176, Note_on_c, 3, 25, 0
8, 46176, Note_on_c, 3, 40, 110
8, 46224, Note_on_c, 3, 40, 0
8, 46224, Note_on_c, 3, 28, 110
8, 46272, Note_on_c, 3, 28, 0
8, 46320, Note_on_c, 3, 30, 110
8, 46368, Note_on_c, 3, 30, 0
8, 46416, Note_on_c, 3, 28, 110
8, 46464, Note_on_c, 3, 28, 0
8, 46464, Note_on_c, 3, 25, 110
8, 46512, Note_on_c, 3, 25, 0
8, 46512, Note_on_c, 3, 37, 110
8, 46560, Note_on_c, 3, 37, 0
8, 46560, Note_on_c, 3, 25, 110
8, 46608, Note_on_c, 3, 25, 0
8, 46608, Note_on_c, 3, 40, 110
8, 46656, Note_on_c, 3, 40, 0
8, 46704, Note_on_c, 3, 37, 110
8, 46752, Note_on_c, 3, 37, 0
8, 46800, Note_on_c, 3, 25, 110
8, 46848, Note_on_c, 3, 25, 0
8, 46848, Note_on_c, 3, 37, 110
8, 46896, Note_on_c, 3, 37, 0
8, 46896, Note_on_c, 3, 25, 110
8, 46944, Note_on_c, 3, 25, 0
8, 46992, Note_on_c, 3, 25, 110
8, 47040, Note_on_c, 3, 25, 0
8, 47040, Note_on_c, 3, 42, 110
8, 47088, Note_on_c, 3, 42, 0
8, 47088, Note_on_c, 3, 25, 110
8, 47136, Note_on_c, 3, 25, 0
8, 47136, Note_on_c, 3, 40, 110
8, 47184, Note_on_c, 3, 40, 0
8, 47184, Note_on_c, 3, 25, 110
8, 47232, Note_on_c, 3, 25, 0
8, 47232, Note_on_c, 3, 37, 110
8, 47280, Note_on_c, 3, 37, 0
8, 47280, Note_on_c, 3, 25, 110
8, 47328, Note_on_c, 3, 25, 0
8, 47376, Note_on_c, 3, 25, 110
8, 47424, Note_on_c, 3, 25, 0
8, 47424, Note_on_c, 3, 42, 110
8, 47472, Note_on_c, 3, 42, 0
8, 47472, Note_on_c, 3, 25, 110
8, 47520, Note_on_c, 3, 25, 0
8, 47520, Note_on_c, 3, 40, 110
8, 47568, Note_on_c, 3, 40, 0
8, 47568, Note_on_c, 3, 25, 110
8, 47616, Note_on_c, 3, 25, 0
8, 47616, Note_on_c, 3, 44, 110
8, 47664, Note_on_c, 3, 44, 0
8, 47664, Note_on_c, 3, 32, 110
8, 47712, Note_on_c, 3, 32, 0
8, 47712, Note_on_c, 3, 39, 110
8, 47760, Note_on_c, 3, 39, 0
8, 47760, Note_on_c, 3, 32, 110
8, 47808, Note_on_c, 3, 32, 0
8, 47808, Note_on_c, 3, 56, 110
8, 47856, Note_on_c, 3, 56, 0
8, 47856, Note_on_c, 3, 32, 110
8, 47904, Note_on_c, 3, 32, 0
8, 47904, Note_on_c, 3, 39, 110
8, 47952, Note_on_c, 3, 39, 0
8, 47952, Note_on_c, 3, 32, 110
8, 48000, Note_on_c, 3, 32, 0
8, 48000, Note_on_c, 3, 32, 110
8, 48048, Note_on_c, 3, 32, 0
8, 48048, Note_on_c, 3, 39, 110
8, 48096, Note_on_c, 3, 39, 0
8, 48096, Note_on_c, 3, 32, 110
8, 48144, Note_on_c, 3, 32, 0
8, 48144, Note_on_c, 3, 44, 110
8, 48192, Note_on_c, 3, 44, 0
8, 48192, Note_on_c, 3, 32, 110
8, 48240, Note_on_c, 3, 32, 0
8, 48240, Note_on_c, 3, 44, 110
8, 48288, Note_on_c, 3, 44, 0
8, 48288, Note_on_c, 3, 32, 110
8, 48336, Note_on_c, 3, 32, 0
8, 48336, Note_on_c, 3, 32, 110
8, 48384, Note_on_c, 3, 32, 0
8, 48384, Note_on_c, 3, 44, 110
8, 48432, Note_on_c, 3, 44, 0
8, 48432, Note_on_c, 3, 32, 110
8, 48480, Note_on_c, 3, 32, 0
8, 48480, Note_on_c, 3, 39, 110
8, 48528, Note_on_c, 3, 39, 0
8, 48528, Note_on_c, 3, 32, 110
8, 48576, Note_on_c, 3, 32, 0
8, 48576, Note_on_c, 3, 56, 110
8, 48624, Note_on_c, 3, 56, 0
8, 48624, Note_on_c, 3, 32, 110
8, 48672, Note_on_c, 3, 32, 0
8, 48672, Note_on_c, 3, 39, 110
8, 48720, Note_on_c, 3, 39, 0
8, 48720, Note_on_c, 3, 32, 110
8, 48768, Note_on_c, 3, 32, 0
8, 48768, Note_on_c, 3, 32, 110
8, 48816, Note_on_c, 3, 32, 0
8, 48816, Note_on_c, 3, 39, 110
8, 48864, Note_on_c, 3, 39, 0
8, 48864, Note_on_c, 3, 32, 110
8, 48912, Note_on_c, 3, 32, 0
8, 48912, Note_on_c, 3, 44, 110
8, 48960, Note_on_c, 3, 44, 0
8, 48960, Note_on_c, 3, 32, 110
8, 49008, Note_on_c, 3, 32, 0
8, 49008, Note_on_c, 3, 44, 110
8, 49056, Note_on_c, 3, 44, 0
8, 49056, Note_on_c, 3, 32, 110
8, 49104, Note_on_c, 3, 32, 0
8, 49104, Note_on_c, 3, 32, 110
8, 49152, Note_on_c, 3, 32, 0
8, 76800, Note_on_c, 3, 37, 110
8, 76848, Note_on_c, 3, 37, 0
8, 76848, Note_on_c, 3, 25, 110
8, 76896, Note_on_c, 3, 25, 0
8, 76896, Note_on_c, 3, 40, 110
8, 76944, Note_on_c, 3, 40, 0
8, 76944, Note_on_c, 3, 28, 110
8, 76992, Note_on_c, 3, 28, 0
8, 77040, Note_on_c, 3, 30, 110
8, 77088, Note_on_c, 3, 30, 0
8, 77136, Note_on_c, 3, 28, 110
8, 77184, Note_on_c, 3, 28, 0
8, 77184, Note_on_c, 3, 25, 110
8, 77232, Note_on_c, 3, 25, 0
8, 77232, Note_on_c, 3, 37, 110
8, 77280, Note_on_c, 3, 37, 0
8, 77280, Note_on_c, 3, 25, 110
8, 77328, Note_on_c, 3, 25, 0
8, 77328, Note_on_c, 3, 40, 110
8, 77376, Note_on_c, 3, 40, 0
8, 77424, Note_on_c, 3, 37, 110
8, 77472, Note_on_c, 3, 37, 0
8, 77520, Note_on_c, 3, 25, 110
8, 77568, Note_on_c, 3, 25, 0
8, 77568, Note_on_c, 3, 37, 110
8, 77616, Note_on_c, 3, 37, 0
8, 77616, Note_on_c, 3, 25, 110
8, 77664, Note_on_c, 3, 25, 0
8, 77712, Note_on_c, 3, 25, 110
8, 77760, Note_on_c, 3, 25, 0
8, 77760, Note_on_c, 3, 42, 110
8, 77808, Note_on_c, 3, 42, 0
8, 77808, Note_on_c, 3, 25, 110
8, 77856, Note_on_c, 3, 25, 0
8, 77856, Note_on_c, 3, 40, 110
8, 77904, Note_on_c, 3, 40, 0
8, 77904, Note_on_c, 3, 25, 110
8, 77952, Note_on_c, 3, 25, 0
8, 77952, Note_on_c, 3, 37, 110
8, 78000, Note_on_c, 3, 37, 0
8, 78000, Note_on_c, 3, 25, 110
8, 78048, Note_on_c, 3, 25, 0
8, 78096, Note_on_c, 3, 25, 110
8, 78144, Note_on_c, 3, 25, 0
8, 78144, Note_on_c, 3, 42, 110
8, 78192, Note_on_c, 3, 42, 0
8, 78192, Note_on_c, 3, 25, 110
8, 78240, Note_on_c, 3, 25, 0
8, 78240, Note_on_c, 3, 40, 110
8, 78288, Note_on_c, 3, 40, 0
8, 78288, Note_on_c, 3, 25, 110
8, 78336, Note_on_c, 3, 25, 0
8, 78336, Note_on_c, 3, 44, 110
8, 78384, Note_on_c, 3, 44, 0
8, 78384, Note_on_c, 3, 32, 110
8, 78432, Note_on_c, 3, 32, 0
8, 78432, Note_on_c, 3, 39, 110
8, 78480, Note_on_c, 3, 39, 0
8, 78480, Note_on_c, 3, 32, 110
8, 78528, Note_on_c, 3, 32, 0
8, 78528, Note_on_c, 3, 56, 110
8, 78576, Note_on_c, 3, 56, 0
8, 78576, Note_on_c, 3, 32, 110
8, 78624, Note_on_c, 3, 32, 0
8, 78624, Note_on_c, 3, 39, 110
8, 78672, Note_on_c, 3, 39, 0
8, 78672, Note_on_c, 3, 32, 110
8, 78720, Note_on_c, 3, 32, 0
8, 78720, Note_on_c, 3, 32, 110
8, 78768, Note_on_c, 3, 32, 0
8, 78768, Note_on_c, 3, 39, 110
8, 78816, Note_on_c, 3, 39, 0
8, 78816, Note_on_c, 3, 32, 110
8, 78864, Note_on_c, 3, 32, 0
8, 78864, Note_on_c, 3, 44, 110
8, 78912, Note_on_c, 3, 44, 0
8, 78912, Note_on_c, 3, 32, 110
8, 78960, Note_on_c, 3, 32, 0
8, 78960, Note_on_c, 3, 44, 110
8, 79008, Note_on_c, 3, 44, 0
8, 79008, Note_on_c, 3, 32, 110
8, 79056, Note_on_c, 3, 32, 0
8, 79056, Note_on_c, 3, 32, 110
8, 79104, Note_on_c, 3, 32, 0
8, 79104, Note_on_c, 3, 44, 110
8, 79152, Note_on_c, 3, 44, 0
8, 79152, Note_on_c, 3, 32, 110
8, 79200, Note_on_c, 3, 32, 0
8, 79200, Note_on_c, 3, 39, 110
8, 79248, Note_on_c, 3, 39, 0
8, 79248, Note_on_c, 3, 32, 110
8, 79296, Note_on_c, 3, 32, 0
8, 79296, Note_on_c, 3, 56, 110
8, 79344, Note_on_c, 3, 56, 0
8, 79344, Note_on_c, 3, 32, 110
8, 79392, Note_on_c, 3, 32, 0
8, 79392, Note_on_c, 3, 39, 110
8, 79440, Note_on_c, 3, 39, 0
8, 79440, Note_on_c, 3, 32, 110
8, 79488, Note_on_c, 3, 32, 0
8, 79488, Note_on_c, 3, 32, 110
8, 79536, Note_on_c, 3, 32, 0
8, 79536, Note_on_c, 3, 39, 110
8, 79584, Note_on_c, 3, 39, 0
8, 79584, Note_on_c, 3, 32, 110
8, 79632, Note_on_c, 3, 32, 0
8, 79632, Note_on_c, 3, 44, 110
8, 79680, Note_on_c, 3, 44, 0
8, 79680, Note_on_c, 3, 32, 110
8, 79728, Note_on_c, 3, 32, 0
8, 79728, Note_on_c, 3, 44, 110
8, 79776, Note_on_c, 3, 44, 0
8, 79776, Note_on_c, 3, 32, 110
8, 79824, Note_on_c, 3, 32, 0
8, 79824, Note_on_c, 3, 32, 110
8, 79872, Note_on_c, 3, 32, 0
8, 79872, Note_on_c, 3, 37, 110
8, 79920, Note_on_c, 3, 37, 0
8, 79920, Note_on_c, 3, 25, 110
8, 79968, Note_on_c, 3, 25, 0
8, 79968, Note_on_c, 3, 40, 110
8, 80016, Note_on_c, 3, 40, 0
8, 80016, Note_on_c, 3, 28, 110
8, 80064, Note_on_c, 3, 28, 0
8, 80112, Note_on_c, 3, 30, 110
8, 80160, Note_on_c, 3, 30, 0
8, 80208, Note_on_c, 3, 28, 110
8, 80256, Note_on_c, 3, 28, 0
8, 80256, Note_on_c, 3, 25, 110
8, 80304, Note_on_c, 3, 25, 0
8, 80304, Note_on_c, 3, 37, 110
8, 80352, Note_on_c, 3, 37, 0
8, 80352, Note_on_c, 3, 25, 110
8, 80400, Note_on_c, 3, 25, 0
8, 80400, Note_on_c, 3, 40, 110
8, 80448, Note_on_c, 3, 40, 0
8, 80496, Note_on_c, 3, 37, 110
8, 80544, Note_on_c, 3, 37, 0
8, 80592, Note_on_c, 3, 25, 110
8, 80640, Note_on_c, 3, 25, 0
8, 80640, Note_on_c, 3, 37, 110
8, 80688, Note_on_c, 3, 37, 0
8, 80688, Note_on_c, 3, 25, 110
8, 80736, Note_on_c, 3, 25, 0
8, 80784, Note_on_c, 3, 25, 110
8, 80832, Note_on_c, 3, 25, 0
8, 80832, Note_on_c, 3, 42, 110
8, 80880, Note_on_c, 3, 42, 0
8, 80880, Note_on_c, 3, 25, 110
8, 80928, Note_on_c, 3, 25, 0
8, 80928, Note_on_c, 3, 40, 110
8, 80976, Note_on_c, 3, 40, 0
8, 80976, Note_on_c, 3, 25, 110
8, 81024, Note_on_c, 3, 25, 0
8, 81024, Note_on_c, 3, 37, 110
8, 81072, Note_on_c, 3, 37, 0
8, 81072, Note_on_c, 3, 25, 110
8, 81120, Note_on_c, 3, 25, 0
8, 81168, Note_on_c, 3, 25, 110
8, 81216, Note_on_c, 3, 25, 0
8, 81216, Note_on_c, 3, 42, 110
8, 81264, Note_on_c, 3, 42, 0
8, 81264, Note_on_c, 3, 25, 110
8, 81312, Note_on_c, 3, 25, 0
8, 81312, Note_on_c, 3, 40, 110
8, 81360, Note_on_c, 3, 40, 0
8, 81360, Note_on_c, 3, 25, 110
8, 81408, Note_on_c, 3, 25, 0
8, 81408, Note_on_c, 3, 44, 110
8, 81456, Note_on_c, 3, 44, 0
8, 81456, Note_on_c, 3, 32, 110
8, 81504, Note_on_c, 3, 32, 0
8, 81504, Note_on_c, 3, 39, 110
8, 81552, Note_on_c, 3, 39, 0
8, 81552, Note_on_c, 3, 32, 110
8, 81600, Note_on_c, 3, 32, 0
8, 81600, Note_on_c, 3, 56, 110
8, 81648, Note_on_c, 3, 56, 0
8, 81648, Note_on_c, 3, 32, 110
8, 81696, Note_on_c, 3, 32, 0
8, 81696, Note_on_c, 3, 39, 110
8, 81744, Note_on_c, 3, 39, 0
8, 81744, Note_on_c, 3, 32, 110
8, 81792, Note_on_c, 3, 32, 0
8, 81792, Note_on_c, 3, 32, 110
8, 81840, Note_on_c, 3, 32, 0
8, 81840, Note_on_c, 3, 39, 110
8, 81888, Note_on_c, 3, 39, 0
8, 81888, Note_on_c, 3, 32, 110
8, 81936, Note_on_c, 3, 32, 0
8, 81936, Note_on_c, 3, 44, 110
8, 81984, Note_on_c, 3, 44, 0
8, 81984, Note_on_c, 3, 32, 110
8, 82032, Note_on_c, 3, 32, 0
8, 82032, Note_on_c, 3, 44, 110
8, 82080, Note_on_c, 3, 44, 0
8, 82080, Note_on_c, 3, 32, 110
8, 82128, Note_on_c, 3, 32, 0
8, 82128, Note_on_c, 3, 32, 110
8, 82176, Note_on_c, 3, 32, 0
8, 82176, Note_on_c, 3, 44, 110
8, 82224, Note_on_c, 3, 44, 0
8, 82224, Note_on_c, 3, 32, 110
8, 82272, Note_on_c, 3, 32, 0
8, 82272, Note_on_c, 3, 39, 110
8, 82320, Note_on_c, 3, 39, 0
8, 82320, Note_on_c, 3, 32, 110
8, 82368, Note_on_c, 3, 32, 0
8, 82368, Note_on_c, 3, 56, 110
8, 82416, Note_on_c, 3, 56, 0
8, 82416, Note_on_c, 3, 32, 110
8, 82464, Note_on_c, 3, 32, 0
8, 82464, Note_on_c, 3, 39, 110
8, 82512, Note_on_c, 3, 39, 0
8, 82512, Note_on_c, 3, 32, 110
8, 82560, Note_on_c, 3, 32, 0
8, 82560, Note_on_c, 3, 32, 110
8, 82608, Note_on_c, 3, 32, 0
8, 82608, Note_on_c, 3, 39, 110
8, 82656, Note_on_c, 3, 39, 0
8, 82656, Note_on_c, 3, 32, 110
8, 82704, Note_on_c, 3, 32, 0
8, 82704, Note_on_c, 3, 44, 110
8, 82752, Note_on_c, 3, 44, 0
8, 82752, Note_on_c, 3, 32, 110
8, 82800, Note_on_c, 3, 32, 0
8, 82800, Note_on_c, 3, 44, 110
8, 82848, Note_on_c, 3, 44, 0
8, 82848, Note_on_c, 3, 32, 110
8, 82896, Note_on_c, 3, 32, 0
8, 82896, Note_on_c, 3, 32, 110
8, 82944, Note_on_c, 3, 32, 0
8, 82944, Note_on_c, 3, 37, 110
8, 82992, Note_on_c, 3, 37, 0
8, 82992, Note_on_c, 3, 25, 110
8, 83040, Note_on_c, 3, 25, 0
8, 83040, Note_on_c, 3, 40, 110
8, 83088, Note_on_c, 3, 40, 0
8, 83088, Note_on_c, 3, 28, 110
8, 83136, Note_on_c, 3, 28, 0
8, 83184, Note_on_c, 3, 30, 110
8, 83232, Note_on_c, 3, 30, 0
8, 83280, Note_on_c, 3, 28, 110
8, 83328, Note_on_c, 3, 28, 0
8, 83328, Note_on_c, 3, 25, 110
8, 83376, Note_on_c, 3, 25, 0
8, 83376, Note_on_c, 3, 37, 110
8, 83424, Note_on_c, 3, 37, 0
8, 83424, Note_on_c, 3, 25, 110
8, 83472, Note_on_c, 3, 25, 0
8, 83472, Note_on_c, 3, 40, 110
8, 83520, Note_on_c, 3, 40, 0
8, 83568, Note_on_c, 3, 37, 110
8, 83616, Note_on_c, 3, 37, 0
8, 83664, Note_on_c, 3, 25, 110
8, 83712, Note_on_c, 3, 25, 0
8, 83712, Note_on_c, 3, 37, 110
8, 83760, Note_on_c, 3, 37, 0
8, 83760, Note_on_c, 3, 25, 110
8, 83808, Note_on_c, 3, 25, 0
8, 83856, Note_on_c, 3, 25, 110
8, 83904, Note_on_c, 3, 25, 0
8, 83904, Note_on_c, 3, 42, 110
8, 83952, Note_on_c, 3, 42, 0
8, 83952, Note_on_c, 3, 25, 110
8, 84000, Note_on_c, 3, 25, 0
8, 84000, Note_on_c, 3, 40, 110
8, 84048, Note_on_c, 3, 40, 0
8, 84048, Note_on_c, 3, 25, 110
8, 84096, Note_on_c, 3, 25, 0
8, 84096, Note_on_c, 3, 37, 110
8, 84144, Note_on_c, 3, 37, 0
8, 84144, Note_on_c, 3, 25, 110
8, 84192, Note_on_c, 3, 25, 0
8, 84240, Note_on_c, 3, 25, 110
8, 84288, Note_on_c, 3, 25, 0
8, 84288, Note_on_c, 3, 42, 110
8, 84336, Note_on_c, 3, 42, 0
8, 84336, Note_on_c, 3, 25, 110
8, 84384, Note_on_c, 3, 25, 0
8, 84384, Note_on_c, 3, 40, 110
8, 84432, Note_on_c, 3, 40, 0
8, 84432, Note_on_c, 3, 25, 110
8, 84480, Note_on_c, 3, 25, 0
8, 84480, Note_on_c, 3, 44, 110
8, 84528, Note_on_c, 3, 44, 0
8, 84528, Note_on_c, 3, 32, 110
8, 84576, Note_on_c, 3, 32, 0
8, 84576, Note_on_c, 3, 39, 110
8, 84624, Note_on_c, 3, 39, 0
8, 84624, Note_on_c, 3, 32, 110
8, 84672, Note_on_c, 3, 32, 0
8, 84672, Note_on_c, 3, 56, 110
8, 84720, Note_on_c, 3, 56, 0
8, 84720, Note_on_c, 3, 32, 110
8, 84768, Note_on_c, 3, 32, 0
8, 84768, Note_on_c, 3, 39, 110
8, 84816, Note_on_c, 3, 39, 0
8, 84816, Note_on_c, 3, 32, 110
8, 84864, Note_on_c, 3, 32, 0
8, 84864, Note_on_c, 3, 32, 110
8, 84912, Note_on_c, 3, 32, 0
8, 84912, Note_on_c, 3, 39, 110
8, 84960, Note_on_c, 3, 39, 0
8, 84960, Note_on_c, 3, 32, 110
8, 85008, Note_on_c, 3, 32, 0
8, 85008, Note_on_c, 3, 44, 110
8, 85056, Note_on_c, 3, 44, 0
8, 85056, Note_on_c, 3, 32, 110
8, 85104, Note_on_c, 3, 32, 0
8, 85104, Note_on_c, 3, 44, 110
8, 85152, Note_on_c, 3, 44, 0
8, 85152, Note_on_c, 3, 32, 110
8, 85200, Note_on_c, 3, 32, 0
8, 85200, Note_on_c, 3, 32, 110
8, 85248, Note_on_c, 3, 32, 0
8, 85248, Note_on_c, 3, 44, 110
8, 85296, Note_on_c, 3, 44, 0
8, 85296, Note_on_c, 3, 32, 110
8, 85344, Note_on_c, 3, 32, 0
8, 85344, Note_on_c, 3, 39, 110
8, 85392, Note_on_c, 3, 39, 0
8, 85392, Note_on_c, 3, 32, 110
8, 85440, Note_on_c, 3, 32, 0
8, 85440, Note_on_c, 3, 56, 110
8, 85488, Note_on_c, 3, 56, 0
8, 85488, Note_on_c, 3, 32, 110
8, 85536, Note_on_c, 3, 32, 0
8, 85536, Note_on_c, 3, 39, 110
8, 85584, Note_on_c, 3, 39, 0
8, 85584, Note_on_c, 3, 32, 110
8, 85632, Note_on_c, 3, 32, 0
8, 85632, Note_on_c, 3, 32, 110
8, 85680, Note_on_c, 3, 32, 0
8, 85680, Note_on_c, 3, 39, 110
8, 85728, Note_on_c, 3, 39, 0
8, 85728, Note_on_c, 3, 32, 110
8, 85776, Note_on_c, 3, 32, 0
8, 85776, Note_on_c, 3, 44, 110
8, 85824, Note_on_c, 3, 44, 0
8, 85824, Note_on_c, 3, 32, 110
8, 85872, Note_on_c, 3, 32, 0
8, 85872, Note_on_c, 3, 44, 110
8, 85920, Note_on_c, 3, 44, 0
8, 85920, Note_on_c, 3, 32, 110
8, 85968, Note_on_c, 3, 32, 0
8, 85968, Note_on_c, 3, 32, 110
8, 86016, Note_on_c, 3, 32, 0
8, 86016, End_track
9, 0, Start_track
9, 0, MIDI_port, 0
9, 0, Title_t, "Staff-7"
9, 0, Control_c, 4, 7, 105
9, 0, Control_c, 4, 10, 64
9, 0, Program_c, 4, 74
9, 12288, Note_on_c, 4, 61, 110
9, 12334, Note_on_c, 4, 61, 0
9, 12336, Note_on_c, 4, 63, 110
9, 12382, Note_on_c, 4, 63, 0
9, 12384, Note_on_c, 4, 64, 110
9, 12430, Note_on_c, 4, 64, 0
9, 12432, Note_on_c, 4, 64, 110
9, 12478, Note_on_c, 4, 64, 0
9, 12480, Note_on_c, 4, 64, 110
9, 12574, Note_on_c, 4, 64, 0
9, 12576, Note_on_c, 4, 68, 110
9, 12670, Note_on_c, 4, 68, 0
9, 12672, Note_on_c, 4, 64, 110
9, 12688, Note_on_c, 4, 64, 0
9, 12696, Note_on_c, 4, 64, 110
9, 12712, Note_on_c, 4, 64, 0
9, 12720, Note_on_c, 4, 64, 110
9, 12736, Note_on_c, 4, 64, 0
9, 12744, Note_on_c, 4, 64, 110
9, 12760, Note_on_c, 4, 64, 0
9, 12768, Note_on_c, 4, 64, 110
9, 12784, Note_on_c, 4, 64, 0
9, 12792, Note_on_c, 4, 64, 110
9, 12808, Note_on_c, 4, 64, 0
9, 12816, Note_on_c, 4, 64, 110
9, 12832, Note_on_c, 4, 64, 0
9, 12840, Note_on_c, 4, 64, 110
9, 12856, Note_on_c, 4, 64, 0
9, 12864, Note_on_c, 4, 63, 110
9, 12880, Note_on_c, 4, 63, 0
9, 12888, Note_on_c, 4, 63, 110
9, 12904, Note_on_c, 4, 63, 0
9, 12912, Note_on_c, 4, 63, 110
9, 12928, Note_on_c, 4, 63, 0
9, 12936, Note_on_c, 4, 63, 110
9, 12952, Note_on_c, 4, 63, 0
9, 12960, Note_on_c, 4, 63, 110
9, 12976, Note_on_c, 4, 63, 0
9, 12984, Note_on_c, 4, 63, 110
9, 13000, Note_on_c, 4, 63, 0
9, 13008, Note_on_c, 4, 63, 110
9, 13024, Note_on_c, 4, 63, 0
9, 13032, Note_on_c, 4, 63, 110
9, 13048, Note_on_c, 4, 63, 0
9, 13056, Note_on_c, 4, 61, 110
9, 13102, Note_on_c, 4, 61, 0
9, 13104, Note_on_c, 4, 63, 110
9, 13150, Note_on_c, 4, 63, 0
9, 13152, Note_on_c, 4, 64, 110
9, 13198, Note_on_c, 4, 64, 0
9, 13200, Note_on_c, 4, 64, 110
9, 13246, Note_on_c, 4, 64, 0
9, 13248, Note_on_c, 4, 64, 110
9, 13342, Note_on_c, 4, 64, 0
9, 13344, Note_on_c, 4, 68, 110
9, 13438, Note_on_c, 4, 68, 0
9, 13440, Note_on_c, 4, 64, 110
9, 13456, Note_on_c, 4, 64, 0
9, 13464, Note_on_c, 4, 64, 110
9, 13480, Note_on_c, 4, 64, 0
9, 13488, Note_on_c, 4, 64, 110
9, 13504, Note_on_c, 4, 64, 0
9, 13512, Note_on_c, 4, 64, 110
9, 13528, Note_on_c, 4, 64, 0
9, 13536, Note_on_c, 4, 64, 110
9, 13552, Note_on_c, 4, 64, 0
9, 13560, Note_on_c, 4, 64, 110
9, 13576, Note_on_c, 4, 64, 0
9, 13584, Note_on_c, 4, 64, 110
9, 13600, Note_on_c, 4, 64, 0
9, 13608, Note_on_c, 4, 64, 110
9, 13624, Note_on_c, 4, 64, 0
9, 13632, Note_on_c, 4, 63, 110
9, 13648, Note_on_c, 4, 63, 0
9, 13656, Note_on_c, 4, 63, 110
9, 13672, Note_on_c, 4, 63, 0
9, 13680, Note_on_c, 4, 63, 110
9, 13696, Note_on_c, 4, 63, 0
9, 13704, Note_on_c, 4, 63, 110
9, 13720, Note_on_c, 4, 63, 0
9, 13728, Note_on_c, 4, 63, 110
9, 13744, Note_on_c, 4, 63, 0
9, 13752, Note_on_c, 4, 63, 110
9, 13768, Note_on_c, 4, 63, 0
9, 13776, Note_on_c, 4, 63, 110
9, 13792, Note_on_c, 4, 63, 0
9, 13800, Note_on_c, 4, 63, 110
9, 13816, Note_on_c, 4, 63, 0
9, 13824, Note_on_c, 4, 68, 110
9, 13870, Note_on_c, 4, 68, 0
9, 13872, Note_on_c, 4, 70, 110
9, 13918, Note_on_c, 4, 70, 0
9, 13920, Note_on_c, 4, 71, 110
9, 13966, Note_on_c, 4, 71, 0
9, 13968, Note_on_c, 4, 71, 110
9, 14014, Note_on_c, 4, 71, 0
9, 14016, Note_on_c, 4, 71, 110
9, 14110, Note_on_c, 4, 71, 0
9, 14112, Note_on_c, 4, 75, 110
9, 14206, Note_on_c, 4, 75, 0
9, 14208, Note_on_c, 4, 71, 110
9, 14224, Note_on_c, 4, 71, 0
9, 14232, Note_on_c, 4, 71, 110
9, 14248, Note_on_c, 4, 71, 0
9, 14256, Note_on_c, 4, 71, 110
9, 14272, Note_on_c, 4, 71, 0
9, 14280, Note_on_c, 4, 71, 110
9, 14296, Note_on_c, 4, 71, 0
9, 14304, Note_on_c, 4, 71, 110
9, 14320, Note_on_c, 4, 71, 0
9, 14328, Note_on_c, 4, 71, 110
9, 14344, Note_on_c, 4, 71, 0
9, 14352, Note_on_c, 4, 71, 110
9, 14368, Note_on_c, 4, 71, 0
9, 14376, Note_on_c, 4, 71, 110
9, 14392, Note_on_c, 4, 71, 0
9, 14400, Note_on_c, 4, 70, 110
9, 14416, Note_on_c, 4, 70, 0
9, 14424, Note_on_c, 4, 70, 110
9, 14440, Note_on_c, 4, 70, 0
9, 14448, Note_on_c, 4, 70, 110
9, 14464, Note_on_c, 4, 70, 0
9, 14472, Note_on_c, 4, 70, 110
9, 14488, Note_on_c, 4, 70, 0
9, 14496, Note_on_c, 4, 70, 110
9, 14512, Note_on_c, 4, 70, 0
9, 14520, Note_on_c, 4, 70, 110
9, 14536, Note_on_c, 4, 70, 0
9, 14544, Note_on_c, 4, 70, 110
9, 14560, Note_on_c, 4, 70, 0
9, 14568, Note_on_c, 4, 70, 110
9, 14584, Note_on_c, 4, 70, 0
9, 14592, Note_on_c, 4, 68, 110
9, 14638, Note_on_c, 4, 68, 0
9, 14640, Note_on_c, 4, 70, 110
9, 14686, Note_on_c, 4, 70, 0
9, 14688, Note_on_c, 4, 71, 110
9, 14734, Note_on_c, 4, 71, 0
9, 14736, Note_on_c, 4, 71, 110
9, 14782, Note_on_c, 4, 71, 0
9, 14784, Note_on_c, 4, 71, 110
9, 14878, Note_on_c, 4, 71, 0
9, 14880, Note_on_c, 4, 75, 110
9, 14974, Note_on_c, 4, 75, 0
9, 14976, Note_on_c, 4, 71, 110
9, 14992, Note_on_c, 4, 71, 0
9, 15000, Note_on_c, 4, 71, 110
9, 15016, Note_on_c, 4, 71, 0
9, 15024, Note_on_c, 4, 71, 110
9, 15040, Note_on_c, 4, 71, 0
9, 15048, Note_on_c, 4, 71, 110
9, 15064, Note_on_c, 4, 71, 0
9, 15072, Note_on_c, 4, 71, 110
9, 15088, Note_on_c, 4, 71, 0
9, 15096, Note_on_c, 4, 71, 110
9, 15112, Note_on_c, 4, 71, 0
9, 15120, Note_on_c, 4, 71, 110
9, 15136, Note_on_c, 4, 71, 0
9, 15144, Note_on_c, 4, 71, 110
9, 15160, Note_on_c, 4, 71, 0
9, 15168, Note_on_c, 4, 70, 110
9, 15184, Note_on_c, 4, 70, 0
9, 15192, Note_on_c, 4, 70, 110
9, 15208, Note_on_c, 4, 70, 0
9, 15216, Note_on_c, 4, 70, 110
9, 15232, Note_on_c, 4, 70, 0
9, 15240, Note_on_c, 4, 70, 110
9, 15256, Note_on_c, 4, 70, 0
9, 15264, Note_on_c, 4, 70, 110
9, 15280, Note_on_c, 4, 70, 0
9, 15288, Note_on_c, 4, 70, 110
9, 15304, Note_on_c, 4, 70, 0
9, 15312, Note_on_c, 4, 70, 110
9, 15328, Note_on_c, 4, 70, 0
9, 15336, Note_on_c, 4, 70, 110
9, 15352, Note_on_c, 4, 70, 0
9, 15360, Note_on_c, 4, 61, 110
9, 15406, Note_on_c, 4, 61, 0
9, 15408, Note_on_c, 4, 63, 110
9, 15454, Note_on_c, 4, 63, 0
9, 15456, Note_on_c, 4, 64, 110
9, 15502, Note_on_c, 4, 64, 0
9, 15504, Note_on_c, 4, 64, 110
9, 15550, Note_on_c, 4, 64, 0
9, 15552, Note_on_c, 4, 64, 110
9, 15646, Note_on_c, 4, 64, 0
9, 15648, Note_on_c, 4, 68, 110
9, 15742, Note_on_c, 4, 68, 0
9, 15744, Note_on_c, 4, 64, 110
9, 15760, Note_on_c, 4, 64, 0
9, 15768, Note_on_c, 4, 64, 110
9, 15784, Note_on_c, 4, 64, 0
9, 15792, Note_on_c, 4, 64, 110
9, 15808, Note_on_c, 4, 64, 0
9, 15816, Note_on_c, 4, 64, 110
9, 15832, Note_on_c, 4, 64, 0
9, 15840, Note_on_c, 4, 64, 110
9, 15856, Note_on_c, 4, 64, 0
9, 15864, Note_on_c, 4, 64, 110
9, 15880, Note_on_c, 4, 64, 0
9, 15888, Note_on_c, 4, 64, 110
9, 15904, Note_on_c, 4, 64, 0
9, 15912, Note_on_c, 4, 64, 110
9, 15928, Note_on_c, 4, 64, 0
9, 15936, Note_on_c, 4, 63, 110
9, 15952, Note_on_c, 4, 63, 0
9, 15960, Note_on_c, 4, 63, 110
9, 15976, Note_on_c, 4, 63, 0
9, 15984, Note_on_c, 4, 63, 110
9, 16000, Note_on_c, 4, 63, 0
9, 16008, Note_on_c, 4, 63, 110
9, 16024, Note_on_c, 4, 63, 0
9, 16032, Note_on_c, 4, 63, 110
9, 16048, Note_on_c, 4, 63, 0
9, 16056, Note_on_c, 4, 63, 110
9, 16072, Note_on_c, 4, 63, 0
9, 16080, Note_on_c, 4, 63, 110
9, 16096, Note_on_c, 4, 63, 0
9, 16104, Note_on_c, 4, 63, 110
9, 16120, Note_on_c, 4, 63, 0
9, 16128, Note_on_c, 4, 61, 110
9, 16174, Note_on_c, 4, 61, 0
9, 16176, Note_on_c, 4, 63, 110
9, 16222, Note_on_c, 4, 63, 0
9, 16224, Note_on_c, 4, 64, 110
9, 16270, Note_on_c, 4, 64, 0
9, 16272, Note_on_c, 4, 64, 110
9, 16318, Note_on_c, 4, 64, 0
9, 16320, Note_on_c, 4, 64, 110
9, 16414, Note_on_c, 4, 64, 0
9, 16416, Note_on_c, 4, 68, 110
9, 16510, Note_on_c, 4, 68, 0
9, 16512, Note_on_c, 4, 64, 110
9, 16528, Note_on_c, 4, 64, 0
9, 16536, Note_on_c, 4, 64, 110
9, 16552, Note_on_c, 4, 64, 0
9, 16560, Note_on_c, 4, 64, 110
9, 16576, Note_on_c, 4, 64, 0
9, 16584, Note_on_c, 4, 64, 110
9, 16600, Note_on_c, 4, 64, 0
9, 16608, Note_on_c, 4, 64, 110
9, 16624, Note_on_c, 4, 64, 0
9, 16632, Note_on_c, 4, 64, 110
9, 16648, Note_on_c, 4, 64, 0
9, 16656, Note_on_c, 4, 64, 110
9, 16672, Note_on_c, 4, 64, 0
9, 16680, Note_on_c, 4, 64, 110
9, 16696, Note_on_c, 4, 64, 0
9, 16704, Note_on_c, 4, 63, 110
9, 16720, Note_on_c, 4, 63, 0
9, 16728, Note_on_c, 4, 63, 110
9, 16744, Note_on_c, 4, 63, 0
9, 16752, Note_on_c, 4, 63, 110
9, 16768, Note_on_c, 4, 63, 0
9, 16776, Note_on_c, 4, 63, 110
9, 16792, Note_on_c, 4, 63, 0
9, 16800, Note_on_c, 4, 63, 110
9, 16816, Note_on_c, 4, 63, 0
9, 16824, Note_on_c, 4, 63, 110
9, 16840, Note_on_c, 4, 63, 0
9, 16848, Note_on_c, 4, 63, 110
9, 16864, Note_on_c, 4, 63, 0
9, 16872, Note_on_c, 4, 63, 110
9, 16888, Note_on_c, 4, 63, 0
9, 16896, Note_on_c, 4, 68, 110
9, 16942, Note_on_c, 4, 68, 0
9, 16944, Note_on_c, 4, 70, 110
9, 16990, Note_on_c, 4, 70, 0
9, 16992, Note_on_c, 4, 71, 110
9, 17038, Note_on_c, 4, 71, 0
9, 17040, Note_on_c, 4, 71, 110
9, 17086, Note_on_c, 4, 71, 0
9, 17088, Note_on_c, 4, 71, 110
9, 17182, Note_on_c, 4, 71, 0
9, 17184, Note_on_c, 4, 75, 110
9, 17278, Note_on_c, 4, 75, 0
9, 17280, Note_on_c, 4, 71, 110
9, 17296, Note_on_c, 4, 71, 0
9, 17304, Note_on_c, 4, 71, 110
9, 17320, Note_on_c, 4, 71, 0
9, 17328, Note_on_c, 4, 71, 110
9, 17344, Note_on_c, 4, 71, 0
9, 17352, Note_on_c, 4, 71, 110
9, 17368, Note_on_c, 4, 71, 0
9, 17376, Note_on_c, 4, 71, 110
9, 17392, Note_on_c, 4, 71, 0
9, 17400, Note_on_c, 4, 71, 110
9, 17416, Note_on_c, 4, 71, 0
9, 17424, Note_on_c, 4, 71, 110
9, 17440, Note_on_c, 4, 71, 0
9, 17448, Note_on_c, 4, 71, 110
9, 17464, Note_on_c, 4, 71, 0
9, 17472, Note_on_c, 4, 70, 110
9, 17488, Note_on_c, 4, 70, 0
9, 17496, Note_on_c, 4, 70, 110
9, 17512, Note_on_c, 4, 70, 0
9, 17520, Note_on_c, 4, 70, 110
9, 17536, Note_on_c, 4, 70, 0
9, 17544, Note_on_c, 4, 70, 110
9, 17560, Note_on_c, 4, 70, 0
9, 17568, Note_on_c, 4, 70, 110
9, 17584, Note_on_c, 4, 70, 0
9, 17592, Note_on_c, 4, 70, 110
9, 17608, Note_on_c, 4, 70, 0
9, 17616, Note_on_c, 4, 70, 110
9, 17632, Note_on_c, 4, 70, 0
9, 17640, Note_on_c, 4, 70, 110
9, 17656, Note_on_c, 4, 70, 0
9, 17664, Note_on_c, 4, 68, 110
9, 17710, Note_on_c, 4, 68, 0
9, 17712, Note_on_c, 4, 70, 110
9, 17758, Note_on_c, 4, 70, 0
9, 17760, Note_on_c, 4, 71, 110
9, 17806, Note_on_c, 4, 71, 0
9, 17808, Note_on_c, 4, 71, 110
9, 17854, Note_on_c, 4, 71, 0
9, 17856, Note_on_c, 4, 71, 110
9, 17950, Note_on_c, 4, 71, 0
9, 17952, Note_on_c, 4, 75, 110
9, 18046, Note_on_c, 4, 75, 0
9, 18048, Note_on_c, 4, 71, 110
9, 18064, Note_on_c, 4, 71, 0
9, 18072, Note_on_c, 4, 71, 110
9, 18088, Note_on_c, 4, 71, 0
9, 18096, Note_on_c, 4, 71, 110
9, 18112, Note_on_c, 4, 71, 0
9, 18120, Note_on_c, 4, 71, 110
9, 18136, Note_on_c, 4, 71, 0
9, 18144, Note_on_c, 4, 71, 110
9, 18160, Note_on_c, 4, 71, 0
9, 18168, Note_on_c, 4, 71, 110
9, 18184, Note_on_c, 4, 71, 0
9, 18192, Note_on_c, 4, 71, 110
9, 18208, Note_on_c, 4, 71, 0
9, 18216, Note_on_c, 4, 71, 110
9, 18232, Note_on_c, 4, 71, 0
9, 18240, Note_on_c, 4, 70, 110
9, 18256, Note_on_c, 4, 70, 0
9, 18264, Note_on_c, 4, 70, 110
9, 18280, Note_on_c, 4, 70, 0
9, 18288, Note_on_c, 4, 70, 110
9, 18304, Note_on_c, 4, 70, 0
9, 18312, Note_on_c, 4, 70, 110
9, 18328, Note_on_c, 4, 70, 0
9, 18336, Note_on_c, 4, 70, 110
9, 18352, Note_on_c, 4, 70, 0
9, 18360, Note_on_c, 4, 70, 110
9, 18376, Note_on_c, 4, 70, 0
9, 18384, Note_on_c, 4, 70, 110
9, 18400, Note_on_c, 4, 70, 0
9, 18408, Note_on_c, 4, 70, 110
9, 18424, Note_on_c, 4, 70, 0
9, 24576, Note_on_c, 4, 61, 110
9, 24622, Note_on_c, 4, 61, 0
9, 24624, Note_on_c, 4, 63, 110
9, 24670, Note_on_c, 4, 63, 0
9, 24672, Note_on_c, 4, 64, 110
9, 24718, Note_on_c, 4, 64, 0
9, 24720, Note_on_c, 4, 64, 110
9, 24766, Note_on_c, 4, 64, 0
9, 24768, Note_on_c, 4, 64, 110
9, 24862, Note_on_c, 4, 64, 0
9, 24864, Note_on_c, 4, 68, 110
9, 24958, Note_on_c, 4, 68, 0
9, 24960, Note_on_c, 4, 64, 110
9, 24976, Note_on_c, 4, 64, 0
9, 24984, Note_on_c, 4, 64, 110
9, 25000, Note_on_c, 4, 64, 0
9, 25008, Note_on_c, 4, 64, 110
9, 25024, Note_on_c, 4, 64, 0
9, 25032, Note_on_c, 4, 64, 110
9, 25048, Note_on_c, 4, 64, 0
9, 25056, Note_on_c, 4, 64, 110
9, 25072, Note_on_c, 4, 64, 0
9, 25080, Note_on_c, 4, 64, 110
9, 25096, Note_on_c, 4, 64, 0
9, 25104, Note_on_c, 4, 64, 110
9, 25120, Note_on_c, 4, 64, 0
9, 25128, Note_on_c, 4, 64, 110
9, 25144, Note_on_c, 4, 64, 0
9, 25152, Note_on_c, 4, 63, 110
9, 25168, Note_on_c, 4, 63, 0
9, 25176, Note_on_c, 4, 63, 110
9, 25192, Note_on_c, 4, 63, 0
9, 25200, Note_on_c, 4, 63, 110
9, 25216, Note_on_c, 4, 63, 0
9, 25224, Note_on_c, 4, 63, 110
9, 25240, Note_on_c, 4, 63, 0
9, 25248, Note_on_c, 4, 63, 110
9, 25264, Note_on_c, 4, 63, 0
9, 25272, Note_on_c, 4, 63, 110
9, 25288, Note_on_c, 4, 63, 0
9, 25296, Note_on_c, 4, 63, 110
9, 25312, Note_on_c, 4, 63, 0
9, 25320, Note_on_c, 4, 63, 110
9, 25336, Note_on_c, 4, 63, 0
9, 25344, Note_on_c, 4, 61, 110
9, 25390, Note_on_c, 4, 61, 0
9, 25392, Note_on_c, 4, 63, 110
9, 25438, Note_on_c, 4, 63, 0
9, 25440, Note_on_c, 4, 64, 110
9, 25486, Note_on_c, 4, 64, 0
9, 25488, Note_on_c, 4, 64, 110
9, 25534, Note_on_c, 4, 64, 0
9, 25536, Note_on_c, 4, 64, 110
9, 25630, Note_on_c, 4, 64, 0
9, 25632, Note_on_c, 4, 68, 110
9, 25726, Note_on_c, 4, 68, 0
9, 25728, Note_on_c, 4, 64, 110
9, 25744, Note_on_c, 4, 64, 0
9, 25752, Note_on_c, 4, 64, 110
9, 25768, Note_on_c, 4, 64, 0
9, 25776, Note_on_c, 4, 64, 110
9, 25792, Note_on_c, 4, 64, 0
9, 25800, Note_on_c, 4, 64, 110
9, 25816, Note_on_c, 4, 64, 0
9, 25824, Note_on_c, 4, 64, 110
9, 25840, Note_on_c, 4, 64, 0
9, 25848, Note_on_c, 4, 64, 110
9, 25864, Note_on_c, 4, 64, 0
9, 25872, Note_on_c, 4, 64, 110
9, 25888, Note_on_c, 4, 64, 0
9, 25896, Note_on_c, 4, 64, 110
9, 25912, Note_on_c, 4, 64, 0
9, 25920, Note_on_c, 4, 63, 110
9, 25936, Note_on_c, 4, 63, 0
9, 25944, Note_on_c, 4, 63, 110
9, 25960, Note_on_c, 4, 63, 0
9, 25968, Note_on_c, 4, 63, 110
9, 25984, Note_on_c, 4, 63, 0
9, 25992, Note_on_c, 4, 63, 110
9, 26008, Note_on_c, 4, 63, 0
9, 26016, Note_on_c, 4, 63, 110
9, 26032, Note_on_c, 4, 63, 0
9, 26040, Note_on_c, 4, 63, 110
9, 26056, Note_on_c, 4, 63, 0
9, 26064, Note_on_c, 4, 63, 110
9, 26080, Note_on_c, 4, 63, 0
9, 26088, Note_on_c, 4, 63, 110
9, 26104, Note_on_c, 4, 63, 0
9, 26112, Note_on_c, 4, 68, 110
9, 26158, Note_on_c, 4, 68, 0
9, 26160, Note_on_c, 4, 70, 110
9, 26206, Note_on_c, 4, 70, 0
9, 26208, Note_on_c, 4, 71, 110
9, 26254, Note_on_c, 4, 71, 0
9, 26256, Note_on_c, 4, 71, 110
9, 26302, Note_on_c, 4, 71, 0
9, 26304, Note_on_c, 4, 71, 110
9, 26398, Note_on_c, 4, 71, 0
9, 26400, Note_on_c, 4, 75, 110
9, 26494, Note_on_c, 4, 75, 0
9, 26496, Note_on_c, 4, 71, 110
9, 26512, Note_on_c, 4, 71, 0
9, 26520, Note_on_c, 4, 71, 110
9, 26536, Note_on_c, 4, 71, 0
9, 26544, Note_on_c, 4, 71, 110
9, 26560, Note_on_c, 4, 71, 0
9, 26568, Note_on_c, 4, 71, 110
9, 26584, Note_on_c, 4, 71, 0
9, 26592, Note_on_c, 4, 71, 110
9, 26608, Note_on_c, 4, 71, 0
9, 26616, Note_on_c, 4, 71, 110
9, 26632, Note_on_c, 4, 71, 0
9, 26640, Note_on_c, 4, 71, 110
9, 26656, Note_on_c, 4, 71, 0
9, 26664, Note_on_c, 4, 71, 110
9, 26680, Note_on_c, 4, 71, 0
9, 26688, Note_on_c, 4, 70, 110
9, 26704, Note_on_c, 4, 70, 0
9, 26712, Note_on_c, 4, 70, 110
9, 26728, Note_on_c, 4, 70, 0
9, 26736, Note_on_c, 4, 70, 110
9, 26752, Note_on_c, 4, 70, 0
9, 26760, Note_on_c, 4, 70, 110
9, 26776, Note_on_c, 4, 70, 0
9, 26784, Note_on_c, 4, 70, 110
9, 26800, Note_on_c, 4, 70, 0
9, 26808, Note_on_c, 4, 70, 110
9, 26824, Note_on_c, 4, 70, 0
9, 26832, Note_on_c, 4, 70, 110
9, 26848, Note_on_c, 4, 70, 0
9, 26856, Note_on_c, 4, 70, 110
9, 26872, Note_on_c, 4, 70, 0
9, 26880, Note_on_c, 4, 68, 110
9, 26926, Note_on_c, 4, 68, 0
9, 26928, Note_on_c, 4, 70, 110
9, 26974, Note_on_c, 4, 70, 0
9, 26976, Note_on_c, 4, 71, 110
9, 27022, Note_on_c, 4, 71, 0
9, 27024, Note_on_c, 4, 71, 110
9, 27070, Note_on_c, 4, 71, 0
9, 27072, Note_on_c, 4, 71, 110
9, 27166, Note_on_c, 4, 71, 0
9, 27168, Note_on_c, 4, 75, 110
9, 27262, Note_on_c, 4, 75, 0
9, 27264, Note_on_c, 4, 71, 110
9, 27280, Note_on_c, 4, 71, 0
9, 27288, Note_on_c, 4, 71, 110
9, 27304, Note_on_c, 4, 71, 0
9, 27312, Note_on_c, 4, 71, 110
9, 27328, Note_on_c, 4, 71, 0
9, 27336, Note_on_c, 4, 71, 110
9, 27352, Note_on_c, 4, 71, 0
9, 27360, Note_on_c, 4, 71, 110
9, 27376, Note_on_c, 4, 71, 0
9, 27384, Note_on_c, 4, 71, 110
9, 27400, Note_on_c, 4, 71, 0
9, 27408, Note_on_c, 4, 71, 110
9, 27424, Note_on_c, 4, 71, 0
9, 27432, Note_on_c, 4, 71, 110
9, 27448, Note_on_c, 4, 71, 0
9, 27456, Note_on_c, 4, 70, 110
9, 27472, Note_on_c, 4, 70, 0
9, 27480, Note_on_c, 4, 70, 110
9, 27496, Note_on_c, 4, 70, 0
9, 27504, Note_on_c, 4, 70, 110
9, 27520, Note_on_c, 4, 70, 0
9, 27528, Note_on_c, 4, 70, 110
9, 27544, Note_on_c, 4, 70, 0
9, 27552, Note_on_c, 4, 70, 110
9, 27568, Note_on_c, 4, 70, 0
9, 27576, Note_on_c, 4, 70, 110
9, 27592, Note_on_c, 4, 70, 0
9, 27600, Note_on_c, 4, 70, 110
9, 27616, Note_on_c, 4, 70, 0
9, 27624, Note_on_c, 4, 70, 110
9, 27640, Note_on_c, 4, 70, 0
9, 27648, Note_on_c, 4, 61, 110
9, 27694, Note_on_c, 4, 61, 0
9, 27696, Note_on_c, 4, 63, 110
9, 27742, Note_on_c, 4, 63, 0
9, 27744, Note_on_c, 4, 64, 110
9, 27790, Note_on_c, 4, 64, 0
9, 27792, Note_on_c, 4, 64, 110
9, 27838, Note_on_c, 4, 64, 0
9, 27840, Note_on_c, 4, 64, 110
9, 27934, Note_on_c, 4, 64, 0
9, 27936, Note_on_c, 4, 68, 110
9, 28030, Note_on_c, 4, 68, 0
9, 28032, Note_on_c, 4, 64, 110
9, 28048, Note_on_c, 4, 64, 0
9, 28056, Note_on_c, 4, 64, 110
9, 28072, Note_on_c, 4, 64, 0
9, 28080, Note_on_c, 4, 64, 110
9, 28096, Note_on_c, 4, 64, 0
9, 28104, Note_on_c, 4, 64, 110
9, 28120, Note_on_c, 4, 64, 0
9, 28128, Note_on_c, 4, 64, 110
9, 28144, Note_on_c, 4, 64, 0
9, 28152, Note_on_c, 4, 64, 110
9, 28168, Note_on_c, 4, 64, 0
9, 28176, Note_on_c, 4, 64, 110
9, 28192, Note_on_c, 4, 64, 0
9, 28200, Note_on_c, 4, 64, 110
9, 28216, Note_on_c, 4, 64, 0
9, 28224, Note_on_c, 4, 63, 110
9, 28240, Note_on_c, 4, 63, 0
9, 28248, Note_on_c, 4, 63, 110
9, 28264, Note_on_c, 4, 63, 0
9, 28272, Note_on_c, 4, 63, 110
9, 28288, Note_on_c, 4, 63, 0
9, 28296, Note_on_c, 4, 63, 110
9, 28312, Note_on_c, 4, 63, 0
9, 28320, Note_on_c, 4, 63, 110
9, 28336, Note_on_c, 4, 63, 0
9, 28344, Note_on_c, 4, 63, 110
9, 28360, Note_on_c, 4, 63, 0
9, 28368, Note_on_c, 4, 63, 110
9, 28384, Note_on_c, 4, 63, 0
9, 28392, Note_on_c, 4, 63, 110
9, 28408, Note_on_c, 4, 63, 0
9, 28416, Note_on_c, 4, 61, 110
9, 28462, Note_on_c, 4, 61, 0
9, 28464, Note_on_c, 4, 63, 110
9, 28510, Note_on_c, 4, 63, 0
9, 28512, Note_on_c, 4, 64, 110
9, 28558, Note_on_c, 4, 64, 0
9, 28560, Note_on_c, 4, 64, 110
9, 28606, Note_on_c, 4, 64, 0
9, 28608, Note_on_c, 4, 64, 110
9, 28702, Note_on_c, 4, 64, 0
9, 28704, Note_on_c, 4, 68, 110
9, 28798, Note_on_c, 4, 68, 0
9, 28800, Note_on_c, 4, 64, 110
9, 28816, Note_on_c, 4, 64, 0
9, 28824, Note_on_c, 4, 64, 110
9, 28840, Note_on_c, 4, 64, 0
9, 28848, Note_on_c, 4, 64, 110
9, 28864, Note_on_c, 4, 64, 0
9, 28872, Note_on_c, 4, 64, 110
9, 28888, Note_on_c, 4, 64, 0
9, 28896, Note_on_c, 4, 64, 110
9, 28912, Note_on_c, 4, 64, 0
9, 28920, Note_on_c, 4, 64, 110
9, 28936, Note_on_c, 4, 64, 0
9, 28944, Note_on_c, 4, 64, 110
9, 28960, Note_on_c, 4, 64, 0
9, 28968, Note_on_c, 4, 64, 110
9, 28984, Note_on_c, 4, 64, 0
9, 28992, Note_on_c, 4, 63, 110
9, 29008, Note_on_c, 4, 63, 0
9, 29016, Note_on_c, 4, 63, 110
9, 29032, Note_on_c, 4, 63, 0
9, 29040, Note_on_c, 4, 63, 110
9, 29056, Note_on_c, 4, 63, 0
9, 29064, Note_on_c, 4, 63, 110
9, 29080, Note_on_c, 4, 63, 0
9, 29088, Note_on_c, 4, 63, 110
9, 29104, Note_on_c, 4, 63, 0
9, 29112, Note_on_c, 4, 63, 110
9, 29128, Note_on_c, 4, 63, 0
9, 29136, Note_on_c, 4, 63, 110
9, 29152, Note_on_c, 4, 63, 0
9, 29160, Note_on_c, 4, 63, 110
9, 29176, Note_on_c, 4, 63, 0
9, 29184, Note_on_c, 4, 68, 110
9, 29230, Note_on_c, 4, 68, 0
9, 29232, Note_on_c, 4, 70, 110
9, 29278, Note_on_c, 4, 70, 0
9, 29280, Note_on_c, 4, 71, 110
9, 29326, Note_on_c, 4, 71, 0
9, 29328, Note_on_c, 4, 71, 110
9, 29374, Note_on_c, 4, 71, 0
9, 29376, Note_on_c, 4, 71, 110
9, 29470, Note_on_c, 4, 71, 0
9, 29472, Note_on_c, 4, 75, 110
9, 29566, Note_on_c, 4, 75, 0
9, 29568, Note_on_c, 4, 71, 110
9, 29584, Note_on_c, 4, 71, 0
9, 29592, Note_on_c, 4, 71, 110
9, 29608, Note_on_c, 4, 71, 0
9, 29616, Note_on_c, 4, 71, 110
9, 29632, Note_on_c, 4, 71, 0
9, 29640, Note_on_c, 4, 71, 110
9, 29656, Note_on_c, 4, 71, 0
9, 29664, Note_on_c, 4, 71, 110
9, 29680, Note_on_c, 4, 71, 0
9, 29688, Note_on_c, 4, 71, 110
9, 29704, Note_on_c, 4, 71, 0
9, 29712, Note_on_c, 4, 71, 110
9, 29728, Note_on_c, 4, 71, 0
9, 29736, Note_on_c, 4, 71, 110
9, 29752, Note_on_c, 4, 71, 0
9, 29760, Note_on_c, 4, 70, 110
9, 29776, Note_on_c, 4, 70, 0
9, 29784, Note_on_c, 4, 70, 110
9, 29800, Note_on_c, 4, 70, 0
9, 29808, Note_on_c, 4, 70, 110
9, 29824, Note_on_c, 4, 70, 0
9, 29832, Note_on_c, 4, 70, 110
9, 29848, Note_on_c, 4, 70, 0
9, 29856, Note_on_c, 4, 70, 110
9, 29872, Note_on_c, 4, 70, 0
9, 29880, Note_on_c, 4, 70, 110
9, 29896, Note_on_c, 4, 70, 0
9, 29904, Note_on_c, 4, 70, 110
9, 29920, Note_on_c, 4, 70, 0
9, 29928, Note_on_c, 4, 70, 110
9, 29944, Note_on_c, 4, 70, 0
9, 29952, Note_on_c, 4, 68, 110
9, 29998, Note_on_c, 4, 68, 0
9, 30000, Note_on_c, 4, 70, 110
9, 30046, Note_on_c, 4, 70, 0
9, 30048, Note_on_c, 4, 71, 110
9, 30094, Note_on_c, 4, 71, 0
9, 30096, Note_on_c, 4, 71, 110
9, 30142, Note_on_c, 4, 71, 0
9, 30144, Note_on_c, 4, 71, 110
9, 30238, Note_on_c, 4, 71, 0
9, 30240, Note_on_c, 4, 75, 110
9, 30334, Note_on_c, 4, 75, 0
9, 30336, Note_on_c, 4, 71, 110
9, 30352, Note_on_c, 4, 71, 0
9, 30360, Note_on_c, 4, 71, 110
9, 30376, Note_on_c, 4, 71, 0
9, 30384, Note_on_c, 4, 71, 110
9, 30400, Note_on_c, 4, 71, 0
9, 30408, Note_on_c, 4, 71, 110
9, 30424, Note_on_c, 4, 71, 0
9, 30432, Note_on_c, 4, 71, 110
9, 30448, Note_on_c, 4, 71, 0
9, 30456, Note_on_c, 4, 71, 110
9, 30472, Note_on_c, 4, 71, 0
9, 30480, Note_on_c, 4, 71, 110
9, 30496, Note_on_c, 4, 71, 0
9, 30504, Note_on_c, 4, 71, 110
9, 30520, Note_on_c, 4, 71, 0
9, 30528, Note_on_c, 4, 70, 110
9, 30544, Note_on_c, 4, 70, 0
9, 30552, Note_on_c, 4, 70, 110
9, 30568, Note_on_c, 4, 70, 0
9, 30576, Note_on_c, 4, 70, 110
9, 30592, Note_on_c, 4, 70, 0
9, 30600, Note_on_c, 4, 70, 110
9, 30616, Note_on_c, 4, 70, 0
9, 30624, Note_on_c, 4, 70, 110
9, 30640, Note_on_c, 4, 70, 0
9, 30648, Note_on_c, 4, 70, 110
9, 30664, Note_on_c, 4, 70, 0
9, 30672, Note_on_c, 4, 70, 110
9, 30688, Note_on_c, 4, 70, 0
9, 30696, Note_on_c, 4, 70, 110
9, 30712, Note_on_c, 4, 70, 0
9, 36864, Note_on_c, 4, 61, 110
9, 36910, Note_on_c, 4, 61, 0
9, 36912, Note_on_c, 4, 63, 110
9, 36958, Note_on_c, 4, 63, 0
9, 36960, Note_on_c, 4, 64, 110
9, 37006, Note_on_c, 4, 64, 0
9, 37008, Note_on_c, 4, 64, 110
9, 37054, Note_on_c, 4, 64, 0
9, 37056, Note_on_c, 4, 64, 110
9, 37150, Note_on_c, 4, 64, 0
9, 37152, Note_on_c, 4, 68, 110
9, 37246, Note_on_c, 4, 68, 0
9, 37248, Note_on_c, 4, 64, 110
9, 37264, Note_on_c, 4, 64, 0
9, 37272, Note_on_c, 4, 64, 110
9, 37288, Note_on_c, 4, 64, 0
9, 37296, Note_on_c, 4, 64, 110
9, 37312, Note_on_c, 4, 64, 0
9, 37320, Note_on_c, 4, 64, 110
9, 37336, Note_on_c, 4, 64, 0
9, 37344, Note_on_c, 4, 64, 110
9, 37360, Note_on_c, 4, 64, 0
9, 37368, Note_on_c, 4, 64, 110
9, 37384, Note_on_c, 4, 64, 0
9, 37392, Note_on_c, 4, 64, 110
9, 37408, Note_on_c, 4, 64, 0
9, 37416, Note_on_c, 4, 64, 110
9, 37432, Note_on_c, 4, 64, 0
9, 37440, Note_on_c, 4, 63, 110
9, 37456, Note_on_c, 4, 63, 0
9, 37464, Note_on_c, 4, 63, 110
9, 37480, Note_on_c, 4, 63, 0
9, 37488, Note_on_c, 4, 63, 110
9, 37504, Note_on_c, 4, 63, 0
9, 37512, Note_on_c, 4, 63, 110
9, 37528, Note_on_c, 4, 63, 0
9, 37536, Note_on_c, 4, 63, 110
9, 37552, Note_on_c, 4, 63, 0
9, 37560, Note_on_c, 4, 63, 110
9, 37576, Note_on_c, 4, 63, 0
9, 37584, Note_on_c, 4, 63, 110
9, 37600, Note_on_c, 4, 63, 0
9, 37608, Note_on_c, 4, 63, 110
9, 37624, Note_on_c, 4, 63, 0
9, 37632, Note_on_c, 4, 61, 110
9, 37678, Note_on_c, 4, 61, 0
9, 37680, Note_on_c, 4, 63, 110
9, 37726, Note_on_c, 4, 63, 0
9, 37728, Note_on_c, 4, 64, 110
9, 37774, Note_on_c, 4, 64, 0
9, 37776, Note_on_c, 4, 64, 110
9, 37822, Note_on_c, 4, 64, 0
9, 37824, Note_on_c, 4, 64, 110
9, 37918, Note_on_c, 4, 64, 0
9, 37920, Note_on_c, 4, 68, 110
9, 38014, Note_on_c, 4, 68, 0
9, 38016, Note_on_c, 4, 64, 110
9, 38032, Note_on_c, 4, 64, 0
9, 38040, Note_on_c, 4, 64, 110
9, 38056, Note_on_c, 4, 64, 0
9, 38064, Note_on_c, 4, 64, 110
9, 38080, Note_on_c, 4, 64, 0
9, 38088, Note_on_c, 4, 64, 110
9, 38104, Note_on_c, 4, 64, 0
9, 38112, Note_on_c, 4, 64, 110
9, 38128, Note_on_c, 4, 64, 0
9, 38136, Note_on_c, 4, 64, 110
9, 38152, Note_on_c, 4, 64, 0
9, 38160, Note_on_c, 4, 64, 110
9, 38176, Note_on_c, 4, 64, 0
9, 38184, Note_on_c, 4, 64, 110
9, 38200, Note_on_c, 4, 64, 0
9, 38208, Note_on_c, 4, 63, 110
9, 38224, Note_on_c, 4, 63, 0
9, 38232, Note_on_c, 4, 63, 110
9, 38248, Note_on_c, 4, 63, 0
9, 38256, Note_on_c, 4, 63, 110
9, 38272, Note_on_c, 4, 63, 0
9, 38280, Note_on_c, 4, 63, 110
9, 38296, Note_on_c, 4, 63, 0
9, 38304, Note_on_c, 4, 63, 110
9, 38320, Note_on_c, 4, 63, 0
9, 38328, Note_on_c, 4, 63, 110
9, 38344, Note_on_c, 4, 63, 0
9, 38352, Note_on_c, 4, 63, 110
9, 38368, Note_on_c, 4, 63, 0
9, 38376, Note_on_c, 4, 63, 110
9, 38392, Note_on_c, 4, 63, 0
9, 38400, Note_on_c, 4, 68, 110
9, 38446, Note_on_c, 4, 68, 0
9, 38448, Note_on_c, 4, 70, 110
9, 38494, Note_on_c, 4, 70, 0
9, 38496, Note_on_c, 4, 71, 110
9, 38542, Note_on_c, 4, 71, 0
9, 38544, Note_on_c, 4, 71, 110
9, 38590, Note_on_c, 4, 71, 0
9, 38592, Note_on_c, 4, 71, 110
9, 38686, Note_on_c, 4, 71, 0
9, 38688, Note_on_c, 4, 75, 110
9, 38782, Note_on_c, 4, 75, 0
9, 38784, Note_on_c, 4, 71, 110
9, 38800, Note_on_c, 4, 71, 0
9, 38808, Note_on_c, 4, 71, 110
9, 38824, Note_on_c, 4, 71, 0
9, 38832, Note_on_c, 4, 71, 110
9, 38848, Note_on_c, 4, 71, 0
9, 38856, Note_on_c, 4, 71, 110
9, 38872, Note_on_c, 4, 71, 0
9, 38880, Note_on_c, 4, 71, 110
9, 38896, Note_on_c, 4, 71, 0
9, 38904, Note_on_c, 4, 71, 110
9, 38920, Note_on_c, 4, 71, 0
9, 38928, Note_on_c, 4, 71, 110
9, 38944, Note_on_c, 4, 71, 0
9, 38952, Note_on_c, 4, 71, 110
9, 38968, Note_on_c, 4, 71, 0
9, 38976, Note_on_c, 4, 70, 110
9, 38992, Note_on_c, 4, 70, 0
9, 39000, Note_on_c, 4, 70, 110
9, 39016, Note_on_c, 4, 70, 0
9, 39024, Note_on_c, 4, 70, 110
9, 39040, Note_on_c, 4, 70, 0
9, 39048, Note_on_c, 4, 70, 110
9, 39064, Note_on_c, 4, 70, 0
9, 39072, Note_on_c, 4, 70, 110
9, 39088, Note_on_c, 4, 70, 0
9, 39096, Note_on_c, 4, 70, 110
9, 39112, Note_on_c, 4, 70, 0
9, 39120, Note_on_c, 4, 70, 110
9, 39136, Note_on_c, 4, 70, 0
9, 39144, Note_on_c, 4, 70, 110
9, 39160, Note_on_c, 4, 70, 0
9, 39168, Note_on_c, 4, 68, 110
9, 39214, Note_on_c, 4, 68, 0
9, 39216, Note_on_c, 4, 70, 110
9, 39262, Note_on_c, 4, 70, 0
9, 39264, Note_on_c, 4, 71, 110
9, 39310, Note_on_c, 4, 71, 0
9, 39312, Note_on_c, 4, 71, 110
9, 39358, Note_on_c, 4, 71, 0
9, 39360, Note_on_c, 4, 71, 110
9, 39454, Note_on_c, 4, 71, 0
9, 39456, Note_on_c, 4, 75, 110
9, 39550, Note_on_c, 4, 75, 0
9, 39552, Note_on_c, 4, 71, 110
9, 39568, Note_on_c, 4, 71, 0
9, 39576, Note_on_c, 4, 71, 110
9, 39592, Note_on_c, 4, 71, 0
9, 39600, Note_on_c, 4, 71, 110
9, 39616, Note_on_c, 4, 71, 0
9, 39624, Note_on_c, 4, 71, 110
9, 39640, Note_on_c, 4, 71, 0
9, 39648, Note_on_c, 4, 71, 110
9, 39664, Note_on_c, 4, 71, 0
9, 39672, Note_on_c, 4, 71, 110
9, 39688, Note_on_c, 4, 71, 0
9, 39696, Note_on_c, 4, 71, 110
9, 39712, Note_on_c, 4, 71, 0
9, 39720, Note_on_c, 4, 71, 110
9, 39736, Note_on_c, 4, 71, 0
9, 39744, Note_on_c, 4, 70, 110
9, 39760, Note_on_c, 4, 70, 0
9, 39768, Note_on_c, 4, 70, 110
9, 39784, Note_on_c, 4, 70, 0
9, 39792, Note_on_c, 4, 70, 110
9, 39808, Note_on_c, 4, 70, 0
9, 39816, Note_on_c, 4, 70, 110
9, 39832, Note_on_c, 4, 70, 0
9, 39840, Note_on_c, 4, 70, 110
9, 39856, Note_on_c, 4, 70, 0
9, 39864, Note_on_c, 4, 70, 110
9, 39880, Note_on_c, 4, 70, 0
9, 39888, Note_on_c, 4, 70, 110
9, 39904, Note_on_c, 4, 70, 0
9, 39912, Note_on_c, 4, 70, 110
9, 39928, Note_on_c, 4, 70, 0
9, 39936, Note_on_c, 4, 61, 110
9, 39982, Note_on_c, 4, 61, 0
9, 39984, Note_on_c, 4, 63, 110
9, 40030, Note_on_c, 4, 63, 0
9, 40032, Note_on_c, 4, 64, 110
9, 40078, Note_on_c, 4, 64, 0
9, 40080, Note_on_c, 4, 64, 110
9, 40126, Note_on_c, 4, 64, 0
9, 40128, Note_on_c, 4, 64, 110
9, 40222, Note_on_c, 4, 64, 0
9, 40224, Note_on_c, 4, 68, 110
9, 40318, Note_on_c, 4, 68, 0
9, 40320, Note_on_c, 4, 64, 110
9, 40336, Note_on_c, 4, 64, 0
9, 40344, Note_on_c, 4, 64, 110
9, 40360, Note_on_c, 4, 64, 0
9, 40368, Note_on_c, 4, 64, 110
9, 40384, Note_on_c, 4, 64, 0
9, 40392, Note_on_c, 4, 64, 110
9, 40408, Note_on_c, 4, 64, 0
9, 40416, Note_on_c, 4, 64, 110
9, 40432, Note_on_c, 4, 64, 0
9, 40440, Note_on_c, 4, 64, 110
9, 40456, Note_on_c, 4, 64, 0
9, 40464, Note_on_c, 4, 64, 110
9, 40480, Note_on_c, 4, 64, 0
9, 40488, Note_on_c, 4, 64, 110
9, 40504, Note_on_c, 4, 64, 0
9, 40512, Note_on_c, 4, 63, 110
9, 40528, Note_on_c, 4, 63, 0
9, 40536, Note_on_c, 4, 63, 110
9, 40552, Note_on_c, 4, 63, 0
9, 40560, Note_on_c, 4, 63, 110
9, 40576, Note_on_c, 4, 63, 0
9, 40584, Note_on_c, 4, 63, 110
9, 40600, Note_on_c, 4, 63, 0
9, 40608, Note_on_c, 4, 63, 110
9, 40624, Note_on_c, 4, 63, 0
9, 40632, Note_on_c, 4, 63, 110
9, 40648, Note_on_c, 4, 63, 0
9, 40656, Note_on_c, 4, 63, 110
9, 40672, Note_on_c, 4, 63, 0
9, 40680, Note_on_c, 4, 63, 110
9, 40696, Note_on_c, 4, 63, 0
9, 40704, Note_on_c, 4, 61, 110
9, 40750, Note_on_c, 4, 61, 0
9, 40752, Note_on_c, 4, 63, 110
9, 40798, Note_on_c, 4, 63, 0
9, 40800, Note_on_c, 4, 64, 110
9, 40846, Note_on_c, 4, 64, 0
9, 40848, Note_on_c, 4, 64, 110
9, 40894, Note_on_c, 4, 64, 0
9, 40896, Note_on_c, 4, 64, 110
9, 40990, Note_on_c, 4, 64, 0
9, 40992, Note_on_c, 4, 68, 110
9, 41086, Note_on_c, 4, 68, 0
9, 41088, Note_on_c, 4, 64, 110
9, 41104, Note_on_c, 4, 64, 0
9, 41112, Note_on_c, 4, 64, 110
9, 41128, Note_on_c, 4, 64, 0
9, 41136, Note_on_c, 4, 64, 110
9, 41152, Note_on_c, 4, 64, 0
9, 41160, Note_on_c, 4, 64, 110
9, 41176, Note_on_c, 4, 64, 0
9, 41184, Note_on_c, 4, 64, 110
9, 41200, Note_on_c, 4, 64, 0
9, 41208, Note_on_c, 4, 64, 110
9, 41224, Note_on_c, 4, 64, 0
9, 41232, Note_on_c, 4, 64, 110
9, 41248, Note_on_c, 4, 64, 0
9, 41256, Note_on_c, 4, 64, 110
9, 41272, Note_on_c, 4, 64, 0
9, 41280, Note_on_c, 4, 63, 110
9, 41296, Note_on_c, 4, 63, 0
9, 41304, Note_on_c, 4, 63, 110
9, 41320, Note_on_c, 4, 63, 0
9, 41328, Note_on_c, 4, 63, 110
9, 41344, Note_on_c, 4, 63, 0
9, 41352, Note_on_c, 4, 63, 110
9, 41368, Note_on_c, 4, 63, 0
9, 41376, Note_on_c, 4, 63, 110
9, 41392, Note_on_c, 4, 63, 0
9, 41400, Note_on_c, 4, 63, 110
9, 41416, Note_on_c, 4, 63, 0
9, 41424, Note_on_c, 4, 63, 110
9, 41440, Note_on_c, 4, 63, 0
9, 41448, Note_on_c, 4, 63, 110
9, 41464, Note_on_c, 4, 63, 0
9, 41472, Note_on_c, 4, 68, 110
9, 41518, Note_on_c, 4, 68, 0
9, 41520, Note_on_c, 4, 70, 110
9, 41566, Note_on_c, 4, 70, 0
9, 41568, Note_on_c, 4, 71, 110
9, 41614, Note_on_c, 4, 71, 0
9, 41616, Note_on_c, 4, 71, 110
9, 41662, Note_on_c, 4, 71, 0
9, 41664, Note_on_c, 4, 71, 110
9, 41758, Note_on_c, 4, 71, 0
9, 41760, Note_on_c, 4, 75, 110
9, 41854, Note_on_c, 4, 75, 0
9, 41856, Note_on_c, 4, 71, 110
9, 41872, Note_on_c, 4, 71, 0
9, 41880, Note_on_c, 4, 71, 110
9, 41896, Note_on_c, 4, 71, 0
9, 41904, Note_on_c, 4, 71, 110
9, 41920, Note_on_c, 4, 71, 0
9, 41928, Note_on_c, 4, 71, 110
9, 41944, Note_on_c, 4, 71, 0
9, 41952, Note_on_c, 4, 71, 110
9, 41968, Note_on_c, 4, 71, 0
9, 41976, Note_on_c, 4, 71, 110
9, 41992, Note_on_c, 4, 71, 0
9, 42000, Note_on_c, 4, 71, 110
9, 42016, Note_on_c, 4, 71, 0
9, 42024, Note_on_c, 4, 71, 110
9, 42040, Note_on_c, 4, 71, 0
9, 42048, Note_on_c, 4, 70, 110
9, 42064, Note_on_c, 4, 70, 0
9, 42072, Note_on_c, 4, 70, 110
9, 42088, Note_on_c, 4, 70, 0
9, 42096, Note_on_c, 4, 70, 110
9, 42112, Note_on_c, 4, 70, 0
9, 42120, Note_on_c, 4, 70, 110
9, 42136, Note_on_c, 4, 70, 0
9, 42144, Note_on_c, 4, 70, 110
9, 42160, Note_on_c, 4, 70, 0
9, 42168, Note_on_c, 4, 70, 110
9, 42184, Note_on_c, 4, 70, 0
9, 42192, Note_on_c, 4, 70, 110
9, 42208, Note_on_c, 4, 70, 0
9, 42216, Note_on_c, 4, 70, 110
9, 42232, Note_on_c, 4, 70, 0
9, 42240, Note_on_c, 4, 68, 110
9, 42286, Note_on_c, 4, 68, 0
9, 42288, Note_on_c, 4, 70, 110
9, 42334, Note_on_c, 4, 70, 0
9, 42336, Note_on_c, 4, 71, 110
9, 42382, Note_on_c, 4, 71, 0
9, 42384, Note_on_c, 4, 71, 110
9, 42430, Note_on_c, 4, 71, 0
9, 42432, Note_on_c, 4, 71, 110
9, 42526, Note_on_c, 4, 71, 0
9, 42528, Note_on_c, 4, 75, 110
9, 42622, Note_on_c, 4, 75, 0
9, 42624, Note_on_c, 4, 71, 110
9, 42640, Note_on_c, 4, 71, 0
9, 42648, Note_on_c, 4, 71, 110
9, 42664, Note_on_c, 4, 71, 0
9, 42672, Note_on_c, 4, 71, 110
9, 42688, Note_on_c, 4, 71, 0
9, 42696, Note_on_c, 4, 71, 110
9, 42712, Note_on_c, 4, 71, 0
9, 42720, Note_on_c, 4, 71, 110
9, 42736, Note_on_c, 4, 71, 0
9, 42744, Note_on_c, 4, 71, 110
9, 42760, Note_on_c, 4, 71, 0
9, 42768, Note_on_c, 4, 71, 110
9, 42784, Note_on_c, 4, 71, 0
9, 42792, Note_on_c, 4, 71, 110
9, 42808, Note_on_c, 4, 71, 0
9, 42816, Note_on_c, 4, 70, 110
9, 42832, Note_on_c, 4, 70, 0
9, 42840, Note_on_c, 4, 70, 110
9, 42856, Note_on_c, 4, 70, 0
9, 42864, Note_on_c, 4, 70, 110
9, 42880, Note_on_c, 4, 70, 0
9, 42888, Note_on_c, 4, 70, 110
9, 42904, Note_on_c, 4, 70, 0
9, 42912, Note_on_c, 4, 70, 110
9, 42928, Note_on_c, 4, 70, 0
9, 42936, Note_on_c, 4, 70, 110
9, 42952, Note_on_c, 4, 70, 0
9, 42960, Note_on_c, 4, 70, 110
9, 42976, Note_on_c, 4, 70, 0
9, 42984, Note_on_c, 4, 70, 110
9, 43000, Note_on_c, 4, 70, 0
9, 55296, Note_on_c, 4, 61, 110
9, 55342, Note_on_c, 4, 61, 0
9, 55344, Note_on_c, 4, 63, 110
9, 55390, Note_on_c, 4, 63, 0
9, 55392, Note_on_c, 4, 64, 110
9, 55438, Note_on_c, 4, 64, 0
9, 55440, Note_on_c, 4, 64, 110
9, 55486, Note_on_c, 4, 64, 0
9, 55488, Note_on_c, 4, 64, 110
9, 55582, Note_on_c, 4, 64, 0
9, 55584, Note_on_c, 4, 68, 110
9, 55678, Note_on_c, 4, 68, 0
9, 55680, Note_on_c, 4, 64, 110
9, 55696, Note_on_c, 4, 64, 0
9, 55704, Note_on_c, 4, 64, 110
9, 55720, Note_on_c, 4, 64, 0
9, 55728, Note_on_c, 4, 64, 110
9, 55744, Note_on_c, 4, 64, 0
9, 55752, Note_on_c, 4, 64, 110
9, 55768, Note_on_c, 4, 64, 0
9, 55776, Note_on_c, 4, 64, 110
9, 55792, Note_on_c, 4, 64, 0
9, 55800, Note_on_c, 4, 64, 110
9, 55816, Note_on_c, 4, 64, 0
9, 55824, Note_on_c, 4, 64, 110
9, 55840, Note_on_c, 4, 64, 0
9, 55848, Note_on_c, 4, 64, 110
9, 55864, Note_on_c, 4, 64, 0
9, 55872, Note_on_c, 4, 63, 110
9, 55888, Note_on_c, 4, 63, 0
9, 55896, Note_on_c, 4, 63, 110
9, 55912, Note_on_c, 4, 63, 0
9, 55920, Note_on_c, 4, 63, 110
9, 55936, Note_on_c, 4, 63, 0
9, 55944, Note_on_c, 4, 63, 110
9, 55960, Note_on_c, 4, 63, 0
9, 55968, Note_on_c, 4, 63, 110
9, 55984, Note_on_c, 4, 63, 0
9, 55992, Note_on_c, 4, 63, 110
9, 56008, Note_on_c, 4, 63, 0
9, 56016, Note_on_c, 4, 63, 110
9, 56032, Note_on_c, 4, 63, 0
9, 56040, Note_on_c, 4, 63, 110
9, 56056, Note_on_c, 4, 63, 0
9, 56064, Note_on_c, 4, 61, 110
9, 56110, Note_on_c, 4, 61, 0
9, 56112, Note_on_c, 4, 63, 110
9, 56158, Note_on_c, 4, 63, 0
9, 56160, Note_on_c, 4, 64, 110
9, 56206, Note_on_c, 4, 64, 0
9, 56208, Note_on_c, 4, 64, 110
9, 56254, Note_on_c, 4, 64, 0
9, 56256, Note_on_c, 4, 64, 110
9, 56350, Note_on_c, 4, 64, 0
9, 56352, Note_on_c, 4, 68, 110
9, 56446, Note_on_c, 4, 68, 0
9, 56448, Note_on_c, 4, 64, 110
9, 56464, Note_on_c, 4, 64, 0
9, 56472, Note_on_c, 4, 64, 110
9, 56488, Note_on_c, 4, 64, 0
9, 56496, Note_on_c, 4, 64, 110
9, 56512, Note_on_c, 4, 64, 0
9, 56520, Note_on_c, 4, 64, 110
9, 56536, Note_on_c, 4, 64, 0
9, 56544, Note_on_c, 4, 64, 110
9, 56560, Note_on_c, 4, 64, 0
9, 56568, Note_on_c, 4, 64, 110
9, 56584, Note_on_c, 4, 64, 0
9, 56592, Note_on_c, 4, 64, 110
9, 56608, Note_on_c, 4, 64, 0
9, 56616, Note_on_c, 4, 64, 110
9, 56632, Note_on_c, 4, 64, 0
9, 56640, Note_on_c, 4, 63, 110
9, 56656, Note_on_c, 4, 63, 0
9, 56664, Note_on_c, 4, 63, 110
9, 56680, Note_on_c, 4, 63, 0
9, 56688, Note_on_c, 4, 63, 110
9, 56704, Note_on_c, 4, 63, 0
9, 56712, Note_on_c, 4, 63, 110
9, 56728, Note_on_c, 4, 63, 0
9, 56736, Note_on_c, 4, 63, 110
9, 56752, Note_on_c, 4, 63, 0
9, 56760, Note_on_c, 4, 63, 110
9, 56776, Note_on_c, 4, 63, 0
9, 56784, Note_on_c, 4, 63, 110
9, 56800, Note_on_c, 4, 63, 0
9, 56808, Note_on_c, 4, 63, 110
9, 56824, Note_on_c, 4, 63, 0
9, 56832, Note_on_c, 4, 68, 110
9, 56878, Note_on_c, 4, 68, 0
9, 56880, Note_on_c, 4, 70, 110
9, 56926, Note_on_c, 4, 70, 0
9, 56928, Note_on_c, 4, 71, 110
9, 56974, Note_on_c, 4, 71, 0
9, 56976, Note_on_c, 4, 71, 110
9, 57022, Note_on_c, 4, 71, 0
9, 57024, Note_on_c, 4, 71, 110
9, 57118, Note_on_c, 4, 71, 0
9, 57120, Note_on_c, 4, 75, 110
9, 57214, Note_on_c, 4, 75, 0
9, 57216, Note_on_c, 4, 71, 110
9, 57232, Note_on_c, 4, 71, 0
9, 57240, Note_on_c, 4, 71, 110
9, 57256, Note_on_c, 4, 71, 0
9, 57264, Note_on_c, 4, 71, 110
9, 57280, Note_on_c, 4, 71, 0
9, 57288, Note_on_c, 4, 71, 110
9, 57304, Note_on_c, 4, 71, 0
9, 57312, Note_on_c, 4, 71, 110
9, 57328, Note_on_c, 4, 71, 0
9, 57336, Note_on_c, 4, 71, 110
9, 57352, Note_on_c, 4, 71, 0
9, 57360, Note_on_c, 4, 71, 110
9, 57376, Note_on_c, 4, 71, 0
9, 57384, Note_on_c, 4, 71, 110
9, 57400, Note_on_c, 4, 71, 0
9, 57408, Note_on_c, 4, 70, 110
9, 57424, Note_on_c, 4, 70, 0
9, 57432, Note_on_c, 4, 70, 110
9, 57448, Note_on_c, 4, 70, 0
9, 57456, Note_on_c, 4, 70, 110
9, 57472, Note_on_c, 4, 70, 0
9, 57480, Note_on_c, 4, 70, 110
9, 57496, Note_on_c, 4, 70, 0
9, 57504, Note_on_c, 4, 70, 110
9, 57520, Note_on_c, 4, 70, 0
9, 57528, Note_on_c, 4, 70, 110
9, 57544, Note_on_c, 4, 70, 0
9, 57552, Note_on_c, 4, 70, 110
9, 57568, Note_on_c, 4, 70, 0
9, 57576, Note_on_c, 4, 70, 110
9, 57592, Note_on_c, 4, 70, 0
9, 57600, Note_on_c, 4, 68, 110
9, 57646, Note_on_c, 4, 68, 0
9, 57648, Note_on_c, 4, 70, 110
9, 57694, Note_on_c, 4, 70, 0
9, 57696, Note_on_c, 4, 71, 110
9, 57742, Note_on_c, 4, 71, 0
9, 57744, Note_on_c, 4, 71, 110
9, 57790, Note_on_c, 4, 71, 0
9, 57792, Note_on_c, 4, 71, 110
9, 57886, Note_on_c, 4, 71, 0
9, 57888, Note_on_c, 4, 75, 110
9, 57982, Note_on_c, 4, 75, 0
9, 57984, Note_on_c, 4, 71, 110
9, 58000, Note_on_c, 4, 71, 0
9, 58008, Note_on_c, 4, 71, 110
9, 58024, Note_on_c, 4, 71, 0
9, 58032, Note_on_c, 4, 71, 110
9, 58048, Note_on_c, 4, 71, 0
9, 58056, Note_on_c, 4, 71, 110
9, 58072, Note_on_c, 4, 71, 0
9, 58080, Note_on_c, 4, 71, 110
9, 58096, Note_on_c, 4, 71, 0
9, 58104, Note_on_c, 4, 71, 110
9, 58120, Note_on_c, 4, 71, 0
9, 58128, Note_on_c, 4, 71, 110
9, 58144, Note_on_c, 4, 71, 0
9, 58152, Note_on_c, 4, 71, 110
9, 58168, Note_on_c, 4, 71, 0
9, 58176, Note_on_c, 4, 70, 110
9, 58192, Note_on_c, 4, 70, 0
9, 58200, Note_on_c, 4, 70, 110
9, 58216, Note_on_c, 4, 70, 0
9, 58224, Note_on_c, 4, 70, 110
9, 58240, Note_on_c, 4, 70, 0
9, 58248, Note_on_c, 4, 70, 110
9, 58264, Note_on_c, 4, 70, 0
9, 58272, Note_on_c, 4, 70, 110
9, 58288, Note_on_c, 4, 70, 0
9, 58296, Note_on_c, 4, 70, 110
9, 58312, Note_on_c, 4, 70, 0
9, 58320, Note_on_c, 4, 70, 110
9, 58336, Note_on_c, 4, 70, 0
9, 58344, Note_on_c, 4, 70, 110
9, 58360, Note_on_c, 4, 70, 0
9, 58368, Note_on_c, 4, 61, 110
9, 58414, Note_on_c, 4, 61, 0
9, 58416, Note_on_c, 4, 63, 110
9, 58462, Note_on_c, 4, 63, 0
9, 58464, Note_on_c, 4, 64, 110
9, 58510, Note_on_c, 4, 64, 0
9, 58512, Note_on_c, 4, 64, 110
9, 58558, Note_on_c, 4, 64, 0
9, 58560, Note_on_c, 4, 64, 110
9, 58654, Note_on_c, 4, 64, 0
9, 58656, Note_on_c, 4, 68, 110
9, 58750, Note_on_c, 4, 68, 0
9, 58752, Note_on_c, 4, 64, 110
9, 58768, Note_on_c, 4, 64, 0
9, 58776, Note_on_c, 4, 64, 110
9, 58792, Note_on_c, 4, 64, 0
9, 58800, Note_on_c, 4, 64, 110
9, 58816, Note_on_c, 4, 64, 0
9, 58824, Note_on_c, 4, 64, 110
9, 58840, Note_on_c, 4, 64, 0
9, 58848, Note_on_c, 4, 64, 110
9, 58864, Note_on_c, 4, 64, 0
9, 58872, Note_on_c, 4, 64, 110
9, 58888, Note_on_c, 4, 64, 0
9, 58896, Note_on_c, 4, 64, 110
9, 58912, Note_on_c, 4, 64, 0
9, 58920, Note_on_c, 4, 64, 110
9, 58936, Note_on_c, 4, 64, 0
9, 58944, Note_on_c, 4, 63, 110
9, 58960, Note_on_c, 4, 63, 0
9, 58968, Note_on_c, 4, 63, 110
9, 58984, Note_on_c, 4, 63, 0
9, 58992, Note_on_c, 4, 63, 110
9, 59008, Note_on_c, 4, 63, 0
9, 59016, Note_on_c, 4, 63, 110
9, 59032, Note_on_c, 4, 63, 0
9, 59040, Note_on_c, 4, 63, 110
9, 59056, Note_on_c, 4, 63, 0
9, 59064, Note_on_c, 4, 63, 110
9, 59080, Note_on_c, 4, 63, 0
9, 59088, Note_on_c, 4, 63, 110
9, 59104, Note_on_c, 4, 63, 0
9, 59112, Note_on_c, 4, 63, 110
9, 59128, Note_on_c, 4, 63, 0
9, 59136, Note_on_c, 4, 61, 110
9, 59182, Note_on_c, 4, 61, 0
9, 59184, Note_on_c, 4, 63, 110
9, 59230, Note_on_c, 4, 63, 0
9, 59232, Note_on_c, 4, 64, 110
9, 59278, Note_on_c, 4, 64, 0
9, 59280, Note_on_c, 4, 64, 110
9, 59326, Note_on_c, 4, 64, 0
9, 59328, Note_on_c, 4, 64, 110
9, 59422, Note_on_c, 4, 64, 0
9, 59424, Note_on_c, 4, 68, 110
9, 59518, Note_on_c, 4, 68, 0
9, 59520, Note_on_c, 4, 64, 110
9, 59536, Note_on_c, 4, 64, 0
9, 59544, Note_on_c, 4, 64, 110
9, 59560, Note_on_c, 4, 64, 0
9, 59568, Note_on_c, 4, 64, 110
9, 59584, Note_on_c, 4, 64, 0
9, 59592, Note_on_c, 4, 64, 110
9, 59608, Note_on_c, 4, 64, 0
9, 59616, Note_on_c, 4, 64, 110
9, 59632, Note_on_c, 4, 64, 0
9, 59640, Note_on_c, 4, 64, 110
9, 59656, Note_on_c, 4, 64, 0
9, 59664, Note_on_c, 4, 64, 110
9, 59680, Note_on_c, 4, 64, 0
9, 59688, Note_on_c, 4, 64, 110
9, 59704, Note_on_c, 4, 64, 0
9, 59712, Note_on_c, 4, 63, 110
9, 59728, Note_on_c, 4, 63, 0
9, 59736, Note_on_c, 4, 63, 110
9, 59752, Note_on_c, 4, 63, 0
9, 59760, Note_on_c, 4, 63, 110
9, 59776, Note_on_c, 4, 63, 0
9, 59784, Note_on_c, 4, 63, 110
9, 59800, Note_on_c, 4, 63, 0
9, 59808, Note_on_c, 4, 63, 110
9, 59824, Note_on_c, 4, 63, 0
9, 59832, Note_on_c, 4, 63, 110
9, 59848, Note_on_c, 4, 63, 0
9, 59856, Note_on_c, 4, 63, 110
9, 59872, Note_on_c, 4, 63, 0
9, 59880, Note_on_c, 4, 63, 110
9, 59896, Note_on_c, 4, 63, 0
9, 59904, Note_on_c, 4, 68, 110
9, 59950, Note_on_c, 4, 68, 0
9, 59952, Note_on_c, 4, 70, 110
9, 59998, Note_on_c, 4, 70, 0
9, 60000, Note_on_c, 4, 71, 110
9, 60046, Note_on_c, 4, 71, 0
9, 60048, Note_on_c, 4, 71, 110
9, 60094, Note_on_c, 4, 71, 0
9, 60096, Note_on_c, 4, 71, 110
9, 60190, Note_on_c, 4, 71, 0
9, 60192, Note_on_c, 4, 75, 110
9, 60286, Note_on_c, 4, 75, 0
9, 60288, Note_on_c, 4, 71, 110
9, 60304, Note_on_c, 4, 71, 0
9, 60312, Note_on_c, 4, 71, 110
9, 60328, Note_on_c, 4, 71, 0
9, 60336, Note_on_c, 4, 71, 110
9, 60352, Note_on_c, 4, 71, 0
9, 60360, Note_on_c, 4, 71, 110
9, 60376, Note_on_c, 4, 71, 0
9, 60384, Note_on_c, 4, 71, 110
9, 60400, Note_on_c, 4, 71, 0
9, 60408, Note_on_c, 4, 71, 110
9, 60424, Note_on_c, 4, 71, 0
9, 60432, Note_on_c, 4, 71, 110
9, 60448, Note_on_c, 4, 71, 0
9, 60456, Note_on_c, 4, 71, 110
9, 60472, Note_on_c, 4, 71, 0
9, 60480, Note_on_c, 4, 70, 110
9, 60496, Note_on_c, 4, 70, 0
9, 60504, Note_on_c, 4, 70, 110
9, 60520, Note_on_c, 4, 70, 0
9, 60528, Note_on_c, 4, 70, 110
9, 60544, Note_on_c, 4, 70, 0
9, 60552, Note_on_c, 4, 70, 110
9, 60568, Note_on_c, 4, 70, 0
9, 60576, Note_on_c, 4, 70, 110
9, 60592, Note_on_c, 4, 70, 0
9, 60600, Note_on_c, 4, 70, 110
9, 60616, Note_on_c, 4, 70, 0
9, 60624, Note_on_c, 4, 70, 110
9, 60640, Note_on_c, 4, 70, 0
9, 60648, Note_on_c, 4, 70, 110
9, 60664, Note_on_c, 4, 70, 0
9, 60672, Note_on_c, 4, 68, 110
9, 60718, Note_on_c, 4, 68, 0
9, 60720, Note_on_c, 4, 70, 110
9, 60766, Note_on_c, 4, 70, 0
9, 60768, Note_on_c, 4, 71, 110
9, 60814, Note_on_c, 4, 71, 0
9, 60816, Note_on_c, 4, 71, 110
9, 60862, Note_on_c, 4, 71, 0
9, 60864, Note_on_c, 4, 71, 110
9, 60958, Note_on_c, 4, 71, 0
9, 60960, Note_on_c, 4, 75, 110
9, 61054, Note_on_c, 4, 75, 0
9, 61056, Note_on_c, 4, 71, 110
9, 61072, Note_on_c, 4, 71, 0
9, 61080, Note_on_c, 4, 71, 110
9, 61096, Note_on_c, 4, 71, 0
9, 61104, Note_on_c, 4, 71, 110
9, 61120, Note_on_c, 4, 71, 0
9, 61128, Note_on_c, 4, 71, 110
9, 61144, Note_on_c, 4, 71, 0
9, 61152, Note_on_c, 4, 71, 110
9, 61168, Note_on_c, 4, 71, 0
9, 61176, Note_on_c, 4, 71, 110
9, 61192, Note_on_c, 4, 71, 0
9, 61200, Note_on_c, 4, 71, 110
9, 61216, Note_on_c, 4, 71, 0
9, 61224, Note_on_c, 4, 71, 110
9, 61240, Note_on_c, 4, 71, 0
9, 61248, Note_on_c, 4, 70, 110
9, 61264, Note_on_c, 4, 70, 0
9, 61272, Note_on_c, 4, 70, 110
9, 61288, Note_on_c, 4, 70, 0
9, 61296, Note_on_c, 4, 70, 110
9, 61312, Note_on_c, 4, 70, 0
9, 61320, Note_on_c, 4, 70, 110
9, 61336, Note_on_c, 4, 70, 0
9, 61344, Note_on_c, 4, 70, 110
9, 61360, Note_on_c, 4, 70, 0
9, 61368, Note_on_c, 4, 70, 110
9, 61384, Note_on_c, 4, 70, 0
9, 61392, Note_on_c, 4, 70, 110
9, 61408, Note_on_c, 4, 70, 0
9, 61416, Note_on_c, 4, 70, 110
9, 61432, Note_on_c, 4, 70, 0
9, 79872, Note_on_c, 4, 61, 110
9, 79918, Note_on_c, 4, 61, 0
9, 79920, Note_on_c, 4, 63, 110
9, 79966, Note_on_c, 4, 63, 0
9, 79968, Note_on_c, 4, 64, 110
9, 80014, Note_on_c, 4, 64, 0
9, 80016, Note_on_c, 4, 64, 110
9, 80062, Note_on_c, 4, 64, 0
9, 80064, Note_on_c, 4, 64, 110
9, 80158, Note_on_c, 4, 64, 0
9, 80160, Note_on_c, 4, 68, 110
9, 80254, Note_on_c, 4, 68, 0
9, 80256, Note_on_c, 4, 64, 110
9, 80272, Note_on_c, 4, 64, 0
9, 80280, Note_on_c, 4, 64, 110
9, 80296, Note_on_c, 4, 64, 0
9, 80304, Note_on_c, 4, 64, 110
9, 80320, Note_on_c, 4, 64, 0
9, 80328, Note_on_c, 4, 64, 110
9, 80344, Note_on_c, 4, 64, 0
9, 80352, Note_on_c, 4, 64, 110
9, 80368, Note_on_c, 4, 64, 0
9, 80376, Note_on_c, 4, 64, 110
9, 80392, Note_on_c, 4, 64, 0
9, 80400, Note_on_c, 4, 64, 110
9, 80416, Note_on_c, 4, 64, 0
9, 80424, Note_on_c, 4, 64, 110
9, 80440, Note_on_c, 4, 64, 0
9, 80448, Note_on_c, 4, 63, 110
9, 80464, Note_on_c, 4, 63, 0
9, 80472, Note_on_c, 4, 63, 110
9, 80488, Note_on_c, 4, 63, 0
9, 80496, Note_on_c, 4, 63, 110
9, 80512, Note_on_c, 4, 63, 0
9, 80520, Note_on_c, 4, 63, 110
9, 80536, Note_on_c, 4, 63, 0
9, 80544, Note_on_c, 4, 63, 110
9, 80560, Note_on_c, 4, 63, 0
9, 80568, Note_on_c, 4, 63, 110
9, 80584, Note_on_c, 4, 63, 0
9, 80592, Note_on_c, 4, 63, 110
9, 80608, Note_on_c, 4, 63, 0
9, 80616, Note_on_c, 4, 63, 110
9, 80632, Note_on_c, 4, 63, 0
9, 80640, Note_on_c, 4, 61, 110
9, 80686, Note_on_c, 4, 61, 0
9, 80688, Note_on_c, 4, 63, 110
9, 80734, Note_on_c, 4, 63, 0
9, 80736, Note_on_c, 4, 64, 110
9, 80782, Note_on_c, 4, 64, 0
9, 80784, Note_on_c, 4, 64, 110
9, 80830, Note_on_c, 4, 64, 0
9, 80832, Note_on_c, 4, 64, 110
9, 80926, Note_on_c, 4, 64, 0
9, 80928, Note_on_c, 4, 68, 110
9, 81022, Note_on_c, 4, 68, 0
9, 81024, Note_on_c, 4, 64, 110
9, 81040, Note_on_c, 4, 64, 0
9, 81048, Note_on_c, 4, 64, 110
9, 81064, Note_on_c, 4, 64, 0
9, 81072, Note_on_c, 4, 64, 110
9, 81088, Note_on_c, 4, 64, 0
9, 81096, Note_on_c, 4, 64, 110
9, 81112, Note_on_c, 4, 64, 0
9, 81120, Note_on_c, 4, 64, 110
9, 81136, Note_on_c, 4, 64, 0
9, 81144, Note_on_c, 4, 64, 110
9, 81160, Note_on_c, 4, 64, 0
9, 81168, Note_on_c, 4, 64, 110
9, 81184, Note_on_c, 4, 64, 0
9, 81192, Note_on_c, 4, 64, 110
9, 81208, Note_on_c, 4, 64, 0
9, 81216, Note_on_c, 4, 63, 110
9, 81232, Note_on_c, 4, 63, 0
9, 81240, Note_on_c, 4, 63, 110
9, 81256, Note_on_c, 4, 63, 0
9, 81264, Note_on_c, 4, 63, 110
9, 81280, Note_on_c, 4, 63, 0
9, 81288, Note_on_c, 4, 63, 110
9, 81304, Note_on_c, 4, 63, 0
9, 81312, Note_on_c, 4, 63, 110
9, 81328, Note_on_c, 4, 63, 0
9, 81336, Note_on_c, 4, 63, 110
9, 81352, Note_on_c, 4, 63, 0
9, 81360, Note_on_c, 4, 63, 110
9, 81376, Note_on_c, 4, 63, 0
9, 81384, Note_on_c, 4, 63, 110
9, 81400, Note_on_c, 4, 63, 0
9, 81408, Note_on_c, 4, 68, 110
9, 81454, Note_on_c, 4, 68, 0
9, 81456, Note_on_c, 4, 70, 110
9, 81502, Note_on_c, 4, 70, 0
9, 81504, Note_on_c, 4, 71, 110
9, 81550, Note_on_c, 4, 71, 0
9, 81552, Note_on_c, 4, 71, 110
9, 81598, Note_on_c, 4, 71, 0
9, 81600, Note_on_c, 4, 71, 110
9, 81694, Note_on_c, 4, 71, 0
9, 81696, Note_on_c, 4, 75, 110
9, 81790, Note_on_c, 4, 75, 0
9, 81792, Note_on_c, 4, 71, 110
9, 81808, Note_on_c, 4, 71, 0
9, 81816, Note_on_c, 4, 71, 110
9, 81832, Note_on_c, 4, 71, 0
9, 81840, Note_on_c, 4, 71, 110
9, 81856, Note_on_c, 4, 71, 0
9, 81864, Note_on_c, 4, 71, 110
9, 81880, Note_on_c, 4, 71, 0
9, 81888, Note_on_c, 4, 71, 110
9, 81904, Note_on_c, 4, 71, 0
9, 81912, Note_on_c, 4, 71, 110
9, 81928, Note_on_c, 4, 71, 0
9, 81936, Note_on_c, 4, 71, 110
9, 81952, Note_on_c, 4, 71, 0
9, 81960, Note_on_c, 4, 71, 110
9, 81976, Note_on_c, 4, 71, 0
9, 81984, Note_on_c, 4, 70, 110
9, 82000, Note_on_c, 4, 70, 0
9, 82008, Note_on_c, 4, 70, 110
9, 82024, Note_on_c, 4, 70, 0
9, 82032, Note_on_c, 4, 70, 110
9, 82048, Note_on_c, 4, 70, 0
9, 82056, Note_on_c, 4, 70, 110
9, 82072, Note_on_c, 4, 70, 0
9, 82080, Note_on_c, 4, 70, 110
9, 82096, Note_on_c, 4, 70, 0
9, 82104, Note_on_c, 4, 70, 110
9, 82120, Note_on_c, 4, 70, 0
9, 82128, Note_on_c, 4, 70, 110
9, 82144, Note_on_c, 4, 70, 0
9, 82152, Note_on_c, 4, 70, 110
9, 82168, Note_on_c, 4, 70, 0
9, 82176, Note_on_c, 4, 68, 110
9, 82222, Note_on_c, 4, 68, 0
9, 82224, Note_on_c, 4, 70, 110
9, 82270, Note_on_c, 4, 70, 0
9, 82272, Note_on_c, 4, 71, 110
9, 82318, Note_on_c, 4, 71, 0
9, 82320, Note_on_c, 4, 71, 110
9, 82366, Note_on_c, 4, 71, 0
9, 82368, Note_on_c, 4, 71, 110
9, 82462, Note_on_c, 4, 71, 0
9, 82464, Note_on_c, 4, 75, 110
9, 82558, Note_on_c, 4, 75, 0
9, 82560, Note_on_c, 4, 71, 110
9, 82576, Note_on_c, 4, 71, 0
9, 82584, Note_on_c, 4, 71, 110
9, 82600, Note_on_c, 4, 71, 0
9, 82608, Note_on_c, 4, 71, 110
9, 82624, Note_on_c, 4, 71, 0
9, 82632, Note_on_c, 4, 71, 110
9, 82648, Note_on_c, 4, 71, 0
9, 82656, Note_on_c, 4, 71, 110
9, 82672, Note_on_c, 4, 71, 0
9, 82680, Note_on_c, 4, 71, 110
9, 82696, Note_on_c, 4, 71, 0
9, 82704, Note_on_c, 4, 71, 110
9, 82720, Note_on_c, 4, 71, 0
9, 82728, Note_on_c, 4, 71, 110
9, 82744, Note_on_c, 4, 71, 0
9, 82752, Note_on_c, 4, 70, 110
9, 82768, Note_on_c, 4, 70, 0
9, 82776, Note_on_c, 4, 70, 110
9, 82792, Note_on_c, 4, 70, 0
9, 82800, Note_on_c, 4, 70, 110
9, 82816, Note_on_c, 4, 70, 0
9, 82824, Note_on_c, 4, 70, 110
9, 82840, Note_on_c, 4, 70, 0
9, 82848, Note_on_c, 4, 70, 110
9, 82864, Note_on_c, 4, 70, 0
9, 82872, Note_on_c, 4, 70, 110
9, 82888, Note_on_c, 4, 70, 0
9, 82896, Note_on_c, 4, 70, 110
9, 82912, Note_on_c, 4, 70, 0
9, 82920, Note_on_c, 4, 70, 110
9, 82936, Note_on_c, 4, 70, 0
9, 82944, Note_on_c, 4, 61, 110
9, 82990, Note_on_c, 4, 61, 0
9, 82992, Note_on_c, 4, 63, 110
9, 83038, Note_on_c, 4, 63, 0
9, 83040, Note_on_c, 4, 64, 110
9, 83086, Note_on_c, 4, 64, 0
9, 83088, Note_on_c, 4, 64, 110
9, 83134, Note_on_c, 4, 64, 0
9, 83136, Note_on_c, 4, 64, 110
9, 83230, Note_on_c, 4, 64, 0
9, 83232, Note_on_c, 4, 68, 110
9, 83326, Note_on_c, 4, 68, 0
9, 83328, Note_on_c, 4, 64, 110
9, 83344, Note_on_c, 4, 64, 0
9, 83352, Note_on_c, 4, 64, 110
9, 83368, Note_on_c, 4, 64, 0
9, 83376, Note_on_c, 4, 64, 110
9, 83392, Note_on_c, 4, 64, 0
9, 83400, Note_on_c, 4, 64, 110
9, 83416, Note_on_c, 4, 64, 0
9, 83424, Note_on_c, 4, 64, 110
9, 83440, Note_on_c, 4, 64, 0
9, 83448, Note_on_c, 4, 64, 110
9, 83464, Note_on_c, 4, 64, 0
9, 83472, Note_on_c, 4, 64, 110
9, 83488, Note_on_c, 4, 64, 0
9, 83496, Note_on_c, 4, 64, 110
9, 83512, Note_on_c, 4, 64, 0
9, 83520, Note_on_c, 4, 63, 110
9, 83536, Note_on_c, 4, 63, 0
9, 83544, Note_on_c, 4, 63, 110
9, 83560, Note_on_c, 4, 63, 0
9, 83568, Note_on_c, 4, 63, 110
9, 83584, Note_on_c, 4, 63, 0
9, 83592, Note_on_c, 4, 63, 110
9, 83608, Note_on_c, 4, 63, 0
9, 83616, Note_on_c, 4, 63, 110
9, 83632, Note_on_c, 4, 63, 0
9, 83640, Note_on_c, 4, 63, 110
9, 83656, Note_on_c, 4, 63, 0
9, 83664, Note_on_c, 4, 63, 110
9, 83680, Note_on_c, 4, 63, 0
9, 83688, Note_on_c, 4, 63, 110
9, 83704, Note_on_c, 4, 63, 0
9, 83712, Note_on_c, 4, 61, 110
9, 83758, Note_on_c, 4, 61, 0
9, 83760, Note_on_c, 4, 63, 110
9, 83806, Note_on_c, 4, 63, 0
9, 83808, Note_on_c, 4, 64, 110
9, 83854, Note_on_c, 4, 64, 0
9, 83856, Note_on_c, 4, 64, 110
9, 83902, Note_on_c, 4, 64, 0
9, 83904, Note_on_c, 4, 64, 110
9, 83998, Note_on_c, 4, 64, 0
9, 84000, Note_on_c, 4, 68, 110
9, 84094, Note_on_c, 4, 68, 0
9, 84096, Note_on_c, 4, 64, 110
9, 84112, Note_on_c, 4, 64, 0
9, 84120, Note_on_c, 4, 64, 110
9, 84136, Note_on_c, 4, 64, 0
9, 84144, Note_on_c, 4, 64, 110
9, 84160, Note_on_c, 4, 64, 0
9, 84168, Note_on_c, 4, 64, 110
9, 84184, Note_on_c, 4, 64, 0
9, 84192, Note_on_c, 4, 64, 110
9, 84208, Note_on_c, 4, 64, 0
9, 84216, Note_on_c, 4, 64, 110
9, 84232, Note_on_c, 4, 64, 0
9, 84240, Note_on_c, 4, 64, 110
9, 84256, Note_on_c, 4, 64, 0
9, 84264, Note_on_c, 4, 64, 110
9, 84280, Note_on_c, 4, 64, 0
9, 84288, Note_on_c, 4, 63, 110
9, 84304, Note_on_c, 4, 63, 0
9, 84312, Note_on_c, 4, 63, 110
9, 84328, Note_on_c, 4, 63, 0
9, 84336, Note_on_c, 4, 63, 110
9, 84352, Note_on_c, 4, 63, 0
9, 84360, Note_on_c, 4, 63, 110
9, 84376, Note_on_c, 4, 63, 0
9, 84384, Note_on_c, 4, 63, 110
9, 84400, Note_on_c, 4, 63, 0
9, 84408, Note_on_c, 4, 63, 110
9, 84424, Note_on_c, 4, 63, 0
9, 84432, Note_on_c, 4, 63, 110
9, 84448, Note_on_c, 4, 63, 0
9, 84456, Note_on_c, 4, 63, 110
9, 84472, Note_on_c, 4, 63, 0
9, 84480, Note_on_c, 4, 68, 110
9, 84526, Note_on_c, 4, 68, 0
9, 84528, Note_on_c, 4, 70, 110
9, 84574, Note_on_c, 4, 70, 0
9, 84576, Note_on_c, 4, 71, 110
9, 84622, Note_on_c, 4, 71, 0
9, 84624, Note_on_c, 4, 71, 110
9, 84670, Note_on_c, 4, 71, 0
9, 84672, Note_on_c, 4, 71, 110
9, 84766, Note_on_c, 4, 71, 0
9, 84768, Note_on_c, 4, 75, 110
9, 84862, Note_on_c, 4, 75, 0
9, 84864, Note_on_c, 4, 71, 110
9, 84880, Note_on_c, 4, 71, 0
9, 84888, Note_on_c, 4, 71, 110
9, 84904, Note_on_c, 4, 71, 0
9, 84912, Note_on_c, 4, 71, 110
9, 84928, Note_on_c, 4, 71, 0
9, 84936, Note_on_c, 4, 71, 110
9, 84952, Note_on_c, 4, 71, 0
9, 84960, Note_on_c, 4, 71, 110
9, 84976, Note_on_c, 4, 71, 0
9, 84984, Note_on_c, 4, 71, 110
9, 85000, Note_on_c, 4, 71, 0
9, 85008, Note_on_c, 4, 71, 110
9, 85024, Note_on_c, 4, 71, 0
9, 85032, Note_on_c, 4, 71, 110
9, 85048, Note_on_c, 4, 71, 0
9, 85056, Note_on_c, 4, 70, 110
9, 85072, Note_on_c, 4, 70, 0
9, 85080, Note_on_c, 4, 70, 110
9, 85096, Note_on_c, 4, 70, 0
9, 85104, Note_on_c, 4, 70, 110
9, 85120, Note_on_c, 4, 70, 0
9, 85128, Note_on_c, 4, 70, 110
9, 85144, Note_on_c, 4, 70, 0
9, 85152, Note_on_c, 4, 70, 110
9, 85168, Note_on_c, 4, 70, 0
9, 85176, Note_on_c, 4, 70, 110
9, 85192, Note_on_c, 4, 70, 0
9, 85200, Note_on_c, 4, 70, 110
9, 85216, Note_on_c, 4, 70, 0
9, 85224, Note_on_c, 4, 70, 110
9, 85240, Note_on_c, 4, 70, 0
9, 85248, Note_on_c, 4, 68, 110
9, 85294, Note_on_c, 4, 68, 0
9, 85296, Note_on_c, 4, 70, 110
9, 85342, Note_on_c, 4, 70, 0
9, 85344, Note_on_c, 4, 71, 110
9, 85390, Note_on_c, 4, 71, 0
9, 85392, Note_on_c, 4, 71, 110
9, 85438, Note_on_c, 4, 71, 0
9, 85440, Note_on_c, 4, 71, 110
9, 85534, Note_on_c, 4, 71, 0
9, 85536, Note_on_c, 4, 75, 110
9, 85630, Note_on_c, 4, 75, 0
9, 85632, Note_on_c, 4, 71, 110
9, 85648, Note_on_c, 4, 71, 0
9, 85656, Note_on_c, 4, 71, 110
9, 85672, Note_on_c, 4, 71, 0
9, 85680, Note_on_c, 4, 71, 110
9, 85696, Note_on_c, 4, 71, 0
9, 85704, Note_on_c, 4, 71, 110
9, 85720, Note_on_c, 4, 71, 0
9, 85728, Note_on_c, 4, 71, 110
9, 85744, Note_on_c, 4, 71, 0
9, 85752, Note_on_c, 4, 71, 110
9, 85768, Note_on_c, 4, 71, 0
9, 85776, Note_on_c, 4, 71, 110
9, 85792, Note_on_c, 4, 71, 0
9, 85800, Note_on_c, 4, 71, 110
9, 85816, Note_on_c, 4, 71, 0
9, 85824, Note_on_c, 4, 70, 110
9, 85840, Note_on_c, 4, 70, 0
9, 85848, Note_on_c, 4, 70, 110
9, 85864, Note_on_c, 4, 70, 0
9, 85872, Note_on_c, 4, 70, 110
9, 85888, Note_on_c, 4, 70, 0
9, 85896, Note_on_c, 4, 70, 110
9, 85912, Note_on_c, 4, 70, 0
9, 85920, Note_on_c, 4, 70, 110
9, 85936, Note_on_c, 4, 70, 0
9, 85944, Note_on_c, 4, 70, 110
9, 85960, Note_on_c, 4, 70, 0
9, 85968, Note_on_c, 4, 70, 110
9, 85984, Note_on_c, 4, 70, 0
9, 85992, Note_on_c, 4, 70, 110
9, 86008, Note_on_c, 4, 70, 0
9, 86008, End_track
10, 0, Start_track
10, 0, MIDI_port, 0
10, 0, Title_t, "Staff-8"
10, 0, Control_c, 5, 7, 90
10, 0, Control_c, 5, 10, 64
10, 0, Program_c, 5, 54
10, 6096, Note_on_c, 5, 56, 110
10, 6142, Note_on_c, 5, 56, 0
10, 6144, Note_on_c, 5, 61, 110
10, 6190, Note_on_c, 5, 61, 0
10, 6192, Note_on_c, 5, 63, 110
10, 6238, Note_on_c, 5, 63, 0
10, 6240, Note_on_c, 5, 64, 110
10, 6400, Note_on_c, 5, 64, 0
10, 6480, Note_on_c, 5, 56, 110
10, 6526, Note_on_c, 5, 56, 0
10, 6528, Note_on_c, 5, 61, 110
10, 6574, Note_on_c, 5, 61, 0
10, 6576, Note_on_c, 5, 63, 110
10, 6622, Note_on_c, 5, 63, 0
10, 6624, Note_on_c, 5, 64, 110
10, 6784, Note_on_c, 5, 64, 0
10, 6864, Note_on_c, 5, 56, 110
10, 6910, Note_on_c, 5, 56, 0
10, 6912, Note_on_c, 5, 61, 110
10, 6958, Note_on_c, 5, 61, 0
10, 6960, Note_on_c, 5, 63, 110
10, 7006, Note_on_c, 5, 63, 0
10, 7008, Note_on_c, 5, 64, 110
10, 7168, Note_on_c, 5, 64, 0
10, 7248, Note_on_c, 5, 56, 110
10, 7294, Note_on_c, 5, 56, 0
10, 7296, Note_on_c, 5, 61, 110
10, 7342, Note_on_c, 5, 61, 0
10, 7344, Note_on_c, 5, 63, 110
10, 7390, Note_on_c, 5, 63, 0
10, 7392, Note_on_c, 5, 64, 110
10, 7552, Note_on_c, 5, 64, 0
10, 7632, Note_on_c, 5, 59, 110
10, 7678, Note_on_c, 5, 59, 0
10, 7680, Note_on_c, 5, 59, 110
10, 7726, Note_on_c, 5, 59, 0
10, 7728, Note_on_c, 5, 61, 110
10, 7774, Note_on_c, 5, 61, 0
10, 7776, Note_on_c, 5, 63, 110
10, 7936, Note_on_c, 5, 63, 0
10, 8016, Note_on_c, 5, 56, 110
10, 8062, Note_on_c, 5, 56, 0
10, 8064, Note_on_c, 5, 59, 110
10, 8110, Note_on_c, 5, 59, 0
10, 8112, Note_on_c, 5, 61, 110
10, 8158, Note_on_c, 5, 61, 0
10, 8160, Note_on_c, 5, 63, 110
10, 8320, Note_on_c, 5, 63, 0
10, 8400, Note_on_c, 5, 56, 110
10, 8446, Note_on_c, 5, 56, 0
10, 8448, Note_on_c, 5, 59, 110
10, 8494, Note_on_c, 5, 59, 0
10, 8496, Note_on_c, 5, 61, 110
10, 8542, Note_on_c, 5, 61, 0
10, 8544, Note_on_c, 5, 63, 110
10, 8704, Note_on_c, 5, 63, 0
10, 8784, Note_on_c, 5, 56, 110
10, 8830, Note_on_c, 5, 56, 0
10, 8832, Note_on_c, 5, 59, 110
10, 8878, Note_on_c, 5, 59, 0
10, 8880, Note_on_c, 5, 61, 110
10, 8926, Note_on_c, 5, 61, 0
10, 8928, Note_on_c, 5, 63, 110
10, 9088, Note_on_c, 5, 63, 0
10, 9168, Note_on_c, 5, 56, 110
10, 9214, Note_on_c, 5, 56, 0
10, 9216, Note_on_c, 5, 61, 110
10, 9262, Note_on_c, 5, 61, 0
10, 9264, Note_on_c, 5, 63, 110
10, 9310, Note_on_c, 5, 63, 0
10, 9312, Note_on_c, 5, 64, 110
10, 9472, Note_on_c, 5, 64, 0
10, 9552, Note_on_c, 5, 56, 110
10, 9598, Note_on_c, 5, 56, 0
10, 9600, Note_on_c, 5, 61, 110
10, 9646, Note_on_c, 5, 61, 0
10, 9648, Note_on_c, 5, 63, 110
10, 9694, Note_on_c, 5, 63, 0
10, 9696, Note_on_c, 5, 64, 110
10, 9856, Note_on_c, 5, 64, 0
10, 9936, Note_on_c, 5, 56, 110
10, 9982, Note_on_c, 5, 56, 0
10, 9984, Note_on_c, 5, 61, 110
10, 10030, Note_on_c, 5, 61, 0
10, 10032, Note_on_c, 5, 63, 110
10, 10078, Note_on_c, 5, 63, 0
10, 10080, Note_on_c, 5, 64, 110
10, 10240, Note_on_c, 5, 64, 0
10, 10320, Note_on_c, 5, 56, 110
10, 10366, Note_on_c, 5, 56, 0
10, 10368, Note_on_c, 5, 61, 110
10, 10414, Note_on_c, 5, 61, 0
10, 10416, Note_on_c, 5, 63, 110
10, 10462, Note_on_c, 5, 63, 0
10, 10464, Note_on_c, 5, 64, 110
10, 10624, Note_on_c, 5, 64, 0
10, 10704, Note_on_c, 5, 59, 110
10, 10750, Note_on_c, 5, 59, 0
10, 10752, Note_on_c, 5, 59, 110
10, 10798, Note_on_c, 5, 59, 0
10, 10800, Note_on_c, 5, 61, 110
10, 10846, Note_on_c, 5, 61, 0
10, 10848, Note_on_c, 5, 63, 110
10, 11008, Note_on_c, 5, 63, 0
10, 11088, Note_on_c, 5, 56, 110
10, 11134, Note_on_c, 5, 56, 0
10, 11136, Note_on_c, 5, 59, 110
10, 11182, Note_on_c, 5, 59, 0
10, 11184, Note_on_c, 5, 61, 110
10, 11230, Note_on_c, 5, 61, 0
10, 11232, Note_on_c, 5, 63, 110
10, 11392, Note_on_c, 5, 63, 0
10, 11472, Note_on_c, 5, 56, 110
10, 11518, Note_on_c, 5, 56, 0
10, 11520, Note_on_c, 5, 59, 110
10, 11566, Note_on_c, 5, 59, 0
10, 11568, Note_on_c, 5, 61, 110
10, 11614, Note_on_c, 5, 61, 0
10, 11616, Note_on_c, 5, 63, 110
10, 11776, Note_on_c, 5, 63, 0
10, 11856, Note_on_c, 5, 56, 110
10, 11902, Note_on_c, 5, 56, 0
10, 11904, Note_on_c, 5, 59, 110
10, 11950, Note_on_c, 5, 59, 0
10, 11952, Note_on_c, 5, 61, 110
10, 11998, Note_on_c, 5, 61, 0
10, 12000, Note_on_c, 5, 63, 110
10, 12094, Note_on_c, 5, 63, 0
10, 12096, Note_on_c, 5, 66, 110
10, 12190, Note_on_c, 5, 66, 0
10, 12192, Note_on_c, 5, 64, 110
10, 12286, Note_on_c, 5, 64, 0
10, 12288, Note_on_c, 5, 49, 110
10, 12288, Note_on_c, 5, 61, 110
10, 12334, Note_on_c, 5, 49, 0
10, 12334, Note_on_c, 5, 61, 0
10, 12384, Note_on_c, 5, 49, 110
10, 12384, Note_on_c, 5, 61, 110
10, 12430, Note_on_c, 5, 49, 0
10, 12430, Note_on_c, 5, 61, 0
10, 12432, Note_on_c, 5, 52, 110
10, 12432, Note_on_c, 5, 64, 110
10, 12478, Note_on_c, 5, 52, 0
10, 12478, Note_on_c, 5, 64, 0
10, 12528, Note_on_c, 5, 52, 110
10, 12528, Note_on_c, 5, 64, 110
10, 12574, Note_on_c, 5, 52, 0
10, 12574, Note_on_c, 5, 64, 0
10, 12576, Note_on_c, 5, 56, 110
10, 12576, Note_on_c, 5, 68, 110
10, 13392, Note_on_c, 5, 56, 0
10, 13392, Note_on_c, 5, 68, 0
10, 13440, Note_on_c, 5, 52, 110
10, 13440, Note_on_c, 5, 64, 110
10, 13486, Note_on_c, 5, 52, 0
10, 13486, Note_on_c, 5, 64, 0
10, 13488, Note_on_c, 5, 52, 110
10, 13488, Note_on_c, 5, 64, 110
10, 13534, Note_on_c, 5, 52, 0
10, 13534, Note_on_c, 5, 64, 0
10, 13536, Note_on_c, 5, 52, 110
10, 13536, Note_on_c, 5, 64, 110
10, 13630, Note_on_c, 5, 52, 0
10, 13630, Note_on_c, 5, 64, 0
10, 13632, Note_on_c, 5, 52, 110
10, 13632, Note_on_c, 5, 64, 110
10, 13726, Note_on_c, 5, 52, 0
10, 13726, Note_on_c, 5, 64, 0
10, 13728, Note_on_c, 5, 52, 110
10, 13728, Note_on_c, 5, 64, 110
10, 13774, Note_on_c, 5, 52, 0
10, 13774, Note_on_c, 5, 64, 0
10, 13776, Note_on_c, 5, 52, 110
10, 13776, Note_on_c, 5, 64, 110
10, 13870, Note_on_c, 5, 52, 0
10, 13870, Note_on_c, 5, 64, 0
10, 13872, Note_on_c, 5, 51, 110
10, 13872, Note_on_c, 5, 63, 110
10, 13918, Note_on_c, 5, 51, 0
10, 13918, Note_on_c, 5, 63, 0
10, 13920, Note_on_c, 5, 51, 110
10, 13920, Note_on_c, 5, 63, 110
10, 14176, Note_on_c, 5, 51, 0
10, 14176, Note_on_c, 5, 63, 0
10, 14208, Note_on_c, 5, 54, 110
10, 14208, Note_on_c, 5, 66, 110
10, 14254, Note_on_c, 5, 54, 0
10, 14254, Note_on_c, 5, 66, 0
10, 14256, Note_on_c, 5, 54, 110
10, 14256, Note_on_c, 5, 66, 110
10, 14302, Note_on_c, 5, 54, 0
10, 14302, Note_on_c, 5, 66, 0
10, 14304, Note_on_c, 5, 54, 110
10, 14304, Note_on_c, 5, 66, 110
10, 14398, Note_on_c, 5, 54, 0
10, 14398, Note_on_c, 5, 66, 0
10, 14400, Note_on_c, 5, 54, 110
10, 14400, Note_on_c, 5, 66, 110
10, 14494, Note_on_c, 5, 54, 0
10, 14494, Note_on_c, 5, 66, 0
10, 14496, Note_on_c, 5, 54, 110
10, 14496, Note_on_c, 5, 66, 110
10, 14542, Note_on_c, 5, 54, 0
10, 14542, Note_on_c, 5, 66, 0
10, 14544, Note_on_c, 5, 54, 110
10, 14544, Note_on_c, 5, 66, 110
10, 14638, Note_on_c, 5, 54, 0
10, 14638, Note_on_c, 5, 66, 0
10, 14640, Note_on_c, 5, 51, 110
10, 14640, Note_on_c, 5, 63, 110
10, 14686, Note_on_c, 5, 51, 0
10, 14686, Note_on_c, 5, 63, 0
10, 14688, Note_on_c, 5, 51, 110
10, 14688, Note_on_c, 5, 63, 110
10, 14782, Note_on_c, 5, 51, 0
10, 14782, Note_on_c, 5, 63, 0
10, 14832, Note_on_c, 5, 54, 110
10, 14832, Note_on_c, 5, 66, 110
10, 14926, Note_on_c, 5, 54, 0
10, 14926, Note_on_c, 5, 66, 0
10, 14928, Note_on_c, 5, 51, 110
10, 14928, Note_on_c, 5, 63, 110
10, 14974, Note_on_c, 5, 51, 0
10, 14974, Note_on_c, 5, 63, 0
10, 14976, Note_on_c, 5, 51, 110
10, 14976, Note_on_c, 5, 63, 110
10, 15070, Note_on_c, 5, 51, 0
10, 15070, Note_on_c, 5, 63, 0
10, 15264, Note_on_c, 5, 44, 110
10, 15264, Note_on_c, 5, 56, 110
10, 15310, Note_on_c, 5, 44, 0
10, 15310, Note_on_c, 5, 56, 0
10, 15312, Note_on_c, 5, 44, 110
10, 15312, Note_on_c, 5, 56, 110
10, 15358, Note_on_c, 5, 44, 0
10, 15358, Note_on_c, 5, 56, 0
10, 15360, Note_on_c, 5, 49, 110
10, 15360, Note_on_c, 5, 61, 110
10, 15406, Note_on_c, 5, 49, 0
10, 15406, Note_on_c, 5, 61, 0
10, 15456, Note_on_c, 5, 49, 110
10, 15456, Note_on_c, 5, 61, 110
10, 15502, Note_on_c, 5, 49, 0
10, 15502, Note_on_c, 5, 61, 0
10, 15504, Note_on_c, 5, 52, 110
10, 15504, Note_on_c, 5, 64, 110
10, 15550, Note_on_c, 5, 52, 0
10, 15550, Note_on_c, 5, 64, 0
10, 15600, Note_on_c, 5, 52, 110
10, 15600, Note_on_c, 5, 64, 110
10, 15646, Note_on_c, 5, 52, 0
10, 15646, Note_on_c, 5, 64, 0
10, 15648, Note_on_c, 5, 56, 110
10, 15648, Note_on_c, 5, 68, 110
10, 16464, Note_on_c, 5, 56, 0
10, 16464, Note_on_c, 5, 68, 0
10, 16512, Note_on_c, 5, 52, 110
10, 16512, Note_on_c, 5, 64, 110
10, 16558, Note_on_c, 5, 52, 0
10, 16558, Note_on_c, 5, 64, 0
10, 16560, Note_on_c, 5, 52, 110
10, 16560, Note_on_c, 5, 64, 110
10, 16606, Note_on_c, 5, 52, 0
10, 16606, Note_on_c, 5, 64, 0
10, 16608, Note_on_c, 5, 52, 110
10, 16608, Note_on_c, 5, 64, 110
10, 16702, Note_on_c, 5, 52, 0
10, 16702, Note_on_c, 5, 64, 0
10, 16704, Note_on_c, 5, 52, 110
10, 16704, Note_on_c, 5, 64, 110
10, 16798, Note_on_c, 5, 52, 0
10, 16798, Note_on_c, 5, 64, 0
10, 16800, Note_on_c, 5, 52, 110
10, 16800, Note_on_c, 5, 64, 110
10, 16846, Note_on_c, 5, 52, 0
10, 16846, Note_on_c, 5, 64, 0
10, 16848, Note_on_c, 5, 52, 110
10, 16848, Note_on_c, 5, 64, 110
10, 16942, Note_on_c, 5, 52, 0
10, 16942, Note_on_c, 5, 64, 0
10, 16944, Note_on_c, 5, 51, 110
10, 16944, Note_on_c, 5, 63, 110
10, 16990, Note_on_c, 5, 51, 0
10, 16990, Note_on_c, 5, 63, 0
10, 16992, Note_on_c, 5, 51, 110
10, 16992, Note_on_c, 5, 63, 110
10, 17248, Note_on_c, 5, 51, 0
10, 17248, Note_on_c, 5, 63, 0
10, 17280, Note_on_c, 5, 54, 110
10, 17280, Note_on_c, 5, 66, 110
10, 17326, Note_on_c, 5, 54, 0
10, 17326, Note_on_c, 5, 66, 0
10, 17328, Note_on_c, 5, 54, 110
10, 17328, Note_on_c, 5, 66, 110
10, 17374, Note_on_c, 5, 54, 0
10, 17374, Note_on_c, 5, 66, 0
10, 17376, Note_on_c, 5, 54, 110
10, 17376, Note_on_c, 5, 66, 110
10, 17470, Note_on_c, 5, 54, 0
10, 17470, Note_on_c, 5, 66, 0
10, 17472, Note_on_c, 5, 54, 110
10, 17472, Note_on_c, 5, 66, 110
10, 17566, Note_on_c, 5, 54, 0
10, 17566, Note_on_c, 5, 66, 0
10, 17568, Note_on_c, 5, 54, 110
10, 17568, Note_on_c, 5, 66, 110
10, 17614, Note_on_c, 5, 54, 0
10, 17614, Note_on_c, 5, 66, 0
10, 17616, Note_on_c, 5, 54, 110
10, 17616, Note_on_c, 5, 66, 110
10, 17710, Note_on_c, 5, 54, 0
10, 17710, Note_on_c, 5, 66, 0
10, 17712, Note_on_c, 5, 51, 110
10, 17712, Note_on_c, 5, 63, 110
10, 17758, Note_on_c, 5, 51, 0
10, 17758, Note_on_c, 5, 63, 0
10, 17760, Note_on_c, 5, 51, 110
10, 17760, Note_on_c, 5, 63, 110
10, 17854, Note_on_c, 5, 51, 0
10, 17854, Note_on_c, 5, 63, 0
10, 17904, Note_on_c, 5, 54, 110
10, 17904, Note_on_c, 5, 66, 110
10, 17998, Note_on_c, 5, 54, 0
10, 17998, Note_on_c, 5, 66, 0
10, 18000, Note_on_c, 5, 51, 110
10, 18000, Note_on_c, 5, 63, 110
10, 18046, Note_on_c, 5, 51, 0
10, 18046, Note_on_c, 5, 63, 0
10, 18048, Note_on_c, 5, 51, 110
10, 18048, Note_on_c, 5, 63, 110
10, 18142, Note_on_c, 5, 51, 0
10, 18142, Note_on_c, 5, 63, 0
10, 18384, Note_on_c, 5, 56, 110
10, 18430, Note_on_c, 5, 56, 0
10, 18432, Note_on_c, 5, 61, 110
10, 18478, Note_on_c, 5, 61, 0
10, 18480, Note_on_c, 5, 63, 110
10, 18526, Note_on_c, 5, 63, 0
10, 18528, Note_on_c, 5, 64, 110
10, 18688, Note_on_c, 5, 64, 0
10, 18768, Note_on_c, 5, 56, 110
10, 18814, Note_on_c, 5, 56, 0
10, 18816, Note_on_c, 5, 61, 110
10, 18862, Note_on_c, 5, 61, 0
10, 18864, Note_on_c, 5, 63, 110
10, 18910, Note_on_c, 5, 63, 0
10, 18912, Note_on_c, 5, 64, 110
10, 19072, Note_on_c, 5, 64, 0
10, 19152, Note_on_c, 5, 56, 110
10, 19198, Note_on_c, 5, 56, 0
10, 19200, Note_on_c, 5, 61, 110
10, 19246, Note_on_c, 5, 61, 0
10, 19248, Note_on_c, 5, 63, 110
10, 19294, Note_on_c, 5, 63, 0
10, 19296, Note_on_c, 5, 64, 110
10, 19456, Note_on_c, 5, 64, 0
10, 19536, Note_on_c, 5, 56, 110
10, 19582, Note_on_c, 5, 56, 0
10, 19584, Note_on_c, 5, 61, 110
10, 19630, Note_on_c, 5, 61, 0
10, 19632, Note_on_c, 5, 63, 110
10, 19678, Note_on_c, 5, 63, 0
10, 19680, Note_on_c, 5, 64, 110
10, 19840, Note_on_c, 5, 64, 0
10, 19920, Note_on_c, 5, 59, 110
10, 19966, Note_on_c, 5, 59, 0
10, 19968, Note_on_c, 5, 59, 110
10, 20014, Note_on_c, 5, 59, 0
10, 20016, Note_on_c, 5, 61, 110
10, 20062, Note_on_c, 5, 61, 0
10, 20064, Note_on_c, 5, 63, 110
10, 20224, Note_on_c, 5, 63, 0
10, 20304, Note_on_c, 5, 56, 110
10, 20350, Note_on_c, 5, 56, 0
10, 20352, Note_on_c, 5, 59, 110
10, 20398, Note_on_c, 5, 59, 0
10, 20400, Note_on_c, 5, 61, 110
10, 20446, Note_on_c, 5, 61, 0
10, 20448, Note_on_c, 5, 63, 110
10, 20608, Note_on_c, 5, 63, 0
10, 20688, Note_on_c, 5, 56, 110
10, 20734, Note_on_c, 5, 56, 0
10, 20736, Note_on_c, 5, 59, 110
10, 20782, Note_on_c, 5, 59, 0
10, 20784, Note_on_c, 5, 61, 110
10, 20830, Note_on_c, 5, 61, 0
10, 20832, Note_on_c, 5, 63, 110
10, 20992, Note_on_c, 5, 63, 0
10, 21072, Note_on_c, 5, 56, 110
10, 21118, Note_on_c, 5, 56, 0
10, 21120, Note_on_c, 5, 59, 110
10, 21166, Note_on_c, 5, 59, 0
10, 21168, Note_on_c, 5, 61, 110
10, 21214, Note_on_c, 5, 61, 0
10, 21216, Note_on_c, 5, 63, 110
10, 21376, Note_on_c, 5, 63, 0
10, 21456, Note_on_c, 5, 56, 110
10, 21502, Note_on_c, 5, 56, 0
10, 21504, Note_on_c, 5, 61, 110
10, 21550, Note_on_c, 5, 61, 0
10, 21552, Note_on_c, 5, 63, 110
10, 21598, Note_on_c, 5, 63, 0
10, 21600, Note_on_c, 5, 64, 110
10, 21760, Note_on_c, 5, 64, 0
10, 21840, Note_on_c, 5, 56, 110
10, 21886, Note_on_c, 5, 56, 0
10, 21888, Note_on_c, 5, 61, 110
10, 21934, Note_on_c, 5, 61, 0
10, 21936, Note_on_c, 5, 63, 110
10, 21982, Note_on_c, 5, 63, 0
10, 21984, Note_on_c, 5, 64, 110
10, 22144, Note_on_c, 5, 64, 0
10, 22224, Note_on_c, 5, 56, 110
10, 22270, Note_on_c, 5, 56, 0
10, 22272, Note_on_c, 5, 61, 110
10, 22318, Note_on_c, 5, 61, 0
10, 22320, Note_on_c, 5, 63, 110
10, 22366, Note_on_c, 5, 63, 0
10, 22368, Note_on_c, 5, 64, 110
10, 22528, Note_on_c, 5, 64, 0
10, 22608, Note_on_c, 5, 56, 110
10, 22654, Note_on_c, 5, 56, 0
10, 22656, Note_on_c, 5, 61, 110
10, 22702, Note_on_c, 5, 61, 0
10, 22704, Note_on_c, 5, 63, 110
10, 22750, Note_on_c, 5, 63, 0
10, 22752, Note_on_c, 5, 64, 110
10, 22912, Note_on_c, 5, 64, 0
10, 22992, Note_on_c, 5, 59, 110
10, 23038, Note_on_c, 5, 59, 0
10, 23040, Note_on_c, 5, 59, 110
10, 23086, Note_on_c, 5, 59, 0
10, 23088, Note_on_c, 5, 61, 110
10, 23134, Note_on_c, 5, 61, 0
10, 23136, Note_on_c, 5, 63, 110
10, 23296, Note_on_c, 5, 63, 0
10, 23376, Note_on_c, 5, 56, 110
10, 23422, Note_on_c, 5, 56, 0
10, 23424, Note_on_c, 5, 59, 110
10, 23470, Note_on_c, 5, 59, 0
10, 23472, Note_on_c, 5, 61, 110
10, 23518, Note_on_c, 5, 61, 0
10, 23520, Note_on_c, 5, 63, 110
10, 23680, Note_on_c, 5, 63, 0
10, 23760, Note_on_c, 5, 56, 110
10, 23806, Note_on_c, 5, 56, 0
10, 23808, Note_on_c, 5, 59, 110
10, 23854, Note_on_c, 5, 59, 0
10, 23856, Note_on_c, 5, 61, 110
10, 23902, Note_on_c, 5, 61, 0
10, 23904, Note_on_c, 5, 63, 110
10, 24064, Note_on_c, 5, 63, 0
10, 24144, Note_on_c, 5, 56, 110
10, 24190, Note_on_c, 5, 56, 0
10, 24192, Note_on_c, 5, 59, 110
10, 24238, Note_on_c, 5, 59, 0
10, 24240, Note_on_c, 5, 61, 110
10, 24286, Note_on_c, 5, 61, 0
10, 24288, Note_on_c, 5, 63, 110
10, 24382, Note_on_c, 5, 63, 0
10, 24384, Note_on_c, 5, 66, 110
10, 24478, Note_on_c, 5, 66, 0
10, 24480, Note_on_c, 5, 64, 110
10, 24574, Note_on_c, 5, 64, 0
10, 24576, Note_on_c, 5, 49, 110
10, 24576, Note_on_c, 5, 61, 110
10, 24622, Note_on_c, 5, 49, 0
10, 24622, Note_on_c, 5, 61, 0
10, 24672, Note_on_c, 5, 49, 110
10, 24672, Note_on_c, 5, 61, 110
10, 24718, Note_on_c, 5, 49, 0
10, 24718, Note_on_c, 5, 61, 0
10, 24720, Note_on_c, 5, 52, 110
10, 24720, Note_on_c, 5, 64, 110
10, 24766, Note_on_c, 5, 52, 0
10, 24766, Note_on_c, 5, 64, 0
10, 24816, Note_on_c, 5, 52, 110
10, 24816, Note_on_c, 5, 64, 110
10, 24862, Note_on_c, 5, 52, 0
10, 24862, Note_on_c, 5, 64, 0
10, 24864, Note_on_c, 5, 56, 110
10, 24864, Note_on_c, 5, 68, 110
10, 25680, Note_on_c, 5, 56, 0
10, 25680, Note_on_c, 5, 68, 0
10, 25728, Note_on_c, 5, 52, 110
10, 25728, Note_on_c, 5, 64, 110
10, 25774, Note_on_c, 5, 52, 0
10, 25774, Note_on_c, 5, 64, 0
10, 25776, Note_on_c, 5, 52, 110
10, 25776, Note_on_c, 5, 64, 110
10, 25822, Note_on_c, 5, 52, 0
10, 25822, Note_on_c, 5, 64, 0
10, 25824, Note_on_c, 5, 52, 110
10, 25824, Note_on_c, 5, 64, 110
10, 25918, Note_on_c, 5, 52, 0
10, 25918, Note_on_c, 5, 64, 0
10, 25920, Note_on_c, 5, 52, 110
10, 25920, Note_on_c, 5, 64, 110
10, 26014, Note_on_c, 5, 52, 0
10, 26014, Note_on_c, 5, 64, 0
10, 26016, Note_on_c, 5, 52, 110
10, 26016, Note_on_c, 5, 64, 110
10, 26062, Note_on_c, 5, 52, 0
10, 26062, Note_on_c, 5, 64, 0
10, 26064, Note_on_c, 5, 52, 110
10, 26064, Note_on_c, 5, 64, 110
10, 26158, Note_on_c, 5, 52, 0
10, 26158, Note_on_c, 5, 64, 0
10, 26160, Note_on_c, 5, 51, 110
10, 26160, Note_on_c, 5, 63, 110
10, 26206, Note_on_c, 5, 51, 0
10, 26206, Note_on_c, 5, 63, 0
10, 26208, Note_on_c, 5, 51, 110
10, 26208, Note_on_c, 5, 63, 110
10, 26464, Note_on_c, 5, 51, 0
10, 26464, Note_on_c, 5, 63, 0
10, 26496, Note_on_c, 5, 54, 110
10, 26496, Note_on_c, 5, 66, 110
10, 26542, Note_on_c, 5, 54, 0
10, 26542, Note_on_c, 5, 66, 0
10, 26544, Note_on_c, 5, 54, 110
10, 26544, Note_on_c, 5, 66, 110
10, 26590, Note_on_c, 5, 54, 0
10, 26590, Note_on_c, 5, 66, 0
10, 26592, Note_on_c, 5, 54, 110
10, 26592, Note_on_c, 5, 66, 110
10, 26686, Note_on_c, 5, 54, 0
10, 26686, Note_on_c, 5, 66, 0
10, 26688, Note_on_c, 5, 54, 110
10, 26688, Note_on_c, 5, 66, 110
10, 26782, Note_on_c, 5, 54, 0
10, 26782, Note_on_c, 5, 66, 0
10, 26784, Note_on_c, 5, 54, 110
10, 26784, Note_on_c, 5, 66, 110
10, 26830, Note_on_c, 5, 54, 0
10, 26830, Note_on_c, 5, 66, 0
10, 26832, Note_on_c, 5, 54, 110
10, 26832, Note_on_c, 5, 66, 110
10, 26926, Note_on_c, 5, 54, 0
10, 26926, Note_on_c, 5, 66, 0
10, 26928, Note_on_c, 5, 51, 110
10, 26928, Note_on_c, 5, 63, 110
10, 26974, Note_on_c, 5, 51, 0
10, 26974, Note_on_c, 5, 63, 0
10, 26976, Note_on_c, 5, 51, 110
10, 26976, Note_on_c, 5, 63, 110
10, 27070, Note_on_c, 5, 51, 0
10, 27070, Note_on_c, 5, 63, 0
10, 27120, Note_on_c, 5, 54, 110
10, 27120, Note_on_c, 5, 66, 110
10, 27214, Note_on_c, 5, 54, 0
10, 27214, Note_on_c, 5, 66, 0
10, 27216, Note_on_c, 5, 51, 110
10, 27216, Note_on_c, 5, 63, 110
10, 27262, Note_on_c, 5, 51, 0
10, 27262, Note_on_c, 5, 63, 0
10, 27264, Note_on_c, 5, 51, 110
10, 27264, Note_on_c, 5, 63, 110
10, 27358, Note_on_c, 5, 51, 0
10, 27358, Note_on_c, 5, 63, 0
10, 27552, Note_on_c, 5, 44, 110
10, 27552, Note_on_c, 5, 56, 110
10, 27598, Note_on_c, 5, 44, 0
10, 27598, Note_on_c, 5, 56, 0
10, 27600, Note_on_c, 5, 44, 110
10, 27600, Note_on_c, 5, 56, 110
10, 27646, Note_on_c, 5, 44, 0
10, 27646, Note_on_c, 5, 56, 0
10, 27648, Note_on_c, 5, 49, 110
10, 27648, Note_on_c, 5, 61, 110
10, 27694, Note_on_c, 5, 49, 0
10, 27694, Note_on_c, 5, 61, 0
10, 27744, Note_on_c, 5, 49, 110
10, 27744, Note_on_c, 5, 61, 110
10, 27790, Note_on_c, 5, 49, 0
10, 27790, Note_on_c, 5, 61, 0
10, 27792, Note_on_c, 5, 52, 110
10, 27792, Note_on_c, 5, 64, 110
10, 27838, Note_on_c, 5, 52, 0
10, 27838, Note_on_c, 5, 64, 0
10, 27888, Note_on_c, 5, 52, 110
10, 27888, Note_on_c, 5, 64, 110
10, 27934, Note_on_c, 5, 52, 0
10, 27934, Note_on_c, 5, 64, 0
10, 27936, Note_on_c, 5, 56, 110
10, 27936, Note_on_c, 5, 68, 110
10, 28752, Note_on_c, 5, 56, 0
10, 28752, Note_on_c, 5, 68, 0
10, 28800, Note_on_c, 5, 52, 110
10, 28800, Note_on_c, 5, 64, 110
10, 28846, Note_on_c, 5, 52, 0
10, 28846, Note_on_c, 5, 64, 0
10, 28848, Note_on_c, 5, 52, 110
10, 28848, Note_on_c, 5, 64, 110
10, 28894, Note_on_c, 5, 52, 0
10, 28894, Note_on_c, 5, 64, 0
10, 28896, Note_on_c, 5, 52, 110
10, 28896, Note_on_c, 5, 64, 110
10, 28990, Note_on_c, 5, 52, 0
10, 28990, Note_on_c, 5, 64, 0
10, 28992, Note_on_c, 5, 52, 110
10, 28992, Note_on_c, 5, 64, 110
10, 29086, Note_on_c, 5, 52, 0
10, 29086, Note_on_c, 5, 64, 0
10, 29088, Note_on_c, 5, 52, 110
10, 29088, Note_on_c, 5, 64, 110
10, 29134, Note_on_c, 5, 52, 0
10, 29134, Note_on_c, 5, 64, 0
10, 29136, Note_on_c, 5, 52, 110
10, 29136, Note_on_c, 5, 64, 110
10, 29230, Note_on_c, 5, 52, 0
10, 29230, Note_on_c, 5, 64, 0
10, 29232, Note_on_c, 5, 51, 110
10, 29232, Note_on_c, 5, 63, 110
10, 29278, Note_on_c, 5, 51, 0
10, 29278, Note_on_c, 5, 63, 0
10, 29280, Note_on_c, 5, 51, 110
10, 29280, Note_on_c, 5, 63, 110
10, 29536, Note_on_c, 5, 51, 0
10, 29536, Note_on_c, 5, 63, 0
10, 29568, Note_on_c, 5, 54, 110
10, 29568, Note_on_c, 5, 66, 110
10, 29614, Note_on_c, 5, 54, 0
10, 29614, Note_on_c, 5, 66, 0
10, 29616, Note_on_c, 5, 54, 110
10, 29616, Note_on_c, 5, 66, 110
10, 29662, Note_on_c, 5, 54, 0
10, 29662, Note_on_c, 5, 66, 0
10, 29664, Note_on_c, 5, 54, 110
10, 29664, Note_on_c, 5, 66, 110
10, 29758, Note_on_c, 5, 54, 0
10, 29758, Note_on_c, 5, 66, 0
10, 29760, Note_on_c, 5, 54, 110
10, 29760, Note_on_c, 5, 66, 110
10, 29854, Note_on_c, 5, 54, 0
10, 29854, Note_on_c, 5, 66, 0
10, 29856, Note_on_c, 5, 54, 110
10, 29856, Note_on_c, 5, 66, 110
10, 29902, Note_on_c, 5, 54, 0
10, 29902, Note_on_c, 5, 66, 0
10, 29904, Note_on_c, 5, 54, 110
10, 29904, Note_on_c, 5, 66, 110
10, 29998, Note_on_c, 5, 54, 0
10, 29998, Note_on_c, 5, 66, 0
10, 30000, Note_on_c, 5, 51, 110
10, 30000, Note_on_c, 5, 63, 110
10, 30046, Note_on_c, 5, 51, 0
10, 30046, Note_on_c, 5, 63, 0
10, 30048, Note_on_c, 5, 51, 110
10, 30048, Note_on_c, 5, 63, 110
10, 30142, Note_on_c, 5, 51, 0
10, 30142, Note_on_c, 5, 63, 0
10, 30192, Note_on_c, 5, 54, 110
10, 30192, Note_on_c, 5, 66, 110
10, 30286, Note_on_c, 5, 54, 0
10, 30286, Note_on_c, 5, 66, 0
10, 30288, Note_on_c, 5, 51, 110
10, 30288, Note_on_c, 5, 63, 110
10, 30334, Note_on_c, 5, 51, 0
10, 30334, Note_on_c, 5, 63, 0
10, 30336, Note_on_c, 5, 51, 110
10, 30336, Note_on_c, 5, 63, 110
10, 30430, Note_on_c, 5, 51, 0
10, 30430, Note_on_c, 5, 63, 0
10, 30624, Note_on_c, 5, 44, 110
10, 30624, Note_on_c, 5, 56, 110
10, 30670, Note_on_c, 5, 44, 0
10, 30670, Note_on_c, 5, 56, 0
10, 30672, Note_on_c, 5, 44, 110
10, 30672, Note_on_c, 5, 56, 110
10, 30718, Note_on_c, 5, 44, 0
10, 30718, Note_on_c, 5, 56, 0
10, 30720, Note_on_c, 5, 49, 110
10, 30720, Note_on_c, 5, 61, 110
10, 30766, Note_on_c, 5, 49, 0
10, 30766, Note_on_c, 5, 61, 0
10, 30768, Note_on_c, 5, 49, 110
10, 30768, Note_on_c, 5, 61, 110
10, 30814, Note_on_c, 5, 49, 0
10, 30814, Note_on_c, 5, 61, 0
10, 30816, Note_on_c, 5, 52, 110
10, 30816, Note_on_c, 5, 64, 110
10, 30862, Note_on_c, 5, 52, 0
10, 30862, Note_on_c, 5, 64, 0
10, 30864, Note_on_c, 5, 52, 110
10, 30864, Note_on_c, 5, 64, 110
10, 30910, Note_on_c, 5, 52, 0
10, 30910, Note_on_c, 5, 64, 0
10, 30960, Note_on_c, 5, 54, 110
10, 30960, Note_on_c, 5, 66, 110
10, 31006, Note_on_c, 5, 54, 0
10, 31006, Note_on_c, 5, 66, 0
10, 31056, Note_on_c, 5, 52, 110
10, 31056, Note_on_c, 5, 64, 110
10, 31102, Note_on_c, 5, 52, 0
10, 31102, Note_on_c, 5, 64, 0
10, 31104, Note_on_c, 5, 49, 110
10, 31104, Note_on_c, 5, 61, 110
10, 31150, Note_on_c, 5, 49, 0
10, 31150, Note_on_c, 5, 61, 0
10, 31152, Note_on_c, 5, 49, 110
10, 31152, Note_on_c, 5, 61, 110
10, 31198, Note_on_c, 5, 49, 0
10, 31198, Note_on_c, 5, 61, 0
10, 31248, Note_on_c, 5, 52, 110
10, 31248, Note_on_c, 5, 64, 110
10, 31294, Note_on_c, 5, 52, 0
10, 31294, Note_on_c, 5, 64, 0
10, 31392, Note_on_c, 5, 44, 110
10, 31392, Note_on_c, 5, 56, 110
10, 31438, Note_on_c, 5, 44, 0
10, 31438, Note_on_c, 5, 56, 0
10, 31440, Note_on_c, 5, 44, 110
10, 31440, Note_on_c, 5, 56, 110
10, 31486, Note_on_c, 5, 44, 0
10, 31486, Note_on_c, 5, 56, 0
10, 31488, Note_on_c, 5, 49, 110
10, 31488, Note_on_c, 5, 61, 110
10, 31534, Note_on_c, 5, 49, 0
10, 31534, Note_on_c, 5, 61, 0
10, 31536, Note_on_c, 5, 49, 110
10, 31536, Note_on_c, 5, 61, 110
10, 31582, Note_on_c, 5, 49, 0
10, 31582, Note_on_c, 5, 61, 0
10, 31584, Note_on_c, 5, 49, 110
10, 31584, Note_on_c, 5, 61, 110
10, 31630, Note_on_c, 5, 49, 0
10, 31630, Note_on_c, 5, 61, 0
10, 31632, Note_on_c, 5, 52, 110
10, 31632, Note_on_c, 5, 64, 110
10, 31678, Note_on_c, 5, 52, 0
10, 31678, Note_on_c, 5, 64, 0
10, 31680, Note_on_c, 5, 54, 110
10, 31680, Note_on_c, 5, 66, 110
10, 31726, Note_on_c, 5, 54, 0
10, 31726, Note_on_c, 5, 66, 0
10, 31776, Note_on_c, 5, 52, 110
10, 31776, Note_on_c, 5, 64, 110
10, 31822, Note_on_c, 5, 52, 0
10, 31822, Note_on_c, 5, 64, 0
10, 31872, Note_on_c, 5, 49, 110
10, 31872, Note_on_c, 5, 61, 110
10, 31918, Note_on_c, 5, 49, 0
10, 31918, Note_on_c, 5, 61, 0
10, 31920, Note_on_c, 5, 49, 110
10, 31920, Note_on_c, 5, 61, 110
10, 31966, Note_on_c, 5, 49, 0
10, 31966, Note_on_c, 5, 61, 0
10, 31968, Note_on_c, 5, 49, 110
10, 31968, Note_on_c, 5, 61, 110
10, 32014, Note_on_c, 5, 49, 0
10, 32014, Note_on_c, 5, 61, 0
10, 32016, Note_on_c, 5, 52, 110
10, 32016, Note_on_c, 5, 64, 110
10, 32062, Note_on_c, 5, 52, 0
10, 32062, Note_on_c, 5, 64, 0
10, 32064, Note_on_c, 5, 54, 110
10, 32064, Note_on_c, 5, 66, 110
10, 32110, Note_on_c, 5, 54, 0
10, 32110, Note_on_c, 5, 66, 0
10, 32160, Note_on_c, 5, 52, 110
10, 32160, Note_on_c, 5, 64, 110
10, 32206, Note_on_c, 5, 52, 0
10, 32206, Note_on_c, 5, 64, 0
10, 32256, Note_on_c, 5, 63, 110
10, 32416, Note_on_c, 5, 63, 0
10, 32640, Note_on_c, 5, 63, 110
10, 32800, Note_on_c, 5, 63, 0
10, 33024, Note_on_c, 5, 66, 110
10, 33184, Note_on_c, 5, 66, 0
10, 33408, Note_on_c, 5, 63, 110
10, 33568, Note_on_c, 5, 63, 0
10, 33696, Note_on_c, 5, 44, 110
10, 33696, Note_on_c, 5, 56, 110
10, 33742, Note_on_c, 5, 44, 0
10, 33742, Note_on_c, 5, 56, 0
10, 33744, Note_on_c, 5, 44, 110
10, 33744, Note_on_c, 5, 56, 110
10, 33790, Note_on_c, 5, 44, 0
10, 33790, Note_on_c, 5, 56, 0
10, 33792, Note_on_c, 5, 49, 110
10, 33792, Note_on_c, 5, 61, 110
10, 33838, Note_on_c, 5, 49, 0
10, 33838, Note_on_c, 5, 61, 0
10, 33840, Note_on_c, 5, 49, 110
10, 33840, Note_on_c, 5, 61, 110
10, 33886, Note_on_c, 5, 49, 0
10, 33886, Note_on_c, 5, 61, 0
10, 33888, Note_on_c, 5, 52, 110
10, 33888, Note_on_c, 5, 64, 110
10, 33934, Note_on_c, 5, 52, 0
10, 33934, Note_on_c, 5, 64, 0
10, 33936, Note_on_c, 5, 52, 110
10, 33936, Note_on_c, 5, 64, 110
10, 33982, Note_on_c, 5, 52, 0
10, 33982, Note_on_c, 5, 64, 0
10, 34032, Note_on_c, 5, 54, 110
10, 34032, Note_on_c, 5, 66, 110
10, 34078, Note_on_c, 5, 54, 0
10, 34078, Note_on_c, 5, 66, 0
10, 34128, Note_on_c, 5, 52, 110
10, 34128, Note_on_c, 5, 64, 110
10, 34174, Note_on_c, 5, 52, 0
10, 34174, Note_on_c, 5, 64, 0
10, 34176, Note_on_c, 5, 49, 110
10, 34176, Note_on_c, 5, 61, 110
10, 34222, Note_on_c, 5, 49, 0
10, 34222, Note_on_c, 5, 61, 0
10, 34224, Note_on_c, 5, 49, 110
10, 34224, Note_on_c, 5, 61, 110
10, 34270, Note_on_c, 5, 49, 0
10, 34270, Note_on_c, 5, 61, 0
10, 34320, Note_on_c, 5, 52, 110
10, 34320, Note_on_c, 5, 64, 110
10, 34366, Note_on_c, 5, 52, 0
10, 34366, Note_on_c, 5, 64, 0
10, 34464, Note_on_c, 5, 44, 110
10, 34464, Note_on_c, 5, 56, 110
10, 34510, Note_on_c, 5, 44, 0
10, 34510, Note_on_c, 5, 56, 0
10, 34512, Note_on_c, 5, 44, 110
10, 34512, Note_on_c, 5, 56, 110
10, 34558, Note_on_c, 5, 44, 0
10, 34558, Note_on_c, 5, 56, 0
10, 34560, Note_on_c, 5, 49, 110
10, 34560, Note_on_c, 5, 61, 110
10, 34606, Note_on_c, 5, 49, 0
10, 34606, Note_on_c, 5, 61, 0
10, 34608, Note_on_c, 5, 49, 110
10, 34608, Note_on_c, 5, 61, 110
10, 34654, Note_on_c, 5, 49, 0
10, 34654, Note_on_c, 5, 61, 0
10, 34656, Note_on_c, 5, 49, 110
10, 34656, Note_on_c, 5, 61, 110
10, 34702, Note_on_c, 5, 49, 0
10, 34702, Note_on_c, 5, 61, 0
10, 34704, Note_on_c, 5, 52, 110
10, 34704, Note_on_c, 5, 64, 110
10, 34750, Note_on_c, 5, 52, 0
10, 34750, Note_on_c, 5, 64, 0
10, 34752, Note_on_c, 5, 54, 110
10, 34752, Note_on_c, 5, 66, 110
10, 34798, Note_on_c, 5, 54, 0
10, 34798, Note_on_c, 5, 66, 0
10, 34848, Note_on_c, 5, 52, 110
10, 34848, Note_on_c, 5, 64, 110
10, 34894, Note_on_c, 5, 52, 0
10, 34894, Note_on_c, 5, 64, 0
10, 34944, Note_on_c, 5, 49, 110
10, 34944, Note_on_c, 5, 61, 110
10, 34990, Note_on_c, 5, 49, 0
10, 34990, Note_on_c, 5, 61, 0
10, 34992, Note_on_c, 5, 49, 110
10, 34992, Note_on_c, 5, 61, 110
10, 35038, Note_on_c, 5, 49, 0
10, 35038, Note_on_c, 5, 61, 0
10, 35040, Note_on_c, 5, 49, 110
10, 35040, Note_on_c, 5, 61, 110
10, 35086, Note_on_c, 5, 49, 0
10, 35086, Note_on_c, 5, 61, 0
10, 35088, Note_on_c, 5, 52, 110
10, 35088, Note_on_c, 5, 64, 110
10, 35134, Note_on_c, 5, 52, 0
10, 35134, Note_on_c, 5, 64, 0
10, 35136, Note_on_c, 5, 54, 110
10, 35136, Note_on_c, 5, 66, 110
10, 35182, Note_on_c, 5, 54, 0
10, 35182, Note_on_c, 5, 66, 0
10, 35232, Note_on_c, 5, 52, 110
10, 35232, Note_on_c, 5, 64, 110
10, 35278, Note_on_c, 5, 52, 0
10, 35278, Note_on_c, 5, 64, 0
10, 35328, Note_on_c, 5, 63, 110
10, 35488, Note_on_c, 5, 63, 0
10, 35712, Note_on_c, 5, 63, 110
10, 35872, Note_on_c, 5, 63, 0
10, 36096, Note_on_c, 5, 66, 110
10, 36256, Note_on_c, 5, 66, 0
10, 36480, Note_on_c, 5, 66, 110
10, 36640, Note_on_c, 5, 66, 0
10, 36768, Note_on_c, 5, 44, 110
10, 36768, Note_on_c, 5, 56, 110
10, 36814, Note_on_c, 5, 44, 0
10, 36814, Note_on_c, 5, 56, 0
10, 36816, Note_on_c, 5, 44, 110
10, 36816, Note_on_c, 5, 56, 110
10, 36862, Note_on_c, 5, 44, 0
10, 36862, Note_on_c, 5, 56, 0
10, 36864, Note_on_c, 5, 49, 110
10, 36864, Note_on_c, 5, 61, 110
10, 36910, Note_on_c, 5, 49, 0
10, 36910, Note_on_c, 5, 61, 0
10, 36960, Note_on_c, 5, 49, 110
10, 36960, Note_on_c, 5, 61, 110
10, 37006, Note_on_c, 5, 49, 0
10, 37006, Note_on_c, 5, 61, 0
10, 37008, Note_on_c, 5, 52, 110
10, 37008, Note_on_c, 5, 64, 110
10, 37054, Note_on_c, 5, 52, 0
10, 37054, Note_on_c, 5, 64, 0
10, 37104, Note_on_c, 5, 52, 110
10, 37104, Note_on_c, 5, 64, 110
10, 37150, Note_on_c, 5, 52, 0
10, 37150, Note_on_c, 5, 64, 0
10, 37152, Note_on_c, 5, 56, 110
10, 37152, Note_on_c, 5, 68, 110
10, 37968, Note_on_c, 5, 56, 0
10, 37968, Note_on_c, 5, 68, 0
10, 38016, Note_on_c, 5, 52, 110
10, 38016, Note_on_c, 5, 64, 110
10, 38062, Note_on_c, 5, 52, 0
10, 38062, Note_on_c, 5, 64, 0
10, 38064, Note_on_c, 5, 52, 110
10, 38064, Note_on_c, 5, 64, 110
10, 38110, Note_on_c, 5, 52, 0
10, 38110, Note_on_c, 5, 64, 0
10, 38112, Note_on_c, 5, 52, 110
10, 38112, Note_on_c, 5, 64, 110
10, 38206, Note_on_c, 5, 52, 0
10, 38206, Note_on_c, 5, 64, 0
10, 38208, Note_on_c, 5, 52, 110
10, 38208, Note_on_c, 5, 64, 110
10, 38302, Note_on_c, 5, 52, 0
10, 38302, Note_on_c, 5, 64, 0
10, 38304, Note_on_c, 5, 52, 110
10, 38304, Note_on_c, 5, 64, 110
10, 38350, Note_on_c, 5, 52, 0
10, 38350, Note_on_c, 5, 64, 0
10, 38352, Note_on_c, 5, 52, 110
10, 38352, Note_on_c, 5, 64, 110
10, 38446, Note_on_c, 5, 52, 0
10, 38446, Note_on_c, 5, 64, 0
10, 38448, Note_on_c, 5, 51, 110
10, 38448, Note_on_c, 5, 63, 110
10, 38494, Note_on_c, 5, 51, 0
10, 38494, Note_on_c, 5, 63, 0
10, 38496, Note_on_c, 5, 51, 110
10, 38496, Note_on_c, 5, 63, 110
10, 38752, Note_on_c, 5, 51, 0
10, 38752, Note_on_c, 5, 63, 0
10, 38784, Note_on_c, 5, 54, 110
10, 38784, Note_on_c, 5, 66, 110
10, 38830, Note_on_c, 5, 54, 0
10, 38830, Note_on_c, 5, 66, 0
10, 38832, Note_on_c, 5, 54, 110
10, 38832, Note_on_c, 5, 66, 110
10, 38878, Note_on_c, 5, 54, 0
10, 38878, Note_on_c, 5, 66, 0
10, 38880, Note_on_c, 5, 54, 110
10, 38880, Note_on_c, 5, 66, 110
10, 38974, Note_on_c, 5, 54, 0
10, 38974, Note_on_c, 5, 66, 0
10, 38976, Note_on_c, 5, 54, 110
10, 38976, Note_on_c, 5, 66, 110
10, 39070, Note_on_c, 5, 54, 0
10, 39070, Note_on_c, 5, 66, 0
10, 39072, Note_on_c, 5, 54, 110
10, 39072, Note_on_c, 5, 66, 110
10, 39118, Note_on_c, 5, 54, 0
10, 39118, Note_on_c, 5, 66, 0
10, 39120, Note_on_c, 5, 54, 110
10, 39120, Note_on_c, 5, 66, 110
10, 39214, Note_on_c, 5, 54, 0
10, 39214, Note_on_c, 5, 66, 0
10, 39216, Note_on_c, 5, 51, 110
10, 39216, Note_on_c, 5, 63, 110
10, 39262, Note_on_c, 5, 51, 0
10, 39262, Note_on_c, 5, 63, 0
10, 39264, Note_on_c, 5, 51, 110
10, 39264, Note_on_c, 5, 63, 110
10, 39358, Note_on_c, 5, 51, 0
10, 39358, Note_on_c, 5, 63, 0
10, 39408, Note_on_c, 5, 54, 110
10, 39408, Note_on_c, 5, 66, 110
10, 39502, Note_on_c, 5, 54, 0
10, 39502, Note_on_c, 5, 66, 0
10, 39504, Note_on_c, 5, 51, 110
10, 39504, Note_on_c, 5, 63, 110
10, 39550, Note_on_c, 5, 51, 0
10, 39550, Note_on_c, 5, 63, 0
10, 39552, Note_on_c, 5, 51, 110
10, 39552, Note_on_c, 5, 63, 110
10, 39646, Note_on_c, 5, 51, 0
10, 39646, Note_on_c, 5, 63, 0
10, 39840, Note_on_c, 5, 44, 110
10, 39840, Note_on_c, 5, 56, 110
10, 39886, Note_on_c, 5, 44, 0
10, 39886, Note_on_c, 5, 56, 0
10, 39888, Note_on_c, 5, 44, 110
10, 39888, Note_on_c, 5, 56, 110
10, 39934, Note_on_c, 5, 44, 0
10, 39934, Note_on_c, 5, 56, 0
10, 39936, Note_on_c, 5, 49, 110
10, 39936, Note_on_c, 5, 61, 110
10, 39982, Note_on_c, 5, 49, 0
10, 39982, Note_on_c, 5, 61, 0
10, 40032, Note_on_c, 5, 49, 110
10, 40032, Note_on_c, 5, 61, 110
10, 40078, Note_on_c, 5, 49, 0
10, 40078, Note_on_c, 5, 61, 0
10, 40080, Note_on_c, 5, 52, 110
10, 40080, Note_on_c, 5, 64, 110
10, 40126, Note_on_c, 5, 52, 0
10, 40126, Note_on_c, 5, 64, 0
10, 40176, Note_on_c, 5, 52, 110
10, 40176, Note_on_c, 5, 64, 110
10, 40222, Note_on_c, 5, 52, 0
10, 40222, Note_on_c, 5, 64, 0
10, 40224, Note_on_c, 5, 56, 110
10, 40224, Note_on_c, 5, 68, 110
10, 41040, Note_on_c, 5, 56, 0
10, 41040, Note_on_c, 5, 68, 0
10, 41088, Note_on_c, 5, 52, 110
10, 41088, Note_on_c, 5, 64, 110
10, 41134, Note_on_c, 5, 52, 0
10, 41134, Note_on_c, 5, 64, 0
10, 41136, Note_on_c, 5, 52, 110
10, 41136, Note_on_c, 5, 64, 110
10, 41182, Note_on_c, 5, 52, 0
10, 41182, Note_on_c, 5, 64, 0
10, 41184, Note_on_c, 5, 52, 110
10, 41184, Note_on_c, 5, 64, 110
10, 41278, Note_on_c, 5, 52, 0
10, 41278, Note_on_c, 5, 64, 0
10, 41280, Note_on_c, 5, 52, 110
10, 41280, Note_on_c, 5, 64, 110
10, 41374, Note_on_c, 5, 52, 0
10, 41374, Note_on_c, 5, 64, 0
10, 41376, Note_on_c, 5, 52, 110
10, 41376, Note_on_c, 5, 64, 110
10, 41422, Note_on_c, 5, 52, 0
10, 41422, Note_on_c, 5, 64, 0
10, 41424, Note_on_c, 5, 52, 110
10, 41424, Note_on_c, 5, 64, 110
10, 41518, Note_on_c, 5, 52, 0
10, 41518, Note_on_c, 5, 64, 0
10, 41520, Note_on_c, 5, 51, 110
10, 41520, Note_on_c, 5, 63, 110
10, 41566, Note_on_c, 5, 51, 0
10, 41566, Note_on_c, 5, 63, 0
10, 41568, Note_on_c, 5, 51, 110
10, 41568, Note_on_c, 5, 63, 110
10, 41824, Note_on_c, 5, 51, 0
10, 41824, Note_on_c, 5, 63, 0
10, 41856, Note_on_c, 5, 54, 110
10, 41856, Note_on_c, 5, 66, 110
10, 41902, Note_on_c, 5, 54, 0
10, 41902, Note_on_c, 5, 66, 0
10, 41904, Note_on_c, 5, 54, 110
10, 41904, Note_on_c, 5, 66, 110
10, 41950, Note_on_c, 5, 54, 0
10, 41950, Note_on_c, 5, 66, 0
10, 41952, Note_on_c, 5, 54, 110
10, 41952, Note_on_c, 5, 66, 110
10, 42046, Note_on_c, 5, 54, 0
10, 42046, Note_on_c, 5, 66, 0
10, 42048, Note_on_c, 5, 54, 110
10, 42048, Note_on_c, 5, 66, 110
10, 42142, Note_on_c, 5, 54, 0
10, 42142, Note_on_c, 5, 66, 0
10, 42144, Note_on_c, 5, 54, 110
10, 42144, Note_on_c, 5, 66, 110
10, 42190, Note_on_c, 5, 54, 0
10, 42190, Note_on_c, 5, 66, 0
10, 42192, Note_on_c, 5, 54, 110
10, 42192, Note_on_c, 5, 66, 110
10, 42286, Note_on_c, 5, 54, 0
10, 42286, Note_on_c, 5, 66, 0
10, 42288, Note_on_c, 5, 51, 110
10, 42288, Note_on_c, 5, 63, 110
10, 42334, Note_on_c, 5, 51, 0
10, 42334, Note_on_c, 5, 63, 0
10, 42336, Note_on_c, 5, 51, 110
10, 42336, Note_on_c, 5, 63, 110
10, 42430, Note_on_c, 5, 51, 0
10, 42430, Note_on_c, 5, 63, 0
10, 42480, Note_on_c, 5, 54, 110
10, 42480, Note_on_c, 5, 66, 110
10, 42574, Note_on_c, 5, 54, 0
10, 42574, Note_on_c, 5, 66, 0
10, 42576, Note_on_c, 5, 51, 110
10, 42576, Note_on_c, 5, 63, 110
10, 42622, Note_on_c, 5, 51, 0
10, 42622, Note_on_c, 5, 63, 0
10, 42624, Note_on_c, 5, 51, 110
10, 42624, Note_on_c, 5, 63, 110
10, 42718, Note_on_c, 5, 51, 0
10, 42718, Note_on_c, 5, 63, 0
10, 49056, Note_on_c, 5, 44, 110
10, 49056, Note_on_c, 5, 56, 110
10, 49102, Note_on_c, 5, 44, 0
10, 49102, Note_on_c, 5, 56, 0
10, 49104, Note_on_c, 5, 44, 110
10, 49104, Note_on_c, 5, 56, 110
10, 49150, Note_on_c, 5, 44, 0
10, 49150, Note_on_c, 5, 56, 0
10, 49152, Note_on_c, 5, 49, 110
10, 49152, Note_on_c, 5, 61, 110
10, 49198, Note_on_c, 5, 49, 0
10, 49198, Note_on_c, 5, 61, 0
10, 49248, Note_on_c, 5, 49, 110
10, 49248, Note_on_c, 5, 61, 110
10, 49294, Note_on_c, 5, 49, 0
10, 49294, Note_on_c, 5, 61, 0
10, 49296, Note_on_c, 5, 52, 110
10, 49296, Note_on_c, 5, 64, 110
10, 49342, Note_on_c, 5, 52, 0
10, 49342, Note_on_c, 5, 64, 0
10, 49392, Note_on_c, 5, 52, 110
10, 49392, Note_on_c, 5, 64, 110
10, 49438, Note_on_c, 5, 52, 0
10, 49438, Note_on_c, 5, 64, 0
10, 49440, Note_on_c, 5, 56, 110
10, 49440, Note_on_c, 5, 68, 110
10, 50256, Note_on_c, 5, 56, 0
10, 50256, Note_on_c, 5, 68, 0
10, 50304, Note_on_c, 5, 52, 110
10, 50304, Note_on_c, 5, 64, 110
10, 50350, Note_on_c, 5, 52, 0
10, 50350, Note_on_c, 5, 64, 0
10, 50352, Note_on_c, 5, 52, 110
10, 50352, Note_on_c, 5, 64, 110
10, 50398, Note_on_c, 5, 52, 0
10, 50398, Note_on_c, 5, 64, 0
10, 50400, Note_on_c, 5, 52, 110
10, 50400, Note_on_c, 5, 64, 110
10, 50494, Note_on_c, 5, 52, 0
10, 50494, Note_on_c, 5, 64, 0
10, 50496, Note_on_c, 5, 52, 110
10, 50496, Note_on_c, 5, 64, 110
10, 50590, Note_on_c, 5, 52, 0
10, 50590, Note_on_c, 5, 64, 0
10, 50592, Note_on_c, 5, 52, 110
10, 50592, Note_on_c, 5, 64, 110
10, 50638, Note_on_c, 5, 52, 0
10, 50638, Note_on_c, 5, 64, 0
10, 50640, Note_on_c, 5, 52, 110
10, 50640, Note_on_c, 5, 64, 110
10, 50734, Note_on_c, 5, 52, 0
10, 50734, Note_on_c, 5, 64, 0
10, 50736, Note_on_c, 5, 51, 110
10, 50736, Note_on_c, 5, 63, 110
10, 50782, Note_on_c, 5, 51, 0
10, 50782, Note_on_c, 5, 63, 0
10, 50784, Note_on_c, 5, 51, 110
10, 50784, Note_on_c, 5, 63, 110
10, 51040, Note_on_c, 5, 51, 0
10, 51040, Note_on_c, 5, 63, 0
10, 51072, Note_on_c, 5, 54, 110
10, 51072, Note_on_c, 5, 66, 110
10, 51118, Note_on_c, 5, 54, 0
10, 51118, Note_on_c, 5, 66, 0
10, 51120, Note_on_c, 5, 54, 110
10, 51120, Note_on_c, 5, 66, 110
10, 51166, Note_on_c, 5, 54, 0
10, 51166, Note_on_c, 5, 66, 0
10, 51168, Note_on_c, 5, 54, 110
10, 51168, Note_on_c, 5, 66, 110
10, 51262, Note_on_c, 5, 54, 0
10, 51262, Note_on_c, 5, 66, 0
10, 51264, Note_on_c, 5, 54, 110
10, 51264, Note_on_c, 5, 66, 110
10, 51358, Note_on_c, 5, 54, 0
10, 51358, Note_on_c, 5, 66, 0
10, 51360, Note_on_c, 5, 54, 110
10, 51360, Note_on_c, 5, 66, 110
10, 51406, Note_on_c, 5, 54, 0
10, 51406, Note_on_c, 5, 66, 0
10, 51408, Note_on_c, 5, 54, 110
10, 51408, Note_on_c, 5, 66, 110
10, 51502, Note_on_c, 5, 54, 0
10, 51502, Note_on_c, 5, 66, 0
10, 51504, Note_on_c, 5, 51, 110
10, 51504, Note_on_c, 5, 63, 110
10, 51550, Note_on_c, 5, 51, 0
10, 51550, Note_on_c, 5, 63, 0
10, 51552, Note_on_c, 5, 51, 110
10, 51552, Note_on_c, 5, 63, 110
10, 51646, Note_on_c, 5, 51, 0
10, 51646, Note_on_c, 5, 63, 0
10, 51696, Note_on_c, 5, 54, 110
10, 51696, Note_on_c, 5, 66, 110
10, 51790, Note_on_c, 5, 54, 0
10, 51790, Note_on_c, 5, 66, 0
10, 51792, Note_on_c, 5, 51, 110
10, 51792, Note_on_c, 5, 63, 110
10, 51838, Note_on_c, 5, 51, 0
10, 51838, Note_on_c, 5, 63, 0
10, 51840, Note_on_c, 5, 51, 110
10, 51840, Note_on_c, 5, 63, 110
10, 51934, Note_on_c, 5, 51, 0
10, 51934, Note_on_c, 5, 63, 0
10, 52128, Note_on_c, 5, 44, 110
10, 52128, Note_on_c, 5, 56, 110
10, 52174, Note_on_c, 5, 44, 0
10, 52174, Note_on_c, 5, 56, 0
10, 52176, Note_on_c, 5, 44, 110
10, 52176, Note_on_c, 5, 56, 110
10, 52222, Note_on_c, 5, 44, 0
10, 52222, Note_on_c, 5, 56, 0
10, 52224, Note_on_c, 5, 49, 110
10, 52224, Note_on_c, 5, 61, 110
10, 52270, Note_on_c, 5, 49, 0
10, 52270, Note_on_c, 5, 61, 0
10, 52320, Note_on_c, 5, 49, 110
10, 52320, Note_on_c, 5, 61, 110
10, 52366, Note_on_c, 5, 49, 0
10, 52366, Note_on_c, 5, 61, 0
10, 52368, Note_on_c, 5, 52, 110
10, 52368, Note_on_c, 5, 64, 110
10, 52414, Note_on_c, 5, 52, 0
10, 52414, Note_on_c, 5, 64, 0
10, 52464, Note_on_c, 5, 52, 110
10, 52464, Note_on_c, 5, 64, 110
10, 52510, Note_on_c, 5, 52, 0
10, 52510, Note_on_c, 5, 64, 0
10, 52512, Note_on_c, 5, 56, 110
10, 52512, Note_on_c, 5, 68, 110
10, 53328, Note_on_c, 5, 56, 0
10, 53328, Note_on_c, 5, 68, 0
10, 53376, Note_on_c, 5, 52, 110
10, 53376, Note_on_c, 5, 64, 110
10, 53422, Note_on_c, 5, 52, 0
10, 53422, Note_on_c, 5, 64, 0
10, 53424, Note_on_c, 5, 52, 110
10, 53424, Note_on_c, 5, 64, 110
10, 53470, Note_on_c, 5, 52, 0
10, 53470, Note_on_c, 5, 64, 0
10, 53472, Note_on_c, 5, 52, 110
10, 53472, Note_on_c, 5, 64, 110
10, 53566, Note_on_c, 5, 52, 0
10, 53566, Note_on_c, 5, 64, 0
10, 53568, Note_on_c, 5, 52, 110
10, 53568, Note_on_c, 5, 64, 110
10, 53662, Note_on_c, 5, 52, 0
10, 53662, Note_on_c, 5, 64, 0
10, 53664, Note_on_c, 5, 52, 110
10, 53664, Note_on_c, 5, 64, 110
10, 53710, Note_on_c, 5, 52, 0
10, 53710, Note_on_c, 5, 64, 0
10, 53712, Note_on_c, 5, 52, 110
10, 53712, Note_on_c, 5, 64, 110
10, 53806, Note_on_c, 5, 52, 0
10, 53806, Note_on_c, 5, 64, 0
10, 53808, Note_on_c, 5, 51, 110
10, 53808, Note_on_c, 5, 63, 110
10, 53854, Note_on_c, 5, 51, 0
10, 53854, Note_on_c, 5, 63, 0
10, 53856, Note_on_c, 5, 51, 110
10, 53856, Note_on_c, 5, 63, 110
10, 54112, Note_on_c, 5, 51, 0
10, 54112, Note_on_c, 5, 63, 0
10, 54144, Note_on_c, 5, 54, 110
10, 54144, Note_on_c, 5, 66, 110
10, 54190, Note_on_c, 5, 54, 0
10, 54190, Note_on_c, 5, 66, 0
10, 54192, Note_on_c, 5, 54, 110
10, 54192, Note_on_c, 5, 66, 110
10, 54238, Note_on_c, 5, 54, 0
10, 54238, Note_on_c, 5, 66, 0
10, 54240, Note_on_c, 5, 54, 110
10, 54240, Note_on_c, 5, 66, 110
10, 54334, Note_on_c, 5, 54, 0
10, 54334, Note_on_c, 5, 66, 0
10, 54336, Note_on_c, 5, 54, 110
10, 54336, Note_on_c, 5, 66, 110
10, 54430, Note_on_c, 5, 54, 0
10, 54430, Note_on_c, 5, 66, 0
10, 54432, Note_on_c, 5, 54, 110
10, 54432, Note_on_c, 5, 66, 110
10, 54478, Note_on_c, 5, 54, 0
10, 54478, Note_on_c, 5, 66, 0
10, 54480, Note_on_c, 5, 54, 110
10, 54480, Note_on_c, 5, 66, 110
10, 54574, Note_on_c, 5, 54, 0
10, 54574, Note_on_c, 5, 66, 0
10, 54576, Note_on_c, 5, 51, 110
10, 54576, Note_on_c, 5, 63, 110
10, 54622, Note_on_c, 5, 51, 0
10, 54622, Note_on_c, 5, 63, 0
10, 54624, Note_on_c, 5, 51, 110
10, 54624, Note_on_c, 5, 63, 110
10, 54718, Note_on_c, 5, 51, 0
10, 54718, Note_on_c, 5, 63, 0
10, 54768, Note_on_c, 5, 54, 110
10, 54768, Note_on_c, 5, 66, 110
10, 54862, Note_on_c, 5, 54, 0
10, 54862, Note_on_c, 5, 66, 0
10, 54864, Note_on_c, 5, 51, 110
10, 54864, Note_on_c, 5, 63, 110
10, 54910, Note_on_c, 5, 51, 0
10, 54910, Note_on_c, 5, 63, 0
10, 54912, Note_on_c, 5, 51, 110
10, 54912, Note_on_c, 5, 63, 110
10, 55006, Note_on_c, 5, 51, 0
10, 55006, Note_on_c, 5, 63, 0
10, 55200, Note_on_c, 5, 44, 110
10, 55200, Note_on_c, 5, 56, 110
10, 55246, Note_on_c, 5, 44, 0
10, 55246, Note_on_c, 5, 56, 0
10, 55248, Note_on_c, 5, 44, 110
10, 55248, Note_on_c, 5, 56, 110
10, 55294, Note_on_c, 5, 44, 0
10, 55294, Note_on_c, 5, 56, 0
10, 55296, Note_on_c, 5, 49, 110
10, 55296, Note_on_c, 5, 61, 110
10, 55342, Note_on_c, 5, 49, 0
10, 55342, Note_on_c, 5, 61, 0
10, 55392, Note_on_c, 5, 49, 110
10, 55392, Note_on_c, 5, 61, 110
10, 55438, Note_on_c, 5, 49, 0
10, 55438, Note_on_c, 5, 61, 0
10, 55440, Note_on_c, 5, 52, 110
10, 55440, Note_on_c, 5, 64, 110
10, 55486, Note_on_c, 5, 52, 0
10, 55486, Note_on_c, 5, 64, 0
10, 55536, Note_on_c, 5, 52, 110
10, 55536, Note_on_c, 5, 64, 110
10, 55582, Note_on_c, 5, 52, 0
10, 55582, Note_on_c, 5, 64, 0
10, 55584, Note_on_c, 5, 56, 110
10, 55584, Note_on_c, 5, 68, 110
10, 56400, Note_on_c, 5, 56, 0
10, 56400, Note_on_c, 5, 68, 0
10, 56448, Note_on_c, 5, 52, 110
10, 56448, Note_on_c, 5, 64, 110
10, 56494, Note_on_c, 5, 52, 0
10, 56494, Note_on_c, 5, 64, 0
10, 56496, Note_on_c, 5, 52, 110
10, 56496, Note_on_c, 5, 64, 110
10, 56542, Note_on_c, 5, 52, 0
10, 56542, Note_on_c, 5, 64, 0
10, 56544, Note_on_c, 5, 52, 110
10, 56544, Note_on_c, 5, 64, 110
10, 56638, Note_on_c, 5, 52, 0
10, 56638, Note_on_c, 5, 64, 0
10, 56640, Note_on_c, 5, 52, 110
10, 56640, Note_on_c, 5, 64, 110
10, 56734, Note_on_c, 5, 52, 0
10, 56734, Note_on_c, 5, 64, 0
10, 56736, Note_on_c, 5, 52, 110
10, 56736, Note_on_c, 5, 64, 110
10, 56782, Note_on_c, 5, 52, 0
10, 56782, Note_on_c, 5, 64, 0
10, 56784, Note_on_c, 5, 52, 110
10, 56784, Note_on_c, 5, 64, 110
10, 56878, Note_on_c, 5, 52, 0
10, 56878, Note_on_c, 5, 64, 0
10, 56880, Note_on_c, 5, 51, 110
10, 56880, Note_on_c, 5, 63, 110
10, 56926, Note_on_c, 5, 51, 0
10, 56926, Note_on_c, 5, 63, 0
10, 56928, Note_on_c, 5, 51, 110
10, 56928, Note_on_c, 5, 63, 110
10, 57184, Note_on_c, 5, 51, 0
10, 57184, Note_on_c, 5, 63, 0
10, 57216, Note_on_c, 5, 54, 110
10, 57216, Note_on_c, 5, 66, 110
10, 57262, Note_on_c, 5, 54, 0
10, 57262, Note_on_c, 5, 66, 0
10, 57264, Note_on_c, 5, 54, 110
10, 57264, Note_on_c, 5, 66, 110
10, 57310, Note_on_c, 5, 54, 0
10, 57310, Note_on_c, 5, 66, 0
10, 57312, Note_on_c, 5, 54, 110
10, 57312, Note_on_c, 5, 66, 110
10, 57406, Note_on_c, 5, 54, 0
10, 57406, Note_on_c, 5, 66, 0
10, 57408, Note_on_c, 5, 54, 110
10, 57408, Note_on_c, 5, 66, 110
10, 57502, Note_on_c, 5, 54, 0
10, 57502, Note_on_c, 5, 66, 0
10, 57504, Note_on_c, 5, 54, 110
10, 57504, Note_on_c, 5, 66, 110
10, 57550, Note_on_c, 5, 54, 0
10, 57550, Note_on_c, 5, 66, 0
10, 57552, Note_on_c, 5, 54, 110
10, 57552, Note_on_c, 5, 66, 110
10, 57646, Note_on_c, 5, 54, 0
10, 57646, Note_on_c, 5, 66, 0
10, 57648, Note_on_c, 5, 51, 110
10, 57648, Note_on_c, 5, 63, 110
10, 57694, Note_on_c, 5, 51, 0
10, 57694, Note_on_c, 5, 63, 0
10, 57696, Note_on_c, 5, 51, 110
10, 57696, Note_on_c, 5, 63, 110
10, 57790, Note_on_c, 5, 51, 0
10, 57790, Note_on_c, 5, 63, 0
10, 57840, Note_on_c, 5, 54, 110
10, 57840, Note_on_c, 5, 66, 110
10, 57934, Note_on_c, 5, 54, 0
10, 57934, Note_on_c, 5, 66, 0
10, 57936, Note_on_c, 5, 51, 110
10, 57936, Note_on_c, 5, 63, 110
10, 57982, Note_on_c, 5, 51, 0
10, 57982, Note_on_c, 5, 63, 0
10, 57984, Note_on_c, 5, 51, 110
10, 57984, Note_on_c, 5, 63, 110
10, 58078, Note_on_c, 5, 51, 0
10, 58078, Note_on_c, 5, 63, 0
10, 58272, Note_on_c, 5, 44, 110
10, 58272, Note_on_c, 5, 56, 110
10, 58318, Note_on_c, 5, 44, 0
10, 58318, Note_on_c, 5, 56, 0
10, 58320, Note_on_c, 5, 44, 110
10, 58320, Note_on_c, 5, 56, 110
10, 58366, Note_on_c, 5, 44, 0
10, 58366, Note_on_c, 5, 56, 0
10, 58368, Note_on_c, 5, 49, 110
10, 58368, Note_on_c, 5, 61, 110
10, 58414, Note_on_c, 5, 49, 0
10, 58414, Note_on_c, 5, 61, 0
10, 58464, Note_on_c, 5, 49, 110
10, 58464, Note_on_c, 5, 61, 110
10, 58510, Note_on_c, 5, 49, 0
10, 58510, Note_on_c, 5, 61, 0
10, 58512, Note_on_c, 5, 52, 110
10, 58512, Note_on_c, 5, 64, 110
10, 58558, Note_on_c, 5, 52, 0
10, 58558, Note_on_c, 5, 64, 0
10, 58608, Note_on_c, 5, 52, 110
10, 58608, Note_on_c, 5, 64, 110
10, 58654, Note_on_c, 5, 52, 0
10, 58654, Note_on_c, 5, 64, 0
10, 58656, Note_on_c, 5, 56, 110
10, 58656, Note_on_c, 5, 68, 110
10, 59472, Note_on_c, 5, 56, 0
10, 59472, Note_on_c, 5, 68, 0
10, 59520, Note_on_c, 5, 52, 110
10, 59520, Note_on_c, 5, 64, 110
10, 59566, Note_on_c, 5, 52, 0
10, 59566, Note_on_c, 5, 64, 0
10, 59568, Note_on_c, 5, 52, 110
10, 59568, Note_on_c, 5, 64, 110
10, 59614, Note_on_c, 5, 52, 0
10, 59614, Note_on_c, 5, 64, 0
10, 59616, Note_on_c, 5, 52, 110
10, 59616, Note_on_c, 5, 64, 110
10, 59710, Note_on_c, 5, 52, 0
10, 59710, Note_on_c, 5, 64, 0
10, 59712, Note_on_c, 5, 52, 110
10, 59712, Note_on_c, 5, 64, 110
10, 59806, Note_on_c, 5, 52, 0
10, 59806, Note_on_c, 5, 64, 0
10, 59808, Note_on_c, 5, 52, 110
10, 59808, Note_on_c, 5, 64, 110
10, 59854, Note_on_c, 5, 52, 0
10, 59854, Note_on_c, 5, 64, 0
10, 59856, Note_on_c, 5, 52, 110
10, 59856, Note_on_c, 5, 64, 110
10, 59950, Note_on_c, 5, 52, 0
10, 59950, Note_on_c, 5, 64, 0
10, 59952, Note_on_c, 5, 51, 110
10, 59952, Note_on_c, 5, 63, 110
10, 59998, Note_on_c, 5, 51, 0
10, 59998, Note_on_c, 5, 63, 0
10, 60000, Note_on_c, 5, 51, 110
10, 60000, Note_on_c, 5, 63, 110
10, 60256, Note_on_c, 5, 51, 0
10, 60256, Note_on_c, 5, 63, 0
10, 60288, Note_on_c, 5, 54, 110
10, 60288, Note_on_c, 5, 66, 110
10, 60334, Note_on_c, 5, 54, 0
10, 60334, Note_on_c, 5, 66, 0
10, 60336, Note_on_c, 5, 54, 110
10, 60336, Note_on_c, 5, 66, 110
10, 60382, Note_on_c, 5, 54, 0
10, 60382, Note_on_c, 5, 66, 0
10, 60384, Note_on_c, 5, 54, 110
10, 60384, Note_on_c, 5, 66, 110
10, 60478, Note_on_c, 5, 54, 0
10, 60478, Note_on_c, 5, 66, 0
10, 60480, Note_on_c, 5, 54, 110
10, 60480, Note_on_c, 5, 66, 110
10, 60574, Note_on_c, 5, 54, 0
10, 60574, Note_on_c, 5, 66, 0
10, 60576, Note_on_c, 5, 54, 110
10, 60576, Note_on_c, 5, 66, 110
10, 60622, Note_on_c, 5, 54, 0
10, 60622, Note_on_c, 5, 66, 0
10, 60624, Note_on_c, 5, 54, 110
10, 60624, Note_on_c, 5, 66, 110
10, 60718, Note_on_c, 5, 54, 0
10, 60718, Note_on_c, 5, 66, 0
10, 60720, Note_on_c, 5, 51, 110
10, 60720, Note_on_c, 5, 63, 110
10, 60766, Note_on_c, 5, 51, 0
10, 60766, Note_on_c, 5, 63, 0
10, 60768, Note_on_c, 5, 51, 110
10, 60768, Note_on_c, 5, 63, 110
10, 60862, Note_on_c, 5, 51, 0
10, 60862, Note_on_c, 5, 63, 0
10, 60912, Note_on_c, 5, 54, 110
10, 60912, Note_on_c, 5, 66, 110
10, 61006, Note_on_c, 5, 54, 0
10, 61006, Note_on_c, 5, 66, 0
10, 61008, Note_on_c, 5, 51, 110
10, 61008, Note_on_c, 5, 63, 110
10, 61054, Note_on_c, 5, 51, 0
10, 61054, Note_on_c, 5, 63, 0
10, 61056, Note_on_c, 5, 51, 110
10, 61056, Note_on_c, 5, 63, 110
10, 61150, Note_on_c, 5, 51, 0
10, 61150, Note_on_c, 5, 63, 0
10, 61344, Note_on_c, 5, 44, 110
10, 61344, Note_on_c, 5, 56, 110
10, 61390, Note_on_c, 5, 44, 0
10, 61390, Note_on_c, 5, 56, 0
10, 61392, Note_on_c, 5, 44, 110
10, 61392, Note_on_c, 5, 56, 110
10, 61438, Note_on_c, 5, 44, 0
10, 61438, Note_on_c, 5, 56, 0
10, 67488, Note_on_c, 5, 44, 110
10, 67488, Note_on_c, 5, 56, 110
10, 67534, Note_on_c, 5, 44, 0
10, 67534, Note_on_c, 5, 56, 0
10, 67536, Note_on_c, 5, 44, 110
10, 67536, Note_on_c, 5, 56, 110
10, 67582, Note_on_c, 5, 44, 0
10, 67582, Note_on_c, 5, 56, 0
10, 67584, Note_on_c, 5, 49, 110
10, 67584, Note_on_c, 5, 61, 110
10, 67630, Note_on_c, 5, 49, 0
10, 67630, Note_on_c, 5, 61, 0
10, 67680, Note_on_c, 5, 49, 110
10, 67680, Note_on_c, 5, 61, 110
10, 67726, Note_on_c, 5, 49, 0
10, 67726, Note_on_c, 5, 61, 0
10, 67728, Note_on_c, 5, 52, 110
10, 67728, Note_on_c, 5, 64, 110
10, 67774, Note_on_c, 5, 52, 0
10, 67774, Note_on_c, 5, 64, 0
10, 67824, Note_on_c, 5, 52, 110
10, 67824, Note_on_c, 5, 64, 110
10, 67870, Note_on_c, 5, 52, 0
10, 67870, Note_on_c, 5, 64, 0
10, 67872, Note_on_c, 5, 56, 110
10, 67872, Note_on_c, 5, 68, 110
10, 68688, Note_on_c, 5, 56, 0
10, 68688, Note_on_c, 5, 68, 0
10, 68736, Note_on_c, 5, 52, 110
10, 68736, Note_on_c, 5, 64, 110
10, 68782, Note_on_c, 5, 52, 0
10, 68782, Note_on_c, 5, 64, 0
10, 68784, Note_on_c, 5, 52, 110
10, 68784, Note_on_c, 5, 64, 110
10, 68830, Note_on_c, 5, 52, 0
10, 68830, Note_on_c, 5, 64, 0
10, 68832, Note_on_c, 5, 52, 110
10, 68832, Note_on_c, 5, 64, 110
10, 68926, Note_on_c, 5, 52, 0
10, 68926, Note_on_c, 5, 64, 0
10, 68928, Note_on_c, 5, 52, 110
10, 68928, Note_on_c, 5, 64, 110
10, 69022, Note_on_c, 5, 52, 0
10, 69022, Note_on_c, 5, 64, 0
10, 69024, Note_on_c, 5, 52, 110
10, 69024, Note_on_c, 5, 64, 110
10, 69070, Note_on_c, 5, 52, 0
10, 69070, Note_on_c, 5, 64, 0
10, 69072, Note_on_c, 5, 52, 110
10, 69072, Note_on_c, 5, 64, 110
10, 69166, Note_on_c, 5, 52, 0
10, 69166, Note_on_c, 5, 64, 0
10, 69168, Note_on_c, 5, 51, 110
10, 69168, Note_on_c, 5, 63, 110
10, 69214, Note_on_c, 5, 51, 0
10, 69214, Note_on_c, 5, 63, 0
10, 69216, Note_on_c, 5, 51, 110
10, 69216, Note_on_c, 5, 63, 110
10, 69472, Note_on_c, 5, 51, 0
10, 69472, Note_on_c, 5, 63, 0
10, 69504, Note_on_c, 5, 54, 110
10, 69504, Note_on_c, 5, 66, 110
10, 69550, Note_on_c, 5, 54, 0
10, 69550, Note_on_c, 5, 66, 0
10, 69552, Note_on_c, 5, 54, 110
10, 69552, Note_on_c, 5, 66, 110
10, 69598, Note_on_c, 5, 54, 0
10, 69598, Note_on_c, 5, 66, 0
10, 69600, Note_on_c, 5, 54, 110
10, 69600, Note_on_c, 5, 66, 110
10, 69694, Note_on_c, 5, 54, 0
10, 69694, Note_on_c, 5, 66, 0
10, 69696, Note_on_c, 5, 54, 110
10, 69696, Note_on_c, 5, 66, 110
10, 69790, Note_on_c, 5, 54, 0
10, 69790, Note_on_c, 5, 66, 0
10, 69792, Note_on_c, 5, 54, 110
10, 69792, Note_on_c, 5, 66, 110
10, 69838, Note_on_c, 5, 54, 0
10, 69838, Note_on_c, 5, 66, 0
10, 69840, Note_on_c, 5, 54, 110
10, 69840, Note_on_c, 5, 66, 110
10, 69934, Note_on_c, 5, 54, 0
10, 69934, Note_on_c, 5, 66, 0
10, 69936, Note_on_c, 5, 51, 110
10, 69936, Note_on_c, 5, 63, 110
10, 69982, Note_on_c, 5, 51, 0
10, 69982, Note_on_c, 5, 63, 0
10, 69984, Note_on_c, 5, 51, 110
10, 69984, Note_on_c, 5, 63, 110
10, 70078, Note_on_c, 5, 51, 0
10, 70078, Note_on_c, 5, 63, 0
10, 70128, Note_on_c, 5, 54, 110
10, 70128, Note_on_c, 5, 66, 110
10, 70222, Note_on_c, 5, 54, 0
10, 70222, Note_on_c, 5, 66, 0
10, 70224, Note_on_c, 5, 51, 110
10, 70224, Note_on_c, 5, 63, 110
10, 70270, Note_on_c, 5, 51, 0
10, 70270, Note_on_c, 5, 63, 0
10, 70272, Note_on_c, 5, 51, 110
10, 70272, Note_on_c, 5, 63, 110
10, 70366, Note_on_c, 5, 51, 0
10, 70366, Note_on_c, 5, 63, 0
10, 70560, Note_on_c, 5, 44, 110
10, 70560, Note_on_c, 5, 56, 110
10, 70606, Note_on_c, 5, 44, 0
10, 70606, Note_on_c, 5, 56, 0
10, 70608, Note_on_c, 5, 44, 110
10, 70608, Note_on_c, 5, 56, 110
10, 70654, Note_on_c, 5, 44, 0
10, 70654, Note_on_c, 5, 56, 0
10, 70656, Note_on_c, 5, 49, 110
10, 70656, Note_on_c, 5, 61, 110
10, 70702, Note_on_c, 5, 49, 0
10, 70702, Note_on_c, 5, 61, 0
10, 70752, Note_on_c, 5, 49, 110
10, 70752, Note_on_c, 5, 61, 110
10, 70798, Note_on_c, 5, 49, 0
10, 70798, Note_on_c, 5, 61, 0
10, 70800, Note_on_c, 5, 52, 110
10, 70800, Note_on_c, 5, 64, 110
10, 70846, Note_on_c, 5, 52, 0
10, 70846, Note_on_c, 5, 64, 0
10, 70896, Note_on_c, 5, 52, 110
10, 70896, Note_on_c, 5, 64, 110
10, 70942, Note_on_c, 5, 52, 0
10, 70942, Note_on_c, 5, 64, 0
10, 70944, Note_on_c, 5, 56, 110
10, 70944, Note_on_c, 5, 68, 110
10, 71760, Note_on_c, 5, 56, 0
10, 71760, Note_on_c, 5, 68, 0
10, 71808, Note_on_c, 5, 52, 110
10, 71808, Note_on_c, 5, 64, 110
10, 71854, Note_on_c, 5, 52, 0
10, 71854, Note_on_c, 5, 64, 0
10, 71856, Note_on_c, 5, 52, 110
10, 71856, Note_on_c, 5, 64, 110
10, 71902, Note_on_c, 5, 52, 0
10, 71902, Note_on_c, 5, 64, 0
10, 71904, Note_on_c, 5, 52, 110
10, 71904, Note_on_c, 5, 64, 110
10, 71998, Note_on_c, 5, 52, 0
10, 71998, Note_on_c, 5, 64, 0
10, 72000, Note_on_c, 5, 52, 110
10, 72000, Note_on_c, 5, 64, 110
10, 72094, Note_on_c, 5, 52, 0
10, 72094, Note_on_c, 5, 64, 0
10, 72096, Note_on_c, 5, 52, 110
10, 72096, Note_on_c, 5, 64, 110
10, 72142, Note_on_c, 5, 52, 0
10, 72142, Note_on_c, 5, 64, 0
10, 72144, Note_on_c, 5, 52, 110
10, 72144, Note_on_c, 5, 64, 110
10, 72238, Note_on_c, 5, 52, 0
10, 72238, Note_on_c, 5, 64, 0
10, 72240, Note_on_c, 5, 51, 110
10, 72240, Note_on_c, 5, 63, 110
10, 72286, Note_on_c, 5, 51, 0
10, 72286, Note_on_c, 5, 63, 0
10, 72288, Note_on_c, 5, 51, 110
10, 72288, Note_on_c, 5, 63, 110
10, 72544, Note_on_c, 5, 51, 0
10, 72544, Note_on_c, 5, 63, 0
10, 72576, Note_on_c, 5, 54, 110
10, 72576, Note_on_c, 5, 66, 110
10, 72622, Note_on_c, 5, 54, 0
10, 72622, Note_on_c, 5, 66, 0
10, 72624, Note_on_c, 5, 54, 110
10, 72624, Note_on_c, 5, 66, 110
10, 72670, Note_on_c, 5, 54, 0
10, 72670, Note_on_c, 5, 66, 0
10, 72672, Note_on_c, 5, 54, 110
10, 72672, Note_on_c, 5, 66, 110
10, 72766, Note_on_c, 5, 54, 0
10, 72766, Note_on_c, 5, 66, 0
10, 72768, Note_on_c, 5, 54, 110
10, 72768, Note_on_c, 5, 66, 110
10, 72862, Note_on_c, 5, 54, 0
10, 72862, Note_on_c, 5, 66, 0
10, 72864, Note_on_c, 5, 54, 110
10, 72864, Note_on_c, 5, 66, 110
10, 72910, Note_on_c, 5, 54, 0
10, 72910, Note_on_c, 5, 66, 0
10, 72912, Note_on_c, 5, 54, 110
10, 72912, Note_on_c, 5, 66, 110
10, 73006, Note_on_c, 5, 54, 0
10, 73006, Note_on_c, 5, 66, 0
10, 73008, Note_on_c, 5, 51, 110
10, 73008, Note_on_c, 5, 63, 110
10, 73054, Note_on_c, 5, 51, 0
10, 73054, Note_on_c, 5, 63, 0
10, 73056, Note_on_c, 5, 51, 110
10, 73056, Note_on_c, 5, 63, 110
10, 73150, Note_on_c, 5, 51, 0
10, 73150, Note_on_c, 5, 63, 0
10, 73200, Note_on_c, 5, 54, 110
10, 73200, Note_on_c, 5, 66, 110
10, 73294, Note_on_c, 5, 54, 0
10, 73294, Note_on_c, 5, 66, 0
10, 73296, Note_on_c, 5, 51, 110
10, 73296, Note_on_c, 5, 63, 110
10, 73342, Note_on_c, 5, 51, 0
10, 73342, Note_on_c, 5, 63, 0
10, 73344, Note_on_c, 5, 51, 110
10, 73344, Note_on_c, 5, 63, 110
10, 73438, Note_on_c, 5, 51, 0
10, 73438, Note_on_c, 5, 63, 0
10, 73632, Note_on_c, 5, 44, 110
10, 73632, Note_on_c, 5, 56, 110
10, 73678, Note_on_c, 5, 44, 0
10, 73678, Note_on_c, 5, 56, 0
10, 73680, Note_on_c, 5, 44, 110
10, 73680, Note_on_c, 5, 56, 110
10, 73726, Note_on_c, 5, 44, 0
10, 73726, Note_on_c, 5, 56, 0
10, 73726, End_track
11, 0, Start_track
11, 0, MIDI_port, 0
11, 0, Title_t, "Staff-9"
11, 0, Control_c, 5, 7, 127
11, 0, Control_c, 5, 10, 64
11, 0, Program_c, 5, 54
11, 12192, Note_on_c, 5, 44, 110
11, 12192, Note_on_c, 5, 56, 110
11, 12238, Note_on_c, 5, 44, 0
11, 12238, Note_on_c, 5, 56, 0
11, 12240, Note_on_c, 5, 44, 110
11, 12240, Note_on_c, 5, 56, 110
11, 12286, Note_on_c, 5, 44, 0
11, 12286, Note_on_c, 5, 56, 0
11, 12672, Note_on_c, 5, 61, 110
11, 12672, Note_on_c, 5, 64, 110
11, 12718, Note_on_c, 5, 61, 0
11, 12718, Note_on_c, 5, 64, 0
11, 12768, Note_on_c, 5, 59, 110
11, 12768, Note_on_c, 5, 63, 110
11, 12814, Note_on_c, 5, 59, 0
11, 12814, Note_on_c, 5, 63, 0
11, 12816, Note_on_c, 5, 61, 110
11, 12816, Note_on_c, 5, 64, 110
11, 12862, Note_on_c, 5, 61, 0
11, 12862, Note_on_c, 5, 64, 0
11, 12912, Note_on_c, 5, 59, 110
11, 12912, Note_on_c, 5, 63, 110
11, 12958, Note_on_c, 5, 59, 0
11, 12958, Note_on_c, 5, 63, 0
11, 12960, Note_on_c, 5, 61, 110
11, 12960, Note_on_c, 5, 64, 110
11, 13392, Note_on_c, 5, 61, 0
11, 13392, Note_on_c, 5, 64, 0
11, 15744, Note_on_c, 5, 61, 110
11, 15744, Note_on_c, 5, 64, 110
11, 15790, Note_on_c, 5, 61, 0
11, 15790, Note_on_c, 5, 64, 0
11, 15840, Note_on_c, 5, 59, 110
11, 15840, Note_on_c, 5, 63, 110
11, 15886, Note_on_c, 5, 59, 0
11, 15886, Note_on_c, 5, 63, 0
11, 15888, Note_on_c, 5, 61, 110
11, 15888, Note_on_c, 5, 64, 110
11, 15934, Note_on_c, 5, 61, 0
11, 15934, Note_on_c, 5, 64, 0
11, 15984, Note_on_c, 5, 59, 110
11, 15984, Note_on_c, 5, 63, 110
11, 16030, Note_on_c, 5, 59, 0
11, 16030, Note_on_c, 5, 63, 0
11, 16032, Note_on_c, 5, 61, 110
11, 16032, Note_on_c, 5, 64, 110
11, 16464, Note_on_c, 5, 61, 0
11, 16464, Note_on_c, 5, 64, 0
11, 18192, Note_on_c, 5, 59, 110
11, 18192, Note_on_c, 5, 63, 110
11, 18286, Note_on_c, 5, 59, 0
11, 18286, Note_on_c, 5, 63, 0
11, 18288, Note_on_c, 5, 59, 110
11, 18288, Note_on_c, 5, 63, 110
11, 18334, Note_on_c, 5, 59, 0
11, 18334, Note_on_c, 5, 63, 0
11, 18336, Note_on_c, 5, 56, 110
11, 18336, Note_on_c, 5, 61, 110
11, 18430, Note_on_c, 5, 56, 0
11, 18430, Note_on_c, 5, 61, 0
11, 24480, Note_on_c, 5, 44, 110
11, 24480, Note_on_c, 5, 56, 110
11, 24526, Note_on_c, 5, 44, 0
11, 24526, Note_on_c, 5, 56, 0
11, 24528, Note_on_c, 5, 44, 110
11, 24528, Note_on_c, 5, 56, 110
11, 24574, Note_on_c, 5, 44, 0
11, 24574, Note_on_c, 5, 56, 0
11, 24960, Note_on_c, 5, 61, 110
11, 24960, Note_on_c, 5, 64, 110
11, 25006, Note_on_c, 5, 61, 0
11, 25006, Note_on_c, 5, 64, 0
11, 25056, Note_on_c, 5, 59, 110
11, 25056, Note_on_c, 5, 63, 110
11, 25102, Note_on_c, 5, 59, 0
11, 25102, Note_on_c, 5, 63, 0
11, 25104, Note_on_c, 5, 61, 110
11, 25104, Note_on_c, 5, 64, 110
11, 25150, Note_on_c, 5, 61, 0
11, 25150, Note_on_c, 5, 64, 0
11, 25200, Note_on_c, 5, 59, 110
11, 25200, Note_on_c, 5, 63, 110
11, 25246, Note_on_c, 5, 59, 0
11, 25246, Note_on_c, 5, 63, 0
11, 25248, Note_on_c, 5, 61, 110
11, 25248, Note_on_c, 5, 64, 110
11, 25680, Note_on_c, 5, 61, 0
11, 25680, Note_on_c, 5, 64, 0
11, 28032, Note_on_c, 5, 61, 110
11, 28032, Note_on_c, 5, 64, 110
11, 28078, Note_on_c, 5, 61, 0
11, 28078, Note_on_c, 5, 64, 0
11, 28128, Note_on_c, 5, 59, 110
11, 28128, Note_on_c, 5, 63, 110
11, 28174, Note_on_c, 5, 59, 0
11, 28174, Note_on_c, 5, 63, 0
11, 28176, Note_on_c, 5, 61, 110
11, 28176, Note_on_c, 5, 64, 110
11, 28222, Note_on_c, 5, 61, 0
11, 28222, Note_on_c, 5, 64, 0
11, 28272, Note_on_c, 5, 59, 110
11, 28272, Note_on_c, 5, 63, 110
11, 28318, Note_on_c, 5, 59, 0
11, 28318, Note_on_c, 5, 63, 0
11, 28320, Note_on_c, 5, 61, 110
11, 28320, Note_on_c, 5, 64, 110
11, 28752, Note_on_c, 5, 61, 0
11, 28752, Note_on_c, 5, 64, 0
11, 30480, Note_on_c, 5, 59, 110
11, 30480, Note_on_c, 5, 63, 110
11, 30574, Note_on_c, 5, 59, 0
11, 30574, Note_on_c, 5, 63, 0
11, 30576, Note_on_c, 5, 59, 110
11, 30576, Note_on_c, 5, 63, 110
11, 30622, Note_on_c, 5, 59, 0
11, 30622, Note_on_c, 5, 63, 0
11, 30624, Note_on_c, 5, 56, 110
11, 30624, Note_on_c, 5, 61, 110
11, 30718, Note_on_c, 5, 56, 0
11, 30718, Note_on_c, 5, 61, 0
11, 32400, Note_on_c, 5, 63, 110
11, 32560, Note_on_c, 5, 63, 0
11, 32784, Note_on_c, 5, 63, 110
11, 32944, Note_on_c, 5, 63, 0
11, 33168, Note_on_c, 5, 66, 110
11, 33328, Note_on_c, 5, 66, 0
11, 33552, Note_on_c, 5, 63, 110
11, 33712, Note_on_c, 5, 63, 0
11, 35472, Note_on_c, 5, 63, 110
11, 35632, Note_on_c, 5, 63, 0
11, 35856, Note_on_c, 5, 63, 110
11, 36016, Note_on_c, 5, 63, 0
11, 36240, Note_on_c, 5, 66, 110
11, 36400, Note_on_c, 5, 66, 0
11, 36624, Note_on_c, 5, 66, 110
11, 36784, Note_on_c, 5, 66, 0
11, 37248, Note_on_c, 5, 61, 110
11, 37248, Note_on_c, 5, 64, 110
11, 37294, Note_on_c, 5, 61, 0
11, 37294, Note_on_c, 5, 64, 0
11, 37344, Note_on_c, 5, 59, 110
11, 37344, Note_on_c, 5, 63, 110
11, 37390, Note_on_c, 5, 59, 0
11, 37390, Note_on_c, 5, 63, 0
11, 37392, Note_on_c, 5, 61, 110
11, 37392, Note_on_c, 5, 64, 110
11, 37438, Note_on_c, 5, 61, 0
11, 37438, Note_on_c, 5, 64, 0
11, 37488, Note_on_c, 5, 59, 110
11, 37488, Note_on_c, 5, 63, 110
11, 37534, Note_on_c, 5, 59, 0
11, 37534, Note_on_c, 5, 63, 0
11, 37536, Note_on_c, 5, 61, 110
11, 37536, Note_on_c, 5, 64, 110
11, 37968, Note_on_c, 5, 61, 0
11, 37968, Note_on_c, 5, 64, 0
11, 40320, Note_on_c, 5, 61, 110
11, 40320, Note_on_c, 5, 64, 110
11, 40366, Note_on_c, 5, 61, 0
11, 40366, Note_on_c, 5, 64, 0
11, 40416, Note_on_c, 5, 59, 110
11, 40416, Note_on_c, 5, 63, 110
11, 40462, Note_on_c, 5, 59, 0
11, 40462, Note_on_c, 5, 63, 0
11, 40464, Note_on_c, 5, 61, 110
11, 40464, Note_on_c, 5, 64, 110
11, 40510, Note_on_c, 5, 61, 0
11, 40510, Note_on_c, 5, 64, 0
11, 40560, Note_on_c, 5, 59, 110
11, 40560, Note_on_c, 5, 63, 110
11, 40606, Note_on_c, 5, 59, 0
11, 40606, Note_on_c, 5, 63, 0
11, 40608, Note_on_c, 5, 61, 110
11, 40608, Note_on_c, 5, 64, 110
11, 41040, Note_on_c, 5, 61, 0
11, 41040, Note_on_c, 5, 64, 0
11, 42768, Note_on_c, 5, 59, 110
11, 42768, Note_on_c, 5, 63, 110
11, 42862, Note_on_c, 5, 59, 0
11, 42862, Note_on_c, 5, 63, 0
11, 42864, Note_on_c, 5, 59, 110
11, 42864, Note_on_c, 5, 63, 110
11, 42910, Note_on_c, 5, 59, 0
11, 42910, Note_on_c, 5, 63, 0
11, 42912, Note_on_c, 5, 56, 110
11, 42912, Note_on_c, 5, 61, 110
11, 43006, Note_on_c, 5, 56, 0
11, 43006, Note_on_c, 5, 61, 0
11, 49536, Note_on_c, 5, 61, 110
11, 49536, Note_on_c, 5, 64, 110
11, 49582, Note_on_c, 5, 61, 0
11, 49582, Note_on_c, 5, 64, 0
11, 49632, Note_on_c, 5, 59, 110
11, 49632, Note_on_c, 5, 63, 110
11, 49678, Note_on_c, 5, 59, 0
11, 49678, Note_on_c, 5, 63, 0
11, 49680, Note_on_c, 5, 61, 110
11, 49680, Note_on_c, 5, 64, 110
11, 49726, Note_on_c, 5, 61, 0
11, 49726, Note_on_c, 5, 64, 0
11, 49776, Note_on_c, 5, 59, 110
11, 49776, Note_on_c, 5, 63, 110
11, 49822, Note_on_c, 5, 59, 0
11, 49822, Note_on_c, 5, 63, 0
11, 49824, Note_on_c, 5, 61, 110
11, 49824, Note_on_c, 5, 64, 110
11, 50256, Note_on_c, 5, 61, 0
11, 50256, Note_on_c, 5, 64, 0
11, 52608, Note_on_c, 5, 61, 110
11, 52608, Note_on_c, 5, 64, 110
11, 52654, Note_on_c, 5, 61, 0
11, 52654, Note_on_c, 5, 64, 0
11, 52704, Note_on_c, 5, 59, 110
11, 52704, Note_on_c, 5, 63, 110
11, 52750, Note_on_c, 5, 59, 0
11, 52750, Note_on_c, 5, 63, 0
11, 52752, Note_on_c, 5, 61, 110
11, 52752, Note_on_c, 5, 64, 110
11, 52798, Note_on_c, 5, 61, 0
11, 52798, Note_on_c, 5, 64, 0
11, 52848, Note_on_c, 5, 59, 110
11, 52848, Note_on_c, 5, 63, 110
11, 52894, Note_on_c, 5, 59, 0
11, 52894, Note_on_c, 5, 63, 0
11, 52896, Note_on_c, 5, 61, 110
11, 52896, Note_on_c, 5, 64, 110
11, 53328, Note_on_c, 5, 61, 0
11, 53328, Note_on_c, 5, 64, 0
11, 55056, Note_on_c, 5, 59, 110
11, 55056, Note_on_c, 5, 63, 110
11, 55150, Note_on_c, 5, 59, 0
11, 55150, Note_on_c, 5, 63, 0
11, 55152, Note_on_c, 5, 59, 110
11, 55152, Note_on_c, 5, 63, 110
11, 55198, Note_on_c, 5, 59, 0
11, 55198, Note_on_c, 5, 63, 0
11, 55200, Note_on_c, 5, 56, 110
11, 55200, Note_on_c, 5, 61, 110
11, 55294, Note_on_c, 5, 56, 0
11, 55294, Note_on_c, 5, 61, 0
11, 55680, Note_on_c, 5, 61, 110
11, 55680, Note_on_c, 5, 64, 110
11, 55726, Note_on_c, 5, 61, 0
11, 55726, Note_on_c, 5, 64, 0
11, 55776, Note_on_c, 5, 59, 110
11, 55776, Note_on_c, 5, 63, 110
11, 55822, Note_on_c, 5, 59, 0
11, 55822, Note_on_c, 5, 63, 0
11, 55824, Note_on_c, 5, 61, 110
11, 55824, Note_on_c, 5, 64, 110
11, 55870, Note_on_c, 5, 61, 0
11, 55870, Note_on_c, 5, 64, 0
11, 55920, Note_on_c, 5, 59, 110
11, 55920, Note_on_c, 5, 63, 110
11, 55966, Note_on_c, 5, 59, 0
11, 55966, Note_on_c, 5, 63, 0
11, 55968, Note_on_c, 5, 61, 110
11, 55968, Note_on_c, 5, 64, 110
11, 56400, Note_on_c, 5, 61, 0
11, 56400, Note_on_c, 5, 64, 0
11, 58752, Note_on_c, 5, 61, 110
11, 58752, Note_on_c, 5, 64, 110
11, 58798, Note_on_c, 5, 61, 0
11, 58798, Note_on_c, 5, 64, 0
11, 58848, Note_on_c, 5, 59, 110
11, 58848, Note_on_c, 5, 63, 110
11, 58894, Note_on_c, 5, 59, 0
11, 58894, Note_on_c, 5, 63, 0
11, 58896, Note_on_c, 5, 61, 110
11, 58896, Note_on_c, 5, 64, 110
11, 58942, Note_on_c, 5, 61, 0
11, 58942, Note_on_c, 5, 64, 0
11, 58992, Note_on_c, 5, 59, 110
11, 58992, Note_on_c, 5, 63, 110
11, 59038, Note_on_c, 5, 59, 0
11, 59038, Note_on_c, 5, 63, 0
11, 59040, Note_on_c, 5, 61, 110
11, 59040, Note_on_c, 5, 64, 110
11, 59472, Note_on_c, 5, 61, 0
11, 59472, Note_on_c, 5, 64, 0
11, 61200, Note_on_c, 5, 59, 110
11, 61200, Note_on_c, 5, 63, 110
11, 61294, Note_on_c, 5, 59, 0
11, 61294, Note_on_c, 5, 63, 0
11, 61296, Note_on_c, 5, 59, 110
11, 61296, Note_on_c, 5, 63, 110
11, 61342, Note_on_c, 5, 59, 0
11, 61342, Note_on_c, 5, 63, 0
11, 61344, Note_on_c, 5, 56, 110
11, 61344, Note_on_c, 5, 61, 110
11, 61438, Note_on_c, 5, 56, 0
11, 61438, Note_on_c, 5, 61, 0
11, 67968, Note_on_c, 5, 61, 110
11, 67968, Note_on_c, 5, 64, 110
11, 68014, Note_on_c, 5, 61, 0
11, 68014, Note_on_c, 5, 64, 0
11, 68064, Note_on_c, 5, 59, 110
11, 68064, Note_on_c, 5, 63, 110
11, 68110, Note_on_c, 5, 59, 0
11, 68110, Note_on_c, 5, 63, 0
11, 68112, Note_on_c, 5, 61, 110
11, 68112, Note_on_c, 5, 64, 110
11, 68158, Note_on_c, 5, 61, 0
11, 68158, Note_on_c, 5, 64, 0
11, 68208, Note_on_c, 5, 59, 110
11, 68208, Note_on_c, 5, 63, 110
11, 68254, Note_on_c, 5, 59, 0
11, 68254, Note_on_c, 5, 63, 0
11, 68256, Note_on_c, 5, 61, 110
11, 68256, Note_on_c, 5, 64, 110
11, 68688, Note_on_c, 5, 61, 0
11, 68688, Note_on_c, 5, 64, 0
11, 71040, Note_on_c, 5, 61, 110
11, 71040, Note_on_c, 5, 64, 110
11, 71086, Note_on_c, 5, 61, 0
11, 71086, Note_on_c, 5, 64, 0
11, 71136, Note_on_c, 5, 59, 110
11, 71136, Note_on_c, 5, 63, 110
11, 71182, Note_on_c, 5, 59, 0
11, 71182, Note_on_c, 5, 63, 0
11, 71184, Note_on_c, 5, 61, 110
11, 71184, Note_on_c, 5, 64, 110
11, 71230, Note_on_c, 5, 61, 0
11, 71230, Note_on_c, 5, 64, 0
11, 71280, Note_on_c, 5, 59, 110
11, 71280, Note_on_c, 5, 63, 110
11, 71326, Note_on_c, 5, 59, 0
11, 71326, Note_on_c, 5, 63, 0
11, 71328, Note_on_c, 5, 61, 110
11, 71328, Note_on_c, 5, 64, 110
11, 71760, Note_on_c, 5, 61, 0
11, 71760, Note_on_c, 5, 64, 0
11, 73488, Note_on_c, 5, 59, 110
11, 73488, Note_on_c, 5, 63, 110
11, 73582, Note_on_c, 5, 59, 0
11, 73582, Note_on_c, 5, 63, 0
11, 73584, Note_on_c, 5, 59, 110
11, 73584, Note_on_c, 5, 63, 110
11, 73630, Note_on_c, 5, 59, 0
11, 73630, Note_on_c, 5, 63, 0
11, 73632, Note_on_c, 5, 56, 110
11, 73632, Note_on_c, 5, 61, 110
11, 73726, Note_on_c, 5, 56, 0
11, 73726, Note_on_c, 5, 61, 0
11, 73726, End_track
12, 0, Start_track
12, 0, MIDI_port, 0
12, 0, Title_t, "Staff-10"
12, 0, Control_c, 6, 7, 95
12, 0, Control_c, 6, 10, 64
12, 0, Program_c, 6, 24
12, 18432, Note_on_c, 6, 49, 110
12, 18432, Note_on_c, 6, 52, 110
12, 18432, Note_on_c, 6, 56, 110
12, 18480, Note_on_c, 6, 49, 0
12, 18480, Note_on_c, 6, 52, 0
12, 18480, Note_on_c, 6, 56, 0
12, 19200, Note_on_c, 6, 49, 110
12, 19200, Note_on_c, 6, 52, 110
12, 19200, Note_on_c, 6, 56, 110
12, 19248, Note_on_c, 6, 49, 0
12, 19248, Note_on_c, 6, 52, 0
12, 19248, Note_on_c, 6, 56, 0
12, 19968, Note_on_c, 6, 32, 110
12, 19968, Note_on_c, 6, 56, 110
12, 19968, Note_on_c, 6, 59, 110
12, 19968, Note_on_c, 6, 63, 110
12, 20062, Note_on_c, 6, 32, 0
12, 20062, Note_on_c, 6, 56, 0
12, 20062, Note_on_c, 6, 59, 0
12, 20062, Note_on_c, 6, 63, 0
12, 20064, Note_on_c, 6, 32, 110
12, 20064, Note_on_c, 6, 56, 110
12, 20064, Note_on_c, 6, 59, 110
12, 20064, Note_on_c, 6, 63, 110
12, 20158, Note_on_c, 6, 32, 0
12, 20158, Note_on_c, 6, 56, 0
12, 20158, Note_on_c, 6, 59, 0
12, 20158, Note_on_c, 6, 63, 0
12, 20160, Note_on_c, 6, 32, 110
12, 20160, Note_on_c, 6, 56, 110
12, 20160, Note_on_c, 6, 59, 110
12, 20160, Note_on_c, 6, 63, 110
12, 20302, Note_on_c, 6, 32, 0
12, 20302, Note_on_c, 6, 56, 0
12, 20302, Note_on_c, 6, 59, 0
12, 20302, Note_on_c, 6, 63, 0
12, 20304, Note_on_c, 6, 32, 110
12, 20304, Note_on_c, 6, 56, 110
12, 20304, Note_on_c, 6, 59, 110
12, 20304, Note_on_c, 6, 63, 110
12, 20464, Note_on_c, 6, 32, 0
12, 20464, Note_on_c, 6, 56, 0
12, 20464, Note_on_c, 6, 59, 0
12, 20464, Note_on_c, 6, 63, 0
12, 20496, Note_on_c, 6, 32, 110
12, 20496, Note_on_c, 6, 56, 110
12, 20496, Note_on_c, 6, 59, 110
12, 20496, Note_on_c, 6, 63, 110
12, 20590, Note_on_c, 6, 32, 0
12, 20590, Note_on_c, 6, 56, 0
12, 20590, Note_on_c, 6, 59, 0
12, 20590, Note_on_c, 6, 63, 0
12, 20592, Note_on_c, 6, 32, 110
12, 20592, Note_on_c, 6, 56, 110
12, 20592, Note_on_c, 6, 59, 110
12, 20592, Note_on_c, 6, 63, 110
12, 20734, Note_on_c, 6, 32, 0
12, 20734, Note_on_c, 6, 56, 0
12, 20734, Note_on_c, 6, 59, 0
12, 20734, Note_on_c, 6, 63, 0
12, 20736, Note_on_c, 6, 32, 110
12, 20736, Note_on_c, 6, 56, 110
12, 20736, Note_on_c, 6, 59, 110
12, 20736, Note_on_c, 6, 63, 110
12, 20830, Note_on_c, 6, 32, 0
12, 20830, Note_on_c, 6, 56, 0
12, 20830, Note_on_c, 6, 59, 0
12, 20830, Note_on_c, 6, 63, 0
12, 20832, Note_on_c, 6, 32, 110
12, 20832, Note_on_c, 6, 56, 110
12, 20832, Note_on_c, 6, 59, 110
12, 20832, Note_on_c, 6, 63, 110
12, 20926, Note_on_c, 6, 32, 0
12, 20926, Note_on_c, 6, 56, 0
12, 20926, Note_on_c, 6, 59, 0
12, 20926, Note_on_c, 6, 63, 0
12, 20928, Note_on_c, 6, 32, 110
12, 20928, Note_on_c, 6, 56, 110
12, 20928, Note_on_c, 6, 59, 110
12, 20928, Note_on_c, 6, 63, 110
12, 21070, Note_on_c, 6, 32, 0
12, 21070, Note_on_c, 6, 56, 0
12, 21070, Note_on_c, 6, 59, 0
12, 21070, Note_on_c, 6, 63, 0
12, 21072, Note_on_c, 6, 32, 110
12, 21072, Note_on_c, 6, 56, 110
12, 21072, Note_on_c, 6, 59, 110
12, 21072, Note_on_c, 6, 63, 110
12, 21232, Note_on_c, 6, 32, 0
12, 21232, Note_on_c, 6, 56, 0
12, 21232, Note_on_c, 6, 59, 0
12, 21232, Note_on_c, 6, 63, 0
12, 21264, Note_on_c, 6, 32, 110
12, 21264, Note_on_c, 6, 56, 110
12, 21264, Note_on_c, 6, 59, 110
12, 21264, Note_on_c, 6, 63, 110
12, 21358, Note_on_c, 6, 32, 0
12, 21358, Note_on_c, 6, 56, 0
12, 21358, Note_on_c, 6, 59, 0
12, 21358, Note_on_c, 6, 63, 0
12, 21360, Note_on_c, 6, 32, 110
12, 21360, Note_on_c, 6, 56, 110
12, 21360, Note_on_c, 6, 59, 110
12, 21360, Note_on_c, 6, 63, 110
12, 21502, Note_on_c, 6, 32, 0
12, 21502, Note_on_c, 6, 56, 0
12, 21502, Note_on_c, 6, 59, 0
12, 21502, Note_on_c, 6, 63, 0
12, 21504, Note_on_c, 6, 49, 110
12, 21504, Note_on_c, 6, 52, 110
12, 21504, Note_on_c, 6, 56, 110
12, 21552, Note_on_c, 6, 49, 0
12, 21552, Note_on_c, 6, 52, 0
12, 21552, Note_on_c, 6, 56, 0
12, 22272, Note_on_c, 6, 49, 110
12, 22272, Note_on_c, 6, 52, 110
12, 22272, Note_on_c, 6, 56, 110
12, 22320, Note_on_c, 6, 49, 0
12, 22320, Note_on_c, 6, 52, 0
12, 22320, Note_on_c, 6, 56, 0
12, 23040, Note_on_c, 6, 32, 110
12, 23040, Note_on_c, 6, 56, 110
12, 23040, Note_on_c, 6, 59, 110
12, 23040, Note_on_c, 6, 63, 110
12, 23134, Note_on_c, 6, 32, 0
12, 23134, Note_on_c, 6, 56, 0
12, 23134, Note_on_c, 6, 59, 0
12, 23134, Note_on_c, 6, 63, 0
12, 23136, Note_on_c, 6, 32, 110
12, 23136, Note_on_c, 6, 56, 110
12, 23136, Note_on_c, 6, 59, 110
12, 23136, Note_on_c, 6, 63, 110
12, 23230, Note_on_c, 6, 32, 0
12, 23230, Note_on_c, 6, 56, 0
12, 23230, Note_on_c, 6, 59, 0
12, 23230, Note_on_c, 6, 63, 0
12, 23232, Note_on_c, 6, 32, 110
12, 23232, Note_on_c, 6, 56, 110
12, 23232, Note_on_c, 6, 59, 110
12, 23232, Note_on_c, 6, 63, 110
12, 23374, Note_on_c, 6, 32, 0
12, 23374, Note_on_c, 6, 56, 0
12, 23374, Note_on_c, 6, 59, 0
12, 23374, Note_on_c, 6, 63, 0
12, 23376, Note_on_c, 6, 32, 110
12, 23376, Note_on_c, 6, 56, 110
12, 23376, Note_on_c, 6, 59, 110
12, 23376, Note_on_c, 6, 63, 110
12, 23536, Note_on_c, 6, 32, 0
12, 23536, Note_on_c, 6, 56, 0
12, 23536, Note_on_c, 6, 59, 0
12, 23536, Note_on_c, 6, 63, 0
12, 23568, Note_on_c, 6, 32, 110
12, 23568, Note_on_c, 6, 56, 110
12, 23568, Note_on_c, 6, 59, 110
12, 23568, Note_on_c, 6, 63, 110
12, 23662, Note_on_c, 6, 32, 0
12, 23662, Note_on_c, 6, 56, 0
12, 23662, Note_on_c, 6, 59, 0
12, 23662, Note_on_c, 6, 63, 0
12, 23664, Note_on_c, 6, 32, 110
12, 23664, Note_on_c, 6, 56, 110
12, 23664, Note_on_c, 6, 59, 110
12, 23664, Note_on_c, 6, 63, 110
12, 23806, Note_on_c, 6, 32, 0
12, 23806, Note_on_c, 6, 56, 0
12, 23806, Note_on_c, 6, 59, 0
12, 23806, Note_on_c, 6, 63, 0
12, 23808, Note_on_c, 6, 32, 110
12, 23808, Note_on_c, 6, 56, 110
12, 23808, Note_on_c, 6, 59, 110
12, 23808, Note_on_c, 6, 63, 110
12, 23902, Note_on_c, 6, 32, 0
12, 23902, Note_on_c, 6, 56, 0
12, 23902, Note_on_c, 6, 59, 0
12, 23902, Note_on_c, 6, 63, 0
12, 23904, Note_on_c, 6, 32, 110
12, 23904, Note_on_c, 6, 56, 110
12, 23904, Note_on_c, 6, 59, 110
12, 23904, Note_on_c, 6, 63, 110
12, 23998, Note_on_c, 6, 32, 0
12, 23998, Note_on_c, 6, 56, 0
12, 23998, Note_on_c, 6, 59, 0
12, 23998, Note_on_c, 6, 63, 0
12, 24000, Note_on_c, 6, 32, 110
12, 24000, Note_on_c, 6, 56, 110
12, 24000, Note_on_c, 6, 59, 110
12, 24000, Note_on_c, 6, 63, 110
12, 24142, Note_on_c, 6, 32, 0
12, 24142, Note_on_c, 6, 56, 0
12, 24142, Note_on_c, 6, 59, 0
12, 24142, Note_on_c, 6, 63, 0
12, 24144, Note_on_c, 6, 32, 110
12, 24144, Note_on_c, 6, 56, 110
12, 24144, Note_on_c, 6, 59, 110
12, 24144, Note_on_c, 6, 63, 110
12, 24304, Note_on_c, 6, 32, 0
12, 24304, Note_on_c, 6, 56, 0
12, 24304, Note_on_c, 6, 59, 0
12, 24304, Note_on_c, 6, 63, 0
12, 24336, Note_on_c, 6, 32, 110
12, 24336, Note_on_c, 6, 56, 110
12, 24336, Note_on_c, 6, 59, 110
12, 24336, Note_on_c, 6, 63, 110
12, 24430, Note_on_c, 6, 32, 0
12, 24430, Note_on_c, 6, 56, 0
12, 24430, Note_on_c, 6, 59, 0
12, 24430, Note_on_c, 6, 63, 0
12, 24432, Note_on_c, 6, 32, 110
12, 24432, Note_on_c, 6, 56, 110
12, 24432, Note_on_c, 6, 59, 110
12, 24432, Note_on_c, 6, 63, 110
12, 24574, Note_on_c, 6, 32, 0
12, 24574, Note_on_c, 6, 56, 0
12, 24574, Note_on_c, 6, 59, 0
12, 24574, Note_on_c, 6, 63, 0
12, 24576, Note_on_c, 6, 49, 110
12, 24576, Note_on_c, 6, 52, 110
12, 24576, Note_on_c, 6, 56, 110
12, 24624, Note_on_c, 6, 49, 0
12, 24624, Note_on_c, 6, 52, 0
12, 24624, Note_on_c, 6, 56, 0
12, 25344, Note_on_c, 6, 49, 110
12, 25344, Note_on_c, 6, 52, 110
12, 25344, Note_on_c, 6, 56, 110
12, 25392, Note_on_c, 6, 49, 0
12, 25392, Note_on_c, 6, 52, 0
12, 25392, Note_on_c, 6, 56, 0
12, 26112, Note_on_c, 6, 32, 110
12, 26112, Note_on_c, 6, 56, 110
12, 26112, Note_on_c, 6, 59, 110
12, 26112, Note_on_c, 6, 63, 110
12, 26206, Note_on_c, 6, 32, 0
12, 26206, Note_on_c, 6, 56, 0
12, 26206, Note_on_c, 6, 59, 0
12, 26206, Note_on_c, 6, 63, 0
12, 26208, Note_on_c, 6, 32, 110
12, 26208, Note_on_c, 6, 56, 110
12, 26208, Note_on_c, 6, 59, 110
12, 26208, Note_on_c, 6, 63, 110
12, 26302, Note_on_c, 6, 32, 0
12, 26302, Note_on_c, 6, 56, 0
12, 26302, Note_on_c, 6, 59, 0
12, 26302, Note_on_c, 6, 63, 0
12, 26304, Note_on_c, 6, 32, 110
12, 26304, Note_on_c, 6, 56, 110
12, 26304, Note_on_c, 6, 59, 110
12, 26304, Note_on_c, 6, 63, 110
12, 26446, Note_on_c, 6, 32, 0
12, 26446, Note_on_c, 6, 56, 0
12, 26446, Note_on_c, 6, 59, 0
12, 26446, Note_on_c, 6, 63, 0
12, 26448, Note_on_c, 6, 32, 110
12, 26448, Note_on_c, 6, 56, 110
12, 26448, Note_on_c, 6, 59, 110
12, 26448, Note_on_c, 6, 63, 110
12, 26608, Note_on_c, 6, 32, 0
12, 26608, Note_on_c, 6, 56, 0
12, 26608, Note_on_c, 6, 59, 0
12, 26608, Note_on_c, 6, 63, 0
12, 26640, Note_on_c, 6, 32, 110
12, 26640, Note_on_c, 6, 56, 110
12, 26640, Note_on_c, 6, 59, 110
12, 26640, Note_on_c, 6, 63, 110
12, 26734, Note_on_c, 6, 32, 0
12, 26734, Note_on_c, 6, 56, 0
12, 26734, Note_on_c, 6, 59, 0
12, 26734, Note_on_c, 6, 63, 0
12, 26736, Note_on_c, 6, 32, 110
12, 26736, Note_on_c, 6, 56, 110
12, 26736, Note_on_c, 6, 59, 110
12, 26736, Note_on_c, 6, 63, 110
12, 26878, Note_on_c, 6, 32, 0
12, 26878, Note_on_c, 6, 56, 0
12, 26878, Note_on_c, 6, 59, 0
12, 26878, Note_on_c, 6, 63, 0
12, 26880, Note_on_c, 6, 32, 110
12, 26880, Note_on_c, 6, 56, 110
12, 26880, Note_on_c, 6, 59, 110
12, 26880, Note_on_c, 6, 63, 110
12, 26974, Note_on_c, 6, 32, 0
12, 26974, Note_on_c, 6, 56, 0
12, 26974, Note_on_c, 6, 59, 0
12, 26974, Note_on_c, 6, 63, 0
12, 26976, Note_on_c, 6, 32, 110
12, 26976, Note_on_c, 6, 56, 110
12, 26976, Note_on_c, 6, 59, 110
12, 26976, Note_on_c, 6, 63, 110
12, 27070, Note_on_c, 6, 32, 0
12, 27070, Note_on_c, 6, 56, 0
12, 27070, Note_on_c, 6, 59, 0
12, 27070, Note_on_c, 6, 63, 0
12, 27072, Note_on_c, 6, 32, 110
12, 27072, Note_on_c, 6, 56, 110
12, 27072, Note_on_c, 6, 59, 110
12, 27072, Note_on_c, 6, 63, 110
12, 27214, Note_on_c, 6, 32, 0
12, 27214, Note_on_c, 6, 56, 0
12, 27214, Note_on_c, 6, 59, 0
12, 27214, Note_on_c, 6, 63, 0
12, 27216, Note_on_c, 6, 32, 110
12, 27216, Note_on_c, 6, 56, 110
12, 27216, Note_on_c, 6, 59, 110
12, 27216, Note_on_c, 6, 63, 110
12, 27376, Note_on_c, 6, 32, 0
12, 27376, Note_on_c, 6, 56, 0
12, 27376, Note_on_c, 6, 59, 0
12, 27376, Note_on_c, 6, 63, 0
12, 27408, Note_on_c, 6, 32, 110
12, 27408, Note_on_c, 6, 56, 110
12, 27408, Note_on_c, 6, 59, 110
12, 27408, Note_on_c, 6, 63, 110
12, 27502, Note_on_c, 6, 32, 0
12, 27502, Note_on_c, 6, 56, 0
12, 27502, Note_on_c, 6, 59, 0
12, 27502, Note_on_c, 6, 63, 0
12, 27504, Note_on_c, 6, 32, 110
12, 27504, Note_on_c, 6, 56, 110
12, 27504, Note_on_c, 6, 59, 110
12, 27504, Note_on_c, 6, 63, 110
12, 27646, Note_on_c, 6, 32, 0
12, 27646, Note_on_c, 6, 56, 0
12, 27646, Note_on_c, 6, 59, 0
12, 27646, Note_on_c, 6, 63, 0
12, 27648, Note_on_c, 6, 49, 110
12, 27648, Note_on_c, 6, 52, 110
12, 27648, Note_on_c, 6, 56, 110
12, 27696, Note_on_c, 6, 49, 0
12, 27696, Note_on_c, 6, 52, 0
12, 27696, Note_on_c, 6, 56, 0
12, 28416, Note_on_c, 6, 49, 110
12, 28416, Note_on_c, 6, 52, 110
12, 28416, Note_on_c, 6, 56, 110
12, 28464, Note_on_c, 6, 49, 0
12, 28464, Note_on_c, 6, 52, 0
12, 28464, Note_on_c, 6, 56, 0
12, 29184, Note_on_c, 6, 32, 110
12, 29184, Note_on_c, 6, 56, 110
12, 29184, Note_on_c, 6, 59, 110
12, 29184, Note_on_c, 6, 63, 110
12, 29278, Note_on_c, 6, 32, 0
12, 29278, Note_on_c, 6, 56, 0
12, 29278, Note_on_c, 6, 59, 0
12, 29278, Note_on_c, 6, 63, 0
12, 29280, Note_on_c, 6, 32, 110
12, 29280, Note_on_c, 6, 56, 110
12, 29280, Note_on_c, 6, 59, 110
12, 29280, Note_on_c, 6, 63, 110
12, 29374, Note_on_c, 6, 32, 0
12, 29374, Note_on_c, 6, 56, 0
12, 29374, Note_on_c, 6, 59, 0
12, 29374, Note_on_c, 6, 63, 0
12, 29376, Note_on_c, 6, 32, 110
12, 29376, Note_on_c, 6, 56, 110
12, 29376, Note_on_c, 6, 59, 110
12, 29376, Note_on_c, 6, 63, 110
12, 29518, Note_on_c, 6, 32, 0
12, 29518, Note_on_c, 6, 56, 0
12, 29518, Note_on_c, 6, 59, 0
12, 29518, Note_on_c, 6, 63, 0
12, 29520, Note_on_c, 6, 32, 110
12, 29520, Note_on_c, 6, 56, 110
12, 29520, Note_on_c, 6, 59, 110
12, 29520, Note_on_c, 6, 63, 110
12, 29680, Note_on_c, 6, 32, 0
12, 29680, Note_on_c, 6, 56, 0
12, 29680, Note_on_c, 6, 59, 0
12, 29680, Note_on_c, 6, 63, 0
12, 29712, Note_on_c, 6, 32, 110
12, 29712, Note_on_c, 6, 56, 110
12, 29712, Note_on_c, 6, 59, 110
12, 29712, Note_on_c, 6, 63, 110
12, 29806, Note_on_c, 6, 32, 0
12, 29806, Note_on_c, 6, 56, 0
12, 29806, Note_on_c, 6, 59, 0
12, 29806, Note_on_c, 6, 63, 0
12, 29808, Note_on_c, 6, 32, 110
12, 29808, Note_on_c, 6, 56, 110
12, 29808, Note_on_c, 6, 59, 110
12, 29808, Note_on_c, 6, 63, 110
12, 29950, Note_on_c, 6, 32, 0
12, 29950, Note_on_c, 6, 56, 0
12, 29950, Note_on_c, 6, 59, 0
12, 29950, Note_on_c, 6, 63, 0
12, 29952, Note_on_c, 6, 32, 110
12, 29952, Note_on_c, 6, 56, 110
12, 29952, Note_on_c, 6, 59, 110
12, 29952, Note_on_c, 6, 63, 110
12, 30046, Note_on_c, 6, 32, 0
12, 30046, Note_on_c, 6, 56, 0
12, 30046, Note_on_c, 6, 59, 0
12, 30046, Note_on_c, 6, 63, 0
12, 30048, Note_on_c, 6, 32, 110
12, 30048, Note_on_c, 6, 56, 110
12, 30048, Note_on_c, 6, 59, 110
12, 30048, Note_on_c, 6, 63, 110
12, 30142, Note_on_c, 6, 32, 0
12, 30142, Note_on_c, 6, 56, 0
12, 30142, Note_on_c, 6, 59, 0
12, 30142, Note_on_c, 6, 63, 0
12, 30144, Note_on_c, 6, 32, 110
12, 30144, Note_on_c, 6, 56, 110
12, 30144, Note_on_c, 6, 59, 110
12, 30144, Note_on_c, 6, 63, 110
12, 30286, Note_on_c, 6, 32, 0
12, 30286, Note_on_c, 6, 56, 0
12, 30286, Note_on_c, 6, 59, 0
12, 30286, Note_on_c, 6, 63, 0
12, 30288, Note_on_c, 6, 32, 110
12, 30288, Note_on_c, 6, 56, 110
12, 30288, Note_on_c, 6, 59, 110
12, 30288, Note_on_c, 6, 63, 110
12, 30448, Note_on_c, 6, 32, 0
12, 30448, Note_on_c, 6, 56, 0
12, 30448, Note_on_c, 6, 59, 0
12, 30448, Note_on_c, 6, 63, 0
12, 30480, Note_on_c, 6, 32, 110
12, 30480, Note_on_c, 6, 56, 110
12, 30480, Note_on_c, 6, 59, 110
12, 30480, Note_on_c, 6, 63, 110
12, 30574, Note_on_c, 6, 32, 0
12, 30574, Note_on_c, 6, 56, 0
12, 30574, Note_on_c, 6, 59, 0
12, 30574, Note_on_c, 6, 63, 0
12, 30576, Note_on_c, 6, 32, 110
12, 30576, Note_on_c, 6, 56, 110
12, 30576, Note_on_c, 6, 59, 110
12, 30576, Note_on_c, 6, 63, 110
12, 30718, Note_on_c, 6, 32, 0
12, 30718, Note_on_c, 6, 56, 0
12, 30718, Note_on_c, 6, 59, 0
12, 30718, Note_on_c, 6, 63, 0
12, 49152, Note_on_c, 6, 49, 110
12, 49152, Note_on_c, 6, 52, 110
12, 49152, Note_on_c, 6, 56, 110
12, 49200, Note_on_c, 6, 49, 0
12, 49200, Note_on_c, 6, 52, 0
12, 49200, Note_on_c, 6, 56, 0
12, 49920, Note_on_c, 6, 49, 110
12, 49920, Note_on_c, 6, 52, 110
12, 49920, Note_on_c, 6, 56, 110
12, 49968, Note_on_c, 6, 49, 0
12, 49968, Note_on_c, 6, 52, 0
12, 49968, Note_on_c, 6, 56, 0
12, 50688, Note_on_c, 6, 32, 110
12, 50688, Note_on_c, 6, 56, 110
12, 50688, Note_on_c, 6, 59, 110
12, 50688, Note_on_c, 6, 63, 110
12, 50782, Note_on_c, 6, 32, 0
12, 50782, Note_on_c, 6, 56, 0
12, 50782, Note_on_c, 6, 59, 0
12, 50782, Note_on_c, 6, 63, 0
12, 50784, Note_on_c, 6, 32, 110
12, 50784, Note_on_c, 6, 56, 110
12, 50784, Note_on_c, 6, 59, 110
12, 50784, Note_on_c, 6, 63, 110
12, 50878, Note_on_c, 6, 32, 0
12, 50878, Note_on_c, 6, 56, 0
12, 50878, Note_on_c, 6, 59, 0
12, 50878, Note_on_c, 6, 63, 0
12, 50880, Note_on_c, 6, 32, 110
12, 50880, Note_on_c, 6, 56, 110
12, 50880, Note_on_c, 6, 59, 110
12, 50880, Note_on_c, 6, 63, 110
12, 51022, Note_on_c, 6, 32, 0
12, 51022, Note_on_c, 6, 56, 0
12, 51022, Note_on_c, 6, 59, 0
12, 51022, Note_on_c, 6, 63, 0
12, 51024, Note_on_c, 6, 32, 110
12, 51024, Note_on_c, 6, 56, 110
12, 51024, Note_on_c, 6, 59, 110
12, 51024, Note_on_c, 6, 63, 110
12, 51184, Note_on_c, 6, 32, 0
12, 51184, Note_on_c, 6, 56, 0
12, 51184, Note_on_c, 6, 59, 0
12, 51184, Note_on_c, 6, 63, 0
12, 51216, Note_on_c, 6, 32, 110
12, 51216, Note_on_c, 6, 56, 110
12, 51216, Note_on_c, 6, 59, 110
12, 51216, Note_on_c, 6, 63, 110
12, 51310, Note_on_c, 6, 32, 0
12, 51310, Note_on_c, 6, 56, 0
12, 51310, Note_on_c, 6, 59, 0
12, 51310, Note_on_c, 6, 63, 0
12, 51312, Note_on_c, 6, 32, 110
12, 51312, Note_on_c, 6, 56, 110
12, 51312, Note_on_c, 6, 59, 110
12, 51312, Note_on_c, 6, 63, 110
12, 51454, Note_on_c, 6, 32, 0
12, 51454, Note_on_c, 6, 56, 0
12, 51454, Note_on_c, 6, 59, 0
12, 51454, Note_on_c, 6, 63, 0
12, 51456, Note_on_c, 6, 32, 110
12, 51456, Note_on_c, 6, 56, 110
12, 51456, Note_on_c, 6, 59, 110
12, 51456, Note_on_c, 6, 63, 110
12, 51550, Note_on_c, 6, 32, 0
12, 51550, Note_on_c, 6, 56, 0
12, 51550, Note_on_c, 6, 59, 0
12, 51550, Note_on_c, 6, 63, 0
12, 51552, Note_on_c, 6, 32, 110
12, 51552, Note_on_c, 6, 56, 110
12, 51552, Note_on_c, 6, 59, 110
12, 51552, Note_on_c, 6, 63, 110
12, 51646, Note_on_c, 6, 32, 0
12, 51646, Note_on_c, 6, 56, 0
12, 51646, Note_on_c, 6, 59, 0
12, 51646, Note_on_c, 6, 63, 0
12, 51648, Note_on_c, 6, 32, 110
12, 51648, Note_on_c, 6, 56, 110
12, 51648, Note_on_c, 6, 59, 110
12, 51648, Note_on_c, 6, 63, 110
12, 51790, Note_on_c, 6, 32, 0
12, 51790, Note_on_c, 6, 56, 0
12, 51790, Note_on_c, 6, 59, 0
12, 51790, Note_on_c, 6, 63, 0
12, 51792, Note_on_c, 6, 32, 110
12, 51792, Note_on_c, 6, 56, 110
12, 51792, Note_on_c, 6, 59, 110
12, 51792, Note_on_c, 6, 63, 110
12, 51952, Note_on_c, 6, 32, 0
12, 51952, Note_on_c, 6, 56, 0
12, 51952, Note_on_c, 6, 59, 0
12, 51952, Note_on_c, 6, 63, 0
12, 51984, Note_on_c, 6, 32, 110
12, 51984, Note_on_c, 6, 56, 110
12, 51984, Note_on_c, 6, 59, 110
12, 51984, Note_on_c, 6, 63, 110
12, 52078, Note_on_c, 6, 32, 0
12, 52078, Note_on_c, 6, 56, 0
12, 52078, Note_on_c, 6, 59, 0
12, 52078, Note_on_c, 6, 63, 0
12, 52080, Note_on_c, 6, 32, 110
12, 52080, Note_on_c, 6, 56, 110
12, 52080, Note_on_c, 6, 59, 110
12, 52080, Note_on_c, 6, 63, 110
12, 52222, Note_on_c, 6, 32, 0
12, 52222, Note_on_c, 6, 56, 0
12, 52222, Note_on_c, 6, 59, 0
12, 52222, Note_on_c, 6, 63, 0
12, 52224, Note_on_c, 6, 49, 110
12, 52224, Note_on_c, 6, 52, 110
12, 52224, Note_on_c, 6, 56, 110
12, 52272, Note_on_c, 6, 49, 0
12, 52272, Note_on_c, 6, 52, 0
12, 52272, Note_on_c, 6, 56, 0
12, 52992, Note_on_c, 6, 49, 110
12, 52992, Note_on_c, 6, 52, 110
12, 52992, Note_on_c, 6, 56, 110
12, 53040, Note_on_c, 6, 49, 0
12, 53040, Note_on_c, 6, 52, 0
12, 53040, Note_on_c, 6, 56, 0
12, 53760, Note_on_c, 6, 32, 110
12, 53760, Note_on_c, 6, 56, 110
12, 53760, Note_on_c, 6, 59, 110
12, 53760, Note_on_c, 6, 63, 110
12, 53854, Note_on_c, 6, 32, 0
12, 53854, Note_on_c, 6, 56, 0
12, 53854, Note_on_c, 6, 59, 0
12, 53854, Note_on_c, 6, 63, 0
12, 53856, Note_on_c, 6, 32, 110
12, 53856, Note_on_c, 6, 56, 110
12, 53856, Note_on_c, 6, 59, 110
12, 53856, Note_on_c, 6, 63, 110
12, 53950, Note_on_c, 6, 32, 0
12, 53950, Note_on_c, 6, 56, 0
12, 53950, Note_on_c, 6, 59, 0
12, 53950, Note_on_c, 6, 63, 0
12, 53952, Note_on_c, 6, 32, 110
12, 53952, Note_on_c, 6, 56, 110
12, 53952, Note_on_c, 6, 59, 110
12, 53952, Note_on_c, 6, 63, 110
12, 54094, Note_on_c, 6, 32, 0
12, 54094, Note_on_c, 6, 56, 0
12, 54094, Note_on_c, 6, 59, 0
12, 54094, Note_on_c, 6, 63, 0
12, 54096, Note_on_c, 6, 32, 110
12, 54096, Note_on_c, 6, 56, 110
12, 54096, Note_on_c, 6, 59, 110
12, 54096, Note_on_c, 6, 63, 110
12, 54256, Note_on_c, 6, 32, 0
12, 54256, Note_on_c, 6, 56, 0
12, 54256, Note_on_c, 6, 59, 0
12, 54256, Note_on_c, 6, 63, 0
12, 54288, Note_on_c, 6, 32, 110
12, 54288, Note_on_c, 6, 56, 110
12, 54288, Note_on_c, 6, 59, 110
12, 54288, Note_on_c, 6, 63, 110
12, 54382, Note_on_c, 6, 32, 0
12, 54382, Note_on_c, 6, 56, 0
12, 54382, Note_on_c, 6, 59, 0
12, 54382, Note_on_c, 6, 63, 0
12, 54384, Note_on_c, 6, 32, 110
12, 54384, Note_on_c, 6, 56, 110
12, 54384, Note_on_c, 6, 59, 110
12, 54384, Note_on_c, 6, 63, 110
12, 54526, Note_on_c, 6, 32, 0
12, 54526, Note_on_c, 6, 56, 0
12, 54526, Note_on_c, 6, 59, 0
12, 54526, Note_on_c, 6, 63, 0
12, 54528, Note_on_c, 6, 32, 110
12, 54528, Note_on_c, 6, 56, 110
12, 54528, Note_on_c, 6, 59, 110
12, 54528, Note_on_c, 6, 63, 110
12, 54622, Note_on_c, 6, 32, 0
12, 54622, Note_on_c, 6, 56, 0
12, 54622, Note_on_c, 6, 59, 0
12, 54622, Note_on_c, 6, 63, 0
12, 54624, Note_on_c, 6, 32, 110
12, 54624, Note_on_c, 6, 56, 110
12, 54624, Note_on_c, 6, 59, 110
12, 54624, Note_on_c, 6, 63, 110
12, 54718, Note_on_c, 6, 32, 0
12, 54718, Note_on_c, 6, 56, 0
12, 54718, Note_on_c, 6, 59, 0
12, 54718, Note_on_c, 6, 63, 0
12, 54720, Note_on_c, 6, 32, 110
12, 54720, Note_on_c, 6, 56, 110
12, 54720, Note_on_c, 6, 59, 110
12, 54720, Note_on_c, 6, 63, 110
12, 54862, Note_on_c, 6, 32, 0
12, 54862, Note_on_c, 6, 56, 0
12, 54862, Note_on_c, 6, 59, 0
12, 54862, Note_on_c, 6, 63, 0
12, 54864, Note_on_c, 6, 32, 110
12, 54864, Note_on_c, 6, 56, 110
12, 54864, Note_on_c, 6, 59, 110
12, 54864, Note_on_c, 6, 63, 110
12, 55024, Note_on_c, 6, 32, 0
12, 55024, Note_on_c, 6, 56, 0
12, 55024, Note_on_c, 6, 59, 0
12, 55024, Note_on_c, 6, 63, 0
12, 55056, Note_on_c, 6, 32, 110
12, 55056, Note_on_c, 6, 56, 110
12, 55056, Note_on_c, 6, 59, 110
12, 55056, Note_on_c, 6, 63, 110
12, 55150, Note_on_c, 6, 32, 0
12, 55150, Note_on_c, 6, 56, 0
12, 55150, Note_on_c, 6, 59, 0
12, 55150, Note_on_c, 6, 63, 0
12, 55152, Note_on_c, 6, 32, 110
12, 55152, Note_on_c, 6, 56, 110
12, 55152, Note_on_c, 6, 59, 110
12, 55152, Note_on_c, 6, 63, 110
12, 55294, Note_on_c, 6, 32, 0
12, 55294, Note_on_c, 6, 56, 0
12, 55294, Note_on_c, 6, 59, 0
12, 55294, Note_on_c, 6, 63, 0
12, 55296, Note_on_c, 6, 49, 110
12, 55296, Note_on_c, 6, 52, 110
12, 55296, Note_on_c, 6, 56, 110
12, 55344, Note_on_c, 6, 49, 0
12, 55344, Note_on_c, 6, 52, 0
12, 55344, Note_on_c, 6, 56, 0
12, 56064, Note_on_c, 6, 49, 110
12, 56064, Note_on_c, 6, 52, 110
12, 56064, Note_on_c, 6, 56, 110
12, 56112, Note_on_c, 6, 49, 0
12, 56112, Note_on_c, 6, 52, 0
12, 56112, Note_on_c, 6, 56, 0
12, 56832, Note_on_c, 6, 32, 110
12, 56832, Note_on_c, 6, 56, 110
12, 56832, Note_on_c, 6, 59, 110
12, 56832, Note_on_c, 6, 63, 110
12, 56926, Note_on_c, 6, 32, 0
12, 56926, Note_on_c, 6, 56, 0
12, 56926, Note_on_c, 6, 59, 0
12, 56926, Note_on_c, 6, 63, 0
12, 56928, Note_on_c, 6, 32, 110
12, 56928, Note_on_c, 6, 56, 110
12, 56928, Note_on_c, 6, 59, 110
12, 56928, Note_on_c, 6, 63, 110
12, 57022, Note_on_c, 6, 32, 0
12, 57022, Note_on_c, 6, 56, 0
12, 57022, Note_on_c, 6, 59, 0
12, 57022, Note_on_c, 6, 63, 0
12, 57024, Note_on_c, 6, 32, 110
12, 57024, Note_on_c, 6, 56, 110
12, 57024, Note_on_c, 6, 59, 110
12, 57024, Note_on_c, 6, 63, 110
12, 57166, Note_on_c, 6, 32, 0
12, 57166, Note_on_c, 6, 56, 0
12, 57166, Note_on_c, 6, 59, 0
12, 57166, Note_on_c, 6, 63, 0
12, 57168, Note_on_c, 6, 32, 110
12, 57168, Note_on_c, 6, 56, 110
12, 57168, Note_on_c, 6, 59, 110
12, 57168, Note_on_c, 6, 63, 110
12, 57328, Note_on_c, 6, 32, 0
12, 57328, Note_on_c, 6, 56, 0
12, 57328, Note_on_c, 6, 59, 0
12, 57328, Note_on_c, 6, 63, 0
12, 57360, Note_on_c, 6, 32, 110
12, 57360, Note_on_c, 6, 56, 110
12, 57360, Note_on_c, 6, 59, 110
12, 57360, Note_on_c, 6, 63, 110
12, 57454, Note_on_c, 6, 32, 0
12, 57454, Note_on_c, 6, 56, 0
12, 57454, Note_on_c, 6, 59, 0
12, 57454, Note_on_c, 6, 63, 0
12, 57456, Note_on_c, 6, 32, 110
12, 57456, Note_on_c, 6, 56, 110
12, 57456, Note_on_c, 6, 59, 110
12, 57456, Note_on_c, 6, 63, 110
12, 57598, Note_on_c, 6, 32, 0
12, 57598, Note_on_c, 6, 56, 0
12, 57598, Note_on_c, 6, 59, 0
12, 57598, Note_on_c, 6, 63, 0
12, 57600, Note_on_c, 6, 32, 110
12, 57600, Note_on_c, 6, 56, 110
12, 57600, Note_on_c, 6, 59, 110
12, 57600, Note_on_c, 6, 63, 110
12, 57694, Note_on_c, 6, 32, 0
12, 57694, Note_on_c, 6, 56, 0
12, 57694, Note_on_c, 6, 59, 0
12, 57694, Note_on_c, 6, 63, 0
12, 57696, Note_on_c, 6, 32, 110
12, 57696, Note_on_c, 6, 56, 110
12, 57696, Note_on_c, 6, 59, 110
12, 57696, Note_on_c, 6, 63, 110
12, 57790, Note_on_c, 6, 32, 0
12, 57790, Note_on_c, 6, 56, 0
12, 57790, Note_on_c, 6, 59, 0
12, 57790, Note_on_c, 6, 63, 0
12, 57792, Note_on_c, 6, 32, 110
12, 57792, Note_on_c, 6, 56, 110
12, 57792, Note_on_c, 6, 59, 110
12, 57792, Note_on_c, 6, 63, 110
12, 57934, Note_on_c, 6, 32, 0
12, 57934, Note_on_c, 6, 56, 0
12, 57934, Note_on_c, 6, 59, 0
12, 57934, Note_on_c, 6, 63, 0
12, 57936, Note_on_c, 6, 32, 110
12, 57936, Note_on_c, 6, 56, 110
12, 57936, Note_on_c, 6, 59, 110
12, 57936, Note_on_c, 6, 63, 110
12, 58096, Note_on_c, 6, 32, 0
12, 58096, Note_on_c, 6, 56, 0
12, 58096, Note_on_c, 6, 59, 0
12, 58096, Note_on_c, 6, 63, 0
12, 58128, Note_on_c, 6, 32, 110
12, 58128, Note_on_c, 6, 56, 110
12, 58128, Note_on_c, 6, 59, 110
12, 58128, Note_on_c, 6, 63, 110
12, 58222, Note_on_c, 6, 32, 0
12, 58222, Note_on_c, 6, 56, 0
12, 58222, Note_on_c, 6, 59, 0
12, 58222, Note_on_c, 6, 63, 0
12, 58224, Note_on_c, 6, 32, 110
12, 58224, Note_on_c, 6, 56, 110
12, 58224, Note_on_c, 6, 59, 110
12, 58224, Note_on_c, 6, 63, 110
12, 58366, Note_on_c, 6, 32, 0
12, 58366, Note_on_c, 6, 56, 0
12, 58366, Note_on_c, 6, 59, 0
12, 58366, Note_on_c, 6, 63, 0
12, 58368, Note_on_c, 6, 49, 110
12, 58368, Note_on_c, 6, 52, 110
12, 58368, Note_on_c, 6, 56, 110
12, 58416, Note_on_c, 6, 49, 0
12, 58416, Note_on_c, 6, 52, 0
12, 58416, Note_on_c, 6, 56, 0
12, 59136, Note_on_c, 6, 49, 110
12, 59136, Note_on_c, 6, 52, 110
12, 59136, Note_on_c, 6, 56, 110
12, 59184, Note_on_c, 6, 49, 0
12, 59184, Note_on_c, 6, 52, 0
12, 59184, Note_on_c, 6, 56, 0
12, 59904, Note_on_c, 6, 32, 110
12, 59904, Note_on_c, 6, 56, 110
12, 59904, Note_on_c, 6, 59, 110
12, 59904, Note_on_c, 6, 63, 110
12, 59998, Note_on_c, 6, 32, 0
12, 59998, Note_on_c, 6, 56, 0
12, 59998, Note_on_c, 6, 59, 0
12, 59998, Note_on_c, 6, 63, 0
12, 60000, Note_on_c, 6, 32, 110
12, 60000, Note_on_c, 6, 56, 110
12, 60000, Note_on_c, 6, 59, 110
12, 60000, Note_on_c, 6, 63, 110
12, 60094, Note_on_c, 6, 32, 0
12, 60094, Note_on_c, 6, 56, 0
12, 60094, Note_on_c, 6, 59, 0
12, 60094, Note_on_c, 6, 63, 0
12, 60096, Note_on_c, 6, 32, 110
12, 60096, Note_on_c, 6, 56, 110
12, 60096, Note_on_c, 6, 59, 110
12, 60096, Note_on_c, 6, 63, 110
12, 60238, Note_on_c, 6, 32, 0
12, 60238, Note_on_c, 6, 56, 0
12, 60238, Note_on_c, 6, 59, 0
12, 60238, Note_on_c, 6, 63, 0
12, 60240, Note_on_c, 6, 32, 110
12, 60240, Note_on_c, 6, 56, 110
12, 60240, Note_on_c, 6, 59, 110
12, 60240, Note_on_c, 6, 63, 110
12, 60400, Note_on_c, 6, 32, 0
12, 60400, Note_on_c, 6, 56, 0
12, 60400, Note_on_c, 6, 59, 0
12, 60400, Note_on_c, 6, 63, 0
12, 60432, Note_on_c, 6, 32, 110
12, 60432, Note_on_c, 6, 56, 110
12, 60432, Note_on_c, 6, 59, 110
12, 60432, Note_on_c, 6, 63, 110
12, 60526, Note_on_c, 6, 32, 0
12, 60526, Note_on_c, 6, 56, 0
12, 60526, Note_on_c, 6, 59, 0
12, 60526, Note_on_c, 6, 63, 0
12, 60528, Note_on_c, 6, 32, 110
12, 60528, Note_on_c, 6, 56, 110
12, 60528, Note_on_c, 6, 59, 110
12, 60528, Note_on_c, 6, 63, 110
12, 60670, Note_on_c, 6, 32, 0
12, 60670, Note_on_c, 6, 56, 0
12, 60670, Note_on_c, 6, 59, 0
12, 60670, Note_on_c, 6, 63, 0
12, 60672, Note_on_c, 6, 32, 110
12, 60672, Note_on_c, 6, 56, 110
12, 60672, Note_on_c, 6, 59, 110
12, 60672, Note_on_c, 6, 63, 110
12, 60766, Note_on_c, 6, 32, 0
12, 60766, Note_on_c, 6, 56, 0
12, 60766, Note_on_c, 6, 59, 0
12, 60766, Note_on_c, 6, 63, 0
12, 60768, Note_on_c, 6, 32, 110
12, 60768, Note_on_c, 6, 56, 110
12, 60768, Note_on_c, 6, 59, 110
12, 60768, Note_on_c, 6, 63, 110
12, 60862, Note_on_c, 6, 32, 0
12, 60862, Note_on_c, 6, 56, 0
12, 60862, Note_on_c, 6, 59, 0
12, 60862, Note_on_c, 6, 63, 0
12, 60864, Note_on_c, 6, 32, 110
12, 60864, Note_on_c, 6, 56, 110
12, 60864, Note_on_c, 6, 59, 110
12, 60864, Note_on_c, 6, 63, 110
12, 61006, Note_on_c, 6, 32, 0
12, 61006, Note_on_c, 6, 56, 0
12, 61006, Note_on_c, 6, 59, 0
12, 61006, Note_on_c, 6, 63, 0
12, 61008, Note_on_c, 6, 32, 110
12, 61008, Note_on_c, 6, 56, 110
12, 61008, Note_on_c, 6, 59, 110
12, 61008, Note_on_c, 6, 63, 110
12, 61168, Note_on_c, 6, 32, 0
12, 61168, Note_on_c, 6, 56, 0
12, 61168, Note_on_c, 6, 59, 0
12, 61168, Note_on_c, 6, 63, 0
12, 61200, Note_on_c, 6, 32, 110
12, 61200, Note_on_c, 6, 56, 110
12, 61200, Note_on_c, 6, 59, 110
12, 61200, Note_on_c, 6, 63, 110
12, 61294, Note_on_c, 6, 32, 0
12, 61294, Note_on_c, 6, 56, 0
12, 61294, Note_on_c, 6, 59, 0
12, 61294, Note_on_c, 6, 63, 0
12, 61296, Note_on_c, 6, 32, 110
12, 61296, Note_on_c, 6, 56, 110
12, 61296, Note_on_c, 6, 59, 110
12, 61296, Note_on_c, 6, 63, 110
12, 61438, Note_on_c, 6, 32, 0
12, 61438, Note_on_c, 6, 56, 0
12, 61438, Note_on_c, 6, 59, 0
12, 61438, Note_on_c, 6, 63, 0
12, 61438, End_track
0, 0, End_of_file
