0, 0, Header, 1, 6, 960
1, 0, Start_track
1, 0, Control_c, 0, 101, 0
1, 0, Control_c, 0, 100, 0
1, 0, Control_c, 0, 6, 12
1, 0, Control_c, 0, 38, 0
1, 0, Control_c, 1, 101, 0
1, 0, Control_c, 1, 100, 0
1, 0, Control_c, 1, 6, 12
1, 0, Control_c, 1, 38, 0
1, 0, Control_c, 2, 101, 0
1, 0, Control_c, 2, 100, 0
1, 0, Control_c, 2, 6, 12
1, 0, Control_c, 2, 38, 0
1, 0, Control_c, 3, 101, 0
1, 0, Control_c, 3, 100, 0
1, 0, Control_c, 3, 6, 12
1, 0, Control_c, 3, 38, 0
1, 0, Control_c, 4, 101, 0
1, 0, Control_c, 4, 100, 0
1, 0, Control_c, 4, 6, 12
1, 0, Control_c, 4, 38, 0
1, 0, Control_c, 5, 101, 0
1, 0, Control_c, 5, 100, 0
1, 0, Control_c, 5, 6, 12
1, 0, Control_c, 5, 38, 0
1, 0, Control_c, 6, 101, 0
1, 0, Control_c, 6, 100, 0
1, 0, Control_c, 6, 6, 12
1, 0, Control_c, 6, 38, 0
1, 0, Control_c, 7, 101, 0
1, 0, Control_c, 7, 100, 0
1, 0, Control_c, 7, 6, 12
1, 0, Control_c, 7, 38, 0
1, 0, Control_c, 8, 101, 0
1, 0, Control_c, 8, 100, 0
1, 0, Control_c, 8, 6, 12
1, 0, Control_c, 8, 38, 0
1, 0, Control_c, 9, 101, 0
1, 0, Control_c, 9, 100, 0
1, 0, Control_c, 9, 6, 12
1, 0, Control_c, 9, 38, 0
1, 0, Control_c, 10, 101, 0
1, 0, Control_c, 10, 100, 0
1, 0, Control_c, 10, 6, 12
1, 0, Control_c, 10, 38, 0
1, 0, Control_c, 11, 101, 0
1, 0, Control_c, 11, 100, 0
1, 0, Control_c, 11, 6, 12
1, 0, Control_c, 11, 38, 0
1, 0, Control_c, 12, 101, 0
1, 0, Control_c, 12, 100, 0
1, 0, Control_c, 12, 6, 12
1, 0, Control_c, 12, 38, 0
1, 0, Control_c, 13, 101, 0
1, 0, Control_c, 13, 100, 0
1, 0, Control_c, 13, 6, 12
1, 0, Control_c, 13, 38, 0
1, 0, Control_c, 14, 101, 0
1, 0, Control_c, 14, 100, 0
1, 0, Control_c, 14, 6, 12
1, 0, Control_c, 14, 38, 0
1, 0, Control_c, 15, 101, 0
1, 0, Control_c, 15, 100, 0
1, 0, Control_c, 15, 6, 12
1, 0, Control_c, 15, 38, 0
1, 0, Time_signature, 4, 2, 24, 8
1, 0, Tempo, 428571
1, 0, End_track
2, 0, Start_track
2, 0, Pitch_bend_c, 0, 8192
2, 0, Control_c, 0, 7, 127
2, 0, Control_c, 0, 10, 63
2, 0, Control_c, 0, 93, 0
2, 0, Control_c, 0, 91, 0
2, 0, Control_c, 0, 95, 0
2, 0, Control_c, 0, 92, 0
2, 0, Control_c, 0, 11, 127
2, 0, Program_c, 0, 27
2, 0, Control_c, 1, 7, 127
2, 0, Control_c, 1, 10, 63
2, 0, Control_c, 1, 93, 0
2, 0, Control_c, 1, 91, 0
2, 0, Control_c, 1, 95, 0
2, 0, Control_c, 1, 92, 0
2, 0, Control_c, 1, 11, 127
2, 0, Program_c, 1, 27
2, 18240, Note_on_c, 1, 65, 95
2, 18240, Note_on_c, 1, 60, 95
2, 18360, Pitch_bend_c, 1, 8320
2, 18360, Pitch_bend_c, 1, 8320
2, 18480, Pitch_bend_c, 1, 8448
2, 18480, Pitch_bend_c, 1, 8448
2, 18600, Pitch_bend_c, 1, 8704
2, 18600, Pitch_bend_c, 1, 8704
2, 18720, Pitch_bend_c, 1, 8832
2, 18720, Pitch_bend_c, 1, 8832
2, 18840, Pitch_bend_c, 1, 8960
2, 18840, Pitch_bend_c, 1, 8960
2, 18960, Pitch_bend_c, 1, 9216
2, 18960, Pitch_bend_c, 1, 9216
2, 19080, Pitch_bend_c, 1, 9344
2, 19080, Pitch_bend_c, 1, 9344
2, 19200, Pitch_bend_c, 1, 9600
2, 19200, Pitch_bend_c, 1, 8192
2, 19200, Note_off_c, 1, 65, 95
2, 19200, Pitch_bend_c, 1, 9600
2, 19200, Pitch_bend_c, 1, 8192
2, 19200, Note_off_c, 1, 60, 95
2, 19200, Note_on_c, 0, 67, 95
2, 19200, Note_on_c, 0, 62, 95
2, 23040, Note_off_c, 0, 67, 95
2, 23040, Note_off_c, 0, 62, 95
2, 23040, Note_on_c, 1, 71, 95
2, 23160, Pitch_bend_c, 1, 8064
2, 23280, Pitch_bend_c, 1, 7936
2, 23400, Pitch_bend_c, 1, 7680
2, 23520, Pitch_bend_c, 1, 7552
2, 23520, Pitch_bend_c, 1, 8192
2, 23520, Note_off_c, 1, 71, 95
2, 23520, Note_on_c, 1, 70, 95
2, 23640, Pitch_bend_c, 1, 8320
2, 23760, Pitch_bend_c, 1, 8448
2, 23880, Pitch_bend_c, 1, 8704
2, 24000, Pitch_bend_c, 1, 8832
2, 24000, Pitch_bend_c, 1, 8192
2, 24000, Note_off_c, 1, 70, 95
2, 24000, Note_on_c, 0, 71, 47
2, 24960, Note_off_c, 0, 71, 47
2, 26400, Note_on_c, 1, 62, 95
2, 26880, Note_off_c, 1, 62, 95
2, 26880, Note_on_c, 0, 67, 47
2, 30720, Note_off_c, 0, 67, 47
2, 30720, Note_on_c, 1, 67, 47
2, 34560, Note_off_c, 1, 67, 47
2, 34560, Note_on_c, 0, 50, 95
2, 34560, Note_on_c, 0, 43, 95
2, 35040, Note_off_c, 0, 50, 95
2, 35040, Note_off_c, 0, 43, 95
2, 35040, Note_on_c, 0, 50, 95
2, 35040, Note_on_c, 0, 43, 95
2, 35520, Note_off_c, 0, 50, 95
2, 35520, Note_off_c, 0, 43, 95
2, 35520, Note_on_c, 0, 52, 95
2, 35520, Note_on_c, 0, 43, 95
2, 36480, Note_off_c, 0, 52, 95
2, 36480, Note_off_c, 0, 43, 95
2, 36480, Note_on_c, 0, 50, 95
2, 36480, Note_on_c, 0, 43, 95
2, 36960, Note_off_c, 0, 50, 95
2, 36960, Note_off_c, 0, 43, 95
2, 36960, Note_on_c, 0, 50, 95
2, 36960, Note_on_c, 0, 43, 95
2, 37440, Note_off_c, 0, 50, 95
2, 37440, Note_off_c, 0, 43, 95
2, 37440, Note_on_c, 0, 52, 95
2, 37440, Note_on_c, 0, 43, 95
2, 38400, Note_off_c, 0, 52, 95
2, 38400, Note_off_c, 0, 43, 95
2, 38400, Note_on_c, 0, 50, 95
2, 38400, Note_on_c, 0, 43, 95
2, 38880, Note_off_c, 0, 50, 95
2, 38880, Note_off_c, 0, 43, 95
2, 38880, Note_on_c, 0, 50, 95
2, 38880, Note_on_c, 0, 43, 95
2, 39360, Note_off_c, 0, 50, 95
2, 39360, Note_off_c, 0, 43, 95
2, 39360, Note_on_c, 0, 52, 95
2, 39360, Note_on_c, 0, 43, 95
2, 40320, Note_off_c, 0, 52, 95
2, 40320, Note_off_c, 0, 43, 95
2, 40320, Note_on_c, 0, 50, 95
2, 40320, Note_on_c, 0, 43, 95
2, 40800, Note_off_c, 0, 50, 95
2, 40800, Note_off_c, 0, 43, 95
2, 40800, Note_on_c, 0, 50, 95
2, 40800, Note_on_c, 0, 43, 95
2, 41280, Note_off_c, 0, 50, 95
2, 41280, Note_off_c, 0, 43, 95
2, 41280, Note_on_c, 0, 52, 95
2, 41280, Note_on_c, 0, 43, 95
2, 42240, Note_off_c, 0, 52, 95
2, 42240, Note_off_c, 0, 43, 95
2, 42240, Note_on_c, 0, 50, 95
2, 42240, Note_on_c, 0, 43, 95
2, 42720, Note_off_c, 0, 50, 95
2, 42720, Note_off_c, 0, 43, 95
2, 42720, Note_on_c, 0, 50, 95
2, 42720, Note_on_c, 0, 43, 95
2, 43200, Note_off_c, 0, 50, 95
2, 43200, Note_off_c, 0, 43, 95
2, 43200, Note_on_c, 0, 52, 95
2, 43200, Note_on_c, 0, 43, 95
2, 44160, Note_off_c, 0, 52, 95
2, 44160, Note_off_c, 0, 43, 95
2, 44160, Note_on_c, 0, 50, 95
2, 44160, Note_on_c, 0, 43, 95
2, 44640, Note_off_c, 0, 50, 95
2, 44640, Note_off_c, 0, 43, 95
2, 44640, Note_on_c, 0, 50, 95
2, 44640, Note_on_c, 0, 43, 95
2, 45120, Note_off_c, 0, 50, 95
2, 45120, Note_off_c, 0, 43, 95
2, 45120, Note_on_c, 0, 52, 95
2, 45120, Note_on_c, 0, 43, 95
2, 46080, Note_off_c, 0, 52, 95
2, 46080, Note_off_c, 0, 43, 95
2, 46080, Note_on_c, 0, 57, 95
2, 46080, Note_on_c, 0, 50, 95
2, 46560, Note_off_c, 0, 57, 95
2, 46560, Note_off_c, 0, 50, 95
2, 46560, Note_on_c, 0, 57, 95
2, 46560, Note_on_c, 0, 50, 95
2, 47040, Note_off_c, 0, 57, 95
2, 47040, Note_off_c, 0, 50, 95
2, 47040, Note_on_c, 0, 59, 95
2, 47040, Note_on_c, 0, 50, 95
2, 48000, Note_off_c, 0, 59, 95
2, 48000, Note_off_c, 0, 50, 95
2, 48000, Note_on_c, 0, 57, 95
2, 48000, Note_on_c, 0, 50, 95
2, 48480, Note_off_c, 0, 57, 95
2, 48480, Note_off_c, 0, 50, 95
2, 48480, Note_on_c, 0, 57, 95
2, 48480, Note_on_c, 0, 50, 95
2, 48960, Note_off_c, 0, 57, 95
2, 48960, Note_off_c, 0, 50, 95
2, 48960, Note_on_c, 0, 59, 95
2, 48960, Note_on_c, 0, 50, 95
2, 49920, Note_off_c, 0, 59, 95
2, 49920, Note_off_c, 0, 50, 95
2, 49920, Note_on_c, 0, 57, 95
2, 49920, Note_on_c, 0, 50, 95
2, 50400, Note_off_c, 0, 57, 95
2, 50400, Note_off_c, 0, 50, 95
2, 50400, Note_on_c, 0, 57, 95
2, 50400, Note_on_c, 0, 50, 95
2, 50880, Note_off_c, 0, 57, 95
2, 50880, Note_off_c, 0, 50, 95
2, 50880, Note_on_c, 0, 59, 95
2, 50880, Note_on_c, 0, 50, 95
2, 51840, Note_off_c, 0, 59, 95
2, 51840, Note_off_c, 0, 50, 95
2, 51840, Note_on_c, 0, 57, 95
2, 51840, Note_on_c, 0, 50, 95
2, 52320, Note_off_c, 0, 57, 95
2, 52320, Note_off_c, 0, 50, 95
2, 52320, Note_on_c, 0, 57, 95
2, 52320, Note_on_c, 0, 50, 95
2, 52800, Note_off_c, 0, 57, 95
2, 52800, Note_off_c, 0, 50, 95
2, 52800, Note_on_c, 0, 59, 95
2, 52800, Note_on_c, 0, 50, 95
2, 53760, Note_off_c, 0, 59, 95
2, 53760, Note_off_c, 0, 50, 95
2, 53760, Note_on_c, 0, 57, 95
2, 53760, Note_on_c, 0, 50, 95
2, 54240, Note_off_c, 0, 57, 95
2, 54240, Note_off_c, 0, 50, 95
2, 54240, Note_on_c, 0, 57, 95
2, 54240, Note_on_c, 0, 50, 95
2, 54720, Note_off_c, 0, 57, 95
2, 54720, Note_off_c, 0, 50, 95
2, 54720, Note_on_c, 0, 59, 95
2, 54720, Note_on_c, 0, 50, 95
2, 55680, Note_off_c, 0, 59, 95
2, 55680, Note_off_c, 0, 50, 95
2, 55680, Note_on_c, 0, 57, 95
2, 55680, Note_on_c, 0, 50, 95
2, 56160, Note_off_c, 0, 57, 95
2, 56160, Note_off_c, 0, 50, 95
2, 56160, Note_on_c, 0, 57, 95
2, 56160, Note_on_c, 0, 50, 95
2, 56640, Note_off_c, 0, 57, 95
2, 56640, Note_off_c, 0, 50, 95
2, 56640, Note_on_c, 0, 59, 95
2, 56640, Note_on_c, 0, 50, 95
2, 57600, Note_off_c, 0, 59, 95
2, 57600, Note_off_c, 0, 50, 95
2, 57600, Note_on_c, 0, 57, 95
2, 57600, Note_on_c, 0, 50, 95
2, 58080, Note_off_c, 0, 57, 95
2, 58080, Note_off_c, 0, 50, 95
2, 58080, Note_on_c, 0, 57, 95
2, 58080, Note_on_c, 0, 50, 95
2, 58560, Note_off_c, 0, 57, 95
2, 58560, Note_off_c, 0, 50, 95
2, 58560, Note_on_c, 0, 59, 95
2, 58560, Note_on_c, 0, 50, 95
2, 59520, Note_off_c, 0, 59, 95
2, 59520, Note_off_c, 0, 50, 95
2, 59520, Note_on_c, 0, 57, 95
2, 59520, Note_on_c, 0, 50, 95
2, 60000, Note_off_c, 0, 57, 95
2, 60000, Note_off_c, 0, 50, 95
2, 60000, Note_on_c, 0, 57, 95
2, 60000, Note_on_c, 0, 50, 95
2, 60480, Note_off_c, 0, 57, 95
2, 60480, Note_off_c, 0, 50, 95
2, 60480, Note_on_c, 0, 59, 95
2, 60480, Note_on_c, 0, 50, 95
2, 60960, Note_off_c, 0, 59, 95
2, 60960, Note_off_c, 0, 50, 95
2, 60960, Note_on_c, 0, 50, 95
2, 60960, Note_on_c, 0, 43, 95
2, 61920, Note_off_c, 0, 50, 95
2, 61920, Note_off_c, 0, 43, 95
2, 61920, Note_on_c, 0, 50, 95
2, 61920, Note_on_c, 0, 43, 95
2, 62400, Note_off_c, 0, 50, 95
2, 62400, Note_off_c, 0, 43, 95
2, 62400, Note_on_c, 0, 52, 95
2, 62400, Note_on_c, 0, 43, 95
2, 63360, Note_off_c, 0, 52, 95
2, 63360, Note_off_c, 0, 43, 95
2, 63360, Note_on_c, 0, 50, 95
2, 63360, Note_on_c, 0, 43, 95
2, 63840, Note_off_c, 0, 50, 95
2, 63840, Note_off_c, 0, 43, 95
2, 63840, Note_on_c, 0, 50, 95
2, 63840, Note_on_c, 0, 43, 95
2, 64320, Note_off_c, 0, 50, 95
2, 64320, Note_off_c, 0, 43, 95
2, 64320, Note_on_c, 0, 52, 95
2, 64320, Note_on_c, 0, 43, 95
2, 65280, Note_off_c, 0, 52, 95
2, 65280, Note_off_c, 0, 43, 95
2, 65280, Note_on_c, 0, 50, 95
2, 65280, Note_on_c, 0, 43, 95
2, 65760, Note_off_c, 0, 50, 95
2, 65760, Note_off_c, 0, 43, 95
2, 65760, Note_on_c, 0, 50, 95
2, 65760, Note_on_c, 0, 43, 95
2, 66240, Note_off_c, 0, 50, 95
2, 66240, Note_off_c, 0, 43, 95
2, 66240, Note_on_c, 0, 52, 95
2, 66240, Note_on_c, 0, 43, 95
2, 67200, Note_off_c, 0, 52, 95
2, 67200, Note_off_c, 0, 43, 95
2, 67200, Note_on_c, 0, 50, 95
2, 67200, Note_on_c, 0, 43, 95
2, 67680, Note_off_c, 0, 50, 95
2, 67680, Note_off_c, 0, 43, 95
2, 67680, Note_on_c, 0, 50, 95
2, 67680, Note_on_c, 0, 43, 95
2, 68160, Note_off_c, 0, 50, 95
2, 68160, Note_off_c, 0, 43, 95
2, 68160, Note_on_c, 0, 52, 95
2, 68160, Note_on_c, 0, 43, 95
2, 69120, Note_off_c, 0, 52, 95
2, 69120, Note_off_c, 0, 43, 95
2, 69120, Note_on_c, 0, 50, 95
2, 69120, Note_on_c, 0, 43, 95
2, 69600, Note_off_c, 0, 50, 95
2, 69600, Note_off_c, 0, 43, 95
2, 69600, Note_on_c, 0, 50, 95
2, 69600, Note_on_c, 0, 43, 95
2, 70080, Note_off_c, 0, 50, 95
2, 70080, Note_off_c, 0, 43, 95
2, 70080, Note_on_c, 0, 52, 95
2, 70080, Note_on_c, 0, 43, 95
2, 71040, Note_off_c, 0, 52, 95
2, 71040, Note_off_c, 0, 43, 95
2, 71040, Note_on_c, 0, 50, 95
2, 71040, Note_on_c, 0, 43, 95
2, 71520, Note_off_c, 0, 50, 95
2, 71520, Note_off_c, 0, 43, 95
2, 71520, Note_on_c, 0, 50, 95
2, 71520, Note_on_c, 0, 43, 95
2, 72000, Note_off_c, 0, 50, 95
2, 72000, Note_off_c, 0, 43, 95
2, 72000, Note_on_c, 0, 52, 95
2, 72000, Note_on_c, 0, 43, 95
2, 72960, Note_off_c, 0, 52, 95
2, 72960, Note_off_c, 0, 43, 95
2, 72960, Note_on_c, 0, 50, 95
2, 72960, Note_on_c, 0, 43, 95
2, 73440, Note_off_c, 0, 50, 95
2, 73440, Note_off_c, 0, 43, 95
2, 73440, Note_on_c, 0, 50, 95
2, 73440, Note_on_c, 0, 43, 95
2, 73920, Note_off_c, 0, 50, 95
2, 73920, Note_off_c, 0, 43, 95
2, 73920, Note_on_c, 0, 52, 95
2, 73920, Note_on_c, 0, 43, 95
2, 74880, Note_off_c, 0, 52, 95
2, 74880, Note_off_c, 0, 43, 95
2, 74880, Note_on_c, 0, 50, 95
2, 74880, Note_on_c, 0, 43, 95
2, 75360, Note_off_c, 0, 50, 95
2, 75360, Note_off_c, 0, 43, 95
2, 75360, Note_on_c, 0, 50, 95
2, 75360, Note_on_c, 0, 43, 95
2, 75840, Note_off_c, 0, 50, 95
2, 75840, Note_off_c, 0, 43, 95
2, 75840, Note_on_c, 0, 52, 95
2, 75840, Note_on_c, 0, 43, 95
2, 76800, Note_off_c, 0, 52, 95
2, 76800, Note_off_c, 0, 43, 95
2, 76800, Note_on_c, 0, 57, 95
2, 76800, Note_on_c, 0, 50, 95
2, 77280, Note_off_c, 0, 57, 95
2, 77280, Note_off_c, 0, 50, 95
2, 77280, Note_on_c, 0, 57, 95
2, 77280, Note_on_c, 0, 50, 95
2, 77760, Note_off_c, 0, 57, 95
2, 77760, Note_off_c, 0, 50, 95
2, 77760, Note_on_c, 0, 59, 95
2, 77760, Note_on_c, 0, 50, 95
2, 78720, Note_off_c, 0, 59, 95
2, 78720, Note_off_c, 0, 50, 95
2, 78720, Note_on_c, 0, 57, 95
2, 78720, Note_on_c, 0, 50, 95
2, 79200, Note_off_c, 0, 57, 95
2, 79200, Note_off_c, 0, 50, 95
2, 79200, Note_on_c, 0, 57, 95
2, 79200, Note_on_c, 0, 50, 95
2, 79680, Note_off_c, 0, 57, 95
2, 79680, Note_off_c, 0, 50, 95
2, 79680, Note_on_c, 0, 59, 95
2, 79680, Note_on_c, 0, 50, 95
2, 80640, Note_off_c, 0, 59, 95
2, 80640, Note_off_c, 0, 50, 95
2, 80640, Note_on_c, 0, 57, 95
2, 80640, Note_on_c, 0, 50, 95
2, 81120, Note_off_c, 0, 57, 95
2, 81120, Note_off_c, 0, 50, 95
2, 81120, Note_on_c, 0, 57, 95
2, 81120, Note_on_c, 0, 50, 95
2, 81600, Note_off_c, 0, 57, 95
2, 81600, Note_off_c, 0, 50, 95
2, 81600, Note_on_c, 0, 59, 95
2, 81600, Note_on_c, 0, 50, 95
2, 82560, Note_off_c, 0, 59, 95
2, 82560, Note_off_c, 0, 50, 95
2, 82560, Note_on_c, 0, 57, 95
2, 82560, Note_on_c, 0, 50, 95
2, 83040, Note_off_c, 0, 57, 95
2, 83040, Note_off_c, 0, 50, 95
2, 83040, Note_on_c, 0, 57, 95
2, 83040, Note_on_c, 0, 50, 95
2, 83520, Note_off_c, 0, 57, 95
2, 83520, Note_off_c, 0, 50, 95
2, 83520, Note_on_c, 0, 59, 95
2, 83520, Note_on_c, 0, 50, 95
2, 84480, Note_off_c, 0, 59, 95
2, 84480, Note_off_c, 0, 50, 95
2, 84480, Note_on_c, 0, 57, 95
2, 84480, Note_on_c, 0, 50, 95
2, 84960, Note_off_c, 0, 57, 95
2, 84960, Note_off_c, 0, 50, 95
2, 84960, Note_on_c, 0, 57, 95
2, 84960, Note_on_c, 0, 50, 95
2, 85440, Note_off_c, 0, 57, 95
2, 85440, Note_off_c, 0, 50, 95
2, 85440, Note_on_c, 0, 59, 95
2, 85440, Note_on_c, 0, 50, 95
2, 86400, Note_off_c, 0, 59, 95
2, 86400, Note_off_c, 0, 50, 95
2, 86400, Note_on_c, 0, 57, 95
2, 86400, Note_on_c, 0, 50, 95
2, 86880, Note_off_c, 0, 57, 95
2, 86880, Note_off_c, 0, 50, 95
2, 86880, Note_on_c, 0, 57, 95
2, 86880, Note_on_c, 0, 50, 95
2, 87360, Note_off_c, 0, 57, 95
2, 87360, Note_off_c, 0, 50, 95
2, 87360, Note_on_c, 0, 59, 95
2, 87360, Note_on_c, 0, 50, 95
2, 88320, Note_off_c, 0, 59, 95
2, 88320, Note_off_c, 0, 50, 95
2, 88320, Note_on_c, 0, 57, 95
2, 88320, Note_on_c, 0, 50, 95
2, 88800, Note_off_c, 0, 57, 95
2, 88800, Note_off_c, 0, 50, 95
2, 88800, Note_on_c, 0, 57, 95
2, 88800, Note_on_c, 0, 50, 95
2, 89280, Note_off_c, 0, 57, 95
2, 89280, Note_off_c, 0, 50, 95
2, 89280, Note_on_c, 0, 59, 95
2, 89280, Note_on_c, 0, 50, 95
2, 90240, Note_off_c, 0, 59, 95
2, 90240, Note_off_c, 0, 50, 95
2, 90240, Note_on_c, 0, 57, 95
2, 90240, Note_on_c, 0, 50, 95
2, 90720, Note_off_c, 0, 57, 95
2, 90720, Note_off_c, 0, 50, 95
2, 90720, Note_on_c, 0, 57, 95
2, 90720, Note_on_c, 0, 50, 95
2, 91200, Note_off_c, 0, 57, 95
2, 91200, Note_off_c, 0, 50, 95
2, 91200, Note_on_c, 0, 59, 95
2, 91200, Note_on_c, 0, 50, 95
2, 92160, Note_off_c, 0, 59, 95
2, 92160, Note_off_c, 0, 50, 95
2, 92160, Note_on_c, 0, 50, 95
2, 92160, Note_on_c, 0, 43, 95
2, 92640, Note_off_c, 0, 50, 95
2, 92640, Note_off_c, 0, 43, 95
2, 92640, Note_on_c, 0, 50, 95
2, 92640, Note_on_c, 0, 43, 95
2, 93120, Note_off_c, 0, 50, 95
2, 93120, Note_off_c, 0, 43, 95
2, 93120, Note_on_c, 0, 52, 95
2, 93120, Note_on_c, 0, 43, 95
2, 94080, Note_off_c, 0, 52, 95
2, 94080, Note_off_c, 0, 43, 95
2, 94080, Note_on_c, 0, 50, 95
2, 94080, Note_on_c, 0, 43, 95
2, 94560, Note_off_c, 0, 50, 95
2, 94560, Note_off_c, 0, 43, 95
2, 94560, Note_on_c, 0, 50, 95
2, 94560, Note_on_c, 0, 43, 95
2, 95040, Note_off_c, 0, 50, 95
2, 95040, Note_off_c, 0, 43, 95
2, 95040, Note_on_c, 0, 52, 95
2, 95040, Note_on_c, 0, 43, 95
2, 96000, Note_off_c, 0, 52, 95
2, 96000, Note_off_c, 0, 43, 95
2, 96000, Note_on_c, 0, 50, 95
2, 96000, Note_on_c, 0, 43, 95
2, 96480, Note_off_c, 0, 50, 95
2, 96480, Note_off_c, 0, 43, 95
2, 96480, Note_on_c, 0, 50, 95
2, 96480, Note_on_c, 0, 43, 95
2, 96960, Note_off_c, 0, 50, 95
2, 96960, Note_off_c, 0, 43, 95
2, 96960, Note_on_c, 0, 52, 95
2, 96960, Note_on_c, 0, 43, 95
2, 97920, Note_off_c, 0, 52, 95
2, 97920, Note_off_c, 0, 43, 95
2, 97920, Note_on_c, 0, 50, 95
2, 97920, Note_on_c, 0, 43, 95
2, 98400, Note_off_c, 0, 50, 95
2, 98400, Note_off_c, 0, 43, 95
2, 98400, Note_on_c, 0, 50, 95
2, 98400, Note_on_c, 0, 43, 95
2, 98880, Note_off_c, 0, 50, 95
2, 98880, Note_off_c, 0, 43, 95
2, 98880, Note_on_c, 0, 52, 95
2, 98880, Note_on_c, 0, 43, 95
2, 99840, Note_off_c, 0, 52, 95
2, 99840, Note_off_c, 0, 43, 95
2, 99840, Note_on_c, 0, 50, 95
2, 99840, Note_on_c, 0, 43, 95
2, 100320, Note_off_c, 0, 50, 95
2, 100320, Note_off_c, 0, 43, 95
2, 100320, Note_on_c, 0, 50, 95
2, 100320, Note_on_c, 0, 43, 95
2, 100800, Note_off_c, 0, 50, 95
2, 100800, Note_off_c, 0, 43, 95
2, 100800, Note_on_c, 0, 52, 95
2, 100800, Note_on_c, 0, 43, 95
2, 101760, Note_off_c, 0, 52, 95
2, 101760, Note_off_c, 0, 43, 95
2, 101760, Note_on_c, 0, 50, 95
2, 101760, Note_on_c, 0, 43, 95
2, 102240, Note_off_c, 0, 50, 95
2, 102240, Note_off_c, 0, 43, 95
2, 102240, Note_on_c, 0, 50, 95
2, 102240, Note_on_c, 0, 43, 95
2, 102720, Note_off_c, 0, 50, 95
2, 102720, Note_off_c, 0, 43, 95
2, 102720, Note_on_c, 0, 52, 95
2, 102720, Note_on_c, 0, 43, 95
2, 103680, Note_off_c, 0, 52, 95
2, 103680, Note_off_c, 0, 43, 95
2, 103680, Note_on_c, 0, 50, 95
2, 103680, Note_on_c, 0, 43, 95
2, 104160, Note_off_c, 0, 50, 95
2, 104160, Note_off_c, 0, 43, 95
2, 104160, Note_on_c, 0, 50, 95
2, 104160, Note_on_c, 0, 43, 95
2, 104640, Note_off_c, 0, 50, 95
2, 104640, Note_off_c, 0, 43, 95
2, 104640, Note_on_c, 0, 52, 95
2, 104640, Note_on_c, 0, 43, 95
2, 105600, Note_off_c, 0, 52, 95
2, 105600, Note_off_c, 0, 43, 95
2, 105600, Note_on_c, 0, 50, 95
2, 105600, Note_on_c, 0, 43, 95
2, 106080, Note_off_c, 0, 50, 95
2, 106080, Note_off_c, 0, 43, 95
2, 106080, Note_on_c, 0, 50, 95
2, 106080, Note_on_c, 0, 43, 95
2, 106560, Note_off_c, 0, 50, 95
2, 106560, Note_off_c, 0, 43, 95
2, 106560, Note_on_c, 0, 52, 95
2, 106560, Note_on_c, 0, 43, 95
2, 107520, Note_off_c, 0, 52, 95
2, 107520, Note_off_c, 0, 43, 95
2, 107520, Note_on_c, 0, 57, 95
2, 107520, Note_on_c, 0, 50, 95
2, 108000, Note_off_c, 0, 57, 95
2, 108000, Note_off_c, 0, 50, 95
2, 108000, Note_on_c, 0, 57, 95
2, 108000, Note_on_c, 0, 50, 95
2, 108480, Note_off_c, 0, 57, 95
2, 108480, Note_off_c, 0, 50, 95
2, 108480, Note_on_c, 0, 59, 95
2, 108480, Note_on_c, 0, 50, 95
2, 109440, Note_off_c, 0, 59, 95
2, 109440, Note_off_c, 0, 50, 95
2, 109440, Note_on_c, 0, 57, 95
2, 109440, Note_on_c, 0, 50, 95
2, 109920, Note_off_c, 0, 57, 95
2, 109920, Note_off_c, 0, 50, 95
2, 109920, Note_on_c, 0, 57, 95
2, 109920, Note_on_c, 0, 50, 95
2, 110400, Note_off_c, 0, 57, 95
2, 110400, Note_off_c, 0, 50, 95
2, 110400, Note_on_c, 0, 59, 95
2, 110400, Note_on_c, 0, 50, 95
2, 111360, Note_off_c, 0, 59, 95
2, 111360, Note_off_c, 0, 50, 95
2, 111360, Note_on_c, 0, 57, 95
2, 111360, Note_on_c, 0, 50, 95
2, 111840, Note_off_c, 0, 57, 95
2, 111840, Note_off_c, 0, 50, 95
2, 111840, Note_on_c, 0, 57, 95
2, 111840, Note_on_c, 0, 50, 95
2, 112320, Note_off_c, 0, 57, 95
2, 112320, Note_off_c, 0, 50, 95
2, 112320, Note_on_c, 0, 59, 95
2, 112320, Note_on_c, 0, 50, 95
2, 113280, Note_off_c, 0, 59, 95
2, 113280, Note_off_c, 0, 50, 95
2, 113280, Note_on_c, 0, 57, 95
2, 113280, Note_on_c, 0, 50, 95
2, 113760, Note_off_c, 0, 57, 95
2, 113760, Note_off_c, 0, 50, 95
2, 113760, Note_on_c, 0, 57, 95
2, 113760, Note_on_c, 0, 50, 95
2, 114240, Note_off_c, 0, 57, 95
2, 114240, Note_off_c, 0, 50, 95
2, 114240, Note_on_c, 0, 59, 95
2, 114240, Note_on_c, 0, 50, 95
2, 115200, Note_off_c, 0, 59, 95
2, 115200, Note_off_c, 0, 50, 95
2, 115200, Note_on_c, 0, 57, 95
2, 115200, Note_on_c, 0, 50, 95
2, 115680, Note_off_c, 0, 57, 95
2, 115680, Note_off_c, 0, 50, 95
2, 115680, Note_on_c, 0, 57, 95
2, 115680, Note_on_c, 0, 50, 95
2, 116160, Note_off_c, 0, 57, 95
2, 116160, Note_off_c, 0, 50, 95
2, 116160, Note_on_c, 0, 59, 95
2, 116160, Note_on_c, 0, 50, 95
2, 117120, Note_off_c, 0, 59, 95
2, 117120, Note_off_c, 0, 50, 95
2, 117120, Note_on_c, 0, 57, 95
2, 117120, Note_on_c, 0, 50, 95
2, 117600, Note_off_c, 0, 57, 95
2, 117600, Note_off_c, 0, 50, 95
2, 117600, Note_on_c, 0, 57, 95
2, 117600, Note_on_c, 0, 50, 95
2, 118080, Note_off_c, 0, 57, 95
2, 118080, Note_off_c, 0, 50, 95
2, 118080, Note_on_c, 0, 59, 95
2, 118080, Note_on_c, 0, 50, 95
2, 119040, Note_off_c, 0, 59, 95
2, 119040, Note_off_c, 0, 50, 95
2, 119040, Note_on_c, 0, 57, 95
2, 119040, Note_on_c, 0, 50, 95
2, 119520, Note_off_c, 0, 57, 95
2, 119520, Note_off_c, 0, 50, 95
2, 119520, Note_on_c, 0, 57, 95
2, 119520, Note_on_c, 0, 50, 95
2, 120000, Note_off_c, 0, 57, 95
2, 120000, Note_off_c, 0, 50, 95
2, 120000, Note_on_c, 0, 59, 95
2, 120000, Note_on_c, 0, 50, 95
2, 120960, Note_off_c, 0, 59, 95
2, 120960, Note_off_c, 0, 50, 95
2, 120960, Note_on_c, 0, 57, 95
2, 120960, Note_on_c, 0, 50, 95
2, 121440, Note_off_c, 0, 57, 95
2, 121440, Note_off_c, 0, 50, 95
2, 121440, Note_on_c, 0, 57, 95
2, 121440, Note_on_c, 0, 50, 95
2, 121920, Note_off_c, 0, 57, 95
2, 121920, Note_off_c, 0, 50, 95
2, 121920, Note_on_c, 0, 59, 95
2, 121920, Note_on_c, 0, 50, 95
2, 122880, Note_off_c, 0, 59, 95
2, 122880, Note_off_c, 0, 50, 95
2, 126240, Note_on_c, 0, 62, 95
2, 126720, Note_off_c, 0, 62, 95
2, 126720, Note_on_c, 0, 71, 95
2, 126720, Note_on_c, 0, 67, 95
2, 128160, Note_off_c, 0, 71, 95
2, 128160, Note_off_c, 0, 67, 95
2, 128160, Note_on_c, 0, 62, 95
2, 128640, Note_off_c, 0, 62, 95
2, 128640, Note_on_c, 0, 71, 95
2, 128640, Note_on_c, 0, 67, 95
2, 130080, Note_off_c, 0, 71, 95
2, 130080, Note_off_c, 0, 67, 95
2, 130080, Note_on_c, 0, 62, 95
2, 130560, Note_off_c, 0, 62, 95
2, 130560, Note_on_c, 0, 71, 95
2, 130560, Note_on_c, 0, 67, 95
2, 131040, Note_off_c, 0, 71, 95
2, 131040, Note_off_c, 0, 67, 95
2, 131040, Note_on_c, 0, 71, 95
2, 131040, Note_on_c, 0, 67, 95
2, 131520, Note_off_c, 0, 71, 95
2, 131520, Note_off_c, 0, 67, 95
2, 132000, Note_on_c, 0, 71, 95
2, 132000, Note_on_c, 0, 67, 95
2, 134400, Note_off_c, 0, 71, 95
2, 134400, Note_off_c, 0, 67, 95
2, 134400, Note_on_c, 1, 71, 95
2, 134520, Pitch_bend_c, 1, 7936
2, 134640, Pitch_bend_c, 1, 7552
2, 134760, Pitch_bend_c, 1, 7168
2, 134880, Pitch_bend_c, 1, 6784
2, 134880, Pitch_bend_c, 1, 8192
2, 134880, Note_off_c, 1, 71, 95
2, 134880, Note_on_c, 0, 69, 95
2, 135360, Note_off_c, 0, 69, 95
2, 135360, Note_on_c, 0, 69, 95
2, 136320, Note_off_c, 0, 69, 95
2, 136320, Note_on_c, 0, 67, 95
2, 137280, Note_off_c, 0, 67, 95
2, 137280, Note_on_c, 0, 65, 95
2, 138240, Note_off_c, 0, 65, 95
2, 138240, Note_on_c, 0, 66, 95
2, 138240, Note_on_c, 0, 62, 95
2, 141120, Note_off_c, 0, 66, 95
2, 141120, Note_off_c, 0, 62, 95
2, 141600, Note_on_c, 0, 62, 95
2, 142080, Note_off_c, 0, 62, 95
2, 142080, Note_on_c, 0, 69, 95
2, 143520, Note_off_c, 0, 69, 95
2, 143520, Note_on_c, 0, 62, 95
2, 144000, Note_off_c, 0, 62, 95
2, 144000, Note_on_c, 0, 69, 95
2, 145440, Note_off_c, 0, 69, 95
2, 145440, Note_on_c, 0, 62, 95
2, 145920, Note_off_c, 0, 62, 95
2, 145920, Note_on_c, 0, 69, 95
2, 146400, Note_off_c, 0, 69, 95
2, 146400, Note_on_c, 0, 69, 95
2, 146880, Note_off_c, 0, 69, 95
2, 147360, Note_on_c, 0, 69, 95
2, 149760, Note_off_c, 0, 69, 95
2, 149760, Note_on_c, 0, 71, 95
2, 150720, Note_off_c, 0, 71, 95
2, 150720, Note_on_c, 0, 69, 95
2, 151680, Note_off_c, 0, 69, 95
2, 151680, Note_on_c, 0, 67, 95
2, 152640, Note_off_c, 0, 67, 95
2, 152640, Note_on_c, 0, 66, 95
2, 153600, Note_off_c, 0, 66, 95
2, 153600, Note_on_c, 0, 59, 95
2, 154560, Note_off_c, 0, 59, 95
2, 154560, Note_on_c, 0, 55, 95
2, 157440, Note_off_c, 0, 55, 95
2, 157440, Note_on_c, 0, 62, 95
2, 157920, Note_off_c, 0, 62, 95
2, 157920, Note_on_c, 0, 71, 95
2, 159360, Note_off_c, 0, 71, 95
2, 159360, Note_on_c, 0, 71, 95
2, 159840, Note_off_c, 0, 71, 95
2, 159840, Note_on_c, 0, 69, 70
2, 160320, Note_off_c, 0, 69, 70
2, 160320, Note_on_c, 0, 67, 95
2, 161280, Note_off_c, 0, 67, 95
2, 161280, Note_on_c, 0, 50, 95
2, 161280, Note_on_c, 0, 43, 95
2, 161760, Note_off_c, 0, 50, 95
2, 161760, Note_off_c, 0, 43, 95
2, 161760, Note_on_c, 0, 50, 95
2, 161760, Note_on_c, 0, 43, 95
2, 162240, Note_off_c, 0, 50, 95
2, 162240, Note_off_c, 0, 43, 95
2, 162240, Note_on_c, 0, 52, 95
2, 162240, Note_on_c, 0, 43, 95
2, 163200, Note_off_c, 0, 52, 95
2, 163200, Note_off_c, 0, 43, 95
2, 163200, Note_on_c, 0, 50, 95
2, 163200, Note_on_c, 0, 43, 95
2, 163680, Note_off_c, 0, 50, 95
2, 163680, Note_off_c, 0, 43, 95
2, 163680, Note_on_c, 0, 50, 95
2, 163680, Note_on_c, 0, 43, 95
2, 164160, Note_off_c, 0, 50, 95
2, 164160, Note_off_c, 0, 43, 95
2, 164160, Note_on_c, 0, 52, 95
2, 164160, Note_on_c, 0, 43, 95
2, 165120, Note_off_c, 0, 52, 95
2, 165120, Note_off_c, 0, 43, 95
2, 165120, Note_on_c, 0, 50, 95
2, 165120, Note_on_c, 0, 43, 95
2, 165600, Note_off_c, 0, 50, 95
2, 165600, Note_off_c, 0, 43, 95
2, 165600, Note_on_c, 0, 50, 95
2, 165600, Note_on_c, 0, 43, 95
2, 166080, Note_off_c, 0, 50, 95
2, 166080, Note_off_c, 0, 43, 95
2, 166080, Note_on_c, 0, 52, 95
2, 166080, Note_on_c, 0, 43, 95
2, 167040, Note_off_c, 0, 52, 95
2, 167040, Note_off_c, 0, 43, 95
2, 167040, Note_on_c, 0, 50, 95
2, 167040, Note_on_c, 0, 43, 95
2, 167520, Note_off_c, 0, 50, 95
2, 167520, Note_off_c, 0, 43, 95
2, 167520, Note_on_c, 0, 50, 95
2, 167520, Note_on_c, 0, 43, 95
2, 168000, Note_off_c, 0, 50, 95
2, 168000, Note_off_c, 0, 43, 95
2, 168000, Note_on_c, 0, 52, 95
2, 168000, Note_on_c, 0, 43, 95
2, 168960, Note_off_c, 0, 52, 95
2, 168960, Note_off_c, 0, 43, 95
2, 168960, Note_on_c, 0, 50, 95
2, 168960, Note_on_c, 0, 43, 95
2, 169440, Note_off_c, 0, 50, 95
2, 169440, Note_off_c, 0, 43, 95
2, 169440, Note_on_c, 0, 50, 95
2, 169440, Note_on_c, 0, 43, 95
2, 169920, Note_off_c, 0, 50, 95
2, 169920, Note_off_c, 0, 43, 95
2, 169920, Note_on_c, 0, 52, 95
2, 169920, Note_on_c, 0, 43, 95
2, 170880, Note_off_c, 0, 52, 95
2, 170880, Note_off_c, 0, 43, 95
2, 170880, Note_on_c, 0, 50, 95
2, 170880, Note_on_c, 0, 43, 95
2, 171360, Note_off_c, 0, 50, 95
2, 171360, Note_off_c, 0, 43, 95
2, 171360, Note_on_c, 0, 50, 95
2, 171360, Note_on_c, 0, 43, 95
2, 171840, Note_off_c, 0, 50, 95
2, 171840, Note_off_c, 0, 43, 95
2, 171840, Note_on_c, 0, 52, 95
2, 171840, Note_on_c, 0, 43, 95
2, 172800, Note_off_c, 0, 52, 95
2, 172800, Note_off_c, 0, 43, 95
2, 172800, Note_on_c, 0, 57, 95
2, 172800, Note_on_c, 0, 50, 95
2, 173280, Note_off_c, 0, 57, 95
2, 173280, Note_off_c, 0, 50, 95
2, 173280, Note_on_c, 0, 57, 95
2, 173280, Note_on_c, 0, 50, 95
2, 173760, Note_off_c, 0, 57, 95
2, 173760, Note_off_c, 0, 50, 95
2, 173760, Note_on_c, 0, 59, 95
2, 173760, Note_on_c, 0, 50, 95
2, 174720, Note_off_c, 0, 59, 95
2, 174720, Note_off_c, 0, 50, 95
2, 174720, Note_on_c, 0, 57, 95
2, 174720, Note_on_c, 0, 50, 95
2, 175200, Note_off_c, 0, 57, 95
2, 175200, Note_off_c, 0, 50, 95
2, 175200, Note_on_c, 0, 57, 95
2, 175200, Note_on_c, 0, 50, 95
2, 175680, Note_off_c, 0, 57, 95
2, 175680, Note_off_c, 0, 50, 95
2, 175680, Note_on_c, 0, 59, 95
2, 175680, Note_on_c, 0, 50, 95
2, 176640, Note_off_c, 0, 59, 95
2, 176640, Note_off_c, 0, 50, 95
2, 176640, Note_on_c, 0, 57, 95
2, 176640, Note_on_c, 0, 50, 95
2, 177120, Note_off_c, 0, 57, 95
2, 177120, Note_off_c, 0, 50, 95
2, 177120, Note_on_c, 0, 57, 95
2, 177120, Note_on_c, 0, 50, 95
2, 177600, Note_off_c, 0, 57, 95
2, 177600, Note_off_c, 0, 50, 95
2, 177600, Note_on_c, 0, 59, 95
2, 177600, Note_on_c, 0, 50, 95
2, 178560, Note_off_c, 0, 59, 95
2, 178560, Note_off_c, 0, 50, 95
2, 178560, Note_on_c, 0, 57, 95
2, 178560, Note_on_c, 0, 50, 95
2, 179040, Note_off_c, 0, 57, 95
2, 179040, Note_off_c, 0, 50, 95
2, 179040, Note_on_c, 0, 57, 95
2, 179040, Note_on_c, 0, 50, 95
2, 179520, Note_off_c, 0, 57, 95
2, 179520, Note_off_c, 0, 50, 95
2, 179520, Note_on_c, 0, 59, 95
2, 179520, Note_on_c, 0, 50, 95
2, 180480, Note_off_c, 0, 59, 95
2, 180480, Note_off_c, 0, 50, 95
2, 180480, Note_on_c, 0, 57, 95
2, 180480, Note_on_c, 0, 50, 95
2, 180960, Note_off_c, 0, 57, 95
2, 180960, Note_off_c, 0, 50, 95
2, 180960, Note_on_c, 0, 57, 95
2, 180960, Note_on_c, 0, 50, 95
2, 181440, Note_off_c, 0, 57, 95
2, 181440, Note_off_c, 0, 50, 95
2, 181440, Note_on_c, 0, 59, 95
2, 181440, Note_on_c, 0, 50, 95
2, 182400, Note_off_c, 0, 59, 95
2, 182400, Note_off_c, 0, 50, 95
2, 182400, Note_on_c, 0, 57, 95
2, 182400, Note_on_c, 0, 50, 95
2, 182880, Note_off_c, 0, 57, 95
2, 182880, Note_off_c, 0, 50, 95
2, 182880, Note_on_c, 0, 57, 95
2, 182880, Note_on_c, 0, 50, 95
2, 183360, Note_off_c, 0, 57, 95
2, 183360, Note_off_c, 0, 50, 95
2, 183360, Note_on_c, 0, 59, 95
2, 183360, Note_on_c, 0, 50, 95
2, 184320, Note_off_c, 0, 59, 95
2, 184320, Note_off_c, 0, 50, 95
2, 184320, Note_on_c, 0, 57, 95
2, 184320, Note_on_c, 0, 50, 95
2, 184800, Note_off_c, 0, 57, 95
2, 184800, Note_off_c, 0, 50, 95
2, 184800, Note_on_c, 0, 57, 95
2, 184800, Note_on_c, 0, 50, 95
2, 185280, Note_off_c, 0, 57, 95
2, 185280, Note_off_c, 0, 50, 95
2, 185280, Note_on_c, 0, 59, 95
2, 185280, Note_on_c, 0, 50, 95
2, 186240, Note_off_c, 0, 59, 95
2, 186240, Note_off_c, 0, 50, 95
2, 186240, Note_on_c, 0, 57, 95
2, 186240, Note_on_c, 0, 50, 95
2, 186720, Note_off_c, 0, 57, 95
2, 186720, Note_off_c, 0, 50, 95
2, 186720, Note_on_c, 0, 57, 95
2, 186720, Note_on_c, 0, 50, 95
2, 187200, Note_off_c, 0, 57, 95
2, 187200, Note_off_c, 0, 50, 95
2, 187200, Note_on_c, 0, 59, 95
2, 187200, Note_on_c, 0, 50, 95
2, 187680, Note_off_c, 0, 59, 95
2, 187680, Note_off_c, 0, 50, 95
2, 187680, Note_on_c, 0, 50, 95
2, 187680, Note_on_c, 0, 43, 95
2, 188640, Note_off_c, 0, 50, 95
2, 188640, Note_off_c, 0, 43, 95
2, 188640, Note_on_c, 0, 50, 95
2, 188640, Note_on_c, 0, 43, 95
2, 189120, Note_off_c, 0, 50, 95
2, 189120, Note_off_c, 0, 43, 95
2, 189120, Note_on_c, 0, 52, 95
2, 189120, Note_on_c, 0, 43, 95
2, 190080, Note_off_c, 0, 52, 95
2, 190080, Note_off_c, 0, 43, 95
2, 190080, Note_on_c, 0, 50, 95
2, 190080, Note_on_c, 0, 43, 95
2, 190560, Note_off_c, 0, 50, 95
2, 190560, Note_off_c, 0, 43, 95
2, 190560, Note_on_c, 0, 50, 95
2, 190560, Note_on_c, 0, 43, 95
2, 191040, Note_off_c, 0, 50, 95
2, 191040, Note_off_c, 0, 43, 95
2, 191040, Note_on_c, 0, 52, 95
2, 191040, Note_on_c, 0, 43, 95
2, 192000, Note_off_c, 0, 52, 95
2, 192000, Note_off_c, 0, 43, 95
2, 192000, Note_on_c, 0, 50, 95
2, 192000, Note_on_c, 0, 43, 95
2, 192480, Note_off_c, 0, 50, 95
2, 192480, Note_off_c, 0, 43, 95
2, 192480, Note_on_c, 0, 50, 95
2, 192480, Note_on_c, 0, 43, 95
2, 192960, Note_off_c, 0, 50, 95
2, 192960, Note_off_c, 0, 43, 95
2, 192960, Note_on_c, 0, 52, 95
2, 192960, Note_on_c, 0, 43, 95
2, 193920, Note_off_c, 0, 52, 95
2, 193920, Note_off_c, 0, 43, 95
2, 193920, Note_on_c, 0, 50, 95
2, 193920, Note_on_c, 0, 43, 95
2, 194400, Note_off_c, 0, 50, 95
2, 194400, Note_off_c, 0, 43, 95
2, 194400, Note_on_c, 0, 50, 95
2, 194400, Note_on_c, 0, 43, 95
2, 194880, Note_off_c, 0, 50, 95
2, 194880, Note_off_c, 0, 43, 95
2, 194880, Note_on_c, 0, 52, 95
2, 194880, Note_on_c, 0, 43, 95
2, 195840, Note_off_c, 0, 52, 95
2, 195840, Note_off_c, 0, 43, 95
2, 195840, Note_on_c, 0, 50, 95
2, 195840, Note_on_c, 0, 43, 95
2, 196320, Note_off_c, 0, 50, 95
2, 196320, Note_off_c, 0, 43, 95
2, 196320, Note_on_c, 0, 50, 95
2, 196320, Note_on_c, 0, 43, 95
2, 196800, Note_off_c, 0, 50, 95
2, 196800, Note_off_c, 0, 43, 95
2, 196800, Note_on_c, 0, 52, 95
2, 196800, Note_on_c, 0, 43, 95
2, 197760, Note_off_c, 0, 52, 95
2, 197760, Note_off_c, 0, 43, 95
2, 197760, Note_on_c, 0, 50, 95
2, 197760, Note_on_c, 0, 43, 95
2, 198240, Note_off_c, 0, 50, 95
2, 198240, Note_off_c, 0, 43, 95
2, 198240, Note_on_c, 0, 50, 95
2, 198240, Note_on_c, 0, 43, 95
2, 198720, Note_off_c, 0, 50, 95
2, 198720, Note_off_c, 0, 43, 95
2, 198720, Note_on_c, 0, 52, 95
2, 198720, Note_on_c, 0, 43, 95
2, 199680, Note_off_c, 0, 52, 95
2, 199680, Note_off_c, 0, 43, 95
2, 199680, Note_on_c, 0, 50, 95
2, 199680, Note_on_c, 0, 43, 95
2, 200160, Note_off_c, 0, 50, 95
2, 200160, Note_off_c, 0, 43, 95
2, 200160, Note_on_c, 0, 50, 95
2, 200160, Note_on_c, 0, 43, 95
2, 200640, Note_off_c, 0, 50, 95
2, 200640, Note_off_c, 0, 43, 95
2, 200640, Note_on_c, 0, 52, 95
2, 200640, Note_on_c, 0, 43, 95
2, 201600, Note_off_c, 0, 52, 95
2, 201600, Note_off_c, 0, 43, 95
2, 201600, Note_on_c, 0, 50, 95
2, 201600, Note_on_c, 0, 43, 95
2, 202080, Note_off_c, 0, 50, 95
2, 202080, Note_off_c, 0, 43, 95
2, 202080, Note_on_c, 0, 50, 95
2, 202080, Note_on_c, 0, 43, 95
2, 202560, Note_off_c, 0, 50, 95
2, 202560, Note_off_c, 0, 43, 95
2, 202560, Note_on_c, 0, 52, 95
2, 202560, Note_on_c, 0, 43, 95
2, 203520, Note_off_c, 0, 52, 95
2, 203520, Note_off_c, 0, 43, 95
2, 203520, Note_on_c, 0, 57, 95
2, 203520, Note_on_c, 0, 50, 95
2, 204000, Note_off_c, 0, 57, 95
2, 204000, Note_off_c, 0, 50, 95
2, 204000, Note_on_c, 0, 57, 95
2, 204000, Note_on_c, 0, 50, 95
2, 204480, Note_off_c, 0, 57, 95
2, 204480, Note_off_c, 0, 50, 95
2, 204480, Note_on_c, 0, 59, 95
2, 204480, Note_on_c, 0, 50, 95
2, 205440, Note_off_c, 0, 59, 95
2, 205440, Note_off_c, 0, 50, 95
2, 205440, Note_on_c, 0, 57, 95
2, 205440, Note_on_c, 0, 50, 95
2, 205920, Note_off_c, 0, 57, 95
2, 205920, Note_off_c, 0, 50, 95
2, 205920, Note_on_c, 0, 57, 95
2, 205920, Note_on_c, 0, 50, 95
2, 206400, Note_off_c, 0, 57, 95
2, 206400, Note_off_c, 0, 50, 95
2, 206400, Note_on_c, 0, 59, 95
2, 206400, Note_on_c, 0, 50, 95
2, 207360, Note_off_c, 0, 59, 95
2, 207360, Note_off_c, 0, 50, 95
2, 207360, Note_on_c, 0, 57, 95
2, 207360, Note_on_c, 0, 50, 95
2, 207840, Note_off_c, 0, 57, 95
2, 207840, Note_off_c, 0, 50, 95
2, 207840, Note_on_c, 0, 57, 95
2, 207840, Note_on_c, 0, 50, 95
2, 208320, Note_off_c, 0, 57, 95
2, 208320, Note_off_c, 0, 50, 95
2, 208320, Note_on_c, 0, 59, 95
2, 208320, Note_on_c, 0, 50, 95
2, 209280, Note_off_c, 0, 59, 95
2, 209280, Note_off_c, 0, 50, 95
2, 209280, Note_on_c, 0, 57, 95
2, 209280, Note_on_c, 0, 50, 95
2, 209760, Note_off_c, 0, 57, 95
2, 209760, Note_off_c, 0, 50, 95
2, 209760, Note_on_c, 0, 57, 95
2, 209760, Note_on_c, 0, 50, 95
2, 210240, Note_off_c, 0, 57, 95
2, 210240, Note_off_c, 0, 50, 95
2, 210240, Note_on_c, 0, 59, 95
2, 210240, Note_on_c, 0, 50, 95
2, 211200, Note_off_c, 0, 59, 95
2, 211200, Note_off_c, 0, 50, 95
2, 211200, Note_on_c, 0, 57, 95
2, 211200, Note_on_c, 0, 50, 95
2, 211680, Note_off_c, 0, 57, 95
2, 211680, Note_off_c, 0, 50, 95
2, 211680, Note_on_c, 0, 57, 95
2, 211680, Note_on_c, 0, 50, 95
2, 212160, Note_off_c, 0, 57, 95
2, 212160, Note_off_c, 0, 50, 95
2, 212160, Note_on_c, 0, 59, 95
2, 212160, Note_on_c, 0, 50, 95
2, 213120, Note_off_c, 0, 59, 95
2, 213120, Note_off_c, 0, 50, 95
2, 213120, Note_on_c, 0, 57, 95
2, 213120, Note_on_c, 0, 50, 95
2, 213600, Note_off_c, 0, 57, 95
2, 213600, Note_off_c, 0, 50, 95
2, 213600, Note_on_c, 0, 57, 95
2, 213600, Note_on_c, 0, 50, 95
2, 214080, Note_off_c, 0, 57, 95
2, 214080, Note_off_c, 0, 50, 95
2, 214080, Note_on_c, 0, 59, 95
2, 214080, Note_on_c, 0, 50, 95
2, 215040, Note_off_c, 0, 59, 95
2, 215040, Note_off_c, 0, 50, 95
2, 215040, Note_on_c, 0, 57, 95
2, 215040, Note_on_c, 0, 50, 95
2, 215520, Note_off_c, 0, 57, 95
2, 215520, Note_off_c, 0, 50, 95
2, 215520, Note_on_c, 0, 57, 95
2, 215520, Note_on_c, 0, 50, 95
2, 216000, Note_off_c, 0, 57, 95
2, 216000, Note_off_c, 0, 50, 95
2, 216000, Note_on_c, 0, 59, 95
2, 216000, Note_on_c, 0, 50, 95
2, 216960, Note_off_c, 0, 59, 95
2, 216960, Note_off_c, 0, 50, 95
2, 216960, Note_on_c, 0, 57, 95
2, 216960, Note_on_c, 0, 50, 95
2, 217440, Note_off_c, 0, 57, 95
2, 217440, Note_off_c, 0, 50, 95
2, 217440, Note_on_c, 0, 57, 95
2, 217440, Note_on_c, 0, 50, 95
2, 217920, Note_off_c, 0, 57, 95
2, 217920, Note_off_c, 0, 50, 95
2, 217920, Note_on_c, 0, 59, 95
2, 217920, Note_on_c, 0, 50, 95
2, 218880, Note_off_c, 0, 59, 95
2, 218880, Note_off_c, 0, 50, 95
2, 218880, Note_on_c, 0, 50, 95
2, 218880, Note_on_c, 0, 43, 95
2, 219360, Note_off_c, 0, 50, 95
2, 219360, Note_off_c, 0, 43, 95
2, 219360, Note_on_c, 0, 50, 95
2, 219360, Note_on_c, 0, 43, 95
2, 219840, Note_off_c, 0, 50, 95
2, 219840, Note_off_c, 0, 43, 95
2, 219840, Note_on_c, 0, 52, 95
2, 219840, Note_on_c, 0, 43, 95
2, 220800, Note_off_c, 0, 52, 95
2, 220800, Note_off_c, 0, 43, 95
2, 220800, Note_on_c, 0, 50, 95
2, 220800, Note_on_c, 0, 43, 95
2, 221280, Note_off_c, 0, 50, 95
2, 221280, Note_off_c, 0, 43, 95
2, 221280, Note_on_c, 0, 50, 95
2, 221280, Note_on_c, 0, 43, 95
2, 221760, Note_off_c, 0, 50, 95
2, 221760, Note_off_c, 0, 43, 95
2, 221760, Note_on_c, 0, 52, 95
2, 221760, Note_on_c, 0, 43, 95
2, 222720, Note_off_c, 0, 52, 95
2, 222720, Note_off_c, 0, 43, 95
2, 222720, Note_on_c, 0, 50, 95
2, 222720, Note_on_c, 0, 43, 95
2, 223200, Note_off_c, 0, 50, 95
2, 223200, Note_off_c, 0, 43, 95
2, 223200, Note_on_c, 0, 50, 95
2, 223200, Note_on_c, 0, 43, 95
2, 223680, Note_off_c, 0, 50, 95
2, 223680, Note_off_c, 0, 43, 95
2, 223680, Note_on_c, 0, 52, 95
2, 223680, Note_on_c, 0, 43, 95
2, 224640, Note_off_c, 0, 52, 95
2, 224640, Note_off_c, 0, 43, 95
2, 224640, Note_on_c, 0, 50, 95
2, 224640, Note_on_c, 0, 43, 95
2, 225120, Note_off_c, 0, 50, 95
2, 225120, Note_off_c, 0, 43, 95
2, 225120, Note_on_c, 0, 50, 95
2, 225120, Note_on_c, 0, 43, 95
2, 225600, Note_off_c, 0, 50, 95
2, 225600, Note_off_c, 0, 43, 95
2, 225600, Note_on_c, 0, 52, 95
2, 225600, Note_on_c, 0, 43, 95
2, 226560, Note_off_c, 0, 52, 95
2, 226560, Note_off_c, 0, 43, 95
2, 226560, Note_on_c, 0, 50, 95
2, 226560, Note_on_c, 0, 43, 95
2, 227040, Note_off_c, 0, 50, 95
2, 227040, Note_off_c, 0, 43, 95
2, 227040, Note_on_c, 0, 50, 95
2, 227040, Note_on_c, 0, 43, 95
2, 227520, Note_off_c, 0, 50, 95
2, 227520, Note_off_c, 0, 43, 95
2, 227520, Note_on_c, 0, 52, 95
2, 227520, Note_on_c, 0, 43, 95
2, 228480, Note_off_c, 0, 52, 95
2, 228480, Note_off_c, 0, 43, 95
2, 228480, Note_on_c, 0, 50, 95
2, 228480, Note_on_c, 0, 43, 95
2, 228960, Note_off_c, 0, 50, 95
2, 228960, Note_off_c, 0, 43, 95
2, 228960, Note_on_c, 0, 50, 95
2, 228960, Note_on_c, 0, 43, 95
2, 229440, Note_off_c, 0, 50, 95
2, 229440, Note_off_c, 0, 43, 95
2, 229440, Note_on_c, 0, 52, 95
2, 229440, Note_on_c, 0, 43, 95
2, 230400, Note_off_c, 0, 52, 95
2, 230400, Note_off_c, 0, 43, 95
2, 230400, Note_on_c, 0, 50, 95
2, 230400, Note_on_c, 0, 43, 95
2, 230880, Note_off_c, 0, 50, 95
2, 230880, Note_off_c, 0, 43, 95
2, 230880, Note_on_c, 0, 50, 95
2, 230880, Note_on_c, 0, 43, 95
2, 231360, Note_off_c, 0, 50, 95
2, 231360, Note_off_c, 0, 43, 95
2, 231360, Note_on_c, 0, 52, 95
2, 231360, Note_on_c, 0, 43, 95
2, 232320, Note_off_c, 0, 52, 95
2, 232320, Note_off_c, 0, 43, 95
2, 232320, Note_on_c, 0, 50, 95
2, 232320, Note_on_c, 0, 43, 95
2, 232800, Note_off_c, 0, 50, 95
2, 232800, Note_off_c, 0, 43, 95
2, 232800, Note_on_c, 0, 50, 95
2, 232800, Note_on_c, 0, 43, 95
2, 233280, Note_off_c, 0, 50, 95
2, 233280, Note_off_c, 0, 43, 95
2, 233280, Note_on_c, 0, 52, 95
2, 233280, Note_on_c, 0, 43, 95
2, 234240, Note_off_c, 0, 52, 95
2, 234240, Note_off_c, 0, 43, 95
2, 234240, Note_on_c, 0, 57, 95
2, 234240, Note_on_c, 0, 50, 95
2, 234720, Note_off_c, 0, 57, 95
2, 234720, Note_off_c, 0, 50, 95
2, 234720, Note_on_c, 0, 57, 95
2, 234720, Note_on_c, 0, 50, 95
2, 235200, Note_off_c, 0, 57, 95
2, 235200, Note_off_c, 0, 50, 95
2, 235200, Note_on_c, 0, 59, 95
2, 235200, Note_on_c, 0, 50, 95
2, 236160, Note_off_c, 0, 59, 95
2, 236160, Note_off_c, 0, 50, 95
2, 236160, Note_on_c, 0, 57, 95
2, 236160, Note_on_c, 0, 50, 95
2, 236640, Note_off_c, 0, 57, 95
2, 236640, Note_off_c, 0, 50, 95
2, 236640, Note_on_c, 0, 57, 95
2, 236640, Note_on_c, 0, 50, 95
2, 237120, Note_off_c, 0, 57, 95
2, 237120, Note_off_c, 0, 50, 95
2, 237120, Note_on_c, 0, 59, 95
2, 237120, Note_on_c, 0, 50, 95
2, 238080, Note_off_c, 0, 59, 95
2, 238080, Note_off_c, 0, 50, 95
2, 238080, Note_on_c, 0, 57, 95
2, 238080, Note_on_c, 0, 50, 95
2, 238560, Note_off_c, 0, 57, 95
2, 238560, Note_off_c, 0, 50, 95
2, 238560, Note_on_c, 0, 57, 95
2, 238560, Note_on_c, 0, 50, 95
2, 239040, Note_off_c, 0, 57, 95
2, 239040, Note_off_c, 0, 50, 95
2, 239040, Note_on_c, 0, 59, 95
2, 239040, Note_on_c, 0, 50, 95
2, 240000, Note_off_c, 0, 59, 95
2, 240000, Note_off_c, 0, 50, 95
2, 240000, Note_on_c, 0, 57, 95
2, 240000, Note_on_c, 0, 50, 95
2, 240480, Note_off_c, 0, 57, 95
2, 240480, Note_off_c, 0, 50, 95
2, 240480, Note_on_c, 0, 57, 95
2, 240480, Note_on_c, 0, 50, 95
2, 240960, Note_off_c, 0, 57, 95
2, 240960, Note_off_c, 0, 50, 95
2, 240960, Note_on_c, 0, 59, 95
2, 240960, Note_on_c, 0, 50, 95
2, 241920, Note_off_c, 0, 59, 95
2, 241920, Note_off_c, 0, 50, 95
2, 241920, Note_on_c, 0, 57, 95
2, 241920, Note_on_c, 0, 50, 95
2, 242400, Note_off_c, 0, 57, 95
2, 242400, Note_off_c, 0, 50, 95
2, 242400, Note_on_c, 0, 57, 95
2, 242400, Note_on_c, 0, 50, 95
2, 242880, Note_off_c, 0, 57, 95
2, 242880, Note_off_c, 0, 50, 95
2, 242880, Note_on_c, 0, 59, 95
2, 242880, Note_on_c, 0, 50, 95
2, 243840, Note_off_c, 0, 59, 95
2, 243840, Note_off_c, 0, 50, 95
2, 243840, Note_on_c, 0, 57, 95
2, 243840, Note_on_c, 0, 50, 95
2, 244320, Note_off_c, 0, 57, 95
2, 244320, Note_off_c, 0, 50, 95
2, 244320, Note_on_c, 0, 57, 95
2, 244320, Note_on_c, 0, 50, 95
2, 244800, Note_off_c, 0, 57, 95
2, 244800, Note_off_c, 0, 50, 95
2, 244800, Note_on_c, 0, 59, 95
2, 244800, Note_on_c, 0, 50, 95
2, 245760, Note_off_c, 0, 59, 95
2, 245760, Note_off_c, 0, 50, 95
2, 245760, Note_on_c, 0, 57, 95
2, 245760, Note_on_c, 0, 50, 95
2, 246240, Note_off_c, 0, 57, 95
2, 246240, Note_off_c, 0, 50, 95
2, 246240, Note_on_c, 0, 57, 95
2, 246240, Note_on_c, 0, 50, 95
2, 246720, Note_off_c, 0, 57, 95
2, 246720, Note_off_c, 0, 50, 95
2, 246720, Note_on_c, 0, 59, 95
2, 246720, Note_on_c, 0, 50, 95
2, 247680, Note_off_c, 0, 59, 95
2, 247680, Note_off_c, 0, 50, 95
2, 247680, Note_on_c, 0, 57, 95
2, 247680, Note_on_c, 0, 50, 95
2, 248160, Note_off_c, 0, 57, 95
2, 248160, Note_off_c, 0, 50, 95
2, 248160, Note_on_c, 0, 57, 95
2, 248160, Note_on_c, 0, 50, 95
2, 248640, Note_off_c, 0, 57, 95
2, 248640, Note_off_c, 0, 50, 95
2, 248640, Note_on_c, 0, 59, 95
2, 248640, Note_on_c, 0, 50, 95
2, 249600, Note_off_c, 0, 59, 95
2, 249600, Note_off_c, 0, 50, 95
2, 253440, Note_on_c, 0, 50, 95
2, 253440, Note_on_c, 0, 43, 95
2, 253920, Note_off_c, 0, 50, 95
2, 253920, Note_off_c, 0, 43, 95
2, 253920, Note_on_c, 0, 50, 95
2, 253920, Note_on_c, 0, 43, 95
2, 254400, Note_off_c, 0, 50, 95
2, 254400, Note_off_c, 0, 43, 95
2, 254400, Note_on_c, 0, 52, 95
2, 254400, Note_on_c, 0, 43, 95
2, 255360, Note_off_c, 0, 52, 95
2, 255360, Note_off_c, 0, 43, 95
2, 255360, Note_on_c, 0, 50, 95
2, 255360, Note_on_c, 0, 43, 95
2, 255840, Note_off_c, 0, 50, 95
2, 255840, Note_off_c, 0, 43, 95
2, 255840, Note_on_c, 0, 50, 95
2, 255840, Note_on_c, 0, 43, 95
2, 256320, Note_off_c, 0, 50, 95
2, 256320, Note_off_c, 0, 43, 95
2, 256320, Note_on_c, 0, 52, 95
2, 256320, Note_on_c, 0, 43, 95
2, 257280, Note_off_c, 0, 52, 95
2, 257280, Note_off_c, 0, 43, 95
2, 257280, Note_on_c, 0, 50, 95
2, 257280, Note_on_c, 0, 43, 95
2, 257760, Note_off_c, 0, 50, 95
2, 257760, Note_off_c, 0, 43, 95
2, 257760, Note_on_c, 0, 50, 95
2, 257760, Note_on_c, 0, 43, 95
2, 258240, Note_off_c, 0, 50, 95
2, 258240, Note_off_c, 0, 43, 95
2, 258240, Note_on_c, 0, 52, 95
2, 258240, Note_on_c, 0, 43, 95
2, 259200, Note_off_c, 0, 52, 95
2, 259200, Note_off_c, 0, 43, 95
2, 259200, Note_on_c, 0, 50, 95
2, 259200, Note_on_c, 0, 43, 95
2, 259680, Note_off_c, 0, 50, 95
2, 259680, Note_off_c, 0, 43, 95
2, 259680, Note_on_c, 0, 50, 95
2, 259680, Note_on_c, 0, 43, 95
2, 260160, Note_off_c, 0, 50, 95
2, 260160, Note_off_c, 0, 43, 95
2, 260160, Note_on_c, 0, 52, 95
2, 260160, Note_on_c, 0, 43, 95
2, 261120, Note_off_c, 0, 52, 95
2, 261120, Note_off_c, 0, 43, 95
2, 261120, Note_on_c, 0, 50, 95
2, 261120, Note_on_c, 0, 43, 95
2, 261600, Note_off_c, 0, 50, 95
2, 261600, Note_off_c, 0, 43, 95
2, 261600, Note_on_c, 0, 50, 95
2, 261600, Note_on_c, 0, 43, 95
2, 262080, Note_off_c, 0, 50, 95
2, 262080, Note_off_c, 0, 43, 95
2, 262080, Note_on_c, 0, 52, 95
2, 262080, Note_on_c, 0, 43, 95
2, 263040, Note_off_c, 0, 52, 95
2, 263040, Note_off_c, 0, 43, 95
2, 263040, Note_on_c, 0, 50, 95
2, 263040, Note_on_c, 0, 43, 95
2, 263520, Note_off_c, 0, 50, 95
2, 263520, Note_off_c, 0, 43, 95
2, 263520, Note_on_c, 0, 50, 95
2, 263520, Note_on_c, 0, 43, 95
2, 264000, Note_off_c, 0, 50, 95
2, 264000, Note_off_c, 0, 43, 95
2, 264000, Note_on_c, 0, 52, 95
2, 264000, Note_on_c, 0, 43, 95
2, 264960, Note_off_c, 0, 52, 95
2, 264960, Note_off_c, 0, 43, 95
2, 264960, Note_on_c, 0, 57, 95
2, 264960, Note_on_c, 0, 50, 95
2, 265440, Note_off_c, 0, 57, 95
2, 265440, Note_off_c, 0, 50, 95
2, 265440, Note_on_c, 0, 57, 95
2, 265440, Note_on_c, 0, 50, 95
2, 265920, Note_off_c, 0, 57, 95
2, 265920, Note_off_c, 0, 50, 95
2, 265920, Note_on_c, 0, 59, 95
2, 265920, Note_on_c, 0, 50, 95
2, 266880, Note_off_c, 0, 59, 95
2, 266880, Note_off_c, 0, 50, 95
2, 266880, Note_on_c, 0, 57, 95
2, 266880, Note_on_c, 0, 50, 95
2, 267360, Note_off_c, 0, 57, 95
2, 267360, Note_off_c, 0, 50, 95
2, 267360, Note_on_c, 0, 57, 95
2, 267360, Note_on_c, 0, 50, 95
2, 267840, Note_off_c, 0, 57, 95
2, 267840, Note_off_c, 0, 50, 95
2, 267840, Note_on_c, 0, 59, 95
2, 267840, Note_on_c, 0, 50, 95
2, 268800, Note_off_c, 0, 59, 95
2, 268800, Note_off_c, 0, 50, 95
2, 268800, Note_on_c, 0, 57, 95
2, 268800, Note_on_c, 0, 50, 95
2, 269280, Note_off_c, 0, 57, 95
2, 269280, Note_off_c, 0, 50, 95
2, 269280, Note_on_c, 0, 57, 95
2, 269280, Note_on_c, 0, 50, 95
2, 269760, Note_off_c, 0, 57, 95
2, 269760, Note_off_c, 0, 50, 95
2, 269760, Note_on_c, 0, 59, 95
2, 269760, Note_on_c, 0, 50, 95
2, 270720, Note_off_c, 0, 59, 95
2, 270720, Note_off_c, 0, 50, 95
2, 270720, Note_on_c, 0, 57, 95
2, 270720, Note_on_c, 0, 50, 95
2, 271200, Note_off_c, 0, 57, 95
2, 271200, Note_off_c, 0, 50, 95
2, 271200, Note_on_c, 0, 57, 95
2, 271200, Note_on_c, 0, 50, 95
2, 271680, Note_off_c, 0, 57, 95
2, 271680, Note_off_c, 0, 50, 95
2, 271680, Note_on_c, 0, 59, 95
2, 271680, Note_on_c, 0, 50, 95
2, 272640, Note_off_c, 0, 59, 95
2, 272640, Note_off_c, 0, 50, 95
2, 272640, Note_on_c, 0, 57, 95
2, 272640, Note_on_c, 0, 50, 95
2, 273120, Note_off_c, 0, 57, 95
2, 273120, Note_off_c, 0, 50, 95
2, 273120, Note_on_c, 0, 57, 95
2, 273120, Note_on_c, 0, 50, 95
2, 273600, Note_off_c, 0, 57, 95
2, 273600, Note_off_c, 0, 50, 95
2, 273600, Note_on_c, 0, 59, 95
2, 273600, Note_on_c, 0, 50, 95
2, 274560, Note_off_c, 0, 59, 95
2, 274560, Note_off_c, 0, 50, 95
2, 274560, Note_on_c, 0, 57, 95
2, 274560, Note_on_c, 0, 50, 95
2, 275040, Note_off_c, 0, 57, 95
2, 275040, Note_off_c, 0, 50, 95
2, 275040, Note_on_c, 0, 57, 95
2, 275040, Note_on_c, 0, 50, 95
2, 275520, Note_off_c, 0, 57, 95
2, 275520, Note_off_c, 0, 50, 95
2, 275520, Note_on_c, 0, 59, 95
2, 275520, Note_on_c, 0, 50, 95
2, 276480, Note_off_c, 0, 59, 95
2, 276480, Note_off_c, 0, 50, 95
2, 276480, Note_on_c, 0, 57, 95
2, 276480, Note_on_c, 0, 50, 95
2, 276960, Note_off_c, 0, 57, 95
2, 276960, Note_off_c, 0, 50, 95
2, 276960, Note_on_c, 0, 57, 95
2, 276960, Note_on_c, 0, 50, 95
2, 277440, Note_off_c, 0, 57, 95
2, 277440, Note_off_c, 0, 50, 95
2, 277440, Note_on_c, 0, 59, 95
2, 277440, Note_on_c, 0, 50, 95
2, 278400, Note_off_c, 0, 59, 95
2, 278400, Note_off_c, 0, 50, 95
2, 278400, Note_on_c, 0, 57, 95
2, 278400, Note_on_c, 0, 50, 95
2, 278880, Note_off_c, 0, 57, 95
2, 278880, Note_off_c, 0, 50, 95
2, 278880, Note_on_c, 0, 57, 95
2, 278880, Note_on_c, 0, 50, 95
2, 279360, Note_off_c, 0, 57, 95
2, 279360, Note_off_c, 0, 50, 95
2, 279360, Note_on_c, 0, 59, 95
2, 279360, Note_on_c, 0, 50, 95
2, 280320, Note_off_c, 0, 59, 95
2, 280320, Note_off_c, 0, 50, 95
2, 283680, Note_on_c, 0, 62, 95
2, 284160, Note_off_c, 0, 62, 95
2, 284160, Note_on_c, 0, 71, 95
2, 284160, Note_on_c, 0, 67, 95
2, 285600, Note_off_c, 0, 71, 95
2, 285600, Note_off_c, 0, 67, 95
2, 285600, Note_on_c, 0, 62, 95
2, 286080, Note_off_c, 0, 62, 95
2, 286080, Note_on_c, 0, 71, 95
2, 286080, Note_on_c, 0, 67, 95
2, 287520, Note_off_c, 0, 71, 95
2, 287520, Note_off_c, 0, 67, 95
2, 287520, Note_on_c, 0, 62, 95
2, 288000, Note_off_c, 0, 62, 95
2, 288000, Note_on_c, 1, 71, 95
2, 288120, Pitch_bend_c, 1, 7936
2, 288240, Pitch_bend_c, 1, 7552
2, 288360, Pitch_bend_c, 1, 7168
2, 288480, Pitch_bend_c, 1, 6784
2, 288480, Pitch_bend_c, 1, 8192
2, 288480, Note_off_c, 1, 71, 95
2, 288480, Note_on_c, 0, 69, 95
2, 288960, Note_off_c, 0, 69, 95
2, 288960, Note_on_c, 0, 67, 95
2, 289440, Note_off_c, 0, 67, 95
2, 289440, Note_on_c, 0, 71, 95
2, 291840, Note_off_c, 0, 71, 95
2, 291840, Note_on_c, 0, 71, 95
2, 292800, Note_off_c, 0, 71, 95
2, 292800, Note_on_c, 0, 69, 95
2, 293760, Note_off_c, 0, 69, 95
2, 293760, Note_on_c, 0, 67, 95
2, 294720, Note_off_c, 0, 67, 95
2, 294720, Note_on_c, 0, 65, 95
2, 295680, Note_off_c, 0, 65, 95
2, 295680, Note_on_c, 0, 66, 95
2, 295680, Note_on_c, 0, 62, 95
2, 298560, Note_off_c, 0, 66, 95
2, 298560, Note_off_c, 0, 62, 95
2, 299040, Note_on_c, 0, 62, 95
2, 299520, Note_off_c, 0, 62, 95
2, 299520, Note_on_c, 0, 69, 95
2, 300960, Note_off_c, 0, 69, 95
2, 300960, Note_on_c, 0, 62, 95
2, 301440, Note_off_c, 0, 62, 95
2, 301440, Note_on_c, 0, 69, 95
2, 302880, Note_off_c, 0, 69, 95
2, 302880, Note_on_c, 0, 62, 95
2, 303360, Note_off_c, 0, 62, 95
2, 303360, Note_on_c, 0, 69, 95
2, 303840, Note_off_c, 0, 69, 95
2, 303840, Note_on_c, 0, 67, 70
2, 304320, Note_off_c, 0, 67, 70
2, 304320, Note_on_c, 0, 66, 95
2, 304800, Note_off_c, 0, 66, 95
2, 304800, Note_on_c, 0, 69, 95
2, 307200, Note_off_c, 0, 69, 95
2, 307200, Note_on_c, 0, 69, 95
2, 308160, Note_off_c, 0, 69, 95
2, 308160, Note_on_c, 0, 67, 95
2, 309120, Note_off_c, 0, 67, 95
2, 309120, Note_on_c, 0, 65, 95
2, 310080, Note_off_c, 0, 65, 95
2, 310560, Note_on_c, 1, 57, 95
2, 310680, Pitch_bend_c, 1, 8448
2, 310800, Pitch_bend_c, 1, 8832
2, 310920, Pitch_bend_c, 1, 9216
2, 311040, Pitch_bend_c, 1, 9600
2, 311040, Pitch_bend_c, 1, 8192
2, 311040, Note_off_c, 1, 57, 95
2, 311040, Note_on_c, 0, 59, 95
2, 313920, Note_off_c, 0, 59, 95
2, 314400, Note_on_c, 0, 62, 95
2, 314880, Note_off_c, 0, 62, 95
2, 314880, Note_on_c, 0, 71, 95
2, 314880, Note_on_c, 0, 67, 95
2, 316320, Note_off_c, 0, 71, 95
2, 316320, Note_off_c, 0, 67, 95
2, 316320, Note_on_c, 0, 62, 95
2, 316800, Note_off_c, 0, 62, 95
2, 316800, Note_on_c, 0, 71, 95
2, 316800, Note_on_c, 0, 67, 95
2, 318240, Note_off_c, 0, 71, 95
2, 318240, Note_off_c, 0, 67, 95
2, 318240, Note_on_c, 0, 62, 95
2, 318720, Note_off_c, 0, 62, 95
2, 318720, Note_on_c, 1, 71, 95
2, 318840, Pitch_bend_c, 1, 7936
2, 318960, Pitch_bend_c, 1, 7552
2, 319080, Pitch_bend_c, 1, 7168
2, 319200, Pitch_bend_c, 1, 6784
2, 319200, Pitch_bend_c, 1, 8192
2, 319200, Note_off_c, 1, 71, 95
2, 319200, Note_on_c, 0, 69, 95
2, 319680, Note_off_c, 0, 69, 95
2, 319680, Note_on_c, 0, 67, 95
2, 320160, Note_off_c, 0, 67, 95
2, 320160, Note_on_c, 0, 71, 95
2, 322560, Note_off_c, 0, 71, 95
2, 322560, Note_on_c, 0, 71, 95
2, 323520, Note_off_c, 0, 71, 95
2, 323520, Note_on_c, 0, 69, 95
2, 324480, Note_off_c, 0, 69, 95
2, 324480, Note_on_c, 0, 67, 95
2, 325440, Note_off_c, 0, 67, 95
2, 325440, Note_on_c, 0, 65, 95
2, 326400, Note_off_c, 0, 65, 95
2, 326400, Note_on_c, 0, 66, 95
2, 326400, Note_on_c, 0, 62, 95
2, 329280, Note_off_c, 0, 66, 95
2, 329280, Note_off_c, 0, 62, 95
2, 329760, Note_on_c, 0, 62, 95
2, 330240, Note_off_c, 0, 62, 95
2, 330240, Note_on_c, 0, 69, 95
2, 331680, Note_off_c, 0, 69, 95
2, 331680, Note_on_c, 0, 62, 95
2, 332160, Note_off_c, 0, 62, 95
2, 332160, Note_on_c, 0, 69, 95
2, 333600, Note_off_c, 0, 69, 95
2, 333600, Note_on_c, 0, 62, 95
2, 334080, Note_off_c, 0, 62, 95
2, 334080, Note_on_c, 0, 69, 95
2, 334560, Note_off_c, 0, 69, 95
2, 334560, Note_on_c, 0, 67, 70
2, 335040, Note_off_c, 0, 67, 70
2, 335040, Note_on_c, 0, 66, 95
2, 335520, Note_off_c, 0, 66, 95
2, 335520, Note_on_c, 0, 69, 95
2, 337920, Note_off_c, 0, 69, 95
2, 337920, Note_on_c, 0, 69, 95
2, 338880, Note_off_c, 0, 69, 95
2, 338880, Note_on_c, 0, 67, 95
2, 339840, Note_off_c, 0, 67, 95
2, 339840, Note_on_c, 0, 65, 95
2, 340800, Note_off_c, 0, 65, 95
2, 341280, Note_on_c, 1, 57, 95
2, 341400, Pitch_bend_c, 1, 8448
2, 341520, Pitch_bend_c, 1, 8832
2, 341640, Pitch_bend_c, 1, 9216
2, 341760, Pitch_bend_c, 1, 9600
2, 341760, Pitch_bend_c, 1, 8192
2, 341760, Note_off_c, 1, 57, 95
2, 341760, Note_on_c, 0, 59, 95
2, 344640, Note_off_c, 0, 59, 95
2, 345120, Note_on_c, 0, 62, 95
2, 345600, Note_off_c, 0, 62, 95
2, 345600, End_track
3, 0, Start_track
3, 0, Pitch_bend_c, 2, 8192
3, 0, Control_c, 2, 7, 103
3, 0, Control_c, 2, 10, 63
3, 0, Control_c, 2, 93, 0
3, 0, Control_c, 2, 91, 0
3, 0, Control_c, 2, 95, 0
3, 0, Control_c, 2, 92, 0
3, 0, Control_c, 2, 11, 127
3, 0, Program_c, 2, 27
3, 0, Control_c, 3, 7, 103
3, 0, Control_c, 3, 10, 63
3, 0, Control_c, 3, 93, 0
3, 0, Control_c, 3, 91, 0
3, 0, Control_c, 3, 95, 0
3, 0, Control_c, 3, 92, 0
3, 0, Control_c, 3, 11, 127
3, 0, Program_c, 3, 27
3, 5280, Note_on_c, 3, 71, 95
3, 5400, Pitch_bend_c, 3, 8192
3, 5520, Pitch_bend_c, 3, 8192
3, 5640, Pitch_bend_c, 3, 8192
3, 5760, Pitch_bend_c, 3, 8192
3, 5760, Pitch_bend_c, 3, 8192
3, 6240, Note_off_c, 3, 71, 95
3, 6240, Note_on_c, 2, 74, 95
3, 7680, Note_off_c, 2, 74, 95
3, 7680, Note_on_c, 3, 71, 95
3, 8160, Note_off_c, 3, 71, 95
3, 8160, Note_on_c, 2, 74, 95
3, 8640, Note_off_c, 2, 74, 95
3, 8640, Note_on_c, 3, 71, 95
3, 9120, Note_off_c, 3, 71, 95
3, 9120, Note_on_c, 2, 67, 95
3, 11520, Note_off_c, 2, 67, 95
3, 11520, Note_on_c, 3, 58, 95
3, 11640, Pitch_bend_c, 3, 8064
3, 11760, Pitch_bend_c, 3, 7936
3, 11880, Pitch_bend_c, 3, 7680
3, 12000, Pitch_bend_c, 3, 7552
3, 12000, Pitch_bend_c, 3, 8192
3, 12000, Note_off_c, 3, 58, 95
3, 12000, Note_on_c, 2, 57, 95
3, 12480, Note_off_c, 2, 57, 95
3, 12480, Note_on_c, 2, 55, 70
3, 12960, Note_off_c, 2, 55, 70
3, 12960, Note_on_c, 2, 58, 95
3, 13440, Note_off_c, 2, 58, 95
3, 13440, Note_on_c, 3, 58, 47
3, 13560, Pitch_bend_c, 3, 8192
3, 13680, Pitch_bend_c, 3, 8064
3, 13800, Pitch_bend_c, 3, 7936
3, 13920, Pitch_bend_c, 3, 7936
3, 14040, Pitch_bend_c, 3, 7808
3, 14160, Pitch_bend_c, 3, 7680
3, 14280, Pitch_bend_c, 3, 7680
3, 14400, Pitch_bend_c, 3, 7552
3, 14400, Pitch_bend_c, 3, 8192
3, 14400, Note_off_c, 3, 58, 47
3, 14400, Note_on_c, 2, 57, 95
3, 15360, Note_off_c, 2, 57, 95
3, 15360, Note_on_c, 2, 62, 95
3, 17280, Note_off_c, 2, 62, 95
3, 17280, Note_on_c, 2, 58, 95
3, 17280, Note_on_c, 2, 53, 95
3, 18240, Note_off_c, 2, 58, 95
3, 18240, Note_off_c, 2, 53, 95
3, 18240, Note_on_c, 2, 55, 95
3, 19200, Note_off_c, 2, 55, 95
3, 19200, Note_on_c, 2, 50, 95
3, 19200, Note_on_c, 2, 43, 95
3, 19680, Note_off_c, 2, 50, 95
3, 19680, Note_off_c, 2, 43, 95
3, 19680, Note_on_c, 2, 50, 95
3, 19680, Note_on_c, 2, 43, 95
3, 20160, Note_off_c, 2, 50, 95
3, 20160, Note_off_c, 2, 43, 95
3, 20160, Note_on_c, 2, 52, 95
3, 20160, Note_on_c, 2, 43, 95
3, 21120, Note_off_c, 2, 52, 95
3, 21120, Note_off_c, 2, 43, 95
3, 21120, Note_on_c, 2, 50, 95
3, 21120, Note_on_c, 2, 43, 95
3, 21600, Note_off_c, 2, 50, 95
3, 21600, Note_off_c, 2, 43, 95
3, 21600, Note_on_c, 2, 50, 95
3, 21600, Note_on_c, 2, 43, 95
3, 22080, Note_off_c, 2, 50, 95
3, 22080, Note_off_c, 2, 43, 95
3, 22080, Note_on_c, 2, 52, 95
3, 22080, Note_on_c, 2, 43, 95
3, 23040, Note_off_c, 2, 52, 95
3, 23040, Note_off_c, 2, 43, 95
3, 23040, Note_on_c, 2, 50, 95
3, 23040, Note_on_c, 2, 43, 95
3, 23520, Note_off_c, 2, 50, 95
3, 23520, Note_off_c, 2, 43, 95
3, 23520, Note_on_c, 2, 50, 95
3, 23520, Note_on_c, 2, 43, 95
3, 24000, Note_off_c, 2, 50, 95
3, 24000, Note_off_c, 2, 43, 95
3, 24000, Note_on_c, 2, 52, 95
3, 24000, Note_on_c, 2, 43, 95
3, 24960, Note_off_c, 2, 52, 95
3, 24960, Note_off_c, 2, 43, 95
3, 24960, Note_on_c, 2, 50, 95
3, 24960, Note_on_c, 2, 43, 95
3, 25440, Note_off_c, 2, 50, 95
3, 25440, Note_off_c, 2, 43, 95
3, 25440, Note_on_c, 2, 50, 95
3, 25440, Note_on_c, 2, 43, 95
3, 25920, Note_off_c, 2, 50, 95
3, 25920, Note_off_c, 2, 43, 95
3, 25920, Note_on_c, 2, 52, 95
3, 25920, Note_on_c, 2, 43, 95
3, 26880, Note_off_c, 2, 52, 95
3, 26880, Note_off_c, 2, 43, 95
3, 26880, Note_on_c, 2, 50, 95
3, 26880, Note_on_c, 2, 43, 95
3, 27360, Note_off_c, 2, 50, 95
3, 27360, Note_off_c, 2, 43, 95
3, 27360, Note_on_c, 2, 50, 95
3, 27360, Note_on_c, 2, 43, 95
3, 27840, Note_off_c, 2, 50, 95
3, 27840, Note_off_c, 2, 43, 95
3, 27840, Note_on_c, 2, 52, 95
3, 27840, Note_on_c, 2, 43, 95
3, 28800, Note_off_c, 2, 52, 95
3, 28800, Note_off_c, 2, 43, 95
3, 28800, Note_on_c, 2, 52, 95
3, 28800, Note_on_c, 2, 43, 95
3, 29280, Note_off_c, 2, 52, 95
3, 29280, Note_off_c, 2, 43, 95
3, 29280, Note_on_c, 2, 50, 70
3, 29760, Note_off_c, 2, 50, 70
3, 30240, Note_on_c, 2, 50, 95
3, 30240, Note_on_c, 2, 43, 95
3, 31200, Note_off_c, 2, 50, 95
3, 31200, Note_off_c, 2, 43, 95
3, 31200, Note_on_c, 2, 50, 95
3, 31200, Note_on_c, 2, 43, 95
3, 31680, Note_off_c, 2, 50, 95
3, 31680, Note_off_c, 2, 43, 95
3, 31680, Note_on_c, 2, 52, 95
3, 31680, Note_on_c, 2, 43, 95
3, 32640, Note_off_c, 2, 52, 95
3, 32640, Note_off_c, 2, 43, 95
3, 32640, Note_on_c, 2, 50, 95
3, 32640, Note_on_c, 2, 43, 95
3, 33120, Note_off_c, 2, 50, 95
3, 33120, Note_off_c, 2, 43, 95
3, 33120, Note_on_c, 2, 50, 95
3, 33120, Note_on_c, 2, 43, 95
3, 33600, Note_off_c, 2, 50, 95
3, 33600, Note_off_c, 2, 43, 95
3, 33600, Note_on_c, 2, 52, 95
3, 33600, Note_on_c, 2, 43, 95
3, 34560, Note_off_c, 2, 52, 95
3, 34560, Note_off_c, 2, 43, 95
3, 34560, Note_on_c, 2, 50, 95
3, 34560, Note_on_c, 2, 43, 95
3, 35040, Note_off_c, 2, 50, 95
3, 35040, Note_off_c, 2, 43, 95
3, 35040, Note_on_c, 2, 50, 95
3, 35040, Note_on_c, 2, 43, 95
3, 35520, Note_off_c, 2, 50, 95
3, 35520, Note_off_c, 2, 43, 95
3, 35520, Note_on_c, 2, 52, 95
3, 35520, Note_on_c, 2, 43, 95
3, 36480, Note_off_c, 2, 52, 95
3, 36480, Note_off_c, 2, 43, 95
3, 36480, Note_on_c, 2, 50, 95
3, 36480, Note_on_c, 2, 43, 95
3, 36960, Note_off_c, 2, 50, 95
3, 36960, Note_off_c, 2, 43, 95
3, 36960, Note_on_c, 2, 50, 95
3, 36960, Note_on_c, 2, 43, 95
3, 37440, Note_off_c, 2, 50, 95
3, 37440, Note_off_c, 2, 43, 95
3, 37440, Note_on_c, 2, 52, 95
3, 37440, Note_on_c, 2, 43, 95
3, 38400, Note_off_c, 2, 52, 95
3, 38400, Note_off_c, 2, 43, 95
3, 38400, Note_on_c, 2, 50, 95
3, 38400, Note_on_c, 2, 43, 95
3, 38880, Note_off_c, 2, 50, 95
3, 38880, Note_off_c, 2, 43, 95
3, 38880, Note_on_c, 2, 50, 95
3, 38880, Note_on_c, 2, 43, 95
3, 39360, Note_off_c, 2, 50, 95
3, 39360, Note_off_c, 2, 43, 95
3, 39360, Note_on_c, 2, 52, 95
3, 39360, Note_on_c, 2, 43, 95
3, 40320, Note_off_c, 2, 52, 95
3, 40320, Note_off_c, 2, 43, 95
3, 40320, Note_on_c, 2, 50, 95
3, 40320, Note_on_c, 2, 43, 95
3, 40800, Note_off_c, 2, 50, 95
3, 40800, Note_off_c, 2, 43, 95
3, 40800, Note_on_c, 2, 50, 95
3, 40800, Note_on_c, 2, 43, 95
3, 41280, Note_off_c, 2, 50, 95
3, 41280, Note_off_c, 2, 43, 95
3, 41280, Note_on_c, 2, 52, 95
3, 41280, Note_on_c, 2, 43, 95
3, 42240, Note_off_c, 2, 52, 95
3, 42240, Note_off_c, 2, 43, 95
3, 42240, Note_on_c, 2, 50, 95
3, 42240, Note_on_c, 2, 43, 95
3, 42720, Note_off_c, 2, 50, 95
3, 42720, Note_off_c, 2, 43, 95
3, 42720, Note_on_c, 2, 50, 95
3, 42720, Note_on_c, 2, 43, 95
3, 43200, Note_off_c, 2, 50, 95
3, 43200, Note_off_c, 2, 43, 95
3, 43200, Note_on_c, 2, 52, 95
3, 43200, Note_on_c, 2, 43, 95
3, 44160, Note_off_c, 2, 52, 95
3, 44160, Note_off_c, 2, 43, 95
3, 44160, Note_on_c, 2, 50, 95
3, 44160, Note_on_c, 2, 43, 95
3, 44640, Note_off_c, 2, 50, 95
3, 44640, Note_off_c, 2, 43, 95
3, 44640, Note_on_c, 2, 50, 95
3, 44640, Note_on_c, 2, 43, 95
3, 45120, Note_off_c, 2, 50, 95
3, 45120, Note_off_c, 2, 43, 95
3, 45120, Note_on_c, 2, 52, 95
3, 45120, Note_on_c, 2, 43, 95
3, 46080, Note_off_c, 2, 52, 95
3, 46080, Note_off_c, 2, 43, 95
3, 46080, Note_on_c, 2, 57, 95
3, 46080, Note_on_c, 2, 50, 95
3, 46560, Note_off_c, 2, 57, 95
3, 46560, Note_off_c, 2, 50, 95
3, 46560, Note_on_c, 2, 57, 95
3, 46560, Note_on_c, 2, 50, 95
3, 47040, Note_off_c, 2, 57, 95
3, 47040, Note_off_c, 2, 50, 95
3, 47040, Note_on_c, 2, 59, 95
3, 47040, Note_on_c, 2, 50, 95
3, 48000, Note_off_c, 2, 59, 95
3, 48000, Note_off_c, 2, 50, 95
3, 48000, Note_on_c, 2, 57, 95
3, 48000, Note_on_c, 2, 50, 95
3, 48480, Note_off_c, 2, 57, 95
3, 48480, Note_off_c, 2, 50, 95
3, 48480, Note_on_c, 2, 57, 95
3, 48480, Note_on_c, 2, 50, 95
3, 48960, Note_off_c, 2, 57, 95
3, 48960, Note_off_c, 2, 50, 95
3, 48960, Note_on_c, 2, 59, 95
3, 48960, Note_on_c, 2, 50, 95
3, 49920, Note_off_c, 2, 59, 95
3, 49920, Note_off_c, 2, 50, 95
3, 49920, Note_on_c, 2, 57, 95
3, 49920, Note_on_c, 2, 50, 95
3, 50400, Note_off_c, 2, 57, 95
3, 50400, Note_off_c, 2, 50, 95
3, 50400, Note_on_c, 2, 57, 95
3, 50400, Note_on_c, 2, 50, 95
3, 50880, Note_off_c, 2, 57, 95
3, 50880, Note_off_c, 2, 50, 95
3, 50880, Note_on_c, 2, 59, 95
3, 50880, Note_on_c, 2, 50, 95
3, 51840, Note_off_c, 2, 59, 95
3, 51840, Note_off_c, 2, 50, 95
3, 51840, Note_on_c, 2, 57, 95
3, 51840, Note_on_c, 2, 50, 95
3, 52320, Note_off_c, 2, 57, 95
3, 52320, Note_off_c, 2, 50, 95
3, 52320, Note_on_c, 2, 57, 95
3, 52320, Note_on_c, 2, 50, 95
3, 52800, Note_off_c, 2, 57, 95
3, 52800, Note_off_c, 2, 50, 95
3, 52800, Note_on_c, 2, 59, 95
3, 52800, Note_on_c, 2, 50, 95
3, 53760, Note_off_c, 2, 59, 95
3, 53760, Note_off_c, 2, 50, 95
3, 53760, Note_on_c, 2, 57, 95
3, 53760, Note_on_c, 2, 50, 95
3, 54240, Note_off_c, 2, 57, 95
3, 54240, Note_off_c, 2, 50, 95
3, 54240, Note_on_c, 2, 57, 95
3, 54240, Note_on_c, 2, 50, 95
3, 54720, Note_off_c, 2, 57, 95
3, 54720, Note_off_c, 2, 50, 95
3, 54720, Note_on_c, 2, 59, 95
3, 54720, Note_on_c, 2, 50, 95
3, 55680, Note_off_c, 2, 59, 95
3, 55680, Note_off_c, 2, 50, 95
3, 55680, Note_on_c, 2, 57, 95
3, 55680, Note_on_c, 2, 50, 95
3, 56160, Note_off_c, 2, 57, 95
3, 56160, Note_off_c, 2, 50, 95
3, 56160, Note_on_c, 2, 57, 95
3, 56160, Note_on_c, 2, 50, 95
3, 56640, Note_off_c, 2, 57, 95
3, 56640, Note_off_c, 2, 50, 95
3, 56640, Note_on_c, 2, 59, 95
3, 56640, Note_on_c, 2, 50, 95
3, 57600, Note_off_c, 2, 59, 95
3, 57600, Note_off_c, 2, 50, 95
3, 57600, Note_on_c, 2, 57, 95
3, 57600, Note_on_c, 2, 50, 95
3, 58080, Note_off_c, 2, 57, 95
3, 58080, Note_off_c, 2, 50, 95
3, 58080, Note_on_c, 2, 57, 95
3, 58080, Note_on_c, 2, 50, 95
3, 58560, Note_off_c, 2, 57, 95
3, 58560, Note_off_c, 2, 50, 95
3, 58560, Note_on_c, 2, 59, 95
3, 58560, Note_on_c, 2, 50, 95
3, 59520, Note_off_c, 2, 59, 95
3, 59520, Note_off_c, 2, 50, 95
3, 59520, Note_on_c, 2, 57, 95
3, 59520, Note_on_c, 2, 50, 95
3, 60000, Note_off_c, 2, 57, 95
3, 60000, Note_off_c, 2, 50, 95
3, 60000, Note_on_c, 2, 57, 95
3, 60000, Note_on_c, 2, 50, 95
3, 60480, Note_off_c, 2, 57, 95
3, 60480, Note_off_c, 2, 50, 95
3, 60480, Note_on_c, 2, 59, 95
3, 60480, Note_on_c, 2, 50, 95
3, 60960, Note_off_c, 2, 59, 95
3, 60960, Note_off_c, 2, 50, 95
3, 60960, Note_on_c, 2, 50, 95
3, 60960, Note_on_c, 2, 43, 95
3, 61920, Note_off_c, 2, 50, 95
3, 61920, Note_off_c, 2, 43, 95
3, 61920, Note_on_c, 2, 50, 95
3, 61920, Note_on_c, 2, 43, 95
3, 62400, Note_off_c, 2, 50, 95
3, 62400, Note_off_c, 2, 43, 95
3, 62400, Note_on_c, 2, 52, 95
3, 62400, Note_on_c, 2, 43, 95
3, 63360, Note_off_c, 2, 52, 95
3, 63360, Note_off_c, 2, 43, 95
3, 63360, Note_on_c, 2, 50, 95
3, 63360, Note_on_c, 2, 43, 95
3, 63840, Note_off_c, 2, 50, 95
3, 63840, Note_off_c, 2, 43, 95
3, 63840, Note_on_c, 2, 50, 95
3, 63840, Note_on_c, 2, 43, 95
3, 64320, Note_off_c, 2, 50, 95
3, 64320, Note_off_c, 2, 43, 95
3, 64320, Note_on_c, 2, 52, 95
3, 64320, Note_on_c, 2, 43, 95
3, 65280, Note_off_c, 2, 52, 95
3, 65280, Note_off_c, 2, 43, 95
3, 65280, Note_on_c, 2, 50, 95
3, 65280, Note_on_c, 2, 43, 95
3, 65760, Note_off_c, 2, 50, 95
3, 65760, Note_off_c, 2, 43, 95
3, 65760, Note_on_c, 2, 50, 95
3, 65760, Note_on_c, 2, 43, 95
3, 66240, Note_off_c, 2, 50, 95
3, 66240, Note_off_c, 2, 43, 95
3, 66240, Note_on_c, 2, 52, 95
3, 66240, Note_on_c, 2, 43, 95
3, 67200, Note_off_c, 2, 52, 95
3, 67200, Note_off_c, 2, 43, 95
3, 67200, Note_on_c, 2, 50, 95
3, 67200, Note_on_c, 2, 43, 95
3, 67680, Note_off_c, 2, 50, 95
3, 67680, Note_off_c, 2, 43, 95
3, 67680, Note_on_c, 2, 50, 95
3, 67680, Note_on_c, 2, 43, 95
3, 68160, Note_off_c, 2, 50, 95
3, 68160, Note_off_c, 2, 43, 95
3, 68160, Note_on_c, 2, 52, 95
3, 68160, Note_on_c, 2, 43, 95
3, 69120, Note_off_c, 2, 52, 95
3, 69120, Note_off_c, 2, 43, 95
3, 69120, Note_on_c, 2, 50, 95
3, 69120, Note_on_c, 2, 43, 95
3, 69600, Note_off_c, 2, 50, 95
3, 69600, Note_off_c, 2, 43, 95
3, 69600, Note_on_c, 2, 50, 95
3, 69600, Note_on_c, 2, 43, 95
3, 70080, Note_off_c, 2, 50, 95
3, 70080, Note_off_c, 2, 43, 95
3, 70080, Note_on_c, 2, 52, 95
3, 70080, Note_on_c, 2, 43, 95
3, 71040, Note_off_c, 2, 52, 95
3, 71040, Note_off_c, 2, 43, 95
3, 71040, Note_on_c, 2, 50, 95
3, 71040, Note_on_c, 2, 43, 95
3, 71520, Note_off_c, 2, 50, 95
3, 71520, Note_off_c, 2, 43, 95
3, 71520, Note_on_c, 2, 50, 95
3, 71520, Note_on_c, 2, 43, 95
3, 72000, Note_off_c, 2, 50, 95
3, 72000, Note_off_c, 2, 43, 95
3, 72000, Note_on_c, 2, 52, 95
3, 72000, Note_on_c, 2, 43, 95
3, 72960, Note_off_c, 2, 52, 95
3, 72960, Note_off_c, 2, 43, 95
3, 72960, Note_on_c, 2, 50, 95
3, 72960, Note_on_c, 2, 43, 95
3, 73440, Note_off_c, 2, 50, 95
3, 73440, Note_off_c, 2, 43, 95
3, 73440, Note_on_c, 2, 50, 95
3, 73440, Note_on_c, 2, 43, 95
3, 73920, Note_off_c, 2, 50, 95
3, 73920, Note_off_c, 2, 43, 95
3, 73920, Note_on_c, 2, 52, 95
3, 73920, Note_on_c, 2, 43, 95
3, 74880, Note_off_c, 2, 52, 95
3, 74880, Note_off_c, 2, 43, 95
3, 74880, Note_on_c, 2, 50, 95
3, 74880, Note_on_c, 2, 43, 95
3, 75360, Note_off_c, 2, 50, 95
3, 75360, Note_off_c, 2, 43, 95
3, 75360, Note_on_c, 2, 50, 95
3, 75360, Note_on_c, 2, 43, 95
3, 75840, Note_off_c, 2, 50, 95
3, 75840, Note_off_c, 2, 43, 95
3, 75840, Note_on_c, 2, 52, 95
3, 75840, Note_on_c, 2, 43, 95
3, 76800, Note_off_c, 2, 52, 95
3, 76800, Note_off_c, 2, 43, 95
3, 76800, Note_on_c, 2, 57, 95
3, 76800, Note_on_c, 2, 50, 95
3, 77280, Note_off_c, 2, 57, 95
3, 77280, Note_off_c, 2, 50, 95
3, 77280, Note_on_c, 2, 57, 95
3, 77280, Note_on_c, 2, 50, 95
3, 77760, Note_off_c, 2, 57, 95
3, 77760, Note_off_c, 2, 50, 95
3, 77760, Note_on_c, 2, 59, 95
3, 77760, Note_on_c, 2, 50, 95
3, 78720, Note_off_c, 2, 59, 95
3, 78720, Note_off_c, 2, 50, 95
3, 78720, Note_on_c, 2, 57, 95
3, 78720, Note_on_c, 2, 50, 95
3, 79200, Note_off_c, 2, 57, 95
3, 79200, Note_off_c, 2, 50, 95
3, 79200, Note_on_c, 2, 57, 95
3, 79200, Note_on_c, 2, 50, 95
3, 79680, Note_off_c, 2, 57, 95
3, 79680, Note_off_c, 2, 50, 95
3, 79680, Note_on_c, 2, 59, 95
3, 79680, Note_on_c, 2, 50, 95
3, 80640, Note_off_c, 2, 59, 95
3, 80640, Note_off_c, 2, 50, 95
3, 80640, Note_on_c, 2, 57, 95
3, 80640, Note_on_c, 2, 50, 95
3, 81120, Note_off_c, 2, 57, 95
3, 81120, Note_off_c, 2, 50, 95
3, 81120, Note_on_c, 2, 57, 95
3, 81120, Note_on_c, 2, 50, 95
3, 81600, Note_off_c, 2, 57, 95
3, 81600, Note_off_c, 2, 50, 95
3, 81600, Note_on_c, 2, 59, 95
3, 81600, Note_on_c, 2, 50, 95
3, 82560, Note_off_c, 2, 59, 95
3, 82560, Note_off_c, 2, 50, 95
3, 82560, Note_on_c, 2, 57, 95
3, 82560, Note_on_c, 2, 50, 95
3, 83040, Note_off_c, 2, 57, 95
3, 83040, Note_off_c, 2, 50, 95
3, 83040, Note_on_c, 2, 57, 95
3, 83040, Note_on_c, 2, 50, 95
3, 83520, Note_off_c, 2, 57, 95
3, 83520, Note_off_c, 2, 50, 95
3, 83520, Note_on_c, 2, 59, 95
3, 83520, Note_on_c, 2, 50, 95
3, 84480, Note_off_c, 2, 59, 95
3, 84480, Note_off_c, 2, 50, 95
3, 84480, Note_on_c, 2, 57, 95
3, 84480, Note_on_c, 2, 50, 95
3, 84960, Note_off_c, 2, 57, 95
3, 84960, Note_off_c, 2, 50, 95
3, 84960, Note_on_c, 2, 57, 95
3, 84960, Note_on_c, 2, 50, 95
3, 85440, Note_off_c, 2, 57, 95
3, 85440, Note_off_c, 2, 50, 95
3, 85440, Note_on_c, 2, 59, 95
3, 85440, Note_on_c, 2, 50, 95
3, 86400, Note_off_c, 2, 59, 95
3, 86400, Note_off_c, 2, 50, 95
3, 86400, Note_on_c, 2, 57, 95
3, 86400, Note_on_c, 2, 50, 95
3, 86880, Note_off_c, 2, 57, 95
3, 86880, Note_off_c, 2, 50, 95
3, 86880, Note_on_c, 2, 57, 95
3, 86880, Note_on_c, 2, 50, 95
3, 87360, Note_off_c, 2, 57, 95
3, 87360, Note_off_c, 2, 50, 95
3, 87360, Note_on_c, 2, 59, 95
3, 87360, Note_on_c, 2, 50, 95
3, 88320, Note_off_c, 2, 59, 95
3, 88320, Note_off_c, 2, 50, 95
3, 88320, Note_on_c, 2, 57, 95
3, 88320, Note_on_c, 2, 50, 95
3, 88800, Note_off_c, 2, 57, 95
3, 88800, Note_off_c, 2, 50, 95
3, 88800, Note_on_c, 2, 57, 95
3, 88800, Note_on_c, 2, 50, 95
3, 89280, Note_off_c, 2, 57, 95
3, 89280, Note_off_c, 2, 50, 95
3, 89280, Note_on_c, 2, 59, 95
3, 89280, Note_on_c, 2, 50, 95
3, 90240, Note_off_c, 2, 59, 95
3, 90240, Note_off_c, 2, 50, 95
3, 90240, Note_on_c, 2, 57, 95
3, 90240, Note_on_c, 2, 50, 95
3, 90720, Note_off_c, 2, 57, 95
3, 90720, Note_off_c, 2, 50, 95
3, 90720, Note_on_c, 2, 57, 95
3, 90720, Note_on_c, 2, 50, 95
3, 91200, Note_off_c, 2, 57, 95
3, 91200, Note_off_c, 2, 50, 95
3, 91200, Note_on_c, 2, 59, 95
3, 91200, Note_on_c, 2, 50, 95
3, 92160, Note_off_c, 2, 59, 95
3, 92160, Note_off_c, 2, 50, 95
3, 92160, Note_on_c, 2, 50, 95
3, 92160, Note_on_c, 2, 43, 95
3, 92640, Note_off_c, 2, 50, 95
3, 92640, Note_off_c, 2, 43, 95
3, 92640, Note_on_c, 2, 50, 95
3, 92640, Note_on_c, 2, 43, 95
3, 93120, Note_off_c, 2, 50, 95
3, 93120, Note_off_c, 2, 43, 95
3, 93120, Note_on_c, 2, 52, 95
3, 93120, Note_on_c, 2, 43, 95
3, 94080, Note_off_c, 2, 52, 95
3, 94080, Note_off_c, 2, 43, 95
3, 94080, Note_on_c, 2, 50, 95
3, 94080, Note_on_c, 2, 43, 95
3, 94560, Note_off_c, 2, 50, 95
3, 94560, Note_off_c, 2, 43, 95
3, 94560, Note_on_c, 2, 50, 95
3, 94560, Note_on_c, 2, 43, 95
3, 95040, Note_off_c, 2, 50, 95
3, 95040, Note_off_c, 2, 43, 95
3, 95040, Note_on_c, 2, 52, 95
3, 95040, Note_on_c, 2, 43, 95
3, 96000, Note_off_c, 2, 52, 95
3, 96000, Note_off_c, 2, 43, 95
3, 96000, Note_on_c, 2, 50, 95
3, 96000, Note_on_c, 2, 43, 95
3, 96480, Note_off_c, 2, 50, 95
3, 96480, Note_off_c, 2, 43, 95
3, 96480, Note_on_c, 2, 50, 95
3, 96480, Note_on_c, 2, 43, 95
3, 96960, Note_off_c, 2, 50, 95
3, 96960, Note_off_c, 2, 43, 95
3, 96960, Note_on_c, 2, 52, 95
3, 96960, Note_on_c, 2, 43, 95
3, 97920, Note_off_c, 2, 52, 95
3, 97920, Note_off_c, 2, 43, 95
3, 97920, Note_on_c, 2, 50, 95
3, 97920, Note_on_c, 2, 43, 95
3, 98400, Note_off_c, 2, 50, 95
3, 98400, Note_off_c, 2, 43, 95
3, 98400, Note_on_c, 2, 50, 95
3, 98400, Note_on_c, 2, 43, 95
3, 98880, Note_off_c, 2, 50, 95
3, 98880, Note_off_c, 2, 43, 95
3, 98880, Note_on_c, 2, 52, 95
3, 98880, Note_on_c, 2, 43, 95
3, 99840, Note_off_c, 2, 52, 95
3, 99840, Note_off_c, 2, 43, 95
3, 99840, Note_on_c, 2, 50, 95
3, 99840, Note_on_c, 2, 43, 95
3, 100320, Note_off_c, 2, 50, 95
3, 100320, Note_off_c, 2, 43, 95
3, 100320, Note_on_c, 2, 50, 95
3, 100320, Note_on_c, 2, 43, 95
3, 100800, Note_off_c, 2, 50, 95
3, 100800, Note_off_c, 2, 43, 95
3, 100800, Note_on_c, 2, 52, 95
3, 100800, Note_on_c, 2, 43, 95
3, 101760, Note_off_c, 2, 52, 95
3, 101760, Note_off_c, 2, 43, 95
3, 101760, Note_on_c, 2, 50, 95
3, 101760, Note_on_c, 2, 43, 95
3, 102240, Note_off_c, 2, 50, 95
3, 102240, Note_off_c, 2, 43, 95
3, 102240, Note_on_c, 2, 50, 95
3, 102240, Note_on_c, 2, 43, 95
3, 102720, Note_off_c, 2, 50, 95
3, 102720, Note_off_c, 2, 43, 95
3, 102720, Note_on_c, 2, 52, 95
3, 102720, Note_on_c, 2, 43, 95
3, 103680, Note_off_c, 2, 52, 95
3, 103680, Note_off_c, 2, 43, 95
3, 103680, Note_on_c, 2, 50, 95
3, 103680, Note_on_c, 2, 43, 95
3, 104160, Note_off_c, 2, 50, 95
3, 104160, Note_off_c, 2, 43, 95
3, 104160, Note_on_c, 2, 50, 95
3, 104160, Note_on_c, 2, 43, 95
3, 104640, Note_off_c, 2, 50, 95
3, 104640, Note_off_c, 2, 43, 95
3, 104640, Note_on_c, 2, 52, 95
3, 104640, Note_on_c, 2, 43, 95
3, 105600, Note_off_c, 2, 52, 95
3, 105600, Note_off_c, 2, 43, 95
3, 105600, Note_on_c, 2, 50, 95
3, 105600, Note_on_c, 2, 43, 95
3, 106080, Note_off_c, 2, 50, 95
3, 106080, Note_off_c, 2, 43, 95
3, 106080, Note_on_c, 2, 50, 95
3, 106080, Note_on_c, 2, 43, 95
3, 106560, Note_off_c, 2, 50, 95
3, 106560, Note_off_c, 2, 43, 95
3, 106560, Note_on_c, 2, 52, 95
3, 106560, Note_on_c, 2, 43, 95
3, 107520, Note_off_c, 2, 52, 95
3, 107520, Note_off_c, 2, 43, 95
3, 107520, Note_on_c, 2, 57, 95
3, 107520, Note_on_c, 2, 50, 95
3, 108000, Note_off_c, 2, 57, 95
3, 108000, Note_off_c, 2, 50, 95
3, 108000, Note_on_c, 2, 57, 95
3, 108000, Note_on_c, 2, 50, 95
3, 108480, Note_off_c, 2, 57, 95
3, 108480, Note_off_c, 2, 50, 95
3, 108480, Note_on_c, 2, 59, 95
3, 108480, Note_on_c, 2, 50, 95
3, 109440, Note_off_c, 2, 59, 95
3, 109440, Note_off_c, 2, 50, 95
3, 109440, Note_on_c, 2, 57, 95
3, 109440, Note_on_c, 2, 50, 95
3, 109920, Note_off_c, 2, 57, 95
3, 109920, Note_off_c, 2, 50, 95
3, 109920, Note_on_c, 2, 57, 95
3, 109920, Note_on_c, 2, 50, 95
3, 110400, Note_off_c, 2, 57, 95
3, 110400, Note_off_c, 2, 50, 95
3, 110400, Note_on_c, 2, 59, 95
3, 110400, Note_on_c, 2, 50, 95
3, 111360, Note_off_c, 2, 59, 95
3, 111360, Note_off_c, 2, 50, 95
3, 111360, Note_on_c, 2, 57, 95
3, 111360, Note_on_c, 2, 50, 95
3, 111840, Note_off_c, 2, 57, 95
3, 111840, Note_off_c, 2, 50, 95
3, 111840, Note_on_c, 2, 57, 95
3, 111840, Note_on_c, 2, 50, 95
3, 112320, Note_off_c, 2, 57, 95
3, 112320, Note_off_c, 2, 50, 95
3, 112320, Note_on_c, 2, 59, 95
3, 112320, Note_on_c, 2, 50, 95
3, 113280, Note_off_c, 2, 59, 95
3, 113280, Note_off_c, 2, 50, 95
3, 113280, Note_on_c, 2, 57, 95
3, 113280, Note_on_c, 2, 50, 95
3, 113760, Note_off_c, 2, 57, 95
3, 113760, Note_off_c, 2, 50, 95
3, 113760, Note_on_c, 2, 57, 95
3, 113760, Note_on_c, 2, 50, 95
3, 114240, Note_off_c, 2, 57, 95
3, 114240, Note_off_c, 2, 50, 95
3, 114240, Note_on_c, 2, 59, 95
3, 114240, Note_on_c, 2, 50, 95
3, 115200, Note_off_c, 2, 59, 95
3, 115200, Note_off_c, 2, 50, 95
3, 115200, Note_on_c, 2, 57, 95
3, 115200, Note_on_c, 2, 50, 95
3, 115680, Note_off_c, 2, 57, 95
3, 115680, Note_off_c, 2, 50, 95
3, 115680, Note_on_c, 2, 57, 95
3, 115680, Note_on_c, 2, 50, 95
3, 116160, Note_off_c, 2, 57, 95
3, 116160, Note_off_c, 2, 50, 95
3, 116160, Note_on_c, 2, 59, 95
3, 116160, Note_on_c, 2, 50, 95
3, 117120, Note_off_c, 2, 59, 95
3, 117120, Note_off_c, 2, 50, 95
3, 117120, Note_on_c, 2, 57, 95
3, 117120, Note_on_c, 2, 50, 95
3, 117600, Note_off_c, 2, 57, 95
3, 117600, Note_off_c, 2, 50, 95
3, 117600, Note_on_c, 2, 57, 95
3, 117600, Note_on_c, 2, 50, 95
3, 118080, Note_off_c, 2, 57, 95
3, 118080, Note_off_c, 2, 50, 95
3, 118080, Note_on_c, 2, 59, 95
3, 118080, Note_on_c, 2, 50, 95
3, 119040, Note_off_c, 2, 59, 95
3, 119040, Note_off_c, 2, 50, 95
3, 119040, Note_on_c, 2, 57, 95
3, 119040, Note_on_c, 2, 50, 95
3, 119520, Note_off_c, 2, 57, 95
3, 119520, Note_off_c, 2, 50, 95
3, 119520, Note_on_c, 2, 57, 95
3, 119520, Note_on_c, 2, 50, 95
3, 120000, Note_off_c, 2, 57, 95
3, 120000, Note_off_c, 2, 50, 95
3, 120000, Note_on_c, 2, 59, 95
3, 120000, Note_on_c, 2, 50, 95
3, 120960, Note_off_c, 2, 59, 95
3, 120960, Note_off_c, 2, 50, 95
3, 120960, Note_on_c, 2, 57, 95
3, 120960, Note_on_c, 2, 50, 95
3, 121440, Note_off_c, 2, 57, 95
3, 121440, Note_off_c, 2, 50, 95
3, 121440, Note_on_c, 2, 57, 95
3, 121440, Note_on_c, 2, 50, 95
3, 121920, Note_off_c, 2, 57, 95
3, 121920, Note_off_c, 2, 50, 95
3, 121920, Note_on_c, 2, 59, 95
3, 121920, Note_on_c, 2, 50, 95
3, 122880, Note_off_c, 2, 59, 95
3, 122880, Note_off_c, 2, 50, 95
3, 122880, Note_on_c, 2, 50, 95
3, 122880, Note_on_c, 2, 43, 95
3, 123360, Note_off_c, 2, 50, 95
3, 123360, Note_off_c, 2, 43, 95
3, 123360, Note_on_c, 2, 50, 95
3, 123360, Note_on_c, 2, 43, 95
3, 123840, Note_off_c, 2, 50, 95
3, 123840, Note_off_c, 2, 43, 95
3, 123840, Note_on_c, 2, 52, 95
3, 123840, Note_on_c, 2, 43, 95
3, 124800, Note_off_c, 2, 52, 95
3, 124800, Note_off_c, 2, 43, 95
3, 124800, Note_on_c, 2, 50, 95
3, 124800, Note_on_c, 2, 43, 95
3, 125280, Note_off_c, 2, 50, 95
3, 125280, Note_off_c, 2, 43, 95
3, 125280, Note_on_c, 2, 50, 95
3, 125280, Note_on_c, 2, 43, 95
3, 125760, Note_off_c, 2, 50, 95
3, 125760, Note_off_c, 2, 43, 95
3, 125760, Note_on_c, 2, 52, 95
3, 125760, Note_on_c, 2, 43, 95
3, 126240, Note_off_c, 2, 52, 95
3, 126240, Note_off_c, 2, 43, 95
3, 126240, Note_on_c, 2, 71, 95
3, 126240, Note_on_c, 2, 67, 95
3, 126240, Note_on_c, 2, 62, 95
3, 128160, Note_off_c, 2, 71, 95
3, 128160, Note_off_c, 2, 67, 95
3, 128160, Note_off_c, 2, 62, 95
3, 128160, Note_on_c, 3, 71, 95
3, 128160, Note_on_c, 3, 67, 95
3, 128160, Note_on_c, 3, 62, 95
3, 128280, Pitch_bend_c, 3, 8192
3, 128280, Pitch_bend_c, 3, 8192
3, 128280, Pitch_bend_c, 3, 8192
3, 128400, Pitch_bend_c, 3, 8192
3, 128400, Pitch_bend_c, 3, 8192
3, 128400, Pitch_bend_c, 3, 8192
3, 128520, Pitch_bend_c, 3, 8192
3, 128520, Pitch_bend_c, 3, 8192
3, 128520, Pitch_bend_c, 3, 8192
3, 128640, Pitch_bend_c, 3, 8192
3, 128640, Pitch_bend_c, 3, 8192
3, 128640, Pitch_bend_c, 3, 8192
3, 128640, Pitch_bend_c, 3, 8192
3, 128640, Pitch_bend_c, 3, 8192
3, 128640, Pitch_bend_c, 3, 8192
3, 130080, Note_off_c, 3, 71, 95
3, 130080, Note_off_c, 3, 67, 95
3, 130080, Note_off_c, 3, 62, 95
3, 130080, Note_on_c, 3, 71, 95
3, 130080, Note_on_c, 3, 67, 95
3, 130080, Note_on_c, 3, 62, 95
3, 130200, Pitch_bend_c, 3, 8192
3, 130200, Pitch_bend_c, 3, 8192
3, 130200, Pitch_bend_c, 3, 8192
3, 130320, Pitch_bend_c, 3, 8192
3, 130320, Pitch_bend_c, 3, 8192
3, 130320, Pitch_bend_c, 3, 8192
3, 130440, Pitch_bend_c, 3, 8192
3, 130440, Pitch_bend_c, 3, 8192
3, 130440, Pitch_bend_c, 3, 8192
3, 130560, Pitch_bend_c, 3, 8192
3, 130560, Pitch_bend_c, 3, 8192
3, 130560, Pitch_bend_c, 3, 8192
3, 130560, Pitch_bend_c, 3, 8192
3, 130560, Pitch_bend_c, 3, 8192
3, 130560, Pitch_bend_c, 3, 8192
3, 132000, Note_off_c, 3, 71, 95
3, 132000, Note_off_c, 3, 67, 95
3, 132000, Note_off_c, 3, 62, 95
3, 132000, Note_on_c, 3, 71, 95
3, 132000, Note_on_c, 3, 67, 95
3, 132000, Note_on_c, 3, 62, 95
3, 132120, Pitch_bend_c, 3, 8192
3, 132120, Pitch_bend_c, 3, 8192
3, 132120, Pitch_bend_c, 3, 8192
3, 132240, Pitch_bend_c, 3, 8192
3, 132240, Pitch_bend_c, 3, 8192
3, 132240, Pitch_bend_c, 3, 8192
3, 132360, Pitch_bend_c, 3, 8192
3, 132360, Pitch_bend_c, 3, 8192
3, 132360, Pitch_bend_c, 3, 8192
3, 132480, Pitch_bend_c, 3, 8192
3, 132480, Pitch_bend_c, 3, 8192
3, 132480, Pitch_bend_c, 3, 8192
3, 132480, Pitch_bend_c, 3, 8192
3, 132480, Pitch_bend_c, 3, 8192
3, 132480, Pitch_bend_c, 3, 8192
3, 133920, Note_off_c, 3, 71, 95
3, 133920, Note_off_c, 3, 67, 95
3, 133920, Note_off_c, 3, 62, 95
3, 133920, Note_on_c, 3, 71, 95
3, 133920, Note_on_c, 3, 67, 95
3, 133920, Note_on_c, 3, 62, 95
3, 134040, Pitch_bend_c, 3, 8192
3, 134040, Pitch_bend_c, 3, 8192
3, 134040, Pitch_bend_c, 3, 8192
3, 134160, Pitch_bend_c, 3, 8192
3, 134160, Pitch_bend_c, 3, 8192
3, 134160, Pitch_bend_c, 3, 8192
3, 134280, Pitch_bend_c, 3, 8192
3, 134280, Pitch_bend_c, 3, 8192
3, 134280, Pitch_bend_c, 3, 8192
3, 134400, Pitch_bend_c, 3, 8192
3, 134400, Pitch_bend_c, 3, 8192
3, 134400, Pitch_bend_c, 3, 8192
3, 134400, Pitch_bend_c, 3, 8192
3, 134400, Pitch_bend_c, 3, 8192
3, 134400, Pitch_bend_c, 3, 8192
3, 136320, Note_off_c, 3, 71, 95
3, 136320, Note_off_c, 3, 67, 95
3, 136320, Note_off_c, 3, 62, 95
3, 136320, Note_on_c, 2, 71, 95
3, 136320, Note_on_c, 2, 67, 95
3, 136320, Note_on_c, 2, 62, 95
3, 136800, Note_off_c, 2, 71, 95
3, 136800, Note_off_c, 2, 67, 95
3, 136800, Note_off_c, 2, 62, 95
3, 136800, Note_on_c, 2, 69, 95
3, 136800, Note_on_c, 2, 65, 95
3, 136800, Note_on_c, 2, 60, 95
3, 138240, Note_off_c, 2, 69, 95
3, 138240, Note_off_c, 2, 65, 95
3, 138240, Note_off_c, 2, 60, 95
3, 138240, Note_on_c, 2, 66, 95
3, 138240, Note_on_c, 2, 62, 95
3, 138240, Note_on_c, 2, 57, 95
3, 141600, Note_off_c, 2, 66, 95
3, 141600, Note_off_c, 2, 62, 95
3, 141600, Note_off_c, 2, 57, 95
3, 141600, Note_on_c, 2, 66, 95
3, 141600, Note_on_c, 2, 62, 95
3, 141600, Note_on_c, 2, 57, 95
3, 143520, Note_off_c, 2, 66, 95
3, 143520, Note_off_c, 2, 62, 95
3, 143520, Note_off_c, 2, 57, 95
3, 143520, Note_on_c, 3, 66, 95
3, 143520, Note_on_c, 3, 62, 95
3, 143520, Note_on_c, 3, 57, 95
3, 143640, Pitch_bend_c, 3, 8192
3, 143640, Pitch_bend_c, 3, 8192
3, 143640, Pitch_bend_c, 3, 8192
3, 143760, Pitch_bend_c, 3, 8192
3, 143760, Pitch_bend_c, 3, 8192
3, 143760, Pitch_bend_c, 3, 8192
3, 143880, Pitch_bend_c, 3, 8192
3, 143880, Pitch_bend_c, 3, 8192
3, 143880, Pitch_bend_c, 3, 8192
3, 144000, Pitch_bend_c, 3, 8192
3, 144000, Pitch_bend_c, 3, 8192
3, 144000, Pitch_bend_c, 3, 8192
3, 144000, Pitch_bend_c, 3, 8192
3, 144000, Pitch_bend_c, 3, 8192
3, 144000, Pitch_bend_c, 3, 8192
3, 145440, Note_off_c, 3, 66, 95
3, 145440, Note_off_c, 3, 62, 95
3, 145440, Note_off_c, 3, 57, 95
3, 145440, Note_on_c, 3, 66, 95
3, 145440, Note_on_c, 3, 62, 95
3, 145440, Note_on_c, 3, 57, 95
3, 145560, Pitch_bend_c, 3, 8192
3, 145560, Pitch_bend_c, 3, 8192
3, 145560, Pitch_bend_c, 3, 8192
3, 145680, Pitch_bend_c, 3, 8192
3, 145680, Pitch_bend_c, 3, 8192
3, 145680, Pitch_bend_c, 3, 8192
3, 145800, Pitch_bend_c, 3, 8192
3, 145800, Pitch_bend_c, 3, 8192
3, 145800, Pitch_bend_c, 3, 8192
3, 145920, Pitch_bend_c, 3, 8192
3, 145920, Pitch_bend_c, 3, 8192
3, 145920, Pitch_bend_c, 3, 8192
3, 145920, Pitch_bend_c, 3, 8192
3, 145920, Pitch_bend_c, 3, 8192
3, 145920, Pitch_bend_c, 3, 8192
3, 147360, Note_off_c, 3, 66, 95
3, 147360, Note_off_c, 3, 62, 95
3, 147360, Note_off_c, 3, 57, 95
3, 147360, Note_on_c, 3, 66, 95
3, 147360, Note_on_c, 3, 62, 95
3, 147360, Note_on_c, 3, 57, 95
3, 147480, Pitch_bend_c, 3, 8192
3, 147480, Pitch_bend_c, 3, 8192
3, 147480, Pitch_bend_c, 3, 8192
3, 147600, Pitch_bend_c, 3, 8192
3, 147600, Pitch_bend_c, 3, 8192
3, 147600, Pitch_bend_c, 3, 8192
3, 147720, Pitch_bend_c, 3, 8192
3, 147720, Pitch_bend_c, 3, 8192
3, 147720, Pitch_bend_c, 3, 8192
3, 147840, Pitch_bend_c, 3, 8192
3, 147840, Pitch_bend_c, 3, 8192
3, 147840, Pitch_bend_c, 3, 8192
3, 147840, Pitch_bend_c, 3, 8192
3, 147840, Pitch_bend_c, 3, 8192
3, 147840, Pitch_bend_c, 3, 8192
3, 149280, Note_off_c, 3, 66, 95
3, 149280, Note_off_c, 3, 62, 95
3, 149280, Note_off_c, 3, 57, 95
3, 149280, Note_on_c, 3, 66, 95
3, 149280, Note_on_c, 3, 62, 95
3, 149280, Note_on_c, 3, 57, 95
3, 149400, Pitch_bend_c, 3, 8192
3, 149400, Pitch_bend_c, 3, 8192
3, 149520, Pitch_bend_c, 3, 8192
3, 149520, Pitch_bend_c, 3, 8192
3, 149640, Pitch_bend_c, 3, 8192
3, 149640, Pitch_bend_c, 3, 8192
3, 149760, Note_off_c, 3, 66, 95
3, 149760, Pitch_bend_c, 3, 8192
3, 149760, Pitch_bend_c, 3, 8192
3, 149760, Note_off_c, 3, 62, 95
3, 149760, Pitch_bend_c, 3, 8192
3, 149760, Pitch_bend_c, 3, 8192
3, 149760, Note_off_c, 3, 57, 95
3, 149760, Note_on_c, 2, 62, 95
3, 149760, Note_on_c, 2, 57, 95
3, 150720, Note_off_c, 2, 62, 95
3, 150720, Note_off_c, 2, 57, 95
3, 150720, Note_on_c, 2, 60, 95
3, 150720, Note_on_c, 2, 55, 95
3, 151680, Note_off_c, 2, 60, 95
3, 151680, Note_off_c, 2, 55, 95
3, 151680, Note_on_c, 2, 59, 95
3, 151680, Note_on_c, 2, 54, 95
3, 152640, Note_off_c, 2, 59, 95
3, 152640, Note_off_c, 2, 54, 95
3, 152640, Note_on_c, 2, 55, 95
3, 152640, Note_on_c, 2, 50, 95
3, 153600, Note_off_c, 2, 55, 95
3, 153600, Note_off_c, 2, 50, 95
3, 153600, Note_on_c, 2, 50, 95
3, 153600, Note_on_c, 2, 43, 95
3, 154080, Note_off_c, 2, 50, 95
3, 154080, Note_off_c, 2, 43, 95
3, 154080, Note_on_c, 2, 50, 95
3, 154080, Note_on_c, 2, 43, 95
3, 154560, Note_off_c, 2, 50, 95
3, 154560, Note_off_c, 2, 43, 95
3, 154560, Note_on_c, 2, 52, 95
3, 154560, Note_on_c, 2, 43, 95
3, 155520, Note_off_c, 2, 52, 95
3, 155520, Note_off_c, 2, 43, 95
3, 155520, Note_on_c, 2, 50, 95
3, 155520, Note_on_c, 2, 43, 95
3, 156000, Note_off_c, 2, 50, 95
3, 156000, Note_off_c, 2, 43, 95
3, 156000, Note_on_c, 2, 50, 95
3, 156000, Note_on_c, 2, 43, 95
3, 156480, Note_off_c, 2, 50, 95
3, 156480, Note_off_c, 2, 43, 95
3, 156480, Note_on_c, 2, 52, 95
3, 156480, Note_on_c, 2, 43, 95
3, 156960, Note_off_c, 2, 52, 95
3, 156960, Note_off_c, 2, 43, 95
3, 156960, Note_on_c, 2, 50, 95
3, 156960, Note_on_c, 2, 43, 95
3, 157920, Note_off_c, 2, 50, 95
3, 157920, Note_off_c, 2, 43, 95
3, 157920, Note_on_c, 2, 50, 95
3, 157920, Note_on_c, 2, 43, 95
3, 158400, Note_off_c, 2, 50, 95
3, 158400, Note_off_c, 2, 43, 95
3, 158400, Note_on_c, 2, 52, 95
3, 158400, Note_on_c, 2, 43, 95
3, 159360, Note_off_c, 2, 52, 95
3, 159360, Note_off_c, 2, 43, 95
3, 159360, Note_on_c, 2, 50, 95
3, 159360, Note_on_c, 2, 43, 95
3, 159840, Note_off_c, 2, 50, 95
3, 159840, Note_off_c, 2, 43, 95
3, 159840, Note_on_c, 2, 50, 95
3, 159840, Note_on_c, 2, 43, 95
3, 160320, Note_off_c, 2, 50, 95
3, 160320, Note_off_c, 2, 43, 95
3, 160320, Note_on_c, 2, 52, 95
3, 160320, Note_on_c, 2, 43, 95
3, 161280, Note_off_c, 2, 52, 95
3, 161280, Note_off_c, 2, 43, 95
3, 161280, Note_on_c, 2, 50, 95
3, 161280, Note_on_c, 2, 43, 95
3, 161760, Note_off_c, 2, 50, 95
3, 161760, Note_off_c, 2, 43, 95
3, 161760, Note_on_c, 2, 50, 95
3, 161760, Note_on_c, 2, 43, 95
3, 162240, Note_off_c, 2, 50, 95
3, 162240, Note_off_c, 2, 43, 95
3, 162240, Note_on_c, 2, 52, 95
3, 162240, Note_on_c, 2, 43, 95
3, 163200, Note_off_c, 2, 52, 95
3, 163200, Note_off_c, 2, 43, 95
3, 163200, Note_on_c, 2, 50, 95
3, 163200, Note_on_c, 2, 43, 95
3, 163680, Note_off_c, 2, 50, 95
3, 163680, Note_off_c, 2, 43, 95
3, 163680, Note_on_c, 2, 50, 95
3, 163680, Note_on_c, 2, 43, 95
3, 164160, Note_off_c, 2, 50, 95
3, 164160, Note_off_c, 2, 43, 95
3, 164160, Note_on_c, 2, 52, 95
3, 164160, Note_on_c, 2, 43, 95
3, 165120, Note_off_c, 2, 52, 95
3, 165120, Note_off_c, 2, 43, 95
3, 165120, Note_on_c, 2, 50, 95
3, 165120, Note_on_c, 2, 43, 95
3, 165600, Note_off_c, 2, 50, 95
3, 165600, Note_off_c, 2, 43, 95
3, 165600, Note_on_c, 2, 50, 95
3, 165600, Note_on_c, 2, 43, 95
3, 166080, Note_off_c, 2, 50, 95
3, 166080, Note_off_c, 2, 43, 95
3, 166080, Note_on_c, 2, 52, 95
3, 166080, Note_on_c, 2, 43, 95
3, 167040, Note_off_c, 2, 52, 95
3, 167040, Note_off_c, 2, 43, 95
3, 167040, Note_on_c, 2, 50, 95
3, 167040, Note_on_c, 2, 43, 95
3, 167520, Note_off_c, 2, 50, 95
3, 167520, Note_off_c, 2, 43, 95
3, 167520, Note_on_c, 2, 50, 95
3, 167520, Note_on_c, 2, 43, 95
3, 168000, Note_off_c, 2, 50, 95
3, 168000, Note_off_c, 2, 43, 95
3, 168000, Note_on_c, 2, 52, 95
3, 168000, Note_on_c, 2, 43, 95
3, 168960, Note_off_c, 2, 52, 95
3, 168960, Note_off_c, 2, 43, 95
3, 168960, Note_on_c, 2, 50, 95
3, 168960, Note_on_c, 2, 43, 95
3, 169440, Note_off_c, 2, 50, 95
3, 169440, Note_off_c, 2, 43, 95
3, 169440, Note_on_c, 2, 50, 95
3, 169440, Note_on_c, 2, 43, 95
3, 169920, Note_off_c, 2, 50, 95
3, 169920, Note_off_c, 2, 43, 95
3, 169920, Note_on_c, 2, 52, 95
3, 169920, Note_on_c, 2, 43, 95
3, 170880, Note_off_c, 2, 52, 95
3, 170880, Note_off_c, 2, 43, 95
3, 170880, Note_on_c, 2, 50, 95
3, 170880, Note_on_c, 2, 43, 95
3, 171360, Note_off_c, 2, 50, 95
3, 171360, Note_off_c, 2, 43, 95
3, 171360, Note_on_c, 2, 50, 95
3, 171360, Note_on_c, 2, 43, 95
3, 171840, Note_off_c, 2, 50, 95
3, 171840, Note_off_c, 2, 43, 95
3, 171840, Note_on_c, 2, 52, 95
3, 171840, Note_on_c, 2, 43, 95
3, 172800, Note_off_c, 2, 52, 95
3, 172800, Note_off_c, 2, 43, 95
3, 172800, Note_on_c, 2, 57, 95
3, 172800, Note_on_c, 2, 50, 95
3, 173280, Note_off_c, 2, 57, 95
3, 173280, Note_off_c, 2, 50, 95
3, 173280, Note_on_c, 2, 57, 95
3, 173280, Note_on_c, 2, 50, 95
3, 173760, Note_off_c, 2, 57, 95
3, 173760, Note_off_c, 2, 50, 95
3, 173760, Note_on_c, 2, 59, 95
3, 173760, Note_on_c, 2, 50, 95
3, 174720, Note_off_c, 2, 59, 95
3, 174720, Note_off_c, 2, 50, 95
3, 174720, Note_on_c, 2, 57, 95
3, 174720, Note_on_c, 2, 50, 95
3, 175200, Note_off_c, 2, 57, 95
3, 175200, Note_off_c, 2, 50, 95
3, 175200, Note_on_c, 2, 57, 95
3, 175200, Note_on_c, 2, 50, 95
3, 175680, Note_off_c, 2, 57, 95
3, 175680, Note_off_c, 2, 50, 95
3, 175680, Note_on_c, 2, 59, 95
3, 175680, Note_on_c, 2, 50, 95
3, 176640, Note_off_c, 2, 59, 95
3, 176640, Note_off_c, 2, 50, 95
3, 176640, Note_on_c, 2, 57, 95
3, 176640, Note_on_c, 2, 50, 95
3, 177120, Note_off_c, 2, 57, 95
3, 177120, Note_off_c, 2, 50, 95
3, 177120, Note_on_c, 2, 57, 95
3, 177120, Note_on_c, 2, 50, 95
3, 177600, Note_off_c, 2, 57, 95
3, 177600, Note_off_c, 2, 50, 95
3, 177600, Note_on_c, 2, 59, 95
3, 177600, Note_on_c, 2, 50, 95
3, 178560, Note_off_c, 2, 59, 95
3, 178560, Note_off_c, 2, 50, 95
3, 178560, Note_on_c, 2, 57, 95
3, 178560, Note_on_c, 2, 50, 95
3, 179040, Note_off_c, 2, 57, 95
3, 179040, Note_off_c, 2, 50, 95
3, 179040, Note_on_c, 2, 57, 95
3, 179040, Note_on_c, 2, 50, 95
3, 179520, Note_off_c, 2, 57, 95
3, 179520, Note_off_c, 2, 50, 95
3, 179520, Note_on_c, 2, 59, 95
3, 179520, Note_on_c, 2, 50, 95
3, 180480, Note_off_c, 2, 59, 95
3, 180480, Note_off_c, 2, 50, 95
3, 180480, Note_on_c, 2, 57, 95
3, 180480, Note_on_c, 2, 50, 95
3, 180960, Note_off_c, 2, 57, 95
3, 180960, Note_off_c, 2, 50, 95
3, 180960, Note_on_c, 2, 57, 95
3, 180960, Note_on_c, 2, 50, 95
3, 181440, Note_off_c, 2, 57, 95
3, 181440, Note_off_c, 2, 50, 95
3, 181440, Note_on_c, 2, 59, 95
3, 181440, Note_on_c, 2, 50, 95
3, 182400, Note_off_c, 2, 59, 95
3, 182400, Note_off_c, 2, 50, 95
3, 182400, Note_on_c, 2, 57, 95
3, 182400, Note_on_c, 2, 50, 95
3, 182880, Note_off_c, 2, 57, 95
3, 182880, Note_off_c, 2, 50, 95
3, 182880, Note_on_c, 2, 57, 95
3, 182880, Note_on_c, 2, 50, 95
3, 183360, Note_off_c, 2, 57, 95
3, 183360, Note_off_c, 2, 50, 95
3, 183360, Note_on_c, 2, 59, 95
3, 183360, Note_on_c, 2, 50, 95
3, 184320, Note_off_c, 2, 59, 95
3, 184320, Note_off_c, 2, 50, 95
3, 184320, Note_on_c, 2, 57, 95
3, 184320, Note_on_c, 2, 50, 95
3, 184800, Note_off_c, 2, 57, 95
3, 184800, Note_off_c, 2, 50, 95
3, 184800, Note_on_c, 2, 57, 95
3, 184800, Note_on_c, 2, 50, 95
3, 185280, Note_off_c, 2, 57, 95
3, 185280, Note_off_c, 2, 50, 95
3, 185280, Note_on_c, 2, 59, 95
3, 185280, Note_on_c, 2, 50, 95
3, 186240, Note_off_c, 2, 59, 95
3, 186240, Note_off_c, 2, 50, 95
3, 186240, Note_on_c, 2, 57, 95
3, 186240, Note_on_c, 2, 50, 95
3, 186720, Note_off_c, 2, 57, 95
3, 186720, Note_off_c, 2, 50, 95
3, 186720, Note_on_c, 2, 57, 95
3, 186720, Note_on_c, 2, 50, 95
3, 187200, Note_off_c, 2, 57, 95
3, 187200, Note_off_c, 2, 50, 95
3, 187200, Note_on_c, 2, 59, 95
3, 187200, Note_on_c, 2, 50, 95
3, 187680, Note_off_c, 2, 59, 95
3, 187680, Note_off_c, 2, 50, 95
3, 187680, Note_on_c, 2, 50, 95
3, 187680, Note_on_c, 2, 43, 95
3, 188640, Note_off_c, 2, 50, 95
3, 188640, Note_off_c, 2, 43, 95
3, 188640, Note_on_c, 2, 50, 95
3, 188640, Note_on_c, 2, 43, 95
3, 189120, Note_off_c, 2, 50, 95
3, 189120, Note_off_c, 2, 43, 95
3, 189120, Note_on_c, 2, 52, 95
3, 189120, Note_on_c, 2, 43, 95
3, 190080, Note_off_c, 2, 52, 95
3, 190080, Note_off_c, 2, 43, 95
3, 190080, Note_on_c, 2, 50, 95
3, 190080, Note_on_c, 2, 43, 95
3, 190560, Note_off_c, 2, 50, 95
3, 190560, Note_off_c, 2, 43, 95
3, 190560, Note_on_c, 2, 50, 95
3, 190560, Note_on_c, 2, 43, 95
3, 191040, Note_off_c, 2, 50, 95
3, 191040, Note_off_c, 2, 43, 95
3, 191040, Note_on_c, 2, 52, 95
3, 191040, Note_on_c, 2, 43, 95
3, 192000, Note_off_c, 2, 52, 95
3, 192000, Note_off_c, 2, 43, 95
3, 192000, Note_on_c, 2, 50, 95
3, 192000, Note_on_c, 2, 43, 95
3, 192480, Note_off_c, 2, 50, 95
3, 192480, Note_off_c, 2, 43, 95
3, 192480, Note_on_c, 2, 50, 95
3, 192480, Note_on_c, 2, 43, 95
3, 192960, Note_off_c, 2, 50, 95
3, 192960, Note_off_c, 2, 43, 95
3, 192960, Note_on_c, 2, 52, 95
3, 192960, Note_on_c, 2, 43, 95
3, 193920, Note_off_c, 2, 52, 95
3, 193920, Note_off_c, 2, 43, 95
3, 193920, Note_on_c, 2, 50, 95
3, 193920, Note_on_c, 2, 43, 95
3, 194400, Note_off_c, 2, 50, 95
3, 194400, Note_off_c, 2, 43, 95
3, 194400, Note_on_c, 2, 50, 95
3, 194400, Note_on_c, 2, 43, 95
3, 194880, Note_off_c, 2, 50, 95
3, 194880, Note_off_c, 2, 43, 95
3, 194880, Note_on_c, 2, 52, 95
3, 194880, Note_on_c, 2, 43, 95
3, 195840, Note_off_c, 2, 52, 95
3, 195840, Note_off_c, 2, 43, 95
3, 195840, Note_on_c, 2, 50, 95
3, 195840, Note_on_c, 2, 43, 95
3, 196320, Note_off_c, 2, 50, 95
3, 196320, Note_off_c, 2, 43, 95
3, 196320, Note_on_c, 2, 50, 95
3, 196320, Note_on_c, 2, 43, 95
3, 196800, Note_off_c, 2, 50, 95
3, 196800, Note_off_c, 2, 43, 95
3, 196800, Note_on_c, 2, 52, 95
3, 196800, Note_on_c, 2, 43, 95
3, 197760, Note_off_c, 2, 52, 95
3, 197760, Note_off_c, 2, 43, 95
3, 197760, Note_on_c, 2, 50, 95
3, 197760, Note_on_c, 2, 43, 95
3, 198240, Note_off_c, 2, 50, 95
3, 198240, Note_off_c, 2, 43, 95
3, 198240, Note_on_c, 2, 50, 95
3, 198240, Note_on_c, 2, 43, 95
3, 198720, Note_off_c, 2, 50, 95
3, 198720, Note_off_c, 2, 43, 95
3, 198720, Note_on_c, 2, 52, 95
3, 198720, Note_on_c, 2, 43, 95
3, 199680, Note_off_c, 2, 52, 95
3, 199680, Note_off_c, 2, 43, 95
3, 199680, Note_on_c, 2, 50, 95
3, 199680, Note_on_c, 2, 43, 95
3, 200160, Note_off_c, 2, 50, 95
3, 200160, Note_off_c, 2, 43, 95
3, 200160, Note_on_c, 2, 50, 95
3, 200160, Note_on_c, 2, 43, 95
3, 200640, Note_off_c, 2, 50, 95
3, 200640, Note_off_c, 2, 43, 95
3, 200640, Note_on_c, 2, 52, 95
3, 200640, Note_on_c, 2, 43, 95
3, 201600, Note_off_c, 2, 52, 95
3, 201600, Note_off_c, 2, 43, 95
3, 201600, Note_on_c, 2, 50, 95
3, 201600, Note_on_c, 2, 43, 95
3, 202080, Note_off_c, 2, 50, 95
3, 202080, Note_off_c, 2, 43, 95
3, 202080, Note_on_c, 2, 50, 95
3, 202080, Note_on_c, 2, 43, 95
3, 202560, Note_off_c, 2, 50, 95
3, 202560, Note_off_c, 2, 43, 95
3, 202560, Note_on_c, 2, 52, 95
3, 202560, Note_on_c, 2, 43, 95
3, 203520, Note_off_c, 2, 52, 95
3, 203520, Note_off_c, 2, 43, 95
3, 203520, Note_on_c, 2, 57, 95
3, 203520, Note_on_c, 2, 50, 95
3, 204000, Note_off_c, 2, 57, 95
3, 204000, Note_off_c, 2, 50, 95
3, 204000, Note_on_c, 2, 57, 95
3, 204000, Note_on_c, 2, 50, 95
3, 204480, Note_off_c, 2, 57, 95
3, 204480, Note_off_c, 2, 50, 95
3, 204480, Note_on_c, 2, 59, 95
3, 204480, Note_on_c, 2, 50, 95
3, 205440, Note_off_c, 2, 59, 95
3, 205440, Note_off_c, 2, 50, 95
3, 205440, Note_on_c, 2, 57, 95
3, 205440, Note_on_c, 2, 50, 95
3, 205920, Note_off_c, 2, 57, 95
3, 205920, Note_off_c, 2, 50, 95
3, 205920, Note_on_c, 2, 57, 95
3, 205920, Note_on_c, 2, 50, 95
3, 206400, Note_off_c, 2, 57, 95
3, 206400, Note_off_c, 2, 50, 95
3, 206400, Note_on_c, 2, 59, 95
3, 206400, Note_on_c, 2, 50, 95
3, 207360, Note_off_c, 2, 59, 95
3, 207360, Note_off_c, 2, 50, 95
3, 207360, Note_on_c, 2, 57, 95
3, 207360, Note_on_c, 2, 50, 95
3, 207840, Note_off_c, 2, 57, 95
3, 207840, Note_off_c, 2, 50, 95
3, 207840, Note_on_c, 2, 57, 95
3, 207840, Note_on_c, 2, 50, 95
3, 208320, Note_off_c, 2, 57, 95
3, 208320, Note_off_c, 2, 50, 95
3, 208320, Note_on_c, 2, 59, 95
3, 208320, Note_on_c, 2, 50, 95
3, 209280, Note_off_c, 2, 59, 95
3, 209280, Note_off_c, 2, 50, 95
3, 209280, Note_on_c, 2, 57, 95
3, 209280, Note_on_c, 2, 50, 95
3, 209760, Note_off_c, 2, 57, 95
3, 209760, Note_off_c, 2, 50, 95
3, 209760, Note_on_c, 2, 57, 95
3, 209760, Note_on_c, 2, 50, 95
3, 210240, Note_off_c, 2, 57, 95
3, 210240, Note_off_c, 2, 50, 95
3, 210240, Note_on_c, 2, 59, 95
3, 210240, Note_on_c, 2, 50, 95
3, 211200, Note_off_c, 2, 59, 95
3, 211200, Note_off_c, 2, 50, 95
3, 211200, Note_on_c, 2, 57, 95
3, 211200, Note_on_c, 2, 50, 95
3, 211680, Note_off_c, 2, 57, 95
3, 211680, Note_off_c, 2, 50, 95
3, 211680, Note_on_c, 2, 57, 95
3, 211680, Note_on_c, 2, 50, 95
3, 212160, Note_off_c, 2, 57, 95
3, 212160, Note_off_c, 2, 50, 95
3, 212160, Note_on_c, 2, 59, 95
3, 212160, Note_on_c, 2, 50, 95
3, 213120, Note_off_c, 2, 59, 95
3, 213120, Note_off_c, 2, 50, 95
3, 213120, Note_on_c, 2, 57, 95
3, 213120, Note_on_c, 2, 50, 95
3, 213600, Note_off_c, 2, 57, 95
3, 213600, Note_off_c, 2, 50, 95
3, 213600, Note_on_c, 2, 57, 95
3, 213600, Note_on_c, 2, 50, 95
3, 214080, Note_off_c, 2, 57, 95
3, 214080, Note_off_c, 2, 50, 95
3, 214080, Note_on_c, 2, 59, 95
3, 214080, Note_on_c, 2, 50, 95
3, 215040, Note_off_c, 2, 59, 95
3, 215040, Note_off_c, 2, 50, 95
3, 215040, Note_on_c, 2, 57, 95
3, 215040, Note_on_c, 2, 50, 95
3, 215520, Note_off_c, 2, 57, 95
3, 215520, Note_off_c, 2, 50, 95
3, 215520, Note_on_c, 2, 57, 95
3, 215520, Note_on_c, 2, 50, 95
3, 216000, Note_off_c, 2, 57, 95
3, 216000, Note_off_c, 2, 50, 95
3, 216000, Note_on_c, 2, 59, 95
3, 216000, Note_on_c, 2, 50, 95
3, 216960, Note_off_c, 2, 59, 95
3, 216960, Note_off_c, 2, 50, 95
3, 216960, Note_on_c, 2, 57, 95
3, 216960, Note_on_c, 2, 50, 95
3, 217440, Note_off_c, 2, 57, 95
3, 217440, Note_off_c, 2, 50, 95
3, 217440, Note_on_c, 2, 57, 95
3, 217440, Note_on_c, 2, 50, 95
3, 217920, Note_off_c, 2, 57, 95
3, 217920, Note_off_c, 2, 50, 95
3, 217920, Note_on_c, 2, 59, 95
3, 217920, Note_on_c, 2, 50, 95
3, 218880, Note_off_c, 2, 59, 95
3, 218880, Note_off_c, 2, 50, 95
3, 218880, Note_on_c, 2, 50, 95
3, 218880, Note_on_c, 2, 43, 95
3, 219360, Note_off_c, 2, 50, 95
3, 219360, Note_off_c, 2, 43, 95
3, 219360, Note_on_c, 2, 50, 95
3, 219360, Note_on_c, 2, 43, 95
3, 219840, Note_off_c, 2, 50, 95
3, 219840, Note_off_c, 2, 43, 95
3, 219840, Note_on_c, 2, 52, 95
3, 219840, Note_on_c, 2, 43, 95
3, 220800, Note_off_c, 2, 52, 95
3, 220800, Note_off_c, 2, 43, 95
3, 220800, Note_on_c, 2, 50, 95
3, 220800, Note_on_c, 2, 43, 95
3, 221280, Note_off_c, 2, 50, 95
3, 221280, Note_off_c, 2, 43, 95
3, 221280, Note_on_c, 2, 50, 95
3, 221280, Note_on_c, 2, 43, 95
3, 221760, Note_off_c, 2, 50, 95
3, 221760, Note_off_c, 2, 43, 95
3, 221760, Note_on_c, 2, 52, 95
3, 221760, Note_on_c, 2, 43, 95
3, 222720, Note_off_c, 2, 52, 95
3, 222720, Note_off_c, 2, 43, 95
3, 222720, Note_on_c, 2, 50, 95
3, 222720, Note_on_c, 2, 43, 95
3, 223200, Note_off_c, 2, 50, 95
3, 223200, Note_off_c, 2, 43, 95
3, 223200, Note_on_c, 2, 50, 95
3, 223200, Note_on_c, 2, 43, 95
3, 223680, Note_off_c, 2, 50, 95
3, 223680, Note_off_c, 2, 43, 95
3, 223680, Note_on_c, 2, 52, 95
3, 223680, Note_on_c, 2, 43, 95
3, 224640, Note_off_c, 2, 52, 95
3, 224640, Note_off_c, 2, 43, 95
3, 224640, Note_on_c, 2, 50, 95
3, 224640, Note_on_c, 2, 43, 95
3, 225120, Note_off_c, 2, 50, 95
3, 225120, Note_off_c, 2, 43, 95
3, 225120, Note_on_c, 2, 50, 95
3, 225120, Note_on_c, 2, 43, 95
3, 225600, Note_off_c, 2, 50, 95
3, 225600, Note_off_c, 2, 43, 95
3, 225600, Note_on_c, 2, 52, 95
3, 225600, Note_on_c, 2, 43, 95
3, 226560, Note_off_c, 2, 52, 95
3, 226560, Note_off_c, 2, 43, 95
3, 226560, Note_on_c, 2, 50, 95
3, 226560, Note_on_c, 2, 43, 95
3, 227040, Note_off_c, 2, 50, 95
3, 227040, Note_off_c, 2, 43, 95
3, 227040, Note_on_c, 2, 50, 95
3, 227040, Note_on_c, 2, 43, 95
3, 227520, Note_off_c, 2, 50, 95
3, 227520, Note_off_c, 2, 43, 95
3, 227520, Note_on_c, 2, 52, 95
3, 227520, Note_on_c, 2, 43, 95
3, 228480, Note_off_c, 2, 52, 95
3, 228480, Note_off_c, 2, 43, 95
3, 228480, Note_on_c, 2, 50, 95
3, 228480, Note_on_c, 2, 43, 95
3, 228960, Note_off_c, 2, 50, 95
3, 228960, Note_off_c, 2, 43, 95
3, 228960, Note_on_c, 2, 50, 95
3, 228960, Note_on_c, 2, 43, 95
3, 229440, Note_off_c, 2, 50, 95
3, 229440, Note_off_c, 2, 43, 95
3, 229440, Note_on_c, 2, 52, 95
3, 229440, Note_on_c, 2, 43, 95
3, 230400, Note_off_c, 2, 52, 95
3, 230400, Note_off_c, 2, 43, 95
3, 230400, Note_on_c, 2, 50, 95
3, 230400, Note_on_c, 2, 43, 95
3, 230880, Note_off_c, 2, 50, 95
3, 230880, Note_off_c, 2, 43, 95
3, 230880, Note_on_c, 2, 50, 95
3, 230880, Note_on_c, 2, 43, 95
3, 231360, Note_off_c, 2, 50, 95
3, 231360, Note_off_c, 2, 43, 95
3, 231360, Note_on_c, 2, 52, 95
3, 231360, Note_on_c, 2, 43, 95
3, 232320, Note_off_c, 2, 52, 95
3, 232320, Note_off_c, 2, 43, 95
3, 232320, Note_on_c, 2, 50, 95
3, 232320, Note_on_c, 2, 43, 95
3, 232800, Note_off_c, 2, 50, 95
3, 232800, Note_off_c, 2, 43, 95
3, 232800, Note_on_c, 2, 50, 95
3, 232800, Note_on_c, 2, 43, 95
3, 233280, Note_off_c, 2, 50, 95
3, 233280, Note_off_c, 2, 43, 95
3, 233280, Note_on_c, 2, 52, 95
3, 233280, Note_on_c, 2, 43, 95
3, 234240, Note_off_c, 2, 52, 95
3, 234240, Note_off_c, 2, 43, 95
3, 234240, Note_on_c, 2, 57, 95
3, 234240, Note_on_c, 2, 50, 95
3, 234720, Note_off_c, 2, 57, 95
3, 234720, Note_off_c, 2, 50, 95
3, 234720, Note_on_c, 2, 57, 95
3, 234720, Note_on_c, 2, 50, 95
3, 235200, Note_off_c, 2, 57, 95
3, 235200, Note_off_c, 2, 50, 95
3, 235200, Note_on_c, 2, 59, 95
3, 235200, Note_on_c, 2, 50, 95
3, 236160, Note_off_c, 2, 59, 95
3, 236160, Note_off_c, 2, 50, 95
3, 236160, Note_on_c, 2, 57, 95
3, 236160, Note_on_c, 2, 50, 95
3, 236640, Note_off_c, 2, 57, 95
3, 236640, Note_off_c, 2, 50, 95
3, 236640, Note_on_c, 2, 57, 95
3, 236640, Note_on_c, 2, 50, 95
3, 237120, Note_off_c, 2, 57, 95
3, 237120, Note_off_c, 2, 50, 95
3, 237120, Note_on_c, 2, 59, 95
3, 237120, Note_on_c, 2, 50, 95
3, 238080, Note_off_c, 2, 59, 95
3, 238080, Note_off_c, 2, 50, 95
3, 238080, Note_on_c, 2, 57, 95
3, 238080, Note_on_c, 2, 50, 95
3, 238560, Note_off_c, 2, 57, 95
3, 238560, Note_off_c, 2, 50, 95
3, 238560, Note_on_c, 2, 57, 95
3, 238560, Note_on_c, 2, 50, 95
3, 239040, Note_off_c, 2, 57, 95
3, 239040, Note_off_c, 2, 50, 95
3, 239040, Note_on_c, 2, 59, 95
3, 239040, Note_on_c, 2, 50, 95
3, 240000, Note_off_c, 2, 59, 95
3, 240000, Note_off_c, 2, 50, 95
3, 240000, Note_on_c, 2, 57, 95
3, 240000, Note_on_c, 2, 50, 95
3, 240480, Note_off_c, 2, 57, 95
3, 240480, Note_off_c, 2, 50, 95
3, 240480, Note_on_c, 2, 57, 95
3, 240480, Note_on_c, 2, 50, 95
3, 240960, Note_off_c, 2, 57, 95
3, 240960, Note_off_c, 2, 50, 95
3, 240960, Note_on_c, 2, 59, 95
3, 240960, Note_on_c, 2, 50, 95
3, 241920, Note_off_c, 2, 59, 95
3, 241920, Note_off_c, 2, 50, 95
3, 241920, Note_on_c, 2, 57, 95
3, 241920, Note_on_c, 2, 50, 95
3, 242400, Note_off_c, 2, 57, 95
3, 242400, Note_off_c, 2, 50, 95
3, 242400, Note_on_c, 2, 57, 95
3, 242400, Note_on_c, 2, 50, 95
3, 242880, Note_off_c, 2, 57, 95
3, 242880, Note_off_c, 2, 50, 95
3, 242880, Note_on_c, 2, 59, 95
3, 242880, Note_on_c, 2, 50, 95
3, 243840, Note_off_c, 2, 59, 95
3, 243840, Note_off_c, 2, 50, 95
3, 243840, Note_on_c, 2, 57, 95
3, 243840, Note_on_c, 2, 50, 95
3, 244320, Note_off_c, 2, 57, 95
3, 244320, Note_off_c, 2, 50, 95
3, 244320, Note_on_c, 2, 57, 95
3, 244320, Note_on_c, 2, 50, 95
3, 244800, Note_off_c, 2, 57, 95
3, 244800, Note_off_c, 2, 50, 95
3, 244800, Note_on_c, 2, 59, 95
3, 244800, Note_on_c, 2, 50, 95
3, 245760, Note_off_c, 2, 59, 95
3, 245760, Note_off_c, 2, 50, 95
3, 245760, Note_on_c, 2, 57, 95
3, 245760, Note_on_c, 2, 50, 95
3, 246240, Note_off_c, 2, 57, 95
3, 246240, Note_off_c, 2, 50, 95
3, 246240, Note_on_c, 2, 57, 95
3, 246240, Note_on_c, 2, 50, 95
3, 246720, Note_off_c, 2, 57, 95
3, 246720, Note_off_c, 2, 50, 95
3, 246720, Note_on_c, 2, 59, 95
3, 246720, Note_on_c, 2, 50, 95
3, 247680, Note_off_c, 2, 59, 95
3, 247680, Note_off_c, 2, 50, 95
3, 247680, Note_on_c, 2, 57, 95
3, 247680, Note_on_c, 2, 50, 95
3, 248160, Note_off_c, 2, 57, 95
3, 248160, Note_off_c, 2, 50, 95
3, 248160, Note_on_c, 2, 57, 95
3, 248160, Note_on_c, 2, 50, 95
3, 248640, Note_off_c, 2, 57, 95
3, 248640, Note_off_c, 2, 50, 95
3, 248640, Note_on_c, 2, 59, 95
3, 248640, Note_on_c, 2, 50, 95
3, 249600, Note_off_c, 2, 59, 95
3, 249600, Note_off_c, 2, 50, 95
3, 249600, Note_on_c, 2, 50, 95
3, 249600, Note_on_c, 2, 43, 95
3, 250080, Note_off_c, 2, 50, 95
3, 250080, Note_off_c, 2, 43, 95
3, 250080, Note_on_c, 2, 50, 95
3, 250080, Note_on_c, 2, 43, 95
3, 250560, Note_off_c, 2, 50, 95
3, 250560, Note_off_c, 2, 43, 95
3, 250560, Note_on_c, 2, 52, 95
3, 250560, Note_on_c, 2, 43, 95
3, 251520, Note_off_c, 2, 52, 95
3, 251520, Note_off_c, 2, 43, 95
3, 251520, Note_on_c, 2, 50, 95
3, 251520, Note_on_c, 2, 43, 95
3, 252000, Note_off_c, 2, 50, 95
3, 252000, Note_off_c, 2, 43, 95
3, 252000, Note_on_c, 2, 50, 95
3, 252000, Note_on_c, 2, 43, 95
3, 252480, Note_off_c, 2, 50, 95
3, 252480, Note_off_c, 2, 43, 95
3, 252480, Note_on_c, 2, 52, 95
3, 252480, Note_on_c, 2, 45, 95
3, 253440, Note_off_c, 2, 52, 95
3, 253440, Note_off_c, 2, 45, 95
3, 253440, Note_on_c, 2, 50, 95
3, 253440, Note_on_c, 2, 43, 95
3, 253920, Note_off_c, 2, 50, 95
3, 253920, Note_off_c, 2, 43, 95
3, 253920, Note_on_c, 2, 50, 95
3, 253920, Note_on_c, 2, 43, 95
3, 254400, Note_off_c, 2, 50, 95
3, 254400, Note_off_c, 2, 43, 95
3, 254400, Note_on_c, 2, 52, 95
3, 254400, Note_on_c, 2, 43, 95
3, 255360, Note_off_c, 2, 52, 95
3, 255360, Note_off_c, 2, 43, 95
3, 255360, Note_on_c, 2, 50, 95
3, 255360, Note_on_c, 2, 43, 95
3, 255840, Note_off_c, 2, 50, 95
3, 255840, Note_off_c, 2, 43, 95
3, 255840, Note_on_c, 2, 50, 95
3, 255840, Note_on_c, 2, 43, 95
3, 256320, Note_off_c, 2, 50, 95
3, 256320, Note_off_c, 2, 43, 95
3, 256320, Note_on_c, 2, 52, 95
3, 256320, Note_on_c, 2, 43, 95
3, 257280, Note_off_c, 2, 52, 95
3, 257280, Note_off_c, 2, 43, 95
3, 257280, Note_on_c, 2, 50, 95
3, 257280, Note_on_c, 2, 43, 95
3, 257760, Note_off_c, 2, 50, 95
3, 257760, Note_off_c, 2, 43, 95
3, 257760, Note_on_c, 2, 50, 95
3, 257760, Note_on_c, 2, 43, 95
3, 258240, Note_off_c, 2, 50, 95
3, 258240, Note_off_c, 2, 43, 95
3, 258240, Note_on_c, 2, 52, 95
3, 258240, Note_on_c, 2, 43, 95
3, 259200, Note_off_c, 2, 52, 95
3, 259200, Note_off_c, 2, 43, 95
3, 259200, Note_on_c, 2, 50, 95
3, 259200, Note_on_c, 2, 43, 95
3, 259680, Note_off_c, 2, 50, 95
3, 259680, Note_off_c, 2, 43, 95
3, 259680, Note_on_c, 2, 50, 95
3, 259680, Note_on_c, 2, 43, 95
3, 260160, Note_off_c, 2, 50, 95
3, 260160, Note_off_c, 2, 43, 95
3, 260160, Note_on_c, 2, 52, 95
3, 260160, Note_on_c, 2, 43, 95
3, 261120, Note_off_c, 2, 52, 95
3, 261120, Note_off_c, 2, 43, 95
3, 261120, Note_on_c, 2, 50, 95
3, 261120, Note_on_c, 2, 43, 95
3, 261600, Note_off_c, 2, 50, 95
3, 261600, Note_off_c, 2, 43, 95
3, 261600, Note_on_c, 2, 50, 95
3, 261600, Note_on_c, 2, 43, 95
3, 262080, Note_off_c, 2, 50, 95
3, 262080, Note_off_c, 2, 43, 95
3, 262080, Note_on_c, 2, 52, 95
3, 262080, Note_on_c, 2, 43, 95
3, 263040, Note_off_c, 2, 52, 95
3, 263040, Note_off_c, 2, 43, 95
3, 263040, Note_on_c, 2, 50, 95
3, 263040, Note_on_c, 2, 43, 95
3, 263520, Note_off_c, 2, 50, 95
3, 263520, Note_off_c, 2, 43, 95
3, 263520, Note_on_c, 2, 50, 95
3, 263520, Note_on_c, 2, 43, 95
3, 264000, Note_off_c, 2, 50, 95
3, 264000, Note_off_c, 2, 43, 95
3, 264000, Note_on_c, 2, 52, 95
3, 264000, Note_on_c, 2, 43, 95
3, 264960, Note_off_c, 2, 52, 95
3, 264960, Note_off_c, 2, 43, 95
3, 264960, Note_on_c, 2, 57, 95
3, 264960, Note_on_c, 2, 50, 95
3, 265440, Note_off_c, 2, 57, 95
3, 265440, Note_off_c, 2, 50, 95
3, 265440, Note_on_c, 2, 57, 95
3, 265440, Note_on_c, 2, 50, 95
3, 265920, Note_off_c, 2, 57, 95
3, 265920, Note_off_c, 2, 50, 95
3, 265920, Note_on_c, 2, 59, 95
3, 265920, Note_on_c, 2, 50, 95
3, 266880, Note_off_c, 2, 59, 95
3, 266880, Note_off_c, 2, 50, 95
3, 266880, Note_on_c, 2, 57, 95
3, 266880, Note_on_c, 2, 50, 95
3, 267360, Note_off_c, 2, 57, 95
3, 267360, Note_off_c, 2, 50, 95
3, 267360, Note_on_c, 2, 57, 95
3, 267360, Note_on_c, 2, 50, 95
3, 267840, Note_off_c, 2, 57, 95
3, 267840, Note_off_c, 2, 50, 95
3, 267840, Note_on_c, 2, 59, 95
3, 267840, Note_on_c, 2, 50, 95
3, 268800, Note_off_c, 2, 59, 95
3, 268800, Note_off_c, 2, 50, 95
3, 268800, Note_on_c, 2, 57, 95
3, 268800, Note_on_c, 2, 50, 95
3, 269280, Note_off_c, 2, 57, 95
3, 269280, Note_off_c, 2, 50, 95
3, 269280, Note_on_c, 2, 57, 95
3, 269280, Note_on_c, 2, 50, 95
3, 269760, Note_off_c, 2, 57, 95
3, 269760, Note_off_c, 2, 50, 95
3, 269760, Note_on_c, 2, 59, 95
3, 269760, Note_on_c, 2, 50, 95
3, 270720, Note_off_c, 2, 59, 95
3, 270720, Note_off_c, 2, 50, 95
3, 270720, Note_on_c, 2, 57, 95
3, 270720, Note_on_c, 2, 50, 95
3, 271200, Note_off_c, 2, 57, 95
3, 271200, Note_off_c, 2, 50, 95
3, 271200, Note_on_c, 2, 57, 95
3, 271200, Note_on_c, 2, 50, 95
3, 271680, Note_off_c, 2, 57, 95
3, 271680, Note_off_c, 2, 50, 95
3, 271680, Note_on_c, 2, 59, 95
3, 271680, Note_on_c, 2, 50, 95
3, 272640, Note_off_c, 2, 59, 95
3, 272640, Note_off_c, 2, 50, 95
3, 272640, Note_on_c, 2, 57, 95
3, 272640, Note_on_c, 2, 50, 95
3, 273120, Note_off_c, 2, 57, 95
3, 273120, Note_off_c, 2, 50, 95
3, 273120, Note_on_c, 2, 57, 95
3, 273120, Note_on_c, 2, 50, 95
3, 273600, Note_off_c, 2, 57, 95
3, 273600, Note_off_c, 2, 50, 95
3, 273600, Note_on_c, 2, 59, 95
3, 273600, Note_on_c, 2, 50, 95
3, 274560, Note_off_c, 2, 59, 95
3, 274560, Note_off_c, 2, 50, 95
3, 274560, Note_on_c, 2, 57, 95
3, 274560, Note_on_c, 2, 50, 95
3, 275040, Note_off_c, 2, 57, 95
3, 275040, Note_off_c, 2, 50, 95
3, 275040, Note_on_c, 2, 57, 95
3, 275040, Note_on_c, 2, 50, 95
3, 275520, Note_off_c, 2, 57, 95
3, 275520, Note_off_c, 2, 50, 95
3, 275520, Note_on_c, 2, 59, 95
3, 275520, Note_on_c, 2, 50, 95
3, 276480, Note_off_c, 2, 59, 95
3, 276480, Note_off_c, 2, 50, 95
3, 276480, Note_on_c, 2, 57, 95
3, 276480, Note_on_c, 2, 50, 95
3, 276960, Note_off_c, 2, 57, 95
3, 276960, Note_off_c, 2, 50, 95
3, 276960, Note_on_c, 2, 57, 95
3, 276960, Note_on_c, 2, 50, 95
3, 277440, Note_off_c, 2, 57, 95
3, 277440, Note_off_c, 2, 50, 95
3, 277440, Note_on_c, 2, 59, 95
3, 277440, Note_on_c, 2, 50, 95
3, 278400, Note_off_c, 2, 59, 95
3, 278400, Note_off_c, 2, 50, 95
3, 278400, Note_on_c, 2, 57, 95
3, 278400, Note_on_c, 2, 50, 95
3, 278880, Note_off_c, 2, 57, 95
3, 278880, Note_off_c, 2, 50, 95
3, 278880, Note_on_c, 2, 57, 95
3, 278880, Note_on_c, 2, 50, 95
3, 279360, Note_off_c, 2, 57, 95
3, 279360, Note_off_c, 2, 50, 95
3, 279360, Note_on_c, 2, 59, 95
3, 279360, Note_on_c, 2, 50, 95
3, 280320, Note_off_c, 2, 59, 95
3, 280320, Note_off_c, 2, 50, 95
3, 280320, Note_on_c, 2, 50, 95
3, 280320, Note_on_c, 2, 43, 95
3, 280800, Note_off_c, 2, 50, 95
3, 280800, Note_off_c, 2, 43, 95
3, 280800, Note_on_c, 2, 50, 95
3, 280800, Note_on_c, 2, 43, 95
3, 281280, Note_off_c, 2, 50, 95
3, 281280, Note_off_c, 2, 43, 95
3, 281280, Note_on_c, 2, 52, 95
3, 281280, Note_on_c, 2, 43, 95
3, 282240, Note_off_c, 2, 52, 95
3, 282240, Note_off_c, 2, 43, 95
3, 282240, Note_on_c, 2, 50, 95
3, 282240, Note_on_c, 2, 43, 95
3, 282720, Note_off_c, 2, 50, 95
3, 282720, Note_off_c, 2, 43, 95
3, 282720, Note_on_c, 2, 50, 95
3, 282720, Note_on_c, 2, 43, 95
3, 283200, Note_off_c, 2, 50, 95
3, 283200, Note_off_c, 2, 43, 95
3, 283200, Note_on_c, 2, 52, 95
3, 283200, Note_on_c, 2, 43, 95
3, 283680, Note_off_c, 2, 52, 95
3, 283680, Note_off_c, 2, 43, 95
3, 283680, Note_on_c, 2, 71, 95
3, 283680, Note_on_c, 2, 67, 95
3, 283680, Note_on_c, 2, 62, 95
3, 284160, Note_off_c, 2, 71, 95
3, 284160, Note_off_c, 2, 67, 95
3, 284160, Note_off_c, 2, 62, 95
3, 284160, Note_on_c, 2, 71, 95
3, 284160, Note_on_c, 2, 67, 95
3, 284160, Note_on_c, 2, 62, 95
3, 285600, Note_off_c, 2, 71, 95
3, 285600, Note_off_c, 2, 67, 95
3, 285600, Note_off_c, 2, 62, 95
3, 285600, Note_on_c, 2, 71, 95
3, 285600, Note_on_c, 2, 67, 95
3, 285600, Note_on_c, 2, 62, 95
3, 286080, Note_off_c, 2, 71, 95
3, 286080, Note_off_c, 2, 67, 95
3, 286080, Note_off_c, 2, 62, 95
3, 286080, Note_on_c, 2, 71, 95
3, 286080, Note_on_c, 2, 67, 95
3, 286080, Note_on_c, 2, 62, 95
3, 287520, Note_off_c, 2, 71, 95
3, 287520, Note_off_c, 2, 67, 95
3, 287520, Note_off_c, 2, 62, 95
3, 287520, Note_on_c, 2, 71, 95
3, 287520, Note_on_c, 2, 67, 95
3, 287520, Note_on_c, 2, 62, 95
3, 288000, Note_off_c, 2, 71, 95
3, 288000, Note_off_c, 2, 67, 95
3, 288000, Note_off_c, 2, 62, 95
3, 288000, Note_on_c, 2, 71, 95
3, 288000, Note_on_c, 2, 67, 95
3, 288000, Note_on_c, 2, 62, 95
3, 289440, Note_off_c, 2, 71, 95
3, 289440, Note_off_c, 2, 67, 95
3, 289440, Note_off_c, 2, 62, 95
3, 289440, Note_on_c, 2, 71, 95
3, 289440, Note_on_c, 2, 67, 95
3, 289440, Note_on_c, 2, 62, 95
3, 289920, Note_off_c, 2, 71, 95
3, 289920, Note_off_c, 2, 67, 95
3, 289920, Note_off_c, 2, 62, 95
3, 289920, Note_on_c, 2, 71, 95
3, 289920, Note_on_c, 2, 67, 95
3, 289920, Note_on_c, 2, 62, 95
3, 291360, Note_off_c, 2, 71, 95
3, 291360, Note_off_c, 2, 67, 95
3, 291360, Note_off_c, 2, 62, 95
3, 291360, Note_on_c, 2, 71, 95
3, 291360, Note_on_c, 2, 67, 95
3, 291360, Note_on_c, 2, 62, 95
3, 291840, Note_off_c, 2, 71, 95
3, 291840, Note_off_c, 2, 67, 95
3, 291840, Note_off_c, 2, 62, 95
3, 291840, Note_on_c, 2, 71, 95
3, 291840, Note_on_c, 2, 67, 95
3, 291840, Note_on_c, 2, 62, 95
3, 293760, Note_off_c, 2, 71, 95
3, 293760, Note_off_c, 2, 67, 95
3, 293760, Note_off_c, 2, 62, 95
3, 293760, Note_on_c, 2, 71, 95
3, 293760, Note_on_c, 2, 67, 95
3, 293760, Note_on_c, 2, 62, 95
3, 294720, Note_off_c, 2, 71, 95
3, 294720, Note_off_c, 2, 67, 95
3, 294720, Note_off_c, 2, 62, 95
3, 294720, Note_on_c, 2, 69, 95
3, 294720, Note_on_c, 2, 65, 95
3, 294720, Note_on_c, 2, 60, 95
3, 295680, Note_off_c, 2, 69, 95
3, 295680, Note_off_c, 2, 65, 95
3, 295680, Note_off_c, 2, 60, 95
3, 295680, Note_on_c, 2, 66, 95
3, 295680, Note_on_c, 2, 62, 95
3, 295680, Note_on_c, 2, 57, 95
3, 299040, Note_off_c, 2, 66, 95
3, 299040, Note_off_c, 2, 62, 95
3, 299040, Note_off_c, 2, 57, 95
3, 299040, Note_on_c, 2, 66, 95
3, 299040, Note_on_c, 2, 62, 95
3, 299040, Note_on_c, 2, 57, 95
3, 299520, Note_off_c, 2, 66, 95
3, 299520, Note_off_c, 2, 62, 95
3, 299520, Note_off_c, 2, 57, 95
3, 299520, Note_on_c, 2, 66, 95
3, 299520, Note_on_c, 2, 62, 95
3, 299520, Note_on_c, 2, 57, 95
3, 300960, Note_off_c, 2, 66, 95
3, 300960, Note_off_c, 2, 62, 95
3, 300960, Note_off_c, 2, 57, 95
3, 300960, Note_on_c, 2, 66, 95
3, 300960, Note_on_c, 2, 62, 95
3, 300960, Note_on_c, 2, 57, 95
3, 301440, Note_off_c, 2, 66, 95
3, 301440, Note_off_c, 2, 62, 95
3, 301440, Note_off_c, 2, 57, 95
3, 301440, Note_on_c, 2, 66, 95
3, 301440, Note_on_c, 2, 62, 95
3, 301440, Note_on_c, 2, 57, 95
3, 302880, Note_off_c, 2, 66, 95
3, 302880, Note_off_c, 2, 62, 95
3, 302880, Note_off_c, 2, 57, 95
3, 302880, Note_on_c, 2, 66, 95
3, 302880, Note_on_c, 2, 62, 95
3, 302880, Note_on_c, 2, 57, 95
3, 303360, Note_off_c, 2, 66, 95
3, 303360, Note_off_c, 2, 62, 95
3, 303360, Note_off_c, 2, 57, 95
3, 303360, Note_on_c, 2, 66, 95
3, 303360, Note_on_c, 2, 62, 95
3, 303360, Note_on_c, 2, 57, 95
3, 304800, Note_off_c, 2, 66, 95
3, 304800, Note_off_c, 2, 62, 95
3, 304800, Note_off_c, 2, 57, 95
3, 304800, Note_on_c, 2, 66, 95
3, 304800, Note_on_c, 2, 62, 95
3, 304800, Note_on_c, 2, 57, 95
3, 305280, Note_off_c, 2, 66, 95
3, 305280, Note_off_c, 2, 62, 95
3, 305280, Note_off_c, 2, 57, 95
3, 305280, Note_on_c, 2, 66, 95
3, 305280, Note_on_c, 2, 62, 95
3, 305280, Note_on_c, 2, 57, 95
3, 306720, Note_off_c, 2, 66, 95
3, 306720, Note_off_c, 2, 62, 95
3, 306720, Note_off_c, 2, 57, 95
3, 306720, Note_on_c, 2, 66, 95
3, 306720, Note_on_c, 2, 62, 95
3, 306720, Note_on_c, 2, 57, 95
3, 307200, Note_off_c, 2, 66, 95
3, 307200, Note_off_c, 2, 62, 95
3, 307200, Note_off_c, 2, 57, 95
3, 307200, Note_on_c, 2, 62, 95
3, 307200, Note_on_c, 2, 57, 95
3, 308160, Note_off_c, 2, 62, 95
3, 308160, Note_off_c, 2, 57, 95
3, 308160, Note_on_c, 2, 60, 95
3, 308160, Note_on_c, 2, 55, 95
3, 309120, Note_off_c, 2, 60, 95
3, 309120, Note_off_c, 2, 55, 95
3, 309120, Note_on_c, 2, 59, 95
3, 309120, Note_on_c, 2, 54, 95
3, 310080, Note_off_c, 2, 59, 95
3, 310080, Note_off_c, 2, 54, 95
3, 310080, Note_on_c, 2, 55, 95
3, 310080, Note_on_c, 2, 50, 95
3, 311040, Note_off_c, 2, 55, 95
3, 311040, Note_off_c, 2, 50, 95
3, 311040, Note_on_c, 2, 55, 95
3, 311520, Note_off_c, 2, 55, 95
3, 311520, Note_on_c, 2, 50, 95
3, 312000, Note_off_c, 2, 50, 95
3, 312000, Note_on_c, 2, 59, 95
3, 312960, Note_off_c, 2, 59, 95
3, 312960, Note_on_c, 2, 55, 95
3, 314400, Note_off_c, 2, 55, 95
3, 314400, Note_on_c, 2, 71, 95
3, 314400, Note_on_c, 2, 67, 95
3, 314400, Note_on_c, 2, 62, 95
3, 314880, Note_off_c, 2, 71, 95
3, 314880, Note_off_c, 2, 67, 95
3, 314880, Note_off_c, 2, 62, 95
3, 314880, Note_on_c, 2, 71, 95
3, 314880, Note_on_c, 2, 67, 95
3, 314880, Note_on_c, 2, 62, 95
3, 316320, Note_off_c, 2, 71, 95
3, 316320, Note_off_c, 2, 67, 95
3, 316320, Note_off_c, 2, 62, 95
3, 316320, Note_on_c, 2, 71, 95
3, 316320, Note_on_c, 2, 67, 95
3, 316320, Note_on_c, 2, 62, 95
3, 316800, Note_off_c, 2, 71, 95
3, 316800, Note_off_c, 2, 67, 95
3, 316800, Note_off_c, 2, 62, 95
3, 316800, Note_on_c, 2, 71, 95
3, 316800, Note_on_c, 2, 67, 95
3, 316800, Note_on_c, 2, 62, 95
3, 318240, Note_off_c, 2, 71, 95
3, 318240, Note_off_c, 2, 67, 95
3, 318240, Note_off_c, 2, 62, 95
3, 318240, Note_on_c, 2, 71, 95
3, 318240, Note_on_c, 2, 67, 95
3, 318240, Note_on_c, 2, 62, 95
3, 318720, Note_off_c, 2, 71, 95
3, 318720, Note_off_c, 2, 67, 95
3, 318720, Note_off_c, 2, 62, 95
3, 318720, Note_on_c, 2, 71, 95
3, 318720, Note_on_c, 2, 67, 95
3, 318720, Note_on_c, 2, 62, 95
3, 320160, Note_off_c, 2, 71, 95
3, 320160, Note_off_c, 2, 67, 95
3, 320160, Note_off_c, 2, 62, 95
3, 320160, Note_on_c, 2, 71, 95
3, 320160, Note_on_c, 2, 67, 95
3, 320160, Note_on_c, 2, 62, 95
3, 320640, Note_off_c, 2, 71, 95
3, 320640, Note_off_c, 2, 67, 95
3, 320640, Note_off_c, 2, 62, 95
3, 320640, Note_on_c, 2, 71, 95
3, 320640, Note_on_c, 2, 67, 95
3, 320640, Note_on_c, 2, 62, 95
3, 322080, Note_off_c, 2, 71, 95
3, 322080, Note_off_c, 2, 67, 95
3, 322080, Note_off_c, 2, 62, 95
3, 322080, Note_on_c, 2, 71, 95
3, 322080, Note_on_c, 2, 67, 95
3, 322080, Note_on_c, 2, 62, 95
3, 322560, Note_off_c, 2, 71, 95
3, 322560, Note_off_c, 2, 67, 95
3, 322560, Note_off_c, 2, 62, 95
3, 322560, Note_on_c, 2, 71, 95
3, 322560, Note_on_c, 2, 67, 95
3, 322560, Note_on_c, 2, 62, 95
3, 324480, Note_off_c, 2, 71, 95
3, 324480, Note_off_c, 2, 67, 95
3, 324480, Note_off_c, 2, 62, 95
3, 324480, Note_on_c, 2, 71, 95
3, 324480, Note_on_c, 2, 67, 95
3, 324480, Note_on_c, 2, 62, 95
3, 325440, Note_off_c, 2, 71, 95
3, 325440, Note_off_c, 2, 67, 95
3, 325440, Note_off_c, 2, 62, 95
3, 325440, Note_on_c, 2, 69, 95
3, 325440, Note_on_c, 2, 65, 95
3, 325440, Note_on_c, 2, 60, 95
3, 326400, Note_off_c, 2, 69, 95
3, 326400, Note_off_c, 2, 65, 95
3, 326400, Note_off_c, 2, 60, 95
3, 326400, Note_on_c, 2, 66, 95
3, 326400, Note_on_c, 2, 62, 95
3, 326400, Note_on_c, 2, 57, 95
3, 329760, Note_off_c, 2, 66, 95
3, 329760, Note_off_c, 2, 62, 95
3, 329760, Note_off_c, 2, 57, 95
3, 329760, Note_on_c, 2, 66, 95
3, 329760, Note_on_c, 2, 62, 95
3, 329760, Note_on_c, 2, 57, 95
3, 330240, Note_off_c, 2, 66, 95
3, 330240, Note_off_c, 2, 62, 95
3, 330240, Note_off_c, 2, 57, 95
3, 330240, Note_on_c, 2, 66, 95
3, 330240, Note_on_c, 2, 62, 95
3, 330240, Note_on_c, 2, 57, 95
3, 331680, Note_off_c, 2, 66, 95
3, 331680, Note_off_c, 2, 62, 95
3, 331680, Note_off_c, 2, 57, 95
3, 331680, Note_on_c, 2, 66, 95
3, 331680, Note_on_c, 2, 62, 95
3, 331680, Note_on_c, 2, 57, 95
3, 332160, Note_off_c, 2, 66, 95
3, 332160, Note_off_c, 2, 62, 95
3, 332160, Note_off_c, 2, 57, 95
3, 332160, Note_on_c, 2, 66, 95
3, 332160, Note_on_c, 2, 62, 95
3, 332160, Note_on_c, 2, 57, 95
3, 333600, Note_off_c, 2, 66, 95
3, 333600, Note_off_c, 2, 62, 95
3, 333600, Note_off_c, 2, 57, 95
3, 333600, Note_on_c, 2, 66, 95
3, 333600, Note_on_c, 2, 62, 95
3, 333600, Note_on_c, 2, 57, 95
3, 334080, Note_off_c, 2, 66, 95
3, 334080, Note_off_c, 2, 62, 95
3, 334080, Note_off_c, 2, 57, 95
3, 334080, Note_on_c, 2, 66, 95
3, 334080, Note_on_c, 2, 62, 95
3, 334080, Note_on_c, 2, 57, 95
3, 335520, Note_off_c, 2, 66, 95
3, 335520, Note_off_c, 2, 62, 95
3, 335520, Note_off_c, 2, 57, 95
3, 335520, Note_on_c, 2, 66, 95
3, 335520, Note_on_c, 2, 62, 95
3, 335520, Note_on_c, 2, 57, 95
3, 336000, Note_off_c, 2, 66, 95
3, 336000, Note_off_c, 2, 62, 95
3, 336000, Note_off_c, 2, 57, 95
3, 336000, Note_on_c, 2, 66, 95
3, 336000, Note_on_c, 2, 62, 95
3, 336000, Note_on_c, 2, 57, 95
3, 337440, Note_off_c, 2, 66, 95
3, 337440, Note_off_c, 2, 62, 95
3, 337440, Note_off_c, 2, 57, 95
3, 337440, Note_on_c, 2, 66, 95
3, 337440, Note_on_c, 2, 62, 95
3, 337440, Note_on_c, 2, 57, 95
3, 337920, Note_off_c, 2, 66, 95
3, 337920, Note_off_c, 2, 62, 95
3, 337920, Note_off_c, 2, 57, 95
3, 337920, Note_on_c, 2, 62, 95
3, 337920, Note_on_c, 2, 57, 95
3, 338880, Note_off_c, 2, 62, 95
3, 338880, Note_off_c, 2, 57, 95
3, 338880, Note_on_c, 2, 60, 95
3, 338880, Note_on_c, 2, 55, 95
3, 339840, Note_off_c, 2, 60, 95
3, 339840, Note_off_c, 2, 55, 95
3, 339840, Note_on_c, 2, 59, 95
3, 339840, Note_on_c, 2, 54, 95
3, 340800, Note_off_c, 2, 59, 95
3, 340800, Note_off_c, 2, 54, 95
3, 340800, Note_on_c, 2, 55, 95
3, 340800, Note_on_c, 2, 50, 95
3, 341760, Note_off_c, 2, 55, 95
3, 341760, Note_off_c, 2, 50, 95
3, 341760, Note_on_c, 2, 55, 95
3, 342240, Note_off_c, 2, 55, 95
3, 342240, Note_on_c, 2, 50, 95
3, 342720, Note_off_c, 2, 50, 95
3, 342720, Note_on_c, 2, 59, 95
3, 343680, Note_off_c, 2, 59, 95
3, 343680, Note_on_c, 2, 55, 95
3, 345120, Note_off_c, 2, 55, 95
3, 345120, Note_on_c, 2, 71, 95
3, 345120, Note_on_c, 2, 67, 95
3, 345120, Note_on_c, 2, 62, 95
3, 345600, Note_off_c, 2, 71, 95
3, 345600, Note_off_c, 2, 67, 95
3, 345600, Note_off_c, 2, 62, 95
3, 345600, End_track
4, 0, Start_track
4, 0, Pitch_bend_c, 4, 8192
4, 0, Control_c, 4, 7, 95
4, 0, Control_c, 4, 10, 63
4, 0, Control_c, 4, 93, 0
4, 0, Control_c, 4, 91, 0
4, 0, Control_c, 4, 95, 0
4, 0, Control_c, 4, 92, 0
4, 0, Control_c, 4, 11, 127
4, 0, Program_c, 4, 33
4, 0, Control_c, 5, 7, 95
4, 0, Control_c, 5, 10, 63
4, 0, Control_c, 5, 93, 0
4, 0, Control_c, 5, 91, 0
4, 0, Control_c, 5, 95, 0
4, 0, Control_c, 5, 92, 0
4, 0, Control_c, 5, 11, 127
4, 0, Program_c, 5, 33
4, 19200, Note_on_c, 4, 43, 95
4, 20640, Note_off_c, 4, 43, 95
4, 20640, Note_on_c, 4, 43, 95
4, 21120, Note_off_c, 4, 43, 95
4, 21120, Note_on_c, 4, 38, 95
4, 22560, Note_off_c, 4, 38, 95
4, 22560, Note_on_c, 4, 43, 95
4, 23040, Note_off_c, 4, 43, 95
4, 23040, Note_on_c, 4, 43, 95
4, 24480, Note_off_c, 4, 43, 95
4, 24480, Note_on_c, 4, 43, 95
4, 24960, Note_off_c, 4, 43, 95
4, 24960, Note_on_c, 4, 38, 95
4, 26400, Note_off_c, 4, 38, 95
4, 26400, Note_on_c, 4, 43, 95
4, 26880, Note_off_c, 4, 43, 95
4, 26880, Note_on_c, 4, 43, 95
4, 28320, Note_off_c, 4, 43, 95
4, 28320, Note_on_c, 4, 43, 95
4, 28800, Note_off_c, 4, 43, 95
4, 28800, Note_on_c, 4, 38, 95
4, 30240, Note_off_c, 4, 38, 95
4, 30240, Note_on_c, 4, 43, 95
4, 30720, Note_off_c, 4, 43, 95
4, 30720, Note_on_c, 4, 43, 95
4, 32160, Note_off_c, 4, 43, 95
4, 32160, Note_on_c, 4, 43, 95
4, 32640, Note_off_c, 4, 43, 95
4, 32640, Note_on_c, 4, 38, 95
4, 34080, Note_off_c, 4, 38, 95
4, 34080, Note_on_c, 4, 43, 95
4, 34560, Note_off_c, 4, 43, 95
4, 34560, Note_on_c, 4, 43, 95
4, 36000, Note_off_c, 4, 43, 95
4, 36000, Note_on_c, 4, 43, 95
4, 36480, Note_off_c, 4, 43, 95
4, 36480, Note_on_c, 4, 38, 95
4, 37920, Note_off_c, 4, 38, 95
4, 37920, Note_on_c, 4, 42, 95
4, 38400, Note_off_c, 4, 42, 95
4, 38400, Note_on_c, 4, 43, 95
4, 39840, Note_off_c, 4, 43, 95
4, 39840, Note_on_c, 4, 43, 95
4, 40320, Note_off_c, 4, 43, 95
4, 40320, Note_on_c, 4, 38, 95
4, 41760, Note_off_c, 4, 38, 95
4, 41760, Note_on_c, 4, 42, 95
4, 42240, Note_off_c, 4, 42, 95
4, 42240, Note_on_c, 4, 43, 95
4, 43680, Note_off_c, 4, 43, 95
4, 43680, Note_on_c, 4, 43, 95
4, 44160, Note_off_c, 4, 43, 95
4, 44160, Note_on_c, 4, 38, 95
4, 45600, Note_off_c, 4, 38, 95
4, 45600, Note_on_c, 4, 42, 95
4, 46080, Note_off_c, 4, 42, 95
4, 46080, Note_on_c, 4, 38, 95
4, 47520, Note_off_c, 4, 38, 95
4, 47520, Note_on_c, 4, 38, 95
4, 48000, Note_off_c, 4, 38, 95
4, 48000, Note_on_c, 4, 33, 95
4, 49440, Note_off_c, 4, 33, 95
4, 49440, Note_on_c, 4, 37, 95
4, 49920, Note_off_c, 4, 37, 95
4, 49920, Note_on_c, 4, 38, 95
4, 51360, Note_off_c, 4, 38, 95
4, 51360, Note_on_c, 4, 38, 95
4, 51840, Note_off_c, 4, 38, 95
4, 51840, Note_on_c, 4, 33, 95
4, 53280, Note_off_c, 4, 33, 95
4, 53280, Note_on_c, 4, 37, 95
4, 53760, Note_off_c, 4, 37, 95
4, 53760, Note_on_c, 4, 38, 95
4, 55200, Note_off_c, 4, 38, 95
4, 55200, Note_on_c, 4, 38, 95
4, 55680, Note_off_c, 4, 38, 95
4, 55680, Note_on_c, 4, 33, 95
4, 57120, Note_off_c, 4, 33, 95
4, 57120, Note_on_c, 4, 37, 95
4, 57600, Note_off_c, 4, 37, 95
4, 57600, Note_on_c, 4, 38, 95
4, 59040, Note_off_c, 4, 38, 95
4, 59040, Note_on_c, 4, 38, 95
4, 59520, Note_off_c, 4, 38, 95
4, 59520, Note_on_c, 4, 40, 95
4, 60480, Note_off_c, 4, 40, 95
4, 60480, Note_on_c, 4, 42, 95
4, 61440, Note_off_c, 4, 42, 95
4, 61440, Note_on_c, 4, 43, 95
4, 62880, Note_off_c, 4, 43, 95
4, 62880, Note_on_c, 4, 43, 95
4, 63360, Note_off_c, 4, 43, 95
4, 63360, Note_on_c, 4, 38, 95
4, 64800, Note_off_c, 4, 38, 95
4, 64800, Note_on_c, 4, 42, 95
4, 65280, Note_off_c, 4, 42, 95
4, 65280, Note_on_c, 4, 43, 95
4, 66720, Note_off_c, 4, 43, 95
4, 66720, Note_on_c, 4, 43, 95
4, 67200, Note_off_c, 4, 43, 95
4, 67200, Note_on_c, 4, 38, 95
4, 68640, Note_off_c, 4, 38, 95
4, 68640, Note_on_c, 4, 42, 95
4, 69120, Note_off_c, 4, 42, 95
4, 69120, Note_on_c, 4, 43, 95
4, 70560, Note_off_c, 4, 43, 95
4, 70560, Note_on_c, 4, 43, 95
4, 71040, Note_off_c, 4, 43, 95
4, 71040, Note_on_c, 4, 38, 95
4, 72480, Note_off_c, 4, 38, 95
4, 72480, Note_on_c, 4, 42, 95
4, 72960, Note_off_c, 4, 42, 95
4, 72960, Note_on_c, 4, 43, 95
4, 74400, Note_off_c, 4, 43, 95
4, 74400, Note_on_c, 4, 43, 95
4, 74880, Note_off_c, 4, 43, 95
4, 74880, Note_on_c, 4, 40, 95
4, 75840, Note_off_c, 4, 40, 95
4, 75840, Note_on_c, 4, 39, 95
4, 76800, Note_off_c, 4, 39, 95
4, 76800, Note_on_c, 4, 38, 95
4, 78240, Note_off_c, 4, 38, 95
4, 78240, Note_on_c, 4, 38, 95
4, 78720, Note_off_c, 4, 38, 95
4, 78720, Note_on_c, 4, 33, 95
4, 80160, Note_off_c, 4, 33, 95
4, 80160, Note_on_c, 4, 37, 95
4, 80640, Note_off_c, 4, 37, 95
4, 80640, Note_on_c, 4, 38, 95
4, 82080, Note_off_c, 4, 38, 95
4, 82080, Note_on_c, 4, 38, 95
4, 82560, Note_off_c, 4, 38, 95
4, 82560, Note_on_c, 4, 33, 95
4, 84000, Note_off_c, 4, 33, 95
4, 84000, Note_on_c, 4, 37, 95
4, 84480, Note_off_c, 4, 37, 95
4, 84480, Note_on_c, 4, 38, 95
4, 85920, Note_off_c, 4, 38, 95
4, 85920, Note_on_c, 4, 38, 95
4, 86400, Note_off_c, 4, 38, 95
4, 86400, Note_on_c, 4, 33, 95
4, 87840, Note_off_c, 4, 33, 95
4, 87840, Note_on_c, 4, 37, 95
4, 88320, Note_off_c, 4, 37, 95
4, 88320, Note_on_c, 4, 38, 95
4, 89760, Note_off_c, 4, 38, 95
4, 89760, Note_on_c, 4, 38, 95
4, 90240, Note_off_c, 4, 38, 95
4, 90240, Note_on_c, 4, 40, 95
4, 91200, Note_off_c, 4, 40, 95
4, 91200, Note_on_c, 4, 42, 95
4, 92160, Note_off_c, 4, 42, 95
4, 92160, Note_on_c, 4, 43, 95
4, 93600, Note_off_c, 4, 43, 95
4, 93600, Note_on_c, 4, 43, 95
4, 94080, Note_off_c, 4, 43, 95
4, 94080, Note_on_c, 4, 38, 95
4, 95520, Note_off_c, 4, 38, 95
4, 95520, Note_on_c, 4, 42, 95
4, 96000, Note_off_c, 4, 42, 95
4, 96000, Note_on_c, 4, 43, 95
4, 97440, Note_off_c, 4, 43, 95
4, 97440, Note_on_c, 4, 43, 95
4, 97920, Note_off_c, 4, 43, 95
4, 97920, Note_on_c, 4, 38, 95
4, 99360, Note_off_c, 4, 38, 95
4, 99360, Note_on_c, 4, 42, 95
4, 99840, Note_off_c, 4, 42, 95
4, 99840, Note_on_c, 4, 43, 95
4, 101280, Note_off_c, 4, 43, 95
4, 101280, Note_on_c, 4, 43, 95
4, 101760, Note_off_c, 4, 43, 95
4, 101760, Note_on_c, 4, 38, 95
4, 103200, Note_off_c, 4, 38, 95
4, 103200, Note_on_c, 4, 42, 95
4, 103680, Note_off_c, 4, 42, 95
4, 103680, Note_on_c, 4, 43, 95
4, 105120, Note_off_c, 4, 43, 95
4, 105120, Note_on_c, 4, 43, 95
4, 105600, Note_off_c, 4, 43, 95
4, 105600, Note_on_c, 4, 40, 95
4, 106560, Note_off_c, 4, 40, 95
4, 106560, Note_on_c, 4, 39, 95
4, 107520, Note_off_c, 4, 39, 95
4, 107520, Note_on_c, 4, 38, 95
4, 108960, Note_off_c, 4, 38, 95
4, 108960, Note_on_c, 4, 38, 95
4, 109440, Note_off_c, 4, 38, 95
4, 109440, Note_on_c, 4, 33, 95
4, 110880, Note_off_c, 4, 33, 95
4, 110880, Note_on_c, 4, 37, 95
4, 111360, Note_off_c, 4, 37, 95
4, 111360, Note_on_c, 4, 38, 95
4, 112800, Note_off_c, 4, 38, 95
4, 112800, Note_on_c, 4, 38, 95
4, 113280, Note_off_c, 4, 38, 95
4, 113280, Note_on_c, 4, 33, 95
4, 114720, Note_off_c, 4, 33, 95
4, 114720, Note_on_c, 4, 37, 95
4, 115200, Note_off_c, 4, 37, 95
4, 115200, Note_on_c, 4, 38, 95
4, 116640, Note_off_c, 4, 38, 95
4, 116640, Note_on_c, 4, 38, 95
4, 117120, Note_off_c, 4, 38, 95
4, 117120, Note_on_c, 4, 33, 95
4, 118560, Note_off_c, 4, 33, 95
4, 118560, Note_on_c, 4, 37, 95
4, 119040, Note_off_c, 4, 37, 95
4, 119040, Note_on_c, 4, 38, 95
4, 120480, Note_off_c, 4, 38, 95
4, 120480, Note_on_c, 4, 38, 95
4, 120960, Note_off_c, 4, 38, 95
4, 120960, Note_on_c, 4, 40, 95
4, 121920, Note_off_c, 4, 40, 95
4, 121920, Note_on_c, 4, 42, 95
4, 122880, Note_off_c, 4, 42, 95
4, 122880, Note_on_c, 4, 43, 95
4, 124320, Note_off_c, 4, 43, 95
4, 124320, Note_on_c, 4, 43, 95
4, 124800, Note_off_c, 4, 43, 95
4, 124800, Note_on_c, 4, 38, 95
4, 126240, Note_off_c, 4, 38, 95
4, 126240, Note_on_c, 4, 42, 95
4, 126720, Note_off_c, 4, 42, 95
4, 126720, Note_on_c, 4, 43, 95
4, 128160, Note_off_c, 4, 43, 95
4, 128160, Note_on_c, 4, 43, 95
4, 128640, Note_off_c, 4, 43, 95
4, 128640, Note_on_c, 4, 38, 95
4, 130080, Note_off_c, 4, 38, 95
4, 130080, Note_on_c, 4, 42, 95
4, 130560, Note_off_c, 4, 42, 95
4, 130560, Note_on_c, 4, 43, 95
4, 132000, Note_off_c, 4, 43, 95
4, 132000, Note_on_c, 4, 43, 95
4, 132480, Note_off_c, 4, 43, 95
4, 132480, Note_on_c, 4, 38, 95
4, 133920, Note_off_c, 4, 38, 95
4, 133920, Note_on_c, 4, 42, 95
4, 134400, Note_off_c, 4, 42, 95
4, 134400, Note_on_c, 4, 43, 95
4, 135840, Note_off_c, 4, 43, 95
4, 135840, Note_on_c, 4, 43, 95
4, 136320, Note_off_c, 4, 43, 95
4, 136320, Note_on_c, 4, 40, 95
4, 137280, Note_off_c, 4, 40, 95
4, 137280, Note_on_c, 4, 39, 95
4, 138240, Note_off_c, 4, 39, 95
4, 138240, Note_on_c, 4, 38, 95
4, 139680, Note_off_c, 4, 38, 95
4, 139680, Note_on_c, 4, 38, 95
4, 140160, Note_off_c, 4, 38, 95
4, 140160, Note_on_c, 4, 33, 95
4, 141600, Note_off_c, 4, 33, 95
4, 141600, Note_on_c, 4, 37, 95
4, 142080, Note_off_c, 4, 37, 95
4, 142080, Note_on_c, 4, 38, 95
4, 143520, Note_off_c, 4, 38, 95
4, 143520, Note_on_c, 4, 38, 95
4, 144000, Note_off_c, 4, 38, 95
4, 144000, Note_on_c, 4, 33, 95
4, 145440, Note_off_c, 4, 33, 95
4, 145440, Note_on_c, 4, 37, 95
4, 145920, Note_off_c, 4, 37, 95
4, 145920, Note_on_c, 4, 38, 95
4, 147360, Note_off_c, 4, 38, 95
4, 147360, Note_on_c, 4, 38, 95
4, 147840, Note_off_c, 4, 38, 95
4, 147840, Note_on_c, 4, 33, 95
4, 149280, Note_off_c, 4, 33, 95
4, 149280, Note_on_c, 4, 37, 95
4, 149760, Note_off_c, 4, 37, 95
4, 149760, Note_on_c, 4, 38, 95
4, 151200, Note_off_c, 4, 38, 95
4, 151200, Note_on_c, 4, 38, 95
4, 151680, Note_off_c, 4, 38, 95
4, 151680, Note_on_c, 4, 40, 95
4, 152640, Note_off_c, 4, 40, 95
4, 152640, Note_on_c, 4, 42, 95
4, 153600, Note_off_c, 4, 42, 95
4, 153600, Note_on_c, 4, 43, 95
4, 155040, Note_off_c, 4, 43, 95
4, 155040, Note_on_c, 4, 43, 95
4, 155520, Note_off_c, 4, 43, 95
4, 155520, Note_on_c, 4, 38, 95
4, 156960, Note_off_c, 4, 38, 95
4, 156960, Note_on_c, 4, 42, 95
4, 157440, Note_off_c, 4, 42, 95
4, 157440, Note_on_c, 4, 43, 95
4, 158880, Note_off_c, 4, 43, 95
4, 158880, Note_on_c, 4, 43, 95
4, 159360, Note_off_c, 4, 43, 95
4, 159360, Note_on_c, 4, 38, 95
4, 160320, Note_off_c, 4, 38, 95
4, 160320, Note_on_c, 4, 42, 95
4, 161280, Note_off_c, 4, 42, 95
4, 161280, Note_on_c, 4, 43, 95
4, 162720, Note_off_c, 4, 43, 95
4, 162720, Note_on_c, 4, 43, 95
4, 163200, Note_off_c, 4, 43, 95
4, 163200, Note_on_c, 4, 38, 95
4, 164640, Note_off_c, 4, 38, 95
4, 164640, Note_on_c, 4, 42, 95
4, 165120, Note_off_c, 4, 42, 95
4, 165120, Note_on_c, 4, 43, 95
4, 166560, Note_off_c, 4, 43, 95
4, 166560, Note_on_c, 4, 43, 95
4, 167040, Note_off_c, 4, 43, 95
4, 167040, Note_on_c, 4, 38, 95
4, 168480, Note_off_c, 4, 38, 95
4, 168480, Note_on_c, 4, 42, 95
4, 168960, Note_off_c, 4, 42, 95
4, 168960, Note_on_c, 4, 43, 95
4, 170400, Note_off_c, 4, 43, 95
4, 170400, Note_on_c, 4, 43, 95
4, 170880, Note_off_c, 4, 43, 95
4, 170880, Note_on_c, 4, 38, 95
4, 172320, Note_off_c, 4, 38, 95
4, 172320, Note_on_c, 4, 42, 95
4, 172800, Note_off_c, 4, 42, 95
4, 172800, Note_on_c, 4, 38, 95
4, 174240, Note_off_c, 4, 38, 95
4, 174240, Note_on_c, 4, 38, 95
4, 174720, Note_off_c, 4, 38, 95
4, 174720, Note_on_c, 4, 33, 95
4, 176160, Note_off_c, 4, 33, 95
4, 176160, Note_on_c, 4, 37, 95
4, 176640, Note_off_c, 4, 37, 95
4, 176640, Note_on_c, 4, 38, 95
4, 178080, Note_off_c, 4, 38, 95
4, 178080, Note_on_c, 4, 38, 95
4, 178560, Note_off_c, 4, 38, 95
4, 178560, Note_on_c, 4, 33, 95
4, 180000, Note_off_c, 4, 33, 95
4, 180000, Note_on_c, 4, 37, 95
4, 180480, Note_off_c, 4, 37, 95
4, 180480, Note_on_c, 4, 38, 95
4, 181920, Note_off_c, 4, 38, 95
4, 181920, Note_on_c, 4, 38, 95
4, 182400, Note_off_c, 4, 38, 95
4, 182400, Note_on_c, 4, 33, 95
4, 183840, Note_off_c, 4, 33, 95
4, 183840, Note_on_c, 4, 37, 95
4, 184320, Note_off_c, 4, 37, 95
4, 184320, Note_on_c, 4, 38, 95
4, 185760, Note_off_c, 4, 38, 95
4, 185760, Note_on_c, 4, 38, 95
4, 186240, Note_off_c, 4, 38, 95
4, 186240, Note_on_c, 4, 40, 95
4, 187200, Note_off_c, 4, 40, 95
4, 187200, Note_on_c, 4, 42, 95
4, 188160, Note_off_c, 4, 42, 95
4, 188160, Note_on_c, 4, 43, 95
4, 189600, Note_off_c, 4, 43, 95
4, 189600, Note_on_c, 4, 43, 95
4, 190080, Note_off_c, 4, 43, 95
4, 190080, Note_on_c, 4, 38, 95
4, 191520, Note_off_c, 4, 38, 95
4, 191520, Note_on_c, 4, 42, 95
4, 192000, Note_off_c, 4, 42, 95
4, 192000, Note_on_c, 4, 43, 95
4, 193440, Note_off_c, 4, 43, 95
4, 193440, Note_on_c, 4, 43, 95
4, 193920, Note_off_c, 4, 43, 95
4, 193920, Note_on_c, 4, 38, 95
4, 195360, Note_off_c, 4, 38, 95
4, 195360, Note_on_c, 4, 42, 95
4, 195840, Note_off_c, 4, 42, 95
4, 195840, Note_on_c, 4, 43, 95
4, 197280, Note_off_c, 4, 43, 95
4, 197280, Note_on_c, 4, 43, 95
4, 197760, Note_off_c, 4, 43, 95
4, 197760, Note_on_c, 4, 38, 95
4, 199200, Note_off_c, 4, 38, 95
4, 199200, Note_on_c, 4, 42, 95
4, 199680, Note_off_c, 4, 42, 95
4, 199680, Note_on_c, 4, 43, 95
4, 201120, Note_off_c, 4, 43, 95
4, 201120, Note_on_c, 4, 43, 95
4, 201600, Note_off_c, 4, 43, 95
4, 201600, Note_on_c, 4, 40, 95
4, 202560, Note_off_c, 4, 40, 95
4, 202560, Note_on_c, 4, 39, 95
4, 203520, Note_off_c, 4, 39, 95
4, 203520, Note_on_c, 4, 38, 95
4, 204960, Note_off_c, 4, 38, 95
4, 204960, Note_on_c, 4, 38, 95
4, 205440, Note_off_c, 4, 38, 95
4, 205440, Note_on_c, 4, 33, 95
4, 206880, Note_off_c, 4, 33, 95
4, 206880, Note_on_c, 4, 37, 95
4, 207360, Note_off_c, 4, 37, 95
4, 207360, Note_on_c, 4, 38, 95
4, 208800, Note_off_c, 4, 38, 95
4, 208800, Note_on_c, 4, 38, 95
4, 209280, Note_off_c, 4, 38, 95
4, 209280, Note_on_c, 4, 33, 95
4, 210720, Note_off_c, 4, 33, 95
4, 210720, Note_on_c, 4, 37, 95
4, 211200, Note_off_c, 4, 37, 95
4, 211200, Note_on_c, 4, 38, 95
4, 212640, Note_off_c, 4, 38, 95
4, 212640, Note_on_c, 4, 38, 95
4, 213120, Note_off_c, 4, 38, 95
4, 213120, Note_on_c, 4, 33, 95
4, 214560, Note_off_c, 4, 33, 95
4, 214560, Note_on_c, 4, 37, 95
4, 215040, Note_off_c, 4, 37, 95
4, 215040, Note_on_c, 4, 38, 95
4, 216480, Note_off_c, 4, 38, 95
4, 216480, Note_on_c, 4, 38, 95
4, 216960, Note_off_c, 4, 38, 95
4, 216960, Note_on_c, 4, 40, 95
4, 217920, Note_off_c, 4, 40, 95
4, 217920, Note_on_c, 4, 42, 95
4, 218880, Note_off_c, 4, 42, 95
4, 218880, Note_on_c, 4, 43, 95
4, 220320, Note_off_c, 4, 43, 95
4, 220320, Note_on_c, 4, 43, 95
4, 220800, Note_off_c, 4, 43, 95
4, 220800, Note_on_c, 4, 38, 95
4, 222240, Note_off_c, 4, 38, 95
4, 222240, Note_on_c, 4, 42, 95
4, 222720, Note_off_c, 4, 42, 95
4, 222720, Note_on_c, 4, 43, 95
4, 224160, Note_off_c, 4, 43, 95
4, 224160, Note_on_c, 4, 43, 95
4, 224640, Note_off_c, 4, 43, 95
4, 224640, Note_on_c, 4, 38, 95
4, 226080, Note_off_c, 4, 38, 95
4, 226080, Note_on_c, 4, 42, 95
4, 226560, Note_off_c, 4, 42, 95
4, 226560, Note_on_c, 4, 43, 95
4, 228000, Note_off_c, 4, 43, 95
4, 228000, Note_on_c, 4, 43, 95
4, 228480, Note_off_c, 4, 43, 95
4, 228480, Note_on_c, 4, 38, 95
4, 229920, Note_off_c, 4, 38, 95
4, 229920, Note_on_c, 4, 42, 95
4, 230400, Note_off_c, 4, 42, 95
4, 230400, Note_on_c, 4, 43, 95
4, 231840, Note_off_c, 4, 43, 95
4, 231840, Note_on_c, 4, 43, 95
4, 232320, Note_off_c, 4, 43, 95
4, 232320, Note_on_c, 4, 40, 95
4, 233280, Note_off_c, 4, 40, 95
4, 233280, Note_on_c, 4, 39, 95
4, 234240, Note_off_c, 4, 39, 95
4, 234240, Note_on_c, 4, 38, 95
4, 235680, Note_off_c, 4, 38, 95
4, 235680, Note_on_c, 4, 38, 95
4, 236160, Note_off_c, 4, 38, 95
4, 236160, Note_on_c, 4, 33, 95
4, 237600, Note_off_c, 4, 33, 95
4, 237600, Note_on_c, 4, 37, 95
4, 238080, Note_off_c, 4, 37, 95
4, 238080, Note_on_c, 4, 38, 95
4, 239520, Note_off_c, 4, 38, 95
4, 239520, Note_on_c, 4, 38, 95
4, 240000, Note_off_c, 4, 38, 95
4, 240000, Note_on_c, 4, 33, 95
4, 241440, Note_off_c, 4, 33, 95
4, 241440, Note_on_c, 4, 37, 95
4, 241920, Note_off_c, 4, 37, 95
4, 241920, Note_on_c, 4, 38, 95
4, 243360, Note_off_c, 4, 38, 95
4, 243360, Note_on_c, 4, 38, 95
4, 243840, Note_off_c, 4, 38, 95
4, 243840, Note_on_c, 4, 33, 95
4, 245280, Note_off_c, 4, 33, 95
4, 245280, Note_on_c, 4, 37, 95
4, 245760, Note_off_c, 4, 37, 95
4, 245760, Note_on_c, 4, 38, 95
4, 247200, Note_off_c, 4, 38, 95
4, 247200, Note_on_c, 4, 38, 95
4, 247680, Note_off_c, 4, 38, 95
4, 247680, Note_on_c, 4, 40, 95
4, 248640, Note_off_c, 4, 40, 95
4, 248640, Note_on_c, 4, 42, 95
4, 249600, Note_off_c, 4, 42, 95
4, 249600, Note_on_c, 4, 43, 95
4, 251040, Note_off_c, 4, 43, 95
4, 251040, Note_on_c, 4, 43, 95
4, 251520, Note_off_c, 4, 43, 95
4, 251520, Note_on_c, 4, 38, 95
4, 252960, Note_off_c, 4, 38, 95
4, 252960, Note_on_c, 4, 42, 95
4, 253440, Note_off_c, 4, 42, 95
4, 253440, Note_on_c, 4, 43, 95
4, 254880, Note_off_c, 4, 43, 95
4, 254880, Note_on_c, 4, 43, 95
4, 255360, Note_off_c, 4, 43, 95
4, 255360, Note_on_c, 4, 38, 95
4, 256800, Note_off_c, 4, 38, 95
4, 256800, Note_on_c, 4, 42, 95
4, 257280, Note_off_c, 4, 42, 95
4, 257280, Note_on_c, 4, 43, 95
4, 258720, Note_off_c, 4, 43, 95
4, 258720, Note_on_c, 4, 43, 95
4, 259200, Note_off_c, 4, 43, 95
4, 259200, Note_on_c, 4, 38, 95
4, 260640, Note_off_c, 4, 38, 95
4, 260640, Note_on_c, 4, 42, 95
4, 261120, Note_off_c, 4, 42, 95
4, 261120, Note_on_c, 4, 43, 95
4, 262560, Note_off_c, 4, 43, 95
4, 262560, Note_on_c, 4, 43, 95
4, 263040, Note_off_c, 4, 43, 95
4, 263040, Note_on_c, 4, 40, 95
4, 264000, Note_off_c, 4, 40, 95
4, 264000, Note_on_c, 4, 39, 95
4, 264960, Note_off_c, 4, 39, 95
4, 264960, Note_on_c, 4, 38, 95
4, 266400, Note_off_c, 4, 38, 95
4, 266400, Note_on_c, 4, 38, 95
4, 266880, Note_off_c, 4, 38, 95
4, 266880, Note_on_c, 4, 33, 95
4, 268320, Note_off_c, 4, 33, 95
4, 268320, Note_on_c, 4, 37, 95
4, 268800, Note_off_c, 4, 37, 95
4, 268800, Note_on_c, 4, 38, 95
4, 270240, Note_off_c, 4, 38, 95
4, 270240, Note_on_c, 4, 38, 95
4, 270720, Note_off_c, 4, 38, 95
4, 270720, Note_on_c, 4, 33, 95
4, 272160, Note_off_c, 4, 33, 95
4, 272160, Note_on_c, 4, 37, 95
4, 272640, Note_off_c, 4, 37, 95
4, 272640, Note_on_c, 4, 38, 95
4, 274080, Note_off_c, 4, 38, 95
4, 274080, Note_on_c, 4, 38, 95
4, 274560, Note_off_c, 4, 38, 95
4, 274560, Note_on_c, 4, 33, 95
4, 276000, Note_off_c, 4, 33, 95
4, 276000, Note_on_c, 4, 37, 95
4, 276480, Note_off_c, 4, 37, 95
4, 276480, Note_on_c, 4, 38, 95
4, 277920, Note_off_c, 4, 38, 95
4, 277920, Note_on_c, 4, 38, 95
4, 278400, Note_off_c, 4, 38, 95
4, 278400, Note_on_c, 4, 40, 95
4, 279360, Note_off_c, 4, 40, 95
4, 279360, Note_on_c, 4, 42, 95
4, 280320, Note_off_c, 4, 42, 95
4, 280320, Note_on_c, 4, 43, 95
4, 281760, Note_off_c, 4, 43, 95
4, 281760, Note_on_c, 4, 43, 95
4, 282240, Note_off_c, 4, 43, 95
4, 282240, Note_on_c, 4, 38, 95
4, 283680, Note_off_c, 4, 38, 95
4, 283680, Note_on_c, 4, 42, 95
4, 284160, Note_off_c, 4, 42, 95
4, 284160, Note_on_c, 4, 43, 95
4, 285600, Note_off_c, 4, 43, 95
4, 285600, Note_on_c, 4, 43, 95
4, 286080, Note_off_c, 4, 43, 95
4, 286080, Note_on_c, 4, 38, 95
4, 287520, Note_off_c, 4, 38, 95
4, 287520, Note_on_c, 4, 42, 95
4, 288000, Note_off_c, 4, 42, 95
4, 288000, Note_on_c, 4, 43, 95
4, 289440, Note_off_c, 4, 43, 95
4, 289440, Note_on_c, 4, 43, 95
4, 289920, Note_off_c, 4, 43, 95
4, 289920, Note_on_c, 4, 38, 95
4, 291360, Note_off_c, 4, 38, 95
4, 291360, Note_on_c, 4, 42, 95
4, 291840, Note_off_c, 4, 42, 95
4, 291840, Note_on_c, 4, 43, 95
4, 293280, Note_off_c, 4, 43, 95
4, 293280, Note_on_c, 4, 43, 95
4, 293760, Note_off_c, 4, 43, 95
4, 293760, Note_on_c, 4, 40, 95
4, 294720, Note_off_c, 4, 40, 95
4, 294720, Note_on_c, 4, 39, 95
4, 295680, Note_off_c, 4, 39, 95
4, 295680, Note_on_c, 4, 38, 95
4, 297120, Note_off_c, 4, 38, 95
4, 297120, Note_on_c, 4, 38, 95
4, 297600, Note_off_c, 4, 38, 95
4, 297600, Note_on_c, 4, 33, 95
4, 299040, Note_off_c, 4, 33, 95
4, 299040, Note_on_c, 4, 37, 95
4, 299520, Note_off_c, 4, 37, 95
4, 299520, Note_on_c, 4, 38, 95
4, 300960, Note_off_c, 4, 38, 95
4, 300960, Note_on_c, 4, 38, 95
4, 301440, Note_off_c, 4, 38, 95
4, 301440, Note_on_c, 4, 33, 95
4, 302880, Note_off_c, 4, 33, 95
4, 302880, Note_on_c, 4, 37, 95
4, 303360, Note_off_c, 4, 37, 95
4, 303360, Note_on_c, 4, 38, 95
4, 304800, Note_off_c, 4, 38, 95
4, 304800, Note_on_c, 4, 38, 95
4, 305280, Note_off_c, 4, 38, 95
4, 305280, Note_on_c, 4, 33, 95
4, 306720, Note_off_c, 4, 33, 95
4, 306720, Note_on_c, 4, 37, 95
4, 307200, Note_off_c, 4, 37, 95
4, 307200, Note_on_c, 4, 38, 95
4, 308640, Note_off_c, 4, 38, 95
4, 308640, Note_on_c, 4, 38, 95
4, 309120, Note_off_c, 4, 38, 95
4, 309120, Note_on_c, 4, 41, 95
4, 309600, Note_off_c, 4, 41, 95
4, 309600, Note_on_c, 4, 38, 95
4, 310080, Note_off_c, 4, 38, 95
4, 310080, Note_on_c, 4, 42, 95
4, 311040, Note_off_c, 4, 42, 95
4, 311040, Note_on_c, 4, 43, 95
4, 312480, Note_off_c, 4, 43, 95
4, 312480, Note_on_c, 4, 40, 95
4, 312960, Note_off_c, 4, 40, 95
4, 312960, Note_on_c, 4, 38, 95
4, 313920, Note_off_c, 4, 38, 95
4, 313920, Note_on_c, 4, 40, 95
4, 314400, Note_off_c, 4, 40, 95
4, 314400, Note_on_c, 4, 38, 95
4, 314880, Note_off_c, 4, 38, 95
4, 314880, Note_on_c, 4, 43, 95
4, 316320, Note_off_c, 4, 43, 95
4, 316320, Note_on_c, 4, 43, 95
4, 316800, Note_off_c, 4, 43, 95
4, 316800, Note_on_c, 4, 38, 95
4, 318240, Note_off_c, 4, 38, 95
4, 318240, Note_on_c, 4, 42, 95
4, 318720, Note_off_c, 4, 42, 95
4, 318720, Note_on_c, 4, 43, 95
4, 320160, Note_off_c, 4, 43, 95
4, 320160, Note_on_c, 4, 43, 95
4, 320640, Note_off_c, 4, 43, 95
4, 320640, Note_on_c, 4, 38, 95
4, 322080, Note_off_c, 4, 38, 95
4, 322080, Note_on_c, 4, 42, 95
4, 322560, Note_off_c, 4, 42, 95
4, 322560, Note_on_c, 4, 43, 95
4, 324000, Note_off_c, 4, 43, 95
4, 324000, Note_on_c, 4, 43, 95
4, 324480, Note_off_c, 4, 43, 95
4, 324480, Note_on_c, 4, 40, 95
4, 325440, Note_off_c, 4, 40, 95
4, 325440, Note_on_c, 4, 39, 95
4, 326400, Note_off_c, 4, 39, 95
4, 326400, Note_on_c, 4, 38, 95
4, 327840, Note_off_c, 4, 38, 95
4, 327840, Note_on_c, 4, 38, 95
4, 328320, Note_off_c, 4, 38, 95
4, 328320, Note_on_c, 4, 33, 95
4, 329760, Note_off_c, 4, 33, 95
4, 329760, Note_on_c, 4, 37, 95
4, 330240, Note_off_c, 4, 37, 95
4, 330240, Note_on_c, 4, 38, 95
4, 331680, Note_off_c, 4, 38, 95
4, 331680, Note_on_c, 4, 38, 95
4, 332160, Note_off_c, 4, 38, 95
4, 332160, Note_on_c, 4, 33, 95
4, 333600, Note_off_c, 4, 33, 95
4, 333600, Note_on_c, 4, 37, 95
4, 334080, Note_off_c, 4, 37, 95
4, 334080, Note_on_c, 4, 38, 95
4, 335520, Note_off_c, 4, 38, 95
4, 335520, Note_on_c, 4, 38, 95
4, 336000, Note_off_c, 4, 38, 95
4, 336000, Note_on_c, 4, 33, 95
4, 337440, Note_off_c, 4, 33, 95
4, 337440, Note_on_c, 4, 37, 95
4, 337920, Note_off_c, 4, 37, 95
4, 337920, Note_on_c, 4, 38, 95
4, 339360, Note_off_c, 4, 38, 95
4, 339360, Note_on_c, 4, 38, 95
4, 339840, Note_off_c, 4, 38, 95
4, 339840, Note_on_c, 4, 41, 95
4, 340320, Note_off_c, 4, 41, 95
4, 340320, Note_on_c, 4, 38, 95
4, 340800, Note_off_c, 4, 38, 95
4, 340800, Note_on_c, 4, 42, 95
4, 341760, Note_off_c, 4, 42, 95
4, 341760, Note_on_c, 4, 43, 95
4, 343200, Note_off_c, 4, 43, 95
4, 343200, Note_on_c, 4, 40, 95
4, 343680, Note_off_c, 4, 40, 95
4, 343680, Note_on_c, 4, 38, 95
4, 344640, Note_off_c, 4, 38, 95
4, 344640, Note_on_c, 4, 40, 95
4, 345120, Note_off_c, 4, 40, 95
4, 345120, Note_on_c, 4, 38, 95
4, 345600, Note_off_c, 4, 38, 95
4, 345600, End_track
5, 0, Start_track
5, 0, Pitch_bend_c, 9, 8192
5, 0, Control_c, 9, 7, 119
5, 0, Control_c, 9, 10, 63
5, 0, Control_c, 9, 93, 0
5, 0, Control_c, 9, 91, 0
5, 0, Control_c, 9, 95, 0
5, 0, Control_c, 9, 92, 0
5, 0, Control_c, 9, 11, 127
5, 0, Program_c, 9, 0
5, 15360, Note_on_c, 9, 38, 127
5, 15600, Note_off_c, 9, 38, 127
5, 15600, Note_on_c, 9, 38, 95
5, 15840, Note_off_c, 9, 38, 95
5, 15840, Note_on_c, 9, 38, 95
5, 16080, Note_off_c, 9, 38, 95
5, 16080, Note_on_c, 9, 38, 127
5, 16320, Note_off_c, 9, 38, 127
5, 16320, Note_on_c, 9, 38, 127
5, 16560, Note_off_c, 9, 38, 127
5, 16560, Note_on_c, 9, 38, 95
5, 16800, Note_off_c, 9, 38, 95
5, 16800, Note_on_c, 9, 38, 95
5, 17040, Note_off_c, 9, 38, 95
5, 17040, Note_on_c, 9, 38, 127
5, 17280, Note_off_c, 9, 38, 127
5, 17280, Note_on_c, 9, 38, 95
5, 17760, Note_off_c, 9, 38, 95
5, 17760, Note_on_c, 9, 38, 95
5, 18240, Note_off_c, 9, 38, 95
5, 18240, Note_on_c, 9, 38, 95
5, 18480, Note_off_c, 9, 38, 95
5, 18480, Note_on_c, 9, 38, 95
5, 18720, Note_off_c, 9, 38, 95
5, 18720, Note_on_c, 9, 36, 95
5, 19200, Note_off_c, 9, 36, 95
5, 19200, Note_on_c, 9, 57, 95
5, 19200, Note_on_c, 9, 36, 95
5, 19680, Note_off_c, 9, 57, 95
5, 19680, Note_off_c, 9, 36, 95
5, 19680, Note_on_c, 9, 42, 95
5, 20160, Note_off_c, 9, 42, 95
5, 20160, Note_on_c, 9, 42, 95
5, 20160, Note_on_c, 9, 38, 95
5, 20640, Note_off_c, 9, 42, 95
5, 20640, Note_off_c, 9, 38, 95
5, 20640, Note_on_c, 9, 42, 95
5, 21120, Note_off_c, 9, 42, 95
5, 21120, Note_on_c, 9, 42, 95
5, 21120, Note_on_c, 9, 36, 95
5, 21600, Note_off_c, 9, 42, 95
5, 21600, Note_off_c, 9, 36, 95
5, 21600, Note_on_c, 9, 42, 95
5, 22080, Note_off_c, 9, 42, 95
5, 22080, Note_on_c, 9, 42, 95
5, 22080, Note_on_c, 9, 38, 95
5, 22560, Note_off_c, 9, 42, 95
5, 22560, Note_off_c, 9, 38, 95
5, 22560, Note_on_c, 9, 42, 95
5, 22560, Note_on_c, 9, 36, 95
5, 23040, Note_off_c, 9, 42, 95
5, 23040, Note_off_c, 9, 36, 95
5, 23040, Note_on_c, 9, 42, 95
5, 23040, Note_on_c, 9, 36, 95
5, 23520, Note_off_c, 9, 42, 95
5, 23520, Note_off_c, 9, 36, 95
5, 23520, Note_on_c, 9, 42, 95
5, 24000, Note_off_c, 9, 42, 95
5, 24000, Note_on_c, 9, 42, 95
5, 24000, Note_on_c, 9, 38, 95
5, 24480, Note_off_c, 9, 42, 95
5, 24480, Note_off_c, 9, 38, 95
5, 24480, Note_on_c, 9, 42, 95
5, 24960, Note_off_c, 9, 42, 95
5, 24960, Note_on_c, 9, 42, 95
5, 24960, Note_on_c, 9, 36, 95
5, 25440, Note_off_c, 9, 42, 95
5, 25440, Note_off_c, 9, 36, 95
5, 25440, Note_on_c, 9, 42, 95
5, 25920, Note_off_c, 9, 42, 95
5, 25920, Note_on_c, 9, 42, 95
5, 25920, Note_on_c, 9, 38, 95
5, 26400, Note_off_c, 9, 42, 95
5, 26400, Note_off_c, 9, 38, 95
5, 26400, Note_on_c, 9, 42, 95
5, 26400, Note_on_c, 9, 36, 95
5, 26880, Note_off_c, 9, 42, 95
5, 26880, Note_off_c, 9, 36, 95
5, 26880, Note_on_c, 9, 42, 95
5, 26880, Note_on_c, 9, 36, 95
5, 27360, Note_off_c, 9, 42, 95
5, 27360, Note_off_c, 9, 36, 95
5, 27360, Note_on_c, 9, 42, 95
5, 27840, Note_off_c, 9, 42, 95
5, 27840, Note_on_c, 9, 42, 95
5, 27840, Note_on_c, 9, 38, 95
5, 28320, Note_off_c, 9, 42, 95
5, 28320, Note_off_c, 9, 38, 95
5, 28320, Note_on_c, 9, 42, 95
5, 28800, Note_off_c, 9, 42, 95
5, 28800, Note_on_c, 9, 42, 95
5, 28800, Note_on_c, 9, 36, 95
5, 29280, Note_off_c, 9, 42, 95
5, 29280, Note_off_c, 9, 36, 95
5, 29280, Note_on_c, 9, 42, 95
5, 29760, Note_off_c, 9, 42, 95
5, 29760, Note_on_c, 9, 42, 95
5, 29760, Note_on_c, 9, 38, 95
5, 30240, Note_off_c, 9, 42, 95
5, 30240, Note_off_c, 9, 38, 95
5, 30240, Note_on_c, 9, 42, 95
5, 30240, Note_on_c, 9, 36, 95
5, 30720, Note_off_c, 9, 42, 95
5, 30720, Note_off_c, 9, 36, 95
5, 30720, Note_on_c, 9, 42, 95
5, 30720, Note_on_c, 9, 36, 95
5, 31200, Note_off_c, 9, 42, 95
5, 31200, Note_off_c, 9, 36, 95
5, 31200, Note_on_c, 9, 42, 95
5, 31680, Note_off_c, 9, 42, 95
5, 31680, Note_on_c, 9, 42, 95
5, 31680, Note_on_c, 9, 38, 95
5, 32160, Note_off_c, 9, 42, 95
5, 32160, Note_off_c, 9, 38, 95
5, 32160, Note_on_c, 9, 42, 95
5, 32640, Note_off_c, 9, 42, 95
5, 32640, Note_on_c, 9, 42, 95
5, 32640, Note_on_c, 9, 36, 95
5, 33120, Note_off_c, 9, 42, 95
5, 33120, Note_off_c, 9, 36, 95
5, 33120, Note_on_c, 9, 42, 95
5, 33600, Note_off_c, 9, 42, 95
5, 33600, Note_on_c, 9, 42, 95
5, 33600, Note_on_c, 9, 38, 95
5, 34080, Note_off_c, 9, 42, 95
5, 34080, Note_off_c, 9, 38, 95
5, 34080, Note_on_c, 9, 42, 95
5, 34080, Note_on_c, 9, 36, 95
5, 34560, Note_off_c, 9, 42, 95
5, 34560, Note_off_c, 9, 36, 95
5, 34560, Note_on_c, 9, 57, 95
5, 34560, Note_on_c, 9, 36, 95
5, 35040, Note_off_c, 9, 57, 95
5, 35040, Note_off_c, 9, 36, 95
5, 35040, Note_on_c, 9, 42, 95
5, 35520, Note_off_c, 9, 42, 95
5, 35520, Note_on_c, 9, 42, 95
5, 35520, Note_on_c, 9, 38, 95
5, 36000, Note_off_c, 9, 42, 95
5, 36000, Note_off_c, 9, 38, 95
5, 36000, Note_on_c, 9, 42, 95
5, 36480, Note_off_c, 9, 42, 95
5, 36480, Note_on_c, 9, 42, 95
5, 36480, Note_on_c, 9, 36, 95
5, 36960, Note_off_c, 9, 42, 95
5, 36960, Note_off_c, 9, 36, 95
5, 36960, Note_on_c, 9, 42, 95
5, 37440, Note_off_c, 9, 42, 95
5, 37440, Note_on_c, 9, 42, 95
5, 37440, Note_on_c, 9, 38, 95
5, 37920, Note_off_c, 9, 42, 95
5, 37920, Note_off_c, 9, 38, 95
5, 37920, Note_on_c, 9, 42, 95
5, 37920, Note_on_c, 9, 36, 95
5, 38400, Note_off_c, 9, 42, 95
5, 38400, Note_off_c, 9, 36, 95
5, 38400, Note_on_c, 9, 42, 95
5, 38400, Note_on_c, 9, 36, 95
5, 38880, Note_off_c, 9, 42, 95
5, 38880, Note_off_c, 9, 36, 95
5, 38880, Note_on_c, 9, 42, 95
5, 39360, Note_off_c, 9, 42, 95
5, 39360, Note_on_c, 9, 42, 95
5, 39360, Note_on_c, 9, 38, 95
5, 39840, Note_off_c, 9, 42, 95
5, 39840, Note_off_c, 9, 38, 95
5, 39840, Note_on_c, 9, 42, 95
5, 40320, Note_off_c, 9, 42, 95
5, 40320, Note_on_c, 9, 42, 95
5, 40320, Note_on_c, 9, 36, 95
5, 40800, Note_off_c, 9, 42, 95
5, 40800, Note_off_c, 9, 36, 95
5, 40800, Note_on_c, 9, 42, 95
5, 41280, Note_off_c, 9, 42, 95
5, 41280, Note_on_c, 9, 42, 95
5, 41280, Note_on_c, 9, 38, 95
5, 41760, Note_off_c, 9, 42, 95
5, 41760, Note_off_c, 9, 38, 95
5, 41760, Note_on_c, 9, 42, 95
5, 41760, Note_on_c, 9, 36, 95
5, 42240, Note_off_c, 9, 42, 95
5, 42240, Note_off_c, 9, 36, 95
5, 42240, Note_on_c, 9, 42, 95
5, 42240, Note_on_c, 9, 36, 95
5, 42720, Note_off_c, 9, 42, 95
5, 42720, Note_off_c, 9, 36, 95
5, 42720, Note_on_c, 9, 42, 95
5, 43200, Note_off_c, 9, 42, 95
5, 43200, Note_on_c, 9, 42, 95
5, 43200, Note_on_c, 9, 38, 95
5, 43680, Note_off_c, 9, 42, 95
5, 43680, Note_off_c, 9, 38, 95
5, 43680, Note_on_c, 9, 42, 95
5, 44160, Note_off_c, 9, 42, 95
5, 44160, Note_on_c, 9, 42, 95
5, 44160, Note_on_c, 9, 36, 95
5, 44640, Note_off_c, 9, 42, 95
5, 44640, Note_off_c, 9, 36, 95
5, 44640, Note_on_c, 9, 42, 95
5, 45120, Note_off_c, 9, 42, 95
5, 45120, Note_on_c, 9, 42, 95
5, 45120, Note_on_c, 9, 38, 95
5, 45600, Note_off_c, 9, 42, 95
5, 45600, Note_off_c, 9, 38, 95
5, 45600, Note_on_c, 9, 42, 95
5, 45600, Note_on_c, 9, 36, 95
5, 46080, Note_off_c, 9, 42, 95
5, 46080, Note_off_c, 9, 36, 95
5, 46080, Note_on_c, 9, 42, 95
5, 46080, Note_on_c, 9, 36, 95
5, 46560, Note_off_c, 9, 42, 95
5, 46560, Note_off_c, 9, 36, 95
5, 46560, Note_on_c, 9, 42, 95
5, 47040, Note_off_c, 9, 42, 95
5, 47040, Note_on_c, 9, 42, 95
5, 47040, Note_on_c, 9, 38, 95
5, 47520, Note_off_c, 9, 42, 95
5, 47520, Note_off_c, 9, 38, 95
5, 47520, Note_on_c, 9, 42, 95
5, 48000, Note_off_c, 9, 42, 95
5, 48000, Note_on_c, 9, 42, 95
5, 48000, Note_on_c, 9, 36, 95
5, 48480, Note_off_c, 9, 42, 95
5, 48480, Note_off_c, 9, 36, 95
5, 48480, Note_on_c, 9, 42, 95
5, 48480, Note_on_c, 9, 36, 95
5, 48960, Note_off_c, 9, 42, 95
5, 48960, Note_off_c, 9, 36, 95
5, 48960, Note_on_c, 9, 42, 95
5, 48960, Note_on_c, 9, 38, 95
5, 49440, Note_off_c, 9, 42, 95
5, 49440, Note_off_c, 9, 38, 95
5, 49440, Note_on_c, 9, 46, 95
5, 49440, Note_on_c, 9, 36, 95
5, 49920, Note_off_c, 9, 46, 95
5, 49920, Note_off_c, 9, 36, 95
5, 49920, Note_on_c, 9, 42, 95
5, 49920, Note_on_c, 9, 36, 95
5, 50400, Note_off_c, 9, 42, 95
5, 50400, Note_off_c, 9, 36, 95
5, 50400, Note_on_c, 9, 42, 95
5, 50880, Note_off_c, 9, 42, 95
5, 50880, Note_on_c, 9, 42, 95
5, 50880, Note_on_c, 9, 38, 95
5, 51360, Note_off_c, 9, 42, 95
5, 51360, Note_off_c, 9, 38, 95
5, 51360, Note_on_c, 9, 42, 95
5, 51840, Note_off_c, 9, 42, 95
5, 51840, Note_on_c, 9, 42, 95
5, 51840, Note_on_c, 9, 36, 95
5, 52320, Note_off_c, 9, 42, 95
5, 52320, Note_off_c, 9, 36, 95
5, 52320, Note_on_c, 9, 42, 95
5, 52320, Note_on_c, 9, 36, 95
5, 52800, Note_off_c, 9, 42, 95
5, 52800, Note_off_c, 9, 36, 95
5, 52800, Note_on_c, 9, 42, 95
5, 52800, Note_on_c, 9, 38, 95
5, 53280, Note_off_c, 9, 42, 95
5, 53280, Note_off_c, 9, 38, 95
5, 53280, Note_on_c, 9, 42, 95
5, 53280, Note_on_c, 9, 36, 95
5, 53760, Note_off_c, 9, 42, 95
5, 53760, Note_off_c, 9, 36, 95
5, 53760, Note_on_c, 9, 42, 95
5, 53760, Note_on_c, 9, 36, 95
5, 54240, Note_off_c, 9, 42, 95
5, 54240, Note_off_c, 9, 36, 95
5, 54240, Note_on_c, 9, 42, 95
5, 54720, Note_off_c, 9, 42, 95
5, 54720, Note_on_c, 9, 42, 95
5, 54720, Note_on_c, 9, 38, 95
5, 55200, Note_off_c, 9, 42, 95
5, 55200, Note_off_c, 9, 38, 95
5, 55200, Note_on_c, 9, 42, 95
5, 55680, Note_off_c, 9, 42, 95
5, 55680, Note_on_c, 9, 42, 95
5, 55680, Note_on_c, 9, 36, 95
5, 56160, Note_off_c, 9, 42, 95
5, 56160, Note_off_c, 9, 36, 95
5, 56160, Note_on_c, 9, 42, 95
5, 56160, Note_on_c, 9, 36, 95
5, 56640, Note_off_c, 9, 42, 95
5, 56640, Note_off_c, 9, 36, 95
5, 56640, Note_on_c, 9, 42, 95
5, 56640, Note_on_c, 9, 38, 95
5, 57120, Note_off_c, 9, 42, 95
5, 57120, Note_off_c, 9, 38, 95
5, 57120, Note_on_c, 9, 46, 95
5, 57120, Note_on_c, 9, 36, 95
5, 57600, Note_off_c, 9, 46, 95
5, 57600, Note_off_c, 9, 36, 95
5, 57600, Note_on_c, 9, 42, 95
5, 57600, Note_on_c, 9, 36, 95
5, 58080, Note_off_c, 9, 42, 95
5, 58080, Note_off_c, 9, 36, 95
5, 58080, Note_on_c, 9, 42, 95
5, 58560, Note_off_c, 9, 42, 95
5, 58560, Note_on_c, 9, 42, 95
5, 58560, Note_on_c, 9, 38, 95
5, 59040, Note_off_c, 9, 42, 95
5, 59040, Note_off_c, 9, 38, 95
5, 59040, Note_on_c, 9, 42, 95
5, 59040, Note_on_c, 9, 36, 95
5, 59520, Note_off_c, 9, 42, 95
5, 59520, Note_off_c, 9, 36, 95
5, 59520, Note_on_c, 9, 42, 95
5, 60000, Note_off_c, 9, 42, 95
5, 60000, Note_on_c, 9, 42, 95
5, 60000, Note_on_c, 9, 36, 95
5, 60480, Note_off_c, 9, 42, 95
5, 60480, Note_off_c, 9, 36, 95
5, 60480, Note_on_c, 9, 42, 95
5, 60480, Note_on_c, 9, 38, 95
5, 60960, Note_off_c, 9, 42, 95
5, 60960, Note_off_c, 9, 38, 95
5, 60960, Note_on_c, 9, 42, 95
5, 60960, Note_on_c, 9, 36, 95
5, 61440, Note_off_c, 9, 42, 95
5, 61440, Note_off_c, 9, 36, 95
5, 61440, Note_on_c, 9, 42, 95
5, 61440, Note_on_c, 9, 36, 95
5, 61920, Note_off_c, 9, 42, 95
5, 61920, Note_off_c, 9, 36, 95
5, 61920, Note_on_c, 9, 42, 95
5, 62400, Note_off_c, 9, 42, 95
5, 62400, Note_on_c, 9, 42, 95
5, 62400, Note_on_c, 9, 38, 95
5, 62880, Note_off_c, 9, 42, 95
5, 62880, Note_off_c, 9, 38, 95
5, 62880, Note_on_c, 9, 42, 95
5, 62880, Note_on_c, 9, 36, 95
5, 63360, Note_off_c, 9, 42, 95
5, 63360, Note_off_c, 9, 36, 95
5, 63360, Note_on_c, 9, 42, 95
5, 63840, Note_off_c, 9, 42, 95
5, 63840, Note_on_c, 9, 42, 95
5, 64320, Note_off_c, 9, 42, 95
5, 64320, Note_on_c, 9, 42, 95
5, 64320, Note_on_c, 9, 38, 95
5, 64800, Note_off_c, 9, 42, 95
5, 64800, Note_off_c, 9, 38, 95
5, 64800, Note_on_c, 9, 42, 95
5, 64800, Note_on_c, 9, 36, 95
5, 65280, Note_off_c, 9, 42, 95
5, 65280, Note_off_c, 9, 36, 95
5, 65280, Note_on_c, 9, 42, 95
5, 65280, Note_on_c, 9, 36, 95
5, 65760, Note_off_c, 9, 42, 95
5, 65760, Note_off_c, 9, 36, 95
5, 65760, Note_on_c, 9, 42, 95
5, 66240, Note_off_c, 9, 42, 95
5, 66240, Note_on_c, 9, 42, 95
5, 66240, Note_on_c, 9, 38, 95
5, 66720, Note_off_c, 9, 42, 95
5, 66720, Note_off_c, 9, 38, 95
5, 66720, Note_on_c, 9, 42, 95
5, 67200, Note_off_c, 9, 42, 95
5, 67200, Note_on_c, 9, 42, 95
5, 67200, Note_on_c, 9, 36, 95
5, 67680, Note_off_c, 9, 42, 95
5, 67680, Note_off_c, 9, 36, 95
5, 67680, Note_on_c, 9, 42, 95
5, 67680, Note_on_c, 9, 36, 95
5, 68160, Note_off_c, 9, 42, 95
5, 68160, Note_off_c, 9, 36, 95
5, 68160, Note_on_c, 9, 42, 95
5, 68160, Note_on_c, 9, 38, 95
5, 68640, Note_off_c, 9, 42, 95
5, 68640, Note_off_c, 9, 38, 95
5, 68640, Note_on_c, 9, 42, 95
5, 68640, Note_on_c, 9, 36, 95
5, 69120, Note_off_c, 9, 42, 95
5, 69120, Note_off_c, 9, 36, 95
5, 69120, Note_on_c, 9, 42, 95
5, 69120, Note_on_c, 9, 36, 95
5, 69600, Note_off_c, 9, 42, 95
5, 69600, Note_off_c, 9, 36, 95
5, 69600, Note_on_c, 9, 42, 95
5, 70080, Note_off_c, 9, 42, 95
5, 70080, Note_on_c, 9, 42, 95
5, 70080, Note_on_c, 9, 38, 95
5, 70560, Note_off_c, 9, 42, 95
5, 70560, Note_off_c, 9, 38, 95
5, 70560, Note_on_c, 9, 42, 95
5, 70560, Note_on_c, 9, 36, 95
5, 71040, Note_off_c, 9, 42, 95
5, 71040, Note_off_c, 9, 36, 95
5, 71040, Note_on_c, 9, 42, 95
5, 71040, Note_on_c, 9, 36, 95
5, 71520, Note_off_c, 9, 42, 95
5, 71520, Note_off_c, 9, 36, 95
5, 71520, Note_on_c, 9, 42, 95
5, 72000, Note_off_c, 9, 42, 95
5, 72000, Note_on_c, 9, 42, 95
5, 72000, Note_on_c, 9, 38, 95
5, 72480, Note_off_c, 9, 42, 95
5, 72480, Note_off_c, 9, 38, 95
5, 72480, Note_on_c, 9, 42, 95
5, 72480, Note_on_c, 9, 36, 95
5, 72960, Note_off_c, 9, 42, 95
5, 72960, Note_off_c, 9, 36, 95
5, 72960, Note_on_c, 9, 42, 95
5, 72960, Note_on_c, 9, 36, 95
5, 73440, Note_off_c, 9, 42, 95
5, 73440, Note_off_c, 9, 36, 95
5, 73440, Note_on_c, 9, 42, 95
5, 73920, Note_off_c, 9, 42, 95
5, 73920, Note_on_c, 9, 42, 95
5, 73920, Note_on_c, 9, 38, 95
5, 74400, Note_off_c, 9, 42, 95
5, 74400, Note_off_c, 9, 38, 95
5, 74400, Note_on_c, 9, 42, 95
5, 74880, Note_off_c, 9, 42, 95
5, 74880, Note_on_c, 9, 42, 95
5, 74880, Note_on_c, 9, 36, 95
5, 75360, Note_off_c, 9, 42, 95
5, 75360, Note_off_c, 9, 36, 95
5, 75360, Note_on_c, 9, 42, 95
5, 75360, Note_on_c, 9, 36, 95
5, 75840, Note_off_c, 9, 42, 95
5, 75840, Note_off_c, 9, 36, 95
5, 75840, Note_on_c, 9, 42, 95
5, 75840, Note_on_c, 9, 38, 95
5, 76320, Note_off_c, 9, 42, 95
5, 76320, Note_off_c, 9, 38, 95
5, 76320, Note_on_c, 9, 42, 95
5, 76320, Note_on_c, 9, 36, 95
5, 76800, Note_off_c, 9, 42, 95
5, 76800, Note_off_c, 9, 36, 95
5, 76800, Note_on_c, 9, 42, 95
5, 76800, Note_on_c, 9, 36, 95
5, 77280, Note_off_c, 9, 42, 95
5, 77280, Note_off_c, 9, 36, 95
5, 77280, Note_on_c, 9, 42, 95
5, 77760, Note_off_c, 9, 42, 95
5, 77760, Note_on_c, 9, 42, 95
5, 77760, Note_on_c, 9, 38, 95
5, 78240, Note_off_c, 9, 42, 95
5, 78240, Note_off_c, 9, 38, 95
5, 78240, Note_on_c, 9, 42, 95
5, 78720, Note_off_c, 9, 42, 95
5, 78720, Note_on_c, 9, 42, 95
5, 78720, Note_on_c, 9, 36, 95
5, 79200, Note_off_c, 9, 42, 95
5, 79200, Note_off_c, 9, 36, 95
5, 79200, Note_on_c, 9, 42, 95
5, 79200, Note_on_c, 9, 36, 95
5, 79680, Note_off_c, 9, 42, 95
5, 79680, Note_off_c, 9, 36, 95
5, 79680, Note_on_c, 9, 42, 95
5, 79680, Note_on_c, 9, 38, 95
5, 80160, Note_off_c, 9, 42, 95
5, 80160, Note_off_c, 9, 38, 95
5, 80160, Note_on_c, 9, 42, 95
5, 80160, Note_on_c, 9, 36, 95
5, 80640, Note_off_c, 9, 42, 95
5, 80640, Note_off_c, 9, 36, 95
5, 80640, Note_on_c, 9, 42, 95
5, 80640, Note_on_c, 9, 36, 95
5, 81120, Note_off_c, 9, 42, 95
5, 81120, Note_off_c, 9, 36, 95
5, 81120, Note_on_c, 9, 42, 95
5, 81600, Note_off_c, 9, 42, 95
5, 81600, Note_on_c, 9, 42, 95
5, 81600, Note_on_c, 9, 38, 95
5, 82080, Note_off_c, 9, 42, 95
5, 82080, Note_off_c, 9, 38, 95
5, 82080, Note_on_c, 9, 42, 95
5, 82560, Note_off_c, 9, 42, 95
5, 82560, Note_on_c, 9, 42, 95
5, 82560, Note_on_c, 9, 36, 95
5, 83040, Note_off_c, 9, 42, 95
5, 83040, Note_off_c, 9, 36, 95
5, 83040, Note_on_c, 9, 42, 95
5, 83040, Note_on_c, 9, 36, 95
5, 83520, Note_off_c, 9, 42, 95
5, 83520, Note_off_c, 9, 36, 95
5, 83520, Note_on_c, 9, 42, 95
5, 83520, Note_on_c, 9, 38, 95
5, 84000, Note_off_c, 9, 42, 95
5, 84000, Note_off_c, 9, 38, 95
5, 84000, Note_on_c, 9, 42, 95
5, 84000, Note_on_c, 9, 36, 95
5, 84480, Note_off_c, 9, 42, 95
5, 84480, Note_off_c, 9, 36, 95
5, 84480, Note_on_c, 9, 42, 95
5, 84480, Note_on_c, 9, 36, 95
5, 84960, Note_off_c, 9, 42, 95
5, 84960, Note_off_c, 9, 36, 95
5, 84960, Note_on_c, 9, 42, 95
5, 85440, Note_off_c, 9, 42, 95
5, 85440, Note_on_c, 9, 42, 95
5, 85440, Note_on_c, 9, 38, 95
5, 85920, Note_off_c, 9, 42, 95
5, 85920, Note_off_c, 9, 38, 95
5, 85920, Note_on_c, 9, 42, 95
5, 86400, Note_off_c, 9, 42, 95
5, 86400, Note_on_c, 9, 42, 95
5, 86400, Note_on_c, 9, 36, 95
5, 86880, Note_off_c, 9, 42, 95
5, 86880, Note_off_c, 9, 36, 95
5, 86880, Note_on_c, 9, 42, 95
5, 86880, Note_on_c, 9, 36, 95
5, 87360, Note_off_c, 9, 42, 95
5, 87360, Note_off_c, 9, 36, 95
5, 87360, Note_on_c, 9, 42, 95
5, 87360, Note_on_c, 9, 38, 95
5, 87840, Note_off_c, 9, 42, 95
5, 87840, Note_off_c, 9, 38, 95
5, 87840, Note_on_c, 9, 42, 95
5, 87840, Note_on_c, 9, 36, 95
5, 88320, Note_off_c, 9, 42, 95
5, 88320, Note_off_c, 9, 36, 95
5, 88320, Note_on_c, 9, 42, 95
5, 88320, Note_on_c, 9, 36, 95
5, 88800, Note_off_c, 9, 42, 95
5, 88800, Note_off_c, 9, 36, 95
5, 88800, Note_on_c, 9, 42, 95
5, 89280, Note_off_c, 9, 42, 95
5, 89280, Note_on_c, 9, 42, 95
5, 89280, Note_on_c, 9, 38, 95
5, 89760, Note_off_c, 9, 42, 95
5, 89760, Note_off_c, 9, 38, 95
5, 89760, Note_on_c, 9, 42, 95
5, 90240, Note_off_c, 9, 42, 95
5, 90240, Note_on_c, 9, 42, 95
5, 90240, Note_on_c, 9, 36, 95
5, 90720, Note_off_c, 9, 42, 95
5, 90720, Note_off_c, 9, 36, 95
5, 90720, Note_on_c, 9, 42, 95
5, 90720, Note_on_c, 9, 36, 95
5, 91200, Note_off_c, 9, 42, 95
5, 91200, Note_off_c, 9, 36, 95
5, 91200, Note_on_c, 9, 42, 95
5, 91200, Note_on_c, 9, 38, 95
5, 91680, Note_off_c, 9, 42, 95
5, 91680, Note_off_c, 9, 38, 95
5, 91680, Note_on_c, 9, 42, 95
5, 91680, Note_on_c, 9, 36, 95
5, 92160, Note_off_c, 9, 42, 95
5, 92160, Note_off_c, 9, 36, 95
5, 92160, Note_on_c, 9, 42, 95
5, 92160, Note_on_c, 9, 36, 95
5, 92640, Note_off_c, 9, 42, 95
5, 92640, Note_off_c, 9, 36, 95
5, 92640, Note_on_c, 9, 42, 95
5, 93120, Note_off_c, 9, 42, 95
5, 93120, Note_on_c, 9, 42, 95
5, 93120, Note_on_c, 9, 38, 95
5, 93600, Note_off_c, 9, 42, 95
5, 93600, Note_off_c, 9, 38, 95
5, 93600, Note_on_c, 9, 42, 95
5, 94080, Note_off_c, 9, 42, 95
5, 94080, Note_on_c, 9, 46, 95
5, 94080, Note_on_c, 9, 36, 95
5, 95040, Note_off_c, 9, 46, 95
5, 95040, Note_off_c, 9, 36, 95
5, 95040, Note_on_c, 9, 38, 95
5, 95280, Note_off_c, 9, 38, 95
5, 95280, Note_on_c, 9, 38, 95
5, 95520, Note_off_c, 9, 38, 95
5, 95520, Note_on_c, 9, 38, 95
5, 95760, Note_off_c, 9, 38, 95
5, 95760, Note_on_c, 9, 38, 95
5, 96000, Note_off_c, 9, 38, 95
5, 96000, Note_on_c, 9, 57, 95
5, 96000, Note_on_c, 9, 36, 95
5, 96480, Note_off_c, 9, 57, 95
5, 96480, Note_off_c, 9, 36, 95
5, 96480, Note_on_c, 9, 46, 95
5, 96960, Note_off_c, 9, 46, 95
5, 96960, Note_on_c, 9, 42, 95
5, 96960, Note_on_c, 9, 38, 95
5, 97440, Note_off_c, 9, 42, 95
5, 97440, Note_off_c, 9, 38, 95
5, 97440, Note_on_c, 9, 42, 95
5, 97440, Note_on_c, 9, 36, 95
5, 97920, Note_off_c, 9, 42, 95
5, 97920, Note_off_c, 9, 36, 95
5, 97920, Note_on_c, 9, 42, 95
5, 97920, Note_on_c, 9, 36, 95
5, 98400, Note_off_c, 9, 42, 95
5, 98400, Note_off_c, 9, 36, 95
5, 98400, Note_on_c, 9, 42, 95
5, 98880, Note_off_c, 9, 42, 95
5, 98880, Note_on_c, 9, 42, 95
5, 98880, Note_on_c, 9, 38, 95
5, 99360, Note_off_c, 9, 42, 95
5, 99360, Note_off_c, 9, 38, 95
5, 99360, Note_on_c, 9, 42, 95
5, 99360, Note_on_c, 9, 36, 95
5, 99840, Note_off_c, 9, 42, 95
5, 99840, Note_off_c, 9, 36, 95
5, 99840, Note_on_c, 9, 42, 95
5, 99840, Note_on_c, 9, 36, 95
5, 100320, Note_off_c, 9, 42, 95
5, 100320, Note_off_c, 9, 36, 95
5, 100320, Note_on_c, 9, 42, 95
5, 100800, Note_off_c, 9, 42, 95
5, 100800, Note_on_c, 9, 42, 95
5, 100800, Note_on_c, 9, 38, 95
5, 101280, Note_off_c, 9, 42, 95
5, 101280, Note_off_c, 9, 38, 95
5, 101280, Note_on_c, 9, 42, 95
5, 101760, Note_off_c, 9, 42, 95
5, 101760, Note_on_c, 9, 42, 95
5, 101760, Note_on_c, 9, 36, 95
5, 102240, Note_off_c, 9, 42, 95
5, 102240, Note_off_c, 9, 36, 95
5, 102240, Note_on_c, 9, 42, 95
5, 102720, Note_off_c, 9, 42, 95
5, 102720, Note_on_c, 9, 42, 95
5, 102720, Note_on_c, 9, 38, 95
5, 103200, Note_off_c, 9, 42, 95
5, 103200, Note_off_c, 9, 38, 95
5, 103200, Note_on_c, 9, 42, 95
5, 103200, Note_on_c, 9, 36, 95
5, 103680, Note_off_c, 9, 42, 95
5, 103680, Note_off_c, 9, 36, 95
5, 103680, Note_on_c, 9, 42, 95
5, 103680, Note_on_c, 9, 36, 95
5, 104160, Note_off_c, 9, 42, 95
5, 104160, Note_off_c, 9, 36, 95
5, 104160, Note_on_c, 9, 42, 95
5, 104640, Note_off_c, 9, 42, 95
5, 104640, Note_on_c, 9, 42, 95
5, 104640, Note_on_c, 9, 38, 95
5, 105120, Note_off_c, 9, 42, 95
5, 105120, Note_off_c, 9, 38, 95
5, 105120, Note_on_c, 9, 42, 95
5, 105600, Note_off_c, 9, 42, 95
5, 105600, Note_on_c, 9, 42, 95
5, 105600, Note_on_c, 9, 36, 95
5, 106080, Note_off_c, 9, 42, 95
5, 106080, Note_off_c, 9, 36, 95
5, 106080, Note_on_c, 9, 42, 95
5, 106560, Note_off_c, 9, 42, 95
5, 106560, Note_on_c, 9, 42, 95
5, 106560, Note_on_c, 9, 38, 95
5, 107040, Note_off_c, 9, 42, 95
5, 107040, Note_off_c, 9, 38, 95
5, 107040, Note_on_c, 9, 42, 95
5, 107040, Note_on_c, 9, 36, 95
5, 107520, Note_off_c, 9, 42, 95
5, 107520, Note_off_c, 9, 36, 95
5, 107520, Note_on_c, 9, 42, 95
5, 107520, Note_on_c, 9, 36, 95
5, 108000, Note_off_c, 9, 42, 95
5, 108000, Note_off_c, 9, 36, 95
5, 108000, Note_on_c, 9, 42, 95
5, 108480, Note_off_c, 9, 42, 95
5, 108480, Note_on_c, 9, 42, 95
5, 108480, Note_on_c, 9, 38, 95
5, 108960, Note_off_c, 9, 42, 95
5, 108960, Note_off_c, 9, 38, 95
5, 108960, Note_on_c, 9, 42, 95
5, 109440, Note_off_c, 9, 42, 95
5, 109440, Note_on_c, 9, 42, 95
5, 109440, Note_on_c, 9, 36, 95
5, 109920, Note_off_c, 9, 42, 95
5, 109920, Note_off_c, 9, 36, 95
5, 109920, Note_on_c, 9, 42, 95
5, 109920, Note_on_c, 9, 36, 95
5, 110400, Note_off_c, 9, 42, 95
5, 110400, Note_off_c, 9, 36, 95
5, 110400, Note_on_c, 9, 42, 95
5, 110400, Note_on_c, 9, 38, 95
5, 110880, Note_off_c, 9, 42, 95
5, 110880, Note_off_c, 9, 38, 95
5, 110880, Note_on_c, 9, 42, 95
5, 110880, Note_on_c, 9, 36, 95
5, 111360, Note_off_c, 9, 42, 95
5, 111360, Note_off_c, 9, 36, 95
5, 111360, Note_on_c, 9, 42, 95
5, 111360, Note_on_c, 9, 36, 95
5, 111840, Note_off_c, 9, 42, 95
5, 111840, Note_off_c, 9, 36, 95
5, 111840, Note_on_c, 9, 42, 95
5, 112320, Note_off_c, 9, 42, 95
5, 112320, Note_on_c, 9, 42, 95
5, 112320, Note_on_c, 9, 38, 95
5, 112800, Note_off_c, 9, 42, 95
5, 112800, Note_off_c, 9, 38, 95
5, 112800, Note_on_c, 9, 42, 95
5, 113280, Note_off_c, 9, 42, 95
5, 113280, Note_on_c, 9, 42, 95
5, 113280, Note_on_c, 9, 36, 95
5, 113760, Note_off_c, 9, 42, 95
5, 113760, Note_off_c, 9, 36, 95
5, 113760, Note_on_c, 9, 42, 95
5, 113760, Note_on_c, 9, 36, 95
5, 114240, Note_off_c, 9, 42, 95
5, 114240, Note_off_c, 9, 36, 95
5, 114240, Note_on_c, 9, 42, 95
5, 114240, Note_on_c, 9, 38, 95
5, 114720, Note_off_c, 9, 42, 95
5, 114720, Note_off_c, 9, 38, 95
5, 114720, Note_on_c, 9, 42, 95
5, 114720, Note_on_c, 9, 36, 95
5, 115200, Note_off_c, 9, 42, 95
5, 115200, Note_off_c, 9, 36, 95
5, 115200, Note_on_c, 9, 42, 95
5, 115200, Note_on_c, 9, 36, 95
5, 115680, Note_off_c, 9, 42, 95
5, 115680, Note_off_c, 9, 36, 95
5, 115680, Note_on_c, 9, 42, 95
5, 116160, Note_off_c, 9, 42, 95
5, 116160, Note_on_c, 9, 42, 95
5, 116160, Note_on_c, 9, 38, 95
5, 116640, Note_off_c, 9, 42, 95
5, 116640, Note_off_c, 9, 38, 95
5, 116640, Note_on_c, 9, 42, 95
5, 117120, Note_off_c, 9, 42, 95
5, 117120, Note_on_c, 9, 42, 95
5, 117120, Note_on_c, 9, 36, 95
5, 117600, Note_off_c, 9, 42, 95
5, 117600, Note_off_c, 9, 36, 95
5, 117600, Note_on_c, 9, 42, 95
5, 117600, Note_on_c, 9, 36, 95
5, 118080, Note_off_c, 9, 42, 95
5, 118080, Note_off_c, 9, 36, 95
5, 118080, Note_on_c, 9, 42, 95
5, 118080, Note_on_c, 9, 38, 95
5, 118560, Note_off_c, 9, 42, 95
5, 118560, Note_off_c, 9, 38, 95
5, 118560, Note_on_c, 9, 42, 95
5, 118560, Note_on_c, 9, 36, 95
5, 119040, Note_off_c, 9, 42, 95
5, 119040, Note_off_c, 9, 36, 95
5, 119040, Note_on_c, 9, 42, 95
5, 119040, Note_on_c, 9, 36, 95
5, 119520, Note_off_c, 9, 42, 95
5, 119520, Note_off_c, 9, 36, 95
5, 119520, Note_on_c, 9, 42, 95
5, 120000, Note_off_c, 9, 42, 95
5, 120000, Note_on_c, 9, 42, 95
5, 120000, Note_on_c, 9, 38, 95
5, 120480, Note_off_c, 9, 42, 95
5, 120480, Note_off_c, 9, 38, 95
5, 120480, Note_on_c, 9, 42, 95
5, 120960, Note_off_c, 9, 42, 95
5, 120960, Note_on_c, 9, 42, 95
5, 120960, Note_on_c, 9, 36, 95
5, 121440, Note_off_c, 9, 42, 95
5, 121440, Note_off_c, 9, 36, 95
5, 121440, Note_on_c, 9, 42, 95
5, 121440, Note_on_c, 9, 36, 95
5, 121920, Note_off_c, 9, 42, 95
5, 121920, Note_off_c, 9, 36, 95
5, 121920, Note_on_c, 9, 42, 95
5, 121920, Note_on_c, 9, 38, 95
5, 122400, Note_off_c, 9, 42, 95
5, 122400, Note_off_c, 9, 38, 95
5, 122400, Note_on_c, 9, 42, 95
5, 122400, Note_on_c, 9, 36, 95
5, 122880, Note_off_c, 9, 42, 95
5, 122880, Note_off_c, 9, 36, 95
5, 122880, Note_on_c, 9, 42, 95
5, 122880, Note_on_c, 9, 36, 95
5, 123360, Note_off_c, 9, 42, 95
5, 123360, Note_off_c, 9, 36, 95
5, 123360, Note_on_c, 9, 42, 95
5, 123840, Note_off_c, 9, 42, 95
5, 123840, Note_on_c, 9, 42, 95
5, 123840, Note_on_c, 9, 38, 95
5, 124320, Note_off_c, 9, 42, 95
5, 124320, Note_off_c, 9, 38, 95
5, 124320, Note_on_c, 9, 42, 95
5, 124320, Note_on_c, 9, 36, 95
5, 124800, Note_off_c, 9, 42, 95
5, 124800, Note_off_c, 9, 36, 95
5, 124800, Note_on_c, 9, 42, 95
5, 124800, Note_on_c, 9, 36, 95
5, 125280, Note_off_c, 9, 42, 95
5, 125280, Note_off_c, 9, 36, 95
5, 125280, Note_on_c, 9, 42, 95
5, 125760, Note_off_c, 9, 42, 95
5, 125760, Note_on_c, 9, 38, 95
5, 126000, Note_off_c, 9, 38, 95
5, 126000, Note_on_c, 9, 38, 95
5, 126240, Note_off_c, 9, 38, 95
5, 126240, Note_on_c, 9, 38, 95
5, 126480, Note_off_c, 9, 38, 95
5, 126480, Note_on_c, 9, 38, 95
5, 126720, Note_off_c, 9, 38, 95
5, 126720, Note_on_c, 9, 57, 95
5, 126720, Note_on_c, 9, 36, 95
5, 127200, Note_off_c, 9, 57, 95
5, 127200, Note_off_c, 9, 36, 95
5, 127200, Note_on_c, 9, 42, 95
5, 127680, Note_off_c, 9, 42, 95
5, 127680, Note_on_c, 9, 42, 95
5, 127680, Note_on_c, 9, 38, 95
5, 128160, Note_off_c, 9, 42, 95
5, 128160, Note_off_c, 9, 38, 95
5, 128160, Note_on_c, 9, 42, 95
5, 128640, Note_off_c, 9, 42, 95
5, 128640, Note_on_c, 9, 42, 95
5, 128640, Note_on_c, 9, 36, 95
5, 129120, Note_off_c, 9, 42, 95
5, 129120, Note_off_c, 9, 36, 95
5, 129120, Note_on_c, 9, 42, 95
5, 129600, Note_off_c, 9, 42, 95
5, 129600, Note_on_c, 9, 42, 95
5, 129600, Note_on_c, 9, 38, 95
5, 130080, Note_off_c, 9, 42, 95
5, 130080, Note_off_c, 9, 38, 95
5, 130080, Note_on_c, 9, 42, 95
5, 130080, Note_on_c, 9, 36, 95
5, 130560, Note_off_c, 9, 42, 95
5, 130560, Note_off_c, 9, 36, 95
5, 130560, Note_on_c, 9, 42, 95
5, 130560, Note_on_c, 9, 36, 95
5, 131040, Note_off_c, 9, 42, 95
5, 131040, Note_off_c, 9, 36, 95
5, 131040, Note_on_c, 9, 42, 95
5, 131520, Note_off_c, 9, 42, 95
5, 131520, Note_on_c, 9, 42, 95
5, 131520, Note_on_c, 9, 38, 95
5, 132000, Note_off_c, 9, 42, 95
5, 132000, Note_off_c, 9, 38, 95
5, 132000, Note_on_c, 9, 42, 95
5, 132480, Note_off_c, 9, 42, 95
5, 132480, Note_on_c, 9, 42, 95
5, 132480, Note_on_c, 9, 36, 95
5, 132960, Note_off_c, 9, 42, 95
5, 132960, Note_off_c, 9, 36, 95
5, 132960, Note_on_c, 9, 42, 95
5, 132960, Note_on_c, 9, 36, 95
5, 133440, Note_off_c, 9, 42, 95
5, 133440, Note_off_c, 9, 36, 95
5, 133440, Note_on_c, 9, 42, 95
5, 133440, Note_on_c, 9, 38, 95
5, 133920, Note_off_c, 9, 42, 95
5, 133920, Note_off_c, 9, 38, 95
5, 133920, Note_on_c, 9, 42, 95
5, 133920, Note_on_c, 9, 36, 95
5, 134400, Note_off_c, 9, 42, 95
5, 134400, Note_off_c, 9, 36, 95
5, 134400, Note_on_c, 9, 42, 95
5, 134400, Note_on_c, 9, 36, 95
5, 134880, Note_off_c, 9, 42, 95
5, 134880, Note_off_c, 9, 36, 95
5, 134880, Note_on_c, 9, 42, 95
5, 135360, Note_off_c, 9, 42, 95
5, 135360, Note_on_c, 9, 42, 95
5, 135360, Note_on_c, 9, 38, 95
5, 135840, Note_off_c, 9, 42, 95
5, 135840, Note_off_c, 9, 38, 95
5, 135840, Note_on_c, 9, 42, 95
5, 136320, Note_off_c, 9, 42, 95
5, 136320, Note_on_c, 9, 42, 95
5, 136320, Note_on_c, 9, 36, 95
5, 136800, Note_off_c, 9, 42, 95
5, 136800, Note_off_c, 9, 36, 95
5, 136800, Note_on_c, 9, 42, 95
5, 136800, Note_on_c, 9, 36, 95
5, 137280, Note_off_c, 9, 42, 95
5, 137280, Note_off_c, 9, 36, 95
5, 137280, Note_on_c, 9, 42, 95
5, 137280, Note_on_c, 9, 38, 95
5, 137760, Note_off_c, 9, 42, 95
5, 137760, Note_off_c, 9, 38, 95
5, 137760, Note_on_c, 9, 42, 95
5, 137760, Note_on_c, 9, 36, 95
5, 138240, Note_off_c, 9, 42, 95
5, 138240, Note_off_c, 9, 36, 95
5, 138240, Note_on_c, 9, 42, 95
5, 138240, Note_on_c, 9, 36, 95
5, 138720, Note_off_c, 9, 42, 95
5, 138720, Note_off_c, 9, 36, 95
5, 138720, Note_on_c, 9, 42, 95
5, 139200, Note_off_c, 9, 42, 95
5, 139200, Note_on_c, 9, 42, 95
5, 139200, Note_on_c, 9, 38, 95
5, 139680, Note_off_c, 9, 42, 95
5, 139680, Note_off_c, 9, 38, 95
5, 139680, Note_on_c, 9, 42, 95
5, 140160, Note_off_c, 9, 42, 95
5, 140160, Note_on_c, 9, 42, 95
5, 140160, Note_on_c, 9, 36, 95
5, 140640, Note_off_c, 9, 42, 95
5, 140640, Note_off_c, 9, 36, 95
5, 140640, Note_on_c, 9, 42, 95
5, 140640, Note_on_c, 9, 36, 95
5, 141120, Note_off_c, 9, 42, 95
5, 141120, Note_off_c, 9, 36, 95
5, 141120, Note_on_c, 9, 42, 95
5, 141120, Note_on_c, 9, 38, 95
5, 141600, Note_off_c, 9, 42, 95
5, 141600, Note_off_c, 9, 38, 95
5, 141600, Note_on_c, 9, 42, 95
5, 141600, Note_on_c, 9, 36, 95
5, 142080, Note_off_c, 9, 42, 95
5, 142080, Note_off_c, 9, 36, 95
5, 142080, Note_on_c, 9, 42, 95
5, 142080, Note_on_c, 9, 36, 95
5, 142560, Note_off_c, 9, 42, 95
5, 142560, Note_off_c, 9, 36, 95
5, 142560, Note_on_c, 9, 42, 95
5, 143040, Note_off_c, 9, 42, 95
5, 143040, Note_on_c, 9, 42, 95
5, 143040, Note_on_c, 9, 38, 95
5, 143520, Note_off_c, 9, 42, 95
5, 143520, Note_off_c, 9, 38, 95
5, 143520, Note_on_c, 9, 42, 95
5, 144000, Note_off_c, 9, 42, 95
5, 144000, Note_on_c, 9, 42, 95
5, 144000, Note_on_c, 9, 36, 95
5, 144480, Note_off_c, 9, 42, 95
5, 144480, Note_off_c, 9, 36, 95
5, 144480, Note_on_c, 9, 42, 95
5, 144480, Note_on_c, 9, 36, 95
5, 144960, Note_off_c, 9, 42, 95
5, 144960, Note_off_c, 9, 36, 95
5, 144960, Note_on_c, 9, 42, 95
5, 144960, Note_on_c, 9, 38, 95
5, 145440, Note_off_c, 9, 42, 95
5, 145440, Note_off_c, 9, 38, 95
5, 145440, Note_on_c, 9, 42, 95
5, 145440, Note_on_c, 9, 36, 95
5, 145920, Note_off_c, 9, 42, 95
5, 145920, Note_off_c, 9, 36, 95
5, 145920, Note_on_c, 9, 42, 95
5, 145920, Note_on_c, 9, 36, 95
5, 146400, Note_off_c, 9, 42, 95
5, 146400, Note_off_c, 9, 36, 95
5, 146400, Note_on_c, 9, 42, 95
5, 146880, Note_off_c, 9, 42, 95
5, 146880, Note_on_c, 9, 42, 95
5, 146880, Note_on_c, 9, 38, 95
5, 147360, Note_off_c, 9, 42, 95
5, 147360, Note_off_c, 9, 38, 95
5, 147360, Note_on_c, 9, 42, 95
5, 147840, Note_off_c, 9, 42, 95
5, 147840, Note_on_c, 9, 42, 95
5, 147840, Note_on_c, 9, 36, 95
5, 148320, Note_off_c, 9, 42, 95
5, 148320, Note_off_c, 9, 36, 95
5, 148320, Note_on_c, 9, 42, 95
5, 148320, Note_on_c, 9, 36, 95
5, 148800, Note_off_c, 9, 42, 95
5, 148800, Note_off_c, 9, 36, 95
5, 148800, Note_on_c, 9, 42, 95
5, 148800, Note_on_c, 9, 38, 95
5, 149280, Note_off_c, 9, 42, 95
5, 149280, Note_off_c, 9, 38, 95
5, 149280, Note_on_c, 9, 42, 95
5, 149280, Note_on_c, 9, 36, 95
5, 149760, Note_off_c, 9, 42, 95
5, 149760, Note_off_c, 9, 36, 95
5, 149760, Note_on_c, 9, 42, 95
5, 149760, Note_on_c, 9, 36, 95
5, 150240, Note_off_c, 9, 42, 95
5, 150240, Note_off_c, 9, 36, 95
5, 150240, Note_on_c, 9, 42, 95
5, 150720, Note_off_c, 9, 42, 95
5, 150720, Note_on_c, 9, 42, 95
5, 150720, Note_on_c, 9, 38, 95
5, 151200, Note_off_c, 9, 42, 95
5, 151200, Note_off_c, 9, 38, 95
5, 151200, Note_on_c, 9, 42, 95
5, 151680, Note_off_c, 9, 42, 95
5, 151680, Note_on_c, 9, 42, 95
5, 151680, Note_on_c, 9, 36, 95
5, 152160, Note_off_c, 9, 42, 95
5, 152160, Note_off_c, 9, 36, 95
5, 152160, Note_on_c, 9, 42, 95
5, 152160, Note_on_c, 9, 36, 95
5, 152640, Note_off_c, 9, 42, 95
5, 152640, Note_off_c, 9, 36, 95
5, 152640, Note_on_c, 9, 42, 95
5, 152640, Note_on_c, 9, 38, 95
5, 153120, Note_off_c, 9, 42, 95
5, 153120, Note_off_c, 9, 38, 95
5, 153120, Note_on_c, 9, 42, 95
5, 153120, Note_on_c, 9, 36, 95
5, 153600, Note_off_c, 9, 42, 95
5, 153600, Note_off_c, 9, 36, 95
5, 153600, Note_on_c, 9, 42, 95
5, 153600, Note_on_c, 9, 36, 95
5, 154080, Note_off_c, 9, 42, 95
5, 154080, Note_off_c, 9, 36, 95
5, 154080, Note_on_c, 9, 42, 95
5, 154560, Note_off_c, 9, 42, 95
5, 154560, Note_on_c, 9, 42, 95
5, 154560, Note_on_c, 9, 38, 95
5, 155040, Note_off_c, 9, 42, 95
5, 155040, Note_off_c, 9, 38, 95
5, 155040, Note_on_c, 9, 42, 95
5, 155520, Note_off_c, 9, 42, 95
5, 155520, Note_on_c, 9, 42, 95
5, 155520, Note_on_c, 9, 36, 95
5, 156000, Note_off_c, 9, 42, 95
5, 156000, Note_off_c, 9, 36, 95
5, 156000, Note_on_c, 9, 42, 95
5, 156000, Note_on_c, 9, 36, 95
5, 156480, Note_off_c, 9, 42, 95
5, 156480, Note_off_c, 9, 36, 95
5, 156480, Note_on_c, 9, 42, 95
5, 156480, Note_on_c, 9, 38, 95
5, 156960, Note_off_c, 9, 42, 95
5, 156960, Note_off_c, 9, 38, 95
5, 156960, Note_on_c, 9, 42, 95
5, 156960, Note_on_c, 9, 36, 95
5, 157440, Note_off_c, 9, 42, 95
5, 157440, Note_off_c, 9, 36, 95
5, 157440, Note_on_c, 9, 42, 95
5, 157440, Note_on_c, 9, 36, 95
5, 157920, Note_off_c, 9, 42, 95
5, 157920, Note_off_c, 9, 36, 95
5, 157920, Note_on_c, 9, 42, 95
5, 158400, Note_off_c, 9, 42, 95
5, 158400, Note_on_c, 9, 42, 95
5, 158400, Note_on_c, 9, 38, 95
5, 158880, Note_off_c, 9, 42, 95
5, 158880, Note_off_c, 9, 38, 95
5, 158880, Note_on_c, 9, 42, 95
5, 158880, Note_on_c, 9, 36, 95
5, 159360, Note_off_c, 9, 42, 95
5, 159360, Note_off_c, 9, 36, 95
5, 159360, Note_on_c, 9, 42, 95
5, 159360, Note_on_c, 9, 36, 95
5, 159840, Note_off_c, 9, 42, 95
5, 159840, Note_off_c, 9, 36, 95
5, 159840, Note_on_c, 9, 42, 95
5, 160320, Note_off_c, 9, 42, 95
5, 160320, Note_on_c, 9, 38, 95
5, 160560, Note_off_c, 9, 38, 95
5, 160560, Note_on_c, 9, 38, 95
5, 160800, Note_off_c, 9, 38, 95
5, 160800, Note_on_c, 9, 38, 95
5, 161040, Note_off_c, 9, 38, 95
5, 161040, Note_on_c, 9, 38, 95
5, 161280, Note_off_c, 9, 38, 95
5, 161280, Note_on_c, 9, 57, 95
5, 161280, Note_on_c, 9, 36, 95
5, 161760, Note_off_c, 9, 57, 95
5, 161760, Note_off_c, 9, 36, 95
5, 161760, Note_on_c, 9, 42, 95
5, 162240, Note_off_c, 9, 42, 95
5, 162240, Note_on_c, 9, 42, 95
5, 162240, Note_on_c, 9, 38, 95
5, 162720, Note_off_c, 9, 42, 95
5, 162720, Note_off_c, 9, 38, 95
5, 162720, Note_on_c, 9, 42, 95
5, 163200, Note_off_c, 9, 42, 95
5, 163200, Note_on_c, 9, 42, 95
5, 163200, Note_on_c, 9, 36, 95
5, 163680, Note_off_c, 9, 42, 95
5, 163680, Note_off_c, 9, 36, 95
5, 163680, Note_on_c, 9, 42, 95
5, 164160, Note_off_c, 9, 42, 95
5, 164160, Note_on_c, 9, 42, 95
5, 164160, Note_on_c, 9, 38, 95
5, 164640, Note_off_c, 9, 42, 95
5, 164640, Note_off_c, 9, 38, 95
5, 164640, Note_on_c, 9, 42, 95
5, 164640, Note_on_c, 9, 36, 95
5, 165120, Note_off_c, 9, 42, 95
5, 165120, Note_off_c, 9, 36, 95
5, 165120, Note_on_c, 9, 42, 95
5, 165120, Note_on_c, 9, 36, 95
5, 165600, Note_off_c, 9, 42, 95
5, 165600, Note_off_c, 9, 36, 95
5, 165600, Note_on_c, 9, 42, 95
5, 166080, Note_off_c, 9, 42, 95
5, 166080, Note_on_c, 9, 42, 95
5, 166080, Note_on_c, 9, 38, 95
5, 166560, Note_off_c, 9, 42, 95
5, 166560, Note_off_c, 9, 38, 95
5, 166560, Note_on_c, 9, 42, 95
5, 167040, Note_off_c, 9, 42, 95
5, 167040, Note_on_c, 9, 42, 95
5, 167040, Note_on_c, 9, 36, 95
5, 167520, Note_off_c, 9, 42, 95
5, 167520, Note_off_c, 9, 36, 95
5, 167520, Note_on_c, 9, 42, 95
5, 168000, Note_off_c, 9, 42, 95
5, 168000, Note_on_c, 9, 42, 95
5, 168000, Note_on_c, 9, 38, 95
5, 168480, Note_off_c, 9, 42, 95
5, 168480, Note_off_c, 9, 38, 95
5, 168480, Note_on_c, 9, 42, 95
5, 168480, Note_on_c, 9, 36, 95
5, 168960, Note_off_c, 9, 42, 95
5, 168960, Note_off_c, 9, 36, 95
5, 168960, Note_on_c, 9, 42, 95
5, 168960, Note_on_c, 9, 36, 95
5, 169440, Note_off_c, 9, 42, 95
5, 169440, Note_off_c, 9, 36, 95
5, 169440, Note_on_c, 9, 42, 95
5, 169920, Note_off_c, 9, 42, 95
5, 169920, Note_on_c, 9, 42, 95
5, 169920, Note_on_c, 9, 38, 95
5, 170400, Note_off_c, 9, 42, 95
5, 170400, Note_off_c, 9, 38, 95
5, 170400, Note_on_c, 9, 42, 95
5, 170880, Note_off_c, 9, 42, 95
5, 170880, Note_on_c, 9, 42, 95
5, 170880, Note_on_c, 9, 36, 95
5, 171360, Note_off_c, 9, 42, 95
5, 171360, Note_off_c, 9, 36, 95
5, 171360, Note_on_c, 9, 42, 95
5, 171840, Note_off_c, 9, 42, 95
5, 171840, Note_on_c, 9, 42, 95
5, 171840, Note_on_c, 9, 38, 95
5, 172320, Note_off_c, 9, 42, 95
5, 172320, Note_off_c, 9, 38, 95
5, 172320, Note_on_c, 9, 42, 95
5, 172320, Note_on_c, 9, 36, 95
5, 172800, Note_off_c, 9, 42, 95
5, 172800, Note_off_c, 9, 36, 95
5, 172800, Note_on_c, 9, 42, 95
5, 172800, Note_on_c, 9, 36, 95
5, 173280, Note_off_c, 9, 42, 95
5, 173280, Note_off_c, 9, 36, 95
5, 173280, Note_on_c, 9, 42, 95
5, 173760, Note_off_c, 9, 42, 95
5, 173760, Note_on_c, 9, 42, 95
5, 173760, Note_on_c, 9, 38, 95
5, 174240, Note_off_c, 9, 42, 95
5, 174240, Note_off_c, 9, 38, 95
5, 174240, Note_on_c, 9, 42, 95
5, 174720, Note_off_c, 9, 42, 95
5, 174720, Note_on_c, 9, 42, 95
5, 174720, Note_on_c, 9, 36, 95
5, 175200, Note_off_c, 9, 42, 95
5, 175200, Note_off_c, 9, 36, 95
5, 175200, Note_on_c, 9, 42, 95
5, 175200, Note_on_c, 9, 36, 95
5, 175680, Note_off_c, 9, 42, 95
5, 175680, Note_off_c, 9, 36, 95
5, 175680, Note_on_c, 9, 42, 95
5, 175680, Note_on_c, 9, 38, 95
5, 176160, Note_off_c, 9, 42, 95
5, 176160, Note_off_c, 9, 38, 95
5, 176160, Note_on_c, 9, 46, 95
5, 176160, Note_on_c, 9, 36, 95
5, 176640, Note_off_c, 9, 46, 95
5, 176640, Note_off_c, 9, 36, 95
5, 176640, Note_on_c, 9, 42, 95
5, 176640, Note_on_c, 9, 36, 95
5, 177120, Note_off_c, 9, 42, 95
5, 177120, Note_off_c, 9, 36, 95
5, 177120, Note_on_c, 9, 42, 95
5, 177600, Note_off_c, 9, 42, 95
5, 177600, Note_on_c, 9, 42, 95
5, 177600, Note_on_c, 9, 38, 95
5, 178080, Note_off_c, 9, 42, 95
5, 178080, Note_off_c, 9, 38, 95
5, 178080, Note_on_c, 9, 42, 95
5, 178560, Note_off_c, 9, 42, 95
5, 178560, Note_on_c, 9, 42, 95
5, 178560, Note_on_c, 9, 36, 95
5, 179040, Note_off_c, 9, 42, 95
5, 179040, Note_off_c, 9, 36, 95
5, 179040, Note_on_c, 9, 42, 95
5, 179040, Note_on_c, 9, 36, 95
5, 179520, Note_off_c, 9, 42, 95
5, 179520, Note_off_c, 9, 36, 95
5, 179520, Note_on_c, 9, 42, 95
5, 179520, Note_on_c, 9, 38, 95
5, 180000, Note_off_c, 9, 42, 95
5, 180000, Note_off_c, 9, 38, 95
5, 180000, Note_on_c, 9, 42, 95
5, 180000, Note_on_c, 9, 36, 95
5, 180480, Note_off_c, 9, 42, 95
5, 180480, Note_off_c, 9, 36, 95
5, 180480, Note_on_c, 9, 42, 95
5, 180480, Note_on_c, 9, 36, 95
5, 180960, Note_off_c, 9, 42, 95
5, 180960, Note_off_c, 9, 36, 95
5, 180960, Note_on_c, 9, 42, 95
5, 181440, Note_off_c, 9, 42, 95
5, 181440, Note_on_c, 9, 42, 95
5, 181440, Note_on_c, 9, 38, 95
5, 181920, Note_off_c, 9, 42, 95
5, 181920, Note_off_c, 9, 38, 95
5, 181920, Note_on_c, 9, 42, 95
5, 182400, Note_off_c, 9, 42, 95
5, 182400, Note_on_c, 9, 42, 95
5, 182400, Note_on_c, 9, 36, 95
5, 182880, Note_off_c, 9, 42, 95
5, 182880, Note_off_c, 9, 36, 95
5, 182880, Note_on_c, 9, 42, 95
5, 182880, Note_on_c, 9, 36, 95
5, 183360, Note_off_c, 9, 42, 95
5, 183360, Note_off_c, 9, 36, 95
5, 183360, Note_on_c, 9, 42, 95
5, 183360, Note_on_c, 9, 38, 95
5, 183840, Note_off_c, 9, 42, 95
5, 183840, Note_off_c, 9, 38, 95
5, 183840, Note_on_c, 9, 46, 95
5, 183840, Note_on_c, 9, 36, 95
5, 184320, Note_off_c, 9, 46, 95
5, 184320, Note_off_c, 9, 36, 95
5, 184320, Note_on_c, 9, 42, 95
5, 184320, Note_on_c, 9, 36, 95
5, 184800, Note_off_c, 9, 42, 95
5, 184800, Note_off_c, 9, 36, 95
5, 184800, Note_on_c, 9, 42, 95
5, 185280, Note_off_c, 9, 42, 95
5, 185280, Note_on_c, 9, 42, 95
5, 185280, Note_on_c, 9, 38, 95
5, 185760, Note_off_c, 9, 42, 95
5, 185760, Note_off_c, 9, 38, 95
5, 185760, Note_on_c, 9, 42, 95
5, 185760, Note_on_c, 9, 36, 95
5, 186240, Note_off_c, 9, 42, 95
5, 186240, Note_off_c, 9, 36, 95
5, 186240, Note_on_c, 9, 42, 95
5, 186720, Note_off_c, 9, 42, 95
5, 186720, Note_on_c, 9, 42, 95
5, 186720, Note_on_c, 9, 36, 95
5, 187200, Note_off_c, 9, 42, 95
5, 187200, Note_off_c, 9, 36, 95
5, 187200, Note_on_c, 9, 42, 95
5, 187200, Note_on_c, 9, 38, 95
5, 187680, Note_off_c, 9, 42, 95
5, 187680, Note_off_c, 9, 38, 95
5, 187680, Note_on_c, 9, 42, 95
5, 187680, Note_on_c, 9, 36, 95
5, 188160, Note_off_c, 9, 42, 95
5, 188160, Note_off_c, 9, 36, 95
5, 188160, Note_on_c, 9, 42, 95
5, 188160, Note_on_c, 9, 36, 95
5, 188640, Note_off_c, 9, 42, 95
5, 188640, Note_off_c, 9, 36, 95
5, 188640, Note_on_c, 9, 42, 95
5, 189120, Note_off_c, 9, 42, 95
5, 189120, Note_on_c, 9, 42, 95
5, 189120, Note_on_c, 9, 38, 95
5, 189600, Note_off_c, 9, 42, 95
5, 189600, Note_off_c, 9, 38, 95
5, 189600, Note_on_c, 9, 42, 95
5, 189600, Note_on_c, 9, 36, 95
5, 190080, Note_off_c, 9, 42, 95
5, 190080, Note_off_c, 9, 36, 95
5, 190080, Note_on_c, 9, 42, 95
5, 190560, Note_off_c, 9, 42, 95
5, 190560, Note_on_c, 9, 42, 95
5, 191040, Note_off_c, 9, 42, 95
5, 191040, Note_on_c, 9, 42, 95
5, 191040, Note_on_c, 9, 38, 95
5, 191520, Note_off_c, 9, 42, 95
5, 191520, Note_off_c, 9, 38, 95
5, 191520, Note_on_c, 9, 42, 95
5, 191520, Note_on_c, 9, 36, 95
5, 192000, Note_off_c, 9, 42, 95
5, 192000, Note_off_c, 9, 36, 95
5, 192000, Note_on_c, 9, 42, 95
5, 192000, Note_on_c, 9, 36, 95
5, 192480, Note_off_c, 9, 42, 95
5, 192480, Note_off_c, 9, 36, 95
5, 192480, Note_on_c, 9, 42, 95
5, 192960, Note_off_c, 9, 42, 95
5, 192960, Note_on_c, 9, 42, 95
5, 192960, Note_on_c, 9, 38, 95
5, 193440, Note_off_c, 9, 42, 95
5, 193440, Note_off_c, 9, 38, 95
5, 193440, Note_on_c, 9, 42, 95
5, 193920, Note_off_c, 9, 42, 95
5, 193920, Note_on_c, 9, 42, 95
5, 193920, Note_on_c, 9, 36, 95
5, 194400, Note_off_c, 9, 42, 95
5, 194400, Note_off_c, 9, 36, 95
5, 194400, Note_on_c, 9, 42, 95
5, 194400, Note_on_c, 9, 36, 95
5, 194880, Note_off_c, 9, 42, 95
5, 194880, Note_off_c, 9, 36, 95
5, 194880, Note_on_c, 9, 42, 95
5, 194880, Note_on_c, 9, 38, 95
5, 195360, Note_off_c, 9, 42, 95
5, 195360, Note_off_c, 9, 38, 95
5, 195360, Note_on_c, 9, 42, 95
5, 195360, Note_on_c, 9, 36, 95
5, 195840, Note_off_c, 9, 42, 95
5, 195840, Note_off_c, 9, 36, 95
5, 195840, Note_on_c, 9, 42, 95
5, 195840, Note_on_c, 9, 36, 95
5, 196320, Note_off_c, 9, 42, 95
5, 196320, Note_off_c, 9, 36, 95
5, 196320, Note_on_c, 9, 42, 95
5, 196800, Note_off_c, 9, 42, 95
5, 196800, Note_on_c, 9, 42, 95
5, 196800, Note_on_c, 9, 38, 95
5, 197280, Note_off_c, 9, 42, 95
5, 197280, Note_off_c, 9, 38, 95
5, 197280, Note_on_c, 9, 42, 95
5, 197280, Note_on_c, 9, 36, 95
5, 197760, Note_off_c, 9, 42, 95
5, 197760, Note_off_c, 9, 36, 95
5, 197760, Note_on_c, 9, 42, 95
5, 197760, Note_on_c, 9, 36, 95
5, 198240, Note_off_c, 9, 42, 95
5, 198240, Note_off_c, 9, 36, 95
5, 198240, Note_on_c, 9, 42, 95
5, 198720, Note_off_c, 9, 42, 95
5, 198720, Note_on_c, 9, 42, 95
5, 198720, Note_on_c, 9, 38, 95
5, 199200, Note_off_c, 9, 42, 95
5, 199200, Note_off_c, 9, 38, 95
5, 199200, Note_on_c, 9, 42, 95
5, 199200, Note_on_c, 9, 36, 95
5, 199680, Note_off_c, 9, 42, 95
5, 199680, Note_off_c, 9, 36, 95
5, 199680, Note_on_c, 9, 42, 95
5, 199680, Note_on_c, 9, 36, 95
5, 200160, Note_off_c, 9, 42, 95
5, 200160, Note_off_c, 9, 36, 95
5, 200160, Note_on_c, 9, 42, 95
5, 200640, Note_off_c, 9, 42, 95
5, 200640, Note_on_c, 9, 42, 95
5, 200640, Note_on_c, 9, 38, 95
5, 201120, Note_off_c, 9, 42, 95
5, 201120, Note_off_c, 9, 38, 95
5, 201120, Note_on_c, 9, 42, 95
5, 201600, Note_off_c, 9, 42, 95
5, 201600, Note_on_c, 9, 42, 95
5, 201600, Note_on_c, 9, 36, 95
5, 202080, Note_off_c, 9, 42, 95
5, 202080, Note_off_c, 9, 36, 95
5, 202080, Note_on_c, 9, 42, 95
5, 202080, Note_on_c, 9, 36, 95
5, 202560, Note_off_c, 9, 42, 95
5, 202560, Note_off_c, 9, 36, 95
5, 202560, Note_on_c, 9, 42, 95
5, 202560, Note_on_c, 9, 38, 95
5, 203040, Note_off_c, 9, 42, 95
5, 203040, Note_off_c, 9, 38, 95
5, 203040, Note_on_c, 9, 42, 95
5, 203040, Note_on_c, 9, 36, 95
5, 203520, Note_off_c, 9, 42, 95
5, 203520, Note_off_c, 9, 36, 95
5, 203520, Note_on_c, 9, 42, 95
5, 203520, Note_on_c, 9, 36, 95
5, 204000, Note_off_c, 9, 42, 95
5, 204000, Note_off_c, 9, 36, 95
5, 204000, Note_on_c, 9, 42, 95
5, 204480, Note_off_c, 9, 42, 95
5, 204480, Note_on_c, 9, 42, 95
5, 204480, Note_on_c, 9, 38, 95
5, 204960, Note_off_c, 9, 42, 95
5, 204960, Note_off_c, 9, 38, 95
5, 204960, Note_on_c, 9, 42, 95
5, 205440, Note_off_c, 9, 42, 95
5, 205440, Note_on_c, 9, 42, 95
5, 205440, Note_on_c, 9, 36, 95
5, 205920, Note_off_c, 9, 42, 95
5, 205920, Note_off_c, 9, 36, 95
5, 205920, Note_on_c, 9, 42, 95
5, 205920, Note_on_c, 9, 36, 95
5, 206400, Note_off_c, 9, 42, 95
5, 206400, Note_off_c, 9, 36, 95
5, 206400, Note_on_c, 9, 42, 95
5, 206400, Note_on_c, 9, 38, 95
5, 206880, Note_off_c, 9, 42, 95
5, 206880, Note_off_c, 9, 38, 95
5, 206880, Note_on_c, 9, 42, 95
5, 206880, Note_on_c, 9, 36, 95
5, 207360, Note_off_c, 9, 42, 95
5, 207360, Note_off_c, 9, 36, 95
5, 207360, Note_on_c, 9, 42, 95
5, 207360, Note_on_c, 9, 36, 95
5, 207840, Note_off_c, 9, 42, 95
5, 207840, Note_off_c, 9, 36, 95
5, 207840, Note_on_c, 9, 42, 95
5, 208320, Note_off_c, 9, 42, 95
5, 208320, Note_on_c, 9, 42, 95
5, 208320, Note_on_c, 9, 38, 95
5, 208800, Note_off_c, 9, 42, 95
5, 208800, Note_off_c, 9, 38, 95
5, 208800, Note_on_c, 9, 42, 95
5, 209280, Note_off_c, 9, 42, 95
5, 209280, Note_on_c, 9, 42, 95
5, 209280, Note_on_c, 9, 36, 95
5, 209760, Note_off_c, 9, 42, 95
5, 209760, Note_off_c, 9, 36, 95
5, 209760, Note_on_c, 9, 42, 95
5, 209760, Note_on_c, 9, 36, 95
5, 210240, Note_off_c, 9, 42, 95
5, 210240, Note_off_c, 9, 36, 95
5, 210240, Note_on_c, 9, 42, 95
5, 210240, Note_on_c, 9, 38, 95
5, 210720, Note_off_c, 9, 42, 95
5, 210720, Note_off_c, 9, 38, 95
5, 210720, Note_on_c, 9, 42, 95
5, 210720, Note_on_c, 9, 36, 95
5, 211200, Note_off_c, 9, 42, 95
5, 211200, Note_off_c, 9, 36, 95
5, 211200, Note_on_c, 9, 42, 95
5, 211200, Note_on_c, 9, 36, 95
5, 211680, Note_off_c, 9, 42, 95
5, 211680, Note_off_c, 9, 36, 95
5, 211680, Note_on_c, 9, 42, 95
5, 212160, Note_off_c, 9, 42, 95
5, 212160, Note_on_c, 9, 42, 95
5, 212160, Note_on_c, 9, 38, 95
5, 212640, Note_off_c, 9, 42, 95
5, 212640, Note_off_c, 9, 38, 95
5, 212640, Note_on_c, 9, 42, 95
5, 213120, Note_off_c, 9, 42, 95
5, 213120, Note_on_c, 9, 42, 95
5, 213120, Note_on_c, 9, 36, 95
5, 213600, Note_off_c, 9, 42, 95
5, 213600, Note_off_c, 9, 36, 95
5, 213600, Note_on_c, 9, 42, 95
5, 213600, Note_on_c, 9, 36, 95
5, 214080, Note_off_c, 9, 42, 95
5, 214080, Note_off_c, 9, 36, 95
5, 214080, Note_on_c, 9, 42, 95
5, 214080, Note_on_c, 9, 38, 95
5, 214560, Note_off_c, 9, 42, 95
5, 214560, Note_off_c, 9, 38, 95
5, 214560, Note_on_c, 9, 42, 95
5, 214560, Note_on_c, 9, 36, 95
5, 215040, Note_off_c, 9, 42, 95
5, 215040, Note_off_c, 9, 36, 95
5, 215040, Note_on_c, 9, 42, 95
5, 215040, Note_on_c, 9, 36, 95
5, 215520, Note_off_c, 9, 42, 95
5, 215520, Note_off_c, 9, 36, 95
5, 215520, Note_on_c, 9, 42, 95
5, 216000, Note_off_c, 9, 42, 95
5, 216000, Note_on_c, 9, 42, 95
5, 216000, Note_on_c, 9, 38, 95
5, 216480, Note_off_c, 9, 42, 95
5, 216480, Note_off_c, 9, 38, 95
5, 216480, Note_on_c, 9, 42, 95
5, 216960, Note_off_c, 9, 42, 95
5, 216960, Note_on_c, 9, 42, 95
5, 216960, Note_on_c, 9, 36, 95
5, 217440, Note_off_c, 9, 42, 95
5, 217440, Note_off_c, 9, 36, 95
5, 217440, Note_on_c, 9, 42, 95
5, 217440, Note_on_c, 9, 36, 95
5, 217920, Note_off_c, 9, 42, 95
5, 217920, Note_off_c, 9, 36, 95
5, 217920, Note_on_c, 9, 42, 95
5, 217920, Note_on_c, 9, 38, 95
5, 218400, Note_off_c, 9, 42, 95
5, 218400, Note_off_c, 9, 38, 95
5, 218400, Note_on_c, 9, 42, 95
5, 218400, Note_on_c, 9, 36, 95
5, 218880, Note_off_c, 9, 42, 95
5, 218880, Note_off_c, 9, 36, 95
5, 218880, Note_on_c, 9, 42, 95
5, 218880, Note_on_c, 9, 36, 95
5, 219360, Note_off_c, 9, 42, 95
5, 219360, Note_off_c, 9, 36, 95
5, 219360, Note_on_c, 9, 42, 95
5, 219840, Note_off_c, 9, 42, 95
5, 219840, Note_on_c, 9, 42, 95
5, 219840, Note_on_c, 9, 38, 95
5, 220320, Note_off_c, 9, 42, 95
5, 220320, Note_off_c, 9, 38, 95
5, 220320, Note_on_c, 9, 42, 95
5, 220800, Note_off_c, 9, 42, 95
5, 220800, Note_on_c, 9, 46, 95
5, 220800, Note_on_c, 9, 36, 95
5, 221760, Note_off_c, 9, 46, 95
5, 221760, Note_off_c, 9, 36, 95
5, 221760, Note_on_c, 9, 38, 95
5, 222000, Note_off_c, 9, 38, 95
5, 222000, Note_on_c, 9, 38, 95
5, 222240, Note_off_c, 9, 38, 95
5, 222240, Note_on_c, 9, 38, 95
5, 222480, Note_off_c, 9, 38, 95
5, 222480, Note_on_c, 9, 38, 95
5, 222720, Note_off_c, 9, 38, 95
5, 222720, Note_on_c, 9, 57, 95
5, 222720, Note_on_c, 9, 36, 95
5, 223200, Note_off_c, 9, 57, 95
5, 223200, Note_off_c, 9, 36, 95
5, 223200, Note_on_c, 9, 46, 95
5, 223680, Note_off_c, 9, 46, 95
5, 223680, Note_on_c, 9, 42, 95
5, 223680, Note_on_c, 9, 38, 95
5, 224160, Note_off_c, 9, 42, 95
5, 224160, Note_off_c, 9, 38, 95
5, 224160, Note_on_c, 9, 42, 95
5, 224160, Note_on_c, 9, 36, 95
5, 224640, Note_off_c, 9, 42, 95
5, 224640, Note_off_c, 9, 36, 95
5, 224640, Note_on_c, 9, 42, 95
5, 224640, Note_on_c, 9, 36, 95
5, 225120, Note_off_c, 9, 42, 95
5, 225120, Note_off_c, 9, 36, 95
5, 225120, Note_on_c, 9, 42, 95
5, 225600, Note_off_c, 9, 42, 95
5, 225600, Note_on_c, 9, 42, 95
5, 225600, Note_on_c, 9, 38, 95
5, 226080, Note_off_c, 9, 42, 95
5, 226080, Note_off_c, 9, 38, 95
5, 226080, Note_on_c, 9, 42, 95
5, 226080, Note_on_c, 9, 36, 95
5, 226560, Note_off_c, 9, 42, 95
5, 226560, Note_off_c, 9, 36, 95
5, 226560, Note_on_c, 9, 42, 95
5, 226560, Note_on_c, 9, 36, 95
5, 227040, Note_off_c, 9, 42, 95
5, 227040, Note_off_c, 9, 36, 95
5, 227040, Note_on_c, 9, 42, 95
5, 227520, Note_off_c, 9, 42, 95
5, 227520, Note_on_c, 9, 42, 95
5, 227520, Note_on_c, 9, 38, 95
5, 228000, Note_off_c, 9, 42, 95
5, 228000, Note_off_c, 9, 38, 95
5, 228000, Note_on_c, 9, 42, 95
5, 228480, Note_off_c, 9, 42, 95
5, 228480, Note_on_c, 9, 42, 95
5, 228480, Note_on_c, 9, 36, 95
5, 228960, Note_off_c, 9, 42, 95
5, 228960, Note_off_c, 9, 36, 95
5, 228960, Note_on_c, 9, 42, 95
5, 229440, Note_off_c, 9, 42, 95
5, 229440, Note_on_c, 9, 42, 95
5, 229440, Note_on_c, 9, 38, 95
5, 229920, Note_off_c, 9, 42, 95
5, 229920, Note_off_c, 9, 38, 95
5, 229920, Note_on_c, 9, 42, 95
5, 229920, Note_on_c, 9, 36, 95
5, 230400, Note_off_c, 9, 42, 95
5, 230400, Note_off_c, 9, 36, 95
5, 230400, Note_on_c, 9, 42, 95
5, 230400, Note_on_c, 9, 36, 95
5, 230880, Note_off_c, 9, 42, 95
5, 230880, Note_off_c, 9, 36, 95
5, 230880, Note_on_c, 9, 42, 95
5, 231360, Note_off_c, 9, 42, 95
5, 231360, Note_on_c, 9, 42, 95
5, 231360, Note_on_c, 9, 38, 95
5, 231840, Note_off_c, 9, 42, 95
5, 231840, Note_off_c, 9, 38, 95
5, 231840, Note_on_c, 9, 42, 95
5, 232320, Note_off_c, 9, 42, 95
5, 232320, Note_on_c, 9, 42, 95
5, 232320, Note_on_c, 9, 36, 95
5, 232800, Note_off_c, 9, 42, 95
5, 232800, Note_off_c, 9, 36, 95
5, 232800, Note_on_c, 9, 42, 95
5, 233280, Note_off_c, 9, 42, 95
5, 233280, Note_on_c, 9, 42, 95
5, 233280, Note_on_c, 9, 38, 95
5, 233760, Note_off_c, 9, 42, 95
5, 233760, Note_off_c, 9, 38, 95
5, 233760, Note_on_c, 9, 42, 95
5, 233760, Note_on_c, 9, 36, 95
5, 234240, Note_off_c, 9, 42, 95
5, 234240, Note_off_c, 9, 36, 95
5, 234240, Note_on_c, 9, 42, 95
5, 234240, Note_on_c, 9, 36, 95
5, 234720, Note_off_c, 9, 42, 95
5, 234720, Note_off_c, 9, 36, 95
5, 234720, Note_on_c, 9, 42, 95
5, 235200, Note_off_c, 9, 42, 95
5, 235200, Note_on_c, 9, 42, 95
5, 235200, Note_on_c, 9, 38, 95
5, 235680, Note_off_c, 9, 42, 95
5, 235680, Note_off_c, 9, 38, 95
5, 235680, Note_on_c, 9, 42, 95
5, 236160, Note_off_c, 9, 42, 95
5, 236160, Note_on_c, 9, 42, 95
5, 236160, Note_on_c, 9, 36, 95
5, 236640, Note_off_c, 9, 42, 95
5, 236640, Note_off_c, 9, 36, 95
5, 236640, Note_on_c, 9, 42, 95
5, 236640, Note_on_c, 9, 36, 95
5, 237120, Note_off_c, 9, 42, 95
5, 237120, Note_off_c, 9, 36, 95
5, 237120, Note_on_c, 9, 42, 95
5, 237120, Note_on_c, 9, 38, 95
5, 237600, Note_off_c, 9, 42, 95
5, 237600, Note_off_c, 9, 38, 95
5, 237600, Note_on_c, 9, 42, 95
5, 237600, Note_on_c, 9, 36, 95
5, 238080, Note_off_c, 9, 42, 95
5, 238080, Note_off_c, 9, 36, 95
5, 238080, Note_on_c, 9, 42, 95
5, 238080, Note_on_c, 9, 36, 95
5, 238560, Note_off_c, 9, 42, 95
5, 238560, Note_off_c, 9, 36, 95
5, 238560, Note_on_c, 9, 42, 95
5, 239040, Note_off_c, 9, 42, 95
5, 239040, Note_on_c, 9, 42, 95
5, 239040, Note_on_c, 9, 38, 95
5, 239520, Note_off_c, 9, 42, 95
5, 239520, Note_off_c, 9, 38, 95
5, 239520, Note_on_c, 9, 42, 95
5, 240000, Note_off_c, 9, 42, 95
5, 240000, Note_on_c, 9, 42, 95
5, 240000, Note_on_c, 9, 36, 95
5, 240480, Note_off_c, 9, 42, 95
5, 240480, Note_off_c, 9, 36, 95
5, 240480, Note_on_c, 9, 42, 95
5, 240480, Note_on_c, 9, 36, 95
5, 240960, Note_off_c, 9, 42, 95
5, 240960, Note_off_c, 9, 36, 95
5, 240960, Note_on_c, 9, 42, 95
5, 240960, Note_on_c, 9, 38, 95
5, 241440, Note_off_c, 9, 42, 95
5, 241440, Note_off_c, 9, 38, 95
5, 241440, Note_on_c, 9, 42, 95
5, 241440, Note_on_c, 9, 36, 95
5, 241920, Note_off_c, 9, 42, 95
5, 241920, Note_off_c, 9, 36, 95
5, 241920, Note_on_c, 9, 42, 95
5, 241920, Note_on_c, 9, 36, 95
5, 242400, Note_off_c, 9, 42, 95
5, 242400, Note_off_c, 9, 36, 95
5, 242400, Note_on_c, 9, 42, 95
5, 242880, Note_off_c, 9, 42, 95
5, 242880, Note_on_c, 9, 42, 95
5, 242880, Note_on_c, 9, 38, 95
5, 243360, Note_off_c, 9, 42, 95
5, 243360, Note_off_c, 9, 38, 95
5, 243360, Note_on_c, 9, 42, 95
5, 243840, Note_off_c, 9, 42, 95
5, 243840, Note_on_c, 9, 42, 95
5, 243840, Note_on_c, 9, 36, 95
5, 244320, Note_off_c, 9, 42, 95
5, 244320, Note_off_c, 9, 36, 95
5, 244320, Note_on_c, 9, 42, 95
5, 244320, Note_on_c, 9, 36, 95
5, 244800, Note_off_c, 9, 42, 95
5, 244800, Note_off_c, 9, 36, 95
5, 244800, Note_on_c, 9, 42, 95
5, 244800, Note_on_c, 9, 38, 95
5, 245280, Note_off_c, 9, 42, 95
5, 245280, Note_off_c, 9, 38, 95
5, 245280, Note_on_c, 9, 42, 95
5, 245280, Note_on_c, 9, 36, 95
5, 245760, Note_off_c, 9, 42, 95
5, 245760, Note_off_c, 9, 36, 95
5, 245760, Note_on_c, 9, 42, 95
5, 245760, Note_on_c, 9, 36, 95
5, 246240, Note_off_c, 9, 42, 95
5, 246240, Note_off_c, 9, 36, 95
5, 246240, Note_on_c, 9, 42, 95
5, 246720, Note_off_c, 9, 42, 95
5, 246720, Note_on_c, 9, 42, 95
5, 246720, Note_on_c, 9, 38, 95
5, 247200, Note_off_c, 9, 42, 95
5, 247200, Note_off_c, 9, 38, 95
5, 247200, Note_on_c, 9, 42, 95
5, 247680, Note_off_c, 9, 42, 95
5, 247680, Note_on_c, 9, 42, 95
5, 247680, Note_on_c, 9, 36, 95
5, 248160, Note_off_c, 9, 42, 95
5, 248160, Note_off_c, 9, 36, 95
5, 248160, Note_on_c, 9, 42, 95
5, 248160, Note_on_c, 9, 36, 95
5, 248640, Note_off_c, 9, 42, 95
5, 248640, Note_off_c, 9, 36, 95
5, 248640, Note_on_c, 9, 42, 95
5, 248640, Note_on_c, 9, 38, 95
5, 249120, Note_off_c, 9, 42, 95
5, 249120, Note_off_c, 9, 38, 95
5, 249120, Note_on_c, 9, 42, 95
5, 249120, Note_on_c, 9, 36, 95
5, 249600, Note_off_c, 9, 42, 95
5, 249600, Note_off_c, 9, 36, 95
5, 249600, Note_on_c, 9, 42, 95
5, 249600, Note_on_c, 9, 36, 95
5, 250080, Note_off_c, 9, 42, 95
5, 250080, Note_off_c, 9, 36, 95
5, 250080, Note_on_c, 9, 42, 95
5, 250560, Note_off_c, 9, 42, 95
5, 250560, Note_on_c, 9, 38, 95
5, 251040, Note_off_c, 9, 38, 95
5, 251040, Note_on_c, 9, 38, 95
5, 251280, Note_off_c, 9, 38, 95
5, 251280, Note_on_c, 9, 38, 95
5, 251520, Note_off_c, 9, 38, 95
5, 251520, Note_on_c, 9, 38, 95
5, 251760, Note_off_c, 9, 38, 95
5, 251760, Note_on_c, 9, 38, 95
5, 252000, Note_off_c, 9, 38, 95
5, 252000, Note_on_c, 9, 38, 95
5, 252240, Note_off_c, 9, 38, 95
5, 252240, Note_on_c, 9, 38, 95
5, 252480, Note_off_c, 9, 38, 95
5, 252480, Note_on_c, 9, 38, 95
5, 252720, Note_off_c, 9, 38, 95
5, 252720, Note_on_c, 9, 38, 95
5, 252960, Note_off_c, 9, 38, 95
5, 252960, Note_on_c, 9, 38, 95
5, 253200, Note_off_c, 9, 38, 95
5, 253200, Note_on_c, 9, 38, 95
5, 253440, Note_off_c, 9, 38, 95
5, 253440, Note_on_c, 9, 57, 95
5, 253440, Note_on_c, 9, 36, 95
5, 253920, Note_off_c, 9, 57, 95
5, 253920, Note_off_c, 9, 36, 95
5, 253920, Note_on_c, 9, 46, 95
5, 254400, Note_off_c, 9, 46, 95
5, 254400, Note_on_c, 9, 42, 95
5, 254400, Note_on_c, 9, 38, 95
5, 254880, Note_off_c, 9, 42, 95
5, 254880, Note_off_c, 9, 38, 95
5, 254880, Note_on_c, 9, 42, 95
5, 254880, Note_on_c, 9, 36, 95
5, 255360, Note_off_c, 9, 42, 95
5, 255360, Note_off_c, 9, 36, 95
5, 255360, Note_on_c, 9, 42, 95
5, 255360, Note_on_c, 9, 36, 95
5, 255840, Note_off_c, 9, 42, 95
5, 255840, Note_off_c, 9, 36, 95
5, 255840, Note_on_c, 9, 42, 95
5, 256320, Note_off_c, 9, 42, 95
5, 256320, Note_on_c, 9, 42, 95
5, 256320, Note_on_c, 9, 38, 95
5, 256800, Note_off_c, 9, 42, 95
5, 256800, Note_off_c, 9, 38, 95
5, 256800, Note_on_c, 9, 42, 95
5, 256800, Note_on_c, 9, 36, 95
5, 257280, Note_off_c, 9, 42, 95
5, 257280, Note_off_c, 9, 36, 95
5, 257280, Note_on_c, 9, 42, 95
5, 257280, Note_on_c, 9, 36, 95
5, 257760, Note_off_c, 9, 42, 95
5, 257760, Note_off_c, 9, 36, 95
5, 257760, Note_on_c, 9, 42, 95
5, 258240, Note_off_c, 9, 42, 95
5, 258240, Note_on_c, 9, 42, 95
5, 258240, Note_on_c, 9, 38, 95
5, 258720, Note_off_c, 9, 42, 95
5, 258720, Note_off_c, 9, 38, 95
5, 258720, Note_on_c, 9, 42, 95
5, 259200, Note_off_c, 9, 42, 95
5, 259200, Note_on_c, 9, 42, 95
5, 259200, Note_on_c, 9, 36, 95
5, 259680, Note_off_c, 9, 42, 95
5, 259680, Note_off_c, 9, 36, 95
5, 259680, Note_on_c, 9, 42, 95
5, 260160, Note_off_c, 9, 42, 95
5, 260160, Note_on_c, 9, 42, 95
5, 260160, Note_on_c, 9, 38, 95
5, 260640, Note_off_c, 9, 42, 95
5, 260640, Note_off_c, 9, 38, 95
5, 260640, Note_on_c, 9, 42, 95
5, 260640, Note_on_c, 9, 36, 95
5, 261120, Note_off_c, 9, 42, 95
5, 261120, Note_off_c, 9, 36, 95
5, 261120, Note_on_c, 9, 42, 95
5, 261120, Note_on_c, 9, 36, 95
5, 261600, Note_off_c, 9, 42, 95
5, 261600, Note_off_c, 9, 36, 95
5, 261600, Note_on_c, 9, 42, 95
5, 262080, Note_off_c, 9, 42, 95
5, 262080, Note_on_c, 9, 42, 95
5, 262080, Note_on_c, 9, 38, 95
5, 262560, Note_off_c, 9, 42, 95
5, 262560, Note_off_c, 9, 38, 95
5, 262560, Note_on_c, 9, 42, 95
5, 263040, Note_off_c, 9, 42, 95
5, 263040, Note_on_c, 9, 42, 95
5, 263040, Note_on_c, 9, 36, 95
5, 263520, Note_off_c, 9, 42, 95
5, 263520, Note_off_c, 9, 36, 95
5, 263520, Note_on_c, 9, 42, 95
5, 264000, Note_off_c, 9, 42, 95
5, 264000, Note_on_c, 9, 42, 95
5, 264000, Note_on_c, 9, 38, 95
5, 264480, Note_off_c, 9, 42, 95
5, 264480, Note_off_c, 9, 38, 95
5, 264480, Note_on_c, 9, 42, 95
5, 264480, Note_on_c, 9, 36, 95
5, 264960, Note_off_c, 9, 42, 95
5, 264960, Note_off_c, 9, 36, 95
5, 264960, Note_on_c, 9, 42, 95
5, 264960, Note_on_c, 9, 36, 95
5, 265440, Note_off_c, 9, 42, 95
5, 265440, Note_off_c, 9, 36, 95
5, 265440, Note_on_c, 9, 42, 95
5, 265920, Note_off_c, 9, 42, 95
5, 265920, Note_on_c, 9, 42, 95
5, 265920, Note_on_c, 9, 38, 95
5, 266400, Note_off_c, 9, 42, 95
5, 266400, Note_off_c, 9, 38, 95
5, 266400, Note_on_c, 9, 42, 95
5, 266880, Note_off_c, 9, 42, 95
5, 266880, Note_on_c, 9, 42, 95
5, 266880, Note_on_c, 9, 36, 95
5, 267360, Note_off_c, 9, 42, 95
5, 267360, Note_off_c, 9, 36, 95
5, 267360, Note_on_c, 9, 42, 95
5, 267360, Note_on_c, 9, 36, 95
5, 267840, Note_off_c, 9, 42, 95
5, 267840, Note_off_c, 9, 36, 95
5, 267840, Note_on_c, 9, 42, 95
5, 267840, Note_on_c, 9, 38, 95
5, 268320, Note_off_c, 9, 42, 95
5, 268320, Note_off_c, 9, 38, 95
5, 268320, Note_on_c, 9, 42, 95
5, 268320, Note_on_c, 9, 36, 95
5, 268800, Note_off_c, 9, 42, 95
5, 268800, Note_off_c, 9, 36, 95
5, 268800, Note_on_c, 9, 42, 95
5, 268800, Note_on_c, 9, 36, 95
5, 269280, Note_off_c, 9, 42, 95
5, 269280, Note_off_c, 9, 36, 95
5, 269280, Note_on_c, 9, 42, 95
5, 269760, Note_off_c, 9, 42, 95
5, 269760, Note_on_c, 9, 42, 95
5, 269760, Note_on_c, 9, 38, 95
5, 270240, Note_off_c, 9, 42, 95
5, 270240, Note_off_c, 9, 38, 95
5, 270240, Note_on_c, 9, 42, 95
5, 270720, Note_off_c, 9, 42, 95
5, 270720, Note_on_c, 9, 42, 95
5, 270720, Note_on_c, 9, 36, 95
5, 271200, Note_off_c, 9, 42, 95
5, 271200, Note_off_c, 9, 36, 95
5, 271200, Note_on_c, 9, 42, 95
5, 271200, Note_on_c, 9, 36, 95
5, 271680, Note_off_c, 9, 42, 95
5, 271680, Note_off_c, 9, 36, 95
5, 271680, Note_on_c, 9, 42, 95
5, 271680, Note_on_c, 9, 38, 95
5, 272160, Note_off_c, 9, 42, 95
5, 272160, Note_off_c, 9, 38, 95
5, 272160, Note_on_c, 9, 42, 95
5, 272160, Note_on_c, 9, 36, 95
5, 272640, Note_off_c, 9, 42, 95
5, 272640, Note_off_c, 9, 36, 95
5, 272640, Note_on_c, 9, 42, 95
5, 272640, Note_on_c, 9, 36, 95
5, 273120, Note_off_c, 9, 42, 95
5, 273120, Note_off_c, 9, 36, 95
5, 273120, Note_on_c, 9, 42, 95
5, 273600, Note_off_c, 9, 42, 95
5, 273600, Note_on_c, 9, 42, 95
5, 273600, Note_on_c, 9, 38, 95
5, 274080, Note_off_c, 9, 42, 95
5, 274080, Note_off_c, 9, 38, 95
5, 274080, Note_on_c, 9, 42, 95
5, 274560, Note_off_c, 9, 42, 95
5, 274560, Note_on_c, 9, 42, 95
5, 274560, Note_on_c, 9, 36, 95
5, 275040, Note_off_c, 9, 42, 95
5, 275040, Note_off_c, 9, 36, 95
5, 275040, Note_on_c, 9, 42, 95
5, 275040, Note_on_c, 9, 36, 95
5, 275520, Note_off_c, 9, 42, 95
5, 275520, Note_off_c, 9, 36, 95
5, 275520, Note_on_c, 9, 42, 95
5, 275520, Note_on_c, 9, 38, 95
5, 276000, Note_off_c, 9, 42, 95
5, 276000, Note_off_c, 9, 38, 95
5, 276000, Note_on_c, 9, 42, 95
5, 276000, Note_on_c, 9, 36, 95
5, 276480, Note_off_c, 9, 42, 95
5, 276480, Note_off_c, 9, 36, 95
5, 276480, Note_on_c, 9, 42, 95
5, 276480, Note_on_c, 9, 36, 95
5, 276960, Note_off_c, 9, 42, 95
5, 276960, Note_off_c, 9, 36, 95
5, 276960, Note_on_c, 9, 42, 95
5, 277440, Note_off_c, 9, 42, 95
5, 277440, Note_on_c, 9, 42, 95
5, 277440, Note_on_c, 9, 38, 95
5, 277920, Note_off_c, 9, 42, 95
5, 277920, Note_off_c, 9, 38, 95
5, 277920, Note_on_c, 9, 42, 95
5, 278400, Note_off_c, 9, 42, 95
5, 278400, Note_on_c, 9, 42, 95
5, 278400, Note_on_c, 9, 36, 95
5, 278880, Note_off_c, 9, 42, 95
5, 278880, Note_off_c, 9, 36, 95
5, 278880, Note_on_c, 9, 42, 95
5, 278880, Note_on_c, 9, 36, 95
5, 279360, Note_off_c, 9, 42, 95
5, 279360, Note_off_c, 9, 36, 95
5, 279360, Note_on_c, 9, 42, 95
5, 279360, Note_on_c, 9, 38, 95
5, 279840, Note_off_c, 9, 42, 95
5, 279840, Note_off_c, 9, 38, 95
5, 279840, Note_on_c, 9, 42, 95
5, 279840, Note_on_c, 9, 36, 95
5, 280320, Note_off_c, 9, 42, 95
5, 280320, Note_off_c, 9, 36, 95
5, 280320, Note_on_c, 9, 42, 95
5, 280320, Note_on_c, 9, 36, 95
5, 280800, Note_off_c, 9, 42, 95
5, 280800, Note_off_c, 9, 36, 95
5, 280800, Note_on_c, 9, 42, 95
5, 281280, Note_off_c, 9, 42, 95
5, 281280, Note_on_c, 9, 38, 95
5, 281760, Note_off_c, 9, 38, 95
5, 281760, Note_on_c, 9, 38, 95
5, 282000, Note_off_c, 9, 38, 95
5, 282000, Note_on_c, 9, 38, 95
5, 282240, Note_off_c, 9, 38, 95
5, 282720, Note_on_c, 9, 38, 95
5, 283200, Note_off_c, 9, 38, 95
5, 283200, Note_on_c, 9, 38, 95
5, 283440, Note_off_c, 9, 38, 95
5, 283440, Note_on_c, 9, 38, 95
5, 283680, Note_off_c, 9, 38, 95
5, 283680, Note_on_c, 9, 38, 95
5, 283920, Note_off_c, 9, 38, 95
5, 283920, Note_on_c, 9, 38, 95
5, 284160, Note_off_c, 9, 38, 95
5, 284160, Note_on_c, 9, 57, 95
5, 284160, Note_on_c, 9, 36, 95
5, 284640, Note_off_c, 9, 57, 95
5, 284640, Note_off_c, 9, 36, 95
5, 284640, Note_on_c, 9, 42, 95
5, 285120, Note_off_c, 9, 42, 95
5, 285120, Note_on_c, 9, 42, 95
5, 285120, Note_on_c, 9, 38, 95
5, 285600, Note_off_c, 9, 42, 95
5, 285600, Note_off_c, 9, 38, 95
5, 285600, Note_on_c, 9, 42, 95
5, 286080, Note_off_c, 9, 42, 95
5, 286080, Note_on_c, 9, 42, 95
5, 286080, Note_on_c, 9, 36, 95
5, 286560, Note_off_c, 9, 42, 95
5, 286560, Note_off_c, 9, 36, 95
5, 286560, Note_on_c, 9, 42, 95
5, 287040, Note_off_c, 9, 42, 95
5, 287040, Note_on_c, 9, 42, 95
5, 287040, Note_on_c, 9, 38, 95
5, 287520, Note_off_c, 9, 42, 95
5, 287520, Note_off_c, 9, 38, 95
5, 287520, Note_on_c, 9, 42, 95
5, 287520, Note_on_c, 9, 36, 95
5, 288000, Note_off_c, 9, 42, 95
5, 288000, Note_off_c, 9, 36, 95
5, 288000, Note_on_c, 9, 42, 95
5, 288000, Note_on_c, 9, 36, 95
5, 288480, Note_off_c, 9, 42, 95
5, 288480, Note_off_c, 9, 36, 95
5, 288480, Note_on_c, 9, 42, 95
5, 288960, Note_off_c, 9, 42, 95
5, 288960, Note_on_c, 9, 42, 95
5, 288960, Note_on_c, 9, 38, 95
5, 289440, Note_off_c, 9, 42, 95
5, 289440, Note_off_c, 9, 38, 95
5, 289440, Note_on_c, 9, 42, 95
5, 289920, Note_off_c, 9, 42, 95
5, 289920, Note_on_c, 9, 42, 95
5, 289920, Note_on_c, 9, 36, 95
5, 290400, Note_off_c, 9, 42, 95
5, 290400, Note_off_c, 9, 36, 95
5, 290400, Note_on_c, 9, 42, 95
5, 290400, Note_on_c, 9, 36, 95
5, 290880, Note_off_c, 9, 42, 95
5, 290880, Note_off_c, 9, 36, 95
5, 290880, Note_on_c, 9, 42, 95
5, 290880, Note_on_c, 9, 38, 95
5, 291360, Note_off_c, 9, 42, 95
5, 291360, Note_off_c, 9, 38, 95
5, 291360, Note_on_c, 9, 42, 95
5, 291360, Note_on_c, 9, 36, 95
5, 291840, Note_off_c, 9, 42, 95
5, 291840, Note_off_c, 9, 36, 95
5, 291840, Note_on_c, 9, 42, 95
5, 291840, Note_on_c, 9, 36, 95
5, 292320, Note_off_c, 9, 42, 95
5, 292320, Note_off_c, 9, 36, 95
5, 292320, Note_on_c, 9, 42, 95
5, 292800, Note_off_c, 9, 42, 95
5, 292800, Note_on_c, 9, 42, 95
5, 292800, Note_on_c, 9, 38, 95
5, 293280, Note_off_c, 9, 42, 95
5, 293280, Note_off_c, 9, 38, 95
5, 293280, Note_on_c, 9, 42, 95
5, 293760, Note_off_c, 9, 42, 95
5, 293760, Note_on_c, 9, 42, 95
5, 293760, Note_on_c, 9, 36, 95
5, 294240, Note_off_c, 9, 42, 95
5, 294240, Note_off_c, 9, 36, 95
5, 294240, Note_on_c, 9, 42, 95
5, 294240, Note_on_c, 9, 36, 95
5, 294720, Note_off_c, 9, 42, 95
5, 294720, Note_off_c, 9, 36, 95
5, 294720, Note_on_c, 9, 42, 95
5, 294720, Note_on_c, 9, 38, 95
5, 295200, Note_off_c, 9, 42, 95
5, 295200, Note_off_c, 9, 38, 95
5, 295200, Note_on_c, 9, 42, 95
5, 295200, Note_on_c, 9, 36, 95
5, 295680, Note_off_c, 9, 42, 95
5, 295680, Note_off_c, 9, 36, 95
5, 295680, Note_on_c, 9, 42, 95
5, 295680, Note_on_c, 9, 36, 95
5, 296160, Note_off_c, 9, 42, 95
5, 296160, Note_off_c, 9, 36, 95
5, 296160, Note_on_c, 9, 42, 95
5, 296640, Note_off_c, 9, 42, 95
5, 296640, Note_on_c, 9, 42, 95
5, 296640, Note_on_c, 9, 38, 95
5, 297120, Note_off_c, 9, 42, 95
5, 297120, Note_off_c, 9, 38, 95
5, 297120, Note_on_c, 9, 42, 95
5, 297600, Note_off_c, 9, 42, 95
5, 297600, Note_on_c, 9, 42, 95
5, 297600, Note_on_c, 9, 36, 95
5, 298080, Note_off_c, 9, 42, 95
5, 298080, Note_off_c, 9, 36, 95
5, 298080, Note_on_c, 9, 42, 95
5, 298080, Note_on_c, 9, 36, 95
5, 298560, Note_off_c, 9, 42, 95
5, 298560, Note_off_c, 9, 36, 95
5, 298560, Note_on_c, 9, 42, 95
5, 298560, Note_on_c, 9, 38, 95
5, 299040, Note_off_c, 9, 42, 95
5, 299040, Note_off_c, 9, 38, 95
5, 299040, Note_on_c, 9, 42, 95
5, 299040, Note_on_c, 9, 36, 95
5, 299520, Note_off_c, 9, 42, 95
5, 299520, Note_off_c, 9, 36, 95
5, 299520, Note_on_c, 9, 42, 95
5, 299520, Note_on_c, 9, 36, 95
5, 300000, Note_off_c, 9, 42, 95
5, 300000, Note_off_c, 9, 36, 95
5, 300000, Note_on_c, 9, 42, 95
5, 300480, Note_off_c, 9, 42, 95
5, 300480, Note_on_c, 9, 42, 95
5, 300480, Note_on_c, 9, 38, 95
5, 300960, Note_off_c, 9, 42, 95
5, 300960, Note_off_c, 9, 38, 95
5, 300960, Note_on_c, 9, 42, 95
5, 301440, Note_off_c, 9, 42, 95
5, 301440, Note_on_c, 9, 42, 95
5, 301440, Note_on_c, 9, 36, 95
5, 301920, Note_off_c, 9, 42, 95
5, 301920, Note_off_c, 9, 36, 95
5, 301920, Note_on_c, 9, 42, 95
5, 301920, Note_on_c, 9, 36, 95
5, 302400, Note_off_c, 9, 42, 95
5, 302400, Note_off_c, 9, 36, 95
5, 302400, Note_on_c, 9, 42, 95
5, 302400, Note_on_c, 9, 38, 95
5, 302880, Note_off_c, 9, 42, 95
5, 302880, Note_off_c, 9, 38, 95
5, 302880, Note_on_c, 9, 42, 95
5, 302880, Note_on_c, 9, 36, 95
5, 303360, Note_off_c, 9, 42, 95
5, 303360, Note_off_c, 9, 36, 95
5, 303360, Note_on_c, 9, 42, 95
5, 303360, Note_on_c, 9, 36, 95
5, 303840, Note_off_c, 9, 42, 95
5, 303840, Note_off_c, 9, 36, 95
5, 303840, Note_on_c, 9, 42, 95
5, 304320, Note_off_c, 9, 42, 95
5, 304320, Note_on_c, 9, 42, 95
5, 304320, Note_on_c, 9, 38, 95
5, 304800, Note_off_c, 9, 42, 95
5, 304800, Note_off_c, 9, 38, 95
5, 304800, Note_on_c, 9, 42, 95
5, 305280, Note_off_c, 9, 42, 95
5, 305280, Note_on_c, 9, 42, 95
5, 305280, Note_on_c, 9, 36, 95
5, 305760, Note_off_c, 9, 42, 95
5, 305760, Note_off_c, 9, 36, 95
5, 305760, Note_on_c, 9, 42, 95
5, 305760, Note_on_c, 9, 36, 95
5, 306240, Note_off_c, 9, 42, 95
5, 306240, Note_off_c, 9, 36, 95
5, 306240, Note_on_c, 9, 42, 95
5, 306240, Note_on_c, 9, 38, 95
5, 306720, Note_off_c, 9, 42, 95
5, 306720, Note_off_c, 9, 38, 95
5, 306720, Note_on_c, 9, 42, 95
5, 306720, Note_on_c, 9, 36, 95
5, 307200, Note_off_c, 9, 42, 95
5, 307200, Note_off_c, 9, 36, 95
5, 307200, Note_on_c, 9, 42, 95
5, 307200, Note_on_c, 9, 36, 95
5, 307680, Note_off_c, 9, 42, 95
5, 307680, Note_off_c, 9, 36, 95
5, 307680, Note_on_c, 9, 42, 95
5, 308160, Note_off_c, 9, 42, 95
5, 308160, Note_on_c, 9, 42, 95
5, 308160, Note_on_c, 9, 38, 95
5, 308640, Note_off_c, 9, 42, 95
5, 308640, Note_off_c, 9, 38, 95
5, 308640, Note_on_c, 9, 42, 95
5, 309120, Note_off_c, 9, 42, 95
5, 309120, Note_on_c, 9, 42, 95
5, 309120, Note_on_c, 9, 36, 95
5, 309600, Note_off_c, 9, 42, 95
5, 309600, Note_off_c, 9, 36, 95
5, 309600, Note_on_c, 9, 42, 95
5, 309600, Note_on_c, 9, 36, 95
5, 310080, Note_off_c, 9, 42, 95
5, 310080, Note_off_c, 9, 36, 95
5, 310080, Note_on_c, 9, 42, 95
5, 310080, Note_on_c, 9, 38, 95
5, 310560, Note_off_c, 9, 42, 95
5, 310560, Note_off_c, 9, 38, 95
5, 310560, Note_on_c, 9, 42, 95
5, 310560, Note_on_c, 9, 36, 95
5, 311040, Note_off_c, 9, 42, 95
5, 311040, Note_off_c, 9, 36, 95
5, 311040, Note_on_c, 9, 42, 95
5, 311040, Note_on_c, 9, 36, 95
5, 311520, Note_off_c, 9, 42, 95
5, 311520, Note_off_c, 9, 36, 95
5, 311520, Note_on_c, 9, 42, 95
5, 312000, Note_off_c, 9, 42, 95
5, 312000, Note_on_c, 9, 42, 95
5, 312480, Note_off_c, 9, 42, 95
5, 312480, Note_on_c, 9, 42, 95
5, 312480, Note_on_c, 9, 36, 95
5, 312960, Note_off_c, 9, 42, 95
5, 312960, Note_off_c, 9, 36, 95
5, 312960, Note_on_c, 9, 42, 95
5, 312960, Note_on_c, 9, 36, 95
5, 313440, Note_off_c, 9, 42, 95
5, 313440, Note_off_c, 9, 36, 95
5, 313440, Note_on_c, 9, 42, 95
5, 313920, Note_off_c, 9, 42, 95
5, 313920, Note_on_c, 9, 38, 95
5, 314160, Note_off_c, 9, 38, 95
5, 314160, Note_on_c, 9, 38, 95
5, 314400, Note_off_c, 9, 38, 95
5, 314400, Note_on_c, 9, 38, 95
5, 314640, Note_off_c, 9, 38, 95
5, 314640, Note_on_c, 9, 38, 95
5, 314880, Note_off_c, 9, 38, 95
5, 314880, Note_on_c, 9, 57, 95
5, 314880, Note_on_c, 9, 36, 95
5, 315360, Note_off_c, 9, 57, 95
5, 315360, Note_off_c, 9, 36, 95
5, 315360, Note_on_c, 9, 42, 95
5, 315840, Note_off_c, 9, 42, 95
5, 315840, Note_on_c, 9, 42, 95
5, 315840, Note_on_c, 9, 38, 95
5, 316320, Note_off_c, 9, 42, 95
5, 316320, Note_off_c, 9, 38, 95
5, 316320, Note_on_c, 9, 42, 95
5, 316800, Note_off_c, 9, 42, 95
5, 316800, Note_on_c, 9, 42, 95
5, 316800, Note_on_c, 9, 36, 95
5, 317280, Note_off_c, 9, 42, 95
5, 317280, Note_off_c, 9, 36, 95
5, 317280, Note_on_c, 9, 42, 95
5, 317760, Note_off_c, 9, 42, 95
5, 317760, Note_on_c, 9, 42, 95
5, 317760, Note_on_c, 9, 38, 95
5, 318240, Note_off_c, 9, 42, 95
5, 318240, Note_off_c, 9, 38, 95
5, 318240, Note_on_c, 9, 42, 95
5, 318240, Note_on_c, 9, 36, 95
5, 318720, Note_off_c, 9, 42, 95
5, 318720, Note_off_c, 9, 36, 95
5, 318720, Note_on_c, 9, 42, 95
5, 318720, Note_on_c, 9, 36, 95
5, 319200, Note_off_c, 9, 42, 95
5, 319200, Note_off_c, 9, 36, 95
5, 319200, Note_on_c, 9, 42, 95
5, 319680, Note_off_c, 9, 42, 95
5, 319680, Note_on_c, 9, 42, 95
5, 319680, Note_on_c, 9, 38, 95
5, 320160, Note_off_c, 9, 42, 95
5, 320160, Note_off_c, 9, 38, 95
5, 320160, Note_on_c, 9, 42, 95
5, 320640, Note_off_c, 9, 42, 95
5, 320640, Note_on_c, 9, 42, 95
5, 320640, Note_on_c, 9, 36, 95
5, 321120, Note_off_c, 9, 42, 95
5, 321120, Note_off_c, 9, 36, 95
5, 321120, Note_on_c, 9, 42, 95
5, 321120, Note_on_c, 9, 36, 95
5, 321600, Note_off_c, 9, 42, 95
5, 321600, Note_off_c, 9, 36, 95
5, 321600, Note_on_c, 9, 42, 95
5, 321600, Note_on_c, 9, 38, 95
5, 322080, Note_off_c, 9, 42, 95
5, 322080, Note_off_c, 9, 38, 95
5, 322080, Note_on_c, 9, 42, 95
5, 322080, Note_on_c, 9, 36, 95
5, 322560, Note_off_c, 9, 42, 95
5, 322560, Note_off_c, 9, 36, 95
5, 322560, Note_on_c, 9, 42, 95
5, 322560, Note_on_c, 9, 36, 95
5, 323040, Note_off_c, 9, 42, 95
5, 323040, Note_off_c, 9, 36, 95
5, 323040, Note_on_c, 9, 42, 95
5, 323520, Note_off_c, 9, 42, 95
5, 323520, Note_on_c, 9, 42, 95
5, 323520, Note_on_c, 9, 38, 95
5, 324000, Note_off_c, 9, 42, 95
5, 324000, Note_off_c, 9, 38, 95
5, 324000, Note_on_c, 9, 42, 95
5, 324480, Note_off_c, 9, 42, 95
5, 324480, Note_on_c, 9, 42, 95
5, 324480, Note_on_c, 9, 36, 95
5, 324960, Note_off_c, 9, 42, 95
5, 324960, Note_off_c, 9, 36, 95
5, 324960, Note_on_c, 9, 42, 95
5, 324960, Note_on_c, 9, 36, 95
5, 325440, Note_off_c, 9, 42, 95
5, 325440, Note_off_c, 9, 36, 95
5, 325440, Note_on_c, 9, 42, 95
5, 325440, Note_on_c, 9, 38, 95
5, 325920, Note_off_c, 9, 42, 95
5, 325920, Note_off_c, 9, 38, 95
5, 325920, Note_on_c, 9, 42, 95
5, 325920, Note_on_c, 9, 36, 95
5, 326400, Note_off_c, 9, 42, 95
5, 326400, Note_off_c, 9, 36, 95
5, 326400, Note_on_c, 9, 42, 95
5, 326400, Note_on_c, 9, 36, 95
5, 326880, Note_off_c, 9, 42, 95
5, 326880, Note_off_c, 9, 36, 95
5, 326880, Note_on_c, 9, 42, 95
5, 327360, Note_off_c, 9, 42, 95
5, 327360, Note_on_c, 9, 42, 95
5, 327360, Note_on_c, 9, 38, 95
5, 327840, Note_off_c, 9, 42, 95
5, 327840, Note_off_c, 9, 38, 95
5, 327840, Note_on_c, 9, 42, 95
5, 328320, Note_off_c, 9, 42, 95
5, 328320, Note_on_c, 9, 42, 95
5, 328320, Note_on_c, 9, 36, 95
5, 328800, Note_off_c, 9, 42, 95
5, 328800, Note_off_c, 9, 36, 95
5, 328800, Note_on_c, 9, 42, 95
5, 328800, Note_on_c, 9, 36, 95
5, 329280, Note_off_c, 9, 42, 95
5, 329280, Note_off_c, 9, 36, 95
5, 329280, Note_on_c, 9, 42, 95
5, 329280, Note_on_c, 9, 38, 95
5, 329760, Note_off_c, 9, 42, 95
5, 329760, Note_off_c, 9, 38, 95
5, 329760, Note_on_c, 9, 42, 95
5, 329760, Note_on_c, 9, 36, 95
5, 330240, Note_off_c, 9, 42, 95
5, 330240, Note_off_c, 9, 36, 95
5, 330240, Note_on_c, 9, 42, 95
5, 330240, Note_on_c, 9, 36, 95
5, 330720, Note_off_c, 9, 42, 95
5, 330720, Note_off_c, 9, 36, 95
5, 330720, Note_on_c, 9, 42, 95
5, 331200, Note_off_c, 9, 42, 95
5, 331200, Note_on_c, 9, 42, 95
5, 331200, Note_on_c, 9, 38, 95
5, 331680, Note_off_c, 9, 42, 95
5, 331680, Note_off_c, 9, 38, 95
5, 331680, Note_on_c, 9, 42, 95
5, 332160, Note_off_c, 9, 42, 95
5, 332160, Note_on_c, 9, 42, 95
5, 332160, Note_on_c, 9, 36, 95
5, 332640, Note_off_c, 9, 42, 95
5, 332640, Note_off_c, 9, 36, 95
5, 332640, Note_on_c, 9, 42, 95
5, 332640, Note_on_c, 9, 36, 95
5, 333120, Note_off_c, 9, 42, 95
5, 333120, Note_off_c, 9, 36, 95
5, 333120, Note_on_c, 9, 42, 95
5, 333120, Note_on_c, 9, 38, 95
5, 333600, Note_off_c, 9, 42, 95
5, 333600, Note_off_c, 9, 38, 95
5, 333600, Note_on_c, 9, 42, 95
5, 333600, Note_on_c, 9, 36, 95
5, 334080, Note_off_c, 9, 42, 95
5, 334080, Note_off_c, 9, 36, 95
5, 334080, Note_on_c, 9, 42, 95
5, 334080, Note_on_c, 9, 36, 95
5, 334560, Note_off_c, 9, 42, 95
5, 334560, Note_off_c, 9, 36, 95
5, 334560, Note_on_c, 9, 42, 95
5, 335040, Note_off_c, 9, 42, 95
5, 335040, Note_on_c, 9, 42, 95
5, 335040, Note_on_c, 9, 38, 95
5, 335520, Note_off_c, 9, 42, 95
5, 335520, Note_off_c, 9, 38, 95
5, 335520, Note_on_c, 9, 42, 95
5, 336000, Note_off_c, 9, 42, 95
5, 336000, Note_on_c, 9, 42, 95
5, 336000, Note_on_c, 9, 36, 95
5, 336480, Note_off_c, 9, 42, 95
5, 336480, Note_off_c, 9, 36, 95
5, 336480, Note_on_c, 9, 42, 95
5, 336480, Note_on_c, 9, 36, 95
5, 336960, Note_off_c, 9, 42, 95
5, 336960, Note_off_c, 9, 36, 95
5, 336960, Note_on_c, 9, 42, 95
5, 336960, Note_on_c, 9, 38, 95
5, 337440, Note_off_c, 9, 42, 95
5, 337440, Note_off_c, 9, 38, 95
5, 337440, Note_on_c, 9, 42, 95
5, 337440, Note_on_c, 9, 36, 95
5, 337920, Note_off_c, 9, 42, 95
5, 337920, Note_off_c, 9, 36, 95
5, 337920, Note_on_c, 9, 42, 95
5, 337920, Note_on_c, 9, 36, 95
5, 338400, Note_off_c, 9, 42, 95
5, 338400, Note_off_c, 9, 36, 95
5, 338400, Note_on_c, 9, 42, 95
5, 338880, Note_off_c, 9, 42, 95
5, 338880, Note_on_c, 9, 42, 95
5, 338880, Note_on_c, 9, 38, 95
5, 339360, Note_off_c, 9, 42, 95
5, 339360, Note_off_c, 9, 38, 95
5, 339360, Note_on_c, 9, 42, 95
5, 339840, Note_off_c, 9, 42, 95
5, 339840, Note_on_c, 9, 42, 95
5, 339840, Note_on_c, 9, 36, 95
5, 340320, Note_off_c, 9, 42, 95
5, 340320, Note_off_c, 9, 36, 95
5, 340320, Note_on_c, 9, 42, 95
5, 340320, Note_on_c, 9, 36, 95
5, 340800, Note_off_c, 9, 42, 95
5, 340800, Note_off_c, 9, 36, 95
5, 340800, Note_on_c, 9, 42, 95
5, 340800, Note_on_c, 9, 38, 95
5, 341280, Note_off_c, 9, 42, 95
5, 341280, Note_off_c, 9, 38, 95
5, 341280, Note_on_c, 9, 42, 95
5, 341280, Note_on_c, 9, 36, 95
5, 341760, Note_off_c, 9, 42, 95
5, 341760, Note_off_c, 9, 36, 95
5, 341760, Note_on_c, 9, 42, 95
5, 341760, Note_on_c, 9, 36, 95
5, 342240, Note_off_c, 9, 42, 95
5, 342240, Note_off_c, 9, 36, 95
5, 342240, Note_on_c, 9, 42, 95
5, 342720, Note_off_c, 9, 42, 95
5, 342720, Note_on_c, 9, 42, 95
5, 343200, Note_off_c, 9, 42, 95
5, 343200, Note_on_c, 9, 42, 95
5, 343200, Note_on_c, 9, 36, 95
5, 343680, Note_off_c, 9, 42, 95
5, 343680, Note_off_c, 9, 36, 95
5, 343680, Note_on_c, 9, 42, 95
5, 343680, Note_on_c, 9, 36, 95
5, 344160, Note_off_c, 9, 42, 95
5, 344160, Note_off_c, 9, 36, 95
5, 344160, Note_on_c, 9, 42, 95
5, 344640, Note_off_c, 9, 42, 95
5, 344640, Note_on_c, 9, 38, 95
5, 344880, Note_off_c, 9, 38, 95
5, 344880, Note_on_c, 9, 38, 95
5, 345120, Note_off_c, 9, 38, 95
5, 345120, Note_on_c, 9, 38, 95
5, 345360, Note_off_c, 9, 38, 95
5, 345360, Note_on_c, 9, 38, 95
5, 345600, Note_off_c, 9, 38, 95
5, 345600, End_track
6, 0, Start_track
6, 0, Pitch_bend_c, 6, 8192
6, 0, Control_c, 6, 7, 127
6, 0, Control_c, 6, 10, 63
6, 0, Control_c, 6, 93, 0
6, 0, Control_c, 6, 91, 0
6, 0, Control_c, 6, 95, 0
6, 0, Control_c, 6, 92, 0
6, 0, Control_c, 6, 11, 127
6, 0, Program_c, 6, 66
6, 0, Control_c, 7, 7, 127
6, 0, Control_c, 7, 10, 63
6, 0, Control_c, 7, 93, 0
6, 0, Control_c, 7, 91, 0
6, 0, Control_c, 7, 95, 0
6, 0, Control_c, 7, 92, 0
6, 0, Control_c, 7, 11, 127
6, 0, Program_c, 7, 66
6, 34560, Note_on_c, 6, 62, 95
6, 35040, Note_off_c, 6, 62, 95
6, 35040, Note_on_c, 6, 62, 95
6, 35520, Note_off_c, 6, 62, 95
6, 35520, Note_on_c, 6, 62, 95
6, 36000, Note_off_c, 6, 62, 95
6, 36000, Note_on_c, 6, 60, 95
6, 36480, Note_off_c, 6, 60, 95
6, 36480, Note_on_c, 6, 62, 95
6, 36960, Note_off_c, 6, 62, 95
6, 36960, Note_on_c, 6, 59, 95
6, 37440, Note_off_c, 6, 59, 95
6, 37920, Note_on_c, 6, 62, 95
6, 38400, Note_off_c, 6, 62, 95
6, 38400, Note_on_c, 6, 62, 95
6, 38880, Note_off_c, 6, 62, 95
6, 38880, Note_on_c, 6, 62, 95
6, 39360, Note_off_c, 6, 62, 95
6, 39360, Note_on_c, 6, 62, 95
6, 39840, Note_off_c, 6, 62, 95
6, 39840, Note_on_c, 6, 62, 95
6, 40320, Note_off_c, 6, 62, 95
6, 40320, Note_on_c, 6, 58, 95
6, 40800, Note_off_c, 6, 58, 95
6, 40800, Note_on_c, 6, 59, 95
6, 41280, Note_off_c, 6, 59, 95
6, 42240, Note_on_c, 6, 62, 95
6, 42720, Note_off_c, 6, 62, 95
6, 42720, Note_on_c, 6, 62, 95
6, 43200, Note_off_c, 6, 62, 95
6, 43200, Note_on_c, 6, 62, 95
6, 43680, Note_off_c, 6, 62, 95
6, 43680, Note_on_c, 6, 62, 95
6, 44160, Note_off_c, 6, 62, 95
6, 44160, Note_on_c, 6, 64, 95
6, 45120, Note_off_c, 6, 64, 95
6, 45120, Note_on_c, 6, 59, 95
6, 45600, Note_off_c, 6, 59, 95
6, 45600, Note_on_c, 6, 59, 95
6, 46080, Note_off_c, 6, 59, 95
6, 46080, Note_on_c, 6, 57, 95
6, 48000, Note_off_c, 6, 57, 95
6, 48960, Note_on_c, 6, 60, 95
6, 49440, Note_off_c, 6, 60, 95
6, 49440, Note_on_c, 6, 60, 95
6, 49920, Note_off_c, 6, 60, 95
6, 49920, Note_on_c, 6, 60, 95
6, 50400, Note_off_c, 6, 60, 95
6, 50400, Note_on_c, 6, 60, 95
6, 50880, Note_off_c, 6, 60, 95
6, 50880, Note_on_c, 6, 60, 95
6, 51360, Note_off_c, 6, 60, 95
6, 51360, Note_on_c, 6, 60, 95
6, 51840, Note_off_c, 6, 60, 95
6, 51840, Note_on_c, 6, 60, 95
6, 52320, Note_off_c, 6, 60, 95
6, 52320, Note_on_c, 6, 57, 95
6, 52800, Note_off_c, 6, 57, 95
6, 52800, Note_on_c, 6, 60, 95
6, 53280, Note_off_c, 6, 60, 95
6, 53280, Note_on_c, 6, 60, 95
6, 53760, Note_off_c, 6, 60, 95
6, 53760, Note_on_c, 6, 60, 95
6, 54240, Note_off_c, 6, 60, 95
6, 54240, Note_on_c, 6, 60, 95
6, 54720, Note_off_c, 6, 60, 95
6, 54720, Note_on_c, 6, 60, 95
6, 55200, Note_off_c, 6, 60, 95
6, 55200, Note_on_c, 6, 60, 95
6, 55680, Note_off_c, 6, 60, 95
6, 55680, Note_on_c, 6, 60, 95
6, 56160, Note_off_c, 6, 60, 95
6, 56160, Note_on_c, 6, 57, 95
6, 56640, Note_off_c, 6, 57, 95
6, 57120, Note_on_c, 6, 57, 95
6, 57600, Note_off_c, 6, 57, 95
6, 57600, Note_on_c, 6, 62, 95
6, 58080, Note_off_c, 6, 62, 95
6, 58080, Note_on_c, 6, 62, 95
6, 58560, Note_off_c, 6, 62, 95
6, 58560, Note_on_c, 6, 62, 95
6, 59520, Note_off_c, 6, 62, 95
6, 59520, Note_on_c, 6, 59, 95
6, 60000, Note_off_c, 6, 59, 95
6, 60000, Note_on_c, 6, 57, 95
6, 60480, Note_off_c, 6, 57, 95
6, 60480, Note_on_c, 6, 55, 95
6, 60960, Note_off_c, 6, 55, 95
6, 60960, Note_on_c, 6, 55, 95
6, 63360, Note_off_c, 6, 55, 95
6, 64800, Note_on_c, 6, 62, 95
6, 65280, Note_off_c, 6, 62, 95
6, 65280, Note_on_c, 6, 62, 95
6, 65760, Note_off_c, 6, 62, 95
6, 65760, Note_on_c, 6, 62, 95
6, 66240, Note_off_c, 6, 62, 95
6, 66240, Note_on_c, 6, 62, 95
6, 66720, Note_off_c, 6, 62, 95
6, 66720, Note_on_c, 6, 60, 95
6, 67200, Note_off_c, 6, 60, 95
6, 67200, Note_on_c, 6, 62, 95
6, 67680, Note_off_c, 6, 62, 95
6, 67680, Note_on_c, 6, 59, 95
6, 68160, Note_off_c, 6, 59, 95
6, 68640, Note_on_c, 6, 55, 95
6, 69120, Note_off_c, 6, 55, 95
6, 69120, Note_on_c, 6, 62, 95
6, 69600, Note_off_c, 6, 62, 95
6, 69600, Note_on_c, 6, 62, 95
6, 70080, Note_off_c, 6, 62, 95
6, 70080, Note_on_c, 6, 62, 95
6, 70560, Note_off_c, 6, 62, 95
6, 70560, Note_on_c, 6, 60, 95
6, 71040, Note_off_c, 6, 60, 95
6, 71040, Note_on_c, 6, 62, 95
6, 71520, Note_off_c, 6, 62, 95
6, 71520, Note_on_c, 6, 59, 95
6, 72000, Note_off_c, 6, 59, 95
6, 72000, Note_on_c, 6, 59, 95
6, 72480, Note_off_c, 6, 59, 95
6, 72480, Note_on_c, 6, 60, 95
6, 72960, Note_off_c, 6, 60, 95
6, 72960, Note_on_c, 6, 62, 95
6, 73440, Note_off_c, 6, 62, 95
6, 73440, Note_on_c, 6, 62, 95
6, 73920, Note_off_c, 6, 62, 95
6, 73920, Note_on_c, 6, 62, 95
6, 74400, Note_off_c, 6, 62, 95
6, 74400, Note_on_c, 6, 62, 95
6, 74880, Note_off_c, 6, 62, 95
6, 74880, Note_on_c, 6, 64, 95
6, 75840, Note_off_c, 6, 64, 95
6, 75840, Note_on_c, 6, 59, 95
6, 76320, Note_off_c, 6, 59, 95
6, 76320, Note_on_c, 6, 59, 95
6, 76800, Note_off_c, 6, 59, 95
6, 76800, Note_on_c, 6, 57, 95
6, 78720, Note_off_c, 6, 57, 95
6, 79680, Note_on_c, 6, 57, 95
6, 80160, Note_off_c, 6, 57, 95
6, 80160, Note_on_c, 6, 59, 95
6, 80640, Note_off_c, 6, 59, 95
6, 80640, Note_on_c, 6, 60, 95
6, 81120, Note_off_c, 6, 60, 95
6, 81120, Note_on_c, 6, 60, 95
6, 81600, Note_off_c, 6, 60, 95
6, 81600, Note_on_c, 6, 60, 95
6, 82080, Note_off_c, 6, 60, 95
6, 82080, Note_on_c, 6, 60, 95
6, 82560, Note_off_c, 6, 60, 95
6, 82560, Note_on_c, 6, 60, 95
6, 83040, Note_off_c, 6, 60, 95
6, 83040, Note_on_c, 6, 57, 95
6, 83520, Note_off_c, 6, 57, 95
6, 83520, Note_on_c, 6, 59, 95
6, 84000, Note_off_c, 6, 59, 95
6, 84000, Note_on_c, 6, 60, 95
6, 84480, Note_off_c, 6, 60, 95
6, 84480, Note_on_c, 6, 60, 95
6, 85120, Note_off_c, 6, 60, 95
6, 85120, Note_on_c, 6, 60, 95
6, 85760, Note_off_c, 6, 60, 95
6, 85760, Note_on_c, 6, 60, 95
6, 86400, Note_off_c, 6, 60, 95
6, 86400, Note_on_c, 6, 60, 95
6, 87360, Note_off_c, 6, 60, 95
6, 87360, Note_on_c, 6, 62, 95
6, 88320, Note_off_c, 6, 62, 95
6, 88320, Note_on_c, 6, 62, 95
6, 88800, Note_off_c, 6, 62, 95
6, 88800, Note_on_c, 6, 62, 95
6, 89280, Note_off_c, 6, 62, 95
6, 89280, Note_on_c, 6, 62, 95
6, 90240, Note_off_c, 6, 62, 95
6, 90240, Note_on_c, 6, 59, 95
6, 90720, Note_off_c, 6, 59, 95
6, 90720, Note_on_c, 6, 57, 95
6, 91200, Note_off_c, 6, 57, 95
6, 91200, Note_on_c, 6, 55, 95
6, 91680, Note_off_c, 6, 55, 95
6, 91680, Note_on_c, 6, 55, 95
6, 94080, Note_off_c, 6, 55, 95
6, 96000, Note_on_c, 6, 67, 95
6, 96000, Note_on_c, 6, 62, 95
6, 96480, Note_off_c, 6, 67, 95
6, 96480, Note_off_c, 6, 62, 95
6, 96480, Note_on_c, 6, 67, 95
6, 96480, Note_on_c, 6, 62, 95
6, 96960, Note_off_c, 6, 67, 95
6, 96960, Note_off_c, 6, 62, 95
6, 96960, Note_on_c, 6, 67, 95
6, 96960, Note_on_c, 6, 62, 95
6, 97920, Note_off_c, 6, 67, 95
6, 97920, Note_off_c, 6, 62, 95
6, 97920, Note_on_c, 6, 67, 95
6, 97920, Note_on_c, 6, 62, 95
6, 98880, Note_off_c, 6, 67, 95
6, 98880, Note_off_c, 6, 62, 95
6, 98880, Note_on_c, 6, 64, 95
6, 98880, Note_on_c, 6, 59, 95
6, 99360, Note_off_c, 6, 64, 95
6, 99360, Note_off_c, 6, 59, 95
6, 99360, Note_on_c, 6, 67, 95
6, 99360, Note_on_c, 6, 62, 95
6, 100800, Note_off_c, 6, 67, 95
6, 100800, Note_off_c, 6, 62, 95
6, 103680, Note_on_c, 6, 67, 95
6, 103680, Note_on_c, 6, 62, 95
6, 104160, Note_off_c, 6, 67, 95
6, 104160, Note_off_c, 6, 62, 95
6, 104160, Note_on_c, 6, 67, 95
6, 104160, Note_on_c, 6, 62, 95
6, 104640, Note_off_c, 6, 67, 95
6, 104640, Note_off_c, 6, 62, 95
6, 104640, Note_on_c, 6, 67, 95
6, 104640, Note_on_c, 6, 62, 95
6, 105600, Note_off_c, 6, 67, 95
6, 105600, Note_off_c, 6, 62, 95
6, 105600, Note_on_c, 6, 67, 95
6, 105600, Note_on_c, 6, 62, 95
6, 106560, Note_off_c, 6, 67, 95
6, 106560, Note_off_c, 6, 62, 95
6, 106560, Note_on_c, 6, 67, 95
6, 106560, Note_on_c, 6, 62, 95
6, 107040, Note_off_c, 6, 67, 95
6, 107040, Note_off_c, 6, 62, 95
6, 107040, Note_on_c, 6, 64, 95
6, 107040, Note_on_c, 6, 59, 95
6, 108480, Note_off_c, 6, 64, 95
6, 108480, Note_off_c, 6, 59, 95
6, 111360, Note_on_c, 6, 60, 95
6, 111840, Note_off_c, 6, 60, 95
6, 111840, Note_on_c, 6, 60, 95
6, 112320, Note_off_c, 6, 60, 95
6, 112320, Note_on_c, 6, 60, 95
6, 112800, Note_off_c, 6, 60, 95
6, 112800, Note_on_c, 6, 60, 95
6, 113280, Note_off_c, 6, 60, 95
6, 113280, Note_on_c, 6, 59, 95
6, 113760, Note_off_c, 6, 59, 95
6, 113760, Note_on_c, 6, 57, 95
6, 114240, Note_off_c, 6, 57, 95
6, 114240, Note_on_c, 6, 59, 95
6, 114720, Note_off_c, 6, 59, 95
6, 114720, Note_on_c, 6, 59, 95
6, 115200, Note_off_c, 6, 59, 95
6, 115200, Note_on_c, 6, 60, 95
6, 115680, Note_off_c, 6, 60, 95
6, 115680, Note_on_c, 6, 60, 95
6, 116160, Note_off_c, 6, 60, 95
6, 116160, Note_on_c, 6, 60, 95
6, 116640, Note_off_c, 6, 60, 95
6, 116640, Note_on_c, 6, 60, 95
6, 117120, Note_off_c, 6, 60, 95
6, 117120, Note_on_c, 6, 59, 95
6, 117600, Note_off_c, 6, 59, 95
6, 117600, Note_on_c, 6, 57, 95
6, 118080, Note_off_c, 6, 57, 95
6, 161280, Note_on_c, 6, 62, 95
6, 161760, Note_off_c, 6, 62, 95
6, 161760, Note_on_c, 6, 62, 95
6, 162240, Note_off_c, 6, 62, 95
6, 162240, Note_on_c, 6, 62, 95
6, 162720, Note_off_c, 6, 62, 95
6, 162720, Note_on_c, 6, 60, 95
6, 163200, Note_off_c, 6, 60, 95
6, 163200, Note_on_c, 6, 62, 95
6, 163680, Note_off_c, 6, 62, 95
6, 163680, Note_on_c, 6, 59, 95
6, 164160, Note_off_c, 6, 59, 95
6, 164640, Note_on_c, 6, 62, 95
6, 165120, Note_off_c, 6, 62, 95
6, 165120, Note_on_c, 6, 62, 95
6, 165600, Note_off_c, 6, 62, 95
6, 165600, Note_on_c, 6, 62, 95
6, 166080, Note_off_c, 6, 62, 95
6, 166080, Note_on_c, 6, 62, 95
6, 166560, Note_off_c, 6, 62, 95
6, 166560, Note_on_c, 6, 62, 95
6, 167040, Note_off_c, 6, 62, 95
6, 167040, Note_on_c, 6, 58, 95
6, 167520, Note_off_c, 6, 58, 95
6, 167520, Note_on_c, 6, 59, 95
6, 168000, Note_off_c, 6, 59, 95
6, 168960, Note_on_c, 6, 62, 95
6, 169440, Note_off_c, 6, 62, 95
6, 169440, Note_on_c, 6, 62, 95
6, 169920, Note_off_c, 6, 62, 95
6, 169920, Note_on_c, 6, 62, 95
6, 170400, Note_off_c, 6, 62, 95
6, 170400, Note_on_c, 6, 62, 95
6, 170880, Note_off_c, 6, 62, 95
6, 170880, Note_on_c, 6, 64, 95
6, 171840, Note_off_c, 6, 64, 95
6, 171840, Note_on_c, 6, 59, 95
6, 172320, Note_off_c, 6, 59, 95
6, 172320, Note_on_c, 6, 59, 95
6, 172800, Note_off_c, 6, 59, 95
6, 172800, Note_on_c, 6, 57, 95
6, 174720, Note_off_c, 6, 57, 95
6, 175680, Note_on_c, 6, 60, 95
6, 176160, Note_off_c, 6, 60, 95
6, 176160, Note_on_c, 6, 60, 95
6, 176640, Note_off_c, 6, 60, 95
6, 176640, Note_on_c, 6, 60, 95
6, 177120, Note_off_c, 6, 60, 95
6, 177120, Note_on_c, 6, 60, 95
6, 177600, Note_off_c, 6, 60, 95
6, 177600, Note_on_c, 6, 60, 95
6, 178080, Note_off_c, 6, 60, 95
6, 178080, Note_on_c, 6, 60, 95
6, 178560, Note_off_c, 6, 60, 95
6, 178560, Note_on_c, 6, 60, 95
6, 179040, Note_off_c, 6, 60, 95
6, 179040, Note_on_c, 6, 57, 95
6, 179520, Note_off_c, 6, 57, 95
6, 179520, Note_on_c, 6, 60, 95
6, 180000, Note_off_c, 6, 60, 95
6, 180000, Note_on_c, 6, 60, 95
6, 180480, Note_off_c, 6, 60, 95
6, 180480, Note_on_c, 6, 60, 95
6, 180960, Note_off_c, 6, 60, 95
6, 180960, Note_on_c, 6, 60, 95
6, 181440, Note_off_c, 6, 60, 95
6, 181440, Note_on_c, 6, 60, 95
6, 181920, Note_off_c, 6, 60, 95
6, 181920, Note_on_c, 6, 60, 95
6, 182400, Note_off_c, 6, 60, 95
6, 182400, Note_on_c, 6, 60, 95
6, 182880, Note_off_c, 6, 60, 95
6, 182880, Note_on_c, 6, 57, 95
6, 183360, Note_off_c, 6, 57, 95
6, 183840, Note_on_c, 6, 57, 95
6, 184320, Note_off_c, 6, 57, 95
6, 184320, Note_on_c, 6, 62, 95
6, 184800, Note_off_c, 6, 62, 95
6, 184800, Note_on_c, 6, 62, 95
6, 185280, Note_off_c, 6, 62, 95
6, 185280, Note_on_c, 6, 62, 95
6, 186240, Note_off_c, 6, 62, 95
6, 186240, Note_on_c, 6, 59, 95
6, 186720, Note_off_c, 6, 59, 95
6, 186720, Note_on_c, 6, 57, 95
6, 187200, Note_off_c, 6, 57, 95
6, 187200, Note_on_c, 6, 55, 95
6, 187680, Note_off_c, 6, 55, 95
6, 187680, Note_on_c, 6, 55, 95
6, 190080, Note_off_c, 6, 55, 95
6, 191520, Note_on_c, 6, 62, 95
6, 192000, Note_off_c, 6, 62, 95
6, 192000, Note_on_c, 6, 62, 95
6, 192480, Note_off_c, 6, 62, 95
6, 192480, Note_on_c, 6, 62, 95
6, 192960, Note_off_c, 6, 62, 95
6, 192960, Note_on_c, 6, 62, 95
6, 193440, Note_off_c, 6, 62, 95
6, 193440, Note_on_c, 6, 60, 95
6, 193920, Note_off_c, 6, 60, 95
6, 193920, Note_on_c, 6, 62, 95
6, 194400, Note_off_c, 6, 62, 95
6, 194400, Note_on_c, 6, 59, 95
6, 194880, Note_off_c, 6, 59, 95
6, 195360, Note_on_c, 6, 55, 95
6, 195840, Note_off_c, 6, 55, 95
6, 195840, Note_on_c, 6, 62, 95
6, 196320, Note_off_c, 6, 62, 95
6, 196320, Note_on_c, 6, 62, 95
6, 196800, Note_off_c, 6, 62, 95
6, 196800, Note_on_c, 6, 62, 95
6, 197280, Note_off_c, 6, 62, 95
6, 197280, Note_on_c, 6, 60, 95
6, 197760, Note_off_c, 6, 60, 95
6, 197760, Note_on_c, 6, 62, 95
6, 198240, Note_off_c, 6, 62, 95
6, 198240, Note_on_c, 6, 59, 95
6, 198720, Note_off_c, 6, 59, 95
6, 198720, Note_on_c, 6, 59, 95
6, 199200, Note_off_c, 6, 59, 95
6, 199200, Note_on_c, 6, 60, 95
6, 199680, Note_off_c, 6, 60, 95
6, 199680, Note_on_c, 6, 62, 95
6, 200160, Note_off_c, 6, 62, 95
6, 200160, Note_on_c, 6, 62, 95
6, 200640, Note_off_c, 6, 62, 95
6, 200640, Note_on_c, 6, 62, 95
6, 201120, Note_off_c, 6, 62, 95
6, 201120, Note_on_c, 6, 62, 95
6, 201600, Note_off_c, 6, 62, 95
6, 201600, Note_on_c, 6, 64, 95
6, 202560, Note_off_c, 6, 64, 95
6, 202560, Note_on_c, 6, 59, 95
6, 203040, Note_off_c, 6, 59, 95
6, 203040, Note_on_c, 6, 59, 95
6, 203520, Note_off_c, 6, 59, 95
6, 203520, Note_on_c, 6, 57, 95
6, 205440, Note_off_c, 6, 57, 95
6, 206400, Note_on_c, 6, 57, 95
6, 206880, Note_off_c, 6, 57, 95
6, 206880, Note_on_c, 6, 59, 95
6, 207360, Note_off_c, 6, 59, 95
6, 207360, Note_on_c, 6, 60, 95
6, 207840, Note_off_c, 6, 60, 95
6, 207840, Note_on_c, 6, 60, 95
6, 208320, Note_off_c, 6, 60, 95
6, 208320, Note_on_c, 6, 60, 95
6, 208800, Note_off_c, 6, 60, 95
6, 208800, Note_on_c, 6, 60, 95
6, 209280, Note_off_c, 6, 60, 95
6, 209280, Note_on_c, 6, 60, 95
6, 209760, Note_off_c, 6, 60, 95
6, 209760, Note_on_c, 6, 57, 95
6, 210240, Note_off_c, 6, 57, 95
6, 210240, Note_on_c, 6, 59, 95
6, 210720, Note_off_c, 6, 59, 95
6, 210720, Note_on_c, 6, 60, 95
6, 211200, Note_off_c, 6, 60, 95
6, 211200, Note_on_c, 6, 60, 95
6, 211840, Note_off_c, 6, 60, 95
6, 211840, Note_on_c, 6, 60, 95
6, 212480, Note_off_c, 6, 60, 95
6, 212480, Note_on_c, 6, 60, 95
6, 213120, Note_off_c, 6, 60, 95
6, 213120, Note_on_c, 6, 60, 95
6, 214080, Note_off_c, 6, 60, 95
6, 214080, Note_on_c, 6, 62, 95
6, 215040, Note_off_c, 6, 62, 95
6, 215040, Note_on_c, 6, 62, 95
6, 215520, Note_off_c, 6, 62, 95
6, 215520, Note_on_c, 6, 62, 95
6, 216000, Note_off_c, 6, 62, 95
6, 216000, Note_on_c, 6, 62, 95
6, 216960, Note_off_c, 6, 62, 95
6, 216960, Note_on_c, 6, 59, 95
6, 217440, Note_off_c, 6, 59, 95
6, 217440, Note_on_c, 6, 57, 95
6, 217920, Note_off_c, 6, 57, 95
6, 217920, Note_on_c, 6, 55, 95
6, 218400, Note_off_c, 6, 55, 95
6, 218400, Note_on_c, 6, 55, 95
6, 220800, Note_off_c, 6, 55, 95
6, 222720, Note_on_c, 6, 67, 95
6, 222720, Note_on_c, 6, 62, 95
6, 223200, Note_off_c, 6, 67, 95
6, 223200, Note_off_c, 6, 62, 95
6, 223200, Note_on_c, 6, 67, 95
6, 223200, Note_on_c, 6, 62, 95
6, 223680, Note_off_c, 6, 67, 95
6, 223680, Note_off_c, 6, 62, 95
6, 223680, Note_on_c, 6, 67, 95
6, 223680, Note_on_c, 6, 62, 95
6, 224640, Note_off_c, 6, 67, 95
6, 224640, Note_off_c, 6, 62, 95
6, 224640, Note_on_c, 6, 67, 95
6, 224640, Note_on_c, 6, 62, 95
6, 225600, Note_off_c, 6, 67, 95
6, 225600, Note_off_c, 6, 62, 95
6, 225600, Note_on_c, 6, 64, 95
6, 225600, Note_on_c, 6, 59, 95
6, 226080, Note_off_c, 6, 64, 95
6, 226080, Note_off_c, 6, 59, 95
6, 226080, Note_on_c, 6, 67, 95
6, 226080, Note_on_c, 6, 62, 95
6, 227520, Note_off_c, 6, 67, 95
6, 227520, Note_off_c, 6, 62, 95
6, 230400, Note_on_c, 6, 67, 95
6, 230400, Note_on_c, 6, 62, 95
6, 230880, Note_off_c, 6, 67, 95
6, 230880, Note_off_c, 6, 62, 95
6, 230880, Note_on_c, 6, 67, 95
6, 230880, Note_on_c, 6, 62, 95
6, 231360, Note_off_c, 6, 67, 95
6, 231360, Note_off_c, 6, 62, 95
6, 231360, Note_on_c, 6, 67, 95
6, 231360, Note_on_c, 6, 62, 95
6, 232320, Note_off_c, 6, 67, 95
6, 232320, Note_off_c, 6, 62, 95
6, 232320, Note_on_c, 6, 67, 95
6, 232320, Note_on_c, 6, 62, 95
6, 233280, Note_off_c, 6, 67, 95
6, 233280, Note_off_c, 6, 62, 95
6, 233280, Note_on_c, 6, 67, 95
6, 233280, Note_on_c, 6, 62, 95
6, 233760, Note_off_c, 6, 67, 95
6, 233760, Note_off_c, 6, 62, 95
6, 233760, Note_on_c, 6, 64, 95
6, 233760, Note_on_c, 6, 59, 95
6, 235200, Note_off_c, 6, 64, 95
6, 235200, Note_off_c, 6, 59, 95
6, 238080, Note_on_c, 6, 60, 95
6, 238560, Note_off_c, 6, 60, 95
6, 238560, Note_on_c, 6, 60, 95
6, 239040, Note_off_c, 6, 60, 95
6, 239040, Note_on_c, 6, 60, 95
6, 239520, Note_off_c, 6, 60, 95
6, 239520, Note_on_c, 6, 60, 95
6, 240000, Note_off_c, 6, 60, 95
6, 240000, Note_on_c, 6, 59, 95
6, 240480, Note_off_c, 6, 59, 95
6, 240480, Note_on_c, 6, 57, 95
6, 240960, Note_off_c, 6, 57, 95
6, 240960, Note_on_c, 6, 59, 95
6, 241440, Note_off_c, 6, 59, 95
6, 241440, Note_on_c, 6, 59, 95
6, 241920, Note_off_c, 6, 59, 95
6, 241920, Note_on_c, 6, 60, 95
6, 242400, Note_off_c, 6, 60, 95
6, 242400, Note_on_c, 6, 60, 95
6, 242880, Note_off_c, 6, 60, 95
6, 242880, Note_on_c, 6, 60, 95
6, 243360, Note_off_c, 6, 60, 95
6, 243360, Note_on_c, 6, 60, 95
6, 243840, Note_off_c, 6, 60, 95
6, 243840, Note_on_c, 6, 59, 95
6, 244320, Note_off_c, 6, 59, 95
6, 244320, Note_on_c, 6, 57, 95
6, 244800, Note_off_c, 6, 57, 95
6, 253440, Note_on_c, 6, 67, 95
6, 253440, Note_on_c, 6, 62, 95
6, 253920, Note_off_c, 6, 67, 95
6, 253920, Note_off_c, 6, 62, 95
6, 253920, Note_on_c, 6, 67, 95
6, 253920, Note_on_c, 6, 62, 95
6, 254400, Note_off_c, 6, 67, 95
6, 254400, Note_off_c, 6, 62, 95
6, 254400, Note_on_c, 6, 67, 95
6, 254400, Note_on_c, 6, 62, 95
6, 255360, Note_off_c, 6, 67, 95
6, 255360, Note_off_c, 6, 62, 95
6, 255360, Note_on_c, 6, 67, 95
6, 255360, Note_on_c, 6, 62, 95
6, 256320, Note_off_c, 6, 67, 95
6, 256320, Note_off_c, 6, 62, 95
6, 256320, Note_on_c, 6, 64, 95
6, 256320, Note_on_c, 6, 59, 95
6, 256800, Note_off_c, 6, 64, 95
6, 256800, Note_off_c, 6, 59, 95
6, 256800, Note_on_c, 6, 67, 95
6, 256800, Note_on_c, 6, 62, 95
6, 258240, Note_off_c, 6, 67, 95
6, 258240, Note_off_c, 6, 62, 95
6, 261120, Note_on_c, 6, 67, 95
6, 261120, Note_on_c, 6, 62, 95
6, 261600, Note_off_c, 6, 67, 95
6, 261600, Note_off_c, 6, 62, 95
6, 261600, Note_on_c, 6, 67, 95
6, 261600, Note_on_c, 6, 62, 95
6, 262080, Note_off_c, 6, 67, 95
6, 262080, Note_off_c, 6, 62, 95
6, 262080, Note_on_c, 6, 67, 95
6, 262080, Note_on_c, 6, 62, 95
6, 263040, Note_off_c, 6, 67, 95
6, 263040, Note_off_c, 6, 62, 95
6, 263040, Note_on_c, 6, 67, 95
6, 263040, Note_on_c, 6, 62, 95
6, 264000, Note_off_c, 6, 67, 95
6, 264000, Note_off_c, 6, 62, 95
6, 264000, Note_on_c, 6, 67, 95
6, 264000, Note_on_c, 6, 62, 95
6, 264480, Note_off_c, 6, 67, 95
6, 264480, Note_off_c, 6, 62, 95
6, 264480, Note_on_c, 6, 64, 95
6, 264480, Note_on_c, 6, 59, 95
6, 265920, Note_off_c, 6, 64, 95
6, 265920, Note_off_c, 6, 59, 95
6, 268800, Note_on_c, 6, 60, 95
6, 269280, Note_off_c, 6, 60, 95
6, 269280, Note_on_c, 6, 60, 95
6, 269760, Note_off_c, 6, 60, 95
6, 269760, Note_on_c, 6, 60, 95
6, 270240, Note_off_c, 6, 60, 95
6, 270240, Note_on_c, 6, 60, 95
6, 270720, Note_off_c, 6, 60, 95
6, 270720, Note_on_c, 6, 59, 95
6, 271200, Note_off_c, 6, 59, 95
6, 271200, Note_on_c, 6, 57, 95
6, 271680, Note_off_c, 6, 57, 95
6, 271680, Note_on_c, 6, 59, 95
6, 272160, Note_off_c, 6, 59, 95
6, 272160, Note_on_c, 6, 59, 95
6, 272640, Note_off_c, 6, 59, 95
6, 272640, Note_on_c, 6, 60, 95
6, 273120, Note_off_c, 6, 60, 95
6, 273120, Note_on_c, 6, 60, 95
6, 273600, Note_off_c, 6, 60, 95
6, 273600, Note_on_c, 6, 60, 95
6, 274080, Note_off_c, 6, 60, 95
6, 274080, Note_on_c, 6, 60, 95
6, 274560, Note_off_c, 6, 60, 95
6, 274560, Note_on_c, 6, 59, 95
6, 275040, Note_off_c, 6, 59, 95
6, 275040, Note_on_c, 6, 57, 95
6, 275520, Note_off_c, 6, 57, 95
6, 275520, End_track
0, 0, End_of_file
