0, 0, Header, 1, 7, 192
1, 0, Start_track
1, 0, Title_t, "Tune Up"
1, 0, Text_t, "By Miles Davis"
1, 0, Copyright_t, "Copyright 1963 Prestige Music"
1, 0, Copyright_t, "All Rights Reserved"
1, 0, Text_t, "Generated by NoteWorthy Composer"
1, 0, Tempo, 214285
1, 0, Key_signature, 2, "major"
1, 0, Time_signature, 4, 2, 24, 8
1, 0, End_track
2, 0, Start_track
2, 0, MIDI_port, 0
2, 0, Title_t, "Bass    (BB)"
2, 0, Program_c, 1, 32
2, 0, Control_c, 1, 7, 127
2, 0, Control_c, 1, 10, 64
2, 0, Program_c, 1, 32
2, 3456, Note_on_c, 1, 40, 60
2, 3792, Note_on_c, 1, 40, 0
2, 3840, Note_on_c, 1, 47, 60
2, 4174, Note_on_c, 1, 47, 0
2, 4176, Note_on_c, 1, 47, 60
2, 4222, Note_on_c, 1, 47, 0
2, 4224, Note_on_c, 1, 33, 60
2, 4384, Note_on_c, 1, 33, 0
2, 4416, Note_on_c, 1, 35, 60
2, 4576, Note_on_c, 1, 35, 0
2, 4608, Note_on_c, 1, 37, 60
2, 4768, Note_on_c, 1, 37, 0
2, 4800, Note_on_c, 1, 40, 60
2, 4960, Note_on_c, 1, 40, 0
2, 4992, Note_on_c, 1, 38, 60
2, 5328, Note_on_c, 1, 38, 0
2, 5376, Note_on_c, 1, 45, 60
2, 5710, Note_on_c, 1, 45, 0
2, 5712, Note_on_c, 1, 45, 60
2, 5758, Note_on_c, 1, 45, 0
2, 5760, Note_on_c, 1, 50, 60
2, 5920, Note_on_c, 1, 50, 0
2, 5952, Note_on_c, 1, 45, 60
2, 6112, Note_on_c, 1, 45, 0
2, 6144, Note_on_c, 1, 42, 60
2, 6304, Note_on_c, 1, 42, 0
2, 6336, Note_on_c, 1, 38, 60
2, 6496, Note_on_c, 1, 38, 0
2, 6528, Note_on_c, 1, 38, 60
2, 6862, Note_on_c, 1, 38, 0
2, 6864, Note_on_c, 1, 38, 60
2, 6910, Note_on_c, 1, 38, 0
2, 6912, Note_on_c, 1, 45, 60
2, 7072, Note_on_c, 1, 45, 0
2, 7104, Note_on_c, 1, 41, 60
2, 7264, Note_on_c, 1, 41, 0
2, 7296, Note_on_c, 1, 43, 60
2, 7632, Note_on_c, 1, 43, 0
2, 7680, Note_on_c, 1, 50, 60
2, 8016, Note_on_c, 1, 50, 0
2, 8064, Note_on_c, 1, 36, 60
2, 8398, Note_on_c, 1, 36, 0
2, 8400, Note_on_c, 1, 36, 60
2, 8446, Note_on_c, 1, 36, 0
2, 8448, Note_on_c, 1, 45, 60
2, 8784, Note_on_c, 1, 45, 0
2, 8832, Note_on_c, 1, 43, 60
2, 9168, Note_on_c, 1, 43, 0
2, 9216, Note_on_c, 1, 36, 60
2, 9376, Note_on_c, 1, 36, 0
2, 9408, Note_on_c, 1, 36, 60
2, 9568, Note_on_c, 1, 36, 0
2, 9600, Note_on_c, 1, 36, 60
2, 9936, Note_on_c, 1, 36, 0
2, 9984, Note_on_c, 1, 43, 60
2, 10318, Note_on_c, 1, 43, 0
2, 10320, Note_on_c, 1, 43, 60
2, 10366, Note_on_c, 1, 43, 0
2, 10368, Note_on_c, 1, 41, 60
2, 10704, Note_on_c, 1, 41, 0
2, 10752, Note_on_c, 1, 48, 60
2, 11086, Note_on_c, 1, 48, 0
2, 11088, Note_on_c, 1, 48, 60
2, 11134, Note_on_c, 1, 48, 0
2, 11136, Note_on_c, 1, 34, 60
2, 11472, Note_on_c, 1, 34, 0
2, 11520, Note_on_c, 1, 41, 60
2, 11856, Note_on_c, 1, 41, 0
2, 11904, Note_on_c, 1, 43, 60
2, 12240, Note_on_c, 1, 43, 0
2, 12288, Note_on_c, 1, 50, 60
2, 12622, Note_on_c, 1, 50, 0
2, 12624, Note_on_c, 1, 50, 60
2, 12670, Note_on_c, 1, 50, 0
2, 12672, Note_on_c, 1, 40, 60
2, 13008, Note_on_c, 1, 40, 0
2, 13056, Note_on_c, 1, 47, 60
2, 13390, Note_on_c, 1, 47, 0
2, 13392, Note_on_c, 1, 47, 60
2, 13438, Note_on_c, 1, 47, 0
2, 13440, Note_on_c, 1, 41, 60
2, 13776, Note_on_c, 1, 41, 0
2, 13824, Note_on_c, 1, 48, 60
2, 14160, Note_on_c, 1, 48, 0
2, 14208, Note_on_c, 1, 34, 60
2, 14544, Note_on_c, 1, 34, 0
2, 14592, Note_on_c, 1, 41, 60
2, 14926, Note_on_c, 1, 41, 0
2, 14928, Note_on_c, 1, 41, 60
2, 14974, Note_on_c, 1, 41, 0
2, 14976, Note_on_c, 1, 33, 60
2, 15312, Note_on_c, 1, 33, 0
2, 15360, Note_on_c, 1, 40, 60
2, 15696, Note_on_c, 1, 40, 0
2, 15744, Note_on_c, 1, 40, 60
2, 16080, Note_on_c, 1, 40, 0
2, 16128, Note_on_c, 1, 47, 60
2, 16462, Note_on_c, 1, 47, 0
2, 16464, Note_on_c, 1, 47, 60
2, 16510, Note_on_c, 1, 47, 0
2, 16512, Note_on_c, 1, 33, 60
2, 16672, Note_on_c, 1, 33, 0
2, 16704, Note_on_c, 1, 35, 60
2, 16864, Note_on_c, 1, 35, 0
2, 16896, Note_on_c, 1, 37, 60
2, 17056, Note_on_c, 1, 37, 0
2, 17088, Note_on_c, 1, 40, 60
2, 17248, Note_on_c, 1, 40, 0
2, 17280, Note_on_c, 1, 38, 60
2, 17616, Note_on_c, 1, 38, 0
2, 17664, Note_on_c, 1, 45, 60
2, 17998, Note_on_c, 1, 45, 0
2, 18000, Note_on_c, 1, 45, 60
2, 18046, Note_on_c, 1, 45, 0
2, 18048, Note_on_c, 1, 50, 60
2, 18208, Note_on_c, 1, 50, 0
2, 18240, Note_on_c, 1, 45, 60
2, 18400, Note_on_c, 1, 45, 0
2, 18432, Note_on_c, 1, 42, 60
2, 18592, Note_on_c, 1, 42, 0
2, 18624, Note_on_c, 1, 38, 60
2, 18784, Note_on_c, 1, 38, 0
2, 18816, Note_on_c, 1, 38, 60
2, 19150, Note_on_c, 1, 38, 0
2, 19152, Note_on_c, 1, 38, 60
2, 19198, Note_on_c, 1, 38, 0
2, 19200, Note_on_c, 1, 45, 60
2, 19360, Note_on_c, 1, 45, 0
2, 19392, Note_on_c, 1, 41, 60
2, 19552, Note_on_c, 1, 41, 0
2, 19584, Note_on_c, 1, 43, 60
2, 19920, Note_on_c, 1, 43, 0
2, 19968, Note_on_c, 1, 50, 60
2, 20304, Note_on_c, 1, 50, 0
2, 20352, Note_on_c, 1, 36, 60
2, 20686, Note_on_c, 1, 36, 0
2, 20688, Note_on_c, 1, 36, 60
2, 20734, Note_on_c, 1, 36, 0
2, 20736, Note_on_c, 1, 45, 60
2, 21072, Note_on_c, 1, 45, 0
2, 21120, Note_on_c, 1, 43, 60
2, 21456, Note_on_c, 1, 43, 0
2, 21504, Note_on_c, 1, 36, 60
2, 21664, Note_on_c, 1, 36, 0
2, 21696, Note_on_c, 1, 36, 60
2, 21856, Note_on_c, 1, 36, 0
2, 21888, Note_on_c, 1, 36, 60
2, 22224, Note_on_c, 1, 36, 0
2, 22272, Note_on_c, 1, 43, 60
2, 22606, Note_on_c, 1, 43, 0
2, 22608, Note_on_c, 1, 43, 60
2, 22654, Note_on_c, 1, 43, 0
2, 22656, Note_on_c, 1, 41, 60
2, 22992, Note_on_c, 1, 41, 0
2, 23040, Note_on_c, 1, 48, 60
2, 23374, Note_on_c, 1, 48, 0
2, 23376, Note_on_c, 1, 48, 60
2, 23422, Note_on_c, 1, 48, 0
2, 23424, Note_on_c, 1, 34, 60
2, 23760, Note_on_c, 1, 34, 0
2, 23808, Note_on_c, 1, 41, 60
2, 24144, Note_on_c, 1, 41, 0
2, 24192, Note_on_c, 1, 43, 60
2, 24528, Note_on_c, 1, 43, 0
2, 24576, Note_on_c, 1, 50, 60
2, 24910, Note_on_c, 1, 50, 0
2, 24912, Note_on_c, 1, 50, 60
2, 24958, Note_on_c, 1, 50, 0
2, 24960, Note_on_c, 1, 40, 60
2, 25296, Note_on_c, 1, 40, 0
2, 25344, Note_on_c, 1, 47, 60
2, 25680, Note_on_c, 1, 47, 0
2, 25728, Note_on_c, 1, 33, 60
2, 26062, Note_on_c, 1, 33, 0
2, 26064, Note_on_c, 1, 33, 60
2, 26110, Note_on_c, 1, 33, 0
2, 26112, Note_on_c, 1, 40, 60
2, 26272, Note_on_c, 1, 40, 0
2, 26304, Note_on_c, 1, 37, 60
2, 26464, Note_on_c, 1, 37, 0
2, 26496, Note_on_c, 1, 38, 60
2, 26832, Note_on_c, 1, 38, 0
2, 26880, Note_on_c, 1, 45, 60
2, 27216, Note_on_c, 1, 45, 0
2, 27264, Note_on_c, 1, 38, 60
2, 27600, Note_on_c, 1, 38, 0
2, 27648, Note_on_c, 1, 33, 60
2, 27984, Note_on_c, 1, 33, 0
2, 28032, Note_on_c, 1, 40, 60
2, 28368, Note_on_c, 1, 40, 0
2, 28416, Note_on_c, 1, 47, 60
2, 28750, Note_on_c, 1, 47, 0
2, 28752, Note_on_c, 1, 47, 60
2, 28798, Note_on_c, 1, 47, 0
2, 28800, Note_on_c, 1, 33, 60
2, 28960, Note_on_c, 1, 33, 0
2, 28992, Note_on_c, 1, 35, 60
2, 29152, Note_on_c, 1, 35, 0
2, 29184, Note_on_c, 1, 37, 60
2, 29344, Note_on_c, 1, 37, 0
2, 29376, Note_on_c, 1, 40, 60
2, 29536, Note_on_c, 1, 40, 0
2, 29568, Note_on_c, 1, 38, 60
2, 29904, Note_on_c, 1, 38, 0
2, 29952, Note_on_c, 1, 45, 60
2, 30286, Note_on_c, 1, 45, 0
2, 30288, Note_on_c, 1, 45, 60
2, 30334, Note_on_c, 1, 45, 0
2, 30336, Note_on_c, 1, 50, 60
2, 30496, Note_on_c, 1, 50, 0
2, 30528, Note_on_c, 1, 45, 60
2, 30688, Note_on_c, 1, 45, 0
2, 30720, Note_on_c, 1, 42, 60
2, 30880, Note_on_c, 1, 42, 0
2, 30912, Note_on_c, 1, 38, 60
2, 31072, Note_on_c, 1, 38, 0
2, 31104, Note_on_c, 1, 38, 60
2, 31438, Note_on_c, 1, 38, 0
2, 31440, Note_on_c, 1, 38, 60
2, 31486, Note_on_c, 1, 38, 0
2, 31488, Note_on_c, 1, 45, 60
2, 31648, Note_on_c, 1, 45, 0
2, 31680, Note_on_c, 1, 41, 60
2, 31840, Note_on_c, 1, 41, 0
2, 31872, Note_on_c, 1, 43, 60
2, 32208, Note_on_c, 1, 43, 0
2, 32256, Note_on_c, 1, 50, 60
2, 32592, Note_on_c, 1, 50, 0
2, 32640, Note_on_c, 1, 36, 60
2, 32974, Note_on_c, 1, 36, 0
2, 32976, Note_on_c, 1, 36, 60
2, 33022, Note_on_c, 1, 36, 0
2, 33024, Note_on_c, 1, 45, 60
2, 33360, Note_on_c, 1, 45, 0
2, 33408, Note_on_c, 1, 43, 60
2, 33744, Note_on_c, 1, 43, 0
2, 33792, Note_on_c, 1, 36, 60
2, 33952, Note_on_c, 1, 36, 0
2, 33984, Note_on_c, 1, 36, 60
2, 34144, Note_on_c, 1, 36, 0
2, 34176, Note_on_c, 1, 36, 60
2, 34512, Note_on_c, 1, 36, 0
2, 34560, Note_on_c, 1, 43, 60
2, 34894, Note_on_c, 1, 43, 0
2, 34896, Note_on_c, 1, 43, 60
2, 34942, Note_on_c, 1, 43, 0
2, 34944, Note_on_c, 1, 41, 60
2, 35280, Note_on_c, 1, 41, 0
2, 35328, Note_on_c, 1, 48, 60
2, 35662, Note_on_c, 1, 48, 0
2, 35664, Note_on_c, 1, 48, 60
2, 35710, Note_on_c, 1, 48, 0
2, 35712, Note_on_c, 1, 34, 60
2, 36048, Note_on_c, 1, 34, 0
2, 36096, Note_on_c, 1, 41, 60
2, 36432, Note_on_c, 1, 41, 0
2, 36480, Note_on_c, 1, 43, 60
2, 36816, Note_on_c, 1, 43, 0
2, 36864, Note_on_c, 1, 50, 60
2, 37198, Note_on_c, 1, 50, 0
2, 37200, Note_on_c, 1, 50, 60
2, 37246, Note_on_c, 1, 50, 0
2, 37248, Note_on_c, 1, 40, 60
2, 37584, Note_on_c, 1, 40, 0
2, 37632, Note_on_c, 1, 47, 60
2, 37966, Note_on_c, 1, 47, 0
2, 37968, Note_on_c, 1, 47, 60
2, 38014, Note_on_c, 1, 47, 0
2, 38016, Note_on_c, 1, 33, 60
2, 38350, Note_on_c, 1, 33, 0
2, 38352, Note_on_c, 1, 33, 60
2, 38398, Note_on_c, 1, 33, 0
2, 38400, Note_on_c, 1, 40, 60
2, 38560, Note_on_c, 1, 40, 0
2, 38592, Note_on_c, 1, 37, 60
2, 38752, Note_on_c, 1, 37, 0
2, 38784, Control_c, 1, 7, 64
2, 38784, Note_on_c, 1, 50, 60
2, 39312, Note_on_c, 1, 50, 0
2, 39360, Note_on_c, 1, 62, 60
2, 39520, Note_on_c, 1, 62, 0
2, 39552, Note_on_c, 1, 50, 60
2, 40080, Note_on_c, 1, 50, 0
2, 40128, Note_on_c, 1, 62, 60
2, 40288, Note_on_c, 1, 62, 0
2, 40320, Note_on_c, 1, 50, 60
2, 40848, Note_on_c, 1, 50, 0
2, 40896, Note_on_c, 1, 62, 60
2, 41056, Note_on_c, 1, 62, 0
2, 41088, Note_on_c, 1, 50, 60
2, 41616, Note_on_c, 1, 50, 0
2, 41664, Note_on_c, 1, 62, 60
2, 41824, Note_on_c, 1, 62, 0
2, 41856, Note_on_c, 1, 50, 60
2, 42576, Note_on_c, 1, 50, 0
2, 42624, Control_c, 1, 7, 127
2, 42624, Note_on_c, 1, 40, 60
2, 42784, Note_on_c, 1, 40, 0
2, 42816, Note_on_c, 1, 40, 60
2, 42976, Note_on_c, 1, 40, 0
2, 43008, Note_on_c, 1, 47, 60
2, 43168, Note_on_c, 1, 47, 0
2, 43200, Note_on_c, 1, 47, 60
2, 43360, Note_on_c, 1, 47, 0
2, 43392, Note_on_c, 1, 33, 60
2, 43552, Note_on_c, 1, 33, 0
2, 43584, Note_on_c, 1, 33, 60
2, 43744, Note_on_c, 1, 33, 0
2, 43776, Note_on_c, 1, 40, 60
2, 43936, Note_on_c, 1, 40, 0
2, 43968, Note_on_c, 1, 40, 60
2, 44128, Note_on_c, 1, 40, 0
2, 44160, Note_on_c, 1, 50, 60
2, 44320, Note_on_c, 1, 50, 0
2, 44352, Note_on_c, 1, 45, 60
2, 44512, Note_on_c, 1, 45, 0
2, 44544, Note_on_c, 1, 42, 60
2, 44704, Note_on_c, 1, 42, 0
2, 44736, Note_on_c, 1, 40, 60
2, 44896, Note_on_c, 1, 40, 0
2, 44928, Note_on_c, 1, 38, 60
2, 45088, Note_on_c, 1, 38, 0
2, 45120, Note_on_c, 1, 40, 60
2, 45280, Note_on_c, 1, 40, 0
2, 45312, Note_on_c, 1, 42, 60
2, 45472, Note_on_c, 1, 42, 0
2, 45504, Note_on_c, 1, 45, 60
2, 45664, Note_on_c, 1, 45, 0
2, 45696, Note_on_c, 1, 38, 60
2, 45856, Note_on_c, 1, 38, 0
2, 45888, Note_on_c, 1, 50, 60
2, 46048, Note_on_c, 1, 50, 0
2, 46080, Note_on_c, 1, 45, 60
2, 46240, Note_on_c, 1, 45, 0
2, 46272, Note_on_c, 1, 41, 60
2, 46432, Note_on_c, 1, 41, 0
2, 46464, Note_on_c, 1, 43, 60
2, 46624, Note_on_c, 1, 43, 0
2, 46656, Note_on_c, 1, 41, 60
2, 46816, Note_on_c, 1, 41, 0
2, 46848, Note_on_c, 1, 40, 60
2, 47008, Note_on_c, 1, 40, 0
2, 47040, Note_on_c, 1, 38, 60
2, 47200, Note_on_c, 1, 38, 0
2, 47232, Note_on_c, 1, 36, 60
2, 47392, Note_on_c, 1, 36, 0
2, 47424, Note_on_c, 1, 38, 60
2, 47584, Note_on_c, 1, 38, 0
2, 47616, Note_on_c, 1, 40, 60
2, 47776, Note_on_c, 1, 40, 0
2, 47808, Note_on_c, 1, 43, 60
2, 47968, Note_on_c, 1, 43, 0
2, 48000, Note_on_c, 1, 48, 60
2, 48160, Note_on_c, 1, 48, 0
2, 48192, Note_on_c, 1, 47, 60
2, 48352, Note_on_c, 1, 47, 0
2, 48384, Note_on_c, 1, 45, 60
2, 48544, Note_on_c, 1, 45, 0
2, 48576, Note_on_c, 1, 37, 60
2, 48736, Note_on_c, 1, 37, 0
2, 48768, Note_on_c, 1, 36, 60
2, 48928, Note_on_c, 1, 36, 0
2, 48960, Note_on_c, 1, 36, 60
2, 49120, Note_on_c, 1, 36, 0
2, 49152, Note_on_c, 1, 43, 60
2, 49312, Note_on_c, 1, 43, 0
2, 49344, Note_on_c, 1, 43, 60
2, 49504, Note_on_c, 1, 43, 0
2, 49536, Note_on_c, 1, 41, 60
2, 49696, Note_on_c, 1, 41, 0
2, 49728, Note_on_c, 1, 39, 60
2, 49888, Note_on_c, 1, 39, 0
2, 49920, Note_on_c, 1, 38, 60
2, 50080, Note_on_c, 1, 38, 0
2, 50112, Note_on_c, 1, 36, 60
2, 50272, Note_on_c, 1, 36, 0
2, 50304, Note_on_c, 1, 34, 60
2, 50464, Note_on_c, 1, 34, 0
2, 50496, Note_on_c, 1, 34, 60
2, 50656, Note_on_c, 1, 34, 0
2, 50688, Note_on_c, 1, 41, 60
2, 50848, Note_on_c, 1, 41, 0
2, 50880, Note_on_c, 1, 41, 60
2, 51040, Note_on_c, 1, 41, 0
2, 51072, Note_on_c, 1, 43, 60
2, 51232, Note_on_c, 1, 43, 0
2, 51264, Note_on_c, 1, 43, 60
2, 51424, Note_on_c, 1, 43, 0
2, 51456, Note_on_c, 1, 50, 60
2, 51616, Note_on_c, 1, 50, 0
2, 51648, Note_on_c, 1, 50, 60
2, 51808, Note_on_c, 1, 50, 0
2, 51840, Note_on_c, 1, 40, 60
2, 52000, Note_on_c, 1, 40, 0
2, 52032, Note_on_c, 1, 40, 60
2, 52192, Note_on_c, 1, 40, 0
2, 52224, Note_on_c, 1, 47, 60
2, 52384, Note_on_c, 1, 47, 0
2, 52416, Note_on_c, 1, 47, 60
2, 52576, Note_on_c, 1, 47, 0
2, 52608, Note_on_c, 1, 41, 60
2, 52768, Note_on_c, 1, 41, 0
2, 52800, Note_on_c, 1, 41, 60
2, 52960, Note_on_c, 1, 41, 0
2, 52992, Note_on_c, 1, 48, 60
2, 53152, Note_on_c, 1, 48, 0
2, 53184, Note_on_c, 1, 48, 60
2, 53344, Note_on_c, 1, 48, 0
2, 53376, Note_on_c, 1, 34, 60
2, 53536, Note_on_c, 1, 34, 0
2, 53568, Note_on_c, 1, 41, 60
2, 53728, Note_on_c, 1, 41, 0
2, 53760, Note_on_c, 1, 38, 60
2, 53920, Note_on_c, 1, 38, 0
2, 53952, Note_on_c, 1, 34, 60
2, 54112, Note_on_c, 1, 34, 0
2, 54144, Note_on_c, 1, 33, 60
2, 54304, Note_on_c, 1, 33, 0
2, 54336, Note_on_c, 1, 35, 60
2, 54496, Note_on_c, 1, 35, 0
2, 54528, Note_on_c, 1, 37, 60
2, 54688, Note_on_c, 1, 37, 0
2, 54720, Note_on_c, 1, 40, 60
2, 54880, Note_on_c, 1, 40, 0
2, 54912, Note_on_c, 1, 40, 60
2, 55072, Note_on_c, 1, 40, 0
2, 55104, Note_on_c, 1, 40, 60
2, 55264, Note_on_c, 1, 40, 0
2, 55296, Note_on_c, 1, 47, 60
2, 55456, Note_on_c, 1, 47, 0
2, 55488, Note_on_c, 1, 47, 60
2, 55648, Note_on_c, 1, 47, 0
2, 55680, Note_on_c, 1, 33, 60
2, 55840, Note_on_c, 1, 33, 0
2, 55872, Note_on_c, 1, 33, 60
2, 56032, Note_on_c, 1, 33, 0
2, 56064, Note_on_c, 1, 40, 60
2, 56224, Note_on_c, 1, 40, 0
2, 56256, Note_on_c, 1, 40, 60
2, 56416, Note_on_c, 1, 40, 0
2, 56448, Note_on_c, 1, 38, 60
2, 56608, Note_on_c, 1, 38, 0
2, 56640, Note_on_c, 1, 45, 60
2, 56800, Note_on_c, 1, 45, 0
2, 56832, Note_on_c, 1, 42, 60
2, 56992, Note_on_c, 1, 42, 0
2, 57024, Note_on_c, 1, 40, 60
2, 57184, Note_on_c, 1, 40, 0
2, 57216, Note_on_c, 1, 38, 60
2, 57376, Note_on_c, 1, 38, 0
2, 57408, Note_on_c, 1, 40, 60
2, 57568, Note_on_c, 1, 40, 0
2, 57600, Note_on_c, 1, 42, 60
2, 57760, Note_on_c, 1, 42, 0
2, 57792, Note_on_c, 1, 45, 60
2, 57952, Note_on_c, 1, 45, 0
2, 57984, Note_on_c, 1, 40, 60
2, 58144, Note_on_c, 1, 40, 0
2, 58176, Note_on_c, 1, 40, 60
2, 58336, Note_on_c, 1, 40, 0
2, 58368, Note_on_c, 1, 47, 60
2, 58528, Note_on_c, 1, 47, 0
2, 58560, Note_on_c, 1, 47, 60
2, 58720, Note_on_c, 1, 47, 0
2, 58752, Note_on_c, 1, 33, 60
2, 58912, Note_on_c, 1, 33, 0
2, 58944, Note_on_c, 1, 37, 60
2, 59104, Note_on_c, 1, 37, 0
2, 59136, Note_on_c, 1, 40, 60
2, 59296, Note_on_c, 1, 40, 0
2, 59328, Note_on_c, 1, 40, 60
2, 59488, Note_on_c, 1, 40, 0
2, 59520, Note_on_c, 1, 38, 60
2, 59680, Note_on_c, 1, 38, 0
2, 59712, Note_on_c, 1, 45, 60
2, 59872, Note_on_c, 1, 45, 0
2, 59904, Note_on_c, 1, 42, 60
2, 60064, Note_on_c, 1, 42, 0
2, 60096, Note_on_c, 1, 40, 60
2, 60256, Note_on_c, 1, 40, 0
2, 60288, Note_on_c, 1, 38, 60
2, 60448, Note_on_c, 1, 38, 0
2, 60480, Note_on_c, 1, 40, 60
2, 60640, Note_on_c, 1, 40, 0
2, 60672, Note_on_c, 1, 42, 60
2, 60832, Note_on_c, 1, 42, 0
2, 60864, Note_on_c, 1, 45, 60
2, 61024, Note_on_c, 1, 45, 0
2, 61056, Note_on_c, 1, 50, 60
2, 61216, Note_on_c, 1, 50, 0
2, 61248, Note_on_c, 1, 45, 60
2, 61408, Note_on_c, 1, 45, 0
2, 61440, Note_on_c, 1, 42, 60
2, 61600, Note_on_c, 1, 42, 0
2, 61632, Note_on_c, 1, 40, 60
2, 61792, Note_on_c, 1, 40, 0
2, 61824, Note_on_c, 1, 38, 60
2, 61984, Note_on_c, 1, 38, 0
2, 62016, Note_on_c, 1, 40, 60
2, 62176, Note_on_c, 1, 40, 0
2, 62208, Note_on_c, 1, 42, 60
2, 62368, Note_on_c, 1, 42, 0
2, 62400, Note_on_c, 1, 45, 60
2, 62560, Note_on_c, 1, 45, 0
2, 62592, Note_on_c, 1, 38, 60
2, 62752, Note_on_c, 1, 38, 0
2, 62784, Note_on_c, 1, 45, 60
2, 62944, Note_on_c, 1, 45, 0
2, 62976, Note_on_c, 1, 42, 60
2, 63136, Note_on_c, 1, 42, 0
2, 63168, Note_on_c, 1, 38, 60
2, 63328, Note_on_c, 1, 38, 0
2, 63360, Note_on_c, 1, 40, 60
2, 63696, Note_on_c, 1, 40, 0
2, 63744, Note_on_c, 1, 47, 60
2, 64078, Note_on_c, 1, 47, 0
2, 64080, Note_on_c, 1, 47, 60
2, 64126, Note_on_c, 1, 47, 0
2, 64128, Note_on_c, 1, 33, 60
2, 64288, Note_on_c, 1, 33, 0
2, 64320, Note_on_c, 1, 35, 60
2, 64480, Note_on_c, 1, 35, 0
2, 64512, Note_on_c, 1, 37, 60
2, 64672, Note_on_c, 1, 37, 0
2, 64704, Note_on_c, 1, 40, 60
2, 64864, Note_on_c, 1, 40, 0
2, 64896, Note_on_c, 1, 38, 60
2, 65232, Note_on_c, 1, 38, 0
2, 65280, Note_on_c, 1, 45, 60
2, 65616, Note_on_c, 1, 45, 0
2, 65664, Note_on_c, 1, 38, 60
2, 66000, Note_on_c, 1, 38, 0
2, 66048, Note_on_c, 1, 45, 60
2, 66384, Note_on_c, 1, 45, 0
2, 66432, Note_on_c, 1, 38, 60
2, 66766, Note_on_c, 1, 38, 0
2, 66768, Note_on_c, 1, 38, 60
2, 66814, Note_on_c, 1, 38, 0
2, 66816, Note_on_c, 1, 45, 60
2, 66976, Note_on_c, 1, 45, 0
2, 67008, Note_on_c, 1, 41, 60
2, 67168, Note_on_c, 1, 41, 0
2, 67200, Note_on_c, 1, 43, 60
2, 67536, Note_on_c, 1, 43, 0
2, 67584, Note_on_c, 1, 50, 60
2, 67918, Note_on_c, 1, 50, 0
2, 67920, Note_on_c, 1, 50, 60
2, 67966, Note_on_c, 1, 50, 0
2, 67968, Note_on_c, 1, 36, 60
2, 68304, Note_on_c, 1, 36, 0
2, 68352, Note_on_c, 1, 43, 60
2, 68686, Note_on_c, 1, 43, 0
2, 68688, Note_on_c, 1, 43, 60
2, 68734, Note_on_c, 1, 43, 0
2, 68736, Note_on_c, 1, 48, 60
2, 68896, Note_on_c, 1, 48, 0
2, 68928, Note_on_c, 1, 43, 60
2, 69088, Note_on_c, 1, 43, 0
2, 69120, Note_on_c, 1, 40, 60
2, 69280, Note_on_c, 1, 40, 0
2, 69312, Note_on_c, 1, 36, 60
2, 69472, Note_on_c, 1, 36, 0
2, 69504, Note_on_c, 1, 36, 60
2, 69840, Note_on_c, 1, 36, 0
2, 69888, Note_on_c, 1, 43, 60
2, 70222, Note_on_c, 1, 43, 0
2, 70224, Note_on_c, 1, 43, 60
2, 70270, Note_on_c, 1, 43, 0
2, 70272, Note_on_c, 1, 41, 60
2, 70432, Note_on_c, 1, 41, 0
2, 70464, Note_on_c, 1, 43, 60
2, 70624, Note_on_c, 1, 43, 0
2, 70656, Note_on_c, 1, 45, 60
2, 70816, Note_on_c, 1, 45, 0
2, 70848, Note_on_c, 1, 48, 60
2, 71008, Note_on_c, 1, 48, 0
2, 71040, Note_on_c, 1, 34, 60
2, 71376, Note_on_c, 1, 34, 0
2, 71424, Note_on_c, 1, 41, 60
2, 71758, Note_on_c, 1, 41, 0
2, 71760, Note_on_c, 1, 41, 60
2, 71806, Note_on_c, 1, 41, 0
2, 71808, Note_on_c, 1, 43, 60
2, 72144, Note_on_c, 1, 43, 0
2, 72192, Note_on_c, 1, 50, 60
2, 72526, Note_on_c, 1, 50, 0
2, 72528, Note_on_c, 1, 50, 60
2, 72574, Note_on_c, 1, 50, 0
2, 72576, Note_on_c, 1, 40, 60
2, 72912, Note_on_c, 1, 40, 0
2, 72960, Note_on_c, 1, 47, 60
2, 73294, Note_on_c, 1, 47, 0
2, 73296, Note_on_c, 1, 47, 60
2, 73342, Note_on_c, 1, 47, 0
2, 73344, Note_on_c, 1, 41, 60
2, 73680, Note_on_c, 1, 41, 0
2, 73728, Note_on_c, 1, 48, 60
2, 74064, Note_on_c, 1, 48, 0
2, 74112, Note_on_c, 1, 34, 60
2, 74448, Note_on_c, 1, 34, 0
2, 74496, Note_on_c, 1, 41, 60
2, 74832, Note_on_c, 1, 41, 0
2, 74880, Note_on_c, 1, 33, 60
2, 75040, Note_on_c, 1, 33, 0
2, 75072, Note_on_c, 1, 35, 60
2, 75232, Note_on_c, 1, 35, 0
2, 75264, Note_on_c, 1, 37, 60
2, 75424, Note_on_c, 1, 37, 0
2, 75456, Note_on_c, 1, 40, 60
2, 75616, Note_on_c, 1, 40, 0
2, 75648, Note_on_c, 1, 40, 60
2, 75984, Note_on_c, 1, 40, 0
2, 76032, Note_on_c, 1, 47, 60
2, 76366, Note_on_c, 1, 47, 0
2, 76368, Note_on_c, 1, 47, 60
2, 76414, Note_on_c, 1, 47, 0
2, 76416, Note_on_c, 1, 33, 60
2, 76752, Note_on_c, 1, 33, 0
2, 76800, Note_on_c, 1, 40, 60
2, 77134, Note_on_c, 1, 40, 0
2, 77136, Note_on_c, 1, 40, 60
2, 77182, Note_on_c, 1, 40, 0
2, 77184, Note_on_c, 1, 38, 60
2, 77520, Note_on_c, 1, 38, 0
2, 77568, Note_on_c, 1, 45, 60
2, 77904, Note_on_c, 1, 45, 0
2, 77952, Note_on_c, 1, 38, 60
2, 78288, Note_on_c, 1, 38, 0
2, 78336, Note_on_c, 1, 45, 60
2, 78672, Note_on_c, 1, 45, 0
2, 78720, Control_c, 1, 7, 64
2, 78720, Note_on_c, 1, 40, 60
2, 79056, Note_on_c, 1, 40, 0
2, 79104, Note_on_c, 1, 47, 60
2, 79440, Note_on_c, 1, 47, 0
2, 79488, Note_on_c, 1, 33, 60
2, 79824, Note_on_c, 1, 33, 0
2, 79872, Note_on_c, 1, 40, 60
2, 80208, Note_on_c, 1, 40, 0
2, 80256, Note_on_c, 1, 38, 60
2, 80592, Note_on_c, 1, 38, 0
2, 80640, Note_on_c, 1, 45, 60
2, 80976, Note_on_c, 1, 45, 0
2, 81024, Note_on_c, 1, 38, 60
2, 81360, Note_on_c, 1, 38, 0
2, 81408, Note_on_c, 1, 45, 60
2, 81744, Note_on_c, 1, 45, 0
2, 81792, Note_on_c, 1, 38, 60
2, 82128, Note_on_c, 1, 38, 0
2, 82176, Note_on_c, 1, 45, 60
2, 82512, Note_on_c, 1, 45, 0
2, 82560, Note_on_c, 1, 38, 60
2, 82896, Note_on_c, 1, 38, 0
2, 82944, Note_on_c, 1, 33, 60
2, 83280, Note_on_c, 1, 33, 0
2, 83328, Note_on_c, 1, 50, 60
2, 84048, Note_on_c, 1, 50, 0
2, 84048, End_track
3, 0, Start_track
3, 0, MIDI_port, 0
3, 0, Title_t, "Drums   (BB)"
3, 0, Program_c, 9, 0
3, 0, Control_c, 9, 7, 127
3, 0, Control_c, 9, 10, 64
3, 0, Program_c, 9, 0
3, 3456, Note_on_c, 9, 35, 75
3, 3456, Note_on_c, 9, 38, 75
3, 3456, Note_on_c, 9, 42, 75
3, 3456, Note_on_c, 9, 49, 75
3, 3616, Note_on_c, 9, 35, 0
3, 3616, Note_on_c, 9, 38, 0
3, 3616, Note_on_c, 9, 42, 0
3, 3616, Note_on_c, 9, 49, 0
3, 3648, Note_on_c, 9, 42, 75
3, 3790, Note_on_c, 9, 42, 0
3, 3792, Note_on_c, 9, 42, 75
3, 3838, Note_on_c, 9, 42, 0
3, 3840, Note_on_c, 9, 35, 75
3, 3840, Note_on_c, 9, 42, 75
3, 4000, Note_on_c, 9, 35, 0
3, 4000, Note_on_c, 9, 42, 0
3, 4032, Note_on_c, 9, 42, 75
3, 4174, Note_on_c, 9, 42, 0
3, 4176, Note_on_c, 9, 42, 75
3, 4222, Note_on_c, 9, 42, 0
3, 4224, Note_on_c, 9, 35, 75
3, 4224, Note_on_c, 9, 42, 75
3, 4384, Note_on_c, 9, 35, 0
3, 4384, Note_on_c, 9, 42, 0
3, 4416, Note_on_c, 9, 42, 75
3, 4558, Note_on_c, 9, 42, 0
3, 4560, Note_on_c, 9, 42, 75
3, 4606, Note_on_c, 9, 42, 0
3, 4608, Note_on_c, 9, 35, 75
3, 4608, Note_on_c, 9, 42, 75
3, 4768, Note_on_c, 9, 35, 0
3, 4768, Note_on_c, 9, 42, 0
3, 4800, Note_on_c, 9, 37, 75
3, 4800, Note_on_c, 9, 42, 75
3, 4942, Note_on_c, 9, 37, 0
3, 4942, Note_on_c, 9, 42, 0
3, 4944, Note_on_c, 9, 42, 75
3, 4990, Note_on_c, 9, 42, 0
3, 4992, Note_on_c, 9, 35, 75
3, 4992, Note_on_c, 9, 42, 75
3, 5152, Note_on_c, 9, 35, 0
3, 5152, Note_on_c, 9, 42, 0
3, 5184, Note_on_c, 9, 42, 75
3, 5326, Note_on_c, 9, 42, 0
3, 5328, Note_on_c, 9, 42, 75
3, 5374, Note_on_c, 9, 42, 0
3, 5376, Note_on_c, 9, 35, 75
3, 5376, Note_on_c, 9, 42, 75
3, 5536, Note_on_c, 9, 35, 0
3, 5536, Note_on_c, 9, 42, 0
3, 5568, Note_on_c, 9, 42, 75
3, 5710, Note_on_c, 9, 42, 0
3, 5712, Note_on_c, 9, 42, 75
3, 5758, Note_on_c, 9, 42, 0
3, 5760, Note_on_c, 9, 35, 75
3, 5760, Note_on_c, 9, 42, 75
3, 5920, Note_on_c, 9, 35, 0
3, 5920, Note_on_c, 9, 42, 0
3, 5952, Note_on_c, 9, 42, 75
3, 6094, Note_on_c, 9, 42, 0
3, 6096, Note_on_c, 9, 42, 75
3, 6142, Note_on_c, 9, 42, 0
3, 6144, Note_on_c, 9, 35, 75
3, 6144, Note_on_c, 9, 42, 75
3, 6304, Note_on_c, 9, 35, 0
3, 6304, Note_on_c, 9, 42, 0
3, 6336, Note_on_c, 9, 37, 75
3, 6336, Note_on_c, 9, 42, 75
3, 6478, Note_on_c, 9, 37, 0
3, 6478, Note_on_c, 9, 42, 0
3, 6480, Note_on_c, 9, 42, 75
3, 6526, Note_on_c, 9, 42, 0
3, 6528, Note_on_c, 9, 35, 75
3, 6528, Note_on_c, 9, 42, 75
3, 6688, Note_on_c, 9, 35, 0
3, 6688, Note_on_c, 9, 42, 0
3, 6720, Note_on_c, 9, 42, 75
3, 6862, Note_on_c, 9, 42, 0
3, 6864, Note_on_c, 9, 42, 75
3, 6910, Note_on_c, 9, 42, 0
3, 6912, Note_on_c, 9, 35, 75
3, 6912, Note_on_c, 9, 42, 75
3, 7072, Note_on_c, 9, 35, 0
3, 7072, Note_on_c, 9, 42, 0
3, 7104, Note_on_c, 9, 42, 75
3, 7246, Note_on_c, 9, 42, 0
3, 7248, Note_on_c, 9, 42, 75
3, 7294, Note_on_c, 9, 42, 0
3, 7296, Note_on_c, 9, 35, 75
3, 7296, Note_on_c, 9, 42, 75
3, 7456, Note_on_c, 9, 35, 0
3, 7456, Note_on_c, 9, 42, 0
3, 7488, Note_on_c, 9, 42, 75
3, 7630, Note_on_c, 9, 42, 0
3, 7632, Note_on_c, 9, 42, 75
3, 7678, Note_on_c, 9, 42, 0
3, 7680, Note_on_c, 9, 35, 75
3, 7680, Note_on_c, 9, 42, 75
3, 7840, Note_on_c, 9, 35, 0
3, 7840, Note_on_c, 9, 42, 0
3, 7872, Note_on_c, 9, 37, 75
3, 7872, Note_on_c, 9, 42, 75
3, 8014, Note_on_c, 9, 37, 0
3, 8014, Note_on_c, 9, 42, 0
3, 8016, Note_on_c, 9, 42, 75
3, 8062, Note_on_c, 9, 42, 0
3, 8064, Note_on_c, 9, 35, 75
3, 8064, Note_on_c, 9, 42, 75
3, 8224, Note_on_c, 9, 35, 0
3, 8224, Note_on_c, 9, 42, 0
3, 8256, Note_on_c, 9, 42, 75
3, 8398, Note_on_c, 9, 42, 0
3, 8400, Note_on_c, 9, 42, 75
3, 8446, Note_on_c, 9, 42, 0
3, 8448, Note_on_c, 9, 35, 75
3, 8448, Note_on_c, 9, 42, 75
3, 8608, Note_on_c, 9, 35, 0
3, 8608, Note_on_c, 9, 42, 0
3, 8640, Note_on_c, 9, 42, 75
3, 8782, Note_on_c, 9, 42, 0
3, 8784, Note_on_c, 9, 42, 75
3, 8830, Note_on_c, 9, 42, 0
3, 8832, Note_on_c, 9, 35, 75
3, 8832, Note_on_c, 9, 42, 75
3, 8992, Note_on_c, 9, 35, 0
3, 8992, Note_on_c, 9, 42, 0
3, 9024, Note_on_c, 9, 42, 75
3, 9166, Note_on_c, 9, 42, 0
3, 9168, Note_on_c, 9, 42, 75
3, 9214, Note_on_c, 9, 42, 0
3, 9216, Note_on_c, 9, 35, 75
3, 9216, Note_on_c, 9, 42, 75
3, 9358, Note_on_c, 9, 35, 0
3, 9358, Note_on_c, 9, 42, 0
3, 9360, Note_on_c, 9, 38, 75
3, 9406, Note_on_c, 9, 38, 0
3, 9408, Note_on_c, 9, 37, 75
3, 9408, Note_on_c, 9, 38, 75
3, 9408, Note_on_c, 9, 42, 75
3, 9550, Note_on_c, 9, 37, 0
3, 9550, Note_on_c, 9, 38, 0
3, 9550, Note_on_c, 9, 42, 0
3, 9552, Note_on_c, 9, 42, 75
3, 9598, Note_on_c, 9, 42, 0
3, 9600, Note_on_c, 9, 35, 75
3, 9600, Note_on_c, 9, 42, 75
3, 9760, Note_on_c, 9, 35, 0
3, 9760, Note_on_c, 9, 42, 0
3, 9792, Note_on_c, 9, 42, 75
3, 9934, Note_on_c, 9, 42, 0
3, 9936, Note_on_c, 9, 42, 75
3, 9982, Note_on_c, 9, 42, 0
3, 9984, Note_on_c, 9, 35, 75
3, 9984, Note_on_c, 9, 42, 75
3, 10144, Note_on_c, 9, 35, 0
3, 10144, Note_on_c, 9, 42, 0
3, 10176, Note_on_c, 9, 42, 75
3, 10318, Note_on_c, 9, 42, 0
3, 10320, Note_on_c, 9, 42, 75
3, 10366, Note_on_c, 9, 42, 0
3, 10368, Note_on_c, 9, 35, 75
3, 10368, Note_on_c, 9, 42, 75
3, 10528, Note_on_c, 9, 35, 0
3, 10528, Note_on_c, 9, 42, 0
3, 10560, Note_on_c, 9, 42, 75
3, 10702, Note_on_c, 9, 42, 0
3, 10704, Note_on_c, 9, 42, 75
3, 10750, Note_on_c, 9, 42, 0
3, 10752, Note_on_c, 9, 35, 75
3, 10752, Note_on_c, 9, 42, 75
3, 10912, Note_on_c, 9, 35, 0
3, 10912, Note_on_c, 9, 42, 0
3, 10944, Note_on_c, 9, 37, 75
3, 10944, Note_on_c, 9, 42, 75
3, 11086, Note_on_c, 9, 37, 0
3, 11086, Note_on_c, 9, 42, 0
3, 11088, Note_on_c, 9, 42, 75
3, 11134, Note_on_c, 9, 42, 0
3, 11136, Note_on_c, 9, 35, 75
3, 11136, Note_on_c, 9, 42, 75
3, 11296, Note_on_c, 9, 35, 0
3, 11296, Note_on_c, 9, 42, 0
3, 11328, Note_on_c, 9, 42, 75
3, 11470, Note_on_c, 9, 42, 0
3, 11472, Note_on_c, 9, 42, 75
3, 11518, Note_on_c, 9, 42, 0
3, 11520, Note_on_c, 9, 35, 75
3, 11520, Note_on_c, 9, 42, 75
3, 11680, Note_on_c, 9, 35, 0
3, 11680, Note_on_c, 9, 42, 0
3, 11712, Note_on_c, 9, 42, 75
3, 11854, Note_on_c, 9, 42, 0
3, 11856, Note_on_c, 9, 42, 75
3, 11902, Note_on_c, 9, 42, 0
3, 11904, Note_on_c, 9, 35, 75
3, 11904, Note_on_c, 9, 42, 75
3, 12064, Note_on_c, 9, 35, 0
3, 12064, Note_on_c, 9, 42, 0
3, 12096, Note_on_c, 9, 42, 75
3, 12238, Note_on_c, 9, 42, 0
3, 12240, Note_on_c, 9, 42, 75
3, 12286, Note_on_c, 9, 42, 0
3, 12288, Note_on_c, 9, 35, 75
3, 12288, Note_on_c, 9, 42, 75
3, 12430, Note_on_c, 9, 35, 0
3, 12430, Note_on_c, 9, 42, 0
3, 12432, Note_on_c, 9, 38, 75
3, 12478, Note_on_c, 9, 38, 0
3, 12480, Note_on_c, 9, 37, 75
3, 12480, Note_on_c, 9, 38, 75
3, 12480, Note_on_c, 9, 42, 75
3, 12622, Note_on_c, 9, 37, 0
3, 12622, Note_on_c, 9, 38, 0
3, 12622, Note_on_c, 9, 42, 0
3, 12624, Note_on_c, 9, 42, 75
3, 12670, Note_on_c, 9, 42, 0
3, 12672, Note_on_c, 9, 35, 75
3, 12672, Note_on_c, 9, 42, 75
3, 12832, Note_on_c, 9, 35, 0
3, 12832, Note_on_c, 9, 42, 0
3, 12864, Note_on_c, 9, 42, 75
3, 13006, Note_on_c, 9, 42, 0
3, 13008, Note_on_c, 9, 42, 75
3, 13054, Note_on_c, 9, 42, 0
3, 13056, Note_on_c, 9, 35, 75
3, 13056, Note_on_c, 9, 42, 75
3, 13216, Note_on_c, 9, 35, 0
3, 13216, Note_on_c, 9, 42, 0
3, 13248, Note_on_c, 9, 42, 75
3, 13390, Note_on_c, 9, 42, 0
3, 13392, Note_on_c, 9, 42, 75
3, 13438, Note_on_c, 9, 42, 0
3, 13440, Note_on_c, 9, 35, 75
3, 13440, Note_on_c, 9, 42, 75
3, 13600, Note_on_c, 9, 35, 0
3, 13600, Note_on_c, 9, 42, 0
3, 13632, Note_on_c, 9, 42, 75
3, 13774, Note_on_c, 9, 42, 0
3, 13776, Note_on_c, 9, 42, 75
3, 13822, Note_on_c, 9, 42, 0
3, 13824, Note_on_c, 9, 35, 75
3, 13824, Note_on_c, 9, 42, 75
3, 13984, Note_on_c, 9, 35, 0
3, 13984, Note_on_c, 9, 42, 0
3, 14016, Note_on_c, 9, 37, 75
3, 14016, Note_on_c, 9, 42, 75
3, 14158, Note_on_c, 9, 37, 0
3, 14158, Note_on_c, 9, 42, 0
3, 14160, Note_on_c, 9, 42, 75
3, 14206, Note_on_c, 9, 42, 0
3, 14208, Note_on_c, 9, 35, 75
3, 14208, Note_on_c, 9, 42, 75
3, 14368, Note_on_c, 9, 35, 0
3, 14368, Note_on_c, 9, 42, 0
3, 14400, Note_on_c, 9, 42, 75
3, 14542, Note_on_c, 9, 42, 0
3, 14544, Note_on_c, 9, 42, 75
3, 14590, Note_on_c, 9, 42, 0
3, 14592, Note_on_c, 9, 35, 75
3, 14592, Note_on_c, 9, 42, 75
3, 14752, Note_on_c, 9, 35, 0
3, 14752, Note_on_c, 9, 42, 0
3, 14784, Note_on_c, 9, 42, 75
3, 14926, Note_on_c, 9, 42, 0
3, 14928, Note_on_c, 9, 42, 75
3, 14974, Note_on_c, 9, 42, 0
3, 14976, Note_on_c, 9, 35, 75
3, 14976, Note_on_c, 9, 42, 75
3, 15136, Note_on_c, 9, 35, 0
3, 15136, Note_on_c, 9, 42, 0
3, 15168, Note_on_c, 9, 42, 75
3, 15310, Note_on_c, 9, 42, 0
3, 15312, Note_on_c, 9, 42, 75
3, 15358, Note_on_c, 9, 42, 0
3, 15360, Note_on_c, 9, 35, 75
3, 15360, Note_on_c, 9, 42, 75
3, 15502, Note_on_c, 9, 35, 0
3, 15502, Note_on_c, 9, 42, 0
3, 15504, Note_on_c, 9, 38, 75
3, 15550, Note_on_c, 9, 38, 0
3, 15552, Note_on_c, 9, 37, 75
3, 15552, Note_on_c, 9, 38, 75
3, 15552, Note_on_c, 9, 42, 75
3, 15694, Note_on_c, 9, 37, 0
3, 15694, Note_on_c, 9, 38, 0
3, 15694, Note_on_c, 9, 42, 0
3, 15696, Note_on_c, 9, 42, 75
3, 15742, Note_on_c, 9, 42, 0
3, 15744, Note_on_c, 9, 35, 75
3, 15744, Note_on_c, 9, 38, 75
3, 15744, Note_on_c, 9, 42, 75
3, 15744, Note_on_c, 9, 49, 75
3, 15904, Note_on_c, 9, 35, 0
3, 15904, Note_on_c, 9, 38, 0
3, 15904, Note_on_c, 9, 42, 0
3, 15904, Note_on_c, 9, 49, 0
3, 15936, Note_on_c, 9, 42, 75
3, 16078, Note_on_c, 9, 42, 0
3, 16080, Note_on_c, 9, 42, 75
3, 16126, Note_on_c, 9, 42, 0
3, 16128, Note_on_c, 9, 35, 75
3, 16128, Note_on_c, 9, 42, 75
3, 16288, Note_on_c, 9, 35, 0
3, 16288, Note_on_c, 9, 42, 0
3, 16320, Note_on_c, 9, 42, 75
3, 16462, Note_on_c, 9, 42, 0
3, 16464, Note_on_c, 9, 42, 75
3, 16510, Note_on_c, 9, 42, 0
3, 16512, Note_on_c, 9, 35, 75
3, 16512, Note_on_c, 9, 42, 75
3, 16672, Note_on_c, 9, 35, 0
3, 16672, Note_on_c, 9, 42, 0
3, 16704, Note_on_c, 9, 42, 75
3, 16846, Note_on_c, 9, 42, 0
3, 16848, Note_on_c, 9, 42, 75
3, 16894, Note_on_c, 9, 42, 0
3, 16896, Note_on_c, 9, 35, 75
3, 16896, Note_on_c, 9, 42, 75
3, 17056, Note_on_c, 9, 35, 0
3, 17056, Note_on_c, 9, 42, 0
3, 17088, Note_on_c, 9, 37, 75
3, 17088, Note_on_c, 9, 42, 75
3, 17230, Note_on_c, 9, 37, 0
3, 17230, Note_on_c, 9, 42, 0
3, 17232, Note_on_c, 9, 42, 75
3, 17278, Note_on_c, 9, 42, 0
3, 17280, Note_on_c, 9, 35, 75
3, 17280, Note_on_c, 9, 42, 75
3, 17440, Note_on_c, 9, 35, 0
3, 17440, Note_on_c, 9, 42, 0
3, 17472, Note_on_c, 9, 42, 75
3, 17614, Note_on_c, 9, 42, 0
3, 17616, Note_on_c, 9, 42, 75
3, 17662, Note_on_c, 9, 42, 0
3, 17664, Note_on_c, 9, 35, 75
3, 17664, Note_on_c, 9, 42, 75
3, 17824, Note_on_c, 9, 35, 0
3, 17824, Note_on_c, 9, 42, 0
3, 17856, Note_on_c, 9, 42, 75
3, 17998, Note_on_c, 9, 42, 0
3, 18000, Note_on_c, 9, 42, 75
3, 18046, Note_on_c, 9, 42, 0
3, 18048, Note_on_c, 9, 35, 75
3, 18048, Note_on_c, 9, 42, 75
3, 18208, Note_on_c, 9, 35, 0
3, 18208, Note_on_c, 9, 42, 0
3, 18240, Note_on_c, 9, 42, 75
3, 18382, Note_on_c, 9, 42, 0
3, 18384, Note_on_c, 9, 42, 75
3, 18430, Note_on_c, 9, 42, 0
3, 18432, Note_on_c, 9, 35, 75
3, 18432, Note_on_c, 9, 42, 75
3, 18592, Note_on_c, 9, 35, 0
3, 18592, Note_on_c, 9, 42, 0
3, 18624, Note_on_c, 9, 37, 75
3, 18624, Note_on_c, 9, 42, 75
3, 18766, Note_on_c, 9, 37, 0
3, 18766, Note_on_c, 9, 42, 0
3, 18768, Note_on_c, 9, 42, 75
3, 18814, Note_on_c, 9, 42, 0
3, 18816, Note_on_c, 9, 35, 75
3, 18816, Note_on_c, 9, 42, 75
3, 18976, Note_on_c, 9, 35, 0
3, 18976, Note_on_c, 9, 42, 0
3, 19008, Note_on_c, 9, 42, 75
3, 19150, Note_on_c, 9, 42, 0
3, 19152, Note_on_c, 9, 42, 75
3, 19198, Note_on_c, 9, 42, 0
3, 19200, Note_on_c, 9, 35, 75
3, 19200, Note_on_c, 9, 42, 75
3, 19360, Note_on_c, 9, 35, 0
3, 19360, Note_on_c, 9, 42, 0
3, 19392, Note_on_c, 9, 42, 75
3, 19534, Note_on_c, 9, 42, 0
3, 19536, Note_on_c, 9, 42, 75
3, 19582, Note_on_c, 9, 42, 0
3, 19584, Note_on_c, 9, 35, 75
3, 19584, Note_on_c, 9, 42, 75
3, 19744, Note_on_c, 9, 35, 0
3, 19744, Note_on_c, 9, 42, 0
3, 19776, Note_on_c, 9, 42, 75
3, 19918, Note_on_c, 9, 42, 0
3, 19920, Note_on_c, 9, 42, 75
3, 19966, Note_on_c, 9, 42, 0
3, 19968, Note_on_c, 9, 35, 75
3, 19968, Note_on_c, 9, 42, 75
3, 20128, Note_on_c, 9, 35, 0
3, 20128, Note_on_c, 9, 42, 0
3, 20160, Note_on_c, 9, 37, 75
3, 20160, Note_on_c, 9, 42, 75
3, 20302, Note_on_c, 9, 37, 0
3, 20302, Note_on_c, 9, 42, 0
3, 20304, Note_on_c, 9, 42, 75
3, 20350, Note_on_c, 9, 42, 0
3, 20352, Note_on_c, 9, 35, 75
3, 20352, Note_on_c, 9, 42, 75
3, 20512, Note_on_c, 9, 35, 0
3, 20512, Note_on_c, 9, 42, 0
3, 20544, Note_on_c, 9, 42, 75
3, 20686, Note_on_c, 9, 42, 0
3, 20688, Note_on_c, 9, 42, 75
3, 20734, Note_on_c, 9, 42, 0
3, 20736, Note_on_c, 9, 35, 75
3, 20736, Note_on_c, 9, 42, 75
3, 20896, Note_on_c, 9, 35, 0
3, 20896, Note_on_c, 9, 42, 0
3, 20928, Note_on_c, 9, 42, 75
3, 21070, Note_on_c, 9, 42, 0
3, 21072, Note_on_c, 9, 42, 75
3, 21118, Note_on_c, 9, 42, 0
3, 21120, Note_on_c, 9, 35, 75
3, 21120, Note_on_c, 9, 42, 75
3, 21280, Note_on_c, 9, 35, 0
3, 21280, Note_on_c, 9, 42, 0
3, 21312, Note_on_c, 9, 42, 75
3, 21454, Note_on_c, 9, 42, 0
3, 21456, Note_on_c, 9, 42, 75
3, 21502, Note_on_c, 9, 42, 0
3, 21504, Note_on_c, 9, 35, 75
3, 21504, Note_on_c, 9, 42, 75
3, 21646, Note_on_c, 9, 35, 0
3, 21646, Note_on_c, 9, 42, 0
3, 21648, Note_on_c, 9, 38, 75
3, 21694, Note_on_c, 9, 38, 0
3, 21696, Note_on_c, 9, 37, 75
3, 21696, Note_on_c, 9, 38, 75
3, 21696, Note_on_c, 9, 42, 75
3, 21838, Note_on_c, 9, 37, 0
3, 21838, Note_on_c, 9, 38, 0
3, 21838, Note_on_c, 9, 42, 0
3, 21840, Note_on_c, 9, 42, 75
3, 21886, Note_on_c, 9, 42, 0
3, 21888, Note_on_c, 9, 35, 75
3, 21888, Note_on_c, 9, 42, 75
3, 22048, Note_on_c, 9, 35, 0
3, 22048, Note_on_c, 9, 42, 0
3, 22080, Note_on_c, 9, 42, 75
3, 22222, Note_on_c, 9, 42, 0
3, 22224, Note_on_c, 9, 42, 75
3, 22270, Note_on_c, 9, 42, 0
3, 22272, Note_on_c, 9, 35, 75
3, 22272, Note_on_c, 9, 42, 75
3, 22432, Note_on_c, 9, 35, 0
3, 22432, Note_on_c, 9, 42, 0
3, 22464, Note_on_c, 9, 42, 75
3, 22606, Note_on_c, 9, 42, 0
3, 22608, Note_on_c, 9, 42, 75
3, 22654, Note_on_c, 9, 42, 0
3, 22656, Note_on_c, 9, 35, 75
3, 22656, Note_on_c, 9, 42, 75
3, 22816, Note_on_c, 9, 35, 0
3, 22816, Note_on_c, 9, 42, 0
3, 22848, Note_on_c, 9, 42, 75
3, 22990, Note_on_c, 9, 42, 0
3, 22992, Note_on_c, 9, 42, 75
3, 23038, Note_on_c, 9, 42, 0
3, 23040, Note_on_c, 9, 35, 75
3, 23040, Note_on_c, 9, 42, 75
3, 23200, Note_on_c, 9, 35, 0
3, 23200, Note_on_c, 9, 42, 0
3, 23232, Note_on_c, 9, 37, 75
3, 23232, Note_on_c, 9, 42, 75
3, 23374, Note_on_c, 9, 37, 0
3, 23374, Note_on_c, 9, 42, 0
3, 23376, Note_on_c, 9, 42, 75
3, 23422, Note_on_c, 9, 42, 0
3, 23424, Note_on_c, 9, 35, 75
3, 23424, Note_on_c, 9, 42, 75
3, 23584, Note_on_c, 9, 35, 0
3, 23584, Note_on_c, 9, 42, 0
3, 23616, Note_on_c, 9, 42, 75
3, 23758, Note_on_c, 9, 42, 0
3, 23760, Note_on_c, 9, 42, 75
3, 23806, Note_on_c, 9, 42, 0
3, 23808, Note_on_c, 9, 35, 75
3, 23808, Note_on_c, 9, 42, 75
3, 23968, Note_on_c, 9, 35, 0
3, 23968, Note_on_c, 9, 42, 0
3, 24000, Note_on_c, 9, 42, 75
3, 24142, Note_on_c, 9, 42, 0
3, 24144, Note_on_c, 9, 42, 75
3, 24190, Note_on_c, 9, 42, 0
3, 24192, Note_on_c, 9, 35, 75
3, 24192, Note_on_c, 9, 42, 75
3, 24352, Note_on_c, 9, 35, 0
3, 24352, Note_on_c, 9, 42, 0
3, 24384, Note_on_c, 9, 42, 75
3, 24526, Note_on_c, 9, 42, 0
3, 24528, Note_on_c, 9, 42, 75
3, 24574, Note_on_c, 9, 42, 0
3, 24576, Note_on_c, 9, 35, 75
3, 24576, Note_on_c, 9, 42, 75
3, 24718, Note_on_c, 9, 35, 0
3, 24718, Note_on_c, 9, 42, 0
3, 24720, Note_on_c, 9, 38, 75
3, 24766, Note_on_c, 9, 38, 0
3, 24768, Note_on_c, 9, 37, 75
3, 24768, Note_on_c, 9, 38, 75
3, 24768, Note_on_c, 9, 42, 75
3, 24910, Note_on_c, 9, 37, 0
3, 24910, Note_on_c, 9, 38, 0
3, 24910, Note_on_c, 9, 42, 0
3, 24912, Note_on_c, 9, 42, 75
3, 24958, Note_on_c, 9, 42, 0
3, 24960, Note_on_c, 9, 35, 75
3, 24960, Note_on_c, 9, 42, 75
3, 25120, Note_on_c, 9, 35, 0
3, 25120, Note_on_c, 9, 42, 0
3, 25152, Note_on_c, 9, 42, 75
3, 25294, Note_on_c, 9, 42, 0
3, 25296, Note_on_c, 9, 42, 75
3, 25342, Note_on_c, 9, 42, 0
3, 25344, Note_on_c, 9, 35, 75
3, 25344, Note_on_c, 9, 42, 75
3, 25504, Note_on_c, 9, 35, 0
3, 25504, Note_on_c, 9, 42, 0
3, 25536, Note_on_c, 9, 42, 75
3, 25678, Note_on_c, 9, 42, 0
3, 25680, Note_on_c, 9, 42, 75
3, 25726, Note_on_c, 9, 42, 0
3, 25728, Note_on_c, 9, 35, 75
3, 25728, Note_on_c, 9, 42, 75
3, 25888, Note_on_c, 9, 35, 0
3, 25888, Note_on_c, 9, 42, 0
3, 25920, Note_on_c, 9, 42, 75
3, 26062, Note_on_c, 9, 42, 0
3, 26064, Note_on_c, 9, 42, 75
3, 26110, Note_on_c, 9, 42, 0
3, 26112, Note_on_c, 9, 35, 75
3, 26112, Note_on_c, 9, 42, 75
3, 26272, Note_on_c, 9, 35, 0
3, 26272, Note_on_c, 9, 42, 0
3, 26304, Note_on_c, 9, 37, 75
3, 26304, Note_on_c, 9, 42, 75
3, 26446, Note_on_c, 9, 37, 0
3, 26446, Note_on_c, 9, 42, 0
3, 26448, Note_on_c, 9, 42, 75
3, 26494, Note_on_c, 9, 42, 0
3, 26496, Note_on_c, 9, 35, 75
3, 26496, Note_on_c, 9, 42, 75
3, 26656, Note_on_c, 9, 35, 0
3, 26656, Note_on_c, 9, 42, 0
3, 26688, Note_on_c, 9, 42, 75
3, 26830, Note_on_c, 9, 42, 0
3, 26832, Note_on_c, 9, 42, 75
3, 26878, Note_on_c, 9, 42, 0
3, 26880, Note_on_c, 9, 35, 75
3, 26880, Note_on_c, 9, 42, 75
3, 27040, Note_on_c, 9, 35, 0
3, 27040, Note_on_c, 9, 42, 0
3, 27072, Note_on_c, 9, 42, 75
3, 27214, Note_on_c, 9, 42, 0
3, 27216, Note_on_c, 9, 42, 75
3, 27262, Note_on_c, 9, 42, 0
3, 27264, Note_on_c, 9, 35, 75
3, 27264, Note_on_c, 9, 42, 75
3, 27424, Note_on_c, 9, 35, 0
3, 27424, Note_on_c, 9, 42, 0
3, 27456, Note_on_c, 9, 42, 75
3, 27598, Note_on_c, 9, 42, 0
3, 27600, Note_on_c, 9, 42, 75
3, 27646, Note_on_c, 9, 42, 0
3, 27648, Note_on_c, 9, 35, 75
3, 27648, Note_on_c, 9, 42, 75
3, 27808, Note_on_c, 9, 35, 0
3, 27808, Note_on_c, 9, 42, 0
3, 27840, Note_on_c, 9, 37, 75
3, 27840, Note_on_c, 9, 42, 75
3, 27982, Note_on_c, 9, 37, 0
3, 27982, Note_on_c, 9, 42, 0
3, 27984, Note_on_c, 9, 42, 75
3, 28030, Note_on_c, 9, 42, 0
3, 28032, Note_on_c, 9, 35, 75
3, 28032, Note_on_c, 9, 38, 75
3, 28032, Note_on_c, 9, 42, 75
3, 28032, Note_on_c, 9, 49, 75
3, 28192, Note_on_c, 9, 35, 0
3, 28192, Note_on_c, 9, 38, 0
3, 28192, Note_on_c, 9, 42, 0
3, 28192, Note_on_c, 9, 49, 0
3, 28224, Note_on_c, 9, 42, 75
3, 28366, Note_on_c, 9, 42, 0
3, 28368, Note_on_c, 9, 42, 75
3, 28414, Note_on_c, 9, 42, 0
3, 28416, Note_on_c, 9, 35, 75
3, 28416, Note_on_c, 9, 42, 75
3, 28576, Note_on_c, 9, 35, 0
3, 28576, Note_on_c, 9, 42, 0
3, 28608, Note_on_c, 9, 42, 75
3, 28750, Note_on_c, 9, 42, 0
3, 28752, Note_on_c, 9, 42, 75
3, 28798, Note_on_c, 9, 42, 0
3, 28800, Note_on_c, 9, 35, 75
3, 28800, Note_on_c, 9, 42, 75
3, 28960, Note_on_c, 9, 35, 0
3, 28960, Note_on_c, 9, 42, 0
3, 28992, Note_on_c, 9, 42, 75
3, 29134, Note_on_c, 9, 42, 0
3, 29136, Note_on_c, 9, 42, 75
3, 29182, Note_on_c, 9, 42, 0
3, 29184, Note_on_c, 9, 35, 75
3, 29184, Note_on_c, 9, 42, 75
3, 29344, Note_on_c, 9, 35, 0
3, 29344, Note_on_c, 9, 42, 0
3, 29376, Note_on_c, 9, 37, 75
3, 29376, Note_on_c, 9, 42, 75
3, 29518, Note_on_c, 9, 37, 0
3, 29518, Note_on_c, 9, 42, 0
3, 29520, Note_on_c, 9, 42, 75
3, 29566, Note_on_c, 9, 42, 0
3, 29568, Note_on_c, 9, 35, 75
3, 29568, Note_on_c, 9, 42, 75
3, 29728, Note_on_c, 9, 35, 0
3, 29728, Note_on_c, 9, 42, 0
3, 29760, Note_on_c, 9, 42, 75
3, 29902, Note_on_c, 9, 42, 0
3, 29904, Note_on_c, 9, 42, 75
3, 29950, Note_on_c, 9, 42, 0
3, 29952, Note_on_c, 9, 35, 75
3, 29952, Note_on_c, 9, 42, 75
3, 30112, Note_on_c, 9, 35, 0
3, 30112, Note_on_c, 9, 42, 0
3, 30144, Note_on_c, 9, 42, 75
3, 30286, Note_on_c, 9, 42, 0
3, 30288, Note_on_c, 9, 42, 75
3, 30334, Note_on_c, 9, 42, 0
3, 30336, Note_on_c, 9, 35, 75
3, 30336, Note_on_c, 9, 42, 75
3, 30496, Note_on_c, 9, 35, 0
3, 30496, Note_on_c, 9, 42, 0
3, 30528, Note_on_c, 9, 42, 75
3, 30670, Note_on_c, 9, 42, 0
3, 30672, Note_on_c, 9, 42, 75
3, 30718, Note_on_c, 9, 42, 0
3, 30720, Note_on_c, 9, 35, 75
3, 30720, Note_on_c, 9, 42, 75
3, 30880, Note_on_c, 9, 35, 0
3, 30880, Note_on_c, 9, 42, 0
3, 30912, Note_on_c, 9, 37, 75
3, 30912, Note_on_c, 9, 42, 75
3, 31054, Note_on_c, 9, 37, 0
3, 31054, Note_on_c, 9, 42, 0
3, 31056, Note_on_c, 9, 42, 75
3, 31102, Note_on_c, 9, 42, 0
3, 31104, Note_on_c, 9, 35, 75
3, 31104, Note_on_c, 9, 42, 75
3, 31264, Note_on_c, 9, 35, 0
3, 31264, Note_on_c, 9, 42, 0
3, 31296, Note_on_c, 9, 42, 75
3, 31438, Note_on_c, 9, 42, 0
3, 31440, Note_on_c, 9, 42, 75
3, 31486, Note_on_c, 9, 42, 0
3, 31488, Note_on_c, 9, 35, 75
3, 31488, Note_on_c, 9, 42, 75
3, 31648, Note_on_c, 9, 35, 0
3, 31648, Note_on_c, 9, 42, 0
3, 31680, Note_on_c, 9, 42, 75
3, 31822, Note_on_c, 9, 42, 0
3, 31824, Note_on_c, 9, 42, 75
3, 31870, Note_on_c, 9, 42, 0
3, 31872, Note_on_c, 9, 35, 75
3, 31872, Note_on_c, 9, 42, 75
3, 32032, Note_on_c, 9, 35, 0
3, 32032, Note_on_c, 9, 42, 0
3, 32064, Note_on_c, 9, 42, 75
3, 32206, Note_on_c, 9, 42, 0
3, 32208, Note_on_c, 9, 42, 75
3, 32254, Note_on_c, 9, 42, 0
3, 32256, Note_on_c, 9, 35, 75
3, 32256, Note_on_c, 9, 42, 75
3, 32416, Note_on_c, 9, 35, 0
3, 32416, Note_on_c, 9, 42, 0
3, 32448, Note_on_c, 9, 37, 75
3, 32448, Note_on_c, 9, 42, 75
3, 32590, Note_on_c, 9, 37, 0
3, 32590, Note_on_c, 9, 42, 0
3, 32592, Note_on_c, 9, 42, 75
3, 32638, Note_on_c, 9, 42, 0
3, 32640, Note_on_c, 9, 35, 75
3, 32640, Note_on_c, 9, 42, 75
3, 32800, Note_on_c, 9, 35, 0
3, 32800, Note_on_c, 9, 42, 0
3, 32832, Note_on_c, 9, 42, 75
3, 32974, Note_on_c, 9, 42, 0
3, 32976, Note_on_c, 9, 42, 75
3, 33022, Note_on_c, 9, 42, 0
3, 33024, Note_on_c, 9, 35, 75
3, 33024, Note_on_c, 9, 42, 75
3, 33184, Note_on_c, 9, 35, 0
3, 33184, Note_on_c, 9, 42, 0
3, 33216, Note_on_c, 9, 42, 75
3, 33358, Note_on_c, 9, 42, 0
3, 33360, Note_on_c, 9, 42, 75
3, 33406, Note_on_c, 9, 42, 0
3, 33408, Note_on_c, 9, 35, 75
3, 33408, Note_on_c, 9, 42, 75
3, 33568, Note_on_c, 9, 35, 0
3, 33568, Note_on_c, 9, 42, 0
3, 33600, Note_on_c, 9, 42, 75
3, 33742, Note_on_c, 9, 42, 0
3, 33744, Note_on_c, 9, 42, 75
3, 33790, Note_on_c, 9, 42, 0
3, 33792, Note_on_c, 9, 35, 75
3, 33792, Note_on_c, 9, 42, 75
3, 33934, Note_on_c, 9, 35, 0
3, 33934, Note_on_c, 9, 42, 0
3, 33936, Note_on_c, 9, 38, 75
3, 33982, Note_on_c, 9, 38, 0
3, 33984, Note_on_c, 9, 37, 75
3, 33984, Note_on_c, 9, 38, 75
3, 33984, Note_on_c, 9, 42, 75
3, 34126, Note_on_c, 9, 37, 0
3, 34126, Note_on_c, 9, 38, 0
3, 34126, Note_on_c, 9, 42, 0
3, 34128, Note_on_c, 9, 42, 75
3, 34174, Note_on_c, 9, 42, 0
3, 34176, Note_on_c, 9, 35, 75
3, 34176, Note_on_c, 9, 42, 75
3, 34336, Note_on_c, 9, 35, 0
3, 34336, Note_on_c, 9, 42, 0
3, 34368, Note_on_c, 9, 42, 75
3, 34510, Note_on_c, 9, 42, 0
3, 34512, Note_on_c, 9, 42, 75
3, 34558, Note_on_c, 9, 42, 0
3, 34560, Note_on_c, 9, 35, 75
3, 34560, Note_on_c, 9, 42, 75
3, 34720, Note_on_c, 9, 35, 0
3, 34720, Note_on_c, 9, 42, 0
3, 34752, Note_on_c, 9, 42, 75
3, 34894, Note_on_c, 9, 42, 0
3, 34896, Note_on_c, 9, 42, 75
3, 34942, Note_on_c, 9, 42, 0
3, 34944, Note_on_c, 9, 35, 75
3, 34944, Note_on_c, 9, 42, 75
3, 35104, Note_on_c, 9, 35, 0
3, 35104, Note_on_c, 9, 42, 0
3, 35136, Note_on_c, 9, 42, 75
3, 35278, Note_on_c, 9, 42, 0
3, 35280, Note_on_c, 9, 42, 75
3, 35326, Note_on_c, 9, 42, 0
3, 35328, Note_on_c, 9, 35, 75
3, 35328, Note_on_c, 9, 42, 75
3, 35488, Note_on_c, 9, 35, 0
3, 35488, Note_on_c, 9, 42, 0
3, 35520, Note_on_c, 9, 37, 75
3, 35520, Note_on_c, 9, 42, 75
3, 35662, Note_on_c, 9, 37, 0
3, 35662, Note_on_c, 9, 42, 0
3, 35664, Note_on_c, 9, 42, 75
3, 35710, Note_on_c, 9, 42, 0
3, 35712, Note_on_c, 9, 35, 75
3, 35712, Note_on_c, 9, 42, 75
3, 35872, Note_on_c, 9, 35, 0
3, 35872, Note_on_c, 9, 42, 0
3, 35904, Note_on_c, 9, 42, 75
3, 36046, Note_on_c, 9, 42, 0
3, 36048, Note_on_c, 9, 42, 75
3, 36094, Note_on_c, 9, 42, 0
3, 36096, Note_on_c, 9, 35, 75
3, 36096, Note_on_c, 9, 42, 75
3, 36256, Note_on_c, 9, 35, 0
3, 36256, Note_on_c, 9, 42, 0
3, 36288, Note_on_c, 9, 42, 75
3, 36430, Note_on_c, 9, 42, 0
3, 36432, Note_on_c, 9, 42, 75
3, 36478, Note_on_c, 9, 42, 0
3, 36480, Note_on_c, 9, 35, 75
3, 36480, Note_on_c, 9, 42, 75
3, 36640, Note_on_c, 9, 35, 0
3, 36640, Note_on_c, 9, 42, 0
3, 36672, Note_on_c, 9, 42, 75
3, 36814, Note_on_c, 9, 42, 0
3, 36816, Note_on_c, 9, 42, 75
3, 36862, Note_on_c, 9, 42, 0
3, 36864, Note_on_c, 9, 35, 75
3, 36864, Note_on_c, 9, 42, 75
3, 37006, Note_on_c, 9, 35, 0
3, 37006, Note_on_c, 9, 42, 0
3, 37008, Note_on_c, 9, 38, 75
3, 37054, Note_on_c, 9, 38, 0
3, 37056, Note_on_c, 9, 37, 75
3, 37056, Note_on_c, 9, 38, 75
3, 37056, Note_on_c, 9, 42, 75
3, 37198, Note_on_c, 9, 37, 0
3, 37198, Note_on_c, 9, 38, 0
3, 37198, Note_on_c, 9, 42, 0
3, 37200, Note_on_c, 9, 42, 75
3, 37246, Note_on_c, 9, 42, 0
3, 37248, Note_on_c, 9, 35, 75
3, 37248, Note_on_c, 9, 42, 75
3, 37408, Note_on_c, 9, 35, 0
3, 37408, Note_on_c, 9, 42, 0
3, 37440, Note_on_c, 9, 42, 75
3, 37582, Note_on_c, 9, 42, 0
3, 37584, Note_on_c, 9, 42, 75
3, 37630, Note_on_c, 9, 42, 0
3, 37632, Note_on_c, 9, 35, 75
3, 37632, Note_on_c, 9, 42, 75
3, 37792, Note_on_c, 9, 35, 0
3, 37792, Note_on_c, 9, 42, 0
3, 37824, Note_on_c, 9, 42, 75
3, 37966, Note_on_c, 9, 42, 0
3, 37968, Note_on_c, 9, 42, 75
3, 38014, Note_on_c, 9, 42, 0
3, 38016, Note_on_c, 9, 35, 75
3, 38016, Note_on_c, 9, 42, 75
3, 38176, Note_on_c, 9, 35, 0
3, 38176, Note_on_c, 9, 42, 0
3, 38208, Note_on_c, 9, 42, 75
3, 38350, Note_on_c, 9, 42, 0
3, 38352, Note_on_c, 9, 42, 75
3, 38398, Note_on_c, 9, 42, 0
3, 38400, Note_on_c, 9, 35, 75
3, 38400, Note_on_c, 9, 42, 75
3, 38560, Note_on_c, 9, 35, 0
3, 38560, Note_on_c, 9, 42, 0
3, 38592, Note_on_c, 9, 37, 75
3, 38592, Note_on_c, 9, 42, 75
3, 38734, Note_on_c, 9, 37, 0
3, 38734, Note_on_c, 9, 42, 0
3, 38736, Note_on_c, 9, 42, 75
3, 38782, Note_on_c, 9, 42, 0
3, 38784, Control_c, 9, 7, 64
3, 38784, Note_on_c, 9, 35, 75
3, 38784, Note_on_c, 9, 42, 75
3, 38944, Note_on_c, 9, 35, 0
3, 38944, Note_on_c, 9, 42, 0
3, 38976, Note_on_c, 9, 42, 75
3, 39118, Note_on_c, 9, 42, 0
3, 39120, Note_on_c, 9, 42, 75
3, 39166, Note_on_c, 9, 42, 0
3, 39168, Note_on_c, 9, 35, 75
3, 39168, Note_on_c, 9, 42, 75
3, 39328, Note_on_c, 9, 35, 0
3, 39328, Note_on_c, 9, 42, 0
3, 39360, Note_on_c, 9, 42, 75
3, 39502, Note_on_c, 9, 42, 0
3, 39504, Note_on_c, 9, 42, 75
3, 39550, Note_on_c, 9, 42, 0
3, 39552, Note_on_c, 9, 35, 75
3, 39552, Note_on_c, 9, 42, 75
3, 39712, Note_on_c, 9, 35, 0
3, 39712, Note_on_c, 9, 42, 0
3, 39744, Note_on_c, 9, 42, 75
3, 39886, Note_on_c, 9, 42, 0
3, 39888, Note_on_c, 9, 42, 75
3, 39934, Note_on_c, 9, 42, 0
3, 39936, Note_on_c, 9, 35, 75
3, 39936, Note_on_c, 9, 42, 75
3, 40096, Note_on_c, 9, 35, 0
3, 40096, Note_on_c, 9, 42, 0
3, 40128, Note_on_c, 9, 37, 75
3, 40128, Note_on_c, 9, 42, 75
3, 40270, Note_on_c, 9, 37, 0
3, 40270, Note_on_c, 9, 42, 0
3, 40272, Note_on_c, 9, 42, 75
3, 40318, Note_on_c, 9, 42, 0
3, 40320, Note_on_c, 9, 35, 75
3, 40320, Note_on_c, 9, 42, 75
3, 40480, Note_on_c, 9, 35, 0
3, 40480, Note_on_c, 9, 42, 0
3, 40512, Note_on_c, 9, 42, 75
3, 40654, Note_on_c, 9, 42, 0
3, 40656, Note_on_c, 9, 42, 75
3, 40702, Note_on_c, 9, 42, 0
3, 40704, Note_on_c, 9, 35, 75
3, 40704, Note_on_c, 9, 42, 75
3, 40864, Note_on_c, 9, 35, 0
3, 40864, Note_on_c, 9, 42, 0
3, 40896, Note_on_c, 9, 42, 75
3, 41038, Note_on_c, 9, 42, 0
3, 41040, Note_on_c, 9, 42, 75
3, 41086, Note_on_c, 9, 42, 0
3, 41088, Note_on_c, 9, 35, 75
3, 41088, Note_on_c, 9, 42, 75
3, 41248, Note_on_c, 9, 35, 0
3, 41248, Note_on_c, 9, 42, 0
3, 41280, Note_on_c, 9, 42, 75
3, 41422, Note_on_c, 9, 42, 0
3, 41424, Note_on_c, 9, 42, 75
3, 41470, Note_on_c, 9, 42, 0
3, 41472, Note_on_c, 9, 35, 75
3, 41472, Note_on_c, 9, 42, 75
3, 41632, Note_on_c, 9, 35, 0
3, 41632, Note_on_c, 9, 42, 0
3, 41664, Note_on_c, 9, 37, 75
3, 41664, Note_on_c, 9, 42, 75
3, 41806, Note_on_c, 9, 37, 0
3, 41806, Note_on_c, 9, 42, 0
3, 41808, Note_on_c, 9, 42, 75
3, 41854, Note_on_c, 9, 42, 0
3, 41856, Note_on_c, 9, 35, 75
3, 41856, Note_on_c, 9, 42, 75
3, 42016, Note_on_c, 9, 35, 0
3, 42016, Note_on_c, 9, 42, 0
3, 42048, Note_on_c, 9, 42, 75
3, 42190, Note_on_c, 9, 42, 0
3, 42192, Note_on_c, 9, 42, 75
3, 42238, Note_on_c, 9, 42, 0
3, 42240, Note_on_c, 9, 38, 75
3, 42240, Note_on_c, 9, 42, 75
3, 42382, Note_on_c, 9, 38, 0
3, 42382, Note_on_c, 9, 42, 0
3, 42384, Note_on_c, 9, 38, 75
3, 42430, Note_on_c, 9, 38, 0
3, 42432, Note_on_c, 9, 37, 75
3, 42432, Note_on_c, 9, 42, 75
3, 42574, Note_on_c, 9, 37, 0
3, 42574, Note_on_c, 9, 42, 0
3, 42576, Note_on_c, 9, 42, 75
3, 42622, Note_on_c, 9, 42, 0
3, 42624, Control_c, 9, 7, 127
3, 42624, Note_on_c, 9, 35, 75
3, 42624, Note_on_c, 9, 51, 75
3, 42784, Note_on_c, 9, 35, 0
3, 42784, Note_on_c, 9, 51, 0
3, 42816, Note_on_c, 9, 51, 75
3, 42976, Note_on_c, 9, 51, 0
3, 43008, Note_on_c, 9, 51, 75
3, 43168, Note_on_c, 9, 51, 0
3, 43200, Note_on_c, 9, 37, 75
3, 43200, Note_on_c, 9, 51, 75
3, 43360, Note_on_c, 9, 37, 0
3, 43360, Note_on_c, 9, 51, 0
3, 43392, Note_on_c, 9, 35, 75
3, 43392, Note_on_c, 9, 51, 75
3, 43552, Note_on_c, 9, 35, 0
3, 43552, Note_on_c, 9, 51, 0
3, 43584, Note_on_c, 9, 51, 75
3, 43744, Note_on_c, 9, 51, 0
3, 43776, Note_on_c, 9, 51, 75
3, 43936, Note_on_c, 9, 51, 0
3, 43968, Note_on_c, 9, 37, 75
3, 43968, Note_on_c, 9, 51, 75
3, 44128, Note_on_c, 9, 37, 0
3, 44128, Note_on_c, 9, 51, 0
3, 44160, Note_on_c, 9, 35, 75
3, 44160, Note_on_c, 9, 51, 75
3, 44320, Note_on_c, 9, 35, 0
3, 44320, Note_on_c, 9, 51, 0
3, 44352, Note_on_c, 9, 51, 75
3, 44494, Note_on_c, 9, 51, 0
3, 44496, Note_on_c, 9, 51, 75
3, 44542, Note_on_c, 9, 51, 0
3, 44544, Note_on_c, 9, 51, 75
3, 44704, Note_on_c, 9, 51, 0
3, 44736, Note_on_c, 9, 37, 75
3, 44736, Note_on_c, 9, 51, 75
3, 44878, Note_on_c, 9, 37, 0
3, 44878, Note_on_c, 9, 51, 0
3, 44880, Note_on_c, 9, 51, 75
3, 44926, Note_on_c, 9, 51, 0
3, 44928, Note_on_c, 9, 35, 75
3, 44928, Note_on_c, 9, 51, 75
3, 45070, Note_on_c, 9, 35, 0
3, 45070, Note_on_c, 9, 51, 0
3, 45072, Note_on_c, 9, 51, 75
3, 45118, Note_on_c, 9, 51, 0
3, 45120, Note_on_c, 9, 51, 75
3, 45262, Note_on_c, 9, 51, 0
3, 45264, Note_on_c, 9, 51, 75
3, 45310, Note_on_c, 9, 51, 0
3, 45312, Note_on_c, 9, 35, 75
3, 45312, Note_on_c, 9, 51, 75
3, 45454, Note_on_c, 9, 35, 0
3, 45454, Note_on_c, 9, 51, 0
3, 45456, Note_on_c, 9, 38, 75
3, 45502, Note_on_c, 9, 38, 0
3, 45504, Note_on_c, 9, 37, 75
3, 45504, Note_on_c, 9, 38, 75
3, 45504, Note_on_c, 9, 51, 75
3, 45646, Note_on_c, 9, 37, 0
3, 45646, Note_on_c, 9, 38, 0
3, 45646, Note_on_c, 9, 51, 0
3, 45648, Note_on_c, 9, 51, 75
3, 45694, Note_on_c, 9, 51, 0
3, 45696, Note_on_c, 9, 35, 75
3, 45696, Note_on_c, 9, 51, 75
3, 45856, Note_on_c, 9, 35, 0
3, 45856, Note_on_c, 9, 51, 0
3, 45888, Note_on_c, 9, 51, 75
3, 46030, Note_on_c, 9, 51, 0
3, 46032, Note_on_c, 9, 51, 75
3, 46078, Note_on_c, 9, 51, 0
3, 46080, Note_on_c, 9, 51, 75
3, 46240, Note_on_c, 9, 51, 0
3, 46272, Note_on_c, 9, 37, 75
3, 46272, Note_on_c, 9, 51, 75
3, 46414, Note_on_c, 9, 37, 0
3, 46414, Note_on_c, 9, 51, 0
3, 46416, Note_on_c, 9, 51, 75
3, 46462, Note_on_c, 9, 51, 0
3, 46464, Note_on_c, 9, 35, 75
3, 46464, Note_on_c, 9, 51, 75
3, 46624, Note_on_c, 9, 35, 0
3, 46624, Note_on_c, 9, 51, 0
3, 46656, Note_on_c, 9, 51, 75
3, 46816, Note_on_c, 9, 51, 0
3, 46848, Note_on_c, 9, 51, 75
3, 47008, Note_on_c, 9, 51, 0
3, 47040, Note_on_c, 9, 37, 75
3, 47040, Note_on_c, 9, 51, 75
3, 47200, Note_on_c, 9, 37, 0
3, 47200, Note_on_c, 9, 51, 0
3, 47232, Note_on_c, 9, 35, 75
3, 47232, Note_on_c, 9, 51, 75
3, 47392, Note_on_c, 9, 35, 0
3, 47392, Note_on_c, 9, 51, 0
3, 47424, Note_on_c, 9, 51, 75
3, 47584, Note_on_c, 9, 51, 0
3, 47616, Note_on_c, 9, 51, 75
3, 47776, Note_on_c, 9, 51, 0
3, 47808, Note_on_c, 9, 37, 75
3, 47808, Note_on_c, 9, 51, 75
3, 47968, Note_on_c, 9, 37, 0
3, 47968, Note_on_c, 9, 51, 0
3, 48000, Note_on_c, 9, 35, 75
3, 48000, Note_on_c, 9, 51, 75
3, 48160, Note_on_c, 9, 35, 0
3, 48160, Note_on_c, 9, 51, 0
3, 48192, Note_on_c, 9, 51, 75
3, 48352, Note_on_c, 9, 51, 0
3, 48384, Note_on_c, 9, 51, 75
3, 48544, Note_on_c, 9, 51, 0
3, 48576, Note_on_c, 9, 37, 75
3, 48576, Note_on_c, 9, 51, 75
3, 48718, Note_on_c, 9, 37, 0
3, 48718, Note_on_c, 9, 51, 0
3, 48720, Note_on_c, 9, 51, 75
3, 48766, Note_on_c, 9, 51, 0
3, 48768, Note_on_c, 9, 35, 75
3, 48768, Note_on_c, 9, 51, 75
3, 48910, Note_on_c, 9, 35, 0
3, 48910, Note_on_c, 9, 51, 0
3, 48912, Note_on_c, 9, 51, 75
3, 48958, Note_on_c, 9, 51, 0
3, 48960, Note_on_c, 9, 51, 75
3, 49120, Note_on_c, 9, 51, 0
3, 49152, Note_on_c, 9, 51, 75
3, 49312, Note_on_c, 9, 51, 0
3, 49344, Note_on_c, 9, 37, 75
3, 49344, Note_on_c, 9, 51, 75
3, 49486, Note_on_c, 9, 37, 0
3, 49486, Note_on_c, 9, 51, 0
3, 49488, Note_on_c, 9, 51, 75
3, 49534, Note_on_c, 9, 51, 0
3, 49536, Note_on_c, 9, 35, 75
3, 49536, Note_on_c, 9, 51, 75
3, 49696, Note_on_c, 9, 35, 0
3, 49696, Note_on_c, 9, 51, 0
3, 49728, Note_on_c, 9, 51, 75
3, 49888, Note_on_c, 9, 51, 0
3, 49920, Note_on_c, 9, 51, 75
3, 50080, Note_on_c, 9, 51, 0
3, 50112, Note_on_c, 9, 37, 75
3, 50112, Note_on_c, 9, 51, 75
3, 50254, Note_on_c, 9, 37, 0
3, 50254, Note_on_c, 9, 51, 0
3, 50256, Note_on_c, 9, 51, 75
3, 50302, Note_on_c, 9, 51, 0
3, 50304, Note_on_c, 9, 35, 75
3, 50304, Note_on_c, 9, 51, 75
3, 50446, Note_on_c, 9, 35, 0
3, 50446, Note_on_c, 9, 51, 0
3, 50448, Note_on_c, 9, 51, 75
3, 50494, Note_on_c, 9, 51, 0
3, 50496, Note_on_c, 9, 51, 75
3, 50656, Note_on_c, 9, 51, 0
3, 50688, Note_on_c, 9, 51, 75
3, 50848, Note_on_c, 9, 51, 0
3, 50880, Note_on_c, 9, 37, 75
3, 50880, Note_on_c, 9, 51, 75
3, 51022, Note_on_c, 9, 37, 0
3, 51022, Note_on_c, 9, 51, 0
3, 51024, Note_on_c, 9, 51, 75
3, 51070, Note_on_c, 9, 51, 0
3, 51072, Note_on_c, 9, 35, 75
3, 51072, Note_on_c, 9, 51, 75
3, 51214, Note_on_c, 9, 35, 0
3, 51214, Note_on_c, 9, 51, 0
3, 51216, Note_on_c, 9, 51, 75
3, 51262, Note_on_c, 9, 51, 0
3, 51264, Note_on_c, 9, 51, 75
3, 51424, Note_on_c, 9, 51, 0
3, 51456, Note_on_c, 9, 51, 75
3, 51616, Note_on_c, 9, 51, 0
3, 51648, Note_on_c, 9, 37, 75
3, 51648, Note_on_c, 9, 51, 75
3, 51790, Note_on_c, 9, 37, 0
3, 51790, Note_on_c, 9, 51, 0
3, 51792, Note_on_c, 9, 51, 75
3, 51838, Note_on_c, 9, 51, 0
3, 51840, Note_on_c, 9, 35, 75
3, 51840, Note_on_c, 9, 51, 75
3, 51982, Note_on_c, 9, 35, 0
3, 51982, Note_on_c, 9, 51, 0
3, 51984, Note_on_c, 9, 51, 75
3, 52030, Note_on_c, 9, 51, 0
3, 52032, Note_on_c, 9, 51, 75
3, 52192, Note_on_c, 9, 51, 0
3, 52224, Note_on_c, 9, 51, 75
3, 52384, Note_on_c, 9, 51, 0
3, 52416, Note_on_c, 9, 37, 75
3, 52416, Note_on_c, 9, 51, 75
3, 52558, Note_on_c, 9, 37, 0
3, 52558, Note_on_c, 9, 51, 0
3, 52560, Note_on_c, 9, 51, 75
3, 52606, Note_on_c, 9, 51, 0
3, 52608, Note_on_c, 9, 35, 75
3, 52608, Note_on_c, 9, 51, 75
3, 52768, Note_on_c, 9, 35, 0
3, 52768, Note_on_c, 9, 51, 0
3, 52800, Note_on_c, 9, 51, 75
3, 52960, Note_on_c, 9, 51, 0
3, 52992, Note_on_c, 9, 51, 75
3, 53152, Note_on_c, 9, 51, 0
3, 53184, Note_on_c, 9, 37, 75
3, 53184, Note_on_c, 9, 51, 75
3, 53326, Note_on_c, 9, 37, 0
3, 53326, Note_on_c, 9, 51, 0
3, 53328, Note_on_c, 9, 51, 75
3, 53374, Note_on_c, 9, 51, 0
3, 53376, Note_on_c, 9, 35, 75
3, 53376, Note_on_c, 9, 51, 75
3, 53536, Note_on_c, 9, 35, 0
3, 53536, Note_on_c, 9, 51, 0
3, 53568, Note_on_c, 9, 51, 75
3, 53728, Note_on_c, 9, 51, 0
3, 53760, Note_on_c, 9, 51, 75
3, 53920, Note_on_c, 9, 51, 0
3, 53952, Note_on_c, 9, 37, 75
3, 53952, Note_on_c, 9, 51, 75
3, 54112, Note_on_c, 9, 37, 0
3, 54112, Note_on_c, 9, 51, 0
3, 54144, Note_on_c, 9, 35, 75
3, 54144, Note_on_c, 9, 51, 75
3, 54304, Note_on_c, 9, 35, 0
3, 54304, Note_on_c, 9, 51, 0
3, 54336, Note_on_c, 9, 51, 75
3, 54496, Note_on_c, 9, 51, 0
3, 54528, Note_on_c, 9, 51, 75
3, 54688, Note_on_c, 9, 51, 0
3, 54720, Note_on_c, 9, 37, 75
3, 54720, Note_on_c, 9, 51, 75
3, 54880, Note_on_c, 9, 37, 0
3, 54880, Note_on_c, 9, 51, 0
3, 54912, Note_on_c, 9, 35, 75
3, 54912, Note_on_c, 9, 51, 75
3, 55072, Note_on_c, 9, 35, 0
3, 55072, Note_on_c, 9, 51, 0
3, 55104, Note_on_c, 9, 51, 75
3, 55264, Note_on_c, 9, 51, 0
3, 55296, Note_on_c, 9, 51, 75
3, 55456, Note_on_c, 9, 51, 0
3, 55488, Note_on_c, 9, 37, 75
3, 55488, Note_on_c, 9, 51, 75
3, 55630, Note_on_c, 9, 37, 0
3, 55630, Note_on_c, 9, 51, 0
3, 55632, Note_on_c, 9, 51, 75
3, 55678, Note_on_c, 9, 51, 0
3, 55680, Note_on_c, 9, 35, 75
3, 55680, Note_on_c, 9, 51, 75
3, 55840, Note_on_c, 9, 35, 0
3, 55840, Note_on_c, 9, 51, 0
3, 55872, Note_on_c, 9, 51, 75
3, 56032, Note_on_c, 9, 51, 0
3, 56064, Note_on_c, 9, 51, 75
3, 56224, Note_on_c, 9, 51, 0
3, 56256, Note_on_c, 9, 37, 75
3, 56256, Note_on_c, 9, 51, 75
3, 56398, Note_on_c, 9, 37, 0
3, 56398, Note_on_c, 9, 51, 0
3, 56400, Note_on_c, 9, 51, 75
3, 56446, Note_on_c, 9, 51, 0
3, 56448, Note_on_c, 9, 35, 75
3, 56448, Note_on_c, 9, 51, 75
3, 56608, Note_on_c, 9, 35, 0
3, 56608, Note_on_c, 9, 51, 0
3, 56640, Note_on_c, 9, 51, 75
3, 56800, Note_on_c, 9, 51, 0
3, 56832, Note_on_c, 9, 51, 75
3, 56992, Note_on_c, 9, 51, 0
3, 57024, Note_on_c, 9, 37, 75
3, 57024, Note_on_c, 9, 51, 75
3, 57184, Note_on_c, 9, 37, 0
3, 57184, Note_on_c, 9, 51, 0
3, 57216, Note_on_c, 9, 35, 75
3, 57216, Note_on_c, 9, 51, 75
3, 57376, Note_on_c, 9, 35, 0
3, 57376, Note_on_c, 9, 51, 0
3, 57408, Note_on_c, 9, 51, 75
3, 57568, Note_on_c, 9, 51, 0
3, 57600, Note_on_c, 9, 51, 75
3, 57760, Note_on_c, 9, 51, 0
3, 57792, Note_on_c, 9, 37, 75
3, 57792, Note_on_c, 9, 51, 75
3, 57952, Note_on_c, 9, 37, 0
3, 57952, Note_on_c, 9, 51, 0
3, 57984, Note_on_c, 9, 35, 75
3, 57984, Note_on_c, 9, 51, 75
3, 58126, Note_on_c, 9, 35, 0
3, 58126, Note_on_c, 9, 51, 0
3, 58128, Note_on_c, 9, 51, 75
3, 58174, Note_on_c, 9, 51, 0
3, 58176, Note_on_c, 9, 51, 75
3, 58336, Note_on_c, 9, 51, 0
3, 58368, Note_on_c, 9, 51, 75
3, 58528, Note_on_c, 9, 51, 0
3, 58560, Note_on_c, 9, 37, 75
3, 58560, Note_on_c, 9, 51, 75
3, 58702, Note_on_c, 9, 37, 0
3, 58702, Note_on_c, 9, 51, 0
3, 58704, Note_on_c, 9, 51, 75
3, 58750, Note_on_c, 9, 51, 0
3, 58752, Note_on_c, 9, 35, 75
3, 58752, Note_on_c, 9, 51, 75
3, 58912, Note_on_c, 9, 35, 0
3, 58912, Note_on_c, 9, 51, 0
3, 58944, Note_on_c, 9, 51, 75
3, 59086, Note_on_c, 9, 51, 0
3, 59088, Note_on_c, 9, 51, 75
3, 59134, Note_on_c, 9, 51, 0
3, 59136, Note_on_c, 9, 51, 75
3, 59296, Note_on_c, 9, 51, 0
3, 59328, Note_on_c, 9, 37, 75
3, 59328, Note_on_c, 9, 51, 75
3, 59470, Note_on_c, 9, 37, 0
3, 59470, Note_on_c, 9, 51, 0
3, 59472, Note_on_c, 9, 51, 75
3, 59518, Note_on_c, 9, 51, 0
3, 59520, Note_on_c, 9, 35, 75
3, 59520, Note_on_c, 9, 51, 75
3, 59680, Note_on_c, 9, 35, 0
3, 59680, Note_on_c, 9, 51, 0
3, 59712, Note_on_c, 9, 51, 75
3, 59872, Note_on_c, 9, 51, 0
3, 59904, Note_on_c, 9, 51, 75
3, 60064, Note_on_c, 9, 51, 0
3, 60096, Note_on_c, 9, 37, 75
3, 60096, Note_on_c, 9, 51, 75
3, 60238, Note_on_c, 9, 37, 0
3, 60238, Note_on_c, 9, 51, 0
3, 60240, Note_on_c, 9, 51, 75
3, 60286, Note_on_c, 9, 51, 0
3, 60288, Note_on_c, 9, 35, 75
3, 60288, Note_on_c, 9, 51, 75
3, 60448, Note_on_c, 9, 35, 0
3, 60448, Note_on_c, 9, 51, 0
3, 60480, Note_on_c, 9, 51, 75
3, 60640, Note_on_c, 9, 51, 0
3, 60672, Note_on_c, 9, 51, 75
3, 60832, Note_on_c, 9, 51, 0
3, 60864, Note_on_c, 9, 37, 75
3, 60864, Note_on_c, 9, 51, 75
3, 61024, Note_on_c, 9, 37, 0
3, 61024, Note_on_c, 9, 51, 0
3, 61056, Note_on_c, 9, 35, 75
3, 61056, Note_on_c, 9, 51, 75
3, 61216, Note_on_c, 9, 35, 0
3, 61216, Note_on_c, 9, 51, 0
3, 61248, Note_on_c, 9, 51, 75
3, 61390, Note_on_c, 9, 51, 0
3, 61392, Note_on_c, 9, 51, 75
3, 61438, Note_on_c, 9, 51, 0
3, 61440, Note_on_c, 9, 51, 75
3, 61600, Note_on_c, 9, 51, 0
3, 61632, Note_on_c, 9, 37, 75
3, 61632, Note_on_c, 9, 51, 75
3, 61774, Note_on_c, 9, 37, 0
3, 61774, Note_on_c, 9, 51, 0
3, 61776, Note_on_c, 9, 51, 75
3, 61822, Note_on_c, 9, 51, 0
3, 61824, Note_on_c, 9, 35, 75
3, 61824, Note_on_c, 9, 51, 75
3, 61966, Note_on_c, 9, 35, 0
3, 61966, Note_on_c, 9, 51, 0
3, 61968, Note_on_c, 9, 51, 75
3, 62014, Note_on_c, 9, 51, 0
3, 62016, Note_on_c, 9, 51, 75
3, 62176, Note_on_c, 9, 51, 0
3, 62208, Note_on_c, 9, 51, 75
3, 62368, Note_on_c, 9, 51, 0
3, 62400, Note_on_c, 9, 37, 75
3, 62400, Note_on_c, 9, 51, 75
3, 62542, Note_on_c, 9, 37, 0
3, 62542, Note_on_c, 9, 51, 0
3, 62544, Note_on_c, 9, 51, 75
3, 62590, Note_on_c, 9, 51, 0
3, 62592, Note_on_c, 9, 35, 75
3, 62592, Note_on_c, 9, 51, 75
3, 62734, Note_on_c, 9, 35, 0
3, 62734, Note_on_c, 9, 51, 0
3, 62736, Note_on_c, 9, 51, 75
3, 62782, Note_on_c, 9, 51, 0
3, 62784, Note_on_c, 9, 51, 75
3, 62944, Note_on_c, 9, 51, 0
3, 62976, Note_on_c, 9, 51, 75
3, 63118, Note_on_c, 9, 51, 0
3, 63120, Note_on_c, 9, 38, 75
3, 63166, Note_on_c, 9, 38, 0
3, 63168, Note_on_c, 9, 37, 75
3, 63168, Note_on_c, 9, 38, 75
3, 63168, Note_on_c, 9, 51, 75
3, 63238, Note_on_c, 9, 37, 0
3, 63238, Note_on_c, 9, 38, 0
3, 63238, Note_on_c, 9, 51, 0
3, 63240, Note_on_c, 9, 38, 75
3, 63310, Note_on_c, 9, 38, 0
3, 63312, Note_on_c, 9, 38, 75
3, 63312, Note_on_c, 9, 51, 75
3, 63358, Note_on_c, 9, 38, 0
3, 63358, Note_on_c, 9, 51, 0
3, 63360, Note_on_c, 9, 35, 75
3, 63360, Note_on_c, 9, 42, 75
3, 63520, Note_on_c, 9, 35, 0
3, 63520, Note_on_c, 9, 42, 0
3, 63552, Note_on_c, 9, 42, 75
3, 63694, Note_on_c, 9, 42, 0
3, 63696, Note_on_c, 9, 42, 75
3, 63742, Note_on_c, 9, 42, 0
3, 63744, Note_on_c, 9, 35, 75
3, 63744, Note_on_c, 9, 42, 75
3, 63904, Note_on_c, 9, 35, 0
3, 63904, Note_on_c, 9, 42, 0
3, 63936, Note_on_c, 9, 42, 75
3, 64078, Note_on_c, 9, 42, 0
3, 64080, Note_on_c, 9, 42, 75
3, 64126, Note_on_c, 9, 42, 0
3, 64128, Note_on_c, 9, 35, 75
3, 64128, Note_on_c, 9, 42, 75
3, 64288, Note_on_c, 9, 35, 0
3, 64288, Note_on_c, 9, 42, 0
3, 64320, Note_on_c, 9, 42, 75
3, 64462, Note_on_c, 9, 42, 0
3, 64464, Note_on_c, 9, 42, 75
3, 64510, Note_on_c, 9, 42, 0
3, 64512, Note_on_c, 9, 35, 75
3, 64512, Note_on_c, 9, 42, 75
3, 64672, Note_on_c, 9, 35, 0
3, 64672, Note_on_c, 9, 42, 0
3, 64704, Note_on_c, 9, 37, 75
3, 64704, Note_on_c, 9, 42, 75
3, 64846, Note_on_c, 9, 37, 0
3, 64846, Note_on_c, 9, 42, 0
3, 64848, Note_on_c, 9, 42, 75
3, 64894, Note_on_c, 9, 42, 0
3, 64896, Note_on_c, 9, 35, 75
3, 64896, Note_on_c, 9, 42, 75
3, 65056, Note_on_c, 9, 35, 0
3, 65056, Note_on_c, 9, 42, 0
3, 65088, Note_on_c, 9, 42, 75
3, 65230, Note_on_c, 9, 42, 0
3, 65232, Note_on_c, 9, 42, 75
3, 65278, Note_on_c, 9, 42, 0
3, 65280, Note_on_c, 9, 35, 75
3, 65280, Note_on_c, 9, 42, 75
3, 65440, Note_on_c, 9, 35, 0
3, 65440, Note_on_c, 9, 42, 0
3, 65472, Note_on_c, 9, 42, 75
3, 65614, Note_on_c, 9, 42, 0
3, 65616, Note_on_c, 9, 42, 75
3, 65662, Note_on_c, 9, 42, 0
3, 65664, Note_on_c, 9, 35, 75
3, 65664, Note_on_c, 9, 42, 75
3, 65824, Note_on_c, 9, 35, 0
3, 65824, Note_on_c, 9, 42, 0
3, 65856, Note_on_c, 9, 42, 75
3, 65998, Note_on_c, 9, 42, 0
3, 66000, Note_on_c, 9, 42, 75
3, 66046, Note_on_c, 9, 42, 0
3, 66048, Note_on_c, 9, 35, 75
3, 66048, Note_on_c, 9, 42, 75
3, 66190, Note_on_c, 9, 35, 0
3, 66190, Note_on_c, 9, 42, 0
3, 66192, Note_on_c, 9, 38, 75
3, 66238, Note_on_c, 9, 38, 0
3, 66240, Note_on_c, 9, 37, 75
3, 66240, Note_on_c, 9, 38, 75
3, 66240, Note_on_c, 9, 42, 75
3, 66382, Note_on_c, 9, 37, 0
3, 66382, Note_on_c, 9, 38, 0
3, 66382, Note_on_c, 9, 42, 0
3, 66384, Note_on_c, 9, 42, 75
3, 66430, Note_on_c, 9, 42, 0
3, 66432, Note_on_c, 9, 35, 75
3, 66432, Note_on_c, 9, 42, 75
3, 66592, Note_on_c, 9, 35, 0
3, 66592, Note_on_c, 9, 42, 0
3, 66624, Note_on_c, 9, 42, 75
3, 66766, Note_on_c, 9, 42, 0
3, 66768, Note_on_c, 9, 42, 75
3, 66814, Note_on_c, 9, 42, 0
3, 66816, Note_on_c, 9, 35, 75
3, 66816, Note_on_c, 9, 42, 75
3, 66976, Note_on_c, 9, 35, 0
3, 66976, Note_on_c, 9, 42, 0
3, 67008, Note_on_c, 9, 42, 75
3, 67150, Note_on_c, 9, 42, 0
3, 67152, Note_on_c, 9, 42, 75
3, 67198, Note_on_c, 9, 42, 0
3, 67200, Note_on_c, 9, 35, 75
3, 67200, Note_on_c, 9, 42, 75
3, 67360, Note_on_c, 9, 35, 0
3, 67360, Note_on_c, 9, 42, 0
3, 67392, Note_on_c, 9, 42, 75
3, 67534, Note_on_c, 9, 42, 0
3, 67536, Note_on_c, 9, 42, 75
3, 67582, Note_on_c, 9, 42, 0
3, 67584, Note_on_c, 9, 35, 75
3, 67584, Note_on_c, 9, 42, 75
3, 67744, Note_on_c, 9, 35, 0
3, 67744, Note_on_c, 9, 42, 0
3, 67776, Note_on_c, 9, 37, 75
3, 67776, Note_on_c, 9, 42, 75
3, 67918, Note_on_c, 9, 37, 0
3, 67918, Note_on_c, 9, 42, 0
3, 67920, Note_on_c, 9, 42, 75
3, 67966, Note_on_c, 9, 42, 0
3, 67968, Note_on_c, 9, 35, 75
3, 67968, Note_on_c, 9, 42, 75
3, 68128, Note_on_c, 9, 35, 0
3, 68128, Note_on_c, 9, 42, 0
3, 68160, Note_on_c, 9, 42, 75
3, 68302, Note_on_c, 9, 42, 0
3, 68304, Note_on_c, 9, 42, 75
3, 68350, Note_on_c, 9, 42, 0
3, 68352, Note_on_c, 9, 35, 75
3, 68352, Note_on_c, 9, 42, 75
3, 68512, Note_on_c, 9, 35, 0
3, 68512, Note_on_c, 9, 42, 0
3, 68544, Note_on_c, 9, 42, 75
3, 68686, Note_on_c, 9, 42, 0
3, 68688, Note_on_c, 9, 42, 75
3, 68734, Note_on_c, 9, 42, 0
3, 68736, Note_on_c, 9, 35, 75
3, 68736, Note_on_c, 9, 42, 75
3, 68896, Note_on_c, 9, 35, 0
3, 68896, Note_on_c, 9, 42, 0
3, 68928, Note_on_c, 9, 42, 75
3, 69070, Note_on_c, 9, 42, 0
3, 69072, Note_on_c, 9, 42, 75
3, 69118, Note_on_c, 9, 42, 0
3, 69120, Note_on_c, 9, 35, 75
3, 69120, Note_on_c, 9, 42, 75
3, 69280, Note_on_c, 9, 35, 0
3, 69280, Note_on_c, 9, 42, 0
3, 69312, Note_on_c, 9, 37, 75
3, 69312, Note_on_c, 9, 42, 75
3, 69454, Note_on_c, 9, 37, 0
3, 69454, Note_on_c, 9, 42, 0
3, 69456, Note_on_c, 9, 42, 75
3, 69502, Note_on_c, 9, 42, 0
3, 69504, Note_on_c, 9, 35, 75
3, 69504, Note_on_c, 9, 42, 75
3, 69664, Note_on_c, 9, 35, 0
3, 69664, Note_on_c, 9, 42, 0
3, 69696, Note_on_c, 9, 42, 75
3, 69838, Note_on_c, 9, 42, 0
3, 69840, Note_on_c, 9, 42, 75
3, 69886, Note_on_c, 9, 42, 0
3, 69888, Note_on_c, 9, 35, 75
3, 69888, Note_on_c, 9, 42, 75
3, 70048, Note_on_c, 9, 35, 0
3, 70048, Note_on_c, 9, 42, 0
3, 70080, Note_on_c, 9, 42, 75
3, 70222, Note_on_c, 9, 42, 0
3, 70224, Note_on_c, 9, 42, 75
3, 70270, Note_on_c, 9, 42, 0
3, 70272, Note_on_c, 9, 35, 75
3, 70272, Note_on_c, 9, 42, 75
3, 70432, Note_on_c, 9, 35, 0
3, 70432, Note_on_c, 9, 42, 0
3, 70464, Note_on_c, 9, 42, 75
3, 70606, Note_on_c, 9, 42, 0
3, 70608, Note_on_c, 9, 42, 75
3, 70654, Note_on_c, 9, 42, 0
3, 70656, Note_on_c, 9, 35, 75
3, 70656, Note_on_c, 9, 42, 75
3, 70816, Note_on_c, 9, 35, 0
3, 70816, Note_on_c, 9, 42, 0
3, 70848, Note_on_c, 9, 37, 75
3, 70848, Note_on_c, 9, 42, 75
3, 70990, Note_on_c, 9, 37, 0
3, 70990, Note_on_c, 9, 42, 0
3, 70992, Note_on_c, 9, 42, 75
3, 71038, Note_on_c, 9, 42, 0
3, 71040, Note_on_c, 9, 35, 75
3, 71040, Note_on_c, 9, 42, 75
3, 71200, Note_on_c, 9, 35, 0
3, 71200, Note_on_c, 9, 42, 0
3, 71232, Note_on_c, 9, 42, 75
3, 71374, Note_on_c, 9, 42, 0
3, 71376, Note_on_c, 9, 42, 75
3, 71422, Note_on_c, 9, 42, 0
3, 71424, Note_on_c, 9, 35, 75
3, 71424, Note_on_c, 9, 42, 75
3, 71584, Note_on_c, 9, 35, 0
3, 71584, Note_on_c, 9, 42, 0
3, 71616, Note_on_c, 9, 42, 75
3, 71758, Note_on_c, 9, 42, 0
3, 71760, Note_on_c, 9, 42, 75
3, 71806, Note_on_c, 9, 42, 0
3, 71808, Note_on_c, 9, 35, 75
3, 71808, Note_on_c, 9, 42, 75
3, 71968, Note_on_c, 9, 35, 0
3, 71968, Note_on_c, 9, 42, 0
3, 72000, Note_on_c, 9, 42, 75
3, 72142, Note_on_c, 9, 42, 0
3, 72144, Note_on_c, 9, 42, 75
3, 72190, Note_on_c, 9, 42, 0
3, 72192, Note_on_c, 9, 35, 75
3, 72192, Note_on_c, 9, 42, 75
3, 72334, Note_on_c, 9, 35, 0
3, 72334, Note_on_c, 9, 42, 0
3, 72336, Note_on_c, 9, 38, 75
3, 72382, Note_on_c, 9, 38, 0
3, 72384, Note_on_c, 9, 37, 75
3, 72384, Note_on_c, 9, 38, 75
3, 72384, Note_on_c, 9, 42, 75
3, 72526, Note_on_c, 9, 37, 0
3, 72526, Note_on_c, 9, 38, 0
3, 72526, Note_on_c, 9, 42, 0
3, 72528, Note_on_c, 9, 42, 75
3, 72574, Note_on_c, 9, 42, 0
3, 72576, Note_on_c, 9, 35, 75
3, 72576, Note_on_c, 9, 42, 75
3, 72736, Note_on_c, 9, 35, 0
3, 72736, Note_on_c, 9, 42, 0
3, 72768, Note_on_c, 9, 42, 75
3, 72910, Note_on_c, 9, 42, 0
3, 72912, Note_on_c, 9, 42, 75
3, 72958, Note_on_c, 9, 42, 0
3, 72960, Note_on_c, 9, 35, 75
3, 72960, Note_on_c, 9, 42, 75
3, 73120, Note_on_c, 9, 35, 0
3, 73120, Note_on_c, 9, 42, 0
3, 73152, Note_on_c, 9, 42, 75
3, 73294, Note_on_c, 9, 42, 0
3, 73296, Note_on_c, 9, 42, 75
3, 73342, Note_on_c, 9, 42, 0
3, 73344, Note_on_c, 9, 35, 75
3, 73344, Note_on_c, 9, 42, 75
3, 73504, Note_on_c, 9, 35, 0
3, 73504, Note_on_c, 9, 42, 0
3, 73536, Note_on_c, 9, 42, 75
3, 73678, Note_on_c, 9, 42, 0
3, 73680, Note_on_c, 9, 42, 75
3, 73726, Note_on_c, 9, 42, 0
3, 73728, Note_on_c, 9, 35, 75
3, 73728, Note_on_c, 9, 42, 75
3, 73888, Note_on_c, 9, 35, 0
3, 73888, Note_on_c, 9, 42, 0
3, 73920, Note_on_c, 9, 37, 75
3, 73920, Note_on_c, 9, 42, 75
3, 74062, Note_on_c, 9, 37, 0
3, 74062, Note_on_c, 9, 42, 0
3, 74064, Note_on_c, 9, 42, 75
3, 74110, Note_on_c, 9, 42, 0
3, 74112, Note_on_c, 9, 35, 75
3, 74112, Note_on_c, 9, 42, 75
3, 74272, Note_on_c, 9, 35, 0
3, 74272, Note_on_c, 9, 42, 0
3, 74304, Note_on_c, 9, 42, 75
3, 74446, Note_on_c, 9, 42, 0
3, 74448, Note_on_c, 9, 42, 75
3, 74494, Note_on_c, 9, 42, 0
3, 74496, Note_on_c, 9, 35, 75
3, 74496, Note_on_c, 9, 42, 75
3, 74656, Note_on_c, 9, 35, 0
3, 74656, Note_on_c, 9, 42, 0
3, 74688, Note_on_c, 9, 42, 75
3, 74830, Note_on_c, 9, 42, 0
3, 74832, Note_on_c, 9, 42, 75
3, 74878, Note_on_c, 9, 42, 0
3, 74880, Note_on_c, 9, 35, 75
3, 74880, Note_on_c, 9, 42, 75
3, 75040, Note_on_c, 9, 35, 0
3, 75040, Note_on_c, 9, 42, 0
3, 75072, Note_on_c, 9, 42, 75
3, 75214, Note_on_c, 9, 42, 0
3, 75216, Note_on_c, 9, 42, 75
3, 75262, Note_on_c, 9, 42, 0
3, 75264, Note_on_c, 9, 35, 75
3, 75264, Note_on_c, 9, 42, 75
3, 75424, Note_on_c, 9, 35, 0
3, 75424, Note_on_c, 9, 42, 0
3, 75456, Note_on_c, 9, 37, 75
3, 75456, Note_on_c, 9, 42, 75
3, 75598, Note_on_c, 9, 37, 0
3, 75598, Note_on_c, 9, 42, 0
3, 75600, Note_on_c, 9, 42, 75
3, 75646, Note_on_c, 9, 42, 0
3, 75648, Note_on_c, 9, 35, 75
3, 75648, Note_on_c, 9, 42, 75
3, 75808, Note_on_c, 9, 35, 0
3, 75808, Note_on_c, 9, 42, 0
3, 75840, Note_on_c, 9, 42, 75
3, 75982, Note_on_c, 9, 42, 0
3, 75984, Note_on_c, 9, 42, 75
3, 76030, Note_on_c, 9, 42, 0
3, 76032, Note_on_c, 9, 35, 75
3, 76032, Note_on_c, 9, 42, 75
3, 76192, Note_on_c, 9, 35, 0
3, 76192, Note_on_c, 9, 42, 0
3, 76224, Note_on_c, 9, 42, 75
3, 76366, Note_on_c, 9, 42, 0
3, 76368, Note_on_c, 9, 42, 75
3, 76414, Note_on_c, 9, 42, 0
3, 76416, Note_on_c, 9, 35, 75
3, 76416, Note_on_c, 9, 42, 75
3, 76576, Note_on_c, 9, 35, 0
3, 76576, Note_on_c, 9, 42, 0
3, 76608, Note_on_c, 9, 42, 75
3, 76750, Note_on_c, 9, 42, 0
3, 76752, Note_on_c, 9, 42, 75
3, 76798, Note_on_c, 9, 42, 0
3, 76800, Note_on_c, 9, 35, 75
3, 76800, Note_on_c, 9, 42, 75
3, 76960, Note_on_c, 9, 35, 0
3, 76960, Note_on_c, 9, 42, 0
3, 76992, Note_on_c, 9, 37, 75
3, 76992, Note_on_c, 9, 42, 75
3, 77134, Note_on_c, 9, 37, 0
3, 77134, Note_on_c, 9, 42, 0
3, 77136, Note_on_c, 9, 42, 75
3, 77182, Note_on_c, 9, 42, 0
3, 77184, Note_on_c, 9, 35, 75
3, 77184, Note_on_c, 9, 42, 75
3, 77344, Note_on_c, 9, 35, 0
3, 77344, Note_on_c, 9, 42, 0
3, 77376, Note_on_c, 9, 42, 75
3, 77518, Note_on_c, 9, 42, 0
3, 77520, Note_on_c, 9, 42, 75
3, 77566, Note_on_c, 9, 42, 0
3, 77568, Note_on_c, 9, 35, 75
3, 77568, Note_on_c, 9, 42, 75
3, 77728, Note_on_c, 9, 35, 0
3, 77728, Note_on_c, 9, 42, 0
3, 77760, Note_on_c, 9, 42, 75
3, 77902, Note_on_c, 9, 42, 0
3, 77904, Note_on_c, 9, 42, 75
3, 77950, Note_on_c, 9, 42, 0
3, 77952, Note_on_c, 9, 35, 75
3, 77952, Note_on_c, 9, 42, 75
3, 78112, Note_on_c, 9, 35, 0
3, 78112, Note_on_c, 9, 42, 0
3, 78144, Note_on_c, 9, 42, 75
3, 78286, Note_on_c, 9, 42, 0
3, 78288, Note_on_c, 9, 42, 75
3, 78334, Note_on_c, 9, 42, 0
3, 78336, Note_on_c, 9, 35, 75
3, 78336, Note_on_c, 9, 42, 75
3, 78496, Note_on_c, 9, 35, 0
3, 78496, Note_on_c, 9, 42, 0
3, 78528, Note_on_c, 9, 37, 75
3, 78528, Note_on_c, 9, 42, 75
3, 78670, Note_on_c, 9, 37, 0
3, 78670, Note_on_c, 9, 42, 0
3, 78672, Note_on_c, 9, 42, 75
3, 78718, Note_on_c, 9, 42, 0
3, 78720, Control_c, 9, 7, 64
3, 78720, Note_on_c, 9, 35, 75
3, 78720, Note_on_c, 9, 42, 75
3, 78880, Note_on_c, 9, 35, 0
3, 78880, Note_on_c, 9, 42, 0
3, 78912, Note_on_c, 9, 42, 75
3, 79054, Note_on_c, 9, 42, 0
3, 79056, Note_on_c, 9, 42, 75
3, 79102, Note_on_c, 9, 42, 0
3, 79104, Note_on_c, 9, 35, 75
3, 79104, Note_on_c, 9, 42, 75
3, 79264, Note_on_c, 9, 35, 0
3, 79264, Note_on_c, 9, 42, 0
3, 79296, Note_on_c, 9, 42, 75
3, 79438, Note_on_c, 9, 42, 0
3, 79440, Note_on_c, 9, 42, 75
3, 79486, Note_on_c, 9, 42, 0
3, 79488, Note_on_c, 9, 35, 75
3, 79488, Note_on_c, 9, 42, 75
3, 79648, Note_on_c, 9, 35, 0
3, 79648, Note_on_c, 9, 42, 0
3, 79680, Note_on_c, 9, 42, 75
3, 79822, Note_on_c, 9, 42, 0
3, 79824, Note_on_c, 9, 42, 75
3, 79870, Note_on_c, 9, 42, 0
3, 79872, Note_on_c, 9, 35, 75
3, 79872, Note_on_c, 9, 42, 75
3, 80032, Note_on_c, 9, 35, 0
3, 80032, Note_on_c, 9, 42, 0
3, 80064, Note_on_c, 9, 37, 75
3, 80064, Note_on_c, 9, 42, 75
3, 80206, Note_on_c, 9, 37, 0
3, 80206, Note_on_c, 9, 42, 0
3, 80208, Note_on_c, 9, 42, 75
3, 80254, Note_on_c, 9, 42, 0
3, 80256, Note_on_c, 9, 35, 75
3, 80256, Note_on_c, 9, 42, 75
3, 80416, Note_on_c, 9, 35, 0
3, 80416, Note_on_c, 9, 42, 0
3, 80448, Note_on_c, 9, 42, 75
3, 80590, Note_on_c, 9, 42, 0
3, 80592, Note_on_c, 9, 42, 75
3, 80638, Note_on_c, 9, 42, 0
3, 80640, Note_on_c, 9, 35, 75
3, 80640, Note_on_c, 9, 42, 75
3, 80800, Note_on_c, 9, 35, 0
3, 80800, Note_on_c, 9, 42, 0
3, 80832, Note_on_c, 9, 42, 75
3, 80974, Note_on_c, 9, 42, 0
3, 80976, Note_on_c, 9, 42, 75
3, 81022, Note_on_c, 9, 42, 0
3, 81024, Note_on_c, 9, 35, 75
3, 81024, Note_on_c, 9, 42, 75
3, 81184, Note_on_c, 9, 35, 0
3, 81184, Note_on_c, 9, 42, 0
3, 81216, Note_on_c, 9, 42, 75
3, 81358, Note_on_c, 9, 42, 0
3, 81360, Note_on_c, 9, 42, 75
3, 81406, Note_on_c, 9, 42, 0
3, 81408, Note_on_c, 9, 35, 75
3, 81408, Note_on_c, 9, 42, 75
3, 81568, Note_on_c, 9, 35, 0
3, 81568, Note_on_c, 9, 42, 0
3, 81600, Note_on_c, 9, 37, 75
3, 81600, Note_on_c, 9, 42, 75
3, 81742, Note_on_c, 9, 37, 0
3, 81742, Note_on_c, 9, 42, 0
3, 81744, Note_on_c, 9, 42, 75
3, 81790, Note_on_c, 9, 42, 0
3, 81792, Note_on_c, 9, 35, 75
3, 81792, Note_on_c, 9, 42, 75
3, 81952, Note_on_c, 9, 35, 0
3, 81952, Note_on_c, 9, 42, 0
3, 81984, Note_on_c, 9, 42, 75
3, 82126, Note_on_c, 9, 42, 0
3, 82128, Note_on_c, 9, 42, 75
3, 82174, Note_on_c, 9, 42, 0
3, 82176, Note_on_c, 9, 35, 75
3, 82176, Note_on_c, 9, 42, 75
3, 82336, Note_on_c, 9, 35, 0
3, 82336, Note_on_c, 9, 42, 0
3, 82368, Note_on_c, 9, 42, 75
3, 82510, Note_on_c, 9, 42, 0
3, 82512, Note_on_c, 9, 42, 75
3, 82558, Note_on_c, 9, 42, 0
3, 82560, Note_on_c, 9, 35, 75
3, 82560, Note_on_c, 9, 42, 75
3, 82720, Note_on_c, 9, 35, 0
3, 82720, Note_on_c, 9, 42, 0
3, 82752, Note_on_c, 9, 42, 75
3, 82894, Note_on_c, 9, 42, 0
3, 82896, Note_on_c, 9, 42, 75
3, 82942, Note_on_c, 9, 42, 0
3, 82944, Note_on_c, 9, 35, 75
3, 82944, Note_on_c, 9, 42, 75
3, 83104, Note_on_c, 9, 35, 0
3, 83104, Note_on_c, 9, 42, 0
3, 83136, Note_on_c, 9, 37, 75
3, 83136, Note_on_c, 9, 42, 75
3, 83278, Note_on_c, 9, 37, 0
3, 83278, Note_on_c, 9, 42, 0
3, 83280, Note_on_c, 9, 42, 75
3, 83326, Note_on_c, 9, 42, 0
3, 83328, Note_on_c, 9, 35, 30
3, 83328, Note_on_c, 9, 42, 30
3, 83488, Note_on_c, 9, 35, 0
3, 83488, Note_on_c, 9, 42, 0
3, 83520, Note_on_c, 9, 42, 30
3, 83662, Note_on_c, 9, 42, 0
3, 83664, Note_on_c, 9, 42, 30
3, 83710, Note_on_c, 9, 42, 0
3, 83712, Note_on_c, 9, 35, 30
3, 83712, Note_on_c, 9, 42, 30
3, 83872, Note_on_c, 9, 35, 0
3, 83872, Note_on_c, 9, 42, 0
3, 83904, Note_on_c, 9, 42, 30
3, 84046, Note_on_c, 9, 42, 0
3, 84048, Note_on_c, 9, 42, 30
3, 84094, Note_on_c, 9, 42, 0
3, 84094, End_track
4, 0, Start_track
4, 0, MIDI_port, 0
4, 0, Title_t, "Acoustic Grand Piano 2"
4, 0, Program_c, 2, 0
4, 0, Control_c, 2, 7, 127
4, 0, Control_c, 2, 10, 64
4, 0, Program_c, 2, 0
4, 3456, Note_on_c, 2, 55, 60
4, 3456, Note_on_c, 2, 62, 60
4, 3456, Note_on_c, 2, 66, 60
4, 3456, Note_on_c, 2, 71, 60
4, 4176, Note_on_c, 2, 55, 0
4, 4176, Note_on_c, 2, 62, 0
4, 4176, Note_on_c, 2, 66, 0
4, 4176, Note_on_c, 2, 71, 0
4, 4224, Note_on_c, 2, 55, 60
4, 4224, Note_on_c, 2, 58, 60
4, 4224, Note_on_c, 2, 61, 60
4, 4224, Note_on_c, 2, 65, 60
4, 4560, Note_on_c, 2, 55, 0
4, 4560, Note_on_c, 2, 58, 0
4, 4560, Note_on_c, 2, 61, 0
4, 4560, Note_on_c, 2, 65, 0
4, 4608, Note_on_c, 2, 61, 60
4, 4608, Note_on_c, 2, 64, 60
4, 4608, Note_on_c, 2, 67, 60
4, 4608, Note_on_c, 2, 69, 60
4, 4944, Note_on_c, 2, 61, 0
4, 4944, Note_on_c, 2, 64, 0
4, 4944, Note_on_c, 2, 67, 0
4, 4944, Note_on_c, 2, 69, 0
4, 4992, Note_on_c, 2, 54, 60
4, 4992, Note_on_c, 2, 61, 60
4, 4992, Note_on_c, 2, 64, 60
4, 4992, Note_on_c, 2, 69, 60
4, 5920, Note_on_c, 2, 54, 0
4, 5920, Note_on_c, 2, 61, 0
4, 5920, Note_on_c, 2, 64, 0
4, 5920, Note_on_c, 2, 69, 0
4, 5952, Note_on_c, 2, 61, 60
4, 5952, Note_on_c, 2, 64, 60
4, 5952, Note_on_c, 2, 66, 60
4, 5952, Note_on_c, 2, 69, 60
4, 6480, Note_on_c, 2, 61, 0
4, 6480, Note_on_c, 2, 64, 0
4, 6480, Note_on_c, 2, 66, 0
4, 6480, Note_on_c, 2, 69, 0
4, 6528, Note_on_c, 2, 53, 60
4, 6528, Note_on_c, 2, 60, 60
4, 6528, Note_on_c, 2, 64, 60
4, 6528, Note_on_c, 2, 69, 60
4, 7248, Note_on_c, 2, 53, 0
4, 7248, Note_on_c, 2, 60, 0
4, 7248, Note_on_c, 2, 64, 0
4, 7248, Note_on_c, 2, 69, 0
4, 7296, Note_on_c, 2, 53, 60
4, 7296, Note_on_c, 2, 59, 60
4, 7296, Note_on_c, 2, 62, 60
4, 7296, Note_on_c, 2, 67, 60
4, 7632, Note_on_c, 2, 53, 0
4, 7632, Note_on_c, 2, 59, 0
4, 7632, Note_on_c, 2, 62, 0
4, 7632, Note_on_c, 2, 67, 0
4, 7680, Note_on_c, 2, 59, 60
4, 7680, Note_on_c, 2, 62, 60
4, 7680, Note_on_c, 2, 65, 60
4, 7680, Note_on_c, 2, 67, 60
4, 8016, Note_on_c, 2, 59, 0
4, 8016, Note_on_c, 2, 62, 0
4, 8016, Note_on_c, 2, 65, 0
4, 8016, Note_on_c, 2, 67, 0
4, 8064, Note_on_c, 2, 52, 60
4, 8064, Note_on_c, 2, 59, 60
4, 8064, Note_on_c, 2, 62, 60
4, 8064, Note_on_c, 2, 67, 60
4, 9552, Note_on_c, 2, 52, 0
4, 9552, Note_on_c, 2, 59, 0
4, 9552, Note_on_c, 2, 62, 0
4, 9552, Note_on_c, 2, 67, 0
4, 9600, Note_on_c, 2, 51, 60
4, 9600, Note_on_c, 2, 58, 60
4, 9600, Note_on_c, 2, 62, 60
4, 9600, Note_on_c, 2, 67, 60
4, 10320, Note_on_c, 2, 51, 0
4, 10320, Note_on_c, 2, 58, 0
4, 10320, Note_on_c, 2, 62, 0
4, 10320, Note_on_c, 2, 67, 0
4, 10368, Note_on_c, 2, 51, 60
4, 10368, Note_on_c, 2, 57, 60
4, 10368, Note_on_c, 2, 62, 60
4, 10368, Note_on_c, 2, 67, 60
4, 11088, Note_on_c, 2, 51, 0
4, 11088, Note_on_c, 2, 57, 0
4, 11088, Note_on_c, 2, 62, 0
4, 11088, Note_on_c, 2, 67, 0
4, 11136, Note_on_c, 2, 57, 60
4, 11136, Note_on_c, 2, 62, 60
4, 11136, Note_on_c, 2, 65, 60
4, 11136, Note_on_c, 2, 72, 60
4, 11856, Note_on_c, 2, 57, 0
4, 11856, Note_on_c, 2, 62, 0
4, 11856, Note_on_c, 2, 65, 0
4, 11856, Note_on_c, 2, 72, 0
4, 11904, Note_on_c, 2, 53, 60
4, 11904, Note_on_c, 2, 58, 60
4, 11904, Note_on_c, 2, 62, 60
4, 11904, Note_on_c, 2, 67, 60
4, 12624, Note_on_c, 2, 53, 0
4, 12624, Note_on_c, 2, 58, 0
4, 12624, Note_on_c, 2, 62, 0
4, 12624, Note_on_c, 2, 67, 0
4, 12672, Note_on_c, 2, 55, 60
4, 12672, Note_on_c, 2, 62, 60
4, 12672, Note_on_c, 2, 66, 60
4, 12672, Note_on_c, 2, 71, 60
4, 13392, Note_on_c, 2, 55, 0
4, 13392, Note_on_c, 2, 62, 0
4, 13392, Note_on_c, 2, 66, 0
4, 13392, Note_on_c, 2, 71, 0
4, 13440, Note_on_c, 2, 57, 60
4, 13440, Note_on_c, 2, 60, 60
4, 13440, Note_on_c, 2, 63, 60
4, 13440, Note_on_c, 2, 65, 60
4, 14160, Note_on_c, 2, 57, 0
4, 14160, Note_on_c, 2, 60, 0
4, 14160, Note_on_c, 2, 63, 0
4, 14160, Note_on_c, 2, 65, 0
4, 14208, Note_on_c, 2, 57, 60
4, 14208, Note_on_c, 2, 60, 60
4, 14208, Note_on_c, 2, 62, 60
4, 14208, Note_on_c, 2, 65, 60
4, 14928, Note_on_c, 2, 57, 0
4, 14928, Note_on_c, 2, 60, 0
4, 14928, Note_on_c, 2, 62, 0
4, 14928, Note_on_c, 2, 65, 0
4, 14976, Note_on_c, 2, 55, 60
4, 14976, Note_on_c, 2, 59, 60
4, 14976, Note_on_c, 2, 61, 60
4, 14976, Note_on_c, 2, 66, 60
4, 15312, Note_on_c, 2, 55, 0
4, 15312, Note_on_c, 2, 59, 0
4, 15312, Note_on_c, 2, 61, 0
4, 15312, Note_on_c, 2, 66, 0
4, 15360, Note_on_c, 2, 61, 60
4, 15360, Note_on_c, 2, 64, 60
4, 15360, Note_on_c, 2, 67, 60
4, 15360, Note_on_c, 2, 69, 60
4, 15696, Note_on_c, 2, 61, 0
4, 15696, Note_on_c, 2, 64, 0
4, 15696, Note_on_c, 2, 67, 0
4, 15696, Note_on_c, 2, 69, 0
4, 15744, Note_on_c, 2, 55, 60
4, 15744, Note_on_c, 2, 62, 60
4, 15744, Note_on_c, 2, 66, 60
4, 15744, Note_on_c, 2, 71, 60
4, 16464, Note_on_c, 2, 55, 0
4, 16464, Note_on_c, 2, 62, 0
4, 16464, Note_on_c, 2, 66, 0
4, 16464, Note_on_c, 2, 71, 0
4, 16512, Note_on_c, 2, 55, 60
4, 16512, Note_on_c, 2, 58, 60
4, 16512, Note_on_c, 2, 61, 60
4, 16512, Note_on_c, 2, 65, 60
4, 16848, Note_on_c, 2, 55, 0
4, 16848, Note_on_c, 2, 58, 0
4, 16848, Note_on_c, 2, 61, 0
4, 16848, Note_on_c, 2, 65, 0
4, 16896, Note_on_c, 2, 61, 60
4, 16896, Note_on_c, 2, 64, 60
4, 16896, Note_on_c, 2, 67, 60
4, 16896, Note_on_c, 2, 69, 60
4, 17232, Note_on_c, 2, 61, 0
4, 17232, Note_on_c, 2, 64, 0
4, 17232, Note_on_c, 2, 67, 0
4, 17232, Note_on_c, 2, 69, 0
4, 17280, Note_on_c, 2, 54, 60
4, 17280, Note_on_c, 2, 61, 60
4, 17280, Note_on_c, 2, 64, 60
4, 17280, Note_on_c, 2, 69, 60
4, 18208, Note_on_c, 2, 54, 0
4, 18208, Note_on_c, 2, 61, 0
4, 18208, Note_on_c, 2, 64, 0
4, 18208, Note_on_c, 2, 69, 0
4, 18240, Note_on_c, 2, 61, 60
4, 18240, Note_on_c, 2, 64, 60
4, 18240, Note_on_c, 2, 66, 60
4, 18240, Note_on_c, 2, 69, 60
4, 18768, Note_on_c, 2, 61, 0
4, 18768, Note_on_c, 2, 64, 0
4, 18768, Note_on_c, 2, 66, 0
4, 18768, Note_on_c, 2, 69, 0
4, 18816, Note_on_c, 2, 53, 60
4, 18816, Note_on_c, 2, 60, 60
4, 18816, Note_on_c, 2, 64, 60
4, 18816, Note_on_c, 2, 69, 60
4, 19536, Note_on_c, 2, 53, 0
4, 19536, Note_on_c, 2, 60, 0
4, 19536, Note_on_c, 2, 64, 0
4, 19536, Note_on_c, 2, 69, 0
4, 19584, Note_on_c, 2, 53, 60
4, 19584, Note_on_c, 2, 59, 60
4, 19584, Note_on_c, 2, 62, 60
4, 19584, Note_on_c, 2, 67, 60
4, 19920, Note_on_c, 2, 53, 0
4, 19920, Note_on_c, 2, 59, 0
4, 19920, Note_on_c, 2, 62, 0
4, 19920, Note_on_c, 2, 67, 0
4, 19968, Note_on_c, 2, 59, 60
4, 19968, Note_on_c, 2, 62, 60
4, 19968, Note_on_c, 2, 65, 60
4, 19968, Note_on_c, 2, 67, 60
4, 20304, Note_on_c, 2, 59, 0
4, 20304, Note_on_c, 2, 62, 0
4, 20304, Note_on_c, 2, 65, 0
4, 20304, Note_on_c, 2, 67, 0
4, 20352, Note_on_c, 2, 52, 60
4, 20352, Note_on_c, 2, 59, 60
4, 20352, Note_on_c, 2, 62, 60
4, 20352, Note_on_c, 2, 67, 60
4, 21840, Note_on_c, 2, 52, 0
4, 21840, Note_on_c, 2, 59, 0
4, 21840, Note_on_c, 2, 62, 0
4, 21840, Note_on_c, 2, 67, 0
4, 21888, Note_on_c, 2, 51, 60
4, 21888, Note_on_c, 2, 58, 60
4, 21888, Note_on_c, 2, 62, 60
4, 21888, Note_on_c, 2, 67, 60
4, 22608, Note_on_c, 2, 51, 0
4, 22608, Note_on_c, 2, 58, 0
4, 22608, Note_on_c, 2, 62, 0
4, 22608, Note_on_c, 2, 67, 0
4, 22656, Note_on_c, 2, 51, 60
4, 22656, Note_on_c, 2, 57, 60
4, 22656, Note_on_c, 2, 62, 60
4, 22656, Note_on_c, 2, 67, 60
4, 23376, Note_on_c, 2, 51, 0
4, 23376, Note_on_c, 2, 57, 0
4, 23376, Note_on_c, 2, 62, 0
4, 23376, Note_on_c, 2, 67, 0
4, 23424, Note_on_c, 2, 57, 60
4, 23424, Note_on_c, 2, 62, 60
4, 23424, Note_on_c, 2, 65, 60
4, 23424, Note_on_c, 2, 72, 60
4, 24144, Note_on_c, 2, 57, 0
4, 24144, Note_on_c, 2, 62, 0
4, 24144, Note_on_c, 2, 65, 0
4, 24144, Note_on_c, 2, 72, 0
4, 24192, Note_on_c, 2, 53, 60
4, 24192, Note_on_c, 2, 58, 60
4, 24192, Note_on_c, 2, 62, 60
4, 24192, Note_on_c, 2, 67, 60
4, 24912, Note_on_c, 2, 53, 0
4, 24912, Note_on_c, 2, 58, 0
4, 24912, Note_on_c, 2, 62, 0
4, 24912, Note_on_c, 2, 67, 0
4, 24960, Note_on_c, 2, 55, 60
4, 24960, Note_on_c, 2, 62, 60
4, 24960, Note_on_c, 2, 64, 60
4, 24960, Note_on_c, 2, 71, 60
4, 25680, Note_on_c, 2, 55, 0
4, 25680, Note_on_c, 2, 62, 0
4, 25680, Note_on_c, 2, 64, 0
4, 25680, Note_on_c, 2, 71, 0
4, 25728, Note_on_c, 2, 55, 60
4, 25728, Note_on_c, 2, 61, 60
4, 25728, Note_on_c, 2, 65, 60
4, 25728, Note_on_c, 2, 70, 60
4, 26064, Note_on_c, 2, 55, 0
4, 26064, Note_on_c, 2, 61, 0
4, 26064, Note_on_c, 2, 65, 0
4, 26064, Note_on_c, 2, 70, 0
4, 26112, Note_on_c, 2, 61, 60
4, 26112, Note_on_c, 2, 64, 60
4, 26112, Note_on_c, 2, 67, 60
4, 26112, Note_on_c, 2, 69, 60
4, 26448, Note_on_c, 2, 61, 0
4, 26448, Note_on_c, 2, 64, 0
4, 26448, Note_on_c, 2, 67, 0
4, 26448, Note_on_c, 2, 69, 0
4, 26496, Note_on_c, 2, 54, 60
4, 26496, Note_on_c, 2, 61, 60
4, 26496, Note_on_c, 2, 64, 60
4, 26496, Note_on_c, 2, 69, 60
4, 27984, Note_on_c, 2, 54, 0
4, 27984, Note_on_c, 2, 61, 0
4, 27984, Note_on_c, 2, 64, 0
4, 27984, Note_on_c, 2, 69, 0
4, 28032, Note_on_c, 2, 55, 60
4, 28032, Note_on_c, 2, 62, 60
4, 28032, Note_on_c, 2, 66, 60
4, 28032, Note_on_c, 2, 71, 60
4, 28752, Note_on_c, 2, 55, 0
4, 28752, Note_on_c, 2, 62, 0
4, 28752, Note_on_c, 2, 66, 0
4, 28752, Note_on_c, 2, 71, 0
4, 28800, Note_on_c, 2, 55, 60
4, 28800, Note_on_c, 2, 58, 60
4, 28800, Note_on_c, 2, 61, 60
4, 28800, Note_on_c, 2, 65, 60
4, 29136, Note_on_c, 2, 55, 0
4, 29136, Note_on_c, 2, 58, 0
4, 29136, Note_on_c, 2, 61, 0
4, 29136, Note_on_c, 2, 65, 0
4, 29184, Note_on_c, 2, 61, 60
4, 29184, Note_on_c, 2, 64, 60
4, 29184, Note_on_c, 2, 67, 60
4, 29184, Note_on_c, 2, 69, 60
4, 29520, Note_on_c, 2, 61, 0
4, 29520, Note_on_c, 2, 64, 0
4, 29520, Note_on_c, 2, 67, 0
4, 29520, Note_on_c, 2, 69, 0
4, 29568, Note_on_c, 2, 54, 60
4, 29568, Note_on_c, 2, 61, 60
4, 29568, Note_on_c, 2, 64, 60
4, 29568, Note_on_c, 2, 69, 60
4, 30496, Note_on_c, 2, 54, 0
4, 30496, Note_on_c, 2, 61, 0
4, 30496, Note_on_c, 2, 64, 0
4, 30496, Note_on_c, 2, 69, 0
4, 30528, Note_on_c, 2, 61, 60
4, 30528, Note_on_c, 2, 64, 60
4, 30528, Note_on_c, 2, 66, 60
4, 30528, Note_on_c, 2, 69, 60
4, 31056, Note_on_c, 2, 61, 0
4, 31056, Note_on_c, 2, 64, 0
4, 31056, Note_on_c, 2, 66, 0
4, 31056, Note_on_c, 2, 69, 0
4, 31104, Note_on_c, 2, 53, 60
4, 31104, Note_on_c, 2, 60, 60
4, 31104, Note_on_c, 2, 64, 60
4, 31104, Note_on_c, 2, 69, 60
4, 31824, Note_on_c, 2, 53, 0
4, 31824, Note_on_c, 2, 60, 0
4, 31824, Note_on_c, 2, 64, 0
4, 31824, Note_on_c, 2, 69, 0
4, 31872, Note_on_c, 2, 53, 60
4, 31872, Note_on_c, 2, 59, 60
4, 31872, Note_on_c, 2, 62, 60
4, 31872, Note_on_c, 2, 67, 60
4, 32208, Note_on_c, 2, 53, 0
4, 32208, Note_on_c, 2, 59, 0
4, 32208, Note_on_c, 2, 62, 0
4, 32208, Note_on_c, 2, 67, 0
4, 32256, Note_on_c, 2, 59, 60
4, 32256, Note_on_c, 2, 62, 60
4, 32256, Note_on_c, 2, 65, 60
4, 32256, Note_on_c, 2, 67, 60
4, 32592, Note_on_c, 2, 59, 0
4, 32592, Note_on_c, 2, 62, 0
4, 32592, Note_on_c, 2, 65, 0
4, 32592, Note_on_c, 2, 67, 0
4, 32640, Note_on_c, 2, 52, 60
4, 32640, Note_on_c, 2, 59, 60
4, 32640, Note_on_c, 2, 62, 60
4, 32640, Note_on_c, 2, 67, 60
4, 34128, Note_on_c, 2, 52, 0
4, 34128, Note_on_c, 2, 59, 0
4, 34128, Note_on_c, 2, 62, 0
4, 34128, Note_on_c, 2, 67, 0
4, 34176, Note_on_c, 2, 51, 60
4, 34176, Note_on_c, 2, 58, 60
4, 34176, Note_on_c, 2, 62, 60
4, 34176, Note_on_c, 2, 67, 60
4, 34896, Note_on_c, 2, 51, 0
4, 34896, Note_on_c, 2, 58, 0
4, 34896, Note_on_c, 2, 62, 0
4, 34896, Note_on_c, 2, 67, 0
4, 34944, Note_on_c, 2, 51, 60
4, 34944, Note_on_c, 2, 57, 60
4, 34944, Note_on_c, 2, 62, 60
4, 34944, Note_on_c, 2, 67, 60
4, 35664, Note_on_c, 2, 51, 0
4, 35664, Note_on_c, 2, 57, 0
4, 35664, Note_on_c, 2, 62, 0
4, 35664, Note_on_c, 2, 67, 0
4, 35712, Note_on_c, 2, 57, 60
4, 35712, Note_on_c, 2, 62, 60
4, 35712, Note_on_c, 2, 65, 60
4, 35712, Note_on_c, 2, 72, 60
4, 36432, Note_on_c, 2, 57, 0
4, 36432, Note_on_c, 2, 62, 0
4, 36432, Note_on_c, 2, 65, 0
4, 36432, Note_on_c, 2, 72, 0
4, 36480, Note_on_c, 2, 53, 60
4, 36480, Note_on_c, 2, 58, 60
4, 36480, Note_on_c, 2, 62, 60
4, 36480, Note_on_c, 2, 67, 60
4, 37200, Note_on_c, 2, 53, 0
4, 37200, Note_on_c, 2, 58, 0
4, 37200, Note_on_c, 2, 62, 0
4, 37200, Note_on_c, 2, 67, 0
4, 37248, Note_on_c, 2, 55, 60
4, 37248, Note_on_c, 2, 62, 60
4, 37248, Note_on_c, 2, 65, 60
4, 37248, Note_on_c, 2, 71, 60
4, 37968, Note_on_c, 2, 55, 0
4, 37968, Note_on_c, 2, 62, 0
4, 37968, Note_on_c, 2, 65, 0
4, 37968, Note_on_c, 2, 71, 0
4, 38016, Note_on_c, 2, 55, 60
4, 38016, Note_on_c, 2, 58, 60
4, 38016, Note_on_c, 2, 61, 60
4, 38016, Note_on_c, 2, 65, 60
4, 38352, Note_on_c, 2, 55, 0
4, 38352, Note_on_c, 2, 58, 0
4, 38352, Note_on_c, 2, 61, 0
4, 38352, Note_on_c, 2, 65, 0
4, 38400, Note_on_c, 2, 61, 60
4, 38400, Note_on_c, 2, 64, 60
4, 38400, Note_on_c, 2, 67, 60
4, 38400, Note_on_c, 2, 69, 60
4, 38736, Note_on_c, 2, 61, 0
4, 38736, Note_on_c, 2, 64, 0
4, 38736, Note_on_c, 2, 67, 0
4, 38736, Note_on_c, 2, 69, 0
4, 38784, Control_c, 2, 7, 64
4, 38784, Note_on_c, 2, 56, 60
4, 38784, Note_on_c, 2, 61, 60
4, 38784, Note_on_c, 2, 64, 60
4, 38784, Note_on_c, 2, 69, 60
4, 40272, Note_on_c, 2, 56, 0
4, 40272, Note_on_c, 2, 61, 0
4, 40272, Note_on_c, 2, 64, 0
4, 40272, Note_on_c, 2, 69, 0
4, 40320, Note_on_c, 2, 56, 60
4, 40320, Note_on_c, 2, 57, 60
4, 40320, Note_on_c, 2, 61, 60
4, 40320, Note_on_c, 2, 64, 60
4, 41248, Note_on_c, 2, 56, 0
4, 41248, Note_on_c, 2, 57, 0
4, 41248, Note_on_c, 2, 61, 0
4, 41248, Note_on_c, 2, 64, 0
4, 41280, Note_on_c, 2, 61, 60
4, 41280, Note_on_c, 2, 64, 60
4, 41280, Note_on_c, 2, 66, 60
4, 41280, Note_on_c, 2, 69, 60
4, 41808, Note_on_c, 2, 61, 0
4, 41808, Note_on_c, 2, 64, 0
4, 41808, Note_on_c, 2, 66, 0
4, 41808, Note_on_c, 2, 69, 0
4, 41856, Note_on_c, 2, 56, 60
4, 41856, Note_on_c, 2, 61, 60
4, 41856, Note_on_c, 2, 64, 60
4, 41856, Note_on_c, 2, 69, 60
4, 42576, Note_on_c, 2, 56, 0
4, 42576, Note_on_c, 2, 61, 0
4, 42576, Note_on_c, 2, 64, 0
4, 42576, Note_on_c, 2, 69, 0
4, 42624, Control_c, 2, 7, 127
4, 42624, Note_on_c, 2, 55, 60
4, 42624, Note_on_c, 2, 62, 60
4, 42624, Note_on_c, 2, 64, 60
4, 42624, Note_on_c, 2, 71, 60
4, 43344, Note_on_c, 2, 55, 0
4, 43344, Note_on_c, 2, 62, 0
4, 43344, Note_on_c, 2, 64, 0
4, 43344, Note_on_c, 2, 71, 0
4, 43584, Note_on_c, 2, 55, 60
4, 43584, Note_on_c, 2, 61, 60
4, 43584, Note_on_c, 2, 65, 60
4, 43584, Note_on_c, 2, 70, 60
4, 44112, Note_on_c, 2, 55, 0
4, 44112, Note_on_c, 2, 61, 0
4, 44112, Note_on_c, 2, 65, 0
4, 44112, Note_on_c, 2, 70, 0
4, 44160, Note_on_c, 2, 54, 60
4, 44160, Note_on_c, 2, 61, 60
4, 44160, Note_on_c, 2, 64, 60
4, 44160, Note_on_c, 2, 69, 60
4, 44688, Note_on_c, 2, 54, 0
4, 44688, Note_on_c, 2, 61, 0
4, 44688, Note_on_c, 2, 64, 0
4, 44688, Note_on_c, 2, 69, 0
4, 44736, Note_on_c, 2, 54, 60
4, 44736, Note_on_c, 2, 61, 60
4, 44736, Note_on_c, 2, 64, 60
4, 44736, Note_on_c, 2, 69, 60
4, 45264, Note_on_c, 2, 54, 0
4, 45264, Note_on_c, 2, 61, 0
4, 45264, Note_on_c, 2, 64, 0
4, 45264, Note_on_c, 2, 69, 0
4, 45312, Note_on_c, 2, 54, 60
4, 45312, Note_on_c, 2, 61, 60
4, 45312, Note_on_c, 2, 64, 60
4, 45312, Note_on_c, 2, 69, 60
4, 45648, Note_on_c, 2, 54, 0
4, 45648, Note_on_c, 2, 61, 0
4, 45648, Note_on_c, 2, 64, 0
4, 45648, Note_on_c, 2, 69, 0
4, 45696, Note_on_c, 2, 53, 60
4, 45696, Note_on_c, 2, 60, 60
4, 45696, Note_on_c, 2, 62, 60
4, 45696, Note_on_c, 2, 69, 60
4, 46416, Note_on_c, 2, 53, 0
4, 46416, Note_on_c, 2, 60, 0
4, 46416, Note_on_c, 2, 62, 0
4, 46416, Note_on_c, 2, 69, 0
4, 46656, Note_on_c, 2, 53, 60
4, 46656, Note_on_c, 2, 59, 60
4, 46656, Note_on_c, 2, 61, 60
4, 46656, Note_on_c, 2, 64, 60
4, 46656, Note_on_c, 2, 69, 60
4, 47184, Note_on_c, 2, 53, 0
4, 47184, Note_on_c, 2, 59, 0
4, 47184, Note_on_c, 2, 61, 0
4, 47184, Note_on_c, 2, 64, 0
4, 47184, Note_on_c, 2, 69, 0
4, 47232, Note_on_c, 2, 52, 60
4, 47232, Note_on_c, 2, 59, 60
4, 47232, Note_on_c, 2, 62, 60
4, 47232, Note_on_c, 2, 67, 60
4, 47760, Note_on_c, 2, 52, 0
4, 47760, Note_on_c, 2, 59, 0
4, 47760, Note_on_c, 2, 62, 0
4, 47760, Note_on_c, 2, 67, 0
4, 47808, Note_on_c, 2, 52, 60
4, 47808, Note_on_c, 2, 59, 60
4, 47808, Note_on_c, 2, 62, 60
4, 47808, Note_on_c, 2, 67, 60
4, 48336, Note_on_c, 2, 52, 0
4, 48336, Note_on_c, 2, 59, 0
4, 48336, Note_on_c, 2, 62, 0
4, 48336, Note_on_c, 2, 67, 0
4, 48384, Note_on_c, 2, 52, 60
4, 48384, Note_on_c, 2, 59, 60
4, 48384, Note_on_c, 2, 62, 60
4, 48384, Note_on_c, 2, 67, 60
4, 48720, Note_on_c, 2, 52, 0
4, 48720, Note_on_c, 2, 59, 0
4, 48720, Note_on_c, 2, 62, 0
4, 48720, Note_on_c, 2, 67, 0
4, 48768, Note_on_c, 2, 51, 60
4, 48768, Note_on_c, 2, 58, 60
4, 48768, Note_on_c, 2, 62, 60
4, 48768, Note_on_c, 2, 67, 60
4, 49104, Note_on_c, 2, 51, 0
4, 49104, Note_on_c, 2, 58, 0
4, 49104, Note_on_c, 2, 62, 0
4, 49104, Note_on_c, 2, 67, 0
4, 49152, Note_on_c, 2, 58, 60
4, 49152, Note_on_c, 2, 60, 60
4, 49152, Note_on_c, 2, 63, 60
4, 49152, Note_on_c, 2, 67, 60
4, 49488, Note_on_c, 2, 58, 0
4, 49488, Note_on_c, 2, 60, 0
4, 49488, Note_on_c, 2, 63, 0
4, 49488, Note_on_c, 2, 67, 0
4, 49536, Note_on_c, 2, 51, 60
4, 49536, Note_on_c, 2, 57, 60
4, 49536, Note_on_c, 2, 62, 60
4, 49536, Note_on_c, 2, 67, 60
4, 49872, Note_on_c, 2, 51, 0
4, 49872, Note_on_c, 2, 57, 0
4, 49872, Note_on_c, 2, 62, 0
4, 49872, Note_on_c, 2, 67, 0
4, 49920, Note_on_c, 2, 60, 60
4, 49920, Note_on_c, 2, 63, 60
4, 49920, Note_on_c, 2, 65, 60
4, 49920, Note_on_c, 2, 69, 60
4, 50256, Note_on_c, 2, 60, 0
4, 50256, Note_on_c, 2, 63, 0
4, 50256, Note_on_c, 2, 65, 0
4, 50256, Note_on_c, 2, 69, 0
4, 50304, Note_on_c, 2, 57, 60
4, 50304, Note_on_c, 2, 62, 60
4, 50304, Note_on_c, 2, 65, 60
4, 50304, Note_on_c, 2, 72, 60
4, 51024, Note_on_c, 2, 57, 0
4, 51024, Note_on_c, 2, 62, 0
4, 51024, Note_on_c, 2, 65, 0
4, 51024, Note_on_c, 2, 72, 0
4, 51072, Note_on_c, 2, 53, 60
4, 51072, Note_on_c, 2, 55, 60
4, 51072, Note_on_c, 2, 58, 60
4, 51072, Note_on_c, 2, 62, 60
4, 51408, Note_on_c, 2, 53, 0
4, 51408, Note_on_c, 2, 55, 0
4, 51408, Note_on_c, 2, 58, 0
4, 51408, Note_on_c, 2, 62, 0
4, 51456, Note_on_c, 2, 62, 60
4, 51456, Note_on_c, 2, 65, 60
4, 51456, Note_on_c, 2, 67, 60
4, 51456, Note_on_c, 2, 70, 60
4, 51792, Note_on_c, 2, 62, 0
4, 51792, Note_on_c, 2, 65, 0
4, 51792, Note_on_c, 2, 67, 0
4, 51792, Note_on_c, 2, 70, 0
4, 51840, Note_on_c, 2, 55, 60
4, 51840, Note_on_c, 2, 62, 60
4, 51840, Note_on_c, 2, 64, 60
4, 51840, Note_on_c, 2, 71, 60
4, 52176, Note_on_c, 2, 55, 0
4, 52176, Note_on_c, 2, 62, 0
4, 52176, Note_on_c, 2, 64, 0
4, 52176, Note_on_c, 2, 71, 0
4, 52224, Note_on_c, 2, 59, 60
4, 52224, Note_on_c, 2, 62, 60
4, 52224, Note_on_c, 2, 64, 60
4, 52224, Note_on_c, 2, 67, 60
4, 52560, Note_on_c, 2, 59, 0
4, 52560, Note_on_c, 2, 62, 0
4, 52560, Note_on_c, 2, 64, 0
4, 52560, Note_on_c, 2, 67, 0
4, 52608, Note_on_c, 2, 57, 60
4, 52608, Note_on_c, 2, 63, 60
4, 52608, Note_on_c, 2, 67, 60
4, 52608, Note_on_c, 2, 74, 60
4, 53328, Note_on_c, 2, 57, 0
4, 53328, Note_on_c, 2, 63, 0
4, 53328, Note_on_c, 2, 67, 0
4, 53328, Note_on_c, 2, 74, 0
4, 53376, Note_on_c, 2, 57, 60
4, 53376, Note_on_c, 2, 62, 60
4, 53376, Note_on_c, 2, 65, 60
4, 53376, Note_on_c, 2, 72, 60
4, 53712, Note_on_c, 2, 57, 0
4, 53712, Note_on_c, 2, 62, 0
4, 53712, Note_on_c, 2, 65, 0
4, 53712, Note_on_c, 2, 72, 0
4, 53760, Note_on_c, 2, 62, 60
4, 53760, Note_on_c, 2, 65, 60
4, 53760, Note_on_c, 2, 69, 60
4, 53760, Note_on_c, 2, 72, 60
4, 54096, Note_on_c, 2, 62, 0
4, 54096, Note_on_c, 2, 65, 0
4, 54096, Note_on_c, 2, 69, 0
4, 54096, Note_on_c, 2, 72, 0
4, 54144, Note_on_c, 2, 55, 60
4, 54144, Note_on_c, 2, 61, 60
4, 54144, Note_on_c, 2, 64, 60
4, 54144, Note_on_c, 2, 69, 60
4, 54480, Note_on_c, 2, 55, 0
4, 54480, Note_on_c, 2, 61, 0
4, 54480, Note_on_c, 2, 64, 0
4, 54480, Note_on_c, 2, 69, 0
4, 54528, Note_on_c, 2, 61, 60
4, 54528, Note_on_c, 2, 64, 60
4, 54528, Note_on_c, 2, 67, 60
4, 54528, Note_on_c, 2, 69, 60
4, 54864, Note_on_c, 2, 61, 0
4, 54864, Note_on_c, 2, 64, 0
4, 54864, Note_on_c, 2, 67, 0
4, 54864, Note_on_c, 2, 69, 0
4, 54912, Note_on_c, 2, 55, 60
4, 54912, Note_on_c, 2, 59, 60
4, 54912, Note_on_c, 2, 62, 60
4, 54912, Note_on_c, 2, 66, 60
4, 55632, Note_on_c, 2, 55, 0
4, 55632, Note_on_c, 2, 59, 0
4, 55632, Note_on_c, 2, 62, 0
4, 55632, Note_on_c, 2, 66, 0
4, 55680, Note_on_c, 2, 55, 60
4, 55680, Note_on_c, 2, 61, 60
4, 55680, Note_on_c, 2, 65, 60
4, 55680, Note_on_c, 2, 70, 60
4, 56400, Note_on_c, 2, 55, 0
4, 56400, Note_on_c, 2, 61, 0
4, 56400, Note_on_c, 2, 65, 0
4, 56400, Note_on_c, 2, 70, 0
4, 56448, Note_on_c, 2, 54, 60
4, 56448, Note_on_c, 2, 57, 60
4, 56448, Note_on_c, 2, 61, 60
4, 56448, Note_on_c, 2, 64, 60
4, 57376, Note_on_c, 2, 54, 0
4, 57376, Note_on_c, 2, 57, 0
4, 57376, Note_on_c, 2, 61, 0
4, 57376, Note_on_c, 2, 64, 0
4, 57408, Note_on_c, 2, 61, 60
4, 57408, Note_on_c, 2, 64, 60
4, 57408, Note_on_c, 2, 66, 60
4, 57408, Note_on_c, 2, 69, 60
4, 57936, Note_on_c, 2, 61, 0
4, 57936, Note_on_c, 2, 64, 0
4, 57936, Note_on_c, 2, 66, 0
4, 57936, Note_on_c, 2, 69, 0
4, 57984, Note_on_c, 2, 55, 60
4, 57984, Note_on_c, 2, 59, 60
4, 57984, Note_on_c, 2, 62, 60
4, 57984, Note_on_c, 2, 66, 60
4, 58320, Note_on_c, 2, 55, 0
4, 58320, Note_on_c, 2, 59, 0
4, 58320, Note_on_c, 2, 62, 0
4, 58320, Note_on_c, 2, 66, 0
4, 58368, Note_on_c, 2, 59, 60
4, 58368, Note_on_c, 2, 62, 60
4, 58368, Note_on_c, 2, 64, 60
4, 58368, Note_on_c, 2, 67, 60
4, 58704, Note_on_c, 2, 59, 0
4, 58704, Note_on_c, 2, 62, 0
4, 58704, Note_on_c, 2, 64, 0
4, 58704, Note_on_c, 2, 67, 0
4, 58752, Note_on_c, 2, 55, 60
4, 58752, Note_on_c, 2, 61, 60
4, 58752, Note_on_c, 2, 65, 60
4, 58752, Note_on_c, 2, 70, 60
4, 59472, Note_on_c, 2, 55, 0
4, 59472, Note_on_c, 2, 61, 0
4, 59472, Note_on_c, 2, 65, 0
4, 59472, Note_on_c, 2, 70, 0
4, 59520, Note_on_c, 2, 56, 60
4, 59520, Note_on_c, 2, 61, 60
4, 59520, Note_on_c, 2, 64, 60
4, 59520, Note_on_c, 2, 69, 60
4, 60048, Note_on_c, 2, 56, 0
4, 60048, Note_on_c, 2, 61, 0
4, 60048, Note_on_c, 2, 64, 0
4, 60048, Note_on_c, 2, 69, 0
4, 60096, Note_on_c, 2, 56, 60
4, 60096, Note_on_c, 2, 61, 60
4, 60096, Note_on_c, 2, 64, 60
4, 60096, Note_on_c, 2, 69, 60
4, 60624, Note_on_c, 2, 56, 0
4, 60624, Note_on_c, 2, 61, 0
4, 60624, Note_on_c, 2, 64, 0
4, 60624, Note_on_c, 2, 69, 0
4, 60672, Note_on_c, 2, 56, 60
4, 60672, Note_on_c, 2, 61, 60
4, 60672, Note_on_c, 2, 64, 60
4, 60672, Note_on_c, 2, 69, 60
4, 61008, Note_on_c, 2, 56, 0
4, 61008, Note_on_c, 2, 61, 0
4, 61008, Note_on_c, 2, 64, 0
4, 61008, Note_on_c, 2, 69, 0
4, 61056, Note_on_c, 2, 56, 60
4, 61056, Note_on_c, 2, 61, 60
4, 61056, Note_on_c, 2, 64, 60
4, 61056, Note_on_c, 2, 69, 60
4, 61584, Note_on_c, 2, 56, 0
4, 61584, Note_on_c, 2, 61, 0
4, 61584, Note_on_c, 2, 64, 0
4, 61584, Note_on_c, 2, 69, 0
4, 61632, Note_on_c, 2, 56, 60
4, 61632, Note_on_c, 2, 61, 60
4, 61632, Note_on_c, 2, 64, 60
4, 61632, Note_on_c, 2, 69, 60
4, 62160, Note_on_c, 2, 56, 0
4, 62160, Note_on_c, 2, 61, 0
4, 62160, Note_on_c, 2, 64, 0
4, 62160, Note_on_c, 2, 69, 0
4, 62208, Note_on_c, 2, 56, 60
4, 62208, Note_on_c, 2, 61, 60
4, 62208, Note_on_c, 2, 64, 60
4, 62208, Note_on_c, 2, 69, 60
4, 62544, Note_on_c, 2, 56, 0
4, 62544, Note_on_c, 2, 61, 0
4, 62544, Note_on_c, 2, 64, 0
4, 62544, Note_on_c, 2, 69, 0
4, 62592, Note_on_c, 2, 56, 60
4, 62592, Note_on_c, 2, 61, 60
4, 62592, Note_on_c, 2, 64, 60
4, 62592, Note_on_c, 2, 69, 60
4, 63312, Note_on_c, 2, 56, 0
4, 63312, Note_on_c, 2, 61, 0
4, 63312, Note_on_c, 2, 64, 0
4, 63312, Note_on_c, 2, 69, 0
4, 63360, Note_on_c, 2, 55, 60
4, 63360, Note_on_c, 2, 62, 60
4, 63360, Note_on_c, 2, 66, 60
4, 63360, Note_on_c, 2, 71, 60
4, 64080, Note_on_c, 2, 55, 0
4, 64080, Note_on_c, 2, 62, 0
4, 64080, Note_on_c, 2, 66, 0
4, 64080, Note_on_c, 2, 71, 0
4, 64128, Note_on_c, 2, 55, 60
4, 64128, Note_on_c, 2, 59, 60
4, 64128, Note_on_c, 2, 61, 60
4, 64128, Note_on_c, 2, 64, 60
4, 64464, Note_on_c, 2, 55, 0
4, 64464, Note_on_c, 2, 59, 0
4, 64464, Note_on_c, 2, 61, 0
4, 64464, Note_on_c, 2, 64, 0
4, 64512, Note_on_c, 2, 61, 60
4, 64512, Note_on_c, 2, 64, 60
4, 64512, Note_on_c, 2, 67, 60
4, 64512, Note_on_c, 2, 69, 60
4, 64848, Note_on_c, 2, 61, 0
4, 64848, Note_on_c, 2, 64, 0
4, 64848, Note_on_c, 2, 67, 0
4, 64848, Note_on_c, 2, 69, 0
4, 64896, Note_on_c, 2, 54, 60
4, 64896, Note_on_c, 2, 61, 60
4, 64896, Note_on_c, 2, 64, 60
4, 64896, Note_on_c, 2, 69, 60
4, 65824, Note_on_c, 2, 54, 0
4, 65824, Note_on_c, 2, 61, 0
4, 65824, Note_on_c, 2, 64, 0
4, 65824, Note_on_c, 2, 69, 0
4, 65856, Note_on_c, 2, 61, 60
4, 65856, Note_on_c, 2, 64, 60
4, 65856, Note_on_c, 2, 66, 60
4, 65856, Note_on_c, 2, 69, 60
4, 66384, Note_on_c, 2, 61, 0
4, 66384, Note_on_c, 2, 64, 0
4, 66384, Note_on_c, 2, 66, 0
4, 66384, Note_on_c, 2, 69, 0
4, 66432, Note_on_c, 2, 53, 60
4, 66432, Note_on_c, 2, 57, 60
4, 66432, Note_on_c, 2, 60, 60
4, 66432, Note_on_c, 2, 62, 60
4, 67152, Note_on_c, 2, 53, 0
4, 67152, Note_on_c, 2, 57, 0
4, 67152, Note_on_c, 2, 60, 0
4, 67152, Note_on_c, 2, 62, 0
4, 67200, Note_on_c, 2, 53, 60
4, 67200, Note_on_c, 2, 57, 60
4, 67200, Note_on_c, 2, 59, 60
4, 67200, Note_on_c, 2, 64, 60
4, 67920, Note_on_c, 2, 53, 0
4, 67920, Note_on_c, 2, 57, 0
4, 67920, Note_on_c, 2, 59, 0
4, 67920, Note_on_c, 2, 64, 0
4, 67968, Note_on_c, 2, 52, 60
4, 67968, Note_on_c, 2, 59, 60
4, 67968, Note_on_c, 2, 62, 60
4, 67968, Note_on_c, 2, 67, 60
4, 68896, Note_on_c, 2, 52, 0
4, 68896, Note_on_c, 2, 59, 0
4, 68896, Note_on_c, 2, 62, 0
4, 68896, Note_on_c, 2, 67, 0
4, 68928, Note_on_c, 2, 59, 60
4, 68928, Note_on_c, 2, 62, 60
4, 68928, Note_on_c, 2, 64, 60
4, 68928, Note_on_c, 2, 67, 60
4, 69456, Note_on_c, 2, 59, 0
4, 69456, Note_on_c, 2, 62, 0
4, 69456, Note_on_c, 2, 64, 0
4, 69456, Note_on_c, 2, 67, 0
4, 69504, Note_on_c, 2, 51, 60
4, 69504, Note_on_c, 2, 58, 60
4, 69504, Note_on_c, 2, 62, 60
4, 69504, Note_on_c, 2, 67, 60
4, 70224, Note_on_c, 2, 51, 0
4, 70224, Note_on_c, 2, 58, 0
4, 70224, Note_on_c, 2, 62, 0
4, 70224, Note_on_c, 2, 67, 0
4, 70272, Note_on_c, 2, 51, 60
4, 70272, Note_on_c, 2, 57, 60
4, 70272, Note_on_c, 2, 60, 60
4, 70272, Note_on_c, 2, 65, 60
4, 70608, Note_on_c, 2, 51, 0
4, 70608, Note_on_c, 2, 57, 0
4, 70608, Note_on_c, 2, 60, 0
4, 70608, Note_on_c, 2, 65, 0
4, 70656, Note_on_c, 2, 60, 60
4, 70656, Note_on_c, 2, 63, 60
4, 70656, Note_on_c, 2, 65, 60
4, 70656, Note_on_c, 2, 69, 60
4, 70992, Note_on_c, 2, 60, 0
4, 70992, Note_on_c, 2, 63, 0
4, 70992, Note_on_c, 2, 65, 0
4, 70992, Note_on_c, 2, 69, 0
4, 71040, Note_on_c, 2, 57, 60
4, 71040, Note_on_c, 2, 60, 60
4, 71040, Note_on_c, 2, 62, 60
4, 71040, Note_on_c, 2, 65, 60
4, 71760, Note_on_c, 2, 57, 0
4, 71760, Note_on_c, 2, 60, 0
4, 71760, Note_on_c, 2, 62, 0
4, 71760, Note_on_c, 2, 65, 0
4, 71808, Note_on_c, 2, 53, 60
4, 71808, Note_on_c, 2, 58, 60
4, 71808, Note_on_c, 2, 62, 60
4, 71808, Note_on_c, 2, 67, 60
4, 72528, Note_on_c, 2, 53, 0
4, 72528, Note_on_c, 2, 58, 0
4, 72528, Note_on_c, 2, 62, 0
4, 72528, Note_on_c, 2, 67, 0
4, 72576, Note_on_c, 2, 55, 60
4, 72576, Note_on_c, 2, 62, 60
4, 72576, Note_on_c, 2, 64, 60
4, 72576, Note_on_c, 2, 71, 60
4, 73296, Note_on_c, 2, 55, 0
4, 73296, Note_on_c, 2, 62, 0
4, 73296, Note_on_c, 2, 64, 0
4, 73296, Note_on_c, 2, 71, 0
4, 73344, Note_on_c, 2, 57, 60
4, 73344, Note_on_c, 2, 63, 60
4, 73344, Note_on_c, 2, 65, 60
4, 73344, Note_on_c, 2, 72, 60
4, 74064, Note_on_c, 2, 57, 0
4, 74064, Note_on_c, 2, 63, 0
4, 74064, Note_on_c, 2, 65, 0
4, 74064, Note_on_c, 2, 72, 0
4, 74112, Note_on_c, 2, 57, 60
4, 74112, Note_on_c, 2, 62, 60
4, 74112, Note_on_c, 2, 65, 60
4, 74112, Note_on_c, 2, 72, 60
4, 74832, Note_on_c, 2, 57, 0
4, 74832, Note_on_c, 2, 62, 0
4, 74832, Note_on_c, 2, 65, 0
4, 74832, Note_on_c, 2, 72, 0
4, 75072, Note_on_c, 2, 55, 60
4, 75072, Note_on_c, 2, 57, 60
4, 75072, Note_on_c, 2, 61, 60
4, 75072, Note_on_c, 2, 64, 60
4, 75600, Note_on_c, 2, 55, 0
4, 75600, Note_on_c, 2, 57, 0
4, 75600, Note_on_c, 2, 61, 0
4, 75600, Note_on_c, 2, 64, 0
4, 75648, Note_on_c, 2, 55, 60
4, 75648, Note_on_c, 2, 62, 60
4, 75648, Note_on_c, 2, 64, 60
4, 75648, Note_on_c, 2, 71, 60
4, 76368, Note_on_c, 2, 55, 0
4, 76368, Note_on_c, 2, 62, 0
4, 76368, Note_on_c, 2, 64, 0
4, 76368, Note_on_c, 2, 71, 0
4, 76416, Note_on_c, 2, 55, 60
4, 76416, Note_on_c, 2, 58, 60
4, 76416, Note_on_c, 2, 61, 60
4, 76416, Note_on_c, 2, 65, 60
4, 76752, Note_on_c, 2, 55, 0
4, 76752, Note_on_c, 2, 58, 0
4, 76752, Note_on_c, 2, 61, 0
4, 76752, Note_on_c, 2, 65, 0
4, 76800, Note_on_c, 2, 61, 60
4, 76800, Note_on_c, 2, 64, 60
4, 76800, Note_on_c, 2, 67, 60
4, 76800, Note_on_c, 2, 69, 60
4, 77136, Note_on_c, 2, 61, 0
4, 77136, Note_on_c, 2, 64, 0
4, 77136, Note_on_c, 2, 67, 0
4, 77136, Note_on_c, 2, 69, 0
4, 77184, Note_on_c, 2, 54, 60
4, 77184, Note_on_c, 2, 61, 60
4, 77184, Note_on_c, 2, 64, 60
4, 77184, Note_on_c, 2, 69, 60
4, 78672, Note_on_c, 2, 54, 0
4, 78672, Note_on_c, 2, 61, 0
4, 78672, Note_on_c, 2, 64, 0
4, 78672, Note_on_c, 2, 69, 0
4, 78720, Control_c, 2, 7, 64
4, 78720, Note_on_c, 2, 55, 60
4, 78720, Note_on_c, 2, 62, 60
4, 78720, Note_on_c, 2, 66, 60
4, 78720, Note_on_c, 2, 71, 60
4, 79440, Note_on_c, 2, 55, 0
4, 79440, Note_on_c, 2, 62, 0
4, 79440, Note_on_c, 2, 66, 0
4, 79440, Note_on_c, 2, 71, 0
4, 79488, Note_on_c, 2, 55, 60
4, 79488, Note_on_c, 2, 61, 60
4, 79488, Note_on_c, 2, 65, 60
4, 79488, Note_on_c, 2, 70, 60
4, 80208, Note_on_c, 2, 55, 0
4, 80208, Note_on_c, 2, 61, 0
4, 80208, Note_on_c, 2, 65, 0
4, 80208, Note_on_c, 2, 70, 0
4, 80256, Note_on_c, 2, 56, 60
4, 80256, Note_on_c, 2, 61, 60
4, 80256, Note_on_c, 2, 64, 60
4, 80256, Note_on_c, 2, 69, 60
4, 81184, Note_on_c, 2, 56, 0
4, 81184, Note_on_c, 2, 61, 0
4, 81184, Note_on_c, 2, 64, 0
4, 81184, Note_on_c, 2, 69, 0
4, 81216, Note_on_c, 2, 61, 60
4, 81216, Note_on_c, 2, 64, 60
4, 81216, Note_on_c, 2, 66, 60
4, 81216, Note_on_c, 2, 69, 60
4, 81744, Note_on_c, 2, 61, 0
4, 81744, Note_on_c, 2, 64, 0
4, 81744, Note_on_c, 2, 66, 0
4, 81744, Note_on_c, 2, 69, 0
4, 81792, Note_on_c, 2, 56, 60
4, 81792, Note_on_c, 2, 57, 60
4, 81792, Note_on_c, 2, 61, 60
4, 81792, Note_on_c, 2, 64, 60
4, 83280, Note_on_c, 2, 56, 0
4, 83280, Note_on_c, 2, 57, 0
4, 83280, Note_on_c, 2, 61, 0
4, 83280, Note_on_c, 2, 64, 0
4, 83328, Note_on_c, 2, 56, 30
4, 83328, Note_on_c, 2, 61, 30
4, 83328, Note_on_c, 2, 64, 30
4, 83328, Note_on_c, 2, 69, 30
4, 84048, Note_on_c, 2, 56, 0
4, 84048, Note_on_c, 2, 61, 0
4, 84048, Note_on_c, 2, 64, 0
4, 84048, Note_on_c, 2, 69, 0
4, 84048, End_track
5, 0, Start_track
5, 0, MIDI_port, 0
5, 0, Title_t, "Tempo Track"
5, 0, Control_c, 0, 7, 127
5, 0, Control_c, 0, 10, 64
5, 0, End_track
6, 0, Start_track
6, 0, MIDI_port, 0
6, 0, Title_t, "Acoustic Grand Piano 1"
6, 0, Program_c, 3, 0
6, 0, Control_c, 3, 7, 127
6, 0, Control_c, 3, 10, 64
6, 0, Program_c, 3, 0
6, 480, Note_on_c, 3, 62, 60
6, 480, Note_on_c, 3, 64, 60
6, 528, Note_on_c, 3, 62, 0
6, 528, Note_on_c, 3, 64, 0
6, 672, Note_on_c, 3, 62, 60
6, 672, Note_on_c, 3, 64, 60
6, 766, Note_on_c, 3, 62, 0
6, 766, Note_on_c, 3, 64, 0
6, 768, Note_on_c, 3, 69, 60
6, 1024, Note_on_c, 3, 69, 0
6, 1056, Note_on_c, 3, 62, 60
6, 1056, Note_on_c, 3, 64, 60
6, 1150, Note_on_c, 3, 62, 0
6, 1150, Note_on_c, 3, 64, 0
6, 1248, Note_on_c, 3, 62, 60
6, 1248, Note_on_c, 3, 64, 60
6, 1342, Note_on_c, 3, 62, 0
6, 1342, Note_on_c, 3, 64, 0
6, 1344, Note_on_c, 3, 69, 60
6, 1630, Note_on_c, 3, 69, 0
6, 1632, Note_on_c, 3, 62, 60
6, 1632, Note_on_c, 3, 64, 60
6, 1726, Note_on_c, 3, 62, 0
6, 1726, Note_on_c, 3, 64, 0
6, 1824, Note_on_c, 3, 62, 60
6, 1824, Note_on_c, 3, 64, 60
6, 1918, Note_on_c, 3, 62, 0
6, 1918, Note_on_c, 3, 64, 0
6, 1920, Note_on_c, 3, 69, 60
6, 2256, Note_on_c, 3, 69, 0
6, 2304, Note_on_c, 3, 62, 60
6, 2304, Note_on_c, 3, 64, 60
6, 2352, Note_on_c, 3, 62, 0
6, 2352, Note_on_c, 3, 64, 0
6, 2496, Note_on_c, 3, 62, 60
6, 2496, Note_on_c, 3, 64, 60
6, 2590, Note_on_c, 3, 62, 0
6, 2590, Note_on_c, 3, 64, 0
6, 2592, Note_on_c, 3, 57, 60
6, 2686, Note_on_c, 3, 57, 0
6, 2686, End_track
7, 0, Start_track
7, 0, MIDI_port, 0
7, 0, Title_t, "Trumpet"
7, 0, Program_c, 4, 56
7, 0, Control_c, 4, 7, 127
7, 0, Control_c, 4, 10, 64
7, 0, Program_c, 4, 56
7, 3456, Note_on_c, 4, 69, 75
7, 3984, Note_on_c, 4, 69, 0
7, 4032, Note_on_c, 4, 67, 75
7, 4192, Note_on_c, 4, 67, 0
7, 4224, Note_on_c, 4, 63, 75
7, 4560, Note_on_c, 4, 63, 0
7, 4608, Note_on_c, 4, 64, 75
7, 4864, Note_on_c, 4, 64, 0
7, 4896, Note_on_c, 4, 66, 75
7, 5712, Note_on_c, 4, 66, 0
7, 6528, Note_on_c, 4, 67, 75
7, 7056, Note_on_c, 4, 67, 0
7, 7104, Note_on_c, 4, 65, 75
7, 7264, Note_on_c, 4, 65, 0
7, 7296, Note_on_c, 4, 61, 75
7, 7632, Note_on_c, 4, 61, 0
7, 7680, Note_on_c, 4, 62, 75
7, 7936, Note_on_c, 4, 62, 0
7, 7968, Note_on_c, 4, 64, 75
7, 8784, Note_on_c, 4, 64, 0
7, 9408, Note_on_c, 4, 64, 75
7, 9568, Note_on_c, 4, 64, 0
7, 9600, Note_on_c, 4, 63, 75
7, 9936, Note_on_c, 4, 63, 0
7, 9984, Note_on_c, 4, 63, 75
7, 10240, Note_on_c, 4, 63, 0
7, 10272, Note_on_c, 4, 63, 75
7, 10704, Note_on_c, 4, 64, 0
7, 10752, Note_on_c, 4, 65, 75
7, 10846, Note_on_c, 4, 65, 0
7, 10848, Note_on_c, 4, 67, 75
7, 11008, Note_on_c, 4, 67, 0
7, 11040, Note_on_c, 4, 69, 75
7, 11134, Note_on_c, 4, 69, 0
7, 11136, Note_on_c, 4, 74, 75
7, 11392, Note_on_c, 4, 74, 0
7, 11424, Note_on_c, 4, 74, 75
7, 11856, Note_on_c, 4, 74, 0
7, 12384, Note_on_c, 4, 74, 75
7, 12544, Note_on_c, 4, 74, 0
7, 12576, Note_on_c, 4, 72, 75
7, 12670, Note_on_c, 4, 72, 0
7, 12672, Note_on_c, 4, 69, 75
7, 12928, Note_on_c, 4, 69, 0
7, 12960, Note_on_c, 4, 69, 75
7, 13392, Note_on_c, 4, 69, 0
7, 13728, Note_on_c, 4, 67, 75
7, 13822, Note_on_c, 4, 67, 0
7, 13824, Note_on_c, 4, 69, 75
7, 13918, Note_on_c, 4, 69, 0
7, 13920, Note_on_c, 4, 72, 75
7, 14014, Note_on_c, 4, 72, 0
7, 14016, Note_on_c, 4, 69, 75
7, 14110, Note_on_c, 4, 69, 0
7, 14112, Note_on_c, 4, 67, 75
7, 14206, Note_on_c, 4, 67, 0
7, 14208, Note_on_c, 4, 69, 75
7, 14464, Note_on_c, 4, 69, 0
7, 14496, Note_on_c, 4, 69, 75
7, 14928, Note_on_c, 4, 69, 0
7, 15456, Note_on_c, 4, 72, 75
7, 15616, Note_on_c, 4, 72, 0
7, 15648, Note_on_c, 4, 70, 75
7, 15742, Note_on_c, 4, 70, 0
7, 15744, Note_on_c, 4, 69, 75
7, 16272, Note_on_c, 4, 69, 0
7, 16320, Note_on_c, 4, 67, 75
7, 16480, Note_on_c, 4, 67, 0
7, 16512, Note_on_c, 4, 63, 75
7, 16848, Note_on_c, 4, 63, 0
7, 16896, Note_on_c, 4, 64, 75
7, 17152, Note_on_c, 4, 64, 0
7, 17184, Note_on_c, 4, 66, 75
7, 18000, Note_on_c, 4, 66, 0
7, 18816, Note_on_c, 4, 67, 75
7, 19344, Note_on_c, 4, 67, 0
7, 19392, Note_on_c, 4, 65, 75
7, 19552, Note_on_c, 4, 65, 0
7, 19584, Note_on_c, 4, 61, 75
7, 19920, Note_on_c, 4, 61, 0
7, 19968, Note_on_c, 4, 62, 75
7, 20224, Note_on_c, 4, 62, 0
7, 20256, Note_on_c, 4, 64, 75
7, 21072, Note_on_c, 4, 64, 0
7, 21696, Note_on_c, 4, 64, 75
7, 21856, Note_on_c, 4, 64, 0
7, 21888, Note_on_c, 4, 63, 75
7, 22224, Note_on_c, 4, 63, 0
7, 22272, Note_on_c, 4, 63, 75
7, 22528, Note_on_c, 4, 63, 0
7, 22560, Note_on_c, 4, 63, 75
7, 22992, Note_on_c, 4, 64, 0
7, 23040, Note_on_c, 4, 65, 75
7, 23134, Note_on_c, 4, 65, 0
7, 23136, Note_on_c, 4, 67, 75
7, 23296, Note_on_c, 4, 67, 0
7, 23328, Note_on_c, 4, 69, 75
7, 23422, Note_on_c, 4, 69, 0
7, 23424, Note_on_c, 4, 74, 75
7, 23680, Note_on_c, 4, 74, 0
7, 23712, Note_on_c, 4, 74, 75
7, 24144, Note_on_c, 4, 74, 0
7, 24672, Note_on_c, 4, 74, 75
7, 24832, Note_on_c, 4, 74, 0
7, 24864, Note_on_c, 4, 72, 75
7, 24958, Note_on_c, 4, 72, 0
7, 24960, Note_on_c, 4, 69, 75
7, 25216, Note_on_c, 4, 69, 0
7, 25248, Note_on_c, 4, 69, 75
7, 26448, Note_on_c, 4, 69, 0
7, 26496, Note_on_c, 4, 69, 105
7, 26656, Note_on_c, 4, 69, 0
7, 28032, Note_on_c, 4, 69, 75
7, 28560, Note_on_c, 4, 69, 0
7, 28608, Note_on_c, 4, 67, 75
7, 28768, Note_on_c, 4, 67, 0
7, 28800, Note_on_c, 4, 63, 75
7, 29136, Note_on_c, 4, 63, 0
7, 29184, Note_on_c, 4, 64, 75
7, 29440, Note_on_c, 4, 64, 0
7, 29472, Note_on_c, 4, 66, 75
7, 30288, Note_on_c, 4, 66, 0
7, 31104, Note_on_c, 4, 67, 75
7, 31632, Note_on_c, 4, 67, 0
7, 31680, Note_on_c, 4, 65, 75
7, 31840, Note_on_c, 4, 65, 0
7, 31872, Note_on_c, 4, 61, 75
7, 32208, Note_on_c, 4, 61, 0
7, 32256, Note_on_c, 4, 62, 75
7, 32512, Note_on_c, 4, 62, 0
7, 32544, Note_on_c, 4, 64, 75
7, 33360, Note_on_c, 4, 64, 0
7, 33984, Note_on_c, 4, 64, 75
7, 34144, Note_on_c, 4, 64, 0
7, 34176, Note_on_c, 4, 63, 75
7, 34512, Note_on_c, 4, 63, 0
7, 34560, Note_on_c, 4, 63, 75
7, 34816, Note_on_c, 4, 63, 0
7, 34848, Note_on_c, 4, 63, 75
7, 35280, Note_on_c, 4, 64, 0
7, 35328, Note_on_c, 4, 65, 75
7, 35422, Note_on_c, 4, 65, 0
7, 35424, Note_on_c, 4, 67, 75
7, 35584, Note_on_c, 4, 67, 0
7, 35616, Note_on_c, 4, 69, 75
7, 35710, Note_on_c, 4, 69, 0
7, 35712, Note_on_c, 4, 74, 75
7, 35968, Note_on_c, 4, 74, 0
7, 36000, Note_on_c, 4, 74, 75
7, 36432, Note_on_c, 4, 74, 0
7, 36960, Note_on_c, 4, 74, 75
7, 37120, Note_on_c, 4, 74, 0
7, 37152, Note_on_c, 4, 72, 75
7, 37246, Note_on_c, 4, 72, 0
7, 37248, Note_on_c, 4, 69, 75
7, 38352, Note_on_c, 4, 69, 0
7, 38496, Note_on_c, 4, 73, 75
7, 38656, Note_on_c, 4, 73, 0
7, 38688, Note_on_c, 4, 71, 75
7, 38782, Note_on_c, 4, 71, 0
7, 38784, Note_on_c, 4, 68, 75
7, 42576, Note_on_c, 4, 68, 0
7, 78720, Note_on_c, 4, 69, 92
7, 79824, Note_on_c, 4, 69, 0
7, 79968, Note_on_c, 4, 73, 92
7, 80128, Note_on_c, 4, 73, 0
7, 80160, Note_on_c, 4, 71, 92
7, 80254, Note_on_c, 4, 71, 0
7, 80256, Note_on_c, 4, 68, 75
7, 84048, Note_on_c, 4, 68, 0
7, 84048, End_track
0, 0, End_of_file
