0, 0, Header, 1, 2, 256
1, 0, Start_track
1, 0, Time_signature, 4, 2, 24, 8
1, 0, Sequencer_specific, 11, 5, 15, 18, 3, 3, 127, 127, 0, 255, 1, 5
1, 0, Copyright_t, ""
1, 0, Tempo, 400000
1, 0, Sequencer_specific, 15, 5, 15, 28, 50, 48, 49, 49, 46, 49, 49, 46, 48, 56, 1, 3
1, 0, Sequencer_specific, 42, 5, 15, 45, 77, 105, 99, 114, 111, 115, 111, 102, 116, 32, 83, 97, 110, 115, 32, 83, 101, 114, 105, 102, 44, 56, 46, 50, 53, 44, 70, 97, 108, 115, 101, 44, 70, 97, 108, 115, 101, 44, 49
1, 0, Key_signature, -3, "major"
1, 0, Title_t, "Adele - Turning Tables"
1, 0, Text_t, ""
1, 0, Text_t, ""
1, 0, End_track
2, 0, Start_track
2, 0, Sequencer_specific, 5, 5, 15, 9, 6, 64
2, 0, Program_c, 0, 1
2, 0, Title_t, "Adele - TurningTables 2011"
2, 0, Control_c, 0, 7, 127
2, 0, Sequencer_specific, 15, 5, 15, 6, 71, 101, 110, 101, 114, 97, 108, 32, 77, 73, 68, 73
2, 0, Control_c, 0, 121, 0
2, 0, Control_c, 0, 64, 0
2, 0, Control_c, 0, 91, 48
2, 0, Control_c, 0, 10, 51
2, 0, Note_on_c, 0, 60, 63
2, 0, Control_c, 0, 121, 0
2, 0, Control_c, 0, 64, 0
2, 0, Control_c, 0, 91, 48
2, 0, Control_c, 0, 10, 51
2, 0, Note_on_c, 0, 48, 67
2, 0, Note_on_c, 0, 60, 67
2, 128, Note_off_c, 0, 60, 0
2, 128, Note_on_c, 0, 63, 86
2, 256, Note_off_c, 0, 63, 0
2, 256, Note_on_c, 0, 60, 74
2, 384, Note_off_c, 0, 60, 0
2, 384, Note_on_c, 0, 63, 85
2, 512, Note_off_c, 0, 63, 0
2, 512, Note_on_c, 0, 70, 87
2, 512, Note_off_c, 0, 48, 0
2, 512, Note_off_c, 0, 60, 0
2, 512, Note_on_c, 0, 48, 76
2, 512, Note_on_c, 0, 60, 76
2, 640, Note_off_c, 0, 70, 0
2, 640, Note_on_c, 0, 63, 69
2, 768, Note_off_c, 0, 63, 0
2, 768, Note_on_c, 0, 70, 87
2, 896, Note_off_c, 0, 70, 0
2, 896, Note_on_c, 0, 63, 68
2, 1024, Note_off_c, 0, 63, 0
2, 1024, Note_on_c, 0, 60, 68
2, 1024, Note_off_c, 0, 48, 0
2, 1024, Note_off_c, 0, 60, 0
2, 1024, Note_on_c, 0, 48, 77
2, 1024, Note_on_c, 0, 60, 77
2, 1152, Note_off_c, 0, 60, 0
2, 1152, Note_on_c, 0, 63, 78
2, 1280, Note_off_c, 0, 63, 0
2, 1280, Note_on_c, 0, 60, 73
2, 1408, Note_off_c, 0, 60, 0
2, 1408, Note_on_c, 0, 63, 80
2, 1536, Note_off_c, 0, 63, 0
2, 1536, Note_on_c, 0, 70, 86
2, 1536, Note_off_c, 0, 48, 0
2, 1536, Note_off_c, 0, 60, 0
2, 1536, Note_on_c, 0, 48, 79
2, 1536, Note_on_c, 0, 60, 79
2, 1664, Note_off_c, 0, 70, 0
2, 1664, Note_on_c, 0, 63, 68
2, 1792, Note_off_c, 0, 63, 0
2, 1792, Note_on_c, 0, 70, 87
2, 1920, Note_off_c, 0, 70, 0
2, 1920, Note_on_c, 0, 63, 67
2, 2048, Note_off_c, 0, 63, 0
2, 2048, Note_on_c, 0, 60, 69
2, 2048, Note_off_c, 0, 48, 0
2, 2048, Note_off_c, 0, 60, 0
2, 2048, Note_on_c, 0, 44, 72
2, 2048, Note_on_c, 0, 56, 72
2, 2176, Note_off_c, 0, 60, 0
2, 2176, Note_on_c, 0, 63, 83
2, 2304, Note_off_c, 0, 63, 0
2, 2304, Note_on_c, 0, 60, 72
2, 2432, Note_off_c, 0, 60, 0
2, 2432, Note_on_c, 0, 63, 84
2, 2560, Note_off_c, 0, 63, 0
2, 2560, Note_on_c, 0, 70, 94
2, 2560, Note_off_c, 0, 44, 0
2, 2560, Note_off_c, 0, 56, 0
2, 2560, Note_on_c, 0, 44, 73
2, 2560, Note_on_c, 0, 56, 73
2, 2688, Note_off_c, 0, 70, 0
2, 2688, Note_on_c, 0, 63, 66
2, 2816, Note_off_c, 0, 63, 0
2, 2816, Note_on_c, 0, 70, 92
2, 2944, Note_off_c, 0, 70, 0
2, 2944, Note_on_c, 0, 63, 66
2, 3072, Note_off_c, 0, 63, 0
2, 3072, Note_on_c, 0, 60, 65
2, 3072, Note_off_c, 0, 44, 0
2, 3072, Note_off_c, 0, 56, 0
2, 3072, Note_on_c, 0, 44, 79
2, 3072, Note_on_c, 0, 56, 79
2, 3200, Note_off_c, 0, 60, 0
2, 3200, Note_on_c, 0, 63, 85
2, 3328, Note_off_c, 0, 63, 0
2, 3328, Note_on_c, 0, 60, 71
2, 3456, Note_off_c, 0, 60, 0
2, 3456, Note_on_c, 0, 63, 79
2, 3584, Note_off_c, 0, 63, 0
2, 3584, Note_on_c, 0, 70, 88
2, 3584, Note_off_c, 0, 44, 0
2, 3584, Note_off_c, 0, 56, 0
2, 3584, Note_on_c, 0, 44, 81
2, 3584, Note_on_c, 0, 56, 81
2, 3712, Note_off_c, 0, 70, 0
2, 3712, Note_on_c, 0, 63, 71
2, 3840, Note_off_c, 0, 63, 0
2, 3840, Note_on_c, 0, 70, 87
2, 3968, Note_off_c, 0, 70, 0
2, 3968, Note_on_c, 0, 63, 63
2, 4096, Note_off_c, 0, 63, 0
2, 4096, Note_on_c, 0, 60, 67
2, 4096, Note_off_c, 0, 44, 0
2, 4096, Note_off_c, 0, 56, 0
2, 4096, Note_on_c, 0, 41, 70
2, 4096, Note_on_c, 0, 53, 70
2, 4224, Note_off_c, 0, 60, 0
2, 4224, Note_on_c, 0, 63, 83
2, 4352, Note_off_c, 0, 63, 0
2, 4352, Note_on_c, 0, 60, 70
2, 4480, Note_off_c, 0, 60, 0
2, 4480, Note_on_c, 0, 63, 82
2, 4608, Note_off_c, 0, 63, 0
2, 4608, Note_on_c, 0, 67, 83
2, 4608, Note_off_c, 0, 41, 0
2, 4608, Note_off_c, 0, 53, 0
2, 4608, Note_on_c, 0, 41, 75
2, 4608, Note_on_c, 0, 53, 75
2, 4736, Note_off_c, 0, 67, 0
2, 4736, Note_on_c, 0, 63, 67
2, 4864, Note_off_c, 0, 63, 0
2, 4864, Note_on_c, 0, 67, 82
2, 4992, Note_off_c, 0, 67, 0
2, 4992, Note_on_c, 0, 63, 71
2, 5120, Note_off_c, 0, 63, 0
2, 5120, Note_on_c, 0, 60, 68
2, 5120, Note_off_c, 0, 41, 0
2, 5120, Note_off_c, 0, 53, 0
2, 5120, Note_on_c, 0, 41, 78
2, 5120, Note_on_c, 0, 53, 78
2, 5248, Note_off_c, 0, 60, 0
2, 5248, Note_on_c, 0, 63, 79
2, 5376, Note_off_c, 0, 63, 0
2, 5376, Note_on_c, 0, 60, 74
2, 5504, Note_off_c, 0, 60, 0
2, 5504, Note_on_c, 0, 63, 76
2, 5632, Note_off_c, 0, 63, 0
2, 5632, Note_on_c, 0, 67, 88
2, 5632, Note_off_c, 0, 41, 0
2, 5632, Note_off_c, 0, 53, 0
2, 5632, Note_on_c, 0, 41, 74
2, 5632, Note_on_c, 0, 53, 74
2, 5760, Note_off_c, 0, 67, 0
2, 5760, Note_on_c, 0, 63, 69
2, 5888, Note_off_c, 0, 63, 0
2, 5888, Note_on_c, 0, 67, 82
2, 6016, Note_off_c, 0, 67, 0
2, 6016, Note_on_c, 0, 63, 68
2, 6144, Note_off_c, 0, 63, 0
2, 6144, Note_on_c, 0, 60, 69
2, 6144, Note_off_c, 0, 41, 0
2, 6144, Note_off_c, 0, 53, 0
2, 6144, Note_on_c, 0, 44, 78
2, 6144, Note_on_c, 0, 56, 78
2, 6272, Note_off_c, 0, 60, 0
2, 6272, Note_on_c, 0, 63, 86
2, 6400, Note_off_c, 0, 63, 0
2, 6400, Note_on_c, 0, 60, 70
2, 6528, Note_off_c, 0, 60, 0
2, 6528, Note_on_c, 0, 63, 84
2, 6656, Note_off_c, 0, 63, 0
2, 6656, Note_on_c, 0, 68, 89
2, 6656, Note_off_c, 0, 44, 0
2, 6656, Note_off_c, 0, 56, 0
2, 6656, Note_on_c, 0, 44, 81
2, 6656, Note_on_c, 0, 56, 81
2, 6784, Note_off_c, 0, 68, 0
2, 6784, Note_on_c, 0, 63, 65
2, 6912, Note_off_c, 0, 63, 0
2, 6912, Note_on_c, 0, 68, 84
2, 7040, Note_off_c, 0, 68, 0
2, 7040, Note_on_c, 0, 63, 67
2, 7168, Note_off_c, 0, 63, 0
2, 7168, Note_on_c, 0, 60, 66
2, 7168, Note_off_c, 0, 44, 0
2, 7168, Note_off_c, 0, 56, 0
2, 7168, Note_on_c, 0, 44, 77
2, 7168, Note_on_c, 0, 56, 77
2, 7296, Note_off_c, 0, 60, 0
2, 7296, Note_on_c, 0, 63, 81
2, 7424, Note_off_c, 0, 63, 0
2, 7424, Note_on_c, 0, 60, 68
2, 7552, Note_off_c, 0, 60, 0
2, 7552, Note_on_c, 0, 63, 82
2, 7680, Note_off_c, 0, 63, 0
2, 7680, Note_on_c, 0, 68, 86
2, 7680, Note_off_c, 0, 44, 0
2, 7680, Note_off_c, 0, 56, 0
2, 7680, Note_on_c, 0, 44, 74
2, 7680, Note_on_c, 0, 56, 74
2, 7808, Note_off_c, 0, 68, 0
2, 7808, Note_on_c, 0, 67, 77
2, 7936, Note_off_c, 0, 67, 0
2, 7936, Note_on_c, 0, 60, 60
2, 8064, Note_off_c, 0, 60, 0
2, 8064, Note_on_c, 0, 63, 78
2, 8192, Note_off_c, 0, 63, 0
2, 8192, Note_on_c, 0, 60, 70
2, 8192, Note_off_c, 0, 44, 0
2, 8192, Note_off_c, 0, 56, 0
2, 8192, Note_on_c, 0, 48, 88
2, 8192, Note_on_c, 0, 60, 88
2, 8320, Note_off_c, 0, 60, 0
2, 8320, Note_on_c, 0, 63, 80
2, 8448, Note_off_c, 0, 63, 0
2, 8448, Note_on_c, 0, 60, 67
2, 8576, Note_off_c, 0, 60, 0
2, 8576, Note_on_c, 0, 63, 85
2, 8704, Note_off_c, 0, 63, 0
2, 8704, Note_on_c, 0, 70, 86
2, 8704, Note_off_c, 0, 48, 0
2, 8704, Note_off_c, 0, 60, 0
2, 8704, Note_on_c, 0, 48, 84
2, 8704, Note_on_c, 0, 60, 84
2, 8832, Note_off_c, 0, 70, 0
2, 8832, Note_on_c, 0, 63, 66
2, 8960, Note_off_c, 0, 63, 0
2, 8960, Note_on_c, 0, 70, 89
2, 9088, Note_off_c, 0, 70, 0
2, 9088, Note_on_c, 0, 63, 66
2, 9216, Note_off_c, 0, 63, 0
2, 9216, Note_on_c, 0, 60, 71
2, 9216, Note_off_c, 0, 48, 0
2, 9216, Note_off_c, 0, 60, 0
2, 9216, Note_on_c, 0, 48, 78
2, 9216, Note_on_c, 0, 60, 78
2, 9344, Note_off_c, 0, 60, 0
2, 9344, Note_on_c, 0, 63, 82
2, 9472, Note_off_c, 0, 63, 0
2, 9472, Note_on_c, 0, 60, 70
2, 9600, Note_off_c, 0, 60, 0
2, 9600, Note_on_c, 0, 63, 77
2, 9728, Note_off_c, 0, 63, 0
2, 9728, Note_on_c, 0, 70, 89
2, 9728, Note_off_c, 0, 48, 0
2, 9728, Note_off_c, 0, 60, 0
2, 9728, Note_on_c, 0, 48, 80
2, 9728, Note_on_c, 0, 60, 80
2, 9856, Note_off_c, 0, 70, 0
2, 9856, Note_on_c, 0, 63, 65
2, 9984, Note_off_c, 0, 63, 0
2, 9984, Note_on_c, 0, 70, 87
2, 10112, Note_off_c, 0, 70, 0
2, 10112, Note_on_c, 0, 63, 61
2, 10240, Note_off_c, 0, 63, 0
2, 10240, Note_on_c, 0, 60, 69
2, 10240, Note_off_c, 0, 48, 0
2, 10240, Note_off_c, 0, 60, 0
2, 10240, Note_on_c, 0, 44, 73
2, 10240, Note_on_c, 0, 56, 73
2, 10368, Note_off_c, 0, 60, 0
2, 10368, Note_on_c, 0, 63, 75
2, 10496, Note_off_c, 0, 63, 0
2, 10496, Note_on_c, 0, 60, 67
2, 10624, Note_off_c, 0, 60, 0
2, 10624, Note_on_c, 0, 63, 83
2, 10752, Note_off_c, 0, 63, 0
2, 10752, Note_on_c, 0, 70, 90
2, 10752, Note_off_c, 0, 44, 0
2, 10752, Note_off_c, 0, 56, 0
2, 10752, Note_on_c, 0, 44, 73
2, 10752, Note_on_c, 0, 56, 73
2, 10880, Note_off_c, 0, 70, 0
2, 10880, Note_on_c, 0, 63, 65
2, 11008, Note_off_c, 0, 63, 0
2, 11008, Note_on_c, 0, 70, 90
2, 11136, Note_off_c, 0, 70, 0
2, 11136, Note_on_c, 0, 63, 63
2, 11264, Note_off_c, 0, 63, 0
2, 11264, Note_on_c, 0, 60, 73
2, 11264, Note_off_c, 0, 44, 0
2, 11264, Note_off_c, 0, 56, 0
2, 11264, Note_on_c, 0, 44, 81
2, 11264, Note_on_c, 0, 56, 81
2, 11392, Note_off_c, 0, 60, 0
2, 11392, Note_on_c, 0, 63, 77
2, 11520, Note_off_c, 0, 63, 0
2, 11520, Note_on_c, 0, 60, 72
2, 11648, Note_off_c, 0, 60, 0
2, 11648, Note_on_c, 0, 63, 81
2, 11776, Note_off_c, 0, 63, 0
2, 11776, Note_on_c, 0, 70, 89
2, 11776, Note_off_c, 0, 44, 0
2, 11776, Note_off_c, 0, 56, 0
2, 11776, Note_on_c, 0, 44, 75
2, 11776, Note_on_c, 0, 56, 75
2, 11904, Note_off_c, 0, 70, 0
2, 11904, Note_on_c, 0, 63, 65
2, 12032, Note_off_c, 0, 63, 0
2, 12032, Note_on_c, 0, 70, 89
2, 12160, Note_off_c, 0, 70, 0
2, 12160, Note_on_c, 0, 63, 63
2, 12288, Note_off_c, 0, 63, 0
2, 12288, Note_on_c, 0, 60, 71
2, 12288, Note_off_c, 0, 44, 0
2, 12288, Note_off_c, 0, 56, 0
2, 12288, Note_on_c, 0, 41, 72
2, 12288, Note_on_c, 0, 53, 72
2, 12416, Note_off_c, 0, 60, 0
2, 12416, Note_on_c, 0, 63, 85
2, 12544, Note_off_c, 0, 63, 0
2, 12544, Note_on_c, 0, 60, 69
2, 12672, Note_off_c, 0, 60, 0
2, 12672, Note_on_c, 0, 63, 84
2, 12800, Note_off_c, 0, 63, 0
2, 12800, Note_on_c, 0, 67, 91
2, 12800, Note_off_c, 0, 41, 0
2, 12800, Note_off_c, 0, 53, 0
2, 12800, Note_on_c, 0, 41, 79
2, 12800, Note_on_c, 0, 53, 79
2, 12928, Note_off_c, 0, 67, 0
2, 12928, Note_on_c, 0, 63, 65
2, 13056, Note_off_c, 0, 63, 0
2, 13056, Note_on_c, 0, 67, 83
2, 13184, Note_off_c, 0, 67, 0
2, 13184, Note_on_c, 0, 63, 70
2, 13312, Note_off_c, 0, 63, 0
2, 13312, Note_on_c, 0, 60, 71
2, 13312, Note_off_c, 0, 41, 0
2, 13312, Note_off_c, 0, 53, 0
2, 13312, Note_on_c, 0, 41, 80
2, 13312, Note_on_c, 0, 53, 80
2, 13440, Note_off_c, 0, 60, 0
2, 13440, Note_on_c, 0, 63, 81
2, 13568, Note_off_c, 0, 63, 0
2, 13568, Note_on_c, 0, 60, 71
2, 13696, Note_off_c, 0, 60, 0
2, 13696, Note_on_c, 0, 63, 84
2, 13824, Note_off_c, 0, 63, 0
2, 13824, Note_on_c, 0, 67, 90
2, 13824, Note_off_c, 0, 41, 0
2, 13824, Note_off_c, 0, 53, 0
2, 13824, Note_on_c, 0, 41, 74
2, 13824, Note_on_c, 0, 53, 74
2, 13952, Note_off_c, 0, 67, 0
2, 13952, Note_on_c, 0, 63, 71
2, 14080, Note_off_c, 0, 63, 0
2, 14080, Note_on_c, 0, 67, 90
2, 14208, Note_off_c, 0, 67, 0
2, 14208, Note_on_c, 0, 63, 71
2, 14336, Note_off_c, 0, 63, 0
2, 14336, Note_on_c, 0, 60, 68
2, 14336, Note_off_c, 0, 41, 0
2, 14336, Note_off_c, 0, 53, 0
2, 14336, Note_on_c, 0, 44, 84
2, 14336, Note_on_c, 0, 56, 84
2, 14464, Note_off_c, 0, 60, 0
2, 14464, Note_on_c, 0, 63, 80
2, 14592, Note_off_c, 0, 63, 0
2, 14592, Note_on_c, 0, 60, 67
2, 14720, Note_off_c, 0, 60, 0
2, 14720, Note_on_c, 0, 63, 82
2, 14848, Note_off_c, 0, 63, 0
2, 14848, Note_on_c, 0, 68, 88
2, 14848, Note_off_c, 0, 44, 0
2, 14848, Note_off_c, 0, 56, 0
2, 14848, Note_on_c, 0, 44, 74
2, 14848, Note_on_c, 0, 56, 74
2, 14976, Note_off_c, 0, 68, 0
2, 14976, Note_on_c, 0, 63, 67
2, 15104, Note_off_c, 0, 63, 0
2, 15104, Note_on_c, 0, 68, 82
2, 15232, Note_off_c, 0, 68, 0
2, 15232, Note_on_c, 0, 63, 67
2, 15360, Note_off_c, 0, 63, 0
2, 15360, Note_on_c, 0, 60, 73
2, 15360, Note_off_c, 0, 44, 0
2, 15360, Note_off_c, 0, 56, 0
2, 15360, Note_on_c, 0, 44, 75
2, 15360, Note_on_c, 0, 56, 75
2, 15488, Note_off_c, 0, 60, 0
2, 15488, Note_on_c, 0, 63, 82
2, 15616, Note_off_c, 0, 63, 0
2, 15616, Note_on_c, 0, 60, 71
2, 15744, Note_off_c, 0, 60, 0
2, 15744, Note_on_c, 0, 63, 84
2, 15872, Note_off_c, 0, 63, 0
2, 15872, Note_on_c, 0, 68, 86
2, 15872, Note_off_c, 0, 44, 0
2, 15872, Note_off_c, 0, 56, 0
2, 15872, Note_on_c, 0, 44, 76
2, 15872, Note_on_c, 0, 56, 76
2, 16000, Note_off_c, 0, 68, 0
2, 16000, Note_on_c, 0, 67, 71
2, 16128, Note_off_c, 0, 67, 0
2, 16128, Note_on_c, 0, 60, 59
2, 16256, Note_off_c, 0, 60, 0
2, 16256, Note_on_c, 0, 63, 75
2, 16384, Note_off_c, 0, 63, 0
2, 16384, Note_off_c, 0, 44, 0
2, 16384, Note_off_c, 0, 56, 0
2, 16384, Note_on_c, 0, 48, 90
2, 16384, Note_on_c, 0, 60, 90
2, 16896, Lyric_t, "Close "
2, 16896, Note_on_c, 0, 63, 71
2, 16896, Note_off_c, 0, 48, 0
2, 16896, Note_off_c, 0, 60, 0
2, 16896, Note_on_c, 0, 48, 74
2, 16896, Note_on_c, 0, 60, 74
2, 17152, Note_off_c, 0, 63, 0
2, 17152, Lyric_t, "enough "
2, 17152, Note_on_c, 0, 62, 76
2, 17280, Note_off_c, 0, 62, 0
2, 17280, Note_on_c, 0, 63, 82
2, 17408, Note_off_c, 0, 48, 0
2, 17408, Note_off_c, 0, 60, 0
2, 17408, Note_on_c, 0, 48, 77
2, 17408, Note_on_c, 0, 60, 77
2, 17664, Note_off_c, 0, 63, 0
2, 17664, Lyric_t, "to "
2, 17664, Note_on_c, 0, 62, 73
2, 17792, Note_off_c, 0, 62, 0
2, 17792, Lyric_t, "start "
2, 17792, Note_on_c, 0, 63, 80
2, 17920, Note_off_c, 0, 48, 0
2, 17920, Note_off_c, 0, 60, 0
2, 17920, Note_on_c, 0, 48, 76
2, 17920, Note_on_c, 0, 60, 76
2, 18176, Note_off_c, 0, 63, 0
2, 18176, Lyric_t, "a "
2, 18176, Note_on_c, 0, 62, 72
2, 18304, Note_off_c, 0, 62, 0
2, 18304, Lyric_t, "war "
2, 18304, Note_on_c, 0, 60, 73
2, 18432, Note_off_c, 0, 48, 0
2, 18432, Note_off_c, 0, 60, 0
2, 18432, Note_on_c, 0, 44, 71
2, 18432, Note_on_c, 0, 56, 71
2, 18944, Note_off_c, 0, 44, 0
2, 18944, Note_off_c, 0, 56, 0
2, 18944, Note_on_c, 0, 44, 77
2, 18944, Note_on_c, 0, 56, 77
2, 19456, Note_off_c, 0, 60, 0
2, 19456, Note_off_c, 0, 44, 0
2, 19456, Note_off_c, 0, 56, 0
2, 19456, Note_on_c, 0, 44, 77
2, 19456, Note_on_c, 0, 56, 77
2, 19968, Lyric_t, "All "
2, 19968, Note_on_c, 0, 63, 66
2, 19968, Note_off_c, 0, 44, 0
2, 19968, Note_off_c, 0, 56, 0
2, 19968, Note_on_c, 0, 44, 83
2, 19968, Note_on_c, 0, 56, 83
2, 20224, Note_off_c, 0, 63, 0
2, 20224, Lyric_t, "that "
2, 20224, Note_on_c, 0, 63, 70
2, 20352, Note_off_c, 0, 63, 0
2, 20352, Lyric_t, "I "
2, 20352, Note_on_c, 0, 63, 78
2, 20480, Note_off_c, 0, 44, 0
2, 20480, Note_off_c, 0, 56, 0
2, 20480, Note_on_c, 0, 41, 76
2, 20480, Note_on_c, 0, 53, 76
2, 20736, Note_off_c, 0, 63, 0
2, 20736, Lyric_t, "have "
2, 20736, Note_on_c, 0, 60, 72
2, 20992, Note_off_c, 0, 41, 0
2, 20992, Note_off_c, 0, 53, 0
2, 20992, Note_on_c, 0, 41, 77
2, 20992, Note_on_c, 0, 53, 77
2, 21504, Note_off_c, 0, 60, 0
2, 21504, Note_off_c, 0, 41, 0
2, 21504, Note_off_c, 0, 53, 0
2, 21504, Note_on_c, 0, 41, 77
2, 21504, Note_on_c, 0, 53, 77
2, 21888, Lyric_t, "is "
2, 21888, Note_on_c, 0, 60, 65
2, 22016, Note_off_c, 0, 60, 0
2, 22016, Lyric_t, "on "
2, 22016, Note_on_c, 0, 63, 84
2, 22016, Note_off_c, 0, 41, 0
2, 22016, Note_off_c, 0, 53, 0
2, 22016, Note_on_c, 0, 41, 76
2, 22016, Note_on_c, 0, 53, 76
2, 22272, Note_off_c, 0, 63, 0
2, 22272, Lyric_t, "the "
2, 22272, Note_on_c, 0, 63, 75
2, 22400, Note_off_c, 0, 63, 0
2, 22400, Lyric_t, "floor "
2, 22400, Note_on_c, 0, 60, 72
2, 22528, Note_off_c, 0, 41, 0
2, 22528, Note_off_c, 0, 53, 0
2, 22528, Note_on_c, 0, 44, 76
2, 22528, Note_on_c, 0, 56, 76
2, 23040, Note_off_c, 0, 44, 0
2, 23040, Note_off_c, 0, 56, 0
2, 23040, Note_on_c, 0, 44, 73
2, 23040, Note_on_c, 0, 56, 73
2, 23552, Note_off_c, 0, 44, 0
2, 23552, Note_off_c, 0, 56, 0
2, 23552, Note_on_c, 0, 44, 77
2, 23552, Note_on_c, 0, 56, 77
2, 24064, Note_off_c, 0, 44, 0
2, 24064, Note_off_c, 0, 56, 0
2, 24064, Note_on_c, 0, 44, 71
2, 24064, Note_on_c, 0, 56, 71
2, 24576, Note_off_c, 0, 60, 0
2, 24576, Note_off_c, 0, 44, 0
2, 24576, Note_off_c, 0, 56, 0
2, 24576, Note_on_c, 0, 48, 88
2, 24576, Note_on_c, 0, 60, 88
2, 25088, Lyric_t, "God "
2, 25088, Note_on_c, 0, 63, 66
2, 25088, Note_off_c, 0, 48, 0
2, 25088, Note_off_c, 0, 60, 0
2, 25088, Note_on_c, 0, 48, 75
2, 25088, Note_on_c, 0, 60, 75
2, 25216, Note_off_c, 0, 63, 0
2, 25216, Lyric_t, "on"
2, 25216, Note_on_c, 0, 63, 76
2, 25344, Note_off_c, 0, 63, 0
2, 25344, Lyric_t, "ly "
2, 25344, Note_on_c, 0, 62, 73
2, 25472, Note_off_c, 0, 62, 0
2, 25472, Lyric_t, "knows "
2, 25472, Note_on_c, 0, 63, 81
2, 25600, Note_off_c, 0, 48, 0
2, 25600, Note_off_c, 0, 60, 0
2, 25600, Note_on_c, 0, 48, 73
2, 25600, Note_on_c, 0, 60, 73
2, 25728, Note_off_c, 0, 63, 0
2, 25728, Lyric_t, "what "
2, 25728, Note_on_c, 0, 63, 82
2, 25856, Note_off_c, 0, 63, 0
2, 25856, Lyric_t, "we're "
2, 25856, Note_on_c, 0, 65, 80
2, 25984, Note_off_c, 0, 65, 0
2, 25984, Lyric_t, "fight"
2, 25984, Note_on_c, 0, 67, 79
2, 26112, Lyric_t, "ing "
2, 26112, Note_off_c, 0, 48, 0
2, 26112, Note_off_c, 0, 60, 0
2, 26112, Note_on_c, 0, 48, 75
2, 26112, Note_on_c, 0, 60, 75
2, 26368, Note_off_c, 0, 67, 0
2, 26368, Note_on_c, 0, 63, 72
2, 26624, Note_off_c, 0, 63, 0
2, 26624, Lyric_t, "for "
2, 26624, Note_on_c, 0, 60, 66
2, 26624, Note_off_c, 0, 48, 0
2, 26624, Note_off_c, 0, 60, 0
2, 26624, Note_on_c, 0, 44, 70
2, 26624, Note_on_c, 0, 56, 70
2, 27136, Note_off_c, 0, 44, 0
2, 27136, Note_off_c, 0, 56, 0
2, 27136, Note_on_c, 0, 44, 78
2, 27136, Note_on_c, 0, 56, 78
2, 27648, Note_off_c, 0, 60, 0
2, 27648, Note_off_c, 0, 44, 0
2, 27648, Note_off_c, 0, 56, 0
2, 27648, Note_on_c, 0, 44, 76
2, 27648, Note_on_c, 0, 56, 76
2, 28160, Lyric_t, "All "
2, 28160, Note_on_c, 0, 62, 67
2, 28160, Note_off_c, 0, 44, 0
2, 28160, Note_off_c, 0, 56, 0
2, 28160, Note_on_c, 0, 44, 79
2, 28160, Note_on_c, 0, 56, 79
2, 28416, Note_off_c, 0, 62, 0
2, 28416, Lyric_t, "that "
2, 28416, Note_on_c, 0, 63, 73
2, 28544, Note_off_c, 0, 63, 0
2, 28544, Lyric_t, "I "
2, 28544, Note_on_c, 0, 63, 76
2, 28672, Note_off_c, 0, 44, 0
2, 28672, Note_off_c, 0, 56, 0
2, 28672, Note_on_c, 0, 41, 81
2, 28672, Note_on_c, 0, 53, 81
2, 28928, Note_off_c, 0, 63, 0
2, 28928, Lyric_t, "say "
2, 28928, Note_on_c, 0, 60, 74
2, 29184, Note_off_c, 0, 41, 0
2, 29184, Note_off_c, 0, 53, 0
2, 29184, Note_on_c, 0, 41, 72
2, 29184, Note_on_c, 0, 53, 72
2, 29696, Note_off_c, 0, 60, 0
2, 29696, Note_off_c, 0, 41, 0
2, 29696, Note_off_c, 0, 53, 0
2, 29696, Note_on_c, 0, 41, 78
2, 29696, Note_on_c, 0, 53, 78
2, 30080, Lyric_t, "you "
2, 30080, Note_on_c, 0, 63, 67
2, 30208, Note_off_c, 0, 63, 0
2, 30208, Lyric_t, "al"
2, 30208, Note_on_c, 0, 63, 75
2, 30208, Note_off_c, 0, 41, 0
2, 30208, Note_off_c, 0, 53, 0
2, 30208, Note_on_c, 0, 41, 73
2, 30208, Note_on_c, 0, 53, 73
2, 30400, Note_off_c, 0, 63, 0
2, 30400, Lyric_t, "ways "
2, 30400, Note_on_c, 0, 63, 79
2, 30592, Note_off_c, 0, 63, 0
2, 30592, Lyric_t, "say "
2, 30592, Note_on_c, 0, 63, 75
2, 30720, Note_off_c, 0, 41, 0
2, 30720, Note_off_c, 0, 53, 0
2, 30720, Note_on_c, 0, 44, 82
2, 30720, Note_on_c, 0, 56, 82
2, 30848, Note_off_c, 0, 63, 0
2, 30848, Lyric_t, "more "
2, 30848, Note_on_c, 0, 63, 77
2, 30976, Note_off_c, 0, 63, 0
2, 30976, Note_on_c, 0, 65, 82
2, 31104, Note_off_c, 0, 65, 0
2, 31104, Note_on_c, 0, 60, 66
2, 31232, Note_off_c, 0, 44, 0
2, 31232, Note_off_c, 0, 56, 0
2, 31232, Note_on_c, 0, 44, 74
2, 31232, Note_on_c, 0, 56, 74
2, 31744, Note_off_c, 0, 44, 0
2, 31744, Note_off_c, 0, 56, 0
2, 31744, Note_on_c, 0, 44, 77
2, 31744, Note_on_c, 0, 56, 77
2, 32256, Note_off_c, 0, 44, 0
2, 32256, Note_off_c, 0, 56, 0
2, 32256, Note_on_c, 0, 44, 76
2, 32256, Note_on_c, 0, 56, 76
2, 32768, Note_off_c, 0, 60, 0
2, 32768, Lyric_t, "I "
2, 32768, Note_on_c, 0, 67, 97
2, 32768, Note_on_c, 0, 72, 97
2, 32768, Note_off_c, 0, 44, 0
2, 32768, Note_off_c, 0, 56, 0
2, 32768, Note_on_c, 0, 48, 82
2, 32768, Note_on_c, 0, 60, 82
2, 33024, Note_off_c, 0, 67, 0
2, 33024, Note_off_c, 0, 72, 0
2, 33152, Lyric_t, "can't "
2, 33152, Note_on_c, 0, 70, 67
2, 33152, Note_on_c, 0, 74, 67
2, 33280, Note_off_c, 0, 48, 0
2, 33280, Note_off_c, 0, 60, 0
2, 33280, Note_on_c, 0, 48, 80
2, 33280, Note_on_c, 0, 60, 80
2, 33408, Note_off_c, 0, 70, 0
2, 33408, Note_off_c, 0, 74, 0
2, 33536, Lyric_t, "keep "
2, 33536, Note_on_c, 0, 72, 66
2, 33536, Note_on_c, 0, 75, 66
2, 33792, Note_off_c, 0, 72, 0
2, 33792, Note_off_c, 0, 75, 0
2, 33792, Note_off_c, 0, 48, 0
2, 33792, Note_off_c, 0, 60, 0
2, 33792, Note_on_c, 0, 48, 78
2, 33792, Note_on_c, 0, 60, 78
2, 33920, Lyric_t, "up "
2, 33920, Note_on_c, 0, 74, 74
2, 33920, Note_on_c, 0, 77, 74
2, 34176, Note_off_c, 0, 74, 0
2, 34176, Note_off_c, 0, 77, 0
2, 34240, Lyric_t, "with "
2, 34240, Note_on_c, 0, 72, 68
2, 34240, Note_on_c, 0, 75, 68
2, 34304, Note_off_c, 0, 48, 0
2, 34304, Note_off_c, 0, 60, 0
2, 34304, Note_on_c, 0, 48, 76
2, 34304, Note_on_c, 0, 60, 76
2, 34496, Note_off_c, 0, 72, 0
2, 34496, Note_off_c, 0, 75, 0
2, 34560, Lyric_t, "your "
2, 34560, Note_on_c, 0, 70, 65
2, 34560, Note_on_c, 0, 74, 65
2, 34816, Note_off_c, 0, 70, 0
2, 34816, Note_off_c, 0, 74, 0
2, 34816, Lyric_t, "tur"
2, 34816, Note_on_c, 0, 68, 70
2, 34816, Note_on_c, 0, 72, 70
2, 34816, Note_off_c, 0, 48, 0
2, 34816, Note_off_c, 0, 60, 0
2, 34816, Note_on_c, 0, 44, 71
2, 34816, Note_on_c, 0, 56, 71
2, 35072, Note_off_c, 0, 68, 0
2, 35072, Note_off_c, 0, 72, 0
2, 35200, Lyric_t, "ning "
2, 35200, Note_on_c, 0, 70, 69
2, 35200, Note_on_c, 0, 74, 69
2, 35328, Note_off_c, 0, 44, 0
2, 35328, Note_off_c, 0, 56, 0
2, 35328, Note_on_c, 0, 44, 79
2, 35328, Note_on_c, 0, 56, 79
2, 35456, Note_off_c, 0, 70, 0
2, 35456, Note_off_c, 0, 74, 0
2, 35584, Lyric_t, "ta"
2, 35584, Note_on_c, 0, 72, 65
2, 35584, Note_on_c, 0, 75, 65
2, 35840, Note_off_c, 0, 72, 0
2, 35840, Note_off_c, 0, 75, 0
2, 35840, Note_off_c, 0, 44, 0
2, 35840, Note_off_c, 0, 56, 0
2, 35840, Note_on_c, 0, 44, 76
2, 35840, Note_on_c, 0, 56, 76
2, 35968, Lyric_t, "bles "
2, 35968, Note_on_c, 0, 74, 67
2, 35968, Note_on_c, 0, 77, 67
2, 36224, Note_off_c, 0, 74, 0
2, 36224, Note_off_c, 0, 77, 0
2, 36288, Lyric_t, "un"
2, 36288, Note_on_c, 0, 72, 70
2, 36288, Note_on_c, 0, 75, 70
2, 36352, Note_off_c, 0, 44, 0
2, 36352, Note_off_c, 0, 56, 0
2, 36352, Note_on_c, 0, 44, 81
2, 36352, Note_on_c, 0, 56, 81
2, 36544, Note_off_c, 0, 72, 0
2, 36544, Note_off_c, 0, 75, 0
2, 36608, Lyric_t, "der "
2, 36608, Note_on_c, 0, 70, 70
2, 36608, Note_on_c, 0, 74, 70
2, 36864, Note_off_c, 0, 70, 0
2, 36864, Note_off_c, 0, 74, 0
2, 36864, Lyric_t, "your "
2, 36864, Note_on_c, 0, 68, 69
2, 36864, Note_on_c, 0, 72, 69
2, 36864, Note_off_c, 0, 44, 0
2, 36864, Note_off_c, 0, 56, 0
2, 36864, Note_on_c, 0, 41, 77
2, 36864, Note_on_c, 0, 53, 77
2, 37120, Note_off_c, 0, 68, 0
2, 37120, Note_off_c, 0, 72, 0
2, 37248, Lyric_t, "thumb "
2, 37248, Note_on_c, 0, 70, 69
2, 37248, Note_on_c, 0, 74, 69
2, 37376, Note_off_c, 0, 41, 0
2, 37376, Note_off_c, 0, 53, 0
2, 37376, Note_on_c, 0, 41, 75
2, 37376, Note_on_c, 0, 53, 75
2, 37504, Note_off_c, 0, 70, 0
2, 37504, Note_off_c, 0, 74, 0
2, 37632, Lyric_t, "I "
2, 37632, Note_on_c, 0, 72, 72
2, 37632, Note_on_c, 0, 75, 72
2, 37888, Note_off_c, 0, 72, 0
2, 37888, Note_off_c, 0, 75, 0
2, 37888, Note_off_c, 0, 41, 0
2, 37888, Note_off_c, 0, 53, 0
2, 37888, Note_on_c, 0, 41, 81
2, 37888, Note_on_c, 0, 53, 81
2, 38144, Lyric_t, "can't "
2, 38144, Note_on_c, 0, 63, 65
2, 38144, Note_on_c, 0, 70, 65
2, 38400, Note_off_c, 0, 41, 0
2, 38400, Note_off_c, 0, 53, 0
2, 38656, Note_off_c, 0, 63, 0
2, 38656, Note_off_c, 0, 70, 0
2, 38656, Lyric_t, "breathe "
2, 38656, Note_on_c, 0, 65, 76
2, 38656, Note_on_c, 0, 70, 76
2, 38656, Note_on_c, 0, 46, 72
2, 38656, Note_on_c, 0, 58, 72
2, 40448, Note_off_c, 0, 65, 0
2, 40448, Note_off_c, 0, 70, 0
2, 40448, Note_off_c, 0, 46, 0
2, 40448, Note_off_c, 0, 58, 0
2, 40832, Lyric_t, "So "
2, 40832, Note_on_c, 0, 70, 68
2, 40960, Note_off_c, 0, 70, 0
2, 40960, Lyric_t, "I "
2, 40960, Note_on_c, 0, 75, 94
2, 40960, Note_on_c, 0, 79, 94
2, 40960, Note_on_c, 0, 48, 66
2, 40960, Note_on_c, 0, 60, 66
2, 41344, Note_off_c, 0, 75, 0
2, 41344, Note_off_c, 0, 79, 0
2, 41344, Lyric_t, "won't "
2, 41344, Note_on_c, 0, 72, 72
2, 41344, Note_on_c, 0, 75, 72
2, 41472, Note_off_c, 0, 48, 0
2, 41472, Note_off_c, 0, 60, 0
2, 41472, Note_on_c, 0, 48, 76
2, 41472, Note_on_c, 0, 60, 76
2, 41984, Note_off_c, 0, 72, 0
2, 41984, Note_off_c, 0, 75, 0
2, 41984, Lyric_t, "let "
2, 41984, Note_on_c, 0, 75, 86
2, 41984, Note_on_c, 0, 79, 86
2, 41984, Note_off_c, 0, 48, 0
2, 41984, Note_off_c, 0, 60, 0
2, 41984, Note_on_c, 0, 44, 72
2, 41984, Note_on_c, 0, 56, 72
2, 42368, Note_off_c, 0, 75, 0
2, 42368, Note_off_c, 0, 79, 0
2, 42368, Lyric_t, "you "
2, 42368, Note_on_c, 0, 72, 73
2, 42368, Note_on_c, 0, 75, 73
2, 42496, Note_off_c, 0, 44, 0
2, 42496, Note_off_c, 0, 56, 0
2, 42496, Note_on_c, 0, 44, 78
2, 42496, Note_on_c, 0, 56, 78
2, 43008, Note_off_c, 0, 72, 0
2, 43008, Note_off_c, 0, 75, 0
2, 43008, Lyric_t, "close "
2, 43008, Note_on_c, 0, 72, 78
2, 43008, Note_on_c, 0, 75, 78
2, 43008, Note_off_c, 0, 44, 0
2, 43008, Note_off_c, 0, 56, 0
2, 43008, Note_on_c, 0, 39, 72
2, 43008, Note_on_c, 0, 51, 72
2, 43392, Note_off_c, 0, 72, 0
2, 43392, Note_off_c, 0, 75, 0
2, 43392, Lyric_t, "enough "
2, 43392, Note_on_c, 0, 72, 78
2, 43392, Note_on_c, 0, 75, 78
2, 43520, Note_off_c, 0, 39, 0
2, 43520, Note_off_c, 0, 51, 0
2, 43520, Note_on_c, 0, 39, 74
2, 43520, Note_on_c, 0, 51, 74
2, 43776, Note_off_c, 0, 72, 0
2, 43776, Note_off_c, 0, 75, 0
2, 43776, Lyric_t, "to "
2, 43776, Note_on_c, 0, 77, 80
2, 43904, Note_off_c, 0, 77, 0
2, 43904, Lyric_t, "hurt "
2, 43904, Note_on_c, 0, 72, 78
2, 43904, Note_on_c, 0, 77, 78
2, 44032, Note_off_c, 0, 39, 0
2, 44032, Note_off_c, 0, 51, 0
2, 44032, Note_on_c, 0, 41, 77
2, 44032, Note_on_c, 0, 53, 77
2, 44416, Note_off_c, 0, 72, 0
2, 44416, Note_off_c, 0, 77, 0
2, 44416, Lyric_t, "me "
2, 44416, Note_on_c, 0, 68, 65
2, 44416, Note_on_c, 0, 72, 65
2, 44544, Note_off_c, 0, 41, 0
2, 44544, Note_off_c, 0, 53, 0
2, 44544, Note_on_c, 0, 41, 72
2, 44544, Note_on_c, 0, 53, 72
2, 44800, Note_off_c, 0, 68, 0
2, 44800, Note_off_c, 0, 72, 0
2, 44800, Lyric_t, "no "
2, 44800, Note_on_c, 0, 68, 75
2, 44800, Note_on_c, 0, 72, 75
2, 45056, Note_off_c, 0, 68, 0
2, 45056, Note_off_c, 0, 72, 0
2, 45056, Lyric_t, "I "
2, 45056, Note_on_c, 0, 75, 91
2, 45056, Note_on_c, 0, 79, 91
2, 45056, Note_off_c, 0, 41, 0
2, 45056, Note_off_c, 0, 53, 0
2, 45056, Note_on_c, 0, 48, 91
2, 45056, Note_on_c, 0, 60, 91
2, 45440, Note_off_c, 0, 75, 0
2, 45440, Note_off_c, 0, 79, 0
2, 45440, Lyric_t, "won't "
2, 45440, Note_on_c, 0, 72, 70
2, 45440, Note_on_c, 0, 75, 70
2, 45568, Note_off_c, 0, 48, 0
2, 45568, Note_off_c, 0, 60, 0
2, 45568, Note_on_c, 0, 48, 77
2, 45568, Note_on_c, 0, 60, 77
2, 46080, Note_off_c, 0, 72, 0
2, 46080, Note_off_c, 0, 75, 0
2, 46080, Lyric_t, "res"
2, 46080, Note_on_c, 0, 75, 84
2, 46080, Note_on_c, 0, 79, 84
2, 46080, Note_off_c, 0, 48, 0
2, 46080, Note_off_c, 0, 60, 0
2, 46080, Note_on_c, 0, 44, 70
2, 46080, Note_on_c, 0, 56, 70
2, 46464, Note_off_c, 0, 75, 0
2, 46464, Note_off_c, 0, 79, 0
2, 46464, Lyric_t, "cue "
2, 46464, Note_on_c, 0, 72, 66
2, 46464, Note_on_c, 0, 75, 66
2, 46592, Note_off_c, 0, 44, 0
2, 46592, Note_off_c, 0, 56, 0
2, 46592, Note_on_c, 0, 44, 71
2, 46592, Note_on_c, 0, 56, 71
2, 47104, Note_off_c, 0, 72, 0
2, 47104, Note_off_c, 0, 75, 0
2, 47104, Lyric_t, "you "
2, 47104, Note_on_c, 0, 72, 76
2, 47104, Note_on_c, 0, 75, 76
2, 47104, Note_off_c, 0, 44, 0
2, 47104, Note_off_c, 0, 56, 0
2, 47104, Note_on_c, 0, 39, 70
2, 47104, Note_on_c, 0, 51, 70
2, 47488, Note_off_c, 0, 72, 0
2, 47488, Note_off_c, 0, 75, 0
2, 47488, Lyric_t, "to "
2, 47488, Lyric_t, "just "
2, 47488, Note_on_c, 0, 72, 77
2, 47488, Note_on_c, 0, 75, 77
2, 47616, Note_off_c, 0, 39, 0
2, 47616, Note_off_c, 0, 51, 0
2, 47616, Note_on_c, 0, 39, 75
2, 47616, Note_on_c, 0, 51, 75
2, 47872, Note_off_c, 0, 72, 0
2, 47872, Note_off_c, 0, 75, 0
2, 47872, Lyric_t, "de"
2, 47872, Note_on_c, 0, 77, 82
2, 48000, Note_off_c, 0, 77, 0
2, 48000, Lyric_t, "sert "
2, 48000, Note_on_c, 0, 72, 76
2, 48000, Note_on_c, 0, 77, 76
2, 48128, Note_off_c, 0, 39, 0
2, 48128, Note_off_c, 0, 51, 0
2, 48128, Note_on_c, 0, 41, 78
2, 48128, Note_on_c, 0, 53, 78
2, 48384, Note_off_c, 0, 72, 0
2, 48384, Note_off_c, 0, 77, 0
2, 48384, Lyric_t, "me "
2, 48384, Note_on_c, 0, 68, 67
2, 48384, Note_on_c, 0, 72, 67
2, 48640, Note_off_c, 0, 68, 0
2, 48640, Note_off_c, 0, 72, 0
2, 48640, Lyric_t, "I "
2, 48640, Note_on_c, 0, 72, 87
2, 48640, Note_on_c, 0, 75, 87
2, 48640, Note_off_c, 0, 41, 0
2, 48640, Note_off_c, 0, 53, 0
2, 48640, Note_on_c, 0, 41, 77
2, 48640, Note_on_c, 0, 53, 77
2, 48768, Note_off_c, 0, 72, 0
2, 48768, Note_off_c, 0, 75, 0
2, 48768, Lyric_t, "can't "
2, 48768, Note_on_c, 0, 72, 74
2, 48768, Note_on_c, 0, 77, 74
2, 49024, Note_off_c, 0, 72, 0
2, 49024, Note_off_c, 0, 77, 0
2, 49024, Lyric_t, "give "
2, 49024, Note_on_c, 0, 75, 81
2, 49024, Note_on_c, 0, 79, 81
2, 49152, Note_off_c, 0, 41, 0
2, 49152, Note_off_c, 0, 53, 0
2, 49152, Note_on_c, 0, 48, 91
2, 49152, Note_on_c, 0, 60, 91
2, 49280, Note_off_c, 0, 75, 0
2, 49280, Note_off_c, 0, 79, 0
2, 49280, Lyric_t, "you "
2, 49280, Note_on_c, 0, 79, 83
2, 49280, Note_on_c, 0, 82, 83
2, 49664, Note_off_c, 0, 79, 0
2, 49664, Note_off_c, 0, 82, 0
2, 49664, Note_off_c, 0, 48, 0
2, 49664, Note_off_c, 0, 60, 0
2, 49664, Note_on_c, 0, 48, 75
2, 49664, Note_on_c, 0, 60, 75
2, 49792, Note_on_c, 0, 75, 71
2, 49792, Note_on_c, 0, 79, 71
2, 50048, Note_off_c, 0, 75, 0
2, 50048, Note_off_c, 0, 79, 0
2, 50176, Lyric_t, "the "
2, 50176, Note_on_c, 0, 63, 70
2, 50176, Note_on_c, 0, 67, 70
2, 50176, Note_off_c, 0, 48, 0
2, 50176, Note_off_c, 0, 60, 0
2, 50176, Note_on_c, 0, 44, 74
2, 50176, Note_on_c, 0, 56, 74
2, 50560, Note_off_c, 0, 63, 0
2, 50560, Note_off_c, 0, 67, 0
2, 50560, Lyric_t, "heart "
2, 50560, Note_on_c, 0, 67, 81
2, 50560, Note_on_c, 0, 70, 81
2, 50688, Note_off_c, 0, 67, 0
2, 50688, Note_off_c, 0, 70, 0
2, 50688, Note_on_c, 0, 63, 60
2, 50688, Note_off_c, 0, 44, 0
2, 50688, Note_off_c, 0, 56, 0
2, 50688, Note_on_c, 0, 44, 75
2, 50688, Note_on_c, 0, 56, 75
2, 51200, Note_off_c, 0, 63, 0
2, 51200, Lyric_t, "you "
2, 51200, Note_on_c, 0, 68, 89
2, 51200, Note_on_c, 0, 72, 89
2, 51200, Note_off_c, 0, 44, 0
2, 51200, Note_off_c, 0, 56, 0
2, 51200, Note_on_c, 0, 44, 75
2, 51200, Note_on_c, 0, 56, 75
2, 51456, Note_off_c, 0, 68, 0
2, 51456, Note_off_c, 0, 72, 0
2, 51456, Lyric_t, "think "
2, 51456, Note_on_c, 0, 70, 78
2, 51584, Note_off_c, 0, 70, 0
2, 51584, Note_on_c, 0, 63, 64
2, 51712, Note_off_c, 0, 44, 0
2, 51712, Note_off_c, 0, 56, 0
2, 51712, Note_on_c, 0, 44, 75
2, 51712, Note_on_c, 0, 56, 75
2, 51968, Note_off_c, 0, 63, 0
2, 51968, Lyric_t, "you "
2, 51968, Note_on_c, 0, 67, 81
2, 52096, Note_off_c, 0, 67, 0
2, 52096, Lyric_t, "ga"
2, 52096, Note_on_c, 0, 68, 80
2, 52224, Note_off_c, 0, 68, 0
2, 52224, Lyric_t, "ve "
2, 52224, Note_on_c, 0, 67, 79
2, 52224, Note_off_c, 0, 44, 0
2, 52224, Note_off_c, 0, 56, 0
2, 52224, Note_on_c, 0, 41, 71
2, 52224, Note_on_c, 0, 53, 71
2, 52352, Note_off_c, 0, 67, 0
2, 52352, Lyric_t, "me "
2, 52352, Note_on_c, 0, 65, 74
2, 52736, Note_off_c, 0, 65, 0
2, 52736, Note_off_c, 0, 41, 0
2, 52736, Note_off_c, 0, 53, 0
2, 52736, Note_on_c, 0, 41, 76
2, 52736, Note_on_c, 0, 53, 76
2, 52864, Lyric_t, "It's "
2, 52864, Note_on_c, 0, 65, 70
2, 52992, Note_off_c, 0, 65, 0
2, 52992, Lyric_t, "time "
2, 52992, Note_on_c, 0, 65, 75
2, 53120, Note_off_c, 0, 65, 0
2, 53120, Lyric_t, "to "
2, 53120, Note_on_c, 0, 67, 85
2, 53248, Note_off_c, 0, 67, 0
2, 53248, Lyric_t, "say "
2, 53248, Note_on_c, 0, 72, 98
2, 53248, Note_on_c, 0, 77, 98
2, 53248, Note_off_c, 0, 41, 0
2, 53248, Note_off_c, 0, 53, 0
2, 53248, Note_on_c, 0, 41, 75
2, 53248, Note_on_c, 0, 53, 75
2, 53632, Note_off_c, 0, 72, 0
2, 53632, Note_off_c, 0, 77, 0
2, 53632, Lyric_t, "good"
2, 53632, Note_on_c, 0, 70, 76
2, 53632, Note_on_c, 0, 75, 76
2, 53760, Note_off_c, 0, 41, 0
2, 53760, Note_off_c, 0, 53, 0
2, 53760, Note_on_c, 0, 41, 79
2, 53760, Note_on_c, 0, 53, 79
2, 54016, Note_off_c, 0, 70, 0
2, 54016, Note_off_c, 0, 75, 0
2, 54016, Lyric_t, "bye "
2, 54016, Note_on_c, 0, 68, 70
2, 54016, Note_on_c, 0, 72, 70
2, 54272, Note_off_c, 0, 41, 0
2, 54272, Note_off_c, 0, 53, 0
2, 55296, Note_off_c, 0, 68, 0
2, 55296, Note_off_c, 0, 72, 0
2, 55296, Note_on_c, 0, 39, 74
2, 55296, Note_on_c, 0, 51, 74
2, 55808, Lyric_t, "to "
2, 55808, Note_on_c, 0, 77, 66
2, 55808, Note_off_c, 0, 39, 0
2, 55808, Note_off_c, 0, 51, 0
2, 55808, Note_on_c, 0, 39, 76
2, 55808, Note_on_c, 0, 51, 76
2, 55936, Note_off_c, 0, 77, 0
2, 55936, Lyric_t, "turn"
2, 55936, Note_on_c, 0, 75, 68
2, 56064, Note_off_c, 0, 75, 0
2, 56064, Lyric_t, "ing "
2, 56064, Note_on_c, 0, 74, 73
2, 56192, Note_off_c, 0, 74, 0
2, 56192, Lyric_t, "ta"
2, 56192, Note_on_c, 0, 75, 84
2, 56320, Note_off_c, 0, 39, 0
2, 56320, Note_off_c, 0, 51, 0
2, 56320, Note_on_c, 0, 48, 93
2, 56320, Note_on_c, 0, 60, 93
2, 56448, Note_off_c, 0, 75, 0
2, 56448, Lyric_t, "bles "
2, 56448, Note_on_c, 0, 75, 82
2, 56832, Note_off_c, 0, 75, 0
2, 56832, Note_on_c, 0, 70, 64
2, 56832, Note_off_c, 0, 48, 0
2, 56832, Note_off_c, 0, 60, 0
2, 56832, Note_on_c, 0, 48, 83
2, 56832, Note_on_c, 0, 60, 83
2, 57344, Note_off_c, 0, 70, 0
2, 57344, Note_on_c, 0, 60, 54
2, 57344, Note_off_c, 0, 48, 0
2, 57344, Note_off_c, 0, 60, 0
2, 57344, Note_on_c, 0, 48, 76
2, 57344, Note_on_c, 0, 60, 76
2, 57856, Note_off_c, 0, 60, 0
2, 57856, Note_on_c, 0, 63, 80
2, 57856, Note_off_c, 0, 48, 0
2, 57856, Note_off_c, 0, 60, 0
2, 57856, Note_on_c, 0, 48, 78
2, 57856, Note_on_c, 0, 60, 78
2, 58368, Note_off_c, 0, 63, 0
2, 58368, Note_on_c, 0, 60, 71
2, 58368, Note_off_c, 0, 48, 0
2, 58368, Note_off_c, 0, 60, 0
2, 58368, Note_on_c, 0, 44, 69
2, 58368, Note_on_c, 0, 56, 69
2, 58880, Note_off_c, 0, 60, 0
2, 58880, Note_on_c, 0, 63, 84
2, 58880, Note_off_c, 0, 44, 0
2, 58880, Note_off_c, 0, 56, 0
2, 58880, Note_on_c, 0, 44, 73
2, 58880, Note_on_c, 0, 56, 73
2, 59392, Note_off_c, 0, 63, 0
2, 59392, Note_on_c, 0, 60, 72
2, 59392, Note_off_c, 0, 44, 0
2, 59392, Note_off_c, 0, 56, 0
2, 59392, Note_on_c, 0, 44, 74
2, 59392, Note_on_c, 0, 56, 74
2, 59904, Note_off_c, 0, 60, 0
2, 59904, Lyric_t, "to "
2, 59904, Note_on_c, 0, 77, 93
2, 59904, Note_off_c, 0, 44, 0
2, 59904, Note_off_c, 0, 56, 0
2, 59904, Note_on_c, 0, 44, 76
2, 59904, Note_on_c, 0, 56, 76
2, 60032, Note_off_c, 0, 77, 0
2, 60032, Lyric_t, "turn"
2, 60032, Note_on_c, 0, 75, 70
2, 60160, Note_off_c, 0, 75, 0
2, 60160, Lyric_t, "ing "
2, 60160, Note_on_c, 0, 74, 73
2, 60288, Note_off_c, 0, 74, 0
2, 60288, Lyric_t, "ta"
2, 60288, Note_on_c, 0, 75, 77
2, 60416, Note_off_c, 0, 44, 0
2, 60416, Note_off_c, 0, 56, 0
2, 60416, Note_on_c, 0, 41, 76
2, 60416, Note_on_c, 0, 53, 76
2, 60672, Note_off_c, 0, 75, 0
2, 60672, Lyric_t, "bles "
2, 60672, Note_on_c, 0, 75, 69
2, 60928, Note_off_c, 0, 41, 0
2, 60928, Note_off_c, 0, 53, 0
2, 60928, Note_on_c, 0, 41, 75
2, 60928, Note_on_c, 0, 53, 75
2, 61440, Note_off_c, 0, 41, 0
2, 61440, Note_off_c, 0, 53, 0
2, 61440, Note_on_c, 0, 41, 76
2, 61440, Note_on_c, 0, 53, 76
2, 61952, Note_off_c, 0, 75, 0
2, 61952, Note_on_c, 0, 80, 88
2, 61952, Note_off_c, 0, 41, 0
2, 61952, Note_off_c, 0, 53, 0
2, 61952, Note_on_c, 0, 41, 76
2, 61952, Note_on_c, 0, 53, 76
2, 62080, Note_off_c, 0, 80, 0
2, 62080, Note_on_c, 0, 79, 71
2, 62208, Note_off_c, 0, 79, 0
2, 62208, Note_on_c, 0, 77, 70
2, 62464, Note_off_c, 0, 41, 0
2, 62464, Note_off_c, 0, 53, 0
2, 62464, Note_on_c, 0, 44, 74
2, 62464, Note_on_c, 0, 56, 74
2, 62976, Note_off_c, 0, 44, 0
2, 62976, Note_off_c, 0, 56, 0
2, 62976, Note_on_c, 0, 44, 79
2, 62976, Note_on_c, 0, 56, 79
2, 63232, Note_off_c, 0, 77, 0
2, 63232, Note_on_c, 0, 75, 70
2, 63488, Note_off_c, 0, 44, 0
2, 63488, Note_off_c, 0, 56, 0
2, 63488, Note_on_c, 0, 44, 78
2, 63488, Note_on_c, 0, 56, 78
2, 64000, Note_off_c, 0, 44, 0
2, 64000, Note_off_c, 0, 56, 0
2, 64000, Note_on_c, 0, 44, 73
2, 64000, Note_on_c, 0, 56, 73
2, 64512, Note_off_c, 0, 75, 0
2, 64512, Note_off_c, 0, 44, 0
2, 64512, Note_off_c, 0, 56, 0
2, 64512, Note_on_c, 0, 48, 81
2, 64512, Note_on_c, 0, 60, 81
2, 65024, Lyric_t, "under "
2, 65024, Note_on_c, 0, 63, 70
2, 65024, Note_off_c, 0, 48, 0
2, 65024, Note_off_c, 0, 60, 0
2, 65024, Note_on_c, 0, 48, 81
2, 65024, Note_on_c, 0, 60, 81
2, 65280, Note_off_c, 0, 63, 0
2, 65280, Lyric_t, "haunt"
2, 65280, Note_on_c, 0, 62, 76
2, 65408, Note_off_c, 0, 62, 0
2, 65408, Lyric_t, "ed "
2, 65408, Note_on_c, 0, 63, 77
2, 65536, Note_off_c, 0, 48, 0
2, 65536, Note_off_c, 0, 60, 0
2, 65536, Note_on_c, 0, 48, 76
2, 65536, Note_on_c, 0, 60, 76
2, 65792, Note_off_c, 0, 63, 0
2, 65792, Lyric_t, "skies "
2, 65792, Note_on_c, 0, 62, 70
2, 65920, Note_off_c, 0, 62, 0
2, 65920, Note_on_c, 0, 63, 80
2, 66048, Note_off_c, 0, 48, 0
2, 66048, Note_off_c, 0, 60, 0
2, 66048, Note_on_c, 0, 48, 77
2, 66048, Note_on_c, 0, 60, 77
2, 66304, Note_off_c, 0, 63, 0
2, 66304, Lyric_t, "i "
2, 66304, Note_on_c, 0, 62, 74
2, 66432, Note_off_c, 0, 62, 0
2, 66432, Lyric_t, "see "
2, 66432, Note_on_c, 0, 63, 77
2, 66560, Note_off_c, 0, 48, 0
2, 66560, Note_off_c, 0, 60, 0
2, 66560, Note_on_c, 0, 44, 75
2, 66560, Note_on_c, 0, 56, 75
2, 67072, Note_off_c, 0, 63, 0
2, 67072, Lyric_t, "you "
2, 67072, Note_on_c, 0, 65, 80
2, 67072, Note_off_c, 0, 44, 0
2, 67072, Note_off_c, 0, 56, 0
2, 67072, Note_on_c, 0, 44, 74
2, 67072, Note_on_c, 0, 56, 74
2, 67584, Note_off_c, 0, 65, 0
2, 67584, Note_off_c, 0, 44, 0
2, 67584, Note_off_c, 0, 56, 0
2, 67584, Note_on_c, 0, 44, 76
2, 67584, Note_on_c, 0, 56, 76
2, 67840, Lyric_t, "oh "
2, 67840, Note_on_c, 0, 63, 74
2, 67968, Note_off_c, 0, 63, 0
2, 67968, Note_on_c, 0, 65, 83
2, 68096, Note_off_c, 0, 65, 0
2, 68096, Note_on_c, 0, 68, 84
2, 68096, Note_off_c, 0, 44, 0
2, 68096, Note_off_c, 0, 56, 0
2, 68096, Note_on_c, 0, 44, 74
2, 68096, Note_on_c, 0, 56, 74
2, 68224, Note_off_c, 0, 68, 0
2, 68224, Note_on_c, 0, 67, 67
2, 68352, Note_off_c, 0, 67, 0
2, 68352, Note_on_c, 0, 65, 69
2, 68480, Note_off_c, 0, 65, 0
2, 68480, Note_on_c, 0, 63, 72
2, 68608, Note_off_c, 0, 63, 0
2, 68608, Note_on_c, 0, 63, 72
2, 68608, Note_off_c, 0, 44, 0
2, 68608, Note_off_c, 0, 56, 0
2, 68608, Note_on_c, 0, 41, 78
2, 68608, Note_on_c, 0, 53, 78
2, 69120, Note_off_c, 0, 63, 0
2, 69120, Lyric_t, "where "
2, 69120, Note_on_c, 0, 63, 71
2, 69120, Note_off_c, 0, 41, 0
2, 69120, Note_off_c, 0, 53, 0
2, 69120, Note_on_c, 0, 41, 75
2, 69120, Note_on_c, 0, 53, 75
2, 69248, Note_off_c, 0, 63, 0
2, 69248, Lyric_t, "love "
2, 69248, Note_on_c, 0, 63, 76
2, 69376, Note_off_c, 0, 63, 0
2, 69376, Lyric_t, "is "
2, 69376, Note_on_c, 0, 62, 72
2, 69504, Note_off_c, 0, 62, 0
2, 69504, Lyric_t, "lost "
2, 69504, Note_on_c, 0, 63, 76
2, 69632, Note_off_c, 0, 41, 0
2, 69632, Note_off_c, 0, 53, 0
2, 69632, Note_on_c, 0, 41, 81
2, 69632, Note_on_c, 0, 53, 81
2, 69888, Note_off_c, 0, 63, 0
2, 69888, Lyric_t, "your "
2, 69888, Note_on_c, 0, 63, 77
2, 70016, Note_off_c, 0, 63, 0
2, 70016, Lyric_t, "ghost "
2, 70016, Note_on_c, 0, 67, 84
2, 70144, Note_off_c, 0, 41, 0
2, 70144, Note_off_c, 0, 53, 0
2, 70144, Note_on_c, 0, 41, 75
2, 70144, Note_on_c, 0, 53, 75
2, 70400, Note_off_c, 0, 67, 0
2, 70400, Lyric_t, "is "
2, 70400, Note_on_c, 0, 63, 74
2, 70656, Note_off_c, 0, 63, 0
2, 70656, Lyric_t, "found "
2, 70656, Note_on_c, 0, 60, 70
2, 70656, Note_off_c, 0, 41, 0
2, 70656, Note_off_c, 0, 53, 0
2, 70656, Note_on_c, 0, 44, 77
2, 70656, Note_on_c, 0, 56, 77
2, 71168, Note_off_c, 0, 44, 0
2, 71168, Note_off_c, 0, 56, 0
2, 71168, Note_on_c, 0, 44, 74
2, 71168, Note_on_c, 0, 56, 74
2, 71296, Note_off_c, 0, 60, 0
2, 71296, Note_on_c, 0, 62, 86
2, 71360, Note_off_c, 0, 62, 0
2, 71360, Note_on_c, 0, 60, 71
2, 71424, Note_off_c, 0, 60, 0
2, 71424, Note_on_c, 0, 58, 74
2, 71680, Note_off_c, 0, 44, 0
2, 71680, Note_off_c, 0, 56, 0
2, 71680, Note_on_c, 0, 44, 73
2, 71680, Note_on_c, 0, 56, 73
2, 72192, Note_off_c, 0, 44, 0
2, 72192, Note_off_c, 0, 56, 0
2, 72192, Note_on_c, 0, 44, 75
2, 72192, Note_on_c, 0, 56, 75
2, 72704, Note_off_c, 0, 58, 0
2, 72704, Note_off_c, 0, 44, 0
2, 72704, Note_off_c, 0, 56, 0
2, 72704, Note_on_c, 0, 48, 85
2, 72704, Note_on_c, 0, 60, 85
2, 73216, Lyric_t, "I "
2, 73216, Note_on_c, 0, 67, 69
2, 73216, Note_off_c, 0, 48, 0
2, 73216, Note_off_c, 0, 60, 0
2, 73216, Note_on_c, 0, 48, 80
2, 73216, Note_on_c, 0, 60, 80
2, 73344, Note_off_c, 0, 67, 0
2, 73344, Lyric_t, "braved "
2, 73344, Note_on_c, 0, 67, 72
2, 73472, Note_off_c, 0, 67, 0
2, 73472, Lyric_t, "a "
2, 73472, Note_on_c, 0, 67, 74
2, 73600, Note_off_c, 0, 67, 0
2, 73600, Lyric_t, "hund"
2, 73600, Note_on_c, 0, 67, 77
2, 73728, Lyric_t, "red "
2, 73728, Note_off_c, 0, 48, 0
2, 73728, Note_off_c, 0, 60, 0
2, 73728, Note_on_c, 0, 48, 77
2, 73728, Note_on_c, 0, 60, 77
2, 73984, Note_off_c, 0, 67, 0
2, 73984, Lyric_t, "storms "
2, 73984, Note_on_c, 0, 67, 75
2, 74112, Note_off_c, 0, 67, 0
2, 74112, Note_on_c, 0, 70, 84
2, 74240, Note_off_c, 0, 48, 0
2, 74240, Note_off_c, 0, 60, 0
2, 74240, Note_on_c, 0, 48, 73
2, 74240, Note_on_c, 0, 60, 73
2, 74752, Note_off_c, 0, 70, 0
2, 74752, Note_off_c, 0, 48, 0
2, 74752, Note_off_c, 0, 60, 0
2, 74752, Note_on_c, 0, 44, 66
2, 74752, Note_on_c, 0, 56, 66
2, 74880, Lyric_t, "to "
2, 74880, Note_on_c, 0, 67, 73
2, 75008, Note_off_c, 0, 67, 0
2, 75008, Lyric_t, "leave "
2, 75008, Note_on_c, 0, 68, 81
2, 75136, Note_off_c, 0, 68, 0
2, 75136, Lyric_t, "you "
2, 75136, Note_on_c, 0, 67, 72
2, 75264, Note_off_c, 0, 67, 0
2, 75264, Note_on_c, 0, 65, 73
2, 75264, Note_off_c, 0, 44, 0
2, 75264, Note_off_c, 0, 56, 0
2, 75264, Note_on_c, 0, 44, 77
2, 75264, Note_on_c, 0, 56, 77
2, 75392, Note_off_c, 0, 65, 0
2, 75392, Note_on_c, 0, 63, 71
2, 75648, Note_off_c, 0, 63, 0
2, 75648, Note_on_c, 0, 65, 80
2, 75776, Note_off_c, 0, 65, 0
2, 75776, Note_off_c, 0, 44, 0
2, 75776, Note_off_c, 0, 56, 0
2, 75776, Note_on_c, 0, 44, 79
2, 75776, Note_on_c, 0, 56, 79
2, 76160, Lyric_t, "As "
2, 76160, Note_on_c, 0, 63, 71
2, 76288, Note_off_c, 0, 63, 0
2, 76288, Lyric_t, "hard "
2, 76288, Note_on_c, 0, 63, 71
2, 76288, Note_off_c, 0, 44, 0
2, 76288, Note_off_c, 0, 56, 0
2, 76288, Note_on_c, 0, 44, 76
2, 76288, Note_on_c, 0, 56, 76
2, 76416, Note_off_c, 0, 63, 0
2, 76416, Lyric_t, "as "
2, 76416, Note_on_c, 0, 65, 85
2, 76544, Note_off_c, 0, 65, 0
2, 76544, Lyric_t, "you "
2, 76544, Note_on_c, 0, 67, 79
2, 76672, Note_off_c, 0, 67, 0
2, 76672, Lyric_t, "try "
2, 76672, Note_on_c, 0, 70, 84
2, 76800, Note_off_c, 0, 44, 0
2, 76800, Note_off_c, 0, 56, 0
2, 76800, Note_on_c, 0, 41, 74
2, 76800, Note_on_c, 0, 53, 74
2, 77056, Note_off_c, 0, 70, 0
2, 77056, Lyric_t, "no "
2, 77056, Note_on_c, 0, 63, 65
2, 77184, Note_off_c, 0, 63, 0
2, 77184, Lyric_t, "I "
2, 77184, Note_on_c, 0, 65, 75
2, 77312, Note_off_c, 0, 41, 0
2, 77312, Note_off_c, 0, 53, 0
2, 77312, Note_on_c, 0, 41, 76
2, 77312, Note_on_c, 0, 53, 76
2, 77568, Note_off_c, 0, 65, 0
2, 77568, Lyric_t, "will "
2, 77568, Note_on_c, 0, 67, 79
2, 77696, Note_off_c, 0, 67, 0
2, 77696, Lyric_t, "never "
2, 77696, Note_on_c, 0, 65, 76
2, 77824, Note_off_c, 0, 65, 0
2, 77824, Lyric_t, "be "
2, 77824, Note_on_c, 0, 63, 66
2, 77824, Note_off_c, 0, 41, 0
2, 77824, Note_off_c, 0, 53, 0
2, 77824, Note_on_c, 0, 41, 80
2, 77824, Note_on_c, 0, 53, 80
2, 78080, Note_off_c, 0, 63, 0
2, 78336, Note_off_c, 0, 41, 0
2, 78336, Note_off_c, 0, 53, 0
2, 78336, Note_on_c, 0, 41, 78
2, 78336, Note_on_c, 0, 53, 78
2, 78464, Lyric_t, "knocked "
2, 78464, Note_on_c, 0, 67, 70
2, 78720, Note_off_c, 0, 67, 0
2, 78720, Note_on_c, 0, 65, 68
2, 78848, Note_off_c, 0, 65, 0
2, 78848, Lyric_t, "down "
2, 78848, Note_on_c, 0, 67, 78
2, 78848, Note_off_c, 0, 41, 0
2, 78848, Note_off_c, 0, 53, 0
2, 78848, Note_on_c, 0, 44, 80
2, 78848, Note_on_c, 0, 56, 80
2, 79360, Note_off_c, 0, 44, 0
2, 79360, Note_off_c, 0, 56, 0
2, 79360, Note_on_c, 0, 44, 78
2, 79360, Note_on_c, 0, 56, 78
2, 79616, Note_off_c, 0, 67, 0
2, 79616, Note_on_c, 0, 65, 78
2, 79744, Note_off_c, 0, 65, 0
2, 79744, Note_on_c, 0, 67, 82
2, 79872, Note_off_c, 0, 67, 0
2, 79872, Note_on_c, 0, 68, 81
2, 79872, Note_off_c, 0, 44, 0
2, 79872, Note_off_c, 0, 56, 0
2, 79872, Note_on_c, 0, 44, 76
2, 79872, Note_on_c, 0, 56, 76
2, 80000, Note_off_c, 0, 68, 0
2, 80000, Note_on_c, 0, 72, 85
2, 80384, Note_off_c, 0, 44, 0
2, 80384, Note_off_c, 0, 56, 0
2, 80384, Note_on_c, 0, 44, 79
2, 80384, Note_on_c, 0, 56, 79
2, 80512, Note_off_c, 0, 72, 0
2, 80896, Lyric_t, "I "
2, 80896, Note_on_c, 0, 67, 70
2, 80896, Note_on_c, 0, 72, 70
2, 80896, Note_off_c, 0, 44, 0
2, 80896, Note_off_c, 0, 56, 0
2, 80896, Note_on_c, 0, 48, 83
2, 80896, Note_on_c, 0, 60, 83
2, 81152, Note_off_c, 0, 67, 0
2, 81152, Note_off_c, 0, 72, 0
2, 81280, Lyric_t, "can't "
2, 81280, Note_on_c, 0, 70, 70
2, 81280, Note_on_c, 0, 74, 70
2, 81408, Note_off_c, 0, 48, 0
2, 81408, Note_off_c, 0, 60, 0
2, 81408, Note_on_c, 0, 48, 77
2, 81408, Note_on_c, 0, 60, 77
2, 81536, Note_off_c, 0, 70, 0
2, 81536, Note_off_c, 0, 74, 0
2, 81664, Lyric_t, "keep "
2, 81664, Note_on_c, 0, 72, 70
2, 81664, Note_on_c, 0, 75, 70
2, 81920, Note_off_c, 0, 72, 0
2, 81920, Note_off_c, 0, 75, 0
2, 81920, Note_off_c, 0, 48, 0
2, 81920, Note_off_c, 0, 60, 0
2, 81920, Note_on_c, 0, 48, 75
2, 81920, Note_on_c, 0, 60, 75
2, 82048, Lyric_t, "up "
2, 82048, Note_on_c, 0, 74, 69
2, 82048, Note_on_c, 0, 77, 69
2, 82304, Note_off_c, 0, 74, 0
2, 82304, Note_off_c, 0, 77, 0
2, 82368, Lyric_t, "with "
2, 82368, Note_on_c, 0, 72, 68
2, 82368, Note_on_c, 0, 75, 68
2, 82432, Note_off_c, 0, 48, 0
2, 82432, Note_off_c, 0, 60, 0
2, 82432, Note_on_c, 0, 48, 77
2, 82432, Note_on_c, 0, 60, 77
2, 82624, Note_off_c, 0, 72, 0
2, 82624, Note_off_c, 0, 75, 0
2, 82688, Lyric_t, "your "
2, 82688, Note_on_c, 0, 70, 66
2, 82688, Note_on_c, 0, 74, 66
2, 82944, Note_off_c, 0, 70, 0
2, 82944, Note_off_c, 0, 74, 0
2, 82944, Lyric_t, "tur"
2, 82944, Note_on_c, 0, 68, 68
2, 82944, Note_on_c, 0, 72, 68
2, 82944, Note_off_c, 0, 48, 0
2, 82944, Note_off_c, 0, 60, 0
2, 82944, Note_on_c, 0, 44, 71
2, 82944, Note_on_c, 0, 56, 71
2, 83200, Note_off_c, 0, 68, 0
2, 83200, Note_off_c, 0, 72, 0
2, 83328, Lyric_t, "ning "
2, 83328, Note_on_c, 0, 70, 63
2, 83328, Note_on_c, 0, 74, 63
2, 83456, Note_off_c, 0, 44, 0
2, 83456, Note_off_c, 0, 56, 0
2, 83456, Note_on_c, 0, 44, 78
2, 83456, Note_on_c, 0, 56, 78
2, 83584, Note_off_c, 0, 70, 0
2, 83584, Note_off_c, 0, 74, 0
2, 83712, Lyric_t, "ta"
2, 83712, Note_on_c, 0, 72, 69
2, 83712, Note_on_c, 0, 75, 69
2, 83968, Note_off_c, 0, 72, 0
2, 83968, Note_off_c, 0, 75, 0
2, 83968, Note_off_c, 0, 44, 0
2, 83968, Note_off_c, 0, 56, 0
2, 83968, Note_on_c, 0, 44, 76
2, 83968, Note_on_c, 0, 56, 76
2, 84096, Lyric_t, "bles "
2, 84096, Note_on_c, 0, 74, 71
2, 84096, Note_on_c, 0, 77, 71
2, 84352, Note_off_c, 0, 74, 0
2, 84352, Note_off_c, 0, 77, 0
2, 84416, Lyric_t, "und"
2, 84416, Note_on_c, 0, 72, 66
2, 84416, Note_on_c, 0, 75, 66
2, 84480, Note_off_c, 0, 44, 0
2, 84480, Note_off_c, 0, 56, 0
2, 84480, Note_on_c, 0, 44, 73
2, 84480, Note_on_c, 0, 56, 73
2, 84672, Note_off_c, 0, 72, 0
2, 84672, Note_off_c, 0, 75, 0
2, 84736, Lyric_t, "er "
2, 84736, Note_on_c, 0, 70, 66
2, 84736, Note_on_c, 0, 74, 66
2, 84992, Note_off_c, 0, 70, 0
2, 84992, Note_off_c, 0, 74, 0
2, 84992, Lyric_t, "your "
2, 84992, Note_on_c, 0, 68, 71
2, 84992, Note_on_c, 0, 72, 71
2, 84992, Note_off_c, 0, 44, 0
2, 84992, Note_off_c, 0, 56, 0
2, 84992, Note_on_c, 0, 41, 77
2, 84992, Note_on_c, 0, 53, 77
2, 85248, Note_off_c, 0, 68, 0
2, 85248, Note_off_c, 0, 72, 0
2, 85376, Lyric_t, "thumb "
2, 85376, Note_on_c, 0, 70, 72
2, 85376, Note_on_c, 0, 74, 72
2, 85504, Note_off_c, 0, 41, 0
2, 85504, Note_off_c, 0, 53, 0
2, 85504, Note_on_c, 0, 41, 79
2, 85504, Note_on_c, 0, 53, 79
2, 85632, Note_off_c, 0, 70, 0
2, 85632, Note_off_c, 0, 74, 0
2, 85760, Lyric_t, "I "
2, 85760, Note_on_c, 0, 72, 66
2, 85760, Note_on_c, 0, 75, 66
2, 86016, Note_off_c, 0, 72, 0
2, 86016, Note_off_c, 0, 75, 0
2, 86016, Note_off_c, 0, 41, 0
2, 86016, Note_off_c, 0, 53, 0
2, 86016, Note_on_c, 0, 41, 74
2, 86016, Note_on_c, 0, 53, 74
2, 86272, Lyric_t, "can't "
2, 86272, Note_on_c, 0, 63, 72
2, 86272, Note_on_c, 0, 70, 72
2, 86528, Note_off_c, 0, 41, 0
2, 86528, Note_off_c, 0, 53, 0
2, 86784, Note_off_c, 0, 63, 0
2, 86784, Note_off_c, 0, 70, 0
2, 86784, Lyric_t, "breathe "
2, 86784, Note_on_c, 0, 65, 75
2, 86784, Note_on_c, 0, 70, 75
2, 86784, Note_on_c, 0, 46, 67
2, 86784, Note_on_c, 0, 58, 67
2, 88576, Note_off_c, 0, 65, 0
2, 88576, Note_off_c, 0, 70, 0
2, 88576, Note_off_c, 0, 46, 0
2, 88576, Note_off_c, 0, 58, 0
2, 88960, Lyric_t, "So "
2, 88960, Note_on_c, 0, 70, 71
2, 89088, Note_off_c, 0, 70, 0
2, 89088, Lyric_t, "I "
2, 89088, Note_on_c, 0, 75, 90
2, 89088, Note_on_c, 0, 79, 90
2, 89088, Note_on_c, 0, 48, 68
2, 89088, Note_on_c, 0, 60, 68
2, 89472, Note_off_c, 0, 75, 0
2, 89472, Note_off_c, 0, 79, 0
2, 89472, Lyric_t, "won't "
2, 89472, Note_on_c, 0, 72, 73
2, 89472, Note_on_c, 0, 75, 73
2, 89600, Note_off_c, 0, 48, 0
2, 89600, Note_off_c, 0, 60, 0
2, 89600, Note_on_c, 0, 48, 78
2, 89600, Note_on_c, 0, 60, 78
2, 90112, Note_off_c, 0, 72, 0
2, 90112, Note_off_c, 0, 75, 0
2, 90112, Lyric_t, "let "
2, 90112, Note_on_c, 0, 75, 82
2, 90112, Note_on_c, 0, 79, 82
2, 90112, Note_off_c, 0, 48, 0
2, 90112, Note_off_c, 0, 60, 0
2, 90112, Note_on_c, 0, 44, 68
2, 90112, Note_on_c, 0, 56, 68
2, 90496, Note_off_c, 0, 75, 0
2, 90496, Note_off_c, 0, 79, 0
2, 90496, Lyric_t, "you "
2, 90496, Note_on_c, 0, 72, 62
2, 90496, Note_on_c, 0, 75, 62
2, 90624, Note_off_c, 0, 44, 0
2, 90624, Note_off_c, 0, 56, 0
2, 90624, Note_on_c, 0, 44, 76
2, 90624, Note_on_c, 0, 56, 76
2, 91136, Note_off_c, 0, 72, 0
2, 91136, Note_off_c, 0, 75, 0
2, 91136, Lyric_t, "close "
2, 91136, Note_on_c, 0, 72, 74
2, 91136, Note_on_c, 0, 75, 74
2, 91136, Note_off_c, 0, 44, 0
2, 91136, Note_off_c, 0, 56, 0
2, 91136, Note_on_c, 0, 39, 73
2, 91136, Note_on_c, 0, 51, 73
2, 91520, Note_off_c, 0, 72, 0
2, 91520, Note_off_c, 0, 75, 0
2, 91520, Lyric_t, "enough "
2, 91520, Note_on_c, 0, 72, 79
2, 91520, Note_on_c, 0, 75, 79
2, 91648, Note_off_c, 0, 39, 0
2, 91648, Note_off_c, 0, 51, 0
2, 91648, Note_on_c, 0, 39, 77
2, 91648, Note_on_c, 0, 51, 77
2, 91904, Note_off_c, 0, 72, 0
2, 91904, Note_off_c, 0, 75, 0
2, 91904, Lyric_t, "to "
2, 91904, Note_on_c, 0, 77, 85
2, 92032, Note_off_c, 0, 77, 0
2, 92032, Lyric_t, "hurt "
2, 92032, Note_on_c, 0, 72, 76
2, 92032, Note_on_c, 0, 77, 76
2, 92160, Note_off_c, 0, 39, 0
2, 92160, Note_off_c, 0, 51, 0
2, 92160, Note_on_c, 0, 41, 80
2, 92160, Note_on_c, 0, 53, 80
2, 92544, Note_off_c, 0, 72, 0
2, 92544, Note_off_c, 0, 77, 0
2, 92544, Lyric_t, "me "
2, 92544, Note_on_c, 0, 68, 67
2, 92544, Note_on_c, 0, 72, 67
2, 92672, Note_off_c, 0, 41, 0
2, 92672, Note_off_c, 0, 53, 0
2, 92672, Note_on_c, 0, 41, 82
2, 92672, Note_on_c, 0, 53, 82
2, 92928, Note_off_c, 0, 68, 0
2, 92928, Note_off_c, 0, 72, 0
2, 92928, Lyric_t, "No "
2, 92928, Note_on_c, 0, 68, 79
2, 92928, Note_on_c, 0, 72, 79
2, 93184, Note_off_c, 0, 68, 0
2, 93184, Note_off_c, 0, 72, 0
2, 93184, Lyric_t, "I "
2, 93184, Note_on_c, 0, 75, 93
2, 93184, Note_on_c, 0, 79, 93
2, 93184, Note_off_c, 0, 41, 0
2, 93184, Note_off_c, 0, 53, 0
2, 93184, Note_on_c, 0, 48, 86
2, 93184, Note_on_c, 0, 60, 86
2, 93568, Note_off_c, 0, 75, 0
2, 93568, Note_off_c, 0, 79, 0
2, 93568, Lyric_t, "won't "
2, 93568, Note_on_c, 0, 72, 64
2, 93568, Note_on_c, 0, 75, 64
2, 93696, Note_off_c, 0, 48, 0
2, 93696, Note_off_c, 0, 60, 0
2, 93696, Note_on_c, 0, 48, 81
2, 93696, Note_on_c, 0, 60, 81
2, 94208, Note_off_c, 0, 72, 0
2, 94208, Note_off_c, 0, 75, 0
2, 94208, Lyric_t, "res"
2, 94208, Note_on_c, 0, 75, 86
2, 94208, Note_on_c, 0, 79, 86
2, 94208, Note_off_c, 0, 48, 0
2, 94208, Note_off_c, 0, 60, 0
2, 94208, Note_on_c, 0, 44, 73
2, 94208, Note_on_c, 0, 56, 73
2, 94592, Note_off_c, 0, 75, 0
2, 94592, Note_off_c, 0, 79, 0
2, 94592, Lyric_t, "cue "
2, 94592, Note_on_c, 0, 72, 68
2, 94592, Note_on_c, 0, 75, 68
2, 94720, Note_off_c, 0, 44, 0
2, 94720, Note_off_c, 0, 56, 0
2, 94720, Note_on_c, 0, 44, 73
2, 94720, Note_on_c, 0, 56, 73
2, 95232, Note_off_c, 0, 72, 0
2, 95232, Note_off_c, 0, 75, 0
2, 95232, Lyric_t, "you "
2, 95232, Note_on_c, 0, 72, 75
2, 95232, Note_on_c, 0, 75, 75
2, 95232, Note_off_c, 0, 44, 0
2, 95232, Note_off_c, 0, 56, 0
2, 95232, Note_on_c, 0, 39, 70
2, 95232, Note_on_c, 0, 51, 70
2, 95616, Note_off_c, 0, 72, 0
2, 95616, Note_off_c, 0, 75, 0
2, 95616, Lyric_t, "to "
2, 95616, Lyric_t, "just "
2, 95616, Note_on_c, 0, 72, 81
2, 95616, Note_on_c, 0, 75, 81
2, 95744, Note_off_c, 0, 39, 0
2, 95744, Note_off_c, 0, 51, 0
2, 95744, Note_on_c, 0, 39, 75
2, 95744, Note_on_c, 0, 51, 75
2, 96000, Note_off_c, 0, 72, 0
2, 96000, Note_off_c, 0, 75, 0
2, 96000, Lyric_t, "desert "
2, 96000, Note_on_c, 0, 77, 80
2, 96128, Note_off_c, 0, 77, 0
2, 96128, Note_on_c, 0, 72, 76
2, 96128, Note_on_c, 0, 77, 76
2, 96256, Lyric_t, "me "
2, 96256, Note_off_c, 0, 39, 0
2, 96256, Note_off_c, 0, 51, 0
2, 96256, Note_on_c, 0, 41, 81
2, 96256, Note_on_c, 0, 53, 81
2, 96512, Note_off_c, 0, 72, 0
2, 96512, Note_off_c, 0, 77, 0
2, 96512, Lyric_t, "I "
2, 96512, Note_on_c, 0, 68, 70
2, 96512, Note_on_c, 0, 72, 70
2, 96768, Note_off_c, 0, 68, 0
2, 96768, Note_off_c, 0, 72, 0
2, 96768, Lyric_t, "can't "
2, 96768, Note_on_c, 0, 72, 87
2, 96768, Note_on_c, 0, 75, 87
2, 96768, Note_off_c, 0, 41, 0
2, 96768, Note_off_c, 0, 53, 0
2, 96768, Note_on_c, 0, 41, 77
2, 96768, Note_on_c, 0, 53, 77
2, 96896, Note_off_c, 0, 72, 0
2, 96896, Note_off_c, 0, 75, 0
2, 96896, Lyric_t, "give "
2, 96896, Note_on_c, 0, 72, 76
2, 96896, Note_on_c, 0, 77, 76
2, 97152, Note_off_c, 0, 72, 0
2, 97152, Note_off_c, 0, 77, 0
2, 97152, Note_on_c, 0, 75, 84
2, 97152, Note_on_c, 0, 79, 84
2, 97280, Lyric_t, "you "
2, 97280, Note_off_c, 0, 41, 0
2, 97280, Note_off_c, 0, 53, 0
2, 97280, Note_on_c, 0, 48, 92
2, 97280, Note_on_c, 0, 60, 92
2, 97408, Note_off_c, 0, 75, 0
2, 97408, Note_off_c, 0, 79, 0
2, 97408, Note_on_c, 0, 79, 80
2, 97408, Note_on_c, 0, 82, 80
2, 97792, Note_off_c, 0, 79, 0
2, 97792, Note_off_c, 0, 82, 0
2, 97792, Note_on_c, 0, 63, 61
2, 97792, Note_off_c, 0, 48, 0
2, 97792, Note_off_c, 0, 60, 0
2, 97792, Note_on_c, 0, 48, 73
2, 97792, Note_on_c, 0, 60, 73
2, 97920, Note_off_c, 0, 63, 0
2, 97920, Note_on_c, 0, 70, 87
2, 98048, Note_off_c, 0, 70, 0
2, 98048, Note_on_c, 0, 75, 90
2, 98304, Note_off_c, 0, 75, 0
2, 98304, Lyric_t, "the "
2, 98304, Note_on_c, 0, 63, 63
2, 98304, Note_on_c, 0, 67, 63
2, 98304, Note_off_c, 0, 48, 0
2, 98304, Note_off_c, 0, 60, 0
2, 98304, Note_on_c, 0, 44, 77
2, 98304, Note_on_c, 0, 56, 77
2, 98688, Note_off_c, 0, 63, 0
2, 98688, Note_off_c, 0, 67, 0
2, 98688, Lyric_t, "heart "
2, 98688, Note_on_c, 0, 67, 80
2, 98688, Note_on_c, 0, 70, 80
2, 98816, Note_off_c, 0, 67, 0
2, 98816, Note_off_c, 0, 70, 0
2, 98816, Note_on_c, 0, 63, 63
2, 98816, Note_off_c, 0, 44, 0
2, 98816, Note_off_c, 0, 56, 0
2, 98816, Note_on_c, 0, 44, 74
2, 98816, Note_on_c, 0, 56, 74
2, 99328, Note_off_c, 0, 63, 0
2, 99328, Lyric_t, "you "
2, 99328, Note_on_c, 0, 68, 89
2, 99328, Note_on_c, 0, 72, 89
2, 99328, Note_off_c, 0, 44, 0
2, 99328, Note_off_c, 0, 56, 0
2, 99328, Note_on_c, 0, 44, 75
2, 99328, Note_on_c, 0, 56, 75
2, 99584, Note_off_c, 0, 68, 0
2, 99584, Note_off_c, 0, 72, 0
2, 99584, Lyric_t, "think "
2, 99584, Note_on_c, 0, 70, 74
2, 99712, Note_off_c, 0, 70, 0
2, 99712, Lyric_t, "you "
2, 99712, Note_on_c, 0, 63, 62
2, 99840, Note_off_c, 0, 44, 0
2, 99840, Note_off_c, 0, 56, 0
2, 99840, Note_on_c, 0, 44, 77
2, 99840, Note_on_c, 0, 56, 77
2, 100096, Note_off_c, 0, 63, 0
2, 100096, Lyric_t, "give "
2, 100096, Note_on_c, 0, 67, 81
2, 100224, Note_off_c, 0, 67, 0
2, 100224, Note_on_c, 0, 68, 82
2, 100352, Note_off_c, 0, 68, 0
2, 100352, Lyric_t, "me "
2, 100352, Note_on_c, 0, 67, 75
2, 100352, Note_off_c, 0, 44, 0
2, 100352, Note_off_c, 0, 56, 0
2, 100352, Note_on_c, 0, 41, 71
2, 100352, Note_on_c, 0, 53, 71
2, 100480, Note_off_c, 0, 67, 0
2, 100480, Note_on_c, 0, 65, 71
2, 100864, Note_off_c, 0, 65, 0
2, 100864, Note_off_c, 0, 41, 0
2, 100864, Note_off_c, 0, 53, 0
2, 100864, Note_on_c, 0, 41, 74
2, 100864, Note_on_c, 0, 53, 74
2, 100992, Lyric_t, "It's "
2, 100992, Note_on_c, 0, 65, 63
2, 101120, Note_off_c, 0, 65, 0
2, 101120, Lyric_t, "time "
2, 101120, Note_on_c, 0, 65, 73
2, 101248, Note_off_c, 0, 65, 0
2, 101248, Lyric_t, "to "
2, 101248, Note_on_c, 0, 67, 83
2, 101376, Note_off_c, 0, 67, 0
2, 101376, Lyric_t, "say "
2, 101376, Note_on_c, 0, 72, 94
2, 101376, Note_on_c, 0, 77, 94
2, 101376, Note_off_c, 0, 41, 0
2, 101376, Note_off_c, 0, 53, 0
2, 101376, Note_on_c, 0, 41, 80
2, 101376, Note_on_c, 0, 53, 80
2, 101760, Note_off_c, 0, 72, 0
2, 101760, Note_off_c, 0, 77, 0
2, 101760, Lyric_t, "good"
2, 101760, Note_on_c, 0, 70, 78
2, 101760, Note_on_c, 0, 75, 78
2, 101888, Note_off_c, 0, 41, 0
2, 101888, Note_off_c, 0, 53, 0
2, 101888, Note_on_c, 0, 41, 76
2, 101888, Note_on_c, 0, 53, 76
2, 102144, Note_off_c, 0, 70, 0
2, 102144, Note_off_c, 0, 75, 0
2, 102144, Lyric_t, "bye "
2, 102144, Note_on_c, 0, 68, 71
2, 102144, Note_on_c, 0, 72, 71
2, 102400, Note_off_c, 0, 41, 0
2, 102400, Note_off_c, 0, 53, 0
2, 103424, Note_off_c, 0, 68, 0
2, 103424, Note_off_c, 0, 72, 0
2, 103424, Note_on_c, 0, 48, 92
2, 103424, Note_on_c, 0, 60, 92
2, 103936, Lyric_t, "to "
2, 103936, Note_on_c, 0, 77, 64
2, 103936, Note_off_c, 0, 48, 0
2, 103936, Note_off_c, 0, 60, 0
2, 103936, Note_on_c, 0, 48, 77
2, 103936, Note_on_c, 0, 60, 77
2, 104064, Note_off_c, 0, 77, 0
2, 104064, Lyric_t, "turn"
2, 104064, Note_on_c, 0, 75, 70
2, 104192, Note_off_c, 0, 75, 0
2, 104192, Lyric_t, "ing "
2, 104192, Note_on_c, 0, 74, 74
2, 104320, Note_off_c, 0, 74, 0
2, 104320, Lyric_t, "ta"
2, 104320, Note_on_c, 0, 75, 82
2, 104448, Note_off_c, 0, 48, 0
2, 104448, Note_off_c, 0, 60, 0
2, 104448, Note_on_c, 0, 48, 80
2, 104448, Note_on_c, 0, 60, 80
2, 104576, Note_off_c, 0, 75, 0
2, 104576, Lyric_t, "bles "
2, 104576, Note_on_c, 0, 75, 74
2, 104960, Note_off_c, 0, 75, 0
2, 104960, Note_on_c, 0, 70, 65
2, 104960, Note_off_c, 0, 48, 0
2, 104960, Note_off_c, 0, 60, 0
2, 104960, Note_on_c, 0, 48, 73
2, 104960, Note_on_c, 0, 60, 73
2, 105472, Note_off_c, 0, 70, 0
2, 105472, Note_on_c, 0, 60, 55
2, 105472, Note_off_c, 0, 48, 0
2, 105472, Note_off_c, 0, 60, 0
2, 105472, Note_on_c, 0, 44, 75
2, 105472, Note_on_c, 0, 56, 75
2, 105984, Note_off_c, 0, 60, 0
2, 105984, Note_on_c, 0, 63, 79
2, 105984, Note_off_c, 0, 44, 0
2, 105984, Note_off_c, 0, 56, 0
2, 105984, Note_on_c, 0, 44, 79
2, 105984, Note_on_c, 0, 56, 79
2, 106496, Note_off_c, 0, 63, 0
2, 106496, Note_on_c, 0, 60, 70
2, 106496, Note_off_c, 0, 44, 0
2, 106496, Note_off_c, 0, 56, 0
2, 106496, Note_on_c, 0, 44, 80
2, 106496, Note_on_c, 0, 56, 80
2, 107008, Note_off_c, 0, 60, 0
2, 107008, Note_on_c, 0, 63, 89
2, 107008, Note_off_c, 0, 44, 0
2, 107008, Note_off_c, 0, 56, 0
2, 107008, Note_on_c, 0, 44, 77
2, 107008, Note_on_c, 0, 56, 77
2, 107520, Note_off_c, 0, 63, 0
2, 107520, Note_on_c, 0, 60, 71
2, 107520, Note_off_c, 0, 44, 0
2, 107520, Note_off_c, 0, 56, 0
2, 107520, Note_on_c, 0, 41, 68
2, 107520, Note_on_c, 0, 53, 68
2, 108032, Note_off_c, 0, 60, 0
2, 108032, Lyric_t, "turning "
2, 108032, Note_on_c, 0, 75, 98
2, 108032, Note_off_c, 0, 41, 0
2, 108032, Note_off_c, 0, 53, 0
2, 108032, Note_on_c, 0, 41, 79
2, 108032, Note_on_c, 0, 53, 79
2, 108160, Note_off_c, 0, 75, 0
2, 108160, Lyric_t, "ta "
2, 108160, Note_on_c, 0, 75, 80
2, 108288, Note_off_c, 0, 75, 0
2, 108288, Note_on_c, 0, 79, 87
2, 108416, Note_off_c, 0, 79, 0
2, 108416, Note_on_c, 0, 80, 82
2, 108544, Note_off_c, 0, 80, 0
2, 108544, Lyric_t, "bles "
2, 108544, Note_on_c, 0, 67, 56
2, 108544, Note_off_c, 0, 41, 0
2, 108544, Note_off_c, 0, 53, 0
2, 108544, Note_on_c, 0, 41, 74
2, 108544, Note_on_c, 0, 53, 74
2, 108672, Note_off_c, 0, 67, 0
2, 108672, Note_on_c, 0, 65, 69
2, 108800, Note_off_c, 0, 65, 0
2, 108800, Note_on_c, 0, 63, 72
2, 109056, Note_off_c, 0, 41, 0
2, 109056, Note_off_c, 0, 53, 0
2, 109056, Note_on_c, 0, 41, 76
2, 109056, Note_on_c, 0, 53, 76
2, 109568, Note_off_c, 0, 41, 0
2, 109568, Note_off_c, 0, 53, 0
2, 109568, Note_on_c, 0, 44, 78
2, 109568, Note_on_c, 0, 56, 78
2, 110080, Note_off_c, 0, 44, 0
2, 110080, Note_off_c, 0, 56, 0
2, 110080, Note_on_c, 0, 44, 76
2, 110080, Note_on_c, 0, 56, 76
2, 110336, Note_off_c, 0, 63, 0
2, 110336, Note_on_c, 0, 77, 97
2, 110464, Note_off_c, 0, 77, 0
2, 110464, Note_on_c, 0, 74, 72
2, 110592, Note_off_c, 0, 44, 0
2, 110592, Note_off_c, 0, 56, 0
2, 110592, Note_on_c, 0, 44, 82
2, 110592, Note_on_c, 0, 56, 82
2, 111104, Note_off_c, 0, 44, 0
2, 111104, Note_off_c, 0, 56, 0
2, 111104, Note_on_c, 0, 44, 73
2, 111104, Note_on_c, 0, 56, 73
2, 111360, Note_off_c, 0, 74, 0
2, 111360, Note_on_c, 0, 72, 77
2, 111616, Note_off_c, 0, 44, 0
2, 111616, Note_off_c, 0, 56, 0
2, 111616, Note_on_c, 0, 48, 81
2, 111616, Note_on_c, 0, 60, 81
2, 112128, Note_off_c, 0, 72, 0
2, 112128, Note_off_c, 0, 48, 0
2, 112128, Note_off_c, 0, 60, 0
2, 112128, Note_on_c, 0, 48, 73
2, 112128, Note_on_c, 0, 60, 73
2, 112640, Lyric_t, "next "
2, 112640, Note_on_c, 0, 67, 71
2, 112640, Note_off_c, 0, 48, 0
2, 112640, Note_off_c, 0, 60, 0
2, 112640, Note_on_c, 0, 48, 74
2, 112640, Note_on_c, 0, 60, 74
2, 113024, Note_off_c, 0, 67, 0
2, 113024, Lyric_t, "time "
2, 113024, Note_on_c, 0, 65, 71
2, 113152, Note_off_c, 0, 48, 0
2, 113152, Note_off_c, 0, 60, 0
2, 113152, Note_on_c, 0, 48, 76
2, 113152, Note_on_c, 0, 60, 76
2, 113408, Note_off_c, 0, 65, 0
2, 113408, Lyric_t, "I "
2, 113408, Note_on_c, 0, 67, 89
2, 113664, Note_off_c, 0, 48, 0
2, 113664, Note_off_c, 0, 60, 0
2, 113664, Note_on_c, 0, 48, 73
2, 113664, Note_on_c, 0, 60, 73
2, 113792, Note_off_c, 0, 67, 0
2, 113792, Lyric_t, "be "
2, 113792, Note_on_c, 0, 65, 70
2, 114176, Note_off_c, 0, 65, 0
2, 114176, Lyric_t, "bra"
2, 114176, Note_on_c, 0, 65, 75
2, 114176, Note_off_c, 0, 48, 0
2, 114176, Note_off_c, 0, 60, 0
2, 114176, Note_on_c, 0, 48, 77
2, 114176, Note_on_c, 0, 60, 77
2, 114432, Note_off_c, 0, 65, 0
2, 114432, Lyric_t, "ver "
2, 114432, Note_on_c, 0, 67, 82
2, 114688, Note_off_c, 0, 67, 0
2, 114688, Lyric_t, "I'll "
2, 114688, Note_on_c, 0, 67, 71
2, 114688, Note_off_c, 0, 48, 0
2, 114688, Note_off_c, 0, 60, 0
2, 114688, Note_on_c, 0, 44, 69
2, 114688, Note_on_c, 0, 56, 69
2, 115072, Note_off_c, 0, 67, 0
2, 115072, Lyric_t, "be "
2, 115072, Note_on_c, 0, 65, 70
2, 115200, Note_off_c, 0, 44, 0
2, 115200, Note_off_c, 0, 56, 0
2, 115200, Note_on_c, 0, 44, 76
2, 115200, Note_on_c, 0, 56, 76
2, 115456, Note_off_c, 0, 65, 0
2, 115456, Lyric_t, "my "
2, 115456, Note_on_c, 0, 67, 78
2, 115712, Note_off_c, 0, 44, 0
2, 115712, Note_off_c, 0, 56, 0
2, 115712, Note_on_c, 0, 44, 78
2, 115712, Note_on_c, 0, 56, 78
2, 115840, Note_off_c, 0, 67, 0
2, 115840, Lyric_t, "own "
2, 115840, Note_on_c, 0, 65, 72
2, 116224, Note_off_c, 0, 65, 0
2, 116224, Lyric_t, "savi"
2, 116224, Note_on_c, 0, 65, 78
2, 116224, Note_off_c, 0, 44, 0
2, 116224, Note_off_c, 0, 56, 0
2, 116224, Note_on_c, 0, 44, 75
2, 116224, Note_on_c, 0, 56, 75
2, 116480, Note_off_c, 0, 65, 0
2, 116480, Lyric_t, "or "
2, 116480, Note_on_c, 0, 67, 80
2, 116736, Note_off_c, 0, 67, 0
2, 116736, Note_on_c, 0, 63, 68
2, 116736, Note_off_c, 0, 44, 0
2, 116736, Note_off_c, 0, 56, 0
2, 116736, Note_on_c, 0, 39, 75
2, 116736, Note_on_c, 0, 51, 75
2, 117248, Note_off_c, 0, 39, 0
2, 117248, Note_off_c, 0, 51, 0
2, 117248, Note_on_c, 0, 39, 72
2, 117248, Note_on_c, 0, 51, 72
2, 117760, Note_off_c, 0, 63, 0
2, 117760, Lyric_t, "when "
2, 117760, Note_on_c, 0, 63, 75
2, 117760, Note_off_c, 0, 39, 0
2, 117760, Note_off_c, 0, 51, 0
2, 117760, Note_on_c, 0, 39, 77
2, 117760, Note_on_c, 0, 51, 77
2, 118016, Note_off_c, 0, 63, 0
2, 118016, Lyric_t, "the "
2, 118016, Note_on_c, 0, 63, 75
2, 118144, Note_off_c, 0, 63, 0
2, 118144, Lyric_t, "thunder "
2, 118144, Note_on_c, 0, 63, 69
2, 118272, Note_off_c, 0, 39, 0
2, 118272, Note_off_c, 0, 51, 0
2, 118272, Note_on_c, 0, 39, 78
2, 118272, Note_on_c, 0, 51, 78
2, 118400, Note_off_c, 0, 63, 0
2, 118400, Lyric_t, "calls "
2, 118400, Note_on_c, 0, 63, 76
2, 118528, Note_off_c, 0, 63, 0
2, 118528, Lyric_t, "for "
2, 118528, Note_on_c, 0, 63, 81
2, 118656, Note_off_c, 0, 63, 0
2, 118656, Lyric_t, "me "
2, 118656, Note_on_c, 0, 65, 81
2, 118784, Note_off_c, 0, 39, 0
2, 118784, Note_off_c, 0, 51, 0
2, 118784, Note_on_c, 0, 41, 81
2, 118784, Note_on_c, 0, 53, 81
2, 119296, Note_off_c, 0, 41, 0
2, 119296, Note_off_c, 0, 53, 0
2, 119296, Note_on_c, 0, 41, 73
2, 119296, Note_on_c, 0, 53, 73
2, 119552, Note_off_c, 0, 65, 0
2, 119552, Note_on_c, 0, 63, 74
2, 119680, Note_off_c, 0, 63, 0
2, 119680, Note_on_c, 0, 65, 80
2, 119808, Note_off_c, 0, 41, 0
2, 119808, Note_off_c, 0, 53, 0
2, 119808, Note_on_c, 0, 41, 75
2, 119808, Note_on_c, 0, 53, 75
2, 120064, Note_off_c, 0, 65, 0
2, 120064, Note_on_c, 0, 67, 80
2, 120320, Note_off_c, 0, 67, 0
2, 120320, Note_on_c, 0, 72, 90
2, 120320, Note_off_c, 0, 41, 0
2, 120320, Note_off_c, 0, 53, 0
2, 120320, Note_on_c, 0, 41, 78
2, 120320, Note_on_c, 0, 53, 78
2, 120448, Note_off_c, 0, 72, 0
2, 120448, Note_on_c, 0, 67, 66
2, 120576, Note_off_c, 0, 67, 0
2, 120576, Note_on_c, 0, 63, 66
2, 120704, Note_off_c, 0, 63, 0
2, 120704, Note_on_c, 0, 60, 69
2, 120832, Note_off_c, 0, 60, 0
2, 120832, Lyric_t, "next "
2, 120832, Note_on_c, 0, 67, 91
2, 120832, Note_off_c, 0, 41, 0
2, 120832, Note_off_c, 0, 53, 0
2, 120832, Note_on_c, 0, 48, 90
2, 120832, Note_on_c, 0, 60, 90
2, 121216, Note_off_c, 0, 67, 0
2, 121216, Lyric_t, "time "
2, 121216, Note_on_c, 0, 65, 72
2, 121344, Note_off_c, 0, 48, 0
2, 121344, Note_off_c, 0, 60, 0
2, 121344, Note_on_c, 0, 48, 81
2, 121344, Note_on_c, 0, 60, 81
2, 121600, Note_off_c, 0, 65, 0
2, 121600, Lyric_t, "I "
2, 121600, Note_on_c, 0, 67, 82
2, 121856, Note_off_c, 0, 48, 0
2, 121856, Note_off_c, 0, 60, 0
2, 121856, Note_on_c, 0, 48, 73
2, 121856, Note_on_c, 0, 60, 73
2, 121984, Note_off_c, 0, 67, 0
2, 121984, Lyric_t, "be "
2, 121984, Note_on_c, 0, 65, 71
2, 122368, Note_off_c, 0, 65, 0
2, 122368, Lyric_t, "brav"
2, 122368, Note_on_c, 0, 65, 76
2, 122368, Note_off_c, 0, 48, 0
2, 122368, Note_off_c, 0, 60, 0
2, 122368, Note_on_c, 0, 48, 76
2, 122368, Note_on_c, 0, 60, 76
2, 122624, Note_off_c, 0, 65, 0
2, 122624, Lyric_t, "er "
2, 122624, Note_on_c, 0, 67, 77
2, 122880, Note_off_c, 0, 67, 0
2, 122880, Lyric_t, "I'll "
2, 122880, Note_on_c, 0, 67, 78
2, 122880, Note_off_c, 0, 48, 0
2, 122880, Note_off_c, 0, 60, 0
2, 122880, Note_on_c, 0, 44, 70
2, 122880, Note_on_c, 0, 56, 70
2, 123264, Note_off_c, 0, 67, 0
2, 123264, Lyric_t, "be "
2, 123264, Note_on_c, 0, 65, 71
2, 123392, Note_off_c, 0, 44, 0
2, 123392, Note_off_c, 0, 56, 0
2, 123392, Note_on_c, 0, 44, 75
2, 123392, Note_on_c, 0, 56, 75
2, 123648, Note_off_c, 0, 65, 0
2, 123648, Lyric_t, "my "
2, 123648, Note_on_c, 0, 67, 81
2, 123904, Note_off_c, 0, 44, 0
2, 123904, Note_off_c, 0, 56, 0
2, 123904, Note_on_c, 0, 44, 78
2, 123904, Note_on_c, 0, 56, 78
2, 124032, Note_off_c, 0, 67, 0
2, 124032, Lyric_t, "own "
2, 124032, Note_on_c, 0, 65, 71
2, 124416, Note_off_c, 0, 65, 0
2, 124416, Lyric_t, "sav"
2, 124416, Note_on_c, 0, 65, 74
2, 124416, Note_off_c, 0, 44, 0
2, 124416, Note_off_c, 0, 56, 0
2, 124416, Note_on_c, 0, 44, 82
2, 124416, Note_on_c, 0, 56, 82
2, 124672, Note_off_c, 0, 65, 0
2, 124672, Lyric_t, "ior "
2, 124672, Note_on_c, 0, 63, 68
2, 124928, Note_off_c, 0, 63, 0
2, 124928, Lyric_t, "stand"
2, 124928, Note_on_c, 0, 65, 87
2, 124928, Note_on_c, 0, 68, 87
2, 124928, Note_off_c, 0, 44, 0
2, 124928, Note_off_c, 0, 56, 0
2, 124928, Note_on_c, 0, 41, 71
2, 124928, Note_on_c, 0, 53, 71
2, 125312, Note_off_c, 0, 65, 0
2, 125312, Note_off_c, 0, 68, 0
2, 125312, Lyric_t, "ing "
2, 125312, Note_on_c, 0, 65, 83
2, 125312, Note_on_c, 0, 72, 83
2, 125440, Note_off_c, 0, 41, 0
2, 125440, Note_off_c, 0, 53, 0
2, 125440, Note_on_c, 0, 41, 74
2, 125440, Note_on_c, 0, 53, 74
2, 125824, Note_off_c, 0, 65, 0
2, 125824, Note_off_c, 0, 72, 0
2, 125952, Note_off_c, 0, 41, 0
2, 125952, Note_off_c, 0, 53, 0
2, 125952, Note_on_c, 0, 41, 76
2, 125952, Note_on_c, 0, 53, 76
2, 126080, Lyric_t, "on "
2, 126080, Note_on_c, 0, 63, 70
2, 126208, Note_off_c, 0, 63, 0
2, 126208, Lyric_t, "my "
2, 126208, Note_on_c, 0, 63, 72
2, 126336, Note_off_c, 0, 63, 0
2, 126336, Lyric_t, "own "
2, 126336, Note_on_c, 0, 63, 70
2, 126464, Note_off_c, 0, 41, 0
2, 126464, Note_off_c, 0, 53, 0
2, 126464, Note_on_c, 0, 41, 74
2, 126464, Note_on_c, 0, 53, 74
2, 126592, Note_off_c, 0, 63, 0
2, 126592, Lyric_t, "to "
2, 126592, Note_on_c, 0, 63, 75
2, 126848, Note_off_c, 0, 63, 0
2, 126848, Lyric_t, "feet "
2, 126848, Note_on_c, 0, 63, 80
2, 126976, Note_off_c, 0, 63, 0
2, 126976, Note_on_c, 0, 65, 82
2, 126976, Note_off_c, 0, 41, 0
2, 126976, Note_off_c, 0, 53, 0
2, 126976, Note_on_c, 0, 46, 80
2, 126976, Note_on_c, 0, 58, 80
2, 127232, Note_off_c, 0, 65, 0
2, 127232, Note_on_c, 0, 62, 70
2, 127296, Note_off_c, 0, 62, 0
2, 127296, Note_on_c, 0, 60, 70
2, 127424, Note_off_c, 0, 60, 0
2, 127488, Note_on_c, 0, 62, 69
2, 129024, Note_off_c, 0, 62, 0
2, 129024, Lyric_t, "I "
2, 129024, Note_on_c, 0, 75, 93
2, 129024, Note_on_c, 0, 79, 93
2, 129024, Note_off_c, 0, 46, 0
2, 129024, Note_off_c, 0, 58, 0
2, 129024, Note_on_c, 0, 48, 84
2, 129024, Note_on_c, 0, 60, 84
2, 129408, Note_off_c, 0, 75, 0
2, 129408, Note_off_c, 0, 79, 0
2, 129408, Lyric_t, "won't "
2, 129408, Note_on_c, 0, 72, 66
2, 129408, Note_on_c, 0, 75, 66
2, 129536, Note_off_c, 0, 48, 0
2, 129536, Note_off_c, 0, 60, 0
2, 129536, Note_on_c, 0, 48, 77
2, 129536, Note_on_c, 0, 60, 77
2, 130048, Note_off_c, 0, 72, 0
2, 130048, Note_off_c, 0, 75, 0
2, 130048, Lyric_t, "let "
2, 130048, Note_on_c, 0, 75, 83
2, 130048, Note_on_c, 0, 79, 83
2, 130048, Note_off_c, 0, 48, 0
2, 130048, Note_off_c, 0, 60, 0
2, 130048, Note_on_c, 0, 44, 75
2, 130048, Note_on_c, 0, 56, 75
2, 130432, Note_off_c, 0, 75, 0
2, 130432, Note_off_c, 0, 79, 0
2, 130432, Lyric_t, "you "
2, 130432, Note_on_c, 0, 72, 74
2, 130432, Note_on_c, 0, 75, 74
2, 130560, Note_off_c, 0, 44, 0
2, 130560, Note_off_c, 0, 56, 0
2, 130560, Note_on_c, 0, 44, 74
2, 130560, Note_on_c, 0, 56, 74
2, 131072, Note_off_c, 0, 72, 0
2, 131072, Note_off_c, 0, 75, 0
2, 131072, Lyric_t, "close "
2, 131072, Note_on_c, 0, 79, 86
2, 131072, Note_off_c, 0, 44, 0
2, 131072, Note_off_c, 0, 56, 0
2, 131072, Note_on_c, 0, 39, 74
2, 131072, Note_on_c, 0, 51, 74
2, 131328, Note_off_c, 0, 79, 0
2, 131328, Lyric_t, "e"
2, 131328, Note_on_c, 0, 79, 76
2, 131456, Note_off_c, 0, 79, 0
2, 131456, Lyric_t, "nough "
2, 131456, Note_on_c, 0, 79, 80
2, 131584, Note_off_c, 0, 39, 0
2, 131584, Note_off_c, 0, 51, 0
2, 131584, Note_on_c, 0, 39, 76
2, 131584, Note_on_c, 0, 51, 76
2, 131840, Note_off_c, 0, 79, 0
2, 131840, Lyric_t, "to "
2, 131840, Note_on_c, 0, 77, 69
2, 131968, Note_off_c, 0, 77, 0
2, 131968, Lyric_t, "hurt "
2, 131968, Note_on_c, 0, 80, 81
2, 132096, Note_off_c, 0, 39, 0
2, 132096, Note_off_c, 0, 51, 0
2, 132096, Note_on_c, 0, 41, 80
2, 132096, Note_on_c, 0, 53, 80
2, 132352, Note_off_c, 0, 80, 0
2, 132352, Lyric_t, "me "
2, 132352, Note_on_c, 0, 79, 72
2, 132608, Note_off_c, 0, 79, 0
2, 132608, Lyric_t, "no "
2, 132608, Note_on_c, 0, 75, 62
2, 132608, Note_off_c, 0, 41, 0
2, 132608, Note_off_c, 0, 53, 0
2, 132608, Note_on_c, 0, 41, 75
2, 132608, Note_on_c, 0, 53, 75
2, 132736, Note_off_c, 0, 75, 0
2, 132736, Lyric_t, "I "
2, 132736, Note_on_c, 0, 77, 79
2, 132992, Note_off_c, 0, 77, 0
2, 132992, Lyric_t, "can't "
2, 132992, Note_on_c, 0, 79, 78
2, 133120, Lyric_t, "give "
2, 133120, Note_off_c, 0, 41, 0
2, 133120, Note_off_c, 0, 53, 0
2, 133120, Note_on_c, 0, 48, 93
2, 133120, Note_on_c, 0, 60, 93
2, 133248, Note_off_c, 0, 79, 0
2, 133248, Lyric_t, "you "
2, 133248, Note_on_c, 0, 82, 80
2, 133632, Note_off_c, 0, 82, 0
2, 133632, Note_on_c, 0, 75, 64
2, 133632, Note_off_c, 0, 48, 0
2, 133632, Note_off_c, 0, 60, 0
2, 133632, Note_on_c, 0, 48, 74
2, 133632, Note_on_c, 0, 60, 74
2, 134144, Note_off_c, 0, 75, 0
2, 134144, Note_on_c, 0, 67, 62
2, 134144, Note_off_c, 0, 48, 0
2, 134144, Note_off_c, 0, 60, 0
2, 134144, Note_on_c, 0, 44, 71
2, 134144, Note_on_c, 0, 56, 71
2, 134528, Note_off_c, 0, 67, 0
2, 134528, Note_on_c, 0, 70, 86
2, 134656, Note_off_c, 0, 70, 0
2, 134656, Note_on_c, 0, 63, 64
2, 134656, Note_off_c, 0, 44, 0
2, 134656, Note_off_c, 0, 56, 0
2, 134656, Note_on_c, 0, 44, 80
2, 134656, Note_on_c, 0, 56, 80
2, 135168, Note_off_c, 0, 63, 0
2, 135168, Lyric_t, "the "
2, 135168, Note_on_c, 0, 80, 97
2, 135168, Note_off_c, 0, 44, 0
2, 135168, Note_off_c, 0, 56, 0
2, 135168, Note_on_c, 0, 44, 74
2, 135168, Note_on_c, 0, 56, 74
2, 135424, Note_off_c, 0, 80, 0
2, 135424, Lyric_t, "heart "
2, 135424, Note_on_c, 0, 79, 74
2, 135552, Note_off_c, 0, 79, 0
2, 135552, Lyric_t, "you "
2, 135552, Note_on_c, 0, 79, 79
2, 135680, Note_off_c, 0, 44, 0
2, 135680, Note_off_c, 0, 56, 0
2, 135680, Note_on_c, 0, 44, 75
2, 135680, Note_on_c, 0, 56, 75
2, 135936, Note_off_c, 0, 79, 0
2, 135936, Lyric_t, "think "
2, 135936, Note_on_c, 0, 79, 79
2, 136064, Note_off_c, 0, 79, 0
2, 136064, Lyric_t, "you "
2, 136064, Note_on_c, 0, 80, 81
2, 136192, Note_off_c, 0, 80, 0
2, 136192, Lyric_t, "gave "
2, 136192, Note_on_c, 0, 79, 75
2, 136192, Note_off_c, 0, 44, 0
2, 136192, Note_off_c, 0, 56, 0
2, 136192, Note_on_c, 0, 41, 69
2, 136192, Note_on_c, 0, 53, 69
2, 136320, Note_off_c, 0, 79, 0
2, 136320, Lyric_t, "me "
2, 136320, Note_on_c, 0, 77, 72
2, 136704, Note_off_c, 0, 77, 0
2, 136704, Note_off_c, 0, 41, 0
2, 136704, Note_off_c, 0, 53, 0
2, 136704, Note_on_c, 0, 41, 79
2, 136704, Note_on_c, 0, 53, 79
2, 136832, Lyric_t, "it's "
2, 136832, Note_on_c, 0, 77, 66
2, 136960, Note_off_c, 0, 77, 0
2, 136960, Lyric_t, "time "
2, 136960, Note_on_c, 0, 77, 76
2, 137088, Note_off_c, 0, 77, 0
2, 137088, Lyric_t, "to "
2, 137088, Note_on_c, 0, 79, 81
2, 137216, Note_off_c, 0, 79, 0
2, 137216, Lyric_t, "say "
2, 137216, Note_on_c, 0, 80, 81
2, 137216, Note_off_c, 0, 41, 0
2, 137216, Note_off_c, 0, 53, 0
2, 137216, Note_on_c, 0, 48, 86
2, 137216, Note_on_c, 0, 60, 86
2, 137600, Note_off_c, 0, 80, 0
2, 137600, Note_on_c, 0, 82, 82
2, 137728, Note_off_c, 0, 48, 0
2, 137728, Note_off_c, 0, 60, 0
2, 137728, Note_on_c, 0, 48, 75
2, 137728, Note_on_c, 0, 60, 75
2, 137856, Note_off_c, 0, 82, 0
2, 137856, Note_on_c, 0, 79, 77
2, 137984, Note_off_c, 0, 79, 0
2, 137984, Lyric_t, "good"
2, 137984, Note_on_c, 0, 82, 82
2, 138112, Note_off_c, 0, 82, 0
2, 138112, Lyric_t, "bye "
2, 138112, Note_on_c, 0, 79, 70
2, 138240, Note_off_c, 0, 48, 0
2, 138240, Note_off_c, 0, 60, 0
2, 138240, Note_on_c, 0, 44, 75
2, 138240, Note_on_c, 0, 56, 75
2, 138496, Note_off_c, 0, 79, 0
2, 138496, Note_on_c, 0, 77, 70
2, 138624, Note_off_c, 0, 77, 0
2, 138624, Note_on_c, 0, 75, 65
2, 139136, Note_off_c, 0, 75, 0
2, 139264, Note_off_c, 0, 44, 0
2, 139264, Note_off_c, 0, 56, 0
2, 139264, Note_on_c, 0, 44, 79
2, 139264, Note_on_c, 0, 56, 79
2, 139648, Lyric_t, "It's "
2, 139648, Note_on_c, 0, 77, 67
2, 139776, Note_off_c, 0, 77, 0
2, 139776, Lyric_t, "time "
2, 139776, Note_on_c, 0, 75, 74
2, 140032, Note_off_c, 0, 75, 0
2, 140032, Lyric_t, "to "
2, 140032, Note_on_c, 0, 74, 70
2, 140160, Note_off_c, 0, 74, 0
2, 140160, Lyric_t, "say "
2, 140160, Note_on_c, 0, 75, 80
2, 140288, Note_off_c, 0, 44, 0
2, 140288, Note_off_c, 0, 56, 0
2, 140288, Note_on_c, 0, 48, 84
2, 140288, Note_on_c, 0, 60, 84
2, 140416, Note_off_c, 0, 75, 0
2, 140416, Lyric_t, "good"
2, 140416, Note_on_c, 0, 75, 79
2, 140800, Note_off_c, 0, 75, 0
2, 140800, Lyric_t, "bye "
2, 140800, Note_on_c, 0, 70, 67
2, 140800, Note_off_c, 0, 48, 0
2, 140800, Note_off_c, 0, 60, 0
2, 140800, Note_on_c, 0, 48, 73
2, 140800, Note_on_c, 0, 60, 73
2, 141312, Note_off_c, 0, 70, 0
2, 141312, Note_on_c, 0, 60, 64
2, 141312, Note_off_c, 0, 48, 0
2, 141312, Note_off_c, 0, 60, 0
2, 141312, Note_on_c, 0, 48, 75
2, 141312, Note_on_c, 0, 60, 75
2, 141824, Note_off_c, 0, 60, 0
2, 141824, Note_on_c, 0, 63, 77
2, 141824, Note_off_c, 0, 48, 0
2, 141824, Note_off_c, 0, 60, 0
2, 141824, Note_on_c, 0, 48, 73
2, 141824, Note_on_c, 0, 60, 73
2, 142336, Note_off_c, 0, 63, 0
2, 142336, Note_on_c, 0, 60, 72
2, 142336, Note_off_c, 0, 48, 0
2, 142336, Note_off_c, 0, 60, 0
2, 142336, Note_on_c, 0, 44, 70
2, 142336, Note_on_c, 0, 56, 70
2, 142848, Note_off_c, 0, 60, 0
2, 142848, Note_on_c, 0, 63, 82
2, 142848, Note_off_c, 0, 44, 0
2, 142848, Note_off_c, 0, 56, 0
2, 142848, Note_on_c, 0, 44, 77
2, 142848, Note_on_c, 0, 56, 77
2, 143360, Note_off_c, 0, 63, 0
2, 143360, Note_off_c, 0, 44, 0
2, 143360, Note_off_c, 0, 56, 0
2, 143360, Note_on_c, 0, 44, 77
2, 143360, Note_on_c, 0, 56, 77
2, 143744, Lyric_t, "to "
2, 143744, Note_on_c, 0, 74, 73
2, 143872, Note_off_c, 0, 74, 0
2, 143872, Lyric_t, "turning "
2, 143872, Note_on_c, 0, 75, 83
2, 143872, Note_off_c, 0, 44, 0
2, 143872, Note_off_c, 0, 56, 0
2, 143872, Note_on_c, 0, 44, 78
2, 143872, Note_on_c, 0, 56, 78
2, 144128, Note_off_c, 0, 75, 0
2, 144128, Lyric_t, "ta "
2, 144128, Note_on_c, 0, 74, 72
2, 144256, Note_off_c, 0, 74, 0
2, 144256, Note_on_c, 0, 75, 81
2, 144384, Lyric_t, "bles "
2, 144384, Note_off_c, 0, 44, 0
2, 144384, Note_off_c, 0, 56, 0
2, 144384, Note_on_c, 0, 41, 69
2, 144384, Note_on_c, 0, 53, 69
2, 144512, Note_off_c, 0, 75, 0
2, 144512, Note_on_c, 0, 82, 86
2, 144896, Note_off_c, 0, 41, 0
2, 144896, Note_off_c, 0, 53, 0
2, 144896, Note_on_c, 0, 41, 78
2, 144896, Note_on_c, 0, 53, 78
2, 145280, Note_off_c, 0, 82, 0
2, 145280, Note_on_c, 0, 84, 82
2, 145408, Note_off_c, 0, 41, 0
2, 145408, Note_off_c, 0, 53, 0
2, 145408, Note_on_c, 0, 41, 75
2, 145408, Note_on_c, 0, 53, 75
2, 145920, Note_off_c, 0, 41, 0
2, 145920, Note_off_c, 0, 53, 0
2, 145920, Note_on_c, 0, 41, 80
2, 145920, Note_on_c, 0, 53, 80
2, 146432, Note_off_c, 0, 84, 0
2, 146432, Lyric_t, "to "
2, 146432, Note_on_c, 0, 84, 76
2, 146432, Note_off_c, 0, 41, 0
2, 146432, Note_off_c, 0, 53, 0
2, 146432, Note_on_c, 0, 44, 76
2, 146432, Note_on_c, 0, 56, 76
2, 146560, Note_off_c, 0, 84, 0
2, 146560, Lyric_t, "turning "
2, 146560, Note_on_c, 0, 86, 82
2, 146624, Note_off_c, 0, 86, 0
2, 146624, Lyric_t, "ta"
2, 146624, Note_on_c, 0, 84, 73
2, 146688, Note_off_c, 0, 84, 0
2, 146688, Lyric_t, "bles "
2, 146688, Note_on_c, 0, 82, 70
2, 146944, Note_off_c, 0, 44, 0
2, 146944, Note_off_c, 0, 56, 0
2, 146944, Note_on_c, 0, 44, 77
2, 146944, Note_on_c, 0, 56, 77
2, 147072, Note_off_c, 0, 82, 0
2, 147072, Note_on_c, 0, 84, 80
2, 147456, Note_off_c, 0, 84, 0
2, 147456, Note_off_c, 0, 44, 0
2, 147456, Note_off_c, 0, 56, 0
2, 147456, Note_on_c, 0, 44, 75
2, 147456, Note_on_c, 0, 56, 75
2, 147968, Lyric_t, "to "
2, 147968, Note_on_c, 0, 79, 70
2, 147968, Note_off_c, 0, 44, 0
2, 147968, Note_off_c, 0, 56, 0
2, 147968, Note_on_c, 0, 44, 75
2, 147968, Note_on_c, 0, 56, 75
2, 148224, Note_off_c, 0, 79, 0
2, 148224, Lyric_t, "turn"
2, 148224, Note_on_c, 0, 79, 77
2, 148352, Note_off_c, 0, 79, 0
2, 148352, Lyric_t, "ing "
2, 148352, Note_on_c, 0, 82, 84
2, 148480, Note_off_c, 0, 44, 0
2, 148480, Note_off_c, 0, 56, 0
2, 148480, Note_on_c, 0, 48, 83
2, 148480, Note_on_c, 0, 60, 83
2, 148608, Note_off_c, 0, 82, 0
2, 148608, Lyric_t, "ta"
2, 148608, Note_on_c, 0, 77, 65
2, 148736, Note_off_c, 0, 77, 0
2, 148736, Lyric_t, "bles "
2, 148736, Note_on_c, 0, 75, 67
2, 148864, Note_off_c, 0, 75, 0
2, 148864, Note_on_c, 0, 70, 69
2, 148992, Note_off_c, 0, 70, 0
2, 148992, Note_on_c, 0, 72, 81
2, 148992, Note_off_c, 0, 48, 0
2, 148992, Note_off_c, 0, 60, 0
2, 148992, Note_on_c, 0, 48, 78
2, 148992, Note_on_c, 0, 60, 78
2, 149120, Note_off_c, 0, 72, 0
2, 149120, Note_on_c, 0, 75, 86
2, 149504, Note_off_c, 0, 48, 0
2, 149504, Note_off_c, 0, 60, 0
2, 149504, Note_on_c, 0, 48, 79
2, 149504, Note_on_c, 0, 60, 79
2, 149888, Note_off_c, 0, 75, 0
2, 149888, Lyric_t, "oh "
2, 149888, Note_on_c, 0, 79, 83
2, 150016, Note_off_c, 0, 48, 0
2, 150016, Note_off_c, 0, 60, 0
2, 150016, Note_on_c, 0, 48, 74
2, 150016, Note_on_c, 0, 60, 74
2, 150144, Note_off_c, 0, 79, 0
2, 150144, Note_on_c, 0, 77, 76
2, 150400, Note_off_c, 0, 77, 0
2, 150400, Lyric_t, "no "
2, 150400, Note_on_c, 0, 75, 70
2, 150528, Note_off_c, 0, 75, 0
2, 150528, Lyric_t, "no "
2, 150528, Note_on_c, 0, 77, 81
2, 150528, Note_off_c, 0, 48, 0
2, 150528, Note_off_c, 0, 60, 0
2, 150528, Note_on_c, 0, 44, 76
2, 150528, Note_on_c, 0, 56, 76
2, 150656, Note_off_c, 0, 77, 0
2, 150656, Note_on_c, 0, 75, 73
2, 150784, Note_off_c, 0, 75, 0
2, 151040, Note_off_c, 0, 44, 0
2, 151040, Note_off_c, 0, 56, 0
2, 151040, Note_on_c, 0, 44, 79
2, 151040, Note_on_c, 0, 56, 79
2, 151552, Note_off_c, 0, 44, 0
2, 151552, Note_off_c, 0, 56, 0
2, 151552, Note_on_c, 0, 32, 60
2, 151552, Note_on_c, 0, 44, 60
2, 152320, Note_on_c, 0, 68, 67
2, 152320, Note_on_c, 0, 75, 67
2, 152576, Note_off_c, 0, 68, 0
2, 152576, Note_off_c, 0, 75, 0
2, 152576, Note_off_c, 0, 32, 0
2, 152576, Note_off_c, 0, 44, 0
2, 152576, End_track
0, 0, End_of_file
