0, 0, Header, 1, 15, 192
1, 0, Start_track
1, 0, Tempo, 631578
1, 0, Time_signature, 4, 2, 24, 8
1, 262143, End_track
2, 0, Start_track
2, 0, Text_t, "bassdrum"
2, 0, Channel_prefix, 9
2, 2309, Note_on_c, 9, 36, 113
2, 2330, Note_off_c, 9, 36, 0
2, 3077, Note_on_c, 9, 36, 111
2, 3099, Note_off_c, 9, 36, 0
2, 3940, Note_on_c, 9, 36, 111
2, 3962, Note_off_c, 9, 36, 0
2, 4132, Note_on_c, 9, 36, 108
2, 4154, Note_off_c, 9, 36, 0
2, 4324, Note_on_c, 9, 36, 106
2, 4345, Note_off_c, 9, 36, 0
2, 4517, Note_on_c, 9, 36, 109
2, 4538, Note_off_c, 9, 36, 0
2, 4612, Note_on_c, 9, 36, 115
2, 4634, Note_off_c, 9, 36, 0
2, 4804, Note_on_c, 9, 36, 110
2, 4826, Note_off_c, 9, 36, 0
2, 4995, Note_on_c, 9, 36, 109
2, 5017, Note_off_c, 9, 36, 0
2, 5187, Note_on_c, 9, 36, 119
2, 5210, Note_off_c, 9, 36, 0
2, 5378, Note_on_c, 9, 36, 104
2, 5401, Note_off_c, 9, 36, 0
2, 5572, Note_on_c, 9, 36, 109
2, 5594, Note_off_c, 9, 36, 0
2, 5764, Note_on_c, 9, 36, 109
2, 5786, Note_off_c, 9, 36, 0
2, 5954, Note_on_c, 9, 36, 110
2, 5977, Note_off_c, 9, 36, 0
2, 6147, Note_on_c, 9, 36, 111
2, 6170, Note_off_c, 9, 36, 0
2, 6339, Note_on_c, 9, 36, 108
2, 6361, Note_off_c, 9, 36, 0
2, 6531, Note_on_c, 9, 36, 107
2, 6553, Note_off_c, 9, 36, 0
2, 6722, Note_on_c, 9, 36, 103
2, 6745, Note_off_c, 9, 36, 0
2, 6914, Note_on_c, 9, 36, 105
2, 6938, Note_off_c, 9, 36, 0
2, 7107, Note_on_c, 9, 36, 109
2, 7129, Note_off_c, 9, 36, 0
2, 7300, Note_on_c, 9, 36, 106
2, 7322, Note_off_c, 9, 36, 0
2, 7490, Note_on_c, 9, 36, 103
2, 7513, Note_off_c, 9, 36, 0
2, 7682, Note_on_c, 9, 36, 113
2, 7705, Note_off_c, 9, 36, 0
2, 7876, Note_on_c, 9, 36, 111
2, 7898, Note_off_c, 9, 36, 0
2, 8068, Note_on_c, 9, 36, 104
2, 8091, Note_off_c, 9, 36, 0
2, 8258, Note_on_c, 9, 36, 107
2, 8281, Note_off_c, 9, 36, 0
2, 8450, Note_on_c, 9, 36, 104
2, 8473, Note_off_c, 9, 36, 0
2, 8643, Note_on_c, 9, 36, 108
2, 8665, Note_off_c, 9, 36, 0
2, 8835, Note_on_c, 9, 36, 106
2, 8857, Note_off_c, 9, 36, 0
2, 9027, Note_on_c, 9, 36, 111
2, 9050, Note_off_c, 9, 36, 0
2, 9219, Note_on_c, 9, 36, 109
2, 9242, Note_off_c, 9, 36, 0
2, 9412, Note_on_c, 9, 36, 108
2, 9434, Note_off_c, 9, 36, 0
2, 9604, Note_on_c, 9, 36, 113
2, 9626, Note_off_c, 9, 36, 0
2, 9795, Note_on_c, 9, 36, 110
2, 9818, Note_off_c, 9, 36, 0
2, 9988, Note_on_c, 9, 36, 108
2, 10010, Note_off_c, 9, 36, 0
2, 10180, Note_on_c, 9, 36, 110
2, 10202, Note_off_c, 9, 36, 0
2, 10372, Note_on_c, 9, 36, 108
2, 10394, Note_off_c, 9, 36, 0
2, 10562, Note_on_c, 9, 36, 113
2, 10585, Note_off_c, 9, 36, 0
2, 10754, Note_on_c, 9, 36, 111
2, 10777, Note_off_c, 9, 36, 0
2, 10947, Note_on_c, 9, 36, 107
2, 10969, Note_off_c, 9, 36, 0
2, 11140, Note_on_c, 9, 36, 111
2, 11162, Note_off_c, 9, 36, 0
2, 11330, Note_on_c, 9, 36, 112
2, 11353, Note_off_c, 9, 36, 0
2, 11523, Note_on_c, 9, 36, 110
2, 11546, Note_off_c, 9, 36, 0
2, 11715, Note_on_c, 9, 36, 104
2, 11738, Note_off_c, 9, 36, 0
2, 11907, Note_on_c, 9, 36, 102
2, 11929, Note_off_c, 9, 36, 0
2, 12098, Note_on_c, 9, 36, 105
2, 12121, Note_off_c, 9, 36, 0
2, 12290, Note_on_c, 9, 36, 106
2, 12313, Note_off_c, 9, 36, 0
2, 12484, Note_on_c, 9, 36, 113
2, 12506, Note_off_c, 9, 36, 0
2, 12675, Note_on_c, 9, 36, 103
2, 12698, Note_off_c, 9, 36, 0
2, 12866, Note_on_c, 9, 36, 109
2, 12889, Note_off_c, 9, 36, 0
2, 13058, Note_on_c, 9, 36, 112
2, 13081, Note_off_c, 9, 36, 0
2, 13251, Note_on_c, 9, 36, 108
2, 13273, Note_off_c, 9, 36, 0
2, 13444, Note_on_c, 9, 36, 104
2, 13466, Note_off_c, 9, 36, 0
2, 13634, Note_on_c, 9, 36, 109
2, 13657, Note_off_c, 9, 36, 0
2, 13827, Note_on_c, 9, 36, 107
2, 13850, Note_off_c, 9, 36, 0
2, 14019, Note_on_c, 9, 36, 110
2, 14041, Note_off_c, 9, 36, 0
2, 14212, Note_on_c, 9, 36, 109
2, 14235, Note_off_c, 9, 36, 0
2, 14403, Note_on_c, 9, 36, 108
2, 14426, Note_off_c, 9, 36, 0
2, 14594, Note_on_c, 9, 36, 114
2, 14618, Note_off_c, 9, 36, 0
2, 14787, Note_on_c, 9, 36, 107
2, 14810, Note_off_c, 9, 36, 0
2, 14978, Note_on_c, 9, 36, 109
2, 15001, Note_off_c, 9, 36, 0
2, 15171, Note_on_c, 9, 36, 109
2, 15193, Note_off_c, 9, 36, 0
2, 15363, Note_on_c, 9, 36, 106
2, 15386, Note_off_c, 9, 36, 0
2, 15555, Note_on_c, 9, 36, 105
2, 15577, Note_off_c, 9, 36, 0
2, 15746, Note_on_c, 9, 36, 110
2, 15769, Note_off_c, 9, 36, 0
2, 15939, Note_on_c, 9, 36, 106
2, 15962, Note_off_c, 9, 36, 0
2, 16131, Note_on_c, 9, 36, 108
2, 16154, Note_off_c, 9, 36, 0
2, 16323, Note_on_c, 9, 36, 113
2, 16346, Note_off_c, 9, 36, 0
2, 16515, Note_on_c, 9, 36, 103
2, 16538, Note_off_c, 9, 36, 0
2, 16706, Note_on_c, 9, 36, 105
2, 16729, Note_off_c, 9, 36, 0
2, 16898, Note_on_c, 9, 36, 107
2, 16921, Note_off_c, 9, 36, 0
2, 17091, Note_on_c, 9, 36, 114
2, 17114, Note_off_c, 9, 36, 0
2, 17283, Note_on_c, 9, 36, 106
2, 17306, Note_off_c, 9, 36, 0
2, 17476, Note_on_c, 9, 36, 108
2, 17498, Note_off_c, 9, 36, 0
2, 17668, Note_on_c, 9, 36, 110
2, 17691, Note_off_c, 9, 36, 0
2, 17860, Note_on_c, 9, 36, 113
2, 17882, Note_off_c, 9, 36, 0
2, 18050, Note_on_c, 9, 36, 107
2, 18074, Note_off_c, 9, 36, 0
2, 18243, Note_on_c, 9, 36, 114
2, 18265, Note_off_c, 9, 36, 0
2, 18434, Note_on_c, 9, 36, 115
2, 18457, Note_off_c, 9, 36, 0
2, 18627, Note_on_c, 9, 36, 114
2, 18649, Note_off_c, 9, 36, 0
2, 18819, Note_on_c, 9, 36, 107
2, 18841, Note_off_c, 9, 36, 0
2, 19011, Note_on_c, 9, 36, 114
2, 19034, Note_off_c, 9, 36, 0
2, 19203, Note_on_c, 9, 36, 106
2, 19226, Note_off_c, 9, 36, 0
2, 19395, Note_on_c, 9, 36, 111
2, 19417, Note_off_c, 9, 36, 0
2, 19588, Note_on_c, 9, 36, 104
2, 19610, Note_off_c, 9, 36, 0
2, 19779, Note_on_c, 9, 36, 110
2, 19802, Note_off_c, 9, 36, 0
2, 19970, Note_on_c, 9, 36, 104
2, 19993, Note_off_c, 9, 36, 0
2, 20164, Note_on_c, 9, 36, 108
2, 20186, Note_off_c, 9, 36, 0
2, 20355, Note_on_c, 9, 36, 111
2, 20377, Note_off_c, 9, 36, 0
2, 20546, Note_on_c, 9, 36, 109
2, 20569, Note_off_c, 9, 36, 0
2, 20738, Note_on_c, 9, 36, 108
2, 20761, Note_off_c, 9, 36, 0
2, 20931, Note_on_c, 9, 36, 110
2, 20953, Note_off_c, 9, 36, 0
2, 21123, Note_on_c, 9, 36, 102
2, 21145, Note_off_c, 9, 36, 0
2, 21315, Note_on_c, 9, 36, 102
2, 21338, Note_off_c, 9, 36, 0
2, 21507, Note_on_c, 9, 36, 105
2, 21530, Note_off_c, 9, 36, 0
2, 21700, Note_on_c, 9, 36, 114
2, 21722, Note_off_c, 9, 36, 0
2, 21891, Note_on_c, 9, 36, 104
2, 21913, Note_off_c, 9, 36, 0
2, 22082, Note_on_c, 9, 36, 106
2, 22105, Note_off_c, 9, 36, 0
2, 22275, Note_on_c, 9, 36, 111
2, 22298, Note_off_c, 9, 36, 0
2, 22468, Note_on_c, 9, 36, 111
2, 22490, Note_off_c, 9, 36, 0
2, 22659, Note_on_c, 9, 36, 104
2, 22681, Note_off_c, 9, 36, 0
2, 22851, Note_on_c, 9, 36, 111
2, 22874, Note_off_c, 9, 36, 0
2, 23043, Note_on_c, 9, 36, 111
2, 23066, Note_off_c, 9, 36, 0
2, 23236, Note_on_c, 9, 36, 114
2, 23258, Note_off_c, 9, 36, 0
2, 23427, Note_on_c, 9, 36, 115
2, 23450, Note_off_c, 9, 36, 0
2, 23618, Note_on_c, 9, 36, 118
2, 23641, Note_off_c, 9, 36, 0
2, 23810, Note_on_c, 9, 36, 107
2, 23833, Note_off_c, 9, 36, 0
2, 24003, Note_on_c, 9, 36, 113
2, 24025, Note_off_c, 9, 36, 0
2, 24196, Note_on_c, 9, 36, 108
2, 24218, Note_off_c, 9, 36, 0
2, 24386, Note_on_c, 9, 36, 107
2, 24409, Note_off_c, 9, 36, 0
2, 24578, Note_on_c, 9, 36, 108
2, 24601, Note_off_c, 9, 36, 0
2, 24771, Note_on_c, 9, 36, 113
2, 24793, Note_off_c, 9, 36, 0
2, 24963, Note_on_c, 9, 36, 109
2, 24985, Note_off_c, 9, 36, 0
2, 25155, Note_on_c, 9, 36, 106
2, 25178, Note_off_c, 9, 36, 0
2, 25346, Note_on_c, 9, 36, 111
2, 25369, Note_off_c, 9, 36, 0
2, 25539, Note_on_c, 9, 36, 107
2, 25561, Note_off_c, 9, 36, 0
2, 25731, Note_on_c, 9, 36, 102
2, 25753, Note_off_c, 9, 36, 0
2, 25923, Note_on_c, 9, 36, 101
2, 25946, Note_off_c, 9, 36, 0
2, 26114, Note_on_c, 9, 36, 105
2, 26137, Note_off_c, 9, 36, 0
2, 26308, Note_on_c, 9, 36, 112
2, 26330, Note_off_c, 9, 36, 0
2, 26501, Note_on_c, 9, 36, 104
2, 26523, Note_off_c, 9, 36, 0
2, 26690, Note_on_c, 9, 36, 106
2, 26713, Note_off_c, 9, 36, 0
2, 26882, Note_on_c, 9, 36, 113
2, 26905, Note_off_c, 9, 36, 0
2, 27075, Note_on_c, 9, 36, 106
2, 27097, Note_off_c, 9, 36, 0
2, 27268, Note_on_c, 9, 36, 104
2, 27291, Note_off_c, 9, 36, 0
2, 27458, Note_on_c, 9, 36, 107
2, 27481, Note_off_c, 9, 36, 0
2, 27652, Note_on_c, 9, 36, 110
2, 27674, Note_off_c, 9, 36, 0
2, 27844, Note_on_c, 9, 36, 105
2, 27866, Note_off_c, 9, 36, 0
2, 28034, Note_on_c, 9, 36, 112
2, 28057, Note_off_c, 9, 36, 0
2, 28228, Note_on_c, 9, 36, 112
2, 28250, Note_off_c, 9, 36, 0
2, 28420, Note_on_c, 9, 36, 106
2, 28443, Note_off_c, 9, 36, 0
2, 28612, Note_on_c, 9, 36, 110
2, 28633, Note_off_c, 9, 36, 0
2, 28803, Note_on_c, 9, 36, 108
2, 28826, Note_off_c, 9, 36, 0
2, 28996, Note_on_c, 9, 36, 112
2, 29017, Note_off_c, 9, 36, 0
2, 29187, Note_on_c, 9, 36, 114
2, 29209, Note_off_c, 9, 36, 0
2, 29379, Note_on_c, 9, 36, 105
2, 29401, Note_off_c, 9, 36, 0
2, 29570, Note_on_c, 9, 36, 106
2, 29594, Note_off_c, 9, 36, 0
2, 29764, Note_on_c, 9, 36, 105
2, 29786, Note_off_c, 9, 36, 0
2, 29956, Note_on_c, 9, 36, 110
2, 29978, Note_off_c, 9, 36, 0
2, 30148, Note_on_c, 9, 36, 105
2, 30170, Note_off_c, 9, 36, 0
2, 30339, Note_on_c, 9, 36, 103
2, 30362, Note_off_c, 9, 36, 0
2, 30533, Note_on_c, 9, 36, 100
2, 30554, Note_off_c, 9, 36, 0
2, 30724, Note_on_c, 9, 36, 104
2, 30746, Note_off_c, 9, 36, 0
2, 30916, Note_on_c, 9, 36, 113
2, 30938, Note_off_c, 9, 36, 0
2, 31106, Note_on_c, 9, 36, 105
2, 31130, Note_off_c, 9, 36, 0
2, 31300, Note_on_c, 9, 36, 106
2, 31322, Note_off_c, 9, 36, 0
2, 31491, Note_on_c, 9, 36, 111
2, 31513, Note_off_c, 9, 36, 0
2, 31685, Note_on_c, 9, 36, 111
2, 31706, Note_off_c, 9, 36, 0
2, 31875, Note_on_c, 9, 36, 110
2, 31898, Note_off_c, 9, 36, 0
2, 32068, Note_on_c, 9, 36, 108
2, 32090, Note_off_c, 9, 36, 0
2, 32260, Note_on_c, 9, 36, 115
2, 32282, Note_off_c, 9, 36, 0
2, 32451, Note_on_c, 9, 36, 110
2, 32474, Note_off_c, 9, 36, 0
2, 32644, Note_on_c, 9, 36, 111
2, 32667, Note_off_c, 9, 36, 0
2, 32836, Note_on_c, 9, 36, 115
2, 32859, Note_off_c, 9, 36, 0
2, 33028, Note_on_c, 9, 36, 110
2, 33050, Note_off_c, 9, 36, 0
2, 33219, Note_on_c, 9, 36, 108
2, 33242, Note_off_c, 9, 36, 0
2, 33413, Note_on_c, 9, 36, 114
2, 33434, Note_off_c, 9, 36, 0
2, 33602, Note_on_c, 9, 36, 114
2, 33626, Note_off_c, 9, 36, 0
2, 33797, Note_on_c, 9, 36, 109
2, 33818, Note_off_c, 9, 36, 0
2, 33987, Note_on_c, 9, 36, 112
2, 34010, Note_off_c, 9, 36, 0
2, 34181, Note_on_c, 9, 36, 107
2, 34203, Note_off_c, 9, 36, 0
2, 34370, Note_on_c, 9, 36, 108
2, 34393, Note_off_c, 9, 36, 0
2, 34564, Note_on_c, 9, 36, 108
2, 34586, Note_off_c, 9, 36, 0
2, 34754, Note_on_c, 9, 36, 109
2, 34777, Note_off_c, 9, 36, 0
2, 34948, Note_on_c, 9, 36, 104
2, 34971, Note_off_c, 9, 36, 0
2, 35138, Note_on_c, 9, 36, 103
2, 35162, Note_off_c, 9, 36, 0
2, 35332, Note_on_c, 9, 36, 111
2, 35353, Note_off_c, 9, 36, 0
2, 35522, Note_on_c, 9, 36, 107
2, 35545, Note_off_c, 9, 36, 0
2, 35716, Note_on_c, 9, 36, 111
2, 35737, Note_off_c, 9, 36, 0
2, 35907, Note_on_c, 9, 36, 109
2, 35930, Note_off_c, 9, 36, 0
2, 36100, Note_on_c, 9, 36, 121
2, 36141, Note_off_c, 9, 36, 0
2, 36292, Note_on_c, 9, 36, 43
2, 36318, Note_off_c, 9, 36, 0
2, 36485, Note_on_c, 9, 36, 60
2, 36515, Note_off_c, 9, 36, 0
2, 36675, Note_on_c, 9, 36, 70
2, 36704, Note_off_c, 9, 36, 0
2, 36867, Note_on_c, 9, 36, 112
2, 36890, Note_off_c, 9, 36, 0
2, 37060, Note_on_c, 9, 36, 107
2, 37082, Note_off_c, 9, 36, 0
2, 37251, Note_on_c, 9, 36, 108
2, 37274, Note_off_c, 9, 36, 0
2, 37443, Note_on_c, 9, 36, 108
2, 37466, Note_off_c, 9, 36, 0
2, 37637, Note_on_c, 9, 36, 111
2, 37659, Note_off_c, 9, 36, 0
2, 37827, Note_on_c, 9, 36, 114
2, 37849, Note_off_c, 9, 36, 0
2, 38018, Note_on_c, 9, 36, 115
2, 38041, Note_off_c, 9, 36, 0
2, 38211, Note_on_c, 9, 36, 118
2, 38233, Note_off_c, 9, 36, 0
2, 38403, Note_on_c, 9, 36, 111
2, 38425, Note_off_c, 9, 36, 0
2, 38597, Note_on_c, 9, 36, 115
2, 38618, Note_off_c, 9, 36, 0
2, 38786, Note_on_c, 9, 36, 106
2, 38809, Note_off_c, 9, 36, 0
2, 38980, Note_on_c, 9, 36, 112
2, 39002, Note_off_c, 9, 36, 0
2, 39171, Note_on_c, 9, 36, 106
2, 39193, Note_off_c, 9, 36, 0
2, 39364, Note_on_c, 9, 36, 108
2, 39386, Note_off_c, 9, 36, 0
2, 39554, Note_on_c, 9, 36, 108
2, 39577, Note_off_c, 9, 36, 0
2, 39748, Note_on_c, 9, 36, 107
2, 39769, Note_off_c, 9, 36, 0
2, 39939, Note_on_c, 9, 36, 111
2, 39961, Note_off_c, 9, 36, 0
2, 40132, Note_on_c, 9, 36, 108
2, 40154, Note_off_c, 9, 36, 0
2, 40324, Note_on_c, 9, 36, 100
2, 40346, Note_off_c, 9, 36, 0
2, 40516, Note_on_c, 9, 36, 100
2, 40537, Note_off_c, 9, 36, 0
2, 40708, Note_on_c, 9, 36, 112
2, 40731, Note_off_c, 9, 36, 0
2, 40900, Note_on_c, 9, 36, 106
2, 40922, Note_off_c, 9, 36, 0
2, 41089, Note_on_c, 9, 36, 100
2, 41113, Note_off_c, 9, 36, 0
2, 41284, Note_on_c, 9, 36, 110
2, 41306, Note_off_c, 9, 36, 0
2, 41475, Note_on_c, 9, 36, 110
2, 41497, Note_off_c, 9, 36, 0
2, 41667, Note_on_c, 9, 36, 106
2, 41689, Note_off_c, 9, 36, 0
2, 41858, Note_on_c, 9, 36, 103
2, 41881, Note_off_c, 9, 36, 0
2, 42052, Note_on_c, 9, 36, 116
2, 42074, Note_off_c, 9, 36, 0
2, 42244, Note_on_c, 9, 36, 111
2, 42266, Note_off_c, 9, 36, 0
2, 42435, Note_on_c, 9, 36, 113
2, 42458, Note_off_c, 9, 36, 0
2, 42627, Note_on_c, 9, 36, 106
2, 42649, Note_off_c, 9, 36, 0
2, 42820, Note_on_c, 9, 36, 116
2, 42843, Note_off_c, 9, 36, 0
2, 43013, Note_on_c, 9, 36, 106
2, 43035, Note_off_c, 9, 36, 0
2, 43202, Note_on_c, 9, 36, 105
2, 43225, Note_off_c, 9, 36, 0
2, 43396, Note_on_c, 9, 36, 106
2, 43418, Note_off_c, 9, 36, 0
2, 43586, Note_on_c, 9, 36, 113
2, 43610, Note_off_c, 9, 36, 0
2, 43780, Note_on_c, 9, 36, 109
2, 43802, Note_off_c, 9, 36, 0
2, 43971, Note_on_c, 9, 36, 106
2, 43994, Note_off_c, 9, 36, 0
2, 44165, Note_on_c, 9, 36, 109
2, 44187, Note_off_c, 9, 36, 0
2, 44354, Note_on_c, 9, 36, 107
2, 44377, Note_off_c, 9, 36, 0
2, 44547, Note_on_c, 9, 36, 102
2, 44569, Note_off_c, 9, 36, 0
2, 44739, Note_on_c, 9, 36, 105
2, 44762, Note_off_c, 9, 36, 0
2, 44931, Note_on_c, 9, 36, 98
2, 44953, Note_off_c, 9, 36, 0
2, 45123, Note_on_c, 9, 36, 107
2, 45146, Note_off_c, 9, 36, 0
2, 45316, Note_on_c, 9, 36, 113
2, 45337, Note_off_c, 9, 36, 0
2, 45507, Note_on_c, 9, 36, 111
2, 45530, Note_off_c, 9, 36, 0
2, 45701, Note_on_c, 9, 36, 110
2, 45722, Note_off_c, 9, 36, 0
2, 45890, Note_on_c, 9, 36, 112
2, 45914, Note_off_c, 9, 36, 0
2, 46337, Note_on_c, 9, 38, 100
2, 46361, Note_off_c, 9, 38, 0
2, 46370, Note_on_c, 9, 38, 105
2, 46394, Note_off_c, 9, 38, 0
2, 46469, Note_on_c, 9, 38, 108
2, 46490, Note_off_c, 9, 38, 0
2, 46655, Note_on_c, 9, 36, 127
2, 46678, Note_off_c, 9, 36, 0
2, 47332, Note_on_c, 9, 38, 113
2, 47354, Note_off_c, 9, 38, 0
2, 47524, Note_on_c, 9, 38, 108
2, 47545, Note_off_c, 9, 38, 0
2, 47715, Note_on_c, 9, 38, 111
2, 47737, Note_off_c, 9, 38, 0
2, 47873, Note_on_c, 9, 38, 111
2, 47897, Note_off_c, 9, 38, 0
2, 47907, Note_on_c, 9, 38, 106
2, 47928, Note_off_c, 9, 38, 0
2, 47969, Note_on_c, 9, 38, 105
2, 47993, Note_off_c, 9, 38, 0
2, 48098, Note_on_c, 9, 38, 107
2, 48130, Note_off_c, 9, 38, 0
2, 48289, Note_on_c, 9, 38, 114
2, 48317, Note_off_c, 9, 38, 0
2, 48482, Note_on_c, 9, 38, 108
2, 48506, Note_off_c, 9, 38, 0
2, 48674, Note_on_c, 9, 38, 113
2, 48700, Note_off_c, 9, 38, 0
2, 48866, Note_on_c, 9, 38, 115
2, 48892, Note_off_c, 9, 38, 0
2, 49057, Note_on_c, 9, 38, 117
2, 49085, Note_off_c, 9, 38, 0
2, 49250, Note_on_c, 9, 38, 118
2, 49275, Note_off_c, 9, 38, 0
2, 49409, Note_on_c, 9, 38, 105
2, 49429, Note_off_c, 9, 38, 0
2, 49443, Note_on_c, 9, 38, 111
2, 49466, Note_off_c, 9, 38, 0
2, 49633, Note_on_c, 9, 38, 118
2, 49659, Note_off_c, 9, 38, 0
2, 49826, Note_on_c, 9, 38, 121
2, 49854, Note_off_c, 9, 38, 0
2, 50018, Note_on_c, 9, 38, 114
2, 50052, Note_off_c, 9, 38, 0
2, 50178, Note_on_c, 9, 38, 112
2, 50194, Note_off_c, 9, 38, 0
2, 50210, Note_on_c, 9, 38, 109
2, 50236, Note_off_c, 9, 38, 0
2, 50402, Note_on_c, 9, 38, 114
2, 50432, Note_off_c, 9, 38, 0
2, 50593, Note_on_c, 9, 38, 112
2, 50621, Note_off_c, 9, 38, 0
2, 50786, Note_on_c, 9, 38, 106
2, 50814, Note_off_c, 9, 38, 0
2, 50946, Note_on_c, 9, 38, 93
2, 50957, Note_off_c, 9, 38, 0
2, 50977, Note_on_c, 9, 38, 111
2, 51003, Note_off_c, 9, 38, 0
2, 51169, Note_on_c, 9, 38, 115
2, 51195, Note_off_c, 9, 38, 0
2, 51362, Note_on_c, 9, 38, 113
2, 51389, Note_off_c, 9, 38, 0
2, 51554, Note_on_c, 9, 38, 119
2, 51580, Note_off_c, 9, 38, 0
2, 51714, Note_on_c, 9, 38, 102
2, 51732, Note_off_c, 9, 38, 0
2, 51747, Note_on_c, 9, 38, 110
2, 51772, Note_off_c, 9, 38, 0
2, 51938, Note_on_c, 9, 38, 113
2, 51965, Note_off_c, 9, 38, 0
2, 52097, Note_on_c, 9, 38, 118
2, 52115, Note_off_c, 9, 38, 0
2, 52130, Note_on_c, 9, 38, 121
2, 52150, Note_off_c, 9, 38, 0
2, 52194, Note_on_c, 9, 38, 104
2, 52219, Note_off_c, 9, 38, 0
2, 52219, End_track
3, 0, Start_track
3, 0, Text_t, "popsnare"
3, 0, Channel_prefix, 9
3, 1410, Note_on_c, 9, 38, 103
3, 1434, Note_off_c, 9, 38, 0
3, 1441, Note_on_c, 9, 38, 101
3, 1465, Note_off_c, 9, 38, 0
3, 1540, Note_on_c, 9, 38, 106
3, 1562, Note_off_c, 9, 38, 0
3, 2178, Note_on_c, 9, 38, 110
3, 2202, Note_off_c, 9, 38, 0
3, 2209, Note_on_c, 9, 38, 108
3, 2233, Note_off_c, 9, 38, 0
3, 2307, Note_on_c, 9, 38, 109
3, 2329, Note_off_c, 9, 38, 0
3, 2945, Note_on_c, 9, 38, 103
3, 2969, Note_off_c, 9, 38, 0
3, 2978, Note_on_c, 9, 38, 107
3, 3002, Note_off_c, 9, 38, 0
3, 3077, Note_on_c, 9, 38, 106
3, 3098, Note_off_c, 9, 38, 0
3, 3940, Note_on_c, 9, 38, 112
3, 3962, Note_off_c, 9, 38, 0
3, 4132, Note_on_c, 9, 38, 109
3, 4153, Note_off_c, 9, 38, 0
3, 4323, Note_on_c, 9, 38, 109
3, 4345, Note_off_c, 9, 38, 0
3, 4481, Note_on_c, 9, 38, 108
3, 4505, Note_off_c, 9, 38, 0
3, 4515, Note_on_c, 9, 38, 104
3, 4536, Note_off_c, 9, 38, 0
3, 4577, Note_on_c, 9, 38, 104
3, 4601, Note_off_c, 9, 38, 0
3, 4706, Note_on_c, 9, 38, 107
3, 4738, Note_off_c, 9, 38, 0
3, 4897, Note_on_c, 9, 38, 116
3, 4925, Note_off_c, 9, 38, 0
3, 5090, Note_on_c, 9, 38, 111
3, 5114, Note_off_c, 9, 38, 0
3, 5282, Note_on_c, 9, 38, 110
3, 5308, Note_off_c, 9, 38, 0
3, 5474, Note_on_c, 9, 38, 115
3, 5500, Note_off_c, 9, 38, 0
3, 5665, Note_on_c, 9, 38, 114
3, 5693, Note_off_c, 9, 38, 0
3, 5858, Note_on_c, 9, 38, 120
3, 5883, Note_off_c, 9, 38, 0
3, 6017, Note_on_c, 9, 38, 104
3, 6037, Note_off_c, 9, 38, 0
3, 6051, Note_on_c, 9, 38, 112
3, 6074, Note_off_c, 9, 38, 0
3, 6241, Note_on_c, 9, 38, 118
3, 6267, Note_off_c, 9, 38, 0
3, 6434, Note_on_c, 9, 38, 120
3, 6462, Note_off_c, 9, 38, 0
3, 6626, Note_on_c, 9, 38, 117
3, 6660, Note_off_c, 9, 38, 0
3, 6786, Note_on_c, 9, 38, 114
3, 6802, Note_off_c, 9, 38, 0
3, 6818, Note_on_c, 9, 38, 108
3, 6844, Note_off_c, 9, 38, 0
3, 7010, Note_on_c, 9, 38, 112
3, 7040, Note_off_c, 9, 38, 0
3, 7201, Note_on_c, 9, 38, 115
3, 7229, Note_off_c, 9, 38, 0
3, 7394, Note_on_c, 9, 38, 106
3, 7422, Note_off_c, 9, 38, 0
3, 7554, Note_on_c, 9, 38, 96
3, 7565, Note_off_c, 9, 38, 0
3, 7585, Note_on_c, 9, 38, 113
3, 7611, Note_off_c, 9, 38, 0
3, 7777, Note_on_c, 9, 38, 118
3, 7803, Note_off_c, 9, 38, 0
3, 7970, Note_on_c, 9, 38, 110
3, 7997, Note_off_c, 9, 38, 0
3, 8162, Note_on_c, 9, 38, 120
3, 8188, Note_off_c, 9, 38, 0
3, 8322, Note_on_c, 9, 38, 104
3, 8340, Note_off_c, 9, 38, 0
3, 8355, Note_on_c, 9, 38, 110
3, 8380, Note_off_c, 9, 38, 0
3, 8546, Note_on_c, 9, 38, 114
3, 8573, Note_off_c, 9, 38, 0
3, 8705, Note_on_c, 9, 38, 120
3, 8723, Note_off_c, 9, 38, 0
3, 8738, Note_on_c, 9, 38, 121
3, 8758, Note_off_c, 9, 38, 0
3, 8802, Note_on_c, 9, 38, 102
3, 8827, Note_off_c, 9, 38, 0
3, 8835, Note_on_c, 9, 38, 116
3, 8849, Note_off_c, 9, 38, 0
3, 8865, Note_on_c, 9, 38, 82
3, 8880, Note_off_c, 9, 38, 0
3, 8897, Note_on_c, 9, 38, 91
3, 8921, Note_off_c, 9, 38, 0
3, 8931, Note_on_c, 9, 38, 112
3, 8945, Note_off_c, 9, 38, 0
3, 8961, Note_on_c, 9, 38, 86
3, 8979, Note_off_c, 9, 38, 0
3, 8995, Note_on_c, 9, 38, 93
3, 9017, Note_off_c, 9, 38, 0
3, 9027, Note_on_c, 9, 38, 121
3, 9041, Note_off_c, 9, 38, 0
3, 9057, Note_on_c, 9, 38, 92
3, 9077, Note_off_c, 9, 38, 0
3, 9089, Note_on_c, 9, 38, 103
3, 9116, Note_off_c, 9, 38, 0
3, 9123, Note_on_c, 9, 38, 119
3, 9139, Note_off_c, 9, 38, 0
3, 9154, Note_on_c, 9, 38, 88
3, 9172, Note_off_c, 9, 38, 0
3, 9186, Note_on_c, 9, 38, 102
3, 9213, Note_off_c, 9, 38, 0
3, 9315, Note_on_c, 9, 38, 114
3, 9346, Note_off_c, 9, 38, 0
3, 9506, Note_on_c, 9, 38, 112
3, 9534, Note_off_c, 9, 38, 0
3, 9699, Note_on_c, 9, 38, 114
3, 9723, Note_off_c, 9, 38, 0
3, 9890, Note_on_c, 9, 38, 119
3, 9916, Note_off_c, 9, 38, 0
3, 10083, Note_on_c, 9, 38, 110
3, 10109, Note_off_c, 9, 38, 0
3, 10273, Note_on_c, 9, 38, 120
3, 10301, Note_off_c, 9, 38, 0
3, 10465, Note_on_c, 9, 38, 116
3, 10490, Note_off_c, 9, 38, 0
3, 10625, Note_on_c, 9, 38, 101
3, 10645, Note_off_c, 9, 38, 0
3, 10659, Note_on_c, 9, 38, 119
3, 10682, Note_off_c, 9, 38, 0
3, 10850, Note_on_c, 9, 38, 116
3, 10875, Note_off_c, 9, 38, 0
3, 11042, Note_on_c, 9, 38, 112
3, 11069, Note_off_c, 9, 38, 0
3, 11235, Note_on_c, 9, 38, 116
3, 11269, Note_off_c, 9, 38, 0
3, 11394, Note_on_c, 9, 38, 109
3, 11410, Note_off_c, 9, 38, 0
3, 11426, Note_on_c, 9, 38, 113
3, 11452, Note_off_c, 9, 38, 0
3, 11618, Note_on_c, 9, 38, 118
3, 11648, Note_off_c, 9, 38, 0
3, 11811, Note_on_c, 9, 38, 115
3, 11839, Note_off_c, 9, 38, 0
3, 12002, Note_on_c, 9, 38, 112
3, 12031, Note_off_c, 9, 38, 0
3, 12161, Note_on_c, 9, 38, 92
3, 12172, Note_off_c, 9, 38, 0
3, 12194, Note_on_c, 9, 38, 106
3, 12219, Note_off_c, 9, 38, 0
3, 12385, Note_on_c, 9, 38, 120
3, 12410, Note_off_c, 9, 38, 0
3, 12577, Note_on_c, 9, 38, 118
3, 12605, Note_off_c, 9, 38, 0
3, 12770, Note_on_c, 9, 38, 115
3, 12797, Note_off_c, 9, 38, 0
3, 12930, Note_on_c, 9, 38, 109
3, 12947, Note_off_c, 9, 38, 0
3, 12962, Note_on_c, 9, 38, 114
3, 12988, Note_off_c, 9, 38, 0
3, 13123, Note_on_c, 9, 38, 127
3, 13140, Note_off_c, 9, 38, 0
3, 13153, Note_on_c, 9, 38, 117
3, 13180, Note_off_c, 9, 38, 0
3, 13252, Note_on_c, 9, 38, 122
3, 13267, Note_off_c, 9, 38, 0
3, 13346, Note_on_c, 9, 38, 121
3, 13374, Note_off_c, 9, 38, 0
3, 13410, Note_on_c, 9, 38, 118
3, 13425, Note_off_c, 9, 38, 0
3, 13505, Note_on_c, 9, 38, 107
3, 13521, Note_off_c, 9, 38, 0
3, 13539, Note_on_c, 9, 38, 114
3, 13551, Note_off_c, 9, 38, 0
3, 13569, Note_on_c, 9, 38, 93
3, 13579, Note_off_c, 9, 38, 0
3, 13603, Note_on_c, 9, 38, 93
3, 13616, Note_off_c, 9, 38, 0
3, 13635, Note_on_c, 9, 38, 115
3, 13648, Note_off_c, 9, 38, 0
3, 13666, Note_on_c, 9, 38, 95
3, 13680, Note_off_c, 9, 38, 0
3, 13699, Note_on_c, 9, 38, 116
3, 13712, Note_off_c, 9, 38, 0
3, 13731, Note_on_c, 9, 38, 121
3, 13748, Note_off_c, 9, 38, 0
3, 13761, Note_on_c, 9, 38, 116
3, 13775, Note_off_c, 9, 38, 0
3, 13794, Note_on_c, 9, 38, 114
3, 13817, Note_off_c, 9, 38, 0
3, 13922, Note_on_c, 9, 38, 109
3, 13953, Note_off_c, 9, 38, 0
3, 14114, Note_on_c, 9, 38, 111
3, 14142, Note_off_c, 9, 38, 0
3, 14307, Note_on_c, 9, 38, 116
3, 14331, Note_off_c, 9, 38, 0
3, 14497, Note_on_c, 9, 38, 116
3, 14523, Note_off_c, 9, 38, 0
3, 14690, Note_on_c, 9, 38, 117
3, 14716, Note_off_c, 9, 38, 0
3, 14883, Note_on_c, 9, 38, 118
3, 14910, Note_off_c, 9, 38, 0
3, 15074, Note_on_c, 9, 38, 123
3, 15099, Note_off_c, 9, 38, 0
3, 15235, Note_on_c, 9, 38, 111
3, 15254, Note_off_c, 9, 38, 0
3, 15266, Note_on_c, 9, 38, 111
3, 15290, Note_off_c, 9, 38, 0
3, 15458, Note_on_c, 9, 38, 120
3, 15483, Note_off_c, 9, 38, 0
3, 15651, Note_on_c, 9, 38, 118
3, 15678, Note_off_c, 9, 38, 0
3, 15843, Note_on_c, 9, 38, 113
3, 15877, Note_off_c, 9, 38, 0
3, 16001, Note_on_c, 9, 38, 107
3, 16018, Note_off_c, 9, 38, 0
3, 16033, Note_on_c, 9, 38, 111
3, 16060, Note_off_c, 9, 38, 0
3, 16227, Note_on_c, 9, 38, 112
3, 16257, Note_off_c, 9, 38, 0
3, 16418, Note_on_c, 9, 38, 113
3, 16446, Note_off_c, 9, 38, 0
3, 16610, Note_on_c, 9, 38, 114
3, 16638, Note_off_c, 9, 38, 0
3, 16770, Note_on_c, 9, 38, 88
3, 16780, Note_off_c, 9, 38, 0
3, 16803, Note_on_c, 9, 38, 105
3, 16828, Note_off_c, 9, 38, 0
3, 16993, Note_on_c, 9, 38, 113
3, 17018, Note_off_c, 9, 38, 0
3, 17186, Note_on_c, 9, 38, 113
3, 17213, Note_off_c, 9, 38, 0
3, 17379, Note_on_c, 9, 38, 114
3, 17405, Note_off_c, 9, 38, 0
3, 17538, Note_on_c, 9, 38, 105
3, 17556, Note_off_c, 9, 38, 0
3, 17570, Note_on_c, 9, 38, 108
3, 17596, Note_off_c, 9, 38, 0
3, 17762, Note_on_c, 9, 38, 118
3, 17788, Note_off_c, 9, 38, 0
3, 17921, Note_on_c, 9, 38, 109
3, 17940, Note_off_c, 9, 38, 0
3, 17955, Note_on_c, 9, 38, 116
3, 17975, Note_off_c, 9, 38, 0
3, 18017, Note_on_c, 9, 38, 101
3, 18042, Note_off_c, 9, 38, 0
3, 18049, Note_on_c, 9, 38, 112
3, 18065, Note_off_c, 9, 38, 0
3, 18082, Note_on_c, 9, 38, 84
3, 18097, Note_off_c, 9, 38, 0
3, 18115, Note_on_c, 9, 38, 94
3, 18138, Note_off_c, 9, 38, 0
3, 18147, Note_on_c, 9, 38, 111
3, 18161, Note_off_c, 9, 38, 0
3, 18178, Note_on_c, 9, 38, 80
3, 18195, Note_off_c, 9, 38, 0
3, 18211, Note_on_c, 9, 38, 101
3, 18234, Note_off_c, 9, 38, 0
3, 18242, Note_on_c, 9, 38, 117
3, 18256, Note_off_c, 9, 38, 0
3, 18275, Note_on_c, 9, 38, 97
3, 18295, Note_off_c, 9, 38, 0
3, 18306, Note_on_c, 9, 38, 98
3, 18332, Note_off_c, 9, 38, 0
3, 18338, Note_on_c, 9, 38, 124
3, 18354, Note_off_c, 9, 38, 0
3, 18370, Note_on_c, 9, 38, 88
3, 18387, Note_off_c, 9, 38, 0
3, 18402, Note_on_c, 9, 38, 102
3, 18430, Note_off_c, 9, 38, 0
3, 18530, Note_on_c, 9, 38, 111
3, 18561, Note_off_c, 9, 38, 0
3, 18721, Note_on_c, 9, 38, 111
3, 18749, Note_off_c, 9, 38, 0
3, 18914, Note_on_c, 9, 38, 111
3, 18938, Note_off_c, 9, 38, 0
3, 19105, Note_on_c, 9, 38, 119
3, 19131, Note_off_c, 9, 38, 0
3, 19299, Note_on_c, 9, 38, 112
3, 19325, Note_off_c, 9, 38, 0
3, 19490, Note_on_c, 9, 38, 119
3, 19518, Note_off_c, 9, 38, 0
3, 19682, Note_on_c, 9, 38, 121
3, 19707, Note_off_c, 9, 38, 0
3, 19842, Note_on_c, 9, 38, 106
3, 19861, Note_off_c, 9, 38, 0
3, 19874, Note_on_c, 9, 38, 114
3, 19898, Note_off_c, 9, 38, 0
3, 20066, Note_on_c, 9, 38, 115
3, 20091, Note_off_c, 9, 38, 0
3, 20258, Note_on_c, 9, 38, 119
3, 20285, Note_off_c, 9, 38, 0
3, 20451, Note_on_c, 9, 38, 114
3, 20484, Note_off_c, 9, 38, 0
3, 20609, Note_on_c, 9, 38, 112
3, 20626, Note_off_c, 9, 38, 0
3, 20641, Note_on_c, 9, 38, 112
3, 20668, Note_off_c, 9, 38, 0
3, 20833, Note_on_c, 9, 38, 118
3, 20864, Note_off_c, 9, 38, 0
3, 21026, Note_on_c, 9, 38, 118
3, 21054, Note_off_c, 9, 38, 0
3, 21219, Note_on_c, 9, 38, 111
3, 21247, Note_off_c, 9, 38, 0
3, 21377, Note_on_c, 9, 38, 91
3, 21388, Note_off_c, 9, 38, 0
3, 21411, Note_on_c, 9, 38, 108
3, 21436, Note_off_c, 9, 38, 0
3, 21603, Note_on_c, 9, 38, 117
3, 21628, Note_off_c, 9, 38, 0
3, 21795, Note_on_c, 9, 38, 118
3, 21822, Note_off_c, 9, 38, 0
3, 21987, Note_on_c, 9, 38, 111
3, 22013, Note_off_c, 9, 38, 0
3, 22145, Note_on_c, 9, 38, 107
3, 22163, Note_off_c, 9, 38, 0
3, 22178, Note_on_c, 9, 38, 107
3, 22203, Note_off_c, 9, 38, 0
3, 22369, Note_on_c, 9, 38, 112
3, 22395, Note_off_c, 9, 38, 0
3, 22528, Note_on_c, 9, 38, 117
3, 22547, Note_off_c, 9, 38, 0
3, 22563, Note_on_c, 9, 38, 118
3, 22583, Note_off_c, 9, 38, 0
3, 22626, Note_on_c, 9, 38, 102
3, 22651, Note_off_c, 9, 38, 0
3, 22658, Note_on_c, 9, 38, 116
3, 22672, Note_off_c, 9, 38, 0
3, 22690, Note_on_c, 9, 38, 87
3, 22705, Note_off_c, 9, 38, 0
3, 22722, Note_on_c, 9, 38, 98
3, 22746, Note_off_c, 9, 38, 0
3, 22754, Note_on_c, 9, 38, 115
3, 22768, Note_off_c, 9, 38, 0
3, 22786, Note_on_c, 9, 38, 85
3, 22804, Note_off_c, 9, 38, 0
3, 22820, Note_on_c, 9, 38, 101
3, 22842, Note_off_c, 9, 38, 0
3, 22850, Note_on_c, 9, 38, 112
3, 22864, Note_off_c, 9, 38, 0
3, 22881, Note_on_c, 9, 38, 96
3, 22902, Note_off_c, 9, 38, 0
3, 22913, Note_on_c, 9, 38, 102
3, 22940, Note_off_c, 9, 38, 0
3, 22947, Note_on_c, 9, 38, 124
3, 22963, Note_off_c, 9, 38, 0
3, 22977, Note_on_c, 9, 38, 93
3, 22994, Note_off_c, 9, 38, 0
3, 23009, Note_on_c, 9, 38, 100
3, 23037, Note_off_c, 9, 38, 0
3, 23138, Note_on_c, 9, 38, 107
3, 23170, Note_off_c, 9, 38, 0
3, 23329, Note_on_c, 9, 38, 117
3, 23356, Note_off_c, 9, 38, 0
3, 23523, Note_on_c, 9, 38, 110
3, 23547, Note_off_c, 9, 38, 0
3, 23714, Note_on_c, 9, 38, 109
3, 23740, Note_off_c, 9, 38, 0
3, 23906, Note_on_c, 9, 38, 119
3, 23933, Note_off_c, 9, 38, 0
3, 24097, Note_on_c, 9, 38, 117
3, 24125, Note_off_c, 9, 38, 0
3, 24291, Note_on_c, 9, 38, 118
3, 24316, Note_off_c, 9, 38, 0
3, 24449, Note_on_c, 9, 38, 104
3, 24469, Note_off_c, 9, 38, 0
3, 24482, Note_on_c, 9, 38, 115
3, 24506, Note_off_c, 9, 38, 0
3, 24674, Note_on_c, 9, 38, 111
3, 24699, Note_off_c, 9, 38, 0
3, 24867, Note_on_c, 9, 38, 118
3, 24894, Note_off_c, 9, 38, 0
3, 25059, Note_on_c, 9, 38, 116
3, 25092, Note_off_c, 9, 38, 0
3, 25218, Note_on_c, 9, 38, 110
3, 25235, Note_off_c, 9, 38, 0
3, 25251, Note_on_c, 9, 38, 107
3, 25277, Note_off_c, 9, 38, 0
3, 25443, Note_on_c, 9, 38, 117
3, 25473, Note_off_c, 9, 38, 0
3, 25634, Note_on_c, 9, 38, 115
3, 25663, Note_off_c, 9, 38, 0
3, 25826, Note_on_c, 9, 38, 109
3, 25854, Note_off_c, 9, 38, 0
3, 25985, Note_on_c, 9, 38, 96
3, 25996, Note_off_c, 9, 38, 0
3, 26017, Note_on_c, 9, 38, 110
3, 26042, Note_off_c, 9, 38, 0
3, 26210, Note_on_c, 9, 38, 116
3, 26235, Note_off_c, 9, 38, 0
3, 26402, Note_on_c, 9, 38, 121
3, 26430, Note_off_c, 9, 38, 0
3, 26593, Note_on_c, 9, 38, 119
3, 26620, Note_off_c, 9, 38, 0
3, 26753, Note_on_c, 9, 38, 110
3, 26771, Note_off_c, 9, 38, 0
3, 26786, Note_on_c, 9, 38, 106
3, 26811, Note_off_c, 9, 38, 0
3, 26947, Note_on_c, 9, 38, 122
3, 26964, Note_off_c, 9, 38, 0
3, 26977, Note_on_c, 9, 38, 116
3, 27003, Note_off_c, 9, 38, 0
3, 27075, Note_on_c, 9, 38, 126
3, 27090, Note_off_c, 9, 38, 0
3, 27170, Note_on_c, 9, 38, 115
3, 27198, Note_off_c, 9, 38, 0
3, 27233, Note_on_c, 9, 38, 115
3, 27248, Note_off_c, 9, 38, 0
3, 27330, Note_on_c, 9, 38, 100
3, 27346, Note_off_c, 9, 38, 0
3, 27362, Note_on_c, 9, 38, 110
3, 27375, Note_off_c, 9, 38, 0
3, 27393, Note_on_c, 9, 38, 87
3, 27402, Note_off_c, 9, 38, 0
3, 27427, Note_on_c, 9, 38, 86
3, 27440, Note_off_c, 9, 38, 0
3, 27458, Note_on_c, 9, 38, 109
3, 27471, Note_off_c, 9, 38, 0
3, 27488, Note_on_c, 9, 38, 92
3, 27502, Note_off_c, 9, 38, 0
3, 27522, Note_on_c, 9, 38, 118
3, 27536, Note_off_c, 9, 38, 0
3, 27554, Note_on_c, 9, 38, 107
3, 27572, Note_off_c, 9, 38, 0
3, 27585, Note_on_c, 9, 38, 112
3, 27598, Note_off_c, 9, 38, 0
3, 27618, Note_on_c, 9, 38, 113
3, 27641, Note_off_c, 9, 38, 0
3, 27748, Note_on_c, 9, 38, 106
3, 27778, Note_off_c, 9, 38, 0
3, 27938, Note_on_c, 9, 38, 111
3, 27965, Note_off_c, 9, 38, 0
3, 28130, Note_on_c, 9, 38, 114
3, 28155, Note_off_c, 9, 38, 0
3, 28322, Note_on_c, 9, 38, 116
3, 28347, Note_off_c, 9, 38, 0
3, 28516, Note_on_c, 9, 38, 116
3, 28541, Note_off_c, 9, 38, 0
3, 28707, Note_on_c, 9, 38, 120
3, 28734, Note_off_c, 9, 38, 0
3, 28898, Note_on_c, 9, 38, 119
3, 28923, Note_off_c, 9, 38, 0
3, 29058, Note_on_c, 9, 38, 105
3, 29078, Note_off_c, 9, 38, 0
3, 29089, Note_on_c, 9, 38, 112
3, 29114, Note_off_c, 9, 38, 0
3, 29283, Note_on_c, 9, 38, 115
3, 29308, Note_off_c, 9, 38, 0
3, 29475, Note_on_c, 9, 38, 119
3, 29502, Note_off_c, 9, 38, 0
3, 29666, Note_on_c, 9, 38, 117
3, 29700, Note_off_c, 9, 38, 0
3, 29825, Note_on_c, 9, 38, 110
3, 29842, Note_off_c, 9, 38, 0
3, 29858, Note_on_c, 9, 38, 117
3, 29884, Note_off_c, 9, 38, 0
3, 30052, Note_on_c, 9, 38, 110
3, 30081, Note_off_c, 9, 38, 0
3, 30241, Note_on_c, 9, 38, 119
3, 30270, Note_off_c, 9, 38, 0
3, 30434, Note_on_c, 9, 38, 114
3, 30463, Note_off_c, 9, 38, 0
3, 30593, Note_on_c, 9, 38, 90
3, 30604, Note_off_c, 9, 38, 0
3, 30626, Note_on_c, 9, 38, 113
3, 30651, Note_off_c, 9, 38, 0
3, 30820, Note_on_c, 9, 38, 118
3, 30844, Note_off_c, 9, 38, 0
3, 31009, Note_on_c, 9, 38, 118
3, 31036, Note_off_c, 9, 38, 0
3, 31201, Note_on_c, 9, 38, 111
3, 31227, Note_off_c, 9, 38, 0
3, 31362, Note_on_c, 9, 38, 105
3, 31380, Note_off_c, 9, 38, 0
3, 31394, Note_on_c, 9, 38, 111
3, 31420, Note_off_c, 9, 38, 0
3, 31554, Note_on_c, 9, 38, 127
3, 31571, Note_off_c, 9, 38, 0
3, 31587, Note_on_c, 9, 38, 114
3, 31612, Note_off_c, 9, 38, 0
3, 31683, Note_on_c, 9, 38, 127
3, 31697, Note_off_c, 9, 38, 0
3, 31746, Note_on_c, 9, 38, 118
3, 31764, Note_off_c, 9, 38, 0
3, 31778, Note_on_c, 9, 38, 85
3, 31799, Note_off_c, 9, 38, 0
3, 31843, Note_on_c, 9, 38, 96
3, 31856, Note_off_c, 9, 38, 0
3, 31873, Note_on_c, 9, 38, 113
3, 31889, Note_off_c, 9, 38, 0
3, 31906, Note_on_c, 9, 38, 89
3, 31921, Note_off_c, 9, 38, 0
3, 31940, Note_on_c, 9, 38, 104
3, 31954, Note_off_c, 9, 38, 0
3, 31971, Note_on_c, 9, 38, 118
3, 31983, Note_off_c, 9, 38, 0
3, 32002, Note_on_c, 9, 38, 78
3, 32010, Note_off_c, 9, 38, 0
3, 32035, Note_on_c, 9, 38, 87
3, 32048, Note_off_c, 9, 38, 0
3, 32068, Note_on_c, 9, 38, 116
3, 32080, Note_off_c, 9, 38, 0
3, 32098, Note_on_c, 9, 38, 93
3, 32112, Note_off_c, 9, 38, 0
3, 32130, Note_on_c, 9, 38, 103
3, 32142, Note_off_c, 9, 38, 0
3, 32164, Note_on_c, 9, 38, 108
3, 32180, Note_off_c, 9, 38, 0
3, 32194, Note_on_c, 9, 38, 115
3, 32207, Note_off_c, 9, 38, 0
3, 32227, Note_on_c, 9, 38, 104
3, 32249, Note_off_c, 9, 38, 0
3, 32356, Note_on_c, 9, 38, 107
3, 32386, Note_off_c, 9, 38, 0
3, 32546, Note_on_c, 9, 38, 110
3, 32574, Note_off_c, 9, 38, 0
3, 32739, Note_on_c, 9, 38, 115
3, 32762, Note_off_c, 9, 38, 0
3, 32931, Note_on_c, 9, 38, 117
3, 32957, Note_off_c, 9, 38, 0
3, 33123, Note_on_c, 9, 38, 113
3, 33149, Note_off_c, 9, 38, 0
3, 33314, Note_on_c, 9, 38, 118
3, 33340, Note_off_c, 9, 38, 0
3, 33507, Note_on_c, 9, 38, 116
3, 33530, Note_off_c, 9, 38, 0
3, 33665, Note_on_c, 9, 38, 108
3, 33685, Note_off_c, 9, 38, 0
3, 33698, Note_on_c, 9, 38, 115
3, 33722, Note_off_c, 9, 38, 0
3, 33891, Note_on_c, 9, 38, 109
3, 33915, Note_off_c, 9, 38, 0
3, 34083, Note_on_c, 9, 38, 115
3, 34110, Note_off_c, 9, 38, 0
3, 34276, Note_on_c, 9, 38, 116
3, 34309, Note_off_c, 9, 38, 0
3, 34434, Note_on_c, 9, 38, 107
3, 34451, Note_off_c, 9, 38, 0
3, 34465, Note_on_c, 9, 38, 109
3, 34492, Note_off_c, 9, 38, 0
3, 34660, Note_on_c, 9, 38, 112
3, 34689, Note_off_c, 9, 38, 0
3, 34850, Note_on_c, 9, 38, 117
3, 34879, Note_off_c, 9, 38, 0
3, 35043, Note_on_c, 9, 38, 112
3, 35071, Note_off_c, 9, 38, 0
3, 35202, Note_on_c, 9, 38, 97
3, 35212, Note_off_c, 9, 38, 0
3, 35234, Note_on_c, 9, 38, 109
3, 35259, Note_off_c, 9, 38, 0
3, 35427, Note_on_c, 9, 38, 117
3, 35451, Note_off_c, 9, 38, 0
3, 35618, Note_on_c, 9, 38, 119
3, 35646, Note_off_c, 9, 38, 0
3, 35810, Note_on_c, 9, 38, 121
3, 35835, Note_off_c, 9, 38, 0
3, 35970, Note_on_c, 9, 38, 101
3, 35987, Note_off_c, 9, 38, 0
3, 36001, Note_on_c, 9, 38, 114
3, 36027, Note_off_c, 9, 38, 0
3, 36194, Note_on_c, 9, 38, 113
3, 36215, Note_off_c, 9, 38, 0
3, 36386, Note_on_c, 9, 38, 118
3, 36405, Note_off_c, 9, 38, 0
3, 36578, Note_on_c, 9, 38, 121
3, 36597, Note_off_c, 9, 38, 0
3, 36770, Note_on_c, 9, 38, 124
3, 36789, Note_off_c, 9, 38, 0
3, 36930, Note_on_c, 9, 38, 127
3, 36947, Note_off_c, 9, 38, 0
3, 36963, Note_on_c, 9, 38, 116
3, 36989, Note_off_c, 9, 38, 0
3, 37059, Note_on_c, 9, 38, 122
3, 37074, Note_off_c, 9, 38, 0
3, 37154, Note_on_c, 9, 38, 115
3, 37181, Note_off_c, 9, 38, 0
3, 37217, Note_on_c, 9, 38, 113
3, 37232, Note_off_c, 9, 38, 0
3, 37313, Note_on_c, 9, 38, 101
3, 37329, Note_off_c, 9, 38, 0
3, 37345, Note_on_c, 9, 38, 116
3, 37346, Note_off_c, 9, 38, 0
3, 37347, Note_on_c, 9, 38, 69
3, 37360, Note_off_c, 9, 38, 0
3, 37377, Note_on_c, 9, 38, 89
3, 37386, Note_off_c, 9, 38, 0
3, 37410, Note_on_c, 9, 38, 87
3, 37424, Note_off_c, 9, 38, 0
3, 37442, Note_on_c, 9, 38, 109
3, 37455, Note_off_c, 9, 38, 0
3, 37473, Note_on_c, 9, 38, 92
3, 37487, Note_off_c, 9, 38, 0
3, 37505, Note_on_c, 9, 38, 117
3, 37518, Note_off_c, 9, 38, 0
3, 37538, Note_on_c, 9, 38, 119
3, 37555, Note_off_c, 9, 38, 0
3, 37569, Note_on_c, 9, 38, 118
3, 37581, Note_off_c, 9, 38, 0
3, 37601, Note_on_c, 9, 38, 107
3, 37623, Note_off_c, 9, 38, 0
3, 37730, Note_on_c, 9, 38, 108
3, 37761, Note_off_c, 9, 38, 0
3, 37923, Note_on_c, 9, 38, 116
3, 37950, Note_off_c, 9, 38, 0
3, 38114, Note_on_c, 9, 38, 115
3, 38138, Note_off_c, 9, 38, 0
3, 38306, Note_on_c, 9, 38, 114
3, 38332, Note_off_c, 9, 38, 0
3, 38500, Note_on_c, 9, 38, 111
3, 38525, Note_off_c, 9, 38, 0
3, 38691, Note_on_c, 9, 38, 119
3, 38718, Note_off_c, 9, 38, 0
3, 38883, Note_on_c, 9, 38, 117
3, 38908, Note_off_c, 9, 38, 0
3, 39041, Note_on_c, 9, 38, 105
3, 39061, Note_off_c, 9, 38, 0
3, 39075, Note_on_c, 9, 38, 115
3, 39099, Note_off_c, 9, 38, 0
3, 39268, Note_on_c, 9, 38, 117
3, 39292, Note_off_c, 9, 38, 0
3, 39458, Note_on_c, 9, 38, 115
3, 39485, Note_off_c, 9, 38, 0
3, 39650, Note_on_c, 9, 38, 113
3, 39684, Note_off_c, 9, 38, 0
3, 39810, Note_on_c, 9, 38, 110
3, 39827, Note_off_c, 9, 38, 0
3, 39842, Note_on_c, 9, 38, 115
3, 39868, Note_off_c, 9, 38, 0
3, 40034, Note_on_c, 9, 38, 113
3, 40064, Note_off_c, 9, 38, 0
3, 40226, Note_on_c, 9, 38, 113
3, 40255, Note_off_c, 9, 38, 0
3, 40418, Note_on_c, 9, 38, 109
3, 40447, Note_off_c, 9, 38, 0
3, 40578, Note_on_c, 9, 38, 93
3, 40589, Note_off_c, 9, 38, 0
3, 40610, Note_on_c, 9, 38, 108
3, 40635, Note_off_c, 9, 38, 0
3, 40804, Note_on_c, 9, 38, 122
3, 40828, Note_off_c, 9, 38, 0
3, 40994, Note_on_c, 9, 38, 117
3, 41021, Note_off_c, 9, 38, 0
3, 41186, Note_on_c, 9, 38, 113
3, 41212, Note_off_c, 9, 38, 0
3, 41345, Note_on_c, 9, 38, 109
3, 41363, Note_off_c, 9, 38, 0
3, 41378, Note_on_c, 9, 38, 113
3, 41404, Note_off_c, 9, 38, 0
3, 41538, Note_on_c, 9, 38, 125
3, 41555, Note_off_c, 9, 38, 0
3, 41571, Note_on_c, 9, 38, 116
3, 41595, Note_off_c, 9, 38, 0
3, 41668, Note_on_c, 9, 38, 126
3, 41683, Note_off_c, 9, 38, 0
3, 41729, Note_on_c, 9, 38, 120
3, 41747, Note_off_c, 9, 38, 0
3, 41762, Note_on_c, 9, 38, 83
3, 41783, Note_off_c, 9, 38, 0
3, 41827, Note_on_c, 9, 38, 117
3, 41841, Note_off_c, 9, 38, 0
3, 41858, Note_on_c, 9, 38, 110
3, 41873, Note_off_c, 9, 38, 0
3, 41890, Note_on_c, 9, 38, 88
3, 41905, Note_off_c, 9, 38, 0
3, 41923, Note_on_c, 9, 38, 95
3, 41937, Note_off_c, 9, 38, 0
3, 41954, Note_on_c, 9, 38, 117
3, 41967, Note_off_c, 9, 38, 0
3, 41986, Note_on_c, 9, 38, 89
3, 41996, Note_off_c, 9, 38, 0
3, 42019, Note_on_c, 9, 38, 88
3, 42032, Note_off_c, 9, 38, 0
3, 42052, Note_on_c, 9, 38, 113
3, 42064, Note_off_c, 9, 38, 0
3, 42082, Note_on_c, 9, 38, 91
3, 42096, Note_off_c, 9, 38, 0
3, 42114, Note_on_c, 9, 38, 110
3, 42127, Note_off_c, 9, 38, 0
3, 42148, Note_on_c, 9, 38, 105
3, 42164, Note_off_c, 9, 38, 0
3, 42177, Note_on_c, 9, 38, 109
3, 42190, Note_off_c, 9, 38, 0
3, 42210, Note_on_c, 9, 38, 113
3, 42232, Note_off_c, 9, 38, 0
3, 42340, Note_on_c, 9, 38, 105
3, 42370, Note_off_c, 9, 38, 0
3, 42531, Note_on_c, 9, 38, 112
3, 42558, Note_off_c, 9, 38, 0
3, 42723, Note_on_c, 9, 38, 114
3, 42746, Note_off_c, 9, 38, 0
3, 42913, Note_on_c, 9, 38, 114
3, 42939, Note_off_c, 9, 38, 0
3, 43108, Note_on_c, 9, 38, 109
3, 43133, Note_off_c, 9, 38, 0
3, 43298, Note_on_c, 9, 38, 115
3, 43325, Note_off_c, 9, 38, 0
3, 43492, Note_on_c, 9, 38, 113
3, 43516, Note_off_c, 9, 38, 0
3, 43651, Note_on_c, 9, 38, 102
3, 43670, Note_off_c, 9, 38, 0
3, 43683, Note_on_c, 9, 38, 110
3, 43707, Note_off_c, 9, 38, 0
3, 43874, Note_on_c, 9, 38, 109
3, 43898, Note_off_c, 9, 38, 0
3, 44066, Note_on_c, 9, 38, 120
3, 44094, Note_off_c, 9, 38, 0
3, 44260, Note_on_c, 9, 38, 118
3, 44293, Note_off_c, 9, 38, 0
3, 44419, Note_on_c, 9, 38, 109
3, 44435, Note_off_c, 9, 38, 0
3, 44450, Note_on_c, 9, 38, 114
3, 44476, Note_off_c, 9, 38, 0
3, 44644, Note_on_c, 9, 38, 114
3, 44672, Note_off_c, 9, 38, 0
3, 44834, Note_on_c, 9, 38, 120
3, 44862, Note_off_c, 9, 38, 0
3, 45027, Note_on_c, 9, 38, 111
3, 45054, Note_off_c, 9, 38, 0
3, 45186, Note_on_c, 9, 38, 89
3, 45196, Note_off_c, 9, 38, 0
3, 45218, Note_on_c, 9, 38, 105
3, 45243, Note_off_c, 9, 38, 0
3, 45410, Note_on_c, 9, 38, 117
3, 45434, Note_off_c, 9, 38, 0
3, 45602, Note_on_c, 9, 38, 116
3, 45629, Note_off_c, 9, 38, 0
3, 45796, Note_on_c, 9, 38, 112
3, 45821, Note_off_c, 9, 38, 0
3, 45953, Note_on_c, 9, 38, 99
3, 45970, Note_off_c, 9, 38, 0
3, 45986, Note_on_c, 9, 38, 111
3, 46012, Note_off_c, 9, 38, 0
3, 46654, Note_on_c, 9, 38, 127
3, 46680, Note_off_c, 9, 38, 0
3, 48004, Note_on_c, 9, 37, 90
3, 48026, Note_off_c, 9, 37, 0
3, 48066, Note_on_c, 9, 37, 63
3, 48089, Note_off_c, 9, 37, 0
3, 48098, Note_on_c, 9, 37, 86
3, 48121, Note_off_c, 9, 37, 0
3, 48162, Note_on_c, 9, 37, 64
3, 48186, Note_off_c, 9, 37, 0
3, 48195, Note_on_c, 9, 37, 80
3, 48218, Note_off_c, 9, 37, 0
3, 48256, Note_on_c, 9, 37, 66
3, 48280, Note_off_c, 9, 37, 0
3, 48290, Note_on_c, 9, 37, 84
3, 48313, Note_off_c, 9, 37, 0
3, 48353, Note_on_c, 9, 37, 70
3, 48377, Note_off_c, 9, 37, 0
3, 48387, Note_on_c, 9, 37, 85
3, 48409, Note_off_c, 9, 37, 0
3, 48450, Note_on_c, 9, 37, 66
3, 48474, Note_off_c, 9, 37, 0
3, 48483, Note_on_c, 9, 37, 84
3, 48505, Note_off_c, 9, 37, 0
3, 48547, Note_on_c, 9, 37, 69
3, 48569, Note_off_c, 9, 37, 0
3, 48578, Note_on_c, 9, 37, 92
3, 48601, Note_off_c, 9, 37, 0
3, 48641, Note_on_c, 9, 37, 68
3, 48665, Note_off_c, 9, 37, 0
3, 48675, Note_on_c, 9, 37, 90
3, 48698, Note_off_c, 9, 37, 0
3, 48738, Note_on_c, 9, 37, 64
3, 48762, Note_off_c, 9, 37, 0
3, 48771, Note_on_c, 9, 37, 89
3, 48794, Note_off_c, 9, 37, 0
3, 48834, Note_on_c, 9, 37, 63
3, 48857, Note_off_c, 9, 37, 0
3, 48867, Note_on_c, 9, 37, 85
3, 48889, Note_off_c, 9, 37, 0
3, 48930, Note_on_c, 9, 37, 62
3, 48954, Note_off_c, 9, 37, 0
3, 48962, Note_on_c, 9, 37, 81
3, 48985, Note_off_c, 9, 37, 0
3, 49025, Note_on_c, 9, 37, 67
3, 49049, Note_off_c, 9, 37, 0
3, 49059, Note_on_c, 9, 37, 82
3, 49082, Note_off_c, 9, 37, 0
3, 49122, Note_on_c, 9, 37, 63
3, 49146, Note_off_c, 9, 37, 0
3, 49155, Note_on_c, 9, 37, 80
3, 49176, Note_off_c, 9, 37, 0
3, 49218, Note_on_c, 9, 37, 69
3, 49242, Note_off_c, 9, 37, 0
3, 49251, Note_on_c, 9, 37, 87
3, 49274, Note_off_c, 9, 37, 0
3, 49315, Note_on_c, 9, 37, 66
3, 49337, Note_off_c, 9, 37, 0
3, 49346, Note_on_c, 9, 37, 85
3, 49369, Note_off_c, 9, 37, 0
3, 49410, Note_on_c, 9, 37, 64
3, 49433, Note_off_c, 9, 37, 0
3, 49444, Note_on_c, 9, 37, 84
3, 49466, Note_off_c, 9, 37, 0
3, 49506, Note_on_c, 9, 37, 71
3, 49530, Note_off_c, 9, 37, 0
3, 49539, Note_on_c, 9, 37, 86
3, 49562, Note_off_c, 9, 37, 0
3, 49603, Note_on_c, 9, 37, 63
3, 49626, Note_off_c, 9, 37, 0
3, 49634, Note_on_c, 9, 37, 85
3, 49657, Note_off_c, 9, 37, 0
3, 49698, Note_on_c, 9, 37, 69
3, 49721, Note_off_c, 9, 37, 0
3, 49731, Note_on_c, 9, 37, 86
3, 49753, Note_off_c, 9, 37, 0
3, 49794, Note_on_c, 9, 37, 70
3, 49818, Note_off_c, 9, 37, 0
3, 49827, Note_on_c, 9, 37, 82
3, 49850, Note_off_c, 9, 37, 0
3, 49889, Note_on_c, 9, 37, 68
3, 49913, Note_off_c, 9, 37, 0
3, 49923, Note_on_c, 9, 37, 81
3, 49945, Note_off_c, 9, 37, 0
3, 49985, Note_on_c, 9, 37, 64
3, 50009, Note_off_c, 9, 37, 0
3, 50019, Note_on_c, 9, 37, 88
3, 50041, Note_off_c, 9, 37, 0
3, 50084, Note_on_c, 9, 37, 67
3, 50106, Note_off_c, 9, 37, 0
3, 50115, Note_on_c, 9, 37, 82
3, 50138, Note_off_c, 9, 37, 0
3, 50178, Note_on_c, 9, 37, 66
3, 50202, Note_off_c, 9, 37, 0
3, 50210, Note_on_c, 9, 37, 92
3, 50233, Note_off_c, 9, 37, 0
3, 50275, Note_on_c, 9, 37, 64
3, 50298, Note_off_c, 9, 37, 0
3, 50306, Note_on_c, 9, 37, 85
3, 50329, Note_off_c, 9, 37, 0
3, 50371, Note_on_c, 9, 37, 67
3, 50394, Note_off_c, 9, 37, 0
3, 50404, Note_on_c, 9, 37, 86
3, 50426, Note_off_c, 9, 37, 0
3, 50465, Note_on_c, 9, 37, 67
3, 50489, Note_off_c, 9, 37, 0
3, 50500, Note_on_c, 9, 37, 84
3, 50522, Note_off_c, 9, 37, 0
3, 50561, Note_on_c, 9, 37, 69
3, 50585, Note_off_c, 9, 37, 0
3, 50595, Note_on_c, 9, 37, 88
3, 50618, Note_off_c, 9, 37, 0
3, 50657, Note_on_c, 9, 37, 63
3, 50680, Note_off_c, 9, 37, 0
3, 50692, Note_on_c, 9, 37, 89
3, 50714, Note_off_c, 9, 37, 0
3, 50754, Note_on_c, 9, 37, 61
3, 50778, Note_off_c, 9, 37, 0
3, 50786, Note_on_c, 9, 37, 89
3, 50809, Note_off_c, 9, 37, 0
3, 50851, Note_on_c, 9, 37, 65
3, 50873, Note_off_c, 9, 37, 0
3, 50883, Note_on_c, 9, 37, 86
3, 50906, Note_off_c, 9, 37, 0
3, 50947, Note_on_c, 9, 37, 65
3, 50970, Note_off_c, 9, 37, 0
3, 50979, Note_on_c, 9, 37, 88
3, 51002, Note_off_c, 9, 37, 0
3, 51042, Note_on_c, 9, 37, 67
3, 51065, Note_off_c, 9, 37, 0
3, 51074, Note_on_c, 9, 37, 86
3, 51097, Note_off_c, 9, 37, 0
3, 51139, Note_on_c, 9, 37, 66
3, 51162, Note_off_c, 9, 37, 0
3, 51170, Note_on_c, 9, 37, 88
3, 51193, Note_off_c, 9, 37, 0
3, 51233, Note_on_c, 9, 37, 66
3, 51257, Note_off_c, 9, 37, 0
3, 51268, Note_on_c, 9, 37, 89
3, 51290, Note_off_c, 9, 37, 0
3, 51330, Note_on_c, 9, 37, 65
3, 51354, Note_off_c, 9, 37, 0
3, 51362, Note_on_c, 9, 37, 86
3, 51385, Note_off_c, 9, 37, 0
3, 51425, Note_on_c, 9, 37, 64
3, 51449, Note_off_c, 9, 37, 0
3, 51460, Note_on_c, 9, 37, 86
3, 51482, Note_off_c, 9, 37, 0
3, 51522, Note_on_c, 9, 37, 64
3, 51545, Note_off_c, 9, 37, 0
3, 51554, Note_on_c, 9, 37, 85
3, 51577, Note_off_c, 9, 37, 0
3, 51619, Note_on_c, 9, 37, 67
3, 51641, Note_off_c, 9, 37, 0
3, 51650, Note_on_c, 9, 37, 83
3, 51673, Note_off_c, 9, 37, 0
3, 51714, Note_on_c, 9, 37, 67
3, 51737, Note_off_c, 9, 37, 0
3, 51747, Note_on_c, 9, 37, 81
3, 51769, Note_off_c, 9, 37, 0
3, 51809, Note_on_c, 9, 37, 65
3, 51833, Note_off_c, 9, 37, 0
3, 51841, Note_on_c, 9, 37, 81
3, 51865, Note_off_c, 9, 37, 0
3, 51907, Note_on_c, 9, 37, 64
3, 51930, Note_off_c, 9, 37, 0
3, 51938, Note_on_c, 9, 37, 88
3, 51961, Note_off_c, 9, 37, 0
3, 52002, Note_on_c, 9, 37, 62
3, 52025, Note_off_c, 9, 37, 0
3, 52036, Note_on_c, 9, 37, 90
3, 52058, Note_off_c, 9, 37, 0
3, 52098, Note_on_c, 9, 37, 65
3, 52122, Note_off_c, 9, 37, 0
3, 52131, Note_on_c, 9, 37, 85
3, 52153, Note_off_c, 9, 37, 0
3, 52195, Note_on_c, 9, 37, 65
3, 52218, Note_off_c, 9, 37, 0
3, 52218, End_track
4, 0, Start_track
4, 0, Text_t, "rimshot "
4, 0, Channel_prefix, 9
4, 384, Note_on_c, 9, 37, 51
4, 441, Note_off_c, 9, 37, 0
4, 576, Note_on_c, 9, 37, 31
4, 629, Note_off_c, 9, 37, 0
4, 768, Note_on_c, 9, 37, 36
4, 817, Note_off_c, 9, 37, 0
4, 960, Note_on_c, 9, 37, 31
4, 1010, Note_off_c, 9, 37, 0
4, 4612, Note_on_c, 9, 37, 92
4, 4634, Note_off_c, 9, 37, 0
4, 4674, Note_on_c, 9, 37, 64
4, 4697, Note_off_c, 9, 37, 0
4, 4706, Note_on_c, 9, 37, 86
4, 4729, Note_off_c, 9, 37, 0
4, 4770, Note_on_c, 9, 37, 66
4, 4794, Note_off_c, 9, 37, 0
4, 4803, Note_on_c, 9, 37, 84
4, 4826, Note_off_c, 9, 37, 0
4, 4864, Note_on_c, 9, 37, 64
4, 4888, Note_off_c, 9, 37, 0
4, 4898, Note_on_c, 9, 37, 82
4, 4921, Note_off_c, 9, 37, 0
4, 4961, Note_on_c, 9, 37, 71
4, 4985, Note_off_c, 9, 37, 0
4, 4995, Note_on_c, 9, 37, 89
4, 5017, Note_off_c, 9, 37, 0
4, 5058, Note_on_c, 9, 37, 66
4, 5082, Note_off_c, 9, 37, 0
4, 5091, Note_on_c, 9, 37, 83
4, 5113, Note_off_c, 9, 37, 0
4, 5155, Note_on_c, 9, 37, 67
4, 5177, Note_off_c, 9, 37, 0
4, 5186, Note_on_c, 9, 37, 88
4, 5209, Note_off_c, 9, 37, 0
4, 5249, Note_on_c, 9, 37, 66
4, 5273, Note_off_c, 9, 37, 0
4, 5283, Note_on_c, 9, 37, 89
4, 5306, Note_off_c, 9, 37, 0
4, 5346, Note_on_c, 9, 37, 66
4, 5370, Note_off_c, 9, 37, 0
4, 5379, Note_on_c, 9, 37, 88
4, 5402, Note_off_c, 9, 37, 0
4, 5442, Note_on_c, 9, 37, 63
4, 5465, Note_off_c, 9, 37, 0
4, 5475, Note_on_c, 9, 37, 85
4, 5497, Note_off_c, 9, 37, 0
4, 5538, Note_on_c, 9, 37, 60
4, 5562, Note_off_c, 9, 37, 0
4, 5570, Note_on_c, 9, 37, 85
4, 5593, Note_off_c, 9, 37, 0
4, 5633, Note_on_c, 9, 37, 69
4, 5657, Note_off_c, 9, 37, 0
4, 5667, Note_on_c, 9, 37, 81
4, 5690, Note_off_c, 9, 37, 0
4, 5730, Note_on_c, 9, 37, 64
4, 5754, Note_off_c, 9, 37, 0
4, 5763, Note_on_c, 9, 37, 83
4, 5784, Note_off_c, 9, 37, 0
4, 5826, Note_on_c, 9, 37, 66
4, 5850, Note_off_c, 9, 37, 0
4, 5859, Note_on_c, 9, 37, 89
4, 5882, Note_off_c, 9, 37, 0
4, 5923, Note_on_c, 9, 37, 65
4, 5945, Note_off_c, 9, 37, 0
4, 5954, Note_on_c, 9, 37, 88
4, 5977, Note_off_c, 9, 37, 0
4, 6018, Note_on_c, 9, 37, 65
4, 6041, Note_off_c, 9, 37, 0
4, 6052, Note_on_c, 9, 37, 83
4, 6074, Note_off_c, 9, 37, 0
4, 6114, Note_on_c, 9, 37, 69
4, 6138, Note_off_c, 9, 37, 0
4, 6147, Note_on_c, 9, 37, 83
4, 6170, Note_off_c, 9, 37, 0
4, 6211, Note_on_c, 9, 37, 63
4, 6234, Note_off_c, 9, 37, 0
4, 6242, Note_on_c, 9, 37, 87
4, 6265, Note_off_c, 9, 37, 0
4, 6306, Note_on_c, 9, 37, 70
4, 6329, Note_off_c, 9, 37, 0
4, 6339, Note_on_c, 9, 37, 84
4, 6361, Note_off_c, 9, 37, 0
4, 6402, Note_on_c, 9, 37, 68
4, 6426, Note_off_c, 9, 37, 0
4, 6435, Note_on_c, 9, 37, 81
4, 6458, Note_off_c, 9, 37, 0
4, 6497, Note_on_c, 9, 37, 66
4, 6521, Note_off_c, 9, 37, 0
4, 6531, Note_on_c, 9, 37, 84
4, 6553, Note_off_c, 9, 37, 0
4, 6593, Note_on_c, 9, 37, 65
4, 6617, Note_off_c, 9, 37, 0
4, 6627, Note_on_c, 9, 37, 84
4, 6649, Note_off_c, 9, 37, 0
4, 6692, Note_on_c, 9, 37, 65
4, 6714, Note_off_c, 9, 37, 0
4, 6723, Note_on_c, 9, 37, 82
4, 6746, Note_off_c, 9, 37, 0
4, 6786, Note_on_c, 9, 37, 66
4, 6810, Note_off_c, 9, 37, 0
4, 6818, Note_on_c, 9, 37, 90
4, 6841, Note_off_c, 9, 37, 0
4, 6883, Note_on_c, 9, 37, 64
4, 6906, Note_off_c, 9, 37, 0
4, 6914, Note_on_c, 9, 37, 88
4, 6937, Note_off_c, 9, 37, 0
4, 6979, Note_on_c, 9, 37, 65
4, 7002, Note_off_c, 9, 37, 0
4, 7012, Note_on_c, 9, 37, 87
4, 7034, Note_off_c, 9, 37, 0
4, 7073, Note_on_c, 9, 37, 68
4, 7097, Note_off_c, 9, 37, 0
4, 7108, Note_on_c, 9, 37, 81
4, 7130, Note_off_c, 9, 37, 0
4, 7169, Note_on_c, 9, 37, 71
4, 7193, Note_off_c, 9, 37, 0
4, 7203, Note_on_c, 9, 37, 91
4, 7226, Note_off_c, 9, 37, 0
4, 7265, Note_on_c, 9, 37, 64
4, 7288, Note_off_c, 9, 37, 0
4, 7300, Note_on_c, 9, 37, 90
4, 7322, Note_off_c, 9, 37, 0
4, 7362, Note_on_c, 9, 37, 64
4, 7386, Note_off_c, 9, 37, 0
4, 7394, Note_on_c, 9, 37, 87
4, 7417, Note_off_c, 9, 37, 0
4, 7459, Note_on_c, 9, 37, 64
4, 7481, Note_off_c, 9, 37, 0
4, 7491, Note_on_c, 9, 37, 81
4, 7514, Note_off_c, 9, 37, 0
4, 7555, Note_on_c, 9, 37, 67
4, 7578, Note_off_c, 9, 37, 0
4, 7587, Note_on_c, 9, 37, 85
4, 7610, Note_off_c, 9, 37, 0
4, 7650, Note_on_c, 9, 37, 68
4, 7673, Note_off_c, 9, 37, 0
4, 7682, Note_on_c, 9, 37, 85
4, 7705, Note_off_c, 9, 37, 0
4, 7747, Note_on_c, 9, 37, 64
4, 7770, Note_off_c, 9, 37, 0
4, 7778, Note_on_c, 9, 37, 86
4, 7801, Note_off_c, 9, 37, 0
4, 7841, Note_on_c, 9, 37, 64
4, 7865, Note_off_c, 9, 37, 0
4, 7876, Note_on_c, 9, 37, 89
4, 7898, Note_off_c, 9, 37, 0
4, 7938, Note_on_c, 9, 37, 67
4, 7962, Note_off_c, 9, 37, 0
4, 7970, Note_on_c, 9, 37, 87
4, 7993, Note_off_c, 9, 37, 0
4, 8033, Note_on_c, 9, 37, 66
4, 8057, Note_off_c, 9, 37, 0
4, 8068, Note_on_c, 9, 37, 86
4, 8090, Note_off_c, 9, 37, 0
4, 8130, Note_on_c, 9, 37, 64
4, 8153, Note_off_c, 9, 37, 0
4, 8162, Note_on_c, 9, 37, 85
4, 8185, Note_off_c, 9, 37, 0
4, 8227, Note_on_c, 9, 37, 69
4, 8249, Note_off_c, 9, 37, 0
4, 8258, Note_on_c, 9, 37, 83
4, 8281, Note_off_c, 9, 37, 0
4, 8322, Note_on_c, 9, 37, 68
4, 8345, Note_off_c, 9, 37, 0
4, 8355, Note_on_c, 9, 37, 81
4, 8377, Note_off_c, 9, 37, 0
4, 8417, Note_on_c, 9, 37, 62
4, 8441, Note_off_c, 9, 37, 0
4, 8449, Note_on_c, 9, 37, 80
4, 8473, Note_off_c, 9, 37, 0
4, 8515, Note_on_c, 9, 37, 64
4, 8538, Note_off_c, 9, 37, 0
4, 8546, Note_on_c, 9, 37, 88
4, 8569, Note_off_c, 9, 37, 0
4, 8610, Note_on_c, 9, 37, 62
4, 8633, Note_off_c, 9, 37, 0
4, 8644, Note_on_c, 9, 37, 88
4, 8666, Note_off_c, 9, 37, 0
4, 8706, Note_on_c, 9, 37, 64
4, 8730, Note_off_c, 9, 37, 0
4, 8739, Note_on_c, 9, 37, 84
4, 8761, Note_off_c, 9, 37, 0
4, 8803, Note_on_c, 9, 37, 65
4, 8826, Note_off_c, 9, 37, 0
4, 8834, Note_on_c, 9, 37, 88
4, 8857, Note_off_c, 9, 37, 0
4, 8899, Note_on_c, 9, 37, 71
4, 8922, Note_off_c, 9, 37, 0
4, 8931, Note_on_c, 9, 37, 89
4, 8954, Note_off_c, 9, 37, 0
4, 8996, Note_on_c, 9, 37, 68
4, 9018, Note_off_c, 9, 37, 0
4, 9026, Note_on_c, 9, 37, 86
4, 9049, Note_off_c, 9, 37, 0
4, 9090, Note_on_c, 9, 37, 66
4, 9114, Note_off_c, 9, 37, 0
4, 9123, Note_on_c, 9, 37, 86
4, 9145, Note_off_c, 9, 37, 0
4, 9186, Note_on_c, 9, 37, 62
4, 9210, Note_off_c, 9, 37, 0
4, 9219, Note_on_c, 9, 37, 87
4, 9242, Note_off_c, 9, 37, 0
4, 9283, Note_on_c, 9, 37, 70
4, 9306, Note_off_c, 9, 37, 0
4, 9315, Note_on_c, 9, 37, 84
4, 9338, Note_off_c, 9, 37, 0
4, 9377, Note_on_c, 9, 37, 63
4, 9401, Note_off_c, 9, 37, 0
4, 9412, Note_on_c, 9, 37, 83
4, 9434, Note_off_c, 9, 37, 0
4, 9473, Note_on_c, 9, 37, 67
4, 9497, Note_off_c, 9, 37, 0
4, 9507, Note_on_c, 9, 37, 82
4, 9530, Note_off_c, 9, 37, 0
4, 9569, Note_on_c, 9, 37, 72
4, 9593, Note_off_c, 9, 37, 0
4, 9604, Note_on_c, 9, 37, 87
4, 9626, Note_off_c, 9, 37, 0
4, 9666, Note_on_c, 9, 37, 69
4, 9690, Note_off_c, 9, 37, 0
4, 9699, Note_on_c, 9, 37, 88
4, 9721, Note_off_c, 9, 37, 0
4, 9764, Note_on_c, 9, 37, 65
4, 9786, Note_off_c, 9, 37, 0
4, 9794, Note_on_c, 9, 37, 83
4, 9818, Note_off_c, 9, 37, 0
4, 9857, Note_on_c, 9, 37, 68
4, 9881, Note_off_c, 9, 37, 0
4, 9891, Note_on_c, 9, 37, 84
4, 9914, Note_off_c, 9, 37, 0
4, 9954, Note_on_c, 9, 37, 66
4, 9978, Note_off_c, 9, 37, 0
4, 9987, Note_on_c, 9, 37, 84
4, 10010, Note_off_c, 9, 37, 0
4, 10050, Note_on_c, 9, 37, 68
4, 10073, Note_off_c, 9, 37, 0
4, 10082, Note_on_c, 9, 37, 87
4, 10105, Note_off_c, 9, 37, 0
4, 10146, Note_on_c, 9, 37, 66
4, 10170, Note_off_c, 9, 37, 0
4, 10178, Note_on_c, 9, 37, 86
4, 10201, Note_off_c, 9, 37, 0
4, 10241, Note_on_c, 9, 37, 71
4, 10265, Note_off_c, 9, 37, 0
4, 10275, Note_on_c, 9, 37, 90
4, 10297, Note_off_c, 9, 37, 0
4, 10338, Note_on_c, 9, 37, 62
4, 10362, Note_off_c, 9, 37, 0
4, 10372, Note_on_c, 9, 37, 88
4, 10394, Note_off_c, 9, 37, 0
4, 10433, Note_on_c, 9, 37, 69
4, 10457, Note_off_c, 9, 37, 0
4, 10468, Note_on_c, 9, 37, 89
4, 10490, Note_off_c, 9, 37, 0
4, 10532, Note_on_c, 9, 37, 67
4, 10554, Note_off_c, 9, 37, 0
4, 10562, Note_on_c, 9, 37, 81
4, 10585, Note_off_c, 9, 37, 0
4, 10627, Note_on_c, 9, 37, 65
4, 10650, Note_off_c, 9, 37, 0
4, 10660, Note_on_c, 9, 37, 86
4, 10682, Note_off_c, 9, 37, 0
4, 10722, Note_on_c, 9, 37, 70
4, 10746, Note_off_c, 9, 37, 0
4, 10755, Note_on_c, 9, 37, 86
4, 10778, Note_off_c, 9, 37, 0
4, 10819, Note_on_c, 9, 37, 73
4, 10842, Note_off_c, 9, 37, 0
4, 10850, Note_on_c, 9, 37, 85
4, 10873, Note_off_c, 9, 37, 0
4, 10913, Note_on_c, 9, 37, 68
4, 10936, Note_off_c, 9, 37, 0
4, 10947, Note_on_c, 9, 37, 84
4, 10969, Note_off_c, 9, 37, 0
4, 11009, Note_on_c, 9, 37, 63
4, 11033, Note_off_c, 9, 37, 0
4, 11042, Note_on_c, 9, 37, 89
4, 11065, Note_off_c, 9, 37, 0
4, 11105, Note_on_c, 9, 37, 69
4, 11129, Note_off_c, 9, 37, 0
4, 11139, Note_on_c, 9, 37, 90
4, 11161, Note_off_c, 9, 37, 0
4, 11202, Note_on_c, 9, 37, 65
4, 11226, Note_off_c, 9, 37, 0
4, 11234, Note_on_c, 9, 37, 84
4, 11257, Note_off_c, 9, 37, 0
4, 11299, Note_on_c, 9, 37, 64
4, 11321, Note_off_c, 9, 37, 0
4, 11330, Note_on_c, 9, 37, 82
4, 11353, Note_off_c, 9, 37, 0
4, 11394, Note_on_c, 9, 37, 70
4, 11418, Note_off_c, 9, 37, 0
4, 11427, Note_on_c, 9, 37, 81
4, 11450, Note_off_c, 9, 37, 0
4, 11491, Note_on_c, 9, 37, 66
4, 11514, Note_off_c, 9, 37, 0
4, 11522, Note_on_c, 9, 37, 88
4, 11546, Note_off_c, 9, 37, 0
4, 11586, Note_on_c, 9, 37, 63
4, 11609, Note_off_c, 9, 37, 0
4, 11618, Note_on_c, 9, 37, 85
4, 11640, Note_off_c, 9, 37, 0
4, 11683, Note_on_c, 9, 37, 71
4, 11707, Note_off_c, 9, 37, 0
4, 11715, Note_on_c, 9, 37, 86
4, 11738, Note_off_c, 9, 37, 0
4, 11777, Note_on_c, 9, 37, 65
4, 11801, Note_off_c, 9, 37, 0
4, 11810, Note_on_c, 9, 37, 85
4, 11832, Note_off_c, 9, 37, 0
4, 11873, Note_on_c, 9, 37, 64
4, 11897, Note_off_c, 9, 37, 0
4, 11908, Note_on_c, 9, 37, 81
4, 11930, Note_off_c, 9, 37, 0
4, 11969, Note_on_c, 9, 37, 63
4, 11993, Note_off_c, 9, 37, 0
4, 12002, Note_on_c, 9, 37, 87
4, 12024, Note_off_c, 9, 37, 0
4, 12068, Note_on_c, 9, 37, 68
4, 12090, Note_off_c, 9, 37, 0
4, 12098, Note_on_c, 9, 37, 88
4, 12122, Note_off_c, 9, 37, 0
4, 12162, Note_on_c, 9, 37, 70
4, 12186, Note_off_c, 9, 37, 0
4, 12194, Note_on_c, 9, 37, 84
4, 12217, Note_off_c, 9, 37, 0
4, 12258, Note_on_c, 9, 37, 70
4, 12282, Note_off_c, 9, 37, 0
4, 12290, Note_on_c, 9, 37, 83
4, 12313, Note_off_c, 9, 37, 0
4, 12355, Note_on_c, 9, 37, 65
4, 12377, Note_off_c, 9, 37, 0
4, 12387, Note_on_c, 9, 37, 92
4, 12410, Note_off_c, 9, 37, 0
4, 12449, Note_on_c, 9, 37, 63
4, 12473, Note_off_c, 9, 37, 0
4, 12483, Note_on_c, 9, 37, 87
4, 12505, Note_off_c, 9, 37, 0
4, 12545, Note_on_c, 9, 37, 69
4, 12569, Note_off_c, 9, 37, 0
4, 12578, Note_on_c, 9, 37, 90
4, 12600, Note_off_c, 9, 37, 0
4, 12641, Note_on_c, 9, 37, 72
4, 12665, Note_off_c, 9, 37, 0
4, 12675, Note_on_c, 9, 37, 92
4, 12697, Note_off_c, 9, 37, 0
4, 12738, Note_on_c, 9, 37, 66
4, 12762, Note_off_c, 9, 37, 0
4, 12771, Note_on_c, 9, 37, 88
4, 12794, Note_off_c, 9, 37, 0
4, 12836, Note_on_c, 9, 37, 64
4, 12858, Note_off_c, 9, 37, 0
4, 12866, Note_on_c, 9, 37, 92
4, 12890, Note_off_c, 9, 37, 0
4, 12930, Note_on_c, 9, 37, 68
4, 12954, Note_off_c, 9, 37, 0
4, 12963, Note_on_c, 9, 37, 89
4, 12985, Note_off_c, 9, 37, 0
4, 13026, Note_on_c, 9, 37, 70
4, 13049, Note_off_c, 9, 37, 0
4, 13057, Note_on_c, 9, 37, 86
4, 13081, Note_off_c, 9, 37, 0
4, 13123, Note_on_c, 9, 37, 64
4, 13146, Note_off_c, 9, 37, 0
4, 13155, Note_on_c, 9, 37, 81
4, 13178, Note_off_c, 9, 37, 0
4, 13218, Note_on_c, 9, 37, 68
4, 13242, Note_off_c, 9, 37, 0
4, 13251, Note_on_c, 9, 37, 88
4, 13273, Note_off_c, 9, 37, 0
4, 13314, Note_on_c, 9, 37, 69
4, 13338, Note_off_c, 9, 37, 0
4, 13347, Note_on_c, 9, 37, 87
4, 13370, Note_off_c, 9, 37, 0
4, 13411, Note_on_c, 9, 37, 66
4, 13434, Note_off_c, 9, 37, 0
4, 13444, Note_on_c, 9, 37, 86
4, 13466, Note_off_c, 9, 37, 0
4, 13506, Note_on_c, 9, 37, 62
4, 13530, Note_off_c, 9, 37, 0
4, 13538, Note_on_c, 9, 37, 88
4, 13561, Note_off_c, 9, 37, 0
4, 13603, Note_on_c, 9, 37, 65
4, 13625, Note_off_c, 9, 37, 0
4, 13634, Note_on_c, 9, 37, 87
4, 13657, Note_off_c, 9, 37, 0
4, 13698, Note_on_c, 9, 37, 71
4, 13722, Note_off_c, 9, 37, 0
4, 13731, Note_on_c, 9, 37, 81
4, 13754, Note_off_c, 9, 37, 0
4, 13795, Note_on_c, 9, 37, 66
4, 13818, Note_off_c, 9, 37, 0
4, 13828, Note_on_c, 9, 37, 88
4, 13851, Note_off_c, 9, 37, 0
4, 13889, Note_on_c, 9, 37, 68
4, 13913, Note_off_c, 9, 37, 0
4, 13924, Note_on_c, 9, 37, 85
4, 13946, Note_off_c, 9, 37, 0
4, 13986, Note_on_c, 9, 37, 64
4, 14010, Note_off_c, 9, 37, 0
4, 14020, Note_on_c, 9, 37, 84
4, 14042, Note_off_c, 9, 37, 0
4, 14081, Note_on_c, 9, 37, 62
4, 14105, Note_off_c, 9, 37, 0
4, 14114, Note_on_c, 9, 37, 85
4, 14137, Note_off_c, 9, 37, 0
4, 14178, Note_on_c, 9, 37, 66
4, 14202, Note_off_c, 9, 37, 0
4, 14211, Note_on_c, 9, 37, 87
4, 14233, Note_off_c, 9, 37, 0
4, 14273, Note_on_c, 9, 37, 64
4, 14297, Note_off_c, 9, 37, 0
4, 14306, Note_on_c, 9, 37, 86
4, 14329, Note_off_c, 9, 37, 0
4, 14370, Note_on_c, 9, 37, 62
4, 14393, Note_off_c, 9, 37, 0
4, 14403, Note_on_c, 9, 37, 87
4, 14426, Note_off_c, 9, 37, 0
4, 14466, Note_on_c, 9, 37, 67
4, 14490, Note_off_c, 9, 37, 0
4, 14498, Note_on_c, 9, 37, 87
4, 14521, Note_off_c, 9, 37, 0
4, 14561, Note_on_c, 9, 37, 67
4, 14585, Note_off_c, 9, 37, 0
4, 14595, Note_on_c, 9, 37, 85
4, 14618, Note_off_c, 9, 37, 0
4, 14657, Note_on_c, 9, 37, 69
4, 14681, Note_off_c, 9, 37, 0
4, 14691, Note_on_c, 9, 37, 88
4, 14714, Note_off_c, 9, 37, 0
4, 14755, Note_on_c, 9, 37, 65
4, 14778, Note_off_c, 9, 37, 0
4, 14786, Note_on_c, 9, 37, 80
4, 14809, Note_off_c, 9, 37, 0
4, 14849, Note_on_c, 9, 37, 69
4, 14873, Note_off_c, 9, 37, 0
4, 14882, Note_on_c, 9, 37, 87
4, 14905, Note_off_c, 9, 37, 0
4, 14945, Note_on_c, 9, 37, 61
4, 14969, Note_off_c, 9, 37, 0
4, 14979, Note_on_c, 9, 37, 90
4, 15002, Note_off_c, 9, 37, 0
4, 15042, Note_on_c, 9, 37, 66
4, 15065, Note_off_c, 9, 37, 0
4, 15076, Note_on_c, 9, 37, 88
4, 15099, Note_off_c, 9, 37, 0
4, 15138, Note_on_c, 9, 37, 66
4, 15161, Note_off_c, 9, 37, 0
4, 15170, Note_on_c, 9, 37, 86
4, 15193, Note_off_c, 9, 37, 0
4, 15235, Note_on_c, 9, 37, 62
4, 15258, Note_off_c, 9, 37, 0
4, 15267, Note_on_c, 9, 37, 89
4, 15290, Note_off_c, 9, 37, 0
4, 15330, Note_on_c, 9, 37, 62
4, 15353, Note_off_c, 9, 37, 0
4, 15363, Note_on_c, 9, 37, 83
4, 15385, Note_off_c, 9, 37, 0
4, 15427, Note_on_c, 9, 37, 71
4, 15450, Note_off_c, 9, 37, 0
4, 15458, Note_on_c, 9, 37, 90
4, 15481, Note_off_c, 9, 37, 0
4, 15521, Note_on_c, 9, 37, 62
4, 15545, Note_off_c, 9, 37, 0
4, 15556, Note_on_c, 9, 37, 80
4, 15578, Note_off_c, 9, 37, 0
4, 15618, Note_on_c, 9, 37, 69
4, 15642, Note_off_c, 9, 37, 0
4, 15650, Note_on_c, 9, 37, 82
4, 15673, Note_off_c, 9, 37, 0
4, 15714, Note_on_c, 9, 37, 65
4, 15737, Note_off_c, 9, 37, 0
4, 15746, Note_on_c, 9, 37, 86
4, 15769, Note_off_c, 9, 37, 0
4, 15809, Note_on_c, 9, 37, 62
4, 15833, Note_off_c, 9, 37, 0
4, 15843, Note_on_c, 9, 37, 92
4, 15866, Note_off_c, 9, 37, 0
4, 15906, Note_on_c, 9, 37, 63
4, 15930, Note_off_c, 9, 37, 0
4, 15939, Note_on_c, 9, 37, 80
4, 15961, Note_off_c, 9, 37, 0
4, 16002, Note_on_c, 9, 37, 66
4, 16025, Note_off_c, 9, 37, 0
4, 16035, Note_on_c, 9, 37, 91
4, 16058, Note_off_c, 9, 37, 0
4, 16097, Note_on_c, 9, 37, 68
4, 16121, Note_off_c, 9, 37, 0
4, 16129, Note_on_c, 9, 37, 83
4, 16153, Note_off_c, 9, 37, 0
4, 16193, Note_on_c, 9, 37, 66
4, 16217, Note_off_c, 9, 37, 0
4, 16226, Note_on_c, 9, 37, 90
4, 16249, Note_off_c, 9, 37, 0
4, 16290, Note_on_c, 9, 37, 71
4, 16313, Note_off_c, 9, 37, 0
4, 16324, Note_on_c, 9, 37, 84
4, 16346, Note_off_c, 9, 37, 0
4, 16386, Note_on_c, 9, 37, 69
4, 16410, Note_off_c, 9, 37, 0
4, 16418, Note_on_c, 9, 37, 86
4, 16441, Note_off_c, 9, 37, 0
4, 16483, Note_on_c, 9, 37, 65
4, 16506, Note_off_c, 9, 37, 0
4, 16514, Note_on_c, 9, 37, 83
4, 16538, Note_off_c, 9, 37, 0
4, 16577, Note_on_c, 9, 37, 63
4, 16601, Note_off_c, 9, 37, 0
4, 16612, Note_on_c, 9, 37, 90
4, 16634, Note_off_c, 9, 37, 0
4, 16674, Note_on_c, 9, 37, 68
4, 16698, Note_off_c, 9, 37, 0
4, 16707, Note_on_c, 9, 37, 87
4, 16730, Note_off_c, 9, 37, 0
4, 16770, Note_on_c, 9, 37, 69
4, 16794, Note_off_c, 9, 37, 0
4, 16803, Note_on_c, 9, 37, 81
4, 16826, Note_off_c, 9, 37, 0
4, 16865, Note_on_c, 9, 37, 64
4, 16889, Note_off_c, 9, 37, 0
4, 16899, Note_on_c, 9, 37, 89
4, 16922, Note_off_c, 9, 37, 0
4, 16963, Note_on_c, 9, 37, 66
4, 16986, Note_off_c, 9, 37, 0
4, 16994, Note_on_c, 9, 37, 83
4, 17017, Note_off_c, 9, 37, 0
4, 17058, Note_on_c, 9, 37, 69
4, 17082, Note_off_c, 9, 37, 0
4, 17090, Note_on_c, 9, 37, 88
4, 17113, Note_off_c, 9, 37, 0
4, 17153, Note_on_c, 9, 37, 68
4, 17177, Note_off_c, 9, 37, 0
4, 17187, Note_on_c, 9, 37, 82
4, 17210, Note_off_c, 9, 37, 0
4, 17251, Note_on_c, 9, 37, 69
4, 17274, Note_off_c, 9, 37, 0
4, 17281, Note_on_c, 9, 37, 83
4, 17305, Note_off_c, 9, 37, 0
4, 17345, Note_on_c, 9, 37, 65
4, 17369, Note_off_c, 9, 37, 0
4, 17380, Note_on_c, 9, 37, 81
4, 17402, Note_off_c, 9, 37, 0
4, 17443, Note_on_c, 9, 37, 71
4, 17466, Note_off_c, 9, 37, 0
4, 17474, Note_on_c, 9, 37, 84
4, 17496, Note_off_c, 9, 37, 0
4, 17538, Note_on_c, 9, 37, 71
4, 17561, Note_off_c, 9, 37, 0
4, 17570, Note_on_c, 9, 37, 86
4, 17593, Note_off_c, 9, 37, 0
4, 17634, Note_on_c, 9, 37, 69
4, 17658, Note_off_c, 9, 37, 0
4, 17666, Note_on_c, 9, 37, 83
4, 17689, Note_off_c, 9, 37, 0
4, 17730, Note_on_c, 9, 37, 68
4, 17753, Note_off_c, 9, 37, 0
4, 17763, Note_on_c, 9, 37, 85
4, 17785, Note_off_c, 9, 37, 0
4, 17825, Note_on_c, 9, 37, 69
4, 17849, Note_off_c, 9, 37, 0
4, 17859, Note_on_c, 9, 37, 87
4, 17881, Note_off_c, 9, 37, 0
4, 17921, Note_on_c, 9, 37, 66
4, 17945, Note_off_c, 9, 37, 0
4, 17955, Note_on_c, 9, 37, 89
4, 17978, Note_off_c, 9, 37, 0
4, 18019, Note_on_c, 9, 37, 69
4, 18041, Note_off_c, 9, 37, 0
4, 18050, Note_on_c, 9, 37, 84
4, 18073, Note_off_c, 9, 37, 0
4, 18115, Note_on_c, 9, 37, 64
4, 18138, Note_off_c, 9, 37, 0
4, 18147, Note_on_c, 9, 37, 81
4, 18169, Note_off_c, 9, 37, 0
4, 18210, Note_on_c, 9, 37, 61
4, 18233, Note_off_c, 9, 37, 0
4, 18243, Note_on_c, 9, 37, 87
4, 18266, Note_off_c, 9, 37, 0
4, 18307, Note_on_c, 9, 37, 66
4, 18330, Note_off_c, 9, 37, 0
4, 18339, Note_on_c, 9, 37, 86
4, 18362, Note_off_c, 9, 37, 0
4, 18402, Note_on_c, 9, 37, 71
4, 18425, Note_off_c, 9, 37, 0
4, 18436, Note_on_c, 9, 37, 84
4, 18458, Note_off_c, 9, 37, 0
4, 18499, Note_on_c, 9, 37, 61
4, 18522, Note_off_c, 9, 37, 0
4, 18531, Note_on_c, 9, 37, 84
4, 18554, Note_off_c, 9, 37, 0
4, 18593, Note_on_c, 9, 37, 63
4, 18617, Note_off_c, 9, 37, 0
4, 18628, Note_on_c, 9, 37, 85
4, 18650, Note_off_c, 9, 37, 0
4, 18688, Note_on_c, 9, 37, 62
4, 18713, Note_off_c, 9, 37, 0
4, 18722, Note_on_c, 9, 37, 90
4, 18745, Note_off_c, 9, 37, 0
4, 18785, Note_on_c, 9, 37, 64
4, 18809, Note_off_c, 9, 37, 0
4, 18820, Note_on_c, 9, 37, 86
4, 18842, Note_off_c, 9, 37, 0
4, 18881, Note_on_c, 9, 37, 60
4, 18905, Note_off_c, 9, 37, 0
4, 18916, Note_on_c, 9, 37, 83
4, 18938, Note_off_c, 9, 37, 0
4, 18978, Note_on_c, 9, 37, 69
4, 19001, Note_off_c, 9, 37, 0
4, 19011, Note_on_c, 9, 37, 88
4, 19033, Note_off_c, 9, 37, 0
4, 19074, Note_on_c, 9, 37, 66
4, 19097, Note_off_c, 9, 37, 0
4, 19106, Note_on_c, 9, 37, 87
4, 19129, Note_off_c, 9, 37, 0
4, 19170, Note_on_c, 9, 37, 67
4, 19194, Note_off_c, 9, 37, 0
4, 19202, Note_on_c, 9, 37, 87
4, 19225, Note_off_c, 9, 37, 0
4, 19266, Note_on_c, 9, 37, 62
4, 19289, Note_off_c, 9, 37, 0
4, 19300, Note_on_c, 9, 37, 82
4, 19322, Note_off_c, 9, 37, 0
4, 19361, Note_on_c, 9, 37, 63
4, 19385, Note_off_c, 9, 37, 0
4, 19396, Note_on_c, 9, 37, 83
4, 19418, Note_off_c, 9, 37, 0
4, 19457, Note_on_c, 9, 37, 67
4, 19481, Note_off_c, 9, 37, 0
4, 19491, Note_on_c, 9, 37, 83
4, 19514, Note_off_c, 9, 37, 0
4, 19554, Note_on_c, 9, 37, 69
4, 19578, Note_off_c, 9, 37, 0
4, 19588, Note_on_c, 9, 37, 82
4, 19610, Note_off_c, 9, 37, 0
4, 19650, Note_on_c, 9, 37, 66
4, 19674, Note_off_c, 9, 37, 0
4, 19684, Note_on_c, 9, 37, 85
4, 19706, Note_off_c, 9, 37, 0
4, 19747, Note_on_c, 9, 37, 65
4, 19769, Note_off_c, 9, 37, 0
4, 19779, Note_on_c, 9, 37, 85
4, 19802, Note_off_c, 9, 37, 0
4, 19842, Note_on_c, 9, 37, 65
4, 19865, Note_off_c, 9, 37, 0
4, 19875, Note_on_c, 9, 37, 89
4, 19897, Note_off_c, 9, 37, 0
4, 19939, Note_on_c, 9, 37, 69
4, 19963, Note_off_c, 9, 37, 0
4, 19971, Note_on_c, 9, 37, 83
4, 19994, Note_off_c, 9, 37, 0
4, 20034, Note_on_c, 9, 37, 67
4, 20058, Note_off_c, 9, 37, 0
4, 20067, Note_on_c, 9, 37, 89
4, 20090, Note_off_c, 9, 37, 0
4, 20131, Note_on_c, 9, 37, 70
4, 20154, Note_off_c, 9, 37, 0
4, 20163, Note_on_c, 9, 37, 90
4, 20185, Note_off_c, 9, 37, 0
4, 20225, Note_on_c, 9, 37, 71
4, 20248, Note_off_c, 9, 37, 0
4, 20260, Note_on_c, 9, 37, 87
4, 20282, Note_off_c, 9, 37, 0
4, 20321, Note_on_c, 9, 37, 65
4, 20345, Note_off_c, 9, 37, 0
4, 20354, Note_on_c, 9, 37, 85
4, 20377, Note_off_c, 9, 37, 0
4, 20417, Note_on_c, 9, 37, 64
4, 20441, Note_off_c, 9, 37, 0
4, 20452, Note_on_c, 9, 37, 83
4, 20474, Note_off_c, 9, 37, 0
4, 20516, Note_on_c, 9, 37, 67
4, 20538, Note_off_c, 9, 37, 0
4, 20547, Note_on_c, 9, 37, 90
4, 20570, Note_off_c, 9, 37, 0
4, 20609, Note_on_c, 9, 37, 67
4, 20633, Note_off_c, 9, 37, 0
4, 20643, Note_on_c, 9, 37, 87
4, 20666, Note_off_c, 9, 37, 0
4, 20705, Note_on_c, 9, 37, 70
4, 20728, Note_off_c, 9, 37, 0
4, 20738, Note_on_c, 9, 37, 84
4, 20761, Note_off_c, 9, 37, 0
4, 20802, Note_on_c, 9, 37, 61
4, 20825, Note_off_c, 9, 37, 0
4, 20834, Note_on_c, 9, 37, 83
4, 20857, Note_off_c, 9, 37, 0
4, 20898, Note_on_c, 9, 37, 62
4, 20922, Note_off_c, 9, 37, 0
4, 20931, Note_on_c, 9, 37, 82
4, 20954, Note_off_c, 9, 37, 0
4, 20993, Note_on_c, 9, 37, 60
4, 21017, Note_off_c, 9, 37, 0
4, 21027, Note_on_c, 9, 37, 91
4, 21050, Note_off_c, 9, 37, 0
4, 21089, Note_on_c, 9, 37, 70
4, 21113, Note_off_c, 9, 37, 0
4, 21123, Note_on_c, 9, 37, 89
4, 21145, Note_off_c, 9, 37, 0
4, 21186, Note_on_c, 9, 37, 63
4, 21210, Note_off_c, 9, 37, 0
4, 21219, Note_on_c, 9, 37, 80
4, 21241, Note_off_c, 9, 37, 0
4, 21284, Note_on_c, 9, 37, 69
4, 21306, Note_off_c, 9, 37, 0
4, 21314, Note_on_c, 9, 37, 90
4, 21337, Note_off_c, 9, 37, 0
4, 21377, Note_on_c, 9, 37, 68
4, 21401, Note_off_c, 9, 37, 0
4, 21410, Note_on_c, 9, 37, 91
4, 21433, Note_off_c, 9, 37, 0
4, 21475, Note_on_c, 9, 37, 63
4, 21498, Note_off_c, 9, 37, 0
4, 21507, Note_on_c, 9, 37, 83
4, 21530, Note_off_c, 9, 37, 0
4, 21571, Note_on_c, 9, 37, 68
4, 21594, Note_off_c, 9, 37, 0
4, 21602, Note_on_c, 9, 37, 86
4, 21625, Note_off_c, 9, 37, 0
4, 21666, Note_on_c, 9, 37, 70
4, 21689, Note_off_c, 9, 37, 0
4, 21700, Note_on_c, 9, 37, 92
4, 21721, Note_off_c, 9, 37, 0
4, 21762, Note_on_c, 9, 37, 62
4, 21786, Note_off_c, 9, 37, 0
4, 21794, Note_on_c, 9, 37, 82
4, 21817, Note_off_c, 9, 37, 0
4, 21858, Note_on_c, 9, 37, 71
4, 21881, Note_off_c, 9, 37, 0
4, 21891, Note_on_c, 9, 37, 85
4, 21914, Note_off_c, 9, 37, 0
4, 21954, Note_on_c, 9, 37, 64
4, 21977, Note_off_c, 9, 37, 0
4, 21987, Note_on_c, 9, 37, 86
4, 22010, Note_off_c, 9, 37, 0
4, 22051, Note_on_c, 9, 37, 67
4, 22073, Note_off_c, 9, 37, 0
4, 22081, Note_on_c, 9, 37, 90
4, 22105, Note_off_c, 9, 37, 0
4, 22146, Note_on_c, 9, 37, 64
4, 22169, Note_off_c, 9, 37, 0
4, 22180, Note_on_c, 9, 37, 90
4, 22202, Note_off_c, 9, 37, 0
4, 22242, Note_on_c, 9, 37, 65
4, 22266, Note_off_c, 9, 37, 0
4, 22274, Note_on_c, 9, 37, 89
4, 22297, Note_off_c, 9, 37, 0
4, 22339, Note_on_c, 9, 37, 64
4, 22362, Note_off_c, 9, 37, 0
4, 22370, Note_on_c, 9, 37, 82
4, 22393, Note_off_c, 9, 37, 0
4, 22434, Note_on_c, 9, 37, 66
4, 22458, Note_off_c, 9, 37, 0
4, 22467, Note_on_c, 9, 37, 88
4, 22490, Note_off_c, 9, 37, 0
4, 22530, Note_on_c, 9, 37, 67
4, 22554, Note_off_c, 9, 37, 0
4, 22562, Note_on_c, 9, 37, 83
4, 22585, Note_off_c, 9, 37, 0
4, 22626, Note_on_c, 9, 37, 67
4, 22649, Note_off_c, 9, 37, 0
4, 22660, Note_on_c, 9, 37, 88
4, 22682, Note_off_c, 9, 37, 0
4, 22722, Note_on_c, 9, 37, 61
4, 22745, Note_off_c, 9, 37, 0
4, 22755, Note_on_c, 9, 37, 90
4, 22778, Note_off_c, 9, 37, 0
4, 22820, Note_on_c, 9, 37, 64
4, 22842, Note_off_c, 9, 37, 0
4, 22850, Note_on_c, 9, 37, 85
4, 22873, Note_off_c, 9, 37, 0
4, 22914, Note_on_c, 9, 37, 63
4, 22937, Note_off_c, 9, 37, 0
4, 22947, Note_on_c, 9, 37, 91
4, 22970, Note_off_c, 9, 37, 0
4, 23010, Note_on_c, 9, 37, 72
4, 23033, Note_off_c, 9, 37, 0
4, 23043, Note_on_c, 9, 37, 83
4, 23066, Note_off_c, 9, 37, 0
4, 23106, Note_on_c, 9, 37, 70
4, 23129, Note_off_c, 9, 37, 0
4, 23139, Note_on_c, 9, 37, 87
4, 23162, Note_off_c, 9, 37, 0
4, 23202, Note_on_c, 9, 37, 61
4, 23226, Note_off_c, 9, 37, 0
4, 23236, Note_on_c, 9, 37, 84
4, 23258, Note_off_c, 9, 37, 0
4, 23297, Note_on_c, 9, 37, 67
4, 23321, Note_off_c, 9, 37, 0
4, 23331, Note_on_c, 9, 37, 85
4, 23354, Note_off_c, 9, 37, 0
4, 23393, Note_on_c, 9, 37, 68
4, 23417, Note_off_c, 9, 37, 0
4, 23428, Note_on_c, 9, 37, 88
4, 23450, Note_off_c, 9, 37, 0
4, 23489, Note_on_c, 9, 37, 65
4, 23513, Note_off_c, 9, 37, 0
4, 23523, Note_on_c, 9, 37, 83
4, 23545, Note_off_c, 9, 37, 0
4, 23588, Note_on_c, 9, 37, 67
4, 23610, Note_off_c, 9, 37, 0
4, 23618, Note_on_c, 9, 37, 88
4, 23641, Note_off_c, 9, 37, 0
4, 23682, Note_on_c, 9, 37, 71
4, 23706, Note_off_c, 9, 37, 0
4, 23715, Note_on_c, 9, 37, 86
4, 23738, Note_off_c, 9, 37, 0
4, 23778, Note_on_c, 9, 37, 65
4, 23802, Note_off_c, 9, 37, 0
4, 23810, Note_on_c, 9, 37, 83
4, 23833, Note_off_c, 9, 37, 0
4, 23875, Note_on_c, 9, 37, 69
4, 23898, Note_off_c, 9, 37, 0
4, 23906, Note_on_c, 9, 37, 89
4, 23929, Note_off_c, 9, 37, 0
4, 23969, Note_on_c, 9, 37, 71
4, 23993, Note_off_c, 9, 37, 0
4, 24004, Note_on_c, 9, 37, 88
4, 24026, Note_off_c, 9, 37, 0
4, 24067, Note_on_c, 9, 37, 62
4, 24091, Note_off_c, 9, 37, 0
4, 24100, Note_on_c, 9, 37, 87
4, 24123, Note_off_c, 9, 37, 0
4, 24162, Note_on_c, 9, 37, 64
4, 24186, Note_off_c, 9, 37, 0
4, 24196, Note_on_c, 9, 37, 81
4, 24218, Note_off_c, 9, 37, 0
4, 24257, Note_on_c, 9, 37, 69
4, 24281, Note_off_c, 9, 37, 0
4, 24292, Note_on_c, 9, 37, 89
4, 24314, Note_off_c, 9, 37, 0
4, 24356, Note_on_c, 9, 37, 64
4, 24378, Note_off_c, 9, 37, 0
4, 24386, Note_on_c, 9, 37, 87
4, 24409, Note_off_c, 9, 37, 0
4, 24449, Note_on_c, 9, 37, 68
4, 24472, Note_off_c, 9, 37, 0
4, 24482, Note_on_c, 9, 37, 88
4, 24505, Note_off_c, 9, 37, 0
4, 24545, Note_on_c, 9, 37, 72
4, 24569, Note_off_c, 9, 37, 0
4, 24579, Note_on_c, 9, 37, 81
4, 24601, Note_off_c, 9, 37, 0
4, 24642, Note_on_c, 9, 37, 63
4, 24666, Note_off_c, 9, 37, 0
4, 24674, Note_on_c, 9, 37, 81
4, 24696, Note_off_c, 9, 37, 0
4, 24739, Note_on_c, 9, 37, 70
4, 24762, Note_off_c, 9, 37, 0
4, 24772, Note_on_c, 9, 37, 83
4, 24794, Note_off_c, 9, 37, 0
4, 24834, Note_on_c, 9, 37, 64
4, 24858, Note_off_c, 9, 37, 0
4, 24867, Note_on_c, 9, 37, 91
4, 24890, Note_off_c, 9, 37, 0
4, 24929, Note_on_c, 9, 37, 70
4, 24953, Note_off_c, 9, 37, 0
4, 24963, Note_on_c, 9, 37, 86
4, 24985, Note_off_c, 9, 37, 0
4, 25025, Note_on_c, 9, 37, 66
4, 25049, Note_off_c, 9, 37, 0
4, 25058, Note_on_c, 9, 37, 87
4, 25081, Note_off_c, 9, 37, 0
4, 25123, Note_on_c, 9, 37, 68
4, 25145, Note_off_c, 9, 37, 0
4, 25154, Note_on_c, 9, 37, 84
4, 25177, Note_off_c, 9, 37, 0
4, 25218, Note_on_c, 9, 37, 64
4, 25242, Note_off_c, 9, 37, 0
4, 25251, Note_on_c, 9, 37, 86
4, 25274, Note_off_c, 9, 37, 0
4, 25313, Note_on_c, 9, 37, 65
4, 25337, Note_off_c, 9, 37, 0
4, 25347, Note_on_c, 9, 37, 84
4, 25370, Note_off_c, 9, 37, 0
4, 25411, Note_on_c, 9, 37, 69
4, 25434, Note_off_c, 9, 37, 0
4, 25442, Note_on_c, 9, 37, 85
4, 25465, Note_off_c, 9, 37, 0
4, 25507, Note_on_c, 9, 37, 68
4, 25531, Note_off_c, 9, 37, 0
4, 25539, Note_on_c, 9, 37, 82
4, 25562, Note_off_c, 9, 37, 0
4, 25601, Note_on_c, 9, 37, 65
4, 25625, Note_off_c, 9, 37, 0
4, 25635, Note_on_c, 9, 37, 81
4, 25658, Note_off_c, 9, 37, 0
4, 25698, Note_on_c, 9, 37, 66
4, 25722, Note_off_c, 9, 37, 0
4, 25731, Note_on_c, 9, 37, 87
4, 25753, Note_off_c, 9, 37, 0
4, 25794, Note_on_c, 9, 37, 64
4, 25818, Note_off_c, 9, 37, 0
4, 25828, Note_on_c, 9, 37, 85
4, 25850, Note_off_c, 9, 37, 0
4, 25891, Note_on_c, 9, 37, 61
4, 25913, Note_off_c, 9, 37, 0
4, 25922, Note_on_c, 9, 37, 86
4, 25946, Note_off_c, 9, 37, 0
4, 25985, Note_on_c, 9, 37, 64
4, 26009, Note_off_c, 9, 37, 0
4, 26018, Note_on_c, 9, 37, 84
4, 26041, Note_off_c, 9, 37, 0
4, 26081, Note_on_c, 9, 37, 67
4, 26105, Note_off_c, 9, 37, 0
4, 26115, Note_on_c, 9, 37, 86
4, 26138, Note_off_c, 9, 37, 0
4, 26179, Note_on_c, 9, 37, 71
4, 26202, Note_off_c, 9, 37, 0
4, 26211, Note_on_c, 9, 37, 87
4, 26234, Note_off_c, 9, 37, 0
4, 26274, Note_on_c, 9, 37, 71
4, 26297, Note_off_c, 9, 37, 0
4, 26308, Note_on_c, 9, 37, 80
4, 26330, Note_off_c, 9, 37, 0
4, 26369, Note_on_c, 9, 37, 65
4, 26393, Note_off_c, 9, 37, 0
4, 26403, Note_on_c, 9, 37, 80
4, 26426, Note_off_c, 9, 37, 0
4, 26467, Note_on_c, 9, 37, 63
4, 26490, Note_off_c, 9, 37, 0
4, 26499, Note_on_c, 9, 37, 86
4, 26521, Note_off_c, 9, 37, 0
4, 26563, Note_on_c, 9, 37, 68
4, 26586, Note_off_c, 9, 37, 0
4, 26595, Note_on_c, 9, 37, 85
4, 26618, Note_off_c, 9, 37, 0
4, 26660, Note_on_c, 9, 37, 65
4, 26682, Note_off_c, 9, 37, 0
4, 26689, Note_on_c, 9, 37, 84
4, 26713, Note_off_c, 9, 37, 0
4, 26754, Note_on_c, 9, 37, 67
4, 26777, Note_off_c, 9, 37, 0
4, 26787, Note_on_c, 9, 37, 84
4, 26809, Note_off_c, 9, 37, 0
4, 26849, Note_on_c, 9, 37, 61
4, 26873, Note_off_c, 9, 37, 0
4, 26881, Note_on_c, 9, 37, 89
4, 26905, Note_off_c, 9, 37, 0
4, 26946, Note_on_c, 9, 37, 65
4, 26969, Note_off_c, 9, 37, 0
4, 26979, Note_on_c, 9, 37, 83
4, 27001, Note_off_c, 9, 37, 0
4, 27041, Note_on_c, 9, 37, 64
4, 27065, Note_off_c, 9, 37, 0
4, 27075, Note_on_c, 9, 37, 83
4, 27097, Note_off_c, 9, 37, 0
4, 27137, Note_on_c, 9, 37, 65
4, 27161, Note_off_c, 9, 37, 0
4, 27172, Note_on_c, 9, 37, 81
4, 27195, Note_off_c, 9, 37, 0
4, 27234, Note_on_c, 9, 37, 66
4, 27257, Note_off_c, 9, 37, 0
4, 27266, Note_on_c, 9, 37, 91
4, 27289, Note_off_c, 9, 37, 0
4, 27330, Note_on_c, 9, 37, 69
4, 27353, Note_off_c, 9, 37, 0
4, 27363, Note_on_c, 9, 37, 88
4, 27386, Note_off_c, 9, 37, 0
4, 27427, Note_on_c, 9, 37, 71
4, 27449, Note_off_c, 9, 37, 0
4, 27458, Note_on_c, 9, 37, 90
4, 27481, Note_off_c, 9, 37, 0
4, 27521, Note_on_c, 9, 37, 69
4, 27545, Note_off_c, 9, 37, 0
4, 27554, Note_on_c, 9, 37, 88
4, 27577, Note_off_c, 9, 37, 0
4, 27618, Note_on_c, 9, 37, 64
4, 27642, Note_off_c, 9, 37, 0
4, 27651, Note_on_c, 9, 37, 85
4, 27673, Note_off_c, 9, 37, 0
4, 27714, Note_on_c, 9, 37, 69
4, 27738, Note_off_c, 9, 37, 0
4, 27748, Note_on_c, 9, 37, 83
4, 27770, Note_off_c, 9, 37, 0
4, 27809, Note_on_c, 9, 37, 64
4, 27833, Note_off_c, 9, 37, 0
4, 27844, Note_on_c, 9, 37, 90
4, 27865, Note_off_c, 9, 37, 0
4, 27905, Note_on_c, 9, 37, 63
4, 27929, Note_off_c, 9, 37, 0
4, 27939, Note_on_c, 9, 37, 83
4, 27962, Note_off_c, 9, 37, 0
4, 28003, Note_on_c, 9, 37, 62
4, 28026, Note_off_c, 9, 37, 0
4, 28035, Note_on_c, 9, 37, 84
4, 28058, Note_off_c, 9, 37, 0
4, 28099, Note_on_c, 9, 37, 70
4, 28121, Note_off_c, 9, 37, 0
4, 28131, Note_on_c, 9, 37, 86
4, 28154, Note_off_c, 9, 37, 0
4, 28195, Note_on_c, 9, 37, 66
4, 28217, Note_off_c, 9, 37, 0
4, 28228, Note_on_c, 9, 37, 86
4, 28250, Note_off_c, 9, 37, 0
4, 28289, Note_on_c, 9, 37, 66
4, 28313, Note_off_c, 9, 37, 0
4, 28324, Note_on_c, 9, 37, 88
4, 28346, Note_off_c, 9, 37, 0
4, 28385, Note_on_c, 9, 37, 62
4, 28408, Note_off_c, 9, 37, 0
4, 28420, Note_on_c, 9, 37, 87
4, 28442, Note_off_c, 9, 37, 0
4, 28481, Note_on_c, 9, 37, 62
4, 28505, Note_off_c, 9, 37, 0
4, 28515, Note_on_c, 9, 37, 85
4, 28537, Note_off_c, 9, 37, 0
4, 28578, Note_on_c, 9, 37, 70
4, 28602, Note_off_c, 9, 37, 0
4, 28611, Note_on_c, 9, 37, 88
4, 28632, Note_off_c, 9, 37, 0
4, 28674, Note_on_c, 9, 37, 71
4, 28697, Note_off_c, 9, 37, 0
4, 28707, Note_on_c, 9, 37, 85
4, 28729, Note_off_c, 9, 37, 0
4, 28770, Note_on_c, 9, 37, 65
4, 28793, Note_off_c, 9, 37, 0
4, 28803, Note_on_c, 9, 37, 84
4, 28826, Note_off_c, 9, 37, 0
4, 28867, Note_on_c, 9, 37, 64
4, 28889, Note_off_c, 9, 37, 0
4, 28899, Note_on_c, 9, 37, 81
4, 28921, Note_off_c, 9, 37, 0
4, 28963, Note_on_c, 9, 37, 65
4, 28986, Note_off_c, 9, 37, 0
4, 28995, Note_on_c, 9, 37, 86
4, 29017, Note_off_c, 9, 37, 0
4, 29057, Note_on_c, 9, 37, 67
4, 29080, Note_off_c, 9, 37, 0
4, 29091, Note_on_c, 9, 37, 86
4, 29114, Note_off_c, 9, 37, 0
4, 29154, Note_on_c, 9, 37, 66
4, 29177, Note_off_c, 9, 37, 0
4, 29188, Note_on_c, 9, 37, 87
4, 29209, Note_off_c, 9, 37, 0
4, 29250, Note_on_c, 9, 37, 64
4, 29274, Note_off_c, 9, 37, 0
4, 29284, Note_on_c, 9, 37, 86
4, 29305, Note_off_c, 9, 37, 0
4, 29345, Note_on_c, 9, 37, 67
4, 29369, Note_off_c, 9, 37, 0
4, 29379, Note_on_c, 9, 37, 84
4, 29401, Note_off_c, 9, 37, 0
4, 29442, Note_on_c, 9, 37, 61
4, 29465, Note_off_c, 9, 37, 0
4, 29475, Note_on_c, 9, 37, 83
4, 29497, Note_off_c, 9, 37, 0
4, 29540, Note_on_c, 9, 37, 67
4, 29562, Note_off_c, 9, 37, 0
4, 29570, Note_on_c, 9, 37, 90
4, 29594, Note_off_c, 9, 37, 0
4, 29635, Note_on_c, 9, 37, 65
4, 29658, Note_off_c, 9, 37, 0
4, 29666, Note_on_c, 9, 37, 90
4, 29689, Note_off_c, 9, 37, 0
4, 29731, Note_on_c, 9, 37, 60
4, 29753, Note_off_c, 9, 37, 0
4, 29764, Note_on_c, 9, 37, 91
4, 29786, Note_off_c, 9, 37, 0
4, 29825, Note_on_c, 9, 37, 70
4, 29849, Note_off_c, 9, 37, 0
4, 29858, Note_on_c, 9, 37, 83
4, 29881, Note_off_c, 9, 37, 0
4, 29922, Note_on_c, 9, 37, 65
4, 29946, Note_off_c, 9, 37, 0
4, 29956, Note_on_c, 9, 37, 88
4, 29978, Note_off_c, 9, 37, 0
4, 30018, Note_on_c, 9, 37, 64
4, 30042, Note_off_c, 9, 37, 0
4, 30053, Note_on_c, 9, 37, 89
4, 30074, Note_off_c, 9, 37, 0
4, 30113, Note_on_c, 9, 37, 69
4, 30137, Note_off_c, 9, 37, 0
4, 30148, Note_on_c, 9, 37, 89
4, 30170, Note_off_c, 9, 37, 0
4, 30211, Note_on_c, 9, 37, 67
4, 30234, Note_off_c, 9, 37, 0
4, 30242, Note_on_c, 9, 37, 82
4, 30265, Note_off_c, 9, 37, 0
4, 30306, Note_on_c, 9, 37, 60
4, 30329, Note_off_c, 9, 37, 0
4, 30339, Note_on_c, 9, 37, 85
4, 30362, Note_off_c, 9, 37, 0
4, 30403, Note_on_c, 9, 37, 66
4, 30426, Note_off_c, 9, 37, 0
4, 30434, Note_on_c, 9, 37, 87
4, 30457, Note_off_c, 9, 37, 0
4, 30499, Note_on_c, 9, 37, 71
4, 30521, Note_off_c, 9, 37, 0
4, 30532, Note_on_c, 9, 37, 86
4, 30553, Note_off_c, 9, 37, 0
4, 30594, Note_on_c, 9, 37, 64
4, 30617, Note_off_c, 9, 37, 0
4, 30626, Note_on_c, 9, 37, 91
4, 30649, Note_off_c, 9, 37, 0
4, 30691, Note_on_c, 9, 37, 64
4, 30714, Note_off_c, 9, 37, 0
4, 30724, Note_on_c, 9, 37, 91
4, 30746, Note_off_c, 9, 37, 0
4, 30785, Note_on_c, 9, 37, 65
4, 30809, Note_off_c, 9, 37, 0
4, 30820, Note_on_c, 9, 37, 87
4, 30841, Note_off_c, 9, 37, 0
4, 30882, Note_on_c, 9, 37, 69
4, 30906, Note_off_c, 9, 37, 0
4, 30916, Note_on_c, 9, 37, 81
4, 30938, Note_off_c, 9, 37, 0
4, 30978, Note_on_c, 9, 37, 66
4, 31001, Note_off_c, 9, 37, 0
4, 31011, Note_on_c, 9, 37, 91
4, 31035, Note_off_c, 9, 37, 0
4, 31075, Note_on_c, 9, 37, 62
4, 31097, Note_off_c, 9, 37, 0
4, 31106, Note_on_c, 9, 37, 85
4, 31129, Note_off_c, 9, 37, 0
4, 31171, Note_on_c, 9, 37, 68
4, 31194, Note_off_c, 9, 37, 0
4, 31202, Note_on_c, 9, 37, 82
4, 31224, Note_off_c, 9, 37, 0
4, 31267, Note_on_c, 9, 37, 67
4, 31290, Note_off_c, 9, 37, 0
4, 31299, Note_on_c, 9, 37, 85
4, 31321, Note_off_c, 9, 37, 0
4, 31362, Note_on_c, 9, 37, 66
4, 31385, Note_off_c, 9, 37, 0
4, 31395, Note_on_c, 9, 37, 84
4, 31418, Note_off_c, 9, 37, 0
4, 31458, Note_on_c, 9, 37, 62
4, 31481, Note_off_c, 9, 37, 0
4, 31492, Note_on_c, 9, 37, 82
4, 31514, Note_off_c, 9, 37, 0
4, 31554, Note_on_c, 9, 37, 66
4, 31578, Note_off_c, 9, 37, 0
4, 31587, Note_on_c, 9, 37, 87
4, 31608, Note_off_c, 9, 37, 0
4, 31650, Note_on_c, 9, 37, 63
4, 31674, Note_off_c, 9, 37, 0
4, 31683, Note_on_c, 9, 37, 85
4, 31705, Note_off_c, 9, 37, 0
4, 31746, Note_on_c, 9, 37, 68
4, 31769, Note_off_c, 9, 37, 0
4, 31779, Note_on_c, 9, 37, 86
4, 31801, Note_off_c, 9, 37, 0
4, 31843, Note_on_c, 9, 37, 69
4, 31865, Note_off_c, 9, 37, 0
4, 31873, Note_on_c, 9, 37, 83
4, 31896, Note_off_c, 9, 37, 0
4, 31940, Note_on_c, 9, 37, 67
4, 31962, Note_off_c, 9, 37, 0
4, 31972, Note_on_c, 9, 37, 85
4, 31994, Note_off_c, 9, 37, 0
4, 32035, Note_on_c, 9, 37, 70
4, 32058, Note_off_c, 9, 37, 0
4, 32067, Note_on_c, 9, 37, 84
4, 32088, Note_off_c, 9, 37, 0
4, 32131, Note_on_c, 9, 37, 67
4, 32154, Note_off_c, 9, 37, 0
4, 32163, Note_on_c, 9, 37, 89
4, 32185, Note_off_c, 9, 37, 0
4, 32227, Note_on_c, 9, 37, 70
4, 32249, Note_off_c, 9, 37, 0
4, 32261, Note_on_c, 9, 37, 85
4, 32282, Note_off_c, 9, 37, 0
4, 32321, Note_on_c, 9, 37, 65
4, 32345, Note_off_c, 9, 37, 0
4, 32356, Note_on_c, 9, 37, 86
4, 32377, Note_off_c, 9, 37, 0
4, 32418, Note_on_c, 9, 37, 63
4, 32442, Note_off_c, 9, 37, 0
4, 32449, Note_on_c, 9, 37, 85
4, 32472, Note_off_c, 9, 37, 0
4, 32513, Note_on_c, 9, 37, 65
4, 32537, Note_off_c, 9, 37, 0
4, 32546, Note_on_c, 9, 37, 88
4, 32569, Note_off_c, 9, 37, 0
4, 32611, Note_on_c, 9, 37, 62
4, 32633, Note_off_c, 9, 37, 0
4, 32644, Note_on_c, 9, 37, 87
4, 32666, Note_off_c, 9, 37, 0
4, 32707, Note_on_c, 9, 37, 68
4, 32730, Note_off_c, 9, 37, 0
4, 32739, Note_on_c, 9, 37, 82
4, 32760, Note_off_c, 9, 37, 0
4, 32803, Note_on_c, 9, 37, 62
4, 32825, Note_off_c, 9, 37, 0
4, 32834, Note_on_c, 9, 37, 82
4, 32857, Note_off_c, 9, 37, 0
4, 32897, Note_on_c, 9, 37, 67
4, 32921, Note_off_c, 9, 37, 0
4, 32931, Note_on_c, 9, 37, 84
4, 32954, Note_off_c, 9, 37, 0
4, 32996, Note_on_c, 9, 37, 66
4, 33018, Note_off_c, 9, 37, 0
4, 33028, Note_on_c, 9, 37, 89
4, 33050, Note_off_c, 9, 37, 0
4, 33090, Note_on_c, 9, 37, 65
4, 33114, Note_off_c, 9, 37, 0
4, 33123, Note_on_c, 9, 37, 87
4, 33145, Note_off_c, 9, 37, 0
4, 33185, Note_on_c, 9, 37, 62
4, 33209, Note_off_c, 9, 37, 0
4, 33219, Note_on_c, 9, 37, 84
4, 33242, Note_off_c, 9, 37, 0
4, 33281, Note_on_c, 9, 37, 70
4, 33305, Note_off_c, 9, 37, 0
4, 33315, Note_on_c, 9, 37, 85
4, 33337, Note_off_c, 9, 37, 0
4, 33378, Note_on_c, 9, 37, 61
4, 33400, Note_off_c, 9, 37, 0
4, 33412, Note_on_c, 9, 37, 80
4, 33433, Note_off_c, 9, 37, 0
4, 33474, Note_on_c, 9, 37, 65
4, 33497, Note_off_c, 9, 37, 0
4, 33508, Note_on_c, 9, 37, 87
4, 33529, Note_off_c, 9, 37, 0
4, 33572, Note_on_c, 9, 37, 65
4, 33594, Note_off_c, 9, 37, 0
4, 33602, Note_on_c, 9, 37, 89
4, 33625, Note_off_c, 9, 37, 0
4, 33667, Note_on_c, 9, 37, 66
4, 33690, Note_off_c, 9, 37, 0
4, 33700, Note_on_c, 9, 37, 90
4, 33722, Note_off_c, 9, 37, 0
4, 33762, Note_on_c, 9, 37, 64
4, 33785, Note_off_c, 9, 37, 0
4, 33796, Note_on_c, 9, 37, 81
4, 33818, Note_off_c, 9, 37, 0
4, 33858, Note_on_c, 9, 37, 71
4, 33882, Note_off_c, 9, 37, 0
4, 33892, Note_on_c, 9, 37, 89
4, 33914, Note_off_c, 9, 37, 0
4, 33953, Note_on_c, 9, 37, 62
4, 33976, Note_off_c, 9, 37, 0
4, 33986, Note_on_c, 9, 37, 88
4, 34009, Note_off_c, 9, 37, 0
4, 34050, Note_on_c, 9, 37, 65
4, 34074, Note_off_c, 9, 37, 0
4, 34083, Note_on_c, 9, 37, 83
4, 34107, Note_off_c, 9, 37, 0
4, 34147, Note_on_c, 9, 37, 68
4, 34170, Note_off_c, 9, 37, 0
4, 34180, Note_on_c, 9, 37, 84
4, 34201, Note_off_c, 9, 37, 0
4, 34244, Note_on_c, 9, 37, 63
4, 34267, Note_off_c, 9, 37, 0
4, 34276, Note_on_c, 9, 37, 80
4, 34297, Note_off_c, 9, 37, 0
4, 34339, Note_on_c, 9, 37, 65
4, 34361, Note_off_c, 9, 37, 0
4, 34370, Note_on_c, 9, 37, 86
4, 34394, Note_off_c, 9, 37, 0
4, 34434, Note_on_c, 9, 37, 65
4, 34457, Note_off_c, 9, 37, 0
4, 34466, Note_on_c, 9, 37, 87
4, 34489, Note_off_c, 9, 37, 0
4, 34531, Note_on_c, 9, 37, 68
4, 34554, Note_off_c, 9, 37, 0
4, 34564, Note_on_c, 9, 37, 84
4, 34586, Note_off_c, 9, 37, 0
4, 34625, Note_on_c, 9, 37, 70
4, 34649, Note_off_c, 9, 37, 0
4, 34660, Note_on_c, 9, 37, 87
4, 34681, Note_off_c, 9, 37, 0
4, 34721, Note_on_c, 9, 37, 67
4, 34744, Note_off_c, 9, 37, 0
4, 34755, Note_on_c, 9, 37, 81
4, 34778, Note_off_c, 9, 37, 0
4, 34818, Note_on_c, 9, 37, 68
4, 34842, Note_off_c, 9, 37, 0
4, 34851, Note_on_c, 9, 37, 90
4, 34873, Note_off_c, 9, 37, 0
4, 34914, Note_on_c, 9, 37, 67
4, 34937, Note_off_c, 9, 37, 0
4, 34948, Note_on_c, 9, 37, 89
4, 34970, Note_off_c, 9, 37, 0
4, 35011, Note_on_c, 9, 37, 67
4, 35034, Note_off_c, 9, 37, 0
4, 35044, Note_on_c, 9, 37, 82
4, 35065, Note_off_c, 9, 37, 0
4, 35108, Note_on_c, 9, 37, 60
4, 35130, Note_off_c, 9, 37, 0
4, 35138, Note_on_c, 9, 37, 84
4, 35161, Note_off_c, 9, 37, 0
4, 35203, Note_on_c, 9, 37, 70
4, 35226, Note_off_c, 9, 37, 0
4, 35234, Note_on_c, 9, 37, 89
4, 35257, Note_off_c, 9, 37, 0
4, 35299, Note_on_c, 9, 37, 60
4, 35322, Note_off_c, 9, 37, 0
4, 35332, Note_on_c, 9, 37, 80
4, 35353, Note_off_c, 9, 37, 0
4, 35393, Note_on_c, 9, 37, 68
4, 35417, Note_off_c, 9, 37, 0
4, 35427, Note_on_c, 9, 37, 84
4, 35449, Note_off_c, 9, 37, 0
4, 35490, Note_on_c, 9, 37, 67
4, 35514, Note_off_c, 9, 37, 0
4, 35523, Note_on_c, 9, 37, 88
4, 35546, Note_off_c, 9, 37, 0
4, 35585, Note_on_c, 9, 37, 71
4, 35609, Note_off_c, 9, 37, 0
4, 35618, Note_on_c, 9, 37, 85
4, 35641, Note_off_c, 9, 37, 0
4, 35683, Note_on_c, 9, 37, 65
4, 35705, Note_off_c, 9, 37, 0
4, 35716, Note_on_c, 9, 37, 83
4, 35737, Note_off_c, 9, 37, 0
4, 35780, Note_on_c, 9, 37, 60
4, 35802, Note_off_c, 9, 37, 0
4, 35812, Note_on_c, 9, 37, 91
4, 35834, Note_off_c, 9, 37, 0
4, 35874, Note_on_c, 9, 37, 66
4, 35897, Note_off_c, 9, 37, 0
4, 35907, Note_on_c, 9, 37, 85
4, 35930, Note_off_c, 9, 37, 0
4, 35970, Note_on_c, 9, 37, 61
4, 35994, Note_off_c, 9, 37, 0
4, 36003, Note_on_c, 9, 37, 83
4, 36026, Note_off_c, 9, 37, 0
4, 36066, Note_on_c, 9, 37, 68
4, 36090, Note_off_c, 9, 37, 0
4, 36099, Note_on_c, 9, 37, 87
4, 36121, Note_off_c, 9, 37, 0
4, 36163, Note_on_c, 9, 37, 64
4, 36186, Note_off_c, 9, 37, 0
4, 36194, Note_on_c, 9, 37, 84
4, 36217, Note_off_c, 9, 37, 0
4, 36258, Note_on_c, 9, 37, 71
4, 36281, Note_off_c, 9, 37, 0
4, 36293, Note_on_c, 9, 37, 91
4, 36314, Note_off_c, 9, 37, 0
4, 36353, Note_on_c, 9, 37, 72
4, 36377, Note_off_c, 9, 37, 0
4, 36387, Note_on_c, 9, 37, 85
4, 36410, Note_off_c, 9, 37, 0
4, 36449, Note_on_c, 9, 37, 69
4, 36473, Note_off_c, 9, 37, 0
4, 36484, Note_on_c, 9, 37, 82
4, 36505, Note_off_c, 9, 37, 0
4, 36546, Note_on_c, 9, 37, 71
4, 36570, Note_off_c, 9, 37, 0
4, 36579, Note_on_c, 9, 37, 90
4, 36602, Note_off_c, 9, 37, 0
4, 36643, Note_on_c, 9, 37, 66
4, 36666, Note_off_c, 9, 37, 0
4, 36676, Note_on_c, 9, 37, 85
4, 36697, Note_off_c, 9, 37, 0
4, 36738, Note_on_c, 9, 37, 66
4, 36762, Note_off_c, 9, 37, 0
4, 36771, Note_on_c, 9, 37, 88
4, 36794, Note_off_c, 9, 37, 0
4, 36833, Note_on_c, 9, 37, 64
4, 36857, Note_off_c, 9, 37, 0
4, 36866, Note_on_c, 9, 37, 92
4, 36889, Note_off_c, 9, 37, 0
4, 36930, Note_on_c, 9, 37, 62
4, 36953, Note_off_c, 9, 37, 0
4, 36963, Note_on_c, 9, 37, 83
4, 36986, Note_off_c, 9, 37, 0
4, 37026, Note_on_c, 9, 37, 63
4, 37050, Note_off_c, 9, 37, 0
4, 37060, Note_on_c, 9, 37, 88
4, 37082, Note_off_c, 9, 37, 0
4, 37122, Note_on_c, 9, 37, 67
4, 37146, Note_off_c, 9, 37, 0
4, 37154, Note_on_c, 9, 37, 91
4, 37177, Note_off_c, 9, 37, 0
4, 37218, Note_on_c, 9, 37, 68
4, 37241, Note_off_c, 9, 37, 0
4, 37251, Note_on_c, 9, 37, 84
4, 37274, Note_off_c, 9, 37, 0
4, 37315, Note_on_c, 9, 37, 61
4, 37338, Note_off_c, 9, 37, 0
4, 37346, Note_on_c, 9, 37, 86
4, 37369, Note_off_c, 9, 37, 0
4, 37412, Note_on_c, 9, 37, 71
4, 37434, Note_off_c, 9, 37, 0
4, 37443, Note_on_c, 9, 37, 90
4, 37466, Note_off_c, 9, 37, 0
4, 37505, Note_on_c, 9, 37, 64
4, 37529, Note_off_c, 9, 37, 0
4, 37539, Note_on_c, 9, 37, 83
4, 37562, Note_off_c, 9, 37, 0
4, 37601, Note_on_c, 9, 37, 60
4, 37625, Note_off_c, 9, 37, 0
4, 37635, Note_on_c, 9, 37, 88
4, 37657, Note_off_c, 9, 37, 0
4, 37697, Note_on_c, 9, 37, 64
4, 37721, Note_off_c, 9, 37, 0
4, 37731, Note_on_c, 9, 37, 85
4, 37753, Note_off_c, 9, 37, 0
4, 37794, Note_on_c, 9, 37, 67
4, 37817, Note_off_c, 9, 37, 0
4, 37828, Note_on_c, 9, 37, 85
4, 37850, Note_off_c, 9, 37, 0
4, 37889, Note_on_c, 9, 37, 67
4, 37913, Note_off_c, 9, 37, 0
4, 37923, Note_on_c, 9, 37, 88
4, 37946, Note_off_c, 9, 37, 0
4, 37987, Note_on_c, 9, 37, 62
4, 38009, Note_off_c, 9, 37, 0
4, 38017, Note_on_c, 9, 37, 88
4, 38041, Note_off_c, 9, 37, 0
4, 38083, Note_on_c, 9, 37, 70
4, 38106, Note_off_c, 9, 37, 0
4, 38115, Note_on_c, 9, 37, 86
4, 38138, Note_off_c, 9, 37, 0
4, 38179, Note_on_c, 9, 37, 70
4, 38201, Note_off_c, 9, 37, 0
4, 38212, Note_on_c, 9, 37, 85
4, 38233, Note_off_c, 9, 37, 0
4, 38274, Note_on_c, 9, 37, 62
4, 38298, Note_off_c, 9, 37, 0
4, 38306, Note_on_c, 9, 37, 88
4, 38328, Note_off_c, 9, 37, 0
4, 38370, Note_on_c, 9, 37, 64
4, 38393, Note_off_c, 9, 37, 0
4, 38404, Note_on_c, 9, 37, 88
4, 38426, Note_off_c, 9, 37, 0
4, 38465, Note_on_c, 9, 37, 69
4, 38489, Note_off_c, 9, 37, 0
4, 38499, Note_on_c, 9, 37, 89
4, 38520, Note_off_c, 9, 37, 0
4, 38561, Note_on_c, 9, 37, 65
4, 38585, Note_off_c, 9, 37, 0
4, 38596, Note_on_c, 9, 37, 90
4, 38617, Note_off_c, 9, 37, 0
4, 38658, Note_on_c, 9, 37, 60
4, 38681, Note_off_c, 9, 37, 0
4, 38690, Note_on_c, 9, 37, 81
4, 38713, Note_off_c, 9, 37, 0
4, 38755, Note_on_c, 9, 37, 62
4, 38778, Note_off_c, 9, 37, 0
4, 38786, Note_on_c, 9, 37, 80
4, 38810, Note_off_c, 9, 37, 0
4, 38851, Note_on_c, 9, 37, 67
4, 38873, Note_off_c, 9, 37, 0
4, 38884, Note_on_c, 9, 37, 84
4, 38906, Note_off_c, 9, 37, 0
4, 38946, Note_on_c, 9, 37, 68
4, 38969, Note_off_c, 9, 37, 0
4, 38980, Note_on_c, 9, 37, 84
4, 39002, Note_off_c, 9, 37, 0
4, 39042, Note_on_c, 9, 37, 67
4, 39065, Note_off_c, 9, 37, 0
4, 39075, Note_on_c, 9, 37, 90
4, 39098, Note_off_c, 9, 37, 0
4, 39139, Note_on_c, 9, 37, 69
4, 39162, Note_off_c, 9, 37, 0
4, 39172, Note_on_c, 9, 37, 88
4, 39193, Note_off_c, 9, 37, 0
4, 39234, Note_on_c, 9, 37, 71
4, 39258, Note_off_c, 9, 37, 0
4, 39269, Note_on_c, 9, 37, 88
4, 39290, Note_off_c, 9, 37, 0
4, 39329, Note_on_c, 9, 37, 64
4, 39353, Note_off_c, 9, 37, 0
4, 39364, Note_on_c, 9, 37, 86
4, 39386, Note_off_c, 9, 37, 0
4, 39427, Note_on_c, 9, 37, 66
4, 39450, Note_off_c, 9, 37, 0
4, 39460, Note_on_c, 9, 37, 89
4, 39482, Note_off_c, 9, 37, 0
4, 39523, Note_on_c, 9, 37, 71
4, 39545, Note_off_c, 9, 37, 0
4, 39553, Note_on_c, 9, 37, 82
4, 39577, Note_off_c, 9, 37, 0
4, 39619, Note_on_c, 9, 37, 70
4, 39642, Note_off_c, 9, 37, 0
4, 39651, Note_on_c, 9, 37, 80
4, 39674, Note_off_c, 9, 37, 0
4, 39715, Note_on_c, 9, 37, 67
4, 39737, Note_off_c, 9, 37, 0
4, 39747, Note_on_c, 9, 37, 89
4, 39769, Note_off_c, 9, 37, 0
4, 39811, Note_on_c, 9, 37, 67
4, 39834, Note_off_c, 9, 37, 0
4, 39842, Note_on_c, 9, 37, 83
4, 39864, Note_off_c, 9, 37, 0
4, 39905, Note_on_c, 9, 37, 66
4, 39929, Note_off_c, 9, 37, 0
4, 39939, Note_on_c, 9, 37, 82
4, 39961, Note_off_c, 9, 37, 0
4, 40001, Note_on_c, 9, 37, 64
4, 40025, Note_off_c, 9, 37, 0
4, 40036, Note_on_c, 9, 37, 80
4, 40057, Note_off_c, 9, 37, 0
4, 40098, Note_on_c, 9, 37, 71
4, 40122, Note_off_c, 9, 37, 0
4, 40131, Note_on_c, 9, 37, 86
4, 40153, Note_off_c, 9, 37, 0
4, 40194, Note_on_c, 9, 37, 67
4, 40217, Note_off_c, 9, 37, 0
4, 40226, Note_on_c, 9, 37, 83
4, 40249, Note_off_c, 9, 37, 0
4, 40291, Note_on_c, 9, 37, 61
4, 40314, Note_off_c, 9, 37, 0
4, 40323, Note_on_c, 9, 37, 87
4, 40346, Note_off_c, 9, 37, 0
4, 40386, Note_on_c, 9, 37, 65
4, 40409, Note_off_c, 9, 37, 0
4, 40418, Note_on_c, 9, 37, 84
4, 40441, Note_off_c, 9, 37, 0
4, 40484, Note_on_c, 9, 37, 69
4, 40506, Note_off_c, 9, 37, 0
4, 40515, Note_on_c, 9, 37, 83
4, 40537, Note_off_c, 9, 37, 0
4, 40577, Note_on_c, 9, 37, 71
4, 40601, Note_off_c, 9, 37, 0
4, 40610, Note_on_c, 9, 37, 85
4, 40633, Note_off_c, 9, 37, 0
4, 40673, Note_on_c, 9, 37, 66
4, 40696, Note_off_c, 9, 37, 0
4, 40708, Note_on_c, 9, 37, 91
4, 40730, Note_off_c, 9, 37, 0
4, 40770, Note_on_c, 9, 37, 67
4, 40794, Note_off_c, 9, 37, 0
4, 40803, Note_on_c, 9, 37, 80
4, 40825, Note_off_c, 9, 37, 0
4, 40866, Note_on_c, 9, 37, 71
4, 40890, Note_off_c, 9, 37, 0
4, 40899, Note_on_c, 9, 37, 90
4, 40921, Note_off_c, 9, 37, 0
4, 40961, Note_on_c, 9, 37, 67
4, 40985, Note_off_c, 9, 37, 0
4, 40994, Note_on_c, 9, 37, 88
4, 41018, Note_off_c, 9, 37, 0
4, 41060, Note_on_c, 9, 37, 70
4, 41082, Note_off_c, 9, 37, 0
4, 41089, Note_on_c, 9, 37, 85
4, 41112, Note_off_c, 9, 37, 0
4, 41155, Note_on_c, 9, 37, 66
4, 41178, Note_off_c, 9, 37, 0
4, 41187, Note_on_c, 9, 37, 87
4, 41209, Note_off_c, 9, 37, 0
4, 41251, Note_on_c, 9, 37, 70
4, 41274, Note_off_c, 9, 37, 0
4, 41283, Note_on_c, 9, 37, 85
4, 41305, Note_off_c, 9, 37, 0
4, 41346, Note_on_c, 9, 37, 60
4, 41370, Note_off_c, 9, 37, 0
4, 41378, Note_on_c, 9, 37, 84
4, 41401, Note_off_c, 9, 37, 0
4, 41443, Note_on_c, 9, 37, 67
4, 41466, Note_off_c, 9, 37, 0
4, 41476, Note_on_c, 9, 37, 88
4, 41498, Note_off_c, 9, 37, 0
4, 41538, Note_on_c, 9, 37, 67
4, 41562, Note_off_c, 9, 37, 0
4, 41572, Note_on_c, 9, 37, 83
4, 41593, Note_off_c, 9, 37, 0
4, 41633, Note_on_c, 9, 37, 68
4, 41657, Note_off_c, 9, 37, 0
4, 41667, Note_on_c, 9, 37, 84
4, 41689, Note_off_c, 9, 37, 0
4, 41730, Note_on_c, 9, 37, 65
4, 41753, Note_off_c, 9, 37, 0
4, 41764, Note_on_c, 9, 37, 84
4, 41786, Note_off_c, 9, 37, 0
4, 41828, Note_on_c, 9, 37, 65
4, 41850, Note_off_c, 9, 37, 0
4, 41858, Note_on_c, 9, 37, 84
4, 41881, Note_off_c, 9, 37, 0
4, 41924, Note_on_c, 9, 37, 69
4, 41946, Note_off_c, 9, 37, 0
4, 41955, Note_on_c, 9, 37, 88
4, 41977, Note_off_c, 9, 37, 0
4, 42020, Note_on_c, 9, 37, 62
4, 42043, Note_off_c, 9, 37, 0
4, 42051, Note_on_c, 9, 37, 87
4, 42072, Note_off_c, 9, 37, 0
4, 42113, Note_on_c, 9, 37, 62
4, 42137, Note_off_c, 9, 37, 0
4, 42148, Note_on_c, 9, 37, 89
4, 42170, Note_off_c, 9, 37, 0
4, 42211, Note_on_c, 9, 37, 64
4, 42234, Note_off_c, 9, 37, 0
4, 42243, Note_on_c, 9, 37, 87
4, 42265, Note_off_c, 9, 37, 0
4, 42304, Note_on_c, 9, 37, 70
4, 42329, Note_off_c, 9, 37, 0
4, 42341, Note_on_c, 9, 37, 85
4, 42362, Note_off_c, 9, 37, 0
4, 42402, Note_on_c, 9, 37, 69
4, 42426, Note_off_c, 9, 37, 0
4, 42433, Note_on_c, 9, 37, 92
4, 42456, Note_off_c, 9, 37, 0
4, 42498, Note_on_c, 9, 37, 63
4, 42522, Note_off_c, 9, 37, 0
4, 42530, Note_on_c, 9, 37, 84
4, 42553, Note_off_c, 9, 37, 0
4, 42596, Note_on_c, 9, 37, 65
4, 42618, Note_off_c, 9, 37, 0
4, 42628, Note_on_c, 9, 37, 85
4, 42650, Note_off_c, 9, 37, 0
4, 42690, Note_on_c, 9, 37, 67
4, 42713, Note_off_c, 9, 37, 0
4, 42723, Note_on_c, 9, 37, 87
4, 42744, Note_off_c, 9, 37, 0
4, 42787, Note_on_c, 9, 37, 68
4, 42809, Note_off_c, 9, 37, 0
4, 42819, Note_on_c, 9, 37, 84
4, 42842, Note_off_c, 9, 37, 0
4, 42882, Note_on_c, 9, 37, 62
4, 42906, Note_off_c, 9, 37, 0
4, 42914, Note_on_c, 9, 37, 90
4, 42937, Note_off_c, 9, 37, 0
4, 42978, Note_on_c, 9, 37, 65
4, 43001, Note_off_c, 9, 37, 0
4, 43012, Note_on_c, 9, 37, 88
4, 43034, Note_off_c, 9, 37, 0
4, 43073, Note_on_c, 9, 37, 63
4, 43097, Note_off_c, 9, 37, 0
4, 43107, Note_on_c, 9, 37, 89
4, 43128, Note_off_c, 9, 37, 0
4, 43170, Note_on_c, 9, 37, 62
4, 43194, Note_off_c, 9, 37, 0
4, 43203, Note_on_c, 9, 37, 91
4, 43226, Note_off_c, 9, 37, 0
4, 43265, Note_on_c, 9, 37, 69
4, 43289, Note_off_c, 9, 37, 0
4, 43299, Note_on_c, 9, 37, 91
4, 43321, Note_off_c, 9, 37, 0
4, 43363, Note_on_c, 9, 37, 60
4, 43385, Note_off_c, 9, 37, 0
4, 43395, Note_on_c, 9, 37, 93
4, 43416, Note_off_c, 9, 37, 0
4, 43458, Note_on_c, 9, 37, 67
4, 43481, Note_off_c, 9, 37, 0
4, 43492, Note_on_c, 9, 37, 90
4, 43513, Note_off_c, 9, 37, 0
4, 43554, Note_on_c, 9, 37, 61
4, 43577, Note_off_c, 9, 37, 0
4, 43586, Note_on_c, 9, 37, 87
4, 43610, Note_off_c, 9, 37, 0
4, 43650, Note_on_c, 9, 37, 71
4, 43673, Note_off_c, 9, 37, 0
4, 43684, Note_on_c, 9, 37, 82
4, 43706, Note_off_c, 9, 37, 0
4, 43747, Note_on_c, 9, 37, 71
4, 43770, Note_off_c, 9, 37, 0
4, 43779, Note_on_c, 9, 37, 87
4, 43801, Note_off_c, 9, 37, 0
4, 43842, Note_on_c, 9, 37, 63
4, 43866, Note_off_c, 9, 37, 0
4, 43875, Note_on_c, 9, 37, 87
4, 43897, Note_off_c, 9, 37, 0
4, 43939, Note_on_c, 9, 37, 62
4, 43962, Note_off_c, 9, 37, 0
4, 43971, Note_on_c, 9, 37, 87
4, 43994, Note_off_c, 9, 37, 0
4, 44033, Note_on_c, 9, 37, 64
4, 44057, Note_off_c, 9, 37, 0
4, 44067, Note_on_c, 9, 37, 85
4, 44090, Note_off_c, 9, 37, 0
4, 44130, Note_on_c, 9, 37, 65
4, 44153, Note_off_c, 9, 37, 0
4, 44164, Note_on_c, 9, 37, 83
4, 44185, Note_off_c, 9, 37, 0
4, 44228, Note_on_c, 9, 37, 69
4, 44250, Note_off_c, 9, 37, 0
4, 44261, Note_on_c, 9, 37, 86
4, 44282, Note_off_c, 9, 37, 0
4, 44323, Note_on_c, 9, 37, 66
4, 44345, Note_off_c, 9, 37, 0
4, 44353, Note_on_c, 9, 37, 83
4, 44377, Note_off_c, 9, 37, 0
4, 44418, Note_on_c, 9, 37, 65
4, 44441, Note_off_c, 9, 37, 0
4, 44452, Note_on_c, 9, 37, 83
4, 44474, Note_off_c, 9, 37, 0
4, 44515, Note_on_c, 9, 37, 63
4, 44538, Note_off_c, 9, 37, 0
4, 44549, Note_on_c, 9, 37, 82
4, 44570, Note_off_c, 9, 37, 0
4, 44609, Note_on_c, 9, 37, 64
4, 44633, Note_off_c, 9, 37, 0
4, 44645, Note_on_c, 9, 37, 89
4, 44666, Note_off_c, 9, 37, 0
4, 44706, Note_on_c, 9, 37, 71
4, 44729, Note_off_c, 9, 37, 0
4, 44740, Note_on_c, 9, 37, 85
4, 44763, Note_off_c, 9, 37, 0
4, 44802, Note_on_c, 9, 37, 69
4, 44826, Note_off_c, 9, 37, 0
4, 44836, Note_on_c, 9, 37, 88
4, 44858, Note_off_c, 9, 37, 0
4, 44898, Note_on_c, 9, 37, 61
4, 44921, Note_off_c, 9, 37, 0
4, 44932, Note_on_c, 9, 37, 86
4, 44954, Note_off_c, 9, 37, 0
4, 44994, Note_on_c, 9, 37, 67
4, 45017, Note_off_c, 9, 37, 0
4, 45028, Note_on_c, 9, 37, 90
4, 45049, Note_off_c, 9, 37, 0
4, 45092, Note_on_c, 9, 37, 65
4, 45114, Note_off_c, 9, 37, 0
4, 45121, Note_on_c, 9, 37, 88
4, 45144, Note_off_c, 9, 37, 0
4, 45186, Note_on_c, 9, 37, 72
4, 45209, Note_off_c, 9, 37, 0
4, 45218, Note_on_c, 9, 37, 81
4, 45241, Note_off_c, 9, 37, 0
4, 45284, Note_on_c, 9, 37, 69
4, 45306, Note_off_c, 9, 37, 0
4, 45316, Note_on_c, 9, 37, 84
4, 45337, Note_off_c, 9, 37, 0
4, 45378, Note_on_c, 9, 37, 61
4, 45402, Note_off_c, 9, 37, 0
4, 45411, Note_on_c, 9, 37, 83
4, 45433, Note_off_c, 9, 37, 0
4, 45474, Note_on_c, 9, 37, 62
4, 45497, Note_off_c, 9, 37, 0
4, 45507, Note_on_c, 9, 37, 87
4, 45530, Note_off_c, 9, 37, 0
4, 45569, Note_on_c, 9, 37, 72
4, 45593, Note_off_c, 9, 37, 0
4, 45602, Note_on_c, 9, 37, 88
4, 45625, Note_off_c, 9, 37, 0
4, 45667, Note_on_c, 9, 37, 66
4, 45689, Note_off_c, 9, 37, 0
4, 45701, Note_on_c, 9, 37, 81
4, 45722, Note_off_c, 9, 37, 0
4, 45762, Note_on_c, 9, 37, 66
4, 45785, Note_off_c, 9, 37, 0
4, 45795, Note_on_c, 9, 37, 88
4, 45816, Note_off_c, 9, 37, 0
4, 45860, Note_on_c, 9, 37, 61
4, 45882, Note_off_c, 9, 37, 0
4, 45890, Note_on_c, 9, 37, 88
4, 45913, Note_off_c, 9, 37, 0
4, 45953, Note_on_c, 9, 37, 64
4, 45977, Note_off_c, 9, 37, 0
4, 45987, Note_on_c, 9, 37, 85
4, 46009, Note_off_c, 9, 37, 0
4, 46051, Note_on_c, 9, 37, 66
4, 46074, Note_off_c, 9, 37, 0
4, 46074, End_track
5, 0, Start_track
5, 0, Text_t, "crash   "
5, 0, Channel_prefix, 9
5, 4611, Note_on_c, 9, 49, 42
5, 4633, Note_off_c, 9, 49, 0
5, 9219, Note_on_c, 9, 49, 45
5, 9243, Note_off_c, 9, 49, 0
5, 13826, Note_on_c, 9, 49, 41
5, 13849, Note_off_c, 9, 49, 0
5, 18435, Note_on_c, 9, 49, 40
5, 18458, Note_off_c, 9, 49, 0
5, 23042, Note_on_c, 9, 49, 43
5, 23065, Note_off_c, 9, 49, 0
5, 27652, Note_on_c, 9, 49, 44
5, 27674, Note_off_c, 9, 49, 0
5, 32260, Note_on_c, 9, 49, 45
5, 32281, Note_off_c, 9, 49, 0
5, 36100, Note_on_c, 9, 49, 71
5, 36122, Note_off_c, 9, 49, 0
5, 37636, Note_on_c, 9, 49, 40
5, 37658, Note_off_c, 9, 49, 0
5, 42245, Note_on_c, 9, 49, 37
5, 42266, Note_off_c, 9, 49, 0
5, 46655, Note_on_c, 9, 49, 80
5, 46676, Note_off_c, 9, 49, 0
5, 48003, Note_on_c, 9, 49, 41
5, 48025, Note_off_c, 9, 49, 0
5, 48025, End_track
6, 0, Start_track
6, 0, Text_t, "ride    "
6, 0, Channel_prefix, 9
6, 13826, Note_on_c, 9, 51, 110
6, 13850, Note_off_c, 9, 51, 0
6, 13924, Note_on_c, 9, 51, 88
6, 13947, Note_off_c, 9, 51, 0
6, 13987, Note_on_c, 9, 51, 41
6, 14010, Note_off_c, 9, 51, 0
6, 14020, Note_on_c, 9, 51, 88
6, 14043, Note_off_c, 9, 51, 0
6, 14114, Note_on_c, 9, 51, 97
6, 14138, Note_off_c, 9, 51, 0
6, 14177, Note_on_c, 9, 51, 10
6, 14201, Note_off_c, 9, 51, 0
6, 14211, Note_on_c, 9, 51, 60
6, 14234, Note_off_c, 9, 51, 0
6, 14308, Note_on_c, 9, 51, 92
6, 14331, Note_off_c, 9, 51, 0
6, 14370, Note_on_c, 9, 51, 37
6, 14394, Note_off_c, 9, 51, 0
6, 14404, Note_on_c, 9, 51, 94
6, 14427, Note_off_c, 9, 51, 0
6, 14500, Note_on_c, 9, 51, 101
6, 14523, Note_off_c, 9, 51, 0
6, 14561, Note_on_c, 9, 51, 46
6, 14585, Note_off_c, 9, 51, 0
6, 14595, Note_on_c, 9, 51, 85
6, 14619, Note_off_c, 9, 51, 0
6, 14691, Note_on_c, 9, 51, 99
6, 14714, Note_off_c, 9, 51, 0
6, 14754, Note_on_c, 9, 51, 23
6, 14778, Note_off_c, 9, 51, 0
6, 14787, Note_on_c, 9, 51, 91
6, 14810, Note_off_c, 9, 51, 0
6, 14883, Note_on_c, 9, 51, 101
6, 14906, Note_off_c, 9, 51, 0
6, 14946, Note_on_c, 9, 51, 54
6, 14970, Note_off_c, 9, 51, 0
6, 14978, Note_on_c, 9, 51, 88
6, 15002, Note_off_c, 9, 51, 0
6, 15075, Note_on_c, 9, 51, 108
6, 15097, Note_off_c, 9, 51, 0
6, 15138, Note_on_c, 9, 51, 53
6, 15161, Note_off_c, 9, 51, 0
6, 15172, Note_on_c, 9, 51, 85
6, 15194, Note_off_c, 9, 51, 0
6, 15268, Note_on_c, 9, 51, 105
6, 15291, Note_off_c, 9, 51, 0
6, 15329, Note_on_c, 9, 51, 15
6, 15353, Note_off_c, 9, 51, 0
6, 15364, Note_on_c, 9, 51, 53
6, 15386, Note_off_c, 9, 51, 0
6, 15460, Note_on_c, 9, 51, 106
6, 15482, Note_off_c, 9, 51, 0
6, 15522, Note_on_c, 9, 51, 43
6, 15545, Note_off_c, 9, 51, 0
6, 15555, Note_on_c, 9, 51, 70
6, 15578, Note_off_c, 9, 51, 0
6, 15650, Note_on_c, 9, 51, 104
6, 15673, Note_off_c, 9, 51, 0
6, 15714, Note_on_c, 9, 51, 36
6, 15737, Note_off_c, 9, 51, 0
6, 15746, Note_on_c, 9, 51, 59
6, 15769, Note_off_c, 9, 51, 0
6, 15843, Note_on_c, 9, 51, 116
6, 15866, Note_off_c, 9, 51, 0
6, 15906, Note_on_c, 9, 51, 35
6, 15929, Note_off_c, 9, 51, 0
6, 15939, Note_on_c, 9, 51, 65
6, 15961, Note_off_c, 9, 51, 0
6, 16049, Note_on_c, 9, 51, 107
6, 16073, Note_off_c, 9, 51, 0
6, 16097, Note_on_c, 9, 51, 63
6, 16121, Note_off_c, 9, 51, 0
6, 16131, Note_on_c, 9, 51, 34
6, 16155, Note_off_c, 9, 51, 0
6, 16227, Note_on_c, 9, 51, 113
6, 16251, Note_off_c, 9, 51, 0
6, 16289, Note_on_c, 9, 51, 65
6, 16313, Note_off_c, 9, 51, 0
6, 16324, Note_on_c, 9, 51, 94
6, 16346, Note_off_c, 9, 51, 0
6, 16418, Note_on_c, 9, 51, 120
6, 16441, Note_off_c, 9, 51, 0
6, 16483, Note_on_c, 9, 51, 66
6, 16506, Note_off_c, 9, 51, 0
6, 16514, Note_on_c, 9, 51, 92
6, 16537, Note_off_c, 9, 51, 0
6, 16612, Note_on_c, 9, 51, 114
6, 16634, Note_off_c, 9, 51, 0
6, 16675, Note_on_c, 9, 51, 55
6, 16698, Note_off_c, 9, 51, 0
6, 16707, Note_on_c, 9, 51, 71
6, 16730, Note_off_c, 9, 51, 0
6, 16803, Note_on_c, 9, 51, 111
6, 16825, Note_off_c, 9, 51, 0
6, 16867, Note_on_c, 9, 51, 68
6, 16890, Note_off_c, 9, 51, 0
6, 16900, Note_on_c, 9, 51, 86
6, 16922, Note_off_c, 9, 51, 0
6, 16996, Note_on_c, 9, 51, 116
6, 17018, Note_off_c, 9, 51, 0
6, 17058, Note_on_c, 9, 51, 69
6, 17081, Note_off_c, 9, 51, 0
6, 17090, Note_on_c, 9, 51, 89
6, 17113, Note_off_c, 9, 51, 0
6, 17188, Note_on_c, 9, 51, 117
6, 17210, Note_off_c, 9, 51, 0
6, 17251, Note_on_c, 9, 51, 54
6, 17274, Note_off_c, 9, 51, 0
6, 17380, Note_on_c, 9, 51, 111
6, 17403, Note_off_c, 9, 51, 0
6, 17442, Note_on_c, 9, 51, 71
6, 17465, Note_off_c, 9, 51, 0
6, 17476, Note_on_c, 9, 51, 98
6, 17498, Note_off_c, 9, 51, 0
6, 17572, Note_on_c, 9, 51, 102
6, 17595, Note_off_c, 9, 51, 0
6, 17633, Note_on_c, 9, 51, 64
6, 17657, Note_off_c, 9, 51, 0
6, 17668, Note_on_c, 9, 51, 91
6, 17691, Note_off_c, 9, 51, 0
6, 17763, Note_on_c, 9, 51, 108
6, 17785, Note_off_c, 9, 51, 0
6, 17826, Note_on_c, 9, 51, 62
6, 17849, Note_off_c, 9, 51, 0
6, 17859, Note_on_c, 9, 51, 98
6, 17882, Note_off_c, 9, 51, 0
6, 17956, Note_on_c, 9, 51, 112
6, 17978, Note_off_c, 9, 51, 0
6, 18018, Note_on_c, 9, 51, 75
6, 18041, Note_off_c, 9, 51, 0
6, 18051, Note_on_c, 9, 51, 87
6, 18074, Note_off_c, 9, 51, 0
6, 18149, Note_on_c, 9, 51, 111
6, 18170, Note_off_c, 9, 51, 0
6, 18212, Note_on_c, 9, 51, 63
6, 18235, Note_off_c, 9, 51, 0
6, 18244, Note_on_c, 9, 51, 78
6, 18266, Note_off_c, 9, 51, 0
6, 18340, Note_on_c, 9, 51, 116
6, 18363, Note_off_c, 9, 51, 0
6, 27652, Note_on_c, 9, 51, 110
6, 27674, Note_off_c, 9, 51, 0
6, 27748, Note_on_c, 9, 51, 82
6, 27770, Note_off_c, 9, 51, 0
6, 27810, Note_on_c, 9, 51, 50
6, 27834, Note_off_c, 9, 51, 0
6, 27843, Note_on_c, 9, 51, 78
6, 27865, Note_off_c, 9, 51, 0
6, 27938, Note_on_c, 9, 51, 95
6, 27961, Note_off_c, 9, 51, 0
6, 28004, Note_on_c, 9, 51, 3
6, 28027, Note_off_c, 9, 51, 0
6, 28035, Note_on_c, 9, 51, 62
6, 28059, Note_off_c, 9, 51, 0
6, 28131, Note_on_c, 9, 51, 91
6, 28154, Note_off_c, 9, 51, 0
6, 28196, Note_on_c, 9, 51, 37
6, 28218, Note_off_c, 9, 51, 0
6, 28229, Note_on_c, 9, 51, 87
6, 28251, Note_off_c, 9, 51, 0
6, 28324, Note_on_c, 9, 51, 105
6, 28346, Note_off_c, 9, 51, 0
6, 28386, Note_on_c, 9, 51, 53
6, 28410, Note_off_c, 9, 51, 0
6, 28421, Note_on_c, 9, 51, 85
6, 28443, Note_off_c, 9, 51, 0
6, 28516, Note_on_c, 9, 51, 105
6, 28538, Note_off_c, 9, 51, 0
6, 28578, Note_on_c, 9, 51, 18
6, 28601, Note_off_c, 9, 51, 0
6, 28613, Note_on_c, 9, 51, 86
6, 28635, Note_off_c, 9, 51, 0
6, 28707, Note_on_c, 9, 51, 106
6, 28730, Note_off_c, 9, 51, 0
6, 28770, Note_on_c, 9, 51, 50
6, 28793, Note_off_c, 9, 51, 0
6, 28803, Note_on_c, 9, 51, 82
6, 28826, Note_off_c, 9, 51, 0
6, 28899, Note_on_c, 9, 51, 111
6, 28921, Note_off_c, 9, 51, 0
6, 28964, Note_on_c, 9, 51, 48
6, 28986, Note_off_c, 9, 51, 0
6, 28996, Note_on_c, 9, 51, 88
6, 29018, Note_off_c, 9, 51, 0
6, 29091, Note_on_c, 9, 51, 103
6, 29114, Note_off_c, 9, 51, 0
6, 29154, Note_on_c, 9, 51, 16
6, 29178, Note_off_c, 9, 51, 0
6, 29188, Note_on_c, 9, 51, 54
6, 29210, Note_off_c, 9, 51, 0
6, 29284, Note_on_c, 9, 51, 114
6, 29305, Note_off_c, 9, 51, 0
6, 29346, Note_on_c, 9, 51, 47
6, 29369, Note_off_c, 9, 51, 0
6, 29380, Note_on_c, 9, 51, 70
6, 29402, Note_off_c, 9, 51, 0
6, 29475, Note_on_c, 9, 51, 105
6, 29497, Note_off_c, 9, 51, 0
6, 29538, Note_on_c, 9, 51, 33
6, 29561, Note_off_c, 9, 51, 0
6, 29570, Note_on_c, 9, 51, 56
6, 29593, Note_off_c, 9, 51, 0
6, 29667, Note_on_c, 9, 51, 121
6, 29689, Note_off_c, 9, 51, 0
6, 29732, Note_on_c, 9, 51, 37
6, 29754, Note_off_c, 9, 51, 0
6, 29763, Note_on_c, 9, 51, 69
6, 29785, Note_off_c, 9, 51, 0
6, 29873, Note_on_c, 9, 51, 113
6, 29897, Note_off_c, 9, 51, 0
6, 29923, Note_on_c, 9, 51, 60
6, 29946, Note_off_c, 9, 51, 0
6, 29955, Note_on_c, 9, 51, 31
6, 29977, Note_off_c, 9, 51, 0
6, 30052, Note_on_c, 9, 51, 112
6, 30073, Note_off_c, 9, 51, 0
6, 30113, Note_on_c, 9, 51, 66
6, 30137, Note_off_c, 9, 51, 0
6, 30147, Note_on_c, 9, 51, 91
6, 30169, Note_off_c, 9, 51, 0
6, 30243, Note_on_c, 9, 51, 120
6, 30266, Note_off_c, 9, 51, 0
6, 30307, Note_on_c, 9, 51, 69
6, 30329, Note_off_c, 9, 51, 0
6, 30339, Note_on_c, 9, 51, 93
6, 30362, Note_off_c, 9, 51, 0
6, 30436, Note_on_c, 9, 51, 113
6, 30458, Note_off_c, 9, 51, 0
6, 30499, Note_on_c, 9, 51, 49
6, 30522, Note_off_c, 9, 51, 0
6, 30532, Note_on_c, 9, 51, 63
6, 30554, Note_off_c, 9, 51, 0
6, 30628, Note_on_c, 9, 51, 109
6, 30650, Note_off_c, 9, 51, 0
6, 30690, Note_on_c, 9, 51, 70
6, 30713, Note_off_c, 9, 51, 0
6, 30724, Note_on_c, 9, 51, 85
6, 30746, Note_off_c, 9, 51, 0
6, 30820, Note_on_c, 9, 51, 115
6, 30841, Note_off_c, 9, 51, 0
6, 30882, Note_on_c, 9, 51, 67
6, 30906, Note_off_c, 9, 51, 0
6, 30915, Note_on_c, 9, 51, 93
6, 30937, Note_off_c, 9, 51, 0
6, 31010, Note_on_c, 9, 51, 123
6, 31033, Note_off_c, 9, 51, 0
6, 31076, Note_on_c, 9, 51, 53
6, 31099, Note_off_c, 9, 51, 0
6, 31203, Note_on_c, 9, 51, 115
6, 31225, Note_off_c, 9, 51, 0
6, 31267, Note_on_c, 9, 51, 76
6, 31289, Note_off_c, 9, 51, 0
6, 31299, Note_on_c, 9, 51, 98
6, 31321, Note_off_c, 9, 51, 0
6, 31395, Note_on_c, 9, 51, 109
6, 31417, Note_off_c, 9, 51, 0
6, 31457, Note_on_c, 9, 51, 64
6, 31481, Note_off_c, 9, 51, 0
6, 31491, Note_on_c, 9, 51, 95
6, 31513, Note_off_c, 9, 51, 0
6, 31588, Note_on_c, 9, 51, 106
6, 31609, Note_off_c, 9, 51, 0
6, 31650, Note_on_c, 9, 51, 54
6, 31674, Note_off_c, 9, 51, 0
6, 31685, Note_on_c, 9, 51, 96
6, 31706, Note_off_c, 9, 51, 0
6, 31779, Note_on_c, 9, 51, 117
6, 31801, Note_off_c, 9, 51, 0
6, 31844, Note_on_c, 9, 51, 80
6, 31866, Note_off_c, 9, 51, 0
6, 31876, Note_on_c, 9, 51, 84
6, 31899, Note_off_c, 9, 51, 0
6, 31970, Note_on_c, 9, 51, 120
6, 31993, Note_off_c, 9, 51, 0
6, 32036, Note_on_c, 9, 51, 59
6, 32058, Note_off_c, 9, 51, 0
6, 32068, Note_on_c, 9, 51, 80
6, 32089, Note_off_c, 9, 51, 0
6, 32163, Note_on_c, 9, 51, 121
6, 32185, Note_off_c, 9, 51, 0
6, 32261, Note_on_c, 9, 51, 107
6, 32283, Note_off_c, 9, 51, 0
6, 32357, Note_on_c, 9, 51, 85
6, 32378, Note_off_c, 9, 51, 0
6, 32419, Note_on_c, 9, 51, 43
6, 32443, Note_off_c, 9, 51, 0
6, 32451, Note_on_c, 9, 51, 87
6, 32474, Note_off_c, 9, 51, 0
6, 32547, Note_on_c, 9, 51, 92
6, 32570, Note_off_c, 9, 51, 0
6, 32611, Note_on_c, 9, 51, 2
6, 32634, Note_off_c, 9, 51, 0
6, 32643, Note_on_c, 9, 51, 64
6, 32665, Note_off_c, 9, 51, 0
6, 32740, Note_on_c, 9, 51, 93
6, 32761, Note_off_c, 9, 51, 0
6, 32803, Note_on_c, 9, 51, 38
6, 32825, Note_off_c, 9, 51, 0
6, 32835, Note_on_c, 9, 51, 89
6, 32858, Note_off_c, 9, 51, 0
6, 32932, Note_on_c, 9, 51, 106
6, 32954, Note_off_c, 9, 51, 0
6, 32995, Note_on_c, 9, 51, 56
6, 33018, Note_off_c, 9, 51, 0
6, 33028, Note_on_c, 9, 51, 89
6, 33050, Note_off_c, 9, 51, 0
6, 33123, Note_on_c, 9, 51, 100
6, 33145, Note_off_c, 9, 51, 0
6, 33186, Note_on_c, 9, 51, 22
6, 33209, Note_off_c, 9, 51, 0
6, 33219, Note_on_c, 9, 51, 93
6, 33242, Note_off_c, 9, 51, 0
6, 33315, Note_on_c, 9, 51, 107
6, 33338, Note_off_c, 9, 51, 0
6, 33379, Note_on_c, 9, 51, 50
6, 33401, Note_off_c, 9, 51, 0
6, 33411, Note_on_c, 9, 51, 81
6, 33433, Note_off_c, 9, 51, 0
6, 33509, Note_on_c, 9, 51, 101
6, 33530, Note_off_c, 9, 51, 0
6, 33572, Note_on_c, 9, 51, 51
6, 33594, Note_off_c, 9, 51, 0
6, 33604, Note_on_c, 9, 51, 83
6, 33627, Note_off_c, 9, 51, 0
6, 33699, Note_on_c, 9, 51, 105
6, 33721, Note_off_c, 9, 51, 0
6, 33762, Note_on_c, 9, 51, 9
6, 33785, Note_off_c, 9, 51, 0
6, 33797, Note_on_c, 9, 51, 48
6, 33819, Note_off_c, 9, 51, 0
6, 33891, Note_on_c, 9, 51, 108
6, 33913, Note_off_c, 9, 51, 0
6, 33955, Note_on_c, 9, 51, 41
6, 33978, Note_off_c, 9, 51, 0
6, 33988, Note_on_c, 9, 51, 73
6, 34011, Note_off_c, 9, 51, 0
6, 34084, Note_on_c, 9, 51, 101
6, 34107, Note_off_c, 9, 51, 0
6, 34148, Note_on_c, 9, 51, 31
6, 34170, Note_off_c, 9, 51, 0
6, 34181, Note_on_c, 9, 51, 62
6, 34203, Note_off_c, 9, 51, 0
6, 34276, Note_on_c, 9, 51, 114
6, 34297, Note_off_c, 9, 51, 0
6, 34340, Note_on_c, 9, 51, 34
6, 34362, Note_off_c, 9, 51, 0
6, 34370, Note_on_c, 9, 51, 75
6, 34393, Note_off_c, 9, 51, 0
6, 34481, Note_on_c, 9, 51, 113
6, 34505, Note_off_c, 9, 51, 0
6, 34531, Note_on_c, 9, 51, 60
6, 34554, Note_off_c, 9, 51, 0
6, 34565, Note_on_c, 9, 51, 35
6, 34587, Note_off_c, 9, 51, 0
6, 34660, Note_on_c, 9, 51, 108
6, 34681, Note_off_c, 9, 51, 0
6, 34722, Note_on_c, 9, 51, 63
6, 34746, Note_off_c, 9, 51, 0
6, 34754, Note_on_c, 9, 51, 93
6, 34777, Note_off_c, 9, 51, 0
6, 34851, Note_on_c, 9, 51, 116
6, 34873, Note_off_c, 9, 51, 0
6, 34916, Note_on_c, 9, 51, 67
6, 34938, Note_off_c, 9, 51, 0
6, 34948, Note_on_c, 9, 51, 84
6, 34970, Note_off_c, 9, 51, 0
6, 35044, Note_on_c, 9, 51, 110
6, 35066, Note_off_c, 9, 51, 0
6, 35108, Note_on_c, 9, 51, 57
6, 35131, Note_off_c, 9, 51, 0
6, 35139, Note_on_c, 9, 51, 68
6, 35162, Note_off_c, 9, 51, 0
6, 35235, Note_on_c, 9, 51, 111
6, 35258, Note_off_c, 9, 51, 0
6, 35298, Note_on_c, 9, 51, 66
6, 35321, Note_off_c, 9, 51, 0
6, 35332, Note_on_c, 9, 51, 94
6, 35353, Note_off_c, 9, 51, 0
6, 35428, Note_on_c, 9, 51, 115
6, 35450, Note_off_c, 9, 51, 0
6, 35491, Note_on_c, 9, 51, 65
6, 35514, Note_off_c, 9, 51, 0
6, 35523, Note_on_c, 9, 51, 91
6, 35546, Note_off_c, 9, 51, 0
6, 35619, Note_on_c, 9, 51, 116
6, 35641, Note_off_c, 9, 51, 0
6, 35684, Note_on_c, 9, 51, 55
6, 35706, Note_off_c, 9, 51, 0
6, 35811, Note_on_c, 9, 51, 109
6, 35833, Note_off_c, 9, 51, 0
6, 35875, Note_on_c, 9, 51, 76
6, 35898, Note_off_c, 9, 51, 0
6, 35906, Note_on_c, 9, 51, 93
6, 35929, Note_off_c, 9, 51, 0
6, 36004, Note_on_c, 9, 51, 101
6, 36026, Note_off_c, 9, 51, 0
6, 36067, Note_on_c, 9, 51, 61
6, 36090, Note_off_c, 9, 51, 0
6, 37637, Note_on_c, 9, 51, 104
6, 37659, Note_off_c, 9, 51, 0
6, 37732, Note_on_c, 9, 51, 88
6, 37754, Note_off_c, 9, 51, 0
6, 37794, Note_on_c, 9, 51, 42
6, 37818, Note_off_c, 9, 51, 0
6, 37828, Note_on_c, 9, 51, 81
6, 37850, Note_off_c, 9, 51, 0
6, 37924, Note_on_c, 9, 51, 98
6, 37947, Note_off_c, 9, 51, 0
6, 37987, Note_on_c, 9, 51, 6
6, 38010, Note_off_c, 9, 51, 0
6, 38019, Note_on_c, 9, 51, 61
6, 38043, Note_off_c, 9, 51, 0
6, 38114, Note_on_c, 9, 51, 98
6, 38137, Note_off_c, 9, 51, 0
6, 38178, Note_on_c, 9, 51, 32
6, 38201, Note_off_c, 9, 51, 0
6, 38212, Note_on_c, 9, 51, 94
6, 38234, Note_off_c, 9, 51, 0
6, 38308, Note_on_c, 9, 51, 98
6, 38330, Note_off_c, 9, 51, 0
6, 38371, Note_on_c, 9, 51, 48
6, 38394, Note_off_c, 9, 51, 0
6, 38405, Note_on_c, 9, 51, 85
6, 38427, Note_off_c, 9, 51, 0
6, 38500, Note_on_c, 9, 51, 101
6, 38522, Note_off_c, 9, 51, 0
6, 38562, Note_on_c, 9, 51, 12
6, 38585, Note_off_c, 9, 51, 0
6, 38596, Note_on_c, 9, 51, 87
6, 38618, Note_off_c, 9, 51, 0
6, 38692, Note_on_c, 9, 51, 104
6, 38714, Note_off_c, 9, 51, 0
6, 38755, Note_on_c, 9, 51, 58
6, 38777, Note_off_c, 9, 51, 0
6, 38787, Note_on_c, 9, 51, 87
6, 38810, Note_off_c, 9, 51, 0
6, 38883, Note_on_c, 9, 51, 108
6, 38906, Note_off_c, 9, 51, 0
6, 38947, Note_on_c, 9, 51, 50
6, 38969, Note_off_c, 9, 51, 0
6, 38980, Note_on_c, 9, 51, 88
6, 39002, Note_off_c, 9, 51, 0
6, 39075, Note_on_c, 9, 51, 109
6, 39098, Note_off_c, 9, 51, 0
6, 39138, Note_on_c, 9, 51, 14
6, 39161, Note_off_c, 9, 51, 0
6, 39172, Note_on_c, 9, 51, 56
6, 39194, Note_off_c, 9, 51, 0
6, 39269, Note_on_c, 9, 51, 104
6, 39290, Note_off_c, 9, 51, 0
6, 39330, Note_on_c, 9, 51, 47
6, 39353, Note_off_c, 9, 51, 0
6, 39365, Note_on_c, 9, 51, 70
6, 39387, Note_off_c, 9, 51, 0
6, 39459, Note_on_c, 9, 51, 104
6, 39481, Note_off_c, 9, 51, 0
6, 39522, Note_on_c, 9, 51, 38
6, 39545, Note_off_c, 9, 51, 0
6, 39556, Note_on_c, 9, 51, 62
6, 39579, Note_off_c, 9, 51, 0
6, 39651, Note_on_c, 9, 51, 114
6, 39673, Note_off_c, 9, 51, 0
6, 39715, Note_on_c, 9, 51, 43
6, 39738, Note_off_c, 9, 51, 0
6, 39749, Note_on_c, 9, 51, 68
6, 39771, Note_off_c, 9, 51, 0
6, 39858, Note_on_c, 9, 51, 107
6, 39882, Note_off_c, 9, 51, 0
6, 39907, Note_on_c, 9, 51, 67
6, 39930, Note_off_c, 9, 51, 0
6, 39941, Note_on_c, 9, 51, 37
6, 39963, Note_off_c, 9, 51, 0
6, 40037, Note_on_c, 9, 51, 110
6, 40058, Note_off_c, 9, 51, 0
6, 40099, Note_on_c, 9, 51, 65
6, 40122, Note_off_c, 9, 51, 0
6, 40131, Note_on_c, 9, 51, 97
6, 40153, Note_off_c, 9, 51, 0
6, 40228, Note_on_c, 9, 51, 118
6, 40251, Note_off_c, 9, 51, 0
6, 40292, Note_on_c, 9, 51, 67
6, 40315, Note_off_c, 9, 51, 0
6, 40323, Note_on_c, 9, 51, 86
6, 40346, Note_off_c, 9, 51, 0
6, 40418, Note_on_c, 9, 51, 114
6, 40441, Note_off_c, 9, 51, 0
6, 40483, Note_on_c, 9, 51, 54
6, 40505, Note_off_c, 9, 51, 0
6, 40516, Note_on_c, 9, 51, 70
6, 40538, Note_off_c, 9, 51, 0
6, 40611, Note_on_c, 9, 51, 112
6, 40634, Note_off_c, 9, 51, 0
6, 40675, Note_on_c, 9, 51, 65
6, 40698, Note_off_c, 9, 51, 0
6, 40708, Note_on_c, 9, 51, 84
6, 40730, Note_off_c, 9, 51, 0
6, 40804, Note_on_c, 9, 51, 116
6, 40826, Note_off_c, 9, 51, 0
6, 40867, Note_on_c, 9, 51, 64
6, 40891, Note_off_c, 9, 51, 0
6, 40900, Note_on_c, 9, 51, 83
6, 40922, Note_off_c, 9, 51, 0
6, 40994, Note_on_c, 9, 51, 117
6, 41017, Note_off_c, 9, 51, 0
6, 41059, Note_on_c, 9, 51, 55
6, 41081, Note_off_c, 9, 51, 0
6, 41188, Note_on_c, 9, 51, 110
6, 41210, Note_off_c, 9, 51, 0
6, 41252, Note_on_c, 9, 51, 76
6, 41274, Note_off_c, 9, 51, 0
6, 41285, Note_on_c, 9, 51, 90
6, 41307, Note_off_c, 9, 51, 0
6, 41378, Note_on_c, 9, 51, 107
6, 41401, Note_off_c, 9, 51, 0
6, 41442, Note_on_c, 9, 51, 64
6, 41465, Note_off_c, 9, 51, 0
6, 41476, Note_on_c, 9, 51, 96
6, 41498, Note_off_c, 9, 51, 0
6, 41571, Note_on_c, 9, 51, 100
6, 41593, Note_off_c, 9, 51, 0
6, 41633, Note_on_c, 9, 51, 64
6, 41657, Note_off_c, 9, 51, 0
6, 41668, Note_on_c, 9, 51, 100
6, 41689, Note_off_c, 9, 51, 0
6, 41763, Note_on_c, 9, 51, 112
6, 41785, Note_off_c, 9, 51, 0
6, 41828, Note_on_c, 9, 51, 80
6, 41850, Note_off_c, 9, 51, 0
6, 41858, Note_on_c, 9, 51, 89
6, 41881, Note_off_c, 9, 51, 0
6, 41954, Note_on_c, 9, 51, 115
6, 41977, Note_off_c, 9, 51, 0
6, 42019, Note_on_c, 9, 51, 62
6, 42042, Note_off_c, 9, 51, 0
6, 42052, Note_on_c, 9, 51, 75
6, 42073, Note_off_c, 9, 51, 0
6, 42147, Note_on_c, 9, 51, 116
6, 42169, Note_off_c, 9, 51, 0
6, 42244, Note_on_c, 9, 51, 112
6, 42266, Note_off_c, 9, 51, 0
6, 42341, Note_on_c, 9, 51, 87
6, 42362, Note_off_c, 9, 51, 0
6, 42401, Note_on_c, 9, 51, 39
6, 42425, Note_off_c, 9, 51, 0
6, 42434, Note_on_c, 9, 51, 83
6, 42457, Note_off_c, 9, 51, 0
6, 42531, Note_on_c, 9, 51, 99
6, 42554, Note_off_c, 9, 51, 0
6, 42595, Note_on_c, 9, 51, 8
6, 42618, Note_off_c, 9, 51, 0
6, 42629, Note_on_c, 9, 51, 58
6, 42651, Note_off_c, 9, 51, 0
6, 42724, Note_on_c, 9, 51, 89
6, 42745, Note_off_c, 9, 51, 0
6, 42787, Note_on_c, 9, 51, 32
6, 42809, Note_off_c, 9, 51, 0
6, 42818, Note_on_c, 9, 51, 87
6, 42841, Note_off_c, 9, 51, 0
6, 42915, Note_on_c, 9, 51, 103
6, 42937, Note_off_c, 9, 51, 0
6, 42980, Note_on_c, 9, 51, 52
6, 43002, Note_off_c, 9, 51, 0
6, 43012, Note_on_c, 9, 51, 80
6, 43034, Note_off_c, 9, 51, 0
6, 43108, Note_on_c, 9, 51, 105
6, 43129, Note_off_c, 9, 51, 0
6, 43169, Note_on_c, 9, 51, 18
6, 43193, Note_off_c, 9, 51, 0
6, 43203, Note_on_c, 9, 51, 91
6, 43226, Note_off_c, 9, 51, 0
6, 43299, Note_on_c, 9, 51, 103
6, 43322, Note_off_c, 9, 51, 0
6, 43364, Note_on_c, 9, 51, 50
6, 43386, Note_off_c, 9, 51, 0
6, 43396, Note_on_c, 9, 51, 89
6, 43418, Note_off_c, 9, 51, 0
6, 43492, Note_on_c, 9, 51, 102
6, 43513, Note_off_c, 9, 51, 0
6, 43556, Note_on_c, 9, 51, 50
6, 43578, Note_off_c, 9, 51, 0
6, 43586, Note_on_c, 9, 51, 85
6, 43609, Note_off_c, 9, 51, 0
6, 43684, Note_on_c, 9, 51, 106
6, 43706, Note_off_c, 9, 51, 0
6, 43747, Note_on_c, 9, 51, 12
6, 43770, Note_off_c, 9, 51, 0
6, 43781, Note_on_c, 9, 51, 57
6, 43802, Note_off_c, 9, 51, 0
6, 43876, Note_on_c, 9, 51, 105
6, 43898, Note_off_c, 9, 51, 0
6, 43938, Note_on_c, 9, 51, 39
6, 43961, Note_off_c, 9, 51, 0
6, 43970, Note_on_c, 9, 51, 72
6, 43993, Note_off_c, 9, 51, 0
6, 44066, Note_on_c, 9, 51, 107
6, 44089, Note_off_c, 9, 51, 0
6, 44131, Note_on_c, 9, 51, 38
6, 44154, Note_off_c, 9, 51, 0
6, 44165, Note_on_c, 9, 51, 68
6, 44187, Note_off_c, 9, 51, 0
6, 44261, Note_on_c, 9, 51, 112
6, 44282, Note_off_c, 9, 51, 0
6, 44323, Note_on_c, 9, 51, 38
6, 44345, Note_off_c, 9, 51, 0
6, 44355, Note_on_c, 9, 51, 70
6, 44378, Note_off_c, 9, 51, 0
6, 44466, Note_on_c, 9, 51, 114
6, 44490, Note_off_c, 9, 51, 0
6, 44514, Note_on_c, 9, 51, 66
6, 44537, Note_off_c, 9, 51, 0
6, 44549, Note_on_c, 9, 51, 34
6, 44571, Note_off_c, 9, 51, 0
6, 44644, Note_on_c, 9, 51, 106
6, 44665, Note_off_c, 9, 51, 0
6, 44707, Note_on_c, 9, 51, 70
6, 44731, Note_off_c, 9, 51, 0
6, 44738, Note_on_c, 9, 51, 94
6, 44761, Note_off_c, 9, 51, 0
6, 44836, Note_on_c, 9, 51, 119
6, 44858, Note_off_c, 9, 51, 0
6, 44900, Note_on_c, 9, 51, 69
6, 44922, Note_off_c, 9, 51, 0
6, 44932, Note_on_c, 9, 51, 87
6, 44954, Note_off_c, 9, 51, 0
6, 45027, Note_on_c, 9, 51, 113
6, 45049, Note_off_c, 9, 51, 0
6, 45092, Note_on_c, 9, 51, 49
6, 45114, Note_off_c, 9, 51, 0
6, 45122, Note_on_c, 9, 51, 71
6, 45145, Note_off_c, 9, 51, 0
6, 45219, Note_on_c, 9, 51, 112
6, 45242, Note_off_c, 9, 51, 0
6, 45283, Note_on_c, 9, 51, 71
6, 45306, Note_off_c, 9, 51, 0
6, 45316, Note_on_c, 9, 51, 83
6, 45338, Note_off_c, 9, 51, 0
6, 45411, Note_on_c, 9, 51, 111
6, 45433, Note_off_c, 9, 51, 0
6, 45475, Note_on_c, 9, 51, 64
6, 45499, Note_off_c, 9, 51, 0
6, 45507, Note_on_c, 9, 51, 86
6, 45530, Note_off_c, 9, 51, 0
6, 45602, Note_on_c, 9, 51, 115
6, 45625, Note_off_c, 9, 51, 0
6, 45667, Note_on_c, 9, 51, 53
6, 45690, Note_off_c, 9, 51, 0
6, 45796, Note_on_c, 9, 51, 115
6, 45817, Note_off_c, 9, 51, 0
6, 45859, Note_on_c, 9, 51, 74
6, 45882, Note_off_c, 9, 51, 0
6, 45892, Note_on_c, 9, 51, 90
6, 45915, Note_off_c, 9, 51, 0
6, 45986, Note_on_c, 9, 51, 111
6, 46009, Note_off_c, 9, 51, 0
6, 46050, Note_on_c, 9, 51, 67
6, 46073, Note_off_c, 9, 51, 0
6, 46073, End_track
7, 0, Start_track
7, 0, Text_t, "hihat   "
7, 0, Channel_prefix, 9
7, 1540, Note_on_c, 9, 42, 90
7, 1562, Note_off_c, 9, 42, 0
7, 1730, Note_on_c, 9, 42, 86
7, 1754, Note_off_c, 9, 42, 0
7, 1922, Note_on_c, 9, 42, 92
7, 1946, Note_off_c, 9, 42, 0
7, 2113, Note_on_c, 9, 42, 91
7, 2137, Note_off_c, 9, 42, 0
7, 2309, Note_on_c, 9, 42, 93
7, 2330, Note_off_c, 9, 42, 0
7, 2498, Note_on_c, 9, 42, 87
7, 2522, Note_off_c, 9, 42, 0
7, 2690, Note_on_c, 9, 42, 87
7, 2713, Note_off_c, 9, 42, 0
7, 2882, Note_on_c, 9, 42, 91
7, 2906, Note_off_c, 9, 42, 0
7, 3077, Note_on_c, 9, 42, 85
7, 3098, Note_off_c, 9, 42, 0
7, 3266, Note_on_c, 9, 42, 88
7, 3290, Note_off_c, 9, 42, 0
7, 3458, Note_on_c, 9, 42, 89
7, 3482, Note_off_c, 9, 42, 0
7, 3650, Note_on_c, 9, 42, 93
7, 3674, Note_off_c, 9, 42, 0
7, 3841, Note_on_c, 9, 42, 86
7, 3865, Note_off_c, 9, 42, 0
7, 4034, Note_on_c, 9, 42, 90
7, 4057, Note_off_c, 9, 42, 0
7, 4226, Note_on_c, 9, 42, 89
7, 4250, Note_off_c, 9, 42, 0
7, 4418, Note_on_c, 9, 42, 84
7, 4442, Note_off_c, 9, 42, 0
7, 4612, Note_on_c, 9, 42, 127
7, 4631, Note_off_c, 9, 42, 0
7, 4707, Note_on_c, 9, 42, 118
7, 4724, Note_off_c, 9, 42, 0
7, 4770, Note_on_c, 9, 42, 93
7, 4782, Note_off_c, 9, 42, 0
7, 4803, Note_on_c, 9, 42, 107
7, 4822, Note_off_c, 9, 42, 0
7, 4898, Note_on_c, 9, 42, 127
7, 4921, Note_off_c, 9, 42, 0
7, 4960, Note_on_c, 9, 42, 104
7, 4977, Note_off_c, 9, 42, 0
7, 4995, Note_on_c, 9, 42, 99
7, 5013, Note_off_c, 9, 42, 0
7, 5091, Note_on_c, 9, 42, 127
7, 5118, Note_off_c, 9, 42, 0
7, 5156, Note_on_c, 9, 42, 78
7, 5173, Note_off_c, 9, 42, 0
7, 5185, Note_on_c, 9, 42, 100
7, 5207, Note_off_c, 9, 42, 0
7, 5283, Note_on_c, 9, 42, 127
7, 5309, Note_off_c, 9, 42, 0
7, 5346, Note_on_c, 9, 42, 87
7, 5361, Note_off_c, 9, 42, 0
7, 5379, Note_on_c, 9, 42, 99
7, 5400, Note_off_c, 9, 42, 0
7, 5475, Note_on_c, 9, 42, 127
7, 5501, Note_off_c, 9, 42, 0
7, 5537, Note_on_c, 9, 42, 101
7, 5553, Note_off_c, 9, 42, 0
7, 5572, Note_on_c, 9, 42, 105
7, 5589, Note_off_c, 9, 42, 0
7, 5667, Note_on_c, 9, 42, 127
7, 5694, Note_off_c, 9, 42, 0
7, 5729, Note_on_c, 9, 42, 106
7, 5742, Note_off_c, 9, 42, 0
7, 5763, Note_on_c, 9, 42, 106
7, 5781, Note_off_c, 9, 42, 0
7, 5859, Note_on_c, 9, 42, 127
7, 5887, Note_off_c, 9, 42, 0
7, 5923, Note_on_c, 9, 42, 113
7, 5937, Note_off_c, 9, 42, 0
7, 5955, Note_on_c, 9, 42, 127
7, 5975, Note_off_c, 9, 42, 0
7, 6051, Note_on_c, 9, 42, 127
7, 6076, Note_off_c, 9, 42, 0
7, 6114, Note_on_c, 9, 42, 111
7, 6133, Note_off_c, 9, 42, 0
7, 6147, Note_on_c, 9, 42, 124
7, 6167, Note_off_c, 9, 42, 0
7, 6243, Note_on_c, 9, 42, 127
7, 6270, Note_off_c, 9, 42, 0
7, 6306, Note_on_c, 9, 42, 105
7, 6324, Note_off_c, 9, 42, 0
7, 6340, Note_on_c, 9, 42, 108
7, 6358, Note_off_c, 9, 42, 0
7, 6434, Note_on_c, 9, 42, 127
7, 6461, Note_off_c, 9, 42, 0
7, 6498, Note_on_c, 9, 42, 115
7, 6518, Note_off_c, 9, 42, 0
7, 6530, Note_on_c, 9, 42, 113
7, 6549, Note_off_c, 9, 42, 0
7, 6627, Note_on_c, 9, 42, 127
7, 6654, Note_off_c, 9, 42, 0
7, 6691, Note_on_c, 9, 42, 114
7, 6708, Note_off_c, 9, 42, 0
7, 6722, Note_on_c, 9, 42, 127
7, 6740, Note_off_c, 9, 42, 0
7, 6819, Note_on_c, 9, 42, 127
7, 6845, Note_off_c, 9, 42, 0
7, 6882, Note_on_c, 9, 42, 111
7, 6902, Note_off_c, 9, 42, 0
7, 6914, Note_on_c, 9, 42, 127
7, 6931, Note_off_c, 9, 42, 0
7, 7011, Note_on_c, 9, 42, 127
7, 7037, Note_off_c, 9, 42, 0
7, 7074, Note_on_c, 9, 42, 116
7, 7095, Note_off_c, 9, 42, 0
7, 7107, Note_on_c, 9, 42, 120
7, 7126, Note_off_c, 9, 42, 0
7, 7202, Note_on_c, 9, 42, 127
7, 7230, Note_off_c, 9, 42, 0
7, 7265, Note_on_c, 9, 42, 112
7, 7285, Note_off_c, 9, 42, 0
7, 7299, Note_on_c, 9, 42, 127
7, 7318, Note_off_c, 9, 42, 0
7, 7395, Note_on_c, 9, 42, 127
7, 7424, Note_off_c, 9, 42, 0
7, 7458, Note_on_c, 9, 42, 111
7, 7477, Note_off_c, 9, 42, 0
7, 7490, Note_on_c, 9, 42, 127
7, 7509, Note_off_c, 9, 42, 0
7, 7587, Note_on_c, 9, 42, 127
7, 7614, Note_off_c, 9, 42, 0
7, 7650, Note_on_c, 9, 42, 118
7, 7671, Note_off_c, 9, 42, 0
7, 7682, Note_on_c, 9, 42, 120
7, 7701, Note_off_c, 9, 42, 0
7, 7778, Note_on_c, 9, 42, 127
7, 7805, Note_off_c, 9, 42, 0
7, 7841, Note_on_c, 9, 42, 100
7, 7859, Note_off_c, 9, 42, 0
7, 7874, Note_on_c, 9, 42, 127
7, 7892, Note_off_c, 9, 42, 0
7, 7971, Note_on_c, 9, 42, 127
7, 8000, Note_off_c, 9, 42, 0
7, 8034, Note_on_c, 9, 42, 104
7, 8055, Note_off_c, 9, 42, 0
7, 8067, Note_on_c, 9, 42, 102
7, 8083, Note_off_c, 9, 42, 0
7, 8162, Note_on_c, 9, 42, 127
7, 8190, Note_off_c, 9, 42, 0
7, 8227, Note_on_c, 9, 42, 109
7, 8247, Note_off_c, 9, 42, 0
7, 8258, Note_on_c, 9, 42, 116
7, 8275, Note_off_c, 9, 42, 0
7, 8355, Note_on_c, 9, 42, 127
7, 8382, Note_off_c, 9, 42, 0
7, 8418, Note_on_c, 9, 42, 105
7, 8439, Note_off_c, 9, 42, 0
7, 8450, Note_on_c, 9, 42, 124
7, 8468, Note_off_c, 9, 42, 0
7, 8547, Note_on_c, 9, 42, 127
7, 8575, Note_off_c, 9, 42, 0
7, 8608, Note_on_c, 9, 42, 110
7, 8631, Note_off_c, 9, 42, 0
7, 8642, Note_on_c, 9, 42, 52
7, 8661, Note_off_c, 9, 42, 0
7, 8738, Note_on_c, 9, 42, 127
7, 8764, Note_off_c, 9, 42, 0
7, 8802, Note_on_c, 9, 42, 119
7, 8823, Note_off_c, 9, 42, 0
7, 8835, Note_on_c, 9, 42, 127
7, 8851, Note_off_c, 9, 42, 0
7, 8930, Note_on_c, 9, 42, 127
7, 8957, Note_off_c, 9, 42, 0
7, 8996, Note_on_c, 9, 42, 112
7, 9015, Note_off_c, 9, 42, 0
7, 9025, Note_on_c, 9, 42, 107
7, 9045, Note_off_c, 9, 42, 0
7, 9124, Note_on_c, 9, 42, 127
7, 9149, Note_off_c, 9, 42, 0
7, 9187, Note_on_c, 9, 42, 127
7, 9205, Note_off_c, 9, 42, 0
7, 9218, Note_on_c, 9, 42, 127
7, 9239, Note_off_c, 9, 42, 0
7, 9315, Note_on_c, 9, 42, 121
7, 9331, Note_off_c, 9, 42, 0
7, 9377, Note_on_c, 9, 42, 86
7, 9390, Note_off_c, 9, 42, 0
7, 9411, Note_on_c, 9, 42, 107
7, 9429, Note_off_c, 9, 42, 0
7, 9506, Note_on_c, 9, 42, 127
7, 9529, Note_off_c, 9, 42, 0
7, 9569, Note_on_c, 9, 42, 98
7, 9585, Note_off_c, 9, 42, 0
7, 9602, Note_on_c, 9, 42, 102
7, 9621, Note_off_c, 9, 42, 0
7, 9698, Note_on_c, 9, 42, 127
7, 9725, Note_off_c, 9, 42, 0
7, 9763, Note_on_c, 9, 42, 84
7, 9780, Note_off_c, 9, 42, 0
7, 9795, Note_on_c, 9, 42, 98
7, 9817, Note_off_c, 9, 42, 0
7, 9890, Note_on_c, 9, 42, 127
7, 9916, Note_off_c, 9, 42, 0
7, 9953, Note_on_c, 9, 42, 92
7, 9968, Note_off_c, 9, 42, 0
7, 9986, Note_on_c, 9, 42, 100
7, 10007, Note_off_c, 9, 42, 0
7, 10083, Note_on_c, 9, 42, 127
7, 10109, Note_off_c, 9, 42, 0
7, 10145, Note_on_c, 9, 42, 104
7, 10160, Note_off_c, 9, 42, 0
7, 10180, Note_on_c, 9, 42, 99
7, 10197, Note_off_c, 9, 42, 0
7, 10275, Note_on_c, 9, 42, 127
7, 10302, Note_off_c, 9, 42, 0
7, 10338, Note_on_c, 9, 42, 100
7, 10352, Note_off_c, 9, 42, 0
7, 10371, Note_on_c, 9, 42, 105
7, 10389, Note_off_c, 9, 42, 0
7, 10466, Note_on_c, 9, 42, 127
7, 10494, Note_off_c, 9, 42, 0
7, 10530, Note_on_c, 9, 42, 105
7, 10545, Note_off_c, 9, 42, 0
7, 10561, Note_on_c, 9, 42, 122
7, 10581, Note_off_c, 9, 42, 0
7, 10659, Note_on_c, 9, 42, 127
7, 10684, Note_off_c, 9, 42, 0
7, 10722, Note_on_c, 9, 42, 108
7, 10742, Note_off_c, 9, 42, 0
7, 10754, Note_on_c, 9, 42, 124
7, 10774, Note_off_c, 9, 42, 0
7, 10850, Note_on_c, 9, 42, 127
7, 10877, Note_off_c, 9, 42, 0
7, 10913, Note_on_c, 9, 42, 108
7, 10931, Note_off_c, 9, 42, 0
7, 10947, Note_on_c, 9, 42, 114
7, 10965, Note_off_c, 9, 42, 0
7, 11042, Note_on_c, 9, 42, 127
7, 11070, Note_off_c, 9, 42, 0
7, 11105, Note_on_c, 9, 42, 113
7, 11125, Note_off_c, 9, 42, 0
7, 11140, Note_on_c, 9, 42, 117
7, 11159, Note_off_c, 9, 42, 0
7, 11234, Note_on_c, 9, 42, 127
7, 11261, Note_off_c, 9, 42, 0
7, 11299, Note_on_c, 9, 42, 109
7, 11316, Note_off_c, 9, 42, 0
7, 11330, Note_on_c, 9, 42, 122
7, 11348, Note_off_c, 9, 42, 0
7, 11427, Note_on_c, 9, 42, 127
7, 11453, Note_off_c, 9, 42, 0
7, 11489, Note_on_c, 9, 42, 114
7, 11509, Note_off_c, 9, 42, 0
7, 11522, Note_on_c, 9, 42, 127
7, 11539, Note_off_c, 9, 42, 0
7, 11619, Note_on_c, 9, 42, 127
7, 11646, Note_off_c, 9, 42, 0
7, 11681, Note_on_c, 9, 42, 125
7, 11702, Note_off_c, 9, 42, 0
7, 11715, Note_on_c, 9, 42, 122
7, 11734, Note_off_c, 9, 42, 0
7, 11810, Note_on_c, 9, 42, 127
7, 11838, Note_off_c, 9, 42, 0
7, 11874, Note_on_c, 9, 42, 111
7, 11894, Note_off_c, 9, 42, 0
7, 11906, Note_on_c, 9, 42, 127
7, 11926, Note_off_c, 9, 42, 0
7, 12002, Note_on_c, 9, 42, 127
7, 12031, Note_off_c, 9, 42, 0
7, 12066, Note_on_c, 9, 42, 107
7, 12085, Note_off_c, 9, 42, 0
7, 12098, Note_on_c, 9, 42, 127
7, 12118, Note_off_c, 9, 42, 0
7, 12193, Note_on_c, 9, 42, 127
7, 12221, Note_off_c, 9, 42, 0
7, 12258, Note_on_c, 9, 42, 121
7, 12279, Note_off_c, 9, 42, 0
7, 12289, Note_on_c, 9, 42, 124
7, 12309, Note_off_c, 9, 42, 0
7, 12386, Note_on_c, 9, 42, 127
7, 12413, Note_off_c, 9, 42, 0
7, 12449, Note_on_c, 9, 42, 91
7, 12468, Note_off_c, 9, 42, 0
7, 12484, Note_on_c, 9, 42, 124
7, 12501, Note_off_c, 9, 42, 0
7, 12577, Note_on_c, 9, 42, 127
7, 12606, Note_off_c, 9, 42, 0
7, 12641, Note_on_c, 9, 42, 107
7, 12661, Note_off_c, 9, 42, 0
7, 12675, Note_on_c, 9, 42, 104
7, 12691, Note_off_c, 9, 42, 0
7, 12769, Note_on_c, 9, 42, 127
7, 12797, Note_off_c, 9, 42, 0
7, 12835, Note_on_c, 9, 42, 105
7, 12855, Note_off_c, 9, 42, 0
7, 12865, Note_on_c, 9, 42, 119
7, 12883, Note_off_c, 9, 42, 0
7, 12963, Note_on_c, 9, 42, 127
7, 12990, Note_off_c, 9, 42, 0
7, 13025, Note_on_c, 9, 42, 110
7, 13046, Note_off_c, 9, 42, 0
7, 13058, Note_on_c, 9, 42, 124
7, 13076, Note_off_c, 9, 42, 0
7, 13154, Note_on_c, 9, 42, 127
7, 13182, Note_off_c, 9, 42, 0
7, 13218, Note_on_c, 9, 42, 105
7, 13240, Note_off_c, 9, 42, 0
7, 13252, Note_on_c, 9, 42, 45
7, 13271, Note_off_c, 9, 42, 0
7, 13347, Note_on_c, 9, 42, 127
7, 13373, Note_off_c, 9, 42, 0
7, 13410, Note_on_c, 9, 42, 121
7, 13430, Note_off_c, 9, 42, 0
7, 13442, Note_on_c, 9, 42, 122
7, 13458, Note_off_c, 9, 42, 0
7, 13539, Note_on_c, 9, 42, 127
7, 13567, Note_off_c, 9, 42, 0
7, 13603, Note_on_c, 9, 42, 118
7, 13622, Note_off_c, 9, 42, 0
7, 13633, Note_on_c, 9, 42, 108
7, 13653, Note_off_c, 9, 42, 0
7, 13730, Note_on_c, 9, 42, 127
7, 13757, Note_off_c, 9, 42, 0
7, 13793, Note_on_c, 9, 42, 127
7, 13811, Note_off_c, 9, 42, 0
7, 13827, Note_on_c, 9, 42, 127
7, 13847, Note_off_c, 9, 42, 0
7, 13922, Note_on_c, 9, 42, 127
7, 13939, Note_off_c, 9, 42, 0
7, 13987, Note_on_c, 9, 42, 95
7, 13999, Note_off_c, 9, 42, 0
7, 14018, Note_on_c, 9, 42, 108
7, 14037, Note_off_c, 9, 42, 0
7, 14114, Note_on_c, 9, 42, 127
7, 14138, Note_off_c, 9, 42, 0
7, 14177, Note_on_c, 9, 42, 100
7, 14193, Note_off_c, 9, 42, 0
7, 14210, Note_on_c, 9, 42, 98
7, 14229, Note_off_c, 9, 42, 0
7, 14307, Note_on_c, 9, 42, 127
7, 14334, Note_off_c, 9, 42, 0
7, 14370, Note_on_c, 9, 42, 76
7, 14388, Note_off_c, 9, 42, 0
7, 14403, Note_on_c, 9, 42, 100
7, 14425, Note_off_c, 9, 42, 0
7, 14499, Note_on_c, 9, 42, 127
7, 14525, Note_off_c, 9, 42, 0
7, 14561, Note_on_c, 9, 42, 87
7, 14575, Note_off_c, 9, 42, 0
7, 14594, Note_on_c, 9, 42, 104
7, 14615, Note_off_c, 9, 42, 0
7, 14691, Note_on_c, 9, 42, 127
7, 14717, Note_off_c, 9, 42, 0
7, 14753, Note_on_c, 9, 42, 97
7, 14769, Note_off_c, 9, 42, 0
7, 14786, Note_on_c, 9, 42, 101
7, 14804, Note_off_c, 9, 42, 0
7, 14882, Note_on_c, 9, 42, 127
7, 14909, Note_off_c, 9, 42, 0
7, 14946, Note_on_c, 9, 42, 100
7, 14960, Note_off_c, 9, 42, 0
7, 14978, Note_on_c, 9, 42, 104
7, 14997, Note_off_c, 9, 42, 0
7, 15074, Note_on_c, 9, 42, 127
7, 15101, Note_off_c, 9, 42, 0
7, 15137, Note_on_c, 9, 42, 113
7, 15153, Note_off_c, 9, 42, 0
7, 15171, Note_on_c, 9, 42, 123
7, 15191, Note_off_c, 9, 42, 0
7, 15266, Note_on_c, 9, 42, 127
7, 15292, Note_off_c, 9, 42, 0
7, 15331, Note_on_c, 9, 42, 114
7, 15351, Note_off_c, 9, 42, 0
7, 15362, Note_on_c, 9, 42, 121
7, 15382, Note_off_c, 9, 42, 0
7, 15458, Note_on_c, 9, 42, 127
7, 15485, Note_off_c, 9, 42, 0
7, 15520, Note_on_c, 9, 42, 109
7, 15538, Note_off_c, 9, 42, 0
7, 15556, Note_on_c, 9, 42, 104
7, 15574, Note_off_c, 9, 42, 0
7, 15650, Note_on_c, 9, 42, 127
7, 15677, Note_off_c, 9, 42, 0
7, 15714, Note_on_c, 9, 42, 113
7, 15733, Note_off_c, 9, 42, 0
7, 15746, Note_on_c, 9, 42, 117
7, 15767, Note_off_c, 9, 42, 0
7, 15842, Note_on_c, 9, 42, 127
7, 15869, Note_off_c, 9, 42, 0
7, 15905, Note_on_c, 9, 42, 115
7, 15923, Note_off_c, 9, 42, 0
7, 15939, Note_on_c, 9, 42, 127
7, 15957, Note_off_c, 9, 42, 0
7, 16034, Note_on_c, 9, 42, 127
7, 16060, Note_off_c, 9, 42, 0
7, 16097, Note_on_c, 9, 42, 118
7, 16116, Note_off_c, 9, 42, 0
7, 16129, Note_on_c, 9, 42, 127
7, 16146, Note_off_c, 9, 42, 0
7, 16227, Note_on_c, 9, 42, 127
7, 16254, Note_off_c, 9, 42, 0
7, 16289, Note_on_c, 9, 42, 126
7, 16310, Note_off_c, 9, 42, 0
7, 16323, Note_on_c, 9, 42, 126
7, 16343, Note_off_c, 9, 42, 0
7, 16418, Note_on_c, 9, 42, 127
7, 16446, Note_off_c, 9, 42, 0
7, 16482, Note_on_c, 9, 42, 114
7, 16501, Note_off_c, 9, 42, 0
7, 16514, Note_on_c, 9, 42, 127
7, 16534, Note_off_c, 9, 42, 0
7, 16611, Note_on_c, 9, 42, 127
7, 16639, Note_off_c, 9, 42, 0
7, 16673, Note_on_c, 9, 42, 111
7, 16693, Note_off_c, 9, 42, 0
7, 16706, Note_on_c, 9, 42, 127
7, 16726, Note_off_c, 9, 42, 0
7, 16803, Note_on_c, 9, 42, 127
7, 16830, Note_off_c, 9, 42, 0
7, 16866, Note_on_c, 9, 42, 114
7, 16887, Note_off_c, 9, 42, 0
7, 16899, Note_on_c, 9, 42, 121
7, 16918, Note_off_c, 9, 42, 0
7, 16995, Note_on_c, 9, 42, 127
7, 17022, Note_off_c, 9, 42, 0
7, 17057, Note_on_c, 9, 42, 90
7, 17076, Note_off_c, 9, 42, 0
7, 17091, Note_on_c, 9, 42, 127
7, 17109, Note_off_c, 9, 42, 0
7, 17187, Note_on_c, 9, 42, 127
7, 17216, Note_off_c, 9, 42, 0
7, 17251, Note_on_c, 9, 42, 107
7, 17271, Note_off_c, 9, 42, 0
7, 17283, Note_on_c, 9, 42, 96
7, 17300, Note_off_c, 9, 42, 0
7, 17378, Note_on_c, 9, 42, 127
7, 17406, Note_off_c, 9, 42, 0
7, 17441, Note_on_c, 9, 42, 105
7, 17463, Note_off_c, 9, 42, 0
7, 17474, Note_on_c, 9, 42, 117
7, 17490, Note_off_c, 9, 42, 0
7, 17570, Note_on_c, 9, 42, 127
7, 17597, Note_off_c, 9, 42, 0
7, 17633, Note_on_c, 9, 42, 110
7, 17653, Note_off_c, 9, 42, 0
7, 17666, Note_on_c, 9, 42, 120
7, 17684, Note_off_c, 9, 42, 0
7, 17763, Note_on_c, 9, 42, 127
7, 17790, Note_off_c, 9, 42, 0
7, 17826, Note_on_c, 9, 42, 111
7, 17849, Note_off_c, 9, 42, 0
7, 17858, Note_on_c, 9, 42, 51
7, 17878, Note_off_c, 9, 42, 0
7, 17955, Note_on_c, 9, 42, 127
7, 17981, Note_off_c, 9, 42, 0
7, 18018, Note_on_c, 9, 42, 119
7, 18038, Note_off_c, 9, 42, 0
7, 18049, Note_on_c, 9, 42, 127
7, 18066, Note_off_c, 9, 42, 0
7, 18148, Note_on_c, 9, 42, 127
7, 18174, Note_off_c, 9, 42, 0
7, 18210, Note_on_c, 9, 42, 112
7, 18230, Note_off_c, 9, 42, 0
7, 18242, Note_on_c, 9, 42, 111
7, 18261, Note_off_c, 9, 42, 0
7, 18338, Note_on_c, 9, 42, 127
7, 18364, Note_off_c, 9, 42, 0
7, 18403, Note_on_c, 9, 42, 127
7, 18421, Note_off_c, 9, 42, 0
7, 18435, Note_on_c, 9, 42, 127
7, 18454, Note_off_c, 9, 42, 0
7, 18529, Note_on_c, 9, 42, 122
7, 18546, Note_off_c, 9, 42, 0
7, 18593, Note_on_c, 9, 42, 91
7, 18606, Note_off_c, 9, 42, 0
7, 18627, Note_on_c, 9, 42, 108
7, 18645, Note_off_c, 9, 42, 0
7, 18722, Note_on_c, 9, 42, 127
7, 18745, Note_off_c, 9, 42, 0
7, 18785, Note_on_c, 9, 42, 100
7, 18801, Note_off_c, 9, 42, 0
7, 18820, Note_on_c, 9, 42, 102
7, 18838, Note_off_c, 9, 42, 0
7, 18915, Note_on_c, 9, 42, 127
7, 18942, Note_off_c, 9, 42, 0
7, 18979, Note_on_c, 9, 42, 83
7, 18996, Note_off_c, 9, 42, 0
7, 19010, Note_on_c, 9, 42, 92
7, 19032, Note_off_c, 9, 42, 0
7, 19106, Note_on_c, 9, 42, 127
7, 19133, Note_off_c, 9, 42, 0
7, 19170, Note_on_c, 9, 42, 91
7, 19184, Note_off_c, 9, 42, 0
7, 19201, Note_on_c, 9, 42, 98
7, 19222, Note_off_c, 9, 42, 0
7, 19298, Note_on_c, 9, 42, 127
7, 19324, Note_off_c, 9, 42, 0
7, 19362, Note_on_c, 9, 42, 94
7, 19378, Note_off_c, 9, 42, 0
7, 19394, Note_on_c, 9, 42, 102
7, 19411, Note_off_c, 9, 42, 0
7, 19491, Note_on_c, 9, 42, 127
7, 19518, Note_off_c, 9, 42, 0
7, 19554, Note_on_c, 9, 42, 106
7, 19567, Note_off_c, 9, 42, 0
7, 19587, Note_on_c, 9, 42, 101
7, 19605, Note_off_c, 9, 42, 0
7, 19682, Note_on_c, 9, 42, 127
7, 19709, Note_off_c, 9, 42, 0
7, 19747, Note_on_c, 9, 42, 105
7, 19761, Note_off_c, 9, 42, 0
7, 19778, Note_on_c, 9, 42, 125
7, 19798, Note_off_c, 9, 42, 0
7, 19874, Note_on_c, 9, 42, 127
7, 19900, Note_off_c, 9, 42, 0
7, 19937, Note_on_c, 9, 42, 112
7, 19957, Note_off_c, 9, 42, 0
7, 19970, Note_on_c, 9, 42, 118
7, 19991, Note_off_c, 9, 42, 0
7, 20066, Note_on_c, 9, 42, 127
7, 20093, Note_off_c, 9, 42, 0
7, 20129, Note_on_c, 9, 42, 100
7, 20146, Note_off_c, 9, 42, 0
7, 20163, Note_on_c, 9, 42, 108
7, 20181, Note_off_c, 9, 42, 0
7, 20259, Note_on_c, 9, 42, 127
7, 20286, Note_off_c, 9, 42, 0
7, 20321, Note_on_c, 9, 42, 111
7, 20341, Note_off_c, 9, 42, 0
7, 20355, Note_on_c, 9, 42, 115
7, 20374, Note_off_c, 9, 42, 0
7, 20451, Note_on_c, 9, 42, 127
7, 20478, Note_off_c, 9, 42, 0
7, 20514, Note_on_c, 9, 42, 113
7, 20531, Note_off_c, 9, 42, 0
7, 20545, Note_on_c, 9, 42, 126
7, 20564, Note_off_c, 9, 42, 0
7, 20642, Note_on_c, 9, 42, 127
7, 20668, Note_off_c, 9, 42, 0
7, 20706, Note_on_c, 9, 42, 110
7, 20726, Note_off_c, 9, 42, 0
7, 20739, Note_on_c, 9, 42, 127
7, 20756, Note_off_c, 9, 42, 0
7, 20835, Note_on_c, 9, 42, 127
7, 20862, Note_off_c, 9, 42, 0
7, 20897, Note_on_c, 9, 42, 121
7, 20917, Note_off_c, 9, 42, 0
7, 20931, Note_on_c, 9, 42, 123
7, 20950, Note_off_c, 9, 42, 0
7, 21027, Note_on_c, 9, 42, 127
7, 21055, Note_off_c, 9, 42, 0
7, 21089, Note_on_c, 9, 42, 113
7, 21109, Note_off_c, 9, 42, 0
7, 21123, Note_on_c, 9, 42, 127
7, 21143, Note_off_c, 9, 42, 0
7, 21218, Note_on_c, 9, 42, 127
7, 21247, Note_off_c, 9, 42, 0
7, 21284, Note_on_c, 9, 42, 113
7, 21302, Note_off_c, 9, 42, 0
7, 21313, Note_on_c, 9, 42, 127
7, 21333, Note_off_c, 9, 42, 0
7, 21410, Note_on_c, 9, 42, 127
7, 21438, Note_off_c, 9, 42, 0
7, 21475, Note_on_c, 9, 42, 111
7, 21496, Note_off_c, 9, 42, 0
7, 21506, Note_on_c, 9, 42, 120
7, 21526, Note_off_c, 9, 42, 0
7, 21602, Note_on_c, 9, 42, 127
7, 21629, Note_off_c, 9, 42, 0
7, 21666, Note_on_c, 9, 42, 95
7, 21684, Note_off_c, 9, 42, 0
7, 21699, Note_on_c, 9, 42, 127
7, 21716, Note_off_c, 9, 42, 0
7, 21793, Note_on_c, 9, 42, 127
7, 21822, Note_off_c, 9, 42, 0
7, 21858, Note_on_c, 9, 42, 104
7, 21879, Note_off_c, 9, 42, 0
7, 21890, Note_on_c, 9, 42, 98
7, 21906, Note_off_c, 9, 42, 0
7, 21986, Note_on_c, 9, 42, 127
7, 22013, Note_off_c, 9, 42, 0
7, 22050, Note_on_c, 9, 42, 104
7, 22070, Note_off_c, 9, 42, 0
7, 22083, Note_on_c, 9, 42, 116
7, 22100, Note_off_c, 9, 42, 0
7, 22179, Note_on_c, 9, 42, 127
7, 22205, Note_off_c, 9, 42, 0
7, 22242, Note_on_c, 9, 42, 113
7, 22262, Note_off_c, 9, 42, 0
7, 22274, Note_on_c, 9, 42, 127
7, 22292, Note_off_c, 9, 42, 0
7, 22370, Note_on_c, 9, 42, 127
7, 22399, Note_off_c, 9, 42, 0
7, 22433, Note_on_c, 9, 42, 105
7, 22456, Note_off_c, 9, 42, 0
7, 22467, Note_on_c, 9, 42, 46
7, 22486, Note_off_c, 9, 42, 0
7, 22562, Note_on_c, 9, 42, 127
7, 22588, Note_off_c, 9, 42, 0
7, 22625, Note_on_c, 9, 42, 117
7, 22645, Note_off_c, 9, 42, 0
7, 22660, Note_on_c, 9, 42, 122
7, 22676, Note_off_c, 9, 42, 0
7, 22755, Note_on_c, 9, 42, 127
7, 22782, Note_off_c, 9, 42, 0
7, 22820, Note_on_c, 9, 42, 119
7, 22839, Note_off_c, 9, 42, 0
7, 22849, Note_on_c, 9, 42, 111
7, 22869, Note_off_c, 9, 42, 0
7, 22947, Note_on_c, 9, 42, 127
7, 22973, Note_off_c, 9, 42, 0
7, 23009, Note_on_c, 9, 42, 127
7, 23027, Note_off_c, 9, 42, 0
7, 23042, Note_on_c, 9, 42, 127
7, 23062, Note_off_c, 9, 42, 0
7, 23139, Note_on_c, 9, 42, 122
7, 23155, Note_off_c, 9, 42, 0
7, 23202, Note_on_c, 9, 42, 89
7, 23214, Note_off_c, 9, 42, 0
7, 23235, Note_on_c, 9, 42, 106
7, 23253, Note_off_c, 9, 42, 0
7, 23330, Note_on_c, 9, 42, 127
7, 23354, Note_off_c, 9, 42, 0
7, 23394, Note_on_c, 9, 42, 102
7, 23410, Note_off_c, 9, 42, 0
7, 23426, Note_on_c, 9, 42, 95
7, 23445, Note_off_c, 9, 42, 0
7, 23523, Note_on_c, 9, 42, 127
7, 23550, Note_off_c, 9, 42, 0
7, 23588, Note_on_c, 9, 42, 79
7, 23605, Note_off_c, 9, 42, 0
7, 23618, Note_on_c, 9, 42, 100
7, 23640, Note_off_c, 9, 42, 0
7, 23713, Note_on_c, 9, 42, 127
7, 23740, Note_off_c, 9, 42, 0
7, 23778, Note_on_c, 9, 42, 89
7, 23793, Note_off_c, 9, 42, 0
7, 23809, Note_on_c, 9, 42, 107
7, 23830, Note_off_c, 9, 42, 0
7, 23906, Note_on_c, 9, 42, 127
7, 23932, Note_off_c, 9, 42, 0
7, 23969, Note_on_c, 9, 42, 102
7, 23986, Note_off_c, 9, 42, 0
7, 24003, Note_on_c, 9, 42, 100
7, 24020, Note_off_c, 9, 42, 0
7, 24099, Note_on_c, 9, 42, 127
7, 24126, Note_off_c, 9, 42, 0
7, 24162, Note_on_c, 9, 42, 104
7, 24176, Note_off_c, 9, 42, 0
7, 24195, Note_on_c, 9, 42, 103
7, 24213, Note_off_c, 9, 42, 0
7, 24290, Note_on_c, 9, 42, 127
7, 24318, Note_off_c, 9, 42, 0
7, 24355, Note_on_c, 9, 42, 107
7, 24370, Note_off_c, 9, 42, 0
7, 24386, Note_on_c, 9, 42, 122
7, 24406, Note_off_c, 9, 42, 0
7, 24482, Note_on_c, 9, 42, 127
7, 24508, Note_off_c, 9, 42, 0
7, 24545, Note_on_c, 9, 42, 111
7, 24565, Note_off_c, 9, 42, 0
7, 24578, Note_on_c, 9, 42, 119
7, 24598, Note_off_c, 9, 42, 0
7, 24675, Note_on_c, 9, 42, 127
7, 24702, Note_off_c, 9, 42, 0
7, 24737, Note_on_c, 9, 42, 104
7, 24754, Note_off_c, 9, 42, 0
7, 24771, Note_on_c, 9, 42, 109
7, 24789, Note_off_c, 9, 42, 0
7, 24866, Note_on_c, 9, 42, 127
7, 24893, Note_off_c, 9, 42, 0
7, 24929, Note_on_c, 9, 42, 119
7, 24949, Note_off_c, 9, 42, 0
7, 24963, Note_on_c, 9, 42, 116
7, 24982, Note_off_c, 9, 42, 0
7, 25059, Note_on_c, 9, 42, 127
7, 25086, Note_off_c, 9, 42, 0
7, 25123, Note_on_c, 9, 42, 113
7, 25140, Note_off_c, 9, 42, 0
7, 25153, Note_on_c, 9, 42, 127
7, 25172, Note_off_c, 9, 42, 0
7, 25250, Note_on_c, 9, 42, 127
7, 25276, Note_off_c, 9, 42, 0
7, 25314, Note_on_c, 9, 42, 111
7, 25334, Note_off_c, 9, 42, 0
7, 25345, Note_on_c, 9, 42, 127
7, 25363, Note_off_c, 9, 42, 0
7, 25442, Note_on_c, 9, 42, 127
7, 25469, Note_off_c, 9, 42, 0
7, 25505, Note_on_c, 9, 42, 121
7, 25525, Note_off_c, 9, 42, 0
7, 25538, Note_on_c, 9, 42, 126
7, 25558, Note_off_c, 9, 42, 0
7, 25634, Note_on_c, 9, 42, 127
7, 25662, Note_off_c, 9, 42, 0
7, 25698, Note_on_c, 9, 42, 112
7, 25718, Note_off_c, 9, 42, 0
7, 25732, Note_on_c, 9, 42, 127
7, 25751, Note_off_c, 9, 42, 0
7, 25827, Note_on_c, 9, 42, 127
7, 25856, Note_off_c, 9, 42, 0
7, 25891, Note_on_c, 9, 42, 113
7, 25910, Note_off_c, 9, 42, 0
7, 25922, Note_on_c, 9, 42, 127
7, 25942, Note_off_c, 9, 42, 0
7, 26017, Note_on_c, 9, 42, 127
7, 26044, Note_off_c, 9, 42, 0
7, 26082, Note_on_c, 9, 42, 114
7, 26103, Note_off_c, 9, 42, 0
7, 26115, Note_on_c, 9, 42, 121
7, 26134, Note_off_c, 9, 42, 0
7, 26210, Note_on_c, 9, 42, 127
7, 26237, Note_off_c, 9, 42, 0
7, 26274, Note_on_c, 9, 42, 95
7, 26293, Note_off_c, 9, 42, 0
7, 26307, Note_on_c, 9, 42, 127
7, 26324, Note_off_c, 9, 42, 0
7, 26402, Note_on_c, 9, 42, 127
7, 26430, Note_off_c, 9, 42, 0
7, 26465, Note_on_c, 9, 42, 109
7, 26486, Note_off_c, 9, 42, 0
7, 26500, Note_on_c, 9, 42, 98
7, 26516, Note_off_c, 9, 42, 0
7, 26595, Note_on_c, 9, 42, 127
7, 26623, Note_off_c, 9, 42, 0
7, 26658, Note_on_c, 9, 42, 103
7, 26678, Note_off_c, 9, 42, 0
7, 26690, Note_on_c, 9, 42, 116
7, 26707, Note_off_c, 9, 42, 0
7, 26787, Note_on_c, 9, 42, 127
7, 26814, Note_off_c, 9, 42, 0
7, 26850, Note_on_c, 9, 42, 108
7, 26871, Note_off_c, 9, 42, 0
7, 26882, Note_on_c, 9, 42, 127
7, 26900, Note_off_c, 9, 42, 0
7, 26978, Note_on_c, 9, 42, 127
7, 27006, Note_off_c, 9, 42, 0
7, 27041, Note_on_c, 9, 42, 112
7, 27063, Note_off_c, 9, 42, 0
7, 27075, Note_on_c, 9, 42, 53
7, 27094, Note_off_c, 9, 42, 0
7, 27170, Note_on_c, 9, 42, 127
7, 27197, Note_off_c, 9, 42, 0
7, 27233, Note_on_c, 9, 42, 120
7, 27254, Note_off_c, 9, 42, 0
7, 27266, Note_on_c, 9, 42, 126
7, 27282, Note_off_c, 9, 42, 0
7, 27363, Note_on_c, 9, 42, 127
7, 27390, Note_off_c, 9, 42, 0
7, 27428, Note_on_c, 9, 42, 112
7, 27447, Note_off_c, 9, 42, 0
7, 27458, Note_on_c, 9, 42, 105
7, 27477, Note_off_c, 9, 42, 0
7, 27554, Note_on_c, 9, 42, 127
7, 27580, Note_off_c, 9, 42, 0
7, 27618, Note_on_c, 9, 42, 127
7, 27636, Note_off_c, 9, 42, 0
7, 27651, Note_on_c, 9, 42, 127
7, 27669, Note_off_c, 9, 42, 0
7, 27748, Note_on_c, 9, 42, 123
7, 27764, Note_off_c, 9, 42, 0
7, 27809, Note_on_c, 9, 42, 89
7, 27821, Note_off_c, 9, 42, 0
7, 27842, Note_on_c, 9, 42, 105
7, 27861, Note_off_c, 9, 42, 0
7, 27938, Note_on_c, 9, 42, 127
7, 27961, Note_off_c, 9, 42, 0
7, 28003, Note_on_c, 9, 42, 105
7, 28018, Note_off_c, 9, 42, 0
7, 28034, Note_on_c, 9, 42, 101
7, 28053, Note_off_c, 9, 42, 0
7, 28131, Note_on_c, 9, 42, 127
7, 28158, Note_off_c, 9, 42, 0
7, 28194, Note_on_c, 9, 42, 83
7, 28212, Note_off_c, 9, 42, 0
7, 28227, Note_on_c, 9, 42, 92
7, 28248, Note_off_c, 9, 42, 0
7, 28322, Note_on_c, 9, 42, 127
7, 28348, Note_off_c, 9, 42, 0
7, 28385, Note_on_c, 9, 42, 94
7, 28399, Note_off_c, 9, 42, 0
7, 28418, Note_on_c, 9, 42, 99
7, 28438, Note_off_c, 9, 42, 0
7, 28515, Note_on_c, 9, 42, 127
7, 28540, Note_off_c, 9, 42, 0
7, 28578, Note_on_c, 9, 42, 102
7, 28594, Note_off_c, 9, 42, 0
7, 28611, Note_on_c, 9, 42, 100
7, 28627, Note_off_c, 9, 42, 0
7, 28706, Note_on_c, 9, 42, 127
7, 28733, Note_off_c, 9, 42, 0
7, 28771, Note_on_c, 9, 42, 105
7, 28784, Note_off_c, 9, 42, 0
7, 28802, Note_on_c, 9, 42, 100
7, 28822, Note_off_c, 9, 42, 0
7, 28898, Note_on_c, 9, 42, 127
7, 28926, Note_off_c, 9, 42, 0
7, 28963, Note_on_c, 9, 42, 113
7, 28978, Note_off_c, 9, 42, 0
7, 28995, Note_on_c, 9, 42, 123
7, 29014, Note_off_c, 9, 42, 0
7, 29091, Note_on_c, 9, 42, 127
7, 29117, Note_off_c, 9, 42, 0
7, 29154, Note_on_c, 9, 42, 114
7, 29173, Note_off_c, 9, 42, 0
7, 29187, Note_on_c, 9, 42, 118
7, 29206, Note_off_c, 9, 42, 0
7, 29284, Note_on_c, 9, 42, 127
7, 29310, Note_off_c, 9, 42, 0
7, 29345, Note_on_c, 9, 42, 107
7, 29363, Note_off_c, 9, 42, 0
7, 29379, Note_on_c, 9, 42, 111
7, 29397, Note_off_c, 9, 42, 0
7, 29475, Note_on_c, 9, 42, 127
7, 29503, Note_off_c, 9, 42, 0
7, 29539, Note_on_c, 9, 42, 107
7, 29557, Note_off_c, 9, 42, 0
7, 29571, Note_on_c, 9, 42, 113
7, 29591, Note_off_c, 9, 42, 0
7, 29666, Note_on_c, 9, 42, 127
7, 29692, Note_off_c, 9, 42, 0
7, 29730, Note_on_c, 9, 42, 114
7, 29748, Note_off_c, 9, 42, 0
7, 29764, Note_on_c, 9, 42, 119
7, 29780, Note_off_c, 9, 42, 0
7, 29859, Note_on_c, 9, 42, 127
7, 29885, Note_off_c, 9, 42, 0
7, 29922, Note_on_c, 9, 42, 112
7, 29942, Note_off_c, 9, 42, 0
7, 29955, Note_on_c, 9, 42, 127
7, 29972, Note_off_c, 9, 42, 0
7, 30052, Note_on_c, 9, 42, 127
7, 30078, Note_off_c, 9, 42, 0
7, 30113, Note_on_c, 9, 42, 125
7, 30135, Note_off_c, 9, 42, 0
7, 30147, Note_on_c, 9, 42, 127
7, 30166, Note_off_c, 9, 42, 0
7, 30242, Note_on_c, 9, 42, 127
7, 30270, Note_off_c, 9, 42, 0
7, 30306, Note_on_c, 9, 42, 105
7, 30325, Note_off_c, 9, 42, 0
7, 30338, Note_on_c, 9, 42, 127
7, 30358, Note_off_c, 9, 42, 0
7, 30434, Note_on_c, 9, 42, 127
7, 30463, Note_off_c, 9, 42, 0
7, 30498, Note_on_c, 9, 42, 114
7, 30517, Note_off_c, 9, 42, 0
7, 30532, Note_on_c, 9, 42, 127
7, 30550, Note_off_c, 9, 42, 0
7, 30626, Note_on_c, 9, 42, 127
7, 30652, Note_off_c, 9, 42, 0
7, 30690, Note_on_c, 9, 42, 110
7, 30711, Note_off_c, 9, 42, 0
7, 30724, Note_on_c, 9, 42, 119
7, 30742, Note_off_c, 9, 42, 0
7, 30819, Note_on_c, 9, 42, 127
7, 30845, Note_off_c, 9, 42, 0
7, 30882, Note_on_c, 9, 42, 96
7, 30901, Note_off_c, 9, 42, 0
7, 30916, Note_on_c, 9, 42, 127
7, 30933, Note_off_c, 9, 42, 0
7, 31010, Note_on_c, 9, 42, 127
7, 31038, Note_off_c, 9, 42, 0
7, 31074, Note_on_c, 9, 42, 103
7, 31093, Note_off_c, 9, 42, 0
7, 31106, Note_on_c, 9, 42, 101
7, 31124, Note_off_c, 9, 42, 0
7, 31203, Note_on_c, 9, 42, 127
7, 31231, Note_off_c, 9, 42, 0
7, 31267, Note_on_c, 9, 42, 103
7, 31287, Note_off_c, 9, 42, 0
7, 31300, Note_on_c, 9, 42, 116
7, 31316, Note_off_c, 9, 42, 0
7, 31394, Note_on_c, 9, 42, 127
7, 31420, Note_off_c, 9, 42, 0
7, 31458, Note_on_c, 9, 42, 107
7, 31478, Note_off_c, 9, 42, 0
7, 31491, Note_on_c, 9, 42, 121
7, 31508, Note_off_c, 9, 42, 0
7, 31588, Note_on_c, 9, 42, 127
7, 31615, Note_off_c, 9, 42, 0
7, 31650, Note_on_c, 9, 42, 108
7, 31673, Note_off_c, 9, 42, 0
7, 31683, Note_on_c, 9, 42, 55
7, 31702, Note_off_c, 9, 42, 0
7, 31778, Note_on_c, 9, 42, 127
7, 31803, Note_off_c, 9, 42, 0
7, 31843, Note_on_c, 9, 42, 119
7, 31862, Note_off_c, 9, 42, 0
7, 31875, Note_on_c, 9, 42, 123
7, 31892, Note_off_c, 9, 42, 0
7, 31970, Note_on_c, 9, 42, 127
7, 31997, Note_off_c, 9, 42, 0
7, 32034, Note_on_c, 9, 42, 109
7, 32054, Note_off_c, 9, 42, 0
7, 32067, Note_on_c, 9, 42, 111
7, 32085, Note_off_c, 9, 42, 0
7, 32164, Note_on_c, 9, 42, 127
7, 32188, Note_off_c, 9, 42, 0
7, 32226, Note_on_c, 9, 42, 127
7, 32244, Note_off_c, 9, 42, 0
7, 32260, Note_on_c, 9, 42, 127
7, 32279, Note_off_c, 9, 42, 0
7, 32356, Note_on_c, 9, 42, 122
7, 32372, Note_off_c, 9, 42, 0
7, 32418, Note_on_c, 9, 42, 94
7, 32431, Note_off_c, 9, 42, 0
7, 32451, Note_on_c, 9, 42, 110
7, 32470, Note_off_c, 9, 42, 0
7, 32545, Note_on_c, 9, 42, 127
7, 32568, Note_off_c, 9, 42, 0
7, 32610, Note_on_c, 9, 42, 98
7, 32625, Note_off_c, 9, 42, 0
7, 32644, Note_on_c, 9, 42, 97
7, 32663, Note_off_c, 9, 42, 0
7, 32740, Note_on_c, 9, 42, 127
7, 32765, Note_off_c, 9, 42, 0
7, 32803, Note_on_c, 9, 42, 88
7, 32821, Note_off_c, 9, 42, 0
7, 32834, Note_on_c, 9, 42, 101
7, 32857, Note_off_c, 9, 42, 0
7, 32931, Note_on_c, 9, 42, 127
7, 32957, Note_off_c, 9, 42, 0
7, 32994, Note_on_c, 9, 42, 87
7, 33007, Note_off_c, 9, 42, 0
7, 33028, Note_on_c, 9, 42, 100
7, 33048, Note_off_c, 9, 42, 0
7, 33124, Note_on_c, 9, 42, 127
7, 33149, Note_off_c, 9, 42, 0
7, 33185, Note_on_c, 9, 42, 102
7, 33201, Note_off_c, 9, 42, 0
7, 33217, Note_on_c, 9, 42, 103
7, 33235, Note_off_c, 9, 42, 0
7, 33316, Note_on_c, 9, 42, 127
7, 33342, Note_off_c, 9, 42, 0
7, 33379, Note_on_c, 9, 42, 107
7, 33392, Note_off_c, 9, 42, 0
7, 33411, Note_on_c, 9, 42, 109
7, 33429, Note_off_c, 9, 42, 0
7, 33507, Note_on_c, 9, 42, 127
7, 33534, Note_off_c, 9, 42, 0
7, 33571, Note_on_c, 9, 42, 114
7, 33585, Note_off_c, 9, 42, 0
7, 33602, Note_on_c, 9, 42, 127
7, 33622, Note_off_c, 9, 42, 0
7, 33698, Note_on_c, 9, 42, 127
7, 33724, Note_off_c, 9, 42, 0
7, 33762, Note_on_c, 9, 42, 113
7, 33781, Note_off_c, 9, 42, 0
7, 33795, Note_on_c, 9, 42, 117
7, 33814, Note_off_c, 9, 42, 0
7, 33891, Note_on_c, 9, 42, 127
7, 33917, Note_off_c, 9, 42, 0
7, 33953, Note_on_c, 9, 42, 103
7, 33971, Note_off_c, 9, 42, 0
7, 33985, Note_on_c, 9, 42, 108
7, 34004, Note_off_c, 9, 42, 0
7, 34082, Note_on_c, 9, 42, 127
7, 34110, Note_off_c, 9, 42, 0
7, 34146, Note_on_c, 9, 42, 113
7, 34165, Note_off_c, 9, 42, 0
7, 34180, Note_on_c, 9, 42, 115
7, 34198, Note_off_c, 9, 42, 0
7, 34276, Note_on_c, 9, 42, 127
7, 34301, Note_off_c, 9, 42, 0
7, 34338, Note_on_c, 9, 42, 119
7, 34356, Note_off_c, 9, 42, 0
7, 34369, Note_on_c, 9, 42, 127
7, 34387, Note_off_c, 9, 42, 0
7, 34466, Note_on_c, 9, 42, 127
7, 34492, Note_off_c, 9, 42, 0
7, 34530, Note_on_c, 9, 42, 111
7, 34549, Note_off_c, 9, 42, 0
7, 34563, Note_on_c, 9, 42, 127
7, 34579, Note_off_c, 9, 42, 0
7, 34660, Note_on_c, 9, 42, 127
7, 34686, Note_off_c, 9, 42, 0
7, 34722, Note_on_c, 9, 42, 119
7, 34743, Note_off_c, 9, 42, 0
7, 34754, Note_on_c, 9, 42, 119
7, 34774, Note_off_c, 9, 42, 0
7, 34851, Note_on_c, 9, 42, 127
7, 34879, Note_off_c, 9, 42, 0
7, 34915, Note_on_c, 9, 42, 106
7, 34934, Note_off_c, 9, 42, 0
7, 34948, Note_on_c, 9, 42, 127
7, 34967, Note_off_c, 9, 42, 0
7, 35043, Note_on_c, 9, 42, 127
7, 35071, Note_off_c, 9, 42, 0
7, 35108, Note_on_c, 9, 42, 109
7, 35126, Note_off_c, 9, 42, 0
7, 35138, Note_on_c, 9, 42, 127
7, 35157, Note_off_c, 9, 42, 0
7, 35234, Note_on_c, 9, 42, 127
7, 35261, Note_off_c, 9, 42, 0
7, 35298, Note_on_c, 9, 42, 118
7, 35318, Note_off_c, 9, 42, 0
7, 35332, Note_on_c, 9, 42, 123
7, 35350, Note_off_c, 9, 42, 0
7, 35428, Note_on_c, 9, 42, 127
7, 35454, Note_off_c, 9, 42, 0
7, 35490, Note_on_c, 9, 42, 88
7, 35509, Note_off_c, 9, 42, 0
7, 35523, Note_on_c, 9, 42, 127
7, 35541, Note_off_c, 9, 42, 0
7, 35618, Note_on_c, 9, 42, 127
7, 35647, Note_off_c, 9, 42, 0
7, 35683, Note_on_c, 9, 42, 108
7, 35702, Note_off_c, 9, 42, 0
7, 35717, Note_on_c, 9, 42, 95
7, 35732, Note_off_c, 9, 42, 0
7, 35811, Note_on_c, 9, 42, 127
7, 35838, Note_off_c, 9, 42, 0
7, 35875, Note_on_c, 9, 42, 109
7, 35896, Note_off_c, 9, 42, 0
7, 35906, Note_on_c, 9, 42, 117
7, 35924, Note_off_c, 9, 42, 0
7, 36001, Note_on_c, 9, 42, 127
7, 36029, Note_off_c, 9, 42, 0
7, 36065, Note_on_c, 9, 42, 106
7, 36086, Note_off_c, 9, 42, 0
7, 36194, Note_on_c, 9, 42, 99
7, 36216, Note_off_c, 9, 42, 0
7, 36257, Note_on_c, 9, 42, 94
7, 36292, Note_off_c, 9, 42, 0
7, 36386, Note_on_c, 9, 42, 98
7, 36411, Note_off_c, 9, 42, 0
7, 36449, Note_on_c, 9, 42, 100
7, 36469, Note_off_c, 9, 42, 0
7, 36577, Note_on_c, 9, 42, 105
7, 36602, Note_off_c, 9, 42, 0
7, 36641, Note_on_c, 9, 42, 99
7, 36663, Note_off_c, 9, 42, 0
7, 36770, Note_on_c, 9, 42, 98
7, 36793, Note_off_c, 9, 42, 0
7, 36833, Note_on_c, 9, 42, 99
7, 36853, Note_off_c, 9, 42, 0
7, 36866, Note_on_c, 9, 42, 127
7, 36884, Note_off_c, 9, 42, 0
7, 36961, Note_on_c, 9, 42, 127
7, 36989, Note_off_c, 9, 42, 0
7, 37025, Note_on_c, 9, 42, 103
7, 37048, Note_off_c, 9, 42, 0
7, 37059, Note_on_c, 9, 42, 45
7, 37078, Note_off_c, 9, 42, 0
7, 37154, Note_on_c, 9, 42, 127
7, 37180, Note_off_c, 9, 42, 0
7, 37218, Note_on_c, 9, 42, 116
7, 37238, Note_off_c, 9, 42, 0
7, 37250, Note_on_c, 9, 42, 127
7, 37266, Note_off_c, 9, 42, 0
7, 37346, Note_on_c, 9, 42, 127
7, 37374, Note_off_c, 9, 42, 0
7, 37411, Note_on_c, 9, 42, 118
7, 37430, Note_off_c, 9, 42, 0
7, 37441, Note_on_c, 9, 42, 106
7, 37461, Note_off_c, 9, 42, 0
7, 37539, Note_on_c, 9, 42, 127
7, 37564, Note_off_c, 9, 42, 0
7, 37602, Note_on_c, 9, 42, 127
7, 37621, Note_off_c, 9, 42, 0
7, 37636, Note_on_c, 9, 42, 127
7, 37655, Note_off_c, 9, 42, 0
7, 37731, Note_on_c, 9, 42, 122
7, 37747, Note_off_c, 9, 42, 0
7, 37793, Note_on_c, 9, 42, 94
7, 37806, Note_off_c, 9, 42, 0
7, 37827, Note_on_c, 9, 42, 105
7, 37845, Note_off_c, 9, 42, 0
7, 37922, Note_on_c, 9, 42, 127
7, 37944, Note_off_c, 9, 42, 0
7, 37986, Note_on_c, 9, 42, 105
7, 38001, Note_off_c, 9, 42, 0
7, 38019, Note_on_c, 9, 42, 97
7, 38038, Note_off_c, 9, 42, 0
7, 38113, Note_on_c, 9, 42, 127
7, 38140, Note_off_c, 9, 42, 0
7, 38178, Note_on_c, 9, 42, 85
7, 38196, Note_off_c, 9, 42, 0
7, 38211, Note_on_c, 9, 42, 96
7, 38232, Note_off_c, 9, 42, 0
7, 38306, Note_on_c, 9, 42, 127
7, 38332, Note_off_c, 9, 42, 0
7, 38369, Note_on_c, 9, 42, 92
7, 38384, Note_off_c, 9, 42, 0
7, 38402, Note_on_c, 9, 42, 102
7, 38422, Note_off_c, 9, 42, 0
7, 38499, Note_on_c, 9, 42, 127
7, 38524, Note_off_c, 9, 42, 0
7, 38560, Note_on_c, 9, 42, 95
7, 38577, Note_off_c, 9, 42, 0
7, 38595, Note_on_c, 9, 42, 101
7, 38611, Note_off_c, 9, 42, 0
7, 38691, Note_on_c, 9, 42, 127
7, 38718, Note_off_c, 9, 42, 0
7, 38755, Note_on_c, 9, 42, 101
7, 38767, Note_off_c, 9, 42, 0
7, 38785, Note_on_c, 9, 42, 112
7, 38805, Note_off_c, 9, 42, 0
7, 38883, Note_on_c, 9, 42, 127
7, 38911, Note_off_c, 9, 42, 0
7, 38946, Note_on_c, 9, 42, 115
7, 38962, Note_off_c, 9, 42, 0
7, 38979, Note_on_c, 9, 42, 127
7, 38997, Note_off_c, 9, 42, 0
7, 39074, Note_on_c, 9, 42, 127
7, 39100, Note_off_c, 9, 42, 0
7, 39137, Note_on_c, 9, 42, 114
7, 39157, Note_off_c, 9, 42, 0
7, 39171, Note_on_c, 9, 42, 121
7, 39190, Note_off_c, 9, 42, 0
7, 39268, Note_on_c, 9, 42, 127
7, 39294, Note_off_c, 9, 42, 0
7, 39330, Note_on_c, 9, 42, 107
7, 39348, Note_off_c, 9, 42, 0
7, 39362, Note_on_c, 9, 42, 112
7, 39380, Note_off_c, 9, 42, 0
7, 39458, Note_on_c, 9, 42, 127
7, 39486, Note_off_c, 9, 42, 0
7, 39522, Note_on_c, 9, 42, 114
7, 39541, Note_off_c, 9, 42, 0
7, 39553, Note_on_c, 9, 42, 117
7, 39573, Note_off_c, 9, 42, 0
7, 39651, Note_on_c, 9, 42, 127
7, 39677, Note_off_c, 9, 42, 0
7, 39714, Note_on_c, 9, 42, 110
7, 39732, Note_off_c, 9, 42, 0
7, 39748, Note_on_c, 9, 42, 126
7, 39765, Note_off_c, 9, 42, 0
7, 39842, Note_on_c, 9, 42, 127
7, 39869, Note_off_c, 9, 42, 0
7, 39906, Note_on_c, 9, 42, 110
7, 39926, Note_off_c, 9, 42, 0
7, 39938, Note_on_c, 9, 42, 127
7, 39955, Note_off_c, 9, 42, 0
7, 40036, Note_on_c, 9, 42, 127
7, 40062, Note_off_c, 9, 42, 0
7, 40097, Note_on_c, 9, 42, 119
7, 40118, Note_off_c, 9, 42, 0
7, 40132, Note_on_c, 9, 42, 124
7, 40151, Note_off_c, 9, 42, 0
7, 40226, Note_on_c, 9, 42, 127
7, 40254, Note_off_c, 9, 42, 0
7, 40290, Note_on_c, 9, 42, 108
7, 40309, Note_off_c, 9, 42, 0
7, 40322, Note_on_c, 9, 42, 127
7, 40342, Note_off_c, 9, 42, 0
7, 40418, Note_on_c, 9, 42, 127
7, 40447, Note_off_c, 9, 42, 0
7, 40482, Note_on_c, 9, 42, 105
7, 40501, Note_off_c, 9, 42, 0
7, 40515, Note_on_c, 9, 42, 127
7, 40533, Note_off_c, 9, 42, 0
7, 40611, Note_on_c, 9, 42, 127
7, 40637, Note_off_c, 9, 42, 0
7, 40675, Note_on_c, 9, 42, 120
7, 40696, Note_off_c, 9, 42, 0
7, 40707, Note_on_c, 9, 42, 125
7, 40725, Note_off_c, 9, 42, 0
7, 40804, Note_on_c, 9, 42, 127
7, 40829, Note_off_c, 9, 42, 0
7, 40866, Note_on_c, 9, 42, 92
7, 40885, Note_off_c, 9, 42, 0
7, 40900, Note_on_c, 9, 42, 127
7, 40917, Note_off_c, 9, 42, 0
7, 40994, Note_on_c, 9, 42, 127
7, 41023, Note_off_c, 9, 42, 0
7, 41058, Note_on_c, 9, 42, 104
7, 41077, Note_off_c, 9, 42, 0
7, 41089, Note_on_c, 9, 42, 99
7, 41106, Note_off_c, 9, 42, 0
7, 41186, Note_on_c, 9, 42, 127
7, 41213, Note_off_c, 9, 42, 0
7, 41251, Note_on_c, 9, 42, 106
7, 41271, Note_off_c, 9, 42, 0
7, 41283, Note_on_c, 9, 42, 118
7, 41299, Note_off_c, 9, 42, 0
7, 41378, Note_on_c, 9, 42, 127
7, 41404, Note_off_c, 9, 42, 0
7, 41443, Note_on_c, 9, 42, 105
7, 41463, Note_off_c, 9, 42, 0
7, 41476, Note_on_c, 9, 42, 118
7, 41493, Note_off_c, 9, 42, 0
7, 41572, Note_on_c, 9, 42, 127
7, 41599, Note_off_c, 9, 42, 0
7, 41632, Note_on_c, 9, 42, 105
7, 41655, Note_off_c, 9, 42, 0
7, 41667, Note_on_c, 9, 42, 53
7, 41686, Note_off_c, 9, 42, 0
7, 41762, Note_on_c, 9, 42, 127
7, 41788, Note_off_c, 9, 42, 0
7, 41827, Note_on_c, 9, 42, 113
7, 41846, Note_off_c, 9, 42, 0
7, 41857, Note_on_c, 9, 42, 120
7, 41875, Note_off_c, 9, 42, 0
7, 41954, Note_on_c, 9, 42, 127
7, 41981, Note_off_c, 9, 42, 0
7, 42019, Note_on_c, 9, 42, 112
7, 42038, Note_off_c, 9, 42, 0
7, 42051, Note_on_c, 9, 42, 107
7, 42069, Note_off_c, 9, 42, 0
7, 42147, Note_on_c, 9, 42, 127
7, 42172, Note_off_c, 9, 42, 0
7, 42211, Note_on_c, 9, 42, 127
7, 42228, Note_off_c, 9, 42, 0
7, 42243, Note_on_c, 9, 42, 127
7, 42262, Note_off_c, 9, 42, 0
7, 42340, Note_on_c, 9, 42, 123
7, 42356, Note_off_c, 9, 42, 0
7, 42401, Note_on_c, 9, 42, 93
7, 42414, Note_off_c, 9, 42, 0
7, 42435, Note_on_c, 9, 42, 108
7, 42454, Note_off_c, 9, 42, 0
7, 42530, Note_on_c, 9, 42, 127
7, 42553, Note_off_c, 9, 42, 0
7, 42595, Note_on_c, 9, 42, 97
7, 42610, Note_off_c, 9, 42, 0
7, 42626, Note_on_c, 9, 42, 97
7, 42645, Note_off_c, 9, 42, 0
7, 42723, Note_on_c, 9, 42, 127
7, 42749, Note_off_c, 9, 42, 0
7, 42787, Note_on_c, 9, 42, 83
7, 42804, Note_off_c, 9, 42, 0
7, 42818, Note_on_c, 9, 42, 102
7, 42840, Note_off_c, 9, 42, 0
7, 42914, Note_on_c, 9, 42, 127
7, 42940, Note_off_c, 9, 42, 0
7, 42978, Note_on_c, 9, 42, 91
7, 42991, Note_off_c, 9, 42, 0
7, 43011, Note_on_c, 9, 42, 101
7, 43031, Note_off_c, 9, 42, 0
7, 43107, Note_on_c, 9, 42, 127
7, 43132, Note_off_c, 9, 42, 0
7, 43170, Note_on_c, 9, 42, 100
7, 43186, Note_off_c, 9, 42, 0
7, 43202, Note_on_c, 9, 42, 98
7, 43220, Note_off_c, 9, 42, 0
7, 43299, Note_on_c, 9, 42, 127
7, 43325, Note_off_c, 9, 42, 0
7, 43363, Note_on_c, 9, 42, 98
7, 43376, Note_off_c, 9, 42, 0
7, 43396, Note_on_c, 9, 42, 107
7, 43414, Note_off_c, 9, 42, 0
7, 43492, Note_on_c, 9, 42, 127
7, 43519, Note_off_c, 9, 42, 0
7, 43555, Note_on_c, 9, 42, 113
7, 43569, Note_off_c, 9, 42, 0
7, 43587, Note_on_c, 9, 42, 127
7, 43607, Note_off_c, 9, 42, 0
7, 43683, Note_on_c, 9, 42, 127
7, 43709, Note_off_c, 9, 42, 0
7, 43747, Note_on_c, 9, 42, 109
7, 43766, Note_off_c, 9, 42, 0
7, 43780, Note_on_c, 9, 42, 118
7, 43799, Note_off_c, 9, 42, 0
7, 43876, Note_on_c, 9, 42, 127
7, 43902, Note_off_c, 9, 42, 0
7, 43937, Note_on_c, 9, 42, 108
7, 43955, Note_off_c, 9, 42, 0
7, 43969, Note_on_c, 9, 42, 113
7, 43988, Note_off_c, 9, 42, 0
7, 44066, Note_on_c, 9, 42, 127
7, 44094, Note_off_c, 9, 42, 0
7, 44131, Note_on_c, 9, 42, 114
7, 44149, Note_off_c, 9, 42, 0
7, 44164, Note_on_c, 9, 42, 114
7, 44182, Note_off_c, 9, 42, 0
7, 44259, Note_on_c, 9, 42, 127
7, 44284, Note_off_c, 9, 42, 0
7, 44323, Note_on_c, 9, 42, 121
7, 44341, Note_off_c, 9, 42, 0
7, 44354, Note_on_c, 9, 42, 120
7, 44372, Note_off_c, 9, 42, 0
7, 44451, Note_on_c, 9, 42, 127
7, 44477, Note_off_c, 9, 42, 0
7, 44514, Note_on_c, 9, 42, 114
7, 44533, Note_off_c, 9, 42, 0
7, 44547, Note_on_c, 9, 42, 127
7, 44563, Note_off_c, 9, 42, 0
7, 44643, Note_on_c, 9, 42, 127
7, 44669, Note_off_c, 9, 42, 0
7, 44705, Note_on_c, 9, 42, 119
7, 44726, Note_off_c, 9, 42, 0
7, 44739, Note_on_c, 9, 42, 123
7, 44759, Note_off_c, 9, 42, 0
7, 44835, Note_on_c, 9, 42, 127
7, 44863, Note_off_c, 9, 42, 0
7, 44898, Note_on_c, 9, 42, 106
7, 44917, Note_off_c, 9, 42, 0
7, 44932, Note_on_c, 9, 42, 127
7, 44951, Note_off_c, 9, 42, 0
7, 45027, Note_on_c, 9, 42, 127
7, 45055, Note_off_c, 9, 42, 0
7, 45092, Note_on_c, 9, 42, 107
7, 45110, Note_off_c, 9, 42, 0
7, 45123, Note_on_c, 9, 42, 127
7, 45142, Note_off_c, 9, 42, 0
7, 45218, Note_on_c, 9, 42, 127
7, 45245, Note_off_c, 9, 42, 0
7, 45283, Note_on_c, 9, 42, 116
7, 45304, Note_off_c, 9, 42, 0
7, 45315, Note_on_c, 9, 42, 122
7, 45334, Note_off_c, 9, 42, 0
7, 45411, Note_on_c, 9, 42, 127
7, 45437, Note_off_c, 9, 42, 0
7, 45474, Note_on_c, 9, 42, 99
7, 45493, Note_off_c, 9, 42, 0
7, 45506, Note_on_c, 9, 42, 127
7, 45524, Note_off_c, 9, 42, 0
7, 45602, Note_on_c, 9, 42, 127
7, 45631, Note_off_c, 9, 42, 0
7, 45667, Note_on_c, 9, 42, 110
7, 45686, Note_off_c, 9, 42, 0
7, 45700, Note_on_c, 9, 42, 98
7, 45715, Note_off_c, 9, 42, 0
7, 45795, Note_on_c, 9, 42, 127
7, 45821, Note_off_c, 9, 42, 0
7, 45858, Note_on_c, 9, 42, 101
7, 45879, Note_off_c, 9, 42, 0
7, 45891, Note_on_c, 9, 42, 118
7, 45908, Note_off_c, 9, 42, 0
7, 45986, Note_on_c, 9, 42, 127
7, 46013, Note_off_c, 9, 42, 0
7, 46049, Note_on_c, 9, 42, 107
7, 46069, Note_off_c, 9, 42, 0
7, 46082, Note_on_c, 9, 42, 89
7, 46105, Note_off_c, 9, 42, 0
7, 46274, Note_on_c, 9, 42, 90
7, 46298, Note_off_c, 9, 42, 0
7, 46469, Note_on_c, 9, 42, 88
7, 46490, Note_off_c, 9, 42, 0
7, 46658, Note_on_c, 9, 42, 88
7, 46682, Note_off_c, 9, 42, 0
7, 46850, Note_on_c, 9, 42, 90
7, 46874, Note_off_c, 9, 42, 0
7, 47042, Note_on_c, 9, 42, 92
7, 47066, Note_off_c, 9, 42, 0
7, 47233, Note_on_c, 9, 42, 89
7, 47257, Note_off_c, 9, 42, 0
7, 47426, Note_on_c, 9, 42, 88
7, 47449, Note_off_c, 9, 42, 0
7, 47618, Note_on_c, 9, 42, 87
7, 47642, Note_off_c, 9, 42, 0
7, 47810, Note_on_c, 9, 42, 87
7, 47834, Note_off_c, 9, 42, 0
7, 48004, Note_on_c, 9, 42, 127
7, 48023, Note_off_c, 9, 42, 0
7, 48099, Note_on_c, 9, 42, 121
7, 48116, Note_off_c, 9, 42, 0
7, 48162, Note_on_c, 9, 42, 91
7, 48174, Note_off_c, 9, 42, 0
7, 48195, Note_on_c, 9, 42, 105
7, 48214, Note_off_c, 9, 42, 0
7, 48290, Note_on_c, 9, 42, 127
7, 48313, Note_off_c, 9, 42, 0
7, 48352, Note_on_c, 9, 42, 100
7, 48369, Note_off_c, 9, 42, 0
7, 48387, Note_on_c, 9, 42, 100
7, 48405, Note_off_c, 9, 42, 0
7, 48483, Note_on_c, 9, 42, 127
7, 48510, Note_off_c, 9, 42, 0
7, 48548, Note_on_c, 9, 42, 78
7, 48565, Note_off_c, 9, 42, 0
7, 48577, Note_on_c, 9, 42, 99
7, 48599, Note_off_c, 9, 42, 0
7, 48675, Note_on_c, 9, 42, 127
7, 48701, Note_off_c, 9, 42, 0
7, 48738, Note_on_c, 9, 42, 88
7, 48753, Note_off_c, 9, 42, 0
7, 48771, Note_on_c, 9, 42, 98
7, 48792, Note_off_c, 9, 42, 0
7, 48867, Note_on_c, 9, 42, 127
7, 48893, Note_off_c, 9, 42, 0
7, 48929, Note_on_c, 9, 42, 101
7, 48945, Note_off_c, 9, 42, 0
7, 48964, Note_on_c, 9, 42, 102
7, 48981, Note_off_c, 9, 42, 0
7, 49059, Note_on_c, 9, 42, 127
7, 49086, Note_off_c, 9, 42, 0
7, 49121, Note_on_c, 9, 42, 104
7, 49134, Note_off_c, 9, 42, 0
7, 49155, Note_on_c, 9, 42, 110
7, 49173, Note_off_c, 9, 42, 0
7, 49251, Note_on_c, 9, 42, 127
7, 49279, Note_off_c, 9, 42, 0
7, 49315, Note_on_c, 9, 42, 111
7, 49329, Note_off_c, 9, 42, 0
7, 49347, Note_on_c, 9, 42, 127
7, 49367, Note_off_c, 9, 42, 0
7, 49443, Note_on_c, 9, 42, 127
7, 49468, Note_off_c, 9, 42, 0
7, 49506, Note_on_c, 9, 42, 109
7, 49525, Note_off_c, 9, 42, 0
7, 49539, Note_on_c, 9, 42, 124
7, 49559, Note_off_c, 9, 42, 0
7, 49635, Note_on_c, 9, 42, 127
7, 49662, Note_off_c, 9, 42, 0
7, 49698, Note_on_c, 9, 42, 105
7, 49716, Note_off_c, 9, 42, 0
7, 49732, Note_on_c, 9, 42, 106
7, 49750, Note_off_c, 9, 42, 0
7, 49826, Note_on_c, 9, 42, 127
7, 49853, Note_off_c, 9, 42, 0
7, 49890, Note_on_c, 9, 42, 118
7, 49910, Note_off_c, 9, 42, 0
7, 49922, Note_on_c, 9, 42, 113
7, 49941, Note_off_c, 9, 42, 0
7, 50019, Note_on_c, 9, 42, 127
7, 50046, Note_off_c, 9, 42, 0
7, 50083, Note_on_c, 9, 42, 116
7, 50100, Note_off_c, 9, 42, 0
7, 50114, Note_on_c, 9, 42, 126
7, 50132, Note_off_c, 9, 42, 0
7, 50211, Note_on_c, 9, 42, 127
7, 50237, Note_off_c, 9, 42, 0
7, 50274, Note_on_c, 9, 42, 109
7, 50294, Note_off_c, 9, 42, 0
7, 50306, Note_on_c, 9, 42, 127
7, 50323, Note_off_c, 9, 42, 0
7, 50403, Note_on_c, 9, 42, 127
7, 50429, Note_off_c, 9, 42, 0
7, 50466, Note_on_c, 9, 42, 120
7, 50487, Note_off_c, 9, 42, 0
7, 50499, Note_on_c, 9, 42, 118
7, 50518, Note_off_c, 9, 42, 0
7, 50594, Note_on_c, 9, 42, 127
7, 50622, Note_off_c, 9, 42, 0
7, 50657, Note_on_c, 9, 42, 112
7, 50677, Note_off_c, 9, 42, 0
7, 50691, Note_on_c, 9, 42, 127
7, 50710, Note_off_c, 9, 42, 0
7, 50787, Note_on_c, 9, 42, 127
7, 50816, Note_off_c, 9, 42, 0
7, 50850, Note_on_c, 9, 42, 113
7, 50869, Note_off_c, 9, 42, 0
7, 50882, Note_on_c, 9, 42, 127
7, 50901, Note_off_c, 9, 42, 0
7, 50979, Note_on_c, 9, 42, 127
7, 51006, Note_off_c, 9, 42, 0
7, 51042, Note_on_c, 9, 42, 117
7, 51063, Note_off_c, 9, 42, 0
7, 51074, Note_on_c, 9, 42, 121
7, 51093, Note_off_c, 9, 42, 0
7, 51170, Note_on_c, 9, 42, 127
7, 51197, Note_off_c, 9, 42, 0
7, 51233, Note_on_c, 9, 42, 96
7, 51251, Note_off_c, 9, 42, 0
7, 51266, Note_on_c, 9, 42, 127
7, 51284, Note_off_c, 9, 42, 0
7, 51363, Note_on_c, 9, 42, 127
7, 51392, Note_off_c, 9, 42, 0
7, 51426, Note_on_c, 9, 42, 103
7, 51447, Note_off_c, 9, 42, 0
7, 51459, Note_on_c, 9, 42, 100
7, 51475, Note_off_c, 9, 42, 0
7, 51554, Note_on_c, 9, 42, 127
7, 51582, Note_off_c, 9, 42, 0
7, 51619, Note_on_c, 9, 42, 108
7, 51639, Note_off_c, 9, 42, 0
7, 51650, Note_on_c, 9, 42, 119
7, 51667, Note_off_c, 9, 42, 0
7, 51747, Note_on_c, 9, 42, 127
7, 51774, Note_off_c, 9, 42, 0
7, 51810, Note_on_c, 9, 42, 107
7, 51831, Note_off_c, 9, 42, 0
7, 51842, Note_on_c, 9, 42, 125
7, 51860, Note_off_c, 9, 42, 0
7, 51939, Note_on_c, 9, 42, 127
7, 51967, Note_off_c, 9, 42, 0
7, 52000, Note_on_c, 9, 42, 111
7, 52023, Note_off_c, 9, 42, 0
7, 52034, Note_on_c, 9, 42, 53
7, 52053, Note_off_c, 9, 42, 0
7, 52130, Note_on_c, 9, 42, 127
7, 52156, Note_off_c, 9, 42, 0
7, 52194, Note_on_c, 9, 42, 118
7, 52215, Note_off_c, 9, 42, 0
7, 52215, End_track
8, 0, Start_track
8, 0, Text_t, "open hh "
8, 0, Channel_prefix, 9
8, 36100, Note_on_c, 9, 46, 86
8, 36122, Note_off_c, 9, 46, 0
8, 36293, Note_on_c, 9, 46, 88
8, 36314, Note_off_c, 9, 46, 0
8, 36484, Note_on_c, 9, 46, 90
8, 36506, Note_off_c, 9, 46, 0
8, 36676, Note_on_c, 9, 46, 87
8, 36697, Note_off_c, 9, 46, 0
8, 46654, Note_on_c, 9, 46, 108
8, 46702, Note_off_c, 9, 46, 0
8, 46702, End_track
9, 0, Start_track
9, 0, Text_t, "bass    "
9, 0, Channel_prefix, 1
9, 1152, Note_on_c, 1, 31, 96
9, 1328, Note_off_c, 1, 31, 0
9, 1535, Note_on_c, 1, 31, 96
9, 1615, Note_off_c, 1, 31, 0
9, 1631, Note_on_c, 1, 31, 90
9, 1710, Note_off_c, 1, 31, 0
9, 1725, Note_on_c, 1, 31, 90
9, 1806, Note_off_c, 1, 31, 0
9, 1918, Note_on_c, 1, 31, 98
9, 2094, Note_off_c, 1, 31, 0
9, 2302, Note_on_c, 1, 31, 100
9, 2383, Note_off_c, 1, 31, 0
9, 2398, Note_on_c, 1, 31, 90
9, 2477, Note_off_c, 1, 31, 0
9, 2493, Note_on_c, 1, 31, 91
9, 2577, Note_off_c, 1, 31, 0
9, 2685, Note_on_c, 1, 31, 98
9, 2766, Note_off_c, 1, 31, 0
9, 2784, Note_on_c, 1, 35, 89
9, 2861, Note_off_c, 1, 35, 0
9, 2878, Note_on_c, 1, 38, 90
9, 2959, Note_off_c, 1, 38, 0
9, 2974, Note_on_c, 1, 40, 90
9, 3054, Note_off_c, 1, 40, 0
9, 3071, Note_on_c, 1, 41, 89
9, 3149, Note_off_c, 1, 41, 0
9, 3166, Note_on_c, 1, 40, 91
9, 3248, Note_off_c, 1, 40, 0
9, 3262, Note_on_c, 1, 38, 92
9, 3343, Note_off_c, 1, 38, 0
9, 3361, Note_on_c, 1, 35, 90
9, 3437, Note_off_c, 1, 35, 0
9, 3455, Note_on_c, 1, 31, 98
9, 3536, Note_off_c, 1, 31, 0
9, 3550, Note_on_c, 1, 35, 89
9, 3631, Note_off_c, 1, 35, 0
9, 3646, Note_on_c, 1, 38, 91
9, 3726, Note_off_c, 1, 38, 0
9, 3743, Note_on_c, 1, 40, 92
9, 3821, Note_off_c, 1, 40, 0
9, 3839, Note_on_c, 1, 41, 89
9, 3917, Note_off_c, 1, 41, 0
9, 3933, Note_on_c, 1, 40, 88
9, 4014, Note_off_c, 1, 40, 0
9, 4032, Note_on_c, 1, 38, 88
9, 4109, Note_off_c, 1, 38, 0
9, 4128, Note_on_c, 1, 35, 92
9, 4208, Note_off_c, 1, 35, 0
9, 4222, Note_on_c, 1, 24, 96
9, 4302, Note_off_c, 1, 24, 0
9, 4317, Note_on_c, 1, 28, 92
9, 4398, Note_off_c, 1, 28, 0
9, 4416, Note_on_c, 1, 31, 92
9, 4495, Note_off_c, 1, 31, 0
9, 4510, Note_on_c, 1, 33, 90
9, 4590, Note_off_c, 1, 33, 0
9, 4606, Note_on_c, 1, 34, 89
9, 4686, Note_off_c, 1, 34, 0
9, 4704, Note_on_c, 1, 33, 92
9, 4781, Note_off_c, 1, 33, 0
9, 4799, Note_on_c, 1, 31, 90
9, 4879, Note_off_c, 1, 31, 0
9, 4894, Note_on_c, 1, 28, 89
9, 4974, Note_off_c, 1, 28, 0
9, 4994, Note_on_c, 1, 31, 100
9, 5069, Note_off_c, 1, 31, 0
9, 5087, Note_on_c, 1, 35, 92
9, 5168, Note_off_c, 1, 35, 0
9, 5182, Note_on_c, 1, 38, 92
9, 5262, Note_off_c, 1, 38, 0
9, 5277, Note_on_c, 1, 40, 88
9, 5358, Note_off_c, 1, 40, 0
9, 5373, Note_on_c, 1, 41, 91
9, 5456, Note_off_c, 1, 41, 0
9, 5470, Note_on_c, 1, 40, 92
9, 5551, Note_off_c, 1, 40, 0
9, 5565, Note_on_c, 1, 38, 88
9, 5646, Note_off_c, 1, 38, 0
9, 5664, Note_on_c, 1, 35, 91
9, 5741, Note_off_c, 1, 35, 0
9, 5759, Note_on_c, 1, 26, 100
9, 5839, Note_off_c, 1, 26, 0
9, 5854, Note_on_c, 1, 30, 92
9, 5934, Note_off_c, 1, 30, 0
9, 5951, Note_on_c, 1, 33, 89
9, 6029, Note_off_c, 1, 33, 0
9, 6046, Note_on_c, 1, 30, 90
9, 6128, Note_off_c, 1, 30, 0
9, 6142, Note_on_c, 1, 24, 99
9, 6223, Note_off_c, 1, 24, 0
9, 6241, Note_on_c, 1, 28, 91
9, 6318, Note_off_c, 1, 28, 0
9, 6335, Note_on_c, 1, 31, 90
9, 6416, Note_off_c, 1, 31, 0
9, 6430, Note_on_c, 1, 28, 90
9, 6511, Note_off_c, 1, 28, 0
9, 6525, Note_on_c, 1, 31, 90
9, 6701, Note_off_c, 1, 31, 0
9, 6913, Note_on_c, 1, 31, 91
9, 6989, Note_off_c, 1, 31, 0
9, 7007, Note_on_c, 1, 31, 92
9, 7089, Note_off_c, 1, 31, 0
9, 7102, Note_on_c, 1, 31, 90
9, 7183, Note_off_c, 1, 31, 0
9, 7297, Note_on_c, 1, 31, 99
9, 7375, Note_off_c, 1, 31, 0
9, 7390, Note_on_c, 1, 35, 89
9, 7470, Note_off_c, 1, 35, 0
9, 7485, Note_on_c, 1, 38, 90
9, 7566, Note_off_c, 1, 38, 0
9, 7584, Note_on_c, 1, 40, 92
9, 7661, Note_off_c, 1, 40, 0
9, 7679, Note_on_c, 1, 41, 91
9, 7760, Note_off_c, 1, 41, 0
9, 7774, Note_on_c, 1, 40, 92
9, 7854, Note_off_c, 1, 40, 0
9, 7873, Note_on_c, 1, 38, 90
9, 7949, Note_off_c, 1, 38, 0
9, 7967, Note_on_c, 1, 35, 90
9, 8048, Note_off_c, 1, 35, 0
9, 8064, Note_on_c, 1, 31, 99
9, 8143, Note_off_c, 1, 31, 0
9, 8157, Note_on_c, 1, 35, 89
9, 8237, Note_off_c, 1, 35, 0
9, 8253, Note_on_c, 1, 38, 92
9, 8337, Note_off_c, 1, 38, 0
9, 8350, Note_on_c, 1, 40, 89
9, 8431, Note_off_c, 1, 40, 0
9, 8445, Note_on_c, 1, 41, 88
9, 8526, Note_off_c, 1, 41, 0
9, 8544, Note_on_c, 1, 40, 90
9, 8621, Note_off_c, 1, 40, 0
9, 8639, Note_on_c, 1, 38, 91
9, 8720, Note_off_c, 1, 38, 0
9, 8734, Note_on_c, 1, 35, 91
9, 8815, Note_off_c, 1, 35, 0
9, 8829, Note_on_c, 1, 24, 97
9, 8909, Note_off_c, 1, 24, 0
9, 8926, Note_on_c, 1, 28, 90
9, 9005, Note_off_c, 1, 28, 0
9, 9022, Note_on_c, 1, 31, 89
9, 9103, Note_off_c, 1, 31, 0
9, 9117, Note_on_c, 1, 33, 90
9, 9198, Note_off_c, 1, 33, 0
9, 9216, Note_on_c, 1, 34, 90
9, 9296, Note_off_c, 1, 34, 0
9, 9310, Note_on_c, 1, 33, 89
9, 9391, Note_off_c, 1, 33, 0
9, 9405, Note_on_c, 1, 31, 90
9, 9486, Note_off_c, 1, 31, 0
9, 9504, Note_on_c, 1, 28, 90
9, 9581, Note_off_c, 1, 28, 0
9, 9599, Note_on_c, 1, 31, 89
9, 9677, Note_off_c, 1, 31, 0
9, 9693, Note_on_c, 1, 31, 91
9, 9774, Note_off_c, 1, 31, 0
9, 9794, Note_on_c, 1, 24, 90
9, 9869, Note_off_c, 1, 24, 0
9, 9887, Note_on_c, 1, 24, 89
9, 9968, Note_off_c, 1, 24, 0
9, 9982, Note_on_c, 1, 31, 92
9, 10063, Note_off_c, 1, 31, 0
9, 10077, Note_on_c, 1, 30, 91
9, 10158, Note_off_c, 1, 30, 0
9, 10176, Note_on_c, 1, 28, 89
9, 10255, Note_off_c, 1, 28, 0
9, 10270, Note_on_c, 1, 26, 92
9, 10350, Note_off_c, 1, 26, 0
9, 10366, Note_on_c, 1, 31, 98
9, 10445, Note_off_c, 1, 31, 0
9, 10754, Note_on_c, 1, 31, 98
9, 10829, Note_off_c, 1, 31, 0
9, 11133, Note_on_c, 1, 24, 97
9, 11217, Note_off_c, 1, 24, 0
9, 11519, Note_on_c, 1, 24, 99
9, 11601, Note_off_c, 1, 24, 0
9, 11901, Note_on_c, 1, 24, 99
9, 11983, Note_off_c, 1, 24, 0
9, 11997, Note_on_c, 1, 28, 92
9, 12078, Note_off_c, 1, 28, 0
9, 12096, Note_on_c, 1, 31, 89
9, 12176, Note_off_c, 1, 31, 0
9, 12190, Note_on_c, 1, 33, 90
9, 12271, Note_off_c, 1, 33, 0
9, 12285, Note_on_c, 1, 34, 91
9, 12366, Note_off_c, 1, 34, 0
9, 12381, Note_on_c, 1, 33, 91
9, 12461, Note_off_c, 1, 33, 0
9, 12479, Note_on_c, 1, 31, 90
9, 12557, Note_off_c, 1, 31, 0
9, 12574, Note_on_c, 1, 28, 92
9, 12654, Note_off_c, 1, 28, 0
9, 12673, Note_on_c, 1, 31, 99
9, 12750, Note_off_c, 1, 31, 0
9, 12767, Note_on_c, 1, 35, 88
9, 12848, Note_off_c, 1, 35, 0
9, 12862, Note_on_c, 1, 38, 92
9, 12943, Note_off_c, 1, 38, 0
9, 12957, Note_on_c, 1, 40, 88
9, 13038, Note_off_c, 1, 40, 0
9, 13057, Note_on_c, 1, 41, 89
9, 13135, Note_off_c, 1, 41, 0
9, 13151, Note_on_c, 1, 40, 88
9, 13230, Note_off_c, 1, 40, 0
9, 13246, Note_on_c, 1, 38, 91
9, 13325, Note_off_c, 1, 38, 0
9, 13345, Note_on_c, 1, 35, 89
9, 13421, Note_off_c, 1, 35, 0
9, 13439, Note_on_c, 1, 24, 99
9, 13520, Note_off_c, 1, 24, 0
9, 13534, Note_on_c, 1, 28, 90
9, 13614, Note_off_c, 1, 28, 0
9, 13629, Note_on_c, 1, 31, 92
9, 13710, Note_off_c, 1, 31, 0
9, 13728, Note_on_c, 1, 33, 89
9, 13808, Note_off_c, 1, 33, 0
9, 13824, Note_on_c, 1, 34, 90
9, 13903, Note_off_c, 1, 34, 0
9, 13917, Note_on_c, 1, 33, 90
9, 13998, Note_off_c, 1, 33, 0
9, 14013, Note_on_c, 1, 31, 92
9, 14093, Note_off_c, 1, 31, 0
9, 14110, Note_on_c, 1, 28, 88
9, 14191, Note_off_c, 1, 28, 0
9, 14205, Note_on_c, 1, 31, 98
9, 14286, Note_off_c, 1, 31, 0
9, 14304, Note_on_c, 1, 35, 92
9, 14381, Note_off_c, 1, 35, 0
9, 14399, Note_on_c, 1, 38, 88
9, 14480, Note_off_c, 1, 38, 0
9, 14494, Note_on_c, 1, 40, 88
9, 14575, Note_off_c, 1, 40, 0
9, 14589, Note_on_c, 1, 41, 91
9, 14670, Note_off_c, 1, 41, 0
9, 14686, Note_on_c, 1, 40, 90
9, 14765, Note_off_c, 1, 40, 0
9, 14781, Note_on_c, 1, 38, 90
9, 14863, Note_off_c, 1, 38, 0
9, 14877, Note_on_c, 1, 35, 89
9, 14958, Note_off_c, 1, 35, 0
9, 14976, Note_on_c, 1, 26, 100
9, 15053, Note_off_c, 1, 26, 0
9, 15070, Note_on_c, 1, 30, 90
9, 15151, Note_off_c, 1, 30, 0
9, 15166, Note_on_c, 1, 33, 90
9, 15246, Note_off_c, 1, 33, 0
9, 15264, Note_on_c, 1, 30, 89
9, 15341, Note_off_c, 1, 30, 0
9, 15359, Note_on_c, 1, 24, 100
9, 15437, Note_off_c, 1, 24, 0
9, 15454, Note_on_c, 1, 28, 92
9, 15535, Note_off_c, 1, 28, 0
9, 15549, Note_on_c, 1, 31, 90
9, 15629, Note_off_c, 1, 31, 0
9, 15648, Note_on_c, 1, 28, 91
9, 15728, Note_off_c, 1, 28, 0
9, 15742, Note_on_c, 1, 31, 90
9, 15918, Note_off_c, 1, 31, 0
9, 16126, Note_on_c, 1, 31, 91
9, 16205, Note_off_c, 1, 31, 0
9, 16221, Note_on_c, 1, 31, 90
9, 16301, Note_off_c, 1, 31, 0
9, 16320, Note_on_c, 1, 31, 89
9, 16400, Note_off_c, 1, 31, 0
9, 16513, Note_on_c, 1, 31, 99
9, 16590, Note_off_c, 1, 31, 0
9, 16608, Note_on_c, 1, 35, 90
9, 16688, Note_off_c, 1, 35, 0
9, 16702, Note_on_c, 1, 38, 90
9, 16783, Note_off_c, 1, 38, 0
9, 16798, Note_on_c, 1, 40, 92
9, 16878, Note_off_c, 1, 40, 0
9, 16893, Note_on_c, 1, 41, 89
9, 16973, Note_off_c, 1, 41, 0
9, 16991, Note_on_c, 1, 40, 91
9, 17071, Note_off_c, 1, 40, 0
9, 17085, Note_on_c, 1, 38, 92
9, 17166, Note_off_c, 1, 38, 0
9, 17184, Note_on_c, 1, 35, 88
9, 17261, Note_off_c, 1, 35, 0
9, 17279, Note_on_c, 1, 31, 100
9, 17360, Note_off_c, 1, 31, 0
9, 17374, Note_on_c, 1, 35, 88
9, 17455, Note_off_c, 1, 35, 0
9, 17469, Note_on_c, 1, 38, 90
9, 17550, Note_off_c, 1, 38, 0
9, 17566, Note_on_c, 1, 40, 91
9, 17645, Note_off_c, 1, 40, 0
9, 17661, Note_on_c, 1, 41, 91
9, 17743, Note_off_c, 1, 41, 0
9, 17757, Note_on_c, 1, 40, 91
9, 17838, Note_off_c, 1, 40, 0
9, 17856, Note_on_c, 1, 38, 90
9, 17933, Note_off_c, 1, 38, 0
9, 17951, Note_on_c, 1, 35, 89
9, 18031, Note_off_c, 1, 35, 0
9, 18046, Note_on_c, 1, 24, 97
9, 18126, Note_off_c, 1, 24, 0
9, 18141, Note_on_c, 1, 28, 89
9, 18221, Note_off_c, 1, 28, 0
9, 18239, Note_on_c, 1, 31, 88
9, 18318, Note_off_c, 1, 31, 0
9, 18334, Note_on_c, 1, 33, 92
9, 18415, Note_off_c, 1, 33, 0
9, 18429, Note_on_c, 1, 34, 91
9, 18510, Note_off_c, 1, 34, 0
9, 18528, Note_on_c, 1, 33, 88
9, 18608, Note_off_c, 1, 33, 0
9, 18622, Note_on_c, 1, 31, 88
9, 18703, Note_off_c, 1, 31, 0
9, 18717, Note_on_c, 1, 28, 92
9, 18798, Note_off_c, 1, 28, 0
9, 18817, Note_on_c, 1, 31, 90
9, 18893, Note_off_c, 1, 31, 0
9, 18912, Note_on_c, 1, 31, 88
9, 18990, Note_off_c, 1, 31, 0
9, 19006, Note_on_c, 1, 24, 92
9, 19085, Note_off_c, 1, 24, 0
9, 19101, Note_on_c, 1, 24, 88
9, 19181, Note_off_c, 1, 24, 0
9, 19200, Note_on_c, 1, 31, 92
9, 19280, Note_off_c, 1, 31, 0
9, 19294, Note_on_c, 1, 30, 92
9, 19375, Note_off_c, 1, 30, 0
9, 19389, Note_on_c, 1, 28, 89
9, 19470, Note_off_c, 1, 28, 0
9, 19489, Note_on_c, 1, 26, 90
9, 19568, Note_off_c, 1, 26, 0
9, 19582, Note_on_c, 1, 31, 98
9, 19664, Note_off_c, 1, 31, 0
9, 19966, Note_on_c, 1, 31, 100
9, 20046, Note_off_c, 1, 31, 0
9, 20349, Note_on_c, 1, 24, 99
9, 20430, Note_off_c, 1, 24, 0
9, 20737, Note_on_c, 1, 24, 97
9, 20813, Note_off_c, 1, 24, 0
9, 21119, Note_on_c, 1, 24, 96
9, 21198, Note_off_c, 1, 24, 0
9, 21214, Note_on_c, 1, 28, 92
9, 21295, Note_off_c, 1, 28, 0
9, 21309, Note_on_c, 1, 31, 88
9, 21390, Note_off_c, 1, 31, 0
9, 21408, Note_on_c, 1, 33, 91
9, 21488, Note_off_c, 1, 33, 0
9, 21502, Note_on_c, 1, 34, 91
9, 21583, Note_off_c, 1, 34, 0
9, 21598, Note_on_c, 1, 33, 91
9, 21678, Note_off_c, 1, 33, 0
9, 21696, Note_on_c, 1, 31, 90
9, 21773, Note_off_c, 1, 31, 0
9, 21792, Note_on_c, 1, 28, 88
9, 21871, Note_off_c, 1, 28, 0
9, 21886, Note_on_c, 1, 31, 96
9, 21965, Note_off_c, 1, 31, 0
9, 21981, Note_on_c, 1, 35, 90
9, 22061, Note_off_c, 1, 35, 0
9, 22079, Note_on_c, 1, 38, 88
9, 22160, Note_off_c, 1, 38, 0
9, 22174, Note_on_c, 1, 40, 90
9, 22255, Note_off_c, 1, 40, 0
9, 22269, Note_on_c, 1, 41, 88
9, 22350, Note_off_c, 1, 41, 0
9, 22367, Note_on_c, 1, 40, 88
9, 22448, Note_off_c, 1, 40, 0
9, 22463, Note_on_c, 1, 38, 92
9, 22543, Note_off_c, 1, 38, 0
9, 22558, Note_on_c, 1, 35, 89
9, 22638, Note_off_c, 1, 35, 0
9, 22654, Note_on_c, 1, 24, 99
9, 22733, Note_off_c, 1, 24, 0
9, 22751, Note_on_c, 1, 28, 91
9, 22832, Note_off_c, 1, 28, 0
9, 22846, Note_on_c, 1, 31, 92
9, 22927, Note_off_c, 1, 31, 0
9, 22941, Note_on_c, 1, 33, 90
9, 23021, Note_off_c, 1, 33, 0
9, 23040, Note_on_c, 1, 34, 90
9, 23120, Note_off_c, 1, 34, 0
9, 23135, Note_on_c, 1, 33, 93
9, 23215, Note_off_c, 1, 33, 0
9, 23229, Note_on_c, 1, 31, 91
9, 23310, Note_off_c, 1, 31, 0
9, 23326, Note_on_c, 1, 28, 90
9, 23405, Note_off_c, 1, 28, 0
9, 23421, Note_on_c, 1, 31, 98
9, 23503, Note_off_c, 1, 31, 0
9, 23517, Note_on_c, 1, 35, 89
9, 23598, Note_off_c, 1, 35, 0
9, 23616, Note_on_c, 1, 38, 91
9, 23693, Note_off_c, 1, 38, 0
9, 23711, Note_on_c, 1, 40, 90
9, 23792, Note_off_c, 1, 40, 0
9, 23806, Note_on_c, 1, 41, 90
9, 23886, Note_off_c, 1, 41, 0
9, 23901, Note_on_c, 1, 40, 88
9, 23981, Note_off_c, 1, 40, 0
9, 23999, Note_on_c, 1, 38, 89
9, 24078, Note_off_c, 1, 38, 0
9, 24094, Note_on_c, 1, 35, 91
9, 24173, Note_off_c, 1, 35, 0
9, 24189, Note_on_c, 1, 26, 98
9, 24270, Note_off_c, 1, 26, 0
9, 24288, Note_on_c, 1, 30, 91
9, 24365, Note_off_c, 1, 30, 0
9, 24383, Note_on_c, 1, 33, 91
9, 24463, Note_off_c, 1, 33, 0
9, 24477, Note_on_c, 1, 30, 88
9, 24558, Note_off_c, 1, 30, 0
9, 24577, Note_on_c, 1, 24, 100
9, 24653, Note_off_c, 1, 24, 0
9, 24671, Note_on_c, 1, 28, 88
9, 24750, Note_off_c, 1, 28, 0
9, 24766, Note_on_c, 1, 31, 93
9, 24846, Note_off_c, 1, 31, 0
9, 24861, Note_on_c, 1, 28, 89
9, 24942, Note_off_c, 1, 28, 0
9, 24959, Note_on_c, 1, 31, 88
9, 25135, Note_off_c, 1, 31, 0
9, 25342, Note_on_c, 1, 31, 88
9, 25424, Note_off_c, 1, 31, 0
9, 25437, Note_on_c, 1, 31, 88
9, 25518, Note_off_c, 1, 31, 0
9, 25534, Note_on_c, 1, 31, 89
9, 25613, Note_off_c, 1, 31, 0
9, 25726, Note_on_c, 1, 31, 98
9, 25807, Note_off_c, 1, 31, 0
9, 25821, Note_on_c, 1, 35, 91
9, 25902, Note_off_c, 1, 35, 0
9, 25920, Note_on_c, 1, 38, 88
9, 26000, Note_off_c, 1, 38, 0
9, 26015, Note_on_c, 1, 40, 90
9, 26095, Note_off_c, 1, 40, 0
9, 26109, Note_on_c, 1, 41, 89
9, 26190, Note_off_c, 1, 41, 0
9, 26206, Note_on_c, 1, 40, 88
9, 26285, Note_off_c, 1, 40, 0
9, 26301, Note_on_c, 1, 38, 89
9, 26383, Note_off_c, 1, 38, 0
9, 26397, Note_on_c, 1, 35, 92
9, 26478, Note_off_c, 1, 35, 0
9, 26496, Note_on_c, 1, 31, 100
9, 26573, Note_off_c, 1, 31, 0
9, 26591, Note_on_c, 1, 35, 92
9, 26672, Note_off_c, 1, 35, 0
9, 26686, Note_on_c, 1, 38, 91
9, 26767, Note_off_c, 1, 38, 0
9, 26781, Note_on_c, 1, 40, 91
9, 26861, Note_off_c, 1, 40, 0
9, 26879, Note_on_c, 1, 41, 91
9, 26958, Note_off_c, 1, 41, 0
9, 26974, Note_on_c, 1, 40, 89
9, 27053, Note_off_c, 1, 40, 0
9, 27069, Note_on_c, 1, 38, 89
9, 27150, Note_off_c, 1, 38, 0
9, 27168, Note_on_c, 1, 35, 89
9, 27245, Note_off_c, 1, 35, 0
9, 27263, Note_on_c, 1, 24, 101
9, 27343, Note_off_c, 1, 24, 0
9, 27358, Note_on_c, 1, 28, 88
9, 27438, Note_off_c, 1, 28, 0
9, 27457, Note_on_c, 1, 31, 89
9, 27533, Note_off_c, 1, 31, 0
9, 27552, Note_on_c, 1, 33, 92
9, 27631, Note_off_c, 1, 33, 0
9, 27647, Note_on_c, 1, 34, 88
9, 27725, Note_off_c, 1, 34, 0
9, 27741, Note_on_c, 1, 33, 90
9, 27821, Note_off_c, 1, 33, 0
9, 27839, Note_on_c, 1, 31, 91
9, 27920, Note_off_c, 1, 31, 0
9, 27934, Note_on_c, 1, 28, 90
9, 28015, Note_off_c, 1, 28, 0
9, 28029, Note_on_c, 1, 31, 90
9, 28110, Note_off_c, 1, 31, 0
9, 28129, Note_on_c, 1, 31, 89
9, 28205, Note_off_c, 1, 31, 0
9, 28223, Note_on_c, 1, 24, 92
9, 28304, Note_off_c, 1, 24, 0
9, 28319, Note_on_c, 1, 24, 90
9, 28398, Note_off_c, 1, 24, 0
9, 28413, Note_on_c, 1, 31, 89
9, 28493, Note_off_c, 1, 31, 0
9, 28511, Note_on_c, 1, 30, 91
9, 28592, Note_off_c, 1, 30, 0
9, 28606, Note_on_c, 1, 28, 90
9, 28687, Note_off_c, 1, 28, 0
9, 28705, Note_on_c, 1, 26, 88
9, 28782, Note_off_c, 1, 26, 0
9, 28801, Note_on_c, 1, 31, 96
9, 28881, Note_off_c, 1, 31, 0
9, 29182, Note_on_c, 1, 31, 97
9, 29264, Note_off_c, 1, 31, 0
9, 29566, Note_on_c, 1, 24, 100
9, 29647, Note_off_c, 1, 24, 0
9, 29949, Note_on_c, 1, 24, 99
9, 30030, Note_off_c, 1, 24, 0
9, 30339, Note_on_c, 1, 24, 96
9, 30413, Note_off_c, 1, 24, 0
9, 30431, Note_on_c, 1, 28, 89
9, 30511, Note_off_c, 1, 28, 0
9, 30526, Note_on_c, 1, 31, 88
9, 30606, Note_off_c, 1, 31, 0
9, 30621, Note_on_c, 1, 33, 88
9, 30702, Note_off_c, 1, 33, 0
9, 30720, Note_on_c, 1, 34, 91
9, 30800, Note_off_c, 1, 34, 0
9, 30814, Note_on_c, 1, 33, 90
9, 30895, Note_off_c, 1, 33, 0
9, 30909, Note_on_c, 1, 31, 89
9, 30990, Note_off_c, 1, 31, 0
9, 31010, Note_on_c, 1, 28, 92
9, 31085, Note_off_c, 1, 28, 0
9, 31103, Note_on_c, 1, 31, 96
9, 31183, Note_off_c, 1, 31, 0
9, 31198, Note_on_c, 1, 35, 89
9, 31278, Note_off_c, 1, 35, 0
9, 31293, Note_on_c, 1, 38, 89
9, 31373, Note_off_c, 1, 38, 0
9, 31389, Note_on_c, 1, 40, 88
9, 31472, Note_off_c, 1, 40, 0
9, 31486, Note_on_c, 1, 41, 92
9, 31567, Note_off_c, 1, 41, 0
9, 31581, Note_on_c, 1, 40, 88
9, 31662, Note_off_c, 1, 40, 0
9, 31679, Note_on_c, 1, 38, 91
9, 31760, Note_off_c, 1, 38, 0
9, 31774, Note_on_c, 1, 35, 92
9, 31855, Note_off_c, 1, 35, 0
9, 31870, Note_on_c, 1, 24, 96
9, 31950, Note_off_c, 1, 24, 0
9, 31965, Note_on_c, 1, 28, 89
9, 32045, Note_off_c, 1, 28, 0
9, 32062, Note_on_c, 1, 31, 88
9, 32144, Note_off_c, 1, 31, 0
9, 32158, Note_on_c, 1, 33, 91
9, 32238, Note_off_c, 1, 33, 0
9, 32257, Note_on_c, 1, 34, 90
9, 32333, Note_off_c, 1, 34, 0
9, 32351, Note_on_c, 1, 33, 90
9, 32432, Note_off_c, 1, 33, 0
9, 32446, Note_on_c, 1, 31, 88
9, 32527, Note_off_c, 1, 31, 0
9, 32541, Note_on_c, 1, 28, 91
9, 32622, Note_off_c, 1, 28, 0
9, 32639, Note_on_c, 1, 31, 100
9, 32718, Note_off_c, 1, 31, 0
9, 32734, Note_on_c, 1, 35, 88
9, 32813, Note_off_c, 1, 35, 0
9, 32829, Note_on_c, 1, 38, 88
9, 32910, Note_off_c, 1, 38, 0
9, 32928, Note_on_c, 1, 40, 92
9, 33005, Note_off_c, 1, 40, 0
9, 33023, Note_on_c, 1, 41, 88
9, 33103, Note_off_c, 1, 41, 0
9, 33118, Note_on_c, 1, 40, 91
9, 33198, Note_off_c, 1, 40, 0
9, 33217, Note_on_c, 1, 38, 92
9, 33293, Note_off_c, 1, 38, 0
9, 33311, Note_on_c, 1, 35, 91
9, 33391, Note_off_c, 1, 35, 0
9, 33407, Note_on_c, 1, 26, 97
9, 33486, Note_off_c, 1, 26, 0
9, 33501, Note_on_c, 1, 30, 90
9, 33582, Note_off_c, 1, 30, 0
9, 33600, Note_on_c, 1, 33, 88
9, 33680, Note_off_c, 1, 33, 0
9, 33694, Note_on_c, 1, 30, 89
9, 33775, Note_off_c, 1, 30, 0
9, 33789, Note_on_c, 1, 24, 100
9, 33870, Note_off_c, 1, 24, 0
9, 33888, Note_on_c, 1, 28, 88
9, 33965, Note_off_c, 1, 28, 0
9, 33983, Note_on_c, 1, 31, 88
9, 34063, Note_off_c, 1, 31, 0
9, 34078, Note_on_c, 1, 28, 92
9, 34158, Note_off_c, 1, 28, 0
9, 34173, Note_on_c, 1, 31, 92
9, 34352, Note_off_c, 1, 31, 0
9, 34560, Note_on_c, 1, 31, 88
9, 34641, Note_off_c, 1, 31, 0
9, 34654, Note_on_c, 1, 31, 91
9, 34737, Note_off_c, 1, 31, 0
9, 34749, Note_on_c, 1, 31, 91
9, 34830, Note_off_c, 1, 31, 0
9, 34941, Note_on_c, 1, 31, 96
9, 35023, Note_off_c, 1, 31, 0
9, 35038, Note_on_c, 1, 35, 92
9, 35119, Note_off_c, 1, 35, 0
9, 35137, Note_on_c, 1, 38, 90
9, 35213, Note_off_c, 1, 38, 0
9, 35232, Note_on_c, 1, 40, 92
9, 35313, Note_off_c, 1, 40, 0
9, 35327, Note_on_c, 1, 41, 90
9, 35407, Note_off_c, 1, 41, 0
9, 35421, Note_on_c, 1, 40, 92
9, 35502, Note_off_c, 1, 40, 0
9, 35519, Note_on_c, 1, 38, 92
9, 35597, Note_off_c, 1, 38, 0
9, 35615, Note_on_c, 1, 35, 91
9, 35693, Note_off_c, 1, 35, 0
9, 35709, Note_on_c, 1, 31, 99
9, 35790, Note_off_c, 1, 31, 0
9, 35808, Note_on_c, 1, 35, 90
9, 35885, Note_off_c, 1, 35, 0
9, 35904, Note_on_c, 1, 38, 90
9, 35984, Note_off_c, 1, 38, 0
9, 35998, Note_on_c, 1, 40, 90
9, 36078, Note_off_c, 1, 40, 0
9, 36093, Note_on_c, 1, 41, 92
9, 36173, Note_off_c, 1, 41, 0
9, 36192, Note_on_c, 1, 40, 89
9, 36271, Note_off_c, 1, 40, 0
9, 36286, Note_on_c, 1, 38, 89
9, 36366, Note_off_c, 1, 38, 0
9, 36381, Note_on_c, 1, 35, 89
9, 36462, Note_off_c, 1, 35, 0
9, 36480, Note_on_c, 1, 24, 98
9, 36557, Note_off_c, 1, 24, 0
9, 36575, Note_on_c, 1, 28, 92
9, 36655, Note_off_c, 1, 28, 0
9, 36669, Note_on_c, 1, 31, 89
9, 36750, Note_off_c, 1, 31, 0
9, 36769, Note_on_c, 1, 33, 91
9, 36845, Note_off_c, 1, 33, 0
9, 36863, Note_on_c, 1, 34, 92
9, 36944, Note_off_c, 1, 34, 0
9, 36958, Note_on_c, 1, 33, 90
9, 37038, Note_off_c, 1, 33, 0
9, 37053, Note_on_c, 1, 31, 90
9, 37133, Note_off_c, 1, 31, 0
9, 37149, Note_on_c, 1, 28, 89
9, 37232, Note_off_c, 1, 28, 0
9, 37245, Note_on_c, 1, 31, 89
9, 37327, Note_off_c, 1, 31, 0
9, 37341, Note_on_c, 1, 31, 91
9, 37422, Note_off_c, 1, 31, 0
9, 37440, Note_on_c, 1, 24, 89
9, 37517, Note_off_c, 1, 24, 0
9, 37534, Note_on_c, 1, 24, 91
9, 37616, Note_off_c, 1, 24, 0
9, 37630, Note_on_c, 1, 31, 88
9, 37710, Note_off_c, 1, 31, 0
9, 37727, Note_on_c, 1, 30, 92
9, 37805, Note_off_c, 1, 30, 0
9, 37822, Note_on_c, 1, 28, 90
9, 37904, Note_off_c, 1, 28, 0
9, 37918, Note_on_c, 1, 26, 88
9, 37999, Note_off_c, 1, 26, 0
9, 38017, Note_on_c, 1, 31, 99
9, 38094, Note_off_c, 1, 31, 0
9, 38400, Note_on_c, 1, 31, 99
9, 38477, Note_off_c, 1, 31, 0
9, 38783, Note_on_c, 1, 24, 98
9, 38864, Note_off_c, 1, 24, 0
9, 39166, Note_on_c, 1, 24, 99
9, 39246, Note_off_c, 1, 24, 0
9, 39549, Note_on_c, 1, 24, 97
9, 39630, Note_off_c, 1, 24, 0
9, 39648, Note_on_c, 1, 28, 89
9, 39725, Note_off_c, 1, 28, 0
9, 39743, Note_on_c, 1, 31, 88
9, 39824, Note_off_c, 1, 31, 0
9, 39838, Note_on_c, 1, 33, 91
9, 39919, Note_off_c, 1, 33, 0
9, 39933, Note_on_c, 1, 34, 90
9, 40013, Note_off_c, 1, 34, 0
9, 40029, Note_on_c, 1, 33, 90
9, 40112, Note_off_c, 1, 33, 0
9, 40126, Note_on_c, 1, 31, 90
9, 40207, Note_off_c, 1, 31, 0
9, 40221, Note_on_c, 1, 28, 90
9, 40302, Note_off_c, 1, 28, 0
9, 40319, Note_on_c, 1, 31, 97
9, 40397, Note_off_c, 1, 31, 0
9, 40415, Note_on_c, 1, 35, 90
9, 40495, Note_off_c, 1, 35, 0
9, 40510, Note_on_c, 1, 38, 91
9, 40591, Note_off_c, 1, 38, 0
9, 40607, Note_on_c, 1, 40, 92
9, 40685, Note_off_c, 1, 40, 0
9, 40703, Note_on_c, 1, 41, 89
9, 40784, Note_off_c, 1, 41, 0
9, 40798, Note_on_c, 1, 40, 88
9, 40879, Note_off_c, 1, 40, 0
9, 40897, Note_on_c, 1, 38, 88
9, 40974, Note_off_c, 1, 38, 0
9, 40992, Note_on_c, 1, 35, 90
9, 41072, Note_off_c, 1, 35, 0
9, 41086, Note_on_c, 1, 24, 100
9, 41167, Note_off_c, 1, 24, 0
9, 41182, Note_on_c, 1, 28, 41
9, 41262, Note_off_c, 1, 28, 0
9, 41280, Note_on_c, 1, 31, 89
9, 41357, Note_off_c, 1, 31, 0
9, 41375, Note_on_c, 1, 33, 88
9, 41453, Note_off_c, 1, 33, 0
9, 41469, Note_on_c, 1, 34, 88
9, 41550, Note_off_c, 1, 34, 0
9, 41568, Note_on_c, 1, 33, 88
9, 41645, Note_off_c, 1, 33, 0
9, 41663, Note_on_c, 1, 31, 93
9, 41744, Note_off_c, 1, 31, 0
9, 41759, Note_on_c, 1, 28, 90
9, 41839, Note_off_c, 1, 28, 0
9, 41853, Note_on_c, 1, 31, 99
9, 41934, Note_off_c, 1, 31, 0
9, 41951, Note_on_c, 1, 35, 90
9, 42031, Note_off_c, 1, 35, 0
9, 42046, Note_on_c, 1, 38, 91
9, 42126, Note_off_c, 1, 38, 0
9, 42141, Note_on_c, 1, 40, 90
9, 42221, Note_off_c, 1, 40, 0
9, 42240, Note_on_c, 1, 41, 91
9, 42317, Note_off_c, 1, 41, 0
9, 42335, Note_on_c, 1, 40, 88
9, 42415, Note_off_c, 1, 40, 0
9, 42430, Note_on_c, 1, 38, 92
9, 42510, Note_off_c, 1, 38, 0
9, 42525, Note_on_c, 1, 35, 90
9, 42605, Note_off_c, 1, 35, 0
9, 42624, Note_on_c, 1, 26, 98
9, 42704, Note_off_c, 1, 26, 0
9, 42718, Note_on_c, 1, 30, 90
9, 42799, Note_off_c, 1, 30, 0
9, 42814, Note_on_c, 1, 33, 90
9, 42894, Note_off_c, 1, 33, 0
9, 42909, Note_on_c, 1, 30, 90
9, 42992, Note_off_c, 1, 30, 0
9, 43006, Note_on_c, 1, 24, 98
9, 43087, Note_off_c, 1, 24, 0
9, 43101, Note_on_c, 1, 28, 89
9, 43182, Note_off_c, 1, 28, 0
9, 43200, Note_on_c, 1, 31, 92
9, 43277, Note_off_c, 1, 31, 0
9, 43294, Note_on_c, 1, 28, 88
9, 43376, Note_off_c, 1, 28, 0
9, 43390, Note_on_c, 1, 31, 88
9, 43566, Note_off_c, 1, 31, 0
9, 43773, Note_on_c, 1, 31, 90
9, 43854, Note_off_c, 1, 31, 0
9, 43872, Note_on_c, 1, 31, 90
9, 43954, Note_off_c, 1, 31, 0
9, 43966, Note_on_c, 1, 31, 88
9, 44048, Note_off_c, 1, 31, 0
9, 44160, Note_on_c, 1, 31, 98
9, 44237, Note_off_c, 1, 31, 0
9, 44255, Note_on_c, 1, 35, 88
9, 44333, Note_off_c, 1, 35, 0
9, 44350, Note_on_c, 1, 38, 89
9, 44430, Note_off_c, 1, 38, 0
9, 44449, Note_on_c, 1, 40, 88
9, 44525, Note_off_c, 1, 40, 0
9, 44544, Note_on_c, 1, 41, 88
9, 44624, Note_off_c, 1, 41, 0
9, 44638, Note_on_c, 1, 40, 88
9, 44719, Note_off_c, 1, 40, 0
9, 44733, Note_on_c, 1, 38, 90
9, 44814, Note_off_c, 1, 38, 0
9, 44832, Note_on_c, 1, 35, 92
9, 44911, Note_off_c, 1, 35, 0
9, 44927, Note_on_c, 1, 31, 98
9, 45006, Note_off_c, 1, 31, 0
9, 45022, Note_on_c, 1, 35, 89
9, 45101, Note_off_c, 1, 35, 0
9, 45120, Note_on_c, 1, 38, 93
9, 45197, Note_off_c, 1, 38, 0
9, 45215, Note_on_c, 1, 40, 88
9, 45295, Note_off_c, 1, 40, 0
9, 45310, Note_on_c, 1, 41, 90
9, 45390, Note_off_c, 1, 41, 0
9, 45405, Note_on_c, 1, 40, 92
9, 45485, Note_off_c, 1, 40, 0
9, 45503, Note_on_c, 1, 38, 89
9, 45584, Note_off_c, 1, 38, 0
9, 45600, Note_on_c, 1, 35, 91
9, 45679, Note_off_c, 1, 35, 0
9, 45694, Note_on_c, 1, 24, 96
9, 45774, Note_off_c, 1, 24, 0
9, 45789, Note_on_c, 1, 28, 91
9, 45872, Note_off_c, 1, 28, 0
9, 45886, Note_on_c, 1, 31, 92
9, 45967, Note_off_c, 1, 31, 0
9, 45981, Note_on_c, 1, 33, 88
9, 46062, Note_off_c, 1, 33, 0
9, 46080, Note_on_c, 1, 34, 92
9, 46157, Note_off_c, 1, 34, 0
9, 46175, Note_on_c, 1, 33, 91
9, 46256, Note_off_c, 1, 33, 0
9, 46270, Note_on_c, 1, 31, 90
9, 46351, Note_off_c, 1, 31, 0
9, 46365, Note_on_c, 1, 28, 89
9, 46446, Note_off_c, 1, 28, 0
9, 46462, Note_on_c, 1, 31, 92
9, 46541, Note_off_c, 1, 31, 0
9, 46558, Note_on_c, 1, 31, 92
9, 46639, Note_off_c, 1, 31, 0
9, 46653, Note_on_c, 1, 24, 90
9, 46734, Note_off_c, 1, 24, 0
9, 46752, Note_on_c, 1, 24, 91
9, 46829, Note_off_c, 1, 24, 0
9, 46846, Note_on_c, 1, 31, 88
9, 46927, Note_off_c, 1, 31, 0
9, 46942, Note_on_c, 1, 30, 90
9, 47022, Note_off_c, 1, 30, 0
9, 47040, Note_on_c, 1, 28, 92
9, 47117, Note_off_c, 1, 28, 0
9, 47135, Note_on_c, 1, 26, 89
9, 47213, Note_off_c, 1, 26, 0
9, 47230, Note_on_c, 1, 31, 96
9, 47311, Note_off_c, 1, 31, 0
9, 47613, Note_on_c, 1, 31, 100
9, 47694, Note_off_c, 1, 31, 0
9, 47997, Note_on_c, 1, 24, 99
9, 48077, Note_off_c, 1, 24, 0
9, 48384, Note_on_c, 1, 24, 99
9, 48465, Note_off_c, 1, 24, 0
9, 48767, Note_on_c, 1, 24, 100
9, 48847, Note_off_c, 1, 24, 0
9, 48861, Note_on_c, 1, 28, 91
9, 48942, Note_off_c, 1, 28, 0
9, 48960, Note_on_c, 1, 31, 88
9, 49037, Note_off_c, 1, 31, 0
9, 49055, Note_on_c, 1, 33, 90
9, 49136, Note_off_c, 1, 33, 0
9, 49150, Note_on_c, 1, 34, 88
9, 49231, Note_off_c, 1, 34, 0
9, 49245, Note_on_c, 1, 33, 89
9, 49326, Note_off_c, 1, 33, 0
9, 49342, Note_on_c, 1, 31, 89
9, 49421, Note_off_c, 1, 31, 0
9, 49437, Note_on_c, 1, 28, 91
9, 49519, Note_off_c, 1, 28, 0
9, 49533, Note_on_c, 1, 31, 100
9, 49614, Note_off_c, 1, 31, 0
9, 49631, Note_on_c, 1, 35, 89
9, 49709, Note_off_c, 1, 35, 0
9, 49727, Note_on_c, 1, 38, 89
9, 49807, Note_off_c, 1, 38, 0
9, 49822, Note_on_c, 1, 40, 92
9, 49902, Note_off_c, 1, 40, 0
9, 49921, Note_on_c, 1, 41, 91
9, 49997, Note_off_c, 1, 41, 0
9, 50015, Note_on_c, 1, 40, 92
9, 50094, Note_off_c, 1, 40, 0
9, 50110, Note_on_c, 1, 38, 88
9, 50191, Note_off_c, 1, 38, 0
9, 50205, Note_on_c, 1, 35, 90
9, 50286, Note_off_c, 1, 35, 0
9, 50304, Note_on_c, 1, 24, 100
9, 50384, Note_off_c, 1, 24, 0
9, 50399, Note_on_c, 1, 28, 92
9, 50479, Note_off_c, 1, 28, 0
9, 50493, Note_on_c, 1, 31, 91
9, 50574, Note_off_c, 1, 31, 0
9, 50592, Note_on_c, 1, 33, 92
9, 50669, Note_off_c, 1, 33, 0
9, 50688, Note_on_c, 1, 34, 92
9, 50766, Note_off_c, 1, 34, 0
9, 50782, Note_on_c, 1, 33, 90
9, 50861, Note_off_c, 1, 33, 0
9, 50877, Note_on_c, 1, 31, 90
9, 50957, Note_off_c, 1, 31, 0
9, 50976, Note_on_c, 1, 28, 88
9, 51056, Note_off_c, 1, 28, 0
9, 51070, Note_on_c, 1, 31, 99
9, 51151, Note_off_c, 1, 31, 0
9, 51165, Note_on_c, 1, 35, 89
9, 51246, Note_off_c, 1, 35, 0
9, 51264, Note_on_c, 1, 38, 90
9, 51344, Note_off_c, 1, 38, 0
9, 51358, Note_on_c, 1, 40, 89
9, 51439, Note_off_c, 1, 40, 0
9, 51453, Note_on_c, 1, 41, 88
9, 51534, Note_off_c, 1, 41, 0
9, 51549, Note_on_c, 1, 40, 91
9, 51629, Note_off_c, 1, 40, 0
9, 51647, Note_on_c, 1, 38, 91
9, 51727, Note_off_c, 1, 38, 0
9, 51742, Note_on_c, 1, 35, 88
9, 51822, Note_off_c, 1, 35, 0
9, 51844, Note_on_c, 1, 26, 100
9, 51917, Note_off_c, 1, 26, 0
9, 51935, Note_on_c, 1, 30, 88
9, 52016, Note_off_c, 1, 30, 0
9, 52030, Note_on_c, 1, 33, 88
9, 52111, Note_off_c, 1, 33, 0
9, 52125, Note_on_c, 1, 30, 88
9, 52206, Note_off_c, 1, 30, 0
9, 52222, Note_on_c, 1, 24, 96
9, 52301, Note_off_c, 1, 24, 0
9, 52317, Note_on_c, 1, 28, 89
9, 52399, Note_off_c, 1, 28, 0
9, 52413, Note_on_c, 1, 31, 88
9, 52494, Note_off_c, 1, 31, 0
9, 52512, Note_on_c, 1, 28, 88
9, 52589, Note_off_c, 1, 28, 0
9, 52607, Note_on_c, 1, 31, 90
9, 52782, Note_off_c, 1, 31, 0
9, 52990, Note_on_c, 1, 35, 98
9, 53071, Note_off_c, 1, 35, 0
9, 53085, Note_on_c, 1, 33, 98
9, 53166, Note_off_c, 1, 33, 0
9, 53184, Note_on_c, 1, 31, 100
9, 53359, Note_off_c, 1, 31, 0
9, 53359, End_track
10, 0, Start_track
10, 0, Text_t, "vocal   "
10, 0, Channel_prefix, 2
10, 1876, Note_on_c, 2, 74, 97
10, 1911, Note_off_c, 2, 74, 0
10, 1918, Note_on_c, 2, 79, 97
10, 1999, Note_off_c, 2, 79, 0
10, 2013, Note_on_c, 2, 79, 97
10, 2079, Note_off_c, 2, 79, 0
10, 2086, Note_on_c, 2, 76, 96
10, 2111, Note_off_c, 2, 76, 0
10, 2112, Note_on_c, 2, 79, 100
10, 2150, Note_off_c, 2, 79, 0
10, 2157, Note_on_c, 2, 79, 100
10, 2238, Note_off_c, 2, 79, 0
10, 2255, Note_on_c, 2, 76, 97
10, 2294, Note_off_c, 2, 76, 0
10, 2301, Note_on_c, 2, 79, 97
10, 2382, Note_off_c, 2, 79, 0
10, 2400, Note_on_c, 2, 79, 96
10, 2477, Note_off_c, 2, 79, 0
10, 2494, Note_on_c, 2, 79, 100
10, 2575, Note_off_c, 2, 79, 0
10, 2590, Note_on_c, 2, 82, 99
10, 2653, Note_off_c, 2, 82, 0
10, 2662, Note_on_c, 2, 79, 96
10, 2688, Note_off_c, 2, 79, 0
10, 2689, Note_on_c, 2, 78, 97
10, 2691, Note_on_c, 2, 82, 96
10, 2726, Note_off_c, 2, 78, 0
10, 2727, Note_off_c, 2, 82, 0
10, 2733, Note_on_c, 2, 79, 98
10, 2735, Note_on_c, 2, 83, 100
10, 2773, Note_off_c, 2, 79, 0
10, 2774, Note_off_c, 2, 83, 0
10, 2925, Note_on_c, 2, 79, 97
10, 3047, Note_off_c, 2, 79, 0
10, 3071, Note_on_c, 2, 76, 100
10, 3074, Note_on_c, 2, 79, 97
10, 3110, Note_off_c, 2, 76, 0
10, 3111, Note_off_c, 2, 79, 0
10, 3117, Note_on_c, 2, 76, 96
10, 3120, Note_on_c, 2, 79, 96
10, 3157, Note_off_c, 2, 76, 0
10, 3158, Note_off_c, 2, 79, 0
10, 3360, Note_on_c, 2, 82, 100
10, 3398, Note_off_c, 2, 82, 0
10, 3405, Note_on_c, 2, 79, 100
10, 3447, Note_off_c, 2, 79, 0
10, 3455, Note_on_c, 2, 78, 96
10, 3456, Note_on_c, 2, 82, 98
10, 3493, Note_off_c, 2, 78, 0
10, 3494, Note_off_c, 2, 82, 0
10, 3501, Note_on_c, 2, 79, 100
10, 3503, Note_on_c, 2, 83, 99
10, 3542, Note_off_c, 2, 79, 0
10, 3543, Note_off_c, 2, 83, 0
10, 3694, Note_on_c, 2, 79, 96
10, 3813, Note_off_c, 2, 79, 0
10, 3838, Note_on_c, 2, 76, 100
10, 3840, Note_on_c, 2, 79, 97
10, 3880, Note_off_c, 2, 76, 0
10, 3881, Note_off_c, 2, 79, 0
10, 3886, Note_on_c, 2, 76, 100
10, 3888, Note_on_c, 2, 79, 100
10, 3926, Note_off_c, 2, 76, 0
10, 3926, Note_off_c, 2, 79, 0
10, 4126, Note_on_c, 2, 82, 99
10, 4165, Note_off_c, 2, 82, 0
10, 4175, Note_on_c, 2, 79, 99
10, 4214, Note_off_c, 2, 79, 0
10, 4221, Note_on_c, 2, 78, 99
10, 4223, Note_on_c, 2, 81, 96
10, 4263, Note_off_c, 2, 78, 0
10, 4264, Note_off_c, 2, 81, 0
10, 4270, Note_on_c, 2, 79, 98
10, 4272, Note_on_c, 2, 82, 100
10, 4309, Note_off_c, 2, 79, 0
10, 4310, Note_off_c, 2, 82, 0
10, 4462, Note_on_c, 2, 79, 97
10, 4583, Note_off_c, 2, 79, 0
10, 4608, Note_on_c, 2, 76, 98
10, 4611, Note_on_c, 2, 79, 99
10, 4647, Note_off_c, 2, 76, 0
10, 4647, Note_off_c, 2, 79, 0
10, 4654, Note_on_c, 2, 76, 96
10, 4656, Note_on_c, 2, 79, 96
10, 4694, Note_off_c, 2, 76, 0
10, 4695, Note_off_c, 2, 79, 0
10, 4893, Note_on_c, 2, 82, 98
10, 4957, Note_off_c, 2, 82, 0
10, 4967, Note_on_c, 2, 79, 99
10, 4991, Note_off_c, 2, 79, 0
10, 4992, Note_on_c, 2, 78, 97
10, 4995, Note_on_c, 2, 82, 100
10, 5030, Note_off_c, 2, 78, 0
10, 5031, Note_off_c, 2, 82, 0
10, 5037, Note_on_c, 2, 79, 97
10, 5040, Note_on_c, 2, 83, 96
10, 5079, Note_off_c, 2, 79, 0
10, 5079, Note_off_c, 2, 83, 0
10, 5230, Note_on_c, 2, 79, 100
10, 5350, Note_off_c, 2, 79, 0
10, 5375, Note_on_c, 2, 76, 98
10, 5376, Note_on_c, 2, 79, 96
10, 5413, Note_off_c, 2, 76, 0
10, 5414, Note_off_c, 2, 79, 0
10, 5422, Note_on_c, 2, 76, 96
10, 5424, Note_on_c, 2, 79, 99
10, 5463, Note_off_c, 2, 76, 0
10, 5463, Note_off_c, 2, 79, 0
10, 5663, Note_on_c, 2, 79, 99
10, 5726, Note_off_c, 2, 79, 0
10, 5733, Note_on_c, 2, 79, 99
10, 5758, Note_off_c, 2, 79, 0
10, 5759, Note_on_c, 2, 83, 99
10, 5800, Note_off_c, 2, 83, 0
10, 5807, Note_on_c, 2, 81, 100
10, 5846, Note_off_c, 2, 81, 0
10, 5997, Note_on_c, 2, 81, 100
10, 6120, Note_off_c, 2, 81, 0
10, 6141, Note_on_c, 2, 79, 100
10, 6183, Note_off_c, 2, 79, 0
10, 6191, Note_on_c, 2, 79, 99
10, 6229, Note_off_c, 2, 79, 0
10, 6504, Note_on_c, 2, 74, 97
10, 6528, Note_off_c, 2, 74, 0
10, 6529, Note_on_c, 2, 79, 96
10, 6605, Note_off_c, 2, 79, 0
10, 6623, Note_on_c, 2, 79, 97
10, 6686, Note_off_c, 2, 79, 0
10, 6693, Note_on_c, 2, 76, 96
10, 6718, Note_off_c, 2, 76, 0
10, 6719, Note_on_c, 2, 79, 98
10, 6757, Note_off_c, 2, 79, 0
10, 6767, Note_on_c, 2, 79, 100
10, 6848, Note_off_c, 2, 79, 0
10, 6862, Note_on_c, 2, 76, 97
10, 6901, Note_off_c, 2, 76, 0
10, 6911, Note_on_c, 2, 79, 96
10, 6989, Note_off_c, 2, 79, 0
10, 7006, Note_on_c, 2, 79, 97
10, 7087, Note_off_c, 2, 79, 0
10, 7101, Note_on_c, 2, 79, 96
10, 7141, Note_off_c, 2, 79, 0
10, 7151, Note_on_c, 2, 79, 97
10, 7189, Note_off_c, 2, 79, 0
10, 7197, Note_on_c, 2, 79, 97
10, 7238, Note_off_c, 2, 79, 0
10, 7245, Note_on_c, 2, 79, 100
10, 7288, Note_off_c, 2, 79, 0
10, 7295, Note_on_c, 2, 79, 97
10, 7297, Note_on_c, 2, 83, 97
10, 7446, Note_off_c, 2, 79, 0
10, 7446, Note_off_c, 2, 83, 0
10, 7534, Note_on_c, 2, 79, 100
10, 7576, Note_off_c, 2, 79, 0
10, 7583, Note_on_c, 2, 79, 96
10, 7664, Note_off_c, 2, 79, 0
10, 7677, Note_on_c, 2, 74, 97
10, 7679, Note_on_c, 2, 79, 96
10, 7757, Note_off_c, 2, 74, 0
10, 7758, Note_off_c, 2, 79, 0
10, 8015, Note_on_c, 2, 79, 100
10, 8054, Note_off_c, 2, 79, 0
10, 8061, Note_on_c, 2, 83, 98
10, 8142, Note_off_c, 2, 83, 0
10, 8160, Note_on_c, 2, 83, 99
10, 8237, Note_off_c, 2, 83, 0
10, 8253, Note_on_c, 2, 79, 98
10, 8334, Note_off_c, 2, 79, 0
10, 8350, Note_on_c, 2, 76, 96
10, 8392, Note_off_c, 2, 76, 0
10, 8399, Note_on_c, 2, 79, 99
10, 8597, Note_off_c, 2, 79, 0
10, 8687, Note_on_c, 2, 83, 98
10, 8726, Note_off_c, 2, 83, 0
10, 8733, Note_on_c, 2, 83, 98
10, 8775, Note_off_c, 2, 83, 0
10, 8782, Note_on_c, 2, 83, 98
10, 8821, Note_off_c, 2, 83, 0
10, 8829, Note_on_c, 2, 82, 96
10, 8831, Note_on_c, 2, 86, 101
10, 8981, Note_off_c, 2, 82, 0
10, 8982, Note_off_c, 2, 86, 0
10, 9071, Note_on_c, 2, 79, 100
10, 9109, Note_off_c, 2, 79, 0
10, 9120, Note_on_c, 2, 79, 97
10, 9197, Note_off_c, 2, 79, 0
10, 9213, Note_on_c, 2, 79, 99
10, 9365, Note_off_c, 2, 79, 0
10, 9549, Note_on_c, 2, 79, 97
10, 9591, Note_off_c, 2, 79, 0
10, 9598, Note_on_c, 2, 83, 97
10, 9679, Note_off_c, 2, 83, 0
10, 9693, Note_on_c, 2, 83, 97
10, 9774, Note_off_c, 2, 83, 0
10, 9790, Note_on_c, 2, 79, 99
10, 9869, Note_off_c, 2, 79, 0
10, 9886, Note_on_c, 2, 76, 100
10, 9925, Note_off_c, 2, 76, 0
10, 9936, Note_on_c, 2, 79, 100
10, 10133, Note_off_c, 2, 79, 0
10, 10319, Note_on_c, 2, 79, 98
10, 10357, Note_off_c, 2, 79, 0
10, 10366, Note_on_c, 2, 79, 100
10, 10445, Note_off_c, 2, 79, 0
10, 10463, Note_on_c, 2, 79, 99
10, 10526, Note_off_c, 2, 79, 0
10, 10534, Note_on_c, 2, 76, 97
10, 10558, Note_off_c, 2, 76, 0
10, 10559, Note_on_c, 2, 79, 99
10, 10639, Note_off_c, 2, 79, 0
10, 10702, Note_on_c, 2, 74, 100
10, 10741, Note_off_c, 2, 74, 0
10, 10750, Note_on_c, 2, 79, 97
10, 10829, Note_off_c, 2, 79, 0
10, 10846, Note_on_c, 2, 79, 98
10, 10910, Note_off_c, 2, 79, 0
10, 10917, Note_on_c, 2, 76, 96
10, 10941, Note_off_c, 2, 76, 0
10, 10942, Note_on_c, 2, 79, 96
10, 11022, Note_off_c, 2, 79, 0
10, 11086, Note_on_c, 2, 76, 98
10, 11128, Note_off_c, 2, 76, 0
10, 11135, Note_on_c, 2, 82, 96
10, 11216, Note_off_c, 2, 82, 0
10, 11230, Note_on_c, 2, 81, 98
10, 11310, Note_off_c, 2, 81, 0
10, 11325, Note_on_c, 2, 79, 97
10, 11405, Note_off_c, 2, 79, 0
10, 11423, Note_on_c, 2, 81, 99
10, 11504, Note_off_c, 2, 81, 0
10, 11518, Note_on_c, 2, 82, 97
10, 11599, Note_off_c, 2, 82, 0
10, 11613, Note_on_c, 2, 81, 100
10, 11655, Note_off_c, 2, 81, 0
10, 11662, Note_on_c, 2, 79, 96
10, 11782, Note_off_c, 2, 79, 0
10, 11806, Note_on_c, 2, 82, 96
10, 11870, Note_off_c, 2, 82, 0
10, 11877, Note_on_c, 2, 79, 99
10, 11901, Note_off_c, 2, 79, 0
10, 11902, Note_on_c, 2, 82, 97
10, 11943, Note_off_c, 2, 82, 0
10, 11951, Note_on_c, 2, 79, 100
10, 11989, Note_off_c, 2, 79, 0
10, 12144, Note_on_c, 2, 79, 100
10, 12264, Note_off_c, 2, 79, 0
10, 12285, Note_on_c, 2, 79, 97
10, 12327, Note_off_c, 2, 79, 0
10, 12334, Note_on_c, 2, 79, 100
10, 12373, Note_off_c, 2, 79, 0
10, 12573, Note_on_c, 2, 82, 98
10, 12640, Note_off_c, 2, 82, 0
10, 12647, Note_on_c, 2, 79, 98
10, 12671, Note_off_c, 2, 79, 0
10, 12672, Note_on_c, 2, 78, 99
10, 12675, Note_on_c, 2, 82, 97
10, 12710, Note_off_c, 2, 78, 0
10, 12711, Note_off_c, 2, 82, 0
10, 12717, Note_on_c, 2, 79, 97
10, 12719, Note_on_c, 2, 83, 100
10, 12759, Note_off_c, 2, 79, 0
10, 12760, Note_off_c, 2, 83, 0
10, 12911, Note_on_c, 2, 79, 100
10, 13030, Note_off_c, 2, 79, 0
10, 13055, Note_on_c, 2, 76, 99
10, 13057, Note_on_c, 2, 79, 96
10, 13093, Note_off_c, 2, 76, 0
10, 13094, Note_off_c, 2, 79, 0
10, 13104, Note_on_c, 2, 76, 97
10, 13106, Note_on_c, 2, 79, 99
10, 13143, Note_off_c, 2, 76, 0
10, 13143, Note_off_c, 2, 79, 0
10, 13343, Note_on_c, 2, 82, 100
10, 13406, Note_off_c, 2, 82, 0
10, 13414, Note_on_c, 2, 79, 97
10, 13438, Note_off_c, 2, 79, 0
10, 13439, Note_on_c, 2, 78, 96
10, 13442, Note_on_c, 2, 81, 96
10, 13477, Note_off_c, 2, 78, 0
10, 13478, Note_off_c, 2, 81, 0
10, 13487, Note_on_c, 2, 79, 96
10, 13490, Note_on_c, 2, 82, 99
10, 13526, Note_off_c, 2, 79, 0
10, 13527, Note_off_c, 2, 82, 0
10, 13677, Note_on_c, 2, 79, 98
10, 13797, Note_off_c, 2, 79, 0
10, 13821, Note_on_c, 2, 76, 99
10, 13823, Note_on_c, 2, 79, 100
10, 13864, Note_off_c, 2, 76, 0
10, 13864, Note_off_c, 2, 79, 0
10, 13871, Note_on_c, 2, 76, 98
10, 13872, Note_on_c, 2, 79, 98
10, 13909, Note_off_c, 2, 76, 0
10, 13910, Note_off_c, 2, 79, 0
10, 14110, Note_on_c, 2, 82, 98
10, 14173, Note_off_c, 2, 82, 0
10, 14184, Note_on_c, 2, 79, 99
10, 14205, Note_off_c, 2, 79, 0
10, 14205, Note_on_c, 2, 78, 100
10, 14208, Note_on_c, 2, 82, 98
10, 14247, Note_off_c, 2, 78, 0
10, 14248, Note_off_c, 2, 82, 0
10, 14254, Note_on_c, 2, 79, 97
10, 14256, Note_on_c, 2, 83, 96
10, 14293, Note_off_c, 2, 79, 0
10, 14293, Note_off_c, 2, 83, 0
10, 14447, Note_on_c, 2, 79, 100
10, 14567, Note_off_c, 2, 79, 0
10, 14592, Note_on_c, 2, 76, 100
10, 14595, Note_on_c, 2, 79, 96
10, 14630, Note_off_c, 2, 76, 0
10, 14631, Note_off_c, 2, 79, 0
10, 14637, Note_on_c, 2, 76, 97
10, 14639, Note_on_c, 2, 79, 99
10, 14680, Note_off_c, 2, 76, 0
10, 14680, Note_off_c, 2, 79, 0
10, 14880, Note_on_c, 2, 79, 97
10, 14943, Note_off_c, 2, 79, 0
10, 14950, Note_on_c, 2, 79, 97
10, 14975, Note_off_c, 2, 79, 0
10, 14976, Note_on_c, 2, 83, 97
10, 15013, Note_off_c, 2, 83, 0
10, 15024, Note_on_c, 2, 81, 97
10, 15063, Note_off_c, 2, 81, 0
10, 15214, Note_on_c, 2, 81, 99
10, 15333, Note_off_c, 2, 81, 0
10, 15358, Note_on_c, 2, 79, 97
10, 15397, Note_off_c, 2, 79, 0
10, 15407, Note_on_c, 2, 79, 100
10, 15446, Note_off_c, 2, 79, 0
10, 15717, Note_on_c, 2, 74, 98
10, 15741, Note_off_c, 2, 74, 0
10, 15742, Note_on_c, 2, 79, 99
10, 15822, Note_off_c, 2, 79, 0
10, 15840, Note_on_c, 2, 79, 98
10, 15903, Note_off_c, 2, 79, 0
10, 15910, Note_on_c, 2, 76, 96
10, 15935, Note_off_c, 2, 76, 0
10, 15936, Note_on_c, 2, 79, 96
10, 15974, Note_off_c, 2, 79, 0
10, 15981, Note_on_c, 2, 79, 100
10, 16061, Note_off_c, 2, 79, 0
10, 16079, Note_on_c, 2, 76, 96
10, 16118, Note_off_c, 2, 76, 0
10, 16125, Note_on_c, 2, 79, 100
10, 16206, Note_off_c, 2, 79, 0
10, 16223, Note_on_c, 2, 79, 98
10, 16301, Note_off_c, 2, 79, 0
10, 16318, Note_on_c, 2, 79, 97
10, 16357, Note_off_c, 2, 79, 0
10, 16367, Note_on_c, 2, 79, 98
10, 16406, Note_off_c, 2, 79, 0
10, 16413, Note_on_c, 2, 79, 97
10, 16455, Note_off_c, 2, 79, 0
10, 16462, Note_on_c, 2, 79, 96
10, 16501, Note_off_c, 2, 79, 0
10, 16512, Note_on_c, 2, 79, 97
10, 16515, Note_on_c, 2, 83, 96
10, 16663, Note_off_c, 2, 79, 0
10, 16663, Note_off_c, 2, 83, 0
10, 16751, Note_on_c, 2, 79, 97
10, 16789, Note_off_c, 2, 79, 0
10, 16800, Note_on_c, 2, 79, 96
10, 16877, Note_off_c, 2, 79, 0
10, 16895, Note_on_c, 2, 74, 100
10, 16897, Note_on_c, 2, 79, 97
10, 16958, Note_off_c, 2, 74, 0
10, 16959, Note_off_c, 2, 79, 0
10, 16965, Note_on_c, 2, 74, 99
10, 16968, Note_on_c, 2, 79, 98
10, 16990, Note_off_c, 2, 74, 0
10, 16990, Note_off_c, 2, 79, 0
10, 17229, Note_on_c, 2, 79, 98
10, 17271, Note_off_c, 2, 79, 0
10, 17278, Note_on_c, 2, 83, 96
10, 17359, Note_off_c, 2, 83, 0
10, 17373, Note_on_c, 2, 83, 99
10, 17454, Note_off_c, 2, 83, 0
10, 17472, Note_on_c, 2, 79, 96
10, 17549, Note_off_c, 2, 79, 0
10, 17567, Note_on_c, 2, 76, 97
10, 17645, Note_off_c, 2, 76, 0
10, 17662, Note_on_c, 2, 79, 98
10, 17725, Note_off_c, 2, 79, 0
10, 17735, Note_on_c, 2, 79, 96
10, 17757, Note_off_c, 2, 79, 0
10, 17901, Note_on_c, 2, 83, 98
10, 17943, Note_off_c, 2, 83, 0
10, 17949, Note_on_c, 2, 83, 97
10, 17989, Note_off_c, 2, 83, 0
10, 17999, Note_on_c, 2, 83, 96
10, 18038, Note_off_c, 2, 83, 0
10, 18045, Note_on_c, 2, 82, 100
10, 18047, Note_on_c, 2, 86, 98
10, 18200, Note_off_c, 2, 82, 0
10, 18200, Note_off_c, 2, 86, 0
10, 18288, Note_on_c, 2, 79, 96
10, 18326, Note_off_c, 2, 79, 0
10, 18333, Note_on_c, 2, 79, 99
10, 18414, Note_off_c, 2, 79, 0
10, 18432, Note_on_c, 2, 79, 96
10, 18495, Note_off_c, 2, 79, 0
10, 18502, Note_on_c, 2, 79, 96
10, 18525, Note_off_c, 2, 79, 0
10, 18766, Note_on_c, 2, 79, 99
10, 18808, Note_off_c, 2, 79, 0
10, 18815, Note_on_c, 2, 83, 98
10, 18896, Note_off_c, 2, 83, 0
10, 18910, Note_on_c, 2, 83, 99
10, 18990, Note_off_c, 2, 83, 0
10, 19005, Note_on_c, 2, 79, 99
10, 19086, Note_off_c, 2, 79, 0
10, 19101, Note_on_c, 2, 76, 96
10, 19181, Note_off_c, 2, 76, 0
10, 19198, Note_on_c, 2, 79, 100
10, 19261, Note_off_c, 2, 79, 0
10, 19269, Note_on_c, 2, 79, 98
10, 19293, Note_off_c, 2, 79, 0
10, 19486, Note_on_c, 2, 79, 96
10, 19550, Note_off_c, 2, 79, 0
10, 19557, Note_on_c, 2, 79, 100
10, 19582, Note_off_c, 2, 79, 0
10, 19582, Note_on_c, 2, 79, 96
10, 19662, Note_off_c, 2, 79, 0
10, 19678, Note_on_c, 2, 76, 99
10, 19758, Note_off_c, 2, 76, 0
10, 19775, Note_on_c, 2, 79, 99
10, 19838, Note_off_c, 2, 79, 0
10, 19845, Note_on_c, 2, 79, 96
10, 19870, Note_off_c, 2, 79, 0
10, 19965, Note_on_c, 2, 79, 99
10, 20046, Note_off_c, 2, 79, 0
10, 20062, Note_on_c, 2, 76, 96
10, 20141, Note_off_c, 2, 76, 0
10, 20158, Note_on_c, 2, 79, 97
10, 20239, Note_off_c, 2, 79, 0
10, 20303, Note_on_c, 2, 76, 96
10, 20341, Note_off_c, 2, 76, 0
10, 20352, Note_on_c, 2, 82, 99
10, 20415, Note_off_c, 2, 82, 0
10, 20422, Note_on_c, 2, 82, 100
10, 20446, Note_off_c, 2, 82, 0
10, 20447, Note_on_c, 2, 81, 96
10, 20510, Note_off_c, 2, 81, 0
10, 20517, Note_on_c, 2, 81, 100
10, 20542, Note_off_c, 2, 81, 0
10, 20542, Note_on_c, 2, 79, 100
10, 20605, Note_off_c, 2, 79, 0
10, 20615, Note_on_c, 2, 79, 99
10, 20637, Note_off_c, 2, 79, 0
10, 20637, Note_on_c, 2, 81, 97
10, 20718, Note_off_c, 2, 81, 0
10, 20735, Note_on_c, 2, 82, 100
10, 20816, Note_off_c, 2, 82, 0
10, 20830, Note_on_c, 2, 81, 96
10, 20869, Note_off_c, 2, 81, 0
10, 20879, Note_on_c, 2, 79, 100
10, 20999, Note_off_c, 2, 79, 0
10, 21022, Note_on_c, 2, 82, 99
10, 21087, Note_off_c, 2, 82, 0
10, 21093, Note_on_c, 2, 79, 97
10, 21118, Note_off_c, 2, 79, 0
10, 21119, Note_on_c, 2, 82, 97
10, 21157, Note_off_c, 2, 82, 0
10, 21168, Note_on_c, 2, 79, 100
10, 21206, Note_off_c, 2, 79, 0
10, 21357, Note_on_c, 2, 79, 99
10, 21477, Note_off_c, 2, 79, 0
10, 21502, Note_on_c, 2, 79, 96
10, 21544, Note_off_c, 2, 79, 0
10, 21551, Note_on_c, 2, 79, 96
10, 21589, Note_off_c, 2, 79, 0
10, 21790, Note_on_c, 2, 82, 97
10, 21853, Note_off_c, 2, 82, 0
10, 21861, Note_on_c, 2, 79, 97
10, 21885, Note_off_c, 2, 79, 0
10, 21886, Note_on_c, 2, 78, 99
10, 21888, Note_on_c, 2, 82, 98
10, 21927, Note_off_c, 2, 78, 0
10, 21928, Note_off_c, 2, 82, 0
10, 21934, Note_on_c, 2, 79, 99
10, 21936, Note_on_c, 2, 83, 98
10, 21973, Note_off_c, 2, 79, 0
10, 21974, Note_off_c, 2, 83, 0
10, 22128, Note_on_c, 2, 79, 98
10, 22246, Note_off_c, 2, 79, 0
10, 22272, Note_on_c, 2, 76, 97
10, 22274, Note_on_c, 2, 79, 96
10, 22310, Note_off_c, 2, 76, 0
10, 22311, Note_off_c, 2, 79, 0
10, 22318, Note_on_c, 2, 76, 98
10, 22319, Note_on_c, 2, 79, 97
10, 22357, Note_off_c, 2, 76, 0
10, 22357, Note_off_c, 2, 79, 0
10, 22557, Note_on_c, 2, 82, 97
10, 22623, Note_off_c, 2, 82, 0
10, 22630, Note_on_c, 2, 79, 98
10, 22655, Note_off_c, 2, 79, 0
10, 22656, Note_on_c, 2, 78, 98
10, 22658, Note_on_c, 2, 81, 99
10, 22694, Note_off_c, 2, 78, 0
10, 22695, Note_off_c, 2, 81, 0
10, 22701, Note_on_c, 2, 79, 99
10, 22703, Note_on_c, 2, 82, 100
10, 22741, Note_off_c, 2, 79, 0
10, 22742, Note_off_c, 2, 82, 0
10, 22893, Note_on_c, 2, 79, 97
10, 23014, Note_off_c, 2, 79, 0
10, 23038, Note_on_c, 2, 76, 98
10, 23041, Note_on_c, 2, 79, 99
10, 23077, Note_off_c, 2, 76, 0
10, 23078, Note_off_c, 2, 79, 0
10, 23085, Note_on_c, 2, 76, 97
10, 23087, Note_on_c, 2, 79, 97
10, 23125, Note_off_c, 2, 76, 0
10, 23126, Note_off_c, 2, 79, 0
10, 23327, Note_on_c, 2, 82, 98
10, 23390, Note_off_c, 2, 82, 0
10, 23397, Note_on_c, 2, 79, 99
10, 23422, Note_off_c, 2, 79, 0
10, 23422, Note_on_c, 2, 78, 98
10, 23425, Note_on_c, 2, 82, 97
10, 23464, Note_off_c, 2, 78, 0
10, 23465, Note_off_c, 2, 82, 0
10, 23469, Note_on_c, 2, 79, 97
10, 23472, Note_on_c, 2, 83, 96
10, 23510, Note_off_c, 2, 79, 0
10, 23510, Note_off_c, 2, 83, 0
10, 23661, Note_on_c, 2, 79, 99
10, 23782, Note_off_c, 2, 79, 0
10, 23805, Note_on_c, 2, 76, 99
10, 23807, Note_on_c, 2, 79, 98
10, 23847, Note_off_c, 2, 76, 0
10, 23848, Note_off_c, 2, 79, 0
10, 23853, Note_on_c, 2, 76, 97
10, 23855, Note_on_c, 2, 79, 99
10, 23893, Note_off_c, 2, 76, 0
10, 23894, Note_off_c, 2, 79, 0
10, 24093, Note_on_c, 2, 79, 96
10, 24157, Note_off_c, 2, 79, 0
10, 24167, Note_on_c, 2, 79, 97
10, 24192, Note_off_c, 2, 79, 0
10, 24193, Note_on_c, 2, 83, 98
10, 24230, Note_off_c, 2, 83, 0
10, 24238, Note_on_c, 2, 81, 98
10, 24278, Note_off_c, 2, 81, 0
10, 24429, Note_on_c, 2, 81, 97
10, 24551, Note_off_c, 2, 81, 0
10, 24575, Note_on_c, 2, 79, 100
10, 24614, Note_off_c, 2, 79, 0
10, 24621, Note_on_c, 2, 79, 96
10, 24662, Note_off_c, 2, 79, 0
10, 24934, Note_on_c, 2, 74, 97
10, 24959, Note_off_c, 2, 74, 0
10, 24959, Note_on_c, 2, 79, 100
10, 25039, Note_off_c, 2, 79, 0
10, 25053, Note_on_c, 2, 79, 97
10, 25117, Note_off_c, 2, 79, 0
10, 25127, Note_on_c, 2, 76, 98
10, 25152, Note_off_c, 2, 76, 0
10, 25153, Note_on_c, 2, 79, 99
10, 25191, Note_off_c, 2, 79, 0
10, 25198, Note_on_c, 2, 79, 96
10, 25279, Note_off_c, 2, 79, 0
10, 25293, Note_on_c, 2, 76, 100
10, 25335, Note_off_c, 2, 76, 0
10, 25342, Note_on_c, 2, 79, 100
10, 25423, Note_off_c, 2, 79, 0
10, 25437, Note_on_c, 2, 79, 100
10, 25518, Note_off_c, 2, 79, 0
10, 25535, Note_on_c, 2, 79, 100
10, 25574, Note_off_c, 2, 79, 0
10, 25581, Note_on_c, 2, 79, 100
10, 25623, Note_off_c, 2, 79, 0
10, 25630, Note_on_c, 2, 79, 100
10, 25669, Note_off_c, 2, 79, 0
10, 25679, Note_on_c, 2, 79, 99
10, 25718, Note_off_c, 2, 79, 0
10, 25725, Note_on_c, 2, 79, 99
10, 25727, Note_on_c, 2, 83, 99
10, 25880, Note_off_c, 2, 79, 0
10, 25881, Note_off_c, 2, 83, 0
10, 26013, Note_on_c, 2, 79, 98
10, 26094, Note_off_c, 2, 79, 0
10, 26112, Note_on_c, 2, 74, 97
10, 26115, Note_on_c, 2, 79, 97
10, 26189, Note_off_c, 2, 74, 0
10, 26190, Note_off_c, 2, 79, 0
10, 26495, Note_on_c, 2, 83, 96
10, 26573, Note_off_c, 2, 83, 0
10, 26590, Note_on_c, 2, 83, 98
10, 26653, Note_off_c, 2, 83, 0
10, 26664, Note_on_c, 2, 83, 97
10, 26685, Note_off_c, 2, 83, 0
10, 26686, Note_on_c, 2, 79, 100
10, 26765, Note_off_c, 2, 79, 0
10, 26784, Note_on_c, 2, 76, 100
10, 26822, Note_off_c, 2, 76, 0
10, 26829, Note_on_c, 2, 79, 99
10, 27030, Note_off_c, 2, 79, 0
10, 27118, Note_on_c, 2, 83, 96
10, 27159, Note_off_c, 2, 83, 0
10, 27167, Note_on_c, 2, 83, 98
10, 27206, Note_off_c, 2, 83, 0
10, 27213, Note_on_c, 2, 83, 99
10, 27255, Note_off_c, 2, 83, 0
10, 27262, Note_on_c, 2, 82, 100
10, 27264, Note_on_c, 2, 86, 98
10, 27413, Note_off_c, 2, 82, 0
10, 27414, Note_off_c, 2, 86, 0
10, 27550, Note_on_c, 2, 79, 98
10, 27631, Note_off_c, 2, 79, 0
10, 27645, Note_on_c, 2, 79, 96
10, 27800, Note_off_c, 2, 79, 0
10, 27983, Note_on_c, 2, 79, 96
10, 28021, Note_off_c, 2, 79, 0
10, 28029, Note_on_c, 2, 83, 97
10, 28109, Note_off_c, 2, 83, 0
10, 28127, Note_on_c, 2, 83, 98
10, 28208, Note_off_c, 2, 83, 0
10, 28221, Note_on_c, 2, 79, 96
10, 28301, Note_off_c, 2, 79, 0
10, 28317, Note_on_c, 2, 76, 100
10, 28359, Note_off_c, 2, 76, 0
10, 28366, Note_on_c, 2, 79, 99
10, 28566, Note_off_c, 2, 79, 0
10, 28797, Note_on_c, 2, 79, 96
10, 28878, Note_off_c, 2, 79, 0
10, 28893, Note_on_c, 2, 79, 96
10, 28957, Note_off_c, 2, 79, 0
10, 28967, Note_on_c, 2, 76, 98
10, 28989, Note_off_c, 2, 76, 0
10, 28990, Note_on_c, 2, 79, 99
10, 29055, Note_off_c, 2, 79, 0
10, 29062, Note_on_c, 2, 79, 100
10, 29087, Note_off_c, 2, 79, 0
10, 29133, Note_on_c, 2, 74, 97
10, 29175, Note_off_c, 2, 74, 0
10, 29181, Note_on_c, 2, 79, 98
10, 29262, Note_off_c, 2, 79, 0
10, 29277, Note_on_c, 2, 79, 100
10, 29343, Note_off_c, 2, 79, 0
10, 29351, Note_on_c, 2, 76, 98
10, 29373, Note_off_c, 2, 76, 0
10, 29374, Note_on_c, 2, 79, 100
10, 29453, Note_off_c, 2, 79, 0
10, 29470, Note_on_c, 2, 76, 99
10, 29534, Note_off_c, 2, 76, 0
10, 29541, Note_on_c, 2, 76, 99
10, 29565, Note_off_c, 2, 76, 0
10, 29566, Note_on_c, 2, 82, 99
10, 29646, Note_off_c, 2, 82, 0
10, 29664, Note_on_c, 2, 81, 96
10, 29727, Note_off_c, 2, 81, 0
10, 29734, Note_on_c, 2, 81, 96
10, 29757, Note_off_c, 2, 81, 0
10, 29758, Note_on_c, 2, 79, 100
10, 29822, Note_off_c, 2, 79, 0
10, 29829, Note_on_c, 2, 79, 98
10, 29854, Note_off_c, 2, 79, 0
10, 29854, Note_on_c, 2, 81, 96
10, 29935, Note_off_c, 2, 81, 0
10, 29949, Note_on_c, 2, 82, 98
10, 30030, Note_off_c, 2, 82, 0
10, 30047, Note_on_c, 2, 81, 98
10, 30110, Note_off_c, 2, 81, 0
10, 30117, Note_on_c, 2, 81, 97
10, 30142, Note_off_c, 2, 81, 0
10, 30142, Note_on_c, 2, 79, 100
10, 30223, Note_off_c, 2, 79, 0
10, 30237, Note_on_c, 2, 82, 99
10, 30304, Note_off_c, 2, 82, 0
10, 30311, Note_on_c, 2, 79, 96
10, 30334, Note_off_c, 2, 79, 0
10, 30335, Note_on_c, 2, 82, 100
10, 30374, Note_off_c, 2, 82, 0
10, 30381, Note_on_c, 2, 79, 97
10, 30423, Note_off_c, 2, 79, 0
10, 30574, Note_on_c, 2, 79, 98
10, 30694, Note_off_c, 2, 79, 0
10, 30718, Note_on_c, 2, 79, 97
10, 30758, Note_off_c, 2, 79, 0
10, 30768, Note_on_c, 2, 79, 98
10, 30806, Note_off_c, 2, 79, 0
10, 31007, Note_on_c, 2, 82, 100
10, 31070, Note_off_c, 2, 82, 0
10, 31078, Note_on_c, 2, 79, 100
10, 31102, Note_off_c, 2, 79, 0
10, 31103, Note_on_c, 2, 78, 99
10, 31105, Note_on_c, 2, 82, 98
10, 31141, Note_off_c, 2, 78, 0
10, 31141, Note_off_c, 2, 82, 0
10, 31151, Note_on_c, 2, 79, 97
10, 31153, Note_on_c, 2, 83, 98
10, 31190, Note_off_c, 2, 79, 0
10, 31191, Note_off_c, 2, 83, 0
10, 31341, Note_on_c, 2, 79, 97
10, 31461, Note_off_c, 2, 79, 0
10, 31485, Note_on_c, 2, 76, 97
10, 31487, Note_on_c, 2, 79, 98
10, 31527, Note_off_c, 2, 76, 0
10, 31528, Note_off_c, 2, 79, 0
10, 31535, Note_on_c, 2, 76, 98
10, 31537, Note_on_c, 2, 79, 96
10, 31573, Note_off_c, 2, 76, 0
10, 31574, Note_off_c, 2, 79, 0
10, 31774, Note_on_c, 2, 82, 99
10, 31837, Note_off_c, 2, 82, 0
10, 31848, Note_on_c, 2, 79, 101
10, 31869, Note_off_c, 2, 79, 0
10, 31870, Note_on_c, 2, 78, 97
10, 31871, Note_on_c, 2, 81, 96
10, 31911, Note_off_c, 2, 78, 0
10, 31912, Note_off_c, 2, 81, 0
10, 31918, Note_on_c, 2, 79, 97
10, 31920, Note_on_c, 2, 82, 99
10, 31960, Note_off_c, 2, 79, 0
10, 31961, Note_off_c, 2, 82, 0
10, 32111, Note_on_c, 2, 79, 96
10, 32231, Note_off_c, 2, 79, 0
10, 32255, Note_on_c, 2, 76, 97
10, 32257, Note_on_c, 2, 79, 99
10, 32294, Note_off_c, 2, 76, 0
10, 32295, Note_off_c, 2, 79, 0
10, 32301, Note_on_c, 2, 76, 96
10, 32303, Note_on_c, 2, 79, 99
10, 32343, Note_off_c, 2, 76, 0
10, 32344, Note_off_c, 2, 79, 0
10, 32544, Note_on_c, 2, 82, 98
10, 32607, Note_off_c, 2, 82, 0
10, 32614, Note_on_c, 2, 79, 97
10, 32639, Note_off_c, 2, 79, 0
10, 32639, Note_on_c, 2, 78, 96
10, 32642, Note_on_c, 2, 82, 99
10, 32677, Note_off_c, 2, 78, 0
10, 32678, Note_off_c, 2, 82, 0
10, 32688, Note_on_c, 2, 79, 99
10, 32690, Note_on_c, 2, 83, 100
10, 32727, Note_off_c, 2, 79, 0
10, 32727, Note_off_c, 2, 83, 0
10, 32878, Note_on_c, 2, 79, 97
10, 32998, Note_off_c, 2, 79, 0
10, 33022, Note_on_c, 2, 76, 97
10, 33024, Note_on_c, 2, 79, 97
10, 33061, Note_off_c, 2, 76, 0
10, 33062, Note_off_c, 2, 79, 0
10, 33071, Note_on_c, 2, 76, 100
10, 33073, Note_on_c, 2, 79, 98
10, 33110, Note_off_c, 2, 76, 0
10, 33111, Note_off_c, 2, 79, 0
10, 33310, Note_on_c, 2, 79, 96
10, 33374, Note_off_c, 2, 79, 0
10, 33381, Note_on_c, 2, 79, 98
10, 33405, Note_off_c, 2, 79, 0
10, 33406, Note_on_c, 2, 83, 96
10, 33448, Note_off_c, 2, 83, 0
10, 33455, Note_on_c, 2, 81, 97
10, 33493, Note_off_c, 2, 81, 0
10, 33648, Note_on_c, 2, 81, 100
10, 33767, Note_off_c, 2, 81, 0
10, 33789, Note_on_c, 2, 79, 100
10, 33831, Note_off_c, 2, 79, 0
10, 33838, Note_on_c, 2, 79, 96
10, 33880, Note_off_c, 2, 79, 0
10, 34151, Note_on_c, 2, 74, 99
10, 34176, Note_off_c, 2, 74, 0
10, 34176, Note_on_c, 2, 79, 99
10, 34253, Note_off_c, 2, 79, 0
10, 34270, Note_on_c, 2, 79, 96
10, 34334, Note_off_c, 2, 79, 0
10, 34341, Note_on_c, 2, 76, 97
10, 34365, Note_off_c, 2, 76, 0
10, 34366, Note_on_c, 2, 79, 100
10, 34408, Note_off_c, 2, 79, 0
10, 34414, Note_on_c, 2, 79, 97
10, 34496, Note_off_c, 2, 79, 0
10, 34510, Note_on_c, 2, 76, 98
10, 34549, Note_off_c, 2, 76, 0
10, 34559, Note_on_c, 2, 79, 98
10, 34640, Note_off_c, 2, 79, 0
10, 34654, Note_on_c, 2, 79, 97
10, 34735, Note_off_c, 2, 79, 0
10, 34749, Note_on_c, 2, 79, 98
10, 34829, Note_off_c, 2, 79, 0
10, 34847, Note_on_c, 2, 79, 98
10, 34911, Note_off_c, 2, 79, 0
10, 34917, Note_on_c, 2, 79, 96
10, 34942, Note_off_c, 2, 79, 0
10, 34943, Note_on_c, 2, 79, 100
10, 34945, Note_on_c, 2, 83, 97
10, 35093, Note_off_c, 2, 79, 0
10, 35094, Note_off_c, 2, 83, 0
10, 35230, Note_on_c, 2, 79, 98
10, 35311, Note_off_c, 2, 79, 0
10, 35325, Note_on_c, 2, 74, 99
10, 35328, Note_on_c, 2, 79, 96
10, 35406, Note_off_c, 2, 74, 0
10, 35407, Note_off_c, 2, 79, 0
10, 35662, Note_on_c, 2, 79, 97
10, 35702, Note_off_c, 2, 79, 0
10, 35709, Note_on_c, 2, 83, 97
10, 35790, Note_off_c, 2, 83, 0
10, 35807, Note_on_c, 2, 83, 96
10, 35888, Note_off_c, 2, 83, 0
10, 35902, Note_on_c, 2, 79, 96
10, 35983, Note_off_c, 2, 79, 0
10, 35997, Note_on_c, 2, 76, 98
10, 36039, Note_off_c, 2, 76, 0
10, 36046, Note_on_c, 2, 79, 100
10, 36247, Note_off_c, 2, 79, 0
10, 36335, Note_on_c, 2, 83, 99
10, 36373, Note_off_c, 2, 83, 0
10, 36384, Note_on_c, 2, 83, 100
10, 36423, Note_off_c, 2, 83, 0
10, 36430, Note_on_c, 2, 83, 99
10, 36470, Note_off_c, 2, 83, 0
10, 36479, Note_on_c, 2, 82, 97
10, 36481, Note_on_c, 2, 86, 97
10, 36630, Note_off_c, 2, 82, 0
10, 36631, Note_off_c, 2, 86, 0
10, 36767, Note_on_c, 2, 79, 96
10, 36845, Note_off_c, 2, 79, 0
10, 36862, Note_on_c, 2, 79, 99
10, 37013, Note_off_c, 2, 79, 0
10, 37151, Note_on_c, 2, 79, 97
10, 37189, Note_off_c, 2, 79, 0
10, 37199, Note_on_c, 2, 79, 97
10, 37238, Note_off_c, 2, 79, 0
10, 37246, Note_on_c, 2, 83, 98
10, 37326, Note_off_c, 2, 83, 0
10, 37344, Note_on_c, 2, 83, 98
10, 37421, Note_off_c, 2, 83, 0
10, 37439, Note_on_c, 2, 79, 96
10, 37520, Note_off_c, 2, 79, 0
10, 37534, Note_on_c, 2, 76, 97
10, 37573, Note_off_c, 2, 76, 0
10, 37583, Note_on_c, 2, 79, 99
10, 37784, Note_off_c, 2, 79, 0
10, 37966, Note_on_c, 2, 79, 99
10, 38005, Note_off_c, 2, 79, 0
10, 38013, Note_on_c, 2, 79, 99
10, 38093, Note_off_c, 2, 79, 0
10, 38110, Note_on_c, 2, 76, 100
10, 38189, Note_off_c, 2, 76, 0
10, 38205, Note_on_c, 2, 79, 99
10, 38269, Note_off_c, 2, 79, 0
10, 38279, Note_on_c, 2, 79, 97
10, 38304, Note_off_c, 2, 79, 0
10, 38350, Note_on_c, 2, 74, 99
10, 38392, Note_off_c, 2, 74, 0
10, 38399, Note_on_c, 2, 79, 100
10, 38480, Note_off_c, 2, 79, 0
10, 38493, Note_on_c, 2, 76, 99
10, 38574, Note_off_c, 2, 76, 0
10, 38589, Note_on_c, 2, 79, 97
10, 38669, Note_off_c, 2, 79, 0
10, 38733, Note_on_c, 2, 76, 98
10, 38775, Note_off_c, 2, 76, 0
10, 38783, Note_on_c, 2, 82, 99
10, 38846, Note_off_c, 2, 82, 0
10, 38853, Note_on_c, 2, 82, 96
10, 38877, Note_off_c, 2, 82, 0
10, 38878, Note_on_c, 2, 81, 96
10, 38958, Note_off_c, 2, 81, 0
10, 38976, Note_on_c, 2, 79, 99
10, 39039, Note_off_c, 2, 79, 0
10, 39046, Note_on_c, 2, 79, 99
10, 39069, Note_off_c, 2, 79, 0
10, 39070, Note_on_c, 2, 81, 100
10, 39150, Note_off_c, 2, 81, 0
10, 39166, Note_on_c, 2, 82, 96
10, 39246, Note_off_c, 2, 82, 0
10, 39261, Note_on_c, 2, 81, 98
10, 39301, Note_off_c, 2, 81, 0
10, 39310, Note_on_c, 2, 79, 100
10, 39429, Note_off_c, 2, 79, 0
10, 39453, Note_on_c, 2, 82, 97
10, 39517, Note_off_c, 2, 82, 0
10, 39528, Note_on_c, 2, 79, 99
10, 39549, Note_off_c, 2, 79, 0
10, 39550, Note_on_c, 2, 82, 99
10, 39591, Note_off_c, 2, 82, 0
10, 39598, Note_on_c, 2, 79, 99
10, 39637, Note_off_c, 2, 79, 0
10, 39791, Note_on_c, 2, 79, 100
10, 39911, Note_off_c, 2, 79, 0
10, 39935, Note_on_c, 2, 79, 100
10, 39974, Note_off_c, 2, 79, 0
10, 39981, Note_on_c, 2, 79, 99
10, 40023, Note_off_c, 2, 79, 0
10, 40221, Note_on_c, 2, 82, 99
10, 40287, Note_off_c, 2, 82, 0
10, 40294, Note_on_c, 2, 79, 98
10, 40319, Note_off_c, 2, 79, 0
10, 40320, Note_on_c, 2, 78, 98
10, 40322, Note_on_c, 2, 82, 100
10, 40358, Note_off_c, 2, 78, 0
10, 40358, Note_off_c, 2, 82, 0
10, 40365, Note_on_c, 2, 79, 98
10, 40367, Note_on_c, 2, 83, 98
10, 40407, Note_off_c, 2, 79, 0
10, 40408, Note_off_c, 2, 83, 0
10, 40558, Note_on_c, 2, 79, 98
10, 40678, Note_off_c, 2, 79, 0
10, 40702, Note_on_c, 2, 76, 99
10, 40704, Note_on_c, 2, 79, 100
10, 40741, Note_off_c, 2, 76, 0
10, 40742, Note_off_c, 2, 79, 0
10, 40751, Note_on_c, 2, 76, 100
10, 40754, Note_on_c, 2, 79, 98
10, 40790, Note_off_c, 2, 76, 0
10, 40791, Note_off_c, 2, 79, 0
10, 40990, Note_on_c, 2, 82, 99
10, 41054, Note_off_c, 2, 82, 0
10, 41061, Note_on_c, 2, 79, 100
10, 41085, Note_off_c, 2, 79, 0
10, 41086, Note_on_c, 2, 78, 98
10, 41088, Note_on_c, 2, 81, 99
10, 41128, Note_off_c, 2, 78, 0
10, 41128, Note_off_c, 2, 81, 0
10, 41135, Note_on_c, 2, 79, 96
10, 41137, Note_on_c, 2, 82, 100
10, 41173, Note_off_c, 2, 79, 0
10, 41174, Note_off_c, 2, 82, 0
10, 41325, Note_on_c, 2, 79, 99
10, 41445, Note_off_c, 2, 79, 0
10, 41469, Note_on_c, 2, 76, 98
10, 41471, Note_on_c, 2, 79, 100
10, 41511, Note_off_c, 2, 76, 0
10, 41512, Note_off_c, 2, 79, 0
10, 41518, Note_on_c, 2, 76, 99
10, 41520, Note_on_c, 2, 79, 98
10, 41557, Note_off_c, 2, 76, 0
10, 41558, Note_off_c, 2, 79, 0
10, 41757, Note_on_c, 2, 82, 96
10, 41824, Note_off_c, 2, 82, 0
10, 41829, Note_on_c, 2, 79, 100
10, 41856, Note_off_c, 2, 79, 0
10, 41856, Note_on_c, 2, 78, 98
10, 41859, Note_on_c, 2, 82, 98
10, 41894, Note_off_c, 2, 78, 0
10, 41895, Note_off_c, 2, 82, 0
10, 41901, Note_on_c, 2, 79, 100
10, 41904, Note_on_c, 2, 83, 97
10, 41944, Note_off_c, 2, 79, 0
10, 41944, Note_off_c, 2, 83, 0
10, 42095, Note_on_c, 2, 79, 98
10, 42213, Note_off_c, 2, 79, 0
10, 42239, Note_on_c, 2, 76, 98
10, 42241, Note_on_c, 2, 79, 98
10, 42278, Note_off_c, 2, 76, 0
10, 42278, Note_off_c, 2, 79, 0
10, 42285, Note_on_c, 2, 76, 100
10, 42287, Note_on_c, 2, 79, 99
10, 42327, Note_off_c, 2, 76, 0
10, 42328, Note_off_c, 2, 79, 0
10, 42527, Note_on_c, 2, 79, 96
10, 42591, Note_off_c, 2, 79, 0
10, 42598, Note_on_c, 2, 79, 100
10, 42622, Note_off_c, 2, 79, 0
10, 42623, Note_on_c, 2, 83, 98
10, 42661, Note_off_c, 2, 83, 0
10, 42672, Note_on_c, 2, 81, 97
10, 42710, Note_off_c, 2, 81, 0
10, 42862, Note_on_c, 2, 81, 96
10, 42981, Note_off_c, 2, 81, 0
10, 43006, Note_on_c, 2, 79, 99
10, 43048, Note_off_c, 2, 79, 0
10, 43055, Note_on_c, 2, 79, 98
10, 43093, Note_off_c, 2, 79, 0
10, 43366, Note_on_c, 2, 74, 96
10, 43389, Note_off_c, 2, 74, 0
10, 43389, Note_on_c, 2, 79, 96
10, 43470, Note_off_c, 2, 79, 0
10, 43487, Note_on_c, 2, 79, 96
10, 43551, Note_off_c, 2, 79, 0
10, 43558, Note_on_c, 2, 76, 98
10, 43582, Note_off_c, 2, 76, 0
10, 43583, Note_on_c, 2, 79, 98
10, 43621, Note_off_c, 2, 79, 0
10, 43629, Note_on_c, 2, 79, 100
10, 43709, Note_off_c, 2, 79, 0
10, 43727, Note_on_c, 2, 76, 97
10, 43765, Note_off_c, 2, 76, 0
10, 43776, Note_on_c, 2, 79, 99
10, 43853, Note_off_c, 2, 79, 0
10, 43871, Note_on_c, 2, 79, 97
10, 43952, Note_off_c, 2, 79, 0
10, 43966, Note_on_c, 2, 79, 98
10, 44047, Note_off_c, 2, 79, 0
10, 44061, Note_on_c, 2, 79, 96
10, 44127, Note_off_c, 2, 79, 0
10, 44134, Note_on_c, 2, 79, 100
10, 44159, Note_off_c, 2, 79, 0
10, 44160, Note_on_c, 2, 79, 96
10, 44162, Note_on_c, 2, 83, 96
10, 44310, Note_off_c, 2, 79, 0
10, 44311, Note_off_c, 2, 83, 0
10, 44448, Note_on_c, 2, 79, 97
10, 44525, Note_off_c, 2, 79, 0
10, 44542, Note_on_c, 2, 74, 97
10, 44544, Note_on_c, 2, 79, 98
10, 44623, Note_off_c, 2, 74, 0
10, 44624, Note_off_c, 2, 79, 0
10, 44880, Note_on_c, 2, 79, 99
10, 44919, Note_off_c, 2, 79, 0
10, 44926, Note_on_c, 2, 83, 99
10, 45007, Note_off_c, 2, 83, 0
10, 45021, Note_on_c, 2, 83, 98
10, 45102, Note_off_c, 2, 83, 0
10, 45119, Note_on_c, 2, 79, 99
10, 45200, Note_off_c, 2, 79, 0
10, 45214, Note_on_c, 2, 76, 100
10, 45253, Note_off_c, 2, 76, 0
10, 45263, Note_on_c, 2, 79, 97
10, 45464, Note_off_c, 2, 79, 0
10, 45549, Note_on_c, 2, 83, 100
10, 45590, Note_off_c, 2, 83, 0
10, 45597, Note_on_c, 2, 83, 100
10, 45640, Note_off_c, 2, 83, 0
10, 45647, Note_on_c, 2, 83, 99
10, 45685, Note_off_c, 2, 83, 0
10, 45696, Note_on_c, 2, 82, 99
10, 45699, Note_on_c, 2, 86, 96
10, 45847, Note_off_c, 2, 82, 0
10, 45848, Note_off_c, 2, 86, 0
10, 45981, Note_on_c, 2, 79, 97
10, 46061, Note_off_c, 2, 79, 0
10, 46079, Note_on_c, 2, 79, 98
10, 46230, Note_off_c, 2, 79, 0
10, 46413, Note_on_c, 2, 79, 96
10, 46455, Note_off_c, 2, 79, 0
10, 46462, Note_on_c, 2, 83, 97
10, 46543, Note_off_c, 2, 83, 0
10, 46557, Note_on_c, 2, 83, 99
10, 46638, Note_off_c, 2, 83, 0
10, 46656, Note_on_c, 2, 79, 96
10, 46733, Note_off_c, 2, 79, 0
10, 46751, Note_on_c, 2, 76, 100
10, 46790, Note_off_c, 2, 76, 0
10, 46800, Note_on_c, 2, 79, 97
10, 46997, Note_off_c, 2, 79, 0
10, 47183, Note_on_c, 2, 79, 98
10, 47222, Note_off_c, 2, 79, 0
10, 47229, Note_on_c, 2, 79, 97
10, 47309, Note_off_c, 2, 79, 0
10, 47327, Note_on_c, 2, 76, 98
10, 47405, Note_off_c, 2, 76, 0
10, 47423, Note_on_c, 2, 79, 97
10, 47486, Note_off_c, 2, 79, 0
10, 47493, Note_on_c, 2, 79, 97
10, 47517, Note_off_c, 2, 79, 0
10, 47518, Note_on_c, 2, 79, 100
10, 47581, Note_off_c, 2, 79, 0
10, 47591, Note_on_c, 2, 79, 96
10, 47616, Note_off_c, 2, 79, 0
10, 47617, Note_on_c, 2, 79, 100
10, 47693, Note_off_c, 2, 79, 0
10, 47711, Note_on_c, 2, 76, 100
10, 47792, Note_off_c, 2, 76, 0
10, 47806, Note_on_c, 2, 79, 97
10, 47885, Note_off_c, 2, 79, 0
10, 47901, Note_on_c, 2, 76, 96
10, 47966, Note_off_c, 2, 76, 0
10, 47974, Note_on_c, 2, 76, 98
10, 47999, Note_off_c, 2, 76, 0
10, 48000, Note_on_c, 2, 82, 99
10, 48062, Note_off_c, 2, 82, 0
10, 48070, Note_on_c, 2, 82, 99
10, 48094, Note_off_c, 2, 82, 0
10, 48095, Note_on_c, 2, 81, 100
10, 48158, Note_off_c, 2, 81, 0
10, 48168, Note_on_c, 2, 81, 99
10, 48189, Note_off_c, 2, 81, 0
10, 48190, Note_on_c, 2, 79, 97
10, 48256, Note_off_c, 2, 79, 0
10, 48263, Note_on_c, 2, 79, 97
10, 48288, Note_off_c, 2, 79, 0
10, 48288, Note_on_c, 2, 81, 99
10, 48365, Note_off_c, 2, 81, 0
10, 48383, Note_on_c, 2, 82, 100
10, 48461, Note_off_c, 2, 82, 0
10, 48477, Note_on_c, 2, 81, 98
10, 48519, Note_off_c, 2, 81, 0
10, 48527, Note_on_c, 2, 79, 96
10, 48646, Note_off_c, 2, 79, 0
10, 48671, Note_on_c, 2, 82, 100
10, 48734, Note_off_c, 2, 82, 0
10, 48742, Note_on_c, 2, 79, 98
10, 48765, Note_off_c, 2, 79, 0
10, 48766, Note_on_c, 2, 82, 99
10, 48805, Note_off_c, 2, 82, 0
10, 48815, Note_on_c, 2, 79, 99
10, 48854, Note_off_c, 2, 79, 0
10, 49005, Note_on_c, 2, 79, 100
10, 49128, Note_off_c, 2, 79, 0
10, 49149, Note_on_c, 2, 79, 100
10, 49189, Note_off_c, 2, 79, 0
10, 49198, Note_on_c, 2, 79, 99
10, 49237, Note_off_c, 2, 79, 0
10, 49437, Note_on_c, 2, 82, 96
10, 49501, Note_off_c, 2, 82, 0
10, 49511, Note_on_c, 2, 79, 97
10, 49533, Note_off_c, 2, 79, 0
10, 49534, Note_on_c, 2, 78, 100
10, 49536, Note_on_c, 2, 82, 99
10, 49573, Note_off_c, 2, 78, 0
10, 49574, Note_off_c, 2, 82, 0
10, 49582, Note_on_c, 2, 79, 99
10, 49584, Note_on_c, 2, 83, 100
10, 49624, Note_off_c, 2, 79, 0
10, 49625, Note_off_c, 2, 83, 0
10, 49775, Note_on_c, 2, 79, 99
10, 49895, Note_off_c, 2, 79, 0
10, 49917, Note_on_c, 2, 76, 99
10, 49919, Note_on_c, 2, 79, 97
10, 49958, Note_off_c, 2, 76, 0
10, 49958, Note_off_c, 2, 79, 0
10, 49965, Note_on_c, 2, 76, 98
10, 49968, Note_on_c, 2, 79, 100
10, 50007, Note_off_c, 2, 76, 0
10, 50008, Note_off_c, 2, 79, 0
10, 50208, Note_on_c, 2, 82, 100
10, 50246, Note_off_c, 2, 82, 0
10, 50253, Note_on_c, 2, 79, 99
10, 50296, Note_off_c, 2, 79, 0
10, 50303, Note_on_c, 2, 78, 96
10, 50305, Note_on_c, 2, 81, 99
10, 50342, Note_off_c, 2, 78, 0
10, 50342, Note_off_c, 2, 81, 0
10, 50352, Note_on_c, 2, 79, 98
10, 50354, Note_on_c, 2, 82, 98
10, 50390, Note_off_c, 2, 79, 0
10, 50391, Note_off_c, 2, 82, 0
10, 50542, Note_on_c, 2, 79, 97
10, 50661, Note_off_c, 2, 79, 0
10, 50686, Note_on_c, 2, 76, 100
10, 50688, Note_on_c, 2, 79, 97
10, 50726, Note_off_c, 2, 76, 0
10, 50727, Note_off_c, 2, 79, 0
10, 50735, Note_on_c, 2, 76, 98
10, 50737, Note_on_c, 2, 79, 97
10, 50774, Note_off_c, 2, 76, 0
10, 50774, Note_off_c, 2, 79, 0
10, 50974, Note_on_c, 2, 82, 99
10, 51037, Note_off_c, 2, 82, 0
10, 51045, Note_on_c, 2, 79, 99
10, 51069, Note_off_c, 2, 79, 0
10, 51070, Note_on_c, 2, 78, 98
10, 51072, Note_on_c, 2, 82, 98
10, 51110, Note_off_c, 2, 78, 0
10, 51111, Note_off_c, 2, 82, 0
10, 51118, Note_on_c, 2, 79, 100
10, 51121, Note_on_c, 2, 83, 98
10, 51157, Note_off_c, 2, 79, 0
10, 51158, Note_off_c, 2, 83, 0
10, 51312, Note_on_c, 2, 79, 100
10, 51432, Note_off_c, 2, 79, 0
10, 51454, Note_on_c, 2, 76, 97
10, 51456, Note_on_c, 2, 79, 98
10, 51494, Note_off_c, 2, 76, 0
10, 51495, Note_off_c, 2, 79, 0
10, 51502, Note_on_c, 2, 76, 96
10, 51504, Note_on_c, 2, 79, 100
10, 51544, Note_off_c, 2, 76, 0
10, 51545, Note_off_c, 2, 79, 0
10, 51741, Note_on_c, 2, 79, 100
10, 51808, Note_off_c, 2, 79, 0
10, 51815, Note_on_c, 2, 79, 98
10, 51838, Note_off_c, 2, 79, 0
10, 51839, Note_on_c, 2, 83, 97
10, 51878, Note_off_c, 2, 83, 0
10, 51886, Note_on_c, 2, 81, 100
10, 51927, Note_off_c, 2, 81, 0
10, 52079, Note_on_c, 2, 81, 99
10, 52198, Note_off_c, 2, 81, 0
10, 52223, Note_on_c, 2, 79, 100
10, 52261, Note_off_c, 2, 79, 0
10, 52269, Note_on_c, 2, 79, 97
10, 52311, Note_off_c, 2, 79, 0
10, 52581, Note_on_c, 2, 74, 99
10, 52606, Note_off_c, 2, 74, 0
10, 52607, Note_on_c, 2, 79, 97
10, 52687, Note_off_c, 2, 79, 0
10, 52701, Note_on_c, 2, 79, 98
10, 52768, Note_off_c, 2, 79, 0
10, 52775, Note_on_c, 2, 76, 98
10, 52799, Note_off_c, 2, 76, 0
10, 52800, Note_on_c, 2, 79, 99
10, 52838, Note_off_c, 2, 79, 0
10, 52845, Note_on_c, 2, 79, 98
10, 52926, Note_off_c, 2, 79, 0
10, 52944, Note_on_c, 2, 76, 99
10, 52981, Note_off_c, 2, 76, 0
10, 52989, Note_on_c, 2, 79, 106
10, 53070, Note_off_c, 2, 79, 0
10, 53088, Note_on_c, 2, 79, 105
10, 53165, Note_off_c, 2, 79, 0
10, 53183, Note_on_c, 2, 79, 104
10, 53334, Note_off_c, 2, 79, 0
10, 53334, End_track
11, 0, Start_track
11, 0, Text_t, "piano   "
11, 0, Channel_prefix, 3
11, 1872, Note_on_c, 3, 50, 92
11, 1910, Note_off_c, 3, 50, 0
11, 1917, Note_on_c, 3, 55, 88
11, 1998, Note_off_c, 3, 55, 0
11, 2016, Note_on_c, 3, 55, 90
11, 2078, Note_off_c, 3, 55, 0
11, 2086, Note_on_c, 3, 52, 90
11, 2110, Note_off_c, 3, 52, 0
11, 2111, Note_on_c, 3, 55, 92
11, 2153, Note_off_c, 3, 55, 0
11, 2160, Note_on_c, 3, 55, 90
11, 2241, Note_off_c, 3, 55, 0
11, 2254, Note_on_c, 3, 52, 89
11, 2293, Note_off_c, 3, 52, 0
11, 2305, Note_on_c, 3, 55, 89
11, 2381, Note_off_c, 3, 55, 0
11, 2398, Note_on_c, 3, 55, 89
11, 2480, Note_off_c, 3, 55, 0
11, 2494, Note_on_c, 3, 55, 92
11, 2574, Note_off_c, 3, 55, 0
11, 2590, Note_on_c, 3, 58, 89
11, 2653, Note_off_c, 3, 58, 0
11, 2661, Note_on_c, 3, 55, 90
11, 2687, Note_off_c, 3, 55, 0
11, 2688, Note_on_c, 3, 54, 90
11, 2696, Note_on_c, 3, 58, 90
11, 2725, Note_off_c, 3, 54, 0
11, 2726, Note_off_c, 3, 58, 0
11, 2737, Note_on_c, 3, 55, 90
11, 2742, Note_on_c, 3, 59, 90
11, 2775, Note_off_c, 3, 55, 0
11, 2776, Note_off_c, 3, 59, 0
11, 2926, Note_on_c, 3, 55, 89
11, 3045, Note_off_c, 3, 55, 0
11, 3072, Note_on_c, 3, 52, 89
11, 3075, Note_on_c, 3, 55, 89
11, 3109, Note_off_c, 3, 52, 0
11, 3110, Note_off_c, 3, 55, 0
11, 3117, Note_on_c, 3, 52, 90
11, 3120, Note_on_c, 3, 55, 90
11, 3159, Note_off_c, 3, 52, 0
11, 3160, Note_off_c, 3, 55, 0
11, 3357, Note_on_c, 3, 58, 88
11, 3397, Note_off_c, 3, 58, 0
11, 3406, Note_on_c, 3, 55, 91
11, 3446, Note_off_c, 3, 55, 0
11, 3454, Note_on_c, 3, 54, 89
11, 3455, Note_on_c, 3, 58, 89
11, 3496, Note_off_c, 3, 54, 0
11, 3497, Note_off_c, 3, 58, 0
11, 3507, Note_on_c, 3, 55, 91
11, 3509, Note_on_c, 3, 59, 88
11, 3541, Note_off_c, 3, 55, 0
11, 3542, Note_off_c, 3, 59, 0
11, 3697, Note_on_c, 3, 55, 91
11, 3816, Note_off_c, 3, 55, 0
11, 3837, Note_on_c, 3, 52, 90
11, 3840, Note_on_c, 3, 55, 89
11, 3879, Note_off_c, 3, 52, 0
11, 3880, Note_off_c, 3, 55, 0
11, 3890, Note_on_c, 3, 52, 91
11, 3892, Note_on_c, 3, 55, 90
11, 3927, Note_off_c, 3, 52, 0
11, 3929, Note_off_c, 3, 55, 0
11, 4125, Note_on_c, 3, 58, 89
11, 4168, Note_off_c, 3, 58, 0
11, 4174, Note_on_c, 3, 55, 92
11, 4213, Note_off_c, 3, 55, 0
11, 4221, Note_on_c, 3, 54, 91
11, 4223, Note_on_c, 3, 57, 91
11, 4263, Note_off_c, 3, 54, 0
11, 4263, Note_off_c, 3, 57, 0
11, 4270, Note_on_c, 3, 55, 90
11, 4273, Note_on_c, 3, 58, 92
11, 4313, Note_off_c, 3, 55, 0
11, 4313, Note_off_c, 3, 58, 0
11, 4463, Note_on_c, 3, 55, 88
11, 4582, Note_off_c, 3, 55, 0
11, 4607, Note_on_c, 3, 52, 92
11, 4610, Note_on_c, 3, 55, 92
11, 4646, Note_off_c, 3, 52, 0
11, 4647, Note_off_c, 3, 55, 0
11, 4655, Note_on_c, 3, 52, 91
11, 4657, Note_on_c, 3, 55, 90
11, 4695, Note_off_c, 3, 52, 0
11, 4696, Note_off_c, 3, 55, 0
11, 4897, Note_on_c, 3, 58, 89
11, 4959, Note_off_c, 3, 58, 0
11, 4966, Note_on_c, 3, 55, 92
11, 4990, Note_off_c, 3, 55, 0
11, 4991, Note_on_c, 3, 54, 88
11, 4999, Note_on_c, 3, 58, 91
11, 5029, Note_off_c, 3, 54, 0
11, 5030, Note_off_c, 3, 58, 0
11, 5040, Note_on_c, 3, 55, 89
11, 5043, Note_on_c, 3, 59, 92
11, 5078, Note_off_c, 3, 55, 0
11, 5079, Note_off_c, 3, 59, 0
11, 5230, Note_on_c, 3, 55, 91
11, 5349, Note_off_c, 3, 55, 0
11, 5374, Note_on_c, 3, 52, 90
11, 5376, Note_on_c, 3, 55, 88
11, 5416, Note_off_c, 3, 52, 0
11, 5417, Note_off_c, 3, 55, 0
11, 5423, Note_on_c, 3, 52, 90
11, 5426, Note_on_c, 3, 55, 89
11, 5462, Note_off_c, 3, 52, 0
11, 5463, Note_off_c, 3, 55, 0
11, 5662, Note_on_c, 3, 55, 90
11, 5725, Note_off_c, 3, 55, 0
11, 5736, Note_on_c, 3, 55, 88
11, 5764, Note_off_c, 3, 55, 0
11, 5765, Note_on_c, 3, 59, 89
11, 5799, Note_off_c, 3, 59, 0
11, 5806, Note_on_c, 3, 57, 92
11, 5849, Note_off_c, 3, 57, 0
11, 6000, Note_on_c, 3, 57, 89
11, 6119, Note_off_c, 3, 57, 0
11, 6144, Note_on_c, 3, 55, 92
11, 6182, Note_off_c, 3, 55, 0
11, 6190, Note_on_c, 3, 55, 89
11, 6229, Note_off_c, 3, 55, 0
11, 6502, Note_on_c, 3, 50, 91
11, 6528, Note_off_c, 3, 50, 0
11, 6528, Note_on_c, 3, 55, 92
11, 6608, Note_off_c, 3, 55, 0
11, 6622, Note_on_c, 3, 55, 90
11, 6685, Note_off_c, 3, 55, 0
11, 6696, Note_on_c, 3, 52, 89
11, 6717, Note_off_c, 3, 52, 0
11, 6718, Note_on_c, 3, 55, 88
11, 6760, Note_off_c, 3, 55, 0
11, 6766, Note_on_c, 3, 55, 91
11, 6847, Note_off_c, 3, 55, 0
11, 6861, Note_on_c, 3, 52, 89
11, 6902, Note_off_c, 3, 52, 0
11, 6911, Note_on_c, 3, 55, 92
11, 6989, Note_off_c, 3, 55, 0
11, 7005, Note_on_c, 3, 55, 90
11, 7086, Note_off_c, 3, 55, 0
11, 7105, Note_on_c, 3, 55, 91
11, 7143, Note_off_c, 3, 55, 0
11, 7149, Note_on_c, 3, 55, 88
11, 7192, Note_off_c, 3, 55, 0
11, 7199, Note_on_c, 3, 55, 89
11, 7237, Note_off_c, 3, 55, 0
11, 7249, Note_on_c, 3, 55, 91
11, 7286, Note_off_c, 3, 55, 0
11, 7295, Note_on_c, 3, 55, 90
11, 7297, Note_on_c, 3, 59, 90
11, 7445, Note_off_c, 3, 55, 0
11, 7446, Note_off_c, 3, 59, 0
11, 7537, Note_on_c, 3, 55, 92
11, 7575, Note_off_c, 3, 55, 0
11, 7582, Note_on_c, 3, 55, 89
11, 7662, Note_off_c, 3, 55, 0
11, 7677, Note_on_c, 3, 50, 92
11, 7680, Note_on_c, 3, 55, 89
11, 7758, Note_off_c, 3, 50, 0
11, 7759, Note_off_c, 3, 55, 0
11, 8014, Note_on_c, 3, 55, 90
11, 8053, Note_off_c, 3, 55, 0
11, 8065, Note_on_c, 3, 59, 91
11, 8141, Note_off_c, 3, 59, 0
11, 8160, Note_on_c, 3, 59, 90
11, 8240, Note_off_c, 3, 59, 0
11, 8254, Note_on_c, 3, 55, 92
11, 8334, Note_off_c, 3, 55, 0
11, 8350, Note_on_c, 3, 52, 89
11, 8390, Note_off_c, 3, 52, 0
11, 8398, Note_on_c, 3, 55, 91
11, 8599, Note_off_c, 3, 55, 0
11, 8686, Note_on_c, 3, 59, 88
11, 8725, Note_off_c, 3, 59, 0
11, 8737, Note_on_c, 3, 59, 90
11, 8774, Note_off_c, 3, 59, 0
11, 8781, Note_on_c, 3, 59, 88
11, 8824, Note_off_c, 3, 59, 0
11, 8831, Note_on_c, 3, 58, 91
11, 8836, Note_on_c, 3, 62, 89
11, 8983, Note_off_c, 3, 58, 0
11, 8984, Note_off_c, 3, 62, 0
11, 9070, Note_on_c, 3, 55, 89
11, 9110, Note_off_c, 3, 55, 0
11, 9118, Note_on_c, 3, 55, 92
11, 9200, Note_off_c, 3, 55, 0
11, 9214, Note_on_c, 3, 55, 90
11, 9365, Note_off_c, 3, 55, 0
11, 9552, Note_on_c, 3, 55, 92
11, 9590, Note_off_c, 3, 55, 0
11, 9597, Note_on_c, 3, 59, 92
11, 9678, Note_off_c, 3, 59, 0
11, 9697, Note_on_c, 3, 59, 90
11, 9774, Note_off_c, 3, 59, 0
11, 9790, Note_on_c, 3, 55, 90
11, 9869, Note_off_c, 3, 55, 0
11, 9885, Note_on_c, 3, 52, 91
11, 9928, Note_off_c, 3, 52, 0
11, 9934, Note_on_c, 3, 55, 89
11, 10136, Note_off_c, 3, 55, 0
11, 10318, Note_on_c, 3, 55, 88
11, 10360, Note_off_c, 3, 55, 0
11, 10366, Note_on_c, 3, 55, 91
11, 10449, Note_off_c, 3, 55, 0
11, 10462, Note_on_c, 3, 55, 89
11, 10525, Note_off_c, 3, 55, 0
11, 10534, Note_on_c, 3, 52, 90
11, 10557, Note_off_c, 3, 52, 0
11, 10558, Note_on_c, 3, 55, 90
11, 10638, Note_off_c, 3, 55, 0
11, 10701, Note_on_c, 3, 50, 88
11, 10744, Note_off_c, 3, 50, 0
11, 10750, Note_on_c, 3, 55, 90
11, 10832, Note_off_c, 3, 55, 0
11, 10845, Note_on_c, 3, 55, 88
11, 10913, Note_off_c, 3, 55, 0
11, 10920, Note_on_c, 3, 52, 92
11, 10945, Note_off_c, 3, 52, 0
11, 10947, Note_on_c, 3, 55, 91
11, 11021, Note_off_c, 3, 55, 0
11, 11089, Note_on_c, 3, 52, 92
11, 11127, Note_off_c, 3, 52, 0
11, 11135, Note_on_c, 3, 58, 92
11, 11215, Note_off_c, 3, 58, 0
11, 11230, Note_on_c, 3, 57, 88
11, 11309, Note_off_c, 3, 57, 0
11, 11325, Note_on_c, 3, 55, 92
11, 11408, Note_off_c, 3, 55, 0
11, 11422, Note_on_c, 3, 57, 89
11, 11503, Note_off_c, 3, 57, 0
11, 11517, Note_on_c, 3, 58, 88
11, 11598, Note_off_c, 3, 58, 0
11, 11616, Note_on_c, 3, 57, 88
11, 11654, Note_off_c, 3, 57, 0
11, 11662, Note_on_c, 3, 55, 90
11, 11785, Note_off_c, 3, 55, 0
11, 11805, Note_on_c, 3, 58, 90
11, 11871, Note_off_c, 3, 58, 0
11, 11880, Note_on_c, 3, 55, 88
11, 11906, Note_off_c, 3, 55, 0
11, 11906, Note_on_c, 3, 58, 91
11, 11942, Note_off_c, 3, 58, 0
11, 11950, Note_on_c, 3, 55, 91
11, 11990, Note_off_c, 3, 55, 0
11, 12143, Note_on_c, 3, 55, 88
11, 12262, Note_off_c, 3, 55, 0
11, 12288, Note_on_c, 3, 55, 93
11, 12326, Note_off_c, 3, 55, 0
11, 12333, Note_on_c, 3, 55, 89
11, 12375, Note_off_c, 3, 55, 0
11, 12577, Note_on_c, 3, 58, 91
11, 12639, Note_off_c, 3, 58, 0
11, 12646, Note_on_c, 3, 55, 92
11, 12670, Note_off_c, 3, 55, 0
11, 12671, Note_on_c, 3, 54, 90
11, 12675, Note_on_c, 3, 58, 89
11, 12709, Note_off_c, 3, 54, 0
11, 12710, Note_off_c, 3, 58, 0
11, 12718, Note_on_c, 3, 55, 90
11, 12722, Note_on_c, 3, 59, 90
11, 12757, Note_off_c, 3, 55, 0
11, 12758, Note_off_c, 3, 59, 0
11, 12909, Note_on_c, 3, 55, 91
11, 13029, Note_off_c, 3, 55, 0
11, 13054, Note_on_c, 3, 52, 89
11, 13061, Note_on_c, 3, 55, 88
11, 13097, Note_off_c, 3, 52, 0
11, 13098, Note_off_c, 3, 55, 0
11, 13104, Note_on_c, 3, 52, 91
11, 13106, Note_on_c, 3, 55, 89
11, 13142, Note_off_c, 3, 52, 0
11, 13143, Note_off_c, 3, 55, 0
11, 13342, Note_on_c, 3, 58, 91
11, 13406, Note_off_c, 3, 58, 0
11, 13414, Note_on_c, 3, 55, 92
11, 13437, Note_off_c, 3, 55, 0
11, 13438, Note_on_c, 3, 54, 89
11, 13441, Note_on_c, 3, 57, 88
11, 13477, Note_off_c, 3, 54, 0
11, 13479, Note_off_c, 3, 57, 0
11, 13486, Note_on_c, 3, 55, 92
11, 13487, Note_on_c, 3, 58, 90
11, 13525, Note_off_c, 3, 55, 0
11, 13526, Note_off_c, 3, 58, 0
11, 13680, Note_on_c, 3, 55, 92
11, 13800, Note_off_c, 3, 55, 0
11, 13821, Note_on_c, 3, 52, 91
11, 13824, Note_on_c, 3, 55, 90
11, 13863, Note_off_c, 3, 52, 0
11, 13864, Note_off_c, 3, 55, 0
11, 13871, Note_on_c, 3, 52, 90
11, 13874, Note_on_c, 3, 55, 88
11, 13913, Note_off_c, 3, 52, 0
11, 13913, Note_off_c, 3, 55, 0
11, 14110, Note_on_c, 3, 58, 90
11, 14174, Note_off_c, 3, 58, 0
11, 14181, Note_on_c, 3, 55, 91
11, 14205, Note_off_c, 3, 55, 0
11, 14208, Note_on_c, 3, 54, 91
11, 14212, Note_on_c, 3, 58, 92
11, 14246, Note_off_c, 3, 54, 0
11, 14247, Note_off_c, 3, 58, 0
11, 14254, Note_on_c, 3, 55, 88
11, 14257, Note_on_c, 3, 59, 89
11, 14296, Note_off_c, 3, 55, 0
11, 14297, Note_off_c, 3, 59, 0
11, 14446, Note_on_c, 3, 55, 89
11, 14566, Note_off_c, 3, 55, 0
11, 14591, Note_on_c, 3, 52, 92
11, 14593, Note_on_c, 3, 55, 88
11, 14629, Note_off_c, 3, 52, 0
11, 14630, Note_off_c, 3, 55, 0
11, 14638, Note_on_c, 3, 52, 90
11, 14641, Note_on_c, 3, 55, 89
11, 14678, Note_off_c, 3, 52, 0
11, 14680, Note_off_c, 3, 55, 0
11, 14878, Note_on_c, 3, 55, 91
11, 14941, Note_off_c, 3, 55, 0
11, 14949, Note_on_c, 3, 55, 91
11, 14974, Note_off_c, 3, 55, 0
11, 14975, Note_on_c, 3, 59, 88
11, 15016, Note_off_c, 3, 59, 0
11, 15022, Note_on_c, 3, 57, 92
11, 15062, Note_off_c, 3, 57, 0
11, 15213, Note_on_c, 3, 57, 88
11, 15336, Note_off_c, 3, 57, 0
11, 15357, Note_on_c, 3, 55, 90
11, 15400, Note_off_c, 3, 55, 0
11, 15406, Note_on_c, 3, 55, 89
11, 15445, Note_off_c, 3, 55, 0
11, 15720, Note_on_c, 3, 50, 93
11, 15741, Note_off_c, 3, 50, 0
11, 15742, Note_on_c, 3, 55, 88
11, 15821, Note_off_c, 3, 55, 0
11, 15839, Note_on_c, 3, 55, 89
11, 15902, Note_off_c, 3, 55, 0
11, 15909, Note_on_c, 3, 52, 91
11, 15934, Note_off_c, 3, 52, 0
11, 15935, Note_on_c, 3, 55, 88
11, 15977, Note_off_c, 3, 55, 0
11, 15984, Note_on_c, 3, 55, 92
11, 16064, Note_off_c, 3, 55, 0
11, 16078, Note_on_c, 3, 52, 89
11, 16121, Note_off_c, 3, 52, 0
11, 16129, Note_on_c, 3, 55, 90
11, 16209, Note_off_c, 3, 55, 0
11, 16223, Note_on_c, 3, 55, 91
11, 16302, Note_off_c, 3, 55, 0
11, 16317, Note_on_c, 3, 55, 91
11, 16357, Note_off_c, 3, 55, 0
11, 16365, Note_on_c, 3, 55, 88
11, 16405, Note_off_c, 3, 55, 0
11, 16413, Note_on_c, 3, 55, 91
11, 16454, Note_off_c, 3, 55, 0
11, 16461, Note_on_c, 3, 55, 90
11, 16504, Note_off_c, 3, 55, 0
11, 16511, Note_on_c, 3, 55, 91
11, 16514, Note_on_c, 3, 59, 90
11, 16662, Note_off_c, 3, 55, 0
11, 16663, Note_off_c, 3, 59, 0
11, 16750, Note_on_c, 3, 55, 88
11, 16792, Note_off_c, 3, 55, 0
11, 16800, Note_on_c, 3, 55, 88
11, 16880, Note_off_c, 3, 55, 0
11, 16896, Note_on_c, 3, 50, 88
11, 16898, Note_on_c, 3, 55, 89
11, 16957, Note_off_c, 3, 50, 0
11, 16958, Note_off_c, 3, 55, 0
11, 16965, Note_on_c, 3, 50, 91
11, 16968, Note_on_c, 3, 55, 88
11, 16990, Note_off_c, 3, 50, 0
11, 16994, Note_off_c, 3, 55, 0
11, 17232, Note_on_c, 3, 55, 90
11, 17270, Note_off_c, 3, 55, 0
11, 17277, Note_on_c, 3, 59, 91
11, 17358, Note_off_c, 3, 59, 0
11, 17377, Note_on_c, 3, 59, 91
11, 17453, Note_off_c, 3, 59, 0
11, 17471, Note_on_c, 3, 55, 88
11, 17552, Note_off_c, 3, 55, 0
11, 17565, Note_on_c, 3, 52, 90
11, 17648, Note_off_c, 3, 52, 0
11, 17661, Note_on_c, 3, 55, 88
11, 17726, Note_off_c, 3, 55, 0
11, 17734, Note_on_c, 3, 55, 92
11, 17758, Note_off_c, 3, 55, 0
11, 17904, Note_on_c, 3, 59, 90
11, 17942, Note_off_c, 3, 59, 0
11, 17949, Note_on_c, 3, 59, 91
11, 17992, Note_off_c, 3, 59, 0
11, 17998, Note_on_c, 3, 59, 91
11, 18041, Note_off_c, 3, 59, 0
11, 18049, Note_on_c, 3, 58, 88
11, 18052, Note_on_c, 3, 62, 89
11, 18199, Note_off_c, 3, 58, 0
11, 18200, Note_off_c, 3, 62, 0
11, 18286, Note_on_c, 3, 55, 89
11, 18325, Note_off_c, 3, 55, 0
11, 18337, Note_on_c, 3, 55, 92
11, 18413, Note_off_c, 3, 55, 0
11, 18431, Note_on_c, 3, 55, 90
11, 18494, Note_off_c, 3, 55, 0
11, 18501, Note_on_c, 3, 55, 90
11, 18526, Note_off_c, 3, 55, 0
11, 18770, Note_on_c, 3, 55, 90
11, 18807, Note_off_c, 3, 55, 0
11, 18814, Note_on_c, 3, 59, 88
11, 18895, Note_off_c, 3, 59, 0
11, 18909, Note_on_c, 3, 59, 88
11, 18990, Note_off_c, 3, 59, 0
11, 19009, Note_on_c, 3, 55, 89
11, 19088, Note_off_c, 3, 55, 0
11, 19103, Note_on_c, 3, 52, 89
11, 19182, Note_off_c, 3, 52, 0
11, 19197, Note_on_c, 3, 55, 91
11, 19261, Note_off_c, 3, 55, 0
11, 19269, Note_on_c, 3, 55, 91
11, 19293, Note_off_c, 3, 55, 0
11, 19486, Note_on_c, 3, 55, 92
11, 19549, Note_off_c, 3, 55, 0
11, 19560, Note_on_c, 3, 55, 89
11, 19587, Note_off_c, 3, 55, 0
11, 19588, Note_on_c, 3, 55, 92
11, 19661, Note_off_c, 3, 55, 0
11, 19680, Note_on_c, 3, 52, 90
11, 19760, Note_off_c, 3, 52, 0
11, 19774, Note_on_c, 3, 55, 88
11, 19837, Note_off_c, 3, 55, 0
11, 19848, Note_on_c, 3, 55, 89
11, 19869, Note_off_c, 3, 55, 0
11, 19965, Note_on_c, 3, 55, 88
11, 20049, Note_off_c, 3, 55, 0
11, 20062, Note_on_c, 3, 52, 88
11, 20144, Note_off_c, 3, 52, 0
11, 20157, Note_on_c, 3, 55, 89
11, 20238, Note_off_c, 3, 55, 0
11, 20301, Note_on_c, 3, 52, 92
11, 20344, Note_off_c, 3, 52, 0
11, 20351, Note_on_c, 3, 58, 90
11, 20414, Note_off_c, 3, 58, 0
11, 20422, Note_on_c, 3, 58, 92
11, 20446, Note_off_c, 3, 58, 0
11, 20446, Note_on_c, 3, 57, 89
11, 20509, Note_off_c, 3, 57, 0
11, 20520, Note_on_c, 3, 57, 88
11, 20543, Note_off_c, 3, 57, 0
11, 20544, Note_on_c, 3, 55, 92
11, 20607, Note_off_c, 3, 55, 0
11, 20614, Note_on_c, 3, 55, 89
11, 20639, Note_off_c, 3, 55, 0
11, 20640, Note_on_c, 3, 57, 91
11, 20717, Note_off_c, 3, 57, 0
11, 20734, Note_on_c, 3, 58, 88
11, 20816, Note_off_c, 3, 58, 0
11, 20829, Note_on_c, 3, 57, 88
11, 20872, Note_off_c, 3, 57, 0
11, 20879, Note_on_c, 3, 55, 92
11, 20998, Note_off_c, 3, 55, 0
11, 21022, Note_on_c, 3, 58, 92
11, 21086, Note_off_c, 3, 58, 0
11, 21097, Note_on_c, 3, 55, 89
11, 21117, Note_off_c, 3, 55, 0
11, 21118, Note_on_c, 3, 58, 92
11, 21160, Note_off_c, 3, 58, 0
11, 21167, Note_on_c, 3, 55, 89
11, 21205, Note_off_c, 3, 55, 0
11, 21358, Note_on_c, 3, 55, 90
11, 21480, Note_off_c, 3, 55, 0
11, 21506, Note_on_c, 3, 55, 92
11, 21543, Note_off_c, 3, 55, 0
11, 21550, Note_on_c, 3, 55, 88
11, 21592, Note_off_c, 3, 55, 0
11, 21789, Note_on_c, 3, 58, 91
11, 21856, Note_off_c, 3, 58, 0
11, 21864, Note_on_c, 3, 55, 89
11, 21892, Note_off_c, 3, 55, 0
11, 21893, Note_on_c, 3, 54, 91
11, 21896, Note_on_c, 3, 58, 91
11, 21927, Note_off_c, 3, 54, 0
11, 21928, Note_off_c, 3, 58, 0
11, 21935, Note_on_c, 3, 55, 91
11, 21938, Note_on_c, 3, 59, 91
11, 21976, Note_off_c, 3, 55, 0
11, 21977, Note_off_c, 3, 59, 0
11, 22125, Note_on_c, 3, 55, 90
11, 22246, Note_off_c, 3, 55, 0
11, 22271, Note_on_c, 3, 52, 90
11, 22278, Note_on_c, 3, 55, 91
11, 22309, Note_off_c, 3, 52, 0
11, 22310, Note_off_c, 3, 55, 0
11, 22323, Note_on_c, 3, 52, 90
11, 22325, Note_on_c, 3, 55, 89
11, 22359, Note_off_c, 3, 52, 0
11, 22360, Note_off_c, 3, 55, 0
11, 22561, Note_on_c, 3, 58, 88
11, 22622, Note_off_c, 3, 58, 0
11, 22629, Note_on_c, 3, 55, 89
11, 22654, Note_off_c, 3, 55, 0
11, 22655, Note_on_c, 3, 54, 92
11, 22658, Note_on_c, 3, 57, 89
11, 22695, Note_off_c, 3, 54, 0
11, 22696, Note_off_c, 3, 57, 0
11, 22704, Note_on_c, 3, 55, 92
11, 22707, Note_on_c, 3, 58, 91
11, 22743, Note_off_c, 3, 55, 0
11, 22744, Note_off_c, 3, 58, 0
11, 22893, Note_on_c, 3, 55, 88
11, 23017, Note_off_c, 3, 55, 0
11, 23037, Note_on_c, 3, 52, 90
11, 23045, Note_on_c, 3, 55, 88
11, 23080, Note_off_c, 3, 52, 0
11, 23081, Note_off_c, 3, 55, 0
11, 23092, Note_on_c, 3, 52, 92
11, 23094, Note_on_c, 3, 55, 88
11, 23125, Note_off_c, 3, 52, 0
11, 23126, Note_off_c, 3, 55, 0
11, 23326, Note_on_c, 3, 58, 90
11, 23389, Note_off_c, 3, 58, 0
11, 23400, Note_on_c, 3, 55, 92
11, 23428, Note_off_c, 3, 55, 0
11, 23429, Note_on_c, 3, 54, 91
11, 23432, Note_on_c, 3, 58, 92
11, 23463, Note_off_c, 3, 54, 0
11, 23464, Note_off_c, 3, 58, 0
11, 23471, Note_on_c, 3, 55, 89
11, 23474, Note_on_c, 3, 59, 88
11, 23510, Note_off_c, 3, 55, 0
11, 23512, Note_off_c, 3, 59, 0
11, 23664, Note_on_c, 3, 55, 92
11, 23783, Note_off_c, 3, 55, 0
11, 23811, Note_on_c, 3, 52, 91
11, 23815, Note_on_c, 3, 55, 88
11, 23846, Note_off_c, 3, 52, 0
11, 23847, Note_off_c, 3, 55, 0
11, 23855, Note_on_c, 3, 52, 91
11, 23860, Note_on_c, 3, 55, 88
11, 23896, Note_off_c, 3, 52, 0
11, 23899, Note_off_c, 3, 55, 0
11, 24093, Note_on_c, 3, 55, 91
11, 24159, Note_off_c, 3, 55, 0
11, 24167, Note_on_c, 3, 55, 88
11, 24192, Note_off_c, 3, 55, 0
11, 24192, Note_on_c, 3, 59, 88
11, 24230, Note_off_c, 3, 59, 0
11, 24238, Note_on_c, 3, 57, 90
11, 24278, Note_off_c, 3, 57, 0
11, 24430, Note_on_c, 3, 57, 91
11, 24550, Note_off_c, 3, 57, 0
11, 24574, Note_on_c, 3, 55, 92
11, 24617, Note_off_c, 3, 55, 0
11, 24623, Note_on_c, 3, 55, 90
11, 24662, Note_off_c, 3, 55, 0
11, 24933, Note_on_c, 3, 50, 91
11, 24958, Note_off_c, 3, 50, 0
11, 24958, Note_on_c, 3, 55, 88
11, 25037, Note_off_c, 3, 55, 0
11, 25053, Note_on_c, 3, 55, 88
11, 25120, Note_off_c, 3, 55, 0
11, 25126, Note_on_c, 3, 52, 91
11, 25151, Note_off_c, 3, 52, 0
11, 25152, Note_on_c, 3, 55, 89
11, 25189, Note_off_c, 3, 55, 0
11, 25201, Note_on_c, 3, 55, 92
11, 25277, Note_off_c, 3, 55, 0
11, 25296, Note_on_c, 3, 52, 90
11, 25334, Note_off_c, 3, 52, 0
11, 25346, Note_on_c, 3, 55, 90
11, 25422, Note_off_c, 3, 55, 0
11, 25441, Note_on_c, 3, 55, 90
11, 25521, Note_off_c, 3, 55, 0
11, 25535, Note_on_c, 3, 55, 88
11, 25573, Note_off_c, 3, 55, 0
11, 25584, Note_on_c, 3, 55, 92
11, 25622, Note_off_c, 3, 55, 0
11, 25630, Note_on_c, 3, 55, 91
11, 25670, Note_off_c, 3, 55, 0
11, 25678, Note_on_c, 3, 55, 88
11, 25717, Note_off_c, 3, 55, 0
11, 25725, Note_on_c, 3, 55, 92
11, 25732, Note_on_c, 3, 59, 91
11, 25879, Note_off_c, 3, 55, 0
11, 25880, Note_off_c, 3, 59, 0
11, 26017, Note_on_c, 3, 55, 89
11, 26093, Note_off_c, 3, 55, 0
11, 26111, Note_on_c, 3, 50, 88
11, 26115, Note_on_c, 3, 55, 88
11, 26193, Note_off_c, 3, 50, 0
11, 26194, Note_off_c, 3, 55, 0
11, 26493, Note_on_c, 3, 59, 88
11, 26576, Note_off_c, 3, 59, 0
11, 26589, Note_on_c, 3, 59, 92
11, 26656, Note_off_c, 3, 59, 0
11, 26663, Note_on_c, 3, 59, 90
11, 26691, Note_off_c, 3, 59, 0
11, 26691, Note_on_c, 3, 55, 90
11, 26765, Note_off_c, 3, 55, 0
11, 26784, Note_on_c, 3, 52, 89
11, 26821, Note_off_c, 3, 52, 0
11, 26832, Note_on_c, 3, 55, 90
11, 27029, Note_off_c, 3, 55, 0
11, 27118, Note_on_c, 3, 59, 89
11, 27158, Note_off_c, 3, 59, 0
11, 27166, Note_on_c, 3, 59, 89
11, 27205, Note_off_c, 3, 59, 0
11, 27213, Note_on_c, 3, 59, 90
11, 27254, Note_off_c, 3, 59, 0
11, 27262, Note_on_c, 3, 58, 92
11, 27269, Note_on_c, 3, 62, 89
11, 27416, Note_off_c, 3, 58, 0
11, 27417, Note_off_c, 3, 62, 0
11, 27549, Note_on_c, 3, 55, 89
11, 27630, Note_off_c, 3, 55, 0
11, 27645, Note_on_c, 3, 55, 92
11, 27799, Note_off_c, 3, 55, 0
11, 27982, Note_on_c, 3, 55, 92
11, 28024, Note_off_c, 3, 55, 0
11, 28030, Note_on_c, 3, 59, 91
11, 28113, Note_off_c, 3, 59, 0
11, 28126, Note_on_c, 3, 59, 88
11, 28207, Note_off_c, 3, 59, 0
11, 28226, Note_on_c, 3, 55, 92
11, 28302, Note_off_c, 3, 55, 0
11, 28320, Note_on_c, 3, 52, 90
11, 28358, Note_off_c, 3, 52, 0
11, 28365, Note_on_c, 3, 55, 89
11, 28566, Note_off_c, 3, 55, 0
11, 28797, Note_on_c, 3, 55, 89
11, 28878, Note_off_c, 3, 55, 0
11, 28896, Note_on_c, 3, 55, 90
11, 28960, Note_off_c, 3, 55, 0
11, 28967, Note_on_c, 3, 52, 90
11, 28992, Note_off_c, 3, 52, 0
11, 28993, Note_on_c, 3, 55, 89
11, 29054, Note_off_c, 3, 55, 0
11, 29061, Note_on_c, 3, 55, 90
11, 29086, Note_off_c, 3, 55, 0
11, 29136, Note_on_c, 3, 50, 88
11, 29174, Note_off_c, 3, 50, 0
11, 29181, Note_on_c, 3, 55, 91
11, 29262, Note_off_c, 3, 55, 0
11, 29279, Note_on_c, 3, 55, 89
11, 29341, Note_off_c, 3, 55, 0
11, 29350, Note_on_c, 3, 52, 88
11, 29373, Note_off_c, 3, 52, 0
11, 29374, Note_on_c, 3, 55, 91
11, 29456, Note_off_c, 3, 55, 0
11, 29469, Note_on_c, 3, 52, 92
11, 29537, Note_off_c, 3, 52, 0
11, 29544, Note_on_c, 3, 52, 90
11, 29571, Note_off_c, 3, 52, 0
11, 29572, Note_on_c, 3, 58, 92
11, 29645, Note_off_c, 3, 58, 0
11, 29663, Note_on_c, 3, 57, 91
11, 29726, Note_off_c, 3, 57, 0
11, 29733, Note_on_c, 3, 57, 92
11, 29758, Note_off_c, 3, 57, 0
11, 29759, Note_on_c, 3, 55, 92
11, 29821, Note_off_c, 3, 55, 0
11, 29832, Note_on_c, 3, 55, 90
11, 29857, Note_off_c, 3, 55, 0
11, 29858, Note_on_c, 3, 57, 89
11, 29933, Note_off_c, 3, 57, 0
11, 29952, Note_on_c, 3, 58, 91
11, 30030, Note_off_c, 3, 58, 0
11, 30046, Note_on_c, 3, 57, 90
11, 30109, Note_off_c, 3, 57, 0
11, 30120, Note_on_c, 3, 57, 89
11, 30141, Note_off_c, 3, 57, 0
11, 30142, Note_on_c, 3, 55, 90
11, 30222, Note_off_c, 3, 55, 0
11, 30240, Note_on_c, 3, 58, 92
11, 30303, Note_off_c, 3, 58, 0
11, 30310, Note_on_c, 3, 55, 92
11, 30334, Note_off_c, 3, 55, 0
11, 30335, Note_on_c, 3, 58, 88
11, 30373, Note_off_c, 3, 58, 0
11, 30384, Note_on_c, 3, 55, 93
11, 30422, Note_off_c, 3, 55, 0
11, 30574, Note_on_c, 3, 55, 92
11, 30693, Note_off_c, 3, 55, 0
11, 30718, Note_on_c, 3, 55, 90
11, 30758, Note_off_c, 3, 55, 0
11, 30766, Note_on_c, 3, 55, 90
11, 30805, Note_off_c, 3, 55, 0
11, 31006, Note_on_c, 3, 58, 90
11, 31069, Note_off_c, 3, 58, 0
11, 31081, Note_on_c, 3, 55, 91
11, 31101, Note_off_c, 3, 55, 0
11, 31102, Note_on_c, 3, 54, 88
11, 31104, Note_on_c, 3, 58, 92
11, 31144, Note_off_c, 3, 54, 0
11, 31145, Note_off_c, 3, 58, 0
11, 31152, Note_on_c, 3, 55, 90
11, 31156, Note_on_c, 3, 59, 92
11, 31194, Note_off_c, 3, 55, 0
11, 31194, Note_off_c, 3, 59, 0
11, 31344, Note_on_c, 3, 55, 92
11, 31462, Note_off_c, 3, 55, 0
11, 31486, Note_on_c, 3, 52, 89
11, 31493, Note_on_c, 3, 55, 88
11, 31525, Note_off_c, 3, 52, 0
11, 31526, Note_off_c, 3, 55, 0
11, 31534, Note_on_c, 3, 52, 92
11, 31536, Note_on_c, 3, 55, 89
11, 31576, Note_off_c, 3, 52, 0
11, 31577, Note_off_c, 3, 55, 0
11, 31778, Note_on_c, 3, 58, 91
11, 31840, Note_off_c, 3, 58, 0
11, 31846, Note_on_c, 3, 55, 91
11, 31875, Note_off_c, 3, 55, 0
11, 31876, Note_on_c, 3, 54, 92
11, 31879, Note_on_c, 3, 57, 92
11, 31910, Note_off_c, 3, 54, 0
11, 31911, Note_off_c, 3, 57, 0
11, 31922, Note_on_c, 3, 55, 88
11, 31925, Note_on_c, 3, 58, 89
11, 31960, Note_off_c, 3, 55, 0
11, 31961, Note_off_c, 3, 58, 0
11, 32110, Note_on_c, 3, 55, 89
11, 32230, Note_off_c, 3, 55, 0
11, 32253, Note_on_c, 3, 52, 88
11, 32255, Note_on_c, 3, 55, 92
11, 32293, Note_off_c, 3, 52, 0
11, 32294, Note_off_c, 3, 55, 0
11, 32301, Note_on_c, 3, 52, 89
11, 32304, Note_on_c, 3, 55, 89
11, 32343, Note_off_c, 3, 52, 0
11, 32343, Note_off_c, 3, 55, 0
11, 32543, Note_on_c, 3, 58, 90
11, 32606, Note_off_c, 3, 58, 0
11, 32613, Note_on_c, 3, 55, 92
11, 32638, Note_off_c, 3, 55, 0
11, 32638, Note_on_c, 3, 54, 91
11, 32641, Note_on_c, 3, 58, 90
11, 32681, Note_off_c, 3, 54, 0
11, 32682, Note_off_c, 3, 58, 0
11, 32688, Note_on_c, 3, 55, 90
11, 32691, Note_on_c, 3, 59, 90
11, 32726, Note_off_c, 3, 55, 0
11, 32727, Note_off_c, 3, 59, 0
11, 32878, Note_on_c, 3, 55, 92
11, 32997, Note_off_c, 3, 55, 0
11, 33021, Note_on_c, 3, 52, 92
11, 33028, Note_on_c, 3, 55, 89
11, 33064, Note_off_c, 3, 52, 0
11, 33065, Note_off_c, 3, 55, 0
11, 33071, Note_on_c, 3, 52, 89
11, 33074, Note_on_c, 3, 55, 92
11, 33109, Note_off_c, 3, 52, 0
11, 33110, Note_off_c, 3, 55, 0
11, 33309, Note_on_c, 3, 55, 89
11, 33377, Note_off_c, 3, 55, 0
11, 33384, Note_on_c, 3, 55, 92
11, 33405, Note_off_c, 3, 55, 0
11, 33406, Note_on_c, 3, 59, 88
11, 33447, Note_off_c, 3, 59, 0
11, 33453, Note_on_c, 3, 57, 89
11, 33496, Note_off_c, 3, 57, 0
11, 33646, Note_on_c, 3, 57, 91
11, 33767, Note_off_c, 3, 57, 0
11, 33793, Note_on_c, 3, 55, 89
11, 33830, Note_off_c, 3, 55, 0
11, 33841, Note_on_c, 3, 55, 89
11, 33879, Note_off_c, 3, 55, 0
11, 34150, Note_on_c, 3, 50, 88
11, 34175, Note_off_c, 3, 50, 0
11, 34176, Note_on_c, 3, 55, 91
11, 34256, Note_off_c, 3, 55, 0
11, 34269, Note_on_c, 3, 55, 89
11, 34334, Note_off_c, 3, 55, 0
11, 34342, Note_on_c, 3, 52, 90
11, 34366, Note_off_c, 3, 52, 0
11, 34367, Note_on_c, 3, 55, 90
11, 34406, Note_off_c, 3, 55, 0
11, 34414, Note_on_c, 3, 55, 89
11, 34494, Note_off_c, 3, 55, 0
11, 34513, Note_on_c, 3, 52, 88
11, 34551, Note_off_c, 3, 52, 0
11, 34558, Note_on_c, 3, 55, 90
11, 34639, Note_off_c, 3, 55, 0
11, 34658, Note_on_c, 3, 55, 91
11, 34733, Note_off_c, 3, 55, 0
11, 34754, Note_on_c, 3, 55, 88
11, 34833, Note_off_c, 3, 55, 0
11, 34846, Note_on_c, 3, 55, 89
11, 34909, Note_off_c, 3, 55, 0
11, 34917, Note_on_c, 3, 55, 91
11, 34941, Note_off_c, 3, 55, 0
11, 34942, Note_on_c, 3, 55, 88
11, 34945, Note_on_c, 3, 59, 89
11, 35094, Note_off_c, 3, 55, 0
11, 35095, Note_off_c, 3, 59, 0
11, 35230, Note_on_c, 3, 55, 89
11, 35310, Note_off_c, 3, 55, 0
11, 35328, Note_on_c, 3, 50, 91
11, 35334, Note_on_c, 3, 55, 90
11, 35405, Note_off_c, 3, 50, 0
11, 35406, Note_off_c, 3, 55, 0
11, 35662, Note_on_c, 3, 55, 89
11, 35703, Note_off_c, 3, 55, 0
11, 35709, Note_on_c, 3, 59, 91
11, 35790, Note_off_c, 3, 59, 0
11, 35806, Note_on_c, 3, 59, 88
11, 35885, Note_off_c, 3, 59, 0
11, 35901, Note_on_c, 3, 55, 91
11, 35982, Note_off_c, 3, 55, 0
11, 36001, Note_on_c, 3, 52, 90
11, 36038, Note_off_c, 3, 52, 0
11, 36045, Note_on_c, 3, 55, 92
11, 36246, Note_off_c, 3, 55, 0
11, 36334, Note_on_c, 3, 59, 90
11, 36376, Note_off_c, 3, 59, 0
11, 36384, Note_on_c, 3, 59, 89
11, 36422, Note_off_c, 3, 59, 0
11, 36433, Note_on_c, 3, 59, 89
11, 36471, Note_off_c, 3, 59, 0
11, 36478, Note_on_c, 3, 58, 90
11, 36485, Note_on_c, 3, 62, 90
11, 36629, Note_off_c, 3, 58, 0
11, 36630, Note_off_c, 3, 62, 0
11, 36766, Note_on_c, 3, 55, 88
11, 36848, Note_off_c, 3, 55, 0
11, 36861, Note_on_c, 3, 55, 92
11, 37016, Note_off_c, 3, 55, 0
11, 37150, Note_on_c, 3, 55, 90
11, 37191, Note_off_c, 3, 55, 0
11, 37199, Note_on_c, 3, 55, 92
11, 37237, Note_off_c, 3, 55, 0
11, 37246, Note_on_c, 3, 59, 92
11, 37325, Note_off_c, 3, 59, 0
11, 37344, Note_on_c, 3, 59, 91
11, 37424, Note_off_c, 3, 59, 0
11, 37438, Note_on_c, 3, 55, 88
11, 37519, Note_off_c, 3, 55, 0
11, 37538, Note_on_c, 3, 52, 92
11, 37576, Note_off_c, 3, 52, 0
11, 37582, Note_on_c, 3, 55, 89
11, 37783, Note_off_c, 3, 55, 0
11, 37966, Note_on_c, 3, 55, 92
11, 38005, Note_off_c, 3, 55, 0
11, 38014, Note_on_c, 3, 55, 88
11, 38096, Note_off_c, 3, 55, 0
11, 38109, Note_on_c, 3, 52, 89
11, 38190, Note_off_c, 3, 52, 0
11, 38209, Note_on_c, 3, 55, 92
11, 38272, Note_off_c, 3, 55, 0
11, 38278, Note_on_c, 3, 55, 89
11, 38303, Note_off_c, 3, 55, 0
11, 38353, Note_on_c, 3, 50, 89
11, 38391, Note_off_c, 3, 50, 0
11, 38399, Note_on_c, 3, 55, 91
11, 38480, Note_off_c, 3, 55, 0
11, 38493, Note_on_c, 3, 52, 91
11, 38574, Note_off_c, 3, 52, 0
11, 38592, Note_on_c, 3, 55, 90
11, 38670, Note_off_c, 3, 55, 0
11, 38733, Note_on_c, 3, 52, 88
11, 38773, Note_off_c, 3, 52, 0
11, 38781, Note_on_c, 3, 58, 92
11, 38848, Note_off_c, 3, 58, 0
11, 38856, Note_on_c, 3, 58, 89
11, 38881, Note_off_c, 3, 58, 0
11, 38881, Note_on_c, 3, 57, 91
11, 38957, Note_off_c, 3, 57, 0
11, 38974, Note_on_c, 3, 55, 88
11, 39038, Note_off_c, 3, 55, 0
11, 39045, Note_on_c, 3, 55, 88
11, 39070, Note_off_c, 3, 55, 0
11, 39070, Note_on_c, 3, 57, 89
11, 39150, Note_off_c, 3, 57, 0
11, 39170, Note_on_c, 3, 58, 90
11, 39245, Note_off_c, 3, 58, 0
11, 39264, Note_on_c, 3, 57, 89
11, 39302, Note_off_c, 3, 57, 0
11, 39310, Note_on_c, 3, 55, 88
11, 39430, Note_off_c, 3, 55, 0
11, 39453, Note_on_c, 3, 58, 90
11, 39520, Note_off_c, 3, 58, 0
11, 39525, Note_on_c, 3, 55, 91
11, 39555, Note_off_c, 3, 55, 0
11, 39555, Note_on_c, 3, 58, 92
11, 39590, Note_off_c, 3, 58, 0
11, 39597, Note_on_c, 3, 55, 89
11, 39640, Note_off_c, 3, 55, 0
11, 39790, Note_on_c, 3, 55, 91
11, 39910, Note_off_c, 3, 55, 0
11, 39935, Note_on_c, 3, 55, 89
11, 39973, Note_off_c, 3, 55, 0
11, 39981, Note_on_c, 3, 55, 91
11, 40023, Note_off_c, 3, 55, 0
11, 40221, Note_on_c, 3, 58, 91
11, 40286, Note_off_c, 3, 58, 0
11, 40293, Note_on_c, 3, 55, 91
11, 40318, Note_off_c, 3, 55, 0
11, 40319, Note_on_c, 3, 54, 88
11, 40321, Note_on_c, 3, 58, 91
11, 40361, Note_off_c, 3, 54, 0
11, 40362, Note_off_c, 3, 58, 0
11, 40371, Note_on_c, 3, 55, 90
11, 40373, Note_on_c, 3, 59, 91
11, 40406, Note_off_c, 3, 55, 0
11, 40407, Note_off_c, 3, 59, 0
11, 40557, Note_on_c, 3, 55, 88
11, 40681, Note_off_c, 3, 55, 0
11, 40701, Note_on_c, 3, 52, 92
11, 40708, Note_on_c, 3, 55, 91
11, 40744, Note_off_c, 3, 52, 0
11, 40745, Note_off_c, 3, 55, 0
11, 40752, Note_on_c, 3, 52, 88
11, 40755, Note_on_c, 3, 55, 91
11, 40790, Note_off_c, 3, 52, 0
11, 40790, Note_off_c, 3, 55, 0
11, 40989, Note_on_c, 3, 58, 88
11, 41053, Note_off_c, 3, 58, 0
11, 41064, Note_on_c, 3, 55, 89
11, 41091, Note_off_c, 3, 55, 0
11, 41091, Note_on_c, 3, 54, 89
11, 41094, Note_on_c, 3, 57, 89
11, 41127, Note_off_c, 3, 54, 0
11, 41128, Note_off_c, 3, 57, 0
11, 41135, Note_on_c, 3, 55, 91
11, 41137, Note_on_c, 3, 58, 90
11, 41177, Note_off_c, 3, 55, 0
11, 41178, Note_off_c, 3, 58, 0
11, 41328, Note_on_c, 3, 55, 92
11, 41447, Note_off_c, 3, 55, 0
11, 41475, Note_on_c, 3, 52, 89
11, 41479, Note_on_c, 3, 55, 88
11, 41510, Note_off_c, 3, 52, 0
11, 41511, Note_off_c, 3, 55, 0
11, 41518, Note_on_c, 3, 52, 90
11, 41522, Note_on_c, 3, 55, 91
11, 41559, Note_off_c, 3, 52, 0
11, 41560, Note_off_c, 3, 55, 0
11, 41757, Note_on_c, 3, 58, 91
11, 41823, Note_off_c, 3, 58, 0
11, 41830, Note_on_c, 3, 55, 91
11, 41855, Note_off_c, 3, 55, 0
11, 41856, Note_on_c, 3, 54, 88
11, 41859, Note_on_c, 3, 58, 91
11, 41893, Note_off_c, 3, 54, 0
11, 41894, Note_off_c, 3, 58, 0
11, 41901, Note_on_c, 3, 55, 90
11, 41904, Note_on_c, 3, 59, 89
11, 41943, Note_off_c, 3, 55, 0
11, 41943, Note_off_c, 3, 59, 0
11, 42094, Note_on_c, 3, 55, 91
11, 42213, Note_off_c, 3, 55, 0
11, 42238, Note_on_c, 3, 52, 88
11, 42241, Note_on_c, 3, 55, 89
11, 42278, Note_off_c, 3, 52, 0
11, 42282, Note_off_c, 3, 55, 0
11, 42288, Note_on_c, 3, 52, 92
11, 42290, Note_on_c, 3, 55, 88
11, 42326, Note_off_c, 3, 52, 0
11, 42327, Note_off_c, 3, 55, 0
11, 42527, Note_on_c, 3, 55, 89
11, 42590, Note_off_c, 3, 55, 0
11, 42601, Note_on_c, 3, 55, 92
11, 42621, Note_off_c, 3, 55, 0
11, 42622, Note_on_c, 3, 59, 89
11, 42664, Note_off_c, 3, 59, 0
11, 42671, Note_on_c, 3, 57, 91
11, 42709, Note_off_c, 3, 57, 0
11, 42861, Note_on_c, 3, 57, 89
11, 42983, Note_off_c, 3, 57, 0
11, 43006, Note_on_c, 3, 55, 90
11, 43045, Note_off_c, 3, 55, 0
11, 43054, Note_on_c, 3, 55, 91
11, 43093, Note_off_c, 3, 55, 0
11, 43367, Note_on_c, 3, 50, 89
11, 43393, Note_off_c, 3, 50, 0
11, 43394, Note_on_c, 3, 55, 89
11, 43473, Note_off_c, 3, 55, 0
11, 43486, Note_on_c, 3, 55, 91
11, 43550, Note_off_c, 3, 55, 0
11, 43561, Note_on_c, 3, 52, 92
11, 43581, Note_off_c, 3, 52, 0
11, 43582, Note_on_c, 3, 55, 89
11, 43624, Note_off_c, 3, 55, 0
11, 43632, Note_on_c, 3, 55, 91
11, 43711, Note_off_c, 3, 55, 0
11, 43726, Note_on_c, 3, 52, 89
11, 43766, Note_off_c, 3, 52, 0
11, 43774, Note_on_c, 3, 55, 88
11, 43857, Note_off_c, 3, 55, 0
11, 43870, Note_on_c, 3, 55, 90
11, 43951, Note_off_c, 3, 55, 0
11, 43970, Note_on_c, 3, 55, 90
11, 44046, Note_off_c, 3, 55, 0
11, 44064, Note_on_c, 3, 55, 89
11, 44126, Note_off_c, 3, 55, 0
11, 44134, Note_on_c, 3, 55, 88
11, 44158, Note_off_c, 3, 55, 0
11, 44159, Note_on_c, 3, 55, 88
11, 44162, Note_on_c, 3, 59, 88
11, 44310, Note_off_c, 3, 55, 0
11, 44311, Note_off_c, 3, 59, 0
11, 44446, Note_on_c, 3, 55, 90
11, 44525, Note_off_c, 3, 55, 0
11, 44541, Note_on_c, 3, 50, 92
11, 44549, Note_on_c, 3, 55, 89
11, 44622, Note_off_c, 3, 50, 0
11, 44623, Note_off_c, 3, 55, 0
11, 44879, Note_on_c, 3, 55, 91
11, 44918, Note_off_c, 3, 55, 0
11, 44932, Note_on_c, 3, 59, 90
11, 45006, Note_off_c, 3, 59, 0
11, 45025, Note_on_c, 3, 59, 90
11, 45103, Note_off_c, 3, 59, 0
11, 45118, Note_on_c, 3, 55, 88
11, 45199, Note_off_c, 3, 55, 0
11, 45213, Note_on_c, 3, 52, 90
11, 45253, Note_off_c, 3, 52, 0
11, 45261, Note_on_c, 3, 55, 90
11, 45463, Note_off_c, 3, 55, 0
11, 45552, Note_on_c, 3, 59, 91
11, 45590, Note_off_c, 3, 59, 0
11, 45601, Note_on_c, 3, 59, 91
11, 45639, Note_off_c, 3, 59, 0
11, 45646, Note_on_c, 3, 59, 91
11, 45688, Note_off_c, 3, 59, 0
11, 45695, Note_on_c, 3, 58, 88
11, 45698, Note_on_c, 3, 62, 91
11, 45846, Note_off_c, 3, 58, 0
11, 45847, Note_off_c, 3, 62, 0
11, 45981, Note_on_c, 3, 55, 88
11, 46065, Note_off_c, 3, 55, 0
11, 46078, Note_on_c, 3, 55, 90
11, 46229, Note_off_c, 3, 55, 0
11, 46413, Note_on_c, 3, 55, 90
11, 46454, Note_off_c, 3, 55, 0
11, 46462, Note_on_c, 3, 59, 89
11, 46543, Note_off_c, 3, 59, 0
11, 46561, Note_on_c, 3, 59, 89
11, 46637, Note_off_c, 3, 59, 0
11, 46654, Note_on_c, 3, 55, 88
11, 46736, Note_off_c, 3, 55, 0
11, 46750, Note_on_c, 3, 52, 92
11, 46793, Note_off_c, 3, 52, 0
11, 46799, Note_on_c, 3, 55, 90
11, 47000, Note_off_c, 3, 55, 0
11, 47182, Note_on_c, 3, 55, 90
11, 47221, Note_off_c, 3, 55, 0
11, 47233, Note_on_c, 3, 55, 92
11, 47309, Note_off_c, 3, 55, 0
11, 47326, Note_on_c, 3, 52, 92
11, 47405, Note_off_c, 3, 52, 0
11, 47421, Note_on_c, 3, 55, 90
11, 47489, Note_off_c, 3, 55, 0
11, 47496, Note_on_c, 3, 55, 91
11, 47521, Note_off_c, 3, 55, 0
11, 47522, Note_on_c, 3, 55, 92
11, 47584, Note_off_c, 3, 55, 0
11, 47590, Note_on_c, 3, 55, 91
11, 47615, Note_off_c, 3, 55, 0
11, 47616, Note_on_c, 3, 55, 92
11, 47697, Note_off_c, 3, 55, 0
11, 47710, Note_on_c, 3, 52, 89
11, 47791, Note_off_c, 3, 52, 0
11, 47809, Note_on_c, 3, 55, 90
11, 47886, Note_off_c, 3, 55, 0
11, 47904, Note_on_c, 3, 52, 90
11, 47967, Note_off_c, 3, 52, 0
11, 47974, Note_on_c, 3, 52, 88
11, 47999, Note_off_c, 3, 52, 0
11, 48000, Note_on_c, 3, 58, 93
11, 48062, Note_off_c, 3, 58, 0
11, 48070, Note_on_c, 3, 58, 90
11, 48093, Note_off_c, 3, 58, 0
11, 48094, Note_on_c, 3, 57, 88
11, 48157, Note_off_c, 3, 57, 0
11, 48165, Note_on_c, 3, 57, 90
11, 48193, Note_off_c, 3, 57, 0
11, 48194, Note_on_c, 3, 55, 88
11, 48255, Note_off_c, 3, 55, 0
11, 48262, Note_on_c, 3, 55, 91
11, 48287, Note_off_c, 3, 55, 0
11, 48287, Note_on_c, 3, 57, 89
11, 48368, Note_off_c, 3, 57, 0
11, 48381, Note_on_c, 3, 58, 90
11, 48463, Note_off_c, 3, 58, 0
11, 48480, Note_on_c, 3, 57, 91
11, 48519, Note_off_c, 3, 57, 0
11, 48526, Note_on_c, 3, 55, 88
11, 48645, Note_off_c, 3, 55, 0
11, 48670, Note_on_c, 3, 58, 91
11, 48733, Note_off_c, 3, 58, 0
11, 48741, Note_on_c, 3, 55, 92
11, 48766, Note_off_c, 3, 55, 0
11, 48768, Note_on_c, 3, 58, 92
11, 48807, Note_off_c, 3, 58, 0
11, 48814, Note_on_c, 3, 55, 91
11, 48853, Note_off_c, 3, 55, 0
11, 49008, Note_on_c, 3, 55, 91
11, 49127, Note_off_c, 3, 55, 0
11, 49154, Note_on_c, 3, 55, 92
11, 49190, Note_off_c, 3, 55, 0
11, 49197, Note_on_c, 3, 55, 90
11, 49240, Note_off_c, 3, 55, 0
11, 49440, Note_on_c, 3, 58, 92
11, 49503, Note_off_c, 3, 58, 0
11, 49510, Note_on_c, 3, 55, 91
11, 49534, Note_off_c, 3, 55, 0
11, 49535, Note_on_c, 3, 54, 88
11, 49538, Note_on_c, 3, 58, 88
11, 49573, Note_off_c, 3, 54, 0
11, 49575, Note_off_c, 3, 58, 0
11, 49582, Note_on_c, 3, 55, 88
11, 49584, Note_on_c, 3, 59, 91
11, 49623, Note_off_c, 3, 55, 0
11, 49624, Note_off_c, 3, 59, 0
11, 49774, Note_on_c, 3, 55, 91
11, 49894, Note_off_c, 3, 55, 0
11, 49919, Note_on_c, 3, 52, 90
11, 49921, Note_on_c, 3, 55, 88
11, 49957, Note_off_c, 3, 52, 0
11, 49958, Note_off_c, 3, 55, 0
11, 49968, Note_on_c, 3, 52, 90
11, 49971, Note_on_c, 3, 55, 91
11, 50006, Note_off_c, 3, 52, 0
11, 50010, Note_off_c, 3, 55, 0
11, 50207, Note_on_c, 3, 58, 92
11, 50246, Note_off_c, 3, 58, 0
11, 50254, Note_on_c, 3, 55, 90
11, 50294, Note_off_c, 3, 55, 0
11, 50302, Note_on_c, 3, 54, 92
11, 50305, Note_on_c, 3, 57, 93
11, 50344, Note_off_c, 3, 54, 0
11, 50345, Note_off_c, 3, 57, 0
11, 50352, Note_on_c, 3, 55, 88
11, 50354, Note_on_c, 3, 58, 89
11, 50389, Note_off_c, 3, 55, 0
11, 50390, Note_off_c, 3, 58, 0
11, 50546, Note_on_c, 3, 55, 92
11, 50664, Note_off_c, 3, 55, 0
11, 50692, Note_on_c, 3, 52, 90
11, 50696, Note_on_c, 3, 55, 90
11, 50729, Note_off_c, 3, 52, 0
11, 50730, Note_off_c, 3, 55, 0
11, 50736, Note_on_c, 3, 52, 92
11, 50739, Note_on_c, 3, 55, 89
11, 50777, Note_off_c, 3, 52, 0
11, 50778, Note_off_c, 3, 55, 0
11, 50973, Note_on_c, 3, 58, 89
11, 51037, Note_off_c, 3, 58, 0
11, 51045, Note_on_c, 3, 55, 88
11, 51069, Note_off_c, 3, 55, 0
11, 51070, Note_on_c, 3, 54, 89
11, 51073, Note_on_c, 3, 58, 91
11, 51111, Note_off_c, 3, 54, 0
11, 51112, Note_off_c, 3, 58, 0
11, 51119, Note_on_c, 3, 55, 88
11, 51121, Note_on_c, 3, 59, 88
11, 51160, Note_off_c, 3, 55, 0
11, 51161, Note_off_c, 3, 59, 0
11, 51311, Note_on_c, 3, 55, 92
11, 51430, Note_off_c, 3, 55, 0
11, 51458, Note_on_c, 3, 52, 89
11, 51460, Note_on_c, 3, 55, 89
11, 51494, Note_off_c, 3, 52, 0
11, 51494, Note_off_c, 3, 55, 0
11, 51506, Note_on_c, 3, 52, 89
11, 51509, Note_on_c, 3, 55, 91
11, 51543, Note_off_c, 3, 52, 0
11, 51544, Note_off_c, 3, 55, 0
11, 51741, Note_on_c, 3, 55, 91
11, 51807, Note_off_c, 3, 55, 0
11, 51814, Note_on_c, 3, 55, 90
11, 51838, Note_off_c, 3, 55, 0
11, 51839, Note_on_c, 3, 59, 89
11, 51877, Note_off_c, 3, 59, 0
11, 51888, Note_on_c, 3, 57, 88
11, 51926, Note_off_c, 3, 57, 0
11, 52077, Note_on_c, 3, 57, 92
11, 52197, Note_off_c, 3, 57, 0
11, 52222, Note_on_c, 3, 55, 92
11, 52264, Note_off_c, 3, 55, 0
11, 52272, Note_on_c, 3, 55, 90
11, 52310, Note_off_c, 3, 55, 0
11, 52585, Note_on_c, 3, 50, 89
11, 52605, Note_off_c, 3, 50, 0
11, 52606, Note_on_c, 3, 55, 90
11, 52686, Note_off_c, 3, 55, 0
11, 52704, Note_on_c, 3, 55, 89
11, 52767, Note_off_c, 3, 55, 0
11, 52774, Note_on_c, 3, 52, 91
11, 52798, Note_off_c, 3, 52, 0
11, 52799, Note_on_c, 3, 55, 90
11, 52837, Note_off_c, 3, 55, 0
11, 52848, Note_on_c, 3, 55, 91
11, 52925, Note_off_c, 3, 55, 0
11, 52943, Note_on_c, 3, 52, 92
11, 52981, Note_off_c, 3, 52, 0
11, 52993, Note_on_c, 3, 55, 98
11, 53069, Note_off_c, 3, 55, 0
11, 53087, Note_on_c, 3, 55, 100
11, 53166, Note_off_c, 3, 55, 0
11, 53181, Note_on_c, 3, 55, 96
11, 53337, Note_off_c, 3, 55, 0
11, 53337, End_track
12, 0, Start_track
12, 0, Text_t, "intro le"
12, 0, Channel_prefix, 4
12, 1152, Note_on_c, 4, 79, 88
12, 1232, Note_off_c, 4, 79, 0
12, 1246, Note_on_c, 4, 79, 89
12, 1309, Note_off_c, 4, 79, 0
12, 1317, Note_on_c, 4, 76, 89
12, 1341, Note_off_c, 4, 76, 0
12, 1342, Note_on_c, 4, 79, 89
12, 1383, Note_off_c, 4, 79, 0
12, 1390, Note_on_c, 4, 79, 92
12, 1469, Note_off_c, 4, 79, 0
12, 1485, Note_on_c, 4, 76, 92
12, 1527, Note_off_c, 4, 76, 0
12, 1535, Note_on_c, 4, 79, 91
12, 1615, Note_off_c, 4, 79, 0
12, 1629, Note_on_c, 4, 79, 89
12, 1710, Note_off_c, 4, 79, 0
12, 1728, Note_on_c, 4, 79, 90
12, 1847, Note_off_c, 4, 79, 0
12, 1847, End_track
13, 0, Start_track
13, 0, Text_t, "intro ri"
13, 0, Channel_prefix, 5
13, 1152, Note_on_c, 5, 79, 92
13, 1229, Note_off_c, 5, 79, 0
13, 1245, Note_on_c, 5, 79, 88
13, 1312, Note_off_c, 5, 79, 0
13, 1320, Note_on_c, 5, 76, 91
13, 1345, Note_off_c, 5, 76, 0
13, 1347, Note_on_c, 5, 79, 92
13, 1382, Note_off_c, 5, 79, 0
13, 1389, Note_on_c, 5, 79, 88
13, 1470, Note_off_c, 5, 79, 0
13, 1488, Note_on_c, 5, 76, 91
13, 1526, Note_off_c, 5, 76, 0
13, 1533, Note_on_c, 5, 79, 89
13, 1614, Note_off_c, 5, 79, 0
13, 1633, Note_on_c, 5, 79, 89
13, 1709, Note_off_c, 5, 79, 0
13, 1728, Note_on_c, 5, 79, 88
13, 1846, Note_off_c, 5, 79, 0
13, 1846, End_track
14, 0, Start_track
14, 0, Text_t, "guitar  "
14, 0, Channel_prefix, 6
14, 1152, Note_on_c, 6, 55, 68
14, 1152, Note_on_c, 6, 59, 59
14, 1154, Note_on_c, 6, 62, 59
14, 1455, Note_off_c, 6, 55, 0
14, 1456, Note_off_c, 6, 59, 0
14, 1457, Note_off_c, 6, 62, 0
14, 1537, Note_on_c, 6, 55, 65
14, 1539, Note_on_c, 6, 59, 57
14, 1541, Note_on_c, 6, 62, 56
14, 1614, Note_off_c, 6, 55, 0
14, 1614, Note_off_c, 6, 59, 0
14, 1615, Note_off_c, 6, 62, 0
14, 1632, Note_on_c, 6, 55, 67
14, 1634, Note_on_c, 6, 59, 58
14, 1637, Note_on_c, 6, 62, 60
14, 1711, Note_off_c, 6, 55, 0
14, 1712, Note_off_c, 6, 59, 0
14, 1713, Note_off_c, 6, 62, 0
14, 1726, Note_on_c, 6, 55, 67
14, 1728, Note_on_c, 6, 59, 56
14, 1731, Note_on_c, 6, 62, 60
14, 1806, Note_off_c, 6, 55, 0
14, 1807, Note_off_c, 6, 59, 0
14, 1807, Note_off_c, 6, 62, 0
14, 1920, Note_on_c, 6, 55, 68
14, 1922, Note_on_c, 6, 59, 59
14, 1924, Note_on_c, 6, 62, 59
14, 2222, Note_off_c, 6, 55, 0
14, 2223, Note_off_c, 6, 59, 0
14, 2223, Note_off_c, 6, 62, 0
14, 2304, Note_on_c, 6, 55, 68
14, 2306, Note_on_c, 6, 59, 60
14, 2308, Note_on_c, 6, 62, 57
14, 2384, Note_off_c, 6, 55, 0
14, 2384, Note_off_c, 6, 59, 0
14, 2385, Note_off_c, 6, 62, 0
14, 2398, Note_on_c, 6, 55, 68
14, 2400, Note_on_c, 6, 59, 60
14, 2403, Note_on_c, 6, 62, 56
14, 2479, Note_off_c, 6, 55, 0
14, 2480, Note_off_c, 6, 59, 0
14, 2480, Note_off_c, 6, 62, 0
14, 2493, Note_on_c, 6, 55, 66
14, 2495, Note_on_c, 6, 59, 59
14, 2498, Note_on_c, 6, 62, 57
14, 2574, Note_off_c, 6, 55, 0
14, 2574, Note_off_c, 6, 59, 0
14, 2575, Note_off_c, 6, 62, 0
14, 2686, Note_on_c, 6, 55, 56
14, 2688, Note_on_c, 6, 59, 57
14, 2691, Note_on_c, 6, 62, 59
14, 2725, Note_off_c, 6, 55, 0
14, 2725, Note_off_c, 6, 59, 0
14, 2726, Note_off_c, 6, 62, 0
14, 2736, Note_on_c, 6, 55, 57
14, 2739, Note_on_c, 6, 59, 58
14, 2740, Note_on_c, 6, 62, 60
14, 2774, Note_off_c, 6, 55, 0
14, 2775, Note_off_c, 6, 59, 0
14, 2776, Note_off_c, 6, 62, 0
14, 2783, Note_on_c, 6, 55, 68
14, 2784, Note_on_c, 6, 59, 57
14, 2787, Note_on_c, 6, 64, 59
14, 2823, Note_off_c, 6, 55, 0
14, 2824, Note_off_c, 6, 59, 0
14, 2825, Note_off_c, 6, 64, 0
14, 2831, Note_on_c, 6, 55, 58
14, 2834, Note_on_c, 6, 59, 58
14, 2836, Note_on_c, 6, 64, 59
14, 2869, Note_off_c, 6, 55, 0
14, 2870, Note_off_c, 6, 59, 0
14, 2870, Note_off_c, 6, 64, 0
14, 2880, Note_on_c, 6, 55, 60
14, 2883, Note_on_c, 6, 59, 59
14, 2885, Note_on_c, 6, 62, 59
14, 2918, Note_off_c, 6, 55, 0
14, 2919, Note_off_c, 6, 59, 0
14, 2919, Note_off_c, 6, 62, 0
14, 2926, Note_on_c, 6, 55, 60
14, 2929, Note_on_c, 6, 59, 56
14, 2930, Note_on_c, 6, 62, 57
14, 2967, Note_off_c, 6, 55, 0
14, 2968, Note_off_c, 6, 59, 0
14, 2969, Note_off_c, 6, 62, 0
14, 2975, Note_on_c, 6, 55, 68
14, 2977, Note_on_c, 6, 59, 60
14, 2979, Note_on_c, 6, 64, 56
14, 3013, Note_off_c, 6, 55, 0
14, 3014, Note_off_c, 6, 59, 0
14, 3014, Note_off_c, 6, 64, 0
14, 3021, Note_on_c, 6, 55, 60
14, 3024, Note_on_c, 6, 59, 56
14, 3026, Note_on_c, 6, 64, 57
14, 3062, Note_off_c, 6, 55, 0
14, 3063, Note_off_c, 6, 59, 0
14, 3064, Note_off_c, 6, 64, 0
14, 3070, Note_on_c, 6, 55, 56
14, 3073, Note_on_c, 6, 59, 59
14, 3075, Note_on_c, 6, 62, 59
14, 3112, Note_off_c, 6, 55, 0
14, 3113, Note_off_c, 6, 59, 0
14, 3113, Note_off_c, 6, 62, 0
14, 3121, Note_on_c, 6, 55, 58
14, 3123, Note_on_c, 6, 59, 56
14, 3125, Note_on_c, 6, 62, 60
14, 3157, Note_off_c, 6, 55, 0
14, 3158, Note_off_c, 6, 59, 0
14, 3159, Note_off_c, 6, 62, 0
14, 3166, Note_on_c, 6, 55, 67
14, 3168, Note_on_c, 6, 59, 60
14, 3171, Note_on_c, 6, 64, 59
14, 3207, Note_off_c, 6, 55, 0
14, 3207, Note_off_c, 6, 59, 0
14, 3208, Note_off_c, 6, 64, 0
14, 3215, Note_on_c, 6, 55, 59
14, 3216, Note_on_c, 6, 59, 59
14, 3219, Note_on_c, 6, 64, 58
14, 3254, Note_off_c, 6, 55, 0
14, 3254, Note_off_c, 6, 59, 0
14, 3255, Note_off_c, 6, 64, 0
14, 3262, Note_on_c, 6, 55, 56
14, 3264, Note_on_c, 6, 59, 59
14, 3266, Note_on_c, 6, 62, 57
14, 3301, Note_off_c, 6, 55, 0
14, 3302, Note_off_c, 6, 59, 0
14, 3303, Note_off_c, 6, 62, 0
14, 3309, Note_on_c, 6, 55, 60
14, 3312, Note_on_c, 6, 59, 57
14, 3314, Note_on_c, 6, 62, 58
14, 3351, Note_off_c, 6, 55, 0
14, 3351, Note_off_c, 6, 59, 0
14, 3352, Note_off_c, 6, 62, 0
14, 3358, Note_on_c, 6, 55, 66
14, 3361, Note_on_c, 6, 59, 58
14, 3363, Note_on_c, 6, 64, 57
14, 3400, Note_off_c, 6, 55, 0
14, 3401, Note_off_c, 6, 59, 0
14, 3402, Note_off_c, 6, 64, 0
14, 3409, Note_on_c, 6, 55, 60
14, 3411, Note_on_c, 6, 59, 59
14, 3414, Note_on_c, 6, 64, 58
14, 3446, Note_off_c, 6, 55, 0
14, 3446, Note_off_c, 6, 59, 0
14, 3447, Note_off_c, 6, 64, 0
14, 3457, Note_on_c, 6, 55, 60
14, 3460, Note_on_c, 6, 59, 57
14, 3462, Note_on_c, 6, 62, 60
14, 3496, Note_off_c, 6, 55, 0
14, 3496, Note_off_c, 6, 59, 0
14, 3497, Note_off_c, 6, 62, 0
14, 3505, Note_on_c, 6, 55, 57
14, 3507, Note_on_c, 6, 59, 57
14, 3509, Note_on_c, 6, 62, 57
14, 3544, Note_off_c, 6, 55, 0
14, 3546, Note_off_c, 6, 59, 0
14, 3547, Note_off_c, 6, 62, 0
14, 3553, Note_on_c, 6, 55, 66
14, 3555, Note_on_c, 6, 59, 56
14, 3558, Note_on_c, 6, 64, 57
14, 3590, Note_off_c, 6, 55, 0
14, 3590, Note_off_c, 6, 59, 0
14, 3591, Note_off_c, 6, 64, 0
14, 3597, Note_on_c, 6, 55, 58
14, 3600, Note_on_c, 6, 59, 58
14, 3602, Note_on_c, 6, 64, 58
14, 3639, Note_off_c, 6, 55, 0
14, 3640, Note_off_c, 6, 59, 0
14, 3641, Note_off_c, 6, 64, 0
14, 3647, Note_on_c, 6, 55, 60
14, 3650, Note_on_c, 6, 59, 59
14, 3653, Note_on_c, 6, 62, 59
14, 3685, Note_off_c, 6, 55, 0
14, 3686, Note_off_c, 6, 59, 0
14, 3686, Note_off_c, 6, 62, 0
14, 3696, Note_on_c, 6, 55, 59
14, 3698, Note_on_c, 6, 59, 61
14, 3700, Note_on_c, 6, 62, 57
14, 3734, Note_off_c, 6, 55, 0
14, 3735, Note_off_c, 6, 59, 0
14, 3736, Note_off_c, 6, 62, 0
14, 3742, Note_on_c, 6, 55, 66
14, 3744, Note_on_c, 6, 59, 56
14, 3746, Note_on_c, 6, 64, 59
14, 3783, Note_off_c, 6, 55, 0
14, 3784, Note_off_c, 6, 59, 0
14, 3785, Note_off_c, 6, 64, 0
14, 3791, Note_on_c, 6, 55, 60
14, 3793, Note_on_c, 6, 59, 59
14, 3795, Note_on_c, 6, 64, 60
14, 3829, Note_off_c, 6, 55, 0
14, 3830, Note_off_c, 6, 59, 0
14, 3830, Note_off_c, 6, 64, 0
14, 3837, Note_on_c, 6, 55, 60
14, 3839, Note_on_c, 6, 59, 60
14, 3845, Note_on_c, 6, 62, 56
14, 3878, Note_off_c, 6, 55, 0
14, 3879, Note_off_c, 6, 59, 0
14, 3880, Note_off_c, 6, 62, 0
14, 3887, Note_on_c, 6, 55, 59
14, 3890, Note_on_c, 6, 59, 59
14, 3892, Note_on_c, 6, 62, 58
14, 3926, Note_off_c, 6, 55, 0
14, 3927, Note_off_c, 6, 59, 0
14, 3928, Note_off_c, 6, 62, 0
14, 3935, Note_on_c, 6, 55, 66
14, 3938, Note_on_c, 6, 59, 58
14, 3940, Note_on_c, 6, 64, 59
14, 3973, Note_off_c, 6, 55, 0
14, 3974, Note_off_c, 6, 59, 0
14, 3975, Note_off_c, 6, 64, 0
14, 3981, Note_on_c, 6, 55, 58
14, 3984, Note_on_c, 6, 59, 58
14, 3986, Note_on_c, 6, 64, 60
14, 4021, Note_off_c, 6, 55, 0
14, 4022, Note_off_c, 6, 59, 0
14, 4023, Note_off_c, 6, 64, 0
14, 4029, Note_on_c, 6, 55, 57
14, 4031, Note_on_c, 6, 59, 57
14, 4034, Note_on_c, 6, 62, 60
14, 4072, Note_off_c, 6, 55, 0
14, 4072, Note_off_c, 6, 59, 0
14, 4073, Note_off_c, 6, 62, 0
14, 4080, Note_on_c, 6, 55, 57
14, 4082, Note_on_c, 6, 59, 57
14, 4085, Note_on_c, 6, 62, 59
14, 4117, Note_off_c, 6, 55, 0
14, 4118, Note_off_c, 6, 59, 0
14, 4119, Note_off_c, 6, 62, 0
14, 4125, Note_on_c, 6, 55, 65
14, 4128, Note_on_c, 6, 59, 60
14, 4130, Note_on_c, 6, 64, 59
14, 4167, Note_off_c, 6, 55, 0
14, 4167, Note_off_c, 6, 59, 0
14, 4168, Note_off_c, 6, 64, 0
14, 4174, Note_on_c, 6, 55, 60
14, 4177, Note_on_c, 6, 59, 58
14, 4179, Note_on_c, 6, 64, 56
14, 4216, Note_off_c, 6, 55, 0
14, 4217, Note_off_c, 6, 59, 0
14, 4218, Note_off_c, 6, 64, 0
14, 4227, Note_on_c, 6, 55, 57
14, 4230, Note_on_c, 6, 60, 57
14, 4232, Note_on_c, 6, 64, 56
14, 4261, Note_off_c, 6, 55, 0
14, 4262, Note_off_c, 6, 60, 0
14, 4263, Note_off_c, 6, 64, 0
14, 4273, Note_on_c, 6, 55, 60
14, 4275, Note_on_c, 6, 60, 57
14, 4278, Note_on_c, 6, 64, 58
14, 4311, Note_off_c, 6, 55, 0
14, 4312, Note_off_c, 6, 60, 0
14, 4314, Note_off_c, 6, 64, 0
14, 4319, Note_on_c, 6, 58, 64
14, 4322, Note_on_c, 6, 60, 57
14, 4324, Note_on_c, 6, 64, 57
14, 4360, Note_off_c, 6, 58, 0
14, 4361, Note_off_c, 6, 60, 0
14, 4361, Note_off_c, 6, 64, 0
14, 4368, Note_on_c, 6, 58, 60
14, 4370, Note_on_c, 6, 60, 59
14, 4372, Note_on_c, 6, 64, 56
14, 4406, Note_off_c, 6, 58, 0
14, 4406, Note_off_c, 6, 60, 0
14, 4407, Note_off_c, 6, 64, 0
14, 4413, Note_on_c, 6, 55, 60
14, 4416, Note_on_c, 6, 60, 57
14, 4419, Note_on_c, 6, 64, 57
14, 4455, Note_off_c, 6, 55, 0
14, 4456, Note_off_c, 6, 60, 0
14, 4457, Note_off_c, 6, 64, 0
14, 4462, Note_on_c, 6, 55, 56
14, 4466, Note_on_c, 6, 60, 58
14, 4468, Note_on_c, 6, 64, 57
14, 4504, Note_off_c, 6, 55, 0
14, 4505, Note_off_c, 6, 60, 0
14, 4506, Note_off_c, 6, 64, 0
14, 4512, Note_on_c, 6, 58, 64
14, 4514, Note_on_c, 6, 60, 56
14, 4516, Note_on_c, 6, 64, 57
14, 4550, Note_off_c, 6, 58, 0
14, 4551, Note_off_c, 6, 60, 0
14, 4551, Note_off_c, 6, 64, 0
14, 4558, Note_on_c, 6, 58, 58
14, 4559, Note_on_c, 6, 60, 56
14, 4562, Note_on_c, 6, 64, 60
14, 4599, Note_off_c, 6, 58, 0
14, 4600, Note_off_c, 6, 60, 0
14, 4600, Note_off_c, 6, 64, 0
14, 4607, Note_on_c, 6, 55, 56
14, 4610, Note_on_c, 6, 60, 57
14, 4615, Note_on_c, 6, 64, 59
14, 4645, Note_off_c, 6, 55, 0
14, 4646, Note_off_c, 6, 60, 0
14, 4646, Note_off_c, 6, 64, 0
14, 4653, Note_on_c, 6, 55, 58
14, 4656, Note_on_c, 6, 60, 57
14, 4658, Note_on_c, 6, 64, 58
14, 4694, Note_off_c, 6, 55, 0
14, 4695, Note_off_c, 6, 60, 0
14, 4696, Note_off_c, 6, 64, 0
14, 4702, Note_on_c, 6, 58, 64
14, 4705, Note_on_c, 6, 60, 59
14, 4707, Note_on_c, 6, 64, 57
14, 4741, Note_off_c, 6, 58, 0
14, 4742, Note_off_c, 6, 60, 0
14, 4743, Note_off_c, 6, 64, 0
14, 4749, Note_on_c, 6, 58, 59
14, 4751, Note_on_c, 6, 60, 58
14, 4754, Note_on_c, 6, 64, 57
14, 4789, Note_off_c, 6, 58, 0
14, 4790, Note_off_c, 6, 60, 0
14, 4790, Note_off_c, 6, 64, 0
14, 4797, Note_on_c, 6, 55, 58
14, 4799, Note_on_c, 6, 60, 57
14, 4801, Note_on_c, 6, 64, 56
14, 4838, Note_off_c, 6, 55, 0
14, 4839, Note_off_c, 6, 60, 0
14, 4840, Note_off_c, 6, 64, 0
14, 4849, Note_on_c, 6, 55, 56
14, 4852, Note_on_c, 6, 60, 59
14, 4854, Note_on_c, 6, 64, 56
14, 4887, Note_off_c, 6, 55, 0
14, 4888, Note_off_c, 6, 60, 0
14, 4889, Note_off_c, 6, 64, 0
14, 4899, Note_on_c, 6, 58, 65
14, 4902, Note_on_c, 6, 60, 56
14, 4903, Note_on_c, 6, 64, 60
14, 4933, Note_off_c, 6, 58, 0
14, 4934, Note_off_c, 6, 60, 0
14, 4935, Note_off_c, 6, 64, 0
14, 4941, Note_on_c, 6, 58, 58
14, 4943, Note_on_c, 6, 60, 60
14, 4946, Note_on_c, 6, 64, 60
14, 4982, Note_off_c, 6, 58, 0
14, 4983, Note_off_c, 6, 60, 0
14, 4984, Note_off_c, 6, 64, 0
14, 4990, Note_on_c, 6, 55, 60
14, 4995, Note_on_c, 6, 59, 57
14, 4998, Note_on_c, 6, 62, 58
14, 5032, Note_off_c, 6, 55, 0
14, 5033, Note_off_c, 6, 59, 0
14, 5034, Note_off_c, 6, 62, 0
14, 5040, Note_on_c, 6, 55, 58
14, 5042, Note_on_c, 6, 59, 56
14, 5047, Note_on_c, 6, 62, 56
14, 5077, Note_off_c, 6, 55, 0
14, 5078, Note_off_c, 6, 59, 0
14, 5079, Note_off_c, 6, 62, 0
14, 5086, Note_on_c, 6, 55, 64
14, 5089, Note_on_c, 6, 59, 60
14, 5091, Note_on_c, 6, 64, 60
14, 5126, Note_off_c, 6, 55, 0
14, 5127, Note_off_c, 6, 59, 0
14, 5129, Note_off_c, 6, 64, 0
14, 5134, Note_on_c, 6, 55, 56
14, 5137, Note_on_c, 6, 59, 56
14, 5139, Note_on_c, 6, 64, 59
14, 5176, Note_off_c, 6, 55, 0
14, 5177, Note_off_c, 6, 59, 0
14, 5177, Note_off_c, 6, 64, 0
14, 5184, Note_on_c, 6, 55, 59
14, 5186, Note_on_c, 6, 59, 58
14, 5188, Note_on_c, 6, 62, 59
14, 5222, Note_off_c, 6, 55, 0
14, 5222, Note_off_c, 6, 59, 0
14, 5223, Note_off_c, 6, 62, 0
14, 5230, Note_on_c, 6, 55, 59
14, 5232, Note_on_c, 6, 59, 57
14, 5234, Note_on_c, 6, 62, 57
14, 5271, Note_off_c, 6, 55, 0
14, 5272, Note_off_c, 6, 59, 0
14, 5272, Note_off_c, 6, 62, 0
14, 5279, Note_on_c, 6, 55, 68
14, 5281, Note_on_c, 6, 59, 60
14, 5283, Note_on_c, 6, 64, 59
14, 5319, Note_off_c, 6, 55, 0
14, 5320, Note_off_c, 6, 59, 0
14, 5321, Note_off_c, 6, 64, 0
14, 5327, Note_on_c, 6, 55, 59
14, 5329, Note_on_c, 6, 59, 56
14, 5331, Note_on_c, 6, 64, 56
14, 5366, Note_off_c, 6, 55, 0
14, 5367, Note_off_c, 6, 59, 0
14, 5367, Note_off_c, 6, 64, 0
14, 5374, Note_on_c, 6, 55, 60
14, 5376, Note_on_c, 6, 59, 59
14, 5379, Note_on_c, 6, 62, 58
14, 5415, Note_off_c, 6, 55, 0
14, 5415, Note_off_c, 6, 59, 0
14, 5416, Note_off_c, 6, 62, 0
14, 5423, Note_on_c, 6, 55, 57
14, 5426, Note_on_c, 6, 59, 60
14, 5430, Note_on_c, 6, 62, 57
14, 5461, Note_off_c, 6, 55, 0
14, 5462, Note_off_c, 6, 59, 0
14, 5462, Note_off_c, 6, 62, 0
14, 5470, Note_on_c, 6, 55, 65
14, 5472, Note_on_c, 6, 59, 56
14, 5475, Note_on_c, 6, 64, 57
14, 5510, Note_off_c, 6, 55, 0
14, 5511, Note_off_c, 6, 59, 0
14, 5511, Note_off_c, 6, 64, 0
14, 5517, Note_on_c, 6, 55, 59
14, 5520, Note_on_c, 6, 59, 60
14, 5522, Note_on_c, 6, 64, 58
14, 5559, Note_off_c, 6, 55, 0
14, 5560, Note_off_c, 6, 59, 0
14, 5560, Note_off_c, 6, 64, 0
14, 5567, Note_on_c, 6, 55, 59
14, 5570, Note_on_c, 6, 59, 56
14, 5573, Note_on_c, 6, 62, 56
14, 5605, Note_off_c, 6, 55, 0
14, 5605, Note_off_c, 6, 59, 0
14, 5606, Note_off_c, 6, 62, 0
14, 5615, Note_on_c, 6, 55, 56
14, 5618, Note_on_c, 6, 59, 58
14, 5619, Note_on_c, 6, 62, 58
14, 5654, Note_off_c, 6, 55, 0
14, 5655, Note_off_c, 6, 59, 0
14, 5656, Note_off_c, 6, 62, 0
14, 5662, Note_on_c, 6, 55, 66
14, 5664, Note_on_c, 6, 59, 56
14, 5667, Note_on_c, 6, 64, 56
14, 5703, Note_off_c, 6, 55, 0
14, 5704, Note_off_c, 6, 59, 0
14, 5705, Note_off_c, 6, 64, 0
14, 5711, Note_on_c, 6, 55, 60
14, 5713, Note_on_c, 6, 59, 56
14, 5715, Note_on_c, 6, 64, 56
14, 5749, Note_off_c, 6, 55, 0
14, 5750, Note_off_c, 6, 59, 0
14, 5750, Note_off_c, 6, 64, 0
14, 5760, Note_on_c, 6, 54, 56
14, 5763, Note_on_c, 6, 57, 58
14, 5765, Note_on_c, 6, 62, 56
14, 5798, Note_off_c, 6, 54, 0
14, 5799, Note_off_c, 6, 57, 0
14, 5800, Note_off_c, 6, 62, 0
14, 5806, Note_on_c, 6, 54, 56
14, 5809, Note_on_c, 6, 57, 60
14, 5813, Note_on_c, 6, 62, 57
14, 5848, Note_off_c, 6, 54, 0
14, 5849, Note_off_c, 6, 57, 0
14, 5849, Note_off_c, 6, 62, 0
14, 5856, Note_on_c, 6, 54, 68
14, 5858, Note_on_c, 6, 60, 59
14, 5860, Note_on_c, 6, 62, 60
14, 5893, Note_off_c, 6, 54, 0
14, 5894, Note_off_c, 6, 60, 0
14, 5895, Note_off_c, 6, 62, 0
14, 5901, Note_on_c, 6, 54, 59
14, 5904, Note_on_c, 6, 60, 60
14, 5907, Note_on_c, 6, 62, 60
14, 5942, Note_off_c, 6, 54, 0
14, 5943, Note_off_c, 6, 60, 0
14, 5944, Note_off_c, 6, 62, 0
14, 5952, Note_on_c, 6, 54, 59
14, 5955, Note_on_c, 6, 57, 57
14, 5958, Note_on_c, 6, 62, 59
14, 5992, Note_off_c, 6, 54, 0
14, 5992, Note_off_c, 6, 57, 0
14, 5993, Note_off_c, 6, 62, 0
14, 6000, Note_on_c, 6, 54, 59
14, 6002, Note_on_c, 6, 57, 59
14, 6006, Note_on_c, 6, 62, 58
14, 6037, Note_off_c, 6, 54, 0
14, 6038, Note_off_c, 6, 57, 0
14, 6039, Note_off_c, 6, 62, 0
14, 6047, Note_on_c, 6, 54, 64
14, 6049, Note_on_c, 6, 60, 59
14, 6051, Note_on_c, 6, 62, 57
14, 6087, Note_off_c, 6, 54, 0
14, 6087, Note_off_c, 6, 60, 0
14, 6088, Note_off_c, 6, 62, 0
14, 6094, Note_on_c, 6, 54, 58
14, 6097, Note_on_c, 6, 60, 60
14, 6099, Note_on_c, 6, 62, 59
14, 6134, Note_off_c, 6, 54, 0
14, 6135, Note_off_c, 6, 60, 0
14, 6135, Note_off_c, 6, 62, 0
14, 6143, Note_on_c, 6, 55, 56
14, 6145, Note_on_c, 6, 60, 56
14, 6147, Note_on_c, 6, 64, 59
14, 6182, Note_off_c, 6, 55, 0
14, 6182, Note_off_c, 6, 60, 0
14, 6183, Note_off_c, 6, 64, 0
14, 6190, Note_on_c, 6, 55, 60
14, 6192, Note_on_c, 6, 60, 57
14, 6194, Note_on_c, 6, 64, 58
14, 6229, Note_off_c, 6, 55, 0
14, 6229, Note_off_c, 6, 60, 0
14, 6230, Note_off_c, 6, 64, 0
14, 6238, Note_on_c, 6, 58, 65
14, 6240, Note_on_c, 6, 60, 60
14, 6242, Note_on_c, 6, 64, 60
14, 6280, Note_off_c, 6, 58, 0
14, 6281, Note_off_c, 6, 60, 0
14, 6281, Note_off_c, 6, 64, 0
14, 6287, Note_on_c, 6, 58, 56
14, 6290, Note_on_c, 6, 60, 57
14, 6292, Note_on_c, 6, 64, 58
14, 6326, Note_off_c, 6, 58, 0
14, 6326, Note_off_c, 6, 60, 0
14, 6327, Note_off_c, 6, 64, 0
14, 6334, Note_on_c, 6, 55, 60
14, 6336, Note_on_c, 6, 60, 57
14, 6338, Note_on_c, 6, 64, 59
14, 6375, Note_off_c, 6, 55, 0
14, 6376, Note_off_c, 6, 60, 0
14, 6376, Note_off_c, 6, 64, 0
14, 6383, Note_on_c, 6, 55, 58
14, 6385, Note_on_c, 6, 60, 60
14, 6387, Note_on_c, 6, 64, 60
14, 6421, Note_off_c, 6, 55, 0
14, 6421, Note_off_c, 6, 60, 0
14, 6422, Note_off_c, 6, 64, 0
14, 6431, Note_on_c, 6, 58, 68
14, 6434, Note_on_c, 6, 60, 56
14, 6436, Note_on_c, 6, 64, 57
14, 6470, Note_off_c, 6, 58, 0
14, 6471, Note_off_c, 6, 60, 0
14, 6471, Note_off_c, 6, 64, 0
14, 6477, Note_on_c, 6, 58, 59
14, 6480, Note_on_c, 6, 60, 60
14, 6482, Note_on_c, 6, 64, 58
14, 6519, Note_off_c, 6, 58, 0
14, 6520, Note_off_c, 6, 60, 0
14, 6521, Note_off_c, 6, 64, 0
14, 6527, Note_on_c, 6, 55, 68
14, 6530, Note_on_c, 6, 59, 59
14, 6535, Note_on_c, 6, 62, 56
14, 6677, Note_off_c, 6, 55, 0
14, 6678, Note_off_c, 6, 59, 0
14, 6679, Note_off_c, 6, 62, 0
14, 6909, Note_on_c, 6, 55, 65
14, 6912, Note_on_c, 6, 59, 59
14, 6914, Note_on_c, 6, 62, 56
14, 6991, Note_off_c, 6, 55, 0
14, 6991, Note_off_c, 6, 59, 0
14, 6992, Note_off_c, 6, 62, 0
14, 7009, Note_on_c, 6, 55, 66
14, 7012, Note_on_c, 6, 59, 60
14, 7015, Note_on_c, 6, 62, 58
14, 7085, Note_off_c, 6, 55, 0
14, 7086, Note_off_c, 6, 59, 0
14, 7087, Note_off_c, 6, 62, 0
14, 7104, Note_on_c, 6, 55, 64
14, 7106, Note_on_c, 6, 59, 59
14, 7108, Note_on_c, 6, 62, 56
14, 7184, Note_off_c, 6, 55, 0
14, 7184, Note_off_c, 6, 59, 0
14, 7185, Note_off_c, 6, 62, 0
14, 7293, Note_on_c, 6, 55, 66
14, 7298, Note_on_c, 6, 59, 59
14, 7300, Note_on_c, 6, 62, 58
14, 7335, Note_off_c, 6, 55, 0
14, 7336, Note_off_c, 6, 59, 0
14, 7336, Note_off_c, 6, 62, 0
14, 7343, Note_on_c, 6, 55, 60
14, 7345, Note_on_c, 6, 59, 58
14, 7347, Note_on_c, 6, 62, 60
14, 7381, Note_off_c, 6, 55, 0
14, 7382, Note_off_c, 6, 59, 0
14, 7382, Note_off_c, 6, 62, 0
14, 7391, Note_on_c, 6, 55, 57
14, 7394, Note_on_c, 6, 59, 57
14, 7396, Note_on_c, 6, 62, 59
14, 7430, Note_off_c, 6, 55, 0
14, 7431, Note_off_c, 6, 59, 0
14, 7432, Note_off_c, 6, 62, 0
14, 7438, Note_on_c, 6, 55, 59
14, 7440, Note_on_c, 6, 59, 57
14, 7442, Note_on_c, 6, 62, 59
14, 7479, Note_off_c, 6, 55, 0
14, 7480, Note_off_c, 6, 59, 0
14, 7481, Note_off_c, 6, 62, 0
14, 7487, Note_on_c, 6, 55, 67
14, 7489, Note_on_c, 6, 59, 59
14, 7492, Note_on_c, 6, 62, 60
14, 7525, Note_off_c, 6, 55, 0
14, 7526, Note_off_c, 6, 59, 0
14, 7526, Note_off_c, 6, 62, 0
14, 7533, Note_on_c, 6, 55, 58
14, 7536, Note_on_c, 6, 59, 60
14, 7537, Note_on_c, 6, 62, 58
14, 7574, Note_off_c, 6, 55, 0
14, 7575, Note_off_c, 6, 59, 0
14, 7575, Note_off_c, 6, 62, 0
14, 7582, Note_on_c, 6, 55, 60
14, 7585, Note_on_c, 6, 59, 60
14, 7587, Note_on_c, 6, 62, 60
14, 7621, Note_off_c, 6, 55, 0
14, 7622, Note_off_c, 6, 59, 0
14, 7623, Note_off_c, 6, 62, 0
14, 7630, Note_on_c, 6, 55, 57
14, 7632, Note_on_c, 6, 59, 56
14, 7633, Note_on_c, 6, 62, 57
14, 7669, Note_off_c, 6, 55, 0
14, 7670, Note_off_c, 6, 59, 0
14, 7671, Note_off_c, 6, 62, 0
14, 7677, Note_on_c, 6, 55, 68
14, 7680, Note_on_c, 6, 59, 57
14, 7683, Note_on_c, 6, 62, 56
14, 7718, Note_off_c, 6, 55, 0
14, 7719, Note_off_c, 6, 59, 0
14, 7720, Note_off_c, 6, 62, 0
14, 7726, Note_on_c, 6, 55, 57
14, 7729, Note_on_c, 6, 59, 59
14, 7730, Note_on_c, 6, 62, 58
14, 7768, Note_off_c, 6, 55, 0
14, 7768, Note_off_c, 6, 59, 0
14, 7769, Note_off_c, 6, 62, 0
14, 7775, Note_on_c, 6, 55, 58
14, 7778, Note_on_c, 6, 59, 59
14, 7780, Note_on_c, 6, 62, 58
14, 7813, Note_off_c, 6, 55, 0
14, 7814, Note_off_c, 6, 59, 0
14, 7815, Note_off_c, 6, 62, 0
14, 7824, Note_on_c, 6, 55, 56
14, 7826, Note_on_c, 6, 59, 58
14, 7828, Note_on_c, 6, 62, 58
14, 7862, Note_off_c, 6, 55, 0
14, 7863, Note_off_c, 6, 59, 0
14, 7864, Note_off_c, 6, 62, 0
14, 7870, Note_on_c, 6, 55, 64
14, 7872, Note_on_c, 6, 59, 56
14, 7875, Note_on_c, 6, 62, 57
14, 7912, Note_off_c, 6, 55, 0
14, 7913, Note_off_c, 6, 59, 0
14, 7913, Note_off_c, 6, 62, 0
14, 7920, Note_on_c, 6, 55, 58
14, 7922, Note_on_c, 6, 59, 58
14, 7924, Note_on_c, 6, 62, 58
14, 7957, Note_off_c, 6, 55, 0
14, 7958, Note_off_c, 6, 59, 0
14, 7959, Note_off_c, 6, 62, 0
14, 7968, Note_on_c, 6, 55, 60
14, 7971, Note_on_c, 6, 59, 57
14, 7972, Note_on_c, 6, 62, 58
14, 8007, Note_off_c, 6, 55, 0
14, 8007, Note_off_c, 6, 59, 0
14, 8008, Note_off_c, 6, 62, 0
14, 8014, Note_on_c, 6, 55, 59
14, 8017, Note_on_c, 6, 59, 59
14, 8019, Note_on_c, 6, 62, 56
14, 8057, Note_off_c, 6, 55, 0
14, 8057, Note_off_c, 6, 59, 0
14, 8058, Note_off_c, 6, 62, 0
14, 8065, Note_on_c, 6, 55, 65
14, 8068, Note_on_c, 6, 59, 58
14, 8070, Note_on_c, 6, 62, 60
14, 8102, Note_off_c, 6, 55, 0
14, 8102, Note_off_c, 6, 59, 0
14, 8103, Note_off_c, 6, 62, 0
14, 8109, Note_on_c, 6, 55, 58
14, 8111, Note_on_c, 6, 59, 60
14, 8114, Note_on_c, 6, 62, 57
14, 8151, Note_off_c, 6, 55, 0
14, 8152, Note_off_c, 6, 59, 0
14, 8153, Note_off_c, 6, 62, 0
14, 8159, Note_on_c, 6, 55, 60
14, 8161, Note_on_c, 6, 59, 59
14, 8163, Note_on_c, 6, 62, 56
14, 8199, Note_off_c, 6, 55, 0
14, 8200, Note_off_c, 6, 59, 0
14, 8200, Note_off_c, 6, 62, 0
14, 8207, Note_on_c, 6, 55, 59
14, 8209, Note_on_c, 6, 59, 58
14, 8211, Note_on_c, 6, 62, 56
14, 8246, Note_off_c, 6, 55, 0
14, 8247, Note_off_c, 6, 59, 0
14, 8247, Note_off_c, 6, 62, 0
14, 8254, Note_on_c, 6, 55, 68
14, 8256, Note_on_c, 6, 59, 57
14, 8258, Note_on_c, 6, 62, 57
14, 8294, Note_off_c, 6, 55, 0
14, 8295, Note_off_c, 6, 59, 0
14, 8296, Note_off_c, 6, 62, 0
14, 8302, Note_on_c, 6, 55, 59
14, 8304, Note_on_c, 6, 59, 57
14, 8306, Note_on_c, 6, 62, 60
14, 8341, Note_off_c, 6, 55, 0
14, 8342, Note_off_c, 6, 59, 0
14, 8342, Note_off_c, 6, 62, 0
14, 8349, Note_on_c, 6, 55, 57
14, 8352, Note_on_c, 6, 59, 57
14, 8355, Note_on_c, 6, 62, 57
14, 8389, Note_off_c, 6, 55, 0
14, 8390, Note_off_c, 6, 59, 0
14, 8390, Note_off_c, 6, 62, 0
14, 8397, Note_on_c, 6, 55, 59
14, 8399, Note_on_c, 6, 59, 60
14, 8402, Note_on_c, 6, 62, 56
14, 8439, Note_off_c, 6, 55, 0
14, 8440, Note_off_c, 6, 59, 0
14, 8440, Note_off_c, 6, 62, 0
14, 8447, Note_on_c, 6, 53, 64
14, 8449, Note_on_c, 6, 55, 59
14, 8451, Note_on_c, 6, 59, 56
14, 8485, Note_off_c, 6, 53, 0
14, 8486, Note_off_c, 6, 55, 0
14, 8486, Note_off_c, 6, 59, 0
14, 8493, Note_on_c, 6, 53, 57
14, 8495, Note_on_c, 6, 55, 56
14, 8497, Note_on_c, 6, 59, 57
14, 8534, Note_off_c, 6, 53, 0
14, 8535, Note_off_c, 6, 55, 0
14, 8536, Note_off_c, 6, 59, 0
14, 8542, Note_on_c, 6, 53, 58
14, 8544, Note_on_c, 6, 55, 57
14, 8546, Note_on_c, 6, 59, 59
14, 8583, Note_off_c, 6, 53, 0
14, 8584, Note_off_c, 6, 55, 0
14, 8585, Note_off_c, 6, 59, 0
14, 8591, Note_on_c, 6, 53, 56
14, 8594, Note_on_c, 6, 55, 59
14, 8596, Note_on_c, 6, 59, 59
14, 8629, Note_off_c, 6, 53, 0
14, 8630, Note_off_c, 6, 55, 0
14, 8630, Note_off_c, 6, 59, 0
14, 8640, Note_on_c, 6, 53, 67
14, 8643, Note_on_c, 6, 55, 58
14, 8645, Note_on_c, 6, 59, 58
14, 8678, Note_off_c, 6, 53, 0
14, 8679, Note_off_c, 6, 55, 0
14, 8680, Note_off_c, 6, 59, 0
14, 8686, Note_on_c, 6, 53, 58
14, 8688, Note_on_c, 6, 55, 56
14, 8690, Note_on_c, 6, 59, 59
14, 8728, Note_off_c, 6, 53, 0
14, 8728, Note_off_c, 6, 55, 0
14, 8729, Note_off_c, 6, 59, 0
14, 8736, Note_on_c, 6, 53, 60
14, 8738, Note_on_c, 6, 55, 56
14, 8740, Note_on_c, 6, 59, 60
14, 8773, Note_off_c, 6, 53, 0
14, 8774, Note_off_c, 6, 55, 0
14, 8775, Note_off_c, 6, 59, 0
14, 8781, Note_on_c, 6, 53, 58
14, 8784, Note_on_c, 6, 55, 56
14, 8788, Note_on_c, 6, 59, 56
14, 8823, Note_off_c, 6, 53, 0
14, 8823, Note_off_c, 6, 55, 0
14, 8824, Note_off_c, 6, 59, 0
14, 8824, Note_on_c, 6, 55, 55
14, 8834, Note_on_c, 6, 58, 64
14, 8836, Note_on_c, 6, 62, 56
14, 8838, Note_on_c, 6, 64, 58
14, 8872, Note_off_c, 6, 58, 0
14, 8872, Note_off_c, 6, 62, 0
14, 8873, Note_off_c, 6, 64, 0
14, 8880, Note_on_c, 6, 58, 58
14, 8882, Note_on_c, 6, 62, 59
14, 8884, Note_on_c, 6, 64, 59
14, 8917, Note_off_c, 6, 58, 0
14, 8918, Note_off_c, 6, 62, 0
14, 8919, Note_off_c, 6, 64, 0
14, 8925, Note_on_c, 6, 58, 60
14, 8927, Note_on_c, 6, 62, 58
14, 8930, Note_on_c, 6, 64, 57
14, 8967, Note_off_c, 6, 58, 0
14, 8967, Note_off_c, 6, 62, 0
14, 8968, Note_off_c, 6, 64, 0
14, 8975, Note_on_c, 6, 58, 58
14, 8977, Note_on_c, 6, 62, 59
14, 8979, Note_on_c, 6, 64, 58
14, 9014, Note_off_c, 6, 58, 0
14, 9015, Note_off_c, 6, 62, 0
14, 9015, Note_off_c, 6, 64, 0
14, 9022, Note_on_c, 6, 58, 64
14, 9024, Note_on_c, 6, 62, 56
14, 9026, Note_on_c, 6, 64, 60
14, 9062, Note_off_c, 6, 58, 0
14, 9062, Note_off_c, 6, 62, 0
14, 9063, Note_off_c, 6, 64, 0
14, 9070, Note_on_c, 6, 58, 60
14, 9072, Note_on_c, 6, 62, 60
14, 9074, Note_on_c, 6, 64, 58
14, 9109, Note_off_c, 6, 58, 0
14, 9110, Note_off_c, 6, 62, 0
14, 9110, Note_off_c, 6, 64, 0
14, 9117, Note_on_c, 6, 58, 56
14, 9119, Note_on_c, 6, 62, 57
14, 9121, Note_on_c, 6, 64, 57
14, 9160, Note_off_c, 6, 58, 0
14, 9161, Note_off_c, 6, 62, 0
14, 9161, Note_off_c, 6, 64, 0
14, 9168, Note_on_c, 6, 58, 56
14, 9170, Note_on_c, 6, 62, 58
14, 9172, Note_on_c, 6, 64, 56
14, 9206, Note_off_c, 6, 58, 0
14, 9207, Note_off_c, 6, 62, 0
14, 9207, Note_off_c, 6, 64, 0
14, 9214, Note_on_c, 6, 58, 68
14, 9216, Note_on_c, 6, 62, 56
14, 9221, Note_on_c, 6, 64, 59
14, 9255, Note_off_c, 6, 58, 0
14, 9256, Note_off_c, 6, 62, 0
14, 9256, Note_off_c, 6, 64, 0
14, 9263, Note_on_c, 6, 58, 59
14, 9265, Note_on_c, 6, 62, 56
14, 9267, Note_on_c, 6, 64, 58
14, 9301, Note_off_c, 6, 58, 0
14, 9301, Note_off_c, 6, 62, 0
14, 9302, Note_off_c, 6, 64, 0
14, 9311, Note_on_c, 6, 58, 59
14, 9314, Note_on_c, 6, 62, 59
14, 9316, Note_on_c, 6, 64, 59
14, 9350, Note_off_c, 6, 58, 0
14, 9351, Note_off_c, 6, 62, 0
14, 9351, Note_off_c, 6, 64, 0
14, 9358, Note_on_c, 6, 58, 59
14, 9360, Note_on_c, 6, 62, 57
14, 9362, Note_on_c, 6, 64, 59
14, 9399, Note_off_c, 6, 58, 0
14, 9400, Note_off_c, 6, 62, 0
14, 9401, Note_off_c, 6, 64, 0
14, 9411, Note_on_c, 6, 58, 64
14, 9413, Note_on_c, 6, 62, 56
14, 9415, Note_on_c, 6, 64, 57
14, 9445, Note_off_c, 6, 58, 0
14, 9446, Note_off_c, 6, 62, 0
14, 9446, Note_off_c, 6, 64, 0
14, 9455, Note_on_c, 6, 58, 60
14, 9458, Note_on_c, 6, 62, 57
14, 9460, Note_on_c, 6, 64, 58
14, 9494, Note_off_c, 6, 58, 0
14, 9495, Note_off_c, 6, 62, 0
14, 9496, Note_off_c, 6, 64, 0
14, 9502, Note_on_c, 6, 58, 57
14, 9504, Note_on_c, 6, 62, 60
14, 9506, Note_on_c, 6, 64, 57
14, 9543, Note_off_c, 6, 58, 0
14, 9544, Note_off_c, 6, 62, 0
14, 9545, Note_off_c, 6, 64, 0
14, 9553, Note_on_c, 6, 58, 58
14, 9555, Note_on_c, 6, 62, 59
14, 9557, Note_on_c, 6, 64, 60
14, 9589, Note_off_c, 6, 58, 0
14, 9590, Note_off_c, 6, 62, 0
14, 9591, Note_off_c, 6, 64, 0
14, 9596, Note_off_c, 6, 55, 0
14, 9597, Note_on_c, 6, 55, 65
14, 9600, Note_on_c, 6, 59, 56
14, 9604, Note_on_c, 6, 62, 60
14, 9639, Note_off_c, 6, 55, 0
14, 9639, Note_off_c, 6, 59, 0
14, 9640, Note_off_c, 6, 62, 0
14, 9646, Note_on_c, 6, 55, 60
14, 9648, Note_on_c, 6, 59, 57
14, 9651, Note_on_c, 6, 62, 58
14, 9687, Note_off_c, 6, 55, 0
14, 9687, Note_off_c, 6, 59, 0
14, 9688, Note_off_c, 6, 62, 0
14, 9696, Note_on_c, 6, 55, 56
14, 9698, Note_on_c, 6, 59, 60
14, 9700, Note_on_c, 6, 62, 58
14, 9733, Note_off_c, 6, 55, 0
14, 9734, Note_off_c, 6, 59, 0
14, 9735, Note_off_c, 6, 62, 0
14, 9742, Note_on_c, 6, 55, 56
14, 9744, Note_on_c, 6, 59, 59
14, 9746, Note_on_c, 6, 62, 58
14, 9782, Note_off_c, 6, 55, 0
14, 9782, Note_off_c, 6, 59, 0
14, 9783, Note_off_c, 6, 62, 0
14, 9790, Note_on_c, 6, 58, 68
14, 9794, Note_on_c, 6, 62, 60
14, 9796, Note_on_c, 6, 64, 60
14, 9829, Note_off_c, 6, 58, 0
14, 9829, Note_off_c, 6, 62, 0
14, 9830, Note_off_c, 6, 64, 0
14, 9837, Note_on_c, 6, 58, 57
14, 9839, Note_on_c, 6, 62, 59
14, 9841, Note_on_c, 6, 64, 57
14, 9878, Note_off_c, 6, 58, 0
14, 9878, Note_off_c, 6, 62, 0
14, 9879, Note_off_c, 6, 64, 0
14, 9889, Note_on_c, 6, 58, 57
14, 9891, Note_on_c, 6, 62, 59
14, 9893, Note_on_c, 6, 64, 60
14, 9927, Note_off_c, 6, 58, 0
14, 9928, Note_off_c, 6, 62, 0
14, 9929, Note_off_c, 6, 64, 0
14, 9935, Note_on_c, 6, 58, 58
14, 9937, Note_on_c, 6, 62, 60
14, 9939, Note_on_c, 6, 64, 56
14, 9976, Note_off_c, 6, 58, 0
14, 9977, Note_off_c, 6, 62, 0
14, 9977, Note_off_c, 6, 64, 0
14, 9984, Note_on_c, 6, 55, 66
14, 9986, Note_on_c, 6, 59, 58
14, 9989, Note_on_c, 6, 62, 58
14, 10022, Note_off_c, 6, 55, 0
14, 10022, Note_off_c, 6, 59, 0
14, 10023, Note_off_c, 6, 62, 0
14, 10029, Note_on_c, 6, 55, 56
14, 10032, Note_on_c, 6, 59, 60
14, 10034, Note_on_c, 6, 62, 60
14, 10071, Note_off_c, 6, 55, 0
14, 10072, Note_off_c, 6, 59, 0
14, 10072, Note_off_c, 6, 62, 0
14, 10079, Note_on_c, 6, 55, 56
14, 10081, Note_on_c, 6, 59, 60
14, 10083, Note_on_c, 6, 62, 60
14, 10117, Note_off_c, 6, 55, 0
14, 10117, Note_off_c, 6, 59, 0
14, 10118, Note_off_c, 6, 62, 0
14, 10127, Note_on_c, 6, 55, 58
14, 10129, Note_on_c, 6, 59, 56
14, 10131, Note_on_c, 6, 62, 57
14, 10166, Note_off_c, 6, 55, 0
14, 10167, Note_off_c, 6, 59, 0
14, 10167, Note_off_c, 6, 62, 0
14, 10173, Note_on_c, 6, 55, 67
14, 10176, Note_on_c, 6, 59, 60
14, 10179, Note_on_c, 6, 62, 60
14, 10215, Note_off_c, 6, 55, 0
14, 10216, Note_off_c, 6, 59, 0
14, 10217, Note_off_c, 6, 62, 0
14, 10223, Note_on_c, 6, 55, 58
14, 10225, Note_on_c, 6, 59, 58
14, 10227, Note_on_c, 6, 62, 60
14, 10261, Note_off_c, 6, 55, 0
14, 10261, Note_off_c, 6, 59, 0
14, 10262, Note_off_c, 6, 62, 0
14, 10272, Note_on_c, 6, 55, 60
14, 10273, Note_on_c, 6, 59, 56
14, 10276, Note_on_c, 6, 62, 57
14, 10310, Note_off_c, 6, 55, 0
14, 10311, Note_off_c, 6, 59, 0
14, 10311, Note_off_c, 6, 62, 0
14, 10318, Note_on_c, 6, 55, 57
14, 10320, Note_on_c, 6, 59, 57
14, 10322, Note_on_c, 6, 62, 59
14, 10360, Note_off_c, 6, 55, 0
14, 10360, Note_off_c, 6, 59, 0
14, 10361, Note_off_c, 6, 62, 0
14, 10368, Note_on_c, 6, 59, 68
14, 10370, Note_on_c, 6, 62, 59
14, 10372, Note_on_c, 6, 64, 59
14, 10446, Note_off_c, 6, 59, 0
14, 10447, Note_off_c, 6, 62, 0
14, 10448, Note_off_c, 6, 64, 0
14, 10750, Note_on_c, 6, 59, 66
14, 10754, Note_on_c, 6, 62, 56
14, 10756, Note_on_c, 6, 64, 59
14, 10831, Note_off_c, 6, 59, 0
14, 10831, Note_off_c, 6, 62, 0
14, 10832, Note_off_c, 6, 64, 0
14, 11133, Note_on_c, 6, 58, 68
14, 11136, Note_on_c, 6, 62, 56
14, 11138, Note_on_c, 6, 64, 57
14, 11214, Note_off_c, 6, 58, 0
14, 11214, Note_off_c, 6, 62, 0
14, 11215, Note_off_c, 6, 64, 0
14, 11521, Note_on_c, 6, 58, 66
14, 11523, Note_on_c, 6, 62, 60
14, 11525, Note_on_c, 6, 64, 56
14, 11597, Note_off_c, 6, 58, 0
14, 11598, Note_off_c, 6, 62, 0
14, 11599, Note_off_c, 6, 64, 0
14, 11903, Note_on_c, 6, 55, 60
14, 11905, Note_on_c, 6, 60, 56
14, 11907, Note_on_c, 6, 64, 59
14, 11942, Note_off_c, 6, 55, 0
14, 11942, Note_off_c, 6, 60, 0
14, 11943, Note_off_c, 6, 64, 0
14, 11950, Note_on_c, 6, 55, 59
14, 11953, Note_on_c, 6, 60, 60
14, 11954, Note_on_c, 6, 64, 60
14, 11989, Note_off_c, 6, 55, 0
14, 11990, Note_off_c, 6, 60, 0
14, 11990, Note_off_c, 6, 64, 0
14, 11997, Note_on_c, 6, 58, 67
14, 12000, Note_on_c, 6, 60, 58
14, 12001, Note_on_c, 6, 64, 58
14, 12037, Note_off_c, 6, 58, 0
14, 12037, Note_off_c, 6, 60, 0
14, 12038, Note_off_c, 6, 64, 0
14, 12045, Note_on_c, 6, 58, 56
14, 12047, Note_on_c, 6, 60, 56
14, 12049, Note_on_c, 6, 64, 61
14, 12086, Note_off_c, 6, 58, 0
14, 12087, Note_off_c, 6, 60, 0
14, 12087, Note_off_c, 6, 64, 0
14, 12094, Note_on_c, 6, 55, 60
14, 12096, Note_on_c, 6, 60, 59
14, 12098, Note_on_c, 6, 64, 59
14, 12135, Note_off_c, 6, 55, 0
14, 12136, Note_off_c, 6, 60, 0
14, 12136, Note_off_c, 6, 64, 0
14, 12143, Note_on_c, 6, 55, 59
14, 12146, Note_on_c, 6, 60, 60
14, 12149, Note_on_c, 6, 64, 58
14, 12181, Note_off_c, 6, 55, 0
14, 12182, Note_off_c, 6, 60, 0
14, 12182, Note_off_c, 6, 64, 0
14, 12191, Note_on_c, 6, 58, 64
14, 12194, Note_on_c, 6, 60, 60
14, 12196, Note_on_c, 6, 64, 59
14, 12230, Note_off_c, 6, 58, 0
14, 12231, Note_off_c, 6, 60, 0
14, 12232, Note_off_c, 6, 64, 0
14, 12238, Note_on_c, 6, 58, 60
14, 12240, Note_on_c, 6, 60, 57
14, 12242, Note_on_c, 6, 64, 57
14, 12279, Note_off_c, 6, 58, 0
14, 12280, Note_off_c, 6, 60, 0
14, 12281, Note_off_c, 6, 64, 0
14, 12288, Note_on_c, 6, 55, 58
14, 12292, Note_on_c, 6, 60, 60
14, 12293, Note_on_c, 6, 64, 58
14, 12325, Note_off_c, 6, 55, 0
14, 12326, Note_off_c, 6, 60, 0
14, 12326, Note_off_c, 6, 64, 0
14, 12337, Note_on_c, 6, 55, 56
14, 12339, Note_on_c, 6, 60, 57
14, 12341, Note_on_c, 6, 64, 56
14, 12375, Note_off_c, 6, 55, 0
14, 12375, Note_off_c, 6, 60, 0
14, 12376, Note_off_c, 6, 64, 0
14, 12382, Note_on_c, 6, 58, 68
14, 12385, Note_on_c, 6, 60, 56
14, 12386, Note_on_c, 6, 64, 57
14, 12424, Note_off_c, 6, 58, 0
14, 12424, Note_off_c, 6, 60, 0
14, 12425, Note_off_c, 6, 64, 0
14, 12432, Note_on_c, 6, 58, 57
14, 12435, Note_on_c, 6, 60, 59
14, 12437, Note_on_c, 6, 64, 57
14, 12469, Note_off_c, 6, 58, 0
14, 12470, Note_off_c, 6, 60, 0
14, 12471, Note_off_c, 6, 64, 0
14, 12477, Note_on_c, 6, 55, 57
14, 12479, Note_on_c, 6, 60, 56
14, 12482, Note_on_c, 6, 64, 59
14, 12519, Note_off_c, 6, 55, 0
14, 12519, Note_off_c, 6, 60, 0
14, 12520, Note_off_c, 6, 64, 0
14, 12526, Note_on_c, 6, 55, 59
14, 12529, Note_on_c, 6, 60, 59
14, 12531, Note_on_c, 6, 64, 56
14, 12567, Note_off_c, 6, 55, 0
14, 12568, Note_off_c, 6, 60, 0
14, 12568, Note_off_c, 6, 64, 0
14, 12576, Note_on_c, 6, 58, 67
14, 12578, Note_on_c, 6, 60, 58
14, 12580, Note_on_c, 6, 64, 58
14, 12614, Note_off_c, 6, 58, 0
14, 12614, Note_off_c, 6, 60, 0
14, 12615, Note_off_c, 6, 64, 0
14, 12622, Note_on_c, 6, 58, 58
14, 12623, Note_on_c, 6, 60, 59
14, 12626, Note_on_c, 6, 64, 56
14, 12662, Note_off_c, 6, 58, 0
14, 12663, Note_off_c, 6, 60, 0
14, 12663, Note_off_c, 6, 64, 0
14, 12670, Note_on_c, 6, 55, 60
14, 12672, Note_on_c, 6, 59, 58
14, 12677, Note_on_c, 6, 62, 57
14, 12709, Note_off_c, 6, 55, 0
14, 12710, Note_off_c, 6, 59, 0
14, 12710, Note_off_c, 6, 62, 0
14, 12718, Note_on_c, 6, 55, 56
14, 12720, Note_on_c, 6, 59, 59
14, 12722, Note_on_c, 6, 62, 56
14, 12758, Note_off_c, 6, 55, 0
14, 12758, Note_off_c, 6, 59, 0
14, 12759, Note_off_c, 6, 62, 0
14, 12766, Note_on_c, 6, 55, 66
14, 12768, Note_on_c, 6, 59, 60
14, 12770, Note_on_c, 6, 64, 58
14, 12807, Note_off_c, 6, 55, 0
14, 12807, Note_off_c, 6, 59, 0
14, 12808, Note_off_c, 6, 64, 0
14, 12814, Note_on_c, 6, 55, 60
14, 12817, Note_on_c, 6, 59, 57
14, 12820, Note_on_c, 6, 64, 60
14, 12856, Note_off_c, 6, 55, 0
14, 12857, Note_off_c, 6, 59, 0
14, 12857, Note_off_c, 6, 64, 0
14, 12864, Note_on_c, 6, 55, 59
14, 12866, Note_on_c, 6, 59, 59
14, 12868, Note_on_c, 6, 62, 56
14, 12902, Note_off_c, 6, 55, 0
14, 12902, Note_off_c, 6, 59, 0
14, 12903, Note_off_c, 6, 62, 0
14, 12909, Note_on_c, 6, 55, 60
14, 12912, Note_on_c, 6, 59, 60
14, 12915, Note_on_c, 6, 62, 56
14, 12951, Note_off_c, 6, 55, 0
14, 12952, Note_off_c, 6, 59, 0
14, 12952, Note_off_c, 6, 62, 0
14, 12959, Note_on_c, 6, 55, 64
14, 12962, Note_on_c, 6, 59, 60
14, 12964, Note_on_c, 6, 64, 56
14, 12997, Note_off_c, 6, 55, 0
14, 12997, Note_off_c, 6, 59, 0
14, 12998, Note_off_c, 6, 64, 0
14, 13007, Note_on_c, 6, 55, 56
14, 13010, Note_on_c, 6, 59, 60
14, 13011, Note_on_c, 6, 64, 59
14, 13046, Note_off_c, 6, 55, 0
14, 13047, Note_off_c, 6, 59, 0
14, 13047, Note_off_c, 6, 64, 0
14, 13054, Note_on_c, 6, 55, 57
14, 13059, Note_on_c, 6, 59, 56
14, 13061, Note_on_c, 6, 62, 59
14, 13096, Note_off_c, 6, 55, 0
14, 13097, Note_off_c, 6, 59, 0
14, 13098, Note_off_c, 6, 62, 0
14, 13107, Note_on_c, 6, 55, 59
14, 13109, Note_on_c, 6, 59, 59
14, 13113, Note_on_c, 6, 62, 56
14, 13141, Note_off_c, 6, 55, 0
14, 13142, Note_off_c, 6, 59, 0
14, 13142, Note_off_c, 6, 62, 0
14, 13149, Note_on_c, 6, 55, 64
14, 13152, Note_on_c, 6, 59, 57
14, 13154, Note_on_c, 6, 64, 57
14, 13190, Note_off_c, 6, 55, 0
14, 13191, Note_off_c, 6, 59, 0
14, 13192, Note_off_c, 6, 64, 0
14, 13198, Note_on_c, 6, 55, 57
14, 13201, Note_on_c, 6, 59, 60
14, 13203, Note_on_c, 6, 64, 56
14, 13239, Note_off_c, 6, 55, 0
14, 13240, Note_off_c, 6, 59, 0
14, 13241, Note_off_c, 6, 64, 0
14, 13247, Note_on_c, 6, 55, 57
14, 13250, Note_on_c, 6, 59, 56
14, 13252, Note_on_c, 6, 62, 56
14, 13285, Note_off_c, 6, 55, 0
14, 13286, Note_off_c, 6, 59, 0
14, 13286, Note_off_c, 6, 62, 0
14, 13295, Note_on_c, 6, 55, 57
14, 13297, Note_on_c, 6, 59, 59
14, 13299, Note_on_c, 6, 62, 59
14, 13334, Note_off_c, 6, 55, 0
14, 13335, Note_off_c, 6, 59, 0
14, 13336, Note_off_c, 6, 62, 0
14, 13342, Note_on_c, 6, 55, 66
14, 13346, Note_on_c, 6, 59, 59
14, 13348, Note_on_c, 6, 64, 58
14, 13381, Note_off_c, 6, 55, 0
14, 13382, Note_off_c, 6, 59, 0
14, 13383, Note_off_c, 6, 64, 0
14, 13390, Note_on_c, 6, 55, 57
14, 13391, Note_on_c, 6, 59, 59
14, 13394, Note_on_c, 6, 64, 58
14, 13429, Note_off_c, 6, 55, 0
14, 13430, Note_off_c, 6, 59, 0
14, 13431, Note_off_c, 6, 64, 0
14, 13440, Note_on_c, 6, 55, 56
14, 13445, Note_on_c, 6, 60, 56
14, 13447, Note_on_c, 6, 64, 60
14, 13479, Note_off_c, 6, 55, 0
14, 13479, Note_off_c, 6, 60, 0
14, 13480, Note_off_c, 6, 64, 0
14, 13487, Note_on_c, 6, 55, 57
14, 13489, Note_on_c, 6, 60, 57
14, 13494, Note_on_c, 6, 64, 56
14, 13528, Note_off_c, 6, 55, 0
14, 13529, Note_off_c, 6, 60, 0
14, 13530, Note_off_c, 6, 64, 0
14, 13536, Note_on_c, 6, 58, 67
14, 13538, Note_on_c, 6, 60, 59
14, 13541, Note_on_c, 6, 64, 57
14, 13574, Note_off_c, 6, 58, 0
14, 13574, Note_off_c, 6, 60, 0
14, 13575, Note_off_c, 6, 64, 0
14, 13581, Note_on_c, 6, 58, 60
14, 13584, Note_on_c, 6, 60, 56
14, 13586, Note_on_c, 6, 64, 60
14, 13623, Note_off_c, 6, 58, 0
14, 13623, Note_off_c, 6, 60, 0
14, 13624, Note_off_c, 6, 64, 0
14, 13630, Note_on_c, 6, 55, 56
14, 13633, Note_on_c, 6, 60, 58
14, 13635, Note_on_c, 6, 64, 60
14, 13672, Note_off_c, 6, 55, 0
14, 13673, Note_off_c, 6, 60, 0
14, 13674, Note_off_c, 6, 64, 0
14, 13680, Note_on_c, 6, 55, 58
14, 13683, Note_on_c, 6, 60, 56
14, 13686, Note_on_c, 6, 64, 56
14, 13718, Note_off_c, 6, 55, 0
14, 13718, Note_off_c, 6, 60, 0
14, 13719, Note_off_c, 6, 64, 0
14, 13725, Note_on_c, 6, 58, 68
14, 13728, Note_on_c, 6, 60, 60
14, 13730, Note_on_c, 6, 64, 56
14, 13767, Note_off_c, 6, 58, 0
14, 13768, Note_off_c, 6, 60, 0
14, 13768, Note_off_c, 6, 64, 0
14, 13775, Note_on_c, 6, 58, 56
14, 13777, Note_on_c, 6, 60, 60
14, 13779, Note_on_c, 6, 64, 59
14, 13816, Note_off_c, 6, 58, 0
14, 13817, Note_off_c, 6, 60, 0
14, 13818, Note_off_c, 6, 64, 0
14, 13827, Note_on_c, 6, 55, 57
14, 13830, Note_on_c, 6, 60, 58
14, 13831, Note_on_c, 6, 64, 60
14, 13862, Note_off_c, 6, 55, 0
14, 13863, Note_off_c, 6, 60, 0
14, 13863, Note_off_c, 6, 64, 0
14, 13870, Note_on_c, 6, 55, 57
14, 13874, Note_on_c, 6, 60, 59
14, 13875, Note_on_c, 6, 64, 59
14, 13912, Note_off_c, 6, 55, 0
14, 13913, Note_off_c, 6, 60, 0
14, 13914, Note_off_c, 6, 64, 0
14, 13920, Note_on_c, 6, 58, 67
14, 13922, Note_on_c, 6, 60, 56
14, 13925, Note_on_c, 6, 64, 58
14, 13957, Note_off_c, 6, 58, 0
14, 13958, Note_off_c, 6, 60, 0
14, 13958, Note_off_c, 6, 64, 0
14, 13967, Note_on_c, 6, 58, 59
14, 13969, Note_on_c, 6, 60, 56
14, 13971, Note_on_c, 6, 64, 59
14, 14006, Note_off_c, 6, 58, 0
14, 14007, Note_off_c, 6, 60, 0
14, 14007, Note_off_c, 6, 64, 0
14, 14014, Note_on_c, 6, 55, 59
14, 14016, Note_on_c, 6, 60, 60
14, 14018, Note_on_c, 6, 64, 59
14, 14054, Note_off_c, 6, 55, 0
14, 14055, Note_off_c, 6, 60, 0
14, 14056, Note_off_c, 6, 64, 0
14, 14062, Note_on_c, 6, 55, 58
14, 14064, Note_on_c, 6, 60, 59
14, 14066, Note_on_c, 6, 64, 59
14, 14101, Note_off_c, 6, 55, 0
14, 14102, Note_off_c, 6, 60, 0
14, 14103, Note_off_c, 6, 64, 0
14, 14109, Note_on_c, 6, 58, 68
14, 14112, Note_on_c, 6, 60, 60
14, 14114, Note_on_c, 6, 64, 56
14, 14149, Note_off_c, 6, 58, 0
14, 14150, Note_off_c, 6, 60, 0
14, 14151, Note_off_c, 6, 64, 0
14, 14157, Note_on_c, 6, 58, 59
14, 14159, Note_on_c, 6, 60, 56
14, 14161, Note_on_c, 6, 64, 58
14, 14199, Note_off_c, 6, 58, 0
14, 14200, Note_off_c, 6, 60, 0
14, 14201, Note_off_c, 6, 64, 0
14, 14208, Note_on_c, 6, 55, 57
14, 14210, Note_on_c, 6, 59, 60
14, 14213, Note_on_c, 6, 62, 57
14, 14245, Note_off_c, 6, 55, 0
14, 14246, Note_off_c, 6, 59, 0
14, 14246, Note_off_c, 6, 62, 0
14, 14254, Note_on_c, 6, 55, 59
14, 14256, Note_on_c, 6, 59, 57
14, 14258, Note_on_c, 6, 62, 60
14, 14295, Note_off_c, 6, 55, 0
14, 14295, Note_off_c, 6, 59, 0
14, 14296, Note_off_c, 6, 62, 0
14, 14303, Note_on_c, 6, 55, 64
14, 14305, Note_on_c, 6, 59, 60
14, 14309, Note_on_c, 6, 64, 57
14, 14343, Note_off_c, 6, 55, 0
14, 14344, Note_off_c, 6, 59, 0
14, 14345, Note_off_c, 6, 64, 0
14, 14351, Note_on_c, 6, 55, 56
14, 14354, Note_on_c, 6, 59, 60
14, 14356, Note_on_c, 6, 64, 59
14, 14389, Note_off_c, 6, 55, 0
14, 14390, Note_off_c, 6, 59, 0
14, 14391, Note_off_c, 6, 64, 0
14, 14397, Note_on_c, 6, 55, 57
14, 14400, Note_on_c, 6, 59, 60
14, 14402, Note_on_c, 6, 62, 61
14, 14439, Note_off_c, 6, 55, 0
14, 14439, Note_off_c, 6, 59, 0
14, 14440, Note_off_c, 6, 62, 0
14, 14446, Note_on_c, 6, 55, 58
14, 14450, Note_on_c, 6, 59, 57
14, 14452, Note_on_c, 6, 62, 57
14, 14488, Note_off_c, 6, 55, 0
14, 14489, Note_off_c, 6, 59, 0
14, 14489, Note_off_c, 6, 62, 0
14, 14496, Note_on_c, 6, 55, 66
14, 14498, Note_on_c, 6, 59, 60
14, 14500, Note_on_c, 6, 64, 59
14, 14533, Note_off_c, 6, 55, 0
14, 14534, Note_off_c, 6, 59, 0
14, 14535, Note_off_c, 6, 64, 0
14, 14541, Note_on_c, 6, 55, 59
14, 14544, Note_on_c, 6, 59, 57
14, 14546, Note_on_c, 6, 64, 56
14, 14583, Note_off_c, 6, 55, 0
14, 14584, Note_off_c, 6, 59, 0
14, 14584, Note_off_c, 6, 64, 0
14, 14590, Note_on_c, 6, 55, 57
14, 14593, Note_on_c, 6, 59, 56
14, 14595, Note_on_c, 6, 62, 56
14, 14632, Note_off_c, 6, 55, 0
14, 14633, Note_off_c, 6, 59, 0
14, 14634, Note_off_c, 6, 62, 0
14, 14642, Note_on_c, 6, 55, 59
14, 14645, Note_on_c, 6, 59, 57
14, 14646, Note_on_c, 6, 62, 60
14, 14678, Note_off_c, 6, 55, 0
14, 14679, Note_off_c, 6, 59, 0
14, 14679, Note_off_c, 6, 62, 0
14, 14687, Note_on_c, 6, 55, 66
14, 14689, Note_on_c, 6, 59, 58
14, 14691, Note_on_c, 6, 64, 60
14, 14727, Note_off_c, 6, 55, 0
14, 14728, Note_off_c, 6, 59, 0
14, 14728, Note_off_c, 6, 64, 0
14, 14735, Note_on_c, 6, 55, 57
14, 14737, Note_on_c, 6, 59, 60
14, 14739, Note_on_c, 6, 64, 57
14, 14774, Note_off_c, 6, 55, 0
14, 14775, Note_off_c, 6, 59, 0
14, 14775, Note_off_c, 6, 64, 0
14, 14782, Note_on_c, 6, 55, 60
14, 14784, Note_on_c, 6, 59, 58
14, 14787, Note_on_c, 6, 62, 60
14, 14822, Note_off_c, 6, 55, 0
14, 14822, Note_off_c, 6, 59, 0
14, 14823, Note_off_c, 6, 62, 0
14, 14829, Note_on_c, 6, 55, 56
14, 14832, Note_on_c, 6, 59, 59
14, 14834, Note_on_c, 6, 62, 59
14, 14869, Note_off_c, 6, 55, 0
14, 14869, Note_off_c, 6, 59, 0
14, 14870, Note_off_c, 6, 62, 0
14, 14877, Note_on_c, 6, 55, 65
14, 14879, Note_on_c, 6, 59, 56
14, 14882, Note_on_c, 6, 64, 56
14, 14917, Note_off_c, 6, 55, 0
14, 14918, Note_off_c, 6, 59, 0
14, 14918, Note_off_c, 6, 64, 0
14, 14925, Note_on_c, 6, 55, 60
14, 14927, Note_on_c, 6, 59, 59
14, 14929, Note_on_c, 6, 64, 60
14, 14966, Note_off_c, 6, 55, 0
14, 14967, Note_off_c, 6, 59, 0
14, 14967, Note_off_c, 6, 64, 0
14, 14973, Note_on_c, 6, 54, 58
14, 14976, Note_on_c, 6, 57, 60
14, 14981, Note_on_c, 6, 62, 58
14, 15016, Note_off_c, 6, 54, 0
14, 15016, Note_off_c, 6, 57, 0
14, 15017, Note_off_c, 6, 62, 0
14, 15027, Note_on_c, 6, 54, 60
14, 15029, Note_on_c, 6, 57, 60
14, 15031, Note_on_c, 6, 62, 57
14, 15061, Note_off_c, 6, 54, 0
14, 15062, Note_off_c, 6, 57, 0
14, 15062, Note_off_c, 6, 62, 0
14, 15072, Note_on_c, 6, 54, 64
14, 15074, Note_on_c, 6, 60, 59
14, 15076, Note_on_c, 6, 62, 57
14, 15110, Note_off_c, 6, 54, 0
14, 15111, Note_off_c, 6, 60, 0
14, 15111, Note_off_c, 6, 62, 0
14, 15118, Note_on_c, 6, 54, 59
14, 15120, Note_on_c, 6, 60, 58
14, 15122, Note_on_c, 6, 62, 58
14, 15159, Note_off_c, 6, 54, 0
14, 15160, Note_off_c, 6, 60, 0
14, 15161, Note_off_c, 6, 62, 0
14, 15171, Note_on_c, 6, 54, 60
14, 15173, Note_on_c, 6, 57, 60
14, 15175, Note_on_c, 6, 62, 58
14, 15205, Note_off_c, 6, 54, 0
14, 15206, Note_off_c, 6, 57, 0
14, 15207, Note_off_c, 6, 62, 0
14, 15217, Note_on_c, 6, 54, 56
14, 15219, Note_on_c, 6, 57, 59
14, 15221, Note_on_c, 6, 62, 59
14, 15254, Note_off_c, 6, 54, 0
14, 15255, Note_off_c, 6, 57, 0
14, 15256, Note_off_c, 6, 62, 0
14, 15262, Note_on_c, 6, 54, 64
14, 15264, Note_on_c, 6, 60, 59
14, 15266, Note_on_c, 6, 62, 59
14, 15304, Note_off_c, 6, 54, 0
14, 15305, Note_off_c, 6, 60, 0
14, 15305, Note_off_c, 6, 62, 0
14, 15312, Note_on_c, 6, 54, 60
14, 15314, Note_on_c, 6, 60, 60
14, 15316, Note_on_c, 6, 62, 56
14, 15349, Note_off_c, 6, 54, 0
14, 15350, Note_off_c, 6, 60, 0
14, 15351, Note_off_c, 6, 62, 0
14, 15361, Note_on_c, 6, 55, 58
14, 15363, Note_on_c, 6, 60, 56
14, 15365, Note_on_c, 6, 64, 60
14, 15399, Note_off_c, 6, 55, 0
14, 15400, Note_off_c, 6, 60, 0
14, 15401, Note_off_c, 6, 64, 0
14, 15407, Note_on_c, 6, 55, 57
14, 15409, Note_on_c, 6, 60, 58
14, 15411, Note_on_c, 6, 64, 60
14, 15447, Note_off_c, 6, 55, 0
14, 15448, Note_off_c, 6, 60, 0
14, 15449, Note_off_c, 6, 64, 0
14, 15455, Note_on_c, 6, 58, 68
14, 15457, Note_on_c, 6, 60, 56
14, 15459, Note_on_c, 6, 64, 56
14, 15494, Note_off_c, 6, 58, 0
14, 15494, Note_off_c, 6, 60, 0
14, 15495, Note_off_c, 6, 64, 0
14, 15502, Note_on_c, 6, 58, 56
14, 15504, Note_on_c, 6, 60, 59
14, 15506, Note_on_c, 6, 64, 60
14, 15542, Note_off_c, 6, 58, 0
14, 15543, Note_off_c, 6, 60, 0
14, 15543, Note_off_c, 6, 64, 0
14, 15550, Note_on_c, 6, 55, 58
14, 15552, Note_on_c, 6, 60, 59
14, 15555, Note_on_c, 6, 64, 57
14, 15589, Note_off_c, 6, 55, 0
14, 15590, Note_off_c, 6, 60, 0
14, 15590, Note_off_c, 6, 64, 0
14, 15597, Note_on_c, 6, 55, 56
14, 15599, Note_on_c, 6, 60, 60
14, 15601, Note_on_c, 6, 64, 60
14, 15638, Note_off_c, 6, 55, 0
14, 15638, Note_off_c, 6, 60, 0
14, 15639, Note_off_c, 6, 64, 0
14, 15645, Note_on_c, 6, 58, 65
14, 15648, Note_on_c, 6, 60, 57
14, 15650, Note_on_c, 6, 64, 60
14, 15687, Note_off_c, 6, 58, 0
14, 15688, Note_off_c, 6, 60, 0
14, 15688, Note_off_c, 6, 64, 0
14, 15695, Note_on_c, 6, 58, 60
14, 15697, Note_on_c, 6, 60, 59
14, 15700, Note_on_c, 6, 64, 60
14, 15736, Note_off_c, 6, 58, 0
14, 15737, Note_off_c, 6, 60, 0
14, 15738, Note_off_c, 6, 64, 0
14, 15746, Note_on_c, 6, 55, 64
14, 15749, Note_on_c, 6, 59, 56
14, 15751, Note_on_c, 6, 62, 58
14, 15894, Note_off_c, 6, 55, 0
14, 15895, Note_off_c, 6, 59, 0
14, 15896, Note_off_c, 6, 62, 0
14, 16128, Note_on_c, 6, 55, 64
14, 16130, Note_on_c, 6, 59, 56
14, 16132, Note_on_c, 6, 62, 57
14, 16206, Note_off_c, 6, 55, 0
14, 16207, Note_off_c, 6, 59, 0
14, 16208, Note_off_c, 6, 62, 0
14, 16222, Note_on_c, 6, 55, 65
14, 16225, Note_on_c, 6, 59, 60
14, 16228, Note_on_c, 6, 62, 58
14, 16301, Note_off_c, 6, 55, 0
14, 16302, Note_off_c, 6, 59, 0
14, 16303, Note_off_c, 6, 62, 0
14, 16317, Note_on_c, 6, 55, 65
14, 16321, Note_on_c, 6, 59, 60
14, 16323, Note_on_c, 6, 62, 57
14, 16397, Note_off_c, 6, 55, 0
14, 16398, Note_off_c, 6, 59, 0
14, 16399, Note_off_c, 6, 62, 0
14, 16510, Note_on_c, 6, 55, 64
14, 16512, Note_on_c, 6, 59, 60
14, 16515, Note_on_c, 6, 62, 57
14, 16552, Note_off_c, 6, 55, 0
14, 16553, Note_off_c, 6, 59, 0
14, 16553, Note_off_c, 6, 62, 0
14, 16560, Note_on_c, 6, 55, 56
14, 16562, Note_on_c, 6, 59, 56
14, 16564, Note_on_c, 6, 62, 58
14, 16598, Note_off_c, 6, 55, 0
14, 16598, Note_off_c, 6, 59, 0
14, 16599, Note_off_c, 6, 62, 0
14, 16605, Note_on_c, 6, 55, 57
14, 16608, Note_on_c, 6, 59, 59
14, 16610, Note_on_c, 6, 62, 58
14, 16647, Note_off_c, 6, 55, 0
14, 16648, Note_off_c, 6, 59, 0
14, 16649, Note_off_c, 6, 62, 0
14, 16655, Note_on_c, 6, 55, 56
14, 16657, Note_on_c, 6, 59, 60
14, 16659, Note_on_c, 6, 62, 58
14, 16693, Note_off_c, 6, 55, 0
14, 16693, Note_off_c, 6, 59, 0
14, 16694, Note_off_c, 6, 62, 0
14, 16703, Note_on_c, 6, 55, 67
14, 16707, Note_on_c, 6, 59, 56
14, 16709, Note_on_c, 6, 62, 59
14, 16742, Note_off_c, 6, 55, 0
14, 16743, Note_off_c, 6, 59, 0
14, 16743, Note_off_c, 6, 62, 0
14, 16750, Note_on_c, 6, 55, 59
14, 16752, Note_on_c, 6, 59, 57
14, 16754, Note_on_c, 6, 62, 59
14, 16792, Note_off_c, 6, 55, 0
14, 16792, Note_off_c, 6, 59, 0
14, 16793, Note_off_c, 6, 62, 0
14, 16799, Note_on_c, 6, 55, 58
14, 16802, Note_on_c, 6, 59, 57
14, 16804, Note_on_c, 6, 62, 59
14, 16837, Note_off_c, 6, 55, 0
14, 16838, Note_off_c, 6, 59, 0
14, 16839, Note_off_c, 6, 62, 0
14, 16847, Note_on_c, 6, 55, 57
14, 16849, Note_on_c, 6, 59, 57
14, 16851, Note_on_c, 6, 62, 57
14, 16886, Note_off_c, 6, 55, 0
14, 16887, Note_off_c, 6, 59, 0
14, 16888, Note_off_c, 6, 62, 0
14, 16894, Note_on_c, 6, 55, 68
14, 16897, Note_on_c, 6, 59, 59
14, 16902, Note_on_c, 6, 62, 60
14, 16934, Note_off_c, 6, 55, 0
14, 16935, Note_off_c, 6, 59, 0
14, 16936, Note_off_c, 6, 62, 0
14, 16942, Note_on_c, 6, 55, 59
14, 16944, Note_on_c, 6, 59, 56
14, 16946, Note_on_c, 6, 62, 58
14, 16981, Note_off_c, 6, 55, 0
14, 16982, Note_off_c, 6, 59, 0
14, 16983, Note_off_c, 6, 62, 0
14, 16989, Note_on_c, 6, 55, 57
14, 16991, Note_on_c, 6, 59, 57
14, 16993, Note_on_c, 6, 62, 56
14, 17029, Note_off_c, 6, 55, 0
14, 17030, Note_off_c, 6, 59, 0
14, 17031, Note_off_c, 6, 62, 0
14, 17037, Note_on_c, 6, 55, 58
14, 17039, Note_on_c, 6, 59, 56
14, 17041, Note_on_c, 6, 62, 56
14, 17079, Note_off_c, 6, 55, 0
14, 17080, Note_off_c, 6, 59, 0
14, 17081, Note_off_c, 6, 62, 0
14, 17087, Note_on_c, 6, 55, 66
14, 17090, Note_on_c, 6, 59, 58
14, 17092, Note_on_c, 6, 62, 58
14, 17125, Note_off_c, 6, 55, 0
14, 17126, Note_off_c, 6, 59, 0
14, 17127, Note_off_c, 6, 62, 0
14, 17133, Note_on_c, 6, 55, 57
14, 17135, Note_on_c, 6, 59, 60
14, 17137, Note_on_c, 6, 62, 57
14, 17174, Note_off_c, 6, 55, 0
14, 17175, Note_off_c, 6, 59, 0
14, 17176, Note_off_c, 6, 62, 0
14, 17182, Note_on_c, 6, 55, 59
14, 17185, Note_on_c, 6, 59, 58
14, 17188, Note_on_c, 6, 62, 60
14, 17224, Note_off_c, 6, 55, 0
14, 17224, Note_off_c, 6, 59, 0
14, 17225, Note_off_c, 6, 62, 0
14, 17232, Note_on_c, 6, 55, 57
14, 17234, Note_on_c, 6, 59, 57
14, 17238, Note_on_c, 6, 62, 56
14, 17270, Note_off_c, 6, 55, 0
14, 17270, Note_off_c, 6, 59, 0
14, 17271, Note_off_c, 6, 62, 0
14, 17282, Note_on_c, 6, 55, 68
14, 17284, Note_on_c, 6, 59, 58
14, 17286, Note_on_c, 6, 62, 58
14, 17318, Note_off_c, 6, 55, 0
14, 17319, Note_off_c, 6, 59, 0
14, 17320, Note_off_c, 6, 62, 0
14, 17326, Note_on_c, 6, 55, 59
14, 17329, Note_on_c, 6, 59, 59
14, 17331, Note_on_c, 6, 62, 57
14, 17368, Note_off_c, 6, 55, 0
14, 17369, Note_off_c, 6, 59, 0
14, 17369, Note_off_c, 6, 62, 0
14, 17377, Note_on_c, 6, 55, 58
14, 17379, Note_on_c, 6, 59, 58
14, 17381, Note_on_c, 6, 62, 60
14, 17414, Note_off_c, 6, 55, 0
14, 17414, Note_off_c, 6, 59, 0
14, 17415, Note_off_c, 6, 62, 0
14, 17422, Note_on_c, 6, 55, 60
14, 17425, Note_on_c, 6, 59, 56
14, 17427, Note_on_c, 6, 62, 57
14, 17463, Note_off_c, 6, 55, 0
14, 17464, Note_off_c, 6, 59, 0
14, 17464, Note_off_c, 6, 62, 0
14, 17471, Note_on_c, 6, 55, 68
14, 17473, Note_on_c, 6, 59, 58
14, 17475, Note_on_c, 6, 62, 56
14, 17512, Note_off_c, 6, 55, 0
14, 17513, Note_off_c, 6, 59, 0
14, 17513, Note_off_c, 6, 62, 0
14, 17520, Note_on_c, 6, 55, 56
14, 17522, Note_on_c, 6, 59, 58
14, 17524, Note_on_c, 6, 62, 56
14, 17558, Note_off_c, 6, 55, 0
14, 17559, Note_off_c, 6, 59, 0
14, 17559, Note_off_c, 6, 62, 0
14, 17566, Note_on_c, 6, 55, 57
14, 17568, Note_on_c, 6, 59, 60
14, 17570, Note_on_c, 6, 62, 57
14, 17607, Note_off_c, 6, 55, 0
14, 17607, Note_off_c, 6, 59, 0
14, 17608, Note_off_c, 6, 62, 0
14, 17615, Note_on_c, 6, 55, 58
14, 17617, Note_on_c, 6, 59, 60
14, 17619, Note_on_c, 6, 62, 60
14, 17653, Note_off_c, 6, 55, 0
14, 17653, Note_off_c, 6, 59, 0
14, 17654, Note_off_c, 6, 62, 0
14, 17661, Note_on_c, 6, 53, 67
14, 17663, Note_on_c, 6, 55, 57
14, 17668, Note_on_c, 6, 59, 56
14, 17702, Note_off_c, 6, 53, 0
14, 17703, Note_off_c, 6, 55, 0
14, 17703, Note_off_c, 6, 59, 0
14, 17710, Note_on_c, 6, 53, 59
14, 17712, Note_on_c, 6, 55, 57
14, 17714, Note_on_c, 6, 59, 56
14, 17749, Note_off_c, 6, 53, 0
14, 17750, Note_off_c, 6, 55, 0
14, 17750, Note_off_c, 6, 59, 0
14, 17757, Note_on_c, 6, 53, 57
14, 17760, Note_on_c, 6, 55, 58
14, 17761, Note_on_c, 6, 59, 56
14, 17797, Note_off_c, 6, 53, 0
14, 17797, Note_off_c, 6, 55, 0
14, 17798, Note_off_c, 6, 59, 0
14, 17805, Note_on_c, 6, 53, 60
14, 17807, Note_on_c, 6, 55, 60
14, 17809, Note_on_c, 6, 59, 60
14, 17846, Note_off_c, 6, 53, 0
14, 17847, Note_off_c, 6, 55, 0
14, 17848, Note_off_c, 6, 59, 0
14, 17854, Note_on_c, 6, 53, 64
14, 17856, Note_on_c, 6, 55, 56
14, 17859, Note_on_c, 6, 59, 56
14, 17895, Note_off_c, 6, 53, 0
14, 17896, Note_off_c, 6, 55, 0
14, 17897, Note_off_c, 6, 59, 0
14, 17904, Note_on_c, 6, 53, 58
14, 17906, Note_on_c, 6, 55, 57
14, 17910, Note_on_c, 6, 59, 60
14, 17941, Note_off_c, 6, 53, 0
14, 17942, Note_off_c, 6, 55, 0
14, 17942, Note_off_c, 6, 59, 0
14, 17952, Note_on_c, 6, 53, 59
14, 17954, Note_on_c, 6, 55, 59
14, 17956, Note_on_c, 6, 59, 56
14, 17990, Note_off_c, 6, 53, 0
14, 17991, Note_off_c, 6, 55, 0
14, 17992, Note_off_c, 6, 59, 0
14, 17998, Note_on_c, 6, 53, 57
14, 18001, Note_on_c, 6, 55, 57
14, 18003, Note_on_c, 6, 59, 60
14, 18040, Note_off_c, 6, 53, 0
14, 18040, Note_off_c, 6, 55, 0
14, 18042, Note_off_c, 6, 59, 0
14, 18053, Note_on_c, 6, 58, 65
14, 18055, Note_on_c, 6, 62, 59
14, 18058, Note_on_c, 6, 64, 61
14, 18085, Note_off_c, 6, 58, 0
14, 18086, Note_off_c, 6, 62, 0
14, 18086, Note_off_c, 6, 64, 0
14, 18096, Note_on_c, 6, 58, 59
14, 18099, Note_on_c, 6, 62, 57
14, 18101, Note_on_c, 6, 64, 57
14, 18135, Note_off_c, 6, 58, 0
14, 18135, Note_off_c, 6, 62, 0
14, 18136, Note_off_c, 6, 64, 0
14, 18142, Note_on_c, 6, 58, 58
14, 18144, Note_on_c, 6, 62, 57
14, 18146, Note_on_c, 6, 64, 60
14, 18184, Note_off_c, 6, 58, 0
14, 18185, Note_off_c, 6, 62, 0
14, 18185, Note_off_c, 6, 64, 0
14, 18192, Note_on_c, 6, 58, 57
14, 18193, Note_on_c, 6, 62, 59
14, 18196, Note_on_c, 6, 64, 58
14, 18229, Note_off_c, 6, 58, 0
14, 18230, Note_off_c, 6, 62, 0
14, 18231, Note_off_c, 6, 64, 0
14, 18237, Note_on_c, 6, 58, 65
14, 18239, Note_on_c, 6, 62, 60
14, 18242, Note_on_c, 6, 64, 59
14, 18279, Note_off_c, 6, 58, 0
14, 18279, Note_off_c, 6, 62, 0
14, 18280, Note_off_c, 6, 64, 0
14, 18287, Note_on_c, 6, 58, 58
14, 18289, Note_on_c, 6, 62, 58
14, 18291, Note_on_c, 6, 64, 57
14, 18327, Note_off_c, 6, 58, 0
14, 18328, Note_off_c, 6, 62, 0
14, 18329, Note_off_c, 6, 64, 0
14, 18336, Note_on_c, 6, 58, 59
14, 18338, Note_on_c, 6, 62, 56
14, 18340, Note_on_c, 6, 64, 60
14, 18374, Note_off_c, 6, 58, 0
14, 18374, Note_off_c, 6, 62, 0
14, 18375, Note_off_c, 6, 64, 0
14, 18382, Note_on_c, 6, 58, 60
14, 18383, Note_on_c, 6, 62, 56
14, 18386, Note_on_c, 6, 64, 57
14, 18422, Note_off_c, 6, 58, 0
14, 18422, Note_off_c, 6, 62, 0
14, 18423, Note_off_c, 6, 64, 0
14, 18430, Note_on_c, 6, 58, 64
14, 18432, Note_on_c, 6, 62, 59
14, 18435, Note_on_c, 6, 64, 58
14, 18469, Note_off_c, 6, 58, 0
14, 18470, Note_off_c, 6, 62, 0
14, 18470, Note_off_c, 6, 64, 0
14, 18477, Note_on_c, 6, 58, 56
14, 18479, Note_on_c, 6, 62, 60
14, 18481, Note_on_c, 6, 64, 56
14, 18518, Note_off_c, 6, 58, 0
14, 18518, Note_off_c, 6, 62, 0
14, 18519, Note_off_c, 6, 64, 0
14, 18525, Note_on_c, 6, 58, 60
14, 18528, Note_on_c, 6, 62, 58
14, 18529, Note_on_c, 6, 64, 58
14, 18567, Note_off_c, 6, 58, 0
14, 18568, Note_off_c, 6, 62, 0
14, 18569, Note_off_c, 6, 64, 0
14, 18575, Note_on_c, 6, 58, 56
14, 18577, Note_on_c, 6, 62, 60
14, 18581, Note_on_c, 6, 64, 57
14, 18613, Note_off_c, 6, 58, 0
14, 18613, Note_off_c, 6, 62, 0
14, 18614, Note_off_c, 6, 64, 0
14, 18623, Note_on_c, 6, 58, 68
14, 18627, Note_on_c, 6, 62, 56
14, 18629, Note_on_c, 6, 64, 59
14, 18662, Note_off_c, 6, 58, 0
14, 18663, Note_off_c, 6, 62, 0
14, 18663, Note_off_c, 6, 64, 0
14, 18669, Note_on_c, 6, 58, 59
14, 18672, Note_on_c, 6, 62, 57
14, 18674, Note_on_c, 6, 64, 56
14, 18711, Note_off_c, 6, 58, 0
14, 18712, Note_off_c, 6, 62, 0
14, 18713, Note_off_c, 6, 64, 0
14, 18719, Note_on_c, 6, 58, 60
14, 18722, Note_on_c, 6, 62, 57
14, 18724, Note_on_c, 6, 64, 59
14, 18757, Note_off_c, 6, 58, 0
14, 18758, Note_off_c, 6, 62, 0
14, 18759, Note_off_c, 6, 64, 0
14, 18768, Note_on_c, 6, 58, 59
14, 18770, Note_on_c, 6, 62, 57
14, 18772, Note_on_c, 6, 64, 59
14, 18806, Note_off_c, 6, 58, 0
14, 18807, Note_off_c, 6, 62, 0
14, 18807, Note_off_c, 6, 64, 0
14, 18814, Note_on_c, 6, 55, 66
14, 18817, Note_on_c, 6, 59, 59
14, 18821, Note_on_c, 6, 62, 60
14, 18855, Note_off_c, 6, 55, 0
14, 18856, Note_off_c, 6, 59, 0
14, 18857, Note_off_c, 6, 62, 0
14, 18865, Note_on_c, 6, 55, 56
14, 18867, Note_on_c, 6, 59, 56
14, 18870, Note_on_c, 6, 62, 59
14, 18901, Note_off_c, 6, 55, 0
14, 18902, Note_off_c, 6, 59, 0
14, 18903, Note_off_c, 6, 62, 0
14, 18909, Note_on_c, 6, 55, 58
14, 18913, Note_on_c, 6, 59, 56
14, 18915, Note_on_c, 6, 62, 58
14, 18950, Note_off_c, 6, 55, 0
14, 18951, Note_off_c, 6, 59, 0
14, 18952, Note_off_c, 6, 62, 0
14, 18958, Note_on_c, 6, 55, 58
14, 18961, Note_on_c, 6, 59, 59
14, 18962, Note_on_c, 6, 62, 57
14, 18999, Note_off_c, 6, 55, 0
14, 19000, Note_off_c, 6, 59, 0
14, 19001, Note_off_c, 6, 62, 0
14, 19008, Note_on_c, 6, 58, 68
14, 19011, Note_on_c, 6, 62, 59
14, 19013, Note_on_c, 6, 64, 60
14, 19045, Note_off_c, 6, 58, 0
14, 19046, Note_off_c, 6, 62, 0
14, 19047, Note_off_c, 6, 64, 0
14, 19053, Note_on_c, 6, 58, 60
14, 19055, Note_on_c, 6, 62, 56
14, 19057, Note_on_c, 6, 64, 57
14, 19095, Note_off_c, 6, 58, 0
14, 19095, Note_off_c, 6, 62, 0
14, 19096, Note_off_c, 6, 64, 0
14, 19103, Note_on_c, 6, 58, 57
14, 19105, Note_on_c, 6, 62, 59
14, 19107, Note_on_c, 6, 64, 59
14, 19142, Note_off_c, 6, 58, 0
14, 19142, Note_off_c, 6, 62, 0
14, 19143, Note_off_c, 6, 64, 0
14, 19150, Note_on_c, 6, 58, 59
14, 19152, Note_on_c, 6, 62, 57
14, 19154, Note_on_c, 6, 64, 60
14, 19189, Note_off_c, 6, 58, 0
14, 19190, Note_off_c, 6, 62, 0
14, 19191, Note_off_c, 6, 64, 0
14, 19197, Note_on_c, 6, 55, 65
14, 19200, Note_on_c, 6, 59, 60
14, 19202, Note_on_c, 6, 62, 57
14, 19239, Note_off_c, 6, 55, 0
14, 19239, Note_off_c, 6, 59, 0
14, 19240, Note_off_c, 6, 62, 0
14, 19247, Note_on_c, 6, 55, 56
14, 19249, Note_on_c, 6, 59, 57
14, 19251, Note_on_c, 6, 62, 57
14, 19288, Note_off_c, 6, 55, 0
14, 19289, Note_off_c, 6, 59, 0
14, 19289, Note_off_c, 6, 62, 0
14, 19296, Note_on_c, 6, 55, 58
14, 19298, Note_on_c, 6, 59, 58
14, 19300, Note_on_c, 6, 62, 59
14, 19333, Note_off_c, 6, 55, 0
14, 19334, Note_off_c, 6, 59, 0
14, 19335, Note_off_c, 6, 62, 0
14, 19344, Note_on_c, 6, 55, 60
14, 19347, Note_on_c, 6, 59, 58
14, 19349, Note_on_c, 6, 62, 56
14, 19383, Note_off_c, 6, 55, 0
14, 19384, Note_off_c, 6, 59, 0
14, 19384, Note_off_c, 6, 62, 0
14, 19391, Note_on_c, 6, 55, 66
14, 19393, Note_on_c, 6, 59, 56
14, 19395, Note_on_c, 6, 62, 56
14, 19432, Note_off_c, 6, 55, 0
14, 19433, Note_off_c, 6, 59, 0
14, 19434, Note_off_c, 6, 62, 0
14, 19440, Note_on_c, 6, 55, 59
14, 19442, Note_on_c, 6, 59, 60
14, 19444, Note_on_c, 6, 62, 56
14, 19478, Note_off_c, 6, 55, 0
14, 19478, Note_off_c, 6, 59, 0
14, 19479, Note_off_c, 6, 62, 0
14, 19485, Note_on_c, 6, 55, 58
14, 19488, Note_on_c, 6, 59, 58
14, 19490, Note_on_c, 6, 62, 56
14, 19527, Note_off_c, 6, 55, 0
14, 19528, Note_off_c, 6, 59, 0
14, 19529, Note_off_c, 6, 62, 0
14, 19535, Note_on_c, 6, 55, 57
14, 19537, Note_on_c, 6, 59, 56
14, 19539, Note_on_c, 6, 62, 57
14, 19573, Note_off_c, 6, 55, 0
14, 19574, Note_off_c, 6, 59, 0
14, 19574, Note_off_c, 6, 62, 0
14, 19585, Note_on_c, 6, 59, 64
14, 19587, Note_on_c, 6, 62, 58
14, 19591, Note_on_c, 6, 64, 56
14, 19661, Note_off_c, 6, 59, 0
14, 19662, Note_off_c, 6, 62, 0
14, 19662, Note_off_c, 6, 64, 0
14, 19967, Note_on_c, 6, 59, 64
14, 19970, Note_on_c, 6, 62, 60
14, 19974, Note_on_c, 6, 64, 56
14, 20048, Note_off_c, 6, 59, 0
14, 20048, Note_off_c, 6, 62, 0
14, 20049, Note_off_c, 6, 64, 0
14, 20350, Note_on_c, 6, 58, 64
14, 20352, Note_on_c, 6, 62, 60
14, 20355, Note_on_c, 6, 64, 58
14, 20431, Note_off_c, 6, 58, 0
14, 20432, Note_off_c, 6, 62, 0
14, 20432, Note_off_c, 6, 64, 0
14, 20733, Note_on_c, 6, 58, 66
14, 20735, Note_on_c, 6, 62, 56
14, 20738, Note_on_c, 6, 64, 58
14, 20814, Note_off_c, 6, 58, 0
14, 20815, Note_off_c, 6, 62, 0
14, 20815, Note_off_c, 6, 64, 0
14, 21121, Note_on_c, 6, 55, 57
14, 21123, Note_on_c, 6, 60, 59
14, 21126, Note_on_c, 6, 64, 60
14, 21159, Note_off_c, 6, 55, 0
14, 21160, Note_off_c, 6, 60, 0
14, 21161, Note_off_c, 6, 64, 0
14, 21167, Note_on_c, 6, 55, 57
14, 21169, Note_on_c, 6, 60, 57
14, 21171, Note_on_c, 6, 64, 60
14, 21207, Note_off_c, 6, 55, 0
14, 21208, Note_off_c, 6, 60, 0
14, 21209, Note_off_c, 6, 64, 0
14, 21216, Note_on_c, 6, 58, 65
14, 21218, Note_on_c, 6, 60, 59
14, 21220, Note_on_c, 6, 64, 58
14, 21254, Note_off_c, 6, 58, 0
14, 21254, Note_off_c, 6, 60, 0
14, 21255, Note_off_c, 6, 64, 0
14, 21262, Note_on_c, 6, 58, 58
14, 21264, Note_on_c, 6, 60, 57
14, 21266, Note_on_c, 6, 64, 57
14, 21302, Note_off_c, 6, 58, 0
14, 21303, Note_off_c, 6, 60, 0
14, 21303, Note_off_c, 6, 64, 0
14, 21310, Note_on_c, 6, 55, 60
14, 21312, Note_on_c, 6, 60, 59
14, 21314, Note_on_c, 6, 64, 58
14, 21349, Note_off_c, 6, 55, 0
14, 21350, Note_off_c, 6, 60, 0
14, 21350, Note_off_c, 6, 64, 0
14, 21357, Note_on_c, 6, 55, 58
14, 21359, Note_on_c, 6, 60, 60
14, 21363, Note_on_c, 6, 64, 59
14, 21398, Note_off_c, 6, 55, 0
14, 21399, Note_off_c, 6, 60, 0
14, 21399, Note_off_c, 6, 64, 0
14, 21406, Note_on_c, 6, 58, 68
14, 21408, Note_on_c, 6, 60, 58
14, 21410, Note_on_c, 6, 64, 57
14, 21447, Note_off_c, 6, 58, 0
14, 21448, Note_off_c, 6, 60, 0
14, 21449, Note_off_c, 6, 64, 0
14, 21455, Note_on_c, 6, 58, 57
14, 21457, Note_on_c, 6, 60, 56
14, 21460, Note_on_c, 6, 64, 57
14, 21493, Note_off_c, 6, 58, 0
14, 21493, Note_off_c, 6, 60, 0
14, 21494, Note_off_c, 6, 64, 0
14, 21504, Note_on_c, 6, 55, 58
14, 21506, Note_on_c, 6, 60, 58
14, 21508, Note_on_c, 6, 64, 58
14, 21542, Note_off_c, 6, 55, 0
14, 21543, Note_off_c, 6, 60, 0
14, 21543, Note_off_c, 6, 64, 0
14, 21550, Note_on_c, 6, 55, 60
14, 21553, Note_on_c, 6, 60, 56
14, 21555, Note_on_c, 6, 64, 60
14, 21592, Note_off_c, 6, 55, 0
14, 21592, Note_off_c, 6, 60, 0
14, 21593, Note_off_c, 6, 64, 0
14, 21599, Note_on_c, 6, 58, 65
14, 21602, Note_on_c, 6, 60, 61
14, 21605, Note_on_c, 6, 64, 60
14, 21637, Note_off_c, 6, 58, 0
14, 21638, Note_off_c, 6, 60, 0
14, 21638, Note_off_c, 6, 64, 0
14, 21645, Note_on_c, 6, 58, 56
14, 21647, Note_on_c, 6, 60, 60
14, 21649, Note_on_c, 6, 64, 60
14, 21686, Note_off_c, 6, 58, 0
14, 21687, Note_off_c, 6, 60, 0
14, 21688, Note_off_c, 6, 64, 0
14, 21694, Note_on_c, 6, 55, 57
14, 21698, Note_on_c, 6, 60, 60
14, 21700, Note_on_c, 6, 64, 59
14, 21735, Note_off_c, 6, 55, 0
14, 21736, Note_off_c, 6, 60, 0
14, 21737, Note_off_c, 6, 64, 0
14, 21743, Note_on_c, 6, 55, 58
14, 21746, Note_on_c, 6, 60, 59
14, 21748, Note_on_c, 6, 64, 60
14, 21781, Note_off_c, 6, 55, 0
14, 21782, Note_off_c, 6, 60, 0
14, 21782, Note_off_c, 6, 64, 0
14, 21789, Note_on_c, 6, 58, 67
14, 21793, Note_on_c, 6, 60, 59
14, 21795, Note_on_c, 6, 64, 57
14, 21830, Note_off_c, 6, 58, 0
14, 21831, Note_off_c, 6, 60, 0
14, 21832, Note_off_c, 6, 64, 0
14, 21840, Note_on_c, 6, 58, 56
14, 21843, Note_on_c, 6, 60, 60
14, 21845, Note_on_c, 6, 64, 57
14, 21880, Note_off_c, 6, 58, 0
14, 21880, Note_off_c, 6, 60, 0
14, 21881, Note_off_c, 6, 64, 0
14, 21888, Note_on_c, 6, 55, 56
14, 21891, Note_on_c, 6, 59, 60
14, 21893, Note_on_c, 6, 62, 60
14, 21925, Note_off_c, 6, 55, 0
14, 21926, Note_off_c, 6, 59, 0
14, 21927, Note_off_c, 6, 62, 0
14, 21934, Note_on_c, 6, 55, 59
14, 21936, Note_on_c, 6, 59, 56
14, 21939, Note_on_c, 6, 62, 57
14, 21975, Note_off_c, 6, 55, 0
14, 21975, Note_off_c, 6, 59, 0
14, 21976, Note_off_c, 6, 62, 0
14, 21983, Note_on_c, 6, 55, 67
14, 21985, Note_on_c, 6, 59, 57
14, 21987, Note_on_c, 6, 64, 58
14, 22022, Note_off_c, 6, 55, 0
14, 22023, Note_off_c, 6, 59, 0
14, 22023, Note_off_c, 6, 64, 0
14, 22030, Note_on_c, 6, 55, 59
14, 22032, Note_on_c, 6, 59, 56
14, 22034, Note_on_c, 6, 64, 59
14, 22070, Note_off_c, 6, 55, 0
14, 22070, Note_off_c, 6, 59, 0
14, 22071, Note_off_c, 6, 64, 0
14, 22078, Note_on_c, 6, 55, 57
14, 22080, Note_on_c, 6, 59, 57
14, 22082, Note_on_c, 6, 62, 60
14, 22119, Note_off_c, 6, 55, 0
14, 22120, Note_off_c, 6, 59, 0
14, 22120, Note_off_c, 6, 62, 0
14, 22126, Note_on_c, 6, 55, 57
14, 22129, Note_on_c, 6, 59, 59
14, 22133, Note_on_c, 6, 62, 56
14, 22168, Note_off_c, 6, 55, 0
14, 22169, Note_off_c, 6, 59, 0
14, 22169, Note_off_c, 6, 62, 0
14, 22176, Note_on_c, 6, 55, 64
14, 22178, Note_on_c, 6, 59, 58
14, 22180, Note_on_c, 6, 64, 59
14, 22214, Note_off_c, 6, 55, 0
14, 22214, Note_off_c, 6, 59, 0
14, 22215, Note_off_c, 6, 64, 0
14, 22222, Note_on_c, 6, 55, 59
14, 22224, Note_on_c, 6, 59, 57
14, 22226, Note_on_c, 6, 64, 60
14, 22263, Note_off_c, 6, 55, 0
14, 22264, Note_off_c, 6, 59, 0
14, 22264, Note_off_c, 6, 64, 0
14, 22271, Note_on_c, 6, 55, 58
14, 22273, Note_on_c, 6, 59, 56
14, 22276, Note_on_c, 6, 62, 58
14, 22313, Note_off_c, 6, 55, 0
14, 22314, Note_off_c, 6, 59, 0
14, 22315, Note_off_c, 6, 62, 0
14, 22323, Note_on_c, 6, 55, 60
14, 22325, Note_on_c, 6, 59, 60
14, 22327, Note_on_c, 6, 62, 57
14, 22358, Note_off_c, 6, 55, 0
14, 22359, Note_off_c, 6, 59, 0
14, 22360, Note_off_c, 6, 62, 0
14, 22369, Note_on_c, 6, 55, 66
14, 22371, Note_on_c, 6, 59, 56
14, 22373, Note_on_c, 6, 64, 58
14, 22407, Note_off_c, 6, 55, 0
14, 22408, Note_off_c, 6, 59, 0
14, 22409, Note_off_c, 6, 64, 0
14, 22415, Note_on_c, 6, 55, 61
14, 22417, Note_on_c, 6, 59, 57
14, 22419, Note_on_c, 6, 64, 58
14, 22453, Note_off_c, 6, 55, 0
14, 22454, Note_off_c, 6, 59, 0
14, 22454, Note_off_c, 6, 64, 0
14, 22463, Note_on_c, 6, 55, 56
14, 22466, Note_on_c, 6, 59, 56
14, 22468, Note_on_c, 6, 62, 58
14, 22502, Note_off_c, 6, 55, 0
14, 22503, Note_off_c, 6, 59, 0
14, 22504, Note_off_c, 6, 62, 0
14, 22510, Note_on_c, 6, 55, 57
14, 22512, Note_on_c, 6, 59, 59
14, 22514, Note_on_c, 6, 62, 60
14, 22552, Note_off_c, 6, 55, 0
14, 22552, Note_off_c, 6, 59, 0
14, 22553, Note_off_c, 6, 62, 0
14, 22560, Note_on_c, 6, 55, 64
14, 22563, Note_on_c, 6, 59, 57
14, 22565, Note_on_c, 6, 64, 58
14, 22597, Note_off_c, 6, 55, 0
14, 22598, Note_off_c, 6, 59, 0
14, 22599, Note_off_c, 6, 64, 0
14, 22605, Note_on_c, 6, 55, 58
14, 22607, Note_on_c, 6, 59, 60
14, 22609, Note_on_c, 6, 64, 58
14, 22646, Note_off_c, 6, 55, 0
14, 22647, Note_off_c, 6, 59, 0
14, 22648, Note_off_c, 6, 64, 0
14, 22654, Note_on_c, 6, 55, 60
14, 22656, Note_on_c, 6, 60, 57
14, 22662, Note_on_c, 6, 64, 59
14, 22695, Note_off_c, 6, 55, 0
14, 22695, Note_off_c, 6, 60, 0
14, 22696, Note_off_c, 6, 64, 0
14, 22704, Note_on_c, 6, 55, 60
14, 22707, Note_on_c, 6, 60, 57
14, 22710, Note_on_c, 6, 64, 57
14, 22741, Note_off_c, 6, 55, 0
14, 22742, Note_off_c, 6, 60, 0
14, 22743, Note_off_c, 6, 64, 0
14, 22750, Note_on_c, 6, 58, 65
14, 22752, Note_on_c, 6, 60, 57
14, 22754, Note_on_c, 6, 64, 58
14, 22789, Note_off_c, 6, 58, 0
14, 22790, Note_off_c, 6, 60, 0
14, 22791, Note_off_c, 6, 64, 0
14, 22797, Note_on_c, 6, 58, 56
14, 22800, Note_on_c, 6, 60, 59
14, 22802, Note_on_c, 6, 64, 61
14, 22837, Note_off_c, 6, 58, 0
14, 22838, Note_off_c, 6, 60, 0
14, 22838, Note_off_c, 6, 64, 0
14, 22847, Note_on_c, 6, 55, 56
14, 22849, Note_on_c, 6, 60, 58
14, 22851, Note_on_c, 6, 64, 59
14, 22885, Note_off_c, 6, 55, 0
14, 22886, Note_off_c, 6, 60, 0
14, 22887, Note_off_c, 6, 64, 0
14, 22893, Note_on_c, 6, 55, 59
14, 22895, Note_on_c, 6, 60, 58
14, 22897, Note_on_c, 6, 64, 56
14, 22935, Note_off_c, 6, 55, 0
14, 22935, Note_off_c, 6, 60, 0
14, 22936, Note_off_c, 6, 64, 0
14, 22942, Note_on_c, 6, 58, 64
14, 22945, Note_on_c, 6, 60, 58
14, 22948, Note_on_c, 6, 64, 58
14, 22984, Note_off_c, 6, 58, 0
14, 22985, Note_off_c, 6, 60, 0
14, 22985, Note_off_c, 6, 64, 0
14, 22992, Note_on_c, 6, 58, 59
14, 22994, Note_on_c, 6, 60, 59
14, 22996, Note_on_c, 6, 64, 56
14, 23029, Note_off_c, 6, 58, 0
14, 23030, Note_off_c, 6, 60, 0
14, 23031, Note_off_c, 6, 64, 0
14, 23037, Note_on_c, 6, 55, 58
14, 23040, Note_on_c, 6, 60, 60
14, 23043, Note_on_c, 6, 64, 58
14, 23079, Note_off_c, 6, 55, 0
14, 23080, Note_off_c, 6, 60, 0
14, 23081, Note_off_c, 6, 64, 0
14, 23089, Note_on_c, 6, 55, 60
14, 23092, Note_on_c, 6, 60, 57
14, 23094, Note_on_c, 6, 64, 58
14, 23129, Note_off_c, 6, 55, 0
14, 23130, Note_off_c, 6, 60, 0
14, 23130, Note_off_c, 6, 64, 0
14, 23137, Note_on_c, 6, 58, 64
14, 23139, Note_on_c, 6, 60, 58
14, 23141, Note_on_c, 6, 64, 58
14, 23174, Note_off_c, 6, 58, 0
14, 23174, Note_off_c, 6, 60, 0
14, 23175, Note_off_c, 6, 64, 0
14, 23181, Note_on_c, 6, 58, 57
14, 23184, Note_on_c, 6, 60, 59
14, 23186, Note_on_c, 6, 64, 56
14, 23223, Note_off_c, 6, 58, 0
14, 23224, Note_off_c, 6, 60, 0
14, 23224, Note_off_c, 6, 64, 0
14, 23230, Note_on_c, 6, 55, 58
14, 23233, Note_on_c, 6, 60, 60
14, 23235, Note_on_c, 6, 64, 59
14, 23269, Note_off_c, 6, 55, 0
14, 23270, Note_off_c, 6, 60, 0
14, 23270, Note_off_c, 6, 64, 0
14, 23279, Note_on_c, 6, 55, 58
14, 23282, Note_on_c, 6, 60, 60
14, 23284, Note_on_c, 6, 64, 60
14, 23318, Note_off_c, 6, 55, 0
14, 23319, Note_off_c, 6, 60, 0
14, 23320, Note_off_c, 6, 64, 0
14, 23326, Note_on_c, 6, 58, 65
14, 23328, Note_on_c, 6, 60, 61
14, 23330, Note_on_c, 6, 64, 58
14, 23367, Note_off_c, 6, 58, 0
14, 23368, Note_off_c, 6, 60, 0
14, 23369, Note_off_c, 6, 64, 0
14, 23375, Note_on_c, 6, 58, 58
14, 23377, Note_on_c, 6, 60, 57
14, 23379, Note_on_c, 6, 64, 56
14, 23413, Note_off_c, 6, 58, 0
14, 23414, Note_off_c, 6, 60, 0
14, 23414, Note_off_c, 6, 64, 0
14, 23422, Note_on_c, 6, 55, 59
14, 23426, Note_on_c, 6, 59, 60
14, 23428, Note_on_c, 6, 62, 57
14, 23462, Note_off_c, 6, 55, 0
14, 23463, Note_off_c, 6, 59, 0
14, 23463, Note_off_c, 6, 62, 0
14, 23472, Note_on_c, 6, 55, 56
14, 23474, Note_on_c, 6, 59, 57
14, 23476, Note_on_c, 6, 62, 56
14, 23509, Note_off_c, 6, 55, 0
14, 23510, Note_off_c, 6, 59, 0
14, 23511, Note_off_c, 6, 62, 0
14, 23518, Note_on_c, 6, 55, 65
14, 23520, Note_on_c, 6, 59, 60
14, 23523, Note_on_c, 6, 64, 59
14, 23557, Note_off_c, 6, 55, 0
14, 23558, Note_off_c, 6, 59, 0
14, 23559, Note_off_c, 6, 64, 0
14, 23565, Note_on_c, 6, 55, 59
14, 23567, Note_on_c, 6, 59, 57
14, 23569, Note_on_c, 6, 64, 57
14, 23606, Note_off_c, 6, 55, 0
14, 23607, Note_off_c, 6, 59, 0
14, 23608, Note_off_c, 6, 64, 0
14, 23614, Note_on_c, 6, 55, 58
14, 23617, Note_on_c, 6, 59, 58
14, 23619, Note_on_c, 6, 62, 60
14, 23656, Note_off_c, 6, 55, 0
14, 23656, Note_off_c, 6, 59, 0
14, 23657, Note_off_c, 6, 62, 0
14, 23663, Note_on_c, 6, 55, 58
14, 23666, Note_on_c, 6, 59, 57
14, 23668, Note_on_c, 6, 62, 56
14, 23701, Note_off_c, 6, 55, 0
14, 23702, Note_off_c, 6, 59, 0
14, 23703, Note_off_c, 6, 62, 0
14, 23712, Note_on_c, 6, 55, 64
14, 23714, Note_on_c, 6, 59, 57
14, 23716, Note_on_c, 6, 64, 60
14, 23750, Note_off_c, 6, 55, 0
14, 23751, Note_off_c, 6, 59, 0
14, 23752, Note_off_c, 6, 64, 0
14, 23758, Note_on_c, 6, 55, 57
14, 23760, Note_on_c, 6, 59, 58
14, 23762, Note_on_c, 6, 64, 59
14, 23800, Note_off_c, 6, 55, 0
14, 23801, Note_off_c, 6, 59, 0
14, 23801, Note_off_c, 6, 64, 0
14, 23810, Note_on_c, 6, 55, 59
14, 23813, Note_on_c, 6, 59, 59
14, 23815, Note_on_c, 6, 62, 57
14, 23845, Note_off_c, 6, 55, 0
14, 23846, Note_off_c, 6, 59, 0
14, 23847, Note_off_c, 6, 62, 0
14, 23857, Note_on_c, 6, 55, 60
14, 23860, Note_on_c, 6, 59, 57
14, 23863, Note_on_c, 6, 62, 58
14, 23895, Note_off_c, 6, 55, 0
14, 23896, Note_off_c, 6, 59, 0
14, 23896, Note_off_c, 6, 62, 0
14, 23903, Note_on_c, 6, 55, 64
14, 23905, Note_on_c, 6, 59, 58
14, 23907, Note_on_c, 6, 64, 57
14, 23944, Note_off_c, 6, 55, 0
14, 23945, Note_off_c, 6, 59, 0
14, 23945, Note_off_c, 6, 64, 0
14, 23952, Note_on_c, 6, 55, 59
14, 23954, Note_on_c, 6, 59, 60
14, 23956, Note_on_c, 6, 64, 59
14, 23989, Note_off_c, 6, 55, 0
14, 23990, Note_off_c, 6, 59, 0
14, 23992, Note_off_c, 6, 64, 0
14, 23997, Note_on_c, 6, 55, 58
14, 23999, Note_on_c, 6, 59, 58
14, 24002, Note_on_c, 6, 62, 57
14, 24039, Note_off_c, 6, 55, 0
14, 24040, Note_off_c, 6, 59, 0
14, 24040, Note_off_c, 6, 62, 0
14, 24047, Note_on_c, 6, 55, 57
14, 24049, Note_on_c, 6, 59, 56
14, 24051, Note_on_c, 6, 62, 57
14, 24087, Note_off_c, 6, 55, 0
14, 24088, Note_off_c, 6, 59, 0
14, 24088, Note_off_c, 6, 62, 0
14, 24096, Note_on_c, 6, 55, 66
14, 24098, Note_on_c, 6, 59, 59
14, 24100, Note_on_c, 6, 64, 56
14, 24134, Note_off_c, 6, 55, 0
14, 24135, Note_off_c, 6, 59, 0
14, 24135, Note_off_c, 6, 64, 0
14, 24141, Note_on_c, 6, 55, 57
14, 24144, Note_on_c, 6, 59, 60
14, 24146, Note_on_c, 6, 64, 57
14, 24182, Note_off_c, 6, 55, 0
14, 24183, Note_off_c, 6, 59, 0
14, 24184, Note_off_c, 6, 64, 0
14, 24190, Note_on_c, 6, 54, 59
14, 24192, Note_on_c, 6, 57, 59
14, 24195, Note_on_c, 6, 62, 60
14, 24229, Note_off_c, 6, 54, 0
14, 24230, Note_off_c, 6, 57, 0
14, 24230, Note_off_c, 6, 62, 0
14, 24237, Note_on_c, 6, 54, 57
14, 24240, Note_on_c, 6, 57, 60
14, 24243, Note_on_c, 6, 62, 59
14, 24277, Note_off_c, 6, 54, 0
14, 24278, Note_off_c, 6, 57, 0
14, 24278, Note_off_c, 6, 62, 0
14, 24285, Note_on_c, 6, 54, 67
14, 24288, Note_on_c, 6, 60, 59
14, 24289, Note_on_c, 6, 62, 60
14, 24327, Note_off_c, 6, 54, 0
14, 24328, Note_off_c, 6, 60, 0
14, 24328, Note_off_c, 6, 62, 0
14, 24335, Note_on_c, 6, 54, 58
14, 24337, Note_on_c, 6, 60, 59
14, 24339, Note_on_c, 6, 62, 59
14, 24373, Note_off_c, 6, 54, 0
14, 24374, Note_off_c, 6, 60, 0
14, 24374, Note_off_c, 6, 62, 0
14, 24381, Note_on_c, 6, 54, 58
14, 24383, Note_on_c, 6, 57, 56
14, 24385, Note_on_c, 6, 62, 57
14, 24422, Note_off_c, 6, 54, 0
14, 24423, Note_off_c, 6, 57, 0
14, 24424, Note_off_c, 6, 62, 0
14, 24430, Note_on_c, 6, 54, 59
14, 24433, Note_on_c, 6, 57, 57
14, 24435, Note_on_c, 6, 62, 57
14, 24471, Note_off_c, 6, 54, 0
14, 24472, Note_off_c, 6, 57, 0
14, 24473, Note_off_c, 6, 62, 0
14, 24479, Note_on_c, 6, 54, 68
14, 24482, Note_on_c, 6, 60, 56
14, 24485, Note_on_c, 6, 62, 56
14, 24517, Note_off_c, 6, 54, 0
14, 24518, Note_off_c, 6, 60, 0
14, 24518, Note_off_c, 6, 62, 0
14, 24528, Note_on_c, 6, 54, 59
14, 24529, Note_on_c, 6, 60, 59
14, 24532, Note_on_c, 6, 62, 60
14, 24566, Note_off_c, 6, 54, 0
14, 24567, Note_off_c, 6, 60, 0
14, 24568, Note_off_c, 6, 62, 0
14, 24574, Note_on_c, 6, 55, 60
14, 24576, Note_on_c, 6, 60, 60
14, 24579, Note_on_c, 6, 64, 60
14, 24616, Note_off_c, 6, 55, 0
14, 24616, Note_off_c, 6, 60, 0
14, 24617, Note_off_c, 6, 64, 0
14, 24625, Note_on_c, 6, 55, 60
14, 24627, Note_on_c, 6, 60, 60
14, 24629, Note_on_c, 6, 64, 56
14, 24661, Note_off_c, 6, 55, 0
14, 24662, Note_off_c, 6, 60, 0
14, 24663, Note_off_c, 6, 64, 0
14, 24669, Note_on_c, 6, 58, 65
14, 24672, Note_on_c, 6, 60, 60
14, 24674, Note_on_c, 6, 64, 57
14, 24710, Note_off_c, 6, 58, 0
14, 24711, Note_off_c, 6, 60, 0
14, 24712, Note_off_c, 6, 64, 0
14, 24718, Note_on_c, 6, 58, 57
14, 24721, Note_on_c, 6, 60, 60
14, 24723, Note_on_c, 6, 64, 57
14, 24760, Note_off_c, 6, 58, 0
14, 24760, Note_off_c, 6, 60, 0
14, 24761, Note_off_c, 6, 64, 0
14, 24768, Note_on_c, 6, 55, 56
14, 24770, Note_on_c, 6, 60, 59
14, 24772, Note_on_c, 6, 64, 57
14, 24805, Note_off_c, 6, 55, 0
14, 24806, Note_off_c, 6, 60, 0
14, 24807, Note_off_c, 6, 64, 0
14, 24813, Note_on_c, 6, 55, 59
14, 24815, Note_on_c, 6, 60, 57
14, 24817, Note_on_c, 6, 64, 60
14, 24855, Note_off_c, 6, 55, 0
14, 24855, Note_off_c, 6, 60, 0
14, 24856, Note_off_c, 6, 64, 0
14, 24862, Note_on_c, 6, 58, 65
14, 24865, Note_on_c, 6, 60, 57
14, 24867, Note_on_c, 6, 64, 56
14, 24902, Note_off_c, 6, 58, 0
14, 24902, Note_off_c, 6, 60, 0
14, 24903, Note_off_c, 6, 64, 0
14, 24910, Note_on_c, 6, 58, 60
14, 24912, Note_on_c, 6, 60, 61
14, 24914, Note_on_c, 6, 64, 60
14, 24950, Note_off_c, 6, 58, 0
14, 24950, Note_off_c, 6, 60, 0
14, 24951, Note_off_c, 6, 64, 0
14, 24958, Note_on_c, 6, 55, 67
14, 24960, Note_on_c, 6, 59, 59
14, 24963, Note_on_c, 6, 62, 56
14, 25111, Note_off_c, 6, 55, 0
14, 25112, Note_off_c, 6, 59, 0
14, 25113, Note_off_c, 6, 62, 0
14, 25345, Note_on_c, 6, 55, 66
14, 25347, Note_on_c, 6, 59, 60
14, 25349, Note_on_c, 6, 62, 60
14, 25421, Note_off_c, 6, 55, 0
14, 25422, Note_off_c, 6, 59, 0
14, 25422, Note_off_c, 6, 62, 0
14, 25440, Note_on_c, 6, 55, 65
14, 25442, Note_on_c, 6, 59, 56
14, 25444, Note_on_c, 6, 62, 56
14, 25519, Note_off_c, 6, 55, 0
14, 25520, Note_off_c, 6, 59, 0
14, 25521, Note_off_c, 6, 62, 0
14, 25533, Note_on_c, 6, 55, 66
14, 25536, Note_on_c, 6, 59, 60
14, 25538, Note_on_c, 6, 62, 60
14, 25614, Note_off_c, 6, 55, 0
14, 25615, Note_off_c, 6, 59, 0
14, 25616, Note_off_c, 6, 62, 0
14, 25728, Note_on_c, 6, 55, 64
14, 25732, Note_on_c, 6, 59, 58
14, 25735, Note_on_c, 6, 62, 56
14, 25766, Note_off_c, 6, 55, 0
14, 25766, Note_off_c, 6, 59, 0
14, 25767, Note_off_c, 6, 62, 0
14, 25773, Note_on_c, 6, 55, 58
14, 25775, Note_on_c, 6, 59, 58
14, 25778, Note_on_c, 6, 62, 59
14, 25815, Note_off_c, 6, 55, 0
14, 25815, Note_off_c, 6, 59, 0
14, 25816, Note_off_c, 6, 62, 0
14, 25823, Note_on_c, 6, 55, 58
14, 25825, Note_on_c, 6, 59, 56
14, 25828, Note_on_c, 6, 62, 59
14, 25864, Note_off_c, 6, 55, 0
14, 25865, Note_off_c, 6, 59, 0
14, 25865, Note_off_c, 6, 62, 0
14, 25872, Note_on_c, 6, 55, 60
14, 25874, Note_on_c, 6, 59, 56
14, 25876, Note_on_c, 6, 62, 58
14, 25910, Note_off_c, 6, 55, 0
14, 25910, Note_off_c, 6, 59, 0
14, 25911, Note_off_c, 6, 62, 0
14, 25917, Note_on_c, 6, 55, 65
14, 25920, Note_on_c, 6, 59, 57
14, 25922, Note_on_c, 6, 62, 58
14, 25959, Note_off_c, 6, 55, 0
14, 25960, Note_off_c, 6, 59, 0
14, 25960, Note_off_c, 6, 62, 0
14, 25967, Note_on_c, 6, 55, 59
14, 25969, Note_on_c, 6, 59, 56
14, 25971, Note_on_c, 6, 62, 57
14, 26008, Note_off_c, 6, 55, 0
14, 26009, Note_off_c, 6, 59, 0
14, 26010, Note_off_c, 6, 62, 0
14, 26017, Note_on_c, 6, 55, 56
14, 26019, Note_on_c, 6, 59, 59
14, 26022, Note_on_c, 6, 62, 58
14, 26054, Note_off_c, 6, 55, 0
14, 26055, Note_off_c, 6, 59, 0
14, 26055, Note_off_c, 6, 62, 0
14, 26062, Note_on_c, 6, 55, 56
14, 26065, Note_on_c, 6, 59, 60
14, 26067, Note_on_c, 6, 62, 59
14, 26103, Note_off_c, 6, 55, 0
14, 26104, Note_off_c, 6, 59, 0
14, 26105, Note_off_c, 6, 62, 0
14, 26111, Note_on_c, 6, 55, 65
14, 26113, Note_on_c, 6, 59, 60
14, 26116, Note_on_c, 6, 62, 58
14, 26149, Note_off_c, 6, 55, 0
14, 26149, Note_off_c, 6, 59, 0
14, 26150, Note_off_c, 6, 62, 0
14, 26157, Note_on_c, 6, 55, 57
14, 26159, Note_on_c, 6, 59, 59
14, 26161, Note_on_c, 6, 62, 60
14, 26198, Note_off_c, 6, 55, 0
14, 26199, Note_off_c, 6, 59, 0
14, 26199, Note_off_c, 6, 62, 0
14, 26206, Note_on_c, 6, 55, 56
14, 26208, Note_on_c, 6, 59, 60
14, 26210, Note_on_c, 6, 62, 60
14, 26247, Note_off_c, 6, 55, 0
14, 26248, Note_off_c, 6, 59, 0
14, 26249, Note_off_c, 6, 62, 0
14, 26255, Note_on_c, 6, 55, 56
14, 26257, Note_on_c, 6, 59, 58
14, 26259, Note_on_c, 6, 62, 60
14, 26293, Note_off_c, 6, 55, 0
14, 26294, Note_off_c, 6, 59, 0
14, 26294, Note_off_c, 6, 62, 0
14, 26301, Note_on_c, 6, 55, 68
14, 26303, Note_on_c, 6, 59, 56
14, 26306, Note_on_c, 6, 62, 57
14, 26342, Note_off_c, 6, 55, 0
14, 26343, Note_off_c, 6, 59, 0
14, 26344, Note_off_c, 6, 62, 0
14, 26350, Note_on_c, 6, 55, 59
14, 26352, Note_on_c, 6, 59, 59
14, 26354, Note_on_c, 6, 62, 59
14, 26389, Note_off_c, 6, 55, 0
14, 26390, Note_off_c, 6, 59, 0
14, 26391, Note_off_c, 6, 62, 0
14, 26398, Note_on_c, 6, 55, 58
14, 26400, Note_on_c, 6, 59, 56
14, 26402, Note_on_c, 6, 62, 58
14, 26437, Note_off_c, 6, 55, 0
14, 26438, Note_off_c, 6, 59, 0
14, 26439, Note_off_c, 6, 62, 0
14, 26445, Note_on_c, 6, 55, 59
14, 26447, Note_on_c, 6, 59, 60
14, 26449, Note_on_c, 6, 62, 56
14, 26486, Note_off_c, 6, 55, 0
14, 26487, Note_off_c, 6, 59, 0
14, 26488, Note_off_c, 6, 62, 0
14, 26499, Note_on_c, 6, 55, 66
14, 26501, Note_on_c, 6, 59, 59
14, 26504, Note_on_c, 6, 62, 57
14, 26536, Note_off_c, 6, 55, 0
14, 26536, Note_off_c, 6, 59, 0
14, 26537, Note_off_c, 6, 62, 0
14, 26543, Note_on_c, 6, 55, 59
14, 26545, Note_on_c, 6, 59, 58
14, 26548, Note_on_c, 6, 62, 58
14, 26581, Note_off_c, 6, 55, 0
14, 26582, Note_off_c, 6, 59, 0
14, 26583, Note_off_c, 6, 62, 0
14, 26593, Note_on_c, 6, 55, 60
14, 26595, Note_on_c, 6, 59, 60
14, 26597, Note_on_c, 6, 62, 60
14, 26631, Note_off_c, 6, 55, 0
14, 26631, Note_off_c, 6, 59, 0
14, 26632, Note_off_c, 6, 62, 0
14, 26638, Note_on_c, 6, 55, 59
14, 26641, Note_on_c, 6, 59, 60
14, 26643, Note_on_c, 6, 62, 58
14, 26680, Note_off_c, 6, 55, 0
14, 26680, Note_off_c, 6, 59, 0
14, 26681, Note_off_c, 6, 62, 0
14, 26692, Note_on_c, 6, 55, 67
14, 26694, Note_on_c, 6, 59, 56
14, 26697, Note_on_c, 6, 62, 60
14, 26725, Note_off_c, 6, 55, 0
14, 26726, Note_off_c, 6, 59, 0
14, 26727, Note_off_c, 6, 62, 0
14, 26736, Note_on_c, 6, 55, 59
14, 26738, Note_on_c, 6, 59, 60
14, 26740, Note_on_c, 6, 62, 57
14, 26775, Note_off_c, 6, 55, 0
14, 26776, Note_off_c, 6, 59, 0
14, 26776, Note_off_c, 6, 62, 0
14, 26782, Note_on_c, 6, 55, 60
14, 26785, Note_on_c, 6, 59, 56
14, 26787, Note_on_c, 6, 62, 59
14, 26824, Note_off_c, 6, 55, 0
14, 26825, Note_off_c, 6, 59, 0
14, 26826, Note_off_c, 6, 62, 0
14, 26833, Note_on_c, 6, 55, 57
14, 26835, Note_on_c, 6, 59, 58
14, 26837, Note_on_c, 6, 62, 57
14, 26870, Note_off_c, 6, 55, 0
14, 26870, Note_off_c, 6, 59, 0
14, 26871, Note_off_c, 6, 62, 0
14, 26878, Note_on_c, 6, 53, 64
14, 26880, Note_on_c, 6, 55, 58
14, 26882, Note_on_c, 6, 59, 56
14, 26919, Note_off_c, 6, 53, 0
14, 26920, Note_off_c, 6, 55, 0
14, 26920, Note_off_c, 6, 59, 0
14, 26927, Note_on_c, 6, 53, 58
14, 26929, Note_on_c, 6, 55, 57
14, 26931, Note_on_c, 6, 59, 60
14, 26967, Note_off_c, 6, 53, 0
14, 26968, Note_off_c, 6, 55, 0
14, 26969, Note_off_c, 6, 59, 0
14, 26975, Note_on_c, 6, 53, 59
14, 26977, Note_on_c, 6, 55, 57
14, 26979, Note_on_c, 6, 59, 56
14, 27014, Note_off_c, 6, 53, 0
14, 27015, Note_off_c, 6, 55, 0
14, 27016, Note_off_c, 6, 59, 0
14, 27022, Note_on_c, 6, 53, 56
14, 27024, Note_on_c, 6, 55, 56
14, 27026, Note_on_c, 6, 59, 57
14, 27062, Note_off_c, 6, 53, 0
14, 27063, Note_off_c, 6, 55, 0
14, 27064, Note_off_c, 6, 59, 0
14, 27070, Note_on_c, 6, 53, 64
14, 27072, Note_on_c, 6, 55, 58
14, 27075, Note_on_c, 6, 59, 57
14, 27109, Note_off_c, 6, 53, 0
14, 27110, Note_off_c, 6, 55, 0
14, 27110, Note_off_c, 6, 59, 0
14, 27117, Note_on_c, 6, 53, 60
14, 27120, Note_on_c, 6, 55, 60
14, 27123, Note_on_c, 6, 59, 58
14, 27157, Note_off_c, 6, 53, 0
14, 27158, Note_off_c, 6, 55, 0
14, 27159, Note_off_c, 6, 59, 0
14, 27165, Note_on_c, 6, 53, 60
14, 27169, Note_on_c, 6, 55, 57
14, 27172, Note_on_c, 6, 59, 56
14, 27208, Note_off_c, 6, 53, 0
14, 27208, Note_off_c, 6, 55, 0
14, 27209, Note_off_c, 6, 59, 0
14, 27216, Note_on_c, 6, 53, 56
14, 27219, Note_on_c, 6, 55, 60
14, 27221, Note_on_c, 6, 59, 57
14, 27253, Note_off_c, 6, 53, 0
14, 27254, Note_off_c, 6, 55, 0
14, 27255, Note_off_c, 6, 59, 0
14, 27261, Note_on_c, 6, 58, 65
14, 27264, Note_on_c, 6, 62, 58
14, 27267, Note_on_c, 6, 64, 60
14, 27302, Note_off_c, 6, 58, 0
14, 27303, Note_off_c, 6, 62, 0
14, 27303, Note_off_c, 6, 64, 0
14, 27310, Note_on_c, 6, 58, 57
14, 27312, Note_on_c, 6, 62, 60
14, 27316, Note_on_c, 6, 64, 57
14, 27351, Note_off_c, 6, 58, 0
14, 27352, Note_off_c, 6, 62, 0
14, 27353, Note_off_c, 6, 64, 0
14, 27359, Note_on_c, 6, 58, 56
14, 27361, Note_on_c, 6, 62, 59
14, 27363, Note_on_c, 6, 64, 59
14, 27397, Note_off_c, 6, 58, 0
14, 27398, Note_off_c, 6, 62, 0
14, 27399, Note_off_c, 6, 64, 0
14, 27408, Note_on_c, 6, 58, 57
14, 27410, Note_on_c, 6, 62, 56
14, 27412, Note_on_c, 6, 64, 60
14, 27446, Note_off_c, 6, 58, 0
14, 27447, Note_off_c, 6, 62, 0
14, 27448, Note_off_c, 6, 64, 0
14, 27454, Note_on_c, 6, 58, 65
14, 27458, Note_on_c, 6, 62, 60
14, 27460, Note_on_c, 6, 64, 61
14, 27496, Note_off_c, 6, 58, 0
14, 27497, Note_off_c, 6, 62, 0
14, 27497, Note_off_c, 6, 64, 0
14, 27503, Note_on_c, 6, 58, 58
14, 27506, Note_on_c, 6, 62, 57
14, 27508, Note_on_c, 6, 64, 56
14, 27541, Note_off_c, 6, 58, 0
14, 27542, Note_off_c, 6, 62, 0
14, 27543, Note_off_c, 6, 64, 0
14, 27549, Note_on_c, 6, 58, 57
14, 27553, Note_on_c, 6, 62, 60
14, 27555, Note_on_c, 6, 64, 60
14, 27591, Note_off_c, 6, 58, 0
14, 27591, Note_off_c, 6, 62, 0
14, 27592, Note_off_c, 6, 64, 0
14, 27598, Note_on_c, 6, 58, 58
14, 27601, Note_on_c, 6, 62, 56
14, 27603, Note_on_c, 6, 64, 59
14, 27640, Note_off_c, 6, 58, 0
14, 27641, Note_off_c, 6, 62, 0
14, 27641, Note_off_c, 6, 64, 0
14, 27649, Note_on_c, 6, 58, 65
14, 27651, Note_on_c, 6, 62, 56
14, 27654, Note_on_c, 6, 64, 56
14, 27685, Note_off_c, 6, 58, 0
14, 27686, Note_off_c, 6, 62, 0
14, 27687, Note_off_c, 6, 64, 0
14, 27694, Note_on_c, 6, 58, 57
14, 27696, Note_on_c, 6, 62, 59
14, 27698, Note_on_c, 6, 64, 56
14, 27735, Note_off_c, 6, 58, 0
14, 27735, Note_off_c, 6, 62, 0
14, 27736, Note_off_c, 6, 64, 0
14, 27743, Note_on_c, 6, 58, 57
14, 27745, Note_on_c, 6, 62, 60
14, 27747, Note_on_c, 6, 64, 56
14, 27782, Note_off_c, 6, 58, 0
14, 27782, Note_off_c, 6, 62, 0
14, 27783, Note_off_c, 6, 64, 0
14, 27790, Note_on_c, 6, 58, 59
14, 27792, Note_on_c, 6, 62, 57
14, 27794, Note_on_c, 6, 64, 57
14, 27830, Note_off_c, 6, 58, 0
14, 27830, Note_off_c, 6, 62, 0
14, 27831, Note_off_c, 6, 64, 0
14, 27838, Note_on_c, 6, 58, 66
14, 27840, Note_on_c, 6, 62, 57
14, 27842, Note_on_c, 6, 64, 56
14, 27877, Note_off_c, 6, 58, 0
14, 27878, Note_off_c, 6, 62, 0
14, 27878, Note_off_c, 6, 64, 0
14, 27886, Note_on_c, 6, 58, 60
14, 27889, Note_on_c, 6, 62, 60
14, 27891, Note_on_c, 6, 64, 60
14, 27925, Note_off_c, 6, 58, 0
14, 27925, Note_off_c, 6, 62, 0
14, 27926, Note_off_c, 6, 64, 0
14, 27933, Note_on_c, 6, 58, 58
14, 27935, Note_on_c, 6, 62, 57
14, 27937, Note_on_c, 6, 64, 59
14, 27974, Note_off_c, 6, 58, 0
14, 27975, Note_off_c, 6, 62, 0
14, 27975, Note_off_c, 6, 64, 0
14, 27982, Note_on_c, 6, 58, 59
14, 27983, Note_on_c, 6, 62, 58
14, 27986, Note_on_c, 6, 64, 58
14, 28024, Note_off_c, 6, 58, 0
14, 28024, Note_off_c, 6, 62, 0
14, 28025, Note_off_c, 6, 64, 0
14, 28036, Note_on_c, 6, 55, 67
14, 28038, Note_on_c, 6, 59, 56
14, 28040, Note_on_c, 6, 62, 59
14, 28069, Note_off_c, 6, 55, 0
14, 28070, Note_off_c, 6, 59, 0
14, 28070, Note_off_c, 6, 62, 0
14, 28079, Note_on_c, 6, 55, 58
14, 28082, Note_on_c, 6, 59, 57
14, 28084, Note_on_c, 6, 62, 58
14, 28118, Note_off_c, 6, 55, 0
14, 28119, Note_off_c, 6, 59, 0
14, 28120, Note_off_c, 6, 62, 0
14, 28126, Note_on_c, 6, 55, 57
14, 28128, Note_on_c, 6, 59, 57
14, 28130, Note_on_c, 6, 62, 56
14, 28167, Note_off_c, 6, 55, 0
14, 28168, Note_off_c, 6, 59, 0
14, 28169, Note_off_c, 6, 62, 0
14, 28175, Note_on_c, 6, 55, 58
14, 28177, Note_on_c, 6, 59, 59
14, 28179, Note_on_c, 6, 62, 60
14, 28213, Note_off_c, 6, 55, 0
14, 28214, Note_off_c, 6, 59, 0
14, 28215, Note_off_c, 6, 62, 0
14, 28225, Note_on_c, 6, 58, 68
14, 28227, Note_on_c, 6, 62, 60
14, 28229, Note_on_c, 6, 64, 56
14, 28262, Note_off_c, 6, 58, 0
14, 28263, Note_off_c, 6, 62, 0
14, 28264, Note_off_c, 6, 64, 0
14, 28273, Note_on_c, 6, 58, 57
14, 28275, Note_on_c, 6, 62, 56
14, 28277, Note_on_c, 6, 64, 59
14, 28312, Note_off_c, 6, 58, 0
14, 28312, Note_off_c, 6, 62, 0
14, 28313, Note_off_c, 6, 64, 0
14, 28320, Note_on_c, 6, 58, 60
14, 28323, Note_on_c, 6, 62, 57
14, 28325, Note_on_c, 6, 64, 57
14, 28357, Note_off_c, 6, 58, 0
14, 28358, Note_off_c, 6, 62, 0
14, 28359, Note_off_c, 6, 64, 0
14, 28365, Note_on_c, 6, 58, 56
14, 28368, Note_on_c, 6, 62, 58
14, 28372, Note_on_c, 6, 64, 56
14, 28407, Note_off_c, 6, 58, 0
14, 28407, Note_off_c, 6, 62, 0
14, 28408, Note_off_c, 6, 64, 0
14, 28414, Note_on_c, 6, 55, 65
14, 28417, Note_on_c, 6, 59, 57
14, 28419, Note_on_c, 6, 62, 57
14, 28455, Note_off_c, 6, 55, 0
14, 28455, Note_off_c, 6, 59, 0
14, 28456, Note_off_c, 6, 62, 0
14, 28463, Note_on_c, 6, 55, 57
14, 28465, Note_on_c, 6, 59, 58
14, 28467, Note_on_c, 6, 62, 58
14, 28502, Note_off_c, 6, 55, 0
14, 28502, Note_off_c, 6, 59, 0
14, 28503, Note_off_c, 6, 62, 0
14, 28510, Note_on_c, 6, 55, 58
14, 28511, Note_on_c, 6, 59, 57
14, 28514, Note_on_c, 6, 62, 58
14, 28550, Note_off_c, 6, 55, 0
14, 28551, Note_off_c, 6, 59, 0
14, 28551, Note_off_c, 6, 62, 0
14, 28558, Note_on_c, 6, 55, 56
14, 28560, Note_on_c, 6, 59, 59
14, 28562, Note_on_c, 6, 62, 60
14, 28597, Note_off_c, 6, 55, 0
14, 28598, Note_off_c, 6, 59, 0
14, 28598, Note_off_c, 6, 62, 0
14, 28605, Note_on_c, 6, 55, 68
14, 28607, Note_on_c, 6, 59, 56
14, 28609, Note_on_c, 6, 62, 60
14, 28646, Note_off_c, 6, 55, 0
14, 28646, Note_off_c, 6, 59, 0
14, 28647, Note_off_c, 6, 62, 0
14, 28653, Note_on_c, 6, 55, 60
14, 28656, Note_on_c, 6, 59, 57
14, 28657, Note_on_c, 6, 62, 60
14, 28695, Note_off_c, 6, 55, 0
14, 28695, Note_off_c, 6, 59, 0
14, 28696, Note_off_c, 6, 62, 0
14, 28702, Note_on_c, 6, 55, 59
14, 28705, Note_on_c, 6, 59, 58
14, 28708, Note_on_c, 6, 62, 57
14, 28744, Note_off_c, 6, 55, 0
14, 28745, Note_off_c, 6, 59, 0
14, 28745, Note_off_c, 6, 62, 0
14, 28752, Note_on_c, 6, 55, 59
14, 28755, Note_on_c, 6, 59, 56
14, 28758, Note_on_c, 6, 62, 59
14, 28790, Note_off_c, 6, 55, 0
14, 28790, Note_off_c, 6, 59, 0
14, 28791, Note_off_c, 6, 62, 0
14, 28797, Note_on_c, 6, 59, 67
14, 28800, Note_on_c, 6, 62, 58
14, 28802, Note_on_c, 6, 64, 56
14, 28878, Note_off_c, 6, 59, 0
14, 28878, Note_off_c, 6, 62, 0
14, 28879, Note_off_c, 6, 64, 0
14, 29184, Note_on_c, 6, 59, 64
14, 29186, Note_on_c, 6, 62, 59
14, 29188, Note_on_c, 6, 64, 59
14, 29261, Note_off_c, 6, 59, 0
14, 29262, Note_off_c, 6, 62, 0
14, 29262, Note_off_c, 6, 64, 0
14, 29568, Note_on_c, 6, 58, 65
14, 29570, Note_on_c, 6, 62, 56
14, 29573, Note_on_c, 6, 64, 57
14, 29648, Note_off_c, 6, 58, 0
14, 29649, Note_off_c, 6, 62, 0
14, 29650, Note_off_c, 6, 64, 0
14, 29951, Note_on_c, 6, 58, 66
14, 29955, Note_on_c, 6, 62, 58
14, 29958, Note_on_c, 6, 64, 57
14, 30029, Note_off_c, 6, 58, 0
14, 30030, Note_off_c, 6, 62, 0
14, 30030, Note_off_c, 6, 64, 0
14, 30333, Note_on_c, 6, 55, 59
14, 30336, Note_on_c, 6, 60, 57
14, 30339, Note_on_c, 6, 64, 60
14, 30376, Note_off_c, 6, 55, 0
14, 30377, Note_off_c, 6, 60, 0
14, 30378, Note_off_c, 6, 64, 0
14, 30385, Note_on_c, 6, 55, 56
14, 30387, Note_on_c, 6, 60, 59
14, 30389, Note_on_c, 6, 64, 60
14, 30421, Note_off_c, 6, 55, 0
14, 30422, Note_off_c, 6, 60, 0
14, 30423, Note_off_c, 6, 64, 0
14, 30432, Note_on_c, 6, 58, 68
14, 30435, Note_on_c, 6, 60, 56
14, 30437, Note_on_c, 6, 64, 60
14, 30471, Note_off_c, 6, 58, 0
14, 30472, Note_off_c, 6, 60, 0
14, 30472, Note_off_c, 6, 64, 0
14, 30479, Note_on_c, 6, 58, 60
14, 30481, Note_on_c, 6, 60, 59
14, 30483, Note_on_c, 6, 64, 58
14, 30520, Note_off_c, 6, 58, 0
14, 30520, Note_off_c, 6, 60, 0
14, 30521, Note_off_c, 6, 64, 0
14, 30528, Note_on_c, 6, 55, 60
14, 30530, Note_on_c, 6, 60, 56
14, 30533, Note_on_c, 6, 64, 56
14, 30566, Note_off_c, 6, 55, 0
14, 30567, Note_off_c, 6, 60, 0
14, 30567, Note_off_c, 6, 64, 0
14, 30574, Note_on_c, 6, 55, 60
14, 30576, Note_on_c, 6, 60, 56
14, 30578, Note_on_c, 6, 64, 57
14, 30615, Note_off_c, 6, 55, 0
14, 30616, Note_off_c, 6, 60, 0
14, 30616, Note_off_c, 6, 64, 0
14, 30623, Note_on_c, 6, 58, 67
14, 30625, Note_on_c, 6, 60, 60
14, 30627, Note_on_c, 6, 64, 58
14, 30662, Note_off_c, 6, 58, 0
14, 30663, Note_off_c, 6, 60, 0
14, 30663, Note_off_c, 6, 64, 0
14, 30670, Note_on_c, 6, 58, 56
14, 30672, Note_on_c, 6, 60, 58
14, 30674, Note_on_c, 6, 64, 59
14, 30710, Note_off_c, 6, 58, 0
14, 30710, Note_off_c, 6, 60, 0
14, 30711, Note_off_c, 6, 64, 0
14, 30718, Note_on_c, 6, 55, 57
14, 30720, Note_on_c, 6, 60, 57
14, 30725, Note_on_c, 6, 64, 57
14, 30757, Note_off_c, 6, 55, 0
14, 30757, Note_off_c, 6, 60, 0
14, 30758, Note_off_c, 6, 64, 0
14, 30765, Note_on_c, 6, 55, 61
14, 30767, Note_on_c, 6, 60, 58
14, 30770, Note_on_c, 6, 64, 59
14, 30805, Note_off_c, 6, 55, 0
14, 30806, Note_off_c, 6, 60, 0
14, 30806, Note_off_c, 6, 64, 0
14, 30813, Note_on_c, 6, 58, 64
14, 30815, Note_on_c, 6, 60, 57
14, 30817, Note_on_c, 6, 64, 56
14, 30854, Note_off_c, 6, 58, 0
14, 30855, Note_off_c, 6, 60, 0
14, 30855, Note_off_c, 6, 64, 0
14, 30862, Note_on_c, 6, 58, 59
14, 30864, Note_on_c, 6, 60, 59
14, 30866, Note_on_c, 6, 64, 59
14, 30903, Note_off_c, 6, 58, 0
14, 30904, Note_off_c, 6, 60, 0
14, 30905, Note_off_c, 6, 64, 0
14, 30911, Note_on_c, 6, 55, 57
14, 30913, Note_on_c, 6, 60, 58
14, 30915, Note_on_c, 6, 64, 58
14, 30949, Note_off_c, 6, 55, 0
14, 30950, Note_off_c, 6, 60, 0
14, 30950, Note_off_c, 6, 64, 0
14, 30960, Note_on_c, 6, 55, 56
14, 30962, Note_on_c, 6, 60, 57
14, 30964, Note_on_c, 6, 64, 57
14, 30998, Note_off_c, 6, 55, 0
14, 30999, Note_off_c, 6, 60, 0
14, 30999, Note_off_c, 6, 64, 0
14, 31006, Note_on_c, 6, 58, 64
14, 31008, Note_on_c, 6, 60, 59
14, 31010, Note_on_c, 6, 64, 60
14, 31047, Note_off_c, 6, 58, 0
14, 31048, Note_off_c, 6, 60, 0
14, 31049, Note_off_c, 6, 64, 0
14, 31055, Note_on_c, 6, 58, 57
14, 31058, Note_on_c, 6, 60, 59
14, 31060, Note_on_c, 6, 64, 57
14, 31093, Note_off_c, 6, 58, 0
14, 31094, Note_off_c, 6, 60, 0
14, 31095, Note_off_c, 6, 64, 0
14, 31108, Note_on_c, 6, 55, 58
14, 31110, Note_on_c, 6, 59, 59
14, 31112, Note_on_c, 6, 62, 58
14, 31142, Note_off_c, 6, 55, 0
14, 31143, Note_off_c, 6, 59, 0
14, 31144, Note_off_c, 6, 62, 0
14, 31154, Note_on_c, 6, 55, 60
14, 31156, Note_on_c, 6, 59, 60
14, 31159, Note_on_c, 6, 62, 59
14, 31192, Note_off_c, 6, 55, 0
14, 31193, Note_off_c, 6, 59, 0
14, 31194, Note_off_c, 6, 62, 0
14, 31200, Note_on_c, 6, 55, 65
14, 31203, Note_on_c, 6, 59, 57
14, 31205, Note_on_c, 6, 64, 58
14, 31237, Note_off_c, 6, 55, 0
14, 31238, Note_off_c, 6, 59, 0
14, 31239, Note_off_c, 6, 64, 0
14, 31248, Note_on_c, 6, 55, 59
14, 31250, Note_on_c, 6, 59, 60
14, 31252, Note_on_c, 6, 64, 59
14, 31287, Note_off_c, 6, 55, 0
14, 31287, Note_off_c, 6, 59, 0
14, 31288, Note_off_c, 6, 64, 0
14, 31295, Note_on_c, 6, 55, 56
14, 31298, Note_on_c, 6, 59, 59
14, 31300, Note_on_c, 6, 62, 60
14, 31335, Note_off_c, 6, 55, 0
14, 31335, Note_off_c, 6, 59, 0
14, 31336, Note_off_c, 6, 62, 0
14, 31344, Note_on_c, 6, 55, 56
14, 31346, Note_on_c, 6, 59, 56
14, 31348, Note_on_c, 6, 62, 56
14, 31382, Note_off_c, 6, 55, 0
14, 31382, Note_off_c, 6, 59, 0
14, 31383, Note_off_c, 6, 62, 0
14, 31389, Note_on_c, 6, 55, 67
14, 31392, Note_on_c, 6, 59, 57
14, 31394, Note_on_c, 6, 64, 57
14, 31430, Note_off_c, 6, 55, 0
14, 31431, Note_off_c, 6, 59, 0
14, 31431, Note_off_c, 6, 64, 0
14, 31438, Note_on_c, 6, 55, 56
14, 31440, Note_on_c, 6, 59, 58
14, 31442, Note_on_c, 6, 64, 56
14, 31477, Note_off_c, 6, 55, 0
14, 31478, Note_off_c, 6, 59, 0
14, 31478, Note_off_c, 6, 64, 0
14, 31485, Note_on_c, 6, 55, 60
14, 31487, Note_on_c, 6, 59, 59
14, 31490, Note_on_c, 6, 62, 59
14, 31525, Note_off_c, 6, 55, 0
14, 31526, Note_off_c, 6, 59, 0
14, 31527, Note_off_c, 6, 62, 0
14, 31534, Note_on_c, 6, 55, 61
14, 31536, Note_on_c, 6, 59, 56
14, 31539, Note_on_c, 6, 62, 57
14, 31576, Note_off_c, 6, 55, 0
14, 31576, Note_off_c, 6, 59, 0
14, 31577, Note_off_c, 6, 62, 0
14, 31583, Note_on_c, 6, 55, 68
14, 31585, Note_on_c, 6, 59, 58
14, 31588, Note_on_c, 6, 64, 56
14, 31624, Note_off_c, 6, 55, 0
14, 31625, Note_off_c, 6, 59, 0
14, 31626, Note_off_c, 6, 64, 0
14, 31632, Note_on_c, 6, 55, 56
14, 31634, Note_on_c, 6, 59, 60
14, 31636, Note_on_c, 6, 64, 60
14, 31670, Note_off_c, 6, 55, 0
14, 31670, Note_off_c, 6, 59, 0
14, 31671, Note_off_c, 6, 64, 0
14, 31678, Note_on_c, 6, 55, 58
14, 31680, Note_on_c, 6, 59, 57
14, 31682, Note_on_c, 6, 62, 58
14, 31719, Note_off_c, 6, 55, 0
14, 31720, Note_off_c, 6, 59, 0
14, 31720, Note_off_c, 6, 62, 0
14, 31727, Note_on_c, 6, 55, 59
14, 31729, Note_on_c, 6, 59, 60
14, 31731, Note_on_c, 6, 62, 56
14, 31765, Note_off_c, 6, 55, 0
14, 31766, Note_off_c, 6, 59, 0
14, 31766, Note_off_c, 6, 62, 0
14, 31776, Note_on_c, 6, 55, 67
14, 31779, Note_on_c, 6, 59, 58
14, 31782, Note_on_c, 6, 64, 56
14, 31814, Note_off_c, 6, 55, 0
14, 31815, Note_off_c, 6, 59, 0
14, 31815, Note_off_c, 6, 64, 0
14, 31822, Note_on_c, 6, 55, 59
14, 31824, Note_on_c, 6, 59, 57
14, 31826, Note_on_c, 6, 64, 59
14, 31863, Note_off_c, 6, 55, 0
14, 31864, Note_off_c, 6, 59, 0
14, 31865, Note_off_c, 6, 64, 0
14, 31877, Note_on_c, 6, 55, 57
14, 31879, Note_on_c, 6, 60, 58
14, 31882, Note_on_c, 6, 64, 56
14, 31909, Note_off_c, 6, 55, 0
14, 31910, Note_off_c, 6, 60, 0
14, 31910, Note_off_c, 6, 64, 0
14, 31918, Note_on_c, 6, 55, 59
14, 31920, Note_on_c, 6, 60, 58
14, 31922, Note_on_c, 6, 64, 58
14, 31958, Note_off_c, 6, 55, 0
14, 31959, Note_off_c, 6, 60, 0
14, 31960, Note_off_c, 6, 64, 0
14, 31969, Note_on_c, 6, 58, 68
14, 31971, Note_on_c, 6, 60, 56
14, 31973, Note_on_c, 6, 64, 56
14, 32007, Note_off_c, 6, 58, 0
14, 32008, Note_off_c, 6, 60, 0
14, 32009, Note_off_c, 6, 64, 0
14, 32016, Note_on_c, 6, 58, 60
14, 32017, Note_on_c, 6, 60, 60
14, 32020, Note_on_c, 6, 64, 56
14, 32053, Note_off_c, 6, 58, 0
14, 32054, Note_off_c, 6, 60, 0
14, 32055, Note_off_c, 6, 64, 0
14, 32063, Note_on_c, 6, 55, 60
14, 32065, Note_on_c, 6, 60, 56
14, 32067, Note_on_c, 6, 64, 57
14, 32102, Note_off_c, 6, 55, 0
14, 32103, Note_off_c, 6, 60, 0
14, 32104, Note_off_c, 6, 64, 0
14, 32110, Note_on_c, 6, 55, 58
14, 32113, Note_on_c, 6, 60, 60
14, 32115, Note_on_c, 6, 64, 57
14, 32149, Note_off_c, 6, 55, 0
14, 32150, Note_off_c, 6, 60, 0
14, 32151, Note_off_c, 6, 64, 0
14, 32158, Note_on_c, 6, 58, 66
14, 32160, Note_on_c, 6, 60, 59
14, 32162, Note_on_c, 6, 64, 58
14, 32197, Note_off_c, 6, 58, 0
14, 32198, Note_off_c, 6, 60, 0
14, 32199, Note_off_c, 6, 64, 0
14, 32205, Note_on_c, 6, 58, 58
14, 32208, Note_on_c, 6, 60, 56
14, 32210, Note_on_c, 6, 64, 56
14, 32246, Note_off_c, 6, 58, 0
14, 32247, Note_off_c, 6, 60, 0
14, 32248, Note_off_c, 6, 64, 0
14, 32254, Note_on_c, 6, 55, 59
14, 32257, Note_on_c, 6, 60, 57
14, 32260, Note_on_c, 6, 64, 56
14, 32297, Note_off_c, 6, 55, 0
14, 32297, Note_off_c, 6, 60, 0
14, 32298, Note_off_c, 6, 64, 0
14, 32306, Note_on_c, 6, 55, 60
14, 32309, Note_on_c, 6, 60, 58
14, 32311, Note_on_c, 6, 64, 58
14, 32341, Note_off_c, 6, 55, 0
14, 32342, Note_off_c, 6, 60, 0
14, 32343, Note_off_c, 6, 64, 0
14, 32352, Note_on_c, 6, 58, 68
14, 32355, Note_on_c, 6, 60, 56
14, 32357, Note_on_c, 6, 64, 60
14, 32391, Note_off_c, 6, 58, 0
14, 32391, Note_off_c, 6, 60, 0
14, 32392, Note_off_c, 6, 64, 0
14, 32398, Note_on_c, 6, 58, 59
14, 32401, Note_on_c, 6, 60, 61
14, 32403, Note_on_c, 6, 64, 60
14, 32440, Note_off_c, 6, 58, 0
14, 32441, Note_off_c, 6, 60, 0
14, 32441, Note_off_c, 6, 64, 0
14, 32448, Note_on_c, 6, 55, 57
14, 32450, Note_on_c, 6, 60, 59
14, 32452, Note_on_c, 6, 64, 59
14, 32486, Note_off_c, 6, 55, 0
14, 32487, Note_off_c, 6, 60, 0
14, 32487, Note_off_c, 6, 64, 0
14, 32493, Note_on_c, 6, 55, 59
14, 32496, Note_on_c, 6, 60, 59
14, 32498, Note_on_c, 6, 64, 56
14, 32535, Note_off_c, 6, 55, 0
14, 32536, Note_off_c, 6, 60, 0
14, 32537, Note_off_c, 6, 64, 0
14, 32543, Note_on_c, 6, 58, 65
14, 32545, Note_on_c, 6, 60, 56
14, 32547, Note_on_c, 6, 64, 60
14, 32581, Note_off_c, 6, 58, 0
14, 32581, Note_off_c, 6, 60, 0
14, 32582, Note_off_c, 6, 64, 0
14, 32591, Note_on_c, 6, 58, 60
14, 32594, Note_on_c, 6, 60, 56
14, 32596, Note_on_c, 6, 64, 58
14, 32630, Note_off_c, 6, 58, 0
14, 32631, Note_off_c, 6, 60, 0
14, 32631, Note_off_c, 6, 64, 0
14, 32638, Note_on_c, 6, 55, 57
14, 32640, Note_on_c, 6, 59, 58
14, 32646, Note_on_c, 6, 62, 58
14, 32680, Note_off_c, 6, 55, 0
14, 32681, Note_off_c, 6, 59, 0
14, 32682, Note_off_c, 6, 62, 0
14, 32689, Note_on_c, 6, 55, 57
14, 32694, Note_on_c, 6, 59, 60
14, 32696, Note_on_c, 6, 62, 59
14, 32725, Note_off_c, 6, 55, 0
14, 32726, Note_off_c, 6, 59, 0
14, 32726, Note_off_c, 6, 62, 0
14, 32733, Note_on_c, 6, 55, 64
14, 32736, Note_on_c, 6, 59, 56
14, 32738, Note_on_c, 6, 64, 60
14, 32774, Note_off_c, 6, 55, 0
14, 32775, Note_off_c, 6, 59, 0
14, 32776, Note_off_c, 6, 64, 0
14, 32782, Note_on_c, 6, 55, 57
14, 32784, Note_on_c, 6, 59, 59
14, 32786, Note_on_c, 6, 64, 57
14, 32822, Note_off_c, 6, 55, 0
14, 32823, Note_off_c, 6, 59, 0
14, 32824, Note_off_c, 6, 64, 0
14, 32830, Note_on_c, 6, 55, 56
14, 32832, Note_on_c, 6, 59, 56
14, 32835, Note_on_c, 6, 62, 60
14, 32869, Note_off_c, 6, 55, 0
14, 32870, Note_off_c, 6, 59, 0
14, 32871, Note_off_c, 6, 62, 0
14, 32877, Note_on_c, 6, 55, 58
14, 32880, Note_on_c, 6, 59, 56
14, 32882, Note_on_c, 6, 62, 59
14, 32917, Note_off_c, 6, 55, 0
14, 32918, Note_off_c, 6, 59, 0
14, 32919, Note_off_c, 6, 62, 0
14, 32925, Note_on_c, 6, 55, 65
14, 32927, Note_on_c, 6, 59, 60
14, 32929, Note_on_c, 6, 64, 57
14, 32967, Note_off_c, 6, 55, 0
14, 32968, Note_off_c, 6, 59, 0
14, 32969, Note_off_c, 6, 64, 0
14, 32975, Note_on_c, 6, 55, 60
14, 32978, Note_on_c, 6, 59, 60
14, 32980, Note_on_c, 6, 64, 57
14, 33013, Note_off_c, 6, 55, 0
14, 33014, Note_off_c, 6, 59, 0
14, 33015, Note_off_c, 6, 64, 0
14, 33021, Note_on_c, 6, 55, 58
14, 33023, Note_on_c, 6, 59, 56
14, 33029, Note_on_c, 6, 62, 56
14, 33063, Note_off_c, 6, 55, 0
14, 33063, Note_off_c, 6, 59, 0
14, 33064, Note_off_c, 6, 62, 0
14, 33071, Note_on_c, 6, 55, 60
14, 33073, Note_on_c, 6, 59, 57
14, 33078, Note_on_c, 6, 62, 58
14, 33112, Note_off_c, 6, 55, 0
14, 33113, Note_off_c, 6, 59, 0
14, 33114, Note_off_c, 6, 62, 0
14, 33120, Note_on_c, 6, 55, 66
14, 33123, Note_on_c, 6, 59, 57
14, 33126, Note_on_c, 6, 64, 56
14, 33157, Note_off_c, 6, 55, 0
14, 33158, Note_off_c, 6, 59, 0
14, 33159, Note_off_c, 6, 64, 0
14, 33168, Note_on_c, 6, 55, 58
14, 33170, Note_on_c, 6, 59, 60
14, 33172, Note_on_c, 6, 64, 60
14, 33206, Note_off_c, 6, 55, 0
14, 33207, Note_off_c, 6, 59, 0
14, 33208, Note_off_c, 6, 64, 0
14, 33214, Note_on_c, 6, 55, 59
14, 33218, Note_on_c, 6, 59, 60
14, 33220, Note_on_c, 6, 62, 57
14, 33256, Note_off_c, 6, 55, 0
14, 33257, Note_off_c, 6, 59, 0
14, 33257, Note_off_c, 6, 62, 0
14, 33264, Note_on_c, 6, 55, 57
14, 33266, Note_on_c, 6, 59, 58
14, 33268, Note_on_c, 6, 62, 57
14, 33302, Note_off_c, 6, 55, 0
14, 33302, Note_off_c, 6, 59, 0
14, 33303, Note_off_c, 6, 62, 0
14, 33313, Note_on_c, 6, 55, 67
14, 33315, Note_on_c, 6, 59, 59
14, 33318, Note_on_c, 6, 64, 57
14, 33351, Note_off_c, 6, 55, 0
14, 33352, Note_off_c, 6, 59, 0
14, 33352, Note_off_c, 6, 64, 0
14, 33359, Note_on_c, 6, 55, 59
14, 33360, Note_on_c, 6, 59, 58
14, 33363, Note_on_c, 6, 64, 60
14, 33400, Note_off_c, 6, 55, 0
14, 33401, Note_off_c, 6, 59, 0
14, 33401, Note_off_c, 6, 64, 0
14, 33410, Note_on_c, 6, 54, 58
14, 33413, Note_on_c, 6, 57, 58
14, 33416, Note_on_c, 6, 62, 60
14, 33446, Note_off_c, 6, 54, 0
14, 33446, Note_off_c, 6, 57, 0
14, 33447, Note_off_c, 6, 62, 0
14, 33454, Note_on_c, 6, 54, 60
14, 33457, Note_on_c, 6, 57, 60
14, 33460, Note_on_c, 6, 62, 60
14, 33495, Note_off_c, 6, 54, 0
14, 33496, Note_off_c, 6, 57, 0
14, 33497, Note_off_c, 6, 62, 0
14, 33503, Note_on_c, 6, 54, 65
14, 33505, Note_on_c, 6, 60, 60
14, 33507, Note_on_c, 6, 62, 59
14, 33542, Note_off_c, 6, 54, 0
14, 33543, Note_off_c, 6, 60, 0
14, 33544, Note_off_c, 6, 62, 0
14, 33551, Note_on_c, 6, 54, 61
14, 33553, Note_on_c, 6, 60, 57
14, 33555, Note_on_c, 6, 62, 59
14, 33590, Note_off_c, 6, 54, 0
14, 33591, Note_off_c, 6, 60, 0
14, 33591, Note_off_c, 6, 62, 0
14, 33598, Note_on_c, 6, 54, 56
14, 33600, Note_on_c, 6, 57, 60
14, 33602, Note_on_c, 6, 62, 56
14, 33637, Note_off_c, 6, 54, 0
14, 33638, Note_off_c, 6, 57, 0
14, 33638, Note_off_c, 6, 62, 0
14, 33645, Note_on_c, 6, 54, 56
14, 33647, Note_on_c, 6, 57, 56
14, 33650, Note_on_c, 6, 62, 57
14, 33685, Note_off_c, 6, 54, 0
14, 33685, Note_off_c, 6, 57, 0
14, 33686, Note_off_c, 6, 62, 0
14, 33695, Note_on_c, 6, 54, 67
14, 33698, Note_on_c, 6, 60, 57
14, 33701, Note_on_c, 6, 62, 60
14, 33734, Note_off_c, 6, 54, 0
14, 33735, Note_off_c, 6, 60, 0
14, 33735, Note_off_c, 6, 62, 0
14, 33742, Note_on_c, 6, 54, 60
14, 33744, Note_on_c, 6, 60, 56
14, 33746, Note_on_c, 6, 62, 56
14, 33783, Note_off_c, 6, 54, 0
14, 33784, Note_off_c, 6, 60, 0
14, 33785, Note_off_c, 6, 62, 0
14, 33791, Note_on_c, 6, 55, 57
14, 33794, Note_on_c, 6, 60, 56
14, 33798, Note_on_c, 6, 64, 60
14, 33829, Note_off_c, 6, 55, 0
14, 33830, Note_off_c, 6, 60, 0
14, 33830, Note_off_c, 6, 64, 0
14, 33840, Note_on_c, 6, 55, 60
14, 33843, Note_on_c, 6, 60, 59
14, 33846, Note_on_c, 6, 64, 56
14, 33878, Note_off_c, 6, 55, 0
14, 33879, Note_off_c, 6, 60, 0
14, 33880, Note_off_c, 6, 64, 0
14, 33886, Note_on_c, 6, 58, 64
14, 33889, Note_on_c, 6, 60, 60
14, 33891, Note_on_c, 6, 64, 57
14, 33927, Note_off_c, 6, 58, 0
14, 33928, Note_off_c, 6, 60, 0
14, 33929, Note_off_c, 6, 64, 0
14, 33938, Note_on_c, 6, 58, 57
14, 33941, Note_on_c, 6, 60, 59
14, 33943, Note_on_c, 6, 64, 60
14, 33973, Note_off_c, 6, 58, 0
14, 33974, Note_off_c, 6, 60, 0
14, 33974, Note_off_c, 6, 64, 0
14, 33984, Note_on_c, 6, 55, 59
14, 33986, Note_on_c, 6, 60, 59
14, 33988, Note_on_c, 6, 64, 57
14, 34023, Note_off_c, 6, 55, 0
14, 34023, Note_off_c, 6, 60, 0
14, 34024, Note_off_c, 6, 64, 0
14, 34030, Note_on_c, 6, 55, 56
14, 34032, Note_on_c, 6, 60, 57
14, 34034, Note_on_c, 6, 64, 59
14, 34072, Note_off_c, 6, 55, 0
14, 34073, Note_off_c, 6, 60, 0
14, 34073, Note_off_c, 6, 64, 0
14, 34080, Note_on_c, 6, 58, 68
14, 34082, Note_on_c, 6, 60, 57
14, 34084, Note_on_c, 6, 64, 57
14, 34117, Note_off_c, 6, 58, 0
14, 34118, Note_off_c, 6, 60, 0
14, 34119, Note_off_c, 6, 64, 0
14, 34128, Note_on_c, 6, 58, 57
14, 34130, Note_on_c, 6, 60, 60
14, 34132, Note_on_c, 6, 64, 59
14, 34167, Note_off_c, 6, 58, 0
14, 34167, Note_off_c, 6, 60, 0
14, 34168, Note_off_c, 6, 64, 0
14, 34175, Note_on_c, 6, 55, 67
14, 34177, Note_on_c, 6, 59, 60
14, 34182, Note_on_c, 6, 62, 60
14, 34325, Note_off_c, 6, 55, 0
14, 34326, Note_off_c, 6, 59, 0
14, 34326, Note_off_c, 6, 62, 0
14, 34557, Note_on_c, 6, 55, 67
14, 34559, Note_on_c, 6, 59, 57
14, 34564, Note_on_c, 6, 62, 59
14, 34638, Note_off_c, 6, 55, 0
14, 34639, Note_off_c, 6, 59, 0
14, 34639, Note_off_c, 6, 62, 0
14, 34656, Note_on_c, 6, 55, 64
14, 34659, Note_on_c, 6, 59, 60
14, 34662, Note_on_c, 6, 62, 59
14, 34733, Note_off_c, 6, 55, 0
14, 34733, Note_off_c, 6, 59, 0
14, 34734, Note_off_c, 6, 62, 0
14, 34751, Note_on_c, 6, 55, 68
14, 34755, Note_on_c, 6, 59, 59
14, 34757, Note_on_c, 6, 62, 60
14, 34832, Note_off_c, 6, 55, 0
14, 34832, Note_off_c, 6, 59, 0
14, 34833, Note_off_c, 6, 62, 0
14, 34943, Note_on_c, 6, 55, 67
14, 34947, Note_on_c, 6, 59, 58
14, 34948, Note_on_c, 6, 62, 57
14, 34982, Note_off_c, 6, 55, 0
14, 34983, Note_off_c, 6, 59, 0
14, 34984, Note_off_c, 6, 62, 0
14, 34991, Note_on_c, 6, 55, 60
14, 34992, Note_on_c, 6, 59, 57
14, 34995, Note_on_c, 6, 62, 56
14, 35030, Note_off_c, 6, 55, 0
14, 35030, Note_off_c, 6, 59, 0
14, 35031, Note_off_c, 6, 62, 0
14, 35038, Note_on_c, 6, 55, 56
14, 35040, Note_on_c, 6, 59, 59
14, 35042, Note_on_c, 6, 62, 60
14, 35077, Note_off_c, 6, 55, 0
14, 35078, Note_off_c, 6, 59, 0
14, 35079, Note_off_c, 6, 62, 0
14, 35085, Note_on_c, 6, 55, 58
14, 35087, Note_on_c, 6, 59, 58
14, 35089, Note_on_c, 6, 62, 58
14, 35127, Note_off_c, 6, 55, 0
14, 35127, Note_off_c, 6, 59, 0
14, 35128, Note_off_c, 6, 62, 0
14, 35134, Note_on_c, 6, 55, 65
14, 35137, Note_on_c, 6, 59, 57
14, 35139, Note_on_c, 6, 62, 59
14, 35176, Note_off_c, 6, 55, 0
14, 35177, Note_off_c, 6, 59, 0
14, 35177, Note_off_c, 6, 62, 0
14, 35183, Note_on_c, 6, 55, 59
14, 35186, Note_on_c, 6, 59, 60
14, 35188, Note_on_c, 6, 62, 58
14, 35221, Note_off_c, 6, 55, 0
14, 35222, Note_off_c, 6, 59, 0
14, 35223, Note_off_c, 6, 62, 0
14, 35230, Note_on_c, 6, 55, 57
14, 35232, Note_on_c, 6, 59, 56
14, 35234, Note_on_c, 6, 62, 58
14, 35271, Note_off_c, 6, 55, 0
14, 35272, Note_off_c, 6, 59, 0
14, 35272, Note_off_c, 6, 62, 0
14, 35278, Note_on_c, 6, 55, 58
14, 35281, Note_on_c, 6, 59, 58
14, 35283, Note_on_c, 6, 62, 60
14, 35320, Note_off_c, 6, 55, 0
14, 35321, Note_off_c, 6, 59, 0
14, 35322, Note_off_c, 6, 62, 0
14, 35329, Note_on_c, 6, 55, 65
14, 35332, Note_on_c, 6, 59, 57
14, 35334, Note_on_c, 6, 62, 58
14, 35366, Note_off_c, 6, 55, 0
14, 35366, Note_off_c, 6, 59, 0
14, 35367, Note_off_c, 6, 62, 0
14, 35373, Note_on_c, 6, 55, 59
14, 35376, Note_on_c, 6, 59, 57
14, 35378, Note_on_c, 6, 62, 58
14, 35415, Note_off_c, 6, 55, 0
14, 35416, Note_off_c, 6, 59, 0
14, 35417, Note_off_c, 6, 62, 0
14, 35423, Note_on_c, 6, 55, 60
14, 35425, Note_on_c, 6, 59, 59
14, 35427, Note_on_c, 6, 62, 60
14, 35461, Note_off_c, 6, 55, 0
14, 35462, Note_off_c, 6, 59, 0
14, 35462, Note_off_c, 6, 62, 0
14, 35471, Note_on_c, 6, 55, 59
14, 35473, Note_on_c, 6, 59, 60
14, 35475, Note_on_c, 6, 62, 60
14, 35510, Note_off_c, 6, 55, 0
14, 35511, Note_off_c, 6, 59, 0
14, 35512, Note_off_c, 6, 62, 0
14, 35518, Note_on_c, 6, 55, 68
14, 35520, Note_on_c, 6, 59, 58
14, 35522, Note_on_c, 6, 62, 60
14, 35559, Note_off_c, 6, 55, 0
14, 35560, Note_off_c, 6, 59, 0
14, 35561, Note_off_c, 6, 62, 0
14, 35567, Note_on_c, 6, 55, 57
14, 35569, Note_on_c, 6, 59, 58
14, 35571, Note_on_c, 6, 62, 56
14, 35605, Note_off_c, 6, 55, 0
14, 35606, Note_off_c, 6, 59, 0
14, 35606, Note_off_c, 6, 62, 0
14, 35613, Note_on_c, 6, 55, 56
14, 35615, Note_on_c, 6, 59, 58
14, 35617, Note_on_c, 6, 62, 59
14, 35654, Note_off_c, 6, 55, 0
14, 35655, Note_off_c, 6, 59, 0
14, 35656, Note_off_c, 6, 62, 0
14, 35662, Note_on_c, 6, 55, 60
14, 35664, Note_on_c, 6, 59, 56
14, 35666, Note_on_c, 6, 62, 56
14, 35702, Note_off_c, 6, 55, 0
14, 35703, Note_off_c, 6, 59, 0
14, 35704, Note_off_c, 6, 62, 0
14, 35711, Note_on_c, 6, 55, 67
14, 35715, Note_on_c, 6, 59, 59
14, 35717, Note_on_c, 6, 62, 56
14, 35749, Note_off_c, 6, 55, 0
14, 35750, Note_off_c, 6, 59, 0
14, 35751, Note_off_c, 6, 62, 0
14, 35757, Note_on_c, 6, 55, 57
14, 35759, Note_on_c, 6, 59, 59
14, 35761, Note_on_c, 6, 62, 56
14, 35797, Note_off_c, 6, 55, 0
14, 35798, Note_off_c, 6, 59, 0
14, 35799, Note_off_c, 6, 62, 0
14, 35805, Note_on_c, 6, 55, 57
14, 35807, Note_on_c, 6, 59, 60
14, 35810, Note_on_c, 6, 62, 58
14, 35848, Note_off_c, 6, 55, 0
14, 35848, Note_off_c, 6, 59, 0
14, 35849, Note_off_c, 6, 62, 0
14, 35855, Note_on_c, 6, 55, 60
14, 35858, Note_on_c, 6, 59, 57
14, 35860, Note_on_c, 6, 62, 56
14, 35893, Note_off_c, 6, 55, 0
14, 35894, Note_off_c, 6, 59, 0
14, 35895, Note_off_c, 6, 62, 0
14, 35901, Note_on_c, 6, 55, 66
14, 35904, Note_on_c, 6, 59, 60
14, 35906, Note_on_c, 6, 62, 57
14, 35942, Note_off_c, 6, 55, 0
14, 35943, Note_off_c, 6, 59, 0
14, 35944, Note_off_c, 6, 62, 0
14, 35950, Note_on_c, 6, 55, 58
14, 35953, Note_on_c, 6, 59, 58
14, 35955, Note_on_c, 6, 62, 59
14, 35992, Note_off_c, 6, 55, 0
14, 35993, Note_off_c, 6, 59, 0
14, 35993, Note_off_c, 6, 62, 0
14, 36000, Note_on_c, 6, 55, 60
14, 36003, Note_on_c, 6, 59, 59
14, 36005, Note_on_c, 6, 62, 60
14, 36037, Note_off_c, 6, 55, 0
14, 36038, Note_off_c, 6, 59, 0
14, 36039, Note_off_c, 6, 62, 0
14, 36049, Note_on_c, 6, 55, 56
14, 36051, Note_on_c, 6, 59, 60
14, 36053, Note_on_c, 6, 62, 59
14, 36087, Note_off_c, 6, 55, 0
14, 36087, Note_off_c, 6, 59, 0
14, 36088, Note_off_c, 6, 62, 0
14, 36095, Note_on_c, 6, 53, 65
14, 36097, Note_on_c, 6, 55, 59
14, 36099, Note_on_c, 6, 59, 56
14, 36136, Note_off_c, 6, 53, 0
14, 36137, Note_off_c, 6, 55, 0
14, 36137, Note_off_c, 6, 59, 0
14, 36144, Note_on_c, 6, 53, 58
14, 36146, Note_on_c, 6, 55, 58
14, 36148, Note_on_c, 6, 59, 57
14, 36182, Note_off_c, 6, 53, 0
14, 36182, Note_off_c, 6, 55, 0
14, 36183, Note_off_c, 6, 59, 0
14, 36189, Note_on_c, 6, 53, 59
14, 36192, Note_on_c, 6, 55, 57
14, 36194, Note_on_c, 6, 59, 56
14, 36231, Note_off_c, 6, 53, 0
14, 36232, Note_off_c, 6, 55, 0
14, 36233, Note_off_c, 6, 59, 0
14, 36239, Note_on_c, 6, 53, 59
14, 36241, Note_on_c, 6, 55, 56
14, 36243, Note_on_c, 6, 59, 58
14, 36280, Note_off_c, 6, 53, 0
14, 36281, Note_off_c, 6, 55, 0
14, 36282, Note_off_c, 6, 59, 0
14, 36288, Note_on_c, 6, 53, 65
14, 36290, Note_on_c, 6, 55, 58
14, 36293, Note_on_c, 6, 59, 58
14, 36326, Note_off_c, 6, 53, 0
14, 36327, Note_off_c, 6, 55, 0
14, 36327, Note_off_c, 6, 59, 0
14, 36333, Note_on_c, 6, 53, 60
14, 36336, Note_on_c, 6, 55, 56
14, 36338, Note_on_c, 6, 59, 58
14, 36375, Note_off_c, 6, 53, 0
14, 36376, Note_off_c, 6, 55, 0
14, 36377, Note_off_c, 6, 59, 0
14, 36383, Note_on_c, 6, 53, 58
14, 36385, Note_on_c, 6, 55, 58
14, 36388, Note_on_c, 6, 59, 60
14, 36421, Note_off_c, 6, 53, 0
14, 36421, Note_off_c, 6, 55, 0
14, 36422, Note_off_c, 6, 59, 0
14, 36429, Note_on_c, 6, 53, 56
14, 36432, Note_on_c, 6, 55, 57
14, 36434, Note_on_c, 6, 59, 56
14, 36470, Note_off_c, 6, 53, 0
14, 36471, Note_off_c, 6, 55, 0
14, 36472, Note_off_c, 6, 59, 0
14, 36478, Note_on_c, 6, 58, 66
14, 36481, Note_on_c, 6, 62, 59
14, 36486, Note_on_c, 6, 64, 56
14, 36517, Note_off_c, 6, 58, 0
14, 36518, Note_off_c, 6, 62, 0
14, 36519, Note_off_c, 6, 64, 0
14, 36525, Note_on_c, 6, 58, 57
14, 36527, Note_on_c, 6, 62, 56
14, 36530, Note_on_c, 6, 64, 57
14, 36565, Note_off_c, 6, 58, 0
14, 36566, Note_off_c, 6, 62, 0
14, 36566, Note_off_c, 6, 64, 0
14, 36573, Note_on_c, 6, 58, 57
14, 36575, Note_on_c, 6, 62, 56
14, 36577, Note_on_c, 6, 64, 59
14, 36614, Note_off_c, 6, 58, 0
14, 36615, Note_off_c, 6, 62, 0
14, 36616, Note_off_c, 6, 64, 0
14, 36622, Note_on_c, 6, 58, 56
14, 36624, Note_on_c, 6, 62, 58
14, 36626, Note_on_c, 6, 64, 57
14, 36663, Note_off_c, 6, 58, 0
14, 36664, Note_off_c, 6, 62, 0
14, 36665, Note_off_c, 6, 64, 0
14, 36671, Note_on_c, 6, 58, 67
14, 36674, Note_on_c, 6, 62, 58
14, 36677, Note_on_c, 6, 64, 59
14, 36709, Note_off_c, 6, 58, 0
14, 36710, Note_off_c, 6, 62, 0
14, 36710, Note_off_c, 6, 64, 0
14, 36720, Note_on_c, 6, 58, 57
14, 36722, Note_on_c, 6, 62, 59
14, 36724, Note_on_c, 6, 64, 58
14, 36758, Note_off_c, 6, 58, 0
14, 36759, Note_off_c, 6, 62, 0
14, 36760, Note_off_c, 6, 64, 0
14, 36766, Note_on_c, 6, 58, 59
14, 36770, Note_on_c, 6, 62, 59
14, 36772, Note_on_c, 6, 64, 57
14, 36808, Note_off_c, 6, 58, 0
14, 36808, Note_off_c, 6, 62, 0
14, 36809, Note_off_c, 6, 64, 0
14, 36816, Note_on_c, 6, 58, 59
14, 36817, Note_on_c, 6, 62, 57
14, 36820, Note_on_c, 6, 64, 59
14, 36853, Note_off_c, 6, 58, 0
14, 36854, Note_off_c, 6, 62, 0
14, 36855, Note_off_c, 6, 64, 0
14, 36865, Note_on_c, 6, 58, 64
14, 36868, Note_on_c, 6, 62, 59
14, 36869, Note_on_c, 6, 64, 56
14, 36902, Note_off_c, 6, 58, 0
14, 36903, Note_off_c, 6, 62, 0
14, 36905, Note_off_c, 6, 64, 0
14, 36910, Note_on_c, 6, 58, 60
14, 36913, Note_on_c, 6, 62, 59
14, 36915, Note_on_c, 6, 64, 57
14, 36952, Note_off_c, 6, 58, 0
14, 36953, Note_off_c, 6, 62, 0
14, 36953, Note_off_c, 6, 64, 0
14, 36960, Note_on_c, 6, 58, 58
14, 36962, Note_on_c, 6, 62, 59
14, 36964, Note_on_c, 6, 64, 60
14, 36998, Note_off_c, 6, 58, 0
14, 36998, Note_off_c, 6, 62, 0
14, 36999, Note_off_c, 6, 64, 0
14, 37005, Note_on_c, 6, 58, 58
14, 37007, Note_on_c, 6, 62, 59
14, 37009, Note_on_c, 6, 64, 59
14, 37047, Note_off_c, 6, 58, 0
14, 37048, Note_off_c, 6, 62, 0
14, 37048, Note_off_c, 6, 64, 0
14, 37054, Note_on_c, 6, 58, 67
14, 37057, Note_on_c, 6, 62, 58
14, 37059, Note_on_c, 6, 64, 57
14, 37095, Note_off_c, 6, 58, 0
14, 37096, Note_off_c, 6, 62, 0
14, 37097, Note_off_c, 6, 64, 0
14, 37103, Note_on_c, 6, 58, 57
14, 37105, Note_on_c, 6, 62, 58
14, 37107, Note_on_c, 6, 64, 57
14, 37142, Note_off_c, 6, 58, 0
14, 37142, Note_off_c, 6, 62, 0
14, 37143, Note_off_c, 6, 64, 0
14, 37150, Note_on_c, 6, 58, 57
14, 37152, Note_on_c, 6, 62, 56
14, 37154, Note_on_c, 6, 64, 56
14, 37191, Note_off_c, 6, 58, 0
14, 37191, Note_off_c, 6, 62, 0
14, 37192, Note_off_c, 6, 64, 0
14, 37198, Note_on_c, 6, 58, 59
14, 37202, Note_on_c, 6, 62, 57
14, 37204, Note_on_c, 6, 64, 57
14, 37237, Note_off_c, 6, 58, 0
14, 37238, Note_off_c, 6, 62, 0
14, 37238, Note_off_c, 6, 64, 0
14, 37245, Note_on_c, 6, 55, 67
14, 37248, Note_on_c, 6, 59, 57
14, 37250, Note_on_c, 6, 62, 58
14, 37286, Note_off_c, 6, 55, 0
14, 37287, Note_off_c, 6, 59, 0
14, 37287, Note_off_c, 6, 62, 0
14, 37294, Note_on_c, 6, 55, 59
14, 37296, Note_on_c, 6, 59, 59
14, 37298, Note_on_c, 6, 62, 59
14, 37335, Note_off_c, 6, 55, 0
14, 37336, Note_off_c, 6, 59, 0
14, 37337, Note_off_c, 6, 62, 0
14, 37343, Note_on_c, 6, 55, 57
14, 37345, Note_on_c, 6, 59, 57
14, 37348, Note_on_c, 6, 62, 58
14, 37381, Note_off_c, 6, 55, 0
14, 37382, Note_off_c, 6, 59, 0
14, 37382, Note_off_c, 6, 62, 0
14, 37391, Note_on_c, 6, 55, 60
14, 37394, Note_on_c, 6, 59, 56
14, 37395, Note_on_c, 6, 62, 56
14, 37430, Note_off_c, 6, 55, 0
14, 37431, Note_off_c, 6, 59, 0
14, 37431, Note_off_c, 6, 62, 0
14, 37438, Note_on_c, 6, 58, 68
14, 37440, Note_on_c, 6, 62, 58
14, 37443, Note_on_c, 6, 64, 56
14, 37479, Note_off_c, 6, 58, 0
14, 37480, Note_off_c, 6, 62, 0
14, 37481, Note_off_c, 6, 64, 0
14, 37487, Note_on_c, 6, 58, 56
14, 37490, Note_on_c, 6, 62, 58
14, 37491, Note_on_c, 6, 64, 56
14, 37525, Note_off_c, 6, 58, 0
14, 37526, Note_off_c, 6, 62, 0
14, 37526, Note_off_c, 6, 64, 0
14, 37536, Note_on_c, 6, 58, 60
14, 37538, Note_on_c, 6, 62, 56
14, 37540, Note_on_c, 6, 64, 59
14, 37574, Note_off_c, 6, 58, 0
14, 37575, Note_off_c, 6, 62, 0
14, 37576, Note_off_c, 6, 64, 0
14, 37582, Note_on_c, 6, 58, 58
14, 37585, Note_on_c, 6, 62, 58
14, 37587, Note_on_c, 6, 64, 58
14, 37623, Note_off_c, 6, 58, 0
14, 37624, Note_off_c, 6, 62, 0
14, 37625, Note_off_c, 6, 64, 0
14, 37631, Note_on_c, 6, 55, 66
14, 37634, Note_on_c, 6, 59, 58
14, 37636, Note_on_c, 6, 62, 58
14, 37669, Note_off_c, 6, 55, 0
14, 37670, Note_off_c, 6, 59, 0
14, 37670, Note_off_c, 6, 62, 0
14, 37680, Note_on_c, 6, 55, 59
14, 37682, Note_on_c, 6, 59, 56
14, 37684, Note_on_c, 6, 62, 59
14, 37718, Note_off_c, 6, 55, 0
14, 37719, Note_off_c, 6, 59, 0
14, 37720, Note_off_c, 6, 62, 0
14, 37728, Note_on_c, 6, 55, 56
14, 37731, Note_on_c, 6, 59, 56
14, 37733, Note_on_c, 6, 62, 56
14, 37768, Note_off_c, 6, 55, 0
14, 37768, Note_off_c, 6, 59, 0
14, 37769, Note_off_c, 6, 62, 0
14, 37775, Note_on_c, 6, 55, 60
14, 37778, Note_on_c, 6, 59, 59
14, 37780, Note_on_c, 6, 62, 58
14, 37813, Note_off_c, 6, 55, 0
14, 37814, Note_off_c, 6, 59, 0
14, 37815, Note_off_c, 6, 62, 0
14, 37823, Note_on_c, 6, 55, 65
14, 37825, Note_on_c, 6, 59, 59
14, 37827, Note_on_c, 6, 62, 59
14, 37862, Note_off_c, 6, 55, 0
14, 37863, Note_off_c, 6, 59, 0
14, 37864, Note_off_c, 6, 62, 0
14, 37871, Note_on_c, 6, 55, 60
14, 37873, Note_on_c, 6, 59, 57
14, 37875, Note_on_c, 6, 62, 56
14, 37910, Note_off_c, 6, 55, 0
14, 37910, Note_off_c, 6, 59, 0
14, 37911, Note_off_c, 6, 62, 0
14, 37918, Note_on_c, 6, 55, 58
14, 37920, Note_on_c, 6, 59, 56
14, 37922, Note_on_c, 6, 62, 58
14, 37958, Note_off_c, 6, 55, 0
14, 37958, Note_off_c, 6, 59, 0
14, 37959, Note_off_c, 6, 62, 0
14, 37965, Note_on_c, 6, 55, 57
14, 37968, Note_on_c, 6, 59, 56
14, 37970, Note_on_c, 6, 62, 57
14, 38007, Note_off_c, 6, 55, 0
14, 38008, Note_off_c, 6, 59, 0
14, 38009, Note_off_c, 6, 62, 0
14, 38019, Note_on_c, 6, 59, 67
14, 38022, Note_on_c, 6, 62, 59
14, 38024, Note_on_c, 6, 64, 57
14, 38095, Note_off_c, 6, 59, 0
14, 38096, Note_off_c, 6, 62, 0
14, 38096, Note_off_c, 6, 64, 0
14, 38397, Note_on_c, 6, 59, 66
14, 38402, Note_on_c, 6, 62, 57
14, 38404, Note_on_c, 6, 64, 58
14, 38478, Note_off_c, 6, 59, 0
14, 38479, Note_off_c, 6, 62, 0
14, 38479, Note_off_c, 6, 64, 0
14, 38781, Note_on_c, 6, 58, 64
14, 38784, Note_on_c, 6, 62, 58
14, 38788, Note_on_c, 6, 64, 60
14, 38861, Note_off_c, 6, 58, 0
14, 38862, Note_off_c, 6, 62, 0
14, 38863, Note_off_c, 6, 64, 0
14, 39168, Note_on_c, 6, 58, 66
14, 39171, Note_on_c, 6, 62, 60
14, 39173, Note_on_c, 6, 64, 57
14, 39247, Note_off_c, 6, 58, 0
14, 39248, Note_off_c, 6, 62, 0
14, 39249, Note_off_c, 6, 64, 0
14, 39551, Note_on_c, 6, 55, 57
14, 39555, Note_on_c, 6, 60, 58
14, 39558, Note_on_c, 6, 64, 57
14, 39589, Note_off_c, 6, 55, 0
14, 39590, Note_off_c, 6, 60, 0
14, 39591, Note_off_c, 6, 64, 0
14, 39601, Note_on_c, 6, 55, 60
14, 39603, Note_on_c, 6, 60, 60
14, 39605, Note_on_c, 6, 64, 58
14, 39638, Note_off_c, 6, 55, 0
14, 39639, Note_off_c, 6, 60, 0
14, 39640, Note_off_c, 6, 64, 0
14, 39647, Note_on_c, 6, 58, 65
14, 39649, Note_on_c, 6, 60, 56
14, 39652, Note_on_c, 6, 64, 58
14, 39688, Note_off_c, 6, 58, 0
14, 39689, Note_off_c, 6, 60, 0
14, 39689, Note_off_c, 6, 64, 0
14, 39696, Note_on_c, 6, 58, 58
14, 39698, Note_on_c, 6, 60, 58
14, 39700, Note_on_c, 6, 64, 57
14, 39733, Note_off_c, 6, 58, 0
14, 39734, Note_off_c, 6, 60, 0
14, 39735, Note_off_c, 6, 64, 0
14, 39741, Note_on_c, 6, 55, 58
14, 39743, Note_on_c, 6, 60, 56
14, 39746, Note_on_c, 6, 64, 56
14, 39783, Note_off_c, 6, 55, 0
14, 39783, Note_off_c, 6, 60, 0
14, 39784, Note_off_c, 6, 64, 0
14, 39791, Note_on_c, 6, 55, 56
14, 39793, Note_on_c, 6, 60, 58
14, 39795, Note_on_c, 6, 64, 56
14, 39832, Note_off_c, 6, 55, 0
14, 39833, Note_off_c, 6, 60, 0
14, 39833, Note_off_c, 6, 64, 0
14, 39840, Note_on_c, 6, 58, 66
14, 39842, Note_on_c, 6, 60, 58
14, 39844, Note_on_c, 6, 64, 56
14, 39877, Note_off_c, 6, 58, 0
14, 39878, Note_off_c, 6, 60, 0
14, 39880, Note_off_c, 6, 64, 0
14, 39885, Note_on_c, 6, 58, 56
14, 39887, Note_on_c, 6, 60, 56
14, 39889, Note_on_c, 6, 64, 58
14, 39927, Note_off_c, 6, 58, 0
14, 39928, Note_off_c, 6, 60, 0
14, 39928, Note_off_c, 6, 64, 0
14, 39935, Note_on_c, 6, 55, 60
14, 39937, Note_on_c, 6, 60, 56
14, 39940, Note_on_c, 6, 64, 60
14, 39976, Note_off_c, 6, 55, 0
14, 39976, Note_off_c, 6, 60, 0
14, 39977, Note_off_c, 6, 64, 0
14, 39984, Note_on_c, 6, 55, 57
14, 39986, Note_on_c, 6, 60, 59
14, 39988, Note_on_c, 6, 64, 58
14, 40022, Note_off_c, 6, 55, 0
14, 40023, Note_off_c, 6, 60, 0
14, 40023, Note_off_c, 6, 64, 0
14, 40030, Note_on_c, 6, 58, 68
14, 40032, Note_on_c, 6, 60, 58
14, 40034, Note_on_c, 6, 64, 60
14, 40070, Note_off_c, 6, 58, 0
14, 40071, Note_off_c, 6, 60, 0
14, 40072, Note_off_c, 6, 64, 0
14, 40078, Note_on_c, 6, 58, 57
14, 40080, Note_on_c, 6, 60, 59
14, 40082, Note_on_c, 6, 64, 58
14, 40117, Note_off_c, 6, 58, 0
14, 40118, Note_off_c, 6, 60, 0
14, 40118, Note_off_c, 6, 64, 0
14, 40125, Note_on_c, 6, 55, 56
14, 40127, Note_on_c, 6, 60, 59
14, 40130, Note_on_c, 6, 64, 57
14, 40165, Note_off_c, 6, 55, 0
14, 40166, Note_off_c, 6, 60, 0
14, 40166, Note_off_c, 6, 64, 0
14, 40173, Note_on_c, 6, 55, 59
14, 40175, Note_on_c, 6, 60, 60
14, 40177, Note_on_c, 6, 64, 57
14, 40215, Note_off_c, 6, 55, 0
14, 40216, Note_off_c, 6, 60, 0
14, 40216, Note_off_c, 6, 64, 0
14, 40223, Note_on_c, 6, 58, 66
14, 40226, Note_on_c, 6, 60, 59
14, 40227, Note_on_c, 6, 64, 60
14, 40261, Note_off_c, 6, 58, 0
14, 40262, Note_off_c, 6, 60, 0
14, 40262, Note_off_c, 6, 64, 0
14, 40269, Note_on_c, 6, 58, 60
14, 40271, Note_on_c, 6, 60, 56
14, 40273, Note_on_c, 6, 64, 60
14, 40310, Note_off_c, 6, 58, 0
14, 40311, Note_off_c, 6, 60, 0
14, 40312, Note_off_c, 6, 64, 0
14, 40325, Note_on_c, 6, 55, 59
14, 40326, Note_on_c, 6, 59, 60
14, 40329, Note_on_c, 6, 62, 56
14, 40359, Note_off_c, 6, 55, 0
14, 40360, Note_off_c, 6, 59, 0
14, 40361, Note_off_c, 6, 62, 0
14, 40370, Note_on_c, 6, 55, 58
14, 40373, Note_on_c, 6, 59, 56
14, 40375, Note_on_c, 6, 62, 58
14, 40405, Note_off_c, 6, 55, 0
14, 40406, Note_off_c, 6, 59, 0
14, 40406, Note_off_c, 6, 62, 0
14, 40416, Note_on_c, 6, 55, 64
14, 40417, Note_on_c, 6, 59, 58
14, 40420, Note_on_c, 6, 64, 56
14, 40454, Note_off_c, 6, 55, 0
14, 40455, Note_off_c, 6, 59, 0
14, 40456, Note_off_c, 6, 64, 0
14, 40462, Note_on_c, 6, 55, 60
14, 40464, Note_on_c, 6, 59, 57
14, 40466, Note_on_c, 6, 64, 56
14, 40504, Note_off_c, 6, 55, 0
14, 40504, Note_off_c, 6, 59, 0
14, 40505, Note_off_c, 6, 64, 0
14, 40511, Note_on_c, 6, 55, 61
14, 40514, Note_on_c, 6, 59, 57
14, 40516, Note_on_c, 6, 62, 56
14, 40549, Note_off_c, 6, 55, 0
14, 40550, Note_off_c, 6, 59, 0
14, 40551, Note_off_c, 6, 62, 0
14, 40561, Note_on_c, 6, 55, 60
14, 40563, Note_on_c, 6, 59, 60
14, 40565, Note_on_c, 6, 62, 60
14, 40598, Note_off_c, 6, 55, 0
14, 40599, Note_off_c, 6, 59, 0
14, 40600, Note_off_c, 6, 62, 0
14, 40606, Note_on_c, 6, 55, 67
14, 40609, Note_on_c, 6, 59, 60
14, 40611, Note_on_c, 6, 64, 59
14, 40648, Note_off_c, 6, 55, 0
14, 40648, Note_off_c, 6, 59, 0
14, 40649, Note_off_c, 6, 64, 0
14, 40656, Note_on_c, 6, 55, 56
14, 40658, Note_on_c, 6, 59, 59
14, 40660, Note_on_c, 6, 64, 56
14, 40693, Note_off_c, 6, 55, 0
14, 40694, Note_off_c, 6, 59, 0
14, 40695, Note_off_c, 6, 64, 0
14, 40701, Note_on_c, 6, 55, 59
14, 40704, Note_on_c, 6, 59, 60
14, 40709, Note_on_c, 6, 62, 56
14, 40743, Note_off_c, 6, 55, 0
14, 40744, Note_off_c, 6, 59, 0
14, 40744, Note_off_c, 6, 62, 0
14, 40751, Note_on_c, 6, 55, 60
14, 40753, Note_on_c, 6, 59, 60
14, 40758, Note_on_c, 6, 62, 58
14, 40790, Note_off_c, 6, 55, 0
14, 40790, Note_off_c, 6, 59, 0
14, 40791, Note_off_c, 6, 62, 0
14, 40799, Note_on_c, 6, 55, 67
14, 40801, Note_on_c, 6, 59, 58
14, 40802, Note_on_c, 6, 64, 58
14, 40837, Note_off_c, 6, 55, 0
14, 40838, Note_off_c, 6, 59, 0
14, 40839, Note_off_c, 6, 64, 0
14, 40845, Note_on_c, 6, 55, 58
14, 40848, Note_on_c, 6, 59, 57
14, 40850, Note_on_c, 6, 64, 58
14, 40885, Note_off_c, 6, 55, 0
14, 40885, Note_off_c, 6, 59, 0
14, 40886, Note_off_c, 6, 64, 0
14, 40894, Note_on_c, 6, 55, 57
14, 40898, Note_on_c, 6, 59, 58
14, 40901, Note_on_c, 6, 62, 59
14, 40936, Note_off_c, 6, 55, 0
14, 40937, Note_off_c, 6, 59, 0
14, 40937, Note_off_c, 6, 62, 0
14, 40944, Note_on_c, 6, 55, 58
14, 40945, Note_on_c, 6, 59, 59
14, 40948, Note_on_c, 6, 62, 57
14, 40982, Note_off_c, 6, 55, 0
14, 40983, Note_off_c, 6, 59, 0
14, 40983, Note_off_c, 6, 62, 0
14, 40990, Note_on_c, 6, 55, 64
14, 40992, Note_on_c, 6, 59, 59
14, 40994, Note_on_c, 6, 64, 58
14, 41031, Note_off_c, 6, 55, 0
14, 41032, Note_off_c, 6, 59, 0
14, 41032, Note_off_c, 6, 64, 0
14, 41039, Note_on_c, 6, 55, 60
14, 41041, Note_on_c, 6, 59, 59
14, 41043, Note_on_c, 6, 64, 60
14, 41077, Note_off_c, 6, 55, 0
14, 41077, Note_off_c, 6, 59, 0
14, 41078, Note_off_c, 6, 64, 0
14, 41089, Note_on_c, 6, 55, 57
14, 41093, Note_on_c, 6, 60, 58
14, 41095, Note_on_c, 6, 64, 56
14, 41126, Note_off_c, 6, 55, 0
14, 41127, Note_off_c, 6, 60, 0
14, 41127, Note_off_c, 6, 64, 0
14, 41134, Note_on_c, 6, 55, 57
14, 41137, Note_on_c, 6, 60, 59
14, 41139, Note_on_c, 6, 64, 56
14, 41176, Note_off_c, 6, 55, 0
14, 41176, Note_off_c, 6, 60, 0
14, 41177, Note_off_c, 6, 64, 0
14, 41184, Note_on_c, 6, 58, 66
14, 41186, Note_on_c, 6, 60, 58
14, 41189, Note_on_c, 6, 64, 60
14, 41221, Note_off_c, 6, 58, 0
14, 41222, Note_off_c, 6, 60, 0
14, 41222, Note_off_c, 6, 64, 0
14, 41231, Note_on_c, 6, 58, 57
14, 41234, Note_on_c, 6, 60, 56
14, 41237, Note_on_c, 6, 64, 60
14, 41270, Note_off_c, 6, 58, 0
14, 41271, Note_off_c, 6, 60, 0
14, 41272, Note_off_c, 6, 64, 0
14, 41278, Note_on_c, 6, 55, 56
14, 41280, Note_on_c, 6, 60, 56
14, 41283, Note_on_c, 6, 64, 58
14, 41320, Note_off_c, 6, 55, 0
14, 41320, Note_off_c, 6, 60, 0
14, 41321, Note_off_c, 6, 64, 0
14, 41328, Note_on_c, 6, 55, 56
14, 41330, Note_on_c, 6, 60, 58
14, 41333, Note_on_c, 6, 64, 60
14, 41365, Note_off_c, 6, 55, 0
14, 41366, Note_off_c, 6, 60, 0
14, 41367, Note_off_c, 6, 64, 0
14, 41373, Note_on_c, 6, 58, 68
14, 41375, Note_on_c, 6, 60, 57
14, 41377, Note_on_c, 6, 64, 60
14, 41415, Note_off_c, 6, 58, 0
14, 41415, Note_off_c, 6, 60, 0
14, 41416, Note_off_c, 6, 64, 0
14, 41422, Note_on_c, 6, 58, 59
14, 41424, Note_on_c, 6, 60, 59
14, 41426, Note_on_c, 6, 64, 57
14, 41463, Note_off_c, 6, 58, 0
14, 41463, Note_off_c, 6, 60, 0
14, 41464, Note_off_c, 6, 64, 0
14, 41471, Note_on_c, 6, 55, 58
14, 41474, Note_on_c, 6, 60, 60
14, 41476, Note_on_c, 6, 64, 56
14, 41509, Note_off_c, 6, 55, 0
14, 41510, Note_off_c, 6, 60, 0
14, 41511, Note_off_c, 6, 64, 0
14, 41518, Note_on_c, 6, 55, 57
14, 41520, Note_on_c, 6, 60, 58
14, 41523, Note_on_c, 6, 64, 57
14, 41558, Note_off_c, 6, 55, 0
14, 41558, Note_off_c, 6, 60, 0
14, 41559, Note_off_c, 6, 64, 0
14, 41566, Note_on_c, 6, 58, 67
14, 41568, Note_on_c, 6, 60, 60
14, 41570, Note_on_c, 6, 64, 56
14, 41605, Note_off_c, 6, 58, 0
14, 41606, Note_off_c, 6, 60, 0
14, 41606, Note_off_c, 6, 64, 0
14, 41613, Note_on_c, 6, 58, 60
14, 41615, Note_on_c, 6, 60, 59
14, 41617, Note_on_c, 6, 64, 58
14, 41654, Note_off_c, 6, 58, 0
14, 41654, Note_off_c, 6, 60, 0
14, 41655, Note_off_c, 6, 64, 0
14, 41664, Note_on_c, 6, 55, 60
14, 41666, Note_on_c, 6, 60, 56
14, 41669, Note_on_c, 6, 64, 58
14, 41703, Note_off_c, 6, 55, 0
14, 41703, Note_off_c, 6, 60, 0
14, 41704, Note_off_c, 6, 64, 0
14, 41711, Note_on_c, 6, 55, 59
14, 41713, Note_on_c, 6, 60, 58
14, 41716, Note_on_c, 6, 64, 59
14, 41752, Note_off_c, 6, 55, 0
14, 41753, Note_off_c, 6, 60, 0
14, 41753, Note_off_c, 6, 64, 0
14, 41761, Note_on_c, 6, 58, 65
14, 41763, Note_on_c, 6, 60, 60
14, 41766, Note_on_c, 6, 64, 59
14, 41798, Note_off_c, 6, 58, 0
14, 41798, Note_off_c, 6, 60, 0
14, 41799, Note_off_c, 6, 64, 0
14, 41808, Note_on_c, 6, 58, 58
14, 41811, Note_on_c, 6, 60, 59
14, 41812, Note_on_c, 6, 64, 58
14, 41847, Note_off_c, 6, 58, 0
14, 41848, Note_off_c, 6, 60, 0
14, 41848, Note_off_c, 6, 64, 0
14, 41855, Note_on_c, 6, 55, 60
14, 41857, Note_on_c, 6, 59, 57
14, 41863, Note_on_c, 6, 62, 59
14, 41897, Note_off_c, 6, 55, 0
14, 41898, Note_off_c, 6, 59, 0
14, 41899, Note_off_c, 6, 62, 0
14, 41908, Note_on_c, 6, 55, 60
14, 41910, Note_on_c, 6, 59, 60
14, 41914, Note_on_c, 6, 62, 58
14, 41942, Note_off_c, 6, 55, 0
14, 41943, Note_off_c, 6, 59, 0
14, 41943, Note_off_c, 6, 62, 0
14, 41954, Note_on_c, 6, 55, 68
14, 41956, Note_on_c, 6, 59, 60
14, 41958, Note_on_c, 6, 64, 60
14, 41991, Note_off_c, 6, 55, 0
14, 41992, Note_off_c, 6, 59, 0
14, 41993, Note_off_c, 6, 64, 0
14, 41999, Note_on_c, 6, 55, 56
14, 42001, Note_on_c, 6, 59, 58
14, 42003, Note_on_c, 6, 64, 58
14, 42037, Note_off_c, 6, 55, 0
14, 42038, Note_off_c, 6, 59, 0
14, 42038, Note_off_c, 6, 64, 0
14, 42048, Note_on_c, 6, 55, 60
14, 42051, Note_on_c, 6, 59, 59
14, 42053, Note_on_c, 6, 62, 56
14, 42086, Note_off_c, 6, 55, 0
14, 42087, Note_off_c, 6, 59, 0
14, 42087, Note_off_c, 6, 62, 0
14, 42094, Note_on_c, 6, 55, 59
14, 42096, Note_on_c, 6, 59, 56
14, 42098, Note_on_c, 6, 62, 56
14, 42135, Note_off_c, 6, 55, 0
14, 42136, Note_off_c, 6, 59, 0
14, 42137, Note_off_c, 6, 62, 0
14, 42143, Note_on_c, 6, 55, 67
14, 42145, Note_on_c, 6, 59, 58
14, 42147, Note_on_c, 6, 64, 59
14, 42181, Note_off_c, 6, 55, 0
14, 42182, Note_off_c, 6, 59, 0
14, 42183, Note_off_c, 6, 64, 0
14, 42189, Note_on_c, 6, 55, 60
14, 42191, Note_on_c, 6, 59, 60
14, 42193, Note_on_c, 6, 64, 59
14, 42230, Note_off_c, 6, 55, 0
14, 42231, Note_off_c, 6, 59, 0
14, 42232, Note_off_c, 6, 64, 0
14, 42238, Note_on_c, 6, 55, 58
14, 42241, Note_on_c, 6, 59, 60
14, 42246, Note_on_c, 6, 62, 60
14, 42277, Note_off_c, 6, 55, 0
14, 42278, Note_off_c, 6, 59, 0
14, 42279, Note_off_c, 6, 62, 0
14, 42287, Note_on_c, 6, 55, 59
14, 42289, Note_on_c, 6, 59, 60
14, 42291, Note_on_c, 6, 62, 60
14, 42325, Note_off_c, 6, 55, 0
14, 42326, Note_off_c, 6, 59, 0
14, 42327, Note_off_c, 6, 62, 0
14, 42334, Note_on_c, 6, 55, 65
14, 42336, Note_on_c, 6, 59, 59
14, 42338, Note_on_c, 6, 64, 59
14, 42374, Note_off_c, 6, 55, 0
14, 42375, Note_off_c, 6, 59, 0
14, 42376, Note_off_c, 6, 64, 0
14, 42382, Note_on_c, 6, 55, 58
14, 42385, Note_on_c, 6, 59, 60
14, 42387, Note_on_c, 6, 64, 58
14, 42424, Note_off_c, 6, 55, 0
14, 42424, Note_off_c, 6, 59, 0
14, 42425, Note_off_c, 6, 64, 0
14, 42431, Note_on_c, 6, 55, 57
14, 42434, Note_on_c, 6, 59, 57
14, 42436, Note_on_c, 6, 62, 59
14, 42469, Note_off_c, 6, 55, 0
14, 42470, Note_off_c, 6, 59, 0
14, 42471, Note_off_c, 6, 62, 0
14, 42480, Note_on_c, 6, 55, 58
14, 42482, Note_on_c, 6, 59, 58
14, 42484, Note_on_c, 6, 62, 57
14, 42519, Note_off_c, 6, 55, 0
14, 42519, Note_off_c, 6, 59, 0
14, 42520, Note_off_c, 6, 62, 0
14, 42526, Note_on_c, 6, 55, 66
14, 42529, Note_on_c, 6, 59, 60
14, 42531, Note_on_c, 6, 64, 58
14, 42568, Note_off_c, 6, 55, 0
14, 42568, Note_off_c, 6, 59, 0
14, 42569, Note_off_c, 6, 64, 0
14, 42576, Note_on_c, 6, 55, 56
14, 42577, Note_on_c, 6, 59, 60
14, 42580, Note_on_c, 6, 64, 58
14, 42613, Note_off_c, 6, 55, 0
14, 42614, Note_off_c, 6, 59, 0
14, 42615, Note_off_c, 6, 64, 0
14, 42627, Note_on_c, 6, 54, 59
14, 42629, Note_on_c, 6, 57, 57
14, 42631, Note_on_c, 6, 62, 56
14, 42663, Note_off_c, 6, 54, 0
14, 42664, Note_off_c, 6, 57, 0
14, 42665, Note_off_c, 6, 62, 0
14, 42671, Note_on_c, 6, 54, 58
14, 42673, Note_on_c, 6, 57, 59
14, 42675, Note_on_c, 6, 62, 59
14, 42712, Note_off_c, 6, 54, 0
14, 42713, Note_off_c, 6, 57, 0
14, 42714, Note_off_c, 6, 62, 0
14, 42720, Note_on_c, 6, 54, 68
14, 42723, Note_on_c, 6, 60, 59
14, 42725, Note_on_c, 6, 62, 60
14, 42758, Note_off_c, 6, 54, 0
14, 42758, Note_off_c, 6, 60, 0
14, 42759, Note_off_c, 6, 62, 0
14, 42766, Note_on_c, 6, 54, 56
14, 42768, Note_on_c, 6, 60, 60
14, 42770, Note_on_c, 6, 62, 57
14, 42807, Note_off_c, 6, 54, 0
14, 42808, Note_off_c, 6, 60, 0
14, 42808, Note_off_c, 6, 62, 0
14, 42815, Note_on_c, 6, 54, 56
14, 42817, Note_on_c, 6, 57, 56
14, 42819, Note_on_c, 6, 62, 56
14, 42855, Note_off_c, 6, 54, 0
14, 42856, Note_off_c, 6, 57, 0
14, 42857, Note_off_c, 6, 62, 0
14, 42863, Note_on_c, 6, 54, 60
14, 42867, Note_on_c, 6, 57, 60
14, 42869, Note_on_c, 6, 62, 58
14, 42902, Note_off_c, 6, 54, 0
14, 42903, Note_off_c, 6, 57, 0
14, 42904, Note_off_c, 6, 62, 0
14, 42910, Note_on_c, 6, 54, 66
14, 42912, Note_on_c, 6, 60, 60
14, 42914, Note_on_c, 6, 62, 60
14, 42950, Note_off_c, 6, 54, 0
14, 42951, Note_off_c, 6, 60, 0
14, 42951, Note_off_c, 6, 62, 0
14, 42958, Note_on_c, 6, 54, 56
14, 42960, Note_on_c, 6, 60, 59
14, 42962, Note_on_c, 6, 62, 59
14, 42997, Note_off_c, 6, 54, 0
14, 42998, Note_off_c, 6, 60, 0
14, 42998, Note_off_c, 6, 62, 0
14, 43005, Note_on_c, 6, 55, 58
14, 43008, Note_on_c, 6, 60, 57
14, 43010, Note_on_c, 6, 64, 59
14, 43045, Note_off_c, 6, 55, 0
14, 43046, Note_off_c, 6, 60, 0
14, 43047, Note_off_c, 6, 64, 0
14, 43053, Note_on_c, 6, 55, 60
14, 43056, Note_on_c, 6, 60, 59
14, 43058, Note_on_c, 6, 64, 56
14, 43096, Note_off_c, 6, 55, 0
14, 43096, Note_off_c, 6, 60, 0
14, 43097, Note_off_c, 6, 64, 0
14, 43103, Note_on_c, 6, 58, 64
14, 43106, Note_on_c, 6, 60, 56
14, 43108, Note_on_c, 6, 64, 58
14, 43141, Note_off_c, 6, 58, 0
14, 43142, Note_off_c, 6, 60, 0
14, 43143, Note_off_c, 6, 64, 0
14, 43152, Note_on_c, 6, 58, 57
14, 43154, Note_on_c, 6, 60, 61
14, 43157, Note_on_c, 6, 64, 57
14, 43190, Note_off_c, 6, 58, 0
14, 43191, Note_off_c, 6, 60, 0
14, 43191, Note_off_c, 6, 64, 0
14, 43198, Note_on_c, 6, 55, 56
14, 43201, Note_on_c, 6, 60, 57
14, 43203, Note_on_c, 6, 64, 56
14, 43240, Note_off_c, 6, 55, 0
14, 43240, Note_off_c, 6, 60, 0
14, 43241, Note_off_c, 6, 64, 0
14, 43247, Note_on_c, 6, 55, 58
14, 43249, Note_on_c, 6, 60, 59
14, 43251, Note_on_c, 6, 64, 56
14, 43285, Note_off_c, 6, 55, 0
14, 43286, Note_off_c, 6, 60, 0
14, 43287, Note_off_c, 6, 64, 0
14, 43296, Note_on_c, 6, 58, 65
14, 43298, Note_on_c, 6, 60, 60
14, 43300, Note_on_c, 6, 64, 60
14, 43334, Note_off_c, 6, 58, 0
14, 43335, Note_off_c, 6, 60, 0
14, 43336, Note_off_c, 6, 64, 0
14, 43342, Note_on_c, 6, 58, 57
14, 43345, Note_on_c, 6, 60, 58
14, 43347, Note_on_c, 6, 64, 60
14, 43384, Note_off_c, 6, 58, 0
14, 43384, Note_off_c, 6, 60, 0
14, 43385, Note_off_c, 6, 64, 0
14, 43394, Note_on_c, 6, 55, 66
14, 43396, Note_on_c, 6, 59, 58
14, 43398, Note_on_c, 6, 62, 58
14, 43542, Note_off_c, 6, 55, 0
14, 43543, Note_off_c, 6, 59, 0
14, 43543, Note_off_c, 6, 62, 0
14, 43773, Note_on_c, 6, 55, 64
14, 43775, Note_on_c, 6, 59, 56
14, 43777, Note_on_c, 6, 62, 58
14, 43855, Note_off_c, 6, 55, 0
14, 43856, Note_off_c, 6, 59, 0
14, 43857, Note_off_c, 6, 62, 0
14, 43869, Note_on_c, 6, 55, 64
14, 43871, Note_on_c, 6, 59, 56
14, 43873, Note_on_c, 6, 62, 60
14, 43950, Note_off_c, 6, 55, 0
14, 43950, Note_off_c, 6, 59, 0
14, 43951, Note_off_c, 6, 62, 0
14, 43968, Note_on_c, 6, 55, 65
14, 43970, Note_on_c, 6, 59, 57
14, 43972, Note_on_c, 6, 62, 60
14, 44045, Note_off_c, 6, 55, 0
14, 44046, Note_off_c, 6, 59, 0
14, 44046, Note_off_c, 6, 62, 0
14, 44157, Note_on_c, 6, 55, 64
14, 44161, Note_on_c, 6, 59, 57
14, 44164, Note_on_c, 6, 62, 58
14, 44200, Note_off_c, 6, 55, 0
14, 44200, Note_off_c, 6, 59, 0
14, 44201, Note_off_c, 6, 62, 0
14, 44208, Note_on_c, 6, 55, 58
14, 44209, Note_on_c, 6, 59, 59
14, 44212, Note_on_c, 6, 62, 56
14, 44245, Note_off_c, 6, 55, 0
14, 44246, Note_off_c, 6, 59, 0
14, 44247, Note_off_c, 6, 62, 0
14, 44253, Note_on_c, 6, 55, 56
14, 44255, Note_on_c, 6, 59, 56
14, 44257, Note_on_c, 6, 62, 60
14, 44295, Note_off_c, 6, 55, 0
14, 44295, Note_off_c, 6, 59, 0
14, 44296, Note_off_c, 6, 62, 0
14, 44303, Note_on_c, 6, 55, 60
14, 44306, Note_on_c, 6, 59, 59
14, 44308, Note_on_c, 6, 62, 57
14, 44343, Note_off_c, 6, 55, 0
14, 44343, Note_off_c, 6, 59, 0
14, 44344, Note_off_c, 6, 62, 0
14, 44351, Note_on_c, 6, 55, 67
14, 44353, Note_on_c, 6, 59, 60
14, 44355, Note_on_c, 6, 62, 56
14, 44390, Note_off_c, 6, 55, 0
14, 44390, Note_off_c, 6, 59, 0
14, 44391, Note_off_c, 6, 62, 0
14, 44398, Note_on_c, 6, 55, 57
14, 44399, Note_on_c, 6, 59, 56
14, 44402, Note_on_c, 6, 62, 56
14, 44438, Note_off_c, 6, 55, 0
14, 44438, Note_off_c, 6, 59, 0
14, 44439, Note_off_c, 6, 62, 0
14, 44446, Note_on_c, 6, 55, 56
14, 44448, Note_on_c, 6, 59, 60
14, 44451, Note_on_c, 6, 62, 58
14, 44485, Note_off_c, 6, 55, 0
14, 44486, Note_off_c, 6, 59, 0
14, 44486, Note_off_c, 6, 62, 0
14, 44493, Note_on_c, 6, 55, 57
14, 44495, Note_on_c, 6, 59, 60
14, 44497, Note_on_c, 6, 62, 57
14, 44533, Note_off_c, 6, 55, 0
14, 44534, Note_off_c, 6, 59, 0
14, 44535, Note_off_c, 6, 62, 0
14, 44541, Note_on_c, 6, 55, 66
14, 44544, Note_on_c, 6, 59, 56
14, 44547, Note_on_c, 6, 62, 60
14, 44583, Note_off_c, 6, 55, 0
14, 44583, Note_off_c, 6, 59, 0
14, 44584, Note_off_c, 6, 62, 0
14, 44590, Note_on_c, 6, 55, 56
14, 44592, Note_on_c, 6, 59, 59
14, 44596, Note_on_c, 6, 62, 61
14, 44632, Note_off_c, 6, 55, 0
14, 44633, Note_off_c, 6, 59, 0
14, 44633, Note_off_c, 6, 62, 0
14, 44640, Note_on_c, 6, 55, 56
14, 44642, Note_on_c, 6, 59, 60
14, 44644, Note_on_c, 6, 62, 60
14, 44678, Note_off_c, 6, 55, 0
14, 44678, Note_off_c, 6, 59, 0
14, 44679, Note_off_c, 6, 62, 0
14, 44685, Note_on_c, 6, 55, 56
14, 44688, Note_on_c, 6, 59, 58
14, 44690, Note_on_c, 6, 62, 60
14, 44727, Note_off_c, 6, 55, 0
14, 44728, Note_off_c, 6, 59, 0
14, 44728, Note_off_c, 6, 62, 0
14, 44735, Note_on_c, 6, 55, 66
14, 44737, Note_on_c, 6, 59, 60
14, 44739, Note_on_c, 6, 62, 59
14, 44776, Note_off_c, 6, 55, 0
14, 44777, Note_off_c, 6, 59, 0
14, 44778, Note_off_c, 6, 62, 0
14, 44784, Note_on_c, 6, 55, 59
14, 44786, Note_on_c, 6, 59, 56
14, 44788, Note_on_c, 6, 62, 56
14, 44822, Note_off_c, 6, 55, 0
14, 44823, Note_off_c, 6, 59, 0
14, 44823, Note_off_c, 6, 62, 0
14, 44830, Note_on_c, 6, 55, 59
14, 44832, Note_on_c, 6, 59, 60
14, 44834, Note_on_c, 6, 62, 56
14, 44871, Note_off_c, 6, 55, 0
14, 44872, Note_off_c, 6, 59, 0
14, 44873, Note_off_c, 6, 62, 0
14, 44879, Note_on_c, 6, 55, 58
14, 44883, Note_on_c, 6, 59, 57
14, 44885, Note_on_c, 6, 62, 59
14, 44917, Note_off_c, 6, 55, 0
14, 44918, Note_off_c, 6, 59, 0
14, 44918, Note_off_c, 6, 62, 0
14, 44925, Note_on_c, 6, 55, 67
14, 44928, Note_on_c, 6, 59, 56
14, 44930, Note_on_c, 6, 62, 57
14, 44966, Note_off_c, 6, 55, 0
14, 44967, Note_off_c, 6, 59, 0
14, 44968, Note_off_c, 6, 62, 0
14, 44974, Note_on_c, 6, 55, 59
14, 44976, Note_on_c, 6, 59, 59
14, 44978, Note_on_c, 6, 62, 60
14, 45015, Note_off_c, 6, 55, 0
14, 45016, Note_off_c, 6, 59, 0
14, 45017, Note_off_c, 6, 62, 0
14, 45024, Note_on_c, 6, 55, 59
14, 45026, Note_on_c, 6, 59, 57
14, 45028, Note_on_c, 6, 62, 58
14, 45061, Note_off_c, 6, 55, 0
14, 45062, Note_off_c, 6, 59, 0
14, 45062, Note_off_c, 6, 62, 0
14, 45069, Note_on_c, 6, 55, 57
14, 45071, Note_on_c, 6, 59, 56
14, 45073, Note_on_c, 6, 62, 57
14, 45110, Note_off_c, 6, 55, 0
14, 45111, Note_off_c, 6, 59, 0
14, 45112, Note_off_c, 6, 62, 0
14, 45118, Note_on_c, 6, 55, 68
14, 45120, Note_on_c, 6, 59, 59
14, 45123, Note_on_c, 6, 62, 58
14, 45157, Note_off_c, 6, 55, 0
14, 45158, Note_off_c, 6, 59, 0
14, 45159, Note_off_c, 6, 62, 0
14, 45166, Note_on_c, 6, 55, 58
14, 45167, Note_on_c, 6, 59, 56
14, 45170, Note_on_c, 6, 62, 60
14, 45205, Note_off_c, 6, 55, 0
14, 45206, Note_off_c, 6, 59, 0
14, 45207, Note_off_c, 6, 62, 0
14, 45213, Note_on_c, 6, 55, 59
14, 45216, Note_on_c, 6, 59, 56
14, 45218, Note_on_c, 6, 62, 58
14, 45255, Note_off_c, 6, 55, 0
14, 45255, Note_off_c, 6, 59, 0
14, 45256, Note_off_c, 6, 62, 0
14, 45262, Note_on_c, 6, 55, 58
14, 45265, Note_on_c, 6, 59, 59
14, 45267, Note_on_c, 6, 62, 56
14, 45304, Note_off_c, 6, 55, 0
14, 45304, Note_off_c, 6, 59, 0
14, 45305, Note_off_c, 6, 62, 0
14, 45312, Note_on_c, 6, 53, 67
14, 45314, Note_on_c, 6, 55, 58
14, 45317, Note_on_c, 6, 59, 56
14, 45349, Note_off_c, 6, 53, 0
14, 45350, Note_off_c, 6, 55, 0
14, 45351, Note_off_c, 6, 59, 0
14, 45360, Note_on_c, 6, 53, 57
14, 45363, Note_on_c, 6, 55, 56
14, 45365, Note_on_c, 6, 59, 56
14, 45399, Note_off_c, 6, 53, 0
14, 45399, Note_off_c, 6, 55, 0
14, 45400, Note_off_c, 6, 59, 0
14, 45406, Note_on_c, 6, 53, 60
14, 45409, Note_on_c, 6, 55, 59
14, 45411, Note_on_c, 6, 59, 58
14, 45448, Note_off_c, 6, 53, 0
14, 45448, Note_off_c, 6, 55, 0
14, 45449, Note_off_c, 6, 59, 0
14, 45456, Note_on_c, 6, 53, 59
14, 45458, Note_on_c, 6, 55, 59
14, 45460, Note_on_c, 6, 59, 57
14, 45494, Note_off_c, 6, 53, 0
14, 45494, Note_off_c, 6, 55, 0
14, 45495, Note_off_c, 6, 59, 0
14, 45504, Note_on_c, 6, 53, 66
14, 45507, Note_on_c, 6, 55, 58
14, 45509, Note_on_c, 6, 59, 59
14, 45543, Note_off_c, 6, 53, 0
14, 45543, Note_off_c, 6, 55, 0
14, 45544, Note_off_c, 6, 59, 0
14, 45554, Note_on_c, 6, 53, 57
14, 45557, Note_on_c, 6, 55, 59
14, 45558, Note_on_c, 6, 59, 58
14, 45593, Note_off_c, 6, 53, 0
14, 45593, Note_off_c, 6, 55, 0
14, 45594, Note_off_c, 6, 59, 0
14, 45601, Note_on_c, 6, 53, 58
14, 45603, Note_on_c, 6, 55, 56
14, 45606, Note_on_c, 6, 59, 58
14, 45638, Note_off_c, 6, 53, 0
14, 45638, Note_off_c, 6, 55, 0
14, 45639, Note_off_c, 6, 59, 0
14, 45646, Note_on_c, 6, 53, 56
14, 45648, Note_on_c, 6, 55, 57
14, 45651, Note_on_c, 6, 59, 57
14, 45688, Note_off_c, 6, 53, 0
14, 45688, Note_off_c, 6, 55, 0
14, 45689, Note_off_c, 6, 59, 0
14, 45695, Note_on_c, 6, 58, 67
14, 45698, Note_on_c, 6, 62, 58
14, 45704, Note_on_c, 6, 64, 57
14, 45733, Note_off_c, 6, 58, 0
14, 45733, Note_off_c, 6, 62, 0
14, 45734, Note_off_c, 6, 64, 0
14, 45743, Note_on_c, 6, 58, 57
14, 45745, Note_on_c, 6, 62, 60
14, 45747, Note_on_c, 6, 64, 56
14, 45782, Note_off_c, 6, 58, 0
14, 45783, Note_off_c, 6, 62, 0
14, 45783, Note_off_c, 6, 64, 0
14, 45790, Note_on_c, 6, 58, 60
14, 45792, Note_on_c, 6, 62, 58
14, 45794, Note_on_c, 6, 64, 58
14, 45830, Note_off_c, 6, 58, 0
14, 45831, Note_off_c, 6, 62, 0
14, 45832, Note_off_c, 6, 64, 0
14, 45838, Note_on_c, 6, 58, 58
14, 45840, Note_on_c, 6, 62, 59
14, 45842, Note_on_c, 6, 64, 59
14, 45877, Note_off_c, 6, 58, 0
14, 45878, Note_off_c, 6, 62, 0
14, 45879, Note_off_c, 6, 64, 0
14, 45885, Note_on_c, 6, 58, 65
14, 45887, Note_on_c, 6, 62, 59
14, 45890, Note_on_c, 6, 64, 59
14, 45925, Note_off_c, 6, 58, 0
14, 45926, Note_off_c, 6, 62, 0
14, 45927, Note_off_c, 6, 64, 0
14, 45933, Note_on_c, 6, 58, 60
14, 45935, Note_on_c, 6, 62, 59
14, 45937, Note_on_c, 6, 64, 57
14, 45975, Note_off_c, 6, 58, 0
14, 45976, Note_off_c, 6, 62, 0
14, 45977, Note_off_c, 6, 64, 0
14, 45983, Note_on_c, 6, 58, 58
14, 45986, Note_on_c, 6, 62, 60
14, 45987, Note_on_c, 6, 64, 58
14, 46021, Note_off_c, 6, 58, 0
14, 46022, Note_off_c, 6, 62, 0
14, 46022, Note_off_c, 6, 64, 0
14, 46029, Note_on_c, 6, 58, 60
14, 46031, Note_on_c, 6, 62, 57
14, 46033, Note_on_c, 6, 64, 56
14, 46070, Note_off_c, 6, 58, 0
14, 46071, Note_off_c, 6, 62, 0
14, 46072, Note_off_c, 6, 64, 0
14, 46083, Note_on_c, 6, 58, 65
14, 46085, Note_on_c, 6, 62, 58
14, 46087, Note_on_c, 6, 64, 58
14, 46119, Note_off_c, 6, 58, 0
14, 46120, Note_off_c, 6, 62, 0
14, 46121, Note_off_c, 6, 64, 0
14, 46127, Note_on_c, 6, 58, 60
14, 46129, Note_on_c, 6, 62, 57
14, 46131, Note_on_c, 6, 64, 59
14, 46165, Note_off_c, 6, 58, 0
14, 46166, Note_off_c, 6, 62, 0
14, 46167, Note_off_c, 6, 64, 0
14, 46176, Note_on_c, 6, 58, 57
14, 46178, Note_on_c, 6, 62, 59
14, 46180, Note_on_c, 6, 64, 59
14, 46214, Note_off_c, 6, 58, 0
14, 46215, Note_off_c, 6, 62, 0
14, 46216, Note_off_c, 6, 64, 0
14, 46222, Note_on_c, 6, 58, 56
14, 46224, Note_on_c, 6, 62, 57
14, 46226, Note_on_c, 6, 64, 57
14, 46264, Note_off_c, 6, 58, 0
14, 46265, Note_off_c, 6, 62, 0
14, 46265, Note_off_c, 6, 64, 0
14, 46271, Note_on_c, 6, 58, 66
14, 46274, Note_on_c, 6, 62, 57
14, 46276, Note_on_c, 6, 64, 59
14, 46309, Note_off_c, 6, 58, 0
14, 46310, Note_off_c, 6, 62, 0
14, 46311, Note_off_c, 6, 64, 0
14, 46317, Note_on_c, 6, 58, 59
14, 46320, Note_on_c, 6, 62, 60
14, 46322, Note_on_c, 6, 64, 58
14, 46359, Note_off_c, 6, 58, 0
14, 46359, Note_off_c, 6, 62, 0
14, 46360, Note_off_c, 6, 64, 0
14, 46366, Note_on_c, 6, 58, 60
14, 46369, Note_on_c, 6, 62, 60
14, 46370, Note_on_c, 6, 64, 60
14, 46408, Note_off_c, 6, 58, 0
14, 46408, Note_off_c, 6, 62, 0
14, 46409, Note_off_c, 6, 64, 0
14, 46417, Note_on_c, 6, 58, 56
14, 46419, Note_on_c, 6, 62, 56
14, 46421, Note_on_c, 6, 64, 59
14, 46454, Note_off_c, 6, 58, 0
14, 46454, Note_off_c, 6, 62, 0
14, 46455, Note_off_c, 6, 64, 0
14, 46462, Note_on_c, 6, 55, 66
14, 46464, Note_on_c, 6, 59, 59
14, 46467, Note_on_c, 6, 62, 59
14, 46503, Note_off_c, 6, 55, 0
14, 46504, Note_off_c, 6, 59, 0
14, 46504, Note_off_c, 6, 62, 0
14, 46511, Note_on_c, 6, 55, 57
14, 46513, Note_on_c, 6, 59, 60
14, 46515, Note_on_c, 6, 62, 57
14, 46550, Note_off_c, 6, 55, 0
14, 46551, Note_off_c, 6, 59, 0
14, 46551, Note_off_c, 6, 62, 0
14, 46559, Note_on_c, 6, 55, 56
14, 46561, Note_on_c, 6, 59, 59
14, 46563, Note_on_c, 6, 62, 57
14, 46598, Note_off_c, 6, 55, 0
14, 46598, Note_off_c, 6, 59, 0
14, 46599, Note_off_c, 6, 62, 0
14, 46605, Note_on_c, 6, 55, 58
14, 46608, Note_on_c, 6, 59, 59
14, 46610, Note_on_c, 6, 62, 58
14, 46645, Note_off_c, 6, 55, 0
14, 46645, Note_off_c, 6, 59, 0
14, 46646, Note_off_c, 6, 62, 0
14, 46653, Note_on_c, 6, 58, 67
14, 46655, Note_on_c, 6, 62, 60
14, 46658, Note_on_c, 6, 64, 59
14, 46693, Note_off_c, 6, 58, 0
14, 46694, Note_off_c, 6, 62, 0
14, 46694, Note_off_c, 6, 64, 0
14, 46703, Note_on_c, 6, 58, 56
14, 46705, Note_on_c, 6, 62, 56
14, 46708, Note_on_c, 6, 64, 58
14, 46742, Note_off_c, 6, 58, 0
14, 46743, Note_off_c, 6, 62, 0
14, 46743, Note_off_c, 6, 64, 0
14, 46750, Note_on_c, 6, 58, 59
14, 46752, Note_on_c, 6, 62, 56
14, 46754, Note_on_c, 6, 64, 59
14, 46791, Note_off_c, 6, 58, 0
14, 46792, Note_off_c, 6, 62, 0
14, 46793, Note_off_c, 6, 64, 0
14, 46799, Note_on_c, 6, 58, 59
14, 46802, Note_on_c, 6, 62, 59
14, 46804, Note_on_c, 6, 64, 60
14, 46837, Note_off_c, 6, 58, 0
14, 46838, Note_off_c, 6, 62, 0
14, 46839, Note_off_c, 6, 64, 0
14, 46848, Note_on_c, 6, 55, 66
14, 46851, Note_on_c, 6, 59, 58
14, 46853, Note_on_c, 6, 62, 57
14, 46886, Note_off_c, 6, 55, 0
14, 46887, Note_off_c, 6, 59, 0
14, 46887, Note_off_c, 6, 62, 0
14, 46894, Note_on_c, 6, 55, 60
14, 46896, Note_on_c, 6, 59, 60
14, 46898, Note_on_c, 6, 62, 57
14, 46935, Note_off_c, 6, 55, 0
14, 46936, Note_off_c, 6, 59, 0
14, 46937, Note_off_c, 6, 62, 0
14, 46943, Note_on_c, 6, 55, 59
14, 46946, Note_on_c, 6, 59, 59
14, 46948, Note_on_c, 6, 62, 58
14, 46981, Note_off_c, 6, 55, 0
14, 46982, Note_off_c, 6, 59, 0
14, 46983, Note_off_c, 6, 62, 0
14, 46992, Note_on_c, 6, 55, 56
14, 46994, Note_on_c, 6, 59, 57
14, 46996, Note_on_c, 6, 62, 59
14, 47030, Note_off_c, 6, 55, 0
14, 47031, Note_off_c, 6, 59, 0
14, 47032, Note_off_c, 6, 62, 0
14, 47038, Note_on_c, 6, 55, 67
14, 47040, Note_on_c, 6, 59, 58
14, 47043, Note_on_c, 6, 62, 57
14, 47080, Note_off_c, 6, 55, 0
14, 47080, Note_off_c, 6, 59, 0
14, 47081, Note_off_c, 6, 62, 0
14, 47088, Note_on_c, 6, 55, 56
14, 47090, Note_on_c, 6, 59, 59
14, 47092, Note_on_c, 6, 62, 57
14, 47125, Note_off_c, 6, 55, 0
14, 47126, Note_off_c, 6, 59, 0
14, 47127, Note_off_c, 6, 62, 0
14, 47136, Note_on_c, 6, 55, 58
14, 47138, Note_on_c, 6, 59, 56
14, 47140, Note_on_c, 6, 62, 57
14, 47175, Note_off_c, 6, 55, 0
14, 47175, Note_off_c, 6, 59, 0
14, 47176, Note_off_c, 6, 62, 0
14, 47183, Note_on_c, 6, 55, 56
14, 47185, Note_on_c, 6, 59, 59
14, 47187, Note_on_c, 6, 62, 57
14, 47223, Note_off_c, 6, 55, 0
14, 47224, Note_off_c, 6, 59, 0
14, 47224, Note_off_c, 6, 62, 0
14, 47232, Note_on_c, 6, 59, 67
14, 47234, Note_on_c, 6, 62, 59
14, 47237, Note_on_c, 6, 64, 58
14, 47310, Note_off_c, 6, 59, 0
14, 47311, Note_off_c, 6, 62, 0
14, 47312, Note_off_c, 6, 64, 0
14, 47614, Note_on_c, 6, 59, 68
14, 47616, Note_on_c, 6, 62, 56
14, 47619, Note_on_c, 6, 64, 59
14, 47695, Note_off_c, 6, 59, 0
14, 47696, Note_off_c, 6, 62, 0
14, 47697, Note_off_c, 6, 64, 0
14, 47998, Note_on_c, 6, 58, 64
14, 48002, Note_on_c, 6, 62, 59
14, 48005, Note_on_c, 6, 64, 58
14, 48077, Note_off_c, 6, 58, 0
14, 48078, Note_off_c, 6, 62, 0
14, 48079, Note_off_c, 6, 64, 0
14, 48381, Note_on_c, 6, 58, 64
14, 48383, Note_on_c, 6, 62, 56
14, 48388, Note_on_c, 6, 64, 60
14, 48461, Note_off_c, 6, 58, 0
14, 48463, Note_off_c, 6, 62, 0
14, 48463, Note_off_c, 6, 64, 0
14, 48766, Note_on_c, 6, 55, 56
14, 48771, Note_on_c, 6, 60, 57
14, 48773, Note_on_c, 6, 64, 59
14, 48805, Note_off_c, 6, 55, 0
14, 48806, Note_off_c, 6, 60, 0
14, 48807, Note_off_c, 6, 64, 0
14, 48813, Note_on_c, 6, 55, 57
14, 48815, Note_on_c, 6, 60, 60
14, 48818, Note_on_c, 6, 64, 57
14, 48855, Note_off_c, 6, 55, 0
14, 48856, Note_off_c, 6, 60, 0
14, 48857, Note_off_c, 6, 64, 0
14, 48864, Note_on_c, 6, 58, 65
14, 48866, Note_on_c, 6, 60, 59
14, 48868, Note_on_c, 6, 64, 60
14, 48901, Note_off_c, 6, 58, 0
14, 48902, Note_off_c, 6, 60, 0
14, 48902, Note_off_c, 6, 64, 0
14, 48909, Note_on_c, 6, 58, 58
14, 48911, Note_on_c, 6, 60, 56
14, 48913, Note_on_c, 6, 64, 58
14, 48950, Note_off_c, 6, 58, 0
14, 48951, Note_off_c, 6, 60, 0
14, 48952, Note_off_c, 6, 64, 0
14, 48958, Note_on_c, 6, 55, 57
14, 48961, Note_on_c, 6, 60, 60
14, 48964, Note_on_c, 6, 64, 58
14, 49000, Note_off_c, 6, 55, 0
14, 49000, Note_off_c, 6, 60, 0
14, 49001, Note_off_c, 6, 64, 0
14, 49008, Note_on_c, 6, 55, 58
14, 49010, Note_on_c, 6, 60, 57
14, 49014, Note_on_c, 6, 64, 56
14, 49045, Note_off_c, 6, 55, 0
14, 49046, Note_off_c, 6, 60, 0
14, 49047, Note_off_c, 6, 64, 0
14, 49056, Note_on_c, 6, 58, 68
14, 49058, Note_on_c, 6, 60, 58
14, 49060, Note_on_c, 6, 64, 60
14, 49094, Note_off_c, 6, 58, 0
14, 49095, Note_off_c, 6, 60, 0
14, 49096, Note_off_c, 6, 64, 0
14, 49102, Note_on_c, 6, 58, 60
14, 49105, Note_on_c, 6, 60, 59
14, 49107, Note_on_c, 6, 64, 58
14, 49144, Note_off_c, 6, 58, 0
14, 49145, Note_off_c, 6, 60, 0
14, 49145, Note_off_c, 6, 64, 0
14, 49152, Note_on_c, 6, 55, 56
14, 49156, Note_on_c, 6, 60, 59
14, 49158, Note_on_c, 6, 64, 60
14, 49190, Note_off_c, 6, 55, 0
14, 49190, Note_off_c, 6, 60, 0
14, 49191, Note_off_c, 6, 64, 0
14, 49201, Note_on_c, 6, 55, 59
14, 49203, Note_on_c, 6, 60, 60
14, 49205, Note_on_c, 6, 64, 59
14, 49239, Note_off_c, 6, 55, 0
14, 49240, Note_off_c, 6, 60, 0
14, 49241, Note_off_c, 6, 64, 0
14, 49247, Note_on_c, 6, 58, 66
14, 49249, Note_on_c, 6, 60, 59
14, 49251, Note_on_c, 6, 64, 60
14, 49288, Note_off_c, 6, 58, 0
14, 49289, Note_off_c, 6, 60, 0
14, 49289, Note_off_c, 6, 64, 0
14, 49296, Note_on_c, 6, 58, 57
14, 49298, Note_on_c, 6, 60, 56
14, 49300, Note_on_c, 6, 64, 60
14, 49334, Note_off_c, 6, 58, 0
14, 49334, Note_off_c, 6, 60, 0
14, 49335, Note_off_c, 6, 64, 0
14, 49341, Note_on_c, 6, 55, 59
14, 49344, Note_on_c, 6, 60, 58
14, 49346, Note_on_c, 6, 64, 58
14, 49383, Note_off_c, 6, 55, 0
14, 49384, Note_off_c, 6, 60, 0
14, 49384, Note_off_c, 6, 64, 0
14, 49391, Note_on_c, 6, 55, 60
14, 49393, Note_on_c, 6, 60, 58
14, 49395, Note_on_c, 6, 64, 58
14, 49430, Note_off_c, 6, 55, 0
14, 49431, Note_off_c, 6, 60, 0
14, 49432, Note_off_c, 6, 64, 0
14, 49439, Note_on_c, 6, 58, 69
14, 49441, Note_on_c, 6, 60, 60
14, 49443, Note_on_c, 6, 64, 58
14, 49478, Note_off_c, 6, 58, 0
14, 49479, Note_off_c, 6, 60, 0
14, 49479, Note_off_c, 6, 64, 0
14, 49486, Note_on_c, 6, 58, 58
14, 49488, Note_on_c, 6, 60, 60
14, 49490, Note_on_c, 6, 64, 59
14, 49525, Note_off_c, 6, 58, 0
14, 49526, Note_off_c, 6, 60, 0
14, 49526, Note_off_c, 6, 64, 0
14, 49533, Note_on_c, 6, 55, 59
14, 49536, Note_on_c, 6, 59, 56
14, 49539, Note_on_c, 6, 62, 58
14, 49573, Note_off_c, 6, 55, 0
14, 49573, Note_off_c, 6, 59, 0
14, 49574, Note_off_c, 6, 62, 0
14, 49584, Note_on_c, 6, 55, 58
14, 49586, Note_on_c, 6, 59, 57
14, 49589, Note_on_c, 6, 62, 60
14, 49622, Note_off_c, 6, 55, 0
14, 49623, Note_off_c, 6, 59, 0
14, 49623, Note_off_c, 6, 62, 0
14, 49631, Note_on_c, 6, 55, 64
14, 49633, Note_on_c, 6, 59, 60
14, 49636, Note_on_c, 6, 64, 57
14, 49671, Note_off_c, 6, 55, 0
14, 49672, Note_off_c, 6, 59, 0
14, 49673, Note_off_c, 6, 64, 0
14, 49679, Note_on_c, 6, 55, 59
14, 49682, Note_on_c, 6, 59, 56
14, 49684, Note_on_c, 6, 64, 57
14, 49717, Note_off_c, 6, 55, 0
14, 49718, Note_off_c, 6, 59, 0
14, 49718, Note_off_c, 6, 64, 0
14, 49725, Note_on_c, 6, 55, 59
14, 49727, Note_on_c, 6, 59, 57
14, 49731, Note_on_c, 6, 62, 56
14, 49766, Note_off_c, 6, 55, 0
14, 49767, Note_off_c, 6, 59, 0
14, 49768, Note_off_c, 6, 62, 0
14, 49774, Note_on_c, 6, 55, 57
14, 49776, Note_on_c, 6, 59, 60
14, 49778, Note_on_c, 6, 62, 56
14, 49815, Note_off_c, 6, 55, 0
14, 49816, Note_off_c, 6, 59, 0
14, 49817, Note_off_c, 6, 62, 0
14, 49823, Note_on_c, 6, 55, 68
14, 49826, Note_on_c, 6, 59, 57
14, 49828, Note_on_c, 6, 64, 59
14, 49861, Note_off_c, 6, 55, 0
14, 49862, Note_off_c, 6, 59, 0
14, 49863, Note_off_c, 6, 64, 0
14, 49872, Note_on_c, 6, 55, 57
14, 49874, Note_on_c, 6, 59, 57
14, 49876, Note_on_c, 6, 64, 59
14, 49910, Note_off_c, 6, 55, 0
14, 49911, Note_off_c, 6, 59, 0
14, 49912, Note_off_c, 6, 64, 0
14, 49919, Note_on_c, 6, 55, 58
14, 49921, Note_on_c, 6, 59, 57
14, 49926, Note_on_c, 6, 62, 57
14, 49960, Note_off_c, 6, 55, 0
14, 49961, Note_off_c, 6, 59, 0
14, 49962, Note_off_c, 6, 62, 0
14, 49969, Note_on_c, 6, 55, 56
14, 49971, Note_on_c, 6, 59, 60
14, 49974, Note_on_c, 6, 62, 60
14, 50005, Note_off_c, 6, 55, 0
14, 50006, Note_off_c, 6, 59, 0
14, 50007, Note_off_c, 6, 62, 0
14, 50014, Note_on_c, 6, 55, 67
14, 50017, Note_on_c, 6, 59, 60
14, 50019, Note_on_c, 6, 64, 58
14, 50055, Note_off_c, 6, 55, 0
14, 50055, Note_off_c, 6, 59, 0
14, 50056, Note_off_c, 6, 64, 0
14, 50063, Note_on_c, 6, 55, 60
14, 50065, Note_on_c, 6, 59, 57
14, 50067, Note_on_c, 6, 64, 57
14, 50103, Note_off_c, 6, 55, 0
14, 50104, Note_off_c, 6, 59, 0
14, 50104, Note_off_c, 6, 64, 0
14, 50111, Note_on_c, 6, 55, 56
14, 50113, Note_on_c, 6, 59, 60
14, 50115, Note_on_c, 6, 62, 56
14, 50150, Note_off_c, 6, 55, 0
14, 50150, Note_off_c, 6, 59, 0
14, 50151, Note_off_c, 6, 62, 0
14, 50158, Note_on_c, 6, 55, 57
14, 50160, Note_on_c, 6, 59, 60
14, 50162, Note_on_c, 6, 62, 58
14, 50198, Note_off_c, 6, 55, 0
14, 50198, Note_off_c, 6, 59, 0
14, 50199, Note_off_c, 6, 62, 0
14, 50206, Note_on_c, 6, 55, 67
14, 50208, Note_on_c, 6, 59, 60
14, 50211, Note_on_c, 6, 64, 60
14, 50245, Note_off_c, 6, 55, 0
14, 50246, Note_off_c, 6, 59, 0
14, 50246, Note_off_c, 6, 64, 0
14, 50254, Note_on_c, 6, 55, 59
14, 50256, Note_on_c, 6, 59, 61
14, 50258, Note_on_c, 6, 64, 60
14, 50294, Note_off_c, 6, 55, 0
14, 50294, Note_off_c, 6, 59, 0
14, 50295, Note_off_c, 6, 64, 0
14, 50305, Note_on_c, 6, 55, 58
14, 50307, Note_on_c, 6, 60, 60
14, 50310, Note_on_c, 6, 64, 56
14, 50343, Note_off_c, 6, 55, 0
14, 50344, Note_off_c, 6, 60, 0
14, 50345, Note_off_c, 6, 64, 0
14, 50351, Note_on_c, 6, 55, 58
14, 50354, Note_on_c, 6, 60, 57
14, 50356, Note_on_c, 6, 64, 56
14, 50393, Note_off_c, 6, 55, 0
14, 50393, Note_off_c, 6, 60, 0
14, 50394, Note_off_c, 6, 64, 0
14, 50401, Note_on_c, 6, 58, 65
14, 50403, Note_on_c, 6, 60, 58
14, 50406, Note_on_c, 6, 64, 59
14, 50438, Note_off_c, 6, 58, 0
14, 50439, Note_off_c, 6, 60, 0
14, 50439, Note_off_c, 6, 64, 0
14, 50445, Note_on_c, 6, 58, 61
14, 50448, Note_on_c, 6, 60, 56
14, 50450, Note_on_c, 6, 64, 56
14, 50487, Note_off_c, 6, 58, 0
14, 50488, Note_off_c, 6, 60, 0
14, 50489, Note_off_c, 6, 64, 0
14, 50495, Note_on_c, 6, 55, 60
14, 50498, Note_on_c, 6, 60, 57
14, 50501, Note_on_c, 6, 64, 60
14, 50533, Note_off_c, 6, 55, 0
14, 50534, Note_off_c, 6, 60, 0
14, 50534, Note_off_c, 6, 64, 0
14, 50544, Note_on_c, 6, 55, 60
14, 50547, Note_on_c, 6, 60, 59
14, 50550, Note_on_c, 6, 64, 58
14, 50582, Note_off_c, 6, 55, 0
14, 50583, Note_off_c, 6, 60, 0
14, 50583, Note_off_c, 6, 64, 0
14, 50590, Note_on_c, 6, 58, 67
14, 50593, Note_on_c, 6, 60, 56
14, 50595, Note_on_c, 6, 64, 57
14, 50631, Note_off_c, 6, 58, 0
14, 50632, Note_off_c, 6, 60, 0
14, 50633, Note_off_c, 6, 64, 0
14, 50641, Note_on_c, 6, 58, 58
14, 50643, Note_on_c, 6, 60, 57
14, 50646, Note_on_c, 6, 64, 58
14, 50677, Note_off_c, 6, 58, 0
14, 50678, Note_off_c, 6, 60, 0
14, 50678, Note_off_c, 6, 64, 0
14, 50685, Note_on_c, 6, 55, 60
14, 50687, Note_on_c, 6, 60, 56
14, 50693, Note_on_c, 6, 64, 59
14, 50726, Note_off_c, 6, 55, 0
14, 50727, Note_off_c, 6, 60, 0
14, 50728, Note_off_c, 6, 64, 0
14, 50735, Note_on_c, 6, 55, 58
14, 50737, Note_on_c, 6, 60, 58
14, 50740, Note_on_c, 6, 64, 60
14, 50776, Note_off_c, 6, 55, 0
14, 50776, Note_off_c, 6, 60, 0
14, 50777, Note_off_c, 6, 64, 0
14, 50784, Note_on_c, 6, 58, 65
14, 50786, Note_on_c, 6, 60, 58
14, 50788, Note_on_c, 6, 64, 57
14, 50821, Note_off_c, 6, 58, 0
14, 50822, Note_off_c, 6, 60, 0
14, 50823, Note_off_c, 6, 64, 0
14, 50829, Note_on_c, 6, 58, 58
14, 50831, Note_on_c, 6, 60, 58
14, 50833, Note_on_c, 6, 64, 59
14, 50870, Note_off_c, 6, 58, 0
14, 50871, Note_off_c, 6, 60, 0
14, 50872, Note_off_c, 6, 64, 0
14, 50878, Note_on_c, 6, 55, 56
14, 50880, Note_on_c, 6, 60, 60
14, 50883, Note_on_c, 6, 64, 60
14, 50918, Note_off_c, 6, 55, 0
14, 50918, Note_off_c, 6, 60, 0
14, 50919, Note_off_c, 6, 64, 0
14, 50926, Note_on_c, 6, 55, 57
14, 50928, Note_on_c, 6, 60, 58
14, 50930, Note_on_c, 6, 64, 58
14, 50965, Note_off_c, 6, 55, 0
14, 50966, Note_off_c, 6, 60, 0
14, 50967, Note_off_c, 6, 64, 0
14, 50973, Note_on_c, 6, 58, 65
14, 50976, Note_on_c, 6, 60, 60
14, 50977, Note_on_c, 6, 64, 56
14, 51015, Note_off_c, 6, 58, 0
14, 51015, Note_off_c, 6, 60, 0
14, 51016, Note_off_c, 6, 64, 0
14, 51022, Note_on_c, 6, 58, 58
14, 51024, Note_on_c, 6, 60, 58
14, 51026, Note_on_c, 6, 64, 59
14, 51064, Note_off_c, 6, 58, 0
14, 51065, Note_off_c, 6, 60, 0
14, 51065, Note_off_c, 6, 64, 0
14, 51072, Note_on_c, 6, 55, 57
14, 51075, Note_on_c, 6, 59, 56
14, 51077, Note_on_c, 6, 62, 58
14, 51109, Note_off_c, 6, 55, 0
14, 51110, Note_off_c, 6, 59, 0
14, 51111, Note_off_c, 6, 62, 0
14, 51121, Note_on_c, 6, 55, 59
14, 51123, Note_on_c, 6, 59, 60
14, 51126, Note_on_c, 6, 62, 57
14, 51160, Note_off_c, 6, 55, 0
14, 51160, Note_off_c, 6, 59, 0
14, 51161, Note_off_c, 6, 62, 0
14, 51167, Note_on_c, 6, 55, 68
14, 51169, Note_on_c, 6, 59, 59
14, 51172, Note_on_c, 6, 64, 57
14, 51208, Note_off_c, 6, 55, 0
14, 51209, Note_off_c, 6, 59, 0
14, 51210, Note_off_c, 6, 64, 0
14, 51216, Note_on_c, 6, 55, 58
14, 51218, Note_on_c, 6, 59, 60
14, 51220, Note_on_c, 6, 64, 59
14, 51254, Note_off_c, 6, 55, 0
14, 51254, Note_off_c, 6, 59, 0
14, 51255, Note_off_c, 6, 64, 0
14, 51261, Note_on_c, 6, 55, 58
14, 51264, Note_on_c, 6, 59, 60
14, 51266, Note_on_c, 6, 62, 56
14, 51303, Note_off_c, 6, 55, 0
14, 51304, Note_off_c, 6, 59, 0
14, 51305, Note_off_c, 6, 62, 0
14, 51311, Note_on_c, 6, 55, 59
14, 51313, Note_on_c, 6, 59, 58
14, 51315, Note_on_c, 6, 62, 60
14, 51349, Note_off_c, 6, 55, 0
14, 51350, Note_off_c, 6, 59, 0
14, 51350, Note_off_c, 6, 62, 0
14, 51359, Note_on_c, 6, 55, 66
14, 51361, Note_on_c, 6, 59, 60
14, 51364, Note_on_c, 6, 64, 58
14, 51398, Note_off_c, 6, 55, 0
14, 51399, Note_off_c, 6, 59, 0
14, 51400, Note_off_c, 6, 64, 0
14, 51406, Note_on_c, 6, 55, 58
14, 51408, Note_on_c, 6, 59, 59
14, 51410, Note_on_c, 6, 64, 59
14, 51447, Note_off_c, 6, 55, 0
14, 51448, Note_off_c, 6, 59, 0
14, 51449, Note_off_c, 6, 64, 0
14, 51455, Note_on_c, 6, 55, 58
14, 51458, Note_on_c, 6, 59, 56
14, 51463, Note_on_c, 6, 62, 59
14, 51493, Note_off_c, 6, 55, 0
14, 51494, Note_off_c, 6, 59, 0
14, 51494, Note_off_c, 6, 62, 0
14, 51501, Note_on_c, 6, 55, 59
14, 51504, Note_on_c, 6, 59, 59
14, 51506, Note_on_c, 6, 62, 58
14, 51542, Note_off_c, 6, 55, 0
14, 51543, Note_off_c, 6, 59, 0
14, 51544, Note_off_c, 6, 62, 0
14, 51552, Note_on_c, 6, 55, 65
14, 51554, Note_on_c, 6, 59, 58
14, 51556, Note_on_c, 6, 64, 56
14, 51590, Note_off_c, 6, 55, 0
14, 51591, Note_off_c, 6, 59, 0
14, 51592, Note_off_c, 6, 64, 0
14, 51598, Note_on_c, 6, 55, 58
14, 51600, Note_on_c, 6, 59, 58
14, 51603, Note_on_c, 6, 64, 57
14, 51637, Note_off_c, 6, 55, 0
14, 51638, Note_off_c, 6, 59, 0
14, 51639, Note_off_c, 6, 64, 0
14, 51645, Note_on_c, 6, 55, 60
14, 51647, Note_on_c, 6, 59, 59
14, 51650, Note_on_c, 6, 62, 60
14, 51685, Note_off_c, 6, 55, 0
14, 51686, Note_off_c, 6, 59, 0
14, 51687, Note_off_c, 6, 62, 0
14, 51693, Note_on_c, 6, 55, 59
14, 51695, Note_on_c, 6, 59, 56
14, 51697, Note_on_c, 6, 62, 60
14, 51736, Note_off_c, 6, 55, 0
14, 51736, Note_off_c, 6, 59, 0
14, 51737, Note_off_c, 6, 62, 0
14, 51744, Note_on_c, 6, 55, 67
14, 51746, Note_on_c, 6, 59, 60
14, 51750, Note_on_c, 6, 64, 59
14, 51781, Note_off_c, 6, 55, 0
14, 51782, Note_off_c, 6, 59, 0
14, 51783, Note_off_c, 6, 64, 0
14, 51789, Note_on_c, 6, 55, 60
14, 51791, Note_on_c, 6, 59, 56
14, 51793, Note_on_c, 6, 64, 60
14, 51830, Note_off_c, 6, 55, 0
14, 51831, Note_off_c, 6, 59, 0
14, 51832, Note_off_c, 6, 64, 0
14, 51838, Note_on_c, 6, 54, 56
14, 51841, Note_on_c, 6, 57, 57
14, 51846, Note_on_c, 6, 62, 59
14, 51880, Note_off_c, 6, 54, 0
14, 51881, Note_off_c, 6, 57, 0
14, 51882, Note_off_c, 6, 62, 0
14, 51888, Note_on_c, 6, 54, 59
14, 51891, Note_on_c, 6, 57, 56
14, 51893, Note_on_c, 6, 62, 60
14, 51925, Note_off_c, 6, 54, 0
14, 51926, Note_off_c, 6, 57, 0
14, 51927, Note_off_c, 6, 62, 0
14, 51936, Note_on_c, 6, 54, 68
14, 51938, Note_on_c, 6, 60, 56
14, 51940, Note_on_c, 6, 62, 60
14, 51975, Note_off_c, 6, 54, 0
14, 51975, Note_off_c, 6, 60, 0
14, 51976, Note_off_c, 6, 62, 0
14, 51982, Note_on_c, 6, 54, 57
14, 51984, Note_on_c, 6, 60, 58
14, 51987, Note_on_c, 6, 62, 58
14, 52024, Note_off_c, 6, 54, 0
14, 52025, Note_off_c, 6, 60, 0
14, 52025, Note_off_c, 6, 62, 0
14, 52032, Note_on_c, 6, 54, 59
14, 52035, Note_on_c, 6, 57, 58
14, 52036, Note_on_c, 6, 62, 59
14, 52069, Note_off_c, 6, 54, 0
14, 52070, Note_off_c, 6, 57, 0
14, 52071, Note_off_c, 6, 62, 0
14, 52081, Note_on_c, 6, 54, 56
14, 52084, Note_on_c, 6, 57, 58
14, 52087, Note_on_c, 6, 62, 59
14, 52119, Note_off_c, 6, 54, 0
14, 52120, Note_off_c, 6, 57, 0
14, 52121, Note_off_c, 6, 62, 0
14, 52127, Note_on_c, 6, 54, 64
14, 52129, Note_on_c, 6, 60, 58
14, 52131, Note_on_c, 6, 62, 56
14, 52168, Note_off_c, 6, 54, 0
14, 52169, Note_off_c, 6, 60, 0
14, 52170, Note_off_c, 6, 62, 0
14, 52176, Note_on_c, 6, 54, 56
14, 52178, Note_on_c, 6, 60, 57
14, 52180, Note_on_c, 6, 62, 58
14, 52214, Note_off_c, 6, 54, 0
14, 52215, Note_off_c, 6, 60, 0
14, 52215, Note_off_c, 6, 62, 0
14, 52221, Note_on_c, 6, 55, 57
14, 52224, Note_on_c, 6, 60, 56
14, 52226, Note_on_c, 6, 64, 59
14, 52263, Note_off_c, 6, 55, 0
14, 52264, Note_off_c, 6, 60, 0
14, 52265, Note_off_c, 6, 64, 0
14, 52272, Note_on_c, 6, 55, 56
14, 52274, Note_on_c, 6, 60, 58
14, 52276, Note_on_c, 6, 64, 60
14, 52309, Note_off_c, 6, 55, 0
14, 52309, Note_off_c, 6, 60, 0
14, 52310, Note_off_c, 6, 64, 0
14, 52317, Note_on_c, 6, 58, 67
14, 52319, Note_on_c, 6, 60, 56
14, 52322, Note_on_c, 6, 64, 56
14, 52358, Note_off_c, 6, 58, 0
14, 52358, Note_off_c, 6, 60, 0
14, 52359, Note_off_c, 6, 64, 0
14, 52366, Note_on_c, 6, 58, 58
14, 52368, Note_on_c, 6, 60, 57
14, 52370, Note_on_c, 6, 64, 58
14, 52405, Note_off_c, 6, 58, 0
14, 52406, Note_off_c, 6, 60, 0
14, 52407, Note_off_c, 6, 64, 0
14, 52413, Note_on_c, 6, 55, 56
14, 52415, Note_on_c, 6, 60, 57
14, 52418, Note_on_c, 6, 64, 58
14, 52453, Note_off_c, 6, 55, 0
14, 52454, Note_off_c, 6, 60, 0
14, 52454, Note_off_c, 6, 64, 0
14, 52461, Note_on_c, 6, 55, 58
14, 52463, Note_on_c, 6, 60, 59
14, 52465, Note_on_c, 6, 64, 58
14, 52502, Note_off_c, 6, 55, 0
14, 52503, Note_off_c, 6, 60, 0
14, 52504, Note_off_c, 6, 64, 0
14, 52510, Note_on_c, 6, 58, 68
14, 52512, Note_on_c, 6, 60, 60
14, 52514, Note_on_c, 6, 64, 56
14, 52551, Note_off_c, 6, 58, 0
14, 52552, Note_off_c, 6, 60, 0
14, 52553, Note_off_c, 6, 64, 0
14, 52559, Note_on_c, 6, 58, 57
14, 52562, Note_on_c, 6, 60, 57
14, 52564, Note_on_c, 6, 64, 59
14, 52597, Note_off_c, 6, 58, 0
14, 52598, Note_off_c, 6, 60, 0
14, 52598, Note_off_c, 6, 64, 0
14, 52609, Note_on_c, 6, 55, 64
14, 52611, Note_on_c, 6, 59, 60
14, 52613, Note_on_c, 6, 62, 60
14, 52759, Note_off_c, 6, 55, 0
14, 52760, Note_off_c, 6, 59, 0
14, 52760, Note_off_c, 6, 62, 0
14, 52992, Note_on_c, 6, 62, 68
14, 52994, Note_on_c, 6, 64, 60
14, 53070, Note_off_c, 6, 62, 0
14, 53070, Note_off_c, 6, 64, 0
14, 53086, Note_on_c, 6, 60, 66
14, 53088, Note_on_c, 6, 64, 56
14, 53165, Note_off_c, 6, 60, 0
14, 53165, Note_off_c, 6, 64, 0
14, 53181, Note_on_c, 6, 55, 65
14, 53184, Note_on_c, 6, 59, 59
14, 53187, Note_on_c, 6, 62, 57
14, 53336, Note_off_c, 6, 55, 0
14, 53337, Note_off_c, 6, 59, 0
14, 53337, Note_off_c, 6, 62, 0
14, 53337, End_track
15, 0, Start_track
15, 0, Text_t, "GS+GM   "
15, 3, Text_t, "(c)'93 by GEERDES midisystems\000"
15, 8, System_exclusive, 5, 126, 127, 9, 1, 247
15, 16, System_exclusive, 10, 65, 16, 66, 18, 64, 0, 127, 0, 65, 247
15, 24, System_exclusive, 25, 65, 16, 66, 18, 64, 1, 16, 2, 0, 2, 2, 2, 2, 2, 2, 0, 0, 0, 0, 0, 0, 0, 0, 33, 247
15, 32, System_exclusive, 10, 65, 16, 66, 18, 64, 1, 48, 4, 11, 247
15, 40, System_exclusive, 10, 65, 16, 66, 18, 64, 1, 56, 2, 5, 247
15, 48, Control_c, 1, 121, 0
15, 56, Control_c, 2, 121, 0
15, 64, Control_c, 3, 121, 0
15, 72, Control_c, 4, 121, 0
15, 80, Control_c, 5, 121, 0
15, 88, Control_c, 6, 121, 0
15, 96, Control_c, 9, 121, 0
15, 120, Program_c, 1, 32
15, 144, Program_c, 2, 56
15, 168, Program_c, 3, 3
15, 192, Program_c, 4, 24
15, 216, Program_c, 5, 27
15, 240, Program_c, 6, 24
15, 248, Program_c, 9, 0
15, 256, Control_c, 1, 7, 127
15, 264, Control_c, 2, 7, 127
15, 272, Control_c, 3, 7, 127
15, 280, Control_c, 4, 7, 127
15, 288, Control_c, 5, 7, 127
15, 296, Control_c, 6, 7, 127
15, 304, Control_c, 9, 7, 127
15, 312, Control_c, 1, 10, 64
15, 320, Control_c, 2, 10, 94
15, 328, Control_c, 3, 10, 24
15, 336, Control_c, 4, 10, 4
15, 344, Control_c, 5, 10, 114
15, 352, Control_c, 6, 10, 64
15, 360, Control_c, 9, 10, 64
15, 368, Control_c, 1, 91, 80
15, 376, Control_c, 2, 91, 90
15, 384, Control_c, 3, 91, 80
15, 392, Control_c, 4, 91, 70
15, 400, Control_c, 5, 91, 60
15, 408, Control_c, 6, 91, 40
15, 416, Control_c, 9, 91, 60
15, 424, Control_c, 1, 93, 20
15, 432, Control_c, 2, 93, 20
15, 440, Control_c, 3, 93, 0
15, 448, Control_c, 4, 93, 30
15, 456, Control_c, 5, 93, 40
15, 464, Control_c, 6, 93, 40
15, 472, Control_c, 9, 93, 0
15, 53775, System_exclusive, 10, 65, 16, 66, 18, 64, 0, 127, 127, 66, 247
15, 53775, End_track
0, 0, End_of_file
