0, 0, Header, 1, 7, 384
1, 0, Start_track
1, 0, Time_signature, 2, 2, 96, 8
1, 0, Key_signature, 0, "major"
1, 0, Key_signature, 0, "major"
1, 0, Key_signature, 0, "major"
1, 0, Key_signature, 0, "major"
1, 0, Key_signature, 0, "major"
1, 0, Key_signature, 0, "major"
1, 0, Key_signature, 0, "major"
1, 0, Key_signature, 0, "major"
1, 0, Key_signature, 0, "major"
1, 0, Key_signature, 0, "major"
1, 0, Key_signature, 0, "major"
1, 0, Key_signature, 0, "major"
1, 0, Key_signature, 0, "major"
1, 0, Key_signature, 0, "major"
1, 0, Key_signature, 0, "major"
1, 0, Key_signature, 0, "major"
1, 0, Key_signature, 0, "major"
1, 0, Key_signature, 0, "major"
1, 0, Key_signature, 0, "major"
1, 0, Key_signature, 0, "major"
1, 0, Key_signature, 0, "major"
1, 0, Key_signature, 0, "major"
1, 0, Key_signature, 0, "major"
1, 0, Key_signature, 0, "major"
1, 0, Key_signature, 0, "major"
1, 0, Key_signature, 0, "major"
1, 0, Key_signature, 0, "major"
1, 0, Key_signature, 0, "major"
1, 0, Key_signature, 0, "major"
1, 0, Key_signature, 0, "major"
1, 0, Key_signature, 0, "major"
1, 0, Key_signature, 0, "major"
1, 0, Key_signature, 0, "major"
1, 0, Key_signature, 0, "major"
1, 0, Key_signature, 0, "major"
1, 0, Key_signature, 0, "major"
1, 0, Key_signature, 0, "major"
1, 0, Key_signature, 0, "major"
1, 0, Key_signature, 0, "major"
1, 0, Key_signature, 0, "major"
1, 0, Sequencer_specific, 3, 0, 0, 65
1, 0, Key_signature, 0, "major"
1, 0, Tempo, 600000
1, 0, Key_signature, 0, "major"
1, 0, Key_signature, 0, "major"
1, 0, Key_signature, 0, "major"
1, 0, Key_signature, 0, "major"
1, 0, Key_signature, 0, "major"
1, 0, Key_signature, 0, "major"
1, 0, Key_signature, 0, "major"
1, 0, Key_signature, 0, "major"
1, 0, Key_signature, 0, "major"
1, 0, Key_signature, 0, "major"
1, 0, Key_signature, 0, "major"
1, 0, Key_signature, 0, "major"
1, 0, Key_signature, 0, "major"
1, 0, Key_signature, 0, "major"
1, 0, Key_signature, 0, "major"
1, 0, Key_signature, 0, "major"
1, 0, Key_signature, 0, "major"
1, 0, Key_signature, 0, "major"
1, 0, Key_signature, 0, "major"
1, 0, Key_signature, 0, "major"
1, 0, Key_signature, 0, "major"
1, 0, Key_signature, 0, "major"
1, 0, Key_signature, 0, "major"
1, 0, Key_signature, 0, "major"
1, 0, Key_signature, 0, "major"
1, 0, Key_signature, 0, "major"
1, 0, Key_signature, 0, "major"
1, 0, Key_signature, 0, "major"
1, 0, Key_signature, 0, "major"
1, 0, Key_signature, 0, "major"
1, 0, Key_signature, 0, "major"
1, 0, Key_signature, 0, "major"
1, 0, Key_signature, 0, "major"
1, 0, Key_signature, 0, "major"
1, 0, Key_signature, 0, "major"
1, 0, Key_signature, 0, "major"
1, 0, Key_signature, 0, "major"
1, 0, Key_signature, 0, "major"
1, 77568, Tempo, 606060
1, 79104, Tempo, 612244
1, 80640, Tempo, 618556
1, 82176, Tempo, 625000
1, 83712, Tempo, 631578
1, 85248, Tempo, 638297
1, 86784, Tempo, 645161
1, 88320, Tempo, 652173
1, 89856, Tempo, 750000
1, 90624, End_track
2, 0, Start_track
2, 0, End_track
3, 0, Start_track
3, 89088, End_track
4, 0, Start_track
4, 0, Control_c, 0, 0, 0
4, 0, Control_c, 0, 0, 0
4, 0, Control_c, 0, 0, 0
4, 0, Control_c, 0, 0, 0
4, 0, Control_c, 0, 0, 0
4, 0, Control_c, 0, 0, 0
4, 0, Control_c, 0, 0, 0
4, 0, Control_c, 0, 0, 0
4, 0, Control_c, 0, 0, 0
4, 0, Control_c, 0, 0, 0
4, 0, Control_c, 0, 0, 0
4, 0, Control_c, 0, 0, 0
4, 0, Program_c, 0, 60
4, 0, Program_c, 0, 60
4, 0, Program_c, 0, 60
4, 0, Program_c, 0, 60
4, 0, Program_c, 0, 60
4, 0, Program_c, 0, 60
4, 0, Program_c, 0, 60
4, 0, Program_c, 0, 60
4, 0, Program_c, 0, 60
4, 0, Program_c, 0, 60
4, 0, Program_c, 0, 60
4, 0, Program_c, 0, 60
4, 96, Control_c, 0, 25, 0
4, 3840, Note_on_c, 0, 72, 112
4, 4032, Note_off_c, 0, 72, 64
4, 4032, Note_on_c, 0, 67, 112
4, 4224, Note_off_c, 0, 67, 64
4, 4224, Note_on_c, 0, 67, 112
4, 4416, Note_off_c, 0, 67, 64
4, 4416, Note_on_c, 0, 67, 112
4, 4608, Note_off_c, 0, 67, 64
4, 4608, Note_on_c, 0, 67, 112
4, 4800, Note_off_c, 0, 67, 64
4, 4800, Note_on_c, 0, 67, 112
4, 4992, Note_off_c, 0, 67, 64
4, 4992, Note_on_c, 0, 67, 112
4, 5184, Note_off_c, 0, 67, 64
4, 5184, Note_on_c, 0, 67, 112
4, 5376, Note_off_c, 0, 67, 64
4, 5376, Note_on_c, 0, 65, 112
4, 5760, Note_off_c, 0, 65, 64
4, 5760, Note_on_c, 0, 67, 112
4, 5952, Note_off_c, 0, 67, 64
4, 5952, Note_on_c, 0, 65, 112
4, 6144, Note_off_c, 0, 65, 64
4, 6144, Note_on_c, 0, 67, 112
4, 6912, Note_off_c, 0, 67, 64
4, 6912, Note_on_c, 0, 72, 112
4, 7104, Note_off_c, 0, 72, 64
4, 7104, Note_on_c, 0, 67, 112
4, 7296, Note_off_c, 0, 67, 64
4, 7296, Note_on_c, 0, 67, 112
4, 7488, Note_off_c, 0, 67, 64
4, 7488, Note_on_c, 0, 67, 112
4, 7680, Note_off_c, 0, 67, 64
4, 7680, Note_on_c, 0, 67, 112
4, 7872, Note_off_c, 0, 67, 64
4, 7872, Note_on_c, 0, 67, 112
4, 8064, Note_off_c, 0, 67, 64
4, 8064, Note_on_c, 0, 67, 112
4, 8256, Note_off_c, 0, 67, 64
4, 8256, Note_on_c, 0, 67, 112
4, 8448, Note_off_c, 0, 67, 64
4, 8448, Note_on_c, 0, 65, 112
4, 8832, Note_off_c, 0, 65, 64
4, 8832, Note_on_c, 0, 67, 112
4, 9024, Note_off_c, 0, 67, 64
4, 9024, Note_on_c, 0, 65, 112
4, 9216, Note_off_c, 0, 65, 64
4, 9216, Note_on_c, 0, 67, 112
4, 9984, Note_off_c, 0, 67, 64
4, 9984, Note_on_c, 0, 81, 112
4, 10176, Note_off_c, 0, 81, 64
4, 10176, Note_on_c, 0, 76, 112
4, 10368, Note_off_c, 0, 76, 64
4, 10368, Note_on_c, 0, 72, 112
4, 10560, Note_off_c, 0, 72, 64
4, 10560, Note_on_c, 0, 69, 112
4, 10752, Note_off_c, 0, 69, 64
4, 10752, Note_on_c, 0, 77, 112
4, 10944, Note_off_c, 0, 77, 64
4, 10944, Note_on_c, 0, 79, 112
4, 11136, Note_off_c, 0, 79, 64
4, 11136, Note_on_c, 0, 77, 112
4, 11328, Note_off_c, 0, 77, 64
4, 11328, Note_on_c, 0, 77, 112
4, 11520, Note_off_c, 0, 77, 64
4, 11520, Note_on_c, 0, 79, 112
4, 11712, Note_off_c, 0, 79, 64
4, 11712, Note_on_c, 0, 74, 112
4, 11904, Note_off_c, 0, 74, 64
4, 11904, Note_on_c, 0, 74, 112
4, 12096, Note_off_c, 0, 74, 64
4, 12096, Note_on_c, 0, 74, 112
4, 12288, Note_off_c, 0, 74, 64
4, 12288, Note_on_c, 0, 76, 112
4, 12480, Note_off_c, 0, 76, 64
4, 12480, Note_on_c, 0, 77, 112
4, 12672, Note_off_c, 0, 77, 64
4, 12672, Note_on_c, 0, 76, 112
4, 13056, Note_off_c, 0, 76, 64
4, 13184, Note_on_c, 0, 76, 112
4, 13312, Note_off_c, 0, 76, 64
4, 13312, Note_on_c, 0, 72, 112
4, 13440, Note_off_c, 0, 72, 64
4, 13440, Note_on_c, 0, 72, 112
4, 13632, Note_off_c, 0, 72, 64
4, 13632, Note_on_c, 0, 72, 112
4, 13824, Note_off_c, 0, 72, 64
4, 13824, Note_on_c, 0, 74, 100
4, 14048, Note_on_c, 0, 76, 112
4, 14176, Note_off_c, 0, 76, 64
4, 14208, Note_on_c, 0, 74, 100
4, 14336, Note_off_c, 0, 74, 100
4, 14432, Note_off_c, 0, 74, 100
4, 14720, Note_on_c, 0, 79, 112
4, 14848, Note_off_c, 0, 79, 64
4, 14848, Note_on_c, 0, 71, 112
4, 14976, Note_off_c, 0, 71, 64
4, 14976, Note_on_c, 0, 69, 112
4, 15168, Note_off_c, 0, 69, 64
4, 15168, Note_on_c, 0, 71, 112
4, 15360, Note_off_c, 0, 71, 64
4, 15360, Note_on_c, 0, 72, 112
4, 15552, Note_off_c, 0, 72, 64
4, 15552, Note_on_c, 0, 72, 112
4, 15744, Note_off_c, 0, 72, 64
4, 15744, Note_on_c, 0, 72, 112
4, 16128, Note_off_c, 0, 72, 64
4, 16128, Note_on_c, 0, 72, 112
4, 16320, Note_off_c, 0, 72, 64
4, 16320, Note_on_c, 0, 67, 112
4, 16512, Note_off_c, 0, 67, 64
4, 16512, Note_on_c, 0, 67, 112
4, 16704, Note_off_c, 0, 67, 64
4, 16704, Note_on_c, 0, 67, 112
4, 16896, Note_off_c, 0, 67, 64
4, 16896, Note_on_c, 0, 67, 112
4, 17088, Note_off_c, 0, 67, 64
4, 17088, Note_on_c, 0, 67, 112
4, 17280, Note_off_c, 0, 67, 64
4, 17280, Note_on_c, 0, 67, 112
4, 17472, Note_off_c, 0, 67, 64
4, 17472, Note_on_c, 0, 67, 112
4, 17664, Note_off_c, 0, 67, 64
4, 17664, Note_on_c, 0, 65, 112
4, 18048, Note_off_c, 0, 65, 64
4, 18048, Note_on_c, 0, 67, 112
4, 18240, Note_off_c, 0, 67, 64
4, 18240, Note_on_c, 0, 65, 112
4, 18432, Note_off_c, 0, 65, 64
4, 18432, Note_on_c, 0, 67, 112
4, 19200, Note_off_c, 0, 67, 64
4, 19200, Note_on_c, 0, 72, 112
4, 19392, Note_off_c, 0, 72, 64
4, 19392, Note_on_c, 0, 67, 112
4, 19584, Note_off_c, 0, 67, 64
4, 19584, Note_on_c, 0, 67, 112
4, 19776, Note_off_c, 0, 67, 64
4, 19776, Note_on_c, 0, 67, 112
4, 19968, Note_off_c, 0, 67, 64
4, 19968, Note_on_c, 0, 67, 112
4, 20160, Note_off_c, 0, 67, 64
4, 20160, Note_on_c, 0, 67, 112
4, 20352, Note_off_c, 0, 67, 64
4, 20352, Note_on_c, 0, 67, 112
4, 20544, Note_off_c, 0, 67, 64
4, 20544, Note_on_c, 0, 67, 112
4, 20736, Note_off_c, 0, 67, 64
4, 20736, Note_on_c, 0, 65, 112
4, 21120, Note_off_c, 0, 65, 64
4, 21120, Note_on_c, 0, 67, 112
4, 21312, Note_off_c, 0, 67, 64
4, 21312, Note_on_c, 0, 65, 112
4, 21504, Note_off_c, 0, 65, 64
4, 21504, Note_on_c, 0, 67, 112
4, 22272, Note_off_c, 0, 67, 64
4, 22272, Note_on_c, 0, 81, 112
4, 22464, Note_off_c, 0, 81, 64
4, 22464, Note_on_c, 0, 76, 112
4, 22656, Note_off_c, 0, 76, 64
4, 22656, Note_on_c, 0, 72, 112
4, 22848, Note_off_c, 0, 72, 64
4, 22848, Note_on_c, 0, 69, 112
4, 23040, Note_off_c, 0, 69, 64
4, 23040, Note_on_c, 0, 77, 112
4, 23232, Note_off_c, 0, 77, 64
4, 23232, Note_on_c, 0, 79, 112
4, 23424, Note_off_c, 0, 79, 64
4, 23424, Note_on_c, 0, 77, 112
4, 23616, Note_off_c, 0, 77, 64
4, 23616, Note_on_c, 0, 77, 112
4, 23808, Note_off_c, 0, 77, 64
4, 23808, Note_on_c, 0, 79, 112
4, 24000, Note_off_c, 0, 79, 64
4, 24000, Note_on_c, 0, 74, 112
4, 24192, Note_off_c, 0, 74, 64
4, 24192, Note_on_c, 0, 74, 112
4, 24384, Note_off_c, 0, 74, 64
4, 24384, Note_on_c, 0, 74, 112
4, 24576, Note_off_c, 0, 74, 64
4, 24576, Note_on_c, 0, 76, 112
4, 24768, Note_off_c, 0, 76, 64
4, 24768, Note_on_c, 0, 77, 112
4, 24960, Note_off_c, 0, 77, 64
4, 24960, Note_on_c, 0, 76, 112
4, 25344, Note_off_c, 0, 76, 64
4, 25472, Note_on_c, 0, 76, 112
4, 25600, Note_off_c, 0, 76, 64
4, 25600, Note_on_c, 0, 72, 112
4, 25728, Note_off_c, 0, 72, 64
4, 25728, Note_on_c, 0, 72, 112
4, 25920, Note_off_c, 0, 72, 64
4, 25920, Note_on_c, 0, 72, 112
4, 26112, Note_off_c, 0, 72, 64
4, 26112, Note_on_c, 0, 74, 112
4, 26240, Note_off_c, 0, 74, 64
4, 26240, Note_on_c, 0, 76, 112
4, 26368, Note_off_c, 0, 76, 64
4, 26368, Note_on_c, 0, 74, 112
4, 26496, Note_off_c, 0, 74, 64
4, 26496, Note_on_c, 0, 74, 112
4, 26688, Note_off_c, 0, 74, 64
4, 26688, Note_on_c, 0, 74, 112
4, 26880, Note_off_c, 0, 74, 64
4, 27008, Note_on_c, 0, 79, 112
4, 27136, Note_off_c, 0, 79, 64
4, 27136, Note_on_c, 0, 71, 112
4, 27264, Note_off_c, 0, 71, 64
4, 27264, Note_on_c, 0, 69, 112
4, 27456, Note_off_c, 0, 69, 64
4, 27456, Note_on_c, 0, 71, 112
4, 27648, Note_off_c, 0, 71, 64
4, 27648, Note_on_c, 0, 72, 112
4, 27840, Note_off_c, 0, 72, 64
4, 27840, Note_on_c, 0, 72, 112
4, 28032, Note_off_c, 0, 72, 64
4, 28032, Note_on_c, 0, 72, 112
4, 28416, Note_off_c, 0, 72, 64
4, 28544, Note_on_c, 0, 65, 112
4, 28672, Note_off_c, 0, 65, 64
4, 28672, Note_on_c, 0, 65, 112
4, 28800, Note_off_c, 0, 65, 64
4, 28800, Note_on_c, 0, 65, 112
4, 28992, Note_off_c, 0, 65, 64
4, 28992, Note_on_c, 0, 65, 112
4, 29184, Note_off_c, 0, 65, 64
4, 29184, Note_on_c, 0, 66, 112
4, 29376, Note_off_c, 0, 66, 64
4, 29376, Note_on_c, 0, 66, 112
4, 29568, Note_off_c, 0, 66, 64
4, 29568, Note_on_c, 0, 66, 112
4, 29760, Note_off_c, 0, 66, 64
4, 29760, Note_on_c, 0, 66, 112
4, 29952, Note_off_c, 0, 66, 64
4, 29952, Note_on_c, 0, 66, 112
4, 30336, Note_off_c, 0, 66, 64
4, 30336, Note_on_c, 0, 68, 112
4, 30528, Note_off_c, 0, 68, 64
4, 30528, Note_on_c, 0, 66, 112
4, 30720, Note_off_c, 0, 66, 64
4, 30720, Note_on_c, 0, 68, 112
4, 31488, Note_off_c, 0, 68, 64
4, 31616, Note_on_c, 0, 65, 112
4, 31744, Note_off_c, 0, 65, 64
4, 31744, Note_on_c, 0, 65, 112
4, 31872, Note_off_c, 0, 65, 64
4, 31872, Note_on_c, 0, 65, 112
4, 32064, Note_off_c, 0, 65, 64
4, 32064, Note_on_c, 0, 65, 112
4, 32256, Note_off_c, 0, 65, 64
4, 32256, Note_on_c, 0, 66, 112
4, 32384, Note_off_c, 0, 66, 64
4, 32384, Note_on_c, 0, 66, 112
4, 32512, Note_off_c, 0, 66, 64
4, 32512, Note_on_c, 0, 66, 112
4, 32640, Note_off_c, 0, 66, 64
4, 32640, Note_on_c, 0, 66, 112
4, 32832, Note_off_c, 0, 66, 64
4, 32832, Note_on_c, 0, 66, 112
4, 33024, Note_off_c, 0, 66, 64
4, 33216, Note_on_c, 0, 66, 112
4, 33408, Note_off_c, 0, 66, 64
4, 33408, Note_on_c, 0, 68, 112
4, 33600, Note_off_c, 0, 68, 64
4, 33600, Note_on_c, 0, 66, 112
4, 33792, Note_off_c, 0, 66, 64
4, 33792, Note_on_c, 0, 68, 112
4, 34560, Note_off_c, 0, 68, 64
4, 34560, Note_on_c, 0, 70, 112
4, 34752, Note_off_c, 0, 70, 64
4, 34752, Note_on_c, 0, 65, 112
4, 34944, Note_off_c, 0, 65, 64
4, 34944, Note_on_c, 0, 65, 112
4, 35136, Note_off_c, 0, 65, 64
4, 35136, Note_on_c, 0, 65, 112
4, 35328, Note_off_c, 0, 65, 64
4, 35328, Note_on_c, 0, 66, 112
4, 35456, Note_off_c, 0, 66, 64
4, 35456, Note_on_c, 0, 68, 112
4, 35584, Note_off_c, 0, 68, 64
4, 35584, Note_on_c, 0, 66, 112
4, 35712, Note_off_c, 0, 66, 64
4, 35712, Note_on_c, 0, 66, 112
4, 35904, Note_off_c, 0, 66, 64
4, 35904, Note_on_c, 0, 66, 112
4, 36096, Note_off_c, 0, 66, 64
4, 36096, Note_on_c, 0, 68, 112
4, 36288, Note_off_c, 0, 68, 64
4, 36288, Note_on_c, 0, 63, 112
4, 36480, Note_off_c, 0, 63, 64
4, 36480, Note_on_c, 0, 63, 112
4, 36672, Note_off_c, 0, 63, 64
4, 36672, Note_on_c, 0, 63, 112
4, 36864, Note_off_c, 0, 63, 64
4, 36864, Note_on_c, 0, 65, 112
4, 36992, Note_off_c, 0, 65, 64
4, 36992, Note_on_c, 0, 66, 112
4, 37120, Note_off_c, 0, 66, 64
4, 37120, Note_on_c, 0, 65, 112
4, 37248, Note_off_c, 0, 65, 64
4, 37248, Note_on_c, 0, 65, 112
4, 37632, Note_off_c, 0, 65, 64
4, 37632, Note_on_c, 0, 63, 112
4, 37760, Note_off_c, 0, 63, 64
4, 37760, Note_on_c, 0, 63, 112
4, 37888, Note_off_c, 0, 63, 64
4, 37888, Note_on_c, 0, 63, 112
4, 38016, Note_off_c, 0, 63, 64
4, 38016, Note_on_c, 0, 63, 112
4, 38208, Note_off_c, 0, 63, 64
4, 38208, Note_on_c, 0, 63, 112
4, 38400, Note_off_c, 0, 63, 64
4, 38400, Note_on_c, 0, 63, 112
4, 38592, Note_off_c, 0, 63, 64
4, 38592, Note_on_c, 0, 58, 112
4, 38784, Note_off_c, 0, 58, 64
4, 38784, Note_on_c, 0, 58, 112
4, 38976, Note_off_c, 0, 58, 64
4, 38976, Note_on_c, 0, 58, 112
4, 39168, Note_off_c, 0, 58, 64
4, 39168, Note_on_c, 0, 68, 112
4, 39552, Note_off_c, 0, 68, 64
4, 39552, Note_on_c, 0, 60, 112
4, 39680, Note_off_c, 0, 60, 64
4, 39680, Note_on_c, 0, 58, 112
4, 39808, Note_off_c, 0, 58, 64
4, 39808, Note_on_c, 0, 60, 112
4, 39936, Note_off_c, 0, 60, 64
4, 39936, Note_on_c, 0, 61, 112
4, 40128, Note_off_c, 0, 61, 64
4, 40128, Note_on_c, 0, 61, 112
4, 40320, Note_off_c, 0, 61, 64
4, 40320, Note_on_c, 0, 61, 112
4, 40704, Note_off_c, 0, 61, 64
4, 40832, Note_on_c, 0, 67, 112
4, 40960, Note_off_c, 0, 67, 64
4, 40960, Note_on_c, 0, 67, 112
4, 41088, Note_off_c, 0, 67, 64
4, 41088, Note_on_c, 0, 67, 112
4, 41280, Note_off_c, 0, 67, 64
4, 41280, Note_on_c, 0, 67, 112
4, 41472, Note_off_c, 0, 67, 64
4, 41472, Note_on_c, 0, 67, 112
4, 41664, Note_off_c, 0, 67, 64
4, 41664, Note_on_c, 0, 67, 112
4, 41856, Note_off_c, 0, 67, 64
4, 41856, Note_on_c, 0, 67, 112
4, 42048, Note_off_c, 0, 67, 64
4, 42048, Note_on_c, 0, 67, 112
4, 42240, Note_off_c, 0, 67, 64
4, 42240, Note_on_c, 0, 67, 112
4, 42624, Note_off_c, 0, 67, 64
4, 42624, Note_on_c, 0, 67, 112
4, 42816, Note_off_c, 0, 67, 64
4, 42816, Note_on_c, 0, 65, 112
4, 43008, Note_off_c, 0, 65, 64
4, 43008, Note_on_c, 0, 67, 112
4, 43776, Note_off_c, 0, 67, 64
4, 43904, Note_on_c, 0, 67, 112
4, 44032, Note_off_c, 0, 67, 64
4, 44032, Note_on_c, 0, 67, 112
4, 44160, Note_off_c, 0, 67, 64
4, 44160, Note_on_c, 0, 67, 112
4, 44352, Note_off_c, 0, 67, 64
4, 44352, Note_on_c, 0, 67, 112
4, 44544, Note_off_c, 0, 67, 64
4, 44544, Note_on_c, 0, 67, 112
4, 44736, Note_off_c, 0, 67, 64
4, 44736, Note_on_c, 0, 67, 112
4, 44928, Note_off_c, 0, 67, 64
4, 44928, Note_on_c, 0, 67, 112
4, 45120, Note_off_c, 0, 67, 64
4, 45120, Note_on_c, 0, 67, 112
4, 45312, Note_off_c, 0, 67, 64
4, 45312, Note_on_c, 0, 65, 112
4, 45696, Note_off_c, 0, 65, 64
4, 45696, Note_on_c, 0, 67, 112
4, 45888, Note_off_c, 0, 67, 64
4, 45888, Note_on_c, 0, 64, 112
4, 46080, Note_off_c, 0, 64, 64
4, 46080, Note_on_c, 0, 67, 112
4, 46848, Note_off_c, 0, 67, 64
4, 46848, Note_on_c, 0, 69, 112
4, 47040, Note_off_c, 0, 69, 64
4, 47040, Note_on_c, 0, 64, 112
4, 47232, Note_off_c, 0, 64, 64
4, 47232, Note_on_c, 0, 64, 112
4, 47424, Note_off_c, 0, 64, 64
4, 47424, Note_on_c, 0, 64, 112
4, 47616, Note_off_c, 0, 64, 64
4, 47616, Note_on_c, 0, 65, 112
4, 47808, Note_off_c, 0, 65, 64
4, 47808, Note_on_c, 0, 67, 112
4, 48000, Note_off_c, 0, 67, 64
4, 48000, Note_on_c, 0, 65, 112
4, 48192, Note_off_c, 0, 65, 64
4, 48192, Note_on_c, 0, 65, 112
4, 48384, Note_off_c, 0, 65, 64
4, 48384, Note_on_c, 0, 67, 112
4, 48576, Note_off_c, 0, 67, 64
4, 48576, Note_on_c, 0, 62, 112
4, 48768, Note_off_c, 0, 62, 64
4, 48768, Note_on_c, 0, 62, 112
4, 48960, Note_off_c, 0, 62, 64
4, 48960, Note_on_c, 0, 62, 112
4, 49152, Note_off_c, 0, 62, 64
4, 49152, Note_on_c, 0, 64, 112
4, 49344, Note_off_c, 0, 64, 64
4, 49344, Note_on_c, 0, 65, 112
4, 49536, Note_off_c, 0, 65, 64
4, 49536, Note_on_c, 0, 64, 112
4, 49920, Note_off_c, 0, 64, 64
4, 50048, Note_on_c, 0, 64, 112
4, 50176, Note_off_c, 0, 64, 64
4, 50176, Note_on_c, 0, 60, 112
4, 50304, Note_off_c, 0, 60, 64
4, 50304, Note_on_c, 0, 60, 112
4, 50496, Note_off_c, 0, 60, 64
4, 50496, Note_on_c, 0, 60, 112
4, 50688, Note_off_c, 0, 60, 64
4, 50688, Note_on_c, 0, 62, 112
4, 50880, Note_off_c, 0, 62, 64
4, 50880, Note_on_c, 0, 64, 112
4, 51072, Note_off_c, 0, 64, 64
4, 51072, Note_on_c, 0, 62, 112
4, 51264, Note_off_c, 0, 62, 64
4, 51264, Note_on_c, 0, 62, 112
4, 51456, Note_off_c, 0, 62, 64
4, 51456, Note_on_c, 0, 65, 112
4, 51648, Note_off_c, 0, 65, 64
4, 51648, Note_on_c, 0, 59, 112
4, 51840, Note_off_c, 0, 59, 64
4, 51840, Note_on_c, 0, 57, 112
4, 52032, Note_off_c, 0, 57, 64
4, 52032, Note_on_c, 0, 59, 112
4, 52224, Note_off_c, 0, 59, 64
4, 52224, Note_on_c, 0, 60, 112
4, 52416, Note_off_c, 0, 60, 64
4, 52416, Note_on_c, 0, 60, 112
4, 52608, Note_off_c, 0, 60, 64
4, 52608, Note_on_c, 0, 60, 112
4, 52992, Note_off_c, 0, 60, 64
4, 53120, Note_on_c, 0, 68, 112
4, 53248, Note_off_c, 0, 68, 64
4, 53248, Note_on_c, 0, 68, 112
4, 53376, Note_off_c, 0, 68, 64
4, 53376, Note_on_c, 0, 68, 112
4, 53568, Note_off_c, 0, 68, 64
4, 53568, Note_on_c, 0, 68, 112
4, 53760, Note_off_c, 0, 68, 64
4, 53760, Note_on_c, 0, 68, 112
4, 53952, Note_off_c, 0, 68, 64
4, 53952, Note_on_c, 0, 68, 112
4, 54144, Note_off_c, 0, 68, 64
4, 54144, Note_on_c, 0, 68, 112
4, 54336, Note_off_c, 0, 68, 64
4, 54336, Note_on_c, 0, 68, 112
4, 54528, Note_off_c, 0, 68, 64
4, 54528, Note_on_c, 0, 66, 112
4, 54912, Note_off_c, 0, 66, 64
4, 54912, Note_on_c, 0, 68, 112
4, 55104, Note_off_c, 0, 68, 64
4, 55104, Note_on_c, 0, 66, 112
4, 55296, Note_off_c, 0, 66, 64
4, 55296, Note_on_c, 0, 68, 112
4, 56064, Note_off_c, 0, 68, 64
4, 56192, Note_on_c, 0, 73, 112
4, 56320, Note_off_c, 0, 73, 64
4, 56320, Note_on_c, 0, 68, 112
4, 56448, Note_off_c, 0, 68, 64
4, 56448, Note_on_c, 0, 68, 112
4, 56640, Note_off_c, 0, 68, 64
4, 56640, Note_on_c, 0, 68, 112
4, 56832, Note_off_c, 0, 68, 64
4, 56832, Note_on_c, 0, 68, 112
4, 57024, Note_off_c, 0, 68, 64
4, 57024, Note_on_c, 0, 68, 112
4, 57216, Note_off_c, 0, 68, 64
4, 57216, Note_on_c, 0, 68, 112
4, 57408, Note_off_c, 0, 68, 64
4, 57408, Note_on_c, 0, 68, 112
4, 57600, Note_off_c, 0, 68, 64
4, 57792, Note_on_c, 0, 66, 112
4, 57984, Note_off_c, 0, 66, 64
4, 57984, Note_on_c, 0, 68, 112
4, 58176, Note_off_c, 0, 68, 64
4, 58176, Note_on_c, 0, 66, 112
4, 58368, Note_off_c, 0, 66, 64
4, 58368, Note_on_c, 0, 68, 112
4, 59136, Note_off_c, 0, 68, 64
4, 59136, Note_on_c, 0, 70, 112
4, 59328, Note_off_c, 0, 70, 64
4, 59328, Note_on_c, 0, 65, 112
4, 59520, Note_off_c, 0, 65, 64
4, 59520, Note_on_c, 0, 65, 112
4, 59712, Note_off_c, 0, 65, 64
4, 59712, Note_on_c, 0, 65, 112
4, 59904, Note_off_c, 0, 65, 64
4, 59904, Note_on_c, 0, 66, 112
4, 60096, Note_off_c, 0, 66, 64
4, 60096, Note_on_c, 0, 68, 112
4, 60288, Note_off_c, 0, 68, 64
4, 60288, Note_on_c, 0, 66, 112
4, 60480, Note_off_c, 0, 66, 64
4, 60480, Note_on_c, 0, 66, 112
4, 60672, Note_off_c, 0, 66, 64
4, 60672, Note_on_c, 0, 68, 112
4, 60864, Note_off_c, 0, 68, 64
4, 60864, Note_on_c, 0, 63, 112
4, 61056, Note_off_c, 0, 63, 64
4, 61056, Note_on_c, 0, 63, 112
4, 61248, Note_off_c, 0, 63, 64
4, 61248, Note_on_c, 0, 63, 112
4, 61440, Note_off_c, 0, 63, 64
4, 61440, Note_on_c, 0, 65, 112
4, 61632, Note_off_c, 0, 65, 64
4, 61632, Note_on_c, 0, 66, 112
4, 61824, Note_off_c, 0, 66, 64
4, 61824, Note_on_c, 0, 65, 112
4, 62208, Note_off_c, 0, 65, 64
4, 62336, Note_on_c, 0, 65, 112
4, 62464, Note_off_c, 0, 65, 64
4, 62464, Note_on_c, 0, 61, 112
4, 62592, Note_off_c, 0, 61, 64
4, 62592, Note_on_c, 0, 61, 112
4, 62784, Note_off_c, 0, 61, 64
4, 62784, Note_on_c, 0, 61, 112
4, 62976, Note_off_c, 0, 61, 64
4, 62976, Note_on_c, 0, 66, 112
4, 63104, Note_off_c, 0, 66, 64
4, 63104, Note_on_c, 0, 68, 112
4, 63232, Note_off_c, 0, 68, 64
4, 63232, Note_on_c, 0, 66, 112
4, 63360, Note_off_c, 0, 66, 64
4, 63360, Note_on_c, 0, 66, 112
4, 63552, Note_off_c, 0, 66, 64
4, 63552, Note_on_c, 0, 66, 112
4, 63744, Note_off_c, 0, 66, 64
4, 63872, Note_on_c, 0, 68, 112
4, 64000, Note_off_c, 0, 68, 64
4, 64000, Note_on_c, 0, 60, 112
4, 64128, Note_off_c, 0, 60, 64
4, 64128, Note_on_c, 0, 58, 112
4, 64320, Note_off_c, 0, 58, 64
4, 64320, Note_on_c, 0, 60, 112
4, 64512, Note_off_c, 0, 60, 64
4, 64512, Note_on_c, 0, 61, 112
4, 64704, Note_off_c, 0, 61, 64
4, 64704, Note_on_c, 0, 61, 112
4, 64896, Note_off_c, 0, 61, 64
4, 64896, Note_on_c, 0, 61, 112
4, 65280, Note_off_c, 0, 61, 64
4, 65408, Note_on_c, 0, 67, 112
4, 65536, Note_off_c, 0, 67, 64
4, 65536, Note_on_c, 0, 67, 112
4, 65664, Note_off_c, 0, 67, 64
4, 65664, Note_on_c, 0, 67, 112
4, 65856, Note_off_c, 0, 67, 64
4, 65856, Note_on_c, 0, 67, 112
4, 66048, Note_off_c, 0, 67, 64
4, 66048, Note_on_c, 0, 67, 112
4, 66240, Note_off_c, 0, 67, 64
4, 66240, Note_on_c, 0, 67, 112
4, 66432, Note_off_c, 0, 67, 64
4, 66432, Note_on_c, 0, 67, 112
4, 66624, Note_off_c, 0, 67, 64
4, 66624, Note_on_c, 0, 67, 112
4, 66816, Note_off_c, 0, 67, 64
4, 66816, Note_on_c, 0, 67, 112
4, 67200, Note_off_c, 0, 67, 64
4, 67200, Note_on_c, 0, 67, 112
4, 67392, Note_off_c, 0, 67, 64
4, 67392, Note_on_c, 0, 65, 112
4, 67584, Note_off_c, 0, 65, 64
4, 67584, Note_on_c, 0, 67, 112
4, 68352, Note_off_c, 0, 67, 64
4, 68480, Note_on_c, 0, 67, 112
4, 68608, Note_off_c, 0, 67, 64
4, 68608, Note_on_c, 0, 67, 112
4, 68736, Note_off_c, 0, 67, 64
4, 68736, Note_on_c, 0, 67, 112
4, 68928, Note_off_c, 0, 67, 64
4, 68928, Note_on_c, 0, 67, 112
4, 69120, Note_off_c, 0, 67, 64
4, 69120, Note_on_c, 0, 67, 112
4, 69312, Note_off_c, 0, 67, 64
4, 69312, Note_on_c, 0, 67, 112
4, 69504, Note_off_c, 0, 67, 64
4, 69504, Note_on_c, 0, 67, 112
4, 69696, Note_off_c, 0, 67, 64
4, 69696, Note_on_c, 0, 67, 112
4, 69888, Note_off_c, 0, 67, 64
4, 69888, Note_on_c, 0, 65, 112
4, 70272, Note_off_c, 0, 65, 64
4, 70272, Note_on_c, 0, 67, 112
4, 70464, Note_off_c, 0, 67, 64
4, 70464, Note_on_c, 0, 64, 112
4, 70656, Note_off_c, 0, 64, 64
4, 70656, Note_on_c, 0, 67, 112
4, 71424, Note_off_c, 0, 67, 64
4, 71424, Note_on_c, 0, 69, 112
4, 71616, Note_off_c, 0, 69, 64
4, 71616, Note_on_c, 0, 64, 112
4, 71808, Note_off_c, 0, 64, 64
4, 71808, Note_on_c, 0, 64, 112
4, 72000, Note_off_c, 0, 64, 64
4, 72000, Note_on_c, 0, 64, 112
4, 72192, Note_off_c, 0, 64, 64
4, 72192, Note_on_c, 0, 65, 112
4, 72384, Note_off_c, 0, 65, 64
4, 72384, Note_on_c, 0, 67, 112
4, 72576, Note_off_c, 0, 67, 64
4, 72576, Note_on_c, 0, 65, 112
4, 72768, Note_off_c, 0, 65, 64
4, 72768, Note_on_c, 0, 65, 112
4, 72960, Note_off_c, 0, 65, 64
4, 72960, Note_on_c, 0, 67, 112
4, 73152, Note_off_c, 0, 67, 64
4, 73152, Note_on_c, 0, 62, 112
4, 73344, Note_off_c, 0, 62, 64
4, 73344, Note_on_c, 0, 62, 112
4, 73536, Note_off_c, 0, 62, 64
4, 73536, Note_on_c, 0, 62, 112
4, 73728, Note_off_c, 0, 62, 64
4, 73728, Note_on_c, 0, 64, 112
4, 73920, Note_off_c, 0, 64, 64
4, 73920, Note_on_c, 0, 65, 112
4, 74112, Note_off_c, 0, 65, 64
4, 74112, Note_on_c, 0, 64, 112
4, 74496, Note_off_c, 0, 64, 64
4, 74624, Note_on_c, 0, 64, 112
4, 74752, Note_off_c, 0, 64, 64
4, 74752, Note_on_c, 0, 60, 112
4, 74880, Note_off_c, 0, 60, 64
4, 74880, Note_on_c, 0, 60, 112
4, 75072, Note_off_c, 0, 60, 64
4, 75072, Note_on_c, 0, 60, 112
4, 75264, Note_off_c, 0, 60, 64
4, 75264, Note_on_c, 0, 62, 112
4, 75456, Note_off_c, 0, 62, 64
4, 75456, Note_on_c, 0, 64, 112
4, 75648, Note_off_c, 0, 64, 64
4, 75648, Note_on_c, 0, 62, 112
4, 75840, Note_off_c, 0, 62, 64
4, 75840, Note_on_c, 0, 62, 112
4, 76032, Note_off_c, 0, 62, 64
4, 76032, Note_on_c, 0, 65, 112
4, 76224, Note_off_c, 0, 65, 64
4, 76224, Note_on_c, 0, 59, 112
4, 76416, Note_off_c, 0, 59, 64
4, 76416, Note_on_c, 0, 57, 112
4, 76608, Note_off_c, 0, 57, 64
4, 76608, Note_on_c, 0, 59, 112
4, 76800, Note_off_c, 0, 59, 64
4, 76800, Note_on_c, 0, 64, 112
4, 76992, Note_off_c, 0, 64, 64
4, 76992, Note_on_c, 0, 62, 112
4, 77184, Note_off_c, 0, 62, 64
4, 77184, Note_on_c, 0, 64, 112
4, 77568, Note_off_c, 0, 64, 64
4, 77696, Note_on_c, 0, 65, 112
4, 77824, Note_off_c, 0, 65, 64
4, 77824, Note_on_c, 0, 65, 112
4, 77952, Note_off_c, 0, 65, 64
4, 77952, Note_on_c, 0, 65, 112
4, 78144, Note_off_c, 0, 65, 64
4, 78144, Note_on_c, 0, 65, 112
4, 78336, Note_off_c, 0, 65, 64
4, 78336, Note_on_c, 0, 70, 112
4, 78528, Note_off_c, 0, 70, 64
4, 78528, Note_on_c, 0, 68, 112
4, 78720, Note_off_c, 0, 68, 64
4, 78720, Note_on_c, 0, 66, 112
4, 78816, Note_off_c, 0, 66, 64
4, 78816, Note_on_c, 0, 66, 112
4, 78912, Note_off_c, 0, 66, 64
4, 78912, Note_on_c, 0, 70, 112
4, 79008, Note_off_c, 0, 70, 64
4, 79008, Note_on_c, 0, 66, 112
4, 79104, Note_off_c, 0, 66, 64
4, 79104, Note_on_c, 0, 63, 112
4, 79232, Note_off_c, 0, 63, 64
4, 79232, Note_on_c, 0, 68, 112
4, 79360, Note_off_c, 0, 68, 64
4, 79360, Note_on_c, 0, 63, 112
4, 79488, Note_off_c, 0, 63, 64
4, 79488, Note_on_c, 0, 68, 112
4, 79680, Note_off_c, 0, 68, 64
4, 79680, Note_on_c, 0, 66, 112
4, 79872, Note_off_c, 0, 66, 64
4, 79872, Note_on_c, 0, 65, 112
4, 80640, Note_off_c, 0, 65, 64
4, 80640, Note_on_c, 0, 61, 112
4, 80768, Note_off_c, 0, 61, 64
4, 80768, Note_on_c, 0, 61, 112
4, 80896, Note_off_c, 0, 61, 64
4, 80896, Note_on_c, 0, 61, 112
4, 81024, Note_off_c, 0, 61, 64
4, 81024, Note_on_c, 0, 61, 112
4, 81152, Note_off_c, 0, 61, 64
4, 81152, Note_on_c, 0, 66, 112
4, 81280, Note_off_c, 0, 66, 64
4, 81280, Note_on_c, 0, 65, 112
4, 81408, Note_off_c, 0, 65, 64
4, 81408, Note_on_c, 0, 63, 112
4, 81792, Note_off_c, 0, 63, 64
4, 81792, Note_on_c, 0, 65, 112
4, 81984, Note_off_c, 0, 65, 64
4, 81984, Note_on_c, 0, 66, 112
4, 82176, Note_off_c, 0, 66, 64
4, 82176, Note_on_c, 0, 60, 112
4, 82560, Note_off_c, 0, 60, 64
4, 82560, Note_on_c, 0, 65, 112
4, 82752, Note_off_c, 0, 65, 64
4, 82752, Note_on_c, 0, 63, 112
4, 82944, Note_off_c, 0, 63, 64
4, 82944, Note_on_c, 0, 65, 112
4, 83712, Note_off_c, 0, 65, 64
4, 83712, Note_on_c, 0, 68, 112
4, 83904, Note_off_c, 0, 68, 64
4, 83904, Note_on_c, 0, 65, 112
4, 84096, Note_off_c, 0, 65, 64
4, 84096, Note_on_c, 0, 70, 112
4, 84288, Note_off_c, 0, 70, 64
4, 84288, Note_on_c, 0, 68, 112
4, 84480, Note_off_c, 0, 68, 64
4, 84480, Note_on_c, 0, 66, 112
4, 84672, Note_off_c, 0, 66, 64
4, 84672, Note_on_c, 0, 65, 112
4, 84864, Note_off_c, 0, 65, 64
4, 84864, Note_on_c, 0, 63, 112
4, 85056, Note_off_c, 0, 63, 64
4, 85056, Note_on_c, 0, 61, 112
4, 85248, Note_off_c, 0, 61, 64
4, 85248, Note_on_c, 0, 60, 112
4, 85440, Note_off_c, 0, 60, 64
4, 85440, Note_on_c, 0, 60, 112
4, 85632, Note_off_c, 0, 60, 64
4, 85632, Note_on_c, 0, 65, 112
4, 85824, Note_off_c, 0, 65, 64
4, 85824, Note_on_c, 0, 63, 112
4, 86016, Note_off_c, 0, 63, 64
4, 86016, Note_on_c, 0, 61, 112
4, 86752, Note_on_c, 0, 73, 112
4, 86784, Note_off_c, 0, 61, 64
4, 86944, Note_off_c, 0, 73, 64
4, 86976, Note_on_c, 0, 68, 112
4, 87168, Note_off_c, 0, 68, 64
4, 87168, Note_on_c, 0, 68, 112
4, 87360, Note_off_c, 0, 68, 64
4, 87360, Note_on_c, 0, 68, 112
4, 87552, Note_off_c, 0, 68, 64
4, 87552, Note_on_c, 0, 68, 112
4, 87744, Note_off_c, 0, 68, 64
4, 87744, Note_on_c, 0, 68, 112
4, 87936, Note_off_c, 0, 68, 64
4, 87936, Note_on_c, 0, 68, 112
4, 88128, Note_off_c, 0, 68, 64
4, 88128, Note_on_c, 0, 68, 112
4, 88320, Note_off_c, 0, 68, 64
4, 88320, Note_on_c, 0, 56, 112
4, 88704, Note_off_c, 0, 56, 64
4, 88704, Note_on_c, 0, 68, 112
4, 88896, Note_off_c, 0, 68, 64
4, 88896, Note_on_c, 0, 66, 112
4, 89088, Note_off_c, 0, 66, 64
4, 89088, Note_on_c, 0, 68, 112
4, 90624, Note_off_c, 0, 68, 64
4, 90624, End_track
5, 0, Start_track
5, 0, Control_c, 2, 0, 0
5, 0, Control_c, 2, 0, 0
5, 0, Control_c, 2, 0, 0
5, 0, Control_c, 2, 0, 0
5, 0, Control_c, 2, 0, 0
5, 0, Control_c, 2, 0, 0
5, 0, Control_c, 2, 0, 0
5, 0, Control_c, 2, 0, 0
5, 0, Control_c, 2, 0, 0
5, 0, Control_c, 2, 0, 0
5, 0, Control_c, 2, 0, 0
5, 0, Control_c, 2, 0, 0
5, 0, Control_c, 2, 0, 0
5, 0, Program_c, 2, 45
5, 0, Program_c, 2, 45
5, 0, Program_c, 2, 45
5, 0, Program_c, 2, 45
5, 0, Program_c, 2, 45
5, 0, Program_c, 2, 45
5, 0, Program_c, 2, 45
5, 0, Program_c, 2, 45
5, 0, Program_c, 2, 45
5, 0, Program_c, 2, 45
5, 0, Program_c, 2, 45
5, 0, Program_c, 2, 45
5, 0, Program_c, 2, 45
5, 768, Note_on_c, 2, 84, 67
5, 1536, Note_off_c, 2, 84, 100
5, 1536, Note_on_c, 2, 83, 67
5, 2304, Note_off_c, 2, 83, 100
5, 2304, Note_on_c, 2, 81, 67
5, 3072, Note_off_c, 2, 81, 100
5, 3072, Note_on_c, 2, 79, 67
5, 3840, Note_off_c, 2, 79, 64
5, 3840, Note_on_c, 2, 84, 67
5, 4608, Note_off_c, 2, 84, 64
5, 4608, Note_on_c, 2, 84, 67
5, 5376, Note_off_c, 2, 84, 64
5, 5376, Note_on_c, 2, 79, 67
5, 6144, Note_off_c, 2, 79, 64
5, 6144, Note_on_c, 2, 84, 67
5, 6912, Note_off_c, 2, 84, 64
5, 6912, Note_on_c, 2, 84, 67
5, 7680, Note_off_c, 2, 84, 64
5, 7680, Note_on_c, 2, 84, 67
5, 8448, Note_off_c, 2, 84, 64
5, 8448, Note_on_c, 2, 79, 67
5, 9216, Note_off_c, 2, 79, 64
5, 9216, Note_on_c, 2, 84, 67
5, 9984, Note_off_c, 2, 84, 64
5, 9984, Note_on_c, 2, 45, 67
5, 10176, Note_off_c, 2, 45, 64
5, 10176, Note_on_c, 2, 52, 67
5, 10368, Note_off_c, 2, 52, 64
5, 10368, Note_on_c, 2, 57, 67
5, 10560, Note_off_c, 2, 57, 64
5, 10560, Note_on_c, 2, 60, 67
5, 10752, Note_off_c, 2, 60, 64
5, 10752, Note_on_c, 2, 50, 67
5, 10944, Note_off_c, 2, 50, 64
5, 10944, Note_on_c, 2, 57, 67
5, 11136, Note_off_c, 2, 57, 64
5, 11136, Note_on_c, 2, 60, 67
5, 11328, Note_off_c, 2, 60, 64
5, 11328, Note_on_c, 2, 65, 67
5, 11520, Note_off_c, 2, 65, 64
5, 11520, Note_on_c, 2, 43, 67
5, 11712, Note_off_c, 2, 43, 64
5, 11712, Note_on_c, 2, 50, 67
5, 11904, Note_off_c, 2, 50, 64
5, 11904, Note_on_c, 2, 53, 67
5, 12096, Note_off_c, 2, 53, 64
5, 12096, Note_on_c, 2, 59, 67
5, 12288, Note_off_c, 2, 59, 64
5, 12288, Note_on_c, 2, 48, 67
5, 12480, Note_off_c, 2, 48, 64
5, 12480, Note_on_c, 2, 52, 67
5, 12672, Note_off_c, 2, 52, 64
5, 12672, Note_on_c, 2, 55, 67
5, 12864, Note_off_c, 2, 55, 64
5, 12864, Note_on_c, 2, 60, 67
5, 13056, Note_off_c, 2, 60, 64
5, 13056, Note_on_c, 2, 45, 67
5, 13248, Note_off_c, 2, 45, 64
5, 13248, Note_on_c, 2, 52, 67
5, 13440, Note_off_c, 2, 52, 64
5, 13440, Note_on_c, 2, 57, 67
5, 13632, Note_off_c, 2, 57, 64
5, 13632, Note_on_c, 2, 60, 67
5, 13824, Note_off_c, 2, 60, 64
5, 13824, Note_on_c, 2, 50, 67
5, 14016, Note_off_c, 2, 50, 64
5, 14016, Note_on_c, 2, 57, 67
5, 14208, Note_off_c, 2, 57, 64
5, 14208, Note_on_c, 2, 60, 67
5, 14400, Note_off_c, 2, 60, 64
5, 14400, Note_on_c, 2, 62, 67
5, 14592, Note_off_c, 2, 62, 64
5, 14592, Note_on_c, 2, 43, 67
5, 14784, Note_off_c, 2, 43, 64
5, 14784, Note_on_c, 2, 50, 67
5, 14976, Note_off_c, 2, 50, 64
5, 14976, Note_on_c, 2, 55, 67
5, 15168, Note_off_c, 2, 55, 64
5, 15168, Note_on_c, 2, 59, 67
5, 15360, Note_off_c, 2, 59, 64
5, 15360, Note_on_c, 2, 48, 67
5, 15552, Note_off_c, 2, 48, 64
5, 15552, Note_on_c, 2, 52, 67
5, 15744, Note_off_c, 2, 52, 64
5, 15744, Note_on_c, 2, 55, 67
5, 15936, Note_off_c, 2, 55, 64
5, 15936, Note_on_c, 2, 60, 67
5, 16128, Note_off_c, 2, 60, 64
5, 16128, Note_on_c, 2, 84, 67
5, 16896, Note_off_c, 2, 84, 64
5, 16896, Note_on_c, 2, 84, 67
5, 17664, Note_off_c, 2, 84, 64
5, 17664, Note_on_c, 2, 79, 67
5, 18432, Note_off_c, 2, 79, 64
5, 18432, Note_on_c, 2, 84, 67
5, 19200, Note_off_c, 2, 84, 64
5, 19200, Note_on_c, 2, 84, 67
5, 19968, Note_off_c, 2, 84, 64
5, 19968, Note_on_c, 2, 84, 67
5, 20736, Note_off_c, 2, 84, 64
5, 20736, Note_on_c, 2, 79, 67
5, 21504, Note_off_c, 2, 79, 64
5, 21504, Note_on_c, 2, 84, 67
5, 22272, Note_off_c, 2, 84, 64
5, 22272, Note_on_c, 2, 45, 67
5, 22464, Note_off_c, 2, 45, 64
5, 22464, Note_on_c, 2, 52, 67
5, 22656, Note_off_c, 2, 52, 64
5, 22656, Note_on_c, 2, 57, 67
5, 22848, Note_off_c, 2, 57, 64
5, 22848, Note_on_c, 2, 60, 67
5, 23040, Note_off_c, 2, 60, 64
5, 23040, Note_on_c, 2, 50, 67
5, 23232, Note_off_c, 2, 50, 64
5, 23232, Note_on_c, 2, 57, 67
5, 23424, Note_off_c, 2, 57, 64
5, 23424, Note_on_c, 2, 60, 67
5, 23616, Note_off_c, 2, 60, 64
5, 23616, Note_on_c, 2, 65, 67
5, 23808, Note_off_c, 2, 65, 64
5, 23808, Note_on_c, 2, 43, 67
5, 24000, Note_off_c, 2, 43, 64
5, 24000, Note_on_c, 2, 50, 67
5, 24192, Note_off_c, 2, 50, 64
5, 24192, Note_on_c, 2, 53, 67
5, 24384, Note_off_c, 2, 53, 64
5, 24384, Note_on_c, 2, 59, 67
5, 24576, Note_off_c, 2, 59, 64
5, 24576, Note_on_c, 2, 48, 67
5, 24768, Note_off_c, 2, 48, 64
5, 24768, Note_on_c, 2, 52, 67
5, 24960, Note_off_c, 2, 52, 64
5, 24960, Note_on_c, 2, 55, 67
5, 25152, Note_off_c, 2, 55, 64
5, 25152, Note_on_c, 2, 60, 67
5, 25344, Note_off_c, 2, 60, 64
5, 25344, Note_on_c, 2, 45, 67
5, 25536, Note_off_c, 2, 45, 64
5, 25536, Note_on_c, 2, 52, 67
5, 25728, Note_off_c, 2, 52, 64
5, 25728, Note_on_c, 2, 57, 67
5, 25920, Note_off_c, 2, 57, 64
5, 25920, Note_on_c, 2, 60, 67
5, 26112, Note_off_c, 2, 60, 64
5, 26112, Note_on_c, 2, 50, 67
5, 26304, Note_off_c, 2, 50, 64
5, 26304, Note_on_c, 2, 57, 67
5, 26496, Note_off_c, 2, 57, 64
5, 26496, Note_on_c, 2, 60, 67
5, 26688, Note_off_c, 2, 60, 64
5, 26688, Note_on_c, 2, 62, 67
5, 26880, Note_off_c, 2, 62, 64
5, 26880, Note_on_c, 2, 43, 67
5, 27072, Note_off_c, 2, 43, 64
5, 27072, Note_on_c, 2, 50, 67
5, 27264, Note_off_c, 2, 50, 64
5, 27264, Note_on_c, 2, 55, 67
5, 27456, Note_off_c, 2, 55, 64
5, 27456, Note_on_c, 2, 59, 67
5, 27648, Note_off_c, 2, 59, 64
5, 27648, Note_on_c, 2, 48, 67
5, 27840, Note_off_c, 2, 48, 64
5, 27840, Note_on_c, 2, 52, 67
5, 28032, Note_off_c, 2, 52, 64
5, 28032, Note_on_c, 2, 55, 67
5, 28224, Note_off_c, 2, 55, 64
5, 28224, Note_on_c, 2, 60, 67
5, 28416, Note_off_c, 2, 60, 64
5, 28416, Note_on_c, 2, 46, 67
5, 28608, Note_off_c, 2, 46, 64
5, 28608, Note_on_c, 2, 53, 67
5, 28800, Note_off_c, 2, 53, 64
5, 28800, Note_on_c, 2, 58, 67
5, 28992, Note_off_c, 2, 58, 64
5, 28992, Note_on_c, 2, 61, 67
5, 29184, Note_off_c, 2, 61, 64
5, 29184, Note_on_c, 2, 51, 67
5, 29376, Note_off_c, 2, 51, 64
5, 29376, Note_on_c, 2, 54, 67
5, 29568, Note_off_c, 2, 54, 64
5, 29568, Note_on_c, 2, 58, 67
5, 29760, Note_off_c, 2, 58, 64
5, 29760, Note_on_c, 2, 61, 67
5, 29952, Note_off_c, 2, 61, 64
5, 29952, Note_on_c, 2, 46, 67
5, 30336, Note_off_c, 2, 46, 64
5, 30336, Note_on_c, 2, 48, 67
5, 30528, Note_off_c, 2, 48, 64
5, 30528, Note_on_c, 2, 46, 67
5, 30720, Note_off_c, 2, 46, 64
5, 30720, Note_on_c, 2, 48, 67
5, 31488, Note_off_c, 2, 48, 64
5, 31488, Note_on_c, 2, 46, 67
5, 31680, Note_off_c, 2, 46, 64
5, 31680, Note_on_c, 2, 53, 67
5, 31872, Note_off_c, 2, 53, 64
5, 31872, Note_on_c, 2, 58, 67
5, 32064, Note_off_c, 2, 58, 64
5, 32064, Note_on_c, 2, 61, 67
5, 32256, Note_off_c, 2, 61, 64
5, 32256, Note_on_c, 2, 51, 67
5, 32448, Note_off_c, 2, 51, 64
5, 32448, Note_on_c, 2, 54, 67
5, 32640, Note_off_c, 2, 54, 64
5, 32640, Note_on_c, 2, 58, 67
5, 32832, Note_off_c, 2, 58, 64
5, 32832, Note_on_c, 2, 61, 67
5, 33024, Note_off_c, 2, 61, 64
5, 33024, Note_on_c, 2, 44, 67
5, 33216, Note_off_c, 2, 44, 64
5, 33216, Note_on_c, 2, 51, 67
5, 33408, Note_off_c, 2, 51, 64
5, 33408, Note_on_c, 2, 56, 67
5, 33600, Note_off_c, 2, 56, 64
5, 33600, Note_on_c, 2, 60, 67
5, 33792, Note_off_c, 2, 60, 64
5, 33792, Note_on_c, 2, 49, 67
5, 33984, Note_off_c, 2, 49, 64
5, 33984, Note_on_c, 2, 53, 67
5, 34176, Note_off_c, 2, 53, 64
5, 34176, Note_on_c, 2, 56, 67
5, 34368, Note_off_c, 2, 56, 64
5, 34368, Note_on_c, 2, 61, 67
5, 34560, Note_off_c, 2, 61, 64
5, 34560, Note_on_c, 2, 58, 67
5, 34752, Note_off_c, 2, 58, 64
5, 34752, Note_on_c, 2, 61, 67
5, 34944, Note_off_c, 2, 61, 64
5, 34944, Note_on_c, 2, 60, 67
5, 35136, Note_off_c, 2, 60, 64
5, 35136, Note_on_c, 2, 61, 67
5, 35328, Note_off_c, 2, 61, 64
5, 35328, Note_on_c, 2, 51, 67
5, 35520, Note_off_c, 2, 51, 64
5, 35520, Note_on_c, 2, 61, 67
5, 35712, Note_off_c, 2, 61, 64
5, 35712, Note_on_c, 2, 54, 67
5, 35904, Note_off_c, 2, 54, 64
5, 35904, Note_on_c, 2, 61, 67
5, 36096, Note_off_c, 2, 61, 64
5, 36096, Note_on_c, 2, 56, 67
5, 36288, Note_off_c, 2, 56, 64
5, 36288, Note_on_c, 2, 60, 67
5, 36480, Note_off_c, 2, 60, 64
5, 36480, Note_on_c, 2, 58, 67
5, 36672, Note_off_c, 2, 58, 64
5, 36672, Note_on_c, 2, 60, 67
5, 36864, Note_off_c, 2, 60, 64
5, 36864, Note_on_c, 2, 49, 67
5, 37056, Note_off_c, 2, 49, 64
5, 37056, Note_on_c, 2, 56, 67
5, 37248, Note_off_c, 2, 56, 64
5, 37248, Note_on_c, 2, 53, 67
5, 37440, Note_off_c, 2, 53, 64
5, 37440, Note_on_c, 2, 56, 67
5, 37632, Note_off_c, 2, 56, 64
5, 37632, Note_on_c, 2, 46, 67
5, 37824, Note_on_c, 2, 49, 67
5, 38016, Note_off_c, 2, 49, 64
5, 38016, Note_on_c, 2, 56, 67
5, 38208, Note_off_c, 2, 56, 64
5, 38208, Note_on_c, 2, 53, 67
5, 38400, Note_off_c, 2, 46, 64
5, 38400, Note_off_c, 2, 53, 64
5, 38400, Note_on_c, 2, 39, 67
5, 38592, Note_on_c, 2, 46, 67
5, 38784, Note_off_c, 2, 46, 64
5, 38784, Note_on_c, 2, 55, 67
5, 38976, Note_off_c, 2, 55, 64
5, 38976, Note_on_c, 2, 51, 67
5, 39168, Note_off_c, 2, 39, 64
5, 39168, Note_off_c, 2, 51, 64
5, 39168, Note_on_c, 2, 44, 67
5, 39360, Note_off_c, 2, 44, 64
5, 39360, Note_on_c, 2, 51, 67
5, 39552, Note_off_c, 2, 51, 64
5, 39552, Note_on_c, 2, 54, 67
5, 39744, Note_off_c, 2, 54, 64
5, 39744, Note_on_c, 2, 51, 67
5, 39936, Note_off_c, 2, 51, 64
5, 39936, Note_on_c, 2, 49, 67
5, 40128, Note_off_c, 2, 49, 64
5, 40128, Note_on_c, 2, 51, 67
5, 40320, Note_off_c, 2, 51, 64
5, 40320, Note_on_c, 2, 53, 67
5, 40704, Note_off_c, 2, 53, 64
5, 40704, Note_on_c, 2, 52, 97
5, 40896, Note_off_c, 2, 52, 64
5, 40896, Note_on_c, 2, 55, 97
5, 41088, Note_off_c, 2, 55, 64
5, 41088, Note_on_c, 2, 60, 97
5, 41280, Note_off_c, 2, 60, 64
5, 41280, Note_on_c, 2, 64, 97
5, 41472, Note_off_c, 2, 64, 64
5, 41472, Note_on_c, 2, 48, 97
5, 41664, Note_off_c, 2, 48, 64
5, 41664, Note_on_c, 2, 52, 97
5, 41856, Note_off_c, 2, 52, 64
5, 41856, Note_on_c, 2, 55, 97
5, 42048, Note_off_c, 2, 55, 64
5, 42048, Note_on_c, 2, 60, 97
5, 42240, Note_off_c, 2, 60, 64
5, 42240, Note_on_c, 2, 50, 97
5, 42432, Note_off_c, 2, 50, 64
5, 42432, Note_on_c, 2, 53, 97
5, 42624, Note_off_c, 2, 53, 64
5, 42624, Note_on_c, 2, 57, 97
5, 42816, Note_off_c, 2, 57, 64
5, 42816, Note_on_c, 2, 60, 97
5, 43008, Note_off_c, 2, 60, 64
5, 43008, Note_on_c, 2, 43, 97
5, 43200, Note_off_c, 2, 43, 64
5, 43200, Note_on_c, 2, 50, 97
5, 43392, Note_off_c, 2, 50, 64
5, 43392, Note_on_c, 2, 55, 97
5, 43584, Note_off_c, 2, 55, 64
5, 43584, Note_on_c, 2, 59, 97
5, 43776, Note_off_c, 2, 59, 64
5, 43776, Note_on_c, 2, 52, 97
5, 43968, Note_off_c, 2, 52, 64
5, 43968, Note_on_c, 2, 55, 97
5, 44160, Note_off_c, 2, 55, 64
5, 44160, Note_on_c, 2, 60, 97
5, 44352, Note_off_c, 2, 60, 64
5, 44352, Note_on_c, 2, 64, 97
5, 44544, Note_off_c, 2, 64, 64
5, 44544, Note_on_c, 2, 48, 97
5, 44736, Note_off_c, 2, 48, 64
5, 44736, Note_on_c, 2, 52, 97
5, 44928, Note_off_c, 2, 52, 64
5, 44928, Note_on_c, 2, 55, 97
5, 45120, Note_off_c, 2, 55, 64
5, 45120, Note_on_c, 2, 60, 97
5, 45312, Note_off_c, 2, 60, 64
5, 45312, Note_on_c, 2, 50, 97
5, 45504, Note_off_c, 2, 50, 64
5, 45504, Note_on_c, 2, 53, 97
5, 45696, Note_off_c, 2, 53, 64
5, 45696, Note_on_c, 2, 57, 97
5, 45888, Note_off_c, 2, 57, 64
5, 45888, Note_on_c, 2, 60, 97
5, 46080, Note_off_c, 2, 60, 64
5, 46080, Note_on_c, 2, 43, 97
5, 46272, Note_off_c, 2, 43, 64
5, 46272, Note_on_c, 2, 50, 97
5, 46464, Note_off_c, 2, 50, 64
5, 46464, Note_on_c, 2, 55, 97
5, 46656, Note_off_c, 2, 55, 64
5, 46656, Note_on_c, 2, 59, 97
5, 46848, Note_off_c, 2, 59, 64
5, 46848, Note_on_c, 2, 43, 97
5, 47040, Note_off_c, 2, 43, 64
5, 47040, Note_on_c, 2, 60, 97
5, 47232, Note_off_c, 2, 60, 64
5, 47232, Note_on_c, 2, 52, 97
5, 47424, Note_off_c, 2, 52, 64
5, 47424, Note_on_c, 2, 60, 97
5, 47616, Note_off_c, 2, 60, 64
5, 47616, Note_on_c, 2, 50, 97
5, 47808, Note_off_c, 2, 50, 64
5, 47808, Note_on_c, 2, 53, 97
5, 48000, Note_off_c, 2, 53, 64
5, 48000, Note_on_c, 2, 57, 97
5, 48192, Note_off_c, 2, 57, 64
5, 48192, Note_on_c, 2, 60, 97
5, 48384, Note_off_c, 2, 60, 64
5, 48384, Note_on_c, 2, 43, 97
5, 48576, Note_off_c, 2, 43, 64
5, 48576, Note_on_c, 2, 59, 97
5, 48768, Note_off_c, 2, 59, 64
5, 48768, Note_on_c, 2, 53, 97
5, 48960, Note_off_c, 2, 53, 64
5, 48960, Note_on_c, 2, 59, 97
5, 49152, Note_off_c, 2, 59, 64
5, 49152, Note_on_c, 2, 48, 97
5, 49344, Note_off_c, 2, 48, 64
5, 49344, Note_on_c, 2, 52, 97
5, 49536, Note_off_c, 2, 52, 64
5, 49536, Note_on_c, 2, 55, 97
5, 49728, Note_off_c, 2, 55, 64
5, 49728, Note_on_c, 2, 60, 97
5, 49920, Note_off_c, 2, 60, 64
5, 49920, Note_on_c, 2, 45, 97
5, 50112, Note_off_c, 2, 45, 64
5, 50112, Note_on_c, 2, 48, 97
5, 50304, Note_off_c, 2, 48, 64
5, 50304, Note_on_c, 2, 52, 97
5, 50496, Note_off_c, 2, 52, 64
5, 50496, Note_on_c, 2, 57, 97
5, 50688, Note_off_c, 2, 57, 64
5, 50688, Note_on_c, 2, 50, 97
5, 50880, Note_off_c, 2, 50, 64
5, 50880, Note_on_c, 2, 57, 97
5, 51072, Note_off_c, 2, 57, 64
5, 51072, Note_on_c, 2, 53, 97
5, 51264, Note_off_c, 2, 53, 64
5, 51264, Note_on_c, 2, 57, 97
5, 51456, Note_off_c, 2, 57, 64
5, 51456, Note_on_c, 2, 43, 97
5, 51648, Note_off_c, 2, 43, 64
5, 51648, Note_on_c, 2, 55, 97
5, 51840, Note_off_c, 2, 55, 64
5, 51840, Note_on_c, 2, 53, 97
5, 52032, Note_off_c, 2, 53, 64
5, 52032, Note_on_c, 2, 55, 97
5, 52224, Note_off_c, 2, 55, 64
5, 52224, Note_on_c, 2, 52, 67
5, 52416, Note_off_c, 2, 52, 64
5, 52416, Note_on_c, 2, 55, 67
5, 52608, Note_off_c, 2, 55, 64
5, 52608, Note_on_c, 2, 52, 67
5, 52800, Note_off_c, 2, 52, 64
5, 52800, Note_on_c, 2, 48, 67
5, 52992, Note_off_c, 2, 48, 64
5, 52992, Note_on_c, 2, 49, 67
5, 53184, Note_off_c, 2, 49, 64
5, 53184, Note_on_c, 2, 53, 67
5, 53376, Note_off_c, 2, 53, 64
5, 53376, Note_on_c, 2, 58, 67
5, 53568, Note_off_c, 2, 58, 64
5, 53568, Note_on_c, 2, 61, 67
5, 53760, Note_off_c, 2, 61, 64
5, 53760, Note_on_c, 2, 51, 67
5, 53952, Note_off_c, 2, 51, 64
5, 53952, Note_on_c, 2, 54, 67
5, 54144, Note_off_c, 2, 54, 64
5, 54144, Note_on_c, 2, 58, 67
5, 54336, Note_off_c, 2, 58, 64
5, 54336, Note_on_c, 2, 61, 67
5, 54528, Note_off_c, 2, 61, 64
5, 54528, Note_on_c, 2, 44, 67
5, 54720, Note_off_c, 2, 44, 64
5, 54720, Note_on_c, 2, 51, 67
5, 54912, Note_off_c, 2, 51, 64
5, 54912, Note_on_c, 2, 56, 67
5, 55104, Note_off_c, 2, 56, 64
5, 55104, Note_on_c, 2, 60, 67
5, 55296, Note_off_c, 2, 60, 64
5, 55296, Note_on_c, 2, 49, 67
5, 55488, Note_off_c, 2, 49, 64
5, 55488, Note_on_c, 2, 53, 67
5, 55680, Note_off_c, 2, 53, 64
5, 55680, Note_on_c, 2, 56, 67
5, 55872, Note_off_c, 2, 56, 64
5, 55872, Note_on_c, 2, 61, 67
5, 56064, Note_off_c, 2, 61, 64
5, 56064, Note_on_c, 2, 49, 67
5, 56256, Note_off_c, 2, 49, 64
5, 56256, Note_on_c, 2, 53, 67
5, 56448, Note_off_c, 2, 53, 64
5, 56448, Note_on_c, 2, 58, 67
5, 56640, Note_off_c, 2, 58, 64
5, 56640, Note_on_c, 2, 61, 67
5, 56832, Note_off_c, 2, 61, 64
5, 56832, Note_on_c, 2, 51, 67
5, 57024, Note_off_c, 2, 51, 64
5, 57024, Note_on_c, 2, 54, 67
5, 57216, Note_off_c, 2, 54, 64
5, 57216, Note_on_c, 2, 58, 67
5, 57408, Note_off_c, 2, 58, 64
5, 57408, Note_on_c, 2, 61, 67
5, 57600, Note_off_c, 2, 61, 64
5, 57600, Note_on_c, 2, 44, 67
5, 57792, Note_off_c, 2, 44, 64
5, 57792, Note_on_c, 2, 51, 67
5, 57984, Note_off_c, 2, 51, 64
5, 57984, Note_on_c, 2, 56, 67
5, 58176, Note_off_c, 2, 56, 64
5, 58176, Note_on_c, 2, 60, 67
5, 58368, Note_off_c, 2, 60, 64
5, 58368, Note_on_c, 2, 49, 67
5, 58560, Note_off_c, 2, 49, 64
5, 58560, Note_on_c, 2, 53, 67
5, 58752, Note_off_c, 2, 53, 64
5, 58752, Note_on_c, 2, 56, 67
5, 58944, Note_off_c, 2, 56, 64
5, 58944, Note_on_c, 2, 61, 67
5, 59136, Note_off_c, 2, 61, 64
5, 59136, Note_on_c, 2, 46, 67
5, 59328, Note_off_c, 2, 46, 64
5, 59328, Note_on_c, 2, 61, 67
5, 59520, Note_off_c, 2, 61, 64
5, 59520, Note_on_c, 2, 53, 67
5, 59712, Note_off_c, 2, 53, 64
5, 59712, Note_on_c, 2, 61, 67
5, 59904, Note_off_c, 2, 61, 64
5, 59904, Note_on_c, 2, 51, 67
5, 60096, Note_off_c, 2, 51, 64
5, 60096, Note_on_c, 2, 54, 67
5, 60288, Note_off_c, 2, 54, 64
5, 60288, Note_on_c, 2, 58, 67
5, 60480, Note_off_c, 2, 58, 64
5, 60480, Note_on_c, 2, 61, 67
5, 60672, Note_off_c, 2, 61, 64
5, 60672, Note_on_c, 2, 44, 67
5, 60864, Note_off_c, 2, 44, 64
5, 60864, Note_on_c, 2, 60, 67
5, 61056, Note_off_c, 2, 60, 64
5, 61056, Note_on_c, 2, 54, 67
5, 61248, Note_off_c, 2, 54, 64
5, 61248, Note_on_c, 2, 60, 67
5, 61440, Note_off_c, 2, 60, 64
5, 61440, Note_on_c, 2, 49, 67
5, 61632, Note_off_c, 2, 49, 64
5, 61632, Note_on_c, 2, 53, 67
5, 61824, Note_off_c, 2, 53, 64
5, 61824, Note_on_c, 2, 56, 67
5, 62016, Note_off_c, 2, 56, 64
5, 62016, Note_on_c, 2, 61, 67
5, 62208, Note_off_c, 2, 61, 64
5, 62208, Note_on_c, 2, 46, 67
5, 62400, Note_off_c, 2, 46, 64
5, 62400, Note_on_c, 2, 53, 67
5, 62592, Note_off_c, 2, 53, 64
5, 62592, Note_on_c, 2, 49, 67
5, 62784, Note_off_c, 2, 49, 64
5, 62784, Note_on_c, 2, 53, 67
5, 62976, Note_off_c, 2, 53, 64
5, 62976, Note_on_c, 2, 39, 67
5, 63168, Note_off_c, 2, 39, 64
5, 63168, Note_on_c, 2, 46, 67
5, 63360, Note_off_c, 2, 46, 64
5, 63360, Note_on_c, 2, 49, 67
5, 63552, Note_off_c, 2, 49, 64
5, 63552, Note_on_c, 2, 54, 67
5, 63744, Note_off_c, 2, 54, 64
5, 63744, Note_on_c, 2, 44, 67
5, 63936, Note_off_c, 2, 44, 64
5, 63936, Note_on_c, 2, 56, 67
5, 64128, Note_off_c, 2, 56, 64
5, 64128, Note_on_c, 2, 54, 67
5, 64320, Note_off_c, 2, 54, 64
5, 64320, Note_on_c, 2, 56, 67
5, 64512, Note_off_c, 2, 56, 64
5, 64512, Note_on_c, 2, 49, 67
5, 64704, Note_off_c, 2, 49, 64
5, 64704, Note_on_c, 2, 53, 67
5, 64896, Note_off_c, 2, 53, 64
5, 64896, Note_on_c, 2, 56, 67
5, 65088, Note_off_c, 2, 56, 64
5, 65088, Note_on_c, 2, 53, 67
5, 65280, Note_off_c, 2, 53, 64
5, 65280, Note_on_c, 2, 52, 97
5, 65472, Note_off_c, 2, 52, 64
5, 65472, Note_on_c, 2, 55, 97
5, 65664, Note_off_c, 2, 55, 64
5, 65664, Note_on_c, 2, 60, 97
5, 65856, Note_off_c, 2, 60, 64
5, 65856, Note_on_c, 2, 64, 97
5, 66048, Note_off_c, 2, 64, 64
5, 66048, Note_on_c, 2, 48, 97
5, 66240, Note_off_c, 2, 48, 64
5, 66240, Note_on_c, 2, 52, 97
5, 66432, Note_off_c, 2, 52, 64
5, 66432, Note_on_c, 2, 55, 97
5, 66624, Note_off_c, 2, 55, 64
5, 66624, Note_on_c, 2, 60, 97
5, 66816, Note_off_c, 2, 60, 64
5, 66816, Note_on_c, 2, 50, 97
5, 67008, Note_off_c, 2, 50, 64
5, 67008, Note_on_c, 2, 53, 97
5, 67200, Note_off_c, 2, 53, 64
5, 67200, Note_on_c, 2, 57, 97
5, 67392, Note_off_c, 2, 57, 64
5, 67392, Note_on_c, 2, 60, 97
5, 67584, Note_off_c, 2, 60, 64
5, 67584, Note_on_c, 2, 43, 97
5, 67776, Note_off_c, 2, 43, 64
5, 67776, Note_on_c, 2, 50, 97
5, 67968, Note_off_c, 2, 50, 64
5, 67968, Note_on_c, 2, 55, 97
5, 68160, Note_off_c, 2, 55, 64
5, 68160, Note_on_c, 2, 59, 97
5, 68352, Note_off_c, 2, 59, 64
5, 68352, Note_on_c, 2, 52, 97
5, 68544, Note_off_c, 2, 52, 64
5, 68544, Note_on_c, 2, 55, 97
5, 68736, Note_off_c, 2, 55, 64
5, 68736, Note_on_c, 2, 60, 97
5, 68928, Note_off_c, 2, 60, 64
5, 68928, Note_on_c, 2, 64, 97
5, 69120, Note_off_c, 2, 64, 64
5, 69120, Note_on_c, 2, 48, 97
5, 69312, Note_off_c, 2, 48, 64
5, 69312, Note_on_c, 2, 52, 97
5, 69504, Note_off_c, 2, 52, 64
5, 69504, Note_on_c, 2, 55, 97
5, 69696, Note_off_c, 2, 55, 64
5, 69696, Note_on_c, 2, 60, 97
5, 69888, Note_off_c, 2, 60, 64
5, 69888, Note_on_c, 2, 50, 97
5, 70080, Note_off_c, 2, 50, 64
5, 70080, Note_on_c, 2, 53, 97
5, 70272, Note_off_c, 2, 53, 64
5, 70272, Note_on_c, 2, 57, 97
5, 70464, Note_off_c, 2, 57, 64
5, 70464, Note_on_c, 2, 60, 97
5, 70656, Note_off_c, 2, 60, 64
5, 70656, Note_on_c, 2, 43, 97
5, 70848, Note_off_c, 2, 43, 64
5, 70848, Note_on_c, 2, 50, 97
5, 71040, Note_off_c, 2, 50, 64
5, 71040, Note_on_c, 2, 55, 97
5, 71232, Note_off_c, 2, 55, 64
5, 71232, Note_on_c, 2, 59, 97
5, 71424, Note_off_c, 2, 59, 64
5, 71424, Note_on_c, 2, 43, 97
5, 71616, Note_off_c, 2, 43, 64
5, 71616, Note_on_c, 2, 60, 97
5, 71808, Note_off_c, 2, 60, 64
5, 71808, Note_on_c, 2, 52, 97
5, 72000, Note_off_c, 2, 52, 64
5, 72000, Note_on_c, 2, 60, 97
5, 72192, Note_off_c, 2, 60, 64
5, 72192, Note_on_c, 2, 50, 97
5, 72384, Note_off_c, 2, 50, 64
5, 72384, Note_on_c, 2, 53, 97
5, 72576, Note_off_c, 2, 53, 64
5, 72576, Note_on_c, 2, 57, 97
5, 72768, Note_off_c, 2, 57, 64
5, 72768, Note_on_c, 2, 60, 97
5, 72960, Note_off_c, 2, 60, 64
5, 72960, Note_on_c, 2, 43, 97
5, 73152, Note_off_c, 2, 43, 64
5, 73152, Note_on_c, 2, 59, 97
5, 73344, Note_off_c, 2, 59, 64
5, 73344, Note_on_c, 2, 53, 97
5, 73536, Note_off_c, 2, 53, 64
5, 73536, Note_on_c, 2, 59, 97
5, 73728, Note_off_c, 2, 59, 64
5, 73728, Note_on_c, 2, 48, 97
5, 73920, Note_off_c, 2, 48, 64
5, 73920, Note_on_c, 2, 52, 97
5, 74112, Note_off_c, 2, 52, 64
5, 74112, Note_on_c, 2, 55, 97
5, 74304, Note_off_c, 2, 55, 64
5, 74304, Note_on_c, 2, 60, 97
5, 74496, Note_off_c, 2, 60, 64
5, 74496, Note_on_c, 2, 45, 97
5, 74688, Note_off_c, 2, 45, 64
5, 74688, Note_on_c, 2, 48, 97
5, 74880, Note_off_c, 2, 48, 64
5, 74880, Note_on_c, 2, 52, 97
5, 75072, Note_off_c, 2, 52, 64
5, 75072, Note_on_c, 2, 57, 97
5, 75264, Note_off_c, 2, 57, 64
5, 75264, Note_on_c, 2, 50, 97
5, 75456, Note_off_c, 2, 50, 64
5, 75456, Note_on_c, 2, 57, 97
5, 75648, Note_off_c, 2, 57, 64
5, 75648, Note_on_c, 2, 53, 97
5, 75840, Note_off_c, 2, 53, 64
5, 75840, Note_on_c, 2, 57, 97
5, 76032, Note_off_c, 2, 57, 64
5, 76032, Note_on_c, 2, 43, 97
5, 76224, Note_off_c, 2, 43, 64
5, 76224, Note_on_c, 2, 55, 97
5, 76416, Note_off_c, 2, 55, 64
5, 76416, Note_on_c, 2, 53, 97
5, 76608, Note_off_c, 2, 53, 64
5, 76608, Note_on_c, 2, 55, 97
5, 76800, Note_off_c, 2, 55, 64
5, 76800, Note_on_c, 2, 48, 67
5, 76992, Note_off_c, 2, 48, 64
5, 76992, Note_on_c, 2, 47, 67
5, 77184, Note_off_c, 2, 47, 64
5, 77184, Note_on_c, 2, 48, 67
5, 77568, Note_off_c, 2, 48, 64
5, 77568, Note_on_c, 2, 49, 67
5, 77760, Note_off_c, 2, 49, 64
5, 77760, Note_on_c, 2, 53, 67
5, 77952, Note_off_c, 2, 53, 64
5, 77952, Note_on_c, 2, 58, 67
5, 78144, Note_off_c, 2, 58, 64
5, 78144, Note_on_c, 2, 61, 67
5, 78336, Note_off_c, 2, 61, 64
5, 78336, Note_on_c, 2, 51, 67
5, 78528, Note_off_c, 2, 51, 64
5, 78528, Note_on_c, 2, 54, 67
5, 78720, Note_off_c, 2, 54, 64
5, 78720, Note_on_c, 2, 58, 67
5, 78912, Note_off_c, 2, 58, 64
5, 78912, Note_on_c, 2, 61, 67
5, 79104, Note_off_c, 2, 61, 64
5, 79104, Note_on_c, 2, 44, 67
5, 79296, Note_off_c, 2, 44, 64
5, 79296, Note_on_c, 2, 51, 67
5, 79488, Note_off_c, 2, 51, 64
5, 79488, Note_on_c, 2, 56, 67
5, 79680, Note_off_c, 2, 56, 64
5, 79680, Note_on_c, 2, 60, 67
5, 79872, Note_off_c, 2, 60, 64
5, 79872, Note_on_c, 2, 49, 67
5, 80064, Note_off_c, 2, 49, 64
5, 80064, Note_on_c, 2, 53, 67
5, 80256, Note_off_c, 2, 53, 64
5, 80256, Note_on_c, 2, 56, 67
5, 80448, Note_off_c, 2, 56, 64
5, 80448, Note_on_c, 2, 61, 67
5, 80640, Note_off_c, 2, 61, 64
5, 80640, Note_on_c, 2, 46, 67
5, 80832, Note_off_c, 2, 46, 64
5, 80832, Note_on_c, 2, 49, 67
5, 81024, Note_off_c, 2, 49, 64
5, 81024, Note_on_c, 2, 53, 67
5, 81216, Note_off_c, 2, 53, 64
5, 81216, Note_on_c, 2, 58, 67
5, 81408, Note_off_c, 2, 58, 64
5, 81408, Note_on_c, 2, 39, 67
5, 81600, Note_off_c, 2, 39, 64
5, 81600, Note_on_c, 2, 46, 67
5, 81792, Note_off_c, 2, 46, 64
5, 81792, Note_on_c, 2, 49, 67
5, 81984, Note_off_c, 2, 49, 64
5, 81984, Note_on_c, 2, 54, 67
5, 82176, Note_off_c, 2, 54, 64
5, 82176, Note_on_c, 2, 44, 67
5, 82368, Note_off_c, 2, 44, 64
5, 82368, Note_on_c, 2, 51, 67
5, 82560, Note_off_c, 2, 51, 64
5, 82560, Note_on_c, 2, 54, 67
5, 82752, Note_off_c, 2, 54, 64
5, 82752, Note_on_c, 2, 54, 67
5, 82944, Note_off_c, 2, 54, 64
5, 82944, Note_on_c, 2, 49, 67
5, 83136, Note_off_c, 2, 49, 64
5, 83136, Note_on_c, 2, 53, 67
5, 83328, Note_off_c, 2, 53, 64
5, 83328, Note_on_c, 2, 56, 67
5, 83520, Note_off_c, 2, 56, 64
5, 83520, Note_on_c, 2, 61, 67
5, 83712, Note_off_c, 2, 61, 64
5, 83712, Note_on_c, 2, 49, 67
5, 83904, Note_off_c, 2, 49, 64
5, 83904, Note_on_c, 2, 53, 67
5, 84096, Note_off_c, 2, 53, 64
5, 84096, Note_on_c, 2, 58, 67
5, 84288, Note_off_c, 2, 58, 64
5, 84288, Note_on_c, 2, 61, 67
5, 84480, Note_off_c, 2, 61, 64
5, 84480, Note_on_c, 2, 51, 67
5, 84672, Note_off_c, 2, 51, 64
5, 84672, Note_on_c, 2, 61, 67
5, 84864, Note_off_c, 2, 61, 64
5, 84864, Note_on_c, 2, 58, 67
5, 85056, Note_off_c, 2, 58, 64
5, 85056, Note_on_c, 2, 54, 67
5, 85248, Note_off_c, 2, 54, 64
5, 85248, Note_on_c, 2, 44, 67
5, 85440, Note_off_c, 2, 44, 64
5, 85440, Note_on_c, 2, 51, 67
5, 85632, Note_off_c, 2, 51, 64
5, 85632, Note_on_c, 2, 54, 67
5, 85824, Note_off_c, 2, 54, 64
5, 85824, Note_on_c, 2, 56, 67
5, 86016, Note_off_c, 2, 56, 64
5, 86016, Note_on_c, 2, 49, 67
5, 86208, Note_off_c, 2, 49, 64
5, 86208, Note_on_c, 2, 56, 67
5, 86400, Note_off_c, 2, 56, 64
5, 86400, Note_on_c, 2, 49, 67
5, 86784, Note_off_c, 2, 49, 64
5, 86784, Note_on_c, 2, 49, 67
5, 86976, Note_off_c, 2, 49, 64
5, 86976, Note_on_c, 2, 53, 67
5, 87168, Note_off_c, 2, 53, 64
5, 87168, Note_on_c, 2, 56, 67
5, 87360, Note_off_c, 2, 56, 64
5, 87360, Note_on_c, 2, 61, 67
5, 87552, Note_off_c, 2, 61, 64
5, 87552, Note_on_c, 2, 49, 67
5, 87744, Note_off_c, 2, 49, 64
5, 87744, Note_on_c, 2, 53, 67
5, 87936, Note_off_c, 2, 53, 64
5, 87936, Note_on_c, 2, 56, 67
5, 88128, Note_off_c, 2, 56, 64
5, 88128, Note_on_c, 2, 61, 67
5, 88320, Note_off_c, 2, 61, 64
5, 88320, Note_on_c, 2, 56, 67
5, 88512, Note_off_c, 2, 56, 64
5, 88512, Note_on_c, 2, 63, 67
5, 88704, Note_off_c, 2, 63, 64
5, 88704, Note_on_c, 2, 54, 67
5, 88896, Note_off_c, 2, 54, 64
5, 88896, Note_on_c, 2, 68, 67
5, 89088, Note_off_c, 2, 68, 64
5, 89088, Note_on_c, 2, 49, 67
5, 90624, Note_off_c, 2, 49, 64
5, 90624, End_track
6, 0, Start_track
6, 0, Control_c, 3, 0, 0
6, 0, Control_c, 3, 0, 0
6, 0, Control_c, 3, 0, 0
6, 0, Control_c, 3, 0, 0
6, 0, Control_c, 3, 0, 0
6, 0, Control_c, 3, 0, 0
6, 0, Control_c, 3, 0, 0
6, 0, Control_c, 3, 0, 0
6, 0, Control_c, 3, 0, 0
6, 0, Control_c, 3, 0, 0
6, 0, Control_c, 3, 0, 0
6, 0, Control_c, 3, 0, 0
6, 0, Control_c, 3, 0, 0
6, 0, Program_c, 3, 5
6, 0, Program_c, 3, 5
6, 0, Program_c, 3, 5
6, 0, Program_c, 3, 5
6, 0, Program_c, 3, 5
6, 0, Program_c, 3, 5
6, 0, Program_c, 3, 5
6, 0, Program_c, 3, 5
6, 0, Program_c, 3, 5
6, 0, Program_c, 3, 5
6, 0, Program_c, 3, 5
6, 0, Program_c, 3, 5
6, 0, Program_c, 3, 5
6, 192, Program_c, 3, 1
6, 768, Note_on_c, 3, 96, 67
6, 960, Note_off_c, 3, 96, 64
6, 960, Note_on_c, 3, 91, 67
6, 1152, Note_off_c, 3, 91, 64
6, 1152, Note_on_c, 3, 88, 67
6, 1344, Note_off_c, 3, 88, 64
6, 1344, Note_on_c, 3, 84, 67
6, 1536, Note_off_c, 3, 84, 64
6, 1536, Note_on_c, 3, 96, 67
6, 1728, Note_off_c, 3, 96, 64
6, 1728, Note_on_c, 3, 91, 67
6, 1920, Note_off_c, 3, 91, 64
6, 1920, Note_on_c, 3, 88, 67
6, 2112, Note_off_c, 3, 88, 64
6, 2112, Note_on_c, 3, 84, 67
6, 2304, Note_off_c, 3, 84, 64
6, 2304, Note_on_c, 3, 96, 67
6, 2496, Note_off_c, 3, 96, 64
6, 2496, Note_on_c, 3, 91, 67
6, 2688, Note_off_c, 3, 91, 64
6, 2688, Note_on_c, 3, 88, 67
6, 2880, Note_off_c, 3, 88, 64
6, 2880, Note_on_c, 3, 84, 67
6, 3072, Note_off_c, 3, 84, 64
6, 3072, Note_on_c, 3, 96, 67
6, 3264, Note_off_c, 3, 96, 64
6, 3264, Note_on_c, 3, 91, 67
6, 3456, Note_off_c, 3, 91, 64
6, 3456, Note_on_c, 3, 88, 67
6, 3648, Note_off_c, 3, 88, 64
6, 3648, Note_on_c, 3, 84, 67
6, 3840, Note_off_c, 3, 84, 64
6, 3840, Note_on_c, 3, 96, 67
6, 4032, Note_off_c, 3, 96, 64
6, 4032, Note_on_c, 3, 91, 67
6, 4224, Note_off_c, 3, 91, 64
6, 4224, Note_on_c, 3, 88, 67
6, 4416, Note_off_c, 3, 88, 64
6, 4416, Note_on_c, 3, 84, 67
6, 4608, Note_off_c, 3, 84, 64
6, 4608, Note_on_c, 3, 96, 67
6, 4800, Note_off_c, 3, 96, 64
6, 4800, Note_on_c, 3, 91, 67
6, 4992, Note_off_c, 3, 91, 64
6, 4992, Note_on_c, 3, 88, 67
6, 5184, Note_off_c, 3, 88, 64
6, 5184, Note_on_c, 3, 84, 67
6, 5376, Note_off_c, 3, 84, 64
6, 5376, Note_on_c, 3, 95, 67
6, 5568, Note_off_c, 3, 95, 64
6, 5568, Note_on_c, 3, 91, 67
6, 5760, Note_off_c, 3, 91, 64
6, 5760, Note_on_c, 3, 89, 67
6, 5952, Note_off_c, 3, 89, 64
6, 5952, Note_on_c, 3, 83, 67
6, 6144, Note_off_c, 3, 83, 64
6, 6144, Note_on_c, 3, 96, 67
6, 6336, Note_off_c, 3, 96, 64
6, 6336, Note_on_c, 3, 91, 67
6, 6528, Note_off_c, 3, 91, 64
6, 6528, Note_on_c, 3, 88, 67
6, 6720, Note_on_c, 3, 84, 67
6, 6724, Note_off_c, 3, 88, 64
6, 6912, Note_off_c, 3, 84, 64
6, 6912, Note_on_c, 3, 96, 67
6, 7104, Note_off_c, 3, 96, 64
6, 7104, Note_on_c, 3, 91, 67
6, 7296, Note_off_c, 3, 91, 64
6, 7296, Note_on_c, 3, 88, 67
6, 7488, Note_off_c, 3, 88, 64
6, 7488, Note_on_c, 3, 84, 67
6, 7680, Note_off_c, 3, 84, 64
6, 7680, Note_on_c, 3, 96, 67
6, 7872, Note_off_c, 3, 96, 64
6, 7872, Note_on_c, 3, 91, 67
6, 8064, Note_off_c, 3, 91, 64
6, 8064, Note_on_c, 3, 89, 67
6, 8256, Note_off_c, 3, 89, 64
6, 8256, Note_on_c, 3, 83, 67
6, 8448, Note_off_c, 3, 83, 64
6, 8448, Note_on_c, 3, 95, 67
6, 8640, Note_off_c, 3, 95, 64
6, 8640, Note_on_c, 3, 91, 67
6, 8832, Note_off_c, 3, 91, 64
6, 8832, Note_on_c, 3, 89, 67
6, 9024, Note_off_c, 3, 89, 64
6, 9024, Note_on_c, 3, 83, 67
6, 9216, Note_off_c, 3, 83, 64
6, 9216, Note_on_c, 3, 96, 67
6, 9408, Note_off_c, 3, 96, 64
6, 9408, Note_on_c, 3, 91, 67
6, 9600, Note_off_c, 3, 91, 64
6, 9600, Note_on_c, 3, 88, 67
6, 9792, Note_off_c, 3, 88, 64
6, 9792, Note_on_c, 3, 84, 67
6, 9984, Note_off_c, 3, 84, 64
6, 9984, Note_on_c, 3, 84, 67
6, 10176, Note_on_c, 3, 81, 67
6, 10368, Note_off_c, 3, 81, 64
6, 10368, Note_on_c, 3, 76, 67
6, 10560, Note_off_c, 3, 76, 64
6, 10560, Note_on_c, 3, 72, 67
6, 10752, Note_off_c, 3, 84, 64
6, 10752, Note_off_c, 3, 72, 64
6, 10752, Note_on_c, 3, 84, 67
6, 10944, Note_on_c, 3, 81, 67
6, 11136, Note_off_c, 3, 81, 64
6, 11136, Note_on_c, 3, 76, 67
6, 11328, Note_off_c, 3, 76, 64
6, 11328, Note_on_c, 3, 72, 67
6, 11520, Note_off_c, 3, 84, 64
6, 11520, Note_off_c, 3, 72, 64
6, 11520, Note_on_c, 3, 83, 67
6, 11712, Note_on_c, 3, 79, 67
6, 11904, Note_off_c, 3, 79, 64
6, 11904, Note_on_c, 3, 77, 67
6, 12096, Note_off_c, 3, 77, 64
6, 12096, Note_on_c, 3, 71, 67
6, 12288, Note_off_c, 3, 83, 64
6, 12288, Note_off_c, 3, 71, 64
6, 12288, Note_on_c, 3, 83, 67
6, 12480, Note_on_c, 3, 79, 67
6, 12672, Note_off_c, 3, 79, 64
6, 12672, Note_on_c, 3, 77, 67
6, 12864, Note_off_c, 3, 77, 64
6, 12864, Note_on_c, 3, 71, 67
6, 13056, Note_off_c, 3, 83, 64
6, 13056, Note_off_c, 3, 71, 64
6, 13056, Note_on_c, 3, 81, 67
6, 13248, Note_on_c, 3, 76, 67
6, 13440, Note_off_c, 3, 76, 64
6, 13440, Note_on_c, 3, 72, 67
6, 13632, Note_off_c, 3, 72, 64
6, 13632, Note_on_c, 3, 69, 67
6, 13824, Note_off_c, 3, 81, 64
6, 13824, Note_off_c, 3, 69, 64
6, 13824, Note_on_c, 3, 81, 67
6, 14016, Note_on_c, 3, 77, 67
6, 14208, Note_off_c, 3, 77, 64
6, 14208, Note_on_c, 3, 72, 67
6, 14400, Note_off_c, 3, 72, 64
6, 14400, Note_on_c, 3, 69, 67
6, 14592, Note_off_c, 3, 81, 64
6, 14592, Note_off_c, 3, 69, 64
6, 14592, Note_on_c, 3, 79, 67
6, 14784, Note_on_c, 3, 74, 67
6, 14976, Note_off_c, 3, 74, 64
6, 14976, Note_on_c, 3, 71, 67
6, 15168, Note_off_c, 3, 71, 64
6, 15168, Note_on_c, 3, 67, 67
6, 15360, Note_off_c, 3, 79, 64
6, 15360, Note_off_c, 3, 67, 64
6, 15360, Note_on_c, 3, 76, 67
6, 15552, Note_on_c, 3, 72, 67
6, 15744, Note_off_c, 3, 72, 64
6, 15744, Note_on_c, 3, 67, 67
6, 15936, Note_off_c, 3, 67, 64
6, 15936, Note_on_c, 3, 64, 67
6, 16128, Note_off_c, 3, 76, 64
6, 16128, Note_on_c, 3, 96, 67
6, 16128, Note_off_c, 3, 64, 64
6, 16320, Note_off_c, 3, 96, 64
6, 16320, Note_on_c, 3, 91, 67
6, 16512, Note_off_c, 3, 91, 64
6, 16512, Note_on_c, 3, 88, 67
6, 16704, Note_off_c, 3, 88, 64
6, 16704, Note_on_c, 3, 84, 67
6, 16896, Note_off_c, 3, 84, 64
6, 16896, Note_on_c, 3, 96, 67
6, 17088, Note_off_c, 3, 96, 64
6, 17088, Note_on_c, 3, 91, 67
6, 17280, Note_off_c, 3, 91, 64
6, 17280, Note_on_c, 3, 88, 67
6, 17472, Note_off_c, 3, 88, 64
6, 17472, Note_on_c, 3, 84, 67
6, 17664, Note_off_c, 3, 84, 64
6, 17664, Note_on_c, 3, 95, 67
6, 17856, Note_off_c, 3, 95, 64
6, 17856, Note_on_c, 3, 91, 67
6, 18048, Note_off_c, 3, 91, 64
6, 18048, Note_on_c, 3, 89, 67
6, 18240, Note_off_c, 3, 89, 64
6, 18240, Note_on_c, 3, 83, 67
6, 18432, Note_off_c, 3, 83, 64
6, 18432, Note_on_c, 3, 96, 67
6, 18624, Note_off_c, 3, 96, 64
6, 18624, Note_on_c, 3, 91, 67
6, 18816, Note_off_c, 3, 91, 64
6, 18816, Note_on_c, 3, 88, 67
6, 19008, Note_off_c, 3, 88, 64
6, 19008, Note_on_c, 3, 84, 67
6, 19200, Note_off_c, 3, 84, 64
6, 19200, Note_on_c, 3, 96, 67
6, 19392, Note_off_c, 3, 96, 64
6, 19392, Note_on_c, 3, 91, 67
6, 19584, Note_off_c, 3, 91, 64
6, 19584, Note_on_c, 3, 88, 67
6, 19776, Note_off_c, 3, 88, 64
6, 19776, Note_on_c, 3, 84, 67
6, 19968, Note_off_c, 3, 84, 64
6, 19968, Note_on_c, 3, 96, 67
6, 20160, Note_off_c, 3, 96, 64
6, 20160, Note_on_c, 3, 91, 67
6, 20352, Note_off_c, 3, 91, 64
6, 20352, Note_on_c, 3, 89, 67
6, 20544, Note_off_c, 3, 89, 64
6, 20544, Note_on_c, 3, 83, 67
6, 20736, Note_off_c, 3, 83, 64
6, 20736, Note_on_c, 3, 95, 67
6, 20928, Note_off_c, 3, 95, 64
6, 20928, Note_on_c, 3, 91, 67
6, 21120, Note_off_c, 3, 91, 64
6, 21120, Note_on_c, 3, 89, 67
6, 21312, Note_off_c, 3, 89, 64
6, 21312, Note_on_c, 3, 83, 67
6, 21504, Note_off_c, 3, 83, 64
6, 21504, Note_on_c, 3, 96, 67
6, 21696, Note_off_c, 3, 96, 64
6, 21696, Note_on_c, 3, 91, 67
6, 21888, Note_off_c, 3, 91, 64
6, 21888, Note_on_c, 3, 88, 67
6, 22080, Note_off_c, 3, 88, 64
6, 22080, Note_on_c, 3, 84, 67
6, 22272, Note_off_c, 3, 84, 64
6, 22272, Note_on_c, 3, 84, 67
6, 22464, Note_on_c, 3, 81, 67
6, 22656, Note_off_c, 3, 81, 64
6, 22656, Note_on_c, 3, 76, 67
6, 22848, Note_off_c, 3, 76, 64
6, 22848, Note_on_c, 3, 72, 67
6, 23040, Note_off_c, 3, 84, 64
6, 23040, Note_off_c, 3, 72, 64
6, 23040, Note_on_c, 3, 84, 67
6, 23232, Note_on_c, 3, 81, 67
6, 23424, Note_off_c, 3, 81, 64
6, 23424, Note_on_c, 3, 76, 67
6, 23616, Note_off_c, 3, 76, 64
6, 23616, Note_on_c, 3, 72, 67
6, 23808, Note_off_c, 3, 84, 64
6, 23808, Note_off_c, 3, 72, 64
6, 23808, Note_on_c, 3, 83, 67
6, 24000, Note_on_c, 3, 79, 67
6, 24192, Note_off_c, 3, 79, 64
6, 24192, Note_on_c, 3, 77, 67
6, 24384, Note_off_c, 3, 77, 64
6, 24384, Note_on_c, 3, 71, 67
6, 24576, Note_off_c, 3, 83, 64
6, 24576, Note_off_c, 3, 71, 64
6, 24576, Note_on_c, 3, 83, 67
6, 24768, Note_on_c, 3, 79, 67
6, 24960, Note_off_c, 3, 79, 64
6, 24960, Note_on_c, 3, 77, 67
6, 25152, Note_off_c, 3, 77, 64
6, 25152, Note_on_c, 3, 71, 67
6, 25344, Note_off_c, 3, 83, 64
6, 25344, Note_off_c, 3, 71, 64
6, 25344, Note_on_c, 3, 81, 67
6, 25536, Note_on_c, 3, 76, 67
6, 25728, Note_off_c, 3, 76, 64
6, 25728, Note_on_c, 3, 72, 67
6, 25920, Note_off_c, 3, 72, 64
6, 25920, Note_on_c, 3, 69, 67
6, 26112, Note_off_c, 3, 81, 64
6, 26112, Note_off_c, 3, 69, 64
6, 26112, Note_on_c, 3, 81, 67
6, 26304, Note_on_c, 3, 77, 67
6, 26496, Note_off_c, 3, 77, 64
6, 26496, Note_on_c, 3, 72, 67
6, 26688, Note_off_c, 3, 72, 64
6, 26688, Note_on_c, 3, 69, 67
6, 26880, Note_off_c, 3, 81, 64
6, 26880, Note_off_c, 3, 69, 64
6, 26880, Note_on_c, 3, 79, 67
6, 27072, Note_on_c, 3, 74, 67
6, 27264, Note_off_c, 3, 74, 64
6, 27264, Note_on_c, 3, 71, 67
6, 27456, Note_off_c, 3, 71, 64
6, 27456, Note_on_c, 3, 67, 67
6, 27648, Note_off_c, 3, 79, 64
6, 27648, Note_off_c, 3, 67, 64
6, 27648, Note_on_c, 3, 76, 67
6, 27840, Note_on_c, 3, 72, 67
6, 28032, Note_off_c, 3, 72, 64
6, 28032, Note_on_c, 3, 67, 67
6, 28224, Note_off_c, 3, 67, 64
6, 28224, Note_on_c, 3, 64, 67
6, 28416, Note_off_c, 3, 76, 64
6, 28416, Note_on_c, 3, 65, 67
6, 28416, Note_off_c, 3, 64, 64
6, 28608, Note_on_c, 3, 70, 67
6, 28800, Note_off_c, 3, 70, 64
6, 28800, Note_on_c, 3, 73, 67
6, 28992, Note_off_c, 3, 73, 64
6, 28992, Note_on_c, 3, 75, 67
6, 29184, Note_off_c, 3, 65, 64
6, 29184, Note_off_c, 3, 75, 64
6, 29184, Note_on_c, 3, 66, 67
6, 29376, Note_on_c, 3, 70, 67
6, 29568, Note_off_c, 3, 70, 64
6, 29568, Note_on_c, 3, 73, 67
6, 29760, Note_off_c, 3, 73, 64
6, 29760, Note_on_c, 3, 78, 67
6, 29952, Note_off_c, 3, 66, 64
6, 29952, Note_off_c, 3, 78, 64
6, 29952, Note_on_c, 3, 66, 67
6, 30336, Note_off_c, 3, 66, 64
6, 30336, Note_on_c, 3, 68, 67
6, 30528, Note_off_c, 3, 68, 64
6, 30528, Note_on_c, 3, 66, 67
6, 30720, Note_off_c, 3, 66, 64
6, 30720, Note_on_c, 3, 68, 67
6, 31488, Note_off_c, 3, 68, 64
6, 31488, Note_on_c, 3, 65, 67
6, 31680, Note_on_c, 3, 70, 67
6, 31872, Note_off_c, 3, 70, 64
6, 31872, Note_on_c, 3, 73, 67
6, 32064, Note_off_c, 3, 73, 64
6, 32064, Note_on_c, 3, 77, 67
6, 32256, Note_off_c, 3, 65, 64
6, 32256, Note_off_c, 3, 77, 64
6, 32256, Note_on_c, 3, 66, 67
6, 32448, Note_on_c, 3, 70, 67
6, 32640, Note_off_c, 3, 70, 64
6, 32640, Note_on_c, 3, 73, 67
6, 32832, Note_off_c, 3, 73, 64
6, 32832, Note_on_c, 3, 78, 67
6, 33024, Note_off_c, 3, 66, 64
6, 33024, Note_off_c, 3, 78, 64
6, 33216, Note_on_c, 3, 66, 67
6, 33408, Note_off_c, 3, 66, 64
6, 33408, Note_on_c, 3, 68, 67
6, 33600, Note_off_c, 3, 68, 64
6, 33600, Note_on_c, 3, 66, 67
6, 33792, Note_off_c, 3, 66, 64
6, 33792, Note_on_c, 3, 68, 67
6, 34560, Note_off_c, 3, 68, 64
6, 34560, Note_on_c, 3, 70, 67
6, 34752, Note_off_c, 3, 70, 64
6, 34752, Note_on_c, 3, 65, 67
6, 34944, Note_off_c, 3, 65, 64
6, 34944, Note_on_c, 3, 65, 67
6, 35136, Note_off_c, 3, 65, 64
6, 35136, Note_on_c, 3, 65, 67
6, 35328, Note_off_c, 3, 65, 64
6, 35328, Note_on_c, 3, 66, 67
6, 35456, Note_off_c, 3, 66, 64
6, 35456, Note_on_c, 3, 68, 67
6, 35584, Note_off_c, 3, 68, 64
6, 35584, Note_on_c, 3, 66, 67
6, 35712, Note_off_c, 3, 66, 64
6, 35712, Note_on_c, 3, 66, 67
6, 35904, Note_off_c, 3, 66, 64
6, 35904, Note_on_c, 3, 66, 67
6, 36096, Note_off_c, 3, 66, 64
6, 36096, Note_on_c, 3, 68, 67
6, 36288, Note_off_c, 3, 68, 64
6, 36288, Note_on_c, 3, 63, 67
6, 36480, Note_off_c, 3, 63, 64
6, 36480, Note_on_c, 3, 63, 67
6, 36672, Note_off_c, 3, 63, 64
6, 36672, Note_on_c, 3, 63, 67
6, 36864, Note_off_c, 3, 63, 64
6, 36864, Note_on_c, 3, 65, 67
6, 36992, Note_off_c, 3, 65, 64
6, 36992, Note_on_c, 3, 66, 67
6, 37120, Note_off_c, 3, 66, 64
6, 37120, Note_on_c, 3, 65, 67
6, 37248, Note_off_c, 3, 65, 64
6, 37248, Note_on_c, 3, 65, 67
6, 37632, Note_off_c, 3, 65, 64
6, 37632, Note_on_c, 3, 63, 67
6, 37760, Note_off_c, 3, 63, 64
6, 37760, Note_on_c, 3, 63, 67
6, 37888, Note_off_c, 3, 63, 64
6, 37888, Note_on_c, 3, 63, 67
6, 37984, Note_on_c, 3, 63, 67
6, 38016, Note_off_c, 3, 63, 64
6, 38176, Note_off_c, 3, 63, 64
6, 38176, Note_on_c, 3, 63, 67
6, 38368, Note_off_c, 3, 63, 64
6, 38400, Note_on_c, 3, 63, 67
6, 38592, Note_off_c, 3, 63, 64
6, 38592, Note_on_c, 3, 58, 67
6, 38784, Note_off_c, 3, 58, 64
6, 38784, Note_on_c, 3, 58, 67
6, 38976, Note_off_c, 3, 58, 64
6, 38976, Note_on_c, 3, 58, 67
6, 39168, Note_off_c, 3, 58, 64
6, 39168, Note_on_c, 3, 68, 67
6, 39552, Note_off_c, 3, 68, 64
6, 39552, Note_on_c, 3, 60, 67
6, 39680, Note_off_c, 3, 60, 64
6, 39680, Note_on_c, 3, 58, 67
6, 39808, Note_off_c, 3, 58, 64
6, 39808, Note_on_c, 3, 60, 67
6, 39936, Note_off_c, 3, 60, 64
6, 39936, Note_on_c, 3, 61, 67
6, 40128, Note_off_c, 3, 61, 64
6, 40128, Note_on_c, 3, 61, 67
6, 40320, Note_off_c, 3, 61, 64
6, 40320, Note_on_c, 3, 61, 67
6, 40704, Note_off_c, 3, 61, 64
6, 40704, Note_on_c, 3, 67, 67
6, 40896, Note_off_c, 3, 67, 64
6, 40896, Note_on_c, 3, 72, 67
6, 41088, Note_off_c, 3, 72, 64
6, 41088, Note_on_c, 3, 76, 67
6, 41280, Note_off_c, 3, 76, 64
6, 41280, Note_on_c, 3, 79, 67
6, 41472, Note_off_c, 3, 79, 64
6, 41472, Note_on_c, 3, 67, 67
6, 41664, Note_off_c, 3, 67, 64
6, 41664, Note_on_c, 3, 72, 67
6, 41856, Note_off_c, 3, 72, 64
6, 41856, Note_on_c, 3, 76, 67
6, 42048, Note_off_c, 3, 76, 64
6, 42048, Note_on_c, 3, 79, 67
6, 42240, Note_off_c, 3, 79, 64
6, 42240, Note_on_c, 3, 67, 67
6, 42624, Note_off_c, 3, 67, 64
6, 42624, Note_on_c, 3, 67, 67
6, 42816, Note_off_c, 3, 67, 64
6, 42816, Note_on_c, 3, 65, 67
6, 43008, Note_off_c, 3, 65, 64
6, 43008, Note_on_c, 3, 67, 67
6, 43200, Note_on_c, 3, 71, 67
6, 43392, Note_off_c, 3, 71, 64
6, 43392, Note_on_c, 3, 74, 67
6, 43584, Note_off_c, 3, 74, 64
6, 43584, Note_on_c, 3, 79, 67
6, 43776, Note_off_c, 3, 67, 64
6, 43776, Note_off_c, 3, 79, 64
6, 43776, Note_on_c, 3, 67, 67
6, 43968, Note_off_c, 3, 67, 64
6, 43968, Note_on_c, 3, 72, 67
6, 44160, Note_off_c, 3, 72, 64
6, 44160, Note_on_c, 3, 76, 67
6, 44352, Note_off_c, 3, 76, 64
6, 44352, Note_on_c, 3, 79, 67
6, 44544, Note_off_c, 3, 79, 64
6, 44544, Note_on_c, 3, 67, 67
6, 44736, Note_off_c, 3, 67, 64
6, 44736, Note_on_c, 3, 72, 67
6, 44928, Note_off_c, 3, 72, 64
6, 44928, Note_on_c, 3, 76, 67
6, 45120, Note_off_c, 3, 76, 64
6, 45120, Note_on_c, 3, 79, 67
6, 45312, Note_off_c, 3, 79, 64
6, 45312, Note_on_c, 3, 65, 67
6, 45696, Note_off_c, 3, 65, 64
6, 45696, Note_on_c, 3, 67, 67
6, 45888, Note_off_c, 3, 67, 64
6, 45888, Note_on_c, 3, 65, 67
6, 46080, Note_off_c, 3, 65, 64
6, 46080, Note_on_c, 3, 67, 67
6, 46848, Note_off_c, 3, 67, 64
6, 46848, Note_on_c, 3, 69, 67
6, 47040, Note_off_c, 3, 69, 64
6, 47040, Note_on_c, 3, 64, 67
6, 47232, Note_off_c, 3, 64, 64
6, 47232, Note_on_c, 3, 64, 67
6, 47424, Note_off_c, 3, 64, 64
6, 47424, Note_on_c, 3, 64, 67
6, 47616, Note_off_c, 3, 64, 64
6, 47616, Note_on_c, 3, 65, 67
6, 47808, Note_off_c, 3, 65, 64
6, 47808, Note_on_c, 3, 67, 67
6, 48000, Note_off_c, 3, 67, 64
6, 48000, Note_on_c, 3, 65, 67
6, 48384, Note_off_c, 3, 65, 64
6, 48384, Note_on_c, 3, 67, 67
6, 48576, Note_off_c, 3, 67, 64
6, 48576, Note_on_c, 3, 62, 67
6, 48768, Note_off_c, 3, 62, 64
6, 48768, Note_on_c, 3, 62, 67
6, 48960, Note_off_c, 3, 62, 64
6, 48960, Note_on_c, 3, 62, 67
6, 49152, Note_off_c, 3, 62, 64
6, 49152, Note_on_c, 3, 64, 67
6, 49344, Note_off_c, 3, 64, 64
6, 49344, Note_on_c, 3, 65, 67
6, 49536, Note_off_c, 3, 65, 64
6, 49536, Note_on_c, 3, 64, 67
6, 49920, Note_off_c, 3, 64, 64
6, 49920, Note_on_c, 3, 64, 67
6, 50048, Note_off_c, 3, 64, 64
6, 50048, Note_on_c, 3, 64, 67
6, 50176, Note_off_c, 3, 64, 64
6, 50176, Note_on_c, 3, 60, 67
6, 50304, Note_off_c, 3, 60, 64
6, 50304, Note_on_c, 3, 60, 67
6, 50496, Note_off_c, 3, 60, 64
6, 50496, Note_on_c, 3, 60, 67
6, 50688, Note_off_c, 3, 60, 64
6, 50688, Note_on_c, 3, 62, 67
6, 50880, Note_off_c, 3, 62, 64
6, 50880, Note_on_c, 3, 64, 67
6, 51072, Note_off_c, 3, 64, 64
6, 51072, Note_on_c, 3, 62, 67
6, 51456, Note_off_c, 3, 62, 64
6, 51456, Note_on_c, 3, 65, 67
6, 51648, Note_off_c, 3, 65, 64
6, 51648, Note_on_c, 3, 59, 67
6, 51840, Note_off_c, 3, 59, 64
6, 51840, Note_on_c, 3, 57, 67
6, 52032, Note_off_c, 3, 57, 64
6, 52032, Note_on_c, 3, 59, 67
6, 52224, Note_off_c, 3, 59, 64
6, 52224, Note_on_c, 3, 60, 67
6, 52416, Note_off_c, 3, 60, 64
6, 52416, Note_on_c, 3, 60, 67
6, 52608, Note_off_c, 3, 60, 64
6, 52608, Note_on_c, 3, 60, 67
6, 52992, Note_off_c, 3, 60, 64
6, 52992, Note_on_c, 3, 65, 67
6, 53184, Note_off_c, 3, 65, 64
6, 53184, Note_on_c, 3, 70, 67
6, 53376, Note_off_c, 3, 70, 64
6, 53376, Note_on_c, 3, 73, 67
6, 53568, Note_off_c, 3, 73, 64
6, 53568, Note_on_c, 3, 77, 67
6, 53760, Note_off_c, 3, 77, 64
6, 53760, Note_on_c, 3, 68, 67
6, 53952, Note_off_c, 3, 68, 64
6, 53952, Note_on_c, 3, 73, 67
6, 54144, Note_off_c, 3, 73, 64
6, 54144, Note_on_c, 3, 75, 67
6, 54336, Note_off_c, 3, 75, 64
6, 54336, Note_on_c, 3, 80, 67
6, 54528, Note_off_c, 3, 80, 64
6, 54528, Note_on_c, 3, 66, 67
6, 54912, Note_off_c, 3, 66, 64
6, 54912, Note_on_c, 3, 68, 67
6, 55104, Note_off_c, 3, 68, 64
6, 55104, Note_on_c, 3, 66, 67
6, 55296, Note_off_c, 3, 66, 64
6, 55296, Note_on_c, 3, 68, 67
6, 56064, Note_off_c, 3, 68, 64
6, 56064, Note_on_c, 3, 65, 67
6, 56256, Note_off_c, 3, 65, 64
6, 56256, Note_on_c, 3, 70, 67
6, 56448, Note_off_c, 3, 70, 64
6, 56448, Note_on_c, 3, 73, 67
6, 56640, Note_off_c, 3, 73, 64
6, 56640, Note_on_c, 3, 77, 67
6, 56832, Note_off_c, 3, 77, 64
6, 56832, Note_on_c, 3, 68, 67
6, 57024, Note_off_c, 3, 68, 64
6, 57024, Note_on_c, 3, 73, 67
6, 57216, Note_off_c, 3, 73, 64
6, 57216, Note_on_c, 3, 75, 67
6, 57408, Note_off_c, 3, 75, 64
6, 57408, Note_on_c, 3, 77, 67
6, 57600, Note_off_c, 3, 77, 64
6, 57792, Note_on_c, 3, 66, 67
6, 57984, Note_off_c, 3, 66, 64
6, 57984, Note_on_c, 3, 68, 67
6, 58176, Note_off_c, 3, 68, 64
6, 58176, Note_on_c, 3, 66, 67
6, 58368, Note_off_c, 3, 66, 64
6, 58368, Note_on_c, 3, 68, 67
6, 59136, Note_off_c, 3, 68, 64
6, 59136, Note_on_c, 3, 70, 67
6, 59328, Note_off_c, 3, 70, 64
6, 59328, Note_on_c, 3, 65, 67
6, 59520, Note_off_c, 3, 65, 64
6, 59520, Note_on_c, 3, 65, 67
6, 59712, Note_off_c, 3, 65, 64
6, 59712, Note_on_c, 3, 65, 67
6, 59904, Note_off_c, 3, 65, 64
6, 59904, Note_on_c, 3, 66, 67
6, 60096, Note_off_c, 3, 66, 64
6, 60096, Note_on_c, 3, 68, 67
6, 60288, Note_off_c, 3, 68, 64
6, 60288, Note_on_c, 3, 66, 67
6, 60672, Note_off_c, 3, 66, 64
6, 60672, Note_on_c, 3, 68, 67
6, 60864, Note_off_c, 3, 68, 64
6, 60864, Note_on_c, 3, 63, 67
6, 61056, Note_off_c, 3, 63, 64
6, 61056, Note_on_c, 3, 63, 67
6, 61248, Note_off_c, 3, 63, 64
6, 61248, Note_on_c, 3, 63, 67
6, 61440, Note_off_c, 3, 63, 64
6, 61440, Note_on_c, 3, 65, 67
6, 61632, Note_off_c, 3, 65, 64
6, 61632, Note_on_c, 3, 66, 67
6, 61824, Note_off_c, 3, 66, 64
6, 61824, Note_on_c, 3, 65, 67
6, 62208, Note_off_c, 3, 65, 64
6, 62336, Note_on_c, 3, 65, 67
6, 62464, Note_off_c, 3, 65, 64
6, 62464, Note_on_c, 3, 61, 67
6, 62592, Note_off_c, 3, 61, 64
6, 62592, Note_on_c, 3, 61, 67
6, 62784, Note_off_c, 3, 61, 64
6, 62784, Note_on_c, 3, 61, 67
6, 62976, Note_off_c, 3, 61, 64
6, 62976, Note_on_c, 3, 66, 67
6, 63104, Note_off_c, 3, 66, 64
6, 63104, Note_on_c, 3, 68, 67
6, 63232, Note_off_c, 3, 68, 64
6, 63232, Note_on_c, 3, 66, 67
6, 63360, Note_off_c, 3, 66, 64
6, 63360, Note_on_c, 3, 66, 67
6, 63552, Note_off_c, 3, 66, 64
6, 63552, Note_on_c, 3, 66, 67
6, 63744, Note_off_c, 3, 66, 64
6, 63872, Note_on_c, 3, 68, 67
6, 64000, Note_off_c, 3, 68, 64
6, 64000, Note_on_c, 3, 60, 67
6, 64128, Note_off_c, 3, 60, 64
6, 64128, Note_on_c, 3, 58, 67
6, 64320, Note_off_c, 3, 58, 64
6, 64320, Note_on_c, 3, 60, 67
6, 64512, Note_off_c, 3, 60, 64
6, 64512, Note_on_c, 3, 61, 67
6, 64704, Note_off_c, 3, 61, 64
6, 64704, Note_on_c, 3, 61, 67
6, 64896, Note_off_c, 3, 61, 64
6, 64896, Note_on_c, 3, 61, 67
6, 65280, Note_off_c, 3, 61, 64
6, 65280, Note_on_c, 3, 67, 67
6, 65472, Note_off_c, 3, 67, 64
6, 65472, Note_on_c, 3, 72, 67
6, 65664, Note_off_c, 3, 72, 64
6, 65664, Note_on_c, 3, 76, 67
6, 65856, Note_off_c, 3, 76, 64
6, 65856, Note_on_c, 3, 79, 67
6, 66048, Note_off_c, 3, 79, 64
6, 66048, Note_on_c, 3, 67, 67
6, 66240, Note_off_c, 3, 67, 64
6, 66240, Note_on_c, 3, 72, 67
6, 66432, Note_off_c, 3, 72, 64
6, 66432, Note_on_c, 3, 76, 67
6, 66624, Note_off_c, 3, 76, 64
6, 66624, Note_on_c, 3, 79, 67
6, 66816, Note_off_c, 3, 79, 64
6, 66816, Note_on_c, 3, 67, 67
6, 67200, Note_off_c, 3, 67, 64
6, 67200, Note_on_c, 3, 67, 67
6, 67392, Note_off_c, 3, 67, 64
6, 67392, Note_on_c, 3, 65, 67
6, 67584, Note_off_c, 3, 65, 64
6, 67584, Note_on_c, 3, 67, 67
6, 67776, Note_on_c, 3, 71, 67
6, 67968, Note_off_c, 3, 71, 64
6, 67968, Note_on_c, 3, 74, 67
6, 68160, Note_off_c, 3, 74, 64
6, 68160, Note_on_c, 3, 79, 67
6, 68352, Note_off_c, 3, 67, 64
6, 68352, Note_off_c, 3, 79, 64
6, 68352, Note_on_c, 3, 67, 67
6, 68544, Note_off_c, 3, 67, 64
6, 68544, Note_on_c, 3, 72, 67
6, 68736, Note_off_c, 3, 72, 64
6, 68736, Note_on_c, 3, 76, 67
6, 68928, Note_off_c, 3, 76, 64
6, 68928, Note_on_c, 3, 79, 67
6, 69120, Note_off_c, 3, 79, 64
6, 69120, Note_on_c, 3, 67, 67
6, 69312, Note_off_c, 3, 67, 64
6, 69312, Note_on_c, 3, 72, 67
6, 69504, Note_off_c, 3, 72, 64
6, 69504, Note_on_c, 3, 76, 67
6, 69696, Note_off_c, 3, 76, 64
6, 69696, Note_on_c, 3, 79, 67
6, 69888, Note_off_c, 3, 79, 64
6, 69888, Note_on_c, 3, 65, 67
6, 70272, Note_off_c, 3, 65, 64
6, 70272, Note_on_c, 3, 67, 67
6, 70464, Note_off_c, 3, 67, 64
6, 70464, Note_on_c, 3, 65, 67
6, 70656, Note_off_c, 3, 65, 64
6, 70656, Note_on_c, 3, 67, 67
6, 71424, Note_off_c, 3, 67, 64
6, 71424, Note_on_c, 3, 69, 67
6, 71616, Note_off_c, 3, 69, 64
6, 71616, Note_on_c, 3, 64, 67
6, 71808, Note_off_c, 3, 64, 64
6, 71808, Note_on_c, 3, 64, 67
6, 72000, Note_off_c, 3, 64, 64
6, 72000, Note_on_c, 3, 64, 67
6, 72192, Note_off_c, 3, 64, 64
6, 72192, Note_on_c, 3, 65, 67
6, 72384, Note_off_c, 3, 65, 64
6, 72384, Note_on_c, 3, 67, 67
6, 72576, Note_off_c, 3, 67, 64
6, 72576, Note_on_c, 3, 65, 67
6, 72960, Note_off_c, 3, 65, 64
6, 72960, Note_on_c, 3, 67, 67
6, 73152, Note_off_c, 3, 67, 64
6, 73152, Note_on_c, 3, 62, 67
6, 73344, Note_off_c, 3, 62, 64
6, 73344, Note_on_c, 3, 62, 67
6, 73536, Note_off_c, 3, 62, 64
6, 73536, Note_on_c, 3, 62, 67
6, 73728, Note_off_c, 3, 62, 64
6, 73728, Note_on_c, 3, 64, 67
6, 73920, Note_off_c, 3, 64, 64
6, 73920, Note_on_c, 3, 65, 67
6, 74112, Note_off_c, 3, 65, 64
6, 74112, Note_on_c, 3, 64, 67
6, 74496, Note_off_c, 3, 64, 64
6, 74496, Note_on_c, 3, 64, 67
6, 74624, Note_off_c, 3, 64, 64
6, 74624, Note_on_c, 3, 64, 67
6, 74752, Note_off_c, 3, 64, 64
6, 74752, Note_on_c, 3, 60, 67
6, 74880, Note_off_c, 3, 60, 64
6, 74880, Note_on_c, 3, 60, 67
6, 75072, Note_off_c, 3, 60, 64
6, 75072, Note_on_c, 3, 60, 67
6, 75264, Note_off_c, 3, 60, 64
6, 75264, Note_on_c, 3, 62, 67
6, 75456, Note_off_c, 3, 62, 64
6, 75456, Note_on_c, 3, 64, 67
6, 75648, Note_off_c, 3, 64, 64
6, 75648, Note_on_c, 3, 62, 67
6, 76032, Note_off_c, 3, 62, 64
6, 76032, Note_on_c, 3, 65, 67
6, 76224, Note_off_c, 3, 65, 64
6, 76224, Note_on_c, 3, 59, 67
6, 76416, Note_off_c, 3, 59, 64
6, 76416, Note_on_c, 3, 57, 67
6, 76608, Note_off_c, 3, 57, 64
6, 76608, Note_on_c, 3, 59, 67
6, 76800, Note_off_c, 3, 59, 64
6, 76800, Note_on_c, 3, 64, 67
6, 76992, Note_off_c, 3, 64, 64
6, 76992, Note_on_c, 3, 62, 67
6, 77184, Note_off_c, 3, 62, 64
6, 77184, Note_on_c, 3, 64, 67
6, 77568, Note_off_c, 3, 64, 64
6, 77568, Note_on_c, 3, 68, 67
6, 78336, Note_off_c, 3, 68, 64
6, 78336, Note_on_c, 3, 70, 67
6, 78528, Note_off_c, 3, 70, 64
6, 78528, Note_on_c, 3, 68, 67
6, 78720, Note_off_c, 3, 68, 64
6, 78720, Note_on_c, 3, 66, 67
6, 79104, Note_off_c, 3, 66, 64
6, 79104, Note_on_c, 3, 63, 67
6, 79232, Note_off_c, 3, 63, 64
6, 79232, Note_on_c, 3, 68, 67
6, 79360, Note_off_c, 3, 68, 64
6, 79360, Note_on_c, 3, 63, 67
6, 79488, Note_off_c, 3, 63, 64
6, 79488, Note_on_c, 3, 68, 67
6, 79680, Note_off_c, 3, 68, 64
6, 79680, Note_on_c, 3, 66, 67
6, 79872, Note_off_c, 3, 66, 64
6, 79872, Note_on_c, 3, 65, 67
6, 80640, Note_off_c, 3, 65, 64
6, 80640, Note_on_c, 3, 61, 67
6, 81024, Note_off_c, 3, 61, 64
6, 81024, Note_on_c, 3, 61, 67
6, 81152, Note_off_c, 3, 61, 64
6, 81152, Note_on_c, 3, 66, 67
6, 81280, Note_off_c, 3, 66, 64
6, 81280, Note_on_c, 3, 65, 67
6, 81408, Note_off_c, 3, 65, 64
6, 81408, Note_on_c, 3, 63, 67
6, 81984, Note_off_c, 3, 63, 64
6, 81984, Note_on_c, 3, 66, 67
6, 82176, Note_off_c, 3, 66, 64
6, 82176, Note_on_c, 3, 60, 67
6, 82560, Note_off_c, 3, 60, 64
6, 82560, Note_on_c, 3, 65, 67
6, 82752, Note_off_c, 3, 65, 64
6, 82752, Note_on_c, 3, 63, 67
6, 82944, Note_off_c, 3, 63, 64
6, 82944, Note_on_c, 3, 65, 67
6, 83712, Note_off_c, 3, 65, 64
6, 83712, Note_on_c, 3, 68, 67
6, 83904, Note_off_c, 3, 68, 64
6, 83904, Note_on_c, 3, 65, 67
6, 84096, Note_off_c, 3, 65, 64
6, 84096, Note_on_c, 3, 70, 67
6, 84288, Note_off_c, 3, 70, 64
6, 84288, Note_on_c, 3, 68, 67
6, 84480, Note_off_c, 3, 68, 64
6, 84480, Note_on_c, 3, 66, 67
6, 84672, Note_off_c, 3, 66, 64
6, 84672, Note_on_c, 3, 65, 67
6, 84864, Note_off_c, 3, 65, 64
6, 84864, Note_on_c, 3, 63, 67
6, 85056, Note_off_c, 3, 63, 64
6, 85056, Note_on_c, 3, 61, 67
6, 85248, Note_off_c, 3, 61, 64
6, 85248, Note_on_c, 3, 60, 67
6, 85632, Note_off_c, 3, 60, 64
6, 85632, Note_on_c, 3, 65, 67
6, 85824, Note_off_c, 3, 65, 64
6, 85824, Note_on_c, 3, 63, 67
6, 86016, Note_off_c, 3, 63, 64
6, 86016, Note_on_c, 3, 61, 67
6, 86784, Note_off_c, 3, 61, 64
6, 86784, Note_on_c, 3, 85, 67
6, 86976, Note_off_c, 3, 85, 64
6, 86976, Note_on_c, 3, 80, 67
6, 87168, Note_off_c, 3, 80, 64
6, 87168, Note_on_c, 3, 80, 67
6, 87360, Note_off_c, 3, 80, 64
6, 87360, Note_on_c, 3, 80, 67
6, 87552, Note_off_c, 3, 80, 64
6, 87552, Note_on_c, 3, 80, 67
6, 87744, Note_off_c, 3, 80, 64
6, 87744, Note_on_c, 3, 80, 67
6, 87936, Note_off_c, 3, 80, 64
6, 87936, Note_on_c, 3, 80, 67
6, 88128, Note_off_c, 3, 80, 64
6, 88128, Note_on_c, 3, 80, 67
6, 88320, Note_off_c, 3, 80, 64
6, 88320, Note_on_c, 3, 68, 67
6, 88704, Note_off_c, 3, 68, 64
6, 88704, Note_on_c, 3, 80, 67
6, 88896, Note_off_c, 3, 80, 64
6, 88896, Note_on_c, 3, 78, 67
6, 89088, Note_off_c, 3, 78, 64
6, 89088, Note_on_c, 3, 80, 67
6, 90624, Note_off_c, 3, 80, 64
6, 90624, End_track
7, 0, Start_track
7, 0, Title_t, ""
7, 15, Program_c, 15, 0
7, 46, Note_on_c, 0, 67, 2
7, 50, Note_off_c, 0, 67, 2
7, 109, Note_on_c, 0, 17, 2
7, 182, Note_off_c, 0, 17, 2
7, 212, Note_on_c, 0, 28, 2
7, 257, Note_off_c, 0, 28, 2
7, 269, Note_on_c, 0, 16, 2
7, 306, Note_off_c, 0, 16, 2
7, 370, Note_on_c, 0, 28, 2
7, 410, Note_off_c, 0, 28, 2
7, 466, Note_on_c, 0, 37, 2
7, 511, Note_off_c, 0, 37, 2
7, 579, Note_on_c, 0, 49, 2
7, 603, Note_off_c, 0, 49, 2
7, 650, Note_on_c, 0, 11, 2
7, 691, Note_off_c, 0, 11, 2
7, 747, Note_on_c, 0, 54, 2
7, 770, Note_off_c, 0, 54, 2
7, 783, Note_on_c, 0, 16, 2
7, 831, Note_off_c, 0, 16, 2
7, 861, Note_on_c, 0, 73, 2
7, 878, Note_off_c, 0, 73, 2
7, 953, Note_on_c, 0, 25, 2
7, 981, Note_off_c, 0, 25, 2
7, 1045, Note_on_c, 0, 49, 2
7, 1076, Note_off_c, 0, 49, 2
7, 1089, Note_on_c, 0, 2, 2
7, 1118, Note_off_c, 0, 2, 2
7, 1152, Note_on_c, 0, 4, 2
7, 1182, Note_off_c, 0, 4, 2
7, 1194, Note_on_c, 0, 42, 2
7, 1257, Note_off_c, 0, 42, 2
7, 1323, Note_on_c, 0, 25, 2
7, 1395, Note_off_c, 0, 25, 2
7, 1402, Note_on_c, 0, 68, 2
7, 1471, Note_off_c, 0, 68, 2
7, 1527, Note_on_c, 0, 15, 2
7, 1583, Note_off_c, 0, 15, 2
7, 1586, Note_on_c, 0, 23, 2
7, 1611, Note_off_c, 0, 23, 2
7, 1689, Note_on_c, 0, 7, 2
7, 1739, Note_off_c, 0, 7, 2
7, 1801, Note_on_c, 0, 2, 2
7, 1872, Note_off_c, 0, 2, 2
7, 1926, Note_on_c, 0, 78, 2
7, 1947, Note_off_c, 0, 78, 2
7, 2022, Note_on_c, 0, 12, 2
7, 2050, Note_off_c, 0, 12, 2
7, 2110, Note_on_c, 0, 30, 2
7, 2167, Note_off_c, 0, 30, 2
7, 2189, Note_on_c, 0, 48, 2
7, 2228, Note_off_c, 0, 48, 2
7, 2291, Note_on_c, 0, 69, 2
7, 2317, Note_off_c, 0, 69, 2
7, 2353, Note_on_c, 0, 71, 2
7, 2389, Note_off_c, 0, 71, 2
7, 2393, Note_on_c, 0, 1, 2
7, 2414, Note_off_c, 0, 1, 2
7, 2433, Note_on_c, 0, 32, 2
7, 2451, Note_off_c, 0, 32, 2
7, 2499, Note_on_c, 0, 43, 2
7, 2575, Note_off_c, 0, 43, 2
7, 2599, Note_on_c, 0, 55, 2
7, 2652, Note_off_c, 0, 55, 2
7, 2666, Note_on_c, 0, 57, 2
7, 2714, Note_off_c, 0, 57, 2
7, 2780, Note_on_c, 0, 21, 2
7, 2836, Note_off_c, 0, 21, 2
7, 2883, Note_on_c, 0, 77, 2
7, 2888, Note_off_c, 0, 77, 2
7, 2917, Note_on_c, 0, 4, 2
7, 2959, Note_off_c, 0, 4, 2
7, 3035, Note_on_c, 0, 58, 2
7, 3072, Note_off_c, 0, 58, 2
7, 3096, Note_on_c, 0, 6, 2
7, 3109, Note_off_c, 0, 6, 2
7, 3126, Note_on_c, 0, 40, 2
7, 3182, Note_off_c, 0, 40, 2
7, 3195, Note_on_c, 0, 24, 2
7, 3216, Note_off_c, 0, 24, 2
7, 3216, End_track
0, 0, End_of_file
