0, 0, Header, 1, 20, 480
1, 0, Start_track
1, 0, Tempo, 382165
1, 0, Time_signature, 4, 2, 24, 8
1, 0, Key_signature, 0, "major"
1, 103680, Time_signature, 7, 3, 12, 8
1, 105360, Time_signature, 4, 2, 24, 8
1, 138960, Tempo, 389610
1, 276000, Tempo, 500000
1, 278160, Time_signature, 11, 3, 12, 8
1, 280800, Time_signature, 4, 2, 24, 8
1, 305760, Tempo, 461538
1, 307680, Time_signature, 7, 3, 12, 8
1, 309360, Time_signature, 4, 2, 24, 8
1, 311280, Time_signature, 3, 2, 24, 8
1, 312720, Time_signature, 4, 2, 24, 8
1, 314640, Time_signature, 7, 3, 12, 8
1, 316320, Time_signature, 4, 2, 24, 8
1, 318240, Time_signature, 3, 2, 24, 8
1, 319680, Time_signature, 4, 2, 24, 8
1, 321600, Time_signature, 7, 3, 12, 8
1, 323280, Time_signature, 4, 2, 24, 8
1, 325200, Time_signature, 3, 2, 24, 8
1, 326640, Time_signature, 4, 2, 24, 8
1, 328560, Time_signature, 7, 3, 12, 8
1, 330240, Time_signature, 4, 2, 24, 8
1, 332160, Time_signature, 3, 2, 24, 8
1, 333600, Time_signature, 4, 2, 24, 8
1, 335520, Time_signature, 7, 3, 12, 8
1, 337200, Time_signature, 4, 2, 24, 8
1, 339120, Time_signature, 3, 2, 24, 8
1, 340560, Time_signature, 4, 2, 24, 8
1, 342480, Time_signature, 7, 3, 12, 8
1, 344160, Time_signature, 4, 2, 24, 8
1, 346080, Time_signature, 3, 2, 24, 8
1, 347520, Time_signature, 2, 2, 24, 8
1, 348480, Time_signature, 4, 2, 24, 8
1, 350400, Time_signature, 7, 3, 12, 8
1, 352080, Time_signature, 4, 2, 24, 8
1, 354000, Time_signature, 3, 2, 24, 8
1, 355440, Time_signature, 4, 2, 24, 8
1, 357360, Time_signature, 7, 3, 12, 8
1, 359040, Time_signature, 4, 2, 24, 8
1, 360960, Time_signature, 3, 2, 24, 8
1, 362400, Time_signature, 4, 2, 24, 8
1, 364320, Time_signature, 7, 3, 12, 8
1, 366000, Time_signature, 4, 2, 24, 8
1, 367920, Time_signature, 3, 2, 24, 8
1, 369360, Time_signature, 4, 2, 24, 8
1, 371280, Time_signature, 7, 3, 12, 8
1, 372960, Time_signature, 4, 2, 24, 8
1, 374880, Time_signature, 3, 2, 24, 8
1, 376320, Time_signature, 4, 2, 24, 8
1, 378240, Time_signature, 7, 3, 12, 8
1, 379920, Time_signature, 4, 2, 24, 8
1, 381840, Time_signature, 3, 2, 24, 8
1, 383280, Time_signature, 4, 2, 24, 8
1, 385200, Time_signature, 7, 3, 12, 8
1, 386880, Time_signature, 4, 2, 24, 8
1, 388800, Time_signature, 3, 2, 24, 8
1, 390240, Time_signature, 4, 2, 24, 8
1, 392160, Time_signature, 3, 2, 24, 8
1, 393600, Time_signature, 4, 2, 24, 8
1, 395520, Time_signature, 3, 2, 24, 8
1, 396960, Time_signature, 4, 2, 24, 8
1, 398880, Time_signature, 3, 2, 24, 8
1, 400320, Time_signature, 4, 2, 24, 8
1, 408000, Time_signature, 3, 2, 24, 8
1, 409440, Time_signature, 4, 2, 24, 8
1, 415200, Time_signature, 3, 2, 24, 8
1, 416640, Time_signature, 4, 2, 24, 8
1, 422400, Time_signature, 3, 2, 24, 8
1, 423840, Time_signature, 4, 2, 24, 8
1, 429600, Time_signature, 3, 2, 24, 8
1, 431040, Time_signature, 4, 2, 24, 8
1, 432960, Time_signature, 9, 3, 12, 8
1, 435120, Time_signature, 4, 2, 24, 8
1, 437040, Time_signature, 9, 3, 12, 8
1, 439200, Time_signature, 4, 2, 24, 8
1, 444960, Time_signature, 3, 2, 24, 8
1, 446400, Time_signature, 4, 2, 24, 8
1, 452160, Time_signature, 3, 2, 24, 8
1, 453600, Time_signature, 7, 3, 12, 8
1, 458640, Time_signature, 5, 3, 12, 8
1, 459840, Time_signature, 4, 2, 24, 8
1, 465600, Time_signature, 6, 2, 24, 8
1, 468480, Time_signature, 4, 2, 24, 8
1, 473760, Tempo, 382165
1, 504960, Tempo, 461538
1, 520320, Tempo, 352941
1, 520320, End_track
2, 0, Start_track
2, 0, Title_t, "Guitar "
2, 0, MIDI_port, 0
2, 0, Channel_prefix, 0
2, 0, Control_c, 0, 7, 94
2, 0, Control_c, 0, 10, 64
2, 0, Program_c, 0, 30
2, 0, Note_on_c, 0, 81, 100
2, 120, Note_off_c, 0, 81, 80
2, 120, Note_on_c, 0, 77, 100
2, 240, Note_off_c, 0, 77, 80
2, 240, Note_on_c, 0, 70, 100
2, 360, Note_off_c, 0, 70, 80
2, 360, Note_on_c, 0, 69, 100
2, 480, Note_off_c, 0, 69, 80
2, 480, Note_on_c, 0, 70, 100
2, 600, Note_off_c, 0, 70, 80
2, 600, Note_on_c, 0, 77, 100
2, 720, Note_off_c, 0, 77, 80
2, 720, Note_on_c, 0, 81, 100
2, 840, Note_off_c, 0, 81, 80
2, 840, Note_on_c, 0, 77, 100
2, 960, Note_off_c, 0, 77, 80
2, 960, Note_on_c, 0, 70, 100
2, 1080, Note_off_c, 0, 70, 80
2, 1080, Note_on_c, 0, 69, 100
2, 1200, Note_off_c, 0, 69, 80
2, 1200, Note_on_c, 0, 65, 100
2, 1320, Note_off_c, 0, 65, 80
2, 1320, Note_on_c, 0, 64, 100
2, 1440, Note_off_c, 0, 64, 80
2, 1440, Note_on_c, 0, 65, 100
2, 1560, Note_off_c, 0, 65, 80
2, 1560, Note_on_c, 0, 69, 100
2, 1680, Note_off_c, 0, 69, 80
2, 1680, Note_on_c, 0, 70, 100
2, 1800, Note_off_c, 0, 70, 80
2, 1800, Note_on_c, 0, 77, 100
2, 1920, Note_off_c, 0, 77, 80
2, 1920, Note_on_c, 0, 81, 100
2, 2040, Note_off_c, 0, 81, 80
2, 2040, Note_on_c, 0, 77, 100
2, 2160, Note_off_c, 0, 77, 80
2, 2160, Note_on_c, 0, 70, 100
2, 2280, Note_off_c, 0, 70, 80
2, 2280, Note_on_c, 0, 69, 100
2, 2400, Note_off_c, 0, 69, 80
2, 2400, Note_on_c, 0, 70, 100
2, 2520, Note_off_c, 0, 70, 80
2, 2520, Note_on_c, 0, 77, 100
2, 2640, Note_off_c, 0, 77, 80
2, 2640, Note_on_c, 0, 81, 100
2, 2760, Note_off_c, 0, 81, 80
2, 2760, Note_on_c, 0, 77, 100
2, 2880, Note_off_c, 0, 77, 80
2, 2880, Note_on_c, 0, 70, 100
2, 3000, Note_off_c, 0, 70, 80
2, 3000, Note_on_c, 0, 69, 100
2, 3120, Note_off_c, 0, 69, 80
2, 3120, Note_on_c, 0, 65, 100
2, 3240, Note_off_c, 0, 65, 80
2, 3240, Note_on_c, 0, 64, 100
2, 3360, Note_off_c, 0, 64, 80
2, 3360, Note_on_c, 0, 65, 100
2, 3480, Note_off_c, 0, 65, 80
2, 3480, Note_on_c, 0, 69, 100
2, 3600, Note_off_c, 0, 69, 80
2, 3600, Note_on_c, 0, 70, 100
2, 3720, Note_off_c, 0, 70, 80
2, 3720, Note_on_c, 0, 77, 100
2, 3840, Note_off_c, 0, 77, 80
2, 3840, Note_on_c, 0, 81, 100
2, 3960, Note_off_c, 0, 81, 80
2, 3960, Note_on_c, 0, 77, 100
2, 4080, Note_off_c, 0, 77, 80
2, 4080, Note_on_c, 0, 70, 100
2, 4200, Note_off_c, 0, 70, 80
2, 4200, Note_on_c, 0, 69, 100
2, 4320, Note_off_c, 0, 69, 80
2, 4320, Note_on_c, 0, 70, 100
2, 4440, Note_off_c, 0, 70, 80
2, 4440, Note_on_c, 0, 77, 100
2, 4560, Note_off_c, 0, 77, 80
2, 4560, Note_on_c, 0, 81, 100
2, 4680, Note_off_c, 0, 81, 80
2, 4680, Note_on_c, 0, 77, 100
2, 4800, Note_off_c, 0, 77, 80
2, 4800, Note_on_c, 0, 70, 100
2, 4920, Note_off_c, 0, 70, 80
2, 4920, Note_on_c, 0, 69, 100
2, 5040, Note_off_c, 0, 69, 80
2, 5040, Note_on_c, 0, 65, 100
2, 5160, Note_off_c, 0, 65, 80
2, 5160, Note_on_c, 0, 64, 100
2, 5280, Note_off_c, 0, 64, 80
2, 5280, Note_on_c, 0, 65, 100
2, 5400, Note_off_c, 0, 65, 80
2, 5400, Note_on_c, 0, 69, 100
2, 5520, Note_off_c, 0, 69, 80
2, 5520, Note_on_c, 0, 70, 100
2, 5640, Note_off_c, 0, 70, 80
2, 5640, Note_on_c, 0, 77, 100
2, 5760, Note_off_c, 0, 77, 80
2, 5760, Note_on_c, 0, 84, 100
2, 5880, Note_off_c, 0, 84, 80
2, 5880, Note_on_c, 0, 79, 100
2, 6000, Note_off_c, 0, 79, 80
2, 6000, Note_on_c, 0, 72, 100
2, 6120, Note_off_c, 0, 72, 80
2, 6120, Note_on_c, 0, 70, 100
2, 6240, Note_off_c, 0, 70, 80
2, 6240, Note_on_c, 0, 72, 100
2, 6360, Note_off_c, 0, 72, 80
2, 6360, Note_on_c, 0, 79, 100
2, 6480, Note_off_c, 0, 79, 80
2, 6480, Note_on_c, 0, 84, 100
2, 6600, Note_off_c, 0, 84, 80
2, 6600, Note_on_c, 0, 79, 100
2, 6720, Note_off_c, 0, 79, 80
2, 6720, Note_on_c, 0, 72, 100
2, 6840, Note_off_c, 0, 72, 80
2, 6840, Note_on_c, 0, 70, 100
2, 6960, Note_off_c, 0, 70, 80
2, 6960, Note_on_c, 0, 72, 100
2, 7080, Note_off_c, 0, 72, 80
2, 7080, Note_on_c, 0, 79, 100
2, 7200, Note_off_c, 0, 79, 80
2, 7200, Note_on_c, 0, 84, 100
2, 7320, Note_off_c, 0, 84, 80
2, 7320, Note_on_c, 0, 79, 100
2, 7440, Note_off_c, 0, 79, 80
2, 7440, Note_on_c, 0, 72, 100
2, 7560, Note_off_c, 0, 72, 80
2, 7560, Note_on_c, 0, 70, 100
2, 7680, Note_off_c, 0, 70, 80
2, 7680, Note_on_c, 0, 81, 100
2, 7800, Note_off_c, 0, 81, 80
2, 7800, Note_on_c, 0, 77, 100
2, 7920, Note_off_c, 0, 77, 80
2, 7920, Note_on_c, 0, 70, 100
2, 8040, Note_off_c, 0, 70, 80
2, 8040, Note_on_c, 0, 69, 100
2, 8160, Note_off_c, 0, 69, 80
2, 8160, Note_on_c, 0, 70, 100
2, 8280, Note_off_c, 0, 70, 80
2, 8280, Note_on_c, 0, 77, 100
2, 8400, Note_off_c, 0, 77, 80
2, 8400, Note_on_c, 0, 81, 100
2, 8520, Note_off_c, 0, 81, 80
2, 8520, Note_on_c, 0, 77, 100
2, 8640, Note_off_c, 0, 77, 80
2, 8640, Note_on_c, 0, 70, 100
2, 8760, Note_off_c, 0, 70, 80
2, 8760, Note_on_c, 0, 69, 100
2, 8880, Note_off_c, 0, 69, 80
2, 8880, Note_on_c, 0, 65, 100
2, 9000, Note_off_c, 0, 65, 80
2, 9000, Note_on_c, 0, 64, 100
2, 9120, Note_off_c, 0, 64, 80
2, 9120, Note_on_c, 0, 65, 100
2, 9240, Note_off_c, 0, 65, 80
2, 9240, Note_on_c, 0, 69, 100
2, 9360, Note_off_c, 0, 69, 80
2, 9360, Note_on_c, 0, 70, 100
2, 9480, Note_off_c, 0, 70, 80
2, 9480, Note_on_c, 0, 77, 100
2, 9600, Note_off_c, 0, 77, 80
2, 9600, Note_on_c, 0, 81, 100
2, 9720, Note_off_c, 0, 81, 80
2, 9720, Note_on_c, 0, 77, 100
2, 9840, Note_off_c, 0, 77, 80
2, 9840, Note_on_c, 0, 70, 100
2, 9960, Note_off_c, 0, 70, 80
2, 9960, Note_on_c, 0, 69, 100
2, 10080, Note_off_c, 0, 69, 80
2, 10080, Note_on_c, 0, 70, 100
2, 10200, Note_off_c, 0, 70, 80
2, 10200, Note_on_c, 0, 77, 100
2, 10320, Note_off_c, 0, 77, 80
2, 10320, Note_on_c, 0, 81, 100
2, 10440, Note_off_c, 0, 81, 80
2, 10440, Note_on_c, 0, 77, 100
2, 10560, Note_off_c, 0, 77, 80
2, 10560, Note_on_c, 0, 70, 100
2, 10680, Note_off_c, 0, 70, 80
2, 10680, Note_on_c, 0, 69, 100
2, 10800, Note_off_c, 0, 69, 80
2, 10800, Note_on_c, 0, 65, 100
2, 10920, Note_off_c, 0, 65, 80
2, 10920, Note_on_c, 0, 64, 100
2, 11040, Note_off_c, 0, 64, 80
2, 11040, Note_on_c, 0, 65, 100
2, 11160, Note_off_c, 0, 65, 80
2, 11160, Note_on_c, 0, 69, 100
2, 11280, Note_off_c, 0, 69, 80
2, 11280, Note_on_c, 0, 70, 100
2, 11400, Note_off_c, 0, 70, 80
2, 11400, Note_on_c, 0, 77, 100
2, 11520, Note_off_c, 0, 77, 80
2, 11520, Note_on_c, 0, 81, 100
2, 11640, Note_off_c, 0, 81, 80
2, 11640, Note_on_c, 0, 77, 100
2, 11760, Note_off_c, 0, 77, 80
2, 11760, Note_on_c, 0, 70, 100
2, 11880, Note_off_c, 0, 70, 80
2, 11880, Note_on_c, 0, 69, 100
2, 12000, Note_off_c, 0, 69, 80
2, 12000, Note_on_c, 0, 70, 100
2, 12120, Note_off_c, 0, 70, 80
2, 12120, Note_on_c, 0, 77, 100
2, 12240, Note_off_c, 0, 77, 80
2, 12240, Note_on_c, 0, 81, 100
2, 12360, Note_off_c, 0, 81, 80
2, 12360, Note_on_c, 0, 77, 100
2, 12480, Note_off_c, 0, 77, 80
2, 12480, Note_on_c, 0, 70, 100
2, 12600, Note_off_c, 0, 70, 80
2, 12600, Note_on_c, 0, 69, 100
2, 12720, Note_off_c, 0, 69, 80
2, 12720, Note_on_c, 0, 65, 100
2, 12840, Note_off_c, 0, 65, 80
2, 12840, Note_on_c, 0, 64, 100
2, 12960, Note_off_c, 0, 64, 80
2, 12960, Note_on_c, 0, 65, 100
2, 13080, Note_off_c, 0, 65, 80
2, 13080, Note_on_c, 0, 69, 100
2, 13200, Note_off_c, 0, 69, 80
2, 13200, Note_on_c, 0, 70, 100
2, 13320, Note_off_c, 0, 70, 80
2, 13320, Note_on_c, 0, 77, 100
2, 13440, Note_off_c, 0, 77, 80
2, 13440, Note_on_c, 0, 84, 100
2, 13560, Note_off_c, 0, 84, 80
2, 13560, Note_on_c, 0, 77, 100
2, 13680, Note_off_c, 0, 77, 80
2, 13680, Note_on_c, 0, 72, 100
2, 13800, Note_off_c, 0, 72, 80
2, 13800, Note_on_c, 0, 77, 100
2, 13920, Note_off_c, 0, 77, 80
2, 13920, Note_on_c, 0, 82, 100
2, 14040, Note_off_c, 0, 82, 80
2, 14040, Note_on_c, 0, 77, 100
2, 14160, Note_off_c, 0, 77, 80
2, 14160, Note_on_c, 0, 72, 100
2, 14280, Note_off_c, 0, 72, 80
2, 14280, Note_on_c, 0, 77, 100
2, 14400, Note_off_c, 0, 77, 80
2, 14400, Note_on_c, 0, 81, 100
2, 14520, Note_off_c, 0, 81, 80
2, 14520, Note_on_c, 0, 77, 100
2, 14640, Note_off_c, 0, 77, 80
2, 14640, Note_on_c, 0, 72, 100
2, 14760, Note_off_c, 0, 72, 80
2, 14760, Note_on_c, 0, 77, 100
2, 14880, Note_off_c, 0, 77, 80
2, 14880, Note_on_c, 0, 79, 100
2, 15000, Note_off_c, 0, 79, 80
2, 15000, Note_on_c, 0, 77, 100
2, 15120, Note_off_c, 0, 77, 80
2, 15120, Note_on_c, 0, 72, 100
2, 15240, Note_off_c, 0, 72, 80
2, 15240, Note_on_c, 0, 77, 100
2, 15360, Note_off_c, 0, 77, 80
2, 15360, Note_on_c, 0, 81, 100
2, 15480, Note_off_c, 0, 81, 80
2, 15480, Note_on_c, 0, 77, 100
2, 15600, Note_off_c, 0, 77, 80
2, 15600, Note_on_c, 0, 70, 100
2, 15720, Note_off_c, 0, 70, 80
2, 15720, Note_on_c, 0, 69, 100
2, 15840, Note_off_c, 0, 69, 80
2, 15840, Note_on_c, 0, 70, 100
2, 15960, Note_off_c, 0, 70, 80
2, 15960, Note_on_c, 0, 77, 100
2, 16080, Note_off_c, 0, 77, 80
2, 16080, Note_on_c, 0, 81, 100
2, 16200, Note_off_c, 0, 81, 80
2, 16200, Note_on_c, 0, 77, 100
2, 16320, Note_off_c, 0, 77, 80
2, 16320, Note_on_c, 0, 70, 100
2, 16440, Note_off_c, 0, 70, 80
2, 16440, Note_on_c, 0, 69, 100
2, 16560, Note_off_c, 0, 69, 80
2, 16560, Note_on_c, 0, 65, 100
2, 16680, Note_off_c, 0, 65, 80
2, 16680, Note_on_c, 0, 64, 100
2, 16800, Note_off_c, 0, 64, 80
2, 16800, Note_on_c, 0, 65, 100
2, 16920, Note_off_c, 0, 65, 80
2, 16920, Note_on_c, 0, 69, 100
2, 17040, Note_off_c, 0, 69, 80
2, 17040, Note_on_c, 0, 70, 100
2, 17160, Note_off_c, 0, 70, 80
2, 17160, Note_on_c, 0, 77, 100
2, 17280, Note_off_c, 0, 77, 80
2, 17280, Note_on_c, 0, 81, 100
2, 17400, Note_off_c, 0, 81, 80
2, 17400, Note_on_c, 0, 77, 100
2, 17520, Note_off_c, 0, 77, 80
2, 17520, Note_on_c, 0, 70, 100
2, 17640, Note_off_c, 0, 70, 80
2, 17640, Note_on_c, 0, 69, 100
2, 17760, Note_off_c, 0, 69, 80
2, 17760, Note_on_c, 0, 70, 100
2, 17880, Note_off_c, 0, 70, 80
2, 17880, Note_on_c, 0, 77, 100
2, 18000, Note_off_c, 0, 77, 80
2, 18000, Note_on_c, 0, 81, 100
2, 18120, Note_off_c, 0, 81, 80
2, 18120, Note_on_c, 0, 77, 100
2, 18240, Note_off_c, 0, 77, 80
2, 18240, Note_on_c, 0, 70, 100
2, 18360, Note_off_c, 0, 70, 80
2, 18360, Note_on_c, 0, 69, 100
2, 18480, Note_off_c, 0, 69, 80
2, 18480, Note_on_c, 0, 65, 100
2, 18600, Note_off_c, 0, 65, 80
2, 18600, Note_on_c, 0, 64, 100
2, 18720, Note_off_c, 0, 64, 80
2, 18720, Note_on_c, 0, 65, 100
2, 18840, Note_off_c, 0, 65, 80
2, 18840, Note_on_c, 0, 69, 100
2, 18960, Note_off_c, 0, 69, 80
2, 18960, Note_on_c, 0, 70, 100
2, 19080, Note_off_c, 0, 70, 80
2, 19080, Note_on_c, 0, 77, 100
2, 19200, Note_off_c, 0, 77, 80
2, 19200, Note_on_c, 0, 81, 100
2, 19320, Note_off_c, 0, 81, 80
2, 19320, Note_on_c, 0, 77, 100
2, 19440, Note_off_c, 0, 77, 80
2, 19440, Note_on_c, 0, 70, 100
2, 19560, Note_off_c, 0, 70, 80
2, 19560, Note_on_c, 0, 69, 100
2, 19680, Note_off_c, 0, 69, 80
2, 19680, Note_on_c, 0, 70, 100
2, 19800, Note_off_c, 0, 70, 80
2, 19800, Note_on_c, 0, 77, 100
2, 19920, Note_off_c, 0, 77, 80
2, 19920, Note_on_c, 0, 81, 100
2, 20040, Note_off_c, 0, 81, 80
2, 20040, Note_on_c, 0, 77, 100
2, 20160, Note_off_c, 0, 77, 80
2, 20160, Note_on_c, 0, 70, 100
2, 20280, Note_off_c, 0, 70, 80
2, 20280, Note_on_c, 0, 69, 100
2, 20400, Note_off_c, 0, 69, 80
2, 20400, Note_on_c, 0, 65, 100
2, 20520, Note_off_c, 0, 65, 80
2, 20520, Note_on_c, 0, 64, 100
2, 20640, Note_off_c, 0, 64, 80
2, 20640, Note_on_c, 0, 65, 100
2, 20760, Note_off_c, 0, 65, 80
2, 20760, Note_on_c, 0, 69, 100
2, 20880, Note_off_c, 0, 69, 80
2, 20880, Note_on_c, 0, 70, 100
2, 21000, Note_off_c, 0, 70, 80
2, 21000, Note_on_c, 0, 77, 100
2, 21120, Note_off_c, 0, 77, 80
2, 21120, Note_on_c, 0, 84, 100
2, 21240, Note_off_c, 0, 84, 80
2, 21240, Note_on_c, 0, 79, 100
2, 21360, Note_off_c, 0, 79, 80
2, 21360, Note_on_c, 0, 72, 100
2, 21480, Note_off_c, 0, 72, 80
2, 21480, Note_on_c, 0, 70, 100
2, 21600, Note_off_c, 0, 70, 80
2, 21600, Note_on_c, 0, 72, 100
2, 21720, Note_off_c, 0, 72, 80
2, 21720, Note_on_c, 0, 79, 100
2, 21840, Note_off_c, 0, 79, 80
2, 21840, Note_on_c, 0, 84, 100
2, 21960, Note_off_c, 0, 84, 80
2, 21960, Note_on_c, 0, 79, 100
2, 22080, Note_off_c, 0, 79, 80
2, 22080, Note_on_c, 0, 72, 100
2, 22200, Note_off_c, 0, 72, 80
2, 22200, Note_on_c, 0, 70, 100
2, 22320, Note_off_c, 0, 70, 80
2, 22320, Note_on_c, 0, 72, 100
2, 22440, Note_off_c, 0, 72, 80
2, 22440, Note_on_c, 0, 79, 100
2, 22560, Note_off_c, 0, 79, 80
2, 22560, Note_on_c, 0, 84, 100
2, 22680, Note_off_c, 0, 84, 80
2, 22680, Note_on_c, 0, 79, 100
2, 22800, Note_off_c, 0, 79, 80
2, 22800, Note_on_c, 0, 72, 100
2, 22920, Note_off_c, 0, 72, 80
2, 22920, Note_on_c, 0, 70, 100
2, 23040, Note_off_c, 0, 70, 80
2, 23040, Note_on_c, 0, 81, 100
2, 23160, Note_off_c, 0, 81, 80
2, 23160, Note_on_c, 0, 77, 100
2, 23280, Note_off_c, 0, 77, 80
2, 23280, Note_on_c, 0, 70, 100
2, 23400, Note_off_c, 0, 70, 80
2, 23400, Note_on_c, 0, 69, 100
2, 23520, Note_off_c, 0, 69, 80
2, 23520, Note_on_c, 0, 70, 100
2, 23640, Note_off_c, 0, 70, 80
2, 23640, Note_on_c, 0, 77, 100
2, 23760, Note_off_c, 0, 77, 80
2, 23760, Note_on_c, 0, 81, 100
2, 23880, Note_off_c, 0, 81, 80
2, 23880, Note_on_c, 0, 77, 100
2, 24000, Note_off_c, 0, 77, 80
2, 24000, Note_on_c, 0, 70, 100
2, 24120, Note_off_c, 0, 70, 80
2, 24120, Note_on_c, 0, 69, 100
2, 24240, Note_off_c, 0, 69, 80
2, 24240, Note_on_c, 0, 65, 100
2, 24360, Note_off_c, 0, 65, 80
2, 24360, Note_on_c, 0, 64, 100
2, 24480, Note_off_c, 0, 64, 80
2, 24480, Note_on_c, 0, 65, 100
2, 24600, Note_off_c, 0, 65, 80
2, 24600, Note_on_c, 0, 69, 100
2, 24720, Note_off_c, 0, 69, 80
2, 24720, Note_on_c, 0, 70, 100
2, 24840, Note_off_c, 0, 70, 80
2, 24840, Note_on_c, 0, 77, 100
2, 24960, Note_off_c, 0, 77, 80
2, 24960, Note_on_c, 0, 81, 100
2, 25080, Note_off_c, 0, 81, 80
2, 25080, Note_on_c, 0, 77, 100
2, 25200, Note_off_c, 0, 77, 80
2, 25200, Note_on_c, 0, 70, 100
2, 25320, Note_off_c, 0, 70, 80
2, 25320, Note_on_c, 0, 69, 100
2, 25440, Note_off_c, 0, 69, 80
2, 25440, Note_on_c, 0, 70, 100
2, 25560, Note_off_c, 0, 70, 80
2, 25560, Note_on_c, 0, 77, 100
2, 25680, Note_off_c, 0, 77, 80
2, 25680, Note_on_c, 0, 81, 100
2, 25800, Note_off_c, 0, 81, 80
2, 25800, Note_on_c, 0, 77, 100
2, 25920, Note_off_c, 0, 77, 80
2, 25920, Note_on_c, 0, 70, 100
2, 26040, Note_off_c, 0, 70, 80
2, 26040, Note_on_c, 0, 69, 100
2, 26160, Note_off_c, 0, 69, 80
2, 26160, Note_on_c, 0, 65, 100
2, 26280, Note_off_c, 0, 65, 80
2, 26280, Note_on_c, 0, 64, 100
2, 26400, Note_off_c, 0, 64, 80
2, 26400, Note_on_c, 0, 65, 100
2, 26520, Note_off_c, 0, 65, 80
2, 26520, Note_on_c, 0, 69, 100
2, 26640, Note_off_c, 0, 69, 80
2, 26640, Note_on_c, 0, 70, 100
2, 26760, Note_off_c, 0, 70, 80
2, 26760, Note_on_c, 0, 77, 100
2, 26880, Note_off_c, 0, 77, 80
2, 26880, Note_on_c, 0, 81, 100
2, 27000, Note_off_c, 0, 81, 80
2, 27000, Note_on_c, 0, 77, 100
2, 27120, Note_off_c, 0, 77, 80
2, 27120, Note_on_c, 0, 70, 100
2, 27240, Note_off_c, 0, 70, 80
2, 27240, Note_on_c, 0, 69, 100
2, 27360, Note_off_c, 0, 69, 80
2, 27360, Note_on_c, 0, 70, 100
2, 27480, Note_off_c, 0, 70, 80
2, 27480, Note_on_c, 0, 77, 100
2, 27600, Note_off_c, 0, 77, 80
2, 27600, Note_on_c, 0, 81, 100
2, 27720, Note_off_c, 0, 81, 80
2, 27720, Note_on_c, 0, 77, 100
2, 27840, Note_off_c, 0, 77, 80
2, 27840, Note_on_c, 0, 70, 100
2, 27960, Note_off_c, 0, 70, 80
2, 27960, Note_on_c, 0, 69, 100
2, 28080, Note_off_c, 0, 69, 80
2, 28080, Note_on_c, 0, 65, 100
2, 28200, Note_off_c, 0, 65, 80
2, 28200, Note_on_c, 0, 64, 100
2, 28320, Note_off_c, 0, 64, 80
2, 28320, Note_on_c, 0, 65, 100
2, 28440, Note_off_c, 0, 65, 80
2, 28440, Note_on_c, 0, 69, 100
2, 28560, Note_off_c, 0, 69, 80
2, 28560, Note_on_c, 0, 70, 100
2, 28680, Note_off_c, 0, 70, 80
2, 28680, Note_on_c, 0, 77, 100
2, 28800, Note_off_c, 0, 77, 80
2, 28800, Note_on_c, 0, 84, 100
2, 28920, Note_off_c, 0, 84, 80
2, 28920, Note_on_c, 0, 77, 100
2, 29040, Note_off_c, 0, 77, 80
2, 29040, Note_on_c, 0, 72, 100
2, 29160, Note_off_c, 0, 72, 80
2, 29160, Note_on_c, 0, 77, 100
2, 29280, Note_off_c, 0, 77, 80
2, 29280, Note_on_c, 0, 82, 100
2, 29400, Note_off_c, 0, 82, 80
2, 29400, Note_on_c, 0, 77, 100
2, 29520, Note_off_c, 0, 77, 80
2, 29520, Note_on_c, 0, 72, 100
2, 29640, Note_off_c, 0, 72, 80
2, 29640, Note_on_c, 0, 77, 100
2, 29760, Note_off_c, 0, 77, 80
2, 29760, Note_on_c, 0, 81, 100
2, 29880, Note_off_c, 0, 81, 80
2, 29880, Note_on_c, 0, 77, 100
2, 30000, Note_off_c, 0, 77, 80
2, 30000, Note_on_c, 0, 72, 100
2, 30120, Note_off_c, 0, 72, 80
2, 30120, Note_on_c, 0, 77, 100
2, 30240, Note_off_c, 0, 77, 80
2, 30240, Note_on_c, 0, 79, 100
2, 30360, Note_off_c, 0, 79, 80
2, 30360, Note_on_c, 0, 77, 100
2, 30480, Note_off_c, 0, 77, 80
2, 30480, Note_on_c, 0, 72, 100
2, 30600, Note_off_c, 0, 72, 80
2, 30600, Note_on_c, 0, 77, 100
2, 30720, Note_off_c, 0, 77, 80
2, 30720, Note_on_c, 0, 62, 100
2, 30960, Note_off_c, 0, 62, 64
2, 30960, Note_on_c, 0, 50, 100
2, 31920, Note_off_c, 0, 50, 64
2, 31920, Note_on_c, 0, 52, 100
2, 32160, Note_off_c, 0, 52, 64
2, 32400, Note_on_c, 0, 53, 100
2, 32880, Note_off_c, 0, 53, 64
2, 32880, Note_on_c, 0, 55, 100
2, 33120, Note_off_c, 0, 55, 64
2, 33120, Note_on_c, 0, 57, 100
2, 33360, Note_off_c, 0, 57, 64
2, 33360, Note_on_c, 0, 60, 100
2, 34080, Note_on_c, 0, 64, 100
2, 34087, Note_off_c, 0, 60, 64
2, 34320, Note_off_c, 0, 64, 64
2, 34320, Note_on_c, 0, 60, 100
2, 34560, Note_off_c, 0, 60, 64
2, 34560, Note_on_c, 0, 62, 100
2, 34800, Note_off_c, 0, 62, 64
2, 34800, Note_on_c, 0, 50, 100
2, 35280, Note_off_c, 0, 50, 64
2, 35280, Note_on_c, 0, 52, 100
2, 35520, Note_off_c, 0, 52, 64
2, 35520, Note_on_c, 0, 53, 100
2, 35760, Note_off_c, 0, 53, 64
2, 35760, Note_on_c, 0, 55, 100
2, 36000, Note_off_c, 0, 55, 64
2, 36000, Note_on_c, 0, 57, 100
2, 36240, Note_off_c, 0, 57, 64
2, 36240, Note_on_c, 0, 60, 100
2, 36720, Note_off_c, 0, 60, 64
2, 36720, Note_on_c, 0, 64, 100
2, 36960, Note_off_c, 0, 64, 64
2, 36960, Note_on_c, 0, 55, 100
2, 37920, Note_off_c, 0, 55, 64
2, 37920, Note_on_c, 0, 55, 100
2, 38040, Note_off_c, 0, 55, 64
2, 38040, Note_on_c, 0, 57, 100
2, 38160, Note_off_c, 0, 57, 64
2, 38160, Note_on_c, 0, 60, 100
2, 38400, Note_on_c, 0, 62, 100
2, 38407, Note_off_c, 0, 60, 64
2, 38640, Note_off_c, 0, 62, 64
2, 38640, Note_on_c, 0, 50, 100
2, 39600, Note_off_c, 0, 50, 64
2, 39600, Note_on_c, 0, 52, 100
2, 39840, Note_off_c, 0, 52, 64
2, 40080, Note_on_c, 0, 53, 100
2, 40560, Note_off_c, 0, 53, 64
2, 40560, Note_on_c, 0, 55, 100
2, 40800, Note_off_c, 0, 55, 64
2, 40800, Note_on_c, 0, 57, 100
2, 41040, Note_off_c, 0, 57, 64
2, 41040, Note_on_c, 0, 60, 100
2, 41760, Note_on_c, 0, 64, 100
2, 41767, Note_off_c, 0, 60, 64
2, 42000, Note_off_c, 0, 64, 64
2, 42000, Note_on_c, 0, 60, 100
2, 42240, Note_off_c, 0, 60, 64
2, 42240, Note_on_c, 0, 62, 100
2, 42480, Note_off_c, 0, 62, 64
2, 42480, Note_on_c, 0, 50, 100
2, 42960, Note_off_c, 0, 50, 64
2, 42960, Note_on_c, 0, 52, 100
2, 43200, Note_off_c, 0, 52, 64
2, 43200, Note_on_c, 0, 53, 100
2, 43440, Note_off_c, 0, 53, 64
2, 43440, Note_on_c, 0, 55, 100
2, 43680, Note_off_c, 0, 55, 64
2, 43680, Note_on_c, 0, 57, 100
2, 43920, Note_off_c, 0, 57, 64
2, 43920, Note_on_c, 0, 60, 100
2, 43920, Note_on_c, 0, 55, 100
2, 46080, Note_on_c, 0, 62, 100
2, 46080, Control_c, 0, 7, 80
2, 46087, Note_off_c, 0, 55, 64
2, 46087, Note_off_c, 0, 60, 64
2, 46320, Note_off_c, 0, 62, 64
2, 46320, Note_on_c, 0, 50, 100
2, 47280, Note_off_c, 0, 50, 64
2, 47280, Note_on_c, 0, 52, 100
2, 47520, Note_off_c, 0, 52, 64
2, 47760, Note_on_c, 0, 53, 100
2, 48240, Note_off_c, 0, 53, 64
2, 48240, Note_on_c, 0, 55, 100
2, 48480, Note_off_c, 0, 55, 64
2, 48480, Note_on_c, 0, 57, 100
2, 48720, Note_off_c, 0, 57, 64
2, 48720, Note_on_c, 0, 60, 100
2, 49440, Note_on_c, 0, 64, 100
2, 49447, Note_off_c, 0, 60, 64
2, 49680, Note_off_c, 0, 64, 64
2, 49680, Note_on_c, 0, 60, 100
2, 49920, Note_off_c, 0, 60, 64
2, 49920, Note_on_c, 0, 62, 100
2, 50160, Note_off_c, 0, 62, 64
2, 50160, Note_on_c, 0, 50, 100
2, 50640, Note_off_c, 0, 50, 64
2, 50640, Note_on_c, 0, 52, 100
2, 50880, Note_off_c, 0, 52, 64
2, 50880, Note_on_c, 0, 53, 100
2, 51120, Note_off_c, 0, 53, 64
2, 51120, Note_on_c, 0, 55, 100
2, 51360, Note_off_c, 0, 55, 64
2, 51360, Note_on_c, 0, 57, 100
2, 51600, Note_off_c, 0, 57, 64
2, 51600, Note_on_c, 0, 60, 100
2, 52080, Note_off_c, 0, 60, 64
2, 52080, Note_on_c, 0, 64, 100
2, 52320, Note_off_c, 0, 64, 64
2, 52320, Note_on_c, 0, 55, 100
2, 53280, Note_off_c, 0, 55, 64
2, 53280, Note_on_c, 0, 55, 100
2, 53400, Note_off_c, 0, 55, 64
2, 53400, Note_on_c, 0, 57, 100
2, 53520, Note_off_c, 0, 57, 64
2, 53520, Note_on_c, 0, 60, 100
2, 53760, Note_on_c, 0, 62, 100
2, 53767, Note_off_c, 0, 60, 64
2, 54000, Note_off_c, 0, 62, 64
2, 54000, Note_on_c, 0, 50, 100
2, 54960, Note_off_c, 0, 50, 64
2, 54960, Note_on_c, 0, 52, 100
2, 55200, Note_off_c, 0, 52, 64
2, 55440, Note_on_c, 0, 53, 100
2, 55920, Note_off_c, 0, 53, 64
2, 55920, Note_on_c, 0, 55, 100
2, 56160, Note_off_c, 0, 55, 64
2, 56160, Note_on_c, 0, 57, 100
2, 56400, Note_off_c, 0, 57, 64
2, 56400, Note_on_c, 0, 60, 100
2, 57120, Note_on_c, 0, 64, 100
2, 57127, Note_off_c, 0, 60, 64
2, 57360, Note_off_c, 0, 64, 64
2, 57360, Note_on_c, 0, 60, 100
2, 57600, Note_off_c, 0, 60, 64
2, 57600, Note_on_c, 0, 62, 100
2, 57840, Note_off_c, 0, 62, 64
2, 57840, Note_on_c, 0, 50, 100
2, 58320, Note_off_c, 0, 50, 64
2, 58320, Note_on_c, 0, 52, 100
2, 58560, Note_off_c, 0, 52, 64
2, 58560, Note_on_c, 0, 53, 100
2, 58800, Note_off_c, 0, 53, 64
2, 58800, Note_on_c, 0, 55, 100
2, 59040, Note_off_c, 0, 55, 64
2, 59040, Note_on_c, 0, 57, 100
2, 59280, Note_off_c, 0, 57, 64
2, 59280, Note_on_c, 0, 60, 100
2, 59280, Note_on_c, 0, 55, 100
2, 61440, Note_off_c, 0, 55, 64
2, 61440, Note_off_c, 0, 60, 64
2, 61440, Control_c, 0, 7, 80
2, 61440, Note_on_c, 0, 55, 100
2, 61680, Note_off_c, 0, 55, 64
2, 61680, Note_on_c, 0, 43, 100
2, 62640, Note_off_c, 0, 43, 64
2, 62640, Note_on_c, 0, 45, 100
2, 62880, Note_off_c, 0, 45, 64
2, 63120, Note_on_c, 0, 46, 100
2, 63600, Note_off_c, 0, 46, 64
2, 63600, Note_on_c, 0, 48, 100
2, 63840, Note_off_c, 0, 48, 64
2, 63840, Note_on_c, 0, 50, 100
2, 64080, Note_off_c, 0, 50, 64
2, 64080, Note_on_c, 0, 53, 100
2, 64800, Note_on_c, 0, 57, 100
2, 64807, Note_off_c, 0, 53, 64
2, 65040, Note_off_c, 0, 57, 64
2, 65040, Note_on_c, 0, 53, 100
2, 65280, Note_off_c, 0, 53, 64
2, 65280, Note_on_c, 0, 55, 100
2, 65520, Note_off_c, 0, 55, 64
2, 65520, Note_on_c, 0, 43, 100
2, 66000, Note_off_c, 0, 43, 64
2, 66000, Note_on_c, 0, 45, 100
2, 66240, Note_off_c, 0, 45, 64
2, 66240, Note_on_c, 0, 46, 100
2, 66480, Note_off_c, 0, 46, 64
2, 66480, Note_on_c, 0, 48, 100
2, 66720, Note_off_c, 0, 48, 64
2, 66720, Note_on_c, 0, 50, 100
2, 66960, Note_off_c, 0, 50, 64
2, 66960, Note_on_c, 0, 53, 100
2, 67440, Note_off_c, 0, 53, 64
2, 67440, Note_on_c, 0, 57, 100
2, 67680, Note_off_c, 0, 57, 64
2, 67680, Note_on_c, 0, 48, 100
2, 68640, Note_off_c, 0, 48, 64
2, 68640, Note_on_c, 0, 48, 100
2, 68760, Note_off_c, 0, 48, 64
2, 68760, Note_on_c, 0, 50, 100
2, 68880, Note_off_c, 0, 50, 64
2, 68880, Note_on_c, 0, 53, 100
2, 69120, Note_on_c, 0, 55, 100
2, 69127, Note_off_c, 0, 53, 64
2, 69360, Note_off_c, 0, 55, 64
2, 69360, Note_on_c, 0, 43, 100
2, 70320, Note_off_c, 0, 43, 64
2, 70320, Note_on_c, 0, 45, 100
2, 70560, Note_off_c, 0, 45, 64
2, 70800, Note_on_c, 0, 46, 100
2, 71280, Note_off_c, 0, 46, 64
2, 71280, Note_on_c, 0, 48, 100
2, 71520, Note_off_c, 0, 48, 64
2, 71520, Note_on_c, 0, 50, 100
2, 71760, Note_off_c, 0, 50, 64
2, 71760, Note_on_c, 0, 53, 100
2, 72480, Note_on_c, 0, 57, 100
2, 72487, Note_off_c, 0, 53, 64
2, 72720, Note_off_c, 0, 57, 64
2, 72720, Note_on_c, 0, 53, 100
2, 72960, Note_off_c, 0, 53, 64
2, 72960, Note_on_c, 0, 55, 100
2, 73200, Note_off_c, 0, 55, 64
2, 73200, Note_on_c, 0, 43, 100
2, 73680, Note_off_c, 0, 43, 64
2, 73680, Note_on_c, 0, 45, 100
2, 73920, Note_off_c, 0, 45, 64
2, 73920, Note_on_c, 0, 46, 100
2, 74160, Note_off_c, 0, 46, 64
2, 74160, Note_on_c, 0, 48, 100
2, 74400, Note_off_c, 0, 48, 64
2, 74400, Note_on_c, 0, 50, 100
2, 74640, Note_off_c, 0, 50, 64
2, 74640, Note_on_c, 0, 53, 100
2, 74640, Note_on_c, 0, 60, 100
2, 76800, Note_on_c, 0, 50, 100
2, 76800, Note_on_c, 0, 45, 100
2, 76807, Note_off_c, 0, 60, 64
2, 76807, Note_off_c, 0, 53, 64
2, 78473, Note_off_c, 0, 50, 64
2, 78473, Note_off_c, 0, 45, 64
2, 78480, Note_on_c, 0, 41, 100
2, 78480, Note_on_c, 0, 48, 100
2, 78480, Note_on_c, 0, 53, 100
2, 79440, Note_off_c, 0, 53, 64
2, 79440, Note_off_c, 0, 48, 64
2, 79440, Note_off_c, 0, 41, 64
2, 79440, Note_on_c, 0, 43, 100
2, 79440, Note_on_c, 0, 50, 100
2, 79440, Note_on_c, 0, 55, 100
2, 80640, Note_on_c, 0, 48, 100
2, 80640, Note_on_c, 0, 55, 100
2, 80640, Note_on_c, 0, 60, 100
2, 80647, Note_off_c, 0, 55, 64
2, 80647, Note_off_c, 0, 50, 64
2, 80647, Note_off_c, 0, 43, 64
2, 81600, Note_off_c, 0, 48, 64
2, 81600, Note_off_c, 0, 55, 64
2, 81600, Note_off_c, 0, 60, 64
2, 81600, Note_on_c, 0, 45, 100
2, 81600, Note_on_c, 0, 57, 100
2, 81600, Note_on_c, 0, 52, 100
2, 82313, Note_off_c, 0, 52, 64
2, 82313, Note_off_c, 0, 57, 64
2, 82313, Note_off_c, 0, 45, 64
2, 82320, Note_on_c, 0, 46, 100
2, 82320, Note_on_c, 0, 58, 100
2, 82320, Note_on_c, 0, 53, 100
2, 82800, Note_off_c, 0, 53, 64
2, 82800, Note_off_c, 0, 58, 64
2, 82800, Note_off_c, 0, 46, 64
2, 82800, Note_on_c, 0, 48, 100
2, 83040, Note_off_c, 0, 48, 64
2, 83040, Note_on_c, 0, 53, 100
2, 83040, Note_on_c, 0, 48, 100
2, 83040, Note_on_c, 0, 41, 100
2, 84233, Note_off_c, 0, 41, 64
2, 84233, Note_off_c, 0, 48, 64
2, 84233, Note_off_c, 0, 53, 64
2, 84240, Note_on_c, 0, 46, 100
2, 84360, Note_off_c, 0, 46, 64
2, 84360, Note_on_c, 0, 48, 100
2, 84480, Note_off_c, 0, 48, 64
2, 84480, Note_on_c, 0, 45, 100
2, 84480, Note_on_c, 0, 50, 100
2, 86153, Note_off_c, 0, 50, 64
2, 86153, Note_off_c, 0, 45, 64
2, 86160, Note_on_c, 0, 41, 100
2, 86160, Note_on_c, 0, 48, 100
2, 86160, Note_on_c, 0, 53, 100
2, 87120, Note_off_c, 0, 53, 64
2, 87120, Note_off_c, 0, 48, 64
2, 87120, Note_off_c, 0, 41, 64
2, 87120, Note_on_c, 0, 43, 100
2, 87120, Note_on_c, 0, 50, 100
2, 87120, Note_on_c, 0, 55, 100
2, 88320, Note_on_c, 0, 48, 100
2, 88320, Note_on_c, 0, 55, 100
2, 88320, Note_on_c, 0, 60, 100
2, 88327, Note_off_c, 0, 55, 64
2, 88327, Note_off_c, 0, 50, 64
2, 88327, Note_off_c, 0, 43, 64
2, 89280, Note_off_c, 0, 48, 64
2, 89280, Note_off_c, 0, 55, 64
2, 89280, Note_off_c, 0, 60, 64
2, 89280, Note_on_c, 0, 45, 100
2, 89280, Note_on_c, 0, 57, 100
2, 89280, Note_on_c, 0, 52, 100
2, 89993, Note_off_c, 0, 52, 64
2, 89993, Note_off_c, 0, 57, 64
2, 89993, Note_off_c, 0, 45, 64
2, 90000, Note_on_c, 0, 60, 100
2, 90000, Note_on_c, 0, 55, 100
2, 90000, Note_on_c, 0, 48, 100
2, 92160, Note_on_c, 0, 50, 100
2, 92160, Note_on_c, 0, 45, 100
2, 92167, Note_off_c, 0, 48, 64
2, 92167, Note_off_c, 0, 55, 64
2, 92167, Note_off_c, 0, 60, 64
2, 93833, Note_off_c, 0, 50, 64
2, 93833, Note_off_c, 0, 45, 64
2, 93840, Note_on_c, 0, 58, 100
2, 93840, Note_on_c, 0, 53, 100
2, 93840, Note_on_c, 0, 46, 100
2, 94800, Note_off_c, 0, 46, 64
2, 94800, Note_off_c, 0, 53, 64
2, 94800, Note_off_c, 0, 58, 64
2, 94800, Note_on_c, 0, 43, 100
2, 94800, Note_on_c, 0, 50, 100
2, 94800, Note_on_c, 0, 55, 100
2, 96000, Note_on_c, 0, 48, 100
2, 96000, Note_on_c, 0, 55, 100
2, 96000, Note_on_c, 0, 60, 100
2, 96007, Note_off_c, 0, 55, 64
2, 96007, Note_off_c, 0, 50, 64
2, 96007, Note_off_c, 0, 43, 64
2, 96960, Note_off_c, 0, 48, 64
2, 96960, Note_off_c, 0, 55, 64
2, 96960, Note_off_c, 0, 60, 64
2, 96960, Note_on_c, 0, 45, 100
2, 96960, Note_on_c, 0, 57, 100
2, 96960, Note_on_c, 0, 52, 100
2, 97673, Note_off_c, 0, 52, 64
2, 97673, Note_off_c, 0, 57, 64
2, 97673, Note_off_c, 0, 45, 64
2, 97680, Note_on_c, 0, 58, 100
2, 97680, Note_on_c, 0, 53, 100
2, 97680, Note_on_c, 0, 46, 100
2, 99600, Note_off_c, 0, 46, 64
2, 99600, Note_off_c, 0, 53, 64
2, 99600, Note_off_c, 0, 58, 64
2, 99600, Note_on_c, 0, 46, 100
2, 99720, Note_off_c, 0, 46, 64
2, 99720, Note_on_c, 0, 48, 100
2, 99840, Note_off_c, 0, 48, 64
2, 99840, Note_on_c, 0, 45, 100
2, 99840, Note_on_c, 0, 50, 100
2, 101513, Note_off_c, 0, 50, 64
2, 101513, Note_off_c, 0, 45, 64
2, 101520, Note_on_c, 0, 58, 100
2, 101520, Note_on_c, 0, 53, 100
2, 101520, Note_on_c, 0, 46, 100
2, 102480, Note_off_c, 0, 46, 64
2, 102480, Note_off_c, 0, 53, 64
2, 102480, Note_off_c, 0, 58, 64
2, 102480, Note_on_c, 0, 60, 100
2, 102480, Note_on_c, 0, 55, 100
2, 102480, Note_on_c, 0, 48, 100
2, 103680, Note_on_c, 0, 62, 100
2, 103680, Note_on_c, 0, 57, 100
2, 103680, Note_on_c, 0, 50, 100
2, 103687, Note_off_c, 0, 48, 64
2, 103687, Note_off_c, 0, 55, 64
2, 103687, Note_off_c, 0, 60, 64
2, 104640, Note_off_c, 0, 62, 64
2, 104640, Note_off_c, 0, 57, 64
2, 104640, Note_off_c, 0, 50, 64
2, 104640, Note_on_c, 0, 58, 100
2, 104640, Note_on_c, 0, 53, 100
2, 104640, Note_on_c, 0, 46, 100
2, 105353, Note_off_c, 0, 46, 64
2, 105353, Note_off_c, 0, 53, 64
2, 105353, Note_off_c, 0, 58, 64
2, 105360, Note_on_c, 0, 51, 100
2, 105360, Note_on_c, 0, 46, 100
2, 109200, Note_off_c, 0, 46, 64
2, 109200, Note_off_c, 0, 51, 64
2, 109200, Note_on_c, 0, 81, 100
2, 109320, Note_off_c, 0, 81, 80
2, 109320, Note_on_c, 0, 77, 100
2, 109440, Note_off_c, 0, 77, 80
2, 109440, Note_on_c, 0, 70, 100
2, 109560, Note_off_c, 0, 70, 80
2, 109560, Note_on_c, 0, 69, 100
2, 109680, Note_off_c, 0, 69, 80
2, 109680, Note_on_c, 0, 70, 100
2, 109800, Note_off_c, 0, 70, 80
2, 109800, Note_on_c, 0, 77, 100
2, 109920, Note_off_c, 0, 77, 80
2, 109920, Note_on_c, 0, 81, 100
2, 110040, Note_off_c, 0, 81, 80
2, 110040, Note_on_c, 0, 77, 100
2, 110160, Note_off_c, 0, 77, 80
2, 110160, Note_on_c, 0, 70, 100
2, 110280, Note_off_c, 0, 70, 80
2, 110280, Note_on_c, 0, 69, 100
2, 110400, Note_off_c, 0, 69, 80
2, 110400, Note_on_c, 0, 65, 100
2, 110520, Note_off_c, 0, 65, 80
2, 110520, Note_on_c, 0, 64, 100
2, 110640, Note_off_c, 0, 64, 80
2, 110640, Note_on_c, 0, 65, 100
2, 110760, Note_off_c, 0, 65, 80
2, 110760, Note_on_c, 0, 69, 100
2, 110880, Note_off_c, 0, 69, 80
2, 110880, Note_on_c, 0, 70, 100
2, 111000, Note_off_c, 0, 70, 80
2, 111000, Note_on_c, 0, 77, 100
2, 111120, Note_off_c, 0, 77, 80
2, 111120, Note_on_c, 0, 81, 100
2, 111240, Note_off_c, 0, 81, 80
2, 111240, Note_on_c, 0, 77, 100
2, 111360, Note_off_c, 0, 77, 80
2, 111360, Note_on_c, 0, 70, 100
2, 111480, Note_off_c, 0, 70, 80
2, 111480, Note_on_c, 0, 69, 100
2, 111600, Note_off_c, 0, 69, 80
2, 111600, Note_on_c, 0, 70, 100
2, 111720, Note_off_c, 0, 70, 80
2, 111720, Note_on_c, 0, 77, 100
2, 111840, Note_off_c, 0, 77, 80
2, 111840, Note_on_c, 0, 81, 100
2, 111960, Note_off_c, 0, 81, 80
2, 111960, Note_on_c, 0, 77, 100
2, 112080, Note_off_c, 0, 77, 80
2, 112080, Note_on_c, 0, 70, 100
2, 112200, Note_off_c, 0, 70, 80
2, 112200, Note_on_c, 0, 69, 100
2, 112320, Note_off_c, 0, 69, 80
2, 112320, Note_on_c, 0, 65, 100
2, 112440, Note_off_c, 0, 65, 80
2, 112440, Note_on_c, 0, 64, 100
2, 112560, Note_off_c, 0, 64, 80
2, 112560, Note_on_c, 0, 65, 100
2, 112680, Note_off_c, 0, 65, 80
2, 112680, Note_on_c, 0, 69, 100
2, 112800, Note_off_c, 0, 69, 80
2, 112800, Note_on_c, 0, 70, 100
2, 112920, Note_off_c, 0, 70, 80
2, 112920, Note_on_c, 0, 77, 100
2, 113040, Note_off_c, 0, 77, 80
2, 113040, Note_on_c, 0, 81, 100
2, 113160, Note_off_c, 0, 81, 80
2, 113160, Note_on_c, 0, 77, 100
2, 113280, Note_off_c, 0, 77, 80
2, 113280, Note_on_c, 0, 70, 100
2, 113400, Note_off_c, 0, 70, 80
2, 113400, Note_on_c, 0, 69, 100
2, 113520, Note_off_c, 0, 69, 80
2, 113520, Note_on_c, 0, 70, 100
2, 113640, Note_off_c, 0, 70, 80
2, 113640, Note_on_c, 0, 77, 100
2, 113760, Note_off_c, 0, 77, 80
2, 113760, Note_on_c, 0, 81, 100
2, 113880, Note_off_c, 0, 81, 80
2, 113880, Note_on_c, 0, 77, 100
2, 114000, Note_off_c, 0, 77, 80
2, 114000, Note_on_c, 0, 70, 100
2, 114120, Note_off_c, 0, 70, 80
2, 114120, Note_on_c, 0, 69, 100
2, 114240, Note_off_c, 0, 69, 80
2, 114240, Note_on_c, 0, 65, 100
2, 114360, Note_off_c, 0, 65, 80
2, 114360, Note_on_c, 0, 64, 100
2, 114480, Note_off_c, 0, 64, 80
2, 114480, Note_on_c, 0, 65, 100
2, 114600, Note_off_c, 0, 65, 80
2, 114600, Note_on_c, 0, 69, 100
2, 114720, Note_off_c, 0, 69, 80
2, 114720, Note_on_c, 0, 70, 100
2, 114840, Note_off_c, 0, 70, 80
2, 114840, Note_on_c, 0, 77, 100
2, 114960, Note_off_c, 0, 77, 80
2, 114960, Note_on_c, 0, 84, 100
2, 115080, Note_off_c, 0, 84, 80
2, 115080, Note_on_c, 0, 79, 100
2, 115200, Note_off_c, 0, 79, 80
2, 115200, Note_on_c, 0, 72, 100
2, 115320, Note_off_c, 0, 72, 80
2, 115320, Note_on_c, 0, 70, 100
2, 115440, Note_off_c, 0, 70, 80
2, 115440, Note_on_c, 0, 72, 100
2, 115560, Note_off_c, 0, 72, 80
2, 115560, Note_on_c, 0, 79, 100
2, 115680, Note_off_c, 0, 79, 80
2, 115680, Note_on_c, 0, 84, 100
2, 115800, Note_off_c, 0, 84, 80
2, 115800, Note_on_c, 0, 79, 100
2, 115920, Note_off_c, 0, 79, 80
2, 115920, Note_on_c, 0, 72, 100
2, 116040, Note_off_c, 0, 72, 80
2, 116040, Note_on_c, 0, 70, 100
2, 116160, Note_off_c, 0, 70, 80
2, 116160, Note_on_c, 0, 72, 100
2, 116280, Note_off_c, 0, 72, 80
2, 116280, Note_on_c, 0, 79, 100
2, 116400, Note_off_c, 0, 79, 80
2, 116400, Note_on_c, 0, 84, 100
2, 116520, Note_off_c, 0, 84, 80
2, 116520, Note_on_c, 0, 79, 100
2, 116640, Note_off_c, 0, 79, 80
2, 116640, Note_on_c, 0, 72, 100
2, 116760, Note_off_c, 0, 72, 80
2, 116760, Note_on_c, 0, 70, 100
2, 116880, Note_off_c, 0, 70, 80
2, 116880, Note_on_c, 0, 81, 100
2, 117000, Note_off_c, 0, 81, 80
2, 117000, Note_on_c, 0, 77, 100
2, 117120, Note_off_c, 0, 77, 80
2, 117120, Note_on_c, 0, 70, 100
2, 117240, Note_off_c, 0, 70, 80
2, 117240, Note_on_c, 0, 69, 100
2, 117360, Note_off_c, 0, 69, 80
2, 117360, Note_on_c, 0, 70, 100
2, 117480, Note_off_c, 0, 70, 80
2, 117480, Note_on_c, 0, 77, 100
2, 117600, Note_off_c, 0, 77, 80
2, 117600, Note_on_c, 0, 81, 100
2, 117720, Note_off_c, 0, 81, 80
2, 117720, Note_on_c, 0, 77, 100
2, 117840, Note_off_c, 0, 77, 80
2, 117840, Note_on_c, 0, 70, 100
2, 117960, Note_off_c, 0, 70, 80
2, 117960, Note_on_c, 0, 69, 100
2, 118080, Note_off_c, 0, 69, 80
2, 118080, Note_on_c, 0, 65, 100
2, 118200, Note_off_c, 0, 65, 80
2, 118200, Note_on_c, 0, 64, 100
2, 118320, Note_off_c, 0, 64, 80
2, 118320, Note_on_c, 0, 65, 100
2, 118440, Note_off_c, 0, 65, 80
2, 118440, Note_on_c, 0, 69, 100
2, 118560, Note_off_c, 0, 69, 80
2, 118560, Note_on_c, 0, 70, 100
2, 118680, Note_off_c, 0, 70, 80
2, 118680, Note_on_c, 0, 77, 100
2, 118800, Note_off_c, 0, 77, 80
2, 118800, Note_on_c, 0, 81, 100
2, 118920, Note_off_c, 0, 81, 80
2, 118920, Note_on_c, 0, 77, 100
2, 119040, Note_off_c, 0, 77, 80
2, 119040, Note_on_c, 0, 70, 100
2, 119160, Note_off_c, 0, 70, 80
2, 119160, Note_on_c, 0, 69, 100
2, 119280, Note_off_c, 0, 69, 80
2, 119280, Note_on_c, 0, 70, 100
2, 119400, Note_off_c, 0, 70, 80
2, 119400, Note_on_c, 0, 77, 100
2, 119520, Note_off_c, 0, 77, 80
2, 119520, Note_on_c, 0, 81, 100
2, 119640, Note_off_c, 0, 81, 80
2, 119640, Note_on_c, 0, 77, 100
2, 119760, Note_off_c, 0, 77, 80
2, 119760, Note_on_c, 0, 70, 100
2, 119880, Note_off_c, 0, 70, 80
2, 119880, Note_on_c, 0, 69, 100
2, 120000, Note_off_c, 0, 69, 80
2, 120000, Note_on_c, 0, 65, 100
2, 120120, Note_off_c, 0, 65, 80
2, 120120, Note_on_c, 0, 64, 100
2, 120240, Note_off_c, 0, 64, 80
2, 120240, Note_on_c, 0, 65, 100
2, 120360, Note_off_c, 0, 65, 80
2, 120360, Note_on_c, 0, 69, 100
2, 120480, Note_off_c, 0, 69, 80
2, 120480, Note_on_c, 0, 70, 100
2, 120600, Note_off_c, 0, 70, 80
2, 120600, Note_on_c, 0, 77, 100
2, 120720, Note_off_c, 0, 77, 80
2, 120720, Note_on_c, 0, 81, 100
2, 120840, Note_off_c, 0, 81, 80
2, 120840, Note_on_c, 0, 77, 100
2, 120960, Note_off_c, 0, 77, 80
2, 120960, Note_on_c, 0, 70, 100
2, 121080, Note_off_c, 0, 70, 80
2, 121080, Note_on_c, 0, 69, 100
2, 121200, Note_off_c, 0, 69, 80
2, 121200, Note_on_c, 0, 70, 100
2, 121320, Note_off_c, 0, 70, 80
2, 121320, Note_on_c, 0, 77, 100
2, 121440, Note_off_c, 0, 77, 80
2, 121440, Note_on_c, 0, 81, 100
2, 121560, Note_off_c, 0, 81, 80
2, 121560, Note_on_c, 0, 77, 100
2, 121680, Note_off_c, 0, 77, 80
2, 121680, Note_on_c, 0, 70, 100
2, 121800, Note_off_c, 0, 70, 80
2, 121800, Note_on_c, 0, 69, 100
2, 121920, Note_off_c, 0, 69, 80
2, 121920, Note_on_c, 0, 65, 100
2, 122040, Note_off_c, 0, 65, 80
2, 122040, Note_on_c, 0, 64, 100
2, 122160, Note_off_c, 0, 64, 80
2, 122160, Note_on_c, 0, 65, 100
2, 122280, Note_off_c, 0, 65, 80
2, 122280, Note_on_c, 0, 69, 100
2, 122400, Note_off_c, 0, 69, 80
2, 122400, Note_on_c, 0, 70, 100
2, 122520, Note_off_c, 0, 70, 80
2, 122520, Note_on_c, 0, 77, 100
2, 122640, Note_off_c, 0, 77, 80
2, 122640, Note_on_c, 0, 84, 100
2, 122760, Note_off_c, 0, 84, 80
2, 122760, Note_on_c, 0, 77, 100
2, 122880, Note_off_c, 0, 77, 80
2, 122880, Note_on_c, 0, 72, 100
2, 123000, Note_off_c, 0, 72, 80
2, 123000, Note_on_c, 0, 77, 100
2, 123120, Note_off_c, 0, 77, 80
2, 123120, Note_on_c, 0, 82, 100
2, 123240, Note_off_c, 0, 82, 80
2, 123240, Note_on_c, 0, 77, 100
2, 123360, Note_off_c, 0, 77, 80
2, 123360, Note_on_c, 0, 72, 100
2, 123480, Note_off_c, 0, 72, 80
2, 123480, Note_on_c, 0, 77, 100
2, 123600, Note_off_c, 0, 77, 80
2, 123600, Note_on_c, 0, 81, 100
2, 123720, Note_off_c, 0, 81, 80
2, 123720, Note_on_c, 0, 77, 100
2, 123840, Note_off_c, 0, 77, 80
2, 123840, Note_on_c, 0, 72, 100
2, 123960, Note_off_c, 0, 72, 80
2, 123960, Note_on_c, 0, 77, 100
2, 124080, Note_off_c, 0, 77, 80
2, 124080, Note_on_c, 0, 79, 100
2, 124200, Note_off_c, 0, 79, 80
2, 124200, Note_on_c, 0, 77, 100
2, 124320, Note_off_c, 0, 77, 80
2, 124320, Note_on_c, 0, 72, 100
2, 124440, Note_off_c, 0, 72, 80
2, 124440, Note_on_c, 0, 77, 100
2, 124560, Note_off_c, 0, 77, 80
2, 124560, Control_c, 0, 7, 80
2, 124560, Note_on_c, 0, 74, 100
2, 124800, Note_off_c, 0, 74, 64
2, 124800, Note_on_c, 0, 62, 100
2, 125760, Note_off_c, 0, 62, 64
2, 125760, Note_on_c, 0, 64, 100
2, 126000, Note_off_c, 0, 64, 64
2, 126240, Note_on_c, 0, 65, 100
2, 126720, Note_off_c, 0, 65, 64
2, 126720, Note_on_c, 0, 67, 100
2, 126960, Note_off_c, 0, 67, 64
2, 126960, Note_on_c, 0, 69, 100
2, 127200, Note_off_c, 0, 69, 64
2, 127200, Note_on_c, 0, 72, 100
2, 127920, Note_on_c, 0, 76, 100
2, 127927, Note_off_c, 0, 72, 64
2, 128160, Note_off_c, 0, 76, 64
2, 128160, Note_on_c, 0, 72, 100
2, 128400, Note_off_c, 0, 72, 64
2, 128400, Note_on_c, 0, 74, 100
2, 128640, Note_off_c, 0, 74, 64
2, 128640, Note_on_c, 0, 62, 100
2, 129120, Note_off_c, 0, 62, 64
2, 129120, Note_on_c, 0, 64, 100
2, 129360, Note_off_c, 0, 64, 64
2, 129360, Note_on_c, 0, 65, 100
2, 129600, Note_off_c, 0, 65, 64
2, 129600, Note_on_c, 0, 67, 100
2, 129840, Note_off_c, 0, 67, 64
2, 129840, Note_on_c, 0, 69, 100
2, 130080, Note_off_c, 0, 69, 64
2, 130080, Note_on_c, 0, 72, 100
2, 130560, Note_off_c, 0, 72, 64
2, 130560, Note_on_c, 0, 76, 100
2, 130800, Note_off_c, 0, 76, 64
2, 130800, Note_on_c, 0, 67, 100
2, 131760, Note_off_c, 0, 67, 64
2, 131760, Note_on_c, 0, 69, 100
2, 132000, Note_off_c, 0, 69, 64
2, 132000, Note_on_c, 0, 72, 100
2, 132240, Note_on_c, 0, 74, 100
2, 132247, Note_off_c, 0, 72, 64
2, 132480, Note_off_c, 0, 74, 64
2, 132480, Note_on_c, 0, 62, 100
2, 133440, Note_off_c, 0, 62, 64
2, 133440, Note_on_c, 0, 64, 100
2, 133680, Note_off_c, 0, 64, 64
2, 133920, Note_on_c, 0, 65, 100
2, 134400, Note_off_c, 0, 65, 64
2, 134400, Note_on_c, 0, 67, 100
2, 134640, Note_off_c, 0, 67, 64
2, 134640, Note_on_c, 0, 69, 100
2, 134880, Note_off_c, 0, 69, 64
2, 134880, Note_on_c, 0, 72, 100
2, 135600, Note_on_c, 0, 76, 100
2, 135607, Note_off_c, 0, 72, 64
2, 135840, Note_off_c, 0, 76, 64
2, 135840, Note_on_c, 0, 72, 100
2, 136080, Note_off_c, 0, 72, 64
2, 136080, Note_on_c, 0, 74, 100
2, 136320, Note_off_c, 0, 74, 64
2, 136320, Note_on_c, 0, 62, 100
2, 136800, Note_off_c, 0, 62, 64
2, 136800, Note_on_c, 0, 64, 100
2, 137040, Note_off_c, 0, 64, 64
2, 137040, Note_on_c, 0, 65, 100
2, 137280, Note_off_c, 0, 65, 64
2, 137280, Note_on_c, 0, 67, 100
2, 137520, Note_off_c, 0, 67, 64
2, 137520, Note_on_c, 0, 69, 100
2, 137760, Note_off_c, 0, 69, 64
2, 137760, Note_on_c, 0, 67, 100
2, 138000, Control_c, 0, 1, 127
2, 139200, Note_off_c, 0, 67, 64
2, 139200, Control_c, 0, 1, 127
2, 139200, Note_on_c, 0, 43, 100
2, 139920, Note_on_c, 0, 45, 100
2, 139920, Note_on_c, 0, 52, 100
2, 139920, Control_c, 0, 1, 0
2, 139920, Control_c, 0, 1, 0
2, 139927, Note_off_c, 0, 43, 64
2, 140633, Note_off_c, 0, 45, 64
2, 140633, Note_off_c, 0, 52, 64
2, 140640, Note_on_c, 0, 43, 100
2, 140880, Note_off_c, 0, 43, 64
2, 140880, Note_on_c, 0, 45, 100
2, 141113, Note_off_c, 0, 45, 64
2, 141360, Note_on_c, 0, 48, 100
2, 141600, Note_off_c, 0, 48, 64
2, 141600, Note_on_c, 0, 50, 100
2, 142320, Note_on_c, 0, 41, 100
2, 142327, Note_off_c, 0, 50, 64
2, 142560, Note_off_c, 0, 41, 64
2, 142560, Note_on_c, 0, 43, 100
2, 143280, Note_off_c, 0, 43, 64
2, 143280, Note_on_c, 0, 43, 100
2, 143520, Note_off_c, 0, 43, 64
2, 143520, Note_on_c, 0, 44, 100
2, 143760, Note_off_c, 0, 44, 64
2, 143760, Note_on_c, 0, 45, 100
2, 143760, Note_on_c, 0, 52, 100
2, 144473, Note_off_c, 0, 52, 64
2, 144473, Note_off_c, 0, 45, 64
2, 144480, Note_on_c, 0, 43, 100
2, 144720, Note_off_c, 0, 43, 64
2, 144720, Note_on_c, 0, 45, 100
2, 144960, Note_off_c, 0, 45, 64
2, 145200, Note_on_c, 0, 48, 100
2, 145440, Note_off_c, 0, 48, 64
2, 145440, Note_on_c, 0, 50, 100
2, 147600, Note_on_c, 0, 52, 100
2, 147600, Note_on_c, 0, 45, 100
2, 147607, Note_off_c, 0, 50, 64
2, 148313, Note_off_c, 0, 52, 64
2, 148313, Note_off_c, 0, 45, 64
2, 148320, Note_on_c, 0, 43, 100
2, 148560, Note_off_c, 0, 43, 64
2, 148560, Note_on_c, 0, 45, 100
2, 148793, Note_off_c, 0, 45, 64
2, 149040, Note_on_c, 0, 48, 100
2, 149280, Note_off_c, 0, 48, 64
2, 149280, Note_on_c, 0, 50, 100
2, 150000, Note_on_c, 0, 41, 100
2, 150007, Note_off_c, 0, 50, 64
2, 150240, Note_off_c, 0, 41, 64
2, 150240, Note_on_c, 0, 43, 100
2, 150960, Note_off_c, 0, 43, 64
2, 150960, Note_on_c, 0, 43, 100
2, 151200, Note_off_c, 0, 43, 64
2, 151200, Note_on_c, 0, 44, 100
2, 151440, Note_off_c, 0, 44, 64
2, 151440, Note_on_c, 0, 45, 100
2, 151440, Note_on_c, 0, 52, 100
2, 152153, Note_off_c, 0, 52, 64
2, 152153, Note_off_c, 0, 45, 64
2, 152160, Note_on_c, 0, 55, 100
2, 152180, Pitch_bend_c, 0, 10192
2, 152200, Pitch_bend_c, 0, 12192
2, 152220, Pitch_bend_c, 0, 14192
2, 152240, Pitch_bend_c, 0, 16192
2, 152400, Note_off_c, 0, 55, 64
2, 152400, Pitch_bend_c, 0, 8192
2, 152400, Note_on_c, 0, 55, 100
2, 152640, Note_off_c, 0, 55, 64
2, 152880, Note_on_c, 0, 50, 100
2, 152900, Pitch_bend_c, 0, 10192
2, 152920, Pitch_bend_c, 0, 12192
2, 153120, Note_off_c, 0, 50, 64
2, 153120, Pitch_bend_c, 0, 8192
2, 153120, Note_on_c, 0, 50, 100
2, 155280, Note_on_c, 0, 45, 100
2, 155280, Note_on_c, 0, 52, 100
2, 155280, Control_c, 0, 1, 0
2, 155287, Note_off_c, 0, 50, 64
2, 155993, Note_off_c, 0, 45, 64
2, 155993, Note_off_c, 0, 52, 64
2, 156000, Note_on_c, 0, 43, 100
2, 156240, Note_off_c, 0, 43, 64
2, 156240, Note_on_c, 0, 45, 100
2, 156473, Note_off_c, 0, 45, 64
2, 156720, Note_on_c, 0, 48, 100
2, 156960, Note_off_c, 0, 48, 64
2, 156960, Note_on_c, 0, 50, 100
2, 157680, Note_on_c, 0, 41, 100
2, 157687, Note_off_c, 0, 50, 64
2, 157920, Note_off_c, 0, 41, 64
2, 157920, Note_on_c, 0, 43, 100
2, 158640, Note_off_c, 0, 43, 64
2, 158640, Note_on_c, 0, 43, 100
2, 158880, Note_off_c, 0, 43, 64
2, 158880, Note_on_c, 0, 44, 100
2, 159120, Note_off_c, 0, 44, 64
2, 159120, Note_on_c, 0, 45, 100
2, 159120, Note_on_c, 0, 52, 100
2, 159833, Note_off_c, 0, 52, 64
2, 159833, Note_off_c, 0, 45, 64
2, 159840, Note_on_c, 0, 43, 100
2, 160080, Note_off_c, 0, 43, 64
2, 160080, Note_on_c, 0, 45, 100
2, 160320, Note_off_c, 0, 45, 64
2, 160560, Note_on_c, 0, 48, 100
2, 160800, Note_off_c, 0, 48, 64
2, 160800, Note_on_c, 0, 50, 100
2, 162960, Note_on_c, 0, 52, 100
2, 162960, Note_on_c, 0, 45, 100
2, 162967, Note_off_c, 0, 50, 64
2, 163673, Note_off_c, 0, 52, 64
2, 163673, Note_off_c, 0, 45, 64
2, 163680, Note_on_c, 0, 43, 100
2, 163920, Note_off_c, 0, 43, 64
2, 163920, Note_on_c, 0, 45, 100
2, 164153, Note_off_c, 0, 45, 64
2, 164400, Note_on_c, 0, 48, 100
2, 164640, Note_off_c, 0, 48, 64
2, 164640, Note_on_c, 0, 50, 100
2, 165360, Note_on_c, 0, 41, 100
2, 165367, Note_off_c, 0, 50, 64
2, 165600, Note_off_c, 0, 41, 64
2, 165600, Note_on_c, 0, 43, 100
2, 166320, Note_off_c, 0, 43, 64
2, 166320, Note_on_c, 0, 43, 100
2, 166560, Note_off_c, 0, 43, 64
2, 166560, Note_on_c, 0, 44, 100
2, 166800, Note_off_c, 0, 44, 64
2, 166800, Note_on_c, 0, 45, 100
2, 166800, Note_on_c, 0, 52, 100
2, 167513, Note_off_c, 0, 52, 64
2, 167513, Note_off_c, 0, 45, 64
2, 167520, Note_on_c, 0, 55, 100
2, 167540, Pitch_bend_c, 0, 10192
2, 167560, Pitch_bend_c, 0, 12192
2, 167580, Pitch_bend_c, 0, 14192
2, 167600, Pitch_bend_c, 0, 16192
2, 167760, Note_off_c, 0, 55, 64
2, 167760, Pitch_bend_c, 0, 8192
2, 167760, Note_on_c, 0, 55, 100
2, 168000, Note_off_c, 0, 55, 64
2, 168240, Note_on_c, 0, 50, 100
2, 168260, Pitch_bend_c, 0, 10192
2, 168280, Pitch_bend_c, 0, 12192
2, 168480, Note_off_c, 0, 50, 64
2, 168480, Pitch_bend_c, 0, 8192
2, 168480, Note_on_c, 0, 50, 100
2, 170640, Note_on_c, 0, 45, 100
2, 170640, Note_on_c, 0, 52, 100
2, 170640, Control_c, 0, 1, 0
2, 170647, Note_off_c, 0, 50, 64
2, 171353, Note_off_c, 0, 45, 64
2, 171353, Note_off_c, 0, 52, 64
2, 171360, Note_on_c, 0, 43, 100
2, 171600, Note_off_c, 0, 43, 64
2, 171600, Note_on_c, 0, 45, 100
2, 171833, Note_off_c, 0, 45, 64
2, 172080, Note_on_c, 0, 48, 100
2, 172320, Note_off_c, 0, 48, 64
2, 172320, Note_on_c, 0, 50, 100
2, 173040, Note_on_c, 0, 41, 100
2, 173047, Note_off_c, 0, 50, 64
2, 173280, Note_off_c, 0, 41, 64
2, 173280, Note_on_c, 0, 43, 100
2, 174000, Note_off_c, 0, 43, 64
2, 174000, Note_on_c, 0, 43, 100
2, 174240, Note_off_c, 0, 43, 64
2, 174240, Note_on_c, 0, 44, 100
2, 174480, Note_off_c, 0, 44, 64
2, 174480, Note_on_c, 0, 45, 100
2, 174480, Note_on_c, 0, 52, 100
2, 175193, Note_off_c, 0, 52, 64
2, 175193, Note_off_c, 0, 45, 64
2, 175200, Note_on_c, 0, 43, 100
2, 175440, Note_off_c, 0, 43, 64
2, 175440, Note_on_c, 0, 45, 100
2, 175680, Note_off_c, 0, 45, 64
2, 175920, Note_on_c, 0, 48, 100
2, 176160, Note_off_c, 0, 48, 64
2, 176160, Note_on_c, 0, 50, 100
2, 178320, Note_on_c, 0, 52, 100
2, 178320, Note_on_c, 0, 45, 100
2, 178327, Note_off_c, 0, 50, 64
2, 179033, Note_off_c, 0, 52, 64
2, 179033, Note_off_c, 0, 45, 64
2, 179040, Note_on_c, 0, 43, 100
2, 179280, Note_off_c, 0, 43, 64
2, 179280, Note_on_c, 0, 45, 100
2, 179513, Note_off_c, 0, 45, 64
2, 179760, Note_on_c, 0, 48, 100
2, 180000, Note_off_c, 0, 48, 64
2, 180000, Note_on_c, 0, 50, 100
2, 180720, Note_on_c, 0, 41, 100
2, 180727, Note_off_c, 0, 50, 64
2, 180960, Note_off_c, 0, 41, 64
2, 180960, Note_on_c, 0, 43, 100
2, 181680, Note_off_c, 0, 43, 64
2, 181680, Note_on_c, 0, 43, 100
2, 181920, Note_off_c, 0, 43, 64
2, 181920, Note_on_c, 0, 44, 100
2, 182160, Note_off_c, 0, 44, 64
2, 182160, Note_on_c, 0, 45, 100
2, 182160, Note_on_c, 0, 52, 100
2, 182873, Note_off_c, 0, 52, 64
2, 182873, Note_off_c, 0, 45, 64
2, 182880, Note_on_c, 0, 55, 100
2, 182900, Pitch_bend_c, 0, 10192
2, 182920, Pitch_bend_c, 0, 12192
2, 182940, Pitch_bend_c, 0, 14192
2, 182960, Pitch_bend_c, 0, 16192
2, 183120, Note_off_c, 0, 55, 64
2, 183120, Pitch_bend_c, 0, 8192
2, 183120, Note_on_c, 0, 55, 100
2, 183360, Note_off_c, 0, 55, 64
2, 183600, Note_on_c, 0, 50, 100
2, 183620, Pitch_bend_c, 0, 10192
2, 183640, Pitch_bend_c, 0, 12192
2, 183840, Note_off_c, 0, 50, 64
2, 183840, Pitch_bend_c, 0, 8192
2, 183840, Note_on_c, 0, 50, 100
2, 184800, Note_off_c, 0, 50, 64
2, 184800, Note_on_c, 0, 48, 100
2, 185040, Note_off_c, 0, 48, 64
2, 185040, Note_on_c, 0, 45, 100
2, 185273, Note_off_c, 0, 45, 64
2, 185520, Note_on_c, 0, 43, 100
2, 186000, Note_off_c, 0, 43, 64
2, 186000, Note_on_c, 0, 54, 100
2, 186000, Note_on_c, 0, 61, 100
2, 186713, Note_off_c, 0, 61, 64
2, 186713, Note_off_c, 0, 54, 64
2, 186717, Note_on_c, 0, 52, 100
2, 186957, Note_off_c, 0, 52, 64
2, 186957, Note_on_c, 0, 54, 100
2, 187190, Note_off_c, 0, 54, 64
2, 187437, Note_on_c, 0, 57, 100
2, 187677, Note_off_c, 0, 57, 64
2, 187677, Note_on_c, 0, 59, 100
2, 188397, Note_on_c, 0, 50, 100
2, 188404, Note_off_c, 0, 59, 64
2, 188637, Note_off_c, 0, 50, 64
2, 188637, Note_on_c, 0, 52, 100
2, 189357, Note_off_c, 0, 52, 64
2, 189357, Note_on_c, 0, 52, 100
2, 189597, Note_off_c, 0, 52, 64
2, 189597, Note_on_c, 0, 53, 100
2, 189837, Note_off_c, 0, 53, 64
2, 189837, Note_on_c, 0, 54, 100
2, 189840, Note_on_c, 0, 61, 100
2, 190550, Note_off_c, 0, 54, 64
2, 190553, Note_off_c, 0, 61, 64
2, 190557, Note_on_c, 0, 52, 100
2, 190797, Note_off_c, 0, 52, 64
2, 190797, Note_on_c, 0, 54, 100
2, 191037, Note_off_c, 0, 54, 64
2, 191277, Note_on_c, 0, 57, 100
2, 191517, Note_off_c, 0, 57, 64
2, 191517, Note_on_c, 0, 59, 100
2, 193680, Note_on_c, 0, 54, 100
2, 193680, Note_on_c, 0, 61, 100
2, 193684, Note_off_c, 0, 59, 64
2, 194393, Note_off_c, 0, 54, 64
2, 194393, Note_off_c, 0, 61, 64
2, 194400, Note_on_c, 0, 52, 100
2, 194640, Note_off_c, 0, 52, 64
2, 194640, Note_on_c, 0, 54, 100
2, 194873, Note_off_c, 0, 54, 64
2, 195120, Note_on_c, 0, 57, 100
2, 195360, Note_off_c, 0, 57, 64
2, 195360, Note_on_c, 0, 59, 100
2, 196080, Note_on_c, 0, 50, 100
2, 196087, Note_off_c, 0, 59, 64
2, 196320, Note_off_c, 0, 50, 64
2, 196320, Note_on_c, 0, 52, 100
2, 197040, Note_off_c, 0, 52, 64
2, 197040, Note_on_c, 0, 52, 100
2, 197280, Note_off_c, 0, 52, 64
2, 197280, Note_on_c, 0, 53, 100
2, 197520, Note_off_c, 0, 53, 64
2, 197520, Note_on_c, 0, 54, 100
2, 197520, Note_on_c, 0, 61, 100
2, 198233, Note_off_c, 0, 61, 64
2, 198233, Note_off_c, 0, 54, 64
2, 198240, Note_on_c, 0, 52, 100
2, 198260, Pitch_bend_c, 0, 10192
2, 198280, Pitch_bend_c, 0, 12192
2, 198300, Pitch_bend_c, 0, 14192
2, 198320, Pitch_bend_c, 0, 16192
2, 198480, Note_off_c, 0, 52, 64
2, 198480, Pitch_bend_c, 0, 8192
2, 198480, Note_on_c, 0, 52, 100
2, 198720, Note_off_c, 0, 52, 64
2, 198960, Note_on_c, 0, 47, 100
2, 198980, Pitch_bend_c, 0, 10192
2, 199000, Pitch_bend_c, 0, 12192
2, 199200, Note_off_c, 0, 47, 64
2, 199200, Pitch_bend_c, 0, 8192
2, 199200, Note_on_c, 0, 47, 100
2, 201360, Note_on_c, 0, 54, 100
2, 201360, Note_on_c, 0, 61, 100
2, 201367, Note_off_c, 0, 47, 64
2, 202073, Note_off_c, 0, 54, 64
2, 202073, Note_off_c, 0, 61, 64
2, 202077, Note_on_c, 0, 52, 100
2, 202317, Note_off_c, 0, 52, 64
2, 202317, Note_on_c, 0, 54, 100
2, 202550, Note_off_c, 0, 54, 64
2, 202797, Note_on_c, 0, 57, 100
2, 203037, Note_off_c, 0, 57, 64
2, 203037, Note_on_c, 0, 59, 100
2, 203757, Note_on_c, 0, 50, 100
2, 203764, Note_off_c, 0, 59, 64
2, 203997, Note_off_c, 0, 50, 64
2, 203997, Note_on_c, 0, 52, 100
2, 204717, Note_off_c, 0, 52, 64
2, 204717, Note_on_c, 0, 52, 100
2, 204957, Note_off_c, 0, 52, 64
2, 204957, Note_on_c, 0, 53, 100
2, 205197, Note_off_c, 0, 53, 64
2, 205197, Note_on_c, 0, 54, 100
2, 205200, Note_on_c, 0, 61, 100
2, 205910, Note_off_c, 0, 54, 64
2, 205913, Note_off_c, 0, 61, 64
2, 205917, Note_on_c, 0, 52, 100
2, 206157, Note_off_c, 0, 52, 64
2, 206157, Note_on_c, 0, 54, 100
2, 206397, Note_off_c, 0, 54, 64
2, 206637, Note_on_c, 0, 57, 100
2, 206877, Note_off_c, 0, 57, 64
2, 206877, Note_on_c, 0, 59, 100
2, 209040, Note_on_c, 0, 54, 100
2, 209040, Note_on_c, 0, 61, 100
2, 209044, Note_off_c, 0, 59, 64
2, 209753, Note_off_c, 0, 54, 64
2, 209753, Note_off_c, 0, 61, 64
2, 209760, Note_on_c, 0, 52, 100
2, 210000, Note_off_c, 0, 52, 64
2, 210000, Note_on_c, 0, 54, 100
2, 210233, Note_off_c, 0, 54, 64
2, 210480, Note_on_c, 0, 57, 100
2, 210720, Note_off_c, 0, 57, 64
2, 210720, Note_on_c, 0, 59, 100
2, 211440, Note_on_c, 0, 50, 100
2, 211447, Note_off_c, 0, 59, 64
2, 211680, Note_off_c, 0, 50, 64
2, 211680, Note_on_c, 0, 52, 100
2, 212400, Note_off_c, 0, 52, 64
2, 212400, Note_on_c, 0, 52, 100
2, 212640, Note_off_c, 0, 52, 64
2, 212640, Note_on_c, 0, 53, 100
2, 212880, Note_off_c, 0, 53, 64
2, 212880, Note_on_c, 0, 54, 100
2, 212880, Note_on_c, 0, 61, 100
2, 213593, Note_off_c, 0, 61, 64
2, 213593, Note_off_c, 0, 54, 64
2, 213600, Note_on_c, 0, 52, 100
2, 213620, Pitch_bend_c, 0, 10192
2, 213640, Pitch_bend_c, 0, 12192
2, 213660, Pitch_bend_c, 0, 14192
2, 213680, Pitch_bend_c, 0, 16192
2, 213840, Note_off_c, 0, 52, 64
2, 213840, Pitch_bend_c, 0, 8192
2, 213840, Note_on_c, 0, 52, 100
2, 214080, Note_off_c, 0, 52, 64
2, 214320, Note_on_c, 0, 47, 100
2, 214340, Pitch_bend_c, 0, 10192
2, 214360, Pitch_bend_c, 0, 12192
2, 214560, Note_off_c, 0, 47, 64
2, 214560, Pitch_bend_c, 0, 8192
2, 214560, Note_on_c, 0, 47, 100
2, 216720, Note_on_c, 0, 45, 100
2, 216720, Note_on_c, 0, 52, 100
2, 216720, Control_c, 0, 1, 0
2, 216727, Note_off_c, 0, 47, 64
2, 217433, Note_off_c, 0, 45, 64
2, 217433, Note_off_c, 0, 52, 64
2, 217440, Note_on_c, 0, 43, 100
2, 217680, Note_off_c, 0, 43, 64
2, 217680, Note_on_c, 0, 45, 100
2, 217913, Note_off_c, 0, 45, 64
2, 218160, Note_on_c, 0, 48, 100
2, 218400, Note_off_c, 0, 48, 64
2, 218400, Note_on_c, 0, 50, 100
2, 219120, Note_on_c, 0, 41, 100
2, 219127, Note_off_c, 0, 50, 64
2, 219360, Note_off_c, 0, 41, 64
2, 219360, Note_on_c, 0, 43, 100
2, 220080, Note_off_c, 0, 43, 64
2, 220080, Note_on_c, 0, 43, 100
2, 220320, Note_off_c, 0, 43, 64
2, 220320, Note_on_c, 0, 44, 100
2, 220560, Note_off_c, 0, 44, 64
2, 220560, Note_on_c, 0, 45, 100
2, 220560, Note_on_c, 0, 52, 100
2, 221273, Note_off_c, 0, 52, 64
2, 221273, Note_off_c, 0, 45, 64
2, 221280, Note_on_c, 0, 43, 100
2, 221520, Note_off_c, 0, 43, 64
2, 221520, Note_on_c, 0, 45, 100
2, 221760, Note_off_c, 0, 45, 64
2, 222000, Note_on_c, 0, 48, 100
2, 222240, Note_off_c, 0, 48, 64
2, 222240, Note_on_c, 0, 50, 100
2, 224400, Note_on_c, 0, 52, 100
2, 224400, Note_on_c, 0, 45, 100
2, 224407, Note_off_c, 0, 50, 64
2, 225113, Note_off_c, 0, 52, 64
2, 225113, Note_off_c, 0, 45, 64
2, 225120, Note_on_c, 0, 43, 100
2, 225360, Note_off_c, 0, 43, 64
2, 225360, Note_on_c, 0, 45, 100
2, 225593, Note_off_c, 0, 45, 64
2, 225840, Note_on_c, 0, 48, 100
2, 226080, Note_off_c, 0, 48, 64
2, 226080, Note_on_c, 0, 50, 100
2, 226800, Note_on_c, 0, 41, 100
2, 226807, Note_off_c, 0, 50, 64
2, 227040, Note_off_c, 0, 41, 64
2, 227040, Note_on_c, 0, 43, 100
2, 227760, Note_off_c, 0, 43, 64
2, 227760, Note_on_c, 0, 43, 100
2, 228000, Note_off_c, 0, 43, 64
2, 228000, Note_on_c, 0, 44, 100
2, 228240, Note_off_c, 0, 44, 64
2, 228240, Note_on_c, 0, 45, 100
2, 228240, Note_on_c, 0, 52, 100
2, 228953, Note_off_c, 0, 52, 64
2, 228953, Note_off_c, 0, 45, 64
2, 228960, Note_on_c, 0, 55, 100
2, 228980, Pitch_bend_c, 0, 10192
2, 229000, Pitch_bend_c, 0, 12192
2, 229020, Pitch_bend_c, 0, 14192
2, 229040, Pitch_bend_c, 0, 16192
2, 229200, Note_off_c, 0, 55, 64
2, 229200, Pitch_bend_c, 0, 8192
2, 229200, Note_on_c, 0, 55, 100
2, 229440, Note_off_c, 0, 55, 64
2, 229680, Note_on_c, 0, 50, 100
2, 229700, Pitch_bend_c, 0, 10192
2, 229720, Pitch_bend_c, 0, 12192
2, 229920, Note_off_c, 0, 50, 64
2, 229920, Pitch_bend_c, 0, 8192
2, 229920, Note_on_c, 0, 50, 100
2, 232080, Note_on_c, 0, 45, 100
2, 232080, Note_on_c, 0, 52, 100
2, 232080, Control_c, 0, 1, 0
2, 232087, Note_off_c, 0, 50, 64
2, 232793, Note_off_c, 0, 45, 64
2, 232793, Note_off_c, 0, 52, 64
2, 232800, Note_on_c, 0, 43, 100
2, 233040, Note_off_c, 0, 43, 64
2, 233040, Note_on_c, 0, 45, 100
2, 233273, Note_off_c, 0, 45, 64
2, 233520, Note_on_c, 0, 48, 100
2, 233760, Note_off_c, 0, 48, 64
2, 233760, Note_on_c, 0, 50, 100
2, 234480, Note_on_c, 0, 41, 100
2, 234487, Note_off_c, 0, 50, 64
2, 234720, Note_off_c, 0, 41, 64
2, 234720, Note_on_c, 0, 43, 100
2, 235440, Note_off_c, 0, 43, 64
2, 235440, Note_on_c, 0, 43, 100
2, 235680, Note_off_c, 0, 43, 64
2, 235680, Note_on_c, 0, 44, 100
2, 235920, Note_off_c, 0, 44, 64
2, 235920, Note_on_c, 0, 45, 100
2, 235920, Note_on_c, 0, 52, 100
2, 236633, Note_off_c, 0, 52, 64
2, 236633, Note_off_c, 0, 45, 64
2, 236640, Note_on_c, 0, 43, 100
2, 236880, Note_off_c, 0, 43, 64
2, 236880, Note_on_c, 0, 45, 100
2, 237120, Note_off_c, 0, 45, 64
2, 237360, Note_on_c, 0, 48, 100
2, 237600, Note_off_c, 0, 48, 64
2, 237600, Note_on_c, 0, 50, 100
2, 239760, Note_on_c, 0, 52, 100
2, 239760, Note_on_c, 0, 45, 100
2, 239767, Note_off_c, 0, 50, 64
2, 240473, Note_off_c, 0, 52, 64
2, 240473, Note_off_c, 0, 45, 64
2, 240480, Note_on_c, 0, 43, 100
2, 240720, Note_off_c, 0, 43, 64
2, 240720, Note_on_c, 0, 45, 100
2, 240953, Note_off_c, 0, 45, 64
2, 241200, Note_on_c, 0, 48, 100
2, 241440, Note_off_c, 0, 48, 64
2, 241440, Note_on_c, 0, 50, 100
2, 242160, Note_on_c, 0, 41, 100
2, 242167, Note_off_c, 0, 50, 64
2, 242400, Note_off_c, 0, 41, 64
2, 242400, Note_on_c, 0, 43, 100
2, 243120, Note_off_c, 0, 43, 64
2, 243120, Note_on_c, 0, 43, 100
2, 243360, Note_off_c, 0, 43, 64
2, 243360, Note_on_c, 0, 44, 100
2, 243600, Note_off_c, 0, 44, 64
2, 243600, Note_on_c, 0, 45, 100
2, 243600, Note_on_c, 0, 52, 100
2, 244313, Note_off_c, 0, 52, 64
2, 244313, Note_off_c, 0, 45, 64
2, 244320, Note_on_c, 0, 55, 100
2, 244340, Pitch_bend_c, 0, 10192
2, 244360, Pitch_bend_c, 0, 12192
2, 244380, Pitch_bend_c, 0, 14192
2, 244400, Pitch_bend_c, 0, 16192
2, 244560, Note_off_c, 0, 55, 64
2, 244560, Pitch_bend_c, 0, 8192
2, 244560, Note_on_c, 0, 55, 100
2, 244800, Note_off_c, 0, 55, 64
2, 245040, Note_on_c, 0, 50, 100
2, 245060, Pitch_bend_c, 0, 10192
2, 245080, Pitch_bend_c, 0, 12192
2, 245280, Note_off_c, 0, 50, 64
2, 245280, Pitch_bend_c, 0, 8192
2, 245280, Note_on_c, 0, 50, 100
2, 246240, Note_off_c, 0, 50, 64
2, 246240, Note_on_c, 0, 48, 100
2, 246480, Note_off_c, 0, 48, 64
2, 246480, Note_on_c, 0, 45, 100
2, 246713, Note_off_c, 0, 45, 64
2, 246960, Note_on_c, 0, 43, 100
2, 247193, Note_off_c, 0, 43, 64
2, 247200, Note_on_c, 0, 42, 100
2, 247200, Note_on_c, 0, 49, 100
2, 247440, Control_c, 0, 1, 0
2, 248160, Note_off_c, 0, 49, 64
2, 248160, Note_off_c, 0, 42, 64
2, 248160, Note_on_c, 0, 40, 100
2, 248400, Note_off_c, 0, 40, 64
2, 248400, Note_on_c, 0, 42, 100
2, 248633, Note_off_c, 0, 42, 64
2, 248880, Note_on_c, 0, 45, 100
2, 249120, Note_off_c, 0, 45, 64
2, 249120, Note_on_c, 0, 47, 100
2, 249840, Note_on_c, 0, 50, 100
2, 249847, Note_off_c, 0, 47, 64
2, 250080, Note_off_c, 0, 50, 64
2, 250080, Note_on_c, 0, 52, 100
2, 250800, Note_off_c, 0, 52, 64
2, 250800, Note_on_c, 0, 40, 100
2, 251040, Note_off_c, 0, 40, 64
2, 251040, Note_on_c, 0, 41, 100
2, 251280, Note_off_c, 0, 41, 64
2, 251280, Note_on_c, 0, 42, 100
2, 251280, Note_on_c, 0, 49, 100
2, 251993, Note_off_c, 0, 49, 64
2, 251993, Note_off_c, 0, 42, 64
2, 252000, Note_on_c, 0, 40, 100
2, 252240, Note_off_c, 0, 40, 64
2, 252240, Note_on_c, 0, 42, 100
2, 252480, Note_off_c, 0, 42, 64
2, 252720, Note_on_c, 0, 45, 100
2, 252960, Note_off_c, 0, 45, 64
2, 252960, Note_on_c, 0, 47, 100
2, 255120, Note_on_c, 0, 42, 100
2, 255120, Note_on_c, 0, 49, 100
2, 255127, Note_off_c, 0, 47, 64
2, 255833, Note_off_c, 0, 42, 64
2, 255833, Note_off_c, 0, 49, 64
2, 255840, Note_on_c, 0, 40, 100
2, 256080, Note_off_c, 0, 40, 64
2, 256080, Note_on_c, 0, 42, 100
2, 256313, Note_off_c, 0, 42, 64
2, 256560, Note_on_c, 0, 45, 100
2, 256800, Note_off_c, 0, 45, 64
2, 256800, Note_on_c, 0, 47, 100
2, 257520, Note_on_c, 0, 38, 100
2, 257527, Note_off_c, 0, 47, 64
2, 257760, Note_off_c, 0, 38, 64
2, 257760, Note_on_c, 0, 40, 100
2, 258480, Note_off_c, 0, 40, 64
2, 258480, Note_on_c, 0, 40, 100
2, 258720, Note_off_c, 0, 40, 64
2, 258720, Note_on_c, 0, 41, 100
2, 258960, Note_off_c, 0, 41, 64
2, 258960, Note_on_c, 0, 42, 100
2, 258960, Note_on_c, 0, 49, 100
2, 259673, Note_off_c, 0, 49, 64
2, 259673, Note_off_c, 0, 42, 64
2, 259680, Note_on_c, 0, 52, 100
2, 259700, Pitch_bend_c, 0, 10192
2, 259720, Pitch_bend_c, 0, 12192
2, 259740, Pitch_bend_c, 0, 14192
2, 259760, Pitch_bend_c, 0, 16192
2, 259920, Note_off_c, 0, 52, 64
2, 259920, Pitch_bend_c, 0, 8192
2, 259920, Note_on_c, 0, 52, 100
2, 260160, Note_off_c, 0, 52, 64
2, 260400, Note_on_c, 0, 47, 100
2, 260420, Pitch_bend_c, 0, 10192
2, 260440, Pitch_bend_c, 0, 12192
2, 260640, Note_off_c, 0, 47, 64
2, 260640, Pitch_bend_c, 0, 8192
2, 260640, Note_on_c, 0, 47, 100
2, 262800, Control_c, 0, 1, 0
2, 262800, Note_on_c, 0, 42, 100
2, 262800, Note_on_c, 0, 49, 100
2, 262807, Note_off_c, 0, 47, 64
2, 263513, Note_off_c, 0, 42, 64
2, 263513, Note_off_c, 0, 49, 64
2, 263520, Note_on_c, 0, 40, 100
2, 263760, Note_off_c, 0, 40, 64
2, 263760, Note_on_c, 0, 42, 100
2, 263993, Note_off_c, 0, 42, 64
2, 264240, Note_on_c, 0, 45, 100
2, 264480, Note_off_c, 0, 45, 64
2, 264480, Note_on_c, 0, 47, 100
2, 265200, Note_on_c, 0, 50, 100
2, 265207, Note_off_c, 0, 47, 64
2, 265440, Note_off_c, 0, 50, 64
2, 265440, Note_on_c, 0, 52, 100
2, 266160, Note_off_c, 0, 52, 64
2, 266160, Note_on_c, 0, 40, 100
2, 266400, Note_off_c, 0, 40, 64
2, 266400, Note_on_c, 0, 41, 100
2, 266640, Note_off_c, 0, 41, 64
2, 266640, Note_on_c, 0, 42, 100
2, 266640, Note_on_c, 0, 49, 100
2, 267353, Note_off_c, 0, 49, 64
2, 267353, Note_off_c, 0, 42, 64
2, 267360, Note_on_c, 0, 40, 100
2, 267600, Note_off_c, 0, 40, 64
2, 267600, Note_on_c, 0, 42, 100
2, 267840, Note_off_c, 0, 42, 64
2, 268080, Note_on_c, 0, 45, 100
2, 268320, Note_off_c, 0, 45, 64
2, 268320, Note_on_c, 0, 47, 100
2, 270480, Note_on_c, 0, 49, 100
2, 270480, Note_on_c, 0, 42, 100
2, 270487, Note_off_c, 0, 47, 64
2, 271193, Note_off_c, 0, 49, 64
2, 271193, Note_off_c, 0, 42, 64
2, 271200, Note_on_c, 0, 40, 100
2, 271440, Note_off_c, 0, 40, 64
2, 271440, Note_on_c, 0, 42, 100
2, 271673, Note_off_c, 0, 42, 64
2, 271920, Note_on_c, 0, 45, 100
2, 272160, Note_off_c, 0, 45, 64
2, 272160, Note_on_c, 0, 47, 100
2, 272880, Note_on_c, 0, 38, 100
2, 272887, Note_off_c, 0, 47, 64
2, 273120, Note_off_c, 0, 38, 64
2, 273120, Note_on_c, 0, 40, 100
2, 273840, Note_off_c, 0, 40, 64
2, 273840, Note_on_c, 0, 40, 100
2, 274080, Note_off_c, 0, 40, 64
2, 274080, Note_on_c, 0, 41, 100
2, 274320, Note_off_c, 0, 41, 64
2, 274320, Note_on_c, 0, 42, 100
2, 274320, Note_on_c, 0, 49, 100
2, 275033, Note_off_c, 0, 49, 64
2, 275033, Note_off_c, 0, 42, 64
2, 275040, Note_on_c, 0, 52, 100
2, 275060, Pitch_bend_c, 0, 10192
2, 275080, Pitch_bend_c, 0, 12192
2, 275100, Pitch_bend_c, 0, 14192
2, 275120, Pitch_bend_c, 0, 16192
2, 275280, Note_off_c, 0, 52, 64
2, 275280, Pitch_bend_c, 0, 8192
2, 275280, Note_on_c, 0, 52, 100
2, 275520, Note_off_c, 0, 52, 64
2, 275760, Note_on_c, 0, 47, 100
2, 275780, Pitch_bend_c, 0, 10192
2, 275800, Pitch_bend_c, 0, 12192
2, 276000, Note_off_c, 0, 47, 64
2, 276000, Pitch_bend_c, 0, 8192
2, 276000, Note_on_c, 0, 47, 100
2, 276247, Note_off_c, 0, 47, 64
2, 319680, Note_on_c, 0, 47, 100
2, 319927, Note_off_c, 0, 47, 64
2, 320400, Note_on_c, 0, 45, 100
2, 320520, Note_off_c, 0, 45, 64
2, 320640, Note_on_c, 0, 47, 100
2, 320730, Note_off_c, 0, 47, 64
2, 320760, Note_on_c, 0, 47, 100
2, 320850, Note_off_c, 0, 47, 64
2, 320880, Note_on_c, 0, 45, 100
2, 321000, Note_off_c, 0, 45, 64
2, 321000, Note_on_c, 0, 47, 100
2, 321090, Note_off_c, 0, 47, 64
2, 321120, Note_on_c, 0, 45, 100
2, 321210, Note_off_c, 0, 45, 64
2, 321240, Note_on_c, 0, 59, 100
2, 321360, Note_off_c, 0, 59, 64
2, 321360, Note_on_c, 0, 61, 100
2, 321840, Note_off_c, 0, 61, 64
2, 321840, Note_on_c, 0, 59, 100
2, 321960, Note_off_c, 0, 59, 64
2, 321960, Note_on_c, 0, 59, 100
2, 322080, Note_off_c, 0, 59, 64
2, 322080, Note_on_c, 0, 54, 100
2, 322200, Note_off_c, 0, 54, 64
2, 322200, Note_on_c, 0, 54, 100
2, 322320, Note_off_c, 0, 54, 64
2, 322320, Note_on_c, 0, 62, 100
2, 322440, Note_off_c, 0, 62, 64
2, 322440, Note_on_c, 0, 62, 100
2, 322560, Note_off_c, 0, 62, 64
2, 322560, Note_on_c, 0, 54, 100
2, 322680, Note_off_c, 0, 54, 64
2, 322680, Note_on_c, 0, 54, 100
2, 322800, Note_off_c, 0, 54, 64
2, 322800, Note_on_c, 0, 61, 100
2, 322920, Note_off_c, 0, 61, 64
2, 322920, Note_on_c, 0, 61, 100
2, 323040, Note_off_c, 0, 61, 64
2, 323040, Note_on_c, 0, 59, 100
2, 323280, Note_off_c, 0, 59, 64
2, 323280, Note_on_c, 0, 47, 100
2, 323527, Note_off_c, 0, 47, 64
2, 324000, Note_on_c, 0, 45, 100
2, 324120, Note_off_c, 0, 45, 64
2, 324240, Note_on_c, 0, 47, 100
2, 324330, Note_off_c, 0, 47, 64
2, 324360, Note_on_c, 0, 47, 100
2, 324450, Note_off_c, 0, 47, 64
2, 324480, Note_on_c, 0, 45, 100
2, 324600, Note_off_c, 0, 45, 64
2, 324600, Note_on_c, 0, 47, 100
2, 324690, Note_off_c, 0, 47, 64
2, 324720, Note_on_c, 0, 47, 100
2, 324810, Note_off_c, 0, 47, 64
2, 324840, Note_on_c, 0, 45, 100
2, 324960, Note_off_c, 0, 45, 64
2, 324960, Note_on_c, 0, 47, 100
2, 325200, Note_off_c, 0, 47, 64
2, 325440, Note_on_c, 0, 47, 100
2, 325560, Note_off_c, 0, 47, 64
2, 325920, Note_on_c, 0, 47, 100
2, 326040, Note_off_c, 0, 47, 64
2, 326040, Note_on_c, 0, 54, 100
2, 326160, Note_off_c, 0, 54, 64
2, 326160, Note_on_c, 0, 59, 100
2, 326280, Note_off_c, 0, 59, 64
2, 326280, Note_on_c, 0, 61, 100
2, 326400, Note_off_c, 0, 61, 64
2, 326400, Note_on_c, 0, 59, 100
2, 326520, Note_off_c, 0, 59, 64
2, 326520, Note_on_c, 0, 54, 100
2, 326640, Note_off_c, 0, 54, 64
2, 326640, Note_on_c, 0, 47, 100
2, 326887, Note_off_c, 0, 47, 64
2, 327360, Note_on_c, 0, 45, 100
2, 327480, Note_off_c, 0, 45, 64
2, 327600, Note_on_c, 0, 47, 100
2, 327690, Note_off_c, 0, 47, 64
2, 327720, Note_on_c, 0, 47, 100
2, 327810, Note_off_c, 0, 47, 64
2, 327840, Note_on_c, 0, 45, 100
2, 327960, Note_off_c, 0, 45, 64
2, 327960, Note_on_c, 0, 47, 100
2, 328050, Note_off_c, 0, 47, 64
2, 328080, Note_on_c, 0, 45, 100
2, 328170, Note_off_c, 0, 45, 64
2, 328200, Note_on_c, 0, 59, 100
2, 328320, Note_off_c, 0, 59, 64
2, 328320, Note_on_c, 0, 61, 100
2, 328800, Note_off_c, 0, 61, 64
2, 328800, Note_on_c, 0, 59, 100
2, 328920, Note_off_c, 0, 59, 64
2, 328920, Note_on_c, 0, 59, 100
2, 329040, Note_off_c, 0, 59, 64
2, 329040, Note_on_c, 0, 54, 100
2, 329160, Note_off_c, 0, 54, 64
2, 329160, Note_on_c, 0, 54, 100
2, 329280, Note_off_c, 0, 54, 64
2, 329280, Note_on_c, 0, 62, 100
2, 329400, Note_off_c, 0, 62, 64
2, 329400, Note_on_c, 0, 62, 100
2, 329520, Note_off_c, 0, 62, 64
2, 329520, Note_on_c, 0, 54, 100
2, 329640, Note_off_c, 0, 54, 64
2, 329640, Note_on_c, 0, 54, 100
2, 329760, Note_off_c, 0, 54, 64
2, 329760, Note_on_c, 0, 61, 100
2, 329880, Note_off_c, 0, 61, 64
2, 329880, Note_on_c, 0, 61, 100
2, 330000, Note_off_c, 0, 61, 64
2, 330000, Note_on_c, 0, 59, 100
2, 330240, Note_off_c, 0, 59, 64
2, 330240, Note_on_c, 0, 47, 100
2, 330487, Note_off_c, 0, 47, 64
2, 330960, Note_on_c, 0, 45, 100
2, 331080, Note_off_c, 0, 45, 64
2, 331200, Note_on_c, 0, 47, 100
2, 331290, Note_off_c, 0, 47, 64
2, 331320, Note_on_c, 0, 47, 100
2, 331410, Note_off_c, 0, 47, 64
2, 331440, Note_on_c, 0, 45, 100
2, 331560, Note_off_c, 0, 45, 64
2, 331560, Note_on_c, 0, 47, 100
2, 331650, Note_off_c, 0, 47, 64
2, 331680, Note_on_c, 0, 47, 100
2, 331770, Note_off_c, 0, 47, 64
2, 331800, Note_on_c, 0, 45, 100
2, 331920, Note_off_c, 0, 45, 64
2, 331920, Note_on_c, 0, 47, 100
2, 332160, Note_off_c, 0, 47, 64
2, 332400, Note_on_c, 0, 47, 100
2, 332520, Note_off_c, 0, 47, 64
2, 332880, Note_on_c, 0, 47, 100
2, 333000, Note_off_c, 0, 47, 64
2, 333000, Note_on_c, 0, 54, 100
2, 333120, Note_off_c, 0, 54, 64
2, 333120, Note_on_c, 0, 59, 100
2, 333240, Note_off_c, 0, 59, 64
2, 333240, Note_on_c, 0, 61, 100
2, 333360, Note_off_c, 0, 61, 64
2, 333360, Note_on_c, 0, 59, 100
2, 333480, Note_off_c, 0, 59, 64
2, 333480, Note_on_c, 0, 54, 100
2, 333600, Note_off_c, 0, 54, 64
2, 333600, Note_on_c, 0, 47, 100
2, 333833, Note_off_c, 0, 47, 64
2, 334320, Note_on_c, 0, 45, 100
2, 334440, Note_off_c, 0, 45, 64
2, 334560, Note_on_c, 0, 47, 100
2, 334650, Note_off_c, 0, 47, 64
2, 334680, Note_on_c, 0, 47, 100
2, 334770, Note_off_c, 0, 47, 64
2, 334800, Note_on_c, 0, 45, 100
2, 334920, Note_off_c, 0, 45, 64
2, 334920, Note_on_c, 0, 47, 100
2, 335010, Note_off_c, 0, 47, 64
2, 335040, Note_on_c, 0, 45, 100
2, 335130, Note_off_c, 0, 45, 64
2, 335160, Note_on_c, 0, 59, 100
2, 335280, Note_off_c, 0, 59, 64
2, 335280, Note_on_c, 0, 61, 100
2, 336240, Note_off_c, 0, 61, 64
2, 336240, Note_on_c, 0, 62, 100
2, 337200, Note_off_c, 0, 62, 64
2, 337200, Note_on_c, 0, 47, 100
2, 337447, Note_off_c, 0, 47, 64
2, 337920, Note_on_c, 0, 45, 100
2, 338040, Note_off_c, 0, 45, 64
2, 338160, Note_on_c, 0, 47, 100
2, 338250, Note_off_c, 0, 47, 64
2, 338280, Note_on_c, 0, 47, 100
2, 338370, Note_off_c, 0, 47, 64
2, 338400, Note_on_c, 0, 45, 100
2, 338520, Note_off_c, 0, 45, 64
2, 338520, Note_on_c, 0, 47, 100
2, 338610, Note_off_c, 0, 47, 64
2, 338640, Note_on_c, 0, 47, 100
2, 338730, Note_off_c, 0, 47, 64
2, 338760, Note_on_c, 0, 45, 100
2, 338880, Note_off_c, 0, 45, 64
2, 338880, Note_on_c, 0, 47, 100
2, 339000, Note_off_c, 0, 47, 64
2, 339360, Note_on_c, 0, 47, 100
2, 339480, Note_off_c, 0, 47, 64
2, 339840, Note_on_c, 0, 47, 100
2, 339960, Note_off_c, 0, 47, 64
2, 340560, Note_on_c, 0, 47, 100
2, 340793, Note_off_c, 0, 47, 64
2, 341280, Note_on_c, 0, 45, 100
2, 341400, Note_off_c, 0, 45, 64
2, 341520, Note_on_c, 0, 47, 100
2, 341610, Note_off_c, 0, 47, 64
2, 341640, Note_on_c, 0, 47, 100
2, 341730, Note_off_c, 0, 47, 64
2, 341760, Note_on_c, 0, 45, 100
2, 341880, Note_off_c, 0, 45, 64
2, 341880, Note_on_c, 0, 47, 100
2, 341970, Note_off_c, 0, 47, 64
2, 342000, Note_on_c, 0, 45, 100
2, 342090, Note_off_c, 0, 45, 64
2, 342120, Note_on_c, 0, 59, 100
2, 342240, Note_off_c, 0, 59, 64
2, 342240, Note_on_c, 0, 61, 100
2, 343200, Note_off_c, 0, 61, 64
2, 343200, Note_on_c, 0, 62, 100
2, 344160, Note_off_c, 0, 62, 64
2, 344160, Note_on_c, 0, 47, 100
2, 344407, Note_off_c, 0, 47, 64
2, 344880, Note_on_c, 0, 45, 100
2, 345000, Note_off_c, 0, 45, 64
2, 345120, Note_on_c, 0, 47, 100
2, 345210, Note_off_c, 0, 47, 64
2, 345240, Note_on_c, 0, 47, 100
2, 345330, Note_off_c, 0, 47, 64
2, 345360, Note_on_c, 0, 45, 100
2, 345480, Note_off_c, 0, 45, 64
2, 345480, Note_on_c, 0, 47, 100
2, 345570, Note_off_c, 0, 47, 64
2, 345600, Note_on_c, 0, 47, 100
2, 345690, Note_off_c, 0, 47, 64
2, 345720, Note_on_c, 0, 45, 100
2, 345840, Note_off_c, 0, 45, 64
2, 345840, Note_on_c, 0, 47, 100
2, 345960, Note_off_c, 0, 47, 64
2, 347520, Note_on_c, 0, 47, 100
2, 347760, Note_off_c, 0, 47, 64
2, 348480, Note_on_c, 0, 54, 90
2, 348480, Note_on_c, 0, 47, 90
2, 348480, Note_on_c, 0, 59, 90
2, 350153, Note_off_c, 0, 59, 64
2, 350153, Note_off_c, 0, 47, 64
2, 350153, Note_off_c, 0, 54, 64
2, 350160, Note_on_c, 0, 61, 90
2, 350160, Note_on_c, 0, 49, 90
2, 350160, Note_on_c, 0, 57, 90
2, 351120, Note_off_c, 0, 57, 64
2, 351120, Note_off_c, 0, 49, 64
2, 351120, Note_off_c, 0, 61, 64
2, 351120, Note_on_c, 0, 62, 90
2, 351120, Note_on_c, 0, 55, 90
2, 351120, Note_on_c, 0, 50, 90
2, 352080, Note_off_c, 0, 50, 64
2, 352080, Note_off_c, 0, 55, 64
2, 352080, Note_off_c, 0, 62, 64
2, 352080, Note_on_c, 0, 54, 90
2, 352080, Note_on_c, 0, 47, 90
2, 352080, Note_on_c, 0, 59, 90
2, 353040, Note_off_c, 0, 59, 64
2, 353040, Note_off_c, 0, 47, 64
2, 353040, Note_off_c, 0, 54, 64
2, 353040, Note_on_c, 0, 57, 90
2, 353040, Note_on_c, 0, 52, 90
2, 353040, Note_on_c, 0, 45, 90
2, 353040, Note_on_c, 0, 59, 100
2, 353760, Note_on_c, 0, 54, 90
2, 353760, Note_on_c, 0, 43, 90
2, 353760, Note_on_c, 0, 59, 100
2, 353767, Note_off_c, 0, 59, 64
2, 353767, Note_off_c, 0, 45, 64
2, 353767, Note_off_c, 0, 52, 64
2, 353767, Note_off_c, 0, 57, 64
2, 355433, Note_off_c, 0, 54, 64
2, 355433, Note_off_c, 0, 43, 64
2, 355433, Note_off_c, 0, 59, 64
2, 355440, Note_on_c, 0, 59, 90
2, 355440, Note_on_c, 0, 47, 90
2, 355440, Note_on_c, 0, 54, 90
2, 357113, Note_off_c, 0, 54, 64
2, 357113, Note_off_c, 0, 47, 64
2, 357113, Note_off_c, 0, 59, 64
2, 357120, Note_on_c, 0, 61, 90
2, 357120, Note_on_c, 0, 49, 90
2, 357120, Note_on_c, 0, 57, 90
2, 358080, Note_off_c, 0, 57, 64
2, 358080, Note_off_c, 0, 49, 64
2, 358080, Note_off_c, 0, 61, 64
2, 358080, Note_on_c, 0, 62, 90
2, 358080, Note_on_c, 0, 50, 90
2, 358080, Note_on_c, 0, 57, 90
2, 359040, Note_off_c, 0, 57, 64
2, 359040, Note_off_c, 0, 50, 64
2, 359040, Note_off_c, 0, 62, 64
2, 359040, Note_on_c, 0, 64, 90
2, 359040, Note_on_c, 0, 59, 90
2, 359040, Note_on_c, 0, 52, 90
2, 360000, Note_off_c, 0, 52, 64
2, 360000, Note_off_c, 0, 59, 64
2, 360000, Note_off_c, 0, 64, 64
2, 360000, Note_on_c, 0, 62, 90
2, 360000, Note_on_c, 0, 50, 90
2, 360000, Note_on_c, 0, 57, 90
2, 360720, Note_on_c, 0, 60, 90
2, 360720, Note_on_c, 0, 48, 90
2, 360720, Note_on_c, 0, 55, 90
2, 360727, Note_off_c, 0, 57, 64
2, 360727, Note_off_c, 0, 50, 64
2, 360727, Note_off_c, 0, 62, 64
2, 362393, Note_off_c, 0, 60, 64
2, 362393, Note_off_c, 0, 48, 64
2, 362393, Note_off_c, 0, 55, 64
2, 362400, Note_on_c, 0, 54, 90
2, 362400, Note_on_c, 0, 47, 90
2, 362400, Note_on_c, 0, 59, 90
2, 364073, Note_off_c, 0, 59, 64
2, 364073, Note_off_c, 0, 47, 64
2, 364073, Note_off_c, 0, 54, 64
2, 364080, Note_on_c, 0, 61, 90
2, 364080, Note_on_c, 0, 49, 90
2, 364080, Note_on_c, 0, 57, 90
2, 365040, Note_off_c, 0, 57, 64
2, 365040, Note_off_c, 0, 49, 64
2, 365040, Note_off_c, 0, 61, 64
2, 365040, Note_on_c, 0, 62, 90
2, 365040, Note_on_c, 0, 55, 90
2, 365040, Note_on_c, 0, 50, 90
2, 366000, Note_off_c, 0, 50, 64
2, 366000, Note_off_c, 0, 55, 64
2, 366000, Note_off_c, 0, 62, 64
2, 366000, Note_on_c, 0, 54, 90
2, 366000, Note_on_c, 0, 47, 90
2, 366000, Note_on_c, 0, 59, 90
2, 366960, Note_off_c, 0, 59, 64
2, 366960, Note_off_c, 0, 47, 64
2, 366960, Note_off_c, 0, 54, 64
2, 366960, Note_on_c, 0, 57, 90
2, 366960, Note_on_c, 0, 52, 90
2, 366960, Note_on_c, 0, 45, 90
2, 366960, Note_on_c, 0, 59, 100
2, 367680, Note_on_c, 0, 54, 90
2, 367680, Note_on_c, 0, 43, 90
2, 367680, Note_on_c, 0, 59, 100
2, 367687, Note_off_c, 0, 59, 64
2, 367687, Note_off_c, 0, 45, 64
2, 367687, Note_off_c, 0, 52, 64
2, 367687, Note_off_c, 0, 57, 64
2, 369353, Note_off_c, 0, 54, 64
2, 369353, Note_off_c, 0, 43, 64
2, 369353, Note_off_c, 0, 59, 64
2, 369360, Note_on_c, 0, 59, 90
2, 369360, Note_on_c, 0, 47, 90
2, 369360, Note_on_c, 0, 54, 90
2, 371033, Note_off_c, 0, 54, 64
2, 371033, Note_off_c, 0, 47, 64
2, 371033, Note_off_c, 0, 59, 64
2, 371040, Note_on_c, 0, 61, 90
2, 371040, Note_on_c, 0, 49, 90
2, 371040, Note_on_c, 0, 57, 90
2, 372000, Note_off_c, 0, 57, 64
2, 372000, Note_off_c, 0, 49, 64
2, 372000, Note_off_c, 0, 61, 64
2, 372000, Note_on_c, 0, 62, 90
2, 372000, Note_on_c, 0, 50, 90
2, 372000, Note_on_c, 0, 57, 90
2, 372960, Note_off_c, 0, 57, 64
2, 372960, Note_off_c, 0, 50, 64
2, 372960, Note_off_c, 0, 62, 64
2, 372960, Note_on_c, 0, 64, 90
2, 372960, Note_on_c, 0, 59, 90
2, 372960, Note_on_c, 0, 52, 90
2, 373920, Note_off_c, 0, 52, 64
2, 373920, Note_off_c, 0, 59, 64
2, 373920, Note_off_c, 0, 64, 64
2, 373920, Note_on_c, 0, 62, 90
2, 373920, Note_on_c, 0, 50, 90
2, 373920, Note_on_c, 0, 57, 90
2, 374640, Note_on_c, 0, 60, 90
2, 374640, Note_on_c, 0, 48, 90
2, 374640, Note_on_c, 0, 55, 90
2, 374647, Note_off_c, 0, 57, 64
2, 374647, Note_off_c, 0, 50, 64
2, 374647, Note_off_c, 0, 62, 64
2, 376313, Note_off_c, 0, 60, 64
2, 376313, Note_off_c, 0, 48, 64
2, 376313, Note_off_c, 0, 55, 64
2, 376320, Note_on_c, 0, 59, 100
2, 376440, Note_off_c, 0, 59, 64
2, 376440, Note_on_c, 0, 61, 100
2, 376560, Note_off_c, 0, 61, 64
2, 376560, Note_on_c, 0, 62, 100
2, 376680, Note_off_c, 0, 62, 64
2, 376680, Note_on_c, 0, 66, 100
2, 376800, Note_off_c, 0, 66, 64
2, 376800, Note_on_c, 0, 62, 100
2, 376920, Note_off_c, 0, 62, 64
2, 376920, Note_on_c, 0, 61, 100
2, 377040, Note_off_c, 0, 61, 64
2, 377040, Note_on_c, 0, 62, 100
2, 377160, Note_off_c, 0, 62, 64
2, 377160, Note_on_c, 0, 59, 100
2, 377280, Note_off_c, 0, 59, 64
2, 377280, Note_on_c, 0, 61, 100
2, 377400, Note_off_c, 0, 61, 64
2, 377400, Note_on_c, 0, 62, 100
2, 377520, Note_off_c, 0, 62, 64
2, 377520, Note_on_c, 0, 66, 100
2, 377640, Note_off_c, 0, 66, 64
2, 377640, Note_on_c, 0, 67, 100
2, 377760, Note_off_c, 0, 67, 64
2, 377760, Note_on_c, 0, 71, 100
2, 377880, Note_off_c, 0, 71, 64
2, 377880, Note_on_c, 0, 67, 100
2, 378000, Note_off_c, 0, 67, 64
2, 378000, Note_on_c, 0, 66, 100
2, 378120, Note_off_c, 0, 66, 64
2, 378120, Note_on_c, 0, 67, 100
2, 378240, Note_off_c, 0, 67, 64
2, 378240, Note_on_c, 0, 62, 100
2, 378360, Note_off_c, 0, 62, 64
2, 378360, Note_on_c, 0, 66, 100
2, 378480, Note_off_c, 0, 66, 64
2, 378480, Note_on_c, 0, 67, 100
2, 378600, Note_off_c, 0, 67, 64
2, 378600, Note_on_c, 0, 71, 100
2, 378720, Note_off_c, 0, 71, 64
2, 378720, Note_on_c, 0, 71, 100
2, 378840, Note_off_c, 0, 71, 64
2, 378840, Note_on_c, 0, 76, 100
2, 378960, Note_off_c, 0, 76, 64
2, 378960, Note_on_c, 0, 71, 100
2, 379080, Note_off_c, 0, 71, 64
2, 379080, Note_on_c, 0, 71, 100
2, 379200, Note_off_c, 0, 71, 64
2, 379200, Note_on_c, 0, 67, 100
2, 379320, Note_off_c, 0, 67, 64
2, 379320, Note_on_c, 0, 71, 100
2, 379440, Note_off_c, 0, 71, 64
2, 379440, Note_on_c, 0, 71, 100
2, 379560, Note_off_c, 0, 71, 64
2, 379560, Note_on_c, 0, 76, 100
2, 379680, Note_off_c, 0, 76, 64
2, 379680, Note_on_c, 0, 76, 100
2, 379800, Note_off_c, 0, 76, 64
2, 379800, Note_on_c, 0, 81, 100
2, 379920, Note_off_c, 0, 81, 64
2, 379920, Note_on_c, 0, 83, 100
2, 380040, Note_off_c, 0, 83, 64
2, 380040, Note_on_c, 0, 78, 100
2, 380160, Note_off_c, 0, 78, 64
2, 380160, Note_on_c, 0, 78, 100
2, 380280, Note_off_c, 0, 78, 64
2, 380280, Note_on_c, 0, 78, 100
2, 380400, Note_off_c, 0, 78, 64
2, 380400, Note_on_c, 0, 73, 100
2, 380520, Note_off_c, 0, 73, 64
2, 380520, Note_on_c, 0, 78, 100
2, 380640, Note_off_c, 0, 78, 64
2, 380640, Note_on_c, 0, 73, 100
2, 380760, Note_off_c, 0, 73, 64
2, 380760, Note_on_c, 0, 74, 100
2, 380880, Note_off_c, 0, 74, 64
2, 380880, Note_on_c, 0, 73, 100
2, 381000, Note_off_c, 0, 73, 64
2, 381000, Note_on_c, 0, 69, 100
2, 381120, Note_off_c, 0, 69, 64
2, 381120, Note_on_c, 0, 74, 100
2, 381240, Note_off_c, 0, 74, 64
2, 381240, Note_on_c, 0, 69, 100
2, 381360, Note_off_c, 0, 69, 64
2, 381360, Note_on_c, 0, 69, 100
2, 381480, Note_off_c, 0, 69, 64
2, 381480, Note_on_c, 0, 69, 100
2, 381600, Note_off_c, 0, 69, 64
2, 381600, Note_on_c, 0, 64, 100
2, 381720, Note_off_c, 0, 64, 64
2, 381720, Note_on_c, 0, 69, 100
2, 381840, Note_off_c, 0, 69, 64
2, 381840, Note_on_c, 0, 64, 100
2, 381960, Note_off_c, 0, 64, 64
2, 381960, Note_on_c, 0, 64, 100
2, 382080, Note_off_c, 0, 64, 64
2, 382080, Note_on_c, 0, 64, 100
2, 382200, Note_off_c, 0, 64, 64
2, 382200, Note_on_c, 0, 59, 100
2, 382320, Note_off_c, 0, 59, 64
2, 382320, Note_on_c, 0, 64, 100
2, 382440, Note_off_c, 0, 64, 64
2, 382440, Note_on_c, 0, 59, 100
2, 382560, Note_off_c, 0, 59, 64
2, 382560, Note_on_c, 0, 57, 100
2, 382620, Note_off_c, 0, 57, 64
2, 382620, Note_on_c, 0, 58, 100
2, 382680, Note_off_c, 0, 58, 64
2, 382680, Note_on_c, 0, 59, 100
2, 382800, Note_off_c, 0, 59, 64
2, 382800, Note_on_c, 0, 54, 100
2, 382920, Note_off_c, 0, 54, 64
2, 382920, Note_on_c, 0, 59, 100
2, 383040, Note_off_c, 0, 59, 64
2, 383040, Note_on_c, 0, 59, 100
2, 383160, Note_off_c, 0, 59, 64
2, 383160, Note_on_c, 0, 64, 100
2, 383280, Note_off_c, 0, 64, 64
2, 383280, Note_on_c, 0, 59, 100
2, 383400, Note_off_c, 0, 59, 64
2, 383400, Note_on_c, 0, 61, 100
2, 383520, Note_off_c, 0, 61, 64
2, 383520, Note_on_c, 0, 62, 100
2, 383640, Note_off_c, 0, 62, 64
2, 383640, Note_on_c, 0, 66, 100
2, 383760, Note_off_c, 0, 66, 64
2, 383760, Note_on_c, 0, 62, 100
2, 383880, Note_off_c, 0, 62, 64
2, 383880, Note_on_c, 0, 61, 100
2, 384000, Note_off_c, 0, 61, 64
2, 384000, Note_on_c, 0, 62, 100
2, 384120, Note_off_c, 0, 62, 64
2, 384120, Note_on_c, 0, 59, 100
2, 384240, Note_off_c, 0, 59, 64
2, 384240, Note_on_c, 0, 61, 100
2, 384360, Note_off_c, 0, 61, 64
2, 384360, Note_on_c, 0, 62, 100
2, 384480, Note_off_c, 0, 62, 64
2, 384480, Note_on_c, 0, 66, 100
2, 384600, Note_off_c, 0, 66, 64
2, 384600, Note_on_c, 0, 67, 100
2, 384720, Note_off_c, 0, 67, 64
2, 384720, Note_on_c, 0, 71, 100
2, 384840, Note_off_c, 0, 71, 64
2, 384840, Note_on_c, 0, 67, 100
2, 384960, Note_off_c, 0, 67, 64
2, 384960, Note_on_c, 0, 66, 100
2, 385080, Note_off_c, 0, 66, 64
2, 385080, Note_on_c, 0, 67, 100
2, 385200, Note_off_c, 0, 67, 64
2, 385200, Note_on_c, 0, 62, 100
2, 385320, Note_off_c, 0, 62, 64
2, 385320, Note_on_c, 0, 66, 100
2, 385440, Note_off_c, 0, 66, 64
2, 385440, Note_on_c, 0, 67, 100
2, 385560, Note_off_c, 0, 67, 64
2, 385560, Note_on_c, 0, 71, 100
2, 385680, Note_off_c, 0, 71, 64
2, 385680, Note_on_c, 0, 71, 100
2, 385800, Note_off_c, 0, 71, 64
2, 385800, Note_on_c, 0, 76, 100
2, 385920, Note_off_c, 0, 76, 64
2, 385920, Note_on_c, 0, 71, 100
2, 386040, Note_off_c, 0, 71, 64
2, 386040, Note_on_c, 0, 71, 100
2, 386160, Note_off_c, 0, 71, 64
2, 386160, Note_on_c, 0, 67, 100
2, 386280, Note_off_c, 0, 67, 64
2, 386280, Note_on_c, 0, 71, 100
2, 386400, Note_off_c, 0, 71, 64
2, 386400, Note_on_c, 0, 71, 100
2, 386520, Note_off_c, 0, 71, 64
2, 386520, Note_on_c, 0, 76, 100
2, 386640, Note_off_c, 0, 76, 64
2, 386640, Note_on_c, 0, 76, 100
2, 386760, Note_off_c, 0, 76, 64
2, 386760, Note_on_c, 0, 81, 100
2, 386880, Note_off_c, 0, 81, 64
2, 386880, Note_on_c, 0, 83, 100
2, 387000, Note_off_c, 0, 83, 64
2, 387000, Note_on_c, 0, 78, 100
2, 387120, Note_off_c, 0, 78, 64
2, 387120, Note_on_c, 0, 78, 100
2, 387240, Note_off_c, 0, 78, 64
2, 387240, Note_on_c, 0, 78, 100
2, 387360, Note_off_c, 0, 78, 64
2, 387360, Note_on_c, 0, 73, 100
2, 387480, Note_off_c, 0, 73, 64
2, 387480, Note_on_c, 0, 78, 100
2, 387600, Note_off_c, 0, 78, 64
2, 387600, Note_on_c, 0, 73, 100
2, 387720, Note_off_c, 0, 73, 64
2, 387720, Note_on_c, 0, 74, 100
2, 387840, Note_off_c, 0, 74, 64
2, 387840, Note_on_c, 0, 73, 100
2, 387960, Note_off_c, 0, 73, 64
2, 387960, Note_on_c, 0, 69, 100
2, 388080, Note_off_c, 0, 69, 64
2, 388080, Note_on_c, 0, 74, 100
2, 388200, Note_off_c, 0, 74, 64
2, 388200, Note_on_c, 0, 69, 100
2, 388320, Note_off_c, 0, 69, 64
2, 388320, Note_on_c, 0, 69, 100
2, 388440, Note_off_c, 0, 69, 64
2, 388440, Note_on_c, 0, 69, 100
2, 388560, Note_off_c, 0, 69, 64
2, 388560, Note_on_c, 0, 64, 100
2, 388680, Note_off_c, 0, 64, 64
2, 388680, Note_on_c, 0, 69, 100
2, 388800, Note_off_c, 0, 69, 64
2, 388800, Note_on_c, 0, 64, 100
2, 388920, Note_off_c, 0, 64, 64
2, 388920, Note_on_c, 0, 64, 100
2, 389040, Note_off_c, 0, 64, 64
2, 389040, Note_on_c, 0, 64, 100
2, 389160, Note_off_c, 0, 64, 64
2, 389160, Note_on_c, 0, 59, 100
2, 389280, Note_off_c, 0, 59, 64
2, 389280, Note_on_c, 0, 64, 100
2, 389400, Note_off_c, 0, 64, 64
2, 389400, Note_on_c, 0, 59, 100
2, 389520, Note_off_c, 0, 59, 64
2, 389520, Note_on_c, 0, 59, 100
2, 389640, Note_off_c, 0, 59, 64
2, 389640, Note_on_c, 0, 59, 100
2, 389760, Note_off_c, 0, 59, 64
2, 389760, Note_on_c, 0, 57, 100
2, 389820, Note_off_c, 0, 57, 64
2, 389820, Note_on_c, 0, 58, 100
2, 389880, Note_off_c, 0, 58, 64
2, 389880, Note_on_c, 0, 59, 100
2, 390000, Note_off_c, 0, 59, 64
2, 390000, Note_on_c, 0, 59, 100
2, 390060, Note_off_c, 0, 59, 64
2, 390060, Note_on_c, 0, 62, 100
2, 390120, Note_off_c, 0, 62, 64
2, 390120, Note_on_c, 0, 64, 100
2, 390240, Note_off_c, 0, 64, 64
2, 390240, Pitch_bend_c, 0, 9192
2, 390240, Note_on_c, 0, 62, 100
2, 390255, Pitch_bend_c, 0, 10192
2, 390270, Pitch_bend_c, 0, 11192
2, 390285, Pitch_bend_c, 0, 12192
2, 390300, Pitch_bend_c, 0, 13192
2, 390315, Pitch_bend_c, 0, 14192
2, 390330, Pitch_bend_c, 0, 15192
2, 390345, Pitch_bend_c, 0, 16192
2, 390720, Note_off_c, 0, 62, 64
2, 390720, Pitch_bend_c, 0, 9192
2, 390720, Note_on_c, 0, 74, 100
2, 390735, Pitch_bend_c, 0, 10192
2, 390750, Pitch_bend_c, 0, 11192
2, 390765, Pitch_bend_c, 0, 12192
2, 390780, Pitch_bend_c, 0, 13192
2, 390795, Pitch_bend_c, 0, 14192
2, 390810, Pitch_bend_c, 0, 15192
2, 390825, Pitch_bend_c, 0, 16192
2, 390953, Note_off_c, 0, 74, 64
2, 391200, Pitch_bend_c, 0, 8192
2, 391200, Note_on_c, 0, 74, 100
2, 391913, Note_off_c, 0, 74, 64
2, 391920, Note_on_c, 0, 73, 100
2, 392160, Note_off_c, 0, 73, 64
2, 392160, Note_on_c, 0, 74, 100
2, 392400, Note_off_c, 0, 74, 64
2, 392400, Note_on_c, 0, 76, 100
2, 392640, Note_off_c, 0, 76, 64
2, 392640, Note_on_c, 0, 74, 100
2, 393120, Note_off_c, 0, 74, 64
2, 393120, Note_on_c, 0, 73, 100
2, 393360, Note_off_c, 0, 73, 64
2, 393360, Note_on_c, 0, 71, 100
2, 393600, Note_off_c, 0, 71, 64
2, 393600, Note_on_c, 0, 69, 100
2, 393840, Note_off_c, 0, 69, 64
2, 393840, Note_on_c, 0, 74, 100
2, 394080, Note_off_c, 0, 74, 64
2, 394080, Note_on_c, 0, 69, 100
2, 394080, Control_c, 0, 1, 127
2, 394430, Note_off_c, 0, 69, 64
2, 394560, Note_on_c, 0, 67, 100
2, 394560, Control_c, 0, 1, 0
2, 394800, Note_off_c, 0, 67, 64
2, 394800, Note_on_c, 0, 66, 100
2, 395040, Note_off_c, 0, 66, 64
2, 395040, Note_on_c, 0, 62, 100
2, 395280, Note_off_c, 0, 62, 64
2, 395280, Note_on_c, 0, 64, 100
2, 395520, Note_off_c, 0, 64, 64
2, 395520, Note_on_c, 0, 69, 100
2, 395760, Note_off_c, 0, 69, 64
2, 395760, Pitch_bend_c, 0, 9192
2, 395760, Note_on_c, 0, 67, 100
2, 395775, Pitch_bend_c, 0, 10192
2, 395790, Pitch_bend_c, 0, 11192
2, 395805, Pitch_bend_c, 0, 12192
2, 395820, Pitch_bend_c, 0, 13192
2, 395835, Pitch_bend_c, 0, 14192
2, 395850, Pitch_bend_c, 0, 15192
2, 395865, Pitch_bend_c, 0, 16192
2, 396000, Control_c, 0, 1, 127
2, 396720, Note_off_c, 0, 67, 64
2, 396720, Note_on_c, 0, 62, 100
2, 396720, Control_c, 0, 1, 0
2, 396720, Pitch_bend_c, 0, 8192
2, 396780, Note_off_c, 0, 62, 64
2, 396780, Note_on_c, 0, 63, 100
2, 396840, Note_off_c, 0, 63, 64
2, 396840, Note_on_c, 0, 64, 100
2, 396900, Note_off_c, 0, 64, 64
2, 396900, Note_on_c, 0, 65, 100
2, 396960, Note_off_c, 0, 65, 64
2, 396960, Note_on_c, 0, 67, 100
2, 397080, Note_off_c, 0, 67, 64
2, 397080, Note_on_c, 0, 69, 100
2, 397200, Note_off_c, 0, 69, 64
2, 397200, Note_on_c, 0, 70, 100
2, 397260, Note_off_c, 0, 70, 64
2, 397260, Note_on_c, 0, 71, 100
2, 397320, Note_off_c, 0, 71, 64
2, 397320, Note_on_c, 0, 72, 100
2, 397380, Note_off_c, 0, 72, 64
2, 397380, Note_on_c, 0, 73, 100
2, 397440, Note_off_c, 0, 73, 64
2, 397440, Note_on_c, 0, 74, 100
2, 397680, Note_off_c, 0, 74, 64
2, 397920, Note_on_c, 0, 73, 100
2, 398633, Note_off_c, 0, 73, 64
2, 398640, Pitch_bend_c, 0, 9192
2, 398640, Note_on_c, 0, 74, 100
2, 398655, Pitch_bend_c, 0, 10192
2, 398670, Pitch_bend_c, 0, 11192
2, 398685, Pitch_bend_c, 0, 12192
2, 398700, Pitch_bend_c, 0, 13192
2, 398715, Pitch_bend_c, 0, 14192
2, 398730, Pitch_bend_c, 0, 15192
2, 398745, Pitch_bend_c, 0, 16192
2, 398880, Note_off_c, 0, 74, 64
2, 398880, Note_on_c, 0, 74, 100
2, 398880, Pitch_bend_c, 0, 8192
2, 399120, Note_off_c, 0, 74, 64
2, 399120, Note_on_c, 0, 72, 100
2, 399600, Note_off_c, 0, 72, 64
2, 399600, Note_on_c, 0, 71, 100
2, 399840, Note_off_c, 0, 71, 64
2, 399840, Note_on_c, 0, 69, 100
2, 400080, Note_off_c, 0, 69, 64
2, 400080, Note_on_c, 0, 67, 100
2, 400320, Note_off_c, 0, 67, 64
2, 400320, Note_on_c, 0, 72, 100
2, 400560, Note_off_c, 0, 72, 64
2, 400560, Note_on_c, 0, 71, 100
2, 400800, Note_off_c, 0, 71, 64
2, 400800, Note_on_c, 0, 69, 100
2, 401040, Note_off_c, 0, 69, 64
2, 401040, Note_on_c, 0, 67, 100
2, 401520, Note_off_c, 0, 67, 64
2, 401520, Note_on_c, 0, 64, 100
2, 401760, Note_off_c, 0, 64, 64
2, 401760, Note_on_c, 0, 60, 100
2, 401760, Control_c, 0, 1, 127
2, 402240, Note_off_c, 0, 60, 64
2, 402240, Control_c, 0, 1, 0
2, 402240, Note_on_c, 0, 50, 100
2, 402480, Note_off_c, 0, 50, 64
2, 402480, Note_on_c, 0, 45, 100
2, 402720, Note_off_c, 0, 45, 64
2, 402720, Note_on_c, 0, 50, 100
2, 402960, Note_off_c, 0, 50, 64
2, 402960, Note_on_c, 0, 53, 100
2, 403200, Note_off_c, 0, 53, 64
2, 403200, Note_on_c, 0, 52, 100
2, 403440, Note_off_c, 0, 52, 64
2, 403440, Note_on_c, 0, 48, 100
2, 403680, Note_off_c, 0, 48, 64
2, 403680, Note_on_c, 0, 45, 100
2, 403920, Note_off_c, 0, 45, 64
2, 403920, Note_on_c, 0, 46, 100
2, 404160, Note_off_c, 0, 46, 64
2, 404160, Note_on_c, 0, 52, 100
2, 404400, Note_off_c, 0, 52, 64
2, 404400, Note_on_c, 0, 53, 100
2, 404640, Note_off_c, 0, 53, 64
2, 404640, Note_on_c, 0, 41, 100
2, 404760, Note_off_c, 0, 41, 64
2, 404760, Note_on_c, 0, 42, 100
2, 404880, Note_off_c, 0, 42, 64
2, 404880, Note_on_c, 0, 43, 100
2, 405120, Note_off_c, 0, 43, 64
2, 405120, Note_on_c, 0, 48, 100
2, 405360, Note_off_c, 0, 48, 64
2, 405360, Note_on_c, 0, 50, 100
2, 405600, Note_off_c, 0, 50, 64
2, 405600, Note_on_c, 0, 55, 100
2, 405840, Note_off_c, 0, 55, 64
2, 405840, Note_on_c, 0, 57, 100
2, 406080, Note_off_c, 0, 57, 64
2, 406080, Note_on_c, 0, 58, 100
2, 406320, Note_off_c, 0, 58, 64
2, 406320, Note_on_c, 0, 55, 100
2, 406560, Note_off_c, 0, 55, 64
2, 406560, Note_on_c, 0, 50, 100
2, 406800, Note_off_c, 0, 50, 64
2, 406800, Note_on_c, 0, 58, 100
2, 407040, Note_off_c, 0, 58, 64
2, 407040, Note_on_c, 0, 57, 100
2, 407280, Note_off_c, 0, 57, 64
2, 407280, Note_on_c, 0, 53, 100
2, 407520, Note_off_c, 0, 53, 64
2, 407520, Note_on_c, 0, 48, 100
2, 407760, Note_off_c, 0, 48, 64
2, 407760, Note_on_c, 0, 55, 100
2, 408000, Note_off_c, 0, 55, 64
2, 408000, Note_on_c, 0, 52, 100
2, 408240, Note_off_c, 0, 52, 64
2, 408240, Note_on_c, 0, 48, 100
2, 408480, Note_off_c, 0, 48, 64
2, 408480, Note_on_c, 0, 46, 100
2, 408720, Note_off_c, 0, 46, 64
2, 408720, Note_on_c, 0, 45, 100
2, 408840, Note_off_c, 0, 45, 64
2, 408840, Note_on_c, 0, 46, 100
2, 408960, Note_off_c, 0, 46, 64
2, 408960, Note_on_c, 0, 48, 100
2, 409080, Note_off_c, 0, 48, 64
2, 409080, Note_on_c, 0, 50, 100
2, 409200, Note_off_c, 0, 50, 64
2, 409200, Note_on_c, 0, 52, 100
2, 409320, Note_off_c, 0, 52, 64
2, 409320, Note_on_c, 0, 53, 100
2, 409440, Note_off_c, 0, 53, 64
2, 409440, Note_on_c, 0, 50, 100
2, 409680, Note_off_c, 0, 50, 64
2, 409680, Note_on_c, 0, 45, 100
2, 409920, Note_off_c, 0, 45, 64
2, 409920, Note_on_c, 0, 50, 100
2, 410160, Note_off_c, 0, 50, 64
2, 410160, Note_on_c, 0, 53, 100
2, 410400, Note_off_c, 0, 53, 64
2, 410400, Note_on_c, 0, 52, 100
2, 410640, Note_off_c, 0, 52, 64
2, 410640, Note_on_c, 0, 48, 100
2, 410880, Note_off_c, 0, 48, 64
2, 410880, Note_on_c, 0, 45, 100
2, 411120, Note_off_c, 0, 45, 64
2, 411120, Note_on_c, 0, 46, 100
2, 411360, Note_off_c, 0, 46, 64
2, 411360, Note_on_c, 0, 52, 100
2, 411600, Note_off_c, 0, 52, 64
2, 411600, Note_on_c, 0, 53, 100
2, 411840, Note_off_c, 0, 53, 64
2, 411840, Note_on_c, 0, 41, 100
2, 411960, Note_off_c, 0, 41, 64
2, 411960, Note_on_c, 0, 42, 100
2, 412080, Note_off_c, 0, 42, 64
2, 412080, Note_on_c, 0, 43, 100
2, 412320, Note_off_c, 0, 43, 64
2, 412320, Note_on_c, 0, 48, 100
2, 412560, Note_off_c, 0, 48, 64
2, 412560, Note_on_c, 0, 50, 100
2, 412800, Note_off_c, 0, 50, 64
2, 412800, Note_on_c, 0, 55, 100
2, 413040, Note_off_c, 0, 55, 64
2, 413040, Note_on_c, 0, 57, 100
2, 413280, Note_off_c, 0, 57, 64
2, 413280, Note_on_c, 0, 58, 100
2, 413520, Note_off_c, 0, 58, 64
2, 413520, Note_on_c, 0, 55, 100
2, 413760, Note_off_c, 0, 55, 64
2, 413760, Note_on_c, 0, 50, 100
2, 414000, Note_off_c, 0, 50, 64
2, 414000, Note_on_c, 0, 58, 100
2, 414240, Note_off_c, 0, 58, 64
2, 414240, Note_on_c, 0, 57, 100
2, 414480, Note_off_c, 0, 57, 64
2, 414480, Note_on_c, 0, 53, 100
2, 414720, Note_off_c, 0, 53, 64
2, 414720, Note_on_c, 0, 48, 100
2, 414960, Note_off_c, 0, 48, 64
2, 414960, Note_on_c, 0, 55, 100
2, 415200, Note_off_c, 0, 55, 64
2, 415200, Note_on_c, 0, 52, 100
2, 415440, Note_off_c, 0, 52, 64
2, 415440, Note_on_c, 0, 48, 100
2, 415680, Note_off_c, 0, 48, 64
2, 415680, Note_on_c, 0, 46, 100
2, 415920, Note_off_c, 0, 46, 64
2, 415920, Note_on_c, 0, 45, 100
2, 416160, Note_on_c, 0, 48, 100
2, 416167, Note_off_c, 0, 45, 64
2, 416280, Note_off_c, 0, 48, 64
2, 416280, Note_on_c, 0, 50, 100
2, 416400, Note_off_c, 0, 50, 64
2, 416400, Note_on_c, 0, 52, 100
2, 416520, Note_off_c, 0, 52, 64
2, 416520, Note_on_c, 0, 53, 100
2, 416640, Note_off_c, 0, 53, 64
2, 416640, Control_c, 0, 1, 0
2, 416640, Note_on_c, 0, 50, 100
2, 416880, Note_off_c, 0, 50, 64
2, 416880, Note_on_c, 0, 45, 100
2, 417120, Note_off_c, 0, 45, 64
2, 417120, Note_on_c, 0, 50, 100
2, 417360, Note_off_c, 0, 50, 64
2, 417360, Note_on_c, 0, 53, 100
2, 417600, Note_off_c, 0, 53, 64
2, 417600, Note_on_c, 0, 52, 100
2, 417840, Note_off_c, 0, 52, 64
2, 417840, Note_on_c, 0, 48, 100
2, 418080, Note_off_c, 0, 48, 64
2, 418080, Note_on_c, 0, 45, 100
2, 418320, Note_off_c, 0, 45, 64
2, 418320, Note_on_c, 0, 46, 100
2, 418560, Note_off_c, 0, 46, 64
2, 418560, Note_on_c, 0, 52, 100
2, 418800, Note_off_c, 0, 52, 64
2, 418800, Note_on_c, 0, 53, 100
2, 419040, Note_off_c, 0, 53, 64
2, 419040, Note_on_c, 0, 41, 100
2, 419160, Note_off_c, 0, 41, 64
2, 419160, Note_on_c, 0, 42, 100
2, 419280, Note_off_c, 0, 42, 64
2, 419280, Note_on_c, 0, 43, 100
2, 419520, Note_off_c, 0, 43, 64
2, 419520, Note_on_c, 0, 48, 100
2, 419760, Note_off_c, 0, 48, 64
2, 419760, Note_on_c, 0, 50, 100
2, 420000, Note_off_c, 0, 50, 64
2, 420000, Note_on_c, 0, 55, 100
2, 420240, Note_off_c, 0, 55, 64
2, 420240, Note_on_c, 0, 57, 100
2, 420480, Note_off_c, 0, 57, 64
2, 420480, Note_on_c, 0, 58, 100
2, 420720, Note_off_c, 0, 58, 64
2, 420720, Note_on_c, 0, 55, 100
2, 420960, Note_off_c, 0, 55, 64
2, 420960, Note_on_c, 0, 50, 100
2, 421200, Note_off_c, 0, 50, 64
2, 421200, Note_on_c, 0, 58, 100
2, 421440, Note_off_c, 0, 58, 64
2, 421440, Note_on_c, 0, 57, 100
2, 421680, Note_off_c, 0, 57, 64
2, 421680, Note_on_c, 0, 53, 100
2, 421920, Note_off_c, 0, 53, 64
2, 421920, Note_on_c, 0, 48, 100
2, 422160, Note_off_c, 0, 48, 64
2, 422160, Note_on_c, 0, 55, 100
2, 422400, Note_off_c, 0, 55, 64
2, 422400, Note_on_c, 0, 52, 100
2, 422640, Note_off_c, 0, 52, 64
2, 422640, Note_on_c, 0, 48, 100
2, 422880, Note_off_c, 0, 48, 64
2, 422880, Note_on_c, 0, 46, 100
2, 423120, Note_off_c, 0, 46, 64
2, 423120, Note_on_c, 0, 45, 100
2, 423240, Note_off_c, 0, 45, 64
2, 423240, Note_on_c, 0, 46, 100
2, 423360, Note_off_c, 0, 46, 64
2, 423360, Note_on_c, 0, 48, 100
2, 423480, Note_off_c, 0, 48, 64
2, 423480, Note_on_c, 0, 50, 100
2, 423600, Note_off_c, 0, 50, 64
2, 423600, Note_on_c, 0, 52, 100
2, 423720, Note_off_c, 0, 52, 64
2, 423720, Note_on_c, 0, 53, 100
2, 423840, Note_off_c, 0, 53, 64
2, 423840, Control_c, 0, 1, 0
2, 423840, Note_on_c, 0, 50, 100
2, 424080, Note_off_c, 0, 50, 64
2, 424080, Note_on_c, 0, 45, 100
2, 424320, Note_off_c, 0, 45, 64
2, 424320, Note_on_c, 0, 50, 100
2, 424560, Note_off_c, 0, 50, 64
2, 424560, Note_on_c, 0, 53, 100
2, 424800, Note_off_c, 0, 53, 64
2, 424800, Note_on_c, 0, 52, 100
2, 425040, Note_off_c, 0, 52, 64
2, 425040, Note_on_c, 0, 48, 100
2, 425280, Note_off_c, 0, 48, 64
2, 425280, Note_on_c, 0, 45, 100
2, 425520, Note_off_c, 0, 45, 64
2, 425520, Note_on_c, 0, 46, 100
2, 425760, Note_off_c, 0, 46, 64
2, 425760, Note_on_c, 0, 52, 100
2, 426000, Note_off_c, 0, 52, 64
2, 426000, Note_on_c, 0, 53, 100
2, 426240, Note_off_c, 0, 53, 64
2, 426240, Note_on_c, 0, 41, 100
2, 426360, Note_off_c, 0, 41, 64
2, 426360, Note_on_c, 0, 42, 100
2, 426480, Note_off_c, 0, 42, 64
2, 426480, Note_on_c, 0, 43, 100
2, 426720, Note_off_c, 0, 43, 64
2, 426720, Note_on_c, 0, 48, 100
2, 426960, Note_off_c, 0, 48, 64
2, 426960, Note_on_c, 0, 50, 100
2, 427200, Note_off_c, 0, 50, 64
2, 427200, Note_on_c, 0, 55, 100
2, 427440, Note_off_c, 0, 55, 64
2, 427440, Note_on_c, 0, 57, 100
2, 427680, Note_off_c, 0, 57, 64
2, 427680, Note_on_c, 0, 58, 100
2, 427920, Note_off_c, 0, 58, 64
2, 427920, Note_on_c, 0, 55, 100
2, 428160, Note_off_c, 0, 55, 64
2, 428160, Note_on_c, 0, 50, 100
2, 428400, Note_off_c, 0, 50, 64
2, 428400, Note_on_c, 0, 58, 100
2, 428640, Note_off_c, 0, 58, 64
2, 428640, Note_on_c, 0, 57, 100
2, 428880, Note_off_c, 0, 57, 64
2, 428880, Note_on_c, 0, 53, 100
2, 429120, Note_off_c, 0, 53, 64
2, 429120, Note_on_c, 0, 48, 100
2, 429360, Note_off_c, 0, 48, 64
2, 429360, Note_on_c, 0, 55, 100
2, 429600, Note_off_c, 0, 55, 64
2, 429600, Note_on_c, 0, 52, 100
2, 429840, Note_off_c, 0, 52, 64
2, 429840, Note_on_c, 0, 48, 100
2, 430080, Note_off_c, 0, 48, 64
2, 430080, Note_on_c, 0, 46, 100
2, 430320, Note_off_c, 0, 46, 64
2, 430320, Note_on_c, 0, 45, 100
2, 430440, Note_off_c, 0, 45, 64
2, 430440, Note_on_c, 0, 46, 100
2, 430560, Note_off_c, 0, 46, 64
2, 430560, Note_on_c, 0, 48, 100
2, 430680, Note_off_c, 0, 48, 64
2, 430680, Note_on_c, 0, 50, 100
2, 430800, Note_off_c, 0, 50, 64
2, 430800, Note_on_c, 0, 52, 100
2, 430920, Note_off_c, 0, 52, 64
2, 430920, Note_on_c, 0, 53, 100
2, 431040, Note_off_c, 0, 53, 64
2, 431040, Note_on_c, 0, 50, 100
2, 431280, Note_off_c, 0, 50, 64
2, 431280, Note_on_c, 0, 45, 100
2, 431520, Note_off_c, 0, 45, 64
2, 431520, Note_on_c, 0, 50, 100
2, 431760, Note_off_c, 0, 50, 64
2, 431760, Note_on_c, 0, 53, 100
2, 432000, Note_off_c, 0, 53, 64
2, 432000, Note_on_c, 0, 55, 100
2, 432240, Note_off_c, 0, 55, 64
2, 432240, Note_on_c, 0, 45, 100
2, 432480, Note_off_c, 0, 45, 64
2, 432480, Note_on_c, 0, 50, 100
2, 432720, Note_off_c, 0, 50, 64
2, 432720, Note_on_c, 0, 57, 100
2, 432960, Note_off_c, 0, 57, 64
2, 432960, Note_on_c, 0, 45, 100
2, 433200, Note_off_c, 0, 45, 64
2, 433200, Note_on_c, 0, 50, 100
2, 433440, Note_off_c, 0, 50, 64
2, 433440, Note_on_c, 0, 57, 100
2, 433680, Note_off_c, 0, 57, 64
2, 433680, Note_on_c, 0, 58, 100
2, 433920, Note_off_c, 0, 58, 64
2, 433920, Note_on_c, 0, 45, 100
2, 434160, Note_off_c, 0, 45, 64
2, 434160, Note_on_c, 0, 52, 100
2, 434400, Note_off_c, 0, 52, 64
2, 434400, Note_on_c, 0, 60, 100
2, 434520, Note_off_c, 0, 60, 64
2, 434520, Note_on_c, 0, 58, 100
2, 434640, Note_off_c, 0, 58, 64
2, 434640, Note_on_c, 0, 57, 100
2, 434760, Note_off_c, 0, 57, 64
2, 434760, Note_on_c, 0, 55, 100
2, 434880, Note_off_c, 0, 55, 64
2, 434880, Note_on_c, 0, 53, 100
2, 435000, Note_off_c, 0, 53, 64
2, 435000, Note_on_c, 0, 52, 100
2, 435120, Note_off_c, 0, 52, 64
2, 435120, Note_on_c, 0, 50, 100
2, 435360, Note_off_c, 0, 50, 64
2, 435360, Note_on_c, 0, 45, 100
2, 435600, Note_off_c, 0, 45, 64
2, 435600, Note_on_c, 0, 50, 100
2, 435840, Note_off_c, 0, 50, 64
2, 435840, Note_on_c, 0, 53, 100
2, 436080, Note_off_c, 0, 53, 64
2, 436080, Note_on_c, 0, 55, 100
2, 436320, Note_off_c, 0, 55, 64
2, 436320, Note_on_c, 0, 45, 100
2, 436560, Note_off_c, 0, 45, 64
2, 436560, Note_on_c, 0, 50, 100
2, 436800, Note_off_c, 0, 50, 64
2, 436800, Note_on_c, 0, 57, 100
2, 437040, Note_off_c, 0, 57, 64
2, 437040, Note_on_c, 0, 45, 100
2, 437280, Note_off_c, 0, 45, 64
2, 437280, Note_on_c, 0, 50, 100
2, 437520, Note_off_c, 0, 50, 64
2, 437520, Note_on_c, 0, 57, 100
2, 437760, Note_off_c, 0, 57, 64
2, 437760, Note_on_c, 0, 58, 100
2, 438000, Note_off_c, 0, 58, 64
2, 438000, Note_on_c, 0, 45, 100
2, 438240, Note_off_c, 0, 45, 64
2, 438240, Note_on_c, 0, 52, 100
2, 438480, Note_off_c, 0, 52, 64
2, 438480, Note_on_c, 0, 60, 100
2, 438600, Note_off_c, 0, 60, 64
2, 438600, Note_on_c, 0, 58, 100
2, 438720, Note_off_c, 0, 58, 64
2, 438720, Note_on_c, 0, 57, 100
2, 438840, Note_off_c, 0, 57, 64
2, 438840, Note_on_c, 0, 55, 100
2, 438960, Note_off_c, 0, 55, 64
2, 438960, Note_on_c, 0, 53, 100
2, 439080, Note_off_c, 0, 53, 64
2, 439080, Note_on_c, 0, 52, 100
2, 439200, Note_off_c, 0, 52, 64
2, 439200, Note_on_c, 0, 50, 95
2, 439200, Note_on_c, 0, 57, 95
2, 439200, Note_on_c, 0, 62, 95
2, 440160, Note_off_c, 0, 62, 64
2, 440160, Note_off_c, 0, 57, 64
2, 440160, Note_off_c, 0, 50, 64
2, 440160, Note_on_c, 0, 48, 95
2, 440160, Note_on_c, 0, 60, 95
2, 440160, Note_on_c, 0, 55, 95
2, 440880, Note_off_c, 0, 55, 64
2, 440880, Note_off_c, 0, 60, 64
2, 440880, Note_off_c, 0, 48, 64
2, 440880, Note_on_c, 0, 46, 95
2, 440880, Note_on_c, 0, 53, 95
2, 440880, Note_on_c, 0, 58, 95
2, 442080, Note_off_c, 0, 58, 64
2, 442080, Note_off_c, 0, 53, 64
2, 442080, Note_off_c, 0, 46, 64
2, 442080, Note_on_c, 0, 40, 120
2, 442560, Note_off_c, 0, 40, 64
2, 442560, Note_on_c, 0, 41, 120
2, 443040, Note_off_c, 0, 41, 64
2, 443040, Note_on_c, 0, 50, 95
2, 443040, Note_on_c, 0, 55, 95
2, 443040, Note_on_c, 0, 43, 95
2, 444000, Note_off_c, 0, 43, 64
2, 444000, Note_off_c, 0, 55, 64
2, 444000, Note_off_c, 0, 50, 64
2, 444000, Note_on_c, 0, 41, 95
2, 444000, Note_on_c, 0, 48, 95
2, 444000, Note_on_c, 0, 53, 95
2, 444720, Note_off_c, 0, 53, 64
2, 444720, Note_off_c, 0, 48, 64
2, 444720, Note_off_c, 0, 41, 64
2, 444720, Note_on_c, 0, 60, 95
2, 444720, Note_on_c, 0, 55, 95
2, 444720, Note_on_c, 0, 48, 95
2, 445680, Note_off_c, 0, 48, 64
2, 445680, Note_off_c, 0, 55, 64
2, 445680, Note_off_c, 0, 60, 64
2, 445680, Note_on_c, 0, 45, 95
2, 445800, Note_off_c, 0, 45, 64
2, 445800, Note_on_c, 0, 46, 95
2, 445920, Note_off_c, 0, 46, 64
2, 445920, Note_on_c, 0, 48, 95
2, 446040, Note_off_c, 0, 48, 64
2, 446040, Note_on_c, 0, 50, 95
2, 446160, Note_off_c, 0, 50, 64
2, 446160, Note_on_c, 0, 52, 95
2, 446280, Note_off_c, 0, 52, 64
2, 446280, Note_on_c, 0, 53, 95
2, 446400, Note_off_c, 0, 53, 64
2, 446400, Note_on_c, 0, 62, 95
2, 446400, Note_on_c, 0, 57, 95
2, 446400, Note_on_c, 0, 50, 95
2, 447360, Note_off_c, 0, 50, 64
2, 447360, Note_off_c, 0, 57, 64
2, 447360, Note_off_c, 0, 62, 64
2, 447360, Note_on_c, 0, 48, 95
2, 447360, Note_on_c, 0, 60, 95
2, 447360, Note_on_c, 0, 55, 95
2, 448080, Note_off_c, 0, 55, 64
2, 448080, Note_off_c, 0, 60, 64
2, 448080, Note_off_c, 0, 48, 64
2, 448080, Note_on_c, 0, 46, 95
2, 448080, Note_on_c, 0, 53, 95
2, 448080, Note_on_c, 0, 58, 95
2, 449280, Note_off_c, 0, 58, 64
2, 449280, Note_off_c, 0, 53, 64
2, 449280, Note_off_c, 0, 46, 64
2, 449280, Note_on_c, 0, 40, 120
2, 449760, Note_off_c, 0, 40, 64
2, 449760, Note_on_c, 0, 41, 120
2, 450240, Note_off_c, 0, 41, 64
2, 450240, Note_on_c, 0, 50, 95
2, 450240, Note_on_c, 0, 55, 95
2, 450240, Note_on_c, 0, 43, 95
2, 451200, Note_off_c, 0, 43, 64
2, 451200, Note_off_c, 0, 55, 64
2, 451200, Note_off_c, 0, 50, 64
2, 451200, Note_on_c, 0, 41, 95
2, 451200, Note_on_c, 0, 48, 95
2, 451200, Note_on_c, 0, 53, 95
2, 451920, Note_off_c, 0, 53, 64
2, 451920, Note_off_c, 0, 48, 64
2, 451920, Note_off_c, 0, 41, 64
2, 451920, Note_on_c, 0, 60, 95
2, 451920, Note_on_c, 0, 55, 95
2, 451920, Note_on_c, 0, 48, 95
2, 452880, Note_off_c, 0, 48, 64
2, 452880, Note_off_c, 0, 55, 64
2, 452880, Note_off_c, 0, 60, 64
2, 452880, Note_on_c, 0, 45, 95
2, 453000, Note_off_c, 0, 45, 64
2, 453000, Note_on_c, 0, 46, 95
2, 453120, Note_off_c, 0, 46, 64
2, 453120, Note_on_c, 0, 48, 95
2, 453240, Note_off_c, 0, 48, 64
2, 453240, Note_on_c, 0, 50, 95
2, 453360, Note_off_c, 0, 50, 64
2, 453360, Note_on_c, 0, 52, 95
2, 453480, Note_off_c, 0, 52, 64
2, 453480, Note_on_c, 0, 53, 95
2, 453600, Note_off_c, 0, 53, 64
2, 453600, Note_on_c, 0, 50, 100
2, 453840, Note_off_c, 0, 50, 64
2, 453840, Note_on_c, 0, 45, 100
2, 454080, Note_off_c, 0, 45, 64
2, 454080, Note_on_c, 0, 50, 100
2, 454320, Note_off_c, 0, 50, 64
2, 454320, Note_on_c, 0, 53, 100
2, 454560, Note_off_c, 0, 53, 64
2, 454560, Note_on_c, 0, 55, 100
2, 454800, Note_off_c, 0, 55, 64
2, 454800, Note_on_c, 0, 45, 100
2, 455040, Note_off_c, 0, 45, 64
2, 455040, Note_on_c, 0, 48, 100
2, 455280, Note_off_c, 0, 48, 64
2, 455280, Note_on_c, 0, 57, 100
2, 455520, Note_off_c, 0, 57, 64
2, 455520, Note_on_c, 0, 48, 100
2, 455760, Note_off_c, 0, 48, 64
2, 455760, Note_on_c, 0, 50, 100
2, 456000, Note_off_c, 0, 50, 64
2, 456000, Note_on_c, 0, 57, 100
2, 456240, Note_off_c, 0, 57, 64
2, 456240, Note_on_c, 0, 58, 100
2, 456480, Note_off_c, 0, 58, 64
2, 456480, Note_on_c, 0, 50, 100
2, 456720, Note_off_c, 0, 50, 64
2, 456720, Note_on_c, 0, 52, 100
2, 456960, Note_off_c, 0, 52, 64
2, 456960, Note_on_c, 0, 60, 100
2, 457200, Note_off_c, 0, 60, 64
2, 457200, Note_on_c, 0, 52, 100
2, 457440, Note_off_c, 0, 52, 64
2, 457440, Note_on_c, 0, 53, 100
2, 457680, Note_off_c, 0, 53, 64
2, 457680, Note_on_c, 0, 60, 100
2, 457920, Note_off_c, 0, 60, 64
2, 457920, Note_on_c, 0, 62, 100
2, 458160, Note_off_c, 0, 62, 64
2, 458160, Note_on_c, 0, 57, 100
2, 458400, Note_off_c, 0, 57, 64
2, 458400, Note_on_c, 0, 55, 100
2, 458640, Note_off_c, 0, 55, 64
2, 458640, Note_on_c, 0, 64, 100
2, 458880, Note_off_c, 0, 64, 64
2, 458880, Note_on_c, 0, 45, 100
2, 459120, Note_off_c, 0, 45, 64
2, 459120, Note_on_c, 0, 57, 100
2, 459360, Note_off_c, 0, 57, 64
2, 459360, Note_on_c, 0, 64, 100
2, 459600, Note_off_c, 0, 64, 64
2, 459600, Note_on_c, 0, 65, 100
2, 459840, Note_off_c, 0, 65, 64
2, 460080, Note_on_c, 0, 58, 110
2, 460320, Note_off_c, 0, 58, 64
2, 460320, Note_on_c, 0, 65, 110
2, 460560, Note_off_c, 0, 65, 64
2, 460560, Note_on_c, 0, 67, 110
2, 460800, Note_off_c, 0, 67, 64
2, 461040, Note_on_c, 0, 64, 110
2, 461280, Note_off_c, 0, 64, 64
2, 461280, Note_on_c, 0, 72, 110
2, 461520, Note_off_c, 0, 72, 64
2, 461520, Note_on_c, 0, 74, 110
2, 461760, Note_off_c, 0, 74, 64
2, 462000, Note_on_c, 0, 69, 110
2, 462240, Note_off_c, 0, 69, 64
2, 462240, Note_on_c, 0, 76, 110
2, 462480, Note_off_c, 0, 76, 64
2, 462480, Pitch_bend_c, 0, 9192
2, 462480, Note_on_c, 0, 76, 110
2, 462495, Pitch_bend_c, 0, 10192
2, 462510, Pitch_bend_c, 0, 11192
2, 462525, Pitch_bend_c, 0, 12192
2, 462960, Note_off_c, 0, 76, 64
2, 462960, Note_on_c, 0, 76, 110
2, 462960, Pitch_bend_c, 0, 8192
2, 463080, Note_off_c, 0, 76, 64
2, 463080, Note_on_c, 0, 74, 110
2, 463200, Note_off_c, 0, 74, 64
2, 463200, Note_on_c, 0, 72, 110
2, 463440, Note_off_c, 0, 72, 64
2, 463440, Note_on_c, 0, 70, 110
2, 463680, Note_off_c, 0, 70, 64
2, 463680, Note_on_c, 0, 69, 110
2, 463920, Note_off_c, 0, 69, 64
2, 463920, Note_on_c, 0, 65, 110
2, 464160, Note_off_c, 0, 65, 64
2, 464160, Note_on_c, 0, 76, 110
2, 464400, Note_off_c, 0, 76, 64
2, 464400, Pitch_bend_c, 0, 9192
2, 464400, Note_on_c, 0, 76, 110
2, 464415, Pitch_bend_c, 0, 10192
2, 464430, Pitch_bend_c, 0, 11192
2, 464445, Pitch_bend_c, 0, 12192
2, 464520, Note_off_c, 0, 76, 64
2, 464640, Pitch_bend_c, 0, 8192
2, 464640, Note_on_c, 0, 72, 110
2, 464700, Note_off_c, 0, 72, 64
2, 464700, Note_on_c, 0, 74, 110
2, 464760, Note_off_c, 0, 74, 64
2, 464760, Note_on_c, 0, 72, 110
2, 464820, Note_off_c, 0, 72, 64
2, 464820, Note_on_c, 0, 74, 110
2, 464880, Note_off_c, 0, 74, 64
2, 464880, Note_on_c, 0, 72, 110
2, 464940, Note_off_c, 0, 72, 64
2, 464940, Note_on_c, 0, 74, 110
2, 465000, Note_off_c, 0, 74, 64
2, 465000, Note_on_c, 0, 72, 110
2, 465060, Note_off_c, 0, 72, 64
2, 465060, Note_on_c, 0, 74, 110
2, 465120, Note_off_c, 0, 74, 64
2, 465120, Note_on_c, 0, 70, 110
2, 465240, Note_off_c, 0, 70, 64
2, 465240, Note_on_c, 0, 69, 110
2, 465360, Note_off_c, 0, 69, 64
2, 465360, Note_on_c, 0, 67, 110
2, 465480, Note_off_c, 0, 67, 64
2, 465480, Note_on_c, 0, 69, 110
2, 465600, Note_off_c, 0, 69, 64
2, 465600, Note_on_c, 0, 70, 110
2, 465720, Note_off_c, 0, 70, 64
2, 465720, Note_on_c, 0, 69, 110
2, 465840, Note_off_c, 0, 69, 64
2, 465840, Note_on_c, 0, 67, 110
2, 465960, Note_off_c, 0, 67, 64
2, 465960, Note_on_c, 0, 69, 110
2, 466080, Note_off_c, 0, 69, 64
2, 466080, Note_on_c, 0, 70, 110
2, 466200, Note_off_c, 0, 70, 64
2, 466200, Note_on_c, 0, 72, 110
2, 466320, Note_off_c, 0, 72, 64
2, 466320, Note_on_c, 0, 74, 110
2, 466440, Note_off_c, 0, 74, 64
2, 466440, Note_on_c, 0, 76, 110
2, 466560, Note_off_c, 0, 76, 64
2, 466560, Note_on_c, 0, 77, 110
2, 466680, Note_off_c, 0, 77, 64
2, 466680, Note_on_c, 0, 79, 110
2, 466800, Note_off_c, 0, 79, 64
2, 466800, Note_on_c, 0, 76, 110
2, 466920, Note_off_c, 0, 76, 64
2, 466920, Note_on_c, 0, 77, 110
2, 467040, Note_off_c, 0, 77, 64
2, 467040, Note_on_c, 0, 79, 110
2, 467160, Note_off_c, 0, 79, 64
2, 467160, Note_on_c, 0, 81, 110
2, 467280, Note_off_c, 0, 81, 64
2, 467280, Note_on_c, 0, 77, 110
2, 467400, Note_off_c, 0, 77, 64
2, 467400, Note_on_c, 0, 79, 110
2, 467520, Note_off_c, 0, 79, 64
2, 467520, Note_on_c, 0, 81, 110
2, 467640, Note_off_c, 0, 81, 64
2, 467640, Note_on_c, 0, 82, 110
2, 467760, Note_off_c, 0, 82, 64
2, 467760, Note_on_c, 0, 74, 110
2, 467840, Note_off_c, 0, 74, 64
2, 467840, Note_on_c, 0, 76, 110
2, 467920, Note_off_c, 0, 76, 64
2, 467920, Note_on_c, 0, 77, 110
2, 468000, Note_off_c, 0, 77, 64
2, 468000, Note_on_c, 0, 79, 110
2, 468080, Note_off_c, 0, 79, 64
2, 468080, Note_on_c, 0, 81, 110
2, 468160, Note_off_c, 0, 81, 64
2, 468160, Note_on_c, 0, 82, 110
2, 468240, Note_off_c, 0, 82, 64
2, 468240, Note_on_c, 0, 79, 110
2, 468320, Note_off_c, 0, 79, 64
2, 468320, Note_on_c, 0, 81, 110
2, 468400, Note_off_c, 0, 81, 64
2, 468400, Note_on_c, 0, 82, 110
2, 468480, Note_off_c, 0, 82, 64
2, 468480, Note_on_c, 0, 84, 110
2, 468960, Control_c, 0, 1, 127
2, 469440, Note_off_c, 0, 84, 64
2, 469440, Note_on_c, 0, 84, 110
2, 470400, Note_off_c, 0, 84, 64
2, 470400, Note_on_c, 0, 84, 110
2, 473760, Note_off_c, 0, 84, 64
2, 473760, Control_c, 0, 1, 0
2, 474240, Note_on_c, 0, 81, 100
2, 474360, Note_off_c, 0, 81, 80
2, 474360, Note_on_c, 0, 77, 100
2, 474480, Note_off_c, 0, 77, 80
2, 474480, Note_on_c, 0, 70, 100
2, 474600, Note_off_c, 0, 70, 80
2, 474600, Note_on_c, 0, 69, 100
2, 474720, Note_off_c, 0, 69, 80
2, 474720, Note_on_c, 0, 70, 100
2, 474840, Note_off_c, 0, 70, 80
2, 474840, Note_on_c, 0, 77, 100
2, 474960, Note_off_c, 0, 77, 80
2, 474960, Note_on_c, 0, 81, 100
2, 475080, Note_off_c, 0, 81, 80
2, 475080, Note_on_c, 0, 77, 100
2, 475200, Note_off_c, 0, 77, 80
2, 475200, Note_on_c, 0, 70, 100
2, 475320, Note_off_c, 0, 70, 80
2, 475320, Note_on_c, 0, 69, 100
2, 475440, Note_off_c, 0, 69, 80
2, 475440, Note_on_c, 0, 65, 100
2, 475560, Note_off_c, 0, 65, 80
2, 475560, Note_on_c, 0, 64, 100
2, 475680, Note_off_c, 0, 64, 80
2, 475680, Note_on_c, 0, 65, 100
2, 475800, Note_off_c, 0, 65, 80
2, 475800, Note_on_c, 0, 69, 100
2, 475920, Note_off_c, 0, 69, 80
2, 475920, Note_on_c, 0, 70, 100
2, 476040, Note_off_c, 0, 70, 80
2, 476040, Note_on_c, 0, 77, 100
2, 476160, Note_off_c, 0, 77, 80
2, 476160, Note_on_c, 0, 81, 100
2, 476280, Note_off_c, 0, 81, 80
2, 476280, Note_on_c, 0, 77, 100
2, 476400, Note_off_c, 0, 77, 80
2, 476400, Note_on_c, 0, 70, 100
2, 476520, Note_off_c, 0, 70, 80
2, 476520, Note_on_c, 0, 69, 100
2, 476640, Note_off_c, 0, 69, 80
2, 476640, Note_on_c, 0, 70, 100
2, 476760, Note_off_c, 0, 70, 80
2, 476760, Note_on_c, 0, 77, 100
2, 476880, Note_off_c, 0, 77, 80
2, 476880, Note_on_c, 0, 81, 100
2, 477000, Note_off_c, 0, 81, 80
2, 477000, Note_on_c, 0, 77, 100
2, 477120, Note_off_c, 0, 77, 80
2, 477120, Note_on_c, 0, 70, 100
2, 477240, Note_off_c, 0, 70, 80
2, 477240, Note_on_c, 0, 69, 100
2, 477360, Note_off_c, 0, 69, 80
2, 477360, Note_on_c, 0, 65, 100
2, 477480, Note_off_c, 0, 65, 80
2, 477480, Note_on_c, 0, 64, 100
2, 477600, Note_off_c, 0, 64, 80
2, 477600, Note_on_c, 0, 65, 100
2, 477720, Note_off_c, 0, 65, 80
2, 477720, Note_on_c, 0, 69, 100
2, 477840, Note_off_c, 0, 69, 80
2, 477840, Note_on_c, 0, 70, 100
2, 477960, Note_off_c, 0, 70, 80
2, 477960, Note_on_c, 0, 77, 100
2, 478080, Note_off_c, 0, 77, 80
2, 478080, Note_on_c, 0, 81, 100
2, 478200, Note_off_c, 0, 81, 80
2, 478200, Note_on_c, 0, 77, 100
2, 478320, Note_off_c, 0, 77, 80
2, 478320, Note_on_c, 0, 70, 100
2, 478440, Note_off_c, 0, 70, 80
2, 478440, Note_on_c, 0, 69, 100
2, 478560, Note_off_c, 0, 69, 80
2, 478560, Note_on_c, 0, 70, 100
2, 478680, Note_off_c, 0, 70, 80
2, 478680, Note_on_c, 0, 77, 100
2, 478800, Note_off_c, 0, 77, 80
2, 478800, Note_on_c, 0, 81, 100
2, 478920, Note_off_c, 0, 81, 80
2, 478920, Note_on_c, 0, 77, 100
2, 479040, Note_off_c, 0, 77, 80
2, 479040, Note_on_c, 0, 70, 100
2, 479160, Note_off_c, 0, 70, 80
2, 479160, Note_on_c, 0, 69, 100
2, 479280, Note_off_c, 0, 69, 80
2, 479280, Note_on_c, 0, 65, 100
2, 479400, Note_off_c, 0, 65, 80
2, 479400, Note_on_c, 0, 64, 100
2, 479520, Note_off_c, 0, 64, 80
2, 479520, Note_on_c, 0, 65, 100
2, 479640, Note_off_c, 0, 65, 80
2, 479640, Note_on_c, 0, 69, 100
2, 479760, Note_off_c, 0, 69, 80
2, 479760, Note_on_c, 0, 70, 100
2, 479880, Note_off_c, 0, 70, 80
2, 479880, Note_on_c, 0, 77, 100
2, 480000, Note_off_c, 0, 77, 80
2, 480000, Note_on_c, 0, 84, 100
2, 480120, Note_off_c, 0, 84, 80
2, 480120, Note_on_c, 0, 79, 100
2, 480240, Note_off_c, 0, 79, 80
2, 480240, Note_on_c, 0, 72, 100
2, 480360, Note_off_c, 0, 72, 80
2, 480360, Note_on_c, 0, 70, 100
2, 480480, Note_off_c, 0, 70, 80
2, 480480, Note_on_c, 0, 72, 100
2, 480600, Note_off_c, 0, 72, 80
2, 480600, Note_on_c, 0, 79, 100
2, 480720, Note_off_c, 0, 79, 80
2, 480720, Note_on_c, 0, 84, 100
2, 480840, Note_off_c, 0, 84, 80
2, 480840, Note_on_c, 0, 79, 100
2, 480960, Note_off_c, 0, 79, 80
2, 480960, Note_on_c, 0, 72, 100
2, 481080, Note_off_c, 0, 72, 80
2, 481080, Note_on_c, 0, 70, 100
2, 481200, Note_off_c, 0, 70, 80
2, 481200, Note_on_c, 0, 72, 100
2, 481320, Note_off_c, 0, 72, 80
2, 481320, Note_on_c, 0, 79, 100
2, 481440, Note_off_c, 0, 79, 80
2, 481440, Note_on_c, 0, 84, 100
2, 481560, Note_off_c, 0, 84, 80
2, 481560, Note_on_c, 0, 79, 100
2, 481680, Note_off_c, 0, 79, 80
2, 481680, Note_on_c, 0, 72, 100
2, 481800, Note_off_c, 0, 72, 80
2, 481800, Note_on_c, 0, 70, 100
2, 481920, Note_off_c, 0, 70, 80
2, 481920, Note_on_c, 0, 81, 100
2, 482040, Note_off_c, 0, 81, 80
2, 482040, Note_on_c, 0, 77, 100
2, 482160, Note_off_c, 0, 77, 80
2, 482160, Note_on_c, 0, 70, 100
2, 482280, Note_off_c, 0, 70, 80
2, 482280, Note_on_c, 0, 69, 100
2, 482400, Note_off_c, 0, 69, 80
2, 482400, Note_on_c, 0, 70, 100
2, 482520, Note_off_c, 0, 70, 80
2, 482520, Note_on_c, 0, 77, 100
2, 482640, Note_off_c, 0, 77, 80
2, 482640, Note_on_c, 0, 81, 100
2, 482760, Note_off_c, 0, 81, 80
2, 482760, Note_on_c, 0, 77, 100
2, 482880, Note_off_c, 0, 77, 80
2, 482880, Note_on_c, 0, 70, 100
2, 483000, Note_off_c, 0, 70, 80
2, 483000, Note_on_c, 0, 69, 100
2, 483120, Note_off_c, 0, 69, 80
2, 483120, Note_on_c, 0, 65, 100
2, 483240, Note_off_c, 0, 65, 80
2, 483240, Note_on_c, 0, 64, 100
2, 483360, Note_off_c, 0, 64, 80
2, 483360, Note_on_c, 0, 65, 100
2, 483480, Note_off_c, 0, 65, 80
2, 483480, Note_on_c, 0, 69, 100
2, 483600, Note_off_c, 0, 69, 80
2, 483600, Note_on_c, 0, 70, 100
2, 483720, Note_off_c, 0, 70, 80
2, 483720, Note_on_c, 0, 77, 100
2, 483840, Note_off_c, 0, 77, 80
2, 483840, Note_on_c, 0, 81, 100
2, 483960, Note_off_c, 0, 81, 80
2, 483960, Note_on_c, 0, 77, 100
2, 484080, Note_off_c, 0, 77, 80
2, 484080, Note_on_c, 0, 70, 100
2, 484200, Note_off_c, 0, 70, 80
2, 484200, Note_on_c, 0, 69, 100
2, 484320, Note_off_c, 0, 69, 80
2, 484320, Note_on_c, 0, 70, 100
2, 484440, Note_off_c, 0, 70, 80
2, 484440, Note_on_c, 0, 77, 100
2, 484560, Note_off_c, 0, 77, 80
2, 484560, Note_on_c, 0, 81, 100
2, 484680, Note_off_c, 0, 81, 80
2, 484680, Note_on_c, 0, 77, 100
2, 484800, Note_off_c, 0, 77, 80
2, 484800, Note_on_c, 0, 70, 100
2, 484920, Note_off_c, 0, 70, 80
2, 484920, Note_on_c, 0, 69, 100
2, 485040, Note_off_c, 0, 69, 80
2, 485040, Note_on_c, 0, 65, 100
2, 485160, Note_off_c, 0, 65, 80
2, 485160, Note_on_c, 0, 64, 100
2, 485280, Note_off_c, 0, 64, 80
2, 485280, Note_on_c, 0, 65, 100
2, 485400, Note_off_c, 0, 65, 80
2, 485400, Note_on_c, 0, 69, 100
2, 485520, Note_off_c, 0, 69, 80
2, 485520, Note_on_c, 0, 70, 100
2, 485640, Note_off_c, 0, 70, 80
2, 485640, Note_on_c, 0, 77, 100
2, 485760, Note_off_c, 0, 77, 80
2, 485760, Note_on_c, 0, 81, 100
2, 485880, Note_off_c, 0, 81, 80
2, 485880, Note_on_c, 0, 77, 100
2, 486000, Note_off_c, 0, 77, 80
2, 486000, Note_on_c, 0, 70, 100
2, 486120, Note_off_c, 0, 70, 80
2, 486120, Note_on_c, 0, 69, 100
2, 486240, Note_off_c, 0, 69, 80
2, 486240, Note_on_c, 0, 70, 100
2, 486360, Note_off_c, 0, 70, 80
2, 486360, Note_on_c, 0, 77, 100
2, 486480, Note_off_c, 0, 77, 80
2, 486480, Note_on_c, 0, 81, 100
2, 486600, Note_off_c, 0, 81, 80
2, 486600, Note_on_c, 0, 77, 100
2, 486720, Note_off_c, 0, 77, 80
2, 486720, Note_on_c, 0, 70, 100
2, 486840, Note_off_c, 0, 70, 80
2, 486840, Note_on_c, 0, 69, 100
2, 486960, Note_off_c, 0, 69, 80
2, 486960, Note_on_c, 0, 65, 100
2, 487080, Note_off_c, 0, 65, 80
2, 487080, Note_on_c, 0, 64, 100
2, 487200, Note_off_c, 0, 64, 80
2, 487200, Note_on_c, 0, 65, 100
2, 487320, Note_off_c, 0, 65, 80
2, 487320, Note_on_c, 0, 69, 100
2, 487440, Note_off_c, 0, 69, 80
2, 487440, Note_on_c, 0, 70, 100
2, 487560, Note_off_c, 0, 70, 80
2, 487560, Note_on_c, 0, 77, 100
2, 487680, Note_off_c, 0, 77, 80
2, 487680, Note_on_c, 0, 84, 100
2, 487800, Note_off_c, 0, 84, 80
2, 487800, Note_on_c, 0, 77, 100
2, 487920, Note_off_c, 0, 77, 80
2, 487920, Note_on_c, 0, 72, 100
2, 488040, Note_off_c, 0, 72, 80
2, 488040, Note_on_c, 0, 77, 100
2, 488160, Note_off_c, 0, 77, 80
2, 488160, Note_on_c, 0, 82, 100
2, 488280, Note_off_c, 0, 82, 80
2, 488280, Note_on_c, 0, 77, 100
2, 488400, Note_off_c, 0, 77, 80
2, 488400, Note_on_c, 0, 72, 100
2, 488520, Note_off_c, 0, 72, 80
2, 488520, Note_on_c, 0, 77, 100
2, 488640, Note_off_c, 0, 77, 80
2, 488640, Note_on_c, 0, 81, 100
2, 488760, Note_off_c, 0, 81, 80
2, 488760, Note_on_c, 0, 77, 100
2, 488880, Note_off_c, 0, 77, 80
2, 488880, Note_on_c, 0, 72, 100
2, 489000, Note_off_c, 0, 72, 80
2, 489000, Note_on_c, 0, 77, 100
2, 489120, Note_off_c, 0, 77, 80
2, 489120, Note_on_c, 0, 79, 100
2, 489240, Note_off_c, 0, 79, 80
2, 489240, Note_on_c, 0, 77, 100
2, 489360, Note_off_c, 0, 77, 80
2, 489360, Note_on_c, 0, 72, 100
2, 489480, Note_off_c, 0, 72, 80
2, 489480, Note_on_c, 0, 77, 100
2, 489600, Note_off_c, 0, 77, 80
2, 489600, Note_on_c, 0, 81, 100
2, 489720, Note_off_c, 0, 81, 80
2, 489720, Note_on_c, 0, 77, 100
2, 489840, Note_off_c, 0, 77, 80
2, 489840, Note_on_c, 0, 70, 100
2, 489960, Note_off_c, 0, 70, 80
2, 489960, Note_on_c, 0, 69, 100
2, 490080, Note_off_c, 0, 69, 80
2, 490080, Note_on_c, 0, 70, 100
2, 490200, Note_off_c, 0, 70, 80
2, 490200, Note_on_c, 0, 77, 100
2, 490320, Note_off_c, 0, 77, 80
2, 490320, Note_on_c, 0, 81, 100
2, 490440, Note_off_c, 0, 81, 80
2, 490440, Note_on_c, 0, 77, 100
2, 490560, Note_off_c, 0, 77, 80
2, 490560, Note_on_c, 0, 70, 100
2, 490680, Note_off_c, 0, 70, 80
2, 490680, Note_on_c, 0, 69, 100
2, 490800, Note_off_c, 0, 69, 80
2, 490800, Note_on_c, 0, 65, 100
2, 490920, Note_off_c, 0, 65, 80
2, 490920, Note_on_c, 0, 64, 100
2, 491040, Note_off_c, 0, 64, 80
2, 491040, Note_on_c, 0, 65, 100
2, 491160, Note_off_c, 0, 65, 80
2, 491160, Note_on_c, 0, 69, 100
2, 491280, Note_off_c, 0, 69, 80
2, 491280, Note_on_c, 0, 70, 100
2, 491400, Note_off_c, 0, 70, 80
2, 491400, Note_on_c, 0, 77, 100
2, 491520, Note_off_c, 0, 77, 80
2, 491520, Note_on_c, 0, 81, 100
2, 491640, Note_off_c, 0, 81, 80
2, 491640, Note_on_c, 0, 77, 100
2, 491760, Note_off_c, 0, 77, 80
2, 491760, Note_on_c, 0, 70, 100
2, 491880, Note_off_c, 0, 70, 80
2, 491880, Note_on_c, 0, 69, 100
2, 492000, Note_off_c, 0, 69, 80
2, 492000, Note_on_c, 0, 70, 100
2, 492120, Note_off_c, 0, 70, 80
2, 492120, Note_on_c, 0, 77, 100
2, 492240, Note_off_c, 0, 77, 80
2, 492240, Note_on_c, 0, 81, 100
2, 492360, Note_off_c, 0, 81, 80
2, 492360, Note_on_c, 0, 77, 100
2, 492480, Note_off_c, 0, 77, 80
2, 492480, Note_on_c, 0, 70, 100
2, 492600, Note_off_c, 0, 70, 80
2, 492600, Note_on_c, 0, 69, 100
2, 492720, Note_off_c, 0, 69, 80
2, 492720, Note_on_c, 0, 65, 100
2, 492840, Note_off_c, 0, 65, 80
2, 492840, Note_on_c, 0, 64, 100
2, 492960, Note_off_c, 0, 64, 80
2, 492960, Note_on_c, 0, 65, 100
2, 493080, Note_off_c, 0, 65, 80
2, 493080, Note_on_c, 0, 69, 100
2, 493200, Note_off_c, 0, 69, 80
2, 493200, Note_on_c, 0, 70, 100
2, 493320, Note_off_c, 0, 70, 80
2, 493320, Note_on_c, 0, 77, 100
2, 493440, Note_off_c, 0, 77, 80
2, 493440, Note_on_c, 0, 81, 100
2, 493560, Note_off_c, 0, 81, 80
2, 493560, Note_on_c, 0, 77, 100
2, 493680, Note_off_c, 0, 77, 80
2, 493680, Note_on_c, 0, 70, 100
2, 493800, Note_off_c, 0, 70, 80
2, 493800, Note_on_c, 0, 69, 100
2, 493920, Note_off_c, 0, 69, 80
2, 493920, Note_on_c, 0, 70, 100
2, 494040, Note_off_c, 0, 70, 80
2, 494040, Note_on_c, 0, 77, 100
2, 494160, Note_off_c, 0, 77, 80
2, 494160, Note_on_c, 0, 81, 100
2, 494280, Note_off_c, 0, 81, 80
2, 494280, Note_on_c, 0, 77, 100
2, 494400, Note_off_c, 0, 77, 80
2, 494400, Note_on_c, 0, 70, 100
2, 494520, Note_off_c, 0, 70, 80
2, 494520, Note_on_c, 0, 69, 100
2, 494640, Note_off_c, 0, 69, 80
2, 494640, Note_on_c, 0, 65, 100
2, 494760, Note_off_c, 0, 65, 80
2, 494760, Note_on_c, 0, 64, 100
2, 494880, Note_off_c, 0, 64, 80
2, 494880, Note_on_c, 0, 65, 100
2, 495000, Note_off_c, 0, 65, 80
2, 495000, Note_on_c, 0, 69, 100
2, 495120, Note_off_c, 0, 69, 80
2, 495120, Note_on_c, 0, 70, 100
2, 495240, Note_off_c, 0, 70, 80
2, 495240, Note_on_c, 0, 77, 100
2, 495360, Note_off_c, 0, 77, 80
2, 495360, Note_on_c, 0, 84, 100
2, 495480, Note_off_c, 0, 84, 80
2, 495480, Note_on_c, 0, 79, 100
2, 495600, Note_off_c, 0, 79, 80
2, 495600, Note_on_c, 0, 72, 100
2, 495720, Note_off_c, 0, 72, 80
2, 495720, Note_on_c, 0, 70, 100
2, 495840, Note_off_c, 0, 70, 80
2, 495840, Note_on_c, 0, 72, 100
2, 495960, Note_off_c, 0, 72, 80
2, 495960, Note_on_c, 0, 79, 100
2, 496080, Note_off_c, 0, 79, 80
2, 496080, Note_on_c, 0, 84, 100
2, 496200, Note_off_c, 0, 84, 80
2, 496200, Note_on_c, 0, 79, 100
2, 496320, Note_off_c, 0, 79, 80
2, 496320, Note_on_c, 0, 72, 100
2, 496440, Note_off_c, 0, 72, 80
2, 496440, Note_on_c, 0, 70, 100
2, 496560, Note_off_c, 0, 70, 80
2, 496560, Note_on_c, 0, 72, 100
2, 496680, Note_off_c, 0, 72, 80
2, 496680, Note_on_c, 0, 79, 100
2, 496800, Note_off_c, 0, 79, 80
2, 496800, Note_on_c, 0, 84, 100
2, 496920, Note_off_c, 0, 84, 80
2, 496920, Note_on_c, 0, 79, 100
2, 497040, Note_off_c, 0, 79, 80
2, 497040, Note_on_c, 0, 72, 100
2, 497160, Note_off_c, 0, 72, 80
2, 497160, Note_on_c, 0, 70, 100
2, 497280, Note_off_c, 0, 70, 80
2, 497280, Note_on_c, 0, 81, 100
2, 497400, Note_off_c, 0, 81, 80
2, 497400, Note_on_c, 0, 77, 100
2, 497520, Note_off_c, 0, 77, 80
2, 497520, Note_on_c, 0, 70, 100
2, 497640, Note_off_c, 0, 70, 80
2, 497640, Note_on_c, 0, 69, 100
2, 497760, Note_off_c, 0, 69, 80
2, 497760, Note_on_c, 0, 70, 100
2, 497880, Note_off_c, 0, 70, 80
2, 497880, Note_on_c, 0, 77, 100
2, 498000, Note_off_c, 0, 77, 80
2, 498000, Note_on_c, 0, 81, 100
2, 498120, Note_off_c, 0, 81, 80
2, 498120, Note_on_c, 0, 77, 100
2, 498240, Note_off_c, 0, 77, 80
2, 498240, Note_on_c, 0, 70, 100
2, 498360, Note_off_c, 0, 70, 80
2, 498360, Note_on_c, 0, 69, 100
2, 498480, Note_off_c, 0, 69, 80
2, 498480, Note_on_c, 0, 65, 100
2, 498600, Note_off_c, 0, 65, 80
2, 498600, Note_on_c, 0, 64, 100
2, 498720, Note_off_c, 0, 64, 80
2, 498720, Note_on_c, 0, 65, 100
2, 498840, Note_off_c, 0, 65, 80
2, 498840, Note_on_c, 0, 69, 100
2, 498960, Note_off_c, 0, 69, 80
2, 498960, Note_on_c, 0, 70, 100
2, 499080, Note_off_c, 0, 70, 80
2, 499080, Note_on_c, 0, 77, 100
2, 499200, Note_off_c, 0, 77, 80
2, 499200, Note_on_c, 0, 81, 100
2, 499320, Note_off_c, 0, 81, 80
2, 499320, Note_on_c, 0, 77, 100
2, 499440, Note_off_c, 0, 77, 80
2, 499440, Note_on_c, 0, 70, 100
2, 499560, Note_off_c, 0, 70, 80
2, 499560, Note_on_c, 0, 69, 100
2, 499680, Note_off_c, 0, 69, 80
2, 499680, Note_on_c, 0, 70, 100
2, 499800, Note_off_c, 0, 70, 80
2, 499800, Note_on_c, 0, 77, 100
2, 499920, Note_off_c, 0, 77, 80
2, 499920, Note_on_c, 0, 81, 100
2, 500040, Note_off_c, 0, 81, 80
2, 500040, Note_on_c, 0, 77, 100
2, 500160, Note_off_c, 0, 77, 80
2, 500160, Note_on_c, 0, 70, 100
2, 500280, Note_off_c, 0, 70, 80
2, 500280, Note_on_c, 0, 69, 100
2, 500400, Note_off_c, 0, 69, 80
2, 500400, Note_on_c, 0, 65, 100
2, 500520, Note_off_c, 0, 65, 80
2, 500520, Note_on_c, 0, 64, 100
2, 500640, Note_off_c, 0, 64, 80
2, 500640, Note_on_c, 0, 65, 100
2, 500760, Note_off_c, 0, 65, 80
2, 500760, Note_on_c, 0, 69, 100
2, 500880, Note_off_c, 0, 69, 80
2, 500880, Note_on_c, 0, 70, 100
2, 501000, Note_off_c, 0, 70, 80
2, 501000, Note_on_c, 0, 77, 100
2, 501120, Note_off_c, 0, 77, 80
2, 501120, Note_on_c, 0, 81, 100
2, 501240, Note_off_c, 0, 81, 80
2, 501240, Note_on_c, 0, 77, 100
2, 501360, Note_off_c, 0, 77, 80
2, 501360, Note_on_c, 0, 70, 100
2, 501480, Note_off_c, 0, 70, 80
2, 501480, Note_on_c, 0, 69, 100
2, 501600, Note_off_c, 0, 69, 80
2, 501600, Note_on_c, 0, 70, 100
2, 501720, Note_off_c, 0, 70, 80
2, 501720, Note_on_c, 0, 77, 100
2, 501840, Note_off_c, 0, 77, 80
2, 501840, Note_on_c, 0, 81, 100
2, 501960, Note_off_c, 0, 81, 80
2, 501960, Note_on_c, 0, 77, 100
2, 502080, Note_off_c, 0, 77, 80
2, 502080, Note_on_c, 0, 70, 100
2, 502200, Note_off_c, 0, 70, 80
2, 502200, Note_on_c, 0, 69, 100
2, 502320, Note_off_c, 0, 69, 80
2, 502320, Note_on_c, 0, 65, 100
2, 502440, Note_off_c, 0, 65, 80
2, 502440, Note_on_c, 0, 64, 100
2, 502560, Note_off_c, 0, 64, 80
2, 502560, Note_on_c, 0, 65, 100
2, 502680, Note_off_c, 0, 65, 80
2, 502680, Note_on_c, 0, 69, 100
2, 502800, Note_off_c, 0, 69, 80
2, 502800, Note_on_c, 0, 70, 100
2, 502920, Note_off_c, 0, 70, 80
2, 502920, Note_on_c, 0, 77, 100
2, 503040, Note_off_c, 0, 77, 80
2, 503040, Note_on_c, 0, 84, 100
2, 503160, Note_off_c, 0, 84, 80
2, 503160, Note_on_c, 0, 77, 100
2, 503280, Note_off_c, 0, 77, 80
2, 503280, Note_on_c, 0, 72, 100
2, 503400, Note_off_c, 0, 72, 80
2, 503400, Note_on_c, 0, 77, 100
2, 503520, Note_off_c, 0, 77, 80
2, 503520, Note_on_c, 0, 82, 100
2, 503640, Note_off_c, 0, 82, 80
2, 503640, Note_on_c, 0, 77, 100
2, 503760, Note_off_c, 0, 77, 80
2, 503760, Note_on_c, 0, 72, 100
2, 503880, Note_off_c, 0, 72, 80
2, 503880, Note_on_c, 0, 77, 100
2, 504000, Note_off_c, 0, 77, 80
2, 504000, Note_on_c, 0, 81, 100
2, 504120, Note_off_c, 0, 81, 80
2, 504120, Note_on_c, 0, 77, 100
2, 504240, Note_off_c, 0, 77, 80
2, 504240, Note_on_c, 0, 72, 100
2, 504360, Note_off_c, 0, 72, 80
2, 504360, Note_on_c, 0, 77, 100
2, 504480, Note_off_c, 0, 77, 80
2, 504480, Note_on_c, 0, 79, 100
2, 504600, Note_off_c, 0, 79, 80
2, 504600, Note_on_c, 0, 77, 100
2, 504720, Note_off_c, 0, 77, 80
2, 504720, Note_on_c, 0, 72, 100
2, 504840, Note_off_c, 0, 72, 80
2, 504840, Note_on_c, 0, 77, 100
2, 504960, Note_off_c, 0, 77, 80
2, 504960, Note_on_c, 0, 53, 70
2, 505080, Note_off_c, 0, 53, 64
2, 505440, Note_on_c, 0, 72, 70
2, 505440, Note_on_c, 0, 65, 70
2, 505440, Note_on_c, 0, 69, 70
2, 505560, Note_off_c, 0, 69, 64
2, 505560, Note_off_c, 0, 65, 64
2, 505560, Note_off_c, 0, 72, 64
2, 505740, Note_on_c, 0, 72, 70
2, 505740, Note_on_c, 0, 69, 70
2, 505740, Note_on_c, 0, 65, 70
2, 505860, Note_off_c, 0, 65, 64
2, 505860, Note_off_c, 0, 69, 64
2, 505860, Note_off_c, 0, 72, 64
2, 506400, Note_on_c, 0, 74, 70
2, 506400, Note_on_c, 0, 69, 70
2, 506400, Note_on_c, 0, 65, 70
2, 506520, Note_off_c, 0, 65, 64
2, 506520, Note_off_c, 0, 69, 64
2, 506520, Note_off_c, 0, 74, 64
2, 507360, Note_on_c, 0, 70, 70
2, 507360, Note_on_c, 0, 62, 70
2, 507360, Note_on_c, 0, 65, 70
2, 507480, Note_off_c, 0, 65, 64
2, 507480, Note_off_c, 0, 62, 64
2, 507480, Note_off_c, 0, 70, 64
2, 507660, Note_on_c, 0, 70, 70
2, 507660, Note_on_c, 0, 62, 70
2, 507660, Note_on_c, 0, 65, 70
2, 507780, Note_off_c, 0, 65, 64
2, 507780, Note_off_c, 0, 62, 64
2, 507780, Note_off_c, 0, 70, 64
2, 507840, Note_on_c, 0, 60, 70
2, 507960, Note_off_c, 0, 60, 64
2, 508320, Note_on_c, 0, 72, 70
2, 508320, Note_on_c, 0, 67, 70
2, 508320, Note_on_c, 0, 64, 70
2, 508440, Note_off_c, 0, 64, 64
2, 508440, Note_off_c, 0, 67, 64
2, 508440, Note_off_c, 0, 72, 64
2, 508800, Note_on_c, 0, 53, 70
2, 508920, Note_off_c, 0, 53, 64
2, 509280, Note_on_c, 0, 72, 70
2, 509280, Note_on_c, 0, 65, 70
2, 509280, Note_on_c, 0, 69, 70
2, 509400, Note_off_c, 0, 69, 64
2, 509400, Note_off_c, 0, 65, 64
2, 509400, Note_off_c, 0, 72, 64
2, 509580, Note_on_c, 0, 72, 70
2, 509580, Note_on_c, 0, 69, 70
2, 509580, Note_on_c, 0, 65, 70
2, 509700, Note_off_c, 0, 65, 64
2, 509700, Note_off_c, 0, 69, 64
2, 509700, Note_off_c, 0, 72, 64
2, 510120, Note_on_c, 0, 62, 70
2, 510240, Note_off_c, 0, 62, 64
2, 510240, Note_on_c, 0, 74, 70
2, 510240, Note_on_c, 0, 69, 70
2, 510240, Note_on_c, 0, 65, 70
2, 510360, Note_off_c, 0, 65, 64
2, 510360, Note_off_c, 0, 69, 64
2, 510360, Note_off_c, 0, 74, 64
2, 511200, Note_on_c, 0, 70, 70
2, 511200, Note_on_c, 0, 62, 70
2, 511200, Note_on_c, 0, 65, 70
2, 511320, Note_off_c, 0, 65, 64
2, 511320, Note_off_c, 0, 62, 64
2, 511320, Note_off_c, 0, 70, 64
2, 511500, Note_on_c, 0, 70, 70
2, 511500, Note_on_c, 0, 62, 70
2, 511500, Note_on_c, 0, 65, 70
2, 511620, Note_off_c, 0, 65, 64
2, 511620, Note_off_c, 0, 62, 64
2, 511620, Note_off_c, 0, 70, 64
2, 511680, Note_on_c, 0, 60, 70
2, 511800, Note_off_c, 0, 60, 64
2, 512640, Note_on_c, 0, 53, 70
2, 512760, Note_off_c, 0, 53, 64
2, 513120, Note_on_c, 0, 72, 70
2, 513120, Note_on_c, 0, 65, 70
2, 513120, Note_on_c, 0, 69, 70
2, 513240, Note_off_c, 0, 69, 64
2, 513240, Note_off_c, 0, 65, 64
2, 513240, Note_off_c, 0, 72, 64
2, 513420, Note_on_c, 0, 72, 70
2, 513420, Note_on_c, 0, 69, 70
2, 513420, Note_on_c, 0, 65, 70
2, 513540, Note_off_c, 0, 65, 64
2, 513540, Note_off_c, 0, 69, 64
2, 513540, Note_off_c, 0, 72, 64
2, 514080, Note_on_c, 0, 74, 70
2, 514080, Note_on_c, 0, 69, 70
2, 514080, Note_on_c, 0, 65, 70
2, 514200, Note_off_c, 0, 65, 64
2, 514200, Note_off_c, 0, 69, 64
2, 514200, Note_off_c, 0, 74, 64
2, 515040, Note_on_c, 0, 70, 70
2, 515040, Note_on_c, 0, 62, 70
2, 515040, Note_on_c, 0, 65, 70
2, 515160, Note_off_c, 0, 65, 64
2, 515160, Note_off_c, 0, 62, 64
2, 515160, Note_off_c, 0, 70, 64
2, 515340, Note_on_c, 0, 70, 70
2, 515340, Note_on_c, 0, 62, 70
2, 515340, Note_on_c, 0, 65, 70
2, 515460, Note_off_c, 0, 65, 64
2, 515460, Note_off_c, 0, 62, 64
2, 515460, Note_off_c, 0, 70, 64
2, 515520, Note_on_c, 0, 60, 70
2, 515640, Note_off_c, 0, 60, 64
2, 516000, Note_on_c, 0, 72, 70
2, 516000, Note_on_c, 0, 67, 70
2, 516000, Note_on_c, 0, 64, 70
2, 516120, Note_off_c, 0, 64, 64
2, 516120, Note_off_c, 0, 67, 64
2, 516120, Note_off_c, 0, 72, 64
2, 516480, Note_on_c, 0, 53, 70
2, 516600, Note_off_c, 0, 53, 64
2, 516960, Note_on_c, 0, 72, 70
2, 516960, Note_on_c, 0, 65, 70
2, 516960, Note_on_c, 0, 69, 70
2, 517080, Note_off_c, 0, 69, 64
2, 517080, Note_off_c, 0, 65, 64
2, 517080, Note_off_c, 0, 72, 64
2, 517260, Note_on_c, 0, 72, 70
2, 517260, Note_on_c, 0, 69, 70
2, 517260, Note_on_c, 0, 65, 70
2, 517380, Note_off_c, 0, 65, 64
2, 517380, Note_off_c, 0, 69, 64
2, 517380, Note_off_c, 0, 72, 64
2, 517800, Note_on_c, 0, 62, 70
2, 517920, Note_off_c, 0, 62, 64
2, 517920, Note_on_c, 0, 74, 70
2, 517920, Note_on_c, 0, 69, 70
2, 517920, Note_on_c, 0, 65, 70
2, 518040, Note_off_c, 0, 65, 64
2, 518040, Note_off_c, 0, 69, 64
2, 518040, Note_off_c, 0, 74, 64
2, 518880, Note_on_c, 0, 70, 70
2, 518880, Note_on_c, 0, 62, 70
2, 518880, Note_on_c, 0, 65, 70
2, 519000, Note_off_c, 0, 65, 64
2, 519000, Note_off_c, 0, 62, 64
2, 519000, Note_off_c, 0, 70, 64
2, 519180, Note_on_c, 0, 70, 70
2, 519180, Note_on_c, 0, 62, 70
2, 519180, Note_on_c, 0, 65, 70
2, 519300, Note_off_c, 0, 65, 64
2, 519300, Note_off_c, 0, 62, 64
2, 519300, Note_off_c, 0, 70, 64
2, 519360, Note_on_c, 0, 60, 70
2, 519480, Note_off_c, 0, 60, 64
2, 519840, Note_on_c, 0, 72, 70
2, 519840, Note_on_c, 0, 67, 70
2, 519840, Note_on_c, 0, 64, 70
2, 519960, Note_off_c, 0, 64, 64
2, 519960, Note_off_c, 0, 67, 64
2, 519960, Note_off_c, 0, 72, 64
2, 520320, Note_on_c, 0, 77, 100
2, 520560, Note_off_c, 0, 77, 64
2, 520560, Note_on_c, 0, 76, 100
2, 520800, Note_off_c, 0, 76, 64
2, 520800, Note_on_c, 0, 75, 100
2, 520920, Note_off_c, 0, 75, 64
2, 520920, Note_on_c, 0, 76, 100
2, 521040, Note_off_c, 0, 76, 64
2, 521040, Note_on_c, 0, 75, 100
2, 521160, Note_off_c, 0, 75, 64
2, 521160, Note_on_c, 0, 74, 100
2, 521280, Note_off_c, 0, 74, 64
2, 521280, Note_on_c, 0, 73, 100
2, 521520, Note_off_c, 0, 73, 64
2, 521520, Note_on_c, 0, 72, 100
2, 521760, Note_off_c, 0, 72, 64
2, 521760, Note_on_c, 0, 71, 100
2, 522000, Note_off_c, 0, 71, 64
2, 522000, Note_on_c, 0, 72, 100
2, 522240, Note_off_c, 0, 72, 64
2, 522240, Note_on_c, 0, 74, 100
2, 522480, Note_off_c, 0, 74, 64
2, 522480, Note_on_c, 0, 73, 100
2, 522720, Note_off_c, 0, 73, 64
2, 522720, Note_on_c, 0, 72, 100
2, 522840, Note_off_c, 0, 72, 64
2, 522840, Note_on_c, 0, 73, 100
2, 522960, Note_off_c, 0, 73, 64
2, 522960, Note_on_c, 0, 72, 100
2, 523080, Note_off_c, 0, 72, 64
2, 523080, Note_on_c, 0, 71, 100
2, 523200, Note_off_c, 0, 71, 64
2, 523200, Note_on_c, 0, 70, 100
2, 523440, Note_off_c, 0, 70, 64
2, 523440, Note_on_c, 0, 69, 100
2, 523680, Note_off_c, 0, 69, 64
2, 523680, Note_on_c, 0, 68, 100
2, 523920, Note_off_c, 0, 68, 64
2, 523920, Note_on_c, 0, 69, 100
2, 524160, Note_off_c, 0, 69, 64
2, 524160, Note_on_c, 0, 72, 100
2, 524400, Note_off_c, 0, 72, 64
2, 524400, Note_on_c, 0, 67, 100
2, 524520, Note_off_c, 0, 67, 64
2, 524520, Note_on_c, 0, 67, 100
2, 524640, Note_off_c, 0, 67, 64
2, 524640, Note_on_c, 0, 66, 100
2, 524873, Note_off_c, 0, 66, 64
2, 524880, Note_on_c, 0, 67, 100
2, 525120, Note_off_c, 0, 67, 64
2, 525120, Note_on_c, 0, 72, 100
2, 525360, Note_off_c, 0, 72, 64
2, 525360, Note_on_c, 0, 67, 100
2, 525480, Note_off_c, 0, 67, 64
2, 525480, Note_on_c, 0, 67, 100
2, 525600, Note_off_c, 0, 67, 64
2, 525600, Note_on_c, 0, 66, 100
2, 525833, Note_off_c, 0, 66, 64
2, 525840, Note_on_c, 0, 67, 100
2, 526080, Note_off_c, 0, 67, 64
2, 526080, Note_on_c, 0, 60, 100
2, 526200, Note_off_c, 0, 60, 64
2, 526200, Note_on_c, 0, 61, 100
2, 526320, Note_off_c, 0, 61, 64
2, 526320, Note_on_c, 0, 62, 100
2, 526440, Note_off_c, 0, 62, 64
2, 526440, Note_on_c, 0, 63, 100
2, 526560, Note_off_c, 0, 63, 64
2, 526560, Note_on_c, 0, 64, 100
2, 526680, Note_off_c, 0, 64, 64
2, 526680, Note_on_c, 0, 65, 100
2, 526800, Note_off_c, 0, 65, 64
2, 526800, Note_on_c, 0, 66, 100
2, 526920, Note_off_c, 0, 66, 64
2, 526920, Note_on_c, 0, 67, 100
2, 527040, Note_off_c, 0, 67, 64
2, 527040, Note_on_c, 0, 68, 100
2, 527160, Note_off_c, 0, 68, 64
2, 527160, Note_on_c, 0, 69, 100
2, 527280, Note_off_c, 0, 69, 64
2, 527280, Note_on_c, 0, 70, 100
2, 527400, Note_off_c, 0, 70, 64
2, 527400, Note_on_c, 0, 71, 100
2, 527520, Note_off_c, 0, 71, 64
2, 527520, Note_on_c, 0, 72, 100
2, 527640, Note_off_c, 0, 72, 64
2, 527640, Note_on_c, 0, 73, 100
2, 527760, Note_off_c, 0, 73, 64
2, 527760, Note_on_c, 0, 74, 100
2, 527880, Note_off_c, 0, 74, 64
2, 527880, Note_on_c, 0, 75, 100
2, 528000, Note_off_c, 0, 75, 64
2, 528000, Note_on_c, 0, 76, 100
2, 528120, Note_off_c, 0, 76, 64
2, 528120, Note_on_c, 0, 77, 100
2, 528240, Note_off_c, 0, 77, 64
2, 528240, Note_on_c, 0, 78, 100
2, 528360, Note_off_c, 0, 78, 64
2, 528360, Note_on_c, 0, 79, 100
2, 528480, Note_off_c, 0, 79, 64
2, 528480, Note_on_c, 0, 80, 100
2, 528600, Note_off_c, 0, 80, 64
2, 528600, Note_on_c, 0, 81, 100
2, 528720, Note_off_c, 0, 81, 64
2, 528720, Note_on_c, 0, 82, 100
2, 528840, Note_off_c, 0, 82, 64
2, 528840, Note_on_c, 0, 83, 100
2, 528960, Note_off_c, 0, 83, 64
2, 528960, Note_on_c, 0, 84, 100
2, 529080, Note_off_c, 0, 84, 64
2, 529080, Note_on_c, 0, 85, 100
2, 529200, Note_off_c, 0, 85, 64
2, 529200, Note_on_c, 0, 86, 100
2, 529320, Note_off_c, 0, 86, 64
2, 529320, Note_on_c, 0, 88, 100
2, 529440, Note_off_c, 0, 88, 64
2, 529440, Note_on_c, 0, 89, 100
2, 529560, Note_off_c, 0, 89, 64
2, 529560, Note_on_c, 0, 90, 100
2, 529680, Note_off_c, 0, 90, 64
2, 529680, Note_on_c, 0, 91, 100
2, 529800, Note_off_c, 0, 91, 64
2, 529800, Note_on_c, 0, 92, 100
2, 529860, Note_off_c, 0, 92, 64
2, 529860, Note_on_c, 0, 93, 100
2, 529920, Note_off_c, 0, 93, 64
2, 529920, Note_on_c, 0, 89, 100
2, 530040, Note_off_c, 0, 89, 64
2, 531360, Note_on_c, 0, 60, 100
2, 531600, Note_off_c, 0, 60, 64
2, 531840, Note_on_c, 0, 65, 100
2, 531840, Note_on_c, 0, 60, 100
2, 532080, Note_off_c, 0, 60, 64
2, 532080, Note_off_c, 0, 65, 64
2, 532080, End_track
3, 0, Start_track
3, 0, Title_t, "SoloGuitar"
3, 0, MIDI_port, 0
3, 0, Channel_prefix, 1
3, 0, Control_c, 1, 7, 99
3, 0, Control_c, 1, 10, 64
3, 0, Program_c, 1, 30
3, 0, Note_on_c, 1, 53, 70
3, 0, Note_on_c, 1, 60, 70
3, 0, Note_on_c, 1, 65, 70
3, 1920, Note_off_c, 1, 65, 80
3, 1920, Note_off_c, 1, 60, 80
3, 1920, Note_off_c, 1, 53, 80
3, 1920, Note_on_c, 1, 62, 70
3, 1920, Note_on_c, 1, 57, 70
3, 1920, Note_on_c, 1, 50, 70
3, 3840, Note_off_c, 1, 50, 80
3, 3840, Note_off_c, 1, 57, 80
3, 3840, Note_off_c, 1, 62, 80
3, 3840, Note_on_c, 1, 60, 70
3, 3840, Note_on_c, 1, 55, 70
3, 3840, Note_on_c, 1, 48, 70
3, 7680, Note_off_c, 1, 48, 80
3, 7680, Note_off_c, 1, 55, 80
3, 7680, Note_off_c, 1, 60, 80
3, 7680, Note_on_c, 1, 60, 70
3, 7680, Note_on_c, 1, 53, 70
3, 7680, Note_on_c, 1, 65, 70
3, 9600, Note_off_c, 1, 65, 80
3, 9600, Note_off_c, 1, 53, 80
3, 9600, Note_off_c, 1, 60, 80
3, 9600, Note_on_c, 1, 62, 70
3, 9600, Note_on_c, 1, 57, 70
3, 9600, Note_on_c, 1, 50, 70
3, 11520, Note_off_c, 1, 50, 80
3, 11520, Note_off_c, 1, 57, 80
3, 11520, Note_off_c, 1, 62, 80
3, 11520, Note_on_c, 1, 60, 70
3, 11520, Note_on_c, 1, 55, 70
3, 11520, Note_on_c, 1, 48, 70
3, 15360, Note_off_c, 1, 48, 80
3, 15360, Note_off_c, 1, 55, 80
3, 15360, Note_off_c, 1, 60, 80
3, 15360, Note_on_c, 1, 57, 70
3, 15360, Note_on_c, 1, 50, 70
3, 15360, Note_on_c, 1, 62, 70
3, 17280, Note_off_c, 1, 62, 64
3, 17280, Note_off_c, 1, 50, 80
3, 17280, Note_off_c, 1, 57, 80
3, 17280, Note_on_c, 1, 40, 70
3, 18000, Note_off_c, 1, 40, 80
3, 18000, Note_on_c, 1, 41, 70
3, 18000, Note_on_c, 1, 48, 70
3, 18000, Note_on_c, 1, 53, 70
3, 18720, Note_off_c, 1, 48, 80
3, 18720, Note_off_c, 1, 41, 80
3, 18720, Note_on_c, 1, 45, 70
3, 18720, Note_on_c, 1, 52, 70
3, 18727, Note_off_c, 1, 53, 64
3, 19200, Note_off_c, 1, 45, 80
3, 19200, Note_off_c, 1, 52, 80
3, 19200, Note_on_c, 1, 46, 70
3, 19200, Note_on_c, 1, 53, 70
3, 19200, Note_on_c, 1, 58, 70
3, 21120, Note_off_c, 1, 58, 80
3, 21120, Note_off_c, 1, 53, 80
3, 21120, Note_off_c, 1, 46, 80
3, 21120, Note_on_c, 1, 43, 70
3, 21120, Note_on_c, 1, 50, 70
3, 21833, Note_off_c, 1, 50, 64
3, 21840, Note_off_c, 1, 43, 80
3, 21840, Note_on_c, 1, 45, 70
3, 21840, Note_on_c, 1, 52, 70
3, 22560, Note_off_c, 1, 45, 80
3, 22560, Note_on_c, 1, 48, 70
3, 22560, Note_on_c, 1, 55, 70
3, 22567, Note_off_c, 1, 52, 64
3, 23040, Note_off_c, 1, 48, 80
3, 23040, Note_off_c, 1, 55, 64
3, 23040, Note_on_c, 1, 62, 70
3, 23040, Note_on_c, 1, 50, 70
3, 23040, Note_on_c, 1, 57, 70
3, 24960, Note_off_c, 1, 57, 80
3, 24960, Note_off_c, 1, 50, 80
3, 24960, Note_off_c, 1, 62, 64
3, 24960, Note_on_c, 1, 40, 70
3, 25680, Note_off_c, 1, 40, 80
3, 25680, Note_on_c, 1, 41, 70
3, 25680, Note_on_c, 1, 48, 70
3, 25680, Note_on_c, 1, 53, 70
3, 26400, Note_off_c, 1, 48, 80
3, 26400, Note_off_c, 1, 41, 80
3, 26400, Note_on_c, 1, 45, 70
3, 26400, Note_on_c, 1, 52, 70
3, 26407, Note_off_c, 1, 53, 64
3, 26880, Note_off_c, 1, 45, 80
3, 26880, Note_off_c, 1, 52, 80
3, 26880, Note_on_c, 1, 46, 70
3, 26880, Note_on_c, 1, 53, 70
3, 26880, Note_on_c, 1, 58, 70
3, 28800, Note_off_c, 1, 58, 80
3, 28800, Note_off_c, 1, 53, 80
3, 28800, Note_off_c, 1, 46, 80
3, 28800, Note_on_c, 1, 43, 70
3, 28800, Note_on_c, 1, 50, 70
3, 29513, Note_off_c, 1, 50, 64
3, 29520, Note_off_c, 1, 43, 80
3, 29520, Note_on_c, 1, 52, 70
3, 29520, Note_on_c, 1, 45, 70
3, 30727, Note_off_c, 1, 45, 80
3, 30727, Note_off_c, 1, 52, 64
3, 45120, Note_on_c, 1, 59, 100
3, 45200, Note_off_c, 1, 59, 64
3, 45200, Note_on_c, 1, 60, 100
3, 45280, Note_off_c, 1, 60, 64
3, 45280, Note_on_c, 1, 64, 100
3, 45360, Note_off_c, 1, 64, 64
3, 45360, Note_on_c, 1, 65, 100
3, 45840, Note_off_c, 1, 65, 64
3, 45840, Note_on_c, 1, 71, 100
3, 46080, Note_off_c, 1, 71, 64
3, 46080, Note_on_c, 1, 70, 105
3, 46095, Pitch_bend_c, 1, 9192
3, 46110, Pitch_bend_c, 1, 10192
3, 46125, Pitch_bend_c, 1, 11192
3, 46140, Pitch_bend_c, 1, 12192
3, 46155, Pitch_bend_c, 1, 13192
3, 46170, Pitch_bend_c, 1, 14192
3, 46185, Pitch_bend_c, 1, 15192
3, 46200, Pitch_bend_c, 1, 16192
3, 46800, Control_c, 1, 1, 127
3, 48713, Note_off_c, 1, 70, 64
3, 48720, Control_c, 1, 1, 0
3, 48720, Note_on_c, 1, 69, 100
3, 48735, Pitch_bend_c, 1, 9192
3, 48750, Pitch_bend_c, 1, 10192
3, 48765, Pitch_bend_c, 1, 11192
3, 48780, Pitch_bend_c, 1, 12192
3, 48795, Pitch_bend_c, 1, 13192
3, 48810, Pitch_bend_c, 1, 14192
3, 48825, Pitch_bend_c, 1, 15192
3, 48840, Pitch_bend_c, 1, 16192
3, 48960, Control_c, 1, 1, 127
3, 49560, Note_off_c, 1, 69, 64
3, 49560, Note_on_c, 1, 69, 100
3, 49560, Control_c, 1, 1, 0
3, 49560, Pitch_bend_c, 1, 8192
3, 49680, Note_off_c, 1, 69, 64
3, 49680, Note_on_c, 1, 67, 100
3, 49800, Note_off_c, 1, 67, 64
3, 49800, Note_on_c, 1, 65, 100
3, 49920, Note_off_c, 1, 65, 64
3, 49920, Note_on_c, 1, 67, 100
3, 50160, Note_off_c, 1, 67, 64
3, 50160, Note_on_c, 1, 65, 100
3, 50175, Pitch_bend_c, 1, 9192
3, 50190, Pitch_bend_c, 1, 10192
3, 50205, Pitch_bend_c, 1, 11192
3, 50220, Pitch_bend_c, 1, 12192
3, 50235, Pitch_bend_c, 1, 13192
3, 50250, Pitch_bend_c, 1, 14192
3, 50265, Pitch_bend_c, 1, 15192
3, 50280, Pitch_bend_c, 1, 16192
3, 50640, Note_off_c, 1, 65, 64
3, 50640, Note_on_c, 1, 65, 100
3, 50640, Pitch_bend_c, 1, 8192
3, 50880, Control_c, 1, 1, 127
3, 51360, Note_on_c, 1, 60, 100
3, 51360, Control_c, 1, 1, 0
3, 51367, Note_off_c, 1, 65, 64
3, 51600, Note_off_c, 1, 60, 64
3, 51600, Note_on_c, 1, 62, 100
3, 52080, Note_off_c, 1, 62, 64
3, 52080, Note_on_c, 1, 64, 100
3, 52320, Note_off_c, 1, 64, 64
3, 52320, Note_on_c, 1, 62, 100
3, 52320, Control_c, 1, 1, 127
3, 53033, Note_off_c, 1, 62, 64
3, 53040, Note_on_c, 1, 65, 100
3, 53040, Control_c, 1, 1, 0
3, 53160, Note_off_c, 1, 65, 64
3, 53160, Note_on_c, 1, 66, 100
3, 53280, Note_off_c, 1, 66, 64
3, 53280, Note_on_c, 1, 67, 100
3, 53400, Note_off_c, 1, 67, 64
3, 53400, Note_on_c, 1, 69, 100
3, 53520, Note_off_c, 1, 69, 64
3, 53520, Note_on_c, 1, 70, 100
3, 53640, Note_off_c, 1, 70, 64
3, 53640, Note_on_c, 1, 71, 100
3, 53760, Note_off_c, 1, 71, 64
3, 53760, Note_on_c, 1, 72, 100
3, 54000, Note_off_c, 1, 72, 64
3, 54000, Note_on_c, 1, 70, 100
3, 54015, Pitch_bend_c, 1, 9192
3, 54030, Pitch_bend_c, 1, 10192
3, 54045, Pitch_bend_c, 1, 11192
3, 54060, Pitch_bend_c, 1, 12192
3, 54075, Pitch_bend_c, 1, 13192
3, 54090, Pitch_bend_c, 1, 14192
3, 54105, Pitch_bend_c, 1, 15192
3, 54120, Pitch_bend_c, 1, 16192
3, 55440, Note_off_c, 1, 70, 64
3, 55440, Pitch_bend_c, 1, 8192
3, 55440, Note_on_c, 1, 72, 100
3, 55455, Pitch_bend_c, 1, 9192
3, 55470, Pitch_bend_c, 1, 10192
3, 55485, Pitch_bend_c, 1, 11192
3, 55500, Pitch_bend_c, 1, 12192
3, 55515, Pitch_bend_c, 1, 13192
3, 55530, Pitch_bend_c, 1, 14192
3, 55545, Pitch_bend_c, 1, 15192
3, 55560, Pitch_bend_c, 1, 16192
3, 55920, Note_off_c, 1, 72, 64
3, 55920, Note_on_c, 1, 72, 100
3, 55920, Pitch_bend_c, 1, 8192
3, 56160, Note_off_c, 1, 72, 64
3, 56160, Note_on_c, 1, 69, 100
3, 56400, Note_off_c, 1, 69, 64
3, 56400, Note_on_c, 1, 79, 100
3, 57120, Note_on_c, 1, 77, 100
3, 57127, Note_off_c, 1, 79, 64
3, 57600, Note_off_c, 1, 77, 64
3, 57600, Note_on_c, 1, 74, 100
3, 57833, Note_off_c, 1, 74, 64
3, 57840, Note_on_c, 1, 69, 100
3, 58080, Note_on_c, 1, 72, 100
3, 58087, Note_off_c, 1, 69, 64
3, 58095, Pitch_bend_c, 1, 9192
3, 58110, Pitch_bend_c, 1, 10192
3, 58125, Pitch_bend_c, 1, 11192
3, 58140, Pitch_bend_c, 1, 12192
3, 58155, Pitch_bend_c, 1, 13192
3, 58170, Pitch_bend_c, 1, 14192
3, 58185, Pitch_bend_c, 1, 15192
3, 58200, Pitch_bend_c, 1, 16192
3, 58793, Note_off_c, 1, 72, 64
3, 58800, Note_on_c, 1, 79, 100
3, 58815, Pitch_bend_c, 1, 9192
3, 58830, Pitch_bend_c, 1, 10192
3, 58845, Pitch_bend_c, 1, 11192
3, 58860, Pitch_bend_c, 1, 12192
3, 58875, Pitch_bend_c, 1, 13192
3, 58890, Pitch_bend_c, 1, 14192
3, 58905, Pitch_bend_c, 1, 15192
3, 58920, Pitch_bend_c, 1, 16192
3, 59280, Note_off_c, 1, 79, 64
3, 59280, Note_on_c, 1, 74, 100
3, 59280, Pitch_bend_c, 1, 8192
3, 59520, Note_off_c, 1, 74, 64
3, 59520, Note_on_c, 1, 82, 100
3, 59535, Pitch_bend_c, 1, 9192
3, 59550, Pitch_bend_c, 1, 10192
3, 59565, Pitch_bend_c, 1, 11192
3, 59580, Pitch_bend_c, 1, 12192
3, 59595, Pitch_bend_c, 1, 13192
3, 59610, Pitch_bend_c, 1, 14192
3, 59625, Pitch_bend_c, 1, 15192
3, 59640, Pitch_bend_c, 1, 16192
3, 60000, Note_off_c, 1, 82, 64
3, 60000, Note_on_c, 1, 74, 100
3, 60000, Pitch_bend_c, 1, 8192
3, 60233, Note_off_c, 1, 74, 64
3, 60240, Note_on_c, 1, 82, 100
3, 60255, Pitch_bend_c, 1, 9192
3, 60270, Pitch_bend_c, 1, 10192
3, 60285, Pitch_bend_c, 1, 11192
3, 60300, Pitch_bend_c, 1, 12192
3, 60315, Pitch_bend_c, 1, 13192
3, 60330, Pitch_bend_c, 1, 14192
3, 60345, Pitch_bend_c, 1, 15192
3, 60360, Pitch_bend_c, 1, 16192
3, 60480, Control_c, 1, 1, 127
3, 61440, Control_c, 1, 1, 0
3, 61447, Note_off_c, 1, 82, 64
3, 90240, Pitch_bend_c, 1, 8192
3, 91440, Note_on_c, 1, 69, 100
3, 91680, Note_off_c, 1, 69, 64
3, 91680, Note_on_c, 1, 74, 100
3, 91920, Note_off_c, 1, 74, 64
3, 91920, Note_on_c, 1, 76, 100
3, 92160, Note_off_c, 1, 76, 64
3, 92160, Pitch_bend_c, 1, 9192
3, 92160, Note_on_c, 1, 75, 100
3, 92175, Pitch_bend_c, 1, 10192
3, 92190, Pitch_bend_c, 1, 11192
3, 92205, Pitch_bend_c, 1, 12192
3, 92220, Pitch_bend_c, 1, 13192
3, 92235, Pitch_bend_c, 1, 14192
3, 92250, Pitch_bend_c, 1, 15192
3, 92265, Pitch_bend_c, 1, 16192
3, 93600, Note_off_c, 1, 75, 64
3, 93600, Note_on_c, 1, 76, 100
3, 93600, Pitch_bend_c, 1, 8192
3, 93840, Note_off_c, 1, 76, 64
3, 93840, Note_on_c, 1, 74, 100
3, 94800, Note_off_c, 1, 74, 64
3, 94800, Pitch_bend_c, 1, 9192
3, 94800, Note_on_c, 1, 79, 100
3, 94815, Pitch_bend_c, 1, 10192
3, 94830, Pitch_bend_c, 1, 11192
3, 94845, Pitch_bend_c, 1, 12192
3, 94860, Pitch_bend_c, 1, 13192
3, 94875, Pitch_bend_c, 1, 14192
3, 94890, Pitch_bend_c, 1, 15192
3, 94905, Pitch_bend_c, 1, 16192
3, 95280, Note_off_c, 1, 79, 64
3, 95280, Note_on_c, 1, 79, 100
3, 95280, Pitch_bend_c, 1, 8192
3, 95520, Note_off_c, 1, 79, 64
3, 95520, Note_on_c, 1, 77, 100
3, 95760, Note_off_c, 1, 77, 64
3, 95760, Note_on_c, 1, 76, 100
3, 96000, Note_off_c, 1, 76, 64
3, 96000, Note_on_c, 1, 77, 100
3, 96240, Note_off_c, 1, 77, 64
3, 96240, Note_on_c, 1, 79, 100
3, 96480, Note_off_c, 1, 79, 64
3, 96480, Note_on_c, 1, 72, 100
3, 97440, Note_off_c, 1, 72, 64
3, 97440, Note_on_c, 1, 69, 100
3, 97560, Note_off_c, 1, 69, 64
3, 97560, Note_on_c, 1, 72, 100
3, 97680, Note_off_c, 1, 72, 64
3, 97680, Note_on_c, 1, 74, 100
3, 98633, Note_on_c, 1, 69, 100
3, 98640, Note_off_c, 1, 74, 64
3, 98873, Note_off_c, 1, 69, 64
3, 98873, Note_on_c, 1, 74, 100
3, 99113, Note_off_c, 1, 74, 64
3, 99113, Note_on_c, 1, 69, 100
3, 99353, Note_off_c, 1, 69, 64
3, 99353, Note_on_c, 1, 76, 100
3, 99593, Note_off_c, 1, 76, 64
3, 99600, Note_on_c, 1, 69, 100
3, 99840, Note_off_c, 1, 69, 64
3, 99840, Pitch_bend_c, 1, 9192
3, 99840, Note_on_c, 1, 75, 100
3, 99855, Pitch_bend_c, 1, 10192
3, 99870, Pitch_bend_c, 1, 11192
3, 99885, Pitch_bend_c, 1, 12192
3, 99900, Pitch_bend_c, 1, 13192
3, 99915, Pitch_bend_c, 1, 14192
3, 99930, Pitch_bend_c, 1, 15192
3, 99945, Pitch_bend_c, 1, 16192
3, 101033, Note_off_c, 1, 75, 64
3, 101040, Note_on_c, 1, 76, 100
3, 101040, Pitch_bend_c, 1, 8192
3, 101280, Note_off_c, 1, 76, 64
3, 101280, Note_on_c, 1, 74, 100
3, 101520, Note_off_c, 1, 74, 64
3, 101520, Pitch_bend_c, 1, 9192
3, 101520, Note_on_c, 1, 77, 100
3, 101535, Pitch_bend_c, 1, 10192
3, 101550, Pitch_bend_c, 1, 11192
3, 101565, Pitch_bend_c, 1, 12192
3, 101580, Pitch_bend_c, 1, 13192
3, 101595, Pitch_bend_c, 1, 14192
3, 101610, Pitch_bend_c, 1, 15192
3, 101625, Pitch_bend_c, 1, 16192
3, 102000, Note_off_c, 1, 77, 64
3, 102000, Note_on_c, 1, 77, 100
3, 102000, Pitch_bend_c, 1, 8192
3, 102240, Note_off_c, 1, 77, 64
3, 102240, Note_on_c, 1, 72, 100
3, 102480, Note_off_c, 1, 72, 64
3, 102480, Pitch_bend_c, 1, 9192
3, 102480, Note_on_c, 1, 79, 100
3, 102495, Pitch_bend_c, 1, 10192
3, 102510, Pitch_bend_c, 1, 11192
3, 102525, Pitch_bend_c, 1, 12192
3, 102540, Pitch_bend_c, 1, 13192
3, 102555, Pitch_bend_c, 1, 14192
3, 102570, Pitch_bend_c, 1, 15192
3, 102585, Pitch_bend_c, 1, 16192
3, 103680, Note_on_c, 1, 86, 100
3, 103680, Pitch_bend_c, 1, 8192
3, 103687, Note_off_c, 1, 79, 64
3, 103800, Note_off_c, 1, 86, 64
3, 103800, Note_on_c, 1, 81, 100
3, 103920, Note_off_c, 1, 81, 64
3, 103920, Note_on_c, 1, 79, 100
3, 104040, Note_off_c, 1, 79, 64
3, 104040, Note_on_c, 1, 76, 100
3, 104160, Note_off_c, 1, 76, 64
3, 104160, Note_on_c, 1, 77, 100
3, 104280, Note_off_c, 1, 77, 64
3, 104280, Note_on_c, 1, 76, 100
3, 104400, Note_off_c, 1, 76, 64
3, 104400, Note_on_c, 1, 74, 100
3, 104520, Note_off_c, 1, 74, 64
3, 104520, Note_on_c, 1, 72, 100
3, 104640, Note_off_c, 1, 72, 64
3, 104640, Note_on_c, 1, 69, 100
3, 104760, Note_off_c, 1, 69, 64
3, 104760, Note_on_c, 1, 72, 100
3, 104880, Note_off_c, 1, 72, 64
3, 104880, Note_on_c, 1, 74, 100
3, 105000, Note_off_c, 1, 74, 64
3, 105000, Note_on_c, 1, 77, 100
3, 105120, Note_off_c, 1, 77, 64
3, 105120, Note_on_c, 1, 79, 100
3, 105240, Note_off_c, 1, 79, 64
3, 105240, Note_on_c, 1, 84, 100
3, 105360, Note_off_c, 1, 84, 64
3, 105360, Note_on_c, 1, 82, 100
3, 106080, Note_on_c, 1, 81, 100
3, 106087, Note_off_c, 1, 82, 64
3, 106200, Note_off_c, 1, 81, 64
3, 106200, Note_on_c, 1, 79, 100
3, 106320, Note_off_c, 1, 79, 64
3, 106320, Note_on_c, 1, 77, 100
3, 107280, Note_off_c, 1, 77, 64
3, 107280, Note_on_c, 1, 75, 100
3, 107400, Note_off_c, 1, 75, 64
3, 107400, Note_on_c, 1, 74, 100
3, 107520, Note_off_c, 1, 74, 64
3, 107520, Note_on_c, 1, 72, 100
3, 107640, Note_off_c, 1, 72, 64
3, 107640, Note_on_c, 1, 70, 100
3, 109197, Note_off_c, 1, 70, 64
3, 109200, Note_on_c, 1, 53, 70
3, 109200, Note_on_c, 1, 60, 70
3, 109200, Note_on_c, 1, 65, 70
3, 111120, Note_off_c, 1, 65, 80
3, 111120, Note_off_c, 1, 60, 80
3, 111120, Note_off_c, 1, 53, 80
3, 111120, Note_on_c, 1, 62, 70
3, 111120, Note_on_c, 1, 57, 70
3, 111120, Note_on_c, 1, 50, 70
3, 113040, Note_off_c, 1, 50, 80
3, 113040, Note_off_c, 1, 57, 80
3, 113040, Note_off_c, 1, 62, 80
3, 113040, Note_on_c, 1, 60, 70
3, 113040, Note_on_c, 1, 55, 70
3, 113040, Note_on_c, 1, 48, 70
3, 116880, Note_off_c, 1, 48, 80
3, 116880, Note_off_c, 1, 55, 80
3, 116880, Note_off_c, 1, 60, 80
3, 116880, Note_on_c, 1, 60, 70
3, 116880, Note_on_c, 1, 53, 70
3, 116880, Note_on_c, 1, 65, 70
3, 118800, Note_off_c, 1, 65, 80
3, 118800, Note_off_c, 1, 53, 80
3, 118800, Note_off_c, 1, 60, 80
3, 118800, Note_on_c, 1, 62, 70
3, 118800, Note_on_c, 1, 57, 70
3, 118800, Note_on_c, 1, 50, 70
3, 120720, Note_off_c, 1, 50, 80
3, 120720, Note_off_c, 1, 57, 80
3, 120720, Note_off_c, 1, 62, 80
3, 120720, Note_on_c, 1, 60, 70
3, 120720, Note_on_c, 1, 55, 70
3, 120720, Note_on_c, 1, 48, 70
3, 124560, Note_off_c, 1, 48, 80
3, 124560, Note_off_c, 1, 55, 80
3, 124560, Note_off_c, 1, 60, 80
3, 124560, Control_c, 1, 1, 0
3, 186000, Note_on_c, 1, 62, 100
3, 186000, Note_on_c, 1, 59, 100
3, 186050, Pitch_bend_c, 1, 10192
3, 186100, Pitch_bend_c, 1, 12192
3, 186150, Pitch_bend_c, 1, 14192
3, 186200, Pitch_bend_c, 1, 16192
3, 186480, Control_c, 1, 1, 110
3, 188633, Note_off_c, 1, 59, 64
3, 188633, Note_off_c, 1, 62, 64
3, 188640, Note_on_c, 1, 61, 88
3, 188640, Note_on_c, 1, 57, 88
3, 188690, Pitch_bend_c, 1, 10192
3, 188740, Pitch_bend_c, 1, 12192
3, 188790, Pitch_bend_c, 1, 14192
3, 188840, Pitch_bend_c, 1, 16192
3, 189839, Control_c, 1, 1, 0
3, 190560, Note_off_c, 1, 57, 64
3, 190560, Note_off_c, 1, 61, 64
3, 190560, Pitch_bend_c, 1, 8192
3, 190560, Note_on_c, 1, 59, 88
3, 190560, Note_on_c, 1, 55, 88
3, 190610, Pitch_bend_c, 1, 10192
3, 190660, Pitch_bend_c, 1, 12192
3, 190710, Pitch_bend_c, 1, 14192
3, 190760, Pitch_bend_c, 1, 16192
3, 191280, Note_off_c, 1, 59, 64
3, 191280, Pitch_bend_c, 1, 8192
3, 191280, Note_on_c, 1, 59, 88
3, 191338, Note_off_c, 1, 55, 64
3, 191520, Note_off_c, 1, 59, 64
3, 191520, Note_on_c, 1, 54, 88
3, 191759, Control_c, 1, 1, 0
3, 191760, Note_off_c, 1, 54, 64
3, 191760, Note_on_c, 1, 54, 90
3, 191840, Note_off_c, 1, 54, 64
3, 191840, Note_on_c, 1, 52, 90
3, 191920, Note_off_c, 1, 52, 64
3, 191920, Note_on_c, 1, 54, 90
3, 192000, Note_off_c, 1, 54, 64
3, 192000, Note_on_c, 1, 52, 90
3, 192080, Note_off_c, 1, 52, 64
3, 192080, Note_on_c, 1, 54, 90
3, 192160, Note_off_c, 1, 54, 64
3, 192160, Note_on_c, 1, 52, 90
3, 192240, Note_off_c, 1, 52, 64
3, 192240, Note_on_c, 1, 54, 90
3, 192320, Note_off_c, 1, 54, 64
3, 192320, Note_on_c, 1, 52, 90
3, 192400, Note_off_c, 1, 52, 64
3, 192400, Note_on_c, 1, 54, 90
3, 192480, Note_off_c, 1, 54, 64
3, 192480, Pitch_bend_c, 1, 8192
3, 192480, Note_on_c, 1, 52, 90
3, 192560, Note_off_c, 1, 52, 64
3, 192560, Note_on_c, 1, 54, 90
3, 192640, Note_off_c, 1, 54, 64
3, 192640, Note_on_c, 1, 52, 90
3, 192720, Note_off_c, 1, 52, 64
3, 192720, Note_on_c, 1, 54, 90
3, 192800, Note_off_c, 1, 54, 64
3, 192800, Note_on_c, 1, 52, 90
3, 192880, Note_off_c, 1, 52, 64
3, 192880, Note_on_c, 1, 54, 90
3, 192960, Note_off_c, 1, 54, 64
3, 192960, Note_on_c, 1, 52, 90
3, 193040, Note_off_c, 1, 52, 64
3, 193040, Note_on_c, 1, 54, 90
3, 193120, Note_off_c, 1, 54, 64
3, 193120, Note_on_c, 1, 52, 90
3, 193200, Note_off_c, 1, 52, 64
3, 193200, Note_on_c, 1, 54, 90
3, 193280, Note_off_c, 1, 54, 64
3, 193280, Note_on_c, 1, 52, 90
3, 193360, Note_off_c, 1, 52, 64
3, 193360, Note_on_c, 1, 54, 90
3, 193440, Note_off_c, 1, 54, 64
3, 193440, Note_on_c, 1, 52, 90
3, 193520, Note_off_c, 1, 52, 64
3, 193520, Note_on_c, 1, 54, 90
3, 193600, Note_off_c, 1, 54, 64
3, 193600, Note_on_c, 1, 52, 90
3, 193680, Note_off_c, 1, 52, 64
3, 193680, Note_on_c, 1, 71, 100
3, 193730, Pitch_bend_c, 1, 10192
3, 193780, Pitch_bend_c, 1, 12192
3, 193830, Pitch_bend_c, 1, 14192
3, 193880, Pitch_bend_c, 1, 16192
3, 194640, Note_on_c, 1, 74, 100
3, 194640, Pitch_bend_c, 1, 10192
3, 194690, Pitch_bend_c, 1, 12192
3, 194740, Pitch_bend_c, 1, 14192
3, 194790, Pitch_bend_c, 1, 16192
3, 195120, Note_off_c, 1, 74, 64
3, 195120, Note_off_c, 1, 71, 64
3, 195120, Pitch_bend_c, 1, 8192
3, 195120, Note_on_c, 1, 73, 100
3, 195353, Note_off_c, 1, 73, 64
3, 195360, Pitch_bend_c, 1, 10192
3, 195360, Note_on_c, 1, 69, 100
3, 195410, Pitch_bend_c, 1, 12192
3, 195460, Pitch_bend_c, 1, 14192
3, 195510, Pitch_bend_c, 1, 16192
3, 196080, Note_off_c, 1, 69, 64
3, 196080, Note_on_c, 1, 69, 100
3, 196080, Pitch_bend_c, 1, 8192
3, 196560, Note_off_c, 1, 69, 64
3, 196560, Note_on_c, 1, 66, 100
3, 196800, Note_on_c, 1, 64, 100
3, 196807, Note_off_c, 1, 66, 64
3, 197040, Note_off_c, 1, 64, 64
3, 197040, Note_on_c, 1, 66, 100
3, 197636, Note_off_c, 1, 66, 64
3, 197760, Pitch_bend_c, 1, 10192
3, 197760, Note_on_c, 1, 64, 100
3, 197810, Pitch_bend_c, 1, 12192
3, 197860, Pitch_bend_c, 1, 14192
3, 197910, Pitch_bend_c, 1, 16192
3, 198480, Note_off_c, 1, 64, 64
3, 198480, Pitch_bend_c, 1, 8192
3, 198480, Note_on_c, 1, 66, 100
3, 198600, Note_off_c, 1, 66, 64
3, 198600, Note_on_c, 1, 64, 100
3, 198720, Note_off_c, 1, 64, 64
3, 198720, Note_on_c, 1, 61, 100
3, 198840, Note_off_c, 1, 61, 64
3, 198840, Note_on_c, 1, 58, 100
3, 198960, Note_off_c, 1, 58, 64
3, 198960, Note_on_c, 1, 61, 100
3, 199080, Note_off_c, 1, 61, 64
3, 199080, Note_on_c, 1, 64, 100
3, 199200, Note_off_c, 1, 64, 64
3, 199200, Note_on_c, 1, 54, 100
3, 199440, Control_c, 1, 1, 127
3, 200880, Note_on_c, 1, 53, 70
3, 200887, Note_off_c, 1, 54, 64
3, 200920, Note_off_c, 1, 53, 64
3, 200920, Note_on_c, 1, 52, 70
3, 200960, Note_off_c, 1, 52, 64
3, 200960, Note_on_c, 1, 51, 70
3, 201000, Note_off_c, 1, 51, 64
3, 201000, Note_on_c, 1, 50, 70
3, 201040, Note_off_c, 1, 50, 64
3, 201040, Note_on_c, 1, 49, 70
3, 201080, Note_off_c, 1, 49, 64
3, 201080, Note_on_c, 1, 48, 70
3, 201120, Note_off_c, 1, 48, 64
3, 201120, Note_on_c, 1, 47, 70
3, 201160, Note_off_c, 1, 47, 64
3, 201160, Note_on_c, 1, 46, 70
3, 201200, Note_off_c, 1, 46, 64
3, 201200, Note_on_c, 1, 45, 70
3, 201240, Note_off_c, 1, 45, 64
3, 201240, Note_on_c, 1, 44, 70
3, 201280, Note_off_c, 1, 44, 64
3, 201280, Note_on_c, 1, 43, 70
3, 201320, Note_off_c, 1, 43, 64
3, 201360, Pitch_bend_c, 1, 10192
3, 201360, Note_on_c, 1, 74, 100
3, 201360, Control_c, 1, 1, 0
3, 201385, Pitch_bend_c, 1, 11192
3, 201410, Pitch_bend_c, 1, 12192
3, 201435, Pitch_bend_c, 1, 13192
3, 201460, Pitch_bend_c, 1, 14192
3, 201485, Pitch_bend_c, 1, 15192
3, 201510, Pitch_bend_c, 1, 16192
3, 201760, Pitch_bend_c, 1, 15192
3, 201770, Pitch_bend_c, 1, 14192
3, 201780, Pitch_bend_c, 1, 13192
3, 201790, Pitch_bend_c, 1, 12192
3, 201800, Pitch_bend_c, 1, 11192
3, 201810, Pitch_bend_c, 1, 10192
3, 201820, Pitch_bend_c, 1, 8192
3, 201840, Note_off_c, 1, 74, 64
3, 202080, Pitch_bend_c, 1, 10192
3, 202080, Note_on_c, 1, 73, 100
3, 202105, Pitch_bend_c, 1, 11192
3, 202130, Pitch_bend_c, 1, 12192
3, 202155, Pitch_bend_c, 1, 13192
3, 202180, Pitch_bend_c, 1, 14192
3, 202205, Pitch_bend_c, 1, 15192
3, 202230, Pitch_bend_c, 1, 16192
3, 202480, Pitch_bend_c, 1, 15192
3, 202490, Pitch_bend_c, 1, 14192
3, 202500, Pitch_bend_c, 1, 13192
3, 202510, Pitch_bend_c, 1, 12192
3, 202520, Pitch_bend_c, 1, 11192
3, 202530, Pitch_bend_c, 1, 10192
3, 202540, Pitch_bend_c, 1, 8192
3, 202560, Note_off_c, 1, 73, 64
3, 202800, Pitch_bend_c, 1, 10192
3, 202800, Note_on_c, 1, 71, 100
3, 202825, Pitch_bend_c, 1, 11192
3, 202850, Pitch_bend_c, 1, 12192
3, 202875, Pitch_bend_c, 1, 13192
3, 202900, Pitch_bend_c, 1, 14192
3, 202925, Pitch_bend_c, 1, 15192
3, 202950, Pitch_bend_c, 1, 16192
3, 203200, Pitch_bend_c, 1, 15192
3, 203210, Pitch_bend_c, 1, 14192
3, 203220, Pitch_bend_c, 1, 13192
3, 203230, Pitch_bend_c, 1, 12192
3, 203240, Pitch_bend_c, 1, 11192
3, 203250, Pitch_bend_c, 1, 10192
3, 203260, Pitch_bend_c, 1, 8192
3, 203280, Note_off_c, 1, 71, 64
3, 203520, Pitch_bend_c, 1, 10192
3, 203520, Note_on_c, 1, 69, 100
3, 203545, Pitch_bend_c, 1, 11192
3, 203570, Pitch_bend_c, 1, 12192
3, 203595, Pitch_bend_c, 1, 13192
3, 203620, Pitch_bend_c, 1, 14192
3, 203645, Pitch_bend_c, 1, 15192
3, 203670, Pitch_bend_c, 1, 16192
3, 203920, Pitch_bend_c, 1, 15192
3, 203930, Pitch_bend_c, 1, 14192
3, 203940, Pitch_bend_c, 1, 13192
3, 203950, Pitch_bend_c, 1, 12192
3, 203960, Pitch_bend_c, 1, 11192
3, 203970, Pitch_bend_c, 1, 10192
3, 203980, Pitch_bend_c, 1, 8192
3, 204000, Note_off_c, 1, 69, 64
3, 204240, Pitch_bend_c, 1, 10192
3, 204240, Note_on_c, 1, 67, 100
3, 204265, Pitch_bend_c, 1, 11192
3, 204290, Pitch_bend_c, 1, 12192
3, 204315, Pitch_bend_c, 1, 13192
3, 204340, Pitch_bend_c, 1, 14192
3, 204365, Pitch_bend_c, 1, 15192
3, 204390, Pitch_bend_c, 1, 16192
3, 204960, Pitch_bend_c, 1, 15192
3, 205020, Pitch_bend_c, 1, 14192
3, 205080, Pitch_bend_c, 1, 13192
3, 205140, Pitch_bend_c, 1, 12192
3, 205170, Pitch_bend_c, 1, 11192
3, 205190, Pitch_bend_c, 1, 10192
3, 205200, Note_off_c, 1, 67, 64
3, 205200, Pitch_bend_c, 1, 8192
3, 205200, Note_on_c, 1, 66, 100
3, 206160, Note_off_c, 1, 66, 64
3, 206160, Pitch_bend_c, 1, 10192
3, 206160, Note_on_c, 1, 76, 100
3, 206185, Pitch_bend_c, 1, 11192
3, 206210, Pitch_bend_c, 1, 12192
3, 206235, Pitch_bend_c, 1, 13192
3, 206260, Pitch_bend_c, 1, 14192
3, 206285, Pitch_bend_c, 1, 15192
3, 206310, Pitch_bend_c, 1, 16192
3, 206640, Note_off_c, 1, 76, 64
3, 206640, Pitch_bend_c, 1, 10192
3, 206640, Note_on_c, 1, 76, 100
3, 206665, Pitch_bend_c, 1, 11192
3, 206690, Pitch_bend_c, 1, 12192
3, 206715, Pitch_bend_c, 1, 13192
3, 206740, Pitch_bend_c, 1, 14192
3, 206765, Pitch_bend_c, 1, 15192
3, 206790, Pitch_bend_c, 1, 16192
3, 206873, Note_off_c, 1, 76, 64
3, 206880, Note_on_c, 1, 73, 100
3, 206880, Pitch_bend_c, 1, 8192
3, 207120, Note_off_c, 1, 73, 64
3, 207120, Pitch_bend_c, 1, 10192
3, 207120, Note_on_c, 1, 81, 100
3, 207145, Pitch_bend_c, 1, 11192
3, 207170, Pitch_bend_c, 1, 12192
3, 207195, Pitch_bend_c, 1, 13192
3, 207220, Pitch_bend_c, 1, 14192
3, 207245, Pitch_bend_c, 1, 15192
3, 207270, Pitch_bend_c, 1, 16192
3, 207600, Note_off_c, 1, 81, 64
3, 207600, Note_on_c, 1, 81, 100
3, 207600, Pitch_bend_c, 1, 8192
3, 208080, Note_off_c, 1, 81, 64
3, 208080, Note_on_c, 1, 78, 100
3, 208320, Note_off_c, 1, 78, 64
3, 208320, Note_on_c, 1, 73, 100
3, 208560, Note_off_c, 1, 73, 64
3, 208560, Pitch_bend_c, 1, 10192
3, 208560, Note_on_c, 1, 76, 100
3, 208585, Pitch_bend_c, 1, 11192
3, 208610, Pitch_bend_c, 1, 12192
3, 208635, Pitch_bend_c, 1, 13192
3, 208660, Pitch_bend_c, 1, 14192
3, 208685, Pitch_bend_c, 1, 15192
3, 208710, Pitch_bend_c, 1, 16192
3, 209280, Control_c, 1, 1, 127
3, 209636, Note_off_c, 1, 76, 64
3, 209638, Note_on_c, 1, 74, 70
3, 209678, Note_off_c, 1, 74, 64
3, 209678, Note_on_c, 1, 73, 70
3, 209718, Note_off_c, 1, 73, 64
3, 209718, Note_on_c, 1, 72, 70
3, 209758, Note_off_c, 1, 72, 64
3, 209758, Note_on_c, 1, 71, 70
3, 209798, Note_off_c, 1, 71, 64
3, 209798, Note_on_c, 1, 70, 70
3, 209838, Note_off_c, 1, 70, 64
3, 209838, Note_on_c, 1, 69, 70
3, 209878, Note_off_c, 1, 69, 64
3, 209878, Note_on_c, 1, 68, 70
3, 209918, Note_off_c, 1, 68, 64
3, 210000, Control_c, 1, 1, 0
3, 210000, Pitch_bend_c, 1, 8192
3, 210120, Note_on_c, 1, 54, 100
3, 210240, Note_off_c, 1, 54, 64
3, 210240, Note_on_c, 1, 59, 100
3, 210360, Note_off_c, 1, 59, 64
3, 210360, Note_on_c, 1, 61, 100
3, 210480, Note_off_c, 1, 61, 64
3, 210480, Note_on_c, 1, 64, 100
3, 210600, Note_off_c, 1, 64, 64
3, 210600, Note_on_c, 1, 64, 100
3, 210720, Note_off_c, 1, 64, 64
3, 210720, Note_on_c, 1, 61, 100
3, 210840, Note_off_c, 1, 61, 64
3, 210840, Note_on_c, 1, 59, 100
3, 210960, Note_off_c, 1, 59, 64
3, 210960, Note_on_c, 1, 66, 100
3, 211080, Note_off_c, 1, 66, 64
3, 211080, Note_on_c, 1, 66, 100
3, 211200, Note_off_c, 1, 66, 64
3, 211200, Note_on_c, 1, 64, 100
3, 211320, Note_off_c, 1, 64, 64
3, 211320, Note_on_c, 1, 61, 100
3, 211440, Note_off_c, 1, 61, 64
3, 211440, Note_on_c, 1, 69, 100
3, 211560, Note_off_c, 1, 69, 64
3, 211560, Note_on_c, 1, 69, 100
3, 211680, Note_off_c, 1, 69, 64
3, 211680, Note_on_c, 1, 66, 100
3, 211800, Note_off_c, 1, 66, 64
3, 211800, Note_on_c, 1, 64, 100
3, 211920, Note_off_c, 1, 64, 64
3, 211920, Note_on_c, 1, 71, 100
3, 212040, Note_off_c, 1, 71, 64
3, 212040, Note_on_c, 1, 71, 100
3, 212160, Note_off_c, 1, 71, 64
3, 212160, Note_on_c, 1, 69, 100
3, 212280, Note_off_c, 1, 69, 64
3, 212280, Note_on_c, 1, 66, 100
3, 212400, Note_off_c, 1, 66, 64
3, 212400, Note_on_c, 1, 73, 100
3, 212520, Note_off_c, 1, 73, 64
3, 212520, Note_on_c, 1, 73, 100
3, 212640, Note_off_c, 1, 73, 64
3, 212640, Note_on_c, 1, 71, 100
3, 212760, Note_off_c, 1, 71, 64
3, 212760, Note_on_c, 1, 69, 100
3, 212880, Note_off_c, 1, 69, 64
3, 212880, Note_on_c, 1, 76, 100
3, 213000, Note_off_c, 1, 76, 64
3, 213000, Note_on_c, 1, 76, 100
3, 213120, Note_off_c, 1, 76, 64
3, 213120, Note_on_c, 1, 73, 100
3, 213240, Note_off_c, 1, 73, 64
3, 213240, Note_on_c, 1, 72, 100
3, 213360, Note_off_c, 1, 72, 64
3, 213360, Note_on_c, 1, 78, 100
3, 213480, Note_off_c, 1, 78, 64
3, 213480, Note_on_c, 1, 78, 100
3, 213600, Note_off_c, 1, 78, 64
3, 213600, Note_on_c, 1, 76, 100
3, 213840, Note_on_c, 1, 81, 100
3, 213847, Note_off_c, 1, 76, 64
3, 213960, Note_off_c, 1, 81, 64
3, 213960, Note_on_c, 1, 78, 100
3, 214080, Note_off_c, 1, 78, 64
3, 214080, Note_on_c, 1, 75, 100
3, 214160, Note_on_c, 1, 81, 100
3, 214200, Note_off_c, 1, 75, 64
3, 214240, Note_off_c, 1, 81, 64
3, 214240, Note_on_c, 1, 78, 100
3, 214320, Note_off_c, 1, 78, 64
3, 214320, Note_on_c, 1, 75, 100
3, 214475, Note_off_c, 1, 75, 64
3, 214480, Note_on_c, 1, 78, 100
3, 214560, Note_off_c, 1, 78, 64
3, 214560, Note_on_c, 1, 75, 100
3, 214677, Note_off_c, 1, 75, 64
3, 214680, Note_on_c, 1, 81, 100
3, 214740, Note_off_c, 1, 81, 64
3, 214740, Note_on_c, 1, 78, 100
3, 214800, Note_off_c, 1, 78, 64
3, 214800, Note_on_c, 1, 75, 100
3, 214920, Note_off_c, 1, 75, 64
3, 214920, Note_on_c, 1, 81, 100
3, 214980, Note_off_c, 1, 81, 64
3, 214980, Note_on_c, 1, 78, 100
3, 215040, Note_off_c, 1, 78, 64
3, 215040, Note_on_c, 1, 75, 100
3, 215160, Note_off_c, 1, 75, 64
3, 215160, Note_on_c, 1, 81, 100
3, 215220, Note_off_c, 1, 81, 64
3, 215220, Note_on_c, 1, 78, 100
3, 215280, Note_off_c, 1, 78, 64
3, 215280, Note_on_c, 1, 75, 100
3, 215400, Note_off_c, 1, 75, 64
3, 215400, Note_on_c, 1, 81, 100
3, 215520, Note_off_c, 1, 81, 64
3, 215520, Note_on_c, 1, 78, 100
3, 215637, Note_off_c, 1, 78, 64
3, 215640, Note_on_c, 1, 75, 100
3, 215760, Note_off_c, 1, 75, 64
3, 215760, Pitch_bend_c, 1, 10192
3, 215760, Note_on_c, 1, 83, 100
3, 215785, Pitch_bend_c, 1, 11192
3, 215810, Pitch_bend_c, 1, 12192
3, 215835, Pitch_bend_c, 1, 13192
3, 215860, Pitch_bend_c, 1, 14192
3, 215885, Pitch_bend_c, 1, 15192
3, 215910, Pitch_bend_c, 1, 16192
3, 216240, Control_c, 1, 1, 127
3, 216771, Note_off_c, 1, 83, 64
3, 230160, Pitch_bend_c, 1, 8192
3, 230160, Control_c, 1, 1, 0
3, 232080, Pitch_bend_c, 1, 10192
3, 232080, Note_on_c, 1, 83, 100
3, 232105, Pitch_bend_c, 1, 11192
3, 232130, Pitch_bend_c, 1, 12192
3, 232155, Pitch_bend_c, 1, 13192
3, 232180, Pitch_bend_c, 1, 14192
3, 232205, Pitch_bend_c, 1, 15192
3, 232230, Pitch_bend_c, 1, 16192
3, 232313, Note_off_c, 1, 83, 64
3, 232320, Note_on_c, 1, 81, 100
3, 232320, Pitch_bend_c, 1, 8192
3, 232400, Note_off_c, 1, 81, 64
3, 232400, Note_on_c, 1, 79, 100
3, 232480, Note_off_c, 1, 79, 64
3, 232480, Note_on_c, 1, 76, 100
3, 232560, Note_off_c, 1, 76, 64
3, 232560, Note_on_c, 1, 74, 100
3, 232640, Note_off_c, 1, 74, 64
3, 232640, Note_on_c, 1, 73, 100
3, 232796, Note_off_c, 1, 73, 64
3, 232800, Pitch_bend_c, 1, 10192
3, 232800, Note_on_c, 1, 78, 100
3, 232825, Pitch_bend_c, 1, 11192
3, 232850, Pitch_bend_c, 1, 12192
3, 233160, Note_on_c, 1, 76, 100
3, 233160, Pitch_bend_c, 1, 8192
3, 233163, Note_off_c, 1, 78, 64
3, 233280, Note_off_c, 1, 76, 64
3, 233280, Note_on_c, 1, 75, 100
3, 233400, Note_off_c, 1, 75, 64
3, 233400, Note_on_c, 1, 74, 100
3, 233520, Note_off_c, 1, 74, 64
3, 233520, Note_on_c, 1, 72, 100
3, 233640, Note_off_c, 1, 72, 64
3, 233640, Note_on_c, 1, 75, 100
3, 233760, Note_off_c, 1, 75, 64
3, 233760, Note_on_c, 1, 74, 100
3, 233880, Note_off_c, 1, 74, 64
3, 233880, Note_on_c, 1, 72, 100
3, 234000, Note_off_c, 1, 72, 64
3, 234000, Note_on_c, 1, 78, 100
3, 234120, Pitch_bend_c, 1, 10192
3, 234145, Pitch_bend_c, 1, 11192
3, 234170, Pitch_bend_c, 1, 12192
3, 234240, Pitch_bend_c, 1, 8192
3, 234311, Note_off_c, 1, 78, 64
3, 234320, Note_on_c, 1, 76, 100
3, 234400, Note_off_c, 1, 76, 64
3, 234400, Note_on_c, 1, 74, 100
3, 234476, Note_on_c, 1, 72, 100
3, 234480, Note_off_c, 1, 74, 64
3, 234556, Note_off_c, 1, 72, 64
3, 234556, Note_on_c, 1, 69, 100
3, 234636, Note_off_c, 1, 69, 64
3, 234636, Note_on_c, 1, 67, 100
3, 234716, Note_off_c, 1, 67, 64
3, 234720, Note_on_c, 1, 74, 100
3, 234840, Pitch_bend_c, 1, 10192
3, 234865, Pitch_bend_c, 1, 11192
3, 234890, Pitch_bend_c, 1, 12192
3, 234915, Pitch_bend_c, 1, 13192
3, 234940, Pitch_bend_c, 1, 15781
3, 234960, Pitch_bend_c, 1, 8192
3, 235080, Note_on_c, 1, 72, 100
3, 235083, Note_off_c, 1, 74, 64
3, 235200, Note_off_c, 1, 72, 64
3, 235200, Note_on_c, 1, 71, 70
3, 235240, Note_off_c, 1, 71, 64
3, 235240, Note_on_c, 1, 70, 70
3, 235280, Note_off_c, 1, 70, 64
3, 235280, Note_on_c, 1, 69, 70
3, 235320, Note_off_c, 1, 69, 64
3, 235320, Note_on_c, 1, 68, 70
3, 235360, Note_off_c, 1, 68, 64
3, 235360, Note_on_c, 1, 67, 70
3, 235400, Note_off_c, 1, 67, 64
3, 235400, Note_on_c, 1, 65, 70
3, 235440, Note_off_c, 1, 65, 64
3, 235440, Note_on_c, 1, 64, 70
3, 235480, Note_off_c, 1, 64, 64
3, 235482, Note_on_c, 1, 63, 70
3, 235522, Note_off_c, 1, 63, 64
3, 235840, Note_on_c, 1, 64, 70
3, 235880, Note_off_c, 1, 64, 64
3, 235880, Note_on_c, 1, 65, 70
3, 235920, Note_off_c, 1, 65, 64
3, 235920, Note_on_c, 1, 66, 70
3, 235960, Note_off_c, 1, 66, 64
3, 235960, Note_on_c, 1, 67, 70
3, 236000, Note_off_c, 1, 67, 64
3, 236000, Note_on_c, 1, 68, 70
3, 236040, Note_off_c, 1, 68, 64
3, 236040, Note_on_c, 1, 69, 70
3, 236080, Note_off_c, 1, 69, 64
3, 236080, Note_on_c, 1, 70, 70
3, 236120, Note_off_c, 1, 70, 64
3, 236120, Note_on_c, 1, 71, 70
3, 236160, Note_off_c, 1, 71, 64
3, 236160, Note_on_c, 1, 72, 100
3, 236334, Pitch_bend_c, 1, 8826
3, 236350, Pitch_bend_c, 1, 10005
3, 236367, Pitch_bend_c, 1, 11607
3, 236382, Pitch_bend_c, 1, 13360
3, 236398, Pitch_bend_c, 1, 15476
3, 236415, Pitch_bend_c, 1, 16383
3, 236512, Pitch_bend_c, 1, 16171
3, 236528, Pitch_bend_c, 1, 14660
3, 236544, Pitch_bend_c, 1, 12786
3, 236560, Pitch_bend_c, 1, 11093
3, 236577, Pitch_bend_c, 1, 10337
3, 236609, Pitch_bend_c, 1, 10761
3, 236624, Pitch_bend_c, 1, 11546
3, 236642, Pitch_bend_c, 1, 12544
3, 236656, Pitch_bend_c, 1, 13481
3, 236672, Pitch_bend_c, 1, 14539
3, 236689, Pitch_bend_c, 1, 14750
3, 236706, Pitch_bend_c, 1, 14599
3, 236722, Pitch_bend_c, 1, 13511
3, 236737, Pitch_bend_c, 1, 12302
3, 236754, Pitch_bend_c, 1, 10942
3, 236768, Pitch_bend_c, 1, 9884
3, 236785, Pitch_bend_c, 1, 9552
3, 236821, Pitch_bend_c, 1, 10247
3, 236833, Pitch_bend_c, 1, 11335
3, 236850, Pitch_bend_c, 1, 12635
3, 236866, Pitch_bend_c, 1, 14237
3, 236882, Pitch_bend_c, 1, 15173
3, 236899, Pitch_bend_c, 1, 15657
3, 236914, Pitch_bend_c, 1, 15446
3, 236930, Pitch_bend_c, 1, 14539
3, 236944, Pitch_bend_c, 1, 12967
3, 236960, Pitch_bend_c, 1, 11335
3, 236976, Pitch_bend_c, 1, 10156
3, 236994, Pitch_bend_c, 1, 9733
3, 237008, Pitch_bend_c, 1, 9945
3, 237026, Pitch_bend_c, 1, 10851
3, 237041, Pitch_bend_c, 1, 12604
3, 237057, Pitch_bend_c, 1, 14478
3, 237073, Pitch_bend_c, 1, 16020
3, 237089, Pitch_bend_c, 1, 16383
3, 237120, Note_off_c, 1, 72, 64
3, 237120, Pitch_bend_c, 1, 10192
3, 237120, Note_on_c, 1, 72, 100
3, 237145, Pitch_bend_c, 1, 11192
3, 237170, Pitch_bend_c, 1, 12192
3, 237195, Pitch_bend_c, 1, 13192
3, 237220, Pitch_bend_c, 1, 14192
3, 237245, Pitch_bend_c, 1, 15192
3, 237270, Pitch_bend_c, 1, 16192
3, 237360, Note_off_c, 1, 72, 64
3, 237360, Note_on_c, 1, 72, 100
3, 237360, Pitch_bend_c, 1, 8192
3, 237480, Note_off_c, 1, 72, 64
3, 237480, Note_on_c, 1, 69, 100
3, 237600, Note_off_c, 1, 69, 64
3, 237600, Note_on_c, 1, 67, 100
3, 237720, Note_off_c, 1, 67, 64
3, 237720, Note_on_c, 1, 64, 100
3, 237840, Note_off_c, 1, 64, 64
3, 237840, Note_on_c, 1, 66, 100
3, 237960, Note_off_c, 1, 66, 64
3, 237960, Note_on_c, 1, 69, 100
3, 238080, Note_off_c, 1, 69, 64
3, 238080, Note_on_c, 1, 67, 100
3, 238200, Note_off_c, 1, 67, 64
3, 238200, Note_on_c, 1, 66, 100
3, 238320, Note_off_c, 1, 66, 64
3, 238320, Note_on_c, 1, 64, 100
3, 238440, Note_off_c, 1, 64, 64
3, 238440, Note_on_c, 1, 62, 100
3, 238635, Note_off_c, 1, 62, 64
3, 238640, Note_on_c, 1, 61, 80
3, 238680, Note_off_c, 1, 61, 64
3, 238680, Note_on_c, 1, 60, 80
3, 238720, Note_off_c, 1, 60, 64
3, 238720, Note_on_c, 1, 59, 80
3, 238760, Note_off_c, 1, 59, 64
3, 238760, Note_on_c, 1, 58, 80
3, 238800, Note_off_c, 1, 58, 64
3, 238800, Note_on_c, 1, 57, 100
3, 239040, Note_off_c, 1, 57, 64
3, 239040, Note_on_c, 1, 55, 100
3, 239280, Note_off_c, 1, 55, 64
3, 239280, Note_on_c, 1, 57, 100
3, 239400, Pitch_bend_c, 1, 10192
3, 239425, Pitch_bend_c, 1, 11192
3, 239450, Pitch_bend_c, 1, 12192
3, 239475, Pitch_bend_c, 1, 13192
3, 239500, Pitch_bend_c, 1, 14192
3, 239520, Pitch_bend_c, 1, 8192
3, 239640, Pitch_bend_c, 1, 10192
3, 239665, Pitch_bend_c, 1, 11192
3, 239690, Pitch_bend_c, 1, 12192
3, 239715, Pitch_bend_c, 1, 13192
3, 239740, Pitch_bend_c, 1, 14192
3, 239760, Note_off_c, 1, 57, 64
3, 239760, Note_on_c, 1, 56, 60
3, 239765, Pitch_bend_c, 1, 15192
3, 239790, Pitch_bend_c, 1, 16192
3, 239800, Note_off_c, 1, 56, 64
3, 239800, Note_on_c, 1, 55, 60
3, 239840, Note_off_c, 1, 55, 64
3, 239840, Note_on_c, 1, 54, 60
3, 239880, Note_off_c, 1, 54, 64
3, 239880, Note_on_c, 1, 53, 60
3, 239920, Note_off_c, 1, 53, 64
3, 239920, Note_on_c, 1, 52, 60
3, 239960, Note_off_c, 1, 52, 64
3, 239960, Note_on_c, 1, 50, 60
3, 240000, Note_off_c, 1, 50, 64
3, 240000, Note_on_c, 1, 49, 60
3, 240040, Note_off_c, 1, 49, 64
3, 240042, Note_on_c, 1, 48, 60
3, 240080, Note_on_c, 1, 47, 60
3, 240082, Note_off_c, 1, 48, 64
3, 240120, Note_off_c, 1, 47, 64
3, 240120, Note_on_c, 1, 46, 60
3, 240160, Note_off_c, 1, 46, 64
3, 240160, Note_on_c, 1, 45, 60
3, 240200, Note_off_c, 1, 45, 64
3, 240200, Note_on_c, 1, 44, 60
3, 240240, Note_off_c, 1, 44, 64
3, 240240, Pitch_bend_c, 1, 8192
3, 240320, Note_on_c, 1, 56, 100
3, 240400, Note_off_c, 1, 56, 64
3, 240400, Note_on_c, 1, 57, 100
3, 240480, Note_off_c, 1, 57, 64
3, 240480, Note_on_c, 1, 58, 100
3, 240560, Note_off_c, 1, 58, 64
3, 240560, Note_on_c, 1, 59, 100
3, 240640, Note_off_c, 1, 59, 64
3, 240640, Note_on_c, 1, 60, 100
3, 240720, Note_off_c, 1, 60, 64
3, 240720, Note_on_c, 1, 61, 100
3, 240800, Note_off_c, 1, 61, 64
3, 240800, Note_on_c, 1, 62, 100
3, 240880, Note_off_c, 1, 62, 64
3, 240880, Note_on_c, 1, 63, 100
3, 240960, Note_off_c, 1, 63, 64
3, 240960, Note_on_c, 1, 64, 100
3, 241040, Note_off_c, 1, 64, 64
3, 241040, Note_on_c, 1, 65, 100
3, 241120, Note_off_c, 1, 65, 64
3, 241120, Note_on_c, 1, 66, 100
3, 241200, Note_off_c, 1, 66, 64
3, 241200, Note_on_c, 1, 67, 100
3, 241280, Note_off_c, 1, 67, 64
3, 241280, Note_on_c, 1, 69, 100
3, 241360, Note_off_c, 1, 69, 64
3, 241360, Note_on_c, 1, 70, 100
3, 241440, Note_off_c, 1, 70, 64
3, 241440, Note_on_c, 1, 71, 100
3, 241520, Note_off_c, 1, 71, 64
3, 241520, Note_on_c, 1, 72, 100
3, 241600, Note_off_c, 1, 72, 64
3, 241600, Note_on_c, 1, 64, 100
3, 241680, Note_off_c, 1, 64, 64
3, 241680, Note_on_c, 1, 65, 100
3, 241760, Note_off_c, 1, 65, 64
3, 241760, Note_on_c, 1, 66, 100
3, 241840, Note_off_c, 1, 66, 64
3, 241840, Note_on_c, 1, 67, 100
3, 241920, Note_off_c, 1, 67, 64
3, 241920, Note_on_c, 1, 69, 100
3, 242000, Note_off_c, 1, 69, 64
3, 242000, Note_on_c, 1, 70, 100
3, 242080, Note_off_c, 1, 70, 64
3, 242080, Note_on_c, 1, 71, 100
3, 242160, Note_off_c, 1, 71, 64
3, 242160, Note_on_c, 1, 72, 100
3, 242240, Note_off_c, 1, 72, 64
3, 242240, Note_on_c, 1, 73, 100
3, 242320, Note_off_c, 1, 73, 64
3, 242320, Note_on_c, 1, 74, 100
3, 242400, Note_off_c, 1, 74, 64
3, 242400, Note_on_c, 1, 75, 100
3, 242480, Note_off_c, 1, 75, 64
3, 242480, Note_on_c, 1, 75, 100
3, 242560, Note_off_c, 1, 75, 64
3, 242560, Note_on_c, 1, 76, 100
3, 242640, Note_off_c, 1, 76, 64
3, 242640, Note_on_c, 1, 76, 100
3, 242760, Note_off_c, 1, 76, 64
3, 242760, Note_on_c, 1, 69, 100
3, 242880, Note_off_c, 1, 69, 64
3, 242880, Note_on_c, 1, 70, 100
3, 242960, Note_off_c, 1, 70, 64
3, 242960, Note_on_c, 1, 71, 100
3, 243040, Note_off_c, 1, 71, 64
3, 243040, Note_on_c, 1, 72, 100
3, 243120, Note_off_c, 1, 72, 64
3, 243120, Note_on_c, 1, 73, 100
3, 243200, Note_off_c, 1, 73, 64
3, 243200, Note_on_c, 1, 74, 100
3, 243280, Note_off_c, 1, 74, 64
3, 243280, Note_on_c, 1, 75, 100
3, 243360, Note_off_c, 1, 75, 64
3, 243360, Note_on_c, 1, 76, 100
3, 243440, Note_off_c, 1, 76, 64
3, 243440, Note_on_c, 1, 77, 100
3, 243520, Note_off_c, 1, 77, 64
3, 243520, Note_on_c, 1, 78, 100
3, 243600, Note_off_c, 1, 78, 64
3, 243600, Note_on_c, 1, 79, 100
3, 243680, Note_off_c, 1, 79, 64
3, 243680, Note_on_c, 1, 81, 100
3, 243760, Pitch_bend_c, 1, 10192
3, 243785, Pitch_bend_c, 1, 11192
3, 243810, Pitch_bend_c, 1, 12192
3, 243835, Pitch_bend_c, 1, 13192
3, 243860, Pitch_bend_c, 1, 14192
3, 243885, Pitch_bend_c, 1, 15192
3, 243910, Pitch_bend_c, 1, 16192
3, 243914, Note_off_c, 1, 81, 64
3, 243920, Pitch_bend_c, 1, 10192
3, 243920, Note_on_c, 1, 81, 100
3, 243945, Pitch_bend_c, 1, 11192
3, 243970, Pitch_bend_c, 1, 12192
3, 243995, Pitch_bend_c, 1, 13192
3, 244020, Pitch_bend_c, 1, 14192
3, 244045, Pitch_bend_c, 1, 15192
3, 244070, Pitch_bend_c, 1, 16192
3, 244560, Pitch_bend_c, 1, 15192
3, 244620, Pitch_bend_c, 1, 14192
3, 244680, Pitch_bend_c, 1, 13192
3, 244740, Pitch_bend_c, 1, 12192
3, 244770, Pitch_bend_c, 1, 11192
3, 244790, Pitch_bend_c, 1, 10192
3, 244800, Note_off_c, 1, 81, 64
3, 244800, Note_on_c, 1, 81, 100
3, 244800, Pitch_bend_c, 1, 8192
3, 244920, Note_off_c, 1, 81, 64
3, 244920, Note_on_c, 1, 79, 100
3, 245040, Note_off_c, 1, 79, 64
3, 245040, Note_on_c, 1, 76, 100
3, 245160, Note_off_c, 1, 76, 64
3, 245160, Note_on_c, 1, 75, 100
3, 245280, Note_off_c, 1, 75, 64
3, 245280, Note_on_c, 1, 74, 100
3, 245400, Note_off_c, 1, 74, 64
3, 245400, Note_on_c, 1, 81, 100
3, 245520, Note_off_c, 1, 81, 64
3, 245520, Note_on_c, 1, 74, 100
3, 245640, Note_off_c, 1, 74, 64
3, 245640, Note_on_c, 1, 80, 100
3, 245760, Note_off_c, 1, 80, 64
3, 245760, Note_on_c, 1, 76, 100
3, 245880, Note_off_c, 1, 76, 64
3, 245880, Note_on_c, 1, 79, 100
3, 246000, Note_off_c, 1, 79, 64
3, 246000, Note_on_c, 1, 76, 100
3, 246120, Note_off_c, 1, 76, 64
3, 246120, Note_on_c, 1, 75, 100
3, 246240, Note_off_c, 1, 75, 64
3, 246240, Note_on_c, 1, 74, 100
3, 246360, Note_off_c, 1, 74, 64
3, 246360, Note_on_c, 1, 81, 100
3, 246480, Note_off_c, 1, 81, 64
3, 246480, Note_on_c, 1, 74, 100
3, 246600, Note_off_c, 1, 74, 64
3, 246600, Note_on_c, 1, 80, 100
3, 246720, Note_off_c, 1, 80, 64
3, 246720, Note_on_c, 1, 76, 100
3, 246840, Note_off_c, 1, 76, 64
3, 246840, Note_on_c, 1, 79, 100
3, 246960, Note_off_c, 1, 79, 64
3, 246960, Note_on_c, 1, 76, 100
3, 247020, Note_off_c, 1, 76, 64
3, 247020, Note_on_c, 1, 75, 100
3, 247080, Note_off_c, 1, 75, 64
3, 247080, Note_on_c, 1, 75, 100
3, 247140, Note_off_c, 1, 75, 64
3, 247140, Note_on_c, 1, 73, 100
3, 247200, Note_off_c, 1, 73, 64
3, 247200, Note_on_c, 1, 76, 100
3, 247440, Note_on_c, 1, 73, 100
3, 247447, Note_off_c, 1, 76, 64
3, 247560, Pitch_bend_c, 1, 10804
3, 247569, Pitch_bend_c, 1, 11087
3, 247572, Control_c, 1, 1, 7
3, 247579, Pitch_bend_c, 1, 11369
3, 247589, Pitch_bend_c, 1, 11652
3, 247591, Control_c, 1, 1, 8
3, 247598, Pitch_bend_c, 1, 11793
3, 247610, Pitch_bend_c, 1, 11934
3, 247615, Control_c, 1, 1, 9
3, 247620, Pitch_bend_c, 1, 12005
3, 247632, Control_c, 1, 1, 12
3, 247656, Pitch_bend_c, 1, 11864
3, 247665, Pitch_bend_c, 1, 11581
3, 247668, Control_c, 1, 1, 12
3, 247675, Pitch_bend_c, 1, 11158
3, 247685, Pitch_bend_c, 1, 10734
3, 247689, Control_c, 1, 1, 13
3, 247694, Pitch_bend_c, 1, 10451
3, 247701, Pitch_bend_c, 1, 10098
3, 247701, Pitch_bend_c, 1, 9745
3, 247701, Control_c, 1, 1, 15
3, 247725, Pitch_bend_c, 1, 9463
3, 247735, Pitch_bend_c, 1, 9251
3, 247745, Pitch_bend_c, 1, 8968
3, 247747, Control_c, 1, 1, 17
3, 247754, Pitch_bend_c, 1, 8756
3, 247761, Pitch_bend_c, 1, 8615
3, 247764, Control_c, 1, 1, 19
3, 247771, Pitch_bend_c, 1, 8403
3, 247781, Pitch_bend_c, 1, 8262
3, 247781, Control_c, 1, 1, 20
3, 247802, Pitch_bend_c, 1, 8403
3, 247802, Control_c, 1, 1, 20
3, 247809, Pitch_bend_c, 1, 8545
3, 247819, Pitch_bend_c, 1, 8827
3, 247841, Pitch_bend_c, 1, 9039
3, 247843, Control_c, 1, 1, 22
3, 247850, Pitch_bend_c, 1, 9392
3, 247860, Pitch_bend_c, 1, 9604
3, 247862, Control_c, 1, 1, 23
3, 247869, Pitch_bend_c, 1, 9816
3, 247877, Pitch_bend_c, 1, 10098
3, 247896, Pitch_bend_c, 1, 10310
3, 247929, Pitch_bend_c, 1, 10451
3, 247937, Pitch_bend_c, 1, 10593
3, 247937, Control_c, 1, 1, 24
3, 247956, Pitch_bend_c, 1, 10663
3, 247975, Pitch_bend_c, 1, 10804
3, 247977, Control_c, 1, 1, 26
3, 247994, Pitch_bend_c, 1, 10875
3, 248011, Control_c, 1, 1, 28
3, 248042, Pitch_bend_c, 1, 10804
3, 248045, Pitch_bend_c, 1, 10593
3, 248061, Pitch_bend_c, 1, 10381
3, 248071, Pitch_bend_c, 1, 10169
3, 248081, Pitch_bend_c, 1, 9745
3, 248090, Pitch_bend_c, 1, 9251
3, 248100, Pitch_bend_c, 1, 8756
3, 248109, Pitch_bend_c, 1, 8262
3, 248117, Pitch_bend_c, 1, 8192
3, 248162, Pitch_bend_c, 1, 8474
3, 248162, Pitch_bend_c, 1, 9039
3, 248162, Pitch_bend_c, 1, 9604
3, 248162, Pitch_bend_c, 1, 10239
3, 248162, Pitch_bend_c, 1, 10875
3, 248162, Pitch_bend_c, 1, 11511
3, 248162, Control_c, 1, 1, 28
3, 248321, Pitch_bend_c, 1, 11934
3, 248340, Pitch_bend_c, 1, 12429
3, 248345, Pitch_bend_c, 1, 12852
3, 248349, Pitch_bend_c, 1, 13206
3, 248359, Pitch_bend_c, 1, 13417
3, 248369, Pitch_bend_c, 1, 13559
3, 248388, Pitch_bend_c, 1, 13417
3, 248397, Pitch_bend_c, 1, 13135
3, 248400, Control_c, 1, 1, 30
3, 248407, Pitch_bend_c, 1, 12570
3, 248417, Pitch_bend_c, 1, 11652
3, 248419, Control_c, 1, 1, 31
3, 248426, Pitch_bend_c, 1, 10522
3, 248433, Pitch_bend_c, 1, 9039
3, 248443, Pitch_bend_c, 1, 8192
3, 248443, Pitch_bend_c, 1, 8050
3, 248465, Pitch_bend_c, 1, 7627
3, 248477, Control_c, 1, 1, 32
3, 248484, Pitch_bend_c, 1, 8192
3, 248493, Pitch_bend_c, 1, 8686
3, 248501, Pitch_bend_c, 1, 10239
3, 248510, Pitch_bend_c, 1, 11793
3, 248520, Pitch_bend_c, 1, 12852
3, 248532, Pitch_bend_c, 1, 13559
3, 248541, Pitch_bend_c, 1, 13771
3, 248551, Pitch_bend_c, 1, 13629
3, 248561, Pitch_bend_c, 1, 13276
3, 248570, Pitch_bend_c, 1, 12852
3, 248573, Control_c, 1, 1, 32
3, 248580, Pitch_bend_c, 1, 12711
3, 248589, Pitch_bend_c, 1, 12429
3, 248597, Pitch_bend_c, 1, 10946
3, 248606, Pitch_bend_c, 1, 8474
3, 248789, Note_off_c, 1, 73, 64
3, 248800, Note_on_c, 1, 72, 60
3, 248840, Note_off_c, 1, 72, 64
3, 248840, Note_on_c, 1, 71, 60
3, 248880, Note_off_c, 1, 71, 64
3, 248880, Note_on_c, 1, 70, 60
3, 248920, Note_off_c, 1, 70, 64
3, 248920, Note_on_c, 1, 69, 60
3, 248960, Note_off_c, 1, 69, 64
3, 248960, Note_on_c, 1, 68, 60
3, 249000, Note_off_c, 1, 68, 64
3, 249000, Note_on_c, 1, 67, 60
3, 249040, Note_off_c, 1, 67, 64
3, 249040, Note_on_c, 1, 66, 60
3, 249080, Note_off_c, 1, 66, 64
3, 249080, Note_on_c, 1, 65, 60
3, 249120, Note_off_c, 1, 65, 64
3, 249120, Note_on_c, 1, 64, 60
3, 249160, Note_off_c, 1, 64, 64
3, 249160, Note_on_c, 1, 63, 60
3, 249200, Note_off_c, 1, 63, 64
3, 249200, Note_on_c, 1, 62, 60
3, 249240, Note_off_c, 1, 62, 64
3, 249240, Note_on_c, 1, 61, 60
3, 249280, Note_off_c, 1, 61, 64
3, 249280, Note_on_c, 1, 60, 60
3, 249320, Note_off_c, 1, 60, 64
3, 249320, Note_on_c, 1, 59, 60
3, 249360, Note_off_c, 1, 59, 64
3, 255120, Note_on_c, 1, 73, 100
3, 255240, Note_off_c, 1, 73, 64
3, 255240, Note_on_c, 1, 76, 100
3, 255360, Note_off_c, 1, 76, 64
3, 255360, Note_on_c, 1, 78, 100
3, 255480, Note_off_c, 1, 78, 64
3, 255480, Note_on_c, 1, 73, 100
3, 255600, Note_off_c, 1, 73, 64
3, 255600, Note_on_c, 1, 76, 100
3, 255720, Note_off_c, 1, 76, 64
3, 255720, Note_on_c, 1, 83, 100
3, 255840, Note_off_c, 1, 83, 64
3, 255840, Note_on_c, 1, 73, 100
3, 255960, Note_off_c, 1, 73, 64
3, 255960, Note_on_c, 1, 76, 100
3, 256080, Note_off_c, 1, 76, 64
3, 256080, Note_on_c, 1, 78, 100
3, 256200, Note_off_c, 1, 78, 64
3, 256200, Note_on_c, 1, 73, 100
3, 256320, Note_off_c, 1, 73, 64
3, 256320, Note_on_c, 1, 76, 100
3, 256440, Note_off_c, 1, 76, 64
3, 256440, Note_on_c, 1, 85, 100
3, 256560, Note_off_c, 1, 85, 64
3, 256560, Note_on_c, 1, 73, 100
3, 256680, Note_off_c, 1, 73, 64
3, 256680, Note_on_c, 1, 76, 100
3, 256800, Note_off_c, 1, 76, 64
3, 256800, Note_on_c, 1, 78, 100
3, 256920, Note_off_c, 1, 78, 64
3, 256920, Note_on_c, 1, 73, 100
3, 257040, Note_off_c, 1, 73, 64
3, 257040, Note_on_c, 1, 76, 100
3, 257160, Note_off_c, 1, 76, 64
3, 257160, Note_on_c, 1, 83, 100
3, 257280, Note_off_c, 1, 83, 64
3, 257280, Note_on_c, 1, 73, 100
3, 257400, Note_off_c, 1, 73, 64
3, 257400, Note_on_c, 1, 76, 100
3, 257520, Note_off_c, 1, 76, 64
3, 257520, Note_on_c, 1, 78, 100
3, 257640, Note_off_c, 1, 78, 64
3, 257640, Note_on_c, 1, 73, 100
3, 257760, Note_off_c, 1, 73, 64
3, 257760, Note_on_c, 1, 76, 100
3, 257880, Note_off_c, 1, 76, 64
3, 257880, Note_on_c, 1, 85, 100
3, 258000, Note_off_c, 1, 85, 64
3, 258000, Note_on_c, 1, 73, 100
3, 258120, Note_off_c, 1, 73, 64
3, 258120, Note_on_c, 1, 76, 100
3, 258240, Note_off_c, 1, 76, 64
3, 258240, Pitch_bend_c, 1, 10192
3, 258240, Note_on_c, 1, 71, 100
3, 258265, Pitch_bend_c, 1, 11192
3, 258290, Pitch_bend_c, 1, 12192
3, 258315, Pitch_bend_c, 1, 13192
3, 258340, Pitch_bend_c, 1, 16192
3, 258360, Note_off_c, 1, 71, 64
3, 258360, Note_on_c, 1, 71, 100
3, 258420, Pitch_bend_c, 1, 8192
3, 258480, Note_off_c, 1, 71, 64
3, 258480, Note_on_c, 1, 66, 100
3, 258600, Note_off_c, 1, 66, 64
3, 258600, Pitch_bend_c, 1, 10192
3, 258600, Note_on_c, 1, 71, 100
3, 258625, Pitch_bend_c, 1, 11192
3, 258650, Pitch_bend_c, 1, 12192
3, 258675, Pitch_bend_c, 1, 13192
3, 258700, Pitch_bend_c, 1, 14192
3, 258720, Note_off_c, 1, 71, 64
3, 258720, Pitch_bend_c, 1, 8192
3, 258720, Note_on_c, 1, 71, 100
3, 258840, Note_off_c, 1, 71, 64
3, 258840, Note_on_c, 1, 64, 100
3, 258960, Note_off_c, 1, 64, 64
3, 258960, Pitch_bend_c, 1, 10192
3, 258960, Note_on_c, 1, 71, 100
3, 258990, Pitch_bend_c, 1, 11192
3, 259020, Pitch_bend_c, 1, 12192
3, 259050, Pitch_bend_c, 1, 13192
3, 259080, Pitch_bend_c, 1, 14192
3, 259110, Pitch_bend_c, 1, 15192
3, 259140, Pitch_bend_c, 1, 16192
3, 259193, Note_off_c, 1, 71, 64
3, 259200, Note_on_c, 1, 71, 100
3, 259200, Pitch_bend_c, 1, 8192
3, 259320, Note_off_c, 1, 71, 64
3, 259320, Note_on_c, 1, 69, 100
3, 259440, Note_off_c, 1, 69, 64
3, 259440, Note_on_c, 1, 66, 100
3, 259560, Note_off_c, 1, 66, 64
3, 259560, Note_on_c, 1, 64, 100
3, 259680, Note_off_c, 1, 64, 64
3, 259680, Pitch_bend_c, 1, 10192
3, 259680, Note_on_c, 1, 71, 100
3, 259710, Pitch_bend_c, 1, 11192
3, 259740, Pitch_bend_c, 1, 12192
3, 259770, Pitch_bend_c, 1, 13192
3, 259800, Pitch_bend_c, 1, 14192
3, 259830, Pitch_bend_c, 1, 15192
3, 259860, Pitch_bend_c, 1, 16192
3, 260160, Note_off_c, 1, 71, 64
3, 260160, Note_on_c, 1, 73, 100
3, 260160, Pitch_bend_c, 1, 8192
3, 260280, Note_off_c, 1, 73, 64
3, 260280, Note_on_c, 1, 76, 100
3, 260400, Note_off_c, 1, 76, 64
3, 260400, Pitch_bend_c, 1, 10192
3, 260400, Note_on_c, 1, 71, 100
3, 260430, Pitch_bend_c, 1, 11192
3, 260460, Pitch_bend_c, 1, 12192
3, 260490, Pitch_bend_c, 1, 13192
3, 260520, Pitch_bend_c, 1, 14192
3, 260550, Pitch_bend_c, 1, 15192
3, 260580, Pitch_bend_c, 1, 16192
3, 260633, Note_off_c, 1, 71, 64
3, 260640, Pitch_bend_c, 1, 8192
3, 260640, Note_on_c, 1, 69, 100
3, 260760, Note_off_c, 1, 69, 64
3, 260760, Note_on_c, 1, 71, 100
3, 260880, Note_off_c, 1, 71, 64
3, 260880, Note_on_c, 1, 66, 100
3, 261000, Note_off_c, 1, 66, 64
3, 261000, Note_on_c, 1, 69, 100
3, 261120, Note_off_c, 1, 69, 64
3, 261120, Pitch_bend_c, 1, 10192
3, 261120, Note_on_c, 1, 64, 100
3, 261150, Pitch_bend_c, 1, 11192
3, 261180, Pitch_bend_c, 1, 12192
3, 261210, Pitch_bend_c, 1, 14192
3, 261239, Pitch_bend_c, 1, 16192
3, 261240, Note_off_c, 1, 64, 64
3, 261240, Note_on_c, 1, 64, 100
3, 261240, Pitch_bend_c, 1, 8192
3, 261360, Note_off_c, 1, 64, 64
3, 261360, Pitch_bend_c, 1, 10192
3, 261360, Note_on_c, 1, 59, 100
3, 261390, Pitch_bend_c, 1, 11192
3, 261420, Pitch_bend_c, 1, 12192
3, 261450, Pitch_bend_c, 1, 13192
3, 261480, Pitch_bend_c, 1, 14192
3, 261510, Pitch_bend_c, 1, 15192
3, 261540, Pitch_bend_c, 1, 16192
3, 261840, Note_off_c, 1, 59, 64
3, 261840, Note_on_c, 1, 64, 100
3, 261840, Pitch_bend_c, 1, 8192
3, 261920, Note_off_c, 1, 64, 64
3, 261920, Note_on_c, 1, 61, 100
3, 262000, Note_off_c, 1, 61, 64
3, 262000, Note_on_c, 1, 59, 100
3, 262080, Note_off_c, 1, 59, 64
3, 262080, Note_on_c, 1, 60, 100
3, 262160, Note_off_c, 1, 60, 64
3, 262160, Note_on_c, 1, 59, 100
3, 262240, Note_off_c, 1, 59, 64
3, 262240, Note_on_c, 1, 57, 100
3, 262320, Note_off_c, 1, 57, 64
3, 262320, Pitch_bend_c, 1, 10192
3, 262320, Note_on_c, 1, 52, 100
3, 262320, Control_c, 1, 1, 127
3, 262350, Pitch_bend_c, 1, 11192
3, 262380, Pitch_bend_c, 1, 12192
3, 262410, Pitch_bend_c, 1, 13192
3, 262440, Pitch_bend_c, 1, 14192
3, 262470, Pitch_bend_c, 1, 15192
3, 262500, Pitch_bend_c, 1, 16192
3, 262800, Note_off_c, 1, 52, 64
3, 262800, Note_on_c, 1, 53, 70
3, 262800, Control_c, 1, 1, 0
3, 262800, Pitch_bend_c, 1, 8192
3, 262840, Note_off_c, 1, 53, 64
3, 262840, Note_on_c, 1, 52, 70
3, 262880, Note_off_c, 1, 52, 64
3, 262880, Note_on_c, 1, 51, 70
3, 262920, Note_off_c, 1, 51, 64
3, 262920, Note_on_c, 1, 50, 70
3, 262960, Note_off_c, 1, 50, 64
3, 262960, Note_on_c, 1, 49, 70
3, 263000, Note_off_c, 1, 49, 64
3, 263000, Note_on_c, 1, 47, 70
3, 263040, Note_off_c, 1, 47, 64
3, 263040, Note_on_c, 1, 46, 70
3, 263080, Note_off_c, 1, 46, 64
3, 263082, Note_on_c, 1, 45, 70
3, 263122, Note_off_c, 1, 45, 64
3, 270360, Note_on_c, 1, 73, 70
3, 270420, Note_off_c, 1, 73, 64
3, 270420, Note_on_c, 1, 73, 70
3, 270480, Note_off_c, 1, 73, 64
3, 270480, Note_on_c, 1, 75, 100
3, 270600, Note_off_c, 1, 75, 64
3, 270600, Note_on_c, 1, 76, 100
3, 270720, Note_off_c, 1, 76, 64
3, 270720, Note_on_c, 1, 78, 100
3, 270840, Note_off_c, 1, 78, 64
3, 270840, Note_on_c, 1, 80, 100
3, 270960, Note_off_c, 1, 80, 64
3, 270960, Note_on_c, 1, 81, 100
3, 271040, Note_off_c, 1, 81, 64
3, 271040, Note_on_c, 1, 80, 100
3, 271120, Note_off_c, 1, 80, 64
3, 271120, Note_on_c, 1, 78, 100
3, 271200, Note_off_c, 1, 78, 64
3, 271200, Note_on_c, 1, 76, 100
3, 271280, Note_off_c, 1, 76, 64
3, 271280, Note_on_c, 1, 75, 100
3, 271360, Note_off_c, 1, 75, 64
3, 271360, Note_on_c, 1, 73, 100
3, 271440, Note_off_c, 1, 73, 64
3, 271440, Note_on_c, 1, 75, 100
3, 271500, Note_off_c, 1, 75, 64
3, 271500, Note_on_c, 1, 76, 100
3, 271560, Note_off_c, 1, 76, 64
3, 271560, Note_on_c, 1, 76, 100
3, 271620, Note_off_c, 1, 76, 64
3, 271620, Note_on_c, 1, 78, 100
3, 271680, Note_off_c, 1, 78, 64
3, 271680, Note_on_c, 1, 78, 100
3, 271740, Note_off_c, 1, 78, 64
3, 271740, Note_on_c, 1, 80, 100
3, 271800, Note_off_c, 1, 80, 64
3, 271800, Note_on_c, 1, 80, 100
3, 271920, Note_on_c, 1, 83, 100
3, 271932, Note_off_c, 1, 80, 64
3, 272000, Note_off_c, 1, 83, 64
3, 272000, Note_on_c, 1, 80, 100
3, 272080, Note_off_c, 1, 80, 64
3, 272080, Note_on_c, 1, 78, 100
3, 272160, Note_off_c, 1, 78, 64
3, 272160, Note_on_c, 1, 78, 100
3, 272240, Note_off_c, 1, 78, 64
3, 272240, Note_on_c, 1, 76, 100
3, 272320, Note_off_c, 1, 76, 64
3, 272320, Note_on_c, 1, 75, 100
3, 272400, Note_off_c, 1, 75, 64
3, 272400, Note_on_c, 1, 73, 100
3, 272480, Note_off_c, 1, 73, 64
3, 272480, Note_on_c, 1, 75, 100
3, 272560, Note_off_c, 1, 75, 64
3, 272560, Note_on_c, 1, 76, 100
3, 272640, Note_off_c, 1, 76, 64
3, 272640, Note_on_c, 1, 78, 100
3, 272720, Note_off_c, 1, 78, 64
3, 272720, Note_on_c, 1, 78, 100
3, 272800, Note_off_c, 1, 78, 64
3, 272800, Note_on_c, 1, 80, 100
3, 272880, Note_off_c, 1, 80, 64
3, 272880, Note_on_c, 1, 81, 100
3, 272940, Note_off_c, 1, 81, 64
3, 272940, Note_on_c, 1, 80, 100
3, 273000, Note_off_c, 1, 80, 64
3, 273000, Note_on_c, 1, 78, 100
3, 273060, Note_off_c, 1, 78, 64
3, 273060, Note_on_c, 1, 78, 100
3, 273120, Note_off_c, 1, 78, 64
3, 273120, Note_on_c, 1, 78, 100
3, 273180, Note_off_c, 1, 78, 64
3, 273180, Note_on_c, 1, 76, 100
3, 273240, Note_off_c, 1, 76, 64
3, 273240, Note_on_c, 1, 75, 100
3, 273300, Note_off_c, 1, 75, 64
3, 273300, Note_on_c, 1, 73, 100
3, 273360, Note_off_c, 1, 73, 64
3, 273360, Note_on_c, 1, 75, 100
3, 273420, Note_off_c, 1, 75, 64
3, 273420, Note_on_c, 1, 76, 100
3, 273480, Note_off_c, 1, 76, 64
3, 273480, Note_on_c, 1, 76, 100
3, 273540, Note_off_c, 1, 76, 64
3, 273540, Note_on_c, 1, 78, 100
3, 273600, Note_off_c, 1, 78, 64
3, 273600, Note_on_c, 1, 78, 100
3, 273680, Note_off_c, 1, 78, 64
3, 273680, Note_on_c, 1, 80, 100
3, 273760, Note_off_c, 1, 80, 64
3, 273760, Note_on_c, 1, 80, 100
3, 273840, Note_off_c, 1, 80, 64
3, 273840, Note_on_c, 1, 83, 100
3, 273920, Note_off_c, 1, 83, 64
3, 273920, Note_on_c, 1, 80, 100
3, 274000, Note_off_c, 1, 80, 64
3, 274000, Note_on_c, 1, 78, 100
3, 274080, Note_off_c, 1, 78, 64
3, 274080, Note_on_c, 1, 76, 100
3, 274160, Note_off_c, 1, 76, 64
3, 274160, Note_on_c, 1, 75, 100
3, 274240, Note_off_c, 1, 75, 64
3, 274240, Note_on_c, 1, 73, 100
3, 274280, Note_off_c, 1, 73, 64
3, 274280, Note_on_c, 1, 73, 100
3, 274320, Note_off_c, 1, 73, 64
3, 274320, Note_on_c, 1, 76, 100
3, 274400, Note_off_c, 1, 76, 64
3, 274400, Note_on_c, 1, 75, 100
3, 274480, Note_off_c, 1, 75, 64
3, 274480, Note_on_c, 1, 73, 100
3, 274560, Note_off_c, 1, 73, 64
3, 274560, Note_on_c, 1, 72, 100
3, 274640, Note_off_c, 1, 72, 64
3, 274640, Note_on_c, 1, 70, 100
3, 274720, Note_off_c, 1, 70, 64
3, 274720, Note_on_c, 1, 69, 100
3, 274800, Note_off_c, 1, 69, 64
3, 274800, Note_on_c, 1, 72, 100
3, 274880, Note_off_c, 1, 72, 64
3, 274880, Note_on_c, 1, 71, 100
3, 274960, Note_off_c, 1, 71, 64
3, 274960, Note_on_c, 1, 70, 100
3, 275040, Note_off_c, 1, 70, 64
3, 376320, Note_on_c, 1, 52, 70
3, 376440, Note_off_c, 1, 52, 64
3, 376440, Note_on_c, 1, 54, 70
3, 376560, Note_off_c, 1, 54, 64
3, 376560, Note_on_c, 1, 55, 70
3, 376680, Note_off_c, 1, 55, 64
3, 376680, Note_on_c, 1, 59, 70
3, 376800, Note_off_c, 1, 59, 64
3, 376800, Note_on_c, 1, 55, 70
3, 376920, Note_off_c, 1, 55, 64
3, 376920, Note_on_c, 1, 54, 70
3, 377040, Note_off_c, 1, 54, 64
3, 377040, Note_on_c, 1, 55, 70
3, 377160, Note_off_c, 1, 55, 64
3, 377160, Note_on_c, 1, 52, 70
3, 377280, Note_off_c, 1, 52, 64
3, 377280, Note_on_c, 1, 54, 70
3, 377400, Note_off_c, 1, 54, 64
3, 377400, Note_on_c, 1, 55, 70
3, 377520, Note_off_c, 1, 55, 64
3, 377520, Note_on_c, 1, 59, 70
3, 377640, Note_off_c, 1, 59, 64
3, 377640, Note_on_c, 1, 60, 70
3, 377760, Note_off_c, 1, 60, 64
3, 377760, Note_on_c, 1, 64, 70
3, 377880, Note_off_c, 1, 64, 64
3, 377880, Note_on_c, 1, 60, 70
3, 378000, Note_off_c, 1, 60, 64
3, 378000, Note_on_c, 1, 59, 70
3, 378120, Note_off_c, 1, 59, 64
3, 378120, Note_on_c, 1, 60, 70
3, 378240, Note_off_c, 1, 60, 64
3, 378240, Note_on_c, 1, 55, 70
3, 378360, Note_off_c, 1, 55, 64
3, 378360, Note_on_c, 1, 59, 70
3, 378480, Note_off_c, 1, 59, 64
3, 378480, Note_on_c, 1, 60, 70
3, 378600, Note_off_c, 1, 60, 64
3, 378600, Note_on_c, 1, 64, 70
3, 378720, Note_off_c, 1, 64, 64
3, 378720, Note_on_c, 1, 64, 70
3, 378840, Note_off_c, 1, 64, 64
3, 378840, Note_on_c, 1, 69, 70
3, 378960, Note_off_c, 1, 69, 64
3, 378960, Note_on_c, 1, 64, 70
3, 379080, Note_off_c, 1, 64, 64
3, 379080, Note_on_c, 1, 64, 70
3, 379200, Note_off_c, 1, 64, 64
3, 379200, Note_on_c, 1, 60, 70
3, 379320, Note_off_c, 1, 60, 64
3, 379320, Note_on_c, 1, 64, 70
3, 379440, Note_off_c, 1, 64, 64
3, 379440, Note_on_c, 1, 64, 70
3, 379560, Note_off_c, 1, 64, 64
3, 379560, Note_on_c, 1, 69, 70
3, 379680, Note_off_c, 1, 69, 64
3, 379680, Note_on_c, 1, 69, 70
3, 379800, Note_off_c, 1, 69, 64
3, 379800, Note_on_c, 1, 74, 70
3, 379920, Note_off_c, 1, 74, 64
3, 379920, Note_on_c, 1, 76, 70
3, 380040, Note_off_c, 1, 76, 64
3, 380040, Note_on_c, 1, 71, 70
3, 380160, Note_off_c, 1, 71, 64
3, 380160, Note_on_c, 1, 71, 70
3, 380280, Note_off_c, 1, 71, 64
3, 380280, Note_on_c, 1, 71, 70
3, 380400, Note_off_c, 1, 71, 64
3, 380400, Note_on_c, 1, 66, 70
3, 380520, Note_off_c, 1, 66, 64
3, 380520, Note_on_c, 1, 71, 70
3, 380640, Note_off_c, 1, 71, 64
3, 380640, Note_on_c, 1, 66, 70
3, 380760, Note_off_c, 1, 66, 64
3, 380760, Note_on_c, 1, 67, 70
3, 380880, Note_off_c, 1, 67, 64
3, 380880, Note_on_c, 1, 66, 70
3, 381000, Note_off_c, 1, 66, 64
3, 381000, Note_on_c, 1, 62, 70
3, 381120, Note_off_c, 1, 62, 64
3, 381120, Note_on_c, 1, 67, 70
3, 381240, Note_off_c, 1, 67, 64
3, 381240, Note_on_c, 1, 62, 70
3, 381360, Note_off_c, 1, 62, 64
3, 381360, Note_on_c, 1, 62, 70
3, 381480, Note_off_c, 1, 62, 64
3, 381480, Note_on_c, 1, 62, 70
3, 381600, Note_off_c, 1, 62, 64
3, 381600, Note_on_c, 1, 57, 70
3, 381720, Note_off_c, 1, 57, 64
3, 381720, Note_on_c, 1, 62, 70
3, 381840, Note_off_c, 1, 62, 64
3, 381840, Note_on_c, 1, 57, 70
3, 381960, Note_off_c, 1, 57, 64
3, 381960, Note_on_c, 1, 57, 70
3, 382080, Note_off_c, 1, 57, 64
3, 382080, Note_on_c, 1, 57, 70
3, 382200, Note_off_c, 1, 57, 64
3, 382200, Note_on_c, 1, 52, 70
3, 382320, Note_off_c, 1, 52, 64
3, 382320, Note_on_c, 1, 57, 70
3, 382440, Note_off_c, 1, 57, 64
3, 382440, Note_on_c, 1, 52, 70
3, 382560, Note_off_c, 1, 52, 64
3, 382560, Note_on_c, 1, 50, 70
3, 382620, Note_off_c, 1, 50, 64
3, 382620, Note_on_c, 1, 51, 70
3, 382680, Note_off_c, 1, 51, 64
3, 382680, Note_on_c, 1, 52, 70
3, 382800, Note_off_c, 1, 52, 64
3, 382800, Note_on_c, 1, 47, 70
3, 382920, Note_off_c, 1, 47, 64
3, 382920, Note_on_c, 1, 52, 70
3, 383040, Note_off_c, 1, 52, 64
3, 383040, Note_on_c, 1, 52, 70
3, 383160, Note_off_c, 1, 52, 64
3, 383160, Note_on_c, 1, 57, 70
3, 383280, Note_off_c, 1, 57, 64
3, 383280, Note_on_c, 1, 52, 70
3, 383400, Note_off_c, 1, 52, 64
3, 383400, Note_on_c, 1, 54, 70
3, 383520, Note_off_c, 1, 54, 64
3, 383520, Note_on_c, 1, 55, 70
3, 383640, Note_off_c, 1, 55, 64
3, 383640, Note_on_c, 1, 59, 70
3, 383760, Note_off_c, 1, 59, 64
3, 383760, Note_on_c, 1, 55, 70
3, 383880, Note_off_c, 1, 55, 64
3, 383880, Note_on_c, 1, 54, 70
3, 384000, Note_off_c, 1, 54, 64
3, 384000, Note_on_c, 1, 55, 70
3, 384120, Note_off_c, 1, 55, 64
3, 384120, Note_on_c, 1, 52, 70
3, 384240, Note_off_c, 1, 52, 64
3, 384240, Note_on_c, 1, 54, 70
3, 384360, Note_off_c, 1, 54, 64
3, 384360, Note_on_c, 1, 55, 70
3, 384480, Note_off_c, 1, 55, 64
3, 384480, Note_on_c, 1, 59, 70
3, 384600, Note_off_c, 1, 59, 64
3, 384600, Note_on_c, 1, 60, 70
3, 384720, Note_off_c, 1, 60, 64
3, 384720, Note_on_c, 1, 64, 70
3, 384840, Note_off_c, 1, 64, 64
3, 384840, Note_on_c, 1, 60, 70
3, 384960, Note_off_c, 1, 60, 64
3, 384960, Note_on_c, 1, 59, 70
3, 385080, Note_off_c, 1, 59, 64
3, 385080, Note_on_c, 1, 60, 70
3, 385200, Note_off_c, 1, 60, 64
3, 385200, Note_on_c, 1, 55, 70
3, 385320, Note_off_c, 1, 55, 64
3, 385320, Note_on_c, 1, 59, 70
3, 385440, Note_off_c, 1, 59, 64
3, 385440, Note_on_c, 1, 60, 70
3, 385560, Note_off_c, 1, 60, 64
3, 385560, Note_on_c, 1, 64, 70
3, 385680, Note_off_c, 1, 64, 64
3, 385680, Note_on_c, 1, 64, 70
3, 385800, Note_off_c, 1, 64, 64
3, 385800, Note_on_c, 1, 69, 70
3, 385920, Note_off_c, 1, 69, 64
3, 385920, Note_on_c, 1, 64, 70
3, 386040, Note_off_c, 1, 64, 64
3, 386040, Note_on_c, 1, 64, 70
3, 386160, Note_off_c, 1, 64, 64
3, 386160, Note_on_c, 1, 60, 70
3, 386280, Note_off_c, 1, 60, 64
3, 386280, Note_on_c, 1, 64, 70
3, 386400, Note_off_c, 1, 64, 64
3, 386400, Note_on_c, 1, 64, 70
3, 386520, Note_off_c, 1, 64, 64
3, 386520, Note_on_c, 1, 69, 70
3, 386640, Note_off_c, 1, 69, 64
3, 386640, Note_on_c, 1, 69, 70
3, 386760, Note_off_c, 1, 69, 64
3, 386760, Note_on_c, 1, 74, 70
3, 386880, Note_off_c, 1, 74, 64
3, 386880, Note_on_c, 1, 76, 70
3, 387000, Note_off_c, 1, 76, 64
3, 387000, Note_on_c, 1, 71, 70
3, 387120, Note_off_c, 1, 71, 64
3, 387120, Note_on_c, 1, 71, 70
3, 387240, Note_off_c, 1, 71, 64
3, 387240, Note_on_c, 1, 71, 70
3, 387360, Note_off_c, 1, 71, 64
3, 387360, Note_on_c, 1, 66, 70
3, 387480, Note_off_c, 1, 66, 64
3, 387480, Note_on_c, 1, 71, 70
3, 387600, Note_off_c, 1, 71, 64
3, 387600, Note_on_c, 1, 66, 70
3, 387720, Note_off_c, 1, 66, 64
3, 387720, Note_on_c, 1, 67, 70
3, 387840, Note_off_c, 1, 67, 64
3, 387840, Note_on_c, 1, 66, 70
3, 387960, Note_off_c, 1, 66, 64
3, 387960, Note_on_c, 1, 62, 70
3, 388080, Note_off_c, 1, 62, 64
3, 388080, Note_on_c, 1, 67, 70
3, 388200, Note_off_c, 1, 67, 64
3, 388200, Note_on_c, 1, 62, 70
3, 388320, Note_off_c, 1, 62, 64
3, 388320, Note_on_c, 1, 62, 70
3, 388440, Note_off_c, 1, 62, 64
3, 388440, Note_on_c, 1, 62, 70
3, 388560, Note_off_c, 1, 62, 64
3, 388560, Note_on_c, 1, 57, 70
3, 388680, Note_off_c, 1, 57, 64
3, 388680, Note_on_c, 1, 62, 70
3, 388800, Note_off_c, 1, 62, 64
3, 388800, Note_on_c, 1, 57, 70
3, 388920, Note_off_c, 1, 57, 64
3, 388920, Note_on_c, 1, 57, 70
3, 389040, Note_off_c, 1, 57, 64
3, 389040, Note_on_c, 1, 57, 70
3, 389160, Note_off_c, 1, 57, 64
3, 389160, Note_on_c, 1, 52, 70
3, 389280, Note_off_c, 1, 52, 64
3, 389280, Note_on_c, 1, 57, 70
3, 389400, Note_off_c, 1, 57, 64
3, 389400, Note_on_c, 1, 52, 70
3, 389520, Note_off_c, 1, 52, 64
3, 389520, Note_on_c, 1, 52, 100
3, 389640, Note_off_c, 1, 52, 64
3, 389640, Note_on_c, 1, 52, 70
3, 389760, Note_off_c, 1, 52, 64
3, 459840, Note_on_c, 1, 50, 85
3, 460800, Note_off_c, 1, 50, 64
3, 460800, Note_on_c, 1, 52, 85
3, 461760, Note_off_c, 1, 52, 64
3, 461760, Note_on_c, 1, 53, 85
3, 462720, Note_off_c, 1, 53, 64
3, 462720, Note_on_c, 1, 43, 85
3, 463680, Note_off_c, 1, 43, 64
3, 463680, Note_on_c, 1, 45, 85
3, 464640, Note_off_c, 1, 45, 64
3, 464640, Note_on_c, 1, 46, 85
3, 465600, Note_off_c, 1, 46, 64
3, 465600, Note_on_c, 1, 48, 85
3, 465600, Note_on_c, 1, 55, 85
3, 468480, Note_off_c, 1, 55, 64
3, 468480, Note_off_c, 1, 48, 64
3, 474240, Note_on_c, 1, 53, 70
3, 474240, Note_on_c, 1, 60, 70
3, 474240, Note_on_c, 1, 65, 70
3, 476160, Note_off_c, 1, 65, 80
3, 476160, Note_off_c, 1, 60, 80
3, 476160, Note_off_c, 1, 53, 80
3, 476160, Note_on_c, 1, 62, 70
3, 476160, Note_on_c, 1, 57, 70
3, 476160, Note_on_c, 1, 50, 70
3, 478080, Note_off_c, 1, 50, 80
3, 478080, Note_off_c, 1, 57, 80
3, 478080, Note_off_c, 1, 62, 80
3, 478080, Note_on_c, 1, 60, 70
3, 478080, Note_on_c, 1, 55, 70
3, 478080, Note_on_c, 1, 48, 70
3, 481920, Note_off_c, 1, 48, 80
3, 481920, Note_off_c, 1, 55, 80
3, 481920, Note_off_c, 1, 60, 80
3, 481920, Note_on_c, 1, 60, 70
3, 481920, Note_on_c, 1, 53, 70
3, 481920, Note_on_c, 1, 65, 70
3, 483840, Note_off_c, 1, 65, 80
3, 483840, Note_off_c, 1, 53, 80
3, 483840, Note_off_c, 1, 60, 80
3, 483840, Note_on_c, 1, 62, 70
3, 483840, Note_on_c, 1, 57, 70
3, 483840, Note_on_c, 1, 50, 70
3, 485760, Note_off_c, 1, 50, 80
3, 485760, Note_off_c, 1, 57, 80
3, 485760, Note_off_c, 1, 62, 80
3, 485760, Note_on_c, 1, 60, 70
3, 485760, Note_on_c, 1, 55, 70
3, 485760, Note_on_c, 1, 48, 70
3, 489600, Note_off_c, 1, 48, 80
3, 489600, Note_off_c, 1, 55, 80
3, 489600, Note_off_c, 1, 60, 80
3, 489600, Note_on_c, 1, 57, 70
3, 489600, Note_on_c, 1, 50, 70
3, 489600, Note_on_c, 1, 62, 70
3, 491520, Note_off_c, 1, 62, 64
3, 491520, Note_off_c, 1, 50, 80
3, 491520, Note_off_c, 1, 57, 80
3, 491520, Note_on_c, 1, 40, 70
3, 492240, Note_off_c, 1, 40, 80
3, 492240, Note_on_c, 1, 41, 70
3, 492240, Note_on_c, 1, 48, 70
3, 492240, Note_on_c, 1, 53, 70
3, 492960, Note_off_c, 1, 48, 80
3, 492960, Note_off_c, 1, 41, 80
3, 492960, Note_on_c, 1, 45, 70
3, 492960, Note_on_c, 1, 52, 70
3, 492967, Note_off_c, 1, 53, 64
3, 493440, Note_off_c, 1, 45, 80
3, 493440, Note_off_c, 1, 52, 80
3, 493440, Note_on_c, 1, 46, 70
3, 493440, Note_on_c, 1, 53, 70
3, 493440, Note_on_c, 1, 58, 70
3, 495360, Note_off_c, 1, 58, 80
3, 495360, Note_off_c, 1, 53, 80
3, 495360, Note_off_c, 1, 46, 80
3, 495360, Note_on_c, 1, 43, 70
3, 495360, Note_on_c, 1, 50, 70
3, 496073, Note_off_c, 1, 50, 64
3, 496080, Note_off_c, 1, 43, 80
3, 496080, Note_on_c, 1, 45, 70
3, 496080, Note_on_c, 1, 52, 70
3, 496800, Note_off_c, 1, 45, 80
3, 496800, Note_on_c, 1, 48, 70
3, 496800, Note_on_c, 1, 55, 70
3, 496807, Note_off_c, 1, 52, 64
3, 497280, Note_off_c, 1, 48, 80
3, 497280, Note_off_c, 1, 55, 64
3, 497280, Note_on_c, 1, 62, 70
3, 497280, Note_on_c, 1, 50, 70
3, 497280, Note_on_c, 1, 57, 70
3, 499200, Note_off_c, 1, 57, 80
3, 499200, Note_off_c, 1, 50, 80
3, 499200, Note_off_c, 1, 62, 64
3, 499200, Note_on_c, 1, 40, 70
3, 499920, Note_off_c, 1, 40, 80
3, 499920, Note_on_c, 1, 41, 70
3, 499920, Note_on_c, 1, 48, 70
3, 499920, Note_on_c, 1, 53, 70
3, 500640, Note_off_c, 1, 48, 80
3, 500640, Note_off_c, 1, 41, 80
3, 500640, Note_on_c, 1, 45, 70
3, 500640, Note_on_c, 1, 52, 70
3, 500647, Note_off_c, 1, 53, 64
3, 501120, Note_off_c, 1, 45, 80
3, 501120, Note_off_c, 1, 52, 80
3, 501120, Note_on_c, 1, 46, 70
3, 501120, Note_on_c, 1, 53, 70
3, 501120, Note_on_c, 1, 58, 70
3, 503040, Note_off_c, 1, 58, 80
3, 503040, Note_off_c, 1, 53, 80
3, 503040, Note_off_c, 1, 46, 80
3, 503040, Note_on_c, 1, 43, 70
3, 503040, Note_on_c, 1, 50, 70
3, 503753, Note_off_c, 1, 50, 64
3, 503760, Note_off_c, 1, 43, 80
3, 503760, Note_on_c, 1, 52, 70
3, 503760, Note_on_c, 1, 45, 70
3, 504967, Note_off_c, 1, 45, 80
3, 504967, Note_off_c, 1, 52, 64
3, 504967, End_track
4, 0, Start_track
4, 0, Title_t, "Guitar2"
4, 0, MIDI_port, 0
4, 0, Channel_prefix, 2
4, 0, Control_c, 2, 7, 102
4, 0, Control_c, 2, 10, 64
4, 0, Program_c, 2, 29
4, 275040, Note_on_c, 2, 66, 100
4, 275280, Note_off_c, 2, 66, 64
4, 275280, Note_on_c, 2, 64, 100
4, 275280, Control_c, 2, 1, 120
4, 275760, Note_off_c, 2, 64, 64
4, 275760, Note_on_c, 2, 60, 100
4, 276000, Note_off_c, 2, 60, 64
4, 276000, Note_on_c, 2, 59, 100
4, 276473, Note_on_c, 2, 58, 60
4, 276480, Note_off_c, 2, 59, 64
4, 276513, Note_off_c, 2, 58, 64
4, 276513, Note_on_c, 2, 57, 60
4, 276553, Note_off_c, 2, 57, 64
4, 276553, Note_on_c, 2, 56, 60
4, 276593, Note_off_c, 2, 56, 64
4, 276593, Note_on_c, 2, 55, 60
4, 276633, Note_off_c, 2, 55, 64
4, 276633, Note_on_c, 2, 54, 60
4, 276673, Note_off_c, 2, 54, 64
4, 276673, Note_on_c, 2, 53, 60
4, 276713, Note_off_c, 2, 53, 64
4, 276713, Note_on_c, 2, 52, 60
4, 276753, Note_off_c, 2, 52, 64
4, 504959, Program_c, 2, 28
4, 504960, Note_on_c, 2, 53, 100
4, 505080, Note_off_c, 2, 53, 64
4, 505440, Note_on_c, 2, 72, 100
4, 505440, Note_on_c, 2, 65, 100
4, 505440, Note_on_c, 2, 69, 100
4, 505560, Note_off_c, 2, 69, 64
4, 505560, Note_off_c, 2, 65, 64
4, 505560, Note_off_c, 2, 72, 64
4, 505740, Note_on_c, 2, 72, 100
4, 505740, Note_on_c, 2, 69, 100
4, 505740, Note_on_c, 2, 65, 100
4, 505860, Note_off_c, 2, 65, 64
4, 505860, Note_off_c, 2, 69, 64
4, 505860, Note_off_c, 2, 72, 64
4, 506400, Note_on_c, 2, 74, 100
4, 506400, Note_on_c, 2, 69, 100
4, 506400, Note_on_c, 2, 65, 100
4, 506520, Note_off_c, 2, 65, 64
4, 506520, Note_off_c, 2, 69, 64
4, 506520, Note_off_c, 2, 74, 64
4, 507360, Note_on_c, 2, 70, 100
4, 507360, Note_on_c, 2, 62, 100
4, 507360, Note_on_c, 2, 65, 100
4, 507480, Note_off_c, 2, 65, 64
4, 507480, Note_off_c, 2, 62, 64
4, 507480, Note_off_c, 2, 70, 64
4, 507660, Note_on_c, 2, 70, 100
4, 507660, Note_on_c, 2, 62, 100
4, 507660, Note_on_c, 2, 65, 100
4, 507780, Note_off_c, 2, 65, 64
4, 507780, Note_off_c, 2, 62, 64
4, 507780, Note_off_c, 2, 70, 64
4, 507840, Note_on_c, 2, 60, 80
4, 507960, Note_off_c, 2, 60, 64
4, 508320, Note_on_c, 2, 72, 100
4, 508320, Note_on_c, 2, 67, 100
4, 508320, Note_on_c, 2, 64, 100
4, 508440, Note_off_c, 2, 64, 64
4, 508440, Note_off_c, 2, 67, 64
4, 508440, Note_off_c, 2, 72, 64
4, 508800, Note_on_c, 2, 53, 100
4, 508920, Note_off_c, 2, 53, 64
4, 509280, Note_on_c, 2, 72, 100
4, 509280, Note_on_c, 2, 65, 100
4, 509280, Note_on_c, 2, 69, 100
4, 509400, Note_off_c, 2, 69, 64
4, 509400, Note_off_c, 2, 65, 64
4, 509400, Note_off_c, 2, 72, 64
4, 509580, Note_on_c, 2, 72, 100
4, 509580, Note_on_c, 2, 69, 100
4, 509580, Note_on_c, 2, 65, 100
4, 509700, Note_off_c, 2, 65, 64
4, 509700, Note_off_c, 2, 69, 64
4, 509700, Note_off_c, 2, 72, 64
4, 510120, Note_on_c, 2, 62, 100
4, 510240, Note_off_c, 2, 62, 64
4, 510240, Note_on_c, 2, 74, 100
4, 510240, Note_on_c, 2, 69, 100
4, 510240, Note_on_c, 2, 65, 100
4, 510360, Note_off_c, 2, 65, 64
4, 510360, Note_off_c, 2, 69, 64
4, 510360, Note_off_c, 2, 74, 64
4, 511080, Note_on_c, 2, 62, 100
4, 511120, Note_off_c, 2, 62, 64
4, 511120, Note_on_c, 2, 65, 100
4, 511160, Note_off_c, 2, 65, 64
4, 511160, Note_on_c, 2, 70, 100
4, 511200, Note_off_c, 2, 70, 64
4, 511200, Note_on_c, 2, 70, 100
4, 511200, Note_on_c, 2, 62, 100
4, 511200, Note_on_c, 2, 65, 100
4, 511320, Note_off_c, 2, 65, 64
4, 511320, Note_off_c, 2, 62, 64
4, 511320, Note_off_c, 2, 70, 64
4, 511500, Note_on_c, 2, 70, 100
4, 511500, Note_on_c, 2, 62, 100
4, 511500, Note_on_c, 2, 65, 100
4, 511620, Note_off_c, 2, 65, 64
4, 511620, Note_off_c, 2, 62, 64
4, 511620, Note_off_c, 2, 70, 64
4, 511680, Note_on_c, 2, 60, 80
4, 511800, Note_off_c, 2, 60, 64
4, 512160, Note_on_c, 2, 72, 100
4, 512160, Note_on_c, 2, 67, 100
4, 512160, Note_on_c, 2, 64, 100
4, 512280, Note_off_c, 2, 64, 64
4, 512280, Note_off_c, 2, 67, 64
4, 512280, Note_off_c, 2, 72, 64
4, 512640, Note_on_c, 2, 53, 100
4, 512760, Note_off_c, 2, 53, 64
4, 513120, Note_on_c, 2, 72, 100
4, 513120, Note_on_c, 2, 65, 100
4, 513120, Note_on_c, 2, 69, 100
4, 513240, Note_off_c, 2, 69, 64
4, 513240, Note_off_c, 2, 65, 64
4, 513240, Note_off_c, 2, 72, 64
4, 513420, Note_on_c, 2, 72, 100
4, 513420, Note_on_c, 2, 69, 100
4, 513420, Note_on_c, 2, 65, 100
4, 513540, Note_off_c, 2, 65, 64
4, 513540, Note_off_c, 2, 69, 64
4, 513540, Note_off_c, 2, 72, 64
4, 514080, Note_on_c, 2, 74, 100
4, 514080, Note_on_c, 2, 69, 100
4, 514080, Note_on_c, 2, 65, 100
4, 514200, Note_off_c, 2, 65, 64
4, 514200, Note_off_c, 2, 69, 64
4, 514200, Note_off_c, 2, 74, 64
4, 515040, Note_on_c, 2, 70, 100
4, 515040, Note_on_c, 2, 62, 100
4, 515040, Note_on_c, 2, 65, 100
4, 515160, Note_off_c, 2, 65, 64
4, 515160, Note_off_c, 2, 62, 64
4, 515160, Note_off_c, 2, 70, 64
4, 515340, Note_on_c, 2, 70, 100
4, 515340, Note_on_c, 2, 62, 100
4, 515340, Note_on_c, 2, 65, 100
4, 515460, Note_off_c, 2, 65, 64
4, 515460, Note_off_c, 2, 62, 64
4, 515460, Note_off_c, 2, 70, 64
4, 515520, Note_on_c, 2, 60, 80
4, 515640, Note_off_c, 2, 60, 64
4, 516000, Note_on_c, 2, 72, 100
4, 516000, Note_on_c, 2, 67, 100
4, 516000, Note_on_c, 2, 64, 100
4, 516120, Note_off_c, 2, 64, 64
4, 516120, Note_off_c, 2, 67, 64
4, 516120, Note_off_c, 2, 72, 64
4, 516480, Note_on_c, 2, 53, 100
4, 516600, Note_off_c, 2, 53, 64
4, 516960, Note_on_c, 2, 72, 100
4, 516960, Note_on_c, 2, 65, 100
4, 516960, Note_on_c, 2, 69, 100
4, 517080, Note_off_c, 2, 69, 64
4, 517080, Note_off_c, 2, 65, 64
4, 517080, Note_off_c, 2, 72, 64
4, 517260, Note_on_c, 2, 72, 100
4, 517260, Note_on_c, 2, 69, 100
4, 517260, Note_on_c, 2, 65, 100
4, 517380, Note_off_c, 2, 65, 64
4, 517380, Note_off_c, 2, 69, 64
4, 517380, Note_off_c, 2, 72, 64
4, 517800, Note_on_c, 2, 62, 100
4, 517920, Note_off_c, 2, 62, 64
4, 517920, Note_on_c, 2, 74, 100
4, 517920, Note_on_c, 2, 69, 100
4, 517920, Note_on_c, 2, 65, 100
4, 518040, Note_off_c, 2, 65, 64
4, 518040, Note_off_c, 2, 69, 64
4, 518040, Note_off_c, 2, 74, 64
4, 518760, Note_on_c, 2, 62, 100
4, 518800, Note_off_c, 2, 62, 64
4, 518800, Note_on_c, 2, 65, 100
4, 518840, Note_off_c, 2, 65, 64
4, 518840, Note_on_c, 2, 70, 100
4, 518880, Note_off_c, 2, 70, 64
4, 518880, Note_on_c, 2, 70, 100
4, 518880, Note_on_c, 2, 62, 100
4, 518880, Note_on_c, 2, 65, 100
4, 519000, Note_off_c, 2, 65, 64
4, 519000, Note_off_c, 2, 62, 64
4, 519000, Note_off_c, 2, 70, 64
4, 519180, Note_on_c, 2, 70, 100
4, 519180, Note_on_c, 2, 62, 100
4, 519180, Note_on_c, 2, 65, 100
4, 519300, Note_off_c, 2, 65, 64
4, 519300, Note_off_c, 2, 62, 64
4, 519300, Note_off_c, 2, 70, 64
4, 519360, Note_on_c, 2, 60, 80
4, 519480, Note_off_c, 2, 60, 64
4, 519840, Note_on_c, 2, 72, 100
4, 519840, Note_on_c, 2, 67, 100
4, 519840, Note_on_c, 2, 64, 100
4, 519960, Note_off_c, 2, 64, 64
4, 519960, Note_off_c, 2, 67, 64
4, 519960, Note_off_c, 2, 72, 64
4, 519960, End_track
5, 0, Start_track
5, 0, Title_t, "CleanGuitar"
5, 0, MIDI_port, 0
5, 0, Channel_prefix, 3
5, 0, Control_c, 3, 7, 109
5, 0, Control_c, 3, 10, 64
5, 0, Program_c, 3, 27
5, 318240, Control_c, 3, 64, 127
5, 319680, Note_on_c, 3, 47, 74
5, 319913, Note_off_c, 3, 47, 64
5, 319920, Note_on_c, 3, 54, 70
5, 320160, Note_off_c, 3, 54, 64
5, 320160, Note_on_c, 3, 59, 93
5, 320400, Note_off_c, 3, 59, 64
5, 320400, Note_on_c, 3, 64, 100
5, 320640, Note_off_c, 3, 64, 64
5, 323280, Note_on_c, 3, 47, 74
5, 323520, Note_off_c, 3, 47, 64
5, 323520, Note_on_c, 3, 54, 75
5, 323760, Note_off_c, 3, 54, 64
5, 323760, Note_on_c, 3, 59, 93
5, 324000, Note_off_c, 3, 59, 64
5, 324000, Note_on_c, 3, 64, 100
5, 324240, Note_off_c, 3, 64, 64
5, 324960, Note_on_c, 3, 54, 74
5, 325200, Note_off_c, 3, 54, 64
5, 325200, Note_on_c, 3, 55, 75
5, 325440, Note_off_c, 3, 55, 64
5, 325440, Note_on_c, 3, 62, 93
5, 325680, Note_off_c, 3, 62, 64
5, 325680, Note_on_c, 3, 69, 100
5, 325920, Note_off_c, 3, 69, 64
5, 326640, Note_on_c, 3, 47, 74
5, 326873, Note_off_c, 3, 47, 64
5, 326880, Note_on_c, 3, 54, 70
5, 327120, Note_off_c, 3, 54, 64
5, 327120, Note_on_c, 3, 59, 93
5, 327360, Note_off_c, 3, 59, 64
5, 327360, Note_on_c, 3, 64, 100
5, 327600, Note_off_c, 3, 64, 64
5, 330240, Note_on_c, 3, 47, 74
5, 330480, Note_off_c, 3, 47, 64
5, 330480, Note_on_c, 3, 54, 75
5, 330720, Note_off_c, 3, 54, 64
5, 330720, Note_on_c, 3, 59, 93
5, 330960, Note_off_c, 3, 59, 64
5, 330960, Note_on_c, 3, 64, 100
5, 331200, Note_off_c, 3, 64, 64
5, 331920, Note_on_c, 3, 54, 74
5, 332160, Note_off_c, 3, 54, 64
5, 332160, Note_on_c, 3, 55, 75
5, 332400, Note_off_c, 3, 55, 64
5, 332400, Note_on_c, 3, 62, 93
5, 332640, Note_off_c, 3, 62, 64
5, 332640, Note_on_c, 3, 71, 89
5, 332880, Note_off_c, 3, 71, 64
5, 333600, Note_on_c, 3, 54, 74
5, 333840, Note_off_c, 3, 54, 64
5, 333840, Note_on_c, 3, 59, 75
5, 334080, Note_off_c, 3, 59, 64
5, 334080, Note_on_c, 3, 66, 93
5, 334320, Note_off_c, 3, 66, 64
5, 334320, Note_on_c, 3, 71, 100
5, 334560, Note_off_c, 3, 71, 64
5, 334560, Note_on_c, 3, 66, 75
5, 334800, Note_off_c, 3, 66, 64
5, 334800, Note_on_c, 3, 59, 93
5, 335040, Note_off_c, 3, 59, 64
5, 335280, Note_on_c, 3, 57, 74
5, 335520, Note_off_c, 3, 57, 64
5, 335520, Note_on_c, 3, 64, 75
5, 335760, Note_off_c, 3, 64, 64
5, 335760, Note_on_c, 3, 69, 93
5, 336000, Note_off_c, 3, 69, 64
5, 336240, Note_on_c, 3, 66, 60
5, 336720, Note_off_c, 3, 66, 64
5, 337200, Note_on_c, 3, 59, 74
5, 337440, Note_off_c, 3, 59, 64
5, 337440, Note_on_c, 3, 66, 75
5, 337680, Note_off_c, 3, 66, 64
5, 337680, Note_on_c, 3, 71, 93
5, 337920, Note_off_c, 3, 71, 64
5, 337920, Note_on_c, 3, 59, 50
5, 338160, Note_off_c, 3, 59, 64
5, 338160, Note_on_c, 3, 66, 100
5, 338400, Note_off_c, 3, 66, 64
5, 338400, Note_on_c, 3, 64, 81
5, 338640, Note_off_c, 3, 64, 64
5, 338640, Note_on_c, 3, 59, 81
5, 338880, Note_off_c, 3, 59, 64
5, 338880, Note_on_c, 3, 64, 87
5, 339120, Note_off_c, 3, 64, 64
5, 339120, Note_on_c, 3, 69, 88
5, 339360, Note_off_c, 3, 69, 64
5, 339360, Note_on_c, 3, 73, 93
5, 339600, Note_off_c, 3, 73, 64
5, 339600, Note_on_c, 3, 71, 70
5, 339600, Note_on_c, 3, 67, 70
5, 339840, Note_off_c, 3, 67, 64
5, 339840, Note_off_c, 3, 71, 64
5, 340564, Note_on_c, 3, 59, 55
5, 340804, Note_off_c, 3, 59, 64
5, 340804, Note_on_c, 3, 66, 55
5, 341044, Note_off_c, 3, 66, 64
5, 341044, Note_on_c, 3, 71, 91
5, 341280, Note_on_c, 3, 66, 55
5, 341284, Note_off_c, 3, 71, 64
5, 341520, Note_off_c, 3, 66, 64
5, 341520, Note_on_c, 3, 59, 55
5, 341760, Note_off_c, 3, 59, 64
5, 341760, Note_on_c, 3, 66, 55
5, 342000, Note_off_c, 3, 66, 64
5, 342000, Note_on_c, 3, 71, 91
5, 342240, Note_off_c, 3, 71, 64
5, 342244, Note_on_c, 3, 62, 55
5, 342484, Note_off_c, 3, 62, 64
5, 342484, Note_on_c, 3, 66, 55
5, 342724, Note_off_c, 3, 66, 64
5, 342724, Note_on_c, 3, 71, 91
5, 342960, Note_on_c, 3, 66, 55
5, 342964, Note_off_c, 3, 71, 64
5, 343200, Note_off_c, 3, 66, 64
5, 343200, Note_on_c, 3, 62, 55
5, 343440, Note_off_c, 3, 62, 64
5, 343440, Note_on_c, 3, 66, 55
5, 343680, Note_off_c, 3, 66, 64
5, 343680, Note_on_c, 3, 71, 91
5, 343920, Note_off_c, 3, 71, 64
5, 344160, Note_on_c, 3, 66, 74
5, 344400, Note_off_c, 3, 66, 64
5, 344400, Note_on_c, 3, 71, 75
5, 344640, Note_off_c, 3, 71, 64
5, 344640, Note_on_c, 3, 78, 65
5, 344880, Note_off_c, 3, 78, 64
5, 344880, Note_on_c, 3, 71, 80
5, 345120, Note_off_c, 3, 71, 64
5, 345120, Note_on_c, 3, 76, 80
5, 345360, Note_off_c, 3, 76, 64
5, 345360, Note_on_c, 3, 71, 80
5, 345600, Note_off_c, 3, 71, 64
5, 345600, Note_on_c, 3, 76, 60
5, 345840, Note_off_c, 3, 76, 64
5, 345840, Note_on_c, 3, 66, 85
5, 346080, Note_off_c, 3, 66, 64
5, 346080, Note_on_c, 3, 71, 94
5, 346320, Note_off_c, 3, 71, 64
5, 346320, Note_on_c, 3, 74, 94
5, 346560, Note_off_c, 3, 74, 64
5, 346560, Note_on_c, 3, 76, 94
5, 346800, Note_off_c, 3, 76, 64
5, 402240, Control_c, 3, 1, 0
5, 416640, Control_c, 3, 1, 0
5, 423840, Control_c, 3, 1, 0
5, 423840, End_track
6, 0, Start_track
6, 0, Title_t, "Bass"
6, 0, MIDI_port, 0
6, 0, Channel_prefix, 4
6, 0, Control_c, 4, 7, 119
6, 0, Control_c, 4, 10, 64
6, 0, Program_c, 4, 33
6, 0, Note_on_c, 4, 41, 100
6, 1920, Note_off_c, 4, 41, 80
6, 1920, Note_on_c, 4, 38, 100
6, 3840, Note_off_c, 4, 38, 80
6, 3840, Note_on_c, 4, 36, 100
6, 7680, Note_off_c, 4, 36, 80
6, 7680, Note_on_c, 4, 41, 100
6, 9600, Note_off_c, 4, 41, 80
6, 9600, Note_on_c, 4, 38, 100
6, 11520, Note_off_c, 4, 38, 80
6, 11520, Note_on_c, 4, 36, 100
6, 15360, Note_off_c, 4, 36, 80
6, 15360, Note_on_c, 4, 38, 100
6, 17280, Note_off_c, 4, 38, 80
6, 17280, Note_on_c, 4, 40, 100
6, 17993, Note_off_c, 4, 40, 80
6, 18000, Note_on_c, 4, 41, 100
6, 18720, Note_on_c, 4, 45, 100
6, 18727, Note_off_c, 4, 41, 80
6, 19200, Note_off_c, 4, 45, 80
6, 19200, Note_on_c, 4, 34, 100
6, 21120, Note_off_c, 4, 34, 80
6, 21120, Note_on_c, 4, 31, 100
6, 21840, Note_off_c, 4, 31, 80
6, 21840, Note_on_c, 4, 33, 100
6, 22560, Note_off_c, 4, 33, 80
6, 22560, Note_on_c, 4, 36, 100
6, 23040, Note_off_c, 4, 36, 80
6, 23040, Note_on_c, 4, 38, 100
6, 24960, Note_off_c, 4, 38, 80
6, 24960, Note_on_c, 4, 40, 100
6, 25673, Note_off_c, 4, 40, 80
6, 25680, Note_on_c, 4, 41, 100
6, 26400, Note_on_c, 4, 45, 100
6, 26407, Note_off_c, 4, 41, 80
6, 26880, Note_off_c, 4, 45, 80
6, 26880, Note_on_c, 4, 34, 100
6, 28800, Note_off_c, 4, 34, 80
6, 28800, Note_on_c, 4, 31, 100
6, 29520, Note_off_c, 4, 31, 80
6, 29520, Note_on_c, 4, 33, 100
6, 30720, Note_on_c, 4, 38, 100
6, 30727, Note_off_c, 4, 33, 80
6, 30960, Note_off_c, 4, 38, 64
6, 30960, Note_on_c, 4, 26, 100
6, 31920, Note_off_c, 4, 26, 64
6, 31920, Note_on_c, 4, 28, 100
6, 32160, Note_off_c, 4, 28, 64
6, 32400, Note_on_c, 4, 29, 100
6, 32880, Note_off_c, 4, 29, 64
6, 32880, Note_on_c, 4, 31, 100
6, 33120, Note_off_c, 4, 31, 64
6, 33120, Note_on_c, 4, 33, 100
6, 33360, Note_off_c, 4, 33, 64
6, 33360, Note_on_c, 4, 36, 100
6, 34080, Note_on_c, 4, 40, 100
6, 34087, Note_off_c, 4, 36, 64
6, 34320, Note_off_c, 4, 40, 64
6, 34320, Note_on_c, 4, 36, 100
6, 34560, Note_off_c, 4, 36, 64
6, 34560, Note_on_c, 4, 38, 100
6, 34800, Note_off_c, 4, 38, 64
6, 34800, Note_on_c, 4, 26, 100
6, 35280, Note_off_c, 4, 26, 64
6, 35280, Note_on_c, 4, 28, 100
6, 35520, Note_off_c, 4, 28, 64
6, 35520, Note_on_c, 4, 29, 100
6, 35760, Note_off_c, 4, 29, 64
6, 35760, Note_on_c, 4, 31, 100
6, 36000, Note_off_c, 4, 31, 64
6, 36000, Note_on_c, 4, 33, 100
6, 36240, Note_off_c, 4, 33, 64
6, 36240, Note_on_c, 4, 36, 100
6, 36720, Note_off_c, 4, 36, 64
6, 36720, Note_on_c, 4, 40, 100
6, 36960, Note_off_c, 4, 40, 64
6, 36960, Note_on_c, 4, 31, 100
6, 37920, Note_off_c, 4, 31, 64
6, 37920, Note_on_c, 4, 31, 100
6, 38040, Note_off_c, 4, 31, 64
6, 38040, Note_on_c, 4, 33, 100
6, 38160, Note_off_c, 4, 33, 64
6, 38160, Note_on_c, 4, 36, 100
6, 38400, Note_on_c, 4, 38, 100
6, 38407, Note_off_c, 4, 36, 64
6, 38640, Note_off_c, 4, 38, 64
6, 38640, Note_on_c, 4, 26, 100
6, 39600, Note_off_c, 4, 26, 64
6, 39600, Note_on_c, 4, 28, 100
6, 39840, Note_off_c, 4, 28, 64
6, 40080, Note_on_c, 4, 29, 100
6, 40560, Note_off_c, 4, 29, 64
6, 40560, Note_on_c, 4, 31, 100
6, 40800, Note_off_c, 4, 31, 64
6, 40800, Note_on_c, 4, 33, 100
6, 41040, Note_off_c, 4, 33, 64
6, 41040, Note_on_c, 4, 36, 100
6, 41760, Note_on_c, 4, 40, 100
6, 41767, Note_off_c, 4, 36, 64
6, 42000, Note_off_c, 4, 40, 64
6, 42000, Note_on_c, 4, 36, 100
6, 42240, Note_off_c, 4, 36, 64
6, 42240, Note_on_c, 4, 38, 100
6, 42480, Note_off_c, 4, 38, 64
6, 42480, Note_on_c, 4, 26, 100
6, 42960, Note_off_c, 4, 26, 64
6, 42960, Note_on_c, 4, 28, 100
6, 43200, Note_off_c, 4, 28, 64
6, 43200, Note_on_c, 4, 29, 100
6, 43440, Note_off_c, 4, 29, 64
6, 43440, Note_on_c, 4, 31, 100
6, 43680, Note_off_c, 4, 31, 64
6, 43680, Note_on_c, 4, 33, 100
6, 43920, Note_off_c, 4, 33, 64
6, 43920, Note_on_c, 4, 36, 100
6, 46080, Note_on_c, 4, 38, 100
6, 46087, Note_off_c, 4, 36, 64
6, 46320, Note_off_c, 4, 38, 64
6, 46320, Note_on_c, 4, 26, 100
6, 47280, Note_off_c, 4, 26, 64
6, 47280, Note_on_c, 4, 28, 100
6, 47520, Note_off_c, 4, 28, 64
6, 47760, Note_on_c, 4, 29, 100
6, 48240, Note_off_c, 4, 29, 64
6, 48240, Note_on_c, 4, 31, 100
6, 48480, Note_off_c, 4, 31, 64
6, 48480, Note_on_c, 4, 33, 100
6, 48720, Note_off_c, 4, 33, 64
6, 48720, Note_on_c, 4, 36, 100
6, 49440, Note_on_c, 4, 40, 100
6, 49447, Note_off_c, 4, 36, 64
6, 49680, Note_off_c, 4, 40, 64
6, 49680, Note_on_c, 4, 36, 100
6, 49920, Note_off_c, 4, 36, 64
6, 49920, Note_on_c, 4, 38, 100
6, 50160, Note_off_c, 4, 38, 64
6, 50160, Note_on_c, 4, 26, 100
6, 50640, Note_off_c, 4, 26, 64
6, 50640, Note_on_c, 4, 28, 100
6, 50880, Note_off_c, 4, 28, 64
6, 50880, Note_on_c, 4, 29, 100
6, 51120, Note_off_c, 4, 29, 64
6, 51120, Note_on_c, 4, 31, 100
6, 51360, Note_off_c, 4, 31, 64
6, 51360, Note_on_c, 4, 33, 100
6, 51600, Note_off_c, 4, 33, 64
6, 51600, Note_on_c, 4, 36, 100
6, 52080, Note_off_c, 4, 36, 64
6, 52080, Note_on_c, 4, 40, 100
6, 52320, Note_off_c, 4, 40, 64
6, 52320, Note_on_c, 4, 31, 100
6, 53280, Note_off_c, 4, 31, 64
6, 53280, Note_on_c, 4, 31, 100
6, 53400, Note_off_c, 4, 31, 64
6, 53400, Note_on_c, 4, 33, 100
6, 53520, Note_off_c, 4, 33, 64
6, 53520, Note_on_c, 4, 36, 100
6, 53760, Note_on_c, 4, 38, 100
6, 53767, Note_off_c, 4, 36, 64
6, 54000, Note_off_c, 4, 38, 64
6, 54000, Note_on_c, 4, 26, 100
6, 54960, Note_off_c, 4, 26, 64
6, 54960, Note_on_c, 4, 28, 100
6, 55200, Note_off_c, 4, 28, 64
6, 55440, Note_on_c, 4, 29, 100
6, 55920, Note_off_c, 4, 29, 64
6, 55920, Note_on_c, 4, 31, 100
6, 56160, Note_off_c, 4, 31, 64
6, 56160, Note_on_c, 4, 33, 100
6, 56400, Note_off_c, 4, 33, 64
6, 56400, Note_on_c, 4, 36, 100
6, 57120, Note_on_c, 4, 40, 100
6, 57127, Note_off_c, 4, 36, 64
6, 57360, Note_off_c, 4, 40, 64
6, 57360, Note_on_c, 4, 36, 100
6, 57600, Note_off_c, 4, 36, 64
6, 57600, Note_on_c, 4, 38, 100
6, 57840, Note_off_c, 4, 38, 64
6, 57840, Note_on_c, 4, 26, 100
6, 58320, Note_off_c, 4, 26, 64
6, 58320, Note_on_c, 4, 28, 100
6, 58560, Note_off_c, 4, 28, 64
6, 58560, Note_on_c, 4, 29, 100
6, 58800, Note_off_c, 4, 29, 64
6, 58800, Note_on_c, 4, 31, 100
6, 59040, Note_off_c, 4, 31, 64
6, 59040, Note_on_c, 4, 33, 100
6, 59280, Note_off_c, 4, 33, 64
6, 59280, Note_on_c, 4, 36, 100
6, 61440, Note_on_c, 4, 43, 100
6, 61447, Note_off_c, 4, 36, 64
6, 61680, Note_off_c, 4, 43, 64
6, 61680, Note_on_c, 4, 31, 100
6, 62640, Note_off_c, 4, 31, 64
6, 62640, Note_on_c, 4, 33, 100
6, 62880, Note_off_c, 4, 33, 64
6, 63120, Note_on_c, 4, 34, 100
6, 63600, Note_off_c, 4, 34, 64
6, 63600, Note_on_c, 4, 36, 100
6, 63840, Note_off_c, 4, 36, 64
6, 63840, Note_on_c, 4, 38, 100
6, 64080, Note_off_c, 4, 38, 64
6, 64080, Note_on_c, 4, 41, 100
6, 64800, Note_on_c, 4, 45, 100
6, 64807, Note_off_c, 4, 41, 64
6, 65040, Note_off_c, 4, 45, 64
6, 65040, Note_on_c, 4, 41, 100
6, 65280, Note_off_c, 4, 41, 64
6, 65280, Note_on_c, 4, 43, 100
6, 65520, Note_off_c, 4, 43, 64
6, 65520, Note_on_c, 4, 31, 100
6, 66000, Note_off_c, 4, 31, 64
6, 66000, Note_on_c, 4, 33, 100
6, 66240, Note_off_c, 4, 33, 64
6, 66240, Note_on_c, 4, 34, 100
6, 66480, Note_off_c, 4, 34, 64
6, 66480, Note_on_c, 4, 36, 100
6, 66720, Note_off_c, 4, 36, 64
6, 66720, Note_on_c, 4, 38, 100
6, 66960, Note_off_c, 4, 38, 64
6, 66960, Note_on_c, 4, 41, 100
6, 67440, Note_off_c, 4, 41, 64
6, 67440, Note_on_c, 4, 45, 100
6, 67680, Note_off_c, 4, 45, 64
6, 67680, Note_on_c, 4, 36, 100
6, 68640, Note_off_c, 4, 36, 64
6, 68640, Note_on_c, 4, 36, 100
6, 68760, Note_off_c, 4, 36, 64
6, 68760, Note_on_c, 4, 38, 100
6, 68880, Note_off_c, 4, 38, 64
6, 68880, Note_on_c, 4, 41, 100
6, 69120, Note_on_c, 4, 43, 100
6, 69127, Note_off_c, 4, 41, 64
6, 69360, Note_off_c, 4, 43, 64
6, 69360, Note_on_c, 4, 31, 100
6, 70320, Note_off_c, 4, 31, 64
6, 70320, Note_on_c, 4, 33, 100
6, 70560, Note_off_c, 4, 33, 64
6, 70800, Note_on_c, 4, 34, 100
6, 71280, Note_off_c, 4, 34, 64
6, 71280, Note_on_c, 4, 36, 100
6, 71520, Note_off_c, 4, 36, 64
6, 71520, Note_on_c, 4, 38, 100
6, 71760, Note_off_c, 4, 38, 64
6, 71760, Note_on_c, 4, 41, 100
6, 72480, Note_on_c, 4, 45, 100
6, 72487, Note_off_c, 4, 41, 64
6, 72720, Note_off_c, 4, 45, 64
6, 72720, Note_on_c, 4, 41, 100
6, 72960, Note_off_c, 4, 41, 64
6, 72960, Note_on_c, 4, 43, 100
6, 73200, Note_off_c, 4, 43, 64
6, 73200, Note_on_c, 4, 31, 100
6, 73680, Note_off_c, 4, 31, 64
6, 73680, Note_on_c, 4, 33, 100
6, 73920, Note_off_c, 4, 33, 64
6, 73920, Note_on_c, 4, 34, 100
6, 74160, Note_off_c, 4, 34, 64
6, 74160, Note_on_c, 4, 36, 100
6, 74400, Note_off_c, 4, 36, 64
6, 74400, Note_on_c, 4, 38, 100
6, 74640, Note_off_c, 4, 38, 64
6, 74640, Note_on_c, 4, 41, 100
6, 76800, Note_on_c, 4, 38, 100
6, 76807, Note_off_c, 4, 41, 64
6, 78473, Note_off_c, 4, 38, 64
6, 78480, Note_on_c, 4, 34, 100
6, 79440, Note_off_c, 4, 34, 64
6, 79440, Note_on_c, 4, 31, 100
6, 80640, Note_on_c, 4, 36, 100
6, 80647, Note_off_c, 4, 31, 64
6, 81600, Note_off_c, 4, 36, 64
6, 81600, Note_on_c, 4, 33, 100
6, 82313, Note_off_c, 4, 33, 64
6, 82320, Note_on_c, 4, 34, 100
6, 82800, Note_off_c, 4, 34, 64
6, 82800, Note_on_c, 4, 36, 100
6, 83040, Note_off_c, 4, 36, 64
6, 83040, Note_on_c, 4, 29, 100
6, 84480, Note_off_c, 4, 29, 64
6, 84480, Note_on_c, 4, 26, 100
6, 86153, Note_off_c, 4, 26, 64
6, 86160, Note_on_c, 4, 34, 100
6, 87120, Note_off_c, 4, 34, 64
6, 87120, Note_on_c, 4, 31, 100
6, 88320, Note_on_c, 4, 36, 100
6, 88327, Note_off_c, 4, 31, 64
6, 89280, Note_off_c, 4, 36, 64
6, 89280, Note_on_c, 4, 33, 100
6, 89993, Note_off_c, 4, 33, 64
6, 90000, Note_on_c, 4, 36, 100
6, 92160, Note_on_c, 4, 26, 100
6, 92167, Note_off_c, 4, 36, 64
6, 93833, Note_off_c, 4, 26, 64
6, 93840, Note_on_c, 4, 34, 100
6, 94800, Note_off_c, 4, 34, 64
6, 94800, Note_on_c, 4, 31, 100
6, 96000, Note_on_c, 4, 36, 100
6, 96007, Note_off_c, 4, 31, 64
6, 96960, Note_off_c, 4, 36, 64
6, 96960, Note_on_c, 4, 33, 100
6, 97673, Note_off_c, 4, 33, 64
6, 97680, Note_on_c, 4, 34, 100
6, 99840, Note_on_c, 4, 38, 100
6, 99847, Note_off_c, 4, 34, 64
6, 101513, Note_off_c, 4, 38, 64
6, 101520, Note_on_c, 4, 34, 100
6, 102480, Note_off_c, 4, 34, 64
6, 102480, Note_on_c, 4, 36, 100
6, 103680, Note_on_c, 4, 38, 100
6, 103687, Note_off_c, 4, 36, 64
6, 104640, Note_off_c, 4, 38, 64
6, 104640, Note_on_c, 4, 34, 100
6, 105353, Note_off_c, 4, 34, 64
6, 105360, Note_on_c, 4, 39, 100
6, 107527, Note_off_c, 4, 39, 64
6, 109200, Note_on_c, 4, 41, 100
6, 111120, Note_off_c, 4, 41, 80
6, 111120, Note_on_c, 4, 38, 100
6, 113040, Note_off_c, 4, 38, 80
6, 113040, Note_on_c, 4, 36, 100
6, 116880, Note_off_c, 4, 36, 80
6, 116880, Note_on_c, 4, 41, 100
6, 118800, Note_off_c, 4, 41, 80
6, 118800, Note_on_c, 4, 38, 100
6, 120720, Note_off_c, 4, 38, 80
6, 120720, Note_on_c, 4, 36, 100
6, 124560, Note_off_c, 4, 36, 80
6, 124560, Note_on_c, 4, 38, 100
6, 124800, Note_off_c, 4, 38, 64
6, 124800, Note_on_c, 4, 26, 100
6, 125760, Note_off_c, 4, 26, 64
6, 125760, Note_on_c, 4, 28, 100
6, 126000, Note_off_c, 4, 28, 64
6, 126240, Note_on_c, 4, 29, 100
6, 126720, Note_off_c, 4, 29, 64
6, 126720, Note_on_c, 4, 31, 100
6, 126960, Note_off_c, 4, 31, 64
6, 126960, Note_on_c, 4, 33, 100
6, 127200, Note_off_c, 4, 33, 64
6, 127200, Note_on_c, 4, 36, 100
6, 127920, Note_on_c, 4, 40, 100
6, 127927, Note_off_c, 4, 36, 64
6, 128160, Note_off_c, 4, 40, 64
6, 128160, Note_on_c, 4, 36, 100
6, 128400, Note_off_c, 4, 36, 64
6, 128400, Note_on_c, 4, 38, 100
6, 128640, Note_off_c, 4, 38, 64
6, 128640, Note_on_c, 4, 26, 100
6, 129120, Note_off_c, 4, 26, 64
6, 129120, Note_on_c, 4, 28, 100
6, 129360, Note_off_c, 4, 28, 64
6, 129360, Note_on_c, 4, 29, 100
6, 129600, Note_off_c, 4, 29, 64
6, 129600, Note_on_c, 4, 31, 100
6, 129840, Note_off_c, 4, 31, 64
6, 129840, Note_on_c, 4, 33, 100
6, 130080, Note_off_c, 4, 33, 64
6, 130080, Note_on_c, 4, 36, 100
6, 130560, Note_off_c, 4, 36, 64
6, 130560, Note_on_c, 4, 40, 100
6, 130800, Note_off_c, 4, 40, 64
6, 130800, Note_on_c, 4, 31, 100
6, 131760, Note_off_c, 4, 31, 64
6, 131760, Note_on_c, 4, 33, 100
6, 132000, Note_off_c, 4, 33, 64
6, 132000, Note_on_c, 4, 36, 100
6, 132240, Note_on_c, 4, 38, 100
6, 132247, Note_off_c, 4, 36, 64
6, 132480, Note_off_c, 4, 38, 64
6, 132480, Note_on_c, 4, 26, 100
6, 133440, Note_off_c, 4, 26, 64
6, 133440, Note_on_c, 4, 28, 100
6, 133680, Note_off_c, 4, 28, 64
6, 133920, Note_on_c, 4, 29, 100
6, 134400, Note_off_c, 4, 29, 64
6, 134400, Note_on_c, 4, 31, 100
6, 134640, Note_off_c, 4, 31, 64
6, 134640, Note_on_c, 4, 33, 100
6, 134880, Note_off_c, 4, 33, 64
6, 134880, Note_on_c, 4, 36, 100
6, 135600, Note_on_c, 4, 40, 100
6, 135607, Note_off_c, 4, 36, 64
6, 135840, Note_off_c, 4, 40, 64
6, 135840, Note_on_c, 4, 36, 100
6, 136080, Note_off_c, 4, 36, 64
6, 136080, Note_on_c, 4, 38, 100
6, 136320, Note_off_c, 4, 38, 64
6, 136320, Note_on_c, 4, 26, 100
6, 136800, Note_off_c, 4, 26, 64
6, 136800, Note_on_c, 4, 28, 100
6, 137040, Note_off_c, 4, 28, 64
6, 137040, Note_on_c, 4, 29, 100
6, 137280, Note_off_c, 4, 29, 64
6, 137280, Note_on_c, 4, 31, 100
6, 137520, Note_off_c, 4, 31, 64
6, 137520, Note_on_c, 4, 33, 100
6, 137760, Note_off_c, 4, 33, 64
6, 137760, Note_on_c, 4, 36, 100
6, 139200, Note_off_c, 4, 36, 64
6, 139200, Note_on_c, 4, 31, 100
6, 139920, Note_on_c, 4, 33, 100
6, 139927, Note_off_c, 4, 31, 64
6, 140633, Note_off_c, 4, 33, 64
6, 140640, Note_on_c, 4, 31, 100
6, 140880, Note_off_c, 4, 31, 64
6, 140880, Note_on_c, 4, 33, 100
6, 141113, Note_off_c, 4, 33, 64
6, 141360, Note_on_c, 4, 36, 100
6, 141600, Note_off_c, 4, 36, 64
6, 141600, Note_on_c, 4, 38, 100
6, 142320, Note_on_c, 4, 29, 100
6, 142327, Note_off_c, 4, 38, 64
6, 142560, Note_off_c, 4, 29, 64
6, 142560, Note_on_c, 4, 31, 100
6, 143280, Note_off_c, 4, 31, 64
6, 143280, Note_on_c, 4, 31, 100
6, 143520, Note_off_c, 4, 31, 64
6, 143520, Note_on_c, 4, 32, 100
6, 143760, Note_off_c, 4, 32, 64
6, 143760, Note_on_c, 4, 33, 100
6, 144473, Note_off_c, 4, 33, 64
6, 144480, Note_on_c, 4, 31, 100
6, 144720, Note_off_c, 4, 31, 64
6, 144720, Note_on_c, 4, 33, 100
6, 144960, Note_off_c, 4, 33, 64
6, 145200, Note_on_c, 4, 36, 100
6, 145440, Note_off_c, 4, 36, 64
6, 145440, Note_on_c, 4, 38, 100
6, 147600, Note_on_c, 4, 33, 100
6, 147607, Note_off_c, 4, 38, 64
6, 148313, Note_off_c, 4, 33, 64
6, 148320, Note_on_c, 4, 31, 100
6, 148560, Note_off_c, 4, 31, 64
6, 148560, Note_on_c, 4, 33, 100
6, 148800, Note_off_c, 4, 33, 64
6, 149040, Note_on_c, 4, 36, 100
6, 149280, Note_off_c, 4, 36, 64
6, 149280, Note_on_c, 4, 38, 100
6, 150000, Note_on_c, 4, 29, 100
6, 150007, Note_off_c, 4, 38, 64
6, 150240, Note_off_c, 4, 29, 64
6, 150240, Note_on_c, 4, 31, 100
6, 150960, Note_off_c, 4, 31, 64
6, 150960, Note_on_c, 4, 31, 100
6, 151200, Note_off_c, 4, 31, 64
6, 151200, Note_on_c, 4, 32, 100
6, 151440, Note_off_c, 4, 32, 64
6, 151440, Note_on_c, 4, 33, 100
6, 152153, Note_off_c, 4, 33, 64
6, 152160, Note_on_c, 4, 43, 100
6, 152180, Pitch_bend_c, 4, 10192
6, 152200, Pitch_bend_c, 4, 12192
6, 152220, Pitch_bend_c, 4, 14192
6, 152240, Pitch_bend_c, 4, 16192
6, 152400, Note_off_c, 4, 43, 64
6, 152400, Pitch_bend_c, 4, 8192
6, 152400, Note_on_c, 4, 43, 100
6, 152640, Note_off_c, 4, 43, 64
6, 152880, Note_on_c, 4, 38, 100
6, 152900, Pitch_bend_c, 4, 10192
6, 152920, Pitch_bend_c, 4, 12192
6, 153120, Note_off_c, 4, 38, 64
6, 153120, Pitch_bend_c, 4, 8192
6, 153120, Note_on_c, 4, 38, 100
6, 155280, Note_on_c, 4, 33, 100
6, 155287, Note_off_c, 4, 38, 64
6, 155993, Note_off_c, 4, 33, 64
6, 156000, Note_on_c, 4, 31, 100
6, 156240, Note_off_c, 4, 31, 64
6, 156240, Note_on_c, 4, 33, 100
6, 156473, Note_off_c, 4, 33, 64
6, 156720, Note_on_c, 4, 36, 100
6, 156960, Note_off_c, 4, 36, 64
6, 156960, Note_on_c, 4, 38, 100
6, 157680, Note_on_c, 4, 29, 100
6, 157687, Note_off_c, 4, 38, 64
6, 157920, Note_off_c, 4, 29, 64
6, 157920, Note_on_c, 4, 31, 100
6, 158640, Note_off_c, 4, 31, 64
6, 158640, Note_on_c, 4, 31, 100
6, 158880, Note_off_c, 4, 31, 64
6, 158880, Note_on_c, 4, 32, 100
6, 159120, Note_off_c, 4, 32, 64
6, 159120, Note_on_c, 4, 33, 100
6, 159833, Note_off_c, 4, 33, 64
6, 159840, Note_on_c, 4, 31, 100
6, 160080, Note_off_c, 4, 31, 64
6, 160080, Note_on_c, 4, 33, 100
6, 160320, Note_off_c, 4, 33, 64
6, 160560, Note_on_c, 4, 36, 100
6, 160800, Note_off_c, 4, 36, 64
6, 160800, Note_on_c, 4, 38, 100
6, 162960, Note_on_c, 4, 33, 100
6, 162967, Note_off_c, 4, 38, 64
6, 163673, Note_off_c, 4, 33, 64
6, 163680, Note_on_c, 4, 31, 100
6, 163920, Note_off_c, 4, 31, 64
6, 163920, Note_on_c, 4, 33, 100
6, 164160, Note_off_c, 4, 33, 64
6, 164400, Note_on_c, 4, 36, 100
6, 164640, Note_off_c, 4, 36, 64
6, 164640, Note_on_c, 4, 38, 100
6, 165360, Note_on_c, 4, 29, 100
6, 165367, Note_off_c, 4, 38, 64
6, 165600, Note_off_c, 4, 29, 64
6, 165600, Note_on_c, 4, 31, 100
6, 166320, Note_off_c, 4, 31, 64
6, 166320, Note_on_c, 4, 31, 100
6, 166560, Note_off_c, 4, 31, 64
6, 166560, Note_on_c, 4, 32, 100
6, 166800, Note_off_c, 4, 32, 64
6, 166800, Note_on_c, 4, 33, 100
6, 167513, Note_off_c, 4, 33, 64
6, 167520, Note_on_c, 4, 43, 100
6, 167540, Pitch_bend_c, 4, 10192
6, 167560, Pitch_bend_c, 4, 12192
6, 167580, Pitch_bend_c, 4, 14192
6, 167600, Pitch_bend_c, 4, 16192
6, 167760, Note_off_c, 4, 43, 64
6, 167760, Pitch_bend_c, 4, 8192
6, 167760, Note_on_c, 4, 43, 100
6, 168000, Note_off_c, 4, 43, 64
6, 168240, Note_on_c, 4, 38, 100
6, 168260, Pitch_bend_c, 4, 10192
6, 168280, Pitch_bend_c, 4, 12192
6, 168480, Note_off_c, 4, 38, 64
6, 168480, Pitch_bend_c, 4, 8192
6, 168480, Note_on_c, 4, 38, 100
6, 170640, Note_on_c, 4, 33, 100
6, 170647, Note_off_c, 4, 38, 64
6, 171353, Note_off_c, 4, 33, 64
6, 171360, Note_on_c, 4, 31, 100
6, 171600, Note_off_c, 4, 31, 64
6, 171600, Note_on_c, 4, 33, 100
6, 171833, Note_off_c, 4, 33, 64
6, 172080, Note_on_c, 4, 36, 100
6, 172320, Note_off_c, 4, 36, 64
6, 172320, Note_on_c, 4, 38, 100
6, 173040, Note_on_c, 4, 29, 100
6, 173047, Note_off_c, 4, 38, 64
6, 173280, Note_off_c, 4, 29, 64
6, 173280, Note_on_c, 4, 31, 100
6, 174000, Note_off_c, 4, 31, 64
6, 174000, Note_on_c, 4, 31, 100
6, 174240, Note_off_c, 4, 31, 64
6, 174240, Note_on_c, 4, 32, 100
6, 174480, Note_off_c, 4, 32, 64
6, 174480, Note_on_c, 4, 33, 100
6, 175193, Note_off_c, 4, 33, 64
6, 175200, Note_on_c, 4, 31, 100
6, 175440, Note_off_c, 4, 31, 64
6, 175440, Note_on_c, 4, 33, 100
6, 175680, Note_off_c, 4, 33, 64
6, 175920, Note_on_c, 4, 36, 100
6, 176160, Note_off_c, 4, 36, 64
6, 176160, Note_on_c, 4, 38, 100
6, 178320, Note_on_c, 4, 33, 100
6, 178327, Note_off_c, 4, 38, 64
6, 179033, Note_off_c, 4, 33, 64
6, 179040, Note_on_c, 4, 31, 100
6, 179280, Note_off_c, 4, 31, 64
6, 179280, Note_on_c, 4, 33, 100
6, 179520, Note_off_c, 4, 33, 64
6, 179760, Note_on_c, 4, 36, 100
6, 180000, Note_off_c, 4, 36, 64
6, 180000, Note_on_c, 4, 38, 100
6, 180720, Note_on_c, 4, 29, 100
6, 180727, Note_off_c, 4, 38, 64
6, 180960, Note_off_c, 4, 29, 64
6, 180960, Note_on_c, 4, 31, 100
6, 181680, Note_off_c, 4, 31, 64
6, 181680, Note_on_c, 4, 31, 100
6, 181920, Note_off_c, 4, 31, 64
6, 181920, Note_on_c, 4, 32, 100
6, 182160, Note_off_c, 4, 32, 64
6, 182160, Note_on_c, 4, 33, 100
6, 182873, Note_off_c, 4, 33, 64
6, 182880, Note_on_c, 4, 43, 100
6, 182900, Pitch_bend_c, 4, 10192
6, 182920, Pitch_bend_c, 4, 12192
6, 182940, Pitch_bend_c, 4, 14192
6, 182960, Pitch_bend_c, 4, 16192
6, 183120, Note_off_c, 4, 43, 64
6, 183120, Pitch_bend_c, 4, 8192
6, 183120, Note_on_c, 4, 43, 100
6, 183360, Note_off_c, 4, 43, 64
6, 183600, Note_on_c, 4, 38, 100
6, 183620, Pitch_bend_c, 4, 10192
6, 183640, Pitch_bend_c, 4, 12192
6, 183840, Note_off_c, 4, 38, 64
6, 183840, Pitch_bend_c, 4, 8192
6, 183840, Note_on_c, 4, 38, 100
6, 184800, Note_off_c, 4, 38, 64
6, 184800, Note_on_c, 4, 36, 100
6, 185040, Note_off_c, 4, 36, 64
6, 185040, Note_on_c, 4, 33, 100
6, 185280, Note_off_c, 4, 33, 64
6, 185520, Note_on_c, 4, 31, 100
6, 186000, Note_off_c, 4, 31, 64
6, 186000, Note_on_c, 4, 42, 100
6, 186713, Note_off_c, 4, 42, 64
6, 186717, Note_on_c, 4, 40, 100
6, 186957, Note_off_c, 4, 40, 64
6, 186957, Note_on_c, 4, 42, 100
6, 187190, Note_off_c, 4, 42, 64
6, 187437, Note_on_c, 4, 45, 100
6, 187677, Note_off_c, 4, 45, 64
6, 187677, Note_on_c, 4, 47, 100
6, 188397, Note_on_c, 4, 38, 100
6, 188404, Note_off_c, 4, 47, 64
6, 188637, Note_off_c, 4, 38, 64
6, 188637, Note_on_c, 4, 40, 100
6, 189357, Note_off_c, 4, 40, 64
6, 189357, Note_on_c, 4, 40, 100
6, 189597, Note_off_c, 4, 40, 64
6, 189597, Note_on_c, 4, 41, 100
6, 189837, Note_off_c, 4, 41, 64
6, 189837, Note_on_c, 4, 42, 100
6, 190550, Note_off_c, 4, 42, 64
6, 190557, Note_on_c, 4, 40, 100
6, 190797, Note_off_c, 4, 40, 64
6, 190797, Note_on_c, 4, 42, 100
6, 191037, Note_off_c, 4, 42, 64
6, 191277, Note_on_c, 4, 45, 100
6, 191517, Note_off_c, 4, 45, 64
6, 191517, Note_on_c, 4, 47, 100
6, 193680, Note_on_c, 4, 42, 100
6, 193684, Note_off_c, 4, 47, 64
6, 194393, Note_off_c, 4, 42, 64
6, 194400, Note_on_c, 4, 40, 100
6, 194640, Note_off_c, 4, 40, 64
6, 194640, Note_on_c, 4, 42, 100
6, 194880, Note_off_c, 4, 42, 64
6, 195120, Note_on_c, 4, 45, 100
6, 195360, Note_off_c, 4, 45, 64
6, 195360, Note_on_c, 4, 47, 100
6, 196080, Note_on_c, 4, 38, 100
6, 196087, Note_off_c, 4, 47, 64
6, 196320, Note_off_c, 4, 38, 64
6, 196320, Note_on_c, 4, 40, 100
6, 197040, Note_off_c, 4, 40, 64
6, 197040, Note_on_c, 4, 40, 100
6, 197280, Note_off_c, 4, 40, 64
6, 197280, Note_on_c, 4, 41, 100
6, 197520, Note_off_c, 4, 41, 64
6, 197520, Note_on_c, 4, 42, 100
6, 198233, Note_off_c, 4, 42, 64
6, 198240, Note_on_c, 4, 40, 100
6, 198260, Pitch_bend_c, 4, 10192
6, 198280, Pitch_bend_c, 4, 12192
6, 198300, Pitch_bend_c, 4, 14192
6, 198320, Pitch_bend_c, 4, 16192
6, 198480, Note_off_c, 4, 40, 64
6, 198480, Pitch_bend_c, 4, 8192
6, 198480, Note_on_c, 4, 40, 100
6, 198720, Note_off_c, 4, 40, 64
6, 198960, Note_on_c, 4, 35, 100
6, 198980, Pitch_bend_c, 4, 10192
6, 199000, Pitch_bend_c, 4, 12192
6, 199200, Note_off_c, 4, 35, 64
6, 199200, Pitch_bend_c, 4, 8192
6, 199200, Note_on_c, 4, 35, 100
6, 201360, Note_on_c, 4, 42, 100
6, 201367, Note_off_c, 4, 35, 64
6, 202073, Note_off_c, 4, 42, 64
6, 202077, Note_on_c, 4, 40, 100
6, 202317, Note_off_c, 4, 40, 64
6, 202317, Note_on_c, 4, 42, 100
6, 202550, Note_off_c, 4, 42, 64
6, 202797, Note_on_c, 4, 45, 100
6, 203037, Note_off_c, 4, 45, 64
6, 203037, Note_on_c, 4, 47, 100
6, 203757, Note_on_c, 4, 38, 100
6, 203764, Note_off_c, 4, 47, 64
6, 203997, Note_off_c, 4, 38, 64
6, 203997, Note_on_c, 4, 40, 100
6, 204717, Note_off_c, 4, 40, 64
6, 204717, Note_on_c, 4, 40, 100
6, 204957, Note_off_c, 4, 40, 64
6, 204957, Note_on_c, 4, 41, 100
6, 205197, Note_off_c, 4, 41, 64
6, 205197, Note_on_c, 4, 42, 100
6, 205910, Note_off_c, 4, 42, 64
6, 205917, Note_on_c, 4, 40, 100
6, 206157, Note_off_c, 4, 40, 64
6, 206157, Note_on_c, 4, 42, 100
6, 206397, Note_off_c, 4, 42, 64
6, 206637, Note_on_c, 4, 45, 100
6, 206877, Note_off_c, 4, 45, 64
6, 206877, Note_on_c, 4, 47, 100
6, 209040, Note_on_c, 4, 42, 100
6, 209044, Note_off_c, 4, 47, 64
6, 209753, Note_off_c, 4, 42, 64
6, 209760, Note_on_c, 4, 40, 100
6, 210000, Note_off_c, 4, 40, 64
6, 210000, Note_on_c, 4, 42, 100
6, 210240, Note_off_c, 4, 42, 64
6, 210480, Note_on_c, 4, 45, 100
6, 210720, Note_off_c, 4, 45, 64
6, 210720, Note_on_c, 4, 47, 100
6, 211440, Note_on_c, 4, 38, 100
6, 211447, Note_off_c, 4, 47, 64
6, 211680, Note_off_c, 4, 38, 64
6, 211680, Note_on_c, 4, 40, 100
6, 212400, Note_off_c, 4, 40, 64
6, 212400, Note_on_c, 4, 40, 100
6, 212640, Note_off_c, 4, 40, 64
6, 212640, Note_on_c, 4, 41, 100
6, 212880, Note_off_c, 4, 41, 64
6, 212880, Note_on_c, 4, 42, 100
6, 213593, Note_off_c, 4, 42, 64
6, 213600, Note_on_c, 4, 40, 100
6, 213620, Pitch_bend_c, 4, 10192
6, 213640, Pitch_bend_c, 4, 12192
6, 213660, Pitch_bend_c, 4, 14192
6, 213680, Pitch_bend_c, 4, 16192
6, 213840, Note_off_c, 4, 40, 64
6, 213840, Pitch_bend_c, 4, 8192
6, 213840, Note_on_c, 4, 40, 100
6, 214080, Note_off_c, 4, 40, 64
6, 214320, Note_on_c, 4, 35, 100
6, 214340, Pitch_bend_c, 4, 10192
6, 214360, Pitch_bend_c, 4, 12192
6, 214560, Note_off_c, 4, 35, 64
6, 214560, Pitch_bend_c, 4, 8192
6, 214560, Note_on_c, 4, 35, 100
6, 216720, Note_on_c, 4, 33, 100
6, 216727, Note_off_c, 4, 35, 64
6, 217433, Note_off_c, 4, 33, 64
6, 217440, Note_on_c, 4, 31, 100
6, 217680, Note_off_c, 4, 31, 64
6, 217680, Note_on_c, 4, 33, 100
6, 217913, Note_off_c, 4, 33, 64
6, 218160, Note_on_c, 4, 36, 100
6, 218400, Note_off_c, 4, 36, 64
6, 218400, Note_on_c, 4, 38, 100
6, 219120, Note_on_c, 4, 29, 100
6, 219127, Note_off_c, 4, 38, 64
6, 219360, Note_off_c, 4, 29, 64
6, 219360, Note_on_c, 4, 31, 100
6, 220080, Note_off_c, 4, 31, 64
6, 220080, Note_on_c, 4, 31, 100
6, 220320, Note_off_c, 4, 31, 64
6, 220320, Note_on_c, 4, 32, 100
6, 220560, Note_off_c, 4, 32, 64
6, 220560, Note_on_c, 4, 33, 100
6, 221273, Note_off_c, 4, 33, 64
6, 221280, Note_on_c, 4, 31, 100
6, 221520, Note_off_c, 4, 31, 64
6, 221520, Note_on_c, 4, 33, 100
6, 221760, Note_off_c, 4, 33, 64
6, 222000, Note_on_c, 4, 36, 100
6, 222240, Note_off_c, 4, 36, 64
6, 222240, Note_on_c, 4, 38, 100
6, 224400, Note_on_c, 4, 33, 100
6, 224407, Note_off_c, 4, 38, 64
6, 225113, Note_off_c, 4, 33, 64
6, 225120, Note_on_c, 4, 31, 100
6, 225360, Note_off_c, 4, 31, 64
6, 225360, Note_on_c, 4, 33, 100
6, 225600, Note_off_c, 4, 33, 64
6, 225840, Note_on_c, 4, 36, 100
6, 226080, Note_off_c, 4, 36, 64
6, 226080, Note_on_c, 4, 38, 100
6, 226800, Note_on_c, 4, 29, 100
6, 226807, Note_off_c, 4, 38, 64
6, 227040, Note_off_c, 4, 29, 64
6, 227040, Note_on_c, 4, 31, 100
6, 227760, Note_off_c, 4, 31, 64
6, 227760, Note_on_c, 4, 31, 100
6, 228000, Note_off_c, 4, 31, 64
6, 228000, Note_on_c, 4, 32, 100
6, 228240, Note_off_c, 4, 32, 64
6, 228240, Note_on_c, 4, 33, 100
6, 228953, Note_off_c, 4, 33, 64
6, 228960, Note_on_c, 4, 43, 100
6, 228980, Pitch_bend_c, 4, 10192
6, 229000, Pitch_bend_c, 4, 12192
6, 229020, Pitch_bend_c, 4, 14192
6, 229040, Pitch_bend_c, 4, 16192
6, 229200, Note_off_c, 4, 43, 64
6, 229200, Pitch_bend_c, 4, 8192
6, 229200, Note_on_c, 4, 43, 100
6, 229440, Note_off_c, 4, 43, 64
6, 229680, Note_on_c, 4, 38, 100
6, 229700, Pitch_bend_c, 4, 10192
6, 229720, Pitch_bend_c, 4, 12192
6, 229920, Note_off_c, 4, 38, 64
6, 229920, Pitch_bend_c, 4, 8192
6, 229920, Note_on_c, 4, 38, 100
6, 232080, Note_on_c, 4, 33, 100
6, 232087, Note_off_c, 4, 38, 64
6, 232793, Note_off_c, 4, 33, 64
6, 232800, Note_on_c, 4, 31, 100
6, 233040, Note_off_c, 4, 31, 64
6, 233040, Note_on_c, 4, 33, 100
6, 233273, Note_off_c, 4, 33, 64
6, 233520, Note_on_c, 4, 36, 100
6, 233760, Note_off_c, 4, 36, 64
6, 233760, Note_on_c, 4, 38, 100
6, 234480, Note_on_c, 4, 29, 100
6, 234487, Note_off_c, 4, 38, 64
6, 234720, Note_off_c, 4, 29, 64
6, 234720, Note_on_c, 4, 31, 100
6, 235440, Note_off_c, 4, 31, 64
6, 235440, Note_on_c, 4, 31, 100
6, 235680, Note_off_c, 4, 31, 64
6, 235680, Note_on_c, 4, 32, 100
6, 235920, Note_off_c, 4, 32, 64
6, 235920, Note_on_c, 4, 33, 100
6, 236633, Note_off_c, 4, 33, 64
6, 236640, Note_on_c, 4, 31, 100
6, 236880, Note_off_c, 4, 31, 64
6, 236880, Note_on_c, 4, 33, 100
6, 237120, Note_off_c, 4, 33, 64
6, 237360, Note_on_c, 4, 36, 100
6, 237600, Note_off_c, 4, 36, 64
6, 237600, Note_on_c, 4, 38, 100
6, 239760, Note_on_c, 4, 33, 100
6, 239767, Note_off_c, 4, 38, 64
6, 240473, Note_off_c, 4, 33, 64
6, 240480, Note_on_c, 4, 31, 100
6, 240720, Note_off_c, 4, 31, 64
6, 240720, Note_on_c, 4, 33, 100
6, 240960, Note_off_c, 4, 33, 64
6, 241200, Note_on_c, 4, 36, 100
6, 241440, Note_off_c, 4, 36, 64
6, 241440, Note_on_c, 4, 38, 100
6, 242160, Note_on_c, 4, 29, 100
6, 242167, Note_off_c, 4, 38, 64
6, 242400, Note_off_c, 4, 29, 64
6, 242400, Note_on_c, 4, 31, 100
6, 243120, Note_off_c, 4, 31, 64
6, 243120, Note_on_c, 4, 31, 100
6, 243360, Note_off_c, 4, 31, 64
6, 243360, Note_on_c, 4, 32, 100
6, 243600, Note_off_c, 4, 32, 64
6, 243600, Note_on_c, 4, 33, 100
6, 244313, Note_off_c, 4, 33, 64
6, 244320, Note_on_c, 4, 43, 100
6, 244340, Pitch_bend_c, 4, 10192
6, 244360, Pitch_bend_c, 4, 12192
6, 244380, Pitch_bend_c, 4, 14192
6, 244400, Pitch_bend_c, 4, 16192
6, 244560, Note_off_c, 4, 43, 64
6, 244560, Pitch_bend_c, 4, 8192
6, 244560, Note_on_c, 4, 43, 100
6, 244800, Note_off_c, 4, 43, 64
6, 245040, Note_on_c, 4, 38, 100
6, 245060, Pitch_bend_c, 4, 10192
6, 245080, Pitch_bend_c, 4, 12192
6, 245280, Note_off_c, 4, 38, 64
6, 245280, Pitch_bend_c, 4, 8192
6, 245280, Note_on_c, 4, 38, 100
6, 246240, Note_off_c, 4, 38, 64
6, 246240, Note_on_c, 4, 36, 100
6, 246480, Note_off_c, 4, 36, 64
6, 246480, Note_on_c, 4, 33, 100
6, 246720, Note_off_c, 4, 33, 64
6, 246960, Note_on_c, 4, 31, 100
6, 247193, Note_off_c, 4, 31, 64
6, 247200, Note_on_c, 4, 30, 100
6, 248160, Note_off_c, 4, 30, 64
6, 248160, Note_on_c, 4, 28, 100
6, 248400, Note_off_c, 4, 28, 64
6, 248400, Note_on_c, 4, 30, 100
6, 248633, Note_off_c, 4, 30, 64
6, 248880, Note_on_c, 4, 33, 100
6, 249120, Note_off_c, 4, 33, 64
6, 249120, Note_on_c, 4, 35, 100
6, 249840, Note_on_c, 4, 38, 100
6, 249847, Note_off_c, 4, 35, 64
6, 250080, Note_off_c, 4, 38, 64
6, 250080, Note_on_c, 4, 40, 100
6, 250800, Note_off_c, 4, 40, 64
6, 250800, Note_on_c, 4, 28, 100
6, 251040, Note_off_c, 4, 28, 64
6, 251040, Note_on_c, 4, 29, 100
6, 251280, Note_off_c, 4, 29, 64
6, 251280, Note_on_c, 4, 30, 100
6, 251993, Note_off_c, 4, 30, 64
6, 252000, Note_on_c, 4, 28, 100
6, 252240, Note_off_c, 4, 28, 64
6, 252240, Note_on_c, 4, 30, 100
6, 252480, Note_off_c, 4, 30, 64
6, 252720, Note_on_c, 4, 33, 100
6, 252960, Note_off_c, 4, 33, 64
6, 252960, Note_on_c, 4, 35, 100
6, 255120, Note_on_c, 4, 30, 100
6, 255127, Note_off_c, 4, 35, 64
6, 255833, Note_off_c, 4, 30, 64
6, 255840, Note_on_c, 4, 28, 100
6, 256080, Note_off_c, 4, 28, 64
6, 256080, Note_on_c, 4, 30, 100
6, 256320, Note_off_c, 4, 30, 64
6, 256560, Note_on_c, 4, 33, 100
6, 256800, Note_off_c, 4, 33, 64
6, 256800, Note_on_c, 4, 35, 100
6, 257520, Note_on_c, 4, 26, 100
6, 257527, Note_off_c, 4, 35, 64
6, 257760, Note_off_c, 4, 26, 64
6, 257760, Note_on_c, 4, 28, 100
6, 258480, Note_off_c, 4, 28, 64
6, 258480, Note_on_c, 4, 28, 100
6, 258720, Note_off_c, 4, 28, 64
6, 258720, Note_on_c, 4, 29, 100
6, 258960, Note_off_c, 4, 29, 64
6, 258960, Note_on_c, 4, 30, 100
6, 259673, Note_off_c, 4, 30, 64
6, 259680, Note_on_c, 4, 40, 100
6, 259700, Pitch_bend_c, 4, 10192
6, 259720, Pitch_bend_c, 4, 12192
6, 259740, Pitch_bend_c, 4, 14192
6, 259760, Pitch_bend_c, 4, 16192
6, 259920, Note_off_c, 4, 40, 64
6, 259920, Pitch_bend_c, 4, 8192
6, 259920, Note_on_c, 4, 40, 100
6, 260160, Note_off_c, 4, 40, 64
6, 260400, Note_on_c, 4, 35, 100
6, 260420, Pitch_bend_c, 4, 10192
6, 260440, Pitch_bend_c, 4, 12192
6, 260640, Note_off_c, 4, 35, 64
6, 260640, Pitch_bend_c, 4, 8192
6, 260640, Note_on_c, 4, 35, 100
6, 262800, Note_on_c, 4, 30, 100
6, 262807, Note_off_c, 4, 35, 64
6, 263513, Note_off_c, 4, 30, 64
6, 263520, Note_on_c, 4, 28, 100
6, 263760, Note_off_c, 4, 28, 64
6, 263760, Note_on_c, 4, 30, 100
6, 263993, Note_off_c, 4, 30, 64
6, 264240, Note_on_c, 4, 33, 100
6, 264480, Note_off_c, 4, 33, 64
6, 264480, Note_on_c, 4, 35, 100
6, 265200, Note_on_c, 4, 38, 100
6, 265207, Note_off_c, 4, 35, 64
6, 265440, Note_off_c, 4, 38, 64
6, 265440, Note_on_c, 4, 40, 100
6, 266160, Note_off_c, 4, 40, 64
6, 266160, Note_on_c, 4, 28, 100
6, 266400, Note_off_c, 4, 28, 64
6, 266400, Note_on_c, 4, 29, 100
6, 266640, Note_off_c, 4, 29, 64
6, 266640, Note_on_c, 4, 30, 100
6, 267353, Note_off_c, 4, 30, 64
6, 267360, Note_on_c, 4, 28, 100
6, 267600, Note_off_c, 4, 28, 64
6, 267600, Note_on_c, 4, 30, 100
6, 267840, Note_off_c, 4, 30, 64
6, 268080, Note_on_c, 4, 33, 100
6, 268320, Note_off_c, 4, 33, 64
6, 268320, Note_on_c, 4, 35, 100
6, 270480, Note_on_c, 4, 30, 100
6, 270487, Note_off_c, 4, 35, 64
6, 271193, Note_off_c, 4, 30, 64
6, 271200, Note_on_c, 4, 28, 100
6, 271440, Note_off_c, 4, 28, 64
6, 271440, Note_on_c, 4, 30, 100
6, 271680, Note_off_c, 4, 30, 64
6, 271920, Note_on_c, 4, 33, 100
6, 272160, Note_off_c, 4, 33, 64
6, 272160, Note_on_c, 4, 35, 100
6, 272880, Note_on_c, 4, 26, 100
6, 272887, Note_off_c, 4, 35, 64
6, 273120, Note_off_c, 4, 26, 64
6, 273120, Note_on_c, 4, 28, 100
6, 273840, Note_off_c, 4, 28, 64
6, 273840, Note_on_c, 4, 28, 100
6, 274080, Note_off_c, 4, 28, 64
6, 274080, Note_on_c, 4, 29, 100
6, 274320, Note_off_c, 4, 29, 64
6, 274320, Note_on_c, 4, 30, 100
6, 275033, Note_off_c, 4, 30, 64
6, 275040, Note_on_c, 4, 40, 100
6, 275060, Pitch_bend_c, 4, 10192
6, 275080, Pitch_bend_c, 4, 12192
6, 275100, Pitch_bend_c, 4, 14192
6, 275120, Pitch_bend_c, 4, 16192
6, 275280, Note_off_c, 4, 40, 64
6, 275280, Pitch_bend_c, 4, 8192
6, 275280, Note_on_c, 4, 40, 100
6, 275520, Note_off_c, 4, 40, 64
6, 275760, Note_on_c, 4, 35, 100
6, 275780, Pitch_bend_c, 4, 10192
6, 275800, Pitch_bend_c, 4, 12192
6, 276000, Note_off_c, 4, 35, 64
6, 276000, Pitch_bend_c, 4, 8192
6, 276000, Note_on_c, 4, 35, 100
6, 276247, Note_off_c, 4, 35, 64
6, 305760, Note_on_c, 4, 35, 100
6, 306240, Note_off_c, 4, 35, 64
6, 306480, Note_on_c, 4, 33, 100
6, 306600, Note_off_c, 4, 33, 64
6, 306720, Note_on_c, 4, 35, 100
6, 306810, Note_off_c, 4, 35, 64
6, 306840, Note_on_c, 4, 35, 100
6, 306930, Note_off_c, 4, 35, 64
6, 306960, Note_on_c, 4, 33, 100
6, 307080, Note_off_c, 4, 33, 64
6, 307080, Note_on_c, 4, 35, 100
6, 307170, Note_off_c, 4, 35, 64
6, 307200, Note_on_c, 4, 35, 100
6, 307290, Note_off_c, 4, 35, 64
6, 307320, Note_on_c, 4, 33, 100
6, 307440, Note_off_c, 4, 33, 64
6, 307440, Note_on_c, 4, 35, 100
6, 307560, Note_off_c, 4, 35, 64
6, 308400, Pitch_bend_c, 4, 9192
6, 308400, Note_on_c, 4, 48, 100
6, 308415, Pitch_bend_c, 4, 10192
6, 308430, Pitch_bend_c, 4, 11192
6, 308445, Pitch_bend_c, 4, 12192
6, 308460, Pitch_bend_c, 4, 13192
6, 308475, Pitch_bend_c, 4, 14192
6, 308490, Pitch_bend_c, 4, 15192
6, 308505, Pitch_bend_c, 4, 16192
6, 308640, Control_c, 4, 1, 127
6, 309360, Note_off_c, 4, 48, 64
6, 309360, Control_c, 4, 1, 0
6, 309360, Pitch_bend_c, 4, 8192
6, 309360, Note_on_c, 4, 35, 100
6, 309607, Note_off_c, 4, 35, 64
6, 310080, Note_on_c, 4, 33, 100
6, 310200, Note_off_c, 4, 33, 64
6, 310320, Note_on_c, 4, 35, 100
6, 310410, Note_off_c, 4, 35, 64
6, 310440, Note_on_c, 4, 35, 100
6, 310530, Note_off_c, 4, 35, 64
6, 310560, Note_on_c, 4, 33, 100
6, 310680, Note_off_c, 4, 33, 64
6, 310680, Note_on_c, 4, 35, 100
6, 310770, Note_off_c, 4, 35, 64
6, 310800, Note_on_c, 4, 35, 100
6, 310890, Note_off_c, 4, 35, 64
6, 310920, Note_on_c, 4, 33, 100
6, 311040, Note_off_c, 4, 33, 64
6, 311040, Note_on_c, 4, 35, 100
6, 311160, Note_off_c, 4, 35, 64
6, 312007, Note_on_c, 4, 35, 100
6, 312127, Note_off_c, 4, 35, 64
6, 312127, Note_on_c, 4, 42, 100
6, 312247, Note_off_c, 4, 42, 64
6, 312247, Note_on_c, 4, 47, 100
6, 312367, Note_off_c, 4, 47, 64
6, 312367, Note_on_c, 4, 49, 100
6, 312487, Note_off_c, 4, 49, 64
6, 312487, Note_on_c, 4, 47, 100
6, 312607, Note_off_c, 4, 47, 64
6, 312607, Note_on_c, 4, 42, 100
6, 312720, Note_on_c, 4, 35, 100
6, 312727, Note_off_c, 4, 42, 64
6, 312953, Note_off_c, 4, 35, 64
6, 313440, Note_on_c, 4, 33, 100
6, 313560, Note_off_c, 4, 33, 64
6, 313680, Note_on_c, 4, 35, 100
6, 313770, Note_off_c, 4, 35, 64
6, 313800, Note_on_c, 4, 35, 100
6, 313890, Note_off_c, 4, 35, 64
6, 313920, Note_on_c, 4, 33, 100
6, 314040, Note_off_c, 4, 33, 64
6, 314040, Note_on_c, 4, 35, 100
6, 314130, Note_off_c, 4, 35, 64
6, 314160, Note_on_c, 4, 35, 100
6, 314250, Note_off_c, 4, 35, 64
6, 314280, Note_on_c, 4, 33, 100
6, 314400, Note_off_c, 4, 33, 64
6, 314400, Note_on_c, 4, 35, 100
6, 314520, Note_off_c, 4, 35, 64
6, 315120, Pitch_bend_c, 4, 9192
6, 315120, Note_on_c, 4, 50, 100
6, 315135, Pitch_bend_c, 4, 10192
6, 315150, Pitch_bend_c, 4, 11192
6, 315165, Pitch_bend_c, 4, 12192
6, 315180, Pitch_bend_c, 4, 13192
6, 315195, Pitch_bend_c, 4, 14192
6, 315210, Pitch_bend_c, 4, 15192
6, 315225, Pitch_bend_c, 4, 16192
6, 315240, Note_off_c, 4, 50, 64
6, 315360, Pitch_bend_c, 4, 9192
6, 315360, Note_on_c, 4, 48, 100
6, 315375, Pitch_bend_c, 4, 10192
6, 315390, Pitch_bend_c, 4, 11192
6, 315405, Pitch_bend_c, 4, 12192
6, 315420, Pitch_bend_c, 4, 13192
6, 315435, Pitch_bend_c, 4, 14192
6, 315450, Pitch_bend_c, 4, 15192
6, 315465, Pitch_bend_c, 4, 16192
6, 315600, Control_c, 4, 1, 127
6, 316320, Note_off_c, 4, 48, 64
6, 316320, Control_c, 4, 1, 0
6, 316320, Pitch_bend_c, 4, 8192
6, 316320, Note_on_c, 4, 35, 100
6, 316567, Note_off_c, 4, 35, 64
6, 317040, Note_on_c, 4, 33, 100
6, 317160, Note_off_c, 4, 33, 64
6, 317280, Note_on_c, 4, 35, 100
6, 317370, Note_off_c, 4, 35, 64
6, 317400, Note_on_c, 4, 35, 100
6, 317490, Note_off_c, 4, 35, 64
6, 317520, Note_on_c, 4, 33, 100
6, 317640, Note_off_c, 4, 33, 64
6, 317640, Note_on_c, 4, 35, 100
6, 317730, Note_off_c, 4, 35, 64
6, 317760, Note_on_c, 4, 35, 100
6, 317850, Note_off_c, 4, 35, 64
6, 317880, Note_on_c, 4, 33, 100
6, 318000, Note_off_c, 4, 33, 64
6, 318000, Note_on_c, 4, 35, 100
6, 318120, Note_off_c, 4, 35, 64
6, 318967, Note_on_c, 4, 35, 100
6, 319087, Note_off_c, 4, 35, 64
6, 319087, Note_on_c, 4, 42, 100
6, 319207, Note_off_c, 4, 42, 64
6, 319207, Note_on_c, 4, 47, 100
6, 319327, Note_off_c, 4, 47, 64
6, 319327, Note_on_c, 4, 49, 100
6, 319447, Note_off_c, 4, 49, 64
6, 319447, Note_on_c, 4, 47, 100
6, 319567, Note_off_c, 4, 47, 64
6, 319567, Note_on_c, 4, 42, 100
6, 319680, Note_on_c, 4, 35, 100
6, 319687, Note_off_c, 4, 42, 64
6, 319913, Note_off_c, 4, 35, 64
6, 320400, Note_on_c, 4, 33, 100
6, 320520, Note_off_c, 4, 33, 64
6, 320640, Note_on_c, 4, 35, 100
6, 320730, Note_off_c, 4, 35, 64
6, 320760, Note_on_c, 4, 35, 100
6, 320850, Note_off_c, 4, 35, 64
6, 320880, Note_on_c, 4, 33, 100
6, 321000, Note_off_c, 4, 33, 64
6, 321000, Note_on_c, 4, 35, 100
6, 321090, Note_off_c, 4, 35, 64
6, 321120, Note_on_c, 4, 33, 100
6, 321210, Note_off_c, 4, 33, 64
6, 321240, Note_on_c, 4, 47, 100
6, 321360, Note_off_c, 4, 47, 64
6, 321360, Note_on_c, 4, 49, 100
6, 322320, Note_off_c, 4, 49, 64
6, 322320, Note_on_c, 4, 50, 100
6, 323280, Note_off_c, 4, 50, 64
6, 323280, Note_on_c, 4, 35, 100
6, 323527, Note_off_c, 4, 35, 64
6, 324000, Note_on_c, 4, 33, 100
6, 324120, Note_off_c, 4, 33, 64
6, 324240, Note_on_c, 4, 35, 100
6, 324330, Note_off_c, 4, 35, 64
6, 324360, Note_on_c, 4, 35, 100
6, 324450, Note_off_c, 4, 35, 64
6, 324480, Note_on_c, 4, 33, 100
6, 324600, Note_off_c, 4, 33, 64
6, 324600, Note_on_c, 4, 35, 100
6, 324690, Note_off_c, 4, 35, 64
6, 324720, Note_on_c, 4, 35, 100
6, 324810, Note_off_c, 4, 35, 64
6, 324840, Note_on_c, 4, 33, 100
6, 324960, Note_off_c, 4, 33, 64
6, 324960, Note_on_c, 4, 35, 100
6, 325080, Note_off_c, 4, 35, 64
6, 325440, Note_on_c, 4, 35, 100
6, 325560, Note_off_c, 4, 35, 64
6, 325927, Note_on_c, 4, 35, 100
6, 326047, Note_off_c, 4, 35, 64
6, 326047, Note_on_c, 4, 42, 100
6, 326167, Note_off_c, 4, 42, 64
6, 326167, Note_on_c, 4, 47, 100
6, 326287, Note_off_c, 4, 47, 64
6, 326287, Note_on_c, 4, 49, 100
6, 326407, Note_off_c, 4, 49, 64
6, 326407, Note_on_c, 4, 47, 100
6, 326527, Note_off_c, 4, 47, 64
6, 326527, Note_on_c, 4, 42, 100
6, 326640, Note_on_c, 4, 35, 100
6, 326647, Note_off_c, 4, 42, 64
6, 326873, Note_off_c, 4, 35, 64
6, 327360, Note_on_c, 4, 33, 100
6, 327480, Note_off_c, 4, 33, 64
6, 327600, Note_on_c, 4, 35, 100
6, 327690, Note_off_c, 4, 35, 64
6, 327720, Note_on_c, 4, 35, 100
6, 327810, Note_off_c, 4, 35, 64
6, 327840, Note_on_c, 4, 33, 100
6, 327960, Note_off_c, 4, 33, 64
6, 327960, Note_on_c, 4, 35, 100
6, 328050, Note_off_c, 4, 35, 64
6, 328080, Note_on_c, 4, 33, 100
6, 328170, Note_off_c, 4, 33, 64
6, 328200, Note_on_c, 4, 47, 100
6, 328320, Note_off_c, 4, 47, 64
6, 328320, Note_on_c, 4, 49, 100
6, 329033, Note_off_c, 4, 49, 64
6, 329040, Note_on_c, 4, 49, 100
6, 329280, Note_off_c, 4, 49, 64
6, 329280, Note_on_c, 4, 50, 100
6, 330240, Note_off_c, 4, 50, 64
6, 330240, Note_on_c, 4, 35, 100
6, 330487, Note_off_c, 4, 35, 64
6, 330960, Note_on_c, 4, 33, 100
6, 331080, Note_off_c, 4, 33, 64
6, 331200, Note_on_c, 4, 35, 100
6, 331290, Note_off_c, 4, 35, 64
6, 331320, Note_on_c, 4, 35, 100
6, 331410, Note_off_c, 4, 35, 64
6, 331440, Note_on_c, 4, 33, 100
6, 331560, Note_off_c, 4, 33, 64
6, 331560, Note_on_c, 4, 35, 100
6, 331650, Note_off_c, 4, 35, 64
6, 331680, Note_on_c, 4, 35, 100
6, 331770, Note_off_c, 4, 35, 64
6, 331800, Note_on_c, 4, 33, 100
6, 331920, Note_off_c, 4, 33, 64
6, 331920, Note_on_c, 4, 35, 100
6, 332040, Note_off_c, 4, 35, 64
6, 332400, Note_on_c, 4, 35, 80
6, 332520, Note_off_c, 4, 35, 64
6, 332887, Note_on_c, 4, 35, 100
6, 333007, Note_off_c, 4, 35, 64
6, 333007, Note_on_c, 4, 42, 100
6, 333127, Note_off_c, 4, 42, 64
6, 333127, Note_on_c, 4, 47, 100
6, 333247, Note_off_c, 4, 47, 64
6, 333247, Note_on_c, 4, 49, 100
6, 333367, Note_off_c, 4, 49, 64
6, 333367, Note_on_c, 4, 47, 100
6, 333487, Note_off_c, 4, 47, 64
6, 333487, Note_on_c, 4, 42, 100
6, 333600, Note_on_c, 4, 35, 100
6, 333607, Note_off_c, 4, 42, 64
6, 333833, Note_off_c, 4, 35, 64
6, 334320, Note_on_c, 4, 33, 100
6, 334440, Note_off_c, 4, 33, 64
6, 334560, Note_on_c, 4, 35, 100
6, 334650, Note_off_c, 4, 35, 64
6, 334680, Note_on_c, 4, 35, 100
6, 334770, Note_off_c, 4, 35, 64
6, 334800, Note_on_c, 4, 33, 100
6, 334920, Note_off_c, 4, 33, 64
6, 334920, Note_on_c, 4, 35, 100
6, 335010, Note_off_c, 4, 35, 64
6, 335040, Note_on_c, 4, 33, 100
6, 335130, Note_off_c, 4, 33, 64
6, 335160, Note_on_c, 4, 47, 100
6, 335280, Note_off_c, 4, 47, 64
6, 335280, Note_on_c, 4, 49, 100
6, 335993, Note_off_c, 4, 49, 64
6, 336000, Note_on_c, 4, 49, 100
6, 336240, Note_off_c, 4, 49, 64
6, 336240, Note_on_c, 4, 50, 100
6, 337200, Note_off_c, 4, 50, 64
6, 337200, Note_on_c, 4, 35, 100
6, 337447, Note_off_c, 4, 35, 64
6, 337920, Note_on_c, 4, 33, 100
6, 338040, Note_off_c, 4, 33, 64
6, 338160, Note_on_c, 4, 35, 100
6, 338250, Note_off_c, 4, 35, 64
6, 338280, Note_on_c, 4, 35, 100
6, 338370, Note_off_c, 4, 35, 64
6, 338400, Note_on_c, 4, 33, 100
6, 338520, Note_off_c, 4, 33, 64
6, 338520, Note_on_c, 4, 35, 100
6, 338610, Note_off_c, 4, 35, 64
6, 338640, Note_on_c, 4, 35, 100
6, 338730, Note_off_c, 4, 35, 64
6, 338760, Note_on_c, 4, 33, 100
6, 338880, Note_off_c, 4, 33, 64
6, 338880, Note_on_c, 4, 35, 100
6, 339000, Note_off_c, 4, 35, 64
6, 339847, Note_on_c, 4, 35, 100
6, 339967, Note_off_c, 4, 35, 64
6, 339967, Note_on_c, 4, 42, 100
6, 340087, Note_off_c, 4, 42, 64
6, 340087, Note_on_c, 4, 47, 100
6, 340207, Note_off_c, 4, 47, 64
6, 340207, Note_on_c, 4, 49, 100
6, 340327, Note_off_c, 4, 49, 64
6, 340327, Note_on_c, 4, 47, 100
6, 340440, Note_on_c, 4, 42, 100
6, 340447, Note_off_c, 4, 47, 64
6, 340560, Note_off_c, 4, 42, 64
6, 340560, Note_on_c, 4, 35, 100
6, 340793, Note_off_c, 4, 35, 64
6, 341280, Note_on_c, 4, 33, 100
6, 341400, Note_off_c, 4, 33, 64
6, 341520, Note_on_c, 4, 35, 100
6, 341610, Note_off_c, 4, 35, 64
6, 341640, Note_on_c, 4, 35, 100
6, 341730, Note_off_c, 4, 35, 64
6, 341760, Note_on_c, 4, 33, 100
6, 341880, Note_off_c, 4, 33, 64
6, 341880, Note_on_c, 4, 35, 100
6, 341970, Note_off_c, 4, 35, 64
6, 342000, Note_on_c, 4, 33, 100
6, 342090, Note_off_c, 4, 33, 64
6, 342120, Note_on_c, 4, 47, 100
6, 342240, Note_off_c, 4, 47, 64
6, 342240, Note_on_c, 4, 49, 100
6, 342953, Note_off_c, 4, 49, 64
6, 342960, Note_on_c, 4, 49, 100
6, 343200, Note_off_c, 4, 49, 64
6, 343200, Note_on_c, 4, 50, 100
6, 344160, Note_off_c, 4, 50, 64
6, 344160, Note_on_c, 4, 35, 100
6, 344407, Note_off_c, 4, 35, 64
6, 344880, Note_on_c, 4, 33, 100
6, 345000, Note_off_c, 4, 33, 64
6, 345120, Note_on_c, 4, 35, 100
6, 345210, Note_off_c, 4, 35, 64
6, 345240, Note_on_c, 4, 35, 100
6, 345330, Note_off_c, 4, 35, 64
6, 345360, Note_on_c, 4, 33, 100
6, 345480, Note_off_c, 4, 33, 64
6, 345480, Note_on_c, 4, 35, 100
6, 345570, Note_off_c, 4, 35, 64
6, 345600, Note_on_c, 4, 35, 100
6, 345690, Note_off_c, 4, 35, 64
6, 345720, Note_on_c, 4, 33, 100
6, 345840, Note_off_c, 4, 33, 64
6, 345840, Note_on_c, 4, 35, 100
6, 345960, Note_off_c, 4, 35, 64
6, 346807, Note_on_c, 4, 35, 100
6, 346927, Note_off_c, 4, 35, 64
6, 346927, Note_on_c, 4, 42, 100
6, 347047, Note_off_c, 4, 42, 64
6, 347047, Note_on_c, 4, 47, 100
6, 347167, Note_off_c, 4, 47, 64
6, 347167, Note_on_c, 4, 49, 100
6, 347287, Note_off_c, 4, 49, 64
6, 347287, Note_on_c, 4, 47, 100
6, 347407, Note_off_c, 4, 47, 64
6, 347407, Note_on_c, 4, 42, 100
6, 347520, Note_on_c, 4, 35, 100
6, 347527, Note_off_c, 4, 42, 64
6, 347760, Note_off_c, 4, 35, 64
6, 348480, Note_on_c, 4, 35, 100
6, 348720, Note_off_c, 4, 35, 64
6, 349197, Note_on_c, 4, 33, 100
6, 349317, Note_off_c, 4, 33, 64
6, 349437, Note_on_c, 4, 35, 100
6, 349527, Note_off_c, 4, 35, 64
6, 349557, Note_on_c, 4, 35, 100
6, 349647, Note_off_c, 4, 35, 64
6, 349677, Note_on_c, 4, 33, 100
6, 349797, Note_off_c, 4, 33, 64
6, 349797, Note_on_c, 4, 35, 100
6, 349887, Note_off_c, 4, 35, 64
6, 349917, Note_on_c, 4, 33, 100
6, 350007, Note_off_c, 4, 33, 64
6, 350037, Note_on_c, 4, 47, 100
6, 350157, Note_off_c, 4, 47, 64
6, 350157, Note_on_c, 4, 49, 100
6, 350870, Note_off_c, 4, 49, 64
6, 350877, Note_on_c, 4, 49, 100
6, 351117, Note_off_c, 4, 49, 64
6, 351117, Note_on_c, 4, 50, 100
6, 352077, Note_off_c, 4, 50, 64
6, 352077, Note_on_c, 4, 35, 100
6, 352324, Note_off_c, 4, 35, 64
6, 352797, Note_on_c, 4, 33, 100
6, 352917, Note_off_c, 4, 33, 64
6, 353037, Note_on_c, 4, 35, 100
6, 353127, Note_off_c, 4, 35, 64
6, 353157, Note_on_c, 4, 35, 100
6, 353247, Note_off_c, 4, 35, 64
6, 353277, Note_on_c, 4, 33, 100
6, 353397, Note_off_c, 4, 33, 64
6, 353397, Note_on_c, 4, 35, 100
6, 353487, Note_off_c, 4, 35, 64
6, 353517, Note_on_c, 4, 35, 100
6, 353607, Note_off_c, 4, 35, 64
6, 353637, Note_on_c, 4, 33, 100
6, 353757, Note_off_c, 4, 33, 64
6, 353757, Note_on_c, 4, 35, 100
6, 353877, Note_off_c, 4, 35, 64
6, 354724, Note_on_c, 4, 35, 100
6, 354844, Note_off_c, 4, 35, 64
6, 354844, Note_on_c, 4, 42, 100
6, 354964, Note_off_c, 4, 42, 64
6, 354964, Note_on_c, 4, 47, 100
6, 355084, Note_off_c, 4, 47, 64
6, 355084, Note_on_c, 4, 49, 100
6, 355204, Note_off_c, 4, 49, 64
6, 355204, Note_on_c, 4, 47, 100
6, 355324, Note_off_c, 4, 47, 64
6, 355324, Note_on_c, 4, 42, 100
6, 355440, Note_on_c, 4, 35, 100
6, 355444, Note_off_c, 4, 42, 64
6, 355680, Note_off_c, 4, 35, 64
6, 356157, Note_on_c, 4, 33, 100
6, 356277, Note_off_c, 4, 33, 64
6, 356397, Note_on_c, 4, 35, 100
6, 356487, Note_off_c, 4, 35, 64
6, 356517, Note_on_c, 4, 35, 100
6, 356607, Note_off_c, 4, 35, 64
6, 356637, Note_on_c, 4, 33, 100
6, 356757, Note_off_c, 4, 33, 64
6, 356757, Note_on_c, 4, 35, 100
6, 356847, Note_off_c, 4, 35, 64
6, 356877, Note_on_c, 4, 35, 100
6, 356967, Note_off_c, 4, 35, 64
6, 356997, Note_on_c, 4, 33, 100
6, 357117, Note_off_c, 4, 33, 64
6, 357117, Note_on_c, 4, 49, 100
6, 357830, Note_off_c, 4, 49, 64
6, 357837, Note_on_c, 4, 49, 100
6, 358077, Note_off_c, 4, 49, 64
6, 358077, Note_on_c, 4, 50, 100
6, 359037, Note_off_c, 4, 50, 64
6, 359040, Note_on_c, 4, 40, 100
6, 360000, Note_off_c, 4, 40, 64
6, 360000, Note_on_c, 4, 38, 100
6, 360720, Note_on_c, 4, 36, 100
6, 360727, Note_off_c, 4, 38, 64
6, 361680, Note_off_c, 4, 36, 64
6, 361684, Note_on_c, 4, 35, 100
6, 361804, Note_off_c, 4, 35, 64
6, 361804, Note_on_c, 4, 42, 100
6, 361924, Note_off_c, 4, 42, 64
6, 361924, Note_on_c, 4, 47, 100
6, 362044, Note_off_c, 4, 47, 64
6, 362044, Note_on_c, 4, 49, 100
6, 362164, Note_off_c, 4, 49, 64
6, 362164, Note_on_c, 4, 47, 100
6, 362284, Note_off_c, 4, 47, 64
6, 362284, Note_on_c, 4, 42, 100
6, 362400, Note_on_c, 4, 35, 100
6, 362404, Note_off_c, 4, 42, 64
6, 362640, Note_off_c, 4, 35, 64
6, 363117, Note_on_c, 4, 33, 100
6, 363237, Note_off_c, 4, 33, 64
6, 363357, Note_on_c, 4, 35, 100
6, 363447, Note_off_c, 4, 35, 64
6, 363477, Note_on_c, 4, 35, 100
6, 363567, Note_off_c, 4, 35, 64
6, 363597, Note_on_c, 4, 33, 100
6, 363717, Note_off_c, 4, 33, 64
6, 363717, Note_on_c, 4, 35, 100
6, 363807, Note_off_c, 4, 35, 64
6, 363837, Note_on_c, 4, 33, 100
6, 363927, Note_off_c, 4, 33, 64
6, 363957, Note_on_c, 4, 47, 100
6, 364077, Note_off_c, 4, 47, 64
6, 364077, Note_on_c, 4, 49, 100
6, 364790, Note_off_c, 4, 49, 64
6, 364797, Note_on_c, 4, 49, 100
6, 365037, Note_off_c, 4, 49, 64
6, 365037, Note_on_c, 4, 50, 100
6, 365997, Note_off_c, 4, 50, 64
6, 365997, Note_on_c, 4, 35, 100
6, 366244, Note_off_c, 4, 35, 64
6, 366717, Note_on_c, 4, 33, 100
6, 366837, Note_off_c, 4, 33, 64
6, 366957, Note_on_c, 4, 35, 100
6, 367047, Note_off_c, 4, 35, 64
6, 367077, Note_on_c, 4, 35, 100
6, 367167, Note_off_c, 4, 35, 64
6, 367197, Note_on_c, 4, 33, 100
6, 367317, Note_off_c, 4, 33, 64
6, 367317, Note_on_c, 4, 35, 100
6, 367407, Note_off_c, 4, 35, 64
6, 367437, Note_on_c, 4, 35, 100
6, 367527, Note_off_c, 4, 35, 64
6, 367557, Note_on_c, 4, 33, 100
6, 367677, Note_off_c, 4, 33, 64
6, 367677, Note_on_c, 4, 35, 100
6, 367797, Note_off_c, 4, 35, 64
6, 368644, Note_on_c, 4, 35, 100
6, 368764, Note_off_c, 4, 35, 64
6, 368764, Note_on_c, 4, 42, 100
6, 368884, Note_off_c, 4, 42, 64
6, 368884, Note_on_c, 4, 47, 100
6, 369004, Note_off_c, 4, 47, 64
6, 369004, Note_on_c, 4, 49, 100
6, 369124, Note_off_c, 4, 49, 64
6, 369124, Note_on_c, 4, 47, 100
6, 369244, Note_off_c, 4, 47, 64
6, 369244, Note_on_c, 4, 42, 100
6, 369360, Note_on_c, 4, 35, 100
6, 369364, Note_off_c, 4, 42, 64
6, 369600, Note_off_c, 4, 35, 64
6, 370077, Note_on_c, 4, 33, 100
6, 370197, Note_off_c, 4, 33, 64
6, 370317, Note_on_c, 4, 35, 100
6, 370407, Note_off_c, 4, 35, 64
6, 370437, Note_on_c, 4, 35, 100
6, 370527, Note_off_c, 4, 35, 64
6, 370557, Note_on_c, 4, 33, 100
6, 370677, Note_off_c, 4, 33, 64
6, 370677, Note_on_c, 4, 35, 100
6, 370767, Note_off_c, 4, 35, 64
6, 370797, Note_on_c, 4, 35, 100
6, 370887, Note_off_c, 4, 35, 64
6, 370917, Note_on_c, 4, 33, 100
6, 371037, Note_off_c, 4, 33, 64
6, 371037, Note_on_c, 4, 49, 100
6, 371750, Note_off_c, 4, 49, 64
6, 371757, Note_on_c, 4, 49, 100
6, 371997, Note_off_c, 4, 49, 64
6, 371997, Note_on_c, 4, 50, 100
6, 372957, Note_off_c, 4, 50, 64
6, 372960, Note_on_c, 4, 40, 100
6, 373680, Note_on_c, 4, 35, 100
6, 373687, Note_off_c, 4, 40, 64
6, 373913, Note_off_c, 4, 35, 64
6, 373920, Note_on_c, 4, 38, 100
6, 374640, Note_on_c, 4, 36, 100
6, 374647, Note_off_c, 4, 38, 64
6, 376320, Note_on_c, 4, 35, 100
6, 376327, Note_off_c, 4, 36, 64
6, 376560, Note_off_c, 4, 35, 64
6, 376800, Note_on_c, 4, 35, 90
6, 377040, Note_off_c, 4, 35, 64
6, 377280, Note_on_c, 4, 35, 100
6, 377520, Note_off_c, 4, 35, 64
6, 377760, Note_on_c, 4, 35, 90
6, 378000, Note_off_c, 4, 35, 64
6, 378240, Note_on_c, 4, 35, 100
6, 378480, Note_off_c, 4, 35, 64
6, 378720, Note_on_c, 4, 35, 100
6, 378960, Note_off_c, 4, 35, 64
6, 379200, Note_on_c, 4, 45, 100
6, 379374, Pitch_bend_c, 4, 8826
6, 379390, Pitch_bend_c, 4, 10005
6, 379407, Pitch_bend_c, 4, 11607
6, 379422, Pitch_bend_c, 4, 13360
6, 379438, Pitch_bend_c, 4, 15476
6, 379455, Pitch_bend_c, 4, 16383
6, 379552, Pitch_bend_c, 4, 16171
6, 379568, Pitch_bend_c, 4, 14660
6, 379584, Pitch_bend_c, 4, 12786
6, 379600, Pitch_bend_c, 4, 11093
6, 379617, Pitch_bend_c, 4, 10337
6, 379649, Pitch_bend_c, 4, 10761
6, 379664, Pitch_bend_c, 4, 11546
6, 379682, Pitch_bend_c, 4, 12544
6, 379696, Pitch_bend_c, 4, 13481
6, 379712, Pitch_bend_c, 4, 14539
6, 379729, Pitch_bend_c, 4, 14750
6, 379746, Pitch_bend_c, 4, 14599
6, 379762, Pitch_bend_c, 4, 13511
6, 379777, Pitch_bend_c, 4, 12302
6, 379794, Pitch_bend_c, 4, 10942
6, 379808, Pitch_bend_c, 4, 9884
6, 379825, Pitch_bend_c, 4, 9552
6, 379861, Pitch_bend_c, 4, 10247
6, 379873, Pitch_bend_c, 4, 11335
6, 379890, Pitch_bend_c, 4, 12635
6, 379906, Pitch_bend_c, 4, 14237
6, 379913, Note_off_c, 4, 45, 64
6, 379920, Pitch_bend_c, 4, 8192
6, 379920, Note_on_c, 4, 35, 100
6, 380160, Note_off_c, 4, 35, 64
6, 380400, Note_on_c, 4, 35, 100
6, 380640, Note_off_c, 4, 35, 64
6, 380880, Note_on_c, 4, 35, 100
6, 381120, Note_off_c, 4, 35, 64
6, 381360, Note_on_c, 4, 35, 100
6, 381600, Note_off_c, 4, 35, 64
6, 381840, Note_on_c, 4, 33, 100
6, 382080, Note_off_c, 4, 33, 64
6, 382320, Note_on_c, 4, 35, 100
6, 382560, Note_off_c, 4, 35, 64
6, 382800, Note_on_c, 4, 35, 100
6, 383040, Note_off_c, 4, 35, 64
6, 383280, Note_on_c, 4, 35, 100
6, 383520, Note_off_c, 4, 35, 64
6, 383760, Note_on_c, 4, 35, 100
6, 384000, Note_off_c, 4, 35, 64
6, 384240, Note_on_c, 4, 35, 100
6, 384480, Note_off_c, 4, 35, 64
6, 384720, Note_on_c, 4, 35, 100
6, 384960, Note_off_c, 4, 35, 64
6, 385200, Pitch_bend_c, 4, 9192
6, 385200, Note_on_c, 4, 50, 100
6, 385215, Pitch_bend_c, 4, 10192
6, 385230, Pitch_bend_c, 4, 11192
6, 385245, Pitch_bend_c, 4, 12192
6, 385260, Pitch_bend_c, 4, 13192
6, 385275, Pitch_bend_c, 4, 14192
6, 385290, Pitch_bend_c, 4, 15192
6, 385305, Pitch_bend_c, 4, 16192
6, 385320, Note_off_c, 4, 50, 64
6, 385440, Pitch_bend_c, 4, 9192
6, 385440, Note_on_c, 4, 48, 100
6, 385455, Pitch_bend_c, 4, 10192
6, 385470, Pitch_bend_c, 4, 11192
6, 385485, Pitch_bend_c, 4, 12192
6, 385500, Pitch_bend_c, 4, 13192
6, 385515, Pitch_bend_c, 4, 14192
6, 385530, Pitch_bend_c, 4, 15192
6, 385545, Pitch_bend_c, 4, 16192
6, 385680, Control_c, 4, 1, 127
6, 386400, Control_c, 4, 1, 0
6, 386880, Note_off_c, 4, 48, 64
6, 386880, Pitch_bend_c, 4, 8192
6, 386880, Note_on_c, 4, 35, 100
6, 387120, Note_off_c, 4, 35, 64
6, 387360, Note_on_c, 4, 35, 100
6, 387600, Note_off_c, 4, 35, 64
6, 387840, Note_on_c, 4, 35, 100
6, 388080, Note_off_c, 4, 35, 64
6, 388320, Note_on_c, 4, 35, 100
6, 388560, Note_off_c, 4, 35, 64
6, 388800, Note_on_c, 4, 35, 100
6, 389040, Note_off_c, 4, 35, 64
6, 389280, Note_on_c, 4, 35, 100
6, 389520, Note_off_c, 4, 35, 64
6, 389760, Note_on_c, 4, 35, 100
6, 390000, Note_off_c, 4, 35, 64
6, 390240, Note_on_c, 4, 28, 100
6, 391200, Note_off_c, 4, 28, 64
6, 391200, Note_on_c, 4, 35, 100
6, 391680, Note_off_c, 4, 35, 64
6, 391920, Note_on_c, 4, 30, 100
6, 392880, Note_off_c, 4, 30, 64
6, 392880, Note_on_c, 4, 31, 100
6, 393600, Note_on_c, 4, 26, 100
6, 393607, Note_off_c, 4, 31, 64
6, 394560, Note_off_c, 4, 26, 64
6, 394560, Note_on_c, 4, 28, 100
6, 395156, Note_off_c, 4, 28, 64
6, 395280, Note_on_c, 4, 33, 100
6, 396240, Note_off_c, 4, 33, 64
6, 396240, Note_on_c, 4, 43, 100
6, 396255, Pitch_bend_c, 4, 9192
6, 396270, Pitch_bend_c, 4, 10192
6, 396285, Pitch_bend_c, 4, 11192
6, 396300, Pitch_bend_c, 4, 12192
6, 396315, Pitch_bend_c, 4, 13192
6, 396330, Pitch_bend_c, 4, 14192
6, 396345, Pitch_bend_c, 4, 15192
6, 396360, Pitch_bend_c, 4, 16192
6, 396780, Pitch_bend_c, 4, 15192
6, 396800, Pitch_bend_c, 4, 14192
6, 396820, Pitch_bend_c, 4, 13192
6, 396840, Pitch_bend_c, 4, 12192
6, 396860, Pitch_bend_c, 4, 11192
6, 396880, Pitch_bend_c, 4, 10192
6, 396900, Pitch_bend_c, 4, 9192
6, 396960, Pitch_bend_c, 4, 8192
6, 396960, Note_on_c, 4, 35, 100
6, 396967, Note_off_c, 4, 43, 64
6, 397673, Note_off_c, 4, 35, 64
6, 397920, Note_on_c, 4, 30, 100
6, 398640, Note_off_c, 4, 30, 64
6, 398640, Note_on_c, 4, 36, 100
6, 399600, Note_off_c, 4, 36, 64
6, 399600, Note_on_c, 4, 31, 100
6, 400320, Note_on_c, 4, 29, 100
6, 400327, Note_off_c, 4, 31, 64
6, 400560, Note_off_c, 4, 29, 64
6, 400560, Note_on_c, 4, 31, 100
6, 400800, Note_off_c, 4, 31, 64
6, 400800, Note_on_c, 4, 33, 100
6, 401040, Note_off_c, 4, 33, 64
6, 401040, Note_on_c, 4, 35, 100
6, 401280, Note_off_c, 4, 35, 64
6, 401280, Note_on_c, 4, 36, 100
6, 401400, Note_off_c, 4, 36, 64
6, 401400, Note_on_c, 4, 43, 100
6, 401520, Note_off_c, 4, 43, 64
6, 401520, Pitch_bend_c, 4, 9192
6, 401520, Note_on_c, 4, 48, 100
6, 401535, Pitch_bend_c, 4, 10192
6, 401550, Pitch_bend_c, 4, 11192
6, 401565, Pitch_bend_c, 4, 12192
6, 401580, Pitch_bend_c, 4, 13192
6, 401595, Pitch_bend_c, 4, 14192
6, 401610, Pitch_bend_c, 4, 15192
6, 401625, Pitch_bend_c, 4, 16192
6, 401758, Pitch_bend_c, 4, 8192
6, 401760, Note_off_c, 4, 48, 64
6, 401760, Note_on_c, 4, 48, 100
6, 402240, Note_off_c, 4, 48, 64
6, 402240, Note_on_c, 4, 38, 100
6, 402480, Note_off_c, 4, 38, 64
6, 402480, Note_on_c, 4, 33, 100
6, 402720, Note_off_c, 4, 33, 64
6, 402720, Note_on_c, 4, 38, 100
6, 402960, Note_off_c, 4, 38, 64
6, 402960, Note_on_c, 4, 41, 100
6, 403200, Note_off_c, 4, 41, 64
6, 403200, Note_on_c, 4, 40, 100
6, 403440, Note_off_c, 4, 40, 64
6, 403440, Note_on_c, 4, 36, 100
6, 403680, Note_off_c, 4, 36, 64
6, 403680, Note_on_c, 4, 33, 100
6, 403920, Note_off_c, 4, 33, 64
6, 403920, Note_on_c, 4, 34, 100
6, 404160, Note_off_c, 4, 34, 64
6, 404160, Note_on_c, 4, 40, 100
6, 404400, Note_off_c, 4, 40, 64
6, 404400, Note_on_c, 4, 41, 100
6, 404640, Note_off_c, 4, 41, 64
6, 404640, Note_on_c, 4, 29, 100
6, 404760, Note_off_c, 4, 29, 64
6, 404760, Note_on_c, 4, 30, 100
6, 404880, Note_off_c, 4, 30, 64
6, 404880, Note_on_c, 4, 31, 100
6, 405120, Note_off_c, 4, 31, 64
6, 405120, Note_on_c, 4, 36, 100
6, 405360, Note_off_c, 4, 36, 64
6, 405360, Note_on_c, 4, 38, 100
6, 405600, Note_off_c, 4, 38, 64
6, 405600, Note_on_c, 4, 43, 100
6, 405840, Note_off_c, 4, 43, 64
6, 405840, Note_on_c, 4, 45, 100
6, 406080, Note_off_c, 4, 45, 64
6, 406080, Note_on_c, 4, 46, 100
6, 406320, Note_off_c, 4, 46, 64
6, 406320, Note_on_c, 4, 43, 100
6, 406560, Note_off_c, 4, 43, 64
6, 406560, Note_on_c, 4, 38, 100
6, 406800, Note_off_c, 4, 38, 64
6, 406800, Note_on_c, 4, 46, 100
6, 407040, Note_off_c, 4, 46, 64
6, 407040, Note_on_c, 4, 45, 100
6, 407280, Note_off_c, 4, 45, 64
6, 407280, Note_on_c, 4, 41, 100
6, 407520, Note_off_c, 4, 41, 64
6, 407520, Note_on_c, 4, 36, 100
6, 407760, Note_off_c, 4, 36, 64
6, 407760, Note_on_c, 4, 43, 100
6, 408000, Note_off_c, 4, 43, 64
6, 408000, Note_on_c, 4, 40, 100
6, 408240, Note_off_c, 4, 40, 64
6, 408240, Note_on_c, 4, 36, 100
6, 408480, Note_off_c, 4, 36, 64
6, 408480, Note_on_c, 4, 34, 100
6, 408720, Note_off_c, 4, 34, 64
6, 408720, Note_on_c, 4, 33, 100
6, 408840, Note_off_c, 4, 33, 64
6, 408840, Note_on_c, 4, 34, 100
6, 408960, Note_off_c, 4, 34, 64
6, 408960, Note_on_c, 4, 36, 100
6, 409080, Note_off_c, 4, 36, 64
6, 409080, Note_on_c, 4, 38, 100
6, 409200, Note_off_c, 4, 38, 64
6, 409200, Note_on_c, 4, 40, 100
6, 409320, Note_off_c, 4, 40, 64
6, 409320, Note_on_c, 4, 41, 100
6, 409440, Note_off_c, 4, 41, 64
6, 409440, Note_on_c, 4, 38, 100
6, 409680, Note_off_c, 4, 38, 64
6, 409680, Note_on_c, 4, 33, 100
6, 409920, Note_off_c, 4, 33, 64
6, 409920, Note_on_c, 4, 38, 100
6, 410160, Note_off_c, 4, 38, 64
6, 410160, Note_on_c, 4, 41, 100
6, 410400, Note_off_c, 4, 41, 64
6, 410400, Note_on_c, 4, 40, 100
6, 410640, Note_off_c, 4, 40, 64
6, 410640, Note_on_c, 4, 36, 100
6, 410880, Note_off_c, 4, 36, 64
6, 410880, Note_on_c, 4, 33, 100
6, 411120, Note_off_c, 4, 33, 64
6, 411120, Note_on_c, 4, 34, 100
6, 411360, Note_off_c, 4, 34, 64
6, 411360, Note_on_c, 4, 40, 100
6, 411600, Note_off_c, 4, 40, 64
6, 411600, Note_on_c, 4, 41, 100
6, 411840, Note_off_c, 4, 41, 64
6, 411840, Note_on_c, 4, 29, 100
6, 411960, Note_off_c, 4, 29, 64
6, 411960, Note_on_c, 4, 30, 100
6, 412080, Note_off_c, 4, 30, 64
6, 412080, Note_on_c, 4, 31, 100
6, 412320, Note_off_c, 4, 31, 64
6, 412320, Note_on_c, 4, 36, 100
6, 412560, Note_off_c, 4, 36, 64
6, 412560, Note_on_c, 4, 38, 100
6, 412800, Note_off_c, 4, 38, 64
6, 412800, Note_on_c, 4, 43, 100
6, 413040, Note_off_c, 4, 43, 64
6, 413040, Note_on_c, 4, 45, 100
6, 413280, Note_off_c, 4, 45, 64
6, 413280, Note_on_c, 4, 46, 100
6, 413520, Note_off_c, 4, 46, 64
6, 413520, Note_on_c, 4, 43, 100
6, 413760, Note_off_c, 4, 43, 64
6, 413760, Note_on_c, 4, 38, 100
6, 414000, Note_off_c, 4, 38, 64
6, 414000, Note_on_c, 4, 46, 100
6, 414240, Note_off_c, 4, 46, 64
6, 414240, Note_on_c, 4, 45, 100
6, 414480, Note_off_c, 4, 45, 64
6, 414480, Note_on_c, 4, 41, 100
6, 414720, Note_off_c, 4, 41, 64
6, 414720, Note_on_c, 4, 36, 100
6, 414960, Note_off_c, 4, 36, 64
6, 414960, Note_on_c, 4, 43, 100
6, 415200, Note_off_c, 4, 43, 64
6, 415200, Note_on_c, 4, 40, 100
6, 415440, Note_off_c, 4, 40, 64
6, 415440, Note_on_c, 4, 36, 100
6, 415680, Note_off_c, 4, 36, 64
6, 415680, Note_on_c, 4, 34, 100
6, 415920, Note_off_c, 4, 34, 64
6, 415920, Note_on_c, 4, 33, 100
6, 416160, Note_on_c, 4, 36, 100
6, 416167, Note_off_c, 4, 33, 64
6, 416280, Note_off_c, 4, 36, 64
6, 416280, Note_on_c, 4, 38, 100
6, 416400, Note_off_c, 4, 38, 64
6, 416400, Note_on_c, 4, 40, 100
6, 416520, Note_off_c, 4, 40, 64
6, 416520, Note_on_c, 4, 41, 100
6, 416640, Note_off_c, 4, 41, 64
6, 416640, Note_on_c, 4, 38, 100
6, 416880, Note_off_c, 4, 38, 64
6, 416880, Note_on_c, 4, 33, 100
6, 417120, Note_off_c, 4, 33, 64
6, 417120, Note_on_c, 4, 38, 100
6, 417360, Note_off_c, 4, 38, 64
6, 417360, Note_on_c, 4, 41, 100
6, 417600, Note_off_c, 4, 41, 64
6, 417600, Note_on_c, 4, 40, 100
6, 417840, Note_off_c, 4, 40, 64
6, 417840, Note_on_c, 4, 36, 100
6, 418080, Note_off_c, 4, 36, 64
6, 418080, Note_on_c, 4, 33, 100
6, 418320, Note_off_c, 4, 33, 64
6, 418320, Note_on_c, 4, 34, 100
6, 418560, Note_off_c, 4, 34, 64
6, 418560, Note_on_c, 4, 40, 100
6, 418800, Note_off_c, 4, 40, 64
6, 418800, Note_on_c, 4, 41, 100
6, 419040, Note_off_c, 4, 41, 64
6, 419040, Note_on_c, 4, 29, 100
6, 419160, Note_off_c, 4, 29, 64
6, 419160, Note_on_c, 4, 30, 100
6, 419280, Note_off_c, 4, 30, 64
6, 419280, Note_on_c, 4, 31, 100
6, 419520, Note_off_c, 4, 31, 64
6, 419520, Note_on_c, 4, 36, 100
6, 419760, Note_off_c, 4, 36, 64
6, 419760, Note_on_c, 4, 38, 100
6, 420000, Note_off_c, 4, 38, 64
6, 420000, Note_on_c, 4, 43, 100
6, 420240, Note_off_c, 4, 43, 64
6, 420240, Note_on_c, 4, 45, 100
6, 420480, Note_off_c, 4, 45, 64
6, 420480, Note_on_c, 4, 46, 100
6, 420720, Note_off_c, 4, 46, 64
6, 420720, Note_on_c, 4, 43, 100
6, 420960, Note_off_c, 4, 43, 64
6, 420960, Note_on_c, 4, 38, 100
6, 421200, Note_off_c, 4, 38, 64
6, 421200, Note_on_c, 4, 46, 100
6, 421440, Note_off_c, 4, 46, 64
6, 421440, Note_on_c, 4, 45, 100
6, 421680, Note_off_c, 4, 45, 64
6, 421680, Note_on_c, 4, 41, 100
6, 421920, Note_off_c, 4, 41, 64
6, 421920, Note_on_c, 4, 36, 100
6, 422160, Note_off_c, 4, 36, 64
6, 422160, Note_on_c, 4, 43, 100
6, 422400, Note_off_c, 4, 43, 64
6, 422400, Note_on_c, 4, 40, 100
6, 422640, Note_off_c, 4, 40, 64
6, 422640, Note_on_c, 4, 36, 100
6, 422880, Note_off_c, 4, 36, 64
6, 422880, Note_on_c, 4, 34, 100
6, 423120, Note_off_c, 4, 34, 64
6, 423120, Note_on_c, 4, 33, 100
6, 423240, Note_off_c, 4, 33, 64
6, 423240, Note_on_c, 4, 34, 100
6, 423360, Note_off_c, 4, 34, 64
6, 423360, Note_on_c, 4, 36, 100
6, 423480, Note_off_c, 4, 36, 64
6, 423480, Note_on_c, 4, 38, 100
6, 423600, Note_off_c, 4, 38, 64
6, 423600, Note_on_c, 4, 40, 100
6, 423720, Note_off_c, 4, 40, 64
6, 423720, Note_on_c, 4, 41, 100
6, 423840, Note_off_c, 4, 41, 64
6, 423840, Note_on_c, 4, 38, 100
6, 424080, Note_off_c, 4, 38, 64
6, 424080, Note_on_c, 4, 33, 100
6, 424320, Note_off_c, 4, 33, 64
6, 424320, Note_on_c, 4, 38, 100
6, 424560, Note_off_c, 4, 38, 64
6, 424560, Note_on_c, 4, 41, 100
6, 424800, Note_off_c, 4, 41, 64
6, 424800, Note_on_c, 4, 40, 100
6, 425040, Note_off_c, 4, 40, 64
6, 425040, Note_on_c, 4, 36, 100
6, 425280, Note_off_c, 4, 36, 64
6, 425280, Note_on_c, 4, 33, 100
6, 425520, Note_off_c, 4, 33, 64
6, 425520, Note_on_c, 4, 34, 100
6, 425760, Note_off_c, 4, 34, 64
6, 425760, Note_on_c, 4, 40, 100
6, 426000, Note_off_c, 4, 40, 64
6, 426000, Note_on_c, 4, 41, 100
6, 426240, Note_off_c, 4, 41, 64
6, 426240, Note_on_c, 4, 29, 100
6, 426360, Note_off_c, 4, 29, 64
6, 426360, Note_on_c, 4, 30, 100
6, 426480, Note_off_c, 4, 30, 64
6, 426480, Note_on_c, 4, 31, 100
6, 426720, Note_off_c, 4, 31, 64
6, 426720, Note_on_c, 4, 36, 100
6, 426960, Note_off_c, 4, 36, 64
6, 426960, Note_on_c, 4, 38, 100
6, 427200, Note_off_c, 4, 38, 64
6, 427200, Note_on_c, 4, 43, 100
6, 427440, Note_off_c, 4, 43, 64
6, 427440, Note_on_c, 4, 45, 100
6, 427680, Note_off_c, 4, 45, 64
6, 427680, Note_on_c, 4, 46, 100
6, 427920, Note_off_c, 4, 46, 64
6, 427920, Note_on_c, 4, 43, 100
6, 428160, Note_off_c, 4, 43, 64
6, 428160, Note_on_c, 4, 38, 100
6, 428400, Note_off_c, 4, 38, 64
6, 428400, Note_on_c, 4, 46, 100
6, 428640, Note_off_c, 4, 46, 64
6, 428640, Note_on_c, 4, 45, 100
6, 428880, Note_off_c, 4, 45, 64
6, 428880, Note_on_c, 4, 41, 100
6, 429120, Note_off_c, 4, 41, 64
6, 429120, Note_on_c, 4, 36, 100
6, 429360, Note_off_c, 4, 36, 64
6, 429360, Note_on_c, 4, 43, 100
6, 429600, Note_off_c, 4, 43, 64
6, 429600, Note_on_c, 4, 40, 100
6, 429840, Note_off_c, 4, 40, 64
6, 429840, Note_on_c, 4, 36, 100
6, 430080, Note_off_c, 4, 36, 64
6, 430080, Note_on_c, 4, 34, 100
6, 430320, Note_off_c, 4, 34, 64
6, 430320, Note_on_c, 4, 33, 100
6, 430440, Note_off_c, 4, 33, 64
6, 430440, Note_on_c, 4, 34, 100
6, 430560, Note_off_c, 4, 34, 64
6, 430560, Note_on_c, 4, 36, 100
6, 430680, Note_off_c, 4, 36, 64
6, 430680, Note_on_c, 4, 38, 100
6, 430800, Note_off_c, 4, 38, 64
6, 430800, Note_on_c, 4, 40, 100
6, 430920, Note_off_c, 4, 40, 64
6, 430920, Note_on_c, 4, 41, 100
6, 431040, Note_off_c, 4, 41, 64
6, 431040, Note_on_c, 4, 38, 100
6, 431280, Note_off_c, 4, 38, 64
6, 431280, Note_on_c, 4, 33, 100
6, 431520, Note_off_c, 4, 33, 64
6, 431520, Note_on_c, 4, 38, 100
6, 431760, Note_off_c, 4, 38, 64
6, 431760, Note_on_c, 4, 41, 100
6, 432000, Note_off_c, 4, 41, 64
6, 432000, Note_on_c, 4, 43, 100
6, 432240, Note_off_c, 4, 43, 64
6, 432240, Note_on_c, 4, 33, 100
6, 432480, Note_off_c, 4, 33, 64
6, 432480, Note_on_c, 4, 38, 100
6, 432720, Note_off_c, 4, 38, 64
6, 432720, Note_on_c, 4, 45, 100
6, 432960, Note_off_c, 4, 45, 64
6, 432960, Note_on_c, 4, 33, 100
6, 433200, Note_off_c, 4, 33, 64
6, 433200, Note_on_c, 4, 38, 100
6, 433440, Note_off_c, 4, 38, 64
6, 433440, Note_on_c, 4, 45, 100
6, 433680, Note_off_c, 4, 45, 64
6, 433680, Note_on_c, 4, 46, 100
6, 433920, Note_off_c, 4, 46, 64
6, 433920, Note_on_c, 4, 33, 100
6, 434160, Note_off_c, 4, 33, 64
6, 434160, Note_on_c, 4, 40, 100
6, 434400, Note_off_c, 4, 40, 64
6, 434400, Note_on_c, 4, 48, 100
6, 434520, Note_off_c, 4, 48, 64
6, 434520, Note_on_c, 4, 46, 100
6, 434640, Note_off_c, 4, 46, 64
6, 434640, Note_on_c, 4, 45, 100
6, 434760, Note_off_c, 4, 45, 64
6, 434760, Note_on_c, 4, 43, 100
6, 434880, Note_off_c, 4, 43, 64
6, 434880, Note_on_c, 4, 41, 100
6, 435000, Note_off_c, 4, 41, 64
6, 435000, Note_on_c, 4, 40, 100
6, 435120, Note_off_c, 4, 40, 64
6, 435120, Note_on_c, 4, 38, 100
6, 435360, Note_off_c, 4, 38, 64
6, 435360, Note_on_c, 4, 33, 100
6, 435600, Note_off_c, 4, 33, 64
6, 435600, Note_on_c, 4, 38, 100
6, 435840, Note_off_c, 4, 38, 64
6, 435840, Note_on_c, 4, 41, 100
6, 436080, Note_off_c, 4, 41, 64
6, 436080, Note_on_c, 4, 43, 100
6, 436320, Note_off_c, 4, 43, 64
6, 436320, Note_on_c, 4, 33, 100
6, 436560, Note_off_c, 4, 33, 64
6, 436560, Note_on_c, 4, 38, 100
6, 436800, Note_off_c, 4, 38, 64
6, 436800, Note_on_c, 4, 45, 100
6, 437040, Note_off_c, 4, 45, 64
6, 437040, Note_on_c, 4, 33, 100
6, 437280, Note_off_c, 4, 33, 64
6, 437280, Note_on_c, 4, 38, 100
6, 437520, Note_off_c, 4, 38, 64
6, 437520, Note_on_c, 4, 45, 100
6, 437760, Note_off_c, 4, 45, 64
6, 437760, Note_on_c, 4, 46, 100
6, 438000, Note_off_c, 4, 46, 64
6, 438000, Note_on_c, 4, 33, 100
6, 438240, Note_off_c, 4, 33, 64
6, 438240, Note_on_c, 4, 40, 100
6, 438480, Note_off_c, 4, 40, 64
6, 438480, Note_on_c, 4, 48, 100
6, 438600, Note_off_c, 4, 48, 64
6, 438600, Note_on_c, 4, 46, 100
6, 438720, Note_off_c, 4, 46, 64
6, 438720, Note_on_c, 4, 45, 100
6, 438840, Note_off_c, 4, 45, 64
6, 438840, Note_on_c, 4, 43, 100
6, 438960, Note_off_c, 4, 43, 64
6, 438960, Note_on_c, 4, 41, 100
6, 439080, Note_off_c, 4, 41, 64
6, 439080, Note_on_c, 4, 40, 100
6, 439200, Note_off_c, 4, 40, 64
6, 439200, Note_on_c, 4, 38, 100
6, 440160, Note_off_c, 4, 38, 64
6, 440160, Note_on_c, 4, 36, 100
6, 440880, Note_off_c, 4, 36, 64
6, 440880, Note_on_c, 4, 34, 100
6, 442080, Note_off_c, 4, 34, 64
6, 442080, Note_on_c, 4, 28, 100
6, 442560, Note_off_c, 4, 28, 64
6, 442560, Note_on_c, 4, 29, 100
6, 443040, Note_off_c, 4, 29, 64
6, 443040, Note_on_c, 4, 31, 100
6, 443520, Note_off_c, 4, 31, 64
6, 443520, Note_on_c, 4, 31, 100
6, 444000, Note_off_c, 4, 31, 64
6, 444000, Note_on_c, 4, 29, 100
6, 444240, Note_off_c, 4, 29, 64
6, 444240, Note_on_c, 4, 29, 100
6, 444480, Note_off_c, 4, 29, 64
6, 444480, Note_on_c, 4, 29, 100
6, 444720, Note_off_c, 4, 29, 64
6, 444720, Note_on_c, 4, 36, 100
6, 445200, Note_off_c, 4, 36, 64
6, 445200, Note_on_c, 4, 36, 100
6, 445680, Note_off_c, 4, 36, 64
6, 445680, Note_on_c, 4, 33, 100
6, 445740, Note_off_c, 4, 33, 64
6, 445740, Note_on_c, 4, 33, 100
6, 445800, Note_off_c, 4, 33, 64
6, 445800, Note_on_c, 4, 34, 100
6, 445920, Note_off_c, 4, 34, 64
6, 445920, Note_on_c, 4, 36, 100
6, 446040, Note_off_c, 4, 36, 64
6, 446040, Note_on_c, 4, 38, 100
6, 446160, Note_off_c, 4, 38, 64
6, 446160, Note_on_c, 4, 40, 100
6, 446280, Note_off_c, 4, 40, 64
6, 446280, Note_on_c, 4, 41, 100
6, 446400, Note_off_c, 4, 41, 64
6, 446400, Note_on_c, 4, 38, 100
6, 447360, Note_off_c, 4, 38, 64
6, 447360, Note_on_c, 4, 36, 100
6, 448080, Note_off_c, 4, 36, 64
6, 448080, Note_on_c, 4, 34, 100
6, 449273, Note_off_c, 4, 34, 64
6, 449280, Note_on_c, 4, 28, 100
6, 449520, Note_off_c, 4, 28, 64
6, 449520, Note_on_c, 4, 28, 100
6, 449760, Note_off_c, 4, 28, 64
6, 449760, Note_on_c, 4, 29, 100
6, 450000, Note_off_c, 4, 29, 64
6, 450000, Note_on_c, 4, 29, 100
6, 450240, Note_off_c, 4, 29, 64
6, 450240, Note_on_c, 4, 31, 100
6, 450720, Note_off_c, 4, 31, 64
6, 450720, Note_on_c, 4, 31, 100
6, 451200, Note_off_c, 4, 31, 64
6, 451200, Note_on_c, 4, 29, 100
6, 451913, Note_off_c, 4, 29, 64
6, 451920, Note_on_c, 4, 36, 100
6, 452400, Note_off_c, 4, 36, 64
6, 452400, Note_on_c, 4, 36, 100
6, 452880, Note_off_c, 4, 36, 64
6, 452880, Note_on_c, 4, 33, 100
6, 453000, Note_off_c, 4, 33, 64
6, 453000, Note_on_c, 4, 34, 100
6, 453120, Note_off_c, 4, 34, 64
6, 453120, Note_on_c, 4, 36, 100
6, 453240, Note_off_c, 4, 36, 64
6, 453240, Note_on_c, 4, 38, 100
6, 453360, Note_off_c, 4, 38, 64
6, 453360, Note_on_c, 4, 40, 100
6, 453480, Note_off_c, 4, 40, 64
6, 453480, Note_on_c, 4, 41, 100
6, 453600, Note_off_c, 4, 41, 64
6, 453600, Note_on_c, 4, 38, 100
6, 453840, Note_off_c, 4, 38, 64
6, 453840, Note_on_c, 4, 33, 100
6, 454080, Note_off_c, 4, 33, 64
6, 454080, Note_on_c, 4, 38, 100
6, 454320, Note_off_c, 4, 38, 64
6, 454320, Note_on_c, 4, 41, 100
6, 454560, Note_off_c, 4, 41, 64
6, 454560, Note_on_c, 4, 43, 100
6, 454800, Note_off_c, 4, 43, 64
6, 454800, Note_on_c, 4, 33, 100
6, 455040, Note_off_c, 4, 33, 64
6, 455040, Note_on_c, 4, 36, 100
6, 455280, Note_off_c, 4, 36, 64
6, 455280, Note_on_c, 4, 45, 100
6, 455520, Note_off_c, 4, 45, 64
6, 455520, Note_on_c, 4, 36, 100
6, 455760, Note_off_c, 4, 36, 64
6, 455760, Note_on_c, 4, 38, 100
6, 456000, Note_off_c, 4, 38, 64
6, 456000, Note_on_c, 4, 45, 100
6, 456240, Note_off_c, 4, 45, 64
6, 456240, Note_on_c, 4, 46, 100
6, 456480, Note_off_c, 4, 46, 64
6, 456480, Note_on_c, 4, 38, 100
6, 456720, Note_off_c, 4, 38, 64
6, 456720, Note_on_c, 4, 40, 100
6, 456960, Note_off_c, 4, 40, 64
6, 456960, Note_on_c, 4, 48, 100
6, 457200, Note_off_c, 4, 48, 64
6, 457200, Note_on_c, 4, 40, 100
6, 457440, Note_off_c, 4, 40, 64
6, 457440, Note_on_c, 4, 41, 100
6, 457680, Note_off_c, 4, 41, 64
6, 457680, Note_on_c, 4, 48, 100
6, 457920, Note_off_c, 4, 48, 64
6, 457920, Note_on_c, 4, 50, 100
6, 458160, Note_off_c, 4, 50, 64
6, 458160, Note_on_c, 4, 45, 100
6, 458400, Note_off_c, 4, 45, 64
6, 458400, Note_on_c, 4, 43, 100
6, 458640, Note_off_c, 4, 43, 64
6, 458640, Note_on_c, 4, 52, 100
6, 458880, Note_off_c, 4, 52, 64
6, 458880, Note_on_c, 4, 33, 100
6, 459120, Note_off_c, 4, 33, 64
6, 459120, Note_on_c, 4, 45, 100
6, 459360, Note_off_c, 4, 45, 64
6, 459360, Note_on_c, 4, 52, 100
6, 459600, Note_off_c, 4, 52, 64
6, 459600, Note_on_c, 4, 53, 100
6, 459840, Note_off_c, 4, 53, 64
6, 459840, Note_on_c, 4, 38, 100
6, 460800, Note_off_c, 4, 38, 64
6, 460800, Note_on_c, 4, 40, 100
6, 461760, Note_off_c, 4, 40, 64
6, 461760, Note_on_c, 4, 41, 100
6, 462720, Note_off_c, 4, 41, 64
6, 462720, Note_on_c, 4, 31, 100
6, 463680, Note_off_c, 4, 31, 64
6, 463680, Note_on_c, 4, 33, 100
6, 464640, Note_off_c, 4, 33, 64
6, 464640, Note_on_c, 4, 34, 100
6, 465600, Note_off_c, 4, 34, 64
6, 465600, Note_on_c, 4, 36, 100
6, 468480, Note_off_c, 4, 36, 64
6, 468480, Note_on_c, 4, 24, 100
6, 474240, Note_off_c, 4, 24, 64
6, 474240, Note_on_c, 4, 41, 100
6, 476160, Note_off_c, 4, 41, 80
6, 476160, Note_on_c, 4, 38, 100
6, 478080, Note_off_c, 4, 38, 80
6, 478080, Note_on_c, 4, 36, 100
6, 481920, Note_off_c, 4, 36, 80
6, 481920, Note_on_c, 4, 41, 100
6, 483840, Note_off_c, 4, 41, 80
6, 483840, Note_on_c, 4, 38, 100
6, 485760, Note_off_c, 4, 38, 80
6, 485760, Note_on_c, 4, 36, 100
6, 489600, Note_off_c, 4, 36, 80
6, 489600, Note_on_c, 4, 38, 100
6, 491520, Note_off_c, 4, 38, 80
6, 491520, Note_on_c, 4, 40, 100
6, 492233, Note_off_c, 4, 40, 80
6, 492240, Note_on_c, 4, 41, 100
6, 492960, Note_on_c, 4, 45, 100
6, 492967, Note_off_c, 4, 41, 80
6, 493440, Note_off_c, 4, 45, 80
6, 493440, Note_on_c, 4, 34, 100
6, 495360, Note_off_c, 4, 34, 80
6, 495360, Note_on_c, 4, 31, 100
6, 496080, Note_off_c, 4, 31, 80
6, 496080, Note_on_c, 4, 33, 100
6, 496800, Note_off_c, 4, 33, 80
6, 496800, Note_on_c, 4, 36, 100
6, 497280, Note_off_c, 4, 36, 80
6, 497280, Note_on_c, 4, 38, 100
6, 499200, Note_off_c, 4, 38, 80
6, 499200, Note_on_c, 4, 40, 100
6, 499913, Note_off_c, 4, 40, 80
6, 499920, Note_on_c, 4, 41, 100
6, 500640, Note_on_c, 4, 45, 100
6, 500647, Note_off_c, 4, 41, 80
6, 501120, Note_off_c, 4, 45, 80
6, 501120, Note_on_c, 4, 34, 100
6, 503040, Note_off_c, 4, 34, 80
6, 503040, Note_on_c, 4, 31, 100
6, 503760, Note_off_c, 4, 31, 80
6, 503760, Note_on_c, 4, 33, 100
6, 504960, Note_on_c, 4, 29, 65
6, 504967, Note_off_c, 4, 33, 80
6, 505673, Note_off_c, 4, 29, 64
6, 505920, Note_on_c, 4, 38, 65
6, 506080, Note_off_c, 4, 38, 64
6, 506080, Note_on_c, 4, 38, 65
6, 506240, Note_off_c, 4, 38, 64
6, 506240, Note_on_c, 4, 38, 65
6, 506400, Note_off_c, 4, 38, 64
6, 506400, Note_on_c, 4, 38, 65
6, 506700, Note_off_c, 4, 38, 64
6, 506700, Note_on_c, 4, 38, 65
6, 506880, Note_off_c, 4, 38, 64
6, 506880, Note_on_c, 4, 34, 65
6, 507360, Note_off_c, 4, 34, 64
6, 508140, Note_on_c, 4, 36, 100
6, 508320, Note_on_c, 4, 38, 100
6, 508322, Note_off_c, 4, 36, 64
6, 508800, Note_off_c, 4, 38, 64
6, 508800, Pitch_bend_c, 4, 10192
6, 508800, Note_on_c, 4, 27, 100
6, 508815, Pitch_bend_c, 4, 11192
6, 508830, Pitch_bend_c, 4, 12192
6, 508845, Pitch_bend_c, 4, 13192
6, 508860, Pitch_bend_c, 4, 14192
6, 508875, Pitch_bend_c, 4, 15192
6, 508890, Pitch_bend_c, 4, 16192
6, 509295, Pitch_bend_c, 4, 9192
6, 509310, Pitch_bend_c, 4, 15192
6, 509330, Pitch_bend_c, 4, 14192
6, 509350, Pitch_bend_c, 4, 13192
6, 509370, Pitch_bend_c, 4, 12192
6, 509390, Pitch_bend_c, 4, 11192
6, 509410, Pitch_bend_c, 4, 10192
6, 509430, Pitch_bend_c, 4, 9192
6, 509490, Pitch_bend_c, 4, 8192
6, 509513, Note_off_c, 4, 27, 64
6, 511980, Note_on_c, 4, 36, 100
6, 512160, Note_on_c, 4, 38, 100
6, 512162, Note_off_c, 4, 36, 64
6, 512640, Note_off_c, 4, 38, 64
6, 512640, Note_on_c, 4, 29, 100
6, 513120, Note_off_c, 4, 29, 64
6, 513600, Note_on_c, 4, 38, 100
6, 514080, Note_off_c, 4, 38, 64
6, 514560, Note_on_c, 4, 34, 100
6, 515390, Note_off_c, 4, 34, 64
6, 515520, Note_on_c, 4, 36, 100
6, 516350, Pitch_bend_c, 4, 9192
6, 516365, Pitch_bend_c, 4, 10192
6, 516380, Pitch_bend_c, 4, 11192
6, 516395, Pitch_bend_c, 4, 12192
6, 516410, Pitch_bend_c, 4, 13192
6, 516425, Pitch_bend_c, 4, 14192
6, 516440, Pitch_bend_c, 4, 15192
6, 516455, Pitch_bend_c, 4, 16192
6, 516480, Note_off_c, 4, 36, 64
6, 516480, Note_on_c, 4, 41, 100
6, 516480, Pitch_bend_c, 4, 8192
6, 516960, Note_off_c, 4, 41, 64
6, 517440, Note_on_c, 4, 38, 100
6, 517920, Note_off_c, 4, 38, 64
6, 518400, Note_on_c, 4, 34, 100
6, 518880, Note_off_c, 4, 34, 64
6, 519360, Note_on_c, 4, 36, 100
6, 519840, Note_off_c, 4, 36, 64
6, 520320, Note_on_c, 4, 41, 100
6, 520560, Note_off_c, 4, 41, 64
6, 520800, Note_on_c, 4, 36, 100
6, 521040, Note_off_c, 4, 36, 64
6, 521280, Note_on_c, 4, 41, 100
6, 521520, Note_off_c, 4, 41, 64
6, 521760, Note_on_c, 4, 36, 100
6, 522000, Note_off_c, 4, 36, 64
6, 522240, Note_on_c, 4, 41, 100
6, 522480, Note_off_c, 4, 41, 64
6, 522720, Note_on_c, 4, 36, 100
6, 522960, Note_off_c, 4, 36, 64
6, 523200, Note_on_c, 4, 41, 100
6, 523440, Note_off_c, 4, 41, 64
6, 523680, Note_on_c, 4, 36, 100
6, 523920, Note_off_c, 4, 36, 64
6, 523920, Note_on_c, 4, 41, 100
6, 524160, Note_off_c, 4, 41, 64
6, 524160, Note_on_c, 4, 43, 100
6, 524400, Note_off_c, 4, 43, 64
6, 524640, Note_on_c, 4, 36, 100
6, 524880, Note_off_c, 4, 36, 64
6, 525120, Note_on_c, 4, 43, 100
6, 525360, Note_off_c, 4, 43, 64
6, 525600, Note_on_c, 4, 36, 100
6, 525840, Note_off_c, 4, 36, 64
6, 526080, Note_on_c, 4, 36, 100
6, 526320, Note_off_c, 4, 36, 64
6, 528000, Note_on_c, 4, 36, 100
6, 528240, Note_off_c, 4, 36, 64
6, 529920, Note_on_c, 4, 41, 100
6, 530160, Note_off_c, 4, 41, 64
6, 531360, Note_on_c, 4, 36, 100
6, 531600, Note_off_c, 4, 36, 64
6, 531840, Note_on_c, 4, 41, 100
6, 532080, Note_off_c, 4, 41, 64
6, 532080, End_track
7, 0, Start_track
7, 0, Title_t, "Lead"
7, 0, MIDI_port, 0
7, 0, Channel_prefix, 5
7, 0, Control_c, 5, 7, 94
7, 0, Control_c, 5, 10, 64
7, 0, Program_c, 5, 80
7, 154080, Pitch_bend_c, 5, 192
7, 154080, Note_on_c, 5, 69, 100
7, 154095, Pitch_bend_c, 5, 1192
7, 154110, Pitch_bend_c, 5, 2192
7, 154125, Pitch_bend_c, 5, 3192
7, 154140, Pitch_bend_c, 5, 4192
7, 154155, Pitch_bend_c, 5, 5192
7, 154170, Pitch_bend_c, 5, 6192
7, 154185, Pitch_bend_c, 5, 7192
7, 154200, Pitch_bend_c, 5, 8192
7, 154320, Note_off_c, 5, 69, 64
7, 154320, Note_on_c, 5, 72, 100
7, 154560, Note_off_c, 5, 72, 64
7, 154560, Note_on_c, 5, 74, 100
7, 154800, Note_off_c, 5, 74, 64
7, 154800, Pitch_bend_c, 5, 9192
7, 154800, Note_on_c, 5, 74, 100
7, 154815, Pitch_bend_c, 5, 10192
7, 154830, Pitch_bend_c, 5, 11192
7, 154845, Pitch_bend_c, 5, 12192
7, 154860, Pitch_bend_c, 5, 13192
7, 154875, Pitch_bend_c, 5, 14192
7, 154890, Pitch_bend_c, 5, 15192
7, 154905, Pitch_bend_c, 5, 16192
7, 155040, Pitch_bend_c, 5, 8192
7, 155280, Note_off_c, 5, 74, 64
7, 155280, Note_on_c, 5, 71, 100
7, 155280, Control_c, 5, 1, 127
7, 155320, Pitch_bend_c, 5, 9192
7, 155360, Pitch_bend_c, 5, 10192
7, 155400, Pitch_bend_c, 5, 11192
7, 155440, Pitch_bend_c, 5, 12192
7, 155760, Note_off_c, 5, 71, 64
7, 155760, Note_on_c, 5, 69, 100
7, 155760, Pitch_bend_c, 5, 8192
7, 155760, Control_c, 5, 1, 0
7, 156480, Note_off_c, 5, 69, 64
7, 156480, Note_on_c, 5, 67, 100
7, 156600, Note_off_c, 5, 67, 64
7, 156600, Note_on_c, 5, 64, 100
7, 156720, Note_off_c, 5, 64, 64
7, 156720, Note_on_c, 5, 69, 100
7, 156840, Note_off_c, 5, 69, 64
7, 156840, Note_on_c, 5, 67, 100
7, 156960, Note_off_c, 5, 67, 64
7, 156960, Note_on_c, 5, 64, 100
7, 157080, Note_off_c, 5, 64, 64
7, 157080, Note_on_c, 5, 62, 100
7, 157200, Note_off_c, 5, 62, 64
7, 157200, Note_on_c, 5, 60, 100
7, 157320, Note_off_c, 5, 60, 64
7, 157320, Note_on_c, 5, 62, 100
7, 157440, Note_off_c, 5, 62, 64
7, 157440, Note_on_c, 5, 64, 100
7, 157560, Note_off_c, 5, 64, 64
7, 157560, Note_on_c, 5, 60, 100
7, 157803, Note_on_c, 5, 57, 100
7, 157806, Note_off_c, 5, 60, 64
7, 157923, Note_off_c, 5, 57, 64
7, 157923, Note_on_c, 5, 60, 100
7, 158043, Note_off_c, 5, 60, 64
7, 158043, Note_on_c, 5, 57, 100
7, 158163, Note_off_c, 5, 57, 64
7, 158163, Note_on_c, 5, 62, 100
7, 158283, Note_off_c, 5, 62, 64
7, 158283, Note_on_c, 5, 60, 100
7, 158403, Note_off_c, 5, 60, 64
7, 158403, Note_on_c, 5, 57, 100
7, 158523, Note_off_c, 5, 57, 64
7, 158523, Note_on_c, 5, 55, 100
7, 158643, Note_off_c, 5, 55, 64
7, 158643, Note_on_c, 5, 52, 100
7, 158760, Pitch_bend_c, 5, 9192
7, 158763, Note_off_c, 5, 52, 64
7, 158763, Note_on_c, 5, 55, 100
7, 158775, Pitch_bend_c, 5, 10192
7, 158790, Pitch_bend_c, 5, 11192
7, 158805, Pitch_bend_c, 5, 12192
7, 158820, Pitch_bend_c, 5, 13192
7, 158835, Pitch_bend_c, 5, 14192
7, 158850, Pitch_bend_c, 5, 15192
7, 158865, Pitch_bend_c, 5, 16192
7, 158997, Note_off_c, 5, 55, 64
7, 159000, Pitch_bend_c, 5, 9192
7, 159000, Note_on_c, 5, 55, 100
7, 159015, Pitch_bend_c, 5, 10192
7, 159030, Pitch_bend_c, 5, 11192
7, 159045, Pitch_bend_c, 5, 12192
7, 159060, Pitch_bend_c, 5, 13192
7, 159075, Pitch_bend_c, 5, 14192
7, 159090, Pitch_bend_c, 5, 15192
7, 159105, Pitch_bend_c, 5, 16192
7, 159840, Pitch_bend_c, 5, 8192
7, 160080, Note_on_c, 5, 52, 100
7, 160090, Note_off_c, 5, 55, 64
7, 160160, Note_off_c, 5, 52, 64
7, 160160, Note_on_c, 5, 55, 100
7, 160240, Note_off_c, 5, 55, 64
7, 160240, Note_on_c, 5, 57, 100
7, 160320, Note_off_c, 5, 57, 64
7, 160320, Note_on_c, 5, 60, 100
7, 160400, Note_off_c, 5, 60, 64
7, 160400, Note_on_c, 5, 62, 100
7, 160480, Note_off_c, 5, 62, 64
7, 160480, Note_on_c, 5, 64, 100
7, 160560, Note_off_c, 5, 64, 64
7, 160560, Note_on_c, 5, 60, 100
7, 160640, Note_off_c, 5, 60, 64
7, 160640, Note_on_c, 5, 62, 100
7, 160720, Note_off_c, 5, 62, 64
7, 160720, Note_on_c, 5, 64, 100
7, 160800, Note_off_c, 5, 64, 64
7, 160800, Note_on_c, 5, 67, 100
7, 160880, Note_off_c, 5, 67, 64
7, 160880, Note_on_c, 5, 69, 100
7, 160960, Note_off_c, 5, 69, 64
7, 160960, Note_on_c, 5, 72, 100
7, 161040, Note_off_c, 5, 72, 64
7, 161040, Note_on_c, 5, 67, 100
7, 161120, Note_off_c, 5, 67, 64
7, 161120, Note_on_c, 5, 69, 100
7, 161200, Note_off_c, 5, 69, 64
7, 161200, Note_on_c, 5, 72, 100
7, 161280, Note_off_c, 5, 72, 64
7, 161280, Note_on_c, 5, 74, 100
7, 161360, Note_off_c, 5, 74, 64
7, 161360, Note_on_c, 5, 76, 100
7, 161440, Note_off_c, 5, 76, 64
7, 161440, Note_on_c, 5, 79, 100
7, 161520, Note_off_c, 5, 79, 64
7, 161520, Note_on_c, 5, 74, 100
7, 161600, Note_off_c, 5, 74, 64
7, 161600, Note_on_c, 5, 76, 100
7, 161680, Note_off_c, 5, 76, 64
7, 161680, Note_on_c, 5, 79, 100
7, 161760, Note_off_c, 5, 79, 64
7, 161760, Note_on_c, 5, 81, 100
7, 161840, Note_off_c, 5, 81, 64
7, 161840, Note_on_c, 5, 84, 100
7, 161920, Note_off_c, 5, 84, 64
7, 161920, Note_on_c, 5, 86, 100
7, 162000, Note_off_c, 5, 86, 64
7, 162000, Pitch_bend_c, 5, 9192
7, 162000, Note_on_c, 5, 84, 100
7, 162015, Pitch_bend_c, 5, 10192
7, 162030, Pitch_bend_c, 5, 11192
7, 162045, Pitch_bend_c, 5, 12192
7, 162060, Pitch_bend_c, 5, 13192
7, 162075, Pitch_bend_c, 5, 14192
7, 162090, Pitch_bend_c, 5, 15192
7, 162105, Pitch_bend_c, 5, 16192
7, 162960, Note_off_c, 5, 84, 64
7, 162960, Pitch_bend_c, 5, 8192
7, 162960, Pitch_bend_c, 5, 9192
7, 162960, Note_on_c, 5, 84, 100
7, 162975, Pitch_bend_c, 5, 10192
7, 162990, Pitch_bend_c, 5, 11192
7, 163005, Pitch_bend_c, 5, 12192
7, 163020, Pitch_bend_c, 5, 13192
7, 163035, Pitch_bend_c, 5, 14192
7, 163050, Pitch_bend_c, 5, 15192
7, 163065, Pitch_bend_c, 5, 16192
7, 163080, Pitch_bend_c, 5, 8192
7, 163193, Note_off_c, 5, 84, 64
7, 163200, Note_on_c, 5, 81, 100
7, 163320, Note_off_c, 5, 81, 64
7, 163360, Pitch_bend_c, 5, 9192
7, 163360, Note_on_c, 5, 91, 100
7, 163375, Pitch_bend_c, 5, 10192
7, 163390, Pitch_bend_c, 5, 11192
7, 163405, Pitch_bend_c, 5, 12192
7, 163420, Pitch_bend_c, 5, 13192
7, 163435, Pitch_bend_c, 5, 14192
7, 163450, Pitch_bend_c, 5, 15192
7, 163465, Pitch_bend_c, 5, 16192
7, 163680, Note_off_c, 5, 91, 64
7, 163680, Pitch_bend_c, 5, 8192
7, 163680, Note_on_c, 5, 91, 100
7, 163920, Note_off_c, 5, 91, 64
7, 163920, Note_on_c, 5, 88, 100
7, 164040, Note_off_c, 5, 88, 64
7, 164040, Note_on_c, 5, 86, 100
7, 164160, Note_off_c, 5, 86, 64
7, 164160, Note_on_c, 5, 84, 100
7, 164280, Note_off_c, 5, 84, 64
7, 164280, Note_on_c, 5, 81, 100
7, 164400, Note_off_c, 5, 81, 64
7, 164400, Note_on_c, 5, 86, 100
7, 164520, Note_off_c, 5, 86, 64
7, 164520, Note_on_c, 5, 81, 100
7, 164640, Note_off_c, 5, 81, 64
7, 164640, Note_on_c, 5, 79, 100
7, 164760, Note_off_c, 5, 79, 64
7, 164760, Note_on_c, 5, 76, 100
7, 164880, Note_off_c, 5, 76, 64
7, 164880, Note_on_c, 5, 84, 100
7, 165000, Note_off_c, 5, 84, 64
7, 165000, Note_on_c, 5, 83, 100
7, 165120, Note_off_c, 5, 83, 64
7, 165120, Note_on_c, 5, 82, 100
7, 165240, Note_off_c, 5, 82, 64
7, 165240, Note_on_c, 5, 81, 100
7, 165360, Note_off_c, 5, 81, 64
7, 165360, Note_on_c, 5, 79, 100
7, 165480, Note_off_c, 5, 79, 64
7, 165480, Note_on_c, 5, 81, 100
7, 165600, Note_off_c, 5, 81, 64
7, 165600, Note_on_c, 5, 76, 100
7, 165720, Note_off_c, 5, 76, 64
7, 165720, Note_on_c, 5, 81, 100
7, 165840, Note_off_c, 5, 81, 64
7, 165840, Note_on_c, 5, 79, 100
7, 165960, Note_off_c, 5, 79, 64
7, 165960, Note_on_c, 5, 76, 100
7, 166080, Note_off_c, 5, 76, 64
7, 166080, Note_on_c, 5, 75, 100
7, 166200, Note_off_c, 5, 75, 64
7, 166200, Note_on_c, 5, 74, 100
7, 166320, Note_off_c, 5, 74, 64
7, 166320, Note_on_c, 5, 72, 100
7, 166440, Note_off_c, 5, 72, 64
7, 166440, Note_on_c, 5, 69, 100
7, 166560, Note_off_c, 5, 69, 64
7, 166560, Note_on_c, 5, 67, 100
7, 166680, Note_off_c, 5, 67, 64
7, 166680, Pitch_bend_c, 5, 9192
7, 166680, Note_on_c, 5, 72, 100
7, 166695, Pitch_bend_c, 5, 10192
7, 166710, Pitch_bend_c, 5, 11192
7, 166725, Pitch_bend_c, 5, 12192
7, 166740, Pitch_bend_c, 5, 13192
7, 166755, Pitch_bend_c, 5, 14192
7, 166770, Pitch_bend_c, 5, 15192
7, 166785, Pitch_bend_c, 5, 16192
7, 166935, Pitch_bend_c, 5, 15192
7, 166950, Pitch_bend_c, 5, 14192
7, 166965, Pitch_bend_c, 5, 13192
7, 166980, Pitch_bend_c, 5, 12192
7, 166995, Pitch_bend_c, 5, 11192
7, 167010, Pitch_bend_c, 5, 10192
7, 167025, Pitch_bend_c, 5, 9192
7, 167040, Pitch_bend_c, 5, 8192
7, 167520, Note_on_c, 5, 69, 100
7, 167523, Note_off_c, 5, 72, 64
7, 167640, Note_off_c, 5, 69, 64
7, 167640, Note_on_c, 5, 64, 100
7, 167760, Note_off_c, 5, 64, 64
7, 167760, Note_on_c, 5, 67, 100
7, 167880, Note_off_c, 5, 67, 64
7, 167880, Note_on_c, 5, 69, 100
7, 168000, Note_off_c, 5, 69, 64
7, 168000, Note_on_c, 5, 64, 100
7, 168120, Note_off_c, 5, 64, 64
7, 168120, Note_on_c, 5, 62, 100
7, 168240, Note_off_c, 5, 62, 64
7, 168240, Note_on_c, 5, 60, 100
7, 168360, Note_off_c, 5, 60, 64
7, 168360, Note_on_c, 5, 64, 100
7, 168480, Note_off_c, 5, 64, 64
7, 168480, Note_on_c, 5, 62, 100
7, 168960, Note_off_c, 5, 62, 64
7, 168960, Note_on_c, 5, 57, 100
7, 169080, Note_off_c, 5, 57, 64
7, 169080, Note_on_c, 5, 62, 100
7, 169200, Note_off_c, 5, 62, 64
7, 169200, Note_on_c, 5, 66, 100
7, 169320, Note_off_c, 5, 66, 64
7, 169320, Note_on_c, 5, 67, 100
7, 169440, Note_off_c, 5, 67, 64
7, 169440, Note_on_c, 5, 66, 100
7, 169560, Note_off_c, 5, 66, 64
7, 169560, Note_on_c, 5, 62, 100
7, 169680, Note_off_c, 5, 62, 64
7, 169680, Note_on_c, 5, 57, 100
7, 169760, Note_off_c, 5, 57, 64
7, 169760, Note_on_c, 5, 55, 100
7, 169840, Note_off_c, 5, 55, 64
7, 169840, Note_on_c, 5, 54, 100
7, 169920, Note_off_c, 5, 54, 64
7, 169920, Note_on_c, 5, 57, 100
7, 170040, Note_off_c, 5, 57, 64
7, 170040, Note_on_c, 5, 62, 100
7, 170160, Note_off_c, 5, 62, 64
7, 170170, Note_on_c, 5, 74, 100
7, 170290, Note_off_c, 5, 74, 64
7, 170290, Note_on_c, 5, 69, 100
7, 170410, Note_off_c, 5, 69, 64
7, 170410, Note_on_c, 5, 66, 100
7, 170530, Note_off_c, 5, 66, 64
7, 170530, Note_on_c, 5, 62, 100
7, 170640, Pitch_bend_c, 5, 9192
7, 170640, Note_on_c, 5, 50, 100
7, 170650, Note_off_c, 5, 62, 64
7, 170655, Pitch_bend_c, 5, 10192
7, 170670, Pitch_bend_c, 5, 11192
7, 170685, Pitch_bend_c, 5, 12192
7, 170700, Pitch_bend_c, 5, 13192
7, 170715, Pitch_bend_c, 5, 14192
7, 170730, Pitch_bend_c, 5, 15192
7, 170745, Pitch_bend_c, 5, 16192
7, 170880, Pitch_bend_c, 5, 9192
7, 170895, Pitch_bend_c, 5, 10192
7, 170910, Pitch_bend_c, 5, 11192
7, 170925, Pitch_bend_c, 5, 12192
7, 170940, Pitch_bend_c, 5, 13192
7, 170955, Pitch_bend_c, 5, 14192
7, 170970, Pitch_bend_c, 5, 15192
7, 170985, Pitch_bend_c, 5, 16192
7, 171600, Pitch_bend_c, 5, 9192
7, 171615, Pitch_bend_c, 5, 10192
7, 171630, Pitch_bend_c, 5, 11192
7, 171645, Pitch_bend_c, 5, 12192
7, 171660, Pitch_bend_c, 5, 13192
7, 171675, Pitch_bend_c, 5, 14192
7, 171690, Pitch_bend_c, 5, 15192
7, 171705, Pitch_bend_c, 5, 16192
7, 171840, Pitch_bend_c, 5, 8192
7, 172080, Note_off_c, 5, 50, 64
7, 172080, Note_on_c, 5, 48, 100
7, 172320, Note_off_c, 5, 48, 64
7, 172320, Note_on_c, 5, 50, 100
7, 172800, Note_off_c, 5, 50, 64
7, 172800, Note_on_c, 5, 45, 100
7, 172880, Note_off_c, 5, 45, 64
7, 172880, Note_on_c, 5, 50, 100
7, 172960, Note_off_c, 5, 50, 64
7, 172960, Note_on_c, 5, 54, 100
7, 173040, Note_off_c, 5, 54, 64
7, 173040, Note_on_c, 5, 57, 100
7, 173120, Note_off_c, 5, 57, 64
7, 173120, Note_on_c, 5, 62, 100
7, 173200, Note_off_c, 5, 62, 64
7, 173200, Note_on_c, 5, 69, 100
7, 173280, Note_off_c, 5, 69, 64
7, 173280, Note_on_c, 5, 62, 100
7, 173360, Note_off_c, 5, 62, 64
7, 173360, Note_on_c, 5, 57, 100
7, 173440, Note_off_c, 5, 57, 64
7, 173440, Note_on_c, 5, 62, 100
7, 173520, Note_off_c, 5, 62, 64
7, 173520, Note_on_c, 5, 66, 100
7, 173600, Note_off_c, 5, 66, 64
7, 173600, Note_on_c, 5, 69, 100
7, 173640, Note_off_c, 5, 69, 64
7, 173640, Note_on_c, 5, 74, 100
7, 173680, Note_off_c, 5, 74, 64
7, 173680, Note_on_c, 5, 81, 100
7, 173720, Note_off_c, 5, 81, 64
7, 173720, Note_on_c, 5, 78, 100
7, 173760, Note_off_c, 5, 78, 64
7, 173760, Note_on_c, 5, 74, 100
7, 173800, Note_off_c, 5, 74, 64
7, 173800, Note_on_c, 5, 69, 100
7, 173840, Note_off_c, 5, 69, 64
7, 173840, Note_on_c, 5, 67, 100
7, 173870, Note_off_c, 5, 67, 64
7, 173880, Note_on_c, 5, 69, 100
7, 173910, Note_off_c, 5, 69, 64
7, 173920, Note_on_c, 5, 67, 100
7, 173950, Note_off_c, 5, 67, 64
7, 173960, Note_on_c, 5, 66, 100
7, 173990, Note_off_c, 5, 66, 64
7, 174000, Note_on_c, 5, 64, 100
7, 174080, Note_off_c, 5, 64, 64
7, 174080, Note_on_c, 5, 69, 100
7, 174160, Note_off_c, 5, 69, 64
7, 174160, Note_on_c, 5, 72, 100
7, 174240, Note_off_c, 5, 72, 64
7, 174240, Note_on_c, 5, 76, 100
7, 174320, Note_off_c, 5, 76, 64
7, 174320, Note_on_c, 5, 81, 100
7, 174400, Note_off_c, 5, 81, 64
7, 174400, Note_on_c, 5, 84, 100
7, 174480, Note_off_c, 5, 84, 64
7, 174480, Note_on_c, 5, 86, 100
7, 174480, Pitch_bend_c, 5, 9192
7, 174495, Pitch_bend_c, 5, 10192
7, 174510, Pitch_bend_c, 5, 11192
7, 174525, Pitch_bend_c, 5, 12192
7, 174540, Pitch_bend_c, 5, 13192
7, 174555, Pitch_bend_c, 5, 14192
7, 174570, Pitch_bend_c, 5, 15192
7, 174585, Pitch_bend_c, 5, 16192
7, 174960, Pitch_bend_c, 5, 9192
7, 174975, Pitch_bend_c, 5, 10192
7, 174990, Pitch_bend_c, 5, 11192
7, 175005, Pitch_bend_c, 5, 12192
7, 175020, Pitch_bend_c, 5, 13192
7, 175035, Pitch_bend_c, 5, 14192
7, 175050, Pitch_bend_c, 5, 15192
7, 175065, Pitch_bend_c, 5, 16192
7, 175440, Note_off_c, 5, 86, 64
7, 175440, Pitch_bend_c, 5, 9192
7, 175440, Note_on_c, 5, 74, 100
7, 175455, Pitch_bend_c, 5, 10192
7, 175470, Pitch_bend_c, 5, 11192
7, 175485, Pitch_bend_c, 5, 12192
7, 175500, Pitch_bend_c, 5, 13192
7, 175515, Pitch_bend_c, 5, 14192
7, 175530, Pitch_bend_c, 5, 15192
7, 175545, Pitch_bend_c, 5, 16192
7, 175680, Pitch_bend_c, 5, 8192
7, 175920, Note_off_c, 5, 74, 64
7, 175920, Note_on_c, 5, 72, 100
7, 176160, Note_off_c, 5, 72, 64
7, 176160, Note_on_c, 5, 69, 100
7, 176880, Note_on_c, 5, 67, 100
7, 176887, Note_off_c, 5, 69, 64
7, 177120, Note_off_c, 5, 67, 64
7, 177120, Note_on_c, 5, 64, 100
7, 177360, Note_off_c, 5, 64, 64
7, 177360, Note_on_c, 5, 74, 100
7, 177360, Pitch_bend_c, 5, 9192
7, 177375, Pitch_bend_c, 5, 10192
7, 177390, Pitch_bend_c, 5, 11192
7, 177405, Pitch_bend_c, 5, 12192
7, 177420, Pitch_bend_c, 5, 13192
7, 177435, Pitch_bend_c, 5, 14192
7, 177450, Pitch_bend_c, 5, 15192
7, 177465, Pitch_bend_c, 5, 16192
7, 177593, Note_off_c, 5, 74, 64
7, 177600, Pitch_bend_c, 5, 8192
7, 177600, Note_on_c, 5, 72, 100
7, 177840, Note_off_c, 5, 72, 64
7, 177840, Note_on_c, 5, 69, 100
7, 178320, Note_off_c, 5, 69, 64
7, 178320, Pitch_bend_c, 5, 9192
7, 178320, Note_on_c, 5, 62, 100
7, 178320, Pitch_bend_c, 5, 8192
7, 178335, Pitch_bend_c, 5, 10192
7, 178350, Pitch_bend_c, 5, 11192
7, 178365, Pitch_bend_c, 5, 12192
7, 178380, Pitch_bend_c, 5, 13192
7, 178395, Pitch_bend_c, 5, 14192
7, 178410, Pitch_bend_c, 5, 15192
7, 178425, Pitch_bend_c, 5, 16192
7, 178798, Pitch_bend_c, 5, 8192
7, 178800, Note_off_c, 5, 62, 64
7, 178800, Note_on_c, 5, 67, 100
7, 179040, Note_off_c, 5, 67, 64
7, 179040, Note_on_c, 5, 69, 100
7, 179280, Note_off_c, 5, 69, 64
7, 179280, Pitch_bend_c, 5, 9192
7, 179280, Note_on_c, 5, 62, 100
7, 179295, Pitch_bend_c, 5, 10192
7, 179310, Pitch_bend_c, 5, 11192
7, 179325, Pitch_bend_c, 5, 12192
7, 179340, Pitch_bend_c, 5, 13192
7, 179355, Pitch_bend_c, 5, 14192
7, 179370, Pitch_bend_c, 5, 15192
7, 179385, Pitch_bend_c, 5, 16192
7, 179520, Pitch_bend_c, 5, 8192
7, 179760, Note_off_c, 5, 62, 64
7, 179760, Note_on_c, 5, 60, 100
7, 180000, Note_off_c, 5, 60, 64
7, 180000, Note_on_c, 5, 62, 100
7, 180480, Note_off_c, 5, 62, 64
7, 180480, Note_on_c, 5, 57, 100
7, 180600, Note_off_c, 5, 57, 64
7, 180600, Note_on_c, 5, 62, 100
7, 180720, Note_off_c, 5, 62, 64
7, 180720, Note_on_c, 5, 57, 100
7, 180840, Note_off_c, 5, 57, 64
7, 180840, Note_on_c, 5, 66, 100
7, 180960, Pitch_bend_c, 5, 9192
7, 180975, Pitch_bend_c, 5, 10192
7, 180990, Pitch_bend_c, 5, 11192
7, 181005, Pitch_bend_c, 5, 12192
7, 181074, Note_off_c, 5, 66, 64
7, 181080, Note_on_c, 5, 62, 100
7, 181080, Pitch_bend_c, 5, 8192
7, 181200, Note_off_c, 5, 62, 64
7, 181200, Note_on_c, 5, 57, 100
7, 181320, Note_off_c, 5, 57, 64
7, 181320, Note_on_c, 5, 55, 100
7, 181440, Note_off_c, 5, 55, 64
7, 181440, Note_on_c, 5, 54, 100
7, 181560, Note_off_c, 5, 54, 64
7, 181560, Note_on_c, 5, 55, 100
7, 181684, Note_on_c, 5, 52, 100
7, 181690, Note_off_c, 5, 55, 64
7, 181804, Note_off_c, 5, 52, 64
7, 181804, Note_on_c, 5, 55, 100
7, 181924, Note_off_c, 5, 55, 64
7, 181924, Note_on_c, 5, 52, 100
7, 182044, Note_off_c, 5, 52, 64
7, 182044, Note_on_c, 5, 50, 100
7, 182164, Note_off_c, 5, 50, 64
7, 182164, Note_on_c, 5, 48, 100
7, 182640, Note_on_c, 5, 45, 100
7, 182644, Note_off_c, 5, 48, 64
7, 182880, Note_off_c, 5, 45, 64
7, 182880, Note_on_c, 5, 48, 100
7, 183120, Note_off_c, 5, 48, 64
7, 183120, Pitch_bend_c, 5, 9192
7, 183120, Note_on_c, 5, 50, 100
7, 183135, Pitch_bend_c, 5, 10192
7, 183150, Pitch_bend_c, 5, 11192
7, 183165, Pitch_bend_c, 5, 12192
7, 183180, Pitch_bend_c, 5, 13192
7, 183195, Pitch_bend_c, 5, 14192
7, 183210, Pitch_bend_c, 5, 15192
7, 183225, Pitch_bend_c, 5, 16192
7, 183360, Pitch_bend_c, 5, 8192
7, 183600, Note_off_c, 5, 50, 64
7, 183600, Note_on_c, 5, 48, 100
7, 183840, Note_off_c, 5, 48, 64
7, 183840, Note_on_c, 5, 45, 100
7, 184320, Note_off_c, 5, 45, 64
7, 184320, Note_on_c, 5, 50, 100
7, 184400, Note_off_c, 5, 50, 64
7, 184400, Note_on_c, 5, 54, 100
7, 184480, Note_off_c, 5, 54, 64
7, 184480, Note_on_c, 5, 57, 100
7, 184560, Note_off_c, 5, 57, 64
7, 184560, Note_on_c, 5, 62, 100
7, 184640, Note_off_c, 5, 62, 64
7, 184640, Note_on_c, 5, 69, 100
7, 184720, Note_off_c, 5, 69, 64
7, 184720, Note_on_c, 5, 62, 100
7, 184800, Note_off_c, 5, 62, 64
7, 184800, Note_on_c, 5, 57, 100
7, 184880, Note_off_c, 5, 57, 64
7, 184880, Note_on_c, 5, 55, 100
7, 184960, Note_off_c, 5, 55, 64
7, 184960, Note_on_c, 5, 54, 100
7, 185040, Note_off_c, 5, 54, 64
7, 185040, Note_on_c, 5, 52, 100
7, 185120, Note_off_c, 5, 52, 64
7, 185120, Note_on_c, 5, 57, 100
7, 185200, Note_off_c, 5, 57, 64
7, 185200, Note_on_c, 5, 60, 100
7, 185280, Note_off_c, 5, 60, 64
7, 185280, Note_on_c, 5, 64, 100
7, 185360, Note_off_c, 5, 64, 64
7, 185360, Note_on_c, 5, 72, 100
7, 185440, Note_off_c, 5, 72, 64
7, 185440, Note_on_c, 5, 64, 100
7, 185520, Note_off_c, 5, 64, 64
7, 185520, Note_on_c, 5, 69, 100
7, 185600, Note_off_c, 5, 69, 64
7, 185600, Note_on_c, 5, 72, 100
7, 185680, Note_off_c, 5, 72, 64
7, 185680, Note_on_c, 5, 74, 100
7, 185760, Note_off_c, 5, 74, 64
7, 185760, Note_on_c, 5, 76, 100
7, 185840, Note_off_c, 5, 76, 64
7, 185840, Note_on_c, 5, 81, 100
7, 185920, Note_off_c, 5, 81, 64
7, 185920, Note_on_c, 5, 84, 100
7, 186000, Note_off_c, 5, 84, 64
7, 186000, Pitch_bend_c, 5, 9192
7, 186000, Note_on_c, 5, 88, 90
7, 186015, Pitch_bend_c, 5, 10192
7, 186030, Pitch_bend_c, 5, 11192
7, 186045, Pitch_bend_c, 5, 12192
7, 186060, Pitch_bend_c, 5, 13192
7, 186075, Pitch_bend_c, 5, 14192
7, 186090, Pitch_bend_c, 5, 15192
7, 186105, Pitch_bend_c, 5, 16192
7, 186480, Control_c, 5, 1, 127
7, 189840, Note_off_c, 5, 88, 64
7, 245520, Pitch_bend_c, 5, 8192
7, 247200, Note_on_c, 5, 68, 120
7, 247342, Pitch_bend_c, 5, 8474
7, 247352, Pitch_bend_c, 5, 8756
7, 247361, Pitch_bend_c, 5, 9039
7, 247371, Pitch_bend_c, 5, 9321
7, 247380, Pitch_bend_c, 5, 9604
7, 247390, Pitch_bend_c, 5, 10028
7, 247392, Control_c, 5, 1, 1
7, 247400, Pitch_bend_c, 5, 10239
7, 247409, Pitch_bend_c, 5, 10522
7, 247412, Control_c, 5, 1, 4
7, 247419, Pitch_bend_c, 5, 10804
7, 247428, Pitch_bend_c, 5, 11087
7, 247431, Control_c, 5, 1, 7
7, 247438, Pitch_bend_c, 5, 11369
7, 247448, Pitch_bend_c, 5, 11652
7, 247450, Control_c, 5, 1, 8
7, 247457, Pitch_bend_c, 5, 11793
7, 247469, Pitch_bend_c, 5, 11934
7, 247474, Control_c, 5, 1, 9
7, 247479, Pitch_bend_c, 5, 12005
7, 247491, Control_c, 5, 1, 12
7, 247515, Pitch_bend_c, 5, 11864
7, 247524, Pitch_bend_c, 5, 11581
7, 247527, Control_c, 5, 1, 12
7, 247534, Pitch_bend_c, 5, 11158
7, 247544, Pitch_bend_c, 5, 10734
7, 247548, Control_c, 5, 1, 13
7, 247553, Pitch_bend_c, 5, 10451
7, 247560, Pitch_bend_c, 5, 10098
7, 247560, Pitch_bend_c, 5, 9745
7, 247560, Control_c, 5, 1, 15
7, 247584, Pitch_bend_c, 5, 9463
7, 247594, Pitch_bend_c, 5, 9251
7, 247604, Pitch_bend_c, 5, 8968
7, 247606, Control_c, 5, 1, 17
7, 247613, Pitch_bend_c, 5, 8756
7, 247620, Pitch_bend_c, 5, 8615
7, 247623, Control_c, 5, 1, 19
7, 247630, Pitch_bend_c, 5, 8403
7, 247640, Pitch_bend_c, 5, 8262
7, 247640, Control_c, 5, 1, 20
7, 247661, Pitch_bend_c, 5, 8403
7, 247661, Control_c, 5, 1, 20
7, 247668, Pitch_bend_c, 5, 8545
7, 247678, Pitch_bend_c, 5, 8827
7, 247700, Pitch_bend_c, 5, 9039
7, 247702, Control_c, 5, 1, 22
7, 247709, Pitch_bend_c, 5, 9392
7, 247719, Pitch_bend_c, 5, 9604
7, 247721, Control_c, 5, 1, 23
7, 247728, Pitch_bend_c, 5, 9816
7, 247736, Pitch_bend_c, 5, 10098
7, 247755, Pitch_bend_c, 5, 10310
7, 247788, Pitch_bend_c, 5, 10451
7, 247796, Pitch_bend_c, 5, 10593
7, 247796, Control_c, 5, 1, 24
7, 247815, Pitch_bend_c, 5, 10663
7, 247834, Pitch_bend_c, 5, 10804
7, 247836, Control_c, 5, 1, 26
7, 247853, Pitch_bend_c, 5, 10875
7, 247870, Control_c, 5, 1, 28
7, 247901, Pitch_bend_c, 5, 10804
7, 247904, Pitch_bend_c, 5, 10593
7, 247920, Pitch_bend_c, 5, 10381
7, 247930, Pitch_bend_c, 5, 10169
7, 247940, Pitch_bend_c, 5, 9745
7, 247949, Pitch_bend_c, 5, 9251
7, 247959, Pitch_bend_c, 5, 8756
7, 247968, Pitch_bend_c, 5, 8262
7, 247976, Pitch_bend_c, 5, 8192
7, 248021, Pitch_bend_c, 5, 8474
7, 248021, Pitch_bend_c, 5, 9039
7, 248021, Pitch_bend_c, 5, 9604
7, 248021, Pitch_bend_c, 5, 10239
7, 248021, Pitch_bend_c, 5, 10875
7, 248021, Pitch_bend_c, 5, 11511
7, 248021, Control_c, 5, 1, 28
7, 248180, Pitch_bend_c, 5, 11934
7, 248199, Pitch_bend_c, 5, 12429
7, 248204, Pitch_bend_c, 5, 12852
7, 248208, Pitch_bend_c, 5, 13206
7, 248218, Pitch_bend_c, 5, 13417
7, 248228, Pitch_bend_c, 5, 13559
7, 248247, Pitch_bend_c, 5, 13417
7, 248256, Pitch_bend_c, 5, 13135
7, 248259, Control_c, 5, 1, 30
7, 248266, Pitch_bend_c, 5, 12570
7, 248276, Pitch_bend_c, 5, 11652
7, 248278, Control_c, 5, 1, 31
7, 248285, Pitch_bend_c, 5, 10522
7, 248292, Pitch_bend_c, 5, 9039
7, 248302, Pitch_bend_c, 5, 8192
7, 248302, Pitch_bend_c, 5, 8050
7, 248324, Pitch_bend_c, 5, 7627
7, 248336, Control_c, 5, 1, 32
7, 248343, Pitch_bend_c, 5, 8192
7, 248352, Pitch_bend_c, 5, 8686
7, 248360, Pitch_bend_c, 5, 10239
7, 248369, Pitch_bend_c, 5, 11793
7, 248379, Pitch_bend_c, 5, 12852
7, 248391, Pitch_bend_c, 5, 13559
7, 248400, Pitch_bend_c, 5, 13771
7, 248410, Pitch_bend_c, 5, 13629
7, 248420, Pitch_bend_c, 5, 13276
7, 248429, Pitch_bend_c, 5, 12852
7, 248432, Control_c, 5, 1, 32
7, 248439, Pitch_bend_c, 5, 12711
7, 248448, Pitch_bend_c, 5, 12429
7, 248456, Pitch_bend_c, 5, 10946
7, 248465, Pitch_bend_c, 5, 8474
7, 248475, Pitch_bend_c, 5, 8192
7, 248832, Pitch_bend_c, 5, 8686
7, 248835, Pitch_bend_c, 5, 9251
7, 248854, Pitch_bend_c, 5, 10028
7, 248861, Pitch_bend_c, 5, 10593
7, 248873, Pitch_bend_c, 5, 10946
7, 248880, Note_on_c, 5, 66, 100
7, 248887, Note_off_c, 5, 68, 64
7, 248890, Pitch_bend_c, 5, 10734
7, 248902, Pitch_bend_c, 5, 10028
7, 248909, Pitch_bend_c, 5, 8756
7, 248919, Pitch_bend_c, 5, 8192
7, 248928, Pitch_bend_c, 5, 7627
7, 248931, Pitch_bend_c, 5, 7203
7, 248950, Pitch_bend_c, 5, 7344
7, 248957, Pitch_bend_c, 5, 8050
7, 248967, Pitch_bend_c, 5, 8474
7, 248976, Pitch_bend_c, 5, 9816
7, 248986, Pitch_bend_c, 5, 10946
7, 248993, Pitch_bend_c, 5, 11652
7, 249005, Pitch_bend_c, 5, 11087
7, 249015, Pitch_bend_c, 5, 9110
7, 249024, Pitch_bend_c, 5, 8192
7, 249120, Note_off_c, 5, 66, 64
7, 249120, Note_on_c, 5, 66, 100
7, 249480, Note_off_c, 5, 66, 64
7, 249480, Note_on_c, 5, 64, 100
7, 249600, Note_off_c, 5, 64, 64
7, 249600, Note_on_c, 5, 69, 100
7, 249720, Note_off_c, 5, 69, 64
7, 249720, Note_on_c, 5, 66, 100
7, 249840, Note_off_c, 5, 66, 64
7, 249840, Note_on_c, 5, 64, 100
7, 249960, Note_off_c, 5, 64, 64
7, 249960, Note_on_c, 5, 61, 100
7, 250080, Note_off_c, 5, 61, 64
7, 250080, Note_on_c, 5, 59, 100
7, 250200, Note_off_c, 5, 59, 64
7, 250200, Note_on_c, 5, 64, 100
7, 250320, Note_off_c, 5, 64, 64
7, 250320, Pitch_bend_c, 5, 9192
7, 250320, Note_on_c, 5, 59, 100
7, 250335, Pitch_bend_c, 5, 10192
7, 250350, Pitch_bend_c, 5, 11192
7, 250365, Pitch_bend_c, 5, 12192
7, 250380, Pitch_bend_c, 5, 13192
7, 250395, Pitch_bend_c, 5, 14192
7, 250410, Pitch_bend_c, 5, 15192
7, 250425, Pitch_bend_c, 5, 16192
7, 250440, Pitch_bend_c, 5, 8192
7, 250560, Note_off_c, 5, 59, 64
7, 250560, Note_on_c, 5, 57, 100
7, 250680, Note_off_c, 5, 57, 64
7, 250680, Note_on_c, 5, 61, 100
7, 250800, Note_off_c, 5, 61, 64
7, 250800, Note_on_c, 5, 59, 100
7, 250920, Note_off_c, 5, 59, 64
7, 250920, Note_on_c, 5, 57, 100
7, 251040, Note_off_c, 5, 57, 64
7, 251040, Note_on_c, 5, 54, 100
7, 251400, Note_off_c, 5, 54, 64
7, 251400, Note_on_c, 5, 52, 100
7, 251520, Note_off_c, 5, 52, 64
7, 251520, Note_on_c, 5, 57, 100
7, 251640, Note_off_c, 5, 57, 64
7, 251640, Note_on_c, 5, 54, 100
7, 251760, Note_off_c, 5, 54, 64
7, 251760, Note_on_c, 5, 59, 100
7, 251880, Note_off_c, 5, 59, 64
7, 251880, Note_on_c, 5, 57, 100
7, 252000, Note_off_c, 5, 57, 64
7, 252000, Note_on_c, 5, 61, 100
7, 252120, Note_off_c, 5, 61, 64
7, 252120, Note_on_c, 5, 57, 100
7, 252240, Note_off_c, 5, 57, 64
7, 252240, Note_on_c, 5, 59, 100
7, 252240, Pitch_bend_c, 5, 9192
7, 252255, Pitch_bend_c, 5, 10192
7, 252270, Pitch_bend_c, 5, 11192
7, 252285, Pitch_bend_c, 5, 12192
7, 252300, Pitch_bend_c, 5, 13192
7, 252315, Pitch_bend_c, 5, 14192
7, 252330, Pitch_bend_c, 5, 15192
7, 252345, Pitch_bend_c, 5, 16192
7, 252360, Pitch_bend_c, 5, 8192
7, 252480, Note_off_c, 5, 59, 64
7, 252480, Note_on_c, 5, 57, 100
7, 252600, Note_off_c, 5, 57, 64
7, 252600, Note_on_c, 5, 59, 100
7, 252720, Note_off_c, 5, 59, 64
7, 252720, Note_on_c, 5, 61, 100
7, 252840, Note_off_c, 5, 61, 64
7, 252840, Note_on_c, 5, 64, 100
7, 252960, Note_off_c, 5, 64, 64
7, 252960, Note_on_c, 5, 66, 100
7, 253080, Note_off_c, 5, 66, 64
7, 253080, Note_on_c, 5, 69, 100
7, 253200, Note_off_c, 5, 69, 64
7, 253200, Note_on_c, 5, 64, 100
7, 253200, Pitch_bend_c, 5, 9192
7, 253215, Pitch_bend_c, 5, 10192
7, 253230, Pitch_bend_c, 5, 11192
7, 253245, Pitch_bend_c, 5, 12192
7, 253260, Pitch_bend_c, 5, 13192
7, 253275, Pitch_bend_c, 5, 14192
7, 253290, Pitch_bend_c, 5, 15192
7, 253305, Pitch_bend_c, 5, 16192
7, 253320, Pitch_bend_c, 5, 8192
7, 253440, Note_off_c, 5, 64, 64
7, 253440, Note_on_c, 5, 69, 100
7, 253560, Note_off_c, 5, 69, 64
7, 253560, Note_on_c, 5, 66, 100
7, 253680, Note_off_c, 5, 66, 64
7, 253680, Note_on_c, 5, 64, 100
7, 253760, Note_off_c, 5, 64, 64
7, 253760, Note_on_c, 5, 66, 100
7, 253840, Note_off_c, 5, 66, 64
7, 253840, Note_on_c, 5, 69, 100
7, 253920, Note_off_c, 5, 69, 64
7, 253920, Note_on_c, 5, 71, 100
7, 254000, Note_off_c, 5, 71, 64
7, 254000, Note_on_c, 5, 73, 100
7, 254080, Note_off_c, 5, 73, 64
7, 254080, Note_on_c, 5, 76, 100
7, 254160, Note_off_c, 5, 76, 64
7, 254160, Note_on_c, 5, 73, 100
7, 254240, Note_off_c, 5, 73, 64
7, 254240, Note_on_c, 5, 71, 100
7, 254320, Note_off_c, 5, 71, 64
7, 254320, Note_on_c, 5, 76, 90
7, 254400, Note_off_c, 5, 76, 64
7, 254400, Note_on_c, 5, 77, 90
7, 254430, Note_off_c, 5, 77, 64
7, 254430, Note_on_c, 5, 78, 90
7, 254460, Note_off_c, 5, 78, 64
7, 254460, Note_on_c, 5, 79, 90
7, 254490, Note_off_c, 5, 79, 64
7, 254490, Note_on_c, 5, 80, 90
7, 254520, Note_off_c, 5, 80, 64
7, 254520, Note_on_c, 5, 81, 90
7, 254550, Note_off_c, 5, 81, 64
7, 254550, Note_on_c, 5, 82, 90
7, 254580, Note_off_c, 5, 82, 64
7, 254580, Note_on_c, 5, 83, 90
7, 254610, Note_off_c, 5, 83, 64
7, 254610, Note_on_c, 5, 84, 90
7, 254640, Note_off_c, 5, 84, 64
7, 254640, Note_on_c, 5, 85, 90
7, 254670, Note_off_c, 5, 85, 64
7, 254670, Note_on_c, 5, 86, 90
7, 254700, Note_off_c, 5, 86, 64
7, 254700, Note_on_c, 5, 88, 90
7, 254730, Note_off_c, 5, 88, 64
7, 254730, Note_on_c, 5, 89, 90
7, 254760, Note_off_c, 5, 89, 64
7, 254760, Note_on_c, 5, 90, 100
7, 255120, Note_off_c, 5, 90, 64
7, 255120, Note_on_c, 5, 89, 70
7, 255160, Note_off_c, 5, 89, 64
7, 255160, Note_on_c, 5, 88, 70
7, 255200, Note_off_c, 5, 88, 64
7, 255200, Note_on_c, 5, 87, 70
7, 255240, Note_off_c, 5, 87, 64
7, 255240, Note_on_c, 5, 86, 70
7, 255280, Note_off_c, 5, 86, 64
7, 255280, Note_on_c, 5, 85, 70
7, 255320, Note_off_c, 5, 85, 64
7, 255320, Note_on_c, 5, 84, 70
7, 255360, Note_off_c, 5, 84, 64
7, 255360, Note_on_c, 5, 83, 70
7, 255400, Note_off_c, 5, 83, 64
7, 255400, Note_on_c, 5, 82, 70
7, 255440, Note_off_c, 5, 82, 64
7, 255440, Note_on_c, 5, 81, 70
7, 255480, Note_off_c, 5, 81, 64
7, 255480, Note_on_c, 5, 80, 70
7, 255520, Note_off_c, 5, 80, 64
7, 255520, Note_on_c, 5, 79, 70
7, 255560, Note_off_c, 5, 79, 64
7, 255560, Note_on_c, 5, 78, 70
7, 255600, Note_off_c, 5, 78, 64
7, 255600, End_track
8, 0, Start_track
8, 0, Title_t, "Piano"
8, 0, MIDI_port, 0
8, 0, Channel_prefix, 6
8, 0, Control_c, 6, 7, 99
8, 0, Control_c, 6, 10, 64
8, 0, Program_c, 6, 0
8, 76800, Note_on_c, 6, 74, 100
8, 76800, Note_on_c, 6, 69, 100
8, 77040, Note_off_c, 6, 69, 64
8, 77040, Note_off_c, 6, 74, 64
8, 77040, Note_on_c, 6, 62, 100
8, 78000, Note_off_c, 6, 62, 64
8, 78000, Note_on_c, 6, 64, 100
8, 78000, Note_on_c, 6, 57, 100
8, 78240, Note_off_c, 6, 57, 64
8, 78240, Note_off_c, 6, 64, 64
8, 78480, Note_on_c, 6, 65, 100
8, 78480, Note_on_c, 6, 60, 100
8, 78960, Note_off_c, 6, 60, 64
8, 78960, Note_off_c, 6, 65, 64
8, 78960, Note_on_c, 6, 67, 100
8, 79200, Note_off_c, 6, 67, 64
8, 79200, Note_on_c, 6, 69, 100
8, 79440, Note_off_c, 6, 69, 64
8, 79440, Note_on_c, 6, 72, 100
8, 79440, Note_on_c, 6, 67, 100
8, 80160, Note_on_c, 6, 76, 100
8, 80167, Note_off_c, 6, 67, 64
8, 80167, Note_off_c, 6, 72, 64
8, 80400, Note_off_c, 6, 76, 64
8, 80400, Note_on_c, 6, 72, 100
8, 80640, Note_off_c, 6, 72, 64
8, 80640, Note_on_c, 6, 74, 100
8, 80640, Note_on_c, 6, 69, 100
8, 80880, Note_off_c, 6, 69, 64
8, 80880, Note_off_c, 6, 74, 64
8, 80880, Note_on_c, 6, 62, 100
8, 81120, Note_on_c, 6, 62, 100
8, 81127, Note_off_c, 6, 62, 64
8, 81360, Note_off_c, 6, 62, 64
8, 81360, Note_on_c, 6, 64, 100
8, 81600, Note_off_c, 6, 64, 64
8, 81600, Note_on_c, 6, 65, 100
8, 81600, Note_on_c, 6, 60, 100
8, 81840, Note_off_c, 6, 60, 64
8, 81840, Note_off_c, 6, 65, 64
8, 81840, Note_on_c, 6, 67, 100
8, 82080, Note_off_c, 6, 67, 64
8, 82080, Note_on_c, 6, 69, 100
8, 82320, Note_off_c, 6, 69, 64
8, 82320, Note_on_c, 6, 72, 100
8, 82320, Note_on_c, 6, 67, 100
8, 84473, Note_off_c, 6, 72, 64
8, 84480, Note_on_c, 6, 74, 100
8, 84480, Note_on_c, 6, 69, 100
8, 84487, Note_off_c, 6, 67, 64
8, 84720, Note_off_c, 6, 74, 64
8, 84720, Note_off_c, 6, 69, 64
8, 84720, Note_on_c, 6, 62, 100
8, 85680, Note_off_c, 6, 62, 64
8, 85680, Note_on_c, 6, 64, 100
8, 85680, Note_on_c, 6, 60, 100
8, 85920, Note_off_c, 6, 60, 64
8, 85920, Note_off_c, 6, 64, 64
8, 86160, Note_on_c, 6, 65, 100
8, 86160, Note_on_c, 6, 62, 100
8, 86640, Note_off_c, 6, 62, 64
8, 86640, Note_off_c, 6, 65, 64
8, 86640, Note_on_c, 6, 67, 100
8, 86880, Note_off_c, 6, 67, 64
8, 86880, Note_on_c, 6, 69, 100
8, 87120, Note_off_c, 6, 69, 64
8, 87120, Note_on_c, 6, 72, 100
8, 87120, Note_on_c, 6, 67, 100
8, 87840, Note_on_c, 6, 74, 100
8, 87847, Note_off_c, 6, 67, 64
8, 87847, Note_off_c, 6, 72, 64
8, 88080, Note_off_c, 6, 74, 64
8, 88080, Note_on_c, 6, 76, 100
8, 88275, Note_off_c, 6, 76, 64
8, 88280, Note_on_c, 6, 76, 100
8, 88320, Note_off_c, 6, 76, 64
8, 88320, Note_on_c, 6, 77, 100
8, 88320, Note_on_c, 6, 69, 100
8, 88800, Note_off_c, 6, 69, 64
8, 88800, Note_off_c, 6, 77, 64
8, 88800, Note_on_c, 6, 76, 100
8, 89040, Note_off_c, 6, 76, 64
8, 89040, Note_on_c, 6, 74, 100
8, 89280, Note_off_c, 6, 74, 64
8, 89280, Note_on_c, 6, 72, 100
8, 89280, Note_on_c, 6, 65, 100
8, 89760, Note_off_c, 6, 65, 64
8, 89760, Note_off_c, 6, 72, 64
8, 89760, Note_on_c, 6, 69, 100
8, 90000, Note_off_c, 6, 69, 64
8, 90000, Note_on_c, 6, 67, 100
8, 90000, Note_on_c, 6, 62, 100
8, 92160, Note_on_c, 6, 50, 85
8, 92160, Note_on_c, 6, 65, 85
8, 92160, Note_on_c, 6, 38, 85
8, 92160, Note_on_c, 6, 57, 85
8, 92160, Note_on_c, 6, 62, 85
8, 92167, Note_off_c, 6, 62, 64
8, 92167, Note_off_c, 6, 67, 64
8, 92640, Note_off_c, 6, 65, 64
8, 92640, Note_off_c, 6, 38, 64
8, 93833, Note_off_c, 6, 50, 64
8, 93833, Note_off_c, 6, 57, 64
8, 93833, Note_off_c, 6, 62, 64
8, 93840, Note_on_c, 6, 70, 85
8, 93840, Note_on_c, 6, 65, 85
8, 93840, Note_on_c, 6, 58, 85
8, 93840, Note_on_c, 6, 62, 85
8, 93840, Note_on_c, 6, 46, 85
8, 94800, Note_off_c, 6, 46, 64
8, 94800, Note_off_c, 6, 62, 64
8, 94800, Note_off_c, 6, 58, 64
8, 94800, Note_off_c, 6, 65, 64
8, 94800, Note_off_c, 6, 70, 64
8, 94800, Note_on_c, 6, 55, 85
8, 94800, Note_on_c, 6, 62, 85
8, 94800, Note_on_c, 6, 67, 85
8, 94800, Note_on_c, 6, 58, 85
8, 94800, Note_on_c, 6, 43, 85
8, 96000, Note_on_c, 6, 60, 85
8, 96000, Note_on_c, 6, 67, 85
8, 96000, Note_on_c, 6, 72, 85
8, 96000, Note_on_c, 6, 64, 85
8, 96000, Note_on_c, 6, 36, 85
8, 96000, Note_on_c, 6, 48, 85
8, 96007, Note_off_c, 6, 43, 64
8, 96007, Note_off_c, 6, 58, 64
8, 96007, Note_off_c, 6, 67, 64
8, 96007, Note_off_c, 6, 62, 64
8, 96007, Note_off_c, 6, 55, 64
8, 96960, Note_off_c, 6, 60, 64
8, 96960, Note_off_c, 6, 67, 64
8, 96960, Note_off_c, 6, 72, 64
8, 96960, Note_off_c, 6, 64, 64
8, 96960, Note_off_c, 6, 36, 64
8, 96960, Note_off_c, 6, 48, 64
8, 96960, Note_on_c, 6, 57, 85
8, 96960, Note_on_c, 6, 69, 85
8, 96960, Note_on_c, 6, 64, 85
8, 96960, Note_on_c, 6, 60, 85
8, 96960, Note_on_c, 6, 45, 85
8, 97673, Note_off_c, 6, 45, 64
8, 97673, Note_off_c, 6, 60, 64
8, 97673, Note_off_c, 6, 64, 64
8, 97673, Note_off_c, 6, 69, 64
8, 97673, Note_off_c, 6, 57, 64
8, 97680, Note_on_c, 6, 70, 85
8, 97680, Note_on_c, 6, 65, 85
8, 97680, Note_on_c, 6, 58, 85
8, 97680, Note_on_c, 6, 62, 85
8, 97680, Note_on_c, 6, 34, 85
8, 99600, Note_off_c, 6, 34, 64
8, 99600, Note_off_c, 6, 62, 64
8, 99600, Note_off_c, 6, 58, 64
8, 99600, Note_off_c, 6, 65, 64
8, 99600, Note_off_c, 6, 70, 64
8, 99600, Note_on_c, 6, 58, 85
8, 99720, Note_off_c, 6, 58, 64
8, 99720, Note_on_c, 6, 60, 85
8, 99840, Note_off_c, 6, 60, 64
8, 99840, Note_on_c, 6, 50, 85
8, 99840, Note_on_c, 6, 65, 85
8, 99840, Note_on_c, 6, 38, 85
8, 99840, Note_on_c, 6, 57, 85
8, 99840, Note_on_c, 6, 62, 85
8, 100320, Note_off_c, 6, 38, 64
8, 100320, Note_off_c, 6, 65, 64
8, 101513, Note_off_c, 6, 50, 64
8, 101513, Note_off_c, 6, 57, 64
8, 101513, Note_off_c, 6, 62, 64
8, 101520, Note_on_c, 6, 70, 85
8, 101520, Note_on_c, 6, 65, 85
8, 101520, Note_on_c, 6, 58, 85
8, 101520, Note_on_c, 6, 62, 85
8, 101520, Note_on_c, 6, 46, 85
8, 102480, Note_off_c, 6, 46, 64
8, 102480, Note_off_c, 6, 62, 64
8, 102480, Note_off_c, 6, 58, 64
8, 102480, Note_off_c, 6, 65, 64
8, 102480, Note_off_c, 6, 70, 64
8, 102480, Note_on_c, 6, 55, 85
8, 102480, Note_on_c, 6, 67, 85
8, 102480, Note_on_c, 6, 64, 85
8, 102480, Note_on_c, 6, 60, 85
8, 102480, Note_on_c, 6, 36, 85
8, 103680, Note_on_c, 6, 74, 85
8, 103680, Note_on_c, 6, 69, 85
8, 103680, Note_on_c, 6, 65, 85
8, 103680, Note_on_c, 6, 62, 85
8, 103680, Note_on_c, 6, 50, 85
8, 103680, Note_on_c, 6, 38, 85
8, 103687, Note_off_c, 6, 36, 64
8, 103687, Note_off_c, 6, 60, 64
8, 103687, Note_off_c, 6, 64, 64
8, 103687, Note_off_c, 6, 67, 64
8, 103687, Note_off_c, 6, 55, 64
8, 104640, Note_off_c, 6, 74, 64
8, 104640, Note_off_c, 6, 69, 64
8, 104640, Note_off_c, 6, 65, 64
8, 104640, Note_off_c, 6, 62, 64
8, 104640, Note_off_c, 6, 50, 64
8, 104640, Note_off_c, 6, 38, 64
8, 104640, Note_on_c, 6, 46, 85
8, 104640, Note_on_c, 6, 58, 85
8, 104640, Note_on_c, 6, 62, 85
8, 104640, Note_on_c, 6, 65, 85
8, 104640, Note_on_c, 6, 70, 85
8, 105353, Note_off_c, 6, 70, 64
8, 105353, Note_off_c, 6, 65, 64
8, 105353, Note_off_c, 6, 62, 64
8, 105353, Note_off_c, 6, 58, 64
8, 105353, Note_off_c, 6, 46, 64
8, 105360, Note_on_c, 6, 58, 85
8, 105360, Note_on_c, 6, 63, 85
8, 105360, Note_on_c, 6, 67, 85
8, 105360, Note_on_c, 6, 70, 100
8, 105360, Note_on_c, 6, 75, 100
8, 105360, Note_on_c, 6, 82, 100
8, 106320, Note_off_c, 6, 82, 64
8, 106320, Note_off_c, 6, 75, 64
8, 106320, Note_off_c, 6, 70, 64
8, 107280, Note_off_c, 6, 67, 64
8, 107280, Note_off_c, 6, 63, 64
8, 107280, Note_off_c, 6, 58, 64
8, 108000, Note_on_c, 6, 87, 100
8, 108000, Note_on_c, 6, 87, 100
8, 108120, Note_off_c, 6, 87, 64
8, 108120, Note_off_c, 6, 87, 64
8, 108120, Note_on_c, 6, 82, 100
8, 108120, Note_on_c, 6, 82, 100
8, 108240, Note_off_c, 6, 82, 64
8, 108240, Note_off_c, 6, 82, 64
8, 108240, Note_on_c, 6, 75, 100
8, 108240, Note_on_c, 6, 75, 100
8, 109200, Note_off_c, 6, 75, 64
8, 109200, Note_off_c, 6, 75, 64
8, 215988, Note_on_c, 6, 21, 89
8, 216002, Note_on_c, 6, 23, 73
8, 216016, Note_on_c, 6, 24, 70
8, 216033, Note_on_c, 6, 26, 62
8, 216052, Note_off_c, 6, 21, 64
8, 216060, Note_on_c, 6, 28, 40
8, 216081, Note_off_c, 6, 23, 64
8, 216084, Note_on_c, 6, 29, 55
8, 216098, Note_on_c, 6, 31, 63
8, 216105, Note_off_c, 6, 24, 64
8, 216115, Note_on_c, 6, 33, 59
8, 216127, Note_off_c, 6, 26, 64
8, 216136, Note_on_c, 6, 35, 48
8, 216144, Note_off_c, 6, 28, 64
8, 216158, Note_on_c, 6, 36, 55
8, 216163, Note_off_c, 6, 29, 64
8, 216177, Note_on_c, 6, 38, 62
8, 216184, Note_off_c, 6, 31, 64
8, 216201, Note_on_c, 6, 40, 68
8, 216204, Note_off_c, 6, 33, 64
8, 216218, Note_on_c, 6, 41, 76
8, 216223, Note_off_c, 6, 35, 64
8, 216242, Note_on_c, 6, 43, 80
8, 216244, Note_off_c, 6, 36, 64
8, 216261, Note_on_c, 6, 45, 76
8, 216264, Note_off_c, 6, 38, 64
8, 216283, Note_off_c, 6, 40, 64
8, 216283, Note_on_c, 6, 47, 85
8, 216309, Note_on_c, 6, 48, 72
8, 216312, Note_off_c, 6, 41, 64
8, 216333, Note_off_c, 6, 43, 64
8, 216338, Note_on_c, 6, 50, 64
8, 216364, Note_off_c, 6, 45, 64
8, 216372, Note_on_c, 6, 52, 63
8, 216393, Note_off_c, 6, 47, 64
8, 216400, Note_on_c, 6, 53, 63
8, 216420, Note_off_c, 6, 48, 64
8, 216427, Note_on_c, 6, 55, 68
8, 216451, Note_off_c, 6, 50, 64
8, 216456, Note_on_c, 6, 57, 85
8, 216475, Note_off_c, 6, 52, 64
8, 216484, Note_on_c, 6, 59, 92
8, 216504, Note_off_c, 6, 53, 64
8, 216513, Note_on_c, 6, 60, 85
8, 216530, Note_off_c, 6, 55, 64
8, 216544, Note_on_c, 6, 62, 70
8, 216556, Note_off_c, 6, 57, 64
8, 216571, Note_on_c, 6, 64, 83
8, 216583, Note_off_c, 6, 59, 64
8, 216597, Note_on_c, 6, 65, 83
8, 216607, Note_off_c, 6, 60, 64
8, 216624, Note_on_c, 6, 67, 70
8, 216631, Note_off_c, 6, 62, 64
8, 216652, Note_on_c, 6, 69, 62
8, 216655, Note_off_c, 6, 64, 64
8, 216684, Note_off_c, 6, 65, 64
8, 216693, Note_on_c, 6, 71, 47
8, 216717, Note_off_c, 6, 67, 64
8, 216720, Note_on_c, 6, 93, 100
8, 216720, Note_on_c, 6, 81, 100
8, 216720, Note_on_c, 6, 88, 100
8, 216729, Note_off_c, 6, 69, 64
8, 216736, Note_off_c, 6, 71, 64
8, 216840, Note_off_c, 6, 93, 64
8, 216840, Note_off_c, 6, 81, 64
8, 216840, Note_off_c, 6, 88, 64
8, 216960, Note_on_c, 6, 86, 100
8, 216960, Note_on_c, 6, 91, 100
8, 217080, Note_off_c, 6, 91, 64
8, 217080, Note_off_c, 6, 86, 64
8, 217080, Note_on_c, 6, 93, 100
8, 217080, Note_on_c, 6, 88, 100
8, 217080, Note_on_c, 6, 81, 100
8, 217200, Note_off_c, 6, 81, 64
8, 217200, Note_off_c, 6, 88, 64
8, 217200, Note_off_c, 6, 93, 64
8, 217200, Note_on_c, 6, 69, 100
8, 217200, Note_on_c, 6, 76, 100
8, 217320, Note_off_c, 6, 76, 64
8, 217320, Note_off_c, 6, 69, 64
8, 217320, Note_on_c, 6, 91, 100
8, 217320, Note_on_c, 6, 86, 100
8, 217320, Note_on_c, 6, 81, 100
8, 217440, Note_off_c, 6, 81, 64
8, 217440, Note_off_c, 6, 86, 64
8, 217440, Note_off_c, 6, 91, 64
8, 217440, Note_on_c, 6, 69, 100
8, 217440, Note_on_c, 6, 74, 100
8, 217440, Note_on_c, 6, 79, 100
8, 217560, Note_off_c, 6, 79, 64
8, 217560, Note_off_c, 6, 74, 64
8, 217560, Note_off_c, 6, 69, 64
8, 217560, Note_on_c, 6, 93, 100
8, 217560, Note_on_c, 6, 88, 100
8, 217560, Note_on_c, 6, 81, 100
8, 217680, Note_off_c, 6, 81, 64
8, 217680, Note_off_c, 6, 88, 64
8, 217680, Note_off_c, 6, 93, 64
8, 217680, Note_on_c, 6, 69, 100
8, 217680, Note_on_c, 6, 76, 100
8, 217680, Note_on_c, 6, 81, 100
8, 217800, Note_off_c, 6, 81, 64
8, 217800, Note_off_c, 6, 76, 64
8, 217800, Note_off_c, 6, 69, 64
8, 217800, Note_on_c, 6, 91, 100
8, 217920, Note_off_c, 6, 91, 64
8, 217920, Note_on_c, 6, 88, 100
8, 218040, Note_off_c, 6, 88, 64
8, 218040, Note_on_c, 6, 87, 100
8, 218160, Note_off_c, 6, 87, 64
8, 218160, Note_on_c, 6, 86, 100
8, 218280, Note_off_c, 6, 86, 64
8, 218280, Note_on_c, 6, 84, 100
8, 218400, Note_off_c, 6, 84, 64
8, 218400, Note_on_c, 6, 81, 100
8, 218520, Note_off_c, 6, 81, 64
8, 218520, Note_on_c, 6, 84, 100
8, 218640, Note_off_c, 6, 84, 64
8, 218640, Note_on_c, 6, 86, 100
8, 218640, Note_on_c, 6, 81, 100
8, 218640, Note_on_c, 6, 74, 100
8, 218760, Note_off_c, 6, 74, 64
8, 218760, Note_off_c, 6, 81, 64
8, 218760, Note_off_c, 6, 86, 64
8, 218760, Note_on_c, 6, 69, 100
8, 218760, Note_on_c, 6, 62, 100
8, 218880, Note_off_c, 6, 62, 64
8, 218880, Note_off_c, 6, 69, 64
8, 218880, Note_on_c, 6, 74, 100
8, 218880, Note_on_c, 6, 79, 100
8, 218880, Note_on_c, 6, 84, 100
8, 219000, Note_off_c, 6, 84, 64
8, 219000, Note_off_c, 6, 79, 64
8, 219000, Note_off_c, 6, 74, 64
8, 219000, Note_on_c, 6, 72, 100
8, 219000, Note_on_c, 6, 67, 100
8, 219120, Note_off_c, 6, 67, 64
8, 219120, Note_off_c, 6, 72, 64
8, 219120, Note_on_c, 6, 74, 100
8, 219120, Note_on_c, 6, 81, 100
8, 219120, Note_on_c, 6, 86, 100
8, 219240, Note_off_c, 6, 86, 64
8, 219240, Note_off_c, 6, 81, 64
8, 219240, Note_off_c, 6, 74, 64
8, 219240, Note_on_c, 6, 74, 100
8, 219240, Note_on_c, 6, 69, 100
8, 219360, Note_off_c, 6, 69, 64
8, 219360, Note_off_c, 6, 74, 64
8, 219360, Note_on_c, 6, 74, 100
8, 219360, Note_on_c, 6, 88, 100
8, 219480, Note_off_c, 6, 88, 64
8, 219480, Note_off_c, 6, 74, 64
8, 219480, Note_on_c, 6, 84, 100
8, 219480, Note_on_c, 6, 74, 100
8, 219600, Note_off_c, 6, 74, 64
8, 219600, Note_off_c, 6, 84, 64
8, 219600, Note_on_c, 6, 62, 100
8, 219600, Note_on_c, 6, 69, 100
8, 219720, Note_off_c, 6, 69, 64
8, 219720, Note_off_c, 6, 62, 64
8, 219720, Note_on_c, 6, 88, 100
8, 219840, Note_off_c, 6, 88, 64
8, 219840, Note_on_c, 6, 84, 100
8, 219960, Note_off_c, 6, 84, 64
8, 219960, Note_on_c, 6, 81, 100
8, 220080, Note_off_c, 6, 81, 64
8, 220080, Note_on_c, 6, 76, 100
8, 220200, Note_off_c, 6, 76, 64
8, 220200, Note_on_c, 6, 72, 100
8, 220320, Note_off_c, 6, 72, 64
8, 220320, Note_on_c, 6, 69, 100
8, 220440, Note_off_c, 6, 69, 64
8, 220440, Note_on_c, 6, 64, 100
8, 220560, Note_off_c, 6, 64, 64
8, 220560, Note_on_c, 6, 81, 100
8, 220560, Note_on_c, 6, 69, 100
8, 220680, Note_off_c, 6, 69, 64
8, 220680, Note_off_c, 6, 81, 64
8, 220680, Note_on_c, 6, 81, 100
8, 220680, Note_on_c, 6, 69, 100
8, 220800, Note_off_c, 6, 69, 64
8, 220800, Note_off_c, 6, 81, 64
8, 220800, Note_on_c, 6, 57, 100
8, 220803, Note_on_c, 6, 69, 100
8, 220920, Note_off_c, 6, 57, 64
8, 220923, Note_off_c, 6, 69, 64
8, 220923, Note_on_c, 6, 84, 100
8, 220923, Note_on_c, 6, 72, 100
8, 221040, Note_on_c, 6, 57, 100
8, 221040, Note_on_c, 6, 69, 100
8, 221043, Note_off_c, 6, 72, 64
8, 221043, Note_off_c, 6, 84, 64
8, 221160, Note_off_c, 6, 57, 64
8, 221160, Note_off_c, 6, 69, 64
8, 221160, Note_on_c, 6, 74, 100
8, 221160, Note_on_c, 6, 86, 100
8, 221280, Note_off_c, 6, 86, 64
8, 221280, Note_off_c, 6, 74, 64
8, 221280, Note_on_c, 6, 69, 100
8, 221280, Note_on_c, 6, 57, 100
8, 221400, Note_off_c, 6, 57, 64
8, 221400, Note_off_c, 6, 69, 64
8, 221400, Note_on_c, 6, 75, 100
8, 221400, Note_on_c, 6, 87, 100
8, 221520, Note_off_c, 6, 87, 64
8, 221520, Note_off_c, 6, 75, 64
8, 221520, Note_on_c, 6, 69, 100
8, 221520, Note_on_c, 6, 57, 100
8, 221640, Note_off_c, 6, 57, 64
8, 221640, Note_off_c, 6, 69, 64
8, 221640, Note_on_c, 6, 88, 100
8, 221640, Note_on_c, 6, 76, 100
8, 221760, Note_off_c, 6, 76, 64
8, 221760, Note_off_c, 6, 88, 64
8, 221760, Note_on_c, 6, 72, 100
8, 221760, Note_on_c, 6, 60, 100
8, 221880, Note_off_c, 6, 60, 64
8, 221880, Note_off_c, 6, 72, 64
8, 221880, Note_on_c, 6, 79, 100
8, 221880, Note_on_c, 6, 91, 100
8, 222000, Note_off_c, 6, 91, 64
8, 222000, Note_off_c, 6, 79, 64
8, 222000, Note_on_c, 6, 74, 100
8, 222000, Note_on_c, 6, 62, 100
8, 222120, Note_off_c, 6, 62, 64
8, 222120, Note_off_c, 6, 74, 64
8, 222120, Note_on_c, 6, 93, 100
8, 222120, Note_on_c, 6, 81, 100
8, 222240, Note_off_c, 6, 81, 64
8, 222240, Note_off_c, 6, 93, 64
8, 222240, Note_on_c, 6, 75, 100
8, 222240, Note_on_c, 6, 63, 100
8, 222360, Note_off_c, 6, 63, 64
8, 222360, Note_off_c, 6, 75, 64
8, 222360, Note_on_c, 6, 96, 100
8, 222360, Note_on_c, 6, 84, 100
8, 222480, Note_off_c, 6, 84, 64
8, 222480, Note_off_c, 6, 96, 64
8, 222480, Note_on_c, 6, 64, 100
8, 222480, Note_on_c, 6, 76, 100
8, 222600, Note_off_c, 6, 76, 64
8, 222600, Note_off_c, 6, 64, 64
8, 222600, Note_on_c, 6, 98, 100
8, 222600, Note_on_c, 6, 86, 100
8, 222720, Note_off_c, 6, 86, 64
8, 222720, Note_off_c, 6, 98, 64
8, 222720, Note_on_c, 6, 75, 100
8, 222720, Note_on_c, 6, 63, 100
8, 222840, Note_off_c, 6, 63, 64
8, 222840, Note_off_c, 6, 75, 64
8, 222840, Note_on_c, 6, 99, 100
8, 222840, Note_on_c, 6, 87, 100
8, 222960, Note_off_c, 6, 87, 64
8, 222960, Note_off_c, 6, 99, 64
8, 222960, Note_on_c, 6, 64, 100
8, 222960, Note_on_c, 6, 76, 100
8, 223080, Note_off_c, 6, 76, 64
8, 223080, Note_off_c, 6, 64, 64
8, 223080, Note_on_c, 6, 88, 100
8, 223080, Note_on_c, 6, 100, 100
8, 223200, Note_off_c, 6, 100, 64
8, 223200, Note_off_c, 6, 88, 64
8, 223200, Note_on_c, 6, 69, 100
8, 223200, Note_on_c, 6, 62, 100
8, 223200, Note_on_c, 6, 74, 100
8, 223325, Note_on_c, 6, 86, 90
8, 223385, Note_off_c, 6, 86, 64
8, 223385, Note_on_c, 6, 98, 90
8, 223440, Note_on_c, 6, 86, 90
8, 223445, Note_off_c, 6, 98, 64
8, 223500, Note_off_c, 6, 86, 64
8, 223500, Note_on_c, 6, 98, 90
8, 223560, Note_off_c, 6, 98, 64
8, 223560, Note_on_c, 6, 86, 90
8, 223620, Note_off_c, 6, 86, 64
8, 223620, Note_on_c, 6, 98, 90
8, 223680, Note_off_c, 6, 98, 64
8, 223680, Note_on_c, 6, 86, 90
8, 223740, Note_off_c, 6, 86, 64
8, 223740, Note_on_c, 6, 74, 100
8, 223745, Note_off_c, 6, 74, 64
8, 223800, Note_on_c, 6, 86, 90
8, 224374, Note_off_c, 6, 86, 64
8, 224400, Note_on_c, 6, 87, 100
8, 224400, Note_on_c, 6, 91, 100
8, 224407, Note_off_c, 6, 62, 64
8, 224407, Note_off_c, 6, 69, 64
8, 224425, Note_off_c, 6, 74, 64
8, 224520, Note_off_c, 6, 87, 64
8, 224520, Note_off_c, 6, 91, 64
8, 224520, Note_on_c, 6, 86, 100
8, 224640, Note_off_c, 6, 86, 64
8, 224640, Note_on_c, 6, 84, 100
8, 224760, Note_off_c, 6, 84, 64
8, 224760, Note_on_c, 6, 86, 100
8, 224760, Note_on_c, 6, 91, 100
8, 224880, Note_off_c, 6, 91, 64
8, 224880, Note_off_c, 6, 86, 64
8, 224880, Note_on_c, 6, 84, 100
8, 225000, Note_off_c, 6, 84, 64
8, 225000, Note_on_c, 6, 81, 100
8, 225120, Note_off_c, 6, 81, 64
8, 225120, Note_on_c, 6, 87, 100
8, 225120, Note_on_c, 6, 91, 100
8, 225200, Note_off_c, 6, 91, 64
8, 225200, Note_off_c, 6, 87, 64
8, 225200, Note_on_c, 6, 86, 100
8, 225280, Note_off_c, 6, 86, 64
8, 225280, Note_on_c, 6, 84, 100
8, 225360, Note_off_c, 6, 84, 64
8, 225360, Note_on_c, 6, 86, 100
8, 225360, Note_on_c, 6, 91, 100
8, 225440, Note_off_c, 6, 91, 64
8, 225440, Note_off_c, 6, 86, 64
8, 225440, Note_on_c, 6, 84, 100
8, 225520, Note_off_c, 6, 84, 64
8, 225520, Note_on_c, 6, 81, 100
8, 225600, Note_off_c, 6, 81, 64
8, 225600, Note_on_c, 6, 79, 100
8, 225720, Note_off_c, 6, 79, 64
8, 225720, Note_on_c, 6, 76, 100
8, 225840, Note_off_c, 6, 76, 64
8, 225840, Note_on_c, 6, 79, 100
8, 225960, Note_off_c, 6, 79, 64
8, 225960, Note_on_c, 6, 84, 100
8, 225960, Note_on_c, 6, 81, 100
8, 226080, Note_off_c, 6, 81, 64
8, 226080, Note_off_c, 6, 84, 64
8, 226080, Note_on_c, 6, 79, 100
8, 226200, Note_off_c, 6, 79, 64
8, 226200, Note_on_c, 6, 76, 100
8, 226320, Note_off_c, 6, 76, 64
8, 226320, Note_on_c, 6, 75, 100
8, 226320, Note_on_c, 6, 79, 100
8, 226440, Note_off_c, 6, 79, 64
8, 226440, Note_off_c, 6, 75, 64
8, 226440, Note_on_c, 6, 74, 100
8, 226560, Note_off_c, 6, 74, 64
8, 226560, Note_on_c, 6, 72, 100
8, 226676, Note_on_c, 6, 84, 100
8, 226676, Note_on_c, 6, 81, 100
8, 226680, Note_off_c, 6, 72, 64
8, 226756, Note_off_c, 6, 84, 64
8, 226756, Note_off_c, 6, 81, 64
8, 226756, Note_on_c, 6, 79, 100
8, 226836, Note_off_c, 6, 79, 64
8, 226836, Note_on_c, 6, 76, 100
8, 226916, Note_off_c, 6, 76, 64
8, 226916, Note_on_c, 6, 75, 100
8, 226916, Note_on_c, 6, 79, 100
8, 226996, Note_off_c, 6, 79, 64
8, 226996, Note_off_c, 6, 75, 64
8, 226996, Note_on_c, 6, 74, 100
8, 227076, Note_off_c, 6, 74, 64
8, 227076, Note_on_c, 6, 72, 100
8, 227156, Note_off_c, 6, 72, 64
8, 227156, Note_on_c, 6, 74, 100
8, 227156, Note_on_c, 6, 79, 100
8, 227236, Note_off_c, 6, 79, 64
8, 227236, Note_off_c, 6, 74, 64
8, 227236, Note_on_c, 6, 72, 100
8, 227316, Note_off_c, 6, 72, 64
8, 227316, Note_on_c, 6, 69, 100
8, 227396, Note_off_c, 6, 69, 64
8, 227396, Note_on_c, 6, 67, 100
8, 227516, Note_off_c, 6, 67, 64
8, 227516, Note_on_c, 6, 64, 100
8, 227636, Note_off_c, 6, 64, 64
8, 227636, Note_on_c, 6, 69, 100
8, 227756, Note_off_c, 6, 69, 64
8, 227756, Note_on_c, 6, 67, 100
8, 228240, Note_on_c, 6, 57, 100
8, 228249, Note_off_c, 6, 67, 64
8, 228320, Note_off_c, 6, 57, 64
8, 228320, Note_on_c, 6, 60, 100
8, 228400, Note_off_c, 6, 60, 64
8, 228400, Note_on_c, 6, 62, 100
8, 228480, Note_off_c, 6, 62, 64
8, 228480, Note_on_c, 6, 60, 100
8, 228560, Note_off_c, 6, 60, 64
8, 228560, Note_on_c, 6, 62, 100
8, 228640, Note_off_c, 6, 62, 64
8, 228640, Note_on_c, 6, 63, 100
8, 228720, Note_off_c, 6, 63, 64
8, 228720, Note_on_c, 6, 64, 100
8, 228800, Note_off_c, 6, 64, 64
8, 228800, Note_on_c, 6, 67, 100
8, 228880, Note_off_c, 6, 67, 64
8, 228880, Note_on_c, 6, 69, 100
8, 228960, Note_off_c, 6, 69, 64
8, 228960, Note_on_c, 6, 72, 100
8, 229040, Note_off_c, 6, 72, 64
8, 229040, Note_on_c, 6, 74, 100
8, 229120, Note_off_c, 6, 74, 64
8, 229120, Note_on_c, 6, 75, 100
8, 229200, Note_off_c, 6, 75, 64
8, 229200, Note_on_c, 6, 72, 100
8, 229280, Note_off_c, 6, 72, 64
8, 229280, Note_on_c, 6, 74, 100
8, 229360, Note_off_c, 6, 74, 64
8, 229360, Note_on_c, 6, 75, 100
8, 229440, Note_off_c, 6, 75, 64
8, 229440, Note_on_c, 6, 76, 100
8, 229520, Note_off_c, 6, 76, 64
8, 229520, Note_on_c, 6, 79, 100
8, 229600, Note_off_c, 6, 79, 64
8, 229600, Note_on_c, 6, 81, 100
8, 229680, Note_off_c, 6, 81, 64
8, 229680, Note_on_c, 6, 84, 100
8, 229760, Note_off_c, 6, 84, 64
8, 229760, Note_on_c, 6, 86, 100
8, 229840, Note_off_c, 6, 86, 64
8, 229840, Note_on_c, 6, 87, 100
8, 229920, Note_off_c, 6, 87, 64
8, 229920, Note_on_c, 6, 88, 100
8, 230000, Note_off_c, 6, 88, 64
8, 230000, Note_on_c, 6, 91, 100
8, 230080, Note_off_c, 6, 91, 64
8, 230080, Note_on_c, 6, 93, 100
8, 230160, Note_off_c, 6, 93, 64
8, 230160, Note_on_c, 6, 81, 100
8, 230160, Note_on_c, 6, 93, 100
8, 230160, Note_on_c, 6, 69, 100
8, 230160, Note_on_c, 6, 57, 100
8, 230320, Note_off_c, 6, 57, 64
8, 230320, Note_off_c, 6, 69, 64
8, 230320, Note_off_c, 6, 93, 64
8, 230320, Note_off_c, 6, 81, 64
8, 230320, Note_on_c, 6, 96, 100
8, 230320, Note_on_c, 6, 84, 100
8, 230320, Note_on_c, 6, 72, 100
8, 230320, Note_on_c, 6, 60, 100
8, 230480, Note_off_c, 6, 60, 64
8, 230480, Note_off_c, 6, 72, 64
8, 230480, Note_off_c, 6, 84, 64
8, 230480, Note_off_c, 6, 96, 64
8, 230480, Note_on_c, 6, 98, 100
8, 230480, Note_on_c, 6, 86, 100
8, 230480, Note_on_c, 6, 74, 100
8, 230480, Note_on_c, 6, 62, 100
8, 230640, Note_off_c, 6, 62, 64
8, 230640, Note_off_c, 6, 74, 64
8, 230640, Note_off_c, 6, 86, 64
8, 230640, Note_off_c, 6, 98, 64
8, 230640, Note_on_c, 6, 99, 100
8, 230640, Note_on_c, 6, 87, 100
8, 230640, Note_on_c, 6, 75, 100
8, 230640, Note_on_c, 6, 63, 100
8, 230800, Note_off_c, 6, 63, 64
8, 230800, Note_off_c, 6, 75, 64
8, 230800, Note_off_c, 6, 87, 64
8, 230800, Note_off_c, 6, 99, 64
8, 230800, Note_on_c, 6, 100, 100
8, 230800, Note_on_c, 6, 88, 100
8, 230800, Note_on_c, 6, 76, 100
8, 230800, Note_on_c, 6, 64, 100
8, 230960, Note_off_c, 6, 64, 64
8, 230960, Note_off_c, 6, 76, 64
8, 230960, Note_off_c, 6, 88, 64
8, 230960, Note_off_c, 6, 100, 64
8, 230960, Note_on_c, 6, 103, 100
8, 230960, Note_on_c, 6, 91, 100
8, 230960, Note_on_c, 6, 79, 100
8, 230960, Note_on_c, 6, 67, 100
8, 231120, Note_off_c, 6, 67, 64
8, 231120, Note_off_c, 6, 79, 64
8, 231120, Note_off_c, 6, 91, 64
8, 231120, Note_off_c, 6, 103, 64
8, 231120, Note_on_c, 6, 81, 100
8, 231120, Note_on_c, 6, 69, 100
8, 231120, Note_on_c, 6, 93, 92
8, 231180, Note_off_c, 6, 93, 64
8, 231180, Note_on_c, 6, 105, 92
8, 231240, Note_off_c, 6, 105, 64
8, 231240, Note_on_c, 6, 93, 92
8, 231300, Note_off_c, 6, 93, 64
8, 231300, Note_on_c, 6, 105, 92
8, 231360, Note_off_c, 6, 105, 64
8, 231360, Note_on_c, 6, 93, 92
8, 231420, Note_off_c, 6, 93, 64
8, 231420, Note_on_c, 6, 105, 92
8, 231480, Note_off_c, 6, 105, 64
8, 231480, Note_on_c, 6, 93, 92
8, 231540, Note_off_c, 6, 93, 64
8, 231540, Note_on_c, 6, 105, 92
8, 231600, Note_off_c, 6, 105, 64
8, 231600, Note_on_c, 6, 93, 92
8, 231660, Note_off_c, 6, 93, 64
8, 231660, Note_on_c, 6, 105, 92
8, 231720, Note_off_c, 6, 105, 64
8, 231720, Note_on_c, 6, 93, 92
8, 231780, Note_off_c, 6, 93, 64
8, 231780, Note_on_c, 6, 105, 92
8, 231840, Note_off_c, 6, 105, 64
8, 231840, Note_on_c, 6, 93, 92
8, 231900, Note_off_c, 6, 93, 64
8, 231900, Note_on_c, 6, 105, 92
8, 231960, Note_off_c, 6, 105, 64
8, 231960, Note_on_c, 6, 93, 92
8, 232020, Note_off_c, 6, 93, 64
8, 232020, Note_on_c, 6, 105, 92
8, 232080, Note_off_c, 6, 69, 64
8, 232080, Note_off_c, 6, 81, 64
8, 232080, Note_off_c, 6, 105, 64
8, 262800, Note_on_c, 6, 54, 100
8, 262800, Note_on_c, 6, 66, 100
8, 262920, Note_off_c, 6, 66, 64
8, 262920, Note_off_c, 6, 54, 64
8, 262920, Note_on_c, 6, 61, 100
8, 262920, Note_on_c, 6, 73, 100
8, 263040, Note_off_c, 6, 73, 64
8, 263040, Note_off_c, 6, 61, 64
8, 263040, Note_on_c, 6, 66, 100
8, 263040, Note_on_c, 6, 78, 100
8, 263160, Note_off_c, 6, 78, 64
8, 263160, Note_off_c, 6, 66, 64
8, 263160, Note_on_c, 6, 71, 100
8, 263160, Note_on_c, 6, 59, 100
8, 263280, Note_off_c, 6, 59, 64
8, 263280, Note_off_c, 6, 71, 64
8, 263280, Note_on_c, 6, 76, 100
8, 263280, Note_on_c, 6, 64, 100
8, 263400, Note_off_c, 6, 64, 64
8, 263400, Note_off_c, 6, 76, 64
8, 263400, Note_on_c, 6, 81, 100
8, 263400, Note_on_c, 6, 69, 100
8, 263520, Note_off_c, 6, 69, 64
8, 263520, Note_off_c, 6, 81, 64
8, 263520, Note_on_c, 6, 61, 100
8, 263520, Note_on_c, 6, 73, 100
8, 263640, Note_off_c, 6, 73, 64
8, 263640, Note_off_c, 6, 61, 64
8, 263640, Note_on_c, 6, 66, 100
8, 263640, Note_on_c, 6, 78, 100
8, 263760, Note_off_c, 6, 78, 64
8, 263760, Note_off_c, 6, 66, 64
8, 263760, Note_on_c, 6, 71, 100
8, 263760, Note_on_c, 6, 83, 100
8, 263880, Note_off_c, 6, 83, 64
8, 263880, Note_off_c, 6, 71, 64
8, 263880, Note_on_c, 6, 64, 100
8, 263880, Note_on_c, 6, 76, 100
8, 264000, Note_off_c, 6, 76, 64
8, 264000, Note_off_c, 6, 64, 64
8, 264000, Note_on_c, 6, 69, 100
8, 264000, Note_on_c, 6, 81, 100
8, 264120, Note_off_c, 6, 81, 64
8, 264120, Note_off_c, 6, 69, 64
8, 264120, Note_on_c, 6, 76, 100
8, 264120, Note_on_c, 6, 88, 100
8, 264240, Note_off_c, 6, 88, 64
8, 264240, Note_off_c, 6, 76, 64
8, 264240, Note_on_c, 6, 78, 100
8, 264240, Note_on_c, 6, 66, 100
8, 264300, Note_on_c, 6, 90, 100
8, 264360, Note_off_c, 6, 90, 64
8, 264360, Note_off_c, 6, 66, 64
8, 264360, Note_off_c, 6, 78, 64
8, 264360, Note_on_c, 6, 85, 100
8, 264360, Note_on_c, 6, 73, 100
8, 264420, Note_off_c, 6, 73, 64
8, 264420, Note_off_c, 6, 85, 64
8, 264420, Note_on_c, 6, 90, 100
8, 264420, Note_on_c, 6, 78, 100
8, 264485, Note_off_c, 6, 78, 64
8, 264485, Note_off_c, 6, 90, 64
8, 264540, Note_on_c, 6, 92, 100
8, 264540, Note_on_c, 6, 80, 100
8, 264540, Note_on_c, 6, 68, 100
8, 264600, Note_off_c, 6, 68, 64
8, 264600, Note_off_c, 6, 80, 64
8, 264600, Note_off_c, 6, 92, 64
8, 264600, Note_on_c, 6, 85, 100
8, 264600, Note_on_c, 6, 73, 100
8, 264720, Note_off_c, 6, 73, 64
8, 264720, Note_off_c, 6, 85, 64
8, 264720, Note_on_c, 6, 90, 100
8, 264720, Note_on_c, 6, 78, 100
8, 264840, Note_off_c, 6, 78, 64
8, 264840, Note_off_c, 6, 90, 64
8, 264840, Note_on_c, 6, 93, 100
8, 264840, Note_on_c, 6, 81, 100
8, 264840, Note_on_c, 6, 69, 100
8, 264960, Note_off_c, 6, 69, 64
8, 264960, Note_off_c, 6, 81, 64
8, 264960, Note_off_c, 6, 93, 64
8, 264960, Note_on_c, 6, 88, 100
8, 264960, Note_on_c, 6, 76, 100
8, 265080, Note_off_c, 6, 76, 64
8, 265080, Note_off_c, 6, 88, 64
8, 265080, Note_on_c, 6, 93, 100
8, 265080, Note_on_c, 6, 81, 100
8, 265200, Note_off_c, 6, 81, 64
8, 265200, Note_off_c, 6, 93, 64
8, 265200, Note_on_c, 6, 95, 100
8, 265200, Note_on_c, 6, 83, 100
8, 265200, Note_on_c, 6, 71, 100
8, 265320, Note_off_c, 6, 71, 64
8, 265320, Note_off_c, 6, 83, 64
8, 265320, Note_off_c, 6, 95, 64
8, 265320, Note_on_c, 6, 90, 100
8, 265320, Note_on_c, 6, 78, 100
8, 265440, Note_off_c, 6, 78, 64
8, 265440, Note_off_c, 6, 90, 64
8, 265440, Note_on_c, 6, 95, 100
8, 265440, Note_on_c, 6, 83, 100
8, 265560, Note_off_c, 6, 83, 64
8, 265560, Note_off_c, 6, 95, 64
8, 265560, Note_on_c, 6, 97, 100
8, 265560, Note_on_c, 6, 85, 100
8, 265560, Note_on_c, 6, 73, 100
8, 265680, Note_off_c, 6, 73, 64
8, 265680, Note_off_c, 6, 85, 64
8, 265680, Note_off_c, 6, 97, 64
8, 265680, Note_on_c, 6, 90, 100
8, 265680, Note_on_c, 6, 78, 100
8, 265800, Note_off_c, 6, 78, 64
8, 265800, Note_off_c, 6, 90, 64
8, 265800, Note_on_c, 6, 97, 100
8, 265800, Note_on_c, 6, 85, 100
8, 265920, Note_off_c, 6, 85, 64
8, 265920, Note_off_c, 6, 97, 64
8, 265920, Note_on_c, 6, 100, 100
8, 265920, Note_on_c, 6, 88, 100
8, 265920, Note_on_c, 6, 76, 100
8, 266040, Note_off_c, 6, 76, 64
8, 266040, Note_off_c, 6, 88, 64
8, 266040, Note_off_c, 6, 100, 64
8, 266040, Note_on_c, 6, 93, 100
8, 266040, Note_on_c, 6, 81, 100
8, 266160, Note_off_c, 6, 81, 64
8, 266160, Note_off_c, 6, 93, 64
8, 266160, Note_on_c, 6, 100, 100
8, 266160, Note_on_c, 6, 88, 100
8, 266280, Note_off_c, 6, 88, 64
8, 266280, Note_off_c, 6, 100, 64
8, 266280, Note_on_c, 6, 102, 100
8, 266300, Note_off_c, 6, 102, 64
8, 266300, Note_on_c, 6, 90, 100
8, 266300, Note_on_c, 6, 78, 100
8, 266320, Note_off_c, 6, 78, 64
8, 266320, Note_off_c, 6, 90, 64
8, 266320, Note_on_c, 6, 102, 100
8, 266340, Note_off_c, 6, 102, 64
8, 266380, Note_on_c, 6, 90, 100
8, 266400, Note_off_c, 6, 90, 64
8, 266400, Note_on_c, 6, 90, 100
8, 266420, Note_off_c, 6, 90, 64
8, 266420, Note_on_c, 6, 102, 100
8, 266440, Note_off_c, 6, 102, 64
8, 266440, Note_on_c, 6, 102, 100
8, 266460, Note_off_c, 6, 102, 64
8, 266480, Note_on_c, 6, 90, 100
8, 266500, Note_off_c, 6, 90, 64
8, 266500, Note_on_c, 6, 90, 100
8, 266520, Note_off_c, 6, 90, 64
8, 266521, Note_on_c, 6, 102, 100
8, 266541, Note_off_c, 6, 102, 64
8, 266541, Note_on_c, 6, 102, 100
8, 266561, Note_off_c, 6, 102, 64
8, 266580, Note_on_c, 6, 90, 100
8, 266640, Note_off_c, 6, 90, 64
8, 266640, Note_on_c, 6, 90, 100
8, 266640, Note_on_c, 6, 102, 100
8, 266640, Note_on_c, 6, 66, 100
8, 266640, Note_on_c, 6, 78, 100
8, 266800, Note_off_c, 6, 78, 64
8, 266800, Note_off_c, 6, 66, 64
8, 266800, Note_off_c, 6, 102, 64
8, 266800, Note_off_c, 6, 90, 64
8, 266800, Note_on_c, 6, 88, 100
8, 266800, Note_on_c, 6, 100, 100
8, 266800, Note_on_c, 6, 64, 100
8, 266800, Note_on_c, 6, 76, 100
8, 266960, Note_off_c, 6, 76, 64
8, 266960, Note_off_c, 6, 64, 64
8, 266960, Note_off_c, 6, 100, 64
8, 266960, Note_off_c, 6, 88, 64
8, 266960, Note_on_c, 6, 85, 100
8, 266960, Note_on_c, 6, 97, 100
8, 266960, Note_on_c, 6, 61, 100
8, 266960, Note_on_c, 6, 73, 100
8, 267120, Note_off_c, 6, 73, 64
8, 267120, Note_off_c, 6, 61, 64
8, 267120, Note_off_c, 6, 97, 64
8, 267120, Note_off_c, 6, 85, 64
8, 267120, Note_on_c, 6, 84, 100
8, 267120, Note_on_c, 6, 96, 100
8, 267120, Note_on_c, 6, 60, 100
8, 267120, Note_on_c, 6, 72, 100
8, 267275, Note_on_c, 6, 95, 100
8, 267275, Note_on_c, 6, 71, 100
8, 267280, Note_off_c, 6, 72, 64
8, 267280, Note_off_c, 6, 60, 64
8, 267280, Note_off_c, 6, 96, 64
8, 267280, Note_off_c, 6, 84, 64
8, 267280, Note_on_c, 6, 83, 100
8, 267280, Note_on_c, 6, 59, 100
8, 267435, Note_off_c, 6, 95, 64
8, 267435, Note_off_c, 6, 71, 64
8, 267435, Note_on_c, 6, 93, 100
8, 267435, Note_on_c, 6, 69, 100
8, 267440, Note_off_c, 6, 83, 64
8, 267440, Note_off_c, 6, 59, 64
8, 267440, Note_on_c, 6, 81, 100
8, 267440, Note_on_c, 6, 57, 100
8, 267595, Note_off_c, 6, 93, 64
8, 267595, Note_off_c, 6, 69, 64
8, 267595, Note_on_c, 6, 90, 100
8, 267595, Note_on_c, 6, 66, 100
8, 267600, Note_off_c, 6, 81, 64
8, 267600, Note_off_c, 6, 57, 64
8, 267600, Note_on_c, 6, 78, 100
8, 267600, Note_on_c, 6, 54, 100
8, 267755, Note_off_c, 6, 90, 64
8, 267755, Note_off_c, 6, 66, 64
8, 267755, Note_on_c, 6, 88, 100
8, 267755, Note_on_c, 6, 64, 100
8, 267760, Note_off_c, 6, 78, 64
8, 267760, Note_off_c, 6, 54, 64
8, 267760, Note_on_c, 6, 76, 100
8, 267760, Note_on_c, 6, 52, 100
8, 267915, Note_off_c, 6, 88, 64
8, 267915, Note_off_c, 6, 64, 64
8, 267920, Note_off_c, 6, 76, 64
8, 267920, Note_off_c, 6, 52, 64
8, 267920, Note_on_c, 6, 75, 100
8, 267920, Note_on_c, 6, 87, 100
8, 267920, Note_on_c, 6, 51, 100
8, 267920, Note_on_c, 6, 63, 100
8, 268080, Note_off_c, 6, 63, 64
8, 268080, Note_off_c, 6, 51, 64
8, 268080, Note_off_c, 6, 87, 64
8, 268080, Note_off_c, 6, 75, 64
8, 268080, Note_on_c, 6, 73, 100
8, 268080, Note_on_c, 6, 85, 100
8, 268080, Note_on_c, 6, 49, 100
8, 268080, Note_on_c, 6, 61, 100
8, 268240, Note_off_c, 6, 61, 64
8, 268240, Note_off_c, 6, 49, 64
8, 268240, Note_off_c, 6, 85, 64
8, 268240, Note_off_c, 6, 73, 64
8, 268240, Note_on_c, 6, 72, 100
8, 268240, Note_on_c, 6, 84, 100
8, 268240, Note_on_c, 6, 48, 100
8, 268240, Note_on_c, 6, 60, 100
8, 268400, Note_off_c, 6, 60, 64
8, 268400, Note_off_c, 6, 48, 64
8, 268400, Note_off_c, 6, 84, 64
8, 268400, Note_off_c, 6, 72, 64
8, 268400, Note_on_c, 6, 71, 100
8, 268400, Note_on_c, 6, 83, 100
8, 268400, Note_on_c, 6, 47, 100
8, 268400, Note_on_c, 6, 59, 100
8, 268560, Note_off_c, 6, 59, 64
8, 268560, Note_off_c, 6, 47, 64
8, 268560, Note_off_c, 6, 83, 64
8, 268560, Note_off_c, 6, 71, 64
8, 269040, Note_on_c, 6, 59, 100
8, 269120, Note_off_c, 6, 59, 64
8, 269120, Note_on_c, 6, 66, 100
8, 269200, Note_off_c, 6, 66, 64
8, 269200, Note_on_c, 6, 71, 100
8, 269280, Note_off_c, 6, 71, 64
8, 269280, Note_on_c, 6, 71, 100
8, 269360, Note_off_c, 6, 71, 64
8, 269360, Note_on_c, 6, 78, 100
8, 269440, Note_off_c, 6, 78, 64
8, 269440, Note_on_c, 6, 83, 100
8, 269520, Note_off_c, 6, 83, 64
8, 269520, Note_on_c, 6, 83, 100
8, 269600, Note_off_c, 6, 83, 64
8, 269600, Note_on_c, 6, 90, 100
8, 269680, Note_off_c, 6, 90, 64
8, 269680, Note_on_c, 6, 95, 100
8, 269760, Note_off_c, 6, 95, 64
8, 269760, Note_on_c, 6, 95, 100
8, 269840, Note_off_c, 6, 95, 64
8, 269840, Note_on_c, 6, 102, 100
8, 269920, Note_off_c, 6, 102, 64
8, 269920, Note_on_c, 6, 107, 100
8, 270000, Note_off_c, 6, 107, 64
8, 270480, Control_c, 6, 64, 127
8, 276000, Control_c, 6, 64, 127
8, 276000, Note_on_c, 6, 23, 99
8, 276000, Note_on_c, 6, 35, 103
8, 276002, Control_c, 6, 64, 0
8, 276014, Note_on_c, 6, 54, 97
8, 276017, Note_on_c, 6, 59, 107
8, 276156, Control_c, 6, 64, 127
8, 276286, Note_off_c, 6, 54, 64
8, 276288, Note_off_c, 6, 23, 64
8, 276307, Note_on_c, 6, 47, 52
8, 276329, Note_off_c, 6, 59, 64
8, 276355, Note_on_c, 6, 54, 63
8, 276376, Note_off_c, 6, 47, 64
8, 276378, Note_off_c, 6, 35, 64
8, 276420, Note_on_c, 6, 59, 54
8, 276463, Note_off_c, 6, 54, 64
8, 276478, Note_off_c, 6, 59, 64
8, 276533, Note_on_c, 6, 59, 107
8, 276602, Note_off_c, 6, 59, 64
8, 276667, Note_on_c, 6, 59, 78
8, 276715, Note_off_c, 6, 59, 64
8, 276720, Note_on_c, 6, 66, 71
8, 276758, Note_on_c, 6, 71, 78
8, 276761, Note_on_c, 6, 54, 91
8, 276775, Note_off_c, 6, 66, 64
8, 276785, Note_off_c, 6, 71, 64
8, 276840, Note_on_c, 6, 71, 78
8, 276905, Note_off_c, 6, 71, 64
8, 276953, Note_on_c, 6, 62, 91
8, 276979, Note_on_c, 6, 71, 55
8, 277013, Note_off_c, 6, 71, 64
8, 277027, Note_on_c, 6, 78, 68
8, 277066, Note_off_c, 6, 78, 64
8, 277073, Note_on_c, 6, 83, 54
8, 277099, Note_off_c, 6, 83, 64
8, 277152, Note_on_c, 6, 83, 82
8, 277229, Note_off_c, 6, 54, 64
8, 277234, Note_on_c, 6, 90, 79
8, 277298, Note_off_c, 6, 83, 64
8, 277325, Note_on_c, 6, 95, 111
8, 277342, Note_on_c, 6, 86, 111
8, 277342, Note_on_c, 6, 66, 105
8, 277454, Note_off_c, 6, 62, 64
8, 277517, Note_off_c, 6, 95, 64
8, 277572, Note_off_c, 6, 90, 64
8, 277584, Note_off_c, 6, 86, 64
8, 277589, Note_on_c, 6, 62, 93
8, 277658, Note_off_c, 6, 66, 64
8, 277776, Note_on_c, 6, 59, 102
8, 277841, Note_off_c, 6, 62, 64
8, 277913, Note_on_c, 6, 64, 105
8, 278033, Note_on_c, 6, 73, 112
8, 278035, Note_on_c, 6, 66, 110
8, 278078, Note_off_c, 6, 64, 64
8, 278179, Note_on_c, 6, 61, 91
8, 278239, Note_off_c, 6, 73, 64
8, 278242, Note_off_c, 6, 59, 64
8, 278261, Note_off_c, 6, 61, 64
8, 278318, Note_on_c, 6, 74, 115
8, 278357, Note_off_c, 6, 66, 64
8, 278400, Note_on_c, 6, 62, 95
8, 278486, Note_off_c, 6, 62, 64
8, 278501, Note_on_c, 6, 49, 73
8, 278520, Note_on_c, 6, 57, 89
8, 278558, Note_off_c, 6, 74, 64
8, 278563, Note_on_c, 6, 61, 100
8, 278645, Note_on_c, 6, 69, 105
8, 278645, Control_c, 6, 64, 0
8, 278650, Note_on_c, 6, 73, 102
8, 278652, Note_on_c, 6, 64, 113
8, 278827, Control_c, 6, 64, 127
8, 278830, Note_off_c, 6, 69, 64
8, 278935, Note_on_c, 6, 69, 107
8, 279007, Note_off_c, 6, 64, 64
8, 279070, Note_off_c, 6, 73, 64
8, 279096, Note_off_c, 6, 61, 64
8, 279146, Note_on_c, 6, 64, 107
8, 279166, Note_off_c, 6, 69, 64
8, 279251, Note_off_c, 6, 49, 64
8, 279271, Note_on_c, 6, 66, 100
8, 279317, Note_off_c, 6, 64, 64
8, 279506, Note_on_c, 6, 59, 78
8, 279511, Note_on_c, 6, 62, 93
8, 279516, Note_on_c, 6, 50, 65
8, 279528, Note_on_c, 6, 67, 91
8, 279528, Control_c, 6, 64, 0
8, 279538, Note_off_c, 6, 57, 64
8, 279571, Note_off_c, 6, 66, 64
8, 279732, Control_c, 6, 64, 127
8, 279773, Note_off_c, 6, 59, 64
8, 279879, Note_off_c, 6, 50, 64
8, 280054, Note_on_c, 6, 47, 90
8, 280344, Note_on_c, 6, 43, 99
8, 280435, Note_on_c, 6, 42, 79
8, 280477, Note_off_c, 6, 47, 64
8, 280509, Note_off_c, 6, 43, 64
8, 280529, Control_c, 6, 64, 0
8, 280546, Note_on_c, 6, 40, 81
8, 280574, Note_off_c, 6, 42, 64
8, 280656, Note_on_c, 6, 38, 90
8, 280682, Note_off_c, 6, 62, 64
8, 280722, Note_off_c, 6, 40, 64
8, 280800, Note_on_c, 6, 35, 98
8, 280805, Note_on_c, 6, 62, 95
8, 280810, Note_on_c, 6, 59, 95
8, 280810, Note_on_c, 6, 66, 102
8, 280862, Note_off_c, 6, 67, 64
8, 280902, Note_off_c, 6, 38, 64
8, 281071, Note_on_c, 6, 71, 109
8, 281143, Note_off_c, 6, 66, 64
8, 281292, Note_on_c, 6, 47, 67
8, 281311, Note_on_c, 6, 66, 107
8, 281335, Control_c, 6, 64, 127
8, 281364, Note_off_c, 6, 62, 64
8, 281489, Note_off_c, 6, 71, 64
8, 281527, Note_on_c, 6, 62, 105
8, 281590, Note_off_c, 6, 66, 64
8, 281625, Note_off_c, 6, 47, 64
8, 281630, Note_off_c, 6, 62, 64
8, 281633, Note_off_c, 6, 59, 64
8, 281781, Note_off_c, 6, 35, 64
8, 281820, Note_on_c, 6, 64, 105
8, 281822, Note_on_c, 6, 45, 65
8, 281822, Note_on_c, 6, 57, 74
8, 281827, Note_on_c, 6, 59, 91
8, 281832, Note_on_c, 6, 33, 62
8, 281892, Control_c, 6, 64, 0
8, 282070, Note_on_c, 6, 62, 93
8, 282084, Control_c, 6, 64, 127
8, 282293, Note_on_c, 6, 61, 93
8, 282341, Note_off_c, 6, 59, 64
8, 282367, Note_off_c, 6, 57, 64
8, 282389, Note_off_c, 6, 64, 64
8, 282407, Note_off_c, 6, 45, 64
8, 282410, Note_off_c, 6, 62, 64
8, 282460, Note_off_c, 6, 33, 64
8, 282590, Note_on_c, 6, 59, 76
8, 282590, Note_on_c, 6, 43, 68
8, 282593, Note_on_c, 6, 54, 84
8, 282593, Note_on_c, 6, 31, 73
8, 282624, Control_c, 6, 64, 0
8, 282638, Note_off_c, 6, 61, 64
8, 282893, Control_c, 6, 64, 127
8, 282895, Note_on_c, 6, 66, 82
8, 282986, Note_off_c, 6, 31, 64
8, 283010, Note_off_c, 6, 66, 64
8, 283046, Note_off_c, 6, 43, 64
8, 283082, Note_off_c, 6, 54, 64
8, 283147, Note_on_c, 6, 66, 73
8, 283210, Note_off_c, 6, 59, 64
8, 283253, Note_off_c, 6, 66, 64
8, 283267, Note_on_c, 6, 54, 71
8, 283363, Note_on_c, 6, 59, 66
8, 283414, Note_off_c, 6, 54, 64
8, 283442, Note_off_c, 6, 59, 64
8, 283488, Note_on_c, 6, 71, 63
8, 283541, Note_off_c, 6, 71, 64
8, 283562, Note_on_c, 6, 59, 93
8, 283622, Note_off_c, 6, 59, 64
8, 283673, Note_on_c, 6, 71, 74
8, 283711, Note_off_c, 6, 71, 64
8, 283762, Note_on_c, 6, 71, 86
8, 283802, Note_off_c, 6, 71, 64
8, 283874, Note_on_c, 6, 71, 69
8, 283922, Note_off_c, 6, 71, 64
8, 283973, Note_on_c, 6, 83, 75
8, 284002, Note_off_c, 6, 83, 64
8, 284069, Note_on_c, 6, 83, 71
8, 284112, Note_off_c, 6, 83, 64
8, 284153, Note_on_c, 6, 83, 46
8, 284182, Note_on_c, 6, 90, 77
8, 284287, Note_on_c, 6, 95, 95
8, 284426, Note_on_c, 6, 93, 95
8, 284462, Note_off_c, 6, 95, 64
8, 284575, Note_on_c, 6, 95, 89
8, 284623, Note_off_c, 6, 93, 64
8, 284642, Note_off_c, 6, 90, 64
8, 284736, Control_c, 6, 64, 0
8, 284770, Note_on_c, 6, 47, 61
8, 284774, Note_on_c, 6, 54, 58
8, 284782, Note_on_c, 6, 62, 55
8, 284784, Note_on_c, 6, 90, 82
8, 284786, Note_on_c, 6, 86, 75
8, 284834, Note_off_c, 6, 95, 64
8, 284902, Control_c, 6, 64, 127
8, 284930, Note_off_c, 6, 90, 64
8, 284930, Note_off_c, 6, 86, 64
8, 284947, Note_off_c, 6, 83, 64
8, 285000, Note_off_c, 6, 62, 64
8, 285209, Note_off_c, 6, 54, 64
8, 285300, Note_off_c, 6, 47, 64
8, 285367, Note_on_c, 6, 71, 91
8, 285370, Note_on_c, 6, 66, 77
8, 285377, Note_on_c, 6, 62, 74
8, 285610, Note_on_c, 6, 59, 93
8, 285653, Note_off_c, 6, 62, 64
8, 285732, Note_off_c, 6, 71, 64
8, 285804, Note_off_c, 6, 66, 64
8, 285864, Note_on_c, 6, 62, 93
8, 286082, Note_on_c, 6, 54, 65
8, 286106, Note_on_c, 6, 61, 88
8, 286109, Note_on_c, 6, 73, 91
8, 286162, Note_off_c, 6, 62, 64
8, 286248, Note_off_c, 6, 59, 64
8, 286303, Note_off_c, 6, 54, 64
8, 286306, Note_off_c, 6, 61, 64
8, 286344, Note_on_c, 6, 62, 91
8, 286346, Note_on_c, 6, 74, 102
8, 286471, Note_off_c, 6, 62, 64
8, 286493, Note_off_c, 6, 73, 64
8, 286505, Note_off_c, 6, 74, 64
8, 286622, Note_on_c, 6, 57, 75
8, 286627, Note_on_c, 6, 76, 111
8, 286630, Note_on_c, 6, 61, 59
8, 286632, Note_on_c, 6, 49, 54
8, 286634, Note_on_c, 6, 64, 95
8, 286642, Note_on_c, 6, 69, 82
8, 286651, Control_c, 6, 64, 0
8, 286822, Note_off_c, 6, 69, 64
8, 286834, Control_c, 6, 64, 127
8, 286879, Note_on_c, 6, 73, 91
8, 287105, Note_off_c, 6, 76, 64
8, 287112, Note_off_c, 6, 57, 64
8, 287150, Note_on_c, 6, 69, 84
8, 287194, Note_off_c, 6, 61, 64
8, 287201, Note_off_c, 6, 64, 64
8, 287286, Note_off_c, 6, 49, 64
8, 287412, Note_off_c, 6, 73, 64
8, 287448, Note_on_c, 6, 78, 71
8, 287455, Note_on_c, 6, 66, 60
8, 287458, Control_c, 6, 64, 0
8, 287460, Note_on_c, 6, 62, 69
8, 287460, Note_on_c, 6, 50, 56
8, 287465, Note_on_c, 6, 57, 69
8, 287592, Control_c, 6, 64, 127
8, 287609, Note_off_c, 6, 69, 64
8, 287621, Note_off_c, 6, 78, 64
8, 287671, Note_off_c, 6, 66, 64
8, 287676, Note_off_c, 6, 62, 64
8, 287707, Note_off_c, 6, 57, 64
8, 287829, Note_off_c, 6, 50, 64
8, 287918, Note_on_c, 6, 57, 71
8, 287983, Note_off_c, 6, 57, 64
8, 287986, Note_on_c, 6, 62, 69
8, 288065, Note_off_c, 6, 62, 64
8, 288070, Note_on_c, 6, 66, 84
8, 288103, Note_off_c, 6, 66, 64
8, 288158, Note_on_c, 6, 69, 100
8, 288226, Note_on_c, 6, 74, 95
8, 288233, Note_off_c, 6, 69, 64
8, 288295, Note_off_c, 6, 74, 64
8, 288295, Note_on_c, 6, 78, 84
8, 288331, Note_off_c, 6, 78, 64
8, 288391, Note_on_c, 6, 81, 109
8, 288458, Note_on_c, 6, 86, 75
8, 288506, Note_off_c, 6, 86, 64
8, 288506, Note_on_c, 6, 90, 93
8, 288542, Note_off_c, 6, 81, 64
8, 288626, Note_on_c, 6, 91, 105
8, 288629, Note_on_c, 6, 83, 111
8, 288638, Note_on_c, 6, 28, 88
8, 288638, Control_c, 6, 64, 0
8, 288643, Note_off_c, 6, 90, 64
8, 288643, Note_on_c, 6, 79, 105
8, 288643, Note_on_c, 6, 40, 94
8, 288761, Note_off_c, 6, 79, 64
8, 288763, Control_c, 6, 64, 127
8, 288792, Note_off_c, 6, 28, 64
8, 288802, Note_off_c, 6, 91, 64
8, 288842, Note_off_c, 6, 40, 64
8, 288895, Note_on_c, 6, 90, 110
8, 288900, Note_on_c, 6, 78, 107
8, 289001, Note_off_c, 6, 90, 64
8, 289030, Note_off_c, 6, 78, 64
8, 289128, Note_on_c, 6, 59, 82
8, 289135, Note_off_c, 6, 83, 64
8, 289135, Note_on_c, 6, 88, 105
8, 289142, Note_on_c, 6, 76, 111
8, 289241, Note_off_c, 6, 76, 64
8, 289241, Note_off_c, 6, 88, 64
8, 289330, Note_on_c, 6, 64, 91
8, 289346, Note_off_c, 6, 59, 64
8, 289368, Note_off_c, 6, 64, 64
8, 289387, Note_on_c, 6, 86, 109
8, 289397, Note_on_c, 6, 74, 113
8, 289627, Note_on_c, 6, 38, 77
8, 289632, Note_on_c, 6, 79, 109
8, 289632, Note_on_c, 6, 83, 107
8, 289639, Control_c, 6, 64, 0
8, 289750, Note_off_c, 6, 86, 64
8, 289754, Control_c, 6, 64, 127
8, 289774, Note_off_c, 6, 74, 64
8, 289853, Note_on_c, 6, 47, 83
8, 289882, Note_on_c, 6, 88, 113
8, 289891, Note_on_c, 6, 76, 111
8, 289915, Note_off_c, 6, 83, 64
8, 289920, Note_off_c, 6, 79, 64
8, 289951, Note_off_c, 6, 38, 64
8, 289987, Note_off_c, 6, 76, 64
8, 290054, Note_off_c, 6, 88, 64
8, 290138, Note_on_c, 6, 78, 100
8, 290143, Note_on_c, 6, 90, 107
8, 290179, Note_off_c, 6, 47, 64
8, 290206, Note_off_c, 6, 90, 64
8, 290234, Note_off_c, 6, 78, 64
8, 290338, Note_on_c, 6, 85, 49
8, 290386, Note_off_c, 6, 85, 64
8, 290436, Note_on_c, 6, 36, 71
8, 290438, Note_on_c, 6, 52, 70
8, 290448, Note_on_c, 6, 76, 100
8, 290448, Note_on_c, 6, 88, 95
8, 290448, Note_on_c, 6, 43, 73
8, 290513, Control_c, 6, 64, 0
8, 290558, Note_on_c, 6, 86, 98
8, 290678, Note_on_c, 6, 84, 93
8, 290695, Note_off_c, 6, 86, 64
8, 290753, Control_c, 6, 64, 127
8, 290842, Note_off_c, 6, 52, 64
8, 290865, Note_off_c, 6, 36, 64
8, 290886, Note_off_c, 6, 43, 64
8, 290978, Note_off_c, 6, 88, 64
8, 291053, Note_off_c, 6, 84, 64
8, 291070, Note_off_c, 6, 76, 64
8, 291187, Note_on_c, 6, 60, 63
8, 291307, Note_on_c, 6, 60, 69
8, 291338, Note_off_c, 6, 60, 64
8, 291470, Note_off_c, 6, 60, 64
8, 291485, Note_on_c, 6, 52, 71
8, 291554, Note_on_c, 6, 55, 78
8, 291559, Note_off_c, 6, 52, 64
8, 291629, Note_off_c, 6, 55, 64
8, 291646, Note_on_c, 6, 60, 75
8, 291684, Note_off_c, 6, 60, 64
8, 291739, Note_on_c, 6, 64, 93
8, 291814, Note_on_c, 6, 67, 98
8, 291818, Note_off_c, 6, 64, 64
8, 291886, Note_off_c, 6, 67, 64
8, 291895, Note_on_c, 6, 72, 91
8, 291931, Note_off_c, 6, 72, 64
8, 291986, Note_on_c, 6, 76, 105
8, 292063, Note_on_c, 6, 79, 105
8, 292085, Note_off_c, 6, 76, 64
8, 292135, Note_off_c, 6, 79, 64
8, 292135, Note_on_c, 6, 84, 95
8, 292169, Note_off_c, 6, 84, 64
8, 292224, Note_on_c, 6, 88, 102
8, 292294, Note_on_c, 6, 91, 98
8, 292373, Note_on_c, 6, 96, 102
8, 292450, Note_on_c, 6, 100, 111
8, 292459, Control_c, 6, 64, 0
8, 292476, Note_off_c, 6, 96, 64
8, 292517, Note_on_c, 6, 95, 115
8, 292519, Note_on_c, 6, 28, 94
8, 292529, Note_on_c, 6, 40, 107
8, 292562, Note_off_c, 6, 100, 64
8, 292589, Note_off_c, 6, 91, 64
8, 292591, Note_off_c, 6, 95, 64
8, 292613, Note_off_c, 6, 88, 64
8, 292615, Control_c, 6, 64, 127
8, 292618, Note_off_c, 6, 28, 64
8, 292655, Note_off_c, 6, 40, 64
8, 293014, Note_on_c, 6, 76, 119
8, 293016, Note_on_c, 6, 71, 107
8, 293021, Note_on_c, 6, 67, 113
8, 293026, Note_on_c, 6, 59, 100
8, 293213, Note_off_c, 6, 76, 64
8, 293249, Note_off_c, 6, 71, 64
8, 293270, Note_on_c, 6, 64, 107
8, 293280, Note_off_c, 6, 67, 64
8, 293287, Note_off_c, 6, 59, 64
8, 293323, Note_off_c, 6, 64, 64
8, 293508, Note_on_c, 6, 47, 96
8, 293520, Note_on_c, 6, 71, 102
8, 293522, Note_on_c, 6, 74, 109
8, 293525, Note_on_c, 6, 66, 93
8, 293575, Control_c, 6, 64, 0
8, 293758, Control_c, 6, 64, 127
8, 293762, Note_on_c, 6, 62, 86
8, 293765, Note_on_c, 6, 54, 79
8, 293858, Note_off_c, 6, 66, 64
8, 294005, Note_on_c, 6, 66, 88
8, 294010, Note_on_c, 6, 59, 89
8, 294046, Note_off_c, 6, 59, 64
8, 294046, Note_off_c, 6, 71, 64
8, 294046, Note_off_c, 6, 62, 64
8, 294046, Note_off_c, 6, 54, 64
8, 294054, Note_off_c, 6, 47, 64
8, 294067, Note_off_c, 6, 74, 64
8, 294091, Note_off_c, 6, 66, 64
8, 294276, Note_on_c, 6, 42, 75
8, 294276, Note_on_c, 6, 57, 100
8, 294281, Note_on_c, 6, 73, 88
8, 294286, Note_on_c, 6, 69, 89
8, 294286, Control_c, 6, 64, 0
8, 294290, Note_on_c, 6, 61, 91
8, 294295, Note_on_c, 6, 66, 91
8, 294430, Control_c, 6, 64, 127
8, 294492, Note_off_c, 6, 61, 64
8, 294516, Note_on_c, 6, 74, 107
8, 294518, Note_on_c, 6, 62, 93
8, 294521, Note_off_c, 6, 73, 64
8, 294631, Note_off_c, 6, 69, 64
8, 294643, Note_off_c, 6, 62, 64
8, 294655, Note_off_c, 6, 66, 64
8, 294689, Note_off_c, 6, 74, 64
8, 294713, Note_off_c, 6, 57, 64
8, 294766, Note_on_c, 6, 76, 113
8, 294768, Note_on_c, 6, 64, 100
8, 294822, Note_off_c, 6, 42, 64
8, 294871, Note_off_c, 6, 64, 64
8, 294878, Note_off_c, 6, 76, 64
8, 295006, Note_on_c, 6, 74, 100
8, 295010, Note_on_c, 6, 62, 89
8, 295267, Control_c, 6, 64, 0
8, 295274, Note_on_c, 6, 67, 98
8, 295279, Note_on_c, 6, 50, 60
8, 295282, Note_on_c, 6, 43, 63
8, 295284, Note_on_c, 6, 59, 74
8, 295399, Control_c, 6, 64, 127
8, 295514, Note_on_c, 6, 73, 84
8, 295634, Note_off_c, 6, 73, 64
8, 295757, Control_c, 6, 64, 0
8, 295788, Note_on_c, 6, 71, 77
8, 295879, Note_off_c, 6, 62, 64
8, 295882, Control_c, 6, 64, 127
8, 295903, Note_off_c, 6, 59, 64
8, 295963, Note_off_c, 6, 74, 64
8, 296028, Note_off_c, 6, 71, 64
8, 296038, Note_off_c, 6, 67, 64
8, 296040, Note_on_c, 6, 62, 68
8, 296095, Note_off_c, 6, 50, 64
8, 296110, Note_off_c, 6, 62, 64
8, 296148, Note_off_c, 6, 43, 64
8, 296290, Note_on_c, 6, 69, 91
8, 296294, Note_on_c, 6, 66, 82
8, 296294, Note_on_c, 6, 62, 78
8, 296302, Note_on_c, 6, 50, 59
8, 296302, Note_on_c, 6, 38, 61
8, 296314, Control_c, 6, 64, 0
8, 296525, Control_c, 6, 64, 127
8, 296530, Note_on_c, 6, 74, 100
8, 296618, Note_off_c, 6, 69, 64
8, 296784, Note_off_c, 6, 62, 64
8, 296787, Note_off_c, 6, 38, 64
8, 296808, Note_on_c, 6, 69, 100
8, 296880, Note_off_c, 6, 74, 64
8, 296930, Note_off_c, 6, 69, 64
8, 296940, Note_off_c, 6, 66, 64
8, 297031, Note_on_c, 6, 47, 70
8, 297172, Note_off_c, 6, 50, 64
8, 297290, Note_on_c, 6, 64, 75
8, 297290, Note_on_c, 6, 28, 61
8, 297292, Note_on_c, 6, 67, 98
8, 297307, Note_on_c, 6, 59, 71
8, 297348, Control_c, 6, 64, 0
8, 297470, Note_off_c, 6, 47, 64
8, 297518, Note_on_c, 6, 30, 54
8, 297540, Note_on_c, 6, 66, 93
8, 297624, Note_off_c, 6, 64, 64
8, 297716, Note_off_c, 6, 28, 64
8, 297766, Note_on_c, 6, 31, 70
8, 297773, Note_on_c, 6, 62, 95
8, 297780, Note_off_c, 6, 67, 64
8, 297864, Note_off_c, 6, 59, 64
8, 297876, Note_off_c, 6, 30, 64
8, 297943, Note_off_c, 6, 66, 64
8, 298027, Note_on_c, 6, 33, 65
8, 298032, Note_on_c, 6, 64, 95
8, 298042, Note_on_c, 6, 57, 75
8, 298044, Note_on_c, 6, 59, 79
8, 298104, Note_off_c, 6, 62, 64
8, 298105, Note_off_c, 6, 31, 64
8, 298274, Note_on_c, 6, 69, 91
8, 298378, Note_off_c, 6, 69, 64
8, 298385, Control_c, 6, 64, 127
8, 298541, Note_on_c, 6, 69, 78
8, 298553, Note_off_c, 6, 57, 64
8, 298565, Note_off_c, 6, 59, 64
8, 298579, Note_off_c, 6, 64, 64
8, 298620, Note_off_c, 6, 69, 64
8, 298769, Note_on_c, 6, 45, 61
8, 299002, Note_on_c, 6, 95, 79
8, 299057, Note_off_c, 6, 95, 64
8, 299066, Note_on_c, 6, 100, 79
8, 299141, Note_on_c, 6, 93, 79
8, 299158, Note_off_c, 6, 100, 64
8, 299174, Note_off_c, 6, 93, 64
8, 299208, Note_on_c, 6, 88, 79
8, 299242, Note_off_c, 6, 88, 64
8, 299287, Note_on_c, 6, 83, 76
8, 299318, Note_off_c, 6, 83, 64
8, 299359, Note_on_c, 6, 88, 76
8, 299417, Note_on_c, 6, 81, 79
8, 299438, Note_off_c, 6, 88, 64
8, 299450, Note_off_c, 6, 81, 64
8, 299484, Note_on_c, 6, 76, 79
8, 299520, Note_off_c, 6, 76, 64
8, 299580, Note_on_c, 6, 71, 74
8, 299635, Note_on_c, 6, 76, 74
8, 299638, Note_off_c, 6, 71, 64
8, 299693, Note_off_c, 6, 76, 64
8, 299693, Note_on_c, 6, 71, 46
8, 299710, Note_on_c, 6, 69, 74
8, 299724, Note_off_c, 6, 71, 64
8, 299741, Note_off_c, 6, 69, 64
8, 299777, Note_on_c, 6, 64, 78
8, 299813, Note_off_c, 6, 64, 64
8, 299863, Note_on_c, 6, 59, 79
8, 299909, Note_off_c, 6, 59, 64
8, 299928, Note_on_c, 6, 64, 66
8, 299976, Note_on_c, 6, 59, 79
8, 300022, Note_off_c, 6, 64, 64
8, 300022, Note_on_c, 6, 57, 79
8, 300053, Note_off_c, 6, 59, 64
8, 300084, Note_off_c, 6, 57, 64
8, 300101, Note_on_c, 6, 52, 79
8, 300182, Control_c, 6, 64, 0
8, 300216, Note_off_c, 6, 52, 64
8, 300216, Note_on_c, 6, 59, 74
8, 300216, Note_on_c, 6, 62, 91
8, 300221, Note_on_c, 6, 54, 70
8, 300228, Note_on_c, 6, 35, 88
8, 300230, Note_on_c, 6, 47, 80
8, 300278, Note_off_c, 6, 45, 64
8, 300326, Control_c, 6, 64, 127
8, 300350, Note_off_c, 6, 54, 64
8, 300358, Note_off_c, 6, 33, 64
8, 300372, Note_off_c, 6, 59, 64
8, 300387, Note_off_c, 6, 35, 64
8, 300389, Note_off_c, 6, 62, 64
8, 300450, Note_off_c, 6, 47, 64
8, 300730, Note_on_c, 6, 86, 111
8, 300730, Note_on_c, 6, 59, 102
8, 300730, Note_on_c, 6, 83, 111
8, 300730, Note_on_c, 6, 78, 100
8, 300737, Note_on_c, 6, 74, 102
8, 300965, Note_off_c, 6, 74, 64
8, 300974, Note_off_c, 6, 86, 64
8, 300974, Note_on_c, 6, 62, 107
8, 300979, Note_off_c, 6, 59, 64
8, 301006, Note_off_c, 6, 83, 64
8, 301022, Note_off_c, 6, 62, 64
8, 301032, Note_off_c, 6, 78, 64
8, 301246, Note_on_c, 6, 73, 82
8, 301250, Note_on_c, 6, 42, 99
8, 301255, Note_on_c, 6, 85, 105
8, 301255, Note_on_c, 6, 81, 109
8, 301258, Note_on_c, 6, 78, 100
8, 301296, Control_c, 6, 64, 0
8, 301378, Note_off_c, 6, 73, 64
8, 301440, Control_c, 6, 64, 127
8, 301481, Note_on_c, 6, 49, 79
8, 301493, Note_on_c, 6, 73, 93
8, 301562, Note_off_c, 6, 78, 64
8, 301685, Note_off_c, 6, 42, 64
8, 301718, Note_on_c, 6, 57, 75
8, 301728, Note_on_c, 6, 78, 77
8, 301754, Note_off_c, 6, 57, 64
8, 301762, Note_off_c, 6, 73, 64
8, 301781, Note_off_c, 6, 85, 64
8, 301800, Note_off_c, 6, 81, 64
8, 301807, Note_off_c, 6, 49, 64
8, 301810, Note_off_c, 6, 78, 64
8, 302004, Note_on_c, 6, 79, 105
8, 302004, Note_on_c, 6, 84, 107
8, 302004, Note_on_c, 6, 88, 106
8, 302004, Note_on_c, 6, 48, 98
8, 302004, Note_on_c, 6, 76, 100
8, 302009, Note_on_c, 6, 36, 98
8, 302028, Control_c, 6, 64, 0
8, 302150, Control_c, 6, 64, 127
8, 302167, Note_off_c, 6, 76, 64
8, 302174, Note_off_c, 6, 88, 64
8, 302186, Note_off_c, 6, 84, 64
8, 302268, Note_on_c, 6, 86, 108
8, 302275, Note_on_c, 6, 74, 107
8, 302347, Note_off_c, 6, 48, 64
8, 302378, Note_off_c, 6, 36, 64
8, 302383, Note_off_c, 6, 74, 64
8, 302393, Note_off_c, 6, 86, 64
8, 302510, Note_on_c, 6, 84, 111
8, 302513, Note_on_c, 6, 72, 104
8, 302518, Note_off_c, 6, 79, 64
8, 302602, Note_off_c, 6, 72, 64
8, 302609, Note_off_c, 6, 84, 64
8, 302746, Note_on_c, 6, 71, 106
8, 302746, Note_on_c, 6, 83, 107
8, 302978, Control_c, 6, 64, 0
8, 303002, Note_on_c, 6, 31, 91
8, 303002, Note_on_c, 6, 74, 105
8, 303007, Note_on_c, 6, 43, 91
8, 303122, Control_c, 6, 64, 127
8, 303151, Note_off_c, 6, 71, 64
8, 303161, Note_off_c, 6, 83, 64
8, 303252, Note_on_c, 6, 81, 107
8, 303259, Note_on_c, 6, 69, 95
8, 303389, Note_off_c, 6, 69, 64
8, 303389, Note_off_c, 6, 81, 64
8, 303442, Note_off_c, 6, 43, 64
8, 303502, Note_on_c, 6, 79, 109
8, 303507, Note_off_c, 6, 31, 64
8, 303511, Note_on_c, 6, 67, 102
8, 303526, Note_off_c, 6, 74, 64
8, 303658, Note_off_c, 6, 67, 64
8, 303686, Note_off_c, 6, 79, 64
8, 303725, Note_on_c, 6, 28, 96
8, 303727, Note_on_c, 6, 40, 103
8, 303862, Control_c, 6, 64, 0
8, 304003, Note_on_c, 6, 41, 104
8, 304006, Note_on_c, 6, 77, 100
8, 304006, Note_on_c, 6, 29, 99
8, 304006, Note_on_c, 6, 84, 113
8, 304006, Note_on_c, 6, 81, 111
8, 304008, Note_on_c, 6, 72, 111
8, 304178, Note_off_c, 6, 28, 64
8, 304217, Note_off_c, 6, 40, 64
8, 304260, Note_on_c, 6, 83, 117
8, 304262, Note_on_c, 6, 71, 115
8, 304262, Note_on_c, 6, 31, 106
8, 304265, Note_on_c, 6, 43, 20
8, 304282, Note_off_c, 6, 77, 64
8, 304317, Note_off_c, 6, 84, 64
8, 304317, Note_off_c, 6, 81, 64
8, 304319, Note_off_c, 6, 72, 64
8, 304358, Note_off_c, 6, 83, 64
8, 304363, Note_off_c, 6, 71, 64
8, 304450, Note_off_c, 6, 29, 64
8, 304476, Note_off_c, 6, 41, 64
8, 304490, Note_on_c, 6, 45, 107
8, 304493, Note_on_c, 6, 33, 108
8, 304498, Note_on_c, 6, 69, 116
8, 304498, Note_on_c, 6, 81, 116
8, 304577, Note_off_c, 6, 81, 64
8, 304577, Note_off_c, 6, 69, 64
8, 304658, Note_off_c, 6, 43, 64
8, 304671, Note_off_c, 6, 31, 64
8, 304730, Note_on_c, 6, 79, 112
8, 304730, Note_on_c, 6, 47, 110
8, 304735, Note_on_c, 6, 67, 116
8, 304735, Note_on_c, 6, 35, 103
8, 304892, Note_off_c, 6, 45, 64
8, 304905, Note_off_c, 6, 33, 64
8, 304939, Control_c, 6, 64, 0
8, 304982, Note_on_c, 6, 72, 105
8, 304982, Note_on_c, 6, 76, 109
8, 304987, Note_on_c, 6, 48, 112
8, 304987, Note_on_c, 6, 36, 108
8, 305074, Control_c, 6, 64, 127
8, 305078, Note_off_c, 6, 79, 64
8, 305100, Note_off_c, 6, 67, 64
8, 305105, Note_off_c, 6, 76, 64
8, 305143, Note_off_c, 6, 72, 64
8, 305164, Note_off_c, 6, 35, 64
8, 305177, Note_off_c, 6, 47, 64
8, 305234, Note_on_c, 6, 76, 119
8, 305234, Note_on_c, 6, 64, 117
8, 305311, Note_off_c, 6, 64, 64
8, 305311, Note_off_c, 6, 76, 64
8, 305470, Note_on_c, 6, 72, 113
8, 305470, Note_on_c, 6, 60, 115
8, 305540, Note_off_c, 6, 60, 64
8, 305545, Note_off_c, 6, 72, 64
8, 305566, Note_off_c, 6, 48, 64
8, 305618, Note_off_c, 6, 36, 64
8, 305760, Note_on_c, 6, 59, 123
8, 305760, Note_on_c, 6, 71, 111
8, 305760, Note_on_c, 6, 66, 112
8, 305760, Note_on_c, 6, 47, 110
8, 305760, Note_on_c, 6, 35, 112
8, 305762, Control_c, 6, 64, 0
8, 306110, Note_off_c, 6, 35, 64
8, 306110, Note_off_c, 6, 47, 64
8, 306110, Note_off_c, 6, 66, 64
8, 306120, Note_off_c, 6, 71, 64
8, 306120, Note_off_c, 6, 59, 64
8, 376320, Note_on_c, 6, 71, 85
8, 376320, Note_on_c, 6, 66, 85
8, 376320, Note_on_c, 6, 59, 85
8, 377993, Note_off_c, 6, 59, 64
8, 377993, Note_off_c, 6, 66, 64
8, 377993, Note_off_c, 6, 71, 64
8, 378000, Note_on_c, 6, 57, 85
8, 378000, Note_on_c, 6, 69, 85
8, 378000, Note_on_c, 6, 64, 85
8, 379803, Note_off_c, 6, 64, 64
8, 379803, Note_off_c, 6, 69, 64
8, 379803, Note_off_c, 6, 57, 64
8, 379920, Note_on_c, 6, 71, 85
8, 379920, Note_on_c, 6, 66, 85
8, 379920, Note_on_c, 6, 59, 85
8, 380880, Note_off_c, 6, 59, 64
8, 380880, Note_off_c, 6, 66, 64
8, 380880, Note_off_c, 6, 71, 64
8, 380880, Note_on_c, 6, 69, 85
8, 380880, Note_on_c, 6, 64, 85
8, 380880, Note_on_c, 6, 57, 85
8, 383280, Note_off_c, 6, 57, 64
8, 383280, Note_off_c, 6, 64, 64
8, 383280, Note_off_c, 6, 69, 64
8, 383280, Note_on_c, 6, 59, 85
8, 383280, Note_on_c, 6, 66, 85
8, 383280, Note_on_c, 6, 71, 85
8, 384953, Note_off_c, 6, 71, 64
8, 384953, Note_off_c, 6, 66, 64
8, 384953, Note_off_c, 6, 59, 64
8, 384960, Note_on_c, 6, 57, 85
8, 384960, Note_on_c, 6, 69, 85
8, 384960, Note_on_c, 6, 64, 85
8, 386763, Note_off_c, 6, 64, 64
8, 386763, Note_off_c, 6, 69, 64
8, 386763, Note_off_c, 6, 57, 64
8, 386880, Note_on_c, 6, 71, 85
8, 386880, Note_on_c, 6, 66, 85
8, 386880, Note_on_c, 6, 59, 85
8, 387840, Note_off_c, 6, 59, 64
8, 387840, Note_off_c, 6, 66, 64
8, 387840, Note_off_c, 6, 71, 64
8, 387840, Note_on_c, 6, 69, 85
8, 387840, Note_on_c, 6, 64, 85
8, 387840, Note_on_c, 6, 57, 85
8, 390240, Note_off_c, 6, 57, 64
8, 390240, Note_off_c, 6, 64, 64
8, 390240, Note_off_c, 6, 69, 64
8, 390240, Note_on_c, 6, 64, 80
8, 390240, Note_on_c, 6, 40, 80
8, 390720, Note_off_c, 6, 64, 64
8, 390720, Note_on_c, 6, 76, 80
8, 390720, Note_on_c, 6, 71, 80
8, 390720, Note_on_c, 6, 67, 80
8, 390960, Note_off_c, 6, 67, 64
8, 390960, Note_off_c, 6, 71, 64
8, 390960, Note_off_c, 6, 76, 64
8, 391200, Note_off_c, 6, 40, 64
8, 391200, Note_on_c, 6, 74, 80
8, 391200, Note_on_c, 6, 71, 80
8, 391200, Note_on_c, 6, 66, 80
8, 391200, Note_on_c, 6, 47, 80
8, 391913, Note_off_c, 6, 47, 64
8, 391913, Note_off_c, 6, 66, 64
8, 391913, Note_off_c, 6, 71, 64
8, 391913, Note_off_c, 6, 74, 64
8, 391920, Note_on_c, 6, 42, 80
8, 391920, Note_on_c, 6, 66, 80
8, 391920, Note_on_c, 6, 69, 80
8, 391920, Note_on_c, 6, 61, 80
8, 392880, Note_off_c, 6, 61, 64
8, 392880, Note_off_c, 6, 69, 64
8, 392880, Note_off_c, 6, 66, 64
8, 392880, Note_off_c, 6, 42, 64
8, 392880, Note_on_c, 6, 43, 80
8, 392880, Note_on_c, 6, 71, 80
8, 392880, Note_on_c, 6, 67, 80
8, 392880, Note_on_c, 6, 62, 80
8, 393600, Note_on_c, 6, 38, 80
8, 393600, Note_on_c, 6, 62, 80
8, 393600, Note_on_c, 6, 66, 80
8, 393600, Note_on_c, 6, 69, 80
8, 393607, Note_off_c, 6, 62, 64
8, 393607, Note_off_c, 6, 67, 64
8, 393607, Note_off_c, 6, 71, 64
8, 393607, Note_off_c, 6, 43, 64
8, 394560, Note_off_c, 6, 38, 64
8, 394560, Note_off_c, 6, 62, 64
8, 394560, Note_off_c, 6, 66, 64
8, 394560, Note_off_c, 6, 69, 64
8, 394560, Note_on_c, 6, 40, 80
8, 394560, Note_on_c, 6, 64, 80
8, 394560, Note_on_c, 6, 71, 80
8, 394560, Note_on_c, 6, 67, 80
8, 395156, Note_off_c, 6, 40, 64
8, 395273, Note_off_c, 6, 64, 64
8, 395273, Note_off_c, 6, 71, 64
8, 395273, Note_off_c, 6, 67, 64
8, 395280, Note_on_c, 6, 45, 80
8, 395280, Note_on_c, 6, 69, 80
8, 395280, Note_on_c, 6, 64, 80
8, 395280, Note_on_c, 6, 61, 80
8, 396960, Note_on_c, 6, 47, 80
8, 396967, Note_off_c, 6, 61, 64
8, 396967, Note_off_c, 6, 64, 64
8, 396967, Note_off_c, 6, 69, 64
8, 396967, Note_off_c, 6, 45, 64
8, 397440, Note_on_c, 6, 71, 80
8, 397440, Note_on_c, 6, 74, 80
8, 397440, Note_on_c, 6, 66, 80
8, 397680, Note_off_c, 6, 66, 64
8, 397680, Note_off_c, 6, 74, 64
8, 397680, Note_off_c, 6, 71, 64
8, 397920, Note_off_c, 6, 47, 64
8, 397920, Note_on_c, 6, 42, 80
8, 397920, Note_on_c, 6, 73, 80
8, 397920, Note_on_c, 6, 69, 80
8, 397920, Note_on_c, 6, 66, 80
8, 398633, Note_off_c, 6, 66, 64
8, 398633, Note_off_c, 6, 69, 64
8, 398633, Note_off_c, 6, 73, 64
8, 398640, Note_off_c, 6, 42, 64
8, 398640, Note_on_c, 6, 48, 80
8, 398640, Note_on_c, 6, 60, 80
8, 398640, Note_on_c, 6, 64, 80
8, 398640, Note_on_c, 6, 67, 80
8, 398640, Note_on_c, 6, 72, 80
8, 399600, Note_off_c, 6, 72, 64
8, 399600, Note_off_c, 6, 67, 64
8, 399600, Note_off_c, 6, 64, 64
8, 399600, Note_off_c, 6, 60, 64
8, 399600, Note_off_c, 6, 48, 64
8, 399600, Note_on_c, 6, 43, 80
8, 399600, Note_on_c, 6, 67, 80
8, 399600, Note_on_c, 6, 59, 80
8, 399600, Note_on_c, 6, 62, 80
8, 400327, Note_off_c, 6, 62, 64
8, 400327, Note_off_c, 6, 59, 64
8, 400327, Note_off_c, 6, 67, 64
8, 400327, Note_off_c, 6, 43, 64
8, 431040, Note_on_c, 6, 62, 100
8, 431280, Note_off_c, 6, 62, 64
8, 431280, Note_on_c, 6, 57, 100
8, 431520, Note_off_c, 6, 57, 64
8, 431520, Note_on_c, 6, 62, 100
8, 431760, Note_off_c, 6, 62, 64
8, 431760, Note_on_c, 6, 65, 100
8, 432000, Note_off_c, 6, 65, 64
8, 432000, Note_on_c, 6, 67, 100
8, 432240, Note_off_c, 6, 67, 64
8, 432240, Note_on_c, 6, 57, 100
8, 432480, Note_off_c, 6, 57, 64
8, 432480, Note_on_c, 6, 62, 100
8, 432720, Note_off_c, 6, 62, 64
8, 432720, Note_on_c, 6, 69, 100
8, 432960, Note_off_c, 6, 69, 64
8, 432960, Note_on_c, 6, 57, 100
8, 433200, Note_off_c, 6, 57, 64
8, 433200, Note_on_c, 6, 62, 100
8, 433440, Note_off_c, 6, 62, 64
8, 433440, Note_on_c, 6, 69, 100
8, 433680, Note_off_c, 6, 69, 64
8, 433680, Note_on_c, 6, 70, 100
8, 433920, Note_off_c, 6, 70, 64
8, 433920, Note_on_c, 6, 57, 100
8, 434160, Note_off_c, 6, 57, 64
8, 434160, Note_on_c, 6, 64, 100
8, 434400, Note_off_c, 6, 64, 64
8, 434400, Note_on_c, 6, 72, 100
8, 434520, Note_off_c, 6, 72, 64
8, 434520, Note_on_c, 6, 70, 100
8, 434640, Note_off_c, 6, 70, 64
8, 434640, Note_on_c, 6, 69, 100
8, 434760, Note_off_c, 6, 69, 64
8, 434760, Note_on_c, 6, 67, 100
8, 434880, Note_off_c, 6, 67, 64
8, 434880, Note_on_c, 6, 65, 100
8, 435000, Note_off_c, 6, 65, 64
8, 435000, Note_on_c, 6, 64, 100
8, 435120, Note_off_c, 6, 64, 64
8, 435120, Note_on_c, 6, 62, 100
8, 435360, Note_off_c, 6, 62, 64
8, 435360, Note_on_c, 6, 57, 100
8, 435600, Note_off_c, 6, 57, 64
8, 435600, Note_on_c, 6, 62, 100
8, 435840, Note_off_c, 6, 62, 64
8, 435840, Note_on_c, 6, 65, 100
8, 436080, Note_off_c, 6, 65, 64
8, 436080, Note_on_c, 6, 67, 100
8, 436320, Note_off_c, 6, 67, 64
8, 436320, Note_on_c, 6, 57, 100
8, 436560, Note_off_c, 6, 57, 64
8, 436560, Note_on_c, 6, 62, 100
8, 436800, Note_off_c, 6, 62, 64
8, 436800, Note_on_c, 6, 69, 100
8, 437040, Note_off_c, 6, 69, 64
8, 437040, Note_on_c, 6, 57, 100
8, 437280, Note_off_c, 6, 57, 64
8, 437280, Note_on_c, 6, 62, 100
8, 437520, Note_off_c, 6, 62, 64
8, 437520, Note_on_c, 6, 69, 100
8, 437760, Note_off_c, 6, 69, 64
8, 437760, Note_on_c, 6, 70, 100
8, 438000, Note_off_c, 6, 70, 64
8, 438000, Note_on_c, 6, 57, 100
8, 438240, Note_off_c, 6, 57, 64
8, 438240, Note_on_c, 6, 64, 100
8, 438480, Note_off_c, 6, 64, 64
8, 438480, Note_on_c, 6, 72, 100
8, 438600, Note_off_c, 6, 72, 64
8, 438600, Note_on_c, 6, 70, 100
8, 438720, Note_off_c, 6, 70, 64
8, 438720, Note_on_c, 6, 69, 100
8, 438840, Note_off_c, 6, 69, 64
8, 438840, Note_on_c, 6, 67, 100
8, 438960, Note_off_c, 6, 67, 64
8, 438960, Note_on_c, 6, 65, 100
8, 439080, Note_off_c, 6, 65, 64
8, 439080, Note_on_c, 6, 64, 100
8, 439200, Note_off_c, 6, 64, 64
8, 439200, Note_on_c, 6, 62, 100
8, 439440, Note_off_c, 6, 62, 64
8, 439440, Note_on_c, 6, 57, 100
8, 439680, Note_off_c, 6, 57, 64
8, 439680, Note_on_c, 6, 62, 100
8, 439920, Note_off_c, 6, 62, 64
8, 439920, Note_on_c, 6, 65, 100
8, 440160, Note_off_c, 6, 65, 64
8, 440160, Note_on_c, 6, 64, 100
8, 440400, Note_off_c, 6, 64, 64
8, 440400, Note_on_c, 6, 60, 100
8, 440640, Note_off_c, 6, 60, 64
8, 440640, Note_on_c, 6, 57, 100
8, 440880, Note_off_c, 6, 57, 64
8, 440880, Note_on_c, 6, 58, 100
8, 441120, Note_off_c, 6, 58, 64
8, 441120, Note_on_c, 6, 64, 100
8, 441360, Note_off_c, 6, 64, 64
8, 441360, Note_on_c, 6, 65, 100
8, 441600, Note_off_c, 6, 65, 64
8, 441600, Note_on_c, 6, 53, 100
8, 441840, Note_off_c, 6, 53, 64
8, 441840, Note_on_c, 6, 55, 100
8, 442080, Note_off_c, 6, 55, 64
8, 442080, Note_on_c, 6, 60, 100
8, 442320, Note_off_c, 6, 60, 64
8, 442320, Note_on_c, 6, 62, 100
8, 442560, Note_off_c, 6, 62, 64
8, 442560, Note_on_c, 6, 67, 100
8, 442800, Note_off_c, 6, 67, 64
8, 442800, Note_on_c, 6, 69, 100
8, 443040, Note_off_c, 6, 69, 64
8, 443040, Note_on_c, 6, 70, 100
8, 443280, Note_off_c, 6, 70, 64
8, 443280, Note_on_c, 6, 67, 100
8, 443520, Note_off_c, 6, 67, 64
8, 443520, Note_on_c, 6, 62, 100
8, 443760, Note_off_c, 6, 62, 64
8, 443760, Note_on_c, 6, 70, 100
8, 444000, Note_off_c, 6, 70, 64
8, 444000, Note_on_c, 6, 69, 100
8, 444240, Note_off_c, 6, 69, 64
8, 444240, Note_on_c, 6, 65, 100
8, 444480, Note_off_c, 6, 65, 64
8, 444480, Note_on_c, 6, 60, 100
8, 444720, Note_off_c, 6, 60, 64
8, 444720, Note_on_c, 6, 67, 100
8, 444960, Note_off_c, 6, 67, 64
8, 444960, Note_on_c, 6, 64, 100
8, 445200, Note_off_c, 6, 64, 64
8, 445200, Note_on_c, 6, 60, 100
8, 445680, Note_off_c, 6, 60, 64
8, 445680, Note_on_c, 6, 57, 100
8, 445800, Note_off_c, 6, 57, 64
8, 445800, Note_on_c, 6, 58, 100
8, 445920, Note_off_c, 6, 58, 64
8, 445920, Note_on_c, 6, 60, 100
8, 446040, Note_off_c, 6, 60, 64
8, 446040, Note_on_c, 6, 62, 100
8, 446160, Note_off_c, 6, 62, 64
8, 446160, Note_on_c, 6, 64, 100
8, 446280, Note_off_c, 6, 64, 64
8, 446280, Note_on_c, 6, 65, 100
8, 446400, Note_off_c, 6, 65, 64
8, 446400, Note_on_c, 6, 62, 100
8, 446640, Note_off_c, 6, 62, 64
8, 446640, Note_on_c, 6, 57, 100
8, 446880, Note_off_c, 6, 57, 64
8, 446880, Note_on_c, 6, 62, 100
8, 447120, Note_off_c, 6, 62, 64
8, 447120, Note_on_c, 6, 65, 100
8, 447360, Note_off_c, 6, 65, 64
8, 447360, Note_on_c, 6, 64, 100
8, 447600, Note_off_c, 6, 64, 64
8, 447600, Note_on_c, 6, 60, 100
8, 447840, Note_off_c, 6, 60, 64
8, 447840, Note_on_c, 6, 57, 100
8, 448080, Note_off_c, 6, 57, 64
8, 448080, Note_on_c, 6, 58, 100
8, 448320, Note_off_c, 6, 58, 64
8, 448320, Note_on_c, 6, 64, 100
8, 448560, Note_off_c, 6, 64, 64
8, 448560, Note_on_c, 6, 65, 100
8, 448800, Note_off_c, 6, 65, 64
8, 448800, Note_on_c, 6, 53, 100
8, 449040, Note_off_c, 6, 53, 64
8, 449040, Note_on_c, 6, 55, 100
8, 449280, Note_off_c, 6, 55, 64
8, 449280, Note_on_c, 6, 60, 100
8, 449520, Note_off_c, 6, 60, 64
8, 449520, Note_on_c, 6, 62, 100
8, 449760, Note_off_c, 6, 62, 64
8, 449760, Note_on_c, 6, 67, 100
8, 450000, Note_off_c, 6, 67, 64
8, 450000, Note_on_c, 6, 69, 100
8, 450240, Note_off_c, 6, 69, 64
8, 450240, Note_on_c, 6, 70, 100
8, 450480, Note_off_c, 6, 70, 64
8, 450480, Note_on_c, 6, 67, 100
8, 450720, Note_off_c, 6, 67, 64
8, 450720, Note_on_c, 6, 62, 100
8, 450960, Note_off_c, 6, 62, 64
8, 450960, Note_on_c, 6, 70, 100
8, 451200, Note_off_c, 6, 70, 64
8, 451200, Note_on_c, 6, 69, 100
8, 451440, Note_off_c, 6, 69, 64
8, 451440, Note_on_c, 6, 65, 100
8, 451680, Note_off_c, 6, 65, 64
8, 451680, Note_on_c, 6, 60, 100
8, 451920, Note_off_c, 6, 60, 64
8, 451920, Note_on_c, 6, 67, 100
8, 452160, Note_off_c, 6, 67, 64
8, 452160, Note_on_c, 6, 64, 100
8, 452400, Note_off_c, 6, 64, 64
8, 452400, Note_on_c, 6, 60, 100
8, 452880, Note_off_c, 6, 60, 64
8, 452880, Note_on_c, 6, 57, 100
8, 453000, Note_off_c, 6, 57, 64
8, 453000, Note_on_c, 6, 58, 100
8, 453120, Note_off_c, 6, 58, 64
8, 453120, Note_on_c, 6, 60, 100
8, 453240, Note_off_c, 6, 60, 64
8, 453240, Note_on_c, 6, 62, 100
8, 453360, Note_off_c, 6, 62, 64
8, 453360, Note_on_c, 6, 64, 100
8, 453480, Note_off_c, 6, 64, 64
8, 453480, Note_on_c, 6, 65, 100
8, 453600, Note_off_c, 6, 65, 64
8, 453600, Note_on_c, 6, 62, 100
8, 453600, Note_on_c, 6, 69, 100
8, 453600, Note_on_c, 6, 74, 100
8, 453600, Note_on_c, 6, 65, 100
8, 454560, Note_off_c, 6, 65, 64
8, 454560, Note_off_c, 6, 74, 64
8, 454560, Note_off_c, 6, 69, 64
8, 454560, Note_off_c, 6, 62, 64
8, 454560, Note_on_c, 6, 79, 100
8, 454560, Note_on_c, 6, 76, 100
8, 454560, Note_on_c, 6, 72, 100
8, 454560, Note_on_c, 6, 67, 100
8, 455273, Note_off_c, 6, 67, 64
8, 455273, Note_off_c, 6, 72, 64
8, 455273, Note_off_c, 6, 76, 64
8, 455273, Note_off_c, 6, 79, 64
8, 455280, Note_on_c, 6, 77, 100
8, 455280, Note_on_c, 6, 72, 100
8, 455280, Note_on_c, 6, 81, 100
8, 456240, Note_off_c, 6, 81, 64
8, 456240, Note_off_c, 6, 72, 64
8, 456240, Note_off_c, 6, 77, 64
8, 456240, Note_on_c, 6, 82, 100
8, 456240, Note_on_c, 6, 77, 100
8, 456240, Note_on_c, 6, 74, 100
8, 456960, Note_on_c, 6, 84, 100
8, 456960, Note_on_c, 6, 79, 100
8, 456960, Note_on_c, 6, 76, 100
8, 456960, Note_on_c, 6, 72, 100
8, 456967, Note_off_c, 6, 74, 64
8, 456967, Note_off_c, 6, 77, 64
8, 456967, Note_off_c, 6, 82, 64
8, 457920, Note_off_c, 6, 84, 64
8, 457920, Note_off_c, 6, 79, 64
8, 457920, Note_off_c, 6, 76, 64
8, 457920, Note_off_c, 6, 72, 64
8, 457920, Note_on_c, 6, 86, 100
8, 457920, Note_on_c, 6, 81, 100
8, 457920, Note_on_c, 6, 77, 100
8, 457920, Note_on_c, 6, 74, 100
8, 458633, Note_off_c, 6, 74, 64
8, 458633, Note_off_c, 6, 77, 64
8, 458633, Note_off_c, 6, 81, 64
8, 458633, Note_off_c, 6, 86, 64
8, 458640, Note_on_c, 6, 88, 100
8, 458640, Note_on_c, 6, 84, 100
8, 458640, Note_on_c, 6, 79, 100
8, 459600, Note_off_c, 6, 79, 64
8, 459600, Note_off_c, 6, 84, 64
8, 459600, Note_off_c, 6, 88, 64
8, 459600, Note_on_c, 6, 89, 100
8, 459600, Note_on_c, 6, 82, 100
8, 459600, Note_on_c, 6, 86, 100
8, 459847, Note_off_c, 6, 86, 64
8, 459847, Note_off_c, 6, 82, 64
8, 459847, Note_off_c, 6, 89, 64
8, 504880, Note_on_c, 6, 77, 80
8, 504960, Note_off_c, 6, 77, 64
8, 504960, Note_on_c, 6, 89, 80
8, 505040, Note_off_c, 6, 89, 64
8, 505040, Note_on_c, 6, 77, 80
8, 505120, Note_off_c, 6, 77, 64
8, 505120, Note_on_c, 6, 89, 80
8, 505200, Note_off_c, 6, 89, 64
8, 505200, Note_on_c, 6, 77, 80
8, 505280, Note_off_c, 6, 77, 64
8, 505280, Note_on_c, 6, 89, 80
8, 505360, Note_off_c, 6, 89, 64
8, 505360, Note_on_c, 6, 77, 80
8, 505440, Note_off_c, 6, 77, 64
8, 505440, Note_on_c, 6, 89, 80
8, 505520, Note_off_c, 6, 89, 64
8, 505520, Note_on_c, 6, 77, 80
8, 505600, Note_off_c, 6, 77, 64
8, 505600, Note_on_c, 6, 89, 80
8, 505680, Note_off_c, 6, 89, 64
8, 505680, Note_on_c, 6, 77, 80
8, 505760, Note_off_c, 6, 77, 64
8, 505760, Note_on_c, 6, 89, 80
8, 505840, Note_off_c, 6, 89, 64
8, 505840, Note_on_c, 6, 77, 80
8, 505920, Note_off_c, 6, 77, 64
8, 505920, Note_on_c, 6, 89, 80
8, 506000, Note_off_c, 6, 89, 64
8, 506000, Note_on_c, 6, 77, 80
8, 506080, Note_off_c, 6, 77, 64
8, 506100, Note_on_c, 6, 89, 80
8, 506180, Note_off_c, 6, 89, 64
8, 506180, Note_on_c, 6, 77, 80
8, 506260, Note_off_c, 6, 77, 64
8, 506260, Note_on_c, 6, 89, 80
8, 506340, Note_off_c, 6, 89, 64
8, 506340, Note_on_c, 6, 77, 80
8, 506420, Note_off_c, 6, 77, 64
8, 506420, Note_on_c, 6, 89, 80
8, 506500, Note_off_c, 6, 89, 64
8, 506500, Note_on_c, 6, 77, 80
8, 506580, Note_off_c, 6, 77, 64
8, 506580, Note_on_c, 6, 89, 80
8, 506660, Note_off_c, 6, 89, 64
8, 506660, Note_on_c, 6, 77, 80
8, 506740, Note_off_c, 6, 77, 64
8, 506740, Note_on_c, 6, 89, 80
8, 507180, Note_on_c, 6, 79, 100
8, 507181, Note_off_c, 6, 89, 64
8, 507300, Note_off_c, 6, 79, 64
8, 507300, Note_on_c, 6, 80, 100
8, 507360, Note_off_c, 6, 80, 64
8, 507360, Note_on_c, 6, 81, 100
8, 507658, Note_off_c, 6, 81, 64
8, 507660, Note_on_c, 6, 86, 100
8, 507840, Note_on_c, 6, 84, 100
8, 507842, Note_off_c, 6, 86, 64
8, 508080, Note_off_c, 6, 84, 64
8, 508140, Note_on_c, 6, 72, 100
8, 508320, Note_off_c, 6, 72, 64
8, 508320, Note_on_c, 6, 72, 100
8, 508488, Note_off_c, 6, 72, 64
8, 508500, Note_on_c, 6, 74, 100
8, 508800, Note_on_c, 6, 77, 100
8, 508812, Note_off_c, 6, 74, 64
8, 509280, Note_off_c, 6, 77, 64
8, 509285, Note_on_c, 6, 69, 90
8, 509345, Note_off_c, 6, 69, 64
8, 509345, Note_on_c, 6, 74, 90
8, 509405, Note_off_c, 6, 74, 64
8, 509405, Note_on_c, 6, 77, 90
8, 509465, Note_off_c, 6, 77, 64
8, 509465, Note_on_c, 6, 81, 90
8, 509525, Note_off_c, 6, 81, 64
8, 509525, Note_on_c, 6, 86, 90
8, 509585, Note_off_c, 6, 86, 64
8, 509585, Note_on_c, 6, 89, 90
8, 509645, Note_off_c, 6, 89, 64
8, 509645, Note_on_c, 6, 93, 90
8, 509705, Note_off_c, 6, 93, 64
8, 509705, Note_on_c, 6, 98, 90
8, 509760, Note_on_c, 6, 101, 90
8, 509765, Note_off_c, 6, 98, 64
8, 509820, Note_off_c, 6, 101, 64
8, 509820, Note_on_c, 6, 98, 90
8, 509880, Note_off_c, 6, 98, 64
8, 509880, Note_on_c, 6, 93, 90
8, 509940, Note_off_c, 6, 93, 64
8, 509940, Note_on_c, 6, 91, 90
8, 510000, Note_off_c, 6, 91, 64
8, 510000, Note_on_c, 6, 93, 90
8, 510060, Note_off_c, 6, 93, 64
8, 510060, Note_on_c, 6, 91, 90
8, 510120, Note_off_c, 6, 91, 64
8, 510120, Note_on_c, 6, 89, 90
8, 510180, Note_off_c, 6, 89, 64
8, 510180, Note_on_c, 6, 86, 90
8, 510240, Note_off_c, 6, 86, 64
8, 510240, Note_on_c, 6, 92, 90
8, 510300, Note_off_c, 6, 92, 64
8, 510300, Note_on_c, 6, 93, 90
8, 510360, Note_off_c, 6, 93, 64
8, 510360, Note_on_c, 6, 96, 90
8, 510420, Note_off_c, 6, 96, 64
8, 510420, Note_on_c, 6, 93, 90
8, 510480, Note_off_c, 6, 93, 64
8, 510480, Note_on_c, 6, 91, 90
8, 510540, Note_off_c, 6, 91, 64
8, 510540, Note_on_c, 6, 89, 90
8, 510600, Note_off_c, 6, 89, 64
8, 510600, Note_on_c, 6, 86, 90
8, 510660, Note_off_c, 6, 86, 64
8, 510660, Note_on_c, 6, 84, 90
8, 510720, Note_off_c, 6, 84, 64
8, 510720, Note_on_c, 6, 81, 90
8, 510780, Note_off_c, 6, 81, 64
8, 510780, Note_on_c, 6, 80, 90
8, 510840, Note_off_c, 6, 80, 64
8, 510840, Note_on_c, 6, 79, 90
8, 510900, Note_off_c, 6, 79, 64
8, 510900, Note_on_c, 6, 77, 90
8, 510960, Note_off_c, 6, 77, 64
8, 510960, Note_on_c, 6, 74, 90
8, 511020, Note_off_c, 6, 74, 64
8, 511020, Note_on_c, 6, 72, 90
8, 511080, Note_off_c, 6, 72, 64
8, 511080, Note_on_c, 6, 69, 90
8, 511140, Note_off_c, 6, 69, 64
8, 511140, Note_on_c, 6, 68, 90
8, 511200, Note_off_c, 6, 68, 64
8, 511200, Note_on_c, 6, 67, 90
8, 511260, Note_off_c, 6, 67, 64
8, 511260, Note_on_c, 6, 65, 90
8, 511320, Note_on_c, 6, 62, 90
8, 511325, Note_off_c, 6, 65, 64
8, 511380, Note_off_c, 6, 62, 64
8, 511380, Note_on_c, 6, 60, 100
8, 512640, Note_on_c, 6, 89, 100
8, 512640, Note_on_c, 6, 84, 100
8, 512640, Note_on_c, 6, 81, 100
8, 512640, Note_on_c, 6, 77, 100
8, 512652, Note_off_c, 6, 60, 64
8, 512880, Note_off_c, 6, 89, 64
8, 512880, Note_off_c, 6, 84, 64
8, 512880, Note_off_c, 6, 81, 64
8, 512880, Note_off_c, 6, 77, 64
8, 512940, Note_on_c, 6, 77, 80
8, 513120, Note_on_c, 6, 89, 100
8, 513120, Note_on_c, 6, 84, 100
8, 513120, Note_on_c, 6, 81, 100
8, 513120, Note_on_c, 6, 77, 100
8, 513122, Note_off_c, 6, 77, 64
8, 513360, Note_off_c, 6, 89, 64
8, 513360, Note_off_c, 6, 84, 64
8, 513360, Note_off_c, 6, 81, 64
8, 513360, Note_off_c, 6, 77, 64
8, 513420, Note_on_c, 6, 77, 80
8, 513600, Note_on_c, 6, 89, 100
8, 513600, Note_on_c, 6, 84, 100
8, 513600, Note_on_c, 6, 81, 100
8, 513600, Note_on_c, 6, 77, 100
8, 513602, Note_off_c, 6, 77, 64
8, 513840, Note_off_c, 6, 89, 64
8, 513840, Note_off_c, 6, 84, 64
8, 513840, Note_off_c, 6, 81, 64
8, 513840, Note_off_c, 6, 77, 64
8, 513900, Note_on_c, 6, 86, 100
8, 513900, Note_on_c, 6, 81, 100
8, 513900, Note_on_c, 6, 77, 100
8, 513900, Note_on_c, 6, 74, 100
8, 514562, Note_off_c, 6, 74, 64
8, 514562, Note_off_c, 6, 77, 64
8, 514562, Note_off_c, 6, 81, 64
8, 514562, Note_off_c, 6, 86, 64
8, 514800, Note_on_c, 6, 89, 100
8, 514800, Note_on_c, 6, 84, 100
8, 514800, Note_on_c, 6, 81, 100
8, 514800, Note_on_c, 6, 77, 100
8, 515040, Note_off_c, 6, 77, 64
8, 515040, Note_off_c, 6, 81, 64
8, 515040, Note_off_c, 6, 84, 64
8, 515040, Note_off_c, 6, 89, 64
8, 515040, Note_on_c, 6, 88, 100
8, 515040, Note_on_c, 6, 81, 100
8, 515040, Note_on_c, 6, 84, 100
8, 515040, Note_on_c, 6, 77, 100
8, 515280, Note_off_c, 6, 77, 64
8, 515280, Note_off_c, 6, 84, 64
8, 515280, Note_off_c, 6, 81, 64
8, 515338, Note_off_c, 6, 88, 64
8, 515340, Note_on_c, 6, 86, 100
8, 515520, Note_on_c, 6, 88, 100
8, 515520, Note_on_c, 6, 84, 100
8, 515520, Note_on_c, 6, 79, 100
8, 515520, Note_on_c, 6, 72, 100
8, 515522, Note_off_c, 6, 86, 64
8, 515760, Note_off_c, 6, 79, 64
8, 515760, Note_off_c, 6, 72, 64
8, 515818, Note_off_c, 6, 88, 64
8, 515818, Note_off_c, 6, 84, 64
8, 515820, Note_on_c, 6, 86, 100
8, 516000, Note_on_c, 6, 84, 100
8, 516000, Note_on_c, 6, 79, 100
8, 516000, Note_on_c, 6, 76, 100
8, 516002, Note_off_c, 6, 86, 64
8, 516240, Note_off_c, 6, 79, 64
8, 516240, Note_off_c, 6, 76, 64
8, 516298, Note_off_c, 6, 84, 64
8, 516300, Note_on_c, 6, 82, 100
8, 516480, Note_on_c, 6, 81, 100
8, 516480, Note_on_c, 6, 77, 100
8, 516480, Note_on_c, 6, 72, 100
8, 516480, Note_on_c, 6, 60, 100
8, 516482, Note_off_c, 6, 82, 64
8, 516778, Note_off_c, 6, 77, 64
8, 516830, Note_off_c, 6, 81, 64
8, 516830, Note_off_c, 6, 72, 64
8, 516830, Note_off_c, 6, 60, 64
8, 516840, Note_on_c, 6, 69, 90
8, 516900, Note_off_c, 6, 69, 64
8, 516900, Note_on_c, 6, 74, 90
8, 516960, Note_off_c, 6, 74, 64
8, 516960, Note_on_c, 6, 77, 90
8, 517012, Note_on_c, 6, 81, 90
8, 517020, Note_off_c, 6, 77, 64
8, 517072, Note_off_c, 6, 81, 64
8, 517072, Note_on_c, 6, 86, 90
8, 517132, Note_off_c, 6, 86, 64
8, 517132, Note_on_c, 6, 89, 90
8, 517192, Note_off_c, 6, 89, 64
8, 517192, Note_on_c, 6, 93, 90
8, 517252, Note_off_c, 6, 93, 64
8, 517252, Note_on_c, 6, 89, 90
8, 517312, Note_off_c, 6, 89, 64
8, 517312, Note_on_c, 6, 86, 90
8, 517372, Note_off_c, 6, 86, 64
8, 517372, Note_on_c, 6, 81, 90
8, 517432, Note_off_c, 6, 81, 64
8, 517440, Note_on_c, 6, 79, 90
8, 517500, Note_off_c, 6, 79, 64
8, 517500, Note_on_c, 6, 81, 90
8, 517560, Note_off_c, 6, 81, 64
8, 517560, Note_on_c, 6, 79, 90
8, 517620, Note_off_c, 6, 79, 64
8, 517620, Note_on_c, 6, 77, 90
8, 517680, Note_off_c, 6, 77, 64
8, 517680, Note_on_c, 6, 74, 90
8, 517800, Note_off_c, 6, 74, 64
8, 517800, Note_on_c, 6, 80, 90
8, 517860, Note_off_c, 6, 80, 64
8, 517860, Note_on_c, 6, 81, 90
8, 517920, Note_off_c, 6, 81, 64
8, 517920, Note_on_c, 6, 84, 90
8, 517980, Note_off_c, 6, 84, 64
8, 517980, Note_on_c, 6, 81, 90
8, 518040, Note_off_c, 6, 81, 64
8, 518040, Note_on_c, 6, 79, 90
8, 518100, Note_off_c, 6, 79, 64
8, 518100, Note_on_c, 6, 77, 90
8, 518160, Note_off_c, 6, 77, 64
8, 518160, Note_on_c, 6, 74, 90
8, 518220, Note_off_c, 6, 74, 64
8, 518220, Note_on_c, 6, 72, 90
8, 518280, Note_off_c, 6, 72, 64
8, 518280, Note_on_c, 6, 69, 90
8, 518340, Note_off_c, 6, 69, 64
8, 518340, Note_on_c, 6, 65, 90
8, 518400, Note_off_c, 6, 65, 64
8, 518400, Note_on_c, 6, 67, 100
8, 519840, Note_off_c, 6, 67, 64
8, 520140, Note_on_c, 6, 74, 100
8, 520200, Note_off_c, 6, 74, 64
8, 520200, Note_on_c, 6, 75, 100
8, 520260, Note_off_c, 6, 75, 64
8, 520260, Note_on_c, 6, 76, 100
8, 520320, Note_off_c, 6, 76, 64
8, 520320, Note_on_c, 6, 77, 100
8, 520320, Note_on_c, 6, 53, 90
8, 520440, Note_off_c, 6, 53, 64
8, 520560, Note_off_c, 6, 77, 64
8, 520560, Note_on_c, 6, 76, 100
8, 520560, Note_on_c, 6, 60, 90
8, 520560, Note_on_c, 6, 65, 90
8, 520680, Note_off_c, 6, 65, 64
8, 520680, Note_off_c, 6, 60, 64
8, 520800, Note_off_c, 6, 76, 64
8, 520800, Note_on_c, 6, 75, 100
8, 520800, Note_on_c, 6, 48, 90
8, 520920, Note_off_c, 6, 48, 64
8, 520920, Note_off_c, 6, 75, 64
8, 520920, Note_on_c, 6, 76, 100
8, 521040, Note_off_c, 6, 76, 64
8, 521040, Note_on_c, 6, 75, 100
8, 521040, Note_on_c, 6, 65, 90
8, 521040, Note_on_c, 6, 60, 90
8, 521160, Note_off_c, 6, 60, 64
8, 521160, Note_off_c, 6, 65, 64
8, 521160, Note_off_c, 6, 75, 64
8, 521160, Note_on_c, 6, 74, 100
8, 521280, Note_off_c, 6, 74, 64
8, 521280, Note_on_c, 6, 73, 100
8, 521280, Note_on_c, 6, 53, 90
8, 521400, Note_off_c, 6, 53, 64
8, 521520, Note_off_c, 6, 73, 64
8, 521520, Note_on_c, 6, 72, 100
8, 521520, Note_on_c, 6, 60, 90
8, 521520, Note_on_c, 6, 65, 90
8, 521640, Note_off_c, 6, 65, 64
8, 521640, Note_off_c, 6, 60, 64
8, 521760, Note_off_c, 6, 72, 64
8, 521760, Note_on_c, 6, 71, 100
8, 521760, Note_on_c, 6, 48, 90
8, 521880, Note_off_c, 6, 48, 64
8, 522000, Note_off_c, 6, 71, 64
8, 522000, Note_on_c, 6, 72, 100
8, 522000, Note_on_c, 6, 65, 90
8, 522000, Note_on_c, 6, 60, 90
8, 522120, Note_off_c, 6, 60, 64
8, 522120, Note_off_c, 6, 65, 64
8, 522240, Note_off_c, 6, 72, 64
8, 522240, Note_on_c, 6, 74, 100
8, 522240, Note_on_c, 6, 53, 90
8, 522360, Note_off_c, 6, 53, 64
8, 522480, Note_off_c, 6, 74, 64
8, 522480, Note_on_c, 6, 73, 100
8, 522480, Note_on_c, 6, 60, 90
8, 522480, Note_on_c, 6, 65, 90
8, 522600, Note_off_c, 6, 65, 64
8, 522600, Note_off_c, 6, 60, 64
8, 522720, Note_off_c, 6, 73, 64
8, 522720, Note_on_c, 6, 72, 100
8, 522720, Note_on_c, 6, 48, 90
8, 522840, Note_off_c, 6, 48, 64
8, 522840, Note_off_c, 6, 72, 64
8, 522840, Note_on_c, 6, 73, 100
8, 522960, Note_off_c, 6, 73, 64
8, 522960, Note_on_c, 6, 72, 100
8, 522960, Note_on_c, 6, 65, 90
8, 522960, Note_on_c, 6, 60, 90
8, 523080, Note_off_c, 6, 60, 64
8, 523080, Note_off_c, 6, 65, 64
8, 523080, Note_off_c, 6, 72, 64
8, 523080, Note_on_c, 6, 71, 100
8, 523200, Note_off_c, 6, 71, 64
8, 523200, Note_on_c, 6, 70, 100
8, 523200, Note_on_c, 6, 53, 90
8, 523320, Note_off_c, 6, 53, 64
8, 523440, Note_off_c, 6, 70, 64
8, 523440, Note_on_c, 6, 69, 100
8, 523440, Note_on_c, 6, 60, 90
8, 523440, Note_on_c, 6, 65, 90
8, 523560, Note_off_c, 6, 65, 64
8, 523560, Note_off_c, 6, 60, 64
8, 523680, Note_off_c, 6, 69, 64
8, 523680, Note_on_c, 6, 68, 100
8, 523680, Note_on_c, 6, 48, 90
8, 523800, Note_off_c, 6, 48, 64
8, 523920, Note_off_c, 6, 68, 64
8, 523920, Note_on_c, 6, 69, 100
8, 523920, Note_on_c, 6, 65, 90
8, 523920, Note_on_c, 6, 60, 90
8, 524040, Note_off_c, 6, 60, 64
8, 524040, Note_off_c, 6, 65, 64
8, 524160, Note_off_c, 6, 69, 64
8, 524160, Note_on_c, 6, 72, 100
8, 524400, Note_off_c, 6, 72, 64
8, 524400, Note_on_c, 6, 67, 100
8, 524520, Note_off_c, 6, 67, 64
8, 524520, Note_on_c, 6, 67, 100
8, 524640, Note_off_c, 6, 67, 64
8, 524640, Note_on_c, 6, 66, 100
8, 524873, Note_off_c, 6, 66, 64
8, 524880, Note_on_c, 6, 67, 100
8, 525120, Note_off_c, 6, 67, 64
8, 525120, Note_on_c, 6, 72, 100
8, 525360, Note_off_c, 6, 72, 64
8, 525360, Note_on_c, 6, 67, 100
8, 525480, Note_off_c, 6, 67, 64
8, 525480, Note_on_c, 6, 67, 100
8, 525600, Note_off_c, 6, 67, 64
8, 525600, Note_on_c, 6, 66, 100
8, 525833, Note_off_c, 6, 66, 64
8, 525840, Note_on_c, 6, 67, 100
8, 526080, Note_off_c, 6, 67, 64
8, 526080, Note_on_c, 6, 60, 100
8, 526200, Note_off_c, 6, 60, 64
8, 526200, Note_on_c, 6, 61, 100
8, 526320, Note_off_c, 6, 61, 64
8, 526320, Note_on_c, 6, 62, 100
8, 526440, Note_off_c, 6, 62, 64
8, 526440, Note_on_c, 6, 63, 100
8, 526560, Note_off_c, 6, 63, 64
8, 526560, Note_on_c, 6, 64, 100
8, 526680, Note_off_c, 6, 64, 64
8, 526680, Note_on_c, 6, 65, 100
8, 526800, Note_off_c, 6, 65, 64
8, 526800, Note_on_c, 6, 66, 100
8, 526920, Note_off_c, 6, 66, 64
8, 526920, Note_on_c, 6, 67, 100
8, 527040, Note_off_c, 6, 67, 64
8, 527040, Note_on_c, 6, 68, 100
8, 527160, Note_off_c, 6, 68, 64
8, 527160, Note_on_c, 6, 69, 100
8, 527280, Note_off_c, 6, 69, 64
8, 527280, Note_on_c, 6, 70, 100
8, 527400, Note_off_c, 6, 70, 64
8, 527400, Note_on_c, 6, 71, 100
8, 527520, Note_off_c, 6, 71, 64
8, 527520, Note_on_c, 6, 72, 100
8, 527640, Note_off_c, 6, 72, 64
8, 527640, Note_on_c, 6, 73, 100
8, 527760, Note_off_c, 6, 73, 64
8, 527760, Note_on_c, 6, 74, 100
8, 527880, Note_off_c, 6, 74, 64
8, 527880, Note_on_c, 6, 75, 100
8, 528000, Note_off_c, 6, 75, 64
8, 528000, Note_on_c, 6, 76, 100
8, 528120, Note_off_c, 6, 76, 64
8, 528120, Note_on_c, 6, 77, 100
8, 528240, Note_off_c, 6, 77, 64
8, 528240, Note_on_c, 6, 78, 100
8, 528360, Note_off_c, 6, 78, 64
8, 528360, Note_on_c, 6, 79, 100
8, 528480, Note_off_c, 6, 79, 64
8, 528480, Note_on_c, 6, 80, 100
8, 528600, Note_off_c, 6, 80, 64
8, 528600, Note_on_c, 6, 81, 100
8, 528720, Note_off_c, 6, 81, 64
8, 528720, Note_on_c, 6, 82, 100
8, 528840, Note_off_c, 6, 82, 64
8, 528840, Note_on_c, 6, 83, 100
8, 528960, Note_off_c, 6, 83, 64
8, 528960, Note_on_c, 6, 84, 100
8, 529080, Note_off_c, 6, 84, 64
8, 529080, Note_on_c, 6, 85, 100
8, 529200, Note_off_c, 6, 85, 64
8, 529200, Note_on_c, 6, 86, 100
8, 529320, Note_off_c, 6, 86, 64
8, 529320, Note_on_c, 6, 88, 100
8, 529440, Note_off_c, 6, 88, 64
8, 529440, Note_on_c, 6, 89, 100
8, 529560, Note_off_c, 6, 89, 64
8, 529560, Note_on_c, 6, 90, 100
8, 529680, Note_off_c, 6, 90, 64
8, 529680, Note_on_c, 6, 91, 100
8, 529800, Note_off_c, 6, 91, 64
8, 529800, Note_on_c, 6, 92, 100
8, 529860, Note_off_c, 6, 92, 64
8, 529860, Note_on_c, 6, 93, 100
8, 529920, Note_off_c, 6, 93, 64
8, 529920, Note_on_c, 6, 89, 100
8, 530040, Note_off_c, 6, 89, 64
8, 531360, Note_on_c, 6, 48, 100
8, 531600, Note_off_c, 6, 48, 64
8, 531840, Note_on_c, 6, 53, 100
8, 532080, Note_off_c, 6, 53, 64
8, 532080, End_track
9, 0, Start_track
9, 0, Title_t, "Synth"
9, 0, MIDI_port, 0
9, 0, Channel_prefix, 7
9, 0, Control_c, 7, 7, 49
9, 0, Control_c, 7, 10, 64
9, 0, Program_c, 7, 13
9, 0, Note_on_c, 7, 81, 100
9, 120, Note_off_c, 7, 81, 80
9, 120, Note_on_c, 7, 77, 100
9, 240, Note_off_c, 7, 77, 80
9, 240, Note_on_c, 7, 70, 100
9, 360, Note_off_c, 7, 70, 80
9, 360, Note_on_c, 7, 69, 100
9, 480, Note_off_c, 7, 69, 80
9, 480, Note_on_c, 7, 70, 100
9, 600, Note_off_c, 7, 70, 80
9, 600, Note_on_c, 7, 77, 100
9, 720, Note_off_c, 7, 77, 80
9, 720, Note_on_c, 7, 81, 100
9, 840, Note_off_c, 7, 81, 80
9, 840, Note_on_c, 7, 77, 100
9, 960, Note_off_c, 7, 77, 80
9, 960, Note_on_c, 7, 70, 100
9, 1080, Note_off_c, 7, 70, 80
9, 1080, Note_on_c, 7, 69, 100
9, 1200, Note_off_c, 7, 69, 80
9, 1200, Note_on_c, 7, 65, 100
9, 1320, Note_off_c, 7, 65, 80
9, 1320, Note_on_c, 7, 64, 100
9, 1440, Note_off_c, 7, 64, 80
9, 1440, Note_on_c, 7, 65, 100
9, 1560, Note_off_c, 7, 65, 80
9, 1560, Note_on_c, 7, 69, 100
9, 1680, Note_off_c, 7, 69, 80
9, 1680, Note_on_c, 7, 70, 100
9, 1800, Note_off_c, 7, 70, 80
9, 1800, Note_on_c, 7, 77, 100
9, 1920, Note_off_c, 7, 77, 80
9, 1920, Note_on_c, 7, 81, 100
9, 2040, Note_off_c, 7, 81, 80
9, 2040, Note_on_c, 7, 77, 100
9, 2160, Note_off_c, 7, 77, 80
9, 2160, Note_on_c, 7, 70, 100
9, 2280, Note_off_c, 7, 70, 80
9, 2280, Note_on_c, 7, 69, 100
9, 2400, Note_off_c, 7, 69, 80
9, 2400, Note_on_c, 7, 70, 100
9, 2520, Note_off_c, 7, 70, 80
9, 2520, Note_on_c, 7, 77, 100
9, 2640, Note_off_c, 7, 77, 80
9, 2640, Note_on_c, 7, 81, 100
9, 2760, Note_off_c, 7, 81, 80
9, 2760, Note_on_c, 7, 77, 100
9, 2880, Note_off_c, 7, 77, 80
9, 2880, Note_on_c, 7, 70, 100
9, 3000, Note_off_c, 7, 70, 80
9, 3000, Note_on_c, 7, 69, 100
9, 3120, Note_off_c, 7, 69, 80
9, 3120, Note_on_c, 7, 65, 100
9, 3240, Note_off_c, 7, 65, 80
9, 3240, Note_on_c, 7, 64, 100
9, 3360, Note_off_c, 7, 64, 80
9, 3360, Note_on_c, 7, 65, 100
9, 3480, Note_off_c, 7, 65, 80
9, 3480, Note_on_c, 7, 69, 100
9, 3600, Note_off_c, 7, 69, 80
9, 3600, Note_on_c, 7, 70, 100
9, 3720, Note_off_c, 7, 70, 80
9, 3720, Note_on_c, 7, 77, 100
9, 3840, Note_off_c, 7, 77, 80
9, 3840, Note_on_c, 7, 81, 100
9, 3960, Note_off_c, 7, 81, 80
9, 3960, Note_on_c, 7, 77, 100
9, 4080, Note_off_c, 7, 77, 80
9, 4080, Note_on_c, 7, 70, 100
9, 4200, Note_off_c, 7, 70, 80
9, 4200, Note_on_c, 7, 69, 100
9, 4320, Note_off_c, 7, 69, 80
9, 4320, Note_on_c, 7, 70, 100
9, 4440, Note_off_c, 7, 70, 80
9, 4440, Note_on_c, 7, 77, 100
9, 4560, Note_off_c, 7, 77, 80
9, 4560, Note_on_c, 7, 81, 100
9, 4680, Note_off_c, 7, 81, 80
9, 4680, Note_on_c, 7, 77, 100
9, 4800, Note_off_c, 7, 77, 80
9, 4800, Note_on_c, 7, 70, 100
9, 4920, Note_off_c, 7, 70, 80
9, 4920, Note_on_c, 7, 69, 100
9, 5040, Note_off_c, 7, 69, 80
9, 5040, Note_on_c, 7, 65, 100
9, 5160, Note_off_c, 7, 65, 80
9, 5160, Note_on_c, 7, 64, 100
9, 5280, Note_off_c, 7, 64, 80
9, 5280, Note_on_c, 7, 65, 100
9, 5400, Note_off_c, 7, 65, 80
9, 5400, Note_on_c, 7, 69, 100
9, 5520, Note_off_c, 7, 69, 80
9, 5520, Note_on_c, 7, 70, 100
9, 5640, Note_off_c, 7, 70, 80
9, 5640, Note_on_c, 7, 77, 100
9, 5760, Note_off_c, 7, 77, 80
9, 5760, Note_on_c, 7, 84, 100
9, 5880, Note_off_c, 7, 84, 80
9, 5880, Note_on_c, 7, 79, 100
9, 6000, Note_off_c, 7, 79, 80
9, 6000, Note_on_c, 7, 72, 100
9, 6120, Note_off_c, 7, 72, 80
9, 6120, Note_on_c, 7, 70, 100
9, 6240, Note_off_c, 7, 70, 80
9, 6240, Note_on_c, 7, 72, 100
9, 6360, Note_off_c, 7, 72, 80
9, 6360, Note_on_c, 7, 79, 100
9, 6480, Note_off_c, 7, 79, 80
9, 6480, Note_on_c, 7, 84, 100
9, 6600, Note_off_c, 7, 84, 80
9, 6600, Note_on_c, 7, 79, 100
9, 6720, Note_off_c, 7, 79, 80
9, 6720, Note_on_c, 7, 72, 100
9, 6840, Note_off_c, 7, 72, 80
9, 6840, Note_on_c, 7, 70, 100
9, 6960, Note_off_c, 7, 70, 80
9, 6960, Note_on_c, 7, 72, 100
9, 7080, Note_off_c, 7, 72, 80
9, 7080, Note_on_c, 7, 79, 100
9, 7200, Note_off_c, 7, 79, 80
9, 7200, Note_on_c, 7, 84, 100
9, 7320, Note_off_c, 7, 84, 80
9, 7320, Note_on_c, 7, 79, 100
9, 7440, Note_off_c, 7, 79, 80
9, 7440, Note_on_c, 7, 72, 100
9, 7560, Note_off_c, 7, 72, 80
9, 7560, Note_on_c, 7, 70, 100
9, 7680, Note_off_c, 7, 70, 80
9, 7680, Note_on_c, 7, 81, 100
9, 7800, Note_off_c, 7, 81, 80
9, 7800, Note_on_c, 7, 77, 100
9, 7920, Note_off_c, 7, 77, 80
9, 7920, Note_on_c, 7, 70, 100
9, 8040, Note_off_c, 7, 70, 80
9, 8040, Note_on_c, 7, 69, 100
9, 8160, Note_off_c, 7, 69, 80
9, 8160, Note_on_c, 7, 70, 100
9, 8280, Note_off_c, 7, 70, 80
9, 8280, Note_on_c, 7, 77, 100
9, 8400, Note_off_c, 7, 77, 80
9, 8400, Note_on_c, 7, 81, 100
9, 8520, Note_off_c, 7, 81, 80
9, 8520, Note_on_c, 7, 77, 100
9, 8640, Note_off_c, 7, 77, 80
9, 8640, Note_on_c, 7, 70, 100
9, 8760, Note_off_c, 7, 70, 80
9, 8760, Note_on_c, 7, 69, 100
9, 8880, Note_off_c, 7, 69, 80
9, 8880, Note_on_c, 7, 65, 100
9, 9000, Note_off_c, 7, 65, 80
9, 9000, Note_on_c, 7, 64, 100
9, 9120, Note_off_c, 7, 64, 80
9, 9120, Note_on_c, 7, 65, 100
9, 9240, Note_off_c, 7, 65, 80
9, 9240, Note_on_c, 7, 69, 100
9, 9360, Note_off_c, 7, 69, 80
9, 9360, Note_on_c, 7, 70, 100
9, 9480, Note_off_c, 7, 70, 80
9, 9480, Note_on_c, 7, 77, 100
9, 9600, Note_off_c, 7, 77, 80
9, 9600, Note_on_c, 7, 81, 100
9, 9720, Note_off_c, 7, 81, 80
9, 9720, Note_on_c, 7, 77, 100
9, 9840, Note_off_c, 7, 77, 80
9, 9840, Note_on_c, 7, 70, 100
9, 9960, Note_off_c, 7, 70, 80
9, 9960, Note_on_c, 7, 69, 100
9, 10080, Note_off_c, 7, 69, 80
9, 10080, Note_on_c, 7, 70, 100
9, 10200, Note_off_c, 7, 70, 80
9, 10200, Note_on_c, 7, 77, 100
9, 10320, Note_off_c, 7, 77, 80
9, 10320, Note_on_c, 7, 81, 100
9, 10440, Note_off_c, 7, 81, 80
9, 10440, Note_on_c, 7, 77, 100
9, 10560, Note_off_c, 7, 77, 80
9, 10560, Note_on_c, 7, 70, 100
9, 10680, Note_off_c, 7, 70, 80
9, 10680, Note_on_c, 7, 69, 100
9, 10800, Note_off_c, 7, 69, 80
9, 10800, Note_on_c, 7, 65, 100
9, 10920, Note_off_c, 7, 65, 80
9, 10920, Note_on_c, 7, 64, 100
9, 11040, Note_off_c, 7, 64, 80
9, 11040, Note_on_c, 7, 65, 100
9, 11160, Note_off_c, 7, 65, 80
9, 11160, Note_on_c, 7, 69, 100
9, 11280, Note_off_c, 7, 69, 80
9, 11280, Note_on_c, 7, 70, 100
9, 11400, Note_off_c, 7, 70, 80
9, 11400, Note_on_c, 7, 77, 100
9, 11520, Note_off_c, 7, 77, 80
9, 11520, Note_on_c, 7, 81, 100
9, 11640, Note_off_c, 7, 81, 80
9, 11640, Note_on_c, 7, 77, 100
9, 11760, Note_off_c, 7, 77, 80
9, 11760, Note_on_c, 7, 70, 100
9, 11880, Note_off_c, 7, 70, 80
9, 11880, Note_on_c, 7, 69, 100
9, 12000, Note_off_c, 7, 69, 80
9, 12000, Note_on_c, 7, 70, 100
9, 12120, Note_off_c, 7, 70, 80
9, 12120, Note_on_c, 7, 77, 100
9, 12240, Note_off_c, 7, 77, 80
9, 12240, Note_on_c, 7, 81, 100
9, 12360, Note_off_c, 7, 81, 80
9, 12360, Note_on_c, 7, 77, 100
9, 12480, Note_off_c, 7, 77, 80
9, 12480, Note_on_c, 7, 70, 100
9, 12600, Note_off_c, 7, 70, 80
9, 12600, Note_on_c, 7, 69, 100
9, 12720, Note_off_c, 7, 69, 80
9, 12720, Note_on_c, 7, 65, 100
9, 12840, Note_off_c, 7, 65, 80
9, 12840, Note_on_c, 7, 64, 100
9, 12960, Note_off_c, 7, 64, 80
9, 12960, Note_on_c, 7, 65, 100
9, 13080, Note_off_c, 7, 65, 80
9, 13080, Note_on_c, 7, 69, 100
9, 13200, Note_off_c, 7, 69, 80
9, 13200, Note_on_c, 7, 70, 100
9, 13320, Note_off_c, 7, 70, 80
9, 13320, Note_on_c, 7, 77, 100
9, 13440, Note_off_c, 7, 77, 80
9, 13440, Note_on_c, 7, 84, 100
9, 13560, Note_off_c, 7, 84, 80
9, 13560, Note_on_c, 7, 77, 100
9, 13680, Note_off_c, 7, 77, 80
9, 13680, Note_on_c, 7, 72, 100
9, 13800, Note_off_c, 7, 72, 80
9, 13800, Note_on_c, 7, 77, 100
9, 13920, Note_off_c, 7, 77, 80
9, 13920, Note_on_c, 7, 82, 100
9, 14040, Note_off_c, 7, 82, 80
9, 14040, Note_on_c, 7, 77, 100
9, 14160, Note_off_c, 7, 77, 80
9, 14160, Note_on_c, 7, 72, 100
9, 14280, Note_off_c, 7, 72, 80
9, 14280, Note_on_c, 7, 77, 100
9, 14400, Note_off_c, 7, 77, 80
9, 14400, Note_on_c, 7, 81, 100
9, 14520, Note_off_c, 7, 81, 80
9, 14520, Note_on_c, 7, 77, 100
9, 14640, Note_off_c, 7, 77, 80
9, 14640, Note_on_c, 7, 72, 100
9, 14760, Note_off_c, 7, 72, 80
9, 14760, Note_on_c, 7, 77, 100
9, 14880, Note_off_c, 7, 77, 80
9, 14880, Note_on_c, 7, 79, 100
9, 15000, Note_off_c, 7, 79, 80
9, 15000, Note_on_c, 7, 77, 100
9, 15120, Note_off_c, 7, 77, 80
9, 15120, Note_on_c, 7, 72, 100
9, 15240, Note_off_c, 7, 72, 80
9, 15240, Note_on_c, 7, 77, 100
9, 15360, Note_off_c, 7, 77, 80
9, 15360, Note_on_c, 7, 81, 100
9, 15480, Note_off_c, 7, 81, 80
9, 15480, Note_on_c, 7, 77, 100
9, 15600, Note_off_c, 7, 77, 80
9, 15600, Note_on_c, 7, 70, 100
9, 15720, Note_off_c, 7, 70, 80
9, 15720, Note_on_c, 7, 69, 100
9, 15840, Note_off_c, 7, 69, 80
9, 15840, Note_on_c, 7, 70, 100
9, 15960, Note_off_c, 7, 70, 80
9, 15960, Note_on_c, 7, 77, 100
9, 16080, Note_off_c, 7, 77, 80
9, 16080, Note_on_c, 7, 81, 100
9, 16200, Note_off_c, 7, 81, 80
9, 16200, Note_on_c, 7, 77, 100
9, 16320, Note_off_c, 7, 77, 80
9, 16320, Note_on_c, 7, 70, 100
9, 16440, Note_off_c, 7, 70, 80
9, 16440, Note_on_c, 7, 69, 100
9, 16560, Note_off_c, 7, 69, 80
9, 16560, Note_on_c, 7, 65, 100
9, 16680, Note_off_c, 7, 65, 80
9, 16680, Note_on_c, 7, 64, 100
9, 16800, Note_off_c, 7, 64, 80
9, 16800, Note_on_c, 7, 65, 100
9, 16920, Note_off_c, 7, 65, 80
9, 16920, Note_on_c, 7, 69, 100
9, 17040, Note_off_c, 7, 69, 80
9, 17040, Note_on_c, 7, 70, 100
9, 17160, Note_off_c, 7, 70, 80
9, 17160, Note_on_c, 7, 77, 100
9, 17280, Note_off_c, 7, 77, 80
9, 17280, Note_on_c, 7, 81, 100
9, 17400, Note_off_c, 7, 81, 80
9, 17400, Note_on_c, 7, 77, 100
9, 17520, Note_off_c, 7, 77, 80
9, 17520, Note_on_c, 7, 70, 100
9, 17640, Note_off_c, 7, 70, 80
9, 17640, Note_on_c, 7, 69, 100
9, 17760, Note_off_c, 7, 69, 80
9, 17760, Note_on_c, 7, 70, 100
9, 17880, Note_off_c, 7, 70, 80
9, 17880, Note_on_c, 7, 77, 100
9, 18000, Note_off_c, 7, 77, 80
9, 18000, Note_on_c, 7, 81, 100
9, 18120, Note_off_c, 7, 81, 80
9, 18120, Note_on_c, 7, 77, 100
9, 18240, Note_off_c, 7, 77, 80
9, 18240, Note_on_c, 7, 70, 100
9, 18360, Note_off_c, 7, 70, 80
9, 18360, Note_on_c, 7, 69, 100
9, 18480, Note_off_c, 7, 69, 80
9, 18480, Note_on_c, 7, 65, 100
9, 18600, Note_off_c, 7, 65, 80
9, 18600, Note_on_c, 7, 64, 100
9, 18720, Note_off_c, 7, 64, 80
9, 18720, Note_on_c, 7, 65, 100
9, 18840, Note_off_c, 7, 65, 80
9, 18840, Note_on_c, 7, 69, 100
9, 18960, Note_off_c, 7, 69, 80
9, 18960, Note_on_c, 7, 70, 100
9, 19080, Note_off_c, 7, 70, 80
9, 19080, Note_on_c, 7, 77, 100
9, 19200, Note_off_c, 7, 77, 80
9, 19200, Note_on_c, 7, 81, 100
9, 19320, Note_off_c, 7, 81, 80
9, 19320, Note_on_c, 7, 77, 100
9, 19440, Note_off_c, 7, 77, 80
9, 19440, Note_on_c, 7, 70, 100
9, 19560, Note_off_c, 7, 70, 80
9, 19560, Note_on_c, 7, 69, 100
9, 19680, Note_off_c, 7, 69, 80
9, 19680, Note_on_c, 7, 70, 100
9, 19800, Note_off_c, 7, 70, 80
9, 19800, Note_on_c, 7, 77, 100
9, 19920, Note_off_c, 7, 77, 80
9, 19920, Note_on_c, 7, 81, 100
9, 20040, Note_off_c, 7, 81, 80
9, 20040, Note_on_c, 7, 77, 100
9, 20160, Note_off_c, 7, 77, 80
9, 20160, Note_on_c, 7, 70, 100
9, 20280, Note_off_c, 7, 70, 80
9, 20280, Note_on_c, 7, 69, 100
9, 20400, Note_off_c, 7, 69, 80
9, 20400, Note_on_c, 7, 65, 100
9, 20520, Note_off_c, 7, 65, 80
9, 20520, Note_on_c, 7, 64, 100
9, 20640, Note_off_c, 7, 64, 80
9, 20640, Note_on_c, 7, 65, 100
9, 20760, Note_off_c, 7, 65, 80
9, 20760, Note_on_c, 7, 69, 100
9, 20880, Note_off_c, 7, 69, 80
9, 20880, Note_on_c, 7, 70, 100
9, 21000, Note_off_c, 7, 70, 80
9, 21000, Note_on_c, 7, 77, 100
9, 21120, Note_off_c, 7, 77, 80
9, 21120, Note_on_c, 7, 84, 100
9, 21240, Note_off_c, 7, 84, 80
9, 21240, Note_on_c, 7, 79, 100
9, 21360, Note_off_c, 7, 79, 80
9, 21360, Note_on_c, 7, 72, 100
9, 21480, Note_off_c, 7, 72, 80
9, 21480, Note_on_c, 7, 70, 100
9, 21600, Note_off_c, 7, 70, 80
9, 21600, Note_on_c, 7, 72, 100
9, 21720, Note_off_c, 7, 72, 80
9, 21720, Note_on_c, 7, 79, 100
9, 21840, Note_off_c, 7, 79, 80
9, 21840, Note_on_c, 7, 84, 100
9, 21960, Note_off_c, 7, 84, 80
9, 21960, Note_on_c, 7, 79, 100
9, 22080, Note_off_c, 7, 79, 80
9, 22080, Note_on_c, 7, 72, 100
9, 22200, Note_off_c, 7, 72, 80
9, 22200, Note_on_c, 7, 70, 100
9, 22320, Note_off_c, 7, 70, 80
9, 22320, Note_on_c, 7, 72, 100
9, 22440, Note_off_c, 7, 72, 80
9, 22440, Note_on_c, 7, 79, 100
9, 22560, Note_off_c, 7, 79, 80
9, 22560, Note_on_c, 7, 84, 100
9, 22680, Note_off_c, 7, 84, 80
9, 22680, Note_on_c, 7, 79, 100
9, 22800, Note_off_c, 7, 79, 80
9, 22800, Note_on_c, 7, 72, 100
9, 22920, Note_off_c, 7, 72, 80
9, 22920, Note_on_c, 7, 70, 100
9, 23040, Note_off_c, 7, 70, 80
9, 23040, Note_on_c, 7, 81, 100
9, 23160, Note_off_c, 7, 81, 80
9, 23160, Note_on_c, 7, 77, 100
9, 23280, Note_off_c, 7, 77, 80
9, 23280, Note_on_c, 7, 70, 100
9, 23400, Note_off_c, 7, 70, 80
9, 23400, Note_on_c, 7, 69, 100
9, 23520, Note_off_c, 7, 69, 80
9, 23520, Note_on_c, 7, 70, 100
9, 23640, Note_off_c, 7, 70, 80
9, 23640, Note_on_c, 7, 77, 100
9, 23760, Note_off_c, 7, 77, 80
9, 23760, Note_on_c, 7, 81, 100
9, 23880, Note_off_c, 7, 81, 80
9, 23880, Note_on_c, 7, 77, 100
9, 24000, Note_off_c, 7, 77, 80
9, 24000, Note_on_c, 7, 70, 100
9, 24120, Note_off_c, 7, 70, 80
9, 24120, Note_on_c, 7, 69, 100
9, 24240, Note_off_c, 7, 69, 80
9, 24240, Note_on_c, 7, 65, 100
9, 24360, Note_off_c, 7, 65, 80
9, 24360, Note_on_c, 7, 64, 100
9, 24480, Note_off_c, 7, 64, 80
9, 24480, Note_on_c, 7, 65, 100
9, 24600, Note_off_c, 7, 65, 80
9, 24600, Note_on_c, 7, 69, 100
9, 24720, Note_off_c, 7, 69, 80
9, 24720, Note_on_c, 7, 70, 100
9, 24840, Note_off_c, 7, 70, 80
9, 24840, Note_on_c, 7, 77, 100
9, 24960, Note_off_c, 7, 77, 80
9, 24960, Note_on_c, 7, 81, 100
9, 25080, Note_off_c, 7, 81, 80
9, 25080, Note_on_c, 7, 77, 100
9, 25200, Note_off_c, 7, 77, 80
9, 25200, Note_on_c, 7, 70, 100
9, 25320, Note_off_c, 7, 70, 80
9, 25320, Note_on_c, 7, 69, 100
9, 25440, Note_off_c, 7, 69, 80
9, 25440, Note_on_c, 7, 70, 100
9, 25560, Note_off_c, 7, 70, 80
9, 25560, Note_on_c, 7, 77, 100
9, 25680, Note_off_c, 7, 77, 80
9, 25680, Note_on_c, 7, 81, 100
9, 25800, Note_off_c, 7, 81, 80
9, 25800, Note_on_c, 7, 77, 100
9, 25920, Note_off_c, 7, 77, 80
9, 25920, Note_on_c, 7, 70, 100
9, 26040, Note_off_c, 7, 70, 80
9, 26040, Note_on_c, 7, 69, 100
9, 26160, Note_off_c, 7, 69, 80
9, 26160, Note_on_c, 7, 65, 100
9, 26280, Note_off_c, 7, 65, 80
9, 26280, Note_on_c, 7, 64, 100
9, 26400, Note_off_c, 7, 64, 80
9, 26400, Note_on_c, 7, 65, 100
9, 26520, Note_off_c, 7, 65, 80
9, 26520, Note_on_c, 7, 69, 100
9, 26640, Note_off_c, 7, 69, 80
9, 26640, Note_on_c, 7, 70, 100
9, 26760, Note_off_c, 7, 70, 80
9, 26760, Note_on_c, 7, 77, 100
9, 26880, Note_off_c, 7, 77, 80
9, 26880, Note_on_c, 7, 81, 100
9, 27000, Note_off_c, 7, 81, 80
9, 27000, Note_on_c, 7, 77, 100
9, 27120, Note_off_c, 7, 77, 80
9, 27120, Note_on_c, 7, 70, 100
9, 27240, Note_off_c, 7, 70, 80
9, 27240, Note_on_c, 7, 69, 100
9, 27360, Note_off_c, 7, 69, 80
9, 27360, Note_on_c, 7, 70, 100
9, 27480, Note_off_c, 7, 70, 80
9, 27480, Note_on_c, 7, 77, 100
9, 27600, Note_off_c, 7, 77, 80
9, 27600, Note_on_c, 7, 81, 100
9, 27720, Note_off_c, 7, 81, 80
9, 27720, Note_on_c, 7, 77, 100
9, 27840, Note_off_c, 7, 77, 80
9, 27840, Note_on_c, 7, 70, 100
9, 27960, Note_off_c, 7, 70, 80
9, 27960, Note_on_c, 7, 69, 100
9, 28080, Note_off_c, 7, 69, 80
9, 28080, Note_on_c, 7, 65, 100
9, 28200, Note_off_c, 7, 65, 80
9, 28200, Note_on_c, 7, 64, 100
9, 28320, Note_off_c, 7, 64, 80
9, 28320, Note_on_c, 7, 65, 100
9, 28440, Note_off_c, 7, 65, 80
9, 28440, Note_on_c, 7, 69, 100
9, 28560, Note_off_c, 7, 69, 80
9, 28560, Note_on_c, 7, 70, 100
9, 28680, Note_off_c, 7, 70, 80
9, 28680, Note_on_c, 7, 77, 100
9, 28800, Note_off_c, 7, 77, 80
9, 28800, Note_on_c, 7, 84, 100
9, 28920, Note_off_c, 7, 84, 80
9, 28920, Note_on_c, 7, 77, 100
9, 29040, Note_off_c, 7, 77, 80
9, 29040, Note_on_c, 7, 72, 100
9, 29160, Note_off_c, 7, 72, 80
9, 29160, Note_on_c, 7, 77, 100
9, 29280, Note_off_c, 7, 77, 80
9, 29280, Note_on_c, 7, 82, 100
9, 29400, Note_off_c, 7, 82, 80
9, 29400, Note_on_c, 7, 77, 100
9, 29520, Note_off_c, 7, 77, 80
9, 29520, Note_on_c, 7, 72, 100
9, 29640, Note_off_c, 7, 72, 80
9, 29640, Note_on_c, 7, 77, 100
9, 29760, Note_off_c, 7, 77, 80
9, 29760, Note_on_c, 7, 81, 100
9, 29880, Note_off_c, 7, 81, 80
9, 29880, Note_on_c, 7, 77, 100
9, 30000, Note_off_c, 7, 77, 80
9, 30000, Note_on_c, 7, 72, 100
9, 30120, Note_off_c, 7, 72, 80
9, 30120, Note_on_c, 7, 77, 100
9, 30240, Note_off_c, 7, 77, 80
9, 30240, Note_on_c, 7, 79, 100
9, 30360, Note_off_c, 7, 79, 80
9, 30360, Note_on_c, 7, 77, 100
9, 30480, Note_off_c, 7, 77, 80
9, 30480, Note_on_c, 7, 72, 100
9, 30600, Note_off_c, 7, 72, 80
9, 30600, Note_on_c, 7, 77, 100
9, 30720, Note_off_c, 7, 77, 80
9, 109200, Note_on_c, 7, 81, 100
9, 109320, Note_off_c, 7, 81, 80
9, 109320, Note_on_c, 7, 77, 100
9, 109440, Note_off_c, 7, 77, 80
9, 109440, Note_on_c, 7, 70, 100
9, 109560, Note_off_c, 7, 70, 80
9, 109560, Note_on_c, 7, 69, 100
9, 109680, Note_off_c, 7, 69, 80
9, 109680, Note_on_c, 7, 70, 100
9, 109800, Note_off_c, 7, 70, 80
9, 109800, Note_on_c, 7, 77, 100
9, 109920, Note_off_c, 7, 77, 80
9, 109920, Note_on_c, 7, 81, 100
9, 110040, Note_off_c, 7, 81, 80
9, 110040, Note_on_c, 7, 77, 100
9, 110160, Note_off_c, 7, 77, 80
9, 110160, Note_on_c, 7, 70, 100
9, 110280, Note_off_c, 7, 70, 80
9, 110280, Note_on_c, 7, 69, 100
9, 110400, Note_off_c, 7, 69, 80
9, 110400, Note_on_c, 7, 65, 100
9, 110520, Note_off_c, 7, 65, 80
9, 110520, Note_on_c, 7, 64, 100
9, 110640, Note_off_c, 7, 64, 80
9, 110640, Note_on_c, 7, 65, 100
9, 110760, Note_off_c, 7, 65, 80
9, 110760, Note_on_c, 7, 69, 100
9, 110880, Note_off_c, 7, 69, 80
9, 110880, Note_on_c, 7, 70, 100
9, 111000, Note_off_c, 7, 70, 80
9, 111000, Note_on_c, 7, 77, 100
9, 111120, Note_off_c, 7, 77, 80
9, 111120, Note_on_c, 7, 81, 100
9, 111240, Note_off_c, 7, 81, 80
9, 111240, Note_on_c, 7, 77, 100
9, 111360, Note_off_c, 7, 77, 80
9, 111360, Note_on_c, 7, 70, 100
9, 111480, Note_off_c, 7, 70, 80
9, 111480, Note_on_c, 7, 69, 100
9, 111600, Note_off_c, 7, 69, 80
9, 111600, Note_on_c, 7, 70, 100
9, 111720, Note_off_c, 7, 70, 80
9, 111720, Note_on_c, 7, 77, 100
9, 111840, Note_off_c, 7, 77, 80
9, 111840, Note_on_c, 7, 81, 100
9, 111960, Note_off_c, 7, 81, 80
9, 111960, Note_on_c, 7, 77, 100
9, 112080, Note_off_c, 7, 77, 80
9, 112080, Note_on_c, 7, 70, 100
9, 112200, Note_off_c, 7, 70, 80
9, 112200, Note_on_c, 7, 69, 100
9, 112320, Note_off_c, 7, 69, 80
9, 112320, Note_on_c, 7, 65, 100
9, 112440, Note_off_c, 7, 65, 80
9, 112440, Note_on_c, 7, 64, 100
9, 112560, Note_off_c, 7, 64, 80
9, 112560, Note_on_c, 7, 65, 100
9, 112680, Note_off_c, 7, 65, 80
9, 112680, Note_on_c, 7, 69, 100
9, 112800, Note_off_c, 7, 69, 80
9, 112800, Note_on_c, 7, 70, 100
9, 112920, Note_off_c, 7, 70, 80
9, 112920, Note_on_c, 7, 77, 100
9, 113040, Note_off_c, 7, 77, 80
9, 113040, Note_on_c, 7, 81, 100
9, 113160, Note_off_c, 7, 81, 80
9, 113160, Note_on_c, 7, 77, 100
9, 113280, Note_off_c, 7, 77, 80
9, 113280, Note_on_c, 7, 70, 100
9, 113400, Note_off_c, 7, 70, 80
9, 113400, Note_on_c, 7, 69, 100
9, 113520, Note_off_c, 7, 69, 80
9, 113520, Note_on_c, 7, 70, 100
9, 113640, Note_off_c, 7, 70, 80
9, 113640, Note_on_c, 7, 77, 100
9, 113760, Note_off_c, 7, 77, 80
9, 113760, Note_on_c, 7, 81, 100
9, 113880, Note_off_c, 7, 81, 80
9, 113880, Note_on_c, 7, 77, 100
9, 114000, Note_off_c, 7, 77, 80
9, 114000, Note_on_c, 7, 70, 100
9, 114120, Note_off_c, 7, 70, 80
9, 114120, Note_on_c, 7, 69, 100
9, 114240, Note_off_c, 7, 69, 80
9, 114240, Note_on_c, 7, 65, 100
9, 114360, Note_off_c, 7, 65, 80
9, 114360, Note_on_c, 7, 64, 100
9, 114480, Note_off_c, 7, 64, 80
9, 114480, Note_on_c, 7, 65, 100
9, 114600, Note_off_c, 7, 65, 80
9, 114600, Note_on_c, 7, 69, 100
9, 114720, Note_off_c, 7, 69, 80
9, 114720, Note_on_c, 7, 70, 100
9, 114840, Note_off_c, 7, 70, 80
9, 114840, Note_on_c, 7, 77, 100
9, 114960, Note_off_c, 7, 77, 80
9, 114960, Note_on_c, 7, 84, 100
9, 115080, Note_off_c, 7, 84, 80
9, 115080, Note_on_c, 7, 79, 100
9, 115200, Note_off_c, 7, 79, 80
9, 115200, Note_on_c, 7, 72, 100
9, 115320, Note_off_c, 7, 72, 80
9, 115320, Note_on_c, 7, 70, 100
9, 115440, Note_off_c, 7, 70, 80
9, 115440, Note_on_c, 7, 72, 100
9, 115560, Note_off_c, 7, 72, 80
9, 115560, Note_on_c, 7, 79, 100
9, 115680, Note_off_c, 7, 79, 80
9, 115680, Note_on_c, 7, 84, 100
9, 115800, Note_off_c, 7, 84, 80
9, 115800, Note_on_c, 7, 79, 100
9, 115920, Note_off_c, 7, 79, 80
9, 115920, Note_on_c, 7, 72, 100
9, 116040, Note_off_c, 7, 72, 80
9, 116040, Note_on_c, 7, 70, 100
9, 116160, Note_off_c, 7, 70, 80
9, 116160, Note_on_c, 7, 72, 100
9, 116280, Note_off_c, 7, 72, 80
9, 116280, Note_on_c, 7, 79, 100
9, 116400, Note_off_c, 7, 79, 80
9, 116400, Note_on_c, 7, 84, 100
9, 116520, Note_off_c, 7, 84, 80
9, 116520, Note_on_c, 7, 79, 100
9, 116640, Note_off_c, 7, 79, 80
9, 116640, Note_on_c, 7, 72, 100
9, 116760, Note_off_c, 7, 72, 80
9, 116760, Note_on_c, 7, 70, 100
9, 116880, Note_off_c, 7, 70, 80
9, 116880, Note_on_c, 7, 81, 100
9, 117000, Note_off_c, 7, 81, 80
9, 117000, Note_on_c, 7, 77, 100
9, 117120, Note_off_c, 7, 77, 80
9, 117120, Note_on_c, 7, 70, 100
9, 117240, Note_off_c, 7, 70, 80
9, 117240, Note_on_c, 7, 69, 100
9, 117360, Note_off_c, 7, 69, 80
9, 117360, Note_on_c, 7, 70, 100
9, 117480, Note_off_c, 7, 70, 80
9, 117480, Note_on_c, 7, 77, 100
9, 117600, Note_off_c, 7, 77, 80
9, 117600, Note_on_c, 7, 81, 100
9, 117720, Note_off_c, 7, 81, 80
9, 117720, Note_on_c, 7, 77, 100
9, 117840, Note_off_c, 7, 77, 80
9, 117840, Note_on_c, 7, 70, 100
9, 117960, Note_off_c, 7, 70, 80
9, 117960, Note_on_c, 7, 69, 100
9, 118080, Note_off_c, 7, 69, 80
9, 118080, Note_on_c, 7, 65, 100
9, 118200, Note_off_c, 7, 65, 80
9, 118200, Note_on_c, 7, 64, 100
9, 118320, Note_off_c, 7, 64, 80
9, 118320, Note_on_c, 7, 65, 100
9, 118440, Note_off_c, 7, 65, 80
9, 118440, Note_on_c, 7, 69, 100
9, 118560, Note_off_c, 7, 69, 80
9, 118560, Note_on_c, 7, 70, 100
9, 118680, Note_off_c, 7, 70, 80
9, 118680, Note_on_c, 7, 77, 100
9, 118800, Note_off_c, 7, 77, 80
9, 118800, Note_on_c, 7, 81, 100
9, 118920, Note_off_c, 7, 81, 80
9, 118920, Note_on_c, 7, 77, 100
9, 119040, Note_off_c, 7, 77, 80
9, 119040, Note_on_c, 7, 70, 100
9, 119160, Note_off_c, 7, 70, 80
9, 119160, Note_on_c, 7, 69, 100
9, 119280, Note_off_c, 7, 69, 80
9, 119280, Note_on_c, 7, 70, 100
9, 119400, Note_off_c, 7, 70, 80
9, 119400, Note_on_c, 7, 77, 100
9, 119520, Note_off_c, 7, 77, 80
9, 119520, Note_on_c, 7, 81, 100
9, 119640, Note_off_c, 7, 81, 80
9, 119640, Note_on_c, 7, 77, 100
9, 119760, Note_off_c, 7, 77, 80
9, 119760, Note_on_c, 7, 70, 100
9, 119880, Note_off_c, 7, 70, 80
9, 119880, Note_on_c, 7, 69, 100
9, 120000, Note_off_c, 7, 69, 80
9, 120000, Note_on_c, 7, 65, 100
9, 120120, Note_off_c, 7, 65, 80
9, 120120, Note_on_c, 7, 64, 100
9, 120240, Note_off_c, 7, 64, 80
9, 120240, Note_on_c, 7, 65, 100
9, 120360, Note_off_c, 7, 65, 80
9, 120360, Note_on_c, 7, 69, 100
9, 120480, Note_off_c, 7, 69, 80
9, 120480, Note_on_c, 7, 70, 100
9, 120600, Note_off_c, 7, 70, 80
9, 120600, Note_on_c, 7, 77, 100
9, 120720, Note_off_c, 7, 77, 80
9, 120720, Note_on_c, 7, 81, 100
9, 120840, Note_off_c, 7, 81, 80
9, 120840, Note_on_c, 7, 77, 100
9, 120960, Note_off_c, 7, 77, 80
9, 120960, Note_on_c, 7, 70, 100
9, 121080, Note_off_c, 7, 70, 80
9, 121080, Note_on_c, 7, 69, 100
9, 121200, Note_off_c, 7, 69, 80
9, 121200, Note_on_c, 7, 70, 100
9, 121320, Note_off_c, 7, 70, 80
9, 121320, Note_on_c, 7, 77, 100
9, 121440, Note_off_c, 7, 77, 80
9, 121440, Note_on_c, 7, 81, 100
9, 121560, Note_off_c, 7, 81, 80
9, 121560, Note_on_c, 7, 77, 100
9, 121680, Note_off_c, 7, 77, 80
9, 121680, Note_on_c, 7, 70, 100
9, 121800, Note_off_c, 7, 70, 80
9, 121800, Note_on_c, 7, 69, 100
9, 121920, Note_off_c, 7, 69, 80
9, 121920, Note_on_c, 7, 65, 100
9, 122040, Note_off_c, 7, 65, 80
9, 122040, Note_on_c, 7, 64, 100
9, 122160, Note_off_c, 7, 64, 80
9, 122160, Note_on_c, 7, 65, 100
9, 122280, Note_off_c, 7, 65, 80
9, 122280, Note_on_c, 7, 69, 100
9, 122400, Note_off_c, 7, 69, 80
9, 122400, Note_on_c, 7, 70, 100
9, 122520, Note_off_c, 7, 70, 80
9, 122520, Note_on_c, 7, 77, 100
9, 122640, Note_off_c, 7, 77, 80
9, 122640, Note_on_c, 7, 84, 100
9, 122760, Note_off_c, 7, 84, 80
9, 122760, Note_on_c, 7, 77, 100
9, 122880, Note_off_c, 7, 77, 80
9, 122880, Note_on_c, 7, 72, 100
9, 123000, Note_off_c, 7, 72, 80
9, 123000, Note_on_c, 7, 77, 100
9, 123120, Note_off_c, 7, 77, 80
9, 123120, Note_on_c, 7, 82, 100
9, 123240, Note_off_c, 7, 82, 80
9, 123240, Note_on_c, 7, 77, 100
9, 123360, Note_off_c, 7, 77, 80
9, 123360, Note_on_c, 7, 72, 100
9, 123480, Note_off_c, 7, 72, 80
9, 123480, Note_on_c, 7, 77, 100
9, 123600, Note_off_c, 7, 77, 80
9, 123600, Note_on_c, 7, 81, 100
9, 123720, Note_off_c, 7, 81, 80
9, 123720, Note_on_c, 7, 77, 100
9, 123840, Note_off_c, 7, 77, 80
9, 123840, Note_on_c, 7, 72, 100
9, 123960, Note_off_c, 7, 72, 80
9, 123960, Note_on_c, 7, 77, 100
9, 124080, Note_off_c, 7, 77, 80
9, 124080, Note_on_c, 7, 79, 100
9, 124200, Note_off_c, 7, 79, 80
9, 124200, Note_on_c, 7, 77, 100
9, 124320, Note_off_c, 7, 77, 80
9, 124320, Note_on_c, 7, 72, 100
9, 124440, Note_off_c, 7, 72, 80
9, 124440, Note_on_c, 7, 77, 100
9, 124560, Note_off_c, 7, 77, 80
9, 362400, Note_on_c, 7, 71, 100
9, 363600, Note_off_c, 7, 71, 64
9, 363600, Note_on_c, 7, 73, 100
9, 363840, Note_off_c, 7, 73, 64
9, 363840, Note_on_c, 7, 74, 100
9, 364080, Note_off_c, 7, 74, 64
9, 364080, Note_on_c, 7, 73, 100
9, 364440, Note_off_c, 7, 73, 64
9, 364440, Note_on_c, 7, 69, 100
9, 364560, Note_off_c, 7, 69, 64
9, 364560, Note_on_c, 7, 64, 100
9, 364680, Note_off_c, 7, 64, 64
9, 364680, Note_on_c, 7, 66, 100
9, 364800, Note_off_c, 7, 66, 64
9, 364800, Note_on_c, 7, 67, 100
9, 366000, Note_off_c, 7, 67, 64
9, 366000, Note_on_c, 7, 66, 100
9, 366240, Note_off_c, 7, 66, 64
9, 366240, Note_on_c, 7, 71, 100
9, 366480, Note_off_c, 7, 71, 64
9, 366480, Note_on_c, 7, 66, 100
9, 366720, Note_off_c, 7, 66, 64
9, 366720, Note_on_c, 7, 62, 100
9, 366960, Note_off_c, 7, 62, 64
9, 366960, Note_on_c, 7, 64, 100
9, 367200, Note_off_c, 7, 64, 64
9, 367200, Note_on_c, 7, 62, 100
9, 367440, Note_off_c, 7, 62, 64
9, 367440, Note_on_c, 7, 61, 100
9, 367680, Note_off_c, 7, 61, 64
9, 367680, Note_on_c, 7, 59, 100
9, 367920, Note_off_c, 7, 59, 64
9, 367920, Note_on_c, 7, 66, 100
9, 368040, Note_off_c, 7, 66, 64
9, 368160, Note_on_c, 7, 66, 100
9, 369360, Note_off_c, 7, 66, 64
9, 369840, Note_on_c, 7, 71, 100
9, 370560, Note_on_c, 7, 73, 100
9, 370567, Note_off_c, 7, 71, 64
9, 370793, Note_off_c, 7, 73, 64
9, 370800, Note_on_c, 7, 74, 100
9, 371040, Note_on_c, 7, 76, 100
9, 371047, Note_off_c, 7, 74, 64
9, 371390, Note_off_c, 7, 76, 64
9, 371400, Note_on_c, 7, 73, 100
9, 371520, Note_off_c, 7, 73, 64
9, 371520, Note_on_c, 7, 69, 100
9, 371753, Note_off_c, 7, 69, 64
9, 371760, Note_on_c, 7, 78, 100
9, 372837, Note_off_c, 7, 78, 64
9, 372960, Note_on_c, 7, 79, 100
9, 373200, Note_off_c, 7, 79, 64
9, 373200, Note_on_c, 7, 78, 100
9, 373440, Note_off_c, 7, 78, 64
9, 373440, Note_on_c, 7, 76, 100
9, 373680, Note_off_c, 7, 76, 64
9, 373680, Note_on_c, 7, 74, 100
9, 373920, Note_off_c, 7, 74, 64
9, 373920, Note_on_c, 7, 74, 100
9, 374160, Note_off_c, 7, 74, 64
9, 374160, Note_on_c, 7, 76, 100
9, 374400, Note_off_c, 7, 76, 64
9, 374400, Note_on_c, 7, 78, 100
9, 374640, Note_off_c, 7, 78, 64
9, 374640, Note_on_c, 7, 76, 100
9, 374760, Note_off_c, 7, 76, 64
9, 374760, Note_on_c, 7, 74, 100
9, 374880, Note_off_c, 7, 74, 64
9, 374880, Note_on_c, 7, 72, 100
9, 376320, Note_off_c, 7, 72, 64
9, 431040, Note_on_c, 7, 62, 100
9, 431280, Note_off_c, 7, 62, 64
9, 431280, Note_on_c, 7, 57, 100
9, 431520, Note_off_c, 7, 57, 64
9, 431520, Note_on_c, 7, 62, 100
9, 431760, Note_off_c, 7, 62, 64
9, 431760, Note_on_c, 7, 65, 100
9, 432000, Note_off_c, 7, 65, 64
9, 432000, Note_on_c, 7, 67, 100
9, 432240, Note_off_c, 7, 67, 64
9, 432240, Note_on_c, 7, 57, 100
9, 432480, Note_off_c, 7, 57, 64
9, 432480, Note_on_c, 7, 62, 100
9, 432720, Note_off_c, 7, 62, 64
9, 432720, Note_on_c, 7, 69, 100
9, 432960, Note_off_c, 7, 69, 64
9, 432960, Note_on_c, 7, 57, 100
9, 433200, Note_off_c, 7, 57, 64
9, 433200, Note_on_c, 7, 62, 100
9, 433440, Note_off_c, 7, 62, 64
9, 433440, Note_on_c, 7, 69, 100
9, 433680, Note_off_c, 7, 69, 64
9, 433680, Note_on_c, 7, 70, 100
9, 433920, Note_off_c, 7, 70, 64
9, 433920, Note_on_c, 7, 57, 100
9, 434160, Note_off_c, 7, 57, 64
9, 434160, Note_on_c, 7, 64, 100
9, 434400, Note_off_c, 7, 64, 64
9, 434400, Note_on_c, 7, 72, 100
9, 434520, Note_off_c, 7, 72, 64
9, 434520, Note_on_c, 7, 70, 100
9, 434640, Note_off_c, 7, 70, 64
9, 434640, Note_on_c, 7, 69, 100
9, 434760, Note_off_c, 7, 69, 64
9, 434760, Note_on_c, 7, 67, 100
9, 434880, Note_off_c, 7, 67, 64
9, 434880, Note_on_c, 7, 65, 100
9, 435000, Note_off_c, 7, 65, 64
9, 435000, Note_on_c, 7, 64, 100
9, 435120, Note_off_c, 7, 64, 64
9, 435120, Note_on_c, 7, 62, 100
9, 435360, Note_off_c, 7, 62, 64
9, 435360, Note_on_c, 7, 57, 100
9, 435600, Note_off_c, 7, 57, 64
9, 435600, Note_on_c, 7, 62, 100
9, 435840, Note_off_c, 7, 62, 64
9, 435840, Note_on_c, 7, 65, 100
9, 436080, Note_off_c, 7, 65, 64
9, 436080, Note_on_c, 7, 67, 100
9, 436320, Note_off_c, 7, 67, 64
9, 436320, Note_on_c, 7, 57, 100
9, 436560, Note_off_c, 7, 57, 64
9, 436560, Note_on_c, 7, 62, 100
9, 436800, Note_off_c, 7, 62, 64
9, 436800, Note_on_c, 7, 69, 100
9, 437040, Note_off_c, 7, 69, 64
9, 437040, Note_on_c, 7, 57, 100
9, 437280, Note_off_c, 7, 57, 64
9, 437280, Note_on_c, 7, 62, 100
9, 437520, Note_off_c, 7, 62, 64
9, 437520, Note_on_c, 7, 69, 100
9, 437760, Note_off_c, 7, 69, 64
9, 437760, Note_on_c, 7, 70, 100
9, 438000, Note_off_c, 7, 70, 64
9, 438000, Note_on_c, 7, 57, 100
9, 438240, Note_off_c, 7, 57, 64
9, 438240, Note_on_c, 7, 64, 100
9, 438480, Note_off_c, 7, 64, 64
9, 438480, Note_on_c, 7, 72, 100
9, 438600, Note_off_c, 7, 72, 64
9, 438600, Note_on_c, 7, 70, 100
9, 438720, Note_off_c, 7, 70, 64
9, 438720, Note_on_c, 7, 69, 100
9, 438840, Note_off_c, 7, 69, 64
9, 438840, Note_on_c, 7, 67, 100
9, 438960, Note_off_c, 7, 67, 64
9, 438960, Note_on_c, 7, 65, 100
9, 439080, Note_off_c, 7, 65, 64
9, 439080, Note_on_c, 7, 64, 100
9, 439200, Note_off_c, 7, 64, 64
9, 439200, Note_on_c, 7, 62, 100
9, 439440, Note_off_c, 7, 62, 64
9, 439440, Note_on_c, 7, 57, 100
9, 439680, Note_off_c, 7, 57, 64
9, 439680, Note_on_c, 7, 62, 100
9, 439920, Note_off_c, 7, 62, 64
9, 439920, Note_on_c, 7, 65, 100
9, 440160, Note_off_c, 7, 65, 64
9, 440160, Note_on_c, 7, 64, 100
9, 440400, Note_off_c, 7, 64, 64
9, 440400, Note_on_c, 7, 60, 100
9, 440640, Note_off_c, 7, 60, 64
9, 440640, Note_on_c, 7, 57, 100
9, 440880, Note_off_c, 7, 57, 64
9, 440880, Note_on_c, 7, 58, 100
9, 441120, Note_off_c, 7, 58, 64
9, 441120, Note_on_c, 7, 64, 100
9, 441360, Note_off_c, 7, 64, 64
9, 441360, Note_on_c, 7, 65, 100
9, 441600, Note_off_c, 7, 65, 64
9, 441600, Note_on_c, 7, 53, 100
9, 441840, Note_off_c, 7, 53, 64
9, 441840, Note_on_c, 7, 55, 100
9, 442080, Note_off_c, 7, 55, 64
9, 442080, Note_on_c, 7, 60, 100
9, 442320, Note_off_c, 7, 60, 64
9, 442320, Note_on_c, 7, 62, 100
9, 442560, Note_off_c, 7, 62, 64
9, 442560, Note_on_c, 7, 67, 100
9, 442800, Note_off_c, 7, 67, 64
9, 442800, Note_on_c, 7, 69, 100
9, 443040, Note_off_c, 7, 69, 64
9, 443040, Note_on_c, 7, 70, 100
9, 443280, Note_off_c, 7, 70, 64
9, 443280, Note_on_c, 7, 67, 100
9, 443520, Note_off_c, 7, 67, 64
9, 443520, Note_on_c, 7, 62, 100
9, 443760, Note_off_c, 7, 62, 64
9, 443760, Note_on_c, 7, 70, 100
9, 444000, Note_off_c, 7, 70, 64
9, 444000, Note_on_c, 7, 69, 100
9, 444240, Note_off_c, 7, 69, 64
9, 444240, Note_on_c, 7, 65, 100
9, 444480, Note_off_c, 7, 65, 64
9, 444480, Note_on_c, 7, 60, 100
9, 444720, Note_off_c, 7, 60, 64
9, 444720, Note_on_c, 7, 67, 100
9, 444960, Note_off_c, 7, 67, 64
9, 444960, Note_on_c, 7, 64, 100
9, 445200, Note_off_c, 7, 64, 64
9, 445200, Note_on_c, 7, 60, 100
9, 445680, Note_off_c, 7, 60, 64
9, 445680, Note_on_c, 7, 57, 100
9, 445800, Note_off_c, 7, 57, 64
9, 445800, Note_on_c, 7, 58, 100
9, 445920, Note_off_c, 7, 58, 64
9, 445920, Note_on_c, 7, 60, 100
9, 446040, Note_off_c, 7, 60, 64
9, 446040, Note_on_c, 7, 62, 100
9, 446160, Note_off_c, 7, 62, 64
9, 446160, Note_on_c, 7, 64, 100
9, 446280, Note_off_c, 7, 64, 64
9, 446280, Note_on_c, 7, 65, 100
9, 446400, Note_off_c, 7, 65, 64
9, 446400, Note_on_c, 7, 62, 100
9, 446640, Note_off_c, 7, 62, 64
9, 446640, Note_on_c, 7, 57, 100
9, 446880, Note_off_c, 7, 57, 64
9, 446880, Note_on_c, 7, 62, 100
9, 447120, Note_off_c, 7, 62, 64
9, 447120, Note_on_c, 7, 65, 100
9, 447360, Note_off_c, 7, 65, 64
9, 447360, Note_on_c, 7, 64, 100
9, 447600, Note_off_c, 7, 64, 64
9, 447600, Note_on_c, 7, 60, 100
9, 447840, Note_off_c, 7, 60, 64
9, 447840, Note_on_c, 7, 57, 100
9, 448080, Note_off_c, 7, 57, 64
9, 448080, Note_on_c, 7, 58, 100
9, 448320, Note_off_c, 7, 58, 64
9, 448320, Note_on_c, 7, 64, 100
9, 448560, Note_off_c, 7, 64, 64
9, 448560, Note_on_c, 7, 65, 100
9, 448800, Note_off_c, 7, 65, 64
9, 448800, Note_on_c, 7, 53, 100
9, 449040, Note_off_c, 7, 53, 64
9, 449040, Note_on_c, 7, 55, 100
9, 449280, Note_off_c, 7, 55, 64
9, 449280, Note_on_c, 7, 60, 100
9, 449520, Note_off_c, 7, 60, 64
9, 449520, Note_on_c, 7, 62, 100
9, 449760, Note_off_c, 7, 62, 64
9, 449760, Note_on_c, 7, 67, 100
9, 450000, Note_off_c, 7, 67, 64
9, 450000, Note_on_c, 7, 69, 100
9, 450240, Note_off_c, 7, 69, 64
9, 450240, Note_on_c, 7, 70, 100
9, 450480, Note_off_c, 7, 70, 64
9, 450480, Note_on_c, 7, 67, 100
9, 450720, Note_off_c, 7, 67, 64
9, 450720, Note_on_c, 7, 62, 100
9, 450960, Note_off_c, 7, 62, 64
9, 450960, Note_on_c, 7, 70, 100
9, 451200, Note_off_c, 7, 70, 64
9, 451200, Note_on_c, 7, 69, 100
9, 451440, Note_off_c, 7, 69, 64
9, 451440, Note_on_c, 7, 65, 100
9, 451680, Note_off_c, 7, 65, 64
9, 451680, Note_on_c, 7, 60, 100
9, 451920, Note_off_c, 7, 60, 64
9, 451920, Note_on_c, 7, 67, 100
9, 452160, Note_off_c, 7, 67, 64
9, 452160, Note_on_c, 7, 64, 100
9, 452400, Note_off_c, 7, 64, 64
9, 452400, Note_on_c, 7, 60, 100
9, 452880, Note_off_c, 7, 60, 64
9, 452880, Note_on_c, 7, 57, 100
9, 453000, Note_off_c, 7, 57, 64
9, 453000, Note_on_c, 7, 58, 100
9, 453120, Note_off_c, 7, 58, 64
9, 453120, Note_on_c, 7, 60, 100
9, 453240, Note_off_c, 7, 60, 64
9, 453240, Note_on_c, 7, 62, 100
9, 453360, Note_off_c, 7, 62, 64
9, 453360, Note_on_c, 7, 64, 100
9, 453480, Note_off_c, 7, 64, 64
9, 453480, Note_on_c, 7, 65, 100
9, 453600, Note_off_c, 7, 65, 64
9, 453600, Note_on_c, 7, 65, 100
9, 453600, Note_on_c, 7, 74, 100
9, 453600, Note_on_c, 7, 69, 100
9, 453600, Note_on_c, 7, 62, 100
9, 454560, Note_off_c, 7, 62, 64
9, 454560, Note_off_c, 7, 69, 64
9, 454560, Note_off_c, 7, 74, 64
9, 454560, Note_off_c, 7, 65, 64
9, 454560, Note_on_c, 7, 79, 100
9, 454560, Note_on_c, 7, 76, 100
9, 454560, Note_on_c, 7, 72, 100
9, 454560, Note_on_c, 7, 67, 100
9, 455273, Note_off_c, 7, 67, 64
9, 455273, Note_off_c, 7, 72, 64
9, 455273, Note_off_c, 7, 76, 64
9, 455273, Note_off_c, 7, 79, 64
9, 455280, Note_on_c, 7, 77, 100
9, 455280, Note_on_c, 7, 72, 100
9, 455280, Note_on_c, 7, 81, 100
9, 456240, Note_off_c, 7, 81, 64
9, 456240, Note_off_c, 7, 72, 64
9, 456240, Note_off_c, 7, 77, 64
9, 456240, Note_on_c, 7, 82, 100
9, 456240, Note_on_c, 7, 77, 100
9, 456240, Note_on_c, 7, 74, 100
9, 456960, Note_on_c, 7, 84, 100
9, 456960, Note_on_c, 7, 79, 100
9, 456960, Note_on_c, 7, 76, 100
9, 456960, Note_on_c, 7, 72, 100
9, 456967, Note_off_c, 7, 74, 64
9, 456967, Note_off_c, 7, 77, 64
9, 456967, Note_off_c, 7, 82, 64
9, 457920, Note_off_c, 7, 84, 64
9, 457920, Note_off_c, 7, 79, 64
9, 457920, Note_off_c, 7, 76, 64
9, 457920, Note_off_c, 7, 72, 64
9, 457920, Note_on_c, 7, 86, 100
9, 457920, Note_on_c, 7, 81, 100
9, 457920, Note_on_c, 7, 77, 100
9, 457920, Note_on_c, 7, 74, 100
9, 458633, Note_off_c, 7, 74, 64
9, 458633, Note_off_c, 7, 77, 64
9, 458633, Note_off_c, 7, 81, 64
9, 458633, Note_off_c, 7, 86, 64
9, 458640, Note_on_c, 7, 88, 100
9, 458640, Note_on_c, 7, 84, 100
9, 458640, Note_on_c, 7, 79, 100
9, 459600, Note_off_c, 7, 79, 64
9, 459600, Note_off_c, 7, 84, 64
9, 459600, Note_off_c, 7, 88, 64
9, 459600, Note_on_c, 7, 89, 100
9, 459600, Note_on_c, 7, 82, 100
9, 459600, Note_on_c, 7, 86, 100
9, 459847, Note_off_c, 7, 86, 64
9, 459847, Note_off_c, 7, 82, 64
9, 459847, Note_off_c, 7, 89, 64
9, 460080, Note_on_c, 7, 58, 100
9, 460320, Note_off_c, 7, 58, 64
9, 460320, Note_on_c, 7, 65, 100
9, 460560, Note_off_c, 7, 65, 64
9, 460560, Note_on_c, 7, 67, 100
9, 460800, Note_off_c, 7, 67, 64
9, 461040, Note_on_c, 7, 64, 100
9, 461280, Note_off_c, 7, 64, 64
9, 461280, Note_on_c, 7, 72, 100
9, 461520, Note_off_c, 7, 72, 64
9, 461520, Note_on_c, 7, 74, 100
9, 461760, Note_off_c, 7, 74, 64
9, 462000, Note_on_c, 7, 69, 100
9, 462240, Note_off_c, 7, 69, 64
9, 462240, Note_on_c, 7, 76, 100
9, 462480, Note_off_c, 7, 76, 64
9, 462480, Note_on_c, 7, 76, 100
9, 462960, Note_off_c, 7, 76, 64
9, 462960, Note_on_c, 7, 76, 100
9, 463080, Note_off_c, 7, 76, 64
9, 463080, Note_on_c, 7, 74, 100
9, 463200, Note_off_c, 7, 74, 64
9, 463200, Note_on_c, 7, 72, 100
9, 463440, Note_off_c, 7, 72, 64
9, 463440, Note_on_c, 7, 70, 100
9, 463680, Note_off_c, 7, 70, 64
9, 463680, Note_on_c, 7, 69, 100
9, 463920, Note_off_c, 7, 69, 64
9, 463920, Note_on_c, 7, 65, 100
9, 464160, Note_off_c, 7, 65, 64
9, 464160, Note_on_c, 7, 76, 100
9, 464400, Note_off_c, 7, 76, 64
9, 464400, Note_on_c, 7, 76, 100
9, 464520, Note_off_c, 7, 76, 64
9, 464640, Note_on_c, 7, 72, 80
9, 464700, Note_off_c, 7, 72, 64
9, 464700, Note_on_c, 7, 74, 80
9, 464760, Note_off_c, 7, 74, 64
9, 464760, Note_on_c, 7, 72, 80
9, 464820, Note_off_c, 7, 72, 64
9, 464820, Note_on_c, 7, 74, 80
9, 464880, Note_off_c, 7, 74, 64
9, 464880, Note_on_c, 7, 72, 80
9, 464940, Note_off_c, 7, 72, 64
9, 464940, Note_on_c, 7, 74, 80
9, 465000, Note_off_c, 7, 74, 64
9, 465000, Note_on_c, 7, 72, 80
9, 465060, Note_off_c, 7, 72, 64
9, 465060, Note_on_c, 7, 74, 80
9, 465120, Note_off_c, 7, 74, 64
9, 465120, Note_on_c, 7, 70, 100
9, 465240, Note_off_c, 7, 70, 64
9, 465240, Note_on_c, 7, 69, 100
9, 465360, Note_off_c, 7, 69, 64
9, 465360, Note_on_c, 7, 67, 100
9, 465480, Note_off_c, 7, 67, 64
9, 465480, Note_on_c, 7, 69, 100
9, 465600, Note_off_c, 7, 69, 64
9, 465600, Note_on_c, 7, 70, 100
9, 465720, Note_off_c, 7, 70, 64
9, 465720, Note_on_c, 7, 69, 100
9, 465840, Note_off_c, 7, 69, 64
9, 465840, Note_on_c, 7, 67, 100
9, 465960, Note_off_c, 7, 67, 64
9, 465960, Note_on_c, 7, 69, 100
9, 466080, Note_off_c, 7, 69, 64
9, 466080, Note_on_c, 7, 70, 100
9, 466200, Note_off_c, 7, 70, 64
9, 466200, Note_on_c, 7, 72, 100
9, 466320, Note_off_c, 7, 72, 64
9, 466320, Note_on_c, 7, 74, 100
9, 466440, Note_off_c, 7, 74, 64
9, 466440, Note_on_c, 7, 76, 100
9, 466560, Note_off_c, 7, 76, 64
9, 466560, Note_on_c, 7, 77, 100
9, 466680, Note_off_c, 7, 77, 64
9, 466680, Note_on_c, 7, 79, 100
9, 466800, Note_off_c, 7, 79, 64
9, 466800, Note_on_c, 7, 76, 100
9, 466920, Note_off_c, 7, 76, 64
9, 466920, Note_on_c, 7, 77, 100
9, 467040, Note_off_c, 7, 77, 64
9, 467040, Note_on_c, 7, 79, 100
9, 467160, Note_off_c, 7, 79, 64
9, 467160, Note_on_c, 7, 81, 100
9, 467280, Note_off_c, 7, 81, 64
9, 467280, Note_on_c, 7, 77, 100
9, 467400, Note_off_c, 7, 77, 64
9, 467400, Note_on_c, 7, 79, 100
9, 467520, Note_off_c, 7, 79, 64
9, 467520, Note_on_c, 7, 81, 100
9, 467640, Note_off_c, 7, 81, 64
9, 467640, Note_on_c, 7, 82, 100
9, 467760, Note_off_c, 7, 82, 64
9, 467760, Note_on_c, 7, 74, 100
9, 467840, Note_off_c, 7, 74, 64
9, 467840, Note_on_c, 7, 76, 100
9, 467920, Note_off_c, 7, 76, 64
9, 467920, Note_on_c, 7, 77, 100
9, 468000, Note_off_c, 7, 77, 64
9, 468000, Note_on_c, 7, 79, 100
9, 468080, Note_off_c, 7, 79, 64
9, 468080, Note_on_c, 7, 81, 100
9, 468160, Note_off_c, 7, 81, 64
9, 468160, Note_on_c, 7, 82, 100
9, 468240, Note_off_c, 7, 82, 64
9, 468240, Note_on_c, 7, 79, 100
9, 468320, Note_off_c, 7, 79, 64
9, 468320, Note_on_c, 7, 81, 100
9, 468400, Note_off_c, 7, 81, 64
9, 468400, Note_on_c, 7, 82, 100
9, 468480, Note_off_c, 7, 82, 64
9, 468480, Note_on_c, 7, 84, 100
9, 468960, Note_off_c, 7, 84, 64
9, 474240, Note_on_c, 7, 81, 100
9, 474360, Note_off_c, 7, 81, 80
9, 474360, Note_on_c, 7, 77, 100
9, 474480, Note_off_c, 7, 77, 80
9, 474480, Note_on_c, 7, 70, 100
9, 474600, Note_off_c, 7, 70, 80
9, 474600, Note_on_c, 7, 69, 100
9, 474720, Note_off_c, 7, 69, 80
9, 474720, Note_on_c, 7, 70, 100
9, 474840, Note_off_c, 7, 70, 80
9, 474840, Note_on_c, 7, 77, 100
9, 474960, Note_off_c, 7, 77, 80
9, 474960, Note_on_c, 7, 81, 100
9, 475080, Note_off_c, 7, 81, 80
9, 475080, Note_on_c, 7, 77, 100
9, 475200, Note_off_c, 7, 77, 80
9, 475200, Note_on_c, 7, 70, 100
9, 475320, Note_off_c, 7, 70, 80
9, 475320, Note_on_c, 7, 69, 100
9, 475440, Note_off_c, 7, 69, 80
9, 475440, Note_on_c, 7, 65, 100
9, 475560, Note_off_c, 7, 65, 80
9, 475560, Note_on_c, 7, 64, 100
9, 475680, Note_off_c, 7, 64, 80
9, 475680, Note_on_c, 7, 65, 100
9, 475800, Note_off_c, 7, 65, 80
9, 475800, Note_on_c, 7, 69, 100
9, 475920, Note_off_c, 7, 69, 80
9, 475920, Note_on_c, 7, 70, 100
9, 476040, Note_off_c, 7, 70, 80
9, 476040, Note_on_c, 7, 77, 100
9, 476160, Note_off_c, 7, 77, 80
9, 476160, Note_on_c, 7, 81, 100
9, 476280, Note_off_c, 7, 81, 80
9, 476280, Note_on_c, 7, 77, 100
9, 476400, Note_off_c, 7, 77, 80
9, 476400, Note_on_c, 7, 70, 100
9, 476520, Note_off_c, 7, 70, 80
9, 476520, Note_on_c, 7, 69, 100
9, 476640, Note_off_c, 7, 69, 80
9, 476640, Note_on_c, 7, 70, 100
9, 476760, Note_off_c, 7, 70, 80
9, 476760, Note_on_c, 7, 77, 100
9, 476880, Note_off_c, 7, 77, 80
9, 476880, Note_on_c, 7, 81, 100
9, 477000, Note_off_c, 7, 81, 80
9, 477000, Note_on_c, 7, 77, 100
9, 477120, Note_off_c, 7, 77, 80
9, 477120, Note_on_c, 7, 70, 100
9, 477240, Note_off_c, 7, 70, 80
9, 477240, Note_on_c, 7, 69, 100
9, 477360, Note_off_c, 7, 69, 80
9, 477360, Note_on_c, 7, 65, 100
9, 477480, Note_off_c, 7, 65, 80
9, 477480, Note_on_c, 7, 64, 100
9, 477600, Note_off_c, 7, 64, 80
9, 477600, Note_on_c, 7, 65, 100
9, 477720, Note_off_c, 7, 65, 80
9, 477720, Note_on_c, 7, 69, 100
9, 477840, Note_off_c, 7, 69, 80
9, 477840, Note_on_c, 7, 70, 100
9, 477960, Note_off_c, 7, 70, 80
9, 477960, Note_on_c, 7, 77, 100
9, 478080, Note_off_c, 7, 77, 80
9, 478080, Note_on_c, 7, 81, 100
9, 478200, Note_off_c, 7, 81, 80
9, 478200, Note_on_c, 7, 77, 100
9, 478320, Note_off_c, 7, 77, 80
9, 478320, Note_on_c, 7, 70, 100
9, 478440, Note_off_c, 7, 70, 80
9, 478440, Note_on_c, 7, 69, 100
9, 478560, Note_off_c, 7, 69, 80
9, 478560, Note_on_c, 7, 70, 100
9, 478680, Note_off_c, 7, 70, 80
9, 478680, Note_on_c, 7, 77, 100
9, 478800, Note_off_c, 7, 77, 80
9, 478800, Note_on_c, 7, 81, 100
9, 478920, Note_off_c, 7, 81, 80
9, 478920, Note_on_c, 7, 77, 100
9, 479040, Note_off_c, 7, 77, 80
9, 479040, Note_on_c, 7, 70, 100
9, 479160, Note_off_c, 7, 70, 80
9, 479160, Note_on_c, 7, 69, 100
9, 479280, Note_off_c, 7, 69, 80
9, 479280, Note_on_c, 7, 65, 100
9, 479400, Note_off_c, 7, 65, 80
9, 479400, Note_on_c, 7, 64, 100
9, 479520, Note_off_c, 7, 64, 80
9, 479520, Note_on_c, 7, 65, 100
9, 479640, Note_off_c, 7, 65, 80
9, 479640, Note_on_c, 7, 69, 100
9, 479760, Note_off_c, 7, 69, 80
9, 479760, Note_on_c, 7, 70, 100
9, 479880, Note_off_c, 7, 70, 80
9, 479880, Note_on_c, 7, 77, 100
9, 480000, Note_off_c, 7, 77, 80
9, 480000, Note_on_c, 7, 84, 100
9, 480120, Note_off_c, 7, 84, 80
9, 480120, Note_on_c, 7, 79, 100
9, 480240, Note_off_c, 7, 79, 80
9, 480240, Note_on_c, 7, 72, 100
9, 480360, Note_off_c, 7, 72, 80
9, 480360, Note_on_c, 7, 70, 100
9, 480480, Note_off_c, 7, 70, 80
9, 480480, Note_on_c, 7, 72, 100
9, 480600, Note_off_c, 7, 72, 80
9, 480600, Note_on_c, 7, 79, 100
9, 480720, Note_off_c, 7, 79, 80
9, 480720, Note_on_c, 7, 84, 100
9, 480840, Note_off_c, 7, 84, 80
9, 480840, Note_on_c, 7, 79, 100
9, 480960, Note_off_c, 7, 79, 80
9, 480960, Note_on_c, 7, 72, 100
9, 481080, Note_off_c, 7, 72, 80
9, 481080, Note_on_c, 7, 70, 100
9, 481200, Note_off_c, 7, 70, 80
9, 481200, Note_on_c, 7, 72, 100
9, 481320, Note_off_c, 7, 72, 80
9, 481320, Note_on_c, 7, 79, 100
9, 481440, Note_off_c, 7, 79, 80
9, 481440, Note_on_c, 7, 84, 100
9, 481560, Note_off_c, 7, 84, 80
9, 481560, Note_on_c, 7, 79, 100
9, 481680, Note_off_c, 7, 79, 80
9, 481680, Note_on_c, 7, 72, 100
9, 481800, Note_off_c, 7, 72, 80
9, 481800, Note_on_c, 7, 70, 100
9, 481920, Note_off_c, 7, 70, 80
9, 481920, Note_on_c, 7, 81, 100
9, 482040, Note_off_c, 7, 81, 80
9, 482040, Note_on_c, 7, 77, 100
9, 482160, Note_off_c, 7, 77, 80
9, 482160, Note_on_c, 7, 70, 100
9, 482280, Note_off_c, 7, 70, 80
9, 482280, Note_on_c, 7, 69, 100
9, 482400, Note_off_c, 7, 69, 80
9, 482400, Note_on_c, 7, 70, 100
9, 482520, Note_off_c, 7, 70, 80
9, 482520, Note_on_c, 7, 77, 100
9, 482640, Note_off_c, 7, 77, 80
9, 482640, Note_on_c, 7, 81, 100
9, 482760, Note_off_c, 7, 81, 80
9, 482760, Note_on_c, 7, 77, 100
9, 482880, Note_off_c, 7, 77, 80
9, 482880, Note_on_c, 7, 70, 100
9, 483000, Note_off_c, 7, 70, 80
9, 483000, Note_on_c, 7, 69, 100
9, 483120, Note_off_c, 7, 69, 80
9, 483120, Note_on_c, 7, 65, 100
9, 483240, Note_off_c, 7, 65, 80
9, 483240, Note_on_c, 7, 64, 100
9, 483360, Note_off_c, 7, 64, 80
9, 483360, Note_on_c, 7, 65, 100
9, 483480, Note_off_c, 7, 65, 80
9, 483480, Note_on_c, 7, 69, 100
9, 483600, Note_off_c, 7, 69, 80
9, 483600, Note_on_c, 7, 70, 100
9, 483720, Note_off_c, 7, 70, 80
9, 483720, Note_on_c, 7, 77, 100
9, 483840, Note_off_c, 7, 77, 80
9, 483840, Note_on_c, 7, 81, 100
9, 483960, Note_off_c, 7, 81, 80
9, 483960, Note_on_c, 7, 77, 100
9, 484080, Note_off_c, 7, 77, 80
9, 484080, Note_on_c, 7, 70, 100
9, 484200, Note_off_c, 7, 70, 80
9, 484200, Note_on_c, 7, 69, 100
9, 484320, Note_off_c, 7, 69, 80
9, 484320, Note_on_c, 7, 70, 100
9, 484440, Note_off_c, 7, 70, 80
9, 484440, Note_on_c, 7, 77, 100
9, 484560, Note_off_c, 7, 77, 80
9, 484560, Note_on_c, 7, 81, 100
9, 484680, Note_off_c, 7, 81, 80
9, 484680, Note_on_c, 7, 77, 100
9, 484800, Note_off_c, 7, 77, 80
9, 484800, Note_on_c, 7, 70, 100
9, 484920, Note_off_c, 7, 70, 80
9, 484920, Note_on_c, 7, 69, 100
9, 485040, Note_off_c, 7, 69, 80
9, 485040, Note_on_c, 7, 65, 100
9, 485160, Note_off_c, 7, 65, 80
9, 485160, Note_on_c, 7, 64, 100
9, 485280, Note_off_c, 7, 64, 80
9, 485280, Note_on_c, 7, 65, 100
9, 485400, Note_off_c, 7, 65, 80
9, 485400, Note_on_c, 7, 69, 100
9, 485520, Note_off_c, 7, 69, 80
9, 485520, Note_on_c, 7, 70, 100
9, 485640, Note_off_c, 7, 70, 80
9, 485640, Note_on_c, 7, 77, 100
9, 485760, Note_off_c, 7, 77, 80
9, 485760, Note_on_c, 7, 81, 100
9, 485880, Note_off_c, 7, 81, 80
9, 485880, Note_on_c, 7, 77, 100
9, 486000, Note_off_c, 7, 77, 80
9, 486000, Note_on_c, 7, 70, 100
9, 486120, Note_off_c, 7, 70, 80
9, 486120, Note_on_c, 7, 69, 100
9, 486240, Note_off_c, 7, 69, 80
9, 486240, Note_on_c, 7, 70, 100
9, 486360, Note_off_c, 7, 70, 80
9, 486360, Note_on_c, 7, 77, 100
9, 486480, Note_off_c, 7, 77, 80
9, 486480, Note_on_c, 7, 81, 100
9, 486600, Note_off_c, 7, 81, 80
9, 486600, Note_on_c, 7, 77, 100
9, 486720, Note_off_c, 7, 77, 80
9, 486720, Note_on_c, 7, 70, 100
9, 486840, Note_off_c, 7, 70, 80
9, 486840, Note_on_c, 7, 69, 100
9, 486960, Note_off_c, 7, 69, 80
9, 486960, Note_on_c, 7, 65, 100
9, 487080, Note_off_c, 7, 65, 80
9, 487080, Note_on_c, 7, 64, 100
9, 487200, Note_off_c, 7, 64, 80
9, 487200, Note_on_c, 7, 65, 100
9, 487320, Note_off_c, 7, 65, 80
9, 487320, Note_on_c, 7, 69, 100
9, 487440, Note_off_c, 7, 69, 80
9, 487440, Note_on_c, 7, 70, 100
9, 487560, Note_off_c, 7, 70, 80
9, 487560, Note_on_c, 7, 77, 100
9, 487680, Note_off_c, 7, 77, 80
9, 487680, Note_on_c, 7, 84, 100
9, 487800, Note_off_c, 7, 84, 80
9, 487800, Note_on_c, 7, 77, 100
9, 487920, Note_off_c, 7, 77, 80
9, 487920, Note_on_c, 7, 72, 100
9, 488040, Note_off_c, 7, 72, 80
9, 488040, Note_on_c, 7, 77, 100
9, 488160, Note_off_c, 7, 77, 80
9, 488160, Note_on_c, 7, 82, 100
9, 488280, Note_off_c, 7, 82, 80
9, 488280, Note_on_c, 7, 77, 100
9, 488400, Note_off_c, 7, 77, 80
9, 488400, Note_on_c, 7, 72, 100
9, 488520, Note_off_c, 7, 72, 80
9, 488520, Note_on_c, 7, 77, 100
9, 488640, Note_off_c, 7, 77, 80
9, 488640, Note_on_c, 7, 81, 100
9, 488760, Note_off_c, 7, 81, 80
9, 488760, Note_on_c, 7, 77, 100
9, 488880, Note_off_c, 7, 77, 80
9, 488880, Note_on_c, 7, 72, 100
9, 489000, Note_off_c, 7, 72, 80
9, 489000, Note_on_c, 7, 77, 100
9, 489120, Note_off_c, 7, 77, 80
9, 489120, Note_on_c, 7, 79, 100
9, 489240, Note_off_c, 7, 79, 80
9, 489240, Note_on_c, 7, 77, 100
9, 489360, Note_off_c, 7, 77, 80
9, 489360, Note_on_c, 7, 72, 100
9, 489480, Note_off_c, 7, 72, 80
9, 489480, Note_on_c, 7, 77, 100
9, 489600, Note_off_c, 7, 77, 80
9, 489600, Note_on_c, 7, 81, 100
9, 489720, Note_off_c, 7, 81, 80
9, 489720, Note_on_c, 7, 77, 100
9, 489840, Note_off_c, 7, 77, 80
9, 489840, Note_on_c, 7, 70, 100
9, 489960, Note_off_c, 7, 70, 80
9, 489960, Note_on_c, 7, 69, 100
9, 490080, Note_off_c, 7, 69, 80
9, 490080, Note_on_c, 7, 70, 100
9, 490200, Note_off_c, 7, 70, 80
9, 490200, Note_on_c, 7, 77, 100
9, 490320, Note_off_c, 7, 77, 80
9, 490320, Note_on_c, 7, 81, 100
9, 490440, Note_off_c, 7, 81, 80
9, 490440, Note_on_c, 7, 77, 100
9, 490560, Note_off_c, 7, 77, 80
9, 490560, Note_on_c, 7, 70, 100
9, 490680, Note_off_c, 7, 70, 80
9, 490680, Note_on_c, 7, 69, 100
9, 490800, Note_off_c, 7, 69, 80
9, 490800, Note_on_c, 7, 65, 100
9, 490920, Note_off_c, 7, 65, 80
9, 490920, Note_on_c, 7, 64, 100
9, 491040, Note_off_c, 7, 64, 80
9, 491040, Note_on_c, 7, 65, 100
9, 491160, Note_off_c, 7, 65, 80
9, 491160, Note_on_c, 7, 69, 100
9, 491280, Note_off_c, 7, 69, 80
9, 491280, Note_on_c, 7, 70, 100
9, 491400, Note_off_c, 7, 70, 80
9, 491400, Note_on_c, 7, 77, 100
9, 491520, Note_off_c, 7, 77, 80
9, 491520, Note_on_c, 7, 81, 100
9, 491640, Note_off_c, 7, 81, 80
9, 491640, Note_on_c, 7, 77, 100
9, 491760, Note_off_c, 7, 77, 80
9, 491760, Note_on_c, 7, 70, 100
9, 491880, Note_off_c, 7, 70, 80
9, 491880, Note_on_c, 7, 69, 100
9, 492000, Note_off_c, 7, 69, 80
9, 492000, Note_on_c, 7, 70, 100
9, 492120, Note_off_c, 7, 70, 80
9, 492120, Note_on_c, 7, 77, 100
9, 492240, Note_off_c, 7, 77, 80
9, 492240, Note_on_c, 7, 81, 100
9, 492360, Note_off_c, 7, 81, 80
9, 492360, Note_on_c, 7, 77, 100
9, 492480, Note_off_c, 7, 77, 80
9, 492480, Note_on_c, 7, 70, 100
9, 492600, Note_off_c, 7, 70, 80
9, 492600, Note_on_c, 7, 69, 100
9, 492720, Note_off_c, 7, 69, 80
9, 492720, Note_on_c, 7, 65, 100
9, 492840, Note_off_c, 7, 65, 80
9, 492840, Note_on_c, 7, 64, 100
9, 492960, Note_off_c, 7, 64, 80
9, 492960, Note_on_c, 7, 65, 100
9, 493080, Note_off_c, 7, 65, 80
9, 493080, Note_on_c, 7, 69, 100
9, 493200, Note_off_c, 7, 69, 80
9, 493200, Note_on_c, 7, 70, 100
9, 493320, Note_off_c, 7, 70, 80
9, 493320, Note_on_c, 7, 77, 100
9, 493440, Note_off_c, 7, 77, 80
9, 493440, Note_on_c, 7, 81, 100
9, 493560, Note_off_c, 7, 81, 80
9, 493560, Note_on_c, 7, 77, 100
9, 493680, Note_off_c, 7, 77, 80
9, 493680, Note_on_c, 7, 70, 100
9, 493800, Note_off_c, 7, 70, 80
9, 493800, Note_on_c, 7, 69, 100
9, 493920, Note_off_c, 7, 69, 80
9, 493920, Note_on_c, 7, 70, 100
9, 494040, Note_off_c, 7, 70, 80
9, 494040, Note_on_c, 7, 77, 100
9, 494160, Note_off_c, 7, 77, 80
9, 494160, Note_on_c, 7, 81, 100
9, 494280, Note_off_c, 7, 81, 80
9, 494280, Note_on_c, 7, 77, 100
9, 494400, Note_off_c, 7, 77, 80
9, 494400, Note_on_c, 7, 70, 100
9, 494520, Note_off_c, 7, 70, 80
9, 494520, Note_on_c, 7, 69, 100
9, 494640, Note_off_c, 7, 69, 80
9, 494640, Note_on_c, 7, 65, 100
9, 494760, Note_off_c, 7, 65, 80
9, 494760, Note_on_c, 7, 64, 100
9, 494880, Note_off_c, 7, 64, 80
9, 494880, Note_on_c, 7, 65, 100
9, 495000, Note_off_c, 7, 65, 80
9, 495000, Note_on_c, 7, 69, 100
9, 495120, Note_off_c, 7, 69, 80
9, 495120, Note_on_c, 7, 70, 100
9, 495240, Note_off_c, 7, 70, 80
9, 495240, Note_on_c, 7, 77, 100
9, 495360, Note_off_c, 7, 77, 80
9, 495360, Note_on_c, 7, 84, 100
9, 495480, Note_off_c, 7, 84, 80
9, 495480, Note_on_c, 7, 79, 100
9, 495600, Note_off_c, 7, 79, 80
9, 495600, Note_on_c, 7, 72, 100
9, 495720, Note_off_c, 7, 72, 80
9, 495720, Note_on_c, 7, 70, 100
9, 495840, Note_off_c, 7, 70, 80
9, 495840, Note_on_c, 7, 72, 100
9, 495960, Note_off_c, 7, 72, 80
9, 495960, Note_on_c, 7, 79, 100
9, 496080, Note_off_c, 7, 79, 80
9, 496080, Note_on_c, 7, 84, 100
9, 496200, Note_off_c, 7, 84, 80
9, 496200, Note_on_c, 7, 79, 100
9, 496320, Note_off_c, 7, 79, 80
9, 496320, Note_on_c, 7, 72, 100
9, 496440, Note_off_c, 7, 72, 80
9, 496440, Note_on_c, 7, 70, 100
9, 496560, Note_off_c, 7, 70, 80
9, 496560, Note_on_c, 7, 72, 100
9, 496680, Note_off_c, 7, 72, 80
9, 496680, Note_on_c, 7, 79, 100
9, 496800, Note_off_c, 7, 79, 80
9, 496800, Note_on_c, 7, 84, 100
9, 496920, Note_off_c, 7, 84, 80
9, 496920, Note_on_c, 7, 79, 100
9, 497040, Note_off_c, 7, 79, 80
9, 497040, Note_on_c, 7, 72, 100
9, 497160, Note_off_c, 7, 72, 80
9, 497160, Note_on_c, 7, 70, 100
9, 497280, Note_off_c, 7, 70, 80
9, 497280, Note_on_c, 7, 81, 100
9, 497400, Note_off_c, 7, 81, 80
9, 497400, Note_on_c, 7, 77, 100
9, 497520, Note_off_c, 7, 77, 80
9, 497520, Note_on_c, 7, 70, 100
9, 497640, Note_off_c, 7, 70, 80
9, 497640, Note_on_c, 7, 69, 100
9, 497760, Note_off_c, 7, 69, 80
9, 497760, Note_on_c, 7, 70, 100
9, 497880, Note_off_c, 7, 70, 80
9, 497880, Note_on_c, 7, 77, 100
9, 498000, Note_off_c, 7, 77, 80
9, 498000, Note_on_c, 7, 81, 100
9, 498120, Note_off_c, 7, 81, 80
9, 498120, Note_on_c, 7, 77, 100
9, 498240, Note_off_c, 7, 77, 80
9, 498240, Note_on_c, 7, 70, 100
9, 498360, Note_off_c, 7, 70, 80
9, 498360, Note_on_c, 7, 69, 100
9, 498480, Note_off_c, 7, 69, 80
9, 498480, Note_on_c, 7, 65, 100
9, 498600, Note_off_c, 7, 65, 80
9, 498600, Note_on_c, 7, 64, 100
9, 498720, Note_off_c, 7, 64, 80
9, 498720, Note_on_c, 7, 65, 100
9, 498840, Note_off_c, 7, 65, 80
9, 498840, Note_on_c, 7, 69, 100
9, 498960, Note_off_c, 7, 69, 80
9, 498960, Note_on_c, 7, 70, 100
9, 499080, Note_off_c, 7, 70, 80
9, 499080, Note_on_c, 7, 77, 100
9, 499200, Note_off_c, 7, 77, 80
9, 499200, Note_on_c, 7, 81, 100
9, 499320, Note_off_c, 7, 81, 80
9, 499320, Note_on_c, 7, 77, 100
9, 499440, Note_off_c, 7, 77, 80
9, 499440, Note_on_c, 7, 70, 100
9, 499560, Note_off_c, 7, 70, 80
9, 499560, Note_on_c, 7, 69, 100
9, 499680, Note_off_c, 7, 69, 80
9, 499680, Note_on_c, 7, 70, 100
9, 499800, Note_off_c, 7, 70, 80
9, 499800, Note_on_c, 7, 77, 100
9, 499920, Note_off_c, 7, 77, 80
9, 499920, Note_on_c, 7, 81, 100
9, 500040, Note_off_c, 7, 81, 80
9, 500040, Note_on_c, 7, 77, 100
9, 500160, Note_off_c, 7, 77, 80
9, 500160, Note_on_c, 7, 70, 100
9, 500280, Note_off_c, 7, 70, 80
9, 500280, Note_on_c, 7, 69, 100
9, 500400, Note_off_c, 7, 69, 80
9, 500400, Note_on_c, 7, 65, 100
9, 500520, Note_off_c, 7, 65, 80
9, 500520, Note_on_c, 7, 64, 100
9, 500640, Note_off_c, 7, 64, 80
9, 500640, Note_on_c, 7, 65, 100
9, 500760, Note_off_c, 7, 65, 80
9, 500760, Note_on_c, 7, 69, 100
9, 500880, Note_off_c, 7, 69, 80
9, 500880, Note_on_c, 7, 70, 100
9, 501000, Note_off_c, 7, 70, 80
9, 501000, Note_on_c, 7, 77, 100
9, 501120, Note_off_c, 7, 77, 80
9, 501120, Note_on_c, 7, 81, 100
9, 501240, Note_off_c, 7, 81, 80
9, 501240, Note_on_c, 7, 77, 100
9, 501360, Note_off_c, 7, 77, 80
9, 501360, Note_on_c, 7, 70, 100
9, 501480, Note_off_c, 7, 70, 80
9, 501480, Note_on_c, 7, 69, 100
9, 501600, Note_off_c, 7, 69, 80
9, 501600, Note_on_c, 7, 70, 100
9, 501720, Note_off_c, 7, 70, 80
9, 501720, Note_on_c, 7, 77, 100
9, 501840, Note_off_c, 7, 77, 80
9, 501840, Note_on_c, 7, 81, 100
9, 501960, Note_off_c, 7, 81, 80
9, 501960, Note_on_c, 7, 77, 100
9, 502080, Note_off_c, 7, 77, 80
9, 502080, Note_on_c, 7, 70, 100
9, 502200, Note_off_c, 7, 70, 80
9, 502200, Note_on_c, 7, 69, 100
9, 502320, Note_off_c, 7, 69, 80
9, 502320, Note_on_c, 7, 65, 100
9, 502440, Note_off_c, 7, 65, 80
9, 502440, Note_on_c, 7, 64, 100
9, 502560, Note_off_c, 7, 64, 80
9, 502560, Note_on_c, 7, 65, 100
9, 502680, Note_off_c, 7, 65, 80
9, 502680, Note_on_c, 7, 69, 100
9, 502800, Note_off_c, 7, 69, 80
9, 502800, Note_on_c, 7, 70, 100
9, 502920, Note_off_c, 7, 70, 80
9, 502920, Note_on_c, 7, 77, 100
9, 503040, Note_off_c, 7, 77, 80
9, 503040, Note_on_c, 7, 84, 100
9, 503160, Note_off_c, 7, 84, 80
9, 503160, Note_on_c, 7, 77, 100
9, 503280, Note_off_c, 7, 77, 80
9, 503280, Note_on_c, 7, 72, 100
9, 503400, Note_off_c, 7, 72, 80
9, 503400, Note_on_c, 7, 77, 100
9, 503520, Note_off_c, 7, 77, 80
9, 503520, Note_on_c, 7, 82, 100
9, 503640, Note_off_c, 7, 82, 80
9, 503640, Note_on_c, 7, 77, 100
9, 503760, Note_off_c, 7, 77, 80
9, 503760, Note_on_c, 7, 72, 100
9, 503880, Note_off_c, 7, 72, 80
9, 503880, Note_on_c, 7, 77, 100
9, 504000, Note_off_c, 7, 77, 80
9, 504000, Note_on_c, 7, 81, 100
9, 504120, Note_off_c, 7, 81, 80
9, 504120, Note_on_c, 7, 77, 100
9, 504240, Note_off_c, 7, 77, 80
9, 504240, Note_on_c, 7, 72, 100
9, 504360, Note_off_c, 7, 72, 80
9, 504360, Note_on_c, 7, 77, 100
9, 504480, Note_off_c, 7, 77, 80
9, 504480, Note_on_c, 7, 79, 100
9, 504600, Note_off_c, 7, 79, 80
9, 504600, Note_on_c, 7, 77, 100
9, 504720, Note_off_c, 7, 77, 80
9, 504720, Note_on_c, 7, 72, 100
9, 504840, Note_off_c, 7, 72, 80
9, 504840, Note_on_c, 7, 77, 100
9, 504960, Note_off_c, 7, 77, 80
9, 520320, Note_on_c, 7, 77, 100
9, 520560, Note_off_c, 7, 77, 64
9, 520560, Note_on_c, 7, 76, 100
9, 520800, Note_off_c, 7, 76, 64
9, 520800, Note_on_c, 7, 75, 100
9, 520920, Note_off_c, 7, 75, 64
9, 520920, Note_on_c, 7, 76, 100
9, 521040, Note_off_c, 7, 76, 64
9, 521040, Note_on_c, 7, 75, 100
9, 521160, Note_off_c, 7, 75, 64
9, 521160, Note_on_c, 7, 74, 100
9, 521280, Note_off_c, 7, 74, 64
9, 521280, Note_on_c, 7, 73, 100
9, 521520, Note_off_c, 7, 73, 64
9, 521520, Note_on_c, 7, 72, 100
9, 521760, Note_off_c, 7, 72, 64
9, 521760, Note_on_c, 7, 71, 100
9, 522000, Note_off_c, 7, 71, 64
9, 522000, Note_on_c, 7, 72, 100
9, 522240, Note_off_c, 7, 72, 64
9, 522240, Note_on_c, 7, 74, 100
9, 522480, Note_off_c, 7, 74, 64
9, 522480, Note_on_c, 7, 73, 100
9, 522720, Note_off_c, 7, 73, 64
9, 522720, Note_on_c, 7, 72, 100
9, 522840, Note_off_c, 7, 72, 64
9, 522840, Note_on_c, 7, 73, 100
9, 522960, Note_off_c, 7, 73, 64
9, 522960, Note_on_c, 7, 72, 100
9, 523080, Note_off_c, 7, 72, 64
9, 523080, Note_on_c, 7, 71, 100
9, 523200, Note_off_c, 7, 71, 64
9, 523200, Note_on_c, 7, 70, 100
9, 523440, Note_off_c, 7, 70, 64
9, 523440, Note_on_c, 7, 69, 100
9, 523680, Note_off_c, 7, 69, 64
9, 523680, Note_on_c, 7, 68, 100
9, 523920, Note_off_c, 7, 68, 64
9, 523920, Note_on_c, 7, 69, 100
9, 524160, Note_off_c, 7, 69, 64
9, 524160, Note_on_c, 7, 72, 100
9, 524400, Note_off_c, 7, 72, 64
9, 524400, Note_on_c, 7, 67, 100
9, 524520, Note_off_c, 7, 67, 64
9, 524520, Note_on_c, 7, 67, 100
9, 524640, Note_off_c, 7, 67, 64
9, 524640, Note_on_c, 7, 66, 100
9, 524873, Note_off_c, 7, 66, 64
9, 524880, Note_on_c, 7, 67, 100
9, 525120, Note_off_c, 7, 67, 64
9, 525120, Note_on_c, 7, 72, 100
9, 525360, Note_off_c, 7, 72, 64
9, 525360, Note_on_c, 7, 67, 100
9, 525480, Note_off_c, 7, 67, 64
9, 525480, Note_on_c, 7, 67, 100
9, 525600, Note_off_c, 7, 67, 64
9, 525600, Note_on_c, 7, 66, 100
9, 525833, Note_off_c, 7, 66, 64
9, 525840, Note_on_c, 7, 67, 100
9, 526080, Note_off_c, 7, 67, 64
9, 526080, Note_on_c, 7, 60, 100
9, 526200, Note_off_c, 7, 60, 64
9, 526200, Note_on_c, 7, 61, 100
9, 526320, Note_off_c, 7, 61, 64
9, 526320, Note_on_c, 7, 62, 100
9, 526440, Note_off_c, 7, 62, 64
9, 526440, Note_on_c, 7, 63, 100
9, 526560, Note_off_c, 7, 63, 64
9, 526560, Note_on_c, 7, 64, 100
9, 526680, Note_off_c, 7, 64, 64
9, 526680, Note_on_c, 7, 65, 100
9, 526800, Note_off_c, 7, 65, 64
9, 526800, Note_on_c, 7, 66, 100
9, 526920, Note_off_c, 7, 66, 64
9, 526920, Note_on_c, 7, 67, 100
9, 527040, Note_off_c, 7, 67, 64
9, 527040, Note_on_c, 7, 68, 100
9, 527160, Note_off_c, 7, 68, 64
9, 527160, Note_on_c, 7, 69, 100
9, 527280, Note_off_c, 7, 69, 64
9, 527280, Note_on_c, 7, 70, 100
9, 527400, Note_off_c, 7, 70, 64
9, 527400, Note_on_c, 7, 71, 100
9, 527520, Note_off_c, 7, 71, 64
9, 527520, Note_on_c, 7, 72, 100
9, 527640, Note_off_c, 7, 72, 64
9, 527640, Note_on_c, 7, 73, 100
9, 527760, Note_off_c, 7, 73, 64
9, 527760, Note_on_c, 7, 74, 100
9, 527880, Note_off_c, 7, 74, 64
9, 527880, Note_on_c, 7, 75, 100
9, 528000, Note_off_c, 7, 75, 64
9, 528000, Note_on_c, 7, 76, 100
9, 528120, Note_off_c, 7, 76, 64
9, 528120, Note_on_c, 7, 77, 100
9, 528240, Note_off_c, 7, 77, 64
9, 528240, Note_on_c, 7, 78, 100
9, 528360, Note_off_c, 7, 78, 64
9, 528360, Note_on_c, 7, 79, 100
9, 528480, Note_off_c, 7, 79, 64
9, 528480, Note_on_c, 7, 80, 100
9, 528600, Note_off_c, 7, 80, 64
9, 528600, Note_on_c, 7, 81, 100
9, 528720, Note_off_c, 7, 81, 64
9, 528720, Note_on_c, 7, 82, 100
9, 528840, Note_off_c, 7, 82, 64
9, 528840, Note_on_c, 7, 83, 100
9, 528960, Note_off_c, 7, 83, 64
9, 528960, Note_on_c, 7, 84, 100
9, 529080, Note_off_c, 7, 84, 64
9, 529080, Note_on_c, 7, 85, 100
9, 529200, Note_off_c, 7, 85, 64
9, 529200, Note_on_c, 7, 86, 100
9, 529320, Note_off_c, 7, 86, 64
9, 529320, Note_on_c, 7, 88, 100
9, 529440, Note_off_c, 7, 88, 64
9, 529440, Note_on_c, 7, 89, 100
9, 529560, Note_off_c, 7, 89, 64
9, 529560, Note_on_c, 7, 90, 100
9, 529680, Note_off_c, 7, 90, 64
9, 529680, Note_on_c, 7, 91, 100
9, 529800, Note_off_c, 7, 91, 64
9, 529800, Note_on_c, 7, 92, 100
9, 529860, Note_off_c, 7, 92, 64
9, 529860, Note_on_c, 7, 93, 100
9, 529920, Note_off_c, 7, 93, 64
9, 529920, Note_on_c, 7, 89, 100
9, 530160, Note_off_c, 7, 89, 64
9, 530160, End_track
10, 0, Start_track
10, 0, Title_t, "Saw"
10, 0, MIDI_port, 0
10, 0, Channel_prefix, 8
10, 0, Control_c, 8, 7, 79
10, 0, Control_c, 8, 10, 64
10, 0, Program_c, 8, 81
10, 61440, Note_on_c, 8, 74, 100
10, 61440, Note_on_c, 8, 79, 100
10, 62633, Note_off_c, 8, 79, 64
10, 62633, Note_off_c, 8, 74, 64
10, 62640, Note_on_c, 8, 79, 100
10, 62640, Note_on_c, 8, 74, 100
10, 62880, Note_off_c, 8, 74, 64
10, 62880, Note_off_c, 8, 79, 64
10, 63120, Note_on_c, 8, 77, 100
10, 63120, Note_on_c, 8, 74, 100
10, 63600, Note_off_c, 8, 74, 64
10, 63600, Note_off_c, 8, 77, 64
10, 63600, Note_on_c, 8, 76, 100
10, 63840, Note_off_c, 8, 76, 64
10, 63840, Note_on_c, 8, 74, 100
10, 64080, Note_off_c, 8, 74, 64
10, 64080, Note_on_c, 8, 72, 100
10, 64800, Note_off_c, 8, 72, 64
10, 64800, Note_on_c, 8, 72, 100
10, 64920, Note_off_c, 8, 72, 64
10, 64920, Note_on_c, 8, 74, 100
10, 65040, Note_off_c, 8, 74, 64
10, 65040, Note_on_c, 8, 76, 100
10, 65160, Note_off_c, 8, 76, 64
10, 65160, Note_on_c, 8, 77, 100
10, 65280, Note_off_c, 8, 77, 64
10, 65280, Note_on_c, 8, 77, 100
10, 65280, Note_on_c, 8, 74, 100
10, 65993, Note_off_c, 8, 74, 64
10, 65993, Note_off_c, 8, 77, 64
10, 66000, Note_on_c, 8, 76, 100
10, 66240, Note_off_c, 8, 76, 64
10, 66240, Note_on_c, 8, 74, 100
10, 66480, Note_off_c, 8, 74, 64
10, 66720, Note_on_c, 8, 72, 100
10, 66960, Note_off_c, 8, 72, 64
10, 66960, Note_on_c, 8, 72, 100
10, 66960, Note_on_c, 8, 67, 100
10, 68167, Note_off_c, 8, 67, 64
10, 68167, Note_off_c, 8, 72, 64
10, 68640, Note_on_c, 8, 72, 100
10, 68760, Note_off_c, 8, 72, 64
10, 68760, Note_on_c, 8, 74, 100
10, 68880, Note_off_c, 8, 74, 64
10, 68880, Note_on_c, 8, 76, 100
10, 69000, Note_off_c, 8, 76, 64
10, 69000, Note_on_c, 8, 77, 100
10, 69120, Note_off_c, 8, 77, 64
10, 69120, Note_on_c, 8, 74, 100
10, 69120, Note_on_c, 8, 79, 100
10, 69360, Note_off_c, 8, 79, 64
10, 69360, Note_off_c, 8, 74, 64
10, 69600, Note_on_c, 8, 81, 100
10, 69840, Note_off_c, 8, 81, 64
10, 69840, Note_on_c, 8, 82, 100
10, 70080, Note_off_c, 8, 82, 64
10, 70080, Note_on_c, 8, 84, 100
10, 70080, Note_on_c, 8, 79, 100
10, 70313, Note_off_c, 8, 84, 64
10, 70320, Note_off_c, 8, 79, 64
10, 70560, Note_on_c, 8, 82, 100
10, 70800, Note_off_c, 8, 82, 64
10, 71040, Note_on_c, 8, 81, 100
10, 71040, Note_on_c, 8, 72, 100
10, 71753, Note_off_c, 8, 72, 64
10, 71753, Note_off_c, 8, 81, 64
10, 71760, Note_on_c, 8, 79, 100
10, 71760, Note_on_c, 8, 72, 100
10, 72480, Note_off_c, 8, 79, 64
10, 72480, Note_on_c, 8, 79, 100
10, 72600, Note_off_c, 8, 79, 64
10, 72600, Note_on_c, 8, 81, 100
10, 72603, Note_off_c, 8, 72, 64
10, 72720, Note_off_c, 8, 81, 64
10, 72720, Note_on_c, 8, 82, 100
10, 72840, Note_off_c, 8, 82, 64
10, 72840, Note_on_c, 8, 84, 100
10, 72960, Note_off_c, 8, 84, 64
10, 72960, Note_on_c, 8, 86, 100
10, 72960, Note_on_c, 8, 79, 100
10, 73200, Note_off_c, 8, 79, 64
10, 73200, Note_off_c, 8, 86, 64
10, 73440, Note_on_c, 8, 84, 100
10, 73440, Note_on_c, 8, 77, 100
10, 73680, Note_off_c, 8, 77, 64
10, 73680, Note_off_c, 8, 84, 64
10, 73680, Note_on_c, 8, 82, 100
10, 73920, Note_off_c, 8, 82, 64
10, 73920, Note_on_c, 8, 81, 100
10, 73920, Note_on_c, 8, 72, 100
10, 74160, Note_off_c, 8, 72, 64
10, 74160, Note_off_c, 8, 81, 64
10, 74400, Note_on_c, 8, 79, 100
10, 74640, Note_off_c, 8, 79, 64
10, 74640, Note_on_c, 8, 79, 100
10, 76800, Note_on_c, 8, 69, 80
10, 76800, Note_on_c, 8, 74, 80
10, 76807, Note_off_c, 8, 79, 64
10, 77040, Note_off_c, 8, 69, 64
10, 77040, Note_off_c, 8, 74, 64
10, 77040, Note_on_c, 8, 62, 80
10, 78000, Note_off_c, 8, 62, 64
10, 78000, Note_on_c, 8, 64, 80
10, 78000, Note_on_c, 8, 57, 80
10, 78240, Note_off_c, 8, 57, 64
10, 78240, Note_off_c, 8, 64, 64
10, 78480, Note_on_c, 8, 65, 80
10, 78480, Note_on_c, 8, 60, 80
10, 78960, Note_off_c, 8, 60, 64
10, 78960, Note_off_c, 8, 65, 64
10, 78960, Note_on_c, 8, 67, 80
10, 79200, Note_off_c, 8, 67, 64
10, 79200, Note_on_c, 8, 69, 80
10, 79440, Note_off_c, 8, 69, 64
10, 79440, Note_on_c, 8, 72, 80
10, 79440, Note_on_c, 8, 67, 80
10, 80160, Note_on_c, 8, 76, 80
10, 80167, Note_off_c, 8, 67, 64
10, 80167, Note_off_c, 8, 72, 64
10, 80400, Note_off_c, 8, 76, 64
10, 80400, Note_on_c, 8, 72, 80
10, 80640, Note_off_c, 8, 72, 64
10, 80640, Note_on_c, 8, 74, 80
10, 80640, Note_on_c, 8, 69, 80
10, 80880, Note_off_c, 8, 69, 64
10, 80880, Note_off_c, 8, 74, 64
10, 80880, Note_on_c, 8, 62, 80
10, 81120, Note_on_c, 8, 62, 80
10, 81127, Note_off_c, 8, 62, 64
10, 81360, Note_off_c, 8, 62, 64
10, 81360, Note_on_c, 8, 64, 80
10, 81600, Note_off_c, 8, 64, 64
10, 81600, Note_on_c, 8, 65, 80
10, 81600, Note_on_c, 8, 60, 80
10, 81840, Note_off_c, 8, 60, 64
10, 81840, Note_off_c, 8, 65, 64
10, 81840, Note_on_c, 8, 67, 80
10, 82080, Note_off_c, 8, 67, 64
10, 82080, Note_on_c, 8, 69, 80
10, 82320, Note_off_c, 8, 69, 64
10, 82320, Note_on_c, 8, 72, 80
10, 82320, Note_on_c, 8, 67, 80
10, 84473, Note_off_c, 8, 72, 64
10, 84480, Note_on_c, 8, 69, 80
10, 84480, Note_on_c, 8, 74, 80
10, 84487, Note_off_c, 8, 67, 64
10, 84720, Note_off_c, 8, 69, 64
10, 84720, Note_off_c, 8, 74, 64
10, 84720, Note_on_c, 8, 62, 80
10, 85680, Note_off_c, 8, 62, 64
10, 85680, Note_on_c, 8, 64, 80
10, 85680, Note_on_c, 8, 60, 80
10, 85920, Note_off_c, 8, 60, 64
10, 85920, Note_off_c, 8, 64, 64
10, 86160, Note_on_c, 8, 65, 80
10, 86160, Note_on_c, 8, 62, 80
10, 86640, Note_off_c, 8, 62, 64
10, 86640, Note_off_c, 8, 65, 64
10, 86640, Note_on_c, 8, 67, 80
10, 86880, Note_off_c, 8, 67, 64
10, 86880, Note_on_c, 8, 69, 80
10, 87120, Note_off_c, 8, 69, 64
10, 87120, Note_on_c, 8, 72, 80
10, 87120, Note_on_c, 8, 67, 80
10, 87840, Note_on_c, 8, 74, 80
10, 87847, Note_off_c, 8, 67, 64
10, 87847, Note_off_c, 8, 72, 64
10, 88080, Note_off_c, 8, 74, 64
10, 88080, Note_on_c, 8, 76, 80
10, 88275, Note_off_c, 8, 76, 64
10, 88280, Note_on_c, 8, 76, 80
10, 88320, Note_off_c, 8, 76, 64
10, 88320, Note_on_c, 8, 77, 80
10, 88320, Note_on_c, 8, 69, 80
10, 88800, Note_off_c, 8, 69, 64
10, 88800, Note_off_c, 8, 77, 64
10, 88800, Note_on_c, 8, 76, 80
10, 89040, Note_off_c, 8, 76, 64
10, 89040, Note_on_c, 8, 74, 80
10, 89280, Note_off_c, 8, 74, 64
10, 89280, Note_on_c, 8, 72, 80
10, 89280, Note_on_c, 8, 65, 80
10, 89760, Note_off_c, 8, 65, 64
10, 89760, Note_off_c, 8, 72, 64
10, 89760, Note_on_c, 8, 69, 80
10, 90000, Note_off_c, 8, 69, 64
10, 90000, Note_on_c, 8, 67, 80
10, 90000, Note_on_c, 8, 62, 80
10, 92167, Note_off_c, 8, 62, 64
10, 92167, Note_off_c, 8, 67, 64
10, 348480, Note_on_c, 8, 71, 100
10, 349680, Note_off_c, 8, 71, 64
10, 349680, Note_on_c, 8, 73, 100
10, 349920, Note_off_c, 8, 73, 64
10, 349920, Note_on_c, 8, 74, 100
10, 350160, Note_off_c, 8, 74, 64
10, 350160, Note_on_c, 8, 73, 100
10, 350520, Note_off_c, 8, 73, 64
10, 350520, Note_on_c, 8, 69, 100
10, 350640, Note_off_c, 8, 69, 64
10, 350640, Note_on_c, 8, 64, 100
10, 350760, Note_off_c, 8, 64, 64
10, 350760, Note_on_c, 8, 66, 100
10, 350880, Note_off_c, 8, 66, 64
10, 350880, Note_on_c, 8, 67, 100
10, 352080, Note_off_c, 8, 67, 64
10, 352080, Note_on_c, 8, 66, 100
10, 352320, Note_off_c, 8, 66, 64
10, 352320, Note_on_c, 8, 71, 100
10, 352560, Note_off_c, 8, 71, 64
10, 352560, Note_on_c, 8, 66, 100
10, 352800, Note_off_c, 8, 66, 64
10, 352800, Note_on_c, 8, 62, 100
10, 353040, Note_off_c, 8, 62, 64
10, 353040, Note_on_c, 8, 64, 100
10, 353280, Note_off_c, 8, 64, 64
10, 353280, Note_on_c, 8, 62, 100
10, 353520, Note_off_c, 8, 62, 64
10, 353520, Note_on_c, 8, 61, 100
10, 353760, Note_off_c, 8, 61, 64
10, 353760, Note_on_c, 8, 59, 100
10, 354000, Note_off_c, 8, 59, 64
10, 354000, Note_on_c, 8, 66, 100
10, 354120, Note_off_c, 8, 66, 64
10, 354240, Note_on_c, 8, 66, 100
10, 355440, Note_off_c, 8, 66, 64
10, 355920, Note_on_c, 8, 71, 100
10, 356640, Note_on_c, 8, 73, 100
10, 356647, Note_off_c, 8, 71, 64
10, 356873, Note_off_c, 8, 73, 64
10, 356880, Note_on_c, 8, 74, 100
10, 357120, Note_on_c, 8, 76, 100
10, 357127, Note_off_c, 8, 74, 64
10, 357470, Note_off_c, 8, 76, 64
10, 357480, Note_on_c, 8, 73, 100
10, 357600, Note_off_c, 8, 73, 64
10, 357600, Note_on_c, 8, 69, 100
10, 357833, Note_off_c, 8, 69, 64
10, 357840, Note_on_c, 8, 78, 100
10, 358917, Note_off_c, 8, 78, 64
10, 359040, Note_on_c, 8, 79, 100
10, 359280, Note_off_c, 8, 79, 64
10, 359280, Note_on_c, 8, 78, 100
10, 359520, Note_off_c, 8, 78, 64
10, 359520, Note_on_c, 8, 76, 100
10, 359760, Note_off_c, 8, 76, 64
10, 359760, Note_on_c, 8, 74, 100
10, 360000, Note_off_c, 8, 74, 64
10, 360000, Note_on_c, 8, 74, 100
10, 360240, Note_off_c, 8, 74, 64
10, 360240, Note_on_c, 8, 76, 100
10, 360480, Note_off_c, 8, 76, 64
10, 360480, Note_on_c, 8, 78, 100
10, 360720, Note_off_c, 8, 78, 64
10, 360720, Note_on_c, 8, 76, 100
10, 360840, Note_off_c, 8, 76, 64
10, 360840, Note_on_c, 8, 74, 100
10, 360960, Note_off_c, 8, 74, 64
10, 360960, Note_on_c, 8, 72, 100
10, 362400, Note_off_c, 8, 72, 64
10, 362400, Note_on_c, 8, 71, 100
10, 363600, Note_off_c, 8, 71, 64
10, 363600, Note_on_c, 8, 73, 100
10, 363840, Note_off_c, 8, 73, 64
10, 363840, Note_on_c, 8, 74, 100
10, 364080, Note_off_c, 8, 74, 64
10, 364080, Note_on_c, 8, 73, 100
10, 364440, Note_off_c, 8, 73, 64
10, 364440, Note_on_c, 8, 69, 100
10, 364560, Note_off_c, 8, 69, 64
10, 364560, Note_on_c, 8, 64, 100
10, 364680, Note_off_c, 8, 64, 64
10, 364680, Note_on_c, 8, 66, 100
10, 364800, Note_off_c, 8, 66, 64
10, 364800, Note_on_c, 8, 67, 100
10, 366000, Note_off_c, 8, 67, 64
10, 366000, Note_on_c, 8, 66, 100
10, 366240, Note_off_c, 8, 66, 64
10, 366240, Note_on_c, 8, 71, 100
10, 366480, Note_off_c, 8, 71, 64
10, 366480, Note_on_c, 8, 66, 100
10, 366720, Note_off_c, 8, 66, 64
10, 366720, Note_on_c, 8, 62, 100
10, 366960, Note_off_c, 8, 62, 64
10, 366960, Note_on_c, 8, 64, 100
10, 367200, Note_off_c, 8, 64, 64
10, 367200, Note_on_c, 8, 62, 100
10, 367440, Note_off_c, 8, 62, 64
10, 367440, Note_on_c, 8, 61, 100
10, 367680, Note_off_c, 8, 61, 64
10, 367680, Note_on_c, 8, 59, 100
10, 367920, Note_off_c, 8, 59, 64
10, 367920, Note_on_c, 8, 66, 100
10, 368040, Note_off_c, 8, 66, 64
10, 368160, Note_on_c, 8, 66, 100
10, 369360, Note_off_c, 8, 66, 64
10, 369840, Note_on_c, 8, 71, 100
10, 370560, Note_on_c, 8, 73, 100
10, 370567, Note_off_c, 8, 71, 64
10, 370793, Note_off_c, 8, 73, 64
10, 370800, Note_on_c, 8, 74, 100
10, 371040, Note_on_c, 8, 76, 100
10, 371047, Note_off_c, 8, 74, 64
10, 371390, Note_off_c, 8, 76, 64
10, 371400, Note_on_c, 8, 73, 100
10, 371520, Note_off_c, 8, 73, 64
10, 371520, Note_on_c, 8, 69, 100
10, 371753, Note_off_c, 8, 69, 64
10, 371760, Note_on_c, 8, 78, 100
10, 372837, Note_off_c, 8, 78, 64
10, 372960, Note_on_c, 8, 79, 100
10, 373200, Note_off_c, 8, 79, 64
10, 373200, Note_on_c, 8, 78, 100
10, 373440, Note_off_c, 8, 78, 64
10, 373440, Note_on_c, 8, 76, 100
10, 373680, Note_off_c, 8, 76, 64
10, 373680, Note_on_c, 8, 74, 100
10, 373920, Note_off_c, 8, 74, 64
10, 373920, Note_on_c, 8, 74, 100
10, 374160, Note_off_c, 8, 74, 64
10, 374160, Note_on_c, 8, 76, 100
10, 374400, Note_off_c, 8, 76, 64
10, 374400, Note_on_c, 8, 78, 100
10, 374640, Note_off_c, 8, 78, 64
10, 374640, Note_on_c, 8, 76, 100
10, 374760, Note_off_c, 8, 76, 64
10, 374760, Note_on_c, 8, 74, 100
10, 374880, Note_off_c, 8, 74, 64
10, 374880, Note_on_c, 8, 72, 100
10, 376320, Note_off_c, 8, 72, 64
10, 416640, Note_on_c, 8, 81, 80
10, 416640, Note_on_c, 8, 77, 80
10, 416640, Note_on_c, 8, 74, 80
10, 417470, Note_off_c, 8, 74, 64
10, 417470, Note_off_c, 8, 77, 64
10, 417470, Note_off_c, 8, 81, 64
10, 417600, Note_on_c, 8, 79, 80
10, 417600, Note_on_c, 8, 76, 80
10, 417600, Note_on_c, 8, 72, 80
10, 418196, Note_off_c, 8, 72, 64
10, 418196, Note_off_c, 8, 76, 64
10, 418196, Note_off_c, 8, 79, 64
10, 418320, Note_on_c, 8, 74, 80
10, 418320, Note_on_c, 8, 77, 80
10, 418320, Note_on_c, 8, 70, 80
10, 420480, Note_off_c, 8, 70, 64
10, 420480, Note_off_c, 8, 77, 64
10, 420480, Note_off_c, 8, 74, 64
10, 420480, Note_on_c, 8, 77, 80
10, 420480, Note_on_c, 8, 82, 80
10, 420480, Note_on_c, 8, 74, 80
10, 421320, Note_off_c, 8, 74, 64
10, 421320, Note_off_c, 8, 82, 64
10, 421320, Note_off_c, 8, 77, 64
10, 421440, Note_on_c, 8, 72, 80
10, 421440, Note_on_c, 8, 81, 80
10, 421440, Note_on_c, 8, 77, 80
10, 422040, Note_off_c, 8, 77, 64
10, 422040, Note_off_c, 8, 81, 64
10, 422040, Note_off_c, 8, 72, 64
10, 422160, Note_on_c, 8, 84, 80
10, 422160, Note_on_c, 8, 79, 80
10, 422160, Note_on_c, 8, 76, 80
10, 422160, Note_on_c, 8, 72, 80
10, 423840, Note_off_c, 8, 72, 64
10, 423840, Note_off_c, 8, 76, 64
10, 423840, Note_off_c, 8, 79, 64
10, 423840, Note_off_c, 8, 84, 64
10, 423840, Note_on_c, 8, 74, 80
10, 423840, Note_on_c, 8, 77, 80
10, 423840, Note_on_c, 8, 81, 80
10, 424670, Note_off_c, 8, 81, 64
10, 424670, Note_off_c, 8, 77, 64
10, 424670, Note_off_c, 8, 74, 64
10, 424800, Note_on_c, 8, 79, 80
10, 424800, Note_on_c, 8, 76, 80
10, 424800, Note_on_c, 8, 72, 80
10, 425396, Note_off_c, 8, 72, 64
10, 425396, Note_off_c, 8, 76, 64
10, 425396, Note_off_c, 8, 79, 64
10, 425520, Note_on_c, 8, 74, 80
10, 425520, Note_on_c, 8, 77, 80
10, 425520, Note_on_c, 8, 70, 80
10, 427680, Note_off_c, 8, 70, 64
10, 427680, Note_off_c, 8, 77, 64
10, 427680, Note_off_c, 8, 74, 64
10, 427680, Note_on_c, 8, 77, 80
10, 427680, Note_on_c, 8, 82, 80
10, 427680, Note_on_c, 8, 74, 80
10, 428520, Note_off_c, 8, 74, 64
10, 428520, Note_off_c, 8, 82, 64
10, 428520, Note_off_c, 8, 77, 64
10, 428640, Note_on_c, 8, 72, 80
10, 428640, Note_on_c, 8, 81, 80
10, 428640, Note_on_c, 8, 77, 80
10, 429240, Note_off_c, 8, 77, 64
10, 429240, Note_off_c, 8, 81, 64
10, 429240, Note_off_c, 8, 72, 64
10, 429360, Note_on_c, 8, 84, 80
10, 429360, Note_on_c, 8, 79, 80
10, 429360, Note_on_c, 8, 76, 80
10, 429360, Note_on_c, 8, 72, 80
10, 431040, Note_off_c, 8, 72, 64
10, 431040, Note_off_c, 8, 76, 64
10, 431040, Note_off_c, 8, 79, 64
10, 431040, Note_off_c, 8, 84, 64
10, 431040, End_track
11, 0, Start_track
11, 0, Title_t, "Drums"
11, 0, MIDI_port, 0
11, 0, Channel_prefix, 9
11, 0, Control_c, 9, 7, 89
11, 0, Control_c, 9, 10, 64
11, 0, Program_c, 9, 0
11, 0, Note_on_c, 9, 49, 100
11, 0, Note_on_c, 9, 36, 100
11, 0, Note_on_c, 9, 46, 60
11, 120, Note_off_c, 9, 46, 80
11, 120, Note_off_c, 9, 36, 80
11, 120, Note_off_c, 9, 49, 80
11, 120, Note_on_c, 9, 46, 60
11, 240, Note_off_c, 9, 46, 80
11, 240, Note_on_c, 9, 46, 60
11, 360, Note_off_c, 9, 46, 80
11, 360, Note_on_c, 9, 46, 60
11, 480, Note_off_c, 9, 46, 80
11, 480, Note_on_c, 9, 46, 60
11, 600, Note_off_c, 9, 46, 80
11, 600, Note_on_c, 9, 46, 60
11, 720, Note_off_c, 9, 46, 80
11, 720, Note_on_c, 9, 46, 100
11, 840, Note_off_c, 9, 46, 80
11, 840, Note_on_c, 9, 46, 60
11, 960, Note_off_c, 9, 46, 80
11, 960, Note_on_c, 9, 46, 60
11, 1080, Note_off_c, 9, 46, 80
11, 1080, Note_on_c, 9, 46, 60
11, 1200, Note_off_c, 9, 46, 80
11, 1200, Note_on_c, 9, 46, 60
11, 1320, Note_off_c, 9, 46, 80
11, 1320, Note_on_c, 9, 46, 60
11, 1440, Note_off_c, 9, 46, 80
11, 1440, Note_on_c, 9, 46, 100
11, 1560, Note_off_c, 9, 46, 80
11, 1560, Note_on_c, 9, 46, 60
11, 1680, Note_off_c, 9, 46, 80
11, 1680, Note_on_c, 9, 46, 60
11, 1800, Note_off_c, 9, 46, 80
11, 1800, Note_on_c, 9, 46, 60
11, 1920, Note_off_c, 9, 46, 80
11, 1920, Note_on_c, 9, 49, 100
11, 1920, Note_on_c, 9, 36, 100
11, 1920, Note_on_c, 9, 46, 60
11, 2040, Note_off_c, 9, 46, 80
11, 2040, Note_off_c, 9, 36, 80
11, 2040, Note_off_c, 9, 49, 80
11, 2040, Note_on_c, 9, 46, 60
11, 2160, Note_off_c, 9, 46, 80
11, 2160, Note_on_c, 9, 46, 60
11, 2280, Note_off_c, 9, 46, 80
11, 2280, Note_on_c, 9, 46, 60
11, 2400, Note_off_c, 9, 46, 80
11, 2400, Note_on_c, 9, 46, 60
11, 2520, Note_off_c, 9, 46, 80
11, 2520, Note_on_c, 9, 46, 60
11, 2640, Note_off_c, 9, 46, 80
11, 2640, Note_on_c, 9, 46, 100
11, 2760, Note_off_c, 9, 46, 80
11, 2760, Note_on_c, 9, 46, 60
11, 2880, Note_off_c, 9, 46, 80
11, 2880, Note_on_c, 9, 46, 60
11, 3000, Note_off_c, 9, 46, 80
11, 3000, Note_on_c, 9, 46, 60
11, 3120, Note_off_c, 9, 46, 80
11, 3120, Note_on_c, 9, 46, 60
11, 3240, Note_off_c, 9, 46, 80
11, 3240, Note_on_c, 9, 46, 60
11, 3360, Note_off_c, 9, 46, 80
11, 3360, Note_on_c, 9, 46, 100
11, 3480, Note_off_c, 9, 46, 80
11, 3480, Note_on_c, 9, 46, 60
11, 3600, Note_off_c, 9, 46, 80
11, 3600, Note_on_c, 9, 46, 60
11, 3720, Note_off_c, 9, 46, 80
11, 3720, Note_on_c, 9, 46, 60
11, 3840, Note_off_c, 9, 46, 80
11, 3840, Note_on_c, 9, 46, 60
11, 3840, Note_on_c, 9, 49, 100
11, 3840, Note_on_c, 9, 36, 100
11, 3960, Note_off_c, 9, 36, 80
11, 3960, Note_off_c, 9, 49, 80
11, 3960, Note_off_c, 9, 46, 80
11, 3960, Note_on_c, 9, 46, 60
11, 4080, Note_off_c, 9, 46, 80
11, 4080, Note_on_c, 9, 46, 60
11, 4200, Note_off_c, 9, 46, 80
11, 4200, Note_on_c, 9, 46, 60
11, 4320, Note_off_c, 9, 46, 80
11, 4320, Note_on_c, 9, 46, 60
11, 4440, Note_off_c, 9, 46, 80
11, 4440, Note_on_c, 9, 46, 60
11, 4560, Note_off_c, 9, 46, 80
11, 4560, Note_on_c, 9, 46, 100
11, 4680, Note_off_c, 9, 46, 80
11, 4680, Note_on_c, 9, 46, 60
11, 4800, Note_off_c, 9, 46, 80
11, 4800, Note_on_c, 9, 46, 60
11, 4920, Note_off_c, 9, 46, 80
11, 4920, Note_on_c, 9, 46, 60
11, 5040, Note_off_c, 9, 46, 80
11, 5040, Note_on_c, 9, 46, 60
11, 5160, Note_off_c, 9, 46, 80
11, 5160, Note_on_c, 9, 46, 60
11, 5280, Note_off_c, 9, 46, 80
11, 5280, Note_on_c, 9, 46, 100
11, 5400, Note_off_c, 9, 46, 80
11, 5400, Note_on_c, 9, 46, 60
11, 5520, Note_off_c, 9, 46, 80
11, 5520, Note_on_c, 9, 46, 60
11, 5640, Note_off_c, 9, 46, 80
11, 5640, Note_on_c, 9, 46, 60
11, 5760, Note_off_c, 9, 46, 80
11, 5760, Note_on_c, 9, 46, 100
11, 5880, Note_off_c, 9, 46, 80
11, 5880, Note_on_c, 9, 46, 60
11, 6000, Note_off_c, 9, 46, 80
11, 6000, Note_on_c, 9, 46, 60
11, 6120, Note_off_c, 9, 46, 80
11, 6120, Note_on_c, 9, 46, 60
11, 6240, Note_off_c, 9, 46, 80
11, 6240, Note_on_c, 9, 46, 100
11, 6360, Note_off_c, 9, 46, 80
11, 6360, Note_on_c, 9, 46, 60
11, 6480, Note_off_c, 9, 46, 80
11, 6480, Note_on_c, 9, 46, 60
11, 6600, Note_off_c, 9, 46, 80
11, 6600, Note_on_c, 9, 46, 60
11, 6720, Note_off_c, 9, 46, 80
11, 6720, Note_on_c, 9, 46, 60
11, 6720, Note_on_c, 9, 50, 100
11, 6840, Note_off_c, 9, 50, 80
11, 6840, Note_off_c, 9, 46, 80
11, 6840, Note_on_c, 9, 46, 60
11, 6840, Note_on_c, 9, 50, 100
11, 6960, Note_off_c, 9, 50, 80
11, 6960, Note_off_c, 9, 46, 80
11, 6960, Note_on_c, 9, 46, 60
11, 7080, Note_off_c, 9, 46, 80
11, 7080, Note_on_c, 9, 46, 60
11, 7200, Note_off_c, 9, 46, 80
11, 7200, Note_on_c, 9, 46, 100
11, 7320, Note_off_c, 9, 46, 80
11, 7320, Note_on_c, 9, 46, 60
11, 7440, Note_off_c, 9, 46, 80
11, 7440, Note_on_c, 9, 46, 60
11, 7560, Note_off_c, 9, 46, 80
11, 7560, Note_on_c, 9, 46, 60
11, 7680, Note_off_c, 9, 46, 80
11, 7680, Note_on_c, 9, 49, 100
11, 7680, Note_on_c, 9, 36, 100
11, 7800, Note_off_c, 9, 36, 64
11, 7800, Note_off_c, 9, 49, 64
11, 7800, Note_on_c, 9, 46, 65
11, 7920, Note_off_c, 9, 46, 64
11, 7920, Note_on_c, 9, 46, 65
11, 8040, Note_off_c, 9, 46, 64
11, 8040, Note_on_c, 9, 46, 65
11, 8160, Note_off_c, 9, 46, 64
11, 8160, Note_on_c, 9, 46, 65
11, 8280, Note_off_c, 9, 46, 64
11, 8280, Note_on_c, 9, 46, 65
11, 8400, Note_off_c, 9, 46, 64
11, 8400, Note_on_c, 9, 40, 100
11, 8520, Note_off_c, 9, 40, 64
11, 8520, Note_on_c, 9, 46, 65
11, 8640, Note_off_c, 9, 46, 64
11, 8640, Note_on_c, 9, 46, 65
11, 8760, Note_off_c, 9, 46, 64
11, 8760, Note_on_c, 9, 46, 65
11, 8880, Note_off_c, 9, 46, 64
11, 8880, Note_on_c, 9, 46, 65
11, 9000, Note_off_c, 9, 46, 64
11, 9000, Note_on_c, 9, 46, 65
11, 9120, Note_off_c, 9, 46, 64
11, 9130, Note_on_c, 9, 52, 100
11, 9130, Note_on_c, 9, 36, 100
11, 9240, Note_on_c, 9, 46, 65
11, 9250, Note_off_c, 9, 36, 64
11, 9250, Note_off_c, 9, 52, 64
11, 9360, Note_off_c, 9, 46, 64
11, 9360, Note_on_c, 9, 46, 65
11, 9480, Note_off_c, 9, 46, 64
11, 9480, Note_on_c, 9, 46, 65
11, 9600, Note_off_c, 9, 46, 64
11, 9600, Note_on_c, 9, 46, 65
11, 9720, Note_off_c, 9, 46, 64
11, 9720, Note_on_c, 9, 46, 65
11, 9840, Note_off_c, 9, 46, 64
11, 9840, Note_on_c, 9, 40, 100
11, 9960, Note_off_c, 9, 40, 64
11, 9960, Note_on_c, 9, 46, 65
11, 10080, Note_off_c, 9, 46, 64
11, 10080, Note_on_c, 9, 46, 65
11, 10200, Note_off_c, 9, 46, 64
11, 10200, Note_on_c, 9, 46, 65
11, 10320, Note_off_c, 9, 46, 64
11, 10320, Note_on_c, 9, 46, 65
11, 10440, Note_off_c, 9, 46, 64
11, 10440, Note_on_c, 9, 46, 65
11, 10560, Note_off_c, 9, 46, 64
11, 10560, Note_on_c, 9, 52, 100
11, 10560, Note_on_c, 9, 36, 100
11, 10680, Note_off_c, 9, 36, 64
11, 10680, Note_off_c, 9, 52, 64
11, 10680, Note_on_c, 9, 46, 65
11, 10800, Note_off_c, 9, 46, 64
11, 10800, Note_on_c, 9, 46, 65
11, 10920, Note_off_c, 9, 46, 64
11, 10920, Note_on_c, 9, 46, 65
11, 11040, Note_off_c, 9, 46, 64
11, 11040, Note_on_c, 9, 49, 100
11, 11040, Note_on_c, 9, 36, 100
11, 11160, Note_off_c, 9, 36, 64
11, 11160, Note_off_c, 9, 49, 64
11, 11160, Note_on_c, 9, 46, 65
11, 11280, Note_off_c, 9, 46, 64
11, 11280, Note_on_c, 9, 46, 65
11, 11400, Note_off_c, 9, 46, 64
11, 11400, Note_on_c, 9, 46, 65
11, 11520, Note_off_c, 9, 46, 64
11, 11520, Note_on_c, 9, 36, 100
11, 11520, Note_on_c, 9, 49, 100
11, 11640, Note_off_c, 9, 49, 64
11, 11640, Note_off_c, 9, 36, 64
11, 11640, Note_on_c, 9, 46, 65
11, 11760, Note_off_c, 9, 46, 64
11, 11760, Note_on_c, 9, 46, 65
11, 11880, Note_off_c, 9, 46, 64
11, 11880, Note_on_c, 9, 46, 65
11, 12000, Note_off_c, 9, 46, 64
11, 12000, Note_on_c, 9, 46, 65
11, 12120, Note_off_c, 9, 46, 64
11, 12120, Note_on_c, 9, 46, 65
11, 12240, Note_off_c, 9, 46, 64
11, 12240, Note_on_c, 9, 40, 100
11, 12360, Note_off_c, 9, 40, 64
11, 12360, Note_on_c, 9, 46, 65
11, 12480, Note_off_c, 9, 46, 64
11, 12480, Note_on_c, 9, 46, 65
11, 12600, Note_off_c, 9, 46, 64
11, 12600, Note_on_c, 9, 46, 65
11, 12720, Note_off_c, 9, 46, 64
11, 12720, Note_on_c, 9, 36, 70
11, 12720, Note_on_c, 9, 46, 65
11, 12840, Note_off_c, 9, 46, 64
11, 12840, Note_off_c, 9, 36, 64
11, 12840, Note_on_c, 9, 36, 100
11, 12840, Note_on_c, 9, 46, 65
11, 12960, Note_off_c, 9, 46, 64
11, 12960, Note_off_c, 9, 36, 64
11, 12960, Note_on_c, 9, 46, 127
11, 12970, Note_on_c, 9, 36, 100
11, 13080, Note_off_c, 9, 46, 127
11, 13080, Note_on_c, 9, 46, 65
11, 13090, Note_off_c, 9, 36, 64
11, 13200, Note_off_c, 9, 46, 64
11, 13200, Note_on_c, 9, 46, 65
11, 13320, Note_off_c, 9, 46, 64
11, 13320, Note_on_c, 9, 46, 65
11, 13440, Note_off_c, 9, 46, 64
11, 13440, Note_on_c, 9, 36, 100
11, 13440, Note_on_c, 9, 46, 65
11, 13560, Note_off_c, 9, 46, 127
11, 13560, Note_on_c, 9, 46, 65
11, 13680, Note_off_c, 9, 46, 64
11, 13680, Note_on_c, 9, 46, 65
11, 13800, Note_off_c, 9, 46, 64
11, 13800, Note_on_c, 9, 46, 65
11, 13920, Note_off_c, 9, 36, 64
11, 13920, Note_off_c, 9, 46, 64
11, 13920, Note_on_c, 9, 40, 100
11, 14040, Note_on_c, 9, 46, 65
11, 14160, Note_off_c, 9, 46, 64
11, 14160, Note_on_c, 9, 46, 65
11, 14280, Note_off_c, 9, 46, 64
11, 14280, Note_on_c, 9, 46, 65
11, 14400, Note_off_c, 9, 40, 64
11, 14400, Note_off_c, 9, 46, 64
11, 14400, Note_on_c, 9, 36, 100
11, 14400, Note_on_c, 9, 46, 65
11, 14520, Note_off_c, 9, 46, 64
11, 14520, Note_on_c, 9, 46, 65
11, 14640, Note_off_c, 9, 46, 64
11, 14640, Note_on_c, 9, 46, 65
11, 14760, Note_off_c, 9, 46, 64
11, 14760, Note_on_c, 9, 46, 65
11, 14880, Note_off_c, 9, 36, 64
11, 14880, Note_off_c, 9, 46, 64
11, 14880, Note_on_c, 9, 40, 100
11, 15000, Note_on_c, 9, 46, 65
11, 15120, Note_off_c, 9, 46, 64
11, 15120, Note_on_c, 9, 46, 65
11, 15240, Note_off_c, 9, 46, 64
11, 15240, Note_on_c, 9, 46, 65
11, 15360, Note_off_c, 9, 40, 64
11, 15360, Note_off_c, 9, 46, 64
11, 15360, Note_on_c, 9, 40, 100
11, 15360, Note_on_c, 9, 36, 100
11, 15480, Note_off_c, 9, 36, 64
11, 15480, Note_off_c, 9, 40, 64
11, 15480, Note_on_c, 9, 36, 100
11, 15600, Note_off_c, 9, 36, 64
11, 15600, Note_on_c, 9, 36, 100
11, 15720, Note_off_c, 9, 36, 64
11, 15720, Note_on_c, 9, 36, 100
11, 15840, Note_off_c, 9, 36, 64
11, 15840, Note_on_c, 9, 36, 100
11, 15960, Note_off_c, 9, 36, 64
11, 15960, Note_on_c, 9, 36, 100
11, 16080, Note_off_c, 9, 36, 64
11, 16080, Note_on_c, 9, 36, 100
11, 16080, Note_on_c, 9, 40, 100
11, 16200, Note_off_c, 9, 40, 64
11, 16200, Note_off_c, 9, 36, 64
11, 16200, Note_on_c, 9, 36, 100
11, 16200, Note_on_c, 9, 40, 100
11, 16320, Note_off_c, 9, 40, 64
11, 16320, Note_off_c, 9, 36, 64
11, 16320, Note_on_c, 9, 36, 100
11, 16440, Note_off_c, 9, 36, 64
11, 16440, Note_on_c, 9, 36, 100
11, 16560, Note_off_c, 9, 36, 64
11, 16560, Note_on_c, 9, 36, 100
11, 16680, Note_off_c, 9, 36, 64
11, 16680, Note_on_c, 9, 36, 100
11, 16800, Note_off_c, 9, 36, 64
11, 16800, Note_on_c, 9, 36, 100
11, 16800, Note_on_c, 9, 40, 100
11, 16920, Note_off_c, 9, 40, 64
11, 16920, Note_off_c, 9, 36, 64
11, 16920, Note_on_c, 9, 36, 100
11, 16920, Note_on_c, 9, 40, 100
11, 17040, Note_off_c, 9, 40, 64
11, 17040, Note_off_c, 9, 36, 64
11, 17040, Note_on_c, 9, 36, 100
11, 17160, Note_off_c, 9, 36, 64
11, 17160, Note_on_c, 9, 36, 100
11, 17280, Note_off_c, 9, 36, 64
11, 17280, Note_on_c, 9, 36, 100
11, 17280, Note_on_c, 9, 40, 100
11, 17400, Note_off_c, 9, 40, 64
11, 17400, Note_off_c, 9, 36, 64
11, 17400, Note_on_c, 9, 36, 100
11, 17400, Note_on_c, 9, 40, 100
11, 17520, Note_off_c, 9, 40, 64
11, 17520, Note_off_c, 9, 36, 64
11, 17520, Note_on_c, 9, 36, 100
11, 17640, Note_off_c, 9, 36, 64
11, 17640, Note_on_c, 9, 36, 100
11, 17760, Note_off_c, 9, 36, 64
11, 17760, Note_on_c, 9, 36, 100
11, 17880, Note_off_c, 9, 36, 64
11, 17880, Note_on_c, 9, 36, 100
11, 18000, Note_off_c, 9, 36, 64
11, 18000, Note_on_c, 9, 36, 100
11, 18000, Note_on_c, 9, 40, 100
11, 18120, Note_off_c, 9, 40, 64
11, 18120, Note_off_c, 9, 36, 64
11, 18120, Note_on_c, 9, 36, 100
11, 18120, Note_on_c, 9, 40, 100
11, 18240, Note_off_c, 9, 40, 64
11, 18240, Note_off_c, 9, 36, 64
11, 18240, Note_on_c, 9, 36, 100
11, 18360, Note_off_c, 9, 36, 64
11, 18360, Note_on_c, 9, 36, 100
11, 18480, Note_off_c, 9, 36, 64
11, 18480, Note_on_c, 9, 36, 100
11, 18600, Note_off_c, 9, 36, 64
11, 18600, Note_on_c, 9, 36, 100
11, 18720, Note_off_c, 9, 36, 64
11, 18720, Note_on_c, 9, 36, 100
11, 18720, Note_on_c, 9, 40, 100
11, 18840, Note_off_c, 9, 40, 64
11, 18840, Note_off_c, 9, 36, 64
11, 18840, Note_on_c, 9, 36, 100
11, 18840, Note_on_c, 9, 40, 100
11, 18960, Note_off_c, 9, 40, 64
11, 18960, Note_off_c, 9, 36, 64
11, 18960, Note_on_c, 9, 36, 100
11, 19080, Note_off_c, 9, 36, 64
11, 19080, Note_on_c, 9, 36, 100
11, 19200, Note_off_c, 9, 36, 64
11, 19200, Note_on_c, 9, 36, 100
11, 19200, Note_on_c, 9, 40, 100
11, 19320, Note_off_c, 9, 40, 64
11, 19320, Note_off_c, 9, 36, 64
11, 19320, Note_on_c, 9, 36, 100
11, 19320, Note_on_c, 9, 40, 100
11, 19440, Note_off_c, 9, 40, 64
11, 19440, Note_off_c, 9, 36, 64
11, 19440, Note_on_c, 9, 36, 100
11, 19560, Note_off_c, 9, 36, 64
11, 19560, Note_on_c, 9, 36, 100
11, 19680, Note_off_c, 9, 36, 64
11, 19680, Note_on_c, 9, 36, 100
11, 19800, Note_off_c, 9, 36, 64
11, 19800, Note_on_c, 9, 36, 100
11, 19920, Note_off_c, 9, 36, 64
11, 19920, Note_on_c, 9, 36, 100
11, 19920, Note_on_c, 9, 40, 100
11, 20040, Note_off_c, 9, 40, 64
11, 20040, Note_off_c, 9, 36, 64
11, 20040, Note_on_c, 9, 36, 100
11, 20040, Note_on_c, 9, 40, 100
11, 20160, Note_off_c, 9, 40, 64
11, 20160, Note_off_c, 9, 36, 64
11, 20160, Note_on_c, 9, 36, 100
11, 20280, Note_off_c, 9, 36, 64
11, 20280, Note_on_c, 9, 36, 100
11, 20400, Note_off_c, 9, 36, 64
11, 20400, Note_on_c, 9, 36, 100
11, 20520, Note_off_c, 9, 36, 64
11, 20520, Note_on_c, 9, 36, 100
11, 20640, Note_off_c, 9, 36, 64
11, 20640, Note_on_c, 9, 36, 100
11, 20640, Note_on_c, 9, 40, 100
11, 20760, Note_off_c, 9, 40, 64
11, 20760, Note_off_c, 9, 36, 64
11, 20760, Note_on_c, 9, 36, 100
11, 20760, Note_on_c, 9, 40, 100
11, 20880, Note_off_c, 9, 40, 64
11, 20880, Note_off_c, 9, 36, 64
11, 20880, Note_on_c, 9, 36, 100
11, 21000, Note_off_c, 9, 36, 64
11, 21000, Note_on_c, 9, 36, 100
11, 21120, Note_off_c, 9, 36, 64
11, 21120, Note_on_c, 9, 36, 100
11, 21120, Note_on_c, 9, 40, 100
11, 21240, Note_off_c, 9, 40, 64
11, 21240, Note_off_c, 9, 36, 64
11, 21240, Note_on_c, 9, 36, 100
11, 21240, Note_on_c, 9, 40, 100
11, 21360, Note_off_c, 9, 40, 64
11, 21360, Note_off_c, 9, 36, 64
11, 21360, Note_on_c, 9, 36, 100
11, 21480, Note_off_c, 9, 36, 64
11, 21480, Note_on_c, 9, 36, 100
11, 21600, Note_off_c, 9, 36, 64
11, 21600, Note_on_c, 9, 36, 100
11, 21600, Note_on_c, 9, 50, 100
11, 21720, Note_off_c, 9, 50, 64
11, 21720, Note_off_c, 9, 36, 64
11, 21720, Note_on_c, 9, 36, 100
11, 21720, Note_on_c, 9, 50, 100
11, 21840, Note_off_c, 9, 50, 64
11, 21840, Note_off_c, 9, 36, 64
11, 21840, Note_on_c, 9, 36, 100
11, 21960, Note_off_c, 9, 36, 64
11, 21960, Note_on_c, 9, 36, 100
11, 22080, Note_off_c, 9, 36, 64
11, 22080, Note_on_c, 9, 36, 100
11, 22080, Note_on_c, 9, 48, 100
11, 22200, Note_off_c, 9, 48, 64
11, 22200, Note_off_c, 9, 36, 64
11, 22200, Note_on_c, 9, 36, 100
11, 22200, Note_on_c, 9, 48, 100
11, 22320, Note_off_c, 9, 48, 64
11, 22320, Note_off_c, 9, 36, 64
11, 22320, Note_on_c, 9, 36, 100
11, 22440, Note_off_c, 9, 36, 64
11, 22440, Note_on_c, 9, 36, 100
11, 22560, Note_off_c, 9, 36, 64
11, 22560, Note_on_c, 9, 36, 100
11, 22560, Note_on_c, 9, 47, 100
11, 22680, Note_off_c, 9, 47, 64
11, 22680, Note_off_c, 9, 36, 64
11, 22680, Note_on_c, 9, 36, 100
11, 22680, Note_on_c, 9, 47, 100
11, 22800, Note_off_c, 9, 47, 64
11, 22800, Note_off_c, 9, 36, 64
11, 22800, Note_on_c, 9, 36, 100
11, 22920, Note_off_c, 9, 36, 64
11, 22920, Note_on_c, 9, 36, 100
11, 23040, Note_off_c, 9, 36, 64
11, 23040, Note_on_c, 9, 36, 100
11, 23040, Note_on_c, 9, 49, 100
11, 23040, Note_on_c, 9, 40, 100
11, 23160, Note_off_c, 9, 36, 64
11, 23160, Note_on_c, 9, 36, 100
11, 23280, Note_off_c, 9, 36, 64
11, 23280, Note_on_c, 9, 36, 100
11, 23400, Note_off_c, 9, 36, 64
11, 23400, Note_on_c, 9, 36, 100
11, 23520, Note_off_c, 9, 49, 64
11, 23520, Note_off_c, 9, 40, 64
11, 23520, Note_off_c, 9, 36, 64
11, 23520, Note_on_c, 9, 36, 100
11, 23640, Note_off_c, 9, 36, 64
11, 23640, Note_on_c, 9, 36, 100
11, 23760, Note_off_c, 9, 36, 64
11, 23760, Note_on_c, 9, 36, 100
11, 23760, Note_on_c, 9, 40, 100
11, 23880, Note_off_c, 9, 40, 64
11, 23880, Note_off_c, 9, 36, 64
11, 23880, Note_on_c, 9, 36, 100
11, 23880, Note_on_c, 9, 40, 100
11, 24000, Note_off_c, 9, 40, 64
11, 24000, Note_off_c, 9, 36, 64
11, 24000, Note_on_c, 9, 36, 100
11, 24120, Note_off_c, 9, 36, 64
11, 24120, Note_on_c, 9, 36, 100
11, 24240, Note_off_c, 9, 36, 64
11, 24240, Note_on_c, 9, 36, 100
11, 24360, Note_off_c, 9, 36, 64
11, 24360, Note_on_c, 9, 36, 100
11, 24480, Note_off_c, 9, 36, 64
11, 24480, Note_on_c, 9, 36, 100
11, 24480, Note_on_c, 9, 40, 100
11, 24600, Note_off_c, 9, 40, 64
11, 24600, Note_off_c, 9, 36, 64
11, 24600, Note_on_c, 9, 36, 100
11, 24600, Note_on_c, 9, 40, 100
11, 24720, Note_off_c, 9, 40, 64
11, 24720, Note_off_c, 9, 36, 64
11, 24720, Note_on_c, 9, 36, 100
11, 24840, Note_off_c, 9, 36, 64
11, 24840, Note_on_c, 9, 36, 100
11, 24960, Note_off_c, 9, 36, 64
11, 24960, Note_on_c, 9, 36, 100
11, 24960, Note_on_c, 9, 40, 100
11, 25080, Note_off_c, 9, 40, 64
11, 25080, Note_off_c, 9, 36, 64
11, 25080, Note_on_c, 9, 36, 100
11, 25080, Note_on_c, 9, 40, 100
11, 25200, Note_off_c, 9, 40, 64
11, 25200, Note_off_c, 9, 36, 64
11, 25200, Note_on_c, 9, 36, 100
11, 25320, Note_off_c, 9, 36, 64
11, 25320, Note_on_c, 9, 36, 100
11, 25440, Note_off_c, 9, 36, 64
11, 25440, Note_on_c, 9, 36, 100
11, 25560, Note_off_c, 9, 36, 64
11, 25560, Note_on_c, 9, 36, 100
11, 25680, Note_off_c, 9, 36, 64
11, 25680, Note_on_c, 9, 36, 100
11, 25680, Note_on_c, 9, 40, 100
11, 25800, Note_off_c, 9, 40, 64
11, 25800, Note_off_c, 9, 36, 64
11, 25800, Note_on_c, 9, 36, 100
11, 25800, Note_on_c, 9, 40, 100
11, 25920, Note_off_c, 9, 40, 64
11, 25920, Note_off_c, 9, 36, 64
11, 25920, Note_on_c, 9, 36, 100
11, 26040, Note_off_c, 9, 36, 64
11, 26040, Note_on_c, 9, 36, 100
11, 26160, Note_off_c, 9, 36, 64
11, 26160, Note_on_c, 9, 36, 100
11, 26280, Note_off_c, 9, 36, 64
11, 26280, Note_on_c, 9, 36, 100
11, 26400, Note_off_c, 9, 36, 64
11, 26400, Note_on_c, 9, 36, 100
11, 26400, Note_on_c, 9, 40, 100
11, 26520, Note_off_c, 9, 40, 64
11, 26520, Note_off_c, 9, 36, 64
11, 26520, Note_on_c, 9, 36, 100
11, 26520, Note_on_c, 9, 40, 100
11, 26640, Note_off_c, 9, 40, 64
11, 26640, Note_off_c, 9, 36, 64
11, 26640, Note_on_c, 9, 36, 100
11, 26760, Note_off_c, 9, 36, 64
11, 26760, Note_on_c, 9, 36, 100
11, 26880, Note_off_c, 9, 36, 64
11, 26880, Note_on_c, 9, 36, 100
11, 26880, Note_on_c, 9, 40, 100
11, 27000, Note_off_c, 9, 40, 64
11, 27000, Note_off_c, 9, 36, 64
11, 27000, Note_on_c, 9, 36, 100
11, 27000, Note_on_c, 9, 40, 100
11, 27120, Note_off_c, 9, 40, 64
11, 27120, Note_off_c, 9, 36, 64
11, 27120, Note_on_c, 9, 36, 100
11, 27240, Note_off_c, 9, 36, 64
11, 27240, Note_on_c, 9, 36, 100
11, 27360, Note_off_c, 9, 36, 64
11, 27360, Note_on_c, 9, 36, 100
11, 27480, Note_off_c, 9, 36, 64
11, 27480, Note_on_c, 9, 36, 100
11, 27600, Note_off_c, 9, 36, 64
11, 27600, Note_on_c, 9, 36, 100
11, 27600, Note_on_c, 9, 40, 100
11, 27720, Note_off_c, 9, 40, 64
11, 27720, Note_off_c, 9, 36, 64
11, 27720, Note_on_c, 9, 36, 100
11, 27720, Note_on_c, 9, 40, 100
11, 27840, Note_off_c, 9, 40, 64
11, 27840, Note_off_c, 9, 36, 64
11, 27840, Note_on_c, 9, 36, 100
11, 27960, Note_off_c, 9, 36, 64
11, 27960, Note_on_c, 9, 36, 100
11, 28080, Note_off_c, 9, 36, 64
11, 28080, Note_on_c, 9, 36, 100
11, 28200, Note_off_c, 9, 36, 64
11, 28200, Note_on_c, 9, 36, 100
11, 28320, Note_off_c, 9, 36, 64
11, 28320, Note_on_c, 9, 36, 100
11, 28320, Note_on_c, 9, 40, 100
11, 28440, Note_off_c, 9, 40, 64
11, 28440, Note_off_c, 9, 36, 64
11, 28440, Note_on_c, 9, 36, 100
11, 28440, Note_on_c, 9, 40, 100
11, 28560, Note_off_c, 9, 40, 64
11, 28560, Note_off_c, 9, 36, 64
11, 28560, Note_on_c, 9, 36, 100
11, 28680, Note_off_c, 9, 36, 64
11, 28680, Note_on_c, 9, 36, 100
11, 28800, Note_off_c, 9, 36, 64
11, 28800, Note_on_c, 9, 36, 100
11, 28800, Note_on_c, 9, 40, 100
11, 28920, Note_off_c, 9, 40, 64
11, 28920, Note_off_c, 9, 36, 64
11, 28920, Note_on_c, 9, 36, 100
11, 28920, Note_on_c, 9, 40, 100
11, 29040, Note_off_c, 9, 40, 64
11, 29040, Note_off_c, 9, 36, 64
11, 29040, Note_on_c, 9, 36, 100
11, 29160, Note_off_c, 9, 36, 64
11, 29160, Note_on_c, 9, 36, 100
11, 29280, Note_off_c, 9, 36, 64
11, 29280, Note_on_c, 9, 36, 100
11, 29280, Note_on_c, 9, 50, 100
11, 29400, Note_off_c, 9, 50, 64
11, 29400, Note_off_c, 9, 36, 64
11, 29400, Note_on_c, 9, 36, 100
11, 29400, Note_on_c, 9, 50, 100
11, 29520, Note_off_c, 9, 50, 64
11, 29520, Note_off_c, 9, 36, 64
11, 29520, Note_on_c, 9, 36, 100
11, 29640, Note_off_c, 9, 36, 64
11, 29640, Note_on_c, 9, 36, 100
11, 29760, Note_off_c, 9, 36, 64
11, 29760, Note_on_c, 9, 36, 100
11, 29760, Note_on_c, 9, 48, 100
11, 29880, Note_off_c, 9, 48, 64
11, 29880, Note_off_c, 9, 36, 64
11, 29880, Note_on_c, 9, 36, 100
11, 29880, Note_on_c, 9, 48, 100
11, 30000, Note_off_c, 9, 48, 64
11, 30000, Note_off_c, 9, 36, 64
11, 30000, Note_on_c, 9, 36, 100
11, 30120, Note_off_c, 9, 36, 64
11, 30120, Note_on_c, 9, 36, 100
11, 30240, Note_off_c, 9, 36, 64
11, 30240, Note_on_c, 9, 36, 100
11, 30240, Note_on_c, 9, 47, 100
11, 30360, Note_off_c, 9, 36, 64
11, 30480, Note_on_c, 9, 36, 100
11, 30480, Note_on_c, 9, 49, 100
11, 30486, Note_off_c, 9, 47, 64
11, 30720, Note_off_c, 9, 36, 64
11, 30720, Note_off_c, 9, 49, 64
11, 30720, Note_on_c, 9, 36, 100
11, 30720, Note_on_c, 9, 49, 100
11, 31200, Note_off_c, 9, 49, 64
11, 31200, Note_off_c, 9, 36, 64
11, 31200, Note_on_c, 9, 40, 100
11, 31200, Note_on_c, 9, 46, 100
11, 31680, Note_off_c, 9, 46, 64
11, 31680, Note_off_c, 9, 40, 64
11, 31680, Note_on_c, 9, 46, 100
11, 31920, Note_on_c, 9, 36, 100
11, 32160, Note_off_c, 9, 36, 64
11, 32160, Note_off_c, 9, 46, 64
11, 32160, Note_on_c, 9, 40, 100
11, 32160, Note_on_c, 9, 46, 100
11, 32393, Note_off_c, 9, 40, 64
11, 32400, Note_on_c, 9, 36, 100
11, 32640, Note_off_c, 9, 46, 64
11, 32640, Note_off_c, 9, 36, 64
11, 32640, Note_on_c, 9, 46, 100
11, 32880, Note_on_c, 9, 36, 100
11, 33120, Note_off_c, 9, 36, 64
11, 33120, Note_off_c, 9, 46, 64
11, 33120, Note_on_c, 9, 46, 100
11, 33120, Note_on_c, 9, 40, 100
11, 33360, Note_off_c, 9, 40, 64
11, 33360, Note_on_c, 9, 36, 100
11, 33600, Note_off_c, 9, 46, 64
11, 33600, Note_off_c, 9, 36, 64
11, 33600, Note_on_c, 9, 46, 100
11, 33840, Note_on_c, 9, 36, 100
11, 34080, Note_off_c, 9, 36, 64
11, 34080, Note_off_c, 9, 46, 64
11, 34080, Note_on_c, 9, 46, 100
11, 34080, Note_on_c, 9, 40, 100
11, 34320, Note_off_c, 9, 40, 64
11, 34440, Note_on_c, 9, 40, 100
11, 34560, Note_off_c, 9, 46, 64
11, 34560, Note_on_c, 9, 36, 100
11, 34560, Note_on_c, 9, 46, 100
11, 34570, Note_off_c, 9, 40, 64
11, 34800, Note_off_c, 9, 36, 64
11, 34800, Note_on_c, 9, 36, 100
11, 35040, Note_off_c, 9, 46, 64
11, 35040, Note_on_c, 9, 40, 100
11, 35040, Note_on_c, 9, 46, 100
11, 35047, Note_off_c, 9, 36, 64
11, 35280, Note_off_c, 9, 40, 64
11, 35520, Note_off_c, 9, 46, 64
11, 35520, Note_on_c, 9, 36, 100
11, 35520, Note_on_c, 9, 46, 100
11, 35753, Note_off_c, 9, 46, 64
11, 35760, Note_off_c, 9, 36, 64
11, 35760, Note_on_c, 9, 36, 100
11, 35760, Note_on_c, 9, 46, 100
11, 36000, Note_off_c, 9, 46, 64
11, 36000, Note_off_c, 9, 36, 64
11, 36000, Note_on_c, 9, 46, 100
11, 36000, Note_on_c, 9, 40, 100
11, 36240, Note_off_c, 9, 40, 64
11, 36240, Note_off_c, 9, 46, 64
11, 36240, Note_on_c, 9, 36, 100
11, 36240, Note_on_c, 9, 49, 100
11, 36480, Note_on_c, 9, 46, 100
11, 36487, Note_off_c, 9, 49, 64
11, 36720, Note_off_c, 9, 36, 64
11, 36720, Note_off_c, 9, 46, 64
11, 36720, Note_on_c, 9, 36, 100
11, 36960, Note_off_c, 9, 36, 64
11, 36960, Note_on_c, 9, 40, 100
11, 36960, Note_on_c, 9, 46, 100
11, 37200, Note_off_c, 9, 46, 64
11, 37200, Note_off_c, 9, 40, 64
11, 37200, Note_on_c, 9, 40, 100
11, 37320, Note_off_c, 9, 40, 64
11, 37320, Note_on_c, 9, 40, 100
11, 37440, Note_off_c, 9, 40, 64
11, 37440, Note_on_c, 9, 40, 100
11, 37560, Note_off_c, 9, 40, 64
11, 37560, Note_on_c, 9, 40, 100
11, 37680, Note_off_c, 9, 40, 64
11, 37680, Note_on_c, 9, 50, 100
11, 37800, Note_off_c, 9, 50, 64
11, 37800, Note_on_c, 9, 50, 100
11, 37920, Note_off_c, 9, 50, 64
11, 37920, Note_on_c, 9, 50, 100
11, 38040, Note_off_c, 9, 50, 64
11, 38040, Note_on_c, 9, 50, 100
11, 38160, Note_off_c, 9, 50, 64
11, 38160, Note_on_c, 9, 48, 100
11, 38280, Note_off_c, 9, 48, 64
11, 38280, Note_on_c, 9, 48, 100
11, 38400, Note_off_c, 9, 48, 64
11, 38400, Note_on_c, 9, 49, 100
11, 38400, Note_on_c, 9, 36, 100
11, 38880, Note_off_c, 9, 36, 64
11, 38880, Note_off_c, 9, 49, 64
11, 38880, Note_on_c, 9, 40, 100
11, 38880, Note_on_c, 9, 46, 100
11, 39360, Note_off_c, 9, 46, 64
11, 39360, Note_off_c, 9, 40, 64
11, 39360, Note_on_c, 9, 46, 100
11, 39600, Note_on_c, 9, 36, 100
11, 39840, Note_off_c, 9, 36, 64
11, 39840, Note_off_c, 9, 46, 64
11, 39840, Note_on_c, 9, 40, 100
11, 39840, Note_on_c, 9, 46, 100
11, 40073, Note_off_c, 9, 40, 64
11, 40080, Note_on_c, 9, 36, 100
11, 40320, Note_off_c, 9, 46, 64
11, 40320, Note_off_c, 9, 36, 64
11, 40320, Note_on_c, 9, 46, 100
11, 40560, Note_on_c, 9, 36, 100
11, 40800, Note_off_c, 9, 36, 64
11, 40800, Note_off_c, 9, 46, 64
11, 40800, Note_on_c, 9, 46, 100
11, 40800, Note_on_c, 9, 40, 100
11, 41040, Note_off_c, 9, 40, 64
11, 41040, Note_on_c, 9, 36, 100
11, 41280, Note_off_c, 9, 46, 64
11, 41280, Note_off_c, 9, 36, 64
11, 41280, Note_on_c, 9, 46, 100
11, 41520, Note_on_c, 9, 36, 100
11, 41760, Note_off_c, 9, 36, 64
11, 41760, Note_off_c, 9, 46, 64
11, 41760, Note_on_c, 9, 46, 100
11, 41760, Note_on_c, 9, 40, 100
11, 42000, Note_off_c, 9, 40, 64
11, 42120, Note_on_c, 9, 40, 100
11, 42240, Note_off_c, 9, 46, 64
11, 42240, Note_on_c, 9, 36, 100
11, 42240, Note_on_c, 9, 46, 100
11, 42250, Note_off_c, 9, 40, 64
11, 42480, Note_off_c, 9, 36, 64
11, 42480, Note_on_c, 9, 36, 100
11, 42720, Note_off_c, 9, 46, 64
11, 42720, Note_on_c, 9, 40, 100
11, 42720, Note_on_c, 9, 46, 100
11, 42727, Note_off_c, 9, 36, 64
11, 42960, Note_off_c, 9, 40, 64
11, 43200, Note_off_c, 9, 46, 64
11, 43200, Note_on_c, 9, 36, 100
11, 43200, Note_on_c, 9, 46, 100
11, 43433, Note_off_c, 9, 46, 64
11, 43440, Note_off_c, 9, 36, 64
11, 43440, Note_on_c, 9, 36, 100
11, 43440, Note_on_c, 9, 46, 100
11, 43680, Note_off_c, 9, 46, 64
11, 43680, Note_off_c, 9, 36, 64
11, 43680, Note_on_c, 9, 46, 100
11, 43680, Note_on_c, 9, 40, 100
11, 43920, Note_off_c, 9, 40, 64
11, 43920, Note_off_c, 9, 46, 64
11, 43920, Note_on_c, 9, 49, 100
11, 43920, Note_on_c, 9, 36, 100
11, 44160, Note_off_c, 9, 36, 64
11, 44160, Note_off_c, 9, 49, 64
11, 44160, Note_on_c, 9, 46, 100
11, 44280, Note_off_c, 9, 46, 64
11, 44280, Note_on_c, 9, 42, 100
11, 44400, Note_off_c, 9, 42, 64
11, 44400, Note_on_c, 9, 40, 100
11, 44520, Note_off_c, 9, 40, 64
11, 44520, Note_on_c, 9, 40, 100
11, 44640, Note_off_c, 9, 40, 64
11, 44640, Note_on_c, 9, 40, 100
11, 44760, Note_off_c, 9, 40, 64
11, 44760, Note_on_c, 9, 40, 100
11, 44880, Note_off_c, 9, 40, 64
11, 44880, Note_on_c, 9, 36, 100
11, 45000, Note_off_c, 9, 36, 64
11, 45000, Note_on_c, 9, 36, 100
11, 45120, Note_off_c, 9, 36, 64
11, 45120, Note_on_c, 9, 40, 100
11, 45240, Note_off_c, 9, 40, 64
11, 45240, Note_on_c, 9, 40, 100
11, 45360, Note_off_c, 9, 40, 64
11, 45360, Note_on_c, 9, 40, 100
11, 45480, Note_off_c, 9, 40, 64
11, 45480, Note_on_c, 9, 40, 100
11, 45600, Note_off_c, 9, 40, 64
11, 45600, Note_on_c, 9, 40, 100
11, 45840, Note_off_c, 9, 40, 64
11, 45840, Note_on_c, 9, 49, 100
11, 45840, Note_on_c, 9, 36, 100
11, 46080, Note_off_c, 9, 36, 64
11, 46080, Note_off_c, 9, 49, 64
11, 46080, Note_on_c, 9, 49, 100
11, 46080, Note_on_c, 9, 36, 100
11, 46560, Note_off_c, 9, 36, 64
11, 46560, Note_off_c, 9, 49, 64
11, 46560, Note_on_c, 9, 40, 100
11, 46560, Note_on_c, 9, 46, 100
11, 47040, Note_off_c, 9, 46, 64
11, 47040, Note_off_c, 9, 40, 64
11, 47040, Note_on_c, 9, 46, 100
11, 47280, Note_on_c, 9, 36, 100
11, 47520, Note_off_c, 9, 36, 64
11, 47520, Note_off_c, 9, 46, 64
11, 47520, Note_on_c, 9, 40, 100
11, 47520, Note_on_c, 9, 46, 100
11, 47753, Note_off_c, 9, 40, 64
11, 47760, Note_on_c, 9, 36, 100
11, 48000, Note_off_c, 9, 46, 64
11, 48000, Note_off_c, 9, 36, 64
11, 48000, Note_on_c, 9, 46, 100
11, 48240, Note_on_c, 9, 36, 100
11, 48480, Note_off_c, 9, 36, 64
11, 48480, Note_off_c, 9, 46, 64
11, 48480, Note_on_c, 9, 46, 100
11, 48480, Note_on_c, 9, 40, 100
11, 48720, Note_off_c, 9, 40, 64
11, 48720, Note_on_c, 9, 36, 100
11, 48960, Note_off_c, 9, 46, 64
11, 48960, Note_off_c, 9, 36, 64
11, 48960, Note_on_c, 9, 46, 100
11, 49200, Note_on_c, 9, 36, 100
11, 49440, Note_off_c, 9, 36, 64
11, 49440, Note_off_c, 9, 46, 64
11, 49440, Note_on_c, 9, 46, 100
11, 49440, Note_on_c, 9, 40, 100
11, 49680, Note_off_c, 9, 40, 64
11, 49800, Note_on_c, 9, 40, 100
11, 49920, Note_off_c, 9, 46, 64
11, 49920, Note_on_c, 9, 36, 100
11, 49920, Note_on_c, 9, 46, 100
11, 49930, Note_off_c, 9, 40, 64
11, 50160, Note_off_c, 9, 36, 64
11, 50160, Note_on_c, 9, 36, 100
11, 50400, Note_off_c, 9, 46, 64
11, 50400, Note_on_c, 9, 40, 100
11, 50400, Note_on_c, 9, 46, 100
11, 50407, Note_off_c, 9, 36, 64
11, 50640, Note_off_c, 9, 40, 64
11, 50880, Note_off_c, 9, 46, 64
11, 50880, Note_on_c, 9, 36, 100
11, 50880, Note_on_c, 9, 46, 100
11, 51113, Note_off_c, 9, 46, 64
11, 51120, Note_off_c, 9, 36, 64
11, 51120, Note_on_c, 9, 36, 100
11, 51120, Note_on_c, 9, 46, 100
11, 51360, Note_off_c, 9, 46, 64
11, 51360, Note_off_c, 9, 36, 64
11, 51360, Note_on_c, 9, 46, 100
11, 51360, Note_on_c, 9, 40, 100
11, 51600, Note_off_c, 9, 40, 64
11, 51600, Note_off_c, 9, 46, 64
11, 51600, Note_on_c, 9, 36, 100
11, 51600, Note_on_c, 9, 49, 100
11, 51840, Note_on_c, 9, 46, 100
11, 51847, Note_off_c, 9, 49, 64
11, 52080, Note_off_c, 9, 36, 64
11, 52080, Note_on_c, 9, 36, 100
11, 52320, Note_off_c, 9, 46, 64
11, 52320, Note_off_c, 9, 36, 64
11, 52320, Note_on_c, 9, 40, 100
11, 52320, Note_on_c, 9, 46, 100
11, 52560, Note_off_c, 9, 46, 64
11, 52560, Note_off_c, 9, 40, 64
11, 52680, Note_on_c, 9, 40, 100
11, 52800, Note_off_c, 9, 40, 64
11, 52800, Note_on_c, 9, 40, 100
11, 52920, Note_off_c, 9, 40, 64
11, 53040, Note_on_c, 9, 40, 100
11, 53280, Note_off_c, 9, 40, 64
11, 53280, Note_on_c, 9, 40, 100
11, 53520, Note_off_c, 9, 40, 64
11, 53520, Note_on_c, 9, 40, 100
11, 53760, Note_off_c, 9, 40, 64
11, 53760, Note_on_c, 9, 36, 100
11, 53760, Note_on_c, 9, 57, 100
11, 53993, Note_off_c, 9, 57, 64
11, 53993, Note_off_c, 9, 36, 64
11, 54000, Note_on_c, 9, 36, 100
11, 54000, Note_on_c, 9, 49, 100
11, 54240, Note_off_c, 9, 49, 64
11, 54240, Note_off_c, 9, 36, 64
11, 54240, Note_on_c, 9, 40, 100
11, 54240, Note_on_c, 9, 57, 100
11, 54720, Note_off_c, 9, 57, 64
11, 54720, Note_off_c, 9, 40, 64
11, 54720, Note_on_c, 9, 46, 100
11, 54960, Note_on_c, 9, 36, 100
11, 55200, Note_off_c, 9, 36, 64
11, 55200, Note_off_c, 9, 46, 64
11, 55200, Note_on_c, 9, 40, 100
11, 55200, Note_on_c, 9, 46, 100
11, 55433, Note_off_c, 9, 40, 64
11, 55440, Note_on_c, 9, 36, 100
11, 55680, Note_off_c, 9, 46, 64
11, 55680, Note_off_c, 9, 36, 64
11, 55680, Note_on_c, 9, 46, 100
11, 55920, Note_on_c, 9, 36, 100
11, 56160, Note_off_c, 9, 36, 64
11, 56160, Note_off_c, 9, 46, 64
11, 56160, Note_on_c, 9, 46, 100
11, 56160, Note_on_c, 9, 40, 100
11, 56400, Note_off_c, 9, 40, 64
11, 56400, Note_on_c, 9, 36, 100
11, 56640, Note_off_c, 9, 46, 64
11, 56640, Note_off_c, 9, 36, 64
11, 56640, Note_on_c, 9, 46, 100
11, 56880, Note_on_c, 9, 36, 100
11, 57120, Note_off_c, 9, 36, 64
11, 57120, Note_off_c, 9, 46, 64
11, 57120, Note_on_c, 9, 46, 100
11, 57120, Note_on_c, 9, 40, 100
11, 57360, Note_off_c, 9, 40, 64
11, 57480, Note_on_c, 9, 40, 100
11, 57600, Note_off_c, 9, 46, 64
11, 57600, Note_on_c, 9, 36, 100
11, 57600, Note_on_c, 9, 46, 100
11, 57610, Note_off_c, 9, 40, 64
11, 57840, Note_off_c, 9, 36, 64
11, 57840, Note_on_c, 9, 36, 100
11, 58080, Note_off_c, 9, 46, 64
11, 58080, Note_on_c, 9, 40, 100
11, 58080, Note_on_c, 9, 46, 100
11, 58087, Note_off_c, 9, 36, 64
11, 58320, Note_off_c, 9, 40, 64
11, 58560, Note_off_c, 9, 46, 64
11, 58560, Note_on_c, 9, 36, 100
11, 58560, Note_on_c, 9, 46, 100
11, 58793, Note_off_c, 9, 46, 64
11, 58800, Note_off_c, 9, 36, 64
11, 58800, Note_on_c, 9, 36, 100
11, 58800, Note_on_c, 9, 46, 100
11, 59040, Note_off_c, 9, 46, 64
11, 59040, Note_off_c, 9, 36, 64
11, 59040, Note_on_c, 9, 46, 100
11, 59040, Note_on_c, 9, 40, 100
11, 59280, Note_off_c, 9, 40, 64
11, 59280, Note_off_c, 9, 46, 64
11, 59280, Note_on_c, 9, 36, 100
11, 59280, Note_on_c, 9, 49, 100
11, 59520, Note_on_c, 9, 46, 100
11, 59527, Note_off_c, 9, 49, 64
11, 59760, Note_off_c, 9, 36, 64
11, 59760, Note_on_c, 9, 36, 100
11, 60000, Note_off_c, 9, 46, 64
11, 60000, Note_off_c, 9, 36, 64
11, 60000, Note_on_c, 9, 40, 100
11, 60000, Note_on_c, 9, 46, 100
11, 60240, Note_off_c, 9, 46, 64
11, 60240, Note_off_c, 9, 40, 64
11, 60240, Note_on_c, 9, 40, 100
11, 60360, Note_off_c, 9, 40, 64
11, 60360, Note_on_c, 9, 40, 100
11, 60480, Note_off_c, 9, 40, 64
11, 60480, Note_on_c, 9, 50, 100
11, 60600, Note_off_c, 9, 50, 64
11, 60600, Note_on_c, 9, 50, 100
11, 60720, Note_off_c, 9, 50, 64
11, 60720, Note_on_c, 9, 48, 100
11, 60840, Note_off_c, 9, 48, 64
11, 60840, Note_on_c, 9, 48, 100
11, 60960, Note_off_c, 9, 48, 64
11, 60960, Note_on_c, 9, 47, 100
11, 61080, Note_off_c, 9, 47, 64
11, 61080, Note_on_c, 9, 47, 100
11, 61200, Note_off_c, 9, 47, 64
11, 61200, Note_on_c, 9, 45, 100
11, 61320, Note_off_c, 9, 45, 64
11, 61320, Note_on_c, 9, 45, 100
11, 61440, Note_off_c, 9, 45, 64
11, 61440, Note_on_c, 9, 36, 100
11, 61440, Note_on_c, 9, 49, 100
11, 61920, Note_off_c, 9, 49, 64
11, 61920, Note_off_c, 9, 36, 64
11, 61920, Note_on_c, 9, 40, 100
11, 61920, Note_on_c, 9, 53, 100
11, 62400, Note_off_c, 9, 53, 64
11, 62400, Note_off_c, 9, 40, 64
11, 62400, Note_on_c, 9, 53, 100
11, 62640, Note_on_c, 9, 36, 100
11, 62880, Note_off_c, 9, 36, 64
11, 62880, Note_off_c, 9, 53, 64
11, 62880, Note_on_c, 9, 40, 100
11, 62880, Note_on_c, 9, 53, 100
11, 63113, Note_off_c, 9, 40, 64
11, 63120, Note_on_c, 9, 36, 100
11, 63360, Note_off_c, 9, 53, 64
11, 63360, Note_off_c, 9, 36, 64
11, 63360, Note_on_c, 9, 53, 100
11, 63600, Note_on_c, 9, 36, 100
11, 63840, Note_off_c, 9, 36, 64
11, 63840, Note_off_c, 9, 53, 64
11, 63840, Note_on_c, 9, 40, 100
11, 63840, Note_on_c, 9, 53, 100
11, 64080, Note_off_c, 9, 40, 64
11, 64080, Note_on_c, 9, 36, 100
11, 64320, Note_off_c, 9, 53, 64
11, 64320, Note_off_c, 9, 36, 64
11, 64320, Note_on_c, 9, 53, 100
11, 64560, Note_on_c, 9, 36, 100
11, 64800, Note_off_c, 9, 36, 64
11, 64800, Note_off_c, 9, 53, 64
11, 64800, Note_on_c, 9, 40, 100
11, 64800, Note_on_c, 9, 53, 100
11, 65040, Note_off_c, 9, 40, 64
11, 65160, Note_on_c, 9, 40, 100
11, 65280, Note_off_c, 9, 53, 64
11, 65280, Note_on_c, 9, 36, 100
11, 65280, Note_on_c, 9, 53, 100
11, 65290, Note_off_c, 9, 40, 64
11, 65520, Note_off_c, 9, 36, 64
11, 65520, Note_on_c, 9, 36, 100
11, 65760, Note_off_c, 9, 53, 64
11, 65760, Note_on_c, 9, 40, 100
11, 65760, Note_on_c, 9, 53, 100
11, 65767, Note_off_c, 9, 36, 64
11, 66000, Note_off_c, 9, 40, 64
11, 66240, Note_off_c, 9, 53, 64
11, 66240, Note_on_c, 9, 36, 100
11, 66240, Note_on_c, 9, 53, 100
11, 66473, Note_off_c, 9, 53, 64
11, 66480, Note_off_c, 9, 36, 64
11, 66480, Note_on_c, 9, 36, 100
11, 66480, Note_on_c, 9, 53, 100
11, 66720, Note_off_c, 9, 53, 64
11, 66720, Note_off_c, 9, 36, 64
11, 66720, Note_on_c, 9, 40, 100
11, 66720, Note_on_c, 9, 53, 100
11, 66960, Note_off_c, 9, 53, 64
11, 66960, Note_off_c, 9, 40, 64
11, 66960, Note_on_c, 9, 36, 100
11, 66960, Note_on_c, 9, 49, 100
11, 67200, Note_on_c, 9, 53, 100
11, 67207, Note_off_c, 9, 49, 64
11, 67440, Note_off_c, 9, 36, 64
11, 67440, Note_on_c, 9, 36, 100
11, 67680, Note_off_c, 9, 53, 64
11, 67680, Note_off_c, 9, 36, 64
11, 67680, Note_on_c, 9, 40, 100
11, 67920, Note_off_c, 9, 40, 64
11, 68040, Note_on_c, 9, 40, 100
11, 68160, Note_off_c, 9, 40, 64
11, 68160, Note_on_c, 9, 40, 100
11, 68280, Note_off_c, 9, 40, 64
11, 68400, Note_on_c, 9, 40, 100
11, 68640, Note_off_c, 9, 40, 64
11, 68640, Note_on_c, 9, 40, 100
11, 68880, Note_off_c, 9, 40, 64
11, 68880, Note_on_c, 9, 40, 100
11, 69120, Note_off_c, 9, 40, 64
11, 69120, Note_on_c, 9, 36, 100
11, 69120, Note_on_c, 9, 49, 100
11, 69353, Note_off_c, 9, 49, 64
11, 69353, Note_off_c, 9, 36, 64
11, 69360, Note_on_c, 9, 36, 100
11, 69360, Note_on_c, 9, 57, 100
11, 69600, Note_off_c, 9, 57, 64
11, 69600, Note_off_c, 9, 36, 64
11, 69600, Note_on_c, 9, 40, 100
11, 69600, Note_on_c, 9, 49, 100
11, 70080, Note_off_c, 9, 49, 64
11, 70080, Note_off_c, 9, 40, 64
11, 70080, Note_on_c, 9, 53, 100
11, 70320, Note_on_c, 9, 36, 100
11, 70560, Note_off_c, 9, 36, 64
11, 70560, Note_off_c, 9, 53, 64
11, 70560, Note_on_c, 9, 40, 100
11, 70560, Note_on_c, 9, 53, 100
11, 70793, Note_off_c, 9, 40, 64
11, 70800, Note_on_c, 9, 36, 100
11, 71040, Note_off_c, 9, 53, 64
11, 71040, Note_off_c, 9, 36, 64
11, 71040, Note_on_c, 9, 53, 100
11, 71280, Note_on_c, 9, 36, 100
11, 71520, Note_off_c, 9, 36, 64
11, 71520, Note_off_c, 9, 53, 64
11, 71520, Note_on_c, 9, 40, 100
11, 71520, Note_on_c, 9, 53, 100
11, 71760, Note_off_c, 9, 40, 64
11, 71760, Note_on_c, 9, 36, 100
11, 72000, Note_off_c, 9, 53, 64
11, 72000, Note_off_c, 9, 36, 64
11, 72000, Note_on_c, 9, 53, 100
11, 72240, Note_on_c, 9, 36, 100
11, 72480, Note_off_c, 9, 36, 64
11, 72480, Note_off_c, 9, 53, 64
11, 72480, Note_on_c, 9, 40, 100
11, 72480, Note_on_c, 9, 53, 100
11, 72720, Note_off_c, 9, 40, 64
11, 72840, Note_on_c, 9, 40, 100
11, 72960, Note_off_c, 9, 53, 64
11, 72960, Note_on_c, 9, 36, 100
11, 72960, Note_on_c, 9, 53, 100
11, 72970, Note_off_c, 9, 40, 64
11, 73200, Note_off_c, 9, 36, 64
11, 73200, Note_on_c, 9, 36, 100
11, 73440, Note_off_c, 9, 53, 64
11, 73440, Note_on_c, 9, 40, 100
11, 73440, Note_on_c, 9, 53, 100
11, 73447, Note_off_c, 9, 36, 64
11, 73680, Note_off_c, 9, 40, 64
11, 73920, Note_off_c, 9, 53, 64
11, 73920, Note_on_c, 9, 36, 100
11, 73920, Note_on_c, 9, 53, 100
11, 74153, Note_off_c, 9, 53, 64
11, 74160, Note_off_c, 9, 36, 64
11, 74160, Note_on_c, 9, 36, 100
11, 74160, Note_on_c, 9, 53, 100
11, 74400, Note_off_c, 9, 53, 64
11, 74400, Note_off_c, 9, 36, 64
11, 74400, Note_on_c, 9, 40, 100
11, 74400, Note_on_c, 9, 53, 100
11, 74640, Note_off_c, 9, 53, 64
11, 74640, Note_off_c, 9, 40, 64
11, 74640, Note_on_c, 9, 36, 100
11, 74640, Note_on_c, 9, 49, 100
11, 74880, Note_on_c, 9, 53, 100
11, 74887, Note_off_c, 9, 49, 64
11, 75120, Note_off_c, 9, 36, 64
11, 75120, Note_on_c, 9, 36, 100
11, 75360, Note_off_c, 9, 53, 64
11, 75360, Note_off_c, 9, 36, 64
11, 75360, Note_on_c, 9, 40, 100
11, 75600, Note_off_c, 9, 40, 64
11, 75720, Note_on_c, 9, 40, 100
11, 75840, Note_off_c, 9, 40, 64
11, 75840, Note_on_c, 9, 40, 100
11, 75960, Note_off_c, 9, 40, 64
11, 76080, Note_on_c, 9, 40, 100
11, 76320, Note_off_c, 9, 40, 64
11, 76320, Note_on_c, 9, 40, 100
11, 76560, Note_off_c, 9, 40, 64
11, 76560, Note_on_c, 9, 40, 100
11, 76800, Note_off_c, 9, 40, 64
11, 76800, Note_on_c, 9, 57, 100
11, 76800, Note_on_c, 9, 36, 100
11, 77033, Note_off_c, 9, 36, 64
11, 77033, Note_off_c, 9, 57, 64
11, 77040, Note_on_c, 9, 36, 100
11, 77040, Note_on_c, 9, 49, 100
11, 77280, Note_off_c, 9, 49, 64
11, 77280, Note_off_c, 9, 36, 64
11, 77280, Note_on_c, 9, 40, 100
11, 77280, Note_on_c, 9, 57, 100
11, 77760, Note_off_c, 9, 57, 64
11, 77760, Note_off_c, 9, 40, 64
11, 77760, Note_on_c, 9, 46, 100
11, 78000, Note_on_c, 9, 36, 100
11, 78240, Note_off_c, 9, 36, 64
11, 78240, Note_off_c, 9, 46, 64
11, 78240, Note_on_c, 9, 40, 100
11, 78240, Note_on_c, 9, 46, 100
11, 78473, Note_off_c, 9, 40, 64
11, 78480, Note_on_c, 9, 36, 100
11, 78720, Note_off_c, 9, 46, 64
11, 78720, Note_off_c, 9, 36, 64
11, 78720, Note_on_c, 9, 46, 100
11, 78960, Note_on_c, 9, 36, 100
11, 79200, Note_off_c, 9, 36, 64
11, 79200, Note_off_c, 9, 46, 64
11, 79200, Note_on_c, 9, 46, 100
11, 79200, Note_on_c, 9, 40, 100
11, 79440, Note_off_c, 9, 40, 64
11, 79440, Note_on_c, 9, 36, 100
11, 79680, Note_off_c, 9, 46, 64
11, 79680, Note_off_c, 9, 36, 64
11, 79680, Note_on_c, 9, 46, 100
11, 79920, Note_on_c, 9, 36, 100
11, 80160, Note_off_c, 9, 36, 64
11, 80160, Note_off_c, 9, 46, 64
11, 80160, Note_on_c, 9, 46, 100
11, 80160, Note_on_c, 9, 40, 100
11, 80400, Note_off_c, 9, 40, 64
11, 80640, Note_off_c, 9, 46, 64
11, 80640, Note_on_c, 9, 36, 100
11, 80640, Note_on_c, 9, 46, 100
11, 80880, Note_off_c, 9, 36, 64
11, 80880, Note_on_c, 9, 36, 100
11, 81120, Note_off_c, 9, 46, 64
11, 81120, Note_on_c, 9, 40, 100
11, 81120, Note_on_c, 9, 46, 100
11, 81127, Note_off_c, 9, 36, 64
11, 81360, Note_off_c, 9, 40, 64
11, 81600, Note_off_c, 9, 46, 64
11, 81600, Note_on_c, 9, 36, 100
11, 81600, Note_on_c, 9, 46, 100
11, 81840, Note_off_c, 9, 36, 64
11, 81840, Note_on_c, 9, 36, 100
11, 82080, Note_off_c, 9, 46, 64
11, 82080, Note_off_c, 9, 36, 64
11, 82080, Note_on_c, 9, 46, 100
11, 82080, Note_on_c, 9, 40, 100
11, 82320, Note_off_c, 9, 40, 64
11, 82320, Note_off_c, 9, 46, 64
11, 82320, Note_on_c, 9, 36, 100
11, 82320, Note_on_c, 9, 49, 100
11, 82560, Note_on_c, 9, 46, 100
11, 82567, Note_off_c, 9, 49, 64
11, 82800, Note_off_c, 9, 36, 64
11, 82800, Note_on_c, 9, 36, 100
11, 83040, Note_off_c, 9, 46, 64
11, 83040, Note_off_c, 9, 36, 64
11, 83040, Note_on_c, 9, 40, 100
11, 83040, Note_on_c, 9, 46, 100
11, 83280, Note_off_c, 9, 40, 64
11, 83520, Note_off_c, 9, 46, 64
11, 83520, Note_on_c, 9, 36, 100
11, 83520, Note_on_c, 9, 46, 100
11, 83760, Note_off_c, 9, 36, 64
11, 83760, Note_on_c, 9, 36, 100
11, 84000, Note_off_c, 9, 46, 64
11, 84000, Note_off_c, 9, 36, 64
11, 84000, Note_on_c, 9, 40, 100
11, 84000, Note_on_c, 9, 46, 100
11, 84240, Note_off_c, 9, 40, 64
11, 84240, Note_on_c, 9, 40, 100
11, 84480, Note_off_c, 9, 46, 64
11, 84480, Note_off_c, 9, 40, 64
11, 84480, Note_on_c, 9, 36, 100
11, 84480, Note_on_c, 9, 57, 100
11, 84713, Note_off_c, 9, 57, 64
11, 84713, Note_off_c, 9, 36, 64
11, 84720, Note_on_c, 9, 36, 100
11, 84720, Note_on_c, 9, 49, 100
11, 84960, Note_off_c, 9, 49, 64
11, 84960, Note_off_c, 9, 36, 64
11, 84960, Note_on_c, 9, 40, 100
11, 84960, Note_on_c, 9, 46, 100
11, 85440, Note_off_c, 9, 46, 64
11, 85440, Note_off_c, 9, 40, 64
11, 85440, Note_on_c, 9, 46, 100
11, 85680, Note_on_c, 9, 36, 100
11, 85920, Note_off_c, 9, 36, 64
11, 85920, Note_off_c, 9, 46, 64
11, 85920, Note_on_c, 9, 40, 100
11, 85920, Note_on_c, 9, 46, 100
11, 86153, Note_off_c, 9, 40, 64
11, 86160, Note_on_c, 9, 36, 100
11, 86400, Note_off_c, 9, 46, 64
11, 86400, Note_off_c, 9, 36, 64
11, 86400, Note_on_c, 9, 46, 100
11, 86640, Note_on_c, 9, 36, 100
11, 86880, Note_off_c, 9, 36, 64
11, 86880, Note_off_c, 9, 46, 64
11, 86880, Note_on_c, 9, 46, 100
11, 86880, Note_on_c, 9, 40, 100
11, 87120, Note_off_c, 9, 40, 64
11, 87120, Note_on_c, 9, 36, 100
11, 87360, Note_off_c, 9, 46, 64
11, 87360, Note_off_c, 9, 36, 64
11, 87360, Note_on_c, 9, 46, 100
11, 87600, Note_on_c, 9, 36, 100
11, 87840, Note_off_c, 9, 36, 64
11, 87840, Note_off_c, 9, 46, 64
11, 87840, Note_on_c, 9, 46, 100
11, 87840, Note_on_c, 9, 40, 100
11, 88080, Note_off_c, 9, 40, 64
11, 88200, Note_on_c, 9, 40, 100
11, 88320, Note_off_c, 9, 46, 64
11, 88320, Note_off_c, 9, 40, 64
11, 88320, Note_on_c, 9, 36, 100
11, 88320, Note_on_c, 9, 46, 100
11, 88560, Note_off_c, 9, 36, 64
11, 88560, Note_on_c, 9, 36, 100
11, 88800, Note_off_c, 9, 46, 64
11, 88800, Note_on_c, 9, 40, 100
11, 88800, Note_on_c, 9, 46, 100
11, 88807, Note_off_c, 9, 36, 64
11, 89040, Note_off_c, 9, 40, 64
11, 89280, Note_off_c, 9, 46, 64
11, 89280, Note_on_c, 9, 36, 100
11, 89280, Note_on_c, 9, 46, 100
11, 89520, Note_off_c, 9, 36, 64
11, 89520, Note_on_c, 9, 36, 100
11, 89760, Note_off_c, 9, 46, 64
11, 89760, Note_off_c, 9, 36, 64
11, 89760, Note_on_c, 9, 40, 100
11, 89760, Note_on_c, 9, 46, 100
11, 90000, Note_off_c, 9, 40, 64
11, 90000, Note_on_c, 9, 36, 100
11, 90240, Note_off_c, 9, 46, 64
11, 90240, Note_on_c, 9, 46, 100
11, 90473, Note_off_c, 9, 46, 64
11, 90480, Note_off_c, 9, 36, 64
11, 90480, Note_on_c, 9, 57, 60
11, 90480, Note_on_c, 9, 40, 60
11, 90720, Note_off_c, 9, 40, 64
11, 90720, Note_off_c, 9, 57, 64
11, 90720, Note_on_c, 9, 57, 70
11, 90720, Note_on_c, 9, 40, 70
11, 90960, Note_off_c, 9, 40, 64
11, 90960, Note_off_c, 9, 57, 64
11, 90960, Note_on_c, 9, 57, 80
11, 90960, Note_on_c, 9, 40, 80
11, 91200, Note_off_c, 9, 40, 64
11, 91200, Note_off_c, 9, 57, 64
11, 91200, Note_on_c, 9, 57, 90
11, 91200, Note_on_c, 9, 40, 90
11, 91440, Note_off_c, 9, 40, 64
11, 91440, Note_off_c, 9, 57, 64
11, 91440, Note_on_c, 9, 57, 100
11, 91440, Note_on_c, 9, 40, 100
11, 91680, Note_off_c, 9, 40, 64
11, 91680, Note_off_c, 9, 57, 64
11, 91680, Note_on_c, 9, 40, 100
11, 91680, Note_on_c, 9, 57, 100
11, 91920, Note_off_c, 9, 57, 64
11, 91920, Note_off_c, 9, 40, 64
11, 91920, Note_on_c, 9, 36, 100
11, 92160, Note_off_c, 9, 36, 64
11, 92160, Note_on_c, 9, 36, 100
11, 92160, Note_on_c, 9, 49, 100
11, 92393, Note_off_c, 9, 49, 64
11, 92393, Note_off_c, 9, 36, 64
11, 92640, Note_on_c, 9, 40, 100
11, 92640, Note_on_c, 9, 57, 100
11, 92880, Note_off_c, 9, 57, 64
11, 93120, Note_off_c, 9, 40, 64
11, 93120, Note_on_c, 9, 46, 100
11, 93120, Note_on_c, 9, 36, 100
11, 93360, Note_off_c, 9, 36, 64
11, 93360, Note_on_c, 9, 36, 100
11, 93600, Note_off_c, 9, 46, 64
11, 93600, Note_off_c, 9, 36, 64
11, 93600, Note_on_c, 9, 40, 100
11, 93600, Note_on_c, 9, 46, 100
11, 93833, Note_off_c, 9, 40, 64
11, 93840, Note_on_c, 9, 36, 100
11, 94080, Note_off_c, 9, 46, 64
11, 94080, Note_off_c, 9, 36, 64
11, 94080, Note_on_c, 9, 46, 100
11, 94320, Note_on_c, 9, 36, 100
11, 94560, Note_off_c, 9, 36, 64
11, 94560, Note_off_c, 9, 46, 64
11, 94560, Note_on_c, 9, 46, 100
11, 94560, Note_on_c, 9, 40, 100
11, 94800, Note_off_c, 9, 40, 64
11, 94800, Note_on_c, 9, 36, 100
11, 95040, Note_off_c, 9, 46, 64
11, 95040, Note_off_c, 9, 36, 64
11, 95040, Note_on_c, 9, 46, 100
11, 95280, Note_on_c, 9, 36, 100
11, 95520, Note_off_c, 9, 36, 64
11, 95520, Note_off_c, 9, 46, 64
11, 95520, Note_on_c, 9, 46, 100
11, 95520, Note_on_c, 9, 40, 100
11, 95760, Note_off_c, 9, 40, 64
11, 95880, Note_on_c, 9, 40, 60
11, 96000, Note_off_c, 9, 46, 64
11, 96000, Note_off_c, 9, 40, 64
11, 96000, Note_on_c, 9, 36, 100
11, 96000, Note_on_c, 9, 46, 100
11, 96240, Note_off_c, 9, 36, 64
11, 96480, Note_off_c, 9, 46, 64
11, 96480, Note_on_c, 9, 40, 100
11, 96480, Note_on_c, 9, 46, 100
11, 96720, Note_off_c, 9, 40, 64
11, 96960, Note_off_c, 9, 46, 64
11, 96960, Note_on_c, 9, 36, 100
11, 96960, Note_on_c, 9, 46, 100
11, 97200, Note_off_c, 9, 36, 64
11, 97200, Note_on_c, 9, 36, 100
11, 97440, Note_off_c, 9, 46, 64
11, 97440, Note_off_c, 9, 36, 64
11, 97440, Note_on_c, 9, 40, 100
11, 97440, Note_on_c, 9, 46, 100
11, 97673, Note_off_c, 9, 46, 64
11, 97680, Note_off_c, 9, 40, 64
11, 97680, Note_on_c, 9, 49, 100
11, 97680, Note_on_c, 9, 36, 100
11, 97920, Note_off_c, 9, 49, 64
11, 97920, Note_on_c, 9, 46, 100
11, 97927, Note_off_c, 9, 36, 64
11, 98160, Note_off_c, 9, 46, 64
11, 98160, Note_on_c, 9, 40, 100
11, 98280, Note_off_c, 9, 40, 64
11, 98280, Note_on_c, 9, 40, 100
11, 98400, Note_off_c, 9, 40, 64
11, 98400, Note_on_c, 9, 40, 100
11, 98520, Note_off_c, 9, 40, 64
11, 98520, Note_on_c, 9, 40, 100
11, 98640, Note_off_c, 9, 40, 64
11, 98640, Note_on_c, 9, 36, 100
11, 98760, Note_off_c, 9, 36, 64
11, 98760, Note_on_c, 9, 36, 100
11, 98880, Note_off_c, 9, 36, 64
11, 98880, Note_on_c, 9, 40, 100
11, 99000, Note_off_c, 9, 40, 64
11, 99000, Note_on_c, 9, 40, 100
11, 99120, Note_off_c, 9, 40, 64
11, 99120, Note_on_c, 9, 40, 100
11, 99240, Note_off_c, 9, 40, 64
11, 99240, Note_on_c, 9, 40, 100
11, 99360, Note_off_c, 9, 40, 64
11, 99360, Note_on_c, 9, 40, 100
11, 99600, Note_off_c, 9, 40, 64
11, 99600, Note_on_c, 9, 36, 100
11, 99600, Note_on_c, 9, 49, 100
11, 99840, Note_off_c, 9, 49, 64
11, 99840, Note_off_c, 9, 36, 64
11, 99840, Note_on_c, 9, 49, 100
11, 99840, Note_on_c, 9, 36, 100
11, 100073, Note_off_c, 9, 36, 64
11, 100073, Note_off_c, 9, 49, 64
11, 100320, Note_on_c, 9, 40, 100
11, 100320, Note_on_c, 9, 57, 100
11, 100560, Note_off_c, 9, 57, 64
11, 100800, Note_off_c, 9, 40, 64
11, 100800, Note_on_c, 9, 46, 100
11, 101040, Note_on_c, 9, 36, 100
11, 101280, Note_off_c, 9, 36, 64
11, 101280, Note_off_c, 9, 46, 64
11, 101280, Note_on_c, 9, 40, 100
11, 101280, Note_on_c, 9, 46, 100
11, 101513, Note_off_c, 9, 40, 64
11, 101520, Note_on_c, 9, 36, 100
11, 101760, Note_off_c, 9, 46, 64
11, 101760, Note_off_c, 9, 36, 64
11, 101760, Note_on_c, 9, 46, 100
11, 102000, Note_on_c, 9, 36, 100
11, 102240, Note_off_c, 9, 36, 64
11, 102240, Note_off_c, 9, 46, 64
11, 102240, Note_on_c, 9, 46, 100
11, 102240, Note_on_c, 9, 40, 100
11, 102480, Note_off_c, 9, 40, 64
11, 102480, Note_on_c, 9, 36, 100
11, 102720, Note_off_c, 9, 46, 64
11, 102720, Note_off_c, 9, 36, 64
11, 102720, Note_on_c, 9, 46, 100
11, 102960, Note_on_c, 9, 36, 100
11, 103200, Note_off_c, 9, 36, 64
11, 103200, Note_off_c, 9, 46, 64
11, 103200, Note_on_c, 9, 46, 100
11, 103200, Note_on_c, 9, 40, 100
11, 103440, Note_off_c, 9, 40, 64
11, 103560, Note_on_c, 9, 40, 100
11, 103680, Note_off_c, 9, 46, 64
11, 103680, Note_off_c, 9, 40, 64
11, 103680, Note_on_c, 9, 36, 100
11, 103680, Note_on_c, 9, 46, 100
11, 103920, Note_off_c, 9, 36, 64
11, 103920, Note_on_c, 9, 36, 100
11, 104160, Note_off_c, 9, 46, 64
11, 104160, Note_off_c, 9, 36, 64
11, 104160, Note_on_c, 9, 40, 100
11, 104160, Note_on_c, 9, 46, 100
11, 104400, Note_off_c, 9, 40, 64
11, 104640, Note_off_c, 9, 46, 64
11, 104640, Note_on_c, 9, 46, 100
11, 104640, Note_on_c, 9, 40, 100
11, 104680, Note_off_c, 9, 40, 64
11, 104680, Note_on_c, 9, 40, 100
11, 104720, Note_off_c, 9, 40, 64
11, 104880, Note_on_c, 9, 36, 100
11, 105120, Note_off_c, 9, 46, 64
11, 105120, Note_off_c, 9, 36, 64
11, 105120, Note_on_c, 9, 49, 100
11, 105120, Note_on_c, 9, 36, 100
11, 105353, Note_off_c, 9, 49, 64
11, 105360, Note_off_c, 9, 36, 64
11, 105360, Note_on_c, 9, 49, 100
11, 105360, Note_on_c, 9, 36, 100
11, 105600, Note_off_c, 9, 49, 64
11, 105607, Note_off_c, 9, 36, 64
11, 105840, Note_on_c, 9, 52, 100
11, 106080, Note_on_c, 9, 36, 100
11, 106320, Note_off_c, 9, 36, 64
11, 106320, Note_off_c, 9, 52, 64
11, 106320, Note_on_c, 9, 52, 100
11, 106320, Note_on_c, 9, 40, 100
11, 106800, Note_off_c, 9, 40, 64
11, 106800, Note_off_c, 9, 52, 64
11, 106800, Note_on_c, 9, 52, 100
11, 107160, Note_on_c, 9, 40, 100
11, 107280, Note_off_c, 9, 40, 64
11, 107280, Note_off_c, 9, 52, 64
11, 107280, Note_on_c, 9, 36, 100
11, 107280, Note_on_c, 9, 52, 100
11, 107520, Note_off_c, 9, 36, 64
11, 107520, Note_on_c, 9, 36, 100
11, 107760, Note_off_c, 9, 52, 64
11, 107760, Note_off_c, 9, 36, 64
11, 107760, Note_on_c, 9, 52, 100
11, 108000, Note_on_c, 9, 36, 100
11, 108240, Note_off_c, 9, 36, 64
11, 108240, Note_off_c, 9, 52, 64
11, 108240, Note_on_c, 9, 52, 100
11, 108240, Note_on_c, 9, 40, 100
11, 108480, Note_off_c, 9, 40, 64
11, 108720, Note_off_c, 9, 52, 64
11, 108720, Note_on_c, 9, 52, 100
11, 108720, Note_on_c, 9, 40, 100
11, 108960, Note_off_c, 9, 40, 64
11, 109200, Note_off_c, 9, 52, 64
11, 109200, Note_on_c, 9, 49, 100
11, 109200, Note_on_c, 9, 36, 100
11, 109200, Note_on_c, 9, 46, 60
11, 109320, Note_off_c, 9, 46, 80
11, 109320, Note_off_c, 9, 36, 80
11, 109320, Note_off_c, 9, 49, 80
11, 109320, Note_on_c, 9, 46, 60
11, 109440, Note_off_c, 9, 46, 80
11, 109440, Note_on_c, 9, 46, 60
11, 109560, Note_off_c, 9, 46, 80
11, 109560, Note_on_c, 9, 46, 60
11, 109680, Note_off_c, 9, 46, 80
11, 109680, Note_on_c, 9, 46, 60
11, 109800, Note_off_c, 9, 46, 80
11, 109800, Note_on_c, 9, 46, 60
11, 109920, Note_off_c, 9, 46, 80
11, 109920, Note_on_c, 9, 46, 100
11, 110040, Note_off_c, 9, 46, 80
11, 110040, Note_on_c, 9, 46, 60
11, 110160, Note_off_c, 9, 46, 80
11, 110160, Note_on_c, 9, 46, 60
11, 110280, Note_off_c, 9, 46, 80
11, 110280, Note_on_c, 9, 46, 60
11, 110400, Note_off_c, 9, 46, 80
11, 110400, Note_on_c, 9, 46, 60
11, 110520, Note_off_c, 9, 46, 80
11, 110520, Note_on_c, 9, 46, 60
11, 110640, Note_off_c, 9, 46, 80
11, 110640, Note_on_c, 9, 46, 100
11, 110760, Note_off_c, 9, 46, 80
11, 110760, Note_on_c, 9, 46, 60
11, 110880, Note_off_c, 9, 46, 80
11, 110880, Note_on_c, 9, 46, 60
11, 111000, Note_off_c, 9, 46, 80
11, 111000, Note_on_c, 9, 46, 60
11, 111120, Note_off_c, 9, 46, 80
11, 111120, Note_on_c, 9, 49, 100
11, 111120, Note_on_c, 9, 36, 100
11, 111120, Note_on_c, 9, 46, 60
11, 111240, Note_off_c, 9, 46, 80
11, 111240, Note_off_c, 9, 36, 80
11, 111240, Note_off_c, 9, 49, 80
11, 111240, Note_on_c, 9, 46, 60
11, 111360, Note_off_c, 9, 46, 80
11, 111360, Note_on_c, 9, 46, 60
11, 111480, Note_off_c, 9, 46, 80
11, 111480, Note_on_c, 9, 46, 60
11, 111600, Note_off_c, 9, 46, 80
11, 111600, Note_on_c, 9, 46, 60
11, 111720, Note_off_c, 9, 46, 80
11, 111720, Note_on_c, 9, 46, 60
11, 111840, Note_off_c, 9, 46, 80
11, 111840, Note_on_c, 9, 46, 100
11, 111960, Note_off_c, 9, 46, 80
11, 111960, Note_on_c, 9, 46, 60
11, 112080, Note_off_c, 9, 46, 80
11, 112080, Note_on_c, 9, 46, 60
11, 112200, Note_off_c, 9, 46, 80
11, 112200, Note_on_c, 9, 46, 60
11, 112320, Note_off_c, 9, 46, 80
11, 112320, Note_on_c, 9, 46, 60
11, 112440, Note_off_c, 9, 46, 80
11, 112440, Note_on_c, 9, 46, 60
11, 112560, Note_off_c, 9, 46, 80
11, 112560, Note_on_c, 9, 46, 100
11, 112680, Note_off_c, 9, 46, 80
11, 112680, Note_on_c, 9, 46, 60
11, 112800, Note_off_c, 9, 46, 80
11, 112800, Note_on_c, 9, 46, 60
11, 112920, Note_off_c, 9, 46, 80
11, 112920, Note_on_c, 9, 46, 60
11, 113040, Note_off_c, 9, 46, 80
11, 113040, Note_on_c, 9, 46, 60
11, 113040, Note_on_c, 9, 49, 100
11, 113040, Note_on_c, 9, 36, 100
11, 113160, Note_off_c, 9, 36, 80
11, 113160, Note_off_c, 9, 49, 80
11, 113160, Note_off_c, 9, 46, 80
11, 113160, Note_on_c, 9, 46, 60
11, 113280, Note_off_c, 9, 46, 80
11, 113280, Note_on_c, 9, 46, 60
11, 113400, Note_off_c, 9, 46, 80
11, 113400, Note_on_c, 9, 46, 60
11, 113520, Note_off_c, 9, 46, 80
11, 113520, Note_on_c, 9, 46, 60
11, 113640, Note_off_c, 9, 46, 80
11, 113640, Note_on_c, 9, 46, 60
11, 113760, Note_off_c, 9, 46, 80
11, 113760, Note_on_c, 9, 46, 100
11, 113880, Note_off_c, 9, 46, 80
11, 113880, Note_on_c, 9, 46, 60
11, 114000, Note_off_c, 9, 46, 80
11, 114000, Note_on_c, 9, 46, 60
11, 114120, Note_off_c, 9, 46, 80
11, 114120, Note_on_c, 9, 46, 60
11, 114240, Note_off_c, 9, 46, 80
11, 114240, Note_on_c, 9, 46, 60
11, 114360, Note_off_c, 9, 46, 80
11, 114360, Note_on_c, 9, 46, 60
11, 114480, Note_off_c, 9, 46, 80
11, 114480, Note_on_c, 9, 46, 100
11, 114600, Note_off_c, 9, 46, 80
11, 114600, Note_on_c, 9, 46, 60
11, 114720, Note_off_c, 9, 46, 80
11, 114720, Note_on_c, 9, 46, 60
11, 114840, Note_off_c, 9, 46, 80
11, 114840, Note_on_c, 9, 46, 60
11, 114960, Note_off_c, 9, 46, 80
11, 114960, Note_on_c, 9, 46, 100
11, 115080, Note_off_c, 9, 46, 80
11, 115080, Note_on_c, 9, 46, 60
11, 115200, Note_off_c, 9, 46, 80
11, 115200, Note_on_c, 9, 46, 60
11, 115320, Note_off_c, 9, 46, 80
11, 115320, Note_on_c, 9, 46, 60
11, 115440, Note_off_c, 9, 46, 80
11, 115440, Note_on_c, 9, 46, 100
11, 115560, Note_off_c, 9, 46, 80
11, 115560, Note_on_c, 9, 46, 60
11, 115680, Note_off_c, 9, 46, 80
11, 115680, Note_on_c, 9, 46, 60
11, 115800, Note_off_c, 9, 46, 80
11, 115800, Note_on_c, 9, 46, 60
11, 115920, Note_off_c, 9, 46, 80
11, 115920, Note_on_c, 9, 46, 100
11, 116040, Note_off_c, 9, 46, 80
11, 116040, Note_on_c, 9, 46, 60
11, 116160, Note_off_c, 9, 46, 80
11, 116160, Note_on_c, 9, 46, 60
11, 116280, Note_off_c, 9, 46, 80
11, 116280, Note_on_c, 9, 46, 60
11, 116400, Note_off_c, 9, 46, 80
11, 116400, Note_on_c, 9, 46, 100
11, 116520, Note_off_c, 9, 46, 80
11, 116520, Note_on_c, 9, 46, 60
11, 116640, Note_off_c, 9, 46, 80
11, 116640, Note_on_c, 9, 46, 60
11, 116760, Note_off_c, 9, 46, 80
11, 116760, Note_on_c, 9, 46, 60
11, 116880, Note_off_c, 9, 46, 80
11, 116880, Note_on_c, 9, 36, 100
11, 116880, Note_on_c, 9, 40, 100
11, 116880, Note_on_c, 9, 49, 100
11, 117000, Note_off_c, 9, 36, 64
11, 117000, Note_on_c, 9, 36, 100
11, 117113, Note_off_c, 9, 49, 64
11, 117120, Note_off_c, 9, 36, 64
11, 117120, Note_on_c, 9, 36, 100
11, 117120, Note_on_c, 9, 53, 100
11, 117240, Note_off_c, 9, 36, 64
11, 117240, Note_on_c, 9, 36, 100
11, 117360, Note_off_c, 9, 40, 64
11, 117360, Note_off_c, 9, 53, 64
11, 117360, Note_off_c, 9, 36, 64
11, 117360, Note_on_c, 9, 36, 100
11, 117360, Note_on_c, 9, 53, 100
11, 117480, Note_off_c, 9, 36, 64
11, 117480, Note_on_c, 9, 36, 100
11, 117600, Note_off_c, 9, 53, 64
11, 117600, Note_off_c, 9, 36, 64
11, 117600, Note_on_c, 9, 36, 100
11, 117600, Note_on_c, 9, 40, 100
11, 117600, Note_on_c, 9, 49, 100
11, 117720, Note_off_c, 9, 36, 64
11, 117720, Note_on_c, 9, 36, 100
11, 117840, Note_off_c, 9, 49, 64
11, 117840, Note_off_c, 9, 36, 64
11, 117840, Note_on_c, 9, 36, 100
11, 117840, Note_on_c, 9, 53, 100
11, 117960, Note_off_c, 9, 36, 64
11, 117960, Note_on_c, 9, 36, 100
11, 118080, Note_off_c, 9, 40, 64
11, 118080, Note_off_c, 9, 53, 64
11, 118080, Note_off_c, 9, 36, 64
11, 118080, Note_on_c, 9, 36, 100
11, 118080, Note_on_c, 9, 53, 100
11, 118200, Note_off_c, 9, 36, 64
11, 118200, Note_on_c, 9, 36, 100
11, 118320, Note_off_c, 9, 53, 64
11, 118320, Note_off_c, 9, 36, 64
11, 118320, Note_on_c, 9, 36, 100
11, 118320, Note_on_c, 9, 40, 100
11, 118440, Note_off_c, 9, 40, 64
11, 118440, Note_off_c, 9, 36, 64
11, 118440, Note_on_c, 9, 36, 100
11, 118440, Note_on_c, 9, 40, 100
11, 118560, Note_off_c, 9, 40, 64
11, 118560, Note_off_c, 9, 36, 64
11, 118560, Note_on_c, 9, 36, 100
11, 118680, Note_off_c, 9, 36, 64
11, 118680, Note_on_c, 9, 36, 100
11, 118800, Note_off_c, 9, 36, 64
11, 118800, Note_on_c, 9, 36, 100
11, 118800, Note_on_c, 9, 40, 100
11, 118800, Note_on_c, 9, 49, 100
11, 118920, Note_off_c, 9, 36, 64
11, 118920, Note_on_c, 9, 36, 100
11, 119033, Note_off_c, 9, 49, 64
11, 119040, Note_off_c, 9, 36, 64
11, 119040, Note_on_c, 9, 36, 100
11, 119040, Note_on_c, 9, 53, 100
11, 119160, Note_off_c, 9, 36, 64
11, 119160, Note_on_c, 9, 36, 100
11, 119280, Note_off_c, 9, 40, 64
11, 119280, Note_off_c, 9, 53, 64
11, 119280, Note_off_c, 9, 36, 64
11, 119280, Note_on_c, 9, 36, 100
11, 119280, Note_on_c, 9, 53, 100
11, 119400, Note_off_c, 9, 36, 64
11, 119400, Note_on_c, 9, 36, 100
11, 119520, Note_off_c, 9, 53, 64
11, 119520, Note_off_c, 9, 36, 64
11, 119520, Note_on_c, 9, 36, 100
11, 119520, Note_on_c, 9, 40, 100
11, 119520, Note_on_c, 9, 49, 100
11, 119640, Note_off_c, 9, 36, 64
11, 119640, Note_on_c, 9, 36, 100
11, 119760, Note_off_c, 9, 49, 64
11, 119760, Note_off_c, 9, 36, 64
11, 119760, Note_on_c, 9, 36, 100
11, 119760, Note_on_c, 9, 53, 100
11, 119880, Note_off_c, 9, 36, 64
11, 119880, Note_on_c, 9, 36, 100
11, 120000, Note_off_c, 9, 40, 64
11, 120000, Note_off_c, 9, 53, 64
11, 120000, Note_off_c, 9, 36, 64
11, 120000, Note_on_c, 9, 36, 100
11, 120000, Note_on_c, 9, 53, 100
11, 120120, Note_off_c, 9, 36, 64
11, 120120, Note_on_c, 9, 36, 100
11, 120240, Note_off_c, 9, 53, 64
11, 120240, Note_off_c, 9, 36, 64
11, 120240, Note_on_c, 9, 36, 100
11, 120240, Note_on_c, 9, 40, 100
11, 120360, Note_off_c, 9, 40, 64
11, 120360, Note_off_c, 9, 36, 64
11, 120360, Note_on_c, 9, 36, 100
11, 120360, Note_on_c, 9, 40, 100
11, 120480, Note_off_c, 9, 40, 64
11, 120480, Note_off_c, 9, 36, 64
11, 120480, Note_on_c, 9, 36, 100
11, 120600, Note_off_c, 9, 36, 64
11, 120600, Note_on_c, 9, 36, 100
11, 120720, Note_off_c, 9, 36, 64
11, 120720, Note_on_c, 9, 36, 100
11, 120720, Note_on_c, 9, 40, 100
11, 120720, Note_on_c, 9, 49, 100
11, 120840, Note_off_c, 9, 36, 64
11, 120840, Note_on_c, 9, 36, 100
11, 120953, Note_off_c, 9, 49, 64
11, 120960, Note_off_c, 9, 36, 64
11, 120960, Note_on_c, 9, 36, 100
11, 120960, Note_on_c, 9, 53, 100
11, 121080, Note_off_c, 9, 36, 64
11, 121080, Note_on_c, 9, 36, 100
11, 121200, Note_off_c, 9, 40, 64
11, 121200, Note_off_c, 9, 53, 64
11, 121200, Note_off_c, 9, 36, 64
11, 121200, Note_on_c, 9, 36, 100
11, 121200, Note_on_c, 9, 53, 100
11, 121320, Note_off_c, 9, 36, 64
11, 121320, Note_on_c, 9, 36, 100
11, 121440, Note_off_c, 9, 53, 64
11, 121440, Note_off_c, 9, 36, 64
11, 121440, Note_on_c, 9, 36, 100
11, 121440, Note_on_c, 9, 40, 100
11, 121440, Note_on_c, 9, 49, 100
11, 121560, Note_off_c, 9, 36, 64
11, 121560, Note_on_c, 9, 36, 100
11, 121680, Note_off_c, 9, 49, 64
11, 121680, Note_off_c, 9, 36, 64
11, 121680, Note_on_c, 9, 36, 100
11, 121680, Note_on_c, 9, 53, 100
11, 121800, Note_off_c, 9, 36, 64
11, 121800, Note_on_c, 9, 36, 100
11, 121920, Note_off_c, 9, 40, 64
11, 121920, Note_off_c, 9, 53, 64
11, 121920, Note_off_c, 9, 36, 64
11, 121920, Note_on_c, 9, 36, 100
11, 121920, Note_on_c, 9, 53, 100
11, 122040, Note_off_c, 9, 36, 64
11, 122040, Note_on_c, 9, 36, 100
11, 122160, Note_off_c, 9, 53, 64
11, 122160, Note_off_c, 9, 36, 64
11, 122160, Note_on_c, 9, 36, 100
11, 122160, Note_on_c, 9, 40, 100
11, 122280, Note_off_c, 9, 40, 64
11, 122280, Note_off_c, 9, 36, 64
11, 122280, Note_on_c, 9, 36, 100
11, 122280, Note_on_c, 9, 40, 100
11, 122400, Note_off_c, 9, 40, 64
11, 122400, Note_off_c, 9, 36, 64
11, 122400, Note_on_c, 9, 36, 100
11, 122520, Note_off_c, 9, 36, 64
11, 122520, Note_on_c, 9, 36, 100
11, 122640, Note_off_c, 9, 36, 64
11, 122640, Note_on_c, 9, 36, 100
11, 122640, Note_on_c, 9, 40, 100
11, 122640, Note_on_c, 9, 57, 100
11, 122760, Note_off_c, 9, 36, 64
11, 122760, Note_on_c, 9, 36, 100
11, 122880, Note_off_c, 9, 36, 64
11, 122880, Note_on_c, 9, 36, 100
11, 123000, Note_off_c, 9, 36, 64
11, 123000, Note_on_c, 9, 36, 100
11, 123120, Note_off_c, 9, 40, 64
11, 123120, Note_off_c, 9, 57, 64
11, 123120, Note_off_c, 9, 36, 64
11, 123120, Note_on_c, 9, 36, 100
11, 123120, Note_on_c, 9, 50, 100
11, 123240, Note_off_c, 9, 50, 64
11, 123240, Note_off_c, 9, 36, 64
11, 123240, Note_on_c, 9, 36, 100
11, 123240, Note_on_c, 9, 50, 100
11, 123360, Note_off_c, 9, 50, 64
11, 123360, Note_off_c, 9, 36, 64
11, 123360, Note_on_c, 9, 36, 100
11, 123480, Note_off_c, 9, 36, 64
11, 123480, Note_on_c, 9, 36, 100
11, 123600, Note_off_c, 9, 36, 64
11, 123600, Note_on_c, 9, 36, 100
11, 123600, Note_on_c, 9, 48, 100
11, 123720, Note_off_c, 9, 48, 64
11, 123720, Note_off_c, 9, 36, 64
11, 123720, Note_on_c, 9, 36, 100
11, 123720, Note_on_c, 9, 48, 100
11, 123840, Note_off_c, 9, 48, 64
11, 123840, Note_off_c, 9, 36, 64
11, 123840, Note_on_c, 9, 36, 100
11, 123960, Note_off_c, 9, 36, 64
11, 123960, Note_on_c, 9, 36, 100
11, 124020, Note_off_c, 9, 36, 64
11, 124020, Note_on_c, 9, 36, 100
11, 124080, Note_off_c, 9, 36, 64
11, 124080, Note_on_c, 9, 40, 100
11, 124200, Note_off_c, 9, 40, 64
11, 124320, Note_on_c, 9, 36, 100
11, 124440, Note_off_c, 9, 36, 64
11, 124560, Note_on_c, 9, 36, 100
11, 124560, Note_on_c, 9, 49, 100
11, 125040, Note_off_c, 9, 49, 64
11, 125040, Note_off_c, 9, 36, 64
11, 125040, Note_on_c, 9, 40, 100
11, 125040, Note_on_c, 9, 53, 100
11, 125520, Note_off_c, 9, 53, 64
11, 125520, Note_off_c, 9, 40, 64
11, 125520, Note_on_c, 9, 53, 100
11, 125760, Note_on_c, 9, 36, 100
11, 126000, Note_off_c, 9, 36, 64
11, 126000, Note_off_c, 9, 53, 64
11, 126000, Note_on_c, 9, 40, 100
11, 126000, Note_on_c, 9, 53, 100
11, 126233, Note_off_c, 9, 40, 64
11, 126240, Note_on_c, 9, 36, 100
11, 126480, Note_off_c, 9, 53, 64
11, 126480, Note_off_c, 9, 36, 64
11, 126480, Note_on_c, 9, 53, 100
11, 126720, Note_on_c, 9, 36, 100
11, 126960, Note_off_c, 9, 36, 64
11, 126960, Note_off_c, 9, 53, 64
11, 126960, Note_on_c, 9, 40, 100
11, 126960, Note_on_c, 9, 53, 100
11, 127200, Note_off_c, 9, 40, 64
11, 127200, Note_on_c, 9, 36, 100
11, 127440, Note_off_c, 9, 53, 64
11, 127440, Note_off_c, 9, 36, 64
11, 127440, Note_on_c, 9, 53, 100
11, 127680, Note_on_c, 9, 36, 100
11, 127920, Note_off_c, 9, 36, 64
11, 127920, Note_off_c, 9, 53, 64
11, 127920, Note_on_c, 9, 40, 100
11, 127920, Note_on_c, 9, 53, 100
11, 128160, Note_off_c, 9, 40, 64
11, 128280, Note_on_c, 9, 40, 100
11, 128400, Note_off_c, 9, 53, 64
11, 128400, Note_on_c, 9, 36, 100
11, 128400, Note_on_c, 9, 53, 100
11, 128410, Note_off_c, 9, 40, 64
11, 128640, Note_off_c, 9, 36, 64
11, 128640, Note_on_c, 9, 36, 100
11, 128880, Note_off_c, 9, 53, 64
11, 128880, Note_on_c, 9, 40, 100
11, 128880, Note_on_c, 9, 53, 100
11, 128887, Note_off_c, 9, 36, 64
11, 129120, Note_off_c, 9, 40, 64
11, 129360, Note_off_c, 9, 53, 64
11, 129360, Note_on_c, 9, 36, 100
11, 129360, Note_on_c, 9, 53, 100
11, 129593, Note_off_c, 9, 53, 64
11, 129600, Note_off_c, 9, 36, 64
11, 129600, Note_on_c, 9, 36, 100
11, 129600, Note_on_c, 9, 53, 100
11, 129840, Note_off_c, 9, 53, 64
11, 129840, Note_off_c, 9, 36, 64
11, 129840, Note_on_c, 9, 53, 100
11, 129840, Note_on_c, 9, 40, 100
11, 130080, Note_off_c, 9, 40, 64
11, 130080, Note_off_c, 9, 53, 64
11, 130080, Note_on_c, 9, 49, 100
11, 130080, Note_on_c, 9, 36, 100
11, 130320, Note_on_c, 9, 53, 100
11, 130320, Note_on_c, 9, 46, 100
11, 130327, Note_off_c, 9, 36, 64
11, 130327, Note_off_c, 9, 49, 64
11, 130560, Note_off_c, 9, 46, 64
11, 130560, Note_on_c, 9, 36, 100
11, 130560, Note_on_c, 9, 42, 100
11, 130800, Note_off_c, 9, 42, 64
11, 130800, Note_off_c, 9, 53, 64
11, 130800, Note_off_c, 9, 36, 64
11, 130800, Note_on_c, 9, 40, 100
11, 131040, Note_off_c, 9, 40, 64
11, 131040, Note_on_c, 9, 40, 70
11, 131160, Note_off_c, 9, 40, 64
11, 131160, Note_on_c, 9, 40, 80
11, 131280, Note_off_c, 9, 40, 64
11, 131280, Note_on_c, 9, 40, 100
11, 131400, Note_off_c, 9, 40, 64
11, 131400, Note_on_c, 9, 40, 90
11, 131520, Note_off_c, 9, 40, 64
11, 131520, Note_on_c, 9, 40, 100
11, 131760, Note_off_c, 9, 40, 64
11, 131760, Note_on_c, 9, 36, 100
11, 131760, Note_on_c, 9, 45, 100
11, 132000, Note_off_c, 9, 45, 64
11, 132000, Note_off_c, 9, 36, 64
11, 132000, Note_on_c, 9, 36, 100
11, 132000, Note_on_c, 9, 49, 100
11, 132240, Note_off_c, 9, 49, 64
11, 132240, Note_off_c, 9, 36, 64
11, 132240, Note_on_c, 9, 36, 100
11, 132240, Note_on_c, 9, 49, 100
11, 132473, Note_off_c, 9, 49, 64
11, 132473, Note_off_c, 9, 36, 64
11, 132720, Note_on_c, 9, 40, 100
11, 132720, Note_on_c, 9, 57, 100
11, 133200, Note_off_c, 9, 57, 64
11, 133200, Note_off_c, 9, 40, 64
11, 133200, Note_on_c, 9, 53, 100
11, 133200, Note_on_c, 9, 36, 100
11, 133440, Note_off_c, 9, 36, 64
11, 133440, Note_on_c, 9, 36, 100
11, 133680, Note_off_c, 9, 53, 64
11, 133680, Note_off_c, 9, 36, 64
11, 133680, Note_on_c, 9, 40, 100
11, 133680, Note_on_c, 9, 53, 100
11, 133913, Note_off_c, 9, 40, 64
11, 133920, Note_on_c, 9, 36, 100
11, 134160, Note_off_c, 9, 53, 64
11, 134160, Note_off_c, 9, 36, 64
11, 134160, Note_on_c, 9, 53, 100
11, 134400, Note_on_c, 9, 36, 100
11, 134640, Note_off_c, 9, 36, 64
11, 134640, Note_off_c, 9, 53, 64
11, 134640, Note_on_c, 9, 40, 100
11, 134640, Note_on_c, 9, 53, 100
11, 134880, Note_off_c, 9, 40, 64
11, 135000, Note_on_c, 9, 40, 100
11, 135120, Note_off_c, 9, 53, 64
11, 135120, Note_off_c, 9, 40, 64
11, 135120, Note_on_c, 9, 53, 100
11, 135120, Note_on_c, 9, 36, 100
11, 135240, Note_off_c, 9, 36, 64
11, 135360, Note_on_c, 9, 36, 100
11, 135600, Note_off_c, 9, 53, 64
11, 135600, Note_off_c, 9, 36, 64
11, 135600, Note_on_c, 9, 40, 100
11, 135600, Note_on_c, 9, 53, 100
11, 135840, Note_off_c, 9, 40, 64
11, 135840, Note_on_c, 9, 36, 100
11, 135970, Note_off_c, 9, 36, 64
11, 136080, Note_off_c, 9, 53, 64
11, 136080, Note_on_c, 9, 36, 100
11, 136080, Note_on_c, 9, 53, 100
11, 136320, Note_off_c, 9, 36, 64
11, 136320, Note_on_c, 9, 36, 100
11, 136560, Note_off_c, 9, 53, 64
11, 136560, Note_on_c, 9, 40, 100
11, 136560, Note_on_c, 9, 53, 100
11, 136567, Note_off_c, 9, 36, 64
11, 136800, Note_off_c, 9, 40, 64
11, 137040, Note_off_c, 9, 53, 64
11, 137040, Note_on_c, 9, 36, 100
11, 137040, Note_on_c, 9, 53, 100
11, 137273, Note_off_c, 9, 53, 64
11, 137280, Note_off_c, 9, 36, 64
11, 137280, Note_on_c, 9, 36, 100
11, 137280, Note_on_c, 9, 53, 100
11, 137520, Note_off_c, 9, 53, 64
11, 137520, Note_off_c, 9, 36, 64
11, 137520, Note_on_c, 9, 40, 100
11, 137760, Note_off_c, 9, 40, 64
11, 137760, Note_on_c, 9, 36, 100
11, 137760, Note_on_c, 9, 57, 100
11, 138000, Note_off_c, 9, 57, 64
11, 138000, Note_on_c, 9, 53, 100
11, 138240, Note_off_c, 9, 36, 64
11, 138480, Note_off_c, 9, 53, 64
11, 138480, Note_on_c, 9, 53, 100
11, 138960, Note_off_c, 9, 53, 64
11, 138960, Note_on_c, 9, 40, 100
11, 138990, Note_off_c, 9, 40, 64
11, 139000, Note_on_c, 9, 40, 100
11, 139030, Note_off_c, 9, 40, 64
11, 139200, Note_on_c, 9, 36, 100
11, 139200, Note_on_c, 9, 49, 100
11, 139320, Note_off_c, 9, 49, 64
11, 139320, Note_off_c, 9, 36, 64
11, 139920, Note_on_c, 9, 49, 100
11, 139920, Note_on_c, 9, 36, 100
11, 140400, Note_off_c, 9, 49, 64
11, 140400, Note_on_c, 9, 46, 100
11, 140633, Note_off_c, 9, 36, 64
11, 140640, Note_on_c, 9, 36, 100
11, 140880, Note_off_c, 9, 46, 64
11, 140880, Note_off_c, 9, 36, 64
11, 140880, Note_on_c, 9, 46, 100
11, 140880, Note_on_c, 9, 40, 100
11, 141360, Note_off_c, 9, 40, 64
11, 141360, Note_off_c, 9, 46, 64
11, 141360, Note_on_c, 9, 46, 100
11, 141360, Note_on_c, 9, 36, 100
11, 141600, Note_off_c, 9, 36, 64
11, 141600, Note_on_c, 9, 36, 100
11, 141840, Note_off_c, 9, 46, 64
11, 141840, Note_on_c, 9, 46, 100
11, 142080, Note_off_c, 9, 36, 64
11, 142080, Note_on_c, 9, 40, 100
11, 142320, Note_off_c, 9, 46, 64
11, 142320, Note_off_c, 9, 40, 64
11, 142320, Note_on_c, 9, 46, 100
11, 142560, Note_on_c, 9, 36, 100
11, 142800, Note_off_c, 9, 36, 64
11, 142800, Note_off_c, 9, 46, 64
11, 142800, Note_on_c, 9, 40, 100
11, 142800, Note_on_c, 9, 46, 100
11, 143040, Note_off_c, 9, 40, 64
11, 143280, Note_off_c, 9, 46, 64
11, 143280, Note_on_c, 9, 46, 100
11, 143280, Note_on_c, 9, 36, 100
11, 143520, Note_off_c, 9, 36, 64
11, 143520, Note_on_c, 9, 40, 100
11, 143760, Note_off_c, 9, 46, 64
11, 143760, Note_off_c, 9, 40, 64
11, 143760, Note_on_c, 9, 36, 100
11, 143760, Note_on_c, 9, 46, 100
11, 144240, Note_off_c, 9, 46, 64
11, 144240, Note_on_c, 9, 46, 100
11, 144473, Note_off_c, 9, 36, 64
11, 144480, Note_on_c, 9, 36, 100
11, 144720, Note_off_c, 9, 46, 64
11, 144720, Note_off_c, 9, 36, 64
11, 144720, Note_on_c, 9, 46, 100
11, 144720, Note_on_c, 9, 40, 100
11, 145200, Note_off_c, 9, 40, 64
11, 145200, Note_off_c, 9, 46, 64
11, 145200, Note_on_c, 9, 46, 100
11, 145440, Note_on_c, 9, 36, 100
11, 145680, Note_off_c, 9, 46, 64
11, 145680, Note_on_c, 9, 46, 100
11, 145920, Note_off_c, 9, 36, 64
11, 145920, Note_on_c, 9, 40, 100
11, 146160, Note_off_c, 9, 46, 64
11, 146160, Note_off_c, 9, 40, 64
11, 146160, Note_on_c, 9, 46, 100
11, 146400, Note_on_c, 9, 36, 100
11, 146640, Note_off_c, 9, 36, 64
11, 146640, Note_off_c, 9, 46, 64
11, 146640, Note_on_c, 9, 40, 100
11, 146640, Note_on_c, 9, 46, 100
11, 146880, Note_off_c, 9, 40, 64
11, 146880, Note_on_c, 9, 36, 100
11, 147120, Note_off_c, 9, 46, 64
11, 147120, Note_off_c, 9, 36, 64
11, 147120, Note_on_c, 9, 40, 100
11, 147120, Note_on_c, 9, 46, 100
11, 147353, Note_off_c, 9, 46, 64
11, 147360, Note_off_c, 9, 40, 64
11, 147360, Note_on_c, 9, 36, 100
11, 147360, Note_on_c, 9, 49, 100
11, 147600, Note_off_c, 9, 49, 64
11, 147600, Note_off_c, 9, 36, 64
11, 147600, Note_on_c, 9, 36, 100
11, 147600, Note_on_c, 9, 49, 100
11, 148080, Note_off_c, 9, 49, 64
11, 148080, Note_on_c, 9, 46, 100
11, 148313, Note_off_c, 9, 36, 64
11, 148320, Note_on_c, 9, 36, 100
11, 148560, Note_off_c, 9, 46, 64
11, 148560, Note_off_c, 9, 36, 64
11, 148560, Note_on_c, 9, 40, 100
11, 148560, Note_on_c, 9, 46, 100
11, 149040, Note_off_c, 9, 46, 64
11, 149040, Note_off_c, 9, 40, 64
11, 149040, Note_on_c, 9, 46, 100
11, 149280, Note_on_c, 9, 36, 100
11, 149520, Note_off_c, 9, 46, 64
11, 149520, Note_on_c, 9, 46, 100
11, 149760, Note_off_c, 9, 36, 64
11, 149760, Note_on_c, 9, 40, 100
11, 150000, Note_off_c, 9, 46, 64
11, 150000, Note_off_c, 9, 40, 64
11, 150000, Note_on_c, 9, 46, 100
11, 150240, Note_on_c, 9, 36, 100
11, 150480, Note_off_c, 9, 36, 64
11, 150480, Note_off_c, 9, 46, 64
11, 150480, Note_on_c, 9, 40, 100
11, 150480, Note_on_c, 9, 46, 100
11, 150720, Note_off_c, 9, 40, 64
11, 150960, Note_off_c, 9, 46, 64
11, 150960, Note_on_c, 9, 36, 100
11, 150960, Note_on_c, 9, 46, 100
11, 151200, Note_off_c, 9, 36, 64
11, 151200, Note_on_c, 9, 40, 100
11, 151440, Note_off_c, 9, 46, 64
11, 151440, Note_off_c, 9, 40, 64
11, 151440, Note_on_c, 9, 36, 100
11, 151440, Note_on_c, 9, 46, 100
11, 151920, Note_off_c, 9, 46, 64
11, 151920, Note_off_c, 9, 36, 64
11, 151920, Note_on_c, 9, 46, 100
11, 152160, Note_on_c, 9, 36, 100
11, 152400, Note_off_c, 9, 36, 64
11, 152400, Note_off_c, 9, 46, 64
11, 152400, Note_on_c, 9, 40, 100
11, 152400, Note_on_c, 9, 46, 100
11, 152640, Note_off_c, 9, 40, 64
11, 152880, Note_off_c, 9, 46, 64
11, 152880, Note_on_c, 9, 40, 100
11, 152880, Note_on_c, 9, 46, 100
11, 153120, Note_off_c, 9, 40, 64
11, 153120, Note_on_c, 9, 36, 100
11, 153360, Note_off_c, 9, 46, 64
11, 153360, Note_off_c, 9, 36, 64
11, 153360, Note_on_c, 9, 46, 100
11, 153600, Note_on_c, 9, 36, 100
11, 153840, Note_off_c, 9, 36, 64
11, 153840, Note_off_c, 9, 46, 64
11, 153840, Note_on_c, 9, 40, 100
11, 153840, Note_on_c, 9, 46, 100
11, 154080, Note_off_c, 9, 40, 64
11, 154080, Note_on_c, 9, 40, 100
11, 154200, Note_off_c, 9, 40, 64
11, 154200, Note_on_c, 9, 40, 100
11, 154320, Note_off_c, 9, 46, 64
11, 154320, Note_off_c, 9, 40, 64
11, 154320, Note_on_c, 9, 40, 100
11, 154320, Note_on_c, 9, 46, 100
11, 154560, Note_off_c, 9, 40, 64
11, 154560, Note_on_c, 9, 40, 100
11, 154800, Note_off_c, 9, 46, 64
11, 154800, Note_off_c, 9, 40, 64
11, 154800, Note_on_c, 9, 36, 100
11, 154800, Note_on_c, 9, 57, 85
11, 155033, Note_off_c, 9, 57, 64
11, 155040, Note_off_c, 9, 36, 64
11, 155040, Note_on_c, 9, 36, 100
11, 155040, Note_on_c, 9, 49, 100
11, 155280, Note_off_c, 9, 49, 64
11, 155280, Note_off_c, 9, 36, 64
11, 155280, Note_on_c, 9, 36, 100
11, 155280, Note_on_c, 9, 49, 100
11, 155760, Note_off_c, 9, 49, 64
11, 155760, Note_on_c, 9, 57, 85
11, 155993, Note_off_c, 9, 36, 64
11, 156000, Note_on_c, 9, 36, 100
11, 156240, Note_off_c, 9, 57, 64
11, 156240, Note_off_c, 9, 36, 64
11, 156240, Note_on_c, 9, 40, 100
11, 156240, Note_on_c, 9, 57, 85
11, 156720, Note_off_c, 9, 57, 64
11, 156720, Note_off_c, 9, 40, 64
11, 156720, Note_on_c, 9, 36, 100
11, 156720, Note_on_c, 9, 57, 85
11, 156960, Note_off_c, 9, 36, 64
11, 156960, Note_on_c, 9, 36, 100
11, 157200, Note_off_c, 9, 57, 64
11, 157200, Note_on_c, 9, 57, 85
11, 157440, Note_off_c, 9, 36, 64
11, 157440, Note_on_c, 9, 40, 100
11, 157680, Note_off_c, 9, 57, 64
11, 157680, Note_off_c, 9, 40, 64
11, 157680, Note_on_c, 9, 57, 85
11, 157920, Note_on_c, 9, 36, 100
11, 158160, Note_off_c, 9, 36, 64
11, 158160, Note_off_c, 9, 57, 64
11, 158160, Note_on_c, 9, 40, 100
11, 158160, Note_on_c, 9, 57, 85
11, 158400, Note_off_c, 9, 40, 64
11, 158640, Note_off_c, 9, 57, 64
11, 158640, Note_on_c, 9, 36, 100
11, 158640, Note_on_c, 9, 57, 85
11, 158880, Note_off_c, 9, 36, 64
11, 158880, Note_on_c, 9, 40, 100
11, 159120, Note_off_c, 9, 57, 64
11, 159120, Note_off_c, 9, 40, 64
11, 159120, Note_on_c, 9, 36, 100
11, 159120, Note_on_c, 9, 57, 85
11, 159600, Note_off_c, 9, 57, 64
11, 159600, Note_on_c, 9, 57, 85
11, 159833, Note_off_c, 9, 36, 64
11, 159840, Note_on_c, 9, 36, 100
11, 160080, Note_off_c, 9, 57, 64
11, 160080, Note_off_c, 9, 36, 64
11, 160080, Note_on_c, 9, 40, 100
11, 160080, Note_on_c, 9, 57, 85
11, 160560, Note_off_c, 9, 57, 64
11, 160560, Note_off_c, 9, 40, 64
11, 160560, Note_on_c, 9, 57, 85
11, 160800, Note_on_c, 9, 36, 100
11, 161040, Note_off_c, 9, 57, 64
11, 161040, Note_on_c, 9, 57, 85
11, 161280, Note_off_c, 9, 36, 64
11, 161280, Note_on_c, 9, 40, 100
11, 161520, Note_off_c, 9, 57, 64
11, 161520, Note_off_c, 9, 40, 64
11, 161520, Note_on_c, 9, 57, 85
11, 161760, Note_on_c, 9, 36, 100
11, 162000, Note_off_c, 9, 36, 64
11, 162000, Note_off_c, 9, 57, 64
11, 162000, Note_on_c, 9, 40, 100
11, 162000, Note_on_c, 9, 57, 85
11, 162240, Note_off_c, 9, 40, 64
11, 162240, Note_on_c, 9, 36, 100
11, 162480, Note_off_c, 9, 57, 64
11, 162480, Note_off_c, 9, 36, 64
11, 162480, Note_on_c, 9, 40, 100
11, 162480, Note_on_c, 9, 57, 85
11, 162720, Note_off_c, 9, 40, 64
11, 162720, Note_on_c, 9, 36, 100
11, 162960, Note_off_c, 9, 57, 64
11, 162960, Note_off_c, 9, 36, 64
11, 162960, Note_on_c, 9, 36, 100
11, 162960, Note_on_c, 9, 49, 100
11, 163440, Note_off_c, 9, 49, 64
11, 163440, Note_on_c, 9, 57, 85
11, 163673, Note_off_c, 9, 36, 64
11, 163680, Note_on_c, 9, 36, 100
11, 163920, Note_off_c, 9, 57, 64
11, 163920, Note_off_c, 9, 36, 64
11, 163920, Note_on_c, 9, 40, 100
11, 163920, Note_on_c, 9, 57, 85
11, 164400, Note_off_c, 9, 57, 64
11, 164400, Note_off_c, 9, 40, 64
11, 164400, Note_on_c, 9, 57, 85
11, 164640, Note_on_c, 9, 36, 100
11, 164880, Note_off_c, 9, 57, 64
11, 164880, Note_on_c, 9, 57, 85
11, 165120, Note_off_c, 9, 36, 64
11, 165120, Note_on_c, 9, 40, 100
11, 165360, Note_off_c, 9, 57, 64
11, 165360, Note_off_c, 9, 40, 64
11, 165360, Note_on_c, 9, 57, 85
11, 165600, Note_on_c, 9, 36, 100
11, 165840, Note_off_c, 9, 36, 64
11, 165840, Note_off_c, 9, 57, 64
11, 165840, Note_on_c, 9, 40, 100
11, 165840, Note_on_c, 9, 57, 85
11, 166080, Note_off_c, 9, 40, 64
11, 166320, Note_off_c, 9, 57, 64
11, 166320, Note_on_c, 9, 36, 100
11, 166320, Note_on_c, 9, 57, 85
11, 166560, Note_off_c, 9, 36, 64
11, 166560, Note_on_c, 9, 40, 100
11, 166800, Note_off_c, 9, 57, 64
11, 166800, Note_off_c, 9, 40, 64
11, 166800, Note_on_c, 9, 36, 100
11, 166800, Note_on_c, 9, 57, 85
11, 167280, Note_off_c, 9, 57, 64
11, 167280, Note_off_c, 9, 36, 64
11, 167280, Note_on_c, 9, 57, 85
11, 167520, Note_on_c, 9, 36, 100
11, 167760, Note_off_c, 9, 36, 64
11, 167760, Note_off_c, 9, 57, 64
11, 167760, Note_on_c, 9, 40, 100
11, 167760, Note_on_c, 9, 57, 85
11, 168000, Note_off_c, 9, 40, 64
11, 168240, Note_off_c, 9, 57, 64
11, 168240, Note_on_c, 9, 40, 100
11, 168240, Note_on_c, 9, 57, 85
11, 168480, Note_off_c, 9, 40, 64
11, 168480, Note_on_c, 9, 36, 100
11, 168720, Note_off_c, 9, 57, 64
11, 168720, Note_off_c, 9, 36, 64
11, 168720, Note_on_c, 9, 57, 85
11, 168960, Note_on_c, 9, 36, 100
11, 169200, Note_off_c, 9, 36, 64
11, 169200, Note_off_c, 9, 57, 64
11, 169200, Note_on_c, 9, 40, 100
11, 169200, Note_on_c, 9, 57, 85
11, 169440, Note_off_c, 9, 40, 64
11, 169440, Note_on_c, 9, 40, 100
11, 169560, Note_off_c, 9, 40, 64
11, 169560, Note_on_c, 9, 40, 100
11, 169680, Note_off_c, 9, 57, 64
11, 169680, Note_off_c, 9, 40, 64
11, 169680, Note_on_c, 9, 40, 100
11, 169680, Note_on_c, 9, 57, 85
11, 169920, Note_off_c, 9, 40, 64
11, 169920, Note_on_c, 9, 40, 100
11, 170160, Note_off_c, 9, 57, 64
11, 170160, Note_off_c, 9, 40, 64
11, 170160, Note_on_c, 9, 36, 100
11, 170160, Note_on_c, 9, 54, 100
11, 170393, Note_off_c, 9, 54, 64
11, 170400, Note_off_c, 9, 36, 64
11, 170400, Note_on_c, 9, 36, 100
11, 170400, Note_on_c, 9, 49, 100
11, 170640, Note_off_c, 9, 49, 64
11, 170640, Note_off_c, 9, 36, 64
11, 170640, Note_on_c, 9, 49, 100
11, 170640, Note_on_c, 9, 36, 100
11, 171120, Note_off_c, 9, 36, 64
11, 171120, Note_off_c, 9, 49, 64
11, 171120, Note_on_c, 9, 36, 100
11, 171120, Note_on_c, 9, 57, 85
11, 171360, Note_off_c, 9, 36, 64
11, 171360, Note_on_c, 9, 36, 100
11, 171600, Note_off_c, 9, 57, 64
11, 171600, Note_off_c, 9, 36, 64
11, 171600, Note_on_c, 9, 40, 100
11, 171600, Note_on_c, 9, 57, 85
11, 172080, Note_off_c, 9, 57, 64
11, 172080, Note_off_c, 9, 40, 64
11, 172080, Note_on_c, 9, 36, 100
11, 172080, Note_on_c, 9, 57, 85
11, 172320, Note_off_c, 9, 36, 64
11, 172320, Note_on_c, 9, 36, 100
11, 172560, Note_off_c, 9, 57, 64
11, 172560, Note_on_c, 9, 57, 85
11, 172800, Note_off_c, 9, 36, 64
11, 172800, Note_on_c, 9, 40, 100
11, 173040, Note_off_c, 9, 57, 64
11, 173040, Note_off_c, 9, 40, 64
11, 173040, Note_on_c, 9, 57, 85
11, 173280, Note_on_c, 9, 36, 100
11, 173520, Note_off_c, 9, 36, 64
11, 173520, Note_off_c, 9, 57, 64
11, 173520, Note_on_c, 9, 40, 100
11, 173520, Note_on_c, 9, 57, 85
11, 173760, Note_off_c, 9, 40, 64
11, 174000, Note_off_c, 9, 57, 64
11, 174000, Note_on_c, 9, 36, 100
11, 174000, Note_on_c, 9, 57, 85
11, 174240, Note_off_c, 9, 36, 64
11, 174240, Note_on_c, 9, 40, 100
11, 174480, Note_off_c, 9, 57, 64
11, 174480, Note_off_c, 9, 40, 64
11, 174480, Note_on_c, 9, 36, 100
11, 174480, Note_on_c, 9, 57, 85
11, 174960, Note_off_c, 9, 57, 64
11, 174960, Note_on_c, 9, 57, 85
11, 175193, Note_off_c, 9, 36, 64
11, 175200, Note_on_c, 9, 36, 100
11, 175440, Note_off_c, 9, 57, 64
11, 175440, Note_off_c, 9, 36, 64
11, 175440, Note_on_c, 9, 40, 100
11, 175440, Note_on_c, 9, 57, 85
11, 175920, Note_off_c, 9, 57, 64
11, 175920, Note_off_c, 9, 40, 64
11, 175920, Note_on_c, 9, 36, 100
11, 175920, Note_on_c, 9, 57, 85
11, 176160, Note_off_c, 9, 36, 64
11, 176160, Note_on_c, 9, 36, 100
11, 176400, Note_off_c, 9, 57, 64
11, 176400, Note_on_c, 9, 57, 85
11, 176640, Note_off_c, 9, 36, 64
11, 176640, Note_on_c, 9, 40, 100
11, 176760, Note_off_c, 9, 40, 64
11, 176760, Note_on_c, 9, 40, 100
11, 176880, Note_off_c, 9, 57, 64
11, 176880, Note_off_c, 9, 40, 64
11, 176880, Note_on_c, 9, 57, 85
11, 177120, Note_on_c, 9, 40, 100
11, 177240, Note_off_c, 9, 40, 64
11, 177240, Note_on_c, 9, 40, 100
11, 177360, Note_off_c, 9, 57, 64
11, 177360, Note_off_c, 9, 40, 64
11, 177360, Note_on_c, 9, 40, 100
11, 177360, Note_on_c, 9, 57, 85
11, 177600, Note_off_c, 9, 40, 64
11, 177600, Note_on_c, 9, 36, 100
11, 177840, Note_off_c, 9, 57, 64
11, 177840, Note_off_c, 9, 36, 64
11, 177840, Note_on_c, 9, 40, 100
11, 177840, Note_on_c, 9, 57, 85
11, 178080, Note_off_c, 9, 40, 64
11, 178080, Note_on_c, 9, 36, 100
11, 178320, Note_off_c, 9, 57, 64
11, 178320, Note_off_c, 9, 36, 64
11, 178320, Note_on_c, 9, 49, 100
11, 178320, Note_on_c, 9, 36, 100
11, 178800, Note_off_c, 9, 36, 64
11, 178800, Note_off_c, 9, 49, 64
11, 178800, Note_on_c, 9, 36, 100
11, 178800, Note_on_c, 9, 57, 85
11, 179040, Note_off_c, 9, 36, 64
11, 179040, Note_on_c, 9, 36, 100
11, 179280, Note_off_c, 9, 57, 64
11, 179280, Note_off_c, 9, 36, 64
11, 179280, Note_on_c, 9, 40, 100
11, 179280, Note_on_c, 9, 57, 85
11, 179760, Note_off_c, 9, 57, 64
11, 179760, Note_off_c, 9, 40, 64
11, 179760, Note_on_c, 9, 57, 85
11, 180000, Note_on_c, 9, 36, 100
11, 180240, Note_off_c, 9, 57, 64
11, 180240, Note_on_c, 9, 57, 85
11, 180480, Note_off_c, 9, 36, 64
11, 180480, Note_on_c, 9, 40, 100
11, 180720, Note_off_c, 9, 57, 64
11, 180720, Note_off_c, 9, 40, 64
11, 180720, Note_on_c, 9, 57, 85
11, 180960, Note_on_c, 9, 36, 100
11, 181200, Note_off_c, 9, 36, 64
11, 181200, Note_off_c, 9, 57, 64
11, 181200, Note_on_c, 9, 40, 100
11, 181200, Note_on_c, 9, 57, 85
11, 181440, Note_off_c, 9, 40, 64
11, 181680, Note_off_c, 9, 57, 64
11, 181680, Note_on_c, 9, 36, 100
11, 181680, Note_on_c, 9, 57, 85
11, 181920, Note_off_c, 9, 36, 64
11, 181920, Note_on_c, 9, 40, 100
11, 182160, Note_off_c, 9, 57, 64
11, 182160, Note_off_c, 9, 40, 64
11, 182160, Note_on_c, 9, 36, 100
11, 182160, Note_on_c, 9, 57, 85
11, 182640, Note_off_c, 9, 57, 64
11, 182640, Note_off_c, 9, 36, 64
11, 182640, Note_on_c, 9, 57, 85
11, 182880, Note_on_c, 9, 40, 100
11, 182925, Note_on_c, 9, 40, 100
11, 182940, Note_off_c, 9, 40, 64
11, 182955, Note_off_c, 9, 40, 64
11, 183120, Note_off_c, 9, 57, 64
11, 183120, Note_on_c, 9, 40, 100
11, 183165, Note_on_c, 9, 40, 100
11, 183178, Note_off_c, 9, 40, 64
11, 183195, Note_off_c, 9, 40, 64
11, 183600, Note_on_c, 9, 36, 100
11, 183600, Note_on_c, 9, 49, 100
11, 183840, Note_off_c, 9, 49, 64
11, 183840, Note_off_c, 9, 36, 64
11, 183840, Note_on_c, 9, 36, 100
11, 183840, Note_on_c, 9, 49, 100
11, 184080, Note_off_c, 9, 49, 64
11, 184080, Note_off_c, 9, 36, 64
11, 184320, Note_on_c, 9, 40, 100
11, 184365, Note_on_c, 9, 40, 100
11, 184380, Note_off_c, 9, 40, 64
11, 184395, Note_off_c, 9, 40, 64
11, 184560, Note_on_c, 9, 40, 100
11, 184605, Note_on_c, 9, 40, 100
11, 184618, Note_off_c, 9, 40, 64
11, 184635, Note_off_c, 9, 40, 64
11, 184800, Note_on_c, 9, 40, 100
11, 184845, Note_on_c, 9, 40, 100
11, 184860, Note_off_c, 9, 40, 64
11, 184875, Note_off_c, 9, 40, 64
11, 185040, Note_on_c, 9, 40, 100
11, 185085, Note_on_c, 9, 40, 100
11, 185098, Note_off_c, 9, 40, 64
11, 185115, Note_off_c, 9, 40, 64
11, 185280, Note_on_c, 9, 36, 100
11, 185280, Note_on_c, 9, 49, 100
11, 185520, Note_off_c, 9, 49, 64
11, 185520, Note_off_c, 9, 36, 64
11, 185520, Note_on_c, 9, 36, 100
11, 185520, Note_on_c, 9, 52, 100
11, 185760, Note_off_c, 9, 52, 64
11, 185760, Note_off_c, 9, 36, 64
11, 185760, Note_on_c, 9, 36, 100
11, 185760, Note_on_c, 9, 49, 100
11, 186000, Note_off_c, 9, 49, 64
11, 186000, Note_off_c, 9, 36, 64
11, 186000, Note_on_c, 9, 36, 100
11, 186000, Note_on_c, 9, 49, 100
11, 186480, Note_off_c, 9, 49, 64
11, 186480, Note_off_c, 9, 36, 64
11, 186480, Note_on_c, 9, 36, 100
11, 186480, Note_on_c, 9, 55, 90
11, 186720, Note_off_c, 9, 36, 64
11, 186720, Note_on_c, 9, 36, 100
11, 186960, Note_off_c, 9, 55, 64
11, 186960, Note_off_c, 9, 36, 64
11, 186960, Note_on_c, 9, 40, 100
11, 186960, Note_on_c, 9, 55, 90
11, 187440, Note_off_c, 9, 55, 64
11, 187440, Note_off_c, 9, 40, 64
11, 187440, Note_on_c, 9, 36, 100
11, 187440, Note_on_c, 9, 55, 90
11, 187680, Note_off_c, 9, 36, 64
11, 187680, Note_on_c, 9, 36, 100
11, 187920, Note_off_c, 9, 55, 64
11, 187920, Note_off_c, 9, 36, 64
11, 187920, Note_on_c, 9, 55, 90
11, 188160, Note_on_c, 9, 40, 100
11, 188400, Note_off_c, 9, 40, 64
11, 188400, Note_off_c, 9, 55, 64
11, 188400, Note_on_c, 9, 36, 100
11, 188400, Note_on_c, 9, 55, 90
11, 188640, Note_off_c, 9, 36, 64
11, 188640, Note_on_c, 9, 36, 100
11, 188880, Note_off_c, 9, 55, 64
11, 188880, Note_off_c, 9, 36, 64
11, 188880, Note_on_c, 9, 40, 100
11, 188880, Note_on_c, 9, 55, 90
11, 189120, Note_off_c, 9, 40, 64
11, 189360, Note_off_c, 9, 55, 64
11, 189360, Note_on_c, 9, 36, 100
11, 189360, Note_on_c, 9, 55, 90
11, 189600, Note_off_c, 9, 36, 64
11, 189600, Note_on_c, 9, 40, 100
11, 189840, Note_off_c, 9, 55, 64
11, 189840, Note_off_c, 9, 40, 64
11, 189840, Note_on_c, 9, 36, 100
11, 189840, Note_on_c, 9, 55, 90
11, 190320, Note_off_c, 9, 55, 64
11, 190320, Note_on_c, 9, 55, 90
11, 190553, Note_off_c, 9, 36, 64
11, 190560, Note_on_c, 9, 36, 100
11, 190800, Note_off_c, 9, 55, 64
11, 190800, Note_off_c, 9, 36, 64
11, 190800, Note_on_c, 9, 40, 100
11, 190800, Note_on_c, 9, 55, 90
11, 191280, Note_off_c, 9, 55, 64
11, 191280, Note_off_c, 9, 40, 64
11, 191280, Note_on_c, 9, 36, 100
11, 191280, Note_on_c, 9, 49, 100
11, 191513, Note_off_c, 9, 49, 64
11, 191520, Note_off_c, 9, 36, 64
11, 191520, Note_on_c, 9, 36, 100
11, 191520, Note_on_c, 9, 49, 100
11, 191760, Note_off_c, 9, 49, 64
11, 191760, Note_off_c, 9, 36, 64
11, 191760, Note_on_c, 9, 46, 100
11, 191880, Note_off_c, 9, 46, 64
11, 191880, Note_on_c, 9, 42, 100
11, 192000, Note_off_c, 9, 42, 64
11, 192000, Note_on_c, 9, 40, 100
11, 192120, Note_off_c, 9, 40, 64
11, 192120, Note_on_c, 9, 40, 100
11, 192240, Note_off_c, 9, 40, 64
11, 192240, Note_on_c, 9, 40, 100
11, 192360, Note_off_c, 9, 40, 64
11, 192360, Note_on_c, 9, 40, 100
11, 192480, Note_off_c, 9, 40, 64
11, 192480, Note_on_c, 9, 40, 100
11, 192600, Note_off_c, 9, 40, 64
11, 192600, Note_on_c, 9, 40, 100
11, 192720, Note_off_c, 9, 40, 64
11, 192720, Note_on_c, 9, 50, 100
11, 192840, Note_off_c, 9, 50, 64
11, 192840, Note_on_c, 9, 50, 100
11, 192960, Note_off_c, 9, 50, 64
11, 192960, Note_on_c, 9, 50, 100
11, 193080, Note_off_c, 9, 50, 64
11, 193080, Note_on_c, 9, 50, 100
11, 193200, Note_off_c, 9, 50, 64
11, 193200, Note_on_c, 9, 48, 100
11, 193320, Note_off_c, 9, 48, 64
11, 193320, Note_on_c, 9, 48, 100
11, 193440, Note_off_c, 9, 48, 64
11, 193440, Note_on_c, 9, 47, 100
11, 193560, Note_off_c, 9, 47, 64
11, 193560, Note_on_c, 9, 45, 100
11, 193680, Note_off_c, 9, 45, 64
11, 193680, Note_on_c, 9, 36, 100
11, 193680, Note_on_c, 9, 49, 100
11, 194160, Note_off_c, 9, 49, 64
11, 194160, Note_off_c, 9, 36, 64
11, 194160, Note_on_c, 9, 36, 100
11, 194160, Note_on_c, 9, 55, 90
11, 194400, Note_off_c, 9, 36, 64
11, 194400, Note_on_c, 9, 36, 100
11, 194640, Note_off_c, 9, 55, 64
11, 194640, Note_off_c, 9, 36, 64
11, 194640, Note_on_c, 9, 40, 100
11, 194640, Note_on_c, 9, 55, 90
11, 195120, Note_off_c, 9, 55, 64
11, 195120, Note_off_c, 9, 40, 64
11, 195120, Note_on_c, 9, 36, 100
11, 195120, Note_on_c, 9, 55, 90
11, 195360, Note_off_c, 9, 36, 64
11, 195360, Note_on_c, 9, 36, 100
11, 195600, Note_off_c, 9, 55, 64
11, 195600, Note_on_c, 9, 55, 90
11, 195840, Note_off_c, 9, 36, 64
11, 195840, Note_on_c, 9, 40, 100
11, 196080, Note_off_c, 9, 55, 64
11, 196080, Note_off_c, 9, 40, 64
11, 196080, Note_on_c, 9, 36, 100
11, 196080, Note_on_c, 9, 55, 90
11, 196320, Note_off_c, 9, 36, 64
11, 196320, Note_on_c, 9, 36, 100
11, 196560, Note_off_c, 9, 55, 64
11, 196560, Note_off_c, 9, 36, 64
11, 196560, Note_on_c, 9, 40, 100
11, 196560, Note_on_c, 9, 55, 90
11, 196800, Note_off_c, 9, 40, 64
11, 197040, Note_off_c, 9, 55, 64
11, 197040, Note_on_c, 9, 36, 100
11, 197040, Note_on_c, 9, 55, 90
11, 197280, Note_off_c, 9, 36, 64
11, 197280, Note_on_c, 9, 40, 100
11, 197520, Note_off_c, 9, 55, 64
11, 197520, Note_off_c, 9, 40, 64
11, 197520, Note_on_c, 9, 36, 100
11, 197520, Note_on_c, 9, 55, 90
11, 197760, Note_off_c, 9, 36, 64
11, 198000, Note_off_c, 9, 55, 64
11, 198000, Note_on_c, 9, 55, 90
11, 198240, Note_on_c, 9, 40, 100
11, 198480, Note_off_c, 9, 40, 64
11, 198480, Note_off_c, 9, 55, 64
11, 198480, Note_on_c, 9, 40, 100
11, 198480, Note_on_c, 9, 55, 90
11, 198720, Note_off_c, 9, 40, 64
11, 198720, Note_on_c, 9, 36, 100
11, 198840, Note_off_c, 9, 36, 64
11, 198840, Note_on_c, 9, 36, 100
11, 198960, Note_off_c, 9, 55, 64
11, 198960, Note_off_c, 9, 36, 64
11, 198960, Note_on_c, 9, 40, 100
11, 198960, Note_on_c, 9, 55, 90
11, 199200, Note_off_c, 9, 40, 64
11, 199200, Note_on_c, 9, 40, 100
11, 199440, Note_off_c, 9, 55, 64
11, 199440, Note_off_c, 9, 40, 64
11, 199440, Note_on_c, 9, 55, 90
11, 199680, Note_on_c, 9, 40, 100
11, 199920, Note_off_c, 9, 40, 64
11, 199920, Note_off_c, 9, 55, 64
11, 199920, Note_on_c, 9, 40, 100
11, 199920, Note_on_c, 9, 55, 90
11, 200160, Note_off_c, 9, 40, 64
11, 200160, Note_on_c, 9, 36, 100
11, 200400, Note_off_c, 9, 55, 64
11, 200400, Note_off_c, 9, 36, 64
11, 200400, Note_on_c, 9, 40, 100
11, 200400, Note_on_c, 9, 55, 90
11, 200640, Note_off_c, 9, 40, 64
11, 200640, Note_on_c, 9, 36, 100
11, 200880, Note_off_c, 9, 55, 64
11, 200880, Note_off_c, 9, 36, 64
11, 200880, Note_on_c, 9, 43, 100
11, 200880, Note_on_c, 9, 55, 90
11, 201120, Note_off_c, 9, 43, 64
11, 201120, Note_on_c, 9, 36, 100
11, 201120, Note_on_c, 9, 49, 100
11, 201360, Note_off_c, 9, 49, 64
11, 201360, Note_off_c, 9, 55, 64
11, 201360, Note_off_c, 9, 36, 64
11, 201360, Note_on_c, 9, 49, 100
11, 201360, Note_on_c, 9, 36, 100
11, 201840, Note_off_c, 9, 36, 64
11, 201840, Note_off_c, 9, 49, 64
11, 201840, Note_on_c, 9, 36, 100
11, 201840, Note_on_c, 9, 55, 90
11, 202080, Note_off_c, 9, 36, 64
11, 202080, Note_on_c, 9, 36, 100
11, 202320, Note_off_c, 9, 55, 64
11, 202320, Note_off_c, 9, 36, 64
11, 202320, Note_on_c, 9, 40, 100
11, 202320, Note_on_c, 9, 55, 90
11, 202800, Note_off_c, 9, 55, 64
11, 202800, Note_off_c, 9, 40, 64
11, 202800, Note_on_c, 9, 36, 100
11, 202800, Note_on_c, 9, 55, 90
11, 203040, Note_off_c, 9, 36, 64
11, 203040, Note_on_c, 9, 36, 100
11, 203280, Note_off_c, 9, 55, 64
11, 203280, Note_off_c, 9, 36, 64
11, 203280, Note_on_c, 9, 55, 90
11, 203520, Note_on_c, 9, 40, 100
11, 203760, Note_off_c, 9, 40, 64
11, 203760, Note_off_c, 9, 55, 64
11, 203760, Note_on_c, 9, 36, 100
11, 203760, Note_on_c, 9, 55, 90
11, 204000, Note_off_c, 9, 36, 64
11, 204000, Note_on_c, 9, 36, 100
11, 204240, Note_off_c, 9, 55, 64
11, 204240, Note_off_c, 9, 36, 64
11, 204240, Note_on_c, 9, 40, 100
11, 204240, Note_on_c, 9, 55, 90
11, 204480, Note_off_c, 9, 40, 64
11, 204720, Note_off_c, 9, 55, 64
11, 204720, Note_on_c, 9, 36, 100
11, 204720, Note_on_c, 9, 55, 90
11, 204960, Note_off_c, 9, 36, 64
11, 204960, Note_on_c, 9, 40, 100
11, 205200, Note_off_c, 9, 55, 64
11, 205200, Note_off_c, 9, 40, 64
11, 205200, Note_on_c, 9, 36, 100
11, 205200, Note_on_c, 9, 55, 90
11, 205680, Note_off_c, 9, 55, 64
11, 205680, Note_on_c, 9, 55, 90
11, 205913, Note_off_c, 9, 36, 64
11, 205920, Note_on_c, 9, 36, 100
11, 206160, Note_off_c, 9, 55, 64
11, 206160, Note_off_c, 9, 36, 64
11, 206160, Note_on_c, 9, 40, 100
11, 206160, Note_on_c, 9, 55, 90
11, 206640, Note_off_c, 9, 55, 64
11, 206640, Note_off_c, 9, 40, 64
11, 206640, Note_on_c, 9, 36, 100
11, 206640, Note_on_c, 9, 55, 90
11, 206880, Note_off_c, 9, 36, 64
11, 206880, Note_on_c, 9, 36, 100
11, 207120, Note_off_c, 9, 55, 64
11, 207120, Note_off_c, 9, 36, 64
11, 207120, Note_on_c, 9, 55, 90
11, 207360, Note_on_c, 9, 40, 100
11, 207480, Note_off_c, 9, 40, 64
11, 207480, Note_on_c, 9, 40, 100
11, 207600, Note_off_c, 9, 55, 64
11, 207600, Note_off_c, 9, 40, 64
11, 207600, Note_on_c, 9, 40, 100
11, 207720, Note_off_c, 9, 40, 64
11, 207720, Note_on_c, 9, 40, 100
11, 207840, Note_off_c, 9, 40, 64
11, 207840, Note_on_c, 9, 46, 100
11, 207840, Note_on_c, 9, 36, 100
11, 207960, Note_off_c, 9, 36, 64
11, 207960, Note_off_c, 9, 46, 64
11, 207960, Note_on_c, 9, 42, 100
11, 208080, Note_off_c, 9, 42, 64
11, 208080, Note_on_c, 9, 40, 100
11, 208200, Note_off_c, 9, 40, 64
11, 208200, Note_on_c, 9, 40, 100
11, 208320, Note_off_c, 9, 40, 64
11, 208320, Note_on_c, 9, 40, 100
11, 208440, Note_off_c, 9, 40, 64
11, 208440, Note_on_c, 9, 40, 100
11, 208560, Note_off_c, 9, 40, 64
11, 208560, Note_on_c, 9, 40, 100
11, 208800, Note_off_c, 9, 40, 64
11, 208800, Note_on_c, 9, 36, 100
11, 208800, Note_on_c, 9, 49, 100
11, 209040, Note_off_c, 9, 49, 64
11, 209040, Note_off_c, 9, 36, 64
11, 209040, Note_on_c, 9, 36, 100
11, 209040, Note_on_c, 9, 49, 100
11, 209520, Note_off_c, 9, 49, 64
11, 209520, Note_off_c, 9, 36, 64
11, 209520, Note_on_c, 9, 36, 100
11, 209520, Note_on_c, 9, 55, 90
11, 209760, Note_off_c, 9, 36, 64
11, 209760, Note_on_c, 9, 36, 100
11, 210000, Note_off_c, 9, 55, 64
11, 210000, Note_off_c, 9, 36, 64
11, 210000, Note_on_c, 9, 40, 100
11, 210000, Note_on_c, 9, 55, 90
11, 210480, Note_off_c, 9, 55, 64
11, 210480, Note_off_c, 9, 40, 64
11, 210480, Note_on_c, 9, 36, 100
11, 210480, Note_on_c, 9, 55, 90
11, 210720, Note_off_c, 9, 36, 64
11, 210720, Note_on_c, 9, 36, 100
11, 210960, Note_off_c, 9, 55, 64
11, 210960, Note_off_c, 9, 36, 64
11, 210960, Note_on_c, 9, 55, 90
11, 211200, Note_on_c, 9, 40, 100
11, 211440, Note_off_c, 9, 40, 64
11, 211440, Note_off_c, 9, 55, 64
11, 211440, Note_on_c, 9, 36, 100
11, 211440, Note_on_c, 9, 55, 90
11, 211680, Note_off_c, 9, 36, 64
11, 211680, Note_on_c, 9, 36, 100
11, 211920, Note_off_c, 9, 55, 64
11, 211920, Note_off_c, 9, 36, 64
11, 211920, Note_on_c, 9, 40, 100
11, 211920, Note_on_c, 9, 55, 90
11, 212160, Note_off_c, 9, 40, 64
11, 212400, Note_off_c, 9, 55, 64
11, 212400, Note_on_c, 9, 36, 100
11, 212400, Note_on_c, 9, 55, 90
11, 212640, Note_off_c, 9, 36, 64
11, 212640, Note_on_c, 9, 40, 100
11, 212880, Note_off_c, 9, 55, 64
11, 212880, Note_off_c, 9, 40, 64
11, 212880, Note_on_c, 9, 36, 100
11, 212880, Note_on_c, 9, 55, 90
11, 213360, Note_off_c, 9, 55, 64
11, 213360, Note_on_c, 9, 55, 90
11, 213593, Note_off_c, 9, 36, 64
11, 213600, Note_on_c, 9, 36, 100
11, 213840, Note_off_c, 9, 55, 64
11, 213840, Note_off_c, 9, 36, 64
11, 213840, Note_on_c, 9, 40, 100
11, 213840, Note_on_c, 9, 55, 90
11, 214320, Note_off_c, 9, 55, 64
11, 214320, Note_off_c, 9, 40, 64
11, 214320, Note_on_c, 9, 40, 100
11, 214320, Note_on_c, 9, 55, 90
11, 214560, Note_off_c, 9, 40, 64
11, 214560, Note_on_c, 9, 36, 100
11, 214800, Note_off_c, 9, 55, 64
11, 214800, Note_off_c, 9, 36, 64
11, 214800, Note_on_c, 9, 55, 90
11, 215040, Note_on_c, 9, 36, 100
11, 215280, Note_off_c, 9, 36, 64
11, 215280, Note_off_c, 9, 55, 64
11, 215280, Note_on_c, 9, 55, 90
11, 215520, Note_on_c, 9, 36, 100
11, 215760, Note_off_c, 9, 36, 64
11, 215760, Note_off_c, 9, 55, 64
11, 215760, Note_on_c, 9, 40, 100
11, 215760, Note_on_c, 9, 36, 100
11, 215760, Note_on_c, 9, 43, 100
11, 216000, Note_off_c, 9, 43, 64
11, 216000, Note_off_c, 9, 36, 64
11, 216000, Note_off_c, 9, 40, 64
11, 216000, Note_on_c, 9, 40, 100
11, 216000, Note_on_c, 9, 36, 100
11, 216000, Note_on_c, 9, 43, 100
11, 216240, Note_off_c, 9, 43, 64
11, 216240, Note_off_c, 9, 36, 64
11, 216240, Note_off_c, 9, 40, 64
11, 216240, Note_on_c, 9, 40, 100
11, 216240, Note_on_c, 9, 36, 100
11, 216240, Note_on_c, 9, 43, 100
11, 216480, Note_off_c, 9, 43, 64
11, 216480, Note_off_c, 9, 36, 64
11, 216480, Note_off_c, 9, 40, 64
11, 216480, Note_on_c, 9, 40, 100
11, 216480, Note_on_c, 9, 36, 100
11, 216480, Note_on_c, 9, 43, 100
11, 216720, Note_off_c, 9, 43, 64
11, 216720, Note_off_c, 9, 36, 64
11, 216720, Note_off_c, 9, 40, 64
11, 216720, Note_on_c, 9, 36, 100
11, 216720, Note_on_c, 9, 49, 100
11, 217200, Note_off_c, 9, 49, 64
11, 217200, Note_off_c, 9, 36, 64
11, 217200, Note_on_c, 9, 36, 100
11, 217200, Note_on_c, 9, 55, 90
11, 217440, Note_off_c, 9, 36, 64
11, 217440, Note_on_c, 9, 36, 100
11, 217680, Note_off_c, 9, 55, 64
11, 217680, Note_off_c, 9, 36, 64
11, 217680, Note_on_c, 9, 40, 100
11, 217680, Note_on_c, 9, 55, 90
11, 218160, Note_off_c, 9, 55, 64
11, 218160, Note_off_c, 9, 40, 64
11, 218160, Note_on_c, 9, 36, 100
11, 218160, Note_on_c, 9, 55, 90
11, 218400, Note_off_c, 9, 36, 64
11, 218400, Note_on_c, 9, 36, 100
11, 218640, Note_off_c, 9, 55, 64
11, 218640, Note_off_c, 9, 36, 64
11, 218640, Note_on_c, 9, 55, 90
11, 218880, Note_on_c, 9, 40, 100
11, 219120, Note_off_c, 9, 40, 64
11, 219120, Note_off_c, 9, 55, 64
11, 219120, Note_on_c, 9, 36, 100
11, 219120, Note_on_c, 9, 55, 90
11, 219360, Note_off_c, 9, 36, 64
11, 219360, Note_on_c, 9, 36, 100
11, 219600, Note_off_c, 9, 55, 64
11, 219600, Note_off_c, 9, 36, 64
11, 219600, Note_on_c, 9, 40, 100
11, 219600, Note_on_c, 9, 55, 90
11, 219840, Note_off_c, 9, 40, 64
11, 220080, Note_off_c, 9, 55, 64
11, 220080, Note_on_c, 9, 36, 100
11, 220080, Note_on_c, 9, 55, 90
11, 220320, Note_off_c, 9, 36, 64
11, 220320, Note_on_c, 9, 40, 100
11, 220560, Note_off_c, 9, 55, 64
11, 220560, Note_off_c, 9, 40, 64
11, 220560, Note_on_c, 9, 36, 100
11, 220560, Note_on_c, 9, 55, 90
11, 221040, Note_off_c, 9, 55, 64
11, 221040, Note_on_c, 9, 55, 90
11, 221273, Note_off_c, 9, 36, 64
11, 221280, Note_on_c, 9, 36, 100
11, 221520, Note_off_c, 9, 55, 64
11, 221520, Note_off_c, 9, 36, 64
11, 221520, Note_on_c, 9, 40, 100
11, 221520, Note_on_c, 9, 55, 90
11, 222000, Note_off_c, 9, 55, 64
11, 222000, Note_off_c, 9, 40, 64
11, 222000, Note_on_c, 9, 36, 100
11, 222000, Note_on_c, 9, 55, 90
11, 222240, Note_off_c, 9, 36, 64
11, 222240, Note_on_c, 9, 36, 100
11, 222480, Note_off_c, 9, 55, 64
11, 222480, Note_off_c, 9, 36, 64
11, 222480, Note_on_c, 9, 55, 90
11, 222720, Note_on_c, 9, 40, 100
11, 222840, Note_off_c, 9, 40, 64
11, 222840, Note_on_c, 9, 40, 100
11, 222960, Note_off_c, 9, 55, 64
11, 222960, Note_off_c, 9, 40, 64
11, 222960, Note_on_c, 9, 40, 100
11, 223080, Note_off_c, 9, 40, 64
11, 223080, Note_on_c, 9, 40, 100
11, 223200, Note_off_c, 9, 40, 64
11, 223200, Note_on_c, 9, 36, 100
11, 223200, Note_on_c, 9, 46, 100
11, 223200, Note_on_c, 9, 55, 90
11, 223320, Note_off_c, 9, 46, 64
11, 223320, Note_off_c, 9, 36, 64
11, 223320, Note_on_c, 9, 42, 100
11, 223440, Note_off_c, 9, 42, 64
11, 223440, Note_on_c, 9, 40, 100
11, 223560, Note_off_c, 9, 40, 64
11, 223560, Note_on_c, 9, 40, 100
11, 223680, Note_off_c, 9, 55, 64
11, 223680, Note_off_c, 9, 40, 64
11, 223680, Note_on_c, 9, 40, 100
11, 223800, Note_off_c, 9, 40, 64
11, 223800, Note_on_c, 9, 40, 100
11, 223920, Note_off_c, 9, 40, 64
11, 223920, Note_on_c, 9, 40, 100
11, 224160, Note_off_c, 9, 40, 64
11, 224160, Note_on_c, 9, 36, 100
11, 224160, Note_on_c, 9, 49, 100
11, 224400, Note_off_c, 9, 49, 64
11, 224400, Note_off_c, 9, 36, 64
11, 224400, Note_on_c, 9, 49, 100
11, 224400, Note_on_c, 9, 36, 100
11, 224880, Note_off_c, 9, 36, 64
11, 224880, Note_off_c, 9, 49, 64
11, 224880, Note_on_c, 9, 36, 100
11, 224880, Note_on_c, 9, 55, 90
11, 225120, Note_off_c, 9, 36, 64
11, 225120, Note_on_c, 9, 36, 100
11, 225360, Note_off_c, 9, 55, 64
11, 225360, Note_off_c, 9, 36, 64
11, 225360, Note_on_c, 9, 40, 100
11, 225360, Note_on_c, 9, 55, 90
11, 225840, Note_off_c, 9, 55, 64
11, 225840, Note_off_c, 9, 40, 64
11, 225840, Note_on_c, 9, 36, 100
11, 225840, Note_on_c, 9, 55, 90
11, 226080, Note_off_c, 9, 36, 64
11, 226080, Note_on_c, 9, 36, 100
11, 226320, Note_off_c, 9, 55, 64
11, 226320, Note_off_c, 9, 36, 64
11, 226320, Note_on_c, 9, 55, 90
11, 226560, Note_on_c, 9, 40, 100
11, 226800, Note_off_c, 9, 40, 64
11, 226800, Note_off_c, 9, 55, 64
11, 226800, Note_on_c, 9, 36, 100
11, 226800, Note_on_c, 9, 55, 90
11, 227040, Note_off_c, 9, 36, 64
11, 227040, Note_on_c, 9, 36, 100
11, 227280, Note_off_c, 9, 55, 64
11, 227280, Note_off_c, 9, 36, 64
11, 227280, Note_on_c, 9, 40, 100
11, 227280, Note_on_c, 9, 55, 90
11, 227520, Note_off_c, 9, 40, 64
11, 227760, Note_off_c, 9, 55, 64
11, 227760, Note_on_c, 9, 36, 100
11, 227760, Note_on_c, 9, 55, 90
11, 228000, Note_off_c, 9, 36, 64
11, 228000, Note_on_c, 9, 40, 100
11, 228240, Note_off_c, 9, 55, 64
11, 228240, Note_off_c, 9, 40, 64
11, 228240, Note_on_c, 9, 36, 100
11, 228240, Note_on_c, 9, 55, 90
11, 228720, Note_off_c, 9, 55, 64
11, 228720, Note_on_c, 9, 55, 90
11, 228953, Note_off_c, 9, 36, 64
11, 228960, Note_on_c, 9, 36, 100
11, 229200, Note_off_c, 9, 55, 64
11, 229200, Note_off_c, 9, 36, 64
11, 229200, Note_on_c, 9, 40, 100
11, 229200, Note_on_c, 9, 55, 90
11, 229680, Note_off_c, 9, 55, 64
11, 229680, Note_off_c, 9, 40, 64
11, 229680, Note_on_c, 9, 40, 100
11, 229680, Note_on_c, 9, 55, 90
11, 229920, Note_off_c, 9, 40, 64
11, 229920, Note_on_c, 9, 36, 100
11, 230160, Note_off_c, 9, 55, 64
11, 230160, Note_off_c, 9, 36, 64
11, 230160, Note_on_c, 9, 55, 100
11, 230400, Note_on_c, 9, 36, 100
11, 230640, Note_off_c, 9, 36, 64
11, 230640, Note_off_c, 9, 55, 64
11, 230640, Note_on_c, 9, 40, 100
11, 230640, Note_on_c, 9, 57, 85
11, 230880, Note_off_c, 9, 40, 64
11, 231120, Note_off_c, 9, 57, 64
11, 231120, Note_on_c, 9, 40, 100
11, 231120, Note_on_c, 9, 55, 100
11, 231360, Note_off_c, 9, 40, 64
11, 231360, Note_on_c, 9, 36, 100
11, 231600, Note_off_c, 9, 55, 64
11, 231600, Note_off_c, 9, 36, 64
11, 231600, Note_on_c, 9, 40, 100
11, 231600, Note_on_c, 9, 57, 85
11, 231840, Note_off_c, 9, 40, 64
11, 231840, Note_on_c, 9, 36, 100
11, 232080, Note_off_c, 9, 57, 64
11, 232080, Note_off_c, 9, 36, 64
11, 232080, Note_on_c, 9, 36, 100
11, 232080, Note_on_c, 9, 49, 100
11, 232560, Note_off_c, 9, 49, 64
11, 232560, Note_off_c, 9, 36, 64
11, 232560, Note_on_c, 9, 36, 100
11, 232560, Note_on_c, 9, 55, 90
11, 232800, Note_off_c, 9, 36, 64
11, 232800, Note_on_c, 9, 36, 100
11, 233040, Note_off_c, 9, 55, 64
11, 233040, Note_off_c, 9, 36, 64
11, 233040, Note_on_c, 9, 40, 100
11, 233040, Note_on_c, 9, 57, 85
11, 233520, Note_off_c, 9, 57, 64
11, 233520, Note_off_c, 9, 40, 64
11, 233520, Note_on_c, 9, 36, 100
11, 233520, Note_on_c, 9, 57, 85
11, 233760, Note_off_c, 9, 36, 64
11, 233760, Note_on_c, 9, 36, 100
11, 234000, Note_off_c, 9, 57, 64
11, 234000, Note_off_c, 9, 36, 64
11, 234000, Note_on_c, 9, 57, 85
11, 234240, Note_on_c, 9, 40, 100
11, 234480, Note_off_c, 9, 40, 64
11, 234480, Note_off_c, 9, 57, 64
11, 234480, Note_on_c, 9, 36, 100
11, 234480, Note_on_c, 9, 57, 85
11, 234720, Note_off_c, 9, 36, 64
11, 234720, Note_on_c, 9, 36, 100
11, 234960, Note_off_c, 9, 57, 64
11, 234960, Note_off_c, 9, 36, 64
11, 234960, Note_on_c, 9, 40, 100
11, 234960, Note_on_c, 9, 57, 85
11, 235200, Note_off_c, 9, 40, 64
11, 235440, Note_off_c, 9, 57, 64
11, 235440, Note_on_c, 9, 36, 100
11, 235440, Note_on_c, 9, 57, 85
11, 235680, Note_off_c, 9, 36, 64
11, 235680, Note_on_c, 9, 40, 100
11, 235920, Note_off_c, 9, 57, 64
11, 235920, Note_off_c, 9, 40, 64
11, 235920, Note_on_c, 9, 36, 100
11, 235920, Note_on_c, 9, 57, 85
11, 236400, Note_off_c, 9, 57, 64
11, 236400, Note_on_c, 9, 57, 85
11, 236633, Note_off_c, 9, 36, 64
11, 236640, Note_on_c, 9, 36, 100
11, 236880, Note_off_c, 9, 57, 64
11, 236880, Note_off_c, 9, 36, 64
11, 236880, Note_on_c, 9, 40, 100
11, 236880, Note_on_c, 9, 57, 85
11, 237360, Note_off_c, 9, 57, 64
11, 237360, Note_off_c, 9, 40, 64
11, 237360, Note_on_c, 9, 40, 100
11, 237360, Note_on_c, 9, 57, 85
11, 237600, Note_off_c, 9, 40, 64
11, 237600, Note_on_c, 9, 36, 100
11, 237840, Note_off_c, 9, 57, 64
11, 237840, Note_off_c, 9, 36, 64
11, 237840, Note_on_c, 9, 57, 85
11, 238080, Note_on_c, 9, 40, 100
11, 238320, Note_off_c, 9, 40, 64
11, 238320, Note_off_c, 9, 57, 64
11, 238320, Note_on_c, 9, 40, 100
11, 238320, Note_on_c, 9, 57, 85
11, 238560, Note_off_c, 9, 40, 64
11, 238560, Note_on_c, 9, 36, 100
11, 238800, Note_off_c, 9, 57, 64
11, 238800, Note_off_c, 9, 36, 64
11, 238800, Note_on_c, 9, 36, 100
11, 238800, Note_on_c, 9, 57, 85
11, 239040, Note_off_c, 9, 36, 64
11, 239040, Note_on_c, 9, 40, 100
11, 239280, Note_off_c, 9, 57, 64
11, 239280, Note_off_c, 9, 40, 64
11, 239280, Note_on_c, 9, 40, 100
11, 239280, Note_on_c, 9, 57, 85
11, 239520, Note_off_c, 9, 40, 64
11, 239520, Note_on_c, 9, 36, 100
11, 239760, Note_off_c, 9, 57, 64
11, 239760, Note_off_c, 9, 36, 64
11, 239760, Note_on_c, 9, 49, 100
11, 239760, Note_on_c, 9, 36, 100
11, 240240, Note_off_c, 9, 36, 64
11, 240240, Note_off_c, 9, 49, 64
11, 240240, Note_on_c, 9, 36, 100
11, 240240, Note_on_c, 9, 55, 90
11, 240480, Note_off_c, 9, 36, 64
11, 240480, Note_on_c, 9, 36, 100
11, 240720, Note_off_c, 9, 55, 64
11, 240720, Note_off_c, 9, 36, 64
11, 240720, Note_on_c, 9, 40, 100
11, 240720, Note_on_c, 9, 57, 85
11, 241200, Note_off_c, 9, 57, 64
11, 241200, Note_off_c, 9, 40, 64
11, 241200, Note_on_c, 9, 36, 100
11, 241200, Note_on_c, 9, 57, 85
11, 241440, Note_off_c, 9, 36, 64
11, 241440, Note_on_c, 9, 36, 100
11, 241680, Note_off_c, 9, 57, 64
11, 241680, Note_off_c, 9, 36, 64
11, 241680, Note_on_c, 9, 57, 85
11, 241920, Note_on_c, 9, 40, 100
11, 242160, Note_off_c, 9, 40, 64
11, 242160, Note_off_c, 9, 57, 64
11, 242160, Note_on_c, 9, 57, 85
11, 242400, Note_on_c, 9, 36, 100
11, 242640, Note_off_c, 9, 36, 64
11, 242640, Note_off_c, 9, 57, 64
11, 242640, Note_on_c, 9, 40, 100
11, 242640, Note_on_c, 9, 57, 85
11, 242880, Note_off_c, 9, 40, 64
11, 243120, Note_off_c, 9, 57, 64
11, 243120, Note_on_c, 9, 36, 100
11, 243120, Note_on_c, 9, 57, 85
11, 243360, Note_off_c, 9, 36, 64
11, 243360, Note_on_c, 9, 40, 100
11, 243600, Note_off_c, 9, 57, 64
11, 243600, Note_off_c, 9, 40, 64
11, 243600, Note_on_c, 9, 36, 100
11, 243600, Note_on_c, 9, 57, 85
11, 244080, Note_off_c, 9, 57, 64
11, 244080, Note_on_c, 9, 57, 85
11, 244313, Note_off_c, 9, 36, 64
11, 244320, Note_on_c, 9, 36, 100
11, 244560, Note_off_c, 9, 57, 64
11, 244560, Note_off_c, 9, 36, 64
11, 244560, Note_on_c, 9, 40, 100
11, 244560, Note_on_c, 9, 57, 85
11, 245040, Note_off_c, 9, 57, 64
11, 245040, Note_off_c, 9, 40, 64
11, 245040, Note_on_c, 9, 40, 100
11, 245040, Note_on_c, 9, 57, 85
11, 245280, Note_off_c, 9, 40, 64
11, 245280, Note_on_c, 9, 40, 100
11, 245520, Note_off_c, 9, 57, 64
11, 245520, Note_off_c, 9, 40, 64
11, 245520, Note_on_c, 9, 57, 85
11, 245773, Note_on_c, 9, 40, 100
11, 245805, Note_on_c, 9, 40, 100
11, 245893, Note_off_c, 9, 40, 64
11, 245925, Note_off_c, 9, 40, 64
11, 246000, Note_off_c, 9, 57, 64
11, 246013, Note_on_c, 9, 40, 100
11, 246045, Note_on_c, 9, 40, 100
11, 246133, Note_off_c, 9, 40, 64
11, 246165, Note_off_c, 9, 40, 64
11, 246253, Note_on_c, 9, 36, 100
11, 246253, Note_on_c, 9, 49, 100
11, 246493, Note_off_c, 9, 49, 64
11, 246493, Note_off_c, 9, 36, 64
11, 246493, Note_on_c, 9, 36, 100
11, 246493, Note_on_c, 9, 49, 100
11, 246733, Note_off_c, 9, 49, 64
11, 246733, Note_off_c, 9, 36, 64
11, 246973, Note_on_c, 9, 40, 100
11, 247200, Note_on_c, 9, 49, 100
11, 247200, Note_on_c, 9, 36, 100
11, 247213, Note_off_c, 9, 40, 64
11, 247440, Note_off_c, 9, 49, 64
11, 247440, Note_off_c, 9, 36, 64
11, 247920, Note_on_c, 9, 36, 100
11, 247920, Note_on_c, 9, 57, 85
11, 248160, Note_off_c, 9, 36, 64
11, 248160, Note_on_c, 9, 36, 100
11, 248400, Note_off_c, 9, 57, 64
11, 248400, Note_off_c, 9, 36, 64
11, 248400, Note_on_c, 9, 40, 100
11, 248400, Note_on_c, 9, 57, 85
11, 248880, Note_off_c, 9, 57, 64
11, 248880, Note_off_c, 9, 40, 64
11, 248880, Note_on_c, 9, 36, 100
11, 248880, Note_on_c, 9, 57, 85
11, 249120, Note_off_c, 9, 36, 64
11, 249120, Note_on_c, 9, 36, 100
11, 249360, Note_off_c, 9, 57, 64
11, 249360, Note_off_c, 9, 36, 64
11, 249360, Note_on_c, 9, 57, 85
11, 249600, Note_on_c, 9, 40, 100
11, 249840, Note_off_c, 9, 40, 64
11, 249840, Note_off_c, 9, 57, 64
11, 249840, Note_on_c, 9, 36, 100
11, 249840, Note_on_c, 9, 57, 85
11, 250080, Note_off_c, 9, 36, 64
11, 250080, Note_on_c, 9, 36, 100
11, 250320, Note_off_c, 9, 57, 64
11, 250320, Note_off_c, 9, 36, 64
11, 250320, Note_on_c, 9, 40, 100
11, 250320, Note_on_c, 9, 57, 85
11, 250560, Note_off_c, 9, 40, 64
11, 250800, Note_off_c, 9, 57, 64
11, 250800, Note_on_c, 9, 36, 100
11, 250800, Note_on_c, 9, 57, 85
11, 251040, Note_off_c, 9, 36, 64
11, 251040, Note_on_c, 9, 40, 100
11, 251280, Note_off_c, 9, 57, 64
11, 251280, Note_off_c, 9, 40, 64
11, 251280, Note_on_c, 9, 36, 100
11, 251280, Note_on_c, 9, 57, 85
11, 251760, Note_off_c, 9, 57, 64
11, 251760, Note_on_c, 9, 57, 85
11, 251993, Note_off_c, 9, 36, 64
11, 252000, Note_on_c, 9, 36, 100
11, 252240, Note_off_c, 9, 57, 64
11, 252240, Note_off_c, 9, 36, 64
11, 252240, Note_on_c, 9, 40, 100
11, 252240, Note_on_c, 9, 57, 85
11, 252720, Note_off_c, 9, 57, 64
11, 252720, Note_off_c, 9, 40, 64
11, 252720, Note_on_c, 9, 40, 100
11, 252720, Note_on_c, 9, 57, 85
11, 252953, Note_off_c, 9, 57, 64
11, 252960, Note_off_c, 9, 40, 64
11, 252960, Note_on_c, 9, 36, 100
11, 252960, Note_on_c, 9, 49, 100
11, 253200, Note_off_c, 9, 49, 64
11, 253200, Note_off_c, 9, 36, 64
11, 253440, Note_on_c, 9, 40, 100
11, 253560, Note_off_c, 9, 40, 64
11, 253560, Note_on_c, 9, 40, 100
11, 253680, Note_off_c, 9, 40, 64
11, 253680, Note_on_c, 9, 40, 100
11, 253800, Note_off_c, 9, 40, 64
11, 253800, Note_on_c, 9, 40, 100
11, 253920, Note_off_c, 9, 40, 64
11, 253920, Note_on_c, 9, 40, 100
11, 254040, Note_off_c, 9, 40, 64
11, 254040, Note_on_c, 9, 40, 100
11, 254160, Note_off_c, 9, 40, 64
11, 254160, Note_on_c, 9, 50, 100
11, 254280, Note_off_c, 9, 50, 64
11, 254280, Note_on_c, 9, 50, 100
11, 254400, Note_off_c, 9, 50, 64
11, 254400, Note_on_c, 9, 50, 100
11, 254520, Note_off_c, 9, 50, 64
11, 254520, Note_on_c, 9, 50, 100
11, 254640, Note_off_c, 9, 50, 64
11, 254640, Note_on_c, 9, 48, 100
11, 254760, Note_off_c, 9, 48, 64
11, 254760, Note_on_c, 9, 48, 100
11, 254880, Note_off_c, 9, 48, 64
11, 254880, Note_on_c, 9, 47, 100
11, 255000, Note_off_c, 9, 47, 64
11, 255000, Note_on_c, 9, 45, 100
11, 255120, Note_off_c, 9, 45, 64
11, 255120, Note_on_c, 9, 49, 100
11, 255120, Note_on_c, 9, 36, 100
11, 255600, Note_off_c, 9, 36, 64
11, 255600, Note_off_c, 9, 49, 64
11, 255600, Note_on_c, 9, 36, 100
11, 255600, Note_on_c, 9, 57, 85
11, 255840, Note_off_c, 9, 36, 64
11, 255840, Note_on_c, 9, 36, 100
11, 256080, Note_off_c, 9, 57, 64
11, 256080, Note_off_c, 9, 36, 64
11, 256080, Note_on_c, 9, 40, 100
11, 256080, Note_on_c, 9, 57, 85
11, 256560, Note_off_c, 9, 57, 64
11, 256560, Note_off_c, 9, 40, 64
11, 256560, Note_on_c, 9, 36, 100
11, 256560, Note_on_c, 9, 57, 85
11, 256800, Note_off_c, 9, 36, 64
11, 256800, Note_on_c, 9, 36, 100
11, 257040, Note_off_c, 9, 57, 64
11, 257040, Note_off_c, 9, 36, 64
11, 257040, Note_on_c, 9, 57, 85
11, 257280, Note_on_c, 9, 40, 100
11, 257520, Note_off_c, 9, 40, 64
11, 257520, Note_off_c, 9, 57, 64
11, 257520, Note_on_c, 9, 36, 100
11, 257520, Note_on_c, 9, 57, 85
11, 257760, Note_off_c, 9, 36, 64
11, 257760, Note_on_c, 9, 36, 100
11, 258000, Note_off_c, 9, 57, 64
11, 258000, Note_off_c, 9, 36, 64
11, 258000, Note_on_c, 9, 40, 100
11, 258000, Note_on_c, 9, 57, 85
11, 258240, Note_off_c, 9, 40, 64
11, 258480, Note_off_c, 9, 57, 64
11, 258480, Note_on_c, 9, 36, 100
11, 258480, Note_on_c, 9, 57, 85
11, 258720, Note_off_c, 9, 36, 64
11, 258720, Note_on_c, 9, 40, 100
11, 258960, Note_off_c, 9, 57, 64
11, 258960, Note_off_c, 9, 40, 64
11, 258960, Note_on_c, 9, 36, 100
11, 258960, Note_on_c, 9, 57, 85
11, 259440, Note_off_c, 9, 57, 64
11, 259440, Note_on_c, 9, 57, 85
11, 259673, Note_off_c, 9, 36, 64
11, 259680, Note_on_c, 9, 36, 100
11, 259920, Note_off_c, 9, 57, 64
11, 259920, Note_off_c, 9, 36, 64
11, 259920, Note_on_c, 9, 40, 100
11, 259920, Note_on_c, 9, 57, 85
11, 260400, Note_off_c, 9, 57, 64
11, 260400, Note_off_c, 9, 40, 64
11, 260400, Note_on_c, 9, 40, 100
11, 260640, Note_off_c, 9, 40, 64
11, 260640, Note_on_c, 9, 36, 100
11, 260640, Note_on_c, 9, 55, 100
11, 260873, Note_off_c, 9, 55, 64
11, 260880, Note_off_c, 9, 36, 64
11, 260880, Note_on_c, 9, 40, 100
11, 261000, Note_off_c, 9, 40, 64
11, 261000, Note_on_c, 9, 40, 100
11, 261120, Note_off_c, 9, 40, 64
11, 261120, Note_on_c, 9, 40, 100
11, 261360, Note_on_c, 9, 40, 100
11, 261367, Note_off_c, 9, 40, 64
11, 261480, Note_off_c, 9, 40, 64
11, 261480, Note_on_c, 9, 40, 100
11, 261600, Note_off_c, 9, 40, 64
11, 261600, Note_on_c, 9, 40, 100
11, 261840, Note_on_c, 9, 40, 100
11, 261847, Note_off_c, 9, 40, 64
11, 262080, Note_off_c, 9, 40, 64
11, 262080, Note_on_c, 9, 40, 100
11, 262320, Note_off_c, 9, 40, 64
11, 262320, Note_on_c, 9, 36, 100
11, 262320, Note_on_c, 9, 55, 100
11, 262560, Note_off_c, 9, 55, 64
11, 262560, Note_off_c, 9, 36, 64
11, 262560, Note_on_c, 9, 36, 100
11, 262560, Note_on_c, 9, 57, 85
11, 262800, Note_off_c, 9, 57, 64
11, 262800, Note_off_c, 9, 36, 64
11, 262800, Note_on_c, 9, 36, 100
11, 262800, Note_on_c, 9, 49, 100
11, 263280, Note_off_c, 9, 49, 64
11, 263280, Note_off_c, 9, 36, 64
11, 263280, Note_on_c, 9, 36, 100
11, 263280, Note_on_c, 9, 57, 85
11, 263520, Note_off_c, 9, 36, 64
11, 263520, Note_on_c, 9, 36, 100
11, 263760, Note_off_c, 9, 57, 64
11, 263760, Note_off_c, 9, 36, 64
11, 263760, Note_on_c, 9, 40, 100
11, 263760, Note_on_c, 9, 57, 85
11, 264240, Note_off_c, 9, 57, 64
11, 264240, Note_off_c, 9, 40, 64
11, 264240, Note_on_c, 9, 36, 100
11, 264240, Note_on_c, 9, 57, 85
11, 264480, Note_off_c, 9, 36, 64
11, 264480, Note_on_c, 9, 36, 100
11, 264720, Note_off_c, 9, 57, 64
11, 264720, Note_off_c, 9, 36, 64
11, 264720, Note_on_c, 9, 57, 85
11, 264960, Note_on_c, 9, 40, 100
11, 265200, Note_off_c, 9, 40, 64
11, 265200, Note_off_c, 9, 57, 64
11, 265200, Note_on_c, 9, 36, 100
11, 265200, Note_on_c, 9, 57, 85
11, 265440, Note_off_c, 9, 36, 64
11, 265440, Note_on_c, 9, 36, 100
11, 265680, Note_off_c, 9, 57, 64
11, 265680, Note_off_c, 9, 36, 64
11, 265680, Note_on_c, 9, 40, 100
11, 265680, Note_on_c, 9, 57, 85
11, 265920, Note_off_c, 9, 40, 64
11, 266160, Note_off_c, 9, 57, 64
11, 266160, Note_on_c, 9, 36, 100
11, 266160, Note_on_c, 9, 57, 85
11, 266400, Note_off_c, 9, 36, 64
11, 266400, Note_on_c, 9, 40, 100
11, 266640, Note_off_c, 9, 57, 64
11, 266640, Note_off_c, 9, 40, 64
11, 266640, Note_on_c, 9, 36, 100
11, 266640, Note_on_c, 9, 57, 85
11, 267120, Note_off_c, 9, 57, 64
11, 267120, Note_on_c, 9, 57, 85
11, 267353, Note_off_c, 9, 36, 64
11, 267360, Note_on_c, 9, 36, 100
11, 267600, Note_off_c, 9, 57, 64
11, 267600, Note_off_c, 9, 36, 64
11, 267600, Note_on_c, 9, 40, 100
11, 267600, Note_on_c, 9, 57, 85
11, 268080, Note_off_c, 9, 57, 64
11, 268080, Note_off_c, 9, 40, 64
11, 268080, Note_on_c, 9, 36, 100
11, 268080, Note_on_c, 9, 49, 100
11, 268320, Note_off_c, 9, 49, 64
11, 268320, Note_off_c, 9, 36, 64
11, 268320, Note_on_c, 9, 36, 100
11, 268320, Note_on_c, 9, 49, 100
11, 268553, Note_off_c, 9, 49, 64
11, 268560, Note_off_c, 9, 36, 64
11, 268560, Note_on_c, 9, 50, 100
11, 268560, Note_on_c, 9, 61, 100
11, 268680, Note_off_c, 9, 61, 64
11, 268680, Note_off_c, 9, 50, 64
11, 268680, Note_on_c, 9, 50, 100
11, 268680, Note_on_c, 9, 61, 100
11, 268800, Note_off_c, 9, 61, 64
11, 268800, Note_off_c, 9, 50, 64
11, 268800, Note_on_c, 9, 36, 100
11, 268920, Note_off_c, 9, 36, 64
11, 268920, Note_on_c, 9, 36, 100
11, 269040, Note_off_c, 9, 36, 64
11, 269040, Note_on_c, 9, 50, 100
11, 269160, Note_off_c, 9, 50, 64
11, 269160, Note_on_c, 9, 50, 100
11, 269280, Note_off_c, 9, 50, 64
11, 269280, Note_on_c, 9, 48, 100
11, 269400, Note_off_c, 9, 48, 64
11, 269400, Note_on_c, 9, 48, 100
11, 269520, Note_off_c, 9, 48, 64
11, 269520, Note_on_c, 9, 47, 100
11, 269640, Note_off_c, 9, 47, 64
11, 269640, Note_on_c, 9, 47, 100
11, 269760, Note_off_c, 9, 47, 64
11, 269760, Note_on_c, 9, 45, 100
11, 269880, Note_off_c, 9, 45, 64
11, 269880, Note_on_c, 9, 45, 100
11, 270000, Note_off_c, 9, 45, 64
11, 270000, Note_on_c, 9, 43, 100
11, 270120, Note_off_c, 9, 43, 64
11, 270120, Note_on_c, 9, 43, 100
11, 270240, Note_off_c, 9, 43, 64
11, 270240, Note_on_c, 9, 41, 100
11, 270360, Note_off_c, 9, 41, 64
11, 270360, Note_on_c, 9, 41, 100
11, 270480, Note_off_c, 9, 41, 64
11, 270480, Note_on_c, 9, 49, 100
11, 270480, Note_on_c, 9, 36, 100
11, 270960, Note_off_c, 9, 36, 64
11, 270960, Note_off_c, 9, 49, 64
11, 270960, Note_on_c, 9, 57, 85
11, 271200, Note_on_c, 9, 36, 100
11, 271440, Note_off_c, 9, 36, 64
11, 271440, Note_off_c, 9, 57, 64
11, 271440, Note_on_c, 9, 40, 100
11, 271440, Note_on_c, 9, 57, 85
11, 271920, Note_off_c, 9, 57, 64
11, 271920, Note_off_c, 9, 40, 64
11, 271920, Note_on_c, 9, 36, 100
11, 271920, Note_on_c, 9, 57, 85
11, 272160, Note_off_c, 9, 36, 64
11, 272160, Note_on_c, 9, 36, 100
11, 272400, Note_off_c, 9, 57, 64
11, 272400, Note_off_c, 9, 36, 64
11, 272400, Note_on_c, 9, 57, 85
11, 272640, Note_on_c, 9, 40, 100
11, 272880, Note_off_c, 9, 40, 64
11, 272880, Note_off_c, 9, 57, 64
11, 272880, Note_on_c, 9, 36, 100
11, 272880, Note_on_c, 9, 57, 85
11, 273120, Note_off_c, 9, 36, 64
11, 273120, Note_on_c, 9, 36, 100
11, 273360, Note_off_c, 9, 57, 64
11, 273360, Note_off_c, 9, 36, 64
11, 273360, Note_on_c, 9, 40, 100
11, 273360, Note_on_c, 9, 57, 85
11, 273600, Note_off_c, 9, 40, 64
11, 273840, Note_off_c, 9, 57, 64
11, 273840, Note_on_c, 9, 36, 100
11, 273840, Note_on_c, 9, 57, 85
11, 274080, Note_off_c, 9, 36, 64
11, 274080, Note_on_c, 9, 40, 100
11, 274320, Note_off_c, 9, 57, 64
11, 274320, Note_off_c, 9, 40, 64
11, 274320, Note_on_c, 9, 36, 100
11, 274320, Note_on_c, 9, 57, 85
11, 274800, Note_off_c, 9, 57, 64
11, 274800, Note_on_c, 9, 57, 85
11, 275033, Note_off_c, 9, 36, 64
11, 275040, Note_on_c, 9, 40, 100
11, 275040, Note_on_c, 9, 45, 50
11, 275280, Note_off_c, 9, 45, 64
11, 275280, Note_off_c, 9, 57, 64
11, 275280, Note_off_c, 9, 40, 64
11, 275280, Note_on_c, 9, 40, 100
11, 275280, Note_on_c, 9, 45, 50
11, 275760, Note_off_c, 9, 45, 64
11, 275760, Note_off_c, 9, 40, 64
11, 275760, Note_on_c, 9, 40, 100
11, 275760, Note_on_c, 9, 45, 50
11, 276000, Note_off_c, 9, 45, 64
11, 276000, Note_off_c, 9, 40, 64
11, 276000, Note_on_c, 9, 40, 100
11, 276000, Note_on_c, 9, 45, 50
11, 276240, Note_off_c, 9, 45, 64
11, 276240, Note_off_c, 9, 40, 64
11, 305760, Note_on_c, 9, 36, 100
11, 305760, Note_on_c, 9, 46, 100
11, 306000, Note_off_c, 9, 46, 64
11, 306000, Note_off_c, 9, 36, 64
11, 306000, Note_on_c, 9, 42, 100
11, 306240, Note_off_c, 9, 42, 64
11, 306240, Note_on_c, 9, 40, 100
11, 306360, Note_off_c, 9, 40, 64
11, 306360, Note_on_c, 9, 40, 50
11, 306480, Note_off_c, 9, 40, 64
11, 306480, Note_on_c, 9, 40, 50
11, 306600, Note_off_c, 9, 40, 64
11, 306600, Note_on_c, 9, 40, 50
11, 306720, Note_off_c, 9, 40, 64
11, 306720, Note_on_c, 9, 36, 100
11, 306720, Note_on_c, 9, 46, 100
11, 306840, Note_off_c, 9, 46, 64
11, 306840, Note_off_c, 9, 36, 64
11, 306840, Note_on_c, 9, 42, 80
11, 306840, Note_on_c, 9, 40, 50
11, 306960, Note_off_c, 9, 40, 64
11, 306960, Note_off_c, 9, 42, 64
11, 306960, Note_on_c, 9, 40, 50
11, 307080, Note_off_c, 9, 40, 64
11, 307080, Note_on_c, 9, 36, 100
11, 307080, Note_on_c, 9, 46, 100
11, 307200, Note_off_c, 9, 46, 64
11, 307200, Note_off_c, 9, 36, 64
11, 307200, Note_on_c, 9, 42, 80
11, 307200, Note_on_c, 9, 40, 50
11, 307320, Note_off_c, 9, 40, 64
11, 307320, Note_off_c, 9, 42, 64
11, 307320, Note_on_c, 9, 40, 50
11, 307440, Note_off_c, 9, 40, 64
11, 307440, Note_on_c, 9, 36, 100
11, 307560, Note_off_c, 9, 36, 64
11, 307680, Note_on_c, 9, 42, 80
11, 307800, Note_on_c, 9, 36, 100
11, 307800, Note_on_c, 9, 40, 50
11, 307920, Note_off_c, 9, 40, 64
11, 307920, Note_off_c, 9, 36, 64
11, 307920, Note_off_c, 9, 42, 64
11, 307920, Note_on_c, 9, 40, 100
11, 308160, Note_off_c, 9, 40, 64
11, 308160, Note_on_c, 9, 36, 100
11, 308160, Note_on_c, 9, 46, 100
11, 308280, Note_off_c, 9, 46, 64
11, 308280, Note_off_c, 9, 36, 64
11, 308280, Note_on_c, 9, 42, 80
11, 308400, Note_off_c, 9, 42, 64
11, 308400, Note_on_c, 9, 36, 100
11, 308400, Note_on_c, 9, 46, 100
11, 308520, Note_off_c, 9, 46, 64
11, 308520, Note_off_c, 9, 36, 64
11, 308520, Note_on_c, 9, 42, 80
11, 308520, Note_on_c, 9, 40, 50
11, 308640, Note_off_c, 9, 40, 64
11, 308640, Note_off_c, 9, 42, 64
11, 308640, Note_on_c, 9, 42, 100
11, 308640, Note_on_c, 9, 40, 50
11, 308760, Note_off_c, 9, 40, 64
11, 308760, Note_on_c, 9, 36, 100
11, 308880, Note_off_c, 9, 42, 64
11, 308880, Note_off_c, 9, 36, 64
11, 308880, Note_on_c, 9, 40, 100
11, 309000, Note_off_c, 9, 40, 64
11, 309120, Note_on_c, 9, 36, 100
11, 309120, Note_on_c, 9, 46, 100
11, 309240, Note_off_c, 9, 46, 64
11, 309240, Note_off_c, 9, 36, 64
11, 309240, Note_on_c, 9, 42, 80
11, 309360, Note_off_c, 9, 42, 64
11, 309360, Note_on_c, 9, 46, 100
11, 309360, Note_on_c, 9, 36, 100
11, 309600, Note_off_c, 9, 36, 64
11, 309600, Note_off_c, 9, 46, 64
11, 309600, Note_on_c, 9, 42, 100
11, 309720, Note_on_c, 9, 36, 100
11, 309840, Note_off_c, 9, 36, 64
11, 309840, Note_off_c, 9, 42, 64
11, 309840, Note_on_c, 9, 40, 100
11, 309960, Note_off_c, 9, 40, 64
11, 310080, Note_on_c, 9, 40, 50
11, 310200, Note_off_c, 9, 40, 64
11, 310200, Note_on_c, 9, 40, 50
11, 310320, Note_off_c, 9, 40, 64
11, 310320, Note_on_c, 9, 36, 100
11, 310320, Note_on_c, 9, 46, 100
11, 310440, Note_off_c, 9, 46, 64
11, 310440, Note_off_c, 9, 36, 64
11, 310440, Note_on_c, 9, 42, 80
11, 310440, Note_on_c, 9, 40, 50
11, 310560, Note_off_c, 9, 40, 64
11, 310560, Note_off_c, 9, 42, 64
11, 310560, Note_on_c, 9, 40, 50
11, 310680, Note_off_c, 9, 40, 64
11, 310680, Note_on_c, 9, 36, 100
11, 310680, Note_on_c, 9, 46, 100
11, 310800, Note_off_c, 9, 46, 64
11, 310800, Note_off_c, 9, 36, 64
11, 310800, Note_on_c, 9, 42, 80
11, 310800, Note_on_c, 9, 40, 50
11, 310920, Note_off_c, 9, 40, 64
11, 310920, Note_off_c, 9, 42, 64
11, 310920, Note_on_c, 9, 40, 50
11, 311040, Note_off_c, 9, 40, 64
11, 311040, Note_on_c, 9, 36, 100
11, 311160, Note_off_c, 9, 36, 64
11, 311280, Note_on_c, 9, 42, 80
11, 311400, Note_on_c, 9, 36, 100
11, 311400, Note_on_c, 9, 40, 50
11, 311520, Note_off_c, 9, 40, 64
11, 311520, Note_off_c, 9, 36, 64
11, 311520, Note_off_c, 9, 42, 64
11, 311520, Note_on_c, 9, 40, 100
11, 311760, Note_off_c, 9, 40, 64
11, 311760, Note_on_c, 9, 36, 100
11, 311760, Note_on_c, 9, 46, 100
11, 311880, Note_off_c, 9, 46, 64
11, 311880, Note_off_c, 9, 36, 64
11, 311880, Note_on_c, 9, 42, 80
11, 312000, Note_off_c, 9, 42, 64
11, 312000, Note_on_c, 9, 36, 100
11, 312000, Note_on_c, 9, 46, 100
11, 312120, Note_off_c, 9, 46, 64
11, 312120, Note_off_c, 9, 36, 64
11, 312120, Note_on_c, 9, 42, 80
11, 312120, Note_on_c, 9, 40, 50
11, 312240, Note_off_c, 9, 40, 64
11, 312240, Note_off_c, 9, 42, 64
11, 312240, Note_on_c, 9, 42, 100
11, 312240, Note_on_c, 9, 40, 50
11, 312360, Note_off_c, 9, 40, 64
11, 312360, Note_on_c, 9, 36, 100
11, 312480, Note_off_c, 9, 42, 64
11, 312480, Note_off_c, 9, 36, 64
11, 312480, Note_on_c, 9, 40, 100
11, 312600, Note_off_c, 9, 40, 64
11, 312720, Note_on_c, 9, 46, 100
11, 312720, Note_on_c, 9, 36, 100
11, 312960, Note_off_c, 9, 36, 64
11, 312960, Note_off_c, 9, 46, 64
11, 312960, Note_on_c, 9, 42, 100
11, 313080, Note_off_c, 9, 42, 64
11, 313200, Note_on_c, 9, 40, 100
11, 313320, Note_off_c, 9, 40, 64
11, 313320, Note_on_c, 9, 40, 50
11, 313440, Note_off_c, 9, 40, 64
11, 313440, Note_on_c, 9, 40, 50
11, 313560, Note_off_c, 9, 40, 64
11, 313560, Note_on_c, 9, 40, 50
11, 313680, Note_off_c, 9, 40, 64
11, 313680, Note_on_c, 9, 36, 100
11, 313680, Note_on_c, 9, 46, 100
11, 313800, Note_off_c, 9, 46, 64
11, 313800, Note_off_c, 9, 36, 64
11, 313800, Note_on_c, 9, 42, 80
11, 313800, Note_on_c, 9, 40, 50
11, 313920, Note_off_c, 9, 40, 64
11, 313920, Note_off_c, 9, 42, 64
11, 313920, Note_on_c, 9, 40, 50
11, 314040, Note_off_c, 9, 40, 64
11, 314040, Note_on_c, 9, 36, 100
11, 314040, Note_on_c, 9, 46, 100
11, 314160, Note_off_c, 9, 46, 64
11, 314160, Note_off_c, 9, 36, 64
11, 314160, Note_on_c, 9, 42, 80
11, 314160, Note_on_c, 9, 40, 50
11, 314280, Note_off_c, 9, 40, 64
11, 314280, Note_off_c, 9, 42, 64
11, 314280, Note_on_c, 9, 40, 50
11, 314400, Note_off_c, 9, 40, 64
11, 314400, Note_on_c, 9, 36, 100
11, 314520, Note_off_c, 9, 36, 64
11, 314640, Note_on_c, 9, 42, 80
11, 314760, Note_on_c, 9, 36, 100
11, 314760, Note_on_c, 9, 40, 50
11, 314880, Note_off_c, 9, 40, 64
11, 314880, Note_off_c, 9, 36, 64
11, 314880, Note_off_c, 9, 42, 64
11, 314880, Note_on_c, 9, 40, 100
11, 315120, Note_off_c, 9, 40, 64
11, 315120, Note_on_c, 9, 36, 100
11, 315120, Note_on_c, 9, 46, 100
11, 315240, Note_off_c, 9, 46, 64
11, 315240, Note_off_c, 9, 36, 64
11, 315240, Note_on_c, 9, 42, 80
11, 315360, Note_off_c, 9, 42, 64
11, 315360, Note_on_c, 9, 36, 100
11, 315360, Note_on_c, 9, 46, 100
11, 315480, Note_off_c, 9, 46, 64
11, 315480, Note_off_c, 9, 36, 64
11, 315480, Note_on_c, 9, 42, 80
11, 315480, Note_on_c, 9, 40, 50
11, 315600, Note_off_c, 9, 40, 64
11, 315600, Note_off_c, 9, 42, 64
11, 315600, Note_on_c, 9, 42, 100
11, 315600, Note_on_c, 9, 40, 50
11, 315720, Note_off_c, 9, 40, 64
11, 315720, Note_on_c, 9, 36, 100
11, 315840, Note_off_c, 9, 42, 64
11, 315840, Note_off_c, 9, 36, 64
11, 315840, Note_on_c, 9, 40, 100
11, 315960, Note_off_c, 9, 40, 64
11, 316080, Note_on_c, 9, 36, 100
11, 316080, Note_on_c, 9, 46, 100
11, 316200, Note_off_c, 9, 46, 64
11, 316200, Note_off_c, 9, 36, 64
11, 316200, Note_on_c, 9, 42, 80
11, 316320, Note_off_c, 9, 42, 64
11, 316320, Note_on_c, 9, 46, 100
11, 316320, Note_on_c, 9, 36, 100
11, 316560, Note_off_c, 9, 36, 64
11, 316560, Note_off_c, 9, 46, 64
11, 316560, Note_on_c, 9, 42, 100
11, 316680, Note_on_c, 9, 36, 100
11, 316800, Note_off_c, 9, 36, 64
11, 316800, Note_off_c, 9, 42, 64
11, 316800, Note_on_c, 9, 40, 100
11, 316920, Note_off_c, 9, 40, 64
11, 317040, Note_on_c, 9, 40, 50
11, 317160, Note_off_c, 9, 40, 64
11, 317160, Note_on_c, 9, 40, 50
11, 317280, Note_off_c, 9, 40, 64
11, 317280, Note_on_c, 9, 36, 100
11, 317280, Note_on_c, 9, 46, 100
11, 317400, Note_off_c, 9, 46, 64
11, 317400, Note_off_c, 9, 36, 64
11, 317400, Note_on_c, 9, 42, 80
11, 317400, Note_on_c, 9, 40, 50
11, 317520, Note_off_c, 9, 40, 64
11, 317520, Note_off_c, 9, 42, 64
11, 317520, Note_on_c, 9, 40, 50
11, 317640, Note_off_c, 9, 40, 64
11, 317640, Note_on_c, 9, 36, 100
11, 317640, Note_on_c, 9, 46, 100
11, 317760, Note_off_c, 9, 46, 64
11, 317760, Note_off_c, 9, 36, 64
11, 317760, Note_on_c, 9, 42, 80
11, 317760, Note_on_c, 9, 40, 50
11, 317880, Note_off_c, 9, 40, 64
11, 317880, Note_off_c, 9, 42, 64
11, 317880, Note_on_c, 9, 40, 50
11, 318000, Note_off_c, 9, 40, 64
11, 318000, Note_on_c, 9, 36, 100
11, 318120, Note_off_c, 9, 36, 64
11, 318240, Note_on_c, 9, 42, 80
11, 318360, Note_on_c, 9, 36, 100
11, 318360, Note_on_c, 9, 40, 50
11, 318480, Note_off_c, 9, 40, 64
11, 318480, Note_off_c, 9, 36, 64
11, 318480, Note_off_c, 9, 42, 64
11, 318480, Note_on_c, 9, 40, 100
11, 318720, Note_off_c, 9, 40, 64
11, 318720, Note_on_c, 9, 36, 100
11, 318720, Note_on_c, 9, 46, 100
11, 318840, Note_off_c, 9, 46, 64
11, 318840, Note_off_c, 9, 36, 64
11, 318840, Note_on_c, 9, 42, 80
11, 318960, Note_off_c, 9, 42, 64
11, 318960, Note_on_c, 9, 36, 100
11, 318960, Note_on_c, 9, 46, 100
11, 319080, Note_off_c, 9, 46, 64
11, 319080, Note_off_c, 9, 36, 64
11, 319080, Note_on_c, 9, 42, 80
11, 319080, Note_on_c, 9, 40, 50
11, 319200, Note_off_c, 9, 40, 64
11, 319200, Note_off_c, 9, 42, 64
11, 319200, Note_on_c, 9, 42, 100
11, 319200, Note_on_c, 9, 40, 50
11, 319320, Note_off_c, 9, 40, 64
11, 319320, Note_on_c, 9, 36, 100
11, 319440, Note_off_c, 9, 42, 64
11, 319440, Note_off_c, 9, 36, 64
11, 319440, Note_on_c, 9, 40, 100
11, 319560, Note_off_c, 9, 40, 64
11, 319680, Note_on_c, 9, 36, 100
11, 319680, Note_on_c, 9, 55, 100
11, 319920, Note_off_c, 9, 55, 64
11, 319920, Note_off_c, 9, 36, 64
11, 319920, Note_on_c, 9, 42, 100
11, 320040, Note_on_c, 9, 36, 100
11, 320160, Note_off_c, 9, 36, 64
11, 320160, Note_off_c, 9, 42, 64
11, 320160, Note_on_c, 9, 40, 100
11, 320280, Note_off_c, 9, 40, 64
11, 320400, Note_on_c, 9, 40, 50
11, 320400, Note_on_c, 9, 42, 100
11, 320520, Note_off_c, 9, 40, 64
11, 320520, Note_on_c, 9, 40, 50
11, 320640, Note_off_c, 9, 42, 64
11, 320640, Note_off_c, 9, 40, 64
11, 320640, Note_on_c, 9, 36, 100
11, 320640, Note_on_c, 9, 46, 100
11, 320760, Note_off_c, 9, 46, 64
11, 320760, Note_off_c, 9, 36, 64
11, 320760, Note_on_c, 9, 42, 80
11, 320760, Note_on_c, 9, 40, 50
11, 320880, Note_off_c, 9, 40, 64
11, 320880, Note_off_c, 9, 42, 64
11, 320880, Note_on_c, 9, 40, 50
11, 321000, Note_off_c, 9, 40, 64
11, 321000, Note_on_c, 9, 36, 100
11, 321000, Note_on_c, 9, 46, 100
11, 321120, Note_off_c, 9, 46, 64
11, 321120, Note_off_c, 9, 36, 64
11, 321120, Note_on_c, 9, 42, 80
11, 321120, Note_on_c, 9, 40, 50
11, 321240, Note_off_c, 9, 40, 64
11, 321240, Note_off_c, 9, 42, 64
11, 321240, Note_on_c, 9, 40, 50
11, 321360, Note_off_c, 9, 40, 64
11, 321360, Note_on_c, 9, 36, 100
11, 321480, Note_off_c, 9, 36, 64
11, 321600, Note_on_c, 9, 42, 80
11, 321720, Note_on_c, 9, 36, 100
11, 321720, Note_on_c, 9, 40, 50
11, 321840, Note_off_c, 9, 40, 64
11, 321840, Note_off_c, 9, 36, 64
11, 321840, Note_off_c, 9, 42, 64
11, 321840, Note_on_c, 9, 40, 100
11, 322080, Note_off_c, 9, 40, 64
11, 322080, Note_on_c, 9, 36, 100
11, 322080, Note_on_c, 9, 46, 100
11, 322200, Note_off_c, 9, 46, 64
11, 322200, Note_off_c, 9, 36, 64
11, 322200, Note_on_c, 9, 42, 80
11, 322320, Note_off_c, 9, 42, 64
11, 322320, Note_on_c, 9, 36, 100
11, 322320, Note_on_c, 9, 46, 100
11, 322440, Note_off_c, 9, 46, 64
11, 322440, Note_off_c, 9, 36, 64
11, 322440, Note_on_c, 9, 42, 80
11, 322440, Note_on_c, 9, 40, 50
11, 322560, Note_off_c, 9, 40, 64
11, 322560, Note_off_c, 9, 42, 64
11, 322560, Note_on_c, 9, 42, 100
11, 322560, Note_on_c, 9, 40, 50
11, 322680, Note_off_c, 9, 40, 64
11, 322680, Note_on_c, 9, 36, 100
11, 322800, Note_off_c, 9, 42, 64
11, 322800, Note_off_c, 9, 36, 64
11, 322800, Note_on_c, 9, 40, 100
11, 322920, Note_off_c, 9, 40, 64
11, 323040, Note_on_c, 9, 36, 100
11, 323040, Note_on_c, 9, 46, 100
11, 323160, Note_off_c, 9, 46, 64
11, 323160, Note_off_c, 9, 36, 64
11, 323160, Note_on_c, 9, 42, 80
11, 323280, Note_off_c, 9, 42, 64
11, 323283, Note_on_c, 9, 36, 100
11, 323283, Note_on_c, 9, 46, 100
11, 323523, Note_off_c, 9, 46, 64
11, 323523, Note_off_c, 9, 36, 64
11, 323523, Note_on_c, 9, 42, 100
11, 323643, Note_on_c, 9, 36, 100
11, 323763, Note_off_c, 9, 36, 64
11, 323763, Note_off_c, 9, 42, 64
11, 323763, Note_on_c, 9, 40, 100
11, 323883, Note_off_c, 9, 40, 64
11, 324003, Note_on_c, 9, 40, 50
11, 324123, Note_off_c, 9, 40, 64
11, 324123, Note_on_c, 9, 40, 50
11, 324243, Note_off_c, 9, 40, 64
11, 324243, Note_on_c, 9, 36, 100
11, 324243, Note_on_c, 9, 46, 100
11, 324363, Note_off_c, 9, 46, 64
11, 324363, Note_off_c, 9, 36, 64
11, 324363, Note_on_c, 9, 42, 80
11, 324363, Note_on_c, 9, 40, 50
11, 324483, Note_off_c, 9, 40, 64
11, 324483, Note_off_c, 9, 42, 64
11, 324483, Note_on_c, 9, 40, 50
11, 324603, Note_off_c, 9, 40, 64
11, 324603, Note_on_c, 9, 36, 100
11, 324603, Note_on_c, 9, 46, 100
11, 324723, Note_off_c, 9, 46, 64
11, 324723, Note_off_c, 9, 36, 64
11, 324723, Note_on_c, 9, 42, 80
11, 324723, Note_on_c, 9, 40, 50
11, 324843, Note_off_c, 9, 40, 64
11, 324843, Note_off_c, 9, 42, 64
11, 324843, Note_on_c, 9, 40, 50
11, 324963, Note_off_c, 9, 40, 64
11, 324963, Note_on_c, 9, 36, 100
11, 325083, Note_off_c, 9, 36, 64
11, 325203, Note_on_c, 9, 42, 80
11, 325323, Note_on_c, 9, 36, 100
11, 325323, Note_on_c, 9, 40, 50
11, 325443, Note_off_c, 9, 40, 64
11, 325443, Note_off_c, 9, 36, 64
11, 325443, Note_off_c, 9, 42, 64
11, 325443, Note_on_c, 9, 40, 100
11, 325683, Note_off_c, 9, 40, 64
11, 325683, Note_on_c, 9, 36, 100
11, 325683, Note_on_c, 9, 46, 100
11, 325803, Note_off_c, 9, 46, 64
11, 325803, Note_off_c, 9, 36, 64
11, 325803, Note_on_c, 9, 42, 80
11, 325923, Note_off_c, 9, 42, 64
11, 325923, Note_on_c, 9, 36, 100
11, 325923, Note_on_c, 9, 46, 100
11, 326043, Note_off_c, 9, 46, 64
11, 326043, Note_off_c, 9, 36, 64
11, 326043, Note_on_c, 9, 42, 80
11, 326043, Note_on_c, 9, 40, 50
11, 326160, Note_on_c, 9, 42, 100
11, 326160, Note_on_c, 9, 40, 50
11, 326163, Note_off_c, 9, 40, 64
11, 326163, Note_off_c, 9, 42, 64
11, 326280, Note_off_c, 9, 40, 64
11, 326280, Note_on_c, 9, 36, 100
11, 326400, Note_off_c, 9, 42, 64
11, 326400, Note_off_c, 9, 36, 64
11, 326400, Note_on_c, 9, 40, 100
11, 326520, Note_off_c, 9, 40, 64
11, 326640, Note_on_c, 9, 55, 100
11, 326640, Note_on_c, 9, 36, 100
11, 326880, Note_off_c, 9, 36, 64
11, 326880, Note_off_c, 9, 55, 64
11, 326880, Note_on_c, 9, 42, 100
11, 327000, Note_on_c, 9, 36, 100
11, 327120, Note_off_c, 9, 36, 64
11, 327120, Note_off_c, 9, 42, 64
11, 327120, Note_on_c, 9, 40, 100
11, 327240, Note_off_c, 9, 40, 64
11, 327360, Note_on_c, 9, 40, 50
11, 327360, Note_on_c, 9, 42, 100
11, 327480, Note_off_c, 9, 40, 64
11, 327480, Note_on_c, 9, 40, 50
11, 327600, Note_off_c, 9, 42, 64
11, 327600, Note_off_c, 9, 40, 64
11, 327600, Note_on_c, 9, 36, 100
11, 327600, Note_on_c, 9, 46, 100
11, 327720, Note_off_c, 9, 46, 64
11, 327720, Note_off_c, 9, 36, 64
11, 327720, Note_on_c, 9, 42, 80
11, 327720, Note_on_c, 9, 40, 50
11, 327840, Note_off_c, 9, 40, 64
11, 327840, Note_off_c, 9, 42, 64
11, 327840, Note_on_c, 9, 40, 50
11, 327960, Note_off_c, 9, 40, 64
11, 327960, Note_on_c, 9, 36, 100
11, 327960, Note_on_c, 9, 46, 100
11, 328080, Note_off_c, 9, 46, 64
11, 328080, Note_off_c, 9, 36, 64
11, 328080, Note_on_c, 9, 42, 80
11, 328080, Note_on_c, 9, 40, 50
11, 328200, Note_off_c, 9, 40, 64
11, 328200, Note_off_c, 9, 42, 64
11, 328200, Note_on_c, 9, 40, 50
11, 328320, Note_off_c, 9, 40, 64
11, 328320, Note_on_c, 9, 36, 100
11, 328440, Note_off_c, 9, 36, 64
11, 328560, Note_on_c, 9, 42, 80
11, 328680, Note_on_c, 9, 36, 100
11, 328680, Note_on_c, 9, 40, 50
11, 328800, Note_off_c, 9, 40, 64
11, 328800, Note_off_c, 9, 36, 64
11, 328800, Note_off_c, 9, 42, 64
11, 328800, Note_on_c, 9, 40, 100
11, 329040, Note_off_c, 9, 40, 64
11, 329040, Note_on_c, 9, 36, 100
11, 329040, Note_on_c, 9, 46, 100
11, 329160, Note_off_c, 9, 46, 64
11, 329160, Note_off_c, 9, 36, 64
11, 329160, Note_on_c, 9, 42, 80
11, 329280, Note_off_c, 9, 42, 64
11, 329280, Note_on_c, 9, 36, 100
11, 329280, Note_on_c, 9, 46, 100
11, 329400, Note_off_c, 9, 46, 64
11, 329400, Note_off_c, 9, 36, 64
11, 329400, Note_on_c, 9, 42, 80
11, 329400, Note_on_c, 9, 40, 50
11, 329520, Note_off_c, 9, 40, 64
11, 329520, Note_off_c, 9, 42, 64
11, 329520, Note_on_c, 9, 42, 100
11, 329520, Note_on_c, 9, 40, 50
11, 329640, Note_off_c, 9, 40, 64
11, 329640, Note_on_c, 9, 36, 100
11, 329760, Note_off_c, 9, 42, 64
11, 329760, Note_off_c, 9, 36, 64
11, 329760, Note_on_c, 9, 40, 100
11, 329880, Note_off_c, 9, 40, 64
11, 330000, Note_on_c, 9, 36, 100
11, 330000, Note_on_c, 9, 46, 100
11, 330120, Note_off_c, 9, 46, 64
11, 330120, Note_off_c, 9, 36, 64
11, 330120, Note_on_c, 9, 42, 80
11, 330240, Note_off_c, 9, 42, 64
11, 330240, Note_on_c, 9, 36, 100
11, 330240, Note_on_c, 9, 46, 100
11, 330480, Note_off_c, 9, 46, 64
11, 330480, Note_off_c, 9, 36, 64
11, 330480, Note_on_c, 9, 42, 100
11, 330600, Note_on_c, 9, 36, 100
11, 330720, Note_off_c, 9, 36, 64
11, 330720, Note_off_c, 9, 42, 64
11, 330720, Note_on_c, 9, 40, 100
11, 330840, Note_off_c, 9, 40, 64
11, 330960, Note_on_c, 9, 40, 50
11, 331080, Note_off_c, 9, 40, 64
11, 331080, Note_on_c, 9, 40, 50
11, 331200, Note_off_c, 9, 40, 64
11, 331200, Note_on_c, 9, 36, 100
11, 331200, Note_on_c, 9, 46, 100
11, 331320, Note_off_c, 9, 46, 64
11, 331320, Note_off_c, 9, 36, 64
11, 331320, Note_on_c, 9, 42, 80
11, 331320, Note_on_c, 9, 40, 50
11, 331440, Note_off_c, 9, 40, 64
11, 331440, Note_off_c, 9, 42, 64
11, 331440, Note_on_c, 9, 40, 50
11, 331560, Note_off_c, 9, 40, 64
11, 331560, Note_on_c, 9, 36, 100
11, 331560, Note_on_c, 9, 46, 100
11, 331680, Note_off_c, 9, 46, 64
11, 331680, Note_off_c, 9, 36, 64
11, 331680, Note_on_c, 9, 42, 80
11, 331680, Note_on_c, 9, 40, 50
11, 331800, Note_off_c, 9, 40, 64
11, 331800, Note_off_c, 9, 42, 64
11, 331800, Note_on_c, 9, 40, 50
11, 331920, Note_off_c, 9, 40, 64
11, 331920, Note_on_c, 9, 36, 100
11, 332040, Note_off_c, 9, 36, 64
11, 332160, Note_on_c, 9, 42, 80
11, 332280, Note_on_c, 9, 36, 100
11, 332280, Note_on_c, 9, 40, 50
11, 332400, Note_off_c, 9, 40, 64
11, 332400, Note_off_c, 9, 36, 64
11, 332400, Note_off_c, 9, 42, 64
11, 332400, Note_on_c, 9, 40, 100
11, 332640, Note_off_c, 9, 40, 64
11, 332640, Note_on_c, 9, 36, 100
11, 332640, Note_on_c, 9, 46, 100
11, 332760, Note_off_c, 9, 46, 64
11, 332760, Note_off_c, 9, 36, 64
11, 332760, Note_on_c, 9, 42, 80
11, 332880, Note_off_c, 9, 42, 64
11, 332880, Note_on_c, 9, 36, 100
11, 332880, Note_on_c, 9, 46, 100
11, 333000, Note_off_c, 9, 46, 64
11, 333000, Note_off_c, 9, 36, 64
11, 333000, Note_on_c, 9, 42, 80
11, 333000, Note_on_c, 9, 40, 50
11, 333120, Note_off_c, 9, 40, 64
11, 333120, Note_off_c, 9, 42, 64
11, 333120, Note_on_c, 9, 42, 100
11, 333120, Note_on_c, 9, 40, 50
11, 333240, Note_off_c, 9, 40, 64
11, 333240, Note_on_c, 9, 36, 100
11, 333360, Note_off_c, 9, 42, 64
11, 333360, Note_off_c, 9, 36, 64
11, 333360, Note_on_c, 9, 40, 100
11, 333480, Note_off_c, 9, 40, 64
11, 333600, Note_on_c, 9, 36, 100
11, 333600, Note_on_c, 9, 57, 100
11, 333840, Note_off_c, 9, 57, 64
11, 333840, Note_off_c, 9, 36, 64
11, 333960, Note_on_c, 9, 36, 100
11, 334080, Note_off_c, 9, 36, 64
11, 334080, Note_on_c, 9, 40, 100
11, 334080, Note_on_c, 9, 46, 100
11, 334200, Note_off_c, 9, 40, 64
11, 334320, Note_off_c, 9, 46, 64
11, 334320, Note_on_c, 9, 36, 100
11, 334440, Note_off_c, 9, 36, 64
11, 334560, Note_on_c, 9, 36, 100
11, 334560, Note_on_c, 9, 54, 100
11, 334680, Note_off_c, 9, 54, 64
11, 334680, Note_off_c, 9, 36, 64
11, 334680, Note_on_c, 9, 40, 52
11, 334800, Note_off_c, 9, 40, 64
11, 334800, Note_on_c, 9, 40, 52
11, 334920, Note_off_c, 9, 40, 64
11, 334920, Note_on_c, 9, 36, 100
11, 334920, Note_on_c, 9, 54, 100
11, 335040, Note_off_c, 9, 54, 64
11, 335040, Note_off_c, 9, 36, 64
11, 335040, Note_on_c, 9, 40, 52
11, 335160, Note_off_c, 9, 40, 64
11, 335160, Note_on_c, 9, 40, 52
11, 335280, Note_off_c, 9, 40, 64
11, 335280, Note_on_c, 9, 36, 100
11, 335280, Note_on_c, 9, 54, 100
11, 335400, Note_off_c, 9, 54, 64
11, 335400, Note_off_c, 9, 36, 64
11, 335520, Note_on_c, 9, 46, 60
11, 335640, Note_on_c, 9, 36, 100
11, 335760, Note_off_c, 9, 36, 64
11, 335760, Note_off_c, 9, 46, 64
11, 335760, Note_on_c, 9, 40, 100
11, 335760, Note_on_c, 9, 46, 100
11, 336000, Note_off_c, 9, 46, 64
11, 336000, Note_off_c, 9, 40, 64
11, 336000, Note_on_c, 9, 36, 100
11, 336000, Note_on_c, 9, 54, 100
11, 336120, Note_off_c, 9, 36, 64
11, 336120, Note_on_c, 9, 40, 50
11, 336240, Note_off_c, 9, 54, 64
11, 336240, Note_off_c, 9, 40, 64
11, 336240, Note_on_c, 9, 36, 100
11, 336240, Note_on_c, 9, 54, 100
11, 336360, Note_off_c, 9, 36, 64
11, 336480, Note_off_c, 9, 54, 64
11, 336480, Note_on_c, 9, 46, 60
11, 336600, Note_on_c, 9, 36, 100
11, 336720, Note_off_c, 9, 36, 64
11, 336720, Note_off_c, 9, 46, 64
11, 336720, Note_on_c, 9, 40, 100
11, 336720, Note_on_c, 9, 46, 100
11, 336840, Note_off_c, 9, 40, 64
11, 336960, Note_off_c, 9, 46, 64
11, 336960, Note_on_c, 9, 36, 100
11, 336960, Note_on_c, 9, 54, 100
11, 337080, Note_off_c, 9, 36, 64
11, 337080, Note_on_c, 9, 40, 50
11, 337200, Note_off_c, 9, 54, 64
11, 337200, Note_off_c, 9, 40, 64
11, 337200, Note_on_c, 9, 36, 100
11, 337200, Note_on_c, 9, 54, 100
11, 337440, Note_off_c, 9, 54, 64
11, 337440, Note_off_c, 9, 36, 64
11, 337440, Note_on_c, 9, 46, 60
11, 337560, Note_on_c, 9, 36, 100
11, 337680, Note_off_c, 9, 36, 64
11, 337680, Note_off_c, 9, 46, 64
11, 337680, Note_on_c, 9, 40, 100
11, 337680, Note_on_c, 9, 46, 100
11, 337800, Note_off_c, 9, 40, 64
11, 337920, Note_off_c, 9, 46, 64
11, 337920, Note_on_c, 9, 36, 100
11, 337920, Note_on_c, 9, 46, 100
11, 338040, Note_off_c, 9, 36, 64
11, 338160, Note_off_c, 9, 46, 64
11, 338160, Note_on_c, 9, 36, 100
11, 338160, Note_on_c, 9, 54, 100
11, 338280, Note_off_c, 9, 54, 64
11, 338280, Note_off_c, 9, 36, 64
11, 338280, Note_on_c, 9, 40, 52
11, 338400, Note_off_c, 9, 40, 64
11, 338400, Note_on_c, 9, 40, 52
11, 338520, Note_off_c, 9, 40, 64
11, 338520, Note_on_c, 9, 36, 100
11, 338520, Note_on_c, 9, 54, 100
11, 338640, Note_off_c, 9, 54, 64
11, 338640, Note_off_c, 9, 36, 64
11, 338640, Note_on_c, 9, 40, 52
11, 338760, Note_off_c, 9, 40, 64
11, 338760, Note_on_c, 9, 40, 52
11, 338880, Note_off_c, 9, 40, 64
11, 338880, Note_on_c, 9, 36, 100
11, 338880, Note_on_c, 9, 54, 100
11, 339000, Note_off_c, 9, 54, 64
11, 339000, Note_off_c, 9, 36, 64
11, 339120, Note_on_c, 9, 46, 60
11, 339240, Note_on_c, 9, 36, 100
11, 339360, Note_off_c, 9, 36, 64
11, 339360, Note_off_c, 9, 46, 64
11, 339360, Note_on_c, 9, 40, 100
11, 339360, Note_on_c, 9, 46, 100
11, 339600, Note_off_c, 9, 46, 64
11, 339600, Note_off_c, 9, 40, 64
11, 339600, Note_on_c, 9, 36, 100
11, 339600, Note_on_c, 9, 54, 100
11, 339720, Note_off_c, 9, 36, 64
11, 339720, Note_on_c, 9, 40, 50
11, 339840, Note_off_c, 9, 54, 64
11, 339840, Note_off_c, 9, 40, 64
11, 339840, Note_on_c, 9, 36, 100
11, 339840, Note_on_c, 9, 54, 100
11, 339960, Note_off_c, 9, 36, 64
11, 340080, Note_off_c, 9, 54, 64
11, 340080, Note_on_c, 9, 46, 60
11, 340200, Note_on_c, 9, 36, 100
11, 340320, Note_off_c, 9, 36, 64
11, 340320, Note_off_c, 9, 46, 64
11, 340320, Note_on_c, 9, 40, 100
11, 340320, Note_on_c, 9, 46, 100
11, 340440, Note_off_c, 9, 40, 64
11, 340560, Note_off_c, 9, 46, 64
11, 340560, Note_on_c, 9, 57, 100
11, 340560, Note_on_c, 9, 36, 100
11, 340800, Note_off_c, 9, 36, 64
11, 340800, Note_off_c, 9, 57, 64
11, 340800, Note_on_c, 9, 46, 80
11, 341040, Note_off_c, 9, 46, 64
11, 341040, Note_on_c, 9, 40, 100
11, 341040, Note_on_c, 9, 46, 100
11, 341160, Note_off_c, 9, 40, 64
11, 341280, Note_off_c, 9, 46, 64
11, 341280, Note_on_c, 9, 36, 100
11, 341400, Note_off_c, 9, 36, 64
11, 341520, Note_on_c, 9, 36, 100
11, 341520, Note_on_c, 9, 54, 100
11, 341640, Note_off_c, 9, 54, 64
11, 341640, Note_off_c, 9, 36, 64
11, 341640, Note_on_c, 9, 40, 52
11, 341760, Note_off_c, 9, 40, 64
11, 341760, Note_on_c, 9, 40, 52
11, 341880, Note_off_c, 9, 40, 64
11, 341880, Note_on_c, 9, 36, 100
11, 341880, Note_on_c, 9, 54, 100
11, 342000, Note_off_c, 9, 54, 64
11, 342000, Note_off_c, 9, 36, 64
11, 342000, Note_on_c, 9, 40, 52
11, 342120, Note_off_c, 9, 40, 64
11, 342120, Note_on_c, 9, 40, 52
11, 342240, Note_off_c, 9, 40, 64
11, 342240, Note_on_c, 9, 36, 100
11, 342240, Note_on_c, 9, 54, 100
11, 342360, Note_off_c, 9, 54, 64
11, 342360, Note_off_c, 9, 36, 64
11, 342480, Note_on_c, 9, 46, 60
11, 342600, Note_on_c, 9, 36, 100
11, 342720, Note_off_c, 9, 36, 64
11, 342720, Note_off_c, 9, 46, 64
11, 342720, Note_on_c, 9, 40, 100
11, 342720, Note_on_c, 9, 46, 100
11, 342960, Note_off_c, 9, 46, 64
11, 342960, Note_off_c, 9, 40, 64
11, 342960, Note_on_c, 9, 36, 100
11, 342960, Note_on_c, 9, 54, 100
11, 343080, Note_off_c, 9, 36, 64
11, 343080, Note_on_c, 9, 40, 50
11, 343200, Note_off_c, 9, 54, 64
11, 343200, Note_off_c, 9, 40, 64
11, 343200, Note_on_c, 9, 36, 100
11, 343200, Note_on_c, 9, 54, 100
11, 343320, Note_off_c, 9, 36, 64
11, 343440, Note_off_c, 9, 54, 64
11, 343440, Note_on_c, 9, 46, 60
11, 343560, Note_on_c, 9, 36, 100
11, 343680, Note_off_c, 9, 36, 64
11, 343680, Note_off_c, 9, 46, 64
11, 343680, Note_on_c, 9, 40, 100
11, 343680, Note_on_c, 9, 46, 100
11, 343800, Note_off_c, 9, 40, 64
11, 343920, Note_off_c, 9, 46, 64
11, 343920, Note_on_c, 9, 36, 100
11, 343920, Note_on_c, 9, 54, 100
11, 344040, Note_off_c, 9, 36, 64
11, 344040, Note_on_c, 9, 40, 50
11, 344160, Note_off_c, 9, 54, 64
11, 344160, Note_off_c, 9, 40, 64
11, 344160, Note_on_c, 9, 36, 100
11, 344160, Note_on_c, 9, 54, 100
11, 344400, Note_off_c, 9, 54, 64
11, 344400, Note_off_c, 9, 36, 64
11, 344400, Note_on_c, 9, 46, 60
11, 344520, Note_on_c, 9, 36, 100
11, 344640, Note_off_c, 9, 36, 64
11, 344640, Note_off_c, 9, 46, 64
11, 344640, Note_on_c, 9, 40, 100
11, 344640, Note_on_c, 9, 46, 100
11, 344760, Note_off_c, 9, 40, 64
11, 344880, Note_off_c, 9, 46, 64
11, 344880, Note_on_c, 9, 36, 100
11, 344880, Note_on_c, 9, 46, 100
11, 345000, Note_off_c, 9, 36, 64
11, 345120, Note_off_c, 9, 46, 64
11, 345120, Note_on_c, 9, 36, 100
11, 345120, Note_on_c, 9, 54, 100
11, 345240, Note_off_c, 9, 54, 64
11, 345240, Note_off_c, 9, 36, 64
11, 345240, Note_on_c, 9, 40, 52
11, 345360, Note_off_c, 9, 40, 64
11, 345360, Note_on_c, 9, 40, 52
11, 345480, Note_off_c, 9, 40, 64
11, 345480, Note_on_c, 9, 36, 100
11, 345480, Note_on_c, 9, 54, 100
11, 345600, Note_off_c, 9, 54, 64
11, 345600, Note_off_c, 9, 36, 64
11, 345600, Note_on_c, 9, 40, 52
11, 345720, Note_off_c, 9, 40, 64
11, 345720, Note_on_c, 9, 40, 52
11, 345840, Note_off_c, 9, 40, 64
11, 345840, Note_on_c, 9, 36, 100
11, 345840, Note_on_c, 9, 54, 100
11, 345960, Note_off_c, 9, 54, 64
11, 345960, Note_off_c, 9, 36, 64
11, 346080, Note_on_c, 9, 46, 60
11, 346200, Note_on_c, 9, 36, 100
11, 346320, Note_off_c, 9, 36, 64
11, 346320, Note_off_c, 9, 46, 64
11, 346320, Note_on_c, 9, 40, 100
11, 346320, Note_on_c, 9, 46, 100
11, 346560, Note_off_c, 9, 46, 64
11, 346560, Note_off_c, 9, 40, 64
11, 346560, Note_on_c, 9, 36, 100
11, 346560, Note_on_c, 9, 54, 100
11, 346680, Note_off_c, 9, 36, 64
11, 346680, Note_on_c, 9, 40, 50
11, 346800, Note_off_c, 9, 54, 64
11, 346800, Note_off_c, 9, 40, 64
11, 346800, Note_on_c, 9, 36, 100
11, 346800, Note_on_c, 9, 54, 100
11, 346920, Note_off_c, 9, 36, 64
11, 347040, Note_off_c, 9, 54, 64
11, 347040, Note_on_c, 9, 46, 60
11, 347280, Note_off_c, 9, 46, 64
11, 347280, Note_on_c, 9, 40, 100
11, 347280, Note_on_c, 9, 46, 100
11, 347400, Note_off_c, 9, 40, 64
11, 347520, Note_off_c, 9, 46, 64
11, 347520, Note_on_c, 9, 36, 100
11, 347520, Note_on_c, 9, 57, 100
11, 347760, Note_off_c, 9, 57, 64
11, 347760, Note_off_c, 9, 36, 64
11, 347760, Control_c, 9, 7, 0
11, 348479, Control_c, 9, 7, 90
11, 348480, Note_on_c, 9, 36, 100
11, 348480, Note_on_c, 9, 49, 100
11, 348720, Note_off_c, 9, 49, 64
11, 348960, Note_off_c, 9, 36, 64
11, 348960, Note_on_c, 9, 40, 100
11, 348960, Note_on_c, 9, 53, 80
11, 349200, Note_off_c, 9, 53, 64
11, 349200, Note_on_c, 9, 53, 80
11, 349440, Note_off_c, 9, 40, 64
11, 349440, Note_off_c, 9, 53, 64
11, 349440, Note_on_c, 9, 36, 100
11, 349440, Note_on_c, 9, 53, 100
11, 349680, Note_off_c, 9, 53, 64
11, 349680, Note_off_c, 9, 36, 64
11, 349680, Note_on_c, 9, 53, 80
11, 349800, Note_on_c, 9, 36, 100
11, 349920, Note_off_c, 9, 53, 64
11, 349920, Note_on_c, 9, 40, 100
11, 349920, Note_on_c, 9, 53, 80
11, 349930, Note_off_c, 9, 36, 64
11, 350160, Note_off_c, 9, 40, 64
11, 350160, Note_off_c, 9, 53, 64
11, 350160, Note_on_c, 9, 36, 100
11, 350160, Note_on_c, 9, 53, 100
11, 350400, Note_off_c, 9, 53, 64
11, 350400, Note_off_c, 9, 36, 64
11, 350400, Note_on_c, 9, 53, 80
11, 350640, Note_off_c, 9, 53, 64
11, 350640, Note_on_c, 9, 40, 100
11, 350640, Note_on_c, 9, 53, 80
11, 350880, Note_off_c, 9, 53, 64
11, 350880, Note_on_c, 9, 53, 80
11, 351113, Note_off_c, 9, 53, 64
11, 351120, Note_off_c, 9, 40, 64
11, 351120, Note_on_c, 9, 36, 100
11, 351120, Note_on_c, 9, 53, 100
11, 351360, Note_off_c, 9, 53, 64
11, 351360, Note_off_c, 9, 36, 64
11, 351360, Note_on_c, 9, 53, 80
11, 351600, Note_off_c, 9, 53, 64
11, 351600, Note_on_c, 9, 40, 100
11, 351600, Note_on_c, 9, 53, 80
11, 351840, Note_off_c, 9, 53, 64
11, 351840, Note_off_c, 9, 40, 64
11, 351840, Note_on_c, 9, 36, 100
11, 351840, Note_on_c, 9, 53, 80
11, 352080, Note_off_c, 9, 53, 64
11, 352080, Note_off_c, 9, 36, 64
11, 352080, Note_on_c, 9, 49, 100
11, 352080, Note_on_c, 9, 36, 100
11, 352320, Note_off_c, 9, 49, 64
11, 352560, Note_off_c, 9, 36, 64
11, 352560, Note_on_c, 9, 53, 80
11, 352560, Note_on_c, 9, 40, 100
11, 352800, Note_off_c, 9, 53, 64
11, 352800, Note_on_c, 9, 53, 80
11, 352920, Note_on_c, 9, 40, 80
11, 352923, Note_off_c, 9, 40, 64
11, 353040, Note_off_c, 9, 53, 64
11, 353040, Note_off_c, 9, 40, 64
11, 353040, Note_on_c, 9, 53, 100
11, 353040, Note_on_c, 9, 36, 100
11, 353280, Note_off_c, 9, 36, 64
11, 353280, Note_off_c, 9, 53, 64
11, 353280, Note_on_c, 9, 53, 80
11, 353280, Note_on_c, 9, 36, 100
11, 353410, Note_off_c, 9, 36, 64
11, 353520, Note_off_c, 9, 53, 64
11, 353520, Note_on_c, 9, 40, 100
11, 353520, Note_on_c, 9, 53, 80
11, 353760, Note_off_c, 9, 53, 64
11, 353760, Note_off_c, 9, 40, 64
11, 353760, Note_on_c, 9, 36, 100
11, 353760, Note_on_c, 9, 53, 100
11, 354000, Note_off_c, 9, 53, 64
11, 354000, Note_off_c, 9, 36, 64
11, 354000, Note_on_c, 9, 53, 80
11, 354240, Note_off_c, 9, 53, 64
11, 354240, Note_on_c, 9, 40, 100
11, 354240, Note_on_c, 9, 53, 80
11, 354480, Note_off_c, 9, 53, 64
11, 354480, Note_on_c, 9, 53, 80
11, 354713, Note_off_c, 9, 53, 64
11, 354720, Note_off_c, 9, 40, 64
11, 354720, Note_on_c, 9, 36, 100
11, 354720, Note_on_c, 9, 53, 100
11, 354960, Note_off_c, 9, 53, 64
11, 354960, Note_off_c, 9, 36, 64
11, 354960, Note_on_c, 9, 53, 80
11, 355080, Note_on_c, 9, 36, 80
11, 355200, Note_off_c, 9, 36, 64
11, 355200, Note_off_c, 9, 53, 64
11, 355200, Note_on_c, 9, 40, 100
11, 355200, Note_on_c, 9, 53, 80
11, 355440, Note_off_c, 9, 53, 64
11, 355440, Note_off_c, 9, 40, 64
11, 355440, Note_on_c, 9, 49, 100
11, 355440, Note_on_c, 9, 36, 100
11, 355680, Note_off_c, 9, 49, 64
11, 355680, Note_on_c, 9, 53, 80
11, 355920, Note_off_c, 9, 36, 64
11, 355920, Note_off_c, 9, 53, 64
11, 355920, Note_on_c, 9, 40, 100
11, 355920, Note_on_c, 9, 53, 80
11, 356160, Note_off_c, 9, 53, 64
11, 356160, Note_on_c, 9, 53, 80
11, 356400, Note_off_c, 9, 40, 64
11, 356400, Note_off_c, 9, 53, 64
11, 356400, Note_on_c, 9, 36, 100
11, 356400, Note_on_c, 9, 53, 100
11, 356640, Note_off_c, 9, 53, 64
11, 356640, Note_off_c, 9, 36, 64
11, 356640, Note_on_c, 9, 53, 80
11, 356760, Note_on_c, 9, 36, 100
11, 356880, Note_off_c, 9, 53, 64
11, 356880, Note_on_c, 9, 40, 100
11, 356880, Note_on_c, 9, 53, 80
11, 356890, Note_off_c, 9, 36, 64
11, 357120, Note_off_c, 9, 40, 64
11, 357120, Note_off_c, 9, 53, 64
11, 357120, Note_on_c, 9, 36, 100
11, 357120, Note_on_c, 9, 53, 100
11, 357360, Note_off_c, 9, 53, 64
11, 357360, Note_off_c, 9, 36, 64
11, 357360, Note_on_c, 9, 53, 80
11, 357600, Note_off_c, 9, 53, 64
11, 357600, Note_on_c, 9, 40, 100
11, 357600, Note_on_c, 9, 53, 80
11, 357840, Note_off_c, 9, 53, 64
11, 357840, Note_on_c, 9, 53, 80
11, 358073, Note_off_c, 9, 53, 64
11, 358080, Note_off_c, 9, 40, 64
11, 358080, Note_on_c, 9, 36, 100
11, 358080, Note_on_c, 9, 53, 100
11, 358320, Note_off_c, 9, 53, 64
11, 358320, Note_off_c, 9, 36, 64
11, 358320, Note_on_c, 9, 53, 80
11, 358560, Note_off_c, 9, 53, 64
11, 358560, Note_on_c, 9, 40, 100
11, 358560, Note_on_c, 9, 53, 80
11, 358800, Note_off_c, 9, 53, 64
11, 358800, Note_off_c, 9, 40, 64
11, 358800, Note_on_c, 9, 53, 80
11, 359040, Note_off_c, 9, 53, 64
11, 359040, Note_on_c, 9, 49, 100
11, 359040, Note_on_c, 9, 36, 100
11, 359280, Note_off_c, 9, 49, 64
11, 359520, Note_off_c, 9, 36, 64
11, 359520, Note_on_c, 9, 53, 80
11, 359520, Note_on_c, 9, 40, 100
11, 359760, Note_off_c, 9, 53, 64
11, 359760, Note_on_c, 9, 53, 80
11, 359883, Note_off_c, 9, 40, 64
11, 360000, Note_off_c, 9, 53, 64
11, 360000, Note_on_c, 9, 53, 100
11, 360000, Note_on_c, 9, 36, 100
11, 360240, Note_off_c, 9, 36, 64
11, 360240, Note_off_c, 9, 53, 64
11, 360240, Note_on_c, 9, 53, 80
11, 360360, Note_on_c, 9, 36, 100
11, 360480, Note_off_c, 9, 53, 64
11, 360480, Note_on_c, 9, 40, 100
11, 360480, Note_on_c, 9, 53, 80
11, 360490, Note_off_c, 9, 36, 64
11, 360720, Note_off_c, 9, 40, 64
11, 360720, Note_off_c, 9, 53, 64
11, 360720, Note_on_c, 9, 36, 100
11, 360720, Note_on_c, 9, 53, 100
11, 360960, Note_off_c, 9, 53, 64
11, 360960, Note_off_c, 9, 36, 64
11, 360960, Note_on_c, 9, 53, 80
11, 361200, Note_off_c, 9, 53, 64
11, 361200, Note_on_c, 9, 40, 100
11, 361200, Note_on_c, 9, 53, 80
11, 361440, Note_off_c, 9, 53, 64
11, 361440, Note_on_c, 9, 53, 80
11, 361673, Note_off_c, 9, 53, 64
11, 361680, Note_off_c, 9, 40, 64
11, 361680, Note_on_c, 9, 36, 100
11, 361680, Note_on_c, 9, 53, 100
11, 361920, Note_off_c, 9, 53, 64
11, 361920, Note_off_c, 9, 36, 64
11, 361920, Note_on_c, 9, 53, 80
11, 362160, Note_off_c, 9, 53, 64
11, 362160, Note_on_c, 9, 40, 100
11, 362160, Note_on_c, 9, 53, 80
11, 362400, Note_off_c, 9, 53, 64
11, 362400, Note_off_c, 9, 40, 64
11, 362400, Note_on_c, 9, 49, 100
11, 362400, Note_on_c, 9, 36, 100
11, 362640, Note_off_c, 9, 49, 64
11, 362640, Note_on_c, 9, 53, 85
11, 362880, Note_off_c, 9, 36, 64
11, 362880, Note_on_c, 9, 40, 100
11, 362880, Note_on_c, 9, 55, 100
11, 362887, Note_off_c, 9, 53, 64
11, 363113, Note_off_c, 9, 55, 64
11, 363120, Note_on_c, 9, 53, 85
11, 363360, Note_off_c, 9, 40, 64
11, 363360, Note_on_c, 9, 36, 100
11, 363360, Note_on_c, 9, 55, 100
11, 363367, Note_off_c, 9, 53, 64
11, 363600, Note_off_c, 9, 36, 64
11, 363720, Note_on_c, 9, 36, 100
11, 363840, Note_off_c, 9, 55, 64
11, 363840, Note_on_c, 9, 40, 100
11, 363840, Note_on_c, 9, 55, 100
11, 363850, Note_off_c, 9, 36, 64
11, 364080, Note_off_c, 9, 40, 64
11, 364080, Note_on_c, 9, 36, 100
11, 364320, Note_off_c, 9, 55, 64
11, 364320, Note_off_c, 9, 36, 64
11, 364320, Note_on_c, 9, 55, 100
11, 364560, Note_on_c, 9, 40, 100
11, 364800, Note_off_c, 9, 55, 64
11, 364800, Note_on_c, 9, 55, 100
11, 365040, Note_off_c, 9, 40, 64
11, 365040, Note_on_c, 9, 36, 100
11, 365280, Note_off_c, 9, 55, 64
11, 365280, Note_off_c, 9, 36, 64
11, 365280, Note_on_c, 9, 55, 100
11, 365520, Note_on_c, 9, 40, 100
11, 365760, Note_off_c, 9, 40, 64
11, 365760, Note_off_c, 9, 55, 64
11, 365760, Note_on_c, 9, 36, 100
11, 365760, Note_on_c, 9, 55, 100
11, 365993, Note_off_c, 9, 55, 64
11, 366000, Note_off_c, 9, 36, 64
11, 366000, Note_on_c, 9, 36, 100
11, 366000, Note_on_c, 9, 55, 100
11, 366480, Note_off_c, 9, 55, 64
11, 366480, Note_off_c, 9, 36, 64
11, 366480, Note_on_c, 9, 40, 100
11, 366480, Note_on_c, 9, 55, 100
11, 366720, Note_on_c, 9, 53, 85
11, 366727, Note_off_c, 9, 55, 64
11, 366840, Note_on_c, 9, 40, 80
11, 366843, Note_off_c, 9, 40, 64
11, 366953, Note_off_c, 9, 53, 64
11, 366960, Note_off_c, 9, 40, 64
11, 366960, Note_on_c, 9, 36, 100
11, 366960, Note_on_c, 9, 55, 100
11, 367200, Note_off_c, 9, 36, 64
11, 367320, Note_on_c, 9, 36, 100
11, 367440, Note_off_c, 9, 55, 64
11, 367440, Note_on_c, 9, 40, 100
11, 367440, Note_on_c, 9, 55, 100
11, 367450, Note_off_c, 9, 36, 64
11, 367680, Note_off_c, 9, 40, 64
11, 367680, Note_on_c, 9, 36, 100
11, 367680, Note_on_c, 9, 55, 100
11, 367687, Note_off_c, 9, 55, 64
11, 367913, Note_off_c, 9, 55, 64
11, 367920, Note_off_c, 9, 36, 64
11, 367920, Note_on_c, 9, 53, 85
11, 368040, Note_on_c, 9, 36, 100
11, 368160, Note_off_c, 9, 36, 64
11, 368160, Note_on_c, 9, 40, 100
11, 368160, Note_on_c, 9, 55, 100
11, 368167, Note_off_c, 9, 53, 64
11, 368393, Note_off_c, 9, 55, 64
11, 368400, Note_on_c, 9, 53, 85
11, 368640, Note_off_c, 9, 40, 64
11, 368640, Note_on_c, 9, 36, 100
11, 368640, Note_on_c, 9, 55, 100
11, 368647, Note_off_c, 9, 53, 64
11, 368873, Note_off_c, 9, 55, 64
11, 368880, Note_off_c, 9, 36, 64
11, 368880, Note_on_c, 9, 53, 85
11, 369000, Note_on_c, 9, 36, 80
11, 369120, Note_off_c, 9, 36, 64
11, 369120, Note_on_c, 9, 40, 100
11, 369120, Note_on_c, 9, 55, 100
11, 369127, Note_off_c, 9, 53, 64
11, 369353, Note_off_c, 9, 55, 64
11, 369360, Note_off_c, 9, 40, 64
11, 369360, Note_on_c, 9, 36, 100
11, 369360, Note_on_c, 9, 55, 100
11, 369840, Note_off_c, 9, 55, 64
11, 369840, Note_off_c, 9, 36, 64
11, 369840, Note_on_c, 9, 40, 100
11, 369840, Note_on_c, 9, 55, 100
11, 370080, Note_on_c, 9, 53, 85
11, 370087, Note_off_c, 9, 55, 64
11, 370313, Note_off_c, 9, 53, 64
11, 370320, Note_off_c, 9, 40, 64
11, 370320, Note_on_c, 9, 36, 100
11, 370320, Note_on_c, 9, 55, 100
11, 370560, Note_off_c, 9, 55, 64
11, 370560, Note_off_c, 9, 36, 64
11, 370560, Note_on_c, 9, 53, 85
11, 370680, Note_on_c, 9, 36, 100
11, 370800, Note_off_c, 9, 53, 64
11, 370800, Note_on_c, 9, 40, 100
11, 370800, Note_on_c, 9, 55, 100
11, 370810, Note_off_c, 9, 36, 64
11, 371040, Note_off_c, 9, 40, 64
11, 371040, Note_on_c, 9, 36, 100
11, 371280, Note_off_c, 9, 55, 64
11, 371280, Note_off_c, 9, 36, 64
11, 371280, Note_on_c, 9, 55, 100
11, 371520, Note_on_c, 9, 40, 100
11, 371760, Note_off_c, 9, 55, 64
11, 371760, Note_on_c, 9, 55, 100
11, 372000, Note_off_c, 9, 40, 64
11, 372000, Note_on_c, 9, 36, 100
11, 372240, Note_off_c, 9, 55, 64
11, 372240, Note_off_c, 9, 36, 64
11, 372240, Note_on_c, 9, 55, 100
11, 372480, Note_on_c, 9, 40, 100
11, 372720, Note_off_c, 9, 40, 64
11, 372720, Note_off_c, 9, 55, 64
11, 372720, Note_on_c, 9, 55, 100
11, 372720, Note_on_c, 9, 36, 100
11, 372960, Note_off_c, 9, 36, 64
11, 372960, Note_off_c, 9, 55, 64
11, 372960, Note_on_c, 9, 36, 100
11, 372960, Note_on_c, 9, 55, 100
11, 373200, Note_on_c, 9, 53, 85
11, 373207, Note_off_c, 9, 55, 64
11, 373433, Note_off_c, 9, 53, 64
11, 373440, Note_off_c, 9, 36, 64
11, 373440, Note_on_c, 9, 40, 100
11, 373440, Note_on_c, 9, 55, 100
11, 373680, Note_on_c, 9, 53, 85
11, 373800, Note_on_c, 9, 40, 100
11, 373803, Note_off_c, 9, 40, 64
11, 373913, Note_off_c, 9, 53, 64
11, 373920, Note_off_c, 9, 55, 64
11, 373920, Note_off_c, 9, 40, 64
11, 373920, Note_on_c, 9, 36, 100
11, 373920, Note_on_c, 9, 55, 100
11, 373920, Note_on_c, 9, 53, 85
11, 374160, Note_off_c, 9, 36, 64
11, 374160, Note_on_c, 9, 53, 85
11, 374166, Note_off_c, 9, 53, 64
11, 374280, Note_on_c, 9, 36, 100
11, 374393, Note_off_c, 9, 53, 64
11, 374400, Note_off_c, 9, 55, 64
11, 374400, Note_on_c, 9, 40, 100
11, 374400, Note_on_c, 9, 55, 100
11, 374410, Note_off_c, 9, 36, 64
11, 374640, Note_off_c, 9, 40, 64
11, 374640, Note_on_c, 9, 36, 100
11, 374880, Note_off_c, 9, 55, 64
11, 374880, Note_off_c, 9, 36, 64
11, 374880, Note_on_c, 9, 55, 100
11, 375120, Note_on_c, 9, 40, 100
11, 375120, Note_on_c, 9, 53, 85
11, 375127, Note_off_c, 9, 55, 64
11, 375353, Note_off_c, 9, 53, 64
11, 375360, Note_on_c, 9, 55, 100
11, 375600, Note_off_c, 9, 40, 64
11, 375600, Note_on_c, 9, 36, 100
11, 375600, Note_on_c, 9, 53, 85
11, 375607, Note_off_c, 9, 55, 64
11, 375833, Note_off_c, 9, 53, 64
11, 375840, Note_off_c, 9, 36, 64
11, 375840, Note_on_c, 9, 55, 100
11, 376080, Note_on_c, 9, 40, 100
11, 376320, Note_off_c, 9, 40, 64
11, 376320, Note_off_c, 9, 55, 64
11, 376320, Note_on_c, 9, 49, 100
11, 376320, Note_on_c, 9, 36, 100
11, 376440, Note_off_c, 9, 36, 64
11, 376440, Note_on_c, 9, 36, 100
11, 376560, Note_off_c, 9, 36, 64
11, 376560, Note_on_c, 9, 36, 100
11, 376680, Note_off_c, 9, 36, 64
11, 376680, Note_on_c, 9, 36, 100
11, 376800, Note_off_c, 9, 49, 64
11, 376800, Note_off_c, 9, 36, 64
11, 376800, Note_on_c, 9, 36, 100
11, 376800, Note_on_c, 9, 40, 100
11, 376800, Note_on_c, 9, 57, 100
11, 376920, Note_off_c, 9, 36, 64
11, 376920, Note_on_c, 9, 36, 100
11, 377040, Note_off_c, 9, 36, 64
11, 377040, Note_on_c, 9, 36, 100
11, 377160, Note_off_c, 9, 36, 64
11, 377160, Note_on_c, 9, 36, 100
11, 377280, Note_off_c, 9, 40, 64
11, 377280, Note_off_c, 9, 57, 64
11, 377280, Note_off_c, 9, 36, 64
11, 377280, Note_on_c, 9, 36, 100
11, 377280, Note_on_c, 9, 57, 100
11, 377400, Note_off_c, 9, 36, 64
11, 377400, Note_on_c, 9, 36, 100
11, 377520, Note_off_c, 9, 36, 64
11, 377520, Note_on_c, 9, 36, 100
11, 377640, Note_off_c, 9, 36, 64
11, 377640, Note_on_c, 9, 36, 100
11, 377760, Note_off_c, 9, 57, 64
11, 377760, Note_off_c, 9, 36, 64
11, 377760, Note_on_c, 9, 36, 100
11, 377760, Note_on_c, 9, 40, 100
11, 377760, Note_on_c, 9, 57, 100
11, 377880, Note_off_c, 9, 36, 64
11, 377880, Note_on_c, 9, 36, 100
11, 378000, Note_off_c, 9, 36, 64
11, 378000, Note_on_c, 9, 36, 100
11, 378120, Note_off_c, 9, 36, 64
11, 378120, Note_on_c, 9, 36, 100
11, 378240, Note_off_c, 9, 40, 64
11, 378240, Note_off_c, 9, 57, 64
11, 378240, Note_off_c, 9, 36, 64
11, 378240, Note_on_c, 9, 36, 100
11, 378240, Note_on_c, 9, 57, 100
11, 378360, Note_off_c, 9, 36, 64
11, 378360, Note_on_c, 9, 36, 100
11, 378480, Note_off_c, 9, 36, 64
11, 378480, Note_on_c, 9, 36, 100
11, 378600, Note_off_c, 9, 36, 64
11, 378600, Note_on_c, 9, 36, 100
11, 378720, Note_off_c, 9, 57, 64
11, 378720, Note_off_c, 9, 36, 64
11, 378720, Note_on_c, 9, 36, 100
11, 378720, Note_on_c, 9, 40, 100
11, 378720, Note_on_c, 9, 57, 100
11, 378840, Note_off_c, 9, 36, 64
11, 378840, Note_on_c, 9, 36, 100
11, 378960, Note_off_c, 9, 36, 64
11, 378960, Note_on_c, 9, 36, 100
11, 379080, Note_off_c, 9, 36, 64
11, 379080, Note_on_c, 9, 36, 100
11, 379200, Note_off_c, 9, 40, 64
11, 379200, Note_off_c, 9, 57, 64
11, 379200, Note_off_c, 9, 36, 64
11, 379200, Note_on_c, 9, 36, 100
11, 379200, Note_on_c, 9, 40, 100
11, 379200, Note_on_c, 9, 57, 100
11, 379320, Note_off_c, 9, 36, 64
11, 379320, Note_on_c, 9, 36, 100
11, 379440, Note_off_c, 9, 36, 64
11, 379440, Note_on_c, 9, 36, 100
11, 379550, Note_off_c, 9, 40, 64
11, 379560, Note_off_c, 9, 36, 64
11, 379560, Note_on_c, 9, 36, 100
11, 379680, Note_off_c, 9, 57, 64
11, 379680, Note_off_c, 9, 36, 64
11, 379680, Note_on_c, 9, 36, 100
11, 379680, Note_on_c, 9, 57, 100
11, 379800, Note_off_c, 9, 36, 64
11, 379800, Note_on_c, 9, 36, 100
11, 379913, Note_off_c, 9, 57, 64
11, 379920, Note_off_c, 9, 36, 64
11, 379920, Note_on_c, 9, 36, 100
11, 379920, Note_on_c, 9, 57, 100
11, 380040, Note_off_c, 9, 36, 64
11, 380040, Note_on_c, 9, 36, 100
11, 380160, Note_off_c, 9, 36, 64
11, 380160, Note_on_c, 9, 36, 100
11, 380280, Note_off_c, 9, 36, 64
11, 380280, Note_on_c, 9, 36, 100
11, 380400, Note_off_c, 9, 57, 64
11, 380400, Note_off_c, 9, 36, 64
11, 380400, Note_on_c, 9, 36, 100
11, 380400, Note_on_c, 9, 57, 100
11, 380400, Note_on_c, 9, 40, 100
11, 380520, Note_off_c, 9, 36, 64
11, 380520, Note_on_c, 9, 36, 100
11, 380640, Note_off_c, 9, 36, 64
11, 380640, Note_on_c, 9, 36, 100
11, 380760, Note_off_c, 9, 36, 64
11, 380760, Note_on_c, 9, 36, 100
11, 380880, Note_off_c, 9, 57, 64
11, 380880, Note_off_c, 9, 40, 64
11, 380880, Note_off_c, 9, 36, 64
11, 380880, Note_on_c, 9, 36, 100
11, 380880, Note_on_c, 9, 57, 100
11, 381000, Note_off_c, 9, 36, 64
11, 381000, Note_on_c, 9, 36, 100
11, 381120, Note_off_c, 9, 36, 64
11, 381120, Note_on_c, 9, 36, 100
11, 381240, Note_off_c, 9, 36, 64
11, 381240, Note_on_c, 9, 36, 100
11, 381360, Note_off_c, 9, 57, 64
11, 381360, Note_off_c, 9, 36, 64
11, 381360, Note_on_c, 9, 36, 100
11, 381360, Note_on_c, 9, 40, 100
11, 381360, Note_on_c, 9, 57, 100
11, 381480, Note_off_c, 9, 36, 64
11, 381480, Note_on_c, 9, 36, 100
11, 381600, Note_off_c, 9, 36, 64
11, 381600, Note_on_c, 9, 36, 100
11, 381720, Note_off_c, 9, 36, 64
11, 381720, Note_on_c, 9, 36, 100
11, 381840, Note_off_c, 9, 40, 64
11, 381840, Note_off_c, 9, 57, 64
11, 381840, Note_off_c, 9, 36, 64
11, 381840, Note_on_c, 9, 36, 100
11, 381840, Note_on_c, 9, 57, 100
11, 381960, Note_off_c, 9, 36, 64
11, 381960, Note_on_c, 9, 36, 100
11, 382080, Note_off_c, 9, 36, 64
11, 382080, Note_on_c, 9, 36, 100
11, 382200, Note_off_c, 9, 36, 64
11, 382200, Note_on_c, 9, 36, 100
11, 382320, Note_off_c, 9, 57, 64
11, 382320, Note_off_c, 9, 36, 64
11, 382320, Note_on_c, 9, 36, 100
11, 382320, Note_on_c, 9, 40, 100
11, 382320, Note_on_c, 9, 57, 100
11, 382440, Note_off_c, 9, 36, 64
11, 382440, Note_on_c, 9, 36, 100
11, 382560, Note_off_c, 9, 36, 64
11, 382560, Note_on_c, 9, 36, 100
11, 382680, Note_off_c, 9, 36, 64
11, 382680, Note_on_c, 9, 36, 100
11, 382800, Note_off_c, 9, 40, 64
11, 382800, Note_off_c, 9, 57, 64
11, 382800, Note_off_c, 9, 36, 64
11, 382800, Note_on_c, 9, 36, 100
11, 382800, Note_on_c, 9, 40, 100
11, 382920, Note_off_c, 9, 36, 64
11, 382920, Note_on_c, 9, 36, 100
11, 383040, Note_off_c, 9, 36, 64
11, 383040, Note_on_c, 9, 36, 100
11, 383040, Note_on_c, 9, 57, 100
11, 383150, Note_off_c, 9, 40, 64
11, 383160, Note_off_c, 9, 36, 64
11, 383160, Note_on_c, 9, 36, 100
11, 383273, Note_off_c, 9, 57, 64
11, 383280, Note_off_c, 9, 36, 64
11, 383280, Note_on_c, 9, 36, 100
11, 383280, Note_on_c, 9, 57, 100
11, 383400, Note_off_c, 9, 36, 64
11, 383400, Note_on_c, 9, 36, 100
11, 383520, Note_off_c, 9, 36, 64
11, 383520, Note_on_c, 9, 36, 100
11, 383640, Note_off_c, 9, 36, 64
11, 383640, Note_on_c, 9, 36, 100
11, 383760, Note_off_c, 9, 57, 64
11, 383760, Note_off_c, 9, 36, 64
11, 383760, Note_on_c, 9, 36, 100
11, 383760, Note_on_c, 9, 40, 100
11, 383760, Note_on_c, 9, 57, 100
11, 383880, Note_off_c, 9, 36, 64
11, 383880, Note_on_c, 9, 36, 100
11, 384000, Note_off_c, 9, 36, 64
11, 384000, Note_on_c, 9, 36, 100
11, 384120, Note_off_c, 9, 36, 64
11, 384120, Note_on_c, 9, 36, 100
11, 384240, Note_off_c, 9, 40, 64
11, 384240, Note_off_c, 9, 57, 64
11, 384240, Note_off_c, 9, 36, 64
11, 384240, Note_on_c, 9, 36, 100
11, 384240, Note_on_c, 9, 57, 100
11, 384360, Note_off_c, 9, 36, 64
11, 384360, Note_on_c, 9, 36, 100
11, 384480, Note_off_c, 9, 36, 64
11, 384480, Note_on_c, 9, 36, 100
11, 384600, Note_off_c, 9, 36, 64
11, 384600, Note_on_c, 9, 36, 100
11, 384720, Note_off_c, 9, 57, 64
11, 384720, Note_off_c, 9, 36, 64
11, 384720, Note_on_c, 9, 36, 100
11, 384720, Note_on_c, 9, 40, 100
11, 384720, Note_on_c, 9, 57, 100
11, 384840, Note_off_c, 9, 36, 64
11, 384840, Note_on_c, 9, 36, 100
11, 384960, Note_off_c, 9, 36, 64
11, 384960, Note_on_c, 9, 36, 100
11, 385080, Note_off_c, 9, 36, 64
11, 385080, Note_on_c, 9, 36, 100
11, 385200, Note_off_c, 9, 40, 64
11, 385200, Note_off_c, 9, 57, 64
11, 385200, Note_off_c, 9, 36, 64
11, 385200, Note_on_c, 9, 36, 100
11, 385200, Note_on_c, 9, 57, 100
11, 385320, Note_off_c, 9, 36, 64
11, 385320, Note_on_c, 9, 36, 100
11, 385440, Note_off_c, 9, 36, 64
11, 385440, Note_on_c, 9, 36, 100
11, 385560, Note_off_c, 9, 36, 64
11, 385560, Note_on_c, 9, 36, 100
11, 385680, Note_off_c, 9, 57, 64
11, 385680, Note_off_c, 9, 36, 64
11, 385680, Note_on_c, 9, 36, 100
11, 385680, Note_on_c, 9, 40, 100
11, 385680, Note_on_c, 9, 57, 100
11, 385800, Note_off_c, 9, 36, 64
11, 385800, Note_on_c, 9, 36, 100
11, 385920, Note_off_c, 9, 36, 64
11, 385920, Note_on_c, 9, 36, 100
11, 386040, Note_off_c, 9, 36, 64
11, 386040, Note_on_c, 9, 36, 100
11, 386160, Note_off_c, 9, 40, 64
11, 386160, Note_off_c, 9, 57, 64
11, 386160, Note_off_c, 9, 36, 64
11, 386160, Note_on_c, 9, 36, 100
11, 386160, Note_on_c, 9, 40, 100
11, 386160, Note_on_c, 9, 57, 100
11, 386280, Note_off_c, 9, 36, 64
11, 386280, Note_on_c, 9, 36, 100
11, 386400, Note_off_c, 9, 36, 64
11, 386400, Note_on_c, 9, 36, 100
11, 386510, Note_off_c, 9, 40, 64
11, 386520, Note_off_c, 9, 36, 64
11, 386520, Note_on_c, 9, 36, 100
11, 386640, Note_off_c, 9, 57, 64
11, 386640, Note_off_c, 9, 36, 64
11, 386640, Note_on_c, 9, 36, 100
11, 386640, Note_on_c, 9, 57, 100
11, 386760, Note_off_c, 9, 36, 64
11, 386760, Note_on_c, 9, 36, 100
11, 386873, Note_off_c, 9, 57, 64
11, 386880, Note_off_c, 9, 36, 64
11, 386880, Note_on_c, 9, 36, 100
11, 386880, Note_on_c, 9, 57, 100
11, 387000, Note_off_c, 9, 36, 64
11, 387000, Note_on_c, 9, 36, 100
11, 387120, Note_off_c, 9, 36, 64
11, 387120, Note_on_c, 9, 36, 100
11, 387240, Note_off_c, 9, 36, 64
11, 387240, Note_on_c, 9, 36, 100
11, 387360, Note_off_c, 9, 57, 64
11, 387360, Note_off_c, 9, 36, 64
11, 387360, Note_on_c, 9, 36, 100
11, 387360, Note_on_c, 9, 57, 100
11, 387360, Note_on_c, 9, 40, 100
11, 387480, Note_off_c, 9, 36, 64
11, 387480, Note_on_c, 9, 36, 100
11, 387600, Note_off_c, 9, 36, 64
11, 387600, Note_on_c, 9, 36, 100
11, 387720, Note_off_c, 9, 36, 64
11, 387720, Note_on_c, 9, 36, 100
11, 387840, Note_off_c, 9, 57, 64
11, 387840, Note_off_c, 9, 40, 64
11, 387840, Note_off_c, 9, 36, 64
11, 387840, Note_on_c, 9, 36, 100
11, 387840, Note_on_c, 9, 57, 100
11, 387960, Note_off_c, 9, 36, 64
11, 387960, Note_on_c, 9, 36, 100
11, 388080, Note_off_c, 9, 36, 64
11, 388080, Note_on_c, 9, 36, 100
11, 388200, Note_off_c, 9, 36, 64
11, 388200, Note_on_c, 9, 36, 100
11, 388320, Note_off_c, 9, 57, 64
11, 388320, Note_off_c, 9, 36, 64
11, 388320, Note_on_c, 9, 36, 100
11, 388320, Note_on_c, 9, 40, 100
11, 388320, Note_on_c, 9, 57, 100
11, 388440, Note_off_c, 9, 36, 64
11, 388440, Note_on_c, 9, 36, 100
11, 388560, Note_off_c, 9, 36, 64
11, 388560, Note_on_c, 9, 36, 100
11, 388680, Note_off_c, 9, 36, 64
11, 388680, Note_on_c, 9, 36, 100
11, 388800, Note_off_c, 9, 40, 64
11, 388800, Note_off_c, 9, 57, 64
11, 388800, Note_off_c, 9, 36, 64
11, 388800, Note_on_c, 9, 36, 100
11, 388800, Note_on_c, 9, 57, 100
11, 388920, Note_off_c, 9, 36, 64
11, 388920, Note_on_c, 9, 36, 100
11, 389040, Note_off_c, 9, 36, 64
11, 389040, Note_on_c, 9, 36, 100
11, 389160, Note_off_c, 9, 36, 64
11, 389160, Note_on_c, 9, 36, 100
11, 389280, Note_off_c, 9, 57, 64
11, 389280, Note_off_c, 9, 36, 64
11, 389280, Note_on_c, 9, 36, 100
11, 389280, Note_on_c, 9, 40, 100
11, 389280, Note_on_c, 9, 57, 100
11, 389400, Note_off_c, 9, 36, 64
11, 389400, Note_on_c, 9, 36, 100
11, 389520, Note_off_c, 9, 36, 64
11, 389520, Note_on_c, 9, 36, 100
11, 389640, Note_off_c, 9, 36, 64
11, 389640, Note_on_c, 9, 36, 100
11, 389760, Note_off_c, 9, 40, 64
11, 389760, Note_off_c, 9, 57, 64
11, 389760, Note_off_c, 9, 36, 64
11, 389760, Note_on_c, 9, 57, 100
11, 389760, Note_on_c, 9, 40, 100
11, 390000, Note_off_c, 9, 57, 64
11, 390000, Note_on_c, 9, 57, 100
11, 390000, Note_on_c, 9, 36, 100
11, 390007, Note_off_c, 9, 40, 64
11, 390233, Note_off_c, 9, 57, 64
11, 390240, Note_off_c, 9, 36, 64
11, 390240, Note_on_c, 9, 49, 100
11, 390240, Note_on_c, 9, 36, 100
11, 390720, Note_off_c, 9, 36, 64
11, 390720, Note_off_c, 9, 49, 64
11, 390720, Note_on_c, 9, 40, 100
11, 390720, Note_on_c, 9, 53, 100
11, 390953, Note_off_c, 9, 53, 64
11, 390960, Note_on_c, 9, 53, 85
11, 391200, Note_off_c, 9, 40, 64
11, 391200, Note_off_c, 9, 53, 64
11, 391200, Note_on_c, 9, 36, 100
11, 391200, Note_on_c, 9, 53, 100
11, 391433, Note_off_c, 9, 53, 64
11, 391440, Note_on_c, 9, 53, 85
11, 391550, Note_off_c, 9, 36, 64
11, 391560, Note_on_c, 9, 36, 100
11, 391680, Note_off_c, 9, 53, 64
11, 391680, Note_on_c, 9, 53, 100
11, 391680, Note_on_c, 9, 40, 100
11, 391690, Note_off_c, 9, 36, 64
11, 391920, Note_off_c, 9, 40, 64
11, 391920, Note_on_c, 9, 36, 100
11, 392160, Note_off_c, 9, 53, 64
11, 392160, Note_off_c, 9, 36, 64
11, 392160, Note_on_c, 9, 53, 100
11, 392400, Note_on_c, 9, 40, 100
11, 392640, Note_off_c, 9, 53, 64
11, 392640, Note_on_c, 9, 53, 100
11, 392880, Note_off_c, 9, 40, 64
11, 392880, Note_on_c, 9, 36, 100
11, 393120, Note_off_c, 9, 53, 64
11, 393120, Note_on_c, 9, 53, 100
11, 393240, Note_on_c, 9, 36, 100
11, 393243, Note_off_c, 9, 36, 64
11, 393360, Note_off_c, 9, 36, 64
11, 393360, Note_on_c, 9, 40, 100
11, 393600, Note_off_c, 9, 53, 64
11, 393600, Note_on_c, 9, 36, 100
11, 393600, Note_on_c, 9, 53, 100
11, 393607, Note_off_c, 9, 40, 64
11, 393833, Note_off_c, 9, 53, 64
11, 393840, Note_on_c, 9, 53, 85
11, 393950, Note_off_c, 9, 36, 64
11, 394080, Note_off_c, 9, 53, 64
11, 394080, Note_on_c, 9, 40, 100
11, 394080, Note_on_c, 9, 53, 100
11, 394080, Note_on_c, 9, 53, 100
11, 394313, Note_off_c, 9, 53, 64
11, 394313, Note_off_c, 9, 53, 64
11, 394320, Note_on_c, 9, 53, 85
11, 394320, Note_on_c, 9, 53, 85
11, 394560, Note_off_c, 9, 53, 64
11, 394560, Note_off_c, 9, 40, 64
11, 394560, Note_off_c, 9, 53, 64
11, 394560, Note_on_c, 9, 36, 100
11, 394560, Note_on_c, 9, 53, 100
11, 394793, Note_off_c, 9, 53, 64
11, 394800, Note_on_c, 9, 53, 85
11, 394910, Note_off_c, 9, 36, 64
11, 394920, Note_on_c, 9, 36, 100
11, 395040, Note_off_c, 9, 53, 64
11, 395040, Note_on_c, 9, 53, 100
11, 395040, Note_on_c, 9, 40, 100
11, 395050, Note_off_c, 9, 36, 64
11, 395280, Note_off_c, 9, 40, 64
11, 395280, Note_on_c, 9, 36, 100
11, 395520, Note_off_c, 9, 53, 64
11, 395520, Note_off_c, 9, 36, 64
11, 395520, Note_on_c, 9, 53, 100
11, 395760, Note_on_c, 9, 40, 100
11, 396000, Note_off_c, 9, 53, 64
11, 396000, Note_on_c, 9, 53, 100
11, 396240, Note_off_c, 9, 40, 64
11, 396240, Note_on_c, 9, 36, 100
11, 396480, Note_off_c, 9, 53, 64
11, 396480, Note_on_c, 9, 53, 100
11, 396720, Note_off_c, 9, 36, 64
11, 396720, Note_on_c, 9, 40, 100
11, 396960, Note_off_c, 9, 53, 64
11, 396960, Note_on_c, 9, 36, 100
11, 396960, Note_on_c, 9, 49, 100
11, 396967, Note_off_c, 9, 40, 64
11, 397440, Note_off_c, 9, 36, 64
11, 397440, Note_off_c, 9, 49, 64
11, 397440, Note_on_c, 9, 53, 100
11, 397440, Note_on_c, 9, 40, 100
11, 397673, Note_off_c, 9, 53, 64
11, 397680, Note_on_c, 9, 53, 85
11, 397790, Note_off_c, 9, 40, 64
11, 397800, Note_on_c, 9, 40, 100
11, 397920, Note_off_c, 9, 53, 64
11, 397920, Note_off_c, 9, 40, 64
11, 397920, Note_on_c, 9, 36, 100
11, 397920, Note_on_c, 9, 53, 100
11, 398153, Note_off_c, 9, 53, 64
11, 398160, Note_on_c, 9, 53, 85
11, 398270, Note_off_c, 9, 36, 64
11, 398280, Note_on_c, 9, 36, 100
11, 398400, Note_off_c, 9, 53, 64
11, 398400, Note_on_c, 9, 53, 100
11, 398400, Note_on_c, 9, 40, 100
11, 398410, Note_off_c, 9, 36, 64
11, 398640, Note_off_c, 9, 40, 64
11, 398640, Note_on_c, 9, 36, 100
11, 398880, Note_off_c, 9, 53, 64
11, 398880, Note_off_c, 9, 36, 64
11, 398880, Note_on_c, 9, 53, 100
11, 399120, Note_on_c, 9, 40, 100
11, 399360, Note_off_c, 9, 53, 64
11, 399360, Note_on_c, 9, 53, 100
11, 399600, Note_off_c, 9, 40, 64
11, 399600, Note_on_c, 9, 36, 100
11, 399840, Note_off_c, 9, 53, 64
11, 399840, Note_on_c, 9, 53, 100
11, 399963, Note_off_c, 9, 36, 64
11, 400080, Note_on_c, 9, 40, 100
11, 400320, Note_off_c, 9, 53, 64
11, 400320, Note_on_c, 9, 53, 100
11, 400320, Note_on_c, 9, 36, 100
11, 400327, Note_off_c, 9, 40, 64
11, 400680, Note_off_c, 9, 36, 64
11, 400680, Note_on_c, 9, 36, 100
11, 400800, Note_off_c, 9, 53, 64
11, 400800, Note_off_c, 9, 36, 64
11, 400800, Note_on_c, 9, 53, 100
11, 400800, Note_on_c, 9, 40, 100
11, 401280, Note_off_c, 9, 40, 64
11, 401280, Note_off_c, 9, 53, 64
11, 401280, Note_on_c, 9, 36, 100
11, 401280, Note_on_c, 9, 53, 100
11, 401513, Note_off_c, 9, 53, 64
11, 401520, Note_off_c, 9, 36, 64
11, 401520, Note_on_c, 9, 36, 100
11, 401520, Note_on_c, 9, 53, 70
11, 401760, Note_off_c, 9, 53, 64
11, 401760, Note_off_c, 9, 36, 64
11, 401760, Note_on_c, 9, 40, 100
11, 401800, Note_off_c, 9, 40, 64
11, 401800, Note_on_c, 9, 40, 100
11, 401840, Note_off_c, 9, 40, 64
11, 402240, Note_on_c, 9, 36, 100
11, 402240, Note_on_c, 9, 49, 100
11, 402720, Note_off_c, 9, 49, 64
11, 402720, Note_off_c, 9, 36, 64
11, 402720, Note_on_c, 9, 40, 100
11, 402720, Note_on_c, 9, 46, 100
11, 402960, Note_off_c, 9, 46, 64
11, 402960, Note_on_c, 9, 46, 79
11, 403200, Note_off_c, 9, 40, 64
11, 403200, Note_off_c, 9, 46, 64
11, 403200, Note_on_c, 9, 36, 100
11, 403200, Note_on_c, 9, 46, 100
11, 403440, Note_off_c, 9, 46, 64
11, 403440, Note_on_c, 9, 46, 79
11, 403680, Note_off_c, 9, 36, 64
11, 403680, Note_off_c, 9, 46, 64
11, 403680, Note_on_c, 9, 40, 100
11, 403680, Note_on_c, 9, 46, 100
11, 403913, Note_off_c, 9, 40, 64
11, 403920, Note_off_c, 9, 46, 64
11, 403920, Note_on_c, 9, 36, 100
11, 403920, Note_on_c, 9, 46, 100
11, 404400, Note_off_c, 9, 46, 64
11, 404400, Note_off_c, 9, 36, 64
11, 404400, Note_on_c, 9, 40, 100
11, 404400, Note_on_c, 9, 46, 80
11, 404640, Note_off_c, 9, 46, 64
11, 404640, Note_on_c, 9, 46, 100
11, 404880, Note_off_c, 9, 40, 64
11, 404880, Note_off_c, 9, 46, 64
11, 404880, Note_on_c, 9, 36, 100
11, 404880, Note_on_c, 9, 46, 100
11, 405360, Note_off_c, 9, 46, 64
11, 405360, Note_off_c, 9, 36, 64
11, 405360, Note_on_c, 9, 40, 100
11, 405360, Note_on_c, 9, 46, 100
11, 405600, Note_on_c, 9, 46, 100
11, 405600, Note_on_c, 9, 36, 100
11, 405607, Note_off_c, 9, 46, 64
11, 405607, Note_off_c, 9, 40, 64
11, 406080, Note_off_c, 9, 46, 64
11, 406080, Note_off_c, 9, 36, 64
11, 406080, Note_on_c, 9, 36, 100
11, 406080, Note_on_c, 9, 46, 100
11, 406560, Note_off_c, 9, 46, 64
11, 406560, Note_off_c, 9, 36, 64
11, 406560, Note_on_c, 9, 40, 100
11, 406560, Note_on_c, 9, 46, 100
11, 406800, Note_off_c, 9, 46, 64
11, 406800, Note_on_c, 9, 46, 79
11, 407040, Note_off_c, 9, 40, 64
11, 407040, Note_off_c, 9, 46, 64
11, 407040, Note_on_c, 9, 36, 100
11, 407040, Note_on_c, 9, 46, 100
11, 407280, Note_off_c, 9, 46, 64
11, 407280, Note_on_c, 9, 46, 79
11, 407520, Note_off_c, 9, 36, 64
11, 407520, Note_off_c, 9, 46, 64
11, 407520, Note_on_c, 9, 40, 100
11, 407520, Note_on_c, 9, 46, 100
11, 407753, Note_off_c, 9, 40, 64
11, 407760, Note_off_c, 9, 46, 64
11, 407760, Note_on_c, 9, 36, 100
11, 407760, Note_on_c, 9, 46, 100
11, 408240, Note_off_c, 9, 46, 64
11, 408240, Note_off_c, 9, 36, 64
11, 408240, Note_on_c, 9, 40, 100
11, 408240, Note_on_c, 9, 46, 80
11, 408480, Note_off_c, 9, 46, 64
11, 408480, Note_on_c, 9, 46, 100
11, 408713, Note_off_c, 9, 46, 64
11, 408720, Note_off_c, 9, 40, 64
11, 408720, Note_on_c, 9, 40, 100
11, 408840, Note_off_c, 9, 40, 64
11, 408840, Note_on_c, 9, 40, 100
11, 408960, Note_off_c, 9, 40, 64
11, 408960, Note_on_c, 9, 40, 100
11, 409080, Note_off_c, 9, 40, 64
11, 409080, Note_on_c, 9, 40, 100
11, 409200, Note_off_c, 9, 40, 64
11, 409200, Note_on_c, 9, 40, 100
11, 409320, Note_off_c, 9, 40, 64
11, 409320, Note_on_c, 9, 40, 100
11, 409440, Note_on_c, 9, 49, 100
11, 409440, Note_on_c, 9, 36, 100
11, 409450, Note_off_c, 9, 40, 64
11, 409920, Note_off_c, 9, 49, 64
11, 409920, Note_off_c, 9, 36, 64
11, 409920, Note_on_c, 9, 40, 100
11, 409920, Note_on_c, 9, 46, 100
11, 410160, Note_off_c, 9, 46, 64
11, 410160, Note_on_c, 9, 46, 79
11, 410400, Note_off_c, 9, 40, 64
11, 410400, Note_off_c, 9, 46, 64
11, 410400, Note_on_c, 9, 36, 100
11, 410400, Note_on_c, 9, 46, 100
11, 410640, Note_off_c, 9, 46, 64
11, 410640, Note_on_c, 9, 46, 79
11, 410880, Note_off_c, 9, 36, 64
11, 410880, Note_off_c, 9, 46, 64
11, 410880, Note_on_c, 9, 40, 100
11, 410880, Note_on_c, 9, 46, 100
11, 411113, Note_off_c, 9, 40, 64
11, 411120, Note_off_c, 9, 46, 64
11, 411120, Note_on_c, 9, 36, 100
11, 411120, Note_on_c, 9, 46, 100
11, 411600, Note_off_c, 9, 46, 64
11, 411600, Note_off_c, 9, 36, 64
11, 411600, Note_on_c, 9, 40, 100
11, 411600, Note_on_c, 9, 46, 80
11, 411840, Note_off_c, 9, 46, 64
11, 411840, Note_on_c, 9, 46, 100
11, 412080, Note_off_c, 9, 40, 64
11, 412080, Note_off_c, 9, 46, 64
11, 412080, Note_on_c, 9, 36, 100
11, 412080, Note_on_c, 9, 46, 100
11, 412560, Note_off_c, 9, 46, 64
11, 412560, Note_off_c, 9, 36, 64
11, 412560, Note_on_c, 9, 40, 100
11, 412560, Note_on_c, 9, 46, 100
11, 412800, Note_on_c, 9, 46, 100
11, 412800, Note_on_c, 9, 36, 100
11, 412807, Note_off_c, 9, 46, 64
11, 412807, Note_off_c, 9, 40, 64
11, 413280, Note_off_c, 9, 46, 64
11, 413280, Note_off_c, 9, 36, 64
11, 413280, Note_on_c, 9, 36, 100
11, 413280, Note_on_c, 9, 46, 100
11, 413760, Note_off_c, 9, 46, 64
11, 413760, Note_off_c, 9, 36, 64
11, 413760, Note_on_c, 9, 40, 100
11, 413760, Note_on_c, 9, 46, 100
11, 414000, Note_off_c, 9, 46, 64
11, 414000, Note_on_c, 9, 46, 79
11, 414240, Note_off_c, 9, 40, 64
11, 414240, Note_off_c, 9, 46, 64
11, 414240, Note_on_c, 9, 36, 100
11, 414240, Note_on_c, 9, 46, 100
11, 414480, Note_off_c, 9, 46, 64
11, 414480, Note_on_c, 9, 46, 79
11, 414720, Note_off_c, 9, 36, 64
11, 414720, Note_off_c, 9, 46, 64
11, 414720, Note_on_c, 9, 40, 100
11, 414720, Note_on_c, 9, 46, 100
11, 414953, Note_off_c, 9, 40, 64
11, 414960, Note_off_c, 9, 46, 64
11, 414960, Note_on_c, 9, 36, 100
11, 414960, Note_on_c, 9, 46, 100
11, 415200, Note_on_c, 9, 46, 80
11, 415207, Note_off_c, 9, 46, 64
11, 415440, Note_off_c, 9, 36, 64
11, 415440, Note_off_c, 9, 46, 64
11, 415440, Note_on_c, 9, 40, 100
11, 415440, Note_on_c, 9, 46, 80
11, 415680, Note_off_c, 9, 46, 64
11, 415680, Note_on_c, 9, 46, 80
11, 415913, Note_off_c, 9, 46, 64
11, 415920, Note_off_c, 9, 40, 64
11, 415920, Note_on_c, 9, 46, 100
11, 416160, Note_off_c, 9, 46, 64
11, 416160, Note_on_c, 9, 40, 100
11, 416280, Note_off_c, 9, 40, 64
11, 416280, Note_on_c, 9, 40, 100
11, 416400, Note_off_c, 9, 40, 64
11, 416400, Note_on_c, 9, 40, 100
11, 416520, Note_off_c, 9, 40, 64
11, 416520, Note_on_c, 9, 40, 100
11, 416640, Note_on_c, 9, 36, 100
11, 416640, Note_on_c, 9, 49, 100
11, 416650, Note_off_c, 9, 40, 64
11, 417120, Note_off_c, 9, 36, 64
11, 417120, Note_off_c, 9, 49, 64
11, 417120, Note_on_c, 9, 40, 100
11, 417120, Note_on_c, 9, 46, 100
11, 417360, Note_off_c, 9, 46, 64
11, 417360, Note_on_c, 9, 46, 79
11, 417600, Note_off_c, 9, 40, 64
11, 417600, Note_off_c, 9, 46, 64
11, 417600, Note_on_c, 9, 36, 100
11, 417600, Note_on_c, 9, 46, 100
11, 417840, Note_off_c, 9, 46, 64
11, 417840, Note_on_c, 9, 46, 79
11, 418080, Note_off_c, 9, 36, 64
11, 418080, Note_off_c, 9, 46, 64
11, 418080, Note_on_c, 9, 40, 100
11, 418080, Note_on_c, 9, 46, 100
11, 418313, Note_off_c, 9, 40, 64
11, 418320, Note_off_c, 9, 46, 64
11, 418320, Note_on_c, 9, 36, 100
11, 418320, Note_on_c, 9, 46, 100
11, 418560, Note_on_c, 9, 46, 80
11, 418567, Note_off_c, 9, 46, 64
11, 418800, Note_off_c, 9, 36, 64
11, 418800, Note_on_c, 9, 36, 100
11, 419040, Note_off_c, 9, 46, 64
11, 419040, Note_on_c, 9, 46, 100
11, 419280, Note_off_c, 9, 36, 64
11, 419280, Note_on_c, 9, 40, 100
11, 419520, Note_off_c, 9, 46, 64
11, 419520, Note_on_c, 9, 46, 100
11, 419760, Note_off_c, 9, 40, 64
11, 419760, Note_on_c, 9, 36, 100
11, 420000, Note_off_c, 9, 46, 64
11, 420000, Note_on_c, 9, 40, 100
11, 420000, Note_on_c, 9, 46, 100
11, 420007, Note_off_c, 9, 36, 64
11, 420233, Note_off_c, 9, 40, 64
11, 420240, Note_on_c, 9, 36, 100
11, 420480, Note_off_c, 9, 46, 64
11, 420480, Note_off_c, 9, 36, 64
11, 420480, Note_on_c, 9, 36, 100
11, 420480, Note_on_c, 9, 46, 100
11, 420713, Note_off_c, 9, 46, 64
11, 420720, Note_on_c, 9, 46, 80
11, 420960, Note_off_c, 9, 36, 64
11, 420960, Note_off_c, 9, 46, 64
11, 420960, Note_on_c, 9, 40, 100
11, 420960, Note_on_c, 9, 46, 100
11, 421200, Note_off_c, 9, 46, 64
11, 421200, Note_on_c, 9, 46, 79
11, 421440, Note_off_c, 9, 40, 64
11, 421440, Note_off_c, 9, 46, 64
11, 421440, Note_on_c, 9, 36, 100
11, 421440, Note_on_c, 9, 46, 100
11, 421680, Note_off_c, 9, 46, 64
11, 421680, Note_on_c, 9, 46, 79
11, 421920, Note_off_c, 9, 36, 64
11, 421920, Note_off_c, 9, 46, 64
11, 421920, Note_on_c, 9, 40, 100
11, 421920, Note_on_c, 9, 46, 100
11, 422153, Note_off_c, 9, 40, 64
11, 422160, Note_off_c, 9, 46, 64
11, 422160, Note_on_c, 9, 46, 100
11, 422160, Note_on_c, 9, 36, 100
11, 422400, Note_on_c, 9, 46, 80
11, 422407, Note_off_c, 9, 36, 64
11, 422407, Note_off_c, 9, 46, 64
11, 422640, Note_off_c, 9, 46, 64
11, 422640, Note_on_c, 9, 46, 80
11, 422640, Note_on_c, 9, 36, 100
11, 422880, Note_off_c, 9, 36, 64
11, 422880, Note_off_c, 9, 46, 64
11, 422880, Note_on_c, 9, 46, 80
11, 422880, Note_on_c, 9, 40, 100
11, 423113, Note_off_c, 9, 40, 64
11, 423113, Note_off_c, 9, 46, 64
11, 423120, Note_on_c, 9, 46, 100
11, 423120, Note_on_c, 9, 36, 100
11, 423360, Note_off_c, 9, 36, 64
11, 423360, Note_off_c, 9, 46, 64
11, 423360, Note_on_c, 9, 40, 100
11, 423360, Note_on_c, 9, 46, 80
11, 423600, Note_off_c, 9, 46, 64
11, 423600, Note_off_c, 9, 40, 64
11, 423600, Note_on_c, 9, 36, 100
11, 423600, Note_on_c, 9, 49, 100
11, 423840, Note_off_c, 9, 49, 64
11, 423840, Note_off_c, 9, 36, 64
11, 423840, Note_on_c, 9, 36, 100
11, 423840, Note_on_c, 9, 49, 100
11, 424320, Note_off_c, 9, 49, 64
11, 424320, Note_off_c, 9, 36, 64
11, 424320, Note_on_c, 9, 40, 100
11, 424320, Note_on_c, 9, 46, 100
11, 424560, Note_off_c, 9, 46, 64
11, 424560, Note_on_c, 9, 46, 79
11, 424800, Note_off_c, 9, 40, 64
11, 424800, Note_off_c, 9, 46, 64
11, 424800, Note_on_c, 9, 36, 100
11, 424800, Note_on_c, 9, 46, 100
11, 425040, Note_off_c, 9, 46, 64
11, 425040, Note_on_c, 9, 46, 79
11, 425280, Note_off_c, 9, 36, 64
11, 425280, Note_off_c, 9, 46, 64
11, 425280, Note_on_c, 9, 40, 100
11, 425280, Note_on_c, 9, 46, 100
11, 425513, Note_off_c, 9, 40, 64
11, 425520, Note_off_c, 9, 46, 64
11, 425520, Note_on_c, 9, 36, 100
11, 425520, Note_on_c, 9, 46, 100
11, 426000, Note_off_c, 9, 46, 64
11, 426000, Note_off_c, 9, 36, 64
11, 426000, Note_on_c, 9, 40, 100
11, 426000, Note_on_c, 9, 46, 80
11, 426240, Note_off_c, 9, 46, 64
11, 426240, Note_on_c, 9, 46, 100
11, 426480, Note_off_c, 9, 40, 64
11, 426480, Note_off_c, 9, 46, 64
11, 426480, Note_on_c, 9, 36, 100
11, 426480, Note_on_c, 9, 46, 100
11, 426960, Note_off_c, 9, 46, 64
11, 426960, Note_off_c, 9, 36, 64
11, 426960, Note_on_c, 9, 40, 100
11, 426960, Note_on_c, 9, 46, 100
11, 427200, Note_on_c, 9, 46, 100
11, 427200, Note_on_c, 9, 36, 100
11, 427207, Note_off_c, 9, 46, 64
11, 427207, Note_off_c, 9, 40, 64
11, 427680, Note_off_c, 9, 46, 64
11, 427680, Note_off_c, 9, 36, 64
11, 427680, Note_on_c, 9, 36, 100
11, 427680, Note_on_c, 9, 46, 100
11, 428160, Note_off_c, 9, 46, 64
11, 428160, Note_off_c, 9, 36, 64
11, 428160, Note_on_c, 9, 40, 100
11, 428160, Note_on_c, 9, 46, 100
11, 428400, Note_off_c, 9, 46, 64
11, 428400, Note_on_c, 9, 46, 79
11, 428640, Note_off_c, 9, 40, 64
11, 428640, Note_off_c, 9, 46, 64
11, 428640, Note_on_c, 9, 36, 100
11, 428640, Note_on_c, 9, 46, 100
11, 428880, Note_off_c, 9, 46, 64
11, 428880, Note_on_c, 9, 46, 79
11, 429120, Note_off_c, 9, 36, 64
11, 429120, Note_off_c, 9, 46, 64
11, 429120, Note_on_c, 9, 40, 100
11, 429120, Note_on_c, 9, 46, 100
11, 429353, Note_off_c, 9, 40, 64
11, 429360, Note_off_c, 9, 46, 64
11, 429360, Note_on_c, 9, 36, 100
11, 429360, Note_on_c, 9, 46, 100
11, 429600, Note_on_c, 9, 46, 80
11, 429607, Note_off_c, 9, 46, 64
11, 429840, Note_off_c, 9, 36, 64
11, 429840, Note_off_c, 9, 46, 64
11, 429840, Note_on_c, 9, 40, 100
11, 429840, Note_on_c, 9, 46, 80
11, 430080, Note_off_c, 9, 46, 64
11, 430080, Note_on_c, 9, 46, 80
11, 430313, Note_off_c, 9, 46, 64
11, 430320, Note_off_c, 9, 40, 64
11, 430320, Note_on_c, 9, 46, 100
11, 430320, Note_on_c, 9, 36, 100
11, 430560, Note_off_c, 9, 46, 64
11, 430560, Note_on_c, 9, 46, 80
11, 430800, Note_off_c, 9, 36, 64
11, 430800, Note_off_c, 9, 46, 64
11, 430800, Note_on_c, 9, 46, 80
11, 430800, Note_on_c, 9, 36, 100
11, 431040, Note_off_c, 9, 46, 64
11, 431040, Note_on_c, 9, 40, 100
11, 431040, Note_on_c, 9, 57, 100
11, 431047, Note_off_c, 9, 36, 64
11, 431160, Note_off_c, 9, 40, 64
11, 431280, Note_off_c, 9, 57, 64
11, 431280, Note_on_c, 9, 36, 100
11, 431280, Note_on_c, 9, 57, 70
11, 431520, Note_off_c, 9, 57, 64
11, 431520, Note_off_c, 9, 36, 64
11, 431520, Note_on_c, 9, 40, 100
11, 431520, Note_on_c, 9, 53, 100
11, 431760, Note_off_c, 9, 53, 64
11, 431760, Note_off_c, 9, 40, 64
11, 431760, Note_on_c, 9, 53, 80
11, 432000, Note_off_c, 9, 53, 64
11, 432000, Note_on_c, 9, 36, 100
11, 432000, Note_on_c, 9, 53, 100
11, 432240, Note_off_c, 9, 53, 64
11, 432240, Note_off_c, 9, 36, 64
11, 432240, Note_on_c, 9, 53, 80
11, 432360, Note_on_c, 9, 36, 100
11, 432480, Note_off_c, 9, 36, 64
11, 432480, Note_off_c, 9, 53, 64
11, 432480, Note_on_c, 9, 40, 100
11, 432480, Note_on_c, 9, 53, 80
11, 432720, Note_off_c, 9, 53, 64
11, 432720, Note_off_c, 9, 40, 64
11, 432720, Note_on_c, 9, 36, 100
11, 432720, Note_on_c, 9, 53, 100
11, 432960, Note_off_c, 9, 53, 64
11, 432960, Note_on_c, 9, 53, 80
11, 433200, Note_off_c, 9, 36, 64
11, 433200, Note_off_c, 9, 53, 64
11, 433200, Note_on_c, 9, 40, 100
11, 433200, Note_on_c, 9, 53, 80
11, 433440, Note_off_c, 9, 53, 64
11, 433440, Note_on_c, 9, 53, 100
11, 433447, Note_off_c, 9, 40, 64
11, 433673, Note_on_c, 9, 36, 100
11, 433680, Note_off_c, 9, 53, 64
11, 433680, Note_on_c, 9, 53, 80
11, 433913, Note_off_c, 9, 36, 64
11, 433920, Note_off_c, 9, 53, 64
11, 433920, Note_on_c, 9, 53, 80
11, 434033, Note_on_c, 9, 36, 100
11, 434153, Note_off_c, 9, 36, 64
11, 434153, Note_on_c, 9, 40, 100
11, 434160, Note_off_c, 9, 53, 64
11, 434160, Note_on_c, 9, 53, 100
11, 434393, Note_off_c, 9, 40, 64
11, 434393, Note_on_c, 9, 36, 100
11, 434400, Note_off_c, 9, 53, 64
11, 434400, Note_on_c, 9, 53, 100
11, 434633, Note_off_c, 9, 36, 64
11, 434633, Note_on_c, 9, 40, 100
11, 434640, Note_off_c, 9, 53, 64
11, 434873, Note_off_c, 9, 40, 64
11, 434873, Note_on_c, 9, 40, 100
11, 435113, Note_off_c, 9, 40, 64
11, 435113, Note_on_c, 9, 49, 100
11, 435113, Note_on_c, 9, 36, 100
11, 435346, Note_off_c, 9, 36, 64
11, 435353, Note_off_c, 9, 49, 64
11, 435473, Note_on_c, 9, 36, 100
11, 435593, Note_on_c, 9, 40, 100
11, 435593, Note_on_c, 9, 53, 100
11, 435603, Note_off_c, 9, 36, 64
11, 435833, Note_off_c, 9, 40, 64
11, 435833, Note_off_c, 9, 53, 64
11, 435833, Note_on_c, 9, 53, 80
11, 435833, Note_on_c, 9, 36, 100
11, 436073, Note_off_c, 9, 36, 64
11, 436073, Note_off_c, 9, 53, 64
11, 436073, Note_on_c, 9, 36, 100
11, 436073, Note_on_c, 9, 53, 100
11, 436313, Note_off_c, 9, 53, 64
11, 436313, Note_off_c, 9, 36, 64
11, 436313, Note_on_c, 9, 53, 80
11, 436433, Note_on_c, 9, 36, 100
11, 436553, Note_off_c, 9, 36, 64
11, 436553, Note_off_c, 9, 53, 64
11, 436553, Note_on_c, 9, 40, 100
11, 436553, Note_on_c, 9, 53, 80
11, 436793, Note_off_c, 9, 53, 64
11, 436793, Note_off_c, 9, 40, 64
11, 436800, Note_on_c, 9, 36, 100
11, 436800, Note_on_c, 9, 53, 100
11, 437040, Note_off_c, 9, 53, 64
11, 437040, Note_on_c, 9, 53, 80
11, 437280, Note_off_c, 9, 36, 64
11, 437280, Note_off_c, 9, 53, 64
11, 437280, Note_on_c, 9, 40, 100
11, 437280, Note_on_c, 9, 53, 80
11, 437520, Note_off_c, 9, 53, 64
11, 437520, Note_off_c, 9, 40, 64
11, 437520, Note_on_c, 9, 53, 100
11, 437760, Note_off_c, 9, 53, 64
11, 437760, Note_on_c, 9, 53, 80
11, 437760, Note_on_c, 9, 36, 100
11, 438000, Note_off_c, 9, 36, 64
11, 438000, Note_off_c, 9, 53, 64
11, 438000, Note_on_c, 9, 53, 80
11, 438120, Note_on_c, 9, 36, 100
11, 438240, Note_off_c, 9, 36, 64
11, 438240, Note_off_c, 9, 53, 64
11, 438240, Note_on_c, 9, 40, 100
11, 438240, Note_on_c, 9, 53, 100
11, 438480, Note_off_c, 9, 53, 64
11, 438480, Note_off_c, 9, 40, 64
11, 438480, Note_on_c, 9, 36, 100
11, 438480, Note_on_c, 9, 53, 100
11, 438720, Note_off_c, 9, 53, 64
11, 438720, Note_off_c, 9, 36, 64
11, 438720, Note_on_c, 9, 40, 100
11, 438960, Note_off_c, 9, 40, 64
11, 438960, Note_on_c, 9, 40, 100
11, 439200, Note_off_c, 9, 40, 64
11, 439200, Note_on_c, 9, 49, 100
11, 439200, Note_on_c, 9, 36, 100
11, 439667, Note_on_c, 9, 57, 100
11, 439667, Note_on_c, 9, 40, 100
11, 439680, Note_off_c, 9, 36, 64
11, 439680, Note_off_c, 9, 49, 64
11, 440147, Note_off_c, 9, 57, 64
11, 440147, Note_off_c, 9, 40, 64
11, 440147, Note_on_c, 9, 36, 100
11, 440147, Note_on_c, 9, 53, 100
11, 440627, Note_off_c, 9, 53, 64
11, 440627, Note_off_c, 9, 36, 64
11, 440627, Note_on_c, 9, 40, 100
11, 440627, Note_on_c, 9, 53, 100
11, 440860, Note_off_c, 9, 40, 64
11, 440867, Note_off_c, 9, 53, 64
11, 440867, Note_on_c, 9, 36, 100
11, 440867, Note_on_c, 9, 53, 70
11, 441107, Note_off_c, 9, 53, 64
11, 441107, Note_on_c, 9, 53, 80
11, 441114, Note_off_c, 9, 36, 64
11, 441347, Note_off_c, 9, 53, 64
11, 441347, Note_on_c, 9, 36, 100
11, 441347, Note_on_c, 9, 53, 100
11, 441587, Note_off_c, 9, 53, 64
11, 441587, Note_off_c, 9, 36, 64
11, 441587, Note_on_c, 9, 40, 100
11, 441587, Note_on_c, 9, 53, 80
11, 441827, Note_off_c, 9, 53, 64
11, 441827, Note_on_c, 9, 53, 80
11, 442067, Note_off_c, 9, 40, 64
11, 442067, Note_off_c, 9, 53, 64
11, 442067, Note_on_c, 9, 36, 100
11, 442067, Note_on_c, 9, 53, 100
11, 442307, Note_off_c, 9, 53, 64
11, 442307, Note_on_c, 9, 53, 80
11, 442417, Note_off_c, 9, 36, 64
11, 442427, Note_on_c, 9, 36, 100
11, 442547, Note_off_c, 9, 53, 64
11, 442547, Note_off_c, 9, 36, 64
11, 442547, Note_on_c, 9, 40, 100
11, 442547, Note_on_c, 9, 53, 100
11, 442780, Note_off_c, 9, 53, 64
11, 442787, Note_off_c, 9, 40, 64
11, 442787, Note_on_c, 9, 53, 100
11, 442907, Note_on_c, 9, 40, 100
11, 443027, Note_off_c, 9, 53, 64
11, 443027, Note_on_c, 9, 36, 100
11, 443027, Note_on_c, 9, 49, 100
11, 443037, Note_off_c, 9, 40, 64
11, 443507, Note_off_c, 9, 36, 64
11, 443507, Note_off_c, 9, 49, 64
11, 443507, Note_on_c, 9, 40, 100
11, 443507, Note_on_c, 9, 53, 100
11, 443747, Note_off_c, 9, 53, 64
11, 443747, Note_on_c, 9, 53, 100
11, 443857, Note_off_c, 9, 40, 64
11, 443867, Note_on_c, 9, 40, 100
11, 443987, Note_off_c, 9, 53, 64
11, 443987, Note_on_c, 9, 36, 100
11, 443987, Note_on_c, 9, 53, 100
11, 443997, Note_off_c, 9, 40, 64
11, 444227, Note_off_c, 9, 36, 64
11, 444227, Note_off_c, 9, 53, 64
11, 444227, Note_on_c, 9, 36, 100
11, 444227, Note_on_c, 9, 53, 100
11, 444467, Note_off_c, 9, 53, 64
11, 444467, Note_off_c, 9, 36, 64
11, 444467, Note_on_c, 9, 40, 100
11, 444467, Note_on_c, 9, 53, 100
11, 444707, Note_off_c, 9, 53, 64
11, 444707, Note_off_c, 9, 40, 64
11, 444707, Note_on_c, 9, 36, 100
11, 444707, Note_on_c, 9, 53, 100
11, 444947, Note_off_c, 9, 53, 64
11, 444947, Note_off_c, 9, 36, 64
11, 444947, Note_on_c, 9, 53, 100
11, 445187, Note_off_c, 9, 53, 64
11, 445187, Note_on_c, 9, 36, 100
11, 445187, Note_on_c, 9, 53, 100
11, 445427, Note_off_c, 9, 53, 64
11, 445427, Note_off_c, 9, 36, 64
11, 445427, Note_on_c, 9, 40, 100
11, 445427, Note_on_c, 9, 53, 100
11, 445667, Note_off_c, 9, 53, 64
11, 445667, Note_off_c, 9, 40, 64
11, 445680, Note_on_c, 9, 53, 100
11, 445787, Note_on_c, 9, 36, 100
11, 445847, Note_off_c, 9, 36, 64
11, 445847, Note_on_c, 9, 36, 100
11, 445907, Note_off_c, 9, 36, 64
11, 445907, Note_on_c, 9, 40, 100
11, 445907, Note_on_c, 9, 55, 100
11, 445920, Note_off_c, 9, 53, 64
11, 446140, Note_off_c, 9, 55, 64
11, 446147, Note_off_c, 9, 40, 64
11, 446147, Note_on_c, 9, 36, 100
11, 446147, Note_on_c, 9, 49, 100
11, 446387, Note_off_c, 9, 49, 64
11, 446387, Note_off_c, 9, 36, 64
11, 446387, Note_on_c, 9, 49, 100
11, 446387, Note_on_c, 9, 36, 100
11, 446867, Note_off_c, 9, 36, 64
11, 446867, Note_off_c, 9, 49, 64
11, 446867, Note_on_c, 9, 40, 100
11, 446867, Note_on_c, 9, 53, 100
11, 447107, Note_off_c, 9, 53, 64
11, 447107, Note_on_c, 9, 53, 100
11, 447217, Note_off_c, 9, 40, 64
11, 447227, Note_on_c, 9, 40, 100
11, 447347, Note_off_c, 9, 53, 64
11, 447347, Note_on_c, 9, 36, 100
11, 447347, Note_on_c, 9, 53, 100
11, 447357, Note_off_c, 9, 40, 64
11, 447587, Note_off_c, 9, 36, 64
11, 447587, Note_off_c, 9, 53, 64
11, 447587, Note_on_c, 9, 36, 100
11, 447587, Note_on_c, 9, 53, 100
11, 447827, Note_off_c, 9, 53, 64
11, 447827, Note_off_c, 9, 36, 64
11, 447827, Note_on_c, 9, 40, 100
11, 447827, Note_on_c, 9, 53, 100
11, 448067, Note_off_c, 9, 53, 64
11, 448067, Note_off_c, 9, 40, 64
11, 448067, Note_on_c, 9, 36, 100
11, 448067, Note_on_c, 9, 53, 100
11, 448307, Note_off_c, 9, 53, 64
11, 448307, Note_off_c, 9, 36, 64
11, 448307, Note_on_c, 9, 53, 100
11, 448547, Note_off_c, 9, 53, 64
11, 448547, Note_on_c, 9, 36, 100
11, 448547, Note_on_c, 9, 53, 100
11, 448787, Note_off_c, 9, 53, 64
11, 448787, Note_off_c, 9, 36, 64
11, 448787, Note_on_c, 9, 40, 100
11, 448787, Note_on_c, 9, 53, 100
11, 449027, Note_off_c, 9, 53, 64
11, 449027, Note_off_c, 9, 40, 64
11, 449027, Note_on_c, 9, 53, 100
11, 449147, Note_on_c, 9, 36, 100
11, 449207, Note_off_c, 9, 36, 64
11, 449207, Note_on_c, 9, 36, 100
11, 449267, Note_off_c, 9, 53, 64
11, 449267, Note_off_c, 9, 36, 64
11, 449267, Note_on_c, 9, 40, 100
11, 449267, Note_on_c, 9, 53, 100
11, 449500, Note_off_c, 9, 53, 64
11, 449507, Note_off_c, 9, 40, 64
11, 449507, Note_on_c, 9, 36, 100
11, 449507, Note_on_c, 9, 53, 100
11, 449747, Note_off_c, 9, 53, 64
11, 449747, Note_off_c, 9, 36, 64
11, 449747, Note_on_c, 9, 40, 100
11, 449747, Note_on_c, 9, 53, 100
11, 449987, Note_off_c, 9, 53, 64
11, 449987, Note_off_c, 9, 40, 64
11, 449987, Note_on_c, 9, 36, 100
11, 449987, Note_on_c, 9, 53, 100
11, 450227, Note_off_c, 9, 53, 64
11, 450227, Note_off_c, 9, 36, 64
11, 450227, Note_on_c, 9, 36, 100
11, 450227, Note_on_c, 9, 53, 110
11, 450460, Note_off_c, 9, 53, 64
11, 450467, Note_on_c, 9, 53, 100
11, 450707, Note_off_c, 9, 36, 64
11, 450707, Note_off_c, 9, 53, 64
11, 450707, Note_on_c, 9, 40, 100
11, 450707, Note_on_c, 9, 53, 100
11, 450947, Note_off_c, 9, 53, 64
11, 450947, Note_on_c, 9, 53, 100
11, 451057, Note_off_c, 9, 40, 64
11, 451067, Note_on_c, 9, 40, 100
11, 451187, Note_off_c, 9, 53, 64
11, 451187, Note_on_c, 9, 36, 100
11, 451187, Note_on_c, 9, 53, 100
11, 451197, Note_off_c, 9, 40, 64
11, 451427, Note_off_c, 9, 36, 64
11, 451427, Note_off_c, 9, 53, 64
11, 451427, Note_on_c, 9, 36, 100
11, 451427, Note_on_c, 9, 53, 100
11, 451667, Note_off_c, 9, 53, 64
11, 451667, Note_off_c, 9, 36, 64
11, 451667, Note_on_c, 9, 40, 100
11, 451667, Note_on_c, 9, 53, 100
11, 451907, Note_off_c, 9, 53, 64
11, 451907, Note_off_c, 9, 40, 64
11, 451907, Note_on_c, 9, 36, 100
11, 451907, Note_on_c, 9, 53, 100
11, 452147, Note_off_c, 9, 53, 64
11, 452147, Note_off_c, 9, 36, 64
11, 452147, Note_on_c, 9, 53, 100
11, 452387, Note_off_c, 9, 53, 64
11, 452387, Note_on_c, 9, 36, 100
11, 452387, Note_on_c, 9, 53, 100
11, 452627, Note_off_c, 9, 53, 64
11, 452627, Note_off_c, 9, 36, 64
11, 452627, Note_on_c, 9, 40, 100
11, 452627, Note_on_c, 9, 53, 100
11, 452867, Note_off_c, 9, 53, 64
11, 452867, Note_off_c, 9, 40, 64
11, 452867, Note_on_c, 9, 53, 100
11, 452867, Note_on_c, 9, 36, 100
11, 453107, Note_off_c, 9, 36, 64
11, 453107, Note_off_c, 9, 53, 64
11, 453107, Note_on_c, 9, 40, 100
11, 453107, Note_on_c, 9, 53, 100
11, 453340, Note_off_c, 9, 53, 64
11, 453347, Note_off_c, 9, 40, 64
11, 453347, Note_on_c, 9, 36, 100
11, 453347, Note_on_c, 9, 53, 100
11, 453587, Note_off_c, 9, 53, 64
11, 453587, Note_off_c, 9, 36, 64
11, 453600, Note_on_c, 9, 36, 100
11, 453600, Note_on_c, 9, 40, 100
11, 453600, Note_on_c, 9, 53, 100
11, 453720, Note_off_c, 9, 36, 64
11, 453720, Note_on_c, 9, 36, 100
11, 453840, Note_off_c, 9, 53, 64
11, 453840, Note_off_c, 9, 36, 64
11, 453840, Note_on_c, 9, 36, 100
11, 453840, Note_on_c, 9, 53, 100
11, 453960, Note_off_c, 9, 36, 64
11, 453960, Note_on_c, 9, 36, 100
11, 454080, Note_off_c, 9, 40, 64
11, 454080, Note_off_c, 9, 53, 64
11, 454080, Note_off_c, 9, 36, 64
11, 454080, Note_on_c, 9, 36, 100
11, 454080, Note_on_c, 9, 40, 100
11, 454080, Note_on_c, 9, 53, 100
11, 454200, Note_off_c, 9, 36, 64
11, 454200, Note_on_c, 9, 36, 100
11, 454320, Note_off_c, 9, 53, 64
11, 454320, Note_off_c, 9, 36, 64
11, 454320, Note_on_c, 9, 36, 100
11, 454320, Note_on_c, 9, 53, 100
11, 454440, Note_off_c, 9, 36, 64
11, 454440, Note_on_c, 9, 36, 100
11, 454560, Note_off_c, 9, 40, 64
11, 454560, Note_off_c, 9, 53, 64
11, 454560, Note_off_c, 9, 36, 64
11, 454560, Note_on_c, 9, 36, 100
11, 454560, Note_on_c, 9, 40, 100
11, 454560, Note_on_c, 9, 53, 100
11, 454680, Note_off_c, 9, 36, 64
11, 454680, Note_on_c, 9, 36, 100
11, 454800, Note_off_c, 9, 53, 64
11, 454800, Note_off_c, 9, 36, 64
11, 454800, Note_on_c, 9, 36, 100
11, 454800, Note_on_c, 9, 53, 100
11, 454920, Note_off_c, 9, 36, 64
11, 454920, Note_on_c, 9, 36, 100
11, 455040, Note_off_c, 9, 40, 64
11, 455040, Note_off_c, 9, 53, 64
11, 455040, Note_off_c, 9, 36, 64
11, 455040, Note_on_c, 9, 36, 100
11, 455040, Note_on_c, 9, 53, 100
11, 455160, Note_off_c, 9, 36, 64
11, 455160, Note_on_c, 9, 36, 100
11, 455280, Note_off_c, 9, 53, 64
11, 455280, Note_off_c, 9, 36, 64
11, 455280, Note_on_c, 9, 36, 100
11, 455280, Note_on_c, 9, 53, 100
11, 455280, Note_on_c, 9, 40, 100
11, 455400, Note_off_c, 9, 36, 64
11, 455400, Note_on_c, 9, 36, 100
11, 455520, Note_off_c, 9, 53, 64
11, 455520, Note_off_c, 9, 36, 64
11, 455520, Note_on_c, 9, 36, 100
11, 455520, Note_on_c, 9, 53, 100
11, 455640, Note_off_c, 9, 36, 64
11, 455640, Note_on_c, 9, 36, 100
11, 455760, Note_off_c, 9, 40, 64
11, 455760, Note_off_c, 9, 53, 64
11, 455760, Note_off_c, 9, 36, 64
11, 455760, Note_on_c, 9, 36, 100
11, 455760, Note_on_c, 9, 53, 100
11, 455760, Note_on_c, 9, 40, 100
11, 455880, Note_off_c, 9, 36, 64
11, 455880, Note_on_c, 9, 36, 100
11, 456000, Note_off_c, 9, 53, 64
11, 456000, Note_off_c, 9, 36, 64
11, 456000, Note_on_c, 9, 36, 100
11, 456000, Note_on_c, 9, 53, 100
11, 456120, Note_off_c, 9, 36, 64
11, 456120, Note_on_c, 9, 36, 100
11, 456240, Note_off_c, 9, 40, 64
11, 456240, Note_off_c, 9, 53, 64
11, 456240, Note_off_c, 9, 36, 64
11, 456240, Note_on_c, 9, 36, 100
11, 456240, Note_on_c, 9, 53, 100
11, 456240, Note_on_c, 9, 40, 100
11, 456360, Note_off_c, 9, 36, 64
11, 456360, Note_on_c, 9, 36, 100
11, 456480, Note_off_c, 9, 53, 64
11, 456480, Note_off_c, 9, 36, 64
11, 456480, Note_on_c, 9, 36, 100
11, 456480, Note_on_c, 9, 53, 100
11, 456600, Note_off_c, 9, 36, 64
11, 456600, Note_on_c, 9, 36, 100
11, 456720, Note_off_c, 9, 40, 64
11, 456720, Note_off_c, 9, 53, 64
11, 456720, Note_off_c, 9, 36, 64
11, 456720, Note_on_c, 9, 36, 100
11, 456720, Note_on_c, 9, 53, 100
11, 456840, Note_off_c, 9, 36, 64
11, 456840, Note_on_c, 9, 36, 100
11, 456960, Note_off_c, 9, 53, 64
11, 456960, Note_off_c, 9, 36, 64
11, 456960, Note_on_c, 9, 36, 100
11, 456960, Note_on_c, 9, 53, 100
11, 456960, Note_on_c, 9, 40, 100
11, 457080, Note_off_c, 9, 36, 64
11, 457080, Note_on_c, 9, 36, 100
11, 457200, Note_off_c, 9, 53, 64
11, 457200, Note_off_c, 9, 36, 64
11, 457200, Note_on_c, 9, 36, 100
11, 457200, Note_on_c, 9, 53, 100
11, 457320, Note_off_c, 9, 36, 64
11, 457320, Note_on_c, 9, 36, 100
11, 457440, Note_off_c, 9, 40, 64
11, 457440, Note_off_c, 9, 53, 64
11, 457440, Note_off_c, 9, 36, 64
11, 457440, Note_on_c, 9, 36, 100
11, 457440, Note_on_c, 9, 40, 100
11, 457440, Note_on_c, 9, 53, 100
11, 457560, Note_off_c, 9, 36, 64
11, 457560, Note_on_c, 9, 36, 100
11, 457680, Note_off_c, 9, 53, 64
11, 457680, Note_off_c, 9, 36, 64
11, 457680, Note_on_c, 9, 36, 100
11, 457680, Note_on_c, 9, 53, 100
11, 457800, Note_off_c, 9, 36, 64
11, 457800, Note_on_c, 9, 36, 100
11, 457920, Note_off_c, 9, 40, 64
11, 457920, Note_off_c, 9, 53, 64
11, 457920, Note_off_c, 9, 36, 64
11, 457920, Note_on_c, 9, 36, 100
11, 457920, Note_on_c, 9, 40, 100
11, 457920, Note_on_c, 9, 53, 100
11, 458040, Note_off_c, 9, 36, 64
11, 458040, Note_on_c, 9, 36, 100
11, 458160, Note_off_c, 9, 53, 64
11, 458160, Note_off_c, 9, 36, 64
11, 458160, Note_on_c, 9, 36, 100
11, 458160, Note_on_c, 9, 53, 100
11, 458280, Note_off_c, 9, 36, 64
11, 458280, Note_on_c, 9, 36, 100
11, 458400, Note_off_c, 9, 40, 64
11, 458400, Note_off_c, 9, 53, 64
11, 458400, Note_off_c, 9, 36, 64
11, 458400, Note_on_c, 9, 36, 100
11, 458400, Note_on_c, 9, 53, 100
11, 458520, Note_off_c, 9, 36, 64
11, 458520, Note_on_c, 9, 36, 100
11, 458640, Note_off_c, 9, 53, 64
11, 458640, Note_off_c, 9, 36, 64
11, 458640, Note_on_c, 9, 36, 100
11, 458640, Note_on_c, 9, 40, 100
11, 458640, Note_on_c, 9, 53, 100
11, 458760, Note_off_c, 9, 36, 64
11, 458760, Note_on_c, 9, 36, 100
11, 458880, Note_off_c, 9, 53, 64
11, 458880, Note_off_c, 9, 36, 64
11, 458880, Note_on_c, 9, 36, 100
11, 458880, Note_on_c, 9, 53, 100
11, 459000, Note_off_c, 9, 36, 64
11, 459000, Note_on_c, 9, 36, 100
11, 459120, Note_off_c, 9, 40, 64
11, 459120, Note_off_c, 9, 53, 64
11, 459120, Note_off_c, 9, 36, 64
11, 459120, Note_on_c, 9, 36, 100
11, 459120, Note_on_c, 9, 53, 100
11, 459120, Note_on_c, 9, 40, 100
11, 459240, Note_off_c, 9, 36, 64
11, 459240, Note_on_c, 9, 36, 100
11, 459360, Note_off_c, 9, 53, 64
11, 459360, Note_off_c, 9, 36, 64
11, 459360, Note_on_c, 9, 36, 100
11, 459360, Note_on_c, 9, 53, 100
11, 459480, Note_off_c, 9, 36, 64
11, 459480, Note_on_c, 9, 36, 100
11, 459600, Note_off_c, 9, 40, 64
11, 459600, Note_off_c, 9, 53, 64
11, 459600, Note_off_c, 9, 36, 64
11, 459600, Note_on_c, 9, 40, 100
11, 459600, Note_on_c, 9, 53, 100
11, 459840, Note_off_c, 9, 53, 64
11, 459840, Note_on_c, 9, 49, 100
11, 459840, Note_on_c, 9, 36, 100
11, 459847, Note_off_c, 9, 40, 64
11, 460320, Note_off_c, 9, 49, 64
11, 460320, Note_off_c, 9, 36, 64
11, 460320, Note_on_c, 9, 40, 100
11, 460320, Note_on_c, 9, 57, 100
11, 460560, Note_on_c, 9, 52, 90
11, 460793, Note_off_c, 9, 52, 64
11, 460800, Note_off_c, 9, 57, 64
11, 460800, Note_off_c, 9, 40, 64
11, 460800, Note_on_c, 9, 36, 100
11, 460800, Note_on_c, 9, 57, 100
11, 460800, Note_on_c, 9, 52, 100
11, 461047, Note_off_c, 9, 52, 64
11, 461280, Note_off_c, 9, 57, 64
11, 461280, Note_off_c, 9, 36, 64
11, 461280, Note_on_c, 9, 40, 100
11, 461280, Note_on_c, 9, 57, 100
11, 461520, Note_on_c, 9, 52, 100
11, 461760, Note_off_c, 9, 52, 64
11, 461760, Note_off_c, 9, 57, 64
11, 461760, Note_off_c, 9, 40, 64
11, 461760, Note_on_c, 9, 36, 100
11, 461760, Note_on_c, 9, 57, 100
11, 461760, Note_on_c, 9, 52, 100
11, 462000, Note_off_c, 9, 52, 64
11, 462240, Note_off_c, 9, 57, 64
11, 462240, Note_off_c, 9, 36, 64
11, 462240, Note_on_c, 9, 40, 100
11, 462240, Note_on_c, 9, 57, 100
11, 462480, Note_on_c, 9, 52, 100
11, 462720, Note_off_c, 9, 52, 64
11, 462720, Note_off_c, 9, 57, 64
11, 462720, Note_off_c, 9, 40, 64
11, 462720, Note_on_c, 9, 36, 100
11, 462720, Note_on_c, 9, 57, 100
11, 462720, Note_on_c, 9, 52, 100
11, 462960, Note_off_c, 9, 52, 64
11, 463200, Note_off_c, 9, 57, 64
11, 463200, Note_off_c, 9, 36, 64
11, 463200, Note_on_c, 9, 40, 100
11, 463200, Note_on_c, 9, 57, 100
11, 463440, Note_on_c, 9, 52, 100
11, 463680, Note_off_c, 9, 52, 64
11, 463680, Note_off_c, 9, 57, 64
11, 463680, Note_off_c, 9, 40, 64
11, 463680, Note_on_c, 9, 36, 100
11, 463680, Note_on_c, 9, 57, 100
11, 463680, Note_on_c, 9, 52, 100
11, 463920, Note_off_c, 9, 52, 64
11, 464160, Note_off_c, 9, 57, 64
11, 464160, Note_off_c, 9, 36, 64
11, 464160, Note_on_c, 9, 40, 100
11, 464160, Note_on_c, 9, 57, 100
11, 464400, Note_on_c, 9, 52, 100
11, 464640, Note_off_c, 9, 52, 64
11, 464640, Note_off_c, 9, 57, 64
11, 464640, Note_off_c, 9, 40, 64
11, 464640, Note_on_c, 9, 36, 100
11, 464640, Note_on_c, 9, 57, 100
11, 464640, Note_on_c, 9, 52, 100
11, 464880, Note_off_c, 9, 52, 64
11, 465120, Note_off_c, 9, 57, 64
11, 465120, Note_off_c, 9, 36, 64
11, 465120, Note_on_c, 9, 40, 100
11, 465120, Note_on_c, 9, 57, 100
11, 465360, Note_on_c, 9, 52, 100
11, 465600, Note_off_c, 9, 52, 64
11, 465600, Note_off_c, 9, 57, 64
11, 465600, Note_off_c, 9, 40, 64
11, 465600, Note_on_c, 9, 36, 100
11, 465600, Note_on_c, 9, 49, 100
11, 466080, Note_off_c, 9, 49, 64
11, 466080, Note_off_c, 9, 36, 64
11, 466080, Note_on_c, 9, 44, 60
11, 466560, Note_off_c, 9, 44, 64
11, 466560, Note_on_c, 9, 44, 60
11, 467040, Note_off_c, 9, 44, 64
11, 467040, Note_on_c, 9, 44, 60
11, 467520, Note_off_c, 9, 44, 64
11, 467520, Note_on_c, 9, 44, 60
11, 468000, Note_off_c, 9, 44, 64
11, 468000, Note_on_c, 9, 44, 60
11, 468480, Note_off_c, 9, 44, 64
11, 468480, Note_on_c, 9, 36, 100
11, 468480, Note_on_c, 9, 49, 100
11, 468960, Note_off_c, 9, 49, 64
11, 468960, Note_off_c, 9, 36, 64
11, 473760, Note_on_c, 9, 40, 100
11, 473800, Note_off_c, 9, 40, 64
11, 473800, Note_on_c, 9, 40, 100
11, 473820, Note_off_c, 9, 40, 64
11, 474240, Note_on_c, 9, 49, 100
11, 474240, Note_on_c, 9, 36, 100
11, 474240, Note_on_c, 9, 46, 60
11, 474360, Note_off_c, 9, 46, 80
11, 474360, Note_off_c, 9, 36, 80
11, 474360, Note_off_c, 9, 49, 80
11, 474360, Note_on_c, 9, 46, 60
11, 474480, Note_off_c, 9, 46, 80
11, 474480, Note_on_c, 9, 46, 60
11, 474600, Note_off_c, 9, 46, 80
11, 474600, Note_on_c, 9, 46, 60
11, 474720, Note_off_c, 9, 46, 80
11, 474720, Note_on_c, 9, 46, 60
11, 474840, Note_off_c, 9, 46, 80
11, 474840, Note_on_c, 9, 46, 60
11, 474960, Note_off_c, 9, 46, 80
11, 474960, Note_on_c, 9, 46, 100
11, 475080, Note_off_c, 9, 46, 80
11, 475080, Note_on_c, 9, 46, 60
11, 475200, Note_off_c, 9, 46, 80
11, 475200, Note_on_c, 9, 46, 60
11, 475320, Note_off_c, 9, 46, 80
11, 475320, Note_on_c, 9, 46, 60
11, 475440, Note_off_c, 9, 46, 80
11, 475440, Note_on_c, 9, 46, 60
11, 475560, Note_off_c, 9, 46, 80
11, 475560, Note_on_c, 9, 46, 60
11, 475680, Note_off_c, 9, 46, 80
11, 475680, Note_on_c, 9, 46, 100
11, 475800, Note_off_c, 9, 46, 80
11, 475800, Note_on_c, 9, 46, 60
11, 475920, Note_off_c, 9, 46, 80
11, 475920, Note_on_c, 9, 46, 60
11, 476040, Note_off_c, 9, 46, 80
11, 476040, Note_on_c, 9, 46, 60
11, 476160, Note_off_c, 9, 46, 80
11, 476160, Note_on_c, 9, 49, 100
11, 476160, Note_on_c, 9, 36, 100
11, 476160, Note_on_c, 9, 46, 60
11, 476280, Note_off_c, 9, 46, 80
11, 476280, Note_off_c, 9, 36, 80
11, 476280, Note_off_c, 9, 49, 80
11, 476280, Note_on_c, 9, 46, 60
11, 476400, Note_off_c, 9, 46, 80
11, 476400, Note_on_c, 9, 46, 60
11, 476520, Note_off_c, 9, 46, 80
11, 476520, Note_on_c, 9, 46, 60
11, 476640, Note_off_c, 9, 46, 80
11, 476640, Note_on_c, 9, 46, 60
11, 476760, Note_off_c, 9, 46, 80
11, 476760, Note_on_c, 9, 46, 60
11, 476880, Note_off_c, 9, 46, 80
11, 476880, Note_on_c, 9, 46, 100
11, 477000, Note_off_c, 9, 46, 80
11, 477000, Note_on_c, 9, 46, 60
11, 477120, Note_off_c, 9, 46, 80
11, 477120, Note_on_c, 9, 46, 60
11, 477240, Note_off_c, 9, 46, 80
11, 477240, Note_on_c, 9, 46, 60
11, 477360, Note_off_c, 9, 46, 80
11, 477360, Note_on_c, 9, 46, 60
11, 477480, Note_off_c, 9, 46, 80
11, 477480, Note_on_c, 9, 46, 60
11, 477600, Note_off_c, 9, 46, 80
11, 477600, Note_on_c, 9, 46, 100
11, 477720, Note_off_c, 9, 46, 80
11, 477720, Note_on_c, 9, 46, 60
11, 477840, Note_off_c, 9, 46, 80
11, 477840, Note_on_c, 9, 46, 60
11, 477960, Note_off_c, 9, 46, 80
11, 477960, Note_on_c, 9, 46, 60
11, 478080, Note_off_c, 9, 46, 80
11, 478080, Note_on_c, 9, 46, 60
11, 478080, Note_on_c, 9, 49, 100
11, 478080, Note_on_c, 9, 36, 100
11, 478200, Note_off_c, 9, 36, 80
11, 478200, Note_off_c, 9, 49, 80
11, 478200, Note_off_c, 9, 46, 80
11, 478200, Note_on_c, 9, 46, 60
11, 478320, Note_off_c, 9, 46, 80
11, 478320, Note_on_c, 9, 46, 60
11, 478440, Note_off_c, 9, 46, 80
11, 478440, Note_on_c, 9, 46, 60
11, 478560, Note_off_c, 9, 46, 80
11, 478560, Note_on_c, 9, 46, 60
11, 478680, Note_off_c, 9, 46, 80
11, 478680, Note_on_c, 9, 46, 60
11, 478800, Note_off_c, 9, 46, 80
11, 478800, Note_on_c, 9, 46, 100
11, 478920, Note_off_c, 9, 46, 80
11, 478920, Note_on_c, 9, 46, 60
11, 479040, Note_off_c, 9, 46, 80
11, 479040, Note_on_c, 9, 46, 60
11, 479160, Note_off_c, 9, 46, 80
11, 479160, Note_on_c, 9, 46, 60
11, 479280, Note_off_c, 9, 46, 80
11, 479280, Note_on_c, 9, 46, 60
11, 479400, Note_off_c, 9, 46, 80
11, 479400, Note_on_c, 9, 46, 60
11, 479520, Note_off_c, 9, 46, 80
11, 479520, Note_on_c, 9, 46, 100
11, 479640, Note_off_c, 9, 46, 80
11, 479640, Note_on_c, 9, 46, 60
11, 479760, Note_off_c, 9, 46, 80
11, 479760, Note_on_c, 9, 46, 60
11, 479880, Note_off_c, 9, 46, 80
11, 479880, Note_on_c, 9, 46, 60
11, 480000, Note_off_c, 9, 46, 80
11, 480000, Note_on_c, 9, 46, 100
11, 480120, Note_off_c, 9, 46, 80
11, 480120, Note_on_c, 9, 46, 60
11, 480240, Note_off_c, 9, 46, 80
11, 480240, Note_on_c, 9, 46, 60
11, 480360, Note_off_c, 9, 46, 80
11, 480360, Note_on_c, 9, 46, 60
11, 480480, Note_off_c, 9, 46, 80
11, 480480, Note_on_c, 9, 46, 100
11, 480600, Note_off_c, 9, 46, 80
11, 480600, Note_on_c, 9, 46, 60
11, 480720, Note_off_c, 9, 46, 80
11, 480720, Note_on_c, 9, 46, 100
11, 480840, Note_off_c, 9, 46, 80
11, 480960, Note_on_c, 9, 40, 100
11, 481080, Note_off_c, 9, 40, 64
11, 481080, Note_on_c, 9, 40, 100
11, 481200, Note_off_c, 9, 40, 64
11, 481200, Note_on_c, 9, 50, 100
11, 481320, Note_off_c, 9, 50, 64
11, 481320, Note_on_c, 9, 50, 100
11, 481440, Note_off_c, 9, 50, 64
11, 481440, Note_on_c, 9, 48, 100
11, 481560, Note_off_c, 9, 48, 64
11, 481560, Note_on_c, 9, 48, 100
11, 481680, Note_off_c, 9, 48, 64
11, 481680, Note_on_c, 9, 47, 100
11, 481800, Note_off_c, 9, 47, 64
11, 481800, Note_on_c, 9, 47, 100
11, 481920, Note_off_c, 9, 47, 64
11, 481920, Note_on_c, 9, 49, 100
11, 481920, Note_on_c, 9, 36, 100
11, 482160, Note_off_c, 9, 36, 64
11, 482160, Note_off_c, 9, 49, 64
11, 482160, Note_on_c, 9, 40, 60
11, 482280, Note_off_c, 9, 40, 64
11, 482280, Note_on_c, 9, 40, 60
11, 482400, Note_off_c, 9, 40, 64
11, 482400, Note_on_c, 9, 40, 60
11, 482520, Note_off_c, 9, 40, 64
11, 482520, Note_on_c, 9, 40, 60
11, 482640, Note_off_c, 9, 40, 64
11, 482640, Note_on_c, 9, 40, 100
11, 482760, Note_off_c, 9, 40, 64
11, 482880, Note_on_c, 9, 40, 60
11, 483000, Note_off_c, 9, 40, 64
11, 483000, Note_on_c, 9, 40, 100
11, 483120, Note_off_c, 9, 40, 64
11, 483120, Note_on_c, 9, 50, 100
11, 483240, Note_off_c, 9, 50, 64
11, 483240, Note_on_c, 9, 40, 60
11, 483360, Note_off_c, 9, 40, 64
11, 483360, Note_on_c, 9, 48, 100
11, 483480, Note_off_c, 9, 48, 64
11, 483480, Note_on_c, 9, 40, 60
11, 483600, Note_off_c, 9, 40, 64
11, 483600, Note_on_c, 9, 40, 60
11, 483720, Note_off_c, 9, 40, 64
11, 483720, Note_on_c, 9, 40, 100
11, 483840, Note_off_c, 9, 40, 64
11, 483840, Note_on_c, 9, 40, 100
11, 483960, Note_off_c, 9, 40, 64
11, 484080, Note_on_c, 9, 50, 100
11, 484320, Note_off_c, 9, 50, 64
11, 484320, Note_on_c, 9, 40, 60
11, 484440, Note_off_c, 9, 40, 64
11, 484440, Note_on_c, 9, 40, 100
11, 484560, Note_off_c, 9, 40, 64
11, 484560, Note_on_c, 9, 40, 100
11, 484680, Note_off_c, 9, 40, 64
11, 484800, Note_on_c, 9, 50, 100
11, 484920, Note_off_c, 9, 50, 64
11, 484920, Note_on_c, 9, 40, 60
11, 485040, Note_off_c, 9, 40, 64
11, 485040, Note_on_c, 9, 40, 60
11, 485160, Note_off_c, 9, 40, 64
11, 485160, Note_on_c, 9, 40, 100
11, 485280, Note_off_c, 9, 40, 64
11, 485280, Note_on_c, 9, 40, 100
11, 485400, Note_off_c, 9, 40, 64
11, 485400, Note_on_c, 9, 50, 60
11, 485520, Note_off_c, 9, 50, 64
11, 485520, Note_on_c, 9, 50, 80
11, 485640, Note_off_c, 9, 50, 64
11, 485640, Note_on_c, 9, 50, 100
11, 485760, Note_off_c, 9, 50, 64
11, 485760, Note_on_c, 9, 36, 100
11, 485760, Note_on_c, 9, 49, 100
11, 486000, Note_off_c, 9, 49, 64
11, 486000, Note_off_c, 9, 36, 64
11, 486000, Note_on_c, 9, 40, 60
11, 486120, Note_off_c, 9, 40, 64
11, 486120, Note_on_c, 9, 40, 60
11, 486240, Note_off_c, 9, 40, 64
11, 486240, Note_on_c, 9, 40, 60
11, 486360, Note_off_c, 9, 40, 64
11, 486360, Note_on_c, 9, 40, 60
11, 486480, Note_off_c, 9, 40, 64
11, 486480, Note_on_c, 9, 40, 100
11, 486600, Note_off_c, 9, 40, 64
11, 486720, Note_on_c, 9, 40, 60
11, 486840, Note_off_c, 9, 40, 64
11, 486840, Note_on_c, 9, 40, 60
11, 486960, Note_off_c, 9, 40, 64
11, 486960, Note_on_c, 9, 40, 60
11, 487080, Note_off_c, 9, 40, 64
11, 487080, Note_on_c, 9, 40, 60
11, 487200, Note_off_c, 9, 40, 64
11, 487200, Note_on_c, 9, 40, 100
11, 487320, Note_off_c, 9, 40, 64
11, 487440, Note_on_c, 9, 40, 60
11, 487560, Note_off_c, 9, 40, 64
11, 487560, Note_on_c, 9, 40, 60
11, 487680, Note_off_c, 9, 40, 64
11, 487680, Note_on_c, 9, 40, 100
11, 487800, Note_off_c, 9, 40, 64
11, 487800, Note_on_c, 9, 40, 100
11, 487920, Note_off_c, 9, 40, 64
11, 487920, Note_on_c, 9, 36, 100
11, 488040, Note_off_c, 9, 36, 64
11, 488040, Note_on_c, 9, 36, 100
11, 488160, Note_off_c, 9, 36, 64
11, 488160, Note_on_c, 9, 48, 100
11, 488280, Note_off_c, 9, 48, 64
11, 488280, Note_on_c, 9, 48, 100
11, 488400, Note_off_c, 9, 48, 64
11, 488400, Note_on_c, 9, 36, 100
11, 488520, Note_off_c, 9, 36, 64
11, 488520, Note_on_c, 9, 36, 100
11, 488640, Note_off_c, 9, 36, 64
11, 488640, Note_on_c, 9, 47, 100
11, 488760, Note_off_c, 9, 47, 64
11, 488760, Note_on_c, 9, 47, 100
11, 488880, Note_off_c, 9, 47, 64
11, 488880, Note_on_c, 9, 36, 100
11, 489000, Note_off_c, 9, 36, 64
11, 489000, Note_on_c, 9, 36, 100
11, 489120, Note_off_c, 9, 36, 64
11, 489120, Note_on_c, 9, 45, 100
11, 489240, Note_off_c, 9, 45, 64
11, 489240, Note_on_c, 9, 43, 100
11, 489360, Note_off_c, 9, 43, 64
11, 489600, Note_on_c, 9, 49, 100
11, 489600, Note_on_c, 9, 40, 100
11, 489600, Note_on_c, 9, 36, 100
11, 489720, Note_off_c, 9, 36, 64
11, 489720, Note_on_c, 9, 36, 100
11, 489833, Note_off_c, 9, 49, 64
11, 489840, Note_off_c, 9, 36, 64
11, 489840, Note_on_c, 9, 36, 100
11, 489840, Note_on_c, 9, 53, 100
11, 489960, Note_off_c, 9, 36, 64
11, 489960, Note_on_c, 9, 36, 100
11, 490080, Note_off_c, 9, 40, 64
11, 490080, Note_off_c, 9, 53, 64
11, 490080, Note_off_c, 9, 36, 64
11, 490080, Note_on_c, 9, 36, 100
11, 490080, Note_on_c, 9, 53, 100
11, 490200, Note_off_c, 9, 36, 64
11, 490200, Note_on_c, 9, 36, 100
11, 490320, Note_off_c, 9, 53, 64
11, 490320, Note_off_c, 9, 36, 64
11, 490320, Note_on_c, 9, 36, 100
11, 490320, Note_on_c, 9, 40, 100
11, 490440, Note_off_c, 9, 36, 64
11, 490440, Note_on_c, 9, 36, 100
11, 490560, Note_off_c, 9, 36, 64
11, 490560, Note_on_c, 9, 36, 100
11, 490560, Note_on_c, 9, 53, 100
11, 490680, Note_off_c, 9, 36, 64
11, 490680, Note_on_c, 9, 36, 100
11, 490800, Note_off_c, 9, 40, 64
11, 490800, Note_off_c, 9, 53, 64
11, 490800, Note_off_c, 9, 36, 64
11, 490800, Note_on_c, 9, 36, 100
11, 490800, Note_on_c, 9, 53, 100
11, 490920, Note_off_c, 9, 36, 64
11, 490920, Note_on_c, 9, 36, 100
11, 491040, Note_off_c, 9, 53, 64
11, 491040, Note_off_c, 9, 36, 64
11, 491040, Note_on_c, 9, 36, 100
11, 491040, Note_on_c, 9, 40, 100
11, 491040, Note_on_c, 9, 53, 100
11, 491160, Note_off_c, 9, 40, 64
11, 491160, Note_off_c, 9, 36, 64
11, 491160, Note_on_c, 9, 36, 100
11, 491280, Note_off_c, 9, 53, 64
11, 491280, Note_off_c, 9, 36, 64
11, 491280, Note_on_c, 9, 36, 100
11, 491280, Note_on_c, 9, 53, 100
11, 491400, Note_off_c, 9, 36, 64
11, 491400, Note_on_c, 9, 36, 100
11, 491520, Note_off_c, 9, 53, 64
11, 491520, Note_off_c, 9, 36, 64
11, 491520, Note_on_c, 9, 36, 100
11, 491520, Note_on_c, 9, 40, 100
11, 491520, Note_on_c, 9, 49, 100
11, 491640, Note_off_c, 9, 36, 64
11, 491640, Note_on_c, 9, 36, 100
11, 491753, Note_off_c, 9, 49, 64
11, 491760, Note_off_c, 9, 36, 64
11, 491760, Note_on_c, 9, 36, 100
11, 491760, Note_on_c, 9, 53, 100
11, 491880, Note_off_c, 9, 36, 64
11, 491880, Note_on_c, 9, 36, 100
11, 492000, Note_off_c, 9, 40, 64
11, 492000, Note_off_c, 9, 53, 64
11, 492000, Note_off_c, 9, 36, 64
11, 492000, Note_on_c, 9, 36, 100
11, 492000, Note_on_c, 9, 53, 100
11, 492120, Note_off_c, 9, 36, 64
11, 492120, Note_on_c, 9, 36, 100
11, 492240, Note_off_c, 9, 53, 64
11, 492240, Note_off_c, 9, 36, 64
11, 492240, Note_on_c, 9, 36, 100
11, 492240, Note_on_c, 9, 40, 100
11, 492360, Note_off_c, 9, 36, 64
11, 492360, Note_on_c, 9, 36, 100
11, 492480, Note_off_c, 9, 36, 64
11, 492480, Note_on_c, 9, 36, 100
11, 492480, Note_on_c, 9, 53, 100
11, 492600, Note_off_c, 9, 36, 64
11, 492600, Note_on_c, 9, 36, 100
11, 492720, Note_off_c, 9, 40, 64
11, 492720, Note_off_c, 9, 53, 64
11, 492720, Note_off_c, 9, 36, 64
11, 492720, Note_on_c, 9, 36, 100
11, 492720, Note_on_c, 9, 53, 100
11, 492840, Note_off_c, 9, 36, 64
11, 492840, Note_on_c, 9, 36, 100
11, 492960, Note_off_c, 9, 53, 64
11, 492960, Note_off_c, 9, 36, 64
11, 492960, Note_on_c, 9, 36, 100
11, 492960, Note_on_c, 9, 40, 100
11, 492960, Note_on_c, 9, 53, 100
11, 493080, Note_off_c, 9, 40, 64
11, 493080, Note_off_c, 9, 36, 64
11, 493080, Note_on_c, 9, 36, 100
11, 493200, Note_off_c, 9, 53, 64
11, 493200, Note_off_c, 9, 36, 64
11, 493200, Note_on_c, 9, 36, 100
11, 493200, Note_on_c, 9, 53, 100
11, 493320, Note_off_c, 9, 36, 64
11, 493320, Note_on_c, 9, 36, 100
11, 493440, Note_off_c, 9, 53, 64
11, 493440, Note_off_c, 9, 36, 64
11, 493440, Note_on_c, 9, 36, 100
11, 493440, Note_on_c, 9, 40, 100
11, 493440, Note_on_c, 9, 49, 100
11, 493560, Note_off_c, 9, 36, 64
11, 493560, Note_on_c, 9, 36, 100
11, 493673, Note_off_c, 9, 49, 64
11, 493680, Note_off_c, 9, 36, 64
11, 493680, Note_on_c, 9, 36, 100
11, 493680, Note_on_c, 9, 53, 100
11, 493800, Note_off_c, 9, 36, 64
11, 493800, Note_on_c, 9, 36, 100
11, 493920, Note_off_c, 9, 40, 64
11, 493920, Note_off_c, 9, 53, 64
11, 493920, Note_off_c, 9, 36, 64
11, 493920, Note_on_c, 9, 36, 100
11, 493920, Note_on_c, 9, 53, 100
11, 494040, Note_off_c, 9, 36, 64
11, 494040, Note_on_c, 9, 36, 100
11, 494160, Note_off_c, 9, 53, 64
11, 494160, Note_off_c, 9, 36, 64
11, 494160, Note_on_c, 9, 36, 100
11, 494160, Note_on_c, 9, 40, 100
11, 494280, Note_off_c, 9, 36, 64
11, 494280, Note_on_c, 9, 36, 100
11, 494400, Note_off_c, 9, 36, 64
11, 494400, Note_on_c, 9, 36, 100
11, 494400, Note_on_c, 9, 53, 100
11, 494520, Note_off_c, 9, 36, 64
11, 494520, Note_on_c, 9, 36, 100
11, 494640, Note_off_c, 9, 40, 64
11, 494640, Note_off_c, 9, 53, 64
11, 494640, Note_off_c, 9, 36, 64
11, 494640, Note_on_c, 9, 36, 100
11, 494640, Note_on_c, 9, 53, 100
11, 494760, Note_off_c, 9, 36, 64
11, 494760, Note_on_c, 9, 36, 100
11, 494880, Note_off_c, 9, 53, 64
11, 494880, Note_off_c, 9, 36, 64
11, 494880, Note_on_c, 9, 36, 100
11, 494880, Note_on_c, 9, 40, 100
11, 495000, Note_off_c, 9, 40, 64
11, 495000, Note_off_c, 9, 36, 64
11, 495000, Note_on_c, 9, 36, 100
11, 495120, Note_off_c, 9, 36, 64
11, 495120, Note_on_c, 9, 36, 100
11, 495240, Note_off_c, 9, 36, 64
11, 495240, Note_on_c, 9, 36, 100
11, 495360, Note_off_c, 9, 36, 64
11, 495360, Note_on_c, 9, 36, 100
11, 495360, Note_on_c, 9, 57, 100
11, 495360, Note_on_c, 9, 40, 100
11, 495480, Note_off_c, 9, 40, 64
11, 495480, Note_off_c, 9, 36, 64
11, 495480, Note_on_c, 9, 36, 100
11, 495480, Note_on_c, 9, 40, 100
11, 495600, Note_off_c, 9, 40, 64
11, 495600, Note_off_c, 9, 36, 64
11, 495600, Note_on_c, 9, 36, 100
11, 495720, Note_off_c, 9, 36, 64
11, 495720, Note_on_c, 9, 36, 100
11, 495840, Note_off_c, 9, 57, 64
11, 495840, Note_off_c, 9, 36, 64
11, 495840, Note_on_c, 9, 36, 100
11, 495840, Note_on_c, 9, 50, 100
11, 495960, Note_off_c, 9, 50, 64
11, 495960, Note_off_c, 9, 36, 64
11, 495960, Note_on_c, 9, 36, 100
11, 495960, Note_on_c, 9, 50, 100
11, 496080, Note_off_c, 9, 50, 64
11, 496080, Note_off_c, 9, 36, 64
11, 496080, Note_on_c, 9, 36, 100
11, 496200, Note_off_c, 9, 36, 64
11, 496200, Note_on_c, 9, 36, 100
11, 496320, Note_off_c, 9, 36, 64
11, 496320, Note_on_c, 9, 36, 100
11, 496320, Note_on_c, 9, 48, 100
11, 496440, Note_off_c, 9, 48, 64
11, 496440, Note_off_c, 9, 36, 64
11, 496440, Note_on_c, 9, 36, 100
11, 496440, Note_on_c, 9, 48, 100
11, 496560, Note_off_c, 9, 48, 64
11, 496560, Note_off_c, 9, 36, 64
11, 496560, Note_on_c, 9, 36, 100
11, 496680, Note_off_c, 9, 36, 64
11, 496680, Note_on_c, 9, 36, 100
11, 496800, Note_off_c, 9, 36, 64
11, 496800, Note_on_c, 9, 36, 100
11, 496800, Note_on_c, 9, 45, 100
11, 496920, Note_off_c, 9, 45, 64
11, 496920, Note_off_c, 9, 36, 64
11, 496920, Note_on_c, 9, 36, 100
11, 496920, Note_on_c, 9, 45, 100
11, 497040, Note_off_c, 9, 45, 64
11, 497040, Note_off_c, 9, 36, 64
11, 497040, Note_on_c, 9, 36, 100
11, 497160, Note_off_c, 9, 36, 64
11, 497160, Note_on_c, 9, 36, 100
11, 497280, Note_off_c, 9, 36, 64
11, 497280, Note_on_c, 9, 36, 100
11, 497280, Note_on_c, 9, 49, 100
11, 497280, Note_on_c, 9, 40, 100
11, 497400, Note_off_c, 9, 36, 64
11, 497400, Note_on_c, 9, 36, 100
11, 497520, Note_off_c, 9, 36, 64
11, 497520, Note_on_c, 9, 36, 100
11, 497640, Note_off_c, 9, 36, 64
11, 497640, Note_on_c, 9, 36, 100
11, 497760, Note_off_c, 9, 49, 64
11, 497760, Note_off_c, 9, 40, 64
11, 497760, Note_off_c, 9, 36, 64
11, 497760, Note_on_c, 9, 36, 100
11, 497760, Note_on_c, 9, 40, 100
11, 497760, Note_on_c, 9, 53, 100
11, 497880, Note_off_c, 9, 36, 64
11, 497880, Note_on_c, 9, 36, 100
11, 498000, Note_off_c, 9, 36, 64
11, 498000, Note_on_c, 9, 36, 100
11, 498120, Note_off_c, 9, 36, 64
11, 498120, Note_on_c, 9, 36, 100
11, 498240, Note_off_c, 9, 40, 64
11, 498240, Note_off_c, 9, 53, 64
11, 498240, Note_off_c, 9, 36, 64
11, 498240, Note_on_c, 9, 36, 100
11, 498240, Note_on_c, 9, 40, 100
11, 498240, Note_on_c, 9, 53, 100
11, 498360, Note_off_c, 9, 36, 64
11, 498360, Note_on_c, 9, 36, 100
11, 498480, Note_off_c, 9, 36, 64
11, 498480, Note_on_c, 9, 36, 100
11, 498600, Note_off_c, 9, 36, 64
11, 498600, Note_on_c, 9, 36, 100
11, 498720, Note_off_c, 9, 40, 64
11, 498720, Note_off_c, 9, 53, 64
11, 498720, Note_off_c, 9, 36, 64
11, 498720, Note_on_c, 9, 36, 100
11, 498720, Note_on_c, 9, 40, 100
11, 498720, Note_on_c, 9, 53, 100
11, 498840, Note_off_c, 9, 36, 64
11, 498840, Note_on_c, 9, 36, 100
11, 498960, Note_off_c, 9, 36, 64
11, 498960, Note_on_c, 9, 36, 100
11, 499080, Note_off_c, 9, 36, 64
11, 499080, Note_on_c, 9, 36, 100
11, 499200, Note_off_c, 9, 40, 64
11, 499200, Note_off_c, 9, 53, 64
11, 499200, Note_off_c, 9, 36, 64
11, 499200, Note_on_c, 9, 36, 100
11, 499200, Note_on_c, 9, 40, 100
11, 499200, Note_on_c, 9, 57, 100
11, 499320, Note_off_c, 9, 36, 64
11, 499320, Note_on_c, 9, 36, 100
11, 499440, Note_off_c, 9, 36, 64
11, 499440, Note_on_c, 9, 36, 100
11, 499560, Note_off_c, 9, 36, 64
11, 499560, Note_on_c, 9, 36, 100
11, 499680, Note_off_c, 9, 40, 64
11, 499680, Note_off_c, 9, 57, 64
11, 499680, Note_off_c, 9, 36, 64
11, 499680, Note_on_c, 9, 36, 100
11, 499680, Note_on_c, 9, 40, 100
11, 499680, Note_on_c, 9, 53, 100
11, 499800, Note_off_c, 9, 36, 64
11, 499800, Note_on_c, 9, 36, 100
11, 499920, Note_off_c, 9, 36, 64
11, 499920, Note_on_c, 9, 36, 100
11, 500040, Note_off_c, 9, 36, 64
11, 500040, Note_on_c, 9, 36, 100
11, 500160, Note_off_c, 9, 40, 64
11, 500160, Note_off_c, 9, 53, 64
11, 500160, Note_off_c, 9, 36, 64
11, 500160, Note_on_c, 9, 36, 100
11, 500160, Note_on_c, 9, 40, 100
11, 500160, Note_on_c, 9, 53, 100
11, 500280, Note_off_c, 9, 36, 64
11, 500280, Note_on_c, 9, 36, 100
11, 500400, Note_off_c, 9, 36, 64
11, 500400, Note_on_c, 9, 36, 100
11, 500520, Note_off_c, 9, 36, 64
11, 500520, Note_on_c, 9, 36, 100
11, 500640, Note_off_c, 9, 40, 64
11, 500640, Note_off_c, 9, 53, 64
11, 500640, Note_off_c, 9, 36, 64
11, 500640, Note_on_c, 9, 36, 100
11, 500640, Note_on_c, 9, 40, 100
11, 500640, Note_on_c, 9, 53, 100
11, 500760, Note_off_c, 9, 36, 64
11, 500760, Note_on_c, 9, 36, 100
11, 500880, Note_off_c, 9, 36, 64
11, 500880, Note_on_c, 9, 36, 100
11, 501000, Note_off_c, 9, 36, 64
11, 501000, Note_on_c, 9, 36, 100
11, 501120, Note_off_c, 9, 40, 64
11, 501120, Note_off_c, 9, 53, 64
11, 501120, Note_off_c, 9, 36, 64
11, 501120, Note_on_c, 9, 36, 100
11, 501120, Note_on_c, 9, 40, 100
11, 501120, Note_on_c, 9, 49, 100
11, 501240, Note_off_c, 9, 36, 64
11, 501240, Note_on_c, 9, 36, 100
11, 501360, Note_off_c, 9, 36, 64
11, 501360, Note_on_c, 9, 36, 100
11, 501480, Note_off_c, 9, 36, 64
11, 501480, Note_on_c, 9, 36, 100
11, 501600, Note_off_c, 9, 40, 64
11, 501600, Note_off_c, 9, 49, 64
11, 501600, Note_off_c, 9, 36, 64
11, 501600, Note_on_c, 9, 36, 100
11, 501600, Note_on_c, 9, 40, 100
11, 501600, Note_on_c, 9, 53, 100
11, 501720, Note_off_c, 9, 36, 64
11, 501720, Note_on_c, 9, 36, 100
11, 501840, Note_off_c, 9, 36, 64
11, 501840, Note_on_c, 9, 36, 100
11, 501960, Note_off_c, 9, 36, 64
11, 501960, Note_on_c, 9, 36, 100
11, 502080, Note_off_c, 9, 40, 64
11, 502080, Note_off_c, 9, 53, 64
11, 502080, Note_off_c, 9, 36, 64
11, 502080, Note_on_c, 9, 36, 100
11, 502080, Note_on_c, 9, 40, 100
11, 502080, Note_on_c, 9, 53, 100
11, 502200, Note_off_c, 9, 36, 64
11, 502200, Note_on_c, 9, 36, 100
11, 502320, Note_off_c, 9, 36, 64
11, 502320, Note_on_c, 9, 36, 100
11, 502440, Note_off_c, 9, 36, 64
11, 502440, Note_on_c, 9, 36, 100
11, 502560, Note_off_c, 9, 40, 64
11, 502560, Note_off_c, 9, 53, 64
11, 502560, Note_off_c, 9, 36, 64
11, 502560, Note_on_c, 9, 36, 100
11, 502560, Note_on_c, 9, 40, 100
11, 502560, Note_on_c, 9, 53, 100
11, 502680, Note_off_c, 9, 36, 64
11, 502680, Note_on_c, 9, 36, 100
11, 502800, Note_off_c, 9, 36, 64
11, 502800, Note_on_c, 9, 36, 100
11, 502920, Note_off_c, 9, 36, 64
11, 502920, Note_on_c, 9, 36, 100
11, 503040, Note_off_c, 9, 40, 64
11, 503040, Note_off_c, 9, 53, 64
11, 503040, Note_off_c, 9, 36, 64
11, 503040, Note_on_c, 9, 36, 100
11, 503040, Note_on_c, 9, 40, 100
11, 503040, Note_on_c, 9, 49, 100
11, 503160, Note_off_c, 9, 36, 64
11, 503160, Note_on_c, 9, 36, 100
11, 503280, Note_off_c, 9, 36, 64
11, 503280, Note_on_c, 9, 36, 100
11, 503400, Note_off_c, 9, 36, 64
11, 503400, Note_on_c, 9, 36, 100
11, 503520, Note_off_c, 9, 40, 64
11, 503520, Note_off_c, 9, 49, 64
11, 503520, Note_off_c, 9, 36, 64
11, 503520, Note_on_c, 9, 36, 100
11, 503520, Note_on_c, 9, 40, 100
11, 503520, Note_on_c, 9, 57, 100
11, 503640, Note_off_c, 9, 36, 64
11, 503640, Note_on_c, 9, 36, 100
11, 503760, Note_off_c, 9, 36, 64
11, 503760, Note_on_c, 9, 36, 100
11, 503880, Note_off_c, 9, 36, 64
11, 503880, Note_on_c, 9, 36, 100
11, 504000, Note_off_c, 9, 40, 64
11, 504000, Note_off_c, 9, 57, 64
11, 504000, Note_off_c, 9, 36, 64
11, 504000, Note_on_c, 9, 36, 100
11, 504000, Note_on_c, 9, 40, 100
11, 504000, Note_on_c, 9, 49, 100
11, 504120, Note_off_c, 9, 36, 64
11, 504120, Note_on_c, 9, 36, 100
11, 504240, Note_off_c, 9, 36, 64
11, 504240, Note_on_c, 9, 36, 100
11, 504360, Note_off_c, 9, 36, 64
11, 504360, Note_on_c, 9, 36, 100
11, 504480, Note_off_c, 9, 40, 64
11, 504480, Note_off_c, 9, 49, 64
11, 504480, Note_off_c, 9, 36, 64
11, 504480, Note_on_c, 9, 36, 100
11, 504480, Note_on_c, 9, 40, 100
11, 504480, Note_on_c, 9, 57, 100
11, 504600, Note_off_c, 9, 36, 64
11, 504600, Note_on_c, 9, 36, 100
11, 504720, Note_off_c, 9, 36, 64
11, 504720, Note_on_c, 9, 36, 100
11, 504840, Note_off_c, 9, 36, 64
11, 504840, Note_on_c, 9, 36, 100
11, 504960, Note_off_c, 9, 40, 64
11, 504960, Note_off_c, 9, 57, 64
11, 504960, Note_off_c, 9, 36, 64
11, 504960, Note_on_c, 9, 36, 100
11, 504960, Note_on_c, 9, 49, 100
11, 505440, Note_off_c, 9, 49, 64
11, 505440, Note_off_c, 9, 36, 64
11, 505440, Note_on_c, 9, 42, 100
11, 505680, Note_off_c, 9, 42, 64
11, 505740, Note_on_c, 9, 42, 100
11, 505870, Note_off_c, 9, 42, 64
11, 505920, Note_on_c, 9, 45, 100
11, 506160, Note_off_c, 9, 45, 64
11, 506400, Note_on_c, 9, 46, 100
11, 506633, Note_off_c, 9, 46, 64
11, 506700, Note_on_c, 9, 46, 50
11, 506820, Note_off_c, 9, 46, 64
11, 506880, Note_on_c, 9, 36, 100
11, 506880, Note_on_c, 9, 42, 100
11, 507120, Note_off_c, 9, 42, 64
11, 507120, Note_off_c, 9, 36, 64
11, 507180, Note_on_c, 9, 42, 100
11, 507270, Note_off_c, 9, 42, 64
11, 507270, Note_on_c, 9, 42, 100
11, 507360, Note_off_c, 9, 42, 64
11, 507360, Note_on_c, 9, 42, 100
11, 507528, Note_off_c, 9, 42, 64
11, 507660, Note_on_c, 9, 42, 100
11, 507790, Note_off_c, 9, 42, 64
11, 507840, Note_on_c, 9, 45, 100
11, 508080, Note_off_c, 9, 45, 64
11, 508320, Note_on_c, 9, 42, 100
11, 508560, Note_off_c, 9, 42, 64
11, 508620, Note_on_c, 9, 46, 100
11, 508750, Note_off_c, 9, 46, 64
11, 508800, Note_on_c, 9, 36, 100
11, 508800, Note_on_c, 9, 42, 100
11, 509280, Note_off_c, 9, 42, 64
11, 509280, Note_off_c, 9, 36, 64
11, 509280, Note_on_c, 9, 42, 100
11, 509520, Note_off_c, 9, 42, 64
11, 509580, Note_on_c, 9, 42, 100
11, 509710, Note_off_c, 9, 42, 64
11, 509760, Note_on_c, 9, 45, 100
11, 510000, Note_off_c, 9, 45, 64
11, 510240, Note_on_c, 9, 42, 100
11, 510538, Note_off_c, 9, 42, 64
11, 510540, Note_on_c, 9, 46, 100
11, 510660, Note_off_c, 9, 46, 64
11, 510720, Note_on_c, 9, 42, 100
11, 510720, Note_on_c, 9, 36, 100
11, 511200, Note_off_c, 9, 36, 64
11, 511200, Note_off_c, 9, 42, 64
11, 511200, Note_on_c, 9, 42, 100
11, 511440, Note_off_c, 9, 42, 64
11, 511500, Note_on_c, 9, 46, 100
11, 511630, Note_off_c, 9, 46, 64
11, 511680, Note_on_c, 9, 42, 30
11, 511680, Note_on_c, 9, 65, 100
11, 511840, Note_off_c, 9, 65, 64
11, 511840, Note_on_c, 9, 65, 100
11, 511920, Note_off_c, 9, 42, 64
11, 512000, Note_off_c, 9, 65, 64
11, 512000, Note_on_c, 9, 65, 100
11, 512160, Note_off_c, 9, 65, 64
11, 512160, Note_on_c, 9, 65, 100
11, 512320, Note_off_c, 9, 65, 64
11, 512480, Note_on_c, 9, 40, 100
11, 512480, Note_on_c, 9, 46, 100
11, 512640, Note_off_c, 9, 46, 64
11, 512640, Note_off_c, 9, 40, 64
11, 513120, Note_on_c, 9, 42, 100
11, 513360, Note_off_c, 9, 42, 64
11, 513420, Note_on_c, 9, 42, 100
11, 513550, Note_off_c, 9, 42, 64
11, 513600, Note_on_c, 9, 36, 100
11, 513840, Note_off_c, 9, 36, 64
11, 514080, Note_on_c, 9, 42, 100
11, 514320, Note_off_c, 9, 42, 64
11, 514380, Note_on_c, 9, 46, 100
11, 514510, Note_off_c, 9, 46, 64
11, 514560, Note_on_c, 9, 42, 100
11, 514560, Note_on_c, 9, 36, 100
11, 514800, Note_off_c, 9, 36, 64
11, 514800, Note_off_c, 9, 42, 64
11, 514860, Note_on_c, 9, 42, 100
11, 514950, Note_off_c, 9, 42, 64
11, 514950, Note_on_c, 9, 42, 100
11, 515040, Note_off_c, 9, 42, 64
11, 515040, Note_on_c, 9, 42, 100
11, 515208, Note_off_c, 9, 42, 64
11, 515340, Note_on_c, 9, 42, 100
11, 515470, Note_off_c, 9, 42, 64
11, 515520, Note_on_c, 9, 45, 100
11, 515760, Note_off_c, 9, 45, 64
11, 516000, Note_on_c, 9, 42, 100
11, 516240, Note_off_c, 9, 42, 64
11, 516300, Note_on_c, 9, 46, 100
11, 516430, Note_off_c, 9, 46, 64
11, 516480, Note_on_c, 9, 42, 100
11, 516720, Note_off_c, 9, 42, 64
11, 516960, Note_on_c, 9, 42, 100
11, 517200, Note_off_c, 9, 42, 64
11, 517260, Note_on_c, 9, 42, 100
11, 517390, Note_off_c, 9, 42, 64
11, 517440, Note_on_c, 9, 36, 100
11, 517680, Note_off_c, 9, 36, 64
11, 517920, Note_on_c, 9, 42, 100
11, 518160, Note_off_c, 9, 42, 64
11, 518220, Note_on_c, 9, 46, 100
11, 518350, Note_off_c, 9, 46, 64
11, 518400, Note_on_c, 9, 36, 100
11, 518400, Note_on_c, 9, 42, 100
11, 518640, Note_off_c, 9, 42, 64
11, 518640, Note_off_c, 9, 36, 64
11, 518700, Note_on_c, 9, 42, 100
11, 518790, Note_off_c, 9, 42, 64
11, 518790, Note_on_c, 9, 42, 100
11, 518880, Note_off_c, 9, 42, 64
11, 518880, Note_on_c, 9, 42, 100
11, 519048, Note_off_c, 9, 42, 64
11, 519180, Note_on_c, 9, 42, 100
11, 519310, Note_off_c, 9, 42, 64
11, 519360, Note_on_c, 9, 45, 100
11, 519600, Note_off_c, 9, 45, 64
11, 519840, Note_on_c, 9, 42, 100
11, 520080, Note_off_c, 9, 42, 64
11, 520140, Note_on_c, 9, 46, 100
11, 520270, Note_off_c, 9, 46, 64
11, 520320, Note_on_c, 9, 36, 100
11, 520320, Note_on_c, 9, 49, 100
11, 520560, Note_off_c, 9, 49, 64
11, 520560, Note_off_c, 9, 36, 64
11, 520560, Note_on_c, 9, 40, 100
11, 520560, Note_on_c, 9, 53, 100
11, 520800, Note_off_c, 9, 53, 64
11, 520800, Note_off_c, 9, 40, 64
11, 520800, Note_on_c, 9, 36, 100
11, 520800, Note_on_c, 9, 53, 100
11, 521040, Note_off_c, 9, 53, 64
11, 521040, Note_off_c, 9, 36, 64
11, 521040, Note_on_c, 9, 40, 100
11, 521040, Note_on_c, 9, 53, 100
11, 521280, Note_off_c, 9, 53, 64
11, 521280, Note_off_c, 9, 40, 64
11, 521280, Note_on_c, 9, 36, 100
11, 521280, Note_on_c, 9, 53, 100
11, 521520, Note_off_c, 9, 53, 64
11, 521520, Note_off_c, 9, 36, 64
11, 521520, Note_on_c, 9, 40, 100
11, 521520, Note_on_c, 9, 53, 100
11, 521760, Note_off_c, 9, 53, 64
11, 521760, Note_off_c, 9, 40, 64
11, 521760, Note_on_c, 9, 36, 100
11, 521760, Note_on_c, 9, 53, 100
11, 522000, Note_off_c, 9, 53, 64
11, 522000, Note_off_c, 9, 36, 64
11, 522000, Note_on_c, 9, 40, 100
11, 522000, Note_on_c, 9, 53, 100
11, 522240, Note_off_c, 9, 53, 64
11, 522240, Note_off_c, 9, 40, 64
11, 522240, Note_on_c, 9, 36, 100
11, 522240, Note_on_c, 9, 53, 100
11, 522480, Note_off_c, 9, 53, 64
11, 522480, Note_off_c, 9, 36, 64
11, 522480, Note_on_c, 9, 40, 100
11, 522480, Note_on_c, 9, 53, 100
11, 522720, Note_off_c, 9, 53, 64
11, 522720, Note_off_c, 9, 40, 64
11, 522720, Note_on_c, 9, 36, 100
11, 522720, Note_on_c, 9, 53, 100
11, 522960, Note_off_c, 9, 53, 64
11, 522960, Note_off_c, 9, 36, 64
11, 522960, Note_on_c, 9, 40, 100
11, 522960, Note_on_c, 9, 53, 100
11, 523200, Note_off_c, 9, 53, 64
11, 523200, Note_off_c, 9, 40, 64
11, 523200, Note_on_c, 9, 36, 100
11, 523200, Note_on_c, 9, 53, 100
11, 523440, Note_off_c, 9, 53, 64
11, 523440, Note_off_c, 9, 36, 64
11, 523440, Note_on_c, 9, 40, 100
11, 523440, Note_on_c, 9, 53, 100
11, 523680, Note_off_c, 9, 53, 64
11, 523680, Note_off_c, 9, 40, 64
11, 523680, Note_on_c, 9, 36, 100
11, 523680, Note_on_c, 9, 53, 100
11, 523920, Note_off_c, 9, 53, 64
11, 523920, Note_off_c, 9, 36, 64
11, 523920, Note_on_c, 9, 40, 100
11, 523920, Note_on_c, 9, 53, 100
11, 524160, Note_off_c, 9, 53, 64
11, 524160, Note_off_c, 9, 40, 64
11, 524160, Note_on_c, 9, 36, 100
11, 524160, Note_on_c, 9, 53, 100
11, 524400, Note_off_c, 9, 53, 64
11, 524400, Note_off_c, 9, 36, 64
11, 524400, Note_on_c, 9, 40, 100
11, 524400, Note_on_c, 9, 53, 100
11, 524640, Note_off_c, 9, 53, 64
11, 524640, Note_off_c, 9, 40, 64
11, 524640, Note_on_c, 9, 36, 100
11, 524640, Note_on_c, 9, 53, 100
11, 524880, Note_off_c, 9, 53, 64
11, 524880, Note_off_c, 9, 36, 64
11, 524880, Note_on_c, 9, 40, 100
11, 524880, Note_on_c, 9, 53, 100
11, 525120, Note_off_c, 9, 53, 64
11, 525120, Note_off_c, 9, 40, 64
11, 525120, Note_on_c, 9, 36, 100
11, 525120, Note_on_c, 9, 53, 100
11, 525360, Note_off_c, 9, 53, 64
11, 525360, Note_off_c, 9, 36, 64
11, 525360, Note_on_c, 9, 40, 100
11, 525360, Note_on_c, 9, 53, 100
11, 525600, Note_off_c, 9, 53, 64
11, 525600, Note_off_c, 9, 40, 64
11, 525600, Note_on_c, 9, 36, 100
11, 525600, Note_on_c, 9, 53, 100
11, 525840, Note_off_c, 9, 53, 64
11, 525840, Note_off_c, 9, 36, 64
11, 525840, Note_on_c, 9, 40, 100
11, 525840, Note_on_c, 9, 53, 100
11, 526080, Note_off_c, 9, 53, 64
11, 526080, Note_off_c, 9, 40, 64
11, 526080, Note_on_c, 9, 36, 100
11, 526080, Note_on_c, 9, 49, 100
11, 526560, Note_off_c, 9, 49, 64
11, 526560, Note_off_c, 9, 36, 64
11, 526560, Note_on_c, 9, 44, 100
11, 527040, Note_off_c, 9, 44, 64
11, 527040, Note_on_c, 9, 44, 100
11, 527520, Note_off_c, 9, 44, 64
11, 527520, Note_on_c, 9, 44, 100
11, 528000, Note_off_c, 9, 44, 64
11, 528000, Note_on_c, 9, 49, 100
11, 528000, Note_on_c, 9, 36, 100
11, 528480, Note_off_c, 9, 36, 64
11, 528480, Note_off_c, 9, 49, 64
11, 528480, Note_on_c, 9, 44, 100
11, 528960, Note_off_c, 9, 44, 64
11, 528960, Note_on_c, 9, 44, 100
11, 529440, Note_off_c, 9, 44, 64
11, 529440, Note_on_c, 9, 44, 100
11, 529920, Note_off_c, 9, 44, 64
11, 529920, Note_on_c, 9, 49, 100
11, 529920, Note_on_c, 9, 36, 100
11, 530400, Note_off_c, 9, 36, 64
11, 530400, Note_off_c, 9, 49, 64
11, 531360, Note_on_c, 9, 36, 100
11, 531360, Note_on_c, 9, 49, 100
11, 531840, Note_off_c, 9, 49, 64
11, 531840, Note_off_c, 9, 36, 64
11, 531840, Note_on_c, 9, 49, 100
11, 531840, Note_on_c, 9, 36, 100
11, 532080, Control_c, 9, 7, 0
11, 532320, Note_off_c, 9, 36, 64
11, 532320, Note_off_c, 9, 49, 64
11, 532320, End_track
12, 0, Start_track
12, 0, Title_t, "WarmPad"
12, 0, MIDI_port, 0
12, 0, Channel_prefix, 10
12, 0, Control_c, 10, 7, 74
12, 0, Control_c, 10, 10, 64
12, 0, Program_c, 10, 89
12, 319680, Note_on_c, 10, 71, 70
12, 319680, Note_on_c, 10, 66, 70
12, 319680, Note_on_c, 10, 59, 70
12, 319680, Note_on_c, 10, 62, 70
12, 321353, Note_off_c, 10, 62, 64
12, 321360, Note_off_c, 10, 59, 64
12, 321360, Note_off_c, 10, 66, 64
12, 321360, Note_off_c, 10, 71, 64
12, 321360, Note_on_c, 10, 69, 70
12, 321360, Note_on_c, 10, 64, 70
12, 321360, Note_on_c, 10, 73, 70
12, 321360, Note_on_c, 10, 49, 100
12, 321360, Note_on_c, 10, 61, 100
12, 321360, Note_on_c, 10, 57, 100
12, 322320, Note_off_c, 10, 57, 64
12, 322320, Note_off_c, 10, 61, 64
12, 322320, Note_off_c, 10, 49, 64
12, 322320, Note_off_c, 10, 73, 64
12, 322320, Note_off_c, 10, 64, 64
12, 322320, Note_off_c, 10, 69, 64
12, 322320, Note_on_c, 10, 62, 70
12, 322320, Note_on_c, 10, 71, 70
12, 322320, Note_on_c, 10, 67, 70
12, 322320, Note_on_c, 10, 50, 100
12, 322320, Note_on_c, 10, 74, 100
12, 323280, Note_off_c, 10, 74, 64
12, 323280, Note_off_c, 10, 50, 64
12, 323280, Note_off_c, 10, 67, 64
12, 323280, Note_off_c, 10, 71, 64
12, 323280, Note_off_c, 10, 62, 64
12, 323280, Note_on_c, 10, 71, 70
12, 323280, Note_on_c, 10, 66, 70
12, 323280, Note_on_c, 10, 59, 70
12, 323280, Note_on_c, 10, 62, 100
12, 324240, Note_off_c, 10, 62, 64
12, 324240, Note_off_c, 10, 59, 64
12, 324240, Note_off_c, 10, 66, 64
12, 324240, Note_off_c, 10, 71, 64
12, 324240, Note_on_c, 10, 57, 70
12, 324240, Note_on_c, 10, 59, 70
12, 324240, Note_on_c, 10, 69, 100
12, 324240, Note_on_c, 10, 64, 70
12, 324960, Note_off_c, 10, 64, 64
12, 324960, Note_off_c, 10, 59, 64
12, 324960, Note_off_c, 10, 57, 64
12, 324960, Note_on_c, 10, 71, 70
12, 324960, Note_on_c, 10, 66, 70
12, 324960, Note_on_c, 10, 55, 70
12, 324960, Note_on_c, 10, 43, 100
12, 324960, Note_on_c, 10, 62, 100
12, 324967, Note_off_c, 10, 69, 64
12, 326633, Note_off_c, 10, 71, 64
12, 326633, Note_off_c, 10, 66, 64
12, 326633, Note_off_c, 10, 43, 64
12, 326633, Note_off_c, 10, 62, 64
12, 326640, Note_off_c, 10, 55, 64
12, 326640, Note_on_c, 10, 62, 70
12, 326640, Note_on_c, 10, 59, 70
12, 326640, Note_on_c, 10, 66, 70
12, 326640, Note_on_c, 10, 71, 70
12, 328313, Note_off_c, 10, 62, 64
12, 328320, Note_off_c, 10, 59, 64
12, 328320, Note_off_c, 10, 66, 64
12, 328320, Note_off_c, 10, 71, 64
12, 328320, Note_on_c, 10, 69, 70
12, 328320, Note_on_c, 10, 64, 70
12, 328320, Note_on_c, 10, 73, 70
12, 328320, Note_on_c, 10, 49, 100
12, 328320, Note_on_c, 10, 61, 100
12, 328320, Note_on_c, 10, 57, 100
12, 329280, Note_off_c, 10, 57, 64
12, 329280, Note_off_c, 10, 61, 64
12, 329280, Note_off_c, 10, 49, 64
12, 329280, Note_off_c, 10, 73, 64
12, 329280, Note_off_c, 10, 64, 64
12, 329280, Note_off_c, 10, 69, 64
12, 329280, Note_on_c, 10, 62, 70
12, 329280, Note_on_c, 10, 71, 70
12, 329280, Note_on_c, 10, 67, 70
12, 329280, Note_on_c, 10, 50, 100
12, 329280, Note_on_c, 10, 74, 100
12, 330240, Note_off_c, 10, 74, 64
12, 330240, Note_off_c, 10, 50, 64
12, 330240, Note_off_c, 10, 67, 64
12, 330240, Note_off_c, 10, 71, 64
12, 330240, Note_off_c, 10, 62, 64
12, 330240, Note_on_c, 10, 71, 70
12, 330240, Note_on_c, 10, 66, 70
12, 330240, Note_on_c, 10, 59, 70
12, 330240, Note_on_c, 10, 62, 100
12, 331200, Note_off_c, 10, 62, 64
12, 331200, Note_off_c, 10, 59, 64
12, 331200, Note_off_c, 10, 66, 64
12, 331200, Note_off_c, 10, 71, 64
12, 331200, Note_on_c, 10, 57, 70
12, 331200, Note_on_c, 10, 59, 70
12, 331200, Note_on_c, 10, 69, 100
12, 331200, Note_on_c, 10, 64, 70
12, 331920, Note_off_c, 10, 64, 64
12, 331920, Note_off_c, 10, 59, 64
12, 331920, Note_off_c, 10, 57, 64
12, 331920, Note_on_c, 10, 71, 70
12, 331920, Note_on_c, 10, 66, 70
12, 331920, Note_on_c, 10, 55, 70
12, 331920, Note_on_c, 10, 62, 100
12, 331920, Note_on_c, 10, 43, 100
12, 331927, Note_off_c, 10, 69, 64
12, 333593, Note_off_c, 10, 71, 64
12, 333593, Note_off_c, 10, 66, 64
12, 333593, Note_off_c, 10, 62, 64
12, 333593, Note_off_c, 10, 43, 64
12, 333600, Note_off_c, 10, 55, 64
12, 333600, Note_on_c, 10, 62, 100
12, 333600, Note_on_c, 10, 66, 100
12, 333600, Note_on_c, 10, 71, 100
12, 333600, Note_on_c, 10, 74, 100
12, 335273, Note_off_c, 10, 62, 64
12, 335280, Note_off_c, 10, 66, 64
12, 335280, Note_off_c, 10, 71, 64
12, 335280, Note_off_c, 10, 74, 64
12, 335280, Note_on_c, 10, 69, 100
12, 335280, Note_on_c, 10, 64, 100
12, 335280, Note_on_c, 10, 73, 100
12, 335280, Note_on_c, 10, 49, 100
12, 336240, Note_off_c, 10, 49, 64
12, 336240, Note_off_c, 10, 73, 64
12, 336240, Note_off_c, 10, 64, 64
12, 336240, Note_off_c, 10, 69, 64
12, 336240, Note_on_c, 10, 74, 100
12, 336240, Note_on_c, 10, 50, 100
12, 336240, Note_on_c, 10, 71, 100
12, 336240, Note_on_c, 10, 67, 100
12, 337200, Note_off_c, 10, 67, 64
12, 337200, Note_off_c, 10, 71, 64
12, 337200, Note_off_c, 10, 50, 64
12, 337200, Note_off_c, 10, 74, 64
12, 337200, Note_on_c, 10, 71, 100
12, 337200, Note_on_c, 10, 66, 100
12, 337200, Note_on_c, 10, 78, 100
12, 338160, Note_off_c, 10, 78, 64
12, 338160, Note_off_c, 10, 66, 64
12, 338160, Note_off_c, 10, 71, 64
12, 338160, Note_on_c, 10, 69, 100
12, 338160, Note_on_c, 10, 76, 100
12, 338160, Note_on_c, 10, 71, 100
12, 338880, Note_off_c, 10, 71, 64
12, 338880, Note_off_c, 10, 76, 64
12, 338880, Note_off_c, 10, 69, 64
12, 338880, Note_on_c, 10, 67, 100
12, 338880, Note_on_c, 10, 71, 100
12, 338880, Note_on_c, 10, 74, 100
12, 340553, Note_off_c, 10, 74, 64
12, 340553, Note_off_c, 10, 71, 64
12, 340553, Note_off_c, 10, 67, 64
12, 340560, Note_on_c, 10, 74, 100
12, 340560, Note_on_c, 10, 71, 100
12, 340560, Note_on_c, 10, 66, 100
12, 340560, Note_on_c, 10, 62, 100
12, 342233, Note_off_c, 10, 62, 64
12, 342240, Note_off_c, 10, 66, 64
12, 342240, Note_off_c, 10, 71, 64
12, 342240, Note_off_c, 10, 74, 64
12, 342240, Note_on_c, 10, 69, 100
12, 342240, Note_on_c, 10, 64, 100
12, 342240, Note_on_c, 10, 73, 100
12, 342240, Note_on_c, 10, 49, 100
12, 343200, Note_off_c, 10, 49, 64
12, 343200, Note_off_c, 10, 73, 64
12, 343200, Note_off_c, 10, 64, 64
12, 343200, Note_off_c, 10, 69, 64
12, 343200, Note_on_c, 10, 74, 100
12, 343200, Note_on_c, 10, 50, 100
12, 343200, Note_on_c, 10, 71, 100
12, 343200, Note_on_c, 10, 67, 100
12, 344160, Note_off_c, 10, 67, 64
12, 344160, Note_off_c, 10, 71, 64
12, 344160, Note_off_c, 10, 50, 64
12, 344160, Note_off_c, 10, 74, 64
12, 344160, Note_on_c, 10, 71, 100
12, 344160, Note_on_c, 10, 66, 100
12, 344160, Note_on_c, 10, 78, 100
12, 345120, Note_off_c, 10, 78, 64
12, 345120, Note_off_c, 10, 66, 64
12, 345120, Note_off_c, 10, 71, 64
12, 345120, Note_on_c, 10, 69, 100
12, 345120, Note_on_c, 10, 76, 100
12, 345120, Note_on_c, 10, 71, 100
12, 345840, Note_off_c, 10, 71, 64
12, 345840, Note_off_c, 10, 76, 64
12, 345840, Note_off_c, 10, 69, 64
12, 345840, Note_on_c, 10, 74, 100
12, 345840, Note_on_c, 10, 67, 100
12, 345840, Note_on_c, 10, 71, 100
12, 347396, Note_off_c, 10, 74, 64
12, 347513, Note_off_c, 10, 67, 64
12, 347513, Note_off_c, 10, 71, 64
12, 347513, End_track
13, 0, Start_track
13, 0, Title_t, "Strings"
13, 0, MIDI_port, 0
13, 0, Channel_prefix, 11
13, 0, Control_c, 11, 7, 54
13, 0, Control_c, 11, 10, 64
13, 0, Program_c, 11, 49
13, 333600, Note_on_c, 11, 62, 100
13, 333600, Note_on_c, 11, 66, 100
13, 333600, Note_on_c, 11, 71, 100
13, 333600, Note_on_c, 11, 74, 100
13, 335273, Note_off_c, 11, 62, 64
13, 335280, Note_off_c, 11, 66, 64
13, 335280, Note_off_c, 11, 71, 64
13, 335280, Note_off_c, 11, 74, 64
13, 335280, Note_on_c, 11, 69, 100
13, 335280, Note_on_c, 11, 64, 100
13, 335280, Note_on_c, 11, 73, 100
13, 335280, Note_on_c, 11, 49, 100
13, 336240, Note_off_c, 11, 49, 64
13, 336240, Note_off_c, 11, 73, 64
13, 336240, Note_off_c, 11, 64, 64
13, 336240, Note_off_c, 11, 69, 64
13, 336240, Note_on_c, 11, 74, 100
13, 336240, Note_on_c, 11, 50, 100
13, 336240, Note_on_c, 11, 71, 100
13, 336240, Note_on_c, 11, 67, 100
13, 337200, Note_off_c, 11, 67, 64
13, 337200, Note_off_c, 11, 71, 64
13, 337200, Note_off_c, 11, 50, 64
13, 337200, Note_off_c, 11, 74, 64
13, 337200, Note_on_c, 11, 71, 100
13, 337200, Note_on_c, 11, 66, 100
13, 337200, Note_on_c, 11, 78, 100
13, 338160, Note_off_c, 11, 78, 64
13, 338160, Note_off_c, 11, 66, 64
13, 338160, Note_off_c, 11, 71, 64
13, 338160, Note_on_c, 11, 69, 100
13, 338160, Note_on_c, 11, 76, 100
13, 338160, Note_on_c, 11, 71, 100
13, 338880, Note_off_c, 11, 71, 64
13, 338880, Note_off_c, 11, 76, 64
13, 338880, Note_off_c, 11, 69, 64
13, 338880, Note_on_c, 11, 67, 100
13, 338880, Note_on_c, 11, 71, 100
13, 338880, Note_on_c, 11, 74, 100
13, 340553, Note_off_c, 11, 74, 64
13, 340553, Note_off_c, 11, 71, 64
13, 340553, Note_off_c, 11, 67, 64
13, 340560, Note_on_c, 11, 74, 100
13, 340560, Note_on_c, 11, 71, 100
13, 340560, Note_on_c, 11, 66, 100
13, 340560, Note_on_c, 11, 62, 100
13, 342233, Note_off_c, 11, 62, 64
13, 342240, Note_off_c, 11, 66, 64
13, 342240, Note_off_c, 11, 71, 64
13, 342240, Note_off_c, 11, 74, 64
13, 342240, Note_on_c, 11, 69, 100
13, 342240, Note_on_c, 11, 64, 100
13, 342240, Note_on_c, 11, 73, 100
13, 342240, Note_on_c, 11, 49, 100
13, 343200, Note_off_c, 11, 49, 64
13, 343200, Note_off_c, 11, 73, 64
13, 343200, Note_off_c, 11, 64, 64
13, 343200, Note_off_c, 11, 69, 64
13, 343200, Note_on_c, 11, 74, 100
13, 343200, Note_on_c, 11, 50, 100
13, 343200, Note_on_c, 11, 71, 100
13, 343200, Note_on_c, 11, 67, 100
13, 344160, Note_off_c, 11, 67, 64
13, 344160, Note_off_c, 11, 71, 64
13, 344160, Note_off_c, 11, 50, 64
13, 344160, Note_off_c, 11, 74, 64
13, 344160, Note_on_c, 11, 71, 100
13, 344160, Note_on_c, 11, 66, 100
13, 344160, Note_on_c, 11, 78, 100
13, 345120, Note_off_c, 11, 78, 64
13, 345120, Note_off_c, 11, 66, 64
13, 345120, Note_off_c, 11, 71, 64
13, 345120, Note_on_c, 11, 69, 100
13, 345120, Note_on_c, 11, 76, 100
13, 345120, Note_on_c, 11, 71, 100
13, 345840, Note_off_c, 11, 71, 64
13, 345840, Note_off_c, 11, 76, 64
13, 345840, Note_off_c, 11, 69, 64
13, 345840, Note_on_c, 11, 74, 100
13, 345840, Note_on_c, 11, 67, 100
13, 345840, Note_on_c, 11, 71, 100
13, 347396, Note_off_c, 11, 74, 64
13, 347513, Note_off_c, 11, 67, 64
13, 347513, Note_off_c, 11, 71, 64
13, 347520, Note_on_c, 11, 71, 127
13, 347520, Note_on_c, 11, 66, 127
13, 347520, Note_on_c, 11, 59, 127
13, 347760, Note_off_c, 11, 59, 64
13, 347760, Note_off_c, 11, 66, 64
13, 347760, Note_off_c, 11, 71, 64
13, 348470, Program_c, 11, 48
13, 348480, Note_on_c, 11, 71, 100
13, 348480, Note_on_c, 11, 66, 100
13, 348480, Note_on_c, 11, 62, 100
13, 348480, Note_on_c, 11, 47, 100
13, 348480, Note_on_c, 11, 35, 100
13, 350153, Note_off_c, 11, 35, 64
13, 350153, Note_off_c, 11, 47, 64
13, 350153, Note_off_c, 11, 62, 64
13, 350153, Note_off_c, 11, 66, 64
13, 350153, Note_off_c, 11, 71, 64
13, 350160, Note_on_c, 11, 73, 100
13, 350160, Note_on_c, 11, 69, 100
13, 350160, Note_on_c, 11, 64, 100
13, 350160, Note_on_c, 11, 49, 100
13, 350160, Note_on_c, 11, 45, 100
13, 350160, Note_on_c, 11, 37, 100
13, 351120, Note_off_c, 11, 37, 64
13, 351120, Note_off_c, 11, 45, 64
13, 351120, Note_off_c, 11, 49, 64
13, 351120, Note_off_c, 11, 64, 64
13, 351120, Note_off_c, 11, 69, 64
13, 351120, Note_off_c, 11, 73, 64
13, 351120, Note_on_c, 11, 74, 100
13, 351120, Note_on_c, 11, 71, 100
13, 351120, Note_on_c, 11, 67, 100
13, 351120, Note_on_c, 11, 55, 100
13, 351120, Note_on_c, 11, 43, 100
13, 352080, Note_off_c, 11, 43, 64
13, 352080, Note_off_c, 11, 55, 64
13, 352080, Note_off_c, 11, 67, 64
13, 352080, Note_off_c, 11, 71, 64
13, 352080, Note_off_c, 11, 74, 64
13, 352080, Note_on_c, 11, 47, 100
13, 352080, Note_on_c, 11, 71, 100
13, 352080, Note_on_c, 11, 35, 100
13, 352080, Note_on_c, 11, 74, 100
13, 352080, Note_on_c, 11, 78, 100
13, 353040, Note_off_c, 11, 78, 64
13, 353040, Note_off_c, 11, 74, 64
13, 353040, Note_off_c, 11, 35, 64
13, 353040, Note_off_c, 11, 71, 64
13, 353040, Note_off_c, 11, 47, 64
13, 353040, Note_on_c, 11, 45, 100
13, 353040, Note_on_c, 11, 69, 100
13, 353040, Note_on_c, 11, 71, 100
13, 353040, Note_on_c, 11, 76, 100
13, 353760, Note_on_c, 11, 43, 100
13, 353760, Note_on_c, 11, 55, 100
13, 353760, Note_on_c, 11, 71, 100
13, 353760, Note_on_c, 11, 66, 100
13, 353767, Note_off_c, 11, 76, 64
13, 353767, Note_off_c, 11, 71, 64
13, 353767, Note_off_c, 11, 69, 64
13, 353767, Note_off_c, 11, 45, 64
13, 355433, Note_off_c, 11, 43, 64
13, 355433, Note_off_c, 11, 55, 64
13, 355433, Note_off_c, 11, 71, 64
13, 355433, Note_off_c, 11, 66, 64
13, 355440, Note_on_c, 11, 35, 100
13, 355440, Note_on_c, 11, 47, 100
13, 355440, Note_on_c, 11, 62, 100
13, 355440, Note_on_c, 11, 66, 100
13, 355440, Note_on_c, 11, 71, 100
13, 357113, Note_off_c, 11, 71, 64
13, 357113, Note_off_c, 11, 66, 64
13, 357113, Note_off_c, 11, 62, 64
13, 357113, Note_off_c, 11, 47, 64
13, 357113, Note_off_c, 11, 35, 64
13, 357120, Note_on_c, 11, 73, 100
13, 357120, Note_on_c, 11, 69, 100
13, 357120, Note_on_c, 11, 64, 100
13, 357120, Note_on_c, 11, 49, 100
13, 357120, Note_on_c, 11, 45, 100
13, 357120, Note_on_c, 11, 37, 100
13, 358080, Note_off_c, 11, 37, 64
13, 358080, Note_off_c, 11, 45, 64
13, 358080, Note_off_c, 11, 49, 64
13, 358080, Note_off_c, 11, 64, 64
13, 358080, Note_off_c, 11, 69, 64
13, 358080, Note_off_c, 11, 73, 64
13, 358080, Note_on_c, 11, 74, 100
13, 358080, Note_on_c, 11, 50, 100
13, 358080, Note_on_c, 11, 38, 100
13, 358080, Note_on_c, 11, 69, 100
13, 358080, Note_on_c, 11, 78, 100
13, 359040, Note_off_c, 11, 78, 64
13, 359040, Note_off_c, 11, 69, 64
13, 359040, Note_off_c, 11, 38, 64
13, 359040, Note_off_c, 11, 50, 64
13, 359040, Note_off_c, 11, 74, 64
13, 359040, Note_on_c, 11, 71, 100
13, 359040, Note_on_c, 11, 79, 100
13, 359040, Note_on_c, 11, 76, 100
13, 359040, Note_on_c, 11, 52, 100
13, 359040, Note_on_c, 11, 40, 100
13, 360000, Note_off_c, 11, 40, 64
13, 360000, Note_off_c, 11, 52, 64
13, 360000, Note_off_c, 11, 76, 64
13, 360000, Note_off_c, 11, 79, 64
13, 360000, Note_off_c, 11, 71, 64
13, 360000, Note_on_c, 11, 78, 100
13, 360000, Note_on_c, 11, 74, 100
13, 360000, Note_on_c, 11, 69, 100
13, 360000, Note_on_c, 11, 50, 100
13, 360000, Note_on_c, 11, 38, 100
13, 360720, Note_off_c, 11, 38, 64
13, 360720, Note_on_c, 11, 76, 100
13, 360720, Note_on_c, 11, 72, 100
13, 360720, Note_on_c, 11, 67, 100
13, 360720, Note_on_c, 11, 48, 100
13, 360720, Note_on_c, 11, 36, 100
13, 360727, Note_off_c, 11, 50, 64
13, 360727, Note_off_c, 11, 69, 64
13, 360727, Note_off_c, 11, 74, 64
13, 360727, Note_off_c, 11, 78, 64
13, 362400, Note_on_c, 11, 71, 100
13, 362400, Note_on_c, 11, 66, 100
13, 362400, Note_on_c, 11, 62, 100
13, 362400, Note_on_c, 11, 47, 100
13, 362400, Note_on_c, 11, 35, 100
13, 362407, Note_off_c, 11, 76, 64
13, 362407, Note_off_c, 11, 72, 64
13, 362407, Note_off_c, 11, 67, 64
13, 362407, Note_off_c, 11, 48, 64
13, 362407, Note_off_c, 11, 36, 64
13, 364073, Note_off_c, 11, 71, 64
13, 364073, Note_off_c, 11, 66, 64
13, 364073, Note_off_c, 11, 62, 64
13, 364073, Note_off_c, 11, 47, 64
13, 364073, Note_off_c, 11, 35, 64
13, 364080, Note_on_c, 11, 73, 100
13, 364080, Note_on_c, 11, 69, 100
13, 364080, Note_on_c, 11, 64, 100
13, 364080, Note_on_c, 11, 49, 100
13, 364080, Note_on_c, 11, 45, 100
13, 364080, Note_on_c, 11, 37, 100
13, 365040, Note_off_c, 11, 37, 64
13, 365040, Note_off_c, 11, 45, 64
13, 365040, Note_off_c, 11, 49, 64
13, 365040, Note_off_c, 11, 64, 64
13, 365040, Note_off_c, 11, 69, 64
13, 365040, Note_off_c, 11, 73, 64
13, 365040, Note_on_c, 11, 74, 100
13, 365040, Note_on_c, 11, 71, 100
13, 365040, Note_on_c, 11, 67, 100
13, 365040, Note_on_c, 11, 55, 100
13, 365040, Note_on_c, 11, 43, 100
13, 366000, Note_off_c, 11, 43, 64
13, 366000, Note_off_c, 11, 55, 64
13, 366000, Note_off_c, 11, 67, 64
13, 366000, Note_off_c, 11, 71, 64
13, 366000, Note_off_c, 11, 74, 64
13, 366000, Note_on_c, 11, 47, 100
13, 366000, Note_on_c, 11, 71, 100
13, 366000, Note_on_c, 11, 35, 100
13, 366000, Note_on_c, 11, 74, 100
13, 366000, Note_on_c, 11, 78, 100
13, 366960, Note_off_c, 11, 78, 64
13, 366960, Note_off_c, 11, 74, 64
13, 366960, Note_off_c, 11, 35, 64
13, 366960, Note_off_c, 11, 71, 64
13, 366960, Note_off_c, 11, 47, 64
13, 366960, Note_on_c, 11, 45, 100
13, 366960, Note_on_c, 11, 69, 100
13, 366960, Note_on_c, 11, 71, 100
13, 366960, Note_on_c, 11, 76, 100
13, 367680, Note_on_c, 11, 43, 100
13, 367680, Note_on_c, 11, 55, 100
13, 367680, Note_on_c, 11, 71, 100
13, 367680, Note_on_c, 11, 66, 100
13, 367687, Note_off_c, 11, 76, 64
13, 367687, Note_off_c, 11, 71, 64
13, 367687, Note_off_c, 11, 69, 64
13, 367687, Note_off_c, 11, 45, 64
13, 369353, Note_off_c, 11, 43, 64
13, 369353, Note_off_c, 11, 55, 64
13, 369353, Note_off_c, 11, 71, 64
13, 369353, Note_off_c, 11, 66, 64
13, 369360, Note_on_c, 11, 35, 100
13, 369360, Note_on_c, 11, 47, 100
13, 369360, Note_on_c, 11, 62, 100
13, 369360, Note_on_c, 11, 66, 100
13, 369360, Note_on_c, 11, 71, 100
13, 371033, Note_off_c, 11, 71, 64
13, 371033, Note_off_c, 11, 66, 64
13, 371033, Note_off_c, 11, 62, 64
13, 371033, Note_off_c, 11, 47, 64
13, 371033, Note_off_c, 11, 35, 64
13, 371040, Note_on_c, 11, 73, 100
13, 371040, Note_on_c, 11, 69, 100
13, 371040, Note_on_c, 11, 64, 100
13, 371040, Note_on_c, 11, 49, 100
13, 371040, Note_on_c, 11, 45, 100
13, 371040, Note_on_c, 11, 37, 100
13, 372000, Note_off_c, 11, 37, 64
13, 372000, Note_off_c, 11, 45, 64
13, 372000, Note_off_c, 11, 49, 64
13, 372000, Note_off_c, 11, 64, 64
13, 372000, Note_off_c, 11, 69, 64
13, 372000, Note_off_c, 11, 73, 64
13, 372000, Note_on_c, 11, 74, 100
13, 372000, Note_on_c, 11, 50, 100
13, 372000, Note_on_c, 11, 38, 100
13, 372000, Note_on_c, 11, 69, 100
13, 372000, Note_on_c, 11, 78, 100
13, 372960, Note_off_c, 11, 78, 64
13, 372960, Note_off_c, 11, 69, 64
13, 372960, Note_off_c, 11, 38, 64
13, 372960, Note_off_c, 11, 50, 64
13, 372960, Note_off_c, 11, 74, 64
13, 372960, Note_on_c, 11, 71, 100
13, 372960, Note_on_c, 11, 79, 100
13, 372960, Note_on_c, 11, 76, 100
13, 372960, Note_on_c, 11, 52, 100
13, 372960, Note_on_c, 11, 40, 100
13, 373920, Note_off_c, 11, 40, 64
13, 373920, Note_off_c, 11, 52, 64
13, 373920, Note_off_c, 11, 76, 64
13, 373920, Note_off_c, 11, 79, 64
13, 373920, Note_off_c, 11, 71, 64
13, 373920, Note_on_c, 11, 78, 100
13, 373920, Note_on_c, 11, 74, 100
13, 373920, Note_on_c, 11, 69, 100
13, 373920, Note_on_c, 11, 50, 100
13, 373920, Note_on_c, 11, 38, 100
13, 374640, Note_off_c, 11, 38, 64
13, 374640, Note_on_c, 11, 76, 100
13, 374640, Note_on_c, 11, 72, 100
13, 374640, Note_on_c, 11, 67, 100
13, 374640, Note_on_c, 11, 48, 100
13, 374640, Note_on_c, 11, 36, 100
13, 374647, Note_off_c, 11, 50, 64
13, 374647, Note_off_c, 11, 69, 64
13, 374647, Note_off_c, 11, 74, 64
13, 374647, Note_off_c, 11, 78, 64
13, 376320, Note_on_c, 11, 59, 90
13, 376320, Note_on_c, 11, 66, 90
13, 376320, Note_on_c, 11, 71, 90
13, 376327, Note_off_c, 11, 76, 64
13, 376327, Note_off_c, 11, 72, 64
13, 376327, Note_off_c, 11, 67, 64
13, 376327, Note_off_c, 11, 48, 64
13, 376327, Note_off_c, 11, 36, 64
13, 377993, Note_off_c, 11, 59, 64
13, 377993, Note_off_c, 11, 66, 64
13, 377993, Note_off_c, 11, 71, 64
13, 378000, Note_on_c, 11, 69, 90
13, 378000, Note_on_c, 11, 64, 90
13, 378000, Note_on_c, 11, 57, 90
13, 379920, Note_off_c, 11, 57, 64
13, 379920, Note_off_c, 11, 64, 64
13, 379920, Note_off_c, 11, 69, 64
13, 379920, Note_on_c, 11, 71, 90
13, 379920, Note_on_c, 11, 66, 90
13, 379920, Note_on_c, 11, 59, 90
13, 380880, Note_off_c, 11, 59, 64
13, 380880, Note_off_c, 11, 66, 64
13, 380880, Note_off_c, 11, 71, 64
13, 380880, Note_on_c, 11, 69, 90
13, 380880, Note_on_c, 11, 64, 90
13, 380880, Note_on_c, 11, 57, 90
13, 383280, Note_off_c, 11, 57, 64
13, 383280, Note_off_c, 11, 64, 64
13, 383280, Note_off_c, 11, 69, 64
13, 383280, Note_on_c, 11, 71, 90
13, 383280, Note_on_c, 11, 66, 90
13, 383280, Note_on_c, 11, 59, 90
13, 384953, Note_off_c, 11, 59, 64
13, 384953, Note_off_c, 11, 66, 64
13, 384953, Note_off_c, 11, 71, 64
13, 384960, Note_on_c, 11, 69, 90
13, 384960, Note_on_c, 11, 64, 90
13, 384960, Note_on_c, 11, 57, 90
13, 386880, Note_off_c, 11, 57, 64
13, 386880, Note_off_c, 11, 64, 64
13, 386880, Note_off_c, 11, 69, 64
13, 386880, Note_on_c, 11, 71, 90
13, 386880, Note_on_c, 11, 66, 90
13, 386880, Note_on_c, 11, 59, 90
13, 387840, Note_off_c, 11, 59, 64
13, 387840, Note_off_c, 11, 66, 64
13, 387840, Note_off_c, 11, 71, 64
13, 387840, Note_on_c, 11, 69, 90
13, 387840, Note_on_c, 11, 64, 90
13, 387840, Note_on_c, 11, 57, 90
13, 390240, Note_off_c, 11, 57, 64
13, 390240, Note_off_c, 11, 64, 64
13, 390240, Note_off_c, 11, 69, 64
13, 390240, Note_on_c, 11, 40, 100
13, 390240, Note_on_c, 11, 64, 100
13, 390720, Note_off_c, 11, 64, 64
13, 390720, Note_on_c, 11, 76, 100
13, 390720, Note_on_c, 11, 71, 100
13, 390720, Note_on_c, 11, 67, 100
13, 390960, Note_off_c, 11, 67, 64
13, 390960, Note_off_c, 11, 71, 64
13, 390960, Note_off_c, 11, 76, 64
13, 391200, Note_off_c, 11, 40, 64
13, 391200, Note_on_c, 11, 74, 100
13, 391200, Note_on_c, 11, 71, 100
13, 391200, Note_on_c, 11, 66, 100
13, 391200, Note_on_c, 11, 47, 100
13, 391913, Note_off_c, 11, 47, 64
13, 391913, Note_off_c, 11, 66, 64
13, 391913, Note_off_c, 11, 71, 64
13, 391913, Note_off_c, 11, 74, 64
13, 391920, Note_on_c, 11, 42, 100
13, 391920, Note_on_c, 11, 66, 100
13, 391920, Note_on_c, 11, 69, 100
13, 391920, Note_on_c, 11, 61, 100
13, 392880, Note_off_c, 11, 61, 64
13, 392880, Note_off_c, 11, 69, 64
13, 392880, Note_off_c, 11, 66, 64
13, 392880, Note_off_c, 11, 42, 64
13, 392880, Note_on_c, 11, 43, 100
13, 392880, Note_on_c, 11, 71, 100
13, 392880, Note_on_c, 11, 67, 100
13, 392880, Note_on_c, 11, 62, 100
13, 393600, Note_on_c, 11, 38, 100
13, 393600, Note_on_c, 11, 62, 100
13, 393600, Note_on_c, 11, 66, 100
13, 393600, Note_on_c, 11, 69, 100
13, 393607, Note_off_c, 11, 62, 64
13, 393607, Note_off_c, 11, 67, 64
13, 393607, Note_off_c, 11, 71, 64
13, 393607, Note_off_c, 11, 43, 64
13, 394560, Note_off_c, 11, 38, 64
13, 394560, Note_off_c, 11, 62, 64
13, 394560, Note_off_c, 11, 66, 64
13, 394560, Note_off_c, 11, 69, 64
13, 394560, Note_on_c, 11, 40, 100
13, 394560, Note_on_c, 11, 64, 100
13, 394560, Note_on_c, 11, 71, 100
13, 394560, Note_on_c, 11, 67, 100
13, 395156, Note_off_c, 11, 40, 64
13, 395273, Note_off_c, 11, 64, 64
13, 395273, Note_off_c, 11, 71, 64
13, 395273, Note_off_c, 11, 67, 64
13, 395280, Note_on_c, 11, 45, 100
13, 395280, Note_on_c, 11, 69, 100
13, 395280, Note_on_c, 11, 64, 100
13, 395280, Note_on_c, 11, 61, 100
13, 396960, Note_on_c, 11, 47, 100
13, 396967, Note_off_c, 11, 61, 64
13, 396967, Note_off_c, 11, 64, 64
13, 396967, Note_off_c, 11, 69, 64
13, 396967, Note_off_c, 11, 45, 64
13, 397440, Note_on_c, 11, 71, 100
13, 397440, Note_on_c, 11, 74, 100
13, 397440, Note_on_c, 11, 66, 100
13, 397680, Note_off_c, 11, 66, 64
13, 397680, Note_off_c, 11, 74, 64
13, 397680, Note_off_c, 11, 71, 64
13, 397920, Note_off_c, 11, 47, 64
13, 397920, Note_on_c, 11, 42, 100
13, 397920, Note_on_c, 11, 73, 100
13, 397920, Note_on_c, 11, 69, 100
13, 397920, Note_on_c, 11, 66, 100
13, 398633, Note_off_c, 11, 66, 64
13, 398633, Note_off_c, 11, 69, 64
13, 398633, Note_off_c, 11, 73, 64
13, 398640, Note_off_c, 11, 42, 64
13, 398640, Note_on_c, 11, 48, 100
13, 398640, Note_on_c, 11, 60, 100
13, 398640, Note_on_c, 11, 64, 100
13, 398640, Note_on_c, 11, 67, 100
13, 398640, Note_on_c, 11, 72, 100
13, 399600, Note_off_c, 11, 72, 64
13, 399600, Note_off_c, 11, 67, 64
13, 399600, Note_off_c, 11, 64, 64
13, 399600, Note_off_c, 11, 60, 64
13, 399600, Note_off_c, 11, 48, 64
13, 399600, Note_on_c, 11, 43, 100
13, 399600, Note_on_c, 11, 67, 100
13, 399600, Note_on_c, 11, 59, 100
13, 399600, Note_on_c, 11, 62, 100
13, 400327, Note_off_c, 11, 62, 64
13, 400327, Note_off_c, 11, 59, 64
13, 400327, Note_off_c, 11, 67, 64
13, 400327, Note_off_c, 11, 43, 64
13, 416640, Note_on_c, 11, 74, 80
13, 416640, Note_on_c, 11, 77, 80
13, 416640, Note_on_c, 11, 81, 80
13, 417470, Note_off_c, 11, 81, 64
13, 417470, Note_off_c, 11, 77, 64
13, 417470, Note_off_c, 11, 74, 64
13, 417600, Note_on_c, 11, 79, 80
13, 417600, Note_on_c, 11, 76, 80
13, 417600, Note_on_c, 11, 72, 80
13, 418196, Note_off_c, 11, 72, 64
13, 418196, Note_off_c, 11, 76, 64
13, 418196, Note_off_c, 11, 79, 64
13, 418320, Note_on_c, 11, 74, 80
13, 418320, Note_on_c, 11, 77, 80
13, 418320, Note_on_c, 11, 70, 80
13, 420480, Note_off_c, 11, 70, 64
13, 420480, Note_off_c, 11, 77, 64
13, 420480, Note_off_c, 11, 74, 64
13, 420480, Note_on_c, 11, 77, 80
13, 420480, Note_on_c, 11, 82, 80
13, 420480, Note_on_c, 11, 74, 80
13, 421320, Note_off_c, 11, 74, 64
13, 421320, Note_off_c, 11, 82, 64
13, 421320, Note_off_c, 11, 77, 64
13, 421440, Note_on_c, 11, 72, 80
13, 421440, Note_on_c, 11, 81, 80
13, 421440, Note_on_c, 11, 77, 80
13, 422040, Note_off_c, 11, 77, 64
13, 422040, Note_off_c, 11, 81, 64
13, 422040, Note_off_c, 11, 72, 64
13, 422160, Note_on_c, 11, 84, 80
13, 422160, Note_on_c, 11, 79, 80
13, 422160, Note_on_c, 11, 76, 80
13, 422160, Note_on_c, 11, 72, 80
13, 423840, Note_off_c, 11, 72, 64
13, 423840, Note_off_c, 11, 76, 64
13, 423840, Note_off_c, 11, 79, 64
13, 423840, Note_off_c, 11, 84, 64
13, 423840, Note_on_c, 11, 74, 80
13, 423840, Note_on_c, 11, 77, 80
13, 423840, Note_on_c, 11, 81, 80
13, 424670, Note_off_c, 11, 81, 64
13, 424670, Note_off_c, 11, 77, 64
13, 424670, Note_off_c, 11, 74, 64
13, 424800, Note_on_c, 11, 79, 80
13, 424800, Note_on_c, 11, 76, 80
13, 424800, Note_on_c, 11, 72, 80
13, 425396, Note_off_c, 11, 72, 64
13, 425396, Note_off_c, 11, 76, 64
13, 425396, Note_off_c, 11, 79, 64
13, 425520, Note_on_c, 11, 74, 80
13, 425520, Note_on_c, 11, 77, 80
13, 425520, Note_on_c, 11, 70, 80
13, 427680, Note_off_c, 11, 70, 64
13, 427680, Note_off_c, 11, 77, 64
13, 427680, Note_off_c, 11, 74, 64
13, 427680, Note_on_c, 11, 77, 80
13, 427680, Note_on_c, 11, 82, 80
13, 427680, Note_on_c, 11, 74, 80
13, 428520, Note_off_c, 11, 74, 64
13, 428520, Note_off_c, 11, 82, 64
13, 428520, Note_off_c, 11, 77, 64
13, 428640, Note_on_c, 11, 72, 80
13, 428640, Note_on_c, 11, 81, 80
13, 428640, Note_on_c, 11, 77, 80
13, 429240, Note_off_c, 11, 77, 64
13, 429240, Note_off_c, 11, 81, 64
13, 429240, Note_off_c, 11, 72, 64
13, 429360, Note_on_c, 11, 84, 80
13, 429360, Note_on_c, 11, 79, 80
13, 429360, Note_on_c, 11, 76, 80
13, 429360, Note_on_c, 11, 72, 80
13, 431040, Note_off_c, 11, 72, 64
13, 431040, Note_off_c, 11, 76, 64
13, 431040, Note_off_c, 11, 79, 64
13, 431040, Note_off_c, 11, 84, 64
13, 453600, Note_on_c, 11, 65, 100
13, 453600, Note_on_c, 11, 74, 100
13, 453600, Note_on_c, 11, 69, 100
13, 453600, Note_on_c, 11, 62, 100
13, 454560, Note_off_c, 11, 62, 64
13, 454560, Note_off_c, 11, 69, 64
13, 454560, Note_off_c, 11, 74, 64
13, 454560, Note_off_c, 11, 65, 64
13, 454560, Note_on_c, 11, 79, 100
13, 454560, Note_on_c, 11, 76, 100
13, 454560, Note_on_c, 11, 72, 100
13, 454560, Note_on_c, 11, 67, 100
13, 455273, Note_off_c, 11, 67, 64
13, 455273, Note_off_c, 11, 72, 64
13, 455273, Note_off_c, 11, 76, 64
13, 455273, Note_off_c, 11, 79, 64
13, 455280, Note_on_c, 11, 77, 100
13, 455280, Note_on_c, 11, 72, 100
13, 455280, Note_on_c, 11, 81, 100
13, 456240, Note_off_c, 11, 81, 64
13, 456240, Note_off_c, 11, 72, 64
13, 456240, Note_off_c, 11, 77, 64
13, 456240, Note_on_c, 11, 82, 100
13, 456240, Note_on_c, 11, 77, 100
13, 456240, Note_on_c, 11, 74, 100
13, 456960, Note_on_c, 11, 84, 100
13, 456960, Note_on_c, 11, 79, 100
13, 456960, Note_on_c, 11, 76, 100
13, 456960, Note_on_c, 11, 72, 100
13, 456967, Note_off_c, 11, 74, 64
13, 456967, Note_off_c, 11, 77, 64
13, 456967, Note_off_c, 11, 82, 64
13, 457920, Note_off_c, 11, 84, 64
13, 457920, Note_off_c, 11, 79, 64
13, 457920, Note_off_c, 11, 76, 64
13, 457920, Note_off_c, 11, 72, 64
13, 457920, Note_on_c, 11, 86, 100
13, 457920, Note_on_c, 11, 81, 100
13, 457920, Note_on_c, 11, 77, 100
13, 457920, Note_on_c, 11, 74, 100
13, 458633, Note_off_c, 11, 74, 64
13, 458633, Note_off_c, 11, 77, 64
13, 458633, Note_off_c, 11, 81, 64
13, 458633, Note_off_c, 11, 86, 64
13, 458640, Note_on_c, 11, 88, 100
13, 458640, Note_on_c, 11, 84, 100
13, 458640, Note_on_c, 11, 79, 100
13, 459600, Note_off_c, 11, 79, 64
13, 459600, Note_off_c, 11, 84, 64
13, 459600, Note_off_c, 11, 88, 64
13, 459600, Note_on_c, 11, 89, 100
13, 459600, Note_on_c, 11, 82, 100
13, 459600, Note_on_c, 11, 86, 100
13, 459840, Note_on_c, 11, 50, 80
13, 459840, Note_on_c, 11, 62, 80
13, 459840, Note_on_c, 11, 74, 80
13, 459840, Note_on_c, 11, 69, 80
13, 459840, Note_on_c, 11, 65, 80
13, 459847, Note_off_c, 11, 86, 64
13, 459847, Note_off_c, 11, 82, 64
13, 459847, Note_off_c, 11, 89, 64
13, 460800, Note_off_c, 11, 50, 64
13, 460800, Note_off_c, 11, 62, 64
13, 460800, Note_off_c, 11, 74, 64
13, 460800, Note_off_c, 11, 69, 64
13, 460800, Note_off_c, 11, 65, 64
13, 460800, Note_on_c, 11, 52, 80
13, 460800, Note_on_c, 11, 72, 80
13, 460800, Note_on_c, 11, 76, 80
13, 460800, Note_on_c, 11, 67, 80
13, 461760, Note_off_c, 11, 67, 64
13, 461760, Note_off_c, 11, 76, 64
13, 461760, Note_off_c, 11, 72, 64
13, 461760, Note_off_c, 11, 52, 64
13, 461760, Note_on_c, 11, 53, 80
13, 461760, Note_on_c, 11, 77, 80
13, 461760, Note_on_c, 11, 70, 80
13, 461760, Note_on_c, 11, 74, 80
13, 462720, Note_off_c, 11, 74, 64
13, 462720, Note_off_c, 11, 70, 64
13, 462720, Note_off_c, 11, 77, 64
13, 462720, Note_off_c, 11, 53, 64
13, 462720, Note_on_c, 11, 43, 80
13, 462720, Note_on_c, 11, 74, 80
13, 462720, Note_on_c, 11, 70, 80
13, 462720, Note_on_c, 11, 79, 80
13, 463680, Note_off_c, 11, 79, 64
13, 463680, Note_off_c, 11, 70, 64
13, 463680, Note_off_c, 11, 74, 64
13, 463680, Note_off_c, 11, 43, 64
13, 463680, Note_on_c, 11, 45, 80
13, 463680, Note_on_c, 11, 77, 80
13, 463680, Note_on_c, 11, 72, 80
13, 463680, Note_on_c, 11, 69, 80
13, 464640, Note_off_c, 11, 69, 64
13, 464640, Note_off_c, 11, 72, 64
13, 464640, Note_off_c, 11, 77, 64
13, 464640, Note_off_c, 11, 45, 64
13, 464640, Note_on_c, 11, 46, 80
13, 464640, Note_on_c, 11, 77, 80
13, 464640, Note_on_c, 11, 74, 80
13, 464640, Note_on_c, 11, 70, 80
13, 465600, Note_off_c, 11, 70, 64
13, 465600, Note_off_c, 11, 74, 64
13, 465600, Note_off_c, 11, 77, 64
13, 465600, Note_off_c, 11, 46, 64
13, 465600, Note_on_c, 11, 48, 80
13, 465600, Note_on_c, 11, 72, 80
13, 465600, Note_on_c, 11, 76, 80
13, 465600, Note_on_c, 11, 79, 80
13, 465600, Note_on_c, 11, 60, 80
13, 468480, Note_off_c, 11, 60, 64
13, 468480, Note_off_c, 11, 79, 64
13, 468480, Note_off_c, 11, 76, 64
13, 468480, Note_off_c, 11, 72, 64
13, 468480, Note_off_c, 11, 48, 64
13, 468480, Note_on_c, 11, 48, 100
13, 468480, Note_on_c, 11, 36, 100
13, 473760, Note_off_c, 11, 36, 64
13, 473760, Note_off_c, 11, 48, 64
13, 473760, End_track
14, 0, Start_track
14, 0, Title_t, "Trumpet"
14, 0, MIDI_port, 0
14, 0, Channel_prefix, 12
14, 0, Control_c, 12, 7, 69
14, 0, Control_c, 12, 10, 64
14, 0, Program_c, 12, 57
14, 348480, Note_on_c, 12, 71, 100
14, 349680, Note_off_c, 12, 71, 64
14, 349680, Note_on_c, 12, 73, 100
14, 349920, Note_off_c, 12, 73, 64
14, 349920, Note_on_c, 12, 74, 100
14, 350160, Note_off_c, 12, 74, 64
14, 350160, Note_on_c, 12, 73, 100
14, 350520, Note_off_c, 12, 73, 64
14, 350520, Note_on_c, 12, 69, 100
14, 350640, Note_off_c, 12, 69, 64
14, 350640, Note_on_c, 12, 64, 100
14, 350760, Note_off_c, 12, 64, 64
14, 350760, Note_on_c, 12, 66, 100
14, 350880, Note_off_c, 12, 66, 64
14, 350880, Note_on_c, 12, 67, 100
14, 352080, Note_off_c, 12, 67, 64
14, 352080, Note_on_c, 12, 66, 100
14, 352320, Note_off_c, 12, 66, 64
14, 352320, Note_on_c, 12, 71, 100
14, 352560, Note_off_c, 12, 71, 64
14, 352560, Note_on_c, 12, 66, 100
14, 352800, Note_off_c, 12, 66, 64
14, 352800, Note_on_c, 12, 62, 100
14, 353040, Note_off_c, 12, 62, 64
14, 353040, Note_on_c, 12, 64, 100
14, 353280, Note_off_c, 12, 64, 64
14, 353280, Note_on_c, 12, 62, 100
14, 353520, Note_off_c, 12, 62, 64
14, 353520, Note_on_c, 12, 61, 100
14, 353760, Note_off_c, 12, 61, 64
14, 353760, Note_on_c, 12, 59, 100
14, 354000, Note_off_c, 12, 59, 64
14, 354000, Note_on_c, 12, 66, 100
14, 354120, Note_off_c, 12, 66, 64
14, 354240, Note_on_c, 12, 66, 100
14, 355440, Note_off_c, 12, 66, 64
14, 355920, Note_on_c, 12, 71, 100
14, 356640, Note_on_c, 12, 73, 100
14, 356647, Note_off_c, 12, 71, 64
14, 356873, Note_off_c, 12, 73, 64
14, 356880, Note_on_c, 12, 74, 100
14, 357120, Note_on_c, 12, 76, 100
14, 357127, Note_off_c, 12, 74, 64
14, 357470, Note_off_c, 12, 76, 64
14, 357480, Note_on_c, 12, 73, 100
14, 357600, Note_off_c, 12, 73, 64
14, 357600, Note_on_c, 12, 69, 100
14, 357833, Note_off_c, 12, 69, 64
14, 357840, Note_on_c, 12, 78, 100
14, 358917, Note_off_c, 12, 78, 64
14, 359040, Note_on_c, 12, 79, 100
14, 359280, Note_off_c, 12, 79, 64
14, 359280, Note_on_c, 12, 78, 100
14, 359520, Note_off_c, 12, 78, 64
14, 359520, Note_on_c, 12, 76, 100
14, 359760, Note_off_c, 12, 76, 64
14, 359760, Note_on_c, 12, 74, 100
14, 360000, Note_off_c, 12, 74, 64
14, 360000, Note_on_c, 12, 74, 100
14, 360240, Note_off_c, 12, 74, 64
14, 360240, Note_on_c, 12, 76, 100
14, 360480, Note_off_c, 12, 76, 64
14, 360480, Note_on_c, 12, 78, 100
14, 360720, Note_off_c, 12, 78, 64
14, 360720, Note_on_c, 12, 76, 100
14, 360840, Note_off_c, 12, 76, 64
14, 360840, Note_on_c, 12, 74, 100
14, 360960, Note_off_c, 12, 74, 64
14, 360960, Note_on_c, 12, 72, 100
14, 362400, Note_off_c, 12, 72, 64
14, 362400, Note_on_c, 12, 71, 100
14, 363600, Note_off_c, 12, 71, 64
14, 363600, Note_on_c, 12, 73, 100
14, 363840, Note_off_c, 12, 73, 64
14, 363840, Note_on_c, 12, 74, 100
14, 364080, Note_off_c, 12, 74, 64
14, 364080, Note_on_c, 12, 73, 100
14, 364440, Note_off_c, 12, 73, 64
14, 364440, Note_on_c, 12, 69, 100
14, 364560, Note_off_c, 12, 69, 64
14, 364560, Note_on_c, 12, 64, 100
14, 364680, Note_off_c, 12, 64, 64
14, 364680, Note_on_c, 12, 66, 100
14, 364800, Note_off_c, 12, 66, 64
14, 364800, Note_on_c, 12, 67, 100
14, 366000, Note_off_c, 12, 67, 64
14, 366000, Note_on_c, 12, 66, 100
14, 366240, Note_off_c, 12, 66, 64
14, 366240, Note_on_c, 12, 71, 100
14, 366480, Note_off_c, 12, 71, 64
14, 366480, Note_on_c, 12, 66, 100
14, 366720, Note_off_c, 12, 66, 64
14, 366720, Note_on_c, 12, 62, 100
14, 366960, Note_off_c, 12, 62, 64
14, 366960, Note_on_c, 12, 64, 100
14, 367200, Note_off_c, 12, 64, 64
14, 367200, Note_on_c, 12, 62, 100
14, 367440, Note_off_c, 12, 62, 64
14, 367440, Note_on_c, 12, 61, 100
14, 367680, Note_off_c, 12, 61, 64
14, 367680, Note_on_c, 12, 59, 100
14, 367920, Note_off_c, 12, 59, 64
14, 367920, Note_on_c, 12, 66, 100
14, 368040, Note_off_c, 12, 66, 64
14, 368160, Note_on_c, 12, 66, 100
14, 369360, Note_off_c, 12, 66, 64
14, 369840, Note_on_c, 12, 71, 100
14, 370560, Note_on_c, 12, 73, 100
14, 370567, Note_off_c, 12, 71, 64
14, 370793, Note_off_c, 12, 73, 64
14, 370800, Note_on_c, 12, 74, 100
14, 371040, Note_on_c, 12, 76, 100
14, 371047, Note_off_c, 12, 74, 64
14, 371390, Note_off_c, 12, 76, 64
14, 371400, Note_on_c, 12, 73, 100
14, 371520, Note_off_c, 12, 73, 64
14, 371520, Note_on_c, 12, 69, 100
14, 371753, Note_off_c, 12, 69, 64
14, 371760, Note_on_c, 12, 78, 100
14, 372837, Note_off_c, 12, 78, 64
14, 372960, Note_on_c, 12, 79, 100
14, 373200, Note_off_c, 12, 79, 64
14, 373200, Note_on_c, 12, 78, 100
14, 373440, Note_off_c, 12, 78, 64
14, 373440, Note_on_c, 12, 76, 100
14, 373680, Note_off_c, 12, 76, 64
14, 373680, Note_on_c, 12, 74, 100
14, 373920, Note_off_c, 12, 74, 64
14, 373920, Note_on_c, 12, 74, 100
14, 374160, Note_off_c, 12, 74, 64
14, 374160, Note_on_c, 12, 76, 100
14, 374400, Note_off_c, 12, 76, 64
14, 374400, Note_on_c, 12, 78, 100
14, 374640, Note_off_c, 12, 78, 64
14, 374640, Note_on_c, 12, 76, 100
14, 374760, Note_off_c, 12, 76, 64
14, 374760, Note_on_c, 12, 74, 100
14, 374880, Note_off_c, 12, 74, 64
14, 374880, Note_on_c, 12, 72, 100
14, 376320, Note_off_c, 12, 72, 64
14, 376320, End_track
15, 0, Start_track
15, 0, Title_t, "ChurchBell"
15, 0, MIDI_port, 0
15, 0, Channel_prefix, 13
15, 0, Control_c, 13, 7, 99
15, 0, Control_c, 13, 10, 64
15, 0, Program_c, 13, 14
15, 468480, Note_on_c, 13, 72, 100
15, 473760, Note_off_c, 13, 72, 64
15, 473760, End_track
16, 0, Start_track
16, 0, Title_t, "Universal Mind"
16, 0, MIDI_port, 0
16, 0, End_track
17, 0, Start_track
17, 0, Title_t, "Liquid Tension Experiment"
17, 0, MIDI_port, 0
17, 0, End_track
18, 0, Start_track
18, 0, Title_t, "Midi by : Simon Novak"
18, 0, MIDI_port, 0
18, 0, End_track
19, 0, Start_track
19, 0, Title_t, "e: mail "
19, 0, MIDI_port, 0
19, 0, End_track
20, 0, Start_track
20, 0, Title_t, "ytse.jam@dreamtheater.zzn.com"
20, 0, MIDI_port, 0
20, 0, End_track
0, 0, End_of_file
