0, 0, Header, 1, 11, 192
1, 0, Start_track
1, 0, Time_signature, 4, 2, 24, 8
1, 0, Key_signature, 0, "major"
1, 0, Tempo, 441176
1, 0, End_track
2, 0, Start_track
2, 0, MIDI_port, 0
2, 0, Title_t, "UP TIGHT            "
2, 192, Control_c, 1, 7, 120
2, 192, Control_c, 1, 10, 63
2, 192, Program_c, 1, 65
2, 768, Note_on_c, 1, 37, 115
2, 868, Note_on_c, 1, 37, 0
2, 960, Note_on_c, 1, 32, 115
2, 1024, Note_on_c, 1, 32, 0
2, 1056, Note_on_c, 1, 32, 115
2, 1152, Note_on_c, 1, 32, 0
2, 1152, Note_on_c, 1, 35, 115
2, 1244, Note_on_c, 1, 35, 0
2, 1248, Note_on_c, 1, 37, 115
2, 1328, Note_on_c, 1, 37, 0
2, 1344, Note_on_c, 1, 35, 115
2, 1440, Note_on_c, 1, 35, 0
2, 1440, Note_on_c, 1, 37, 115
2, 1561, Note_on_c, 1, 37, 0
2, 1728, Note_on_c, 1, 32, 115
2, 1781, Note_on_c, 1, 32, 0
2, 1824, Note_on_c, 1, 32, 115
2, 1914, Note_on_c, 1, 32, 0
2, 1920, Note_on_c, 1, 35, 115
2, 2012, Note_on_c, 1, 35, 0
2, 2016, Note_on_c, 1, 37, 115
2, 2102, Note_on_c, 1, 37, 0
2, 2112, Note_on_c, 1, 35, 115
2, 2208, Note_on_c, 1, 35, 0
2, 2208, Note_on_c, 1, 37, 118
2, 2326, Note_on_c, 1, 37, 0
2, 2496, Note_on_c, 1, 32, 115
2, 2546, Note_on_c, 1, 32, 0
2, 2592, Note_on_c, 1, 32, 115
2, 2686, Note_on_c, 1, 32, 0
2, 2688, Note_on_c, 1, 35, 115
2, 2782, Note_on_c, 1, 35, 0
2, 2784, Note_on_c, 1, 37, 115
2, 2866, Note_on_c, 1, 37, 0
2, 2880, Note_on_c, 1, 35, 115
2, 2975, Note_on_c, 1, 35, 0
2, 2976, Note_on_c, 1, 37, 115
2, 3089, Note_on_c, 1, 37, 0
2, 3264, Note_on_c, 1, 32, 115
2, 3306, Note_on_c, 1, 32, 0
2, 3360, Note_on_c, 1, 32, 115
2, 3450, Note_on_c, 1, 32, 0
2, 3456, Note_on_c, 1, 35, 115
2, 3552, Note_on_c, 1, 35, 0
2, 3552, Note_on_c, 1, 37, 115
2, 3640, Note_on_c, 1, 37, 0
2, 3648, Note_on_c, 1, 35, 115
2, 3744, Note_on_c, 1, 37, 118
2, 3752, Note_on_c, 1, 35, 0
2, 3837, Note_on_c, 1, 37, 0
2, 3840, Note_on_c, 1, 37, 127
2, 3936, Note_on_c, 1, 37, 0
2, 3936, Note_on_c, 1, 25, 127
2, 4032, Note_on_c, 1, 25, 0
2, 4032, Note_on_c, 1, 27, 118
2, 4128, Note_on_c, 1, 27, 0
2, 4128, Note_on_c, 1, 28, 118
2, 4224, Note_on_c, 1, 28, 0
2, 4224, Note_on_c, 1, 29, 127
2, 4512, Note_on_c, 1, 29, 0
2, 4512, Note_on_c, 1, 30, 127
2, 4608, Note_on_c, 1, 32, 115
2, 4609, Note_on_c, 1, 30, 0
2, 4656, Note_on_c, 1, 32, 0
2, 4704, Note_on_c, 1, 32, 115
2, 4752, Note_on_c, 1, 32, 0
2, 4800, Note_on_c, 1, 34, 115
2, 4896, Note_on_c, 1, 34, 0
2, 4896, Note_on_c, 1, 32, 115
2, 4992, Note_on_c, 1, 32, 0
2, 4992, Note_on_c, 1, 35, 115
2, 5088, Note_on_c, 1, 35, 0
2, 5088, Note_on_c, 1, 32, 115
2, 5184, Note_on_c, 1, 32, 0
2, 5184, Note_on_c, 1, 36, 118
2, 5232, Note_on_c, 1, 36, 0
2, 5280, Note_on_c, 1, 36, 115
2, 5376, Note_on_c, 1, 36, 0
2, 5376, Note_on_c, 1, 37, 127
2, 5472, Note_on_c, 1, 37, 0
2, 5472, Note_on_c, 1, 25, 127
2, 5568, Note_on_c, 1, 25, 0
2, 5568, Note_on_c, 1, 27, 118
2, 5664, Note_on_c, 1, 27, 0
2, 5664, Note_on_c, 1, 28, 118
2, 5760, Note_on_c, 1, 28, 0
2, 5760, Note_on_c, 1, 29, 127
2, 6048, Note_on_c, 1, 29, 0
2, 6048, Note_on_c, 1, 30, 127
2, 6144, Note_on_c, 1, 30, 0
2, 6144, Note_on_c, 1, 32, 115
2, 6192, Note_on_c, 1, 32, 0
2, 6240, Note_on_c, 1, 32, 115
2, 6288, Note_on_c, 1, 32, 0
2, 6336, Note_on_c, 1, 34, 115
2, 6432, Note_on_c, 1, 34, 0
2, 6432, Note_on_c, 1, 32, 115
2, 6528, Note_on_c, 1, 32, 0
2, 6528, Note_on_c, 1, 35, 115
2, 6624, Note_on_c, 1, 35, 0
2, 6624, Note_on_c, 1, 32, 115
2, 6720, Note_on_c, 1, 32, 0
2, 6720, Note_on_c, 1, 36, 118
2, 6768, Note_on_c, 1, 36, 0
2, 6816, Note_on_c, 1, 36, 115
2, 6912, Note_on_c, 1, 36, 0
2, 6912, Note_on_c, 1, 37, 127
2, 7008, Note_on_c, 1, 37, 0
2, 7008, Note_on_c, 1, 25, 127
2, 7104, Note_on_c, 1, 25, 0
2, 7104, Note_on_c, 1, 27, 118
2, 7200, Note_on_c, 1, 27, 0
2, 7200, Note_on_c, 1, 28, 118
2, 7296, Note_on_c, 1, 28, 0
2, 7296, Note_on_c, 1, 29, 127
2, 7584, Note_on_c, 1, 29, 0
2, 7584, Note_on_c, 1, 30, 127
2, 7680, Note_on_c, 1, 30, 0
2, 7680, Note_on_c, 1, 32, 115
2, 7728, Note_on_c, 1, 32, 0
2, 7776, Note_on_c, 1, 32, 115
2, 7824, Note_on_c, 1, 32, 0
2, 7872, Note_on_c, 1, 34, 115
2, 7968, Note_on_c, 1, 34, 0
2, 7968, Note_on_c, 1, 32, 115
2, 8064, Note_on_c, 1, 32, 0
2, 8064, Note_on_c, 1, 35, 115
2, 8160, Note_on_c, 1, 35, 0
2, 8160, Note_on_c, 1, 32, 115
2, 8256, Note_on_c, 1, 32, 0
2, 8256, Note_on_c, 1, 36, 118
2, 8304, Note_on_c, 1, 36, 0
2, 8352, Note_on_c, 1, 36, 115
2, 8448, Note_on_c, 1, 36, 0
2, 8448, Note_on_c, 1, 37, 127
2, 8544, Note_on_c, 1, 37, 0
2, 8544, Note_on_c, 1, 25, 127
2, 8640, Note_on_c, 1, 25, 0
2, 8640, Note_on_c, 1, 27, 118
2, 8736, Note_on_c, 1, 27, 0
2, 8736, Note_on_c, 1, 28, 118
2, 8832, Note_on_c, 1, 28, 0
2, 8832, Note_on_c, 1, 29, 127
2, 9120, Note_on_c, 1, 29, 0
2, 9120, Note_on_c, 1, 30, 127
2, 9216, Note_on_c, 1, 30, 0
2, 9216, Note_on_c, 1, 32, 115
2, 9264, Note_on_c, 1, 32, 0
2, 9312, Note_on_c, 1, 32, 115
2, 9360, Note_on_c, 1, 32, 0
2, 9408, Note_on_c, 1, 34, 115
2, 9504, Note_on_c, 1, 34, 0
2, 9504, Note_on_c, 1, 32, 115
2, 9600, Note_on_c, 1, 32, 0
2, 9600, Note_on_c, 1, 35, 115
2, 9696, Note_on_c, 1, 35, 0
2, 9696, Note_on_c, 1, 32, 115
2, 9792, Note_on_c, 1, 32, 0
2, 9792, Note_on_c, 1, 36, 118
2, 9840, Note_on_c, 1, 36, 0
2, 9888, Note_on_c, 1, 36, 115
2, 9984, Note_on_c, 1, 36, 0
2, 9984, Note_on_c, 1, 37, 127
2, 10080, Note_on_c, 1, 37, 0
2, 10080, Note_on_c, 1, 25, 127
2, 10176, Note_on_c, 1, 25, 0
2, 10176, Note_on_c, 1, 27, 118
2, 10272, Note_on_c, 1, 27, 0
2, 10272, Note_on_c, 1, 28, 118
2, 10368, Note_on_c, 1, 28, 0
2, 10368, Note_on_c, 1, 29, 127
2, 10656, Note_on_c, 1, 29, 0
2, 10656, Note_on_c, 1, 30, 127
2, 10752, Note_on_c, 1, 30, 0
2, 10752, Note_on_c, 1, 32, 115
2, 10800, Note_on_c, 1, 32, 0
2, 10848, Note_on_c, 1, 32, 115
2, 10896, Note_on_c, 1, 32, 0
2, 10944, Note_on_c, 1, 34, 115
2, 11040, Note_on_c, 1, 34, 0
2, 11040, Note_on_c, 1, 32, 115
2, 11136, Note_on_c, 1, 32, 0
2, 11136, Note_on_c, 1, 35, 115
2, 11232, Note_on_c, 1, 35, 0
2, 11232, Note_on_c, 1, 32, 115
2, 11328, Note_on_c, 1, 32, 0
2, 11328, Note_on_c, 1, 36, 118
2, 11376, Note_on_c, 1, 36, 0
2, 11424, Note_on_c, 1, 36, 115
2, 11520, Note_on_c, 1, 36, 0
2, 11520, Note_on_c, 1, 37, 127
2, 11616, Note_on_c, 1, 37, 0
2, 11616, Note_on_c, 1, 25, 127
2, 11712, Note_on_c, 1, 25, 0
2, 11712, Note_on_c, 1, 27, 118
2, 11808, Note_on_c, 1, 27, 0
2, 11808, Note_on_c, 1, 28, 118
2, 11904, Note_on_c, 1, 28, 0
2, 11904, Note_on_c, 1, 29, 127
2, 12192, Note_on_c, 1, 29, 0
2, 12192, Note_on_c, 1, 30, 127
2, 12288, Note_on_c, 1, 30, 0
2, 12288, Note_on_c, 1, 32, 115
2, 12336, Note_on_c, 1, 32, 0
2, 12384, Note_on_c, 1, 32, 115
2, 12432, Note_on_c, 1, 32, 0
2, 12480, Note_on_c, 1, 34, 115
2, 12576, Note_on_c, 1, 34, 0
2, 12576, Note_on_c, 1, 32, 115
2, 12672, Note_on_c, 1, 32, 0
2, 12672, Note_on_c, 1, 35, 115
2, 12768, Note_on_c, 1, 35, 0
2, 12768, Note_on_c, 1, 32, 115
2, 12864, Note_on_c, 1, 32, 0
2, 12864, Note_on_c, 1, 36, 118
2, 12912, Note_on_c, 1, 36, 0
2, 12960, Note_on_c, 1, 36, 115
2, 13056, Note_on_c, 1, 36, 0
2, 13056, Note_on_c, 1, 37, 127
2, 13152, Note_on_c, 1, 37, 0
2, 13152, Note_on_c, 1, 25, 127
2, 13248, Note_on_c, 1, 25, 0
2, 13248, Note_on_c, 1, 27, 118
2, 13344, Note_on_c, 1, 27, 0
2, 13344, Note_on_c, 1, 28, 118
2, 13440, Note_on_c, 1, 28, 0
2, 13440, Note_on_c, 1, 29, 127
2, 13728, Note_on_c, 1, 29, 0
2, 13728, Note_on_c, 1, 30, 127
2, 13824, Note_on_c, 1, 30, 0
2, 13824, Note_on_c, 1, 32, 115
2, 13872, Note_on_c, 1, 32, 0
2, 13920, Note_on_c, 1, 32, 115
2, 13968, Note_on_c, 1, 32, 0
2, 14016, Note_on_c, 1, 34, 115
2, 14112, Note_on_c, 1, 34, 0
2, 14112, Note_on_c, 1, 32, 115
2, 14208, Note_on_c, 1, 32, 0
2, 14208, Note_on_c, 1, 35, 115
2, 14304, Note_on_c, 1, 35, 0
2, 14304, Note_on_c, 1, 32, 115
2, 14400, Note_on_c, 1, 32, 0
2, 14400, Note_on_c, 1, 36, 118
2, 14448, Note_on_c, 1, 36, 0
2, 14496, Note_on_c, 1, 36, 115
2, 14592, Note_on_c, 1, 36, 0
2, 14592, Note_on_c, 1, 37, 127
2, 14688, Note_on_c, 1, 37, 0
2, 14688, Note_on_c, 1, 25, 127
2, 14784, Note_on_c, 1, 25, 0
2, 14784, Note_on_c, 1, 27, 118
2, 14880, Note_on_c, 1, 27, 0
2, 14880, Note_on_c, 1, 28, 118
2, 14976, Note_on_c, 1, 28, 0
2, 14976, Note_on_c, 1, 29, 127
2, 15264, Note_on_c, 1, 29, 0
2, 15264, Note_on_c, 1, 30, 127
2, 15360, Note_on_c, 1, 32, 115
2, 15361, Note_on_c, 1, 30, 0
2, 15408, Note_on_c, 1, 32, 0
2, 15456, Note_on_c, 1, 32, 115
2, 15504, Note_on_c, 1, 32, 0
2, 15552, Note_on_c, 1, 34, 115
2, 15648, Note_on_c, 1, 34, 0
2, 15648, Note_on_c, 1, 32, 115
2, 15744, Note_on_c, 1, 32, 0
2, 15744, Note_on_c, 1, 35, 115
2, 15840, Note_on_c, 1, 35, 0
2, 15840, Note_on_c, 1, 32, 115
2, 15936, Note_on_c, 1, 32, 0
2, 15936, Note_on_c, 1, 36, 118
2, 15984, Note_on_c, 1, 36, 0
2, 16032, Note_on_c, 1, 36, 115
2, 16128, Note_on_c, 1, 36, 0
2, 16128, Note_on_c, 1, 37, 127
2, 16224, Note_on_c, 1, 37, 0
2, 16224, Note_on_c, 1, 25, 127
2, 16320, Note_on_c, 1, 25, 0
2, 16320, Note_on_c, 1, 27, 118
2, 16416, Note_on_c, 1, 27, 0
2, 16416, Note_on_c, 1, 28, 118
2, 16512, Note_on_c, 1, 28, 0
2, 16512, Note_on_c, 1, 29, 127
2, 16800, Note_on_c, 1, 29, 0
2, 16800, Note_on_c, 1, 30, 127
2, 16896, Note_on_c, 1, 30, 0
2, 16896, Note_on_c, 1, 32, 115
2, 16944, Note_on_c, 1, 32, 0
2, 16992, Note_on_c, 1, 32, 115
2, 17040, Note_on_c, 1, 32, 0
2, 17088, Note_on_c, 1, 34, 115
2, 17184, Note_on_c, 1, 34, 0
2, 17184, Note_on_c, 1, 32, 115
2, 17280, Note_on_c, 1, 32, 0
2, 17280, Note_on_c, 1, 35, 115
2, 17376, Note_on_c, 1, 35, 0
2, 17376, Note_on_c, 1, 32, 115
2, 17472, Note_on_c, 1, 32, 0
2, 17472, Note_on_c, 1, 36, 118
2, 17520, Note_on_c, 1, 36, 0
2, 17568, Note_on_c, 1, 36, 115
2, 17664, Note_on_c, 1, 36, 0
2, 17664, Note_on_c, 1, 37, 127
2, 17760, Note_on_c, 1, 37, 0
2, 17760, Note_on_c, 1, 25, 127
2, 17856, Note_on_c, 1, 25, 0
2, 17856, Note_on_c, 1, 27, 118
2, 17952, Note_on_c, 1, 27, 0
2, 17952, Note_on_c, 1, 28, 118
2, 18048, Note_on_c, 1, 28, 0
2, 18048, Note_on_c, 1, 29, 127
2, 18336, Note_on_c, 1, 29, 0
2, 18336, Note_on_c, 1, 30, 127
2, 18432, Note_on_c, 1, 32, 115
2, 18433, Note_on_c, 1, 30, 0
2, 18480, Note_on_c, 1, 32, 0
2, 18528, Note_on_c, 1, 32, 115
2, 18576, Note_on_c, 1, 32, 0
2, 18624, Note_on_c, 1, 34, 115
2, 18720, Note_on_c, 1, 34, 0
2, 18720, Note_on_c, 1, 32, 115
2, 18816, Note_on_c, 1, 32, 0
2, 18816, Note_on_c, 1, 35, 115
2, 18912, Note_on_c, 1, 35, 0
2, 18912, Note_on_c, 1, 32, 115
2, 19008, Note_on_c, 1, 32, 0
2, 19008, Note_on_c, 1, 36, 118
2, 19056, Note_on_c, 1, 36, 0
2, 19104, Note_on_c, 1, 36, 115
2, 19200, Note_on_c, 1, 36, 0
2, 19200, Note_on_c, 1, 37, 127
2, 19296, Note_on_c, 1, 37, 0
2, 19296, Note_on_c, 1, 25, 127
2, 19392, Note_on_c, 1, 25, 0
2, 19392, Note_on_c, 1, 27, 118
2, 19488, Note_on_c, 1, 27, 0
2, 19488, Note_on_c, 1, 28, 118
2, 19584, Note_on_c, 1, 28, 0
2, 19584, Note_on_c, 1, 29, 127
2, 19872, Note_on_c, 1, 29, 0
2, 19872, Note_on_c, 1, 30, 127
2, 19968, Note_on_c, 1, 32, 115
2, 19969, Note_on_c, 1, 30, 0
2, 20016, Note_on_c, 1, 32, 0
2, 20064, Note_on_c, 1, 32, 115
2, 20112, Note_on_c, 1, 32, 0
2, 20160, Note_on_c, 1, 34, 115
2, 20256, Note_on_c, 1, 34, 0
2, 20256, Note_on_c, 1, 32, 115
2, 20352, Note_on_c, 1, 32, 0
2, 20352, Note_on_c, 1, 35, 115
2, 20448, Note_on_c, 1, 35, 0
2, 20448, Note_on_c, 1, 32, 115
2, 20544, Note_on_c, 1, 32, 0
2, 20544, Note_on_c, 1, 36, 118
2, 20592, Note_on_c, 1, 36, 0
2, 20640, Note_on_c, 1, 36, 115
2, 20736, Note_on_c, 1, 36, 0
2, 20736, Note_on_c, 1, 37, 127
2, 20832, Note_on_c, 1, 37, 0
2, 20832, Note_on_c, 1, 25, 127
2, 20928, Note_on_c, 1, 25, 0
2, 20928, Note_on_c, 1, 27, 118
2, 21024, Note_on_c, 1, 27, 0
2, 21024, Note_on_c, 1, 28, 118
2, 21120, Note_on_c, 1, 28, 0
2, 21120, Note_on_c, 1, 29, 127
2, 21408, Note_on_c, 1, 29, 0
2, 21408, Note_on_c, 1, 30, 127
2, 21504, Note_on_c, 1, 30, 0
2, 21504, Note_on_c, 1, 32, 115
2, 21552, Note_on_c, 1, 32, 0
2, 21600, Note_on_c, 1, 32, 115
2, 21648, Note_on_c, 1, 32, 0
2, 21696, Note_on_c, 1, 34, 115
2, 21792, Note_on_c, 1, 34, 0
2, 21792, Note_on_c, 1, 32, 115
2, 21888, Note_on_c, 1, 32, 0
2, 21888, Note_on_c, 1, 35, 115
2, 21984, Note_on_c, 1, 35, 0
2, 21984, Note_on_c, 1, 32, 115
2, 22080, Note_on_c, 1, 32, 0
2, 22080, Note_on_c, 1, 36, 118
2, 22128, Note_on_c, 1, 36, 0
2, 22176, Note_on_c, 1, 36, 115
2, 22272, Note_on_c, 1, 36, 0
2, 22272, Note_on_c, 1, 37, 127
2, 22368, Note_on_c, 1, 37, 0
2, 22368, Note_on_c, 1, 25, 127
2, 22464, Note_on_c, 1, 25, 0
2, 22464, Note_on_c, 1, 27, 118
2, 22560, Note_on_c, 1, 27, 0
2, 22560, Note_on_c, 1, 28, 118
2, 22656, Note_on_c, 1, 28, 0
2, 22656, Note_on_c, 1, 29, 127
2, 22944, Note_on_c, 1, 29, 0
2, 22944, Note_on_c, 1, 30, 127
2, 23040, Note_on_c, 1, 32, 115
2, 23041, Note_on_c, 1, 30, 0
2, 23088, Note_on_c, 1, 32, 0
2, 23136, Note_on_c, 1, 32, 115
2, 23184, Note_on_c, 1, 32, 0
2, 23232, Note_on_c, 1, 34, 115
2, 23328, Note_on_c, 1, 34, 0
2, 23328, Note_on_c, 1, 32, 115
2, 23424, Note_on_c, 1, 32, 0
2, 23424, Note_on_c, 1, 35, 115
2, 23520, Note_on_c, 1, 35, 0
2, 23520, Note_on_c, 1, 32, 115
2, 23616, Note_on_c, 1, 32, 0
2, 23616, Note_on_c, 1, 36, 118
2, 23664, Note_on_c, 1, 36, 0
2, 23712, Note_on_c, 1, 36, 115
2, 23808, Note_on_c, 1, 36, 0
2, 23808, Note_on_c, 1, 37, 127
2, 23905, Note_on_c, 1, 37, 0
2, 23905, Note_on_c, 1, 25, 127
2, 24000, Note_on_c, 1, 25, 0
2, 24000, Note_on_c, 1, 27, 118
2, 24096, Note_on_c, 1, 27, 0
2, 24096, Note_on_c, 1, 28, 118
2, 24192, Note_on_c, 1, 28, 0
2, 24192, Note_on_c, 1, 29, 127
2, 24480, Note_on_c, 1, 29, 0
2, 24480, Note_on_c, 1, 30, 127
2, 24576, Note_on_c, 1, 32, 115
2, 24577, Note_on_c, 1, 30, 0
2, 24624, Note_on_c, 1, 32, 0
2, 24672, Note_on_c, 1, 32, 115
2, 24720, Note_on_c, 1, 32, 0
2, 24768, Note_on_c, 1, 34, 115
2, 24864, Note_on_c, 1, 34, 0
2, 24864, Note_on_c, 1, 32, 115
2, 24960, Note_on_c, 1, 32, 0
2, 24960, Note_on_c, 1, 35, 115
2, 25056, Note_on_c, 1, 35, 0
2, 25056, Note_on_c, 1, 32, 115
2, 25152, Note_on_c, 1, 32, 0
2, 25152, Note_on_c, 1, 36, 118
2, 25200, Note_on_c, 1, 36, 0
2, 25248, Note_on_c, 1, 36, 115
2, 25344, Note_on_c, 1, 36, 0
2, 25344, Note_on_c, 1, 37, 127
2, 25440, Note_on_c, 1, 37, 0
2, 25440, Note_on_c, 1, 25, 127
2, 25536, Note_on_c, 1, 25, 0
2, 25536, Note_on_c, 1, 27, 118
2, 25632, Note_on_c, 1, 27, 0
2, 25632, Note_on_c, 1, 28, 118
2, 25728, Note_on_c, 1, 28, 0
2, 25728, Note_on_c, 1, 29, 127
2, 26016, Note_on_c, 1, 29, 0
2, 26016, Note_on_c, 1, 30, 127
2, 26112, Note_on_c, 1, 30, 0
2, 26112, Note_on_c, 1, 32, 115
2, 26160, Note_on_c, 1, 32, 0
2, 26208, Note_on_c, 1, 32, 115
2, 26256, Note_on_c, 1, 32, 0
2, 26304, Note_on_c, 1, 34, 115
2, 26400, Note_on_c, 1, 34, 0
2, 26400, Note_on_c, 1, 32, 115
2, 26496, Note_on_c, 1, 32, 0
2, 26496, Note_on_c, 1, 35, 115
2, 26592, Note_on_c, 1, 35, 0
2, 26592, Note_on_c, 1, 32, 115
2, 26688, Note_on_c, 1, 32, 0
2, 26688, Note_on_c, 1, 36, 118
2, 26736, Note_on_c, 1, 36, 0
2, 26784, Note_on_c, 1, 36, 115
2, 26880, Note_on_c, 1, 36, 0
2, 26880, Note_on_c, 1, 37, 127
2, 26976, Note_on_c, 1, 37, 0
2, 26976, Note_on_c, 1, 25, 127
2, 27072, Note_on_c, 1, 25, 0
2, 27072, Note_on_c, 1, 27, 118
2, 27168, Note_on_c, 1, 27, 0
2, 27168, Note_on_c, 1, 28, 118
2, 27264, Note_on_c, 1, 28, 0
2, 27264, Note_on_c, 1, 29, 127
2, 27552, Note_on_c, 1, 29, 0
2, 27552, Note_on_c, 1, 30, 127
2, 27648, Note_on_c, 1, 32, 115
2, 27649, Note_on_c, 1, 30, 0
2, 27696, Note_on_c, 1, 32, 0
2, 27744, Note_on_c, 1, 32, 115
2, 27792, Note_on_c, 1, 32, 0
2, 27840, Note_on_c, 1, 34, 115
2, 27936, Note_on_c, 1, 34, 0
2, 27936, Note_on_c, 1, 32, 115
2, 28032, Note_on_c, 1, 32, 0
2, 28032, Note_on_c, 1, 35, 115
2, 28128, Note_on_c, 1, 35, 0
2, 28128, Note_on_c, 1, 32, 115
2, 28224, Note_on_c, 1, 32, 0
2, 28224, Note_on_c, 1, 36, 118
2, 28272, Note_on_c, 1, 36, 0
2, 28320, Note_on_c, 1, 36, 115
2, 28416, Note_on_c, 1, 36, 0
2, 28416, Note_on_c, 1, 37, 127
2, 28512, Note_on_c, 1, 37, 0
2, 28512, Note_on_c, 1, 25, 127
2, 28608, Note_on_c, 1, 25, 0
2, 28608, Note_on_c, 1, 27, 118
2, 28704, Note_on_c, 1, 27, 0
2, 28704, Note_on_c, 1, 28, 118
2, 28800, Note_on_c, 1, 28, 0
2, 28800, Note_on_c, 1, 29, 127
2, 29088, Note_on_c, 1, 29, 0
2, 29088, Note_on_c, 1, 30, 127
2, 29184, Note_on_c, 1, 32, 115
2, 29185, Note_on_c, 1, 30, 0
2, 29232, Note_on_c, 1, 32, 0
2, 29280, Note_on_c, 1, 32, 115
2, 29328, Note_on_c, 1, 32, 0
2, 29376, Note_on_c, 1, 34, 115
2, 29472, Note_on_c, 1, 34, 0
2, 29472, Note_on_c, 1, 32, 115
2, 29568, Note_on_c, 1, 32, 0
2, 29568, Note_on_c, 1, 35, 115
2, 29664, Note_on_c, 1, 35, 0
2, 29664, Note_on_c, 1, 32, 115
2, 29760, Note_on_c, 1, 32, 0
2, 29760, Note_on_c, 1, 36, 118
2, 29808, Note_on_c, 1, 36, 0
2, 29856, Note_on_c, 1, 36, 115
2, 29952, Note_on_c, 1, 36, 0
2, 29952, Note_on_c, 1, 37, 127
2, 30048, Note_on_c, 1, 37, 0
2, 30048, Note_on_c, 1, 25, 127
2, 30144, Note_on_c, 1, 25, 0
2, 30144, Note_on_c, 1, 27, 118
2, 30240, Note_on_c, 1, 27, 0
2, 30240, Note_on_c, 1, 28, 118
2, 30336, Note_on_c, 1, 28, 0
2, 30336, Note_on_c, 1, 29, 127
2, 30624, Note_on_c, 1, 29, 0
2, 30624, Note_on_c, 1, 30, 127
2, 30720, Note_on_c, 1, 30, 0
2, 30720, Note_on_c, 1, 32, 115
2, 30768, Note_on_c, 1, 32, 0
2, 30816, Note_on_c, 1, 32, 115
2, 30864, Note_on_c, 1, 32, 0
2, 30912, Note_on_c, 1, 34, 115
2, 31008, Note_on_c, 1, 34, 0
2, 31008, Note_on_c, 1, 32, 115
2, 31104, Note_on_c, 1, 32, 0
2, 31104, Note_on_c, 1, 35, 115
2, 31200, Note_on_c, 1, 35, 0
2, 31200, Note_on_c, 1, 32, 115
2, 31296, Note_on_c, 1, 32, 0
2, 31296, Note_on_c, 1, 36, 118
2, 31344, Note_on_c, 1, 36, 0
2, 31392, Note_on_c, 1, 36, 115
2, 31488, Note_on_c, 1, 36, 0
2, 31488, Note_on_c, 1, 37, 127
2, 31584, Note_on_c, 1, 37, 0
2, 31584, Note_on_c, 1, 25, 127
2, 31680, Note_on_c, 1, 25, 0
2, 31680, Note_on_c, 1, 27, 118
2, 31776, Note_on_c, 1, 27, 0
2, 31776, Note_on_c, 1, 28, 118
2, 31872, Note_on_c, 1, 28, 0
2, 31872, Note_on_c, 1, 29, 127
2, 32160, Note_on_c, 1, 29, 0
2, 32160, Note_on_c, 1, 30, 127
2, 32256, Note_on_c, 1, 32, 115
2, 32257, Note_on_c, 1, 30, 0
2, 32304, Note_on_c, 1, 32, 0
2, 32352, Note_on_c, 1, 32, 115
2, 32400, Note_on_c, 1, 32, 0
2, 32448, Note_on_c, 1, 34, 115
2, 32544, Note_on_c, 1, 34, 0
2, 32544, Note_on_c, 1, 32, 115
2, 32640, Note_on_c, 1, 32, 0
2, 32640, Note_on_c, 1, 35, 115
2, 32736, Note_on_c, 1, 35, 0
2, 32736, Note_on_c, 1, 32, 115
2, 32832, Note_on_c, 1, 32, 0
2, 32832, Note_on_c, 1, 36, 118
2, 32880, Note_on_c, 1, 36, 0
2, 32928, Note_on_c, 1, 36, 115
2, 33024, Note_on_c, 1, 36, 0
2, 33024, Note_on_c, 1, 37, 127
2, 33120, Note_on_c, 1, 37, 0
2, 33120, Note_on_c, 1, 25, 127
2, 33216, Note_on_c, 1, 25, 0
2, 33216, Note_on_c, 1, 27, 118
2, 33312, Note_on_c, 1, 27, 0
2, 33312, Note_on_c, 1, 28, 118
2, 33408, Note_on_c, 1, 28, 0
2, 33408, Note_on_c, 1, 29, 127
2, 33696, Note_on_c, 1, 29, 0
2, 33696, Note_on_c, 1, 30, 127
2, 33792, Note_on_c, 1, 30, 0
2, 33792, Note_on_c, 1, 32, 115
2, 33840, Note_on_c, 1, 32, 0
2, 33888, Note_on_c, 1, 32, 115
2, 33936, Note_on_c, 1, 32, 0
2, 33984, Note_on_c, 1, 34, 115
2, 34080, Note_on_c, 1, 34, 0
2, 34080, Note_on_c, 1, 32, 115
2, 34176, Note_on_c, 1, 32, 0
2, 34176, Note_on_c, 1, 35, 115
2, 34272, Note_on_c, 1, 35, 0
2, 34272, Note_on_c, 1, 32, 115
2, 34368, Note_on_c, 1, 32, 0
2, 34368, Note_on_c, 1, 36, 118
2, 34416, Note_on_c, 1, 36, 0
2, 34464, Note_on_c, 1, 36, 115
2, 34560, Note_on_c, 1, 36, 0
2, 34560, Note_on_c, 1, 37, 127
2, 34656, Note_on_c, 1, 37, 0
2, 34656, Note_on_c, 1, 25, 127
2, 34752, Note_on_c, 1, 25, 0
2, 34752, Note_on_c, 1, 27, 118
2, 34848, Note_on_c, 1, 27, 0
2, 34848, Note_on_c, 1, 28, 118
2, 34944, Note_on_c, 1, 28, 0
2, 34944, Note_on_c, 1, 29, 127
2, 35232, Note_on_c, 1, 29, 0
2, 35232, Note_on_c, 1, 30, 127
2, 35328, Note_on_c, 1, 30, 0
2, 35328, Note_on_c, 1, 32, 115
2, 35376, Note_on_c, 1, 32, 0
2, 35424, Note_on_c, 1, 32, 115
2, 35472, Note_on_c, 1, 32, 0
2, 35520, Note_on_c, 1, 34, 115
2, 35616, Note_on_c, 1, 34, 0
2, 35616, Note_on_c, 1, 32, 115
2, 35712, Note_on_c, 1, 32, 0
2, 35712, Note_on_c, 1, 35, 115
2, 35808, Note_on_c, 1, 35, 0
2, 35808, Note_on_c, 1, 32, 115
2, 35904, Note_on_c, 1, 32, 0
2, 35904, Note_on_c, 1, 36, 118
2, 35952, Note_on_c, 1, 36, 0
2, 36000, Note_on_c, 1, 36, 115
2, 36096, Note_on_c, 1, 36, 0
2, 36096, Note_on_c, 1, 37, 127
2, 36192, Note_on_c, 1, 37, 0
2, 36192, Note_on_c, 1, 25, 127
2, 36288, Note_on_c, 1, 25, 0
2, 36288, Note_on_c, 1, 27, 118
2, 36384, Note_on_c, 1, 27, 0
2, 36384, Note_on_c, 1, 28, 118
2, 36480, Note_on_c, 1, 28, 0
2, 36480, Note_on_c, 1, 29, 127
2, 36768, Note_on_c, 1, 29, 0
2, 36768, Note_on_c, 1, 30, 127
2, 36864, Note_on_c, 1, 30, 0
2, 36864, Note_on_c, 1, 32, 115
2, 36912, Note_on_c, 1, 32, 0
2, 36960, Note_on_c, 1, 32, 115
2, 37008, Note_on_c, 1, 32, 0
2, 37056, Note_on_c, 1, 34, 115
2, 37152, Note_on_c, 1, 34, 0
2, 37152, Note_on_c, 1, 32, 115
2, 37248, Note_on_c, 1, 32, 0
2, 37248, Note_on_c, 1, 35, 115
2, 37344, Note_on_c, 1, 35, 0
2, 37344, Note_on_c, 1, 32, 115
2, 37440, Note_on_c, 1, 32, 0
2, 37440, Note_on_c, 1, 36, 118
2, 37488, Note_on_c, 1, 36, 0
2, 37536, Note_on_c, 1, 36, 115
2, 37632, Note_on_c, 1, 36, 0
2, 37632, Note_on_c, 1, 37, 127
2, 37728, Note_on_c, 1, 37, 0
2, 37728, Note_on_c, 1, 25, 127
2, 37824, Note_on_c, 1, 25, 0
2, 37824, Note_on_c, 1, 27, 118
2, 37920, Note_on_c, 1, 27, 0
2, 37920, Note_on_c, 1, 28, 118
2, 38016, Note_on_c, 1, 28, 0
2, 38016, Note_on_c, 1, 29, 127
2, 38304, Note_on_c, 1, 29, 0
2, 38304, Note_on_c, 1, 30, 127
2, 38400, Note_on_c, 1, 30, 0
2, 38400, Note_on_c, 1, 32, 115
2, 38448, Note_on_c, 1, 32, 0
2, 38496, Note_on_c, 1, 32, 115
2, 38544, Note_on_c, 1, 32, 0
2, 38592, Note_on_c, 1, 34, 115
2, 38688, Note_on_c, 1, 34, 0
2, 38688, Note_on_c, 1, 32, 115
2, 38784, Note_on_c, 1, 32, 0
2, 38784, Note_on_c, 1, 35, 115
2, 38880, Note_on_c, 1, 35, 0
2, 38880, Note_on_c, 1, 32, 115
2, 38976, Note_on_c, 1, 32, 0
2, 38976, Note_on_c, 1, 36, 118
2, 39024, Note_on_c, 1, 36, 0
2, 39072, Note_on_c, 1, 36, 115
2, 39168, Note_on_c, 1, 36, 0
2, 39168, Note_on_c, 1, 37, 127
2, 39264, Note_on_c, 1, 37, 0
2, 39264, Note_on_c, 1, 25, 127
2, 39360, Note_on_c, 1, 25, 0
2, 39360, Note_on_c, 1, 27, 118
2, 39456, Note_on_c, 1, 27, 0
2, 39456, Note_on_c, 1, 28, 118
2, 39552, Note_on_c, 1, 28, 0
2, 39552, Note_on_c, 1, 29, 127
2, 39840, Note_on_c, 1, 29, 0
2, 39840, Note_on_c, 1, 30, 127
2, 39936, Note_on_c, 1, 30, 0
2, 39936, Note_on_c, 1, 32, 115
2, 39984, Note_on_c, 1, 32, 0
2, 40032, Note_on_c, 1, 32, 115
2, 40080, Note_on_c, 1, 32, 0
2, 40128, Note_on_c, 1, 34, 115
2, 40224, Note_on_c, 1, 34, 0
2, 40224, Note_on_c, 1, 32, 115
2, 40320, Note_on_c, 1, 32, 0
2, 40320, Note_on_c, 1, 35, 115
2, 40416, Note_on_c, 1, 35, 0
2, 40416, Note_on_c, 1, 32, 115
2, 40512, Note_on_c, 1, 32, 0
2, 40512, Note_on_c, 1, 36, 118
2, 40560, Note_on_c, 1, 36, 0
2, 40608, Note_on_c, 1, 36, 115
2, 40704, Note_on_c, 1, 36, 0
2, 40704, Note_on_c, 1, 37, 127
2, 40800, Note_on_c, 1, 37, 0
2, 40800, Note_on_c, 1, 25, 127
2, 40896, Note_on_c, 1, 25, 0
2, 40896, Note_on_c, 1, 27, 118
2, 40992, Note_on_c, 1, 27, 0
2, 40992, Note_on_c, 1, 28, 118
2, 41088, Note_on_c, 1, 28, 0
2, 41088, Note_on_c, 1, 29, 127
2, 41376, Note_on_c, 1, 29, 0
2, 41376, Note_on_c, 1, 30, 127
2, 41472, Note_on_c, 1, 30, 0
2, 41472, Note_on_c, 1, 32, 115
2, 41520, Note_on_c, 1, 32, 0
2, 41568, Note_on_c, 1, 32, 115
2, 41616, Note_on_c, 1, 32, 0
2, 41664, Note_on_c, 1, 34, 115
2, 41760, Note_on_c, 1, 34, 0
2, 41760, Note_on_c, 1, 32, 115
2, 41856, Note_on_c, 1, 32, 0
2, 41856, Note_on_c, 1, 35, 115
2, 41952, Note_on_c, 1, 35, 0
2, 41952, Note_on_c, 1, 32, 115
2, 42048, Note_on_c, 1, 32, 0
2, 42048, Note_on_c, 1, 36, 118
2, 42096, Note_on_c, 1, 36, 0
2, 42144, Note_on_c, 1, 36, 115
2, 42240, Note_on_c, 1, 36, 0
2, 42240, Note_on_c, 1, 37, 127
2, 42336, Note_on_c, 1, 37, 0
2, 42336, Note_on_c, 1, 25, 127
2, 42432, Note_on_c, 1, 25, 0
2, 42432, Note_on_c, 1, 27, 118
2, 42528, Note_on_c, 1, 27, 0
2, 42528, Note_on_c, 1, 28, 118
2, 42624, Note_on_c, 1, 28, 0
2, 42624, Note_on_c, 1, 29, 127
2, 42912, Note_on_c, 1, 29, 0
2, 42912, Note_on_c, 1, 30, 127
2, 43008, Note_on_c, 1, 32, 115
2, 43009, Note_on_c, 1, 30, 0
2, 43056, Note_on_c, 1, 32, 0
2, 43104, Note_on_c, 1, 32, 115
2, 43152, Note_on_c, 1, 32, 0
2, 43200, Note_on_c, 1, 34, 115
2, 43296, Note_on_c, 1, 34, 0
2, 43296, Note_on_c, 1, 32, 115
2, 43392, Note_on_c, 1, 32, 0
2, 43392, Note_on_c, 1, 35, 115
2, 43488, Note_on_c, 1, 35, 0
2, 43488, Note_on_c, 1, 32, 115
2, 43584, Note_on_c, 1, 32, 0
2, 43584, Note_on_c, 1, 36, 118
2, 43632, Note_on_c, 1, 36, 0
2, 43680, Note_on_c, 1, 36, 115
2, 43776, Note_on_c, 1, 36, 0
2, 43776, Note_on_c, 1, 37, 127
2, 43872, Note_on_c, 1, 37, 0
2, 43872, Note_on_c, 1, 25, 127
2, 43968, Note_on_c, 1, 25, 0
2, 43968, Note_on_c, 1, 27, 118
2, 44064, Note_on_c, 1, 27, 0
2, 44064, Note_on_c, 1, 28, 118
2, 44160, Note_on_c, 1, 28, 0
2, 44160, Note_on_c, 1, 29, 127
2, 44448, Note_on_c, 1, 29, 0
2, 44448, Note_on_c, 1, 30, 127
2, 44544, Note_on_c, 1, 32, 115
2, 44545, Note_on_c, 1, 30, 0
2, 44592, Note_on_c, 1, 32, 0
2, 44640, Note_on_c, 1, 32, 115
2, 44688, Note_on_c, 1, 32, 0
2, 44736, Note_on_c, 1, 34, 115
2, 44832, Note_on_c, 1, 34, 0
2, 44832, Note_on_c, 1, 32, 115
2, 44928, Note_on_c, 1, 32, 0
2, 44928, Note_on_c, 1, 35, 115
2, 45024, Note_on_c, 1, 35, 0
2, 45024, Note_on_c, 1, 32, 115
2, 45120, Note_on_c, 1, 32, 0
2, 45120, Note_on_c, 1, 36, 118
2, 45168, Note_on_c, 1, 36, 0
2, 45216, Note_on_c, 1, 36, 115
2, 45312, Note_on_c, 1, 36, 0
2, 45312, Note_on_c, 1, 37, 127
2, 45408, Note_on_c, 1, 37, 0
2, 45408, Note_on_c, 1, 25, 127
2, 45504, Note_on_c, 1, 25, 0
2, 45504, Note_on_c, 1, 27, 118
2, 45600, Note_on_c, 1, 27, 0
2, 45600, Note_on_c, 1, 28, 118
2, 45696, Note_on_c, 1, 28, 0
2, 45696, Note_on_c, 1, 29, 127
2, 45984, Note_on_c, 1, 29, 0
2, 45984, Note_on_c, 1, 30, 127
2, 46080, Note_on_c, 1, 30, 0
2, 46080, Note_on_c, 1, 32, 115
2, 46128, Note_on_c, 1, 32, 0
2, 46176, Note_on_c, 1, 32, 115
2, 46224, Note_on_c, 1, 32, 0
2, 46272, Note_on_c, 1, 34, 115
2, 46368, Note_on_c, 1, 34, 0
2, 46368, Note_on_c, 1, 32, 115
2, 46464, Note_on_c, 1, 32, 0
2, 46464, Note_on_c, 1, 35, 115
2, 46560, Note_on_c, 1, 35, 0
2, 46560, Note_on_c, 1, 32, 115
2, 46656, Note_on_c, 1, 32, 0
2, 46656, Note_on_c, 1, 36, 118
2, 46704, Note_on_c, 1, 36, 0
2, 46752, Note_on_c, 1, 36, 115
2, 46848, Note_on_c, 1, 36, 0
2, 46848, Note_on_c, 1, 37, 127
2, 46944, Note_on_c, 1, 37, 0
2, 46944, Note_on_c, 1, 25, 127
2, 47040, Note_on_c, 1, 25, 0
2, 47040, Note_on_c, 1, 27, 118
2, 47136, Note_on_c, 1, 27, 0
2, 47136, Note_on_c, 1, 28, 118
2, 47232, Note_on_c, 1, 28, 0
2, 47232, Note_on_c, 1, 29, 127
2, 47520, Note_on_c, 1, 29, 0
2, 47520, Note_on_c, 1, 30, 127
2, 47616, Note_on_c, 1, 32, 115
2, 47617, Note_on_c, 1, 30, 0
2, 47664, Note_on_c, 1, 32, 0
2, 47712, Note_on_c, 1, 32, 115
2, 47760, Note_on_c, 1, 32, 0
2, 47808, Note_on_c, 1, 34, 115
2, 47904, Note_on_c, 1, 34, 0
2, 47904, Note_on_c, 1, 32, 115
2, 48000, Note_on_c, 1, 32, 0
2, 48000, Note_on_c, 1, 35, 115
2, 48096, Note_on_c, 1, 35, 0
2, 48096, Note_on_c, 1, 32, 115
2, 48192, Note_on_c, 1, 32, 0
2, 48192, Note_on_c, 1, 36, 118
2, 48240, Note_on_c, 1, 36, 0
2, 48288, Note_on_c, 1, 36, 115
2, 48384, Note_on_c, 1, 36, 0
2, 48384, Note_on_c, 1, 37, 127
2, 48480, Note_on_c, 1, 37, 0
2, 48480, Note_on_c, 1, 25, 127
2, 48576, Note_on_c, 1, 25, 0
2, 48576, Note_on_c, 1, 27, 118
2, 48672, Note_on_c, 1, 27, 0
2, 48672, Note_on_c, 1, 28, 118
2, 48768, Note_on_c, 1, 28, 0
2, 48768, Note_on_c, 1, 29, 127
2, 49056, Note_on_c, 1, 29, 0
2, 49056, Note_on_c, 1, 30, 127
2, 49152, Note_on_c, 1, 32, 115
2, 49153, Note_on_c, 1, 30, 0
2, 49200, Note_on_c, 1, 32, 0
2, 49248, Note_on_c, 1, 32, 115
2, 49296, Note_on_c, 1, 32, 0
2, 49344, Note_on_c, 1, 34, 115
2, 49440, Note_on_c, 1, 34, 0
2, 49440, Note_on_c, 1, 32, 115
2, 49536, Note_on_c, 1, 32, 0
2, 49536, Note_on_c, 1, 35, 115
2, 49632, Note_on_c, 1, 35, 0
2, 49632, Note_on_c, 1, 32, 115
2, 49728, Note_on_c, 1, 32, 0
2, 49728, Note_on_c, 1, 36, 118
2, 49776, Note_on_c, 1, 36, 0
2, 49824, Note_on_c, 1, 36, 115
2, 49920, Note_on_c, 1, 36, 0
2, 49920, Note_on_c, 1, 37, 127
2, 50016, Note_on_c, 1, 37, 0
2, 50016, Note_on_c, 1, 25, 127
2, 50112, Note_on_c, 1, 25, 0
2, 50112, Note_on_c, 1, 27, 118
2, 50208, Note_on_c, 1, 27, 0
2, 50208, Note_on_c, 1, 28, 118
2, 50304, Note_on_c, 1, 28, 0
2, 50304, Note_on_c, 1, 29, 127
2, 50592, Note_on_c, 1, 29, 0
2, 50592, Note_on_c, 1, 30, 127
2, 50688, Note_on_c, 1, 30, 0
2, 50688, Note_on_c, 1, 32, 115
2, 50736, Note_on_c, 1, 32, 0
2, 50784, Note_on_c, 1, 32, 115
2, 50832, Note_on_c, 1, 32, 0
2, 50880, Note_on_c, 1, 34, 115
2, 50976, Note_on_c, 1, 34, 0
2, 50976, Note_on_c, 1, 32, 115
2, 51072, Note_on_c, 1, 32, 0
2, 51072, Note_on_c, 1, 35, 115
2, 51168, Note_on_c, 1, 35, 0
2, 51168, Note_on_c, 1, 32, 115
2, 51264, Note_on_c, 1, 32, 0
2, 51264, Note_on_c, 1, 36, 118
2, 51312, Note_on_c, 1, 36, 0
2, 51360, Note_on_c, 1, 36, 115
2, 51456, Note_on_c, 1, 36, 0
2, 51456, Note_on_c, 1, 37, 127
2, 51552, Note_on_c, 1, 37, 0
2, 51552, Note_on_c, 1, 25, 127
2, 51648, Note_on_c, 1, 25, 0
2, 51648, Note_on_c, 1, 27, 118
2, 51744, Note_on_c, 1, 27, 0
2, 51744, Note_on_c, 1, 28, 118
2, 51840, Note_on_c, 1, 28, 0
2, 51840, Note_on_c, 1, 29, 127
2, 52128, Note_on_c, 1, 29, 0
2, 52128, Note_on_c, 1, 30, 127
2, 52224, Note_on_c, 1, 32, 115
2, 52225, Note_on_c, 1, 30, 0
2, 52272, Note_on_c, 1, 32, 0
2, 52320, Note_on_c, 1, 32, 115
2, 52368, Note_on_c, 1, 32, 0
2, 52416, Note_on_c, 1, 34, 115
2, 52512, Note_on_c, 1, 34, 0
2, 52512, Note_on_c, 1, 32, 115
2, 52608, Note_on_c, 1, 32, 0
2, 52608, Note_on_c, 1, 35, 115
2, 52704, Note_on_c, 1, 35, 0
2, 52704, Note_on_c, 1, 32, 115
2, 52800, Note_on_c, 1, 32, 0
2, 52800, Note_on_c, 1, 36, 118
2, 52848, Note_on_c, 1, 36, 0
2, 52896, Note_on_c, 1, 36, 115
2, 52992, Note_on_c, 1, 36, 0
2, 52992, Note_on_c, 1, 37, 127
2, 53088, Note_on_c, 1, 37, 0
2, 53088, Note_on_c, 1, 25, 127
2, 53184, Note_on_c, 1, 25, 0
2, 53184, Note_on_c, 1, 27, 118
2, 53280, Note_on_c, 1, 27, 0
2, 53280, Note_on_c, 1, 28, 118
2, 53376, Note_on_c, 1, 28, 0
2, 53376, Note_on_c, 1, 29, 127
2, 53664, Note_on_c, 1, 29, 0
2, 53664, Note_on_c, 1, 30, 127
2, 53760, Note_on_c, 1, 30, 0
2, 53760, Note_on_c, 1, 32, 115
2, 53808, Note_on_c, 1, 32, 0
2, 53856, Note_on_c, 1, 32, 115
2, 53904, Note_on_c, 1, 32, 0
2, 53952, Note_on_c, 1, 34, 115
2, 54048, Note_on_c, 1, 34, 0
2, 54048, Note_on_c, 1, 32, 115
2, 54144, Note_on_c, 1, 32, 0
2, 54144, Note_on_c, 1, 35, 115
2, 54240, Note_on_c, 1, 35, 0
2, 54240, Note_on_c, 1, 32, 115
2, 54336, Note_on_c, 1, 32, 0
2, 54336, Note_on_c, 1, 36, 118
2, 54384, Note_on_c, 1, 36, 0
2, 54432, Note_on_c, 1, 36, 115
2, 54528, Note_on_c, 1, 36, 0
2, 54528, Note_on_c, 1, 37, 127
2, 54624, Note_on_c, 1, 37, 0
2, 54624, Note_on_c, 1, 25, 127
2, 54720, Note_on_c, 1, 25, 0
2, 54720, Note_on_c, 1, 27, 118
2, 54816, Note_on_c, 1, 27, 0
2, 54816, Note_on_c, 1, 28, 118
2, 54912, Note_on_c, 1, 28, 0
2, 54912, Note_on_c, 1, 29, 127
2, 55200, Note_on_c, 1, 29, 0
2, 55200, Note_on_c, 1, 30, 127
2, 55296, Note_on_c, 1, 30, 0
2, 55296, Note_on_c, 1, 32, 115
2, 55344, Note_on_c, 1, 32, 0
2, 55392, Note_on_c, 1, 32, 115
2, 55440, Note_on_c, 1, 32, 0
2, 55488, Note_on_c, 1, 34, 115
2, 55584, Note_on_c, 1, 34, 0
2, 55584, Note_on_c, 1, 32, 115
2, 55680, Note_on_c, 1, 32, 0
2, 55680, Note_on_c, 1, 35, 115
2, 55776, Note_on_c, 1, 35, 0
2, 55776, Note_on_c, 1, 32, 115
2, 55872, Note_on_c, 1, 32, 0
2, 55872, Note_on_c, 1, 36, 118
2, 55920, Note_on_c, 1, 36, 0
2, 55968, Note_on_c, 1, 36, 115
2, 56064, Note_on_c, 1, 36, 0
2, 56064, Note_on_c, 1, 37, 127
2, 56160, Note_on_c, 1, 37, 0
2, 56160, Note_on_c, 1, 25, 127
2, 56256, Note_on_c, 1, 25, 0
2, 56256, Note_on_c, 1, 27, 118
2, 56352, Note_on_c, 1, 27, 0
2, 56352, Note_on_c, 1, 28, 118
2, 56448, Note_on_c, 1, 28, 0
2, 56448, Note_on_c, 1, 29, 127
2, 56736, Note_on_c, 1, 29, 0
2, 56736, Note_on_c, 1, 30, 127
2, 56832, Note_on_c, 1, 32, 115
2, 56833, Note_on_c, 1, 30, 0
2, 56880, Note_on_c, 1, 32, 0
2, 56928, Note_on_c, 1, 32, 115
2, 56976, Note_on_c, 1, 32, 0
2, 57024, Note_on_c, 1, 34, 115
2, 57120, Note_on_c, 1, 34, 0
2, 57120, Note_on_c, 1, 32, 115
2, 57216, Note_on_c, 1, 32, 0
2, 57216, Note_on_c, 1, 35, 115
2, 57312, Note_on_c, 1, 35, 0
2, 57312, Note_on_c, 1, 32, 115
2, 57408, Note_on_c, 1, 32, 0
2, 57408, Note_on_c, 1, 36, 118
2, 57456, Note_on_c, 1, 36, 0
2, 57504, Note_on_c, 1, 36, 115
2, 57600, Note_on_c, 1, 36, 0
2, 57600, Note_on_c, 1, 37, 127
2, 57696, Note_on_c, 1, 37, 0
2, 57696, Note_on_c, 1, 25, 127
2, 57792, Note_on_c, 1, 25, 0
2, 57792, Note_on_c, 1, 27, 118
2, 57888, Note_on_c, 1, 27, 0
2, 57888, Note_on_c, 1, 28, 118
2, 57984, Note_on_c, 1, 28, 0
2, 57984, Note_on_c, 1, 29, 127
2, 58272, Note_on_c, 1, 29, 0
2, 58272, Note_on_c, 1, 30, 127
2, 58368, Note_on_c, 1, 30, 0
2, 58368, Note_on_c, 1, 32, 115
2, 58416, Note_on_c, 1, 32, 0
2, 58464, Note_on_c, 1, 32, 115
2, 58512, Note_on_c, 1, 32, 0
2, 58560, Note_on_c, 1, 34, 115
2, 58656, Note_on_c, 1, 34, 0
2, 58656, Note_on_c, 1, 32, 115
2, 58752, Note_on_c, 1, 32, 0
2, 58752, Note_on_c, 1, 35, 115
2, 58848, Note_on_c, 1, 35, 0
2, 58848, Note_on_c, 1, 32, 115
2, 58944, Note_on_c, 1, 32, 0
2, 58944, Note_on_c, 1, 36, 118
2, 58992, Note_on_c, 1, 36, 0
2, 59040, Note_on_c, 1, 36, 115
2, 59136, Note_on_c, 1, 36, 0
2, 59136, Note_on_c, 1, 37, 127
2, 59232, Note_on_c, 1, 37, 0
2, 59232, Note_on_c, 1, 25, 127
2, 59328, Note_on_c, 1, 25, 0
2, 59328, Note_on_c, 1, 27, 118
2, 59424, Note_on_c, 1, 27, 0
2, 59424, Note_on_c, 1, 28, 118
2, 59520, Note_on_c, 1, 28, 0
2, 59520, Note_on_c, 1, 29, 127
2, 59808, Note_on_c, 1, 29, 0
2, 59808, Note_on_c, 1, 30, 127
2, 59904, Note_on_c, 1, 30, 0
2, 59904, Note_on_c, 1, 32, 115
2, 59952, Note_on_c, 1, 32, 0
2, 60000, Note_on_c, 1, 32, 115
2, 60048, Note_on_c, 1, 32, 0
2, 60096, Note_on_c, 1, 34, 115
2, 60192, Note_on_c, 1, 34, 0
2, 60192, Note_on_c, 1, 32, 115
2, 60288, Note_on_c, 1, 32, 0
2, 60288, Note_on_c, 1, 35, 115
2, 60384, Note_on_c, 1, 35, 0
2, 60384, Note_on_c, 1, 32, 115
2, 60480, Note_on_c, 1, 32, 0
2, 60480, Note_on_c, 1, 36, 118
2, 60528, Note_on_c, 1, 36, 0
2, 60576, Note_on_c, 1, 36, 115
2, 60672, Note_on_c, 1, 36, 0
2, 60672, Note_on_c, 1, 37, 127
2, 60768, Note_on_c, 1, 37, 0
2, 60768, Note_on_c, 1, 25, 127
2, 60864, Note_on_c, 1, 25, 0
2, 60864, Note_on_c, 1, 27, 118
2, 60960, Note_on_c, 1, 27, 0
2, 60960, Note_on_c, 1, 28, 118
2, 61056, Note_on_c, 1, 28, 0
2, 61056, Note_on_c, 1, 29, 127
2, 61344, Note_on_c, 1, 29, 0
2, 61344, Note_on_c, 1, 30, 127
2, 61440, Note_on_c, 1, 30, 0
2, 61440, Note_on_c, 1, 32, 115
2, 61488, Note_on_c, 1, 32, 0
2, 61536, Note_on_c, 1, 32, 115
2, 61584, Note_on_c, 1, 32, 0
2, 61632, Note_on_c, 1, 34, 115
2, 61728, Note_on_c, 1, 34, 0
2, 61728, Note_on_c, 1, 32, 115
2, 61824, Note_on_c, 1, 32, 0
2, 61824, Note_on_c, 1, 35, 115
2, 61920, Note_on_c, 1, 35, 0
2, 61920, Note_on_c, 1, 32, 115
2, 62016, Note_on_c, 1, 32, 0
2, 62016, Note_on_c, 1, 36, 118
2, 62064, Note_on_c, 1, 36, 0
2, 62112, Note_on_c, 1, 36, 115
2, 62208, Note_on_c, 1, 36, 0
2, 62208, Note_on_c, 1, 37, 127
2, 62304, Note_on_c, 1, 37, 0
2, 62304, Note_on_c, 1, 25, 127
2, 62400, Note_on_c, 1, 25, 0
2, 62400, Note_on_c, 1, 27, 118
2, 62496, Note_on_c, 1, 27, 0
2, 62496, Note_on_c, 1, 28, 118
2, 62592, Note_on_c, 1, 28, 0
2, 62592, Note_on_c, 1, 29, 127
2, 62880, Note_on_c, 1, 29, 0
2, 62880, Note_on_c, 1, 30, 127
2, 62976, Note_on_c, 1, 30, 0
2, 62976, Note_on_c, 1, 32, 115
2, 63024, Note_on_c, 1, 32, 0
2, 63072, Note_on_c, 1, 32, 115
2, 63120, Note_on_c, 1, 32, 0
2, 63168, Note_on_c, 1, 34, 115
2, 63264, Note_on_c, 1, 34, 0
2, 63264, Note_on_c, 1, 32, 115
2, 63360, Note_on_c, 1, 32, 0
2, 63360, Note_on_c, 1, 35, 115
2, 63456, Note_on_c, 1, 35, 0
2, 63456, Note_on_c, 1, 32, 115
2, 63552, Note_on_c, 1, 32, 0
2, 63552, Note_on_c, 1, 36, 118
2, 63600, Note_on_c, 1, 36, 0
2, 63648, Note_on_c, 1, 36, 115
2, 63744, Note_on_c, 1, 36, 0
2, 63744, Note_on_c, 1, 37, 127
2, 63840, Note_on_c, 1, 37, 0
2, 63840, Note_on_c, 1, 25, 127
2, 63936, Note_on_c, 1, 25, 0
2, 63936, Note_on_c, 1, 27, 118
2, 64032, Note_on_c, 1, 27, 0
2, 64032, Note_on_c, 1, 28, 118
2, 64128, Note_on_c, 1, 28, 0
2, 64128, Note_on_c, 1, 29, 127
2, 64416, Note_on_c, 1, 29, 0
2, 64416, Note_on_c, 1, 30, 127
2, 64512, Note_on_c, 1, 30, 0
2, 64512, Note_on_c, 1, 32, 115
2, 64560, Note_on_c, 1, 32, 0
2, 64608, Note_on_c, 1, 32, 115
2, 64656, Note_on_c, 1, 32, 0
2, 64704, Note_on_c, 1, 34, 115
2, 64800, Note_on_c, 1, 34, 0
2, 64800, Note_on_c, 1, 32, 115
2, 64896, Note_on_c, 1, 32, 0
2, 64896, Note_on_c, 1, 35, 115
2, 64992, Note_on_c, 1, 35, 0
2, 64992, Note_on_c, 1, 32, 115
2, 65088, Note_on_c, 1, 32, 0
2, 65088, Note_on_c, 1, 36, 118
2, 65136, Note_on_c, 1, 36, 0
2, 65184, Note_on_c, 1, 36, 115
2, 65280, Note_on_c, 1, 36, 0
2, 65280, Note_on_c, 1, 37, 127
2, 65376, Note_on_c, 1, 37, 0
2, 65376, Note_on_c, 1, 25, 127
2, 65472, Note_on_c, 1, 25, 0
2, 65472, Note_on_c, 1, 27, 118
2, 65568, Note_on_c, 1, 27, 0
2, 65568, Note_on_c, 1, 28, 118
2, 65664, Note_on_c, 1, 28, 0
2, 65664, Note_on_c, 1, 29, 127
2, 65952, Note_on_c, 1, 29, 0
2, 65952, Note_on_c, 1, 30, 127
2, 66048, Note_on_c, 1, 30, 0
2, 66048, Note_on_c, 1, 32, 115
2, 66096, Note_on_c, 1, 32, 0
2, 66144, Note_on_c, 1, 32, 115
2, 66192, Note_on_c, 1, 32, 0
2, 66240, Note_on_c, 1, 34, 115
2, 66336, Note_on_c, 1, 34, 0
2, 66336, Note_on_c, 1, 32, 115
2, 66432, Note_on_c, 1, 32, 0
2, 66432, Note_on_c, 1, 35, 115
2, 66528, Note_on_c, 1, 35, 0
2, 66528, Note_on_c, 1, 32, 115
2, 66624, Note_on_c, 1, 32, 0
2, 66624, Note_on_c, 1, 36, 118
2, 66672, Note_on_c, 1, 36, 0
2, 66720, Note_on_c, 1, 36, 115
2, 66816, Note_on_c, 1, 36, 0
2, 66816, Note_on_c, 1, 37, 127
2, 66912, Note_on_c, 1, 37, 0
2, 66912, Note_on_c, 1, 25, 127
2, 67008, Note_on_c, 1, 25, 0
2, 67008, Note_on_c, 1, 27, 118
2, 67104, Note_on_c, 1, 27, 0
2, 67104, Note_on_c, 1, 28, 118
2, 67200, Note_on_c, 1, 28, 0
2, 67200, Note_on_c, 1, 29, 127
2, 67488, Note_on_c, 1, 29, 0
2, 67488, Note_on_c, 1, 30, 127
2, 67584, Note_on_c, 1, 30, 0
2, 67584, Note_on_c, 1, 32, 115
2, 67632, Note_on_c, 1, 32, 0
2, 67680, Note_on_c, 1, 32, 115
2, 67728, Note_on_c, 1, 32, 0
2, 67776, Note_on_c, 1, 34, 115
2, 67872, Note_on_c, 1, 34, 0
2, 67872, Note_on_c, 1, 32, 115
2, 67968, Note_on_c, 1, 32, 0
2, 67968, Note_on_c, 1, 35, 115
2, 68064, Note_on_c, 1, 35, 0
2, 68064, Note_on_c, 1, 32, 115
2, 68160, Note_on_c, 1, 32, 0
2, 68160, Note_on_c, 1, 36, 118
2, 68208, Note_on_c, 1, 36, 0
2, 68256, Note_on_c, 1, 36, 115
2, 68352, Note_on_c, 1, 36, 0
2, 68352, Note_on_c, 1, 37, 127
2, 68448, Note_on_c, 1, 37, 0
2, 68448, Note_on_c, 1, 25, 127
2, 68544, Note_on_c, 1, 25, 0
2, 68544, Note_on_c, 1, 27, 118
2, 68640, Note_on_c, 1, 27, 0
2, 68640, Note_on_c, 1, 28, 118
2, 68736, Note_on_c, 1, 28, 0
2, 68736, Note_on_c, 1, 29, 127
2, 69024, Note_on_c, 1, 29, 0
2, 69024, Note_on_c, 1, 30, 127
2, 69120, Note_on_c, 1, 30, 0
2, 69120, Note_on_c, 1, 32, 115
2, 69168, Note_on_c, 1, 32, 0
2, 69216, Note_on_c, 1, 32, 115
2, 69264, Note_on_c, 1, 32, 0
2, 69312, Note_on_c, 1, 34, 115
2, 69408, Note_on_c, 1, 34, 0
2, 69408, Note_on_c, 1, 32, 115
2, 69504, Note_on_c, 1, 32, 0
2, 69504, Note_on_c, 1, 35, 115
2, 69600, Note_on_c, 1, 35, 0
2, 69600, Note_on_c, 1, 32, 115
2, 69696, Note_on_c, 1, 32, 0
2, 69696, Note_on_c, 1, 36, 118
2, 69744, Note_on_c, 1, 36, 0
2, 69792, Note_on_c, 1, 36, 115
2, 69888, Note_on_c, 1, 36, 0
2, 69888, Note_on_c, 1, 37, 127
2, 69984, Note_on_c, 1, 37, 0
2, 69984, Note_on_c, 1, 25, 127
2, 70080, Note_on_c, 1, 25, 0
2, 70080, Note_on_c, 1, 27, 118
2, 70176, Note_on_c, 1, 27, 0
2, 70176, Note_on_c, 1, 28, 118
2, 70272, Note_on_c, 1, 28, 0
2, 70272, Note_on_c, 1, 29, 127
2, 70560, Note_on_c, 1, 29, 0
2, 70560, Note_on_c, 1, 30, 127
2, 70656, Note_on_c, 1, 30, 0
2, 70656, Note_on_c, 1, 32, 115
2, 70704, Note_on_c, 1, 32, 0
2, 70752, Note_on_c, 1, 32, 115
2, 70800, Note_on_c, 1, 32, 0
2, 70848, Note_on_c, 1, 34, 115
2, 70944, Note_on_c, 1, 34, 0
2, 70944, Note_on_c, 1, 32, 115
2, 71040, Note_on_c, 1, 32, 0
2, 71040, Note_on_c, 1, 35, 115
2, 71136, Note_on_c, 1, 35, 0
2, 71136, Note_on_c, 1, 32, 115
2, 71232, Note_on_c, 1, 32, 0
2, 71232, Note_on_c, 1, 36, 118
2, 71280, Note_on_c, 1, 36, 0
2, 71328, Note_on_c, 1, 36, 115
2, 71424, Note_on_c, 1, 36, 0
2, 71424, Note_on_c, 1, 25, 115
2, 71424, Note_on_c, 1, 37, 127
2, 71944, Note_on_c, 1, 32, 115
2, 71952, Note_on_c, 1, 37, 0
2, 71960, Note_on_c, 1, 25, 0
2, 72008, Note_on_c, 1, 32, 0
2, 72024, Note_on_c, 1, 37, 115
2, 72080, Note_on_c, 1, 37, 0
2, 72136, Note_on_c, 1, 37, 118
2, 72240, Note_on_c, 1, 37, 0
2, 72432, Note_on_c, 1, 25, 115
2, 72432, Note_on_c, 1, 37, 127
2, 74152, Note_on_c, 1, 37, 0
2, 74160, Note_on_c, 1, 25, 0
2, 74256, Note_on_c, 1, 37, 127
2, 74264, Note_on_c, 1, 25, 127
2, 74456, Note_on_c, 1, 37, 0
2, 74464, Note_on_c, 1, 25, 0
2, 74464, End_track
3, 0, Start_track
3, 0, MIDI_port, 0
3, 0, Title_t, "Acous. Piano        "
3, 192, Control_c, 2, 7, 100
3, 192, Control_c, 2, 10, 33
3, 192, Program_c, 2, 2
3, 3840, Note_on_c, 2, 73, 82
3, 3840, Note_on_c, 2, 77, 82
3, 3840, Note_on_c, 2, 68, 82
3, 4272, Note_on_c, 2, 68, 0
3, 4272, Note_on_c, 2, 77, 0
3, 4272, Note_on_c, 2, 73, 0
3, 4320, Note_on_c, 2, 73, 82
3, 4320, Note_on_c, 2, 77, 73
3, 4320, Note_on_c, 2, 68, 73
3, 4368, Note_on_c, 2, 68, 0
3, 4368, Note_on_c, 2, 77, 0
3, 4368, Note_on_c, 2, 73, 0
3, 4416, Note_on_c, 2, 73, 82
3, 4416, Note_on_c, 2, 77, 73
3, 4416, Note_on_c, 2, 68, 73
3, 4512, Note_on_c, 2, 68, 0
3, 4512, Note_on_c, 2, 77, 0
3, 4512, Note_on_c, 2, 73, 0
3, 4608, Note_on_c, 2, 75, 64
3, 4608, Note_on_c, 2, 71, 73
3, 4608, Note_on_c, 2, 66, 73
3, 5040, Note_on_c, 2, 66, 0
3, 5040, Note_on_c, 2, 71, 0
3, 5040, Note_on_c, 2, 75, 0
3, 5088, Note_on_c, 2, 70, 73
3, 5088, Note_on_c, 2, 73, 73
3, 5088, Note_on_c, 2, 66, 73
3, 5136, Note_on_c, 2, 66, 0
3, 5136, Note_on_c, 2, 73, 0
3, 5136, Note_on_c, 2, 70, 0
3, 5184, Note_on_c, 2, 70, 73
3, 5184, Note_on_c, 2, 66, 73
3, 5184, Note_on_c, 2, 73, 82
3, 5232, Note_on_c, 2, 66, 0
3, 5280, Note_on_c, 2, 73, 0
3, 5280, Note_on_c, 2, 70, 0
3, 5376, Note_on_c, 2, 73, 73
3, 5376, Note_on_c, 2, 77, 73
3, 5376, Note_on_c, 2, 68, 64
3, 5808, Note_on_c, 2, 68, 0
3, 5808, Note_on_c, 2, 77, 0
3, 5808, Note_on_c, 2, 73, 0
3, 5856, Note_on_c, 2, 73, 73
3, 5856, Note_on_c, 2, 68, 82
3, 5856, Note_on_c, 2, 77, 73
3, 5904, Note_on_c, 2, 77, 0
3, 5904, Note_on_c, 2, 68, 0
3, 5904, Note_on_c, 2, 73, 0
3, 5952, Note_on_c, 2, 73, 73
3, 5952, Note_on_c, 2, 77, 73
3, 5952, Note_on_c, 2, 68, 64
3, 6048, Note_on_c, 2, 68, 0
3, 6048, Note_on_c, 2, 77, 0
3, 6048, Note_on_c, 2, 73, 0
3, 6144, Note_on_c, 2, 75, 64
3, 6144, Note_on_c, 2, 71, 64
3, 6144, Note_on_c, 2, 66, 73
3, 6576, Note_on_c, 2, 66, 0
3, 6576, Note_on_c, 2, 71, 0
3, 6576, Note_on_c, 2, 75, 0
3, 6624, Note_on_c, 2, 70, 73
3, 6624, Note_on_c, 2, 73, 73
3, 6624, Note_on_c, 2, 66, 60
3, 6672, Note_on_c, 2, 66, 0
3, 6672, Note_on_c, 2, 73, 0
3, 6672, Note_on_c, 2, 70, 0
3, 6720, Note_on_c, 2, 70, 64
3, 6720, Note_on_c, 2, 66, 64
3, 6720, Note_on_c, 2, 73, 73
3, 6816, Note_on_c, 2, 73, 0
3, 6816, Note_on_c, 2, 66, 0
3, 6816, Note_on_c, 2, 70, 0
3, 6912, Note_on_c, 2, 73, 82
3, 6912, Note_on_c, 2, 77, 82
3, 6912, Note_on_c, 2, 68, 82
3, 7344, Note_on_c, 2, 68, 0
3, 7344, Note_on_c, 2, 77, 0
3, 7344, Note_on_c, 2, 73, 0
3, 7392, Note_on_c, 2, 73, 82
3, 7392, Note_on_c, 2, 77, 73
3, 7392, Note_on_c, 2, 68, 73
3, 7440, Note_on_c, 2, 68, 0
3, 7440, Note_on_c, 2, 77, 0
3, 7440, Note_on_c, 2, 73, 0
3, 7488, Note_on_c, 2, 73, 82
3, 7488, Note_on_c, 2, 77, 73
3, 7488, Note_on_c, 2, 68, 73
3, 7584, Note_on_c, 2, 68, 0
3, 7584, Note_on_c, 2, 77, 0
3, 7584, Note_on_c, 2, 73, 0
3, 7680, Note_on_c, 2, 75, 64
3, 7680, Note_on_c, 2, 71, 73
3, 7680, Note_on_c, 2, 66, 73
3, 8112, Note_on_c, 2, 66, 0
3, 8112, Note_on_c, 2, 71, 0
3, 8112, Note_on_c, 2, 75, 0
3, 8160, Note_on_c, 2, 70, 73
3, 8160, Note_on_c, 2, 73, 73
3, 8160, Note_on_c, 2, 66, 73
3, 8208, Note_on_c, 2, 66, 0
3, 8208, Note_on_c, 2, 73, 0
3, 8208, Note_on_c, 2, 70, 0
3, 8256, Note_on_c, 2, 70, 73
3, 8256, Note_on_c, 2, 66, 73
3, 8256, Note_on_c, 2, 73, 82
3, 8304, Note_on_c, 2, 66, 0
3, 8352, Note_on_c, 2, 73, 0
3, 8352, Note_on_c, 2, 70, 0
3, 8448, Note_on_c, 2, 73, 73
3, 8448, Note_on_c, 2, 77, 73
3, 8448, Note_on_c, 2, 68, 64
3, 8880, Note_on_c, 2, 68, 0
3, 8880, Note_on_c, 2, 77, 0
3, 8880, Note_on_c, 2, 73, 0
3, 8928, Note_on_c, 2, 73, 73
3, 8928, Note_on_c, 2, 68, 82
3, 8928, Note_on_c, 2, 77, 73
3, 8976, Note_on_c, 2, 77, 0
3, 8976, Note_on_c, 2, 68, 0
3, 8976, Note_on_c, 2, 73, 0
3, 9024, Note_on_c, 2, 73, 73
3, 9024, Note_on_c, 2, 77, 73
3, 9024, Note_on_c, 2, 68, 64
3, 9120, Note_on_c, 2, 68, 0
3, 9120, Note_on_c, 2, 77, 0
3, 9120, Note_on_c, 2, 73, 0
3, 9216, Note_on_c, 2, 75, 64
3, 9216, Note_on_c, 2, 71, 64
3, 9216, Note_on_c, 2, 66, 73
3, 9648, Note_on_c, 2, 66, 0
3, 9648, Note_on_c, 2, 71, 0
3, 9648, Note_on_c, 2, 75, 0
3, 9696, Note_on_c, 2, 70, 73
3, 9696, Note_on_c, 2, 73, 73
3, 9696, Note_on_c, 2, 66, 60
3, 9744, Note_on_c, 2, 66, 0
3, 9744, Note_on_c, 2, 73, 0
3, 9744, Note_on_c, 2, 70, 0
3, 9792, Note_on_c, 2, 70, 64
3, 9792, Note_on_c, 2, 66, 64
3, 9792, Note_on_c, 2, 73, 73
3, 9888, Note_on_c, 2, 73, 0
3, 9888, Note_on_c, 2, 66, 0
3, 9888, Note_on_c, 2, 70, 0
3, 9984, Note_on_c, 2, 73, 82
3, 9984, Note_on_c, 2, 77, 82
3, 9984, Note_on_c, 2, 68, 82
3, 10416, Note_on_c, 2, 68, 0
3, 10416, Note_on_c, 2, 77, 0
3, 10416, Note_on_c, 2, 73, 0
3, 10464, Note_on_c, 2, 73, 82
3, 10464, Note_on_c, 2, 77, 73
3, 10464, Note_on_c, 2, 68, 73
3, 10512, Note_on_c, 2, 68, 0
3, 10512, Note_on_c, 2, 77, 0
3, 10512, Note_on_c, 2, 73, 0
3, 10560, Note_on_c, 2, 73, 82
3, 10560, Note_on_c, 2, 77, 73
3, 10560, Note_on_c, 2, 68, 73
3, 10656, Note_on_c, 2, 68, 0
3, 10656, Note_on_c, 2, 77, 0
3, 10656, Note_on_c, 2, 73, 0
3, 10752, Note_on_c, 2, 75, 64
3, 10752, Note_on_c, 2, 71, 73
3, 10752, Note_on_c, 2, 66, 73
3, 11184, Note_on_c, 2, 66, 0
3, 11184, Note_on_c, 2, 71, 0
3, 11184, Note_on_c, 2, 75, 0
3, 11232, Note_on_c, 2, 70, 73
3, 11232, Note_on_c, 2, 73, 73
3, 11232, Note_on_c, 2, 66, 73
3, 11280, Note_on_c, 2, 66, 0
3, 11280, Note_on_c, 2, 73, 0
3, 11280, Note_on_c, 2, 70, 0
3, 11328, Note_on_c, 2, 70, 73
3, 11328, Note_on_c, 2, 66, 73
3, 11328, Note_on_c, 2, 73, 82
3, 11376, Note_on_c, 2, 66, 0
3, 11424, Note_on_c, 2, 73, 0
3, 11424, Note_on_c, 2, 70, 0
3, 11520, Note_on_c, 2, 73, 73
3, 11520, Note_on_c, 2, 77, 73
3, 11520, Note_on_c, 2, 68, 64
3, 11952, Note_on_c, 2, 68, 0
3, 11952, Note_on_c, 2, 77, 0
3, 11952, Note_on_c, 2, 73, 0
3, 12000, Note_on_c, 2, 73, 73
3, 12000, Note_on_c, 2, 68, 82
3, 12000, Note_on_c, 2, 77, 73
3, 12048, Note_on_c, 2, 77, 0
3, 12048, Note_on_c, 2, 68, 0
3, 12048, Note_on_c, 2, 73, 0
3, 12096, Note_on_c, 2, 73, 73
3, 12096, Note_on_c, 2, 77, 73
3, 12096, Note_on_c, 2, 68, 64
3, 12192, Note_on_c, 2, 68, 0
3, 12192, Note_on_c, 2, 77, 0
3, 12192, Note_on_c, 2, 73, 0
3, 12288, Note_on_c, 2, 75, 64
3, 12288, Note_on_c, 2, 71, 64
3, 12288, Note_on_c, 2, 66, 73
3, 12720, Note_on_c, 2, 66, 0
3, 12720, Note_on_c, 2, 71, 0
3, 12720, Note_on_c, 2, 75, 0
3, 12768, Note_on_c, 2, 70, 73
3, 12768, Note_on_c, 2, 73, 73
3, 12768, Note_on_c, 2, 66, 60
3, 12816, Note_on_c, 2, 66, 0
3, 12816, Note_on_c, 2, 73, 0
3, 12816, Note_on_c, 2, 70, 0
3, 12864, Note_on_c, 2, 70, 64
3, 12864, Note_on_c, 2, 66, 64
3, 12864, Note_on_c, 2, 73, 73
3, 12960, Note_on_c, 2, 73, 0
3, 12960, Note_on_c, 2, 66, 0
3, 12960, Note_on_c, 2, 70, 0
3, 13056, Note_on_c, 2, 73, 82
3, 13056, Note_on_c, 2, 77, 82
3, 13056, Note_on_c, 2, 68, 82
3, 13488, Note_on_c, 2, 68, 0
3, 13488, Note_on_c, 2, 77, 0
3, 13488, Note_on_c, 2, 73, 0
3, 13536, Note_on_c, 2, 73, 82
3, 13536, Note_on_c, 2, 77, 73
3, 13536, Note_on_c, 2, 68, 73
3, 13584, Note_on_c, 2, 68, 0
3, 13584, Note_on_c, 2, 77, 0
3, 13584, Note_on_c, 2, 73, 0
3, 13632, Note_on_c, 2, 73, 82
3, 13632, Note_on_c, 2, 77, 73
3, 13632, Note_on_c, 2, 68, 73
3, 13728, Note_on_c, 2, 68, 0
3, 13728, Note_on_c, 2, 77, 0
3, 13728, Note_on_c, 2, 73, 0
3, 13824, Note_on_c, 2, 75, 64
3, 13824, Note_on_c, 2, 71, 73
3, 13824, Note_on_c, 2, 66, 73
3, 14256, Note_on_c, 2, 66, 0
3, 14256, Note_on_c, 2, 71, 0
3, 14256, Note_on_c, 2, 75, 0
3, 14304, Note_on_c, 2, 70, 73
3, 14304, Note_on_c, 2, 73, 73
3, 14304, Note_on_c, 2, 66, 73
3, 14352, Note_on_c, 2, 66, 0
3, 14352, Note_on_c, 2, 73, 0
3, 14352, Note_on_c, 2, 70, 0
3, 14400, Note_on_c, 2, 70, 73
3, 14400, Note_on_c, 2, 66, 73
3, 14400, Note_on_c, 2, 73, 82
3, 14448, Note_on_c, 2, 66, 0
3, 14496, Note_on_c, 2, 73, 0
3, 14496, Note_on_c, 2, 70, 0
3, 14592, Note_on_c, 2, 73, 73
3, 14592, Note_on_c, 2, 77, 73
3, 14592, Note_on_c, 2, 68, 64
3, 15024, Note_on_c, 2, 68, 0
3, 15024, Note_on_c, 2, 77, 0
3, 15024, Note_on_c, 2, 73, 0
3, 15072, Note_on_c, 2, 73, 73
3, 15072, Note_on_c, 2, 68, 82
3, 15072, Note_on_c, 2, 77, 73
3, 15120, Note_on_c, 2, 77, 0
3, 15120, Note_on_c, 2, 68, 0
3, 15120, Note_on_c, 2, 73, 0
3, 15168, Note_on_c, 2, 73, 73
3, 15168, Note_on_c, 2, 77, 73
3, 15168, Note_on_c, 2, 68, 64
3, 15264, Note_on_c, 2, 68, 0
3, 15264, Note_on_c, 2, 77, 0
3, 15264, Note_on_c, 2, 73, 0
3, 15360, Note_on_c, 2, 75, 64
3, 15360, Note_on_c, 2, 71, 64
3, 15360, Note_on_c, 2, 66, 73
3, 15792, Note_on_c, 2, 66, 0
3, 15792, Note_on_c, 2, 71, 0
3, 15792, Note_on_c, 2, 75, 0
3, 15840, Note_on_c, 2, 70, 73
3, 15840, Note_on_c, 2, 73, 73
3, 15840, Note_on_c, 2, 66, 60
3, 15888, Note_on_c, 2, 66, 0
3, 15888, Note_on_c, 2, 73, 0
3, 15888, Note_on_c, 2, 70, 0
3, 15936, Note_on_c, 2, 70, 64
3, 15936, Note_on_c, 2, 66, 64
3, 15936, Note_on_c, 2, 73, 73
3, 16032, Note_on_c, 2, 73, 0
3, 16032, Note_on_c, 2, 66, 0
3, 16032, Note_on_c, 2, 70, 0
3, 16128, Note_on_c, 2, 73, 82
3, 16128, Note_on_c, 2, 77, 82
3, 16128, Note_on_c, 2, 68, 82
3, 16560, Note_on_c, 2, 68, 0
3, 16560, Note_on_c, 2, 77, 0
3, 16560, Note_on_c, 2, 73, 0
3, 16608, Note_on_c, 2, 73, 82
3, 16608, Note_on_c, 2, 77, 73
3, 16608, Note_on_c, 2, 68, 73
3, 16656, Note_on_c, 2, 68, 0
3, 16656, Note_on_c, 2, 77, 0
3, 16656, Note_on_c, 2, 73, 0
3, 16704, Note_on_c, 2, 73, 82
3, 16704, Note_on_c, 2, 77, 73
3, 16704, Note_on_c, 2, 68, 73
3, 16800, Note_on_c, 2, 68, 0
3, 16800, Note_on_c, 2, 77, 0
3, 16800, Note_on_c, 2, 73, 0
3, 16896, Note_on_c, 2, 75, 64
3, 16896, Note_on_c, 2, 71, 73
3, 16896, Note_on_c, 2, 66, 73
3, 17328, Note_on_c, 2, 66, 0
3, 17328, Note_on_c, 2, 71, 0
3, 17328, Note_on_c, 2, 75, 0
3, 17376, Note_on_c, 2, 70, 73
3, 17376, Note_on_c, 2, 73, 73
3, 17376, Note_on_c, 2, 66, 73
3, 17424, Note_on_c, 2, 66, 0
3, 17424, Note_on_c, 2, 73, 0
3, 17424, Note_on_c, 2, 70, 0
3, 17472, Note_on_c, 2, 70, 73
3, 17472, Note_on_c, 2, 66, 73
3, 17472, Note_on_c, 2, 73, 82
3, 17520, Note_on_c, 2, 66, 0
3, 17568, Note_on_c, 2, 73, 0
3, 17568, Note_on_c, 2, 70, 0
3, 17664, Note_on_c, 2, 73, 73
3, 17664, Note_on_c, 2, 77, 73
3, 17664, Note_on_c, 2, 68, 64
3, 18096, Note_on_c, 2, 68, 0
3, 18096, Note_on_c, 2, 77, 0
3, 18096, Note_on_c, 2, 73, 0
3, 18144, Note_on_c, 2, 73, 73
3, 18144, Note_on_c, 2, 68, 82
3, 18144, Note_on_c, 2, 77, 73
3, 18192, Note_on_c, 2, 77, 0
3, 18192, Note_on_c, 2, 68, 0
3, 18192, Note_on_c, 2, 73, 0
3, 18240, Note_on_c, 2, 73, 73
3, 18240, Note_on_c, 2, 77, 73
3, 18240, Note_on_c, 2, 68, 64
3, 18336, Note_on_c, 2, 68, 0
3, 18336, Note_on_c, 2, 77, 0
3, 18336, Note_on_c, 2, 73, 0
3, 18432, Note_on_c, 2, 75, 64
3, 18432, Note_on_c, 2, 71, 64
3, 18432, Note_on_c, 2, 66, 73
3, 18864, Note_on_c, 2, 66, 0
3, 18864, Note_on_c, 2, 71, 0
3, 18864, Note_on_c, 2, 75, 0
3, 18912, Note_on_c, 2, 70, 73
3, 18912, Note_on_c, 2, 73, 73
3, 18912, Note_on_c, 2, 66, 60
3, 18960, Note_on_c, 2, 66, 0
3, 18960, Note_on_c, 2, 73, 0
3, 18960, Note_on_c, 2, 70, 0
3, 19008, Note_on_c, 2, 70, 64
3, 19008, Note_on_c, 2, 66, 64
3, 19008, Note_on_c, 2, 73, 73
3, 19104, Note_on_c, 2, 73, 0
3, 19104, Note_on_c, 2, 66, 0
3, 19104, Note_on_c, 2, 70, 0
3, 19200, Note_on_c, 2, 73, 82
3, 19200, Note_on_c, 2, 77, 82
3, 19200, Note_on_c, 2, 68, 82
3, 19632, Note_on_c, 2, 68, 0
3, 19632, Note_on_c, 2, 77, 0
3, 19632, Note_on_c, 2, 73, 0
3, 19680, Note_on_c, 2, 73, 82
3, 19680, Note_on_c, 2, 77, 73
3, 19680, Note_on_c, 2, 68, 73
3, 19728, Note_on_c, 2, 68, 0
3, 19728, Note_on_c, 2, 77, 0
3, 19728, Note_on_c, 2, 73, 0
3, 19776, Note_on_c, 2, 73, 82
3, 19776, Note_on_c, 2, 77, 73
3, 19776, Note_on_c, 2, 68, 73
3, 19872, Note_on_c, 2, 68, 0
3, 19872, Note_on_c, 2, 77, 0
3, 19872, Note_on_c, 2, 73, 0
3, 19968, Note_on_c, 2, 75, 64
3, 19968, Note_on_c, 2, 71, 73
3, 19968, Note_on_c, 2, 66, 73
3, 20400, Note_on_c, 2, 66, 0
3, 20400, Note_on_c, 2, 71, 0
3, 20400, Note_on_c, 2, 75, 0
3, 20448, Note_on_c, 2, 70, 73
3, 20448, Note_on_c, 2, 73, 73
3, 20448, Note_on_c, 2, 66, 73
3, 20496, Note_on_c, 2, 66, 0
3, 20496, Note_on_c, 2, 73, 0
3, 20496, Note_on_c, 2, 70, 0
3, 20544, Note_on_c, 2, 70, 73
3, 20544, Note_on_c, 2, 66, 73
3, 20544, Note_on_c, 2, 73, 82
3, 20592, Note_on_c, 2, 66, 0
3, 20640, Note_on_c, 2, 73, 0
3, 20640, Note_on_c, 2, 70, 0
3, 20736, Note_on_c, 2, 73, 73
3, 20736, Note_on_c, 2, 77, 73
3, 20736, Note_on_c, 2, 68, 64
3, 21168, Note_on_c, 2, 68, 0
3, 21168, Note_on_c, 2, 77, 0
3, 21168, Note_on_c, 2, 73, 0
3, 21216, Note_on_c, 2, 73, 73
3, 21216, Note_on_c, 2, 68, 82
3, 21216, Note_on_c, 2, 77, 73
3, 21264, Note_on_c, 2, 77, 0
3, 21264, Note_on_c, 2, 68, 0
3, 21264, Note_on_c, 2, 73, 0
3, 21312, Note_on_c, 2, 73, 73
3, 21312, Note_on_c, 2, 77, 73
3, 21312, Note_on_c, 2, 68, 64
3, 21408, Note_on_c, 2, 68, 0
3, 21408, Note_on_c, 2, 77, 0
3, 21408, Note_on_c, 2, 73, 0
3, 21504, Note_on_c, 2, 75, 64
3, 21504, Note_on_c, 2, 71, 64
3, 21504, Note_on_c, 2, 66, 73
3, 21936, Note_on_c, 2, 66, 0
3, 21936, Note_on_c, 2, 71, 0
3, 21936, Note_on_c, 2, 75, 0
3, 21984, Note_on_c, 2, 70, 73
3, 21984, Note_on_c, 2, 73, 73
3, 21984, Note_on_c, 2, 66, 60
3, 22032, Note_on_c, 2, 66, 0
3, 22032, Note_on_c, 2, 73, 0
3, 22032, Note_on_c, 2, 70, 0
3, 22080, Note_on_c, 2, 70, 64
3, 22080, Note_on_c, 2, 66, 64
3, 22080, Note_on_c, 2, 73, 73
3, 22176, Note_on_c, 2, 73, 0
3, 22176, Note_on_c, 2, 66, 0
3, 22176, Note_on_c, 2, 70, 0
3, 22272, Note_on_c, 2, 73, 82
3, 22272, Note_on_c, 2, 77, 82
3, 22272, Note_on_c, 2, 68, 82
3, 22704, Note_on_c, 2, 68, 0
3, 22704, Note_on_c, 2, 77, 0
3, 22704, Note_on_c, 2, 73, 0
3, 22752, Note_on_c, 2, 73, 82
3, 22752, Note_on_c, 2, 77, 73
3, 22752, Note_on_c, 2, 68, 73
3, 22800, Note_on_c, 2, 68, 0
3, 22800, Note_on_c, 2, 77, 0
3, 22800, Note_on_c, 2, 73, 0
3, 22848, Note_on_c, 2, 73, 82
3, 22848, Note_on_c, 2, 77, 73
3, 22848, Note_on_c, 2, 68, 73
3, 22944, Note_on_c, 2, 68, 0
3, 22944, Note_on_c, 2, 77, 0
3, 22944, Note_on_c, 2, 73, 0
3, 23040, Note_on_c, 2, 75, 64
3, 23040, Note_on_c, 2, 71, 73
3, 23040, Note_on_c, 2, 66, 73
3, 23472, Note_on_c, 2, 66, 0
3, 23472, Note_on_c, 2, 71, 0
3, 23472, Note_on_c, 2, 75, 0
3, 23520, Note_on_c, 2, 70, 73
3, 23520, Note_on_c, 2, 73, 73
3, 23520, Note_on_c, 2, 66, 73
3, 23568, Note_on_c, 2, 66, 0
3, 23568, Note_on_c, 2, 73, 0
3, 23568, Note_on_c, 2, 70, 0
3, 23616, Note_on_c, 2, 70, 73
3, 23616, Note_on_c, 2, 66, 73
3, 23616, Note_on_c, 2, 73, 82
3, 23664, Note_on_c, 2, 66, 0
3, 23712, Note_on_c, 2, 73, 0
3, 23712, Note_on_c, 2, 70, 0
3, 23808, Note_on_c, 2, 73, 73
3, 23808, Note_on_c, 2, 77, 73
3, 23808, Note_on_c, 2, 68, 64
3, 24240, Note_on_c, 2, 68, 0
3, 24240, Note_on_c, 2, 77, 0
3, 24240, Note_on_c, 2, 73, 0
3, 24288, Note_on_c, 2, 73, 73
3, 24288, Note_on_c, 2, 68, 82
3, 24288, Note_on_c, 2, 77, 73
3, 24336, Note_on_c, 2, 77, 0
3, 24336, Note_on_c, 2, 68, 0
3, 24336, Note_on_c, 2, 73, 0
3, 24384, Note_on_c, 2, 73, 73
3, 24384, Note_on_c, 2, 77, 73
3, 24384, Note_on_c, 2, 68, 64
3, 24480, Note_on_c, 2, 68, 0
3, 24480, Note_on_c, 2, 77, 0
3, 24480, Note_on_c, 2, 73, 0
3, 24576, Note_on_c, 2, 75, 64
3, 24576, Note_on_c, 2, 71, 64
3, 24576, Note_on_c, 2, 66, 73
3, 25008, Note_on_c, 2, 66, 0
3, 25008, Note_on_c, 2, 71, 0
3, 25008, Note_on_c, 2, 75, 0
3, 25056, Note_on_c, 2, 70, 73
3, 25056, Note_on_c, 2, 73, 73
3, 25056, Note_on_c, 2, 66, 60
3, 25104, Note_on_c, 2, 66, 0
3, 25104, Note_on_c, 2, 73, 0
3, 25104, Note_on_c, 2, 70, 0
3, 25152, Note_on_c, 2, 70, 64
3, 25152, Note_on_c, 2, 66, 64
3, 25152, Note_on_c, 2, 73, 73
3, 25248, Note_on_c, 2, 73, 0
3, 25248, Note_on_c, 2, 66, 0
3, 25248, Note_on_c, 2, 70, 0
3, 25344, Note_on_c, 2, 73, 82
3, 25344, Note_on_c, 2, 77, 82
3, 25344, Note_on_c, 2, 68, 82
3, 25776, Note_on_c, 2, 68, 0
3, 25776, Note_on_c, 2, 77, 0
3, 25776, Note_on_c, 2, 73, 0
3, 25824, Note_on_c, 2, 73, 82
3, 25824, Note_on_c, 2, 77, 73
3, 25824, Note_on_c, 2, 68, 73
3, 25872, Note_on_c, 2, 68, 0
3, 25872, Note_on_c, 2, 77, 0
3, 25872, Note_on_c, 2, 73, 0
3, 25920, Note_on_c, 2, 73, 82
3, 25920, Note_on_c, 2, 77, 73
3, 25920, Note_on_c, 2, 68, 73
3, 26016, Note_on_c, 2, 68, 0
3, 26016, Note_on_c, 2, 77, 0
3, 26016, Note_on_c, 2, 73, 0
3, 26112, Note_on_c, 2, 75, 64
3, 26112, Note_on_c, 2, 71, 73
3, 26112, Note_on_c, 2, 66, 73
3, 26544, Note_on_c, 2, 66, 0
3, 26544, Note_on_c, 2, 71, 0
3, 26544, Note_on_c, 2, 75, 0
3, 26592, Note_on_c, 2, 70, 73
3, 26592, Note_on_c, 2, 73, 73
3, 26592, Note_on_c, 2, 66, 73
3, 26640, Note_on_c, 2, 66, 0
3, 26640, Note_on_c, 2, 73, 0
3, 26640, Note_on_c, 2, 70, 0
3, 26688, Note_on_c, 2, 70, 73
3, 26688, Note_on_c, 2, 66, 73
3, 26688, Note_on_c, 2, 73, 82
3, 26736, Note_on_c, 2, 66, 0
3, 26784, Note_on_c, 2, 73, 0
3, 26784, Note_on_c, 2, 70, 0
3, 26880, Note_on_c, 2, 73, 73
3, 26880, Note_on_c, 2, 77, 73
3, 26880, Note_on_c, 2, 68, 64
3, 27312, Note_on_c, 2, 68, 0
3, 27312, Note_on_c, 2, 77, 0
3, 27312, Note_on_c, 2, 73, 0
3, 27360, Note_on_c, 2, 73, 73
3, 27360, Note_on_c, 2, 68, 82
3, 27360, Note_on_c, 2, 77, 73
3, 27408, Note_on_c, 2, 77, 0
3, 27408, Note_on_c, 2, 68, 0
3, 27408, Note_on_c, 2, 73, 0
3, 27456, Note_on_c, 2, 73, 73
3, 27456, Note_on_c, 2, 77, 73
3, 27456, Note_on_c, 2, 68, 64
3, 27552, Note_on_c, 2, 68, 0
3, 27552, Note_on_c, 2, 77, 0
3, 27552, Note_on_c, 2, 73, 0
3, 27648, Note_on_c, 2, 75, 64
3, 27648, Note_on_c, 2, 71, 64
3, 27648, Note_on_c, 2, 66, 73
3, 28080, Note_on_c, 2, 66, 0
3, 28080, Note_on_c, 2, 71, 0
3, 28080, Note_on_c, 2, 75, 0
3, 28128, Note_on_c, 2, 70, 73
3, 28128, Note_on_c, 2, 73, 73
3, 28128, Note_on_c, 2, 66, 60
3, 28176, Note_on_c, 2, 66, 0
3, 28176, Note_on_c, 2, 73, 0
3, 28176, Note_on_c, 2, 70, 0
3, 28224, Note_on_c, 2, 70, 64
3, 28224, Note_on_c, 2, 66, 64
3, 28224, Note_on_c, 2, 73, 73
3, 28320, Note_on_c, 2, 73, 0
3, 28320, Note_on_c, 2, 66, 0
3, 28320, Note_on_c, 2, 70, 0
3, 28416, Note_on_c, 2, 73, 82
3, 28416, Note_on_c, 2, 77, 82
3, 28416, Note_on_c, 2, 68, 82
3, 28848, Note_on_c, 2, 68, 0
3, 28848, Note_on_c, 2, 77, 0
3, 28848, Note_on_c, 2, 73, 0
3, 28896, Note_on_c, 2, 73, 82
3, 28896, Note_on_c, 2, 77, 73
3, 28896, Note_on_c, 2, 68, 73
3, 28944, Note_on_c, 2, 68, 0
3, 28944, Note_on_c, 2, 77, 0
3, 28944, Note_on_c, 2, 73, 0
3, 28992, Note_on_c, 2, 73, 82
3, 28992, Note_on_c, 2, 77, 73
3, 28992, Note_on_c, 2, 68, 73
3, 29088, Note_on_c, 2, 68, 0
3, 29088, Note_on_c, 2, 77, 0
3, 29088, Note_on_c, 2, 73, 0
3, 29184, Note_on_c, 2, 75, 64
3, 29184, Note_on_c, 2, 71, 73
3, 29184, Note_on_c, 2, 66, 73
3, 29616, Note_on_c, 2, 66, 0
3, 29616, Note_on_c, 2, 71, 0
3, 29616, Note_on_c, 2, 75, 0
3, 29664, Note_on_c, 2, 70, 73
3, 29664, Note_on_c, 2, 73, 73
3, 29664, Note_on_c, 2, 66, 73
3, 29712, Note_on_c, 2, 66, 0
3, 29712, Note_on_c, 2, 73, 0
3, 29712, Note_on_c, 2, 70, 0
3, 29760, Note_on_c, 2, 70, 73
3, 29760, Note_on_c, 2, 66, 73
3, 29760, Note_on_c, 2, 73, 82
3, 29808, Note_on_c, 2, 66, 0
3, 29856, Note_on_c, 2, 73, 0
3, 29856, Note_on_c, 2, 70, 0
3, 29952, Note_on_c, 2, 73, 73
3, 29952, Note_on_c, 2, 77, 73
3, 29952, Note_on_c, 2, 68, 64
3, 30384, Note_on_c, 2, 68, 0
3, 30384, Note_on_c, 2, 77, 0
3, 30384, Note_on_c, 2, 73, 0
3, 30432, Note_on_c, 2, 73, 73
3, 30432, Note_on_c, 2, 68, 82
3, 30432, Note_on_c, 2, 77, 73
3, 30480, Note_on_c, 2, 77, 0
3, 30480, Note_on_c, 2, 68, 0
3, 30480, Note_on_c, 2, 73, 0
3, 30528, Note_on_c, 2, 73, 73
3, 30528, Note_on_c, 2, 77, 73
3, 30528, Note_on_c, 2, 68, 64
3, 30624, Note_on_c, 2, 68, 0
3, 30624, Note_on_c, 2, 77, 0
3, 30624, Note_on_c, 2, 73, 0
3, 30720, Note_on_c, 2, 75, 64
3, 30720, Note_on_c, 2, 71, 64
3, 30720, Note_on_c, 2, 66, 73
3, 31152, Note_on_c, 2, 66, 0
3, 31152, Note_on_c, 2, 71, 0
3, 31152, Note_on_c, 2, 75, 0
3, 31200, Note_on_c, 2, 70, 73
3, 31200, Note_on_c, 2, 73, 73
3, 31200, Note_on_c, 2, 66, 60
3, 31248, Note_on_c, 2, 66, 0
3, 31248, Note_on_c, 2, 73, 0
3, 31248, Note_on_c, 2, 70, 0
3, 31296, Note_on_c, 2, 70, 64
3, 31296, Note_on_c, 2, 66, 64
3, 31296, Note_on_c, 2, 73, 73
3, 31392, Note_on_c, 2, 73, 0
3, 31392, Note_on_c, 2, 66, 0
3, 31392, Note_on_c, 2, 70, 0
3, 31488, Note_on_c, 2, 73, 82
3, 31488, Note_on_c, 2, 77, 82
3, 31488, Note_on_c, 2, 68, 82
3, 31920, Note_on_c, 2, 68, 0
3, 31920, Note_on_c, 2, 77, 0
3, 31920, Note_on_c, 2, 73, 0
3, 31968, Note_on_c, 2, 73, 82
3, 31968, Note_on_c, 2, 77, 73
3, 31968, Note_on_c, 2, 68, 73
3, 32016, Note_on_c, 2, 68, 0
3, 32016, Note_on_c, 2, 77, 0
3, 32016, Note_on_c, 2, 73, 0
3, 32064, Note_on_c, 2, 73, 82
3, 32064, Note_on_c, 2, 77, 73
3, 32064, Note_on_c, 2, 68, 73
3, 32160, Note_on_c, 2, 68, 0
3, 32160, Note_on_c, 2, 77, 0
3, 32160, Note_on_c, 2, 73, 0
3, 32256, Note_on_c, 2, 75, 64
3, 32256, Note_on_c, 2, 71, 73
3, 32256, Note_on_c, 2, 66, 73
3, 32688, Note_on_c, 2, 66, 0
3, 32688, Note_on_c, 2, 71, 0
3, 32688, Note_on_c, 2, 75, 0
3, 32736, Note_on_c, 2, 70, 73
3, 32736, Note_on_c, 2, 73, 73
3, 32736, Note_on_c, 2, 66, 73
3, 32784, Note_on_c, 2, 66, 0
3, 32784, Note_on_c, 2, 73, 0
3, 32784, Note_on_c, 2, 70, 0
3, 32832, Note_on_c, 2, 70, 73
3, 32832, Note_on_c, 2, 66, 73
3, 32832, Note_on_c, 2, 73, 82
3, 32880, Note_on_c, 2, 66, 0
3, 32928, Note_on_c, 2, 73, 0
3, 32928, Note_on_c, 2, 70, 0
3, 33024, Note_on_c, 2, 73, 73
3, 33024, Note_on_c, 2, 77, 73
3, 33024, Note_on_c, 2, 68, 64
3, 33456, Note_on_c, 2, 68, 0
3, 33456, Note_on_c, 2, 77, 0
3, 33456, Note_on_c, 2, 73, 0
3, 33504, Note_on_c, 2, 73, 73
3, 33504, Note_on_c, 2, 68, 82
3, 33504, Note_on_c, 2, 77, 73
3, 33552, Note_on_c, 2, 77, 0
3, 33552, Note_on_c, 2, 68, 0
3, 33552, Note_on_c, 2, 73, 0
3, 33600, Note_on_c, 2, 73, 73
3, 33600, Note_on_c, 2, 77, 73
3, 33600, Note_on_c, 2, 68, 64
3, 33696, Note_on_c, 2, 68, 0
3, 33696, Note_on_c, 2, 77, 0
3, 33696, Note_on_c, 2, 73, 0
3, 33792, Note_on_c, 2, 75, 64
3, 33792, Note_on_c, 2, 71, 64
3, 33792, Note_on_c, 2, 66, 73
3, 34224, Note_on_c, 2, 66, 0
3, 34224, Note_on_c, 2, 71, 0
3, 34224, Note_on_c, 2, 75, 0
3, 34272, Note_on_c, 2, 70, 73
3, 34272, Note_on_c, 2, 73, 73
3, 34272, Note_on_c, 2, 66, 60
3, 34320, Note_on_c, 2, 66, 0
3, 34320, Note_on_c, 2, 73, 0
3, 34320, Note_on_c, 2, 70, 0
3, 34368, Note_on_c, 2, 70, 64
3, 34368, Note_on_c, 2, 66, 64
3, 34368, Note_on_c, 2, 73, 73
3, 34464, Note_on_c, 2, 73, 0
3, 34464, Note_on_c, 2, 66, 0
3, 34464, Note_on_c, 2, 70, 0
3, 34560, Note_on_c, 2, 73, 82
3, 34560, Note_on_c, 2, 77, 82
3, 34560, Note_on_c, 2, 68, 82
3, 34992, Note_on_c, 2, 68, 0
3, 34992, Note_on_c, 2, 77, 0
3, 34992, Note_on_c, 2, 73, 0
3, 35040, Note_on_c, 2, 73, 82
3, 35040, Note_on_c, 2, 77, 73
3, 35040, Note_on_c, 2, 68, 73
3, 35088, Note_on_c, 2, 68, 0
3, 35088, Note_on_c, 2, 77, 0
3, 35088, Note_on_c, 2, 73, 0
3, 35136, Note_on_c, 2, 73, 82
3, 35136, Note_on_c, 2, 77, 73
3, 35136, Note_on_c, 2, 68, 73
3, 35232, Note_on_c, 2, 68, 0
3, 35232, Note_on_c, 2, 77, 0
3, 35232, Note_on_c, 2, 73, 0
3, 35328, Note_on_c, 2, 75, 64
3, 35328, Note_on_c, 2, 71, 73
3, 35328, Note_on_c, 2, 66, 73
3, 35760, Note_on_c, 2, 66, 0
3, 35760, Note_on_c, 2, 71, 0
3, 35760, Note_on_c, 2, 75, 0
3, 35808, Note_on_c, 2, 70, 73
3, 35808, Note_on_c, 2, 73, 73
3, 35808, Note_on_c, 2, 66, 73
3, 35856, Note_on_c, 2, 66, 0
3, 35856, Note_on_c, 2, 73, 0
3, 35856, Note_on_c, 2, 70, 0
3, 35904, Note_on_c, 2, 70, 73
3, 35904, Note_on_c, 2, 66, 73
3, 35904, Note_on_c, 2, 73, 82
3, 35952, Note_on_c, 2, 66, 0
3, 36000, Note_on_c, 2, 73, 0
3, 36000, Note_on_c, 2, 70, 0
3, 36096, Note_on_c, 2, 73, 73
3, 36096, Note_on_c, 2, 77, 73
3, 36096, Note_on_c, 2, 68, 64
3, 36528, Note_on_c, 2, 68, 0
3, 36528, Note_on_c, 2, 77, 0
3, 36528, Note_on_c, 2, 73, 0
3, 36576, Note_on_c, 2, 73, 73
3, 36576, Note_on_c, 2, 68, 82
3, 36576, Note_on_c, 2, 77, 73
3, 36624, Note_on_c, 2, 77, 0
3, 36624, Note_on_c, 2, 68, 0
3, 36624, Note_on_c, 2, 73, 0
3, 36672, Note_on_c, 2, 73, 73
3, 36672, Note_on_c, 2, 77, 73
3, 36672, Note_on_c, 2, 68, 64
3, 36768, Note_on_c, 2, 68, 0
3, 36768, Note_on_c, 2, 77, 0
3, 36768, Note_on_c, 2, 73, 0
3, 36864, Note_on_c, 2, 75, 64
3, 36864, Note_on_c, 2, 71, 64
3, 36864, Note_on_c, 2, 66, 73
3, 37296, Note_on_c, 2, 66, 0
3, 37296, Note_on_c, 2, 71, 0
3, 37296, Note_on_c, 2, 75, 0
3, 37344, Note_on_c, 2, 70, 73
3, 37344, Note_on_c, 2, 73, 73
3, 37344, Note_on_c, 2, 66, 60
3, 37392, Note_on_c, 2, 66, 0
3, 37392, Note_on_c, 2, 73, 0
3, 37392, Note_on_c, 2, 70, 0
3, 37440, Note_on_c, 2, 70, 64
3, 37440, Note_on_c, 2, 66, 64
3, 37440, Note_on_c, 2, 73, 73
3, 37536, Note_on_c, 2, 73, 0
3, 37536, Note_on_c, 2, 66, 0
3, 37536, Note_on_c, 2, 70, 0
3, 37632, Note_on_c, 2, 73, 82
3, 37632, Note_on_c, 2, 77, 82
3, 37632, Note_on_c, 2, 68, 82
3, 38064, Note_on_c, 2, 68, 0
3, 38064, Note_on_c, 2, 77, 0
3, 38064, Note_on_c, 2, 73, 0
3, 38112, Note_on_c, 2, 73, 82
3, 38112, Note_on_c, 2, 77, 73
3, 38112, Note_on_c, 2, 68, 73
3, 38160, Note_on_c, 2, 68, 0
3, 38160, Note_on_c, 2, 77, 0
3, 38160, Note_on_c, 2, 73, 0
3, 38208, Note_on_c, 2, 73, 82
3, 38208, Note_on_c, 2, 77, 73
3, 38208, Note_on_c, 2, 68, 73
3, 38304, Note_on_c, 2, 68, 0
3, 38304, Note_on_c, 2, 77, 0
3, 38304, Note_on_c, 2, 73, 0
3, 38400, Note_on_c, 2, 75, 64
3, 38400, Note_on_c, 2, 71, 73
3, 38400, Note_on_c, 2, 66, 73
3, 38832, Note_on_c, 2, 66, 0
3, 38832, Note_on_c, 2, 71, 0
3, 38832, Note_on_c, 2, 75, 0
3, 38880, Note_on_c, 2, 70, 73
3, 38880, Note_on_c, 2, 73, 73
3, 38880, Note_on_c, 2, 66, 73
3, 38928, Note_on_c, 2, 66, 0
3, 38928, Note_on_c, 2, 73, 0
3, 38928, Note_on_c, 2, 70, 0
3, 38976, Note_on_c, 2, 70, 73
3, 38976, Note_on_c, 2, 66, 73
3, 38976, Note_on_c, 2, 73, 82
3, 39024, Note_on_c, 2, 66, 0
3, 39072, Note_on_c, 2, 73, 0
3, 39072, Note_on_c, 2, 70, 0
3, 39168, Note_on_c, 2, 73, 73
3, 39168, Note_on_c, 2, 77, 73
3, 39168, Note_on_c, 2, 68, 64
3, 39600, Note_on_c, 2, 68, 0
3, 39600, Note_on_c, 2, 77, 0
3, 39600, Note_on_c, 2, 73, 0
3, 39648, Note_on_c, 2, 73, 73
3, 39648, Note_on_c, 2, 68, 82
3, 39648, Note_on_c, 2, 77, 73
3, 39696, Note_on_c, 2, 77, 0
3, 39696, Note_on_c, 2, 68, 0
3, 39696, Note_on_c, 2, 73, 0
3, 39744, Note_on_c, 2, 73, 73
3, 39744, Note_on_c, 2, 77, 73
3, 39744, Note_on_c, 2, 68, 64
3, 39840, Note_on_c, 2, 68, 0
3, 39840, Note_on_c, 2, 77, 0
3, 39840, Note_on_c, 2, 73, 0
3, 39936, Note_on_c, 2, 75, 64
3, 39936, Note_on_c, 2, 71, 64
3, 39936, Note_on_c, 2, 66, 73
3, 40368, Note_on_c, 2, 66, 0
3, 40368, Note_on_c, 2, 71, 0
3, 40368, Note_on_c, 2, 75, 0
3, 40416, Note_on_c, 2, 70, 73
3, 40416, Note_on_c, 2, 73, 73
3, 40416, Note_on_c, 2, 66, 60
3, 40464, Note_on_c, 2, 66, 0
3, 40464, Note_on_c, 2, 73, 0
3, 40464, Note_on_c, 2, 70, 0
3, 40512, Note_on_c, 2, 70, 64
3, 40512, Note_on_c, 2, 66, 64
3, 40512, Note_on_c, 2, 73, 73
3, 40608, Note_on_c, 2, 73, 0
3, 40608, Note_on_c, 2, 66, 0
3, 40608, Note_on_c, 2, 70, 0
3, 40704, Note_on_c, 2, 73, 82
3, 40704, Note_on_c, 2, 77, 82
3, 40704, Note_on_c, 2, 68, 82
3, 41136, Note_on_c, 2, 68, 0
3, 41136, Note_on_c, 2, 77, 0
3, 41136, Note_on_c, 2, 73, 0
3, 41184, Note_on_c, 2, 73, 82
3, 41184, Note_on_c, 2, 77, 73
3, 41184, Note_on_c, 2, 68, 73
3, 41232, Note_on_c, 2, 68, 0
3, 41232, Note_on_c, 2, 77, 0
3, 41232, Note_on_c, 2, 73, 0
3, 41280, Note_on_c, 2, 73, 82
3, 41280, Note_on_c, 2, 77, 73
3, 41280, Note_on_c, 2, 68, 73
3, 41376, Note_on_c, 2, 68, 0
3, 41376, Note_on_c, 2, 77, 0
3, 41376, Note_on_c, 2, 73, 0
3, 41472, Note_on_c, 2, 75, 64
3, 41472, Note_on_c, 2, 71, 73
3, 41472, Note_on_c, 2, 66, 73
3, 41904, Note_on_c, 2, 66, 0
3, 41904, Note_on_c, 2, 71, 0
3, 41904, Note_on_c, 2, 75, 0
3, 41952, Note_on_c, 2, 70, 73
3, 41952, Note_on_c, 2, 73, 73
3, 41952, Note_on_c, 2, 66, 73
3, 42000, Note_on_c, 2, 66, 0
3, 42000, Note_on_c, 2, 73, 0
3, 42000, Note_on_c, 2, 70, 0
3, 42048, Note_on_c, 2, 70, 73
3, 42048, Note_on_c, 2, 66, 73
3, 42048, Note_on_c, 2, 73, 82
3, 42096, Note_on_c, 2, 66, 0
3, 42144, Note_on_c, 2, 73, 0
3, 42144, Note_on_c, 2, 70, 0
3, 42240, Note_on_c, 2, 73, 73
3, 42240, Note_on_c, 2, 77, 73
3, 42240, Note_on_c, 2, 68, 64
3, 42672, Note_on_c, 2, 68, 0
3, 42672, Note_on_c, 2, 77, 0
3, 42672, Note_on_c, 2, 73, 0
3, 42720, Note_on_c, 2, 73, 73
3, 42720, Note_on_c, 2, 68, 82
3, 42720, Note_on_c, 2, 77, 73
3, 42768, Note_on_c, 2, 77, 0
3, 42768, Note_on_c, 2, 68, 0
3, 42768, Note_on_c, 2, 73, 0
3, 42816, Note_on_c, 2, 73, 73
3, 42816, Note_on_c, 2, 77, 73
3, 42816, Note_on_c, 2, 68, 64
3, 42912, Note_on_c, 2, 68, 0
3, 42912, Note_on_c, 2, 77, 0
3, 42912, Note_on_c, 2, 73, 0
3, 43008, Note_on_c, 2, 75, 64
3, 43008, Note_on_c, 2, 71, 64
3, 43008, Note_on_c, 2, 66, 73
3, 43440, Note_on_c, 2, 66, 0
3, 43440, Note_on_c, 2, 71, 0
3, 43440, Note_on_c, 2, 75, 0
3, 43488, Note_on_c, 2, 70, 73
3, 43488, Note_on_c, 2, 73, 73
3, 43488, Note_on_c, 2, 66, 60
3, 43536, Note_on_c, 2, 66, 0
3, 43536, Note_on_c, 2, 73, 0
3, 43536, Note_on_c, 2, 70, 0
3, 43584, Note_on_c, 2, 70, 64
3, 43584, Note_on_c, 2, 66, 64
3, 43584, Note_on_c, 2, 73, 73
3, 43680, Note_on_c, 2, 73, 0
3, 43680, Note_on_c, 2, 66, 0
3, 43680, Note_on_c, 2, 70, 0
3, 43776, Note_on_c, 2, 73, 82
3, 43776, Note_on_c, 2, 77, 82
3, 43776, Note_on_c, 2, 68, 82
3, 44208, Note_on_c, 2, 68, 0
3, 44208, Note_on_c, 2, 77, 0
3, 44208, Note_on_c, 2, 73, 0
3, 44256, Note_on_c, 2, 73, 82
3, 44256, Note_on_c, 2, 77, 73
3, 44256, Note_on_c, 2, 68, 73
3, 44304, Note_on_c, 2, 68, 0
3, 44304, Note_on_c, 2, 77, 0
3, 44304, Note_on_c, 2, 73, 0
3, 44352, Note_on_c, 2, 73, 82
3, 44352, Note_on_c, 2, 77, 73
3, 44352, Note_on_c, 2, 68, 73
3, 44448, Note_on_c, 2, 68, 0
3, 44448, Note_on_c, 2, 77, 0
3, 44448, Note_on_c, 2, 73, 0
3, 44544, Note_on_c, 2, 75, 64
3, 44544, Note_on_c, 2, 71, 73
3, 44544, Note_on_c, 2, 66, 73
3, 44976, Note_on_c, 2, 66, 0
3, 44976, Note_on_c, 2, 71, 0
3, 44976, Note_on_c, 2, 75, 0
3, 45024, Note_on_c, 2, 70, 73
3, 45024, Note_on_c, 2, 73, 73
3, 45024, Note_on_c, 2, 66, 73
3, 45072, Note_on_c, 2, 66, 0
3, 45072, Note_on_c, 2, 73, 0
3, 45072, Note_on_c, 2, 70, 0
3, 45120, Note_on_c, 2, 70, 73
3, 45120, Note_on_c, 2, 66, 73
3, 45120, Note_on_c, 2, 73, 82
3, 45168, Note_on_c, 2, 66, 0
3, 45216, Note_on_c, 2, 73, 0
3, 45216, Note_on_c, 2, 70, 0
3, 45312, Note_on_c, 2, 73, 73
3, 45312, Note_on_c, 2, 77, 73
3, 45312, Note_on_c, 2, 68, 64
3, 45744, Note_on_c, 2, 68, 0
3, 45744, Note_on_c, 2, 77, 0
3, 45744, Note_on_c, 2, 73, 0
3, 45792, Note_on_c, 2, 73, 73
3, 45792, Note_on_c, 2, 68, 82
3, 45792, Note_on_c, 2, 77, 73
3, 45840, Note_on_c, 2, 77, 0
3, 45840, Note_on_c, 2, 68, 0
3, 45840, Note_on_c, 2, 73, 0
3, 45888, Note_on_c, 2, 73, 73
3, 45888, Note_on_c, 2, 77, 73
3, 45888, Note_on_c, 2, 68, 64
3, 45984, Note_on_c, 2, 68, 0
3, 45984, Note_on_c, 2, 77, 0
3, 45984, Note_on_c, 2, 73, 0
3, 46080, Note_on_c, 2, 75, 64
3, 46080, Note_on_c, 2, 71, 64
3, 46080, Note_on_c, 2, 66, 73
3, 46512, Note_on_c, 2, 66, 0
3, 46512, Note_on_c, 2, 71, 0
3, 46512, Note_on_c, 2, 75, 0
3, 46560, Note_on_c, 2, 70, 73
3, 46560, Note_on_c, 2, 73, 73
3, 46560, Note_on_c, 2, 66, 60
3, 46608, Note_on_c, 2, 66, 0
3, 46608, Note_on_c, 2, 73, 0
3, 46608, Note_on_c, 2, 70, 0
3, 46656, Note_on_c, 2, 70, 64
3, 46656, Note_on_c, 2, 66, 64
3, 46656, Note_on_c, 2, 73, 73
3, 46752, Note_on_c, 2, 73, 0
3, 46752, Note_on_c, 2, 66, 0
3, 46752, Note_on_c, 2, 70, 0
3, 46848, Note_on_c, 2, 73, 82
3, 46848, Note_on_c, 2, 77, 82
3, 46848, Note_on_c, 2, 68, 82
3, 47280, Note_on_c, 2, 68, 0
3, 47280, Note_on_c, 2, 77, 0
3, 47280, Note_on_c, 2, 73, 0
3, 47328, Note_on_c, 2, 73, 82
3, 47328, Note_on_c, 2, 77, 73
3, 47328, Note_on_c, 2, 68, 73
3, 47376, Note_on_c, 2, 68, 0
3, 47376, Note_on_c, 2, 77, 0
3, 47376, Note_on_c, 2, 73, 0
3, 47424, Note_on_c, 2, 73, 82
3, 47424, Note_on_c, 2, 77, 73
3, 47424, Note_on_c, 2, 68, 73
3, 47520, Note_on_c, 2, 68, 0
3, 47520, Note_on_c, 2, 77, 0
3, 47520, Note_on_c, 2, 73, 0
3, 47616, Note_on_c, 2, 75, 64
3, 47616, Note_on_c, 2, 71, 73
3, 47616, Note_on_c, 2, 66, 73
3, 48048, Note_on_c, 2, 66, 0
3, 48048, Note_on_c, 2, 71, 0
3, 48048, Note_on_c, 2, 75, 0
3, 48096, Note_on_c, 2, 70, 73
3, 48096, Note_on_c, 2, 73, 73
3, 48096, Note_on_c, 2, 66, 73
3, 48144, Note_on_c, 2, 66, 0
3, 48144, Note_on_c, 2, 73, 0
3, 48144, Note_on_c, 2, 70, 0
3, 48192, Note_on_c, 2, 70, 73
3, 48192, Note_on_c, 2, 66, 73
3, 48192, Note_on_c, 2, 73, 82
3, 48240, Note_on_c, 2, 66, 0
3, 48288, Note_on_c, 2, 73, 0
3, 48288, Note_on_c, 2, 70, 0
3, 48384, Note_on_c, 2, 73, 73
3, 48384, Note_on_c, 2, 77, 73
3, 48384, Note_on_c, 2, 68, 64
3, 48816, Note_on_c, 2, 68, 0
3, 48816, Note_on_c, 2, 77, 0
3, 48816, Note_on_c, 2, 73, 0
3, 48864, Note_on_c, 2, 73, 73
3, 48864, Note_on_c, 2, 68, 82
3, 48864, Note_on_c, 2, 77, 73
3, 48912, Note_on_c, 2, 77, 0
3, 48912, Note_on_c, 2, 68, 0
3, 48912, Note_on_c, 2, 73, 0
3, 48960, Note_on_c, 2, 73, 73
3, 48960, Note_on_c, 2, 77, 73
3, 48960, Note_on_c, 2, 68, 64
3, 49056, Note_on_c, 2, 68, 0
3, 49056, Note_on_c, 2, 77, 0
3, 49056, Note_on_c, 2, 73, 0
3, 49152, Note_on_c, 2, 75, 64
3, 49152, Note_on_c, 2, 71, 64
3, 49152, Note_on_c, 2, 66, 73
3, 49584, Note_on_c, 2, 66, 0
3, 49584, Note_on_c, 2, 71, 0
3, 49584, Note_on_c, 2, 75, 0
3, 49632, Note_on_c, 2, 70, 73
3, 49632, Note_on_c, 2, 73, 73
3, 49632, Note_on_c, 2, 66, 60
3, 49680, Note_on_c, 2, 66, 0
3, 49680, Note_on_c, 2, 73, 0
3, 49680, Note_on_c, 2, 70, 0
3, 49728, Note_on_c, 2, 70, 64
3, 49728, Note_on_c, 2, 66, 64
3, 49728, Note_on_c, 2, 73, 73
3, 49824, Note_on_c, 2, 73, 0
3, 49824, Note_on_c, 2, 66, 0
3, 49824, Note_on_c, 2, 70, 0
3, 49920, Note_on_c, 2, 73, 82
3, 49920, Note_on_c, 2, 77, 82
3, 49920, Note_on_c, 2, 68, 82
3, 50352, Note_on_c, 2, 68, 0
3, 50352, Note_on_c, 2, 77, 0
3, 50352, Note_on_c, 2, 73, 0
3, 50400, Note_on_c, 2, 73, 82
3, 50400, Note_on_c, 2, 77, 73
3, 50400, Note_on_c, 2, 68, 73
3, 50448, Note_on_c, 2, 68, 0
3, 50448, Note_on_c, 2, 77, 0
3, 50448, Note_on_c, 2, 73, 0
3, 50496, Note_on_c, 2, 73, 82
3, 50496, Note_on_c, 2, 77, 73
3, 50496, Note_on_c, 2, 68, 73
3, 50592, Note_on_c, 2, 68, 0
3, 50592, Note_on_c, 2, 77, 0
3, 50592, Note_on_c, 2, 73, 0
3, 50688, Note_on_c, 2, 75, 64
3, 50688, Note_on_c, 2, 71, 73
3, 50688, Note_on_c, 2, 66, 73
3, 51120, Note_on_c, 2, 66, 0
3, 51120, Note_on_c, 2, 71, 0
3, 51120, Note_on_c, 2, 75, 0
3, 51168, Note_on_c, 2, 70, 73
3, 51168, Note_on_c, 2, 73, 73
3, 51168, Note_on_c, 2, 66, 73
3, 51216, Note_on_c, 2, 66, 0
3, 51216, Note_on_c, 2, 73, 0
3, 51216, Note_on_c, 2, 70, 0
3, 51264, Note_on_c, 2, 70, 73
3, 51264, Note_on_c, 2, 66, 73
3, 51264, Note_on_c, 2, 73, 82
3, 51312, Note_on_c, 2, 66, 0
3, 51360, Note_on_c, 2, 73, 0
3, 51360, Note_on_c, 2, 70, 0
3, 51456, Note_on_c, 2, 73, 73
3, 51456, Note_on_c, 2, 77, 73
3, 51456, Note_on_c, 2, 68, 64
3, 51888, Note_on_c, 2, 68, 0
3, 51888, Note_on_c, 2, 77, 0
3, 51888, Note_on_c, 2, 73, 0
3, 51936, Note_on_c, 2, 73, 73
3, 51936, Note_on_c, 2, 68, 82
3, 51936, Note_on_c, 2, 77, 73
3, 51984, Note_on_c, 2, 77, 0
3, 51984, Note_on_c, 2, 68, 0
3, 51984, Note_on_c, 2, 73, 0
3, 52032, Note_on_c, 2, 73, 73
3, 52032, Note_on_c, 2, 77, 73
3, 52032, Note_on_c, 2, 68, 64
3, 52128, Note_on_c, 2, 68, 0
3, 52128, Note_on_c, 2, 77, 0
3, 52128, Note_on_c, 2, 73, 0
3, 52224, Note_on_c, 2, 75, 64
3, 52224, Note_on_c, 2, 71, 64
3, 52224, Note_on_c, 2, 66, 73
3, 52656, Note_on_c, 2, 66, 0
3, 52656, Note_on_c, 2, 71, 0
3, 52656, Note_on_c, 2, 75, 0
3, 52704, Note_on_c, 2, 70, 73
3, 52704, Note_on_c, 2, 73, 73
3, 52704, Note_on_c, 2, 66, 60
3, 52752, Note_on_c, 2, 66, 0
3, 52752, Note_on_c, 2, 73, 0
3, 52752, Note_on_c, 2, 70, 0
3, 52800, Note_on_c, 2, 70, 64
3, 52800, Note_on_c, 2, 66, 64
3, 52800, Note_on_c, 2, 73, 73
3, 52896, Note_on_c, 2, 73, 0
3, 52896, Note_on_c, 2, 66, 0
3, 52896, Note_on_c, 2, 70, 0
3, 52992, Note_on_c, 2, 73, 82
3, 52992, Note_on_c, 2, 77, 82
3, 52992, Note_on_c, 2, 68, 82
3, 53424, Note_on_c, 2, 68, 0
3, 53424, Note_on_c, 2, 77, 0
3, 53424, Note_on_c, 2, 73, 0
3, 53472, Note_on_c, 2, 73, 82
3, 53472, Note_on_c, 2, 77, 73
3, 53472, Note_on_c, 2, 68, 73
3, 53520, Note_on_c, 2, 68, 0
3, 53520, Note_on_c, 2, 77, 0
3, 53520, Note_on_c, 2, 73, 0
3, 53568, Note_on_c, 2, 73, 82
3, 53568, Note_on_c, 2, 77, 73
3, 53568, Note_on_c, 2, 68, 73
3, 53664, Note_on_c, 2, 68, 0
3, 53664, Note_on_c, 2, 77, 0
3, 53664, Note_on_c, 2, 73, 0
3, 53760, Note_on_c, 2, 75, 64
3, 53760, Note_on_c, 2, 71, 73
3, 53760, Note_on_c, 2, 66, 73
3, 54192, Note_on_c, 2, 66, 0
3, 54192, Note_on_c, 2, 71, 0
3, 54192, Note_on_c, 2, 75, 0
3, 54240, Note_on_c, 2, 70, 73
3, 54240, Note_on_c, 2, 73, 73
3, 54240, Note_on_c, 2, 66, 73
3, 54288, Note_on_c, 2, 66, 0
3, 54288, Note_on_c, 2, 73, 0
3, 54288, Note_on_c, 2, 70, 0
3, 54336, Note_on_c, 2, 70, 73
3, 54336, Note_on_c, 2, 66, 73
3, 54336, Note_on_c, 2, 73, 82
3, 54384, Note_on_c, 2, 66, 0
3, 54432, Note_on_c, 2, 73, 0
3, 54432, Note_on_c, 2, 70, 0
3, 54528, Note_on_c, 2, 73, 73
3, 54528, Note_on_c, 2, 77, 73
3, 54528, Note_on_c, 2, 68, 64
3, 54960, Note_on_c, 2, 68, 0
3, 54960, Note_on_c, 2, 77, 0
3, 54960, Note_on_c, 2, 73, 0
3, 55008, Note_on_c, 2, 73, 73
3, 55008, Note_on_c, 2, 68, 82
3, 55008, Note_on_c, 2, 77, 73
3, 55056, Note_on_c, 2, 77, 0
3, 55056, Note_on_c, 2, 68, 0
3, 55056, Note_on_c, 2, 73, 0
3, 55104, Note_on_c, 2, 73, 73
3, 55104, Note_on_c, 2, 77, 73
3, 55104, Note_on_c, 2, 68, 64
3, 55200, Note_on_c, 2, 68, 0
3, 55200, Note_on_c, 2, 77, 0
3, 55200, Note_on_c, 2, 73, 0
3, 55296, Note_on_c, 2, 75, 64
3, 55296, Note_on_c, 2, 71, 64
3, 55296, Note_on_c, 2, 66, 73
3, 55728, Note_on_c, 2, 66, 0
3, 55728, Note_on_c, 2, 71, 0
3, 55728, Note_on_c, 2, 75, 0
3, 55776, Note_on_c, 2, 70, 73
3, 55776, Note_on_c, 2, 73, 73
3, 55776, Note_on_c, 2, 66, 60
3, 55824, Note_on_c, 2, 66, 0
3, 55824, Note_on_c, 2, 73, 0
3, 55824, Note_on_c, 2, 70, 0
3, 55872, Note_on_c, 2, 70, 64
3, 55872, Note_on_c, 2, 66, 64
3, 55872, Note_on_c, 2, 73, 73
3, 55968, Note_on_c, 2, 73, 0
3, 55968, Note_on_c, 2, 66, 0
3, 55968, Note_on_c, 2, 70, 0
3, 56064, Note_on_c, 2, 73, 82
3, 56064, Note_on_c, 2, 77, 82
3, 56064, Note_on_c, 2, 68, 82
3, 56496, Note_on_c, 2, 68, 0
3, 56496, Note_on_c, 2, 77, 0
3, 56496, Note_on_c, 2, 73, 0
3, 56544, Note_on_c, 2, 73, 82
3, 56544, Note_on_c, 2, 77, 73
3, 56544, Note_on_c, 2, 68, 73
3, 56592, Note_on_c, 2, 68, 0
3, 56592, Note_on_c, 2, 77, 0
3, 56592, Note_on_c, 2, 73, 0
3, 56640, Note_on_c, 2, 73, 82
3, 56640, Note_on_c, 2, 77, 73
3, 56640, Note_on_c, 2, 68, 73
3, 56736, Note_on_c, 2, 68, 0
3, 56736, Note_on_c, 2, 77, 0
3, 56736, Note_on_c, 2, 73, 0
3, 56832, Note_on_c, 2, 75, 64
3, 56832, Note_on_c, 2, 71, 73
3, 56832, Note_on_c, 2, 66, 73
3, 57264, Note_on_c, 2, 66, 0
3, 57264, Note_on_c, 2, 71, 0
3, 57264, Note_on_c, 2, 75, 0
3, 57312, Note_on_c, 2, 70, 73
3, 57312, Note_on_c, 2, 73, 73
3, 57312, Note_on_c, 2, 66, 73
3, 57360, Note_on_c, 2, 66, 0
3, 57360, Note_on_c, 2, 73, 0
3, 57360, Note_on_c, 2, 70, 0
3, 57408, Note_on_c, 2, 70, 73
3, 57408, Note_on_c, 2, 66, 73
3, 57408, Note_on_c, 2, 73, 82
3, 57456, Note_on_c, 2, 66, 0
3, 57504, Note_on_c, 2, 73, 0
3, 57504, Note_on_c, 2, 70, 0
3, 57600, Note_on_c, 2, 73, 73
3, 57600, Note_on_c, 2, 77, 73
3, 57600, Note_on_c, 2, 68, 64
3, 58032, Note_on_c, 2, 68, 0
3, 58032, Note_on_c, 2, 77, 0
3, 58032, Note_on_c, 2, 73, 0
3, 58080, Note_on_c, 2, 73, 73
3, 58080, Note_on_c, 2, 68, 82
3, 58080, Note_on_c, 2, 77, 73
3, 58128, Note_on_c, 2, 77, 0
3, 58128, Note_on_c, 2, 68, 0
3, 58128, Note_on_c, 2, 73, 0
3, 58176, Note_on_c, 2, 73, 73
3, 58176, Note_on_c, 2, 77, 73
3, 58176, Note_on_c, 2, 68, 64
3, 58272, Note_on_c, 2, 68, 0
3, 58272, Note_on_c, 2, 77, 0
3, 58272, Note_on_c, 2, 73, 0
3, 58368, Note_on_c, 2, 75, 64
3, 58368, Note_on_c, 2, 71, 64
3, 58368, Note_on_c, 2, 66, 73
3, 58800, Note_on_c, 2, 66, 0
3, 58800, Note_on_c, 2, 71, 0
3, 58800, Note_on_c, 2, 75, 0
3, 58848, Note_on_c, 2, 70, 73
3, 58848, Note_on_c, 2, 73, 73
3, 58848, Note_on_c, 2, 66, 60
3, 58896, Note_on_c, 2, 66, 0
3, 58896, Note_on_c, 2, 73, 0
3, 58896, Note_on_c, 2, 70, 0
3, 58944, Note_on_c, 2, 70, 64
3, 58944, Note_on_c, 2, 66, 64
3, 58944, Note_on_c, 2, 73, 73
3, 59040, Note_on_c, 2, 73, 0
3, 59040, Note_on_c, 2, 66, 0
3, 59040, Note_on_c, 2, 70, 0
3, 59136, Note_on_c, 2, 73, 82
3, 59136, Note_on_c, 2, 77, 82
3, 59136, Note_on_c, 2, 68, 82
3, 59568, Note_on_c, 2, 68, 0
3, 59568, Note_on_c, 2, 77, 0
3, 59568, Note_on_c, 2, 73, 0
3, 59616, Note_on_c, 2, 73, 82
3, 59616, Note_on_c, 2, 77, 73
3, 59616, Note_on_c, 2, 68, 73
3, 59664, Note_on_c, 2, 68, 0
3, 59664, Note_on_c, 2, 77, 0
3, 59664, Note_on_c, 2, 73, 0
3, 59712, Note_on_c, 2, 73, 82
3, 59712, Note_on_c, 2, 77, 73
3, 59712, Note_on_c, 2, 68, 73
3, 59808, Note_on_c, 2, 68, 0
3, 59808, Note_on_c, 2, 77, 0
3, 59808, Note_on_c, 2, 73, 0
3, 59904, Note_on_c, 2, 75, 64
3, 59904, Note_on_c, 2, 71, 73
3, 59904, Note_on_c, 2, 66, 73
3, 60336, Note_on_c, 2, 66, 0
3, 60336, Note_on_c, 2, 71, 0
3, 60336, Note_on_c, 2, 75, 0
3, 60384, Note_on_c, 2, 70, 73
3, 60384, Note_on_c, 2, 73, 73
3, 60384, Note_on_c, 2, 66, 73
3, 60432, Note_on_c, 2, 66, 0
3, 60432, Note_on_c, 2, 73, 0
3, 60432, Note_on_c, 2, 70, 0
3, 60480, Note_on_c, 2, 70, 73
3, 60480, Note_on_c, 2, 66, 73
3, 60480, Note_on_c, 2, 73, 82
3, 60528, Note_on_c, 2, 66, 0
3, 60576, Note_on_c, 2, 73, 0
3, 60576, Note_on_c, 2, 70, 0
3, 60672, Note_on_c, 2, 73, 73
3, 60672, Note_on_c, 2, 77, 73
3, 60672, Note_on_c, 2, 68, 64
3, 61104, Note_on_c, 2, 68, 0
3, 61104, Note_on_c, 2, 77, 0
3, 61104, Note_on_c, 2, 73, 0
3, 61152, Note_on_c, 2, 73, 73
3, 61152, Note_on_c, 2, 68, 82
3, 61152, Note_on_c, 2, 77, 73
3, 61200, Note_on_c, 2, 77, 0
3, 61200, Note_on_c, 2, 68, 0
3, 61200, Note_on_c, 2, 73, 0
3, 61248, Note_on_c, 2, 73, 73
3, 61248, Note_on_c, 2, 77, 73
3, 61248, Note_on_c, 2, 68, 64
3, 61344, Note_on_c, 2, 68, 0
3, 61344, Note_on_c, 2, 77, 0
3, 61344, Note_on_c, 2, 73, 0
3, 61440, Note_on_c, 2, 75, 64
3, 61440, Note_on_c, 2, 71, 64
3, 61440, Note_on_c, 2, 66, 73
3, 61872, Note_on_c, 2, 66, 0
3, 61872, Note_on_c, 2, 71, 0
3, 61872, Note_on_c, 2, 75, 0
3, 61920, Note_on_c, 2, 70, 73
3, 61920, Note_on_c, 2, 73, 73
3, 61920, Note_on_c, 2, 66, 60
3, 61968, Note_on_c, 2, 66, 0
3, 61968, Note_on_c, 2, 73, 0
3, 61968, Note_on_c, 2, 70, 0
3, 62016, Note_on_c, 2, 70, 64
3, 62016, Note_on_c, 2, 66, 64
3, 62016, Note_on_c, 2, 73, 73
3, 62112, Note_on_c, 2, 73, 0
3, 62112, Note_on_c, 2, 66, 0
3, 62112, Note_on_c, 2, 70, 0
3, 62208, Note_on_c, 2, 73, 82
3, 62208, Note_on_c, 2, 77, 82
3, 62208, Note_on_c, 2, 68, 82
3, 62640, Note_on_c, 2, 68, 0
3, 62640, Note_on_c, 2, 77, 0
3, 62640, Note_on_c, 2, 73, 0
3, 62688, Note_on_c, 2, 73, 82
3, 62688, Note_on_c, 2, 77, 73
3, 62688, Note_on_c, 2, 68, 73
3, 62736, Note_on_c, 2, 68, 0
3, 62736, Note_on_c, 2, 77, 0
3, 62736, Note_on_c, 2, 73, 0
3, 62784, Note_on_c, 2, 73, 82
3, 62784, Note_on_c, 2, 77, 73
3, 62784, Note_on_c, 2, 68, 73
3, 62880, Note_on_c, 2, 68, 0
3, 62880, Note_on_c, 2, 77, 0
3, 62880, Note_on_c, 2, 73, 0
3, 62976, Note_on_c, 2, 75, 64
3, 62976, Note_on_c, 2, 71, 73
3, 62976, Note_on_c, 2, 66, 73
3, 63408, Note_on_c, 2, 66, 0
3, 63408, Note_on_c, 2, 71, 0
3, 63408, Note_on_c, 2, 75, 0
3, 63456, Note_on_c, 2, 70, 73
3, 63456, Note_on_c, 2, 73, 73
3, 63456, Note_on_c, 2, 66, 73
3, 63504, Note_on_c, 2, 66, 0
3, 63504, Note_on_c, 2, 73, 0
3, 63504, Note_on_c, 2, 70, 0
3, 63552, Note_on_c, 2, 70, 73
3, 63552, Note_on_c, 2, 66, 73
3, 63552, Note_on_c, 2, 73, 82
3, 63600, Note_on_c, 2, 66, 0
3, 63648, Note_on_c, 2, 73, 0
3, 63648, Note_on_c, 2, 70, 0
3, 63744, Note_on_c, 2, 73, 73
3, 63744, Note_on_c, 2, 77, 73
3, 63744, Note_on_c, 2, 68, 64
3, 64176, Note_on_c, 2, 68, 0
3, 64176, Note_on_c, 2, 77, 0
3, 64176, Note_on_c, 2, 73, 0
3, 64224, Note_on_c, 2, 73, 73
3, 64224, Note_on_c, 2, 68, 82
3, 64224, Note_on_c, 2, 77, 73
3, 64272, Note_on_c, 2, 77, 0
3, 64272, Note_on_c, 2, 68, 0
3, 64272, Note_on_c, 2, 73, 0
3, 64320, Note_on_c, 2, 73, 73
3, 64320, Note_on_c, 2, 77, 73
3, 64320, Note_on_c, 2, 68, 64
3, 64416, Note_on_c, 2, 68, 0
3, 64416, Note_on_c, 2, 77, 0
3, 64416, Note_on_c, 2, 73, 0
3, 64512, Note_on_c, 2, 75, 64
3, 64512, Note_on_c, 2, 71, 64
3, 64512, Note_on_c, 2, 66, 73
3, 64944, Note_on_c, 2, 66, 0
3, 64944, Note_on_c, 2, 71, 0
3, 64944, Note_on_c, 2, 75, 0
3, 64992, Note_on_c, 2, 70, 73
3, 64992, Note_on_c, 2, 73, 73
3, 64992, Note_on_c, 2, 66, 60
3, 65040, Note_on_c, 2, 66, 0
3, 65040, Note_on_c, 2, 73, 0
3, 65040, Note_on_c, 2, 70, 0
3, 65088, Note_on_c, 2, 70, 64
3, 65088, Note_on_c, 2, 66, 64
3, 65088, Note_on_c, 2, 73, 73
3, 65184, Note_on_c, 2, 73, 0
3, 65184, Note_on_c, 2, 66, 0
3, 65184, Note_on_c, 2, 70, 0
3, 65280, Note_on_c, 2, 73, 82
3, 65280, Note_on_c, 2, 77, 82
3, 65280, Note_on_c, 2, 68, 82
3, 65712, Note_on_c, 2, 68, 0
3, 65712, Note_on_c, 2, 77, 0
3, 65712, Note_on_c, 2, 73, 0
3, 65760, Note_on_c, 2, 73, 82
3, 65760, Note_on_c, 2, 77, 73
3, 65760, Note_on_c, 2, 68, 73
3, 65808, Note_on_c, 2, 68, 0
3, 65808, Note_on_c, 2, 77, 0
3, 65808, Note_on_c, 2, 73, 0
3, 65856, Note_on_c, 2, 73, 82
3, 65856, Note_on_c, 2, 77, 73
3, 65856, Note_on_c, 2, 68, 73
3, 65952, Note_on_c, 2, 68, 0
3, 65952, Note_on_c, 2, 77, 0
3, 65952, Note_on_c, 2, 73, 0
3, 66048, Note_on_c, 2, 75, 64
3, 66048, Note_on_c, 2, 71, 73
3, 66048, Note_on_c, 2, 66, 73
3, 66480, Note_on_c, 2, 66, 0
3, 66480, Note_on_c, 2, 71, 0
3, 66480, Note_on_c, 2, 75, 0
3, 66528, Note_on_c, 2, 70, 73
3, 66528, Note_on_c, 2, 73, 73
3, 66528, Note_on_c, 2, 66, 73
3, 66576, Note_on_c, 2, 66, 0
3, 66576, Note_on_c, 2, 73, 0
3, 66576, Note_on_c, 2, 70, 0
3, 66624, Note_on_c, 2, 70, 73
3, 66624, Note_on_c, 2, 66, 73
3, 66624, Note_on_c, 2, 73, 82
3, 66672, Note_on_c, 2, 66, 0
3, 66720, Note_on_c, 2, 73, 0
3, 66720, Note_on_c, 2, 70, 0
3, 66816, Note_on_c, 2, 73, 73
3, 66816, Note_on_c, 2, 77, 73
3, 66816, Note_on_c, 2, 68, 64
3, 67248, Note_on_c, 2, 68, 0
3, 67248, Note_on_c, 2, 77, 0
3, 67248, Note_on_c, 2, 73, 0
3, 67296, Note_on_c, 2, 73, 73
3, 67296, Note_on_c, 2, 68, 82
3, 67296, Note_on_c, 2, 77, 73
3, 67344, Note_on_c, 2, 77, 0
3, 67344, Note_on_c, 2, 68, 0
3, 67344, Note_on_c, 2, 73, 0
3, 67392, Note_on_c, 2, 73, 73
3, 67392, Note_on_c, 2, 77, 73
3, 67392, Note_on_c, 2, 68, 64
3, 67488, Note_on_c, 2, 68, 0
3, 67488, Note_on_c, 2, 77, 0
3, 67488, Note_on_c, 2, 73, 0
3, 67584, Note_on_c, 2, 75, 64
3, 67584, Note_on_c, 2, 71, 64
3, 67584, Note_on_c, 2, 66, 73
3, 68016, Note_on_c, 2, 66, 0
3, 68016, Note_on_c, 2, 71, 0
3, 68016, Note_on_c, 2, 75, 0
3, 68064, Note_on_c, 2, 70, 73
3, 68064, Note_on_c, 2, 73, 73
3, 68064, Note_on_c, 2, 66, 60
3, 68112, Note_on_c, 2, 66, 0
3, 68112, Note_on_c, 2, 73, 0
3, 68112, Note_on_c, 2, 70, 0
3, 68160, Note_on_c, 2, 70, 64
3, 68160, Note_on_c, 2, 66, 64
3, 68160, Note_on_c, 2, 73, 73
3, 68256, Note_on_c, 2, 73, 0
3, 68256, Note_on_c, 2, 66, 0
3, 68256, Note_on_c, 2, 70, 0
3, 68352, Note_on_c, 2, 73, 82
3, 68352, Note_on_c, 2, 77, 82
3, 68352, Note_on_c, 2, 68, 82
3, 68784, Note_on_c, 2, 68, 0
3, 68784, Note_on_c, 2, 77, 0
3, 68784, Note_on_c, 2, 73, 0
3, 68832, Note_on_c, 2, 73, 82
3, 68832, Note_on_c, 2, 77, 73
3, 68832, Note_on_c, 2, 68, 73
3, 68880, Note_on_c, 2, 68, 0
3, 68880, Note_on_c, 2, 77, 0
3, 68880, Note_on_c, 2, 73, 0
3, 68928, Note_on_c, 2, 73, 82
3, 68928, Note_on_c, 2, 77, 73
3, 68928, Note_on_c, 2, 68, 73
3, 69024, Note_on_c, 2, 68, 0
3, 69024, Note_on_c, 2, 77, 0
3, 69024, Note_on_c, 2, 73, 0
3, 69120, Note_on_c, 2, 75, 64
3, 69120, Note_on_c, 2, 71, 73
3, 69120, Note_on_c, 2, 66, 73
3, 69552, Note_on_c, 2, 66, 0
3, 69552, Note_on_c, 2, 71, 0
3, 69552, Note_on_c, 2, 75, 0
3, 69600, Note_on_c, 2, 70, 73
3, 69600, Note_on_c, 2, 73, 73
3, 69600, Note_on_c, 2, 66, 73
3, 69648, Note_on_c, 2, 66, 0
3, 69648, Note_on_c, 2, 73, 0
3, 69648, Note_on_c, 2, 70, 0
3, 69696, Note_on_c, 2, 70, 73
3, 69696, Note_on_c, 2, 66, 73
3, 69696, Note_on_c, 2, 73, 82
3, 69744, Note_on_c, 2, 66, 0
3, 69792, Note_on_c, 2, 73, 0
3, 69792, Note_on_c, 2, 70, 0
3, 69888, Note_on_c, 2, 73, 73
3, 69888, Note_on_c, 2, 77, 73
3, 69888, Note_on_c, 2, 68, 64
3, 70320, Note_on_c, 2, 68, 0
3, 70320, Note_on_c, 2, 77, 0
3, 70320, Note_on_c, 2, 73, 0
3, 70368, Note_on_c, 2, 73, 73
3, 70368, Note_on_c, 2, 68, 82
3, 70368, Note_on_c, 2, 77, 73
3, 70416, Note_on_c, 2, 77, 0
3, 70416, Note_on_c, 2, 68, 0
3, 70416, Note_on_c, 2, 73, 0
3, 70464, Note_on_c, 2, 73, 73
3, 70464, Note_on_c, 2, 77, 73
3, 70464, Note_on_c, 2, 68, 64
3, 70560, Note_on_c, 2, 68, 0
3, 70560, Note_on_c, 2, 77, 0
3, 70560, Note_on_c, 2, 73, 0
3, 70656, Note_on_c, 2, 75, 64
3, 70656, Note_on_c, 2, 71, 64
3, 70656, Note_on_c, 2, 66, 73
3, 71088, Note_on_c, 2, 66, 0
3, 71088, Note_on_c, 2, 71, 0
3, 71088, Note_on_c, 2, 75, 0
3, 71136, Note_on_c, 2, 70, 73
3, 71136, Note_on_c, 2, 73, 73
3, 71136, Note_on_c, 2, 66, 60
3, 71184, Note_on_c, 2, 66, 0
3, 71184, Note_on_c, 2, 73, 0
3, 71184, Note_on_c, 2, 70, 0
3, 71232, Note_on_c, 2, 70, 64
3, 71232, Note_on_c, 2, 66, 64
3, 71232, Note_on_c, 2, 73, 73
3, 71328, Note_on_c, 2, 73, 0
3, 71328, Note_on_c, 2, 66, 0
3, 71328, Note_on_c, 2, 70, 0
3, 71424, Note_on_c, 2, 61, 73
3, 71424, Note_on_c, 2, 49, 73
3, 71424, Note_on_c, 2, 77, 73
3, 71424, Note_on_c, 2, 73, 82
3, 71424, Note_on_c, 2, 68, 73
3, 71552, Note_on_c, 2, 68, 0
3, 71552, Note_on_c, 2, 77, 0
3, 71552, Note_on_c, 2, 61, 0
3, 71552, Note_on_c, 2, 49, 0
3, 71552, Note_on_c, 2, 73, 0
3, 71936, Note_on_c, 2, 61, 82
3, 71936, Note_on_c, 2, 49, 73
3, 72000, Note_on_c, 2, 77, 73
3, 72000, Note_on_c, 2, 68, 82
3, 72000, Note_on_c, 2, 73, 82
3, 72064, Note_on_c, 2, 68, 0
3, 72064, Note_on_c, 2, 77, 0
3, 72064, Note_on_c, 2, 61, 0
3, 72064, Note_on_c, 2, 49, 0
3, 72128, Note_on_c, 2, 73, 0
3, 72128, Note_on_c, 2, 77, 82
3, 72128, Note_on_c, 2, 73, 82
3, 72128, Note_on_c, 2, 68, 82
3, 72192, Note_on_c, 2, 68, 0
3, 72193, Note_on_c, 2, 77, 0
3, 72256, Note_on_c, 2, 73, 0
3, 72384, Note_on_c, 2, 77, 82
3, 72384, Note_on_c, 2, 73, 82
3, 72384, Note_on_c, 2, 61, 82
3, 72384, Note_on_c, 2, 68, 82
3, 72384, Note_on_c, 2, 49, 73
3, 74176, Note_on_c, 2, 49, 0
3, 74176, Note_on_c, 2, 61, 0
3, 74176, Note_on_c, 2, 77, 0
3, 74176, Note_on_c, 2, 73, 0
3, 74176, Note_on_c, 2, 68, 0
3, 74240, Note_on_c, 2, 77, 82
3, 74240, Note_on_c, 2, 73, 82
3, 74240, Note_on_c, 2, 68, 82
3, 74240, Note_on_c, 2, 61, 82
3, 74240, Note_on_c, 2, 49, 82
3, 74368, Note_on_c, 2, 68, 0
3, 74432, Note_on_c, 2, 61, 0
3, 74432, Note_on_c, 2, 77, 0
3, 74432, Note_on_c, 2, 73, 0
3, 74432, Note_on_c, 2, 49, 0
3, 74432, End_track
4, 0, Start_track
4, 0, MIDI_port, 0
4, 0, Title_t, "Trombone            "
4, 192, Control_c, 3, 7, 95
4, 192, Control_c, 3, 10, 45
4, 192, Program_c, 3, 81
4, 3840, Note_on_c, 3, 61, 91
4, 3840, Note_on_c, 3, 65, 97
4, 4032, Note_on_c, 3, 65, 0
4, 4032, Note_on_c, 3, 61, 0
4, 4128, Note_on_c, 3, 65, 91
4, 4128, Note_on_c, 3, 61, 91
4, 4176, Note_on_c, 3, 61, 0
4, 4176, Note_on_c, 3, 65, 0
4, 4224, Note_on_c, 3, 61, 91
4, 4224, Note_on_c, 3, 65, 91
4, 4464, Note_on_c, 3, 65, 0
4, 4464, Note_on_c, 3, 61, 0
4, 4512, Note_on_c, 3, 65, 91
4, 4512, Note_on_c, 3, 61, 91
4, 4560, Note_on_c, 3, 61, 0
4, 4560, Note_on_c, 3, 65, 0
4, 4608, Note_on_c, 3, 66, 91
4, 4608, Note_on_c, 3, 61, 91
4, 5232, Note_on_c, 3, 61, 0
4, 5232, Note_on_c, 3, 66, 0
4, 5280, Note_on_c, 3, 65, 91
4, 5280, Note_on_c, 3, 61, 91
4, 5616, Note_on_c, 3, 61, 0
4, 5616, Note_on_c, 3, 65, 0
4, 5664, Note_on_c, 3, 65, 91
4, 5664, Note_on_c, 3, 61, 91
4, 5712, Note_on_c, 3, 61, 0
4, 5712, Note_on_c, 3, 65, 0
4, 5760, Note_on_c, 3, 65, 91
4, 5760, Note_on_c, 3, 61, 91
4, 6000, Note_on_c, 3, 61, 0
4, 6000, Note_on_c, 3, 65, 0
4, 6048, Note_on_c, 3, 61, 91
4, 6048, Note_on_c, 3, 65, 91
4, 6096, Note_on_c, 3, 65, 0
4, 6096, Note_on_c, 3, 61, 0
4, 6144, Note_on_c, 3, 66, 91
4, 6144, Note_on_c, 3, 61, 91
4, 6720, Note_on_c, 3, 61, 0
4, 6768, Note_on_c, 3, 66, 0
4, 6816, Note_on_c, 3, 65, 91
4, 6816, Note_on_c, 3, 61, 91
4, 7152, Note_on_c, 3, 61, 0
4, 7152, Note_on_c, 3, 65, 0
4, 7200, Note_on_c, 3, 65, 97
4, 7200, Note_on_c, 3, 61, 91
4, 7248, Note_on_c, 3, 61, 0
4, 7248, Note_on_c, 3, 65, 0
4, 7296, Note_on_c, 3, 65, 91
4, 7296, Note_on_c, 3, 61, 91
4, 7536, Note_on_c, 3, 61, 0
4, 7536, Note_on_c, 3, 65, 0
4, 7584, Note_on_c, 3, 65, 91
4, 7584, Note_on_c, 3, 61, 91
4, 7632, Note_on_c, 3, 61, 0
4, 7632, Note_on_c, 3, 65, 0
4, 7680, Note_on_c, 3, 66, 91
4, 7680, Note_on_c, 3, 61, 91
4, 8256, Note_on_c, 3, 61, 0
4, 8256, Note_on_c, 3, 66, 0
4, 8352, Note_on_c, 3, 65, 91
4, 8352, Note_on_c, 3, 61, 91
4, 8928, Note_on_c, 3, 61, 0
4, 8928, Note_on_c, 3, 65, 0
4, 9024, Note_on_c, 3, 65, 91
4, 9024, Note_on_c, 3, 61, 91
4, 9072, Note_on_c, 3, 61, 0
4, 9072, Note_on_c, 3, 65, 0
4, 9120, Note_on_c, 3, 66, 91
4, 9120, Note_on_c, 3, 61, 91
4, 9984, Note_on_c, 3, 61, 0
4, 9984, Note_on_c, 3, 66, 0
4, 34560, Note_on_c, 3, 61, 91
4, 34560, Note_on_c, 3, 65, 97
4, 34752, Note_on_c, 3, 65, 0
4, 34752, Note_on_c, 3, 61, 0
4, 34848, Note_on_c, 3, 65, 91
4, 34848, Note_on_c, 3, 61, 91
4, 34896, Note_on_c, 3, 61, 0
4, 34896, Note_on_c, 3, 65, 0
4, 34944, Note_on_c, 3, 61, 91
4, 34944, Note_on_c, 3, 65, 91
4, 35184, Note_on_c, 3, 65, 0
4, 35184, Note_on_c, 3, 61, 0
4, 35232, Note_on_c, 3, 65, 91
4, 35232, Note_on_c, 3, 61, 91
4, 35280, Note_on_c, 3, 61, 0
4, 35280, Note_on_c, 3, 65, 0
4, 35328, Note_on_c, 3, 66, 91
4, 35328, Note_on_c, 3, 61, 91
4, 35952, Note_on_c, 3, 61, 0
4, 35952, Note_on_c, 3, 66, 0
4, 36000, Note_on_c, 3, 65, 91
4, 36000, Note_on_c, 3, 61, 91
4, 36336, Note_on_c, 3, 61, 0
4, 36336, Note_on_c, 3, 65, 0
4, 36384, Note_on_c, 3, 65, 91
4, 36384, Note_on_c, 3, 61, 91
4, 36432, Note_on_c, 3, 61, 0
4, 36432, Note_on_c, 3, 65, 0
4, 36480, Note_on_c, 3, 65, 91
4, 36480, Note_on_c, 3, 61, 91
4, 36720, Note_on_c, 3, 61, 0
4, 36720, Note_on_c, 3, 65, 0
4, 36768, Note_on_c, 3, 61, 91
4, 36768, Note_on_c, 3, 65, 91
4, 36816, Note_on_c, 3, 65, 0
4, 36816, Note_on_c, 3, 61, 0
4, 36864, Note_on_c, 3, 66, 91
4, 36864, Note_on_c, 3, 61, 91
4, 37440, Note_on_c, 3, 61, 0
4, 37488, Note_on_c, 3, 66, 0
4, 37536, Note_on_c, 3, 65, 91
4, 37536, Note_on_c, 3, 61, 91
4, 37872, Note_on_c, 3, 61, 0
4, 37872, Note_on_c, 3, 65, 0
4, 37920, Note_on_c, 3, 65, 97
4, 37920, Note_on_c, 3, 61, 91
4, 37968, Note_on_c, 3, 61, 0
4, 37968, Note_on_c, 3, 65, 0
4, 38016, Note_on_c, 3, 65, 91
4, 38016, Note_on_c, 3, 61, 91
4, 38256, Note_on_c, 3, 61, 0
4, 38256, Note_on_c, 3, 65, 0
4, 38304, Note_on_c, 3, 65, 91
4, 38304, Note_on_c, 3, 61, 91
4, 38352, Note_on_c, 3, 61, 0
4, 38352, Note_on_c, 3, 65, 0
4, 38400, Note_on_c, 3, 66, 91
4, 38400, Note_on_c, 3, 61, 91
4, 38976, Note_on_c, 3, 61, 0
4, 38976, Note_on_c, 3, 66, 0
4, 39072, Note_on_c, 3, 65, 91
4, 39072, Note_on_c, 3, 61, 91
4, 39648, Note_on_c, 3, 61, 0
4, 39648, Note_on_c, 3, 65, 0
4, 39744, Note_on_c, 3, 65, 91
4, 39744, Note_on_c, 3, 61, 91
4, 39792, Note_on_c, 3, 61, 0
4, 39792, Note_on_c, 3, 65, 0
4, 39840, Note_on_c, 3, 66, 91
4, 39840, Note_on_c, 3, 61, 91
4, 40704, Note_on_c, 3, 61, 0
4, 40705, Note_on_c, 3, 66, 0
4, 59136, Note_on_c, 3, 61, 91
4, 59136, Note_on_c, 3, 65, 97
4, 59328, Note_on_c, 3, 65, 0
4, 59328, Note_on_c, 3, 61, 0
4, 59424, Note_on_c, 3, 65, 91
4, 59424, Note_on_c, 3, 61, 91
4, 59472, Note_on_c, 3, 61, 0
4, 59472, Note_on_c, 3, 65, 0
4, 59520, Note_on_c, 3, 61, 91
4, 59520, Note_on_c, 3, 65, 91
4, 59760, Note_on_c, 3, 65, 0
4, 59760, Note_on_c, 3, 61, 0
4, 59808, Note_on_c, 3, 65, 91
4, 59808, Note_on_c, 3, 61, 91
4, 59856, Note_on_c, 3, 61, 0
4, 59856, Note_on_c, 3, 65, 0
4, 59904, Note_on_c, 3, 66, 91
4, 59904, Note_on_c, 3, 61, 91
4, 60528, Note_on_c, 3, 61, 0
4, 60528, Note_on_c, 3, 66, 0
4, 60576, Note_on_c, 3, 65, 91
4, 60576, Note_on_c, 3, 61, 91
4, 60912, Note_on_c, 3, 61, 0
4, 60912, Note_on_c, 3, 65, 0
4, 60960, Note_on_c, 3, 65, 91
4, 60960, Note_on_c, 3, 61, 91
4, 61008, Note_on_c, 3, 61, 0
4, 61008, Note_on_c, 3, 65, 0
4, 61056, Note_on_c, 3, 65, 91
4, 61056, Note_on_c, 3, 61, 91
4, 61296, Note_on_c, 3, 61, 0
4, 61296, Note_on_c, 3, 65, 0
4, 61344, Note_on_c, 3, 61, 91
4, 61344, Note_on_c, 3, 65, 91
4, 61392, Note_on_c, 3, 65, 0
4, 61392, Note_on_c, 3, 61, 0
4, 61440, Note_on_c, 3, 66, 91
4, 61440, Note_on_c, 3, 61, 91
4, 62016, Note_on_c, 3, 61, 0
4, 62064, Note_on_c, 3, 66, 0
4, 62112, Note_on_c, 3, 65, 91
4, 62112, Note_on_c, 3, 61, 91
4, 62448, Note_on_c, 3, 61, 0
4, 62448, Note_on_c, 3, 65, 0
4, 62496, Note_on_c, 3, 65, 97
4, 62496, Note_on_c, 3, 61, 91
4, 62544, Note_on_c, 3, 61, 0
4, 62544, Note_on_c, 3, 65, 0
4, 62592, Note_on_c, 3, 65, 91
4, 62592, Note_on_c, 3, 61, 91
4, 62832, Note_on_c, 3, 61, 0
4, 62832, Note_on_c, 3, 65, 0
4, 62880, Note_on_c, 3, 65, 91
4, 62880, Note_on_c, 3, 61, 91
4, 62928, Note_on_c, 3, 61, 0
4, 62928, Note_on_c, 3, 65, 0
4, 62976, Note_on_c, 3, 66, 91
4, 62976, Note_on_c, 3, 61, 91
4, 63552, Note_on_c, 3, 61, 0
4, 63552, Note_on_c, 3, 66, 0
4, 63648, Note_on_c, 3, 65, 91
4, 63648, Note_on_c, 3, 61, 91
4, 64224, Note_on_c, 3, 61, 0
4, 64224, Note_on_c, 3, 65, 0
4, 64320, Note_on_c, 3, 65, 91
4, 64320, Note_on_c, 3, 61, 91
4, 64368, Note_on_c, 3, 61, 0
4, 64368, Note_on_c, 3, 65, 0
4, 64416, Note_on_c, 3, 66, 91
4, 64416, Note_on_c, 3, 61, 91
4, 65280, Note_on_c, 3, 61, 0
4, 65280, Note_on_c, 3, 61, 91
4, 65280, Note_on_c, 3, 65, 97
4, 65281, Note_on_c, 3, 66, 0
4, 65472, Note_on_c, 3, 65, 0
4, 65472, Note_on_c, 3, 61, 0
4, 65568, Note_on_c, 3, 65, 91
4, 65568, Note_on_c, 3, 61, 91
4, 65616, Note_on_c, 3, 61, 0
4, 65616, Note_on_c, 3, 65, 0
4, 65664, Note_on_c, 3, 61, 91
4, 65664, Note_on_c, 3, 65, 91
4, 65904, Note_on_c, 3, 65, 0
4, 65904, Note_on_c, 3, 61, 0
4, 65952, Note_on_c, 3, 65, 91
4, 65952, Note_on_c, 3, 61, 91
4, 66000, Note_on_c, 3, 61, 0
4, 66000, Note_on_c, 3, 65, 0
4, 66048, Note_on_c, 3, 66, 91
4, 66048, Note_on_c, 3, 61, 91
4, 66672, Note_on_c, 3, 61, 0
4, 66672, Note_on_c, 3, 66, 0
4, 66720, Note_on_c, 3, 65, 91
4, 66720, Note_on_c, 3, 61, 91
4, 67056, Note_on_c, 3, 61, 0
4, 67056, Note_on_c, 3, 65, 0
4, 67104, Note_on_c, 3, 65, 91
4, 67104, Note_on_c, 3, 61, 91
4, 67152, Note_on_c, 3, 61, 0
4, 67152, Note_on_c, 3, 65, 0
4, 67200, Note_on_c, 3, 65, 91
4, 67200, Note_on_c, 3, 61, 91
4, 67440, Note_on_c, 3, 61, 0
4, 67440, Note_on_c, 3, 65, 0
4, 67488, Note_on_c, 3, 61, 91
4, 67488, Note_on_c, 3, 65, 91
4, 67536, Note_on_c, 3, 65, 0
4, 67536, Note_on_c, 3, 61, 0
4, 67584, Note_on_c, 3, 66, 91
4, 67584, Note_on_c, 3, 61, 91
4, 68160, Note_on_c, 3, 61, 0
4, 68208, Note_on_c, 3, 66, 0
4, 68256, Note_on_c, 3, 65, 91
4, 68256, Note_on_c, 3, 61, 91
4, 68592, Note_on_c, 3, 61, 0
4, 68592, Note_on_c, 3, 65, 0
4, 68640, Note_on_c, 3, 65, 97
4, 68640, Note_on_c, 3, 61, 91
4, 68688, Note_on_c, 3, 61, 0
4, 68688, Note_on_c, 3, 65, 0
4, 68736, Note_on_c, 3, 65, 91
4, 68736, Note_on_c, 3, 61, 91
4, 68976, Note_on_c, 3, 61, 0
4, 68976, Note_on_c, 3, 65, 0
4, 69024, Note_on_c, 3, 65, 91
4, 69024, Note_on_c, 3, 61, 91
4, 69072, Note_on_c, 3, 61, 0
4, 69072, Note_on_c, 3, 65, 0
4, 69120, Note_on_c, 3, 66, 91
4, 69120, Note_on_c, 3, 61, 91
4, 69696, Note_on_c, 3, 61, 0
4, 69696, Note_on_c, 3, 66, 0
4, 69792, Note_on_c, 3, 65, 91
4, 69792, Note_on_c, 3, 61, 91
4, 70368, Note_on_c, 3, 61, 0
4, 70368, Note_on_c, 3, 65, 0
4, 70464, Note_on_c, 3, 65, 91
4, 70464, Note_on_c, 3, 61, 91
4, 70512, Note_on_c, 3, 61, 0
4, 70512, Note_on_c, 3, 65, 0
4, 70560, Note_on_c, 3, 66, 91
4, 70560, Note_on_c, 3, 61, 91
4, 71424, Note_on_c, 3, 61, 0
4, 71424, Note_on_c, 3, 66, 0
4, 71424, Note_on_c, 3, 65, 91
4, 71424, Note_on_c, 3, 61, 91
4, 71552, Note_on_c, 3, 61, 0
4, 71552, Note_on_c, 3, 65, 0
4, 72000, Note_on_c, 3, 65, 97
4, 72000, Note_on_c, 3, 61, 91
4, 72064, Note_on_c, 3, 65, 0
4, 72128, Note_on_c, 3, 61, 0
4, 72128, Note_on_c, 3, 65, 97
4, 72128, Note_on_c, 3, 61, 91
4, 72192, Note_on_c, 3, 61, 0
4, 72256, Note_on_c, 3, 65, 0
4, 72384, Note_on_c, 3, 37, 115
4, 72576, Control_c, 3, 64, 127
4, 72576, Note_on_c, 3, 61, 91
4, 72768, Note_on_c, 3, 61, 0
4, 72768, Note_on_c, 3, 63, 91
4, 72960, Note_on_c, 3, 63, 0
4, 72960, Note_on_c, 3, 65, 91
4, 73088, Note_on_c, 3, 65, 0
4, 73152, Note_on_c, 3, 68, 91
4, 73280, Note_on_c, 3, 68, 0
4, 73344, Note_on_c, 3, 73, 91
4, 73472, Note_on_c, 3, 73, 0
4, 73536, Note_on_c, 3, 75, 91
4, 73600, Note_on_c, 3, 75, 0
4, 73728, Note_on_c, 3, 77, 91
4, 73792, Note_on_c, 3, 77, 0
4, 73920, Note_on_c, 3, 80, 91
4, 74048, Note_on_c, 3, 80, 0
4, 74240, Note_on_c, 3, 37, 0
4, 74240, Note_on_c, 3, 65, 97
4, 74240, Note_on_c, 3, 61, 91
4, 74240, Control_c, 3, 64, 0
4, 74304, Note_on_c, 3, 61, 0
4, 74368, Note_on_c, 3, 65, 0
4, 74368, End_track
5, 0, Start_track
5, 0, MIDI_port, 0
5, 0, Title_t, "Lead Brass          "
5, 192, Control_c, 4, 7, 110
5, 192, Control_c, 4, 10, 75
5, 192, Program_c, 4, 89
5, 3840, Note_on_c, 4, 80, 99
5, 4272, Note_on_c, 4, 80, 0
5, 4320, Note_on_c, 4, 80, 99
5, 4416, Note_on_c, 4, 80, 0
5, 4512, Note_on_c, 4, 85, 95
5, 4584, Note_on_c, 4, 85, 0
5, 4608, Note_on_c, 4, 83, 96
5, 5088, Note_on_c, 4, 83, 0
5, 5088, Note_on_c, 4, 82, 95
5, 5136, Note_on_c, 4, 82, 0
5, 5184, Note_on_c, 4, 83, 95
5, 5232, Note_on_c, 4, 83, 0
5, 5232, Note_on_c, 4, 82, 95
5, 5280, Note_on_c, 4, 82, 0
5, 5304, Note_on_c, 4, 80, 99
5, 5808, Note_on_c, 4, 80, 0
5, 5856, Note_on_c, 4, 80, 95
5, 5928, Note_on_c, 4, 80, 0
5, 6048, Note_on_c, 4, 85, 95
5, 6120, Note_on_c, 4, 85, 0
5, 6144, Note_on_c, 4, 83, 95
5, 6624, Note_on_c, 4, 83, 0
5, 6624, Note_on_c, 4, 82, 95
5, 6648, Note_on_c, 4, 82, 0
5, 6720, Note_on_c, 4, 83, 96
5, 6768, Note_on_c, 4, 83, 0
5, 6768, Note_on_c, 4, 82, 95
5, 6816, Note_on_c, 4, 82, 0
5, 6840, Note_on_c, 4, 80, 96
5, 7320, Note_on_c, 4, 80, 0
5, 7392, Note_on_c, 4, 80, 96
5, 7488, Note_on_c, 4, 80, 0
5, 7584, Note_on_c, 4, 85, 95
5, 7656, Note_on_c, 4, 85, 0
5, 7680, Note_on_c, 4, 83, 95
5, 8160, Note_on_c, 4, 83, 0
5, 8160, Note_on_c, 4, 82, 95
5, 8208, Note_on_c, 4, 82, 0
5, 8256, Note_on_c, 4, 83, 96
5, 8304, Note_on_c, 4, 83, 0
5, 8304, Note_on_c, 4, 82, 95
5, 8400, Note_on_c, 4, 82, 0
5, 8400, Note_on_c, 4, 80, 96
5, 8976, Note_on_c, 4, 80, 0
5, 9024, Note_on_c, 4, 80, 96
5, 9120, Note_on_c, 4, 80, 0
5, 9120, Note_on_c, 4, 78, 99
5, 9960, Note_on_c, 4, 78, 0
5, 34560, Note_on_c, 4, 80, 99
5, 34992, Note_on_c, 4, 80, 0
5, 35040, Note_on_c, 4, 80, 99
5, 35136, Note_on_c, 4, 80, 0
5, 35232, Note_on_c, 4, 85, 95
5, 35304, Note_on_c, 4, 85, 0
5, 35328, Note_on_c, 4, 83, 96
5, 35808, Note_on_c, 4, 83, 0
5, 35808, Note_on_c, 4, 82, 95
5, 35856, Note_on_c, 4, 82, 0
5, 35904, Note_on_c, 4, 83, 95
5, 35952, Note_on_c, 4, 83, 0
5, 35952, Note_on_c, 4, 82, 95
5, 36000, Note_on_c, 4, 82, 0
5, 36024, Note_on_c, 4, 80, 99
5, 36528, Note_on_c, 4, 80, 0
5, 36576, Note_on_c, 4, 80, 95
5, 36648, Note_on_c, 4, 80, 0
5, 36769, Note_on_c, 4, 85, 95
5, 36840, Note_on_c, 4, 85, 0
5, 36864, Note_on_c, 4, 83, 95
5, 37344, Note_on_c, 4, 83, 0
5, 37344, Note_on_c, 4, 82, 95
5, 37368, Note_on_c, 4, 82, 0
5, 37440, Note_on_c, 4, 83, 96
5, 37488, Note_on_c, 4, 83, 0
5, 37488, Note_on_c, 4, 82, 95
5, 37536, Note_on_c, 4, 82, 0
5, 37560, Note_on_c, 4, 80, 96
5, 38040, Note_on_c, 4, 80, 0
5, 38112, Note_on_c, 4, 80, 96
5, 38208, Note_on_c, 4, 80, 0
5, 38304, Note_on_c, 4, 85, 95
5, 38376, Note_on_c, 4, 85, 0
5, 38400, Note_on_c, 4, 83, 95
5, 38880, Note_on_c, 4, 83, 0
5, 38880, Note_on_c, 4, 82, 95
5, 38928, Note_on_c, 4, 82, 0
5, 38976, Note_on_c, 4, 83, 96
5, 39024, Note_on_c, 4, 83, 0
5, 39024, Note_on_c, 4, 82, 95
5, 39120, Note_on_c, 4, 82, 0
5, 39120, Note_on_c, 4, 80, 96
5, 39696, Note_on_c, 4, 80, 0
5, 39744, Note_on_c, 4, 80, 96
5, 39840, Note_on_c, 4, 80, 0
5, 39840, Note_on_c, 4, 78, 99
5, 40680, Note_on_c, 4, 78, 0
5, 65280, Note_on_c, 4, 80, 99
5, 65712, Note_on_c, 4, 80, 0
5, 65760, Note_on_c, 4, 80, 99
5, 65856, Note_on_c, 4, 80, 0
5, 65952, Note_on_c, 4, 85, 95
5, 66024, Note_on_c, 4, 85, 0
5, 66048, Note_on_c, 4, 83, 96
5, 66528, Note_on_c, 4, 83, 0
5, 66528, Note_on_c, 4, 82, 95
5, 66576, Note_on_c, 4, 82, 0
5, 66624, Note_on_c, 4, 83, 95
5, 66672, Note_on_c, 4, 83, 0
5, 66672, Note_on_c, 4, 82, 95
5, 66720, Note_on_c, 4, 82, 0
5, 66744, Note_on_c, 4, 80, 99
5, 67248, Note_on_c, 4, 80, 0
5, 67296, Note_on_c, 4, 80, 95
5, 67368, Note_on_c, 4, 80, 0
5, 67488, Note_on_c, 4, 85, 95
5, 67560, Note_on_c, 4, 85, 0
5, 67584, Note_on_c, 4, 83, 95
5, 68064, Note_on_c, 4, 83, 0
5, 68064, Note_on_c, 4, 82, 95
5, 68088, Note_on_c, 4, 82, 0
5, 68160, Note_on_c, 4, 83, 96
5, 68208, Note_on_c, 4, 83, 0
5, 68208, Note_on_c, 4, 82, 95
5, 68256, Note_on_c, 4, 82, 0
5, 68280, Note_on_c, 4, 80, 96
5, 68760, Note_on_c, 4, 80, 0
5, 68832, Note_on_c, 4, 80, 96
5, 68928, Note_on_c, 4, 80, 0
5, 69024, Note_on_c, 4, 85, 95
5, 69096, Note_on_c, 4, 85, 0
5, 69120, Note_on_c, 4, 83, 95
5, 69600, Note_on_c, 4, 83, 0
5, 69600, Note_on_c, 4, 82, 95
5, 69648, Note_on_c, 4, 82, 0
5, 69696, Note_on_c, 4, 83, 96
5, 69744, Note_on_c, 4, 83, 0
5, 69744, Note_on_c, 4, 82, 95
5, 69840, Note_on_c, 4, 82, 0
5, 69840, Note_on_c, 4, 80, 96
5, 70416, Note_on_c, 4, 80, 0
5, 70464, Note_on_c, 4, 80, 96
5, 70560, Note_on_c, 4, 80, 0
5, 70560, Note_on_c, 4, 78, 99
5, 71400, Note_on_c, 4, 78, 0
5, 71424, Note_on_c, 4, 85, 99
5, 71552, Note_on_c, 4, 85, 0
5, 72000, Note_on_c, 4, 85, 99
5, 72128, Note_on_c, 4, 85, 0
5, 72128, Note_on_c, 4, 85, 99
5, 72256, Note_on_c, 4, 85, 0
5, 74240, Note_on_c, 4, 85, 99
5, 74368, Note_on_c, 4, 85, 0
5, 74368, End_track
6, 0, Start_track
6, 0, MIDI_port, 0
6, 0, Title_t, "Rythem Guitar       "
6, 192, Control_c, 5, 7, 60
6, 192, Control_c, 5, 10, 93
6, 192, Program_c, 5, 6
6, 3840, Note_on_c, 5, 56, 91
6, 3844, Note_on_c, 5, 61, 95
6, 3848, Note_on_c, 5, 65, 95
6, 3928, Note_on_c, 5, 56, 0
6, 3932, Note_on_c, 5, 61, 0
6, 3936, Note_on_c, 5, 65, 0
6, 3936, Note_on_c, 5, 56, 91
6, 3940, Note_on_c, 5, 61, 95
6, 3944, Note_on_c, 5, 65, 92
6, 4024, Note_on_c, 5, 56, 0
6, 4028, Note_on_c, 5, 61, 0
6, 4032, Note_on_c, 5, 65, 0
6, 4032, Note_on_c, 5, 56, 91
6, 4036, Note_on_c, 5, 61, 95
6, 4040, Note_on_c, 5, 65, 91
6, 4120, Note_on_c, 5, 56, 0
6, 4124, Note_on_c, 5, 61, 0
6, 4128, Note_on_c, 5, 65, 0
6, 4128, Note_on_c, 5, 56, 91
6, 4132, Note_on_c, 5, 61, 95
6, 4136, Note_on_c, 5, 65, 91
6, 4216, Note_on_c, 5, 56, 0
6, 4220, Note_on_c, 5, 61, 0
6, 4224, Note_on_c, 5, 65, 0
6, 4224, Note_on_c, 5, 56, 91
6, 4228, Note_on_c, 5, 61, 92
6, 4232, Note_on_c, 5, 65, 92
6, 4312, Note_on_c, 5, 56, 0
6, 4316, Note_on_c, 5, 61, 0
6, 4320, Note_on_c, 5, 65, 0
6, 4320, Note_on_c, 5, 56, 91
6, 4324, Note_on_c, 5, 61, 91
6, 4328, Note_on_c, 5, 65, 95
6, 4408, Note_on_c, 5, 56, 0
6, 4412, Note_on_c, 5, 61, 0
6, 4416, Note_on_c, 5, 65, 0
6, 4416, Note_on_c, 5, 56, 91
6, 4420, Note_on_c, 5, 61, 95
6, 4424, Note_on_c, 5, 65, 92
6, 4504, Note_on_c, 5, 56, 0
6, 4508, Note_on_c, 5, 61, 0
6, 4512, Note_on_c, 5, 65, 0
6, 4512, Note_on_c, 5, 56, 91
6, 4516, Note_on_c, 5, 61, 95
6, 4520, Note_on_c, 5, 65, 92
6, 4600, Note_on_c, 5, 56, 0
6, 4604, Note_on_c, 5, 61, 0
6, 4608, Note_on_c, 5, 56, 92
6, 4609, Note_on_c, 5, 65, 0
6, 4612, Note_on_c, 5, 61, 99
6, 4616, Note_on_c, 5, 66, 95
6, 4696, Note_on_c, 5, 56, 0
6, 4700, Note_on_c, 5, 61, 0
6, 4704, Note_on_c, 5, 66, 0
6, 4704, Note_on_c, 5, 56, 91
6, 4708, Note_on_c, 5, 61, 92
6, 4712, Note_on_c, 5, 66, 92
6, 4792, Note_on_c, 5, 56, 0
6, 4796, Note_on_c, 5, 61, 0
6, 4800, Note_on_c, 5, 66, 0
6, 4800, Note_on_c, 5, 56, 91
6, 4804, Note_on_c, 5, 61, 95
6, 4808, Note_on_c, 5, 66, 99
6, 4888, Note_on_c, 5, 56, 0
6, 4892, Note_on_c, 5, 61, 0
6, 4896, Note_on_c, 5, 66, 0
6, 4896, Note_on_c, 5, 56, 92
6, 4900, Note_on_c, 5, 61, 95
6, 4904, Note_on_c, 5, 66, 91
6, 4984, Note_on_c, 5, 56, 0
6, 4988, Note_on_c, 5, 61, 0
6, 4992, Note_on_c, 5, 66, 0
6, 4992, Note_on_c, 5, 56, 91
6, 4996, Note_on_c, 5, 61, 95
6, 5000, Note_on_c, 5, 66, 92
6, 5080, Note_on_c, 5, 56, 0
6, 5084, Note_on_c, 5, 61, 0
6, 5088, Note_on_c, 5, 66, 0
6, 5088, Note_on_c, 5, 56, 91
6, 5092, Note_on_c, 5, 61, 95
6, 5096, Note_on_c, 5, 66, 95
6, 5176, Note_on_c, 5, 56, 0
6, 5180, Note_on_c, 5, 61, 0
6, 5184, Note_on_c, 5, 66, 0
6, 5184, Note_on_c, 5, 56, 91
6, 5188, Note_on_c, 5, 61, 95
6, 5192, Note_on_c, 5, 66, 95
6, 5272, Note_on_c, 5, 56, 0
6, 5276, Note_on_c, 5, 61, 0
6, 5280, Note_on_c, 5, 66, 0
6, 5280, Note_on_c, 5, 56, 95
6, 5284, Note_on_c, 5, 61, 99
6, 5288, Note_on_c, 5, 66, 95
6, 5368, Note_on_c, 5, 56, 0
6, 5372, Note_on_c, 5, 61, 0
6, 5376, Note_on_c, 5, 56, 99
6, 5377, Note_on_c, 5, 66, 0
6, 5380, Note_on_c, 5, 61, 99
6, 5384, Note_on_c, 5, 65, 99
6, 5464, Note_on_c, 5, 56, 0
6, 5468, Note_on_c, 5, 61, 0
6, 5472, Note_on_c, 5, 65, 0
6, 5472, Note_on_c, 5, 56, 91
6, 5476, Note_on_c, 5, 61, 95
6, 5480, Note_on_c, 5, 65, 99
6, 5560, Note_on_c, 5, 56, 0
6, 5564, Note_on_c, 5, 61, 0
6, 5568, Note_on_c, 5, 65, 0
6, 5568, Note_on_c, 5, 56, 91
6, 5572, Note_on_c, 5, 61, 95
6, 5576, Note_on_c, 5, 65, 99
6, 5656, Note_on_c, 5, 56, 0
6, 5660, Note_on_c, 5, 61, 0
6, 5664, Note_on_c, 5, 65, 0
6, 5664, Note_on_c, 5, 56, 91
6, 5668, Note_on_c, 5, 61, 95
6, 5672, Note_on_c, 5, 65, 99
6, 5752, Note_on_c, 5, 56, 0
6, 5756, Note_on_c, 5, 61, 0
6, 5760, Note_on_c, 5, 65, 0
6, 5760, Note_on_c, 5, 56, 91
6, 5764, Note_on_c, 5, 61, 95
6, 5768, Note_on_c, 5, 65, 99
6, 5848, Note_on_c, 5, 56, 0
6, 5852, Note_on_c, 5, 61, 0
6, 5856, Note_on_c, 5, 65, 0
6, 5856, Note_on_c, 5, 56, 91
6, 5860, Note_on_c, 5, 61, 95
6, 5864, Note_on_c, 5, 65, 99
6, 5944, Note_on_c, 5, 56, 0
6, 5948, Note_on_c, 5, 61, 0
6, 5952, Note_on_c, 5, 65, 0
6, 5952, Note_on_c, 5, 56, 91
6, 5956, Note_on_c, 5, 61, 92
6, 5960, Note_on_c, 5, 65, 95
6, 6040, Note_on_c, 5, 56, 0
6, 6044, Note_on_c, 5, 61, 0
6, 6048, Note_on_c, 5, 65, 0
6, 6048, Note_on_c, 5, 56, 91
6, 6052, Note_on_c, 5, 61, 95
6, 6056, Note_on_c, 5, 65, 95
6, 6136, Note_on_c, 5, 56, 0
6, 6140, Note_on_c, 5, 61, 0
6, 6144, Note_on_c, 5, 56, 92
6, 6145, Note_on_c, 5, 65, 0
6, 6148, Note_on_c, 5, 61, 99
6, 6152, Note_on_c, 5, 66, 95
6, 6232, Note_on_c, 5, 56, 0
6, 6236, Note_on_c, 5, 61, 0
6, 6240, Note_on_c, 5, 66, 0
6, 6240, Note_on_c, 5, 56, 92
6, 6244, Note_on_c, 5, 61, 95
6, 6248, Note_on_c, 5, 66, 99
6, 6328, Note_on_c, 5, 56, 0
6, 6332, Note_on_c, 5, 61, 0
6, 6336, Note_on_c, 5, 66, 0
6, 6336, Note_on_c, 5, 56, 95
6, 6340, Note_on_c, 5, 61, 95
6, 6344, Note_on_c, 5, 66, 99
6, 6424, Note_on_c, 5, 56, 0
6, 6428, Note_on_c, 5, 61, 0
6, 6432, Note_on_c, 5, 66, 0
6, 6432, Note_on_c, 5, 56, 95
6, 6436, Note_on_c, 5, 61, 99
6, 6440, Note_on_c, 5, 66, 99
6, 6520, Note_on_c, 5, 56, 0
6, 6524, Note_on_c, 5, 61, 0
6, 6528, Note_on_c, 5, 66, 0
6, 6528, Note_on_c, 5, 56, 95
6, 6532, Note_on_c, 5, 61, 99
6, 6536, Note_on_c, 5, 66, 99
6, 6616, Note_on_c, 5, 56, 0
6, 6620, Note_on_c, 5, 61, 0
6, 6624, Note_on_c, 5, 66, 0
6, 6624, Note_on_c, 5, 56, 92
6, 6628, Note_on_c, 5, 61, 99
6, 6632, Note_on_c, 5, 66, 99
6, 6712, Note_on_c, 5, 56, 0
6, 6716, Note_on_c, 5, 61, 0
6, 6720, Note_on_c, 5, 66, 0
6, 6720, Note_on_c, 5, 56, 99
6, 6724, Note_on_c, 5, 61, 99
6, 6728, Note_on_c, 5, 66, 99
6, 6808, Note_on_c, 5, 56, 0
6, 6812, Note_on_c, 5, 61, 0
6, 6816, Note_on_c, 5, 66, 0
6, 6816, Note_on_c, 5, 56, 95
6, 6820, Note_on_c, 5, 61, 95
6, 6824, Note_on_c, 5, 66, 99
6, 6904, Note_on_c, 5, 56, 0
6, 6908, Note_on_c, 5, 61, 0
6, 6912, Note_on_c, 5, 56, 95
6, 6913, Note_on_c, 5, 66, 0
6, 6916, Note_on_c, 5, 61, 99
6, 6920, Note_on_c, 5, 65, 99
6, 7000, Note_on_c, 5, 56, 0
6, 7004, Note_on_c, 5, 61, 0
6, 7008, Note_on_c, 5, 65, 0
6, 7008, Note_on_c, 5, 56, 92
6, 7012, Note_on_c, 5, 61, 99
6, 7016, Note_on_c, 5, 65, 99
6, 7096, Note_on_c, 5, 56, 0
6, 7100, Note_on_c, 5, 61, 0
6, 7104, Note_on_c, 5, 65, 0
6, 7104, Note_on_c, 5, 56, 99
6, 7108, Note_on_c, 5, 61, 99
6, 7112, Note_on_c, 5, 65, 99
6, 7192, Note_on_c, 5, 56, 0
6, 7196, Note_on_c, 5, 61, 0
6, 7200, Note_on_c, 5, 65, 0
6, 7200, Note_on_c, 5, 56, 95
6, 7204, Note_on_c, 5, 61, 99
6, 7208, Note_on_c, 5, 65, 99
6, 7288, Note_on_c, 5, 56, 0
6, 7292, Note_on_c, 5, 61, 0
6, 7296, Note_on_c, 5, 65, 0
6, 7296, Note_on_c, 5, 56, 95
6, 7300, Note_on_c, 5, 61, 99
6, 7304, Note_on_c, 5, 65, 99
6, 7384, Note_on_c, 5, 56, 0
6, 7388, Note_on_c, 5, 61, 0
6, 7392, Note_on_c, 5, 65, 0
6, 7392, Note_on_c, 5, 56, 92
6, 7396, Note_on_c, 5, 61, 95
6, 7400, Note_on_c, 5, 65, 99
6, 7480, Note_on_c, 5, 56, 0
6, 7484, Note_on_c, 5, 61, 0
6, 7488, Note_on_c, 5, 65, 0
6, 7488, Note_on_c, 5, 56, 95
6, 7492, Note_on_c, 5, 61, 99
6, 7496, Note_on_c, 5, 65, 99
6, 7576, Note_on_c, 5, 56, 0
6, 7580, Note_on_c, 5, 61, 0
6, 7584, Note_on_c, 5, 65, 0
6, 7584, Note_on_c, 5, 56, 91
6, 7588, Note_on_c, 5, 61, 95
6, 7592, Note_on_c, 5, 65, 99
6, 7672, Note_on_c, 5, 56, 0
6, 7676, Note_on_c, 5, 61, 0
6, 7680, Note_on_c, 5, 56, 99
6, 7681, Note_on_c, 5, 65, 0
6, 7684, Note_on_c, 5, 61, 99
6, 7688, Note_on_c, 5, 66, 99
6, 7768, Note_on_c, 5, 56, 0
6, 7772, Note_on_c, 5, 61, 0
6, 7776, Note_on_c, 5, 66, 0
6, 7776, Note_on_c, 5, 56, 99
6, 7780, Note_on_c, 5, 61, 99
6, 7784, Note_on_c, 5, 66, 99
6, 7864, Note_on_c, 5, 56, 0
6, 7868, Note_on_c, 5, 61, 0
6, 7872, Note_on_c, 5, 66, 0
6, 7872, Note_on_c, 5, 56, 99
6, 7876, Note_on_c, 5, 61, 99
6, 7880, Note_on_c, 5, 66, 99
6, 7960, Note_on_c, 5, 56, 0
6, 7964, Note_on_c, 5, 61, 0
6, 7968, Note_on_c, 5, 66, 0
6, 7968, Note_on_c, 5, 56, 99
6, 7972, Note_on_c, 5, 61, 99
6, 7976, Note_on_c, 5, 66, 99
6, 8056, Note_on_c, 5, 56, 0
6, 8060, Note_on_c, 5, 61, 0
6, 8064, Note_on_c, 5, 66, 0
6, 8064, Note_on_c, 5, 56, 99
6, 8068, Note_on_c, 5, 61, 99
6, 8072, Note_on_c, 5, 66, 99
6, 8152, Note_on_c, 5, 56, 0
6, 8156, Note_on_c, 5, 61, 0
6, 8160, Note_on_c, 5, 66, 0
6, 8160, Note_on_c, 5, 56, 92
6, 8164, Note_on_c, 5, 61, 99
6, 8168, Note_on_c, 5, 66, 99
6, 8248, Note_on_c, 5, 56, 0
6, 8252, Note_on_c, 5, 61, 0
6, 8256, Note_on_c, 5, 66, 0
6, 8256, Note_on_c, 5, 56, 95
6, 8260, Note_on_c, 5, 61, 99
6, 8264, Note_on_c, 5, 66, 95
6, 8344, Note_on_c, 5, 56, 0
6, 8348, Note_on_c, 5, 61, 0
6, 8352, Note_on_c, 5, 66, 0
6, 8352, Note_on_c, 5, 56, 95
6, 8356, Note_on_c, 5, 61, 99
6, 8360, Note_on_c, 5, 66, 99
6, 8440, Note_on_c, 5, 56, 0
6, 8444, Note_on_c, 5, 61, 0
6, 8448, Note_on_c, 5, 56, 99
6, 8449, Note_on_c, 5, 66, 0
6, 8452, Note_on_c, 5, 61, 99
6, 8456, Note_on_c, 5, 65, 91
6, 8536, Note_on_c, 5, 56, 0
6, 8540, Note_on_c, 5, 61, 0
6, 8544, Note_on_c, 5, 65, 0
6, 8544, Note_on_c, 5, 56, 95
6, 8548, Note_on_c, 5, 61, 99
6, 8552, Note_on_c, 5, 65, 99
6, 8632, Note_on_c, 5, 56, 0
6, 8636, Note_on_c, 5, 61, 0
6, 8640, Note_on_c, 5, 65, 0
6, 8640, Note_on_c, 5, 56, 92
6, 8644, Note_on_c, 5, 61, 99
6, 8648, Note_on_c, 5, 65, 99
6, 8728, Note_on_c, 5, 56, 0
6, 8732, Note_on_c, 5, 61, 0
6, 8736, Note_on_c, 5, 65, 0
6, 8736, Note_on_c, 5, 56, 99
6, 8740, Note_on_c, 5, 61, 99
6, 8744, Note_on_c, 5, 65, 99
6, 8824, Note_on_c, 5, 56, 0
6, 8828, Note_on_c, 5, 61, 0
6, 8832, Note_on_c, 5, 65, 0
6, 8832, Note_on_c, 5, 56, 92
6, 8836, Note_on_c, 5, 61, 99
6, 8840, Note_on_c, 5, 65, 99
6, 8920, Note_on_c, 5, 56, 0
6, 8924, Note_on_c, 5, 61, 0
6, 8928, Note_on_c, 5, 65, 0
6, 8928, Note_on_c, 5, 56, 92
6, 8932, Note_on_c, 5, 61, 99
6, 8936, Note_on_c, 5, 65, 99
6, 9016, Note_on_c, 5, 56, 0
6, 9020, Note_on_c, 5, 61, 0
6, 9024, Note_on_c, 5, 65, 0
6, 9024, Note_on_c, 5, 56, 91
6, 9028, Note_on_c, 5, 61, 99
6, 9032, Note_on_c, 5, 65, 99
6, 9112, Note_on_c, 5, 56, 0
6, 9116, Note_on_c, 5, 61, 0
6, 9120, Note_on_c, 5, 65, 0
6, 9120, Note_on_c, 5, 56, 91
6, 9124, Note_on_c, 5, 61, 95
6, 9128, Note_on_c, 5, 65, 95
6, 9208, Note_on_c, 5, 56, 0
6, 9212, Note_on_c, 5, 61, 0
6, 9216, Note_on_c, 5, 56, 99
6, 9217, Note_on_c, 5, 65, 0
6, 9220, Note_on_c, 5, 61, 99
6, 9224, Note_on_c, 5, 66, 99
6, 9304, Note_on_c, 5, 56, 0
6, 9308, Note_on_c, 5, 61, 0
6, 9312, Note_on_c, 5, 66, 0
6, 9312, Note_on_c, 5, 56, 95
6, 9316, Note_on_c, 5, 61, 99
6, 9320, Note_on_c, 5, 66, 95
6, 9400, Note_on_c, 5, 56, 0
6, 9404, Note_on_c, 5, 61, 0
6, 9408, Note_on_c, 5, 66, 0
6, 9408, Note_on_c, 5, 56, 99
6, 9412, Note_on_c, 5, 61, 99
6, 9416, Note_on_c, 5, 66, 99
6, 9496, Note_on_c, 5, 56, 0
6, 9500, Note_on_c, 5, 61, 0
6, 9504, Note_on_c, 5, 66, 0
6, 9504, Note_on_c, 5, 56, 95
6, 9508, Note_on_c, 5, 61, 99
6, 9512, Note_on_c, 5, 66, 95
6, 9592, Note_on_c, 5, 56, 0
6, 9596, Note_on_c, 5, 61, 0
6, 9600, Note_on_c, 5, 66, 0
6, 9600, Note_on_c, 5, 56, 99
6, 9604, Note_on_c, 5, 61, 99
6, 9608, Note_on_c, 5, 66, 99
6, 9688, Note_on_c, 5, 56, 0
6, 9692, Note_on_c, 5, 61, 0
6, 9696, Note_on_c, 5, 66, 0
6, 9696, Note_on_c, 5, 56, 95
6, 9700, Note_on_c, 5, 61, 95
6, 9704, Note_on_c, 5, 66, 99
6, 9784, Note_on_c, 5, 56, 0
6, 9788, Note_on_c, 5, 61, 0
6, 9792, Note_on_c, 5, 66, 0
6, 9792, Note_on_c, 5, 56, 99
6, 9796, Note_on_c, 5, 61, 99
6, 9800, Note_on_c, 5, 66, 99
6, 9880, Note_on_c, 5, 56, 0
6, 9884, Note_on_c, 5, 61, 0
6, 9888, Note_on_c, 5, 66, 0
6, 9888, Note_on_c, 5, 56, 99
6, 9892, Note_on_c, 5, 61, 99
6, 9896, Note_on_c, 5, 66, 95
6, 9976, Note_on_c, 5, 56, 0
6, 9980, Note_on_c, 5, 61, 0
6, 9984, Note_on_c, 5, 56, 91
6, 9985, Note_on_c, 5, 66, 0
6, 9988, Note_on_c, 5, 61, 95
6, 9992, Note_on_c, 5, 65, 95
6, 10072, Note_on_c, 5, 56, 0
6, 10076, Note_on_c, 5, 61, 0
6, 10080, Note_on_c, 5, 65, 0
6, 10080, Note_on_c, 5, 56, 91
6, 10084, Note_on_c, 5, 61, 95
6, 10088, Note_on_c, 5, 65, 92
6, 10168, Note_on_c, 5, 56, 0
6, 10172, Note_on_c, 5, 61, 0
6, 10176, Note_on_c, 5, 65, 0
6, 10176, Note_on_c, 5, 56, 91
6, 10180, Note_on_c, 5, 61, 95
6, 10184, Note_on_c, 5, 65, 91
6, 10264, Note_on_c, 5, 56, 0
6, 10268, Note_on_c, 5, 61, 0
6, 10272, Note_on_c, 5, 65, 0
6, 10272, Note_on_c, 5, 56, 91
6, 10276, Note_on_c, 5, 61, 95
6, 10280, Note_on_c, 5, 65, 91
6, 10360, Note_on_c, 5, 56, 0
6, 10364, Note_on_c, 5, 61, 0
6, 10368, Note_on_c, 5, 65, 0
6, 10368, Note_on_c, 5, 56, 91
6, 10372, Note_on_c, 5, 61, 92
6, 10376, Note_on_c, 5, 65, 92
6, 10456, Note_on_c, 5, 56, 0
6, 10460, Note_on_c, 5, 61, 0
6, 10464, Note_on_c, 5, 65, 0
6, 10464, Note_on_c, 5, 56, 91
6, 10468, Note_on_c, 5, 61, 91
6, 10472, Note_on_c, 5, 65, 95
6, 10552, Note_on_c, 5, 56, 0
6, 10556, Note_on_c, 5, 61, 0
6, 10560, Note_on_c, 5, 65, 0
6, 10560, Note_on_c, 5, 56, 91
6, 10564, Note_on_c, 5, 61, 95
6, 10568, Note_on_c, 5, 65, 92
6, 10648, Note_on_c, 5, 56, 0
6, 10652, Note_on_c, 5, 61, 0
6, 10656, Note_on_c, 5, 65, 0
6, 10656, Note_on_c, 5, 56, 91
6, 10660, Note_on_c, 5, 61, 95
6, 10664, Note_on_c, 5, 65, 92
6, 10744, Note_on_c, 5, 56, 0
6, 10748, Note_on_c, 5, 61, 0
6, 10752, Note_on_c, 5, 56, 92
6, 10753, Note_on_c, 5, 65, 0
6, 10756, Note_on_c, 5, 61, 99
6, 10760, Note_on_c, 5, 66, 95
6, 10840, Note_on_c, 5, 56, 0
6, 10844, Note_on_c, 5, 61, 0
6, 10848, Note_on_c, 5, 66, 0
6, 10848, Note_on_c, 5, 56, 91
6, 10852, Note_on_c, 5, 61, 92
6, 10856, Note_on_c, 5, 66, 92
6, 10936, Note_on_c, 5, 56, 0
6, 10940, Note_on_c, 5, 61, 0
6, 10944, Note_on_c, 5, 66, 0
6, 10944, Note_on_c, 5, 56, 91
6, 10948, Note_on_c, 5, 61, 95
6, 10952, Note_on_c, 5, 66, 99
6, 11032, Note_on_c, 5, 56, 0
6, 11036, Note_on_c, 5, 61, 0
6, 11040, Note_on_c, 5, 66, 0
6, 11040, Note_on_c, 5, 56, 92
6, 11044, Note_on_c, 5, 61, 95
6, 11048, Note_on_c, 5, 66, 91
6, 11128, Note_on_c, 5, 56, 0
6, 11132, Note_on_c, 5, 61, 0
6, 11136, Note_on_c, 5, 66, 0
6, 11136, Note_on_c, 5, 56, 91
6, 11140, Note_on_c, 5, 61, 95
6, 11144, Note_on_c, 5, 66, 92
6, 11224, Note_on_c, 5, 56, 0
6, 11228, Note_on_c, 5, 61, 0
6, 11232, Note_on_c, 5, 66, 0
6, 11232, Note_on_c, 5, 56, 91
6, 11236, Note_on_c, 5, 61, 95
6, 11240, Note_on_c, 5, 66, 95
6, 11320, Note_on_c, 5, 56, 0
6, 11324, Note_on_c, 5, 61, 0
6, 11328, Note_on_c, 5, 66, 0
6, 11328, Note_on_c, 5, 56, 91
6, 11332, Note_on_c, 5, 61, 95
6, 11336, Note_on_c, 5, 66, 95
6, 11416, Note_on_c, 5, 56, 0
6, 11420, Note_on_c, 5, 61, 0
6, 11424, Note_on_c, 5, 66, 0
6, 11424, Note_on_c, 5, 56, 95
6, 11428, Note_on_c, 5, 61, 99
6, 11432, Note_on_c, 5, 66, 95
6, 11512, Note_on_c, 5, 56, 0
6, 11516, Note_on_c, 5, 61, 0
6, 11520, Note_on_c, 5, 56, 99
6, 11521, Note_on_c, 5, 66, 0
6, 11524, Note_on_c, 5, 61, 99
6, 11528, Note_on_c, 5, 65, 99
6, 11608, Note_on_c, 5, 56, 0
6, 11612, Note_on_c, 5, 61, 0
6, 11616, Note_on_c, 5, 65, 0
6, 11616, Note_on_c, 5, 56, 91
6, 11620, Note_on_c, 5, 61, 95
6, 11624, Note_on_c, 5, 65, 99
6, 11704, Note_on_c, 5, 56, 0
6, 11708, Note_on_c, 5, 61, 0
6, 11712, Note_on_c, 5, 65, 0
6, 11712, Note_on_c, 5, 56, 91
6, 11716, Note_on_c, 5, 61, 95
6, 11720, Note_on_c, 5, 65, 99
6, 11800, Note_on_c, 5, 56, 0
6, 11804, Note_on_c, 5, 61, 0
6, 11808, Note_on_c, 5, 65, 0
6, 11808, Note_on_c, 5, 56, 91
6, 11812, Note_on_c, 5, 61, 95
6, 11816, Note_on_c, 5, 65, 99
6, 11896, Note_on_c, 5, 56, 0
6, 11900, Note_on_c, 5, 61, 0
6, 11904, Note_on_c, 5, 65, 0
6, 11904, Note_on_c, 5, 56, 91
6, 11908, Note_on_c, 5, 61, 95
6, 11912, Note_on_c, 5, 65, 99
6, 11992, Note_on_c, 5, 56, 0
6, 11996, Note_on_c, 5, 61, 0
6, 12000, Note_on_c, 5, 65, 0
6, 12000, Note_on_c, 5, 56, 91
6, 12004, Note_on_c, 5, 61, 95
6, 12008, Note_on_c, 5, 65, 99
6, 12088, Note_on_c, 5, 56, 0
6, 12092, Note_on_c, 5, 61, 0
6, 12096, Note_on_c, 5, 65, 0
6, 12096, Note_on_c, 5, 56, 91
6, 12100, Note_on_c, 5, 61, 92
6, 12104, Note_on_c, 5, 65, 95
6, 12184, Note_on_c, 5, 56, 0
6, 12188, Note_on_c, 5, 61, 0
6, 12192, Note_on_c, 5, 65, 0
6, 12192, Note_on_c, 5, 56, 91
6, 12196, Note_on_c, 5, 61, 95
6, 12200, Note_on_c, 5, 65, 95
6, 12280, Note_on_c, 5, 56, 0
6, 12284, Note_on_c, 5, 61, 0
6, 12288, Note_on_c, 5, 56, 92
6, 12289, Note_on_c, 5, 65, 0
6, 12292, Note_on_c, 5, 61, 99
6, 12296, Note_on_c, 5, 66, 95
6, 12376, Note_on_c, 5, 56, 0
6, 12380, Note_on_c, 5, 61, 0
6, 12384, Note_on_c, 5, 66, 0
6, 12384, Note_on_c, 5, 56, 92
6, 12388, Note_on_c, 5, 61, 95
6, 12392, Note_on_c, 5, 66, 99
6, 12472, Note_on_c, 5, 56, 0
6, 12476, Note_on_c, 5, 61, 0
6, 12480, Note_on_c, 5, 66, 0
6, 12480, Note_on_c, 5, 56, 95
6, 12484, Note_on_c, 5, 61, 95
6, 12488, Note_on_c, 5, 66, 99
6, 12568, Note_on_c, 5, 56, 0
6, 12572, Note_on_c, 5, 61, 0
6, 12576, Note_on_c, 5, 66, 0
6, 12576, Note_on_c, 5, 56, 95
6, 12580, Note_on_c, 5, 61, 99
6, 12584, Note_on_c, 5, 66, 99
6, 12664, Note_on_c, 5, 56, 0
6, 12668, Note_on_c, 5, 61, 0
6, 12672, Note_on_c, 5, 66, 0
6, 12672, Note_on_c, 5, 56, 95
6, 12676, Note_on_c, 5, 61, 99
6, 12680, Note_on_c, 5, 66, 99
6, 12760, Note_on_c, 5, 56, 0
6, 12764, Note_on_c, 5, 61, 0
6, 12768, Note_on_c, 5, 66, 0
6, 12768, Note_on_c, 5, 56, 92
6, 12772, Note_on_c, 5, 61, 99
6, 12776, Note_on_c, 5, 66, 99
6, 12856, Note_on_c, 5, 56, 0
6, 12860, Note_on_c, 5, 61, 0
6, 12864, Note_on_c, 5, 66, 0
6, 12864, Note_on_c, 5, 56, 99
6, 12868, Note_on_c, 5, 61, 99
6, 12872, Note_on_c, 5, 66, 99
6, 12952, Note_on_c, 5, 56, 0
6, 12956, Note_on_c, 5, 61, 0
6, 12960, Note_on_c, 5, 66, 0
6, 12960, Note_on_c, 5, 56, 95
6, 12964, Note_on_c, 5, 61, 95
6, 12968, Note_on_c, 5, 66, 99
6, 13048, Note_on_c, 5, 56, 0
6, 13052, Note_on_c, 5, 61, 0
6, 13056, Note_on_c, 5, 56, 95
6, 13057, Note_on_c, 5, 66, 0
6, 13060, Note_on_c, 5, 61, 99
6, 13064, Note_on_c, 5, 65, 99
6, 13144, Note_on_c, 5, 56, 0
6, 13148, Note_on_c, 5, 61, 0
6, 13152, Note_on_c, 5, 65, 0
6, 13152, Note_on_c, 5, 56, 92
6, 13156, Note_on_c, 5, 61, 99
6, 13160, Note_on_c, 5, 65, 99
6, 13240, Note_on_c, 5, 56, 0
6, 13244, Note_on_c, 5, 61, 0
6, 13248, Note_on_c, 5, 65, 0
6, 13248, Note_on_c, 5, 56, 99
6, 13252, Note_on_c, 5, 61, 99
6, 13256, Note_on_c, 5, 65, 99
6, 13336, Note_on_c, 5, 56, 0
6, 13340, Note_on_c, 5, 61, 0
6, 13344, Note_on_c, 5, 65, 0
6, 13344, Note_on_c, 5, 56, 95
6, 13348, Note_on_c, 5, 61, 99
6, 13352, Note_on_c, 5, 65, 99
6, 13432, Note_on_c, 5, 56, 0
6, 13436, Note_on_c, 5, 61, 0
6, 13440, Note_on_c, 5, 65, 0
6, 13440, Note_on_c, 5, 56, 95
6, 13444, Note_on_c, 5, 61, 99
6, 13448, Note_on_c, 5, 65, 99
6, 13528, Note_on_c, 5, 56, 0
6, 13532, Note_on_c, 5, 61, 0
6, 13536, Note_on_c, 5, 65, 0
6, 13536, Note_on_c, 5, 56, 92
6, 13540, Note_on_c, 5, 61, 95
6, 13544, Note_on_c, 5, 65, 99
6, 13624, Note_on_c, 5, 56, 0
6, 13628, Note_on_c, 5, 61, 0
6, 13632, Note_on_c, 5, 65, 0
6, 13632, Note_on_c, 5, 56, 95
6, 13636, Note_on_c, 5, 61, 99
6, 13640, Note_on_c, 5, 65, 99
6, 13720, Note_on_c, 5, 56, 0
6, 13724, Note_on_c, 5, 61, 0
6, 13728, Note_on_c, 5, 65, 0
6, 13728, Note_on_c, 5, 56, 91
6, 13732, Note_on_c, 5, 61, 95
6, 13736, Note_on_c, 5, 65, 99
6, 13816, Note_on_c, 5, 56, 0
6, 13820, Note_on_c, 5, 61, 0
6, 13824, Note_on_c, 5, 56, 99
6, 13825, Note_on_c, 5, 65, 0
6, 13828, Note_on_c, 5, 61, 99
6, 13832, Note_on_c, 5, 66, 99
6, 13912, Note_on_c, 5, 56, 0
6, 13916, Note_on_c, 5, 61, 0
6, 13920, Note_on_c, 5, 66, 0
6, 13920, Note_on_c, 5, 56, 99
6, 13924, Note_on_c, 5, 61, 99
6, 13928, Note_on_c, 5, 66, 99
6, 14008, Note_on_c, 5, 56, 0
6, 14012, Note_on_c, 5, 61, 0
6, 14016, Note_on_c, 5, 66, 0
6, 14016, Note_on_c, 5, 56, 99
6, 14020, Note_on_c, 5, 61, 99
6, 14024, Note_on_c, 5, 66, 99
6, 14104, Note_on_c, 5, 56, 0
6, 14108, Note_on_c, 5, 61, 0
6, 14112, Note_on_c, 5, 66, 0
6, 14112, Note_on_c, 5, 56, 99
6, 14116, Note_on_c, 5, 61, 99
6, 14120, Note_on_c, 5, 66, 99
6, 14200, Note_on_c, 5, 56, 0
6, 14204, Note_on_c, 5, 61, 0
6, 14208, Note_on_c, 5, 66, 0
6, 14208, Note_on_c, 5, 56, 99
6, 14212, Note_on_c, 5, 61, 99
6, 14216, Note_on_c, 5, 66, 99
6, 14296, Note_on_c, 5, 56, 0
6, 14300, Note_on_c, 5, 61, 0
6, 14304, Note_on_c, 5, 66, 0
6, 14304, Note_on_c, 5, 56, 92
6, 14308, Note_on_c, 5, 61, 99
6, 14312, Note_on_c, 5, 66, 99
6, 14392, Note_on_c, 5, 56, 0
6, 14396, Note_on_c, 5, 61, 0
6, 14400, Note_on_c, 5, 66, 0
6, 14400, Note_on_c, 5, 56, 95
6, 14404, Note_on_c, 5, 61, 99
6, 14408, Note_on_c, 5, 66, 95
6, 14488, Note_on_c, 5, 56, 0
6, 14492, Note_on_c, 5, 61, 0
6, 14496, Note_on_c, 5, 66, 0
6, 14496, Note_on_c, 5, 56, 95
6, 14500, Note_on_c, 5, 61, 99
6, 14504, Note_on_c, 5, 66, 99
6, 14584, Note_on_c, 5, 56, 0
6, 14588, Note_on_c, 5, 61, 0
6, 14592, Note_on_c, 5, 56, 99
6, 14593, Note_on_c, 5, 66, 0
6, 14596, Note_on_c, 5, 61, 99
6, 14600, Note_on_c, 5, 65, 91
6, 14680, Note_on_c, 5, 56, 0
6, 14684, Note_on_c, 5, 61, 0
6, 14688, Note_on_c, 5, 65, 0
6, 14688, Note_on_c, 5, 56, 95
6, 14692, Note_on_c, 5, 61, 99
6, 14696, Note_on_c, 5, 65, 99
6, 14776, Note_on_c, 5, 56, 0
6, 14780, Note_on_c, 5, 61, 0
6, 14784, Note_on_c, 5, 65, 0
6, 14784, Note_on_c, 5, 56, 92
6, 14788, Note_on_c, 5, 61, 99
6, 14792, Note_on_c, 5, 65, 99
6, 14872, Note_on_c, 5, 56, 0
6, 14876, Note_on_c, 5, 61, 0
6, 14880, Note_on_c, 5, 65, 0
6, 14880, Note_on_c, 5, 56, 99
6, 14884, Note_on_c, 5, 61, 99
6, 14888, Note_on_c, 5, 65, 99
6, 14968, Note_on_c, 5, 56, 0
6, 14972, Note_on_c, 5, 61, 0
6, 14976, Note_on_c, 5, 65, 0
6, 14976, Note_on_c, 5, 56, 92
6, 14980, Note_on_c, 5, 61, 99
6, 14984, Note_on_c, 5, 65, 99
6, 15064, Note_on_c, 5, 56, 0
6, 15068, Note_on_c, 5, 61, 0
6, 15072, Note_on_c, 5, 65, 0
6, 15072, Note_on_c, 5, 56, 92
6, 15076, Note_on_c, 5, 61, 99
6, 15080, Note_on_c, 5, 65, 99
6, 15160, Note_on_c, 5, 56, 0
6, 15164, Note_on_c, 5, 61, 0
6, 15168, Note_on_c, 5, 65, 0
6, 15168, Note_on_c, 5, 56, 91
6, 15172, Note_on_c, 5, 61, 99
6, 15176, Note_on_c, 5, 65, 99
6, 15256, Note_on_c, 5, 56, 0
6, 15260, Note_on_c, 5, 61, 0
6, 15264, Note_on_c, 5, 65, 0
6, 15264, Note_on_c, 5, 56, 91
6, 15268, Note_on_c, 5, 61, 95
6, 15272, Note_on_c, 5, 65, 95
6, 15352, Note_on_c, 5, 56, 0
6, 15356, Note_on_c, 5, 61, 0
6, 15360, Note_on_c, 5, 56, 99
6, 15361, Note_on_c, 5, 65, 0
6, 15364, Note_on_c, 5, 61, 99
6, 15368, Note_on_c, 5, 66, 99
6, 15448, Note_on_c, 5, 56, 0
6, 15452, Note_on_c, 5, 61, 0
6, 15456, Note_on_c, 5, 66, 0
6, 15456, Note_on_c, 5, 56, 95
6, 15460, Note_on_c, 5, 61, 99
6, 15464, Note_on_c, 5, 66, 95
6, 15544, Note_on_c, 5, 56, 0
6, 15548, Note_on_c, 5, 61, 0
6, 15552, Note_on_c, 5, 66, 0
6, 15552, Note_on_c, 5, 56, 99
6, 15556, Note_on_c, 5, 61, 99
6, 15560, Note_on_c, 5, 66, 99
6, 15640, Note_on_c, 5, 56, 0
6, 15644, Note_on_c, 5, 61, 0
6, 15648, Note_on_c, 5, 66, 0
6, 15648, Note_on_c, 5, 56, 95
6, 15652, Note_on_c, 5, 61, 99
6, 15656, Note_on_c, 5, 66, 95
6, 15736, Note_on_c, 5, 56, 0
6, 15740, Note_on_c, 5, 61, 0
6, 15744, Note_on_c, 5, 66, 0
6, 15744, Note_on_c, 5, 56, 99
6, 15748, Note_on_c, 5, 61, 99
6, 15752, Note_on_c, 5, 66, 99
6, 15832, Note_on_c, 5, 56, 0
6, 15836, Note_on_c, 5, 61, 0
6, 15840, Note_on_c, 5, 66, 0
6, 15840, Note_on_c, 5, 56, 95
6, 15844, Note_on_c, 5, 61, 95
6, 15848, Note_on_c, 5, 66, 99
6, 15928, Note_on_c, 5, 56, 0
6, 15932, Note_on_c, 5, 61, 0
6, 15936, Note_on_c, 5, 66, 0
6, 15936, Note_on_c, 5, 56, 99
6, 15940, Note_on_c, 5, 61, 99
6, 15944, Note_on_c, 5, 66, 99
6, 16024, Note_on_c, 5, 56, 0
6, 16028, Note_on_c, 5, 61, 0
6, 16032, Note_on_c, 5, 66, 0
6, 16032, Note_on_c, 5, 56, 99
6, 16036, Note_on_c, 5, 61, 99
6, 16040, Note_on_c, 5, 66, 95
6, 16120, Note_on_c, 5, 56, 0
6, 16124, Note_on_c, 5, 61, 0
6, 16128, Note_on_c, 5, 56, 91
6, 16129, Note_on_c, 5, 66, 0
6, 16132, Note_on_c, 5, 61, 95
6, 16136, Note_on_c, 5, 65, 95
6, 16216, Note_on_c, 5, 56, 0
6, 16220, Note_on_c, 5, 61, 0
6, 16224, Note_on_c, 5, 65, 0
6, 16224, Note_on_c, 5, 56, 91
6, 16228, Note_on_c, 5, 61, 95
6, 16232, Note_on_c, 5, 65, 92
6, 16312, Note_on_c, 5, 56, 0
6, 16316, Note_on_c, 5, 61, 0
6, 16320, Note_on_c, 5, 65, 0
6, 16320, Note_on_c, 5, 56, 91
6, 16324, Note_on_c, 5, 61, 95
6, 16328, Note_on_c, 5, 65, 91
6, 16408, Note_on_c, 5, 56, 0
6, 16412, Note_on_c, 5, 61, 0
6, 16416, Note_on_c, 5, 65, 0
6, 16416, Note_on_c, 5, 56, 91
6, 16420, Note_on_c, 5, 61, 95
6, 16424, Note_on_c, 5, 65, 91
6, 16504, Note_on_c, 5, 56, 0
6, 16508, Note_on_c, 5, 61, 0
6, 16512, Note_on_c, 5, 65, 0
6, 16512, Note_on_c, 5, 56, 91
6, 16516, Note_on_c, 5, 61, 92
6, 16520, Note_on_c, 5, 65, 92
6, 16600, Note_on_c, 5, 56, 0
6, 16604, Note_on_c, 5, 61, 0
6, 16608, Note_on_c, 5, 65, 0
6, 16608, Note_on_c, 5, 56, 91
6, 16612, Note_on_c, 5, 61, 91
6, 16616, Note_on_c, 5, 65, 95
6, 16696, Note_on_c, 5, 56, 0
6, 16700, Note_on_c, 5, 61, 0
6, 16704, Note_on_c, 5, 65, 0
6, 16704, Note_on_c, 5, 56, 91
6, 16708, Note_on_c, 5, 61, 95
6, 16712, Note_on_c, 5, 65, 92
6, 16792, Note_on_c, 5, 56, 0
6, 16796, Note_on_c, 5, 61, 0
6, 16800, Note_on_c, 5, 65, 0
6, 16800, Note_on_c, 5, 56, 91
6, 16804, Note_on_c, 5, 61, 95
6, 16808, Note_on_c, 5, 65, 92
6, 16888, Note_on_c, 5, 56, 0
6, 16892, Note_on_c, 5, 61, 0
6, 16896, Note_on_c, 5, 56, 92
6, 16897, Note_on_c, 5, 65, 0
6, 16900, Note_on_c, 5, 61, 99
6, 16904, Note_on_c, 5, 66, 95
6, 16984, Note_on_c, 5, 56, 0
6, 16988, Note_on_c, 5, 61, 0
6, 16992, Note_on_c, 5, 66, 0
6, 16992, Note_on_c, 5, 56, 91
6, 16996, Note_on_c, 5, 61, 92
6, 17000, Note_on_c, 5, 66, 92
6, 17080, Note_on_c, 5, 56, 0
6, 17084, Note_on_c, 5, 61, 0
6, 17088, Note_on_c, 5, 66, 0
6, 17088, Note_on_c, 5, 56, 91
6, 17092, Note_on_c, 5, 61, 95
6, 17096, Note_on_c, 5, 66, 99
6, 17176, Note_on_c, 5, 56, 0
6, 17180, Note_on_c, 5, 61, 0
6, 17184, Note_on_c, 5, 66, 0
6, 17184, Note_on_c, 5, 56, 92
6, 17188, Note_on_c, 5, 61, 95
6, 17192, Note_on_c, 5, 66, 91
6, 17272, Note_on_c, 5, 56, 0
6, 17276, Note_on_c, 5, 61, 0
6, 17280, Note_on_c, 5, 66, 0
6, 17280, Note_on_c, 5, 56, 91
6, 17284, Note_on_c, 5, 61, 95
6, 17288, Note_on_c, 5, 66, 92
6, 17368, Note_on_c, 5, 56, 0
6, 17372, Note_on_c, 5, 61, 0
6, 17376, Note_on_c, 5, 66, 0
6, 17376, Note_on_c, 5, 56, 91
6, 17380, Note_on_c, 5, 61, 95
6, 17384, Note_on_c, 5, 66, 95
6, 17464, Note_on_c, 5, 56, 0
6, 17468, Note_on_c, 5, 61, 0
6, 17472, Note_on_c, 5, 66, 0
6, 17472, Note_on_c, 5, 56, 91
6, 17476, Note_on_c, 5, 61, 95
6, 17480, Note_on_c, 5, 66, 95
6, 17560, Note_on_c, 5, 56, 0
6, 17564, Note_on_c, 5, 61, 0
6, 17568, Note_on_c, 5, 66, 0
6, 17568, Note_on_c, 5, 56, 95
6, 17572, Note_on_c, 5, 61, 99
6, 17576, Note_on_c, 5, 66, 95
6, 17656, Note_on_c, 5, 56, 0
6, 17660, Note_on_c, 5, 61, 0
6, 17664, Note_on_c, 5, 56, 99
6, 17665, Note_on_c, 5, 66, 0
6, 17668, Note_on_c, 5, 61, 99
6, 17672, Note_on_c, 5, 65, 99
6, 17752, Note_on_c, 5, 56, 0
6, 17756, Note_on_c, 5, 61, 0
6, 17760, Note_on_c, 5, 65, 0
6, 17760, Note_on_c, 5, 56, 91
6, 17764, Note_on_c, 5, 61, 95
6, 17768, Note_on_c, 5, 65, 99
6, 17848, Note_on_c, 5, 56, 0
6, 17852, Note_on_c, 5, 61, 0
6, 17856, Note_on_c, 5, 65, 0
6, 17856, Note_on_c, 5, 56, 91
6, 17860, Note_on_c, 5, 61, 95
6, 17864, Note_on_c, 5, 65, 99
6, 17944, Note_on_c, 5, 56, 0
6, 17948, Note_on_c, 5, 61, 0
6, 17952, Note_on_c, 5, 65, 0
6, 17952, Note_on_c, 5, 56, 91
6, 17956, Note_on_c, 5, 61, 95
6, 17960, Note_on_c, 5, 65, 99
6, 18040, Note_on_c, 5, 56, 0
6, 18044, Note_on_c, 5, 61, 0
6, 18048, Note_on_c, 5, 65, 0
6, 18048, Note_on_c, 5, 56, 91
6, 18052, Note_on_c, 5, 61, 95
6, 18056, Note_on_c, 5, 65, 99
6, 18136, Note_on_c, 5, 56, 0
6, 18140, Note_on_c, 5, 61, 0
6, 18144, Note_on_c, 5, 65, 0
6, 18144, Note_on_c, 5, 56, 91
6, 18148, Note_on_c, 5, 61, 95
6, 18152, Note_on_c, 5, 65, 99
6, 18232, Note_on_c, 5, 56, 0
6, 18236, Note_on_c, 5, 61, 0
6, 18240, Note_on_c, 5, 65, 0
6, 18240, Note_on_c, 5, 56, 91
6, 18244, Note_on_c, 5, 61, 92
6, 18248, Note_on_c, 5, 65, 95
6, 18328, Note_on_c, 5, 56, 0
6, 18332, Note_on_c, 5, 61, 0
6, 18336, Note_on_c, 5, 65, 0
6, 18336, Note_on_c, 5, 56, 91
6, 18340, Note_on_c, 5, 61, 95
6, 18344, Note_on_c, 5, 65, 95
6, 18424, Note_on_c, 5, 56, 0
6, 18428, Note_on_c, 5, 61, 0
6, 18432, Note_on_c, 5, 56, 92
6, 18433, Note_on_c, 5, 65, 0
6, 18436, Note_on_c, 5, 61, 99
6, 18440, Note_on_c, 5, 66, 95
6, 18520, Note_on_c, 5, 56, 0
6, 18524, Note_on_c, 5, 61, 0
6, 18528, Note_on_c, 5, 66, 0
6, 18528, Note_on_c, 5, 56, 92
6, 18532, Note_on_c, 5, 61, 95
6, 18536, Note_on_c, 5, 66, 99
6, 18616, Note_on_c, 5, 56, 0
6, 18620, Note_on_c, 5, 61, 0
6, 18624, Note_on_c, 5, 66, 0
6, 18624, Note_on_c, 5, 56, 95
6, 18628, Note_on_c, 5, 61, 95
6, 18632, Note_on_c, 5, 66, 99
6, 18712, Note_on_c, 5, 56, 0
6, 18716, Note_on_c, 5, 61, 0
6, 18720, Note_on_c, 5, 66, 0
6, 18720, Note_on_c, 5, 56, 95
6, 18724, Note_on_c, 5, 61, 99
6, 18728, Note_on_c, 5, 66, 99
6, 18808, Note_on_c, 5, 56, 0
6, 18812, Note_on_c, 5, 61, 0
6, 18816, Note_on_c, 5, 66, 0
6, 18816, Note_on_c, 5, 56, 95
6, 18820, Note_on_c, 5, 61, 99
6, 18824, Note_on_c, 5, 66, 99
6, 18904, Note_on_c, 5, 56, 0
6, 18908, Note_on_c, 5, 61, 0
6, 18912, Note_on_c, 5, 66, 0
6, 18912, Note_on_c, 5, 56, 92
6, 18916, Note_on_c, 5, 61, 99
6, 18920, Note_on_c, 5, 66, 99
6, 19000, Note_on_c, 5, 56, 0
6, 19004, Note_on_c, 5, 61, 0
6, 19008, Note_on_c, 5, 66, 0
6, 19008, Note_on_c, 5, 56, 99
6, 19012, Note_on_c, 5, 61, 99
6, 19016, Note_on_c, 5, 66, 99
6, 19096, Note_on_c, 5, 56, 0
6, 19100, Note_on_c, 5, 61, 0
6, 19104, Note_on_c, 5, 66, 0
6, 19104, Note_on_c, 5, 56, 95
6, 19108, Note_on_c, 5, 61, 95
6, 19112, Note_on_c, 5, 66, 99
6, 19192, Note_on_c, 5, 56, 0
6, 19196, Note_on_c, 5, 61, 0
6, 19200, Note_on_c, 5, 56, 95
6, 19201, Note_on_c, 5, 66, 0
6, 19204, Note_on_c, 5, 61, 99
6, 19208, Note_on_c, 5, 65, 99
6, 19288, Note_on_c, 5, 56, 0
6, 19292, Note_on_c, 5, 61, 0
6, 19296, Note_on_c, 5, 65, 0
6, 19296, Note_on_c, 5, 56, 92
6, 19300, Note_on_c, 5, 61, 99
6, 19304, Note_on_c, 5, 65, 99
6, 19384, Note_on_c, 5, 56, 0
6, 19388, Note_on_c, 5, 61, 0
6, 19392, Note_on_c, 5, 65, 0
6, 19392, Note_on_c, 5, 56, 99
6, 19396, Note_on_c, 5, 61, 99
6, 19400, Note_on_c, 5, 65, 99
6, 19480, Note_on_c, 5, 56, 0
6, 19484, Note_on_c, 5, 61, 0
6, 19488, Note_on_c, 5, 65, 0
6, 19488, Note_on_c, 5, 56, 95
6, 19492, Note_on_c, 5, 61, 99
6, 19496, Note_on_c, 5, 65, 99
6, 19576, Note_on_c, 5, 56, 0
6, 19580, Note_on_c, 5, 61, 0
6, 19584, Note_on_c, 5, 65, 0
6, 19584, Note_on_c, 5, 56, 95
6, 19588, Note_on_c, 5, 61, 99
6, 19592, Note_on_c, 5, 65, 99
6, 19672, Note_on_c, 5, 56, 0
6, 19676, Note_on_c, 5, 61, 0
6, 19680, Note_on_c, 5, 65, 0
6, 19680, Note_on_c, 5, 56, 92
6, 19684, Note_on_c, 5, 61, 95
6, 19688, Note_on_c, 5, 65, 99
6, 19768, Note_on_c, 5, 56, 0
6, 19772, Note_on_c, 5, 61, 0
6, 19776, Note_on_c, 5, 65, 0
6, 19776, Note_on_c, 5, 56, 95
6, 19780, Note_on_c, 5, 61, 99
6, 19784, Note_on_c, 5, 65, 99
6, 19864, Note_on_c, 5, 56, 0
6, 19868, Note_on_c, 5, 61, 0
6, 19872, Note_on_c, 5, 65, 0
6, 19872, Note_on_c, 5, 56, 91
6, 19876, Note_on_c, 5, 61, 95
6, 19880, Note_on_c, 5, 65, 99
6, 19960, Note_on_c, 5, 56, 0
6, 19964, Note_on_c, 5, 61, 0
6, 19968, Note_on_c, 5, 56, 99
6, 19969, Note_on_c, 5, 65, 0
6, 19972, Note_on_c, 5, 61, 99
6, 19976, Note_on_c, 5, 66, 99
6, 20056, Note_on_c, 5, 56, 0
6, 20060, Note_on_c, 5, 61, 0
6, 20064, Note_on_c, 5, 66, 0
6, 20064, Note_on_c, 5, 56, 99
6, 20068, Note_on_c, 5, 61, 99
6, 20072, Note_on_c, 5, 66, 99
6, 20152, Note_on_c, 5, 56, 0
6, 20156, Note_on_c, 5, 61, 0
6, 20160, Note_on_c, 5, 66, 0
6, 20160, Note_on_c, 5, 56, 99
6, 20164, Note_on_c, 5, 61, 99
6, 20168, Note_on_c, 5, 66, 99
6, 20248, Note_on_c, 5, 56, 0
6, 20252, Note_on_c, 5, 61, 0
6, 20256, Note_on_c, 5, 66, 0
6, 20256, Note_on_c, 5, 56, 99
6, 20260, Note_on_c, 5, 61, 99
6, 20264, Note_on_c, 5, 66, 99
6, 20344, Note_on_c, 5, 56, 0
6, 20348, Note_on_c, 5, 61, 0
6, 20352, Note_on_c, 5, 66, 0
6, 20352, Note_on_c, 5, 56, 99
6, 20356, Note_on_c, 5, 61, 99
6, 20360, Note_on_c, 5, 66, 99
6, 20440, Note_on_c, 5, 56, 0
6, 20444, Note_on_c, 5, 61, 0
6, 20448, Note_on_c, 5, 66, 0
6, 20448, Note_on_c, 5, 56, 92
6, 20452, Note_on_c, 5, 61, 99
6, 20456, Note_on_c, 5, 66, 99
6, 20536, Note_on_c, 5, 56, 0
6, 20540, Note_on_c, 5, 61, 0
6, 20544, Note_on_c, 5, 66, 0
6, 20544, Note_on_c, 5, 56, 95
6, 20548, Note_on_c, 5, 61, 99
6, 20552, Note_on_c, 5, 66, 95
6, 20632, Note_on_c, 5, 56, 0
6, 20636, Note_on_c, 5, 61, 0
6, 20640, Note_on_c, 5, 66, 0
6, 20640, Note_on_c, 5, 56, 95
6, 20644, Note_on_c, 5, 61, 99
6, 20648, Note_on_c, 5, 66, 99
6, 20728, Note_on_c, 5, 56, 0
6, 20732, Note_on_c, 5, 61, 0
6, 20736, Note_on_c, 5, 56, 99
6, 20737, Note_on_c, 5, 66, 0
6, 20740, Note_on_c, 5, 61, 99
6, 20744, Note_on_c, 5, 65, 91
6, 20824, Note_on_c, 5, 56, 0
6, 20828, Note_on_c, 5, 61, 0
6, 20832, Note_on_c, 5, 65, 0
6, 20832, Note_on_c, 5, 56, 95
6, 20836, Note_on_c, 5, 61, 99
6, 20840, Note_on_c, 5, 65, 99
6, 20920, Note_on_c, 5, 56, 0
6, 20924, Note_on_c, 5, 61, 0
6, 20928, Note_on_c, 5, 65, 0
6, 20928, Note_on_c, 5, 56, 92
6, 20932, Note_on_c, 5, 61, 99
6, 20936, Note_on_c, 5, 65, 99
6, 21016, Note_on_c, 5, 56, 0
6, 21020, Note_on_c, 5, 61, 0
6, 21024, Note_on_c, 5, 65, 0
6, 21024, Note_on_c, 5, 56, 99
6, 21028, Note_on_c, 5, 61, 99
6, 21032, Note_on_c, 5, 65, 99
6, 21112, Note_on_c, 5, 56, 0
6, 21116, Note_on_c, 5, 61, 0
6, 21120, Note_on_c, 5, 65, 0
6, 21120, Note_on_c, 5, 56, 92
6, 21124, Note_on_c, 5, 61, 99
6, 21128, Note_on_c, 5, 65, 99
6, 21208, Note_on_c, 5, 56, 0
6, 21212, Note_on_c, 5, 61, 0
6, 21216, Note_on_c, 5, 65, 0
6, 21216, Note_on_c, 5, 56, 92
6, 21220, Note_on_c, 5, 61, 99
6, 21224, Note_on_c, 5, 65, 99
6, 21304, Note_on_c, 5, 56, 0
6, 21308, Note_on_c, 5, 61, 0
6, 21312, Note_on_c, 5, 65, 0
6, 21312, Note_on_c, 5, 56, 91
6, 21316, Note_on_c, 5, 61, 99
6, 21320, Note_on_c, 5, 65, 99
6, 21400, Note_on_c, 5, 56, 0
6, 21404, Note_on_c, 5, 61, 0
6, 21408, Note_on_c, 5, 65, 0
6, 21408, Note_on_c, 5, 56, 91
6, 21412, Note_on_c, 5, 61, 95
6, 21416, Note_on_c, 5, 65, 95
6, 21496, Note_on_c, 5, 56, 0
6, 21500, Note_on_c, 5, 61, 0
6, 21504, Note_on_c, 5, 56, 99
6, 21505, Note_on_c, 5, 65, 0
6, 21508, Note_on_c, 5, 61, 99
6, 21512, Note_on_c, 5, 66, 99
6, 21592, Note_on_c, 5, 56, 0
6, 21596, Note_on_c, 5, 61, 0
6, 21600, Note_on_c, 5, 66, 0
6, 21600, Note_on_c, 5, 56, 95
6, 21604, Note_on_c, 5, 61, 99
6, 21608, Note_on_c, 5, 66, 95
6, 21688, Note_on_c, 5, 56, 0
6, 21692, Note_on_c, 5, 61, 0
6, 21696, Note_on_c, 5, 66, 0
6, 21696, Note_on_c, 5, 56, 99
6, 21700, Note_on_c, 5, 61, 99
6, 21704, Note_on_c, 5, 66, 99
6, 21784, Note_on_c, 5, 56, 0
6, 21788, Note_on_c, 5, 61, 0
6, 21792, Note_on_c, 5, 66, 0
6, 21792, Note_on_c, 5, 56, 95
6, 21796, Note_on_c, 5, 61, 99
6, 21800, Note_on_c, 5, 66, 95
6, 21880, Note_on_c, 5, 56, 0
6, 21884, Note_on_c, 5, 61, 0
6, 21888, Note_on_c, 5, 66, 0
6, 21888, Note_on_c, 5, 56, 99
6, 21892, Note_on_c, 5, 61, 99
6, 21896, Note_on_c, 5, 66, 99
6, 21976, Note_on_c, 5, 56, 0
6, 21980, Note_on_c, 5, 61, 0
6, 21984, Note_on_c, 5, 66, 0
6, 21984, Note_on_c, 5, 56, 95
6, 21988, Note_on_c, 5, 61, 95
6, 21992, Note_on_c, 5, 66, 99
6, 22072, Note_on_c, 5, 56, 0
6, 22076, Note_on_c, 5, 61, 0
6, 22080, Note_on_c, 5, 66, 0
6, 22080, Note_on_c, 5, 56, 99
6, 22084, Note_on_c, 5, 61, 99
6, 22088, Note_on_c, 5, 66, 99
6, 22168, Note_on_c, 5, 56, 0
6, 22172, Note_on_c, 5, 61, 0
6, 22176, Note_on_c, 5, 66, 0
6, 22176, Note_on_c, 5, 56, 99
6, 22180, Note_on_c, 5, 61, 99
6, 22184, Note_on_c, 5, 66, 95
6, 22264, Note_on_c, 5, 56, 0
6, 22268, Note_on_c, 5, 61, 0
6, 22272, Note_on_c, 5, 56, 91
6, 22273, Note_on_c, 5, 66, 0
6, 22276, Note_on_c, 5, 61, 95
6, 22280, Note_on_c, 5, 65, 95
6, 22360, Note_on_c, 5, 56, 0
6, 22364, Note_on_c, 5, 61, 0
6, 22368, Note_on_c, 5, 65, 0
6, 22368, Note_on_c, 5, 56, 91
6, 22372, Note_on_c, 5, 61, 95
6, 22376, Note_on_c, 5, 65, 92
6, 22456, Note_on_c, 5, 56, 0
6, 22460, Note_on_c, 5, 61, 0
6, 22464, Note_on_c, 5, 65, 0
6, 22464, Note_on_c, 5, 56, 91
6, 22468, Note_on_c, 5, 61, 95
6, 22472, Note_on_c, 5, 65, 91
6, 22552, Note_on_c, 5, 56, 0
6, 22556, Note_on_c, 5, 61, 0
6, 22560, Note_on_c, 5, 65, 0
6, 22560, Note_on_c, 5, 56, 91
6, 22564, Note_on_c, 5, 61, 95
6, 22568, Note_on_c, 5, 65, 91
6, 22648, Note_on_c, 5, 56, 0
6, 22652, Note_on_c, 5, 61, 0
6, 22656, Note_on_c, 5, 65, 0
6, 22656, Note_on_c, 5, 56, 91
6, 22660, Note_on_c, 5, 61, 92
6, 22664, Note_on_c, 5, 65, 92
6, 22744, Note_on_c, 5, 56, 0
6, 22748, Note_on_c, 5, 61, 0
6, 22752, Note_on_c, 5, 65, 0
6, 22752, Note_on_c, 5, 56, 91
6, 22756, Note_on_c, 5, 61, 91
6, 22760, Note_on_c, 5, 65, 95
6, 22840, Note_on_c, 5, 56, 0
6, 22844, Note_on_c, 5, 61, 0
6, 22848, Note_on_c, 5, 65, 0
6, 22848, Note_on_c, 5, 56, 91
6, 22852, Note_on_c, 5, 61, 95
6, 22856, Note_on_c, 5, 65, 92
6, 22936, Note_on_c, 5, 56, 0
6, 22940, Note_on_c, 5, 61, 0
6, 22944, Note_on_c, 5, 65, 0
6, 22944, Note_on_c, 5, 56, 91
6, 22948, Note_on_c, 5, 61, 95
6, 22952, Note_on_c, 5, 65, 92
6, 23032, Note_on_c, 5, 56, 0
6, 23036, Note_on_c, 5, 61, 0
6, 23040, Note_on_c, 5, 56, 92
6, 23041, Note_on_c, 5, 65, 0
6, 23044, Note_on_c, 5, 61, 99
6, 23048, Note_on_c, 5, 66, 95
6, 23128, Note_on_c, 5, 56, 0
6, 23132, Note_on_c, 5, 61, 0
6, 23136, Note_on_c, 5, 66, 0
6, 23136, Note_on_c, 5, 56, 91
6, 23140, Note_on_c, 5, 61, 92
6, 23144, Note_on_c, 5, 66, 92
6, 23224, Note_on_c, 5, 56, 0
6, 23228, Note_on_c, 5, 61, 0
6, 23232, Note_on_c, 5, 66, 0
6, 23232, Note_on_c, 5, 56, 91
6, 23236, Note_on_c, 5, 61, 95
6, 23240, Note_on_c, 5, 66, 99
6, 23320, Note_on_c, 5, 56, 0
6, 23324, Note_on_c, 5, 61, 0
6, 23328, Note_on_c, 5, 66, 0
6, 23328, Note_on_c, 5, 56, 92
6, 23332, Note_on_c, 5, 61, 95
6, 23336, Note_on_c, 5, 66, 91
6, 23416, Note_on_c, 5, 56, 0
6, 23420, Note_on_c, 5, 61, 0
6, 23424, Note_on_c, 5, 66, 0
6, 23424, Note_on_c, 5, 56, 91
6, 23428, Note_on_c, 5, 61, 95
6, 23432, Note_on_c, 5, 66, 92
6, 23512, Note_on_c, 5, 56, 0
6, 23516, Note_on_c, 5, 61, 0
6, 23520, Note_on_c, 5, 66, 0
6, 23520, Note_on_c, 5, 56, 91
6, 23524, Note_on_c, 5, 61, 95
6, 23528, Note_on_c, 5, 66, 95
6, 23608, Note_on_c, 5, 56, 0
6, 23612, Note_on_c, 5, 61, 0
6, 23616, Note_on_c, 5, 66, 0
6, 23616, Note_on_c, 5, 56, 91
6, 23620, Note_on_c, 5, 61, 95
6, 23624, Note_on_c, 5, 66, 95
6, 23704, Note_on_c, 5, 56, 0
6, 23708, Note_on_c, 5, 61, 0
6, 23712, Note_on_c, 5, 66, 0
6, 23712, Note_on_c, 5, 56, 95
6, 23716, Note_on_c, 5, 61, 99
6, 23720, Note_on_c, 5, 66, 95
6, 23800, Note_on_c, 5, 56, 0
6, 23804, Note_on_c, 5, 61, 0
6, 23808, Note_on_c, 5, 56, 99
6, 23809, Note_on_c, 5, 66, 0
6, 23812, Note_on_c, 5, 61, 99
6, 23816, Note_on_c, 5, 65, 99
6, 23896, Note_on_c, 5, 56, 0
6, 23900, Note_on_c, 5, 61, 0
6, 23904, Note_on_c, 5, 65, 0
6, 23904, Note_on_c, 5, 56, 91
6, 23908, Note_on_c, 5, 61, 95
6, 23912, Note_on_c, 5, 65, 99
6, 23992, Note_on_c, 5, 56, 0
6, 23996, Note_on_c, 5, 61, 0
6, 24000, Note_on_c, 5, 65, 0
6, 24000, Note_on_c, 5, 56, 91
6, 24004, Note_on_c, 5, 61, 95
6, 24008, Note_on_c, 5, 65, 99
6, 24088, Note_on_c, 5, 56, 0
6, 24092, Note_on_c, 5, 61, 0
6, 24096, Note_on_c, 5, 65, 0
6, 24096, Note_on_c, 5, 56, 91
6, 24100, Note_on_c, 5, 61, 95
6, 24104, Note_on_c, 5, 65, 99
6, 24184, Note_on_c, 5, 56, 0
6, 24188, Note_on_c, 5, 61, 0
6, 24192, Note_on_c, 5, 65, 0
6, 24192, Note_on_c, 5, 56, 91
6, 24196, Note_on_c, 5, 61, 95
6, 24200, Note_on_c, 5, 65, 99
6, 24280, Note_on_c, 5, 56, 0
6, 24284, Note_on_c, 5, 61, 0
6, 24288, Note_on_c, 5, 65, 0
6, 24288, Note_on_c, 5, 56, 91
6, 24292, Note_on_c, 5, 61, 95
6, 24296, Note_on_c, 5, 65, 99
6, 24376, Note_on_c, 5, 56, 0
6, 24380, Note_on_c, 5, 61, 0
6, 24384, Note_on_c, 5, 65, 0
6, 24384, Note_on_c, 5, 56, 91
6, 24388, Note_on_c, 5, 61, 92
6, 24392, Note_on_c, 5, 65, 95
6, 24472, Note_on_c, 5, 56, 0
6, 24476, Note_on_c, 5, 61, 0
6, 24480, Note_on_c, 5, 65, 0
6, 24480, Note_on_c, 5, 56, 91
6, 24484, Note_on_c, 5, 61, 95
6, 24488, Note_on_c, 5, 65, 95
6, 24568, Note_on_c, 5, 56, 0
6, 24572, Note_on_c, 5, 61, 0
6, 24576, Note_on_c, 5, 56, 92
6, 24577, Note_on_c, 5, 65, 0
6, 24580, Note_on_c, 5, 61, 99
6, 24584, Note_on_c, 5, 66, 95
6, 24664, Note_on_c, 5, 56, 0
6, 24668, Note_on_c, 5, 61, 0
6, 24672, Note_on_c, 5, 66, 0
6, 24672, Note_on_c, 5, 56, 92
6, 24676, Note_on_c, 5, 61, 95
6, 24680, Note_on_c, 5, 66, 99
6, 24760, Note_on_c, 5, 56, 0
6, 24764, Note_on_c, 5, 61, 0
6, 24768, Note_on_c, 5, 66, 0
6, 24768, Note_on_c, 5, 56, 95
6, 24772, Note_on_c, 5, 61, 95
6, 24776, Note_on_c, 5, 66, 99
6, 24856, Note_on_c, 5, 56, 0
6, 24860, Note_on_c, 5, 61, 0
6, 24864, Note_on_c, 5, 66, 0
6, 24864, Note_on_c, 5, 56, 95
6, 24868, Note_on_c, 5, 61, 99
6, 24872, Note_on_c, 5, 66, 99
6, 24952, Note_on_c, 5, 56, 0
6, 24956, Note_on_c, 5, 61, 0
6, 24960, Note_on_c, 5, 66, 0
6, 24960, Note_on_c, 5, 56, 95
6, 24964, Note_on_c, 5, 61, 99
6, 24968, Note_on_c, 5, 66, 99
6, 25048, Note_on_c, 5, 56, 0
6, 25052, Note_on_c, 5, 61, 0
6, 25056, Note_on_c, 5, 66, 0
6, 25056, Note_on_c, 5, 56, 92
6, 25060, Note_on_c, 5, 61, 99
6, 25064, Note_on_c, 5, 66, 99
6, 25144, Note_on_c, 5, 56, 0
6, 25148, Note_on_c, 5, 61, 0
6, 25152, Note_on_c, 5, 66, 0
6, 25152, Note_on_c, 5, 56, 99
6, 25156, Note_on_c, 5, 61, 99
6, 25160, Note_on_c, 5, 66, 99
6, 25240, Note_on_c, 5, 56, 0
6, 25244, Note_on_c, 5, 61, 0
6, 25248, Note_on_c, 5, 66, 0
6, 25248, Note_on_c, 5, 56, 95
6, 25252, Note_on_c, 5, 61, 95
6, 25256, Note_on_c, 5, 66, 99
6, 25336, Note_on_c, 5, 56, 0
6, 25340, Note_on_c, 5, 61, 0
6, 25344, Note_on_c, 5, 56, 95
6, 25345, Note_on_c, 5, 66, 0
6, 25348, Note_on_c, 5, 61, 99
6, 25352, Note_on_c, 5, 65, 99
6, 25432, Note_on_c, 5, 56, 0
6, 25436, Note_on_c, 5, 61, 0
6, 25440, Note_on_c, 5, 65, 0
6, 25440, Note_on_c, 5, 56, 92
6, 25444, Note_on_c, 5, 61, 99
6, 25448, Note_on_c, 5, 65, 99
6, 25528, Note_on_c, 5, 56, 0
6, 25532, Note_on_c, 5, 61, 0
6, 25536, Note_on_c, 5, 65, 0
6, 25536, Note_on_c, 5, 56, 99
6, 25540, Note_on_c, 5, 61, 99
6, 25544, Note_on_c, 5, 65, 99
6, 25624, Note_on_c, 5, 56, 0
6, 25628, Note_on_c, 5, 61, 0
6, 25632, Note_on_c, 5, 65, 0
6, 25632, Note_on_c, 5, 56, 95
6, 25636, Note_on_c, 5, 61, 99
6, 25640, Note_on_c, 5, 65, 99
6, 25720, Note_on_c, 5, 56, 0
6, 25724, Note_on_c, 5, 61, 0
6, 25728, Note_on_c, 5, 65, 0
6, 25728, Note_on_c, 5, 56, 95
6, 25732, Note_on_c, 5, 61, 99
6, 25736, Note_on_c, 5, 65, 99
6, 25816, Note_on_c, 5, 56, 0
6, 25820, Note_on_c, 5, 61, 0
6, 25824, Note_on_c, 5, 65, 0
6, 25824, Note_on_c, 5, 56, 92
6, 25828, Note_on_c, 5, 61, 95
6, 25832, Note_on_c, 5, 65, 99
6, 25912, Note_on_c, 5, 56, 0
6, 25916, Note_on_c, 5, 61, 0
6, 25920, Note_on_c, 5, 65, 0
6, 25920, Note_on_c, 5, 56, 95
6, 25924, Note_on_c, 5, 61, 99
6, 25928, Note_on_c, 5, 65, 99
6, 26008, Note_on_c, 5, 56, 0
6, 26012, Note_on_c, 5, 61, 0
6, 26016, Note_on_c, 5, 65, 0
6, 26016, Note_on_c, 5, 56, 91
6, 26020, Note_on_c, 5, 61, 95
6, 26024, Note_on_c, 5, 65, 99
6, 26104, Note_on_c, 5, 56, 0
6, 26108, Note_on_c, 5, 61, 0
6, 26112, Note_on_c, 5, 56, 99
6, 26113, Note_on_c, 5, 65, 0
6, 26116, Note_on_c, 5, 61, 99
6, 26120, Note_on_c, 5, 66, 99
6, 26200, Note_on_c, 5, 56, 0
6, 26204, Note_on_c, 5, 61, 0
6, 26208, Note_on_c, 5, 66, 0
6, 26208, Note_on_c, 5, 56, 99
6, 26212, Note_on_c, 5, 61, 99
6, 26216, Note_on_c, 5, 66, 99
6, 26296, Note_on_c, 5, 56, 0
6, 26300, Note_on_c, 5, 61, 0
6, 26304, Note_on_c, 5, 66, 0
6, 26304, Note_on_c, 5, 56, 99
6, 26308, Note_on_c, 5, 61, 99
6, 26312, Note_on_c, 5, 66, 99
6, 26392, Note_on_c, 5, 56, 0
6, 26396, Note_on_c, 5, 61, 0
6, 26400, Note_on_c, 5, 66, 0
6, 26400, Note_on_c, 5, 56, 99
6, 26404, Note_on_c, 5, 61, 99
6, 26408, Note_on_c, 5, 66, 99
6, 26488, Note_on_c, 5, 56, 0
6, 26492, Note_on_c, 5, 61, 0
6, 26496, Note_on_c, 5, 66, 0
6, 26496, Note_on_c, 5, 56, 99
6, 26500, Note_on_c, 5, 61, 99
6, 26504, Note_on_c, 5, 66, 99
6, 26584, Note_on_c, 5, 56, 0
6, 26588, Note_on_c, 5, 61, 0
6, 26592, Note_on_c, 5, 66, 0
6, 26592, Note_on_c, 5, 56, 92
6, 26596, Note_on_c, 5, 61, 99
6, 26600, Note_on_c, 5, 66, 99
6, 26680, Note_on_c, 5, 56, 0
6, 26684, Note_on_c, 5, 61, 0
6, 26688, Note_on_c, 5, 66, 0
6, 26688, Note_on_c, 5, 56, 95
6, 26692, Note_on_c, 5, 61, 99
6, 26696, Note_on_c, 5, 66, 95
6, 26776, Note_on_c, 5, 56, 0
6, 26780, Note_on_c, 5, 61, 0
6, 26784, Note_on_c, 5, 66, 0
6, 26784, Note_on_c, 5, 56, 95
6, 26788, Note_on_c, 5, 61, 99
6, 26792, Note_on_c, 5, 66, 99
6, 26872, Note_on_c, 5, 56, 0
6, 26876, Note_on_c, 5, 61, 0
6, 26880, Note_on_c, 5, 56, 99
6, 26881, Note_on_c, 5, 66, 0
6, 26884, Note_on_c, 5, 61, 99
6, 26888, Note_on_c, 5, 65, 91
6, 26968, Note_on_c, 5, 56, 0
6, 26972, Note_on_c, 5, 61, 0
6, 26976, Note_on_c, 5, 65, 0
6, 26976, Note_on_c, 5, 56, 95
6, 26980, Note_on_c, 5, 61, 99
6, 26984, Note_on_c, 5, 65, 99
6, 27064, Note_on_c, 5, 56, 0
6, 27068, Note_on_c, 5, 61, 0
6, 27072, Note_on_c, 5, 65, 0
6, 27072, Note_on_c, 5, 56, 92
6, 27076, Note_on_c, 5, 61, 99
6, 27080, Note_on_c, 5, 65, 99
6, 27160, Note_on_c, 5, 56, 0
6, 27164, Note_on_c, 5, 61, 0
6, 27168, Note_on_c, 5, 65, 0
6, 27168, Note_on_c, 5, 56, 99
6, 27172, Note_on_c, 5, 61, 99
6, 27176, Note_on_c, 5, 65, 99
6, 27256, Note_on_c, 5, 56, 0
6, 27260, Note_on_c, 5, 61, 0
6, 27264, Note_on_c, 5, 65, 0
6, 27264, Note_on_c, 5, 56, 92
6, 27268, Note_on_c, 5, 61, 99
6, 27272, Note_on_c, 5, 65, 99
6, 27352, Note_on_c, 5, 56, 0
6, 27356, Note_on_c, 5, 61, 0
6, 27360, Note_on_c, 5, 65, 0
6, 27360, Note_on_c, 5, 56, 92
6, 27364, Note_on_c, 5, 61, 99
6, 27368, Note_on_c, 5, 65, 99
6, 27448, Note_on_c, 5, 56, 0
6, 27452, Note_on_c, 5, 61, 0
6, 27456, Note_on_c, 5, 65, 0
6, 27456, Note_on_c, 5, 56, 91
6, 27460, Note_on_c, 5, 61, 99
6, 27464, Note_on_c, 5, 65, 99
6, 27544, Note_on_c, 5, 56, 0
6, 27548, Note_on_c, 5, 61, 0
6, 27552, Note_on_c, 5, 65, 0
6, 27552, Note_on_c, 5, 56, 91
6, 27556, Note_on_c, 5, 61, 95
6, 27560, Note_on_c, 5, 65, 95
6, 27640, Note_on_c, 5, 56, 0
6, 27644, Note_on_c, 5, 61, 0
6, 27648, Note_on_c, 5, 56, 99
6, 27649, Note_on_c, 5, 65, 0
6, 27652, Note_on_c, 5, 61, 99
6, 27656, Note_on_c, 5, 66, 99
6, 27736, Note_on_c, 5, 56, 0
6, 27740, Note_on_c, 5, 61, 0
6, 27744, Note_on_c, 5, 66, 0
6, 27744, Note_on_c, 5, 56, 95
6, 27748, Note_on_c, 5, 61, 99
6, 27752, Note_on_c, 5, 66, 95
6, 27832, Note_on_c, 5, 56, 0
6, 27836, Note_on_c, 5, 61, 0
6, 27840, Note_on_c, 5, 66, 0
6, 27840, Note_on_c, 5, 56, 99
6, 27844, Note_on_c, 5, 61, 99
6, 27848, Note_on_c, 5, 66, 99
6, 27928, Note_on_c, 5, 56, 0
6, 27932, Note_on_c, 5, 61, 0
6, 27936, Note_on_c, 5, 66, 0
6, 27936, Note_on_c, 5, 56, 95
6, 27940, Note_on_c, 5, 61, 99
6, 27944, Note_on_c, 5, 66, 95
6, 28024, Note_on_c, 5, 56, 0
6, 28028, Note_on_c, 5, 61, 0
6, 28032, Note_on_c, 5, 66, 0
6, 28032, Note_on_c, 5, 56, 99
6, 28036, Note_on_c, 5, 61, 99
6, 28040, Note_on_c, 5, 66, 99
6, 28120, Note_on_c, 5, 56, 0
6, 28124, Note_on_c, 5, 61, 0
6, 28128, Note_on_c, 5, 66, 0
6, 28128, Note_on_c, 5, 56, 95
6, 28132, Note_on_c, 5, 61, 95
6, 28136, Note_on_c, 5, 66, 99
6, 28216, Note_on_c, 5, 56, 0
6, 28220, Note_on_c, 5, 61, 0
6, 28224, Note_on_c, 5, 66, 0
6, 28224, Note_on_c, 5, 56, 99
6, 28228, Note_on_c, 5, 61, 99
6, 28232, Note_on_c, 5, 66, 99
6, 28312, Note_on_c, 5, 56, 0
6, 28316, Note_on_c, 5, 61, 0
6, 28320, Note_on_c, 5, 66, 0
6, 28320, Note_on_c, 5, 56, 99
6, 28324, Note_on_c, 5, 61, 99
6, 28328, Note_on_c, 5, 66, 95
6, 28408, Note_on_c, 5, 56, 0
6, 28412, Note_on_c, 5, 61, 0
6, 28416, Note_on_c, 5, 56, 91
6, 28417, Note_on_c, 5, 66, 0
6, 28420, Note_on_c, 5, 61, 95
6, 28424, Note_on_c, 5, 65, 95
6, 28504, Note_on_c, 5, 56, 0
6, 28508, Note_on_c, 5, 61, 0
6, 28512, Note_on_c, 5, 65, 0
6, 28512, Note_on_c, 5, 56, 91
6, 28516, Note_on_c, 5, 61, 95
6, 28520, Note_on_c, 5, 65, 92
6, 28600, Note_on_c, 5, 56, 0
6, 28604, Note_on_c, 5, 61, 0
6, 28608, Note_on_c, 5, 65, 0
6, 28608, Note_on_c, 5, 56, 91
6, 28612, Note_on_c, 5, 61, 95
6, 28616, Note_on_c, 5, 65, 91
6, 28696, Note_on_c, 5, 56, 0
6, 28700, Note_on_c, 5, 61, 0
6, 28704, Note_on_c, 5, 65, 0
6, 28704, Note_on_c, 5, 56, 91
6, 28708, Note_on_c, 5, 61, 95
6, 28712, Note_on_c, 5, 65, 91
6, 28792, Note_on_c, 5, 56, 0
6, 28796, Note_on_c, 5, 61, 0
6, 28800, Note_on_c, 5, 65, 0
6, 28800, Note_on_c, 5, 56, 91
6, 28804, Note_on_c, 5, 61, 92
6, 28808, Note_on_c, 5, 65, 92
6, 28888, Note_on_c, 5, 56, 0
6, 28892, Note_on_c, 5, 61, 0
6, 28896, Note_on_c, 5, 65, 0
6, 28896, Note_on_c, 5, 56, 91
6, 28900, Note_on_c, 5, 61, 91
6, 28904, Note_on_c, 5, 65, 95
6, 28984, Note_on_c, 5, 56, 0
6, 28988, Note_on_c, 5, 61, 0
6, 28992, Note_on_c, 5, 65, 0
6, 28992, Note_on_c, 5, 56, 91
6, 28996, Note_on_c, 5, 61, 95
6, 29000, Note_on_c, 5, 65, 92
6, 29080, Note_on_c, 5, 56, 0
6, 29084, Note_on_c, 5, 61, 0
6, 29088, Note_on_c, 5, 65, 0
6, 29088, Note_on_c, 5, 56, 91
6, 29092, Note_on_c, 5, 61, 95
6, 29096, Note_on_c, 5, 65, 92
6, 29176, Note_on_c, 5, 56, 0
6, 29180, Note_on_c, 5, 61, 0
6, 29184, Note_on_c, 5, 56, 92
6, 29185, Note_on_c, 5, 65, 0
6, 29188, Note_on_c, 5, 61, 99
6, 29192, Note_on_c, 5, 66, 95
6, 29272, Note_on_c, 5, 56, 0
6, 29276, Note_on_c, 5, 61, 0
6, 29280, Note_on_c, 5, 66, 0
6, 29280, Note_on_c, 5, 56, 91
6, 29284, Note_on_c, 5, 61, 92
6, 29288, Note_on_c, 5, 66, 92
6, 29368, Note_on_c, 5, 56, 0
6, 29372, Note_on_c, 5, 61, 0
6, 29376, Note_on_c, 5, 66, 0
6, 29376, Note_on_c, 5, 56, 91
6, 29380, Note_on_c, 5, 61, 95
6, 29384, Note_on_c, 5, 66, 99
6, 29464, Note_on_c, 5, 56, 0
6, 29468, Note_on_c, 5, 61, 0
6, 29472, Note_on_c, 5, 66, 0
6, 29472, Note_on_c, 5, 56, 92
6, 29476, Note_on_c, 5, 61, 95
6, 29480, Note_on_c, 5, 66, 91
6, 29560, Note_on_c, 5, 56, 0
6, 29564, Note_on_c, 5, 61, 0
6, 29568, Note_on_c, 5, 66, 0
6, 29568, Note_on_c, 5, 56, 91
6, 29572, Note_on_c, 5, 61, 95
6, 29576, Note_on_c, 5, 66, 92
6, 29656, Note_on_c, 5, 56, 0
6, 29660, Note_on_c, 5, 61, 0
6, 29664, Note_on_c, 5, 66, 0
6, 29664, Note_on_c, 5, 56, 91
6, 29668, Note_on_c, 5, 61, 95
6, 29672, Note_on_c, 5, 66, 95
6, 29752, Note_on_c, 5, 56, 0
6, 29756, Note_on_c, 5, 61, 0
6, 29760, Note_on_c, 5, 66, 0
6, 29760, Note_on_c, 5, 56, 91
6, 29764, Note_on_c, 5, 61, 95
6, 29768, Note_on_c, 5, 66, 95
6, 29848, Note_on_c, 5, 56, 0
6, 29852, Note_on_c, 5, 61, 0
6, 29856, Note_on_c, 5, 66, 0
6, 29856, Note_on_c, 5, 56, 95
6, 29860, Note_on_c, 5, 61, 99
6, 29864, Note_on_c, 5, 66, 95
6, 29944, Note_on_c, 5, 56, 0
6, 29948, Note_on_c, 5, 61, 0
6, 29952, Note_on_c, 5, 56, 99
6, 29953, Note_on_c, 5, 66, 0
6, 29956, Note_on_c, 5, 61, 99
6, 29960, Note_on_c, 5, 65, 99
6, 30040, Note_on_c, 5, 56, 0
6, 30044, Note_on_c, 5, 61, 0
6, 30048, Note_on_c, 5, 65, 0
6, 30048, Note_on_c, 5, 56, 91
6, 30052, Note_on_c, 5, 61, 95
6, 30056, Note_on_c, 5, 65, 99
6, 30136, Note_on_c, 5, 56, 0
6, 30140, Note_on_c, 5, 61, 0
6, 30144, Note_on_c, 5, 65, 0
6, 30144, Note_on_c, 5, 56, 91
6, 30148, Note_on_c, 5, 61, 95
6, 30152, Note_on_c, 5, 65, 99
6, 30232, Note_on_c, 5, 56, 0
6, 30236, Note_on_c, 5, 61, 0
6, 30240, Note_on_c, 5, 65, 0
6, 30240, Note_on_c, 5, 56, 91
6, 30244, Note_on_c, 5, 61, 95
6, 30248, Note_on_c, 5, 65, 99
6, 30328, Note_on_c, 5, 56, 0
6, 30332, Note_on_c, 5, 61, 0
6, 30336, Note_on_c, 5, 65, 0
6, 30336, Note_on_c, 5, 56, 91
6, 30340, Note_on_c, 5, 61, 95
6, 30344, Note_on_c, 5, 65, 99
6, 30424, Note_on_c, 5, 56, 0
6, 30428, Note_on_c, 5, 61, 0
6, 30432, Note_on_c, 5, 65, 0
6, 30432, Note_on_c, 5, 56, 91
6, 30436, Note_on_c, 5, 61, 95
6, 30440, Note_on_c, 5, 65, 99
6, 30520, Note_on_c, 5, 56, 0
6, 30524, Note_on_c, 5, 61, 0
6, 30528, Note_on_c, 5, 65, 0
6, 30528, Note_on_c, 5, 56, 91
6, 30532, Note_on_c, 5, 61, 92
6, 30536, Note_on_c, 5, 65, 95
6, 30616, Note_on_c, 5, 56, 0
6, 30620, Note_on_c, 5, 61, 0
6, 30624, Note_on_c, 5, 65, 0
6, 30624, Note_on_c, 5, 56, 91
6, 30628, Note_on_c, 5, 61, 95
6, 30632, Note_on_c, 5, 65, 95
6, 30712, Note_on_c, 5, 56, 0
6, 30716, Note_on_c, 5, 61, 0
6, 30720, Note_on_c, 5, 56, 92
6, 30721, Note_on_c, 5, 65, 0
6, 30724, Note_on_c, 5, 61, 99
6, 30728, Note_on_c, 5, 66, 95
6, 30808, Note_on_c, 5, 56, 0
6, 30812, Note_on_c, 5, 61, 0
6, 30816, Note_on_c, 5, 66, 0
6, 30816, Note_on_c, 5, 56, 92
6, 30820, Note_on_c, 5, 61, 95
6, 30824, Note_on_c, 5, 66, 99
6, 30904, Note_on_c, 5, 56, 0
6, 30908, Note_on_c, 5, 61, 0
6, 30912, Note_on_c, 5, 66, 0
6, 30912, Note_on_c, 5, 56, 95
6, 30916, Note_on_c, 5, 61, 95
6, 30920, Note_on_c, 5, 66, 99
6, 31000, Note_on_c, 5, 56, 0
6, 31004, Note_on_c, 5, 61, 0
6, 31008, Note_on_c, 5, 66, 0
6, 31008, Note_on_c, 5, 56, 95
6, 31012, Note_on_c, 5, 61, 99
6, 31016, Note_on_c, 5, 66, 99
6, 31096, Note_on_c, 5, 56, 0
6, 31100, Note_on_c, 5, 61, 0
6, 31104, Note_on_c, 5, 66, 0
6, 31104, Note_on_c, 5, 56, 95
6, 31108, Note_on_c, 5, 61, 99
6, 31112, Note_on_c, 5, 66, 99
6, 31192, Note_on_c, 5, 56, 0
6, 31196, Note_on_c, 5, 61, 0
6, 31200, Note_on_c, 5, 66, 0
6, 31200, Note_on_c, 5, 56, 92
6, 31204, Note_on_c, 5, 61, 99
6, 31208, Note_on_c, 5, 66, 99
6, 31288, Note_on_c, 5, 56, 0
6, 31292, Note_on_c, 5, 61, 0
6, 31296, Note_on_c, 5, 66, 0
6, 31296, Note_on_c, 5, 56, 99
6, 31300, Note_on_c, 5, 61, 99
6, 31304, Note_on_c, 5, 66, 99
6, 31384, Note_on_c, 5, 56, 0
6, 31388, Note_on_c, 5, 61, 0
6, 31392, Note_on_c, 5, 66, 0
6, 31392, Note_on_c, 5, 56, 95
6, 31396, Note_on_c, 5, 61, 95
6, 31400, Note_on_c, 5, 66, 99
6, 31480, Note_on_c, 5, 56, 0
6, 31484, Note_on_c, 5, 61, 0
6, 31488, Note_on_c, 5, 56, 95
6, 31489, Note_on_c, 5, 66, 0
6, 31492, Note_on_c, 5, 61, 99
6, 31496, Note_on_c, 5, 65, 99
6, 31576, Note_on_c, 5, 56, 0
6, 31580, Note_on_c, 5, 61, 0
6, 31584, Note_on_c, 5, 65, 0
6, 31584, Note_on_c, 5, 56, 92
6, 31588, Note_on_c, 5, 61, 99
6, 31592, Note_on_c, 5, 65, 99
6, 31672, Note_on_c, 5, 56, 0
6, 31676, Note_on_c, 5, 61, 0
6, 31680, Note_on_c, 5, 65, 0
6, 31680, Note_on_c, 5, 56, 99
6, 31684, Note_on_c, 5, 61, 99
6, 31688, Note_on_c, 5, 65, 99
6, 31768, Note_on_c, 5, 56, 0
6, 31772, Note_on_c, 5, 61, 0
6, 31776, Note_on_c, 5, 65, 0
6, 31776, Note_on_c, 5, 56, 95
6, 31780, Note_on_c, 5, 61, 99
6, 31784, Note_on_c, 5, 65, 99
6, 31864, Note_on_c, 5, 56, 0
6, 31868, Note_on_c, 5, 61, 0
6, 31872, Note_on_c, 5, 65, 0
6, 31872, Note_on_c, 5, 56, 95
6, 31876, Note_on_c, 5, 61, 99
6, 31880, Note_on_c, 5, 65, 99
6, 31960, Note_on_c, 5, 56, 0
6, 31964, Note_on_c, 5, 61, 0
6, 31968, Note_on_c, 5, 65, 0
6, 31968, Note_on_c, 5, 56, 92
6, 31972, Note_on_c, 5, 61, 95
6, 31976, Note_on_c, 5, 65, 99
6, 32056, Note_on_c, 5, 56, 0
6, 32060, Note_on_c, 5, 61, 0
6, 32064, Note_on_c, 5, 65, 0
6, 32064, Note_on_c, 5, 56, 95
6, 32068, Note_on_c, 5, 61, 99
6, 32072, Note_on_c, 5, 65, 99
6, 32152, Note_on_c, 5, 56, 0
6, 32156, Note_on_c, 5, 61, 0
6, 32160, Note_on_c, 5, 65, 0
6, 32160, Note_on_c, 5, 56, 91
6, 32164, Note_on_c, 5, 61, 95
6, 32168, Note_on_c, 5, 65, 99
6, 32248, Note_on_c, 5, 56, 0
6, 32252, Note_on_c, 5, 61, 0
6, 32256, Note_on_c, 5, 56, 99
6, 32257, Note_on_c, 5, 65, 0
6, 32260, Note_on_c, 5, 61, 99
6, 32264, Note_on_c, 5, 66, 99
6, 32344, Note_on_c, 5, 56, 0
6, 32348, Note_on_c, 5, 61, 0
6, 32352, Note_on_c, 5, 66, 0
6, 32352, Note_on_c, 5, 56, 99
6, 32356, Note_on_c, 5, 61, 99
6, 32360, Note_on_c, 5, 66, 99
6, 32440, Note_on_c, 5, 56, 0
6, 32444, Note_on_c, 5, 61, 0
6, 32448, Note_on_c, 5, 66, 0
6, 32448, Note_on_c, 5, 56, 99
6, 32452, Note_on_c, 5, 61, 99
6, 32456, Note_on_c, 5, 66, 99
6, 32536, Note_on_c, 5, 56, 0
6, 32540, Note_on_c, 5, 61, 0
6, 32544, Note_on_c, 5, 66, 0
6, 32544, Note_on_c, 5, 56, 99
6, 32548, Note_on_c, 5, 61, 99
6, 32552, Note_on_c, 5, 66, 99
6, 32632, Note_on_c, 5, 56, 0
6, 32636, Note_on_c, 5, 61, 0
6, 32640, Note_on_c, 5, 66, 0
6, 32640, Note_on_c, 5, 56, 99
6, 32644, Note_on_c, 5, 61, 99
6, 32648, Note_on_c, 5, 66, 99
6, 32728, Note_on_c, 5, 56, 0
6, 32732, Note_on_c, 5, 61, 0
6, 32736, Note_on_c, 5, 66, 0
6, 32736, Note_on_c, 5, 56, 92
6, 32740, Note_on_c, 5, 61, 99
6, 32744, Note_on_c, 5, 66, 99
6, 32824, Note_on_c, 5, 56, 0
6, 32828, Note_on_c, 5, 61, 0
6, 32832, Note_on_c, 5, 66, 0
6, 32832, Note_on_c, 5, 56, 95
6, 32836, Note_on_c, 5, 61, 99
6, 32840, Note_on_c, 5, 66, 95
6, 32920, Note_on_c, 5, 56, 0
6, 32924, Note_on_c, 5, 61, 0
6, 32928, Note_on_c, 5, 66, 0
6, 32928, Note_on_c, 5, 56, 95
6, 32932, Note_on_c, 5, 61, 99
6, 32936, Note_on_c, 5, 66, 99
6, 33016, Note_on_c, 5, 56, 0
6, 33020, Note_on_c, 5, 61, 0
6, 33024, Note_on_c, 5, 56, 99
6, 33025, Note_on_c, 5, 66, 0
6, 33028, Note_on_c, 5, 61, 99
6, 33032, Note_on_c, 5, 65, 91
6, 33112, Note_on_c, 5, 56, 0
6, 33116, Note_on_c, 5, 61, 0
6, 33120, Note_on_c, 5, 65, 0
6, 33120, Note_on_c, 5, 56, 95
6, 33124, Note_on_c, 5, 61, 99
6, 33128, Note_on_c, 5, 65, 99
6, 33208, Note_on_c, 5, 56, 0
6, 33212, Note_on_c, 5, 61, 0
6, 33216, Note_on_c, 5, 65, 0
6, 33216, Note_on_c, 5, 56, 92
6, 33220, Note_on_c, 5, 61, 99
6, 33224, Note_on_c, 5, 65, 99
6, 33304, Note_on_c, 5, 56, 0
6, 33308, Note_on_c, 5, 61, 0
6, 33312, Note_on_c, 5, 65, 0
6, 33312, Note_on_c, 5, 56, 99
6, 33316, Note_on_c, 5, 61, 99
6, 33320, Note_on_c, 5, 65, 99
6, 33400, Note_on_c, 5, 56, 0
6, 33404, Note_on_c, 5, 61, 0
6, 33408, Note_on_c, 5, 65, 0
6, 33408, Note_on_c, 5, 56, 92
6, 33412, Note_on_c, 5, 61, 99
6, 33416, Note_on_c, 5, 65, 99
6, 33496, Note_on_c, 5, 56, 0
6, 33500, Note_on_c, 5, 61, 0
6, 33504, Note_on_c, 5, 65, 0
6, 33504, Note_on_c, 5, 56, 92
6, 33508, Note_on_c, 5, 61, 99
6, 33512, Note_on_c, 5, 65, 99
6, 33592, Note_on_c, 5, 56, 0
6, 33596, Note_on_c, 5, 61, 0
6, 33600, Note_on_c, 5, 65, 0
6, 33600, Note_on_c, 5, 56, 91
6, 33604, Note_on_c, 5, 61, 99
6, 33608, Note_on_c, 5, 65, 99
6, 33688, Note_on_c, 5, 56, 0
6, 33692, Note_on_c, 5, 61, 0
6, 33696, Note_on_c, 5, 65, 0
6, 33696, Note_on_c, 5, 56, 91
6, 33700, Note_on_c, 5, 61, 95
6, 33704, Note_on_c, 5, 65, 95
6, 33784, Note_on_c, 5, 56, 0
6, 33788, Note_on_c, 5, 61, 0
6, 33792, Note_on_c, 5, 56, 99
6, 33793, Note_on_c, 5, 65, 0
6, 33796, Note_on_c, 5, 61, 99
6, 33800, Note_on_c, 5, 66, 99
6, 33880, Note_on_c, 5, 56, 0
6, 33884, Note_on_c, 5, 61, 0
6, 33888, Note_on_c, 5, 66, 0
6, 33888, Note_on_c, 5, 56, 95
6, 33892, Note_on_c, 5, 61, 99
6, 33896, Note_on_c, 5, 66, 95
6, 33976, Note_on_c, 5, 56, 0
6, 33980, Note_on_c, 5, 61, 0
6, 33984, Note_on_c, 5, 66, 0
6, 33984, Note_on_c, 5, 56, 99
6, 33988, Note_on_c, 5, 61, 99
6, 33992, Note_on_c, 5, 66, 99
6, 34072, Note_on_c, 5, 56, 0
6, 34076, Note_on_c, 5, 61, 0
6, 34080, Note_on_c, 5, 66, 0
6, 34080, Note_on_c, 5, 56, 95
6, 34084, Note_on_c, 5, 61, 99
6, 34088, Note_on_c, 5, 66, 95
6, 34168, Note_on_c, 5, 56, 0
6, 34172, Note_on_c, 5, 61, 0
6, 34176, Note_on_c, 5, 66, 0
6, 34176, Note_on_c, 5, 56, 99
6, 34180, Note_on_c, 5, 61, 99
6, 34184, Note_on_c, 5, 66, 99
6, 34264, Note_on_c, 5, 56, 0
6, 34268, Note_on_c, 5, 61, 0
6, 34272, Note_on_c, 5, 66, 0
6, 34272, Note_on_c, 5, 56, 95
6, 34276, Note_on_c, 5, 61, 95
6, 34280, Note_on_c, 5, 66, 99
6, 34360, Note_on_c, 5, 56, 0
6, 34364, Note_on_c, 5, 61, 0
6, 34368, Note_on_c, 5, 66, 0
6, 34368, Note_on_c, 5, 56, 99
6, 34372, Note_on_c, 5, 61, 99
6, 34376, Note_on_c, 5, 66, 99
6, 34456, Note_on_c, 5, 56, 0
6, 34460, Note_on_c, 5, 61, 0
6, 34464, Note_on_c, 5, 66, 0
6, 34464, Note_on_c, 5, 56, 99
6, 34468, Note_on_c, 5, 61, 99
6, 34472, Note_on_c, 5, 66, 95
6, 34552, Note_on_c, 5, 56, 0
6, 34556, Note_on_c, 5, 61, 0
6, 34560, Note_on_c, 5, 56, 91
6, 34561, Note_on_c, 5, 66, 0
6, 34564, Note_on_c, 5, 61, 95
6, 34568, Note_on_c, 5, 65, 95
6, 34648, Note_on_c, 5, 56, 0
6, 34652, Note_on_c, 5, 61, 0
6, 34656, Note_on_c, 5, 65, 0
6, 34656, Note_on_c, 5, 56, 91
6, 34660, Note_on_c, 5, 61, 95
6, 34664, Note_on_c, 5, 65, 92
6, 34744, Note_on_c, 5, 56, 0
6, 34748, Note_on_c, 5, 61, 0
6, 34752, Note_on_c, 5, 65, 0
6, 34752, Note_on_c, 5, 56, 91
6, 34756, Note_on_c, 5, 61, 95
6, 34760, Note_on_c, 5, 65, 91
6, 34840, Note_on_c, 5, 56, 0
6, 34844, Note_on_c, 5, 61, 0
6, 34848, Note_on_c, 5, 65, 0
6, 34848, Note_on_c, 5, 56, 91
6, 34852, Note_on_c, 5, 61, 95
6, 34856, Note_on_c, 5, 65, 91
6, 34936, Note_on_c, 5, 56, 0
6, 34940, Note_on_c, 5, 61, 0
6, 34944, Note_on_c, 5, 65, 0
6, 34944, Note_on_c, 5, 56, 91
6, 34948, Note_on_c, 5, 61, 92
6, 34952, Note_on_c, 5, 65, 92
6, 35032, Note_on_c, 5, 56, 0
6, 35036, Note_on_c, 5, 61, 0
6, 35040, Note_on_c, 5, 65, 0
6, 35040, Note_on_c, 5, 56, 91
6, 35044, Note_on_c, 5, 61, 91
6, 35048, Note_on_c, 5, 65, 95
6, 35128, Note_on_c, 5, 56, 0
6, 35132, Note_on_c, 5, 61, 0
6, 35136, Note_on_c, 5, 65, 0
6, 35136, Note_on_c, 5, 56, 91
6, 35140, Note_on_c, 5, 61, 95
6, 35144, Note_on_c, 5, 65, 92
6, 35224, Note_on_c, 5, 56, 0
6, 35228, Note_on_c, 5, 61, 0
6, 35232, Note_on_c, 5, 65, 0
6, 35232, Note_on_c, 5, 56, 91
6, 35236, Note_on_c, 5, 61, 95
6, 35240, Note_on_c, 5, 65, 92
6, 35320, Note_on_c, 5, 56, 0
6, 35324, Note_on_c, 5, 61, 0
6, 35328, Note_on_c, 5, 56, 92
6, 35329, Note_on_c, 5, 65, 0
6, 35332, Note_on_c, 5, 61, 99
6, 35336, Note_on_c, 5, 66, 95
6, 35416, Note_on_c, 5, 56, 0
6, 35420, Note_on_c, 5, 61, 0
6, 35424, Note_on_c, 5, 66, 0
6, 35424, Note_on_c, 5, 56, 91
6, 35428, Note_on_c, 5, 61, 92
6, 35432, Note_on_c, 5, 66, 92
6, 35512, Note_on_c, 5, 56, 0
6, 35516, Note_on_c, 5, 61, 0
6, 35520, Note_on_c, 5, 66, 0
6, 35520, Note_on_c, 5, 56, 91
6, 35524, Note_on_c, 5, 61, 95
6, 35528, Note_on_c, 5, 66, 99
6, 35608, Note_on_c, 5, 56, 0
6, 35612, Note_on_c, 5, 61, 0
6, 35616, Note_on_c, 5, 66, 0
6, 35616, Note_on_c, 5, 56, 92
6, 35620, Note_on_c, 5, 61, 95
6, 35624, Note_on_c, 5, 66, 91
6, 35704, Note_on_c, 5, 56, 0
6, 35708, Note_on_c, 5, 61, 0
6, 35712, Note_on_c, 5, 66, 0
6, 35712, Note_on_c, 5, 56, 91
6, 35716, Note_on_c, 5, 61, 95
6, 35720, Note_on_c, 5, 66, 92
6, 35800, Note_on_c, 5, 56, 0
6, 35804, Note_on_c, 5, 61, 0
6, 35808, Note_on_c, 5, 66, 0
6, 35808, Note_on_c, 5, 56, 91
6, 35812, Note_on_c, 5, 61, 95
6, 35816, Note_on_c, 5, 66, 95
6, 35896, Note_on_c, 5, 56, 0
6, 35900, Note_on_c, 5, 61, 0
6, 35904, Note_on_c, 5, 66, 0
6, 35904, Note_on_c, 5, 56, 91
6, 35908, Note_on_c, 5, 61, 95
6, 35912, Note_on_c, 5, 66, 95
6, 35992, Note_on_c, 5, 56, 0
6, 35996, Note_on_c, 5, 61, 0
6, 36000, Note_on_c, 5, 66, 0
6, 36000, Note_on_c, 5, 56, 95
6, 36004, Note_on_c, 5, 61, 99
6, 36008, Note_on_c, 5, 66, 95
6, 36088, Note_on_c, 5, 56, 0
6, 36092, Note_on_c, 5, 61, 0
6, 36096, Note_on_c, 5, 56, 99
6, 36097, Note_on_c, 5, 66, 0
6, 36100, Note_on_c, 5, 61, 99
6, 36104, Note_on_c, 5, 65, 99
6, 36184, Note_on_c, 5, 56, 0
6, 36188, Note_on_c, 5, 61, 0
6, 36192, Note_on_c, 5, 65, 0
6, 36192, Note_on_c, 5, 56, 91
6, 36196, Note_on_c, 5, 61, 95
6, 36200, Note_on_c, 5, 65, 99
6, 36280, Note_on_c, 5, 56, 0
6, 36284, Note_on_c, 5, 61, 0
6, 36288, Note_on_c, 5, 65, 0
6, 36288, Note_on_c, 5, 56, 91
6, 36292, Note_on_c, 5, 61, 95
6, 36296, Note_on_c, 5, 65, 99
6, 36376, Note_on_c, 5, 56, 0
6, 36380, Note_on_c, 5, 61, 0
6, 36384, Note_on_c, 5, 65, 0
6, 36384, Note_on_c, 5, 56, 91
6, 36388, Note_on_c, 5, 61, 95
6, 36392, Note_on_c, 5, 65, 99
6, 36472, Note_on_c, 5, 56, 0
6, 36476, Note_on_c, 5, 61, 0
6, 36480, Note_on_c, 5, 65, 0
6, 36480, Note_on_c, 5, 56, 91
6, 36484, Note_on_c, 5, 61, 95
6, 36488, Note_on_c, 5, 65, 99
6, 36568, Note_on_c, 5, 56, 0
6, 36572, Note_on_c, 5, 61, 0
6, 36576, Note_on_c, 5, 65, 0
6, 36576, Note_on_c, 5, 56, 91
6, 36580, Note_on_c, 5, 61, 95
6, 36584, Note_on_c, 5, 65, 99
6, 36664, Note_on_c, 5, 56, 0
6, 36668, Note_on_c, 5, 61, 0
6, 36672, Note_on_c, 5, 65, 0
6, 36672, Note_on_c, 5, 56, 91
6, 36676, Note_on_c, 5, 61, 92
6, 36680, Note_on_c, 5, 65, 95
6, 36760, Note_on_c, 5, 56, 0
6, 36764, Note_on_c, 5, 61, 0
6, 36768, Note_on_c, 5, 65, 0
6, 36768, Note_on_c, 5, 56, 91
6, 36772, Note_on_c, 5, 61, 95
6, 36776, Note_on_c, 5, 65, 95
6, 36856, Note_on_c, 5, 56, 0
6, 36860, Note_on_c, 5, 61, 0
6, 36864, Note_on_c, 5, 56, 92
6, 36865, Note_on_c, 5, 65, 0
6, 36868, Note_on_c, 5, 61, 99
6, 36872, Note_on_c, 5, 66, 95
6, 36952, Note_on_c, 5, 56, 0
6, 36956, Note_on_c, 5, 61, 0
6, 36960, Note_on_c, 5, 66, 0
6, 36960, Note_on_c, 5, 56, 92
6, 36964, Note_on_c, 5, 61, 95
6, 36968, Note_on_c, 5, 66, 99
6, 37048, Note_on_c, 5, 56, 0
6, 37052, Note_on_c, 5, 61, 0
6, 37056, Note_on_c, 5, 66, 0
6, 37056, Note_on_c, 5, 56, 95
6, 37060, Note_on_c, 5, 61, 95
6, 37064, Note_on_c, 5, 66, 99
6, 37144, Note_on_c, 5, 56, 0
6, 37148, Note_on_c, 5, 61, 0
6, 37152, Note_on_c, 5, 66, 0
6, 37152, Note_on_c, 5, 56, 95
6, 37156, Note_on_c, 5, 61, 99
6, 37160, Note_on_c, 5, 66, 99
6, 37240, Note_on_c, 5, 56, 0
6, 37244, Note_on_c, 5, 61, 0
6, 37248, Note_on_c, 5, 66, 0
6, 37248, Note_on_c, 5, 56, 95
6, 37252, Note_on_c, 5, 61, 99
6, 37256, Note_on_c, 5, 66, 99
6, 37336, Note_on_c, 5, 56, 0
6, 37340, Note_on_c, 5, 61, 0
6, 37344, Note_on_c, 5, 66, 0
6, 37344, Note_on_c, 5, 56, 92
6, 37348, Note_on_c, 5, 61, 99
6, 37352, Note_on_c, 5, 66, 99
6, 37432, Note_on_c, 5, 56, 0
6, 37436, Note_on_c, 5, 61, 0
6, 37440, Note_on_c, 5, 66, 0
6, 37440, Note_on_c, 5, 56, 99
6, 37444, Note_on_c, 5, 61, 99
6, 37448, Note_on_c, 5, 66, 99
6, 37528, Note_on_c, 5, 56, 0
6, 37532, Note_on_c, 5, 61, 0
6, 37536, Note_on_c, 5, 66, 0
6, 37536, Note_on_c, 5, 56, 95
6, 37540, Note_on_c, 5, 61, 95
6, 37544, Note_on_c, 5, 66, 99
6, 37624, Note_on_c, 5, 56, 0
6, 37628, Note_on_c, 5, 61, 0
6, 37632, Note_on_c, 5, 56, 95
6, 37633, Note_on_c, 5, 66, 0
6, 37636, Note_on_c, 5, 61, 99
6, 37640, Note_on_c, 5, 65, 99
6, 37720, Note_on_c, 5, 56, 0
6, 37724, Note_on_c, 5, 61, 0
6, 37728, Note_on_c, 5, 65, 0
6, 37728, Note_on_c, 5, 56, 92
6, 37732, Note_on_c, 5, 61, 99
6, 37736, Note_on_c, 5, 65, 99
6, 37816, Note_on_c, 5, 56, 0
6, 37820, Note_on_c, 5, 61, 0
6, 37824, Note_on_c, 5, 65, 0
6, 37824, Note_on_c, 5, 56, 99
6, 37828, Note_on_c, 5, 61, 99
6, 37832, Note_on_c, 5, 65, 99
6, 37912, Note_on_c, 5, 56, 0
6, 37916, Note_on_c, 5, 61, 0
6, 37920, Note_on_c, 5, 65, 0
6, 37920, Note_on_c, 5, 56, 95
6, 37924, Note_on_c, 5, 61, 99
6, 37928, Note_on_c, 5, 65, 99
6, 38008, Note_on_c, 5, 56, 0
6, 38012, Note_on_c, 5, 61, 0
6, 38016, Note_on_c, 5, 65, 0
6, 38016, Note_on_c, 5, 56, 95
6, 38020, Note_on_c, 5, 61, 99
6, 38024, Note_on_c, 5, 65, 99
6, 38104, Note_on_c, 5, 56, 0
6, 38108, Note_on_c, 5, 61, 0
6, 38112, Note_on_c, 5, 65, 0
6, 38112, Note_on_c, 5, 56, 92
6, 38116, Note_on_c, 5, 61, 95
6, 38120, Note_on_c, 5, 65, 99
6, 38200, Note_on_c, 5, 56, 0
6, 38204, Note_on_c, 5, 61, 0
6, 38208, Note_on_c, 5, 65, 0
6, 38208, Note_on_c, 5, 56, 95
6, 38212, Note_on_c, 5, 61, 99
6, 38216, Note_on_c, 5, 65, 99
6, 38296, Note_on_c, 5, 56, 0
6, 38300, Note_on_c, 5, 61, 0
6, 38304, Note_on_c, 5, 65, 0
6, 38304, Note_on_c, 5, 56, 91
6, 38308, Note_on_c, 5, 61, 95
6, 38312, Note_on_c, 5, 65, 99
6, 38392, Note_on_c, 5, 56, 0
6, 38396, Note_on_c, 5, 61, 0
6, 38400, Note_on_c, 5, 56, 99
6, 38401, Note_on_c, 5, 65, 0
6, 38404, Note_on_c, 5, 61, 99
6, 38408, Note_on_c, 5, 66, 99
6, 38488, Note_on_c, 5, 56, 0
6, 38492, Note_on_c, 5, 61, 0
6, 38496, Note_on_c, 5, 66, 0
6, 38496, Note_on_c, 5, 56, 99
6, 38500, Note_on_c, 5, 61, 99
6, 38504, Note_on_c, 5, 66, 99
6, 38584, Note_on_c, 5, 56, 0
6, 38588, Note_on_c, 5, 61, 0
6, 38592, Note_on_c, 5, 66, 0
6, 38592, Note_on_c, 5, 56, 99
6, 38596, Note_on_c, 5, 61, 99
6, 38600, Note_on_c, 5, 66, 99
6, 38680, Note_on_c, 5, 56, 0
6, 38684, Note_on_c, 5, 61, 0
6, 38688, Note_on_c, 5, 66, 0
6, 38688, Note_on_c, 5, 56, 99
6, 38692, Note_on_c, 5, 61, 99
6, 38696, Note_on_c, 5, 66, 99
6, 38776, Note_on_c, 5, 56, 0
6, 38780, Note_on_c, 5, 61, 0
6, 38784, Note_on_c, 5, 66, 0
6, 38784, Note_on_c, 5, 56, 99
6, 38788, Note_on_c, 5, 61, 99
6, 38792, Note_on_c, 5, 66, 99
6, 38872, Note_on_c, 5, 56, 0
6, 38876, Note_on_c, 5, 61, 0
6, 38880, Note_on_c, 5, 66, 0
6, 38880, Note_on_c, 5, 56, 92
6, 38884, Note_on_c, 5, 61, 99
6, 38888, Note_on_c, 5, 66, 99
6, 38968, Note_on_c, 5, 56, 0
6, 38972, Note_on_c, 5, 61, 0
6, 38976, Note_on_c, 5, 66, 0
6, 38976, Note_on_c, 5, 56, 95
6, 38980, Note_on_c, 5, 61, 99
6, 38984, Note_on_c, 5, 66, 95
6, 39064, Note_on_c, 5, 56, 0
6, 39068, Note_on_c, 5, 61, 0
6, 39072, Note_on_c, 5, 66, 0
6, 39072, Note_on_c, 5, 56, 95
6, 39076, Note_on_c, 5, 61, 99
6, 39080, Note_on_c, 5, 66, 99
6, 39160, Note_on_c, 5, 56, 0
6, 39164, Note_on_c, 5, 61, 0
6, 39168, Note_on_c, 5, 56, 99
6, 39169, Note_on_c, 5, 66, 0
6, 39172, Note_on_c, 5, 61, 99
6, 39176, Note_on_c, 5, 65, 91
6, 39256, Note_on_c, 5, 56, 0
6, 39260, Note_on_c, 5, 61, 0
6, 39264, Note_on_c, 5, 65, 0
6, 39264, Note_on_c, 5, 56, 95
6, 39268, Note_on_c, 5, 61, 99
6, 39272, Note_on_c, 5, 65, 99
6, 39352, Note_on_c, 5, 56, 0
6, 39356, Note_on_c, 5, 61, 0
6, 39360, Note_on_c, 5, 65, 0
6, 39360, Note_on_c, 5, 56, 92
6, 39364, Note_on_c, 5, 61, 99
6, 39368, Note_on_c, 5, 65, 99
6, 39448, Note_on_c, 5, 56, 0
6, 39452, Note_on_c, 5, 61, 0
6, 39456, Note_on_c, 5, 65, 0
6, 39456, Note_on_c, 5, 56, 99
6, 39460, Note_on_c, 5, 61, 99
6, 39464, Note_on_c, 5, 65, 99
6, 39544, Note_on_c, 5, 56, 0
6, 39548, Note_on_c, 5, 61, 0
6, 39552, Note_on_c, 5, 65, 0
6, 39552, Note_on_c, 5, 56, 92
6, 39556, Note_on_c, 5, 61, 99
6, 39560, Note_on_c, 5, 65, 99
6, 39640, Note_on_c, 5, 56, 0
6, 39644, Note_on_c, 5, 61, 0
6, 39648, Note_on_c, 5, 65, 0
6, 39648, Note_on_c, 5, 56, 92
6, 39652, Note_on_c, 5, 61, 99
6, 39656, Note_on_c, 5, 65, 99
6, 39736, Note_on_c, 5, 56, 0
6, 39740, Note_on_c, 5, 61, 0
6, 39744, Note_on_c, 5, 65, 0
6, 39744, Note_on_c, 5, 56, 91
6, 39748, Note_on_c, 5, 61, 99
6, 39752, Note_on_c, 5, 65, 99
6, 39832, Note_on_c, 5, 56, 0
6, 39836, Note_on_c, 5, 61, 0
6, 39840, Note_on_c, 5, 65, 0
6, 39840, Note_on_c, 5, 56, 91
6, 39844, Note_on_c, 5, 61, 95
6, 39848, Note_on_c, 5, 65, 95
6, 39928, Note_on_c, 5, 56, 0
6, 39932, Note_on_c, 5, 61, 0
6, 39936, Note_on_c, 5, 56, 99
6, 39937, Note_on_c, 5, 65, 0
6, 39940, Note_on_c, 5, 61, 99
6, 39944, Note_on_c, 5, 66, 99
6, 40024, Note_on_c, 5, 56, 0
6, 40028, Note_on_c, 5, 61, 0
6, 40032, Note_on_c, 5, 66, 0
6, 40032, Note_on_c, 5, 56, 95
6, 40036, Note_on_c, 5, 61, 99
6, 40040, Note_on_c, 5, 66, 95
6, 40120, Note_on_c, 5, 56, 0
6, 40124, Note_on_c, 5, 61, 0
6, 40128, Note_on_c, 5, 66, 0
6, 40128, Note_on_c, 5, 56, 99
6, 40132, Note_on_c, 5, 61, 99
6, 40136, Note_on_c, 5, 66, 99
6, 40216, Note_on_c, 5, 56, 0
6, 40220, Note_on_c, 5, 61, 0
6, 40224, Note_on_c, 5, 66, 0
6, 40224, Note_on_c, 5, 56, 95
6, 40228, Note_on_c, 5, 61, 99
6, 40232, Note_on_c, 5, 66, 95
6, 40312, Note_on_c, 5, 56, 0
6, 40316, Note_on_c, 5, 61, 0
6, 40320, Note_on_c, 5, 66, 0
6, 40320, Note_on_c, 5, 56, 99
6, 40324, Note_on_c, 5, 61, 99
6, 40328, Note_on_c, 5, 66, 99
6, 40408, Note_on_c, 5, 56, 0
6, 40412, Note_on_c, 5, 61, 0
6, 40416, Note_on_c, 5, 66, 0
6, 40416, Note_on_c, 5, 56, 95
6, 40420, Note_on_c, 5, 61, 95
6, 40424, Note_on_c, 5, 66, 99
6, 40504, Note_on_c, 5, 56, 0
6, 40508, Note_on_c, 5, 61, 0
6, 40512, Note_on_c, 5, 66, 0
6, 40512, Note_on_c, 5, 56, 99
6, 40516, Note_on_c, 5, 61, 99
6, 40520, Note_on_c, 5, 66, 99
6, 40600, Note_on_c, 5, 56, 0
6, 40604, Note_on_c, 5, 61, 0
6, 40608, Note_on_c, 5, 66, 0
6, 40608, Note_on_c, 5, 56, 99
6, 40612, Note_on_c, 5, 61, 99
6, 40616, Note_on_c, 5, 66, 95
6, 40696, Note_on_c, 5, 56, 0
6, 40700, Note_on_c, 5, 61, 0
6, 40704, Note_on_c, 5, 56, 91
6, 40705, Note_on_c, 5, 66, 0
6, 40708, Note_on_c, 5, 61, 95
6, 40712, Note_on_c, 5, 65, 95
6, 40792, Note_on_c, 5, 56, 0
6, 40796, Note_on_c, 5, 61, 0
6, 40800, Note_on_c, 5, 65, 0
6, 40800, Note_on_c, 5, 56, 91
6, 40804, Note_on_c, 5, 61, 95
6, 40808, Note_on_c, 5, 65, 92
6, 40888, Note_on_c, 5, 56, 0
6, 40892, Note_on_c, 5, 61, 0
6, 40896, Note_on_c, 5, 65, 0
6, 40896, Note_on_c, 5, 56, 91
6, 40900, Note_on_c, 5, 61, 95
6, 40904, Note_on_c, 5, 65, 91
6, 40984, Note_on_c, 5, 56, 0
6, 40988, Note_on_c, 5, 61, 0
6, 40992, Note_on_c, 5, 65, 0
6, 40992, Note_on_c, 5, 56, 91
6, 40996, Note_on_c, 5, 61, 95
6, 41000, Note_on_c, 5, 65, 91
6, 41080, Note_on_c, 5, 56, 0
6, 41084, Note_on_c, 5, 61, 0
6, 41088, Note_on_c, 5, 65, 0
6, 41088, Note_on_c, 5, 56, 91
6, 41092, Note_on_c, 5, 61, 92
6, 41096, Note_on_c, 5, 65, 92
6, 41176, Note_on_c, 5, 56, 0
6, 41180, Note_on_c, 5, 61, 0
6, 41184, Note_on_c, 5, 65, 0
6, 41184, Note_on_c, 5, 56, 91
6, 41188, Note_on_c, 5, 61, 91
6, 41192, Note_on_c, 5, 65, 95
6, 41272, Note_on_c, 5, 56, 0
6, 41276, Note_on_c, 5, 61, 0
6, 41280, Note_on_c, 5, 65, 0
6, 41280, Note_on_c, 5, 56, 91
6, 41284, Note_on_c, 5, 61, 95
6, 41288, Note_on_c, 5, 65, 92
6, 41368, Note_on_c, 5, 56, 0
6, 41372, Note_on_c, 5, 61, 0
6, 41376, Note_on_c, 5, 65, 0
6, 41376, Note_on_c, 5, 56, 91
6, 41380, Note_on_c, 5, 61, 95
6, 41384, Note_on_c, 5, 65, 92
6, 41464, Note_on_c, 5, 56, 0
6, 41468, Note_on_c, 5, 61, 0
6, 41472, Note_on_c, 5, 56, 92
6, 41473, Note_on_c, 5, 65, 0
6, 41476, Note_on_c, 5, 61, 99
6, 41480, Note_on_c, 5, 66, 95
6, 41560, Note_on_c, 5, 56, 0
6, 41564, Note_on_c, 5, 61, 0
6, 41568, Note_on_c, 5, 66, 0
6, 41568, Note_on_c, 5, 56, 91
6, 41572, Note_on_c, 5, 61, 92
6, 41576, Note_on_c, 5, 66, 92
6, 41656, Note_on_c, 5, 56, 0
6, 41660, Note_on_c, 5, 61, 0
6, 41664, Note_on_c, 5, 66, 0
6, 41664, Note_on_c, 5, 56, 91
6, 41668, Note_on_c, 5, 61, 95
6, 41672, Note_on_c, 5, 66, 99
6, 41752, Note_on_c, 5, 56, 0
6, 41756, Note_on_c, 5, 61, 0
6, 41760, Note_on_c, 5, 66, 0
6, 41760, Note_on_c, 5, 56, 92
6, 41764, Note_on_c, 5, 61, 95
6, 41768, Note_on_c, 5, 66, 91
6, 41848, Note_on_c, 5, 56, 0
6, 41852, Note_on_c, 5, 61, 0
6, 41856, Note_on_c, 5, 66, 0
6, 41856, Note_on_c, 5, 56, 91
6, 41860, Note_on_c, 5, 61, 95
6, 41864, Note_on_c, 5, 66, 92
6, 41944, Note_on_c, 5, 56, 0
6, 41948, Note_on_c, 5, 61, 0
6, 41952, Note_on_c, 5, 66, 0
6, 41952, Note_on_c, 5, 56, 91
6, 41956, Note_on_c, 5, 61, 95
6, 41960, Note_on_c, 5, 66, 95
6, 42040, Note_on_c, 5, 56, 0
6, 42044, Note_on_c, 5, 61, 0
6, 42048, Note_on_c, 5, 66, 0
6, 42048, Note_on_c, 5, 56, 91
6, 42052, Note_on_c, 5, 61, 95
6, 42056, Note_on_c, 5, 66, 95
6, 42136, Note_on_c, 5, 56, 0
6, 42140, Note_on_c, 5, 61, 0
6, 42144, Note_on_c, 5, 66, 0
6, 42144, Note_on_c, 5, 56, 95
6, 42148, Note_on_c, 5, 61, 99
6, 42152, Note_on_c, 5, 66, 95
6, 42232, Note_on_c, 5, 56, 0
6, 42236, Note_on_c, 5, 61, 0
6, 42240, Note_on_c, 5, 56, 99
6, 42241, Note_on_c, 5, 66, 0
6, 42244, Note_on_c, 5, 61, 99
6, 42248, Note_on_c, 5, 65, 99
6, 42328, Note_on_c, 5, 56, 0
6, 42332, Note_on_c, 5, 61, 0
6, 42336, Note_on_c, 5, 65, 0
6, 42336, Note_on_c, 5, 56, 91
6, 42340, Note_on_c, 5, 61, 95
6, 42344, Note_on_c, 5, 65, 99
6, 42424, Note_on_c, 5, 56, 0
6, 42428, Note_on_c, 5, 61, 0
6, 42432, Note_on_c, 5, 65, 0
6, 42432, Note_on_c, 5, 56, 91
6, 42436, Note_on_c, 5, 61, 95
6, 42440, Note_on_c, 5, 65, 99
6, 42520, Note_on_c, 5, 56, 0
6, 42524, Note_on_c, 5, 61, 0
6, 42528, Note_on_c, 5, 65, 0
6, 42528, Note_on_c, 5, 56, 91
6, 42532, Note_on_c, 5, 61, 95
6, 42536, Note_on_c, 5, 65, 99
6, 42616, Note_on_c, 5, 56, 0
6, 42620, Note_on_c, 5, 61, 0
6, 42624, Note_on_c, 5, 65, 0
6, 42624, Note_on_c, 5, 56, 91
6, 42628, Note_on_c, 5, 61, 95
6, 42632, Note_on_c, 5, 65, 99
6, 42712, Note_on_c, 5, 56, 0
6, 42716, Note_on_c, 5, 61, 0
6, 42720, Note_on_c, 5, 65, 0
6, 42720, Note_on_c, 5, 56, 91
6, 42724, Note_on_c, 5, 61, 95
6, 42728, Note_on_c, 5, 65, 99
6, 42808, Note_on_c, 5, 56, 0
6, 42812, Note_on_c, 5, 61, 0
6, 42816, Note_on_c, 5, 65, 0
6, 42816, Note_on_c, 5, 56, 91
6, 42820, Note_on_c, 5, 61, 92
6, 42824, Note_on_c, 5, 65, 95
6, 42904, Note_on_c, 5, 56, 0
6, 42908, Note_on_c, 5, 61, 0
6, 42912, Note_on_c, 5, 65, 0
6, 42912, Note_on_c, 5, 56, 91
6, 42916, Note_on_c, 5, 61, 95
6, 42920, Note_on_c, 5, 65, 95
6, 43000, Note_on_c, 5, 56, 0
6, 43004, Note_on_c, 5, 61, 0
6, 43008, Note_on_c, 5, 56, 92
6, 43009, Note_on_c, 5, 65, 0
6, 43012, Note_on_c, 5, 61, 99
6, 43016, Note_on_c, 5, 66, 95
6, 43096, Note_on_c, 5, 56, 0
6, 43100, Note_on_c, 5, 61, 0
6, 43104, Note_on_c, 5, 66, 0
6, 43104, Note_on_c, 5, 56, 92
6, 43108, Note_on_c, 5, 61, 95
6, 43112, Note_on_c, 5, 66, 99
6, 43192, Note_on_c, 5, 56, 0
6, 43196, Note_on_c, 5, 61, 0
6, 43200, Note_on_c, 5, 66, 0
6, 43200, Note_on_c, 5, 56, 95
6, 43204, Note_on_c, 5, 61, 95
6, 43208, Note_on_c, 5, 66, 99
6, 43288, Note_on_c, 5, 56, 0
6, 43292, Note_on_c, 5, 61, 0
6, 43296, Note_on_c, 5, 66, 0
6, 43296, Note_on_c, 5, 56, 95
6, 43300, Note_on_c, 5, 61, 99
6, 43304, Note_on_c, 5, 66, 99
6, 43384, Note_on_c, 5, 56, 0
6, 43388, Note_on_c, 5, 61, 0
6, 43392, Note_on_c, 5, 66, 0
6, 43392, Note_on_c, 5, 56, 95
6, 43396, Note_on_c, 5, 61, 99
6, 43400, Note_on_c, 5, 66, 99
6, 43480, Note_on_c, 5, 56, 0
6, 43484, Note_on_c, 5, 61, 0
6, 43488, Note_on_c, 5, 66, 0
6, 43488, Note_on_c, 5, 56, 92
6, 43492, Note_on_c, 5, 61, 99
6, 43496, Note_on_c, 5, 66, 99
6, 43576, Note_on_c, 5, 56, 0
6, 43580, Note_on_c, 5, 61, 0
6, 43584, Note_on_c, 5, 66, 0
6, 43584, Note_on_c, 5, 56, 99
6, 43588, Note_on_c, 5, 61, 99
6, 43592, Note_on_c, 5, 66, 99
6, 43672, Note_on_c, 5, 56, 0
6, 43676, Note_on_c, 5, 61, 0
6, 43680, Note_on_c, 5, 66, 0
6, 43680, Note_on_c, 5, 56, 95
6, 43684, Note_on_c, 5, 61, 95
6, 43688, Note_on_c, 5, 66, 99
6, 43768, Note_on_c, 5, 56, 0
6, 43772, Note_on_c, 5, 61, 0
6, 43776, Note_on_c, 5, 56, 91
6, 43777, Note_on_c, 5, 66, 0
6, 43780, Note_on_c, 5, 61, 95
6, 43784, Note_on_c, 5, 65, 95
6, 43864, Note_on_c, 5, 56, 0
6, 43868, Note_on_c, 5, 61, 0
6, 43872, Note_on_c, 5, 65, 0
6, 43872, Note_on_c, 5, 56, 91
6, 43876, Note_on_c, 5, 61, 95
6, 43880, Note_on_c, 5, 65, 92
6, 43960, Note_on_c, 5, 56, 0
6, 43964, Note_on_c, 5, 61, 0
6, 43968, Note_on_c, 5, 65, 0
6, 43968, Note_on_c, 5, 56, 91
6, 43972, Note_on_c, 5, 61, 95
6, 43976, Note_on_c, 5, 65, 91
6, 44056, Note_on_c, 5, 56, 0
6, 44060, Note_on_c, 5, 61, 0
6, 44064, Note_on_c, 5, 65, 0
6, 44064, Note_on_c, 5, 56, 91
6, 44068, Note_on_c, 5, 61, 95
6, 44072, Note_on_c, 5, 65, 91
6, 44152, Note_on_c, 5, 56, 0
6, 44156, Note_on_c, 5, 61, 0
6, 44160, Note_on_c, 5, 65, 0
6, 44160, Note_on_c, 5, 56, 91
6, 44164, Note_on_c, 5, 61, 92
6, 44168, Note_on_c, 5, 65, 92
6, 44248, Note_on_c, 5, 56, 0
6, 44252, Note_on_c, 5, 61, 0
6, 44256, Note_on_c, 5, 65, 0
6, 44256, Note_on_c, 5, 56, 91
6, 44260, Note_on_c, 5, 61, 91
6, 44264, Note_on_c, 5, 65, 95
6, 44344, Note_on_c, 5, 56, 0
6, 44348, Note_on_c, 5, 61, 0
6, 44352, Note_on_c, 5, 65, 0
6, 44352, Note_on_c, 5, 56, 91
6, 44356, Note_on_c, 5, 61, 95
6, 44360, Note_on_c, 5, 65, 92
6, 44440, Note_on_c, 5, 56, 0
6, 44444, Note_on_c, 5, 61, 0
6, 44448, Note_on_c, 5, 65, 0
6, 44448, Note_on_c, 5, 56, 91
6, 44452, Note_on_c, 5, 61, 95
6, 44456, Note_on_c, 5, 65, 92
6, 44536, Note_on_c, 5, 56, 0
6, 44540, Note_on_c, 5, 61, 0
6, 44544, Note_on_c, 5, 56, 92
6, 44545, Note_on_c, 5, 65, 0
6, 44548, Note_on_c, 5, 61, 99
6, 44552, Note_on_c, 5, 66, 95
6, 44632, Note_on_c, 5, 56, 0
6, 44636, Note_on_c, 5, 61, 0
6, 44640, Note_on_c, 5, 66, 0
6, 44640, Note_on_c, 5, 56, 91
6, 44644, Note_on_c, 5, 61, 92
6, 44648, Note_on_c, 5, 66, 92
6, 44728, Note_on_c, 5, 56, 0
6, 44732, Note_on_c, 5, 61, 0
6, 44736, Note_on_c, 5, 66, 0
6, 44736, Note_on_c, 5, 56, 91
6, 44740, Note_on_c, 5, 61, 95
6, 44744, Note_on_c, 5, 66, 99
6, 44824, Note_on_c, 5, 56, 0
6, 44828, Note_on_c, 5, 61, 0
6, 44832, Note_on_c, 5, 66, 0
6, 44832, Note_on_c, 5, 56, 92
6, 44836, Note_on_c, 5, 61, 95
6, 44840, Note_on_c, 5, 66, 91
6, 44920, Note_on_c, 5, 56, 0
6, 44924, Note_on_c, 5, 61, 0
6, 44928, Note_on_c, 5, 66, 0
6, 44928, Note_on_c, 5, 56, 91
6, 44932, Note_on_c, 5, 61, 95
6, 44936, Note_on_c, 5, 66, 92
6, 45016, Note_on_c, 5, 56, 0
6, 45020, Note_on_c, 5, 61, 0
6, 45024, Note_on_c, 5, 66, 0
6, 45024, Note_on_c, 5, 56, 91
6, 45028, Note_on_c, 5, 61, 95
6, 45032, Note_on_c, 5, 66, 95
6, 45112, Note_on_c, 5, 56, 0
6, 45116, Note_on_c, 5, 61, 0
6, 45120, Note_on_c, 5, 66, 0
6, 45120, Note_on_c, 5, 56, 91
6, 45124, Note_on_c, 5, 61, 95
6, 45128, Note_on_c, 5, 66, 95
6, 45208, Note_on_c, 5, 56, 0
6, 45212, Note_on_c, 5, 61, 0
6, 45216, Note_on_c, 5, 66, 0
6, 45216, Note_on_c, 5, 56, 95
6, 45220, Note_on_c, 5, 61, 99
6, 45224, Note_on_c, 5, 66, 95
6, 45304, Note_on_c, 5, 56, 0
6, 45308, Note_on_c, 5, 61, 0
6, 45312, Note_on_c, 5, 56, 99
6, 45313, Note_on_c, 5, 66, 0
6, 45316, Note_on_c, 5, 61, 99
6, 45320, Note_on_c, 5, 65, 99
6, 45400, Note_on_c, 5, 56, 0
6, 45404, Note_on_c, 5, 61, 0
6, 45408, Note_on_c, 5, 65, 0
6, 45408, Note_on_c, 5, 56, 91
6, 45412, Note_on_c, 5, 61, 95
6, 45416, Note_on_c, 5, 65, 99
6, 45496, Note_on_c, 5, 56, 0
6, 45500, Note_on_c, 5, 61, 0
6, 45504, Note_on_c, 5, 65, 0
6, 45504, Note_on_c, 5, 56, 91
6, 45508, Note_on_c, 5, 61, 95
6, 45512, Note_on_c, 5, 65, 99
6, 45592, Note_on_c, 5, 56, 0
6, 45596, Note_on_c, 5, 61, 0
6, 45600, Note_on_c, 5, 65, 0
6, 45600, Note_on_c, 5, 56, 91
6, 45604, Note_on_c, 5, 61, 95
6, 45608, Note_on_c, 5, 65, 99
6, 45688, Note_on_c, 5, 56, 0
6, 45692, Note_on_c, 5, 61, 0
6, 45696, Note_on_c, 5, 65, 0
6, 45696, Note_on_c, 5, 56, 91
6, 45700, Note_on_c, 5, 61, 95
6, 45704, Note_on_c, 5, 65, 99
6, 45784, Note_on_c, 5, 56, 0
6, 45788, Note_on_c, 5, 61, 0
6, 45792, Note_on_c, 5, 65, 0
6, 45792, Note_on_c, 5, 56, 91
6, 45796, Note_on_c, 5, 61, 95
6, 45800, Note_on_c, 5, 65, 99
6, 45880, Note_on_c, 5, 56, 0
6, 45884, Note_on_c, 5, 61, 0
6, 45888, Note_on_c, 5, 65, 0
6, 45888, Note_on_c, 5, 56, 91
6, 45892, Note_on_c, 5, 61, 92
6, 45896, Note_on_c, 5, 65, 95
6, 45976, Note_on_c, 5, 56, 0
6, 45980, Note_on_c, 5, 61, 0
6, 45984, Note_on_c, 5, 65, 0
6, 45984, Note_on_c, 5, 56, 91
6, 45988, Note_on_c, 5, 61, 95
6, 45992, Note_on_c, 5, 65, 95
6, 46072, Note_on_c, 5, 56, 0
6, 46076, Note_on_c, 5, 61, 0
6, 46080, Note_on_c, 5, 56, 92
6, 46081, Note_on_c, 5, 65, 0
6, 46084, Note_on_c, 5, 61, 99
6, 46088, Note_on_c, 5, 66, 95
6, 46168, Note_on_c, 5, 56, 0
6, 46172, Note_on_c, 5, 61, 0
6, 46176, Note_on_c, 5, 66, 0
6, 46176, Note_on_c, 5, 56, 92
6, 46180, Note_on_c, 5, 61, 95
6, 46184, Note_on_c, 5, 66, 99
6, 46264, Note_on_c, 5, 56, 0
6, 46268, Note_on_c, 5, 61, 0
6, 46272, Note_on_c, 5, 66, 0
6, 46272, Note_on_c, 5, 56, 95
6, 46276, Note_on_c, 5, 61, 95
6, 46280, Note_on_c, 5, 66, 99
6, 46360, Note_on_c, 5, 56, 0
6, 46364, Note_on_c, 5, 61, 0
6, 46368, Note_on_c, 5, 66, 0
6, 46368, Note_on_c, 5, 56, 95
6, 46372, Note_on_c, 5, 61, 99
6, 46376, Note_on_c, 5, 66, 99
6, 46456, Note_on_c, 5, 56, 0
6, 46460, Note_on_c, 5, 61, 0
6, 46464, Note_on_c, 5, 66, 0
6, 46464, Note_on_c, 5, 56, 95
6, 46468, Note_on_c, 5, 61, 99
6, 46472, Note_on_c, 5, 66, 99
6, 46552, Note_on_c, 5, 56, 0
6, 46556, Note_on_c, 5, 61, 0
6, 46560, Note_on_c, 5, 66, 0
6, 46560, Note_on_c, 5, 56, 92
6, 46564, Note_on_c, 5, 61, 99
6, 46568, Note_on_c, 5, 66, 99
6, 46648, Note_on_c, 5, 56, 0
6, 46652, Note_on_c, 5, 61, 0
6, 46656, Note_on_c, 5, 66, 0
6, 46656, Note_on_c, 5, 56, 99
6, 46660, Note_on_c, 5, 61, 99
6, 46664, Note_on_c, 5, 66, 99
6, 46744, Note_on_c, 5, 56, 0
6, 46748, Note_on_c, 5, 61, 0
6, 46752, Note_on_c, 5, 66, 0
6, 46752, Note_on_c, 5, 56, 95
6, 46756, Note_on_c, 5, 61, 95
6, 46760, Note_on_c, 5, 66, 99
6, 46840, Note_on_c, 5, 56, 0
6, 46844, Note_on_c, 5, 61, 0
6, 46848, Note_on_c, 5, 56, 95
6, 46849, Note_on_c, 5, 66, 0
6, 46852, Note_on_c, 5, 61, 99
6, 46856, Note_on_c, 5, 65, 99
6, 46936, Note_on_c, 5, 56, 0
6, 46940, Note_on_c, 5, 61, 0
6, 46944, Note_on_c, 5, 65, 0
6, 46944, Note_on_c, 5, 56, 92
6, 46948, Note_on_c, 5, 61, 99
6, 46952, Note_on_c, 5, 65, 99
6, 47032, Note_on_c, 5, 56, 0
6, 47036, Note_on_c, 5, 61, 0
6, 47040, Note_on_c, 5, 65, 0
6, 47040, Note_on_c, 5, 56, 99
6, 47044, Note_on_c, 5, 61, 99
6, 47048, Note_on_c, 5, 65, 99
6, 47128, Note_on_c, 5, 56, 0
6, 47132, Note_on_c, 5, 61, 0
6, 47136, Note_on_c, 5, 65, 0
6, 47136, Note_on_c, 5, 56, 95
6, 47140, Note_on_c, 5, 61, 99
6, 47144, Note_on_c, 5, 65, 99
6, 47224, Note_on_c, 5, 56, 0
6, 47228, Note_on_c, 5, 61, 0
6, 47232, Note_on_c, 5, 65, 0
6, 47232, Note_on_c, 5, 56, 95
6, 47236, Note_on_c, 5, 61, 99
6, 47240, Note_on_c, 5, 65, 99
6, 47320, Note_on_c, 5, 56, 0
6, 47324, Note_on_c, 5, 61, 0
6, 47328, Note_on_c, 5, 65, 0
6, 47328, Note_on_c, 5, 56, 92
6, 47332, Note_on_c, 5, 61, 95
6, 47336, Note_on_c, 5, 65, 99
6, 47416, Note_on_c, 5, 56, 0
6, 47420, Note_on_c, 5, 61, 0
6, 47424, Note_on_c, 5, 65, 0
6, 47424, Note_on_c, 5, 56, 95
6, 47428, Note_on_c, 5, 61, 99
6, 47432, Note_on_c, 5, 65, 99
6, 47512, Note_on_c, 5, 56, 0
6, 47516, Note_on_c, 5, 61, 0
6, 47520, Note_on_c, 5, 65, 0
6, 47520, Note_on_c, 5, 56, 91
6, 47524, Note_on_c, 5, 61, 95
6, 47528, Note_on_c, 5, 65, 99
6, 47608, Note_on_c, 5, 56, 0
6, 47612, Note_on_c, 5, 61, 0
6, 47616, Note_on_c, 5, 56, 99
6, 47617, Note_on_c, 5, 65, 0
6, 47620, Note_on_c, 5, 61, 99
6, 47624, Note_on_c, 5, 66, 99
6, 47704, Note_on_c, 5, 56, 0
6, 47708, Note_on_c, 5, 61, 0
6, 47712, Note_on_c, 5, 66, 0
6, 47712, Note_on_c, 5, 56, 99
6, 47716, Note_on_c, 5, 61, 99
6, 47720, Note_on_c, 5, 66, 99
6, 47800, Note_on_c, 5, 56, 0
6, 47804, Note_on_c, 5, 61, 0
6, 47808, Note_on_c, 5, 66, 0
6, 47808, Note_on_c, 5, 56, 99
6, 47812, Note_on_c, 5, 61, 99
6, 47816, Note_on_c, 5, 66, 99
6, 47896, Note_on_c, 5, 56, 0
6, 47900, Note_on_c, 5, 61, 0
6, 47904, Note_on_c, 5, 66, 0
6, 47904, Note_on_c, 5, 56, 99
6, 47908, Note_on_c, 5, 61, 99
6, 47912, Note_on_c, 5, 66, 99
6, 47992, Note_on_c, 5, 56, 0
6, 47996, Note_on_c, 5, 61, 0
6, 48000, Note_on_c, 5, 66, 0
6, 48000, Note_on_c, 5, 56, 99
6, 48004, Note_on_c, 5, 61, 99
6, 48008, Note_on_c, 5, 66, 99
6, 48088, Note_on_c, 5, 56, 0
6, 48092, Note_on_c, 5, 61, 0
6, 48096, Note_on_c, 5, 66, 0
6, 48096, Note_on_c, 5, 56, 92
6, 48100, Note_on_c, 5, 61, 99
6, 48104, Note_on_c, 5, 66, 99
6, 48184, Note_on_c, 5, 56, 0
6, 48188, Note_on_c, 5, 61, 0
6, 48192, Note_on_c, 5, 66, 0
6, 48192, Note_on_c, 5, 56, 95
6, 48196, Note_on_c, 5, 61, 99
6, 48200, Note_on_c, 5, 66, 95
6, 48280, Note_on_c, 5, 56, 0
6, 48284, Note_on_c, 5, 61, 0
6, 48288, Note_on_c, 5, 66, 0
6, 48288, Note_on_c, 5, 56, 95
6, 48292, Note_on_c, 5, 61, 99
6, 48296, Note_on_c, 5, 66, 99
6, 48376, Note_on_c, 5, 56, 0
6, 48380, Note_on_c, 5, 61, 0
6, 48384, Note_on_c, 5, 56, 99
6, 48385, Note_on_c, 5, 66, 0
6, 48388, Note_on_c, 5, 61, 99
6, 48392, Note_on_c, 5, 65, 91
6, 48472, Note_on_c, 5, 56, 0
6, 48476, Note_on_c, 5, 61, 0
6, 48480, Note_on_c, 5, 65, 0
6, 48480, Note_on_c, 5, 56, 95
6, 48484, Note_on_c, 5, 61, 99
6, 48488, Note_on_c, 5, 65, 99
6, 48568, Note_on_c, 5, 56, 0
6, 48572, Note_on_c, 5, 61, 0
6, 48576, Note_on_c, 5, 65, 0
6, 48576, Note_on_c, 5, 56, 92
6, 48580, Note_on_c, 5, 61, 99
6, 48584, Note_on_c, 5, 65, 99
6, 48664, Note_on_c, 5, 56, 0
6, 48668, Note_on_c, 5, 61, 0
6, 48672, Note_on_c, 5, 65, 0
6, 48672, Note_on_c, 5, 56, 99
6, 48676, Note_on_c, 5, 61, 99
6, 48680, Note_on_c, 5, 65, 99
6, 48760, Note_on_c, 5, 56, 0
6, 48764, Note_on_c, 5, 61, 0
6, 48768, Note_on_c, 5, 65, 0
6, 48768, Note_on_c, 5, 56, 92
6, 48772, Note_on_c, 5, 61, 99
6, 48776, Note_on_c, 5, 65, 99
6, 48856, Note_on_c, 5, 56, 0
6, 48860, Note_on_c, 5, 61, 0
6, 48864, Note_on_c, 5, 65, 0
6, 48864, Note_on_c, 5, 56, 92
6, 48868, Note_on_c, 5, 61, 99
6, 48872, Note_on_c, 5, 65, 99
6, 48952, Note_on_c, 5, 56, 0
6, 48956, Note_on_c, 5, 61, 0
6, 48960, Note_on_c, 5, 65, 0
6, 48960, Note_on_c, 5, 56, 91
6, 48964, Note_on_c, 5, 61, 99
6, 48968, Note_on_c, 5, 65, 99
6, 49048, Note_on_c, 5, 56, 0
6, 49052, Note_on_c, 5, 61, 0
6, 49056, Note_on_c, 5, 65, 0
6, 49056, Note_on_c, 5, 56, 91
6, 49060, Note_on_c, 5, 61, 95
6, 49064, Note_on_c, 5, 65, 95
6, 49144, Note_on_c, 5, 56, 0
6, 49148, Note_on_c, 5, 61, 0
6, 49152, Note_on_c, 5, 56, 99
6, 49153, Note_on_c, 5, 65, 0
6, 49156, Note_on_c, 5, 61, 99
6, 49160, Note_on_c, 5, 66, 99
6, 49240, Note_on_c, 5, 56, 0
6, 49244, Note_on_c, 5, 61, 0
6, 49248, Note_on_c, 5, 66, 0
6, 49248, Note_on_c, 5, 56, 95
6, 49252, Note_on_c, 5, 61, 99
6, 49256, Note_on_c, 5, 66, 95
6, 49336, Note_on_c, 5, 56, 0
6, 49340, Note_on_c, 5, 61, 0
6, 49344, Note_on_c, 5, 66, 0
6, 49344, Note_on_c, 5, 56, 99
6, 49348, Note_on_c, 5, 61, 99
6, 49352, Note_on_c, 5, 66, 99
6, 49432, Note_on_c, 5, 56, 0
6, 49436, Note_on_c, 5, 61, 0
6, 49440, Note_on_c, 5, 66, 0
6, 49440, Note_on_c, 5, 56, 95
6, 49444, Note_on_c, 5, 61, 99
6, 49448, Note_on_c, 5, 66, 95
6, 49528, Note_on_c, 5, 56, 0
6, 49532, Note_on_c, 5, 61, 0
6, 49536, Note_on_c, 5, 66, 0
6, 49536, Note_on_c, 5, 56, 99
6, 49540, Note_on_c, 5, 61, 99
6, 49544, Note_on_c, 5, 66, 99
6, 49624, Note_on_c, 5, 56, 0
6, 49628, Note_on_c, 5, 61, 0
6, 49632, Note_on_c, 5, 66, 0
6, 49632, Note_on_c, 5, 56, 95
6, 49636, Note_on_c, 5, 61, 95
6, 49640, Note_on_c, 5, 66, 99
6, 49720, Note_on_c, 5, 56, 0
6, 49724, Note_on_c, 5, 61, 0
6, 49728, Note_on_c, 5, 66, 0
6, 49728, Note_on_c, 5, 56, 99
6, 49732, Note_on_c, 5, 61, 99
6, 49736, Note_on_c, 5, 66, 99
6, 49816, Note_on_c, 5, 56, 0
6, 49820, Note_on_c, 5, 61, 0
6, 49824, Note_on_c, 5, 66, 0
6, 49824, Note_on_c, 5, 56, 99
6, 49828, Note_on_c, 5, 61, 99
6, 49832, Note_on_c, 5, 66, 95
6, 49912, Note_on_c, 5, 56, 0
6, 49916, Note_on_c, 5, 61, 0
6, 49920, Note_on_c, 5, 56, 91
6, 49921, Note_on_c, 5, 66, 0
6, 49924, Note_on_c, 5, 61, 95
6, 49928, Note_on_c, 5, 65, 95
6, 50008, Note_on_c, 5, 56, 0
6, 50012, Note_on_c, 5, 61, 0
6, 50016, Note_on_c, 5, 65, 0
6, 50016, Note_on_c, 5, 56, 91
6, 50020, Note_on_c, 5, 61, 95
6, 50024, Note_on_c, 5, 65, 92
6, 50104, Note_on_c, 5, 56, 0
6, 50108, Note_on_c, 5, 61, 0
6, 50112, Note_on_c, 5, 65, 0
6, 50112, Note_on_c, 5, 56, 91
6, 50116, Note_on_c, 5, 61, 95
6, 50120, Note_on_c, 5, 65, 91
6, 50200, Note_on_c, 5, 56, 0
6, 50204, Note_on_c, 5, 61, 0
6, 50208, Note_on_c, 5, 65, 0
6, 50208, Note_on_c, 5, 56, 91
6, 50212, Note_on_c, 5, 61, 95
6, 50216, Note_on_c, 5, 65, 91
6, 50296, Note_on_c, 5, 56, 0
6, 50300, Note_on_c, 5, 61, 0
6, 50304, Note_on_c, 5, 65, 0
6, 50304, Note_on_c, 5, 56, 91
6, 50308, Note_on_c, 5, 61, 92
6, 50312, Note_on_c, 5, 65, 92
6, 50392, Note_on_c, 5, 56, 0
6, 50396, Note_on_c, 5, 61, 0
6, 50400, Note_on_c, 5, 65, 0
6, 50400, Note_on_c, 5, 56, 91
6, 50404, Note_on_c, 5, 61, 91
6, 50408, Note_on_c, 5, 65, 95
6, 50488, Note_on_c, 5, 56, 0
6, 50492, Note_on_c, 5, 61, 0
6, 50496, Note_on_c, 5, 65, 0
6, 50496, Note_on_c, 5, 56, 91
6, 50500, Note_on_c, 5, 61, 95
6, 50504, Note_on_c, 5, 65, 92
6, 50584, Note_on_c, 5, 56, 0
6, 50588, Note_on_c, 5, 61, 0
6, 50592, Note_on_c, 5, 65, 0
6, 50592, Note_on_c, 5, 56, 91
6, 50596, Note_on_c, 5, 61, 95
6, 50600, Note_on_c, 5, 65, 92
6, 50680, Note_on_c, 5, 56, 0
6, 50684, Note_on_c, 5, 61, 0
6, 50688, Note_on_c, 5, 56, 92
6, 50689, Note_on_c, 5, 65, 0
6, 50692, Note_on_c, 5, 61, 99
6, 50696, Note_on_c, 5, 66, 95
6, 50776, Note_on_c, 5, 56, 0
6, 50780, Note_on_c, 5, 61, 0
6, 50784, Note_on_c, 5, 66, 0
6, 50784, Note_on_c, 5, 56, 91
6, 50788, Note_on_c, 5, 61, 92
6, 50792, Note_on_c, 5, 66, 92
6, 50872, Note_on_c, 5, 56, 0
6, 50876, Note_on_c, 5, 61, 0
6, 50880, Note_on_c, 5, 66, 0
6, 50880, Note_on_c, 5, 56, 91
6, 50884, Note_on_c, 5, 61, 95
6, 50888, Note_on_c, 5, 66, 99
6, 50968, Note_on_c, 5, 56, 0
6, 50972, Note_on_c, 5, 61, 0
6, 50976, Note_on_c, 5, 66, 0
6, 50976, Note_on_c, 5, 56, 92
6, 50980, Note_on_c, 5, 61, 95
6, 50984, Note_on_c, 5, 66, 91
6, 51064, Note_on_c, 5, 56, 0
6, 51068, Note_on_c, 5, 61, 0
6, 51072, Note_on_c, 5, 66, 0
6, 51072, Note_on_c, 5, 56, 91
6, 51076, Note_on_c, 5, 61, 95
6, 51080, Note_on_c, 5, 66, 92
6, 51160, Note_on_c, 5, 56, 0
6, 51164, Note_on_c, 5, 61, 0
6, 51168, Note_on_c, 5, 66, 0
6, 51168, Note_on_c, 5, 56, 91
6, 51172, Note_on_c, 5, 61, 95
6, 51176, Note_on_c, 5, 66, 95
6, 51256, Note_on_c, 5, 56, 0
6, 51260, Note_on_c, 5, 61, 0
6, 51264, Note_on_c, 5, 66, 0
6, 51264, Note_on_c, 5, 56, 91
6, 51268, Note_on_c, 5, 61, 95
6, 51272, Note_on_c, 5, 66, 95
6, 51352, Note_on_c, 5, 56, 0
6, 51356, Note_on_c, 5, 61, 0
6, 51360, Note_on_c, 5, 66, 0
6, 51360, Note_on_c, 5, 56, 95
6, 51364, Note_on_c, 5, 61, 99
6, 51368, Note_on_c, 5, 66, 95
6, 51448, Note_on_c, 5, 56, 0
6, 51452, Note_on_c, 5, 61, 0
6, 51456, Note_on_c, 5, 56, 99
6, 51457, Note_on_c, 5, 66, 0
6, 51460, Note_on_c, 5, 61, 99
6, 51464, Note_on_c, 5, 65, 99
6, 51544, Note_on_c, 5, 56, 0
6, 51548, Note_on_c, 5, 61, 0
6, 51552, Note_on_c, 5, 65, 0
6, 51552, Note_on_c, 5, 56, 91
6, 51556, Note_on_c, 5, 61, 95
6, 51560, Note_on_c, 5, 65, 99
6, 51640, Note_on_c, 5, 56, 0
6, 51644, Note_on_c, 5, 61, 0
6, 51648, Note_on_c, 5, 65, 0
6, 51648, Note_on_c, 5, 56, 91
6, 51652, Note_on_c, 5, 61, 95
6, 51656, Note_on_c, 5, 65, 99
6, 51736, Note_on_c, 5, 56, 0
6, 51740, Note_on_c, 5, 61, 0
6, 51744, Note_on_c, 5, 65, 0
6, 51744, Note_on_c, 5, 56, 91
6, 51748, Note_on_c, 5, 61, 95
6, 51752, Note_on_c, 5, 65, 99
6, 51832, Note_on_c, 5, 56, 0
6, 51836, Note_on_c, 5, 61, 0
6, 51840, Note_on_c, 5, 65, 0
6, 51840, Note_on_c, 5, 56, 91
6, 51844, Note_on_c, 5, 61, 95
6, 51848, Note_on_c, 5, 65, 99
6, 51928, Note_on_c, 5, 56, 0
6, 51932, Note_on_c, 5, 61, 0
6, 51936, Note_on_c, 5, 65, 0
6, 51936, Note_on_c, 5, 56, 91
6, 51940, Note_on_c, 5, 61, 95
6, 51944, Note_on_c, 5, 65, 99
6, 52024, Note_on_c, 5, 56, 0
6, 52028, Note_on_c, 5, 61, 0
6, 52032, Note_on_c, 5, 65, 0
6, 52032, Note_on_c, 5, 56, 91
6, 52036, Note_on_c, 5, 61, 92
6, 52040, Note_on_c, 5, 65, 95
6, 52120, Note_on_c, 5, 56, 0
6, 52124, Note_on_c, 5, 61, 0
6, 52128, Note_on_c, 5, 65, 0
6, 52128, Note_on_c, 5, 56, 91
6, 52132, Note_on_c, 5, 61, 95
6, 52136, Note_on_c, 5, 65, 95
6, 52216, Note_on_c, 5, 56, 0
6, 52220, Note_on_c, 5, 61, 0
6, 52224, Note_on_c, 5, 56, 92
6, 52225, Note_on_c, 5, 65, 0
6, 52228, Note_on_c, 5, 61, 99
6, 52232, Note_on_c, 5, 66, 95
6, 52312, Note_on_c, 5, 56, 0
6, 52316, Note_on_c, 5, 61, 0
6, 52320, Note_on_c, 5, 66, 0
6, 52320, Note_on_c, 5, 56, 92
6, 52324, Note_on_c, 5, 61, 95
6, 52328, Note_on_c, 5, 66, 99
6, 52408, Note_on_c, 5, 56, 0
6, 52412, Note_on_c, 5, 61, 0
6, 52416, Note_on_c, 5, 66, 0
6, 52416, Note_on_c, 5, 56, 95
6, 52420, Note_on_c, 5, 61, 95
6, 52424, Note_on_c, 5, 66, 99
6, 52504, Note_on_c, 5, 56, 0
6, 52508, Note_on_c, 5, 61, 0
6, 52512, Note_on_c, 5, 66, 0
6, 52512, Note_on_c, 5, 56, 95
6, 52516, Note_on_c, 5, 61, 99
6, 52520, Note_on_c, 5, 66, 99
6, 52600, Note_on_c, 5, 56, 0
6, 52604, Note_on_c, 5, 61, 0
6, 52608, Note_on_c, 5, 66, 0
6, 52608, Note_on_c, 5, 56, 95
6, 52612, Note_on_c, 5, 61, 99
6, 52616, Note_on_c, 5, 66, 99
6, 52696, Note_on_c, 5, 56, 0
6, 52700, Note_on_c, 5, 61, 0
6, 52704, Note_on_c, 5, 66, 0
6, 52704, Note_on_c, 5, 56, 92
6, 52708, Note_on_c, 5, 61, 99
6, 52712, Note_on_c, 5, 66, 99
6, 52792, Note_on_c, 5, 56, 0
6, 52796, Note_on_c, 5, 61, 0
6, 52800, Note_on_c, 5, 66, 0
6, 52800, Note_on_c, 5, 56, 99
6, 52804, Note_on_c, 5, 61, 99
6, 52808, Note_on_c, 5, 66, 99
6, 52888, Note_on_c, 5, 56, 0
6, 52892, Note_on_c, 5, 61, 0
6, 52896, Note_on_c, 5, 66, 0
6, 52896, Note_on_c, 5, 56, 95
6, 52900, Note_on_c, 5, 61, 95
6, 52904, Note_on_c, 5, 66, 99
6, 52984, Note_on_c, 5, 56, 0
6, 52988, Note_on_c, 5, 61, 0
6, 52992, Note_on_c, 5, 56, 91
6, 52993, Note_on_c, 5, 66, 0
6, 52996, Note_on_c, 5, 61, 95
6, 53000, Note_on_c, 5, 65, 95
6, 53080, Note_on_c, 5, 56, 0
6, 53084, Note_on_c, 5, 61, 0
6, 53088, Note_on_c, 5, 65, 0
6, 53088, Note_on_c, 5, 56, 91
6, 53092, Note_on_c, 5, 61, 95
6, 53096, Note_on_c, 5, 65, 92
6, 53176, Note_on_c, 5, 56, 0
6, 53180, Note_on_c, 5, 61, 0
6, 53184, Note_on_c, 5, 65, 0
6, 53184, Note_on_c, 5, 56, 91
6, 53188, Note_on_c, 5, 61, 95
6, 53192, Note_on_c, 5, 65, 91
6, 53272, Note_on_c, 5, 56, 0
6, 53276, Note_on_c, 5, 61, 0
6, 53280, Note_on_c, 5, 65, 0
6, 53280, Note_on_c, 5, 56, 91
6, 53284, Note_on_c, 5, 61, 95
6, 53288, Note_on_c, 5, 65, 91
6, 53368, Note_on_c, 5, 56, 0
6, 53372, Note_on_c, 5, 61, 0
6, 53376, Note_on_c, 5, 65, 0
6, 53376, Note_on_c, 5, 56, 91
6, 53380, Note_on_c, 5, 61, 92
6, 53384, Note_on_c, 5, 65, 92
6, 53464, Note_on_c, 5, 56, 0
6, 53468, Note_on_c, 5, 61, 0
6, 53472, Note_on_c, 5, 65, 0
6, 53472, Note_on_c, 5, 56, 91
6, 53476, Note_on_c, 5, 61, 91
6, 53480, Note_on_c, 5, 65, 95
6, 53560, Note_on_c, 5, 56, 0
6, 53564, Note_on_c, 5, 61, 0
6, 53568, Note_on_c, 5, 65, 0
6, 53568, Note_on_c, 5, 56, 91
6, 53572, Note_on_c, 5, 61, 95
6, 53576, Note_on_c, 5, 65, 92
6, 53656, Note_on_c, 5, 56, 0
6, 53660, Note_on_c, 5, 61, 0
6, 53664, Note_on_c, 5, 65, 0
6, 53664, Note_on_c, 5, 56, 91
6, 53668, Note_on_c, 5, 61, 95
6, 53672, Note_on_c, 5, 65, 92
6, 53752, Note_on_c, 5, 56, 0
6, 53756, Note_on_c, 5, 61, 0
6, 53760, Note_on_c, 5, 56, 92
6, 53761, Note_on_c, 5, 65, 0
6, 53764, Note_on_c, 5, 61, 99
6, 53768, Note_on_c, 5, 66, 95
6, 53848, Note_on_c, 5, 56, 0
6, 53852, Note_on_c, 5, 61, 0
6, 53856, Note_on_c, 5, 66, 0
6, 53856, Note_on_c, 5, 56, 91
6, 53860, Note_on_c, 5, 61, 92
6, 53864, Note_on_c, 5, 66, 92
6, 53944, Note_on_c, 5, 56, 0
6, 53948, Note_on_c, 5, 61, 0
6, 53952, Note_on_c, 5, 66, 0
6, 53952, Note_on_c, 5, 56, 91
6, 53956, Note_on_c, 5, 61, 95
6, 53960, Note_on_c, 5, 66, 99
6, 54040, Note_on_c, 5, 56, 0
6, 54044, Note_on_c, 5, 61, 0
6, 54048, Note_on_c, 5, 66, 0
6, 54048, Note_on_c, 5, 56, 92
6, 54052, Note_on_c, 5, 61, 95
6, 54056, Note_on_c, 5, 66, 91
6, 54136, Note_on_c, 5, 56, 0
6, 54140, Note_on_c, 5, 61, 0
6, 54144, Note_on_c, 5, 66, 0
6, 54144, Note_on_c, 5, 56, 91
6, 54148, Note_on_c, 5, 61, 95
6, 54152, Note_on_c, 5, 66, 92
6, 54232, Note_on_c, 5, 56, 0
6, 54236, Note_on_c, 5, 61, 0
6, 54240, Note_on_c, 5, 66, 0
6, 54240, Note_on_c, 5, 56, 91
6, 54244, Note_on_c, 5, 61, 95
6, 54248, Note_on_c, 5, 66, 95
6, 54328, Note_on_c, 5, 56, 0
6, 54332, Note_on_c, 5, 61, 0
6, 54336, Note_on_c, 5, 66, 0
6, 54336, Note_on_c, 5, 56, 91
6, 54340, Note_on_c, 5, 61, 95
6, 54344, Note_on_c, 5, 66, 95
6, 54424, Note_on_c, 5, 56, 0
6, 54428, Note_on_c, 5, 61, 0
6, 54432, Note_on_c, 5, 66, 0
6, 54432, Note_on_c, 5, 56, 95
6, 54436, Note_on_c, 5, 61, 99
6, 54440, Note_on_c, 5, 66, 95
6, 54520, Note_on_c, 5, 56, 0
6, 54524, Note_on_c, 5, 61, 0
6, 54528, Note_on_c, 5, 56, 99
6, 54529, Note_on_c, 5, 66, 0
6, 54532, Note_on_c, 5, 61, 99
6, 54536, Note_on_c, 5, 65, 99
6, 54616, Note_on_c, 5, 56, 0
6, 54620, Note_on_c, 5, 61, 0
6, 54624, Note_on_c, 5, 65, 0
6, 54624, Note_on_c, 5, 56, 91
6, 54628, Note_on_c, 5, 61, 95
6, 54632, Note_on_c, 5, 65, 99
6, 54712, Note_on_c, 5, 56, 0
6, 54716, Note_on_c, 5, 61, 0
6, 54720, Note_on_c, 5, 65, 0
6, 54720, Note_on_c, 5, 56, 91
6, 54724, Note_on_c, 5, 61, 95
6, 54728, Note_on_c, 5, 65, 99
6, 54808, Note_on_c, 5, 56, 0
6, 54812, Note_on_c, 5, 61, 0
6, 54816, Note_on_c, 5, 65, 0
6, 54816, Note_on_c, 5, 56, 91
6, 54820, Note_on_c, 5, 61, 95
6, 54824, Note_on_c, 5, 65, 99
6, 54904, Note_on_c, 5, 56, 0
6, 54908, Note_on_c, 5, 61, 0
6, 54912, Note_on_c, 5, 65, 0
6, 54912, Note_on_c, 5, 56, 91
6, 54916, Note_on_c, 5, 61, 95
6, 54920, Note_on_c, 5, 65, 99
6, 55000, Note_on_c, 5, 56, 0
6, 55004, Note_on_c, 5, 61, 0
6, 55008, Note_on_c, 5, 65, 0
6, 55008, Note_on_c, 5, 56, 91
6, 55012, Note_on_c, 5, 61, 95
6, 55016, Note_on_c, 5, 65, 99
6, 55096, Note_on_c, 5, 56, 0
6, 55100, Note_on_c, 5, 61, 0
6, 55104, Note_on_c, 5, 65, 0
6, 55104, Note_on_c, 5, 56, 91
6, 55108, Note_on_c, 5, 61, 92
6, 55112, Note_on_c, 5, 65, 95
6, 55192, Note_on_c, 5, 56, 0
6, 55196, Note_on_c, 5, 61, 0
6, 55200, Note_on_c, 5, 65, 0
6, 55200, Note_on_c, 5, 56, 91
6, 55204, Note_on_c, 5, 61, 95
6, 55208, Note_on_c, 5, 65, 95
6, 55288, Note_on_c, 5, 56, 0
6, 55292, Note_on_c, 5, 61, 0
6, 55296, Note_on_c, 5, 56, 92
6, 55297, Note_on_c, 5, 65, 0
6, 55300, Note_on_c, 5, 61, 99
6, 55304, Note_on_c, 5, 66, 95
6, 55384, Note_on_c, 5, 56, 0
6, 55388, Note_on_c, 5, 61, 0
6, 55392, Note_on_c, 5, 66, 0
6, 55392, Note_on_c, 5, 56, 92
6, 55396, Note_on_c, 5, 61, 95
6, 55400, Note_on_c, 5, 66, 99
6, 55480, Note_on_c, 5, 56, 0
6, 55484, Note_on_c, 5, 61, 0
6, 55488, Note_on_c, 5, 66, 0
6, 55488, Note_on_c, 5, 56, 95
6, 55492, Note_on_c, 5, 61, 95
6, 55496, Note_on_c, 5, 66, 99
6, 55576, Note_on_c, 5, 56, 0
6, 55580, Note_on_c, 5, 61, 0
6, 55584, Note_on_c, 5, 66, 0
6, 55584, Note_on_c, 5, 56, 95
6, 55588, Note_on_c, 5, 61, 99
6, 55592, Note_on_c, 5, 66, 99
6, 55672, Note_on_c, 5, 56, 0
6, 55676, Note_on_c, 5, 61, 0
6, 55680, Note_on_c, 5, 66, 0
6, 55680, Note_on_c, 5, 56, 95
6, 55684, Note_on_c, 5, 61, 99
6, 55688, Note_on_c, 5, 66, 99
6, 55768, Note_on_c, 5, 56, 0
6, 55772, Note_on_c, 5, 61, 0
6, 55776, Note_on_c, 5, 66, 0
6, 55776, Note_on_c, 5, 56, 92
6, 55780, Note_on_c, 5, 61, 99
6, 55784, Note_on_c, 5, 66, 99
6, 55864, Note_on_c, 5, 56, 0
6, 55868, Note_on_c, 5, 61, 0
6, 55872, Note_on_c, 5, 66, 0
6, 55872, Note_on_c, 5, 56, 99
6, 55876, Note_on_c, 5, 61, 99
6, 55880, Note_on_c, 5, 66, 99
6, 55960, Note_on_c, 5, 56, 0
6, 55964, Note_on_c, 5, 61, 0
6, 55968, Note_on_c, 5, 66, 0
6, 55968, Note_on_c, 5, 56, 95
6, 55972, Note_on_c, 5, 61, 95
6, 55976, Note_on_c, 5, 66, 99
6, 56056, Note_on_c, 5, 56, 0
6, 56060, Note_on_c, 5, 61, 0
6, 56064, Note_on_c, 5, 56, 95
6, 56065, Note_on_c, 5, 66, 0
6, 56068, Note_on_c, 5, 61, 99
6, 56072, Note_on_c, 5, 65, 99
6, 56152, Note_on_c, 5, 56, 0
6, 56156, Note_on_c, 5, 61, 0
6, 56160, Note_on_c, 5, 65, 0
6, 56160, Note_on_c, 5, 56, 92
6, 56164, Note_on_c, 5, 61, 99
6, 56168, Note_on_c, 5, 65, 99
6, 56248, Note_on_c, 5, 56, 0
6, 56252, Note_on_c, 5, 61, 0
6, 56256, Note_on_c, 5, 65, 0
6, 56256, Note_on_c, 5, 56, 99
6, 56260, Note_on_c, 5, 61, 99
6, 56264, Note_on_c, 5, 65, 99
6, 56344, Note_on_c, 5, 56, 0
6, 56348, Note_on_c, 5, 61, 0
6, 56352, Note_on_c, 5, 65, 0
6, 56352, Note_on_c, 5, 56, 95
6, 56356, Note_on_c, 5, 61, 99
6, 56360, Note_on_c, 5, 65, 99
6, 56440, Note_on_c, 5, 56, 0
6, 56444, Note_on_c, 5, 61, 0
6, 56448, Note_on_c, 5, 65, 0
6, 56448, Note_on_c, 5, 56, 95
6, 56452, Note_on_c, 5, 61, 99
6, 56456, Note_on_c, 5, 65, 99
6, 56536, Note_on_c, 5, 56, 0
6, 56540, Note_on_c, 5, 61, 0
6, 56544, Note_on_c, 5, 65, 0
6, 56544, Note_on_c, 5, 56, 92
6, 56548, Note_on_c, 5, 61, 95
6, 56552, Note_on_c, 5, 65, 99
6, 56632, Note_on_c, 5, 56, 0
6, 56636, Note_on_c, 5, 61, 0
6, 56640, Note_on_c, 5, 65, 0
6, 56640, Note_on_c, 5, 56, 95
6, 56644, Note_on_c, 5, 61, 99
6, 56648, Note_on_c, 5, 65, 99
6, 56728, Note_on_c, 5, 56, 0
6, 56732, Note_on_c, 5, 61, 0
6, 56736, Note_on_c, 5, 65, 0
6, 56736, Note_on_c, 5, 56, 91
6, 56740, Note_on_c, 5, 61, 95
6, 56744, Note_on_c, 5, 65, 99
6, 56824, Note_on_c, 5, 56, 0
6, 56828, Note_on_c, 5, 61, 0
6, 56832, Note_on_c, 5, 56, 99
6, 56833, Note_on_c, 5, 65, 0
6, 56836, Note_on_c, 5, 61, 99
6, 56840, Note_on_c, 5, 66, 99
6, 56920, Note_on_c, 5, 56, 0
6, 56924, Note_on_c, 5, 61, 0
6, 56928, Note_on_c, 5, 66, 0
6, 56928, Note_on_c, 5, 56, 99
6, 56932, Note_on_c, 5, 61, 99
6, 56936, Note_on_c, 5, 66, 99
6, 57016, Note_on_c, 5, 56, 0
6, 57020, Note_on_c, 5, 61, 0
6, 57024, Note_on_c, 5, 66, 0
6, 57024, Note_on_c, 5, 56, 99
6, 57028, Note_on_c, 5, 61, 99
6, 57032, Note_on_c, 5, 66, 99
6, 57112, Note_on_c, 5, 56, 0
6, 57116, Note_on_c, 5, 61, 0
6, 57120, Note_on_c, 5, 66, 0
6, 57120, Note_on_c, 5, 56, 99
6, 57124, Note_on_c, 5, 61, 99
6, 57128, Note_on_c, 5, 66, 99
6, 57208, Note_on_c, 5, 56, 0
6, 57212, Note_on_c, 5, 61, 0
6, 57216, Note_on_c, 5, 66, 0
6, 57216, Note_on_c, 5, 56, 99
6, 57220, Note_on_c, 5, 61, 99
6, 57224, Note_on_c, 5, 66, 99
6, 57304, Note_on_c, 5, 56, 0
6, 57308, Note_on_c, 5, 61, 0
6, 57312, Note_on_c, 5, 66, 0
6, 57312, Note_on_c, 5, 56, 92
6, 57316, Note_on_c, 5, 61, 99
6, 57320, Note_on_c, 5, 66, 99
6, 57400, Note_on_c, 5, 56, 0
6, 57404, Note_on_c, 5, 61, 0
6, 57408, Note_on_c, 5, 66, 0
6, 57408, Note_on_c, 5, 56, 95
6, 57412, Note_on_c, 5, 61, 99
6, 57416, Note_on_c, 5, 66, 95
6, 57496, Note_on_c, 5, 56, 0
6, 57500, Note_on_c, 5, 61, 0
6, 57504, Note_on_c, 5, 66, 0
6, 57504, Note_on_c, 5, 56, 95
6, 57508, Note_on_c, 5, 61, 99
6, 57512, Note_on_c, 5, 66, 99
6, 57592, Note_on_c, 5, 56, 0
6, 57596, Note_on_c, 5, 61, 0
6, 57600, Note_on_c, 5, 56, 99
6, 57601, Note_on_c, 5, 66, 0
6, 57604, Note_on_c, 5, 61, 99
6, 57608, Note_on_c, 5, 65, 91
6, 57688, Note_on_c, 5, 56, 0
6, 57692, Note_on_c, 5, 61, 0
6, 57696, Note_on_c, 5, 65, 0
6, 57696, Note_on_c, 5, 56, 95
6, 57700, Note_on_c, 5, 61, 99
6, 57704, Note_on_c, 5, 65, 99
6, 57784, Note_on_c, 5, 56, 0
6, 57788, Note_on_c, 5, 61, 0
6, 57792, Note_on_c, 5, 65, 0
6, 57792, Note_on_c, 5, 56, 92
6, 57796, Note_on_c, 5, 61, 99
6, 57800, Note_on_c, 5, 65, 99
6, 57880, Note_on_c, 5, 56, 0
6, 57884, Note_on_c, 5, 61, 0
6, 57888, Note_on_c, 5, 65, 0
6, 57888, Note_on_c, 5, 56, 99
6, 57892, Note_on_c, 5, 61, 99
6, 57896, Note_on_c, 5, 65, 99
6, 57976, Note_on_c, 5, 56, 0
6, 57980, Note_on_c, 5, 61, 0
6, 57984, Note_on_c, 5, 65, 0
6, 57984, Note_on_c, 5, 56, 92
6, 57988, Note_on_c, 5, 61, 99
6, 57992, Note_on_c, 5, 65, 99
6, 58072, Note_on_c, 5, 56, 0
6, 58076, Note_on_c, 5, 61, 0
6, 58080, Note_on_c, 5, 65, 0
6, 58080, Note_on_c, 5, 56, 92
6, 58084, Note_on_c, 5, 61, 99
6, 58088, Note_on_c, 5, 65, 99
6, 58168, Note_on_c, 5, 56, 0
6, 58172, Note_on_c, 5, 61, 0
6, 58176, Note_on_c, 5, 65, 0
6, 58176, Note_on_c, 5, 56, 91
6, 58180, Note_on_c, 5, 61, 99
6, 58184, Note_on_c, 5, 65, 99
6, 58264, Note_on_c, 5, 56, 0
6, 58268, Note_on_c, 5, 61, 0
6, 58272, Note_on_c, 5, 65, 0
6, 58272, Note_on_c, 5, 56, 91
6, 58276, Note_on_c, 5, 61, 95
6, 58280, Note_on_c, 5, 65, 95
6, 58360, Note_on_c, 5, 56, 0
6, 58364, Note_on_c, 5, 61, 0
6, 58368, Note_on_c, 5, 56, 99
6, 58369, Note_on_c, 5, 65, 0
6, 58372, Note_on_c, 5, 61, 99
6, 58376, Note_on_c, 5, 66, 99
6, 58456, Note_on_c, 5, 56, 0
6, 58460, Note_on_c, 5, 61, 0
6, 58464, Note_on_c, 5, 66, 0
6, 58464, Note_on_c, 5, 56, 95
6, 58468, Note_on_c, 5, 61, 99
6, 58472, Note_on_c, 5, 66, 95
6, 58552, Note_on_c, 5, 56, 0
6, 58556, Note_on_c, 5, 61, 0
6, 58560, Note_on_c, 5, 66, 0
6, 58560, Note_on_c, 5, 56, 99
6, 58564, Note_on_c, 5, 61, 99
6, 58568, Note_on_c, 5, 66, 99
6, 58648, Note_on_c, 5, 56, 0
6, 58652, Note_on_c, 5, 61, 0
6, 58656, Note_on_c, 5, 66, 0
6, 58656, Note_on_c, 5, 56, 95
6, 58660, Note_on_c, 5, 61, 99
6, 58664, Note_on_c, 5, 66, 95
6, 58744, Note_on_c, 5, 56, 0
6, 58748, Note_on_c, 5, 61, 0
6, 58752, Note_on_c, 5, 66, 0
6, 58752, Note_on_c, 5, 56, 99
6, 58756, Note_on_c, 5, 61, 99
6, 58760, Note_on_c, 5, 66, 99
6, 58840, Note_on_c, 5, 56, 0
6, 58844, Note_on_c, 5, 61, 0
6, 58848, Note_on_c, 5, 66, 0
6, 58848, Note_on_c, 5, 56, 95
6, 58852, Note_on_c, 5, 61, 95
6, 58856, Note_on_c, 5, 66, 99
6, 58936, Note_on_c, 5, 56, 0
6, 58940, Note_on_c, 5, 61, 0
6, 58944, Note_on_c, 5, 66, 0
6, 58944, Note_on_c, 5, 56, 99
6, 58948, Note_on_c, 5, 61, 99
6, 58952, Note_on_c, 5, 66, 99
6, 59032, Note_on_c, 5, 56, 0
6, 59036, Note_on_c, 5, 61, 0
6, 59040, Note_on_c, 5, 66, 0
6, 59040, Note_on_c, 5, 56, 99
6, 59044, Note_on_c, 5, 61, 99
6, 59048, Note_on_c, 5, 66, 95
6, 59128, Note_on_c, 5, 56, 0
6, 59132, Note_on_c, 5, 61, 0
6, 59136, Note_on_c, 5, 56, 91
6, 59137, Note_on_c, 5, 66, 0
6, 59140, Note_on_c, 5, 61, 95
6, 59144, Note_on_c, 5, 65, 95
6, 59224, Note_on_c, 5, 56, 0
6, 59228, Note_on_c, 5, 61, 0
6, 59232, Note_on_c, 5, 65, 0
6, 59232, Note_on_c, 5, 56, 91
6, 59236, Note_on_c, 5, 61, 95
6, 59240, Note_on_c, 5, 65, 92
6, 59320, Note_on_c, 5, 56, 0
6, 59324, Note_on_c, 5, 61, 0
6, 59328, Note_on_c, 5, 65, 0
6, 59328, Note_on_c, 5, 56, 91
6, 59332, Note_on_c, 5, 61, 95
6, 59336, Note_on_c, 5, 65, 91
6, 59416, Note_on_c, 5, 56, 0
6, 59420, Note_on_c, 5, 61, 0
6, 59424, Note_on_c, 5, 65, 0
6, 59424, Note_on_c, 5, 56, 91
6, 59428, Note_on_c, 5, 61, 95
6, 59432, Note_on_c, 5, 65, 91
6, 59512, Note_on_c, 5, 56, 0
6, 59516, Note_on_c, 5, 61, 0
6, 59520, Note_on_c, 5, 65, 0
6, 59520, Note_on_c, 5, 56, 91
6, 59524, Note_on_c, 5, 61, 92
6, 59528, Note_on_c, 5, 65, 92
6, 59608, Note_on_c, 5, 56, 0
6, 59612, Note_on_c, 5, 61, 0
6, 59616, Note_on_c, 5, 65, 0
6, 59616, Note_on_c, 5, 56, 91
6, 59620, Note_on_c, 5, 61, 91
6, 59624, Note_on_c, 5, 65, 95
6, 59704, Note_on_c, 5, 56, 0
6, 59708, Note_on_c, 5, 61, 0
6, 59712, Note_on_c, 5, 65, 0
6, 59712, Note_on_c, 5, 56, 91
6, 59716, Note_on_c, 5, 61, 95
6, 59720, Note_on_c, 5, 65, 92
6, 59800, Note_on_c, 5, 56, 0
6, 59804, Note_on_c, 5, 61, 0
6, 59808, Note_on_c, 5, 65, 0
6, 59808, Note_on_c, 5, 56, 91
6, 59812, Note_on_c, 5, 61, 95
6, 59816, Note_on_c, 5, 65, 92
6, 59896, Note_on_c, 5, 56, 0
6, 59900, Note_on_c, 5, 61, 0
6, 59904, Note_on_c, 5, 56, 92
6, 59905, Note_on_c, 5, 65, 0
6, 59908, Note_on_c, 5, 61, 99
6, 59912, Note_on_c, 5, 66, 95
6, 59992, Note_on_c, 5, 56, 0
6, 59996, Note_on_c, 5, 61, 0
6, 60000, Note_on_c, 5, 66, 0
6, 60000, Note_on_c, 5, 56, 91
6, 60004, Note_on_c, 5, 61, 92
6, 60008, Note_on_c, 5, 66, 92
6, 60088, Note_on_c, 5, 56, 0
6, 60092, Note_on_c, 5, 61, 0
6, 60096, Note_on_c, 5, 66, 0
6, 60096, Note_on_c, 5, 56, 91
6, 60100, Note_on_c, 5, 61, 95
6, 60104, Note_on_c, 5, 66, 99
6, 60184, Note_on_c, 5, 56, 0
6, 60188, Note_on_c, 5, 61, 0
6, 60192, Note_on_c, 5, 66, 0
6, 60192, Note_on_c, 5, 56, 92
6, 60196, Note_on_c, 5, 61, 95
6, 60200, Note_on_c, 5, 66, 91
6, 60280, Note_on_c, 5, 56, 0
6, 60284, Note_on_c, 5, 61, 0
6, 60288, Note_on_c, 5, 66, 0
6, 60288, Note_on_c, 5, 56, 91
6, 60292, Note_on_c, 5, 61, 95
6, 60296, Note_on_c, 5, 66, 92
6, 60376, Note_on_c, 5, 56, 0
6, 60380, Note_on_c, 5, 61, 0
6, 60384, Note_on_c, 5, 66, 0
6, 60384, Note_on_c, 5, 56, 91
6, 60388, Note_on_c, 5, 61, 95
6, 60392, Note_on_c, 5, 66, 95
6, 60472, Note_on_c, 5, 56, 0
6, 60476, Note_on_c, 5, 61, 0
6, 60480, Note_on_c, 5, 66, 0
6, 60480, Note_on_c, 5, 56, 91
6, 60484, Note_on_c, 5, 61, 95
6, 60488, Note_on_c, 5, 66, 95
6, 60568, Note_on_c, 5, 56, 0
6, 60572, Note_on_c, 5, 61, 0
6, 60576, Note_on_c, 5, 66, 0
6, 60576, Note_on_c, 5, 56, 95
6, 60580, Note_on_c, 5, 61, 99
6, 60584, Note_on_c, 5, 66, 95
6, 60664, Note_on_c, 5, 56, 0
6, 60668, Note_on_c, 5, 61, 0
6, 60672, Note_on_c, 5, 56, 99
6, 60673, Note_on_c, 5, 66, 0
6, 60676, Note_on_c, 5, 61, 99
6, 60680, Note_on_c, 5, 65, 99
6, 60760, Note_on_c, 5, 56, 0
6, 60764, Note_on_c, 5, 61, 0
6, 60768, Note_on_c, 5, 65, 0
6, 60768, Note_on_c, 5, 56, 91
6, 60772, Note_on_c, 5, 61, 95
6, 60776, Note_on_c, 5, 65, 99
6, 60856, Note_on_c, 5, 56, 0
6, 60860, Note_on_c, 5, 61, 0
6, 60864, Note_on_c, 5, 65, 0
6, 60864, Note_on_c, 5, 56, 91
6, 60868, Note_on_c, 5, 61, 95
6, 60872, Note_on_c, 5, 65, 99
6, 60952, Note_on_c, 5, 56, 0
6, 60956, Note_on_c, 5, 61, 0
6, 60960, Note_on_c, 5, 65, 0
6, 60960, Note_on_c, 5, 56, 91
6, 60964, Note_on_c, 5, 61, 95
6, 60968, Note_on_c, 5, 65, 99
6, 61048, Note_on_c, 5, 56, 0
6, 61052, Note_on_c, 5, 61, 0
6, 61056, Note_on_c, 5, 65, 0
6, 61056, Note_on_c, 5, 56, 91
6, 61060, Note_on_c, 5, 61, 95
6, 61064, Note_on_c, 5, 65, 99
6, 61144, Note_on_c, 5, 56, 0
6, 61148, Note_on_c, 5, 61, 0
6, 61152, Note_on_c, 5, 65, 0
6, 61152, Note_on_c, 5, 56, 91
6, 61156, Note_on_c, 5, 61, 95
6, 61160, Note_on_c, 5, 65, 99
6, 61240, Note_on_c, 5, 56, 0
6, 61244, Note_on_c, 5, 61, 0
6, 61248, Note_on_c, 5, 65, 0
6, 61248, Note_on_c, 5, 56, 91
6, 61252, Note_on_c, 5, 61, 92
6, 61256, Note_on_c, 5, 65, 95
6, 61336, Note_on_c, 5, 56, 0
6, 61340, Note_on_c, 5, 61, 0
6, 61344, Note_on_c, 5, 65, 0
6, 61344, Note_on_c, 5, 56, 91
6, 61348, Note_on_c, 5, 61, 95
6, 61352, Note_on_c, 5, 65, 95
6, 61432, Note_on_c, 5, 56, 0
6, 61436, Note_on_c, 5, 61, 0
6, 61440, Note_on_c, 5, 56, 92
6, 61441, Note_on_c, 5, 65, 0
6, 61444, Note_on_c, 5, 61, 99
6, 61448, Note_on_c, 5, 66, 95
6, 61528, Note_on_c, 5, 56, 0
6, 61532, Note_on_c, 5, 61, 0
6, 61536, Note_on_c, 5, 66, 0
6, 61536, Note_on_c, 5, 56, 92
6, 61540, Note_on_c, 5, 61, 95
6, 61544, Note_on_c, 5, 66, 99
6, 61624, Note_on_c, 5, 56, 0
6, 61628, Note_on_c, 5, 61, 0
6, 61632, Note_on_c, 5, 66, 0
6, 61632, Note_on_c, 5, 56, 95
6, 61636, Note_on_c, 5, 61, 95
6, 61640, Note_on_c, 5, 66, 99
6, 61720, Note_on_c, 5, 56, 0
6, 61724, Note_on_c, 5, 61, 0
6, 61728, Note_on_c, 5, 66, 0
6, 61728, Note_on_c, 5, 56, 95
6, 61732, Note_on_c, 5, 61, 99
6, 61736, Note_on_c, 5, 66, 99
6, 61816, Note_on_c, 5, 56, 0
6, 61820, Note_on_c, 5, 61, 0
6, 61824, Note_on_c, 5, 66, 0
6, 61824, Note_on_c, 5, 56, 95
6, 61828, Note_on_c, 5, 61, 99
6, 61832, Note_on_c, 5, 66, 99
6, 61912, Note_on_c, 5, 56, 0
6, 61916, Note_on_c, 5, 61, 0
6, 61920, Note_on_c, 5, 66, 0
6, 61920, Note_on_c, 5, 56, 92
6, 61924, Note_on_c, 5, 61, 99
6, 61928, Note_on_c, 5, 66, 99
6, 62008, Note_on_c, 5, 56, 0
6, 62012, Note_on_c, 5, 61, 0
6, 62016, Note_on_c, 5, 66, 0
6, 62016, Note_on_c, 5, 56, 99
6, 62020, Note_on_c, 5, 61, 99
6, 62024, Note_on_c, 5, 66, 99
6, 62104, Note_on_c, 5, 56, 0
6, 62108, Note_on_c, 5, 61, 0
6, 62112, Note_on_c, 5, 66, 0
6, 62112, Note_on_c, 5, 56, 95
6, 62116, Note_on_c, 5, 61, 95
6, 62120, Note_on_c, 5, 66, 99
6, 62200, Note_on_c, 5, 56, 0
6, 62204, Note_on_c, 5, 61, 0
6, 62208, Note_on_c, 5, 56, 95
6, 62209, Note_on_c, 5, 66, 0
6, 62212, Note_on_c, 5, 61, 99
6, 62216, Note_on_c, 5, 65, 99
6, 62296, Note_on_c, 5, 56, 0
6, 62300, Note_on_c, 5, 61, 0
6, 62304, Note_on_c, 5, 65, 0
6, 62304, Note_on_c, 5, 56, 92
6, 62308, Note_on_c, 5, 61, 99
6, 62312, Note_on_c, 5, 65, 99
6, 62392, Note_on_c, 5, 56, 0
6, 62396, Note_on_c, 5, 61, 0
6, 62400, Note_on_c, 5, 65, 0
6, 62400, Note_on_c, 5, 56, 99
6, 62404, Note_on_c, 5, 61, 99
6, 62408, Note_on_c, 5, 65, 99
6, 62488, Note_on_c, 5, 56, 0
6, 62492, Note_on_c, 5, 61, 0
6, 62496, Note_on_c, 5, 65, 0
6, 62496, Note_on_c, 5, 56, 95
6, 62500, Note_on_c, 5, 61, 99
6, 62504, Note_on_c, 5, 65, 99
6, 62584, Note_on_c, 5, 56, 0
6, 62588, Note_on_c, 5, 61, 0
6, 62592, Note_on_c, 5, 65, 0
6, 62592, Note_on_c, 5, 56, 95
6, 62596, Note_on_c, 5, 61, 99
6, 62600, Note_on_c, 5, 65, 99
6, 62680, Note_on_c, 5, 56, 0
6, 62684, Note_on_c, 5, 61, 0
6, 62688, Note_on_c, 5, 65, 0
6, 62688, Note_on_c, 5, 56, 92
6, 62692, Note_on_c, 5, 61, 95
6, 62696, Note_on_c, 5, 65, 99
6, 62776, Note_on_c, 5, 56, 0
6, 62780, Note_on_c, 5, 61, 0
6, 62784, Note_on_c, 5, 65, 0
6, 62784, Note_on_c, 5, 56, 95
6, 62788, Note_on_c, 5, 61, 99
6, 62792, Note_on_c, 5, 65, 99
6, 62872, Note_on_c, 5, 56, 0
6, 62876, Note_on_c, 5, 61, 0
6, 62880, Note_on_c, 5, 65, 0
6, 62880, Note_on_c, 5, 56, 91
6, 62884, Note_on_c, 5, 61, 95
6, 62888, Note_on_c, 5, 65, 99
6, 62968, Note_on_c, 5, 56, 0
6, 62972, Note_on_c, 5, 61, 0
6, 62976, Note_on_c, 5, 56, 99
6, 62977, Note_on_c, 5, 65, 0
6, 62980, Note_on_c, 5, 61, 99
6, 62984, Note_on_c, 5, 66, 99
6, 63064, Note_on_c, 5, 56, 0
6, 63068, Note_on_c, 5, 61, 0
6, 63072, Note_on_c, 5, 66, 0
6, 63072, Note_on_c, 5, 56, 99
6, 63076, Note_on_c, 5, 61, 99
6, 63080, Note_on_c, 5, 66, 99
6, 63160, Note_on_c, 5, 56, 0
6, 63164, Note_on_c, 5, 61, 0
6, 63168, Note_on_c, 5, 66, 0
6, 63168, Note_on_c, 5, 56, 99
6, 63172, Note_on_c, 5, 61, 99
6, 63176, Note_on_c, 5, 66, 99
6, 63256, Note_on_c, 5, 56, 0
6, 63260, Note_on_c, 5, 61, 0
6, 63264, Note_on_c, 5, 66, 0
6, 63264, Note_on_c, 5, 56, 99
6, 63268, Note_on_c, 5, 61, 99
6, 63272, Note_on_c, 5, 66, 99
6, 63352, Note_on_c, 5, 56, 0
6, 63356, Note_on_c, 5, 61, 0
6, 63360, Note_on_c, 5, 66, 0
6, 63360, Note_on_c, 5, 56, 99
6, 63364, Note_on_c, 5, 61, 99
6, 63368, Note_on_c, 5, 66, 99
6, 63448, Note_on_c, 5, 56, 0
6, 63452, Note_on_c, 5, 61, 0
6, 63456, Note_on_c, 5, 66, 0
6, 63456, Note_on_c, 5, 56, 92
6, 63460, Note_on_c, 5, 61, 99
6, 63464, Note_on_c, 5, 66, 99
6, 63544, Note_on_c, 5, 56, 0
6, 63548, Note_on_c, 5, 61, 0
6, 63552, Note_on_c, 5, 66, 0
6, 63552, Note_on_c, 5, 56, 95
6, 63556, Note_on_c, 5, 61, 99
6, 63560, Note_on_c, 5, 66, 95
6, 63640, Note_on_c, 5, 56, 0
6, 63644, Note_on_c, 5, 61, 0
6, 63648, Note_on_c, 5, 66, 0
6, 63648, Note_on_c, 5, 56, 95
6, 63652, Note_on_c, 5, 61, 99
6, 63656, Note_on_c, 5, 66, 99
6, 63736, Note_on_c, 5, 56, 0
6, 63740, Note_on_c, 5, 61, 0
6, 63744, Note_on_c, 5, 56, 99
6, 63745, Note_on_c, 5, 66, 0
6, 63748, Note_on_c, 5, 61, 99
6, 63752, Note_on_c, 5, 65, 91
6, 63832, Note_on_c, 5, 56, 0
6, 63836, Note_on_c, 5, 61, 0
6, 63840, Note_on_c, 5, 65, 0
6, 63840, Note_on_c, 5, 56, 95
6, 63844, Note_on_c, 5, 61, 99
6, 63848, Note_on_c, 5, 65, 99
6, 63928, Note_on_c, 5, 56, 0
6, 63932, Note_on_c, 5, 61, 0
6, 63936, Note_on_c, 5, 65, 0
6, 63936, Note_on_c, 5, 56, 92
6, 63940, Note_on_c, 5, 61, 99
6, 63944, Note_on_c, 5, 65, 99
6, 64024, Note_on_c, 5, 56, 0
6, 64028, Note_on_c, 5, 61, 0
6, 64032, Note_on_c, 5, 65, 0
6, 64032, Note_on_c, 5, 56, 99
6, 64036, Note_on_c, 5, 61, 99
6, 64040, Note_on_c, 5, 65, 99
6, 64120, Note_on_c, 5, 56, 0
6, 64124, Note_on_c, 5, 61, 0
6, 64128, Note_on_c, 5, 65, 0
6, 64128, Note_on_c, 5, 56, 92
6, 64132, Note_on_c, 5, 61, 99
6, 64136, Note_on_c, 5, 65, 99
6, 64216, Note_on_c, 5, 56, 0
6, 64220, Note_on_c, 5, 61, 0
6, 64224, Note_on_c, 5, 65, 0
6, 64224, Note_on_c, 5, 56, 92
6, 64228, Note_on_c, 5, 61, 99
6, 64232, Note_on_c, 5, 65, 99
6, 64312, Note_on_c, 5, 56, 0
6, 64316, Note_on_c, 5, 61, 0
6, 64320, Note_on_c, 5, 65, 0
6, 64320, Note_on_c, 5, 56, 91
6, 64324, Note_on_c, 5, 61, 99
6, 64328, Note_on_c, 5, 65, 99
6, 64408, Note_on_c, 5, 56, 0
6, 64412, Note_on_c, 5, 61, 0
6, 64416, Note_on_c, 5, 65, 0
6, 64416, Note_on_c, 5, 56, 91
6, 64420, Note_on_c, 5, 61, 95
6, 64424, Note_on_c, 5, 65, 95
6, 64504, Note_on_c, 5, 56, 0
6, 64508, Note_on_c, 5, 61, 0
6, 64512, Note_on_c, 5, 56, 99
6, 64513, Note_on_c, 5, 65, 0
6, 64516, Note_on_c, 5, 61, 99
6, 64520, Note_on_c, 5, 66, 99
6, 64600, Note_on_c, 5, 56, 0
6, 64604, Note_on_c, 5, 61, 0
6, 64608, Note_on_c, 5, 66, 0
6, 64608, Note_on_c, 5, 56, 95
6, 64612, Note_on_c, 5, 61, 99
6, 64616, Note_on_c, 5, 66, 95
6, 64696, Note_on_c, 5, 56, 0
6, 64700, Note_on_c, 5, 61, 0
6, 64704, Note_on_c, 5, 66, 0
6, 64704, Note_on_c, 5, 56, 99
6, 64708, Note_on_c, 5, 61, 99
6, 64712, Note_on_c, 5, 66, 99
6, 64792, Note_on_c, 5, 56, 0
6, 64796, Note_on_c, 5, 61, 0
6, 64800, Note_on_c, 5, 66, 0
6, 64800, Note_on_c, 5, 56, 95
6, 64804, Note_on_c, 5, 61, 99
6, 64808, Note_on_c, 5, 66, 95
6, 64888, Note_on_c, 5, 56, 0
6, 64892, Note_on_c, 5, 61, 0
6, 64896, Note_on_c, 5, 66, 0
6, 64896, Note_on_c, 5, 56, 99
6, 64900, Note_on_c, 5, 61, 99
6, 64904, Note_on_c, 5, 66, 99
6, 64984, Note_on_c, 5, 56, 0
6, 64988, Note_on_c, 5, 61, 0
6, 64992, Note_on_c, 5, 66, 0
6, 64992, Note_on_c, 5, 56, 95
6, 64996, Note_on_c, 5, 61, 95
6, 65000, Note_on_c, 5, 66, 99
6, 65080, Note_on_c, 5, 56, 0
6, 65084, Note_on_c, 5, 61, 0
6, 65088, Note_on_c, 5, 66, 0
6, 65088, Note_on_c, 5, 56, 99
6, 65092, Note_on_c, 5, 61, 99
6, 65096, Note_on_c, 5, 66, 99
6, 65176, Note_on_c, 5, 56, 0
6, 65180, Note_on_c, 5, 61, 0
6, 65184, Note_on_c, 5, 66, 0
6, 65184, Note_on_c, 5, 56, 99
6, 65188, Note_on_c, 5, 61, 99
6, 65192, Note_on_c, 5, 66, 95
6, 65272, Note_on_c, 5, 56, 0
6, 65276, Note_on_c, 5, 61, 0
6, 65280, Note_on_c, 5, 56, 91
6, 65281, Note_on_c, 5, 66, 0
6, 65284, Note_on_c, 5, 61, 95
6, 65288, Note_on_c, 5, 65, 95
6, 65368, Note_on_c, 5, 56, 0
6, 65372, Note_on_c, 5, 61, 0
6, 65376, Note_on_c, 5, 65, 0
6, 65376, Note_on_c, 5, 56, 91
6, 65380, Note_on_c, 5, 61, 95
6, 65384, Note_on_c, 5, 65, 92
6, 65464, Note_on_c, 5, 56, 0
6, 65468, Note_on_c, 5, 61, 0
6, 65472, Note_on_c, 5, 65, 0
6, 65472, Note_on_c, 5, 56, 91
6, 65476, Note_on_c, 5, 61, 95
6, 65480, Note_on_c, 5, 65, 91
6, 65560, Note_on_c, 5, 56, 0
6, 65564, Note_on_c, 5, 61, 0
6, 65568, Note_on_c, 5, 65, 0
6, 65568, Note_on_c, 5, 56, 91
6, 65572, Note_on_c, 5, 61, 95
6, 65576, Note_on_c, 5, 65, 91
6, 65656, Note_on_c, 5, 56, 0
6, 65660, Note_on_c, 5, 61, 0
6, 65664, Note_on_c, 5, 65, 0
6, 65664, Note_on_c, 5, 56, 91
6, 65668, Note_on_c, 5, 61, 92
6, 65672, Note_on_c, 5, 65, 92
6, 65752, Note_on_c, 5, 56, 0
6, 65756, Note_on_c, 5, 61, 0
6, 65760, Note_on_c, 5, 65, 0
6, 65760, Note_on_c, 5, 56, 91
6, 65764, Note_on_c, 5, 61, 91
6, 65768, Note_on_c, 5, 65, 95
6, 65848, Note_on_c, 5, 56, 0
6, 65852, Note_on_c, 5, 61, 0
6, 65856, Note_on_c, 5, 65, 0
6, 65856, Note_on_c, 5, 56, 91
6, 65860, Note_on_c, 5, 61, 95
6, 65864, Note_on_c, 5, 65, 92
6, 65944, Note_on_c, 5, 56, 0
6, 65948, Note_on_c, 5, 61, 0
6, 65952, Note_on_c, 5, 65, 0
6, 65952, Note_on_c, 5, 56, 91
6, 65956, Note_on_c, 5, 61, 95
6, 65960, Note_on_c, 5, 65, 92
6, 66040, Note_on_c, 5, 56, 0
6, 66044, Note_on_c, 5, 61, 0
6, 66048, Note_on_c, 5, 56, 92
6, 66049, Note_on_c, 5, 65, 0
6, 66052, Note_on_c, 5, 61, 99
6, 66056, Note_on_c, 5, 66, 95
6, 66136, Note_on_c, 5, 56, 0
6, 66140, Note_on_c, 5, 61, 0
6, 66144, Note_on_c, 5, 66, 0
6, 66144, Note_on_c, 5, 56, 91
6, 66148, Note_on_c, 5, 61, 92
6, 66152, Note_on_c, 5, 66, 92
6, 66232, Note_on_c, 5, 56, 0
6, 66236, Note_on_c, 5, 61, 0
6, 66240, Note_on_c, 5, 66, 0
6, 66240, Note_on_c, 5, 56, 91
6, 66244, Note_on_c, 5, 61, 95
6, 66248, Note_on_c, 5, 66, 99
6, 66328, Note_on_c, 5, 56, 0
6, 66332, Note_on_c, 5, 61, 0
6, 66336, Note_on_c, 5, 66, 0
6, 66336, Note_on_c, 5, 56, 92
6, 66340, Note_on_c, 5, 61, 95
6, 66344, Note_on_c, 5, 66, 91
6, 66424, Note_on_c, 5, 56, 0
6, 66428, Note_on_c, 5, 61, 0
6, 66432, Note_on_c, 5, 66, 0
6, 66432, Note_on_c, 5, 56, 91
6, 66436, Note_on_c, 5, 61, 95
6, 66440, Note_on_c, 5, 66, 92
6, 66520, Note_on_c, 5, 56, 0
6, 66524, Note_on_c, 5, 61, 0
6, 66528, Note_on_c, 5, 66, 0
6, 66528, Note_on_c, 5, 56, 91
6, 66532, Note_on_c, 5, 61, 95
6, 66536, Note_on_c, 5, 66, 95
6, 66616, Note_on_c, 5, 56, 0
6, 66620, Note_on_c, 5, 61, 0
6, 66624, Note_on_c, 5, 66, 0
6, 66624, Note_on_c, 5, 56, 91
6, 66628, Note_on_c, 5, 61, 95
6, 66632, Note_on_c, 5, 66, 95
6, 66712, Note_on_c, 5, 56, 0
6, 66716, Note_on_c, 5, 61, 0
6, 66720, Note_on_c, 5, 66, 0
6, 66720, Note_on_c, 5, 56, 95
6, 66724, Note_on_c, 5, 61, 99
6, 66728, Note_on_c, 5, 66, 95
6, 66808, Note_on_c, 5, 56, 0
6, 66812, Note_on_c, 5, 61, 0
6, 66816, Note_on_c, 5, 56, 99
6, 66817, Note_on_c, 5, 66, 0
6, 66820, Note_on_c, 5, 61, 99
6, 66824, Note_on_c, 5, 65, 99
6, 66904, Note_on_c, 5, 56, 0
6, 66908, Note_on_c, 5, 61, 0
6, 66912, Note_on_c, 5, 65, 0
6, 66912, Note_on_c, 5, 56, 91
6, 66916, Note_on_c, 5, 61, 95
6, 66920, Note_on_c, 5, 65, 99
6, 67000, Note_on_c, 5, 56, 0
6, 67004, Note_on_c, 5, 61, 0
6, 67008, Note_on_c, 5, 65, 0
6, 67008, Note_on_c, 5, 56, 91
6, 67012, Note_on_c, 5, 61, 95
6, 67016, Note_on_c, 5, 65, 99
6, 67096, Note_on_c, 5, 56, 0
6, 67100, Note_on_c, 5, 61, 0
6, 67104, Note_on_c, 5, 65, 0
6, 67104, Note_on_c, 5, 56, 91
6, 67108, Note_on_c, 5, 61, 95
6, 67112, Note_on_c, 5, 65, 99
6, 67192, Note_on_c, 5, 56, 0
6, 67196, Note_on_c, 5, 61, 0
6, 67200, Note_on_c, 5, 65, 0
6, 67200, Note_on_c, 5, 56, 91
6, 67204, Note_on_c, 5, 61, 95
6, 67208, Note_on_c, 5, 65, 99
6, 67288, Note_on_c, 5, 56, 0
6, 67292, Note_on_c, 5, 61, 0
6, 67296, Note_on_c, 5, 65, 0
6, 67296, Note_on_c, 5, 56, 91
6, 67300, Note_on_c, 5, 61, 95
6, 67304, Note_on_c, 5, 65, 99
6, 67384, Note_on_c, 5, 56, 0
6, 67388, Note_on_c, 5, 61, 0
6, 67392, Note_on_c, 5, 65, 0
6, 67392, Note_on_c, 5, 56, 91
6, 67396, Note_on_c, 5, 61, 92
6, 67400, Note_on_c, 5, 65, 95
6, 67480, Note_on_c, 5, 56, 0
6, 67484, Note_on_c, 5, 61, 0
6, 67488, Note_on_c, 5, 65, 0
6, 67488, Note_on_c, 5, 56, 91
6, 67492, Note_on_c, 5, 61, 95
6, 67496, Note_on_c, 5, 65, 95
6, 67576, Note_on_c, 5, 56, 0
6, 67580, Note_on_c, 5, 61, 0
6, 67584, Note_on_c, 5, 56, 92
6, 67585, Note_on_c, 5, 65, 0
6, 67588, Note_on_c, 5, 61, 99
6, 67592, Note_on_c, 5, 66, 95
6, 67672, Note_on_c, 5, 56, 0
6, 67676, Note_on_c, 5, 61, 0
6, 67680, Note_on_c, 5, 66, 0
6, 67680, Note_on_c, 5, 56, 92
6, 67684, Note_on_c, 5, 61, 95
6, 67688, Note_on_c, 5, 66, 99
6, 67768, Note_on_c, 5, 56, 0
6, 67772, Note_on_c, 5, 61, 0
6, 67776, Note_on_c, 5, 66, 0
6, 67776, Note_on_c, 5, 56, 95
6, 67780, Note_on_c, 5, 61, 95
6, 67784, Note_on_c, 5, 66, 99
6, 67864, Note_on_c, 5, 56, 0
6, 67868, Note_on_c, 5, 61, 0
6, 67872, Note_on_c, 5, 66, 0
6, 67872, Note_on_c, 5, 56, 95
6, 67876, Note_on_c, 5, 61, 99
6, 67880, Note_on_c, 5, 66, 99
6, 67960, Note_on_c, 5, 56, 0
6, 67964, Note_on_c, 5, 61, 0
6, 67968, Note_on_c, 5, 66, 0
6, 67968, Note_on_c, 5, 56, 95
6, 67972, Note_on_c, 5, 61, 99
6, 67976, Note_on_c, 5, 66, 99
6, 68056, Note_on_c, 5, 56, 0
6, 68060, Note_on_c, 5, 61, 0
6, 68064, Note_on_c, 5, 66, 0
6, 68064, Note_on_c, 5, 56, 92
6, 68068, Note_on_c, 5, 61, 99
6, 68072, Note_on_c, 5, 66, 99
6, 68152, Note_on_c, 5, 56, 0
6, 68156, Note_on_c, 5, 61, 0
6, 68160, Note_on_c, 5, 66, 0
6, 68160, Note_on_c, 5, 56, 99
6, 68164, Note_on_c, 5, 61, 99
6, 68168, Note_on_c, 5, 66, 99
6, 68248, Note_on_c, 5, 56, 0
6, 68252, Note_on_c, 5, 61, 0
6, 68256, Note_on_c, 5, 66, 0
6, 68256, Note_on_c, 5, 56, 95
6, 68260, Note_on_c, 5, 61, 95
6, 68264, Note_on_c, 5, 66, 99
6, 68344, Note_on_c, 5, 56, 0
6, 68348, Note_on_c, 5, 61, 0
6, 68352, Note_on_c, 5, 56, 95
6, 68353, Note_on_c, 5, 66, 0
6, 68356, Note_on_c, 5, 61, 99
6, 68360, Note_on_c, 5, 65, 99
6, 68440, Note_on_c, 5, 56, 0
6, 68444, Note_on_c, 5, 61, 0
6, 68448, Note_on_c, 5, 65, 0
6, 68448, Note_on_c, 5, 56, 92
6, 68452, Note_on_c, 5, 61, 99
6, 68456, Note_on_c, 5, 65, 99
6, 68536, Note_on_c, 5, 56, 0
6, 68540, Note_on_c, 5, 61, 0
6, 68544, Note_on_c, 5, 65, 0
6, 68544, Note_on_c, 5, 56, 99
6, 68548, Note_on_c, 5, 61, 99
6, 68552, Note_on_c, 5, 65, 99
6, 68632, Note_on_c, 5, 56, 0
6, 68636, Note_on_c, 5, 61, 0
6, 68640, Note_on_c, 5, 65, 0
6, 68640, Note_on_c, 5, 56, 95
6, 68644, Note_on_c, 5, 61, 99
6, 68648, Note_on_c, 5, 65, 99
6, 68728, Note_on_c, 5, 56, 0
6, 68732, Note_on_c, 5, 61, 0
6, 68736, Note_on_c, 5, 65, 0
6, 68736, Note_on_c, 5, 56, 95
6, 68740, Note_on_c, 5, 61, 99
6, 68744, Note_on_c, 5, 65, 99
6, 68824, Note_on_c, 5, 56, 0
6, 68828, Note_on_c, 5, 61, 0
6, 68832, Note_on_c, 5, 65, 0
6, 68832, Note_on_c, 5, 56, 92
6, 68836, Note_on_c, 5, 61, 95
6, 68840, Note_on_c, 5, 65, 99
6, 68920, Note_on_c, 5, 56, 0
6, 68924, Note_on_c, 5, 61, 0
6, 68928, Note_on_c, 5, 65, 0
6, 68928, Note_on_c, 5, 56, 95
6, 68932, Note_on_c, 5, 61, 99
6, 68936, Note_on_c, 5, 65, 99
6, 69016, Note_on_c, 5, 56, 0
6, 69020, Note_on_c, 5, 61, 0
6, 69024, Note_on_c, 5, 65, 0
6, 69024, Note_on_c, 5, 56, 91
6, 69028, Note_on_c, 5, 61, 95
6, 69032, Note_on_c, 5, 65, 99
6, 69112, Note_on_c, 5, 56, 0
6, 69116, Note_on_c, 5, 61, 0
6, 69120, Note_on_c, 5, 56, 99
6, 69121, Note_on_c, 5, 65, 0
6, 69124, Note_on_c, 5, 61, 99
6, 69128, Note_on_c, 5, 66, 99
6, 69208, Note_on_c, 5, 56, 0
6, 69212, Note_on_c, 5, 61, 0
6, 69216, Note_on_c, 5, 66, 0
6, 69216, Note_on_c, 5, 56, 99
6, 69220, Note_on_c, 5, 61, 99
6, 69224, Note_on_c, 5, 66, 99
6, 69304, Note_on_c, 5, 56, 0
6, 69308, Note_on_c, 5, 61, 0
6, 69312, Note_on_c, 5, 66, 0
6, 69312, Note_on_c, 5, 56, 99
6, 69316, Note_on_c, 5, 61, 99
6, 69320, Note_on_c, 5, 66, 99
6, 69400, Note_on_c, 5, 56, 0
6, 69404, Note_on_c, 5, 61, 0
6, 69408, Note_on_c, 5, 66, 0
6, 69408, Note_on_c, 5, 56, 99
6, 69412, Note_on_c, 5, 61, 99
6, 69416, Note_on_c, 5, 66, 99
6, 69496, Note_on_c, 5, 56, 0
6, 69500, Note_on_c, 5, 61, 0
6, 69504, Note_on_c, 5, 66, 0
6, 69504, Note_on_c, 5, 56, 99
6, 69508, Note_on_c, 5, 61, 99
6, 69512, Note_on_c, 5, 66, 99
6, 69592, Note_on_c, 5, 56, 0
6, 69596, Note_on_c, 5, 61, 0
6, 69600, Note_on_c, 5, 66, 0
6, 69600, Note_on_c, 5, 56, 92
6, 69604, Note_on_c, 5, 61, 99
6, 69608, Note_on_c, 5, 66, 99
6, 69688, Note_on_c, 5, 56, 0
6, 69692, Note_on_c, 5, 61, 0
6, 69696, Note_on_c, 5, 66, 0
6, 69696, Note_on_c, 5, 56, 95
6, 69700, Note_on_c, 5, 61, 99
6, 69704, Note_on_c, 5, 66, 95
6, 69784, Note_on_c, 5, 56, 0
6, 69788, Note_on_c, 5, 61, 0
6, 69792, Note_on_c, 5, 66, 0
6, 69792, Note_on_c, 5, 56, 95
6, 69796, Note_on_c, 5, 61, 99
6, 69800, Note_on_c, 5, 66, 99
6, 69880, Note_on_c, 5, 56, 0
6, 69884, Note_on_c, 5, 61, 0
6, 69888, Note_on_c, 5, 56, 99
6, 69889, Note_on_c, 5, 66, 0
6, 69892, Note_on_c, 5, 61, 99
6, 69896, Note_on_c, 5, 65, 91
6, 69976, Note_on_c, 5, 56, 0
6, 69980, Note_on_c, 5, 61, 0
6, 69984, Note_on_c, 5, 65, 0
6, 69984, Note_on_c, 5, 56, 95
6, 69988, Note_on_c, 5, 61, 99
6, 69992, Note_on_c, 5, 65, 99
6, 70072, Note_on_c, 5, 56, 0
6, 70076, Note_on_c, 5, 61, 0
6, 70080, Note_on_c, 5, 65, 0
6, 70080, Note_on_c, 5, 56, 92
6, 70084, Note_on_c, 5, 61, 99
6, 70088, Note_on_c, 5, 65, 99
6, 70168, Note_on_c, 5, 56, 0
6, 70172, Note_on_c, 5, 61, 0
6, 70176, Note_on_c, 5, 65, 0
6, 70176, Note_on_c, 5, 56, 99
6, 70180, Note_on_c, 5, 61, 99
6, 70184, Note_on_c, 5, 65, 99
6, 70264, Note_on_c, 5, 56, 0
6, 70268, Note_on_c, 5, 61, 0
6, 70272, Note_on_c, 5, 65, 0
6, 70272, Note_on_c, 5, 56, 92
6, 70276, Note_on_c, 5, 61, 99
6, 70280, Note_on_c, 5, 65, 99
6, 70360, Note_on_c, 5, 56, 0
6, 70364, Note_on_c, 5, 61, 0
6, 70368, Note_on_c, 5, 65, 0
6, 70368, Note_on_c, 5, 56, 92
6, 70372, Note_on_c, 5, 61, 99
6, 70376, Note_on_c, 5, 65, 99
6, 70456, Note_on_c, 5, 56, 0
6, 70460, Note_on_c, 5, 61, 0
6, 70464, Note_on_c, 5, 65, 0
6, 70464, Note_on_c, 5, 56, 91
6, 70468, Note_on_c, 5, 61, 99
6, 70472, Note_on_c, 5, 65, 99
6, 70552, Note_on_c, 5, 56, 0
6, 70556, Note_on_c, 5, 61, 0
6, 70560, Note_on_c, 5, 65, 0
6, 70560, Note_on_c, 5, 56, 91
6, 70564, Note_on_c, 5, 61, 95
6, 70568, Note_on_c, 5, 65, 95
6, 70648, Note_on_c, 5, 56, 0
6, 70652, Note_on_c, 5, 61, 0
6, 70656, Note_on_c, 5, 56, 99
6, 70657, Note_on_c, 5, 65, 0
6, 70660, Note_on_c, 5, 61, 99
6, 70664, Note_on_c, 5, 66, 99
6, 70744, Note_on_c, 5, 56, 0
6, 70748, Note_on_c, 5, 61, 0
6, 70752, Note_on_c, 5, 66, 0
6, 70752, Note_on_c, 5, 56, 95
6, 70756, Note_on_c, 5, 61, 99
6, 70760, Note_on_c, 5, 66, 95
6, 70840, Note_on_c, 5, 56, 0
6, 70844, Note_on_c, 5, 61, 0
6, 70848, Note_on_c, 5, 66, 0
6, 70848, Note_on_c, 5, 56, 99
6, 70852, Note_on_c, 5, 61, 99
6, 70856, Note_on_c, 5, 66, 99
6, 70936, Note_on_c, 5, 56, 0
6, 70940, Note_on_c, 5, 61, 0
6, 70944, Note_on_c, 5, 66, 0
6, 70944, Note_on_c, 5, 56, 95
6, 70948, Note_on_c, 5, 61, 99
6, 70952, Note_on_c, 5, 66, 95
6, 71032, Note_on_c, 5, 56, 0
6, 71036, Note_on_c, 5, 61, 0
6, 71040, Note_on_c, 5, 66, 0
6, 71040, Note_on_c, 5, 56, 99
6, 71044, Note_on_c, 5, 61, 99
6, 71048, Note_on_c, 5, 66, 99
6, 71128, Note_on_c, 5, 56, 0
6, 71132, Note_on_c, 5, 61, 0
6, 71136, Note_on_c, 5, 66, 0
6, 71136, Note_on_c, 5, 56, 95
6, 71140, Note_on_c, 5, 61, 95
6, 71144, Note_on_c, 5, 66, 99
6, 71224, Note_on_c, 5, 56, 0
6, 71228, Note_on_c, 5, 61, 0
6, 71232, Note_on_c, 5, 66, 0
6, 71232, Note_on_c, 5, 56, 99
6, 71236, Note_on_c, 5, 61, 99
6, 71240, Note_on_c, 5, 66, 99
6, 71320, Note_on_c, 5, 56, 0
6, 71324, Note_on_c, 5, 61, 0
6, 71328, Note_on_c, 5, 66, 0
6, 71328, Note_on_c, 5, 56, 99
6, 71332, Note_on_c, 5, 61, 99
6, 71336, Note_on_c, 5, 66, 95
6, 71416, Note_on_c, 5, 56, 0
6, 71420, Note_on_c, 5, 61, 0
6, 71424, Note_on_c, 5, 66, 0
6, 71424, End_track
7, 0, Start_track
7, 0, MIDI_port, 0
7, 0, Title_t, "Clean Guitar        "
7, 192, Control_c, 6, 7, 95
7, 192, Control_c, 6, 10, 40
7, 192, Program_c, 6, 21
7, 2496, Note_on_c, 6, 56, 100
7, 2546, Note_on_c, 6, 56, 0
7, 2592, Note_on_c, 6, 56, 96
7, 2686, Note_on_c, 6, 56, 0
7, 2688, Note_on_c, 6, 59, 96
7, 2782, Note_on_c, 6, 59, 0
7, 2784, Note_on_c, 6, 61, 96
7, 2866, Note_on_c, 6, 61, 0
7, 2880, Note_on_c, 6, 59, 96
7, 2975, Note_on_c, 6, 59, 0
7, 2976, Note_on_c, 6, 61, 104
7, 3089, Note_on_c, 6, 61, 0
7, 3264, Note_on_c, 6, 56, 96
7, 3306, Note_on_c, 6, 56, 0
7, 3360, Note_on_c, 6, 56, 92
7, 3450, Note_on_c, 6, 56, 0
7, 3456, Note_on_c, 6, 59, 100
7, 3552, Note_on_c, 6, 61, 96
7, 3554, Note_on_c, 6, 59, 0
7, 3640, Note_on_c, 6, 61, 0
7, 3648, Note_on_c, 6, 59, 100
7, 3744, Note_on_c, 6, 61, 113
7, 3752, Note_on_c, 6, 59, 0
7, 3837, Note_on_c, 6, 61, 0
7, 4032, Note_on_c, 6, 73, 111
7, 4036, Note_on_c, 6, 68, 111
7, 4120, Note_on_c, 6, 73, 0
7, 4124, Note_on_c, 6, 68, 0
7, 4416, Note_on_c, 6, 73, 111
7, 4420, Note_on_c, 6, 68, 111
7, 4504, Note_on_c, 6, 73, 0
7, 4508, Note_on_c, 6, 68, 0
7, 4800, Note_on_c, 6, 71, 111
7, 4804, Note_on_c, 6, 66, 111
7, 4888, Note_on_c, 6, 71, 0
7, 4892, Note_on_c, 6, 66, 0
7, 5184, Note_on_c, 6, 71, 111
7, 5188, Note_on_c, 6, 66, 111
7, 5272, Note_on_c, 6, 71, 0
7, 5276, Note_on_c, 6, 66, 0
7, 5568, Note_on_c, 6, 73, 111
7, 5572, Note_on_c, 6, 68, 111
7, 5656, Note_on_c, 6, 73, 0
7, 5660, Note_on_c, 6, 68, 0
7, 5952, Note_on_c, 6, 73, 111
7, 5956, Note_on_c, 6, 68, 111
7, 6040, Note_on_c, 6, 73, 0
7, 6044, Note_on_c, 6, 68, 0
7, 6336, Note_on_c, 6, 71, 111
7, 6340, Note_on_c, 6, 66, 111
7, 6424, Note_on_c, 6, 71, 0
7, 6428, Note_on_c, 6, 66, 0
7, 6720, Note_on_c, 6, 71, 111
7, 6724, Note_on_c, 6, 66, 111
7, 6808, Note_on_c, 6, 71, 0
7, 6812, Note_on_c, 6, 66, 0
7, 7104, Note_on_c, 6, 73, 111
7, 7108, Note_on_c, 6, 68, 111
7, 7192, Note_on_c, 6, 73, 0
7, 7196, Note_on_c, 6, 68, 0
7, 7488, Note_on_c, 6, 73, 111
7, 7492, Note_on_c, 6, 68, 111
7, 7576, Note_on_c, 6, 73, 0
7, 7580, Note_on_c, 6, 68, 0
7, 7872, Note_on_c, 6, 71, 111
7, 7876, Note_on_c, 6, 66, 111
7, 7960, Note_on_c, 6, 71, 0
7, 7964, Note_on_c, 6, 66, 0
7, 8256, Note_on_c, 6, 71, 111
7, 8260, Note_on_c, 6, 66, 111
7, 8344, Note_on_c, 6, 71, 0
7, 8348, Note_on_c, 6, 66, 0
7, 8640, Note_on_c, 6, 73, 111
7, 8644, Note_on_c, 6, 68, 111
7, 8728, Note_on_c, 6, 73, 0
7, 8732, Note_on_c, 6, 68, 0
7, 9024, Note_on_c, 6, 73, 111
7, 9028, Note_on_c, 6, 68, 111
7, 9112, Note_on_c, 6, 73, 0
7, 9116, Note_on_c, 6, 68, 0
7, 9408, Note_on_c, 6, 71, 111
7, 9412, Note_on_c, 6, 66, 111
7, 9496, Note_on_c, 6, 71, 0
7, 9500, Note_on_c, 6, 66, 0
7, 9792, Note_on_c, 6, 71, 111
7, 9796, Note_on_c, 6, 66, 111
7, 9880, Note_on_c, 6, 71, 0
7, 9884, Note_on_c, 6, 66, 0
7, 10176, Note_on_c, 6, 73, 111
7, 10180, Note_on_c, 6, 68, 111
7, 10264, Note_on_c, 6, 73, 0
7, 10268, Note_on_c, 6, 68, 0
7, 10560, Note_on_c, 6, 73, 111
7, 10564, Note_on_c, 6, 68, 111
7, 10648, Note_on_c, 6, 73, 0
7, 10652, Note_on_c, 6, 68, 0
7, 10944, Note_on_c, 6, 71, 111
7, 10948, Note_on_c, 6, 66, 111
7, 11032, Note_on_c, 6, 71, 0
7, 11036, Note_on_c, 6, 66, 0
7, 11328, Note_on_c, 6, 71, 111
7, 11332, Note_on_c, 6, 66, 111
7, 11416, Note_on_c, 6, 71, 0
7, 11420, Note_on_c, 6, 66, 0
7, 11712, Note_on_c, 6, 73, 111
7, 11716, Note_on_c, 6, 68, 111
7, 11800, Note_on_c, 6, 73, 0
7, 11804, Note_on_c, 6, 68, 0
7, 12096, Note_on_c, 6, 73, 111
7, 12100, Note_on_c, 6, 68, 111
7, 12184, Note_on_c, 6, 73, 0
7, 12188, Note_on_c, 6, 68, 0
7, 12480, Note_on_c, 6, 71, 111
7, 12484, Note_on_c, 6, 66, 111
7, 12568, Note_on_c, 6, 71, 0
7, 12572, Note_on_c, 6, 66, 0
7, 12864, Note_on_c, 6, 71, 111
7, 12868, Note_on_c, 6, 66, 111
7, 12952, Note_on_c, 6, 71, 0
7, 12956, Note_on_c, 6, 66, 0
7, 13248, Note_on_c, 6, 73, 111
7, 13252, Note_on_c, 6, 68, 111
7, 13336, Note_on_c, 6, 73, 0
7, 13340, Note_on_c, 6, 68, 0
7, 13632, Note_on_c, 6, 73, 111
7, 13636, Note_on_c, 6, 68, 111
7, 13720, Note_on_c, 6, 73, 0
7, 13724, Note_on_c, 6, 68, 0
7, 14016, Note_on_c, 6, 71, 111
7, 14020, Note_on_c, 6, 66, 111
7, 14104, Note_on_c, 6, 71, 0
7, 14108, Note_on_c, 6, 66, 0
7, 14400, Note_on_c, 6, 71, 111
7, 14404, Note_on_c, 6, 66, 111
7, 14488, Note_on_c, 6, 71, 0
7, 14492, Note_on_c, 6, 66, 0
7, 14784, Note_on_c, 6, 73, 111
7, 14788, Note_on_c, 6, 68, 111
7, 14872, Note_on_c, 6, 73, 0
7, 14876, Note_on_c, 6, 68, 0
7, 15168, Note_on_c, 6, 73, 111
7, 15172, Note_on_c, 6, 68, 111
7, 15256, Note_on_c, 6, 73, 0
7, 15260, Note_on_c, 6, 68, 0
7, 15552, Note_on_c, 6, 71, 111
7, 15556, Note_on_c, 6, 66, 111
7, 15640, Note_on_c, 6, 71, 0
7, 15644, Note_on_c, 6, 66, 0
7, 15936, Note_on_c, 6, 71, 111
7, 15940, Note_on_c, 6, 66, 111
7, 16024, Note_on_c, 6, 71, 0
7, 16028, Note_on_c, 6, 66, 0
7, 16320, Note_on_c, 6, 73, 111
7, 16324, Note_on_c, 6, 68, 111
7, 16408, Note_on_c, 6, 73, 0
7, 16412, Note_on_c, 6, 68, 0
7, 16704, Note_on_c, 6, 73, 111
7, 16708, Note_on_c, 6, 68, 111
7, 16792, Note_on_c, 6, 73, 0
7, 16796, Note_on_c, 6, 68, 0
7, 17088, Note_on_c, 6, 71, 111
7, 17092, Note_on_c, 6, 66, 111
7, 17176, Note_on_c, 6, 71, 0
7, 17180, Note_on_c, 6, 66, 0
7, 17472, Note_on_c, 6, 71, 111
7, 17476, Note_on_c, 6, 66, 111
7, 17560, Note_on_c, 6, 71, 0
7, 17564, Note_on_c, 6, 66, 0
7, 17856, Note_on_c, 6, 73, 111
7, 17860, Note_on_c, 6, 68, 111
7, 17944, Note_on_c, 6, 73, 0
7, 17948, Note_on_c, 6, 68, 0
7, 18240, Note_on_c, 6, 73, 111
7, 18244, Note_on_c, 6, 68, 111
7, 18328, Note_on_c, 6, 73, 0
7, 18332, Note_on_c, 6, 68, 0
7, 18624, Note_on_c, 6, 71, 111
7, 18628, Note_on_c, 6, 66, 111
7, 18712, Note_on_c, 6, 71, 0
7, 18716, Note_on_c, 6, 66, 0
7, 19008, Note_on_c, 6, 71, 111
7, 19012, Note_on_c, 6, 66, 111
7, 19096, Note_on_c, 6, 71, 0
7, 19100, Note_on_c, 6, 66, 0
7, 19392, Note_on_c, 6, 73, 111
7, 19396, Note_on_c, 6, 68, 111
7, 19480, Note_on_c, 6, 73, 0
7, 19484, Note_on_c, 6, 68, 0
7, 19776, Note_on_c, 6, 73, 111
7, 19780, Note_on_c, 6, 68, 111
7, 19864, Note_on_c, 6, 73, 0
7, 19868, Note_on_c, 6, 68, 0
7, 20160, Note_on_c, 6, 71, 111
7, 20164, Note_on_c, 6, 66, 111
7, 20248, Note_on_c, 6, 71, 0
7, 20252, Note_on_c, 6, 66, 0
7, 20544, Note_on_c, 6, 71, 111
7, 20548, Note_on_c, 6, 66, 111
7, 20632, Note_on_c, 6, 71, 0
7, 20636, Note_on_c, 6, 66, 0
7, 20928, Note_on_c, 6, 73, 111
7, 20932, Note_on_c, 6, 68, 111
7, 21016, Note_on_c, 6, 73, 0
7, 21020, Note_on_c, 6, 68, 0
7, 21312, Note_on_c, 6, 73, 111
7, 21316, Note_on_c, 6, 68, 111
7, 21400, Note_on_c, 6, 73, 0
7, 21404, Note_on_c, 6, 68, 0
7, 21696, Note_on_c, 6, 71, 111
7, 21700, Note_on_c, 6, 66, 111
7, 21784, Note_on_c, 6, 71, 0
7, 21788, Note_on_c, 6, 66, 0
7, 22080, Note_on_c, 6, 71, 111
7, 22084, Note_on_c, 6, 66, 111
7, 22168, Note_on_c, 6, 71, 0
7, 22172, Note_on_c, 6, 66, 0
7, 22464, Note_on_c, 6, 73, 111
7, 22468, Note_on_c, 6, 68, 111
7, 22552, Note_on_c, 6, 73, 0
7, 22556, Note_on_c, 6, 68, 0
7, 22848, Note_on_c, 6, 73, 111
7, 22852, Note_on_c, 6, 68, 111
7, 22936, Note_on_c, 6, 73, 0
7, 22940, Note_on_c, 6, 68, 0
7, 23232, Note_on_c, 6, 71, 111
7, 23236, Note_on_c, 6, 66, 111
7, 23320, Note_on_c, 6, 71, 0
7, 23324, Note_on_c, 6, 66, 0
7, 23616, Note_on_c, 6, 71, 111
7, 23620, Note_on_c, 6, 66, 111
7, 23704, Note_on_c, 6, 71, 0
7, 23708, Note_on_c, 6, 66, 0
7, 24000, Note_on_c, 6, 73, 111
7, 24004, Note_on_c, 6, 68, 111
7, 24088, Note_on_c, 6, 73, 0
7, 24092, Note_on_c, 6, 68, 0
7, 24384, Note_on_c, 6, 73, 111
7, 24388, Note_on_c, 6, 68, 111
7, 24472, Note_on_c, 6, 73, 0
7, 24476, Note_on_c, 6, 68, 0
7, 24768, Note_on_c, 6, 71, 111
7, 24772, Note_on_c, 6, 66, 111
7, 24856, Note_on_c, 6, 71, 0
7, 24860, Note_on_c, 6, 66, 0
7, 25152, Note_on_c, 6, 71, 111
7, 25156, Note_on_c, 6, 66, 111
7, 25240, Note_on_c, 6, 71, 0
7, 25244, Note_on_c, 6, 66, 0
7, 25536, Note_on_c, 6, 73, 111
7, 25540, Note_on_c, 6, 68, 111
7, 25624, Note_on_c, 6, 73, 0
7, 25628, Note_on_c, 6, 68, 0
7, 25920, Note_on_c, 6, 73, 111
7, 25924, Note_on_c, 6, 68, 111
7, 26008, Note_on_c, 6, 73, 0
7, 26012, Note_on_c, 6, 68, 0
7, 26304, Note_on_c, 6, 71, 111
7, 26308, Note_on_c, 6, 66, 111
7, 26392, Note_on_c, 6, 71, 0
7, 26396, Note_on_c, 6, 66, 0
7, 26688, Note_on_c, 6, 71, 111
7, 26692, Note_on_c, 6, 66, 111
7, 26776, Note_on_c, 6, 71, 0
7, 26780, Note_on_c, 6, 66, 0
7, 27072, Note_on_c, 6, 73, 111
7, 27076, Note_on_c, 6, 68, 111
7, 27160, Note_on_c, 6, 73, 0
7, 27164, Note_on_c, 6, 68, 0
7, 27456, Note_on_c, 6, 73, 111
7, 27460, Note_on_c, 6, 68, 111
7, 27544, Note_on_c, 6, 73, 0
7, 27548, Note_on_c, 6, 68, 0
7, 27840, Note_on_c, 6, 71, 111
7, 27844, Note_on_c, 6, 66, 111
7, 27928, Note_on_c, 6, 71, 0
7, 27932, Note_on_c, 6, 66, 0
7, 28224, Note_on_c, 6, 71, 111
7, 28228, Note_on_c, 6, 66, 111
7, 28312, Note_on_c, 6, 71, 0
7, 28316, Note_on_c, 6, 66, 0
7, 28608, Note_on_c, 6, 73, 111
7, 28612, Note_on_c, 6, 68, 111
7, 28696, Note_on_c, 6, 73, 0
7, 28700, Note_on_c, 6, 68, 0
7, 28992, Note_on_c, 6, 73, 111
7, 28996, Note_on_c, 6, 68, 111
7, 29080, Note_on_c, 6, 73, 0
7, 29084, Note_on_c, 6, 68, 0
7, 29376, Note_on_c, 6, 71, 111
7, 29380, Note_on_c, 6, 66, 111
7, 29464, Note_on_c, 6, 71, 0
7, 29468, Note_on_c, 6, 66, 0
7, 29760, Note_on_c, 6, 71, 111
7, 29764, Note_on_c, 6, 66, 111
7, 29848, Note_on_c, 6, 71, 0
7, 29852, Note_on_c, 6, 66, 0
7, 30144, Note_on_c, 6, 73, 111
7, 30148, Note_on_c, 6, 68, 111
7, 30232, Note_on_c, 6, 73, 0
7, 30236, Note_on_c, 6, 68, 0
7, 30528, Note_on_c, 6, 73, 111
7, 30532, Note_on_c, 6, 68, 111
7, 30616, Note_on_c, 6, 73, 0
7, 30620, Note_on_c, 6, 68, 0
7, 30912, Note_on_c, 6, 71, 111
7, 30916, Note_on_c, 6, 66, 111
7, 31000, Note_on_c, 6, 71, 0
7, 31004, Note_on_c, 6, 66, 0
7, 31296, Note_on_c, 6, 71, 111
7, 31300, Note_on_c, 6, 66, 111
7, 31384, Note_on_c, 6, 71, 0
7, 31388, Note_on_c, 6, 66, 0
7, 31680, Note_on_c, 6, 73, 111
7, 31684, Note_on_c, 6, 68, 111
7, 31768, Note_on_c, 6, 73, 0
7, 31772, Note_on_c, 6, 68, 0
7, 32064, Note_on_c, 6, 73, 111
7, 32068, Note_on_c, 6, 68, 111
7, 32152, Note_on_c, 6, 73, 0
7, 32156, Note_on_c, 6, 68, 0
7, 32448, Note_on_c, 6, 71, 111
7, 32452, Note_on_c, 6, 66, 111
7, 32536, Note_on_c, 6, 71, 0
7, 32540, Note_on_c, 6, 66, 0
7, 32832, Note_on_c, 6, 71, 111
7, 32836, Note_on_c, 6, 66, 111
7, 32920, Note_on_c, 6, 71, 0
7, 32924, Note_on_c, 6, 66, 0
7, 33216, Note_on_c, 6, 73, 111
7, 33220, Note_on_c, 6, 68, 111
7, 33304, Note_on_c, 6, 73, 0
7, 33308, Note_on_c, 6, 68, 0
7, 33600, Note_on_c, 6, 73, 111
7, 33604, Note_on_c, 6, 68, 111
7, 33688, Note_on_c, 6, 73, 0
7, 33692, Note_on_c, 6, 68, 0
7, 33984, Note_on_c, 6, 71, 111
7, 33988, Note_on_c, 6, 66, 111
7, 34072, Note_on_c, 6, 71, 0
7, 34076, Note_on_c, 6, 66, 0
7, 34368, Note_on_c, 6, 71, 111
7, 34372, Note_on_c, 6, 66, 111
7, 34456, Note_on_c, 6, 71, 0
7, 34460, Note_on_c, 6, 66, 0
7, 34752, Note_on_c, 6, 73, 111
7, 34756, Note_on_c, 6, 68, 111
7, 34840, Note_on_c, 6, 73, 0
7, 34844, Note_on_c, 6, 68, 0
7, 35136, Note_on_c, 6, 73, 111
7, 35140, Note_on_c, 6, 68, 111
7, 35224, Note_on_c, 6, 73, 0
7, 35228, Note_on_c, 6, 68, 0
7, 35520, Note_on_c, 6, 71, 111
7, 35524, Note_on_c, 6, 66, 111
7, 35608, Note_on_c, 6, 71, 0
7, 35612, Note_on_c, 6, 66, 0
7, 35904, Note_on_c, 6, 71, 111
7, 35908, Note_on_c, 6, 66, 111
7, 35992, Note_on_c, 6, 71, 0
7, 35996, Note_on_c, 6, 66, 0
7, 36288, Note_on_c, 6, 73, 111
7, 36292, Note_on_c, 6, 68, 111
7, 36376, Note_on_c, 6, 73, 0
7, 36380, Note_on_c, 6, 68, 0
7, 36672, Note_on_c, 6, 73, 111
7, 36676, Note_on_c, 6, 68, 111
7, 36760, Note_on_c, 6, 73, 0
7, 36764, Note_on_c, 6, 68, 0
7, 37056, Note_on_c, 6, 71, 111
7, 37060, Note_on_c, 6, 66, 111
7, 37144, Note_on_c, 6, 71, 0
7, 37148, Note_on_c, 6, 66, 0
7, 37440, Note_on_c, 6, 71, 111
7, 37444, Note_on_c, 6, 66, 111
7, 37528, Note_on_c, 6, 71, 0
7, 37532, Note_on_c, 6, 66, 0
7, 37824, Note_on_c, 6, 73, 111
7, 37828, Note_on_c, 6, 68, 111
7, 37912, Note_on_c, 6, 73, 0
7, 37916, Note_on_c, 6, 68, 0
7, 38208, Note_on_c, 6, 73, 111
7, 38212, Note_on_c, 6, 68, 111
7, 38296, Note_on_c, 6, 73, 0
7, 38300, Note_on_c, 6, 68, 0
7, 38592, Note_on_c, 6, 71, 111
7, 38596, Note_on_c, 6, 66, 111
7, 38680, Note_on_c, 6, 71, 0
7, 38684, Note_on_c, 6, 66, 0
7, 38976, Note_on_c, 6, 71, 111
7, 38980, Note_on_c, 6, 66, 111
7, 39064, Note_on_c, 6, 71, 0
7, 39068, Note_on_c, 6, 66, 0
7, 39360, Note_on_c, 6, 73, 111
7, 39364, Note_on_c, 6, 68, 111
7, 39448, Note_on_c, 6, 73, 0
7, 39452, Note_on_c, 6, 68, 0
7, 39744, Note_on_c, 6, 73, 111
7, 39748, Note_on_c, 6, 68, 111
7, 39832, Note_on_c, 6, 73, 0
7, 39836, Note_on_c, 6, 68, 0
7, 40128, Note_on_c, 6, 71, 111
7, 40132, Note_on_c, 6, 66, 111
7, 40216, Note_on_c, 6, 71, 0
7, 40220, Note_on_c, 6, 66, 0
7, 40512, Note_on_c, 6, 71, 111
7, 40516, Note_on_c, 6, 66, 111
7, 40600, Note_on_c, 6, 71, 0
7, 40604, Note_on_c, 6, 66, 0
7, 40896, Note_on_c, 6, 73, 111
7, 40900, Note_on_c, 6, 68, 111
7, 40984, Note_on_c, 6, 73, 0
7, 40988, Note_on_c, 6, 68, 0
7, 41280, Note_on_c, 6, 73, 111
7, 41284, Note_on_c, 6, 68, 111
7, 41368, Note_on_c, 6, 73, 0
7, 41372, Note_on_c, 6, 68, 0
7, 41664, Note_on_c, 6, 71, 111
7, 41668, Note_on_c, 6, 66, 111
7, 41752, Note_on_c, 6, 71, 0
7, 41756, Note_on_c, 6, 66, 0
7, 42048, Note_on_c, 6, 71, 111
7, 42052, Note_on_c, 6, 66, 111
7, 42136, Note_on_c, 6, 71, 0
7, 42140, Note_on_c, 6, 66, 0
7, 42432, Note_on_c, 6, 73, 111
7, 42436, Note_on_c, 6, 68, 111
7, 42520, Note_on_c, 6, 73, 0
7, 42524, Note_on_c, 6, 68, 0
7, 42816, Note_on_c, 6, 73, 111
7, 42820, Note_on_c, 6, 68, 111
7, 42904, Note_on_c, 6, 73, 0
7, 42908, Note_on_c, 6, 68, 0
7, 43200, Note_on_c, 6, 71, 111
7, 43204, Note_on_c, 6, 66, 111
7, 43288, Note_on_c, 6, 71, 0
7, 43292, Note_on_c, 6, 66, 0
7, 43584, Note_on_c, 6, 71, 111
7, 43588, Note_on_c, 6, 66, 111
7, 43672, Note_on_c, 6, 71, 0
7, 43676, Note_on_c, 6, 66, 0
7, 43968, Note_on_c, 6, 73, 111
7, 43972, Note_on_c, 6, 68, 111
7, 44056, Note_on_c, 6, 73, 0
7, 44060, Note_on_c, 6, 68, 0
7, 44352, Note_on_c, 6, 73, 111
7, 44356, Note_on_c, 6, 68, 111
7, 44440, Note_on_c, 6, 73, 0
7, 44444, Note_on_c, 6, 68, 0
7, 44736, Note_on_c, 6, 71, 111
7, 44740, Note_on_c, 6, 66, 111
7, 44824, Note_on_c, 6, 71, 0
7, 44828, Note_on_c, 6, 66, 0
7, 45120, Note_on_c, 6, 71, 111
7, 45124, Note_on_c, 6, 66, 111
7, 45208, Note_on_c, 6, 71, 0
7, 45212, Note_on_c, 6, 66, 0
7, 45504, Note_on_c, 6, 73, 111
7, 45508, Note_on_c, 6, 68, 111
7, 45592, Note_on_c, 6, 73, 0
7, 45596, Note_on_c, 6, 68, 0
7, 45888, Note_on_c, 6, 73, 111
7, 45892, Note_on_c, 6, 68, 111
7, 45976, Note_on_c, 6, 73, 0
7, 45980, Note_on_c, 6, 68, 0
7, 46272, Note_on_c, 6, 71, 111
7, 46276, Note_on_c, 6, 66, 111
7, 46360, Note_on_c, 6, 71, 0
7, 46364, Note_on_c, 6, 66, 0
7, 46656, Note_on_c, 6, 71, 111
7, 46660, Note_on_c, 6, 66, 111
7, 46744, Note_on_c, 6, 71, 0
7, 46748, Note_on_c, 6, 66, 0
7, 47040, Note_on_c, 6, 73, 111
7, 47044, Note_on_c, 6, 68, 111
7, 47128, Note_on_c, 6, 73, 0
7, 47132, Note_on_c, 6, 68, 0
7, 47424, Note_on_c, 6, 73, 111
7, 47428, Note_on_c, 6, 68, 111
7, 47512, Note_on_c, 6, 73, 0
7, 47516, Note_on_c, 6, 68, 0
7, 47808, Note_on_c, 6, 71, 111
7, 47812, Note_on_c, 6, 66, 111
7, 47896, Note_on_c, 6, 71, 0
7, 47900, Note_on_c, 6, 66, 0
7, 48192, Note_on_c, 6, 71, 111
7, 48196, Note_on_c, 6, 66, 111
7, 48280, Note_on_c, 6, 71, 0
7, 48284, Note_on_c, 6, 66, 0
7, 48576, Note_on_c, 6, 73, 111
7, 48580, Note_on_c, 6, 68, 111
7, 48664, Note_on_c, 6, 73, 0
7, 48668, Note_on_c, 6, 68, 0
7, 48960, Note_on_c, 6, 73, 111
7, 48964, Note_on_c, 6, 68, 111
7, 49048, Note_on_c, 6, 73, 0
7, 49052, Note_on_c, 6, 68, 0
7, 49344, Note_on_c, 6, 71, 111
7, 49348, Note_on_c, 6, 66, 111
7, 49432, Note_on_c, 6, 71, 0
7, 49436, Note_on_c, 6, 66, 0
7, 49728, Note_on_c, 6, 71, 111
7, 49732, Note_on_c, 6, 66, 111
7, 49816, Note_on_c, 6, 71, 0
7, 49820, Note_on_c, 6, 66, 0
7, 50112, Note_on_c, 6, 73, 111
7, 50116, Note_on_c, 6, 68, 111
7, 50200, Note_on_c, 6, 73, 0
7, 50204, Note_on_c, 6, 68, 0
7, 50496, Note_on_c, 6, 73, 111
7, 50500, Note_on_c, 6, 68, 111
7, 50584, Note_on_c, 6, 73, 0
7, 50588, Note_on_c, 6, 68, 0
7, 50880, Note_on_c, 6, 71, 111
7, 50884, Note_on_c, 6, 66, 111
7, 50968, Note_on_c, 6, 71, 0
7, 50972, Note_on_c, 6, 66, 0
7, 51264, Note_on_c, 6, 71, 111
7, 51268, Note_on_c, 6, 66, 111
7, 51352, Note_on_c, 6, 71, 0
7, 51356, Note_on_c, 6, 66, 0
7, 51648, Note_on_c, 6, 73, 111
7, 51652, Note_on_c, 6, 68, 111
7, 51736, Note_on_c, 6, 73, 0
7, 51740, Note_on_c, 6, 68, 0
7, 52032, Note_on_c, 6, 73, 111
7, 52036, Note_on_c, 6, 68, 111
7, 52120, Note_on_c, 6, 73, 0
7, 52124, Note_on_c, 6, 68, 0
7, 52416, Note_on_c, 6, 71, 111
7, 52420, Note_on_c, 6, 66, 111
7, 52504, Note_on_c, 6, 71, 0
7, 52508, Note_on_c, 6, 66, 0
7, 52800, Note_on_c, 6, 71, 111
7, 52804, Note_on_c, 6, 66, 111
7, 52888, Note_on_c, 6, 71, 0
7, 52892, Note_on_c, 6, 66, 0
7, 53184, Note_on_c, 6, 73, 111
7, 53188, Note_on_c, 6, 68, 111
7, 53272, Note_on_c, 6, 73, 0
7, 53276, Note_on_c, 6, 68, 0
7, 53568, Note_on_c, 6, 73, 111
7, 53572, Note_on_c, 6, 68, 111
7, 53656, Note_on_c, 6, 73, 0
7, 53660, Note_on_c, 6, 68, 0
7, 53952, Note_on_c, 6, 71, 111
7, 53956, Note_on_c, 6, 66, 111
7, 54040, Note_on_c, 6, 71, 0
7, 54044, Note_on_c, 6, 66, 0
7, 54336, Note_on_c, 6, 71, 111
7, 54340, Note_on_c, 6, 66, 111
7, 54424, Note_on_c, 6, 71, 0
7, 54428, Note_on_c, 6, 66, 0
7, 54720, Note_on_c, 6, 73, 111
7, 54724, Note_on_c, 6, 68, 111
7, 54808, Note_on_c, 6, 73, 0
7, 54812, Note_on_c, 6, 68, 0
7, 55104, Note_on_c, 6, 73, 111
7, 55108, Note_on_c, 6, 68, 111
7, 55192, Note_on_c, 6, 73, 0
7, 55196, Note_on_c, 6, 68, 0
7, 55488, Note_on_c, 6, 71, 111
7, 55492, Note_on_c, 6, 66, 111
7, 55576, Note_on_c, 6, 71, 0
7, 55580, Note_on_c, 6, 66, 0
7, 55872, Note_on_c, 6, 71, 111
7, 55876, Note_on_c, 6, 66, 111
7, 55960, Note_on_c, 6, 71, 0
7, 55964, Note_on_c, 6, 66, 0
7, 56256, Note_on_c, 6, 73, 111
7, 56260, Note_on_c, 6, 68, 111
7, 56344, Note_on_c, 6, 73, 0
7, 56348, Note_on_c, 6, 68, 0
7, 56640, Note_on_c, 6, 73, 111
7, 56644, Note_on_c, 6, 68, 111
7, 56728, Note_on_c, 6, 73, 0
7, 56732, Note_on_c, 6, 68, 0
7, 57024, Note_on_c, 6, 71, 111
7, 57028, Note_on_c, 6, 66, 111
7, 57112, Note_on_c, 6, 71, 0
7, 57116, Note_on_c, 6, 66, 0
7, 57408, Note_on_c, 6, 71, 111
7, 57412, Note_on_c, 6, 66, 111
7, 57496, Note_on_c, 6, 71, 0
7, 57500, Note_on_c, 6, 66, 0
7, 57792, Note_on_c, 6, 73, 111
7, 57796, Note_on_c, 6, 68, 111
7, 57880, Note_on_c, 6, 73, 0
7, 57884, Note_on_c, 6, 68, 0
7, 58176, Note_on_c, 6, 73, 111
7, 58180, Note_on_c, 6, 68, 111
7, 58264, Note_on_c, 6, 73, 0
7, 58268, Note_on_c, 6, 68, 0
7, 58560, Note_on_c, 6, 71, 111
7, 58564, Note_on_c, 6, 66, 111
7, 58648, Note_on_c, 6, 71, 0
7, 58652, Note_on_c, 6, 66, 0
7, 58944, Note_on_c, 6, 71, 111
7, 58948, Note_on_c, 6, 66, 111
7, 59032, Note_on_c, 6, 71, 0
7, 59036, Note_on_c, 6, 66, 0
7, 59328, Note_on_c, 6, 73, 111
7, 59332, Note_on_c, 6, 68, 111
7, 59416, Note_on_c, 6, 73, 0
7, 59420, Note_on_c, 6, 68, 0
7, 59712, Note_on_c, 6, 73, 111
7, 59716, Note_on_c, 6, 68, 111
7, 59800, Note_on_c, 6, 73, 0
7, 59804, Note_on_c, 6, 68, 0
7, 60096, Note_on_c, 6, 71, 111
7, 60100, Note_on_c, 6, 66, 111
7, 60184, Note_on_c, 6, 71, 0
7, 60188, Note_on_c, 6, 66, 0
7, 60480, Note_on_c, 6, 71, 111
7, 60484, Note_on_c, 6, 66, 111
7, 60568, Note_on_c, 6, 71, 0
7, 60572, Note_on_c, 6, 66, 0
7, 60864, Note_on_c, 6, 73, 111
7, 60868, Note_on_c, 6, 68, 111
7, 60952, Note_on_c, 6, 73, 0
7, 60956, Note_on_c, 6, 68, 0
7, 61248, Note_on_c, 6, 73, 111
7, 61252, Note_on_c, 6, 68, 111
7, 61336, Note_on_c, 6, 73, 0
7, 61340, Note_on_c, 6, 68, 0
7, 61632, Note_on_c, 6, 71, 111
7, 61636, Note_on_c, 6, 66, 111
7, 61720, Note_on_c, 6, 71, 0
7, 61724, Note_on_c, 6, 66, 0
7, 62016, Note_on_c, 6, 71, 111
7, 62020, Note_on_c, 6, 66, 111
7, 62104, Note_on_c, 6, 71, 0
7, 62108, Note_on_c, 6, 66, 0
7, 62400, Note_on_c, 6, 73, 111
7, 62404, Note_on_c, 6, 68, 111
7, 62488, Note_on_c, 6, 73, 0
7, 62492, Note_on_c, 6, 68, 0
7, 62784, Note_on_c, 6, 73, 111
7, 62788, Note_on_c, 6, 68, 111
7, 62872, Note_on_c, 6, 73, 0
7, 62876, Note_on_c, 6, 68, 0
7, 63168, Note_on_c, 6, 71, 111
7, 63172, Note_on_c, 6, 66, 111
7, 63256, Note_on_c, 6, 71, 0
7, 63260, Note_on_c, 6, 66, 0
7, 63552, Note_on_c, 6, 71, 111
7, 63556, Note_on_c, 6, 66, 111
7, 63640, Note_on_c, 6, 71, 0
7, 63644, Note_on_c, 6, 66, 0
7, 63936, Note_on_c, 6, 73, 111
7, 63940, Note_on_c, 6, 68, 111
7, 64024, Note_on_c, 6, 73, 0
7, 64028, Note_on_c, 6, 68, 0
7, 64320, Note_on_c, 6, 73, 111
7, 64324, Note_on_c, 6, 68, 111
7, 64408, Note_on_c, 6, 73, 0
7, 64412, Note_on_c, 6, 68, 0
7, 64704, Note_on_c, 6, 71, 111
7, 64708, Note_on_c, 6, 66, 111
7, 64792, Note_on_c, 6, 71, 0
7, 64796, Note_on_c, 6, 66, 0
7, 65088, Note_on_c, 6, 71, 111
7, 65092, Note_on_c, 6, 66, 111
7, 65176, Note_on_c, 6, 71, 0
7, 65180, Note_on_c, 6, 66, 0
7, 65472, Note_on_c, 6, 73, 111
7, 65476, Note_on_c, 6, 68, 111
7, 65560, Note_on_c, 6, 73, 0
7, 65564, Note_on_c, 6, 68, 0
7, 65856, Note_on_c, 6, 73, 111
7, 65860, Note_on_c, 6, 68, 111
7, 65944, Note_on_c, 6, 73, 0
7, 65948, Note_on_c, 6, 68, 0
7, 66240, Note_on_c, 6, 71, 111
7, 66244, Note_on_c, 6, 66, 111
7, 66328, Note_on_c, 6, 71, 0
7, 66332, Note_on_c, 6, 66, 0
7, 66624, Note_on_c, 6, 71, 111
7, 66628, Note_on_c, 6, 66, 111
7, 66712, Note_on_c, 6, 71, 0
7, 66716, Note_on_c, 6, 66, 0
7, 67008, Note_on_c, 6, 73, 111
7, 67012, Note_on_c, 6, 68, 111
7, 67096, Note_on_c, 6, 73, 0
7, 67100, Note_on_c, 6, 68, 0
7, 67392, Note_on_c, 6, 73, 111
7, 67396, Note_on_c, 6, 68, 111
7, 67480, Note_on_c, 6, 73, 0
7, 67484, Note_on_c, 6, 68, 0
7, 67776, Note_on_c, 6, 71, 111
7, 67780, Note_on_c, 6, 66, 111
7, 67864, Note_on_c, 6, 71, 0
7, 67868, Note_on_c, 6, 66, 0
7, 68160, Note_on_c, 6, 71, 111
7, 68164, Note_on_c, 6, 66, 111
7, 68248, Note_on_c, 6, 71, 0
7, 68252, Note_on_c, 6, 66, 0
7, 68544, Note_on_c, 6, 73, 111
7, 68548, Note_on_c, 6, 68, 111
7, 68632, Note_on_c, 6, 73, 0
7, 68636, Note_on_c, 6, 68, 0
7, 68928, Note_on_c, 6, 73, 111
7, 68932, Note_on_c, 6, 68, 111
7, 69016, Note_on_c, 6, 73, 0
7, 69020, Note_on_c, 6, 68, 0
7, 69312, Note_on_c, 6, 71, 111
7, 69316, Note_on_c, 6, 66, 111
7, 69400, Note_on_c, 6, 71, 0
7, 69404, Note_on_c, 6, 66, 0
7, 69696, Note_on_c, 6, 71, 111
7, 69700, Note_on_c, 6, 66, 111
7, 69784, Note_on_c, 6, 71, 0
7, 69788, Note_on_c, 6, 66, 0
7, 70080, Note_on_c, 6, 73, 111
7, 70084, Note_on_c, 6, 68, 111
7, 70168, Note_on_c, 6, 73, 0
7, 70172, Note_on_c, 6, 68, 0
7, 70464, Note_on_c, 6, 73, 111
7, 70468, Note_on_c, 6, 68, 111
7, 70552, Note_on_c, 6, 73, 0
7, 70556, Note_on_c, 6, 68, 0
7, 70848, Note_on_c, 6, 71, 111
7, 70852, Note_on_c, 6, 66, 111
7, 70936, Note_on_c, 6, 71, 0
7, 70940, Note_on_c, 6, 66, 0
7, 71232, Note_on_c, 6, 71, 111
7, 71236, Note_on_c, 6, 66, 111
7, 71320, Note_on_c, 6, 71, 0
7, 71324, Note_on_c, 6, 66, 0
7, 71324, End_track
8, 0, Start_track
8, 0, MIDI_port, 0
8, 0, Title_t, "Lead Vocal          "
8, 192, Control_c, 7, 7, 120
8, 192, Control_c, 7, 10, 63
8, 192, Program_c, 7, 73
8, 9984, Note_on_c, 7, 80, 106
8, 10143, Note_on_c, 7, 80, 0
8, 10176, Note_on_c, 7, 77, 106
8, 10303, Note_on_c, 7, 77, 0
8, 10656, Note_on_c, 7, 75, 102
8, 10826, Note_on_c, 7, 75, 0
8, 10848, Note_on_c, 7, 73, 96
8, 10880, Note_on_c, 7, 73, 0
8, 10944, Note_on_c, 7, 73, 102
8, 11040, Note_on_c, 7, 70, 96
8, 11043, Note_on_c, 7, 73, 0
8, 11136, Note_on_c, 7, 73, 106
8, 11140, Note_on_c, 7, 70, 0
8, 11327, Note_on_c, 7, 73, 0
8, 11328, Note_on_c, 7, 70, 102
8, 11424, Note_on_c, 7, 68, 102
8, 11436, Note_on_c, 7, 70, 0
8, 11488, Note_on_c, 7, 68, 0
8, 11520, Note_on_c, 7, 80, 106
8, 11629, Note_on_c, 7, 80, 0
8, 11712, Note_on_c, 7, 77, 106
8, 11828, Note_on_c, 7, 77, 0
8, 12192, Note_on_c, 7, 75, 96
8, 12316, Note_on_c, 7, 75, 0
8, 12336, Note_on_c, 7, 73, 102
8, 12480, Note_on_c, 7, 70, 102
8, 12487, Note_on_c, 7, 73, 0
8, 12604, Note_on_c, 7, 70, 0
8, 13056, Note_on_c, 7, 80, 106
8, 13248, Note_on_c, 7, 77, 106
8, 13255, Note_on_c, 7, 80, 0
8, 13407, Note_on_c, 7, 77, 0
8, 13728, Note_on_c, 7, 75, 106
8, 13919, Note_on_c, 7, 75, 0
8, 13920, Note_on_c, 7, 73, 96
8, 13949, Note_on_c, 7, 73, 0
8, 14016, Note_on_c, 7, 73, 102
8, 14102, Note_on_c, 7, 73, 0
8, 14112, Note_on_c, 7, 70, 96
8, 14159, Note_on_c, 7, 70, 0
8, 14208, Note_on_c, 7, 73, 106
8, 14392, Note_on_c, 7, 73, 0
8, 14400, Note_on_c, 7, 70, 106
8, 14495, Note_on_c, 7, 70, 0
8, 14592, Note_on_c, 7, 80, 106
8, 14685, Note_on_c, 7, 80, 0
8, 14784, Note_on_c, 7, 77, 106
8, 14894, Note_on_c, 7, 77, 0
8, 15264, Note_on_c, 7, 73, 106
8, 15369, Note_on_c, 7, 73, 0
8, 15408, Note_on_c, 7, 73, 96
8, 15531, Note_on_c, 7, 73, 0
8, 15552, Note_on_c, 7, 70, 102
8, 15672, Note_on_c, 7, 70, 0
8, 15936, Note_on_c, 7, 73, 96
8, 16012, Note_on_c, 7, 73, 0
8, 16032, Note_on_c, 7, 82, 102
8, 16176, Note_on_c, 7, 82, 0
8, 16224, Note_on_c, 7, 80, 96
8, 16368, Note_on_c, 7, 80, 0
8, 16416, Note_on_c, 7, 77, 96
8, 16497, Note_on_c, 7, 77, 0
8, 16608, Note_on_c, 7, 73, 106
8, 16639, Note_on_c, 7, 73, 0
8, 16656, Note_on_c, 7, 73, 96
8, 16688, Note_on_c, 7, 73, 0
8, 16704, Note_on_c, 7, 73, 106
8, 16760, Note_on_c, 7, 73, 0
8, 16800, Note_on_c, 7, 70, 102
8, 16847, Note_on_c, 7, 70, 0
8, 16896, Note_on_c, 7, 73, 96
8, 16960, Note_on_c, 7, 73, 0
8, 17040, Note_on_c, 7, 73, 102
8, 17109, Note_on_c, 7, 73, 0
8, 17184, Note_on_c, 7, 75, 106
8, 17306, Note_on_c, 7, 75, 0
8, 17568, Note_on_c, 7, 80, 106
8, 17695, Note_on_c, 7, 80, 0
8, 17760, Note_on_c, 7, 80, 96
8, 17818, Note_on_c, 7, 80, 0
8, 17856, Note_on_c, 7, 80, 106
8, 17910, Note_on_c, 7, 80, 0
8, 17952, Note_on_c, 7, 80, 106
8, 18030, Note_on_c, 7, 80, 0
8, 18048, Note_on_c, 7, 73, 102
8, 18166, Note_on_c, 7, 73, 0
8, 18240, Note_on_c, 7, 73, 102
8, 18293, Note_on_c, 7, 73, 0
8, 18336, Note_on_c, 7, 80, 106
8, 18453, Note_on_c, 7, 80, 0
8, 18528, Note_on_c, 7, 80, 106
8, 18585, Note_on_c, 7, 80, 0
8, 18624, Note_on_c, 7, 80, 106
8, 18705, Note_on_c, 7, 80, 0
8, 18720, Note_on_c, 7, 73, 106
8, 18865, Note_on_c, 7, 73, 0
8, 19008, Note_on_c, 7, 68, 106
8, 19104, Note_on_c, 7, 75, 96
8, 19116, Note_on_c, 7, 68, 0
8, 19152, Note_on_c, 7, 77, 96
8, 19163, Note_on_c, 7, 75, 0
8, 19200, Note_on_c, 7, 77, 0
8, 19200, Note_on_c, 7, 75, 96
8, 19248, Note_on_c, 7, 75, 0
8, 19248, Note_on_c, 7, 73, 96
8, 19422, Note_on_c, 7, 73, 0
8, 19488, Note_on_c, 7, 73, 96
8, 19581, Note_on_c, 7, 73, 0
8, 19680, Note_on_c, 7, 73, 96
8, 19727, Note_on_c, 7, 73, 0
8, 19776, Note_on_c, 7, 73, 96
8, 19862, Note_on_c, 7, 73, 0
8, 19872, Note_on_c, 7, 70, 96
8, 19934, Note_on_c, 7, 70, 0
8, 19968, Note_on_c, 7, 73, 96
8, 20043, Note_on_c, 7, 73, 0
8, 20112, Note_on_c, 7, 73, 102
8, 20216, Note_on_c, 7, 73, 0
8, 20256, Note_on_c, 7, 75, 106
8, 20392, Note_on_c, 7, 75, 0
8, 20544, Note_on_c, 7, 68, 96
8, 20628, Note_on_c, 7, 68, 0
8, 20640, Note_on_c, 7, 77, 106
8, 20791, Note_on_c, 7, 77, 0
8, 20832, Note_on_c, 7, 75, 96
8, 20928, Note_on_c, 7, 75, 0
8, 21024, Note_on_c, 7, 73, 96
8, 21067, Note_on_c, 7, 73, 0
8, 21120, Note_on_c, 7, 73, 102
8, 21173, Note_on_c, 7, 73, 0
8, 21216, Note_on_c, 7, 73, 106
8, 21278, Note_on_c, 7, 73, 0
8, 21408, Note_on_c, 7, 80, 102
8, 21532, Note_on_c, 7, 80, 0
8, 21600, Note_on_c, 7, 80, 106
8, 21729, Note_on_c, 7, 80, 0
8, 21792, Note_on_c, 7, 77, 96
8, 21838, Note_on_c, 7, 77, 0
8, 21840, Note_on_c, 7, 75, 96
8, 21882, Note_on_c, 7, 75, 0
8, 21888, Note_on_c, 7, 73, 96
8, 22000, Note_on_c, 7, 73, 0
8, 22176, Note_on_c, 7, 73, 106
8, 22318, Note_on_c, 7, 73, 0
8, 22368, Note_on_c, 7, 73, 96
8, 22419, Note_on_c, 7, 73, 0
8, 22464, Note_on_c, 7, 73, 96
8, 22495, Note_on_c, 7, 73, 0
8, 22560, Note_on_c, 7, 73, 96
8, 22610, Note_on_c, 7, 73, 0
8, 22656, Note_on_c, 7, 73, 102
8, 22732, Note_on_c, 7, 73, 0
8, 22752, Note_on_c, 7, 70, 96
8, 22808, Note_on_c, 7, 70, 0
8, 22848, Note_on_c, 7, 73, 96
8, 22884, Note_on_c, 7, 73, 0
8, 22944, Note_on_c, 7, 73, 102
8, 23048, Note_on_c, 7, 73, 0
8, 23136, Note_on_c, 7, 73, 96
8, 23193, Note_on_c, 7, 73, 0
8, 23232, Note_on_c, 7, 73, 96
8, 23277, Note_on_c, 7, 73, 0
8, 23328, Note_on_c, 7, 75, 96
8, 23496, Note_on_c, 7, 75, 0
8, 23712, Note_on_c, 7, 77, 96
8, 23808, Note_on_c, 7, 75, 96
8, 23829, Note_on_c, 7, 77, 0
8, 23898, Note_on_c, 7, 75, 0
8, 23904, Note_on_c, 7, 73, 96
8, 23954, Note_on_c, 7, 73, 0
8, 24000, Note_on_c, 7, 73, 96
8, 24055, Note_on_c, 7, 73, 0
8, 24096, Note_on_c, 7, 73, 96
8, 24191, Note_on_c, 7, 73, 0
8, 24480, Note_on_c, 7, 80, 102
8, 24628, Note_on_c, 7, 80, 0
8, 24672, Note_on_c, 7, 80, 96
8, 24742, Note_on_c, 7, 80, 0
8, 24768, Note_on_c, 7, 80, 102
8, 24840, Note_on_c, 7, 80, 0
8, 24864, Note_on_c, 7, 73, 96
8, 25002, Note_on_c, 7, 73, 0
8, 25200, Note_on_c, 7, 70, 102
8, 25248, Note_on_c, 7, 73, 96
8, 25268, Note_on_c, 7, 70, 0
8, 25344, Note_on_c, 7, 80, 96
8, 25349, Note_on_c, 7, 73, 0
8, 25536, Note_on_c, 7, 77, 96
8, 25537, Note_on_c, 7, 80, 0
8, 25718, Note_on_c, 7, 77, 0
8, 26016, Note_on_c, 7, 73, 96
8, 26076, Note_on_c, 7, 73, 0
8, 26112, Note_on_c, 7, 75, 96
8, 26192, Note_on_c, 7, 75, 0
8, 26208, Note_on_c, 7, 73, 102
8, 26302, Note_on_c, 7, 73, 0
8, 26400, Note_on_c, 7, 73, 106
8, 26496, Note_on_c, 7, 70, 102
8, 26501, Note_on_c, 7, 73, 0
8, 26611, Note_on_c, 7, 70, 0
8, 26880, Note_on_c, 7, 80, 106
8, 26938, Note_on_c, 7, 80, 0
8, 26976, Note_on_c, 7, 80, 96
8, 27041, Note_on_c, 7, 80, 0
8, 27072, Note_on_c, 7, 77, 106
8, 27253, Note_on_c, 7, 77, 0
8, 27360, Note_on_c, 7, 70, 96
8, 27446, Note_on_c, 7, 70, 0
8, 27456, Note_on_c, 7, 73, 96
8, 27549, Note_on_c, 7, 73, 0
8, 27552, Note_on_c, 7, 70, 96
8, 27625, Note_on_c, 7, 70, 0
8, 27648, Note_on_c, 7, 73, 96
8, 27744, Note_on_c, 7, 73, 0
8, 27744, Note_on_c, 7, 75, 102
8, 27852, Note_on_c, 7, 75, 0
8, 27936, Note_on_c, 7, 75, 106
8, 28032, Note_on_c, 7, 73, 106
8, 28048, Note_on_c, 7, 75, 0
8, 28128, Note_on_c, 7, 70, 106
8, 28154, Note_on_c, 7, 73, 0
8, 28215, Note_on_c, 7, 70, 0
8, 28224, Note_on_c, 7, 73, 96
8, 28348, Note_on_c, 7, 73, 0
8, 28416, Note_on_c, 7, 80, 106
8, 28586, Note_on_c, 7, 80, 0
8, 28608, Note_on_c, 7, 77, 106
8, 28770, Note_on_c, 7, 77, 0
8, 29088, Note_on_c, 7, 75, 102
8, 29272, Note_on_c, 7, 75, 0
8, 29280, Note_on_c, 7, 73, 96
8, 29309, Note_on_c, 7, 73, 0
8, 29376, Note_on_c, 7, 73, 96
8, 29466, Note_on_c, 7, 73, 0
8, 29472, Note_on_c, 7, 70, 96
8, 29522, Note_on_c, 7, 70, 0
8, 29568, Note_on_c, 7, 73, 106
8, 29752, Note_on_c, 7, 73, 0
8, 29760, Note_on_c, 7, 70, 102
8, 29851, Note_on_c, 7, 70, 0
8, 29952, Note_on_c, 7, 80, 106
8, 30056, Note_on_c, 7, 80, 0
8, 30144, Note_on_c, 7, 77, 106
8, 30270, Note_on_c, 7, 77, 0
8, 30624, Note_on_c, 7, 82, 106
8, 30768, Note_on_c, 7, 82, 0
8, 30768, Note_on_c, 7, 80, 96
8, 30912, Note_on_c, 7, 80, 0
8, 30960, Note_on_c, 7, 76, 96
8, 31008, Note_on_c, 7, 77, 96
8, 31013, Note_on_c, 7, 76, 0
8, 31164, Note_on_c, 7, 77, 0
8, 31392, Note_on_c, 7, 82, 106
8, 31488, Note_on_c, 7, 80, 96
8, 31510, Note_on_c, 7, 82, 0
8, 31672, Note_on_c, 7, 80, 0
8, 31680, Note_on_c, 7, 77, 96
8, 31712, Note_on_c, 7, 77, 0
8, 31712, Note_on_c, 7, 76, 102
8, 31728, Note_on_c, 7, 76, 0
8, 31728, Note_on_c, 7, 77, 106
8, 31826, Note_on_c, 7, 77, 0
8, 32160, Note_on_c, 7, 75, 106
8, 32352, Note_on_c, 7, 73, 96
8, 32357, Note_on_c, 7, 75, 0
8, 32382, Note_on_c, 7, 73, 0
8, 32448, Note_on_c, 7, 73, 102
8, 32541, Note_on_c, 7, 73, 0
8, 32544, Note_on_c, 7, 70, 96
8, 32635, Note_on_c, 7, 70, 0
8, 32640, Note_on_c, 7, 73, 106
8, 32819, Note_on_c, 7, 73, 0
8, 32832, Note_on_c, 7, 70, 96
8, 32926, Note_on_c, 7, 70, 0
8, 32928, Note_on_c, 7, 68, 96
8, 32969, Note_on_c, 7, 68, 0
8, 33024, Note_on_c, 7, 80, 106
8, 33158, Note_on_c, 7, 80, 0
8, 33216, Note_on_c, 7, 77, 106
8, 33331, Note_on_c, 7, 77, 0
8, 33696, Note_on_c, 7, 82, 96
8, 33840, Note_on_c, 7, 80, 96
8, 33857, Note_on_c, 7, 82, 0
8, 33981, Note_on_c, 7, 80, 0
8, 33984, Note_on_c, 7, 82, 102
8, 34080, Note_on_c, 7, 77, 96
8, 34099, Note_on_c, 7, 82, 0
8, 34116, Note_on_c, 7, 77, 0
8, 34128, Note_on_c, 7, 75, 96
8, 34176, Note_on_c, 7, 73, 96
8, 34184, Note_on_c, 7, 75, 0
8, 34326, Note_on_c, 7, 73, 0
8, 40512, Note_on_c, 7, 73, 96
8, 40603, Note_on_c, 7, 73, 0
8, 40608, Note_on_c, 7, 70, 96
8, 40701, Note_on_c, 7, 70, 0
8, 40704, Note_on_c, 7, 73, 96
8, 40759, Note_on_c, 7, 73, 0
8, 40800, Note_on_c, 7, 73, 96
8, 40886, Note_on_c, 7, 73, 0
8, 40896, Note_on_c, 7, 70, 96
8, 40950, Note_on_c, 7, 70, 0
8, 40992, Note_on_c, 7, 73, 106
8, 41129, Note_on_c, 7, 73, 0
8, 41184, Note_on_c, 7, 73, 96
8, 41239, Note_on_c, 7, 73, 0
8, 41280, Note_on_c, 7, 73, 96
8, 41367, Note_on_c, 7, 73, 0
8, 41376, Note_on_c, 7, 70, 96
8, 41438, Note_on_c, 7, 70, 0
8, 41472, Note_on_c, 7, 73, 102
8, 41532, Note_on_c, 7, 73, 0
8, 41568, Note_on_c, 7, 73, 102
8, 41704, Note_on_c, 7, 73, 0
8, 41760, Note_on_c, 7, 75, 102
8, 41902, Note_on_c, 7, 75, 0
8, 42144, Note_on_c, 7, 73, 96
8, 42212, Note_on_c, 7, 73, 0
8, 42240, Note_on_c, 7, 77, 96
8, 42310, Note_on_c, 7, 77, 0
8, 42336, Note_on_c, 7, 75, 96
8, 42392, Note_on_c, 7, 75, 0
8, 42432, Note_on_c, 7, 73, 96
8, 42476, Note_on_c, 7, 73, 0
8, 42528, Note_on_c, 7, 73, 102
8, 42628, Note_on_c, 7, 73, 0
8, 42720, Note_on_c, 7, 73, 96
8, 42766, Note_on_c, 7, 73, 0
8, 42816, Note_on_c, 7, 73, 96
8, 42912, Note_on_c, 7, 80, 102
8, 42946, Note_on_c, 7, 73, 0
8, 43030, Note_on_c, 7, 80, 0
8, 43104, Note_on_c, 7, 80, 106
8, 43239, Note_on_c, 7, 80, 0
8, 43296, Note_on_c, 7, 73, 106
8, 43447, Note_on_c, 7, 73, 0
8, 43632, Note_on_c, 7, 68, 96
8, 43675, Note_on_c, 7, 68, 0
8, 43680, Note_on_c, 7, 70, 96
8, 43759, Note_on_c, 7, 70, 0
8, 43776, Note_on_c, 7, 73, 102
8, 43834, Note_on_c, 7, 73, 0
8, 43872, Note_on_c, 7, 73, 96
8, 43958, Note_on_c, 7, 73, 0
8, 43968, Note_on_c, 7, 70, 96
8, 44002, Note_on_c, 7, 70, 0
8, 44064, Note_on_c, 7, 73, 106
8, 44157, Note_on_c, 7, 73, 0
8, 44256, Note_on_c, 7, 73, 102
8, 44352, Note_on_c, 7, 70, 96
8, 44363, Note_on_c, 7, 73, 0
8, 44387, Note_on_c, 7, 70, 0
8, 44448, Note_on_c, 7, 73, 96
8, 44544, Note_on_c, 7, 73, 0
8, 44592, Note_on_c, 7, 73, 102
8, 44657, Note_on_c, 7, 73, 0
8, 44736, Note_on_c, 7, 75, 106
8, 44884, Note_on_c, 7, 75, 0
8, 45024, Note_on_c, 7, 73, 96
8, 45077, Note_on_c, 7, 73, 0
8, 45120, Note_on_c, 7, 73, 96
8, 45216, Note_on_c, 7, 82, 106
8, 45222, Note_on_c, 7, 73, 0
8, 45356, Note_on_c, 7, 82, 0
8, 45408, Note_on_c, 7, 80, 96
8, 45476, Note_on_c, 7, 80, 0
8, 45504, Note_on_c, 7, 80, 96
8, 45595, Note_on_c, 7, 80, 0
8, 45600, Note_on_c, 7, 73, 102
8, 45702, Note_on_c, 7, 73, 0
8, 45792, Note_on_c, 7, 73, 96
8, 45846, Note_on_c, 7, 73, 0
8, 45888, Note_on_c, 7, 73, 96
8, 45979, Note_on_c, 7, 73, 0
8, 45984, Note_on_c, 7, 80, 102
8, 46115, Note_on_c, 7, 80, 0
8, 46176, Note_on_c, 7, 80, 106
8, 46222, Note_on_c, 7, 80, 0
8, 46272, Note_on_c, 7, 80, 102
8, 46356, Note_on_c, 7, 80, 0
8, 46368, Note_on_c, 7, 73, 106
8, 46466, Note_on_c, 7, 73, 0
8, 46560, Note_on_c, 7, 70, 96
8, 46620, Note_on_c, 7, 70, 0
8, 46656, Note_on_c, 7, 73, 106
8, 46750, Note_on_c, 7, 73, 0
8, 46848, Note_on_c, 7, 80, 106
8, 47037, Note_on_c, 7, 80, 0
8, 47040, Note_on_c, 7, 77, 106
8, 47258, Note_on_c, 7, 77, 0
8, 47520, Note_on_c, 7, 73, 96
8, 47616, Note_on_c, 7, 75, 102
8, 47625, Note_on_c, 7, 73, 0
8, 47700, Note_on_c, 7, 75, 0
8, 47712, Note_on_c, 7, 73, 102
8, 47751, Note_on_c, 7, 73, 0
8, 47808, Note_on_c, 7, 73, 102
8, 47847, Note_on_c, 7, 73, 0
8, 47904, Note_on_c, 7, 73, 102
8, 48000, Note_on_c, 7, 70, 96
8, 48014, Note_on_c, 7, 73, 0
8, 48122, Note_on_c, 7, 70, 0
8, 48288, Note_on_c, 7, 82, 106
8, 48384, Note_on_c, 7, 80, 102
8, 48406, Note_on_c, 7, 82, 0
8, 48516, Note_on_c, 7, 80, 0
8, 48576, Note_on_c, 7, 80, 106
8, 48672, Note_on_c, 7, 77, 106
8, 48681, Note_on_c, 7, 80, 0
8, 48799, Note_on_c, 7, 77, 0
8, 48864, Note_on_c, 7, 70, 106
8, 48934, Note_on_c, 7, 70, 0
8, 48960, Note_on_c, 7, 73, 102
8, 49023, Note_on_c, 7, 73, 0
8, 49056, Note_on_c, 7, 70, 102
8, 49116, Note_on_c, 7, 70, 0
8, 49152, Note_on_c, 7, 73, 96
8, 49248, Note_on_c, 7, 73, 0
8, 49248, Note_on_c, 7, 75, 96
8, 49296, Note_on_c, 7, 75, 0
8, 49344, Note_on_c, 7, 75, 102
8, 49430, Note_on_c, 7, 75, 0
8, 49440, Note_on_c, 7, 73, 106
8, 49536, Note_on_c, 7, 70, 96
8, 49538, Note_on_c, 7, 73, 0
8, 49640, Note_on_c, 7, 70, 0
8, 49824, Note_on_c, 7, 70, 96
8, 49902, Note_on_c, 7, 70, 0
8, 49920, Note_on_c, 7, 73, 102
8, 50002, Note_on_c, 7, 73, 0
8, 50064, Note_on_c, 7, 73, 96
8, 50145, Note_on_c, 7, 73, 0
8, 50208, Note_on_c, 7, 73, 96
8, 50316, Note_on_c, 7, 73, 0
8, 50496, Note_on_c, 7, 73, 102
8, 50580, Note_on_c, 7, 73, 0
8, 50592, Note_on_c, 7, 70, 96
8, 50643, Note_on_c, 7, 70, 0
8, 50688, Note_on_c, 7, 73, 96
8, 50744, Note_on_c, 7, 73, 0
8, 50832, Note_on_c, 7, 73, 96
8, 50934, Note_on_c, 7, 73, 0
8, 50976, Note_on_c, 7, 75, 106
8, 51118, Note_on_c, 7, 75, 0
8, 51264, Note_on_c, 7, 73, 96
8, 51310, Note_on_c, 7, 73, 0
8, 51360, Note_on_c, 7, 80, 106
8, 51453, Note_on_c, 7, 80, 0
8, 51552, Note_on_c, 7, 73, 96
8, 51596, Note_on_c, 7, 73, 0
8, 51648, Note_on_c, 7, 73, 96
8, 51691, Note_on_c, 7, 73, 0
8, 51744, Note_on_c, 7, 73, 96
8, 51852, Note_on_c, 7, 73, 0
8, 51936, Note_on_c, 7, 73, 96
8, 51977, Note_on_c, 7, 73, 0
8, 52032, Note_on_c, 7, 73, 96
8, 52101, Note_on_c, 7, 73, 0
8, 52128, Note_on_c, 7, 82, 106
8, 52279, Note_on_c, 7, 82, 0
8, 52320, Note_on_c, 7, 80, 102
8, 52483, Note_on_c, 7, 80, 0
8, 52512, Note_on_c, 7, 80, 106
8, 52608, Note_on_c, 7, 77, 102
8, 52610, Note_on_c, 7, 80, 0
8, 52761, Note_on_c, 7, 77, 0
8, 52896, Note_on_c, 7, 70, 96
8, 52959, Note_on_c, 7, 70, 0
8, 52992, Note_on_c, 7, 73, 102
8, 53062, Note_on_c, 7, 73, 0
8, 53088, Note_on_c, 7, 73, 96
8, 53114, Note_on_c, 7, 73, 0
8, 53136, Note_on_c, 7, 73, 106
8, 53196, Note_on_c, 7, 73, 0
8, 53280, Note_on_c, 7, 73, 102
8, 53412, Note_on_c, 7, 73, 0
8, 53664, Note_on_c, 7, 70, 96
8, 53707, Note_on_c, 7, 70, 0
8, 53760, Note_on_c, 7, 73, 96
8, 53786, Note_on_c, 7, 73, 0
8, 53808, Note_on_c, 7, 73, 106
8, 53865, Note_on_c, 7, 73, 0
8, 53904, Note_on_c, 7, 73, 102
8, 53988, Note_on_c, 7, 73, 0
8, 54048, Note_on_c, 7, 75, 102
8, 54202, Note_on_c, 7, 75, 0
8, 54240, Note_on_c, 7, 71, 102
8, 54292, Note_on_c, 7, 71, 0
8, 54336, Note_on_c, 7, 71, 102
8, 54395, Note_on_c, 7, 71, 0
8, 54432, Note_on_c, 7, 85, 106
8, 54550, Note_on_c, 7, 85, 0
8, 54576, Note_on_c, 7, 85, 96
8, 54655, Note_on_c, 7, 85, 0
8, 54720, Note_on_c, 7, 82, 96
8, 54816, Note_on_c, 7, 80, 96
8, 54818, Note_on_c, 7, 82, 0
8, 54876, Note_on_c, 7, 80, 0
8, 54912, Note_on_c, 7, 77, 96
8, 54971, Note_on_c, 7, 77, 0
8, 55008, Note_on_c, 7, 77, 96
8, 55073, Note_on_c, 7, 77, 0
8, 55104, Note_on_c, 7, 75, 106
8, 55169, Note_on_c, 7, 75, 0
8, 55200, Note_on_c, 7, 73, 106
8, 55252, Note_on_c, 7, 73, 0
8, 55392, Note_on_c, 7, 75, 96
8, 55468, Note_on_c, 7, 75, 0
8, 55488, Note_on_c, 7, 73, 96
8, 55541, Note_on_c, 7, 73, 0
8, 55584, Note_on_c, 7, 73, 102
8, 55678, Note_on_c, 7, 73, 0
8, 55680, Note_on_c, 7, 70, 96
8, 55772, Note_on_c, 7, 70, 0
8, 55776, Note_on_c, 7, 70, 102
8, 55845, Note_on_c, 7, 70, 0
8, 55872, Note_on_c, 7, 73, 106
8, 55980, Note_on_c, 7, 73, 0
8, 56064, Note_on_c, 7, 80, 106
8, 56235, Note_on_c, 7, 80, 0
8, 56256, Note_on_c, 7, 77, 106
8, 56394, Note_on_c, 7, 77, 0
8, 56736, Note_on_c, 7, 73, 96
8, 56787, Note_on_c, 7, 73, 0
8, 56832, Note_on_c, 7, 75, 106
8, 56881, Note_on_c, 7, 75, 0
8, 56928, Note_on_c, 7, 73, 102
8, 57060, Note_on_c, 7, 73, 0
8, 57120, Note_on_c, 7, 73, 106
8, 57216, Note_on_c, 7, 70, 102
8, 57225, Note_on_c, 7, 73, 0
8, 57334, Note_on_c, 7, 70, 0
8, 57600, Note_on_c, 7, 80, 106
8, 57662, Note_on_c, 7, 80, 0
8, 57696, Note_on_c, 7, 80, 96
8, 57782, Note_on_c, 7, 80, 0
8, 57792, Note_on_c, 7, 77, 106
8, 57927, Note_on_c, 7, 77, 0
8, 58080, Note_on_c, 7, 70, 96
8, 58138, Note_on_c, 7, 70, 0
8, 58176, Note_on_c, 7, 73, 96
8, 58250, Note_on_c, 7, 73, 0
8, 58272, Note_on_c, 7, 70, 96
8, 58319, Note_on_c, 7, 70, 0
8, 58368, Note_on_c, 7, 73, 102
8, 58428, Note_on_c, 7, 73, 0
8, 58464, Note_on_c, 7, 75, 106
8, 58533, Note_on_c, 7, 75, 0
8, 58656, Note_on_c, 7, 75, 102
8, 58752, Note_on_c, 7, 73, 106
8, 58763, Note_on_c, 7, 75, 0
8, 58847, Note_on_c, 7, 73, 0
8, 58848, Note_on_c, 7, 70, 96
8, 58914, Note_on_c, 7, 70, 0
8, 58944, Note_on_c, 7, 73, 106
8, 59046, Note_on_c, 7, 73, 0
8, 59136, Note_on_c, 7, 80, 106
8, 59299, Note_on_c, 7, 80, 0
8, 59328, Note_on_c, 7, 77, 106
8, 59524, Note_on_c, 7, 77, 0
8, 59808, Note_on_c, 7, 75, 106
8, 59987, Note_on_c, 7, 75, 0
8, 60000, Note_on_c, 7, 73, 96
8, 60050, Note_on_c, 7, 73, 0
8, 60096, Note_on_c, 7, 73, 102
8, 60192, Note_on_c, 7, 73, 0
8, 60192, Note_on_c, 7, 70, 96
8, 60250, Note_on_c, 7, 70, 0
8, 60288, Note_on_c, 7, 73, 106
8, 60468, Note_on_c, 7, 73, 0
8, 60480, Note_on_c, 7, 70, 102
8, 60552, Note_on_c, 7, 70, 0
8, 60672, Note_on_c, 7, 80, 106
8, 60789, Note_on_c, 7, 80, 0
8, 60864, Note_on_c, 7, 77, 106
8, 60984, Note_on_c, 7, 77, 0
8, 61344, Note_on_c, 7, 82, 106
8, 61440, Note_on_c, 7, 80, 102
8, 61456, Note_on_c, 7, 82, 0
8, 61534, Note_on_c, 7, 80, 0
8, 61584, Note_on_c, 7, 80, 102
8, 61682, Note_on_c, 7, 80, 0
8, 61728, Note_on_c, 7, 80, 102
8, 61824, Note_on_c, 7, 77, 102
8, 61838, Note_on_c, 7, 80, 0
8, 61918, Note_on_c, 7, 77, 0
8, 61920, Note_on_c, 7, 77, 96
8, 62054, Note_on_c, 7, 77, 0
8, 62064, Note_on_c, 7, 75, 96
8, 62112, Note_on_c, 7, 73, 96
8, 62113, Note_on_c, 7, 75, 0
8, 62180, Note_on_c, 7, 73, 0
8, 62208, Note_on_c, 7, 80, 106
8, 62356, Note_on_c, 7, 80, 0
8, 62400, Note_on_c, 7, 77, 106
8, 62588, Note_on_c, 7, 77, 0
8, 62880, Note_on_c, 7, 75, 102
8, 63072, Note_on_c, 7, 75, 0
8, 63072, Note_on_c, 7, 73, 96
8, 63108, Note_on_c, 7, 73, 0
8, 63168, Note_on_c, 7, 73, 106
8, 63264, Note_on_c, 7, 70, 96
8, 63271, Note_on_c, 7, 73, 0
8, 63324, Note_on_c, 7, 70, 0
8, 63360, Note_on_c, 7, 73, 106
8, 63541, Note_on_c, 7, 73, 0
8, 63552, Note_on_c, 7, 70, 106
8, 63641, Note_on_c, 7, 70, 0
8, 63744, Note_on_c, 7, 80, 106
8, 63860, Note_on_c, 7, 80, 0
8, 63936, Note_on_c, 7, 77, 106
8, 64056, Note_on_c, 7, 77, 0
8, 64416, Note_on_c, 7, 82, 106
8, 64512, Note_on_c, 7, 80, 106
8, 64528, Note_on_c, 7, 82, 0
8, 64593, Note_on_c, 7, 80, 0
8, 64656, Note_on_c, 7, 80, 96
8, 64768, Note_on_c, 7, 80, 0
8, 64800, Note_on_c, 7, 77, 106
8, 65003, Note_on_c, 7, 77, 0
8, 65280, Note_on_c, 7, 80, 106
8, 65472, Note_on_c, 7, 77, 106
8, 65482, Note_on_c, 7, 80, 0
8, 65710, Note_on_c, 7, 77, 0
8, 65952, Note_on_c, 7, 75, 106
8, 66132, Note_on_c, 7, 75, 0
8, 66144, Note_on_c, 7, 73, 96
8, 66178, Note_on_c, 7, 73, 0
8, 66240, Note_on_c, 7, 73, 106
8, 66324, Note_on_c, 7, 73, 0
8, 66336, Note_on_c, 7, 70, 96
8, 66381, Note_on_c, 7, 70, 0
8, 66432, Note_on_c, 7, 73, 102
8, 66618, Note_on_c, 7, 73, 0
8, 66624, Note_on_c, 7, 70, 96
8, 66720, Note_on_c, 7, 68, 96
8, 66724, Note_on_c, 7, 70, 0
8, 66758, Note_on_c, 7, 68, 0
8, 66816, Note_on_c, 7, 80, 96
8, 66962, Note_on_c, 7, 80, 0
8, 67008, Note_on_c, 7, 77, 106
8, 67136, Note_on_c, 7, 77, 0
8, 67296, Note_on_c, 7, 77, 106
8, 67346, Note_on_c, 7, 77, 0
8, 67392, Note_on_c, 7, 80, 106
8, 67435, Note_on_c, 7, 80, 0
8, 67488, Note_on_c, 7, 80, 106
8, 67529, Note_on_c, 7, 80, 0
8, 67584, Note_on_c, 7, 82, 102
8, 67627, Note_on_c, 7, 82, 0
8, 67680, Note_on_c, 7, 80, 106
8, 67793, Note_on_c, 7, 80, 0
8, 67872, Note_on_c, 7, 77, 106
8, 68106, Note_on_c, 7, 77, 0
8, 68352, Note_on_c, 7, 80, 106
8, 68544, Note_on_c, 7, 77, 106
8, 68552, Note_on_c, 7, 80, 0
8, 68792, Note_on_c, 7, 77, 0
8, 69024, Note_on_c, 7, 75, 102
8, 69216, Note_on_c, 7, 73, 102
8, 69219, Note_on_c, 7, 75, 0
8, 69260, Note_on_c, 7, 73, 0
8, 69312, Note_on_c, 7, 73, 102
8, 69398, Note_on_c, 7, 73, 0
8, 69408, Note_on_c, 7, 70, 96
8, 69452, Note_on_c, 7, 70, 0
8, 69504, Note_on_c, 7, 73, 106
8, 69680, Note_on_c, 7, 73, 0
8, 69696, Note_on_c, 7, 70, 106
8, 69774, Note_on_c, 7, 70, 0
8, 69888, Note_on_c, 7, 80, 106
8, 69978, Note_on_c, 7, 80, 0
8, 70080, Note_on_c, 7, 77, 106
8, 70200, Note_on_c, 7, 77, 0
8, 70368, Note_on_c, 7, 85, 106
8, 70472, Note_on_c, 7, 85, 0
8, 70512, Note_on_c, 7, 82, 96
8, 70612, Note_on_c, 7, 82, 0
8, 70656, Note_on_c, 7, 80, 102
8, 70746, Note_on_c, 7, 80, 0
8, 70800, Note_on_c, 7, 80, 106
8, 70924, Note_on_c, 7, 80, 0
8, 70944, Note_on_c, 7, 82, 96
8, 71014, Note_on_c, 7, 82, 0
8, 71040, Note_on_c, 7, 77, 106
8, 71276, Note_on_c, 7, 77, 0
8, 71276, End_track
9, 0, Start_track
9, 0, MIDI_port, 0
9, 0, Title_t, "Backup Vocals       "
9, 192, Control_c, 8, 7, 100
9, 192, Control_c, 8, 10, 63
9, 192, Program_c, 8, 109
9, 9984, Note_on_c, 8, 73, 66
9, 9984, Note_on_c, 8, 68, 66
9, 9984, Note_on_c, 8, 77, 66
9, 10099, Note_on_c, 8, 77, 0
9, 10112, Note_on_c, 8, 68, 0
9, 10114, Note_on_c, 8, 73, 0
9, 10176, Note_on_c, 8, 65, 66
9, 10176, Note_on_c, 8, 73, 73
9, 10176, Note_on_c, 8, 68, 73
9, 10330, Note_on_c, 8, 65, 0
9, 10344, Note_on_c, 8, 68, 0
9, 10349, Note_on_c, 8, 73, 0
9, 11520, Note_on_c, 8, 73, 66
9, 11520, Note_on_c, 8, 77, 66
9, 11520, Note_on_c, 8, 68, 66
9, 11616, Note_on_c, 8, 77, 0
9, 11628, Note_on_c, 8, 73, 0
9, 11635, Note_on_c, 8, 68, 0
9, 11712, Note_on_c, 8, 73, 73
9, 11712, Note_on_c, 8, 68, 73
9, 11712, Note_on_c, 8, 65, 66
9, 11869, Note_on_c, 8, 68, 0
9, 11872, Note_on_c, 8, 65, 0
9, 11877, Note_on_c, 8, 73, 0
9, 13056, Note_on_c, 8, 73, 66
9, 13056, Note_on_c, 8, 68, 66
9, 13056, Note_on_c, 8, 77, 73
9, 13149, Note_on_c, 8, 77, 0
9, 13166, Note_on_c, 8, 73, 0
9, 13174, Note_on_c, 8, 68, 0
9, 13248, Note_on_c, 8, 73, 66
9, 13248, Note_on_c, 8, 68, 73
9, 13248, Note_on_c, 8, 65, 66
9, 13428, Note_on_c, 8, 65, 0
9, 13431, Note_on_c, 8, 68, 0
9, 13439, Note_on_c, 8, 73, 0
9, 14592, Note_on_c, 8, 73, 66
9, 14592, Note_on_c, 8, 68, 66
9, 14592, Note_on_c, 8, 77, 73
9, 14704, Note_on_c, 8, 77, 0
9, 14717, Note_on_c, 8, 73, 0
9, 14719, Note_on_c, 8, 68, 0
9, 14784, Note_on_c, 8, 68, 73
9, 14784, Note_on_c, 8, 73, 66
9, 14784, Note_on_c, 8, 65, 66
9, 14961, Note_on_c, 8, 65, 0
9, 14964, Note_on_c, 8, 68, 0
9, 14976, Note_on_c, 8, 73, 0
9, 22272, Note_on_c, 8, 65, 73
9, 22752, Note_on_c, 8, 66, 73
9, 22760, Note_on_c, 8, 65, 0
9, 22848, Note_on_c, 8, 65, 66
9, 22865, Note_on_c, 8, 66, 0
9, 22943, Note_on_c, 8, 65, 0
9, 22944, Note_on_c, 8, 68, 73
9, 23520, Note_on_c, 8, 66, 73
9, 23525, Note_on_c, 8, 68, 0
9, 23808, Note_on_c, 8, 68, 73
9, 23823, Note_on_c, 8, 66, 0
9, 24047, Note_on_c, 8, 68, 0
9, 24192, Note_on_c, 8, 68, 73
9, 24288, Note_on_c, 8, 70, 66
9, 24290, Note_on_c, 8, 68, 0
9, 24384, Note_on_c, 8, 68, 66
9, 24410, Note_on_c, 8, 70, 0
9, 24458, Note_on_c, 8, 68, 0
9, 24480, Note_on_c, 8, 75, 73
9, 24480, Note_on_c, 8, 71, 66
9, 25056, Note_on_c, 8, 73, 73
9, 25056, Note_on_c, 8, 70, 73
9, 25070, Note_on_c, 8, 71, 0
9, 25070, Note_on_c, 8, 75, 0
9, 25344, Note_on_c, 8, 77, 73
9, 25344, Note_on_c, 8, 68, 66
9, 25345, Note_on_c, 8, 73, 0
9, 25368, Note_on_c, 8, 70, 0
9, 25457, Note_on_c, 8, 77, 0
9, 25478, Note_on_c, 8, 68, 0
9, 25536, Note_on_c, 8, 68, 73
9, 25536, Note_on_c, 8, 73, 73
9, 25536, Note_on_c, 8, 65, 66
9, 25708, Note_on_c, 8, 73, 0
9, 25711, Note_on_c, 8, 68, 0
9, 25713, Note_on_c, 8, 65, 0
9, 26880, Note_on_c, 8, 73, 66
9, 26880, Note_on_c, 8, 68, 66
9, 26880, Note_on_c, 8, 77, 66
9, 27005, Note_on_c, 8, 77, 0
9, 27016, Note_on_c, 8, 73, 0
9, 27026, Note_on_c, 8, 68, 0
9, 27072, Note_on_c, 8, 68, 73
9, 27072, Note_on_c, 8, 73, 73
9, 27072, Note_on_c, 8, 65, 66
9, 27236, Note_on_c, 8, 73, 0
9, 27238, Note_on_c, 8, 68, 0
9, 27240, Note_on_c, 8, 65, 0
9, 28416, Note_on_c, 8, 73, 66
9, 28416, Note_on_c, 8, 68, 66
9, 28416, Note_on_c, 8, 77, 66
9, 28528, Note_on_c, 8, 77, 0
9, 28546, Note_on_c, 8, 73, 0
9, 28548, Note_on_c, 8, 68, 0
9, 28608, Note_on_c, 8, 73, 66
9, 28608, Note_on_c, 8, 68, 73
9, 28608, Note_on_c, 8, 65, 66
9, 28783, Note_on_c, 8, 65, 0
9, 28786, Note_on_c, 8, 68, 0
9, 28802, Note_on_c, 8, 73, 0
9, 29952, Note_on_c, 8, 73, 66
9, 29952, Note_on_c, 8, 68, 66
9, 29952, Note_on_c, 8, 77, 66
9, 30063, Note_on_c, 8, 77, 0
9, 30068, Note_on_c, 8, 73, 0
9, 30072, Note_on_c, 8, 68, 0
9, 30144, Note_on_c, 8, 73, 66
9, 30144, Note_on_c, 8, 68, 73
9, 30144, Note_on_c, 8, 65, 66
9, 30331, Note_on_c, 8, 65, 0
9, 30335, Note_on_c, 8, 68, 0
9, 30345, Note_on_c, 8, 73, 0
9, 31488, Note_on_c, 8, 73, 66
9, 31488, Note_on_c, 8, 77, 66
9, 31488, Note_on_c, 8, 68, 66
9, 31622, Note_on_c, 8, 77, 0
9, 31631, Note_on_c, 8, 73, 0
9, 31646, Note_on_c, 8, 68, 0
9, 31680, Note_on_c, 8, 73, 66
9, 31680, Note_on_c, 8, 68, 73
9, 31680, Note_on_c, 8, 65, 66
9, 31880, Note_on_c, 8, 68, 0
9, 31890, Note_on_c, 8, 65, 0
9, 31895, Note_on_c, 8, 73, 0
9, 33024, Note_on_c, 8, 73, 73
9, 33024, Note_on_c, 8, 68, 66
9, 33024, Note_on_c, 8, 77, 66
9, 33143, Note_on_c, 8, 77, 0
9, 33153, Note_on_c, 8, 73, 0
9, 33164, Note_on_c, 8, 68, 0
9, 33216, Note_on_c, 8, 73, 73
9, 33216, Note_on_c, 8, 68, 73
9, 33216, Note_on_c, 8, 65, 66
9, 33364, Note_on_c, 8, 68, 0
9, 33371, Note_on_c, 8, 65, 0
9, 33381, Note_on_c, 8, 73, 0
9, 34560, Note_on_c, 8, 65, 73
9, 35040, Note_on_c, 8, 66, 73
9, 35048, Note_on_c, 8, 65, 0
9, 35136, Note_on_c, 8, 65, 66
9, 35153, Note_on_c, 8, 66, 0
9, 35231, Note_on_c, 8, 65, 0
9, 35232, Note_on_c, 8, 68, 73
9, 35808, Note_on_c, 8, 66, 73
9, 35813, Note_on_c, 8, 68, 0
9, 36096, Note_on_c, 8, 68, 73
9, 36111, Note_on_c, 8, 66, 0
9, 36335, Note_on_c, 8, 68, 0
9, 36480, Note_on_c, 8, 68, 73
9, 36576, Note_on_c, 8, 70, 66
9, 36578, Note_on_c, 8, 68, 0
9, 36672, Note_on_c, 8, 68, 66
9, 36698, Note_on_c, 8, 70, 0
9, 36746, Note_on_c, 8, 68, 0
9, 36768, Note_on_c, 8, 75, 73
9, 36768, Note_on_c, 8, 71, 66
9, 37344, Note_on_c, 8, 73, 73
9, 37344, Note_on_c, 8, 70, 73
9, 37358, Note_on_c, 8, 71, 0
9, 37358, Note_on_c, 8, 75, 0
9, 37632, Note_on_c, 8, 65, 73
9, 37656, Note_on_c, 8, 70, 0
9, 37661, Note_on_c, 8, 73, 0
9, 38112, Note_on_c, 8, 66, 73
9, 38120, Note_on_c, 8, 65, 0
9, 38208, Note_on_c, 8, 65, 66
9, 38225, Note_on_c, 8, 66, 0
9, 38303, Note_on_c, 8, 65, 0
9, 38304, Note_on_c, 8, 68, 73
9, 38880, Note_on_c, 8, 66, 73
9, 38885, Note_on_c, 8, 68, 0
9, 39168, Note_on_c, 8, 68, 73
9, 39183, Note_on_c, 8, 66, 0
9, 39407, Note_on_c, 8, 68, 0
9, 39552, Note_on_c, 8, 68, 73
9, 39648, Note_on_c, 8, 70, 66
9, 39650, Note_on_c, 8, 68, 0
9, 39744, Note_on_c, 8, 68, 66
9, 39770, Note_on_c, 8, 70, 0
9, 39818, Note_on_c, 8, 68, 0
9, 39840, Note_on_c, 8, 75, 73
9, 39840, Note_on_c, 8, 71, 66
9, 40416, Note_on_c, 8, 73, 73
9, 40416, Note_on_c, 8, 70, 73
9, 40430, Note_on_c, 8, 71, 0
9, 40430, Note_on_c, 8, 75, 0
9, 40728, Note_on_c, 8, 70, 0
9, 40733, Note_on_c, 8, 73, 0
9, 43776, Note_on_c, 8, 65, 73
9, 44256, Note_on_c, 8, 66, 73
9, 44264, Note_on_c, 8, 65, 0
9, 44352, Note_on_c, 8, 65, 66
9, 44369, Note_on_c, 8, 66, 0
9, 44447, Note_on_c, 8, 65, 0
9, 44448, Note_on_c, 8, 68, 73
9, 45024, Note_on_c, 8, 66, 73
9, 45029, Note_on_c, 8, 68, 0
9, 45312, Note_on_c, 8, 68, 73
9, 45327, Note_on_c, 8, 66, 0
9, 45551, Note_on_c, 8, 68, 0
9, 45696, Note_on_c, 8, 68, 73
9, 45792, Note_on_c, 8, 70, 66
9, 45794, Note_on_c, 8, 68, 0
9, 45888, Note_on_c, 8, 68, 66
9, 45914, Note_on_c, 8, 70, 0
9, 45962, Note_on_c, 8, 68, 0
9, 45984, Note_on_c, 8, 75, 73
9, 45984, Note_on_c, 8, 71, 66
9, 46560, Note_on_c, 8, 73, 73
9, 46560, Note_on_c, 8, 70, 73
9, 46574, Note_on_c, 8, 71, 0
9, 46574, Note_on_c, 8, 75, 0
9, 46848, Note_on_c, 8, 77, 66
9, 46848, Note_on_c, 8, 68, 66
9, 46849, Note_on_c, 8, 73, 0
9, 46872, Note_on_c, 8, 70, 0
9, 46964, Note_on_c, 8, 77, 0
9, 46976, Note_on_c, 8, 68, 0
9, 47040, Note_on_c, 8, 73, 73
9, 47040, Note_on_c, 8, 68, 73
9, 47040, Note_on_c, 8, 65, 66
9, 47216, Note_on_c, 8, 65, 0
9, 47232, Note_on_c, 8, 68, 0
9, 47244, Note_on_c, 8, 73, 0
9, 48384, Note_on_c, 8, 73, 73
9, 48384, Note_on_c, 8, 68, 66
9, 48384, Note_on_c, 8, 77, 73
9, 48495, Note_on_c, 8, 77, 0
9, 48512, Note_on_c, 8, 68, 0
9, 48517, Note_on_c, 8, 73, 0
9, 48576, Note_on_c, 8, 68, 73
9, 48576, Note_on_c, 8, 73, 73
9, 48576, Note_on_c, 8, 65, 66
9, 48757, Note_on_c, 8, 65, 0
9, 48770, Note_on_c, 8, 68, 0
9, 48776, Note_on_c, 8, 73, 0
9, 49920, Note_on_c, 8, 65, 73
9, 50400, Note_on_c, 8, 66, 73
9, 50408, Note_on_c, 8, 65, 0
9, 50496, Note_on_c, 8, 65, 66
9, 50513, Note_on_c, 8, 66, 0
9, 50591, Note_on_c, 8, 65, 0
9, 50592, Note_on_c, 8, 68, 73
9, 51168, Note_on_c, 8, 66, 73
9, 51173, Note_on_c, 8, 68, 0
9, 51456, Note_on_c, 8, 68, 73
9, 51471, Note_on_c, 8, 66, 0
9, 51695, Note_on_c, 8, 68, 0
9, 51840, Note_on_c, 8, 68, 73
9, 51936, Note_on_c, 8, 70, 66
9, 51938, Note_on_c, 8, 68, 0
9, 52032, Note_on_c, 8, 68, 66
9, 52058, Note_on_c, 8, 70, 0
9, 52106, Note_on_c, 8, 68, 0
9, 52128, Note_on_c, 8, 75, 73
9, 52128, Note_on_c, 8, 71, 66
9, 52704, Note_on_c, 8, 73, 73
9, 52704, Note_on_c, 8, 70, 73
9, 52718, Note_on_c, 8, 71, 0
9, 52718, Note_on_c, 8, 75, 0
9, 52992, Note_on_c, 8, 65, 73
9, 53016, Note_on_c, 8, 70, 0
9, 53021, Note_on_c, 8, 73, 0
9, 53472, Note_on_c, 8, 66, 73
9, 53480, Note_on_c, 8, 65, 0
9, 53568, Note_on_c, 8, 65, 66
9, 53585, Note_on_c, 8, 66, 0
9, 53663, Note_on_c, 8, 65, 0
9, 53664, Note_on_c, 8, 68, 73
9, 54240, Note_on_c, 8, 66, 73
9, 54245, Note_on_c, 8, 68, 0
9, 54528, Note_on_c, 8, 68, 73
9, 54543, Note_on_c, 8, 66, 0
9, 54767, Note_on_c, 8, 68, 0
9, 54912, Note_on_c, 8, 68, 73
9, 55008, Note_on_c, 8, 70, 66
9, 55010, Note_on_c, 8, 68, 0
9, 55104, Note_on_c, 8, 68, 66
9, 55130, Note_on_c, 8, 70, 0
9, 55178, Note_on_c, 8, 68, 0
9, 55200, Note_on_c, 8, 75, 73
9, 55200, Note_on_c, 8, 71, 66
9, 55776, Note_on_c, 8, 73, 73
9, 55776, Note_on_c, 8, 70, 73
9, 55790, Note_on_c, 8, 71, 0
9, 55790, Note_on_c, 8, 75, 0
9, 56064, Note_on_c, 8, 68, 66
9, 56064, Note_on_c, 8, 77, 66
9, 56065, Note_on_c, 8, 73, 0
9, 56088, Note_on_c, 8, 70, 0
9, 56167, Note_on_c, 8, 77, 0
9, 56193, Note_on_c, 8, 68, 0
9, 56256, Note_on_c, 8, 73, 73
9, 56256, Note_on_c, 8, 68, 73
9, 56256, Note_on_c, 8, 65, 73
9, 56424, Note_on_c, 8, 65, 0
9, 56424, Note_on_c, 8, 68, 0
9, 56438, Note_on_c, 8, 73, 0
9, 57600, Note_on_c, 8, 68, 66
9, 57600, Note_on_c, 8, 73, 66
9, 57600, Note_on_c, 8, 77, 73
9, 57707, Note_on_c, 8, 77, 0
9, 57720, Note_on_c, 8, 73, 0
9, 57729, Note_on_c, 8, 68, 0
9, 57792, Note_on_c, 8, 73, 66
9, 57792, Note_on_c, 8, 68, 73
9, 57792, Note_on_c, 8, 65, 66
9, 57949, Note_on_c, 8, 65, 0
9, 57951, Note_on_c, 8, 68, 0
9, 57959, Note_on_c, 8, 73, 0
9, 59136, Note_on_c, 8, 73, 66
9, 59136, Note_on_c, 8, 77, 66
9, 59136, Note_on_c, 8, 68, 66
9, 59255, Note_on_c, 8, 77, 0
9, 59267, Note_on_c, 8, 73, 0
9, 59273, Note_on_c, 8, 68, 0
9, 59328, Note_on_c, 8, 65, 66
9, 59328, Note_on_c, 8, 68, 73
9, 59328, Note_on_c, 8, 73, 73
9, 59483, Note_on_c, 8, 68, 0
9, 59483, Note_on_c, 8, 65, 0
9, 59495, Note_on_c, 8, 73, 0
9, 60672, Note_on_c, 8, 73, 66
9, 60672, Note_on_c, 8, 68, 66
9, 60672, Note_on_c, 8, 77, 66
9, 60776, Note_on_c, 8, 77, 0
9, 60792, Note_on_c, 8, 73, 0
9, 60798, Note_on_c, 8, 68, 0
9, 60864, Note_on_c, 8, 68, 73
9, 60864, Note_on_c, 8, 73, 73
9, 60864, Note_on_c, 8, 65, 66
9, 61036, Note_on_c, 8, 65, 0
9, 61042, Note_on_c, 8, 68, 0
9, 61048, Note_on_c, 8, 73, 0
9, 62208, Note_on_c, 8, 73, 66
9, 62208, Note_on_c, 8, 68, 66
9, 62208, Note_on_c, 8, 77, 73
9, 62318, Note_on_c, 8, 77, 0
9, 62325, Note_on_c, 8, 73, 0
9, 62330, Note_on_c, 8, 68, 0
9, 62400, Note_on_c, 8, 68, 73
9, 62400, Note_on_c, 8, 65, 66
9, 62400, Note_on_c, 8, 73, 73
9, 62555, Note_on_c, 8, 68, 0
9, 62563, Note_on_c, 8, 65, 0
9, 62565, Note_on_c, 8, 73, 0
9, 63744, Note_on_c, 8, 73, 66
9, 63744, Note_on_c, 8, 77, 73
9, 63744, Note_on_c, 8, 68, 66
9, 63850, Note_on_c, 8, 77, 0
9, 63864, Note_on_c, 8, 73, 0
9, 63871, Note_on_c, 8, 68, 0
9, 63936, Note_on_c, 8, 73, 73
9, 63936, Note_on_c, 8, 65, 66
9, 63936, Note_on_c, 8, 68, 73
9, 64099, Note_on_c, 8, 68, 0
9, 64110, Note_on_c, 8, 65, 0
9, 64114, Note_on_c, 8, 73, 0
9, 65280, Note_on_c, 8, 77, 73
9, 65280, Note_on_c, 8, 68, 66
9, 65280, Note_on_c, 8, 73, 73
9, 65408, Note_on_c, 8, 77, 0
9, 65416, Note_on_c, 8, 73, 0
9, 65418, Note_on_c, 8, 68, 0
9, 65472, Note_on_c, 8, 73, 73
9, 65472, Note_on_c, 8, 68, 73
9, 65472, Note_on_c, 8, 65, 66
9, 65625, Note_on_c, 8, 68, 0
9, 65632, Note_on_c, 8, 73, 0
9, 65635, Note_on_c, 8, 65, 0
9, 66816, Note_on_c, 8, 77, 73
9, 66816, Note_on_c, 8, 73, 66
9, 66816, Note_on_c, 8, 68, 66
9, 66931, Note_on_c, 8, 77, 0
9, 66941, Note_on_c, 8, 73, 0
9, 66942, Note_on_c, 8, 68, 0
9, 67008, Note_on_c, 8, 73, 73
9, 67008, Note_on_c, 8, 68, 66
9, 67008, Note_on_c, 8, 65, 66
9, 67178, Note_on_c, 8, 68, 0
9, 67182, Note_on_c, 8, 65, 0
9, 67191, Note_on_c, 8, 73, 0
9, 68352, Note_on_c, 8, 68, 66
9, 68352, Note_on_c, 8, 73, 66
9, 68352, Note_on_c, 8, 77, 73
9, 68468, Note_on_c, 8, 77, 0
9, 68480, Note_on_c, 8, 73, 0
9, 68482, Note_on_c, 8, 68, 0
9, 68544, Note_on_c, 8, 73, 73
9, 68544, Note_on_c, 8, 68, 73
9, 68544, Note_on_c, 8, 65, 66
9, 68711, Note_on_c, 8, 68, 0
9, 68712, Note_on_c, 8, 65, 0
9, 68721, Note_on_c, 8, 73, 0
9, 69888, Note_on_c, 8, 68, 66
9, 69888, Note_on_c, 8, 73, 73
9, 69888, Note_on_c, 8, 77, 73
9, 70007, Note_on_c, 8, 77, 0
9, 70016, Note_on_c, 8, 73, 0
9, 70024, Note_on_c, 8, 68, 0
9, 70080, Note_on_c, 8, 73, 73
9, 70080, Note_on_c, 8, 68, 73
9, 70080, Note_on_c, 8, 65, 73
9, 70240, Note_on_c, 8, 68, 0
9, 70242, Note_on_c, 8, 65, 0
9, 70258, Note_on_c, 8, 73, 0
9, 70258, End_track
10, 0, Start_track
10, 0, MIDI_port, 0
10, 0, Title_t, "Drums & Percussion  "
10, 0, Note_on_c, 9, 42, 106
10, 1, Note_on_c, 9, 42, 0
10, 192, Note_on_c, 9, 42, 84
10, 193, Note_on_c, 9, 42, 0
10, 384, Note_on_c, 9, 42, 84
10, 385, Note_on_c, 9, 42, 0
10, 576, Note_on_c, 9, 42, 84
10, 577, Note_on_c, 9, 42, 0
10, 768, Note_on_c, 9, 38, 114
10, 768, Note_on_c, 9, 42, 106
10, 768, Note_on_c, 9, 54, 116
10, 769, Note_on_c, 9, 54, 0
10, 769, Note_on_c, 9, 42, 0
10, 769, Note_on_c, 9, 38, 0
10, 864, Note_on_c, 9, 42, 84
10, 865, Note_on_c, 9, 42, 0
10, 960, Note_on_c, 9, 38, 114
10, 960, Note_on_c, 9, 42, 106
10, 960, Note_on_c, 9, 54, 116
10, 961, Note_on_c, 9, 54, 0
10, 961, Note_on_c, 9, 42, 0
10, 961, Note_on_c, 9, 38, 0
10, 1056, Note_on_c, 9, 35, 104
10, 1056, Note_on_c, 9, 42, 84
10, 1057, Note_on_c, 9, 42, 0
10, 1057, Note_on_c, 9, 35, 0
10, 1152, Note_on_c, 9, 38, 114
10, 1152, Note_on_c, 9, 42, 106
10, 1153, Note_on_c, 9, 42, 0
10, 1153, Note_on_c, 9, 38, 0
10, 1154, Note_on_c, 9, 54, 116
10, 1155, Note_on_c, 9, 54, 0
10, 1248, Note_on_c, 9, 35, 104
10, 1248, Note_on_c, 9, 42, 84
10, 1249, Note_on_c, 9, 42, 0
10, 1249, Note_on_c, 9, 35, 0
10, 1344, Note_on_c, 9, 38, 114
10, 1344, Note_on_c, 9, 42, 106
10, 1345, Note_on_c, 9, 42, 0
10, 1345, Note_on_c, 9, 38, 0
10, 1346, Note_on_c, 9, 54, 116
10, 1347, Note_on_c, 9, 54, 0
10, 1440, Note_on_c, 9, 35, 104
10, 1440, Note_on_c, 9, 42, 84
10, 1441, Note_on_c, 9, 42, 0
10, 1441, Note_on_c, 9, 35, 0
10, 1536, Note_on_c, 9, 38, 114
10, 1536, Note_on_c, 9, 42, 106
10, 1537, Note_on_c, 9, 42, 0
10, 1537, Note_on_c, 9, 38, 0
10, 1538, Note_on_c, 9, 54, 116
10, 1539, Note_on_c, 9, 54, 0
10, 1632, Note_on_c, 9, 42, 84
10, 1633, Note_on_c, 9, 42, 0
10, 1728, Note_on_c, 9, 38, 114
10, 1728, Note_on_c, 9, 42, 106
10, 1728, Note_on_c, 9, 54, 116
10, 1729, Note_on_c, 9, 54, 0
10, 1729, Note_on_c, 9, 42, 0
10, 1729, Note_on_c, 9, 38, 0
10, 1824, Note_on_c, 9, 35, 104
10, 1824, Note_on_c, 9, 42, 84
10, 1825, Note_on_c, 9, 42, 0
10, 1825, Note_on_c, 9, 35, 0
10, 1920, Note_on_c, 9, 38, 114
10, 1920, Note_on_c, 9, 42, 106
10, 1921, Note_on_c, 9, 42, 0
10, 1921, Note_on_c, 9, 38, 0
10, 1922, Note_on_c, 9, 54, 116
10, 1923, Note_on_c, 9, 54, 0
10, 2016, Note_on_c, 9, 42, 84
10, 2016, Note_on_c, 9, 35, 104
10, 2017, Note_on_c, 9, 35, 0
10, 2017, Note_on_c, 9, 42, 0
10, 2112, Note_on_c, 9, 38, 114
10, 2112, Note_on_c, 9, 42, 106
10, 2113, Note_on_c, 9, 42, 0
10, 2113, Note_on_c, 9, 38, 0
10, 2114, Note_on_c, 9, 54, 116
10, 2115, Note_on_c, 9, 54, 0
10, 2208, Note_on_c, 9, 42, 84
10, 2208, Note_on_c, 9, 35, 104
10, 2209, Note_on_c, 9, 35, 0
10, 2209, Note_on_c, 9, 42, 0
10, 2304, Note_on_c, 9, 38, 114
10, 2304, Note_on_c, 9, 42, 106
10, 2305, Note_on_c, 9, 42, 0
10, 2305, Note_on_c, 9, 38, 0
10, 2306, Note_on_c, 9, 54, 116
10, 2307, Note_on_c, 9, 54, 0
10, 2400, Note_on_c, 9, 42, 84
10, 2401, Note_on_c, 9, 42, 0
10, 2496, Note_on_c, 9, 38, 114
10, 2496, Note_on_c, 9, 42, 106
10, 2497, Note_on_c, 9, 42, 0
10, 2497, Note_on_c, 9, 38, 0
10, 2498, Note_on_c, 9, 54, 116
10, 2499, Note_on_c, 9, 54, 0
10, 2592, Note_on_c, 9, 42, 84
10, 2592, Note_on_c, 9, 35, 104
10, 2593, Note_on_c, 9, 35, 0
10, 2593, Note_on_c, 9, 42, 0
10, 2688, Note_on_c, 9, 38, 114
10, 2688, Note_on_c, 9, 42, 106
10, 2689, Note_on_c, 9, 42, 0
10, 2689, Note_on_c, 9, 38, 0
10, 2690, Note_on_c, 9, 54, 116
10, 2691, Note_on_c, 9, 54, 0
10, 2784, Note_on_c, 9, 42, 84
10, 2784, Note_on_c, 9, 35, 104
10, 2785, Note_on_c, 9, 35, 0
10, 2785, Note_on_c, 9, 42, 0
10, 2880, Note_on_c, 9, 38, 114
10, 2880, Note_on_c, 9, 42, 106
10, 2881, Note_on_c, 9, 42, 0
10, 2881, Note_on_c, 9, 38, 0
10, 2882, Note_on_c, 9, 54, 116
10, 2883, Note_on_c, 9, 54, 0
10, 2976, Note_on_c, 9, 42, 84
10, 2976, Note_on_c, 9, 35, 104
10, 2977, Note_on_c, 9, 35, 0
10, 2977, Note_on_c, 9, 42, 0
10, 3072, Note_on_c, 9, 38, 114
10, 3072, Note_on_c, 9, 42, 106
10, 3073, Note_on_c, 9, 42, 0
10, 3073, Note_on_c, 9, 38, 0
10, 3074, Note_on_c, 9, 54, 116
10, 3075, Note_on_c, 9, 54, 0
10, 3168, Note_on_c, 9, 42, 84
10, 3169, Note_on_c, 9, 42, 0
10, 3264, Note_on_c, 9, 38, 114
10, 3264, Note_on_c, 9, 42, 106
10, 3265, Note_on_c, 9, 42, 0
10, 3265, Note_on_c, 9, 38, 0
10, 3266, Note_on_c, 9, 54, 116
10, 3267, Note_on_c, 9, 54, 0
10, 3312, Note_on_c, 9, 38, 114
10, 3313, Note_on_c, 9, 38, 0
10, 3360, Note_on_c, 9, 35, 104
10, 3361, Note_on_c, 9, 35, 0
10, 3362, Note_on_c, 9, 38, 114
10, 3362, Note_on_c, 9, 42, 84
10, 3363, Note_on_c, 9, 42, 0
10, 3363, Note_on_c, 9, 38, 0
10, 3408, Note_on_c, 9, 38, 114
10, 3409, Note_on_c, 9, 38, 0
10, 3456, Note_on_c, 9, 38, 114
10, 3457, Note_on_c, 9, 38, 0
10, 3458, Note_on_c, 9, 42, 106
10, 3458, Note_on_c, 9, 54, 116
10, 3458, Note_on_c, 9, 50, 104
10, 3459, Note_on_c, 9, 50, 0
10, 3459, Note_on_c, 9, 54, 0
10, 3459, Note_on_c, 9, 42, 0
10, 3504, Note_on_c, 9, 50, 104
10, 3505, Note_on_c, 9, 50, 0
10, 3552, Note_on_c, 9, 35, 104
10, 3553, Note_on_c, 9, 35, 0
10, 3554, Note_on_c, 9, 42, 84
10, 3554, Note_on_c, 9, 50, 104
10, 3555, Note_on_c, 9, 50, 0
10, 3555, Note_on_c, 9, 42, 0
10, 3600, Note_on_c, 9, 50, 104
10, 3601, Note_on_c, 9, 50, 0
10, 3648, Note_on_c, 9, 38, 114
10, 3649, Note_on_c, 9, 38, 0
10, 3650, Note_on_c, 9, 42, 106
10, 3650, Note_on_c, 9, 54, 116
10, 3650, Note_on_c, 9, 43, 104
10, 3651, Note_on_c, 9, 43, 0
10, 3651, Note_on_c, 9, 54, 0
10, 3651, Note_on_c, 9, 42, 0
10, 3696, Note_on_c, 9, 43, 104
10, 3697, Note_on_c, 9, 43, 0
10, 3744, Note_on_c, 9, 35, 104
10, 3745, Note_on_c, 9, 35, 0
10, 3746, Note_on_c, 9, 42, 84
10, 3746, Note_on_c, 9, 43, 104
10, 3747, Note_on_c, 9, 43, 0
10, 3747, Note_on_c, 9, 42, 0
10, 3792, Note_on_c, 9, 43, 104
10, 3793, Note_on_c, 9, 43, 0
10, 3840, Note_on_c, 9, 38, 114
10, 3840, Note_on_c, 9, 42, 106
10, 3841, Note_on_c, 9, 42, 0
10, 3841, Note_on_c, 9, 38, 0
10, 3842, Note_on_c, 9, 49, 94
10, 3842, Note_on_c, 9, 54, 116
10, 3843, Note_on_c, 9, 54, 0
10, 3843, Note_on_c, 9, 49, 0
10, 3936, Note_on_c, 9, 42, 84
10, 3937, Note_on_c, 9, 42, 0
10, 4032, Note_on_c, 9, 38, 114
10, 4032, Note_on_c, 9, 42, 106
10, 4033, Note_on_c, 9, 42, 0
10, 4033, Note_on_c, 9, 38, 0
10, 4034, Note_on_c, 9, 54, 116
10, 4035, Note_on_c, 9, 54, 0
10, 4128, Note_on_c, 9, 42, 84
10, 4128, Note_on_c, 9, 35, 104
10, 4129, Note_on_c, 9, 35, 0
10, 4129, Note_on_c, 9, 42, 0
10, 4224, Note_on_c, 9, 38, 114
10, 4224, Note_on_c, 9, 42, 106
10, 4225, Note_on_c, 9, 42, 0
10, 4225, Note_on_c, 9, 38, 0
10, 4226, Note_on_c, 9, 54, 116
10, 4227, Note_on_c, 9, 54, 0
10, 4320, Note_on_c, 9, 42, 84
10, 4320, Note_on_c, 9, 35, 104
10, 4321, Note_on_c, 9, 35, 0
10, 4321, Note_on_c, 9, 42, 0
10, 4416, Note_on_c, 9, 38, 114
10, 4416, Note_on_c, 9, 42, 106
10, 4417, Note_on_c, 9, 42, 0
10, 4417, Note_on_c, 9, 38, 0
10, 4418, Note_on_c, 9, 54, 116
10, 4419, Note_on_c, 9, 54, 0
10, 4512, Note_on_c, 9, 42, 84
10, 4512, Note_on_c, 9, 35, 104
10, 4513, Note_on_c, 9, 35, 0
10, 4513, Note_on_c, 9, 42, 0
10, 4608, Note_on_c, 9, 38, 114
10, 4608, Note_on_c, 9, 42, 106
10, 4609, Note_on_c, 9, 42, 0
10, 4609, Note_on_c, 9, 38, 0
10, 4610, Note_on_c, 9, 54, 116
10, 4611, Note_on_c, 9, 54, 0
10, 4704, Note_on_c, 9, 42, 84
10, 4705, Note_on_c, 9, 42, 0
10, 4800, Note_on_c, 9, 38, 114
10, 4800, Note_on_c, 9, 42, 106
10, 4801, Note_on_c, 9, 42, 0
10, 4801, Note_on_c, 9, 38, 0
10, 4802, Note_on_c, 9, 54, 116
10, 4803, Note_on_c, 9, 54, 0
10, 4896, Note_on_c, 9, 42, 84
10, 4896, Note_on_c, 9, 35, 104
10, 4897, Note_on_c, 9, 35, 0
10, 4897, Note_on_c, 9, 42, 0
10, 4992, Note_on_c, 9, 38, 114
10, 4992, Note_on_c, 9, 42, 106
10, 4993, Note_on_c, 9, 42, 0
10, 4993, Note_on_c, 9, 38, 0
10, 4994, Note_on_c, 9, 54, 116
10, 4995, Note_on_c, 9, 54, 0
10, 5088, Note_on_c, 9, 42, 84
10, 5088, Note_on_c, 9, 35, 104
10, 5089, Note_on_c, 9, 35, 0
10, 5089, Note_on_c, 9, 42, 0
10, 5184, Note_on_c, 9, 38, 114
10, 5184, Note_on_c, 9, 42, 106
10, 5185, Note_on_c, 9, 42, 0
10, 5185, Note_on_c, 9, 38, 0
10, 5186, Note_on_c, 9, 54, 116
10, 5187, Note_on_c, 9, 54, 0
10, 5280, Note_on_c, 9, 42, 84
10, 5280, Note_on_c, 9, 35, 104
10, 5281, Note_on_c, 9, 35, 0
10, 5281, Note_on_c, 9, 42, 0
10, 5376, Note_on_c, 9, 38, 114
10, 5377, Note_on_c, 9, 38, 0
10, 5378, Note_on_c, 9, 42, 106
10, 5378, Note_on_c, 9, 54, 116
10, 5379, Note_on_c, 9, 54, 0
10, 5379, Note_on_c, 9, 42, 0
10, 5472, Note_on_c, 9, 42, 84
10, 5473, Note_on_c, 9, 42, 0
10, 5568, Note_on_c, 9, 38, 114
10, 5569, Note_on_c, 9, 38, 0
10, 5570, Note_on_c, 9, 42, 106
10, 5570, Note_on_c, 9, 54, 116
10, 5571, Note_on_c, 9, 54, 0
10, 5571, Note_on_c, 9, 42, 0
10, 5664, Note_on_c, 9, 35, 104
10, 5665, Note_on_c, 9, 35, 0
10, 5666, Note_on_c, 9, 42, 84
10, 5667, Note_on_c, 9, 42, 0
10, 5760, Note_on_c, 9, 38, 114
10, 5761, Note_on_c, 9, 38, 0
10, 5762, Note_on_c, 9, 42, 106
10, 5762, Note_on_c, 9, 54, 116
10, 5763, Note_on_c, 9, 54, 0
10, 5763, Note_on_c, 9, 42, 0
10, 5856, Note_on_c, 9, 35, 104
10, 5857, Note_on_c, 9, 35, 0
10, 5858, Note_on_c, 9, 42, 84
10, 5859, Note_on_c, 9, 42, 0
10, 5952, Note_on_c, 9, 38, 114
10, 5953, Note_on_c, 9, 38, 0
10, 5954, Note_on_c, 9, 42, 106
10, 5954, Note_on_c, 9, 54, 116
10, 5955, Note_on_c, 9, 54, 0
10, 5955, Note_on_c, 9, 42, 0
10, 6048, Note_on_c, 9, 35, 104
10, 6048, Note_on_c, 9, 42, 84
10, 6049, Note_on_c, 9, 42, 0
10, 6049, Note_on_c, 9, 35, 0
10, 6144, Note_on_c, 9, 38, 114
10, 6144, Note_on_c, 9, 42, 106
10, 6145, Note_on_c, 9, 42, 0
10, 6145, Note_on_c, 9, 38, 0
10, 6146, Note_on_c, 9, 54, 116
10, 6147, Note_on_c, 9, 54, 0
10, 6240, Note_on_c, 9, 42, 84
10, 6241, Note_on_c, 9, 42, 0
10, 6336, Note_on_c, 9, 38, 114
10, 6336, Note_on_c, 9, 42, 106
10, 6336, Note_on_c, 9, 54, 116
10, 6337, Note_on_c, 9, 54, 0
10, 6337, Note_on_c, 9, 42, 0
10, 6337, Note_on_c, 9, 38, 0
10, 6432, Note_on_c, 9, 35, 104
10, 6432, Note_on_c, 9, 42, 84
10, 6433, Note_on_c, 9, 42, 0
10, 6433, Note_on_c, 9, 35, 0
10, 6528, Note_on_c, 9, 38, 114
10, 6528, Note_on_c, 9, 42, 106
10, 6529, Note_on_c, 9, 42, 0
10, 6529, Note_on_c, 9, 38, 0
10, 6530, Note_on_c, 9, 54, 116
10, 6531, Note_on_c, 9, 54, 0
10, 6624, Note_on_c, 9, 35, 104
10, 6624, Note_on_c, 9, 42, 84
10, 6625, Note_on_c, 9, 42, 0
10, 6625, Note_on_c, 9, 35, 0
10, 6720, Note_on_c, 9, 38, 114
10, 6720, Note_on_c, 9, 42, 106
10, 6720, Note_on_c, 9, 54, 116
10, 6721, Note_on_c, 9, 54, 0
10, 6721, Note_on_c, 9, 42, 0
10, 6721, Note_on_c, 9, 38, 0
10, 6816, Note_on_c, 9, 35, 104
10, 6816, Note_on_c, 9, 42, 84
10, 6817, Note_on_c, 9, 42, 0
10, 6817, Note_on_c, 9, 35, 0
10, 6912, Note_on_c, 9, 38, 114
10, 6912, Note_on_c, 9, 42, 106
10, 6912, Note_on_c, 9, 54, 116
10, 6913, Note_on_c, 9, 54, 0
10, 6913, Note_on_c, 9, 42, 0
10, 6913, Note_on_c, 9, 38, 0
10, 7008, Note_on_c, 9, 42, 84
10, 7009, Note_on_c, 9, 42, 0
10, 7104, Note_on_c, 9, 38, 114
10, 7104, Note_on_c, 9, 42, 106
10, 7104, Note_on_c, 9, 54, 116
10, 7105, Note_on_c, 9, 54, 0
10, 7105, Note_on_c, 9, 42, 0
10, 7105, Note_on_c, 9, 38, 0
10, 7200, Note_on_c, 9, 35, 104
10, 7200, Note_on_c, 9, 42, 84
10, 7201, Note_on_c, 9, 42, 0
10, 7201, Note_on_c, 9, 35, 0
10, 7296, Note_on_c, 9, 38, 114
10, 7296, Note_on_c, 9, 42, 106
10, 7297, Note_on_c, 9, 42, 0
10, 7297, Note_on_c, 9, 38, 0
10, 7298, Note_on_c, 9, 54, 116
10, 7299, Note_on_c, 9, 54, 0
10, 7392, Note_on_c, 9, 35, 104
10, 7392, Note_on_c, 9, 42, 84
10, 7393, Note_on_c, 9, 42, 0
10, 7393, Note_on_c, 9, 35, 0
10, 7488, Note_on_c, 9, 38, 114
10, 7488, Note_on_c, 9, 42, 106
10, 7489, Note_on_c, 9, 42, 0
10, 7489, Note_on_c, 9, 38, 0
10, 7490, Note_on_c, 9, 54, 116
10, 7491, Note_on_c, 9, 54, 0
10, 7584, Note_on_c, 9, 35, 104
10, 7584, Note_on_c, 9, 42, 84
10, 7585, Note_on_c, 9, 42, 0
10, 7585, Note_on_c, 9, 35, 0
10, 7680, Note_on_c, 9, 38, 114
10, 7680, Note_on_c, 9, 42, 106
10, 7681, Note_on_c, 9, 42, 0
10, 7681, Note_on_c, 9, 38, 0
10, 7682, Note_on_c, 9, 54, 116
10, 7683, Note_on_c, 9, 54, 0
10, 7776, Note_on_c, 9, 42, 84
10, 7777, Note_on_c, 9, 42, 0
10, 7872, Note_on_c, 9, 38, 114
10, 7872, Note_on_c, 9, 42, 106
10, 7872, Note_on_c, 9, 54, 116
10, 7873, Note_on_c, 9, 54, 0
10, 7873, Note_on_c, 9, 42, 0
10, 7873, Note_on_c, 9, 38, 0
10, 7968, Note_on_c, 9, 35, 104
10, 7968, Note_on_c, 9, 42, 84
10, 7969, Note_on_c, 9, 42, 0
10, 7969, Note_on_c, 9, 35, 0
10, 8064, Note_on_c, 9, 38, 114
10, 8064, Note_on_c, 9, 42, 106
10, 8065, Note_on_c, 9, 42, 0
10, 8065, Note_on_c, 9, 38, 0
10, 8066, Note_on_c, 9, 54, 116
10, 8067, Note_on_c, 9, 54, 0
10, 8160, Note_on_c, 9, 42, 84
10, 8160, Note_on_c, 9, 35, 104
10, 8161, Note_on_c, 9, 35, 0
10, 8161, Note_on_c, 9, 42, 0
10, 8256, Note_on_c, 9, 38, 114
10, 8256, Note_on_c, 9, 42, 106
10, 8257, Note_on_c, 9, 42, 0
10, 8257, Note_on_c, 9, 38, 0
10, 8258, Note_on_c, 9, 54, 116
10, 8259, Note_on_c, 9, 54, 0
10, 8352, Note_on_c, 9, 42, 84
10, 8352, Note_on_c, 9, 35, 104
10, 8353, Note_on_c, 9, 35, 0
10, 8353, Note_on_c, 9, 42, 0
10, 8448, Note_on_c, 9, 38, 114
10, 8448, Note_on_c, 9, 42, 106
10, 8449, Note_on_c, 9, 42, 0
10, 8449, Note_on_c, 9, 38, 0
10, 8450, Note_on_c, 9, 54, 116
10, 8451, Note_on_c, 9, 54, 0
10, 8544, Note_on_c, 9, 42, 84
10, 8545, Note_on_c, 9, 42, 0
10, 8640, Note_on_c, 9, 38, 114
10, 8640, Note_on_c, 9, 42, 106
10, 8641, Note_on_c, 9, 42, 0
10, 8641, Note_on_c, 9, 38, 0
10, 8642, Note_on_c, 9, 54, 116
10, 8643, Note_on_c, 9, 54, 0
10, 8736, Note_on_c, 9, 42, 84
10, 8736, Note_on_c, 9, 35, 104
10, 8737, Note_on_c, 9, 35, 0
10, 8737, Note_on_c, 9, 42, 0
10, 8832, Note_on_c, 9, 38, 114
10, 8832, Note_on_c, 9, 42, 106
10, 8833, Note_on_c, 9, 42, 0
10, 8833, Note_on_c, 9, 38, 0
10, 8834, Note_on_c, 9, 54, 116
10, 8835, Note_on_c, 9, 54, 0
10, 8928, Note_on_c, 9, 42, 84
10, 8928, Note_on_c, 9, 35, 104
10, 8929, Note_on_c, 9, 35, 0
10, 8929, Note_on_c, 9, 42, 0
10, 9024, Note_on_c, 9, 38, 114
10, 9024, Note_on_c, 9, 42, 106
10, 9025, Note_on_c, 9, 42, 0
10, 9025, Note_on_c, 9, 38, 0
10, 9026, Note_on_c, 9, 54, 116
10, 9027, Note_on_c, 9, 54, 0
10, 9120, Note_on_c, 9, 42, 84
10, 9120, Note_on_c, 9, 35, 104
10, 9121, Note_on_c, 9, 35, 0
10, 9121, Note_on_c, 9, 42, 0
10, 9216, Note_on_c, 9, 38, 114
10, 9216, Note_on_c, 9, 42, 106
10, 9217, Note_on_c, 9, 42, 0
10, 9217, Note_on_c, 9, 38, 0
10, 9218, Note_on_c, 9, 54, 116
10, 9219, Note_on_c, 9, 54, 0
10, 9312, Note_on_c, 9, 42, 84
10, 9313, Note_on_c, 9, 42, 0
10, 9408, Note_on_c, 9, 38, 114
10, 9408, Note_on_c, 9, 42, 106
10, 9409, Note_on_c, 9, 42, 0
10, 9409, Note_on_c, 9, 38, 0
10, 9410, Note_on_c, 9, 54, 116
10, 9411, Note_on_c, 9, 54, 0
10, 9456, Note_on_c, 9, 38, 114
10, 9457, Note_on_c, 9, 38, 0
10, 9504, Note_on_c, 9, 35, 104
10, 9505, Note_on_c, 9, 35, 0
10, 9506, Note_on_c, 9, 38, 114
10, 9506, Note_on_c, 9, 42, 84
10, 9507, Note_on_c, 9, 42, 0
10, 9507, Note_on_c, 9, 38, 0
10, 9552, Note_on_c, 9, 38, 114
10, 9553, Note_on_c, 9, 38, 0
10, 9600, Note_on_c, 9, 38, 114
10, 9601, Note_on_c, 9, 38, 0
10, 9602, Note_on_c, 9, 42, 106
10, 9602, Note_on_c, 9, 54, 116
10, 9602, Note_on_c, 9, 50, 104
10, 9603, Note_on_c, 9, 50, 0
10, 9603, Note_on_c, 9, 54, 0
10, 9603, Note_on_c, 9, 42, 0
10, 9648, Note_on_c, 9, 50, 104
10, 9649, Note_on_c, 9, 50, 0
10, 9696, Note_on_c, 9, 35, 104
10, 9697, Note_on_c, 9, 35, 0
10, 9698, Note_on_c, 9, 42, 84
10, 9698, Note_on_c, 9, 50, 104
10, 9699, Note_on_c, 9, 50, 0
10, 9699, Note_on_c, 9, 42, 0
10, 9744, Note_on_c, 9, 50, 104
10, 9745, Note_on_c, 9, 50, 0
10, 9792, Note_on_c, 9, 38, 114
10, 9793, Note_on_c, 9, 38, 0
10, 9794, Note_on_c, 9, 42, 106
10, 9794, Note_on_c, 9, 54, 116
10, 9794, Note_on_c, 9, 43, 104
10, 9795, Note_on_c, 9, 43, 0
10, 9795, Note_on_c, 9, 54, 0
10, 9795, Note_on_c, 9, 42, 0
10, 9840, Note_on_c, 9, 43, 104
10, 9841, Note_on_c, 9, 43, 0
10, 9888, Note_on_c, 9, 35, 104
10, 9889, Note_on_c, 9, 35, 0
10, 9890, Note_on_c, 9, 42, 84
10, 9890, Note_on_c, 9, 43, 104
10, 9891, Note_on_c, 9, 43, 0
10, 9891, Note_on_c, 9, 42, 0
10, 9936, Note_on_c, 9, 43, 104
10, 9937, Note_on_c, 9, 43, 0
10, 9984, Note_on_c, 9, 38, 114
10, 9985, Note_on_c, 9, 38, 0
10, 9986, Note_on_c, 9, 42, 106
10, 9986, Note_on_c, 9, 54, 116
10, 9987, Note_on_c, 9, 54, 0
10, 9987, Note_on_c, 9, 42, 0
10, 10080, Note_on_c, 9, 42, 84
10, 10081, Note_on_c, 9, 42, 0
10, 10176, Note_on_c, 9, 38, 114
10, 10176, Note_on_c, 9, 42, 106
10, 10176, Note_on_c, 9, 54, 116
10, 10177, Note_on_c, 9, 54, 0
10, 10177, Note_on_c, 9, 42, 0
10, 10177, Note_on_c, 9, 38, 0
10, 10272, Note_on_c, 9, 35, 104
10, 10272, Note_on_c, 9, 42, 84
10, 10273, Note_on_c, 9, 42, 0
10, 10273, Note_on_c, 9, 35, 0
10, 10368, Note_on_c, 9, 38, 114
10, 10368, Note_on_c, 9, 42, 106
10, 10368, Note_on_c, 9, 54, 116
10, 10369, Note_on_c, 9, 54, 0
10, 10369, Note_on_c, 9, 42, 0
10, 10369, Note_on_c, 9, 38, 0
10, 10464, Note_on_c, 9, 35, 104
10, 10464, Note_on_c, 9, 42, 84
10, 10465, Note_on_c, 9, 42, 0
10, 10465, Note_on_c, 9, 35, 0
10, 10560, Note_on_c, 9, 38, 114
10, 10560, Note_on_c, 9, 42, 106
10, 10560, Note_on_c, 9, 54, 116
10, 10561, Note_on_c, 9, 54, 0
10, 10561, Note_on_c, 9, 42, 0
10, 10561, Note_on_c, 9, 38, 0
10, 10656, Note_on_c, 9, 35, 104
10, 10656, Note_on_c, 9, 42, 84
10, 10657, Note_on_c, 9, 42, 0
10, 10657, Note_on_c, 9, 35, 0
10, 10752, Note_on_c, 9, 38, 114
10, 10752, Note_on_c, 9, 42, 106
10, 10752, Note_on_c, 9, 54, 116
10, 10753, Note_on_c, 9, 54, 0
10, 10753, Note_on_c, 9, 42, 0
10, 10753, Note_on_c, 9, 38, 0
10, 10848, Note_on_c, 9, 42, 84
10, 10849, Note_on_c, 9, 42, 0
10, 10944, Note_on_c, 9, 38, 114
10, 10944, Note_on_c, 9, 42, 106
10, 10945, Note_on_c, 9, 42, 0
10, 10945, Note_on_c, 9, 38, 0
10, 10946, Note_on_c, 9, 54, 116
10, 10947, Note_on_c, 9, 54, 0
10, 11040, Note_on_c, 9, 35, 104
10, 11040, Note_on_c, 9, 42, 84
10, 11041, Note_on_c, 9, 42, 0
10, 11041, Note_on_c, 9, 35, 0
10, 11136, Note_on_c, 9, 38, 114
10, 11136, Note_on_c, 9, 42, 106
10, 11136, Note_on_c, 9, 54, 116
10, 11137, Note_on_c, 9, 54, 0
10, 11137, Note_on_c, 9, 42, 0
10, 11137, Note_on_c, 9, 38, 0
10, 11232, Note_on_c, 9, 35, 104
10, 11232, Note_on_c, 9, 42, 84
10, 11233, Note_on_c, 9, 42, 0
10, 11233, Note_on_c, 9, 35, 0
10, 11328, Note_on_c, 9, 38, 114
10, 11328, Note_on_c, 9, 42, 106
10, 11328, Note_on_c, 9, 54, 116
10, 11329, Note_on_c, 9, 54, 0
10, 11329, Note_on_c, 9, 42, 0
10, 11329, Note_on_c, 9, 38, 0
10, 11424, Note_on_c, 9, 35, 104
10, 11424, Note_on_c, 9, 42, 84
10, 11425, Note_on_c, 9, 42, 0
10, 11425, Note_on_c, 9, 35, 0
10, 11520, Note_on_c, 9, 38, 114
10, 11520, Note_on_c, 9, 42, 106
10, 11521, Note_on_c, 9, 42, 0
10, 11521, Note_on_c, 9, 38, 0
10, 11522, Note_on_c, 9, 54, 116
10, 11523, Note_on_c, 9, 54, 0
10, 11616, Note_on_c, 9, 42, 84
10, 11617, Note_on_c, 9, 42, 0
10, 11712, Note_on_c, 9, 38, 114
10, 11712, Note_on_c, 9, 42, 106
10, 11713, Note_on_c, 9, 42, 0
10, 11713, Note_on_c, 9, 38, 0
10, 11714, Note_on_c, 9, 54, 116
10, 11715, Note_on_c, 9, 54, 0
10, 11808, Note_on_c, 9, 35, 104
10, 11808, Note_on_c, 9, 42, 84
10, 11809, Note_on_c, 9, 42, 0
10, 11809, Note_on_c, 9, 35, 0
10, 11904, Note_on_c, 9, 38, 114
10, 11904, Note_on_c, 9, 42, 106
10, 11905, Note_on_c, 9, 42, 0
10, 11905, Note_on_c, 9, 38, 0
10, 11906, Note_on_c, 9, 54, 116
10, 11907, Note_on_c, 9, 54, 0
10, 12000, Note_on_c, 9, 35, 104
10, 12000, Note_on_c, 9, 42, 84
10, 12001, Note_on_c, 9, 42, 0
10, 12001, Note_on_c, 9, 35, 0
10, 12096, Note_on_c, 9, 38, 114
10, 12096, Note_on_c, 9, 42, 106
10, 12097, Note_on_c, 9, 42, 0
10, 12097, Note_on_c, 9, 38, 0
10, 12098, Note_on_c, 9, 54, 116
10, 12099, Note_on_c, 9, 54, 0
10, 12192, Note_on_c, 9, 42, 84
10, 12192, Note_on_c, 9, 35, 104
10, 12193, Note_on_c, 9, 35, 0
10, 12193, Note_on_c, 9, 42, 0
10, 12288, Note_on_c, 9, 38, 114
10, 12288, Note_on_c, 9, 42, 106
10, 12289, Note_on_c, 9, 42, 0
10, 12289, Note_on_c, 9, 38, 0
10, 12290, Note_on_c, 9, 54, 116
10, 12291, Note_on_c, 9, 54, 0
10, 12384, Note_on_c, 9, 42, 84
10, 12385, Note_on_c, 9, 42, 0
10, 12480, Note_on_c, 9, 38, 114
10, 12480, Note_on_c, 9, 42, 106
10, 12481, Note_on_c, 9, 42, 0
10, 12481, Note_on_c, 9, 38, 0
10, 12482, Note_on_c, 9, 54, 116
10, 12483, Note_on_c, 9, 54, 0
10, 12576, Note_on_c, 9, 42, 84
10, 12576, Note_on_c, 9, 35, 104
10, 12577, Note_on_c, 9, 35, 0
10, 12577, Note_on_c, 9, 42, 0
10, 12672, Note_on_c, 9, 38, 114
10, 12672, Note_on_c, 9, 42, 106
10, 12673, Note_on_c, 9, 42, 0
10, 12673, Note_on_c, 9, 38, 0
10, 12674, Note_on_c, 9, 54, 116
10, 12675, Note_on_c, 9, 54, 0
10, 12768, Note_on_c, 9, 42, 84
10, 12768, Note_on_c, 9, 35, 104
10, 12769, Note_on_c, 9, 35, 0
10, 12769, Note_on_c, 9, 42, 0
10, 12864, Note_on_c, 9, 38, 114
10, 12864, Note_on_c, 9, 42, 106
10, 12865, Note_on_c, 9, 42, 0
10, 12865, Note_on_c, 9, 38, 0
10, 12866, Note_on_c, 9, 54, 116
10, 12867, Note_on_c, 9, 54, 0
10, 12960, Note_on_c, 9, 42, 84
10, 12960, Note_on_c, 9, 35, 104
10, 12961, Note_on_c, 9, 35, 0
10, 12961, Note_on_c, 9, 42, 0
10, 13056, Note_on_c, 9, 38, 114
10, 13056, Note_on_c, 9, 42, 106
10, 13057, Note_on_c, 9, 42, 0
10, 13057, Note_on_c, 9, 38, 0
10, 13058, Note_on_c, 9, 54, 116
10, 13059, Note_on_c, 9, 54, 0
10, 13152, Note_on_c, 9, 42, 84
10, 13153, Note_on_c, 9, 42, 0
10, 13248, Note_on_c, 9, 38, 114
10, 13248, Note_on_c, 9, 42, 106
10, 13249, Note_on_c, 9, 42, 0
10, 13249, Note_on_c, 9, 38, 0
10, 13250, Note_on_c, 9, 54, 116
10, 13251, Note_on_c, 9, 54, 0
10, 13344, Note_on_c, 9, 42, 84
10, 13344, Note_on_c, 9, 35, 104
10, 13345, Note_on_c, 9, 35, 0
10, 13345, Note_on_c, 9, 42, 0
10, 13440, Note_on_c, 9, 38, 114
10, 13440, Note_on_c, 9, 42, 106
10, 13441, Note_on_c, 9, 42, 0
10, 13441, Note_on_c, 9, 38, 0
10, 13442, Note_on_c, 9, 54, 116
10, 13443, Note_on_c, 9, 54, 0
10, 13536, Note_on_c, 9, 42, 84
10, 13536, Note_on_c, 9, 35, 104
10, 13537, Note_on_c, 9, 35, 0
10, 13537, Note_on_c, 9, 42, 0
10, 13632, Note_on_c, 9, 38, 114
10, 13633, Note_on_c, 9, 38, 0
10, 13634, Note_on_c, 9, 42, 106
10, 13634, Note_on_c, 9, 54, 116
10, 13635, Note_on_c, 9, 54, 0
10, 13635, Note_on_c, 9, 42, 0
10, 13728, Note_on_c, 9, 35, 104
10, 13729, Note_on_c, 9, 35, 0
10, 13730, Note_on_c, 9, 42, 84
10, 13731, Note_on_c, 9, 42, 0
10, 13824, Note_on_c, 9, 38, 114
10, 13825, Note_on_c, 9, 38, 0
10, 13826, Note_on_c, 9, 42, 106
10, 13826, Note_on_c, 9, 54, 116
10, 13827, Note_on_c, 9, 54, 0
10, 13827, Note_on_c, 9, 42, 0
10, 13920, Note_on_c, 9, 42, 84
10, 13921, Note_on_c, 9, 42, 0
10, 14016, Note_on_c, 9, 38, 114
10, 14017, Note_on_c, 9, 38, 0
10, 14018, Note_on_c, 9, 42, 106
10, 14018, Note_on_c, 9, 54, 116
10, 14019, Note_on_c, 9, 54, 0
10, 14019, Note_on_c, 9, 42, 0
10, 14112, Note_on_c, 9, 35, 104
10, 14112, Note_on_c, 9, 42, 84
10, 14113, Note_on_c, 9, 42, 0
10, 14113, Note_on_c, 9, 35, 0
10, 14208, Note_on_c, 9, 38, 114
10, 14208, Note_on_c, 9, 42, 106
10, 14208, Note_on_c, 9, 54, 116
10, 14209, Note_on_c, 9, 54, 0
10, 14209, Note_on_c, 9, 42, 0
10, 14209, Note_on_c, 9, 38, 0
10, 14304, Note_on_c, 9, 35, 104
10, 14304, Note_on_c, 9, 42, 84
10, 14305, Note_on_c, 9, 42, 0
10, 14305, Note_on_c, 9, 35, 0
10, 14400, Note_on_c, 9, 38, 114
10, 14400, Note_on_c, 9, 42, 106
10, 14400, Note_on_c, 9, 54, 116
10, 14401, Note_on_c, 9, 54, 0
10, 14401, Note_on_c, 9, 42, 0
10, 14401, Note_on_c, 9, 38, 0
10, 14496, Note_on_c, 9, 35, 104
10, 14496, Note_on_c, 9, 42, 84
10, 14497, Note_on_c, 9, 42, 0
10, 14497, Note_on_c, 9, 35, 0
10, 14592, Note_on_c, 9, 38, 114
10, 14592, Note_on_c, 9, 42, 106
10, 14592, Note_on_c, 9, 54, 116
10, 14593, Note_on_c, 9, 54, 0
10, 14593, Note_on_c, 9, 42, 0
10, 14593, Note_on_c, 9, 38, 0
10, 14688, Note_on_c, 9, 42, 84
10, 14689, Note_on_c, 9, 42, 0
10, 14784, Note_on_c, 9, 38, 114
10, 14784, Note_on_c, 9, 42, 106
10, 14785, Note_on_c, 9, 42, 0
10, 14785, Note_on_c, 9, 38, 0
10, 14786, Note_on_c, 9, 54, 116
10, 14787, Note_on_c, 9, 54, 0
10, 14880, Note_on_c, 9, 35, 104
10, 14880, Note_on_c, 9, 42, 84
10, 14881, Note_on_c, 9, 42, 0
10, 14881, Note_on_c, 9, 35, 0
10, 14976, Note_on_c, 9, 38, 114
10, 14976, Note_on_c, 9, 42, 106
10, 14976, Note_on_c, 9, 54, 116
10, 14977, Note_on_c, 9, 54, 0
10, 14977, Note_on_c, 9, 42, 0
10, 14977, Note_on_c, 9, 38, 0
10, 15072, Note_on_c, 9, 35, 104
10, 15072, Note_on_c, 9, 42, 84
10, 15073, Note_on_c, 9, 42, 0
10, 15073, Note_on_c, 9, 35, 0
10, 15168, Note_on_c, 9, 38, 114
10, 15168, Note_on_c, 9, 42, 106
10, 15168, Note_on_c, 9, 54, 116
10, 15169, Note_on_c, 9, 54, 0
10, 15169, Note_on_c, 9, 42, 0
10, 15169, Note_on_c, 9, 38, 0
10, 15264, Note_on_c, 9, 35, 104
10, 15264, Note_on_c, 9, 42, 84
10, 15265, Note_on_c, 9, 42, 0
10, 15265, Note_on_c, 9, 35, 0
10, 15360, Note_on_c, 9, 38, 114
10, 15360, Note_on_c, 9, 42, 106
10, 15360, Note_on_c, 9, 54, 116
10, 15361, Note_on_c, 9, 54, 0
10, 15361, Note_on_c, 9, 42, 0
10, 15361, Note_on_c, 9, 38, 0
10, 15456, Note_on_c, 9, 42, 84
10, 15457, Note_on_c, 9, 42, 0
10, 15552, Note_on_c, 9, 38, 114
10, 15552, Note_on_c, 9, 42, 106
10, 15553, Note_on_c, 9, 42, 0
10, 15553, Note_on_c, 9, 38, 0
10, 15554, Note_on_c, 9, 54, 116
10, 15555, Note_on_c, 9, 54, 0
10, 15648, Note_on_c, 9, 35, 104
10, 15648, Note_on_c, 9, 42, 84
10, 15649, Note_on_c, 9, 42, 0
10, 15649, Note_on_c, 9, 35, 0
10, 15744, Note_on_c, 9, 38, 114
10, 15744, Note_on_c, 9, 42, 106
10, 15745, Note_on_c, 9, 42, 0
10, 15745, Note_on_c, 9, 38, 0
10, 15746, Note_on_c, 9, 54, 116
10, 15747, Note_on_c, 9, 54, 0
10, 15840, Note_on_c, 9, 35, 104
10, 15840, Note_on_c, 9, 42, 84
10, 15841, Note_on_c, 9, 42, 0
10, 15841, Note_on_c, 9, 35, 0
10, 15936, Note_on_c, 9, 38, 114
10, 15936, Note_on_c, 9, 42, 106
10, 15937, Note_on_c, 9, 42, 0
10, 15937, Note_on_c, 9, 38, 0
10, 15938, Note_on_c, 9, 54, 116
10, 15939, Note_on_c, 9, 54, 0
10, 16032, Note_on_c, 9, 35, 104
10, 16032, Note_on_c, 9, 42, 84
10, 16033, Note_on_c, 9, 42, 0
10, 16033, Note_on_c, 9, 35, 0
10, 16128, Note_on_c, 9, 38, 114
10, 16128, Note_on_c, 9, 42, 106
10, 16129, Note_on_c, 9, 42, 0
10, 16129, Note_on_c, 9, 38, 0
10, 16130, Note_on_c, 9, 54, 116
10, 16131, Note_on_c, 9, 54, 0
10, 16224, Note_on_c, 9, 42, 84
10, 16225, Note_on_c, 9, 42, 0
10, 16320, Note_on_c, 9, 38, 114
10, 16320, Note_on_c, 9, 42, 106
10, 16321, Note_on_c, 9, 42, 0
10, 16321, Note_on_c, 9, 38, 0
10, 16322, Note_on_c, 9, 54, 116
10, 16323, Note_on_c, 9, 54, 0
10, 16416, Note_on_c, 9, 42, 84
10, 16416, Note_on_c, 9, 35, 104
10, 16417, Note_on_c, 9, 35, 0
10, 16417, Note_on_c, 9, 42, 0
10, 16512, Note_on_c, 9, 38, 114
10, 16512, Note_on_c, 9, 42, 106
10, 16513, Note_on_c, 9, 42, 0
10, 16513, Note_on_c, 9, 38, 0
10, 16514, Note_on_c, 9, 54, 116
10, 16515, Note_on_c, 9, 54, 0
10, 16608, Note_on_c, 9, 42, 84
10, 16608, Note_on_c, 9, 35, 104
10, 16609, Note_on_c, 9, 35, 0
10, 16609, Note_on_c, 9, 42, 0
10, 16704, Note_on_c, 9, 38, 114
10, 16704, Note_on_c, 9, 42, 106
10, 16705, Note_on_c, 9, 42, 0
10, 16705, Note_on_c, 9, 38, 0
10, 16706, Note_on_c, 9, 54, 116
10, 16707, Note_on_c, 9, 54, 0
10, 16800, Note_on_c, 9, 42, 84
10, 16800, Note_on_c, 9, 35, 104
10, 16801, Note_on_c, 9, 35, 0
10, 16801, Note_on_c, 9, 42, 0
10, 16896, Note_on_c, 9, 38, 114
10, 16896, Note_on_c, 9, 42, 106
10, 16897, Note_on_c, 9, 42, 0
10, 16897, Note_on_c, 9, 38, 0
10, 16898, Note_on_c, 9, 54, 116
10, 16899, Note_on_c, 9, 54, 0
10, 16992, Note_on_c, 9, 42, 84
10, 16993, Note_on_c, 9, 42, 0
10, 17088, Note_on_c, 9, 38, 114
10, 17088, Note_on_c, 9, 42, 106
10, 17089, Note_on_c, 9, 42, 0
10, 17089, Note_on_c, 9, 38, 0
10, 17090, Note_on_c, 9, 54, 116
10, 17091, Note_on_c, 9, 54, 0
10, 17184, Note_on_c, 9, 42, 84
10, 17184, Note_on_c, 9, 35, 104
10, 17185, Note_on_c, 9, 35, 0
10, 17185, Note_on_c, 9, 42, 0
10, 17280, Note_on_c, 9, 38, 114
10, 17280, Note_on_c, 9, 42, 106
10, 17281, Note_on_c, 9, 42, 0
10, 17281, Note_on_c, 9, 38, 0
10, 17282, Note_on_c, 9, 54, 116
10, 17283, Note_on_c, 9, 54, 0
10, 17376, Note_on_c, 9, 42, 84
10, 17376, Note_on_c, 9, 35, 104
10, 17377, Note_on_c, 9, 35, 0
10, 17377, Note_on_c, 9, 42, 0
10, 17472, Note_on_c, 9, 38, 114
10, 17472, Note_on_c, 9, 42, 106
10, 17473, Note_on_c, 9, 42, 0
10, 17473, Note_on_c, 9, 38, 0
10, 17474, Note_on_c, 9, 54, 116
10, 17475, Note_on_c, 9, 54, 0
10, 17568, Note_on_c, 9, 42, 84
10, 17568, Note_on_c, 9, 35, 104
10, 17569, Note_on_c, 9, 35, 0
10, 17569, Note_on_c, 9, 42, 0
10, 17664, Note_on_c, 9, 38, 114
10, 17665, Note_on_c, 9, 38, 0
10, 17666, Note_on_c, 9, 42, 106
10, 17666, Note_on_c, 9, 54, 116
10, 17667, Note_on_c, 9, 54, 0
10, 17667, Note_on_c, 9, 42, 0
10, 17760, Note_on_c, 9, 42, 84
10, 17761, Note_on_c, 9, 42, 0
10, 17856, Note_on_c, 9, 38, 114
10, 17857, Note_on_c, 9, 38, 0
10, 17858, Note_on_c, 9, 42, 106
10, 17858, Note_on_c, 9, 54, 116
10, 17859, Note_on_c, 9, 54, 0
10, 17859, Note_on_c, 9, 42, 0
10, 17952, Note_on_c, 9, 35, 104
10, 17953, Note_on_c, 9, 35, 0
10, 17954, Note_on_c, 9, 42, 84
10, 17955, Note_on_c, 9, 42, 0
10, 18048, Note_on_c, 9, 38, 114
10, 18049, Note_on_c, 9, 38, 0
10, 18050, Note_on_c, 9, 42, 106
10, 18050, Note_on_c, 9, 54, 116
10, 18051, Note_on_c, 9, 54, 0
10, 18051, Note_on_c, 9, 42, 0
10, 18144, Note_on_c, 9, 35, 104
10, 18144, Note_on_c, 9, 42, 84
10, 18145, Note_on_c, 9, 42, 0
10, 18145, Note_on_c, 9, 35, 0
10, 18240, Note_on_c, 9, 38, 114
10, 18240, Note_on_c, 9, 42, 106
10, 18240, Note_on_c, 9, 54, 116
10, 18241, Note_on_c, 9, 54, 0
10, 18241, Note_on_c, 9, 42, 0
10, 18241, Note_on_c, 9, 38, 0
10, 18336, Note_on_c, 9, 35, 104
10, 18336, Note_on_c, 9, 42, 84
10, 18337, Note_on_c, 9, 42, 0
10, 18337, Note_on_c, 9, 35, 0
10, 18432, Note_on_c, 9, 38, 114
10, 18432, Note_on_c, 9, 42, 106
10, 18432, Note_on_c, 9, 54, 116
10, 18433, Note_on_c, 9, 54, 0
10, 18433, Note_on_c, 9, 42, 0
10, 18433, Note_on_c, 9, 38, 0
10, 18528, Note_on_c, 9, 42, 84
10, 18529, Note_on_c, 9, 42, 0
10, 18624, Note_on_c, 9, 38, 114
10, 18624, Note_on_c, 9, 42, 106
10, 18625, Note_on_c, 9, 42, 0
10, 18625, Note_on_c, 9, 38, 0
10, 18626, Note_on_c, 9, 54, 116
10, 18627, Note_on_c, 9, 54, 0
10, 18720, Note_on_c, 9, 35, 104
10, 18720, Note_on_c, 9, 42, 84
10, 18721, Note_on_c, 9, 42, 0
10, 18721, Note_on_c, 9, 35, 0
10, 18816, Note_on_c, 9, 38, 114
10, 18816, Note_on_c, 9, 42, 106
10, 18816, Note_on_c, 9, 54, 116
10, 18817, Note_on_c, 9, 54, 0
10, 18817, Note_on_c, 9, 42, 0
10, 18817, Note_on_c, 9, 38, 0
10, 18912, Note_on_c, 9, 35, 104
10, 18912, Note_on_c, 9, 42, 84
10, 18913, Note_on_c, 9, 42, 0
10, 18913, Note_on_c, 9, 35, 0
10, 19008, Note_on_c, 9, 38, 114
10, 19008, Note_on_c, 9, 42, 106
10, 19008, Note_on_c, 9, 54, 116
10, 19009, Note_on_c, 9, 54, 0
10, 19009, Note_on_c, 9, 42, 0
10, 19009, Note_on_c, 9, 38, 0
10, 19104, Note_on_c, 9, 35, 104
10, 19104, Note_on_c, 9, 42, 84
10, 19105, Note_on_c, 9, 42, 0
10, 19105, Note_on_c, 9, 35, 0
10, 19200, Note_on_c, 9, 38, 114
10, 19200, Note_on_c, 9, 42, 106
10, 19200, Note_on_c, 9, 54, 116
10, 19201, Note_on_c, 9, 54, 0
10, 19201, Note_on_c, 9, 42, 0
10, 19201, Note_on_c, 9, 38, 0
10, 19296, Note_on_c, 9, 42, 84
10, 19297, Note_on_c, 9, 42, 0
10, 19392, Note_on_c, 9, 38, 114
10, 19392, Note_on_c, 9, 42, 106
10, 19393, Note_on_c, 9, 42, 0
10, 19393, Note_on_c, 9, 38, 0
10, 19394, Note_on_c, 9, 54, 116
10, 19395, Note_on_c, 9, 54, 0
10, 19488, Note_on_c, 9, 35, 104
10, 19488, Note_on_c, 9, 42, 84
10, 19489, Note_on_c, 9, 42, 0
10, 19489, Note_on_c, 9, 35, 0
10, 19584, Note_on_c, 9, 38, 114
10, 19584, Note_on_c, 9, 42, 106
10, 19585, Note_on_c, 9, 42, 0
10, 19585, Note_on_c, 9, 38, 0
10, 19586, Note_on_c, 9, 54, 116
10, 19587, Note_on_c, 9, 54, 0
10, 19680, Note_on_c, 9, 35, 104
10, 19680, Note_on_c, 9, 42, 84
10, 19681, Note_on_c, 9, 42, 0
10, 19681, Note_on_c, 9, 35, 0
10, 19776, Note_on_c, 9, 38, 114
10, 19776, Note_on_c, 9, 42, 106
10, 19777, Note_on_c, 9, 42, 0
10, 19777, Note_on_c, 9, 38, 0
10, 19778, Note_on_c, 9, 54, 116
10, 19779, Note_on_c, 9, 54, 0
10, 19872, Note_on_c, 9, 35, 104
10, 19872, Note_on_c, 9, 42, 84
10, 19873, Note_on_c, 9, 42, 0
10, 19873, Note_on_c, 9, 35, 0
10, 19968, Note_on_c, 9, 38, 114
10, 19968, Note_on_c, 9, 42, 106
10, 19969, Note_on_c, 9, 42, 0
10, 19969, Note_on_c, 9, 38, 0
10, 19970, Note_on_c, 9, 54, 116
10, 19971, Note_on_c, 9, 54, 0
10, 20064, Note_on_c, 9, 42, 84
10, 20065, Note_on_c, 9, 42, 0
10, 20160, Note_on_c, 9, 38, 114
10, 20160, Note_on_c, 9, 42, 106
10, 20161, Note_on_c, 9, 42, 0
10, 20161, Note_on_c, 9, 38, 0
10, 20162, Note_on_c, 9, 54, 116
10, 20163, Note_on_c, 9, 54, 0
10, 20256, Note_on_c, 9, 42, 84
10, 20256, Note_on_c, 9, 35, 104
10, 20257, Note_on_c, 9, 35, 0
10, 20257, Note_on_c, 9, 42, 0
10, 20352, Note_on_c, 9, 38, 114
10, 20352, Note_on_c, 9, 42, 106
10, 20353, Note_on_c, 9, 42, 0
10, 20353, Note_on_c, 9, 38, 0
10, 20354, Note_on_c, 9, 54, 116
10, 20355, Note_on_c, 9, 54, 0
10, 20448, Note_on_c, 9, 42, 84
10, 20448, Note_on_c, 9, 35, 104
10, 20449, Note_on_c, 9, 35, 0
10, 20449, Note_on_c, 9, 42, 0
10, 20544, Note_on_c, 9, 38, 114
10, 20544, Note_on_c, 9, 42, 106
10, 20545, Note_on_c, 9, 42, 0
10, 20545, Note_on_c, 9, 38, 0
10, 20546, Note_on_c, 9, 54, 116
10, 20547, Note_on_c, 9, 54, 0
10, 20640, Note_on_c, 9, 42, 84
10, 20640, Note_on_c, 9, 35, 104
10, 20641, Note_on_c, 9, 35, 0
10, 20641, Note_on_c, 9, 42, 0
10, 20736, Note_on_c, 9, 38, 114
10, 20736, Note_on_c, 9, 42, 106
10, 20737, Note_on_c, 9, 42, 0
10, 20737, Note_on_c, 9, 38, 0
10, 20738, Note_on_c, 9, 54, 116
10, 20739, Note_on_c, 9, 54, 0
10, 20832, Note_on_c, 9, 42, 84
10, 20833, Note_on_c, 9, 42, 0
10, 20928, Note_on_c, 9, 38, 114
10, 20928, Note_on_c, 9, 42, 106
10, 20929, Note_on_c, 9, 42, 0
10, 20929, Note_on_c, 9, 38, 0
10, 20930, Note_on_c, 9, 54, 116
10, 20931, Note_on_c, 9, 54, 0
10, 21024, Note_on_c, 9, 42, 84
10, 21024, Note_on_c, 9, 35, 104
10, 21025, Note_on_c, 9, 35, 0
10, 21025, Note_on_c, 9, 42, 0
10, 21120, Note_on_c, 9, 38, 114
10, 21120, Note_on_c, 9, 42, 106
10, 21121, Note_on_c, 9, 42, 0
10, 21121, Note_on_c, 9, 38, 0
10, 21122, Note_on_c, 9, 54, 116
10, 21123, Note_on_c, 9, 54, 0
10, 21216, Note_on_c, 9, 42, 84
10, 21216, Note_on_c, 9, 35, 104
10, 21217, Note_on_c, 9, 35, 0
10, 21217, Note_on_c, 9, 42, 0
10, 21312, Note_on_c, 9, 38, 114
10, 21312, Note_on_c, 9, 42, 106
10, 21313, Note_on_c, 9, 42, 0
10, 21313, Note_on_c, 9, 38, 0
10, 21314, Note_on_c, 9, 54, 116
10, 21315, Note_on_c, 9, 54, 0
10, 21408, Note_on_c, 9, 42, 84
10, 21408, Note_on_c, 9, 35, 104
10, 21409, Note_on_c, 9, 35, 0
10, 21409, Note_on_c, 9, 42, 0
10, 21504, Note_on_c, 9, 38, 114
10, 21504, Note_on_c, 9, 42, 106
10, 21505, Note_on_c, 9, 42, 0
10, 21505, Note_on_c, 9, 38, 0
10, 21506, Note_on_c, 9, 54, 116
10, 21507, Note_on_c, 9, 54, 0
10, 21600, Note_on_c, 9, 42, 84
10, 21601, Note_on_c, 9, 42, 0
10, 21696, Note_on_c, 9, 38, 114
10, 21697, Note_on_c, 9, 38, 0
10, 21698, Note_on_c, 9, 42, 106
10, 21698, Note_on_c, 9, 54, 116
10, 21699, Note_on_c, 9, 54, 0
10, 21699, Note_on_c, 9, 42, 0
10, 21792, Note_on_c, 9, 35, 104
10, 21793, Note_on_c, 9, 35, 0
10, 21794, Note_on_c, 9, 42, 84
10, 21795, Note_on_c, 9, 42, 0
10, 21888, Note_on_c, 9, 38, 114
10, 21889, Note_on_c, 9, 38, 0
10, 21890, Note_on_c, 9, 42, 106
10, 21890, Note_on_c, 9, 54, 116
10, 21891, Note_on_c, 9, 54, 0
10, 21891, Note_on_c, 9, 42, 0
10, 21984, Note_on_c, 9, 35, 104
10, 21985, Note_on_c, 9, 35, 0
10, 21986, Note_on_c, 9, 42, 84
10, 21987, Note_on_c, 9, 42, 0
10, 22080, Note_on_c, 9, 38, 114
10, 22081, Note_on_c, 9, 38, 0
10, 22082, Note_on_c, 9, 42, 106
10, 22082, Note_on_c, 9, 54, 116
10, 22083, Note_on_c, 9, 54, 0
10, 22083, Note_on_c, 9, 42, 0
10, 22176, Note_on_c, 9, 35, 104
10, 22177, Note_on_c, 9, 35, 0
10, 22178, Note_on_c, 9, 42, 84
10, 22179, Note_on_c, 9, 42, 0
10, 22272, Note_on_c, 9, 38, 114
10, 22272, Note_on_c, 9, 42, 106
10, 22272, Note_on_c, 9, 54, 116
10, 22273, Note_on_c, 9, 54, 0
10, 22273, Note_on_c, 9, 42, 0
10, 22273, Note_on_c, 9, 38, 0
10, 22368, Note_on_c, 9, 42, 84
10, 22369, Note_on_c, 9, 42, 0
10, 22464, Note_on_c, 9, 38, 114
10, 22464, Note_on_c, 9, 42, 106
10, 22464, Note_on_c, 9, 54, 116
10, 22465, Note_on_c, 9, 54, 0
10, 22465, Note_on_c, 9, 42, 0
10, 22465, Note_on_c, 9, 38, 0
10, 22560, Note_on_c, 9, 35, 104
10, 22560, Note_on_c, 9, 42, 84
10, 22561, Note_on_c, 9, 42, 0
10, 22561, Note_on_c, 9, 35, 0
10, 22656, Note_on_c, 9, 38, 114
10, 22656, Note_on_c, 9, 42, 106
10, 22656, Note_on_c, 9, 54, 116
10, 22657, Note_on_c, 9, 54, 0
10, 22657, Note_on_c, 9, 42, 0
10, 22657, Note_on_c, 9, 38, 0
10, 22752, Note_on_c, 9, 35, 104
10, 22752, Note_on_c, 9, 42, 84
10, 22753, Note_on_c, 9, 42, 0
10, 22753, Note_on_c, 9, 35, 0
10, 22848, Note_on_c, 9, 38, 114
10, 22848, Note_on_c, 9, 42, 106
10, 22849, Note_on_c, 9, 42, 0
10, 22849, Note_on_c, 9, 38, 0
10, 22850, Note_on_c, 9, 54, 116
10, 22851, Note_on_c, 9, 54, 0
10, 22944, Note_on_c, 9, 35, 104
10, 22944, Note_on_c, 9, 42, 84
10, 22945, Note_on_c, 9, 42, 0
10, 22945, Note_on_c, 9, 35, 0
10, 23040, Note_on_c, 9, 38, 114
10, 23040, Note_on_c, 9, 42, 106
10, 23041, Note_on_c, 9, 42, 0
10, 23041, Note_on_c, 9, 38, 0
10, 23042, Note_on_c, 9, 54, 116
10, 23043, Note_on_c, 9, 54, 0
10, 23136, Note_on_c, 9, 42, 84
10, 23137, Note_on_c, 9, 42, 0
10, 23232, Note_on_c, 9, 38, 114
10, 23232, Note_on_c, 9, 42, 106
10, 23232, Note_on_c, 9, 54, 116
10, 23233, Note_on_c, 9, 54, 0
10, 23233, Note_on_c, 9, 42, 0
10, 23233, Note_on_c, 9, 38, 0
10, 23328, Note_on_c, 9, 35, 104
10, 23328, Note_on_c, 9, 42, 84
10, 23329, Note_on_c, 9, 42, 0
10, 23329, Note_on_c, 9, 35, 0
10, 23424, Note_on_c, 9, 38, 114
10, 23424, Note_on_c, 9, 42, 106
10, 23424, Note_on_c, 9, 54, 116
10, 23425, Note_on_c, 9, 54, 0
10, 23425, Note_on_c, 9, 42, 0
10, 23425, Note_on_c, 9, 38, 0
10, 23472, Note_on_c, 9, 38, 114
10, 23473, Note_on_c, 9, 38, 0
10, 23520, Note_on_c, 9, 35, 104
10, 23520, Note_on_c, 9, 38, 114
10, 23520, Note_on_c, 9, 42, 84
10, 23521, Note_on_c, 9, 42, 0
10, 23521, Note_on_c, 9, 38, 0
10, 23521, Note_on_c, 9, 35, 0
10, 23568, Note_on_c, 9, 38, 114
10, 23569, Note_on_c, 9, 38, 0
10, 23616, Note_on_c, 9, 38, 114
10, 23616, Note_on_c, 9, 42, 106
10, 23617, Note_on_c, 9, 42, 0
10, 23617, Note_on_c, 9, 38, 0
10, 23618, Note_on_c, 9, 54, 116
10, 23619, Note_on_c, 9, 54, 0
10, 23664, Note_on_c, 9, 38, 114
10, 23665, Note_on_c, 9, 38, 0
10, 23712, Note_on_c, 9, 35, 104
10, 23712, Note_on_c, 9, 38, 114
10, 23713, Note_on_c, 9, 38, 0
10, 23713, Note_on_c, 9, 35, 0
10, 23714, Note_on_c, 9, 42, 84
10, 23715, Note_on_c, 9, 42, 0
10, 23808, Note_on_c, 9, 38, 114
10, 23808, Note_on_c, 9, 42, 106
10, 23809, Note_on_c, 9, 42, 0
10, 23809, Note_on_c, 9, 38, 0
10, 23810, Note_on_c, 9, 54, 116
10, 23811, Note_on_c, 9, 54, 0
10, 23904, Note_on_c, 9, 42, 84
10, 23905, Note_on_c, 9, 42, 0
10, 24000, Note_on_c, 9, 38, 114
10, 24000, Note_on_c, 9, 42, 106
10, 24001, Note_on_c, 9, 42, 0
10, 24001, Note_on_c, 9, 38, 0
10, 24002, Note_on_c, 9, 54, 116
10, 24003, Note_on_c, 9, 54, 0
10, 24096, Note_on_c, 9, 35, 104
10, 24096, Note_on_c, 9, 42, 84
10, 24097, Note_on_c, 9, 42, 0
10, 24097, Note_on_c, 9, 35, 0
10, 24192, Note_on_c, 9, 38, 114
10, 24192, Note_on_c, 9, 42, 106
10, 24193, Note_on_c, 9, 42, 0
10, 24193, Note_on_c, 9, 38, 0
10, 24194, Note_on_c, 9, 54, 116
10, 24195, Note_on_c, 9, 54, 0
10, 24288, Note_on_c, 9, 42, 84
10, 24288, Note_on_c, 9, 35, 104
10, 24289, Note_on_c, 9, 35, 0
10, 24289, Note_on_c, 9, 42, 0
10, 24384, Note_on_c, 9, 38, 114
10, 24384, Note_on_c, 9, 42, 106
10, 24385, Note_on_c, 9, 42, 0
10, 24385, Note_on_c, 9, 38, 0
10, 24386, Note_on_c, 9, 54, 116
10, 24387, Note_on_c, 9, 54, 0
10, 24480, Note_on_c, 9, 42, 84
10, 24480, Note_on_c, 9, 35, 104
10, 24481, Note_on_c, 9, 35, 0
10, 24481, Note_on_c, 9, 42, 0
10, 24576, Note_on_c, 9, 38, 114
10, 24576, Note_on_c, 9, 42, 106
10, 24577, Note_on_c, 9, 42, 0
10, 24577, Note_on_c, 9, 38, 0
10, 24578, Note_on_c, 9, 54, 116
10, 24579, Note_on_c, 9, 54, 0
10, 24672, Note_on_c, 9, 42, 84
10, 24673, Note_on_c, 9, 42, 0
10, 24768, Note_on_c, 9, 38, 114
10, 24768, Note_on_c, 9, 42, 106
10, 24769, Note_on_c, 9, 42, 0
10, 24769, Note_on_c, 9, 38, 0
10, 24770, Note_on_c, 9, 54, 116
10, 24771, Note_on_c, 9, 54, 0
10, 24864, Note_on_c, 9, 42, 84
10, 24864, Note_on_c, 9, 35, 104
10, 24865, Note_on_c, 9, 35, 0
10, 24865, Note_on_c, 9, 42, 0
10, 24960, Note_on_c, 9, 38, 114
10, 24960, Note_on_c, 9, 42, 106
10, 24961, Note_on_c, 9, 42, 0
10, 24961, Note_on_c, 9, 38, 0
10, 24962, Note_on_c, 9, 54, 116
10, 24963, Note_on_c, 9, 54, 0
10, 25056, Note_on_c, 9, 42, 84
10, 25056, Note_on_c, 9, 35, 104
10, 25057, Note_on_c, 9, 35, 0
10, 25057, Note_on_c, 9, 42, 0
10, 25152, Note_on_c, 9, 38, 114
10, 25152, Note_on_c, 9, 42, 106
10, 25153, Note_on_c, 9, 42, 0
10, 25153, Note_on_c, 9, 38, 0
10, 25154, Note_on_c, 9, 54, 116
10, 25155, Note_on_c, 9, 54, 0
10, 25248, Note_on_c, 9, 42, 84
10, 25248, Note_on_c, 9, 35, 104
10, 25249, Note_on_c, 9, 35, 0
10, 25249, Note_on_c, 9, 42, 0
10, 25344, Note_on_c, 9, 38, 114
10, 25344, Note_on_c, 9, 42, 106
10, 25345, Note_on_c, 9, 42, 0
10, 25345, Note_on_c, 9, 38, 0
10, 25346, Note_on_c, 9, 54, 116
10, 25347, Note_on_c, 9, 54, 0
10, 25440, Note_on_c, 9, 42, 84
10, 25441, Note_on_c, 9, 42, 0
10, 25536, Note_on_c, 9, 38, 114
10, 25536, Note_on_c, 9, 42, 106
10, 25537, Note_on_c, 9, 42, 0
10, 25537, Note_on_c, 9, 38, 0
10, 25538, Note_on_c, 9, 54, 116
10, 25539, Note_on_c, 9, 54, 0
10, 25632, Note_on_c, 9, 42, 84
10, 25632, Note_on_c, 9, 35, 104
10, 25633, Note_on_c, 9, 35, 0
10, 25633, Note_on_c, 9, 42, 0
10, 25728, Note_on_c, 9, 38, 114
10, 25729, Note_on_c, 9, 38, 0
10, 25730, Note_on_c, 9, 42, 106
10, 25730, Note_on_c, 9, 54, 116
10, 25731, Note_on_c, 9, 54, 0
10, 25731, Note_on_c, 9, 42, 0
10, 25824, Note_on_c, 9, 35, 104
10, 25825, Note_on_c, 9, 35, 0
10, 25826, Note_on_c, 9, 42, 84
10, 25827, Note_on_c, 9, 42, 0
10, 25920, Note_on_c, 9, 38, 114
10, 25921, Note_on_c, 9, 38, 0
10, 25922, Note_on_c, 9, 42, 106
10, 25922, Note_on_c, 9, 54, 116
10, 25923, Note_on_c, 9, 54, 0
10, 25923, Note_on_c, 9, 42, 0
10, 26016, Note_on_c, 9, 35, 104
10, 26017, Note_on_c, 9, 35, 0
10, 26018, Note_on_c, 9, 42, 84
10, 26019, Note_on_c, 9, 42, 0
10, 26112, Note_on_c, 9, 38, 114
10, 26113, Note_on_c, 9, 38, 0
10, 26114, Note_on_c, 9, 42, 106
10, 26114, Note_on_c, 9, 54, 116
10, 26115, Note_on_c, 9, 54, 0
10, 26115, Note_on_c, 9, 42, 0
10, 26208, Note_on_c, 9, 42, 84
10, 26209, Note_on_c, 9, 42, 0
10, 26304, Note_on_c, 9, 38, 114
10, 26304, Note_on_c, 9, 42, 106
10, 26304, Note_on_c, 9, 54, 116
10, 26305, Note_on_c, 9, 54, 0
10, 26305, Note_on_c, 9, 42, 0
10, 26305, Note_on_c, 9, 38, 0
10, 26400, Note_on_c, 9, 35, 104
10, 26400, Note_on_c, 9, 42, 84
10, 26401, Note_on_c, 9, 42, 0
10, 26401, Note_on_c, 9, 35, 0
10, 26496, Note_on_c, 9, 38, 114
10, 26496, Note_on_c, 9, 42, 106
10, 26496, Note_on_c, 9, 54, 116
10, 26497, Note_on_c, 9, 54, 0
10, 26497, Note_on_c, 9, 42, 0
10, 26497, Note_on_c, 9, 38, 0
10, 26592, Note_on_c, 9, 35, 104
10, 26592, Note_on_c, 9, 42, 84
10, 26593, Note_on_c, 9, 42, 0
10, 26593, Note_on_c, 9, 35, 0
10, 26688, Note_on_c, 9, 38, 114
10, 26688, Note_on_c, 9, 42, 106
10, 26688, Note_on_c, 9, 54, 116
10, 26689, Note_on_c, 9, 54, 0
10, 26689, Note_on_c, 9, 42, 0
10, 26689, Note_on_c, 9, 38, 0
10, 26784, Note_on_c, 9, 35, 104
10, 26784, Note_on_c, 9, 42, 84
10, 26785, Note_on_c, 9, 42, 0
10, 26785, Note_on_c, 9, 35, 0
10, 26880, Note_on_c, 9, 38, 114
10, 26880, Note_on_c, 9, 42, 106
10, 26880, Note_on_c, 9, 54, 116
10, 26881, Note_on_c, 9, 54, 0
10, 26881, Note_on_c, 9, 42, 0
10, 26881, Note_on_c, 9, 38, 0
10, 26976, Note_on_c, 9, 42, 84
10, 26977, Note_on_c, 9, 42, 0
10, 27072, Note_on_c, 9, 38, 114
10, 27072, Note_on_c, 9, 42, 106
10, 27073, Note_on_c, 9, 42, 0
10, 27073, Note_on_c, 9, 38, 0
10, 27074, Note_on_c, 9, 54, 116
10, 27075, Note_on_c, 9, 54, 0
10, 27168, Note_on_c, 9, 35, 104
10, 27168, Note_on_c, 9, 42, 84
10, 27169, Note_on_c, 9, 42, 0
10, 27169, Note_on_c, 9, 35, 0
10, 27264, Note_on_c, 9, 38, 114
10, 27264, Note_on_c, 9, 42, 106
10, 27264, Note_on_c, 9, 54, 116
10, 27265, Note_on_c, 9, 54, 0
10, 27265, Note_on_c, 9, 42, 0
10, 27265, Note_on_c, 9, 38, 0
10, 27360, Note_on_c, 9, 35, 104
10, 27360, Note_on_c, 9, 42, 84
10, 27361, Note_on_c, 9, 42, 0
10, 27361, Note_on_c, 9, 35, 0
10, 27456, Note_on_c, 9, 38, 114
10, 27456, Note_on_c, 9, 42, 106
10, 27456, Note_on_c, 9, 54, 116
10, 27457, Note_on_c, 9, 54, 0
10, 27457, Note_on_c, 9, 42, 0
10, 27457, Note_on_c, 9, 38, 0
10, 27552, Note_on_c, 9, 35, 104
10, 27552, Note_on_c, 9, 42, 84
10, 27553, Note_on_c, 9, 42, 0
10, 27553, Note_on_c, 9, 35, 0
10, 27648, Note_on_c, 9, 38, 114
10, 27648, Note_on_c, 9, 42, 106
10, 27649, Note_on_c, 9, 42, 0
10, 27649, Note_on_c, 9, 38, 0
10, 27650, Note_on_c, 9, 54, 116
10, 27651, Note_on_c, 9, 54, 0
10, 27744, Note_on_c, 9, 42, 84
10, 27745, Note_on_c, 9, 42, 0
10, 27840, Note_on_c, 9, 38, 114
10, 27840, Note_on_c, 9, 42, 106
10, 27841, Note_on_c, 9, 42, 0
10, 27841, Note_on_c, 9, 38, 0
10, 27842, Note_on_c, 9, 54, 116
10, 27843, Note_on_c, 9, 54, 0
10, 27936, Note_on_c, 9, 35, 104
10, 27936, Note_on_c, 9, 42, 84
10, 27937, Note_on_c, 9, 42, 0
10, 27937, Note_on_c, 9, 35, 0
10, 28032, Note_on_c, 9, 38, 114
10, 28032, Note_on_c, 9, 42, 106
10, 28033, Note_on_c, 9, 42, 0
10, 28033, Note_on_c, 9, 38, 0
10, 28034, Note_on_c, 9, 54, 116
10, 28035, Note_on_c, 9, 54, 0
10, 28128, Note_on_c, 9, 35, 104
10, 28128, Note_on_c, 9, 42, 84
10, 28129, Note_on_c, 9, 42, 0
10, 28129, Note_on_c, 9, 35, 0
10, 28224, Note_on_c, 9, 38, 114
10, 28224, Note_on_c, 9, 42, 106
10, 28225, Note_on_c, 9, 42, 0
10, 28225, Note_on_c, 9, 38, 0
10, 28226, Note_on_c, 9, 54, 116
10, 28227, Note_on_c, 9, 54, 0
10, 28320, Note_on_c, 9, 35, 104
10, 28320, Note_on_c, 9, 42, 84
10, 28321, Note_on_c, 9, 42, 0
10, 28321, Note_on_c, 9, 35, 0
10, 28416, Note_on_c, 9, 38, 114
10, 28416, Note_on_c, 9, 42, 106
10, 28417, Note_on_c, 9, 42, 0
10, 28417, Note_on_c, 9, 38, 0
10, 28418, Note_on_c, 9, 49, 94
10, 28418, Note_on_c, 9, 54, 116
10, 28419, Note_on_c, 9, 54, 0
10, 28419, Note_on_c, 9, 49, 0
10, 28512, Note_on_c, 9, 42, 84
10, 28513, Note_on_c, 9, 42, 0
10, 28608, Note_on_c, 9, 38, 114
10, 28608, Note_on_c, 9, 42, 106
10, 28609, Note_on_c, 9, 42, 0
10, 28609, Note_on_c, 9, 38, 0
10, 28610, Note_on_c, 9, 54, 116
10, 28611, Note_on_c, 9, 54, 0
10, 28704, Note_on_c, 9, 42, 84
10, 28704, Note_on_c, 9, 35, 104
10, 28705, Note_on_c, 9, 35, 0
10, 28705, Note_on_c, 9, 42, 0
10, 28800, Note_on_c, 9, 38, 114
10, 28800, Note_on_c, 9, 42, 106
10, 28801, Note_on_c, 9, 42, 0
10, 28801, Note_on_c, 9, 38, 0
10, 28802, Note_on_c, 9, 54, 116
10, 28803, Note_on_c, 9, 54, 0
10, 28896, Note_on_c, 9, 42, 84
10, 28896, Note_on_c, 9, 35, 104
10, 28897, Note_on_c, 9, 35, 0
10, 28897, Note_on_c, 9, 42, 0
10, 28992, Note_on_c, 9, 38, 114
10, 28992, Note_on_c, 9, 42, 106
10, 28993, Note_on_c, 9, 42, 0
10, 28993, Note_on_c, 9, 38, 0
10, 28994, Note_on_c, 9, 54, 116
10, 28995, Note_on_c, 9, 54, 0
10, 29088, Note_on_c, 9, 42, 84
10, 29088, Note_on_c, 9, 35, 104
10, 29089, Note_on_c, 9, 35, 0
10, 29089, Note_on_c, 9, 42, 0
10, 29184, Note_on_c, 9, 38, 114
10, 29184, Note_on_c, 9, 42, 106
10, 29185, Note_on_c, 9, 42, 0
10, 29185, Note_on_c, 9, 38, 0
10, 29186, Note_on_c, 9, 54, 116
10, 29187, Note_on_c, 9, 54, 0
10, 29280, Note_on_c, 9, 42, 84
10, 29281, Note_on_c, 9, 42, 0
10, 29376, Note_on_c, 9, 38, 114
10, 29376, Note_on_c, 9, 42, 106
10, 29377, Note_on_c, 9, 42, 0
10, 29377, Note_on_c, 9, 38, 0
10, 29378, Note_on_c, 9, 54, 116
10, 29379, Note_on_c, 9, 54, 0
10, 29472, Note_on_c, 9, 42, 84
10, 29472, Note_on_c, 9, 35, 104
10, 29473, Note_on_c, 9, 35, 0
10, 29473, Note_on_c, 9, 42, 0
10, 29568, Note_on_c, 9, 38, 114
10, 29568, Note_on_c, 9, 42, 106
10, 29569, Note_on_c, 9, 42, 0
10, 29569, Note_on_c, 9, 38, 0
10, 29570, Note_on_c, 9, 54, 116
10, 29571, Note_on_c, 9, 54, 0
10, 29616, Note_on_c, 9, 38, 114
10, 29617, Note_on_c, 9, 38, 0
10, 29664, Note_on_c, 9, 38, 114
10, 29664, Note_on_c, 9, 35, 104
10, 29665, Note_on_c, 9, 35, 0
10, 29665, Note_on_c, 9, 38, 0
10, 29666, Note_on_c, 9, 42, 84
10, 29667, Note_on_c, 9, 42, 0
10, 29712, Note_on_c, 9, 38, 114
10, 29713, Note_on_c, 9, 38, 0
10, 29760, Note_on_c, 9, 38, 114
10, 29760, Note_on_c, 9, 42, 106
10, 29761, Note_on_c, 9, 42, 0
10, 29761, Note_on_c, 9, 38, 0
10, 29762, Note_on_c, 9, 54, 116
10, 29762, Note_on_c, 9, 50, 104
10, 29763, Note_on_c, 9, 50, 0
10, 29763, Note_on_c, 9, 54, 0
10, 29808, Note_on_c, 9, 50, 104
10, 29809, Note_on_c, 9, 50, 0
10, 29856, Note_on_c, 9, 35, 104
10, 29857, Note_on_c, 9, 35, 0
10, 29858, Note_on_c, 9, 42, 84
10, 29858, Note_on_c, 9, 43, 104
10, 29859, Note_on_c, 9, 43, 0
10, 29859, Note_on_c, 9, 42, 0
10, 29904, Note_on_c, 9, 43, 104
10, 29905, Note_on_c, 9, 43, 0
10, 29952, Note_on_c, 9, 38, 114
10, 29953, Note_on_c, 9, 38, 0
10, 29954, Note_on_c, 9, 42, 106
10, 29954, Note_on_c, 9, 49, 94
10, 29954, Note_on_c, 9, 54, 116
10, 29955, Note_on_c, 9, 54, 0
10, 29955, Note_on_c, 9, 49, 0
10, 29955, Note_on_c, 9, 42, 0
10, 30048, Note_on_c, 9, 42, 84
10, 30049, Note_on_c, 9, 42, 0
10, 30144, Note_on_c, 9, 38, 114
10, 30145, Note_on_c, 9, 38, 0
10, 30146, Note_on_c, 9, 42, 106
10, 30146, Note_on_c, 9, 54, 116
10, 30147, Note_on_c, 9, 54, 0
10, 30147, Note_on_c, 9, 42, 0
10, 30240, Note_on_c, 9, 35, 104
10, 30241, Note_on_c, 9, 35, 0
10, 30242, Note_on_c, 9, 42, 84
10, 30243, Note_on_c, 9, 42, 0
10, 30336, Note_on_c, 9, 38, 114
10, 30336, Note_on_c, 9, 42, 106
10, 30336, Note_on_c, 9, 54, 116
10, 30337, Note_on_c, 9, 54, 0
10, 30337, Note_on_c, 9, 42, 0
10, 30337, Note_on_c, 9, 38, 0
10, 30432, Note_on_c, 9, 35, 104
10, 30432, Note_on_c, 9, 42, 84
10, 30433, Note_on_c, 9, 42, 0
10, 30433, Note_on_c, 9, 35, 0
10, 30528, Note_on_c, 9, 38, 114
10, 30528, Note_on_c, 9, 42, 106
10, 30528, Note_on_c, 9, 54, 116
10, 30529, Note_on_c, 9, 54, 0
10, 30529, Note_on_c, 9, 42, 0
10, 30529, Note_on_c, 9, 38, 0
10, 30624, Note_on_c, 9, 35, 104
10, 30624, Note_on_c, 9, 42, 84
10, 30625, Note_on_c, 9, 42, 0
10, 30625, Note_on_c, 9, 35, 0
10, 30720, Note_on_c, 9, 38, 114
10, 30720, Note_on_c, 9, 42, 106
10, 30720, Note_on_c, 9, 54, 116
10, 30721, Note_on_c, 9, 54, 0
10, 30721, Note_on_c, 9, 42, 0
10, 30721, Note_on_c, 9, 38, 0
10, 30816, Note_on_c, 9, 42, 84
10, 30817, Note_on_c, 9, 42, 0
10, 30912, Note_on_c, 9, 38, 114
10, 30912, Note_on_c, 9, 42, 106
10, 30912, Note_on_c, 9, 54, 116
10, 30913, Note_on_c, 9, 54, 0
10, 30913, Note_on_c, 9, 42, 0
10, 30913, Note_on_c, 9, 38, 0
10, 31008, Note_on_c, 9, 35, 104
10, 31008, Note_on_c, 9, 42, 84
10, 31009, Note_on_c, 9, 42, 0
10, 31009, Note_on_c, 9, 35, 0
10, 31104, Note_on_c, 9, 38, 114
10, 31104, Note_on_c, 9, 42, 106
10, 31104, Note_on_c, 9, 54, 116
10, 31105, Note_on_c, 9, 54, 0
10, 31105, Note_on_c, 9, 42, 0
10, 31105, Note_on_c, 9, 38, 0
10, 31200, Note_on_c, 9, 35, 104
10, 31200, Note_on_c, 9, 42, 84
10, 31201, Note_on_c, 9, 42, 0
10, 31201, Note_on_c, 9, 35, 0
10, 31296, Note_on_c, 9, 38, 114
10, 31296, Note_on_c, 9, 42, 106
10, 31296, Note_on_c, 9, 54, 116
10, 31297, Note_on_c, 9, 54, 0
10, 31297, Note_on_c, 9, 42, 0
10, 31297, Note_on_c, 9, 38, 0
10, 31392, Note_on_c, 9, 35, 104
10, 31392, Note_on_c, 9, 42, 84
10, 31393, Note_on_c, 9, 42, 0
10, 31393, Note_on_c, 9, 35, 0
10, 31488, Note_on_c, 9, 38, 114
10, 31488, Note_on_c, 9, 42, 106
10, 31489, Note_on_c, 9, 42, 0
10, 31489, Note_on_c, 9, 38, 0
10, 31490, Note_on_c, 9, 49, 94
10, 31490, Note_on_c, 9, 54, 116
10, 31491, Note_on_c, 9, 54, 0
10, 31491, Note_on_c, 9, 49, 0
10, 31584, Note_on_c, 9, 42, 84
10, 31585, Note_on_c, 9, 42, 0
10, 31680, Note_on_c, 9, 38, 114
10, 31680, Note_on_c, 9, 42, 106
10, 31680, Note_on_c, 9, 54, 116
10, 31681, Note_on_c, 9, 54, 0
10, 31681, Note_on_c, 9, 42, 0
10, 31681, Note_on_c, 9, 38, 0
10, 31776, Note_on_c, 9, 35, 104
10, 31776, Note_on_c, 9, 42, 84
10, 31777, Note_on_c, 9, 42, 0
10, 31777, Note_on_c, 9, 35, 0
10, 31872, Note_on_c, 9, 38, 114
10, 31872, Note_on_c, 9, 42, 106
10, 31873, Note_on_c, 9, 42, 0
10, 31873, Note_on_c, 9, 38, 0
10, 31874, Note_on_c, 9, 54, 116
10, 31875, Note_on_c, 9, 54, 0
10, 31968, Note_on_c, 9, 35, 104
10, 31968, Note_on_c, 9, 42, 84
10, 31969, Note_on_c, 9, 42, 0
10, 31969, Note_on_c, 9, 35, 0
10, 32064, Note_on_c, 9, 38, 114
10, 32064, Note_on_c, 9, 42, 106
10, 32065, Note_on_c, 9, 42, 0
10, 32065, Note_on_c, 9, 38, 0
10, 32066, Note_on_c, 9, 54, 116
10, 32067, Note_on_c, 9, 54, 0
10, 32160, Note_on_c, 9, 35, 104
10, 32160, Note_on_c, 9, 42, 84
10, 32161, Note_on_c, 9, 42, 0
10, 32161, Note_on_c, 9, 35, 0
10, 32256, Note_on_c, 9, 38, 114
10, 32256, Note_on_c, 9, 42, 106
10, 32257, Note_on_c, 9, 42, 0
10, 32257, Note_on_c, 9, 38, 0
10, 32258, Note_on_c, 9, 54, 116
10, 32259, Note_on_c, 9, 54, 0
10, 32352, Note_on_c, 9, 42, 84
10, 32353, Note_on_c, 9, 42, 0
10, 32448, Note_on_c, 9, 38, 114
10, 32448, Note_on_c, 9, 42, 106
10, 32449, Note_on_c, 9, 42, 0
10, 32449, Note_on_c, 9, 38, 0
10, 32450, Note_on_c, 9, 54, 116
10, 32451, Note_on_c, 9, 54, 0
10, 32544, Note_on_c, 9, 42, 84
10, 32544, Note_on_c, 9, 35, 104
10, 32545, Note_on_c, 9, 35, 0
10, 32545, Note_on_c, 9, 42, 0
10, 32640, Note_on_c, 9, 38, 114
10, 32640, Note_on_c, 9, 42, 106
10, 32641, Note_on_c, 9, 42, 0
10, 32641, Note_on_c, 9, 38, 0
10, 32642, Note_on_c, 9, 54, 116
10, 32643, Note_on_c, 9, 54, 0
10, 32688, Note_on_c, 9, 38, 114
10, 32689, Note_on_c, 9, 38, 0
10, 32736, Note_on_c, 9, 38, 114
10, 32736, Note_on_c, 9, 35, 104
10, 32737, Note_on_c, 9, 35, 0
10, 32737, Note_on_c, 9, 38, 0
10, 32738, Note_on_c, 9, 42, 84
10, 32739, Note_on_c, 9, 42, 0
10, 32784, Note_on_c, 9, 38, 114
10, 32785, Note_on_c, 9, 38, 0
10, 32832, Note_on_c, 9, 38, 114
10, 32832, Note_on_c, 9, 42, 106
10, 32833, Note_on_c, 9, 42, 0
10, 32833, Note_on_c, 9, 38, 0
10, 32834, Note_on_c, 9, 54, 116
10, 32834, Note_on_c, 9, 50, 104
10, 32835, Note_on_c, 9, 50, 0
10, 32835, Note_on_c, 9, 54, 0
10, 32880, Note_on_c, 9, 50, 104
10, 32881, Note_on_c, 9, 50, 0
10, 32928, Note_on_c, 9, 42, 84
10, 32928, Note_on_c, 9, 35, 104
10, 32929, Note_on_c, 9, 35, 0
10, 32929, Note_on_c, 9, 42, 0
10, 32930, Note_on_c, 9, 43, 104
10, 32931, Note_on_c, 9, 43, 0
10, 32976, Note_on_c, 9, 43, 104
10, 32977, Note_on_c, 9, 43, 0
10, 33024, Note_on_c, 9, 38, 114
10, 33024, Note_on_c, 9, 42, 106
10, 33025, Note_on_c, 9, 42, 0
10, 33025, Note_on_c, 9, 38, 0
10, 33026, Note_on_c, 9, 49, 94
10, 33026, Note_on_c, 9, 54, 116
10, 33027, Note_on_c, 9, 54, 0
10, 33027, Note_on_c, 9, 49, 0
10, 33120, Note_on_c, 9, 42, 84
10, 33121, Note_on_c, 9, 42, 0
10, 33216, Note_on_c, 9, 38, 114
10, 33216, Note_on_c, 9, 42, 106
10, 33217, Note_on_c, 9, 42, 0
10, 33217, Note_on_c, 9, 38, 0
10, 33218, Note_on_c, 9, 54, 116
10, 33219, Note_on_c, 9, 54, 0
10, 33312, Note_on_c, 9, 42, 84
10, 33312, Note_on_c, 9, 35, 104
10, 33313, Note_on_c, 9, 35, 0
10, 33313, Note_on_c, 9, 42, 0
10, 33408, Note_on_c, 9, 38, 114
10, 33408, Note_on_c, 9, 42, 106
10, 33409, Note_on_c, 9, 42, 0
10, 33409, Note_on_c, 9, 38, 0
10, 33410, Note_on_c, 9, 54, 116
10, 33411, Note_on_c, 9, 54, 0
10, 33504, Note_on_c, 9, 42, 84
10, 33504, Note_on_c, 9, 35, 104
10, 33505, Note_on_c, 9, 35, 0
10, 33505, Note_on_c, 9, 42, 0
10, 33600, Note_on_c, 9, 38, 114
10, 33600, Note_on_c, 9, 42, 106
10, 33601, Note_on_c, 9, 42, 0
10, 33601, Note_on_c, 9, 38, 0
10, 33602, Note_on_c, 9, 54, 116
10, 33603, Note_on_c, 9, 54, 0
10, 33696, Note_on_c, 9, 42, 84
10, 33696, Note_on_c, 9, 35, 104
10, 33697, Note_on_c, 9, 35, 0
10, 33697, Note_on_c, 9, 42, 0
10, 33792, Note_on_c, 9, 38, 114
10, 33793, Note_on_c, 9, 38, 0
10, 33794, Note_on_c, 9, 42, 106
10, 33794, Note_on_c, 9, 54, 116
10, 33795, Note_on_c, 9, 54, 0
10, 33795, Note_on_c, 9, 42, 0
10, 33888, Note_on_c, 9, 42, 84
10, 33889, Note_on_c, 9, 42, 0
10, 33984, Note_on_c, 9, 38, 114
10, 33985, Note_on_c, 9, 38, 0
10, 33986, Note_on_c, 9, 42, 106
10, 33986, Note_on_c, 9, 54, 116
10, 33987, Note_on_c, 9, 54, 0
10, 33987, Note_on_c, 9, 42, 0
10, 34080, Note_on_c, 9, 35, 104
10, 34081, Note_on_c, 9, 35, 0
10, 34082, Note_on_c, 9, 42, 84
10, 34083, Note_on_c, 9, 42, 0
10, 34176, Note_on_c, 9, 38, 114
10, 34177, Note_on_c, 9, 38, 0
10, 34178, Note_on_c, 9, 42, 106
10, 34178, Note_on_c, 9, 54, 116
10, 34179, Note_on_c, 9, 54, 0
10, 34179, Note_on_c, 9, 42, 0
10, 34272, Note_on_c, 9, 35, 104
10, 34273, Note_on_c, 9, 35, 0
10, 34274, Note_on_c, 9, 42, 84
10, 34275, Note_on_c, 9, 42, 0
10, 34368, Note_on_c, 9, 38, 114
10, 34369, Note_on_c, 9, 38, 0
10, 34370, Note_on_c, 9, 42, 106
10, 34370, Note_on_c, 9, 54, 116
10, 34371, Note_on_c, 9, 54, 0
10, 34371, Note_on_c, 9, 42, 0
10, 34464, Note_on_c, 9, 35, 104
10, 34464, Note_on_c, 9, 42, 84
10, 34465, Note_on_c, 9, 42, 0
10, 34465, Note_on_c, 9, 35, 0
10, 34560, Note_on_c, 9, 38, 114
10, 34560, Note_on_c, 9, 42, 106
10, 34560, Note_on_c, 9, 49, 94
10, 34560, Note_on_c, 9, 54, 116
10, 34561, Note_on_c, 9, 54, 0
10, 34561, Note_on_c, 9, 38, 0
10, 34561, Note_on_c, 9, 42, 0
10, 34561, Note_on_c, 9, 49, 0
10, 34656, Note_on_c, 9, 42, 84
10, 34657, Note_on_c, 9, 42, 0
10, 34752, Note_on_c, 9, 38, 114
10, 34752, Note_on_c, 9, 42, 106
10, 34752, Note_on_c, 9, 54, 116
10, 34753, Note_on_c, 9, 54, 0
10, 34753, Note_on_c, 9, 42, 0
10, 34753, Note_on_c, 9, 38, 0
10, 34848, Note_on_c, 9, 35, 104
10, 34848, Note_on_c, 9, 42, 84
10, 34849, Note_on_c, 9, 42, 0
10, 34849, Note_on_c, 9, 35, 0
10, 34944, Note_on_c, 9, 38, 114
10, 34944, Note_on_c, 9, 42, 106
10, 34945, Note_on_c, 9, 42, 0
10, 34945, Note_on_c, 9, 38, 0
10, 34946, Note_on_c, 9, 54, 116
10, 34947, Note_on_c, 9, 54, 0
10, 35040, Note_on_c, 9, 35, 104
10, 35040, Note_on_c, 9, 42, 84
10, 35041, Note_on_c, 9, 42, 0
10, 35041, Note_on_c, 9, 35, 0
10, 35136, Note_on_c, 9, 38, 114
10, 35136, Note_on_c, 9, 42, 106
10, 35136, Note_on_c, 9, 54, 116
10, 35137, Note_on_c, 9, 54, 0
10, 35137, Note_on_c, 9, 42, 0
10, 35137, Note_on_c, 9, 38, 0
10, 35232, Note_on_c, 9, 35, 104
10, 35232, Note_on_c, 9, 42, 84
10, 35233, Note_on_c, 9, 42, 0
10, 35233, Note_on_c, 9, 35, 0
10, 35328, Note_on_c, 9, 38, 114
10, 35328, Note_on_c, 9, 42, 106
10, 35328, Note_on_c, 9, 54, 116
10, 35329, Note_on_c, 9, 54, 0
10, 35329, Note_on_c, 9, 42, 0
10, 35329, Note_on_c, 9, 38, 0
10, 35424, Note_on_c, 9, 42, 84
10, 35425, Note_on_c, 9, 42, 0
10, 35520, Note_on_c, 9, 38, 114
10, 35520, Note_on_c, 9, 42, 106
10, 35520, Note_on_c, 9, 54, 116
10, 35521, Note_on_c, 9, 54, 0
10, 35521, Note_on_c, 9, 42, 0
10, 35521, Note_on_c, 9, 38, 0
10, 35616, Note_on_c, 9, 35, 104
10, 35616, Note_on_c, 9, 42, 84
10, 35617, Note_on_c, 9, 42, 0
10, 35617, Note_on_c, 9, 35, 0
10, 35712, Note_on_c, 9, 38, 114
10, 35712, Note_on_c, 9, 42, 106
10, 35712, Note_on_c, 9, 54, 116
10, 35713, Note_on_c, 9, 54, 0
10, 35713, Note_on_c, 9, 42, 0
10, 35713, Note_on_c, 9, 38, 0
10, 35808, Note_on_c, 9, 35, 104
10, 35808, Note_on_c, 9, 42, 84
10, 35809, Note_on_c, 9, 42, 0
10, 35809, Note_on_c, 9, 35, 0
10, 35904, Note_on_c, 9, 38, 114
10, 35904, Note_on_c, 9, 42, 106
10, 35905, Note_on_c, 9, 42, 0
10, 35905, Note_on_c, 9, 38, 0
10, 35906, Note_on_c, 9, 54, 116
10, 35907, Note_on_c, 9, 54, 0
10, 36000, Note_on_c, 9, 35, 104
10, 36000, Note_on_c, 9, 42, 84
10, 36001, Note_on_c, 9, 42, 0
10, 36001, Note_on_c, 9, 35, 0
10, 36096, Note_on_c, 9, 38, 114
10, 36096, Note_on_c, 9, 42, 106
10, 36097, Note_on_c, 9, 42, 0
10, 36097, Note_on_c, 9, 38, 0
10, 36098, Note_on_c, 9, 49, 94
10, 36098, Note_on_c, 9, 54, 116
10, 36099, Note_on_c, 9, 54, 0
10, 36099, Note_on_c, 9, 49, 0
10, 36192, Note_on_c, 9, 42, 84
10, 36193, Note_on_c, 9, 42, 0
10, 36288, Note_on_c, 9, 38, 114
10, 36288, Note_on_c, 9, 42, 106
10, 36289, Note_on_c, 9, 42, 0
10, 36289, Note_on_c, 9, 38, 0
10, 36290, Note_on_c, 9, 54, 116
10, 36291, Note_on_c, 9, 54, 0
10, 36384, Note_on_c, 9, 35, 104
10, 36384, Note_on_c, 9, 42, 84
10, 36385, Note_on_c, 9, 42, 0
10, 36385, Note_on_c, 9, 35, 0
10, 36480, Note_on_c, 9, 38, 114
10, 36480, Note_on_c, 9, 42, 106
10, 36481, Note_on_c, 9, 42, 0
10, 36481, Note_on_c, 9, 38, 0
10, 36482, Note_on_c, 9, 54, 116
10, 36483, Note_on_c, 9, 54, 0
10, 36576, Note_on_c, 9, 42, 84
10, 36576, Note_on_c, 9, 35, 104
10, 36577, Note_on_c, 9, 35, 0
10, 36577, Note_on_c, 9, 42, 0
10, 36672, Note_on_c, 9, 38, 114
10, 36672, Note_on_c, 9, 42, 106
10, 36673, Note_on_c, 9, 42, 0
10, 36673, Note_on_c, 9, 38, 0
10, 36674, Note_on_c, 9, 54, 116
10, 36675, Note_on_c, 9, 54, 0
10, 36768, Note_on_c, 9, 42, 84
10, 36768, Note_on_c, 9, 35, 104
10, 36769, Note_on_c, 9, 35, 0
10, 36769, Note_on_c, 9, 42, 0
10, 36864, Note_on_c, 9, 38, 114
10, 36864, Note_on_c, 9, 42, 106
10, 36865, Note_on_c, 9, 42, 0
10, 36865, Note_on_c, 9, 38, 0
10, 36866, Note_on_c, 9, 54, 116
10, 36867, Note_on_c, 9, 54, 0
10, 36960, Note_on_c, 9, 42, 84
10, 36961, Note_on_c, 9, 42, 0
10, 37056, Note_on_c, 9, 38, 114
10, 37056, Note_on_c, 9, 42, 106
10, 37057, Note_on_c, 9, 42, 0
10, 37057, Note_on_c, 9, 38, 0
10, 37058, Note_on_c, 9, 54, 116
10, 37059, Note_on_c, 9, 54, 0
10, 37152, Note_on_c, 9, 42, 84
10, 37152, Note_on_c, 9, 35, 104
10, 37153, Note_on_c, 9, 35, 0
10, 37153, Note_on_c, 9, 42, 0
10, 37248, Note_on_c, 9, 38, 114
10, 37248, Note_on_c, 9, 42, 106
10, 37249, Note_on_c, 9, 42, 0
10, 37249, Note_on_c, 9, 38, 0
10, 37250, Note_on_c, 9, 54, 116
10, 37251, Note_on_c, 9, 54, 0
10, 37344, Note_on_c, 9, 42, 84
10, 37344, Note_on_c, 9, 35, 104
10, 37345, Note_on_c, 9, 35, 0
10, 37345, Note_on_c, 9, 42, 0
10, 37440, Note_on_c, 9, 38, 114
10, 37440, Note_on_c, 9, 42, 106
10, 37441, Note_on_c, 9, 42, 0
10, 37441, Note_on_c, 9, 38, 0
10, 37442, Note_on_c, 9, 54, 116
10, 37443, Note_on_c, 9, 54, 0
10, 37536, Note_on_c, 9, 42, 84
10, 37536, Note_on_c, 9, 35, 104
10, 37537, Note_on_c, 9, 35, 0
10, 37537, Note_on_c, 9, 42, 0
10, 37632, Note_on_c, 9, 38, 114
10, 37632, Note_on_c, 9, 42, 106
10, 37633, Note_on_c, 9, 42, 0
10, 37633, Note_on_c, 9, 38, 0
10, 37634, Note_on_c, 9, 49, 94
10, 37634, Note_on_c, 9, 54, 116
10, 37635, Note_on_c, 9, 54, 0
10, 37635, Note_on_c, 9, 49, 0
10, 37728, Note_on_c, 9, 42, 84
10, 37729, Note_on_c, 9, 42, 0
10, 37824, Note_on_c, 9, 38, 114
10, 37825, Note_on_c, 9, 38, 0
10, 37826, Note_on_c, 9, 42, 106
10, 37826, Note_on_c, 9, 54, 116
10, 37827, Note_on_c, 9, 54, 0
10, 37827, Note_on_c, 9, 42, 0
10, 37920, Note_on_c, 9, 35, 104
10, 37921, Note_on_c, 9, 35, 0
10, 37922, Note_on_c, 9, 42, 84
10, 37923, Note_on_c, 9, 42, 0
10, 38016, Note_on_c, 9, 38, 114
10, 38017, Note_on_c, 9, 38, 0
10, 38018, Note_on_c, 9, 42, 106
10, 38018, Note_on_c, 9, 54, 116
10, 38019, Note_on_c, 9, 54, 0
10, 38019, Note_on_c, 9, 42, 0
10, 38112, Note_on_c, 9, 35, 104
10, 38113, Note_on_c, 9, 35, 0
10, 38114, Note_on_c, 9, 42, 84
10, 38115, Note_on_c, 9, 42, 0
10, 38208, Note_on_c, 9, 38, 114
10, 38209, Note_on_c, 9, 38, 0
10, 38210, Note_on_c, 9, 42, 106
10, 38210, Note_on_c, 9, 54, 116
10, 38211, Note_on_c, 9, 54, 0
10, 38211, Note_on_c, 9, 42, 0
10, 38304, Note_on_c, 9, 35, 104
10, 38305, Note_on_c, 9, 35, 0
10, 38306, Note_on_c, 9, 42, 84
10, 38307, Note_on_c, 9, 42, 0
10, 38400, Note_on_c, 9, 38, 114
10, 38400, Note_on_c, 9, 42, 106
10, 38400, Note_on_c, 9, 54, 116
10, 38401, Note_on_c, 9, 54, 0
10, 38401, Note_on_c, 9, 42, 0
10, 38401, Note_on_c, 9, 38, 0
10, 38496, Note_on_c, 9, 42, 84
10, 38497, Note_on_c, 9, 42, 0
10, 38592, Note_on_c, 9, 38, 114
10, 38592, Note_on_c, 9, 42, 106
10, 38592, Note_on_c, 9, 54, 116
10, 38593, Note_on_c, 9, 54, 0
10, 38593, Note_on_c, 9, 42, 0
10, 38593, Note_on_c, 9, 38, 0
10, 38688, Note_on_c, 9, 35, 104
10, 38688, Note_on_c, 9, 42, 84
10, 38689, Note_on_c, 9, 42, 0
10, 38689, Note_on_c, 9, 35, 0
10, 38784, Note_on_c, 9, 38, 114
10, 38784, Note_on_c, 9, 42, 106
10, 38784, Note_on_c, 9, 54, 116
10, 38785, Note_on_c, 9, 54, 0
10, 38785, Note_on_c, 9, 42, 0
10, 38785, Note_on_c, 9, 38, 0
10, 38880, Note_on_c, 9, 35, 104
10, 38881, Note_on_c, 9, 35, 0
10, 38882, Note_on_c, 9, 42, 84
10, 38883, Note_on_c, 9, 42, 0
10, 38976, Note_on_c, 9, 38, 114
10, 38976, Note_on_c, 9, 42, 106
10, 38976, Note_on_c, 9, 54, 116
10, 38977, Note_on_c, 9, 54, 0
10, 38977, Note_on_c, 9, 42, 0
10, 38977, Note_on_c, 9, 38, 0
10, 39072, Note_on_c, 9, 35, 104
10, 39072, Note_on_c, 9, 42, 84
10, 39073, Note_on_c, 9, 42, 0
10, 39073, Note_on_c, 9, 35, 0
10, 39168, Note_on_c, 9, 38, 114
10, 39168, Note_on_c, 9, 42, 106
10, 39168, Note_on_c, 9, 54, 116
10, 39169, Note_on_c, 9, 54, 0
10, 39169, Note_on_c, 9, 42, 0
10, 39169, Note_on_c, 9, 38, 0
10, 39264, Note_on_c, 9, 42, 84
10, 39265, Note_on_c, 9, 42, 0
10, 39360, Note_on_c, 9, 38, 114
10, 39360, Note_on_c, 9, 42, 106
10, 39361, Note_on_c, 9, 42, 0
10, 39361, Note_on_c, 9, 38, 0
10, 39362, Note_on_c, 9, 54, 116
10, 39363, Note_on_c, 9, 54, 0
10, 39456, Note_on_c, 9, 35, 104
10, 39456, Note_on_c, 9, 42, 84
10, 39457, Note_on_c, 9, 42, 0
10, 39457, Note_on_c, 9, 35, 0
10, 39552, Note_on_c, 9, 38, 114
10, 39552, Note_on_c, 9, 42, 106
10, 39552, Note_on_c, 9, 54, 116
10, 39553, Note_on_c, 9, 54, 0
10, 39553, Note_on_c, 9, 42, 0
10, 39553, Note_on_c, 9, 38, 0
10, 39648, Note_on_c, 9, 35, 104
10, 39648, Note_on_c, 9, 42, 84
10, 39649, Note_on_c, 9, 42, 0
10, 39649, Note_on_c, 9, 35, 0
10, 39744, Note_on_c, 9, 38, 114
10, 39744, Note_on_c, 9, 42, 106
10, 39745, Note_on_c, 9, 42, 0
10, 39745, Note_on_c, 9, 38, 0
10, 39746, Note_on_c, 9, 54, 116
10, 39747, Note_on_c, 9, 54, 0
10, 39840, Note_on_c, 9, 35, 104
10, 39840, Note_on_c, 9, 42, 84
10, 39841, Note_on_c, 9, 42, 0
10, 39841, Note_on_c, 9, 35, 0
10, 39936, Note_on_c, 9, 38, 114
10, 39936, Note_on_c, 9, 42, 106
10, 39937, Note_on_c, 9, 42, 0
10, 39937, Note_on_c, 9, 38, 0
10, 39938, Note_on_c, 9, 54, 116
10, 39939, Note_on_c, 9, 54, 0
10, 40032, Note_on_c, 9, 42, 84
10, 40033, Note_on_c, 9, 42, 0
10, 40128, Note_on_c, 9, 38, 114
10, 40128, Note_on_c, 9, 42, 106
10, 40129, Note_on_c, 9, 42, 0
10, 40129, Note_on_c, 9, 38, 0
10, 40130, Note_on_c, 9, 54, 116
10, 40131, Note_on_c, 9, 54, 0
10, 40176, Note_on_c, 9, 38, 114
10, 40177, Note_on_c, 9, 38, 0
10, 40224, Note_on_c, 9, 35, 104
10, 40224, Note_on_c, 9, 38, 114
10, 40225, Note_on_c, 9, 38, 0
10, 40225, Note_on_c, 9, 35, 0
10, 40226, Note_on_c, 9, 42, 84
10, 40227, Note_on_c, 9, 42, 0
10, 40272, Note_on_c, 9, 38, 114
10, 40273, Note_on_c, 9, 38, 0
10, 40320, Note_on_c, 9, 38, 114
10, 40320, Note_on_c, 9, 42, 106
10, 40321, Note_on_c, 9, 42, 0
10, 40321, Note_on_c, 9, 38, 0
10, 40322, Note_on_c, 9, 54, 116
10, 40322, Note_on_c, 9, 50, 104
10, 40323, Note_on_c, 9, 50, 0
10, 40323, Note_on_c, 9, 54, 0
10, 40368, Note_on_c, 9, 50, 104
10, 40369, Note_on_c, 9, 50, 0
10, 40416, Note_on_c, 9, 35, 104
10, 40416, Note_on_c, 9, 42, 84
10, 40417, Note_on_c, 9, 42, 0
10, 40417, Note_on_c, 9, 35, 0
10, 40418, Note_on_c, 9, 50, 104
10, 40419, Note_on_c, 9, 50, 0
10, 40464, Note_on_c, 9, 50, 104
10, 40465, Note_on_c, 9, 50, 0
10, 40512, Note_on_c, 9, 38, 114
10, 40512, Note_on_c, 9, 42, 106
10, 40513, Note_on_c, 9, 42, 0
10, 40513, Note_on_c, 9, 38, 0
10, 40514, Note_on_c, 9, 54, 116
10, 40514, Note_on_c, 9, 43, 104
10, 40515, Note_on_c, 9, 43, 0
10, 40515, Note_on_c, 9, 54, 0
10, 40560, Note_on_c, 9, 43, 104
10, 40561, Note_on_c, 9, 43, 0
10, 40608, Note_on_c, 9, 42, 84
10, 40608, Note_on_c, 9, 35, 104
10, 40609, Note_on_c, 9, 35, 0
10, 40609, Note_on_c, 9, 42, 0
10, 40610, Note_on_c, 9, 43, 104
10, 40611, Note_on_c, 9, 43, 0
10, 40656, Note_on_c, 9, 43, 104
10, 40657, Note_on_c, 9, 43, 0
10, 40704, Note_on_c, 9, 38, 114
10, 40704, Note_on_c, 9, 42, 106
10, 40705, Note_on_c, 9, 42, 0
10, 40705, Note_on_c, 9, 38, 0
10, 40706, Note_on_c, 9, 49, 94
10, 40706, Note_on_c, 9, 54, 116
10, 40707, Note_on_c, 9, 54, 0
10, 40707, Note_on_c, 9, 49, 0
10, 40800, Note_on_c, 9, 42, 84
10, 40801, Note_on_c, 9, 42, 0
10, 40896, Note_on_c, 9, 38, 114
10, 40896, Note_on_c, 9, 42, 106
10, 40897, Note_on_c, 9, 42, 0
10, 40897, Note_on_c, 9, 38, 0
10, 40898, Note_on_c, 9, 54, 116
10, 40899, Note_on_c, 9, 54, 0
10, 40992, Note_on_c, 9, 42, 84
10, 40992, Note_on_c, 9, 35, 104
10, 40993, Note_on_c, 9, 35, 0
10, 40993, Note_on_c, 9, 42, 0
10, 41088, Note_on_c, 9, 38, 114
10, 41088, Note_on_c, 9, 42, 106
10, 41089, Note_on_c, 9, 42, 0
10, 41089, Note_on_c, 9, 38, 0
10, 41090, Note_on_c, 9, 54, 116
10, 41091, Note_on_c, 9, 54, 0
10, 41184, Note_on_c, 9, 42, 84
10, 41184, Note_on_c, 9, 35, 104
10, 41185, Note_on_c, 9, 35, 0
10, 41185, Note_on_c, 9, 42, 0
10, 41280, Note_on_c, 9, 38, 114
10, 41280, Note_on_c, 9, 42, 106
10, 41281, Note_on_c, 9, 42, 0
10, 41281, Note_on_c, 9, 38, 0
10, 41282, Note_on_c, 9, 54, 116
10, 41283, Note_on_c, 9, 54, 0
10, 41376, Note_on_c, 9, 42, 84
10, 41376, Note_on_c, 9, 35, 104
10, 41377, Note_on_c, 9, 35, 0
10, 41377, Note_on_c, 9, 42, 0
10, 41472, Note_on_c, 9, 38, 114
10, 41472, Note_on_c, 9, 42, 106
10, 41473, Note_on_c, 9, 42, 0
10, 41473, Note_on_c, 9, 38, 0
10, 41474, Note_on_c, 9, 54, 116
10, 41475, Note_on_c, 9, 54, 0
10, 41568, Note_on_c, 9, 42, 84
10, 41569, Note_on_c, 9, 42, 0
10, 41664, Note_on_c, 9, 38, 114
10, 41664, Note_on_c, 9, 42, 106
10, 41665, Note_on_c, 9, 42, 0
10, 41665, Note_on_c, 9, 38, 0
10, 41666, Note_on_c, 9, 54, 116
10, 41667, Note_on_c, 9, 54, 0
10, 41760, Note_on_c, 9, 42, 84
10, 41760, Note_on_c, 9, 35, 104
10, 41761, Note_on_c, 9, 35, 0
10, 41761, Note_on_c, 9, 42, 0
10, 41856, Note_on_c, 9, 38, 114
10, 41856, Note_on_c, 9, 42, 106
10, 41857, Note_on_c, 9, 42, 0
10, 41857, Note_on_c, 9, 38, 0
10, 41858, Note_on_c, 9, 54, 116
10, 41859, Note_on_c, 9, 54, 0
10, 41952, Note_on_c, 9, 42, 84
10, 41952, Note_on_c, 9, 35, 104
10, 41953, Note_on_c, 9, 35, 0
10, 41953, Note_on_c, 9, 42, 0
10, 42048, Note_on_c, 9, 38, 114
10, 42049, Note_on_c, 9, 38, 0
10, 42050, Note_on_c, 9, 42, 106
10, 42050, Note_on_c, 9, 54, 116
10, 42051, Note_on_c, 9, 54, 0
10, 42051, Note_on_c, 9, 42, 0
10, 42144, Note_on_c, 9, 35, 104
10, 42145, Note_on_c, 9, 35, 0
10, 42146, Note_on_c, 9, 42, 84
10, 42147, Note_on_c, 9, 42, 0
10, 42240, Note_on_c, 9, 38, 114
10, 42241, Note_on_c, 9, 38, 0
10, 42242, Note_on_c, 9, 42, 106
10, 42242, Note_on_c, 9, 54, 116
10, 42243, Note_on_c, 9, 54, 0
10, 42243, Note_on_c, 9, 42, 0
10, 42336, Note_on_c, 9, 42, 84
10, 42337, Note_on_c, 9, 42, 0
10, 42432, Note_on_c, 9, 38, 114
10, 42433, Note_on_c, 9, 38, 0
10, 42434, Note_on_c, 9, 42, 106
10, 42434, Note_on_c, 9, 54, 116
10, 42435, Note_on_c, 9, 54, 0
10, 42435, Note_on_c, 9, 42, 0
10, 42528, Note_on_c, 9, 35, 104
10, 42528, Note_on_c, 9, 42, 84
10, 42529, Note_on_c, 9, 42, 0
10, 42529, Note_on_c, 9, 35, 0
10, 42624, Note_on_c, 9, 38, 114
10, 42624, Note_on_c, 9, 42, 106
10, 42624, Note_on_c, 9, 54, 116
10, 42625, Note_on_c, 9, 54, 0
10, 42625, Note_on_c, 9, 42, 0
10, 42625, Note_on_c, 9, 38, 0
10, 42720, Note_on_c, 9, 35, 104
10, 42720, Note_on_c, 9, 42, 84
10, 42721, Note_on_c, 9, 42, 0
10, 42721, Note_on_c, 9, 35, 0
10, 42816, Note_on_c, 9, 38, 114
10, 42816, Note_on_c, 9, 42, 106
10, 42816, Note_on_c, 9, 54, 116
10, 42817, Note_on_c, 9, 54, 0
10, 42817, Note_on_c, 9, 42, 0
10, 42817, Note_on_c, 9, 38, 0
10, 42912, Note_on_c, 9, 35, 104
10, 42912, Note_on_c, 9, 42, 84
10, 42913, Note_on_c, 9, 42, 0
10, 42913, Note_on_c, 9, 35, 0
10, 43008, Note_on_c, 9, 38, 114
10, 43008, Note_on_c, 9, 42, 106
10, 43009, Note_on_c, 9, 42, 0
10, 43009, Note_on_c, 9, 38, 0
10, 43010, Note_on_c, 9, 54, 116
10, 43011, Note_on_c, 9, 54, 0
10, 43104, Note_on_c, 9, 42, 84
10, 43105, Note_on_c, 9, 42, 0
10, 43200, Note_on_c, 9, 38, 114
10, 43200, Note_on_c, 9, 42, 106
10, 43200, Note_on_c, 9, 54, 116
10, 43201, Note_on_c, 9, 54, 0
10, 43201, Note_on_c, 9, 42, 0
10, 43201, Note_on_c, 9, 38, 0
10, 43296, Note_on_c, 9, 35, 104
10, 43296, Note_on_c, 9, 42, 84
10, 43297, Note_on_c, 9, 42, 0
10, 43297, Note_on_c, 9, 35, 0
10, 43392, Note_on_c, 9, 38, 114
10, 43392, Note_on_c, 9, 42, 106
10, 43392, Note_on_c, 9, 54, 116
10, 43393, Note_on_c, 9, 54, 0
10, 43393, Note_on_c, 9, 42, 0
10, 43393, Note_on_c, 9, 38, 0
10, 43440, Note_on_c, 9, 38, 114
10, 43441, Note_on_c, 9, 38, 0
10, 43488, Note_on_c, 9, 35, 104
10, 43488, Note_on_c, 9, 38, 114
10, 43488, Note_on_c, 9, 42, 84
10, 43489, Note_on_c, 9, 42, 0
10, 43489, Note_on_c, 9, 38, 0
10, 43489, Note_on_c, 9, 35, 0
10, 43536, Note_on_c, 9, 38, 114
10, 43537, Note_on_c, 9, 38, 0
10, 43584, Note_on_c, 9, 38, 114
10, 43584, Note_on_c, 9, 42, 106
10, 43584, Note_on_c, 9, 54, 116
10, 43585, Note_on_c, 9, 54, 0
10, 43585, Note_on_c, 9, 42, 0
10, 43585, Note_on_c, 9, 38, 0
10, 43632, Note_on_c, 9, 38, 114
10, 43633, Note_on_c, 9, 38, 0
10, 43680, Note_on_c, 9, 35, 104
10, 43680, Note_on_c, 9, 38, 114
10, 43680, Note_on_c, 9, 42, 84
10, 43681, Note_on_c, 9, 42, 0
10, 43681, Note_on_c, 9, 38, 0
10, 43681, Note_on_c, 9, 35, 0
10, 43776, Note_on_c, 9, 38, 114
10, 43776, Note_on_c, 9, 42, 106
10, 43776, Note_on_c, 9, 54, 116
10, 43777, Note_on_c, 9, 54, 0
10, 43777, Note_on_c, 9, 42, 0
10, 43777, Note_on_c, 9, 38, 0
10, 43872, Note_on_c, 9, 42, 84
10, 43873, Note_on_c, 9, 42, 0
10, 43968, Note_on_c, 9, 38, 114
10, 43968, Note_on_c, 9, 42, 106
10, 43969, Note_on_c, 9, 42, 0
10, 43969, Note_on_c, 9, 38, 0
10, 43970, Note_on_c, 9, 54, 116
10, 43971, Note_on_c, 9, 54, 0
10, 44064, Note_on_c, 9, 35, 104
10, 44064, Note_on_c, 9, 42, 84
10, 44065, Note_on_c, 9, 42, 0
10, 44065, Note_on_c, 9, 35, 0
10, 44160, Note_on_c, 9, 38, 114
10, 44160, Note_on_c, 9, 42, 106
10, 44161, Note_on_c, 9, 42, 0
10, 44161, Note_on_c, 9, 38, 0
10, 44162, Note_on_c, 9, 54, 116
10, 44163, Note_on_c, 9, 54, 0
10, 44256, Note_on_c, 9, 35, 104
10, 44256, Note_on_c, 9, 42, 84
10, 44257, Note_on_c, 9, 42, 0
10, 44257, Note_on_c, 9, 35, 0
10, 44352, Note_on_c, 9, 38, 114
10, 44352, Note_on_c, 9, 42, 106
10, 44353, Note_on_c, 9, 42, 0
10, 44353, Note_on_c, 9, 38, 0
10, 44354, Note_on_c, 9, 54, 116
10, 44355, Note_on_c, 9, 54, 0
10, 44448, Note_on_c, 9, 35, 104
10, 44448, Note_on_c, 9, 42, 84
10, 44449, Note_on_c, 9, 42, 0
10, 44449, Note_on_c, 9, 35, 0
10, 44544, Note_on_c, 9, 38, 114
10, 44544, Note_on_c, 9, 42, 106
10, 44545, Note_on_c, 9, 42, 0
10, 44545, Note_on_c, 9, 38, 0
10, 44546, Note_on_c, 9, 54, 116
10, 44547, Note_on_c, 9, 54, 0
10, 44640, Note_on_c, 9, 42, 84
10, 44641, Note_on_c, 9, 42, 0
10, 44736, Note_on_c, 9, 38, 114
10, 44736, Note_on_c, 9, 42, 106
10, 44737, Note_on_c, 9, 42, 0
10, 44737, Note_on_c, 9, 38, 0
10, 44738, Note_on_c, 9, 54, 116
10, 44739, Note_on_c, 9, 54, 0
10, 44832, Note_on_c, 9, 42, 84
10, 44832, Note_on_c, 9, 35, 104
10, 44833, Note_on_c, 9, 35, 0
10, 44833, Note_on_c, 9, 42, 0
10, 44928, Note_on_c, 9, 38, 114
10, 44928, Note_on_c, 9, 42, 106
10, 44929, Note_on_c, 9, 42, 0
10, 44929, Note_on_c, 9, 38, 0
10, 44930, Note_on_c, 9, 54, 116
10, 44931, Note_on_c, 9, 54, 0
10, 45024, Note_on_c, 9, 42, 84
10, 45024, Note_on_c, 9, 35, 104
10, 45025, Note_on_c, 9, 35, 0
10, 45025, Note_on_c, 9, 42, 0
10, 45120, Note_on_c, 9, 38, 114
10, 45120, Note_on_c, 9, 42, 106
10, 45121, Note_on_c, 9, 42, 0
10, 45121, Note_on_c, 9, 38, 0
10, 45122, Note_on_c, 9, 54, 116
10, 45123, Note_on_c, 9, 54, 0
10, 45216, Note_on_c, 9, 42, 84
10, 45216, Note_on_c, 9, 35, 104
10, 45217, Note_on_c, 9, 35, 0
10, 45217, Note_on_c, 9, 42, 0
10, 45312, Note_on_c, 9, 38, 114
10, 45312, Note_on_c, 9, 42, 106
10, 45313, Note_on_c, 9, 42, 0
10, 45313, Note_on_c, 9, 38, 0
10, 45314, Note_on_c, 9, 49, 94
10, 45314, Note_on_c, 9, 54, 116
10, 45315, Note_on_c, 9, 54, 0
10, 45315, Note_on_c, 9, 49, 0
10, 45408, Note_on_c, 9, 42, 84
10, 45409, Note_on_c, 9, 42, 0
10, 45504, Note_on_c, 9, 38, 114
10, 45504, Note_on_c, 9, 42, 106
10, 45505, Note_on_c, 9, 42, 0
10, 45505, Note_on_c, 9, 38, 0
10, 45506, Note_on_c, 9, 54, 116
10, 45507, Note_on_c, 9, 54, 0
10, 45600, Note_on_c, 9, 42, 84
10, 45600, Note_on_c, 9, 35, 104
10, 45601, Note_on_c, 9, 35, 0
10, 45601, Note_on_c, 9, 42, 0
10, 45696, Note_on_c, 9, 38, 114
10, 45697, Note_on_c, 9, 38, 0
10, 45698, Note_on_c, 9, 42, 106
10, 45698, Note_on_c, 9, 54, 116
10, 45699, Note_on_c, 9, 54, 0
10, 45699, Note_on_c, 9, 42, 0
10, 45792, Note_on_c, 9, 42, 84
10, 45792, Note_on_c, 9, 35, 104
10, 45793, Note_on_c, 9, 35, 0
10, 45793, Note_on_c, 9, 42, 0
10, 45888, Note_on_c, 9, 38, 114
10, 45888, Note_on_c, 9, 42, 106
10, 45889, Note_on_c, 9, 42, 0
10, 45889, Note_on_c, 9, 38, 0
10, 45890, Note_on_c, 9, 54, 116
10, 45891, Note_on_c, 9, 54, 0
10, 45984, Note_on_c, 9, 42, 84
10, 45984, Note_on_c, 9, 35, 104
10, 45985, Note_on_c, 9, 35, 0
10, 45985, Note_on_c, 9, 42, 0
10, 46080, Note_on_c, 9, 38, 114
10, 46081, Note_on_c, 9, 38, 0
10, 46082, Note_on_c, 9, 42, 106
10, 46082, Note_on_c, 9, 54, 116
10, 46083, Note_on_c, 9, 54, 0
10, 46083, Note_on_c, 9, 42, 0
10, 46176, Note_on_c, 9, 42, 84
10, 46177, Note_on_c, 9, 42, 0
10, 46272, Note_on_c, 9, 38, 114
10, 46273, Note_on_c, 9, 38, 0
10, 46274, Note_on_c, 9, 42, 106
10, 46274, Note_on_c, 9, 54, 116
10, 46275, Note_on_c, 9, 54, 0
10, 46275, Note_on_c, 9, 42, 0
10, 46368, Note_on_c, 9, 35, 104
10, 46369, Note_on_c, 9, 35, 0
10, 46370, Note_on_c, 9, 42, 84
10, 46371, Note_on_c, 9, 42, 0
10, 46464, Note_on_c, 9, 38, 114
10, 46465, Note_on_c, 9, 38, 0
10, 46466, Note_on_c, 9, 42, 106
10, 46466, Note_on_c, 9, 54, 116
10, 46467, Note_on_c, 9, 54, 0
10, 46467, Note_on_c, 9, 42, 0
10, 46512, Note_on_c, 9, 38, 114
10, 46513, Note_on_c, 9, 38, 0
10, 46560, Note_on_c, 9, 35, 104
10, 46560, Note_on_c, 9, 38, 114
10, 46560, Note_on_c, 9, 42, 84
10, 46561, Note_on_c, 9, 42, 0
10, 46561, Note_on_c, 9, 38, 0
10, 46561, Note_on_c, 9, 35, 0
10, 46608, Note_on_c, 9, 38, 114
10, 46609, Note_on_c, 9, 38, 0
10, 46656, Note_on_c, 9, 38, 114
10, 46656, Note_on_c, 9, 42, 106
10, 46656, Note_on_c, 9, 50, 104
10, 46657, Note_on_c, 9, 50, 0
10, 46657, Note_on_c, 9, 42, 0
10, 46657, Note_on_c, 9, 38, 0
10, 46658, Note_on_c, 9, 54, 116
10, 46659, Note_on_c, 9, 54, 0
10, 46704, Note_on_c, 9, 50, 104
10, 46705, Note_on_c, 9, 50, 0
10, 46752, Note_on_c, 9, 35, 104
10, 46752, Note_on_c, 9, 42, 84
10, 46752, Note_on_c, 9, 43, 104
10, 46753, Note_on_c, 9, 43, 0
10, 46753, Note_on_c, 9, 42, 0
10, 46753, Note_on_c, 9, 35, 0
10, 46800, Note_on_c, 9, 43, 104
10, 46801, Note_on_c, 9, 43, 0
10, 46848, Note_on_c, 9, 38, 114
10, 46848, Note_on_c, 9, 42, 106
10, 46848, Note_on_c, 9, 49, 94
10, 46848, Note_on_c, 9, 54, 116
10, 46849, Note_on_c, 9, 54, 0
10, 46849, Note_on_c, 9, 38, 0
10, 46849, Note_on_c, 9, 42, 0
10, 46849, Note_on_c, 9, 49, 0
10, 46944, Note_on_c, 9, 42, 84
10, 46945, Note_on_c, 9, 42, 0
10, 47040, Note_on_c, 9, 38, 114
10, 47040, Note_on_c, 9, 42, 106
10, 47041, Note_on_c, 9, 42, 0
10, 47041, Note_on_c, 9, 38, 0
10, 47042, Note_on_c, 9, 54, 116
10, 47043, Note_on_c, 9, 54, 0
10, 47136, Note_on_c, 9, 35, 104
10, 47136, Note_on_c, 9, 42, 84
10, 47137, Note_on_c, 9, 42, 0
10, 47137, Note_on_c, 9, 35, 0
10, 47232, Note_on_c, 9, 38, 114
10, 47232, Note_on_c, 9, 42, 106
10, 47232, Note_on_c, 9, 54, 116
10, 47233, Note_on_c, 9, 54, 0
10, 47233, Note_on_c, 9, 42, 0
10, 47233, Note_on_c, 9, 38, 0
10, 47328, Note_on_c, 9, 35, 104
10, 47328, Note_on_c, 9, 42, 84
10, 47329, Note_on_c, 9, 42, 0
10, 47329, Note_on_c, 9, 35, 0
10, 47424, Note_on_c, 9, 38, 114
10, 47424, Note_on_c, 9, 42, 106
10, 47424, Note_on_c, 9, 54, 116
10, 47425, Note_on_c, 9, 54, 0
10, 47425, Note_on_c, 9, 42, 0
10, 47425, Note_on_c, 9, 38, 0
10, 47520, Note_on_c, 9, 35, 104
10, 47520, Note_on_c, 9, 42, 84
10, 47521, Note_on_c, 9, 42, 0
10, 47521, Note_on_c, 9, 35, 0
10, 47616, Note_on_c, 9, 38, 114
10, 47616, Note_on_c, 9, 42, 106
10, 47616, Note_on_c, 9, 54, 116
10, 47617, Note_on_c, 9, 54, 0
10, 47617, Note_on_c, 9, 42, 0
10, 47617, Note_on_c, 9, 38, 0
10, 47712, Note_on_c, 9, 42, 84
10, 47713, Note_on_c, 9, 42, 0
10, 47808, Note_on_c, 9, 38, 114
10, 47808, Note_on_c, 9, 42, 106
10, 47809, Note_on_c, 9, 42, 0
10, 47809, Note_on_c, 9, 38, 0
10, 47810, Note_on_c, 9, 54, 116
10, 47811, Note_on_c, 9, 54, 0
10, 47904, Note_on_c, 9, 35, 104
10, 47904, Note_on_c, 9, 42, 84
10, 47905, Note_on_c, 9, 42, 0
10, 47905, Note_on_c, 9, 35, 0
10, 48000, Note_on_c, 9, 38, 114
10, 48000, Note_on_c, 9, 42, 106
10, 48001, Note_on_c, 9, 42, 0
10, 48001, Note_on_c, 9, 38, 0
10, 48002, Note_on_c, 9, 54, 116
10, 48003, Note_on_c, 9, 54, 0
10, 48096, Note_on_c, 9, 35, 104
10, 48096, Note_on_c, 9, 42, 84
10, 48097, Note_on_c, 9, 42, 0
10, 48097, Note_on_c, 9, 35, 0
10, 48192, Note_on_c, 9, 38, 114
10, 48192, Note_on_c, 9, 42, 106
10, 48193, Note_on_c, 9, 42, 0
10, 48193, Note_on_c, 9, 38, 0
10, 48194, Note_on_c, 9, 54, 116
10, 48195, Note_on_c, 9, 54, 0
10, 48288, Note_on_c, 9, 35, 104
10, 48288, Note_on_c, 9, 42, 84
10, 48289, Note_on_c, 9, 42, 0
10, 48289, Note_on_c, 9, 35, 0
10, 48384, Note_on_c, 9, 38, 114
10, 48384, Note_on_c, 9, 42, 106
10, 48385, Note_on_c, 9, 42, 0
10, 48385, Note_on_c, 9, 38, 0
10, 48386, Note_on_c, 9, 54, 116
10, 48387, Note_on_c, 9, 54, 0
10, 48480, Note_on_c, 9, 42, 84
10, 48481, Note_on_c, 9, 42, 0
10, 48576, Note_on_c, 9, 38, 114
10, 48576, Note_on_c, 9, 42, 106
10, 48577, Note_on_c, 9, 42, 0
10, 48577, Note_on_c, 9, 38, 0
10, 48578, Note_on_c, 9, 54, 116
10, 48579, Note_on_c, 9, 54, 0
10, 48672, Note_on_c, 9, 42, 84
10, 48672, Note_on_c, 9, 35, 104
10, 48673, Note_on_c, 9, 35, 0
10, 48673, Note_on_c, 9, 42, 0
10, 48768, Note_on_c, 9, 38, 114
10, 48768, Note_on_c, 9, 42, 106
10, 48769, Note_on_c, 9, 42, 0
10, 48769, Note_on_c, 9, 38, 0
10, 48770, Note_on_c, 9, 54, 116
10, 48771, Note_on_c, 9, 54, 0
10, 48864, Note_on_c, 9, 42, 84
10, 48864, Note_on_c, 9, 35, 104
10, 48865, Note_on_c, 9, 35, 0
10, 48865, Note_on_c, 9, 42, 0
10, 48960, Note_on_c, 9, 38, 114
10, 48960, Note_on_c, 9, 42, 106
10, 48961, Note_on_c, 9, 42, 0
10, 48961, Note_on_c, 9, 38, 0
10, 48962, Note_on_c, 9, 54, 116
10, 48963, Note_on_c, 9, 54, 0
10, 49056, Note_on_c, 9, 42, 84
10, 49056, Note_on_c, 9, 35, 104
10, 49057, Note_on_c, 9, 35, 0
10, 49057, Note_on_c, 9, 42, 0
10, 49152, Note_on_c, 9, 38, 114
10, 49152, Note_on_c, 9, 42, 106
10, 49153, Note_on_c, 9, 42, 0
10, 49153, Note_on_c, 9, 38, 0
10, 49154, Note_on_c, 9, 54, 116
10, 49155, Note_on_c, 9, 54, 0
10, 49248, Note_on_c, 9, 42, 84
10, 49249, Note_on_c, 9, 42, 0
10, 49344, Note_on_c, 9, 38, 114
10, 49344, Note_on_c, 9, 42, 106
10, 49345, Note_on_c, 9, 42, 0
10, 49345, Note_on_c, 9, 38, 0
10, 49346, Note_on_c, 9, 54, 116
10, 49347, Note_on_c, 9, 54, 0
10, 49440, Note_on_c, 9, 42, 84
10, 49440, Note_on_c, 9, 35, 104
10, 49441, Note_on_c, 9, 35, 0
10, 49441, Note_on_c, 9, 42, 0
10, 49536, Note_on_c, 9, 38, 114
10, 49536, Note_on_c, 9, 42, 106
10, 49537, Note_on_c, 9, 42, 0
10, 49537, Note_on_c, 9, 38, 0
10, 49538, Note_on_c, 9, 54, 116
10, 49539, Note_on_c, 9, 54, 0
10, 49632, Note_on_c, 9, 42, 84
10, 49632, Note_on_c, 9, 35, 104
10, 49633, Note_on_c, 9, 35, 0
10, 49633, Note_on_c, 9, 42, 0
10, 49728, Note_on_c, 9, 38, 114
10, 49728, Note_on_c, 9, 42, 106
10, 49729, Note_on_c, 9, 42, 0
10, 49729, Note_on_c, 9, 38, 0
10, 49730, Note_on_c, 9, 54, 116
10, 49731, Note_on_c, 9, 54, 0
10, 49824, Note_on_c, 9, 42, 84
10, 49824, Note_on_c, 9, 35, 104
10, 49825, Note_on_c, 9, 35, 0
10, 49825, Note_on_c, 9, 42, 0
10, 49920, Note_on_c, 9, 38, 114
10, 49920, Note_on_c, 9, 42, 106
10, 49921, Note_on_c, 9, 42, 0
10, 49921, Note_on_c, 9, 38, 0
10, 49922, Note_on_c, 9, 54, 116
10, 49923, Note_on_c, 9, 54, 0
10, 50016, Note_on_c, 9, 42, 84
10, 50017, Note_on_c, 9, 42, 0
10, 50112, Note_on_c, 9, 38, 114
10, 50113, Note_on_c, 9, 38, 0
10, 50114, Note_on_c, 9, 42, 106
10, 50114, Note_on_c, 9, 54, 116
10, 50115, Note_on_c, 9, 54, 0
10, 50115, Note_on_c, 9, 42, 0
10, 50208, Note_on_c, 9, 35, 104
10, 50209, Note_on_c, 9, 35, 0
10, 50210, Note_on_c, 9, 42, 84
10, 50211, Note_on_c, 9, 42, 0
10, 50304, Note_on_c, 9, 38, 114
10, 50305, Note_on_c, 9, 38, 0
10, 50306, Note_on_c, 9, 42, 106
10, 50306, Note_on_c, 9, 54, 116
10, 50307, Note_on_c, 9, 54, 0
10, 50307, Note_on_c, 9, 42, 0
10, 50400, Note_on_c, 9, 35, 104
10, 50401, Note_on_c, 9, 35, 0
10, 50402, Note_on_c, 9, 42, 84
10, 50403, Note_on_c, 9, 42, 0
10, 50496, Note_on_c, 9, 38, 114
10, 50497, Note_on_c, 9, 38, 0
10, 50498, Note_on_c, 9, 42, 106
10, 50498, Note_on_c, 9, 54, 116
10, 50499, Note_on_c, 9, 54, 0
10, 50499, Note_on_c, 9, 42, 0
10, 50592, Note_on_c, 9, 35, 104
10, 50593, Note_on_c, 9, 35, 0
10, 50594, Note_on_c, 9, 42, 84
10, 50595, Note_on_c, 9, 42, 0
10, 50688, Note_on_c, 9, 38, 114
10, 50688, Note_on_c, 9, 42, 106
10, 50688, Note_on_c, 9, 54, 116
10, 50689, Note_on_c, 9, 54, 0
10, 50689, Note_on_c, 9, 42, 0
10, 50689, Note_on_c, 9, 38, 0
10, 50784, Note_on_c, 9, 42, 84
10, 50785, Note_on_c, 9, 42, 0
10, 50880, Note_on_c, 9, 38, 114
10, 50880, Note_on_c, 9, 42, 106
10, 50880, Note_on_c, 9, 54, 116
10, 50881, Note_on_c, 9, 54, 0
10, 50881, Note_on_c, 9, 42, 0
10, 50881, Note_on_c, 9, 38, 0
10, 50976, Note_on_c, 9, 35, 104
10, 50976, Note_on_c, 9, 42, 84
10, 50977, Note_on_c, 9, 42, 0
10, 50977, Note_on_c, 9, 35, 0
10, 51072, Note_on_c, 9, 38, 114
10, 51072, Note_on_c, 9, 42, 106
10, 51072, Note_on_c, 9, 54, 116
10, 51073, Note_on_c, 9, 54, 0
10, 51073, Note_on_c, 9, 42, 0
10, 51073, Note_on_c, 9, 38, 0
10, 51168, Note_on_c, 9, 35, 104
10, 51168, Note_on_c, 9, 42, 84
10, 51169, Note_on_c, 9, 42, 0
10, 51169, Note_on_c, 9, 35, 0
10, 51264, Note_on_c, 9, 38, 114
10, 51264, Note_on_c, 9, 42, 106
10, 51264, Note_on_c, 9, 54, 116
10, 51265, Note_on_c, 9, 54, 0
10, 51265, Note_on_c, 9, 42, 0
10, 51265, Note_on_c, 9, 38, 0
10, 51360, Note_on_c, 9, 35, 104
10, 51360, Note_on_c, 9, 42, 84
10, 51361, Note_on_c, 9, 42, 0
10, 51361, Note_on_c, 9, 35, 0
10, 51456, Note_on_c, 9, 38, 114
10, 51456, Note_on_c, 9, 42, 106
10, 51457, Note_on_c, 9, 42, 0
10, 51457, Note_on_c, 9, 38, 0
10, 51458, Note_on_c, 9, 54, 116
10, 51459, Note_on_c, 9, 54, 0
10, 51552, Note_on_c, 9, 42, 84
10, 51553, Note_on_c, 9, 42, 0
10, 51648, Note_on_c, 9, 38, 114
10, 51648, Note_on_c, 9, 42, 106
10, 51648, Note_on_c, 9, 54, 116
10, 51649, Note_on_c, 9, 54, 0
10, 51649, Note_on_c, 9, 42, 0
10, 51649, Note_on_c, 9, 38, 0
10, 51744, Note_on_c, 9, 35, 104
10, 51744, Note_on_c, 9, 42, 84
10, 51745, Note_on_c, 9, 42, 0
10, 51745, Note_on_c, 9, 35, 0
10, 51840, Note_on_c, 9, 38, 114
10, 51840, Note_on_c, 9, 42, 106
10, 51840, Note_on_c, 9, 54, 116
10, 51841, Note_on_c, 9, 54, 0
10, 51841, Note_on_c, 9, 42, 0
10, 51841, Note_on_c, 9, 38, 0
10, 51936, Note_on_c, 9, 35, 104
10, 51936, Note_on_c, 9, 42, 84
10, 51937, Note_on_c, 9, 42, 0
10, 51937, Note_on_c, 9, 35, 0
10, 52032, Note_on_c, 9, 38, 114
10, 52032, Note_on_c, 9, 42, 106
10, 52032, Note_on_c, 9, 54, 116
10, 52033, Note_on_c, 9, 54, 0
10, 52033, Note_on_c, 9, 42, 0
10, 52033, Note_on_c, 9, 38, 0
10, 52128, Note_on_c, 9, 35, 104
10, 52128, Note_on_c, 9, 42, 84
10, 52129, Note_on_c, 9, 42, 0
10, 52129, Note_on_c, 9, 35, 0
10, 52224, Note_on_c, 9, 38, 114
10, 52224, Note_on_c, 9, 42, 106
10, 52225, Note_on_c, 9, 42, 0
10, 52225, Note_on_c, 9, 38, 0
10, 52226, Note_on_c, 9, 54, 116
10, 52227, Note_on_c, 9, 54, 0
10, 52320, Note_on_c, 9, 42, 84
10, 52321, Note_on_c, 9, 42, 0
10, 52416, Note_on_c, 9, 38, 114
10, 52416, Note_on_c, 9, 42, 106
10, 52417, Note_on_c, 9, 42, 0
10, 52417, Note_on_c, 9, 38, 0
10, 52418, Note_on_c, 9, 54, 116
10, 52419, Note_on_c, 9, 54, 0
10, 52512, Note_on_c, 9, 35, 104
10, 52512, Note_on_c, 9, 42, 84
10, 52513, Note_on_c, 9, 42, 0
10, 52513, Note_on_c, 9, 35, 0
10, 52608, Note_on_c, 9, 38, 114
10, 52608, Note_on_c, 9, 42, 106
10, 52609, Note_on_c, 9, 42, 0
10, 52609, Note_on_c, 9, 38, 0
10, 52610, Note_on_c, 9, 54, 116
10, 52611, Note_on_c, 9, 54, 0
10, 52704, Note_on_c, 9, 42, 84
10, 52704, Note_on_c, 9, 35, 104
10, 52705, Note_on_c, 9, 35, 0
10, 52705, Note_on_c, 9, 42, 0
10, 52800, Note_on_c, 9, 38, 114
10, 52800, Note_on_c, 9, 42, 106
10, 52801, Note_on_c, 9, 42, 0
10, 52801, Note_on_c, 9, 38, 0
10, 52802, Note_on_c, 9, 54, 116
10, 52803, Note_on_c, 9, 54, 0
10, 52896, Note_on_c, 9, 42, 84
10, 52896, Note_on_c, 9, 35, 104
10, 52897, Note_on_c, 9, 35, 0
10, 52897, Note_on_c, 9, 42, 0
10, 52992, Note_on_c, 9, 38, 114
10, 52992, Note_on_c, 9, 42, 106
10, 52993, Note_on_c, 9, 42, 0
10, 52993, Note_on_c, 9, 38, 0
10, 52994, Note_on_c, 9, 54, 116
10, 52995, Note_on_c, 9, 54, 0
10, 53088, Note_on_c, 9, 42, 84
10, 53089, Note_on_c, 9, 42, 0
10, 53184, Note_on_c, 9, 38, 114
10, 53184, Note_on_c, 9, 42, 106
10, 53185, Note_on_c, 9, 42, 0
10, 53185, Note_on_c, 9, 38, 0
10, 53186, Note_on_c, 9, 54, 116
10, 53187, Note_on_c, 9, 54, 0
10, 53280, Note_on_c, 9, 42, 84
10, 53280, Note_on_c, 9, 35, 104
10, 53281, Note_on_c, 9, 35, 0
10, 53281, Note_on_c, 9, 42, 0
10, 53376, Note_on_c, 9, 38, 114
10, 53376, Note_on_c, 9, 42, 106
10, 53377, Note_on_c, 9, 42, 0
10, 53377, Note_on_c, 9, 38, 0
10, 53378, Note_on_c, 9, 54, 116
10, 53379, Note_on_c, 9, 54, 0
10, 53472, Note_on_c, 9, 42, 84
10, 53472, Note_on_c, 9, 35, 104
10, 53473, Note_on_c, 9, 35, 0
10, 53473, Note_on_c, 9, 42, 0
10, 53568, Note_on_c, 9, 38, 114
10, 53568, Note_on_c, 9, 42, 106
10, 53569, Note_on_c, 9, 42, 0
10, 53569, Note_on_c, 9, 38, 0
10, 53570, Note_on_c, 9, 54, 116
10, 53571, Note_on_c, 9, 54, 0
10, 53664, Note_on_c, 9, 42, 84
10, 53664, Note_on_c, 9, 35, 104
10, 53665, Note_on_c, 9, 35, 0
10, 53665, Note_on_c, 9, 42, 0
10, 53760, Note_on_c, 9, 38, 114
10, 53760, Note_on_c, 9, 42, 106
10, 53761, Note_on_c, 9, 42, 0
10, 53761, Note_on_c, 9, 38, 0
10, 53762, Note_on_c, 9, 54, 116
10, 53763, Note_on_c, 9, 54, 0
10, 53856, Note_on_c, 9, 42, 84
10, 53857, Note_on_c, 9, 42, 0
10, 53952, Note_on_c, 9, 38, 114
10, 53953, Note_on_c, 9, 38, 0
10, 53954, Note_on_c, 9, 42, 106
10, 53954, Note_on_c, 9, 54, 116
10, 53955, Note_on_c, 9, 54, 0
10, 53955, Note_on_c, 9, 42, 0
10, 54048, Note_on_c, 9, 42, 84
10, 54048, Note_on_c, 9, 35, 104
10, 54049, Note_on_c, 9, 35, 0
10, 54049, Note_on_c, 9, 42, 0
10, 54144, Note_on_c, 9, 38, 114
10, 54145, Note_on_c, 9, 38, 0
10, 54146, Note_on_c, 9, 42, 106
10, 54146, Note_on_c, 9, 54, 116
10, 54147, Note_on_c, 9, 54, 0
10, 54147, Note_on_c, 9, 42, 0
10, 54240, Note_on_c, 9, 35, 104
10, 54241, Note_on_c, 9, 35, 0
10, 54242, Note_on_c, 9, 42, 84
10, 54243, Note_on_c, 9, 42, 0
10, 54336, Note_on_c, 9, 38, 114
10, 54337, Note_on_c, 9, 38, 0
10, 54338, Note_on_c, 9, 42, 106
10, 54338, Note_on_c, 9, 54, 116
10, 54339, Note_on_c, 9, 54, 0
10, 54339, Note_on_c, 9, 42, 0
10, 54432, Note_on_c, 9, 35, 104
10, 54433, Note_on_c, 9, 35, 0
10, 54434, Note_on_c, 9, 42, 84
10, 54435, Note_on_c, 9, 42, 0
10, 54528, Note_on_c, 9, 38, 114
10, 54529, Note_on_c, 9, 38, 0
10, 54530, Note_on_c, 9, 42, 106
10, 54530, Note_on_c, 9, 54, 116
10, 54531, Note_on_c, 9, 54, 0
10, 54531, Note_on_c, 9, 42, 0
10, 54624, Note_on_c, 9, 42, 84
10, 54625, Note_on_c, 9, 42, 0
10, 54720, Note_on_c, 9, 38, 114
10, 54720, Note_on_c, 9, 42, 106
10, 54720, Note_on_c, 9, 54, 116
10, 54721, Note_on_c, 9, 54, 0
10, 54721, Note_on_c, 9, 42, 0
10, 54721, Note_on_c, 9, 38, 0
10, 54816, Note_on_c, 9, 35, 104
10, 54816, Note_on_c, 9, 42, 84
10, 54817, Note_on_c, 9, 42, 0
10, 54817, Note_on_c, 9, 35, 0
10, 54912, Note_on_c, 9, 38, 114
10, 54912, Note_on_c, 9, 42, 106
10, 54912, Note_on_c, 9, 54, 116
10, 54913, Note_on_c, 9, 54, 0
10, 54913, Note_on_c, 9, 42, 0
10, 54913, Note_on_c, 9, 38, 0
10, 55008, Note_on_c, 9, 35, 104
10, 55008, Note_on_c, 9, 42, 84
10, 55009, Note_on_c, 9, 42, 0
10, 55009, Note_on_c, 9, 35, 0
10, 55104, Note_on_c, 9, 38, 114
10, 55104, Note_on_c, 9, 42, 106
10, 55104, Note_on_c, 9, 54, 116
10, 55105, Note_on_c, 9, 54, 0
10, 55105, Note_on_c, 9, 42, 0
10, 55105, Note_on_c, 9, 38, 0
10, 55200, Note_on_c, 9, 35, 104
10, 55200, Note_on_c, 9, 42, 84
10, 55201, Note_on_c, 9, 42, 0
10, 55201, Note_on_c, 9, 35, 0
10, 55296, Note_on_c, 9, 38, 114
10, 55296, Note_on_c, 9, 42, 106
10, 55296, Note_on_c, 9, 54, 116
10, 55297, Note_on_c, 9, 54, 0
10, 55297, Note_on_c, 9, 42, 0
10, 55297, Note_on_c, 9, 38, 0
10, 55392, Note_on_c, 9, 42, 84
10, 55393, Note_on_c, 9, 42, 0
10, 55488, Note_on_c, 9, 38, 114
10, 55488, Note_on_c, 9, 42, 106
10, 55488, Note_on_c, 9, 54, 116
10, 55489, Note_on_c, 9, 54, 0
10, 55489, Note_on_c, 9, 42, 0
10, 55489, Note_on_c, 9, 38, 0
10, 55584, Note_on_c, 9, 35, 104
10, 55584, Note_on_c, 9, 42, 84
10, 55585, Note_on_c, 9, 42, 0
10, 55585, Note_on_c, 9, 35, 0
10, 55680, Note_on_c, 9, 38, 114
10, 55680, Note_on_c, 9, 42, 106
10, 55681, Note_on_c, 9, 42, 0
10, 55681, Note_on_c, 9, 38, 0
10, 55682, Note_on_c, 9, 54, 116
10, 55683, Note_on_c, 9, 54, 0
10, 55776, Note_on_c, 9, 35, 104
10, 55776, Note_on_c, 9, 42, 84
10, 55777, Note_on_c, 9, 42, 0
10, 55777, Note_on_c, 9, 35, 0
10, 55872, Note_on_c, 9, 38, 114
10, 55872, Note_on_c, 9, 42, 106
10, 55872, Note_on_c, 9, 54, 116
10, 55873, Note_on_c, 9, 54, 0
10, 55873, Note_on_c, 9, 42, 0
10, 55873, Note_on_c, 9, 38, 0
10, 55968, Note_on_c, 9, 35, 104
10, 55968, Note_on_c, 9, 42, 84
10, 55969, Note_on_c, 9, 42, 0
10, 55969, Note_on_c, 9, 35, 0
10, 56064, Note_on_c, 9, 38, 114
10, 56064, Note_on_c, 9, 42, 106
10, 56064, Note_on_c, 9, 54, 116
10, 56065, Note_on_c, 9, 54, 0
10, 56065, Note_on_c, 9, 42, 0
10, 56065, Note_on_c, 9, 38, 0
10, 56160, Note_on_c, 9, 42, 84
10, 56161, Note_on_c, 9, 42, 0
10, 56256, Note_on_c, 9, 38, 114
10, 56256, Note_on_c, 9, 42, 106
10, 56257, Note_on_c, 9, 42, 0
10, 56257, Note_on_c, 9, 38, 0
10, 56258, Note_on_c, 9, 54, 116
10, 56259, Note_on_c, 9, 54, 0
10, 56352, Note_on_c, 9, 35, 104
10, 56352, Note_on_c, 9, 42, 84
10, 56353, Note_on_c, 9, 42, 0
10, 56353, Note_on_c, 9, 35, 0
10, 56448, Note_on_c, 9, 38, 114
10, 56448, Note_on_c, 9, 42, 106
10, 56449, Note_on_c, 9, 42, 0
10, 56449, Note_on_c, 9, 38, 0
10, 56450, Note_on_c, 9, 54, 116
10, 56451, Note_on_c, 9, 54, 0
10, 56544, Note_on_c, 9, 35, 104
10, 56544, Note_on_c, 9, 42, 84
10, 56545, Note_on_c, 9, 42, 0
10, 56545, Note_on_c, 9, 35, 0
10, 56640, Note_on_c, 9, 38, 114
10, 56640, Note_on_c, 9, 42, 106
10, 56641, Note_on_c, 9, 42, 0
10, 56641, Note_on_c, 9, 38, 0
10, 56642, Note_on_c, 9, 54, 116
10, 56643, Note_on_c, 9, 54, 0
10, 56736, Note_on_c, 9, 42, 84
10, 56736, Note_on_c, 9, 35, 104
10, 56737, Note_on_c, 9, 35, 0
10, 56737, Note_on_c, 9, 42, 0
10, 56832, Note_on_c, 9, 38, 114
10, 56832, Note_on_c, 9, 42, 106
10, 56833, Note_on_c, 9, 42, 0
10, 56833, Note_on_c, 9, 38, 0
10, 56834, Note_on_c, 9, 54, 116
10, 56835, Note_on_c, 9, 54, 0
10, 56928, Note_on_c, 9, 42, 84
10, 56929, Note_on_c, 9, 42, 0
10, 57024, Note_on_c, 9, 38, 114
10, 57024, Note_on_c, 9, 42, 106
10, 57025, Note_on_c, 9, 42, 0
10, 57025, Note_on_c, 9, 38, 0
10, 57026, Note_on_c, 9, 54, 116
10, 57027, Note_on_c, 9, 54, 0
10, 57120, Note_on_c, 9, 42, 84
10, 57120, Note_on_c, 9, 35, 104
10, 57121, Note_on_c, 9, 35, 0
10, 57121, Note_on_c, 9, 42, 0
10, 57216, Note_on_c, 9, 38, 114
10, 57216, Note_on_c, 9, 42, 106
10, 57217, Note_on_c, 9, 42, 0
10, 57217, Note_on_c, 9, 38, 0
10, 57218, Note_on_c, 9, 54, 116
10, 57219, Note_on_c, 9, 54, 0
10, 57312, Note_on_c, 9, 42, 84
10, 57312, Note_on_c, 9, 35, 104
10, 57313, Note_on_c, 9, 35, 0
10, 57313, Note_on_c, 9, 42, 0
10, 57408, Note_on_c, 9, 38, 114
10, 57408, Note_on_c, 9, 42, 106
10, 57409, Note_on_c, 9, 42, 0
10, 57409, Note_on_c, 9, 38, 0
10, 57410, Note_on_c, 9, 54, 116
10, 57411, Note_on_c, 9, 54, 0
10, 57504, Note_on_c, 9, 42, 84
10, 57504, Note_on_c, 9, 35, 104
10, 57505, Note_on_c, 9, 35, 0
10, 57505, Note_on_c, 9, 42, 0
10, 57600, Note_on_c, 9, 38, 114
10, 57600, Note_on_c, 9, 42, 106
10, 57601, Note_on_c, 9, 42, 0
10, 57601, Note_on_c, 9, 38, 0
10, 57602, Note_on_c, 9, 54, 116
10, 57603, Note_on_c, 9, 54, 0
10, 57696, Note_on_c, 9, 42, 84
10, 57697, Note_on_c, 9, 42, 0
10, 57792, Note_on_c, 9, 38, 114
10, 57792, Note_on_c, 9, 42, 106
10, 57793, Note_on_c, 9, 42, 0
10, 57793, Note_on_c, 9, 38, 0
10, 57794, Note_on_c, 9, 54, 116
10, 57795, Note_on_c, 9, 54, 0
10, 57888, Note_on_c, 9, 42, 84
10, 57888, Note_on_c, 9, 35, 104
10, 57889, Note_on_c, 9, 35, 0
10, 57889, Note_on_c, 9, 42, 0
10, 57984, Note_on_c, 9, 38, 114
10, 57984, Note_on_c, 9, 42, 106
10, 57985, Note_on_c, 9, 42, 0
10, 57985, Note_on_c, 9, 38, 0
10, 57986, Note_on_c, 9, 54, 116
10, 57987, Note_on_c, 9, 54, 0
10, 58080, Note_on_c, 9, 42, 84
10, 58080, Note_on_c, 9, 35, 104
10, 58081, Note_on_c, 9, 35, 0
10, 58081, Note_on_c, 9, 42, 0
10, 58176, Note_on_c, 9, 38, 114
10, 58177, Note_on_c, 9, 38, 0
10, 58178, Note_on_c, 9, 42, 106
10, 58178, Note_on_c, 9, 54, 116
10, 58179, Note_on_c, 9, 54, 0
10, 58179, Note_on_c, 9, 42, 0
10, 58272, Note_on_c, 9, 35, 104
10, 58273, Note_on_c, 9, 35, 0
10, 58274, Note_on_c, 9, 42, 84
10, 58275, Note_on_c, 9, 42, 0
10, 58368, Note_on_c, 9, 38, 114
10, 58369, Note_on_c, 9, 38, 0
10, 58370, Note_on_c, 9, 42, 106
10, 58370, Note_on_c, 9, 54, 116
10, 58371, Note_on_c, 9, 54, 0
10, 58371, Note_on_c, 9, 42, 0
10, 58464, Note_on_c, 9, 42, 84
10, 58465, Note_on_c, 9, 42, 0
10, 58560, Note_on_c, 9, 38, 114
10, 58561, Note_on_c, 9, 38, 0
10, 58562, Note_on_c, 9, 42, 106
10, 58562, Note_on_c, 9, 54, 116
10, 58563, Note_on_c, 9, 54, 0
10, 58563, Note_on_c, 9, 42, 0
10, 58656, Note_on_c, 9, 42, 84
10, 58656, Note_on_c, 9, 35, 104
10, 58657, Note_on_c, 9, 35, 0
10, 58657, Note_on_c, 9, 42, 0
10, 58752, Note_on_c, 9, 38, 114
10, 58752, Note_on_c, 9, 42, 106
10, 58752, Note_on_c, 9, 54, 116
10, 58753, Note_on_c, 9, 54, 0
10, 58753, Note_on_c, 9, 42, 0
10, 58753, Note_on_c, 9, 38, 0
10, 58848, Note_on_c, 9, 35, 104
10, 58848, Note_on_c, 9, 42, 84
10, 58849, Note_on_c, 9, 42, 0
10, 58849, Note_on_c, 9, 35, 0
10, 58944, Note_on_c, 9, 38, 114
10, 58944, Note_on_c, 9, 42, 106
10, 58944, Note_on_c, 9, 54, 116
10, 58945, Note_on_c, 9, 54, 0
10, 58945, Note_on_c, 9, 42, 0
10, 58945, Note_on_c, 9, 38, 0
10, 59040, Note_on_c, 9, 35, 104
10, 59040, Note_on_c, 9, 42, 84
10, 59041, Note_on_c, 9, 42, 0
10, 59041, Note_on_c, 9, 35, 0
10, 59136, Note_on_c, 9, 38, 114
10, 59136, Note_on_c, 9, 42, 106
10, 59136, Note_on_c, 9, 49, 94
10, 59137, Note_on_c, 9, 49, 0
10, 59137, Note_on_c, 9, 42, 0
10, 59137, Note_on_c, 9, 38, 0
10, 59138, Note_on_c, 9, 54, 116
10, 59139, Note_on_c, 9, 54, 0
10, 59232, Note_on_c, 9, 42, 84
10, 59233, Note_on_c, 9, 42, 0
10, 59328, Note_on_c, 9, 38, 114
10, 59328, Note_on_c, 9, 42, 106
10, 59328, Note_on_c, 9, 54, 116
10, 59329, Note_on_c, 9, 54, 0
10, 59329, Note_on_c, 9, 42, 0
10, 59329, Note_on_c, 9, 38, 0
10, 59424, Note_on_c, 9, 35, 104
10, 59424, Note_on_c, 9, 42, 84
10, 59425, Note_on_c, 9, 42, 0
10, 59425, Note_on_c, 9, 35, 0
10, 59520, Note_on_c, 9, 38, 114
10, 59520, Note_on_c, 9, 42, 106
10, 59520, Note_on_c, 9, 54, 116
10, 59521, Note_on_c, 9, 54, 0
10, 59521, Note_on_c, 9, 42, 0
10, 59521, Note_on_c, 9, 38, 0
10, 59616, Note_on_c, 9, 35, 104
10, 59616, Note_on_c, 9, 42, 84
10, 59617, Note_on_c, 9, 42, 0
10, 59617, Note_on_c, 9, 35, 0
10, 59712, Note_on_c, 9, 38, 114
10, 59712, Note_on_c, 9, 42, 106
10, 59712, Note_on_c, 9, 54, 116
10, 59713, Note_on_c, 9, 54, 0
10, 59713, Note_on_c, 9, 42, 0
10, 59713, Note_on_c, 9, 38, 0
10, 59808, Note_on_c, 9, 35, 104
10, 59808, Note_on_c, 9, 42, 84
10, 59809, Note_on_c, 9, 42, 0
10, 59809, Note_on_c, 9, 35, 0
10, 59904, Note_on_c, 9, 38, 114
10, 59904, Note_on_c, 9, 42, 106
10, 59905, Note_on_c, 9, 42, 0
10, 59905, Note_on_c, 9, 38, 0
10, 59906, Note_on_c, 9, 54, 116
10, 59907, Note_on_c, 9, 54, 0
10, 60000, Note_on_c, 9, 42, 84
10, 60001, Note_on_c, 9, 42, 0
10, 60096, Note_on_c, 9, 38, 114
10, 60096, Note_on_c, 9, 42, 106
10, 60096, Note_on_c, 9, 54, 116
10, 60097, Note_on_c, 9, 54, 0
10, 60097, Note_on_c, 9, 42, 0
10, 60097, Note_on_c, 9, 38, 0
10, 60192, Note_on_c, 9, 35, 104
10, 60192, Note_on_c, 9, 42, 84
10, 60193, Note_on_c, 9, 42, 0
10, 60193, Note_on_c, 9, 35, 0
10, 60288, Note_on_c, 9, 38, 114
10, 60288, Note_on_c, 9, 42, 106
10, 60289, Note_on_c, 9, 42, 0
10, 60289, Note_on_c, 9, 38, 0
10, 60290, Note_on_c, 9, 54, 116
10, 60291, Note_on_c, 9, 54, 0
10, 60336, Note_on_c, 9, 38, 114
10, 60337, Note_on_c, 9, 38, 0
10, 60384, Note_on_c, 9, 35, 104
10, 60384, Note_on_c, 9, 38, 114
10, 60385, Note_on_c, 9, 38, 0
10, 60385, Note_on_c, 9, 35, 0
10, 60386, Note_on_c, 9, 42, 84
10, 60387, Note_on_c, 9, 42, 0
10, 60432, Note_on_c, 9, 38, 114
10, 60433, Note_on_c, 9, 38, 0
10, 60480, Note_on_c, 9, 38, 114
10, 60480, Note_on_c, 9, 42, 106
10, 60481, Note_on_c, 9, 42, 0
10, 60481, Note_on_c, 9, 38, 0
10, 60482, Note_on_c, 9, 54, 116
10, 60482, Note_on_c, 9, 50, 104
10, 60483, Note_on_c, 9, 50, 0
10, 60483, Note_on_c, 9, 54, 0
10, 60528, Note_on_c, 9, 50, 104
10, 60529, Note_on_c, 9, 50, 0
10, 60576, Note_on_c, 9, 35, 104
10, 60576, Note_on_c, 9, 42, 84
10, 60577, Note_on_c, 9, 42, 0
10, 60577, Note_on_c, 9, 35, 0
10, 60578, Note_on_c, 9, 43, 104
10, 60579, Note_on_c, 9, 43, 0
10, 60624, Note_on_c, 9, 43, 104
10, 60625, Note_on_c, 9, 43, 0
10, 60672, Note_on_c, 9, 38, 114
10, 60672, Note_on_c, 9, 42, 106
10, 60673, Note_on_c, 9, 42, 0
10, 60673, Note_on_c, 9, 38, 0
10, 60674, Note_on_c, 9, 49, 94
10, 60674, Note_on_c, 9, 54, 116
10, 60675, Note_on_c, 9, 54, 0
10, 60675, Note_on_c, 9, 49, 0
10, 60768, Note_on_c, 9, 42, 84
10, 60769, Note_on_c, 9, 42, 0
10, 60864, Note_on_c, 9, 38, 114
10, 60864, Note_on_c, 9, 42, 106
10, 60865, Note_on_c, 9, 42, 0
10, 60865, Note_on_c, 9, 38, 0
10, 60866, Note_on_c, 9, 54, 116
10, 60867, Note_on_c, 9, 54, 0
10, 60960, Note_on_c, 9, 42, 84
10, 60960, Note_on_c, 9, 35, 104
10, 60961, Note_on_c, 9, 35, 0
10, 60961, Note_on_c, 9, 42, 0
10, 61056, Note_on_c, 9, 38, 114
10, 61056, Note_on_c, 9, 42, 106
10, 61057, Note_on_c, 9, 42, 0
10, 61057, Note_on_c, 9, 38, 0
10, 61058, Note_on_c, 9, 54, 116
10, 61059, Note_on_c, 9, 54, 0
10, 61152, Note_on_c, 9, 42, 84
10, 61152, Note_on_c, 9, 35, 104
10, 61153, Note_on_c, 9, 35, 0
10, 61153, Note_on_c, 9, 42, 0
10, 61248, Note_on_c, 9, 38, 114
10, 61248, Note_on_c, 9, 42, 106
10, 61249, Note_on_c, 9, 42, 0
10, 61249, Note_on_c, 9, 38, 0
10, 61250, Note_on_c, 9, 54, 116
10, 61251, Note_on_c, 9, 54, 0
10, 61344, Note_on_c, 9, 42, 84
10, 61344, Note_on_c, 9, 35, 104
10, 61345, Note_on_c, 9, 35, 0
10, 61345, Note_on_c, 9, 42, 0
10, 61440, Note_on_c, 9, 38, 114
10, 61440, Note_on_c, 9, 42, 106
10, 61441, Note_on_c, 9, 42, 0
10, 61441, Note_on_c, 9, 38, 0
10, 61442, Note_on_c, 9, 54, 116
10, 61443, Note_on_c, 9, 54, 0
10, 61536, Note_on_c, 9, 42, 84
10, 61537, Note_on_c, 9, 42, 0
10, 61632, Note_on_c, 9, 38, 114
10, 61632, Note_on_c, 9, 42, 106
10, 61633, Note_on_c, 9, 42, 0
10, 61633, Note_on_c, 9, 38, 0
10, 61634, Note_on_c, 9, 54, 116
10, 61635, Note_on_c, 9, 54, 0
10, 61728, Note_on_c, 9, 42, 84
10, 61728, Note_on_c, 9, 35, 104
10, 61729, Note_on_c, 9, 35, 0
10, 61729, Note_on_c, 9, 42, 0
10, 61824, Note_on_c, 9, 38, 114
10, 61824, Note_on_c, 9, 42, 106
10, 61825, Note_on_c, 9, 42, 0
10, 61825, Note_on_c, 9, 38, 0
10, 61826, Note_on_c, 9, 54, 116
10, 61827, Note_on_c, 9, 54, 0
10, 61920, Note_on_c, 9, 42, 84
10, 61920, Note_on_c, 9, 35, 104
10, 61921, Note_on_c, 9, 35, 0
10, 61921, Note_on_c, 9, 42, 0
10, 62016, Note_on_c, 9, 38, 114
10, 62017, Note_on_c, 9, 38, 0
10, 62018, Note_on_c, 9, 42, 106
10, 62018, Note_on_c, 9, 54, 116
10, 62019, Note_on_c, 9, 54, 0
10, 62019, Note_on_c, 9, 42, 0
10, 62112, Note_on_c, 9, 35, 104
10, 62113, Note_on_c, 9, 35, 0
10, 62114, Note_on_c, 9, 42, 84
10, 62115, Note_on_c, 9, 42, 0
10, 62208, Note_on_c, 9, 38, 114
10, 62209, Note_on_c, 9, 38, 0
10, 62210, Note_on_c, 9, 42, 106
10, 62210, Note_on_c, 9, 49, 94
10, 62210, Note_on_c, 9, 54, 116
10, 62211, Note_on_c, 9, 54, 0
10, 62211, Note_on_c, 9, 49, 0
10, 62211, Note_on_c, 9, 42, 0
10, 62304, Note_on_c, 9, 42, 84
10, 62305, Note_on_c, 9, 42, 0
10, 62400, Note_on_c, 9, 38, 114
10, 62401, Note_on_c, 9, 38, 0
10, 62402, Note_on_c, 9, 42, 106
10, 62402, Note_on_c, 9, 54, 116
10, 62403, Note_on_c, 9, 54, 0
10, 62403, Note_on_c, 9, 42, 0
10, 62496, Note_on_c, 9, 35, 104
10, 62497, Note_on_c, 9, 35, 0
10, 62498, Note_on_c, 9, 42, 84
10, 62499, Note_on_c, 9, 42, 0
10, 62592, Note_on_c, 9, 38, 114
10, 62593, Note_on_c, 9, 38, 0
10, 62594, Note_on_c, 9, 42, 106
10, 62594, Note_on_c, 9, 54, 116
10, 62595, Note_on_c, 9, 54, 0
10, 62595, Note_on_c, 9, 42, 0
10, 62688, Note_on_c, 9, 35, 104
10, 62689, Note_on_c, 9, 35, 0
10, 62690, Note_on_c, 9, 42, 84
10, 62691, Note_on_c, 9, 42, 0
10, 62784, Note_on_c, 9, 38, 114
10, 62784, Note_on_c, 9, 42, 106
10, 62784, Note_on_c, 9, 54, 116
10, 62785, Note_on_c, 9, 54, 0
10, 62785, Note_on_c, 9, 42, 0
10, 62785, Note_on_c, 9, 38, 0
10, 62880, Note_on_c, 9, 35, 104
10, 62880, Note_on_c, 9, 42, 84
10, 62881, Note_on_c, 9, 42, 0
10, 62881, Note_on_c, 9, 35, 0
10, 62976, Note_on_c, 9, 38, 114
10, 62976, Note_on_c, 9, 42, 106
10, 62976, Note_on_c, 9, 54, 116
10, 62977, Note_on_c, 9, 54, 0
10, 62977, Note_on_c, 9, 42, 0
10, 62977, Note_on_c, 9, 38, 0
10, 63072, Note_on_c, 9, 42, 84
10, 63073, Note_on_c, 9, 42, 0
10, 63168, Note_on_c, 9, 38, 114
10, 63168, Note_on_c, 9, 42, 106
10, 63168, Note_on_c, 9, 54, 116
10, 63169, Note_on_c, 9, 54, 0
10, 63169, Note_on_c, 9, 42, 0
10, 63169, Note_on_c, 9, 38, 0
10, 63264, Note_on_c, 9, 35, 104
10, 63264, Note_on_c, 9, 42, 84
10, 63265, Note_on_c, 9, 42, 0
10, 63265, Note_on_c, 9, 35, 0
10, 63360, Note_on_c, 9, 38, 114
10, 63360, Note_on_c, 9, 42, 106
10, 63360, Note_on_c, 9, 54, 116
10, 63361, Note_on_c, 9, 54, 0
10, 63361, Note_on_c, 9, 42, 0
10, 63361, Note_on_c, 9, 38, 0
10, 63408, Note_on_c, 9, 38, 114
10, 63409, Note_on_c, 9, 38, 0
10, 63456, Note_on_c, 9, 35, 104
10, 63456, Note_on_c, 9, 38, 114
10, 63456, Note_on_c, 9, 42, 84
10, 63457, Note_on_c, 9, 42, 0
10, 63457, Note_on_c, 9, 38, 0
10, 63457, Note_on_c, 9, 35, 0
10, 63504, Note_on_c, 9, 38, 114
10, 63505, Note_on_c, 9, 38, 0
10, 63552, Note_on_c, 9, 38, 114
10, 63552, Note_on_c, 9, 42, 106
10, 63552, Note_on_c, 9, 50, 104
10, 63553, Note_on_c, 9, 50, 0
10, 63553, Note_on_c, 9, 42, 0
10, 63553, Note_on_c, 9, 38, 0
10, 63554, Note_on_c, 9, 54, 116
10, 63555, Note_on_c, 9, 54, 0
10, 63600, Note_on_c, 9, 50, 104
10, 63601, Note_on_c, 9, 50, 0
10, 63648, Note_on_c, 9, 35, 104
10, 63648, Note_on_c, 9, 42, 84
10, 63648, Note_on_c, 9, 43, 104
10, 63649, Note_on_c, 9, 43, 0
10, 63649, Note_on_c, 9, 42, 0
10, 63649, Note_on_c, 9, 35, 0
10, 63696, Note_on_c, 9, 43, 104
10, 63697, Note_on_c, 9, 43, 0
10, 63744, Note_on_c, 9, 38, 114
10, 63744, Note_on_c, 9, 42, 106
10, 63744, Note_on_c, 9, 49, 94
10, 63745, Note_on_c, 9, 49, 0
10, 63745, Note_on_c, 9, 42, 0
10, 63745, Note_on_c, 9, 38, 0
10, 63746, Note_on_c, 9, 54, 116
10, 63747, Note_on_c, 9, 54, 0
10, 63840, Note_on_c, 9, 42, 84
10, 63841, Note_on_c, 9, 42, 0
10, 63936, Note_on_c, 9, 38, 114
10, 63936, Note_on_c, 9, 42, 106
10, 63936, Note_on_c, 9, 54, 116
10, 63937, Note_on_c, 9, 54, 0
10, 63937, Note_on_c, 9, 42, 0
10, 63937, Note_on_c, 9, 38, 0
10, 64032, Note_on_c, 9, 35, 104
10, 64032, Note_on_c, 9, 42, 84
10, 64033, Note_on_c, 9, 42, 0
10, 64033, Note_on_c, 9, 35, 0
10, 64128, Note_on_c, 9, 38, 114
10, 64128, Note_on_c, 9, 42, 106
10, 64129, Note_on_c, 9, 42, 0
10, 64129, Note_on_c, 9, 38, 0
10, 64130, Note_on_c, 9, 54, 116
10, 64131, Note_on_c, 9, 54, 0
10, 64224, Note_on_c, 9, 35, 104
10, 64224, Note_on_c, 9, 42, 84
10, 64225, Note_on_c, 9, 42, 0
10, 64225, Note_on_c, 9, 35, 0
10, 64320, Note_on_c, 9, 38, 114
10, 64320, Note_on_c, 9, 42, 106
10, 64321, Note_on_c, 9, 42, 0
10, 64321, Note_on_c, 9, 38, 0
10, 64322, Note_on_c, 9, 54, 116
10, 64323, Note_on_c, 9, 54, 0
10, 64416, Note_on_c, 9, 35, 104
10, 64416, Note_on_c, 9, 42, 84
10, 64417, Note_on_c, 9, 42, 0
10, 64417, Note_on_c, 9, 35, 0
10, 64512, Note_on_c, 9, 38, 114
10, 64512, Note_on_c, 9, 42, 106
10, 64513, Note_on_c, 9, 42, 0
10, 64513, Note_on_c, 9, 38, 0
10, 64514, Note_on_c, 9, 54, 116
10, 64515, Note_on_c, 9, 54, 0
10, 64608, Note_on_c, 9, 42, 84
10, 64609, Note_on_c, 9, 42, 0
10, 64704, Note_on_c, 9, 38, 114
10, 64704, Note_on_c, 9, 42, 106
10, 64705, Note_on_c, 9, 42, 0
10, 64705, Note_on_c, 9, 38, 0
10, 64706, Note_on_c, 9, 54, 116
10, 64707, Note_on_c, 9, 54, 0
10, 64800, Note_on_c, 9, 35, 104
10, 64800, Note_on_c, 9, 42, 84
10, 64801, Note_on_c, 9, 42, 0
10, 64801, Note_on_c, 9, 35, 0
10, 64896, Note_on_c, 9, 38, 114
10, 64896, Note_on_c, 9, 42, 106
10, 64897, Note_on_c, 9, 42, 0
10, 64897, Note_on_c, 9, 38, 0
10, 64898, Note_on_c, 9, 54, 116
10, 64899, Note_on_c, 9, 54, 0
10, 64992, Note_on_c, 9, 42, 84
10, 64992, Note_on_c, 9, 35, 104
10, 64993, Note_on_c, 9, 35, 0
10, 64993, Note_on_c, 9, 42, 0
10, 65088, Note_on_c, 9, 38, 114
10, 65088, Note_on_c, 9, 42, 106
10, 65089, Note_on_c, 9, 42, 0
10, 65089, Note_on_c, 9, 38, 0
10, 65090, Note_on_c, 9, 54, 116
10, 65091, Note_on_c, 9, 54, 0
10, 65184, Note_on_c, 9, 42, 84
10, 65184, Note_on_c, 9, 35, 104
10, 65185, Note_on_c, 9, 35, 0
10, 65185, Note_on_c, 9, 42, 0
10, 65280, Note_on_c, 9, 38, 114
10, 65280, Note_on_c, 9, 42, 106
10, 65281, Note_on_c, 9, 42, 0
10, 65281, Note_on_c, 9, 38, 0
10, 65282, Note_on_c, 9, 49, 94
10, 65282, Note_on_c, 9, 54, 116
10, 65283, Note_on_c, 9, 54, 0
10, 65283, Note_on_c, 9, 49, 0
10, 65376, Note_on_c, 9, 42, 84
10, 65377, Note_on_c, 9, 42, 0
10, 65472, Note_on_c, 9, 38, 114
10, 65472, Note_on_c, 9, 42, 106
10, 65473, Note_on_c, 9, 42, 0
10, 65473, Note_on_c, 9, 38, 0
10, 65474, Note_on_c, 9, 54, 116
10, 65475, Note_on_c, 9, 54, 0
10, 65568, Note_on_c, 9, 42, 84
10, 65568, Note_on_c, 9, 35, 104
10, 65569, Note_on_c, 9, 35, 0
10, 65569, Note_on_c, 9, 42, 0
10, 65664, Note_on_c, 9, 38, 114
10, 65664, Note_on_c, 9, 42, 106
10, 65665, Note_on_c, 9, 42, 0
10, 65665, Note_on_c, 9, 38, 0
10, 65666, Note_on_c, 9, 54, 116
10, 65667, Note_on_c, 9, 54, 0
10, 65760, Note_on_c, 9, 42, 84
10, 65760, Note_on_c, 9, 35, 104
10, 65761, Note_on_c, 9, 35, 0
10, 65761, Note_on_c, 9, 42, 0
10, 65856, Note_on_c, 9, 38, 114
10, 65856, Note_on_c, 9, 42, 106
10, 65857, Note_on_c, 9, 42, 0
10, 65857, Note_on_c, 9, 38, 0
10, 65858, Note_on_c, 9, 54, 116
10, 65859, Note_on_c, 9, 54, 0
10, 65952, Note_on_c, 9, 42, 84
10, 65952, Note_on_c, 9, 35, 104
10, 65953, Note_on_c, 9, 35, 0
10, 65953, Note_on_c, 9, 42, 0
10, 66048, Note_on_c, 9, 38, 114
10, 66048, Note_on_c, 9, 42, 106
10, 66049, Note_on_c, 9, 42, 0
10, 66049, Note_on_c, 9, 38, 0
10, 66050, Note_on_c, 9, 54, 116
10, 66051, Note_on_c, 9, 54, 0
10, 66144, Note_on_c, 9, 42, 84
10, 66145, Note_on_c, 9, 42, 0
10, 66240, Note_on_c, 9, 38, 114
10, 66241, Note_on_c, 9, 38, 0
10, 66242, Note_on_c, 9, 42, 106
10, 66242, Note_on_c, 9, 54, 116
10, 66243, Note_on_c, 9, 54, 0
10, 66243, Note_on_c, 9, 42, 0
10, 66336, Note_on_c, 9, 35, 104
10, 66337, Note_on_c, 9, 35, 0
10, 66338, Note_on_c, 9, 42, 84
10, 66339, Note_on_c, 9, 42, 0
10, 66432, Note_on_c, 9, 38, 114
10, 66433, Note_on_c, 9, 38, 0
10, 66434, Note_on_c, 9, 42, 106
10, 66434, Note_on_c, 9, 54, 116
10, 66435, Note_on_c, 9, 54, 0
10, 66435, Note_on_c, 9, 42, 0
10, 66480, Note_on_c, 9, 38, 114
10, 66481, Note_on_c, 9, 38, 0
10, 66528, Note_on_c, 9, 35, 104
10, 66529, Note_on_c, 9, 35, 0
10, 66530, Note_on_c, 9, 38, 114
10, 66530, Note_on_c, 9, 42, 84
10, 66531, Note_on_c, 9, 42, 0
10, 66531, Note_on_c, 9, 38, 0
10, 66576, Note_on_c, 9, 38, 114
10, 66577, Note_on_c, 9, 38, 0
10, 66624, Note_on_c, 9, 38, 114
10, 66625, Note_on_c, 9, 38, 0
10, 66626, Note_on_c, 9, 42, 106
10, 66626, Note_on_c, 9, 54, 116
10, 66626, Note_on_c, 9, 50, 104
10, 66627, Note_on_c, 9, 50, 0
10, 66627, Note_on_c, 9, 54, 0
10, 66627, Note_on_c, 9, 42, 0
10, 66672, Note_on_c, 9, 50, 104
10, 66673, Note_on_c, 9, 50, 0
10, 66720, Note_on_c, 9, 35, 104
10, 66721, Note_on_c, 9, 35, 0
10, 66722, Note_on_c, 9, 42, 84
10, 66722, Note_on_c, 9, 43, 104
10, 66723, Note_on_c, 9, 43, 0
10, 66723, Note_on_c, 9, 42, 0
10, 66768, Note_on_c, 9, 43, 104
10, 66769, Note_on_c, 9, 43, 0
10, 66816, Note_on_c, 9, 38, 114
10, 66817, Note_on_c, 9, 38, 0
10, 66818, Note_on_c, 9, 42, 106
10, 66818, Note_on_c, 9, 49, 94
10, 66818, Note_on_c, 9, 54, 116
10, 66819, Note_on_c, 9, 54, 0
10, 66819, Note_on_c, 9, 49, 0
10, 66819, Note_on_c, 9, 42, 0
10, 66912, Note_on_c, 9, 42, 84
10, 66913, Note_on_c, 9, 42, 0
10, 67008, Note_on_c, 9, 38, 114
10, 67008, Note_on_c, 9, 42, 106
10, 67008, Note_on_c, 9, 54, 116
10, 67009, Note_on_c, 9, 54, 0
10, 67009, Note_on_c, 9, 42, 0
10, 67009, Note_on_c, 9, 38, 0
10, 67104, Note_on_c, 9, 35, 104
10, 67104, Note_on_c, 9, 42, 84
10, 67105, Note_on_c, 9, 42, 0
10, 67105, Note_on_c, 9, 35, 0
10, 67200, Note_on_c, 9, 38, 114
10, 67200, Note_on_c, 9, 42, 106
10, 67200, Note_on_c, 9, 54, 116
10, 67201, Note_on_c, 9, 54, 0
10, 67201, Note_on_c, 9, 42, 0
10, 67201, Note_on_c, 9, 38, 0
10, 67296, Note_on_c, 9, 35, 104
10, 67296, Note_on_c, 9, 42, 84
10, 67297, Note_on_c, 9, 42, 0
10, 67297, Note_on_c, 9, 35, 0
10, 67392, Note_on_c, 9, 38, 114
10, 67392, Note_on_c, 9, 42, 106
10, 67392, Note_on_c, 9, 54, 116
10, 67393, Note_on_c, 9, 54, 0
10, 67393, Note_on_c, 9, 42, 0
10, 67393, Note_on_c, 9, 38, 0
10, 67488, Note_on_c, 9, 35, 104
10, 67488, Note_on_c, 9, 42, 84
10, 67489, Note_on_c, 9, 42, 0
10, 67489, Note_on_c, 9, 35, 0
10, 67584, Note_on_c, 9, 38, 114
10, 67584, Note_on_c, 9, 42, 106
10, 67584, Note_on_c, 9, 54, 116
10, 67585, Note_on_c, 9, 54, 0
10, 67585, Note_on_c, 9, 42, 0
10, 67585, Note_on_c, 9, 38, 0
10, 67680, Note_on_c, 9, 42, 84
10, 67681, Note_on_c, 9, 42, 0
10, 67776, Note_on_c, 9, 38, 114
10, 67776, Note_on_c, 9, 42, 106
10, 67777, Note_on_c, 9, 42, 0
10, 67777, Note_on_c, 9, 38, 0
10, 67778, Note_on_c, 9, 54, 116
10, 67779, Note_on_c, 9, 54, 0
10, 67872, Note_on_c, 9, 35, 104
10, 67872, Note_on_c, 9, 42, 84
10, 67873, Note_on_c, 9, 42, 0
10, 67873, Note_on_c, 9, 35, 0
10, 67968, Note_on_c, 9, 38, 114
10, 67968, Note_on_c, 9, 42, 106
10, 67968, Note_on_c, 9, 54, 116
10, 67969, Note_on_c, 9, 54, 0
10, 67969, Note_on_c, 9, 42, 0
10, 67969, Note_on_c, 9, 38, 0
10, 68064, Note_on_c, 9, 35, 104
10, 68064, Note_on_c, 9, 42, 84
10, 68065, Note_on_c, 9, 42, 0
10, 68065, Note_on_c, 9, 35, 0
10, 68160, Note_on_c, 9, 38, 114
10, 68160, Note_on_c, 9, 42, 106
10, 68161, Note_on_c, 9, 42, 0
10, 68161, Note_on_c, 9, 38, 0
10, 68162, Note_on_c, 9, 54, 116
10, 68163, Note_on_c, 9, 54, 0
10, 68256, Note_on_c, 9, 35, 104
10, 68256, Note_on_c, 9, 42, 84
10, 68257, Note_on_c, 9, 42, 0
10, 68257, Note_on_c, 9, 35, 0
10, 68352, Note_on_c, 9, 38, 114
10, 68352, Note_on_c, 9, 42, 106
10, 68353, Note_on_c, 9, 42, 0
10, 68353, Note_on_c, 9, 38, 0
10, 68354, Note_on_c, 9, 49, 94
10, 68354, Note_on_c, 9, 54, 116
10, 68355, Note_on_c, 9, 54, 0
10, 68355, Note_on_c, 9, 49, 0
10, 68448, Note_on_c, 9, 42, 84
10, 68449, Note_on_c, 9, 42, 0
10, 68544, Note_on_c, 9, 38, 114
10, 68544, Note_on_c, 9, 42, 106
10, 68545, Note_on_c, 9, 42, 0
10, 68545, Note_on_c, 9, 38, 0
10, 68546, Note_on_c, 9, 54, 116
10, 68547, Note_on_c, 9, 54, 0
10, 68640, Note_on_c, 9, 35, 104
10, 68640, Note_on_c, 9, 42, 84
10, 68641, Note_on_c, 9, 42, 0
10, 68641, Note_on_c, 9, 35, 0
10, 68736, Note_on_c, 9, 38, 114
10, 68736, Note_on_c, 9, 42, 106
10, 68737, Note_on_c, 9, 42, 0
10, 68737, Note_on_c, 9, 38, 0
10, 68738, Note_on_c, 9, 54, 116
10, 68739, Note_on_c, 9, 54, 0
10, 68832, Note_on_c, 9, 35, 104
10, 68832, Note_on_c, 9, 42, 84
10, 68833, Note_on_c, 9, 42, 0
10, 68833, Note_on_c, 9, 35, 0
10, 68928, Note_on_c, 9, 38, 114
10, 68928, Note_on_c, 9, 42, 106
10, 68929, Note_on_c, 9, 42, 0
10, 68929, Note_on_c, 9, 38, 0
10, 68930, Note_on_c, 9, 54, 116
10, 68931, Note_on_c, 9, 54, 0
10, 69024, Note_on_c, 9, 42, 84
10, 69024, Note_on_c, 9, 35, 104
10, 69025, Note_on_c, 9, 35, 0
10, 69025, Note_on_c, 9, 42, 0
10, 69120, Note_on_c, 9, 38, 114
10, 69120, Note_on_c, 9, 42, 106
10, 69121, Note_on_c, 9, 42, 0
10, 69121, Note_on_c, 9, 38, 0
10, 69122, Note_on_c, 9, 54, 116
10, 69123, Note_on_c, 9, 54, 0
10, 69216, Note_on_c, 9, 42, 84
10, 69217, Note_on_c, 9, 42, 0
10, 69312, Note_on_c, 9, 38, 114
10, 69312, Note_on_c, 9, 42, 106
10, 69313, Note_on_c, 9, 42, 0
10, 69313, Note_on_c, 9, 38, 0
10, 69314, Note_on_c, 9, 54, 116
10, 69315, Note_on_c, 9, 54, 0
10, 69408, Note_on_c, 9, 42, 84
10, 69408, Note_on_c, 9, 35, 104
10, 69409, Note_on_c, 9, 35, 0
10, 69409, Note_on_c, 9, 42, 0
10, 69504, Note_on_c, 9, 38, 114
10, 69504, Note_on_c, 9, 42, 106
10, 69505, Note_on_c, 9, 42, 0
10, 69505, Note_on_c, 9, 38, 0
10, 69506, Note_on_c, 9, 54, 116
10, 69507, Note_on_c, 9, 54, 0
10, 69552, Note_on_c, 9, 38, 114
10, 69553, Note_on_c, 9, 38, 0
10, 69600, Note_on_c, 9, 38, 114
10, 69600, Note_on_c, 9, 35, 104
10, 69601, Note_on_c, 9, 35, 0
10, 69601, Note_on_c, 9, 38, 0
10, 69602, Note_on_c, 9, 42, 84
10, 69603, Note_on_c, 9, 42, 0
10, 69648, Note_on_c, 9, 38, 114
10, 69649, Note_on_c, 9, 38, 0
10, 69696, Note_on_c, 9, 38, 114
10, 69696, Note_on_c, 9, 42, 106
10, 69697, Note_on_c, 9, 42, 0
10, 69697, Note_on_c, 9, 38, 0
10, 69698, Note_on_c, 9, 54, 116
10, 69698, Note_on_c, 9, 50, 104
10, 69699, Note_on_c, 9, 50, 0
10, 69699, Note_on_c, 9, 54, 0
10, 69744, Note_on_c, 9, 50, 104
10, 69745, Note_on_c, 9, 50, 0
10, 69792, Note_on_c, 9, 42, 84
10, 69792, Note_on_c, 9, 35, 104
10, 69793, Note_on_c, 9, 35, 0
10, 69793, Note_on_c, 9, 42, 0
10, 69794, Note_on_c, 9, 43, 104
10, 69795, Note_on_c, 9, 43, 0
10, 69840, Note_on_c, 9, 43, 104
10, 69841, Note_on_c, 9, 43, 0
10, 69888, Note_on_c, 9, 38, 114
10, 69888, Note_on_c, 9, 42, 106
10, 69889, Note_on_c, 9, 42, 0
10, 69889, Note_on_c, 9, 38, 0
10, 69890, Note_on_c, 9, 54, 116
10, 69891, Note_on_c, 9, 54, 0
10, 69984, Note_on_c, 9, 42, 84
10, 69985, Note_on_c, 9, 42, 0
10, 70080, Note_on_c, 9, 38, 114
10, 70080, Note_on_c, 9, 42, 106
10, 70081, Note_on_c, 9, 42, 0
10, 70081, Note_on_c, 9, 38, 0
10, 70082, Note_on_c, 9, 54, 116
10, 70083, Note_on_c, 9, 54, 0
10, 70176, Note_on_c, 9, 35, 104
10, 70177, Note_on_c, 9, 35, 0
10, 70178, Note_on_c, 9, 42, 84
10, 70179, Note_on_c, 9, 42, 0
10, 70272, Note_on_c, 9, 38, 114
10, 70272, Note_on_c, 9, 42, 106
10, 70273, Note_on_c, 9, 42, 0
10, 70273, Note_on_c, 9, 38, 0
10, 70274, Note_on_c, 9, 54, 116
10, 70275, Note_on_c, 9, 54, 0
10, 70368, Note_on_c, 9, 35, 104
10, 70369, Note_on_c, 9, 35, 0
10, 70370, Note_on_c, 9, 42, 84
10, 70371, Note_on_c, 9, 42, 0
10, 70464, Note_on_c, 9, 38, 114
10, 70465, Note_on_c, 9, 38, 0
10, 70466, Note_on_c, 9, 42, 106
10, 70466, Note_on_c, 9, 54, 116
10, 70467, Note_on_c, 9, 54, 0
10, 70467, Note_on_c, 9, 42, 0
10, 70560, Note_on_c, 9, 35, 104
10, 70561, Note_on_c, 9, 35, 0
10, 70562, Note_on_c, 9, 42, 84
10, 70563, Note_on_c, 9, 42, 0
10, 70656, Note_on_c, 9, 38, 114
10, 70657, Note_on_c, 9, 38, 0
10, 70658, Note_on_c, 9, 42, 106
10, 70658, Note_on_c, 9, 54, 116
10, 70659, Note_on_c, 9, 54, 0
10, 70659, Note_on_c, 9, 42, 0
10, 70752, Note_on_c, 9, 42, 84
10, 70753, Note_on_c, 9, 42, 0
10, 70848, Note_on_c, 9, 38, 114
10, 70849, Note_on_c, 9, 38, 0
10, 70850, Note_on_c, 9, 42, 106
10, 70850, Note_on_c, 9, 54, 116
10, 70851, Note_on_c, 9, 54, 0
10, 70851, Note_on_c, 9, 42, 0
10, 70896, Note_on_c, 9, 38, 114
10, 70897, Note_on_c, 9, 38, 0
10, 70944, Note_on_c, 9, 35, 104
10, 70944, Note_on_c, 9, 38, 114
10, 70944, Note_on_c, 9, 42, 84
10, 70945, Note_on_c, 9, 42, 0
10, 70945, Note_on_c, 9, 38, 0
10, 70945, Note_on_c, 9, 35, 0
10, 70992, Note_on_c, 9, 38, 114
10, 70993, Note_on_c, 9, 38, 0
10, 71040, Note_on_c, 9, 38, 114
10, 71040, Note_on_c, 9, 42, 106
10, 71040, Note_on_c, 9, 54, 116
10, 71040, Note_on_c, 9, 50, 104
10, 71041, Note_on_c, 9, 50, 0
10, 71041, Note_on_c, 9, 38, 0
10, 71041, Note_on_c, 9, 42, 0
10, 71041, Note_on_c, 9, 54, 0
10, 71088, Note_on_c, 9, 50, 104
10, 71089, Note_on_c, 9, 50, 0
10, 71136, Note_on_c, 9, 35, 104
10, 71136, Note_on_c, 9, 42, 84
10, 71136, Note_on_c, 9, 50, 104
10, 71137, Note_on_c, 9, 50, 0
10, 71137, Note_on_c, 9, 42, 0
10, 71137, Note_on_c, 9, 35, 0
10, 71184, Note_on_c, 9, 50, 104
10, 71185, Note_on_c, 9, 50, 0
10, 71232, Note_on_c, 9, 38, 114
10, 71232, Note_on_c, 9, 42, 106
10, 71232, Note_on_c, 9, 54, 116
10, 71232, Note_on_c, 9, 43, 104
10, 71233, Note_on_c, 9, 43, 0
10, 71233, Note_on_c, 9, 38, 0
10, 71233, Note_on_c, 9, 42, 0
10, 71233, Note_on_c, 9, 54, 0
10, 71280, Note_on_c, 9, 43, 104
10, 71281, Note_on_c, 9, 43, 0
10, 71328, Note_on_c, 9, 35, 104
10, 71328, Note_on_c, 9, 42, 84
10, 71328, Note_on_c, 9, 43, 104
10, 71329, Note_on_c, 9, 43, 0
10, 71329, Note_on_c, 9, 42, 0
10, 71329, Note_on_c, 9, 35, 0
10, 71376, Note_on_c, 9, 43, 104
10, 71377, Note_on_c, 9, 43, 0
10, 71424, Note_on_c, 9, 35, 104
10, 71424, Note_on_c, 9, 49, 94
10, 71425, Note_on_c, 9, 49, 0
10, 71425, Note_on_c, 9, 35, 0
10, 71936, Note_on_c, 9, 35, 104
10, 71937, Note_on_c, 9, 35, 0
10, 72000, Note_on_c, 9, 38, 114
10, 72000, Note_on_c, 9, 49, 94
10, 72001, Note_on_c, 9, 49, 0
10, 72001, Note_on_c, 9, 38, 0
10, 72128, Note_on_c, 9, 38, 114
10, 72128, Note_on_c, 9, 49, 94
10, 72129, Note_on_c, 9, 49, 0
10, 72129, Note_on_c, 9, 38, 0
10, 72400, Note_on_c, 9, 35, 104
10, 72400, Note_on_c, 9, 49, 94
10, 72401, Note_on_c, 9, 49, 0
10, 72401, Note_on_c, 9, 35, 0
10, 72416, Note_on_c, 9, 38, 114
10, 72417, Note_on_c, 9, 38, 0
10, 72576, Note_on_c, 9, 51, 68
10, 72576, Note_on_c, 9, 54, 116
10, 72577, Note_on_c, 9, 54, 0
10, 72577, Note_on_c, 9, 51, 0
10, 72624, Note_on_c, 9, 35, 94
10, 72624, Note_on_c, 9, 54, 94
10, 72625, Note_on_c, 9, 54, 0
10, 72625, Note_on_c, 9, 35, 0
10, 72672, Note_on_c, 9, 35, 84
10, 72672, Note_on_c, 9, 51, 86
10, 72673, Note_on_c, 9, 51, 0
10, 72673, Note_on_c, 9, 35, 0
10, 72674, Note_on_c, 9, 54, 116
10, 72675, Note_on_c, 9, 54, 0
10, 72720, Note_on_c, 9, 35, 84
10, 72720, Note_on_c, 9, 51, 68
10, 72721, Note_on_c, 9, 51, 0
10, 72721, Note_on_c, 9, 35, 0
10, 72722, Note_on_c, 9, 54, 94
10, 72723, Note_on_c, 9, 54, 0
10, 72768, Note_on_c, 9, 35, 94
10, 72768, Note_on_c, 9, 51, 86
10, 72769, Note_on_c, 9, 51, 0
10, 72769, Note_on_c, 9, 35, 0
10, 72770, Note_on_c, 9, 54, 116
10, 72771, Note_on_c, 9, 54, 0
10, 72816, Note_on_c, 9, 35, 84
10, 72816, Note_on_c, 9, 51, 68
10, 72817, Note_on_c, 9, 51, 0
10, 72817, Note_on_c, 9, 35, 0
10, 72818, Note_on_c, 9, 54, 94
10, 72819, Note_on_c, 9, 54, 0
10, 72864, Note_on_c, 9, 51, 86
10, 72864, Note_on_c, 9, 35, 84
10, 72865, Note_on_c, 9, 35, 0
10, 72865, Note_on_c, 9, 51, 0
10, 72866, Note_on_c, 9, 54, 116
10, 72867, Note_on_c, 9, 54, 0
10, 72912, Note_on_c, 9, 35, 84
10, 72912, Note_on_c, 9, 51, 68
10, 72913, Note_on_c, 9, 51, 0
10, 72913, Note_on_c, 9, 35, 0
10, 72914, Note_on_c, 9, 54, 94
10, 72915, Note_on_c, 9, 54, 0
10, 72960, Note_on_c, 9, 51, 86
10, 72960, Note_on_c, 9, 35, 84
10, 72961, Note_on_c, 9, 35, 0
10, 72961, Note_on_c, 9, 51, 0
10, 72962, Note_on_c, 9, 54, 116
10, 72963, Note_on_c, 9, 54, 0
10, 73008, Note_on_c, 9, 51, 68
10, 73008, Note_on_c, 9, 35, 84
10, 73009, Note_on_c, 9, 35, 0
10, 73009, Note_on_c, 9, 51, 0
10, 73010, Note_on_c, 9, 54, 94
10, 73011, Note_on_c, 9, 54, 0
10, 73056, Note_on_c, 9, 51, 86
10, 73056, Note_on_c, 9, 35, 94
10, 73057, Note_on_c, 9, 35, 0
10, 73057, Note_on_c, 9, 51, 0
10, 73058, Note_on_c, 9, 54, 116
10, 73059, Note_on_c, 9, 54, 0
10, 73104, Note_on_c, 9, 51, 68
10, 73104, Note_on_c, 9, 35, 84
10, 73105, Note_on_c, 9, 35, 0
10, 73105, Note_on_c, 9, 51, 0
10, 73106, Note_on_c, 9, 54, 94
10, 73107, Note_on_c, 9, 54, 0
10, 73152, Note_on_c, 9, 51, 86
10, 73152, Note_on_c, 9, 35, 94
10, 73153, Note_on_c, 9, 35, 0
10, 73153, Note_on_c, 9, 51, 0
10, 73154, Note_on_c, 9, 54, 116
10, 73155, Note_on_c, 9, 54, 0
10, 73200, Note_on_c, 9, 51, 68
10, 73200, Note_on_c, 9, 35, 84
10, 73201, Note_on_c, 9, 35, 0
10, 73201, Note_on_c, 9, 51, 0
10, 73202, Note_on_c, 9, 54, 94
10, 73203, Note_on_c, 9, 54, 0
10, 73248, Note_on_c, 9, 51, 86
10, 73248, Note_on_c, 9, 35, 94
10, 73249, Note_on_c, 9, 35, 0
10, 73249, Note_on_c, 9, 51, 0
10, 73250, Note_on_c, 9, 54, 116
10, 73251, Note_on_c, 9, 54, 0
10, 73296, Note_on_c, 9, 51, 68
10, 73296, Note_on_c, 9, 35, 84
10, 73297, Note_on_c, 9, 35, 0
10, 73297, Note_on_c, 9, 51, 0
10, 73298, Note_on_c, 9, 54, 94
10, 73299, Note_on_c, 9, 54, 0
10, 73344, Note_on_c, 9, 50, 104
10, 73344, Note_on_c, 9, 35, 94
10, 73345, Note_on_c, 9, 35, 0
10, 73345, Note_on_c, 9, 50, 0
10, 73346, Note_on_c, 9, 51, 86
10, 73346, Note_on_c, 9, 54, 116
10, 73347, Note_on_c, 9, 54, 0
10, 73347, Note_on_c, 9, 51, 0
10, 73392, Note_on_c, 9, 50, 104
10, 73392, Note_on_c, 9, 35, 84
10, 73393, Note_on_c, 9, 35, 0
10, 73393, Note_on_c, 9, 50, 0
10, 73394, Note_on_c, 9, 51, 68
10, 73394, Note_on_c, 9, 54, 94
10, 73395, Note_on_c, 9, 54, 0
10, 73395, Note_on_c, 9, 51, 0
10, 73440, Note_on_c, 9, 38, 114
10, 73440, Note_on_c, 9, 35, 94
10, 73441, Note_on_c, 9, 35, 0
10, 73441, Note_on_c, 9, 38, 0
10, 73442, Note_on_c, 9, 51, 86
10, 73442, Note_on_c, 9, 54, 116
10, 73443, Note_on_c, 9, 54, 0
10, 73443, Note_on_c, 9, 51, 0
10, 73488, Note_on_c, 9, 35, 84
10, 73488, Note_on_c, 9, 47, 104
10, 73489, Note_on_c, 9, 47, 0
10, 73489, Note_on_c, 9, 35, 0
10, 73490, Note_on_c, 9, 51, 68
10, 73490, Note_on_c, 9, 54, 94
10, 73491, Note_on_c, 9, 54, 0
10, 73491, Note_on_c, 9, 51, 0
10, 73536, Note_on_c, 9, 47, 104
10, 73536, Note_on_c, 9, 35, 94
10, 73537, Note_on_c, 9, 35, 0
10, 73537, Note_on_c, 9, 47, 0
10, 73538, Note_on_c, 9, 51, 86
10, 73538, Note_on_c, 9, 54, 116
10, 73539, Note_on_c, 9, 54, 0
10, 73539, Note_on_c, 9, 51, 0
10, 73584, Note_on_c, 9, 51, 68
10, 73584, Note_on_c, 9, 35, 84
10, 73585, Note_on_c, 9, 35, 0
10, 73585, Note_on_c, 9, 51, 0
10, 73586, Note_on_c, 9, 54, 94
10, 73587, Note_on_c, 9, 54, 0
10, 73632, Note_on_c, 9, 51, 86
10, 73632, Note_on_c, 9, 35, 94
10, 73633, Note_on_c, 9, 35, 0
10, 73633, Note_on_c, 9, 51, 0
10, 73634, Note_on_c, 9, 54, 116
10, 73635, Note_on_c, 9, 54, 0
10, 73680, Note_on_c, 9, 51, 68
10, 73680, Note_on_c, 9, 35, 84
10, 73681, Note_on_c, 9, 35, 0
10, 73681, Note_on_c, 9, 51, 0
10, 73682, Note_on_c, 9, 54, 94
10, 73683, Note_on_c, 9, 54, 0
10, 73728, Note_on_c, 9, 51, 86
10, 73728, Note_on_c, 9, 35, 94
10, 73729, Note_on_c, 9, 35, 0
10, 73729, Note_on_c, 9, 51, 0
10, 73730, Note_on_c, 9, 54, 116
10, 73731, Note_on_c, 9, 54, 0
10, 73776, Note_on_c, 9, 51, 68
10, 73776, Note_on_c, 9, 35, 84
10, 73777, Note_on_c, 9, 35, 0
10, 73777, Note_on_c, 9, 51, 0
10, 73778, Note_on_c, 9, 54, 94
10, 73779, Note_on_c, 9, 54, 0
10, 73820, Note_on_c, 9, 35, 94
10, 73821, Note_on_c, 9, 35, 0
10, 73824, Note_on_c, 9, 51, 86
10, 73824, Note_on_c, 9, 35, 94
10, 73825, Note_on_c, 9, 35, 0
10, 73825, Note_on_c, 9, 51, 0
10, 73826, Note_on_c, 9, 54, 116
10, 73827, Note_on_c, 9, 54, 0
10, 73864, Note_on_c, 9, 35, 104
10, 73865, Note_on_c, 9, 35, 0
10, 73872, Note_on_c, 9, 51, 68
10, 73872, Note_on_c, 9, 35, 84
10, 73873, Note_on_c, 9, 35, 0
10, 73873, Note_on_c, 9, 51, 0
10, 73874, Note_on_c, 9, 54, 94
10, 73875, Note_on_c, 9, 54, 0
10, 73920, Note_on_c, 9, 38, 125
10, 73920, Note_on_c, 9, 51, 86
10, 73921, Note_on_c, 9, 51, 0
10, 73921, Note_on_c, 9, 38, 0
10, 73922, Note_on_c, 9, 54, 116
10, 73923, Note_on_c, 9, 54, 0
10, 73968, Note_on_c, 9, 51, 68
10, 73968, Note_on_c, 9, 35, 94
10, 73969, Note_on_c, 9, 35, 0
10, 73969, Note_on_c, 9, 51, 0
10, 73970, Note_on_c, 9, 54, 94
10, 73971, Note_on_c, 9, 54, 0
10, 74016, Note_on_c, 9, 51, 86
10, 74016, Note_on_c, 9, 54, 116
10, 74017, Note_on_c, 9, 54, 0
10, 74017, Note_on_c, 9, 51, 0
10, 74064, Note_on_c, 9, 51, 68
10, 74064, Note_on_c, 9, 54, 94
10, 74065, Note_on_c, 9, 54, 0
10, 74065, Note_on_c, 9, 51, 0
10, 74112, Note_on_c, 9, 51, 86
10, 74112, Note_on_c, 9, 54, 116
10, 74113, Note_on_c, 9, 54, 0
10, 74113, Note_on_c, 9, 51, 0
10, 74120, Note_on_c, 9, 35, 104
10, 74121, Note_on_c, 9, 35, 0
10, 74242, Note_on_c, 9, 49, 94
10, 74242, Note_on_c, 9, 35, 104
10, 74243, Note_on_c, 9, 35, 0
10, 74243, Note_on_c, 9, 49, 0
10, 74256, Note_on_c, 9, 38, 114
10, 74257, Note_on_c, 9, 38, 0
10, 74257, End_track
11, 0, Start_track
11, 0, MIDI_port, 0
11, 384, Pitch_bend_c, 0, 8192
11, 384, End_track
0, 0, End_of_file
