0, 0, Header, 1, 22, 480
1, 0, Start_track
1, 0, System_exclusive, 5, 126, 127, 9, 1, 247
1, 0, SMPTE_offset, 0, 0, 0, 0, 0
1, 0, Tempo, 461538
1, 0, Time_signature, 2, 1, 24, 8
1, 0, Key_signature, 1, "major"
1, 32640, Key_signature, 3, "major"
1, 94080, Key_signature, 0, "major"
1, 94080, End_track
2, 0, Start_track
2, 0, Title_t, "Trombone"
2, 0, MIDI_port, 0
2, 0, Channel_prefix, 0
2, 0, Control_c, 0, 7, 127
2, 0, Control_c, 0, 10, 76
2, 0, Control_c, 0, 91, 89
2, 0, Control_c, 0, 93, 69
2, 0, Program_c, 0, 57
2, 0, Control_c, 0, 121, 0
2, 40, Control_c, 0, 123, 0
2, 1920, Note_on_c, 0, 62, 115
2, 2396, Note_off_c, 0, 62, 64
2, 2400, Note_on_c, 0, 62, 115
2, 2636, Note_off_c, 0, 62, 64
2, 2640, Note_on_c, 0, 67, 115
2, 3356, Note_off_c, 0, 67, 64
2, 3360, Note_on_c, 0, 69, 115
2, 3596, Note_off_c, 0, 69, 64
2, 3600, Note_on_c, 0, 71, 115
2, 4796, Note_off_c, 0, 71, 64
2, 5040, Note_on_c, 0, 71, 115
2, 5276, Note_off_c, 0, 71, 64
2, 5280, Note_on_c, 0, 71, 115
2, 5756, Note_off_c, 0, 71, 64
2, 5760, Note_on_c, 0, 71, 115
2, 5996, Note_off_c, 0, 71, 64
2, 6000, Note_on_c, 0, 72, 115
2, 6476, Note_off_c, 0, 72, 64
2, 6480, Note_on_c, 0, 69, 115
2, 7196, Note_off_c, 0, 69, 64
2, 7200, Note_on_c, 0, 67, 115
2, 7436, Note_off_c, 0, 67, 64
2, 7440, Note_on_c, 0, 69, 115
2, 9116, Note_off_c, 0, 69, 64
2, 9600, Note_on_c, 0, 65, 115
2, 10076, Note_off_c, 0, 65, 64
2, 10080, Note_on_c, 0, 65, 115
2, 10556, Note_off_c, 0, 65, 64
2, 10560, Note_on_c, 0, 70, 115
2, 10796, Note_off_c, 0, 70, 64
2, 10800, Note_on_c, 0, 72, 115
2, 11276, Note_off_c, 0, 72, 64
2, 11280, Note_on_c, 0, 74, 115
2, 12476, Note_off_c, 0, 74, 64
2, 12720, Note_on_c, 0, 74, 115
2, 12956, Note_off_c, 0, 74, 64
2, 12960, Note_on_c, 0, 74, 115
2, 13436, Note_off_c, 0, 74, 64
2, 13440, Note_on_c, 0, 74, 115
2, 13676, Note_off_c, 0, 74, 64
2, 13680, Note_on_c, 0, 75, 115
2, 14156, Note_off_c, 0, 75, 64
2, 14160, Note_on_c, 0, 72, 115
2, 14876, Note_off_c, 0, 72, 64
2, 14880, Note_on_c, 0, 70, 115
2, 15116, Note_off_c, 0, 70, 64
2, 15120, Note_on_c, 0, 72, 115
2, 15836, Note_off_c, 0, 72, 64
2, 16320, Note_on_c, 0, 56, 115
2, 16796, Note_off_c, 0, 56, 64
2, 16800, Note_on_c, 0, 61, 115
2, 17036, Note_off_c, 0, 61, 64
2, 17040, Note_on_c, 0, 65, 115
2, 17756, Note_off_c, 0, 65, 64
2, 17760, Note_on_c, 0, 65, 115
2, 17996, Note_off_c, 0, 65, 64
2, 18000, Note_on_c, 0, 65, 115
2, 18716, Note_off_c, 0, 65, 64
2, 18720, Note_on_c, 0, 65, 115
2, 18956, Note_off_c, 0, 65, 64
2, 18960, Note_on_c, 0, 65, 115
2, 19676, Note_off_c, 0, 65, 64
2, 19680, Note_on_c, 0, 65, 115
2, 19916, Note_off_c, 0, 65, 64
2, 19920, Note_on_c, 0, 66, 115
2, 20636, Note_off_c, 0, 66, 64
2, 20640, Note_on_c, 0, 65, 115
2, 21116, Note_off_c, 0, 65, 64
2, 21120, Note_on_c, 0, 65, 115
2, 21356, Note_off_c, 0, 65, 64
2, 21360, Note_on_c, 0, 66, 115
2, 21836, Note_off_c, 0, 66, 64
2, 21840, Note_on_c, 0, 61, 115
2, 22556, Note_off_c, 0, 61, 64
2, 23760, Note_on_c, 0, 63, 115
2, 23996, Note_off_c, 0, 63, 64
2, 24000, Note_on_c, 0, 65, 115
2, 24236, Note_off_c, 0, 65, 64
2, 24240, Note_on_c, 0, 66, 115
2, 24716, Note_off_c, 0, 66, 64
2, 24720, Note_on_c, 0, 68, 115
2, 27836, Note_off_c, 0, 68, 64
2, 27840, Note_on_c, 0, 68, 115
2, 28076, Note_off_c, 0, 68, 64
2, 28080, Note_on_c, 0, 68, 115
2, 28556, Note_off_c, 0, 68, 64
2, 28560, Note_on_c, 0, 73, 115
2, 31196, Note_off_c, 0, 73, 64
2, 31200, Note_on_c, 0, 74, 115
2, 31200, Note_on_c, 0, 69, 115
2, 32636, Note_off_c, 0, 69, 64
2, 32636, Note_off_c, 0, 74, 64
2, 32640, Note_on_c, 0, 64, 115
2, 33116, Note_off_c, 0, 64, 64
2, 33600, Note_on_c, 0, 69, 115
2, 33836, Note_off_c, 0, 69, 64
2, 33840, Note_on_c, 0, 69, 115
2, 34076, Note_off_c, 0, 69, 64
2, 34080, Note_on_c, 0, 71, 115
2, 34316, Note_off_c, 0, 71, 64
2, 34320, Note_on_c, 0, 76, 115
2, 34796, Note_off_c, 0, 76, 64
2, 34800, Note_on_c, 0, 72, 115
2, 35036, Note_off_c, 0, 72, 64
2, 35040, Note_on_c, 0, 73, 115
2, 35996, Note_off_c, 0, 73, 64
2, 36000, Note_on_c, 0, 73, 115
2, 36000, Note_on_c, 0, 73, 115
2, 36476, Note_off_c, 0, 73, 64
2, 36476, Note_off_c, 0, 73, 64
2, 36480, Note_on_c, 0, 73, 115
2, 36716, Note_off_c, 0, 73, 64
2, 36720, Note_on_c, 0, 74, 115
2, 37196, Note_off_c, 0, 74, 64
2, 37200, Note_on_c, 0, 71, 115
2, 37916, Note_off_c, 0, 71, 64
2, 37920, Note_on_c, 0, 69, 115
2, 38396, Note_off_c, 0, 69, 64
2, 38400, Note_on_c, 0, 71, 115
2, 38636, Note_off_c, 0, 71, 64
2, 38640, Note_on_c, 0, 73, 115
2, 39116, Note_off_c, 0, 73, 64
2, 39120, Note_on_c, 0, 69, 115
2, 39836, Note_off_c, 0, 69, 64
2, 39840, Note_on_c, 0, 64, 115
2, 40316, Note_off_c, 0, 64, 64
2, 40320, Note_on_c, 0, 76, 115
2, 47516, Note_off_c, 0, 76, 64
2, 47760, Note_on_c, 0, 62, 115
2, 47996, Note_off_c, 0, 62, 64
2, 48000, Note_on_c, 0, 62, 115
2, 48476, Note_off_c, 0, 62, 64
2, 48480, Note_on_c, 0, 62, 115
2, 48716, Note_off_c, 0, 62, 64
2, 48720, Note_on_c, 0, 67, 115
2, 49436, Note_off_c, 0, 67, 64
2, 49440, Note_on_c, 0, 69, 115
2, 49676, Note_off_c, 0, 69, 64
2, 49680, Note_on_c, 0, 71, 115
2, 50876, Note_off_c, 0, 71, 64
2, 51120, Note_on_c, 0, 71, 115
2, 51356, Note_off_c, 0, 71, 64
2, 51360, Note_on_c, 0, 71, 115
2, 51836, Note_off_c, 0, 71, 64
2, 51840, Note_on_c, 0, 71, 115
2, 52076, Note_off_c, 0, 71, 64
2, 52080, Note_on_c, 0, 72, 115
2, 52556, Note_off_c, 0, 72, 64
2, 52560, Note_on_c, 0, 69, 115
2, 53276, Note_off_c, 0, 69, 64
2, 53280, Note_on_c, 0, 67, 115
2, 53516, Note_off_c, 0, 67, 64
2, 53520, Note_on_c, 0, 69, 115
2, 55196, Note_off_c, 0, 69, 64
2, 55680, Note_on_c, 0, 65, 115
2, 56156, Note_off_c, 0, 65, 64
2, 56160, Note_on_c, 0, 65, 115
2, 56636, Note_off_c, 0, 65, 64
2, 56640, Note_on_c, 0, 70, 115
2, 56876, Note_off_c, 0, 70, 64
2, 56880, Note_on_c, 0, 72, 115
2, 57356, Note_off_c, 0, 72, 64
2, 57360, Note_on_c, 0, 74, 115
2, 58556, Note_off_c, 0, 74, 64
2, 58800, Note_on_c, 0, 74, 115
2, 59036, Note_off_c, 0, 74, 64
2, 59040, Note_on_c, 0, 74, 115
2, 59516, Note_off_c, 0, 74, 64
2, 59520, Note_on_c, 0, 74, 115
2, 59756, Note_off_c, 0, 74, 64
2, 59760, Note_on_c, 0, 75, 115
2, 60236, Note_off_c, 0, 75, 64
2, 60240, Note_on_c, 0, 72, 115
2, 60956, Note_off_c, 0, 72, 64
2, 60960, Note_on_c, 0, 70, 115
2, 61196, Note_off_c, 0, 70, 64
2, 61200, Note_on_c, 0, 72, 115
2, 61916, Note_off_c, 0, 72, 64
2, 62400, Note_on_c, 0, 56, 115
2, 62876, Note_off_c, 0, 56, 64
2, 62880, Note_on_c, 0, 61, 115
2, 63116, Note_off_c, 0, 61, 64
2, 63120, Note_on_c, 0, 65, 115
2, 63836, Note_off_c, 0, 65, 64
2, 63840, Note_on_c, 0, 65, 115
2, 64076, Note_off_c, 0, 65, 64
2, 64080, Note_on_c, 0, 65, 115
2, 64796, Note_off_c, 0, 65, 64
2, 64800, Note_on_c, 0, 65, 115
2, 65036, Note_off_c, 0, 65, 64
2, 65040, Note_on_c, 0, 65, 115
2, 65756, Note_off_c, 0, 65, 64
2, 65760, Note_on_c, 0, 65, 115
2, 65996, Note_off_c, 0, 65, 64
2, 66000, Note_on_c, 0, 66, 115
2, 66716, Note_off_c, 0, 66, 64
2, 66720, Note_on_c, 0, 65, 115
2, 67196, Note_off_c, 0, 65, 64
2, 67200, Note_on_c, 0, 65, 115
2, 67436, Note_off_c, 0, 65, 64
2, 67440, Note_on_c, 0, 66, 115
2, 67916, Note_off_c, 0, 66, 64
2, 67920, Note_on_c, 0, 61, 115
2, 68636, Note_off_c, 0, 61, 64
2, 69840, Note_on_c, 0, 63, 115
2, 70076, Note_off_c, 0, 63, 64
2, 70080, Note_on_c, 0, 65, 115
2, 70316, Note_off_c, 0, 65, 64
2, 70320, Note_on_c, 0, 66, 115
2, 70796, Note_off_c, 0, 66, 64
2, 70800, Note_on_c, 0, 68, 115
2, 73916, Note_off_c, 0, 68, 64
2, 73920, Note_on_c, 0, 68, 115
2, 74156, Note_off_c, 0, 68, 64
2, 74160, Note_on_c, 0, 68, 115
2, 74636, Note_off_c, 0, 68, 64
2, 74640, Note_on_c, 0, 73, 115
2, 77276, Note_off_c, 0, 73, 64
2, 77280, Note_on_c, 0, 74, 115
2, 77280, Note_on_c, 0, 69, 115
2, 78716, Note_off_c, 0, 69, 64
2, 78716, Note_off_c, 0, 74, 64
2, 78720, Note_on_c, 0, 64, 115
2, 79196, Note_off_c, 0, 64, 64
2, 79680, Note_on_c, 0, 69, 115
2, 79916, Note_off_c, 0, 69, 64
2, 79920, Note_on_c, 0, 69, 115
2, 80156, Note_off_c, 0, 69, 64
2, 80160, Note_on_c, 0, 71, 115
2, 80396, Note_off_c, 0, 71, 64
2, 80400, Note_on_c, 0, 76, 115
2, 80876, Note_off_c, 0, 76, 64
2, 80880, Note_on_c, 0, 72, 115
2, 81116, Note_off_c, 0, 72, 64
2, 81120, Note_on_c, 0, 73, 115
2, 82076, Note_off_c, 0, 73, 64
2, 82080, Note_on_c, 0, 73, 115
2, 82080, Note_on_c, 0, 73, 115
2, 82556, Note_off_c, 0, 73, 64
2, 82556, Note_off_c, 0, 73, 64
2, 82560, Note_on_c, 0, 73, 115
2, 82796, Note_off_c, 0, 73, 64
2, 82800, Note_on_c, 0, 74, 115
2, 83276, Note_off_c, 0, 74, 64
2, 83280, Note_on_c, 0, 71, 115
2, 83996, Note_off_c, 0, 71, 64
2, 84000, Note_on_c, 0, 69, 115
2, 84476, Note_off_c, 0, 69, 64
2, 84480, Note_on_c, 0, 71, 115
2, 84716, Note_off_c, 0, 71, 64
2, 84720, Note_on_c, 0, 73, 115
2, 85196, Note_off_c, 0, 73, 64
2, 85200, Note_on_c, 0, 69, 115
2, 85916, Note_off_c, 0, 69, 64
2, 85920, Note_on_c, 0, 64, 115
2, 86396, Note_off_c, 0, 64, 64
2, 86400, Note_on_c, 0, 76, 115
2, 94080, Note_off_c, 0, 76, 64
2, 94560, Note_on_c, 0, 67, 115
2, 95036, Note_off_c, 0, 67, 64
2, 95040, Note_on_c, 0, 72, 115
2, 95516, Note_off_c, 0, 72, 64
2, 95520, Note_on_c, 0, 74, 115
2, 95996, Note_off_c, 0, 74, 64
2, 96000, Note_on_c, 0, 76, 115
2, 96476, Note_off_c, 0, 76, 64
2, 96480, Note_on_c, 0, 77, 115
2, 96716, Note_off_c, 0, 77, 64
2, 96720, Note_on_c, 0, 76, 115
2, 96956, Note_off_c, 0, 76, 64
2, 96960, Note_on_c, 0, 74, 115
2, 97436, Note_off_c, 0, 74, 64
2, 97440, Note_on_c, 0, 72, 115
2, 97916, Note_off_c, 0, 72, 64
2, 97920, Note_on_c, 0, 74, 115
2, 98636, Note_off_c, 0, 74, 64
2, 98640, Note_on_c, 0, 67, 115
2, 98876, Note_off_c, 0, 67, 64
2, 98880, Note_on_c, 0, 67, 115
2, 101756, Note_off_c, 0, 67, 64
2, 102240, Note_on_c, 0, 67, 115
2, 102716, Note_off_c, 0, 67, 64
2, 102720, Note_on_c, 0, 72, 115
2, 103196, Note_off_c, 0, 72, 64
2, 103200, Note_on_c, 0, 74, 115
2, 103436, Note_off_c, 0, 74, 64
2, 103440, Note_on_c, 0, 76, 115
2, 104156, Note_off_c, 0, 76, 64
2, 104160, Note_on_c, 0, 77, 115
2, 104396, Note_off_c, 0, 77, 64
2, 104400, Note_on_c, 0, 76, 115
2, 104636, Note_off_c, 0, 76, 64
2, 104640, Note_on_c, 0, 74, 115
2, 105116, Note_off_c, 0, 74, 64
2, 105120, Note_on_c, 0, 72, 115
2, 105596, Note_off_c, 0, 72, 64
2, 105600, Note_on_c, 0, 79, 115
2, 106316, Note_off_c, 0, 79, 64
2, 106320, Note_on_c, 0, 74, 115
2, 106556, Note_off_c, 0, 74, 64
2, 106560, Note_on_c, 0, 74, 115
2, 109436, Note_off_c, 0, 74, 64
2, 109920, Note_on_c, 0, 58, 115
2, 110396, Note_off_c, 0, 58, 64
2, 110400, Note_on_c, 0, 63, 115
2, 110876, Note_off_c, 0, 63, 64
2, 110880, Note_on_c, 0, 65, 115
2, 111356, Note_off_c, 0, 65, 64
2, 111360, Note_on_c, 0, 67, 115
2, 111836, Note_off_c, 0, 67, 64
2, 111840, Note_on_c, 0, 68, 115
2, 112316, Note_off_c, 0, 68, 64
2, 112320, Note_on_c, 0, 67, 115
2, 112556, Note_off_c, 0, 67, 64
2, 112560, Note_on_c, 0, 65, 115
2, 112796, Note_off_c, 0, 65, 64
2, 112800, Note_on_c, 0, 63, 115
2, 113276, Note_off_c, 0, 63, 64
2, 113280, Note_on_c, 0, 70, 115
2, 113996, Note_off_c, 0, 70, 64
2, 114000, Note_on_c, 0, 65, 115
2, 114236, Note_off_c, 0, 65, 64
2, 114240, Note_on_c, 0, 65, 115
2, 116636, Note_off_c, 0, 65, 64
2, 116880, Note_on_c, 0, 68, 115
2, 117116, Note_off_c, 0, 68, 64
2, 117120, Note_on_c, 0, 73, 115
2, 117596, Note_off_c, 0, 73, 64
2, 117600, Note_on_c, 0, 73, 115
2, 117836, Note_off_c, 0, 73, 64
2, 117840, Note_on_c, 0, 73, 115
2, 118556, Note_off_c, 0, 73, 64
2, 118560, Note_on_c, 0, 73, 115
2, 118796, Note_off_c, 0, 73, 64
2, 118800, Note_on_c, 0, 75, 115
2, 119276, Note_off_c, 0, 75, 64
2, 119280, Note_on_c, 0, 77, 115
2, 119996, Note_off_c, 0, 77, 64
2, 120960, Note_on_c, 0, 67, 115
2, 121436, Note_off_c, 0, 67, 64
2, 121440, Note_on_c, 0, 67, 115
2, 121676, Note_off_c, 0, 67, 64
2, 121680, Note_on_c, 0, 67, 115
2, 122396, Note_off_c, 0, 67, 64
2, 122400, Note_on_c, 0, 67, 115
2, 122636, Note_off_c, 0, 67, 64
2, 122640, Note_on_c, 0, 69, 115
2, 123116, Note_off_c, 0, 69, 64
2, 123120, Note_on_c, 0, 71, 115
2, 123836, Note_off_c, 0, 71, 64
2, 124800, Note_on_c, 0, 62, 115
2, 125276, Note_off_c, 0, 62, 64
2, 125280, Note_on_c, 0, 62, 115
2, 125516, Note_off_c, 0, 62, 64
2, 125520, Note_on_c, 0, 67, 115
2, 126236, Note_off_c, 0, 67, 64
2, 126240, Note_on_c, 0, 69, 115
2, 126476, Note_off_c, 0, 69, 64
2, 126480, Note_on_c, 0, 71, 115
2, 127676, Note_off_c, 0, 71, 64
2, 127920, Note_on_c, 0, 71, 115
2, 128156, Note_off_c, 0, 71, 64
2, 128160, Note_on_c, 0, 71, 115
2, 128636, Note_off_c, 0, 71, 64
2, 128640, Note_on_c, 0, 71, 115
2, 128876, Note_off_c, 0, 71, 64
2, 128880, Note_on_c, 0, 72, 115
2, 129356, Note_off_c, 0, 72, 64
2, 129360, Note_on_c, 0, 69, 115
2, 130076, Note_off_c, 0, 69, 64
2, 130080, Note_on_c, 0, 67, 115
2, 130316, Note_off_c, 0, 67, 64
2, 130320, Note_on_c, 0, 69, 115
2, 131996, Note_off_c, 0, 69, 64
2, 132480, Note_on_c, 0, 65, 115
2, 132956, Note_off_c, 0, 65, 64
2, 132960, Note_on_c, 0, 65, 115
2, 133436, Note_off_c, 0, 65, 64
2, 133440, Note_on_c, 0, 70, 115
2, 133676, Note_off_c, 0, 70, 64
2, 133680, Note_on_c, 0, 72, 115
2, 134156, Note_off_c, 0, 72, 64
2, 134160, Note_on_c, 0, 74, 115
2, 135356, Note_off_c, 0, 74, 64
2, 135600, Note_on_c, 0, 74, 115
2, 135836, Note_off_c, 0, 74, 64
2, 135840, Note_on_c, 0, 74, 115
2, 136316, Note_off_c, 0, 74, 64
2, 136320, Note_on_c, 0, 74, 115
2, 136556, Note_off_c, 0, 74, 64
2, 136560, Note_on_c, 0, 75, 115
2, 137036, Note_off_c, 0, 75, 64
2, 137040, Note_on_c, 0, 72, 115
2, 137756, Note_off_c, 0, 72, 64
2, 137760, Note_on_c, 0, 70, 115
2, 137996, Note_off_c, 0, 70, 64
2, 138000, Note_on_c, 0, 72, 115
2, 138716, Note_off_c, 0, 72, 64
2, 139200, Note_on_c, 0, 56, 115
2, 139676, Note_off_c, 0, 56, 64
2, 139680, Note_on_c, 0, 61, 115
2, 139916, Note_off_c, 0, 61, 64
2, 139920, Note_on_c, 0, 65, 115
2, 140636, Note_off_c, 0, 65, 64
2, 140640, Note_on_c, 0, 65, 115
2, 140876, Note_off_c, 0, 65, 64
2, 140880, Note_on_c, 0, 65, 115
2, 141596, Note_off_c, 0, 65, 64
2, 141600, Note_on_c, 0, 65, 115
2, 141836, Note_off_c, 0, 65, 64
2, 141840, Note_on_c, 0, 65, 115
2, 142556, Note_off_c, 0, 65, 64
2, 142560, Note_on_c, 0, 65, 115
2, 142796, Note_off_c, 0, 65, 64
2, 142800, Note_on_c, 0, 66, 115
2, 143516, Note_off_c, 0, 66, 64
2, 143520, Note_on_c, 0, 65, 115
2, 143996, Note_off_c, 0, 65, 64
2, 144000, Note_on_c, 0, 65, 115
2, 144236, Note_off_c, 0, 65, 64
2, 144240, Note_on_c, 0, 66, 115
2, 144716, Note_off_c, 0, 66, 64
2, 144720, Note_on_c, 0, 61, 115
2, 145436, Note_off_c, 0, 61, 64
2, 146640, Note_on_c, 0, 63, 115
2, 146876, Note_off_c, 0, 63, 64
2, 146880, Note_on_c, 0, 65, 115
2, 147116, Note_off_c, 0, 65, 64
2, 147120, Note_on_c, 0, 66, 115
2, 147596, Note_off_c, 0, 66, 64
2, 147600, Note_on_c, 0, 68, 115
2, 150716, Note_off_c, 0, 68, 64
2, 150720, Note_on_c, 0, 68, 115
2, 150956, Note_off_c, 0, 68, 64
2, 150960, Note_on_c, 0, 68, 115
2, 151436, Note_off_c, 0, 68, 64
2, 151440, Note_on_c, 0, 73, 115
2, 154076, Note_off_c, 0, 73, 64
2, 154080, Note_on_c, 0, 74, 115
2, 154080, Note_on_c, 0, 69, 115
2, 155516, Note_off_c, 0, 69, 64
2, 155516, Note_off_c, 0, 74, 64
2, 155520, Note_on_c, 0, 64, 115
2, 155996, Note_off_c, 0, 64, 64
2, 156480, Note_on_c, 0, 69, 115
2, 156716, Note_off_c, 0, 69, 64
2, 156720, Note_on_c, 0, 69, 115
2, 156956, Note_off_c, 0, 69, 64
2, 156960, Note_on_c, 0, 71, 115
2, 157196, Note_off_c, 0, 71, 64
2, 157200, Note_on_c, 0, 76, 115
2, 157676, Note_off_c, 0, 76, 64
2, 157680, Note_on_c, 0, 72, 115
2, 157916, Note_off_c, 0, 72, 64
2, 157920, Note_on_c, 0, 73, 115
2, 158876, Note_off_c, 0, 73, 64
2, 158880, Note_on_c, 0, 73, 115
2, 158880, Note_on_c, 0, 73, 115
2, 159356, Note_off_c, 0, 73, 64
2, 159356, Note_off_c, 0, 73, 64
2, 159360, Note_on_c, 0, 73, 115
2, 159596, Note_off_c, 0, 73, 64
2, 159600, Note_on_c, 0, 74, 115
2, 160076, Note_off_c, 0, 74, 64
2, 160080, Note_on_c, 0, 71, 115
2, 160796, Note_off_c, 0, 71, 64
2, 160800, Note_on_c, 0, 69, 115
2, 161276, Note_off_c, 0, 69, 64
2, 161280, Note_on_c, 0, 71, 115
2, 161516, Note_off_c, 0, 71, 64
2, 161520, Note_on_c, 0, 73, 115
2, 161996, Note_off_c, 0, 73, 64
2, 162000, Note_on_c, 0, 69, 115
2, 162716, Note_off_c, 0, 69, 64
2, 162720, Note_on_c, 0, 64, 115
2, 163196, Note_off_c, 0, 64, 64
2, 163200, Note_on_c, 0, 76, 115
2, 167040, Note_off_c, 0, 76, 64
2, 167040, Note_on_c, 0, 81, 115
2, 170872, Note_off_c, 0, 81, 64
2, 170880, Note_on_c, 0, 81, 100
2, 174712, Note_off_c, 0, 81, 64
2, 174720, Note_on_c, 0, 81, 77
2, 178552, Note_off_c, 0, 81, 64
2, 178560, Note_on_c, 0, 81, 39
2, 182392, Note_off_c, 0, 81, 64
2, 182392, End_track
3, 0, Start_track
3, 0, Title_t, "Brass"
3, 0, MIDI_port, 0
3, 0, Channel_prefix, 1
3, 0, Control_c, 1, 7, 99
3, 0, Control_c, 1, 10, 106
3, 0, Control_c, 1, 91, 89
3, 0, Control_c, 1, 93, 69
3, 0, Program_c, 1, 61
3, 0, Control_c, 1, 121, 0
3, 40, Control_c, 1, 123, 0
3, 1920, Note_on_c, 1, 62, 115
3, 1920, Note_on_c, 1, 59, 115
3, 2396, Note_off_c, 1, 62, 64
3, 2400, Note_on_c, 1, 62, 115
3, 2636, Note_off_c, 1, 59, 64
3, 2636, Note_off_c, 1, 62, 64
3, 2640, Note_on_c, 1, 67, 115
3, 2640, Note_on_c, 1, 62, 115
3, 2640, Note_on_c, 1, 59, 115
3, 3356, Note_off_c, 1, 67, 64
3, 3360, Note_on_c, 1, 69, 115
3, 3596, Note_off_c, 1, 62, 64
3, 3596, Note_off_c, 1, 59, 64
3, 3596, Note_off_c, 1, 69, 64
3, 3600, Note_on_c, 1, 71, 115
3, 3600, Note_on_c, 1, 67, 115
3, 3600, Note_on_c, 1, 62, 115
3, 5036, Note_off_c, 1, 71, 64
3, 5040, Note_on_c, 1, 71, 115
3, 5276, Note_off_c, 1, 71, 64
3, 5280, Note_on_c, 1, 71, 115
3, 5756, Note_off_c, 1, 67, 64
3, 5756, Note_off_c, 1, 62, 64
3, 5756, Note_off_c, 1, 71, 64
3, 5760, Note_on_c, 1, 71, 115
3, 5760, Note_on_c, 1, 69, 115
3, 5760, Note_on_c, 1, 65, 115
3, 5996, Note_off_c, 1, 71, 64
3, 6000, Note_on_c, 1, 72, 115
3, 6476, Note_off_c, 1, 69, 64
3, 6476, Note_off_c, 1, 65, 64
3, 6476, Note_off_c, 1, 72, 64
3, 6480, Note_on_c, 1, 69, 115
3, 6480, Note_on_c, 1, 65, 115
3, 6480, Note_on_c, 1, 60, 115
3, 7196, Note_off_c, 1, 69, 64
3, 7200, Note_on_c, 1, 67, 115
3, 7436, Note_off_c, 1, 65, 64
3, 7436, Note_off_c, 1, 60, 64
3, 7436, Note_off_c, 1, 67, 64
3, 7440, Note_on_c, 1, 69, 115
3, 7440, Note_on_c, 1, 60, 115
3, 7440, Note_on_c, 1, 65, 115
3, 9116, Note_off_c, 1, 65, 64
3, 9116, Note_off_c, 1, 60, 64
3, 9116, Note_off_c, 1, 69, 64
3, 9600, Note_on_c, 1, 65, 115
3, 9600, Note_on_c, 1, 62, 115
3, 10076, Note_off_c, 1, 65, 64
3, 10080, Note_on_c, 1, 65, 115
3, 10556, Note_off_c, 1, 62, 64
3, 10556, Note_off_c, 1, 65, 64
3, 10560, Note_on_c, 1, 70, 115
3, 10560, Note_on_c, 1, 65, 115
3, 10560, Note_on_c, 1, 62, 115
3, 10796, Note_off_c, 1, 70, 64
3, 10800, Note_on_c, 1, 72, 115
3, 11276, Note_off_c, 1, 65, 64
3, 11276, Note_off_c, 1, 62, 64
3, 11276, Note_off_c, 1, 72, 64
3, 11280, Note_on_c, 1, 74, 115
3, 11280, Note_on_c, 1, 70, 115
3, 11280, Note_on_c, 1, 65, 115
3, 12716, Note_off_c, 1, 74, 64
3, 12720, Note_on_c, 1, 74, 115
3, 12956, Note_off_c, 1, 74, 64
3, 12960, Note_on_c, 1, 74, 115
3, 13436, Note_off_c, 1, 70, 64
3, 13436, Note_off_c, 1, 65, 64
3, 13436, Note_off_c, 1, 74, 64
3, 13440, Note_on_c, 1, 72, 115
3, 13440, Note_on_c, 1, 68, 115
3, 14156, Note_off_c, 1, 68, 64
3, 14156, Note_off_c, 1, 72, 64
3, 14160, Note_on_c, 1, 72, 115
3, 14160, Note_on_c, 1, 68, 115
3, 14160, Note_on_c, 1, 63, 115
3, 14876, Note_off_c, 1, 72, 64
3, 14880, Note_on_c, 1, 70, 115
3, 15116, Note_off_c, 1, 68, 64
3, 15116, Note_off_c, 1, 63, 64
3, 15116, Note_off_c, 1, 70, 64
3, 15120, Note_on_c, 1, 72, 115
3, 15120, Note_on_c, 1, 68, 115
3, 15120, Note_on_c, 1, 63, 115
3, 16316, Note_off_c, 1, 63, 64
3, 16316, Note_off_c, 1, 68, 64
3, 16316, Note_off_c, 1, 72, 64
3, 16320, Note_on_c, 1, 56, 115
3, 16796, Note_off_c, 1, 56, 64
3, 16800, Note_on_c, 1, 61, 115
3, 17036, Note_off_c, 1, 61, 64
3, 17040, Note_on_c, 1, 65, 115
3, 17040, Note_on_c, 1, 61, 115
3, 17040, Note_on_c, 1, 56, 115
3, 17756, Note_off_c, 1, 65, 64
3, 17760, Note_on_c, 1, 65, 115
3, 17996, Note_off_c, 1, 61, 64
3, 17996, Note_off_c, 1, 56, 64
3, 17996, Note_off_c, 1, 65, 64
3, 18000, Note_on_c, 1, 65, 115
3, 18000, Note_on_c, 1, 61, 115
3, 18000, Note_on_c, 1, 56, 115
3, 18716, Note_off_c, 1, 65, 64
3, 18720, Note_on_c, 1, 65, 115
3, 18956, Note_off_c, 1, 61, 64
3, 18956, Note_off_c, 1, 56, 64
3, 18956, Note_off_c, 1, 65, 64
3, 18960, Note_on_c, 1, 65, 115
3, 18960, Note_on_c, 1, 61, 115
3, 18960, Note_on_c, 1, 56, 115
3, 19676, Note_off_c, 1, 65, 64
3, 19680, Note_on_c, 1, 65, 115
3, 19916, Note_off_c, 1, 65, 64
3, 19920, Note_on_c, 1, 66, 115
3, 20636, Note_off_c, 1, 66, 64
3, 20640, Note_on_c, 1, 65, 115
3, 21116, Note_off_c, 1, 61, 64
3, 21116, Note_off_c, 1, 56, 64
3, 21116, Note_off_c, 1, 65, 64
3, 21120, Note_on_c, 1, 65, 115
3, 21120, Note_on_c, 1, 61, 115
3, 21120, Note_on_c, 1, 58, 115
3, 21356, Note_off_c, 1, 65, 64
3, 21360, Note_on_c, 1, 66, 115
3, 21836, Note_off_c, 1, 61, 64
3, 21836, Note_off_c, 1, 58, 64
3, 21836, Note_off_c, 1, 66, 64
3, 21840, Note_on_c, 1, 61, 115
3, 21840, Note_on_c, 1, 58, 115
3, 23756, Note_off_c, 1, 61, 64
3, 23760, Note_on_c, 1, 63, 115
3, 23996, Note_off_c, 1, 58, 64
3, 23996, Note_off_c, 1, 63, 64
3, 24000, Note_on_c, 1, 63, 115
3, 24000, Note_on_c, 1, 59, 115
3, 24000, Note_on_c, 1, 65, 115
3, 24236, Note_off_c, 1, 65, 64
3, 24240, Note_on_c, 1, 66, 115
3, 24716, Note_off_c, 1, 59, 64
3, 24716, Note_off_c, 1, 63, 64
3, 24716, Note_off_c, 1, 66, 64
3, 24720, Note_on_c, 1, 68, 115
3, 25440, Note_on_c, 1, 65, 115
3, 25440, Note_on_c, 1, 61, 115
3, 25440, Note_on_c, 1, 56, 115
3, 25916, Note_off_c, 1, 56, 64
3, 25916, Note_off_c, 1, 61, 64
3, 25916, Note_off_c, 1, 65, 64
3, 26400, Note_on_c, 1, 65, 115
3, 26400, Note_on_c, 1, 61, 115
3, 26400, Note_on_c, 1, 56, 115
3, 26876, Note_off_c, 1, 56, 64
3, 26876, Note_off_c, 1, 61, 64
3, 26876, Note_off_c, 1, 65, 64
3, 27360, Note_on_c, 1, 66, 115
3, 27360, Note_on_c, 1, 63, 115
3, 27360, Note_on_c, 1, 58, 115
3, 27836, Note_off_c, 1, 58, 64
3, 27836, Note_off_c, 1, 63, 64
3, 27836, Note_off_c, 1, 68, 64
3, 27836, Note_off_c, 1, 66, 64
3, 27840, Note_on_c, 1, 68, 115
3, 27840, Note_on_c, 1, 66, 115
3, 27840, Note_on_c, 1, 63, 115
3, 28076, Note_off_c, 1, 68, 64
3, 28080, Note_on_c, 1, 68, 115
3, 28556, Note_off_c, 1, 66, 64
3, 28556, Note_off_c, 1, 63, 64
3, 28556, Note_off_c, 1, 68, 64
3, 28560, Note_on_c, 1, 73, 115
3, 29280, Note_on_c, 1, 68, 115
3, 29280, Note_on_c, 1, 65, 115
3, 29280, Note_on_c, 1, 61, 115
3, 29756, Note_off_c, 1, 61, 64
3, 29756, Note_off_c, 1, 65, 64
3, 29756, Note_off_c, 1, 68, 64
3, 30240, Note_on_c, 1, 68, 115
3, 30240, Note_on_c, 1, 65, 115
3, 30240, Note_on_c, 1, 61, 115
3, 30716, Note_off_c, 1, 61, 64
3, 30716, Note_off_c, 1, 65, 64
3, 30716, Note_off_c, 1, 68, 64
3, 31196, Note_off_c, 1, 73, 64
3, 31200, Note_on_c, 1, 74, 115
3, 31200, Note_on_c, 1, 68, 115
3, 31200, Note_on_c, 1, 64, 115
3, 31200, Note_on_c, 1, 62, 115
3, 32636, Note_off_c, 1, 62, 64
3, 32636, Note_off_c, 1, 64, 64
3, 32636, Note_off_c, 1, 68, 64
3, 32636, Note_off_c, 1, 74, 64
3, 32640, Note_on_c, 1, 64, 115
3, 33120, Note_on_c, 1, 61, 115
3, 33120, Note_on_c, 1, 57, 115
3, 33596, Note_off_c, 1, 57, 64
3, 33596, Note_off_c, 1, 61, 64
3, 33596, Note_off_c, 1, 64, 64
3, 33600, Note_on_c, 1, 69, 115
3, 33600, Note_on_c, 1, 64, 115
3, 33600, Note_on_c, 1, 61, 115
3, 33836, Note_off_c, 1, 69, 64
3, 33840, Note_on_c, 1, 69, 115
3, 34076, Note_off_c, 1, 69, 64
3, 34080, Note_on_c, 1, 71, 115
3, 34316, Note_off_c, 1, 64, 64
3, 34316, Note_off_c, 1, 61, 64
3, 34316, Note_off_c, 1, 71, 64
3, 34320, Note_on_c, 1, 76, 115
3, 34320, Note_on_c, 1, 69, 115
3, 34320, Note_on_c, 1, 64, 115
3, 34796, Note_off_c, 1, 76, 64
3, 34800, Note_on_c, 1, 72, 115
3, 35036, Note_off_c, 1, 69, 64
3, 35036, Note_off_c, 1, 64, 64
3, 35036, Note_off_c, 1, 72, 64
3, 35040, Note_on_c, 1, 73, 115
3, 35040, Note_on_c, 1, 69, 115
3, 35040, Note_on_c, 1, 64, 115
3, 35996, Note_off_c, 1, 64, 64
3, 35996, Note_off_c, 1, 69, 64
3, 35996, Note_off_c, 1, 73, 64
3, 36000, Note_on_c, 1, 73, 115
3, 36000, Note_on_c, 1, 69, 115
3, 36000, Note_on_c, 1, 64, 115
3, 36476, Note_off_c, 1, 64, 64
3, 36476, Note_off_c, 1, 69, 64
3, 36476, Note_off_c, 1, 73, 64
3, 36480, Note_on_c, 1, 73, 115
3, 36480, Note_on_c, 1, 69, 115
3, 36480, Note_on_c, 1, 66, 115
3, 36716, Note_off_c, 1, 73, 64
3, 36720, Note_on_c, 1, 74, 115
3, 37196, Note_off_c, 1, 69, 64
3, 37196, Note_off_c, 1, 66, 64
3, 37196, Note_off_c, 1, 74, 64
3, 37200, Note_on_c, 1, 71, 115
3, 37200, Note_on_c, 1, 66, 115
3, 37200, Note_on_c, 1, 62, 115
3, 37916, Note_off_c, 1, 62, 64
3, 37916, Note_off_c, 1, 66, 64
3, 37916, Note_off_c, 1, 71, 64
3, 37920, Note_on_c, 1, 69, 115
3, 37920, Note_on_c, 1, 66, 115
3, 37920, Note_on_c, 1, 62, 115
3, 38396, Note_off_c, 1, 62, 64
3, 38396, Note_off_c, 1, 66, 64
3, 38396, Note_off_c, 1, 69, 64
3, 38400, Note_on_c, 1, 71, 115
3, 38400, Note_on_c, 1, 67, 115
3, 38400, Note_on_c, 1, 62, 115
3, 38636, Note_off_c, 1, 71, 64
3, 38640, Note_on_c, 1, 73, 115
3, 39116, Note_off_c, 1, 67, 64
3, 39116, Note_off_c, 1, 62, 64
3, 39116, Note_off_c, 1, 73, 64
3, 39120, Note_on_c, 1, 69, 115
3, 39120, Note_on_c, 1, 62, 115
3, 39836, Note_off_c, 1, 62, 64
3, 39836, Note_off_c, 1, 69, 64
3, 39840, Note_on_c, 1, 64, 115
3, 39840, Note_on_c, 1, 62, 115
3, 40316, Note_off_c, 1, 62, 64
3, 40316, Note_off_c, 1, 64, 64
3, 40320, Note_on_c, 1, 76, 115
3, 40320, Note_on_c, 1, 73, 115
3, 40320, Note_on_c, 1, 69, 115
3, 40320, Note_on_c, 1, 64, 115
3, 41996, Note_off_c, 1, 64, 64
3, 41996, Note_off_c, 1, 69, 64
3, 41996, Note_off_c, 1, 73, 64
3, 42000, Note_on_c, 1, 71, 115
3, 42000, Note_on_c, 1, 67, 115
3, 42596, Note_off_c, 1, 67, 64
3, 42596, Note_off_c, 1, 71, 64
3, 42600, Note_on_c, 1, 71, 115
3, 42600, Note_on_c, 1, 67, 115
3, 42716, Note_off_c, 1, 67, 64
3, 42716, Note_off_c, 1, 71, 64
3, 42720, Note_on_c, 1, 72, 115
3, 42720, Note_on_c, 1, 69, 115
3, 44156, Note_off_c, 1, 69, 64
3, 44156, Note_off_c, 1, 76, 64
3, 44156, Note_off_c, 1, 72, 64
3, 44160, Note_on_c, 1, 73, 115
3, 44160, Note_on_c, 1, 69, 115
3, 44160, Note_on_c, 1, 64, 115
3, 44160, Note_on_c, 1, 76, 115
3, 45836, Note_off_c, 1, 64, 64
3, 45836, Note_off_c, 1, 69, 64
3, 45836, Note_off_c, 1, 73, 64
3, 45840, Note_on_c, 1, 71, 115
3, 45840, Note_on_c, 1, 67, 115
3, 46436, Note_off_c, 1, 67, 64
3, 46436, Note_off_c, 1, 71, 64
3, 46440, Note_on_c, 1, 71, 115
3, 46440, Note_on_c, 1, 67, 115
3, 46556, Note_off_c, 1, 67, 64
3, 46556, Note_off_c, 1, 71, 64
3, 46560, Note_on_c, 1, 72, 115
3, 46560, Note_on_c, 1, 69, 115
3, 47516, Note_off_c, 1, 69, 64
3, 47516, Note_off_c, 1, 76, 64
3, 47516, Note_off_c, 1, 72, 64
3, 47760, Note_on_c, 1, 62, 115
3, 47760, Note_on_c, 1, 62, 115
3, 47996, Note_off_c, 1, 62, 64
3, 47996, Note_off_c, 1, 62, 64
3, 48000, Note_on_c, 1, 62, 115
3, 48000, Note_on_c, 1, 59, 115
3, 48476, Note_off_c, 1, 62, 64
3, 48480, Note_on_c, 1, 62, 115
3, 48716, Note_off_c, 1, 59, 64
3, 48716, Note_off_c, 1, 62, 64
3, 48720, Note_on_c, 1, 67, 115
3, 48720, Note_on_c, 1, 62, 115
3, 48720, Note_on_c, 1, 59, 115
3, 49436, Note_off_c, 1, 67, 64
3, 49440, Note_on_c, 1, 69, 115
3, 49676, Note_off_c, 1, 62, 64
3, 49676, Note_off_c, 1, 59, 64
3, 49676, Note_off_c, 1, 69, 64
3, 49680, Note_on_c, 1, 71, 115
3, 49680, Note_on_c, 1, 67, 115
3, 49680, Note_on_c, 1, 62, 115
3, 51116, Note_off_c, 1, 71, 64
3, 51120, Note_on_c, 1, 71, 115
3, 51356, Note_off_c, 1, 71, 64
3, 51360, Note_on_c, 1, 71, 115
3, 51836, Note_off_c, 1, 67, 64
3, 51836, Note_off_c, 1, 62, 64
3, 51836, Note_off_c, 1, 71, 64
3, 51840, Note_on_c, 1, 71, 115
3, 51840, Note_on_c, 1, 69, 115
3, 51840, Note_on_c, 1, 65, 115
3, 52076, Note_off_c, 1, 71, 64
3, 52080, Note_on_c, 1, 72, 115
3, 52556, Note_off_c, 1, 69, 64
3, 52556, Note_off_c, 1, 65, 64
3, 52556, Note_off_c, 1, 72, 64
3, 52560, Note_on_c, 1, 69, 115
3, 52560, Note_on_c, 1, 65, 115
3, 52560, Note_on_c, 1, 60, 115
3, 53276, Note_off_c, 1, 69, 64
3, 53280, Note_on_c, 1, 67, 115
3, 53516, Note_off_c, 1, 65, 64
3, 53516, Note_off_c, 1, 60, 64
3, 53516, Note_off_c, 1, 67, 64
3, 53520, Note_on_c, 1, 69, 115
3, 53520, Note_on_c, 1, 60, 115
3, 53520, Note_on_c, 1, 65, 115
3, 55196, Note_off_c, 1, 65, 64
3, 55196, Note_off_c, 1, 60, 64
3, 55196, Note_off_c, 1, 69, 64
3, 55680, Note_on_c, 1, 65, 115
3, 55680, Note_on_c, 1, 62, 115
3, 56156, Note_off_c, 1, 65, 64
3, 56160, Note_on_c, 1, 65, 115
3, 56636, Note_off_c, 1, 62, 64
3, 56636, Note_off_c, 1, 65, 64
3, 56640, Note_on_c, 1, 70, 115
3, 56640, Note_on_c, 1, 65, 115
3, 56640, Note_on_c, 1, 62, 115
3, 56876, Note_off_c, 1, 70, 64
3, 56880, Note_on_c, 1, 72, 115
3, 57356, Note_off_c, 1, 65, 64
3, 57356, Note_off_c, 1, 62, 64
3, 57356, Note_off_c, 1, 72, 64
3, 57360, Note_on_c, 1, 74, 115
3, 57360, Note_on_c, 1, 70, 115
3, 57360, Note_on_c, 1, 65, 115
3, 58796, Note_off_c, 1, 74, 64
3, 58800, Note_on_c, 1, 74, 115
3, 59036, Note_off_c, 1, 74, 64
3, 59040, Note_on_c, 1, 74, 115
3, 59516, Note_off_c, 1, 70, 64
3, 59516, Note_off_c, 1, 65, 64
3, 59516, Note_off_c, 1, 74, 64
3, 59520, Note_on_c, 1, 72, 115
3, 59520, Note_on_c, 1, 68, 115
3, 60236, Note_off_c, 1, 68, 64
3, 60236, Note_off_c, 1, 72, 64
3, 60240, Note_on_c, 1, 72, 115
3, 60240, Note_on_c, 1, 68, 115
3, 60240, Note_on_c, 1, 63, 115
3, 60956, Note_off_c, 1, 72, 64
3, 60960, Note_on_c, 1, 70, 115
3, 61196, Note_off_c, 1, 68, 64
3, 61196, Note_off_c, 1, 63, 64
3, 61196, Note_off_c, 1, 70, 64
3, 61200, Note_on_c, 1, 72, 115
3, 61200, Note_on_c, 1, 68, 115
3, 61200, Note_on_c, 1, 63, 115
3, 62396, Note_off_c, 1, 63, 64
3, 62396, Note_off_c, 1, 68, 64
3, 62396, Note_off_c, 1, 72, 64
3, 62400, Note_on_c, 1, 56, 115
3, 62876, Note_off_c, 1, 56, 64
3, 62880, Note_on_c, 1, 61, 115
3, 63116, Note_off_c, 1, 61, 64
3, 63120, Note_on_c, 1, 65, 115
3, 63120, Note_on_c, 1, 61, 115
3, 63120, Note_on_c, 1, 56, 115
3, 63836, Note_off_c, 1, 65, 64
3, 63840, Note_on_c, 1, 65, 115
3, 64076, Note_off_c, 1, 61, 64
3, 64076, Note_off_c, 1, 56, 64
3, 64076, Note_off_c, 1, 65, 64
3, 64080, Note_on_c, 1, 65, 115
3, 64080, Note_on_c, 1, 61, 115
3, 64080, Note_on_c, 1, 56, 115
3, 64796, Note_off_c, 1, 65, 64
3, 64800, Note_on_c, 1, 65, 115
3, 65036, Note_off_c, 1, 61, 64
3, 65036, Note_off_c, 1, 56, 64
3, 65036, Note_off_c, 1, 65, 64
3, 65040, Note_on_c, 1, 65, 115
3, 65040, Note_on_c, 1, 61, 115
3, 65040, Note_on_c, 1, 56, 115
3, 65756, Note_off_c, 1, 65, 64
3, 65760, Note_on_c, 1, 65, 115
3, 65996, Note_off_c, 1, 65, 64
3, 66000, Note_on_c, 1, 66, 115
3, 66716, Note_off_c, 1, 66, 64
3, 66720, Note_on_c, 1, 65, 115
3, 67196, Note_off_c, 1, 61, 64
3, 67196, Note_off_c, 1, 56, 64
3, 67196, Note_off_c, 1, 65, 64
3, 67200, Note_on_c, 1, 65, 115
3, 67200, Note_on_c, 1, 61, 115
3, 67200, Note_on_c, 1, 58, 115
3, 67436, Note_off_c, 1, 65, 64
3, 67440, Note_on_c, 1, 66, 115
3, 67916, Note_off_c, 1, 61, 64
3, 67916, Note_off_c, 1, 58, 64
3, 67916, Note_off_c, 1, 66, 64
3, 67920, Note_on_c, 1, 61, 115
3, 67920, Note_on_c, 1, 58, 115
3, 69836, Note_off_c, 1, 61, 64
3, 69840, Note_on_c, 1, 63, 115
3, 70076, Note_off_c, 1, 58, 64
3, 70076, Note_off_c, 1, 63, 64
3, 70080, Note_on_c, 1, 63, 115
3, 70080, Note_on_c, 1, 59, 115
3, 70080, Note_on_c, 1, 65, 115
3, 70316, Note_off_c, 1, 65, 64
3, 70320, Note_on_c, 1, 66, 115
3, 70796, Note_off_c, 1, 59, 64
3, 70796, Note_off_c, 1, 63, 64
3, 70796, Note_off_c, 1, 66, 64
3, 70800, Note_on_c, 1, 68, 115
3, 71520, Note_on_c, 1, 65, 115
3, 71520, Note_on_c, 1, 61, 115
3, 71520, Note_on_c, 1, 56, 115
3, 71996, Note_off_c, 1, 56, 64
3, 71996, Note_off_c, 1, 61, 64
3, 71996, Note_off_c, 1, 65, 64
3, 72480, Note_on_c, 1, 65, 115
3, 72480, Note_on_c, 1, 61, 115
3, 72480, Note_on_c, 1, 56, 115
3, 72956, Note_off_c, 1, 56, 64
3, 72956, Note_off_c, 1, 61, 64
3, 72956, Note_off_c, 1, 65, 64
3, 73440, Note_on_c, 1, 66, 115
3, 73440, Note_on_c, 1, 63, 115
3, 73440, Note_on_c, 1, 58, 115
3, 73916, Note_off_c, 1, 58, 64
3, 73916, Note_off_c, 1, 63, 64
3, 73916, Note_off_c, 1, 68, 64
3, 73916, Note_off_c, 1, 66, 64
3, 73920, Note_on_c, 1, 68, 115
3, 73920, Note_on_c, 1, 66, 115
3, 73920, Note_on_c, 1, 63, 115
3, 74156, Note_off_c, 1, 68, 64
3, 74160, Note_on_c, 1, 68, 115
3, 74636, Note_off_c, 1, 66, 64
3, 74636, Note_off_c, 1, 63, 64
3, 74636, Note_off_c, 1, 68, 64
3, 74640, Note_on_c, 1, 73, 115
3, 75360, Note_on_c, 1, 68, 115
3, 75360, Note_on_c, 1, 65, 115
3, 75360, Note_on_c, 1, 61, 115
3, 75836, Note_off_c, 1, 61, 64
3, 75836, Note_off_c, 1, 65, 64
3, 75836, Note_off_c, 1, 68, 64
3, 76320, Note_on_c, 1, 68, 115
3, 76320, Note_on_c, 1, 65, 115
3, 76320, Note_on_c, 1, 61, 115
3, 76796, Note_off_c, 1, 61, 64
3, 76796, Note_off_c, 1, 65, 64
3, 76796, Note_off_c, 1, 68, 64
3, 77276, Note_off_c, 1, 73, 64
3, 77280, Note_on_c, 1, 74, 115
3, 77280, Note_on_c, 1, 68, 115
3, 77280, Note_on_c, 1, 64, 115
3, 77280, Note_on_c, 1, 62, 115
3, 78716, Note_off_c, 1, 62, 64
3, 78716, Note_off_c, 1, 64, 64
3, 78716, Note_off_c, 1, 68, 64
3, 78716, Note_off_c, 1, 74, 64
3, 78720, Note_on_c, 1, 64, 115
3, 79200, Note_on_c, 1, 61, 115
3, 79200, Note_on_c, 1, 57, 115
3, 79676, Note_off_c, 1, 57, 64
3, 79676, Note_off_c, 1, 61, 64
3, 79676, Note_off_c, 1, 64, 64
3, 79680, Note_on_c, 1, 69, 115
3, 79680, Note_on_c, 1, 64, 115
3, 79680, Note_on_c, 1, 61, 115
3, 79916, Note_off_c, 1, 69, 64
3, 79920, Note_on_c, 1, 69, 115
3, 80156, Note_off_c, 1, 69, 64
3, 80160, Note_on_c, 1, 71, 115
3, 80396, Note_off_c, 1, 64, 64
3, 80396, Note_off_c, 1, 61, 64
3, 80396, Note_off_c, 1, 71, 64
3, 80400, Note_on_c, 1, 76, 115
3, 80400, Note_on_c, 1, 69, 115
3, 80400, Note_on_c, 1, 64, 115
3, 80876, Note_off_c, 1, 76, 64
3, 80880, Note_on_c, 1, 72, 115
3, 81116, Note_off_c, 1, 69, 64
3, 81116, Note_off_c, 1, 64, 64
3, 81116, Note_off_c, 1, 72, 64
3, 81120, Note_on_c, 1, 73, 115
3, 81120, Note_on_c, 1, 69, 115
3, 81120, Note_on_c, 1, 64, 115
3, 82076, Note_off_c, 1, 64, 64
3, 82076, Note_off_c, 1, 69, 64
3, 82076, Note_off_c, 1, 73, 64
3, 82080, Note_on_c, 1, 73, 115
3, 82080, Note_on_c, 1, 69, 115
3, 82080, Note_on_c, 1, 64, 115
3, 82556, Note_off_c, 1, 64, 64
3, 82556, Note_off_c, 1, 69, 64
3, 82556, Note_off_c, 1, 73, 64
3, 82560, Note_on_c, 1, 73, 115
3, 82560, Note_on_c, 1, 69, 115
3, 82560, Note_on_c, 1, 66, 115
3, 82796, Note_off_c, 1, 73, 64
3, 82800, Note_on_c, 1, 74, 115
3, 83276, Note_off_c, 1, 69, 64
3, 83276, Note_off_c, 1, 66, 64
3, 83276, Note_off_c, 1, 74, 64
3, 83280, Note_on_c, 1, 71, 115
3, 83280, Note_on_c, 1, 66, 115
3, 83280, Note_on_c, 1, 62, 115
3, 83996, Note_off_c, 1, 62, 64
3, 83996, Note_off_c, 1, 66, 64
3, 83996, Note_off_c, 1, 71, 64
3, 84000, Note_on_c, 1, 69, 115
3, 84000, Note_on_c, 1, 66, 115
3, 84000, Note_on_c, 1, 62, 115
3, 84476, Note_off_c, 1, 62, 64
3, 84476, Note_off_c, 1, 66, 64
3, 84476, Note_off_c, 1, 69, 64
3, 84480, Note_on_c, 1, 71, 115
3, 84480, Note_on_c, 1, 67, 115
3, 84480, Note_on_c, 1, 62, 115
3, 84716, Note_off_c, 1, 71, 64
3, 84720, Note_on_c, 1, 73, 115
3, 85196, Note_off_c, 1, 67, 64
3, 85196, Note_off_c, 1, 62, 64
3, 85196, Note_off_c, 1, 73, 64
3, 85200, Note_on_c, 1, 69, 115
3, 85200, Note_on_c, 1, 62, 115
3, 85916, Note_off_c, 1, 62, 64
3, 85916, Note_off_c, 1, 69, 64
3, 85920, Note_on_c, 1, 64, 115
3, 85920, Note_on_c, 1, 62, 115
3, 86396, Note_off_c, 1, 62, 64
3, 86396, Note_off_c, 1, 64, 64
3, 86400, Note_on_c, 1, 76, 115
3, 86400, Note_on_c, 1, 73, 115
3, 86400, Note_on_c, 1, 69, 115
3, 86400, Note_on_c, 1, 64, 115
3, 88076, Note_off_c, 1, 64, 64
3, 88076, Note_off_c, 1, 69, 64
3, 88076, Note_off_c, 1, 73, 64
3, 88080, Note_on_c, 1, 71, 115
3, 88080, Note_on_c, 1, 67, 115
3, 88676, Note_off_c, 1, 67, 64
3, 88676, Note_off_c, 1, 71, 64
3, 88680, Note_on_c, 1, 71, 115
3, 88680, Note_on_c, 1, 67, 115
3, 88796, Note_off_c, 1, 67, 64
3, 88796, Note_off_c, 1, 71, 64
3, 88800, Note_on_c, 1, 72, 115
3, 88800, Note_on_c, 1, 69, 115
3, 90236, Note_off_c, 1, 69, 64
3, 90236, Note_off_c, 1, 76, 64
3, 90236, Note_off_c, 1, 72, 64
3, 90240, Note_on_c, 1, 73, 115
3, 90240, Note_on_c, 1, 69, 115
3, 90240, Note_on_c, 1, 64, 115
3, 90240, Note_on_c, 1, 76, 115
3, 91916, Note_off_c, 1, 64, 64
3, 91916, Note_off_c, 1, 69, 64
3, 91916, Note_off_c, 1, 73, 64
3, 91920, Note_on_c, 1, 71, 115
3, 91920, Note_on_c, 1, 67, 115
3, 92516, Note_off_c, 1, 67, 64
3, 92516, Note_off_c, 1, 71, 64
3, 92520, Note_on_c, 1, 71, 115
3, 92520, Note_on_c, 1, 67, 115
3, 92636, Note_off_c, 1, 67, 64
3, 92636, Note_off_c, 1, 71, 64
3, 92640, Note_on_c, 1, 72, 115
3, 92640, Note_on_c, 1, 69, 115
3, 94080, Note_off_c, 1, 69, 64
3, 94080, Note_off_c, 1, 76, 64
3, 94080, Note_off_c, 1, 72, 64
3, 94560, Note_on_c, 1, 67, 115
3, 94560, Note_on_c, 1, 64, 115
3, 94560, Note_on_c, 1, 60, 115
3, 95036, Note_off_c, 1, 60, 64
3, 95036, Note_off_c, 1, 64, 64
3, 95036, Note_off_c, 1, 67, 64
3, 95040, Note_on_c, 1, 72, 115
3, 95040, Note_on_c, 1, 67, 115
3, 95040, Note_on_c, 1, 64, 115
3, 95516, Note_off_c, 1, 72, 64
3, 95520, Note_on_c, 1, 74, 115
3, 95996, Note_off_c, 1, 67, 64
3, 95996, Note_off_c, 1, 64, 64
3, 95996, Note_off_c, 1, 74, 64
3, 96000, Note_on_c, 1, 76, 115
3, 96000, Note_on_c, 1, 71, 115
3, 96000, Note_on_c, 1, 67, 115
3, 96476, Note_off_c, 1, 76, 64
3, 96480, Note_on_c, 1, 77, 115
3, 96716, Note_off_c, 1, 77, 64
3, 96720, Note_on_c, 1, 76, 115
3, 96956, Note_off_c, 1, 76, 64
3, 96960, Note_on_c, 1, 74, 115
3, 97436, Note_off_c, 1, 74, 64
3, 97440, Note_on_c, 1, 72, 115
3, 97916, Note_off_c, 1, 71, 64
3, 97916, Note_off_c, 1, 67, 64
3, 97916, Note_off_c, 1, 72, 64
3, 97920, Note_on_c, 1, 74, 115
3, 98400, Note_on_c, 1, 72, 115
3, 98400, Note_on_c, 1, 69, 115
3, 98400, Note_on_c, 1, 65, 115
3, 98636, Note_off_c, 1, 65, 64
3, 98636, Note_off_c, 1, 69, 64
3, 98636, Note_off_c, 1, 72, 64
3, 98636, Note_off_c, 1, 74, 64
3, 98640, Note_on_c, 1, 67, 115
3, 98876, Note_off_c, 1, 67, 64
3, 98880, Note_on_c, 1, 67, 115
3, 99360, Note_on_c, 1, 65, 115
3, 99360, Note_on_c, 1, 60, 115
3, 99360, Note_on_c, 1, 57, 115
3, 99836, Note_off_c, 1, 57, 64
3, 99836, Note_off_c, 1, 60, 64
3, 99836, Note_off_c, 1, 65, 64
3, 100320, Note_on_c, 1, 62, 115
3, 100320, Note_on_c, 1, 59, 115
3, 100796, Note_off_c, 1, 59, 64
3, 100796, Note_off_c, 1, 62, 64
3, 101280, Note_on_c, 1, 62, 115
3, 101280, Note_on_c, 1, 59, 115
3, 101756, Note_off_c, 1, 59, 64
3, 101756, Note_off_c, 1, 67, 64
3, 101756, Note_off_c, 1, 62, 64
3, 102240, Note_on_c, 1, 67, 115
3, 102240, Note_on_c, 1, 60, 115
3, 102716, Note_off_c, 1, 60, 64
3, 102716, Note_off_c, 1, 67, 64
3, 102720, Note_on_c, 1, 72, 115
3, 102720, Note_on_c, 1, 67, 115
3, 103196, Note_off_c, 1, 72, 64
3, 103200, Note_on_c, 1, 74, 115
3, 103436, Note_off_c, 1, 67, 64
3, 103436, Note_off_c, 1, 74, 64
3, 103440, Note_on_c, 1, 76, 115
3, 103440, Note_on_c, 1, 67, 115
3, 103440, Note_on_c, 1, 72, 115
3, 104156, Note_off_c, 1, 76, 64
3, 104160, Note_on_c, 1, 77, 115
3, 104396, Note_off_c, 1, 77, 64
3, 104400, Note_on_c, 1, 76, 115
3, 104636, Note_off_c, 1, 76, 64
3, 104640, Note_on_c, 1, 74, 115
3, 105116, Note_off_c, 1, 72, 64
3, 105116, Note_off_c, 1, 74, 64
3, 105120, Note_on_c, 1, 72, 115
3, 105596, Note_off_c, 1, 67, 64
3, 105596, Note_off_c, 1, 72, 64
3, 105600, Note_on_c, 1, 79, 115
3, 106080, Note_on_c, 1, 72, 115
3, 106080, Note_on_c, 1, 69, 115
3, 106316, Note_off_c, 1, 79, 64
3, 106320, Note_on_c, 1, 74, 115
3, 106556, Note_off_c, 1, 72, 64
3, 106556, Note_off_c, 1, 69, 64
3, 106556, Note_off_c, 1, 74, 64
3, 106560, Note_on_c, 1, 74, 115
3, 107040, Note_on_c, 1, 72, 115
3, 107040, Note_on_c, 1, 69, 115
3, 107040, Note_on_c, 1, 65, 115
3, 107516, Note_off_c, 1, 65, 64
3, 107516, Note_off_c, 1, 69, 64
3, 107516, Note_off_c, 1, 72, 64
3, 108000, Note_on_c, 1, 71, 115
3, 108000, Note_on_c, 1, 67, 115
3, 108476, Note_off_c, 1, 67, 64
3, 108476, Note_off_c, 1, 71, 64
3, 108960, Note_on_c, 1, 71, 115
3, 108960, Note_on_c, 1, 67, 115
3, 109436, Note_off_c, 1, 67, 64
3, 109436, Note_off_c, 1, 74, 64
3, 109436, Note_off_c, 1, 71, 64
3, 109920, Note_on_c, 1, 58, 115
3, 109920, Note_on_c, 1, 55, 115
3, 110396, Note_off_c, 1, 55, 64
3, 110396, Note_off_c, 1, 58, 64
3, 110400, Note_on_c, 1, 63, 115
3, 110400, Note_on_c, 1, 58, 115
3, 110400, Note_on_c, 1, 55, 115
3, 110876, Note_off_c, 1, 63, 64
3, 110880, Note_on_c, 1, 65, 115
3, 111356, Note_off_c, 1, 58, 64
3, 111356, Note_off_c, 1, 55, 64
3, 111356, Note_off_c, 1, 65, 64
3, 111360, Note_on_c, 1, 67, 115
3, 111360, Note_on_c, 1, 62, 115
3, 111360, Note_on_c, 1, 58, 115
3, 111836, Note_off_c, 1, 67, 64
3, 111840, Note_on_c, 1, 68, 115
3, 112316, Note_off_c, 1, 68, 64
3, 112320, Note_on_c, 1, 67, 115
3, 112556, Note_off_c, 1, 67, 64
3, 112560, Note_on_c, 1, 65, 115
3, 112796, Note_off_c, 1, 65, 64
3, 112800, Note_on_c, 1, 63, 115
3, 113276, Note_off_c, 1, 62, 64
3, 113276, Note_off_c, 1, 58, 64
3, 113276, Note_off_c, 1, 63, 64
3, 113280, Note_on_c, 1, 70, 115
3, 113760, Note_on_c, 1, 63, 115
3, 113760, Note_on_c, 1, 60, 115
3, 113996, Note_off_c, 1, 70, 64
3, 114000, Note_on_c, 1, 65, 115
3, 114236, Note_off_c, 1, 63, 64
3, 114236, Note_off_c, 1, 60, 64
3, 114236, Note_off_c, 1, 65, 64
3, 114240, Note_on_c, 1, 65, 115
3, 114720, Note_on_c, 1, 60, 115
3, 114720, Note_on_c, 1, 56, 115
3, 115196, Note_off_c, 1, 56, 64
3, 115196, Note_off_c, 1, 60, 64
3, 115680, Note_on_c, 1, 58, 115
3, 115680, Note_on_c, 1, 56, 115
3, 116156, Note_off_c, 1, 56, 64
3, 116156, Note_off_c, 1, 58, 64
3, 116640, Note_on_c, 1, 62, 115
3, 116640, Note_on_c, 1, 58, 115
3, 116876, Note_off_c, 1, 58, 64
3, 116876, Note_off_c, 1, 65, 64
3, 116876, Note_off_c, 1, 62, 64
3, 116880, Note_on_c, 1, 68, 115
3, 117116, Note_off_c, 1, 68, 64
3, 117120, Note_on_c, 1, 73, 115
3, 117120, Note_on_c, 1, 70, 115
3, 117120, Note_on_c, 1, 66, 115
3, 117596, Note_off_c, 1, 73, 64
3, 117600, Note_on_c, 1, 73, 115
3, 117836, Note_off_c, 1, 73, 64
3, 117840, Note_on_c, 1, 73, 115
3, 118556, Note_off_c, 1, 73, 64
3, 118560, Note_on_c, 1, 73, 115
3, 118796, Note_off_c, 1, 70, 64
3, 118796, Note_off_c, 1, 66, 64
3, 118796, Note_off_c, 1, 73, 64
3, 118800, Note_on_c, 1, 72, 115
3, 118800, Note_on_c, 1, 75, 115
3, 118800, Note_on_c, 1, 68, 115
3, 119276, Note_off_c, 1, 75, 64
3, 119280, Note_on_c, 1, 77, 115
3, 120956, Note_off_c, 1, 72, 64
3, 120956, Note_off_c, 1, 68, 64
3, 120956, Note_off_c, 1, 77, 64
3, 120960, Note_on_c, 1, 67, 115
3, 120960, Note_on_c, 1, 62, 115
3, 120960, Note_on_c, 1, 59, 115
3, 121436, Note_off_c, 1, 67, 64
3, 121440, Note_on_c, 1, 67, 115
3, 121676, Note_off_c, 1, 67, 64
3, 121680, Note_on_c, 1, 67, 115
3, 122396, Note_off_c, 1, 67, 64
3, 122400, Note_on_c, 1, 67, 115
3, 122636, Note_off_c, 1, 62, 64
3, 122636, Note_off_c, 1, 59, 64
3, 122636, Note_off_c, 1, 67, 64
3, 122640, Note_on_c, 1, 69, 115
3, 122640, Note_on_c, 1, 65, 115
3, 122640, Note_on_c, 1, 60, 115
3, 123116, Note_off_c, 1, 69, 64
3, 123120, Note_on_c, 1, 71, 115
3, 123836, Note_off_c, 1, 65, 64
3, 123836, Note_off_c, 1, 60, 64
3, 123836, Note_off_c, 1, 71, 64
3, 124320, Note_on_c, 1, 67, 115
3, 124320, Note_on_c, 1, 63, 115
3, 124320, Note_on_c, 1, 58, 115
3, 124800, Note_off_c, 1, 58, 64
3, 124800, Note_off_c, 1, 63, 64
3, 124800, Note_off_c, 1, 67, 64
3, 124800, Note_on_c, 1, 62, 115
3, 124800, Note_on_c, 1, 59, 115
3, 125276, Note_off_c, 1, 62, 64
3, 125280, Note_on_c, 1, 62, 115
3, 125516, Note_off_c, 1, 59, 64
3, 125516, Note_off_c, 1, 62, 64
3, 125520, Note_on_c, 1, 67, 115
3, 125520, Note_on_c, 1, 62, 115
3, 125520, Note_on_c, 1, 59, 115
3, 126236, Note_off_c, 1, 67, 64
3, 126240, Note_on_c, 1, 69, 115
3, 126476, Note_off_c, 1, 62, 64
3, 126476, Note_off_c, 1, 59, 64
3, 126476, Note_off_c, 1, 69, 64
3, 126480, Note_on_c, 1, 71, 115
3, 126480, Note_on_c, 1, 67, 115
3, 126480, Note_on_c, 1, 62, 115
3, 127916, Note_off_c, 1, 71, 64
3, 127920, Note_on_c, 1, 71, 115
3, 128156, Note_off_c, 1, 71, 64
3, 128160, Note_on_c, 1, 71, 115
3, 128636, Note_off_c, 1, 67, 64
3, 128636, Note_off_c, 1, 62, 64
3, 128636, Note_off_c, 1, 71, 64
3, 128640, Note_on_c, 1, 71, 115
3, 128640, Note_on_c, 1, 69, 115
3, 128640, Note_on_c, 1, 65, 115
3, 128876, Note_off_c, 1, 71, 64
3, 128880, Note_on_c, 1, 72, 115
3, 129356, Note_off_c, 1, 69, 64
3, 129356, Note_off_c, 1, 65, 64
3, 129356, Note_off_c, 1, 72, 64
3, 129360, Note_on_c, 1, 69, 115
3, 129360, Note_on_c, 1, 65, 115
3, 129360, Note_on_c, 1, 60, 115
3, 130076, Note_off_c, 1, 69, 64
3, 130080, Note_on_c, 1, 67, 115
3, 130316, Note_off_c, 1, 65, 64
3, 130316, Note_off_c, 1, 60, 64
3, 130316, Note_off_c, 1, 67, 64
3, 130320, Note_on_c, 1, 69, 115
3, 130320, Note_on_c, 1, 60, 115
3, 130320, Note_on_c, 1, 65, 115
3, 131996, Note_off_c, 1, 65, 64
3, 131996, Note_off_c, 1, 60, 64
3, 131996, Note_off_c, 1, 69, 64
3, 132480, Note_on_c, 1, 65, 115
3, 132480, Note_on_c, 1, 62, 115
3, 132956, Note_off_c, 1, 65, 64
3, 132960, Note_on_c, 1, 65, 115
3, 133436, Note_off_c, 1, 62, 64
3, 133436, Note_off_c, 1, 65, 64
3, 133440, Note_on_c, 1, 70, 115
3, 133440, Note_on_c, 1, 65, 115
3, 133440, Note_on_c, 1, 62, 115
3, 133676, Note_off_c, 1, 70, 64
3, 133680, Note_on_c, 1, 72, 115
3, 134156, Note_off_c, 1, 65, 64
3, 134156, Note_off_c, 1, 62, 64
3, 134156, Note_off_c, 1, 72, 64
3, 134160, Note_on_c, 1, 74, 115
3, 134160, Note_on_c, 1, 70, 115
3, 134160, Note_on_c, 1, 65, 115
3, 135596, Note_off_c, 1, 74, 64
3, 135600, Note_on_c, 1, 74, 115
3, 135836, Note_off_c, 1, 74, 64
3, 135840, Note_on_c, 1, 74, 115
3, 136316, Note_off_c, 1, 70, 64
3, 136316, Note_off_c, 1, 65, 64
3, 136316, Note_off_c, 1, 74, 64
3, 136320, Note_on_c, 1, 72, 115
3, 136320, Note_on_c, 1, 68, 115
3, 137036, Note_off_c, 1, 68, 64
3, 137036, Note_off_c, 1, 72, 64
3, 137040, Note_on_c, 1, 72, 115
3, 137040, Note_on_c, 1, 68, 115
3, 137040, Note_on_c, 1, 63, 115
3, 137756, Note_off_c, 1, 72, 64
3, 137760, Note_on_c, 1, 70, 115
3, 137996, Note_off_c, 1, 68, 64
3, 137996, Note_off_c, 1, 63, 64
3, 137996, Note_off_c, 1, 70, 64
3, 138000, Note_on_c, 1, 72, 115
3, 138000, Note_on_c, 1, 68, 115
3, 138000, Note_on_c, 1, 63, 115
3, 139196, Note_off_c, 1, 63, 64
3, 139196, Note_off_c, 1, 68, 64
3, 139196, Note_off_c, 1, 72, 64
3, 139200, Note_on_c, 1, 56, 115
3, 139676, Note_off_c, 1, 56, 64
3, 139680, Note_on_c, 1, 61, 115
3, 139916, Note_off_c, 1, 61, 64
3, 139920, Note_on_c, 1, 65, 115
3, 139920, Note_on_c, 1, 61, 115
3, 139920, Note_on_c, 1, 56, 115
3, 140636, Note_off_c, 1, 65, 64
3, 140640, Note_on_c, 1, 65, 115
3, 140876, Note_off_c, 1, 61, 64
3, 140876, Note_off_c, 1, 56, 64
3, 140876, Note_off_c, 1, 65, 64
3, 140880, Note_on_c, 1, 65, 115
3, 140880, Note_on_c, 1, 61, 115
3, 140880, Note_on_c, 1, 56, 115
3, 141596, Note_off_c, 1, 65, 64
3, 141600, Note_on_c, 1, 65, 115
3, 141836, Note_off_c, 1, 61, 64
3, 141836, Note_off_c, 1, 56, 64
3, 141836, Note_off_c, 1, 65, 64
3, 141840, Note_on_c, 1, 65, 115
3, 141840, Note_on_c, 1, 61, 115
3, 141840, Note_on_c, 1, 56, 115
3, 142556, Note_off_c, 1, 65, 64
3, 142560, Note_on_c, 1, 65, 115
3, 142796, Note_off_c, 1, 65, 64
3, 142800, Note_on_c, 1, 66, 115
3, 143516, Note_off_c, 1, 66, 64
3, 143520, Note_on_c, 1, 65, 115
3, 143996, Note_off_c, 1, 61, 64
3, 143996, Note_off_c, 1, 56, 64
3, 143996, Note_off_c, 1, 65, 64
3, 144000, Note_on_c, 1, 65, 115
3, 144000, Note_on_c, 1, 61, 115
3, 144000, Note_on_c, 1, 58, 115
3, 144236, Note_off_c, 1, 65, 64
3, 144240, Note_on_c, 1, 66, 115
3, 144716, Note_off_c, 1, 61, 64
3, 144716, Note_off_c, 1, 58, 64
3, 144716, Note_off_c, 1, 66, 64
3, 144720, Note_on_c, 1, 61, 115
3, 144720, Note_on_c, 1, 58, 115
3, 146636, Note_off_c, 1, 61, 64
3, 146640, Note_on_c, 1, 63, 115
3, 146876, Note_off_c, 1, 58, 64
3, 146876, Note_off_c, 1, 63, 64
3, 146880, Note_on_c, 1, 63, 115
3, 146880, Note_on_c, 1, 59, 115
3, 146880, Note_on_c, 1, 65, 115
3, 147116, Note_off_c, 1, 65, 64
3, 147120, Note_on_c, 1, 66, 115
3, 147596, Note_off_c, 1, 59, 64
3, 147596, Note_off_c, 1, 63, 64
3, 147596, Note_off_c, 1, 66, 64
3, 147600, Note_on_c, 1, 68, 115
3, 148320, Note_on_c, 1, 65, 115
3, 148320, Note_on_c, 1, 61, 115
3, 148320, Note_on_c, 1, 56, 115
3, 148796, Note_off_c, 1, 56, 64
3, 148796, Note_off_c, 1, 61, 64
3, 148796, Note_off_c, 1, 65, 64
3, 149280, Note_on_c, 1, 65, 115
3, 149280, Note_on_c, 1, 61, 115
3, 149280, Note_on_c, 1, 56, 115
3, 149756, Note_off_c, 1, 56, 64
3, 149756, Note_off_c, 1, 61, 64
3, 149756, Note_off_c, 1, 65, 64
3, 150240, Note_on_c, 1, 66, 115
3, 150240, Note_on_c, 1, 63, 115
3, 150240, Note_on_c, 1, 58, 115
3, 150716, Note_off_c, 1, 58, 64
3, 150716, Note_off_c, 1, 63, 64
3, 150716, Note_off_c, 1, 68, 64
3, 150716, Note_off_c, 1, 66, 64
3, 150720, Note_on_c, 1, 68, 115
3, 150720, Note_on_c, 1, 66, 115
3, 150720, Note_on_c, 1, 63, 115
3, 150956, Note_off_c, 1, 68, 64
3, 150960, Note_on_c, 1, 68, 115
3, 151436, Note_off_c, 1, 66, 64
3, 151436, Note_off_c, 1, 63, 64
3, 151436, Note_off_c, 1, 68, 64
3, 151440, Note_on_c, 1, 73, 115
3, 152160, Note_on_c, 1, 68, 115
3, 152160, Note_on_c, 1, 65, 115
3, 152160, Note_on_c, 1, 61, 115
3, 152636, Note_off_c, 1, 61, 64
3, 152636, Note_off_c, 1, 65, 64
3, 152636, Note_off_c, 1, 68, 64
3, 153120, Note_on_c, 1, 68, 115
3, 153120, Note_on_c, 1, 65, 115
3, 153120, Note_on_c, 1, 61, 115
3, 153596, Note_off_c, 1, 61, 64
3, 153596, Note_off_c, 1, 65, 64
3, 153596, Note_off_c, 1, 68, 64
3, 154076, Note_off_c, 1, 73, 64
3, 154080, Note_on_c, 1, 74, 115
3, 154080, Note_on_c, 1, 68, 115
3, 154080, Note_on_c, 1, 64, 115
3, 154080, Note_on_c, 1, 62, 115
3, 155516, Note_off_c, 1, 62, 64
3, 155516, Note_off_c, 1, 64, 64
3, 155516, Note_off_c, 1, 68, 64
3, 155516, Note_off_c, 1, 74, 64
3, 155520, Note_on_c, 1, 64, 115
3, 156000, Note_on_c, 1, 61, 115
3, 156000, Note_on_c, 1, 57, 115
3, 156476, Note_off_c, 1, 57, 64
3, 156476, Note_off_c, 1, 61, 64
3, 156476, Note_off_c, 1, 64, 64
3, 156480, Note_on_c, 1, 69, 115
3, 156480, Note_on_c, 1, 64, 115
3, 156480, Note_on_c, 1, 61, 115
3, 156716, Note_off_c, 1, 69, 64
3, 156720, Note_on_c, 1, 69, 115
3, 156956, Note_off_c, 1, 69, 64
3, 156960, Note_on_c, 1, 71, 115
3, 157196, Note_off_c, 1, 64, 64
3, 157196, Note_off_c, 1, 61, 64
3, 157196, Note_off_c, 1, 71, 64
3, 157200, Note_on_c, 1, 76, 115
3, 157200, Note_on_c, 1, 69, 115
3, 157200, Note_on_c, 1, 64, 115
3, 157676, Note_off_c, 1, 76, 64
3, 157680, Note_on_c, 1, 72, 115
3, 157916, Note_off_c, 1, 69, 64
3, 157916, Note_off_c, 1, 64, 64
3, 157916, Note_off_c, 1, 72, 64
3, 157920, Note_on_c, 1, 73, 115
3, 157920, Note_on_c, 1, 69, 115
3, 157920, Note_on_c, 1, 64, 115
3, 158876, Note_off_c, 1, 64, 64
3, 158876, Note_off_c, 1, 69, 64
3, 158876, Note_off_c, 1, 73, 64
3, 158880, Note_on_c, 1, 73, 115
3, 158880, Note_on_c, 1, 69, 115
3, 158880, Note_on_c, 1, 64, 115
3, 159356, Note_off_c, 1, 64, 64
3, 159356, Note_off_c, 1, 69, 64
3, 159356, Note_off_c, 1, 73, 64
3, 159360, Note_on_c, 1, 73, 115
3, 159360, Note_on_c, 1, 69, 115
3, 159360, Note_on_c, 1, 66, 115
3, 159596, Note_off_c, 1, 73, 64
3, 159600, Note_on_c, 1, 74, 115
3, 160076, Note_off_c, 1, 69, 64
3, 160076, Note_off_c, 1, 66, 64
3, 160076, Note_off_c, 1, 74, 64
3, 160080, Note_on_c, 1, 71, 115
3, 160080, Note_on_c, 1, 66, 115
3, 160080, Note_on_c, 1, 62, 115
3, 160796, Note_off_c, 1, 62, 64
3, 160796, Note_off_c, 1, 66, 64
3, 160796, Note_off_c, 1, 71, 64
3, 160800, Note_on_c, 1, 69, 115
3, 160800, Note_on_c, 1, 66, 115
3, 160800, Note_on_c, 1, 62, 115
3, 161276, Note_off_c, 1, 62, 64
3, 161276, Note_off_c, 1, 66, 64
3, 161276, Note_off_c, 1, 69, 64
3, 161280, Note_on_c, 1, 71, 115
3, 161280, Note_on_c, 1, 67, 115
3, 161280, Note_on_c, 1, 62, 115
3, 161516, Note_off_c, 1, 71, 64
3, 161520, Note_on_c, 1, 73, 115
3, 161996, Note_off_c, 1, 67, 64
3, 161996, Note_off_c, 1, 62, 64
3, 161996, Note_off_c, 1, 73, 64
3, 162000, Note_on_c, 1, 69, 115
3, 162000, Note_on_c, 1, 62, 115
3, 162716, Note_off_c, 1, 62, 64
3, 162716, Note_off_c, 1, 69, 64
3, 162720, Note_on_c, 1, 64, 115
3, 162720, Note_on_c, 1, 62, 115
3, 163196, Note_off_c, 1, 62, 64
3, 163196, Note_off_c, 1, 64, 64
3, 163200, Note_on_c, 1, 76, 115
3, 163200, Note_on_c, 1, 73, 115
3, 163200, Note_on_c, 1, 69, 115
3, 163200, Note_on_c, 1, 64, 115
3, 164876, Note_off_c, 1, 64, 64
3, 164876, Note_off_c, 1, 69, 64
3, 164876, Note_off_c, 1, 73, 64
3, 164880, Note_on_c, 1, 71, 115
3, 164880, Note_on_c, 1, 67, 115
3, 165476, Note_off_c, 1, 67, 64
3, 165476, Note_off_c, 1, 71, 64
3, 165480, Note_on_c, 1, 71, 115
3, 165480, Note_on_c, 1, 67, 115
3, 165596, Note_off_c, 1, 67, 64
3, 165596, Note_off_c, 1, 71, 64
3, 165600, Note_on_c, 1, 72, 115
3, 165600, Note_on_c, 1, 69, 115
3, 167036, Note_off_c, 1, 69, 64
3, 167036, Note_off_c, 1, 76, 64
3, 167036, Note_off_c, 1, 72, 64
3, 167040, Note_on_c, 1, 64, 115
3, 167040, Note_on_c, 1, 69, 115
3, 167040, Note_on_c, 1, 73, 115
3, 167040, Note_on_c, 1, 76, 115
3, 168716, Note_off_c, 1, 73, 64
3, 168716, Note_off_c, 1, 69, 64
3, 168716, Note_off_c, 1, 64, 64
3, 168720, Note_on_c, 1, 71, 115
3, 168720, Note_on_c, 1, 67, 115
3, 169312, Note_off_c, 1, 71, 64
3, 169316, Note_off_c, 1, 67, 64
3, 169320, Note_on_c, 1, 71, 115
3, 169320, Note_on_c, 1, 67, 115
3, 169436, Note_off_c, 1, 67, 64
3, 169436, Note_off_c, 1, 71, 64
3, 169440, Note_on_c, 1, 72, 115
3, 169440, Note_on_c, 1, 69, 115
3, 170872, Note_off_c, 1, 76, 64
3, 170876, Note_off_c, 1, 72, 64
3, 170876, Note_off_c, 1, 69, 64
3, 170880, Note_on_c, 1, 76, 115
3, 170880, Note_on_c, 1, 73, 115
3, 170880, Note_on_c, 1, 69, 115
3, 170880, Note_on_c, 1, 64, 115
3, 172552, Note_off_c, 1, 64, 64
3, 172552, Note_off_c, 1, 69, 64
3, 172552, Note_off_c, 1, 73, 64
3, 172560, Note_on_c, 1, 71, 99
3, 172560, Note_on_c, 1, 67, 99
3, 173152, Note_off_c, 1, 67, 64
3, 173152, Note_off_c, 1, 71, 64
3, 173160, Note_on_c, 1, 71, 93
3, 173160, Note_on_c, 1, 67, 93
3, 173272, Note_off_c, 1, 67, 64
3, 173272, Note_off_c, 1, 71, 64
3, 173280, Note_on_c, 1, 72, 92
3, 173280, Note_on_c, 1, 69, 92
3, 174712, Note_off_c, 1, 69, 64
3, 174712, Note_off_c, 1, 76, 64
3, 174712, Note_off_c, 1, 72, 64
3, 174720, Note_on_c, 1, 64, 77
3, 174720, Note_on_c, 1, 69, 77
3, 174720, Note_on_c, 1, 73, 77
3, 174720, Note_on_c, 1, 76, 77
3, 176392, Note_off_c, 1, 73, 64
3, 176392, Note_off_c, 1, 69, 64
3, 176392, Note_off_c, 1, 64, 64
3, 176400, Note_on_c, 1, 71, 60
3, 176400, Note_on_c, 1, 67, 60
3, 176992, Note_off_c, 1, 67, 64
3, 176992, Note_off_c, 1, 71, 64
3, 177000, Note_on_c, 1, 71, 54
3, 177000, Note_on_c, 1, 67, 54
3, 177112, Note_off_c, 1, 67, 64
3, 177112, Note_off_c, 1, 71, 64
3, 177120, Note_on_c, 1, 72, 53
3, 177120, Note_on_c, 1, 69, 53
3, 178552, Note_off_c, 1, 69, 64
3, 178552, Note_off_c, 1, 76, 64
3, 178552, Note_off_c, 1, 72, 64
3, 178560, Note_on_c, 1, 64, 39
3, 178560, Note_on_c, 1, 69, 39
3, 178560, Note_on_c, 1, 73, 39
3, 178560, Note_on_c, 1, 76, 39
3, 180232, Note_off_c, 1, 73, 64
3, 180232, Note_off_c, 1, 69, 64
3, 180232, Note_off_c, 1, 64, 64
3, 180240, Note_on_c, 1, 71, 22
3, 180240, Note_on_c, 1, 67, 22
3, 180832, Note_off_c, 1, 67, 64
3, 180832, Note_off_c, 1, 71, 64
3, 180840, Note_on_c, 1, 71, 16
3, 180840, Note_on_c, 1, 67, 16
3, 180952, Note_off_c, 1, 67, 64
3, 180952, Note_off_c, 1, 71, 64
3, 180960, Note_on_c, 1, 72, 15
3, 180960, Note_on_c, 1, 69, 15
3, 182392, Note_off_c, 1, 69, 64
3, 182392, Note_off_c, 1, 76, 64
3, 182392, Note_off_c, 1, 72, 64
3, 182392, End_track
4, 0, Start_track
4, 0, Title_t, "Fretless Bass"
4, 0, MIDI_port, 0
4, 0, Channel_prefix, 2
4, 0, Control_c, 2, 7, 107
4, 0, Control_c, 2, 10, 42
4, 0, Control_c, 2, 91, 89
4, 0, Control_c, 2, 93, 69
4, 0, Program_c, 2, 35
4, 0, Control_c, 2, 121, 0
4, 40, Control_c, 2, 123, 0
4, 1920, Note_on_c, 2, 43, 115
4, 2396, Note_off_c, 2, 43, 64
4, 2880, Note_on_c, 2, 38, 115
4, 3356, Note_off_c, 2, 38, 64
4, 3840, Note_on_c, 2, 43, 115
4, 4316, Note_off_c, 2, 43, 64
4, 4320, Note_on_c, 2, 38, 115
4, 4796, Note_off_c, 2, 38, 64
4, 4800, Note_on_c, 2, 43, 115
4, 5276, Note_off_c, 2, 43, 64
4, 5760, Note_on_c, 2, 41, 115
4, 6236, Note_off_c, 2, 41, 64
4, 6720, Note_on_c, 2, 36, 115
4, 7196, Note_off_c, 2, 36, 64
4, 7680, Note_on_c, 2, 41, 115
4, 8156, Note_off_c, 2, 41, 64
4, 8160, Note_on_c, 2, 36, 115
4, 8636, Note_off_c, 2, 36, 64
4, 8640, Note_on_c, 2, 38, 115
4, 9116, Note_off_c, 2, 38, 64
4, 9120, Note_on_c, 2, 41, 115
4, 9596, Note_off_c, 2, 41, 64
4, 9600, Note_on_c, 2, 46, 115
4, 10076, Note_off_c, 2, 46, 64
4, 10560, Note_on_c, 2, 41, 115
4, 11036, Note_off_c, 2, 41, 64
4, 11520, Note_on_c, 2, 46, 115
4, 11996, Note_off_c, 2, 46, 64
4, 12000, Note_on_c, 2, 41, 115
4, 12476, Note_off_c, 2, 41, 64
4, 12480, Note_on_c, 2, 46, 115
4, 12956, Note_off_c, 2, 46, 64
4, 13440, Note_on_c, 2, 44, 115
4, 13916, Note_off_c, 2, 44, 64
4, 14400, Note_on_c, 2, 39, 115
4, 14876, Note_off_c, 2, 39, 64
4, 15360, Note_on_c, 2, 44, 115
4, 15836, Note_off_c, 2, 44, 64
4, 15840, Note_on_c, 2, 39, 115
4, 16316, Note_off_c, 2, 39, 64
4, 16320, Note_on_c, 2, 44, 115
4, 16796, Note_off_c, 2, 44, 64
4, 17280, Note_on_c, 2, 49, 115
4, 18236, Note_off_c, 2, 49, 64
4, 18240, Note_on_c, 2, 48, 115
4, 19196, Note_off_c, 2, 48, 64
4, 19200, Note_on_c, 2, 47, 115
4, 21116, Note_off_c, 2, 47, 64
4, 21120, Note_on_c, 2, 46, 115
4, 22556, Note_off_c, 2, 46, 64
4, 22560, Note_on_c, 2, 46, 115
4, 23036, Note_off_c, 2, 46, 64
4, 23040, Note_on_c, 2, 39, 115
4, 23516, Note_off_c, 2, 39, 64
4, 23520, Note_on_c, 2, 51, 115
4, 23996, Note_off_c, 2, 51, 64
4, 24000, Note_on_c, 2, 44, 115
4, 24476, Note_off_c, 2, 44, 64
4, 24960, Note_on_c, 2, 49, 115
4, 24960, Note_on_c, 2, 37, 115
4, 25436, Note_off_c, 2, 37, 64
4, 25436, Note_off_c, 2, 49, 64
4, 25920, Note_on_c, 2, 49, 115
4, 25920, Note_on_c, 2, 37, 115
4, 26396, Note_off_c, 2, 37, 64
4, 26396, Note_off_c, 2, 49, 64
4, 26880, Note_on_c, 2, 49, 115
4, 26880, Note_on_c, 2, 37, 115
4, 27356, Note_off_c, 2, 37, 64
4, 27356, Note_off_c, 2, 49, 64
4, 27840, Note_on_c, 2, 49, 115
4, 27840, Note_on_c, 2, 37, 115
4, 28316, Note_off_c, 2, 37, 64
4, 28316, Note_off_c, 2, 49, 64
4, 28800, Note_on_c, 2, 49, 115
4, 28800, Note_on_c, 2, 37, 115
4, 29276, Note_off_c, 2, 37, 64
4, 29276, Note_off_c, 2, 49, 64
4, 29760, Note_on_c, 2, 49, 115
4, 29760, Note_on_c, 2, 37, 115
4, 30236, Note_off_c, 2, 37, 64
4, 30236, Note_off_c, 2, 49, 64
4, 30720, Note_on_c, 2, 49, 115
4, 30720, Note_on_c, 2, 37, 115
4, 31196, Note_off_c, 2, 37, 64
4, 31196, Note_off_c, 2, 49, 64
4, 31680, Note_on_c, 2, 47, 115
4, 32156, Note_off_c, 2, 47, 64
4, 32160, Note_on_c, 2, 40, 115
4, 32636, Note_off_c, 2, 40, 64
4, 32640, Note_on_c, 2, 52, 115
4, 32640, Note_on_c, 2, 45, 115
4, 33596, Note_off_c, 2, 45, 64
4, 33596, Note_off_c, 2, 52, 64
4, 33600, Note_on_c, 2, 52, 115
4, 33600, Note_on_c, 2, 40, 115
4, 34076, Note_off_c, 2, 40, 64
4, 34076, Note_off_c, 2, 52, 64
4, 34560, Note_on_c, 2, 49, 115
4, 35036, Note_off_c, 2, 49, 64
4, 35040, Note_on_c, 2, 45, 115
4, 35516, Note_off_c, 2, 45, 64
4, 35520, Note_on_c, 2, 40, 115
4, 35996, Note_off_c, 2, 40, 64
4, 36000, Note_on_c, 2, 45, 115
4, 36476, Note_off_c, 2, 45, 64
4, 36480, Note_on_c, 2, 50, 115
4, 36480, Note_on_c, 2, 38, 115
4, 37196, Note_off_c, 2, 38, 64
4, 37196, Note_off_c, 2, 50, 64
4, 37200, Note_on_c, 2, 50, 115
4, 37200, Note_on_c, 2, 38, 115
4, 37916, Note_off_c, 2, 38, 64
4, 37916, Note_off_c, 2, 50, 64
4, 37920, Note_on_c, 2, 50, 115
4, 37920, Note_on_c, 2, 38, 115
4, 38396, Note_off_c, 2, 38, 64
4, 38396, Note_off_c, 2, 50, 64
4, 38400, Note_on_c, 2, 43, 115
4, 39116, Note_off_c, 2, 43, 64
4, 39120, Note_on_c, 2, 47, 115
4, 39836, Note_off_c, 2, 47, 64
4, 39840, Note_on_c, 2, 47, 115
4, 40316, Note_off_c, 2, 47, 64
4, 40320, Note_on_c, 2, 45, 115
4, 40796, Note_off_c, 2, 45, 64
4, 40800, Note_on_c, 2, 40, 115
4, 41276, Note_off_c, 2, 40, 64
4, 41280, Note_on_c, 2, 42, 115
4, 41756, Note_off_c, 2, 42, 64
4, 41760, Note_on_c, 2, 45, 115
4, 42236, Note_off_c, 2, 45, 64
4, 42240, Note_on_c, 2, 43, 115
4, 42716, Note_off_c, 2, 43, 64
4, 42720, Note_on_c, 2, 41, 115
4, 43196, Note_off_c, 2, 41, 64
4, 43200, Note_on_c, 2, 36, 115
4, 43676, Note_off_c, 2, 36, 64
4, 43680, Note_on_c, 2, 41, 115
4, 44156, Note_off_c, 2, 41, 64
4, 44160, Note_on_c, 2, 45, 115
4, 44636, Note_off_c, 2, 45, 64
4, 44640, Note_on_c, 2, 40, 115
4, 45116, Note_off_c, 2, 40, 64
4, 45120, Note_on_c, 2, 43, 115
4, 45596, Note_off_c, 2, 43, 64
4, 45600, Note_on_c, 2, 45, 115
4, 46076, Note_off_c, 2, 45, 64
4, 46080, Note_on_c, 2, 43, 115
4, 46556, Note_off_c, 2, 43, 64
4, 46560, Note_on_c, 2, 41, 115
4, 47036, Note_off_c, 2, 41, 64
4, 47040, Note_on_c, 2, 36, 115
4, 47516, Note_off_c, 2, 36, 64
4, 47520, Note_on_c, 2, 41, 115
4, 47996, Note_off_c, 2, 41, 64
4, 48000, Note_on_c, 2, 43, 115
4, 48476, Note_off_c, 2, 43, 64
4, 48960, Note_on_c, 2, 38, 115
4, 49436, Note_off_c, 2, 38, 64
4, 49920, Note_on_c, 2, 43, 115
4, 50396, Note_off_c, 2, 43, 64
4, 50400, Note_on_c, 2, 38, 115
4, 50876, Note_off_c, 2, 38, 64
4, 50880, Note_on_c, 2, 43, 115
4, 51356, Note_off_c, 2, 43, 64
4, 51840, Note_on_c, 2, 41, 115
4, 52316, Note_off_c, 2, 41, 64
4, 52800, Note_on_c, 2, 36, 115
4, 53276, Note_off_c, 2, 36, 64
4, 53760, Note_on_c, 2, 41, 115
4, 54236, Note_off_c, 2, 41, 64
4, 54240, Note_on_c, 2, 36, 115
4, 54716, Note_off_c, 2, 36, 64
4, 54720, Note_on_c, 2, 38, 115
4, 55196, Note_off_c, 2, 38, 64
4, 55200, Note_on_c, 2, 41, 115
4, 55676, Note_off_c, 2, 41, 64
4, 55680, Note_on_c, 2, 46, 115
4, 56156, Note_off_c, 2, 46, 64
4, 56640, Note_on_c, 2, 41, 115
4, 57116, Note_off_c, 2, 41, 64
4, 57600, Note_on_c, 2, 46, 115
4, 58076, Note_off_c, 2, 46, 64
4, 58080, Note_on_c, 2, 41, 115
4, 58556, Note_off_c, 2, 41, 64
4, 58560, Note_on_c, 2, 46, 115
4, 59036, Note_off_c, 2, 46, 64
4, 59520, Note_on_c, 2, 44, 115
4, 59996, Note_off_c, 2, 44, 64
4, 60480, Note_on_c, 2, 39, 115
4, 60956, Note_off_c, 2, 39, 64
4, 61440, Note_on_c, 2, 44, 115
4, 61916, Note_off_c, 2, 44, 64
4, 61920, Note_on_c, 2, 39, 115
4, 62396, Note_off_c, 2, 39, 64
4, 62400, Note_on_c, 2, 44, 115
4, 62876, Note_off_c, 2, 44, 64
4, 63360, Note_on_c, 2, 49, 115
4, 64316, Note_off_c, 2, 49, 64
4, 64320, Note_on_c, 2, 48, 115
4, 65276, Note_off_c, 2, 48, 64
4, 65280, Note_on_c, 2, 47, 115
4, 67196, Note_off_c, 2, 47, 64
4, 67200, Note_on_c, 2, 46, 115
4, 68636, Note_off_c, 2, 46, 64
4, 68640, Note_on_c, 2, 46, 115
4, 69116, Note_off_c, 2, 46, 64
4, 69120, Note_on_c, 2, 39, 115
4, 69596, Note_off_c, 2, 39, 64
4, 69600, Note_on_c, 2, 51, 115
4, 70076, Note_off_c, 2, 51, 64
4, 70080, Note_on_c, 2, 44, 115
4, 70556, Note_off_c, 2, 44, 64
4, 71040, Note_on_c, 2, 49, 115
4, 71040, Note_on_c, 2, 37, 115
4, 71516, Note_off_c, 2, 37, 64
4, 71516, Note_off_c, 2, 49, 64
4, 72000, Note_on_c, 2, 49, 115
4, 72000, Note_on_c, 2, 37, 115
4, 72476, Note_off_c, 2, 37, 64
4, 72476, Note_off_c, 2, 49, 64
4, 72960, Note_on_c, 2, 49, 115
4, 72960, Note_on_c, 2, 37, 115
4, 73436, Note_off_c, 2, 37, 64
4, 73436, Note_off_c, 2, 49, 64
4, 73920, Note_on_c, 2, 49, 115
4, 73920, Note_on_c, 2, 37, 115
4, 74396, Note_off_c, 2, 37, 64
4, 74396, Note_off_c, 2, 49, 64
4, 74880, Note_on_c, 2, 49, 115
4, 74880, Note_on_c, 2, 37, 115
4, 75356, Note_off_c, 2, 37, 64
4, 75356, Note_off_c, 2, 49, 64
4, 75840, Note_on_c, 2, 49, 115
4, 75840, Note_on_c, 2, 37, 115
4, 76316, Note_off_c, 2, 37, 64
4, 76316, Note_off_c, 2, 49, 64
4, 76800, Note_on_c, 2, 49, 115
4, 76800, Note_on_c, 2, 37, 115
4, 77276, Note_off_c, 2, 37, 64
4, 77276, Note_off_c, 2, 49, 64
4, 77760, Note_on_c, 2, 47, 115
4, 78236, Note_off_c, 2, 47, 64
4, 78240, Note_on_c, 2, 40, 115
4, 78716, Note_off_c, 2, 40, 64
4, 78720, Note_on_c, 2, 52, 115
4, 78720, Note_on_c, 2, 45, 115
4, 79676, Note_off_c, 2, 45, 64
4, 79676, Note_off_c, 2, 52, 64
4, 79680, Note_on_c, 2, 52, 115
4, 79680, Note_on_c, 2, 40, 115
4, 80156, Note_off_c, 2, 40, 64
4, 80156, Note_off_c, 2, 52, 64
4, 80640, Note_on_c, 2, 49, 115
4, 81116, Note_off_c, 2, 49, 64
4, 81120, Note_on_c, 2, 45, 115
4, 81596, Note_off_c, 2, 45, 64
4, 81600, Note_on_c, 2, 40, 115
4, 82076, Note_off_c, 2, 40, 64
4, 82080, Note_on_c, 2, 45, 115
4, 82556, Note_off_c, 2, 45, 64
4, 82560, Note_on_c, 2, 50, 115
4, 82560, Note_on_c, 2, 38, 115
4, 83276, Note_off_c, 2, 38, 64
4, 83276, Note_off_c, 2, 50, 64
4, 83280, Note_on_c, 2, 50, 115
4, 83280, Note_on_c, 2, 38, 115
4, 83996, Note_off_c, 2, 38, 64
4, 83996, Note_off_c, 2, 50, 64
4, 84000, Note_on_c, 2, 50, 115
4, 84000, Note_on_c, 2, 38, 115
4, 84476, Note_off_c, 2, 38, 64
4, 84476, Note_off_c, 2, 50, 64
4, 84480, Note_on_c, 2, 43, 115
4, 85196, Note_off_c, 2, 43, 64
4, 85200, Note_on_c, 2, 47, 115
4, 85916, Note_off_c, 2, 47, 64
4, 85920, Note_on_c, 2, 47, 115
4, 86396, Note_off_c, 2, 47, 64
4, 86400, Note_on_c, 2, 45, 115
4, 86876, Note_off_c, 2, 45, 64
4, 86880, Note_on_c, 2, 40, 115
4, 87356, Note_off_c, 2, 40, 64
4, 87360, Note_on_c, 2, 42, 115
4, 87836, Note_off_c, 2, 42, 64
4, 87840, Note_on_c, 2, 45, 115
4, 88316, Note_off_c, 2, 45, 64
4, 88320, Note_on_c, 2, 43, 115
4, 88796, Note_off_c, 2, 43, 64
4, 88800, Note_on_c, 2, 41, 115
4, 89276, Note_off_c, 2, 41, 64
4, 89280, Note_on_c, 2, 36, 115
4, 89756, Note_off_c, 2, 36, 64
4, 89760, Note_on_c, 2, 41, 115
4, 90236, Note_off_c, 2, 41, 64
4, 90240, Note_on_c, 2, 45, 115
4, 90716, Note_off_c, 2, 45, 64
4, 90720, Note_on_c, 2, 40, 115
4, 91196, Note_off_c, 2, 40, 64
4, 91200, Note_on_c, 2, 43, 115
4, 91676, Note_off_c, 2, 43, 64
4, 91680, Note_on_c, 2, 45, 115
4, 92156, Note_off_c, 2, 45, 64
4, 92160, Note_on_c, 2, 43, 115
4, 92636, Note_off_c, 2, 43, 64
4, 92640, Note_on_c, 2, 41, 115
4, 93116, Note_off_c, 2, 41, 64
4, 93120, Note_on_c, 2, 36, 115
4, 93596, Note_off_c, 2, 36, 64
4, 93600, Note_on_c, 2, 41, 115
4, 94076, Note_off_c, 2, 41, 64
4, 94080, Note_on_c, 2, 48, 115
4, 95996, Note_off_c, 2, 48, 64
4, 96000, Note_on_c, 2, 52, 115
4, 96000, Note_on_c, 2, 40, 115
4, 97916, Note_off_c, 2, 40, 64
4, 97916, Note_off_c, 2, 52, 64
4, 97920, Note_on_c, 2, 50, 115
4, 97920, Note_on_c, 2, 38, 115
4, 99836, Note_off_c, 2, 38, 64
4, 99836, Note_off_c, 2, 50, 64
4, 99840, Note_on_c, 2, 41, 115
4, 100796, Note_off_c, 2, 41, 64
4, 100800, Note_on_c, 2, 53, 115
4, 101756, Note_off_c, 2, 53, 64
4, 101760, Note_on_c, 2, 52, 115
4, 103676, Note_off_c, 2, 52, 64
4, 103680, Note_on_c, 2, 48, 115
4, 105596, Note_off_c, 2, 48, 64
4, 105600, Note_on_c, 2, 50, 115
4, 107516, Note_off_c, 2, 50, 64
4, 107520, Note_on_c, 2, 41, 115
4, 108476, Note_off_c, 2, 41, 64
4, 108480, Note_on_c, 2, 53, 115
4, 109436, Note_off_c, 2, 53, 64
4, 109440, Note_on_c, 2, 51, 115
4, 111356, Note_off_c, 2, 51, 64
4, 111360, Note_on_c, 2, 55, 115
4, 111360, Note_on_c, 2, 43, 115
4, 113276, Note_off_c, 2, 43, 64
4, 113276, Note_off_c, 2, 55, 64
4, 113280, Note_on_c, 2, 53, 115
4, 113280, Note_on_c, 2, 41, 115
4, 114236, Note_off_c, 2, 41, 64
4, 114236, Note_off_c, 2, 53, 64
4, 114240, Note_on_c, 2, 51, 115
4, 114240, Note_on_c, 2, 39, 115
4, 115196, Note_off_c, 2, 39, 64
4, 115196, Note_off_c, 2, 51, 64
4, 115200, Note_on_c, 2, 50, 115
4, 115200, Note_on_c, 2, 38, 115
4, 116156, Note_off_c, 2, 38, 64
4, 116156, Note_off_c, 2, 50, 64
4, 116160, Note_on_c, 2, 46, 115
4, 117116, Note_off_c, 2, 46, 64
4, 117120, Note_on_c, 2, 54, 115
4, 117120, Note_on_c, 2, 42, 115
4, 119036, Note_off_c, 2, 42, 64
4, 119036, Note_off_c, 2, 54, 64
4, 119040, Note_on_c, 2, 56, 115
4, 119040, Note_on_c, 2, 44, 115
4, 119516, Note_off_c, 2, 44, 64
4, 119516, Note_off_c, 2, 56, 64
4, 119520, Note_on_c, 2, 55, 115
4, 119520, Note_on_c, 2, 43, 115
4, 119996, Note_off_c, 2, 43, 64
4, 119996, Note_off_c, 2, 55, 64
4, 120000, Note_on_c, 2, 53, 115
4, 120000, Note_on_c, 2, 41, 115
4, 120476, Note_off_c, 2, 41, 64
4, 120476, Note_off_c, 2, 53, 64
4, 120480, Note_on_c, 2, 51, 115
4, 120480, Note_on_c, 2, 39, 115
4, 120956, Note_off_c, 2, 39, 64
4, 120956, Note_off_c, 2, 51, 64
4, 120960, Note_on_c, 2, 55, 115
4, 120960, Note_on_c, 2, 43, 115
4, 122876, Note_off_c, 2, 43, 64
4, 122876, Note_off_c, 2, 55, 64
4, 122880, Note_on_c, 2, 53, 115
4, 122880, Note_on_c, 2, 41, 115
4, 123356, Note_off_c, 2, 41, 64
4, 123356, Note_off_c, 2, 53, 64
4, 123360, Note_on_c, 2, 53, 115
4, 123360, Note_on_c, 2, 41, 115
4, 123836, Note_off_c, 2, 41, 64
4, 123836, Note_off_c, 2, 53, 64
4, 123840, Note_on_c, 2, 51, 115
4, 123840, Note_on_c, 2, 39, 115
4, 124796, Note_off_c, 2, 39, 64
4, 124796, Note_off_c, 2, 51, 64
4, 124800, Note_on_c, 2, 43, 115
4, 125276, Note_off_c, 2, 43, 64
4, 125760, Note_on_c, 2, 38, 115
4, 126236, Note_off_c, 2, 38, 64
4, 126720, Note_on_c, 2, 43, 115
4, 127196, Note_off_c, 2, 43, 64
4, 127200, Note_on_c, 2, 38, 115
4, 127676, Note_off_c, 2, 38, 64
4, 127680, Note_on_c, 2, 43, 115
4, 128156, Note_off_c, 2, 43, 64
4, 128640, Note_on_c, 2, 41, 115
4, 129116, Note_off_c, 2, 41, 64
4, 129600, Note_on_c, 2, 36, 115
4, 130076, Note_off_c, 2, 36, 64
4, 130560, Note_on_c, 2, 41, 115
4, 131036, Note_off_c, 2, 41, 64
4, 131040, Note_on_c, 2, 36, 115
4, 131516, Note_off_c, 2, 36, 64
4, 131520, Note_on_c, 2, 38, 115
4, 131996, Note_off_c, 2, 38, 64
4, 132000, Note_on_c, 2, 41, 115
4, 132476, Note_off_c, 2, 41, 64
4, 132480, Note_on_c, 2, 46, 115
4, 132956, Note_off_c, 2, 46, 64
4, 133440, Note_on_c, 2, 41, 115
4, 133916, Note_off_c, 2, 41, 64
4, 134400, Note_on_c, 2, 46, 115
4, 134876, Note_off_c, 2, 46, 64
4, 134880, Note_on_c, 2, 41, 115
4, 135356, Note_off_c, 2, 41, 64
4, 135360, Note_on_c, 2, 46, 115
4, 135836, Note_off_c, 2, 46, 64
4, 136320, Note_on_c, 2, 44, 115
4, 136796, Note_off_c, 2, 44, 64
4, 137280, Note_on_c, 2, 39, 115
4, 137756, Note_off_c, 2, 39, 64
4, 138240, Note_on_c, 2, 44, 115
4, 138716, Note_off_c, 2, 44, 64
4, 138720, Note_on_c, 2, 39, 115
4, 139196, Note_off_c, 2, 39, 64
4, 139200, Note_on_c, 2, 44, 115
4, 139676, Note_off_c, 2, 44, 64
4, 140160, Note_on_c, 2, 49, 115
4, 141116, Note_off_c, 2, 49, 64
4, 141120, Note_on_c, 2, 48, 115
4, 142076, Note_off_c, 2, 48, 64
4, 142080, Note_on_c, 2, 47, 115
4, 143996, Note_off_c, 2, 47, 64
4, 144000, Note_on_c, 2, 46, 115
4, 145436, Note_off_c, 2, 46, 64
4, 145440, Note_on_c, 2, 46, 115
4, 145916, Note_off_c, 2, 46, 64
4, 145920, Note_on_c, 2, 39, 115
4, 146396, Note_off_c, 2, 39, 64
4, 146400, Note_on_c, 2, 51, 115
4, 146876, Note_off_c, 2, 51, 64
4, 146880, Note_on_c, 2, 44, 115
4, 147356, Note_off_c, 2, 44, 64
4, 147840, Note_on_c, 2, 49, 115
4, 147840, Note_on_c, 2, 37, 115
4, 148316, Note_off_c, 2, 37, 64
4, 148316, Note_off_c, 2, 49, 64
4, 148800, Note_on_c, 2, 49, 115
4, 148800, Note_on_c, 2, 37, 115
4, 149276, Note_off_c, 2, 37, 64
4, 149276, Note_off_c, 2, 49, 64
4, 149760, Note_on_c, 2, 49, 115
4, 149760, Note_on_c, 2, 37, 115
4, 150236, Note_off_c, 2, 37, 64
4, 150236, Note_off_c, 2, 49, 64
4, 150720, Note_on_c, 2, 49, 115
4, 150720, Note_on_c, 2, 37, 115
4, 151196, Note_off_c, 2, 37, 64
4, 151196, Note_off_c, 2, 49, 64
4, 151680, Note_on_c, 2, 49, 115
4, 151680, Note_on_c, 2, 37, 115
4, 152156, Note_off_c, 2, 37, 64
4, 152156, Note_off_c, 2, 49, 64
4, 152640, Note_on_c, 2, 49, 115
4, 152640, Note_on_c, 2, 37, 115
4, 153116, Note_off_c, 2, 37, 64
4, 153116, Note_off_c, 2, 49, 64
4, 153600, Note_on_c, 2, 49, 115
4, 153600, Note_on_c, 2, 37, 115
4, 154076, Note_off_c, 2, 37, 64
4, 154076, Note_off_c, 2, 49, 64
4, 154560, Note_on_c, 2, 47, 115
4, 155036, Note_off_c, 2, 47, 64
4, 155040, Note_on_c, 2, 40, 115
4, 155516, Note_off_c, 2, 40, 64
4, 155520, Note_on_c, 2, 52, 115
4, 155520, Note_on_c, 2, 45, 115
4, 156476, Note_off_c, 2, 45, 64
4, 156476, Note_off_c, 2, 52, 64
4, 156480, Note_on_c, 2, 52, 115
4, 156480, Note_on_c, 2, 40, 115
4, 156956, Note_off_c, 2, 40, 64
4, 156956, Note_off_c, 2, 52, 64
4, 157440, Note_on_c, 2, 49, 115
4, 157916, Note_off_c, 2, 49, 64
4, 157920, Note_on_c, 2, 45, 115
4, 158396, Note_off_c, 2, 45, 64
4, 158400, Note_on_c, 2, 40, 115
4, 158876, Note_off_c, 2, 40, 64
4, 158880, Note_on_c, 2, 45, 115
4, 159356, Note_off_c, 2, 45, 64
4, 159360, Note_on_c, 2, 50, 115
4, 159360, Note_on_c, 2, 38, 115
4, 160076, Note_off_c, 2, 38, 64
4, 160076, Note_off_c, 2, 50, 64
4, 160080, Note_on_c, 2, 50, 115
4, 160080, Note_on_c, 2, 38, 115
4, 160796, Note_off_c, 2, 38, 64
4, 160796, Note_off_c, 2, 50, 64
4, 160800, Note_on_c, 2, 50, 115
4, 160800, Note_on_c, 2, 38, 115
4, 161276, Note_off_c, 2, 38, 64
4, 161276, Note_off_c, 2, 50, 64
4, 161280, Note_on_c, 2, 43, 115
4, 161996, Note_off_c, 2, 43, 64
4, 162000, Note_on_c, 2, 47, 115
4, 162716, Note_off_c, 2, 47, 64
4, 162720, Note_on_c, 2, 47, 115
4, 163196, Note_off_c, 2, 47, 64
4, 163200, Note_on_c, 2, 45, 115
4, 163676, Note_off_c, 2, 45, 64
4, 163680, Note_on_c, 2, 40, 115
4, 164156, Note_off_c, 2, 40, 64
4, 164160, Note_on_c, 2, 42, 115
4, 164636, Note_off_c, 2, 42, 64
4, 164640, Note_on_c, 2, 45, 115
4, 165116, Note_off_c, 2, 45, 64
4, 165120, Note_on_c, 2, 43, 115
4, 165596, Note_off_c, 2, 43, 64
4, 165600, Note_on_c, 2, 41, 115
4, 166076, Note_off_c, 2, 41, 64
4, 166080, Note_on_c, 2, 36, 115
4, 166556, Note_off_c, 2, 36, 64
4, 166560, Note_on_c, 2, 41, 115
4, 167036, Note_off_c, 2, 41, 64
4, 167040, Note_on_c, 2, 45, 115
4, 167516, Note_off_c, 2, 45, 64
4, 167520, Note_on_c, 2, 40, 115
4, 167996, Note_off_c, 2, 40, 64
4, 168000, Note_on_c, 2, 42, 115
4, 168476, Note_off_c, 2, 42, 64
4, 168480, Note_on_c, 2, 45, 115
4, 168956, Note_off_c, 2, 45, 64
4, 168960, Note_on_c, 2, 43, 115
4, 169436, Note_off_c, 2, 43, 64
4, 169440, Note_on_c, 2, 41, 115
4, 169916, Note_off_c, 2, 41, 64
4, 169920, Note_on_c, 2, 36, 115
4, 170396, Note_off_c, 2, 36, 64
4, 170400, Note_on_c, 2, 41, 115
4, 170876, Note_off_c, 2, 41, 64
4, 170880, Note_on_c, 2, 45, 115
4, 171352, Note_off_c, 2, 45, 64
4, 171360, Note_on_c, 2, 40, 111
4, 171832, Note_off_c, 2, 40, 64
4, 171840, Note_on_c, 2, 42, 106
4, 172312, Note_off_c, 2, 42, 64
4, 172320, Note_on_c, 2, 45, 101
4, 172792, Note_off_c, 2, 45, 64
4, 172800, Note_on_c, 2, 43, 96
4, 173272, Note_off_c, 2, 43, 64
4, 173280, Note_on_c, 2, 41, 92
4, 173752, Note_off_c, 2, 41, 64
4, 173760, Note_on_c, 2, 36, 87
4, 174232, Note_off_c, 2, 36, 64
4, 174240, Note_on_c, 2, 41, 82
4, 174712, Note_off_c, 2, 41, 64
4, 174720, Note_on_c, 2, 45, 77
4, 175192, Note_off_c, 2, 45, 64
4, 175200, Note_on_c, 2, 40, 72
4, 175672, Note_off_c, 2, 40, 64
4, 175680, Note_on_c, 2, 42, 68
4, 176152, Note_off_c, 2, 42, 64
4, 176160, Note_on_c, 2, 45, 63
4, 176632, Note_off_c, 2, 45, 64
4, 176640, Note_on_c, 2, 43, 58
4, 177112, Note_off_c, 2, 43, 64
4, 177120, Note_on_c, 2, 41, 53
4, 177592, Note_off_c, 2, 41, 64
4, 177600, Note_on_c, 2, 36, 48
4, 178072, Note_off_c, 2, 36, 64
4, 178080, Note_on_c, 2, 41, 44
4, 178552, Note_off_c, 2, 41, 64
4, 178560, Note_on_c, 2, 45, 39
4, 179032, Note_off_c, 2, 45, 64
4, 179040, Note_on_c, 2, 40, 34
4, 179512, Note_off_c, 2, 40, 64
4, 179520, Note_on_c, 2, 42, 29
4, 179992, Note_off_c, 2, 42, 64
4, 180000, Note_on_c, 2, 45, 24
4, 180472, Note_off_c, 2, 45, 64
4, 180480, Note_on_c, 2, 43, 20
4, 180952, Note_off_c, 2, 43, 64
4, 180960, Note_on_c, 2, 41, 15
4, 181432, Note_off_c, 2, 41, 64
4, 181440, Note_on_c, 2, 36, 10
4, 181912, Note_off_c, 2, 36, 64
4, 181920, Note_on_c, 2, 41, 5
4, 182392, Note_off_c, 2, 41, 64
4, 182392, End_track
5, 0, Start_track
5, 0, Title_t, "French Horn (Duet)"
5, 0, MIDI_port, 0
5, 0, Channel_prefix, 3
5, 0, Control_c, 3, 7, 127
5, 0, Control_c, 3, 10, 52
5, 0, Control_c, 3, 91, 89
5, 0, Control_c, 3, 93, 69
5, 0, Program_c, 3, 60
5, 0, Control_c, 3, 121, 0
5, 40, Control_c, 3, 123, 0
5, 1920, Note_on_c, 3, 62, 115
5, 2396, Note_off_c, 3, 62, 64
5, 2400, Note_on_c, 3, 62, 115
5, 2636, Note_off_c, 3, 62, 64
5, 2640, Note_on_c, 3, 67, 115
5, 3356, Note_off_c, 3, 67, 64
5, 3360, Note_on_c, 3, 69, 115
5, 3596, Note_off_c, 3, 69, 64
5, 3600, Note_on_c, 3, 71, 115
5, 4796, Note_off_c, 3, 71, 64
5, 5040, Note_on_c, 3, 71, 115
5, 5276, Note_off_c, 3, 71, 64
5, 5280, Note_on_c, 3, 71, 115
5, 5756, Note_off_c, 3, 71, 64
5, 5760, Note_on_c, 3, 71, 115
5, 5996, Note_off_c, 3, 71, 64
5, 6000, Note_on_c, 3, 72, 115
5, 6476, Note_off_c, 3, 72, 64
5, 6480, Note_on_c, 3, 69, 115
5, 7196, Note_off_c, 3, 69, 64
5, 7200, Note_on_c, 3, 67, 115
5, 7436, Note_off_c, 3, 67, 64
5, 7440, Note_on_c, 3, 69, 115
5, 9116, Note_off_c, 3, 69, 64
5, 9600, Note_on_c, 3, 65, 115
5, 10076, Note_off_c, 3, 65, 64
5, 10080, Note_on_c, 3, 65, 115
5, 10556, Note_off_c, 3, 65, 64
5, 10560, Note_on_c, 3, 70, 115
5, 10796, Note_off_c, 3, 70, 64
5, 10800, Note_on_c, 3, 72, 115
5, 11276, Note_off_c, 3, 72, 64
5, 11280, Note_on_c, 3, 74, 115
5, 12476, Note_off_c, 3, 74, 64
5, 12720, Note_on_c, 3, 74, 115
5, 12956, Note_off_c, 3, 74, 64
5, 12960, Note_on_c, 3, 74, 115
5, 13436, Note_off_c, 3, 74, 64
5, 13440, Note_on_c, 3, 74, 115
5, 13676, Note_off_c, 3, 74, 64
5, 13680, Note_on_c, 3, 75, 115
5, 14156, Note_off_c, 3, 75, 64
5, 14160, Note_on_c, 3, 72, 115
5, 14876, Note_off_c, 3, 72, 64
5, 14880, Note_on_c, 3, 70, 115
5, 15116, Note_off_c, 3, 70, 64
5, 15120, Note_on_c, 3, 72, 115
5, 15836, Note_off_c, 3, 72, 64
5, 16320, Note_on_c, 3, 56, 115
5, 16796, Note_off_c, 3, 56, 64
5, 16800, Note_on_c, 3, 61, 115
5, 17036, Note_off_c, 3, 61, 64
5, 17040, Note_on_c, 3, 65, 115
5, 17756, Note_off_c, 3, 65, 64
5, 17760, Note_on_c, 3, 65, 115
5, 17996, Note_off_c, 3, 65, 64
5, 18000, Note_on_c, 3, 65, 115
5, 18716, Note_off_c, 3, 65, 64
5, 18720, Note_on_c, 3, 65, 115
5, 18956, Note_off_c, 3, 65, 64
5, 18960, Note_on_c, 3, 65, 115
5, 19676, Note_off_c, 3, 65, 64
5, 19680, Note_on_c, 3, 65, 115
5, 19916, Note_off_c, 3, 65, 64
5, 19920, Note_on_c, 3, 66, 115
5, 20636, Note_off_c, 3, 66, 64
5, 20640, Note_on_c, 3, 65, 115
5, 21116, Note_off_c, 3, 65, 64
5, 21120, Note_on_c, 3, 65, 115
5, 21356, Note_off_c, 3, 65, 64
5, 21360, Note_on_c, 3, 66, 115
5, 21836, Note_off_c, 3, 66, 64
5, 21840, Note_on_c, 3, 61, 115
5, 22556, Note_off_c, 3, 61, 64
5, 23760, Note_on_c, 3, 63, 115
5, 23996, Note_off_c, 3, 63, 64
5, 24000, Note_on_c, 3, 65, 115
5, 24236, Note_off_c, 3, 65, 64
5, 24240, Note_on_c, 3, 66, 115
5, 24716, Note_off_c, 3, 66, 64
5, 24720, Note_on_c, 3, 68, 115
5, 27836, Note_off_c, 3, 68, 64
5, 27840, Note_on_c, 3, 68, 115
5, 28076, Note_off_c, 3, 68, 64
5, 28080, Note_on_c, 3, 68, 115
5, 28556, Note_off_c, 3, 68, 64
5, 28560, Note_on_c, 3, 73, 115
5, 31196, Note_off_c, 3, 73, 64
5, 31200, Note_on_c, 3, 74, 115
5, 31200, Note_on_c, 3, 69, 115
5, 32636, Note_off_c, 3, 69, 64
5, 32636, Note_off_c, 3, 74, 64
5, 32640, Note_on_c, 3, 64, 115
5, 33116, Note_off_c, 3, 64, 64
5, 33600, Note_on_c, 3, 69, 115
5, 33836, Note_off_c, 3, 69, 64
5, 33840, Note_on_c, 3, 69, 115
5, 34076, Note_off_c, 3, 69, 64
5, 34080, Note_on_c, 3, 71, 115
5, 34316, Note_off_c, 3, 71, 64
5, 34320, Note_on_c, 3, 76, 115
5, 34796, Note_off_c, 3, 76, 64
5, 34800, Note_on_c, 3, 72, 115
5, 35036, Note_off_c, 3, 72, 64
5, 35040, Note_on_c, 3, 73, 115
5, 35996, Note_off_c, 3, 73, 64
5, 36000, Note_on_c, 3, 73, 115
5, 36000, Note_on_c, 3, 73, 115
5, 36476, Note_off_c, 3, 73, 64
5, 36476, Note_off_c, 3, 73, 64
5, 36480, Note_on_c, 3, 73, 115
5, 36716, Note_off_c, 3, 73, 64
5, 36720, Note_on_c, 3, 74, 115
5, 37196, Note_off_c, 3, 74, 64
5, 37200, Note_on_c, 3, 71, 115
5, 37916, Note_off_c, 3, 71, 64
5, 37920, Note_on_c, 3, 69, 115
5, 38396, Note_off_c, 3, 69, 64
5, 38400, Note_on_c, 3, 71, 115
5, 38636, Note_off_c, 3, 71, 64
5, 38640, Note_on_c, 3, 73, 115
5, 39116, Note_off_c, 3, 73, 64
5, 39120, Note_on_c, 3, 69, 115
5, 39836, Note_off_c, 3, 69, 64
5, 39840, Note_on_c, 3, 64, 115
5, 40316, Note_off_c, 3, 64, 64
5, 40320, Note_on_c, 3, 76, 115
5, 47516, Note_off_c, 3, 76, 64
5, 47760, Note_on_c, 3, 62, 115
5, 47996, Note_off_c, 3, 62, 64
5, 48000, Note_on_c, 3, 62, 115
5, 48476, Note_off_c, 3, 62, 64
5, 48480, Note_on_c, 3, 62, 115
5, 48716, Note_off_c, 3, 62, 64
5, 48720, Note_on_c, 3, 67, 115
5, 49436, Note_off_c, 3, 67, 64
5, 49440, Note_on_c, 3, 69, 115
5, 49676, Note_off_c, 3, 69, 64
5, 49680, Note_on_c, 3, 71, 115
5, 50876, Note_off_c, 3, 71, 64
5, 51120, Note_on_c, 3, 71, 115
5, 51356, Note_off_c, 3, 71, 64
5, 51360, Note_on_c, 3, 71, 115
5, 51836, Note_off_c, 3, 71, 64
5, 51840, Note_on_c, 3, 71, 115
5, 52076, Note_off_c, 3, 71, 64
5, 52080, Note_on_c, 3, 72, 115
5, 52556, Note_off_c, 3, 72, 64
5, 52560, Note_on_c, 3, 69, 115
5, 53276, Note_off_c, 3, 69, 64
5, 53280, Note_on_c, 3, 67, 115
5, 53516, Note_off_c, 3, 67, 64
5, 53520, Note_on_c, 3, 69, 115
5, 55196, Note_off_c, 3, 69, 64
5, 55680, Note_on_c, 3, 65, 115
5, 56156, Note_off_c, 3, 65, 64
5, 56160, Note_on_c, 3, 65, 115
5, 56636, Note_off_c, 3, 65, 64
5, 56640, Note_on_c, 3, 70, 115
5, 56876, Note_off_c, 3, 70, 64
5, 56880, Note_on_c, 3, 72, 115
5, 57356, Note_off_c, 3, 72, 64
5, 57360, Note_on_c, 3, 74, 115
5, 58556, Note_off_c, 3, 74, 64
5, 58800, Note_on_c, 3, 74, 115
5, 59036, Note_off_c, 3, 74, 64
5, 59040, Note_on_c, 3, 74, 115
5, 59516, Note_off_c, 3, 74, 64
5, 59520, Note_on_c, 3, 74, 115
5, 59756, Note_off_c, 3, 74, 64
5, 59760, Note_on_c, 3, 75, 115
5, 60236, Note_off_c, 3, 75, 64
5, 60240, Note_on_c, 3, 72, 115
5, 60956, Note_off_c, 3, 72, 64
5, 60960, Note_on_c, 3, 70, 115
5, 61196, Note_off_c, 3, 70, 64
5, 61200, Note_on_c, 3, 72, 115
5, 61916, Note_off_c, 3, 72, 64
5, 62400, Note_on_c, 3, 56, 115
5, 62876, Note_off_c, 3, 56, 64
5, 62880, Note_on_c, 3, 61, 115
5, 63116, Note_off_c, 3, 61, 64
5, 63120, Note_on_c, 3, 65, 115
5, 63836, Note_off_c, 3, 65, 64
5, 63840, Note_on_c, 3, 65, 115
5, 64076, Note_off_c, 3, 65, 64
5, 64080, Note_on_c, 3, 65, 115
5, 64796, Note_off_c, 3, 65, 64
5, 64800, Note_on_c, 3, 65, 115
5, 65036, Note_off_c, 3, 65, 64
5, 65040, Note_on_c, 3, 65, 115
5, 65756, Note_off_c, 3, 65, 64
5, 65760, Note_on_c, 3, 65, 115
5, 65996, Note_off_c, 3, 65, 64
5, 66000, Note_on_c, 3, 66, 115
5, 66716, Note_off_c, 3, 66, 64
5, 66720, Note_on_c, 3, 65, 115
5, 67196, Note_off_c, 3, 65, 64
5, 67200, Note_on_c, 3, 65, 115
5, 67436, Note_off_c, 3, 65, 64
5, 67440, Note_on_c, 3, 66, 115
5, 67916, Note_off_c, 3, 66, 64
5, 67920, Note_on_c, 3, 61, 115
5, 68636, Note_off_c, 3, 61, 64
5, 69840, Note_on_c, 3, 63, 115
5, 70076, Note_off_c, 3, 63, 64
5, 70080, Note_on_c, 3, 65, 115
5, 70316, Note_off_c, 3, 65, 64
5, 70320, Note_on_c, 3, 66, 115
5, 70796, Note_off_c, 3, 66, 64
5, 70800, Note_on_c, 3, 68, 115
5, 73916, Note_off_c, 3, 68, 64
5, 73920, Note_on_c, 3, 68, 115
5, 74156, Note_off_c, 3, 68, 64
5, 74160, Note_on_c, 3, 68, 115
5, 74636, Note_off_c, 3, 68, 64
5, 74640, Note_on_c, 3, 73, 115
5, 77276, Note_off_c, 3, 73, 64
5, 77280, Note_on_c, 3, 74, 115
5, 77280, Note_on_c, 3, 69, 115
5, 78716, Note_off_c, 3, 69, 64
5, 78716, Note_off_c, 3, 74, 64
5, 78720, Note_on_c, 3, 64, 115
5, 79196, Note_off_c, 3, 64, 64
5, 79680, Note_on_c, 3, 69, 115
5, 79916, Note_off_c, 3, 69, 64
5, 79920, Note_on_c, 3, 69, 115
5, 80156, Note_off_c, 3, 69, 64
5, 80160, Note_on_c, 3, 71, 115
5, 80396, Note_off_c, 3, 71, 64
5, 80400, Note_on_c, 3, 76, 115
5, 80876, Note_off_c, 3, 76, 64
5, 80880, Note_on_c, 3, 72, 115
5, 81116, Note_off_c, 3, 72, 64
5, 81120, Note_on_c, 3, 73, 115
5, 82076, Note_off_c, 3, 73, 64
5, 82080, Note_on_c, 3, 73, 115
5, 82080, Note_on_c, 3, 73, 115
5, 82556, Note_off_c, 3, 73, 64
5, 82556, Note_off_c, 3, 73, 64
5, 82560, Note_on_c, 3, 73, 115
5, 82796, Note_off_c, 3, 73, 64
5, 82800, Note_on_c, 3, 74, 115
5, 83276, Note_off_c, 3, 74, 64
5, 83280, Note_on_c, 3, 71, 115
5, 83996, Note_off_c, 3, 71, 64
5, 84000, Note_on_c, 3, 69, 115
5, 84476, Note_off_c, 3, 69, 64
5, 84480, Note_on_c, 3, 71, 115
5, 84716, Note_off_c, 3, 71, 64
5, 84720, Note_on_c, 3, 73, 115
5, 85196, Note_off_c, 3, 73, 64
5, 85200, Note_on_c, 3, 69, 115
5, 85916, Note_off_c, 3, 69, 64
5, 85920, Note_on_c, 3, 64, 115
5, 86396, Note_off_c, 3, 64, 64
5, 86400, Note_on_c, 3, 76, 115
5, 94080, Note_off_c, 3, 76, 64
5, 94560, Note_on_c, 3, 67, 115
5, 95036, Note_off_c, 3, 67, 64
5, 95040, Note_on_c, 3, 72, 115
5, 95516, Note_off_c, 3, 72, 64
5, 95520, Note_on_c, 3, 74, 115
5, 95996, Note_off_c, 3, 74, 64
5, 96000, Note_on_c, 3, 76, 115
5, 96476, Note_off_c, 3, 76, 64
5, 96480, Note_on_c, 3, 77, 115
5, 96716, Note_off_c, 3, 77, 64
5, 96720, Note_on_c, 3, 76, 115
5, 96956, Note_off_c, 3, 76, 64
5, 96960, Note_on_c, 3, 74, 115
5, 97436, Note_off_c, 3, 74, 64
5, 97440, Note_on_c, 3, 72, 115
5, 97916, Note_off_c, 3, 72, 64
5, 97920, Note_on_c, 3, 74, 115
5, 98636, Note_off_c, 3, 74, 64
5, 98640, Note_on_c, 3, 67, 115
5, 98876, Note_off_c, 3, 67, 64
5, 98880, Note_on_c, 3, 67, 115
5, 101756, Note_off_c, 3, 67, 64
5, 102240, Note_on_c, 3, 67, 115
5, 102716, Note_off_c, 3, 67, 64
5, 102720, Note_on_c, 3, 72, 115
5, 103196, Note_off_c, 3, 72, 64
5, 103200, Note_on_c, 3, 74, 115
5, 103436, Note_off_c, 3, 74, 64
5, 103440, Note_on_c, 3, 76, 115
5, 104156, Note_off_c, 3, 76, 64
5, 104160, Note_on_c, 3, 77, 115
5, 104396, Note_off_c, 3, 77, 64
5, 104400, Note_on_c, 3, 76, 115
5, 104636, Note_off_c, 3, 76, 64
5, 104640, Note_on_c, 3, 74, 115
5, 105116, Note_off_c, 3, 74, 64
5, 105120, Note_on_c, 3, 72, 115
5, 105596, Note_off_c, 3, 72, 64
5, 105600, Note_on_c, 3, 79, 115
5, 106316, Note_off_c, 3, 79, 64
5, 106320, Note_on_c, 3, 74, 115
5, 106556, Note_off_c, 3, 74, 64
5, 106560, Note_on_c, 3, 74, 115
5, 109436, Note_off_c, 3, 74, 64
5, 109920, Note_on_c, 3, 58, 115
5, 110396, Note_off_c, 3, 58, 64
5, 110400, Note_on_c, 3, 63, 115
5, 110876, Note_off_c, 3, 63, 64
5, 110880, Note_on_c, 3, 65, 115
5, 111356, Note_off_c, 3, 65, 64
5, 111360, Note_on_c, 3, 67, 115
5, 111836, Note_off_c, 3, 67, 64
5, 111840, Note_on_c, 3, 68, 115
5, 112316, Note_off_c, 3, 68, 64
5, 112320, Note_on_c, 3, 67, 115
5, 112556, Note_off_c, 3, 67, 64
5, 112560, Note_on_c, 3, 65, 115
5, 112796, Note_off_c, 3, 65, 64
5, 112800, Note_on_c, 3, 63, 115
5, 113276, Note_off_c, 3, 63, 64
5, 113280, Note_on_c, 3, 70, 115
5, 113996, Note_off_c, 3, 70, 64
5, 114000, Note_on_c, 3, 65, 115
5, 114236, Note_off_c, 3, 65, 64
5, 114240, Note_on_c, 3, 65, 115
5, 116636, Note_off_c, 3, 65, 64
5, 116880, Note_on_c, 3, 68, 115
5, 117116, Note_off_c, 3, 68, 64
5, 117120, Note_on_c, 3, 73, 115
5, 117596, Note_off_c, 3, 73, 64
5, 117600, Note_on_c, 3, 73, 115
5, 117836, Note_off_c, 3, 73, 64
5, 117840, Note_on_c, 3, 73, 115
5, 118556, Note_off_c, 3, 73, 64
5, 118560, Note_on_c, 3, 73, 115
5, 118796, Note_off_c, 3, 73, 64
5, 118800, Note_on_c, 3, 75, 115
5, 119276, Note_off_c, 3, 75, 64
5, 119280, Note_on_c, 3, 77, 115
5, 119996, Note_off_c, 3, 77, 64
5, 120960, Note_on_c, 3, 67, 115
5, 121436, Note_off_c, 3, 67, 64
5, 121440, Note_on_c, 3, 67, 115
5, 121676, Note_off_c, 3, 67, 64
5, 121680, Note_on_c, 3, 67, 115
5, 122396, Note_off_c, 3, 67, 64
5, 122400, Note_on_c, 3, 67, 115
5, 122636, Note_off_c, 3, 67, 64
5, 122640, Note_on_c, 3, 69, 115
5, 123116, Note_off_c, 3, 69, 64
5, 123120, Note_on_c, 3, 71, 115
5, 123836, Note_off_c, 3, 71, 64
5, 124800, Note_on_c, 3, 62, 115
5, 125276, Note_off_c, 3, 62, 64
5, 125280, Note_on_c, 3, 62, 115
5, 125516, Note_off_c, 3, 62, 64
5, 125520, Note_on_c, 3, 67, 115
5, 126236, Note_off_c, 3, 67, 64
5, 126240, Note_on_c, 3, 69, 115
5, 126476, Note_off_c, 3, 69, 64
5, 126480, Note_on_c, 3, 71, 115
5, 127676, Note_off_c, 3, 71, 64
5, 127920, Note_on_c, 3, 71, 115
5, 128156, Note_off_c, 3, 71, 64
5, 128160, Note_on_c, 3, 71, 115
5, 128636, Note_off_c, 3, 71, 64
5, 128640, Note_on_c, 3, 71, 115
5, 128876, Note_off_c, 3, 71, 64
5, 128880, Note_on_c, 3, 72, 115
5, 129356, Note_off_c, 3, 72, 64
5, 129360, Note_on_c, 3, 69, 115
5, 130076, Note_off_c, 3, 69, 64
5, 130080, Note_on_c, 3, 67, 115
5, 130316, Note_off_c, 3, 67, 64
5, 130320, Note_on_c, 3, 69, 115
5, 131996, Note_off_c, 3, 69, 64
5, 132480, Note_on_c, 3, 65, 115
5, 132956, Note_off_c, 3, 65, 64
5, 132960, Note_on_c, 3, 65, 115
5, 133436, Note_off_c, 3, 65, 64
5, 133440, Note_on_c, 3, 70, 115
5, 133676, Note_off_c, 3, 70, 64
5, 133680, Note_on_c, 3, 72, 115
5, 134156, Note_off_c, 3, 72, 64
5, 134160, Note_on_c, 3, 74, 115
5, 135356, Note_off_c, 3, 74, 64
5, 135600, Note_on_c, 3, 74, 115
5, 135836, Note_off_c, 3, 74, 64
5, 135840, Note_on_c, 3, 74, 115
5, 136316, Note_off_c, 3, 74, 64
5, 136320, Note_on_c, 3, 74, 115
5, 136556, Note_off_c, 3, 74, 64
5, 136560, Note_on_c, 3, 75, 115
5, 137036, Note_off_c, 3, 75, 64
5, 137040, Note_on_c, 3, 72, 115
5, 137756, Note_off_c, 3, 72, 64
5, 137760, Note_on_c, 3, 70, 115
5, 137996, Note_off_c, 3, 70, 64
5, 138000, Note_on_c, 3, 72, 115
5, 138716, Note_off_c, 3, 72, 64
5, 139200, Note_on_c, 3, 56, 115
5, 139676, Note_off_c, 3, 56, 64
5, 139680, Note_on_c, 3, 61, 115
5, 139916, Note_off_c, 3, 61, 64
5, 139920, Note_on_c, 3, 65, 115
5, 140636, Note_off_c, 3, 65, 64
5, 140640, Note_on_c, 3, 65, 115
5, 140876, Note_off_c, 3, 65, 64
5, 140880, Note_on_c, 3, 65, 115
5, 141596, Note_off_c, 3, 65, 64
5, 141600, Note_on_c, 3, 65, 115
5, 141836, Note_off_c, 3, 65, 64
5, 141840, Note_on_c, 3, 65, 115
5, 142556, Note_off_c, 3, 65, 64
5, 142560, Note_on_c, 3, 65, 115
5, 142796, Note_off_c, 3, 65, 64
5, 142800, Note_on_c, 3, 66, 115
5, 143516, Note_off_c, 3, 66, 64
5, 143520, Note_on_c, 3, 65, 115
5, 143996, Note_off_c, 3, 65, 64
5, 144000, Note_on_c, 3, 65, 115
5, 144236, Note_off_c, 3, 65, 64
5, 144240, Note_on_c, 3, 66, 115
5, 144716, Note_off_c, 3, 66, 64
5, 144720, Note_on_c, 3, 61, 115
5, 145436, Note_off_c, 3, 61, 64
5, 146640, Note_on_c, 3, 63, 115
5, 146876, Note_off_c, 3, 63, 64
5, 146880, Note_on_c, 3, 65, 115
5, 147116, Note_off_c, 3, 65, 64
5, 147120, Note_on_c, 3, 66, 115
5, 147596, Note_off_c, 3, 66, 64
5, 147600, Note_on_c, 3, 68, 115
5, 150716, Note_off_c, 3, 68, 64
5, 150720, Note_on_c, 3, 68, 115
5, 150956, Note_off_c, 3, 68, 64
5, 150960, Note_on_c, 3, 68, 115
5, 151436, Note_off_c, 3, 68, 64
5, 151440, Note_on_c, 3, 73, 115
5, 154076, Note_off_c, 3, 73, 64
5, 154080, Note_on_c, 3, 74, 115
5, 154080, Note_on_c, 3, 69, 115
5, 155516, Note_off_c, 3, 69, 64
5, 155516, Note_off_c, 3, 74, 64
5, 155520, Note_on_c, 3, 64, 115
5, 155996, Note_off_c, 3, 64, 64
5, 156480, Note_on_c, 3, 69, 115
5, 156716, Note_off_c, 3, 69, 64
5, 156720, Note_on_c, 3, 69, 115
5, 156956, Note_off_c, 3, 69, 64
5, 156960, Note_on_c, 3, 71, 115
5, 157196, Note_off_c, 3, 71, 64
5, 157200, Note_on_c, 3, 76, 115
5, 157676, Note_off_c, 3, 76, 64
5, 157680, Note_on_c, 3, 72, 115
5, 157916, Note_off_c, 3, 72, 64
5, 157920, Note_on_c, 3, 73, 115
5, 158876, Note_off_c, 3, 73, 64
5, 158880, Note_on_c, 3, 73, 115
5, 158880, Note_on_c, 3, 73, 115
5, 159356, Note_off_c, 3, 73, 64
5, 159356, Note_off_c, 3, 73, 64
5, 159360, Note_on_c, 3, 73, 115
5, 159596, Note_off_c, 3, 73, 64
5, 159600, Note_on_c, 3, 74, 115
5, 160076, Note_off_c, 3, 74, 64
5, 160080, Note_on_c, 3, 71, 115
5, 160796, Note_off_c, 3, 71, 64
5, 160800, Note_on_c, 3, 69, 115
5, 161276, Note_off_c, 3, 69, 64
5, 161280, Note_on_c, 3, 71, 115
5, 161516, Note_off_c, 3, 71, 64
5, 161520, Note_on_c, 3, 73, 115
5, 161996, Note_off_c, 3, 73, 64
5, 162000, Note_on_c, 3, 69, 115
5, 162716, Note_off_c, 3, 69, 64
5, 162720, Note_on_c, 3, 64, 115
5, 163196, Note_off_c, 3, 64, 64
5, 163200, Note_on_c, 3, 76, 115
5, 167040, Note_off_c, 3, 76, 64
5, 167040, Note_on_c, 3, 81, 115
5, 170872, Note_off_c, 3, 81, 64
5, 170880, Note_on_c, 3, 81, 100
5, 174712, Note_off_c, 3, 81, 64
5, 174720, Note_on_c, 3, 81, 77
5, 178552, Note_off_c, 3, 81, 64
5, 178560, Note_on_c, 3, 81, 39
5, 182392, Note_off_c, 3, 81, 64
5, 182392, End_track
6, 0, Start_track
6, 0, Title_t, "Strings"
6, 0, MIDI_port, 0
6, 0, Channel_prefix, 4
6, 0, Control_c, 4, 7, 94
6, 0, Control_c, 4, 10, 16
6, 0, Control_c, 4, 91, 89
6, 0, Control_c, 4, 93, 69
6, 0, Program_c, 4, 48
6, 0, Control_c, 4, 121, 0
6, 40, Control_c, 4, 123, 0
6, 1920, Note_on_c, 4, 59, 115
6, 2636, Note_off_c, 4, 59, 64
6, 2640, Note_on_c, 4, 62, 115
6, 2640, Note_on_c, 4, 59, 115
6, 3596, Note_off_c, 4, 59, 64
6, 3596, Note_off_c, 4, 62, 64
6, 3600, Note_on_c, 4, 67, 115
6, 3600, Note_on_c, 4, 62, 115
6, 5756, Note_off_c, 4, 62, 64
6, 5756, Note_off_c, 4, 67, 64
6, 5760, Note_on_c, 4, 69, 115
6, 5760, Note_on_c, 4, 65, 115
6, 6476, Note_off_c, 4, 65, 64
6, 6476, Note_off_c, 4, 69, 64
6, 6480, Note_on_c, 4, 65, 115
6, 6480, Note_on_c, 4, 60, 115
6, 7436, Note_off_c, 4, 60, 64
6, 7436, Note_off_c, 4, 65, 64
6, 7440, Note_on_c, 4, 60, 115
6, 7440, Note_on_c, 4, 65, 115
6, 9116, Note_off_c, 4, 65, 64
6, 9116, Note_off_c, 4, 60, 64
6, 9600, Note_on_c, 4, 62, 115
6, 10556, Note_off_c, 4, 62, 64
6, 10560, Note_on_c, 4, 65, 115
6, 10560, Note_on_c, 4, 62, 115
6, 11276, Note_off_c, 4, 62, 64
6, 11276, Note_off_c, 4, 65, 64
6, 11280, Note_on_c, 4, 70, 115
6, 11280, Note_on_c, 4, 65, 115
6, 13436, Note_off_c, 4, 65, 64
6, 13436, Note_off_c, 4, 70, 64
6, 13440, Note_on_c, 4, 72, 115
6, 13440, Note_on_c, 4, 68, 115
6, 14156, Note_off_c, 4, 68, 64
6, 14156, Note_off_c, 4, 72, 64
6, 14160, Note_on_c, 4, 68, 115
6, 14160, Note_on_c, 4, 63, 115
6, 15116, Note_off_c, 4, 63, 64
6, 15116, Note_off_c, 4, 68, 64
6, 15120, Note_on_c, 4, 68, 115
6, 15120, Note_on_c, 4, 63, 115
6, 16316, Note_off_c, 4, 63, 64
6, 16316, Note_off_c, 4, 68, 64
6, 16320, Note_on_c, 4, 56, 115
6, 16796, Note_off_c, 4, 56, 64
6, 16800, Note_on_c, 4, 61, 115
6, 17036, Note_off_c, 4, 61, 64
6, 17040, Note_on_c, 4, 61, 115
6, 17040, Note_on_c, 4, 56, 115
6, 17996, Note_off_c, 4, 56, 64
6, 17996, Note_off_c, 4, 61, 64
6, 18000, Note_on_c, 4, 61, 115
6, 18000, Note_on_c, 4, 56, 115
6, 18956, Note_off_c, 4, 56, 64
6, 18956, Note_off_c, 4, 61, 64
6, 18960, Note_on_c, 4, 61, 115
6, 18960, Note_on_c, 4, 56, 115
6, 21116, Note_off_c, 4, 56, 64
6, 21116, Note_off_c, 4, 61, 64
6, 21120, Note_on_c, 4, 61, 115
6, 21120, Note_on_c, 4, 58, 115
6, 21836, Note_off_c, 4, 58, 64
6, 21836, Note_off_c, 4, 61, 64
6, 21840, Note_on_c, 4, 58, 115
6, 23996, Note_off_c, 4, 58, 64
6, 24000, Note_on_c, 4, 63, 115
6, 24000, Note_on_c, 4, 59, 115
6, 24716, Note_off_c, 4, 59, 64
6, 24716, Note_off_c, 4, 63, 64
6, 25440, Note_on_c, 4, 65, 115
6, 25440, Note_on_c, 4, 61, 115
6, 25440, Note_on_c, 4, 56, 115
6, 25916, Note_off_c, 4, 56, 64
6, 25916, Note_off_c, 4, 61, 64
6, 25916, Note_off_c, 4, 65, 64
6, 26400, Note_on_c, 4, 65, 115
6, 26400, Note_on_c, 4, 61, 115
6, 26400, Note_on_c, 4, 56, 115
6, 26876, Note_off_c, 4, 56, 64
6, 26876, Note_off_c, 4, 61, 64
6, 26876, Note_off_c, 4, 65, 64
6, 27360, Note_on_c, 4, 66, 115
6, 27360, Note_on_c, 4, 63, 115
6, 27360, Note_on_c, 4, 58, 115
6, 27836, Note_off_c, 4, 58, 64
6, 27836, Note_off_c, 4, 63, 64
6, 27836, Note_off_c, 4, 66, 64
6, 27840, Note_on_c, 4, 66, 115
6, 27840, Note_on_c, 4, 63, 115
6, 28556, Note_off_c, 4, 63, 64
6, 28556, Note_off_c, 4, 66, 64
6, 29280, Note_on_c, 4, 68, 115
6, 29280, Note_on_c, 4, 65, 115
6, 29280, Note_on_c, 4, 61, 115
6, 29756, Note_off_c, 4, 61, 64
6, 29756, Note_off_c, 4, 65, 64
6, 29756, Note_off_c, 4, 68, 64
6, 30240, Note_on_c, 4, 68, 115
6, 30240, Note_on_c, 4, 65, 115
6, 30240, Note_on_c, 4, 61, 115
6, 30716, Note_off_c, 4, 61, 64
6, 30716, Note_off_c, 4, 65, 64
6, 30716, Note_off_c, 4, 68, 64
6, 31200, Note_on_c, 4, 68, 115
6, 31200, Note_on_c, 4, 64, 115
6, 31200, Note_on_c, 4, 62, 115
6, 32636, Note_off_c, 4, 62, 64
6, 32636, Note_off_c, 4, 64, 64
6, 32636, Note_off_c, 4, 68, 64
6, 33120, Note_on_c, 4, 61, 115
6, 33120, Note_on_c, 4, 57, 115
6, 33596, Note_off_c, 4, 57, 64
6, 33596, Note_off_c, 4, 61, 64
6, 33600, Note_on_c, 4, 64, 115
6, 33600, Note_on_c, 4, 61, 115
6, 34316, Note_off_c, 4, 61, 64
6, 34316, Note_off_c, 4, 64, 64
6, 34320, Note_on_c, 4, 69, 115
6, 34320, Note_on_c, 4, 64, 115
6, 35036, Note_off_c, 4, 64, 64
6, 35036, Note_off_c, 4, 69, 64
6, 35040, Note_on_c, 4, 69, 115
6, 35040, Note_on_c, 4, 64, 115
6, 35996, Note_off_c, 4, 64, 64
6, 35996, Note_off_c, 4, 69, 64
6, 36000, Note_on_c, 4, 69, 115
6, 36000, Note_on_c, 4, 64, 115
6, 36476, Note_off_c, 4, 64, 64
6, 36476, Note_off_c, 4, 69, 64
6, 36480, Note_on_c, 4, 69, 115
6, 36480, Note_on_c, 4, 66, 115
6, 37196, Note_off_c, 4, 66, 64
6, 37196, Note_off_c, 4, 69, 64
6, 37200, Note_on_c, 4, 66, 115
6, 37200, Note_on_c, 4, 62, 115
6, 37916, Note_off_c, 4, 62, 64
6, 37916, Note_off_c, 4, 66, 64
6, 37920, Note_on_c, 4, 66, 115
6, 37920, Note_on_c, 4, 62, 115
6, 38396, Note_off_c, 4, 62, 64
6, 38396, Note_off_c, 4, 66, 64
6, 38400, Note_on_c, 4, 67, 115
6, 38400, Note_on_c, 4, 62, 115
6, 39116, Note_off_c, 4, 62, 64
6, 39116, Note_off_c, 4, 67, 64
6, 39120, Note_on_c, 4, 62, 115
6, 39836, Note_off_c, 4, 62, 64
6, 39840, Note_on_c, 4, 62, 115
6, 40316, Note_off_c, 4, 62, 64
6, 40320, Note_on_c, 4, 73, 115
6, 40320, Note_on_c, 4, 69, 115
6, 40320, Note_on_c, 4, 64, 115
6, 41996, Note_off_c, 4, 64, 64
6, 41996, Note_off_c, 4, 69, 64
6, 41996, Note_off_c, 4, 73, 64
6, 42000, Note_on_c, 4, 71, 115
6, 42000, Note_on_c, 4, 67, 115
6, 42596, Note_off_c, 4, 67, 64
6, 42596, Note_off_c, 4, 71, 64
6, 42600, Note_on_c, 4, 71, 115
6, 42600, Note_on_c, 4, 67, 115
6, 42716, Note_off_c, 4, 67, 64
6, 42716, Note_off_c, 4, 71, 64
6, 42720, Note_on_c, 4, 72, 115
6, 42720, Note_on_c, 4, 69, 115
6, 44156, Note_off_c, 4, 69, 64
6, 44156, Note_off_c, 4, 72, 64
6, 44160, Note_on_c, 4, 73, 115
6, 44160, Note_on_c, 4, 69, 115
6, 44160, Note_on_c, 4, 64, 115
6, 45836, Note_off_c, 4, 64, 64
6, 45836, Note_off_c, 4, 69, 64
6, 45836, Note_off_c, 4, 73, 64
6, 45840, Note_on_c, 4, 71, 115
6, 45840, Note_on_c, 4, 67, 115
6, 46436, Note_off_c, 4, 67, 64
6, 46436, Note_off_c, 4, 71, 64
6, 46440, Note_on_c, 4, 71, 115
6, 46440, Note_on_c, 4, 67, 115
6, 46556, Note_off_c, 4, 67, 64
6, 46556, Note_off_c, 4, 71, 64
6, 46560, Note_on_c, 4, 72, 115
6, 46560, Note_on_c, 4, 69, 115
6, 47516, Note_off_c, 4, 69, 64
6, 47516, Note_off_c, 4, 72, 64
6, 47760, Note_on_c, 4, 62, 115
6, 47760, Note_on_c, 4, 62, 115
6, 47996, Note_off_c, 4, 62, 64
6, 47996, Note_off_c, 4, 62, 64
6, 48000, Note_on_c, 4, 59, 115
6, 48716, Note_off_c, 4, 59, 64
6, 48720, Note_on_c, 4, 62, 115
6, 48720, Note_on_c, 4, 59, 115
6, 49676, Note_off_c, 4, 59, 64
6, 49676, Note_off_c, 4, 62, 64
6, 49680, Note_on_c, 4, 67, 115
6, 49680, Note_on_c, 4, 62, 115
6, 51836, Note_off_c, 4, 62, 64
6, 51836, Note_off_c, 4, 67, 64
6, 51840, Note_on_c, 4, 69, 115
6, 51840, Note_on_c, 4, 65, 115
6, 52556, Note_off_c, 4, 65, 64
6, 52556, Note_off_c, 4, 69, 64
6, 52560, Note_on_c, 4, 65, 115
6, 52560, Note_on_c, 4, 60, 115
6, 53516, Note_off_c, 4, 60, 64
6, 53516, Note_off_c, 4, 65, 64
6, 53520, Note_on_c, 4, 60, 115
6, 53520, Note_on_c, 4, 65, 115
6, 55196, Note_off_c, 4, 65, 64
6, 55196, Note_off_c, 4, 60, 64
6, 55680, Note_on_c, 4, 62, 115
6, 56636, Note_off_c, 4, 62, 64
6, 56640, Note_on_c, 4, 65, 115
6, 56640, Note_on_c, 4, 62, 115
6, 57356, Note_off_c, 4, 62, 64
6, 57356, Note_off_c, 4, 65, 64
6, 57360, Note_on_c, 4, 70, 115
6, 57360, Note_on_c, 4, 65, 115
6, 59516, Note_off_c, 4, 65, 64
6, 59516, Note_off_c, 4, 70, 64
6, 59520, Note_on_c, 4, 72, 115
6, 59520, Note_on_c, 4, 68, 115
6, 60236, Note_off_c, 4, 68, 64
6, 60236, Note_off_c, 4, 72, 64
6, 60240, Note_on_c, 4, 68, 115
6, 60240, Note_on_c, 4, 63, 115
6, 61196, Note_off_c, 4, 63, 64
6, 61196, Note_off_c, 4, 68, 64
6, 61200, Note_on_c, 4, 68, 115
6, 61200, Note_on_c, 4, 63, 115
6, 62396, Note_off_c, 4, 63, 64
6, 62396, Note_off_c, 4, 68, 64
6, 62400, Note_on_c, 4, 56, 115
6, 62876, Note_off_c, 4, 56, 64
6, 62880, Note_on_c, 4, 61, 115
6, 63116, Note_off_c, 4, 61, 64
6, 63120, Note_on_c, 4, 61, 115
6, 63120, Note_on_c, 4, 56, 115
6, 64076, Note_off_c, 4, 56, 64
6, 64076, Note_off_c, 4, 61, 64
6, 64080, Note_on_c, 4, 61, 115
6, 64080, Note_on_c, 4, 56, 115
6, 65036, Note_off_c, 4, 56, 64
6, 65036, Note_off_c, 4, 61, 64
6, 65040, Note_on_c, 4, 61, 115
6, 65040, Note_on_c, 4, 56, 115
6, 67196, Note_off_c, 4, 56, 64
6, 67196, Note_off_c, 4, 61, 64
6, 67200, Note_on_c, 4, 61, 115
6, 67200, Note_on_c, 4, 58, 115
6, 67916, Note_off_c, 4, 58, 64
6, 67916, Note_off_c, 4, 61, 64
6, 67920, Note_on_c, 4, 58, 115
6, 70076, Note_off_c, 4, 58, 64
6, 70080, Note_on_c, 4, 63, 115
6, 70080, Note_on_c, 4, 59, 115
6, 70796, Note_off_c, 4, 59, 64
6, 70796, Note_off_c, 4, 63, 64
6, 71520, Note_on_c, 4, 65, 115
6, 71520, Note_on_c, 4, 61, 115
6, 71520, Note_on_c, 4, 56, 115
6, 71996, Note_off_c, 4, 56, 64
6, 71996, Note_off_c, 4, 61, 64
6, 71996, Note_off_c, 4, 65, 64
6, 72480, Note_on_c, 4, 65, 115
6, 72480, Note_on_c, 4, 61, 115
6, 72480, Note_on_c, 4, 56, 115
6, 72956, Note_off_c, 4, 56, 64
6, 72956, Note_off_c, 4, 61, 64
6, 72956, Note_off_c, 4, 65, 64
6, 73440, Note_on_c, 4, 66, 115
6, 73440, Note_on_c, 4, 63, 115
6, 73440, Note_on_c, 4, 58, 115
6, 73916, Note_off_c, 4, 58, 64
6, 73916, Note_off_c, 4, 63, 64
6, 73916, Note_off_c, 4, 66, 64
6, 73920, Note_on_c, 4, 66, 115
6, 73920, Note_on_c, 4, 63, 115
6, 74636, Note_off_c, 4, 63, 64
6, 74636, Note_off_c, 4, 66, 64
6, 75360, Note_on_c, 4, 68, 115
6, 75360, Note_on_c, 4, 65, 115
6, 75360, Note_on_c, 4, 61, 115
6, 75836, Note_off_c, 4, 61, 64
6, 75836, Note_off_c, 4, 65, 64
6, 75836, Note_off_c, 4, 68, 64
6, 76320, Note_on_c, 4, 68, 115
6, 76320, Note_on_c, 4, 65, 115
6, 76320, Note_on_c, 4, 61, 115
6, 76796, Note_off_c, 4, 61, 64
6, 76796, Note_off_c, 4, 65, 64
6, 76796, Note_off_c, 4, 68, 64
6, 77280, Note_on_c, 4, 68, 115
6, 77280, Note_on_c, 4, 64, 115
6, 77280, Note_on_c, 4, 62, 115
6, 78716, Note_off_c, 4, 62, 64
6, 78716, Note_off_c, 4, 64, 64
6, 78716, Note_off_c, 4, 68, 64
6, 79200, Note_on_c, 4, 61, 115
6, 79200, Note_on_c, 4, 57, 115
6, 79676, Note_off_c, 4, 57, 64
6, 79676, Note_off_c, 4, 61, 64
6, 79680, Note_on_c, 4, 64, 115
6, 79680, Note_on_c, 4, 61, 115
6, 80396, Note_off_c, 4, 61, 64
6, 80396, Note_off_c, 4, 64, 64
6, 80400, Note_on_c, 4, 69, 115
6, 80400, Note_on_c, 4, 64, 115
6, 81116, Note_off_c, 4, 64, 64
6, 81116, Note_off_c, 4, 69, 64
6, 81120, Note_on_c, 4, 69, 115
6, 81120, Note_on_c, 4, 64, 115
6, 82076, Note_off_c, 4, 64, 64
6, 82076, Note_off_c, 4, 69, 64
6, 82080, Note_on_c, 4, 69, 115
6, 82080, Note_on_c, 4, 64, 115
6, 82556, Note_off_c, 4, 64, 64
6, 82556, Note_off_c, 4, 69, 64
6, 82560, Note_on_c, 4, 69, 115
6, 82560, Note_on_c, 4, 66, 115
6, 83276, Note_off_c, 4, 66, 64
6, 83276, Note_off_c, 4, 69, 64
6, 83280, Note_on_c, 4, 66, 115
6, 83280, Note_on_c, 4, 62, 115
6, 83996, Note_off_c, 4, 62, 64
6, 83996, Note_off_c, 4, 66, 64
6, 84000, Note_on_c, 4, 66, 115
6, 84000, Note_on_c, 4, 62, 115
6, 84476, Note_off_c, 4, 62, 64
6, 84476, Note_off_c, 4, 66, 64
6, 84480, Note_on_c, 4, 67, 115
6, 84480, Note_on_c, 4, 62, 115
6, 85196, Note_off_c, 4, 62, 64
6, 85196, Note_off_c, 4, 67, 64
6, 85200, Note_on_c, 4, 62, 115
6, 85916, Note_off_c, 4, 62, 64
6, 85920, Note_on_c, 4, 62, 115
6, 86396, Note_off_c, 4, 62, 64
6, 86400, Note_on_c, 4, 73, 115
6, 86400, Note_on_c, 4, 69, 115
6, 86400, Note_on_c, 4, 64, 115
6, 88076, Note_off_c, 4, 64, 64
6, 88076, Note_off_c, 4, 69, 64
6, 88076, Note_off_c, 4, 73, 64
6, 88080, Note_on_c, 4, 71, 115
6, 88080, Note_on_c, 4, 67, 115
6, 88676, Note_off_c, 4, 67, 64
6, 88676, Note_off_c, 4, 71, 64
6, 88680, Note_on_c, 4, 71, 115
6, 88680, Note_on_c, 4, 67, 115
6, 88796, Note_off_c, 4, 67, 64
6, 88796, Note_off_c, 4, 71, 64
6, 88800, Note_on_c, 4, 72, 115
6, 88800, Note_on_c, 4, 69, 115
6, 90236, Note_off_c, 4, 69, 64
6, 90236, Note_off_c, 4, 72, 64
6, 90240, Note_on_c, 4, 73, 115
6, 90240, Note_on_c, 4, 69, 115
6, 90240, Note_on_c, 4, 64, 115
6, 91916, Note_off_c, 4, 64, 64
6, 91916, Note_off_c, 4, 69, 64
6, 91916, Note_off_c, 4, 73, 64
6, 91920, Note_on_c, 4, 71, 115
6, 91920, Note_on_c, 4, 67, 115
6, 92516, Note_off_c, 4, 67, 64
6, 92516, Note_off_c, 4, 71, 64
6, 92520, Note_on_c, 4, 71, 115
6, 92520, Note_on_c, 4, 67, 115
6, 92636, Note_off_c, 4, 67, 64
6, 92636, Note_off_c, 4, 71, 64
6, 92640, Note_on_c, 4, 72, 115
6, 92640, Note_on_c, 4, 69, 115
6, 94080, Note_off_c, 4, 69, 64
6, 94080, Note_off_c, 4, 72, 64
6, 94560, Note_on_c, 4, 64, 115
6, 94560, Note_on_c, 4, 60, 115
6, 95036, Note_off_c, 4, 60, 64
6, 95036, Note_off_c, 4, 64, 64
6, 95040, Note_on_c, 4, 67, 115
6, 95040, Note_on_c, 4, 64, 115
6, 95996, Note_off_c, 4, 64, 64
6, 95996, Note_off_c, 4, 67, 64
6, 96000, Note_on_c, 4, 71, 115
6, 96000, Note_on_c, 4, 67, 115
6, 97916, Note_off_c, 4, 67, 64
6, 97916, Note_off_c, 4, 71, 64
6, 98400, Note_on_c, 4, 72, 115
6, 98400, Note_on_c, 4, 69, 115
6, 98400, Note_on_c, 4, 65, 115
6, 98636, Note_off_c, 4, 65, 64
6, 98636, Note_off_c, 4, 69, 64
6, 98636, Note_off_c, 4, 72, 64
6, 99360, Note_on_c, 4, 65, 115
6, 99360, Note_on_c, 4, 60, 115
6, 99360, Note_on_c, 4, 57, 115
6, 99836, Note_off_c, 4, 57, 64
6, 99836, Note_off_c, 4, 60, 64
6, 99836, Note_off_c, 4, 65, 64
6, 100320, Note_on_c, 4, 62, 115
6, 100320, Note_on_c, 4, 59, 115
6, 100796, Note_off_c, 4, 59, 64
6, 100796, Note_off_c, 4, 62, 64
6, 101280, Note_on_c, 4, 62, 115
6, 101280, Note_on_c, 4, 59, 115
6, 101756, Note_off_c, 4, 59, 64
6, 101756, Note_off_c, 4, 62, 64
6, 102240, Note_on_c, 4, 60, 115
6, 102716, Note_off_c, 4, 60, 64
6, 102720, Note_on_c, 4, 67, 115
6, 103436, Note_off_c, 4, 67, 64
6, 103440, Note_on_c, 4, 67, 115
6, 103440, Note_on_c, 4, 72, 115
6, 105596, Note_off_c, 4, 72, 64
6, 105596, Note_off_c, 4, 67, 64
6, 106080, Note_on_c, 4, 72, 115
6, 106080, Note_on_c, 4, 69, 115
6, 106556, Note_off_c, 4, 69, 64
6, 106556, Note_off_c, 4, 72, 64
6, 107040, Note_on_c, 4, 72, 115
6, 107040, Note_on_c, 4, 69, 115
6, 107040, Note_on_c, 4, 65, 115
6, 107516, Note_off_c, 4, 65, 64
6, 107516, Note_off_c, 4, 69, 64
6, 107516, Note_off_c, 4, 72, 64
6, 108000, Note_on_c, 4, 71, 115
6, 108000, Note_on_c, 4, 67, 115
6, 108476, Note_off_c, 4, 67, 64
6, 108476, Note_off_c, 4, 71, 64
6, 108960, Note_on_c, 4, 71, 115
6, 108960, Note_on_c, 4, 67, 115
6, 109436, Note_off_c, 4, 67, 64
6, 109436, Note_off_c, 4, 71, 64
6, 109920, Note_on_c, 4, 55, 115
6, 110396, Note_off_c, 4, 55, 64
6, 110400, Note_on_c, 4, 58, 115
6, 110400, Note_on_c, 4, 55, 115
6, 111356, Note_off_c, 4, 55, 64
6, 111356, Note_off_c, 4, 58, 64
6, 111360, Note_on_c, 4, 62, 115
6, 111360, Note_on_c, 4, 58, 115
6, 113276, Note_off_c, 4, 58, 64
6, 113276, Note_off_c, 4, 62, 64
6, 113760, Note_on_c, 4, 63, 115
6, 113760, Note_on_c, 4, 60, 115
6, 114236, Note_off_c, 4, 60, 64
6, 114236, Note_off_c, 4, 63, 64
6, 114720, Note_on_c, 4, 60, 115
6, 114720, Note_on_c, 4, 56, 115
6, 115196, Note_off_c, 4, 56, 64
6, 115196, Note_off_c, 4, 60, 64
6, 115680, Note_on_c, 4, 58, 115
6, 115680, Note_on_c, 4, 56, 115
6, 116156, Note_off_c, 4, 56, 64
6, 116156, Note_off_c, 4, 58, 64
6, 116640, Note_on_c, 4, 62, 115
6, 116640, Note_on_c, 4, 58, 115
6, 116876, Note_off_c, 4, 58, 64
6, 116876, Note_off_c, 4, 62, 64
6, 117120, Note_on_c, 4, 70, 115
6, 117120, Note_on_c, 4, 66, 115
6, 118796, Note_off_c, 4, 66, 64
6, 118796, Note_off_c, 4, 70, 64
6, 118800, Note_on_c, 4, 72, 115
6, 118800, Note_on_c, 4, 68, 115
6, 120956, Note_off_c, 4, 68, 64
6, 120956, Note_off_c, 4, 72, 64
6, 120960, Note_on_c, 4, 62, 115
6, 120960, Note_on_c, 4, 59, 115
6, 122636, Note_off_c, 4, 59, 64
6, 122636, Note_off_c, 4, 62, 64
6, 122640, Note_on_c, 4, 65, 115
6, 122640, Note_on_c, 4, 60, 115
6, 123836, Note_off_c, 4, 60, 64
6, 123836, Note_off_c, 4, 65, 64
6, 124320, Note_on_c, 4, 67, 115
6, 124320, Note_on_c, 4, 63, 115
6, 124320, Note_on_c, 4, 58, 115
6, 124800, Note_off_c, 4, 58, 64
6, 124800, Note_off_c, 4, 63, 64
6, 124800, Note_off_c, 4, 67, 64
6, 124800, Note_on_c, 4, 59, 115
6, 125516, Note_off_c, 4, 59, 64
6, 125520, Note_on_c, 4, 62, 115
6, 125520, Note_on_c, 4, 59, 115
6, 126476, Note_off_c, 4, 59, 64
6, 126476, Note_off_c, 4, 62, 64
6, 126480, Note_on_c, 4, 67, 115
6, 126480, Note_on_c, 4, 62, 115
6, 128636, Note_off_c, 4, 62, 64
6, 128636, Note_off_c, 4, 67, 64
6, 128640, Note_on_c, 4, 69, 115
6, 128640, Note_on_c, 4, 65, 115
6, 129356, Note_off_c, 4, 65, 64
6, 129356, Note_off_c, 4, 69, 64
6, 129360, Note_on_c, 4, 65, 115
6, 129360, Note_on_c, 4, 60, 115
6, 130316, Note_off_c, 4, 60, 64
6, 130316, Note_off_c, 4, 65, 64
6, 130320, Note_on_c, 4, 60, 115
6, 130320, Note_on_c, 4, 65, 115
6, 131996, Note_off_c, 4, 65, 64
6, 131996, Note_off_c, 4, 60, 64
6, 132480, Note_on_c, 4, 62, 115
6, 133436, Note_off_c, 4, 62, 64
6, 133440, Note_on_c, 4, 65, 115
6, 133440, Note_on_c, 4, 62, 115
6, 134156, Note_off_c, 4, 62, 64
6, 134156, Note_off_c, 4, 65, 64
6, 134160, Note_on_c, 4, 70, 115
6, 134160, Note_on_c, 4, 65, 115
6, 136316, Note_off_c, 4, 65, 64
6, 136316, Note_off_c, 4, 70, 64
6, 136320, Note_on_c, 4, 72, 115
6, 136320, Note_on_c, 4, 68, 115
6, 137036, Note_off_c, 4, 68, 64
6, 137036, Note_off_c, 4, 72, 64
6, 137040, Note_on_c, 4, 68, 115
6, 137040, Note_on_c, 4, 63, 115
6, 137996, Note_off_c, 4, 63, 64
6, 137996, Note_off_c, 4, 68, 64
6, 138000, Note_on_c, 4, 68, 115
6, 138000, Note_on_c, 4, 63, 115
6, 139196, Note_off_c, 4, 63, 64
6, 139196, Note_off_c, 4, 68, 64
6, 139200, Note_on_c, 4, 56, 115
6, 139676, Note_off_c, 4, 56, 64
6, 139680, Note_on_c, 4, 61, 115
6, 139916, Note_off_c, 4, 61, 64
6, 139920, Note_on_c, 4, 61, 115
6, 139920, Note_on_c, 4, 56, 115
6, 140876, Note_off_c, 4, 56, 64
6, 140876, Note_off_c, 4, 61, 64
6, 140880, Note_on_c, 4, 61, 115
6, 140880, Note_on_c, 4, 56, 115
6, 141836, Note_off_c, 4, 56, 64
6, 141836, Note_off_c, 4, 61, 64
6, 141840, Note_on_c, 4, 61, 115
6, 141840, Note_on_c, 4, 56, 115
6, 143996, Note_off_c, 4, 56, 64
6, 143996, Note_off_c, 4, 61, 64
6, 144000, Note_on_c, 4, 61, 115
6, 144000, Note_on_c, 4, 58, 115
6, 144716, Note_off_c, 4, 58, 64
6, 144716, Note_off_c, 4, 61, 64
6, 144720, Note_on_c, 4, 58, 115
6, 146876, Note_off_c, 4, 58, 64
6, 146880, Note_on_c, 4, 63, 115
6, 146880, Note_on_c, 4, 59, 115
6, 147596, Note_off_c, 4, 59, 64
6, 147596, Note_off_c, 4, 63, 64
6, 148320, Note_on_c, 4, 65, 115
6, 148320, Note_on_c, 4, 61, 115
6, 148320, Note_on_c, 4, 56, 115
6, 148796, Note_off_c, 4, 56, 64
6, 148796, Note_off_c, 4, 61, 64
6, 148796, Note_off_c, 4, 65, 64
6, 149280, Note_on_c, 4, 65, 115
6, 149280, Note_on_c, 4, 61, 115
6, 149280, Note_on_c, 4, 56, 115
6, 149756, Note_off_c, 4, 56, 64
6, 149756, Note_off_c, 4, 61, 64
6, 149756, Note_off_c, 4, 65, 64
6, 150240, Note_on_c, 4, 66, 115
6, 150240, Note_on_c, 4, 63, 115
6, 150240, Note_on_c, 4, 58, 115
6, 150716, Note_off_c, 4, 58, 64
6, 150716, Note_off_c, 4, 63, 64
6, 150716, Note_off_c, 4, 66, 64
6, 150720, Note_on_c, 4, 66, 115
6, 150720, Note_on_c, 4, 63, 115
6, 151436, Note_off_c, 4, 63, 64
6, 151436, Note_off_c, 4, 66, 64
6, 152160, Note_on_c, 4, 68, 115
6, 152160, Note_on_c, 4, 65, 115
6, 152160, Note_on_c, 4, 61, 115
6, 152636, Note_off_c, 4, 61, 64
6, 152636, Note_off_c, 4, 65, 64
6, 152636, Note_off_c, 4, 68, 64
6, 153120, Note_on_c, 4, 68, 115
6, 153120, Note_on_c, 4, 65, 115
6, 153120, Note_on_c, 4, 61, 115
6, 153596, Note_off_c, 4, 61, 64
6, 153596, Note_off_c, 4, 65, 64
6, 153596, Note_off_c, 4, 68, 64
6, 154080, Note_on_c, 4, 68, 115
6, 154080, Note_on_c, 4, 64, 115
6, 154080, Note_on_c, 4, 62, 115
6, 155516, Note_off_c, 4, 62, 64
6, 155516, Note_off_c, 4, 64, 64
6, 155516, Note_off_c, 4, 68, 64
6, 156000, Note_on_c, 4, 61, 115
6, 156000, Note_on_c, 4, 57, 115
6, 156476, Note_off_c, 4, 57, 64
6, 156476, Note_off_c, 4, 61, 64
6, 156480, Note_on_c, 4, 64, 115
6, 156480, Note_on_c, 4, 61, 115
6, 157196, Note_off_c, 4, 61, 64
6, 157196, Note_off_c, 4, 64, 64
6, 157200, Note_on_c, 4, 69, 115
6, 157200, Note_on_c, 4, 64, 115
6, 157916, Note_off_c, 4, 64, 64
6, 157916, Note_off_c, 4, 69, 64
6, 157920, Note_on_c, 4, 69, 115
6, 157920, Note_on_c, 4, 64, 115
6, 158876, Note_off_c, 4, 64, 64
6, 158876, Note_off_c, 4, 69, 64
6, 158880, Note_on_c, 4, 69, 115
6, 158880, Note_on_c, 4, 64, 115
6, 159356, Note_off_c, 4, 64, 64
6, 159356, Note_off_c, 4, 69, 64
6, 159360, Note_on_c, 4, 69, 115
6, 159360, Note_on_c, 4, 66, 115
6, 160076, Note_off_c, 4, 66, 64
6, 160076, Note_off_c, 4, 69, 64
6, 160080, Note_on_c, 4, 66, 115
6, 160080, Note_on_c, 4, 62, 115
6, 160796, Note_off_c, 4, 62, 64
6, 160796, Note_off_c, 4, 66, 64
6, 160800, Note_on_c, 4, 66, 115
6, 160800, Note_on_c, 4, 62, 115
6, 161276, Note_off_c, 4, 62, 64
6, 161276, Note_off_c, 4, 66, 64
6, 161280, Note_on_c, 4, 67, 115
6, 161280, Note_on_c, 4, 62, 115
6, 161996, Note_off_c, 4, 62, 64
6, 161996, Note_off_c, 4, 67, 64
6, 162000, Note_on_c, 4, 62, 115
6, 162716, Note_off_c, 4, 62, 64
6, 162720, Note_on_c, 4, 62, 115
6, 163196, Note_off_c, 4, 62, 64
6, 163200, Note_on_c, 4, 73, 115
6, 163200, Note_on_c, 4, 69, 115
6, 163200, Note_on_c, 4, 64, 115
6, 164876, Note_off_c, 4, 64, 64
6, 164876, Note_off_c, 4, 69, 64
6, 164876, Note_off_c, 4, 73, 64
6, 164880, Note_on_c, 4, 71, 115
6, 164880, Note_on_c, 4, 67, 115
6, 165476, Note_off_c, 4, 67, 64
6, 165476, Note_off_c, 4, 71, 64
6, 165480, Note_on_c, 4, 71, 115
6, 165480, Note_on_c, 4, 67, 115
6, 165596, Note_off_c, 4, 67, 64
6, 165596, Note_off_c, 4, 71, 64
6, 165600, Note_on_c, 4, 72, 115
6, 165600, Note_on_c, 4, 69, 115
6, 167036, Note_off_c, 4, 69, 64
6, 167036, Note_off_c, 4, 72, 64
6, 167040, Note_on_c, 4, 64, 115
6, 167040, Note_on_c, 4, 69, 115
6, 167040, Note_on_c, 4, 73, 115
6, 168716, Note_off_c, 4, 73, 64
6, 168716, Note_off_c, 4, 69, 64
6, 168716, Note_off_c, 4, 64, 64
6, 168720, Note_on_c, 4, 71, 115
6, 168720, Note_on_c, 4, 67, 115
6, 169312, Note_off_c, 4, 71, 64
6, 169316, Note_off_c, 4, 67, 64
6, 169320, Note_on_c, 4, 71, 115
6, 169320, Note_on_c, 4, 67, 115
6, 169436, Note_off_c, 4, 67, 64
6, 169436, Note_off_c, 4, 71, 64
6, 169440, Note_on_c, 4, 72, 115
6, 169440, Note_on_c, 4, 69, 115
6, 170876, Note_off_c, 4, 69, 64
6, 170876, Note_off_c, 4, 72, 64
6, 170880, Note_on_c, 4, 73, 115
6, 170880, Note_on_c, 4, 69, 115
6, 170880, Note_on_c, 4, 64, 115
6, 172552, Note_off_c, 4, 64, 64
6, 172552, Note_off_c, 4, 69, 64
6, 172552, Note_off_c, 4, 73, 64
6, 172560, Note_on_c, 4, 71, 99
6, 172560, Note_on_c, 4, 67, 99
6, 173152, Note_off_c, 4, 67, 64
6, 173152, Note_off_c, 4, 71, 64
6, 173160, Note_on_c, 4, 71, 93
6, 173160, Note_on_c, 4, 67, 93
6, 173272, Note_off_c, 4, 67, 64
6, 173272, Note_off_c, 4, 71, 64
6, 173280, Note_on_c, 4, 72, 92
6, 173280, Note_on_c, 4, 69, 92
6, 174712, Note_off_c, 4, 69, 64
6, 174712, Note_off_c, 4, 72, 64
6, 174720, Note_on_c, 4, 64, 77
6, 174720, Note_on_c, 4, 69, 77
6, 174720, Note_on_c, 4, 73, 77
6, 176392, Note_off_c, 4, 73, 64
6, 176392, Note_off_c, 4, 69, 64
6, 176392, Note_off_c, 4, 64, 64
6, 176400, Note_on_c, 4, 71, 60
6, 176400, Note_on_c, 4, 67, 60
6, 176992, Note_off_c, 4, 67, 64
6, 176992, Note_off_c, 4, 71, 64
6, 177000, Note_on_c, 4, 71, 54
6, 177000, Note_on_c, 4, 67, 54
6, 177112, Note_off_c, 4, 67, 64
6, 177112, Note_off_c, 4, 71, 64
6, 177120, Note_on_c, 4, 72, 53
6, 177120, Note_on_c, 4, 69, 53
6, 178552, Note_off_c, 4, 69, 64
6, 178552, Note_off_c, 4, 72, 64
6, 178560, Note_on_c, 4, 64, 39
6, 178560, Note_on_c, 4, 69, 39
6, 178560, Note_on_c, 4, 73, 39
6, 180232, Note_off_c, 4, 73, 64
6, 180232, Note_off_c, 4, 69, 64
6, 180232, Note_off_c, 4, 64, 64
6, 180240, Note_on_c, 4, 71, 22
6, 180240, Note_on_c, 4, 67, 22
6, 180832, Note_off_c, 4, 67, 64
6, 180832, Note_off_c, 4, 71, 64
6, 180840, Note_on_c, 4, 71, 16
6, 180840, Note_on_c, 4, 67, 16
6, 180952, Note_off_c, 4, 67, 64
6, 180952, Note_off_c, 4, 71, 64
6, 180960, Note_on_c, 4, 72, 15
6, 180960, Note_on_c, 4, 69, 15
6, 182392, Note_off_c, 4, 69, 64
6, 182392, Note_off_c, 4, 72, 64
6, 182392, End_track
7, 0, Start_track
7, 0, Title_t, "Acc. Bass"
7, 0, MIDI_port, 0
7, 0, Channel_prefix, 5
7, 0, Control_c, 5, 7, 105
7, 0, Control_c, 5, 10, 8
7, 0, Control_c, 5, 91, 89
7, 0, Control_c, 5, 93, 69
7, 0, Program_c, 5, 32
7, 0, Control_c, 5, 121, 0
7, 40, Control_c, 5, 123, 0
7, 1920, Note_on_c, 5, 43, 115
7, 2396, Note_off_c, 5, 43, 64
7, 2880, Note_on_c, 5, 38, 115
7, 3356, Note_off_c, 5, 38, 64
7, 3840, Note_on_c, 5, 43, 115
7, 4316, Note_off_c, 5, 43, 64
7, 4320, Note_on_c, 5, 38, 115
7, 4796, Note_off_c, 5, 38, 64
7, 4800, Note_on_c, 5, 43, 115
7, 5276, Note_off_c, 5, 43, 64
7, 5760, Note_on_c, 5, 41, 115
7, 6236, Note_off_c, 5, 41, 64
7, 6720, Note_on_c, 5, 36, 115
7, 7196, Note_off_c, 5, 36, 64
7, 7680, Note_on_c, 5, 41, 115
7, 8156, Note_off_c, 5, 41, 64
7, 8160, Note_on_c, 5, 36, 115
7, 8636, Note_off_c, 5, 36, 64
7, 8640, Note_on_c, 5, 38, 115
7, 9116, Note_off_c, 5, 38, 64
7, 9120, Note_on_c, 5, 41, 115
7, 9596, Note_off_c, 5, 41, 64
7, 9600, Note_on_c, 5, 46, 115
7, 10076, Note_off_c, 5, 46, 64
7, 10560, Note_on_c, 5, 41, 115
7, 11036, Note_off_c, 5, 41, 64
7, 11520, Note_on_c, 5, 46, 115
7, 11996, Note_off_c, 5, 46, 64
7, 12000, Note_on_c, 5, 41, 115
7, 12476, Note_off_c, 5, 41, 64
7, 12480, Note_on_c, 5, 46, 115
7, 12956, Note_off_c, 5, 46, 64
7, 13440, Note_on_c, 5, 44, 115
7, 13916, Note_off_c, 5, 44, 64
7, 14400, Note_on_c, 5, 39, 115
7, 14876, Note_off_c, 5, 39, 64
7, 15360, Note_on_c, 5, 44, 115
7, 15836, Note_off_c, 5, 44, 64
7, 15840, Note_on_c, 5, 39, 115
7, 16316, Note_off_c, 5, 39, 64
7, 16320, Note_on_c, 5, 44, 115
7, 16796, Note_off_c, 5, 44, 64
7, 17280, Note_on_c, 5, 49, 115
7, 18236, Note_off_c, 5, 49, 64
7, 18240, Note_on_c, 5, 48, 115
7, 19196, Note_off_c, 5, 48, 64
7, 19200, Note_on_c, 5, 47, 115
7, 21116, Note_off_c, 5, 47, 64
7, 21120, Note_on_c, 5, 46, 115
7, 22556, Note_off_c, 5, 46, 64
7, 22560, Note_on_c, 5, 46, 115
7, 23036, Note_off_c, 5, 46, 64
7, 23040, Note_on_c, 5, 39, 115
7, 23516, Note_off_c, 5, 39, 64
7, 23520, Note_on_c, 5, 51, 115
7, 23996, Note_off_c, 5, 51, 64
7, 24000, Note_on_c, 5, 44, 115
7, 24476, Note_off_c, 5, 44, 64
7, 24960, Note_on_c, 5, 49, 115
7, 24960, Note_on_c, 5, 37, 115
7, 25436, Note_off_c, 5, 37, 64
7, 25436, Note_off_c, 5, 49, 64
7, 25920, Note_on_c, 5, 49, 115
7, 25920, Note_on_c, 5, 37, 115
7, 26396, Note_off_c, 5, 37, 64
7, 26396, Note_off_c, 5, 49, 64
7, 26880, Note_on_c, 5, 49, 115
7, 26880, Note_on_c, 5, 37, 115
7, 27356, Note_off_c, 5, 37, 64
7, 27356, Note_off_c, 5, 49, 64
7, 27840, Note_on_c, 5, 49, 115
7, 27840, Note_on_c, 5, 37, 115
7, 28316, Note_off_c, 5, 37, 64
7, 28316, Note_off_c, 5, 49, 64
7, 28800, Note_on_c, 5, 49, 115
7, 28800, Note_on_c, 5, 37, 115
7, 29276, Note_off_c, 5, 37, 64
7, 29276, Note_off_c, 5, 49, 64
7, 29760, Note_on_c, 5, 49, 115
7, 29760, Note_on_c, 5, 37, 115
7, 30236, Note_off_c, 5, 37, 64
7, 30236, Note_off_c, 5, 49, 64
7, 30720, Note_on_c, 5, 49, 115
7, 30720, Note_on_c, 5, 37, 115
7, 31196, Note_off_c, 5, 37, 64
7, 31196, Note_off_c, 5, 49, 64
7, 31680, Note_on_c, 5, 47, 115
7, 32156, Note_off_c, 5, 47, 64
7, 32160, Note_on_c, 5, 40, 115
7, 32636, Note_off_c, 5, 40, 64
7, 32640, Note_on_c, 5, 52, 115
7, 32640, Note_on_c, 5, 45, 115
7, 33596, Note_off_c, 5, 45, 64
7, 33596, Note_off_c, 5, 52, 64
7, 33600, Note_on_c, 5, 52, 115
7, 33600, Note_on_c, 5, 40, 115
7, 34076, Note_off_c, 5, 40, 64
7, 34076, Note_off_c, 5, 52, 64
7, 34560, Note_on_c, 5, 49, 115
7, 35036, Note_off_c, 5, 49, 64
7, 35040, Note_on_c, 5, 45, 115
7, 35516, Note_off_c, 5, 45, 64
7, 35520, Note_on_c, 5, 40, 115
7, 35996, Note_off_c, 5, 40, 64
7, 36000, Note_on_c, 5, 45, 115
7, 36476, Note_off_c, 5, 45, 64
7, 36480, Note_on_c, 5, 50, 115
7, 36480, Note_on_c, 5, 38, 115
7, 37196, Note_off_c, 5, 38, 64
7, 37196, Note_off_c, 5, 50, 64
7, 37200, Note_on_c, 5, 50, 115
7, 37200, Note_on_c, 5, 38, 115
7, 37916, Note_off_c, 5, 38, 64
7, 37916, Note_off_c, 5, 50, 64
7, 37920, Note_on_c, 5, 50, 115
7, 37920, Note_on_c, 5, 38, 115
7, 38396, Note_off_c, 5, 38, 64
7, 38396, Note_off_c, 5, 50, 64
7, 38400, Note_on_c, 5, 43, 115
7, 39116, Note_off_c, 5, 43, 64
7, 39120, Note_on_c, 5, 47, 115
7, 39836, Note_off_c, 5, 47, 64
7, 39840, Note_on_c, 5, 47, 115
7, 40316, Note_off_c, 5, 47, 64
7, 40320, Note_on_c, 5, 45, 115
7, 40796, Note_off_c, 5, 45, 64
7, 40800, Note_on_c, 5, 40, 115
7, 41276, Note_off_c, 5, 40, 64
7, 41280, Note_on_c, 5, 42, 115
7, 41756, Note_off_c, 5, 42, 64
7, 41760, Note_on_c, 5, 45, 115
7, 42236, Note_off_c, 5, 45, 64
7, 42240, Note_on_c, 5, 43, 115
7, 42716, Note_off_c, 5, 43, 64
7, 42720, Note_on_c, 5, 41, 115
7, 43196, Note_off_c, 5, 41, 64
7, 43200, Note_on_c, 5, 36, 115
7, 43676, Note_off_c, 5, 36, 64
7, 43680, Note_on_c, 5, 41, 115
7, 44156, Note_off_c, 5, 41, 64
7, 44160, Note_on_c, 5, 45, 115
7, 44636, Note_off_c, 5, 45, 64
7, 44640, Note_on_c, 5, 40, 115
7, 45116, Note_off_c, 5, 40, 64
7, 45120, Note_on_c, 5, 43, 115
7, 45596, Note_off_c, 5, 43, 64
7, 45600, Note_on_c, 5, 45, 115
7, 46076, Note_off_c, 5, 45, 64
7, 46080, Note_on_c, 5, 43, 115
7, 46556, Note_off_c, 5, 43, 64
7, 46560, Note_on_c, 5, 41, 115
7, 47036, Note_off_c, 5, 41, 64
7, 47040, Note_on_c, 5, 36, 115
7, 47516, Note_off_c, 5, 36, 64
7, 47520, Note_on_c, 5, 41, 115
7, 47996, Note_off_c, 5, 41, 64
7, 48000, Note_on_c, 5, 43, 115
7, 48476, Note_off_c, 5, 43, 64
7, 48960, Note_on_c, 5, 38, 115
7, 49436, Note_off_c, 5, 38, 64
7, 49920, Note_on_c, 5, 43, 115
7, 50396, Note_off_c, 5, 43, 64
7, 50400, Note_on_c, 5, 38, 115
7, 50876, Note_off_c, 5, 38, 64
7, 50880, Note_on_c, 5, 43, 115
7, 51356, Note_off_c, 5, 43, 64
7, 51840, Note_on_c, 5, 41, 115
7, 52316, Note_off_c, 5, 41, 64
7, 52800, Note_on_c, 5, 36, 115
7, 53276, Note_off_c, 5, 36, 64
7, 53760, Note_on_c, 5, 41, 115
7, 54236, Note_off_c, 5, 41, 64
7, 54240, Note_on_c, 5, 36, 115
7, 54716, Note_off_c, 5, 36, 64
7, 54720, Note_on_c, 5, 38, 115
7, 55196, Note_off_c, 5, 38, 64
7, 55200, Note_on_c, 5, 41, 115
7, 55676, Note_off_c, 5, 41, 64
7, 55680, Note_on_c, 5, 46, 115
7, 56156, Note_off_c, 5, 46, 64
7, 56640, Note_on_c, 5, 41, 115
7, 57116, Note_off_c, 5, 41, 64
7, 57600, Note_on_c, 5, 46, 115
7, 58076, Note_off_c, 5, 46, 64
7, 58080, Note_on_c, 5, 41, 115
7, 58556, Note_off_c, 5, 41, 64
7, 58560, Note_on_c, 5, 46, 115
7, 59036, Note_off_c, 5, 46, 64
7, 59520, Note_on_c, 5, 44, 115
7, 59996, Note_off_c, 5, 44, 64
7, 60480, Note_on_c, 5, 39, 115
7, 60956, Note_off_c, 5, 39, 64
7, 61440, Note_on_c, 5, 44, 115
7, 61916, Note_off_c, 5, 44, 64
7, 61920, Note_on_c, 5, 39, 115
7, 62396, Note_off_c, 5, 39, 64
7, 62400, Note_on_c, 5, 44, 115
7, 62876, Note_off_c, 5, 44, 64
7, 63360, Note_on_c, 5, 49, 115
7, 64316, Note_off_c, 5, 49, 64
7, 64320, Note_on_c, 5, 48, 115
7, 65276, Note_off_c, 5, 48, 64
7, 65280, Note_on_c, 5, 47, 115
7, 67196, Note_off_c, 5, 47, 64
7, 67200, Note_on_c, 5, 46, 115
7, 68636, Note_off_c, 5, 46, 64
7, 68640, Note_on_c, 5, 46, 115
7, 69116, Note_off_c, 5, 46, 64
7, 69120, Note_on_c, 5, 39, 115
7, 69596, Note_off_c, 5, 39, 64
7, 69600, Note_on_c, 5, 51, 115
7, 70076, Note_off_c, 5, 51, 64
7, 70080, Note_on_c, 5, 44, 115
7, 70556, Note_off_c, 5, 44, 64
7, 71040, Note_on_c, 5, 49, 115
7, 71040, Note_on_c, 5, 37, 115
7, 71516, Note_off_c, 5, 37, 64
7, 71516, Note_off_c, 5, 49, 64
7, 72000, Note_on_c, 5, 49, 115
7, 72000, Note_on_c, 5, 37, 115
7, 72476, Note_off_c, 5, 37, 64
7, 72476, Note_off_c, 5, 49, 64
7, 72960, Note_on_c, 5, 49, 115
7, 72960, Note_on_c, 5, 37, 115
7, 73436, Note_off_c, 5, 37, 64
7, 73436, Note_off_c, 5, 49, 64
7, 73920, Note_on_c, 5, 49, 115
7, 73920, Note_on_c, 5, 37, 115
7, 74396, Note_off_c, 5, 37, 64
7, 74396, Note_off_c, 5, 49, 64
7, 74880, Note_on_c, 5, 49, 115
7, 74880, Note_on_c, 5, 37, 115
7, 75356, Note_off_c, 5, 37, 64
7, 75356, Note_off_c, 5, 49, 64
7, 75840, Note_on_c, 5, 49, 115
7, 75840, Note_on_c, 5, 37, 115
7, 76316, Note_off_c, 5, 37, 64
7, 76316, Note_off_c, 5, 49, 64
7, 76800, Note_on_c, 5, 49, 115
7, 76800, Note_on_c, 5, 37, 115
7, 77276, Note_off_c, 5, 37, 64
7, 77276, Note_off_c, 5, 49, 64
7, 77760, Note_on_c, 5, 47, 115
7, 78236, Note_off_c, 5, 47, 64
7, 78240, Note_on_c, 5, 40, 115
7, 78716, Note_off_c, 5, 40, 64
7, 78720, Note_on_c, 5, 52, 115
7, 78720, Note_on_c, 5, 45, 115
7, 79676, Note_off_c, 5, 45, 64
7, 79676, Note_off_c, 5, 52, 64
7, 79680, Note_on_c, 5, 52, 115
7, 79680, Note_on_c, 5, 40, 115
7, 80156, Note_off_c, 5, 40, 64
7, 80156, Note_off_c, 5, 52, 64
7, 80640, Note_on_c, 5, 49, 115
7, 81116, Note_off_c, 5, 49, 64
7, 81120, Note_on_c, 5, 45, 115
7, 81596, Note_off_c, 5, 45, 64
7, 81600, Note_on_c, 5, 40, 115
7, 82076, Note_off_c, 5, 40, 64
7, 82080, Note_on_c, 5, 45, 115
7, 82556, Note_off_c, 5, 45, 64
7, 82560, Note_on_c, 5, 50, 115
7, 82560, Note_on_c, 5, 38, 115
7, 83276, Note_off_c, 5, 38, 64
7, 83276, Note_off_c, 5, 50, 64
7, 83280, Note_on_c, 5, 50, 115
7, 83280, Note_on_c, 5, 38, 115
7, 83996, Note_off_c, 5, 38, 64
7, 83996, Note_off_c, 5, 50, 64
7, 84000, Note_on_c, 5, 50, 115
7, 84000, Note_on_c, 5, 38, 115
7, 84476, Note_off_c, 5, 38, 64
7, 84476, Note_off_c, 5, 50, 64
7, 84480, Note_on_c, 5, 43, 115
7, 85196, Note_off_c, 5, 43, 64
7, 85200, Note_on_c, 5, 47, 115
7, 85916, Note_off_c, 5, 47, 64
7, 85920, Note_on_c, 5, 47, 115
7, 86396, Note_off_c, 5, 47, 64
7, 86400, Note_on_c, 5, 45, 115
7, 86876, Note_off_c, 5, 45, 64
7, 86880, Note_on_c, 5, 40, 115
7, 87356, Note_off_c, 5, 40, 64
7, 87360, Note_on_c, 5, 42, 115
7, 87836, Note_off_c, 5, 42, 64
7, 87840, Note_on_c, 5, 45, 115
7, 88316, Note_off_c, 5, 45, 64
7, 88320, Note_on_c, 5, 43, 115
7, 88796, Note_off_c, 5, 43, 64
7, 88800, Note_on_c, 5, 41, 115
7, 89276, Note_off_c, 5, 41, 64
7, 89280, Note_on_c, 5, 36, 115
7, 89756, Note_off_c, 5, 36, 64
7, 89760, Note_on_c, 5, 41, 115
7, 90236, Note_off_c, 5, 41, 64
7, 90240, Note_on_c, 5, 45, 115
7, 90716, Note_off_c, 5, 45, 64
7, 90720, Note_on_c, 5, 40, 115
7, 91196, Note_off_c, 5, 40, 64
7, 91200, Note_on_c, 5, 43, 115
7, 91676, Note_off_c, 5, 43, 64
7, 91680, Note_on_c, 5, 45, 115
7, 92156, Note_off_c, 5, 45, 64
7, 92160, Note_on_c, 5, 43, 115
7, 92636, Note_off_c, 5, 43, 64
7, 92640, Note_on_c, 5, 41, 115
7, 93116, Note_off_c, 5, 41, 64
7, 93120, Note_on_c, 5, 36, 115
7, 93596, Note_off_c, 5, 36, 64
7, 93600, Note_on_c, 5, 41, 115
7, 94076, Note_off_c, 5, 41, 64
7, 94080, Note_on_c, 5, 48, 115
7, 95996, Note_off_c, 5, 48, 64
7, 96000, Note_on_c, 5, 52, 115
7, 96000, Note_on_c, 5, 40, 115
7, 97916, Note_off_c, 5, 40, 64
7, 97916, Note_off_c, 5, 52, 64
7, 97920, Note_on_c, 5, 50, 115
7, 97920, Note_on_c, 5, 38, 115
7, 99836, Note_off_c, 5, 38, 64
7, 99836, Note_off_c, 5, 50, 64
7, 99840, Note_on_c, 5, 41, 115
7, 100796, Note_off_c, 5, 41, 64
7, 100800, Note_on_c, 5, 53, 115
7, 101756, Note_off_c, 5, 53, 64
7, 101760, Note_on_c, 5, 52, 115
7, 103676, Note_off_c, 5, 52, 64
7, 103680, Note_on_c, 5, 48, 115
7, 105596, Note_off_c, 5, 48, 64
7, 105600, Note_on_c, 5, 50, 115
7, 107516, Note_off_c, 5, 50, 64
7, 107520, Note_on_c, 5, 41, 115
7, 108476, Note_off_c, 5, 41, 64
7, 108480, Note_on_c, 5, 53, 115
7, 109436, Note_off_c, 5, 53, 64
7, 109440, Note_on_c, 5, 51, 115
7, 111356, Note_off_c, 5, 51, 64
7, 111360, Note_on_c, 5, 55, 115
7, 111360, Note_on_c, 5, 43, 115
7, 113276, Note_off_c, 5, 43, 64
7, 113276, Note_off_c, 5, 55, 64
7, 113280, Note_on_c, 5, 53, 115
7, 113280, Note_on_c, 5, 41, 115
7, 114236, Note_off_c, 5, 41, 64
7, 114236, Note_off_c, 5, 53, 64
7, 114240, Note_on_c, 5, 51, 115
7, 114240, Note_on_c, 5, 39, 115
7, 115196, Note_off_c, 5, 39, 64
7, 115196, Note_off_c, 5, 51, 64
7, 115200, Note_on_c, 5, 50, 115
7, 115200, Note_on_c, 5, 38, 115
7, 116156, Note_off_c, 5, 38, 64
7, 116156, Note_off_c, 5, 50, 64
7, 116160, Note_on_c, 5, 46, 115
7, 117116, Note_off_c, 5, 46, 64
7, 117120, Note_on_c, 5, 54, 115
7, 117120, Note_on_c, 5, 42, 115
7, 119036, Note_off_c, 5, 42, 64
7, 119036, Note_off_c, 5, 54, 64
7, 119040, Note_on_c, 5, 56, 115
7, 119040, Note_on_c, 5, 44, 115
7, 119516, Note_off_c, 5, 44, 64
7, 119516, Note_off_c, 5, 56, 64
7, 119520, Note_on_c, 5, 55, 115
7, 119520, Note_on_c, 5, 43, 115
7, 119996, Note_off_c, 5, 43, 64
7, 119996, Note_off_c, 5, 55, 64
7, 120000, Note_on_c, 5, 53, 115
7, 120000, Note_on_c, 5, 41, 115
7, 120476, Note_off_c, 5, 41, 64
7, 120476, Note_off_c, 5, 53, 64
7, 120480, Note_on_c, 5, 51, 115
7, 120480, Note_on_c, 5, 39, 115
7, 120956, Note_off_c, 5, 39, 64
7, 120956, Note_off_c, 5, 51, 64
7, 120960, Note_on_c, 5, 55, 115
7, 120960, Note_on_c, 5, 43, 115
7, 122876, Note_off_c, 5, 43, 64
7, 122876, Note_off_c, 5, 55, 64
7, 122880, Note_on_c, 5, 53, 115
7, 122880, Note_on_c, 5, 41, 115
7, 123356, Note_off_c, 5, 41, 64
7, 123356, Note_off_c, 5, 53, 64
7, 123360, Note_on_c, 5, 53, 115
7, 123360, Note_on_c, 5, 41, 115
7, 123836, Note_off_c, 5, 41, 64
7, 123836, Note_off_c, 5, 53, 64
7, 123840, Note_on_c, 5, 51, 115
7, 123840, Note_on_c, 5, 39, 115
7, 124796, Note_off_c, 5, 39, 64
7, 124796, Note_off_c, 5, 51, 64
7, 124800, Note_on_c, 5, 43, 115
7, 125276, Note_off_c, 5, 43, 64
7, 125760, Note_on_c, 5, 38, 115
7, 126236, Note_off_c, 5, 38, 64
7, 126720, Note_on_c, 5, 43, 115
7, 127196, Note_off_c, 5, 43, 64
7, 127200, Note_on_c, 5, 38, 115
7, 127676, Note_off_c, 5, 38, 64
7, 127680, Note_on_c, 5, 43, 115
7, 128156, Note_off_c, 5, 43, 64
7, 128640, Note_on_c, 5, 41, 115
7, 129116, Note_off_c, 5, 41, 64
7, 129600, Note_on_c, 5, 36, 115
7, 130076, Note_off_c, 5, 36, 64
7, 130560, Note_on_c, 5, 41, 115
7, 131036, Note_off_c, 5, 41, 64
7, 131040, Note_on_c, 5, 36, 115
7, 131516, Note_off_c, 5, 36, 64
7, 131520, Note_on_c, 5, 38, 115
7, 131996, Note_off_c, 5, 38, 64
7, 132000, Note_on_c, 5, 41, 115
7, 132476, Note_off_c, 5, 41, 64
7, 132480, Note_on_c, 5, 46, 115
7, 132956, Note_off_c, 5, 46, 64
7, 133440, Note_on_c, 5, 41, 115
7, 133916, Note_off_c, 5, 41, 64
7, 134400, Note_on_c, 5, 46, 115
7, 134876, Note_off_c, 5, 46, 64
7, 134880, Note_on_c, 5, 41, 115
7, 135356, Note_off_c, 5, 41, 64
7, 135360, Note_on_c, 5, 46, 115
7, 135836, Note_off_c, 5, 46, 64
7, 136320, Note_on_c, 5, 44, 115
7, 136796, Note_off_c, 5, 44, 64
7, 137280, Note_on_c, 5, 39, 115
7, 137756, Note_off_c, 5, 39, 64
7, 138240, Note_on_c, 5, 44, 115
7, 138716, Note_off_c, 5, 44, 64
7, 138720, Note_on_c, 5, 39, 115
7, 139196, Note_off_c, 5, 39, 64
7, 139200, Note_on_c, 5, 44, 115
7, 139676, Note_off_c, 5, 44, 64
7, 140160, Note_on_c, 5, 49, 115
7, 141116, Note_off_c, 5, 49, 64
7, 141120, Note_on_c, 5, 48, 115
7, 142076, Note_off_c, 5, 48, 64
7, 142080, Note_on_c, 5, 47, 115
7, 143996, Note_off_c, 5, 47, 64
7, 144000, Note_on_c, 5, 46, 115
7, 145436, Note_off_c, 5, 46, 64
7, 145440, Note_on_c, 5, 46, 115
7, 145916, Note_off_c, 5, 46, 64
7, 145920, Note_on_c, 5, 39, 115
7, 146396, Note_off_c, 5, 39, 64
7, 146400, Note_on_c, 5, 51, 115
7, 146876, Note_off_c, 5, 51, 64
7, 146880, Note_on_c, 5, 44, 115
7, 147356, Note_off_c, 5, 44, 64
7, 147840, Note_on_c, 5, 49, 115
7, 147840, Note_on_c, 5, 37, 115
7, 148316, Note_off_c, 5, 37, 64
7, 148316, Note_off_c, 5, 49, 64
7, 148800, Note_on_c, 5, 49, 115
7, 148800, Note_on_c, 5, 37, 115
7, 149276, Note_off_c, 5, 37, 64
7, 149276, Note_off_c, 5, 49, 64
7, 149760, Note_on_c, 5, 49, 115
7, 149760, Note_on_c, 5, 37, 115
7, 150236, Note_off_c, 5, 37, 64
7, 150236, Note_off_c, 5, 49, 64
7, 150720, Note_on_c, 5, 49, 115
7, 150720, Note_on_c, 5, 37, 115
7, 151196, Note_off_c, 5, 37, 64
7, 151196, Note_off_c, 5, 49, 64
7, 151680, Note_on_c, 5, 49, 115
7, 151680, Note_on_c, 5, 37, 115
7, 152156, Note_off_c, 5, 37, 64
7, 152156, Note_off_c, 5, 49, 64
7, 152640, Note_on_c, 5, 49, 115
7, 152640, Note_on_c, 5, 37, 115
7, 153116, Note_off_c, 5, 37, 64
7, 153116, Note_off_c, 5, 49, 64
7, 153600, Note_on_c, 5, 49, 115
7, 153600, Note_on_c, 5, 37, 115
7, 154076, Note_off_c, 5, 37, 64
7, 154076, Note_off_c, 5, 49, 64
7, 154560, Note_on_c, 5, 47, 115
7, 155036, Note_off_c, 5, 47, 64
7, 155040, Note_on_c, 5, 40, 115
7, 155516, Note_off_c, 5, 40, 64
7, 155520, Note_on_c, 5, 52, 115
7, 155520, Note_on_c, 5, 45, 115
7, 156476, Note_off_c, 5, 45, 64
7, 156476, Note_off_c, 5, 52, 64
7, 156480, Note_on_c, 5, 52, 115
7, 156480, Note_on_c, 5, 40, 115
7, 156956, Note_off_c, 5, 40, 64
7, 156956, Note_off_c, 5, 52, 64
7, 157440, Note_on_c, 5, 49, 115
7, 157916, Note_off_c, 5, 49, 64
7, 157920, Note_on_c, 5, 45, 115
7, 158396, Note_off_c, 5, 45, 64
7, 158400, Note_on_c, 5, 40, 115
7, 158876, Note_off_c, 5, 40, 64
7, 158880, Note_on_c, 5, 45, 115
7, 159356, Note_off_c, 5, 45, 64
7, 159360, Note_on_c, 5, 50, 115
7, 159360, Note_on_c, 5, 38, 115
7, 160076, Note_off_c, 5, 38, 64
7, 160076, Note_off_c, 5, 50, 64
7, 160080, Note_on_c, 5, 50, 115
7, 160080, Note_on_c, 5, 38, 115
7, 160796, Note_off_c, 5, 38, 64
7, 160796, Note_off_c, 5, 50, 64
7, 160800, Note_on_c, 5, 50, 115
7, 160800, Note_on_c, 5, 38, 115
7, 161276, Note_off_c, 5, 38, 64
7, 161276, Note_off_c, 5, 50, 64
7, 161280, Note_on_c, 5, 43, 115
7, 161996, Note_off_c, 5, 43, 64
7, 162000, Note_on_c, 5, 47, 115
7, 162716, Note_off_c, 5, 47, 64
7, 162720, Note_on_c, 5, 47, 115
7, 163196, Note_off_c, 5, 47, 64
7, 163200, Note_on_c, 5, 45, 115
7, 163676, Note_off_c, 5, 45, 64
7, 163680, Note_on_c, 5, 40, 115
7, 164156, Note_off_c, 5, 40, 64
7, 164160, Note_on_c, 5, 42, 115
7, 164636, Note_off_c, 5, 42, 64
7, 164640, Note_on_c, 5, 45, 115
7, 165116, Note_off_c, 5, 45, 64
7, 165120, Note_on_c, 5, 43, 115
7, 165596, Note_off_c, 5, 43, 64
7, 165600, Note_on_c, 5, 41, 115
7, 166076, Note_off_c, 5, 41, 64
7, 166080, Note_on_c, 5, 36, 115
7, 166556, Note_off_c, 5, 36, 64
7, 166560, Note_on_c, 5, 41, 115
7, 167036, Note_off_c, 5, 41, 64
7, 167040, Note_on_c, 5, 45, 115
7, 167516, Note_off_c, 5, 45, 64
7, 167520, Note_on_c, 5, 40, 115
7, 167996, Note_off_c, 5, 40, 64
7, 168000, Note_on_c, 5, 42, 115
7, 168476, Note_off_c, 5, 42, 64
7, 168480, Note_on_c, 5, 45, 115
7, 168956, Note_off_c, 5, 45, 64
7, 168960, Note_on_c, 5, 43, 115
7, 169436, Note_off_c, 5, 43, 64
7, 169440, Note_on_c, 5, 41, 115
7, 169916, Note_off_c, 5, 41, 64
7, 169920, Note_on_c, 5, 36, 115
7, 170396, Note_off_c, 5, 36, 64
7, 170400, Note_on_c, 5, 41, 115
7, 170876, Note_off_c, 5, 41, 64
7, 170880, Note_on_c, 5, 45, 115
7, 171352, Note_off_c, 5, 45, 64
7, 171360, Note_on_c, 5, 40, 111
7, 171832, Note_off_c, 5, 40, 64
7, 171840, Note_on_c, 5, 42, 106
7, 172312, Note_off_c, 5, 42, 64
7, 172320, Note_on_c, 5, 45, 101
7, 172792, Note_off_c, 5, 45, 64
7, 172800, Note_on_c, 5, 43, 96
7, 173272, Note_off_c, 5, 43, 64
7, 173280, Note_on_c, 5, 41, 92
7, 173752, Note_off_c, 5, 41, 64
7, 173760, Note_on_c, 5, 36, 87
7, 174232, Note_off_c, 5, 36, 64
7, 174240, Note_on_c, 5, 41, 82
7, 174712, Note_off_c, 5, 41, 64
7, 174720, Note_on_c, 5, 45, 77
7, 175192, Note_off_c, 5, 45, 64
7, 175200, Note_on_c, 5, 40, 72
7, 175672, Note_off_c, 5, 40, 64
7, 175680, Note_on_c, 5, 42, 68
7, 176152, Note_off_c, 5, 42, 64
7, 176160, Note_on_c, 5, 45, 63
7, 176632, Note_off_c, 5, 45, 64
7, 176640, Note_on_c, 5, 43, 58
7, 177112, Note_off_c, 5, 43, 64
7, 177120, Note_on_c, 5, 41, 53
7, 177592, Note_off_c, 5, 41, 64
7, 177600, Note_on_c, 5, 36, 48
7, 178072, Note_off_c, 5, 36, 64
7, 178080, Note_on_c, 5, 41, 44
7, 178552, Note_off_c, 5, 41, 64
7, 178560, Note_on_c, 5, 45, 39
7, 179032, Note_off_c, 5, 45, 64
7, 179040, Note_on_c, 5, 40, 34
7, 179512, Note_off_c, 5, 40, 64
7, 179520, Note_on_c, 5, 42, 29
7, 179992, Note_off_c, 5, 42, 64
7, 180000, Note_on_c, 5, 45, 24
7, 180472, Note_off_c, 5, 45, 64
7, 180480, Note_on_c, 5, 43, 20
7, 180952, Note_off_c, 5, 43, 64
7, 180960, Note_on_c, 5, 41, 15
7, 181432, Note_off_c, 5, 41, 64
7, 181440, Note_on_c, 5, 36, 10
7, 181912, Note_off_c, 5, 36, 64
7, 181920, Note_on_c, 5, 41, 5
7, 182392, Note_off_c, 5, 41, 64
7, 182392, End_track
8, 0, Start_track
8, 0, Title_t, "Solo Vox"
8, 0, MIDI_port, 0
8, 0, Channel_prefix, 6
8, 0, Control_c, 6, 7, 113
8, 0, Control_c, 6, 10, 64
8, 0, Control_c, 6, 91, 89
8, 0, Control_c, 6, 93, 69
8, 0, Program_c, 6, 85
8, 27840, Note_on_c, 6, 68, 115
8, 28076, Note_off_c, 6, 68, 64
8, 28080, Note_on_c, 6, 68, 115
8, 28556, Note_off_c, 6, 68, 64
8, 28560, Note_on_c, 6, 73, 115
8, 31196, Note_off_c, 6, 73, 64
8, 31200, Note_on_c, 6, 74, 115
8, 31200, Note_on_c, 6, 69, 115
8, 32636, Note_off_c, 6, 69, 64
8, 32636, Note_off_c, 6, 74, 64
8, 32640, Note_on_c, 6, 64, 115
8, 33116, Note_off_c, 6, 64, 64
8, 33600, Note_on_c, 6, 69, 115
8, 33836, Note_off_c, 6, 69, 64
8, 33840, Note_on_c, 6, 69, 115
8, 34076, Note_off_c, 6, 69, 64
8, 34080, Note_on_c, 6, 71, 115
8, 34316, Note_off_c, 6, 71, 64
8, 34320, Note_on_c, 6, 76, 115
8, 34796, Note_off_c, 6, 76, 64
8, 34800, Note_on_c, 6, 72, 115
8, 35036, Note_off_c, 6, 72, 64
8, 35040, Note_on_c, 6, 73, 115
8, 35996, Note_off_c, 6, 73, 64
8, 36000, Note_on_c, 6, 73, 115
8, 36000, Note_on_c, 6, 73, 115
8, 36476, Note_off_c, 6, 73, 64
8, 36476, Note_off_c, 6, 73, 64
8, 36480, Note_on_c, 6, 73, 115
8, 36716, Note_off_c, 6, 73, 64
8, 36720, Note_on_c, 6, 74, 115
8, 37196, Note_off_c, 6, 74, 64
8, 37200, Note_on_c, 6, 71, 115
8, 37916, Note_off_c, 6, 71, 64
8, 37920, Note_on_c, 6, 69, 115
8, 38396, Note_off_c, 6, 69, 64
8, 38400, Note_on_c, 6, 71, 115
8, 38636, Note_off_c, 6, 71, 64
8, 38640, Note_on_c, 6, 73, 115
8, 39116, Note_off_c, 6, 73, 64
8, 39120, Note_on_c, 6, 69, 115
8, 39836, Note_off_c, 6, 69, 64
8, 39840, Note_on_c, 6, 64, 115
8, 40316, Note_off_c, 6, 64, 64
8, 40320, Note_on_c, 6, 76, 115
8, 47516, Note_off_c, 6, 76, 64
8, 73920, Note_on_c, 6, 68, 115
8, 74156, Note_off_c, 6, 68, 64
8, 74160, Note_on_c, 6, 68, 115
8, 74636, Note_off_c, 6, 68, 64
8, 74640, Note_on_c, 6, 73, 115
8, 77276, Note_off_c, 6, 73, 64
8, 77280, Note_on_c, 6, 74, 115
8, 77280, Note_on_c, 6, 69, 115
8, 78716, Note_off_c, 6, 69, 64
8, 78716, Note_off_c, 6, 74, 64
8, 78720, Note_on_c, 6, 64, 115
8, 79196, Note_off_c, 6, 64, 64
8, 79680, Note_on_c, 6, 69, 115
8, 79916, Note_off_c, 6, 69, 64
8, 79920, Note_on_c, 6, 69, 115
8, 80156, Note_off_c, 6, 69, 64
8, 80160, Note_on_c, 6, 71, 115
8, 80396, Note_off_c, 6, 71, 64
8, 80400, Note_on_c, 6, 76, 115
8, 80876, Note_off_c, 6, 76, 64
8, 80880, Note_on_c, 6, 72, 115
8, 81116, Note_off_c, 6, 72, 64
8, 81120, Note_on_c, 6, 73, 115
8, 82076, Note_off_c, 6, 73, 64
8, 82080, Note_on_c, 6, 73, 115
8, 82080, Note_on_c, 6, 73, 115
8, 82556, Note_off_c, 6, 73, 64
8, 82556, Note_off_c, 6, 73, 64
8, 82560, Note_on_c, 6, 73, 115
8, 82796, Note_off_c, 6, 73, 64
8, 82800, Note_on_c, 6, 74, 115
8, 83276, Note_off_c, 6, 74, 64
8, 83280, Note_on_c, 6, 71, 115
8, 83996, Note_off_c, 6, 71, 64
8, 84000, Note_on_c, 6, 69, 115
8, 84476, Note_off_c, 6, 69, 64
8, 84480, Note_on_c, 6, 71, 115
8, 84716, Note_off_c, 6, 71, 64
8, 84720, Note_on_c, 6, 73, 115
8, 85196, Note_off_c, 6, 73, 64
8, 85200, Note_on_c, 6, 69, 115
8, 85916, Note_off_c, 6, 69, 64
8, 85920, Note_on_c, 6, 64, 115
8, 86396, Note_off_c, 6, 64, 64
8, 86400, Note_on_c, 6, 76, 115
8, 94080, Note_off_c, 6, 76, 64
8, 150720, Note_on_c, 6, 68, 115
8, 150956, Note_off_c, 6, 68, 64
8, 150960, Note_on_c, 6, 68, 115
8, 151436, Note_off_c, 6, 68, 64
8, 151440, Note_on_c, 6, 73, 115
8, 154076, Note_off_c, 6, 73, 64
8, 154080, Note_on_c, 6, 74, 115
8, 154080, Note_on_c, 6, 69, 115
8, 155516, Note_off_c, 6, 69, 64
8, 155516, Note_off_c, 6, 74, 64
8, 155520, Note_on_c, 6, 64, 115
8, 155996, Note_off_c, 6, 64, 64
8, 156480, Note_on_c, 6, 69, 115
8, 156716, Note_off_c, 6, 69, 64
8, 156720, Note_on_c, 6, 69, 115
8, 156956, Note_off_c, 6, 69, 64
8, 156960, Note_on_c, 6, 71, 115
8, 157196, Note_off_c, 6, 71, 64
8, 157200, Note_on_c, 6, 76, 115
8, 157676, Note_off_c, 6, 76, 64
8, 157680, Note_on_c, 6, 72, 115
8, 157916, Note_off_c, 6, 72, 64
8, 157920, Note_on_c, 6, 73, 115
8, 158876, Note_off_c, 6, 73, 64
8, 158880, Note_on_c, 6, 73, 115
8, 158880, Note_on_c, 6, 73, 115
8, 159356, Note_off_c, 6, 73, 64
8, 159356, Note_off_c, 6, 73, 64
8, 159360, Note_on_c, 6, 73, 115
8, 159596, Note_off_c, 6, 73, 64
8, 159600, Note_on_c, 6, 74, 115
8, 160076, Note_off_c, 6, 74, 64
8, 160080, Note_on_c, 6, 71, 115
8, 160796, Note_off_c, 6, 71, 64
8, 160800, Note_on_c, 6, 69, 115
8, 161276, Note_off_c, 6, 69, 64
8, 161280, Note_on_c, 6, 71, 115
8, 161516, Note_off_c, 6, 71, 64
8, 161520, Note_on_c, 6, 73, 115
8, 161996, Note_off_c, 6, 73, 64
8, 162000, Note_on_c, 6, 69, 115
8, 162716, Note_off_c, 6, 69, 64
8, 162720, Note_on_c, 6, 64, 115
8, 163196, Note_off_c, 6, 64, 64
8, 163200, Note_on_c, 6, 76, 115
8, 167040, Note_off_c, 6, 76, 64
8, 167040, Note_on_c, 6, 81, 105
8, 170872, Note_off_c, 6, 81, 64
8, 170880, Note_on_c, 6, 81, 90
8, 174712, Note_off_c, 6, 81, 64
8, 174720, Note_on_c, 6, 81, 62
8, 178552, Note_off_c, 6, 81, 64
8, 178560, Note_on_c, 6, 81, 26
8, 182392, Note_off_c, 6, 81, 64
8, 182392, End_track
9, 0, Start_track
9, 0, Title_t, "Choir Aah's"
9, 0, MIDI_port, 0
9, 0, Channel_prefix, 7
9, 0, Control_c, 7, 7, 127
9, 0, Control_c, 7, 10, 64
9, 0, Control_c, 7, 91, 89
9, 0, Control_c, 7, 93, 69
9, 0, Program_c, 7, 52
9, 27840, Note_on_c, 7, 68, 115
9, 28076, Note_off_c, 7, 68, 64
9, 28080, Note_on_c, 7, 68, 115
9, 28556, Note_off_c, 7, 68, 64
9, 28560, Note_on_c, 7, 73, 115
9, 31196, Note_off_c, 7, 73, 64
9, 31200, Note_on_c, 7, 74, 115
9, 31200, Note_on_c, 7, 69, 115
9, 32636, Note_off_c, 7, 69, 64
9, 32636, Note_off_c, 7, 74, 64
9, 32640, Note_on_c, 7, 64, 115
9, 33116, Note_off_c, 7, 64, 64
9, 33600, Note_on_c, 7, 69, 115
9, 33836, Note_off_c, 7, 69, 64
9, 33840, Note_on_c, 7, 69, 115
9, 34076, Note_off_c, 7, 69, 64
9, 34080, Note_on_c, 7, 71, 115
9, 34316, Note_off_c, 7, 71, 64
9, 34320, Note_on_c, 7, 76, 115
9, 34796, Note_off_c, 7, 76, 64
9, 34800, Note_on_c, 7, 72, 115
9, 35036, Note_off_c, 7, 72, 64
9, 35040, Note_on_c, 7, 73, 115
9, 35996, Note_off_c, 7, 73, 64
9, 36000, Note_on_c, 7, 73, 115
9, 36000, Note_on_c, 7, 73, 115
9, 36476, Note_off_c, 7, 73, 64
9, 36476, Note_off_c, 7, 73, 64
9, 36480, Note_on_c, 7, 73, 115
9, 36716, Note_off_c, 7, 73, 64
9, 36720, Note_on_c, 7, 74, 115
9, 37196, Note_off_c, 7, 74, 64
9, 37200, Note_on_c, 7, 71, 115
9, 37916, Note_off_c, 7, 71, 64
9, 37920, Note_on_c, 7, 69, 115
9, 38396, Note_off_c, 7, 69, 64
9, 38400, Note_on_c, 7, 71, 115
9, 38636, Note_off_c, 7, 71, 64
9, 38640, Note_on_c, 7, 73, 115
9, 39116, Note_off_c, 7, 73, 64
9, 39120, Note_on_c, 7, 69, 115
9, 39836, Note_off_c, 7, 69, 64
9, 39840, Note_on_c, 7, 64, 115
9, 40316, Note_off_c, 7, 64, 64
9, 40320, Note_on_c, 7, 76, 115
9, 47516, Note_off_c, 7, 76, 64
9, 73920, Note_on_c, 7, 68, 115
9, 74156, Note_off_c, 7, 68, 64
9, 74160, Note_on_c, 7, 68, 115
9, 74636, Note_off_c, 7, 68, 64
9, 74640, Note_on_c, 7, 73, 115
9, 77276, Note_off_c, 7, 73, 64
9, 77280, Note_on_c, 7, 74, 115
9, 77280, Note_on_c, 7, 69, 115
9, 78716, Note_off_c, 7, 69, 64
9, 78716, Note_off_c, 7, 74, 64
9, 78720, Note_on_c, 7, 64, 115
9, 79196, Note_off_c, 7, 64, 64
9, 79680, Note_on_c, 7, 69, 115
9, 79916, Note_off_c, 7, 69, 64
9, 79920, Note_on_c, 7, 69, 115
9, 80156, Note_off_c, 7, 69, 64
9, 80160, Note_on_c, 7, 71, 115
9, 80396, Note_off_c, 7, 71, 64
9, 80400, Note_on_c, 7, 76, 115
9, 80876, Note_off_c, 7, 76, 64
9, 80880, Note_on_c, 7, 72, 115
9, 81116, Note_off_c, 7, 72, 64
9, 81120, Note_on_c, 7, 73, 115
9, 82076, Note_off_c, 7, 73, 64
9, 82080, Note_on_c, 7, 73, 115
9, 82080, Note_on_c, 7, 73, 115
9, 82556, Note_off_c, 7, 73, 64
9, 82556, Note_off_c, 7, 73, 64
9, 82560, Note_on_c, 7, 73, 115
9, 82796, Note_off_c, 7, 73, 64
9, 82800, Note_on_c, 7, 74, 115
9, 83276, Note_off_c, 7, 74, 64
9, 83280, Note_on_c, 7, 71, 115
9, 83996, Note_off_c, 7, 71, 64
9, 84000, Note_on_c, 7, 69, 115
9, 84476, Note_off_c, 7, 69, 64
9, 84480, Note_on_c, 7, 71, 115
9, 84716, Note_off_c, 7, 71, 64
9, 84720, Note_on_c, 7, 73, 115
9, 85196, Note_off_c, 7, 73, 64
9, 85200, Note_on_c, 7, 69, 115
9, 85916, Note_off_c, 7, 69, 64
9, 85920, Note_on_c, 7, 64, 115
9, 86396, Note_off_c, 7, 64, 64
9, 86400, Note_on_c, 7, 76, 115
9, 94080, Note_off_c, 7, 76, 64
9, 150720, Note_on_c, 7, 68, 115
9, 150956, Note_off_c, 7, 68, 64
9, 150960, Note_on_c, 7, 68, 115
9, 151436, Note_off_c, 7, 68, 64
9, 151440, Note_on_c, 7, 73, 115
9, 154076, Note_off_c, 7, 73, 64
9, 154080, Note_on_c, 7, 74, 115
9, 154080, Note_on_c, 7, 69, 115
9, 155516, Note_off_c, 7, 69, 64
9, 155516, Note_off_c, 7, 74, 64
9, 155520, Note_on_c, 7, 64, 115
9, 155996, Note_off_c, 7, 64, 64
9, 156480, Note_on_c, 7, 69, 115
9, 156716, Note_off_c, 7, 69, 64
9, 156720, Note_on_c, 7, 69, 115
9, 156956, Note_off_c, 7, 69, 64
9, 156960, Note_on_c, 7, 71, 115
9, 157196, Note_off_c, 7, 71, 64
9, 157200, Note_on_c, 7, 76, 115
9, 157676, Note_off_c, 7, 76, 64
9, 157680, Note_on_c, 7, 72, 115
9, 157916, Note_off_c, 7, 72, 64
9, 157920, Note_on_c, 7, 73, 115
9, 158876, Note_off_c, 7, 73, 64
9, 158880, Note_on_c, 7, 73, 115
9, 158880, Note_on_c, 7, 73, 115
9, 159356, Note_off_c, 7, 73, 64
9, 159356, Note_off_c, 7, 73, 64
9, 159360, Note_on_c, 7, 73, 115
9, 159596, Note_off_c, 7, 73, 64
9, 159600, Note_on_c, 7, 74, 115
9, 160076, Note_off_c, 7, 74, 64
9, 160080, Note_on_c, 7, 71, 115
9, 160796, Note_off_c, 7, 71, 64
9, 160800, Note_on_c, 7, 69, 115
9, 161276, Note_off_c, 7, 69, 64
9, 161280, Note_on_c, 7, 71, 115
9, 161516, Note_off_c, 7, 71, 64
9, 161520, Note_on_c, 7, 73, 115
9, 161996, Note_off_c, 7, 73, 64
9, 162000, Note_on_c, 7, 69, 115
9, 162716, Note_off_c, 7, 69, 64
9, 162720, Note_on_c, 7, 64, 115
9, 163196, Note_off_c, 7, 64, 64
9, 163200, Note_on_c, 7, 76, 115
9, 167040, Note_off_c, 7, 76, 64
9, 167040, Note_on_c, 7, 81, 105
9, 170872, Note_off_c, 7, 81, 64
9, 170880, Note_on_c, 7, 81, 90
9, 174712, Note_off_c, 7, 81, 64
9, 174720, Note_on_c, 7, 81, 62
9, 178552, Note_off_c, 7, 81, 64
9, 178560, Note_on_c, 7, 81, 26
9, 182392, Note_off_c, 7, 81, 64
9, 182392, End_track
10, 0, Start_track
10, 0, Title_t, "Bass Drum"
10, 0, MIDI_port, 0
10, 0, Channel_prefix, 9
10, 0, Control_c, 9, 7, 127
10, 0, Control_c, 9, 10, 64
10, 0, Control_c, 9, 91, 127
10, 0, Control_c, 9, 93, 0
10, 0, Program_c, 9, 32
10, 1920, Note_on_c, 9, 35, 125
10, 2052, Note_off_c, 9, 35, 64
10, 3840, Note_on_c, 9, 35, 125
10, 3972, Note_off_c, 9, 35, 64
10, 4800, Note_on_c, 9, 35, 125
10, 4880, Note_off_c, 9, 35, 64
10, 5760, Note_on_c, 9, 35, 125
10, 5892, Note_off_c, 9, 35, 64
10, 7680, Note_on_c, 9, 35, 125
10, 7812, Note_off_c, 9, 35, 64
10, 8640, Note_on_c, 9, 35, 125
10, 8720, Note_off_c, 9, 35, 64
10, 8880, Note_on_c, 9, 35, 125
10, 8960, Note_off_c, 9, 35, 64
10, 9600, Note_on_c, 9, 35, 125
10, 9600, Control_c, 9, 50, 114
10, 9732, Note_off_c, 9, 35, 64
10, 11520, Note_on_c, 9, 35, 125
10, 11652, Note_off_c, 9, 35, 64
10, 12480, Note_on_c, 9, 35, 125
10, 12560, Note_off_c, 9, 35, 64
10, 13440, Note_on_c, 9, 35, 125
10, 13572, Note_off_c, 9, 35, 64
10, 15360, Note_on_c, 9, 35, 125
10, 15492, Note_off_c, 9, 35, 64
10, 16320, Note_on_c, 9, 35, 125
10, 16400, Note_off_c, 9, 35, 64
10, 16560, Note_on_c, 9, 35, 125
10, 16640, Note_off_c, 9, 35, 64
10, 17280, Note_on_c, 9, 35, 125
10, 17412, Note_off_c, 9, 35, 64
10, 19200, Note_on_c, 9, 35, 125
10, 19332, Note_off_c, 9, 35, 64
10, 20160, Note_on_c, 9, 35, 125
10, 20240, Note_off_c, 9, 35, 64
10, 21120, Note_on_c, 9, 35, 125
10, 21252, Note_off_c, 9, 35, 64
10, 23040, Note_on_c, 9, 35, 125
10, 23172, Note_off_c, 9, 35, 64
10, 24000, Note_on_c, 9, 35, 125
10, 24080, Note_off_c, 9, 35, 64
10, 24240, Note_on_c, 9, 35, 125
10, 24320, Note_off_c, 9, 35, 64
10, 24960, Note_on_c, 9, 35, 125
10, 25092, Note_off_c, 9, 35, 64
10, 26880, Note_on_c, 9, 35, 125
10, 27012, Note_off_c, 9, 35, 64
10, 27840, Note_on_c, 9, 35, 125
10, 27920, Note_off_c, 9, 35, 64
10, 28800, Note_on_c, 9, 35, 125
10, 28932, Note_off_c, 9, 35, 64
10, 30720, Note_on_c, 9, 35, 125
10, 30852, Note_off_c, 9, 35, 64
10, 31680, Note_on_c, 9, 35, 125
10, 31760, Note_off_c, 9, 35, 64
10, 31920, Note_on_c, 9, 35, 125
10, 32000, Note_off_c, 9, 35, 64
10, 32480, Note_on_c, 9, 35, 125
10, 32560, Note_off_c, 9, 35, 64
10, 32640, Note_on_c, 9, 35, 125
10, 32772, Note_off_c, 9, 35, 64
10, 34560, Note_on_c, 9, 35, 125
10, 34692, Note_off_c, 9, 35, 64
10, 35520, Note_on_c, 9, 35, 125
10, 35600, Note_off_c, 9, 35, 64
10, 36480, Note_on_c, 9, 35, 125
10, 36612, Note_off_c, 9, 35, 64
10, 38400, Note_on_c, 9, 35, 125
10, 38532, Note_off_c, 9, 35, 64
10, 39360, Note_on_c, 9, 35, 125
10, 39440, Note_off_c, 9, 35, 64
10, 39600, Note_on_c, 9, 35, 125
10, 39680, Note_off_c, 9, 35, 64
10, 40320, Note_on_c, 9, 35, 125
10, 40452, Note_off_c, 9, 35, 64
10, 42240, Note_on_c, 9, 35, 125
10, 42372, Note_off_c, 9, 35, 64
10, 43200, Note_on_c, 9, 35, 125
10, 43280, Note_off_c, 9, 35, 64
10, 44160, Note_on_c, 9, 35, 125
10, 44292, Note_off_c, 9, 35, 64
10, 46080, Note_on_c, 9, 35, 125
10, 46212, Note_off_c, 9, 35, 64
10, 47040, Note_on_c, 9, 35, 125
10, 47120, Note_off_c, 9, 35, 64
10, 47280, Note_on_c, 9, 35, 125
10, 47360, Note_off_c, 9, 35, 64
10, 48000, Note_on_c, 9, 35, 125
10, 48132, Note_off_c, 9, 35, 64
10, 49920, Note_on_c, 9, 35, 125
10, 50052, Note_off_c, 9, 35, 64
10, 50880, Note_on_c, 9, 35, 125
10, 50960, Note_off_c, 9, 35, 64
10, 51840, Note_on_c, 9, 35, 125
10, 51972, Note_off_c, 9, 35, 64
10, 53760, Note_on_c, 9, 35, 125
10, 53892, Note_off_c, 9, 35, 64
10, 54720, Note_on_c, 9, 35, 125
10, 54800, Note_off_c, 9, 35, 64
10, 54960, Note_on_c, 9, 35, 125
10, 55040, Note_off_c, 9, 35, 64
10, 55680, Note_on_c, 9, 35, 125
10, 55812, Note_off_c, 9, 35, 64
10, 57600, Note_on_c, 9, 35, 125
10, 57732, Note_off_c, 9, 35, 64
10, 58560, Note_on_c, 9, 35, 125
10, 58640, Note_off_c, 9, 35, 64
10, 59520, Note_on_c, 9, 35, 125
10, 59652, Note_off_c, 9, 35, 64
10, 61440, Note_on_c, 9, 35, 125
10, 61572, Note_off_c, 9, 35, 64
10, 62400, Note_on_c, 9, 35, 125
10, 62480, Note_off_c, 9, 35, 64
10, 62640, Note_on_c, 9, 35, 125
10, 62720, Note_off_c, 9, 35, 64
10, 63360, Note_on_c, 9, 35, 125
10, 63492, Note_off_c, 9, 35, 64
10, 65280, Note_on_c, 9, 35, 125
10, 65412, Note_off_c, 9, 35, 64
10, 66240, Note_on_c, 9, 35, 125
10, 66320, Note_off_c, 9, 35, 64
10, 67200, Note_on_c, 9, 35, 125
10, 67332, Note_off_c, 9, 35, 64
10, 69120, Note_on_c, 9, 35, 125
10, 69252, Note_off_c, 9, 35, 64
10, 70080, Note_on_c, 9, 35, 125
10, 70160, Note_off_c, 9, 35, 64
10, 70320, Note_on_c, 9, 35, 125
10, 70400, Note_off_c, 9, 35, 64
10, 71040, Note_on_c, 9, 35, 125
10, 71040, Control_c, 9, 50, 114
10, 71172, Note_off_c, 9, 35, 64
10, 72960, Note_on_c, 9, 35, 125
10, 73092, Note_off_c, 9, 35, 64
10, 73920, Note_on_c, 9, 35, 125
10, 74000, Note_off_c, 9, 35, 64
10, 74880, Note_on_c, 9, 35, 125
10, 75012, Note_off_c, 9, 35, 64
10, 76800, Note_on_c, 9, 35, 125
10, 76932, Note_off_c, 9, 35, 64
10, 77760, Note_on_c, 9, 35, 125
10, 77840, Note_off_c, 9, 35, 64
10, 78000, Note_on_c, 9, 35, 125
10, 78080, Note_off_c, 9, 35, 64
10, 78720, Note_on_c, 9, 35, 125
10, 78852, Note_off_c, 9, 35, 64
10, 80640, Note_on_c, 9, 35, 125
10, 80772, Note_off_c, 9, 35, 64
10, 81600, Note_on_c, 9, 35, 125
10, 81680, Note_off_c, 9, 35, 64
10, 82560, Note_on_c, 9, 35, 125
10, 82692, Note_off_c, 9, 35, 64
10, 84480, Note_on_c, 9, 35, 125
10, 84612, Note_off_c, 9, 35, 64
10, 85440, Note_on_c, 9, 35, 125
10, 85520, Note_off_c, 9, 35, 64
10, 85680, Note_on_c, 9, 35, 125
10, 85760, Note_off_c, 9, 35, 64
10, 86400, Note_on_c, 9, 35, 125
10, 86532, Note_off_c, 9, 35, 64
10, 88320, Note_on_c, 9, 35, 125
10, 88452, Note_off_c, 9, 35, 64
10, 89280, Note_on_c, 9, 35, 125
10, 89360, Note_off_c, 9, 35, 64
10, 90240, Note_on_c, 9, 35, 125
10, 90372, Note_off_c, 9, 35, 64
10, 92160, Note_on_c, 9, 35, 125
10, 92292, Note_off_c, 9, 35, 64
10, 93120, Note_on_c, 9, 35, 125
10, 93200, Note_off_c, 9, 35, 64
10, 93360, Note_on_c, 9, 35, 125
10, 93440, Note_off_c, 9, 35, 64
10, 93920, Note_on_c, 9, 35, 125
10, 94000, Note_off_c, 9, 35, 64
10, 94080, Note_on_c, 9, 35, 125
10, 94212, Note_off_c, 9, 35, 64
10, 96000, Note_on_c, 9, 35, 125
10, 96132, Note_off_c, 9, 35, 64
10, 96960, Note_on_c, 9, 35, 125
10, 97040, Note_off_c, 9, 35, 64
10, 97920, Note_on_c, 9, 35, 125
10, 98052, Note_off_c, 9, 35, 64
10, 99840, Note_on_c, 9, 35, 125
10, 99972, Note_off_c, 9, 35, 64
10, 100800, Note_on_c, 9, 35, 125
10, 100880, Note_off_c, 9, 35, 64
10, 101040, Note_on_c, 9, 35, 125
10, 101120, Note_off_c, 9, 35, 64
10, 101760, Note_on_c, 9, 35, 125
10, 101892, Note_off_c, 9, 35, 64
10, 103680, Note_on_c, 9, 35, 125
10, 103812, Note_off_c, 9, 35, 64
10, 104640, Note_on_c, 9, 35, 125
10, 104720, Note_off_c, 9, 35, 64
10, 105600, Note_on_c, 9, 35, 125
10, 105732, Note_off_c, 9, 35, 64
10, 107520, Note_on_c, 9, 35, 125
10, 107652, Note_off_c, 9, 35, 64
10, 108480, Note_on_c, 9, 35, 125
10, 108560, Note_off_c, 9, 35, 64
10, 108720, Note_on_c, 9, 35, 125
10, 108800, Note_off_c, 9, 35, 64
10, 109440, Note_on_c, 9, 35, 125
10, 109572, Note_off_c, 9, 35, 64
10, 111360, Note_on_c, 9, 35, 125
10, 111492, Note_off_c, 9, 35, 64
10, 112320, Note_on_c, 9, 35, 125
10, 112400, Note_off_c, 9, 35, 64
10, 113280, Note_on_c, 9, 35, 125
10, 113412, Note_off_c, 9, 35, 64
10, 115200, Note_on_c, 9, 35, 125
10, 115332, Note_off_c, 9, 35, 64
10, 116160, Note_on_c, 9, 35, 125
10, 116240, Note_off_c, 9, 35, 64
10, 116400, Note_on_c, 9, 35, 125
10, 116480, Note_off_c, 9, 35, 64
10, 117120, Note_on_c, 9, 35, 125
10, 117252, Note_off_c, 9, 35, 64
10, 119040, Note_on_c, 9, 35, 125
10, 119172, Note_off_c, 9, 35, 64
10, 120000, Note_on_c, 9, 35, 125
10, 120080, Note_off_c, 9, 35, 64
10, 120960, Note_on_c, 9, 35, 125
10, 121092, Note_off_c, 9, 35, 64
10, 122880, Note_on_c, 9, 35, 125
10, 123012, Note_off_c, 9, 35, 64
10, 123840, Note_on_c, 9, 35, 125
10, 123920, Note_off_c, 9, 35, 64
10, 124080, Note_on_c, 9, 35, 125
10, 124160, Note_off_c, 9, 35, 64
10, 124800, Note_on_c, 9, 35, 125
10, 124932, Note_off_c, 9, 35, 64
10, 126720, Note_on_c, 9, 35, 125
10, 126852, Note_off_c, 9, 35, 64
10, 127680, Note_on_c, 9, 35, 125
10, 127760, Note_off_c, 9, 35, 64
10, 128640, Note_on_c, 9, 35, 125
10, 128772, Note_off_c, 9, 35, 64
10, 130560, Note_on_c, 9, 35, 125
10, 130692, Note_off_c, 9, 35, 64
10, 131520, Note_on_c, 9, 35, 125
10, 131600, Note_off_c, 9, 35, 64
10, 131760, Note_on_c, 9, 35, 125
10, 131840, Note_off_c, 9, 35, 64
10, 132480, Note_on_c, 9, 35, 125
10, 132480, Control_c, 9, 50, 114
10, 132612, Note_off_c, 9, 35, 64
10, 134400, Note_on_c, 9, 35, 125
10, 134532, Note_off_c, 9, 35, 64
10, 135360, Note_on_c, 9, 35, 125
10, 135440, Note_off_c, 9, 35, 64
10, 136320, Note_on_c, 9, 35, 125
10, 136452, Note_off_c, 9, 35, 64
10, 138240, Note_on_c, 9, 35, 125
10, 138372, Note_off_c, 9, 35, 64
10, 139200, Note_on_c, 9, 35, 125
10, 139280, Note_off_c, 9, 35, 64
10, 139440, Note_on_c, 9, 35, 125
10, 139520, Note_off_c, 9, 35, 64
10, 140160, Note_on_c, 9, 35, 125
10, 140292, Note_off_c, 9, 35, 64
10, 142080, Note_on_c, 9, 35, 125
10, 142212, Note_off_c, 9, 35, 64
10, 143040, Note_on_c, 9, 35, 125
10, 143120, Note_off_c, 9, 35, 64
10, 144000, Note_on_c, 9, 35, 125
10, 144132, Note_off_c, 9, 35, 64
10, 145920, Note_on_c, 9, 35, 125
10, 146052, Note_off_c, 9, 35, 64
10, 146880, Note_on_c, 9, 35, 125
10, 146960, Note_off_c, 9, 35, 64
10, 147120, Note_on_c, 9, 35, 125
10, 147200, Note_off_c, 9, 35, 64
10, 147840, Note_on_c, 9, 35, 125
10, 147972, Note_off_c, 9, 35, 64
10, 149760, Note_on_c, 9, 35, 125
10, 149892, Note_off_c, 9, 35, 64
10, 150720, Note_on_c, 9, 35, 125
10, 150800, Note_off_c, 9, 35, 64
10, 151680, Note_on_c, 9, 35, 125
10, 151812, Note_off_c, 9, 35, 64
10, 153600, Note_on_c, 9, 35, 125
10, 153732, Note_off_c, 9, 35, 64
10, 154560, Note_on_c, 9, 35, 125
10, 154640, Note_off_c, 9, 35, 64
10, 154800, Note_on_c, 9, 35, 125
10, 154880, Note_off_c, 9, 35, 64
10, 155360, Note_on_c, 9, 35, 125
10, 155440, Note_off_c, 9, 35, 64
10, 155520, Note_on_c, 9, 35, 125
10, 155652, Note_off_c, 9, 35, 64
10, 157440, Note_on_c, 9, 35, 125
10, 157572, Note_off_c, 9, 35, 64
10, 158400, Note_on_c, 9, 35, 125
10, 158480, Note_off_c, 9, 35, 64
10, 159360, Note_on_c, 9, 35, 125
10, 159492, Note_off_c, 9, 35, 64
10, 161280, Note_on_c, 9, 35, 125
10, 161412, Note_off_c, 9, 35, 64
10, 162240, Note_on_c, 9, 35, 125
10, 162320, Note_off_c, 9, 35, 64
10, 162480, Note_on_c, 9, 35, 125
10, 162560, Note_off_c, 9, 35, 64
10, 163200, Note_on_c, 9, 35, 125
10, 163332, Note_off_c, 9, 35, 64
10, 165120, Note_on_c, 9, 35, 125
10, 165252, Note_off_c, 9, 35, 64
10, 166080, Note_on_c, 9, 35, 125
10, 166160, Note_off_c, 9, 35, 64
10, 167040, Note_on_c, 9, 35, 125
10, 167172, Note_off_c, 9, 35, 64
10, 168960, Note_on_c, 9, 35, 125
10, 169092, Note_off_c, 9, 35, 64
10, 169920, Note_on_c, 9, 35, 125
10, 170000, Note_off_c, 9, 35, 64
10, 170160, Note_on_c, 9, 35, 125
10, 170240, Note_off_c, 9, 35, 64
10, 170880, Note_on_c, 9, 35, 117
10, 171012, Note_off_c, 9, 35, 64
10, 172800, Note_on_c, 9, 35, 98
10, 172932, Note_off_c, 9, 35, 64
10, 173760, Note_on_c, 9, 35, 88
10, 173840, Note_off_c, 9, 35, 64
10, 174720, Note_on_c, 9, 35, 78
10, 174852, Note_off_c, 9, 35, 64
10, 176640, Note_on_c, 9, 35, 59
10, 176772, Note_off_c, 9, 35, 64
10, 177600, Note_on_c, 9, 35, 49
10, 177680, Note_off_c, 9, 35, 64
10, 177840, Note_on_c, 9, 35, 47
10, 177920, Note_off_c, 9, 35, 64
10, 178560, Note_on_c, 9, 35, 39
10, 178692, Note_off_c, 9, 35, 64
10, 180480, Note_on_c, 9, 35, 20
10, 180612, Note_off_c, 9, 35, 64
10, 181440, Note_on_c, 9, 35, 10
10, 181520, Note_off_c, 9, 35, 64
10, 181520, End_track
11, 0, Start_track
11, 0, Title_t, "Snare "
11, 0, MIDI_port, 0
11, 0, Channel_prefix, 9
11, 0, Control_c, 9, 7, 127
11, 0, Control_c, 9, 10, 64
11, 0, Control_c, 9, 91, 127
11, 0, Control_c, 9, 93, 0
11, 0, Program_c, 9, 32
11, 2400, Note_on_c, 9, 38, 125
11, 2480, Note_off_c, 9, 38, 64
11, 2640, Note_on_c, 9, 38, 125
11, 2712, Note_off_c, 9, 38, 64
11, 3360, Note_on_c, 9, 38, 125
11, 3432, Note_off_c, 9, 38, 64
11, 4320, Note_on_c, 9, 38, 125
11, 4392, Note_off_c, 9, 38, 64
11, 4560, Note_on_c, 9, 38, 125
11, 4640, Note_off_c, 9, 38, 64
11, 5280, Note_on_c, 9, 38, 125
11, 5352, Note_off_c, 9, 38, 64
11, 6240, Note_on_c, 9, 38, 125
11, 6320, Note_off_c, 9, 38, 64
11, 6480, Note_on_c, 9, 38, 125
11, 6552, Note_off_c, 9, 38, 64
11, 7200, Note_on_c, 9, 38, 125
11, 7272, Note_off_c, 9, 38, 64
11, 8160, Note_on_c, 9, 38, 125
11, 8232, Note_off_c, 9, 38, 64
11, 8400, Note_on_c, 9, 38, 125
11, 8480, Note_off_c, 9, 38, 64
11, 9120, Note_on_c, 9, 38, 125
11, 9200, Note_off_c, 9, 38, 64
11, 10080, Note_on_c, 9, 38, 125
11, 10160, Note_off_c, 9, 38, 64
11, 10320, Note_on_c, 9, 38, 125
11, 10392, Note_off_c, 9, 38, 64
11, 11040, Note_on_c, 9, 38, 125
11, 11112, Note_off_c, 9, 38, 64
11, 12000, Note_on_c, 9, 38, 125
11, 12072, Note_off_c, 9, 38, 64
11, 12240, Note_on_c, 9, 38, 125
11, 12320, Note_off_c, 9, 38, 64
11, 12960, Note_on_c, 9, 38, 125
11, 13032, Note_off_c, 9, 38, 64
11, 13920, Note_on_c, 9, 38, 125
11, 14000, Note_off_c, 9, 38, 64
11, 14160, Note_on_c, 9, 38, 125
11, 14232, Note_off_c, 9, 38, 64
11, 14880, Note_on_c, 9, 38, 125
11, 14952, Note_off_c, 9, 38, 64
11, 15840, Note_on_c, 9, 38, 125
11, 15912, Note_off_c, 9, 38, 64
11, 16080, Note_on_c, 9, 38, 125
11, 16160, Note_off_c, 9, 38, 64
11, 16560, Note_on_c, 9, 38, 125
11, 16640, Note_off_c, 9, 38, 64
11, 16680, Note_on_c, 9, 38, 125
11, 16760, Note_off_c, 9, 38, 64
11, 16800, Note_on_c, 9, 38, 125
11, 16872, Note_off_c, 9, 38, 64
11, 17760, Note_on_c, 9, 38, 125
11, 17840, Note_off_c, 9, 38, 64
11, 18000, Note_on_c, 9, 38, 125
11, 18072, Note_off_c, 9, 38, 64
11, 18720, Note_on_c, 9, 38, 125
11, 18792, Note_off_c, 9, 38, 64
11, 19680, Note_on_c, 9, 38, 125
11, 19752, Note_off_c, 9, 38, 64
11, 19920, Note_on_c, 9, 38, 125
11, 20000, Note_off_c, 9, 38, 64
11, 20640, Note_on_c, 9, 38, 125
11, 20712, Note_off_c, 9, 38, 64
11, 21600, Note_on_c, 9, 38, 125
11, 21680, Note_off_c, 9, 38, 64
11, 21840, Note_on_c, 9, 38, 125
11, 21912, Note_off_c, 9, 38, 64
11, 22560, Note_on_c, 9, 38, 125
11, 22632, Note_off_c, 9, 38, 64
11, 23520, Note_on_c, 9, 38, 125
11, 23592, Note_off_c, 9, 38, 64
11, 23760, Note_on_c, 9, 38, 125
11, 23840, Note_off_c, 9, 38, 64
11, 24480, Note_on_c, 9, 38, 125
11, 24552, Note_off_c, 9, 38, 64
11, 25440, Note_on_c, 9, 38, 125
11, 25520, Note_off_c, 9, 38, 64
11, 25680, Note_on_c, 9, 38, 125
11, 25752, Note_off_c, 9, 38, 64
11, 26400, Note_on_c, 9, 38, 125
11, 26472, Note_off_c, 9, 38, 64
11, 27360, Note_on_c, 9, 38, 125
11, 27432, Note_off_c, 9, 38, 64
11, 27600, Note_on_c, 9, 38, 125
11, 27680, Note_off_c, 9, 38, 64
11, 28320, Note_on_c, 9, 38, 125
11, 28392, Note_off_c, 9, 38, 64
11, 29280, Note_on_c, 9, 38, 125
11, 29360, Note_off_c, 9, 38, 64
11, 29520, Note_on_c, 9, 38, 125
11, 29592, Note_off_c, 9, 38, 64
11, 30240, Note_on_c, 9, 38, 125
11, 30312, Note_off_c, 9, 38, 64
11, 31200, Note_on_c, 9, 38, 125
11, 31272, Note_off_c, 9, 38, 64
11, 31560, Note_on_c, 9, 38, 125
11, 31632, Note_off_c, 9, 38, 64
11, 33120, Note_on_c, 9, 38, 125
11, 33200, Note_off_c, 9, 38, 64
11, 33360, Note_on_c, 9, 38, 125
11, 33432, Note_off_c, 9, 38, 64
11, 34080, Note_on_c, 9, 38, 125
11, 34152, Note_off_c, 9, 38, 64
11, 35040, Note_on_c, 9, 38, 125
11, 35112, Note_off_c, 9, 38, 64
11, 35280, Note_on_c, 9, 38, 125
11, 35360, Note_off_c, 9, 38, 64
11, 36000, Note_on_c, 9, 38, 125
11, 36072, Note_off_c, 9, 38, 64
11, 36960, Note_on_c, 9, 38, 125
11, 37040, Note_off_c, 9, 38, 64
11, 37200, Note_on_c, 9, 38, 125
11, 37272, Note_off_c, 9, 38, 64
11, 37920, Note_on_c, 9, 38, 125
11, 37992, Note_off_c, 9, 38, 64
11, 38880, Note_on_c, 9, 38, 125
11, 38952, Note_off_c, 9, 38, 64
11, 39120, Note_on_c, 9, 38, 125
11, 39200, Note_off_c, 9, 38, 64
11, 39840, Note_on_c, 9, 38, 125
11, 39912, Note_off_c, 9, 38, 64
11, 40800, Note_on_c, 9, 38, 125
11, 40880, Note_off_c, 9, 38, 64
11, 41040, Note_on_c, 9, 38, 125
11, 41112, Note_off_c, 9, 38, 64
11, 41760, Note_on_c, 9, 38, 125
11, 41832, Note_off_c, 9, 38, 64
11, 42720, Note_on_c, 9, 38, 125
11, 42792, Note_off_c, 9, 38, 64
11, 42960, Note_on_c, 9, 38, 125
11, 43040, Note_off_c, 9, 38, 64
11, 43680, Note_on_c, 9, 38, 125
11, 43752, Note_off_c, 9, 38, 64
11, 44640, Note_on_c, 9, 38, 125
11, 44720, Note_off_c, 9, 38, 64
11, 44880, Note_on_c, 9, 38, 125
11, 44952, Note_off_c, 9, 38, 64
11, 45600, Note_on_c, 9, 38, 125
11, 45672, Note_off_c, 9, 38, 64
11, 46560, Note_on_c, 9, 38, 125
11, 46632, Note_off_c, 9, 38, 64
11, 46800, Note_on_c, 9, 38, 125
11, 46880, Note_off_c, 9, 38, 64
11, 47520, Note_on_c, 9, 38, 125
11, 47592, Note_off_c, 9, 38, 64
11, 47680, Note_on_c, 9, 38, 125
11, 47760, Note_off_c, 9, 38, 64
11, 47840, Note_on_c, 9, 38, 125
11, 47920, Note_off_c, 9, 38, 64
11, 48480, Note_on_c, 9, 38, 125
11, 48560, Note_off_c, 9, 38, 64
11, 48720, Note_on_c, 9, 38, 125
11, 48792, Note_off_c, 9, 38, 64
11, 49440, Note_on_c, 9, 38, 125
11, 49512, Note_off_c, 9, 38, 64
11, 50400, Note_on_c, 9, 38, 125
11, 50472, Note_off_c, 9, 38, 64
11, 50640, Note_on_c, 9, 38, 125
11, 50720, Note_off_c, 9, 38, 64
11, 51360, Note_on_c, 9, 38, 125
11, 51432, Note_off_c, 9, 38, 64
11, 52320, Note_on_c, 9, 38, 125
11, 52400, Note_off_c, 9, 38, 64
11, 52560, Note_on_c, 9, 38, 125
11, 52632, Note_off_c, 9, 38, 64
11, 53280, Note_on_c, 9, 38, 125
11, 53352, Note_off_c, 9, 38, 64
11, 54240, Note_on_c, 9, 38, 125
11, 54312, Note_off_c, 9, 38, 64
11, 54480, Note_on_c, 9, 38, 125
11, 54560, Note_off_c, 9, 38, 64
11, 55200, Note_on_c, 9, 38, 125
11, 55272, Note_off_c, 9, 38, 64
11, 56160, Note_on_c, 9, 38, 125
11, 56240, Note_off_c, 9, 38, 64
11, 56400, Note_on_c, 9, 38, 125
11, 56472, Note_off_c, 9, 38, 64
11, 57120, Note_on_c, 9, 38, 125
11, 57192, Note_off_c, 9, 38, 64
11, 58080, Note_on_c, 9, 38, 125
11, 58152, Note_off_c, 9, 38, 64
11, 58320, Note_on_c, 9, 38, 125
11, 58400, Note_off_c, 9, 38, 64
11, 59040, Note_on_c, 9, 38, 125
11, 59112, Note_off_c, 9, 38, 64
11, 60000, Note_on_c, 9, 38, 125
11, 60080, Note_off_c, 9, 38, 64
11, 60240, Note_on_c, 9, 38, 125
11, 60312, Note_off_c, 9, 38, 64
11, 60960, Note_on_c, 9, 38, 125
11, 61032, Note_off_c, 9, 38, 64
11, 61920, Note_on_c, 9, 38, 125
11, 61992, Note_off_c, 9, 38, 64
11, 62160, Note_on_c, 9, 38, 125
11, 62240, Note_off_c, 9, 38, 64
11, 63120, Note_on_c, 9, 38, 125
11, 63192, Note_off_c, 9, 38, 64
11, 63240, Note_on_c, 9, 38, 125
11, 63320, Note_off_c, 9, 38, 64
11, 63840, Note_on_c, 9, 38, 125
11, 63920, Note_off_c, 9, 38, 64
11, 64080, Note_on_c, 9, 38, 125
11, 64152, Note_off_c, 9, 38, 64
11, 64800, Note_on_c, 9, 38, 125
11, 64872, Note_off_c, 9, 38, 64
11, 65760, Note_on_c, 9, 38, 125
11, 65832, Note_off_c, 9, 38, 64
11, 66000, Note_on_c, 9, 38, 125
11, 66080, Note_off_c, 9, 38, 64
11, 66720, Note_on_c, 9, 38, 125
11, 66792, Note_off_c, 9, 38, 64
11, 67680, Note_on_c, 9, 38, 125
11, 67760, Note_off_c, 9, 38, 64
11, 67920, Note_on_c, 9, 38, 125
11, 67992, Note_off_c, 9, 38, 64
11, 68640, Note_on_c, 9, 38, 125
11, 68712, Note_off_c, 9, 38, 64
11, 69600, Note_on_c, 9, 38, 125
11, 69672, Note_off_c, 9, 38, 64
11, 69840, Note_on_c, 9, 38, 125
11, 69920, Note_off_c, 9, 38, 64
11, 70560, Note_on_c, 9, 38, 125
11, 70640, Note_off_c, 9, 38, 64
11, 71520, Note_on_c, 9, 38, 125
11, 71600, Note_off_c, 9, 38, 64
11, 71760, Note_on_c, 9, 38, 125
11, 71832, Note_off_c, 9, 38, 64
11, 72480, Note_on_c, 9, 38, 125
11, 72552, Note_off_c, 9, 38, 64
11, 73440, Note_on_c, 9, 38, 125
11, 73512, Note_off_c, 9, 38, 64
11, 73680, Note_on_c, 9, 38, 125
11, 73760, Note_off_c, 9, 38, 64
11, 74400, Note_on_c, 9, 38, 125
11, 74472, Note_off_c, 9, 38, 64
11, 75360, Note_on_c, 9, 38, 125
11, 75440, Note_off_c, 9, 38, 64
11, 75600, Note_on_c, 9, 38, 125
11, 75672, Note_off_c, 9, 38, 64
11, 76320, Note_on_c, 9, 38, 125
11, 76392, Note_off_c, 9, 38, 64
11, 77280, Note_on_c, 9, 38, 125
11, 77352, Note_off_c, 9, 38, 64
11, 77520, Note_on_c, 9, 38, 125
11, 77600, Note_off_c, 9, 38, 64
11, 78000, Note_on_c, 9, 38, 125
11, 78080, Note_off_c, 9, 38, 64
11, 78120, Note_on_c, 9, 38, 125
11, 78200, Note_off_c, 9, 38, 64
11, 78240, Note_on_c, 9, 38, 125
11, 78312, Note_off_c, 9, 38, 64
11, 79200, Note_on_c, 9, 38, 125
11, 79280, Note_off_c, 9, 38, 64
11, 79440, Note_on_c, 9, 38, 125
11, 79512, Note_off_c, 9, 38, 64
11, 80160, Note_on_c, 9, 38, 125
11, 80232, Note_off_c, 9, 38, 64
11, 81120, Note_on_c, 9, 38, 125
11, 81192, Note_off_c, 9, 38, 64
11, 81360, Note_on_c, 9, 38, 125
11, 81440, Note_off_c, 9, 38, 64
11, 82080, Note_on_c, 9, 38, 125
11, 82152, Note_off_c, 9, 38, 64
11, 83040, Note_on_c, 9, 38, 125
11, 83120, Note_off_c, 9, 38, 64
11, 83280, Note_on_c, 9, 38, 125
11, 83352, Note_off_c, 9, 38, 64
11, 84000, Note_on_c, 9, 38, 125
11, 84072, Note_off_c, 9, 38, 64
11, 84960, Note_on_c, 9, 38, 125
11, 85032, Note_off_c, 9, 38, 64
11, 85200, Note_on_c, 9, 38, 125
11, 85280, Note_off_c, 9, 38, 64
11, 85920, Note_on_c, 9, 38, 125
11, 85992, Note_off_c, 9, 38, 64
11, 86880, Note_on_c, 9, 38, 125
11, 86960, Note_off_c, 9, 38, 64
11, 87120, Note_on_c, 9, 38, 125
11, 87192, Note_off_c, 9, 38, 64
11, 87840, Note_on_c, 9, 38, 125
11, 87912, Note_off_c, 9, 38, 64
11, 88800, Note_on_c, 9, 38, 125
11, 88872, Note_off_c, 9, 38, 64
11, 89040, Note_on_c, 9, 38, 125
11, 89120, Note_off_c, 9, 38, 64
11, 89760, Note_on_c, 9, 38, 125
11, 89832, Note_off_c, 9, 38, 64
11, 90720, Note_on_c, 9, 38, 125
11, 90800, Note_off_c, 9, 38, 64
11, 90960, Note_on_c, 9, 38, 125
11, 91032, Note_off_c, 9, 38, 64
11, 91680, Note_on_c, 9, 38, 125
11, 91752, Note_off_c, 9, 38, 64
11, 92640, Note_on_c, 9, 38, 125
11, 92712, Note_off_c, 9, 38, 64
11, 93000, Note_on_c, 9, 38, 125
11, 93072, Note_off_c, 9, 38, 64
11, 94560, Note_on_c, 9, 38, 125
11, 94640, Note_off_c, 9, 38, 64
11, 94800, Note_on_c, 9, 38, 125
11, 94872, Note_off_c, 9, 38, 64
11, 95520, Note_on_c, 9, 38, 125
11, 95592, Note_off_c, 9, 38, 64
11, 96480, Note_on_c, 9, 38, 125
11, 96552, Note_off_c, 9, 38, 64
11, 96720, Note_on_c, 9, 38, 125
11, 96800, Note_off_c, 9, 38, 64
11, 97440, Note_on_c, 9, 38, 125
11, 97512, Note_off_c, 9, 38, 64
11, 98400, Note_on_c, 9, 38, 125
11, 98480, Note_off_c, 9, 38, 64
11, 98640, Note_on_c, 9, 38, 125
11, 98712, Note_off_c, 9, 38, 64
11, 99360, Note_on_c, 9, 38, 125
11, 99432, Note_off_c, 9, 38, 64
11, 100320, Note_on_c, 9, 38, 125
11, 100392, Note_off_c, 9, 38, 64
11, 100560, Note_on_c, 9, 38, 125
11, 100640, Note_off_c, 9, 38, 64
11, 101280, Note_on_c, 9, 38, 125
11, 101352, Note_off_c, 9, 38, 64
11, 102240, Note_on_c, 9, 38, 125
11, 102320, Note_off_c, 9, 38, 64
11, 102480, Note_on_c, 9, 38, 125
11, 102552, Note_off_c, 9, 38, 64
11, 103200, Note_on_c, 9, 38, 125
11, 103272, Note_off_c, 9, 38, 64
11, 104160, Note_on_c, 9, 38, 125
11, 104232, Note_off_c, 9, 38, 64
11, 104400, Note_on_c, 9, 38, 125
11, 104480, Note_off_c, 9, 38, 64
11, 105120, Note_on_c, 9, 38, 125
11, 105192, Note_off_c, 9, 38, 64
11, 106080, Note_on_c, 9, 38, 125
11, 106160, Note_off_c, 9, 38, 64
11, 106320, Note_on_c, 9, 38, 125
11, 106392, Note_off_c, 9, 38, 64
11, 107040, Note_on_c, 9, 38, 125
11, 107112, Note_off_c, 9, 38, 64
11, 108000, Note_on_c, 9, 38, 125
11, 108072, Note_off_c, 9, 38, 64
11, 108240, Note_on_c, 9, 38, 125
11, 108320, Note_off_c, 9, 38, 64
11, 108960, Note_on_c, 9, 38, 125
11, 109032, Note_off_c, 9, 38, 64
11, 109120, Note_on_c, 9, 38, 125
11, 109200, Note_off_c, 9, 38, 64
11, 109280, Note_on_c, 9, 38, 125
11, 109360, Note_off_c, 9, 38, 64
11, 109920, Note_on_c, 9, 38, 125
11, 110000, Note_off_c, 9, 38, 64
11, 110160, Note_on_c, 9, 38, 125
11, 110232, Note_off_c, 9, 38, 64
11, 110880, Note_on_c, 9, 38, 125
11, 110952, Note_off_c, 9, 38, 64
11, 111840, Note_on_c, 9, 38, 125
11, 111912, Note_off_c, 9, 38, 64
11, 112080, Note_on_c, 9, 38, 125
11, 112160, Note_off_c, 9, 38, 64
11, 112800, Note_on_c, 9, 38, 125
11, 112872, Note_off_c, 9, 38, 64
11, 113760, Note_on_c, 9, 38, 125
11, 113840, Note_off_c, 9, 38, 64
11, 114000, Note_on_c, 9, 38, 125
11, 114072, Note_off_c, 9, 38, 64
11, 114720, Note_on_c, 9, 38, 125
11, 114792, Note_off_c, 9, 38, 64
11, 115680, Note_on_c, 9, 38, 125
11, 115752, Note_off_c, 9, 38, 64
11, 115920, Note_on_c, 9, 38, 125
11, 116000, Note_off_c, 9, 38, 64
11, 116640, Note_on_c, 9, 38, 125
11, 116712, Note_off_c, 9, 38, 64
11, 117600, Note_on_c, 9, 38, 125
11, 117680, Note_off_c, 9, 38, 64
11, 117840, Note_on_c, 9, 38, 125
11, 117912, Note_off_c, 9, 38, 64
11, 118560, Note_on_c, 9, 38, 125
11, 118632, Note_off_c, 9, 38, 64
11, 119520, Note_on_c, 9, 38, 125
11, 119592, Note_off_c, 9, 38, 64
11, 119760, Note_on_c, 9, 38, 125
11, 119840, Note_off_c, 9, 38, 64
11, 120480, Note_on_c, 9, 38, 125
11, 120552, Note_off_c, 9, 38, 64
11, 121440, Note_on_c, 9, 38, 125
11, 121520, Note_off_c, 9, 38, 64
11, 121680, Note_on_c, 9, 38, 125
11, 121752, Note_off_c, 9, 38, 64
11, 122400, Note_on_c, 9, 38, 125
11, 122472, Note_off_c, 9, 38, 64
11, 123360, Note_on_c, 9, 38, 125
11, 123432, Note_off_c, 9, 38, 64
11, 123600, Note_on_c, 9, 38, 125
11, 123680, Note_off_c, 9, 38, 64
11, 124560, Note_on_c, 9, 38, 125
11, 124632, Note_off_c, 9, 38, 64
11, 124680, Note_on_c, 9, 38, 125
11, 124760, Note_off_c, 9, 38, 64
11, 125280, Note_on_c, 9, 38, 125
11, 125360, Note_off_c, 9, 38, 64
11, 125520, Note_on_c, 9, 38, 125
11, 125592, Note_off_c, 9, 38, 64
11, 126240, Note_on_c, 9, 38, 125
11, 126312, Note_off_c, 9, 38, 64
11, 127200, Note_on_c, 9, 38, 125
11, 127272, Note_off_c, 9, 38, 64
11, 127440, Note_on_c, 9, 38, 125
11, 127520, Note_off_c, 9, 38, 64
11, 128160, Note_on_c, 9, 38, 125
11, 128232, Note_off_c, 9, 38, 64
11, 129120, Note_on_c, 9, 38, 125
11, 129200, Note_off_c, 9, 38, 64
11, 129360, Note_on_c, 9, 38, 125
11, 129432, Note_off_c, 9, 38, 64
11, 130080, Note_on_c, 9, 38, 125
11, 130152, Note_off_c, 9, 38, 64
11, 131040, Note_on_c, 9, 38, 125
11, 131112, Note_off_c, 9, 38, 64
11, 131280, Note_on_c, 9, 38, 125
11, 131360, Note_off_c, 9, 38, 64
11, 132000, Note_on_c, 9, 38, 125
11, 132080, Note_off_c, 9, 38, 64
11, 132960, Note_on_c, 9, 38, 125
11, 133040, Note_off_c, 9, 38, 64
11, 133200, Note_on_c, 9, 38, 125
11, 133272, Note_off_c, 9, 38, 64
11, 133920, Note_on_c, 9, 38, 125
11, 133992, Note_off_c, 9, 38, 64
11, 134880, Note_on_c, 9, 38, 125
11, 134952, Note_off_c, 9, 38, 64
11, 135120, Note_on_c, 9, 38, 125
11, 135200, Note_off_c, 9, 38, 64
11, 135840, Note_on_c, 9, 38, 125
11, 135912, Note_off_c, 9, 38, 64
11, 136800, Note_on_c, 9, 38, 125
11, 136880, Note_off_c, 9, 38, 64
11, 137040, Note_on_c, 9, 38, 125
11, 137112, Note_off_c, 9, 38, 64
11, 137760, Note_on_c, 9, 38, 125
11, 137832, Note_off_c, 9, 38, 64
11, 138720, Note_on_c, 9, 38, 125
11, 138792, Note_off_c, 9, 38, 64
11, 138960, Note_on_c, 9, 38, 125
11, 139040, Note_off_c, 9, 38, 64
11, 139440, Note_on_c, 9, 38, 125
11, 139520, Note_off_c, 9, 38, 64
11, 139560, Note_on_c, 9, 38, 125
11, 139640, Note_off_c, 9, 38, 64
11, 139680, Note_on_c, 9, 38, 125
11, 139752, Note_off_c, 9, 38, 64
11, 140640, Note_on_c, 9, 38, 125
11, 140720, Note_off_c, 9, 38, 64
11, 140880, Note_on_c, 9, 38, 125
11, 140952, Note_off_c, 9, 38, 64
11, 141600, Note_on_c, 9, 38, 125
11, 141672, Note_off_c, 9, 38, 64
11, 142560, Note_on_c, 9, 38, 125
11, 142632, Note_off_c, 9, 38, 64
11, 142800, Note_on_c, 9, 38, 125
11, 142880, Note_off_c, 9, 38, 64
11, 143520, Note_on_c, 9, 38, 125
11, 143592, Note_off_c, 9, 38, 64
11, 144480, Note_on_c, 9, 38, 125
11, 144560, Note_off_c, 9, 38, 64
11, 144720, Note_on_c, 9, 38, 125
11, 144792, Note_off_c, 9, 38, 64
11, 145440, Note_on_c, 9, 38, 125
11, 145512, Note_off_c, 9, 38, 64
11, 146400, Note_on_c, 9, 38, 125
11, 146472, Note_off_c, 9, 38, 64
11, 146640, Note_on_c, 9, 38, 125
11, 146720, Note_off_c, 9, 38, 64
11, 147360, Note_on_c, 9, 38, 125
11, 147432, Note_off_c, 9, 38, 64
11, 148320, Note_on_c, 9, 38, 125
11, 148400, Note_off_c, 9, 38, 64
11, 148560, Note_on_c, 9, 38, 125
11, 148632, Note_off_c, 9, 38, 64
11, 149280, Note_on_c, 9, 38, 125
11, 149352, Note_off_c, 9, 38, 64
11, 150240, Note_on_c, 9, 38, 125
11, 150312, Note_off_c, 9, 38, 64
11, 150480, Note_on_c, 9, 38, 125
11, 150560, Note_off_c, 9, 38, 64
11, 151200, Note_on_c, 9, 38, 125
11, 151272, Note_off_c, 9, 38, 64
11, 152160, Note_on_c, 9, 38, 125
11, 152240, Note_off_c, 9, 38, 64
11, 152400, Note_on_c, 9, 38, 125
11, 152472, Note_off_c, 9, 38, 64
11, 153120, Note_on_c, 9, 38, 125
11, 153192, Note_off_c, 9, 38, 64
11, 154080, Note_on_c, 9, 38, 125
11, 154152, Note_off_c, 9, 38, 64
11, 154440, Note_on_c, 9, 38, 125
11, 154512, Note_off_c, 9, 38, 64
11, 156000, Note_on_c, 9, 38, 125
11, 156080, Note_off_c, 9, 38, 64
11, 156240, Note_on_c, 9, 38, 125
11, 156312, Note_off_c, 9, 38, 64
11, 156960, Note_on_c, 9, 38, 125
11, 157032, Note_off_c, 9, 38, 64
11, 157920, Note_on_c, 9, 38, 125
11, 157992, Note_off_c, 9, 38, 64
11, 158160, Note_on_c, 9, 38, 125
11, 158240, Note_off_c, 9, 38, 64
11, 158880, Note_on_c, 9, 38, 125
11, 158952, Note_off_c, 9, 38, 64
11, 159840, Note_on_c, 9, 38, 125
11, 159920, Note_off_c, 9, 38, 64
11, 160080, Note_on_c, 9, 38, 125
11, 160152, Note_off_c, 9, 38, 64
11, 160800, Note_on_c, 9, 38, 125
11, 160872, Note_off_c, 9, 38, 64
11, 161760, Note_on_c, 9, 38, 125
11, 161832, Note_off_c, 9, 38, 64
11, 162000, Note_on_c, 9, 38, 125
11, 162080, Note_off_c, 9, 38, 64
11, 162720, Note_on_c, 9, 38, 125
11, 162792, Note_off_c, 9, 38, 64
11, 163680, Note_on_c, 9, 38, 125
11, 163760, Note_off_c, 9, 38, 64
11, 163920, Note_on_c, 9, 38, 125
11, 163992, Note_off_c, 9, 38, 64
11, 164640, Note_on_c, 9, 38, 125
11, 164712, Note_off_c, 9, 38, 64
11, 165600, Note_on_c, 9, 38, 125
11, 165672, Note_off_c, 9, 38, 64
11, 165840, Note_on_c, 9, 38, 125
11, 165920, Note_off_c, 9, 38, 64
11, 166560, Note_on_c, 9, 38, 125
11, 166632, Note_off_c, 9, 38, 64
11, 167520, Note_on_c, 9, 38, 125
11, 167600, Note_off_c, 9, 38, 64
11, 167760, Note_on_c, 9, 38, 125
11, 167832, Note_off_c, 9, 38, 64
11, 168480, Note_on_c, 9, 38, 125
11, 168552, Note_off_c, 9, 38, 64
11, 169440, Note_on_c, 9, 38, 125
11, 169512, Note_off_c, 9, 38, 64
11, 169680, Note_on_c, 9, 38, 125
11, 169760, Note_off_c, 9, 38, 64
11, 170400, Note_on_c, 9, 38, 125
11, 170472, Note_off_c, 9, 38, 64
11, 170560, Note_on_c, 9, 38, 125
11, 170640, Note_off_c, 9, 38, 64
11, 170720, Note_on_c, 9, 38, 125
11, 170800, Note_off_c, 9, 38, 64
11, 171360, Note_on_c, 9, 38, 110
11, 171440, Note_off_c, 9, 38, 64
11, 171600, Note_on_c, 9, 38, 107
11, 171672, Note_off_c, 9, 38, 64
11, 172320, Note_on_c, 9, 38, 98
11, 172392, Note_off_c, 9, 38, 64
11, 173280, Note_on_c, 9, 38, 87
11, 173352, Note_off_c, 9, 38, 64
11, 173520, Note_on_c, 9, 38, 84
11, 173600, Note_off_c, 9, 38, 64
11, 174240, Note_on_c, 9, 38, 75
11, 174312, Note_off_c, 9, 38, 64
11, 175200, Note_on_c, 9, 38, 64
11, 175280, Note_off_c, 9, 38, 64
11, 175440, Note_on_c, 9, 38, 61
11, 175512, Note_off_c, 9, 38, 64
11, 176160, Note_on_c, 9, 38, 56
11, 176232, Note_off_c, 9, 38, 64
11, 177120, Note_on_c, 9, 38, 51
11, 177192, Note_off_c, 9, 38, 64
11, 177360, Note_on_c, 9, 38, 46
11, 177440, Note_off_c, 9, 38, 64
11, 178080, Note_on_c, 9, 38, 41
11, 178152, Note_off_c, 9, 38, 64
11, 179040, Note_on_c, 9, 38, 34
11, 179120, Note_off_c, 9, 38, 64
11, 179280, Note_on_c, 9, 38, 27
11, 179352, Note_off_c, 9, 38, 64
11, 180000, Note_on_c, 9, 38, 20
11, 180072, Note_off_c, 9, 38, 64
11, 180960, Note_on_c, 9, 38, 15
11, 181032, Note_off_c, 9, 38, 64
11, 181200, Note_on_c, 9, 38, 10
11, 181280, Note_off_c, 9, 38, 64
11, 181920, Note_on_c, 9, 38, 6
11, 181992, Note_off_c, 9, 38, 64
11, 181992, End_track
12, 0, Start_track
12, 0, Title_t, "High Hat"
12, 0, MIDI_port, 0
12, 0, Channel_prefix, 9
12, 0, Control_c, 9, 7, 127
12, 0, Control_c, 9, 10, 64
12, 0, Control_c, 9, 91, 127
12, 0, Control_c, 9, 93, 0
12, 0, Program_c, 9, 32
12, 1920, Note_on_c, 9, 42, 125
12, 2000, Note_off_c, 9, 42, 64
12, 2160, Note_on_c, 9, 42, 125
12, 2240, Note_off_c, 9, 42, 64
12, 2400, Note_on_c, 9, 42, 125
12, 2480, Note_off_c, 9, 42, 64
12, 2640, Note_on_c, 9, 42, 125
12, 2720, Note_off_c, 9, 42, 64
12, 2880, Note_on_c, 9, 42, 125
12, 2960, Note_off_c, 9, 42, 64
12, 3120, Note_on_c, 9, 42, 125
12, 3200, Note_off_c, 9, 42, 64
12, 3360, Note_on_c, 9, 42, 125
12, 3440, Note_off_c, 9, 42, 64
12, 3600, Note_on_c, 9, 42, 125
12, 3680, Note_off_c, 9, 42, 64
12, 3840, Note_on_c, 9, 42, 125
12, 3920, Note_off_c, 9, 42, 64
12, 4080, Note_on_c, 9, 42, 125
12, 4160, Note_off_c, 9, 42, 64
12, 4320, Note_on_c, 9, 42, 125
12, 4400, Note_off_c, 9, 42, 64
12, 4560, Note_on_c, 9, 42, 125
12, 4640, Note_off_c, 9, 42, 64
12, 4800, Note_on_c, 9, 42, 125
12, 4880, Note_off_c, 9, 42, 64
12, 5040, Note_on_c, 9, 42, 125
12, 5120, Note_off_c, 9, 42, 64
12, 5280, Note_on_c, 9, 42, 125
12, 5360, Note_off_c, 9, 42, 64
12, 5520, Note_on_c, 9, 42, 125
12, 5600, Note_off_c, 9, 42, 64
12, 5760, Note_on_c, 9, 42, 125
12, 5840, Note_off_c, 9, 42, 64
12, 6000, Note_on_c, 9, 42, 125
12, 6080, Note_off_c, 9, 42, 64
12, 6240, Note_on_c, 9, 42, 125
12, 6320, Note_off_c, 9, 42, 64
12, 6480, Note_on_c, 9, 42, 125
12, 6560, Note_off_c, 9, 42, 64
12, 6720, Note_on_c, 9, 42, 125
12, 6800, Note_off_c, 9, 42, 64
12, 6960, Note_on_c, 9, 42, 125
12, 7040, Note_off_c, 9, 42, 64
12, 7200, Note_on_c, 9, 42, 125
12, 7280, Note_off_c, 9, 42, 64
12, 7440, Note_on_c, 9, 42, 125
12, 7520, Note_off_c, 9, 42, 64
12, 7680, Note_on_c, 9, 42, 125
12, 7760, Note_off_c, 9, 42, 64
12, 7920, Note_on_c, 9, 42, 125
12, 8000, Note_off_c, 9, 42, 64
12, 8160, Note_on_c, 9, 42, 125
12, 8240, Note_off_c, 9, 42, 64
12, 8400, Note_on_c, 9, 42, 125
12, 8480, Note_off_c, 9, 42, 64
12, 8640, Note_on_c, 9, 42, 125
12, 8720, Note_off_c, 9, 42, 64
12, 8880, Note_on_c, 9, 42, 125
12, 8960, Note_off_c, 9, 42, 64
12, 9120, Note_on_c, 9, 42, 125
12, 9200, Note_off_c, 9, 42, 64
12, 9360, Note_on_c, 9, 42, 125
12, 9440, Note_off_c, 9, 42, 64
12, 9600, Note_on_c, 9, 42, 125
12, 9680, Note_off_c, 9, 42, 64
12, 9840, Note_on_c, 9, 42, 125
12, 9920, Note_off_c, 9, 42, 64
12, 10080, Note_on_c, 9, 42, 125
12, 10160, Note_off_c, 9, 42, 64
12, 10320, Note_on_c, 9, 42, 125
12, 10400, Note_off_c, 9, 42, 64
12, 10560, Note_on_c, 9, 42, 125
12, 10640, Note_off_c, 9, 42, 64
12, 10800, Note_on_c, 9, 42, 125
12, 10880, Note_off_c, 9, 42, 64
12, 11040, Note_on_c, 9, 42, 125
12, 11120, Note_off_c, 9, 42, 64
12, 11280, Note_on_c, 9, 42, 125
12, 11360, Note_off_c, 9, 42, 64
12, 11520, Note_on_c, 9, 42, 125
12, 11600, Note_off_c, 9, 42, 64
12, 11760, Note_on_c, 9, 42, 125
12, 11840, Note_off_c, 9, 42, 64
12, 12000, Note_on_c, 9, 42, 125
12, 12080, Note_off_c, 9, 42, 64
12, 12240, Note_on_c, 9, 42, 125
12, 12320, Note_off_c, 9, 42, 64
12, 12480, Note_on_c, 9, 42, 125
12, 12560, Note_off_c, 9, 42, 64
12, 12720, Note_on_c, 9, 42, 125
12, 12800, Note_off_c, 9, 42, 64
12, 12960, Note_on_c, 9, 42, 125
12, 13040, Note_off_c, 9, 42, 64
12, 13200, Note_on_c, 9, 42, 125
12, 13280, Note_off_c, 9, 42, 64
12, 13440, Note_on_c, 9, 42, 125
12, 13520, Note_off_c, 9, 42, 64
12, 13680, Note_on_c, 9, 42, 125
12, 13760, Note_off_c, 9, 42, 64
12, 13920, Note_on_c, 9, 42, 125
12, 14000, Note_off_c, 9, 42, 64
12, 14160, Note_on_c, 9, 42, 125
12, 14240, Note_off_c, 9, 42, 64
12, 14400, Note_on_c, 9, 42, 125
12, 14480, Note_off_c, 9, 42, 64
12, 14640, Note_on_c, 9, 42, 125
12, 14720, Note_off_c, 9, 42, 64
12, 14880, Note_on_c, 9, 42, 125
12, 14960, Note_off_c, 9, 42, 64
12, 15120, Note_on_c, 9, 42, 125
12, 15200, Note_off_c, 9, 42, 64
12, 15360, Note_on_c, 9, 42, 125
12, 15440, Note_off_c, 9, 42, 64
12, 15600, Note_on_c, 9, 42, 125
12, 15680, Note_off_c, 9, 42, 64
12, 15840, Note_on_c, 9, 42, 125
12, 15920, Note_off_c, 9, 42, 64
12, 16080, Note_on_c, 9, 42, 125
12, 16160, Note_off_c, 9, 42, 64
12, 16320, Note_on_c, 9, 42, 125
12, 16400, Note_off_c, 9, 42, 64
12, 16560, Note_on_c, 9, 42, 125
12, 16640, Note_off_c, 9, 42, 64
12, 16800, Note_on_c, 9, 42, 125
12, 16880, Note_off_c, 9, 42, 64
12, 17040, Note_on_c, 9, 42, 125
12, 17120, Note_off_c, 9, 42, 64
12, 17280, Note_on_c, 9, 42, 125
12, 17360, Note_off_c, 9, 42, 64
12, 17520, Note_on_c, 9, 42, 125
12, 17600, Note_off_c, 9, 42, 64
12, 17760, Note_on_c, 9, 42, 125
12, 17840, Note_off_c, 9, 42, 64
12, 18000, Note_on_c, 9, 42, 125
12, 18080, Note_off_c, 9, 42, 64
12, 18240, Note_on_c, 9, 42, 125
12, 18320, Note_off_c, 9, 42, 64
12, 18480, Note_on_c, 9, 42, 125
12, 18560, Note_off_c, 9, 42, 64
12, 18720, Note_on_c, 9, 42, 125
12, 18800, Note_off_c, 9, 42, 64
12, 18960, Note_on_c, 9, 42, 125
12, 19040, Note_off_c, 9, 42, 64
12, 19200, Note_on_c, 9, 42, 125
12, 19280, Note_off_c, 9, 42, 64
12, 19440, Note_on_c, 9, 42, 125
12, 19520, Note_off_c, 9, 42, 64
12, 19680, Note_on_c, 9, 42, 125
12, 19760, Note_off_c, 9, 42, 64
12, 19920, Note_on_c, 9, 42, 125
12, 20000, Note_off_c, 9, 42, 64
12, 20160, Note_on_c, 9, 42, 125
12, 20240, Note_off_c, 9, 42, 64
12, 20400, Note_on_c, 9, 42, 125
12, 20480, Note_off_c, 9, 42, 64
12, 20640, Note_on_c, 9, 42, 125
12, 20720, Note_off_c, 9, 42, 64
12, 20880, Note_on_c, 9, 42, 125
12, 20960, Note_off_c, 9, 42, 64
12, 21120, Note_on_c, 9, 42, 125
12, 21200, Note_off_c, 9, 42, 64
12, 21360, Note_on_c, 9, 42, 125
12, 21440, Note_off_c, 9, 42, 64
12, 21600, Note_on_c, 9, 42, 125
12, 21680, Note_off_c, 9, 42, 64
12, 21840, Note_on_c, 9, 42, 125
12, 21920, Note_off_c, 9, 42, 64
12, 22080, Note_on_c, 9, 42, 125
12, 22160, Note_off_c, 9, 42, 64
12, 22320, Note_on_c, 9, 42, 125
12, 22400, Note_off_c, 9, 42, 64
12, 22560, Note_on_c, 9, 42, 125
12, 22640, Note_off_c, 9, 42, 64
12, 22800, Note_on_c, 9, 42, 125
12, 22880, Note_off_c, 9, 42, 64
12, 23040, Note_on_c, 9, 42, 125
12, 23120, Note_off_c, 9, 42, 64
12, 23280, Note_on_c, 9, 42, 125
12, 23360, Note_off_c, 9, 42, 64
12, 23520, Note_on_c, 9, 42, 125
12, 23600, Note_off_c, 9, 42, 64
12, 23760, Note_on_c, 9, 42, 125
12, 23840, Note_off_c, 9, 42, 64
12, 24000, Note_on_c, 9, 42, 125
12, 24080, Note_off_c, 9, 42, 64
12, 24240, Note_on_c, 9, 42, 125
12, 24320, Note_off_c, 9, 42, 64
12, 24480, Note_on_c, 9, 42, 125
12, 24560, Note_off_c, 9, 42, 64
12, 24720, Note_on_c, 9, 42, 125
12, 24800, Note_off_c, 9, 42, 64
12, 24960, Note_on_c, 9, 42, 125
12, 25040, Note_off_c, 9, 42, 64
12, 25200, Note_on_c, 9, 42, 125
12, 25280, Note_off_c, 9, 42, 64
12, 25440, Note_on_c, 9, 42, 125
12, 25520, Note_off_c, 9, 42, 64
12, 25680, Note_on_c, 9, 42, 125
12, 25760, Note_off_c, 9, 42, 64
12, 25920, Note_on_c, 9, 42, 125
12, 26000, Note_off_c, 9, 42, 64
12, 26160, Note_on_c, 9, 42, 125
12, 26240, Note_off_c, 9, 42, 64
12, 26400, Note_on_c, 9, 42, 125
12, 26480, Note_off_c, 9, 42, 64
12, 26640, Note_on_c, 9, 42, 125
12, 26720, Note_off_c, 9, 42, 64
12, 26880, Note_on_c, 9, 42, 125
12, 26960, Note_off_c, 9, 42, 64
12, 27120, Note_on_c, 9, 42, 125
12, 27200, Note_off_c, 9, 42, 64
12, 27360, Note_on_c, 9, 42, 125
12, 27440, Note_off_c, 9, 42, 64
12, 27600, Note_on_c, 9, 42, 125
12, 27680, Note_off_c, 9, 42, 64
12, 27840, Note_on_c, 9, 42, 125
12, 27920, Note_off_c, 9, 42, 64
12, 28080, Note_on_c, 9, 42, 125
12, 28160, Note_off_c, 9, 42, 64
12, 28320, Note_on_c, 9, 42, 125
12, 28400, Note_off_c, 9, 42, 64
12, 28560, Note_on_c, 9, 42, 125
12, 28640, Note_off_c, 9, 42, 64
12, 28800, Note_on_c, 9, 42, 125
12, 28880, Note_off_c, 9, 42, 64
12, 29040, Note_on_c, 9, 42, 125
12, 29120, Note_off_c, 9, 42, 64
12, 29280, Note_on_c, 9, 42, 125
12, 29360, Note_off_c, 9, 42, 64
12, 29520, Note_on_c, 9, 42, 125
12, 29600, Note_off_c, 9, 42, 64
12, 29760, Note_on_c, 9, 42, 125
12, 29840, Note_off_c, 9, 42, 64
12, 30000, Note_on_c, 9, 42, 125
12, 30080, Note_off_c, 9, 42, 64
12, 30240, Note_on_c, 9, 42, 125
12, 30320, Note_off_c, 9, 42, 64
12, 30480, Note_on_c, 9, 42, 125
12, 30560, Note_off_c, 9, 42, 64
12, 30720, Note_on_c, 9, 42, 125
12, 30800, Note_off_c, 9, 42, 64
12, 30960, Note_on_c, 9, 42, 125
12, 31040, Note_off_c, 9, 42, 64
12, 31200, Note_on_c, 9, 42, 125
12, 31280, Note_off_c, 9, 42, 64
12, 31440, Note_on_c, 9, 42, 125
12, 31520, Note_off_c, 9, 42, 64
12, 31680, Note_on_c, 9, 42, 125
12, 31760, Note_off_c, 9, 42, 64
12, 31920, Note_on_c, 9, 42, 125
12, 32000, Note_off_c, 9, 42, 64
12, 32160, Note_on_c, 9, 42, 125
12, 32240, Note_off_c, 9, 42, 64
12, 32400, Note_on_c, 9, 42, 125
12, 32480, Note_off_c, 9, 42, 64
12, 32640, Note_on_c, 9, 42, 125
12, 32720, Note_off_c, 9, 42, 64
12, 32880, Note_on_c, 9, 42, 125
12, 32960, Note_off_c, 9, 42, 64
12, 33120, Note_on_c, 9, 42, 125
12, 33200, Note_off_c, 9, 42, 64
12, 33360, Note_on_c, 9, 42, 125
12, 33440, Note_off_c, 9, 42, 64
12, 33600, Note_on_c, 9, 42, 125
12, 33680, Note_off_c, 9, 42, 64
12, 33840, Note_on_c, 9, 42, 125
12, 33920, Note_off_c, 9, 42, 64
12, 34080, Note_on_c, 9, 42, 125
12, 34160, Note_off_c, 9, 42, 64
12, 34320, Note_on_c, 9, 42, 125
12, 34400, Note_off_c, 9, 42, 64
12, 34560, Note_on_c, 9, 42, 125
12, 34640, Note_off_c, 9, 42, 64
12, 34800, Note_on_c, 9, 42, 125
12, 34880, Note_off_c, 9, 42, 64
12, 35040, Note_on_c, 9, 42, 125
12, 35120, Note_off_c, 9, 42, 64
12, 35280, Note_on_c, 9, 42, 125
12, 35360, Note_off_c, 9, 42, 64
12, 35520, Note_on_c, 9, 42, 125
12, 35600, Note_off_c, 9, 42, 64
12, 35760, Note_on_c, 9, 42, 125
12, 35840, Note_off_c, 9, 42, 64
12, 36000, Note_on_c, 9, 42, 125
12, 36080, Note_off_c, 9, 42, 64
12, 36240, Note_on_c, 9, 42, 125
12, 36320, Note_off_c, 9, 42, 64
12, 36480, Note_on_c, 9, 42, 125
12, 36560, Note_off_c, 9, 42, 64
12, 36720, Note_on_c, 9, 42, 125
12, 36800, Note_off_c, 9, 42, 64
12, 36960, Note_on_c, 9, 42, 125
12, 37040, Note_off_c, 9, 42, 64
12, 37200, Note_on_c, 9, 42, 125
12, 37280, Note_off_c, 9, 42, 64
12, 37440, Note_on_c, 9, 42, 125
12, 37520, Note_off_c, 9, 42, 64
12, 37680, Note_on_c, 9, 42, 125
12, 37760, Note_off_c, 9, 42, 64
12, 37920, Note_on_c, 9, 42, 125
12, 38000, Note_off_c, 9, 42, 64
12, 38160, Note_on_c, 9, 42, 125
12, 38240, Note_off_c, 9, 42, 64
12, 38400, Note_on_c, 9, 42, 125
12, 38480, Note_off_c, 9, 42, 64
12, 38640, Note_on_c, 9, 42, 125
12, 38720, Note_off_c, 9, 42, 64
12, 38880, Note_on_c, 9, 42, 125
12, 38960, Note_off_c, 9, 42, 64
12, 39120, Note_on_c, 9, 42, 125
12, 39200, Note_off_c, 9, 42, 64
12, 39360, Note_on_c, 9, 42, 125
12, 39440, Note_off_c, 9, 42, 64
12, 39600, Note_on_c, 9, 42, 125
12, 39680, Note_off_c, 9, 42, 64
12, 39840, Note_on_c, 9, 42, 125
12, 39920, Note_off_c, 9, 42, 64
12, 40080, Note_on_c, 9, 42, 125
12, 40160, Note_off_c, 9, 42, 64
12, 40320, Note_on_c, 9, 42, 125
12, 40400, Note_off_c, 9, 42, 64
12, 40560, Note_on_c, 9, 42, 125
12, 40640, Note_off_c, 9, 42, 64
12, 40800, Note_on_c, 9, 42, 125
12, 40880, Note_off_c, 9, 42, 64
12, 41040, Note_on_c, 9, 42, 125
12, 41120, Note_off_c, 9, 42, 64
12, 41280, Note_on_c, 9, 42, 125
12, 41360, Note_off_c, 9, 42, 64
12, 41520, Note_on_c, 9, 42, 125
12, 41600, Note_off_c, 9, 42, 64
12, 41760, Note_on_c, 9, 42, 125
12, 41840, Note_off_c, 9, 42, 64
12, 42000, Note_on_c, 9, 42, 125
12, 42080, Note_off_c, 9, 42, 64
12, 42240, Note_on_c, 9, 42, 125
12, 42320, Note_off_c, 9, 42, 64
12, 42480, Note_on_c, 9, 42, 125
12, 42560, Note_off_c, 9, 42, 64
12, 42720, Note_on_c, 9, 42, 125
12, 42800, Note_off_c, 9, 42, 64
12, 42960, Note_on_c, 9, 42, 125
12, 43040, Note_off_c, 9, 42, 64
12, 43200, Note_on_c, 9, 42, 125
12, 43280, Note_off_c, 9, 42, 64
12, 43440, Note_on_c, 9, 42, 125
12, 43520, Note_off_c, 9, 42, 64
12, 43680, Note_on_c, 9, 42, 125
12, 43760, Note_off_c, 9, 42, 64
12, 43920, Note_on_c, 9, 42, 125
12, 44000, Note_off_c, 9, 42, 64
12, 44160, Note_on_c, 9, 42, 125
12, 44240, Note_off_c, 9, 42, 64
12, 44400, Note_on_c, 9, 42, 125
12, 44480, Note_off_c, 9, 42, 64
12, 44640, Note_on_c, 9, 42, 125
12, 44720, Note_off_c, 9, 42, 64
12, 44880, Note_on_c, 9, 42, 125
12, 44960, Note_off_c, 9, 42, 64
12, 45120, Note_on_c, 9, 42, 125
12, 45200, Note_off_c, 9, 42, 64
12, 45360, Note_on_c, 9, 42, 125
12, 45440, Note_off_c, 9, 42, 64
12, 45600, Note_on_c, 9, 42, 125
12, 45680, Note_off_c, 9, 42, 64
12, 45840, Note_on_c, 9, 42, 125
12, 45920, Note_off_c, 9, 42, 64
12, 46080, Note_on_c, 9, 42, 125
12, 46160, Note_off_c, 9, 42, 64
12, 46320, Note_on_c, 9, 42, 125
12, 46400, Note_off_c, 9, 42, 64
12, 46560, Note_on_c, 9, 42, 125
12, 46640, Note_off_c, 9, 42, 64
12, 46800, Note_on_c, 9, 42, 125
12, 46880, Note_off_c, 9, 42, 64
12, 47040, Note_on_c, 9, 42, 125
12, 47120, Note_off_c, 9, 42, 64
12, 47280, Note_on_c, 9, 42, 125
12, 47360, Note_off_c, 9, 42, 64
12, 47520, Note_on_c, 9, 42, 125
12, 47600, Note_off_c, 9, 42, 64
12, 47760, Note_on_c, 9, 42, 125
12, 47840, Note_off_c, 9, 42, 64
12, 48000, Note_on_c, 9, 42, 125
12, 48080, Note_off_c, 9, 42, 64
12, 48240, Note_on_c, 9, 42, 125
12, 48320, Note_off_c, 9, 42, 64
12, 48480, Note_on_c, 9, 42, 125
12, 48560, Note_off_c, 9, 42, 64
12, 48720, Note_on_c, 9, 42, 125
12, 48800, Note_off_c, 9, 42, 64
12, 48960, Note_on_c, 9, 42, 125
12, 49040, Note_off_c, 9, 42, 64
12, 49200, Note_on_c, 9, 42, 125
12, 49280, Note_off_c, 9, 42, 64
12, 49440, Note_on_c, 9, 42, 125
12, 49520, Note_off_c, 9, 42, 64
12, 49680, Note_on_c, 9, 42, 125
12, 49760, Note_off_c, 9, 42, 64
12, 49920, Note_on_c, 9, 42, 125
12, 50000, Note_off_c, 9, 42, 64
12, 50160, Note_on_c, 9, 42, 125
12, 50240, Note_off_c, 9, 42, 64
12, 50400, Note_on_c, 9, 42, 125
12, 50480, Note_off_c, 9, 42, 64
12, 50640, Note_on_c, 9, 42, 125
12, 50720, Note_off_c, 9, 42, 64
12, 50880, Note_on_c, 9, 42, 125
12, 50960, Note_off_c, 9, 42, 64
12, 51120, Note_on_c, 9, 42, 125
12, 51200, Note_off_c, 9, 42, 64
12, 51360, Note_on_c, 9, 42, 125
12, 51440, Note_off_c, 9, 42, 64
12, 51600, Note_on_c, 9, 42, 125
12, 51680, Note_off_c, 9, 42, 64
12, 51840, Note_on_c, 9, 42, 125
12, 51920, Note_off_c, 9, 42, 64
12, 52080, Note_on_c, 9, 42, 125
12, 52160, Note_off_c, 9, 42, 64
12, 52320, Note_on_c, 9, 42, 125
12, 52400, Note_off_c, 9, 42, 64
12, 52560, Note_on_c, 9, 42, 125
12, 52640, Note_off_c, 9, 42, 64
12, 52800, Note_on_c, 9, 42, 125
12, 52880, Note_off_c, 9, 42, 64
12, 53040, Note_on_c, 9, 42, 125
12, 53120, Note_off_c, 9, 42, 64
12, 53280, Note_on_c, 9, 42, 125
12, 53360, Note_off_c, 9, 42, 64
12, 53520, Note_on_c, 9, 42, 125
12, 53600, Note_off_c, 9, 42, 64
12, 53760, Note_on_c, 9, 42, 125
12, 53840, Note_off_c, 9, 42, 64
12, 54000, Note_on_c, 9, 42, 125
12, 54080, Note_off_c, 9, 42, 64
12, 54240, Note_on_c, 9, 42, 125
12, 54320, Note_off_c, 9, 42, 64
12, 54480, Note_on_c, 9, 42, 125
12, 54560, Note_off_c, 9, 42, 64
12, 54720, Note_on_c, 9, 42, 125
12, 54800, Note_off_c, 9, 42, 64
12, 54960, Note_on_c, 9, 42, 125
12, 55040, Note_off_c, 9, 42, 64
12, 55200, Note_on_c, 9, 42, 125
12, 55280, Note_off_c, 9, 42, 64
12, 55440, Note_on_c, 9, 42, 125
12, 55520, Note_off_c, 9, 42, 64
12, 55680, Note_on_c, 9, 42, 125
12, 55760, Note_off_c, 9, 42, 64
12, 55920, Note_on_c, 9, 42, 125
12, 56000, Note_off_c, 9, 42, 64
12, 56160, Note_on_c, 9, 42, 125
12, 56240, Note_off_c, 9, 42, 64
12, 56400, Note_on_c, 9, 42, 125
12, 56480, Note_off_c, 9, 42, 64
12, 56640, Note_on_c, 9, 42, 125
12, 56720, Note_off_c, 9, 42, 64
12, 56880, Note_on_c, 9, 42, 125
12, 56960, Note_off_c, 9, 42, 64
12, 57120, Note_on_c, 9, 42, 125
12, 57200, Note_off_c, 9, 42, 64
12, 57360, Note_on_c, 9, 42, 125
12, 57440, Note_off_c, 9, 42, 64
12, 57600, Note_on_c, 9, 42, 125
12, 57680, Note_off_c, 9, 42, 64
12, 57840, Note_on_c, 9, 42, 125
12, 57920, Note_off_c, 9, 42, 64
12, 58080, Note_on_c, 9, 42, 125
12, 58160, Note_off_c, 9, 42, 64
12, 58320, Note_on_c, 9, 42, 125
12, 58400, Note_off_c, 9, 42, 64
12, 58560, Note_on_c, 9, 42, 125
12, 58640, Note_off_c, 9, 42, 64
12, 58800, Note_on_c, 9, 42, 125
12, 58880, Note_off_c, 9, 42, 64
12, 59040, Note_on_c, 9, 42, 125
12, 59120, Note_off_c, 9, 42, 64
12, 59280, Note_on_c, 9, 42, 125
12, 59360, Note_off_c, 9, 42, 64
12, 59520, Note_on_c, 9, 42, 125
12, 59600, Note_off_c, 9, 42, 64
12, 59760, Note_on_c, 9, 42, 125
12, 59840, Note_off_c, 9, 42, 64
12, 60000, Note_on_c, 9, 42, 125
12, 60080, Note_off_c, 9, 42, 64
12, 60240, Note_on_c, 9, 42, 125
12, 60320, Note_off_c, 9, 42, 64
12, 60480, Note_on_c, 9, 42, 125
12, 60560, Note_off_c, 9, 42, 64
12, 60720, Note_on_c, 9, 42, 125
12, 60800, Note_off_c, 9, 42, 64
12, 60960, Note_on_c, 9, 42, 125
12, 61040, Note_off_c, 9, 42, 64
12, 61200, Note_on_c, 9, 42, 125
12, 61280, Note_off_c, 9, 42, 64
12, 61440, Note_on_c, 9, 42, 125
12, 61520, Note_off_c, 9, 42, 64
12, 61680, Note_on_c, 9, 42, 125
12, 61760, Note_off_c, 9, 42, 64
12, 61920, Note_on_c, 9, 42, 125
12, 62000, Note_off_c, 9, 42, 64
12, 62160, Note_on_c, 9, 42, 125
12, 62240, Note_off_c, 9, 42, 64
12, 62400, Note_on_c, 9, 42, 125
12, 62480, Note_off_c, 9, 42, 64
12, 62640, Note_on_c, 9, 42, 125
12, 62720, Note_off_c, 9, 42, 64
12, 62880, Note_on_c, 9, 42, 125
12, 62960, Note_off_c, 9, 42, 64
12, 63120, Note_on_c, 9, 42, 125
12, 63200, Note_off_c, 9, 42, 64
12, 63360, Note_on_c, 9, 42, 125
12, 63440, Note_off_c, 9, 42, 64
12, 63600, Note_on_c, 9, 42, 125
12, 63680, Note_off_c, 9, 42, 64
12, 63840, Note_on_c, 9, 42, 125
12, 63920, Note_off_c, 9, 42, 64
12, 64080, Note_on_c, 9, 42, 125
12, 64160, Note_off_c, 9, 42, 64
12, 64320, Note_on_c, 9, 42, 125
12, 64400, Note_off_c, 9, 42, 64
12, 64560, Note_on_c, 9, 42, 125
12, 64640, Note_off_c, 9, 42, 64
12, 64800, Note_on_c, 9, 42, 125
12, 64880, Note_off_c, 9, 42, 64
12, 65040, Note_on_c, 9, 42, 125
12, 65120, Note_off_c, 9, 42, 64
12, 65280, Note_on_c, 9, 42, 125
12, 65360, Note_off_c, 9, 42, 64
12, 65520, Note_on_c, 9, 42, 125
12, 65600, Note_off_c, 9, 42, 64
12, 65760, Note_on_c, 9, 42, 125
12, 65840, Note_off_c, 9, 42, 64
12, 66000, Note_on_c, 9, 42, 125
12, 66080, Note_off_c, 9, 42, 64
12, 66240, Note_on_c, 9, 42, 125
12, 66320, Note_off_c, 9, 42, 64
12, 66480, Note_on_c, 9, 42, 125
12, 66560, Note_off_c, 9, 42, 64
12, 66720, Note_on_c, 9, 42, 125
12, 66800, Note_off_c, 9, 42, 64
12, 66960, Note_on_c, 9, 42, 125
12, 67040, Note_off_c, 9, 42, 64
12, 67200, Note_on_c, 9, 42, 125
12, 67280, Note_off_c, 9, 42, 64
12, 67440, Note_on_c, 9, 42, 125
12, 67520, Note_off_c, 9, 42, 64
12, 67680, Note_on_c, 9, 42, 125
12, 67760, Note_off_c, 9, 42, 64
12, 67920, Note_on_c, 9, 42, 125
12, 68000, Note_off_c, 9, 42, 64
12, 68160, Note_on_c, 9, 42, 125
12, 68240, Note_off_c, 9, 42, 64
12, 68400, Note_on_c, 9, 42, 125
12, 68480, Note_off_c, 9, 42, 64
12, 68640, Note_on_c, 9, 42, 125
12, 68720, Note_off_c, 9, 42, 64
12, 68880, Note_on_c, 9, 42, 125
12, 68960, Note_off_c, 9, 42, 64
12, 69120, Note_on_c, 9, 42, 125
12, 69200, Note_off_c, 9, 42, 64
12, 69360, Note_on_c, 9, 42, 125
12, 69440, Note_off_c, 9, 42, 64
12, 69600, Note_on_c, 9, 42, 125
12, 69680, Note_off_c, 9, 42, 64
12, 69840, Note_on_c, 9, 42, 125
12, 69920, Note_off_c, 9, 42, 64
12, 70080, Note_on_c, 9, 42, 125
12, 70160, Note_off_c, 9, 42, 64
12, 70320, Note_on_c, 9, 42, 125
12, 70400, Note_off_c, 9, 42, 64
12, 70560, Note_on_c, 9, 42, 125
12, 70640, Note_off_c, 9, 42, 64
12, 70800, Note_on_c, 9, 42, 125
12, 70880, Note_off_c, 9, 42, 64
12, 71040, Note_on_c, 9, 42, 125
12, 71120, Note_off_c, 9, 42, 64
12, 71280, Note_on_c, 9, 42, 125
12, 71360, Note_off_c, 9, 42, 64
12, 71520, Note_on_c, 9, 42, 125
12, 71600, Note_off_c, 9, 42, 64
12, 71760, Note_on_c, 9, 42, 125
12, 71840, Note_off_c, 9, 42, 64
12, 72000, Note_on_c, 9, 42, 125
12, 72080, Note_off_c, 9, 42, 64
12, 72240, Note_on_c, 9, 42, 125
12, 72320, Note_off_c, 9, 42, 64
12, 72480, Note_on_c, 9, 42, 125
12, 72560, Note_off_c, 9, 42, 64
12, 72720, Note_on_c, 9, 42, 125
12, 72800, Note_off_c, 9, 42, 64
12, 72960, Note_on_c, 9, 42, 125
12, 73040, Note_off_c, 9, 42, 64
12, 73200, Note_on_c, 9, 42, 125
12, 73280, Note_off_c, 9, 42, 64
12, 73440, Note_on_c, 9, 42, 125
12, 73520, Note_off_c, 9, 42, 64
12, 73680, Note_on_c, 9, 42, 125
12, 73760, Note_off_c, 9, 42, 64
12, 73920, Note_on_c, 9, 42, 125
12, 74000, Note_off_c, 9, 42, 64
12, 74160, Note_on_c, 9, 42, 125
12, 74240, Note_off_c, 9, 42, 64
12, 74400, Note_on_c, 9, 42, 125
12, 74480, Note_off_c, 9, 42, 64
12, 74640, Note_on_c, 9, 42, 125
12, 74720, Note_off_c, 9, 42, 64
12, 74880, Note_on_c, 9, 42, 125
12, 74960, Note_off_c, 9, 42, 64
12, 75120, Note_on_c, 9, 42, 125
12, 75200, Note_off_c, 9, 42, 64
12, 75360, Note_on_c, 9, 42, 125
12, 75440, Note_off_c, 9, 42, 64
12, 75600, Note_on_c, 9, 42, 125
12, 75680, Note_off_c, 9, 42, 64
12, 75840, Note_on_c, 9, 42, 125
12, 75920, Note_off_c, 9, 42, 64
12, 76080, Note_on_c, 9, 42, 125
12, 76160, Note_off_c, 9, 42, 64
12, 76320, Note_on_c, 9, 42, 125
12, 76400, Note_off_c, 9, 42, 64
12, 76560, Note_on_c, 9, 42, 125
12, 76640, Note_off_c, 9, 42, 64
12, 76800, Note_on_c, 9, 42, 125
12, 76880, Note_off_c, 9, 42, 64
12, 77040, Note_on_c, 9, 42, 125
12, 77120, Note_off_c, 9, 42, 64
12, 77280, Note_on_c, 9, 42, 125
12, 77360, Note_off_c, 9, 42, 64
12, 77520, Note_on_c, 9, 42, 125
12, 77600, Note_off_c, 9, 42, 64
12, 77760, Note_on_c, 9, 42, 125
12, 77840, Note_off_c, 9, 42, 64
12, 78000, Note_on_c, 9, 42, 125
12, 78080, Note_off_c, 9, 42, 64
12, 78240, Note_on_c, 9, 42, 125
12, 78320, Note_off_c, 9, 42, 64
12, 78480, Note_on_c, 9, 42, 125
12, 78560, Note_off_c, 9, 42, 64
12, 78720, Note_on_c, 9, 42, 125
12, 78800, Note_off_c, 9, 42, 64
12, 78960, Note_on_c, 9, 42, 125
12, 79040, Note_off_c, 9, 42, 64
12, 79200, Note_on_c, 9, 42, 125
12, 79280, Note_off_c, 9, 42, 64
12, 79440, Note_on_c, 9, 42, 125
12, 79520, Note_off_c, 9, 42, 64
12, 79680, Note_on_c, 9, 42, 125
12, 79760, Note_off_c, 9, 42, 64
12, 79920, Note_on_c, 9, 42, 125
12, 80000, Note_off_c, 9, 42, 64
12, 80160, Note_on_c, 9, 42, 125
12, 80240, Note_off_c, 9, 42, 64
12, 80400, Note_on_c, 9, 42, 125
12, 80480, Note_off_c, 9, 42, 64
12, 80640, Note_on_c, 9, 42, 125
12, 80720, Note_off_c, 9, 42, 64
12, 80880, Note_on_c, 9, 42, 125
12, 80960, Note_off_c, 9, 42, 64
12, 81120, Note_on_c, 9, 42, 125
12, 81200, Note_off_c, 9, 42, 64
12, 81360, Note_on_c, 9, 42, 125
12, 81440, Note_off_c, 9, 42, 64
12, 81600, Note_on_c, 9, 42, 125
12, 81680, Note_off_c, 9, 42, 64
12, 81840, Note_on_c, 9, 42, 125
12, 81920, Note_off_c, 9, 42, 64
12, 82080, Note_on_c, 9, 42, 125
12, 82160, Note_off_c, 9, 42, 64
12, 82320, Note_on_c, 9, 42, 125
12, 82400, Note_off_c, 9, 42, 64
12, 82560, Note_on_c, 9, 42, 125
12, 82640, Note_off_c, 9, 42, 64
12, 82800, Note_on_c, 9, 42, 125
12, 82880, Note_off_c, 9, 42, 64
12, 83040, Note_on_c, 9, 42, 125
12, 83120, Note_off_c, 9, 42, 64
12, 83280, Note_on_c, 9, 42, 125
12, 83360, Note_off_c, 9, 42, 64
12, 83520, Note_on_c, 9, 42, 125
12, 83600, Note_off_c, 9, 42, 64
12, 83760, Note_on_c, 9, 42, 125
12, 83840, Note_off_c, 9, 42, 64
12, 84000, Note_on_c, 9, 42, 125
12, 84080, Note_off_c, 9, 42, 64
12, 84240, Note_on_c, 9, 42, 125
12, 84320, Note_off_c, 9, 42, 64
12, 84480, Note_on_c, 9, 42, 125
12, 84560, Note_off_c, 9, 42, 64
12, 84720, Note_on_c, 9, 42, 125
12, 84800, Note_off_c, 9, 42, 64
12, 84960, Note_on_c, 9, 42, 125
12, 85040, Note_off_c, 9, 42, 64
12, 85200, Note_on_c, 9, 42, 125
12, 85280, Note_off_c, 9, 42, 64
12, 85440, Note_on_c, 9, 42, 125
12, 85520, Note_off_c, 9, 42, 64
12, 85680, Note_on_c, 9, 42, 125
12, 85760, Note_off_c, 9, 42, 64
12, 85920, Note_on_c, 9, 42, 125
12, 86000, Note_off_c, 9, 42, 64
12, 86160, Note_on_c, 9, 42, 125
12, 86240, Note_off_c, 9, 42, 64
12, 86400, Note_on_c, 9, 42, 125
12, 86480, Note_off_c, 9, 42, 64
12, 86640, Note_on_c, 9, 42, 125
12, 86720, Note_off_c, 9, 42, 64
12, 86880, Note_on_c, 9, 42, 125
12, 86960, Note_off_c, 9, 42, 64
12, 87120, Note_on_c, 9, 42, 125
12, 87200, Note_off_c, 9, 42, 64
12, 87360, Note_on_c, 9, 42, 125
12, 87440, Note_off_c, 9, 42, 64
12, 87600, Note_on_c, 9, 42, 125
12, 87680, Note_off_c, 9, 42, 64
12, 87840, Note_on_c, 9, 42, 125
12, 87920, Note_off_c, 9, 42, 64
12, 88080, Note_on_c, 9, 42, 125
12, 88160, Note_off_c, 9, 42, 64
12, 88320, Note_on_c, 9, 42, 125
12, 88400, Note_off_c, 9, 42, 64
12, 88560, Note_on_c, 9, 42, 125
12, 88640, Note_off_c, 9, 42, 64
12, 88800, Note_on_c, 9, 42, 125
12, 88880, Note_off_c, 9, 42, 64
12, 89040, Note_on_c, 9, 42, 125
12, 89120, Note_off_c, 9, 42, 64
12, 89280, Note_on_c, 9, 42, 125
12, 89360, Note_off_c, 9, 42, 64
12, 89520, Note_on_c, 9, 42, 125
12, 89600, Note_off_c, 9, 42, 64
12, 89760, Note_on_c, 9, 42, 125
12, 89840, Note_off_c, 9, 42, 64
12, 90000, Note_on_c, 9, 42, 125
12, 90080, Note_off_c, 9, 42, 64
12, 90240, Note_on_c, 9, 42, 125
12, 90320, Note_off_c, 9, 42, 64
12, 90480, Note_on_c, 9, 42, 125
12, 90560, Note_off_c, 9, 42, 64
12, 90720, Note_on_c, 9, 42, 125
12, 90800, Note_off_c, 9, 42, 64
12, 90960, Note_on_c, 9, 42, 125
12, 91040, Note_off_c, 9, 42, 64
12, 91200, Note_on_c, 9, 42, 125
12, 91280, Note_off_c, 9, 42, 64
12, 91440, Note_on_c, 9, 42, 125
12, 91520, Note_off_c, 9, 42, 64
12, 91680, Note_on_c, 9, 42, 125
12, 91760, Note_off_c, 9, 42, 64
12, 91920, Note_on_c, 9, 42, 125
12, 92000, Note_off_c, 9, 42, 64
12, 92160, Note_on_c, 9, 42, 125
12, 92240, Note_off_c, 9, 42, 64
12, 92400, Note_on_c, 9, 42, 125
12, 92480, Note_off_c, 9, 42, 64
12, 92640, Note_on_c, 9, 42, 125
12, 92720, Note_off_c, 9, 42, 64
12, 92880, Note_on_c, 9, 42, 125
12, 92960, Note_off_c, 9, 42, 64
12, 93120, Note_on_c, 9, 42, 125
12, 93200, Note_off_c, 9, 42, 64
12, 93360, Note_on_c, 9, 42, 125
12, 93440, Note_off_c, 9, 42, 64
12, 93600, Note_on_c, 9, 42, 125
12, 93680, Note_off_c, 9, 42, 64
12, 93840, Note_on_c, 9, 42, 125
12, 93920, Note_off_c, 9, 42, 64
12, 94080, Note_on_c, 9, 42, 125
12, 94160, Note_off_c, 9, 42, 64
12, 94320, Note_on_c, 9, 42, 125
12, 94400, Note_off_c, 9, 42, 64
12, 94560, Note_on_c, 9, 42, 125
12, 94640, Note_off_c, 9, 42, 64
12, 94800, Note_on_c, 9, 42, 125
12, 94880, Note_off_c, 9, 42, 64
12, 95040, Note_on_c, 9, 42, 125
12, 95120, Note_off_c, 9, 42, 64
12, 95280, Note_on_c, 9, 42, 125
12, 95360, Note_off_c, 9, 42, 64
12, 95520, Note_on_c, 9, 42, 125
12, 95600, Note_off_c, 9, 42, 64
12, 95760, Note_on_c, 9, 42, 125
12, 95840, Note_off_c, 9, 42, 64
12, 96000, Note_on_c, 9, 42, 125
12, 96080, Note_off_c, 9, 42, 64
12, 96240, Note_on_c, 9, 42, 125
12, 96320, Note_off_c, 9, 42, 64
12, 96480, Note_on_c, 9, 42, 125
12, 96560, Note_off_c, 9, 42, 64
12, 96720, Note_on_c, 9, 42, 125
12, 96800, Note_off_c, 9, 42, 64
12, 96960, Note_on_c, 9, 42, 125
12, 97040, Note_off_c, 9, 42, 64
12, 97200, Note_on_c, 9, 42, 125
12, 97280, Note_off_c, 9, 42, 64
12, 97440, Note_on_c, 9, 42, 125
12, 97520, Note_off_c, 9, 42, 64
12, 97680, Note_on_c, 9, 42, 125
12, 97760, Note_off_c, 9, 42, 64
12, 97920, Note_on_c, 9, 42, 125
12, 98000, Note_off_c, 9, 42, 64
12, 98160, Note_on_c, 9, 42, 125
12, 98240, Note_off_c, 9, 42, 64
12, 98400, Note_on_c, 9, 42, 125
12, 98480, Note_off_c, 9, 42, 64
12, 98640, Note_on_c, 9, 42, 125
12, 98720, Note_off_c, 9, 42, 64
12, 98880, Note_on_c, 9, 42, 125
12, 98960, Note_off_c, 9, 42, 64
12, 99120, Note_on_c, 9, 42, 125
12, 99200, Note_off_c, 9, 42, 64
12, 99360, Note_on_c, 9, 42, 125
12, 99440, Note_off_c, 9, 42, 64
12, 99600, Note_on_c, 9, 42, 125
12, 99680, Note_off_c, 9, 42, 64
12, 99840, Note_on_c, 9, 42, 125
12, 99920, Note_off_c, 9, 42, 64
12, 100080, Note_on_c, 9, 42, 125
12, 100160, Note_off_c, 9, 42, 64
12, 100320, Note_on_c, 9, 42, 125
12, 100400, Note_off_c, 9, 42, 64
12, 100560, Note_on_c, 9, 42, 125
12, 100640, Note_off_c, 9, 42, 64
12, 100800, Note_on_c, 9, 42, 125
12, 100880, Note_off_c, 9, 42, 64
12, 101040, Note_on_c, 9, 42, 125
12, 101120, Note_off_c, 9, 42, 64
12, 101280, Note_on_c, 9, 42, 125
12, 101360, Note_off_c, 9, 42, 64
12, 101520, Note_on_c, 9, 42, 125
12, 101600, Note_off_c, 9, 42, 64
12, 101760, Note_on_c, 9, 42, 125
12, 101840, Note_off_c, 9, 42, 64
12, 102000, Note_on_c, 9, 42, 125
12, 102080, Note_off_c, 9, 42, 64
12, 102240, Note_on_c, 9, 42, 125
12, 102320, Note_off_c, 9, 42, 64
12, 102480, Note_on_c, 9, 42, 125
12, 102560, Note_off_c, 9, 42, 64
12, 102720, Note_on_c, 9, 42, 125
12, 102800, Note_off_c, 9, 42, 64
12, 102960, Note_on_c, 9, 42, 125
12, 103040, Note_off_c, 9, 42, 64
12, 103200, Note_on_c, 9, 42, 125
12, 103280, Note_off_c, 9, 42, 64
12, 103440, Note_on_c, 9, 42, 125
12, 103520, Note_off_c, 9, 42, 64
12, 103680, Note_on_c, 9, 42, 125
12, 103760, Note_off_c, 9, 42, 64
12, 103920, Note_on_c, 9, 42, 125
12, 104000, Note_off_c, 9, 42, 64
12, 104160, Note_on_c, 9, 42, 125
12, 104240, Note_off_c, 9, 42, 64
12, 104400, Note_on_c, 9, 42, 125
12, 104480, Note_off_c, 9, 42, 64
12, 104640, Note_on_c, 9, 42, 125
12, 104720, Note_off_c, 9, 42, 64
12, 104880, Note_on_c, 9, 42, 125
12, 104960, Note_off_c, 9, 42, 64
12, 105120, Note_on_c, 9, 42, 125
12, 105200, Note_off_c, 9, 42, 64
12, 105360, Note_on_c, 9, 42, 125
12, 105440, Note_off_c, 9, 42, 64
12, 105600, Note_on_c, 9, 42, 125
12, 105680, Note_off_c, 9, 42, 64
12, 105840, Note_on_c, 9, 42, 125
12, 105920, Note_off_c, 9, 42, 64
12, 106080, Note_on_c, 9, 42, 125
12, 106160, Note_off_c, 9, 42, 64
12, 106320, Note_on_c, 9, 42, 125
12, 106400, Note_off_c, 9, 42, 64
12, 106560, Note_on_c, 9, 42, 125
12, 106640, Note_off_c, 9, 42, 64
12, 106800, Note_on_c, 9, 42, 125
12, 106880, Note_off_c, 9, 42, 64
12, 107040, Note_on_c, 9, 42, 125
12, 107120, Note_off_c, 9, 42, 64
12, 107280, Note_on_c, 9, 42, 125
12, 107360, Note_off_c, 9, 42, 64
12, 107520, Note_on_c, 9, 42, 125
12, 107600, Note_off_c, 9, 42, 64
12, 107760, Note_on_c, 9, 42, 125
12, 107840, Note_off_c, 9, 42, 64
12, 108000, Note_on_c, 9, 42, 125
12, 108080, Note_off_c, 9, 42, 64
12, 108240, Note_on_c, 9, 42, 125
12, 108320, Note_off_c, 9, 42, 64
12, 108480, Note_on_c, 9, 42, 125
12, 108560, Note_off_c, 9, 42, 64
12, 108720, Note_on_c, 9, 42, 125
12, 108800, Note_off_c, 9, 42, 64
12, 108960, Note_on_c, 9, 42, 125
12, 109040, Note_off_c, 9, 42, 64
12, 109200, Note_on_c, 9, 42, 125
12, 109280, Note_off_c, 9, 42, 64
12, 109440, Note_on_c, 9, 42, 125
12, 109520, Note_off_c, 9, 42, 64
12, 109680, Note_on_c, 9, 42, 125
12, 109760, Note_off_c, 9, 42, 64
12, 109920, Note_on_c, 9, 42, 125
12, 110000, Note_off_c, 9, 42, 64
12, 110160, Note_on_c, 9, 42, 125
12, 110240, Note_off_c, 9, 42, 64
12, 110400, Note_on_c, 9, 42, 125
12, 110480, Note_off_c, 9, 42, 64
12, 110640, Note_on_c, 9, 42, 125
12, 110720, Note_off_c, 9, 42, 64
12, 110880, Note_on_c, 9, 42, 125
12, 110960, Note_off_c, 9, 42, 64
12, 111120, Note_on_c, 9, 42, 125
12, 111200, Note_off_c, 9, 42, 64
12, 111360, Note_on_c, 9, 42, 125
12, 111440, Note_off_c, 9, 42, 64
12, 111600, Note_on_c, 9, 42, 125
12, 111680, Note_off_c, 9, 42, 64
12, 111840, Note_on_c, 9, 42, 125
12, 111920, Note_off_c, 9, 42, 64
12, 112080, Note_on_c, 9, 42, 125
12, 112160, Note_off_c, 9, 42, 64
12, 112320, Note_on_c, 9, 42, 125
12, 112400, Note_off_c, 9, 42, 64
12, 112560, Note_on_c, 9, 42, 125
12, 112640, Note_off_c, 9, 42, 64
12, 112800, Note_on_c, 9, 42, 125
12, 112880, Note_off_c, 9, 42, 64
12, 113040, Note_on_c, 9, 42, 125
12, 113120, Note_off_c, 9, 42, 64
12, 113280, Note_on_c, 9, 42, 125
12, 113360, Note_off_c, 9, 42, 64
12, 113520, Note_on_c, 9, 42, 125
12, 113600, Note_off_c, 9, 42, 64
12, 113760, Note_on_c, 9, 42, 125
12, 113840, Note_off_c, 9, 42, 64
12, 114000, Note_on_c, 9, 42, 125
12, 114080, Note_off_c, 9, 42, 64
12, 114240, Note_on_c, 9, 42, 125
12, 114320, Note_off_c, 9, 42, 64
12, 114480, Note_on_c, 9, 42, 125
12, 114560, Note_off_c, 9, 42, 64
12, 114720, Note_on_c, 9, 42, 125
12, 114800, Note_off_c, 9, 42, 64
12, 114960, Note_on_c, 9, 42, 125
12, 115040, Note_off_c, 9, 42, 64
12, 115200, Note_on_c, 9, 42, 125
12, 115280, Note_off_c, 9, 42, 64
12, 115440, Note_on_c, 9, 42, 125
12, 115520, Note_off_c, 9, 42, 64
12, 115680, Note_on_c, 9, 42, 125
12, 115760, Note_off_c, 9, 42, 64
12, 115920, Note_on_c, 9, 42, 125
12, 116000, Note_off_c, 9, 42, 64
12, 116160, Note_on_c, 9, 42, 125
12, 116240, Note_off_c, 9, 42, 64
12, 116400, Note_on_c, 9, 42, 125
12, 116480, Note_off_c, 9, 42, 64
12, 116640, Note_on_c, 9, 42, 125
12, 116720, Note_off_c, 9, 42, 64
12, 116880, Note_on_c, 9, 42, 125
12, 116960, Note_off_c, 9, 42, 64
12, 117120, Note_on_c, 9, 42, 125
12, 117200, Note_off_c, 9, 42, 64
12, 117360, Note_on_c, 9, 42, 125
12, 117440, Note_off_c, 9, 42, 64
12, 117600, Note_on_c, 9, 42, 125
12, 117680, Note_off_c, 9, 42, 64
12, 117840, Note_on_c, 9, 42, 125
12, 117920, Note_off_c, 9, 42, 64
12, 118080, Note_on_c, 9, 42, 125
12, 118160, Note_off_c, 9, 42, 64
12, 118320, Note_on_c, 9, 42, 125
12, 118400, Note_off_c, 9, 42, 64
12, 118560, Note_on_c, 9, 42, 125
12, 118640, Note_off_c, 9, 42, 64
12, 118800, Note_on_c, 9, 42, 125
12, 118880, Note_off_c, 9, 42, 64
12, 119040, Note_on_c, 9, 42, 125
12, 119120, Note_off_c, 9, 42, 64
12, 119280, Note_on_c, 9, 42, 125
12, 119360, Note_off_c, 9, 42, 64
12, 119520, Note_on_c, 9, 42, 125
12, 119600, Note_off_c, 9, 42, 64
12, 119760, Note_on_c, 9, 42, 125
12, 119840, Note_off_c, 9, 42, 64
12, 120000, Note_on_c, 9, 42, 125
12, 120080, Note_off_c, 9, 42, 64
12, 120240, Note_on_c, 9, 42, 125
12, 120320, Note_off_c, 9, 42, 64
12, 120480, Note_on_c, 9, 42, 125
12, 120560, Note_off_c, 9, 42, 64
12, 120720, Note_on_c, 9, 42, 125
12, 120800, Note_off_c, 9, 42, 64
12, 120960, Note_on_c, 9, 42, 125
12, 121040, Note_off_c, 9, 42, 64
12, 121200, Note_on_c, 9, 42, 125
12, 121280, Note_off_c, 9, 42, 64
12, 121440, Note_on_c, 9, 42, 125
12, 121520, Note_off_c, 9, 42, 64
12, 121680, Note_on_c, 9, 42, 125
12, 121760, Note_off_c, 9, 42, 64
12, 121920, Note_on_c, 9, 42, 125
12, 122000, Note_off_c, 9, 42, 64
12, 122160, Note_on_c, 9, 42, 125
12, 122240, Note_off_c, 9, 42, 64
12, 122400, Note_on_c, 9, 42, 125
12, 122480, Note_off_c, 9, 42, 64
12, 122640, Note_on_c, 9, 42, 125
12, 122720, Note_off_c, 9, 42, 64
12, 122880, Note_on_c, 9, 42, 125
12, 122960, Note_off_c, 9, 42, 64
12, 123120, Note_on_c, 9, 42, 125
12, 123200, Note_off_c, 9, 42, 64
12, 123360, Note_on_c, 9, 42, 125
12, 123440, Note_off_c, 9, 42, 64
12, 123600, Note_on_c, 9, 42, 125
12, 123680, Note_off_c, 9, 42, 64
12, 123840, Note_on_c, 9, 42, 125
12, 123920, Note_off_c, 9, 42, 64
12, 124080, Note_on_c, 9, 42, 125
12, 124160, Note_off_c, 9, 42, 64
12, 124320, Note_on_c, 9, 42, 125
12, 124400, Note_off_c, 9, 42, 64
12, 124560, Note_on_c, 9, 42, 125
12, 124640, Note_off_c, 9, 42, 64
12, 124800, Note_on_c, 9, 42, 125
12, 124880, Note_off_c, 9, 42, 64
12, 125040, Note_on_c, 9, 42, 125
12, 125120, Note_off_c, 9, 42, 64
12, 125280, Note_on_c, 9, 42, 125
12, 125360, Note_off_c, 9, 42, 64
12, 125520, Note_on_c, 9, 42, 125
12, 125600, Note_off_c, 9, 42, 64
12, 125760, Note_on_c, 9, 42, 125
12, 125840, Note_off_c, 9, 42, 64
12, 126000, Note_on_c, 9, 42, 125
12, 126080, Note_off_c, 9, 42, 64
12, 126240, Note_on_c, 9, 42, 125
12, 126320, Note_off_c, 9, 42, 64
12, 126480, Note_on_c, 9, 42, 125
12, 126560, Note_off_c, 9, 42, 64
12, 126720, Note_on_c, 9, 42, 125
12, 126800, Note_off_c, 9, 42, 64
12, 126960, Note_on_c, 9, 42, 125
12, 127040, Note_off_c, 9, 42, 64
12, 127200, Note_on_c, 9, 42, 125
12, 127280, Note_off_c, 9, 42, 64
12, 127440, Note_on_c, 9, 42, 125
12, 127520, Note_off_c, 9, 42, 64
12, 127680, Note_on_c, 9, 42, 125
12, 127760, Note_off_c, 9, 42, 64
12, 127920, Note_on_c, 9, 42, 125
12, 128000, Note_off_c, 9, 42, 64
12, 128160, Note_on_c, 9, 42, 125
12, 128240, Note_off_c, 9, 42, 64
12, 128400, Note_on_c, 9, 42, 125
12, 128480, Note_off_c, 9, 42, 64
12, 128640, Note_on_c, 9, 42, 125
12, 128720, Note_off_c, 9, 42, 64
12, 128880, Note_on_c, 9, 42, 125
12, 128960, Note_off_c, 9, 42, 64
12, 129120, Note_on_c, 9, 42, 125
12, 129200, Note_off_c, 9, 42, 64
12, 129360, Note_on_c, 9, 42, 125
12, 129440, Note_off_c, 9, 42, 64
12, 129600, Note_on_c, 9, 42, 125
12, 129680, Note_off_c, 9, 42, 64
12, 129840, Note_on_c, 9, 42, 125
12, 129920, Note_off_c, 9, 42, 64
12, 130080, Note_on_c, 9, 42, 125
12, 130160, Note_off_c, 9, 42, 64
12, 130320, Note_on_c, 9, 42, 125
12, 130400, Note_off_c, 9, 42, 64
12, 130560, Note_on_c, 9, 42, 125
12, 130640, Note_off_c, 9, 42, 64
12, 130800, Note_on_c, 9, 42, 125
12, 130880, Note_off_c, 9, 42, 64
12, 131040, Note_on_c, 9, 42, 125
12, 131120, Note_off_c, 9, 42, 64
12, 131280, Note_on_c, 9, 42, 125
12, 131360, Note_off_c, 9, 42, 64
12, 131520, Note_on_c, 9, 42, 125
12, 131600, Note_off_c, 9, 42, 64
12, 131760, Note_on_c, 9, 42, 125
12, 131840, Note_off_c, 9, 42, 64
12, 132000, Note_on_c, 9, 42, 125
12, 132080, Note_off_c, 9, 42, 64
12, 132240, Note_on_c, 9, 42, 125
12, 132320, Note_off_c, 9, 42, 64
12, 132480, Note_on_c, 9, 42, 125
12, 132560, Note_off_c, 9, 42, 64
12, 132720, Note_on_c, 9, 42, 125
12, 132800, Note_off_c, 9, 42, 64
12, 132960, Note_on_c, 9, 42, 125
12, 133040, Note_off_c, 9, 42, 64
12, 133200, Note_on_c, 9, 42, 125
12, 133280, Note_off_c, 9, 42, 64
12, 133440, Note_on_c, 9, 42, 125
12, 133520, Note_off_c, 9, 42, 64
12, 133680, Note_on_c, 9, 42, 125
12, 133760, Note_off_c, 9, 42, 64
12, 133920, Note_on_c, 9, 42, 125
12, 134000, Note_off_c, 9, 42, 64
12, 134160, Note_on_c, 9, 42, 125
12, 134240, Note_off_c, 9, 42, 64
12, 134400, Note_on_c, 9, 42, 125
12, 134480, Note_off_c, 9, 42, 64
12, 134640, Note_on_c, 9, 42, 125
12, 134720, Note_off_c, 9, 42, 64
12, 134880, Note_on_c, 9, 42, 125
12, 134960, Note_off_c, 9, 42, 64
12, 135120, Note_on_c, 9, 42, 125
12, 135200, Note_off_c, 9, 42, 64
12, 135360, Note_on_c, 9, 42, 125
12, 135440, Note_off_c, 9, 42, 64
12, 135600, Note_on_c, 9, 42, 125
12, 135680, Note_off_c, 9, 42, 64
12, 135840, Note_on_c, 9, 42, 125
12, 135920, Note_off_c, 9, 42, 64
12, 136080, Note_on_c, 9, 42, 125
12, 136160, Note_off_c, 9, 42, 64
12, 136320, Note_on_c, 9, 42, 125
12, 136400, Note_off_c, 9, 42, 64
12, 136560, Note_on_c, 9, 42, 125
12, 136640, Note_off_c, 9, 42, 64
12, 136800, Note_on_c, 9, 42, 125
12, 136880, Note_off_c, 9, 42, 64
12, 137040, Note_on_c, 9, 42, 125
12, 137120, Note_off_c, 9, 42, 64
12, 137280, Note_on_c, 9, 42, 125
12, 137360, Note_off_c, 9, 42, 64
12, 137520, Note_on_c, 9, 42, 125
12, 137600, Note_off_c, 9, 42, 64
12, 137760, Note_on_c, 9, 42, 125
12, 137840, Note_off_c, 9, 42, 64
12, 138000, Note_on_c, 9, 42, 125
12, 138080, Note_off_c, 9, 42, 64
12, 138240, Note_on_c, 9, 42, 125
12, 138320, Note_off_c, 9, 42, 64
12, 138480, Note_on_c, 9, 42, 125
12, 138560, Note_off_c, 9, 42, 64
12, 138720, Note_on_c, 9, 42, 125
12, 138800, Note_off_c, 9, 42, 64
12, 138960, Note_on_c, 9, 42, 125
12, 139040, Note_off_c, 9, 42, 64
12, 139200, Note_on_c, 9, 42, 125
12, 139280, Note_off_c, 9, 42, 64
12, 139440, Note_on_c, 9, 42, 125
12, 139520, Note_off_c, 9, 42, 64
12, 139680, Note_on_c, 9, 42, 125
12, 139760, Note_off_c, 9, 42, 64
12, 139920, Note_on_c, 9, 42, 125
12, 140000, Note_off_c, 9, 42, 64
12, 140160, Note_on_c, 9, 42, 125
12, 140240, Note_off_c, 9, 42, 64
12, 140400, Note_on_c, 9, 42, 125
12, 140480, Note_off_c, 9, 42, 64
12, 140640, Note_on_c, 9, 42, 125
12, 140720, Note_off_c, 9, 42, 64
12, 140880, Note_on_c, 9, 42, 125
12, 140960, Note_off_c, 9, 42, 64
12, 141120, Note_on_c, 9, 42, 125
12, 141200, Note_off_c, 9, 42, 64
12, 141360, Note_on_c, 9, 42, 125
12, 141440, Note_off_c, 9, 42, 64
12, 141600, Note_on_c, 9, 42, 125
12, 141680, Note_off_c, 9, 42, 64
12, 141840, Note_on_c, 9, 42, 125
12, 141920, Note_off_c, 9, 42, 64
12, 142080, Note_on_c, 9, 42, 125
12, 142160, Note_off_c, 9, 42, 64
12, 142320, Note_on_c, 9, 42, 125
12, 142400, Note_off_c, 9, 42, 64
12, 142560, Note_on_c, 9, 42, 125
12, 142640, Note_off_c, 9, 42, 64
12, 142800, Note_on_c, 9, 42, 125
12, 142880, Note_off_c, 9, 42, 64
12, 143040, Note_on_c, 9, 42, 125
12, 143120, Note_off_c, 9, 42, 64
12, 143280, Note_on_c, 9, 42, 125
12, 143360, Note_off_c, 9, 42, 64
12, 143520, Note_on_c, 9, 42, 125
12, 143600, Note_off_c, 9, 42, 64
12, 143760, Note_on_c, 9, 42, 125
12, 143840, Note_off_c, 9, 42, 64
12, 144000, Note_on_c, 9, 42, 125
12, 144080, Note_off_c, 9, 42, 64
12, 144240, Note_on_c, 9, 42, 125
12, 144320, Note_off_c, 9, 42, 64
12, 144480, Note_on_c, 9, 42, 125
12, 144560, Note_off_c, 9, 42, 64
12, 144720, Note_on_c, 9, 42, 125
12, 144800, Note_off_c, 9, 42, 64
12, 144960, Note_on_c, 9, 42, 125
12, 145040, Note_off_c, 9, 42, 64
12, 145200, Note_on_c, 9, 42, 125
12, 145280, Note_off_c, 9, 42, 64
12, 145440, Note_on_c, 9, 42, 125
12, 145520, Note_off_c, 9, 42, 64
12, 145680, Note_on_c, 9, 42, 125
12, 145760, Note_off_c, 9, 42, 64
12, 145920, Note_on_c, 9, 42, 125
12, 146000, Note_off_c, 9, 42, 64
12, 146160, Note_on_c, 9, 42, 125
12, 146240, Note_off_c, 9, 42, 64
12, 146400, Note_on_c, 9, 42, 125
12, 146480, Note_off_c, 9, 42, 64
12, 146640, Note_on_c, 9, 42, 125
12, 146720, Note_off_c, 9, 42, 64
12, 146880, Note_on_c, 9, 42, 125
12, 146960, Note_off_c, 9, 42, 64
12, 147120, Note_on_c, 9, 42, 125
12, 147200, Note_off_c, 9, 42, 64
12, 147360, Note_on_c, 9, 42, 125
12, 147440, Note_off_c, 9, 42, 64
12, 147600, Note_on_c, 9, 42, 125
12, 147680, Note_off_c, 9, 42, 64
12, 147840, Note_on_c, 9, 42, 125
12, 147920, Note_off_c, 9, 42, 64
12, 148080, Note_on_c, 9, 42, 125
12, 148160, Note_off_c, 9, 42, 64
12, 148320, Note_on_c, 9, 42, 125
12, 148400, Note_off_c, 9, 42, 64
12, 148560, Note_on_c, 9, 42, 125
12, 148640, Note_off_c, 9, 42, 64
12, 148800, Note_on_c, 9, 42, 125
12, 148880, Note_off_c, 9, 42, 64
12, 149040, Note_on_c, 9, 42, 125
12, 149120, Note_off_c, 9, 42, 64
12, 149280, Note_on_c, 9, 42, 125
12, 149360, Note_off_c, 9, 42, 64
12, 149520, Note_on_c, 9, 42, 125
12, 149600, Note_off_c, 9, 42, 64
12, 149760, Note_on_c, 9, 42, 125
12, 149840, Note_off_c, 9, 42, 64
12, 150000, Note_on_c, 9, 42, 125
12, 150080, Note_off_c, 9, 42, 64
12, 150240, Note_on_c, 9, 42, 125
12, 150320, Note_off_c, 9, 42, 64
12, 150480, Note_on_c, 9, 42, 125
12, 150560, Note_off_c, 9, 42, 64
12, 150720, Note_on_c, 9, 42, 125
12, 150800, Note_off_c, 9, 42, 64
12, 150960, Note_on_c, 9, 42, 125
12, 151040, Note_off_c, 9, 42, 64
12, 151200, Note_on_c, 9, 42, 125
12, 151280, Note_off_c, 9, 42, 64
12, 151440, Note_on_c, 9, 42, 125
12, 151520, Note_off_c, 9, 42, 64
12, 151680, Note_on_c, 9, 42, 125
12, 151760, Note_off_c, 9, 42, 64
12, 151920, Note_on_c, 9, 42, 125
12, 152000, Note_off_c, 9, 42, 64
12, 152160, Note_on_c, 9, 42, 125
12, 152240, Note_off_c, 9, 42, 64
12, 152400, Note_on_c, 9, 42, 125
12, 152480, Note_off_c, 9, 42, 64
12, 152640, Note_on_c, 9, 42, 125
12, 152720, Note_off_c, 9, 42, 64
12, 152880, Note_on_c, 9, 42, 125
12, 152960, Note_off_c, 9, 42, 64
12, 153120, Note_on_c, 9, 42, 125
12, 153200, Note_off_c, 9, 42, 64
12, 153360, Note_on_c, 9, 42, 125
12, 153440, Note_off_c, 9, 42, 64
12, 153600, Note_on_c, 9, 42, 125
12, 153680, Note_off_c, 9, 42, 64
12, 153840, Note_on_c, 9, 42, 125
12, 153920, Note_off_c, 9, 42, 64
12, 154080, Note_on_c, 9, 42, 125
12, 154160, Note_off_c, 9, 42, 64
12, 154320, Note_on_c, 9, 42, 125
12, 154400, Note_off_c, 9, 42, 64
12, 154560, Note_on_c, 9, 42, 125
12, 154640, Note_off_c, 9, 42, 64
12, 154800, Note_on_c, 9, 42, 125
12, 154880, Note_off_c, 9, 42, 64
12, 155040, Note_on_c, 9, 42, 125
12, 155120, Note_off_c, 9, 42, 64
12, 155280, Note_on_c, 9, 42, 125
12, 155360, Note_off_c, 9, 42, 64
12, 155520, Note_on_c, 9, 42, 125
12, 155600, Note_off_c, 9, 42, 64
12, 155760, Note_on_c, 9, 42, 125
12, 155840, Note_off_c, 9, 42, 64
12, 156000, Note_on_c, 9, 42, 125
12, 156080, Note_off_c, 9, 42, 64
12, 156240, Note_on_c, 9, 42, 125
12, 156320, Note_off_c, 9, 42, 64
12, 156480, Note_on_c, 9, 42, 125
12, 156560, Note_off_c, 9, 42, 64
12, 156720, Note_on_c, 9, 42, 125
12, 156800, Note_off_c, 9, 42, 64
12, 156960, Note_on_c, 9, 42, 125
12, 157040, Note_off_c, 9, 42, 64
12, 157200, Note_on_c, 9, 42, 125
12, 157280, Note_off_c, 9, 42, 64
12, 157440, Note_on_c, 9, 42, 125
12, 157520, Note_off_c, 9, 42, 64
12, 157680, Note_on_c, 9, 42, 125
12, 157760, Note_off_c, 9, 42, 64
12, 157920, Note_on_c, 9, 42, 125
12, 158000, Note_off_c, 9, 42, 64
12, 158160, Note_on_c, 9, 42, 125
12, 158240, Note_off_c, 9, 42, 64
12, 158400, Note_on_c, 9, 42, 125
12, 158480, Note_off_c, 9, 42, 64
12, 158640, Note_on_c, 9, 42, 125
12, 158720, Note_off_c, 9, 42, 64
12, 158880, Note_on_c, 9, 42, 125
12, 158960, Note_off_c, 9, 42, 64
12, 159120, Note_on_c, 9, 42, 125
12, 159200, Note_off_c, 9, 42, 64
12, 159360, Note_on_c, 9, 42, 125
12, 159440, Note_off_c, 9, 42, 64
12, 159600, Note_on_c, 9, 42, 125
12, 159680, Note_off_c, 9, 42, 64
12, 159840, Note_on_c, 9, 42, 125
12, 159920, Note_off_c, 9, 42, 64
12, 160080, Note_on_c, 9, 42, 125
12, 160160, Note_off_c, 9, 42, 64
12, 160320, Note_on_c, 9, 42, 125
12, 160400, Note_off_c, 9, 42, 64
12, 160560, Note_on_c, 9, 42, 125
12, 160640, Note_off_c, 9, 42, 64
12, 160800, Note_on_c, 9, 42, 125
12, 160880, Note_off_c, 9, 42, 64
12, 161040, Note_on_c, 9, 42, 125
12, 161120, Note_off_c, 9, 42, 64
12, 161280, Note_on_c, 9, 42, 125
12, 161360, Note_off_c, 9, 42, 64
12, 161520, Note_on_c, 9, 42, 125
12, 161600, Note_off_c, 9, 42, 64
12, 161760, Note_on_c, 9, 42, 125
12, 161840, Note_off_c, 9, 42, 64
12, 162000, Note_on_c, 9, 42, 125
12, 162080, Note_off_c, 9, 42, 64
12, 162240, Note_on_c, 9, 42, 125
12, 162320, Note_off_c, 9, 42, 64
12, 162480, Note_on_c, 9, 42, 125
12, 162560, Note_off_c, 9, 42, 64
12, 162720, Note_on_c, 9, 42, 125
12, 162800, Note_off_c, 9, 42, 64
12, 162960, Note_on_c, 9, 42, 125
12, 163040, Note_off_c, 9, 42, 64
12, 163200, Note_on_c, 9, 42, 125
12, 163280, Note_off_c, 9, 42, 64
12, 163440, Note_on_c, 9, 42, 125
12, 163520, Note_off_c, 9, 42, 64
12, 163680, Note_on_c, 9, 42, 125
12, 163760, Note_off_c, 9, 42, 64
12, 163920, Note_on_c, 9, 42, 125
12, 164000, Note_off_c, 9, 42, 64
12, 164160, Note_on_c, 9, 42, 125
12, 164240, Note_off_c, 9, 42, 64
12, 164400, Note_on_c, 9, 42, 125
12, 164480, Note_off_c, 9, 42, 64
12, 164640, Note_on_c, 9, 42, 125
12, 164720, Note_off_c, 9, 42, 64
12, 164880, Note_on_c, 9, 42, 125
12, 164960, Note_off_c, 9, 42, 64
12, 165120, Note_on_c, 9, 42, 125
12, 165200, Note_off_c, 9, 42, 64
12, 165360, Note_on_c, 9, 42, 125
12, 165440, Note_off_c, 9, 42, 64
12, 165600, Note_on_c, 9, 42, 125
12, 165680, Note_off_c, 9, 42, 64
12, 165840, Note_on_c, 9, 42, 125
12, 165920, Note_off_c, 9, 42, 64
12, 166080, Note_on_c, 9, 42, 125
12, 166160, Note_off_c, 9, 42, 64
12, 166320, Note_on_c, 9, 42, 125
12, 166400, Note_off_c, 9, 42, 64
12, 166560, Note_on_c, 9, 42, 125
12, 166640, Note_off_c, 9, 42, 64
12, 166800, Note_on_c, 9, 42, 125
12, 166880, Note_off_c, 9, 42, 64
12, 167040, Note_on_c, 9, 42, 125
12, 167120, Note_off_c, 9, 42, 64
12, 167280, Note_on_c, 9, 42, 125
12, 167360, Note_off_c, 9, 42, 64
12, 167520, Note_on_c, 9, 42, 125
12, 167600, Note_off_c, 9, 42, 64
12, 167760, Note_on_c, 9, 42, 125
12, 167840, Note_off_c, 9, 42, 64
12, 168000, Note_on_c, 9, 42, 125
12, 168080, Note_off_c, 9, 42, 64
12, 168240, Note_on_c, 9, 42, 125
12, 168320, Note_off_c, 9, 42, 64
12, 168480, Note_on_c, 9, 42, 125
12, 168560, Note_off_c, 9, 42, 64
12, 168720, Note_on_c, 9, 42, 125
12, 168800, Note_off_c, 9, 42, 64
12, 168960, Note_on_c, 9, 42, 125
12, 169040, Note_off_c, 9, 42, 64
12, 169200, Note_on_c, 9, 42, 125
12, 169280, Note_off_c, 9, 42, 64
12, 169440, Note_on_c, 9, 42, 125
12, 169520, Note_off_c, 9, 42, 64
12, 169680, Note_on_c, 9, 42, 125
12, 169760, Note_off_c, 9, 42, 64
12, 169920, Note_on_c, 9, 42, 125
12, 170000, Note_off_c, 9, 42, 64
12, 170160, Note_on_c, 9, 42, 125
12, 170240, Note_off_c, 9, 42, 64
12, 170400, Note_on_c, 9, 42, 125
12, 170480, Note_off_c, 9, 42, 64
12, 170640, Note_on_c, 9, 42, 125
12, 170720, Note_off_c, 9, 42, 64
12, 170880, Note_on_c, 9, 42, 115
12, 170960, Note_off_c, 9, 42, 64
12, 171120, Note_on_c, 9, 42, 113
12, 171200, Note_off_c, 9, 42, 64
12, 171360, Note_on_c, 9, 42, 110
12, 171440, Note_off_c, 9, 42, 64
12, 171600, Note_on_c, 9, 42, 107
12, 171680, Note_off_c, 9, 42, 64
12, 171840, Note_on_c, 9, 42, 104
12, 171920, Note_off_c, 9, 42, 64
12, 172080, Note_on_c, 9, 42, 101
12, 172160, Note_off_c, 9, 42, 64
12, 172320, Note_on_c, 9, 42, 98
12, 172400, Note_off_c, 9, 42, 64
12, 172560, Note_on_c, 9, 42, 95
12, 172640, Note_off_c, 9, 42, 64
12, 172800, Note_on_c, 9, 42, 92
12, 172880, Note_off_c, 9, 42, 64
12, 173040, Note_on_c, 9, 42, 90
12, 173120, Note_off_c, 9, 42, 64
12, 173280, Note_on_c, 9, 42, 87
12, 173360, Note_off_c, 9, 42, 64
12, 173520, Note_on_c, 9, 42, 84
12, 173600, Note_off_c, 9, 42, 64
12, 173760, Note_on_c, 9, 42, 81
12, 173840, Note_off_c, 9, 42, 64
12, 174000, Note_on_c, 9, 42, 78
12, 174080, Note_off_c, 9, 42, 64
12, 174240, Note_on_c, 9, 42, 75
12, 174320, Note_off_c, 9, 42, 64
12, 174480, Note_on_c, 9, 42, 72
12, 174560, Note_off_c, 9, 42, 64
12, 174720, Note_on_c, 9, 42, 69
12, 174800, Note_off_c, 9, 42, 64
12, 174960, Note_on_c, 9, 42, 67
12, 175040, Note_off_c, 9, 42, 64
12, 175200, Note_on_c, 9, 42, 64
12, 175280, Note_off_c, 9, 42, 64
12, 175440, Note_on_c, 9, 42, 61
12, 175520, Note_off_c, 9, 42, 64
12, 175680, Note_on_c, 9, 42, 58
12, 175760, Note_off_c, 9, 42, 64
12, 175920, Note_on_c, 9, 42, 55
12, 176000, Note_off_c, 9, 42, 64
12, 176160, Note_on_c, 9, 42, 52
12, 176240, Note_off_c, 9, 42, 64
12, 176400, Note_on_c, 9, 42, 49
12, 176480, Note_off_c, 9, 42, 64
12, 176640, Note_on_c, 9, 42, 46
12, 176720, Note_off_c, 9, 42, 64
12, 176880, Note_on_c, 9, 42, 44
12, 176960, Note_off_c, 9, 42, 64
12, 177120, Note_on_c, 9, 42, 41
12, 177200, Note_off_c, 9, 42, 64
12, 177360, Note_on_c, 9, 42, 38
12, 177440, Note_off_c, 9, 42, 64
12, 177600, Note_on_c, 9, 42, 36
12, 177680, Note_off_c, 9, 42, 64
12, 177840, Note_on_c, 9, 42, 34
12, 177920, Note_off_c, 9, 42, 64
12, 178080, Note_on_c, 9, 42, 32
12, 178160, Note_off_c, 9, 42, 64
12, 178320, Note_on_c, 9, 42, 29
12, 178400, Note_off_c, 9, 42, 64
12, 178560, Note_on_c, 9, 42, 26
12, 178640, Note_off_c, 9, 42, 64
12, 178800, Note_on_c, 9, 42, 24
12, 178880, Note_off_c, 9, 42, 64
12, 179040, Note_on_c, 9, 42, 22
12, 179120, Note_off_c, 9, 42, 64
12, 179280, Note_on_c, 9, 42, 20
12, 179360, Note_off_c, 9, 42, 64
12, 179520, Note_on_c, 9, 42, 17
12, 179600, Note_off_c, 9, 42, 64
12, 179760, Note_on_c, 9, 42, 14
12, 179840, Note_off_c, 9, 42, 64
12, 180000, Note_on_c, 9, 42, 12
12, 180080, Note_off_c, 9, 42, 64
12, 180240, Note_on_c, 9, 42, 10
12, 180320, Note_off_c, 9, 42, 64
12, 180720, Note_on_c, 9, 42, 8
12, 180800, Note_off_c, 9, 42, 64
12, 180960, Note_on_c, 9, 42, 6
12, 181040, Note_off_c, 9, 42, 64
12, 181200, Note_on_c, 9, 42, 5
12, 181280, Note_off_c, 9, 42, 64
12, 181440, Note_on_c, 9, 42, 4
12, 181520, Note_off_c, 9, 42, 64
12, 181680, Note_on_c, 9, 42, 3
12, 181760, Note_off_c, 9, 42, 64
12, 181920, Note_on_c, 9, 42, 2
12, 182000, Note_off_c, 9, 42, 64
12, 182160, Note_on_c, 9, 42, 2
12, 182240, Note_off_c, 9, 42, 64
12, 182240, End_track
13, 0, Start_track
13, 0, Title_t, "Crash Cymbal"
13, 0, MIDI_port, 0
13, 0, Channel_prefix, 9
13, 0, Control_c, 9, 7, 127
13, 0, Control_c, 9, 10, 64
13, 0, Control_c, 9, 91, 127
13, 0, Control_c, 9, 93, 0
13, 0, Program_c, 9, 32
13, 1920, Note_on_c, 9, 49, 125
13, 2000, Note_off_c, 9, 49, 64
13, 17280, Note_on_c, 9, 49, 125
13, 17360, Note_off_c, 9, 49, 64
13, 32640, Note_on_c, 9, 49, 125
13, 32720, Note_off_c, 9, 49, 64
13, 48000, Note_on_c, 9, 49, 125
13, 48080, Note_off_c, 9, 49, 64
13, 63360, Note_on_c, 9, 49, 125
13, 63440, Note_off_c, 9, 49, 64
13, 78720, Note_on_c, 9, 49, 125
13, 78800, Note_off_c, 9, 49, 64
13, 94080, Note_on_c, 9, 49, 125
13, 94160, Note_off_c, 9, 49, 64
13, 109440, Note_on_c, 9, 49, 125
13, 109520, Note_off_c, 9, 49, 64
13, 124800, Note_on_c, 9, 49, 125
13, 124880, Note_off_c, 9, 49, 64
13, 140160, Note_on_c, 9, 49, 125
13, 140240, Note_off_c, 9, 49, 64
13, 155520, Note_on_c, 9, 49, 125
13, 155600, Note_off_c, 9, 49, 64
13, 170880, Note_on_c, 9, 49, 115
13, 170960, Note_off_c, 9, 49, 64
13, 170960, End_track
14, 0, Start_track
14, 0, Title_t, "High Tom"
14, 0, MIDI_port, 0
14, 0, Channel_prefix, 9
14, 0, Control_c, 9, 7, 127
14, 0, Control_c, 9, 10, 64
14, 0, Control_c, 9, 91, 127
14, 0, Control_c, 9, 93, 0
14, 0, Program_c, 9, 32
14, 16320, Note_on_c, 9, 45, 125
14, 16392, Note_off_c, 9, 45, 64
14, 31840, Note_on_c, 9, 45, 125
14, 31912, Note_off_c, 9, 45, 64
14, 32000, Note_on_c, 9, 45, 125
14, 32080, Note_off_c, 9, 45, 64
14, 62400, Note_on_c, 9, 45, 125
14, 62472, Note_off_c, 9, 45, 64
14, 77760, Note_on_c, 9, 45, 125
14, 77832, Note_off_c, 9, 45, 64
14, 93280, Note_on_c, 9, 45, 125
14, 93352, Note_off_c, 9, 45, 64
14, 93440, Note_on_c, 9, 45, 125
14, 93520, Note_off_c, 9, 45, 64
14, 123840, Note_on_c, 9, 45, 125
14, 123912, Note_off_c, 9, 45, 64
14, 139200, Note_on_c, 9, 45, 125
14, 139272, Note_off_c, 9, 45, 64
14, 154720, Note_on_c, 9, 45, 125
14, 154792, Note_off_c, 9, 45, 64
14, 154880, Note_on_c, 9, 45, 125
14, 154960, Note_off_c, 9, 45, 64
14, 154960, End_track
15, 0, Start_track
15, 0, Title_t, "Low Tom"
15, 0, MIDI_port, 0
15, 0, Channel_prefix, 9
15, 0, Control_c, 9, 7, 127
15, 0, Control_c, 9, 10, 64
15, 0, Control_c, 9, 91, 127
15, 0, Control_c, 9, 93, 0
15, 0, Program_c, 9, 32
15, 17040, Note_on_c, 9, 43, 125
15, 17112, Note_off_c, 9, 43, 64
15, 32160, Note_on_c, 9, 41, 125
15, 32232, Note_off_c, 9, 41, 64
15, 32320, Note_on_c, 9, 41, 125
15, 32400, Note_off_c, 9, 41, 64
15, 62640, Note_on_c, 9, 41, 125
15, 62712, Note_off_c, 9, 41, 64
15, 78480, Note_on_c, 9, 43, 125
15, 78552, Note_off_c, 9, 43, 64
15, 93600, Note_on_c, 9, 41, 125
15, 93672, Note_off_c, 9, 41, 64
15, 93760, Note_on_c, 9, 41, 125
15, 93840, Note_off_c, 9, 41, 64
15, 124080, Note_on_c, 9, 41, 125
15, 124152, Note_off_c, 9, 41, 64
15, 139920, Note_on_c, 9, 43, 125
15, 139992, Note_off_c, 9, 43, 64
15, 155040, Note_on_c, 9, 41, 125
15, 155112, Note_off_c, 9, 41, 64
15, 155200, Note_on_c, 9, 41, 125
15, 155280, Note_off_c, 9, 41, 64
15, 155280, End_track
16, 0, Start_track
16, 0, Title_t, "Up, Up and Away"
16, 0, MIDI_port, 0
16, 0, End_track
17, 0, Start_track
17, 0, Title_t, "Words and Music by:"
17, 0, MIDI_port, 0
17, 0, End_track
18, 0, Start_track
18, 0, Title_t, "Jim Webb"
18, 0, MIDI_port, 0
18, 0, End_track
19, 0, Start_track
19, 0, Title_t, "Originally performed by:"
19, 0, MIDI_port, 0
19, 0, End_track
20, 0, Start_track
20, 0, Title_t, "The Fifth Dimension"
20, 0, MIDI_port, 0
20, 0, End_track
21, 0, Start_track
21, 0, Title_t, "Arr. and Seq. by:"
21, 0, MIDI_port, 0
21, 0, End_track
22, 0, Start_track
22, 0, Title_t, "Gary Rogers"
22, 0, MIDI_port, 0
22, 0, End_track
0, 0, End_of_file
