0, 0, Header, 1, 7, 192
1, 0, Start_track
1, 0, Title_t, "Velvet Green"
1, 0, Text_t, "By Ian Anderson"
1, 0, Copyright_t, "Adam Bodkin"
1, 0, Text_t, "Generated by NoteWorthy Composer"
1, 0, Tempo, 315789
1, 0, Key_signature, -2, "major"
1, 0, Time_signature, 5, 2, 24, 8
1, 960, Time_signature, 6, 2, 24, 8
1, 3264, Time_signature, 5, 2, 24, 8
1, 4224, Time_signature, 6, 2, 24, 8
1, 5376, Time_signature, 7, 2, 24, 8
1, 6720, Time_signature, 3, 2, 24, 8
1, 7296, Time_signature, 5, 2, 24, 8
1, 8256, Time_signature, 4, 2, 24, 8
1, 9792, Time_signature, 6, 2, 24, 8
1, 10944, Time_signature, 7, 2, 24, 8
1, 12288, Time_signature, 5, 2, 24, 8
1, 13248, Time_signature, 7, 2, 24, 8
1, 15936, Time_signature, 6, 2, 24, 8
1, 17088, Time_signature, 7, 2, 24, 8
1, 18432, Time_signature, 6, 2, 24, 8
1, 19584, Time_signature, 7, 2, 24, 8
1, 20928, Time_signature, 6, 2, 24, 8
1, 22080, Time_signature, 7, 2, 24, 8
1, 23424, Time_signature, 6, 2, 24, 8
1, 24576, Time_signature, 7, 2, 24, 8
1, 25920, Time_signature, 6, 2, 24, 8
1, 27072, Time_signature, 7, 2, 24, 8
1, 28416, Time_signature, 6, 2, 24, 8
1, 29568, Time_signature, 7, 2, 24, 8
1, 30912, Time_signature, 5, 2, 24, 8
1, 31872, Time_signature, 3, 2, 24, 8
1, 32448, Time_signature, 6, 2, 24, 8
1, 35904, Time_signature, 5, 2, 24, 8
1, 37824, Time_signature, 3, 2, 24, 8
1, 38400, Time_signature, 5, 2, 24, 8
1, 40320, Time_signature, 7, 2, 24, 8
1, 41664, Time_signature, 5, 2, 24, 8
1, 42624, Time_signature, 3, 2, 24, 8
1, 43200, Time_signature, 6, 2, 24, 8
1, 46656, Time_signature, 5, 2, 24, 8
1, 48576, Time_signature, 3, 2, 24, 8
1, 49152, Time_signature, 5, 2, 24, 8
1, 51072, Time_signature, 7, 2, 24, 8
1, 52416, Time_signature, 6, 2, 24, 8
1, 53568, Time_signature, 7, 2, 24, 8
1, 54912, Time_signature, 6, 2, 24, 8
1, 56064, Time_signature, 7, 2, 24, 8
1, 57408, Time_signature, 6, 2, 24, 8
1, 58560, Time_signature, 7, 2, 24, 8
1, 61248, Tempo, 363636
1, 61248, Time_signature, 4, 2, 24, 8
1, 99648, Tempo, 279069
1, 100416, Key_signature, -3, "major"
1, 106560, Time_signature, 5, 2, 24, 8
1, 107520, Time_signature, 6, 2, 24, 8
1, 108672, Time_signature, 5, 2, 24, 8
1, 109632, Time_signature, 6, 2, 24, 8
1, 110784, Time_signature, 4, 2, 24, 8
1, 110784, Key_signature, -1, "major"
1, 116928, Time_signature, 5, 2, 24, 8
1, 120768, Time_signature, 4, 2, 24, 8
1, 120768, Key_signature, 1, "major"
1, 126912, Time_signature, 6, 2, 24, 8
1, 136128, Key_signature, -2, "major"
1, 136128, Time_signature, 5, 2, 24, 8
1, 137088, Time_signature, 6, 2, 24, 8
1, 138240, Time_signature, 5, 2, 24, 8
1, 139200, Time_signature, 6, 2, 24, 8
1, 140352, Time_signature, 4, 2, 24, 8
1, 149568, Tempo, 352941
1, 177216, Tempo, 315789
1, 177216, Time_signature, 7, 2, 24, 8
1, 179904, Time_signature, 4, 2, 24, 8
1, 181440, Time_signature, 6, 2, 24, 8
1, 182592, Time_signature, 5, 2, 24, 8
1, 183552, Time_signature, 3, 2, 24, 8
1, 184128, Time_signature, 6, 2, 24, 8
1, 187584, Time_signature, 5, 2, 24, 8
1, 189504, Time_signature, 3, 2, 24, 8
1, 190080, Time_signature, 5, 2, 24, 8
1, 192000, Time_signature, 7, 2, 24, 8
1, 193344, Time_signature, 5, 2, 24, 8
1, 194304, Time_signature, 3, 2, 24, 8
1, 194880, Time_signature, 6, 2, 24, 8
1, 198336, Time_signature, 5, 2, 24, 8
1, 200256, Time_signature, 3, 2, 24, 8
1, 200832, Time_signature, 5, 2, 24, 8
1, 202752, Time_signature, 7, 2, 24, 8
1, 204096, Time_signature, 6, 2, 24, 8
1, 205248, Time_signature, 7, 2, 24, 8
1, 206592, Time_signature, 6, 2, 24, 8
1, 207744, Time_signature, 7, 2, 24, 8
1, 209088, Time_signature, 6, 2, 24, 8
1, 210240, Time_signature, 7, 2, 24, 8
1, 211584, Time_signature, 6, 2, 24, 8
1, 212736, Time_signature, 7, 2, 24, 8
1, 212736, End_track
2, 0, Start_track
2, 0, MIDI_port, 0
2, 0, Title_t, "Harpsichord, Key, Voice"
2, 0, Program_c, 0, 6
2, 0, Control_c, 0, 7, 127
2, 0, Control_c, 0, 10, 64
2, 0, Note_on_c, 0, 55, 92
2, 0, Note_on_c, 0, 58, 92
2, 0, Note_on_c, 0, 62, 92
2, 0, Note_on_c, 0, 67, 92
2, 160, Note_on_c, 0, 67, 0
2, 192, Note_on_c, 0, 67, 92
2, 286, Note_on_c, 0, 67, 0
2, 288, Note_on_c, 0, 69, 92
2, 382, Note_on_c, 0, 69, 0
2, 384, Note_on_c, 0, 70, 92
2, 528, Note_on_c, 0, 55, 0
2, 528, Note_on_c, 0, 58, 0
2, 528, Note_on_c, 0, 62, 0
2, 544, Note_on_c, 0, 70, 0
2, 576, Note_on_c, 0, 57, 92
2, 576, Note_on_c, 0, 60, 92
2, 576, Note_on_c, 0, 72, 92
2, 736, Note_on_c, 0, 72, 0
2, 768, Note_on_c, 0, 65, 92
2, 912, Note_on_c, 0, 57, 0
2, 912, Note_on_c, 0, 60, 0
2, 928, Note_on_c, 0, 65, 0
2, 960, Note_on_c, 0, 58, 92
2, 960, Note_on_c, 0, 62, 92
2, 960, Note_on_c, 0, 67, 92
2, 1120, Note_on_c, 0, 67, 0
2, 1152, Note_on_c, 0, 70, 92
2, 1246, Note_on_c, 0, 70, 0
2, 1248, Note_on_c, 0, 69, 92
2, 1296, Note_on_c, 0, 58, 0
2, 1296, Note_on_c, 0, 62, 0
2, 1342, Note_on_c, 0, 69, 0
2, 1344, Note_on_c, 0, 60, 92
2, 1344, Note_on_c, 0, 64, 92
2, 1344, Note_on_c, 0, 67, 92
2, 1504, Note_on_c, 0, 60, 0
2, 1504, Note_on_c, 0, 64, 0
2, 1504, Note_on_c, 0, 67, 0
2, 1536, Note_on_c, 0, 57, 92
2, 1536, Note_on_c, 0, 62, 92
2, 1536, Note_on_c, 0, 66, 92
2, 1566, Note_on_c, 0, 66, 0
2, 1568, Note_on_c, 0, 67, 92
2, 1598, Note_on_c, 0, 67, 0
2, 1600, Note_on_c, 0, 66, 92
2, 1630, Note_on_c, 0, 66, 0
2, 1632, Note_on_c, 0, 64, 92
2, 1726, Note_on_c, 0, 64, 0
2, 1728, Note_on_c, 0, 66, 92
2, 1872, Note_on_c, 0, 57, 0
2, 1872, Note_on_c, 0, 62, 0
2, 1888, Note_on_c, 0, 66, 0
2, 1920, Note_on_c, 0, 62, 92
2, 2080, Note_on_c, 0, 62, 0
2, 2112, Note_on_c, 0, 58, 92
2, 2112, Note_on_c, 0, 62, 92
2, 2112, Note_on_c, 0, 67, 92
2, 2272, Note_on_c, 0, 67, 0
2, 2304, Note_on_c, 0, 67, 92
2, 2398, Note_on_c, 0, 67, 0
2, 2400, Note_on_c, 0, 69, 92
2, 2494, Note_on_c, 0, 69, 0
2, 2496, Note_on_c, 0, 70, 92
2, 2640, Note_on_c, 0, 58, 0
2, 2640, Note_on_c, 0, 62, 0
2, 2656, Note_on_c, 0, 70, 0
2, 2688, Note_on_c, 0, 57, 92
2, 2688, Note_on_c, 0, 60, 92
2, 2688, Note_on_c, 0, 72, 92
2, 2848, Note_on_c, 0, 57, 0
2, 2848, Note_on_c, 0, 60, 0
2, 2848, Note_on_c, 0, 72, 0
2, 2880, Note_on_c, 0, 58, 92
2, 2880, Note_on_c, 0, 62, 92
2, 2880, Note_on_c, 0, 70, 92
2, 2974, Note_on_c, 0, 70, 0
2, 2976, Note_on_c, 0, 69, 92
2, 3040, Note_on_c, 0, 58, 0
2, 3040, Note_on_c, 0, 62, 0
2, 3070, Note_on_c, 0, 69, 0
2, 3072, Note_on_c, 0, 60, 92
2, 3072, Note_on_c, 0, 64, 92
2, 3072, Note_on_c, 0, 67, 92
2, 3232, Note_on_c, 0, 60, 0
2, 3232, Note_on_c, 0, 64, 0
2, 3232, Note_on_c, 0, 67, 0
2, 3264, Note_on_c, 0, 57, 92
2, 3264, Note_on_c, 0, 62, 92
2, 3264, Note_on_c, 0, 66, 92
2, 3358, Note_on_c, 0, 66, 0
2, 3360, Note_on_c, 0, 64, 92
2, 3424, Note_on_c, 0, 57, 0
2, 3424, Note_on_c, 0, 62, 0
2, 3454, Note_on_c, 0, 64, 0
2, 3456, Note_on_c, 0, 66, 92
2, 3616, Note_on_c, 0, 66, 0
2, 3648, Note_on_c, 0, 55, 92
2, 3648, Note_on_c, 0, 58, 92
2, 3648, Note_on_c, 0, 62, 92
2, 3648, Note_on_c, 0, 67, 92
2, 3984, Note_on_c, 0, 55, 0
2, 3984, Note_on_c, 0, 58, 0
2, 3984, Note_on_c, 0, 62, 0
2, 3984, Note_on_c, 0, 67, 0
2, 4032, Note_on_c, 0, 55, 92
2, 4032, Note_on_c, 0, 74, 92
2, 4192, Note_on_c, 0, 55, 0
2, 4192, Note_on_c, 0, 74, 0
2, 4224, Note_on_c, 0, 60, 92
2, 4224, Note_on_c, 0, 64, 92
2, 4224, Note_on_c, 0, 67, 92
2, 4224, Note_on_c, 0, 72, 92
2, 4752, Note_on_c, 0, 64, 0
2, 4752, Note_on_c, 0, 67, 0
2, 4752, Note_on_c, 0, 72, 0
2, 4800, Note_on_c, 0, 67, 92
2, 4800, Note_on_c, 0, 72, 92
2, 4800, Note_on_c, 0, 76, 92
2, 4944, Note_on_c, 0, 60, 0
2, 5136, Note_on_c, 0, 67, 0
2, 5136, Note_on_c, 0, 72, 0
2, 5136, Note_on_c, 0, 76, 0
2, 5184, Note_on_c, 0, 64, 92
2, 5184, Note_on_c, 0, 67, 92
2, 5184, Note_on_c, 0, 72, 92
2, 5278, Note_on_c, 0, 64, 0
2, 5280, Note_on_c, 0, 65, 92
2, 5344, Note_on_c, 0, 67, 0
2, 5344, Note_on_c, 0, 72, 0
2, 5374, Note_on_c, 0, 65, 0
2, 5376, Note_on_c, 0, 62, 92
2, 5376, Note_on_c, 0, 67, 92
2, 5376, Note_on_c, 0, 71, 92
2, 5536, Note_on_c, 0, 62, 0
2, 5536, Note_on_c, 0, 67, 0
2, 5536, Note_on_c, 0, 71, 0
2, 5568, Note_on_c, 0, 67, 92
2, 5568, Note_on_c, 0, 71, 92
2, 5568, Note_on_c, 0, 74, 92
2, 5728, Note_on_c, 0, 67, 0
2, 5728, Note_on_c, 0, 71, 0
2, 5728, Note_on_c, 0, 74, 0
2, 5760, Note_on_c, 0, 60, 92
2, 5760, Note_on_c, 0, 65, 92
2, 5760, Note_on_c, 0, 69, 92
2, 6096, Note_on_c, 0, 60, 0
2, 6096, Note_on_c, 0, 65, 0
2, 6096, Note_on_c, 0, 69, 0
2, 6144, Note_on_c, 0, 65, 92
2, 6144, Note_on_c, 0, 69, 92
2, 6144, Note_on_c, 0, 72, 92
2, 6304, Note_on_c, 0, 65, 0
2, 6304, Note_on_c, 0, 69, 0
2, 6304, Note_on_c, 0, 72, 0
2, 6336, Note_on_c, 0, 60, 92
2, 6336, Note_on_c, 0, 65, 92
2, 6336, Note_on_c, 0, 69, 92
2, 6496, Note_on_c, 0, 60, 0
2, 6496, Note_on_c, 0, 65, 0
2, 6496, Note_on_c, 0, 69, 0
2, 6528, Note_on_c, 0, 58, 92
2, 6528, Note_on_c, 0, 63, 92
2, 6528, Note_on_c, 0, 67, 92
2, 6688, Note_on_c, 0, 58, 0
2, 6688, Note_on_c, 0, 63, 0
2, 6688, Note_on_c, 0, 67, 0
2, 6720, Note_on_c, 0, 57, 92
2, 6720, Note_on_c, 0, 62, 92
2, 6720, Note_on_c, 0, 66, 92
2, 6880, Note_on_c, 0, 66, 0
2, 6912, Note_on_c, 0, 66, 92
2, 7006, Note_on_c, 0, 66, 0
2, 7008, Note_on_c, 0, 64, 92
2, 7102, Note_on_c, 0, 64, 0
2, 7104, Note_on_c, 0, 62, 92
2, 7248, Note_on_c, 0, 57, 0
2, 7248, Note_on_c, 0, 62, 0
2, 7264, Note_on_c, 0, 62, 0
2, 7296, Note_on_c, 0, 58, 92
2, 7296, Note_on_c, 0, 62, 92
2, 7296, Note_on_c, 0, 67, 92
2, 7456, Note_on_c, 0, 67, 0
2, 7488, Note_on_c, 0, 67, 92
2, 7582, Note_on_c, 0, 67, 0
2, 7584, Note_on_c, 0, 69, 92
2, 7632, Note_on_c, 0, 58, 0
2, 7632, Note_on_c, 0, 62, 0
2, 7678, Note_on_c, 0, 69, 0
2, 7680, Note_on_c, 0, 70, 92
2, 7840, Note_on_c, 0, 70, 0
2, 7872, Note_on_c, 0, 60, 92
2, 7872, Note_on_c, 0, 65, 92
2, 7872, Note_on_c, 0, 72, 92
2, 8032, Note_on_c, 0, 72, 0
2, 8064, Note_on_c, 0, 65, 92
2, 8208, Note_on_c, 0, 60, 0
2, 8208, Note_on_c, 0, 65, 0
2, 8224, Note_on_c, 0, 65, 0
2, 8256, Note_on_c, 0, 58, 92
2, 8256, Note_on_c, 0, 62, 92
2, 8256, Note_on_c, 0, 67, 92
2, 8416, Note_on_c, 0, 58, 0
2, 8416, Note_on_c, 0, 62, 0
2, 8416, Note_on_c, 0, 67, 0
2, 8448, Note_on_c, 0, 70, 92
2, 8448, Note_on_c, 0, 74, 92
2, 8542, Note_on_c, 0, 70, 0
2, 8542, Note_on_c, 0, 74, 0
2, 8544, Note_on_c, 0, 69, 92
2, 8544, Note_on_c, 0, 72, 92
2, 8638, Note_on_c, 0, 69, 0
2, 8638, Note_on_c, 0, 72, 0
2, 8640, Note_on_c, 0, 70, 92
2, 8640, Note_on_c, 0, 74, 92
2, 8800, Note_on_c, 0, 70, 0
2, 8800, Note_on_c, 0, 74, 0
2, 8832, Note_on_c, 0, 58, 92
2, 8832, Note_on_c, 0, 62, 92
2, 8832, Note_on_c, 0, 67, 92
2, 8992, Note_on_c, 0, 58, 0
2, 8992, Note_on_c, 0, 62, 0
2, 8992, Note_on_c, 0, 67, 0
2, 9024, Note_on_c, 0, 60, 92
2, 9024, Note_on_c, 0, 65, 92
2, 9024, Note_on_c, 0, 69, 92
2, 9184, Note_on_c, 0, 60, 0
2, 9184, Note_on_c, 0, 65, 0
2, 9184, Note_on_c, 0, 69, 0
2, 9216, Note_on_c, 0, 69, 92
2, 9216, Note_on_c, 0, 72, 92
2, 9310, Note_on_c, 0, 69, 0
2, 9310, Note_on_c, 0, 72, 0
2, 9312, Note_on_c, 0, 67, 92
2, 9312, Note_on_c, 0, 70, 92
2, 9406, Note_on_c, 0, 67, 0
2, 9406, Note_on_c, 0, 70, 0
2, 9408, Note_on_c, 0, 69, 92
2, 9408, Note_on_c, 0, 72, 92
2, 9568, Note_on_c, 0, 69, 0
2, 9568, Note_on_c, 0, 72, 0
2, 9600, Note_on_c, 0, 60, 92
2, 9600, Note_on_c, 0, 65, 92
2, 9600, Note_on_c, 0, 69, 92
2, 9760, Note_on_c, 0, 60, 0
2, 9760, Note_on_c, 0, 65, 0
2, 9760, Note_on_c, 0, 69, 0
2, 9792, Note_on_c, 0, 62, 92
2, 9792, Note_on_c, 0, 67, 92
2, 9792, Note_on_c, 0, 70, 92
2, 9952, Note_on_c, 0, 62, 0
2, 9952, Note_on_c, 0, 67, 0
2, 9952, Note_on_c, 0, 70, 0
2, 9984, Note_on_c, 0, 67, 92
2, 9984, Note_on_c, 0, 70, 92
2, 10078, Note_on_c, 0, 67, 0
2, 10078, Note_on_c, 0, 70, 0
2, 10080, Note_on_c, 0, 65, 92
2, 10080, Note_on_c, 0, 69, 92
2, 10174, Note_on_c, 0, 65, 0
2, 10174, Note_on_c, 0, 69, 0
2, 10176, Note_on_c, 0, 67, 92
2, 10176, Note_on_c, 0, 70, 92
2, 10336, Note_on_c, 0, 67, 0
2, 10336, Note_on_c, 0, 70, 0
2, 10368, Note_on_c, 0, 66, 92
2, 10368, Note_on_c, 0, 69, 92
2, 10462, Note_on_c, 0, 66, 0
2, 10462, Note_on_c, 0, 69, 0
2, 10464, Note_on_c, 0, 64, 92
2, 10464, Note_on_c, 0, 67, 92
2, 10558, Note_on_c, 0, 64, 0
2, 10558, Note_on_c, 0, 67, 0
2, 10560, Note_on_c, 0, 66, 92
2, 10560, Note_on_c, 0, 69, 92
2, 10654, Note_on_c, 0, 66, 0
2, 10654, Note_on_c, 0, 69, 0
2, 10656, Note_on_c, 0, 64, 92
2, 10656, Note_on_c, 0, 67, 92
2, 10750, Note_on_c, 0, 64, 0
2, 10750, Note_on_c, 0, 67, 0
2, 10752, Note_on_c, 0, 62, 92
2, 10752, Note_on_c, 0, 66, 92
2, 10846, Note_on_c, 0, 62, 0
2, 10846, Note_on_c, 0, 66, 0
2, 10944, Note_on_c, 0, 62, 92
2, 10944, Note_on_c, 0, 67, 92
2, 11104, Note_on_c, 0, 62, 0
2, 11104, Note_on_c, 0, 67, 0
2, 11136, Note_on_c, 0, 79, 92
2, 11230, Note_on_c, 0, 79, 0
2, 11232, Note_on_c, 0, 77, 92
2, 11326, Note_on_c, 0, 77, 0
2, 11328, Note_on_c, 0, 79, 92
2, 11422, Note_on_c, 0, 79, 0
2, 11520, Note_on_c, 0, 67, 92
2, 11680, Note_on_c, 0, 67, 0
2, 11712, Note_on_c, 0, 74, 92
2, 11806, Note_on_c, 0, 74, 0
2, 11808, Note_on_c, 0, 72, 92
2, 11902, Note_on_c, 0, 72, 0
2, 11904, Note_on_c, 0, 70, 92
2, 11998, Note_on_c, 0, 70, 0
2, 12000, Note_on_c, 0, 69, 92
2, 12094, Note_on_c, 0, 69, 0
2, 12096, Note_on_c, 0, 72, 92
2, 12190, Note_on_c, 0, 72, 0
2, 12192, Note_on_c, 0, 69, 92
2, 12286, Note_on_c, 0, 69, 0
2, 12288, Note_on_c, 0, 67, 92
2, 12448, Note_on_c, 0, 67, 0
2, 13248, Note_on_c, 0, 62, 92
2, 13248, Note_on_c, 0, 67, 92
2, 13408, Note_on_c, 0, 62, 0
2, 13408, Note_on_c, 0, 67, 0
2, 13440, Note_on_c, 0, 70, 92
2, 13440, Note_on_c, 0, 79, 92
2, 13534, Note_on_c, 0, 70, 0
2, 13534, Note_on_c, 0, 79, 0
2, 13536, Note_on_c, 0, 69, 92
2, 13536, Note_on_c, 0, 77, 92
2, 13630, Note_on_c, 0, 69, 0
2, 13630, Note_on_c, 0, 77, 0
2, 13632, Note_on_c, 0, 70, 92
2, 13632, Note_on_c, 0, 79, 92
2, 13726, Note_on_c, 0, 70, 0
2, 13726, Note_on_c, 0, 79, 0
2, 13824, Note_on_c, 0, 62, 92
2, 13824, Note_on_c, 0, 67, 92
2, 13984, Note_on_c, 0, 62, 0
2, 13984, Note_on_c, 0, 67, 0
2, 14016, Note_on_c, 0, 70, 92
2, 14016, Note_on_c, 0, 74, 92
2, 14110, Note_on_c, 0, 70, 0
2, 14110, Note_on_c, 0, 74, 0
2, 14112, Note_on_c, 0, 69, 92
2, 14112, Note_on_c, 0, 72, 92
2, 14206, Note_on_c, 0, 69, 0
2, 14206, Note_on_c, 0, 72, 0
2, 14208, Note_on_c, 0, 67, 92
2, 14208, Note_on_c, 0, 70, 92
2, 14302, Note_on_c, 0, 67, 0
2, 14302, Note_on_c, 0, 70, 0
2, 14304, Note_on_c, 0, 65, 92
2, 14304, Note_on_c, 0, 69, 92
2, 14398, Note_on_c, 0, 65, 0
2, 14398, Note_on_c, 0, 69, 0
2, 14400, Note_on_c, 0, 69, 92
2, 14400, Note_on_c, 0, 72, 92
2, 14494, Note_on_c, 0, 69, 0
2, 14494, Note_on_c, 0, 72, 0
2, 14496, Note_on_c, 0, 65, 92
2, 14496, Note_on_c, 0, 69, 92
2, 14590, Note_on_c, 0, 65, 0
2, 14590, Note_on_c, 0, 69, 0
2, 30912, Program_c, 0, 48
2, 30912, Note_on_c, 0, 67, 108
2, 31072, Note_on_c, 0, 67, 0
2, 31104, Note_on_c, 0, 67, 108
2, 31198, Note_on_c, 0, 67, 0
2, 31200, Note_on_c, 0, 69, 108
2, 31294, Note_on_c, 0, 69, 0
2, 31296, Note_on_c, 0, 65, 108
2, 31456, Note_on_c, 0, 65, 0
2, 31488, Note_on_c, 0, 69, 108
2, 31648, Note_on_c, 0, 69, 0
2, 31680, Note_on_c, 0, 65, 108
2, 31840, Note_on_c, 0, 65, 0
2, 31872, Note_on_c, 0, 65, 108
2, 32208, Note_on_c, 0, 65, 0
2, 32448, Note_on_c, 0, 66, 108
2, 32784, Note_on_c, 0, 66, 0
2, 33024, Note_on_c, 0, 67, 108
2, 33552, Note_on_c, 0, 67, 0
2, 33600, Note_on_c, 0, 69, 108
2, 33936, Note_on_c, 0, 69, 0
2, 33984, Note_on_c, 0, 74, 108
2, 34704, Note_on_c, 0, 74, 0
2, 34752, Note_on_c, 0, 71, 108
2, 35008, Note_on_c, 0, 71, 0
2, 35040, Note_on_c, 0, 69, 108
2, 35134, Note_on_c, 0, 69, 0
2, 35136, Note_on_c, 0, 67, 108
2, 35296, Note_on_c, 0, 67, 0
2, 35328, Note_on_c, 0, 64, 108
2, 35856, Note_on_c, 0, 64, 0
2, 36192, Note_on_c, 0, 67, 108
2, 36286, Note_on_c, 0, 67, 0
2, 36288, Note_on_c, 0, 67, 108
2, 36448, Note_on_c, 0, 67, 0
2, 36480, Note_on_c, 0, 67, 108
2, 36574, Note_on_c, 0, 67, 0
2, 36576, Note_on_c, 0, 67, 108
2, 36670, Note_on_c, 0, 67, 0
2, 36672, Note_on_c, 0, 67, 108
2, 36832, Note_on_c, 0, 67, 0
2, 36864, Note_on_c, 0, 72, 108
2, 37392, Note_on_c, 0, 72, 0
2, 37824, Note_on_c, 0, 69, 108
2, 38080, Note_on_c, 0, 69, 0
2, 38112, Note_on_c, 0, 67, 108
2, 38206, Note_on_c, 0, 67, 0
2, 38208, Note_on_c, 0, 66, 108
2, 38368, Note_on_c, 0, 66, 0
2, 38400, Note_on_c, 0, 67, 108
2, 38560, Note_on_c, 0, 67, 0
2, 38592, Note_on_c, 0, 69, 108
2, 38752, Note_on_c, 0, 69, 0
2, 38784, Note_on_c, 0, 65, 108
2, 38944, Note_on_c, 0, 65, 0
2, 38976, Note_on_c, 0, 69, 108
2, 39136, Note_on_c, 0, 69, 0
2, 39168, Note_on_c, 0, 65, 108
2, 39328, Note_on_c, 0, 65, 0
2, 39360, Note_on_c, 0, 67, 108
2, 40288, Note_on_c, 0, 67, 0
2, 41664, Note_on_c, 0, 67, 108
2, 41824, Note_on_c, 0, 67, 0
2, 41856, Note_on_c, 0, 67, 108
2, 41950, Note_on_c, 0, 67, 0
2, 41952, Note_on_c, 0, 69, 108
2, 42046, Note_on_c, 0, 69, 0
2, 42048, Note_on_c, 0, 65, 108
2, 42208, Note_on_c, 0, 65, 0
2, 42240, Note_on_c, 0, 69, 108
2, 42400, Note_on_c, 0, 69, 0
2, 42432, Note_on_c, 0, 65, 108
2, 42592, Note_on_c, 0, 65, 0
2, 42624, Note_on_c, 0, 65, 108
2, 42960, Note_on_c, 0, 65, 0
2, 43200, Note_on_c, 0, 66, 108
2, 43360, Note_on_c, 0, 66, 0
2, 43392, Note_on_c, 0, 64, 108
2, 43552, Note_on_c, 0, 64, 0
2, 43584, Note_on_c, 0, 62, 108
2, 43744, Note_on_c, 0, 62, 0
2, 43776, Note_on_c, 0, 67, 108
2, 44304, Note_on_c, 0, 67, 0
2, 44352, Note_on_c, 0, 69, 108
2, 44688, Note_on_c, 0, 69, 0
2, 44736, Note_on_c, 0, 74, 108
2, 45456, Note_on_c, 0, 74, 0
2, 45504, Note_on_c, 0, 71, 108
2, 45760, Note_on_c, 0, 71, 0
2, 45792, Note_on_c, 0, 69, 108
2, 45886, Note_on_c, 0, 69, 0
2, 45888, Note_on_c, 0, 67, 108
2, 46048, Note_on_c, 0, 67, 0
2, 46080, Note_on_c, 0, 64, 108
2, 46608, Note_on_c, 0, 64, 0
2, 46848, Note_on_c, 0, 67, 108
2, 46942, Note_on_c, 0, 67, 0
2, 46944, Note_on_c, 0, 67, 108
2, 47038, Note_on_c, 0, 67, 0
2, 47040, Note_on_c, 0, 67, 108
2, 47200, Note_on_c, 0, 67, 0
2, 47232, Note_on_c, 0, 67, 108
2, 47392, Note_on_c, 0, 67, 0
2, 47424, Note_on_c, 0, 67, 108
2, 47584, Note_on_c, 0, 67, 0
2, 47616, Note_on_c, 0, 72, 108
2, 48144, Note_on_c, 0, 72, 0
2, 48576, Note_on_c, 0, 69, 108
2, 48832, Note_on_c, 0, 69, 0
2, 48864, Note_on_c, 0, 67, 108
2, 48958, Note_on_c, 0, 67, 0
2, 48960, Note_on_c, 0, 66, 108
2, 49120, Note_on_c, 0, 66, 0
2, 49152, Note_on_c, 0, 67, 108
2, 49312, Note_on_c, 0, 67, 0
2, 49344, Note_on_c, 0, 69, 108
2, 49504, Note_on_c, 0, 69, 0
2, 49536, Note_on_c, 0, 65, 108
2, 49696, Note_on_c, 0, 65, 0
2, 49728, Note_on_c, 0, 69, 108
2, 49888, Note_on_c, 0, 69, 0
2, 49920, Note_on_c, 0, 65, 108
2, 50080, Note_on_c, 0, 65, 0
2, 50112, Note_on_c, 0, 67, 108
2, 51040, Note_on_c, 0, 67, 0
2, 61440, Note_on_c, 0, 58, 108
2, 61534, Note_on_c, 0, 58, 0
2, 61536, Note_on_c, 0, 58, 108
2, 61630, Note_on_c, 0, 58, 0
2, 61632, Note_on_c, 0, 62, 108
2, 61792, Note_on_c, 0, 62, 0
2, 61824, Note_on_c, 0, 63, 108
2, 61984, Note_on_c, 0, 63, 0
2, 62016, Note_on_c, 0, 65, 108
2, 62176, Note_on_c, 0, 65, 0
2, 62208, Note_on_c, 0, 65, 108
2, 62302, Note_on_c, 0, 65, 0
2, 62304, Note_on_c, 0, 65, 108
2, 62560, Note_on_c, 0, 65, 0
2, 62592, Note_on_c, 0, 63, 108
2, 62686, Note_on_c, 0, 63, 0
2, 62688, Note_on_c, 0, 62, 108
2, 62782, Note_on_c, 0, 62, 0
2, 62784, Note_on_c, 0, 63, 108
2, 62944, Note_on_c, 0, 63, 0
2, 62976, Note_on_c, 0, 63, 108
2, 63070, Note_on_c, 0, 63, 0
2, 63072, Note_on_c, 0, 65, 108
2, 63166, Note_on_c, 0, 65, 0
2, 63168, Note_on_c, 0, 63, 108
2, 63262, Note_on_c, 0, 63, 0
2, 63264, Note_on_c, 0, 58, 108
2, 63424, Note_on_c, 0, 58, 0
2, 63456, Note_on_c, 0, 58, 108
2, 63888, Note_on_c, 0, 58, 0
2, 64512, Note_on_c, 0, 58, 108
2, 64672, Note_on_c, 0, 58, 0
2, 64704, Note_on_c, 0, 62, 108
2, 64864, Note_on_c, 0, 62, 0
2, 64896, Note_on_c, 0, 63, 108
2, 64990, Note_on_c, 0, 63, 0
2, 64992, Note_on_c, 0, 65, 108
2, 65248, Note_on_c, 0, 65, 0
2, 65280, Note_on_c, 0, 70, 108
2, 65374, Note_on_c, 0, 70, 0
2, 65376, Note_on_c, 0, 70, 108
2, 65632, Note_on_c, 0, 70, 0
2, 65664, Note_on_c, 0, 68, 108
2, 65758, Note_on_c, 0, 68, 0
2, 65760, Note_on_c, 0, 67, 108
2, 65854, Note_on_c, 0, 67, 0
2, 65856, Note_on_c, 0, 68, 108
2, 66016, Note_on_c, 0, 68, 0
2, 66048, Note_on_c, 0, 70, 108
2, 66142, Note_on_c, 0, 70, 0
2, 66144, Note_on_c, 0, 72, 108
2, 66238, Note_on_c, 0, 72, 0
2, 66240, Note_on_c, 0, 70, 108
2, 66400, Note_on_c, 0, 70, 0
2, 66432, Note_on_c, 0, 68, 108
2, 66526, Note_on_c, 0, 68, 0
2, 66528, Note_on_c, 0, 70, 108
2, 66784, Note_on_c, 0, 70, 0
2, 66816, Note_on_c, 0, 77, 108
2, 67344, Note_on_c, 0, 77, 0
2, 67584, Note_on_c, 0, 70, 108
2, 67678, Note_on_c, 0, 70, 0
2, 67680, Note_on_c, 0, 72, 108
2, 67774, Note_on_c, 0, 72, 0
2, 67776, Note_on_c, 0, 73, 108
2, 67936, Note_on_c, 0, 73, 0
2, 67968, Note_on_c, 0, 72, 108
2, 68128, Note_on_c, 0, 72, 0
2, 68160, Note_on_c, 0, 70, 108
2, 68254, Note_on_c, 0, 70, 0
2, 68256, Note_on_c, 0, 68, 108
2, 68416, Note_on_c, 0, 68, 0
2, 68448, Note_on_c, 0, 70, 108
2, 68704, Note_on_c, 0, 70, 0
2, 68736, Note_on_c, 0, 65, 108
2, 68896, Note_on_c, 0, 65, 0
2, 68928, Note_on_c, 0, 63, 108
2, 69088, Note_on_c, 0, 63, 0
2, 69120, Note_on_c, 0, 61, 108
2, 69214, Note_on_c, 0, 61, 0
2, 69216, Note_on_c, 0, 65, 108
2, 69406, Note_on_c, 0, 65, 0
2, 69408, Note_on_c, 0, 58, 108
2, 69568, Note_on_c, 0, 58, 0
2, 69600, Note_on_c, 0, 58, 108
2, 70032, Note_on_c, 0, 58, 0
2, 70272, Note_on_c, 0, 58, 108
2, 70366, Note_on_c, 0, 58, 0
2, 70368, Note_on_c, 0, 60, 108
2, 70462, Note_on_c, 0, 60, 0
2, 70464, Note_on_c, 0, 61, 108
2, 70558, Note_on_c, 0, 61, 0
2, 70560, Note_on_c, 0, 61, 108
2, 70816, Note_on_c, 0, 61, 0
2, 70848, Note_on_c, 0, 63, 108
2, 71008, Note_on_c, 0, 63, 0
2, 71040, Note_on_c, 0, 65, 108
2, 71134, Note_on_c, 0, 65, 0
2, 71136, Note_on_c, 0, 63, 108
2, 71326, Note_on_c, 0, 63, 0
2, 71328, Note_on_c, 0, 61, 108
2, 71488, Note_on_c, 0, 61, 0
2, 71520, Note_on_c, 0, 58, 108
2, 71710, Note_on_c, 0, 58, 0
2, 71712, Note_on_c, 0, 56, 108
2, 71872, Note_on_c, 0, 56, 0
2, 71904, Note_on_c, 0, 56, 108
2, 72094, Note_on_c, 0, 56, 0
2, 72096, Note_on_c, 0, 58, 108
2, 72190, Note_on_c, 0, 58, 0
2, 72192, Note_on_c, 0, 58, 108
2, 72928, Note_on_c, 0, 58, 0
2, 74496, Note_on_c, 0, 53, 108
2, 74496, Note_on_c, 0, 58, 108
2, 74656, Note_on_c, 0, 53, 0
2, 74656, Note_on_c, 0, 58, 0
2, 74688, Note_on_c, 0, 53, 108
2, 74688, Note_on_c, 0, 62, 108
2, 74848, Note_on_c, 0, 53, 0
2, 74848, Note_on_c, 0, 62, 0
2, 74880, Note_on_c, 0, 55, 108
2, 74880, Note_on_c, 0, 63, 108
2, 74974, Note_on_c, 0, 55, 0
2, 74974, Note_on_c, 0, 63, 0
2, 74976, Note_on_c, 0, 58, 108
2, 74976, Note_on_c, 0, 65, 108
2, 75166, Note_on_c, 0, 58, 0
2, 75166, Note_on_c, 0, 65, 0
2, 75168, Note_on_c, 0, 58, 108
2, 75168, Note_on_c, 0, 65, 108
2, 75424, Note_on_c, 0, 58, 0
2, 75424, Note_on_c, 0, 65, 0
2, 75456, Note_on_c, 0, 58, 108
2, 75456, Note_on_c, 0, 65, 108
2, 75616, Note_on_c, 0, 58, 0
2, 75616, Note_on_c, 0, 65, 0
2, 75648, Note_on_c, 0, 56, 108
2, 75648, Note_on_c, 0, 63, 108
2, 75742, Note_on_c, 0, 56, 0
2, 75742, Note_on_c, 0, 63, 0
2, 75744, Note_on_c, 0, 58, 108
2, 75744, Note_on_c, 0, 65, 108
2, 75838, Note_on_c, 0, 58, 0
2, 75838, Note_on_c, 0, 65, 0
2, 75840, Note_on_c, 0, 56, 108
2, 75840, Note_on_c, 0, 63, 108
2, 76000, Note_on_c, 0, 56, 0
2, 76000, Note_on_c, 0, 63, 0
2, 76032, Note_on_c, 0, 56, 108
2, 76032, Note_on_c, 0, 63, 108
2, 76126, Note_on_c, 0, 56, 0
2, 76126, Note_on_c, 0, 63, 0
2, 76128, Note_on_c, 0, 58, 108
2, 76128, Note_on_c, 0, 65, 108
2, 76222, Note_on_c, 0, 58, 0
2, 76222, Note_on_c, 0, 65, 0
2, 76224, Note_on_c, 0, 56, 108
2, 76224, Note_on_c, 0, 63, 108
2, 76318, Note_on_c, 0, 56, 0
2, 76318, Note_on_c, 0, 63, 0
2, 76320, Note_on_c, 0, 51, 108
2, 76320, Note_on_c, 0, 58, 108
2, 76480, Note_on_c, 0, 51, 0
2, 76480, Note_on_c, 0, 58, 0
2, 76512, Note_on_c, 0, 53, 108
2, 76512, Note_on_c, 0, 58, 108
2, 76944, Note_on_c, 0, 53, 0
2, 76944, Note_on_c, 0, 58, 0
2, 77568, Note_on_c, 0, 58, 108
2, 77728, Note_on_c, 0, 58, 0
2, 77760, Note_on_c, 0, 62, 108
2, 77920, Note_on_c, 0, 62, 0
2, 77952, Note_on_c, 0, 63, 108
2, 78046, Note_on_c, 0, 63, 0
2, 78048, Note_on_c, 0, 65, 108
2, 78048, Note_on_c, 0, 70, 108
2, 78238, Note_on_c, 0, 65, 0
2, 78238, Note_on_c, 0, 70, 0
2, 78240, Note_on_c, 0, 70, 108
2, 78240, Note_on_c, 0, 77, 108
2, 78334, Note_on_c, 0, 70, 0
2, 78334, Note_on_c, 0, 77, 0
2, 78336, Note_on_c, 0, 70, 108
2, 78336, Note_on_c, 0, 77, 108
2, 78672, Note_on_c, 0, 70, 0
2, 78672, Note_on_c, 0, 77, 0
2, 78720, Note_on_c, 0, 68, 108
2, 78720, Note_on_c, 0, 75, 108
2, 78814, Note_on_c, 0, 68, 0
2, 78814, Note_on_c, 0, 75, 0
2, 78816, Note_on_c, 0, 67, 108
2, 78816, Note_on_c, 0, 74, 108
2, 78910, Note_on_c, 0, 67, 0
2, 78910, Note_on_c, 0, 74, 0
2, 78912, Note_on_c, 0, 68, 108
2, 78912, Note_on_c, 0, 75, 108
2, 79072, Note_on_c, 0, 68, 0
2, 79072, Note_on_c, 0, 75, 0
2, 79104, Note_on_c, 0, 68, 108
2, 79104, Note_on_c, 0, 75, 108
2, 79264, Note_on_c, 0, 68, 0
2, 79264, Note_on_c, 0, 75, 0
2, 79296, Note_on_c, 0, 70, 108
2, 79296, Note_on_c, 0, 77, 108
2, 79390, Note_on_c, 0, 70, 0
2, 79390, Note_on_c, 0, 77, 0
2, 79392, Note_on_c, 0, 72, 108
2, 79392, Note_on_c, 0, 77, 108
2, 79552, Note_on_c, 0, 72, 0
2, 79552, Note_on_c, 0, 77, 0
2, 79584, Note_on_c, 0, 70, 108
2, 79584, Note_on_c, 0, 77, 108
2, 79840, Note_on_c, 0, 70, 0
2, 79840, Note_on_c, 0, 77, 0
2, 79872, Note_on_c, 0, 77, 108
2, 80400, Note_on_c, 0, 77, 0
2, 80640, Note_on_c, 0, 70, 108
2, 80640, Note_on_c, 0, 73, 108
2, 80734, Note_on_c, 0, 70, 0
2, 80734, Note_on_c, 0, 73, 0
2, 80736, Note_on_c, 0, 72, 108
2, 80736, Note_on_c, 0, 75, 108
2, 80830, Note_on_c, 0, 72, 0
2, 80830, Note_on_c, 0, 75, 0
2, 80832, Note_on_c, 0, 73, 108
2, 80832, Note_on_c, 0, 77, 108
2, 80992, Note_on_c, 0, 73, 0
2, 80992, Note_on_c, 0, 77, 0
2, 81024, Note_on_c, 0, 72, 108
2, 81024, Note_on_c, 0, 75, 108
2, 81184, Note_on_c, 0, 72, 0
2, 81184, Note_on_c, 0, 75, 0
2, 81216, Note_on_c, 0, 70, 108
2, 81216, Note_on_c, 0, 73, 108
2, 81310, Note_on_c, 0, 70, 0
2, 81310, Note_on_c, 0, 73, 0
2, 81312, Note_on_c, 0, 68, 108
2, 81312, Note_on_c, 0, 72, 108
2, 81472, Note_on_c, 0, 68, 0
2, 81472, Note_on_c, 0, 72, 0
2, 81504, Note_on_c, 0, 70, 108
2, 81504, Note_on_c, 0, 73, 108
2, 81760, Note_on_c, 0, 70, 0
2, 81760, Note_on_c, 0, 73, 0
2, 81792, Note_on_c, 0, 65, 108
2, 81952, Note_on_c, 0, 65, 0
2, 81984, Note_on_c, 0, 63, 108
2, 82144, Note_on_c, 0, 63, 0
2, 82176, Note_on_c, 0, 61, 108
2, 82270, Note_on_c, 0, 61, 0
2, 82272, Note_on_c, 0, 65, 108
2, 82462, Note_on_c, 0, 65, 0
2, 82464, Note_on_c, 0, 58, 108
2, 82624, Note_on_c, 0, 58, 0
2, 82656, Note_on_c, 0, 58, 108
2, 83088, Note_on_c, 0, 58, 0
2, 83328, Note_on_c, 0, 50, 108
2, 83328, Note_on_c, 0, 58, 108
2, 83328, Note_on_c, 0, 70, 108
2, 83422, Note_on_c, 0, 50, 0
2, 83422, Note_on_c, 0, 58, 0
2, 83422, Note_on_c, 0, 70, 0
2, 83424, Note_on_c, 0, 51, 108
2, 83424, Note_on_c, 0, 60, 108
2, 83424, Note_on_c, 0, 72, 108
2, 83518, Note_on_c, 0, 51, 0
2, 83518, Note_on_c, 0, 60, 0
2, 83518, Note_on_c, 0, 72, 0
2, 83520, Note_on_c, 0, 53, 108
2, 83520, Note_on_c, 0, 61, 108
2, 83520, Note_on_c, 0, 73, 108
2, 83614, Note_on_c, 0, 53, 0
2, 83614, Note_on_c, 0, 61, 0
2, 83614, Note_on_c, 0, 73, 0
2, 83616, Note_on_c, 0, 53, 108
2, 83616, Note_on_c, 0, 61, 108
2, 83616, Note_on_c, 0, 73, 108
2, 83872, Note_on_c, 0, 53, 0
2, 83872, Note_on_c, 0, 61, 0
2, 83872, Note_on_c, 0, 73, 0
2, 83904, Note_on_c, 0, 55, 108
2, 83904, Note_on_c, 0, 63, 108
2, 83904, Note_on_c, 0, 75, 108
2, 84064, Note_on_c, 0, 55, 0
2, 84064, Note_on_c, 0, 63, 0
2, 84064, Note_on_c, 0, 75, 0
2, 84096, Note_on_c, 0, 56, 108
2, 84096, Note_on_c, 0, 65, 108
2, 84096, Note_on_c, 0, 77, 108
2, 84190, Note_on_c, 0, 56, 0
2, 84190, Note_on_c, 0, 65, 0
2, 84190, Note_on_c, 0, 77, 0
2, 84192, Note_on_c, 0, 55, 108
2, 84192, Note_on_c, 0, 63, 108
2, 84192, Note_on_c, 0, 75, 108
2, 84382, Note_on_c, 0, 55, 0
2, 84382, Note_on_c, 0, 63, 0
2, 84382, Note_on_c, 0, 75, 0
2, 84384, Note_on_c, 0, 53, 108
2, 84384, Note_on_c, 0, 61, 108
2, 84384, Note_on_c, 0, 73, 108
2, 84544, Note_on_c, 0, 53, 0
2, 84544, Note_on_c, 0, 61, 0
2, 84544, Note_on_c, 0, 73, 0
2, 84576, Note_on_c, 0, 53, 108
2, 84576, Note_on_c, 0, 58, 108
2, 84576, Note_on_c, 0, 70, 108
2, 84766, Note_on_c, 0, 53, 0
2, 84766, Note_on_c, 0, 58, 0
2, 84766, Note_on_c, 0, 70, 0
2, 84768, Note_on_c, 0, 51, 108
2, 84768, Note_on_c, 0, 56, 108
2, 84768, Note_on_c, 0, 68, 108
2, 84928, Note_on_c, 0, 51, 0
2, 84928, Note_on_c, 0, 56, 0
2, 84928, Note_on_c, 0, 68, 0
2, 84960, Note_on_c, 0, 51, 108
2, 84960, Note_on_c, 0, 56, 108
2, 84960, Note_on_c, 0, 68, 108
2, 85150, Note_on_c, 0, 51, 0
2, 85150, Note_on_c, 0, 56, 0
2, 85150, Note_on_c, 0, 68, 0
2, 85152, Note_on_c, 0, 55, 108
2, 85152, Note_on_c, 0, 58, 108
2, 85152, Note_on_c, 0, 70, 108
2, 85246, Note_on_c, 0, 55, 0
2, 85246, Note_on_c, 0, 58, 0
2, 85246, Note_on_c, 0, 70, 0
2, 85248, Note_on_c, 0, 53, 108
2, 85248, Note_on_c, 0, 58, 108
2, 85248, Note_on_c, 0, 70, 108
2, 85984, Note_on_c, 0, 53, 0
2, 85984, Note_on_c, 0, 58, 0
2, 85984, Note_on_c, 0, 70, 0
2, 87552, Note_on_c, 0, 53, 108
2, 87552, Note_on_c, 0, 58, 108
2, 87712, Note_on_c, 0, 53, 0
2, 87712, Note_on_c, 0, 58, 0
2, 87744, Note_on_c, 0, 53, 108
2, 87744, Note_on_c, 0, 62, 108
2, 87904, Note_on_c, 0, 53, 0
2, 87904, Note_on_c, 0, 62, 0
2, 87936, Note_on_c, 0, 55, 108
2, 87936, Note_on_c, 0, 63, 108
2, 88030, Note_on_c, 0, 55, 0
2, 88030, Note_on_c, 0, 63, 0
2, 88032, Note_on_c, 0, 58, 108
2, 88032, Note_on_c, 0, 65, 108
2, 88222, Note_on_c, 0, 58, 0
2, 88222, Note_on_c, 0, 65, 0
2, 88224, Note_on_c, 0, 58, 108
2, 88224, Note_on_c, 0, 65, 108
2, 88480, Note_on_c, 0, 58, 0
2, 88480, Note_on_c, 0, 65, 0
2, 88512, Note_on_c, 0, 58, 108
2, 88512, Note_on_c, 0, 65, 108
2, 88672, Note_on_c, 0, 58, 0
2, 88672, Note_on_c, 0, 65, 0
2, 88704, Note_on_c, 0, 56, 108
2, 88704, Note_on_c, 0, 63, 108
2, 88798, Note_on_c, 0, 56, 0
2, 88798, Note_on_c, 0, 63, 0
2, 88800, Note_on_c, 0, 58, 108
2, 88800, Note_on_c, 0, 65, 108
2, 88894, Note_on_c, 0, 58, 0
2, 88894, Note_on_c, 0, 65, 0
2, 88896, Note_on_c, 0, 56, 108
2, 88896, Note_on_c, 0, 63, 108
2, 89056, Note_on_c, 0, 56, 0
2, 89056, Note_on_c, 0, 63, 0
2, 89088, Note_on_c, 0, 56, 108
2, 89088, Note_on_c, 0, 63, 108
2, 89182, Note_on_c, 0, 56, 0
2, 89182, Note_on_c, 0, 63, 0
2, 89184, Note_on_c, 0, 58, 108
2, 89184, Note_on_c, 0, 65, 108
2, 89278, Note_on_c, 0, 58, 0
2, 89278, Note_on_c, 0, 65, 0
2, 89280, Note_on_c, 0, 56, 108
2, 89280, Note_on_c, 0, 63, 108
2, 89374, Note_on_c, 0, 56, 0
2, 89374, Note_on_c, 0, 63, 0
2, 89376, Note_on_c, 0, 51, 108
2, 89376, Note_on_c, 0, 58, 108
2, 89536, Note_on_c, 0, 51, 0
2, 89536, Note_on_c, 0, 58, 0
2, 89568, Note_on_c, 0, 53, 108
2, 89568, Note_on_c, 0, 58, 108
2, 90000, Note_on_c, 0, 53, 0
2, 90000, Note_on_c, 0, 58, 0
2, 90624, Note_on_c, 0, 53, 108
2, 90624, Note_on_c, 0, 58, 108
2, 90784, Note_on_c, 0, 53, 0
2, 90784, Note_on_c, 0, 58, 0
2, 90816, Note_on_c, 0, 53, 108
2, 90816, Note_on_c, 0, 62, 108
2, 90976, Note_on_c, 0, 53, 0
2, 90976, Note_on_c, 0, 62, 0
2, 91008, Note_on_c, 0, 55, 108
2, 91008, Note_on_c, 0, 63, 108
2, 91008, Note_on_c, 0, 67, 108
2, 91102, Note_on_c, 0, 55, 0
2, 91102, Note_on_c, 0, 63, 0
2, 91102, Note_on_c, 0, 67, 0
2, 91104, Note_on_c, 0, 58, 108
2, 91104, Note_on_c, 0, 65, 108
2, 91104, Note_on_c, 0, 70, 108
2, 91294, Note_on_c, 0, 58, 0
2, 91294, Note_on_c, 0, 65, 0
2, 91294, Note_on_c, 0, 70, 0
2, 91296, Note_on_c, 0, 65, 108
2, 91296, Note_on_c, 0, 70, 108
2, 91296, Note_on_c, 0, 74, 108
2, 91390, Note_on_c, 0, 65, 0
2, 91390, Note_on_c, 0, 70, 0
2, 91390, Note_on_c, 0, 74, 0
2, 91392, Note_on_c, 0, 65, 108
2, 91392, Note_on_c, 0, 70, 108
2, 91392, Note_on_c, 0, 74, 108
2, 91728, Note_on_c, 0, 65, 0
2, 91728, Note_on_c, 0, 70, 0
2, 91728, Note_on_c, 0, 74, 0
2, 91776, Note_on_c, 0, 63, 108
2, 91776, Note_on_c, 0, 68, 108
2, 91776, Note_on_c, 0, 72, 108
2, 91870, Note_on_c, 0, 63, 0
2, 91870, Note_on_c, 0, 68, 0
2, 91870, Note_on_c, 0, 72, 0
2, 91872, Note_on_c, 0, 62, 108
2, 91872, Note_on_c, 0, 67, 108
2, 91872, Note_on_c, 0, 70, 108
2, 91966, Note_on_c, 0, 62, 0
2, 91966, Note_on_c, 0, 67, 0
2, 91966, Note_on_c, 0, 70, 0
2, 91968, Note_on_c, 0, 63, 108
2, 91968, Note_on_c, 0, 68, 108
2, 91968, Note_on_c, 0, 72, 108
2, 92128, Note_on_c, 0, 63, 0
2, 92128, Note_on_c, 0, 68, 0
2, 92128, Note_on_c, 0, 72, 0
2, 92160, Note_on_c, 0, 63, 108
2, 92160, Note_on_c, 0, 68, 108
2, 92160, Note_on_c, 0, 72, 108
2, 92320, Note_on_c, 0, 63, 0
2, 92320, Note_on_c, 0, 68, 0
2, 92320, Note_on_c, 0, 72, 0
2, 92352, Note_on_c, 0, 65, 108
2, 92352, Note_on_c, 0, 70, 108
2, 92352, Note_on_c, 0, 74, 108
2, 92446, Note_on_c, 0, 65, 0
2, 92446, Note_on_c, 0, 70, 0
2, 92446, Note_on_c, 0, 74, 0
2, 92448, Note_on_c, 0, 67, 108
2, 92448, Note_on_c, 0, 72, 108
2, 92448, Note_on_c, 0, 75, 108
2, 92608, Note_on_c, 0, 67, 0
2, 92608, Note_on_c, 0, 72, 0
2, 92608, Note_on_c, 0, 75, 0
2, 92640, Note_on_c, 0, 65, 108
2, 92640, Note_on_c, 0, 70, 108
2, 92640, Note_on_c, 0, 74, 108
2, 92896, Note_on_c, 0, 65, 0
2, 92896, Note_on_c, 0, 70, 0
2, 92896, Note_on_c, 0, 74, 0
2, 92928, Note_on_c, 0, 65, 108
2, 92928, Note_on_c, 0, 77, 108
2, 93456, Note_on_c, 0, 65, 0
2, 93456, Note_on_c, 0, 77, 0
2, 93696, Note_on_c, 0, 65, 108
2, 93696, Note_on_c, 0, 70, 108
2, 93696, Note_on_c, 0, 73, 108
2, 93790, Note_on_c, 0, 65, 0
2, 93790, Note_on_c, 0, 70, 0
2, 93790, Note_on_c, 0, 73, 0
2, 93792, Note_on_c, 0, 67, 108
2, 93792, Note_on_c, 0, 72, 108
2, 93792, Note_on_c, 0, 75, 108
2, 93886, Note_on_c, 0, 67, 0
2, 93886, Note_on_c, 0, 72, 0
2, 93886, Note_on_c, 0, 75, 0
2, 93888, Note_on_c, 0, 68, 108
2, 93888, Note_on_c, 0, 73, 108
2, 93888, Note_on_c, 0, 77, 108
2, 94048, Note_on_c, 0, 68, 0
2, 94048, Note_on_c, 0, 73, 0
2, 94048, Note_on_c, 0, 77, 0
2, 94080, Note_on_c, 0, 67, 108
2, 94080, Note_on_c, 0, 72, 108
2, 94080, Note_on_c, 0, 75, 108
2, 94240, Note_on_c, 0, 67, 0
2, 94240, Note_on_c, 0, 72, 0
2, 94240, Note_on_c, 0, 75, 0
2, 94272, Note_on_c, 0, 65, 108
2, 94272, Note_on_c, 0, 70, 108
2, 94272, Note_on_c, 0, 73, 108
2, 94366, Note_on_c, 0, 65, 0
2, 94366, Note_on_c, 0, 70, 0
2, 94366, Note_on_c, 0, 73, 0
2, 94368, Note_on_c, 0, 63, 108
2, 94368, Note_on_c, 0, 68, 108
2, 94368, Note_on_c, 0, 72, 108
2, 94528, Note_on_c, 0, 63, 0
2, 94528, Note_on_c, 0, 68, 0
2, 94528, Note_on_c, 0, 72, 0
2, 94560, Note_on_c, 0, 65, 108
2, 94560, Note_on_c, 0, 70, 108
2, 94560, Note_on_c, 0, 73, 108
2, 94656, Note_on_c, 0, 73, 108
2, 94702, Note_on_c, 0, 73, 0
2, 94816, Note_on_c, 0, 65, 0
2, 94816, Note_on_c, 0, 70, 0
2, 94816, Note_on_c, 0, 73, 0
2, 94848, Note_on_c, 0, 65, 108
2, 95008, Note_on_c, 0, 65, 0
2, 95040, Note_on_c, 0, 63, 108
2, 95200, Note_on_c, 0, 63, 0
2, 95232, Note_on_c, 0, 61, 108
2, 95326, Note_on_c, 0, 61, 0
2, 95328, Note_on_c, 0, 65, 108
2, 95518, Note_on_c, 0, 65, 0
2, 95520, Note_on_c, 0, 58, 108
2, 95680, Note_on_c, 0, 58, 0
2, 95712, Note_on_c, 0, 58, 108
2, 96144, Note_on_c, 0, 58, 0
2, 96384, Note_on_c, 0, 50, 108
2, 96384, Note_on_c, 0, 58, 108
2, 96384, Note_on_c, 0, 70, 108
2, 96478, Note_on_c, 0, 50, 0
2, 96478, Note_on_c, 0, 58, 0
2, 96478, Note_on_c, 0, 70, 0
2, 96480, Note_on_c, 0, 51, 108
2, 96480, Note_on_c, 0, 60, 108
2, 96480, Note_on_c, 0, 72, 108
2, 96574, Note_on_c, 0, 51, 0
2, 96574, Note_on_c, 0, 60, 0
2, 96574, Note_on_c, 0, 72, 0
2, 96576, Note_on_c, 0, 53, 108
2, 96576, Note_on_c, 0, 61, 108
2, 96576, Note_on_c, 0, 73, 108
2, 96670, Note_on_c, 0, 53, 0
2, 96670, Note_on_c, 0, 61, 0
2, 96670, Note_on_c, 0, 73, 0
2, 96672, Note_on_c, 0, 53, 108
2, 96672, Note_on_c, 0, 61, 108
2, 96672, Note_on_c, 0, 73, 108
2, 96928, Note_on_c, 0, 53, 0
2, 96928, Note_on_c, 0, 61, 0
2, 96928, Note_on_c, 0, 73, 0
2, 96960, Note_on_c, 0, 55, 108
2, 96960, Note_on_c, 0, 63, 108
2, 96960, Note_on_c, 0, 75, 108
2, 97120, Note_on_c, 0, 55, 0
2, 97120, Note_on_c, 0, 63, 0
2, 97120, Note_on_c, 0, 75, 0
2, 97152, Note_on_c, 0, 56, 108
2, 97152, Note_on_c, 0, 65, 108
2, 97152, Note_on_c, 0, 77, 108
2, 97246, Note_on_c, 0, 56, 0
2, 97246, Note_on_c, 0, 65, 0
2, 97246, Note_on_c, 0, 77, 0
2, 97248, Note_on_c, 0, 55, 108
2, 97248, Note_on_c, 0, 63, 108
2, 97248, Note_on_c, 0, 75, 108
2, 97438, Note_on_c, 0, 55, 0
2, 97438, Note_on_c, 0, 63, 0
2, 97438, Note_on_c, 0, 75, 0
2, 97440, Note_on_c, 0, 53, 108
2, 97440, Note_on_c, 0, 61, 108
2, 97440, Note_on_c, 0, 73, 108
2, 97600, Note_on_c, 0, 53, 0
2, 97600, Note_on_c, 0, 61, 0
2, 97600, Note_on_c, 0, 73, 0
2, 97632, Note_on_c, 0, 53, 108
2, 97632, Note_on_c, 0, 58, 108
2, 97632, Note_on_c, 0, 70, 108
2, 97822, Note_on_c, 0, 53, 0
2, 97822, Note_on_c, 0, 58, 0
2, 97822, Note_on_c, 0, 70, 0
2, 97824, Note_on_c, 0, 51, 108
2, 97824, Note_on_c, 0, 56, 108
2, 97824, Note_on_c, 0, 68, 108
2, 97984, Note_on_c, 0, 51, 0
2, 97984, Note_on_c, 0, 56, 0
2, 97984, Note_on_c, 0, 68, 0
2, 98016, Note_on_c, 0, 51, 108
2, 98016, Note_on_c, 0, 56, 108
2, 98016, Note_on_c, 0, 68, 108
2, 98206, Note_on_c, 0, 51, 0
2, 98206, Note_on_c, 0, 56, 0
2, 98206, Note_on_c, 0, 68, 0
2, 98208, Note_on_c, 0, 55, 108
2, 98208, Note_on_c, 0, 58, 108
2, 98208, Note_on_c, 0, 70, 108
2, 98302, Note_on_c, 0, 55, 0
2, 98302, Note_on_c, 0, 58, 0
2, 98302, Note_on_c, 0, 70, 0
2, 98304, Note_on_c, 0, 53, 108
2, 98304, Note_on_c, 0, 58, 108
2, 98304, Note_on_c, 0, 70, 108
2, 99040, Note_on_c, 0, 53, 0
2, 99040, Note_on_c, 0, 58, 0
2, 99040, Note_on_c, 0, 70, 0
2, 100416, Program_c, 0, 0
2, 100416, Note_on_c, 0, 70, 92
2, 100416, Note_on_c, 0, 75, 92
2, 100672, Note_on_c, 0, 70, 0
2, 100672, Note_on_c, 0, 75, 0
2, 100704, Note_on_c, 0, 70, 92
2, 100798, Note_on_c, 0, 70, 0
2, 100800, Note_on_c, 0, 70, 92
2, 100800, Note_on_c, 0, 75, 92
2, 100960, Note_on_c, 0, 70, 0
2, 100960, Note_on_c, 0, 75, 0
2, 100992, Note_on_c, 0, 70, 92
2, 100992, Note_on_c, 0, 75, 92
2, 101344, Note_on_c, 0, 70, 0
2, 101344, Note_on_c, 0, 75, 0
2, 101376, Note_on_c, 0, 70, 92
2, 101376, Note_on_c, 0, 75, 92
2, 101536, Note_on_c, 0, 70, 0
2, 101536, Note_on_c, 0, 75, 0
2, 101568, Note_on_c, 0, 68, 92
2, 101568, Note_on_c, 0, 73, 92
2, 101728, Note_on_c, 0, 68, 0
2, 101728, Note_on_c, 0, 73, 0
2, 101760, Note_on_c, 0, 63, 92
2, 101760, Note_on_c, 0, 68, 92
2, 101920, Note_on_c, 0, 63, 0
2, 101920, Note_on_c, 0, 68, 0
2, 101952, Note_on_c, 0, 70, 92
2, 101952, Note_on_c, 0, 75, 92
2, 102208, Note_on_c, 0, 70, 0
2, 102208, Note_on_c, 0, 75, 0
2, 102240, Note_on_c, 0, 70, 92
2, 102334, Note_on_c, 0, 70, 0
2, 102336, Note_on_c, 0, 70, 92
2, 102336, Note_on_c, 0, 75, 92
2, 102496, Note_on_c, 0, 70, 0
2, 102496, Note_on_c, 0, 75, 0
2, 102528, Note_on_c, 0, 70, 92
2, 102528, Note_on_c, 0, 75, 92
2, 102880, Note_on_c, 0, 70, 0
2, 102880, Note_on_c, 0, 75, 0
2, 102912, Note_on_c, 0, 70, 92
2, 102912, Note_on_c, 0, 75, 92
2, 103072, Note_on_c, 0, 70, 0
2, 103072, Note_on_c, 0, 75, 0
2, 103104, Note_on_c, 0, 68, 92
2, 103104, Note_on_c, 0, 73, 92
2, 103264, Note_on_c, 0, 68, 0
2, 103264, Note_on_c, 0, 73, 0
2, 103296, Note_on_c, 0, 63, 92
2, 103296, Note_on_c, 0, 68, 92
2, 103456, Note_on_c, 0, 63, 0
2, 103456, Note_on_c, 0, 68, 0
2, 103488, Note_on_c, 0, 70, 92
2, 103488, Note_on_c, 0, 75, 92
2, 103744, Note_on_c, 0, 70, 0
2, 103744, Note_on_c, 0, 75, 0
2, 103776, Note_on_c, 0, 70, 92
2, 103870, Note_on_c, 0, 70, 0
2, 103872, Note_on_c, 0, 70, 92
2, 103872, Note_on_c, 0, 75, 92
2, 104032, Note_on_c, 0, 70, 0
2, 104032, Note_on_c, 0, 75, 0
2, 104064, Note_on_c, 0, 70, 92
2, 104064, Note_on_c, 0, 75, 92
2, 104416, Note_on_c, 0, 70, 0
2, 104416, Note_on_c, 0, 75, 0
2, 104448, Note_on_c, 0, 70, 92
2, 104448, Note_on_c, 0, 75, 92
2, 104608, Note_on_c, 0, 70, 0
2, 104608, Note_on_c, 0, 75, 0
2, 104640, Note_on_c, 0, 68, 92
2, 104640, Note_on_c, 0, 73, 92
2, 104800, Note_on_c, 0, 68, 0
2, 104800, Note_on_c, 0, 73, 0
2, 104832, Note_on_c, 0, 63, 92
2, 104832, Note_on_c, 0, 68, 92
2, 104992, Note_on_c, 0, 63, 0
2, 104992, Note_on_c, 0, 68, 0
2, 105024, Note_on_c, 0, 70, 92
2, 105024, Note_on_c, 0, 75, 92
2, 105280, Note_on_c, 0, 70, 0
2, 105280, Note_on_c, 0, 75, 0
2, 105312, Note_on_c, 0, 70, 92
2, 105406, Note_on_c, 0, 70, 0
2, 105408, Note_on_c, 0, 70, 92
2, 105408, Note_on_c, 0, 75, 92
2, 105568, Note_on_c, 0, 70, 0
2, 105568, Note_on_c, 0, 75, 0
2, 105600, Note_on_c, 0, 70, 92
2, 105600, Note_on_c, 0, 75, 92
2, 105952, Note_on_c, 0, 70, 0
2, 105952, Note_on_c, 0, 75, 0
2, 105984, Note_on_c, 0, 70, 92
2, 105984, Note_on_c, 0, 75, 92
2, 106144, Note_on_c, 0, 70, 0
2, 106144, Note_on_c, 0, 75, 0
2, 106176, Note_on_c, 0, 68, 92
2, 106176, Note_on_c, 0, 73, 92
2, 106336, Note_on_c, 0, 68, 0
2, 106336, Note_on_c, 0, 73, 0
2, 106368, Note_on_c, 0, 63, 92
2, 106368, Note_on_c, 0, 68, 92
2, 106528, Note_on_c, 0, 63, 0
2, 106528, Note_on_c, 0, 68, 0
2, 106560, Note_on_c, 0, 63, 92
2, 106560, Note_on_c, 0, 70, 92
2, 106560, Note_on_c, 0, 75, 92
2, 106896, Note_on_c, 0, 63, 0
2, 106896, Note_on_c, 0, 70, 0
2, 106896, Note_on_c, 0, 75, 0
2, 106944, Note_on_c, 0, 63, 92
2, 106944, Note_on_c, 0, 70, 92
2, 106944, Note_on_c, 0, 75, 92
2, 107104, Note_on_c, 0, 63, 0
2, 107104, Note_on_c, 0, 70, 0
2, 107104, Note_on_c, 0, 75, 0
2, 107136, Note_on_c, 0, 65, 92
2, 107136, Note_on_c, 0, 68, 92
2, 107136, Note_on_c, 0, 73, 92
2, 107296, Note_on_c, 0, 65, 0
2, 107296, Note_on_c, 0, 68, 0
2, 107296, Note_on_c, 0, 73, 0
2, 107328, Note_on_c, 0, 65, 92
2, 107328, Note_on_c, 0, 68, 92
2, 107328, Note_on_c, 0, 73, 92
2, 107488, Note_on_c, 0, 65, 0
2, 107488, Note_on_c, 0, 68, 0
2, 107488, Note_on_c, 0, 73, 0
2, 107520, Note_on_c, 0, 63, 92
2, 107520, Note_on_c, 0, 70, 92
2, 107520, Note_on_c, 0, 75, 92
2, 107856, Note_on_c, 0, 63, 0
2, 107856, Note_on_c, 0, 70, 0
2, 107856, Note_on_c, 0, 75, 0
2, 107904, Note_on_c, 0, 63, 92
2, 107904, Note_on_c, 0, 70, 92
2, 107904, Note_on_c, 0, 75, 92
2, 108064, Note_on_c, 0, 63, 0
2, 108064, Note_on_c, 0, 70, 0
2, 108064, Note_on_c, 0, 75, 0
2, 108096, Note_on_c, 0, 62, 92
2, 108096, Note_on_c, 0, 65, 92
2, 108096, Note_on_c, 0, 70, 92
2, 108256, Note_on_c, 0, 62, 0
2, 108256, Note_on_c, 0, 65, 0
2, 108256, Note_on_c, 0, 70, 0
2, 108288, Note_on_c, 0, 62, 92
2, 108288, Note_on_c, 0, 65, 92
2, 108288, Note_on_c, 0, 70, 92
2, 108448, Note_on_c, 0, 62, 0
2, 108448, Note_on_c, 0, 65, 0
2, 108448, Note_on_c, 0, 70, 0
2, 108480, Note_on_c, 0, 62, 92
2, 108480, Note_on_c, 0, 65, 92
2, 108480, Note_on_c, 0, 70, 92
2, 108640, Note_on_c, 0, 62, 0
2, 108640, Note_on_c, 0, 65, 0
2, 108640, Note_on_c, 0, 70, 0
2, 108672, Note_on_c, 0, 63, 92
2, 108672, Note_on_c, 0, 70, 92
2, 108672, Note_on_c, 0, 75, 92
2, 109008, Note_on_c, 0, 63, 0
2, 109008, Note_on_c, 0, 70, 0
2, 109008, Note_on_c, 0, 75, 0
2, 109056, Note_on_c, 0, 63, 92
2, 109056, Note_on_c, 0, 70, 92
2, 109056, Note_on_c, 0, 75, 92
2, 109216, Note_on_c, 0, 63, 0
2, 109216, Note_on_c, 0, 70, 0
2, 109216, Note_on_c, 0, 75, 0
2, 109248, Note_on_c, 0, 65, 92
2, 109248, Note_on_c, 0, 68, 92
2, 109248, Note_on_c, 0, 73, 92
2, 109408, Note_on_c, 0, 65, 0
2, 109408, Note_on_c, 0, 68, 0
2, 109408, Note_on_c, 0, 73, 0
2, 109440, Note_on_c, 0, 65, 92
2, 109440, Note_on_c, 0, 68, 92
2, 109440, Note_on_c, 0, 73, 92
2, 109600, Note_on_c, 0, 65, 0
2, 109600, Note_on_c, 0, 68, 0
2, 109600, Note_on_c, 0, 73, 0
2, 109632, Note_on_c, 0, 63, 92
2, 109632, Note_on_c, 0, 70, 92
2, 109632, Note_on_c, 0, 75, 92
2, 109968, Note_on_c, 0, 63, 0
2, 109968, Note_on_c, 0, 70, 0
2, 109968, Note_on_c, 0, 75, 0
2, 110016, Note_on_c, 0, 63, 92
2, 110016, Note_on_c, 0, 70, 92
2, 110016, Note_on_c, 0, 75, 92
2, 110176, Note_on_c, 0, 63, 0
2, 110176, Note_on_c, 0, 70, 0
2, 110176, Note_on_c, 0, 75, 0
2, 110208, Note_on_c, 0, 62, 92
2, 110208, Note_on_c, 0, 65, 92
2, 110208, Note_on_c, 0, 70, 92
2, 110368, Note_on_c, 0, 62, 0
2, 110368, Note_on_c, 0, 65, 0
2, 110368, Note_on_c, 0, 70, 0
2, 110400, Note_on_c, 0, 62, 92
2, 110400, Note_on_c, 0, 65, 92
2, 110400, Note_on_c, 0, 70, 92
2, 110560, Note_on_c, 0, 62, 0
2, 110560, Note_on_c, 0, 65, 0
2, 110560, Note_on_c, 0, 70, 0
2, 110592, Note_on_c, 0, 62, 92
2, 110592, Note_on_c, 0, 65, 92
2, 110592, Note_on_c, 0, 70, 92
2, 110752, Note_on_c, 0, 62, 0
2, 110752, Note_on_c, 0, 65, 0
2, 110752, Note_on_c, 0, 70, 0
2, 110784, Note_on_c, 0, 64, 92
2, 110784, Note_on_c, 0, 67, 92
2, 110784, Note_on_c, 0, 72, 92
2, 111120, Note_on_c, 0, 64, 0
2, 111120, Note_on_c, 0, 67, 0
2, 111120, Note_on_c, 0, 72, 0
2, 111168, Note_on_c, 0, 64, 92
2, 111168, Note_on_c, 0, 67, 92
2, 111168, Note_on_c, 0, 72, 92
2, 111328, Note_on_c, 0, 64, 0
2, 111328, Note_on_c, 0, 67, 0
2, 111328, Note_on_c, 0, 72, 0
2, 111360, Note_on_c, 0, 64, 92
2, 111360, Note_on_c, 0, 67, 92
2, 111360, Note_on_c, 0, 72, 92
2, 111712, Note_on_c, 0, 64, 0
2, 111712, Note_on_c, 0, 67, 0
2, 111712, Note_on_c, 0, 72, 0
2, 111744, Note_on_c, 0, 64, 92
2, 111744, Note_on_c, 0, 67, 92
2, 111744, Note_on_c, 0, 72, 92
2, 111904, Note_on_c, 0, 64, 0
2, 111904, Note_on_c, 0, 67, 0
2, 111904, Note_on_c, 0, 72, 0
2, 111936, Note_on_c, 0, 62, 92
2, 111936, Note_on_c, 0, 65, 92
2, 111936, Note_on_c, 0, 70, 92
2, 112096, Note_on_c, 0, 62, 0
2, 112096, Note_on_c, 0, 65, 0
2, 112096, Note_on_c, 0, 70, 0
2, 112128, Note_on_c, 0, 62, 92
2, 112128, Note_on_c, 0, 65, 92
2, 112128, Note_on_c, 0, 70, 92
2, 112288, Note_on_c, 0, 62, 0
2, 112288, Note_on_c, 0, 65, 0
2, 112288, Note_on_c, 0, 70, 0
2, 112320, Note_on_c, 0, 64, 92
2, 112320, Note_on_c, 0, 67, 92
2, 112320, Note_on_c, 0, 72, 92
2, 112656, Note_on_c, 0, 64, 0
2, 112656, Note_on_c, 0, 67, 0
2, 112656, Note_on_c, 0, 72, 0
2, 112704, Note_on_c, 0, 64, 92
2, 112704, Note_on_c, 0, 67, 92
2, 112704, Note_on_c, 0, 72, 92
2, 112864, Note_on_c, 0, 64, 0
2, 112864, Note_on_c, 0, 67, 0
2, 112864, Note_on_c, 0, 72, 0
2, 112896, Note_on_c, 0, 64, 92
2, 112896, Note_on_c, 0, 67, 92
2, 112896, Note_on_c, 0, 72, 92
2, 113248, Note_on_c, 0, 64, 0
2, 113248, Note_on_c, 0, 67, 0
2, 113248, Note_on_c, 0, 72, 0
2, 113280, Note_on_c, 0, 64, 92
2, 113280, Note_on_c, 0, 67, 92
2, 113280, Note_on_c, 0, 72, 92
2, 113440, Note_on_c, 0, 64, 0
2, 113440, Note_on_c, 0, 67, 0
2, 113440, Note_on_c, 0, 72, 0
2, 113472, Note_on_c, 0, 62, 92
2, 113472, Note_on_c, 0, 65, 92
2, 113472, Note_on_c, 0, 70, 92
2, 113632, Note_on_c, 0, 62, 0
2, 113632, Note_on_c, 0, 65, 0
2, 113632, Note_on_c, 0, 70, 0
2, 113664, Note_on_c, 0, 62, 92
2, 113664, Note_on_c, 0, 65, 92
2, 113664, Note_on_c, 0, 70, 92
2, 113824, Note_on_c, 0, 62, 0
2, 113824, Note_on_c, 0, 65, 0
2, 113824, Note_on_c, 0, 70, 0
2, 113856, Note_on_c, 0, 64, 92
2, 113856, Note_on_c, 0, 67, 92
2, 113856, Note_on_c, 0, 72, 92
2, 114192, Note_on_c, 0, 64, 0
2, 114192, Note_on_c, 0, 67, 0
2, 114192, Note_on_c, 0, 72, 0
2, 114240, Note_on_c, 0, 64, 92
2, 114240, Note_on_c, 0, 67, 92
2, 114240, Note_on_c, 0, 72, 92
2, 114400, Note_on_c, 0, 64, 0
2, 114400, Note_on_c, 0, 67, 0
2, 114400, Note_on_c, 0, 72, 0
2, 114432, Note_on_c, 0, 64, 92
2, 114432, Note_on_c, 0, 67, 92
2, 114432, Note_on_c, 0, 72, 92
2, 114784, Note_on_c, 0, 64, 0
2, 114784, Note_on_c, 0, 67, 0
2, 114784, Note_on_c, 0, 72, 0
2, 114816, Note_on_c, 0, 64, 92
2, 114816, Note_on_c, 0, 67, 92
2, 114816, Note_on_c, 0, 72, 92
2, 114976, Note_on_c, 0, 64, 0
2, 114976, Note_on_c, 0, 67, 0
2, 114976, Note_on_c, 0, 72, 0
2, 115008, Note_on_c, 0, 62, 92
2, 115008, Note_on_c, 0, 65, 92
2, 115008, Note_on_c, 0, 70, 92
2, 115168, Note_on_c, 0, 62, 0
2, 115168, Note_on_c, 0, 65, 0
2, 115168, Note_on_c, 0, 70, 0
2, 115200, Note_on_c, 0, 62, 92
2, 115200, Note_on_c, 0, 65, 92
2, 115200, Note_on_c, 0, 70, 92
2, 115360, Note_on_c, 0, 62, 0
2, 115360, Note_on_c, 0, 65, 0
2, 115360, Note_on_c, 0, 70, 0
2, 115392, Note_on_c, 0, 64, 92
2, 115392, Note_on_c, 0, 67, 92
2, 115392, Note_on_c, 0, 72, 92
2, 115728, Note_on_c, 0, 64, 0
2, 115728, Note_on_c, 0, 67, 0
2, 115728, Note_on_c, 0, 72, 0
2, 115776, Note_on_c, 0, 64, 92
2, 115776, Note_on_c, 0, 67, 92
2, 115776, Note_on_c, 0, 72, 92
2, 115936, Note_on_c, 0, 64, 0
2, 115936, Note_on_c, 0, 67, 0
2, 115936, Note_on_c, 0, 72, 0
2, 115968, Note_on_c, 0, 64, 92
2, 115968, Note_on_c, 0, 67, 92
2, 115968, Note_on_c, 0, 72, 92
2, 116320, Note_on_c, 0, 64, 0
2, 116320, Note_on_c, 0, 67, 0
2, 116320, Note_on_c, 0, 72, 0
2, 116352, Note_on_c, 0, 64, 92
2, 116352, Note_on_c, 0, 67, 92
2, 116352, Note_on_c, 0, 72, 92
2, 116512, Note_on_c, 0, 64, 0
2, 116512, Note_on_c, 0, 67, 0
2, 116512, Note_on_c, 0, 72, 0
2, 116544, Note_on_c, 0, 62, 92
2, 116544, Note_on_c, 0, 65, 92
2, 116544, Note_on_c, 0, 70, 92
2, 116704, Note_on_c, 0, 62, 0
2, 116704, Note_on_c, 0, 65, 0
2, 116704, Note_on_c, 0, 70, 0
2, 116736, Note_on_c, 0, 62, 92
2, 116736, Note_on_c, 0, 65, 92
2, 116736, Note_on_c, 0, 70, 92
2, 116896, Note_on_c, 0, 62, 0
2, 116896, Note_on_c, 0, 65, 0
2, 116896, Note_on_c, 0, 70, 0
2, 116928, Note_on_c, 0, 64, 92
2, 116928, Note_on_c, 0, 67, 92
2, 116928, Note_on_c, 0, 72, 92
2, 117264, Note_on_c, 0, 64, 0
2, 117264, Note_on_c, 0, 67, 0
2, 117264, Note_on_c, 0, 72, 0
2, 117312, Note_on_c, 0, 64, 92
2, 117312, Note_on_c, 0, 67, 92
2, 117312, Note_on_c, 0, 72, 92
2, 117472, Note_on_c, 0, 64, 0
2, 117472, Note_on_c, 0, 67, 0
2, 117472, Note_on_c, 0, 72, 0
2, 117504, Note_on_c, 0, 62, 92
2, 117504, Note_on_c, 0, 65, 92
2, 117504, Note_on_c, 0, 70, 92
2, 117840, Note_on_c, 0, 62, 0
2, 117840, Note_on_c, 0, 65, 0
2, 117840, Note_on_c, 0, 70, 0
2, 117888, Note_on_c, 0, 64, 92
2, 117888, Note_on_c, 0, 67, 92
2, 117888, Note_on_c, 0, 72, 92
2, 118224, Note_on_c, 0, 64, 0
2, 118224, Note_on_c, 0, 67, 0
2, 118224, Note_on_c, 0, 72, 0
2, 118272, Note_on_c, 0, 64, 92
2, 118272, Note_on_c, 0, 67, 92
2, 118272, Note_on_c, 0, 72, 92
2, 118432, Note_on_c, 0, 64, 0
2, 118432, Note_on_c, 0, 67, 0
2, 118432, Note_on_c, 0, 72, 0
2, 118464, Note_on_c, 0, 62, 92
2, 118464, Note_on_c, 0, 65, 92
2, 118464, Note_on_c, 0, 70, 92
2, 118800, Note_on_c, 0, 62, 0
2, 118800, Note_on_c, 0, 65, 0
2, 118800, Note_on_c, 0, 70, 0
2, 118848, Note_on_c, 0, 64, 92
2, 118848, Note_on_c, 0, 67, 92
2, 118848, Note_on_c, 0, 72, 92
2, 119184, Note_on_c, 0, 64, 0
2, 119184, Note_on_c, 0, 67, 0
2, 119184, Note_on_c, 0, 72, 0
2, 119232, Note_on_c, 0, 64, 92
2, 119232, Note_on_c, 0, 67, 92
2, 119232, Note_on_c, 0, 72, 92
2, 119392, Note_on_c, 0, 64, 0
2, 119392, Note_on_c, 0, 67, 0
2, 119392, Note_on_c, 0, 72, 0
2, 119424, Note_on_c, 0, 62, 92
2, 119424, Note_on_c, 0, 65, 92
2, 119424, Note_on_c, 0, 70, 92
2, 119760, Note_on_c, 0, 62, 0
2, 119760, Note_on_c, 0, 65, 0
2, 119760, Note_on_c, 0, 70, 0
2, 119808, Note_on_c, 0, 64, 92
2, 119808, Note_on_c, 0, 67, 92
2, 119808, Note_on_c, 0, 72, 92
2, 120144, Note_on_c, 0, 64, 0
2, 120144, Note_on_c, 0, 67, 0
2, 120144, Note_on_c, 0, 72, 0
2, 120192, Note_on_c, 0, 64, 92
2, 120192, Note_on_c, 0, 67, 92
2, 120192, Note_on_c, 0, 72, 92
2, 120352, Note_on_c, 0, 64, 0
2, 120352, Note_on_c, 0, 67, 0
2, 120352, Note_on_c, 0, 72, 0
2, 120384, Note_on_c, 0, 62, 92
2, 120384, Note_on_c, 0, 65, 92
2, 120384, Note_on_c, 0, 70, 92
2, 120544, Note_on_c, 0, 62, 0
2, 120544, Note_on_c, 0, 65, 0
2, 120544, Note_on_c, 0, 70, 0
2, 120576, Note_on_c, 0, 64, 92
2, 120576, Note_on_c, 0, 67, 92
2, 120576, Note_on_c, 0, 72, 92
2, 120736, Note_on_c, 0, 64, 0
2, 120736, Note_on_c, 0, 67, 0
2, 120736, Note_on_c, 0, 72, 0
2, 120768, Note_on_c, 0, 66, 92
2, 120768, Note_on_c, 0, 69, 92
2, 120768, Note_on_c, 0, 74, 92
2, 121104, Note_on_c, 0, 66, 0
2, 121104, Note_on_c, 0, 69, 0
2, 121104, Note_on_c, 0, 74, 0
2, 121152, Note_on_c, 0, 66, 92
2, 121152, Note_on_c, 0, 69, 92
2, 121152, Note_on_c, 0, 74, 92
2, 121312, Note_on_c, 0, 66, 0
2, 121312, Note_on_c, 0, 69, 0
2, 121312, Note_on_c, 0, 74, 0
2, 121344, Note_on_c, 0, 66, 92
2, 121344, Note_on_c, 0, 69, 92
2, 121344, Note_on_c, 0, 74, 92
2, 121696, Note_on_c, 0, 66, 0
2, 121696, Note_on_c, 0, 69, 0
2, 121696, Note_on_c, 0, 74, 0
2, 121728, Note_on_c, 0, 66, 92
2, 121728, Note_on_c, 0, 69, 92
2, 121728, Note_on_c, 0, 74, 92
2, 121888, Note_on_c, 0, 66, 0
2, 121888, Note_on_c, 0, 69, 0
2, 121888, Note_on_c, 0, 74, 0
2, 121920, Note_on_c, 0, 64, 92
2, 121920, Note_on_c, 0, 67, 92
2, 121920, Note_on_c, 0, 72, 92
2, 122080, Note_on_c, 0, 64, 0
2, 122080, Note_on_c, 0, 67, 0
2, 122080, Note_on_c, 0, 72, 0
2, 122112, Note_on_c, 0, 64, 92
2, 122112, Note_on_c, 0, 67, 92
2, 122112, Note_on_c, 0, 72, 92
2, 122272, Note_on_c, 0, 64, 0
2, 122272, Note_on_c, 0, 67, 0
2, 122272, Note_on_c, 0, 72, 0
2, 122304, Note_on_c, 0, 66, 92
2, 122304, Note_on_c, 0, 69, 92
2, 122304, Note_on_c, 0, 74, 92
2, 122640, Note_on_c, 0, 66, 0
2, 122640, Note_on_c, 0, 69, 0
2, 122640, Note_on_c, 0, 74, 0
2, 122688, Note_on_c, 0, 66, 92
2, 122688, Note_on_c, 0, 69, 92
2, 122688, Note_on_c, 0, 74, 92
2, 122848, Note_on_c, 0, 66, 0
2, 122848, Note_on_c, 0, 69, 0
2, 122848, Note_on_c, 0, 74, 0
2, 122880, Note_on_c, 0, 66, 92
2, 122880, Note_on_c, 0, 69, 92
2, 122880, Note_on_c, 0, 74, 92
2, 123232, Note_on_c, 0, 66, 0
2, 123232, Note_on_c, 0, 69, 0
2, 123232, Note_on_c, 0, 74, 0
2, 123264, Note_on_c, 0, 66, 92
2, 123264, Note_on_c, 0, 69, 92
2, 123264, Note_on_c, 0, 74, 92
2, 123424, Note_on_c, 0, 66, 0
2, 123424, Note_on_c, 0, 69, 0
2, 123424, Note_on_c, 0, 74, 0
2, 123456, Note_on_c, 0, 64, 92
2, 123456, Note_on_c, 0, 67, 92
2, 123456, Note_on_c, 0, 72, 92
2, 123616, Note_on_c, 0, 64, 0
2, 123616, Note_on_c, 0, 67, 0
2, 123616, Note_on_c, 0, 72, 0
2, 123648, Note_on_c, 0, 64, 92
2, 123648, Note_on_c, 0, 67, 92
2, 123648, Note_on_c, 0, 72, 92
2, 123808, Note_on_c, 0, 64, 0
2, 123808, Note_on_c, 0, 67, 0
2, 123808, Note_on_c, 0, 72, 0
2, 123840, Note_on_c, 0, 66, 92
2, 123840, Note_on_c, 0, 69, 92
2, 123840, Note_on_c, 0, 74, 92
2, 124176, Note_on_c, 0, 66, 0
2, 124176, Note_on_c, 0, 69, 0
2, 124176, Note_on_c, 0, 74, 0
2, 124224, Note_on_c, 0, 66, 92
2, 124224, Note_on_c, 0, 69, 92
2, 124224, Note_on_c, 0, 74, 92
2, 124384, Note_on_c, 0, 66, 0
2, 124384, Note_on_c, 0, 69, 0
2, 124384, Note_on_c, 0, 74, 0
2, 124416, Note_on_c, 0, 66, 92
2, 124416, Note_on_c, 0, 69, 92
2, 124416, Note_on_c, 0, 74, 92
2, 124768, Note_on_c, 0, 66, 0
2, 124768, Note_on_c, 0, 69, 0
2, 124768, Note_on_c, 0, 74, 0
2, 124800, Note_on_c, 0, 66, 92
2, 124800, Note_on_c, 0, 69, 92
2, 124800, Note_on_c, 0, 74, 92
2, 124960, Note_on_c, 0, 66, 0
2, 124960, Note_on_c, 0, 69, 0
2, 124960, Note_on_c, 0, 74, 0
2, 124992, Note_on_c, 0, 64, 92
2, 124992, Note_on_c, 0, 67, 92
2, 124992, Note_on_c, 0, 72, 92
2, 125152, Note_on_c, 0, 64, 0
2, 125152, Note_on_c, 0, 67, 0
2, 125152, Note_on_c, 0, 72, 0
2, 125184, Note_on_c, 0, 64, 92
2, 125184, Note_on_c, 0, 67, 92
2, 125184, Note_on_c, 0, 72, 92
2, 125344, Note_on_c, 0, 64, 0
2, 125344, Note_on_c, 0, 67, 0
2, 125344, Note_on_c, 0, 72, 0
2, 125376, Note_on_c, 0, 66, 92
2, 125376, Note_on_c, 0, 69, 92
2, 125376, Note_on_c, 0, 74, 92
2, 125712, Note_on_c, 0, 66, 0
2, 125712, Note_on_c, 0, 69, 0
2, 125712, Note_on_c, 0, 74, 0
2, 125760, Note_on_c, 0, 66, 92
2, 125760, Note_on_c, 0, 69, 92
2, 125760, Note_on_c, 0, 74, 92
2, 125920, Note_on_c, 0, 66, 0
2, 125920, Note_on_c, 0, 69, 0
2, 125920, Note_on_c, 0, 74, 0
2, 125952, Note_on_c, 0, 66, 92
2, 125952, Note_on_c, 0, 69, 92
2, 125952, Note_on_c, 0, 74, 92
2, 126304, Note_on_c, 0, 66, 0
2, 126304, Note_on_c, 0, 69, 0
2, 126304, Note_on_c, 0, 74, 0
2, 126336, Note_on_c, 0, 66, 92
2, 126336, Note_on_c, 0, 69, 92
2, 126336, Note_on_c, 0, 74, 92
2, 126496, Note_on_c, 0, 66, 0
2, 126496, Note_on_c, 0, 69, 0
2, 126496, Note_on_c, 0, 74, 0
2, 126528, Note_on_c, 0, 64, 92
2, 126528, Note_on_c, 0, 67, 92
2, 126528, Note_on_c, 0, 72, 92
2, 126688, Note_on_c, 0, 64, 0
2, 126688, Note_on_c, 0, 67, 0
2, 126688, Note_on_c, 0, 72, 0
2, 126720, Note_on_c, 0, 64, 92
2, 126720, Note_on_c, 0, 67, 92
2, 126720, Note_on_c, 0, 72, 92
2, 126880, Note_on_c, 0, 64, 0
2, 126880, Note_on_c, 0, 67, 0
2, 126880, Note_on_c, 0, 72, 0
2, 126912, Note_on_c, 0, 62, 92
2, 126912, Note_on_c, 0, 66, 92
2, 126912, Note_on_c, 0, 69, 92
2, 127248, Note_on_c, 0, 62, 0
2, 127248, Note_on_c, 0, 66, 0
2, 127248, Note_on_c, 0, 69, 0
2, 127296, Note_on_c, 0, 62, 92
2, 127296, Note_on_c, 0, 66, 92
2, 127296, Note_on_c, 0, 69, 92
2, 127456, Note_on_c, 0, 62, 0
2, 127456, Note_on_c, 0, 66, 0
2, 127456, Note_on_c, 0, 69, 0
2, 127488, Note_on_c, 0, 62, 92
2, 127488, Note_on_c, 0, 67, 92
2, 127488, Note_on_c, 0, 70, 92
2, 127824, Note_on_c, 0, 62, 0
2, 127824, Note_on_c, 0, 67, 0
2, 127824, Note_on_c, 0, 70, 0
2, 127872, Note_on_c, 0, 62, 92
2, 127872, Note_on_c, 0, 67, 92
2, 127872, Note_on_c, 0, 70, 92
2, 128032, Note_on_c, 0, 62, 0
2, 128032, Note_on_c, 0, 67, 0
2, 128032, Note_on_c, 0, 70, 0
2, 128064, Note_on_c, 0, 62, 92
2, 128064, Note_on_c, 0, 66, 92
2, 128064, Note_on_c, 0, 69, 92
2, 128400, Note_on_c, 0, 62, 0
2, 128400, Note_on_c, 0, 66, 0
2, 128400, Note_on_c, 0, 69, 0
2, 128448, Note_on_c, 0, 62, 92
2, 128448, Note_on_c, 0, 66, 92
2, 128448, Note_on_c, 0, 69, 92
2, 128608, Note_on_c, 0, 62, 0
2, 128608, Note_on_c, 0, 66, 0
2, 128608, Note_on_c, 0, 69, 0
2, 128640, Note_on_c, 0, 62, 92
2, 128640, Note_on_c, 0, 67, 92
2, 128640, Note_on_c, 0, 70, 92
2, 128976, Note_on_c, 0, 62, 0
2, 128976, Note_on_c, 0, 67, 0
2, 128976, Note_on_c, 0, 70, 0
2, 129024, Note_on_c, 0, 62, 92
2, 129024, Note_on_c, 0, 67, 92
2, 129024, Note_on_c, 0, 70, 92
2, 129184, Note_on_c, 0, 62, 0
2, 129184, Note_on_c, 0, 67, 0
2, 129184, Note_on_c, 0, 70, 0
2, 129216, Note_on_c, 0, 60, 92
2, 129216, Note_on_c, 0, 64, 92
2, 129216, Note_on_c, 0, 67, 92
2, 129552, Note_on_c, 0, 60, 0
2, 129552, Note_on_c, 0, 64, 0
2, 129552, Note_on_c, 0, 67, 0
2, 129600, Note_on_c, 0, 60, 92
2, 129600, Note_on_c, 0, 64, 92
2, 129600, Note_on_c, 0, 67, 92
2, 129760, Note_on_c, 0, 60, 0
2, 129760, Note_on_c, 0, 64, 0
2, 129760, Note_on_c, 0, 67, 0
2, 129792, Note_on_c, 0, 60, 92
2, 129792, Note_on_c, 0, 65, 92
2, 129792, Note_on_c, 0, 68, 92
2, 130128, Note_on_c, 0, 60, 0
2, 130128, Note_on_c, 0, 65, 0
2, 130128, Note_on_c, 0, 68, 0
2, 130176, Note_on_c, 0, 60, 92
2, 130176, Note_on_c, 0, 65, 92
2, 130176, Note_on_c, 0, 68, 92
2, 130336, Note_on_c, 0, 60, 0
2, 130336, Note_on_c, 0, 65, 0
2, 130336, Note_on_c, 0, 68, 0
2, 130368, Note_on_c, 0, 60, 92
2, 130368, Note_on_c, 0, 64, 92
2, 130368, Note_on_c, 0, 67, 92
2, 130704, Note_on_c, 0, 60, 0
2, 130704, Note_on_c, 0, 64, 0
2, 130704, Note_on_c, 0, 67, 0
2, 130752, Note_on_c, 0, 60, 92
2, 130752, Note_on_c, 0, 64, 92
2, 130752, Note_on_c, 0, 67, 92
2, 130912, Note_on_c, 0, 60, 0
2, 130912, Note_on_c, 0, 64, 0
2, 130912, Note_on_c, 0, 67, 0
2, 130944, Note_on_c, 0, 60, 92
2, 130944, Note_on_c, 0, 65, 92
2, 130944, Note_on_c, 0, 68, 92
2, 131280, Note_on_c, 0, 60, 0
2, 131280, Note_on_c, 0, 65, 0
2, 131280, Note_on_c, 0, 68, 0
2, 131328, Note_on_c, 0, 60, 92
2, 131328, Note_on_c, 0, 65, 92
2, 131328, Note_on_c, 0, 68, 92
2, 131488, Note_on_c, 0, 60, 0
2, 131488, Note_on_c, 0, 65, 0
2, 131488, Note_on_c, 0, 68, 0
2, 131520, Note_on_c, 0, 58, 92
2, 131520, Note_on_c, 0, 62, 92
2, 131520, Note_on_c, 0, 65, 92
2, 131856, Note_on_c, 0, 58, 0
2, 131856, Note_on_c, 0, 62, 0
2, 131856, Note_on_c, 0, 65, 0
2, 131904, Note_on_c, 0, 58, 92
2, 131904, Note_on_c, 0, 62, 92
2, 131904, Note_on_c, 0, 65, 92
2, 132064, Note_on_c, 0, 58, 0
2, 132064, Note_on_c, 0, 62, 0
2, 132064, Note_on_c, 0, 65, 0
2, 132096, Note_on_c, 0, 58, 92
2, 132096, Note_on_c, 0, 63, 92
2, 132096, Note_on_c, 0, 67, 92
2, 132432, Note_on_c, 0, 58, 0
2, 132432, Note_on_c, 0, 63, 0
2, 132432, Note_on_c, 0, 67, 0
2, 132480, Note_on_c, 0, 58, 92
2, 132480, Note_on_c, 0, 63, 92
2, 132480, Note_on_c, 0, 67, 92
2, 132640, Note_on_c, 0, 58, 0
2, 132640, Note_on_c, 0, 63, 0
2, 132640, Note_on_c, 0, 67, 0
2, 132672, Note_on_c, 0, 58, 92
2, 132672, Note_on_c, 0, 62, 92
2, 132672, Note_on_c, 0, 65, 92
2, 133008, Note_on_c, 0, 58, 0
2, 133008, Note_on_c, 0, 62, 0
2, 133008, Note_on_c, 0, 65, 0
2, 133056, Note_on_c, 0, 58, 92
2, 133056, Note_on_c, 0, 62, 92
2, 133056, Note_on_c, 0, 65, 92
2, 133216, Note_on_c, 0, 58, 0
2, 133216, Note_on_c, 0, 62, 0
2, 133216, Note_on_c, 0, 65, 0
2, 133248, Note_on_c, 0, 58, 92
2, 133248, Note_on_c, 0, 63, 92
2, 133248, Note_on_c, 0, 67, 92
2, 133584, Note_on_c, 0, 58, 0
2, 133584, Note_on_c, 0, 63, 0
2, 133584, Note_on_c, 0, 67, 0
2, 133632, Note_on_c, 0, 58, 92
2, 133632, Note_on_c, 0, 63, 92
2, 133632, Note_on_c, 0, 67, 92
2, 133792, Note_on_c, 0, 58, 0
2, 133792, Note_on_c, 0, 63, 0
2, 133792, Note_on_c, 0, 67, 0
2, 133824, Note_on_c, 0, 60, 92
2, 133824, Note_on_c, 0, 64, 92
2, 133824, Note_on_c, 0, 67, 92
2, 133824, Note_on_c, 0, 70, 92
2, 134160, Note_on_c, 0, 60, 0
2, 134160, Note_on_c, 0, 64, 0
2, 134160, Note_on_c, 0, 67, 0
2, 134160, Note_on_c, 0, 70, 0
2, 134208, Note_on_c, 0, 60, 92
2, 134208, Note_on_c, 0, 64, 92
2, 134208, Note_on_c, 0, 67, 92
2, 134208, Note_on_c, 0, 70, 92
2, 134368, Note_on_c, 0, 60, 0
2, 134368, Note_on_c, 0, 64, 0
2, 134368, Note_on_c, 0, 67, 0
2, 134368, Note_on_c, 0, 70, 0
2, 134400, Note_on_c, 0, 62, 92
2, 134400, Note_on_c, 0, 66, 92
2, 134400, Note_on_c, 0, 69, 92
2, 134400, Note_on_c, 0, 72, 92
2, 134736, Note_on_c, 0, 62, 0
2, 134736, Note_on_c, 0, 66, 0
2, 134736, Note_on_c, 0, 69, 0
2, 134736, Note_on_c, 0, 72, 0
2, 134784, Note_on_c, 0, 62, 92
2, 134784, Note_on_c, 0, 66, 92
2, 134784, Note_on_c, 0, 69, 92
2, 134784, Note_on_c, 0, 72, 92
2, 134944, Note_on_c, 0, 62, 0
2, 134944, Note_on_c, 0, 66, 0
2, 134944, Note_on_c, 0, 69, 0
2, 134944, Note_on_c, 0, 72, 0
2, 134976, Note_on_c, 0, 62, 92
2, 134976, Note_on_c, 0, 66, 92
2, 134976, Note_on_c, 0, 69, 92
2, 134976, Note_on_c, 0, 72, 92
2, 135312, Note_on_c, 0, 62, 0
2, 135312, Note_on_c, 0, 66, 0
2, 135312, Note_on_c, 0, 69, 0
2, 135312, Note_on_c, 0, 72, 0
2, 135360, Note_on_c, 0, 62, 92
2, 135360, Note_on_c, 0, 66, 92
2, 135360, Note_on_c, 0, 69, 92
2, 135360, Note_on_c, 0, 72, 92
2, 135520, Note_on_c, 0, 62, 0
2, 135520, Note_on_c, 0, 66, 0
2, 135520, Note_on_c, 0, 69, 0
2, 135520, Note_on_c, 0, 72, 0
2, 135552, Note_on_c, 0, 62, 92
2, 135552, Note_on_c, 0, 66, 92
2, 135552, Note_on_c, 0, 69, 92
2, 135552, Note_on_c, 0, 72, 92
2, 135888, Note_on_c, 0, 62, 0
2, 135888, Note_on_c, 0, 66, 0
2, 135888, Note_on_c, 0, 69, 0
2, 135888, Note_on_c, 0, 72, 0
2, 135936, Note_on_c, 0, 62, 92
2, 135936, Note_on_c, 0, 66, 92
2, 135936, Note_on_c, 0, 69, 92
2, 135936, Note_on_c, 0, 72, 92
2, 136096, Note_on_c, 0, 62, 0
2, 136096, Note_on_c, 0, 66, 0
2, 136096, Note_on_c, 0, 69, 0
2, 136096, Note_on_c, 0, 72, 0
2, 136128, Note_on_c, 0, 58, 92
2, 136128, Note_on_c, 0, 62, 92
2, 136128, Note_on_c, 0, 67, 92
2, 136464, Note_on_c, 0, 58, 0
2, 136464, Note_on_c, 0, 62, 0
2, 136464, Note_on_c, 0, 67, 0
2, 136512, Note_on_c, 0, 58, 92
2, 136512, Note_on_c, 0, 62, 92
2, 136512, Note_on_c, 0, 67, 92
2, 136672, Note_on_c, 0, 58, 0
2, 136672, Note_on_c, 0, 62, 0
2, 136672, Note_on_c, 0, 67, 0
2, 136704, Note_on_c, 0, 57, 92
2, 136704, Note_on_c, 0, 60, 92
2, 136704, Note_on_c, 0, 65, 92
2, 136864, Note_on_c, 0, 57, 0
2, 136864, Note_on_c, 0, 60, 0
2, 136864, Note_on_c, 0, 65, 0
2, 136896, Note_on_c, 0, 57, 92
2, 136896, Note_on_c, 0, 60, 92
2, 136896, Note_on_c, 0, 65, 92
2, 137056, Note_on_c, 0, 57, 0
2, 137056, Note_on_c, 0, 60, 0
2, 137056, Note_on_c, 0, 65, 0
2, 137088, Note_on_c, 0, 58, 92
2, 137088, Note_on_c, 0, 62, 92
2, 137088, Note_on_c, 0, 67, 92
2, 137424, Note_on_c, 0, 58, 0
2, 137424, Note_on_c, 0, 62, 0
2, 137424, Note_on_c, 0, 67, 0
2, 137472, Note_on_c, 0, 57, 92
2, 137472, Note_on_c, 0, 60, 92
2, 137472, Note_on_c, 0, 63, 92
2, 137472, Note_on_c, 0, 67, 92
2, 137632, Note_on_c, 0, 57, 0
2, 137632, Note_on_c, 0, 60, 0
2, 137632, Note_on_c, 0, 63, 0
2, 137632, Note_on_c, 0, 67, 0
2, 137664, Note_on_c, 0, 57, 92
2, 137664, Note_on_c, 0, 62, 92
2, 137664, Note_on_c, 0, 66, 92
2, 137664, Note_on_c, 0, 69, 92
2, 138000, Note_on_c, 0, 57, 0
2, 138000, Note_on_c, 0, 62, 0
2, 138000, Note_on_c, 0, 66, 0
2, 138000, Note_on_c, 0, 69, 0
2, 138048, Note_on_c, 0, 57, 92
2, 138048, Note_on_c, 0, 62, 92
2, 138048, Note_on_c, 0, 66, 92
2, 138048, Note_on_c, 0, 69, 92
2, 138208, Note_on_c, 0, 57, 0
2, 138208, Note_on_c, 0, 62, 0
2, 138208, Note_on_c, 0, 66, 0
2, 138208, Note_on_c, 0, 69, 0
2, 138240, Note_on_c, 0, 58, 92
2, 138240, Note_on_c, 0, 62, 92
2, 138240, Note_on_c, 0, 67, 92
2, 138576, Note_on_c, 0, 58, 0
2, 138576, Note_on_c, 0, 62, 0
2, 138576, Note_on_c, 0, 67, 0
2, 138624, Note_on_c, 0, 58, 92
2, 138624, Note_on_c, 0, 62, 92
2, 138624, Note_on_c, 0, 67, 92
2, 138784, Note_on_c, 0, 58, 0
2, 138784, Note_on_c, 0, 62, 0
2, 138784, Note_on_c, 0, 67, 0
2, 138816, Note_on_c, 0, 57, 92
2, 138816, Note_on_c, 0, 60, 92
2, 138816, Note_on_c, 0, 65, 92
2, 138976, Note_on_c, 0, 57, 0
2, 138976, Note_on_c, 0, 60, 0
2, 138976, Note_on_c, 0, 65, 0
2, 139008, Note_on_c, 0, 57, 92
2, 139008, Note_on_c, 0, 60, 92
2, 139008, Note_on_c, 0, 65, 92
2, 139168, Note_on_c, 0, 57, 0
2, 139168, Note_on_c, 0, 60, 0
2, 139168, Note_on_c, 0, 65, 0
2, 139200, Note_on_c, 0, 57, 92
2, 139200, Note_on_c, 0, 60, 92
2, 139200, Note_on_c, 0, 65, 92
2, 139536, Note_on_c, 0, 57, 0
2, 139536, Note_on_c, 0, 60, 0
2, 139536, Note_on_c, 0, 65, 0
2, 139584, Note_on_c, 0, 60, 92
2, 139584, Note_on_c, 0, 63, 92
2, 139584, Note_on_c, 0, 67, 92
2, 139744, Note_on_c, 0, 60, 0
2, 139744, Note_on_c, 0, 63, 0
2, 139744, Note_on_c, 0, 67, 0
2, 139776, Note_on_c, 0, 57, 92
2, 139776, Note_on_c, 0, 62, 92
2, 139776, Note_on_c, 0, 66, 92
2, 139776, Note_on_c, 0, 69, 92
2, 140112, Note_on_c, 0, 57, 0
2, 140112, Note_on_c, 0, 62, 0
2, 140112, Note_on_c, 0, 66, 0
2, 140112, Note_on_c, 0, 69, 0
2, 140160, Note_on_c, 0, 57, 92
2, 140160, Note_on_c, 0, 62, 92
2, 140160, Note_on_c, 0, 66, 92
2, 140160, Note_on_c, 0, 69, 92
2, 140320, Note_on_c, 0, 57, 0
2, 140320, Note_on_c, 0, 62, 0
2, 140320, Note_on_c, 0, 66, 0
2, 140320, Note_on_c, 0, 69, 0
2, 140352, Note_on_c, 0, 58, 92
2, 140352, Note_on_c, 0, 62, 92
2, 140352, Note_on_c, 0, 67, 92
2, 140688, Note_on_c, 0, 58, 0
2, 140688, Note_on_c, 0, 62, 0
2, 140688, Note_on_c, 0, 67, 0
2, 140736, Note_on_c, 0, 58, 92
2, 140736, Note_on_c, 0, 62, 92
2, 140736, Note_on_c, 0, 67, 92
2, 140896, Note_on_c, 0, 58, 0
2, 140896, Note_on_c, 0, 62, 0
2, 140896, Note_on_c, 0, 67, 0
2, 140928, Note_on_c, 0, 58, 92
2, 140928, Note_on_c, 0, 62, 92
2, 140928, Note_on_c, 0, 67, 92
2, 141280, Note_on_c, 0, 58, 0
2, 141280, Note_on_c, 0, 62, 0
2, 141280, Note_on_c, 0, 67, 0
2, 141312, Note_on_c, 0, 58, 92
2, 141312, Note_on_c, 0, 62, 92
2, 141312, Note_on_c, 0, 67, 92
2, 141472, Note_on_c, 0, 58, 0
2, 141472, Note_on_c, 0, 62, 0
2, 141472, Note_on_c, 0, 67, 0
2, 141504, Note_on_c, 0, 57, 92
2, 141504, Note_on_c, 0, 60, 92
2, 141504, Note_on_c, 0, 65, 92
2, 141840, Note_on_c, 0, 57, 0
2, 141840, Note_on_c, 0, 60, 0
2, 141840, Note_on_c, 0, 65, 0
2, 141888, Note_on_c, 0, 55, 92
2, 141888, Note_on_c, 0, 58, 92
2, 141888, Note_on_c, 0, 63, 92
2, 142224, Note_on_c, 0, 55, 0
2, 142224, Note_on_c, 0, 58, 0
2, 142224, Note_on_c, 0, 63, 0
2, 142272, Note_on_c, 0, 55, 92
2, 142272, Note_on_c, 0, 58, 92
2, 142272, Note_on_c, 0, 63, 92
2, 142432, Note_on_c, 0, 55, 0
2, 142432, Note_on_c, 0, 58, 0
2, 142432, Note_on_c, 0, 63, 0
2, 142464, Note_on_c, 0, 55, 92
2, 142464, Note_on_c, 0, 58, 92
2, 142464, Note_on_c, 0, 63, 92
2, 142816, Note_on_c, 0, 55, 0
2, 142816, Note_on_c, 0, 58, 0
2, 142816, Note_on_c, 0, 63, 0
2, 142848, Note_on_c, 0, 53, 92
2, 142848, Note_on_c, 0, 58, 92
2, 142848, Note_on_c, 0, 61, 92
2, 143008, Note_on_c, 0, 53, 0
2, 143008, Note_on_c, 0, 58, 0
2, 143008, Note_on_c, 0, 61, 0
2, 143040, Note_on_c, 0, 53, 92
2, 143040, Note_on_c, 0, 58, 92
2, 143040, Note_on_c, 0, 61, 92
2, 143376, Note_on_c, 0, 53, 0
2, 143376, Note_on_c, 0, 58, 0
2, 143376, Note_on_c, 0, 61, 0
2, 143424, Note_on_c, 0, 58, 92
2, 143424, Note_on_c, 0, 65, 92
2, 143760, Note_on_c, 0, 58, 0
2, 143760, Note_on_c, 0, 65, 0
2, 143808, Note_on_c, 0, 58, 92
2, 143808, Note_on_c, 0, 65, 92
2, 143968, Note_on_c, 0, 58, 0
2, 143968, Note_on_c, 0, 65, 0
2, 144000, Note_on_c, 0, 58, 92
2, 144000, Note_on_c, 0, 65, 92
2, 144352, Note_on_c, 0, 58, 0
2, 144352, Note_on_c, 0, 65, 0
2, 144384, Note_on_c, 0, 58, 92
2, 144384, Note_on_c, 0, 65, 92
2, 144544, Note_on_c, 0, 58, 0
2, 144544, Note_on_c, 0, 65, 0
2, 144576, Note_on_c, 0, 56, 92
2, 144576, Note_on_c, 0, 63, 92
2, 144912, Note_on_c, 0, 56, 0
2, 144912, Note_on_c, 0, 63, 0
2, 144960, Note_on_c, 0, 53, 127
2, 144960, Note_on_c, 0, 58, 127
2, 144960, Note_on_c, 0, 65, 127
2, 145120, Note_on_c, 0, 53, 0
2, 145120, Note_on_c, 0, 58, 0
2, 145120, Note_on_c, 0, 65, 0
2, 145152, Note_on_c, 0, 53, 92
2, 145152, Note_on_c, 0, 58, 92
2, 145152, Note_on_c, 0, 65, 92
2, 145312, Note_on_c, 0, 53, 0
2, 145312, Note_on_c, 0, 58, 0
2, 145312, Note_on_c, 0, 65, 0
2, 145344, Note_on_c, 0, 53, 92
2, 145344, Note_on_c, 0, 58, 92
2, 145344, Note_on_c, 0, 65, 92
2, 145504, Note_on_c, 0, 53, 0
2, 145504, Note_on_c, 0, 58, 0
2, 145504, Note_on_c, 0, 65, 0
2, 145536, Note_on_c, 0, 53, 127
2, 145536, Note_on_c, 0, 58, 127
2, 145536, Note_on_c, 0, 65, 127
2, 145696, Note_on_c, 0, 53, 0
2, 145696, Note_on_c, 0, 58, 0
2, 145696, Note_on_c, 0, 65, 0
2, 145728, Note_on_c, 0, 53, 92
2, 145728, Note_on_c, 0, 58, 92
2, 145728, Note_on_c, 0, 65, 92
2, 145888, Note_on_c, 0, 53, 0
2, 145888, Note_on_c, 0, 58, 0
2, 145888, Note_on_c, 0, 65, 0
2, 145920, Note_on_c, 0, 53, 92
2, 145920, Note_on_c, 0, 58, 92
2, 145920, Note_on_c, 0, 65, 92
2, 146080, Note_on_c, 0, 53, 0
2, 146080, Note_on_c, 0, 58, 0
2, 146080, Note_on_c, 0, 65, 0
2, 146112, Note_on_c, 0, 51, 92
2, 146112, Note_on_c, 0, 56, 92
2, 146112, Note_on_c, 0, 63, 92
2, 146272, Note_on_c, 0, 51, 0
2, 146272, Note_on_c, 0, 56, 0
2, 146272, Note_on_c, 0, 63, 0
2, 146304, Note_on_c, 0, 51, 92
2, 146304, Note_on_c, 0, 56, 92
2, 146304, Note_on_c, 0, 63, 92
2, 146464, Note_on_c, 0, 51, 0
2, 146464, Note_on_c, 0, 56, 0
2, 146464, Note_on_c, 0, 63, 0
2, 148032, Note_on_c, 0, 53, 127
2, 148032, Note_on_c, 0, 58, 127
2, 148032, Note_on_c, 0, 65, 127
2, 148192, Note_on_c, 0, 53, 0
2, 148192, Note_on_c, 0, 58, 0
2, 148192, Note_on_c, 0, 65, 0
2, 148224, Note_on_c, 0, 53, 92
2, 148224, Note_on_c, 0, 58, 92
2, 148224, Note_on_c, 0, 65, 92
2, 148384, Note_on_c, 0, 53, 0
2, 148384, Note_on_c, 0, 58, 0
2, 148384, Note_on_c, 0, 65, 0
2, 148416, Note_on_c, 0, 53, 92
2, 148416, Note_on_c, 0, 58, 92
2, 148416, Note_on_c, 0, 65, 92
2, 148576, Note_on_c, 0, 53, 0
2, 148576, Note_on_c, 0, 58, 0
2, 148576, Note_on_c, 0, 65, 0
2, 148608, Note_on_c, 0, 53, 127
2, 148608, Note_on_c, 0, 58, 127
2, 148608, Note_on_c, 0, 65, 127
2, 148768, Note_on_c, 0, 53, 0
2, 148768, Note_on_c, 0, 58, 0
2, 148768, Note_on_c, 0, 65, 0
2, 148800, Note_on_c, 0, 53, 92
2, 148800, Note_on_c, 0, 58, 92
2, 148800, Note_on_c, 0, 65, 92
2, 148960, Note_on_c, 0, 53, 0
2, 148960, Note_on_c, 0, 58, 0
2, 148960, Note_on_c, 0, 65, 0
2, 148992, Note_on_c, 0, 53, 92
2, 148992, Note_on_c, 0, 58, 92
2, 148992, Note_on_c, 0, 65, 92
2, 149152, Note_on_c, 0, 53, 0
2, 149152, Note_on_c, 0, 58, 0
2, 149152, Note_on_c, 0, 65, 0
2, 149184, Note_on_c, 0, 51, 92
2, 149184, Note_on_c, 0, 56, 92
2, 149184, Note_on_c, 0, 63, 92
2, 149344, Note_on_c, 0, 51, 0
2, 149344, Note_on_c, 0, 56, 0
2, 149344, Note_on_c, 0, 63, 0
2, 149376, Note_on_c, 0, 51, 92
2, 149376, Note_on_c, 0, 56, 92
2, 149376, Note_on_c, 0, 63, 92
2, 149536, Note_on_c, 0, 51, 0
2, 149536, Note_on_c, 0, 56, 0
2, 149536, Note_on_c, 0, 63, 0
2, 151104, Program_c, 0, 48
2, 151296, Note_on_c, 0, 58, 92
2, 151582, Note_on_c, 0, 58, 0
2, 151584, Note_on_c, 0, 62, 92
2, 151678, Note_on_c, 0, 62, 0
2, 151680, Note_on_c, 0, 63, 92
2, 151774, Note_on_c, 0, 63, 0
2, 151776, Note_on_c, 0, 65, 92
2, 152032, Note_on_c, 0, 65, 0
2, 152064, Note_on_c, 0, 65, 92
2, 152400, Note_on_c, 0, 65, 0
2, 152448, Note_on_c, 0, 63, 92
2, 152542, Note_on_c, 0, 63, 0
2, 152544, Note_on_c, 0, 65, 92
2, 152638, Note_on_c, 0, 65, 0
2, 152640, Note_on_c, 0, 63, 92
2, 152800, Note_on_c, 0, 63, 0
2, 152832, Note_on_c, 0, 65, 92
2, 152926, Note_on_c, 0, 65, 0
2, 152928, Note_on_c, 0, 63, 92
2, 153118, Note_on_c, 0, 63, 0
2, 153120, Note_on_c, 0, 58, 92
2, 153280, Note_on_c, 0, 58, 0
2, 153312, Note_on_c, 0, 58, 92
2, 153744, Note_on_c, 0, 58, 0
2, 154464, Note_on_c, 0, 58, 92
2, 154558, Note_on_c, 0, 58, 0
2, 154560, Note_on_c, 0, 62, 92
2, 154654, Note_on_c, 0, 62, 0
2, 154656, Note_on_c, 0, 63, 92
2, 154816, Note_on_c, 0, 63, 0
2, 154848, Note_on_c, 0, 65, 92
2, 155038, Note_on_c, 0, 65, 0
2, 155040, Note_on_c, 0, 70, 92
2, 155200, Note_on_c, 0, 70, 0
2, 155232, Note_on_c, 0, 70, 92
2, 155488, Note_on_c, 0, 70, 0
2, 155520, Note_on_c, 0, 68, 92
2, 155614, Note_on_c, 0, 68, 0
2, 155616, Note_on_c, 0, 67, 92
2, 155710, Note_on_c, 0, 67, 0
2, 155712, Note_on_c, 0, 68, 92
2, 155872, Note_on_c, 0, 68, 0
2, 155904, Note_on_c, 0, 68, 92
2, 156064, Note_on_c, 0, 68, 0
2, 156096, Note_on_c, 0, 70, 92
2, 156190, Note_on_c, 0, 70, 0
2, 156192, Note_on_c, 0, 72, 92
2, 156352, Note_on_c, 0, 72, 0
2, 156384, Note_on_c, 0, 70, 92
2, 156640, Note_on_c, 0, 70, 0
2, 156672, Note_on_c, 0, 77, 92
2, 157200, Note_on_c, 0, 77, 0
2, 157440, Note_on_c, 0, 70, 92
2, 157600, Note_on_c, 0, 70, 0
2, 157632, Note_on_c, 0, 72, 92
2, 157726, Note_on_c, 0, 72, 0
2, 157728, Note_on_c, 0, 73, 92
2, 157888, Note_on_c, 0, 73, 0
2, 157920, Note_on_c, 0, 72, 92
2, 158014, Note_on_c, 0, 72, 0
2, 158016, Note_on_c, 0, 70, 92
2, 158176, Note_on_c, 0, 70, 0
2, 158208, Note_on_c, 0, 68, 92
2, 158302, Note_on_c, 0, 68, 0
2, 158304, Note_on_c, 0, 70, 92
2, 158656, Note_on_c, 0, 70, 0
2, 158688, Note_on_c, 0, 65, 92
2, 158782, Note_on_c, 0, 65, 0
2, 158784, Note_on_c, 0, 63, 92
2, 158878, Note_on_c, 0, 63, 0
2, 158880, Note_on_c, 0, 61, 92
2, 159040, Note_on_c, 0, 61, 0
2, 159072, Note_on_c, 0, 65, 92
2, 159262, Note_on_c, 0, 65, 0
2, 159264, Note_on_c, 0, 58, 92
2, 159358, Note_on_c, 0, 58, 0
2, 159360, Note_on_c, 0, 58, 92
2, 159888, Note_on_c, 0, 58, 0
2, 160224, Note_on_c, 0, 60, 92
2, 160318, Note_on_c, 0, 60, 0
2, 160320, Note_on_c, 0, 61, 92
2, 160414, Note_on_c, 0, 61, 0
2, 160416, Note_on_c, 0, 61, 92
2, 160576, Note_on_c, 0, 61, 0
2, 160608, Note_on_c, 0, 63, 92
2, 160798, Note_on_c, 0, 63, 0
2, 160800, Note_on_c, 0, 65, 92
2, 160894, Note_on_c, 0, 65, 0
2, 160896, Note_on_c, 0, 63, 92
2, 161248, Note_on_c, 0, 63, 0
2, 161280, Note_on_c, 0, 61, 92
2, 161440, Note_on_c, 0, 61, 0
2, 161472, Note_on_c, 0, 58, 92
2, 161566, Note_on_c, 0, 58, 0
2, 161568, Note_on_c, 0, 58, 92
2, 161728, Note_on_c, 0, 58, 0
2, 161760, Note_on_c, 0, 56, 92
2, 161950, Note_on_c, 0, 56, 0
2, 161952, Note_on_c, 0, 60, 92
2, 162046, Note_on_c, 0, 60, 0
2, 162048, Note_on_c, 0, 58, 92
2, 162784, Note_on_c, 0, 58, 0
2, 164352, Note_on_c, 0, 53, 92
2, 164352, Note_on_c, 0, 58, 92
2, 164512, Note_on_c, 0, 53, 0
2, 164512, Note_on_c, 0, 58, 0
2, 164544, Note_on_c, 0, 53, 92
2, 164544, Note_on_c, 0, 62, 92
2, 164704, Note_on_c, 0, 53, 0
2, 164704, Note_on_c, 0, 62, 0
2, 164736, Note_on_c, 0, 55, 92
2, 164736, Note_on_c, 0, 63, 92
2, 164830, Note_on_c, 0, 55, 0
2, 164830, Note_on_c, 0, 63, 0
2, 164832, Note_on_c, 0, 58, 92
2, 164832, Note_on_c, 0, 65, 92
2, 165022, Note_on_c, 0, 58, 0
2, 165022, Note_on_c, 0, 65, 0
2, 165024, Note_on_c, 0, 58, 92
2, 165024, Note_on_c, 0, 65, 92
2, 165280, Note_on_c, 0, 58, 0
2, 165280, Note_on_c, 0, 65, 0
2, 165312, Note_on_c, 0, 58, 92
2, 165312, Note_on_c, 0, 65, 92
2, 165472, Note_on_c, 0, 58, 0
2, 165472, Note_on_c, 0, 65, 0
2, 165504, Note_on_c, 0, 56, 92
2, 165504, Note_on_c, 0, 63, 92
2, 165598, Note_on_c, 0, 56, 0
2, 165598, Note_on_c, 0, 63, 0
2, 165600, Note_on_c, 0, 58, 92
2, 165600, Note_on_c, 0, 65, 92
2, 165694, Note_on_c, 0, 58, 0
2, 165694, Note_on_c, 0, 65, 0
2, 165696, Note_on_c, 0, 56, 92
2, 165696, Note_on_c, 0, 63, 92
2, 165856, Note_on_c, 0, 56, 0
2, 165856, Note_on_c, 0, 63, 0
2, 165888, Note_on_c, 0, 56, 92
2, 165888, Note_on_c, 0, 63, 92
2, 165982, Note_on_c, 0, 56, 0
2, 165982, Note_on_c, 0, 63, 0
2, 165984, Note_on_c, 0, 58, 92
2, 165984, Note_on_c, 0, 65, 92
2, 166078, Note_on_c, 0, 58, 0
2, 166078, Note_on_c, 0, 65, 0
2, 166080, Note_on_c, 0, 56, 92
2, 166080, Note_on_c, 0, 63, 92
2, 166174, Note_on_c, 0, 56, 0
2, 166174, Note_on_c, 0, 63, 0
2, 166176, Note_on_c, 0, 51, 92
2, 166176, Note_on_c, 0, 58, 92
2, 166336, Note_on_c, 0, 51, 0
2, 166336, Note_on_c, 0, 58, 0
2, 166368, Note_on_c, 0, 53, 92
2, 166368, Note_on_c, 0, 58, 92
2, 166800, Note_on_c, 0, 53, 0
2, 166800, Note_on_c, 0, 58, 0
2, 167424, Note_on_c, 0, 53, 92
2, 167424, Note_on_c, 0, 58, 92
2, 167584, Note_on_c, 0, 53, 0
2, 167584, Note_on_c, 0, 58, 0
2, 167616, Note_on_c, 0, 53, 92
2, 167616, Note_on_c, 0, 62, 92
2, 167776, Note_on_c, 0, 53, 0
2, 167776, Note_on_c, 0, 62, 0
2, 167808, Note_on_c, 0, 55, 92
2, 167808, Note_on_c, 0, 63, 92
2, 167808, Note_on_c, 0, 67, 92
2, 167902, Note_on_c, 0, 55, 0
2, 167902, Note_on_c, 0, 63, 0
2, 167902, Note_on_c, 0, 67, 0
2, 167904, Note_on_c, 0, 58, 92
2, 167904, Note_on_c, 0, 65, 92
2, 167904, Note_on_c, 0, 70, 92
2, 168094, Note_on_c, 0, 58, 0
2, 168094, Note_on_c, 0, 65, 0
2, 168094, Note_on_c, 0, 70, 0
2, 168096, Note_on_c, 0, 65, 92
2, 168096, Note_on_c, 0, 70, 92
2, 168096, Note_on_c, 0, 74, 92
2, 168190, Note_on_c, 0, 65, 0
2, 168190, Note_on_c, 0, 70, 0
2, 168190, Note_on_c, 0, 74, 0
2, 168192, Note_on_c, 0, 65, 92
2, 168192, Note_on_c, 0, 70, 92
2, 168192, Note_on_c, 0, 74, 92
2, 168528, Note_on_c, 0, 65, 0
2, 168528, Note_on_c, 0, 70, 0
2, 168528, Note_on_c, 0, 74, 0
2, 168576, Note_on_c, 0, 63, 92
2, 168576, Note_on_c, 0, 68, 92
2, 168576, Note_on_c, 0, 72, 92
2, 168670, Note_on_c, 0, 63, 0
2, 168670, Note_on_c, 0, 68, 0
2, 168670, Note_on_c, 0, 72, 0
2, 168672, Note_on_c, 0, 62, 92
2, 168672, Note_on_c, 0, 67, 92
2, 168672, Note_on_c, 0, 70, 92
2, 168766, Note_on_c, 0, 62, 0
2, 168766, Note_on_c, 0, 67, 0
2, 168766, Note_on_c, 0, 70, 0
2, 168768, Note_on_c, 0, 63, 92
2, 168768, Note_on_c, 0, 68, 92
2, 168768, Note_on_c, 0, 72, 92
2, 168928, Note_on_c, 0, 63, 0
2, 168928, Note_on_c, 0, 68, 0
2, 168928, Note_on_c, 0, 72, 0
2, 168960, Note_on_c, 0, 63, 92
2, 168960, Note_on_c, 0, 68, 92
2, 168960, Note_on_c, 0, 72, 92
2, 169120, Note_on_c, 0, 63, 0
2, 169120, Note_on_c, 0, 68, 0
2, 169120, Note_on_c, 0, 72, 0
2, 169152, Note_on_c, 0, 65, 92
2, 169152, Note_on_c, 0, 70, 92
2, 169152, Note_on_c, 0, 74, 92
2, 169246, Note_on_c, 0, 65, 0
2, 169246, Note_on_c, 0, 70, 0
2, 169246, Note_on_c, 0, 74, 0
2, 169248, Note_on_c, 0, 67, 92
2, 169248, Note_on_c, 0, 72, 92
2, 169248, Note_on_c, 0, 75, 92
2, 169408, Note_on_c, 0, 67, 0
2, 169408, Note_on_c, 0, 72, 0
2, 169408, Note_on_c, 0, 75, 0
2, 169440, Note_on_c, 0, 65, 92
2, 169440, Note_on_c, 0, 70, 92
2, 169440, Note_on_c, 0, 74, 92
2, 169696, Note_on_c, 0, 65, 0
2, 169696, Note_on_c, 0, 70, 0
2, 169696, Note_on_c, 0, 74, 0
2, 169728, Note_on_c, 0, 65, 92
2, 169728, Note_on_c, 0, 77, 92
2, 170256, Note_on_c, 0, 65, 0
2, 170256, Note_on_c, 0, 77, 0
2, 170496, Note_on_c, 0, 65, 92
2, 170496, Note_on_c, 0, 70, 92
2, 170496, Note_on_c, 0, 73, 92
2, 170590, Note_on_c, 0, 65, 0
2, 170590, Note_on_c, 0, 70, 0
2, 170590, Note_on_c, 0, 73, 0
2, 170592, Note_on_c, 0, 67, 92
2, 170592, Note_on_c, 0, 72, 92
2, 170592, Note_on_c, 0, 75, 92
2, 170686, Note_on_c, 0, 67, 0
2, 170686, Note_on_c, 0, 72, 0
2, 170686, Note_on_c, 0, 75, 0
2, 170688, Note_on_c, 0, 68, 92
2, 170688, Note_on_c, 0, 73, 92
2, 170688, Note_on_c, 0, 77, 92
2, 170848, Note_on_c, 0, 68, 0
2, 170848, Note_on_c, 0, 73, 0
2, 170848, Note_on_c, 0, 77, 0
2, 170880, Note_on_c, 0, 67, 92
2, 170880, Note_on_c, 0, 72, 92
2, 170880, Note_on_c, 0, 75, 92
2, 171040, Note_on_c, 0, 67, 0
2, 171040, Note_on_c, 0, 72, 0
2, 171040, Note_on_c, 0, 75, 0
2, 171072, Note_on_c, 0, 65, 92
2, 171072, Note_on_c, 0, 70, 92
2, 171072, Note_on_c, 0, 73, 92
2, 171166, Note_on_c, 0, 65, 0
2, 171166, Note_on_c, 0, 70, 0
2, 171166, Note_on_c, 0, 73, 0
2, 171168, Note_on_c, 0, 63, 92
2, 171168, Note_on_c, 0, 68, 92
2, 171168, Note_on_c, 0, 72, 92
2, 171328, Note_on_c, 0, 63, 0
2, 171328, Note_on_c, 0, 68, 0
2, 171328, Note_on_c, 0, 72, 0
2, 171360, Note_on_c, 0, 65, 92
2, 171360, Note_on_c, 0, 70, 92
2, 171360, Note_on_c, 0, 73, 92
2, 171456, Note_on_c, 0, 73, 92
2, 171502, Note_on_c, 0, 73, 0
2, 171616, Note_on_c, 0, 65, 0
2, 171616, Note_on_c, 0, 70, 0
2, 171616, Note_on_c, 0, 73, 0
2, 171648, Note_on_c, 0, 65, 92
2, 171808, Note_on_c, 0, 65, 0
2, 171840, Note_on_c, 0, 63, 92
2, 172000, Note_on_c, 0, 63, 0
2, 172032, Note_on_c, 0, 61, 92
2, 172126, Note_on_c, 0, 61, 0
2, 172128, Note_on_c, 0, 65, 92
2, 172318, Note_on_c, 0, 65, 0
2, 172320, Note_on_c, 0, 58, 92
2, 172480, Note_on_c, 0, 58, 0
2, 172512, Note_on_c, 0, 58, 92
2, 172944, Note_on_c, 0, 58, 0
2, 173184, Note_on_c, 0, 50, 92
2, 173184, Note_on_c, 0, 58, 92
2, 173184, Note_on_c, 0, 70, 92
2, 173278, Note_on_c, 0, 50, 0
2, 173278, Note_on_c, 0, 58, 0
2, 173278, Note_on_c, 0, 70, 0
2, 173280, Note_on_c, 0, 51, 92
2, 173280, Note_on_c, 0, 60, 92
2, 173280, Note_on_c, 0, 72, 92
2, 173374, Note_on_c, 0, 51, 0
2, 173374, Note_on_c, 0, 60, 0
2, 173374, Note_on_c, 0, 72, 0
2, 173376, Note_on_c, 0, 53, 92
2, 173376, Note_on_c, 0, 61, 92
2, 173376, Note_on_c, 0, 73, 92
2, 173470, Note_on_c, 0, 53, 0
2, 173470, Note_on_c, 0, 61, 0
2, 173470, Note_on_c, 0, 73, 0
2, 173472, Note_on_c, 0, 53, 92
2, 173472, Note_on_c, 0, 61, 92
2, 173472, Note_on_c, 0, 73, 92
2, 173728, Note_on_c, 0, 53, 0
2, 173728, Note_on_c, 0, 61, 0
2, 173728, Note_on_c, 0, 73, 0
2, 173760, Note_on_c, 0, 55, 92
2, 173760, Note_on_c, 0, 63, 92
2, 173760, Note_on_c, 0, 75, 92
2, 173920, Note_on_c, 0, 55, 0
2, 173920, Note_on_c, 0, 63, 0
2, 173920, Note_on_c, 0, 75, 0
2, 173952, Note_on_c, 0, 56, 92
2, 173952, Note_on_c, 0, 65, 92
2, 173952, Note_on_c, 0, 77, 92
2, 174046, Note_on_c, 0, 56, 0
2, 174046, Note_on_c, 0, 65, 0
2, 174046, Note_on_c, 0, 77, 0
2, 174048, Note_on_c, 0, 55, 92
2, 174048, Note_on_c, 0, 63, 92
2, 174048, Note_on_c, 0, 75, 92
2, 174238, Note_on_c, 0, 55, 0
2, 174238, Note_on_c, 0, 63, 0
2, 174238, Note_on_c, 0, 75, 0
2, 174240, Note_on_c, 0, 53, 92
2, 174240, Note_on_c, 0, 61, 92
2, 174240, Note_on_c, 0, 73, 92
2, 174400, Note_on_c, 0, 53, 0
2, 174400, Note_on_c, 0, 61, 0
2, 174400, Note_on_c, 0, 73, 0
2, 174432, Note_on_c, 0, 53, 92
2, 174432, Note_on_c, 0, 58, 92
2, 174432, Note_on_c, 0, 70, 92
2, 174622, Note_on_c, 0, 53, 0
2, 174622, Note_on_c, 0, 58, 0
2, 174622, Note_on_c, 0, 70, 0
2, 174624, Note_on_c, 0, 51, 92
2, 174624, Note_on_c, 0, 56, 92
2, 174624, Note_on_c, 0, 68, 92
2, 174784, Note_on_c, 0, 51, 0
2, 174784, Note_on_c, 0, 56, 0
2, 174784, Note_on_c, 0, 68, 0
2, 174816, Note_on_c, 0, 51, 92
2, 174816, Note_on_c, 0, 56, 92
2, 174816, Note_on_c, 0, 68, 92
2, 175006, Note_on_c, 0, 51, 0
2, 175006, Note_on_c, 0, 56, 0
2, 175006, Note_on_c, 0, 68, 0
2, 175008, Note_on_c, 0, 55, 92
2, 175008, Note_on_c, 0, 58, 92
2, 175008, Note_on_c, 0, 70, 92
2, 175102, Note_on_c, 0, 55, 0
2, 175102, Note_on_c, 0, 58, 0
2, 175102, Note_on_c, 0, 70, 0
2, 175104, Note_on_c, 0, 53, 92
2, 175104, Note_on_c, 0, 58, 92
2, 175104, Note_on_c, 0, 70, 92
2, 175840, Note_on_c, 0, 53, 0
2, 175840, Note_on_c, 0, 58, 0
2, 175840, Note_on_c, 0, 70, 0
2, 178560, Program_c, 0, 6
2, 178560, Note_on_c, 0, 62, 92
2, 178560, Note_on_c, 0, 67, 92
2, 178720, Note_on_c, 0, 62, 0
2, 178720, Note_on_c, 0, 67, 0
2, 178752, Note_on_c, 0, 79, 92
2, 178846, Note_on_c, 0, 79, 0
2, 178848, Note_on_c, 0, 77, 92
2, 178942, Note_on_c, 0, 77, 0
2, 178944, Note_on_c, 0, 79, 92
2, 179038, Note_on_c, 0, 79, 0
2, 179136, Note_on_c, 0, 67, 92
2, 179296, Note_on_c, 0, 67, 0
2, 179328, Note_on_c, 0, 74, 92
2, 179422, Note_on_c, 0, 74, 0
2, 179424, Note_on_c, 0, 72, 92
2, 179518, Note_on_c, 0, 72, 0
2, 179520, Note_on_c, 0, 70, 92
2, 179614, Note_on_c, 0, 70, 0
2, 179616, Note_on_c, 0, 69, 92
2, 179710, Note_on_c, 0, 69, 0
2, 179712, Note_on_c, 0, 72, 92
2, 179806, Note_on_c, 0, 72, 0
2, 179808, Note_on_c, 0, 69, 92
2, 179902, Note_on_c, 0, 69, 0
2, 179904, Note_on_c, 0, 58, 92
2, 179904, Note_on_c, 0, 62, 92
2, 179904, Note_on_c, 0, 67, 92
2, 180064, Note_on_c, 0, 58, 0
2, 180064, Note_on_c, 0, 62, 0
2, 180064, Note_on_c, 0, 67, 0
2, 180096, Note_on_c, 0, 70, 92
2, 180096, Note_on_c, 0, 74, 92
2, 180190, Note_on_c, 0, 70, 0
2, 180190, Note_on_c, 0, 74, 0
2, 180192, Note_on_c, 0, 69, 92
2, 180192, Note_on_c, 0, 72, 92
2, 180286, Note_on_c, 0, 69, 0
2, 180286, Note_on_c, 0, 72, 0
2, 180288, Note_on_c, 0, 70, 92
2, 180288, Note_on_c, 0, 74, 92
2, 180448, Note_on_c, 0, 70, 0
2, 180448, Note_on_c, 0, 74, 0
2, 180480, Note_on_c, 0, 58, 92
2, 180480, Note_on_c, 0, 62, 92
2, 180480, Note_on_c, 0, 67, 92
2, 180640, Note_on_c, 0, 58, 0
2, 180640, Note_on_c, 0, 62, 0
2, 180640, Note_on_c, 0, 67, 0
2, 180672, Note_on_c, 0, 60, 92
2, 180672, Note_on_c, 0, 65, 92
2, 180672, Note_on_c, 0, 69, 92
2, 180832, Note_on_c, 0, 60, 0
2, 180832, Note_on_c, 0, 65, 0
2, 180832, Note_on_c, 0, 69, 0
2, 180864, Note_on_c, 0, 69, 92
2, 180864, Note_on_c, 0, 72, 92
2, 180958, Note_on_c, 0, 69, 0
2, 180958, Note_on_c, 0, 72, 0
2, 180960, Note_on_c, 0, 67, 92
2, 180960, Note_on_c, 0, 70, 92
2, 181054, Note_on_c, 0, 67, 0
2, 181054, Note_on_c, 0, 70, 0
2, 181056, Note_on_c, 0, 69, 92
2, 181056, Note_on_c, 0, 72, 92
2, 181216, Note_on_c, 0, 69, 0
2, 181216, Note_on_c, 0, 72, 0
2, 181248, Note_on_c, 0, 60, 92
2, 181248, Note_on_c, 0, 65, 92
2, 181248, Note_on_c, 0, 69, 92
2, 181408, Note_on_c, 0, 60, 0
2, 181408, Note_on_c, 0, 65, 0
2, 181408, Note_on_c, 0, 69, 0
2, 181440, Note_on_c, 0, 62, 92
2, 181440, Note_on_c, 0, 67, 92
2, 181440, Note_on_c, 0, 70, 92
2, 181600, Note_on_c, 0, 62, 0
2, 181600, Note_on_c, 0, 67, 0
2, 181600, Note_on_c, 0, 70, 0
2, 181632, Note_on_c, 0, 67, 92
2, 181632, Note_on_c, 0, 70, 92
2, 181726, Note_on_c, 0, 67, 0
2, 181726, Note_on_c, 0, 70, 0
2, 181728, Note_on_c, 0, 65, 92
2, 181728, Note_on_c, 0, 69, 92
2, 181822, Note_on_c, 0, 65, 0
2, 181822, Note_on_c, 0, 69, 0
2, 181824, Note_on_c, 0, 67, 92
2, 181824, Note_on_c, 0, 70, 92
2, 181984, Note_on_c, 0, 67, 0
2, 181984, Note_on_c, 0, 70, 0
2, 182016, Note_on_c, 0, 66, 92
2, 182016, Note_on_c, 0, 69, 92
2, 182110, Note_on_c, 0, 66, 0
2, 182110, Note_on_c, 0, 69, 0
2, 182112, Note_on_c, 0, 64, 92
2, 182112, Note_on_c, 0, 67, 92
2, 182206, Note_on_c, 0, 64, 0
2, 182206, Note_on_c, 0, 67, 0
2, 182208, Note_on_c, 0, 66, 92
2, 182208, Note_on_c, 0, 69, 92
2, 182302, Note_on_c, 0, 66, 0
2, 182302, Note_on_c, 0, 69, 0
2, 182304, Note_on_c, 0, 64, 92
2, 182304, Note_on_c, 0, 67, 92
2, 182398, Note_on_c, 0, 64, 0
2, 182398, Note_on_c, 0, 67, 0
2, 182400, Note_on_c, 0, 62, 92
2, 182400, Note_on_c, 0, 66, 92
2, 182494, Note_on_c, 0, 62, 0
2, 182494, Note_on_c, 0, 66, 0
2, 182592, Program_c, 0, 48
2, 182592, Note_on_c, 0, 67, 108
2, 182752, Note_on_c, 0, 67, 0
2, 182784, Note_on_c, 0, 67, 108
2, 182878, Note_on_c, 0, 67, 0
2, 182880, Note_on_c, 0, 69, 108
2, 182974, Note_on_c, 0, 69, 0
2, 182976, Note_on_c, 0, 65, 108
2, 183136, Note_on_c, 0, 65, 0
2, 183168, Note_on_c, 0, 69, 108
2, 183328, Note_on_c, 0, 69, 0
2, 183360, Note_on_c, 0, 65, 108
2, 183520, Note_on_c, 0, 65, 0
2, 183552, Note_on_c, 0, 65, 108
2, 183888, Note_on_c, 0, 65, 0
2, 184128, Note_on_c, 0, 66, 108
2, 184464, Note_on_c, 0, 66, 0
2, 184704, Note_on_c, 0, 67, 108
2, 185232, Note_on_c, 0, 67, 0
2, 185280, Note_on_c, 0, 69, 108
2, 185616, Note_on_c, 0, 69, 0
2, 185664, Note_on_c, 0, 74, 108
2, 186384, Note_on_c, 0, 74, 0
2, 186432, Note_on_c, 0, 71, 108
2, 186688, Note_on_c, 0, 71, 0
2, 186720, Note_on_c, 0, 69, 108
2, 186814, Note_on_c, 0, 69, 0
2, 186816, Note_on_c, 0, 67, 108
2, 186976, Note_on_c, 0, 67, 0
2, 187008, Note_on_c, 0, 64, 108
2, 187536, Note_on_c, 0, 64, 0
2, 187872, Note_on_c, 0, 67, 108
2, 187966, Note_on_c, 0, 67, 0
2, 187968, Note_on_c, 0, 67, 108
2, 188128, Note_on_c, 0, 67, 0
2, 188160, Note_on_c, 0, 67, 108
2, 188254, Note_on_c, 0, 67, 0
2, 188256, Note_on_c, 0, 67, 108
2, 188350, Note_on_c, 0, 67, 0
2, 188352, Note_on_c, 0, 67, 108
2, 188512, Note_on_c, 0, 67, 0
2, 188544, Note_on_c, 0, 72, 108
2, 189072, Note_on_c, 0, 72, 0
2, 189504, Note_on_c, 0, 69, 108
2, 189760, Note_on_c, 0, 69, 0
2, 189792, Note_on_c, 0, 67, 108
2, 189886, Note_on_c, 0, 67, 0
2, 189888, Note_on_c, 0, 66, 108
2, 190048, Note_on_c, 0, 66, 0
2, 190080, Note_on_c, 0, 67, 108
2, 190240, Note_on_c, 0, 67, 0
2, 190272, Note_on_c, 0, 69, 108
2, 190432, Note_on_c, 0, 69, 0
2, 190464, Note_on_c, 0, 65, 108
2, 190624, Note_on_c, 0, 65, 0
2, 190656, Note_on_c, 0, 69, 108
2, 190816, Note_on_c, 0, 69, 0
2, 190848, Note_on_c, 0, 65, 108
2, 191008, Note_on_c, 0, 65, 0
2, 191040, Note_on_c, 0, 67, 108
2, 191968, Note_on_c, 0, 67, 0
2, 193344, Note_on_c, 0, 67, 108
2, 193504, Note_on_c, 0, 67, 0
2, 193536, Note_on_c, 0, 67, 108
2, 193630, Note_on_c, 0, 67, 0
2, 193632, Note_on_c, 0, 69, 108
2, 193726, Note_on_c, 0, 69, 0
2, 193728, Note_on_c, 0, 65, 108
2, 193888, Note_on_c, 0, 65, 0
2, 193920, Note_on_c, 0, 69, 108
2, 194080, Note_on_c, 0, 69, 0
2, 194112, Note_on_c, 0, 65, 108
2, 194272, Note_on_c, 0, 65, 0
2, 194304, Note_on_c, 0, 65, 108
2, 194640, Note_on_c, 0, 65, 0
2, 194880, Note_on_c, 0, 66, 108
2, 195040, Note_on_c, 0, 66, 0
2, 195072, Note_on_c, 0, 64, 108
2, 195232, Note_on_c, 0, 64, 0
2, 195264, Note_on_c, 0, 62, 108
2, 195424, Note_on_c, 0, 62, 0
2, 195456, Note_on_c, 0, 67, 108
2, 195984, Note_on_c, 0, 67, 0
2, 196032, Note_on_c, 0, 69, 108
2, 196368, Note_on_c, 0, 69, 0
2, 196416, Note_on_c, 0, 74, 108
2, 197136, Note_on_c, 0, 74, 0
2, 197184, Note_on_c, 0, 71, 108
2, 197440, Note_on_c, 0, 71, 0
2, 197472, Note_on_c, 0, 69, 108
2, 197566, Note_on_c, 0, 69, 0
2, 197568, Note_on_c, 0, 67, 108
2, 197728, Note_on_c, 0, 67, 0
2, 197760, Note_on_c, 0, 64, 108
2, 198288, Note_on_c, 0, 64, 0
2, 198528, Note_on_c, 0, 67, 108
2, 198622, Note_on_c, 0, 67, 0
2, 198624, Note_on_c, 0, 67, 108
2, 198718, Note_on_c, 0, 67, 0
2, 198720, Note_on_c, 0, 67, 108
2, 198880, Note_on_c, 0, 67, 0
2, 198912, Note_on_c, 0, 67, 108
2, 199072, Note_on_c, 0, 67, 0
2, 199104, Note_on_c, 0, 67, 108
2, 199264, Note_on_c, 0, 67, 0
2, 199296, Note_on_c, 0, 72, 108
2, 199824, Note_on_c, 0, 72, 0
2, 200256, Note_on_c, 0, 69, 108
2, 200512, Note_on_c, 0, 69, 0
2, 200544, Note_on_c, 0, 67, 108
2, 200638, Note_on_c, 0, 67, 0
2, 200640, Note_on_c, 0, 66, 108
2, 200800, Note_on_c, 0, 66, 0
2, 200832, Note_on_c, 0, 67, 108
2, 200992, Note_on_c, 0, 67, 0
2, 201024, Note_on_c, 0, 69, 108
2, 201184, Note_on_c, 0, 69, 0
2, 201216, Note_on_c, 0, 65, 108
2, 201376, Note_on_c, 0, 65, 0
2, 201408, Note_on_c, 0, 69, 108
2, 201568, Note_on_c, 0, 69, 0
2, 201600, Note_on_c, 0, 65, 108
2, 201760, Note_on_c, 0, 65, 0
2, 201792, Note_on_c, 0, 67, 108
2, 202720, Note_on_c, 0, 67, 0
2, 202720, End_track
3, 0, Start_track
3, 0, MIDI_port, 0
3, 0, Title_t, "Flute"
3, 0, Program_c, 2, 73
3, 0, Control_c, 2, 7, 127
3, 0, Control_c, 2, 10, 64
3, 8256, Note_on_c, 2, 67, 92
3, 8784, Note_on_c, 2, 67, 0
3, 8832, Note_on_c, 2, 67, 92
3, 8992, Note_on_c, 2, 67, 0
3, 9024, Note_on_c, 2, 69, 92
3, 9552, Note_on_c, 2, 69, 0
3, 9600, Note_on_c, 2, 69, 92
3, 9760, Note_on_c, 2, 69, 0
3, 9792, Note_on_c, 2, 70, 92
3, 10320, Note_on_c, 2, 70, 0
3, 10368, Note_on_c, 2, 72, 92
3, 10528, Note_on_c, 2, 72, 0
3, 10560, Note_on_c, 2, 74, 92
3, 10720, Note_on_c, 2, 74, 0
3, 10752, Note_on_c, 2, 78, 92
3, 10912, Note_on_c, 2, 78, 0
3, 10944, Note_on_c, 2, 79, 92
3, 10992, Note_on_c, 2, 79, 0
3, 12288, Note_on_c, 2, 79, 92
3, 12448, Note_on_c, 2, 79, 0
3, 12480, Note_on_c, 2, 79, 92
3, 12512, Note_on_c, 2, 79, 0
3, 12576, Note_on_c, 2, 81, 92
3, 12608, Note_on_c, 2, 81, 0
3, 12672, Note_on_c, 2, 82, 92
3, 12864, Note_on_c, 2, 82, 0
3, 12864, Note_on_c, 2, 84, 92
3, 12912, Note_on_c, 2, 84, 0
3, 13056, Note_on_c, 2, 77, 92
3, 13216, Note_on_c, 2, 77, 0
3, 13248, Note_on_c, 2, 79, 92
3, 13296, Note_on_c, 2, 79, 0
3, 14784, Note_on_c, 2, 86, 92
3, 14878, Note_on_c, 2, 86, 0
3, 14880, Note_on_c, 2, 84, 92
3, 14974, Note_on_c, 2, 84, 0
3, 14976, Note_on_c, 2, 86, 92
3, 15136, Note_on_c, 2, 86, 0
3, 15360, Note_on_c, 2, 86, 92
3, 15454, Note_on_c, 2, 86, 0
3, 15456, Note_on_c, 2, 84, 92
3, 15550, Note_on_c, 2, 84, 0
3, 15552, Note_on_c, 2, 82, 92
3, 15646, Note_on_c, 2, 82, 0
3, 15648, Note_on_c, 2, 81, 92
3, 15742, Note_on_c, 2, 81, 0
3, 15744, Note_on_c, 2, 84, 92
3, 15838, Note_on_c, 2, 84, 0
3, 15840, Note_on_c, 2, 81, 92
3, 15934, Note_on_c, 2, 81, 0
3, 15936, Note_on_c, 2, 79, 92
3, 16030, Note_on_c, 2, 79, 0
3, 16128, Note_on_c, 2, 86, 92
3, 16222, Note_on_c, 2, 86, 0
3, 16224, Note_on_c, 2, 84, 92
3, 16318, Note_on_c, 2, 84, 0
3, 16320, Note_on_c, 2, 86, 92
3, 16480, Note_on_c, 2, 86, 0
3, 16704, Note_on_c, 2, 77, 92
3, 16798, Note_on_c, 2, 77, 0
3, 16800, Note_on_c, 2, 79, 92
3, 16894, Note_on_c, 2, 79, 0
3, 16896, Note_on_c, 2, 81, 92
3, 16990, Note_on_c, 2, 81, 0
3, 17280, Note_on_c, 2, 86, 92
3, 17374, Note_on_c, 2, 86, 0
3, 17376, Note_on_c, 2, 84, 92
3, 17470, Note_on_c, 2, 84, 0
3, 17472, Note_on_c, 2, 86, 92
3, 17632, Note_on_c, 2, 86, 0
3, 17856, Note_on_c, 2, 86, 92
3, 17950, Note_on_c, 2, 86, 0
3, 17952, Note_on_c, 2, 84, 92
3, 18046, Note_on_c, 2, 84, 0
3, 18048, Note_on_c, 2, 82, 92
3, 18142, Note_on_c, 2, 82, 0
3, 18144, Note_on_c, 2, 81, 92
3, 18238, Note_on_c, 2, 81, 0
3, 18240, Note_on_c, 2, 84, 92
3, 18334, Note_on_c, 2, 84, 0
3, 18336, Note_on_c, 2, 81, 92
3, 18430, Note_on_c, 2, 81, 0
3, 18432, Note_on_c, 2, 79, 92
3, 18526, Note_on_c, 2, 79, 0
3, 18624, Note_on_c, 2, 86, 92
3, 18718, Note_on_c, 2, 86, 0
3, 18720, Note_on_c, 2, 84, 92
3, 18814, Note_on_c, 2, 84, 0
3, 18816, Note_on_c, 2, 86, 92
3, 18976, Note_on_c, 2, 86, 0
3, 19200, Note_on_c, 2, 77, 92
3, 19294, Note_on_c, 2, 77, 0
3, 19296, Note_on_c, 2, 79, 92
3, 19390, Note_on_c, 2, 79, 0
3, 19392, Note_on_c, 2, 81, 92
3, 19486, Note_on_c, 2, 81, 0
3, 19776, Note_on_c, 2, 86, 92
3, 19870, Note_on_c, 2, 86, 0
3, 19872, Note_on_c, 2, 84, 92
3, 19966, Note_on_c, 2, 84, 0
3, 19968, Note_on_c, 2, 86, 92
3, 20128, Note_on_c, 2, 86, 0
3, 20352, Note_on_c, 2, 86, 92
3, 20446, Note_on_c, 2, 86, 0
3, 20448, Note_on_c, 2, 84, 92
3, 20542, Note_on_c, 2, 84, 0
3, 20544, Note_on_c, 2, 82, 92
3, 20638, Note_on_c, 2, 82, 0
3, 20640, Note_on_c, 2, 81, 92
3, 20734, Note_on_c, 2, 81, 0
3, 20736, Note_on_c, 2, 84, 92
3, 20830, Note_on_c, 2, 84, 0
3, 20832, Note_on_c, 2, 81, 92
3, 20926, Note_on_c, 2, 81, 0
3, 20928, Note_on_c, 2, 79, 92
3, 21022, Note_on_c, 2, 79, 0
3, 21120, Note_on_c, 2, 86, 92
3, 21214, Note_on_c, 2, 86, 0
3, 21216, Note_on_c, 2, 84, 92
3, 21310, Note_on_c, 2, 84, 0
3, 21312, Note_on_c, 2, 86, 92
3, 21472, Note_on_c, 2, 86, 0
3, 21696, Note_on_c, 2, 77, 92
3, 21790, Note_on_c, 2, 77, 0
3, 21792, Note_on_c, 2, 79, 92
3, 21886, Note_on_c, 2, 79, 0
3, 21888, Note_on_c, 2, 81, 92
3, 21982, Note_on_c, 2, 81, 0
3, 22272, Note_on_c, 2, 86, 92
3, 22366, Note_on_c, 2, 86, 0
3, 22368, Note_on_c, 2, 84, 92
3, 22462, Note_on_c, 2, 84, 0
3, 22464, Note_on_c, 2, 86, 92
3, 22624, Note_on_c, 2, 86, 0
3, 22848, Note_on_c, 2, 86, 92
3, 22942, Note_on_c, 2, 86, 0
3, 22944, Note_on_c, 2, 84, 92
3, 23038, Note_on_c, 2, 84, 0
3, 23040, Note_on_c, 2, 82, 92
3, 23134, Note_on_c, 2, 82, 0
3, 23136, Note_on_c, 2, 81, 92
3, 23230, Note_on_c, 2, 81, 0
3, 23232, Note_on_c, 2, 84, 92
3, 23326, Note_on_c, 2, 84, 0
3, 23328, Note_on_c, 2, 81, 92
3, 23422, Note_on_c, 2, 81, 0
3, 23424, Note_on_c, 2, 79, 92
3, 23518, Note_on_c, 2, 79, 0
3, 23616, Note_on_c, 2, 86, 92
3, 23710, Note_on_c, 2, 86, 0
3, 23712, Note_on_c, 2, 84, 92
3, 23806, Note_on_c, 2, 84, 0
3, 23808, Note_on_c, 2, 86, 92
3, 23968, Note_on_c, 2, 86, 0
3, 24192, Note_on_c, 2, 77, 92
3, 24286, Note_on_c, 2, 77, 0
3, 24288, Note_on_c, 2, 79, 92
3, 24382, Note_on_c, 2, 79, 0
3, 24384, Note_on_c, 2, 81, 92
3, 24478, Note_on_c, 2, 81, 0
3, 24768, Note_on_c, 2, 86, 92
3, 24862, Note_on_c, 2, 86, 0
3, 24864, Note_on_c, 2, 84, 92
3, 24958, Note_on_c, 2, 84, 0
3, 24960, Note_on_c, 2, 86, 92
3, 25120, Note_on_c, 2, 86, 0
3, 25344, Note_on_c, 2, 86, 92
3, 25438, Note_on_c, 2, 86, 0
3, 25440, Note_on_c, 2, 84, 92
3, 25534, Note_on_c, 2, 84, 0
3, 25536, Note_on_c, 2, 82, 92
3, 25630, Note_on_c, 2, 82, 0
3, 25632, Note_on_c, 2, 81, 92
3, 25726, Note_on_c, 2, 81, 0
3, 25728, Note_on_c, 2, 84, 92
3, 25822, Note_on_c, 2, 84, 0
3, 25824, Note_on_c, 2, 81, 92
3, 25918, Note_on_c, 2, 81, 0
3, 25920, Note_on_c, 2, 79, 92
3, 26014, Note_on_c, 2, 79, 0
3, 26112, Note_on_c, 2, 86, 92
3, 26206, Note_on_c, 2, 86, 0
3, 26208, Note_on_c, 2, 84, 92
3, 26302, Note_on_c, 2, 84, 0
3, 26304, Note_on_c, 2, 86, 92
3, 26464, Note_on_c, 2, 86, 0
3, 26688, Note_on_c, 2, 77, 92
3, 26782, Note_on_c, 2, 77, 0
3, 26784, Note_on_c, 2, 79, 92
3, 26878, Note_on_c, 2, 79, 0
3, 26880, Note_on_c, 2, 81, 92
3, 26974, Note_on_c, 2, 81, 0
3, 27264, Note_on_c, 2, 86, 92
3, 27358, Note_on_c, 2, 86, 0
3, 27360, Note_on_c, 2, 84, 92
3, 27454, Note_on_c, 2, 84, 0
3, 27456, Note_on_c, 2, 86, 92
3, 27616, Note_on_c, 2, 86, 0
3, 27840, Note_on_c, 2, 86, 92
3, 27934, Note_on_c, 2, 86, 0
3, 27936, Note_on_c, 2, 84, 92
3, 28030, Note_on_c, 2, 84, 0
3, 28032, Note_on_c, 2, 82, 92
3, 28126, Note_on_c, 2, 82, 0
3, 28128, Note_on_c, 2, 81, 92
3, 28222, Note_on_c, 2, 81, 0
3, 28224, Note_on_c, 2, 84, 92
3, 28318, Note_on_c, 2, 84, 0
3, 28320, Note_on_c, 2, 81, 92
3, 28414, Note_on_c, 2, 81, 0
3, 28416, Note_on_c, 2, 79, 92
3, 28510, Note_on_c, 2, 79, 0
3, 28608, Note_on_c, 2, 86, 92
3, 28702, Note_on_c, 2, 86, 0
3, 28704, Note_on_c, 2, 84, 92
3, 28798, Note_on_c, 2, 84, 0
3, 28800, Note_on_c, 2, 86, 92
3, 28960, Note_on_c, 2, 86, 0
3, 29184, Note_on_c, 2, 77, 92
3, 29278, Note_on_c, 2, 77, 0
3, 29280, Note_on_c, 2, 79, 92
3, 29374, Note_on_c, 2, 79, 0
3, 29376, Note_on_c, 2, 81, 92
3, 29470, Note_on_c, 2, 81, 0
3, 29760, Note_on_c, 2, 86, 92
3, 29854, Note_on_c, 2, 86, 0
3, 29856, Note_on_c, 2, 84, 92
3, 29950, Note_on_c, 2, 84, 0
3, 29952, Note_on_c, 2, 86, 92
3, 30112, Note_on_c, 2, 86, 0
3, 30336, Note_on_c, 2, 86, 92
3, 30430, Note_on_c, 2, 86, 0
3, 30432, Note_on_c, 2, 84, 92
3, 30526, Note_on_c, 2, 84, 0
3, 30528, Note_on_c, 2, 82, 92
3, 30622, Note_on_c, 2, 82, 0
3, 30624, Note_on_c, 2, 81, 92
3, 30718, Note_on_c, 2, 81, 0
3, 30720, Note_on_c, 2, 84, 92
3, 30814, Note_on_c, 2, 84, 0
3, 30816, Note_on_c, 2, 81, 92
3, 30910, Note_on_c, 2, 81, 0
3, 30912, Note_on_c, 2, 79, 92
3, 31248, Note_on_c, 2, 79, 0
3, 43008, Note_on_c, 2, 65, 92
3, 43168, Note_on_c, 2, 65, 0
3, 43200, Note_on_c, 2, 66, 92
3, 43728, Note_on_c, 2, 66, 0
3, 43776, Note_on_c, 2, 67, 92
3, 44304, Note_on_c, 2, 67, 0
3, 44352, Note_on_c, 2, 69, 92
3, 44688, Note_on_c, 2, 69, 0
3, 44736, Note_on_c, 2, 74, 92
3, 45456, Note_on_c, 2, 74, 0
3, 45504, Note_on_c, 2, 71, 92
3, 45760, Note_on_c, 2, 71, 0
3, 45792, Note_on_c, 2, 69, 92
3, 45886, Note_on_c, 2, 69, 0
3, 45888, Note_on_c, 2, 67, 92
3, 46048, Note_on_c, 2, 67, 0
3, 46080, Note_on_c, 2, 64, 92
3, 46992, Note_on_c, 2, 64, 0
3, 47040, Note_on_c, 2, 67, 92
3, 47134, Note_on_c, 2, 67, 0
3, 47136, Note_on_c, 2, 67, 92
3, 47230, Note_on_c, 2, 67, 0
3, 47232, Note_on_c, 2, 67, 92
3, 47392, Note_on_c, 2, 67, 0
3, 47424, Note_on_c, 2, 67, 92
3, 47584, Note_on_c, 2, 67, 0
3, 47616, Note_on_c, 2, 72, 92
3, 48144, Note_on_c, 2, 72, 0
3, 48192, Note_on_c, 2, 69, 92
3, 48352, Note_on_c, 2, 69, 0
3, 48384, Note_on_c, 2, 67, 92
3, 48544, Note_on_c, 2, 67, 0
3, 48576, Note_on_c, 2, 66, 92
3, 48736, Note_on_c, 2, 66, 0
3, 48768, Note_on_c, 2, 66, 92
3, 48862, Note_on_c, 2, 66, 0
3, 48864, Note_on_c, 2, 67, 92
3, 48958, Note_on_c, 2, 67, 0
3, 48960, Note_on_c, 2, 69, 92
3, 49120, Note_on_c, 2, 69, 0
3, 49152, Note_on_c, 2, 67, 92
3, 49312, Note_on_c, 2, 67, 0
3, 49344, Note_on_c, 2, 67, 92
3, 49438, Note_on_c, 2, 67, 0
3, 49440, Note_on_c, 2, 69, 92
3, 49534, Note_on_c, 2, 69, 0
3, 49536, Note_on_c, 2, 70, 92
3, 49696, Note_on_c, 2, 70, 0
3, 49728, Note_on_c, 2, 72, 92
3, 49888, Note_on_c, 2, 72, 0
3, 49920, Note_on_c, 2, 65, 92
3, 50080, Note_on_c, 2, 65, 0
3, 50112, Note_on_c, 2, 67, 92
3, 51040, Note_on_c, 2, 67, 0
3, 53760, Note_on_c, 2, 86, 92
3, 53854, Note_on_c, 2, 86, 0
3, 53856, Note_on_c, 2, 84, 92
3, 53950, Note_on_c, 2, 84, 0
3, 53952, Note_on_c, 2, 86, 92
3, 54112, Note_on_c, 2, 86, 0
3, 54336, Note_on_c, 2, 86, 92
3, 54430, Note_on_c, 2, 86, 0
3, 54432, Note_on_c, 2, 84, 92
3, 54526, Note_on_c, 2, 84, 0
3, 54528, Note_on_c, 2, 82, 92
3, 54622, Note_on_c, 2, 82, 0
3, 54624, Note_on_c, 2, 81, 92
3, 54718, Note_on_c, 2, 81, 0
3, 54720, Note_on_c, 2, 84, 92
3, 54814, Note_on_c, 2, 84, 0
3, 54816, Note_on_c, 2, 81, 92
3, 54910, Note_on_c, 2, 81, 0
3, 54912, Note_on_c, 2, 79, 92
3, 55006, Note_on_c, 2, 79, 0
3, 55104, Note_on_c, 2, 86, 92
3, 55198, Note_on_c, 2, 86, 0
3, 55200, Note_on_c, 2, 84, 92
3, 55294, Note_on_c, 2, 84, 0
3, 55296, Note_on_c, 2, 86, 92
3, 55456, Note_on_c, 2, 86, 0
3, 55680, Note_on_c, 2, 77, 92
3, 55774, Note_on_c, 2, 77, 0
3, 55776, Note_on_c, 2, 79, 92
3, 55870, Note_on_c, 2, 79, 0
3, 55872, Note_on_c, 2, 81, 92
3, 55966, Note_on_c, 2, 81, 0
3, 56256, Note_on_c, 2, 86, 92
3, 56350, Note_on_c, 2, 86, 0
3, 56352, Note_on_c, 2, 84, 92
3, 56446, Note_on_c, 2, 84, 0
3, 56448, Note_on_c, 2, 86, 92
3, 56608, Note_on_c, 2, 86, 0
3, 56832, Note_on_c, 2, 86, 92
3, 56926, Note_on_c, 2, 86, 0
3, 56928, Note_on_c, 2, 84, 92
3, 57022, Note_on_c, 2, 84, 0
3, 57024, Note_on_c, 2, 82, 92
3, 57118, Note_on_c, 2, 82, 0
3, 57120, Note_on_c, 2, 81, 92
3, 57214, Note_on_c, 2, 81, 0
3, 57216, Note_on_c, 2, 84, 92
3, 57310, Note_on_c, 2, 84, 0
3, 57312, Note_on_c, 2, 81, 92
3, 57406, Note_on_c, 2, 81, 0
3, 57408, Note_on_c, 2, 79, 92
3, 57502, Note_on_c, 2, 79, 0
3, 57600, Note_on_c, 2, 86, 92
3, 57694, Note_on_c, 2, 86, 0
3, 57696, Note_on_c, 2, 84, 92
3, 57790, Note_on_c, 2, 84, 0
3, 57792, Note_on_c, 2, 86, 92
3, 57952, Note_on_c, 2, 86, 0
3, 58176, Note_on_c, 2, 77, 92
3, 58270, Note_on_c, 2, 77, 0
3, 58272, Note_on_c, 2, 79, 92
3, 58366, Note_on_c, 2, 79, 0
3, 58368, Note_on_c, 2, 81, 92
3, 58462, Note_on_c, 2, 81, 0
3, 58752, Note_on_c, 2, 86, 92
3, 58846, Note_on_c, 2, 86, 0
3, 58848, Note_on_c, 2, 84, 92
3, 58942, Note_on_c, 2, 84, 0
3, 58944, Note_on_c, 2, 86, 92
3, 59104, Note_on_c, 2, 86, 0
3, 59328, Note_on_c, 2, 86, 92
3, 59422, Note_on_c, 2, 86, 0
3, 59424, Note_on_c, 2, 84, 92
3, 59518, Note_on_c, 2, 84, 0
3, 59520, Note_on_c, 2, 82, 92
3, 59614, Note_on_c, 2, 82, 0
3, 59616, Note_on_c, 2, 81, 92
3, 59710, Note_on_c, 2, 81, 0
3, 59712, Note_on_c, 2, 84, 92
3, 59806, Note_on_c, 2, 84, 0
3, 59808, Note_on_c, 2, 81, 92
3, 59902, Note_on_c, 2, 81, 0
3, 59904, Note_on_c, 2, 79, 92
3, 61200, Note_on_c, 2, 79, 0
3, 101952, Note_on_c, 2, 75, 92
3, 102014, Note_on_c, 2, 75, 0
3, 102016, Note_on_c, 2, 77, 92
3, 102078, Note_on_c, 2, 77, 0
3, 102080, Note_on_c, 2, 75, 92
3, 102142, Note_on_c, 2, 75, 0
3, 102144, Note_on_c, 2, 77, 92
3, 102206, Note_on_c, 2, 77, 0
3, 102208, Note_on_c, 2, 75, 92
3, 102270, Note_on_c, 2, 75, 0
3, 102272, Note_on_c, 2, 77, 92
3, 102334, Note_on_c, 2, 77, 0
3, 102336, Note_on_c, 2, 75, 92
3, 102398, Note_on_c, 2, 75, 0
3, 102400, Note_on_c, 2, 77, 92
3, 102462, Note_on_c, 2, 77, 0
3, 102464, Note_on_c, 2, 75, 92
3, 102526, Note_on_c, 2, 75, 0
3, 102528, Note_on_c, 2, 77, 92
3, 102590, Note_on_c, 2, 77, 0
3, 102592, Note_on_c, 2, 75, 92
3, 102654, Note_on_c, 2, 75, 0
3, 102656, Note_on_c, 2, 77, 92
3, 102718, Note_on_c, 2, 77, 0
3, 103488, Note_on_c, 2, 75, 92
3, 103550, Note_on_c, 2, 75, 0
3, 103552, Note_on_c, 2, 77, 92
3, 103614, Note_on_c, 2, 77, 0
3, 103616, Note_on_c, 2, 75, 92
3, 103678, Note_on_c, 2, 75, 0
3, 103680, Note_on_c, 2, 77, 92
3, 103742, Note_on_c, 2, 77, 0
3, 103744, Note_on_c, 2, 75, 92
3, 103806, Note_on_c, 2, 75, 0
3, 103808, Note_on_c, 2, 77, 92
3, 103870, Note_on_c, 2, 77, 0
3, 103872, Note_on_c, 2, 75, 92
3, 103934, Note_on_c, 2, 75, 0
3, 103936, Note_on_c, 2, 77, 92
3, 103998, Note_on_c, 2, 77, 0
3, 104000, Note_on_c, 2, 75, 92
3, 104062, Note_on_c, 2, 75, 0
3, 104064, Note_on_c, 2, 77, 92
3, 104126, Note_on_c, 2, 77, 0
3, 104128, Note_on_c, 2, 75, 92
3, 104190, Note_on_c, 2, 75, 0
3, 104192, Note_on_c, 2, 77, 92
3, 104254, Note_on_c, 2, 77, 0
3, 105024, Note_on_c, 2, 75, 92
3, 105086, Note_on_c, 2, 75, 0
3, 105088, Note_on_c, 2, 77, 92
3, 105150, Note_on_c, 2, 77, 0
3, 105152, Note_on_c, 2, 75, 92
3, 105214, Note_on_c, 2, 75, 0
3, 105216, Note_on_c, 2, 77, 92
3, 105278, Note_on_c, 2, 77, 0
3, 105280, Note_on_c, 2, 75, 92
3, 105342, Note_on_c, 2, 75, 0
3, 105344, Note_on_c, 2, 77, 92
3, 105406, Note_on_c, 2, 77, 0
3, 105408, Note_on_c, 2, 75, 92
3, 105470, Note_on_c, 2, 75, 0
3, 105472, Note_on_c, 2, 77, 92
3, 105534, Note_on_c, 2, 77, 0
3, 105536, Note_on_c, 2, 75, 92
3, 105598, Note_on_c, 2, 75, 0
3, 105600, Note_on_c, 2, 77, 92
3, 105662, Note_on_c, 2, 77, 0
3, 105664, Note_on_c, 2, 75, 92
3, 105726, Note_on_c, 2, 75, 0
3, 105728, Note_on_c, 2, 77, 92
3, 105790, Note_on_c, 2, 77, 0
3, 106560, Note_on_c, 2, 75, 92
3, 106720, Note_on_c, 2, 75, 0
3, 106752, Note_on_c, 2, 75, 92
3, 106846, Note_on_c, 2, 75, 0
3, 106848, Note_on_c, 2, 77, 92
3, 106942, Note_on_c, 2, 77, 0
3, 106944, Note_on_c, 2, 78, 92
3, 107038, Note_on_c, 2, 78, 0
3, 107328, Note_on_c, 2, 73, 92
3, 107376, Note_on_c, 2, 73, 0
3, 107712, Note_on_c, 2, 75, 92
3, 107806, Note_on_c, 2, 75, 0
3, 107808, Note_on_c, 2, 77, 92
3, 107902, Note_on_c, 2, 77, 0
3, 107904, Note_on_c, 2, 75, 92
3, 107998, Note_on_c, 2, 75, 0
3, 108288, Note_on_c, 2, 82, 92
3, 108336, Note_on_c, 2, 82, 0
3, 108480, Note_on_c, 2, 82, 92
3, 108528, Note_on_c, 2, 82, 0
3, 108864, Note_on_c, 2, 75, 92
3, 108958, Note_on_c, 2, 75, 0
3, 108960, Note_on_c, 2, 77, 92
3, 109054, Note_on_c, 2, 77, 0
3, 109056, Note_on_c, 2, 78, 92
3, 109150, Note_on_c, 2, 78, 0
3, 109440, Note_on_c, 2, 82, 92
3, 109488, Note_on_c, 2, 82, 0
3, 110208, Note_on_c, 2, 70, 92
3, 110256, Note_on_c, 2, 70, 0
3, 110400, Note_on_c, 2, 70, 92
3, 110448, Note_on_c, 2, 70, 0
3, 110592, Note_on_c, 2, 70, 92
3, 110640, Note_on_c, 2, 70, 0
3, 110976, Note_on_c, 2, 72, 92
3, 111136, Note_on_c, 2, 72, 0
3, 111168, Note_on_c, 2, 76, 92
3, 111328, Note_on_c, 2, 76, 0
3, 111360, Note_on_c, 2, 79, 92
3, 111712, Note_on_c, 2, 79, 0
3, 111744, Note_on_c, 2, 84, 92
3, 111904, Note_on_c, 2, 84, 0
3, 111936, Note_on_c, 2, 82, 92
3, 111968, Note_on_c, 2, 82, 0
3, 112032, Note_on_c, 2, 81, 92
3, 112064, Note_on_c, 2, 81, 0
3, 112128, Note_on_c, 2, 79, 92
3, 112222, Note_on_c, 2, 79, 0
3, 112320, Note_on_c, 2, 84, 92
3, 112320, Note_on_c, 2, 88, 92
3, 112656, Note_on_c, 2, 84, 0
3, 112656, Note_on_c, 2, 88, 0
3, 112704, Note_on_c, 2, 82, 92
3, 112798, Note_on_c, 2, 82, 0
3, 112800, Note_on_c, 2, 81, 92
3, 112894, Note_on_c, 2, 81, 0
3, 112896, Note_on_c, 2, 79, 92
3, 112990, Note_on_c, 2, 79, 0
3, 113088, Note_on_c, 2, 82, 92
3, 113248, Note_on_c, 2, 82, 0
3, 113280, Note_on_c, 2, 81, 92
3, 113328, Note_on_c, 2, 81, 0
3, 113472, Note_on_c, 2, 77, 92
3, 113632, Note_on_c, 2, 77, 0
3, 113664, Note_on_c, 2, 79, 92
3, 113824, Note_on_c, 2, 79, 0
3, 114048, Note_on_c, 2, 72, 92
3, 114208, Note_on_c, 2, 72, 0
3, 114240, Note_on_c, 2, 76, 92
3, 114496, Note_on_c, 2, 76, 0
3, 114528, Note_on_c, 2, 77, 92
3, 114622, Note_on_c, 2, 77, 0
3, 114624, Note_on_c, 2, 79, 92
3, 114784, Note_on_c, 2, 79, 0
3, 114816, Note_on_c, 2, 77, 92
3, 114910, Note_on_c, 2, 77, 0
3, 114912, Note_on_c, 2, 76, 92
3, 115006, Note_on_c, 2, 76, 0
3, 115008, Note_on_c, 2, 74, 92
3, 115102, Note_on_c, 2, 74, 0
3, 115104, Note_on_c, 2, 72, 92
3, 115198, Note_on_c, 2, 72, 0
3, 115200, Note_on_c, 2, 70, 92
3, 115294, Note_on_c, 2, 70, 0
3, 115392, Note_on_c, 2, 72, 92
3, 115552, Note_on_c, 2, 72, 0
3, 115584, Note_on_c, 2, 76, 92
3, 115678, Note_on_c, 2, 76, 0
3, 115680, Note_on_c, 2, 77, 92
3, 115774, Note_on_c, 2, 77, 0
3, 115776, Note_on_c, 2, 79, 92
3, 115936, Note_on_c, 2, 79, 0
3, 115968, Note_on_c, 2, 77, 92
3, 116062, Note_on_c, 2, 77, 0
3, 116064, Note_on_c, 2, 76, 92
3, 116158, Note_on_c, 2, 76, 0
3, 116160, Note_on_c, 2, 74, 92
3, 116320, Note_on_c, 2, 74, 0
3, 116352, Note_on_c, 2, 72, 92
3, 116512, Note_on_c, 2, 72, 0
3, 116544, Note_on_c, 2, 70, 92
3, 116638, Note_on_c, 2, 70, 0
3, 116640, Note_on_c, 2, 72, 92
3, 116734, Note_on_c, 2, 72, 0
3, 116736, Note_on_c, 2, 70, 92
3, 116830, Note_on_c, 2, 70, 0
3, 116832, Note_on_c, 2, 69, 92
3, 116926, Note_on_c, 2, 69, 0
3, 116928, Note_on_c, 2, 67, 92
3, 116928, Note_on_c, 2, 84, 92
3, 117264, Note_on_c, 2, 67, 0
3, 117264, Note_on_c, 2, 84, 0
3, 117312, Note_on_c, 2, 88, 92
3, 117472, Note_on_c, 2, 88, 0
3, 117504, Note_on_c, 2, 89, 92
3, 117664, Note_on_c, 2, 89, 0
3, 117696, Note_on_c, 2, 86, 92
3, 117856, Note_on_c, 2, 86, 0
3, 117888, Note_on_c, 2, 72, 92
3, 117888, Note_on_c, 2, 84, 92
3, 117982, Note_on_c, 2, 72, 0
3, 117984, Note_on_c, 2, 72, 92
3, 118078, Note_on_c, 2, 72, 0
3, 118080, Note_on_c, 2, 72, 92
3, 118174, Note_on_c, 2, 72, 0
3, 118224, Note_on_c, 2, 84, 0
3, 118272, Note_on_c, 2, 91, 92
3, 118432, Note_on_c, 2, 91, 0
3, 118464, Note_on_c, 2, 89, 92
3, 118624, Note_on_c, 2, 89, 0
3, 118656, Note_on_c, 2, 86, 92
3, 118816, Note_on_c, 2, 86, 0
3, 118848, Note_on_c, 2, 72, 92
3, 118848, Note_on_c, 2, 84, 92
3, 118942, Note_on_c, 2, 72, 0
3, 118944, Note_on_c, 2, 72, 92
3, 119038, Note_on_c, 2, 72, 0
3, 119040, Note_on_c, 2, 72, 92
3, 119040, Note_on_c, 2, 84, 92
3, 119134, Note_on_c, 2, 72, 0
3, 119184, Note_on_c, 2, 84, 0
3, 119200, Note_on_c, 2, 84, 0
3, 119232, Note_on_c, 2, 82, 92
3, 119232, Note_on_c, 2, 91, 92
3, 119326, Note_on_c, 2, 82, 0
3, 119328, Note_on_c, 2, 81, 92
3, 119392, Note_on_c, 2, 91, 0
3, 119422, Note_on_c, 2, 81, 0
3, 119424, Note_on_c, 2, 79, 92
3, 119424, Note_on_c, 2, 89, 92
3, 119584, Note_on_c, 2, 79, 0
3, 119584, Note_on_c, 2, 89, 0
3, 119616, Note_on_c, 2, 82, 92
3, 119616, Note_on_c, 2, 86, 92
3, 119776, Note_on_c, 2, 82, 0
3, 119776, Note_on_c, 2, 86, 0
3, 119808, Note_on_c, 2, 76, 92
3, 119904, Note_on_c, 2, 77, 92
3, 119998, Note_on_c, 2, 76, 0
3, 119998, Note_on_c, 2, 77, 0
3, 120000, Note_on_c, 2, 76, 92
3, 120000, Note_on_c, 2, 77, 92
3, 120094, Note_on_c, 2, 76, 0
3, 120096, Note_on_c, 2, 77, 92
3, 120160, Note_on_c, 2, 77, 0
3, 120190, Note_on_c, 2, 77, 0
3, 120192, Note_on_c, 2, 79, 92
3, 120528, Note_on_c, 2, 79, 0
3, 120576, Note_on_c, 2, 77, 92
3, 120670, Note_on_c, 2, 77, 0
3, 120672, Note_on_c, 2, 79, 92
3, 120766, Note_on_c, 2, 79, 0
3, 120768, Note_on_c, 2, 81, 92
3, 121104, Note_on_c, 2, 81, 0
3, 121152, Note_on_c, 2, 86, 92
3, 122064, Note_on_c, 2, 86, 0
3, 122304, Note_on_c, 2, 74, 92
3, 122304, Note_on_c, 2, 81, 92
3, 122464, Note_on_c, 2, 74, 0
3, 122464, Note_on_c, 2, 81, 0
3, 122496, Note_on_c, 2, 74, 92
3, 122544, Note_on_c, 2, 74, 0
3, 122688, Note_on_c, 2, 74, 92
3, 122688, Note_on_c, 2, 86, 92
3, 122848, Note_on_c, 2, 74, 0
3, 122848, Note_on_c, 2, 86, 0
3, 122880, Note_on_c, 2, 74, 92
3, 122880, Note_on_c, 2, 81, 92
3, 123040, Note_on_c, 2, 74, 0
3, 123040, Note_on_c, 2, 81, 0
3, 123264, Note_on_c, 2, 74, 92
3, 123264, Note_on_c, 2, 81, 92
3, 123424, Note_on_c, 2, 74, 0
3, 123424, Note_on_c, 2, 81, 0
3, 123456, Note_on_c, 2, 72, 92
3, 123456, Note_on_c, 2, 79, 92
3, 123616, Note_on_c, 2, 72, 0
3, 123616, Note_on_c, 2, 79, 0
3, 123648, Note_on_c, 2, 78, 92
3, 123808, Note_on_c, 2, 78, 0
3, 124032, Note_on_c, 2, 74, 92
3, 124032, Note_on_c, 2, 86, 92
3, 124192, Note_on_c, 2, 74, 0
3, 124192, Note_on_c, 2, 86, 0
3, 124224, Note_on_c, 2, 78, 92
3, 124224, Note_on_c, 2, 90, 92
3, 124480, Note_on_c, 2, 78, 0
3, 124480, Note_on_c, 2, 90, 0
3, 124512, Note_on_c, 2, 79, 92
3, 124512, Note_on_c, 2, 91, 92
3, 124606, Note_on_c, 2, 79, 0
3, 124606, Note_on_c, 2, 91, 0
3, 124608, Note_on_c, 2, 81, 92
3, 124608, Note_on_c, 2, 93, 92
3, 124768, Note_on_c, 2, 81, 0
3, 124768, Note_on_c, 2, 93, 0
3, 124800, Note_on_c, 2, 79, 92
3, 124800, Note_on_c, 2, 91, 92
3, 124894, Note_on_c, 2, 79, 0
3, 124894, Note_on_c, 2, 91, 0
3, 124896, Note_on_c, 2, 78, 92
3, 124896, Note_on_c, 2, 90, 92
3, 124990, Note_on_c, 2, 78, 0
3, 124990, Note_on_c, 2, 90, 0
3, 124992, Note_on_c, 2, 76, 92
3, 124992, Note_on_c, 2, 88, 92
3, 125086, Note_on_c, 2, 76, 0
3, 125086, Note_on_c, 2, 88, 0
3, 125088, Note_on_c, 2, 74, 92
3, 125088, Note_on_c, 2, 86, 92
3, 125182, Note_on_c, 2, 74, 0
3, 125182, Note_on_c, 2, 86, 0
3, 125184, Note_on_c, 2, 72, 92
3, 125184, Note_on_c, 2, 84, 92
3, 125344, Note_on_c, 2, 72, 0
3, 125344, Note_on_c, 2, 84, 0
3, 125376, Note_on_c, 2, 74, 92
3, 125376, Note_on_c, 2, 86, 92
3, 125536, Note_on_c, 2, 74, 0
3, 125536, Note_on_c, 2, 86, 0
3, 125568, Note_on_c, 2, 78, 92
3, 125568, Note_on_c, 2, 90, 92
3, 125662, Note_on_c, 2, 78, 0
3, 125662, Note_on_c, 2, 90, 0
3, 125664, Note_on_c, 2, 79, 92
3, 125664, Note_on_c, 2, 91, 92
3, 125758, Note_on_c, 2, 79, 0
3, 125758, Note_on_c, 2, 91, 0
3, 125760, Note_on_c, 2, 81, 92
3, 125760, Note_on_c, 2, 93, 92
3, 125920, Note_on_c, 2, 81, 0
3, 125920, Note_on_c, 2, 93, 0
3, 125952, Note_on_c, 2, 79, 92
3, 125952, Note_on_c, 2, 91, 92
3, 126046, Note_on_c, 2, 79, 0
3, 126046, Note_on_c, 2, 91, 0
3, 126048, Note_on_c, 2, 78, 92
3, 126048, Note_on_c, 2, 90, 92
3, 126142, Note_on_c, 2, 78, 0
3, 126142, Note_on_c, 2, 90, 0
3, 126144, Note_on_c, 2, 76, 92
3, 126144, Note_on_c, 2, 88, 92
3, 126304, Note_on_c, 2, 76, 0
3, 126304, Note_on_c, 2, 88, 0
3, 126336, Note_on_c, 2, 74, 92
3, 126336, Note_on_c, 2, 86, 92
3, 126496, Note_on_c, 2, 74, 0
3, 126496, Note_on_c, 2, 86, 0
3, 126528, Note_on_c, 2, 72, 92
3, 126528, Note_on_c, 2, 84, 92
3, 126622, Note_on_c, 2, 72, 0
3, 126622, Note_on_c, 2, 84, 0
3, 126624, Note_on_c, 2, 74, 92
3, 126624, Note_on_c, 2, 86, 92
3, 126718, Note_on_c, 2, 74, 0
3, 126718, Note_on_c, 2, 86, 0
3, 126720, Note_on_c, 2, 72, 92
3, 126720, Note_on_c, 2, 84, 92
3, 126814, Note_on_c, 2, 72, 0
3, 126814, Note_on_c, 2, 84, 0
3, 126816, Note_on_c, 2, 71, 92
3, 126816, Note_on_c, 2, 83, 92
3, 126910, Note_on_c, 2, 71, 0
3, 126910, Note_on_c, 2, 83, 0
3, 126912, Note_on_c, 2, 69, 92
3, 126912, Note_on_c, 2, 81, 92
3, 127440, Note_on_c, 2, 69, 0
3, 127440, Note_on_c, 2, 81, 0
3, 128640, Note_on_c, 2, 79, 92
3, 128800, Note_on_c, 2, 79, 0
3, 128832, Note_on_c, 2, 81, 92
3, 128992, Note_on_c, 2, 81, 0
3, 129024, Note_on_c, 2, 82, 92
3, 129184, Note_on_c, 2, 82, 0
3, 129216, Note_on_c, 2, 82, 92
3, 129278, Note_on_c, 2, 82, 0
3, 129280, Note_on_c, 2, 84, 92
3, 129342, Note_on_c, 2, 84, 0
3, 129344, Note_on_c, 2, 82, 92
3, 129406, Note_on_c, 2, 82, 0
3, 129408, Note_on_c, 2, 84, 92
3, 129470, Note_on_c, 2, 84, 0
3, 129472, Note_on_c, 2, 82, 92
3, 129534, Note_on_c, 2, 82, 0
3, 129536, Note_on_c, 2, 84, 92
3, 129598, Note_on_c, 2, 84, 0
3, 129600, Note_on_c, 2, 82, 92
3, 129662, Note_on_c, 2, 82, 0
3, 129664, Note_on_c, 2, 84, 92
3, 129726, Note_on_c, 2, 84, 0
3, 129728, Note_on_c, 2, 82, 92
3, 129790, Note_on_c, 2, 82, 0
3, 130944, Note_on_c, 2, 77, 92
3, 131104, Note_on_c, 2, 77, 0
3, 131136, Note_on_c, 2, 79, 92
3, 131296, Note_on_c, 2, 79, 0
3, 131328, Note_on_c, 2, 77, 92
3, 131488, Note_on_c, 2, 77, 0
3, 131520, Note_on_c, 2, 86, 92
3, 131582, Note_on_c, 2, 86, 0
3, 131584, Note_on_c, 2, 87, 92
3, 131646, Note_on_c, 2, 87, 0
3, 131648, Note_on_c, 2, 86, 92
3, 131710, Note_on_c, 2, 86, 0
3, 131712, Note_on_c, 2, 87, 92
3, 131774, Note_on_c, 2, 87, 0
3, 131776, Note_on_c, 2, 86, 92
3, 131838, Note_on_c, 2, 86, 0
3, 131840, Note_on_c, 2, 87, 92
3, 131902, Note_on_c, 2, 87, 0
3, 131904, Note_on_c, 2, 86, 92
3, 131966, Note_on_c, 2, 86, 0
3, 131968, Note_on_c, 2, 87, 92
3, 132030, Note_on_c, 2, 87, 0
3, 132032, Note_on_c, 2, 86, 92
3, 132094, Note_on_c, 2, 86, 0
3, 133248, Note_on_c, 2, 75, 92
3, 133408, Note_on_c, 2, 75, 0
3, 133440, Note_on_c, 2, 77, 92
3, 133600, Note_on_c, 2, 77, 0
3, 133632, Note_on_c, 2, 79, 92
3, 133792, Note_on_c, 2, 79, 0
3, 133824, Note_on_c, 2, 91, 92
3, 133886, Note_on_c, 2, 91, 0
3, 133888, Note_on_c, 2, 92, 92
3, 133950, Note_on_c, 2, 92, 0
3, 133952, Note_on_c, 2, 91, 92
3, 134014, Note_on_c, 2, 91, 0
3, 134016, Note_on_c, 2, 92, 92
3, 134078, Note_on_c, 2, 92, 0
3, 134080, Note_on_c, 2, 91, 92
3, 134142, Note_on_c, 2, 91, 0
3, 134144, Note_on_c, 2, 92, 92
3, 134206, Note_on_c, 2, 92, 0
3, 134208, Note_on_c, 2, 91, 92
3, 134270, Note_on_c, 2, 91, 0
3, 134272, Note_on_c, 2, 92, 92
3, 134334, Note_on_c, 2, 92, 0
3, 134336, Note_on_c, 2, 91, 92
3, 134398, Note_on_c, 2, 91, 0
3, 134400, Note_on_c, 2, 78, 92
3, 134560, Note_on_c, 2, 78, 0
3, 134592, Note_on_c, 2, 78, 92
3, 134686, Note_on_c, 2, 78, 0
3, 134688, Note_on_c, 2, 79, 92
3, 134782, Note_on_c, 2, 79, 0
3, 134784, Note_on_c, 2, 81, 92
3, 134944, Note_on_c, 2, 81, 0
3, 134976, Note_on_c, 2, 66, 92
3, 135136, Note_on_c, 2, 66, 0
3, 135168, Note_on_c, 2, 67, 92
3, 135328, Note_on_c, 2, 67, 0
3, 135360, Note_on_c, 2, 69, 92
3, 135520, Note_on_c, 2, 69, 0
3, 135552, Note_on_c, 2, 78, 92
3, 135552, Note_on_c, 2, 90, 92
3, 135712, Note_on_c, 2, 78, 0
3, 135712, Note_on_c, 2, 90, 0
3, 135744, Note_on_c, 2, 78, 92
3, 135744, Note_on_c, 2, 90, 92
3, 135838, Note_on_c, 2, 78, 0
3, 135838, Note_on_c, 2, 90, 0
3, 135840, Note_on_c, 2, 79, 92
3, 135840, Note_on_c, 2, 91, 92
3, 135934, Note_on_c, 2, 79, 0
3, 135934, Note_on_c, 2, 91, 0
3, 135936, Note_on_c, 2, 81, 92
3, 135936, Note_on_c, 2, 93, 92
3, 136096, Note_on_c, 2, 81, 0
3, 136096, Note_on_c, 2, 93, 0
3, 138240, Note_on_c, 2, 79, 92
3, 138288, Note_on_c, 2, 79, 0
3, 138432, Note_on_c, 2, 79, 92
3, 138526, Note_on_c, 2, 79, 0
3, 138528, Note_on_c, 2, 81, 92
3, 138622, Note_on_c, 2, 81, 0
3, 138624, Note_on_c, 2, 82, 92
3, 138672, Note_on_c, 2, 82, 0
3, 138816, Note_on_c, 2, 84, 92
3, 139008, Note_on_c, 2, 84, 0
3, 139008, Note_on_c, 2, 77, 92
3, 139056, Note_on_c, 2, 77, 0
3, 139200, Note_on_c, 2, 86, 92
3, 139360, Note_on_c, 2, 86, 0
3, 139392, Note_on_c, 2, 84, 92
3, 139486, Note_on_c, 2, 84, 0
3, 139488, Note_on_c, 2, 82, 92
3, 139582, Note_on_c, 2, 82, 0
3, 139584, Note_on_c, 2, 81, 92
3, 139630, Note_on_c, 2, 81, 0
3, 139632, Note_on_c, 2, 82, 92
3, 139678, Note_on_c, 2, 82, 0
3, 139680, Note_on_c, 2, 81, 92
3, 139726, Note_on_c, 2, 81, 0
3, 139728, Note_on_c, 2, 79, 92
3, 139774, Note_on_c, 2, 79, 0
3, 139776, Note_on_c, 2, 78, 92
3, 139870, Note_on_c, 2, 78, 0
3, 139872, Note_on_c, 2, 76, 92
3, 139966, Note_on_c, 2, 76, 0
3, 139968, Note_on_c, 2, 78, 92
3, 140128, Note_on_c, 2, 78, 0
3, 140160, Note_on_c, 2, 74, 92
3, 140320, Note_on_c, 2, 74, 0
3, 140352, Note_on_c, 2, 79, 92
3, 140352, Note_on_c, 2, 91, 92
3, 140688, Note_on_c, 2, 79, 0
3, 140688, Note_on_c, 2, 91, 0
3, 140736, Note_on_c, 2, 74, 92
3, 140736, Note_on_c, 2, 86, 92
3, 140784, Note_on_c, 2, 74, 0
3, 140784, Note_on_c, 2, 86, 0
3, 140928, Note_on_c, 2, 79, 92
3, 140928, Note_on_c, 2, 91, 92
3, 141280, Note_on_c, 2, 79, 0
3, 141280, Note_on_c, 2, 91, 0
3, 141312, Note_on_c, 2, 86, 92
3, 141360, Note_on_c, 2, 86, 0
3, 141504, Note_on_c, 2, 89, 92
3, 141840, Note_on_c, 2, 89, 0
3, 141888, Note_on_c, 2, 87, 92
3, 141936, Note_on_c, 2, 87, 0
3, 142080, Note_on_c, 2, 87, 92
3, 142128, Note_on_c, 2, 87, 0
3, 142272, Note_on_c, 2, 87, 92
3, 142320, Note_on_c, 2, 87, 0
3, 142464, Note_on_c, 2, 87, 92
3, 142816, Note_on_c, 2, 87, 0
3, 142848, Note_on_c, 2, 89, 92
3, 143008, Note_on_c, 2, 89, 0
3, 143040, Note_on_c, 2, 86, 92
3, 143062, Note_on_c, 2, 86, 0
3, 143064, Note_on_c, 2, 89, 92
3, 143424, Note_on_c, 2, 70, 92
3, 143424, Note_on_c, 2, 82, 92
3, 143472, Note_on_c, 2, 70, 0
3, 143472, Note_on_c, 2, 82, 0
3, 143808, Note_on_c, 2, 70, 92
3, 143808, Note_on_c, 2, 82, 92
3, 143968, Note_on_c, 2, 70, 0
3, 143968, Note_on_c, 2, 82, 0
3, 144000, Note_on_c, 2, 72, 92
3, 144000, Note_on_c, 2, 84, 92
3, 144352, Note_on_c, 2, 72, 0
3, 144352, Note_on_c, 2, 84, 0
3, 144384, Note_on_c, 2, 70, 92
3, 144384, Note_on_c, 2, 82, 92
3, 144544, Note_on_c, 2, 70, 0
3, 144544, Note_on_c, 2, 82, 0
3, 144576, Note_on_c, 2, 68, 92
3, 144576, Note_on_c, 2, 80, 92
3, 144736, Note_on_c, 2, 68, 0
3, 144736, Note_on_c, 2, 80, 0
3, 144768, Note_on_c, 2, 77, 92
3, 144912, Note_on_c, 2, 89, 0
3, 144928, Note_on_c, 2, 77, 0
3, 144960, Note_on_c, 2, 70, 127
3, 145008, Note_on_c, 2, 70, 0
3, 145152, Note_on_c, 2, 70, 92
3, 145200, Note_on_c, 2, 70, 0
3, 145344, Note_on_c, 2, 70, 92
3, 145392, Note_on_c, 2, 70, 0
3, 145536, Note_on_c, 2, 70, 127
3, 145584, Note_on_c, 2, 70, 0
3, 145728, Note_on_c, 2, 70, 92
3, 145776, Note_on_c, 2, 70, 0
3, 145920, Note_on_c, 2, 70, 92
3, 145968, Note_on_c, 2, 70, 0
3, 146112, Note_on_c, 2, 68, 92
3, 146160, Note_on_c, 2, 68, 0
3, 146304, Note_on_c, 2, 68, 92
3, 146352, Note_on_c, 2, 68, 0
3, 146496, Note_on_c, 2, 89, 92
3, 146832, Note_on_c, 2, 89, 0
3, 146880, Note_on_c, 2, 84, 92
3, 146942, Note_on_c, 2, 84, 0
3, 146944, Note_on_c, 2, 82, 92
3, 147006, Note_on_c, 2, 82, 0
3, 147008, Note_on_c, 2, 80, 92
3, 147070, Note_on_c, 2, 80, 0
3, 147072, Note_on_c, 2, 84, 92
3, 147232, Note_on_c, 2, 84, 0
3, 147264, Note_on_c, 2, 82, 92
3, 147424, Note_on_c, 2, 82, 0
3, 147456, Note_on_c, 2, 80, 92
3, 147616, Note_on_c, 2, 80, 0
3, 147648, Note_on_c, 2, 77, 92
3, 147984, Note_on_c, 2, 77, 0
3, 148032, Note_on_c, 2, 70, 127
3, 148080, Note_on_c, 2, 70, 0
3, 148224, Note_on_c, 2, 70, 92
3, 148272, Note_on_c, 2, 70, 0
3, 148416, Note_on_c, 2, 70, 92
3, 148464, Note_on_c, 2, 70, 0
3, 148608, Note_on_c, 2, 70, 127
3, 148656, Note_on_c, 2, 70, 0
3, 148800, Note_on_c, 2, 70, 92
3, 148848, Note_on_c, 2, 70, 0
3, 148992, Note_on_c, 2, 70, 92
3, 149040, Note_on_c, 2, 70, 0
3, 149184, Note_on_c, 2, 68, 92
3, 149232, Note_on_c, 2, 68, 0
3, 149376, Note_on_c, 2, 68, 92
3, 149424, Note_on_c, 2, 68, 0
3, 178752, Note_on_c, 2, 86, 92
3, 178846, Note_on_c, 2, 86, 0
3, 178848, Note_on_c, 2, 84, 92
3, 178942, Note_on_c, 2, 84, 0
3, 178944, Note_on_c, 2, 86, 92
3, 179280, Note_on_c, 2, 86, 0
3, 179328, Note_on_c, 2, 74, 92
3, 179422, Note_on_c, 2, 74, 0
3, 179424, Note_on_c, 2, 72, 92
3, 179518, Note_on_c, 2, 72, 0
3, 179520, Note_on_c, 2, 70, 92
3, 179614, Note_on_c, 2, 70, 0
3, 179616, Note_on_c, 2, 69, 92
3, 179710, Note_on_c, 2, 69, 0
3, 179712, Note_on_c, 2, 72, 92
3, 179806, Note_on_c, 2, 72, 0
3, 179808, Note_on_c, 2, 69, 92
3, 179902, Note_on_c, 2, 69, 0
3, 179904, Note_on_c, 2, 67, 92
3, 180240, Note_on_c, 2, 67, 0
3, 180480, Note_on_c, 2, 67, 92
3, 180640, Note_on_c, 2, 67, 0
3, 180672, Note_on_c, 2, 69, 92
3, 181008, Note_on_c, 2, 69, 0
3, 181248, Note_on_c, 2, 69, 92
3, 181408, Note_on_c, 2, 69, 0
3, 181440, Note_on_c, 2, 70, 92
3, 181776, Note_on_c, 2, 70, 0
3, 182016, Note_on_c, 2, 72, 92
3, 182176, Note_on_c, 2, 72, 0
3, 182208, Note_on_c, 2, 74, 92
3, 182368, Note_on_c, 2, 74, 0
3, 182400, Note_on_c, 2, 78, 92
3, 182560, Note_on_c, 2, 78, 0
3, 182592, Note_on_c, 2, 79, 92
3, 182928, Note_on_c, 2, 79, 0
3, 194688, Note_on_c, 2, 65, 92
3, 194848, Note_on_c, 2, 65, 0
3, 194880, Note_on_c, 2, 66, 92
3, 195408, Note_on_c, 2, 66, 0
3, 195456, Note_on_c, 2, 67, 92
3, 195984, Note_on_c, 2, 67, 0
3, 196032, Note_on_c, 2, 69, 92
3, 196368, Note_on_c, 2, 69, 0
3, 196416, Note_on_c, 2, 74, 92
3, 197136, Note_on_c, 2, 74, 0
3, 197184, Note_on_c, 2, 71, 92
3, 197440, Note_on_c, 2, 71, 0
3, 197472, Note_on_c, 2, 69, 92
3, 197566, Note_on_c, 2, 69, 0
3, 197568, Note_on_c, 2, 67, 92
3, 197728, Note_on_c, 2, 67, 0
3, 197760, Note_on_c, 2, 64, 92
3, 198672, Note_on_c, 2, 64, 0
3, 198720, Note_on_c, 2, 67, 92
3, 198814, Note_on_c, 2, 67, 0
3, 198816, Note_on_c, 2, 67, 92
3, 198910, Note_on_c, 2, 67, 0
3, 198912, Note_on_c, 2, 67, 92
3, 199072, Note_on_c, 2, 67, 0
3, 199104, Note_on_c, 2, 67, 92
3, 199264, Note_on_c, 2, 67, 0
3, 199296, Note_on_c, 2, 72, 92
3, 199824, Note_on_c, 2, 72, 0
3, 199872, Note_on_c, 2, 69, 92
3, 200032, Note_on_c, 2, 69, 0
3, 200064, Note_on_c, 2, 67, 92
3, 200224, Note_on_c, 2, 67, 0
3, 200256, Note_on_c, 2, 66, 92
3, 200416, Note_on_c, 2, 66, 0
3, 200448, Note_on_c, 2, 66, 92
3, 200542, Note_on_c, 2, 66, 0
3, 200544, Note_on_c, 2, 67, 92
3, 200638, Note_on_c, 2, 67, 0
3, 200640, Note_on_c, 2, 69, 92
3, 200800, Note_on_c, 2, 69, 0
3, 200832, Note_on_c, 2, 67, 92
3, 200992, Note_on_c, 2, 67, 0
3, 201024, Note_on_c, 2, 67, 92
3, 201118, Note_on_c, 2, 67, 0
3, 201120, Note_on_c, 2, 69, 92
3, 201214, Note_on_c, 2, 69, 0
3, 201216, Note_on_c, 2, 70, 92
3, 201376, Note_on_c, 2, 70, 0
3, 201408, Note_on_c, 2, 72, 92
3, 201568, Note_on_c, 2, 72, 0
3, 201600, Note_on_c, 2, 65, 92
3, 201760, Note_on_c, 2, 65, 0
3, 201792, Note_on_c, 2, 67, 92
3, 202720, Note_on_c, 2, 67, 0
3, 205440, Note_on_c, 2, 86, 92
3, 205534, Note_on_c, 2, 86, 0
3, 205536, Note_on_c, 2, 84, 92
3, 205630, Note_on_c, 2, 84, 0
3, 205632, Note_on_c, 2, 86, 92
3, 205792, Note_on_c, 2, 86, 0
3, 206016, Note_on_c, 2, 86, 92
3, 206110, Note_on_c, 2, 86, 0
3, 206112, Note_on_c, 2, 84, 92
3, 206206, Note_on_c, 2, 84, 0
3, 206208, Note_on_c, 2, 82, 92
3, 206302, Note_on_c, 2, 82, 0
3, 206304, Note_on_c, 2, 81, 92
3, 206398, Note_on_c, 2, 81, 0
3, 206400, Note_on_c, 2, 84, 92
3, 206494, Note_on_c, 2, 84, 0
3, 206496, Note_on_c, 2, 81, 92
3, 206590, Note_on_c, 2, 81, 0
3, 206592, Note_on_c, 2, 79, 92
3, 206686, Note_on_c, 2, 79, 0
3, 206784, Note_on_c, 2, 86, 92
3, 206878, Note_on_c, 2, 86, 0
3, 206880, Note_on_c, 2, 84, 92
3, 206974, Note_on_c, 2, 84, 0
3, 206976, Note_on_c, 2, 86, 92
3, 207136, Note_on_c, 2, 86, 0
3, 207360, Note_on_c, 2, 77, 92
3, 207454, Note_on_c, 2, 77, 0
3, 207456, Note_on_c, 2, 79, 92
3, 207550, Note_on_c, 2, 79, 0
3, 207552, Note_on_c, 2, 81, 92
3, 207646, Note_on_c, 2, 81, 0
3, 207936, Note_on_c, 2, 86, 92
3, 208030, Note_on_c, 2, 86, 0
3, 208032, Note_on_c, 2, 84, 92
3, 208126, Note_on_c, 2, 84, 0
3, 208128, Note_on_c, 2, 86, 92
3, 208288, Note_on_c, 2, 86, 0
3, 208512, Note_on_c, 2, 86, 92
3, 208606, Note_on_c, 2, 86, 0
3, 208608, Note_on_c, 2, 84, 92
3, 208702, Note_on_c, 2, 84, 0
3, 208704, Note_on_c, 2, 82, 92
3, 208798, Note_on_c, 2, 82, 0
3, 208800, Note_on_c, 2, 81, 92
3, 208894, Note_on_c, 2, 81, 0
3, 208896, Note_on_c, 2, 84, 92
3, 208990, Note_on_c, 2, 84, 0
3, 208992, Note_on_c, 2, 81, 92
3, 209086, Note_on_c, 2, 81, 0
3, 209088, Note_on_c, 2, 79, 92
3, 209182, Note_on_c, 2, 79, 0
3, 209280, Note_on_c, 2, 86, 92
3, 209374, Note_on_c, 2, 86, 0
3, 209376, Note_on_c, 2, 84, 92
3, 209470, Note_on_c, 2, 84, 0
3, 209472, Note_on_c, 2, 86, 92
3, 209632, Note_on_c, 2, 86, 0
3, 209856, Note_on_c, 2, 77, 92
3, 209950, Note_on_c, 2, 77, 0
3, 209952, Note_on_c, 2, 79, 92
3, 210046, Note_on_c, 2, 79, 0
3, 210048, Note_on_c, 2, 81, 92
3, 210142, Note_on_c, 2, 81, 0
3, 210432, Note_on_c, 2, 86, 92
3, 210526, Note_on_c, 2, 86, 0
3, 210528, Note_on_c, 2, 84, 92
3, 210622, Note_on_c, 2, 84, 0
3, 210624, Note_on_c, 2, 86, 92
3, 210784, Note_on_c, 2, 86, 0
3, 211008, Note_on_c, 2, 86, 92
3, 211102, Note_on_c, 2, 86, 0
3, 211104, Note_on_c, 2, 84, 92
3, 211198, Note_on_c, 2, 84, 0
3, 211200, Note_on_c, 2, 82, 92
3, 211294, Note_on_c, 2, 82, 0
3, 211296, Note_on_c, 2, 81, 92
3, 211390, Note_on_c, 2, 81, 0
3, 211392, Note_on_c, 2, 84, 92
3, 211486, Note_on_c, 2, 84, 0
3, 211488, Note_on_c, 2, 81, 92
3, 211582, Note_on_c, 2, 81, 0
3, 211584, Note_on_c, 2, 79, 92
3, 211678, Note_on_c, 2, 79, 0
3, 211776, Note_on_c, 2, 86, 92
3, 211870, Note_on_c, 2, 86, 0
3, 211872, Note_on_c, 2, 84, 92
3, 211966, Note_on_c, 2, 84, 0
3, 211968, Note_on_c, 2, 86, 92
3, 212128, Note_on_c, 2, 86, 0
3, 212352, Note_on_c, 2, 77, 92
3, 212446, Note_on_c, 2, 77, 0
3, 212448, Note_on_c, 2, 79, 92
3, 212542, Note_on_c, 2, 79, 0
3, 212544, Note_on_c, 2, 81, 92
3, 212638, Note_on_c, 2, 81, 0
3, 212928, Note_on_c, 2, 86, 92
3, 213022, Note_on_c, 2, 86, 0
3, 213024, Note_on_c, 2, 84, 92
3, 213118, Note_on_c, 2, 84, 0
3, 213120, Note_on_c, 2, 86, 92
3, 213280, Note_on_c, 2, 86, 0
3, 213504, Note_on_c, 2, 86, 92
3, 213598, Note_on_c, 2, 86, 0
3, 213600, Note_on_c, 2, 84, 92
3, 213694, Note_on_c, 2, 84, 0
3, 213696, Note_on_c, 2, 82, 92
3, 213790, Note_on_c, 2, 82, 0
3, 213792, Note_on_c, 2, 81, 92
3, 213886, Note_on_c, 2, 81, 0
3, 213888, Note_on_c, 2, 84, 92
3, 213982, Note_on_c, 2, 84, 0
3, 213984, Note_on_c, 2, 81, 92
3, 214078, Note_on_c, 2, 81, 0
3, 214080, Note_on_c, 2, 79, 92
3, 215376, Note_on_c, 2, 79, 0
3, 215376, End_track
4, 0, Start_track
4, 0, MIDI_port, 0
4, 0, Title_t, "Acoustic"
4, 0, Program_c, 3, 25
4, 0, Control_c, 3, 7, 127
4, 0, Control_c, 3, 10, 64
4, 3648, Note_on_c, 3, 55, 110
4, 3808, Note_on_c, 3, 55, 0
4, 3840, Note_on_c, 3, 57, 110
4, 4000, Note_on_c, 3, 57, 0
4, 4032, Note_on_c, 3, 59, 110
4, 4192, Note_on_c, 3, 59, 0
4, 4224, Note_on_c, 3, 60, 110
4, 4480, Note_on_c, 3, 60, 0
4, 4512, Note_on_c, 3, 62, 110
4, 4606, Note_on_c, 3, 62, 0
4, 4608, Note_on_c, 3, 64, 110
4, 4768, Note_on_c, 3, 64, 0
4, 4800, Note_on_c, 3, 60, 110
4, 4960, Note_on_c, 3, 60, 0
4, 4992, Note_on_c, 3, 62, 110
4, 5152, Note_on_c, 3, 62, 0
4, 5184, Note_on_c, 3, 64, 110
4, 5344, Note_on_c, 3, 64, 0
4, 5376, Note_on_c, 3, 59, 110
4, 5536, Note_on_c, 3, 59, 0
4, 5568, Note_on_c, 3, 62, 110
4, 5728, Note_on_c, 3, 62, 0
4, 5760, Note_on_c, 3, 57, 110
4, 6016, Note_on_c, 3, 57, 0
4, 6048, Note_on_c, 3, 59, 110
4, 6142, Note_on_c, 3, 59, 0
4, 6144, Note_on_c, 3, 60, 110
4, 6304, Note_on_c, 3, 60, 0
4, 6336, Note_on_c, 3, 57, 110
4, 6496, Note_on_c, 3, 57, 0
4, 6528, Note_on_c, 3, 55, 110
4, 6688, Note_on_c, 3, 55, 0
4, 6720, Note_on_c, 3, 54, 110
4, 6976, Note_on_c, 3, 54, 0
4, 7008, Note_on_c, 3, 52, 110
4, 7102, Note_on_c, 3, 52, 0
4, 7104, Note_on_c, 3, 50, 110
4, 7264, Note_on_c, 3, 50, 0
4, 7296, Note_on_c, 3, 55, 110
4, 7456, Note_on_c, 3, 55, 0
4, 7488, Note_on_c, 3, 55, 110
4, 7582, Note_on_c, 3, 55, 0
4, 7584, Note_on_c, 3, 57, 110
4, 7678, Note_on_c, 3, 57, 0
4, 7680, Note_on_c, 3, 58, 110
4, 7840, Note_on_c, 3, 58, 0
4, 7872, Note_on_c, 3, 60, 110
4, 8032, Note_on_c, 3, 60, 0
4, 8064, Note_on_c, 3, 53, 110
4, 8224, Note_on_c, 3, 53, 0
4, 8256, Note_on_c, 3, 58, 110
4, 8278, Note_on_c, 3, 58, 0
4, 8280, Note_on_c, 3, 62, 110
4, 8304, Note_on_c, 3, 67, 110
4, 8328, Note_on_c, 3, 58, 110
4, 8976, Note_on_c, 3, 58, 0
4, 8976, Note_on_c, 3, 62, 0
4, 8976, Note_on_c, 3, 67, 0
4, 9024, Note_on_c, 3, 60, 110
4, 9048, Note_on_c, 3, 65, 110
4, 9072, Note_on_c, 3, 69, 110
4, 9744, Note_on_c, 3, 60, 0
4, 9744, Note_on_c, 3, 65, 0
4, 9744, Note_on_c, 3, 69, 0
4, 9792, Note_on_c, 3, 62, 110
4, 9816, Note_on_c, 3, 67, 110
4, 9840, Note_on_c, 3, 70, 110
4, 10320, Note_on_c, 3, 62, 0
4, 10320, Note_on_c, 3, 67, 0
4, 10320, Note_on_c, 3, 70, 0
4, 10944, Note_on_c, 3, 62, 110
4, 10968, Note_on_c, 3, 67, 110
4, 10992, Note_on_c, 3, 70, 110
4, 11664, Note_on_c, 3, 62, 0
4, 11664, Note_on_c, 3, 67, 0
4, 11664, Note_on_c, 3, 70, 0
4, 12288, Note_on_c, 3, 67, 110
4, 12448, Note_on_c, 3, 67, 0
4, 12480, Note_on_c, 3, 67, 110
4, 12574, Note_on_c, 3, 67, 0
4, 12576, Note_on_c, 3, 69, 110
4, 12670, Note_on_c, 3, 69, 0
4, 12672, Note_on_c, 3, 70, 110
4, 12864, Note_on_c, 3, 70, 0
4, 12864, Note_on_c, 3, 72, 110
4, 13024, Note_on_c, 3, 72, 0
4, 13056, Note_on_c, 3, 65, 110
4, 13216, Note_on_c, 3, 65, 0
4, 13248, Note_on_c, 3, 62, 110
4, 13272, Note_on_c, 3, 67, 110
4, 13296, Note_on_c, 3, 70, 110
4, 13438, Note_on_c, 3, 62, 0
4, 13438, Note_on_c, 3, 67, 0
4, 13438, Note_on_c, 3, 70, 0
4, 13440, Note_on_c, 3, 70, 110
4, 13534, Note_on_c, 3, 70, 0
4, 13536, Note_on_c, 3, 69, 110
4, 13630, Note_on_c, 3, 69, 0
4, 13632, Note_on_c, 3, 70, 110
4, 13726, Note_on_c, 3, 70, 0
4, 13824, Note_on_c, 3, 67, 110
4, 13984, Note_on_c, 3, 67, 0
4, 14016, Note_on_c, 3, 70, 110
4, 14110, Note_on_c, 3, 70, 0
4, 14112, Note_on_c, 3, 69, 110
4, 14206, Note_on_c, 3, 69, 0
4, 14208, Note_on_c, 3, 67, 110
4, 14302, Note_on_c, 3, 67, 0
4, 14304, Note_on_c, 3, 65, 110
4, 14398, Note_on_c, 3, 65, 0
4, 14400, Note_on_c, 3, 69, 110
4, 14494, Note_on_c, 3, 69, 0
4, 14496, Note_on_c, 3, 65, 110
4, 14590, Note_on_c, 3, 65, 0
4, 14592, Note_on_c, 3, 55, 110
4, 14752, Note_on_c, 3, 55, 0
4, 14784, Note_on_c, 3, 62, 110
4, 14878, Note_on_c, 3, 62, 0
4, 14880, Note_on_c, 3, 60, 110
4, 14974, Note_on_c, 3, 60, 0
4, 14976, Note_on_c, 3, 62, 110
4, 15136, Note_on_c, 3, 62, 0
4, 15168, Note_on_c, 3, 55, 110
4, 15328, Note_on_c, 3, 55, 0
4, 15360, Note_on_c, 3, 62, 110
4, 15454, Note_on_c, 3, 62, 0
4, 15456, Note_on_c, 3, 60, 110
4, 15550, Note_on_c, 3, 60, 0
4, 15552, Note_on_c, 3, 58, 110
4, 15646, Note_on_c, 3, 58, 0
4, 15648, Note_on_c, 3, 57, 110
4, 15742, Note_on_c, 3, 57, 0
4, 15744, Note_on_c, 3, 60, 110
4, 15838, Note_on_c, 3, 60, 0
4, 15840, Note_on_c, 3, 57, 110
4, 15934, Note_on_c, 3, 57, 0
4, 15936, Note_on_c, 3, 55, 110
4, 16096, Note_on_c, 3, 55, 0
4, 16128, Note_on_c, 3, 67, 110
4, 16222, Note_on_c, 3, 67, 0
4, 16224, Note_on_c, 3, 65, 110
4, 16318, Note_on_c, 3, 65, 0
4, 16320, Note_on_c, 3, 67, 110
4, 16480, Note_on_c, 3, 67, 0
4, 16512, Note_on_c, 3, 55, 110
4, 16672, Note_on_c, 3, 55, 0
4, 16704, Note_on_c, 3, 60, 110
4, 16798, Note_on_c, 3, 60, 0
4, 16800, Note_on_c, 3, 62, 110
4, 16894, Note_on_c, 3, 62, 0
4, 16896, Note_on_c, 3, 65, 110
4, 17056, Note_on_c, 3, 65, 0
4, 17088, Note_on_c, 3, 55, 110
4, 17248, Note_on_c, 3, 55, 0
4, 17280, Note_on_c, 3, 67, 110
4, 17374, Note_on_c, 3, 67, 0
4, 17376, Note_on_c, 3, 65, 110
4, 17470, Note_on_c, 3, 65, 0
4, 17472, Note_on_c, 3, 67, 110
4, 17632, Note_on_c, 3, 67, 0
4, 17664, Note_on_c, 3, 55, 110
4, 17824, Note_on_c, 3, 55, 0
4, 17856, Note_on_c, 3, 62, 110
4, 17950, Note_on_c, 3, 62, 0
4, 17952, Note_on_c, 3, 60, 110
4, 18046, Note_on_c, 3, 60, 0
4, 18048, Note_on_c, 3, 58, 110
4, 18142, Note_on_c, 3, 58, 0
4, 18144, Note_on_c, 3, 57, 110
4, 18238, Note_on_c, 3, 57, 0
4, 18240, Note_on_c, 3, 60, 110
4, 18334, Note_on_c, 3, 60, 0
4, 18336, Note_on_c, 3, 57, 110
4, 18430, Note_on_c, 3, 57, 0
4, 18432, Note_on_c, 3, 55, 110
4, 18592, Note_on_c, 3, 55, 0
4, 18624, Note_on_c, 3, 67, 110
4, 18718, Note_on_c, 3, 67, 0
4, 18720, Note_on_c, 3, 65, 110
4, 18814, Note_on_c, 3, 65, 0
4, 18816, Note_on_c, 3, 67, 110
4, 18976, Note_on_c, 3, 67, 0
4, 19008, Note_on_c, 3, 55, 110
4, 19168, Note_on_c, 3, 55, 0
4, 19200, Note_on_c, 3, 60, 110
4, 19294, Note_on_c, 3, 60, 0
4, 19296, Note_on_c, 3, 62, 110
4, 19390, Note_on_c, 3, 62, 0
4, 19392, Note_on_c, 3, 65, 110
4, 19552, Note_on_c, 3, 65, 0
4, 19584, Note_on_c, 3, 55, 110
4, 19744, Note_on_c, 3, 55, 0
4, 19776, Note_on_c, 3, 67, 110
4, 19870, Note_on_c, 3, 67, 0
4, 19872, Note_on_c, 3, 65, 110
4, 19966, Note_on_c, 3, 65, 0
4, 19968, Note_on_c, 3, 67, 110
4, 20128, Note_on_c, 3, 67, 0
4, 20160, Note_on_c, 3, 55, 110
4, 20320, Note_on_c, 3, 55, 0
4, 20352, Note_on_c, 3, 62, 110
4, 20446, Note_on_c, 3, 62, 0
4, 20448, Note_on_c, 3, 60, 110
4, 20542, Note_on_c, 3, 60, 0
4, 20544, Note_on_c, 3, 58, 110
4, 20638, Note_on_c, 3, 58, 0
4, 20640, Note_on_c, 3, 57, 110
4, 20734, Note_on_c, 3, 57, 0
4, 20736, Note_on_c, 3, 60, 110
4, 20830, Note_on_c, 3, 60, 0
4, 20832, Note_on_c, 3, 57, 110
4, 20926, Note_on_c, 3, 57, 0
4, 20928, Note_on_c, 3, 55, 110
4, 21088, Note_on_c, 3, 55, 0
4, 21120, Note_on_c, 3, 67, 110
4, 21214, Note_on_c, 3, 67, 0
4, 21216, Note_on_c, 3, 65, 110
4, 21310, Note_on_c, 3, 65, 0
4, 21312, Note_on_c, 3, 67, 110
4, 21472, Note_on_c, 3, 67, 0
4, 21504, Note_on_c, 3, 55, 110
4, 21664, Note_on_c, 3, 55, 0
4, 21696, Note_on_c, 3, 60, 110
4, 21790, Note_on_c, 3, 60, 0
4, 21792, Note_on_c, 3, 62, 110
4, 21886, Note_on_c, 3, 62, 0
4, 21888, Note_on_c, 3, 65, 110
4, 22048, Note_on_c, 3, 65, 0
4, 22080, Note_on_c, 3, 55, 110
4, 22240, Note_on_c, 3, 55, 0
4, 22272, Note_on_c, 3, 67, 110
4, 22366, Note_on_c, 3, 67, 0
4, 22368, Note_on_c, 3, 65, 110
4, 22462, Note_on_c, 3, 65, 0
4, 22464, Note_on_c, 3, 67, 110
4, 22624, Note_on_c, 3, 67, 0
4, 22656, Note_on_c, 3, 55, 110
4, 22816, Note_on_c, 3, 55, 0
4, 22848, Note_on_c, 3, 62, 110
4, 22942, Note_on_c, 3, 62, 0
4, 22944, Note_on_c, 3, 60, 110
4, 23038, Note_on_c, 3, 60, 0
4, 23040, Note_on_c, 3, 58, 110
4, 23134, Note_on_c, 3, 58, 0
4, 23136, Note_on_c, 3, 57, 110
4, 23230, Note_on_c, 3, 57, 0
4, 23232, Note_on_c, 3, 60, 110
4, 23326, Note_on_c, 3, 60, 0
4, 23328, Note_on_c, 3, 57, 110
4, 23422, Note_on_c, 3, 57, 0
4, 23424, Note_on_c, 3, 55, 110
4, 23584, Note_on_c, 3, 55, 0
4, 23616, Note_on_c, 3, 67, 110
4, 23710, Note_on_c, 3, 67, 0
4, 23712, Note_on_c, 3, 65, 110
4, 23806, Note_on_c, 3, 65, 0
4, 23808, Note_on_c, 3, 67, 110
4, 23968, Note_on_c, 3, 67, 0
4, 24000, Note_on_c, 3, 55, 110
4, 24160, Note_on_c, 3, 55, 0
4, 24192, Note_on_c, 3, 60, 110
4, 24286, Note_on_c, 3, 60, 0
4, 24288, Note_on_c, 3, 62, 110
4, 24382, Note_on_c, 3, 62, 0
4, 24384, Note_on_c, 3, 65, 110
4, 24544, Note_on_c, 3, 65, 0
4, 24576, Note_on_c, 3, 55, 110
4, 24736, Note_on_c, 3, 55, 0
4, 24768, Note_on_c, 3, 67, 110
4, 24862, Note_on_c, 3, 67, 0
4, 24864, Note_on_c, 3, 65, 110
4, 24958, Note_on_c, 3, 65, 0
4, 24960, Note_on_c, 3, 67, 110
4, 25120, Note_on_c, 3, 67, 0
4, 25152, Note_on_c, 3, 55, 110
4, 25312, Note_on_c, 3, 55, 0
4, 25344, Note_on_c, 3, 62, 110
4, 25438, Note_on_c, 3, 62, 0
4, 25440, Note_on_c, 3, 60, 110
4, 25534, Note_on_c, 3, 60, 0
4, 25536, Note_on_c, 3, 58, 110
4, 25630, Note_on_c, 3, 58, 0
4, 25632, Note_on_c, 3, 57, 110
4, 25726, Note_on_c, 3, 57, 0
4, 25728, Note_on_c, 3, 60, 110
4, 25822, Note_on_c, 3, 60, 0
4, 25824, Note_on_c, 3, 57, 110
4, 25918, Note_on_c, 3, 57, 0
4, 25920, Note_on_c, 3, 55, 110
4, 26080, Note_on_c, 3, 55, 0
4, 26112, Note_on_c, 3, 67, 110
4, 26206, Note_on_c, 3, 67, 0
4, 26208, Note_on_c, 3, 65, 110
4, 26302, Note_on_c, 3, 65, 0
4, 26304, Note_on_c, 3, 67, 110
4, 26464, Note_on_c, 3, 67, 0
4, 26496, Note_on_c, 3, 55, 110
4, 26656, Note_on_c, 3, 55, 0
4, 26688, Note_on_c, 3, 60, 110
4, 26782, Note_on_c, 3, 60, 0
4, 26784, Note_on_c, 3, 62, 110
4, 26878, Note_on_c, 3, 62, 0
4, 26880, Note_on_c, 3, 65, 110
4, 27040, Note_on_c, 3, 65, 0
4, 27072, Note_on_c, 3, 55, 110
4, 27232, Note_on_c, 3, 55, 0
4, 27264, Note_on_c, 3, 67, 110
4, 27358, Note_on_c, 3, 67, 0
4, 27360, Note_on_c, 3, 65, 110
4, 27454, Note_on_c, 3, 65, 0
4, 27456, Note_on_c, 3, 67, 110
4, 27616, Note_on_c, 3, 67, 0
4, 27648, Note_on_c, 3, 55, 110
4, 27808, Note_on_c, 3, 55, 0
4, 27840, Note_on_c, 3, 62, 110
4, 27934, Note_on_c, 3, 62, 0
4, 27936, Note_on_c, 3, 60, 110
4, 28030, Note_on_c, 3, 60, 0
4, 28032, Note_on_c, 3, 58, 110
4, 28126, Note_on_c, 3, 58, 0
4, 28128, Note_on_c, 3, 57, 110
4, 28222, Note_on_c, 3, 57, 0
4, 28224, Note_on_c, 3, 60, 110
4, 28318, Note_on_c, 3, 60, 0
4, 28320, Note_on_c, 3, 57, 110
4, 28414, Note_on_c, 3, 57, 0
4, 28416, Note_on_c, 3, 55, 110
4, 28576, Note_on_c, 3, 55, 0
4, 28608, Note_on_c, 3, 67, 110
4, 28702, Note_on_c, 3, 67, 0
4, 28704, Note_on_c, 3, 65, 110
4, 28798, Note_on_c, 3, 65, 0
4, 28800, Note_on_c, 3, 67, 110
4, 28960, Note_on_c, 3, 67, 0
4, 28992, Note_on_c, 3, 55, 110
4, 29152, Note_on_c, 3, 55, 0
4, 29184, Note_on_c, 3, 60, 110
4, 29278, Note_on_c, 3, 60, 0
4, 29280, Note_on_c, 3, 62, 110
4, 29374, Note_on_c, 3, 62, 0
4, 29376, Note_on_c, 3, 65, 110
4, 29536, Note_on_c, 3, 65, 0
4, 29568, Note_on_c, 3, 55, 110
4, 29728, Note_on_c, 3, 55, 0
4, 29760, Note_on_c, 3, 67, 110
4, 29854, Note_on_c, 3, 67, 0
4, 29856, Note_on_c, 3, 65, 110
4, 29950, Note_on_c, 3, 65, 0
4, 29952, Note_on_c, 3, 67, 110
4, 30112, Note_on_c, 3, 67, 0
4, 30144, Note_on_c, 3, 55, 110
4, 30304, Note_on_c, 3, 55, 0
4, 30336, Note_on_c, 3, 62, 110
4, 30430, Note_on_c, 3, 62, 0
4, 30432, Note_on_c, 3, 60, 110
4, 30526, Note_on_c, 3, 60, 0
4, 30528, Note_on_c, 3, 58, 110
4, 30622, Note_on_c, 3, 58, 0
4, 30624, Note_on_c, 3, 57, 110
4, 30718, Note_on_c, 3, 57, 0
4, 30720, Note_on_c, 3, 60, 110
4, 30814, Note_on_c, 3, 60, 0
4, 30816, Note_on_c, 3, 57, 110
4, 30910, Note_on_c, 3, 57, 0
4, 30912, Note_on_c, 3, 55, 110
4, 30912, Note_on_c, 3, 67, 110
4, 31072, Note_on_c, 3, 67, 0
4, 31104, Note_on_c, 3, 67, 110
4, 31198, Note_on_c, 3, 67, 0
4, 31200, Note_on_c, 3, 69, 110
4, 31248, Note_on_c, 3, 55, 0
4, 31294, Note_on_c, 3, 69, 0
4, 31296, Note_on_c, 3, 70, 110
4, 31456, Note_on_c, 3, 70, 0
4, 31488, Note_on_c, 3, 72, 110
4, 31648, Note_on_c, 3, 72, 0
4, 31680, Note_on_c, 3, 65, 110
4, 31840, Note_on_c, 3, 65, 0
4, 31872, Note_on_c, 3, 60, 110
4, 31872, Note_on_c, 3, 65, 110
4, 32208, Note_on_c, 3, 60, 0
4, 32208, Note_on_c, 3, 65, 0
4, 32256, Note_on_c, 3, 60, 110
4, 32256, Note_on_c, 3, 65, 110
4, 32416, Note_on_c, 3, 60, 0
4, 32416, Note_on_c, 3, 65, 0
4, 32448, Note_on_c, 3, 62, 110
4, 32448, Note_on_c, 3, 66, 110
4, 32704, Note_on_c, 3, 66, 0
4, 32736, Note_on_c, 3, 64, 110
4, 32784, Note_on_c, 3, 62, 0
4, 32830, Note_on_c, 3, 64, 0
4, 32832, Note_on_c, 3, 62, 110
4, 32992, Note_on_c, 3, 62, 0
4, 33024, Note_on_c, 3, 67, 110
4, 33024, Note_on_c, 3, 70, 110
4, 33184, Note_on_c, 3, 70, 0
4, 33216, Note_on_c, 3, 69, 110
4, 33360, Note_on_c, 3, 67, 0
4, 33376, Note_on_c, 3, 69, 0
4, 33408, Note_on_c, 3, 67, 110
4, 33568, Note_on_c, 3, 67, 0
4, 33600, Note_on_c, 3, 66, 110
4, 33600, Note_on_c, 3, 69, 110
4, 33760, Note_on_c, 3, 69, 0
4, 33792, Note_on_c, 3, 66, 110
4, 33886, Note_on_c, 3, 66, 0
4, 33888, Note_on_c, 3, 67, 110
4, 33936, Note_on_c, 3, 66, 0
4, 33982, Note_on_c, 3, 67, 0
4, 33984, Note_on_c, 3, 69, 110
4, 34144, Note_on_c, 3, 69, 0
4, 34176, Note_on_c, 3, 74, 110
4, 34336, Note_on_c, 3, 74, 0
4, 34368, Note_on_c, 3, 67, 110
4, 34528, Note_on_c, 3, 67, 0
4, 34560, Note_on_c, 3, 66, 110
4, 34560, Note_on_c, 3, 69, 110
4, 34720, Note_on_c, 3, 66, 0
4, 34720, Note_on_c, 3, 69, 0
4, 34752, Note_on_c, 3, 67, 110
4, 34752, Note_on_c, 3, 71, 110
4, 35008, Note_on_c, 3, 71, 0
4, 35040, Note_on_c, 3, 72, 110
4, 35134, Note_on_c, 3, 72, 0
4, 35136, Note_on_c, 3, 74, 110
4, 35280, Note_on_c, 3, 67, 0
4, 35296, Note_on_c, 3, 74, 0
4, 35328, Note_on_c, 3, 67, 110
4, 35328, Note_on_c, 3, 72, 110
4, 35584, Note_on_c, 3, 72, 0
4, 35616, Note_on_c, 3, 74, 110
4, 35710, Note_on_c, 3, 74, 0
4, 35712, Note_on_c, 3, 76, 110
4, 35856, Note_on_c, 3, 67, 0
4, 35872, Note_on_c, 3, 76, 0
4, 35904, Note_on_c, 3, 67, 110
4, 35904, Note_on_c, 3, 76, 110
4, 36064, Note_on_c, 3, 76, 0
4, 36096, Note_on_c, 3, 74, 110
4, 36256, Note_on_c, 3, 74, 0
4, 36288, Note_on_c, 3, 72, 110
4, 36432, Note_on_c, 3, 67, 0
4, 36448, Note_on_c, 3, 72, 0
4, 36480, Note_on_c, 3, 67, 110
4, 36480, Note_on_c, 3, 71, 110
4, 36640, Note_on_c, 3, 71, 0
4, 36672, Note_on_c, 3, 74, 110
4, 36816, Note_on_c, 3, 67, 0
4, 36832, Note_on_c, 3, 74, 0
4, 36864, Note_on_c, 3, 65, 110
4, 36864, Note_on_c, 3, 69, 110
4, 37120, Note_on_c, 3, 69, 0
4, 37152, Note_on_c, 3, 70, 110
4, 37246, Note_on_c, 3, 70, 0
4, 37248, Note_on_c, 3, 72, 110
4, 37392, Note_on_c, 3, 65, 0
4, 37408, Note_on_c, 3, 72, 0
4, 37440, Note_on_c, 3, 65, 110
4, 37440, Note_on_c, 3, 69, 110
4, 37600, Note_on_c, 3, 69, 0
4, 37632, Note_on_c, 3, 67, 110
4, 37776, Note_on_c, 3, 65, 0
4, 37792, Note_on_c, 3, 67, 0
4, 37824, Note_on_c, 3, 66, 110
4, 37984, Note_on_c, 3, 66, 0
4, 38016, Note_on_c, 3, 66, 110
4, 38110, Note_on_c, 3, 66, 0
4, 38112, Note_on_c, 3, 67, 110
4, 38206, Note_on_c, 3, 67, 0
4, 38208, Note_on_c, 3, 66, 110
4, 38208, Note_on_c, 3, 69, 110
4, 38368, Note_on_c, 3, 66, 0
4, 38368, Note_on_c, 3, 69, 0
4, 38400, Note_on_c, 3, 55, 110
4, 38400, Note_on_c, 3, 67, 110
4, 38560, Note_on_c, 3, 67, 0
4, 38592, Note_on_c, 3, 67, 110
4, 38686, Note_on_c, 3, 67, 0
4, 38688, Note_on_c, 3, 69, 110
4, 38736, Note_on_c, 3, 55, 0
4, 38782, Note_on_c, 3, 69, 0
4, 38784, Note_on_c, 3, 70, 110
4, 38944, Note_on_c, 3, 70, 0
4, 38976, Note_on_c, 3, 72, 110
4, 39136, Note_on_c, 3, 72, 0
4, 39168, Note_on_c, 3, 65, 110
4, 39328, Note_on_c, 3, 65, 0
4, 39360, Note_on_c, 3, 62, 110
4, 39360, Note_on_c, 3, 67, 110
4, 40288, Note_on_c, 3, 62, 0
4, 40288, Note_on_c, 3, 67, 0
4, 40320, Note_on_c, 3, 55, 110
4, 40480, Note_on_c, 3, 55, 0
4, 40512, Note_on_c, 3, 67, 110
4, 40606, Note_on_c, 3, 67, 0
4, 40608, Note_on_c, 3, 65, 110
4, 40702, Note_on_c, 3, 65, 0
4, 40704, Note_on_c, 3, 67, 110
4, 40864, Note_on_c, 3, 67, 0
4, 40896, Note_on_c, 3, 55, 110
4, 41056, Note_on_c, 3, 55, 0
4, 41088, Note_on_c, 3, 62, 110
4, 41182, Note_on_c, 3, 62, 0
4, 41184, Note_on_c, 3, 60, 110
4, 41278, Note_on_c, 3, 60, 0
4, 41280, Note_on_c, 3, 58, 110
4, 41374, Note_on_c, 3, 58, 0
4, 41376, Note_on_c, 3, 57, 110
4, 41470, Note_on_c, 3, 57, 0
4, 41472, Note_on_c, 3, 60, 110
4, 41566, Note_on_c, 3, 60, 0
4, 41568, Note_on_c, 3, 57, 110
4, 41662, Note_on_c, 3, 57, 0
4, 41664, Note_on_c, 3, 55, 110
4, 41664, Note_on_c, 3, 67, 110
4, 41824, Note_on_c, 3, 67, 0
4, 41856, Note_on_c, 3, 67, 110
4, 41950, Note_on_c, 3, 67, 0
4, 41952, Note_on_c, 3, 69, 110
4, 42000, Note_on_c, 3, 55, 0
4, 42046, Note_on_c, 3, 69, 0
4, 42048, Note_on_c, 3, 70, 110
4, 42208, Note_on_c, 3, 70, 0
4, 42240, Note_on_c, 3, 72, 110
4, 42400, Note_on_c, 3, 72, 0
4, 42432, Note_on_c, 3, 65, 110
4, 42592, Note_on_c, 3, 65, 0
4, 42624, Note_on_c, 3, 60, 110
4, 42624, Note_on_c, 3, 65, 110
4, 42960, Note_on_c, 3, 60, 0
4, 42960, Note_on_c, 3, 65, 0
4, 43008, Note_on_c, 3, 60, 110
4, 43008, Note_on_c, 3, 65, 110
4, 43168, Note_on_c, 3, 60, 0
4, 43168, Note_on_c, 3, 65, 0
4, 43200, Note_on_c, 3, 62, 110
4, 43200, Note_on_c, 3, 66, 110
4, 43456, Note_on_c, 3, 66, 0
4, 43488, Note_on_c, 3, 64, 110
4, 43536, Note_on_c, 3, 62, 0
4, 43582, Note_on_c, 3, 64, 0
4, 43584, Note_on_c, 3, 62, 110
4, 43744, Note_on_c, 3, 62, 0
4, 43776, Note_on_c, 3, 67, 110
4, 43776, Note_on_c, 3, 70, 110
4, 43936, Note_on_c, 3, 70, 0
4, 43968, Note_on_c, 3, 69, 110
4, 44112, Note_on_c, 3, 67, 0
4, 44128, Note_on_c, 3, 69, 0
4, 44160, Note_on_c, 3, 67, 110
4, 44320, Note_on_c, 3, 67, 0
4, 44352, Note_on_c, 3, 66, 110
4, 44352, Note_on_c, 3, 69, 110
4, 44512, Note_on_c, 3, 69, 0
4, 44544, Note_on_c, 3, 66, 110
4, 44638, Note_on_c, 3, 66, 0
4, 44640, Note_on_c, 3, 67, 110
4, 44688, Note_on_c, 3, 66, 0
4, 44734, Note_on_c, 3, 67, 0
4, 44736, Note_on_c, 3, 69, 110
4, 44896, Note_on_c, 3, 69, 0
4, 44928, Note_on_c, 3, 74, 110
4, 45088, Note_on_c, 3, 74, 0
4, 45120, Note_on_c, 3, 67, 110
4, 45280, Note_on_c, 3, 67, 0
4, 45312, Note_on_c, 3, 66, 110
4, 45312, Note_on_c, 3, 69, 110
4, 45472, Note_on_c, 3, 66, 0
4, 45472, Note_on_c, 3, 69, 0
4, 45504, Note_on_c, 3, 67, 110
4, 45504, Note_on_c, 3, 71, 110
4, 45760, Note_on_c, 3, 71, 0
4, 45792, Note_on_c, 3, 72, 110
4, 45886, Note_on_c, 3, 72, 0
4, 45888, Note_on_c, 3, 74, 110
4, 46032, Note_on_c, 3, 67, 0
4, 46048, Note_on_c, 3, 74, 0
4, 46080, Note_on_c, 3, 67, 110
4, 46080, Note_on_c, 3, 72, 110
4, 46336, Note_on_c, 3, 72, 0
4, 46368, Note_on_c, 3, 74, 110
4, 46462, Note_on_c, 3, 74, 0
4, 46464, Note_on_c, 3, 76, 110
4, 46608, Note_on_c, 3, 67, 0
4, 46624, Note_on_c, 3, 76, 0
4, 46656, Note_on_c, 3, 67, 110
4, 46656, Note_on_c, 3, 76, 110
4, 46816, Note_on_c, 3, 76, 0
4, 46848, Note_on_c, 3, 74, 110
4, 47008, Note_on_c, 3, 74, 0
4, 47040, Note_on_c, 3, 72, 110
4, 47184, Note_on_c, 3, 67, 0
4, 47200, Note_on_c, 3, 72, 0
4, 47232, Note_on_c, 3, 67, 110
4, 47232, Note_on_c, 3, 71, 110
4, 47392, Note_on_c, 3, 71, 0
4, 47424, Note_on_c, 3, 74, 110
4, 47568, Note_on_c, 3, 67, 0
4, 47584, Note_on_c, 3, 74, 0
4, 47616, Note_on_c, 3, 65, 110
4, 47616, Note_on_c, 3, 69, 110
4, 47872, Note_on_c, 3, 69, 0
4, 47904, Note_on_c, 3, 70, 110
4, 47998, Note_on_c, 3, 70, 0
4, 48000, Note_on_c, 3, 72, 110
4, 48144, Note_on_c, 3, 65, 0
4, 48160, Note_on_c, 3, 72, 0
4, 48192, Note_on_c, 3, 65, 110
4, 48192, Note_on_c, 3, 69, 110
4, 48352, Note_on_c, 3, 69, 0
4, 48384, Note_on_c, 3, 67, 110
4, 48528, Note_on_c, 3, 65, 0
4, 48544, Note_on_c, 3, 67, 0
4, 48576, Note_on_c, 3, 66, 110
4, 48736, Note_on_c, 3, 66, 0
4, 48768, Note_on_c, 3, 66, 110
4, 48862, Note_on_c, 3, 66, 0
4, 48864, Note_on_c, 3, 67, 110
4, 48958, Note_on_c, 3, 67, 0
4, 48960, Note_on_c, 3, 66, 110
4, 48960, Note_on_c, 3, 69, 110
4, 49120, Note_on_c, 3, 66, 0
4, 49120, Note_on_c, 3, 69, 0
4, 49152, Note_on_c, 3, 55, 110
4, 49152, Note_on_c, 3, 67, 110
4, 49312, Note_on_c, 3, 67, 0
4, 49344, Note_on_c, 3, 67, 110
4, 49438, Note_on_c, 3, 67, 0
4, 49440, Note_on_c, 3, 69, 110
4, 49488, Note_on_c, 3, 55, 0
4, 49534, Note_on_c, 3, 69, 0
4, 49536, Note_on_c, 3, 70, 110
4, 49696, Note_on_c, 3, 70, 0
4, 49728, Note_on_c, 3, 72, 110
4, 49888, Note_on_c, 3, 72, 0
4, 49920, Note_on_c, 3, 65, 110
4, 50080, Note_on_c, 3, 65, 0
4, 50112, Note_on_c, 3, 62, 110
4, 50112, Note_on_c, 3, 67, 110
4, 51040, Note_on_c, 3, 62, 0
4, 51040, Note_on_c, 3, 67, 0
4, 51072, Note_on_c, 3, 55, 110
4, 51232, Note_on_c, 3, 55, 0
4, 51264, Note_on_c, 3, 67, 110
4, 51358, Note_on_c, 3, 67, 0
4, 51360, Note_on_c, 3, 65, 110
4, 51454, Note_on_c, 3, 65, 0
4, 51456, Note_on_c, 3, 67, 110
4, 51616, Note_on_c, 3, 67, 0
4, 51648, Note_on_c, 3, 55, 110
4, 51808, Note_on_c, 3, 55, 0
4, 51840, Note_on_c, 3, 62, 110
4, 51934, Note_on_c, 3, 62, 0
4, 51936, Note_on_c, 3, 60, 110
4, 52030, Note_on_c, 3, 60, 0
4, 52032, Note_on_c, 3, 58, 110
4, 52126, Note_on_c, 3, 58, 0
4, 52128, Note_on_c, 3, 57, 110
4, 52222, Note_on_c, 3, 57, 0
4, 52224, Note_on_c, 3, 60, 110
4, 52318, Note_on_c, 3, 60, 0
4, 52320, Note_on_c, 3, 57, 110
4, 52414, Note_on_c, 3, 57, 0
4, 52416, Note_on_c, 3, 55, 110
4, 52576, Note_on_c, 3, 55, 0
4, 52608, Note_on_c, 3, 67, 110
4, 52702, Note_on_c, 3, 67, 0
4, 52704, Note_on_c, 3, 65, 110
4, 52798, Note_on_c, 3, 65, 0
4, 52800, Note_on_c, 3, 67, 110
4, 52960, Note_on_c, 3, 67, 0
4, 52992, Note_on_c, 3, 55, 110
4, 53152, Note_on_c, 3, 55, 0
4, 53184, Note_on_c, 3, 60, 110
4, 53278, Note_on_c, 3, 60, 0
4, 53280, Note_on_c, 3, 62, 110
4, 53374, Note_on_c, 3, 62, 0
4, 53376, Note_on_c, 3, 65, 110
4, 53536, Note_on_c, 3, 65, 0
4, 53568, Note_on_c, 3, 55, 110
4, 53728, Note_on_c, 3, 55, 0
4, 53760, Note_on_c, 3, 67, 110
4, 53854, Note_on_c, 3, 67, 0
4, 53856, Note_on_c, 3, 65, 110
4, 53950, Note_on_c, 3, 65, 0
4, 53952, Note_on_c, 3, 67, 110
4, 54112, Note_on_c, 3, 67, 0
4, 54144, Note_on_c, 3, 55, 110
4, 54304, Note_on_c, 3, 55, 0
4, 54336, Note_on_c, 3, 62, 110
4, 54430, Note_on_c, 3, 62, 0
4, 54432, Note_on_c, 3, 60, 110
4, 54526, Note_on_c, 3, 60, 0
4, 54528, Note_on_c, 3, 58, 110
4, 54622, Note_on_c, 3, 58, 0
4, 54624, Note_on_c, 3, 57, 110
4, 54718, Note_on_c, 3, 57, 0
4, 54720, Note_on_c, 3, 60, 110
4, 54814, Note_on_c, 3, 60, 0
4, 54816, Note_on_c, 3, 57, 110
4, 54910, Note_on_c, 3, 57, 0
4, 54912, Note_on_c, 3, 55, 110
4, 55072, Note_on_c, 3, 55, 0
4, 55104, Note_on_c, 3, 67, 110
4, 55198, Note_on_c, 3, 67, 0
4, 55200, Note_on_c, 3, 65, 110
4, 55294, Note_on_c, 3, 65, 0
4, 55296, Note_on_c, 3, 67, 110
4, 55456, Note_on_c, 3, 67, 0
4, 55488, Note_on_c, 3, 55, 110
4, 55648, Note_on_c, 3, 55, 0
4, 55680, Note_on_c, 3, 60, 110
4, 55774, Note_on_c, 3, 60, 0
4, 55776, Note_on_c, 3, 62, 110
4, 55870, Note_on_c, 3, 62, 0
4, 55872, Note_on_c, 3, 65, 110
4, 56032, Note_on_c, 3, 65, 0
4, 56064, Note_on_c, 3, 55, 110
4, 56224, Note_on_c, 3, 55, 0
4, 56256, Note_on_c, 3, 67, 110
4, 56350, Note_on_c, 3, 67, 0
4, 56352, Note_on_c, 3, 65, 110
4, 56446, Note_on_c, 3, 65, 0
4, 56448, Note_on_c, 3, 67, 110
4, 56608, Note_on_c, 3, 67, 0
4, 56640, Note_on_c, 3, 55, 110
4, 56800, Note_on_c, 3, 55, 0
4, 56832, Note_on_c, 3, 62, 110
4, 56926, Note_on_c, 3, 62, 0
4, 56928, Note_on_c, 3, 60, 110
4, 57022, Note_on_c, 3, 60, 0
4, 57024, Note_on_c, 3, 58, 110
4, 57118, Note_on_c, 3, 58, 0
4, 57120, Note_on_c, 3, 57, 110
4, 57214, Note_on_c, 3, 57, 0
4, 57216, Note_on_c, 3, 60, 110
4, 57310, Note_on_c, 3, 60, 0
4, 57312, Note_on_c, 3, 57, 110
4, 57406, Note_on_c, 3, 57, 0
4, 57408, Note_on_c, 3, 55, 110
4, 57568, Note_on_c, 3, 55, 0
4, 57600, Note_on_c, 3, 67, 110
4, 57694, Note_on_c, 3, 67, 0
4, 57696, Note_on_c, 3, 65, 110
4, 57790, Note_on_c, 3, 65, 0
4, 57792, Note_on_c, 3, 67, 110
4, 57952, Note_on_c, 3, 67, 0
4, 57984, Note_on_c, 3, 55, 110
4, 58144, Note_on_c, 3, 55, 0
4, 58176, Note_on_c, 3, 60, 110
4, 58270, Note_on_c, 3, 60, 0
4, 58272, Note_on_c, 3, 62, 110
4, 58366, Note_on_c, 3, 62, 0
4, 58368, Note_on_c, 3, 65, 110
4, 58528, Note_on_c, 3, 65, 0
4, 58560, Note_on_c, 3, 55, 110
4, 58720, Note_on_c, 3, 55, 0
4, 58752, Note_on_c, 3, 67, 110
4, 58846, Note_on_c, 3, 67, 0
4, 58848, Note_on_c, 3, 65, 110
4, 58942, Note_on_c, 3, 65, 0
4, 58944, Note_on_c, 3, 67, 110
4, 59104, Note_on_c, 3, 67, 0
4, 59136, Note_on_c, 3, 55, 110
4, 59296, Note_on_c, 3, 55, 0
4, 59328, Note_on_c, 3, 62, 110
4, 59422, Note_on_c, 3, 62, 0
4, 59424, Note_on_c, 3, 60, 110
4, 59518, Note_on_c, 3, 60, 0
4, 59520, Note_on_c, 3, 58, 110
4, 59614, Note_on_c, 3, 58, 0
4, 59616, Note_on_c, 3, 57, 110
4, 59710, Note_on_c, 3, 57, 0
4, 59712, Note_on_c, 3, 60, 110
4, 59806, Note_on_c, 3, 60, 0
4, 59808, Note_on_c, 3, 57, 110
4, 59902, Note_on_c, 3, 57, 0
4, 59904, Note_on_c, 3, 55, 110
4, 59928, Note_on_c, 3, 58, 110
4, 59952, Note_on_c, 3, 62, 110
4, 61200, Note_on_c, 3, 55, 0
4, 61200, Note_on_c, 3, 58, 0
4, 61200, Note_on_c, 3, 62, 0
4, 61248, Note_on_c, 3, 70, 92
4, 61272, Note_on_c, 3, 65, 92
4, 61296, Note_on_c, 3, 62, 92
4, 61320, Note_on_c, 3, 58, 92
4, 61504, Note_on_c, 3, 58, 0
4, 61504, Note_on_c, 3, 62, 0
4, 61504, Note_on_c, 3, 65, 0
4, 61504, Note_on_c, 3, 70, 0
4, 61536, Note_on_c, 3, 62, 92
4, 61536, Note_on_c, 3, 65, 92
4, 61536, Note_on_c, 3, 70, 92
4, 61630, Note_on_c, 3, 62, 0
4, 61630, Note_on_c, 3, 65, 0
4, 61630, Note_on_c, 3, 70, 0
4, 61632, Note_on_c, 3, 58, 92
4, 61632, Note_on_c, 3, 62, 92
4, 61632, Note_on_c, 3, 65, 92
4, 61632, Note_on_c, 3, 70, 92
4, 61792, Note_on_c, 3, 58, 0
4, 61792, Note_on_c, 3, 62, 0
4, 61792, Note_on_c, 3, 65, 0
4, 61792, Note_on_c, 3, 70, 0
4, 61824, Note_on_c, 3, 62, 92
4, 61824, Note_on_c, 3, 65, 92
4, 61824, Note_on_c, 3, 70, 92
4, 61918, Note_on_c, 3, 62, 0
4, 61918, Note_on_c, 3, 65, 0
4, 61918, Note_on_c, 3, 70, 0
4, 61920, Note_on_c, 3, 58, 92
4, 61920, Note_on_c, 3, 62, 92
4, 61920, Note_on_c, 3, 65, 92
4, 61920, Note_on_c, 3, 70, 92
4, 62110, Note_on_c, 3, 58, 0
4, 62110, Note_on_c, 3, 62, 0
4, 62110, Note_on_c, 3, 65, 0
4, 62110, Note_on_c, 3, 70, 0
4, 62112, Note_on_c, 3, 62, 92
4, 62112, Note_on_c, 3, 65, 92
4, 62112, Note_on_c, 3, 70, 92
4, 62206, Note_on_c, 3, 62, 0
4, 62206, Note_on_c, 3, 65, 0
4, 62206, Note_on_c, 3, 70, 0
4, 62208, Note_on_c, 3, 70, 92
4, 62232, Note_on_c, 3, 65, 92
4, 62256, Note_on_c, 3, 62, 92
4, 62280, Note_on_c, 3, 58, 92
4, 62398, Note_on_c, 3, 58, 0
4, 62398, Note_on_c, 3, 62, 0
4, 62398, Note_on_c, 3, 65, 0
4, 62398, Note_on_c, 3, 70, 0
4, 62400, Note_on_c, 3, 58, 92
4, 62400, Note_on_c, 3, 62, 92
4, 62400, Note_on_c, 3, 65, 92
4, 62400, Note_on_c, 3, 70, 92
4, 62560, Note_on_c, 3, 58, 0
4, 62560, Note_on_c, 3, 62, 0
4, 62560, Note_on_c, 3, 65, 0
4, 62560, Note_on_c, 3, 70, 0
4, 62592, Note_on_c, 3, 65, 92
4, 62592, Note_on_c, 3, 70, 92
4, 62686, Note_on_c, 3, 65, 0
4, 62686, Note_on_c, 3, 70, 0
4, 62688, Note_on_c, 3, 62, 92
4, 62688, Note_on_c, 3, 65, 92
4, 62688, Note_on_c, 3, 70, 92
4, 62782, Note_on_c, 3, 62, 0
4, 62782, Note_on_c, 3, 65, 0
4, 62782, Note_on_c, 3, 70, 0
4, 62784, Note_on_c, 3, 68, 92
4, 62808, Note_on_c, 3, 63, 92
4, 62832, Note_on_c, 3, 60, 92
4, 63040, Note_on_c, 3, 60, 0
4, 63040, Note_on_c, 3, 63, 0
4, 63040, Note_on_c, 3, 68, 0
4, 63072, Note_on_c, 3, 63, 92
4, 63072, Note_on_c, 3, 68, 92
4, 63166, Note_on_c, 3, 63, 0
4, 63166, Note_on_c, 3, 68, 0
4, 63168, Note_on_c, 3, 60, 92
4, 63168, Note_on_c, 3, 63, 92
4, 63168, Note_on_c, 3, 70, 92
4, 63328, Note_on_c, 3, 60, 0
4, 63328, Note_on_c, 3, 63, 0
4, 63328, Note_on_c, 3, 70, 0
4, 63360, Note_on_c, 3, 60, 92
4, 63360, Note_on_c, 3, 63, 92
4, 63360, Note_on_c, 3, 68, 92
4, 63520, Note_on_c, 3, 60, 0
4, 63520, Note_on_c, 3, 63, 0
4, 63520, Note_on_c, 3, 68, 0
4, 63552, Note_on_c, 3, 53, 92
4, 63552, Note_on_c, 3, 58, 92
4, 63552, Note_on_c, 3, 62, 92
4, 63552, Note_on_c, 3, 65, 92
4, 63552, Note_on_c, 3, 70, 92
4, 63646, Note_on_c, 3, 53, 0
4, 63646, Note_on_c, 3, 58, 0
4, 63646, Note_on_c, 3, 62, 0
4, 63646, Note_on_c, 3, 65, 0
4, 63646, Note_on_c, 3, 70, 0
4, 63648, Note_on_c, 3, 58, 92
4, 63648, Note_on_c, 3, 62, 92
4, 63648, Note_on_c, 3, 65, 92
4, 63648, Note_on_c, 3, 70, 92
4, 63742, Note_on_c, 3, 58, 0
4, 63742, Note_on_c, 3, 62, 0
4, 63742, Note_on_c, 3, 65, 0
4, 63742, Note_on_c, 3, 70, 0
4, 63744, Note_on_c, 3, 53, 92
4, 63744, Note_on_c, 3, 58, 92
4, 63744, Note_on_c, 3, 62, 92
4, 63744, Note_on_c, 3, 65, 92
4, 63744, Note_on_c, 3, 70, 92
4, 64080, Note_on_c, 3, 53, 0
4, 64080, Note_on_c, 3, 58, 0
4, 64080, Note_on_c, 3, 62, 0
4, 64080, Note_on_c, 3, 65, 0
4, 64080, Note_on_c, 3, 70, 0
4, 64128, Note_on_c, 3, 70, 92
4, 64152, Note_on_c, 3, 65, 92
4, 64176, Note_on_c, 3, 62, 92
4, 64222, Note_on_c, 3, 62, 0
4, 64222, Note_on_c, 3, 65, 0
4, 64222, Note_on_c, 3, 70, 0
4, 64224, Note_on_c, 3, 65, 92
4, 64224, Note_on_c, 3, 70, 92
4, 64318, Note_on_c, 3, 65, 0
4, 64318, Note_on_c, 3, 70, 0
4, 64320, Note_on_c, 3, 70, 92
4, 64344, Note_on_c, 3, 65, 92
4, 64368, Note_on_c, 3, 62, 92
4, 64392, Note_on_c, 3, 58, 92
4, 64576, Note_on_c, 3, 58, 0
4, 64576, Note_on_c, 3, 62, 0
4, 64576, Note_on_c, 3, 65, 0
4, 64576, Note_on_c, 3, 70, 0
4, 64608, Note_on_c, 3, 62, 92
4, 64608, Note_on_c, 3, 65, 92
4, 64608, Note_on_c, 3, 70, 92
4, 64702, Note_on_c, 3, 62, 0
4, 64702, Note_on_c, 3, 65, 0
4, 64702, Note_on_c, 3, 70, 0
4, 64704, Note_on_c, 3, 58, 92
4, 64704, Note_on_c, 3, 62, 92
4, 64704, Note_on_c, 3, 65, 92
4, 64704, Note_on_c, 3, 70, 92
4, 64864, Note_on_c, 3, 58, 0
4, 64864, Note_on_c, 3, 62, 0
4, 64864, Note_on_c, 3, 65, 0
4, 64864, Note_on_c, 3, 70, 0
4, 64896, Note_on_c, 3, 62, 92
4, 64896, Note_on_c, 3, 65, 92
4, 64896, Note_on_c, 3, 70, 92
4, 64990, Note_on_c, 3, 62, 0
4, 64990, Note_on_c, 3, 65, 0
4, 64990, Note_on_c, 3, 70, 0
4, 64992, Note_on_c, 3, 58, 92
4, 64992, Note_on_c, 3, 62, 92
4, 64992, Note_on_c, 3, 65, 92
4, 64992, Note_on_c, 3, 70, 92
4, 65182, Note_on_c, 3, 58, 0
4, 65182, Note_on_c, 3, 62, 0
4, 65182, Note_on_c, 3, 65, 0
4, 65182, Note_on_c, 3, 70, 0
4, 65184, Note_on_c, 3, 62, 92
4, 65184, Note_on_c, 3, 65, 92
4, 65184, Note_on_c, 3, 70, 92
4, 65278, Note_on_c, 3, 62, 0
4, 65278, Note_on_c, 3, 65, 0
4, 65278, Note_on_c, 3, 70, 0
4, 65280, Note_on_c, 3, 70, 92
4, 65304, Note_on_c, 3, 65, 92
4, 65328, Note_on_c, 3, 62, 92
4, 65352, Note_on_c, 3, 58, 92
4, 65470, Note_on_c, 3, 58, 0
4, 65470, Note_on_c, 3, 62, 0
4, 65470, Note_on_c, 3, 65, 0
4, 65470, Note_on_c, 3, 70, 0
4, 65472, Note_on_c, 3, 58, 92
4, 65472, Note_on_c, 3, 62, 92
4, 65472, Note_on_c, 3, 65, 92
4, 65472, Note_on_c, 3, 70, 92
4, 65632, Note_on_c, 3, 58, 0
4, 65632, Note_on_c, 3, 62, 0
4, 65632, Note_on_c, 3, 65, 0
4, 65632, Note_on_c, 3, 70, 0
4, 65664, Note_on_c, 3, 65, 92
4, 65664, Note_on_c, 3, 70, 92
4, 65758, Note_on_c, 3, 65, 0
4, 65758, Note_on_c, 3, 70, 0
4, 65760, Note_on_c, 3, 62, 92
4, 65760, Note_on_c, 3, 65, 92
4, 65760, Note_on_c, 3, 70, 92
4, 65854, Note_on_c, 3, 62, 0
4, 65854, Note_on_c, 3, 65, 0
4, 65854, Note_on_c, 3, 70, 0
4, 65856, Note_on_c, 3, 60, 92
4, 65856, Note_on_c, 3, 63, 92
4, 65856, Note_on_c, 3, 68, 92
4, 66112, Note_on_c, 3, 60, 0
4, 66112, Note_on_c, 3, 63, 0
4, 66112, Note_on_c, 3, 68, 0
4, 66144, Note_on_c, 3, 63, 92
4, 66144, Note_on_c, 3, 68, 92
4, 66238, Note_on_c, 3, 63, 0
4, 66238, Note_on_c, 3, 68, 0
4, 66240, Note_on_c, 3, 60, 92
4, 66240, Note_on_c, 3, 63, 92
4, 66240, Note_on_c, 3, 70, 92
4, 66400, Note_on_c, 3, 60, 0
4, 66400, Note_on_c, 3, 63, 0
4, 66400, Note_on_c, 3, 70, 0
4, 66432, Note_on_c, 3, 60, 92
4, 66432, Note_on_c, 3, 63, 92
4, 66432, Note_on_c, 3, 68, 92
4, 66592, Note_on_c, 3, 60, 0
4, 66592, Note_on_c, 3, 63, 0
4, 66592, Note_on_c, 3, 68, 0
4, 66624, Note_on_c, 3, 53, 92
4, 66624, Note_on_c, 3, 58, 92
4, 66624, Note_on_c, 3, 62, 92
4, 66624, Note_on_c, 3, 65, 92
4, 66624, Note_on_c, 3, 70, 92
4, 66718, Note_on_c, 3, 53, 0
4, 66718, Note_on_c, 3, 58, 0
4, 66718, Note_on_c, 3, 62, 0
4, 66718, Note_on_c, 3, 65, 0
4, 66718, Note_on_c, 3, 70, 0
4, 66720, Note_on_c, 3, 58, 92
4, 66720, Note_on_c, 3, 62, 92
4, 66720, Note_on_c, 3, 65, 92
4, 66720, Note_on_c, 3, 70, 92
4, 66814, Note_on_c, 3, 58, 0
4, 66814, Note_on_c, 3, 62, 0
4, 66814, Note_on_c, 3, 65, 0
4, 66814, Note_on_c, 3, 70, 0
4, 66816, Note_on_c, 3, 70, 92
4, 66840, Note_on_c, 3, 65, 92
4, 66864, Note_on_c, 3, 62, 92
4, 66888, Note_on_c, 3, 58, 92
4, 66912, Note_on_c, 3, 53, 92
4, 67168, Note_on_c, 3, 53, 0
4, 67168, Note_on_c, 3, 58, 0
4, 67168, Note_on_c, 3, 62, 0
4, 67168, Note_on_c, 3, 65, 0
4, 67168, Note_on_c, 3, 70, 0
4, 67200, Note_on_c, 3, 62, 92
4, 67200, Note_on_c, 3, 65, 92
4, 67200, Note_on_c, 3, 70, 92
4, 67294, Note_on_c, 3, 62, 0
4, 67294, Note_on_c, 3, 65, 0
4, 67294, Note_on_c, 3, 70, 0
4, 67296, Note_on_c, 3, 65, 92
4, 67296, Note_on_c, 3, 70, 92
4, 67390, Note_on_c, 3, 65, 0
4, 67390, Note_on_c, 3, 70, 0
4, 67392, Note_on_c, 3, 70, 92
4, 67416, Note_on_c, 3, 65, 92
4, 67440, Note_on_c, 3, 58, 92
4, 67440, Note_on_c, 3, 62, 92
4, 67648, Note_on_c, 3, 58, 0
4, 67648, Note_on_c, 3, 62, 0
4, 67648, Note_on_c, 3, 65, 0
4, 67648, Note_on_c, 3, 70, 0
4, 67680, Note_on_c, 3, 62, 92
4, 67680, Note_on_c, 3, 65, 92
4, 67680, Note_on_c, 3, 70, 92
4, 67774, Note_on_c, 3, 62, 0
4, 67774, Note_on_c, 3, 65, 0
4, 67774, Note_on_c, 3, 70, 0
4, 67776, Note_on_c, 3, 58, 92
4, 67776, Note_on_c, 3, 62, 92
4, 67776, Note_on_c, 3, 65, 92
4, 67776, Note_on_c, 3, 70, 92
4, 67936, Note_on_c, 3, 58, 0
4, 67936, Note_on_c, 3, 62, 0
4, 67936, Note_on_c, 3, 65, 0
4, 67936, Note_on_c, 3, 70, 0
4, 67968, Note_on_c, 3, 62, 92
4, 67968, Note_on_c, 3, 65, 92
4, 67968, Note_on_c, 3, 70, 92
4, 68062, Note_on_c, 3, 62, 0
4, 68062, Note_on_c, 3, 65, 0
4, 68062, Note_on_c, 3, 70, 0
4, 68064, Note_on_c, 3, 58, 92
4, 68064, Note_on_c, 3, 62, 92
4, 68064, Note_on_c, 3, 65, 92
4, 68064, Note_on_c, 3, 70, 92
4, 68254, Note_on_c, 3, 58, 0
4, 68254, Note_on_c, 3, 62, 0
4, 68254, Note_on_c, 3, 65, 0
4, 68254, Note_on_c, 3, 70, 0
4, 68256, Note_on_c, 3, 62, 92
4, 68256, Note_on_c, 3, 65, 92
4, 68256, Note_on_c, 3, 70, 92
4, 68350, Note_on_c, 3, 62, 0
4, 68350, Note_on_c, 3, 65, 0
4, 68350, Note_on_c, 3, 70, 0
4, 68352, Note_on_c, 3, 58, 92
4, 68352, Note_on_c, 3, 62, 92
4, 68352, Note_on_c, 3, 65, 92
4, 68352, Note_on_c, 3, 70, 92
4, 68512, Note_on_c, 3, 58, 0
4, 68512, Note_on_c, 3, 62, 0
4, 68512, Note_on_c, 3, 65, 0
4, 68512, Note_on_c, 3, 70, 0
4, 68544, Note_on_c, 3, 58, 92
4, 68544, Note_on_c, 3, 62, 92
4, 68544, Note_on_c, 3, 65, 92
4, 68544, Note_on_c, 3, 70, 92
4, 68704, Note_on_c, 3, 58, 0
4, 68704, Note_on_c, 3, 62, 0
4, 68704, Note_on_c, 3, 65, 0
4, 68704, Note_on_c, 3, 70, 0
4, 68736, Note_on_c, 3, 65, 92
4, 68736, Note_on_c, 3, 70, 92
4, 68830, Note_on_c, 3, 65, 0
4, 68830, Note_on_c, 3, 70, 0
4, 68832, Note_on_c, 3, 62, 92
4, 68832, Note_on_c, 3, 65, 92
4, 68832, Note_on_c, 3, 70, 92
4, 68926, Note_on_c, 3, 62, 0
4, 68926, Note_on_c, 3, 65, 0
4, 68926, Note_on_c, 3, 70, 0
4, 68928, Note_on_c, 3, 60, 92
4, 68928, Note_on_c, 3, 63, 92
4, 68928, Note_on_c, 3, 68, 92
4, 69184, Note_on_c, 3, 60, 0
4, 69184, Note_on_c, 3, 63, 0
4, 69184, Note_on_c, 3, 68, 0
4, 69216, Note_on_c, 3, 63, 92
4, 69216, Note_on_c, 3, 68, 92
4, 69310, Note_on_c, 3, 63, 0
4, 69310, Note_on_c, 3, 68, 0
4, 69312, Note_on_c, 3, 60, 92
4, 69312, Note_on_c, 3, 63, 92
4, 69312, Note_on_c, 3, 70, 92
4, 69472, Note_on_c, 3, 60, 0
4, 69472, Note_on_c, 3, 63, 0
4, 69472, Note_on_c, 3, 70, 0
4, 69504, Note_on_c, 3, 60, 92
4, 69504, Note_on_c, 3, 63, 92
4, 69504, Note_on_c, 3, 68, 92
4, 69598, Note_on_c, 3, 60, 0
4, 69598, Note_on_c, 3, 63, 0
4, 69598, Note_on_c, 3, 68, 0
4, 69600, Note_on_c, 3, 58, 92
4, 69694, Note_on_c, 3, 58, 0
4, 69696, Note_on_c, 3, 58, 92
4, 69696, Note_on_c, 3, 65, 92
4, 69790, Note_on_c, 3, 58, 0
4, 69790, Note_on_c, 3, 65, 0
4, 69792, Note_on_c, 3, 58, 92
4, 69792, Note_on_c, 3, 65, 92
4, 69886, Note_on_c, 3, 58, 0
4, 69886, Note_on_c, 3, 65, 0
4, 69888, Note_on_c, 3, 70, 92
4, 69912, Note_on_c, 3, 65, 92
4, 69936, Note_on_c, 3, 58, 92
4, 70144, Note_on_c, 3, 58, 0
4, 70144, Note_on_c, 3, 65, 0
4, 70144, Note_on_c, 3, 70, 0
4, 70176, Note_on_c, 3, 65, 92
4, 70176, Note_on_c, 3, 70, 92
4, 70270, Note_on_c, 3, 65, 0
4, 70270, Note_on_c, 3, 70, 0
4, 70272, Note_on_c, 3, 58, 92
4, 70272, Note_on_c, 3, 65, 92
4, 70272, Note_on_c, 3, 70, 92
4, 70366, Note_on_c, 3, 58, 0
4, 70366, Note_on_c, 3, 65, 0
4, 70366, Note_on_c, 3, 70, 0
4, 70368, Note_on_c, 3, 58, 92
4, 70368, Note_on_c, 3, 65, 92
4, 70368, Note_on_c, 3, 70, 92
4, 70462, Note_on_c, 3, 58, 0
4, 70462, Note_on_c, 3, 65, 0
4, 70462, Note_on_c, 3, 70, 0
4, 70464, Note_on_c, 3, 68, 92
4, 70488, Note_on_c, 3, 63, 92
4, 70512, Note_on_c, 3, 60, 92
4, 70536, Note_on_c, 3, 56, 92
4, 70654, Note_on_c, 3, 56, 0
4, 70654, Note_on_c, 3, 60, 0
4, 70654, Note_on_c, 3, 63, 0
4, 70654, Note_on_c, 3, 68, 0
4, 70656, Note_on_c, 3, 60, 92
4, 70656, Note_on_c, 3, 63, 92
4, 70656, Note_on_c, 3, 68, 92
4, 70750, Note_on_c, 3, 63, 0
4, 70750, Note_on_c, 3, 68, 0
4, 70752, Note_on_c, 3, 63, 92
4, 70752, Note_on_c, 3, 68, 92
4, 70816, Note_on_c, 3, 60, 0
4, 70846, Note_on_c, 3, 63, 0
4, 70846, Note_on_c, 3, 68, 0
4, 70848, Note_on_c, 3, 63, 92
4, 70848, Note_on_c, 3, 70, 92
4, 70942, Note_on_c, 3, 70, 0
4, 70944, Note_on_c, 3, 70, 92
4, 71008, Note_on_c, 3, 63, 0
4, 71038, Note_on_c, 3, 70, 0
4, 71040, Note_on_c, 3, 60, 92
4, 71040, Note_on_c, 3, 63, 92
4, 71040, Note_on_c, 3, 68, 92
4, 71134, Note_on_c, 3, 63, 0
4, 71134, Note_on_c, 3, 68, 0
4, 71136, Note_on_c, 3, 63, 92
4, 71136, Note_on_c, 3, 68, 92
4, 71200, Note_on_c, 3, 60, 0
4, 71230, Note_on_c, 3, 63, 0
4, 71230, Note_on_c, 3, 68, 0
4, 71232, Note_on_c, 3, 55, 92
4, 71232, Note_on_c, 3, 58, 92
4, 71232, Note_on_c, 3, 63, 92
4, 71232, Note_on_c, 3, 67, 92
4, 71326, Note_on_c, 3, 55, 0
4, 71326, Note_on_c, 3, 58, 0
4, 71326, Note_on_c, 3, 63, 0
4, 71326, Note_on_c, 3, 67, 0
4, 71328, Note_on_c, 3, 63, 92
4, 71328, Note_on_c, 3, 67, 92
4, 71422, Note_on_c, 3, 63, 0
4, 71422, Note_on_c, 3, 67, 0
4, 71424, Note_on_c, 3, 55, 92
4, 71424, Note_on_c, 3, 58, 92
4, 71424, Note_on_c, 3, 63, 92
4, 71424, Note_on_c, 3, 70, 92
4, 71680, Note_on_c, 3, 55, 0
4, 71680, Note_on_c, 3, 58, 0
4, 71680, Note_on_c, 3, 63, 0
4, 71680, Note_on_c, 3, 70, 0
4, 71712, Note_on_c, 3, 70, 92
4, 71736, Note_on_c, 3, 63, 92
4, 71760, Note_on_c, 3, 58, 92
4, 71806, Note_on_c, 3, 58, 0
4, 71806, Note_on_c, 3, 63, 0
4, 71806, Note_on_c, 3, 70, 0
4, 71808, Note_on_c, 3, 58, 92
4, 71808, Note_on_c, 3, 63, 92
4, 71808, Note_on_c, 3, 70, 92
4, 71902, Note_on_c, 3, 58, 0
4, 71902, Note_on_c, 3, 63, 0
4, 71902, Note_on_c, 3, 70, 0
4, 71904, Note_on_c, 3, 58, 92
4, 71904, Note_on_c, 3, 62, 92
4, 71904, Note_on_c, 3, 70, 92
4, 71998, Note_on_c, 3, 58, 0
4, 71998, Note_on_c, 3, 62, 0
4, 71998, Note_on_c, 3, 70, 0
4, 72000, Note_on_c, 3, 60, 92
4, 72000, Note_on_c, 3, 70, 92
4, 72094, Note_on_c, 3, 60, 0
4, 72094, Note_on_c, 3, 70, 0
4, 72096, Note_on_c, 3, 62, 92
4, 72096, Note_on_c, 3, 70, 92
4, 72190, Note_on_c, 3, 62, 0
4, 72190, Note_on_c, 3, 70, 0
4, 72192, Note_on_c, 3, 58, 92
4, 72192, Note_on_c, 3, 62, 92
4, 72192, Note_on_c, 3, 70, 92
4, 72448, Note_on_c, 3, 58, 0
4, 72448, Note_on_c, 3, 62, 0
4, 72448, Note_on_c, 3, 70, 0
4, 72480, Note_on_c, 3, 62, 92
4, 72480, Note_on_c, 3, 70, 92
4, 72574, Note_on_c, 3, 62, 0
4, 72574, Note_on_c, 3, 70, 0
4, 72576, Note_on_c, 3, 62, 92
4, 72576, Note_on_c, 3, 70, 92
4, 72670, Note_on_c, 3, 62, 0
4, 72670, Note_on_c, 3, 70, 0
4, 72672, Note_on_c, 3, 62, 92
4, 72672, Note_on_c, 3, 70, 92
4, 72766, Note_on_c, 3, 62, 0
4, 72766, Note_on_c, 3, 70, 0
4, 72768, Note_on_c, 3, 60, 127
4, 72768, Note_on_c, 3, 63, 127
4, 72768, Note_on_c, 3, 68, 127
4, 72862, Note_on_c, 3, 60, 0
4, 72862, Note_on_c, 3, 63, 0
4, 72862, Note_on_c, 3, 68, 0
4, 72864, Note_on_c, 3, 60, 92
4, 72864, Note_on_c, 3, 63, 92
4, 72864, Note_on_c, 3, 68, 92
4, 72958, Note_on_c, 3, 60, 0
4, 72958, Note_on_c, 3, 63, 0
4, 72958, Note_on_c, 3, 68, 0
4, 72960, Note_on_c, 3, 60, 92
4, 72960, Note_on_c, 3, 63, 92
4, 72960, Note_on_c, 3, 68, 92
4, 72992, Note_on_c, 3, 60, 0
4, 72992, Note_on_c, 3, 63, 0
4, 72992, Note_on_c, 3, 68, 0
4, 73056, Note_on_c, 3, 60, 127
4, 73056, Note_on_c, 3, 63, 127
4, 73056, Note_on_c, 3, 68, 127
4, 73150, Note_on_c, 3, 60, 0
4, 73150, Note_on_c, 3, 63, 0
4, 73150, Note_on_c, 3, 68, 0
4, 73152, Note_on_c, 3, 60, 92
4, 73152, Note_on_c, 3, 63, 92
4, 73152, Note_on_c, 3, 68, 92
4, 73246, Note_on_c, 3, 60, 0
4, 73246, Note_on_c, 3, 63, 0
4, 73246, Note_on_c, 3, 68, 0
4, 73248, Note_on_c, 3, 60, 92
4, 73248, Note_on_c, 3, 63, 92
4, 73248, Note_on_c, 3, 68, 92
4, 73280, Note_on_c, 3, 60, 0
4, 73280, Note_on_c, 3, 63, 0
4, 73280, Note_on_c, 3, 68, 0
4, 73344, Note_on_c, 3, 60, 127
4, 73344, Note_on_c, 3, 63, 127
4, 73344, Note_on_c, 3, 68, 127
4, 73438, Note_on_c, 3, 60, 0
4, 73438, Note_on_c, 3, 63, 0
4, 73438, Note_on_c, 3, 68, 0
4, 73440, Note_on_c, 3, 60, 92
4, 73440, Note_on_c, 3, 63, 92
4, 73440, Note_on_c, 3, 68, 92
4, 73534, Note_on_c, 3, 60, 0
4, 73534, Note_on_c, 3, 63, 0
4, 73534, Note_on_c, 3, 68, 0
4, 73536, Note_on_c, 3, 60, 92
4, 73536, Note_on_c, 3, 63, 92
4, 73536, Note_on_c, 3, 68, 92
4, 73568, Note_on_c, 3, 60, 0
4, 73568, Note_on_c, 3, 63, 0
4, 73568, Note_on_c, 3, 68, 0
4, 73632, Note_on_c, 3, 60, 127
4, 73632, Note_on_c, 3, 63, 127
4, 73632, Note_on_c, 3, 68, 127
4, 73726, Note_on_c, 3, 60, 0
4, 73726, Note_on_c, 3, 63, 0
4, 73726, Note_on_c, 3, 68, 0
4, 73728, Note_on_c, 3, 60, 92
4, 73728, Note_on_c, 3, 63, 92
4, 73728, Note_on_c, 3, 68, 92
4, 73822, Note_on_c, 3, 60, 0
4, 73822, Note_on_c, 3, 63, 0
4, 73822, Note_on_c, 3, 68, 0
4, 73824, Note_on_c, 3, 60, 92
4, 73824, Note_on_c, 3, 63, 92
4, 73824, Note_on_c, 3, 68, 92
4, 73856, Note_on_c, 3, 60, 0
4, 73856, Note_on_c, 3, 63, 0
4, 73856, Note_on_c, 3, 68, 0
4, 73920, Note_on_c, 3, 60, 127
4, 73920, Note_on_c, 3, 63, 127
4, 73920, Note_on_c, 3, 68, 127
4, 74014, Note_on_c, 3, 60, 0
4, 74014, Note_on_c, 3, 63, 0
4, 74014, Note_on_c, 3, 68, 0
4, 74016, Note_on_c, 3, 60, 92
4, 74016, Note_on_c, 3, 63, 92
4, 74016, Note_on_c, 3, 68, 92
4, 74110, Note_on_c, 3, 60, 0
4, 74110, Note_on_c, 3, 63, 0
4, 74110, Note_on_c, 3, 68, 0
4, 74112, Note_on_c, 3, 60, 127
4, 74112, Note_on_c, 3, 63, 127
4, 74112, Note_on_c, 3, 68, 127
4, 74206, Note_on_c, 3, 60, 0
4, 74206, Note_on_c, 3, 63, 0
4, 74206, Note_on_c, 3, 68, 0
4, 74208, Note_on_c, 3, 60, 92
4, 74208, Note_on_c, 3, 63, 92
4, 74208, Note_on_c, 3, 68, 92
4, 74302, Note_on_c, 3, 60, 0
4, 74302, Note_on_c, 3, 63, 0
4, 74302, Note_on_c, 3, 68, 0
4, 74304, Note_on_c, 3, 70, 92
4, 74328, Note_on_c, 3, 65, 92
4, 74352, Note_on_c, 3, 62, 92
4, 74376, Note_on_c, 3, 58, 92
4, 74560, Note_on_c, 3, 58, 0
4, 74560, Note_on_c, 3, 62, 0
4, 74560, Note_on_c, 3, 65, 0
4, 74560, Note_on_c, 3, 70, 0
4, 74592, Note_on_c, 3, 62, 92
4, 74592, Note_on_c, 3, 65, 92
4, 74592, Note_on_c, 3, 70, 92
4, 74686, Note_on_c, 3, 62, 0
4, 74686, Note_on_c, 3, 65, 0
4, 74686, Note_on_c, 3, 70, 0
4, 74688, Note_on_c, 3, 58, 92
4, 74688, Note_on_c, 3, 62, 92
4, 74688, Note_on_c, 3, 65, 92
4, 74688, Note_on_c, 3, 70, 92
4, 74848, Note_on_c, 3, 58, 0
4, 74848, Note_on_c, 3, 62, 0
4, 74848, Note_on_c, 3, 65, 0
4, 74848, Note_on_c, 3, 70, 0
4, 74880, Note_on_c, 3, 62, 92
4, 74880, Note_on_c, 3, 65, 92
4, 74880, Note_on_c, 3, 70, 92
4, 74974, Note_on_c, 3, 62, 0
4, 74974, Note_on_c, 3, 65, 0
4, 74974, Note_on_c, 3, 70, 0
4, 74976, Note_on_c, 3, 58, 92
4, 74976, Note_on_c, 3, 62, 92
4, 74976, Note_on_c, 3, 65, 92
4, 74976, Note_on_c, 3, 70, 92
4, 75166, Note_on_c, 3, 58, 0
4, 75166, Note_on_c, 3, 62, 0
4, 75166, Note_on_c, 3, 65, 0
4, 75166, Note_on_c, 3, 70, 0
4, 75168, Note_on_c, 3, 62, 92
4, 75168, Note_on_c, 3, 65, 92
4, 75168, Note_on_c, 3, 70, 92
4, 75262, Note_on_c, 3, 62, 0
4, 75262, Note_on_c, 3, 65, 0
4, 75262, Note_on_c, 3, 70, 0
4, 75264, Note_on_c, 3, 70, 92
4, 75288, Note_on_c, 3, 65, 92
4, 75312, Note_on_c, 3, 62, 92
4, 75336, Note_on_c, 3, 58, 92
4, 75454, Note_on_c, 3, 58, 0
4, 75454, Note_on_c, 3, 62, 0
4, 75454, Note_on_c, 3, 65, 0
4, 75454, Note_on_c, 3, 70, 0
4, 75456, Note_on_c, 3, 58, 92
4, 75456, Note_on_c, 3, 62, 92
4, 75456, Note_on_c, 3, 65, 92
4, 75456, Note_on_c, 3, 70, 92
4, 75616, Note_on_c, 3, 58, 0
4, 75616, Note_on_c, 3, 62, 0
4, 75616, Note_on_c, 3, 65, 0
4, 75616, Note_on_c, 3, 70, 0
4, 75648, Note_on_c, 3, 65, 92
4, 75648, Note_on_c, 3, 70, 92
4, 75742, Note_on_c, 3, 65, 0
4, 75742, Note_on_c, 3, 70, 0
4, 75744, Note_on_c, 3, 62, 92
4, 75744, Note_on_c, 3, 65, 92
4, 75744, Note_on_c, 3, 70, 92
4, 75838, Note_on_c, 3, 62, 0
4, 75838, Note_on_c, 3, 65, 0
4, 75838, Note_on_c, 3, 70, 0
4, 75840, Note_on_c, 3, 68, 92
4, 75864, Note_on_c, 3, 63, 92
4, 75888, Note_on_c, 3, 60, 92
4, 76096, Note_on_c, 3, 60, 0
4, 76096, Note_on_c, 3, 63, 0
4, 76096, Note_on_c, 3, 68, 0
4, 76128, Note_on_c, 3, 63, 92
4, 76128, Note_on_c, 3, 68, 92
4, 76222, Note_on_c, 3, 63, 0
4, 76222, Note_on_c, 3, 68, 0
4, 76224, Note_on_c, 3, 60, 92
4, 76224, Note_on_c, 3, 63, 92
4, 76224, Note_on_c, 3, 70, 92
4, 76384, Note_on_c, 3, 60, 0
4, 76384, Note_on_c, 3, 63, 0
4, 76384, Note_on_c, 3, 70, 0
4, 76416, Note_on_c, 3, 60, 92
4, 76416, Note_on_c, 3, 63, 92
4, 76416, Note_on_c, 3, 68, 92
4, 76576, Note_on_c, 3, 60, 0
4, 76576, Note_on_c, 3, 63, 0
4, 76576, Note_on_c, 3, 68, 0
4, 76608, Note_on_c, 3, 53, 92
4, 76608, Note_on_c, 3, 58, 92
4, 76608, Note_on_c, 3, 62, 92
4, 76608, Note_on_c, 3, 65, 92
4, 76608, Note_on_c, 3, 70, 92
4, 76702, Note_on_c, 3, 53, 0
4, 76702, Note_on_c, 3, 58, 0
4, 76702, Note_on_c, 3, 62, 0
4, 76702, Note_on_c, 3, 65, 0
4, 76702, Note_on_c, 3, 70, 0
4, 76704, Note_on_c, 3, 58, 92
4, 76704, Note_on_c, 3, 62, 92
4, 76704, Note_on_c, 3, 65, 92
4, 76704, Note_on_c, 3, 70, 92
4, 76798, Note_on_c, 3, 58, 0
4, 76798, Note_on_c, 3, 62, 0
4, 76798, Note_on_c, 3, 65, 0
4, 76798, Note_on_c, 3, 70, 0
4, 76800, Note_on_c, 3, 53, 92
4, 76800, Note_on_c, 3, 58, 92
4, 76800, Note_on_c, 3, 62, 92
4, 76800, Note_on_c, 3, 65, 92
4, 76800, Note_on_c, 3, 70, 92
4, 77136, Note_on_c, 3, 53, 0
4, 77136, Note_on_c, 3, 58, 0
4, 77136, Note_on_c, 3, 62, 0
4, 77136, Note_on_c, 3, 65, 0
4, 77136, Note_on_c, 3, 70, 0
4, 77184, Note_on_c, 3, 70, 92
4, 77208, Note_on_c, 3, 65, 92
4, 77232, Note_on_c, 3, 62, 92
4, 77278, Note_on_c, 3, 62, 0
4, 77278, Note_on_c, 3, 65, 0
4, 77278, Note_on_c, 3, 70, 0
4, 77280, Note_on_c, 3, 65, 92
4, 77280, Note_on_c, 3, 70, 92
4, 77374, Note_on_c, 3, 65, 0
4, 77374, Note_on_c, 3, 70, 0
4, 77376, Note_on_c, 3, 70, 92
4, 77400, Note_on_c, 3, 65, 92
4, 77424, Note_on_c, 3, 62, 92
4, 77448, Note_on_c, 3, 58, 92
4, 77632, Note_on_c, 3, 58, 0
4, 77632, Note_on_c, 3, 62, 0
4, 77632, Note_on_c, 3, 65, 0
4, 77632, Note_on_c, 3, 70, 0
4, 77664, Note_on_c, 3, 62, 92
4, 77664, Note_on_c, 3, 65, 92
4, 77664, Note_on_c, 3, 70, 92
4, 77758, Note_on_c, 3, 62, 0
4, 77758, Note_on_c, 3, 65, 0
4, 77758, Note_on_c, 3, 70, 0
4, 77760, Note_on_c, 3, 58, 92
4, 77760, Note_on_c, 3, 62, 92
4, 77760, Note_on_c, 3, 65, 92
4, 77760, Note_on_c, 3, 70, 92
4, 77920, Note_on_c, 3, 58, 0
4, 77920, Note_on_c, 3, 62, 0
4, 77920, Note_on_c, 3, 65, 0
4, 77920, Note_on_c, 3, 70, 0
4, 77952, Note_on_c, 3, 62, 92
4, 77952, Note_on_c, 3, 65, 92
4, 77952, Note_on_c, 3, 70, 92
4, 78046, Note_on_c, 3, 62, 0
4, 78046, Note_on_c, 3, 65, 0
4, 78046, Note_on_c, 3, 70, 0
4, 78048, Note_on_c, 3, 58, 92
4, 78048, Note_on_c, 3, 62, 92
4, 78048, Note_on_c, 3, 65, 92
4, 78048, Note_on_c, 3, 70, 92
4, 78238, Note_on_c, 3, 58, 0
4, 78238, Note_on_c, 3, 62, 0
4, 78238, Note_on_c, 3, 65, 0
4, 78238, Note_on_c, 3, 70, 0
4, 78240, Note_on_c, 3, 62, 92
4, 78240, Note_on_c, 3, 65, 92
4, 78240, Note_on_c, 3, 70, 92
4, 78334, Note_on_c, 3, 62, 0
4, 78334, Note_on_c, 3, 65, 0
4, 78334, Note_on_c, 3, 70, 0
4, 78336, Note_on_c, 3, 70, 92
4, 78360, Note_on_c, 3, 65, 92
4, 78384, Note_on_c, 3, 62, 92
4, 78408, Note_on_c, 3, 58, 92
4, 78526, Note_on_c, 3, 58, 0
4, 78526, Note_on_c, 3, 62, 0
4, 78526, Note_on_c, 3, 65, 0
4, 78526, Note_on_c, 3, 70, 0
4, 78528, Note_on_c, 3, 58, 92
4, 78528, Note_on_c, 3, 62, 92
4, 78528, Note_on_c, 3, 65, 92
4, 78528, Note_on_c, 3, 70, 92
4, 78688, Note_on_c, 3, 58, 0
4, 78688, Note_on_c, 3, 62, 0
4, 78688, Note_on_c, 3, 65, 0
4, 78688, Note_on_c, 3, 70, 0
4, 78720, Note_on_c, 3, 65, 92
4, 78720, Note_on_c, 3, 70, 92
4, 78814, Note_on_c, 3, 65, 0
4, 78814, Note_on_c, 3, 70, 0
4, 78816, Note_on_c, 3, 62, 92
4, 78816, Note_on_c, 3, 65, 92
4, 78816, Note_on_c, 3, 70, 92
4, 78910, Note_on_c, 3, 62, 0
4, 78910, Note_on_c, 3, 65, 0
4, 78910, Note_on_c, 3, 70, 0
4, 78912, Note_on_c, 3, 60, 92
4, 78912, Note_on_c, 3, 63, 92
4, 78912, Note_on_c, 3, 68, 92
4, 79168, Note_on_c, 3, 60, 0
4, 79168, Note_on_c, 3, 63, 0
4, 79168, Note_on_c, 3, 68, 0
4, 79200, Note_on_c, 3, 63, 92
4, 79200, Note_on_c, 3, 68, 92
4, 79294, Note_on_c, 3, 63, 0
4, 79294, Note_on_c, 3, 68, 0
4, 79296, Note_on_c, 3, 60, 92
4, 79296, Note_on_c, 3, 63, 92
4, 79296, Note_on_c, 3, 70, 92
4, 79456, Note_on_c, 3, 60, 0
4, 79456, Note_on_c, 3, 63, 0
4, 79456, Note_on_c, 3, 70, 0
4, 79488, Note_on_c, 3, 60, 92
4, 79488, Note_on_c, 3, 63, 92
4, 79488, Note_on_c, 3, 68, 92
4, 79648, Note_on_c, 3, 60, 0
4, 79648, Note_on_c, 3, 63, 0
4, 79648, Note_on_c, 3, 68, 0
4, 79680, Note_on_c, 3, 53, 92
4, 79680, Note_on_c, 3, 58, 92
4, 79680, Note_on_c, 3, 62, 92
4, 79680, Note_on_c, 3, 65, 92
4, 79680, Note_on_c, 3, 70, 92
4, 79774, Note_on_c, 3, 53, 0
4, 79774, Note_on_c, 3, 58, 0
4, 79774, Note_on_c, 3, 62, 0
4, 79774, Note_on_c, 3, 65, 0
4, 79774, Note_on_c, 3, 70, 0
4, 79776, Note_on_c, 3, 58, 92
4, 79776, Note_on_c, 3, 62, 92
4, 79776, Note_on_c, 3, 65, 92
4, 79776, Note_on_c, 3, 70, 92
4, 79870, Note_on_c, 3, 58, 0
4, 79870, Note_on_c, 3, 62, 0
4, 79870, Note_on_c, 3, 65, 0
4, 79870, Note_on_c, 3, 70, 0
4, 79872, Note_on_c, 3, 70, 92
4, 79896, Note_on_c, 3, 65, 92
4, 79920, Note_on_c, 3, 62, 92
4, 79944, Note_on_c, 3, 58, 92
4, 79968, Note_on_c, 3, 53, 92
4, 80224, Note_on_c, 3, 53, 0
4, 80224, Note_on_c, 3, 58, 0
4, 80224, Note_on_c, 3, 62, 0
4, 80224, Note_on_c, 3, 65, 0
4, 80224, Note_on_c, 3, 70, 0
4, 80256, Note_on_c, 3, 62, 92
4, 80256, Note_on_c, 3, 65, 92
4, 80256, Note_on_c, 3, 70, 92
4, 80350, Note_on_c, 3, 62, 0
4, 80350, Note_on_c, 3, 65, 0
4, 80350, Note_on_c, 3, 70, 0
4, 80352, Note_on_c, 3, 65, 92
4, 80352, Note_on_c, 3, 70, 92
4, 80446, Note_on_c, 3, 65, 0
4, 80446, Note_on_c, 3, 70, 0
4, 80448, Note_on_c, 3, 70, 92
4, 80472, Note_on_c, 3, 65, 92
4, 80496, Note_on_c, 3, 58, 92
4, 80496, Note_on_c, 3, 62, 92
4, 80704, Note_on_c, 3, 58, 0
4, 80704, Note_on_c, 3, 62, 0
4, 80704, Note_on_c, 3, 65, 0
4, 80704, Note_on_c, 3, 70, 0
4, 80736, Note_on_c, 3, 62, 92
4, 80736, Note_on_c, 3, 65, 92
4, 80736, Note_on_c, 3, 70, 92
4, 80830, Note_on_c, 3, 62, 0
4, 80830, Note_on_c, 3, 65, 0
4, 80830, Note_on_c, 3, 70, 0
4, 80832, Note_on_c, 3, 58, 92
4, 80832, Note_on_c, 3, 62, 92
4, 80832, Note_on_c, 3, 65, 92
4, 80832, Note_on_c, 3, 70, 92
4, 80992, Note_on_c, 3, 58, 0
4, 80992, Note_on_c, 3, 62, 0
4, 80992, Note_on_c, 3, 65, 0
4, 80992, Note_on_c, 3, 70, 0
4, 81024, Note_on_c, 3, 62, 92
4, 81024, Note_on_c, 3, 65, 92
4, 81024, Note_on_c, 3, 70, 92
4, 81118, Note_on_c, 3, 62, 0
4, 81118, Note_on_c, 3, 65, 0
4, 81118, Note_on_c, 3, 70, 0
4, 81120, Note_on_c, 3, 58, 92
4, 81120, Note_on_c, 3, 62, 92
4, 81120, Note_on_c, 3, 65, 92
4, 81120, Note_on_c, 3, 70, 92
4, 81310, Note_on_c, 3, 58, 0
4, 81310, Note_on_c, 3, 62, 0
4, 81310, Note_on_c, 3, 65, 0
4, 81310, Note_on_c, 3, 70, 0
4, 81312, Note_on_c, 3, 62, 92
4, 81312, Note_on_c, 3, 65, 92
4, 81312, Note_on_c, 3, 70, 92
4, 81406, Note_on_c, 3, 62, 0
4, 81406, Note_on_c, 3, 65, 0
4, 81406, Note_on_c, 3, 70, 0
4, 81408, Note_on_c, 3, 58, 92
4, 81408, Note_on_c, 3, 62, 92
4, 81408, Note_on_c, 3, 65, 92
4, 81408, Note_on_c, 3, 70, 92
4, 81568, Note_on_c, 3, 58, 0
4, 81568, Note_on_c, 3, 62, 0
4, 81568, Note_on_c, 3, 65, 0
4, 81568, Note_on_c, 3, 70, 0
4, 81600, Note_on_c, 3, 58, 92
4, 81600, Note_on_c, 3, 62, 92
4, 81600, Note_on_c, 3, 65, 92
4, 81600, Note_on_c, 3, 70, 92
4, 81760, Note_on_c, 3, 58, 0
4, 81760, Note_on_c, 3, 62, 0
4, 81760, Note_on_c, 3, 65, 0
4, 81760, Note_on_c, 3, 70, 0
4, 81792, Note_on_c, 3, 65, 92
4, 81792, Note_on_c, 3, 70, 92
4, 81886, Note_on_c, 3, 65, 0
4, 81886, Note_on_c, 3, 70, 0
4, 81888, Note_on_c, 3, 62, 92
4, 81888, Note_on_c, 3, 65, 92
4, 81888, Note_on_c, 3, 70, 92
4, 81982, Note_on_c, 3, 62, 0
4, 81982, Note_on_c, 3, 65, 0
4, 81982, Note_on_c, 3, 70, 0
4, 81984, Note_on_c, 3, 60, 92
4, 81984, Note_on_c, 3, 63, 92
4, 81984, Note_on_c, 3, 68, 92
4, 82240, Note_on_c, 3, 60, 0
4, 82240, Note_on_c, 3, 63, 0
4, 82240, Note_on_c, 3, 68, 0
4, 82272, Note_on_c, 3, 63, 92
4, 82272, Note_on_c, 3, 68, 92
4, 82366, Note_on_c, 3, 63, 0
4, 82366, Note_on_c, 3, 68, 0
4, 82368, Note_on_c, 3, 60, 92
4, 82368, Note_on_c, 3, 63, 92
4, 82368, Note_on_c, 3, 70, 92
4, 82528, Note_on_c, 3, 60, 0
4, 82528, Note_on_c, 3, 63, 0
4, 82528, Note_on_c, 3, 70, 0
4, 82560, Note_on_c, 3, 60, 92
4, 82560, Note_on_c, 3, 63, 92
4, 82560, Note_on_c, 3, 68, 92
4, 82654, Note_on_c, 3, 60, 0
4, 82654, Note_on_c, 3, 63, 0
4, 82654, Note_on_c, 3, 68, 0
4, 82656, Note_on_c, 3, 58, 92
4, 82750, Note_on_c, 3, 58, 0
4, 82752, Note_on_c, 3, 58, 92
4, 82752, Note_on_c, 3, 65, 92
4, 82846, Note_on_c, 3, 58, 0
4, 82846, Note_on_c, 3, 65, 0
4, 82848, Note_on_c, 3, 58, 92
4, 82848, Note_on_c, 3, 65, 92
4, 82942, Note_on_c, 3, 58, 0
4, 82942, Note_on_c, 3, 65, 0
4, 82944, Note_on_c, 3, 70, 92
4, 82968, Note_on_c, 3, 65, 92
4, 82992, Note_on_c, 3, 58, 92
4, 83200, Note_on_c, 3, 58, 0
4, 83200, Note_on_c, 3, 65, 0
4, 83200, Note_on_c, 3, 70, 0
4, 83232, Note_on_c, 3, 65, 92
4, 83232, Note_on_c, 3, 70, 92
4, 83326, Note_on_c, 3, 65, 0
4, 83326, Note_on_c, 3, 70, 0
4, 83328, Note_on_c, 3, 58, 92
4, 83328, Note_on_c, 3, 65, 92
4, 83328, Note_on_c, 3, 70, 92
4, 83422, Note_on_c, 3, 58, 0
4, 83422, Note_on_c, 3, 65, 0
4, 83422, Note_on_c, 3, 70, 0
4, 83424, Note_on_c, 3, 58, 92
4, 83424, Note_on_c, 3, 65, 92
4, 83424, Note_on_c, 3, 70, 92
4, 83518, Note_on_c, 3, 58, 0
4, 83518, Note_on_c, 3, 65, 0
4, 83518, Note_on_c, 3, 70, 0
4, 83520, Note_on_c, 3, 68, 92
4, 83544, Note_on_c, 3, 63, 92
4, 83568, Note_on_c, 3, 60, 92
4, 83592, Note_on_c, 3, 56, 92
4, 83710, Note_on_c, 3, 56, 0
4, 83710, Note_on_c, 3, 60, 0
4, 83710, Note_on_c, 3, 63, 0
4, 83710, Note_on_c, 3, 68, 0
4, 83712, Note_on_c, 3, 60, 92
4, 83712, Note_on_c, 3, 63, 92
4, 83712, Note_on_c, 3, 68, 92
4, 83806, Note_on_c, 3, 63, 0
4, 83806, Note_on_c, 3, 68, 0
4, 83808, Note_on_c, 3, 63, 92
4, 83808, Note_on_c, 3, 68, 92
4, 83872, Note_on_c, 3, 60, 0
4, 83902, Note_on_c, 3, 63, 0
4, 83902, Note_on_c, 3, 68, 0
4, 83904, Note_on_c, 3, 63, 92
4, 83904, Note_on_c, 3, 70, 92
4, 83998, Note_on_c, 3, 70, 0
4, 84000, Note_on_c, 3, 70, 92
4, 84064, Note_on_c, 3, 63, 0
4, 84094, Note_on_c, 3, 70, 0
4, 84096, Note_on_c, 3, 60, 92
4, 84096, Note_on_c, 3, 63, 92
4, 84096, Note_on_c, 3, 68, 92
4, 84190, Note_on_c, 3, 63, 0
4, 84190, Note_on_c, 3, 68, 0
4, 84192, Note_on_c, 3, 63, 92
4, 84192, Note_on_c, 3, 68, 92
4, 84256, Note_on_c, 3, 60, 0
4, 84286, Note_on_c, 3, 63, 0
4, 84286, Note_on_c, 3, 68, 0
4, 84288, Note_on_c, 3, 55, 92
4, 84288, Note_on_c, 3, 58, 92
4, 84288, Note_on_c, 3, 63, 92
4, 84288, Note_on_c, 3, 67, 92
4, 84382, Note_on_c, 3, 55, 0
4, 84382, Note_on_c, 3, 58, 0
4, 84382, Note_on_c, 3, 63, 0
4, 84382, Note_on_c, 3, 67, 0
4, 84384, Note_on_c, 3, 63, 92
4, 84384, Note_on_c, 3, 67, 92
4, 84478, Note_on_c, 3, 63, 0
4, 84478, Note_on_c, 3, 67, 0
4, 84480, Note_on_c, 3, 55, 92
4, 84480, Note_on_c, 3, 58, 92
4, 84480, Note_on_c, 3, 63, 92
4, 84480, Note_on_c, 3, 70, 92
4, 84736, Note_on_c, 3, 55, 0
4, 84736, Note_on_c, 3, 58, 0
4, 84736, Note_on_c, 3, 63, 0
4, 84736, Note_on_c, 3, 70, 0
4, 84768, Note_on_c, 3, 70, 92
4, 84792, Note_on_c, 3, 63, 92
4, 84816, Note_on_c, 3, 58, 92
4, 84862, Note_on_c, 3, 58, 0
4, 84862, Note_on_c, 3, 63, 0
4, 84862, Note_on_c, 3, 70, 0
4, 84864, Note_on_c, 3, 58, 92
4, 84864, Note_on_c, 3, 63, 92
4, 84864, Note_on_c, 3, 70, 92
4, 84958, Note_on_c, 3, 58, 0
4, 84958, Note_on_c, 3, 63, 0
4, 84958, Note_on_c, 3, 70, 0
4, 84960, Note_on_c, 3, 58, 92
4, 84960, Note_on_c, 3, 62, 92
4, 84960, Note_on_c, 3, 70, 92
4, 85054, Note_on_c, 3, 58, 0
4, 85054, Note_on_c, 3, 62, 0
4, 85054, Note_on_c, 3, 70, 0
4, 85056, Note_on_c, 3, 60, 92
4, 85056, Note_on_c, 3, 70, 92
4, 85150, Note_on_c, 3, 60, 0
4, 85150, Note_on_c, 3, 70, 0
4, 85152, Note_on_c, 3, 62, 92
4, 85152, Note_on_c, 3, 70, 92
4, 85246, Note_on_c, 3, 62, 0
4, 85246, Note_on_c, 3, 70, 0
4, 85248, Note_on_c, 3, 58, 92
4, 85248, Note_on_c, 3, 62, 92
4, 85248, Note_on_c, 3, 70, 92
4, 85504, Note_on_c, 3, 58, 0
4, 85504, Note_on_c, 3, 62, 0
4, 85504, Note_on_c, 3, 70, 0
4, 85536, Note_on_c, 3, 62, 92
4, 85536, Note_on_c, 3, 70, 92
4, 85630, Note_on_c, 3, 62, 0
4, 85630, Note_on_c, 3, 70, 0
4, 85632, Note_on_c, 3, 62, 92
4, 85632, Note_on_c, 3, 70, 92
4, 85726, Note_on_c, 3, 62, 0
4, 85726, Note_on_c, 3, 70, 0
4, 85728, Note_on_c, 3, 62, 92
4, 85728, Note_on_c, 3, 70, 92
4, 85822, Note_on_c, 3, 62, 0
4, 85822, Note_on_c, 3, 70, 0
4, 85824, Note_on_c, 3, 60, 127
4, 85824, Note_on_c, 3, 63, 127
4, 85824, Note_on_c, 3, 68, 127
4, 85918, Note_on_c, 3, 60, 0
4, 85918, Note_on_c, 3, 63, 0
4, 85918, Note_on_c, 3, 68, 0
4, 85920, Note_on_c, 3, 60, 92
4, 85920, Note_on_c, 3, 63, 92
4, 85920, Note_on_c, 3, 68, 92
4, 86014, Note_on_c, 3, 60, 0
4, 86014, Note_on_c, 3, 63, 0
4, 86014, Note_on_c, 3, 68, 0
4, 86016, Note_on_c, 3, 60, 92
4, 86016, Note_on_c, 3, 63, 92
4, 86016, Note_on_c, 3, 68, 92
4, 86048, Note_on_c, 3, 60, 0
4, 86048, Note_on_c, 3, 63, 0
4, 86048, Note_on_c, 3, 68, 0
4, 86112, Note_on_c, 3, 60, 127
4, 86112, Note_on_c, 3, 63, 127
4, 86112, Note_on_c, 3, 68, 127
4, 86206, Note_on_c, 3, 60, 0
4, 86206, Note_on_c, 3, 63, 0
4, 86206, Note_on_c, 3, 68, 0
4, 86208, Note_on_c, 3, 60, 92
4, 86208, Note_on_c, 3, 63, 92
4, 86208, Note_on_c, 3, 68, 92
4, 86302, Note_on_c, 3, 60, 0
4, 86302, Note_on_c, 3, 63, 0
4, 86302, Note_on_c, 3, 68, 0
4, 86304, Note_on_c, 3, 60, 92
4, 86304, Note_on_c, 3, 63, 92
4, 86304, Note_on_c, 3, 68, 92
4, 86336, Note_on_c, 3, 60, 0
4, 86336, Note_on_c, 3, 63, 0
4, 86336, Note_on_c, 3, 68, 0
4, 86400, Note_on_c, 3, 60, 127
4, 86400, Note_on_c, 3, 63, 127
4, 86400, Note_on_c, 3, 68, 127
4, 86494, Note_on_c, 3, 60, 0
4, 86494, Note_on_c, 3, 63, 0
4, 86494, Note_on_c, 3, 68, 0
4, 86496, Note_on_c, 3, 60, 92
4, 86496, Note_on_c, 3, 63, 92
4, 86496, Note_on_c, 3, 68, 92
4, 86590, Note_on_c, 3, 60, 0
4, 86590, Note_on_c, 3, 63, 0
4, 86590, Note_on_c, 3, 68, 0
4, 86592, Note_on_c, 3, 60, 92
4, 86592, Note_on_c, 3, 63, 92
4, 86592, Note_on_c, 3, 68, 92
4, 86624, Note_on_c, 3, 60, 0
4, 86624, Note_on_c, 3, 63, 0
4, 86624, Note_on_c, 3, 68, 0
4, 86688, Note_on_c, 3, 60, 127
4, 86688, Note_on_c, 3, 63, 127
4, 86688, Note_on_c, 3, 68, 127
4, 86782, Note_on_c, 3, 60, 0
4, 86782, Note_on_c, 3, 63, 0
4, 86782, Note_on_c, 3, 68, 0
4, 86784, Note_on_c, 3, 60, 92
4, 86784, Note_on_c, 3, 63, 92
4, 86784, Note_on_c, 3, 68, 92
4, 86878, Note_on_c, 3, 60, 0
4, 86878, Note_on_c, 3, 63, 0
4, 86878, Note_on_c, 3, 68, 0
4, 86880, Note_on_c, 3, 60, 92
4, 86880, Note_on_c, 3, 63, 92
4, 86880, Note_on_c, 3, 68, 92
4, 86912, Note_on_c, 3, 60, 0
4, 86912, Note_on_c, 3, 63, 0
4, 86912, Note_on_c, 3, 68, 0
4, 86976, Note_on_c, 3, 60, 127
4, 86976, Note_on_c, 3, 63, 127
4, 86976, Note_on_c, 3, 68, 127
4, 87070, Note_on_c, 3, 60, 0
4, 87070, Note_on_c, 3, 63, 0
4, 87070, Note_on_c, 3, 68, 0
4, 87072, Note_on_c, 3, 60, 92
4, 87072, Note_on_c, 3, 63, 92
4, 87072, Note_on_c, 3, 68, 92
4, 87166, Note_on_c, 3, 60, 0
4, 87166, Note_on_c, 3, 63, 0
4, 87166, Note_on_c, 3, 68, 0
4, 87168, Note_on_c, 3, 60, 127
4, 87168, Note_on_c, 3, 63, 127
4, 87168, Note_on_c, 3, 68, 127
4, 87262, Note_on_c, 3, 60, 0
4, 87262, Note_on_c, 3, 63, 0
4, 87262, Note_on_c, 3, 68, 0
4, 87264, Note_on_c, 3, 60, 92
4, 87264, Note_on_c, 3, 63, 92
4, 87264, Note_on_c, 3, 68, 92
4, 87358, Note_on_c, 3, 60, 0
4, 87358, Note_on_c, 3, 63, 0
4, 87358, Note_on_c, 3, 68, 0
4, 87360, Note_on_c, 3, 70, 92
4, 87384, Note_on_c, 3, 65, 92
4, 87408, Note_on_c, 3, 62, 92
4, 87432, Note_on_c, 3, 58, 92
4, 87616, Note_on_c, 3, 58, 0
4, 87616, Note_on_c, 3, 62, 0
4, 87616, Note_on_c, 3, 65, 0
4, 87616, Note_on_c, 3, 70, 0
4, 87648, Note_on_c, 3, 62, 92
4, 87648, Note_on_c, 3, 65, 92
4, 87648, Note_on_c, 3, 70, 92
4, 87742, Note_on_c, 3, 62, 0
4, 87742, Note_on_c, 3, 65, 0
4, 87742, Note_on_c, 3, 70, 0
4, 87744, Note_on_c, 3, 58, 92
4, 87744, Note_on_c, 3, 62, 92
4, 87744, Note_on_c, 3, 65, 92
4, 87744, Note_on_c, 3, 70, 92
4, 87904, Note_on_c, 3, 58, 0
4, 87904, Note_on_c, 3, 62, 0
4, 87904, Note_on_c, 3, 65, 0
4, 87904, Note_on_c, 3, 70, 0
4, 87936, Note_on_c, 3, 62, 92
4, 87936, Note_on_c, 3, 65, 92
4, 87936, Note_on_c, 3, 70, 92
4, 88030, Note_on_c, 3, 62, 0
4, 88030, Note_on_c, 3, 65, 0
4, 88030, Note_on_c, 3, 70, 0
4, 88032, Note_on_c, 3, 58, 92
4, 88032, Note_on_c, 3, 62, 92
4, 88032, Note_on_c, 3, 65, 92
4, 88032, Note_on_c, 3, 70, 92
4, 88222, Note_on_c, 3, 58, 0
4, 88222, Note_on_c, 3, 62, 0
4, 88222, Note_on_c, 3, 65, 0
4, 88222, Note_on_c, 3, 70, 0
4, 88224, Note_on_c, 3, 62, 92
4, 88224, Note_on_c, 3, 65, 92
4, 88224, Note_on_c, 3, 70, 92
4, 88318, Note_on_c, 3, 62, 0
4, 88318, Note_on_c, 3, 65, 0
4, 88318, Note_on_c, 3, 70, 0
4, 88320, Note_on_c, 3, 70, 92
4, 88344, Note_on_c, 3, 65, 92
4, 88368, Note_on_c, 3, 62, 92
4, 88392, Note_on_c, 3, 58, 92
4, 88510, Note_on_c, 3, 58, 0
4, 88510, Note_on_c, 3, 62, 0
4, 88510, Note_on_c, 3, 65, 0
4, 88510, Note_on_c, 3, 70, 0
4, 88512, Note_on_c, 3, 58, 92
4, 88512, Note_on_c, 3, 62, 92
4, 88512, Note_on_c, 3, 65, 92
4, 88512, Note_on_c, 3, 70, 92
4, 88672, Note_on_c, 3, 58, 0
4, 88672, Note_on_c, 3, 62, 0
4, 88672, Note_on_c, 3, 65, 0
4, 88672, Note_on_c, 3, 70, 0
4, 88704, Note_on_c, 3, 65, 92
4, 88704, Note_on_c, 3, 70, 92
4, 88798, Note_on_c, 3, 65, 0
4, 88798, Note_on_c, 3, 70, 0
4, 88800, Note_on_c, 3, 62, 92
4, 88800, Note_on_c, 3, 65, 92
4, 88800, Note_on_c, 3, 70, 92
4, 88894, Note_on_c, 3, 62, 0
4, 88894, Note_on_c, 3, 65, 0
4, 88894, Note_on_c, 3, 70, 0
4, 88896, Note_on_c, 3, 68, 92
4, 88920, Note_on_c, 3, 63, 92
4, 88944, Note_on_c, 3, 60, 92
4, 89152, Note_on_c, 3, 60, 0
4, 89152, Note_on_c, 3, 63, 0
4, 89152, Note_on_c, 3, 68, 0
4, 89184, Note_on_c, 3, 63, 92
4, 89184, Note_on_c, 3, 68, 92
4, 89278, Note_on_c, 3, 63, 0
4, 89278, Note_on_c, 3, 68, 0
4, 89280, Note_on_c, 3, 60, 92
4, 89280, Note_on_c, 3, 63, 92
4, 89280, Note_on_c, 3, 70, 92
4, 89440, Note_on_c, 3, 60, 0
4, 89440, Note_on_c, 3, 63, 0
4, 89440, Note_on_c, 3, 70, 0
4, 89472, Note_on_c, 3, 60, 92
4, 89472, Note_on_c, 3, 63, 92
4, 89472, Note_on_c, 3, 68, 92
4, 89632, Note_on_c, 3, 60, 0
4, 89632, Note_on_c, 3, 63, 0
4, 89632, Note_on_c, 3, 68, 0
4, 89664, Note_on_c, 3, 53, 92
4, 89664, Note_on_c, 3, 58, 92
4, 89664, Note_on_c, 3, 62, 92
4, 89664, Note_on_c, 3, 65, 92
4, 89664, Note_on_c, 3, 70, 92
4, 89758, Note_on_c, 3, 53, 0
4, 89758, Note_on_c, 3, 58, 0
4, 89758, Note_on_c, 3, 62, 0
4, 89758, Note_on_c, 3, 65, 0
4, 89758, Note_on_c, 3, 70, 0
4, 89760, Note_on_c, 3, 58, 92
4, 89760, Note_on_c, 3, 62, 92
4, 89760, Note_on_c, 3, 65, 92
4, 89760, Note_on_c, 3, 70, 92
4, 89854, Note_on_c, 3, 58, 0
4, 89854, Note_on_c, 3, 62, 0
4, 89854, Note_on_c, 3, 65, 0
4, 89854, Note_on_c, 3, 70, 0
4, 89856, Note_on_c, 3, 53, 92
4, 89856, Note_on_c, 3, 58, 92
4, 89856, Note_on_c, 3, 62, 92
4, 89856, Note_on_c, 3, 65, 92
4, 89856, Note_on_c, 3, 70, 92
4, 90192, Note_on_c, 3, 53, 0
4, 90192, Note_on_c, 3, 58, 0
4, 90192, Note_on_c, 3, 62, 0
4, 90192, Note_on_c, 3, 65, 0
4, 90192, Note_on_c, 3, 70, 0
4, 90240, Note_on_c, 3, 70, 92
4, 90264, Note_on_c, 3, 65, 92
4, 90288, Note_on_c, 3, 62, 92
4, 90334, Note_on_c, 3, 62, 0
4, 90334, Note_on_c, 3, 65, 0
4, 90334, Note_on_c, 3, 70, 0
4, 90336, Note_on_c, 3, 65, 92
4, 90336, Note_on_c, 3, 70, 92
4, 90430, Note_on_c, 3, 65, 0
4, 90430, Note_on_c, 3, 70, 0
4, 90432, Note_on_c, 3, 70, 92
4, 90456, Note_on_c, 3, 65, 92
4, 90480, Note_on_c, 3, 62, 92
4, 90504, Note_on_c, 3, 58, 92
4, 90688, Note_on_c, 3, 58, 0
4, 90688, Note_on_c, 3, 62, 0
4, 90688, Note_on_c, 3, 65, 0
4, 90688, Note_on_c, 3, 70, 0
4, 90720, Note_on_c, 3, 62, 92
4, 90720, Note_on_c, 3, 65, 92
4, 90720, Note_on_c, 3, 70, 92
4, 90814, Note_on_c, 3, 62, 0
4, 90814, Note_on_c, 3, 65, 0
4, 90814, Note_on_c, 3, 70, 0
4, 90816, Note_on_c, 3, 58, 92
4, 90816, Note_on_c, 3, 62, 92
4, 90816, Note_on_c, 3, 65, 92
4, 90816, Note_on_c, 3, 70, 92
4, 90976, Note_on_c, 3, 58, 0
4, 90976, Note_on_c, 3, 62, 0
4, 90976, Note_on_c, 3, 65, 0
4, 90976, Note_on_c, 3, 70, 0
4, 91008, Note_on_c, 3, 62, 92
4, 91008, Note_on_c, 3, 65, 92
4, 91008, Note_on_c, 3, 70, 92
4, 91102, Note_on_c, 3, 62, 0
4, 91102, Note_on_c, 3, 65, 0
4, 91102, Note_on_c, 3, 70, 0
4, 91104, Note_on_c, 3, 58, 92
4, 91104, Note_on_c, 3, 62, 92
4, 91104, Note_on_c, 3, 65, 92
4, 91104, Note_on_c, 3, 70, 92
4, 91294, Note_on_c, 3, 58, 0
4, 91294, Note_on_c, 3, 62, 0
4, 91294, Note_on_c, 3, 65, 0
4, 91294, Note_on_c, 3, 70, 0
4, 91296, Note_on_c, 3, 62, 92
4, 91296, Note_on_c, 3, 65, 92
4, 91296, Note_on_c, 3, 70, 92
4, 91390, Note_on_c, 3, 62, 0
4, 91390, Note_on_c, 3, 65, 0
4, 91390, Note_on_c, 3, 70, 0
4, 91392, Note_on_c, 3, 70, 92
4, 91416, Note_on_c, 3, 65, 92
4, 91440, Note_on_c, 3, 62, 92
4, 91464, Note_on_c, 3, 58, 92
4, 91582, Note_on_c, 3, 58, 0
4, 91582, Note_on_c, 3, 62, 0
4, 91582, Note_on_c, 3, 65, 0
4, 91582, Note_on_c, 3, 70, 0
4, 91584, Note_on_c, 3, 58, 92
4, 91584, Note_on_c, 3, 62, 92
4, 91584, Note_on_c, 3, 65, 92
4, 91584, Note_on_c, 3, 70, 92
4, 91744, Note_on_c, 3, 58, 0
4, 91744, Note_on_c, 3, 62, 0
4, 91744, Note_on_c, 3, 65, 0
4, 91744, Note_on_c, 3, 70, 0
4, 91776, Note_on_c, 3, 65, 92
4, 91776, Note_on_c, 3, 70, 92
4, 91870, Note_on_c, 3, 65, 0
4, 91870, Note_on_c, 3, 70, 0
4, 91872, Note_on_c, 3, 62, 92
4, 91872, Note_on_c, 3, 65, 92
4, 91872, Note_on_c, 3, 70, 92
4, 91966, Note_on_c, 3, 62, 0
4, 91966, Note_on_c, 3, 65, 0
4, 91966, Note_on_c, 3, 70, 0
4, 91968, Note_on_c, 3, 60, 92
4, 91968, Note_on_c, 3, 63, 92
4, 91968, Note_on_c, 3, 68, 92
4, 92224, Note_on_c, 3, 60, 0
4, 92224, Note_on_c, 3, 63, 0
4, 92224, Note_on_c, 3, 68, 0
4, 92256, Note_on_c, 3, 63, 92
4, 92256, Note_on_c, 3, 68, 92
4, 92350, Note_on_c, 3, 63, 0
4, 92350, Note_on_c, 3, 68, 0
4, 92352, Note_on_c, 3, 60, 92
4, 92352, Note_on_c, 3, 63, 92
4, 92352, Note_on_c, 3, 70, 92
4, 92512, Note_on_c, 3, 60, 0
4, 92512, Note_on_c, 3, 63, 0
4, 92512, Note_on_c, 3, 70, 0
4, 92544, Note_on_c, 3, 60, 92
4, 92544, Note_on_c, 3, 63, 92
4, 92544, Note_on_c, 3, 68, 92
4, 92704, Note_on_c, 3, 60, 0
4, 92704, Note_on_c, 3, 63, 0
4, 92704, Note_on_c, 3, 68, 0
4, 92736, Note_on_c, 3, 53, 92
4, 92736, Note_on_c, 3, 58, 92
4, 92736, Note_on_c, 3, 62, 92
4, 92736, Note_on_c, 3, 65, 92
4, 92736, Note_on_c, 3, 70, 92
4, 92830, Note_on_c, 3, 53, 0
4, 92830, Note_on_c, 3, 58, 0
4, 92830, Note_on_c, 3, 62, 0
4, 92830, Note_on_c, 3, 65, 0
4, 92830, Note_on_c, 3, 70, 0
4, 92832, Note_on_c, 3, 58, 92
4, 92832, Note_on_c, 3, 62, 92
4, 92832, Note_on_c, 3, 65, 92
4, 92832, Note_on_c, 3, 70, 92
4, 92926, Note_on_c, 3, 58, 0
4, 92926, Note_on_c, 3, 62, 0
4, 92926, Note_on_c, 3, 65, 0
4, 92926, Note_on_c, 3, 70, 0
4, 92928, Note_on_c, 3, 70, 92
4, 92952, Note_on_c, 3, 65, 92
4, 92976, Note_on_c, 3, 62, 92
4, 93000, Note_on_c, 3, 58, 92
4, 93024, Note_on_c, 3, 53, 92
4, 93280, Note_on_c, 3, 53, 0
4, 93280, Note_on_c, 3, 58, 0
4, 93280, Note_on_c, 3, 62, 0
4, 93280, Note_on_c, 3, 65, 0
4, 93280, Note_on_c, 3, 70, 0
4, 93312, Note_on_c, 3, 62, 92
4, 93312, Note_on_c, 3, 65, 92
4, 93312, Note_on_c, 3, 70, 92
4, 93406, Note_on_c, 3, 62, 0
4, 93406, Note_on_c, 3, 65, 0
4, 93406, Note_on_c, 3, 70, 0
4, 93408, Note_on_c, 3, 65, 92
4, 93408, Note_on_c, 3, 70, 92
4, 93502, Note_on_c, 3, 65, 0
4, 93502, Note_on_c, 3, 70, 0
4, 93504, Note_on_c, 3, 70, 92
4, 93528, Note_on_c, 3, 65, 92
4, 93552, Note_on_c, 3, 58, 92
4, 93552, Note_on_c, 3, 62, 92
4, 93760, Note_on_c, 3, 58, 0
4, 93760, Note_on_c, 3, 62, 0
4, 93760, Note_on_c, 3, 65, 0
4, 93760, Note_on_c, 3, 70, 0
4, 93792, Note_on_c, 3, 62, 92
4, 93792, Note_on_c, 3, 65, 92
4, 93792, Note_on_c, 3, 70, 92
4, 93886, Note_on_c, 3, 62, 0
4, 93886, Note_on_c, 3, 65, 0
4, 93886, Note_on_c, 3, 70, 0
4, 93888, Note_on_c, 3, 58, 92
4, 93888, Note_on_c, 3, 62, 92
4, 93888, Note_on_c, 3, 65, 92
4, 93888, Note_on_c, 3, 70, 92
4, 94048, Note_on_c, 3, 58, 0
4, 94048, Note_on_c, 3, 62, 0
4, 94048, Note_on_c, 3, 65, 0
4, 94048, Note_on_c, 3, 70, 0
4, 94080, Note_on_c, 3, 62, 92
4, 94080, Note_on_c, 3, 65, 92
4, 94080, Note_on_c, 3, 70, 92
4, 94174, Note_on_c, 3, 62, 0
4, 94174, Note_on_c, 3, 65, 0
4, 94174, Note_on_c, 3, 70, 0
4, 94176, Note_on_c, 3, 58, 92
4, 94176, Note_on_c, 3, 62, 92
4, 94176, Note_on_c, 3, 65, 92
4, 94176, Note_on_c, 3, 70, 92
4, 94366, Note_on_c, 3, 58, 0
4, 94366, Note_on_c, 3, 62, 0
4, 94366, Note_on_c, 3, 65, 0
4, 94366, Note_on_c, 3, 70, 0
4, 94368, Note_on_c, 3, 62, 92
4, 94368, Note_on_c, 3, 65, 92
4, 94368, Note_on_c, 3, 70, 92
4, 94462, Note_on_c, 3, 62, 0
4, 94462, Note_on_c, 3, 65, 0
4, 94462, Note_on_c, 3, 70, 0
4, 94464, Note_on_c, 3, 58, 92
4, 94464, Note_on_c, 3, 62, 92
4, 94464, Note_on_c, 3, 65, 92
4, 94464, Note_on_c, 3, 70, 92
4, 94624, Note_on_c, 3, 58, 0
4, 94624, Note_on_c, 3, 62, 0
4, 94624, Note_on_c, 3, 65, 0
4, 94624, Note_on_c, 3, 70, 0
4, 94656, Note_on_c, 3, 58, 92
4, 94656, Note_on_c, 3, 62, 92
4, 94656, Note_on_c, 3, 65, 92
4, 94656, Note_on_c, 3, 70, 92
4, 94816, Note_on_c, 3, 58, 0
4, 94816, Note_on_c, 3, 62, 0
4, 94816, Note_on_c, 3, 65, 0
4, 94816, Note_on_c, 3, 70, 0
4, 94848, Note_on_c, 3, 65, 92
4, 94848, Note_on_c, 3, 70, 92
4, 94942, Note_on_c, 3, 65, 0
4, 94942, Note_on_c, 3, 70, 0
4, 94944, Note_on_c, 3, 62, 92
4, 94944, Note_on_c, 3, 65, 92
4, 94944, Note_on_c, 3, 70, 92
4, 95038, Note_on_c, 3, 62, 0
4, 95038, Note_on_c, 3, 65, 0
4, 95038, Note_on_c, 3, 70, 0
4, 95040, Note_on_c, 3, 60, 92
4, 95040, Note_on_c, 3, 63, 92
4, 95040, Note_on_c, 3, 68, 92
4, 95296, Note_on_c, 3, 60, 0
4, 95296, Note_on_c, 3, 63, 0
4, 95296, Note_on_c, 3, 68, 0
4, 95328, Note_on_c, 3, 63, 92
4, 95328, Note_on_c, 3, 68, 92
4, 95422, Note_on_c, 3, 63, 0
4, 95422, Note_on_c, 3, 68, 0
4, 95424, Note_on_c, 3, 60, 92
4, 95424, Note_on_c, 3, 63, 92
4, 95424, Note_on_c, 3, 70, 92
4, 95584, Note_on_c, 3, 60, 0
4, 95584, Note_on_c, 3, 63, 0
4, 95584, Note_on_c, 3, 70, 0
4, 95616, Note_on_c, 3, 60, 92
4, 95616, Note_on_c, 3, 63, 92
4, 95616, Note_on_c, 3, 68, 92
4, 95710, Note_on_c, 3, 60, 0
4, 95710, Note_on_c, 3, 63, 0
4, 95710, Note_on_c, 3, 68, 0
4, 95712, Note_on_c, 3, 58, 92
4, 95806, Note_on_c, 3, 58, 0
4, 95808, Note_on_c, 3, 58, 92
4, 95808, Note_on_c, 3, 65, 92
4, 95902, Note_on_c, 3, 58, 0
4, 95902, Note_on_c, 3, 65, 0
4, 95904, Note_on_c, 3, 58, 92
4, 95904, Note_on_c, 3, 65, 92
4, 95998, Note_on_c, 3, 58, 0
4, 95998, Note_on_c, 3, 65, 0
4, 96000, Note_on_c, 3, 70, 92
4, 96024, Note_on_c, 3, 65, 92
4, 96048, Note_on_c, 3, 58, 92
4, 96256, Note_on_c, 3, 58, 0
4, 96256, Note_on_c, 3, 65, 0
4, 96256, Note_on_c, 3, 70, 0
4, 96288, Note_on_c, 3, 65, 92
4, 96288, Note_on_c, 3, 70, 92
4, 96382, Note_on_c, 3, 65, 0
4, 96382, Note_on_c, 3, 70, 0
4, 96384, Note_on_c, 3, 58, 92
4, 96384, Note_on_c, 3, 65, 92
4, 96384, Note_on_c, 3, 70, 92
4, 96478, Note_on_c, 3, 58, 0
4, 96478, Note_on_c, 3, 65, 0
4, 96478, Note_on_c, 3, 70, 0
4, 96480, Note_on_c, 3, 58, 92
4, 96480, Note_on_c, 3, 65, 92
4, 96480, Note_on_c, 3, 70, 92
4, 96574, Note_on_c, 3, 58, 0
4, 96574, Note_on_c, 3, 65, 0
4, 96574, Note_on_c, 3, 70, 0
4, 96576, Note_on_c, 3, 68, 92
4, 96600, Note_on_c, 3, 63, 92
4, 96624, Note_on_c, 3, 60, 92
4, 96648, Note_on_c, 3, 56, 92
4, 96766, Note_on_c, 3, 56, 0
4, 96766, Note_on_c, 3, 60, 0
4, 96766, Note_on_c, 3, 63, 0
4, 96766, Note_on_c, 3, 68, 0
4, 96768, Note_on_c, 3, 60, 92
4, 96768, Note_on_c, 3, 63, 92
4, 96768, Note_on_c, 3, 68, 92
4, 96862, Note_on_c, 3, 63, 0
4, 96862, Note_on_c, 3, 68, 0
4, 96864, Note_on_c, 3, 63, 92
4, 96864, Note_on_c, 3, 68, 92
4, 96928, Note_on_c, 3, 60, 0
4, 96958, Note_on_c, 3, 63, 0
4, 96958, Note_on_c, 3, 68, 0
4, 96960, Note_on_c, 3, 63, 92
4, 96960, Note_on_c, 3, 70, 92
4, 97054, Note_on_c, 3, 70, 0
4, 97056, Note_on_c, 3, 70, 92
4, 97120, Note_on_c, 3, 63, 0
4, 97150, Note_on_c, 3, 70, 0
4, 97152, Note_on_c, 3, 60, 92
4, 97152, Note_on_c, 3, 63, 92
4, 97152, Note_on_c, 3, 68, 92
4, 97246, Note_on_c, 3, 63, 0
4, 97246, Note_on_c, 3, 68, 0
4, 97248, Note_on_c, 3, 63, 92
4, 97248, Note_on_c, 3, 68, 92
4, 97312, Note_on_c, 3, 60, 0
4, 97342, Note_on_c, 3, 63, 0
4, 97342, Note_on_c, 3, 68, 0
4, 97344, Note_on_c, 3, 55, 92
4, 97344, Note_on_c, 3, 58, 92
4, 97344, Note_on_c, 3, 63, 92
4, 97344, Note_on_c, 3, 67, 92
4, 97438, Note_on_c, 3, 55, 0
4, 97438, Note_on_c, 3, 58, 0
4, 97438, Note_on_c, 3, 63, 0
4, 97438, Note_on_c, 3, 67, 0
4, 97440, Note_on_c, 3, 63, 92
4, 97440, Note_on_c, 3, 67, 92
4, 97534, Note_on_c, 3, 63, 0
4, 97534, Note_on_c, 3, 67, 0
4, 97536, Note_on_c, 3, 55, 92
4, 97536, Note_on_c, 3, 58, 92
4, 97536, Note_on_c, 3, 63, 92
4, 97536, Note_on_c, 3, 70, 92
4, 97792, Note_on_c, 3, 55, 0
4, 97792, Note_on_c, 3, 58, 0
4, 97792, Note_on_c, 3, 63, 0
4, 97792, Note_on_c, 3, 70, 0
4, 97824, Note_on_c, 3, 70, 92
4, 97848, Note_on_c, 3, 63, 92
4, 97872, Note_on_c, 3, 58, 92
4, 97918, Note_on_c, 3, 58, 0
4, 97918, Note_on_c, 3, 63, 0
4, 97918, Note_on_c, 3, 70, 0
4, 97920, Note_on_c, 3, 58, 92
4, 97920, Note_on_c, 3, 63, 92
4, 97920, Note_on_c, 3, 70, 92
4, 98014, Note_on_c, 3, 58, 0
4, 98014, Note_on_c, 3, 63, 0
4, 98014, Note_on_c, 3, 70, 0
4, 98016, Note_on_c, 3, 58, 92
4, 98016, Note_on_c, 3, 62, 92
4, 98016, Note_on_c, 3, 70, 92
4, 98110, Note_on_c, 3, 58, 0
4, 98110, Note_on_c, 3, 62, 0
4, 98110, Note_on_c, 3, 70, 0
4, 98112, Note_on_c, 3, 60, 92
4, 98112, Note_on_c, 3, 70, 92
4, 98206, Note_on_c, 3, 60, 0
4, 98206, Note_on_c, 3, 70, 0
4, 98208, Note_on_c, 3, 62, 92
4, 98208, Note_on_c, 3, 70, 92
4, 98302, Note_on_c, 3, 62, 0
4, 98302, Note_on_c, 3, 70, 0
4, 98304, Note_on_c, 3, 58, 92
4, 98304, Note_on_c, 3, 62, 92
4, 98304, Note_on_c, 3, 70, 92
4, 98560, Note_on_c, 3, 58, 0
4, 98560, Note_on_c, 3, 62, 0
4, 98560, Note_on_c, 3, 70, 0
4, 98592, Note_on_c, 3, 62, 92
4, 98592, Note_on_c, 3, 70, 92
4, 98686, Note_on_c, 3, 62, 0
4, 98686, Note_on_c, 3, 70, 0
4, 98688, Note_on_c, 3, 62, 92
4, 98688, Note_on_c, 3, 70, 92
4, 98782, Note_on_c, 3, 62, 0
4, 98782, Note_on_c, 3, 70, 0
4, 98784, Note_on_c, 3, 62, 92
4, 98784, Note_on_c, 3, 70, 92
4, 98878, Note_on_c, 3, 62, 0
4, 98878, Note_on_c, 3, 70, 0
4, 98880, Note_on_c, 3, 60, 127
4, 98880, Note_on_c, 3, 63, 127
4, 98880, Note_on_c, 3, 68, 127
4, 98974, Note_on_c, 3, 60, 0
4, 98974, Note_on_c, 3, 63, 0
4, 98974, Note_on_c, 3, 68, 0
4, 98976, Note_on_c, 3, 60, 92
4, 98976, Note_on_c, 3, 63, 92
4, 98976, Note_on_c, 3, 68, 92
4, 99070, Note_on_c, 3, 60, 0
4, 99070, Note_on_c, 3, 63, 0
4, 99070, Note_on_c, 3, 68, 0
4, 99072, Note_on_c, 3, 60, 92
4, 99072, Note_on_c, 3, 63, 92
4, 99072, Note_on_c, 3, 68, 92
4, 99104, Note_on_c, 3, 60, 0
4, 99104, Note_on_c, 3, 63, 0
4, 99104, Note_on_c, 3, 68, 0
4, 99168, Note_on_c, 3, 60, 127
4, 99168, Note_on_c, 3, 63, 127
4, 99168, Note_on_c, 3, 68, 127
4, 99262, Note_on_c, 3, 60, 0
4, 99262, Note_on_c, 3, 63, 0
4, 99262, Note_on_c, 3, 68, 0
4, 99264, Note_on_c, 3, 60, 92
4, 99264, Note_on_c, 3, 63, 92
4, 99264, Note_on_c, 3, 68, 92
4, 99358, Note_on_c, 3, 60, 0
4, 99358, Note_on_c, 3, 63, 0
4, 99358, Note_on_c, 3, 68, 0
4, 99360, Note_on_c, 3, 60, 92
4, 99360, Note_on_c, 3, 63, 92
4, 99360, Note_on_c, 3, 68, 92
4, 99392, Note_on_c, 3, 60, 0
4, 99392, Note_on_c, 3, 63, 0
4, 99392, Note_on_c, 3, 68, 0
4, 99456, Note_on_c, 3, 60, 127
4, 99456, Note_on_c, 3, 63, 127
4, 99456, Note_on_c, 3, 68, 127
4, 99550, Note_on_c, 3, 60, 0
4, 99550, Note_on_c, 3, 63, 0
4, 99550, Note_on_c, 3, 68, 0
4, 99552, Note_on_c, 3, 60, 92
4, 99552, Note_on_c, 3, 63, 92
4, 99552, Note_on_c, 3, 68, 92
4, 99646, Note_on_c, 3, 60, 0
4, 99646, Note_on_c, 3, 63, 0
4, 99646, Note_on_c, 3, 68, 0
4, 99648, Note_on_c, 3, 60, 92
4, 99648, Note_on_c, 3, 63, 92
4, 99648, Note_on_c, 3, 68, 92
4, 99690, Note_on_c, 3, 60, 0
4, 99690, Note_on_c, 3, 63, 0
4, 99690, Note_on_c, 3, 68, 0
4, 99776, Note_on_c, 3, 60, 127
4, 99776, Note_on_c, 3, 63, 127
4, 99776, Note_on_c, 3, 68, 127
4, 99902, Note_on_c, 3, 60, 0
4, 99902, Note_on_c, 3, 63, 0
4, 99902, Note_on_c, 3, 68, 0
4, 99904, Note_on_c, 3, 60, 92
4, 99904, Note_on_c, 3, 63, 92
4, 99904, Note_on_c, 3, 68, 92
4, 100030, Note_on_c, 3, 60, 0
4, 100030, Note_on_c, 3, 63, 0
4, 100030, Note_on_c, 3, 68, 0
4, 100032, Note_on_c, 3, 60, 92
4, 100032, Note_on_c, 3, 63, 92
4, 100032, Note_on_c, 3, 68, 92
4, 100074, Note_on_c, 3, 60, 0
4, 100074, Note_on_c, 3, 63, 0
4, 100074, Note_on_c, 3, 68, 0
4, 100160, Note_on_c, 3, 60, 127
4, 100160, Note_on_c, 3, 63, 127
4, 100160, Note_on_c, 3, 68, 127
4, 100286, Note_on_c, 3, 60, 0
4, 100286, Note_on_c, 3, 63, 0
4, 100286, Note_on_c, 3, 68, 0
4, 100288, Note_on_c, 3, 60, 92
4, 100288, Note_on_c, 3, 63, 92
4, 100288, Note_on_c, 3, 68, 92
4, 100414, Note_on_c, 3, 60, 0
4, 100414, Note_on_c, 3, 63, 0
4, 100414, Note_on_c, 3, 68, 0
4, 100416, Note_on_c, 3, 58, 92
4, 100416, Note_on_c, 3, 63, 92
4, 100672, Note_on_c, 3, 58, 0
4, 100672, Note_on_c, 3, 63, 0
4, 100704, Note_on_c, 3, 58, 92
4, 100798, Note_on_c, 3, 58, 0
4, 100800, Note_on_c, 3, 58, 92
4, 100800, Note_on_c, 3, 63, 92
4, 100960, Note_on_c, 3, 58, 0
4, 100960, Note_on_c, 3, 63, 0
4, 100992, Note_on_c, 3, 58, 92
4, 100992, Note_on_c, 3, 63, 92
4, 101344, Note_on_c, 3, 58, 0
4, 101344, Note_on_c, 3, 63, 0
4, 101376, Note_on_c, 3, 58, 92
4, 101376, Note_on_c, 3, 63, 92
4, 101536, Note_on_c, 3, 58, 0
4, 101536, Note_on_c, 3, 63, 0
4, 101568, Note_on_c, 3, 56, 92
4, 101568, Note_on_c, 3, 61, 92
4, 101728, Note_on_c, 3, 56, 0
4, 101728, Note_on_c, 3, 61, 0
4, 101760, Note_on_c, 3, 51, 92
4, 101760, Note_on_c, 3, 56, 92
4, 101920, Note_on_c, 3, 51, 0
4, 101920, Note_on_c, 3, 56, 0
4, 101952, Note_on_c, 3, 58, 92
4, 101952, Note_on_c, 3, 63, 92
4, 102208, Note_on_c, 3, 58, 0
4, 102208, Note_on_c, 3, 63, 0
4, 102240, Note_on_c, 3, 58, 92
4, 102334, Note_on_c, 3, 58, 0
4, 102336, Note_on_c, 3, 58, 92
4, 102336, Note_on_c, 3, 63, 92
4, 102496, Note_on_c, 3, 58, 0
4, 102496, Note_on_c, 3, 63, 0
4, 102528, Note_on_c, 3, 58, 92
4, 102528, Note_on_c, 3, 63, 92
4, 102880, Note_on_c, 3, 58, 0
4, 102880, Note_on_c, 3, 63, 0
4, 102912, Note_on_c, 3, 58, 92
4, 102912, Note_on_c, 3, 63, 92
4, 103072, Note_on_c, 3, 58, 0
4, 103072, Note_on_c, 3, 63, 0
4, 103104, Note_on_c, 3, 56, 92
4, 103104, Note_on_c, 3, 61, 92
4, 103264, Note_on_c, 3, 56, 0
4, 103264, Note_on_c, 3, 61, 0
4, 103296, Note_on_c, 3, 51, 92
4, 103296, Note_on_c, 3, 56, 92
4, 103456, Note_on_c, 3, 51, 0
4, 103456, Note_on_c, 3, 56, 0
4, 103488, Note_on_c, 3, 58, 92
4, 103488, Note_on_c, 3, 63, 92
4, 103744, Note_on_c, 3, 58, 0
4, 103744, Note_on_c, 3, 63, 0
4, 103776, Note_on_c, 3, 58, 92
4, 103870, Note_on_c, 3, 58, 0
4, 103872, Note_on_c, 3, 58, 92
4, 103872, Note_on_c, 3, 63, 92
4, 104032, Note_on_c, 3, 58, 0
4, 104032, Note_on_c, 3, 63, 0
4, 104064, Note_on_c, 3, 58, 92
4, 104064, Note_on_c, 3, 63, 92
4, 104416, Note_on_c, 3, 58, 0
4, 104416, Note_on_c, 3, 63, 0
4, 104448, Note_on_c, 3, 58, 92
4, 104448, Note_on_c, 3, 63, 92
4, 104608, Note_on_c, 3, 58, 0
4, 104608, Note_on_c, 3, 63, 0
4, 104640, Note_on_c, 3, 56, 92
4, 104640, Note_on_c, 3, 61, 92
4, 104800, Note_on_c, 3, 56, 0
4, 104800, Note_on_c, 3, 61, 0
4, 104832, Note_on_c, 3, 51, 92
4, 104832, Note_on_c, 3, 56, 92
4, 104992, Note_on_c, 3, 51, 0
4, 104992, Note_on_c, 3, 56, 0
4, 105024, Note_on_c, 3, 58, 92
4, 105024, Note_on_c, 3, 63, 92
4, 105280, Note_on_c, 3, 58, 0
4, 105280, Note_on_c, 3, 63, 0
4, 105312, Note_on_c, 3, 58, 92
4, 105406, Note_on_c, 3, 58, 0
4, 105408, Note_on_c, 3, 58, 92
4, 105408, Note_on_c, 3, 63, 92
4, 105568, Note_on_c, 3, 58, 0
4, 105568, Note_on_c, 3, 63, 0
4, 105600, Note_on_c, 3, 58, 92
4, 105600, Note_on_c, 3, 63, 92
4, 105952, Note_on_c, 3, 58, 0
4, 105952, Note_on_c, 3, 63, 0
4, 105984, Note_on_c, 3, 58, 92
4, 105984, Note_on_c, 3, 63, 92
4, 106144, Note_on_c, 3, 58, 0
4, 106144, Note_on_c, 3, 63, 0
4, 106176, Note_on_c, 3, 56, 92
4, 106176, Note_on_c, 3, 61, 92
4, 106336, Note_on_c, 3, 56, 0
4, 106336, Note_on_c, 3, 61, 0
4, 106368, Note_on_c, 3, 51, 92
4, 106368, Note_on_c, 3, 56, 92
4, 106528, Note_on_c, 3, 51, 0
4, 106528, Note_on_c, 3, 56, 0
4, 110976, Note_on_c, 3, 64, 92
4, 110976, Note_on_c, 3, 67, 92
4, 110976, Note_on_c, 3, 72, 92
4, 111136, Note_on_c, 3, 64, 0
4, 111136, Note_on_c, 3, 67, 0
4, 111136, Note_on_c, 3, 72, 0
4, 111360, Note_on_c, 3, 64, 92
4, 111360, Note_on_c, 3, 67, 92
4, 111360, Note_on_c, 3, 72, 92
4, 111888, Note_on_c, 3, 64, 0
4, 111888, Note_on_c, 3, 67, 0
4, 111888, Note_on_c, 3, 72, 0
4, 112512, Note_on_c, 3, 64, 92
4, 112512, Note_on_c, 3, 67, 92
4, 112512, Note_on_c, 3, 72, 92
4, 112672, Note_on_c, 3, 64, 0
4, 112672, Note_on_c, 3, 67, 0
4, 112672, Note_on_c, 3, 72, 0
4, 112896, Note_on_c, 3, 64, 92
4, 112896, Note_on_c, 3, 67, 92
4, 112896, Note_on_c, 3, 72, 92
4, 113424, Note_on_c, 3, 64, 0
4, 113424, Note_on_c, 3, 67, 0
4, 113424, Note_on_c, 3, 72, 0
4, 114048, Note_on_c, 3, 64, 92
4, 114048, Note_on_c, 3, 67, 92
4, 114048, Note_on_c, 3, 72, 92
4, 114208, Note_on_c, 3, 64, 0
4, 114208, Note_on_c, 3, 67, 0
4, 114208, Note_on_c, 3, 72, 0
4, 114432, Note_on_c, 3, 64, 92
4, 114432, Note_on_c, 3, 67, 92
4, 114432, Note_on_c, 3, 72, 92
4, 114960, Note_on_c, 3, 64, 0
4, 114960, Note_on_c, 3, 67, 0
4, 114960, Note_on_c, 3, 72, 0
4, 115584, Note_on_c, 3, 64, 92
4, 115584, Note_on_c, 3, 67, 92
4, 115584, Note_on_c, 3, 72, 92
4, 115744, Note_on_c, 3, 64, 0
4, 115744, Note_on_c, 3, 67, 0
4, 115744, Note_on_c, 3, 72, 0
4, 115968, Note_on_c, 3, 64, 92
4, 115968, Note_on_c, 3, 67, 92
4, 115968, Note_on_c, 3, 72, 92
4, 116496, Note_on_c, 3, 64, 0
4, 116496, Note_on_c, 3, 67, 0
4, 116496, Note_on_c, 3, 72, 0
4, 120768, Note_on_c, 3, 66, 92
4, 120768, Note_on_c, 3, 69, 92
4, 120768, Note_on_c, 3, 74, 92
4, 121104, Note_on_c, 3, 66, 0
4, 121104, Note_on_c, 3, 69, 0
4, 121104, Note_on_c, 3, 74, 0
4, 121152, Note_on_c, 3, 66, 92
4, 121152, Note_on_c, 3, 69, 92
4, 121152, Note_on_c, 3, 74, 92
4, 121312, Note_on_c, 3, 66, 0
4, 121312, Note_on_c, 3, 69, 0
4, 121312, Note_on_c, 3, 74, 0
4, 121344, Note_on_c, 3, 66, 92
4, 121344, Note_on_c, 3, 69, 92
4, 121344, Note_on_c, 3, 74, 92
4, 121696, Note_on_c, 3, 66, 0
4, 121696, Note_on_c, 3, 69, 0
4, 121696, Note_on_c, 3, 74, 0
4, 121728, Note_on_c, 3, 66, 92
4, 121728, Note_on_c, 3, 69, 92
4, 121728, Note_on_c, 3, 74, 92
4, 121888, Note_on_c, 3, 66, 0
4, 121888, Note_on_c, 3, 69, 0
4, 121888, Note_on_c, 3, 74, 0
4, 121920, Note_on_c, 3, 64, 92
4, 121920, Note_on_c, 3, 67, 92
4, 121920, Note_on_c, 3, 72, 92
4, 122080, Note_on_c, 3, 64, 0
4, 122080, Note_on_c, 3, 67, 0
4, 122080, Note_on_c, 3, 72, 0
4, 122112, Note_on_c, 3, 64, 92
4, 122112, Note_on_c, 3, 67, 92
4, 122112, Note_on_c, 3, 72, 92
4, 122272, Note_on_c, 3, 64, 0
4, 122272, Note_on_c, 3, 67, 0
4, 122272, Note_on_c, 3, 72, 0
4, 122304, Note_on_c, 3, 66, 92
4, 122304, Note_on_c, 3, 69, 92
4, 122304, Note_on_c, 3, 74, 92
4, 122640, Note_on_c, 3, 66, 0
4, 122640, Note_on_c, 3, 69, 0
4, 122640, Note_on_c, 3, 74, 0
4, 122688, Note_on_c, 3, 66, 92
4, 122688, Note_on_c, 3, 69, 92
4, 122688, Note_on_c, 3, 74, 92
4, 122848, Note_on_c, 3, 66, 0
4, 122848, Note_on_c, 3, 69, 0
4, 122848, Note_on_c, 3, 74, 0
4, 122880, Note_on_c, 3, 66, 92
4, 122880, Note_on_c, 3, 69, 92
4, 122880, Note_on_c, 3, 74, 92
4, 123232, Note_on_c, 3, 66, 0
4, 123232, Note_on_c, 3, 69, 0
4, 123232, Note_on_c, 3, 74, 0
4, 123264, Note_on_c, 3, 66, 92
4, 123264, Note_on_c, 3, 69, 92
4, 123264, Note_on_c, 3, 74, 92
4, 123424, Note_on_c, 3, 66, 0
4, 123424, Note_on_c, 3, 69, 0
4, 123424, Note_on_c, 3, 74, 0
4, 123456, Note_on_c, 3, 64, 92
4, 123456, Note_on_c, 3, 67, 92
4, 123456, Note_on_c, 3, 72, 92
4, 123616, Note_on_c, 3, 64, 0
4, 123616, Note_on_c, 3, 67, 0
4, 123616, Note_on_c, 3, 72, 0
4, 123648, Note_on_c, 3, 64, 92
4, 123648, Note_on_c, 3, 67, 92
4, 123648, Note_on_c, 3, 72, 92
4, 123808, Note_on_c, 3, 64, 0
4, 123808, Note_on_c, 3, 67, 0
4, 123808, Note_on_c, 3, 72, 0
4, 123840, Note_on_c, 3, 66, 92
4, 123840, Note_on_c, 3, 69, 92
4, 123840, Note_on_c, 3, 74, 92
4, 124176, Note_on_c, 3, 66, 0
4, 124176, Note_on_c, 3, 69, 0
4, 124176, Note_on_c, 3, 74, 0
4, 124224, Note_on_c, 3, 66, 92
4, 124224, Note_on_c, 3, 69, 92
4, 124224, Note_on_c, 3, 74, 92
4, 124384, Note_on_c, 3, 66, 0
4, 124384, Note_on_c, 3, 69, 0
4, 124384, Note_on_c, 3, 74, 0
4, 124416, Note_on_c, 3, 66, 92
4, 124416, Note_on_c, 3, 69, 92
4, 124416, Note_on_c, 3, 74, 92
4, 124768, Note_on_c, 3, 66, 0
4, 124768, Note_on_c, 3, 69, 0
4, 124768, Note_on_c, 3, 74, 0
4, 124800, Note_on_c, 3, 66, 92
4, 124800, Note_on_c, 3, 69, 92
4, 124800, Note_on_c, 3, 74, 92
4, 124960, Note_on_c, 3, 66, 0
4, 124960, Note_on_c, 3, 69, 0
4, 124960, Note_on_c, 3, 74, 0
4, 124992, Note_on_c, 3, 64, 92
4, 124992, Note_on_c, 3, 67, 92
4, 124992, Note_on_c, 3, 72, 92
4, 125152, Note_on_c, 3, 64, 0
4, 125152, Note_on_c, 3, 67, 0
4, 125152, Note_on_c, 3, 72, 0
4, 125184, Note_on_c, 3, 64, 92
4, 125184, Note_on_c, 3, 67, 92
4, 125184, Note_on_c, 3, 72, 92
4, 125344, Note_on_c, 3, 64, 0
4, 125344, Note_on_c, 3, 67, 0
4, 125344, Note_on_c, 3, 72, 0
4, 125376, Note_on_c, 3, 66, 92
4, 125376, Note_on_c, 3, 69, 92
4, 125376, Note_on_c, 3, 74, 92
4, 125712, Note_on_c, 3, 66, 0
4, 125712, Note_on_c, 3, 69, 0
4, 125712, Note_on_c, 3, 74, 0
4, 125760, Note_on_c, 3, 66, 92
4, 125760, Note_on_c, 3, 69, 92
4, 125760, Note_on_c, 3, 74, 92
4, 125920, Note_on_c, 3, 66, 0
4, 125920, Note_on_c, 3, 69, 0
4, 125920, Note_on_c, 3, 74, 0
4, 125952, Note_on_c, 3, 66, 92
4, 125952, Note_on_c, 3, 69, 92
4, 125952, Note_on_c, 3, 74, 92
4, 126304, Note_on_c, 3, 66, 0
4, 126304, Note_on_c, 3, 69, 0
4, 126304, Note_on_c, 3, 74, 0
4, 126336, Note_on_c, 3, 66, 92
4, 126336, Note_on_c, 3, 69, 92
4, 126336, Note_on_c, 3, 74, 92
4, 126496, Note_on_c, 3, 66, 0
4, 126496, Note_on_c, 3, 69, 0
4, 126496, Note_on_c, 3, 74, 0
4, 126528, Note_on_c, 3, 64, 92
4, 126528, Note_on_c, 3, 67, 92
4, 126528, Note_on_c, 3, 72, 92
4, 126688, Note_on_c, 3, 64, 0
4, 126688, Note_on_c, 3, 67, 0
4, 126688, Note_on_c, 3, 72, 0
4, 126720, Note_on_c, 3, 64, 92
4, 126720, Note_on_c, 3, 67, 92
4, 126720, Note_on_c, 3, 72, 92
4, 126880, Note_on_c, 3, 64, 0
4, 126880, Note_on_c, 3, 67, 0
4, 126880, Note_on_c, 3, 72, 0
4, 127488, Note_on_c, 3, 62, 92
4, 127536, Note_on_c, 3, 62, 0
4, 127680, Note_on_c, 3, 62, 92
4, 127774, Note_on_c, 3, 62, 0
4, 127776, Note_on_c, 3, 60, 92
4, 127870, Note_on_c, 3, 60, 0
4, 127872, Note_on_c, 3, 62, 92
4, 127920, Note_on_c, 3, 62, 0
4, 128064, Note_on_c, 3, 62, 92
4, 128224, Note_on_c, 3, 62, 0
4, 128256, Note_on_c, 3, 60, 92
4, 128416, Note_on_c, 3, 60, 0
4, 128448, Note_on_c, 3, 57, 92
4, 128608, Note_on_c, 3, 57, 0
4, 128640, Note_on_c, 3, 55, 92
4, 128800, Note_on_c, 3, 55, 0
4, 128832, Note_on_c, 3, 57, 92
4, 128992, Note_on_c, 3, 57, 0
4, 129024, Note_on_c, 3, 58, 92
4, 129184, Note_on_c, 3, 58, 0
4, 129792, Note_on_c, 3, 60, 92
4, 129952, Note_on_c, 3, 60, 0
4, 129984, Note_on_c, 3, 60, 92
4, 130078, Note_on_c, 3, 60, 0
4, 130080, Note_on_c, 3, 58, 92
4, 130174, Note_on_c, 3, 58, 0
4, 130176, Note_on_c, 3, 60, 92
4, 130336, Note_on_c, 3, 60, 0
4, 130368, Note_on_c, 3, 60, 92
4, 130528, Note_on_c, 3, 60, 0
4, 130560, Note_on_c, 3, 58, 92
4, 130720, Note_on_c, 3, 58, 0
4, 130752, Note_on_c, 3, 55, 92
4, 130912, Note_on_c, 3, 55, 0
4, 130944, Note_on_c, 3, 53, 92
4, 131104, Note_on_c, 3, 53, 0
4, 131136, Note_on_c, 3, 55, 92
4, 131296, Note_on_c, 3, 55, 0
4, 131328, Note_on_c, 3, 56, 92
4, 131488, Note_on_c, 3, 56, 0
4, 132096, Note_on_c, 3, 58, 92
4, 132256, Note_on_c, 3, 58, 0
4, 132288, Note_on_c, 3, 58, 92
4, 132382, Note_on_c, 3, 58, 0
4, 132384, Note_on_c, 3, 56, 92
4, 132478, Note_on_c, 3, 56, 0
4, 132480, Note_on_c, 3, 58, 92
4, 132640, Note_on_c, 3, 58, 0
4, 132672, Note_on_c, 3, 62, 92
4, 132832, Note_on_c, 3, 62, 0
4, 132864, Note_on_c, 3, 60, 92
4, 133024, Note_on_c, 3, 60, 0
4, 133056, Note_on_c, 3, 58, 92
4, 133216, Note_on_c, 3, 58, 0
4, 133248, Note_on_c, 3, 55, 92
4, 133408, Note_on_c, 3, 55, 0
4, 133440, Note_on_c, 3, 57, 92
4, 133600, Note_on_c, 3, 57, 0
4, 133632, Note_on_c, 3, 58, 92
4, 133792, Note_on_c, 3, 58, 0
4, 134400, Note_on_c, 3, 57, 92
4, 134560, Note_on_c, 3, 57, 0
4, 134592, Note_on_c, 3, 58, 92
4, 134752, Note_on_c, 3, 58, 0
4, 134784, Note_on_c, 3, 60, 92
4, 134944, Note_on_c, 3, 60, 0
4, 134976, Note_on_c, 3, 69, 92
4, 135136, Note_on_c, 3, 69, 0
4, 135168, Note_on_c, 3, 70, 92
4, 135328, Note_on_c, 3, 70, 0
4, 135360, Note_on_c, 3, 72, 92
4, 135520, Note_on_c, 3, 72, 0
4, 135552, Note_on_c, 3, 69, 92
4, 135712, Note_on_c, 3, 69, 0
4, 135744, Note_on_c, 3, 70, 92
4, 135904, Note_on_c, 3, 70, 0
4, 135936, Note_on_c, 3, 72, 92
4, 136096, Note_on_c, 3, 72, 0
4, 138240, Note_on_c, 3, 74, 92
4, 138960, Note_on_c, 3, 74, 0
4, 140352, Note_on_c, 3, 58, 92
4, 140352, Note_on_c, 3, 62, 92
4, 140352, Note_on_c, 3, 67, 92
4, 140688, Note_on_c, 3, 58, 0
4, 140688, Note_on_c, 3, 62, 0
4, 140688, Note_on_c, 3, 67, 0
4, 140736, Note_on_c, 3, 58, 92
4, 140736, Note_on_c, 3, 62, 92
4, 140736, Note_on_c, 3, 67, 92
4, 140896, Note_on_c, 3, 58, 0
4, 140896, Note_on_c, 3, 62, 0
4, 140896, Note_on_c, 3, 67, 0
4, 140928, Note_on_c, 3, 58, 92
4, 140928, Note_on_c, 3, 62, 92
4, 140928, Note_on_c, 3, 67, 92
4, 141280, Note_on_c, 3, 58, 0
4, 141280, Note_on_c, 3, 62, 0
4, 141280, Note_on_c, 3, 67, 0
4, 141312, Note_on_c, 3, 58, 92
4, 141312, Note_on_c, 3, 62, 92
4, 141312, Note_on_c, 3, 67, 92
4, 141472, Note_on_c, 3, 58, 0
4, 141472, Note_on_c, 3, 62, 0
4, 141472, Note_on_c, 3, 67, 0
4, 141504, Note_on_c, 3, 57, 92
4, 141504, Note_on_c, 3, 60, 92
4, 141504, Note_on_c, 3, 65, 92
4, 141840, Note_on_c, 3, 57, 0
4, 141840, Note_on_c, 3, 60, 0
4, 141840, Note_on_c, 3, 65, 0
4, 141888, Note_on_c, 3, 55, 92
4, 141888, Note_on_c, 3, 58, 92
4, 141888, Note_on_c, 3, 63, 92
4, 142224, Note_on_c, 3, 55, 0
4, 142224, Note_on_c, 3, 58, 0
4, 142224, Note_on_c, 3, 63, 0
4, 142272, Note_on_c, 3, 55, 92
4, 142272, Note_on_c, 3, 58, 92
4, 142272, Note_on_c, 3, 63, 92
4, 142432, Note_on_c, 3, 55, 0
4, 142432, Note_on_c, 3, 58, 0
4, 142432, Note_on_c, 3, 63, 0
4, 142464, Note_on_c, 3, 55, 92
4, 142464, Note_on_c, 3, 58, 92
4, 142464, Note_on_c, 3, 63, 92
4, 142816, Note_on_c, 3, 55, 0
4, 142816, Note_on_c, 3, 58, 0
4, 142816, Note_on_c, 3, 63, 0
4, 142848, Note_on_c, 3, 53, 92
4, 142848, Note_on_c, 3, 58, 92
4, 142848, Note_on_c, 3, 61, 92
4, 143008, Note_on_c, 3, 53, 0
4, 143008, Note_on_c, 3, 58, 0
4, 143008, Note_on_c, 3, 61, 0
4, 143040, Note_on_c, 3, 53, 92
4, 143040, Note_on_c, 3, 58, 92
4, 143040, Note_on_c, 3, 61, 92
4, 143376, Note_on_c, 3, 53, 0
4, 143376, Note_on_c, 3, 58, 0
4, 143376, Note_on_c, 3, 61, 0
4, 143424, Note_on_c, 3, 58, 92
4, 143424, Note_on_c, 3, 65, 92
4, 143760, Note_on_c, 3, 58, 0
4, 143760, Note_on_c, 3, 65, 0
4, 143808, Note_on_c, 3, 58, 92
4, 143808, Note_on_c, 3, 65, 92
4, 143968, Note_on_c, 3, 58, 0
4, 143968, Note_on_c, 3, 65, 0
4, 144000, Note_on_c, 3, 58, 92
4, 144000, Note_on_c, 3, 65, 92
4, 144352, Note_on_c, 3, 58, 0
4, 144352, Note_on_c, 3, 65, 0
4, 144384, Note_on_c, 3, 58, 92
4, 144384, Note_on_c, 3, 65, 92
4, 144544, Note_on_c, 3, 58, 0
4, 144544, Note_on_c, 3, 65, 0
4, 144576, Note_on_c, 3, 56, 92
4, 144576, Note_on_c, 3, 63, 92
4, 144912, Note_on_c, 3, 56, 0
4, 144912, Note_on_c, 3, 63, 0
4, 144960, Note_on_c, 3, 53, 127
4, 144960, Note_on_c, 3, 58, 127
4, 144960, Note_on_c, 3, 65, 127
4, 145120, Note_on_c, 3, 53, 0
4, 145120, Note_on_c, 3, 58, 0
4, 145120, Note_on_c, 3, 65, 0
4, 145152, Note_on_c, 3, 53, 92
4, 145152, Note_on_c, 3, 58, 92
4, 145152, Note_on_c, 3, 65, 92
4, 145312, Note_on_c, 3, 53, 0
4, 145312, Note_on_c, 3, 58, 0
4, 145312, Note_on_c, 3, 65, 0
4, 145344, Note_on_c, 3, 53, 92
4, 145344, Note_on_c, 3, 58, 92
4, 145344, Note_on_c, 3, 65, 92
4, 145504, Note_on_c, 3, 53, 0
4, 145504, Note_on_c, 3, 58, 0
4, 145504, Note_on_c, 3, 65, 0
4, 145536, Note_on_c, 3, 53, 127
4, 145536, Note_on_c, 3, 58, 127
4, 145536, Note_on_c, 3, 65, 127
4, 145696, Note_on_c, 3, 53, 0
4, 145696, Note_on_c, 3, 58, 0
4, 145696, Note_on_c, 3, 65, 0
4, 145728, Note_on_c, 3, 53, 92
4, 145728, Note_on_c, 3, 58, 92
4, 145728, Note_on_c, 3, 65, 92
4, 145888, Note_on_c, 3, 53, 0
4, 145888, Note_on_c, 3, 58, 0
4, 145888, Note_on_c, 3, 65, 0
4, 145920, Note_on_c, 3, 53, 92
4, 145920, Note_on_c, 3, 58, 92
4, 145920, Note_on_c, 3, 65, 92
4, 146080, Note_on_c, 3, 53, 0
4, 146080, Note_on_c, 3, 58, 0
4, 146080, Note_on_c, 3, 65, 0
4, 146112, Note_on_c, 3, 51, 92
4, 146112, Note_on_c, 3, 56, 92
4, 146112, Note_on_c, 3, 63, 92
4, 146272, Note_on_c, 3, 51, 0
4, 146272, Note_on_c, 3, 56, 0
4, 146272, Note_on_c, 3, 63, 0
4, 146304, Note_on_c, 3, 51, 92
4, 146304, Note_on_c, 3, 56, 92
4, 146304, Note_on_c, 3, 63, 92
4, 146464, Note_on_c, 3, 51, 0
4, 146464, Note_on_c, 3, 56, 0
4, 146464, Note_on_c, 3, 63, 0
4, 146496, Note_on_c, 3, 65, 127
4, 146496, Note_on_c, 3, 70, 127
4, 146496, Note_on_c, 3, 77, 127
4, 146656, Note_on_c, 3, 65, 0
4, 146656, Note_on_c, 3, 70, 0
4, 146656, Note_on_c, 3, 77, 0
4, 146688, Note_on_c, 3, 65, 92
4, 146688, Note_on_c, 3, 70, 92
4, 146688, Note_on_c, 3, 77, 92
4, 146782, Note_on_c, 3, 65, 0
4, 146782, Note_on_c, 3, 70, 0
4, 146782, Note_on_c, 3, 77, 0
4, 146784, Note_on_c, 3, 65, 92
4, 146784, Note_on_c, 3, 70, 92
4, 146784, Note_on_c, 3, 77, 92
4, 146878, Note_on_c, 3, 65, 0
4, 146878, Note_on_c, 3, 70, 0
4, 146878, Note_on_c, 3, 77, 0
4, 146880, Note_on_c, 3, 65, 92
4, 146880, Note_on_c, 3, 70, 92
4, 146880, Note_on_c, 3, 77, 92
4, 147040, Note_on_c, 3, 65, 0
4, 147040, Note_on_c, 3, 70, 0
4, 147040, Note_on_c, 3, 77, 0
4, 147072, Note_on_c, 3, 65, 127
4, 147072, Note_on_c, 3, 70, 127
4, 147072, Note_on_c, 3, 77, 127
4, 147232, Note_on_c, 3, 65, 0
4, 147232, Note_on_c, 3, 70, 0
4, 147232, Note_on_c, 3, 77, 0
4, 147264, Note_on_c, 3, 65, 92
4, 147264, Note_on_c, 3, 70, 92
4, 147264, Note_on_c, 3, 77, 92
4, 147358, Note_on_c, 3, 65, 0
4, 147358, Note_on_c, 3, 70, 0
4, 147358, Note_on_c, 3, 77, 0
4, 147360, Note_on_c, 3, 65, 92
4, 147360, Note_on_c, 3, 70, 92
4, 147360, Note_on_c, 3, 77, 92
4, 147454, Note_on_c, 3, 65, 0
4, 147454, Note_on_c, 3, 70, 0
4, 147454, Note_on_c, 3, 77, 0
4, 147456, Note_on_c, 3, 65, 92
4, 147456, Note_on_c, 3, 70, 92
4, 147456, Note_on_c, 3, 77, 92
4, 147616, Note_on_c, 3, 65, 0
4, 147616, Note_on_c, 3, 70, 0
4, 147616, Note_on_c, 3, 77, 0
4, 147648, Note_on_c, 3, 63, 92
4, 147648, Note_on_c, 3, 68, 92
4, 147648, Note_on_c, 3, 75, 92
4, 147694, Note_on_c, 3, 63, 0
4, 147694, Note_on_c, 3, 68, 0
4, 147694, Note_on_c, 3, 75, 0
4, 147696, Note_on_c, 3, 68, 92
4, 147696, Note_on_c, 3, 75, 92
4, 147742, Note_on_c, 3, 68, 0
4, 147742, Note_on_c, 3, 75, 0
4, 147744, Note_on_c, 3, 63, 92
4, 147744, Note_on_c, 3, 68, 92
4, 147744, Note_on_c, 3, 75, 92
4, 147790, Note_on_c, 3, 63, 0
4, 147790, Note_on_c, 3, 68, 0
4, 147790, Note_on_c, 3, 75, 0
4, 147792, Note_on_c, 3, 63, 92
4, 147792, Note_on_c, 3, 68, 92
4, 147792, Note_on_c, 3, 75, 92
4, 147838, Note_on_c, 3, 63, 0
4, 147838, Note_on_c, 3, 68, 0
4, 147838, Note_on_c, 3, 75, 0
4, 147840, Note_on_c, 3, 63, 92
4, 147840, Note_on_c, 3, 68, 92
4, 147840, Note_on_c, 3, 75, 92
4, 148000, Note_on_c, 3, 63, 0
4, 148000, Note_on_c, 3, 68, 0
4, 148000, Note_on_c, 3, 75, 0
4, 148032, Note_on_c, 3, 53, 127
4, 148032, Note_on_c, 3, 58, 127
4, 148032, Note_on_c, 3, 65, 127
4, 148192, Note_on_c, 3, 53, 0
4, 148192, Note_on_c, 3, 58, 0
4, 148192, Note_on_c, 3, 65, 0
4, 148224, Note_on_c, 3, 53, 92
4, 148224, Note_on_c, 3, 58, 92
4, 148224, Note_on_c, 3, 65, 92
4, 148384, Note_on_c, 3, 53, 0
4, 148384, Note_on_c, 3, 58, 0
4, 148384, Note_on_c, 3, 65, 0
4, 148416, Note_on_c, 3, 53, 92
4, 148416, Note_on_c, 3, 58, 92
4, 148416, Note_on_c, 3, 65, 92
4, 148576, Note_on_c, 3, 53, 0
4, 148576, Note_on_c, 3, 58, 0
4, 148576, Note_on_c, 3, 65, 0
4, 148608, Note_on_c, 3, 53, 127
4, 148608, Note_on_c, 3, 58, 127
4, 148608, Note_on_c, 3, 65, 127
4, 148768, Note_on_c, 3, 53, 0
4, 148768, Note_on_c, 3, 58, 0
4, 148768, Note_on_c, 3, 65, 0
4, 148800, Note_on_c, 3, 53, 92
4, 148800, Note_on_c, 3, 58, 92
4, 148800, Note_on_c, 3, 65, 92
4, 148960, Note_on_c, 3, 53, 0
4, 148960, Note_on_c, 3, 58, 0
4, 148960, Note_on_c, 3, 65, 0
4, 148992, Note_on_c, 3, 53, 92
4, 148992, Note_on_c, 3, 58, 92
4, 148992, Note_on_c, 3, 65, 92
4, 149152, Note_on_c, 3, 53, 0
4, 149152, Note_on_c, 3, 58, 0
4, 149152, Note_on_c, 3, 65, 0
4, 149184, Note_on_c, 3, 51, 92
4, 149184, Note_on_c, 3, 56, 92
4, 149184, Note_on_c, 3, 63, 92
4, 149344, Note_on_c, 3, 51, 0
4, 149344, Note_on_c, 3, 56, 0
4, 149344, Note_on_c, 3, 63, 0
4, 149376, Note_on_c, 3, 51, 92
4, 149376, Note_on_c, 3, 56, 92
4, 149376, Note_on_c, 3, 63, 92
4, 149536, Note_on_c, 3, 51, 0
4, 149536, Note_on_c, 3, 56, 0
4, 149536, Note_on_c, 3, 63, 0
4, 149568, Note_on_c, 3, 70, 92
4, 149592, Note_on_c, 3, 65, 92
4, 149616, Note_on_c, 3, 58, 92
4, 149616, Note_on_c, 3, 63, 92
4, 149758, Note_on_c, 3, 58, 0
4, 149758, Note_on_c, 3, 63, 0
4, 149758, Note_on_c, 3, 65, 0
4, 149758, Note_on_c, 3, 70, 0
4, 149760, Note_on_c, 3, 65, 92
4, 149760, Note_on_c, 3, 70, 92
4, 149854, Note_on_c, 3, 65, 0
4, 149854, Note_on_c, 3, 70, 0
4, 149856, Note_on_c, 3, 65, 92
4, 149856, Note_on_c, 3, 70, 92
4, 149950, Note_on_c, 3, 65, 0
4, 149950, Note_on_c, 3, 70, 0
4, 149952, Note_on_c, 3, 58, 92
4, 149952, Note_on_c, 3, 65, 92
4, 149952, Note_on_c, 3, 70, 92
4, 150112, Note_on_c, 3, 58, 0
4, 150112, Note_on_c, 3, 65, 0
4, 150112, Note_on_c, 3, 70, 0
4, 150144, Note_on_c, 3, 65, 92
4, 150144, Note_on_c, 3, 70, 92
4, 150238, Note_on_c, 3, 65, 0
4, 150238, Note_on_c, 3, 70, 0
4, 150240, Note_on_c, 3, 58, 92
4, 150240, Note_on_c, 3, 65, 92
4, 150240, Note_on_c, 3, 70, 92
4, 150430, Note_on_c, 3, 58, 0
4, 150430, Note_on_c, 3, 65, 0
4, 150430, Note_on_c, 3, 70, 0
4, 150432, Note_on_c, 3, 65, 92
4, 150432, Note_on_c, 3, 70, 92
4, 150526, Note_on_c, 3, 65, 0
4, 150526, Note_on_c, 3, 70, 0
4, 150528, Note_on_c, 3, 70, 92
4, 150552, Note_on_c, 3, 65, 92
4, 150576, Note_on_c, 3, 58, 92
4, 150718, Note_on_c, 3, 58, 0
4, 150718, Note_on_c, 3, 65, 0
4, 150718, Note_on_c, 3, 70, 0
4, 150720, Note_on_c, 3, 58, 92
4, 150720, Note_on_c, 3, 65, 92
4, 150720, Note_on_c, 3, 70, 92
4, 150880, Note_on_c, 3, 58, 0
4, 150880, Note_on_c, 3, 65, 0
4, 150880, Note_on_c, 3, 70, 0
4, 150912, Note_on_c, 3, 65, 92
4, 150912, Note_on_c, 3, 70, 92
4, 151006, Note_on_c, 3, 65, 0
4, 151006, Note_on_c, 3, 70, 0
4, 151008, Note_on_c, 3, 65, 92
4, 151008, Note_on_c, 3, 70, 92
4, 151102, Note_on_c, 3, 65, 0
4, 151102, Note_on_c, 3, 70, 0
4, 151104, Note_on_c, 3, 70, 92
4, 151128, Note_on_c, 3, 65, 92
4, 151152, Note_on_c, 3, 62, 92
4, 151176, Note_on_c, 3, 58, 92
4, 151360, Note_on_c, 3, 58, 0
4, 151360, Note_on_c, 3, 62, 0
4, 151360, Note_on_c, 3, 65, 0
4, 151360, Note_on_c, 3, 70, 0
4, 151392, Note_on_c, 3, 62, 92
4, 151392, Note_on_c, 3, 65, 92
4, 151392, Note_on_c, 3, 70, 92
4, 151486, Note_on_c, 3, 62, 0
4, 151486, Note_on_c, 3, 65, 0
4, 151486, Note_on_c, 3, 70, 0
4, 151488, Note_on_c, 3, 58, 92
4, 151488, Note_on_c, 3, 62, 92
4, 151488, Note_on_c, 3, 65, 92
4, 151488, Note_on_c, 3, 70, 92
4, 151648, Note_on_c, 3, 58, 0
4, 151648, Note_on_c, 3, 62, 0
4, 151648, Note_on_c, 3, 65, 0
4, 151648, Note_on_c, 3, 70, 0
4, 151680, Note_on_c, 3, 62, 92
4, 151680, Note_on_c, 3, 65, 92
4, 151680, Note_on_c, 3, 70, 92
4, 151774, Note_on_c, 3, 62, 0
4, 151774, Note_on_c, 3, 65, 0
4, 151774, Note_on_c, 3, 70, 0
4, 151776, Note_on_c, 3, 58, 92
4, 151776, Note_on_c, 3, 62, 92
4, 151776, Note_on_c, 3, 65, 92
4, 151776, Note_on_c, 3, 70, 92
4, 151966, Note_on_c, 3, 58, 0
4, 151966, Note_on_c, 3, 62, 0
4, 151966, Note_on_c, 3, 65, 0
4, 151966, Note_on_c, 3, 70, 0
4, 151968, Note_on_c, 3, 62, 92
4, 151968, Note_on_c, 3, 65, 92
4, 151968, Note_on_c, 3, 70, 92
4, 152062, Note_on_c, 3, 62, 0
4, 152062, Note_on_c, 3, 65, 0
4, 152062, Note_on_c, 3, 70, 0
4, 152064, Note_on_c, 3, 70, 92
4, 152088, Note_on_c, 3, 65, 92
4, 152112, Note_on_c, 3, 62, 92
4, 152136, Note_on_c, 3, 58, 92
4, 152254, Note_on_c, 3, 58, 0
4, 152254, Note_on_c, 3, 62, 0
4, 152254, Note_on_c, 3, 65, 0
4, 152254, Note_on_c, 3, 70, 0
4, 152256, Note_on_c, 3, 58, 92
4, 152256, Note_on_c, 3, 62, 92
4, 152256, Note_on_c, 3, 65, 92
4, 152256, Note_on_c, 3, 70, 92
4, 152416, Note_on_c, 3, 58, 0
4, 152416, Note_on_c, 3, 62, 0
4, 152416, Note_on_c, 3, 65, 0
4, 152416, Note_on_c, 3, 70, 0
4, 152448, Note_on_c, 3, 65, 92
4, 152448, Note_on_c, 3, 70, 92
4, 152542, Note_on_c, 3, 65, 0
4, 152542, Note_on_c, 3, 70, 0
4, 152544, Note_on_c, 3, 62, 92
4, 152544, Note_on_c, 3, 65, 92
4, 152544, Note_on_c, 3, 70, 92
4, 152638, Note_on_c, 3, 62, 0
4, 152638, Note_on_c, 3, 65, 0
4, 152638, Note_on_c, 3, 70, 0
4, 152640, Note_on_c, 3, 68, 92
4, 152664, Note_on_c, 3, 63, 92
4, 152688, Note_on_c, 3, 60, 92
4, 152896, Note_on_c, 3, 60, 0
4, 152896, Note_on_c, 3, 63, 0
4, 152896, Note_on_c, 3, 68, 0
4, 152928, Note_on_c, 3, 63, 92
4, 152928, Note_on_c, 3, 68, 92
4, 153022, Note_on_c, 3, 63, 0
4, 153022, Note_on_c, 3, 68, 0
4, 153024, Note_on_c, 3, 60, 92
4, 153024, Note_on_c, 3, 63, 92
4, 153024, Note_on_c, 3, 70, 92
4, 153184, Note_on_c, 3, 60, 0
4, 153184, Note_on_c, 3, 63, 0
4, 153184, Note_on_c, 3, 70, 0
4, 153216, Note_on_c, 3, 60, 92
4, 153216, Note_on_c, 3, 63, 92
4, 153216, Note_on_c, 3, 68, 92
4, 153376, Note_on_c, 3, 60, 0
4, 153376, Note_on_c, 3, 63, 0
4, 153376, Note_on_c, 3, 68, 0
4, 153408, Note_on_c, 3, 53, 92
4, 153408, Note_on_c, 3, 58, 92
4, 153408, Note_on_c, 3, 62, 92
4, 153408, Note_on_c, 3, 65, 92
4, 153408, Note_on_c, 3, 70, 92
4, 153502, Note_on_c, 3, 53, 0
4, 153502, Note_on_c, 3, 58, 0
4, 153502, Note_on_c, 3, 62, 0
4, 153502, Note_on_c, 3, 65, 0
4, 153502, Note_on_c, 3, 70, 0
4, 153504, Note_on_c, 3, 58, 92
4, 153504, Note_on_c, 3, 62, 92
4, 153504, Note_on_c, 3, 65, 92
4, 153504, Note_on_c, 3, 70, 92
4, 153598, Note_on_c, 3, 58, 0
4, 153598, Note_on_c, 3, 62, 0
4, 153598, Note_on_c, 3, 65, 0
4, 153598, Note_on_c, 3, 70, 0
4, 153600, Note_on_c, 3, 53, 92
4, 153600, Note_on_c, 3, 58, 92
4, 153600, Note_on_c, 3, 62, 92
4, 153600, Note_on_c, 3, 65, 92
4, 153600, Note_on_c, 3, 70, 92
4, 153936, Note_on_c, 3, 53, 0
4, 153936, Note_on_c, 3, 58, 0
4, 153936, Note_on_c, 3, 62, 0
4, 153936, Note_on_c, 3, 65, 0
4, 153936, Note_on_c, 3, 70, 0
4, 153984, Note_on_c, 3, 70, 92
4, 154008, Note_on_c, 3, 65, 92
4, 154032, Note_on_c, 3, 62, 92
4, 154078, Note_on_c, 3, 62, 0
4, 154078, Note_on_c, 3, 65, 0
4, 154078, Note_on_c, 3, 70, 0
4, 154080, Note_on_c, 3, 65, 92
4, 154080, Note_on_c, 3, 70, 92
4, 154174, Note_on_c, 3, 65, 0
4, 154174, Note_on_c, 3, 70, 0
4, 154176, Note_on_c, 3, 70, 92
4, 154200, Note_on_c, 3, 65, 92
4, 154224, Note_on_c, 3, 62, 92
4, 154248, Note_on_c, 3, 58, 92
4, 154432, Note_on_c, 3, 58, 0
4, 154432, Note_on_c, 3, 62, 0
4, 154432, Note_on_c, 3, 65, 0
4, 154432, Note_on_c, 3, 70, 0
4, 154464, Note_on_c, 3, 62, 92
4, 154464, Note_on_c, 3, 65, 92
4, 154464, Note_on_c, 3, 70, 92
4, 154558, Note_on_c, 3, 62, 0
4, 154558, Note_on_c, 3, 65, 0
4, 154558, Note_on_c, 3, 70, 0
4, 154560, Note_on_c, 3, 58, 92
4, 154560, Note_on_c, 3, 62, 92
4, 154560, Note_on_c, 3, 65, 92
4, 154560, Note_on_c, 3, 70, 92
4, 154720, Note_on_c, 3, 58, 0
4, 154720, Note_on_c, 3, 62, 0
4, 154720, Note_on_c, 3, 65, 0
4, 154720, Note_on_c, 3, 70, 0
4, 154752, Note_on_c, 3, 62, 92
4, 154752, Note_on_c, 3, 65, 92
4, 154752, Note_on_c, 3, 70, 92
4, 154846, Note_on_c, 3, 62, 0
4, 154846, Note_on_c, 3, 65, 0
4, 154846, Note_on_c, 3, 70, 0
4, 154848, Note_on_c, 3, 58, 92
4, 154848, Note_on_c, 3, 62, 92
4, 154848, Note_on_c, 3, 65, 92
4, 154848, Note_on_c, 3, 70, 92
4, 155038, Note_on_c, 3, 58, 0
4, 155038, Note_on_c, 3, 62, 0
4, 155038, Note_on_c, 3, 65, 0
4, 155038, Note_on_c, 3, 70, 0
4, 155040, Note_on_c, 3, 62, 92
4, 155040, Note_on_c, 3, 65, 92
4, 155040, Note_on_c, 3, 70, 92
4, 155134, Note_on_c, 3, 62, 0
4, 155134, Note_on_c, 3, 65, 0
4, 155134, Note_on_c, 3, 70, 0
4, 155136, Note_on_c, 3, 70, 92
4, 155160, Note_on_c, 3, 65, 92
4, 155184, Note_on_c, 3, 62, 92
4, 155208, Note_on_c, 3, 58, 92
4, 155326, Note_on_c, 3, 58, 0
4, 155326, Note_on_c, 3, 62, 0
4, 155326, Note_on_c, 3, 65, 0
4, 155326, Note_on_c, 3, 70, 0
4, 155328, Note_on_c, 3, 58, 92
4, 155328, Note_on_c, 3, 62, 92
4, 155328, Note_on_c, 3, 65, 92
4, 155328, Note_on_c, 3, 70, 92
4, 155488, Note_on_c, 3, 58, 0
4, 155488, Note_on_c, 3, 62, 0
4, 155488, Note_on_c, 3, 65, 0
4, 155488, Note_on_c, 3, 70, 0
4, 155520, Note_on_c, 3, 65, 92
4, 155520, Note_on_c, 3, 70, 92
4, 155614, Note_on_c, 3, 65, 0
4, 155614, Note_on_c, 3, 70, 0
4, 155616, Note_on_c, 3, 62, 92
4, 155616, Note_on_c, 3, 65, 92
4, 155616, Note_on_c, 3, 70, 92
4, 155710, Note_on_c, 3, 62, 0
4, 155710, Note_on_c, 3, 65, 0
4, 155710, Note_on_c, 3, 70, 0
4, 155712, Note_on_c, 3, 60, 92
4, 155712, Note_on_c, 3, 63, 92
4, 155712, Note_on_c, 3, 68, 92
4, 155968, Note_on_c, 3, 60, 0
4, 155968, Note_on_c, 3, 63, 0
4, 155968, Note_on_c, 3, 68, 0
4, 156000, Note_on_c, 3, 63, 92
4, 156000, Note_on_c, 3, 68, 92
4, 156094, Note_on_c, 3, 63, 0
4, 156094, Note_on_c, 3, 68, 0
4, 156096, Note_on_c, 3, 60, 92
4, 156096, Note_on_c, 3, 63, 92
4, 156096, Note_on_c, 3, 70, 92
4, 156256, Note_on_c, 3, 60, 0
4, 156256, Note_on_c, 3, 63, 0
4, 156256, Note_on_c, 3, 70, 0
4, 156288, Note_on_c, 3, 60, 92
4, 156288, Note_on_c, 3, 63, 92
4, 156288, Note_on_c, 3, 68, 92
4, 156448, Note_on_c, 3, 60, 0
4, 156448, Note_on_c, 3, 63, 0
4, 156448, Note_on_c, 3, 68, 0
4, 156480, Note_on_c, 3, 53, 92
4, 156480, Note_on_c, 3, 58, 92
4, 156480, Note_on_c, 3, 62, 92
4, 156480, Note_on_c, 3, 65, 92
4, 156480, Note_on_c, 3, 70, 92
4, 156574, Note_on_c, 3, 53, 0
4, 156574, Note_on_c, 3, 58, 0
4, 156574, Note_on_c, 3, 62, 0
4, 156574, Note_on_c, 3, 65, 0
4, 156574, Note_on_c, 3, 70, 0
4, 156576, Note_on_c, 3, 58, 92
4, 156576, Note_on_c, 3, 62, 92
4, 156576, Note_on_c, 3, 65, 92
4, 156576, Note_on_c, 3, 70, 92
4, 156670, Note_on_c, 3, 58, 0
4, 156670, Note_on_c, 3, 62, 0
4, 156670, Note_on_c, 3, 65, 0
4, 156670, Note_on_c, 3, 70, 0
4, 156672, Note_on_c, 3, 70, 92
4, 156696, Note_on_c, 3, 65, 92
4, 156720, Note_on_c, 3, 62, 92
4, 156744, Note_on_c, 3, 58, 92
4, 156768, Note_on_c, 3, 53, 92
4, 157024, Note_on_c, 3, 53, 0
4, 157024, Note_on_c, 3, 58, 0
4, 157024, Note_on_c, 3, 62, 0
4, 157024, Note_on_c, 3, 65, 0
4, 157024, Note_on_c, 3, 70, 0
4, 157056, Note_on_c, 3, 62, 92
4, 157056, Note_on_c, 3, 65, 92
4, 157056, Note_on_c, 3, 70, 92
4, 157150, Note_on_c, 3, 62, 0
4, 157150, Note_on_c, 3, 65, 0
4, 157150, Note_on_c, 3, 70, 0
4, 157152, Note_on_c, 3, 65, 92
4, 157152, Note_on_c, 3, 70, 92
4, 157246, Note_on_c, 3, 65, 0
4, 157246, Note_on_c, 3, 70, 0
4, 157248, Note_on_c, 3, 70, 92
4, 157272, Note_on_c, 3, 65, 92
4, 157296, Note_on_c, 3, 58, 92
4, 157296, Note_on_c, 3, 62, 92
4, 157504, Note_on_c, 3, 58, 0
4, 157504, Note_on_c, 3, 62, 0
4, 157504, Note_on_c, 3, 65, 0
4, 157504, Note_on_c, 3, 70, 0
4, 157536, Note_on_c, 3, 62, 92
4, 157536, Note_on_c, 3, 65, 92
4, 157536, Note_on_c, 3, 70, 92
4, 157630, Note_on_c, 3, 62, 0
4, 157630, Note_on_c, 3, 65, 0
4, 157630, Note_on_c, 3, 70, 0
4, 157632, Note_on_c, 3, 58, 92
4, 157632, Note_on_c, 3, 62, 92
4, 157632, Note_on_c, 3, 65, 92
4, 157632, Note_on_c, 3, 70, 92
4, 157792, Note_on_c, 3, 58, 0
4, 157792, Note_on_c, 3, 62, 0
4, 157792, Note_on_c, 3, 65, 0
4, 157792, Note_on_c, 3, 70, 0
4, 157824, Note_on_c, 3, 62, 92
4, 157824, Note_on_c, 3, 65, 92
4, 157824, Note_on_c, 3, 70, 92
4, 157918, Note_on_c, 3, 62, 0
4, 157918, Note_on_c, 3, 65, 0
4, 157918, Note_on_c, 3, 70, 0
4, 157920, Note_on_c, 3, 58, 92
4, 157920, Note_on_c, 3, 62, 92
4, 157920, Note_on_c, 3, 65, 92
4, 157920, Note_on_c, 3, 70, 92
4, 158110, Note_on_c, 3, 58, 0
4, 158110, Note_on_c, 3, 62, 0
4, 158110, Note_on_c, 3, 65, 0
4, 158110, Note_on_c, 3, 70, 0
4, 158112, Note_on_c, 3, 62, 92
4, 158112, Note_on_c, 3, 65, 92
4, 158112, Note_on_c, 3, 70, 92
4, 158206, Note_on_c, 3, 62, 0
4, 158206, Note_on_c, 3, 65, 0
4, 158206, Note_on_c, 3, 70, 0
4, 158208, Note_on_c, 3, 58, 92
4, 158208, Note_on_c, 3, 62, 92
4, 158208, Note_on_c, 3, 65, 92
4, 158208, Note_on_c, 3, 70, 92
4, 158368, Note_on_c, 3, 58, 0
4, 158368, Note_on_c, 3, 62, 0
4, 158368, Note_on_c, 3, 65, 0
4, 158368, Note_on_c, 3, 70, 0
4, 158400, Note_on_c, 3, 58, 92
4, 158400, Note_on_c, 3, 62, 92
4, 158400, Note_on_c, 3, 65, 92
4, 158400, Note_on_c, 3, 70, 92
4, 158560, Note_on_c, 3, 58, 0
4, 158560, Note_on_c, 3, 62, 0
4, 158560, Note_on_c, 3, 65, 0
4, 158560, Note_on_c, 3, 70, 0
4, 158592, Note_on_c, 3, 65, 92
4, 158592, Note_on_c, 3, 70, 92
4, 158686, Note_on_c, 3, 65, 0
4, 158686, Note_on_c, 3, 70, 0
4, 158688, Note_on_c, 3, 62, 92
4, 158688, Note_on_c, 3, 65, 92
4, 158688, Note_on_c, 3, 70, 92
4, 158782, Note_on_c, 3, 62, 0
4, 158782, Note_on_c, 3, 65, 0
4, 158782, Note_on_c, 3, 70, 0
4, 158784, Note_on_c, 3, 60, 92
4, 158784, Note_on_c, 3, 63, 92
4, 158784, Note_on_c, 3, 68, 92
4, 159040, Note_on_c, 3, 60, 0
4, 159040, Note_on_c, 3, 63, 0
4, 159040, Note_on_c, 3, 68, 0
4, 159072, Note_on_c, 3, 63, 92
4, 159072, Note_on_c, 3, 68, 92
4, 159166, Note_on_c, 3, 63, 0
4, 159166, Note_on_c, 3, 68, 0
4, 159168, Note_on_c, 3, 60, 92
4, 159168, Note_on_c, 3, 63, 92
4, 159168, Note_on_c, 3, 70, 92
4, 159328, Note_on_c, 3, 60, 0
4, 159328, Note_on_c, 3, 63, 0
4, 159328, Note_on_c, 3, 70, 0
4, 159360, Note_on_c, 3, 60, 92
4, 159360, Note_on_c, 3, 63, 92
4, 159360, Note_on_c, 3, 68, 92
4, 159454, Note_on_c, 3, 60, 0
4, 159454, Note_on_c, 3, 63, 0
4, 159454, Note_on_c, 3, 68, 0
4, 159456, Note_on_c, 3, 58, 92
4, 159550, Note_on_c, 3, 58, 0
4, 159552, Note_on_c, 3, 58, 92
4, 159552, Note_on_c, 3, 65, 92
4, 159646, Note_on_c, 3, 58, 0
4, 159646, Note_on_c, 3, 65, 0
4, 159648, Note_on_c, 3, 58, 92
4, 159648, Note_on_c, 3, 65, 92
4, 159742, Note_on_c, 3, 58, 0
4, 159742, Note_on_c, 3, 65, 0
4, 159744, Note_on_c, 3, 70, 92
4, 159768, Note_on_c, 3, 65, 92
4, 159792, Note_on_c, 3, 58, 92
4, 160000, Note_on_c, 3, 58, 0
4, 160000, Note_on_c, 3, 65, 0
4, 160000, Note_on_c, 3, 70, 0
4, 160032, Note_on_c, 3, 65, 92
4, 160032, Note_on_c, 3, 70, 92
4, 160126, Note_on_c, 3, 65, 0
4, 160126, Note_on_c, 3, 70, 0
4, 160128, Note_on_c, 3, 58, 92
4, 160128, Note_on_c, 3, 65, 92
4, 160128, Note_on_c, 3, 70, 92
4, 160222, Note_on_c, 3, 58, 0
4, 160222, Note_on_c, 3, 65, 0
4, 160222, Note_on_c, 3, 70, 0
4, 160224, Note_on_c, 3, 58, 92
4, 160224, Note_on_c, 3, 65, 92
4, 160224, Note_on_c, 3, 70, 92
4, 160318, Note_on_c, 3, 58, 0
4, 160318, Note_on_c, 3, 65, 0
4, 160318, Note_on_c, 3, 70, 0
4, 160320, Note_on_c, 3, 68, 92
4, 160344, Note_on_c, 3, 63, 92
4, 160368, Note_on_c, 3, 60, 92
4, 160392, Note_on_c, 3, 56, 92
4, 160510, Note_on_c, 3, 56, 0
4, 160510, Note_on_c, 3, 60, 0
4, 160510, Note_on_c, 3, 63, 0
4, 160510, Note_on_c, 3, 68, 0
4, 160512, Note_on_c, 3, 60, 92
4, 160512, Note_on_c, 3, 63, 92
4, 160512, Note_on_c, 3, 68, 92
4, 160606, Note_on_c, 3, 63, 0
4, 160606, Note_on_c, 3, 68, 0
4, 160608, Note_on_c, 3, 63, 92
4, 160608, Note_on_c, 3, 68, 92
4, 160672, Note_on_c, 3, 60, 0
4, 160702, Note_on_c, 3, 63, 0
4, 160702, Note_on_c, 3, 68, 0
4, 160704, Note_on_c, 3, 63, 92
4, 160704, Note_on_c, 3, 70, 92
4, 160798, Note_on_c, 3, 70, 0
4, 160800, Note_on_c, 3, 70, 92
4, 160864, Note_on_c, 3, 63, 0
4, 160894, Note_on_c, 3, 70, 0
4, 160896, Note_on_c, 3, 60, 92
4, 160896, Note_on_c, 3, 63, 92
4, 160896, Note_on_c, 3, 68, 92
4, 160990, Note_on_c, 3, 63, 0
4, 160990, Note_on_c, 3, 68, 0
4, 160992, Note_on_c, 3, 63, 92
4, 160992, Note_on_c, 3, 68, 92
4, 161056, Note_on_c, 3, 60, 0
4, 161086, Note_on_c, 3, 63, 0
4, 161086, Note_on_c, 3, 68, 0
4, 161088, Note_on_c, 3, 55, 92
4, 161088, Note_on_c, 3, 58, 92
4, 161088, Note_on_c, 3, 63, 92
4, 161088, Note_on_c, 3, 67, 92
4, 161182, Note_on_c, 3, 55, 0
4, 161182, Note_on_c, 3, 58, 0
4, 161182, Note_on_c, 3, 63, 0
4, 161182, Note_on_c, 3, 67, 0
4, 161184, Note_on_c, 3, 63, 92
4, 161184, Note_on_c, 3, 67, 92
4, 161278, Note_on_c, 3, 63, 0
4, 161278, Note_on_c, 3, 67, 0
4, 161280, Note_on_c, 3, 55, 92
4, 161280, Note_on_c, 3, 58, 92
4, 161280, Note_on_c, 3, 63, 92
4, 161280, Note_on_c, 3, 70, 92
4, 161536, Note_on_c, 3, 55, 0
4, 161536, Note_on_c, 3, 58, 0
4, 161536, Note_on_c, 3, 63, 0
4, 161536, Note_on_c, 3, 70, 0
4, 161568, Note_on_c, 3, 70, 92
4, 161592, Note_on_c, 3, 63, 92
4, 161616, Note_on_c, 3, 58, 92
4, 161662, Note_on_c, 3, 58, 0
4, 161662, Note_on_c, 3, 63, 0
4, 161662, Note_on_c, 3, 70, 0
4, 161664, Note_on_c, 3, 58, 92
4, 161664, Note_on_c, 3, 63, 92
4, 161664, Note_on_c, 3, 70, 92
4, 161758, Note_on_c, 3, 58, 0
4, 161758, Note_on_c, 3, 63, 0
4, 161758, Note_on_c, 3, 70, 0
4, 161760, Note_on_c, 3, 58, 92
4, 161760, Note_on_c, 3, 62, 92
4, 161760, Note_on_c, 3, 70, 92
4, 161854, Note_on_c, 3, 58, 0
4, 161854, Note_on_c, 3, 62, 0
4, 161854, Note_on_c, 3, 70, 0
4, 161856, Note_on_c, 3, 60, 92
4, 161856, Note_on_c, 3, 70, 92
4, 161950, Note_on_c, 3, 60, 0
4, 161950, Note_on_c, 3, 70, 0
4, 161952, Note_on_c, 3, 62, 92
4, 161952, Note_on_c, 3, 70, 92
4, 162046, Note_on_c, 3, 62, 0
4, 162046, Note_on_c, 3, 70, 0
4, 162048, Note_on_c, 3, 58, 92
4, 162048, Note_on_c, 3, 62, 92
4, 162048, Note_on_c, 3, 70, 92
4, 162304, Note_on_c, 3, 58, 0
4, 162304, Note_on_c, 3, 62, 0
4, 162304, Note_on_c, 3, 70, 0
4, 162336, Note_on_c, 3, 62, 92
4, 162336, Note_on_c, 3, 70, 92
4, 162430, Note_on_c, 3, 62, 0
4, 162430, Note_on_c, 3, 70, 0
4, 162432, Note_on_c, 3, 62, 92
4, 162432, Note_on_c, 3, 70, 92
4, 162526, Note_on_c, 3, 62, 0
4, 162526, Note_on_c, 3, 70, 0
4, 162528, Note_on_c, 3, 62, 92
4, 162528, Note_on_c, 3, 70, 92
4, 162622, Note_on_c, 3, 62, 0
4, 162622, Note_on_c, 3, 70, 0
4, 162624, Note_on_c, 3, 60, 127
4, 162624, Note_on_c, 3, 63, 127
4, 162624, Note_on_c, 3, 68, 127
4, 162718, Note_on_c, 3, 60, 0
4, 162718, Note_on_c, 3, 63, 0
4, 162718, Note_on_c, 3, 68, 0
4, 162720, Note_on_c, 3, 60, 92
4, 162720, Note_on_c, 3, 63, 92
4, 162720, Note_on_c, 3, 68, 92
4, 162814, Note_on_c, 3, 60, 0
4, 162814, Note_on_c, 3, 63, 0
4, 162814, Note_on_c, 3, 68, 0
4, 162816, Note_on_c, 3, 60, 92
4, 162816, Note_on_c, 3, 63, 92
4, 162816, Note_on_c, 3, 68, 92
4, 162848, Note_on_c, 3, 60, 0
4, 162848, Note_on_c, 3, 63, 0
4, 162848, Note_on_c, 3, 68, 0
4, 162912, Note_on_c, 3, 60, 127
4, 162912, Note_on_c, 3, 63, 127
4, 162912, Note_on_c, 3, 68, 127
4, 163006, Note_on_c, 3, 60, 0
4, 163006, Note_on_c, 3, 63, 0
4, 163006, Note_on_c, 3, 68, 0
4, 163008, Note_on_c, 3, 60, 92
4, 163008, Note_on_c, 3, 63, 92
4, 163008, Note_on_c, 3, 68, 92
4, 163102, Note_on_c, 3, 60, 0
4, 163102, Note_on_c, 3, 63, 0
4, 163102, Note_on_c, 3, 68, 0
4, 163104, Note_on_c, 3, 60, 92
4, 163104, Note_on_c, 3, 63, 92
4, 163104, Note_on_c, 3, 68, 92
4, 163136, Note_on_c, 3, 60, 0
4, 163136, Note_on_c, 3, 63, 0
4, 163136, Note_on_c, 3, 68, 0
4, 163200, Note_on_c, 3, 60, 127
4, 163200, Note_on_c, 3, 63, 127
4, 163200, Note_on_c, 3, 68, 127
4, 163294, Note_on_c, 3, 60, 0
4, 163294, Note_on_c, 3, 63, 0
4, 163294, Note_on_c, 3, 68, 0
4, 163296, Note_on_c, 3, 60, 92
4, 163296, Note_on_c, 3, 63, 92
4, 163296, Note_on_c, 3, 68, 92
4, 163390, Note_on_c, 3, 60, 0
4, 163390, Note_on_c, 3, 63, 0
4, 163390, Note_on_c, 3, 68, 0
4, 163392, Note_on_c, 3, 60, 92
4, 163392, Note_on_c, 3, 63, 92
4, 163392, Note_on_c, 3, 68, 92
4, 163424, Note_on_c, 3, 60, 0
4, 163424, Note_on_c, 3, 63, 0
4, 163424, Note_on_c, 3, 68, 0
4, 163488, Note_on_c, 3, 60, 127
4, 163488, Note_on_c, 3, 63, 127
4, 163488, Note_on_c, 3, 68, 127
4, 163582, Note_on_c, 3, 60, 0
4, 163582, Note_on_c, 3, 63, 0
4, 163582, Note_on_c, 3, 68, 0
4, 163584, Note_on_c, 3, 60, 92
4, 163584, Note_on_c, 3, 63, 92
4, 163584, Note_on_c, 3, 68, 92
4, 163678, Note_on_c, 3, 60, 0
4, 163678, Note_on_c, 3, 63, 0
4, 163678, Note_on_c, 3, 68, 0
4, 163680, Note_on_c, 3, 60, 92
4, 163680, Note_on_c, 3, 63, 92
4, 163680, Note_on_c, 3, 68, 92
4, 163712, Note_on_c, 3, 60, 0
4, 163712, Note_on_c, 3, 63, 0
4, 163712, Note_on_c, 3, 68, 0
4, 163776, Note_on_c, 3, 60, 127
4, 163776, Note_on_c, 3, 63, 127
4, 163776, Note_on_c, 3, 68, 127
4, 163870, Note_on_c, 3, 60, 0
4, 163870, Note_on_c, 3, 63, 0
4, 163870, Note_on_c, 3, 68, 0
4, 163872, Note_on_c, 3, 60, 92
4, 163872, Note_on_c, 3, 63, 92
4, 163872, Note_on_c, 3, 68, 92
4, 163966, Note_on_c, 3, 60, 0
4, 163966, Note_on_c, 3, 63, 0
4, 163966, Note_on_c, 3, 68, 0
4, 163968, Note_on_c, 3, 60, 127
4, 163968, Note_on_c, 3, 63, 127
4, 163968, Note_on_c, 3, 68, 127
4, 164062, Note_on_c, 3, 60, 0
4, 164062, Note_on_c, 3, 63, 0
4, 164062, Note_on_c, 3, 68, 0
4, 164064, Note_on_c, 3, 60, 92
4, 164064, Note_on_c, 3, 63, 92
4, 164064, Note_on_c, 3, 68, 92
4, 164158, Note_on_c, 3, 60, 0
4, 164158, Note_on_c, 3, 63, 0
4, 164158, Note_on_c, 3, 68, 0
4, 164160, Note_on_c, 3, 70, 92
4, 164184, Note_on_c, 3, 65, 92
4, 164208, Note_on_c, 3, 62, 92
4, 164232, Note_on_c, 3, 58, 92
4, 164416, Note_on_c, 3, 58, 0
4, 164416, Note_on_c, 3, 62, 0
4, 164416, Note_on_c, 3, 65, 0
4, 164416, Note_on_c, 3, 70, 0
4, 164448, Note_on_c, 3, 62, 92
4, 164448, Note_on_c, 3, 65, 92
4, 164448, Note_on_c, 3, 70, 92
4, 164542, Note_on_c, 3, 62, 0
4, 164542, Note_on_c, 3, 65, 0
4, 164542, Note_on_c, 3, 70, 0
4, 164544, Note_on_c, 3, 58, 92
4, 164544, Note_on_c, 3, 62, 92
4, 164544, Note_on_c, 3, 65, 92
4, 164544, Note_on_c, 3, 70, 92
4, 164704, Note_on_c, 3, 58, 0
4, 164704, Note_on_c, 3, 62, 0
4, 164704, Note_on_c, 3, 65, 0
4, 164704, Note_on_c, 3, 70, 0
4, 164736, Note_on_c, 3, 62, 92
4, 164736, Note_on_c, 3, 65, 92
4, 164736, Note_on_c, 3, 70, 92
4, 164830, Note_on_c, 3, 62, 0
4, 164830, Note_on_c, 3, 65, 0
4, 164830, Note_on_c, 3, 70, 0
4, 164832, Note_on_c, 3, 58, 92
4, 164832, Note_on_c, 3, 62, 92
4, 164832, Note_on_c, 3, 65, 92
4, 164832, Note_on_c, 3, 70, 92
4, 165022, Note_on_c, 3, 58, 0
4, 165022, Note_on_c, 3, 62, 0
4, 165022, Note_on_c, 3, 65, 0
4, 165022, Note_on_c, 3, 70, 0
4, 165024, Note_on_c, 3, 62, 92
4, 165024, Note_on_c, 3, 65, 92
4, 165024, Note_on_c, 3, 70, 92
4, 165118, Note_on_c, 3, 62, 0
4, 165118, Note_on_c, 3, 65, 0
4, 165118, Note_on_c, 3, 70, 0
4, 165120, Note_on_c, 3, 70, 92
4, 165144, Note_on_c, 3, 65, 92
4, 165168, Note_on_c, 3, 62, 92
4, 165192, Note_on_c, 3, 58, 92
4, 165310, Note_on_c, 3, 58, 0
4, 165310, Note_on_c, 3, 62, 0
4, 165310, Note_on_c, 3, 65, 0
4, 165310, Note_on_c, 3, 70, 0
4, 165312, Note_on_c, 3, 58, 92
4, 165312, Note_on_c, 3, 62, 92
4, 165312, Note_on_c, 3, 65, 92
4, 165312, Note_on_c, 3, 70, 92
4, 165472, Note_on_c, 3, 58, 0
4, 165472, Note_on_c, 3, 62, 0
4, 165472, Note_on_c, 3, 65, 0
4, 165472, Note_on_c, 3, 70, 0
4, 165504, Note_on_c, 3, 65, 92
4, 165504, Note_on_c, 3, 70, 92
4, 165598, Note_on_c, 3, 65, 0
4, 165598, Note_on_c, 3, 70, 0
4, 165600, Note_on_c, 3, 62, 92
4, 165600, Note_on_c, 3, 65, 92
4, 165600, Note_on_c, 3, 70, 92
4, 165694, Note_on_c, 3, 62, 0
4, 165694, Note_on_c, 3, 65, 0
4, 165694, Note_on_c, 3, 70, 0
4, 165696, Note_on_c, 3, 68, 92
4, 165720, Note_on_c, 3, 63, 92
4, 165744, Note_on_c, 3, 60, 92
4, 165952, Note_on_c, 3, 60, 0
4, 165952, Note_on_c, 3, 63, 0
4, 165952, Note_on_c, 3, 68, 0
4, 165984, Note_on_c, 3, 63, 92
4, 165984, Note_on_c, 3, 68, 92
4, 166078, Note_on_c, 3, 63, 0
4, 166078, Note_on_c, 3, 68, 0
4, 166080, Note_on_c, 3, 60, 92
4, 166080, Note_on_c, 3, 63, 92
4, 166080, Note_on_c, 3, 70, 92
4, 166240, Note_on_c, 3, 60, 0
4, 166240, Note_on_c, 3, 63, 0
4, 166240, Note_on_c, 3, 70, 0
4, 166272, Note_on_c, 3, 60, 92
4, 166272, Note_on_c, 3, 63, 92
4, 166272, Note_on_c, 3, 68, 92
4, 166432, Note_on_c, 3, 60, 0
4, 166432, Note_on_c, 3, 63, 0
4, 166432, Note_on_c, 3, 68, 0
4, 166464, Note_on_c, 3, 53, 92
4, 166464, Note_on_c, 3, 58, 92
4, 166464, Note_on_c, 3, 62, 92
4, 166464, Note_on_c, 3, 65, 92
4, 166464, Note_on_c, 3, 70, 92
4, 166558, Note_on_c, 3, 53, 0
4, 166558, Note_on_c, 3, 58, 0
4, 166558, Note_on_c, 3, 62, 0
4, 166558, Note_on_c, 3, 65, 0
4, 166558, Note_on_c, 3, 70, 0
4, 166560, Note_on_c, 3, 58, 92
4, 166560, Note_on_c, 3, 62, 92
4, 166560, Note_on_c, 3, 65, 92
4, 166560, Note_on_c, 3, 70, 92
4, 166654, Note_on_c, 3, 58, 0
4, 166654, Note_on_c, 3, 62, 0
4, 166654, Note_on_c, 3, 65, 0
4, 166654, Note_on_c, 3, 70, 0
4, 166656, Note_on_c, 3, 53, 92
4, 166656, Note_on_c, 3, 58, 92
4, 166656, Note_on_c, 3, 62, 92
4, 166656, Note_on_c, 3, 65, 92
4, 166656, Note_on_c, 3, 70, 92
4, 166992, Note_on_c, 3, 53, 0
4, 166992, Note_on_c, 3, 58, 0
4, 166992, Note_on_c, 3, 62, 0
4, 166992, Note_on_c, 3, 65, 0
4, 166992, Note_on_c, 3, 70, 0
4, 167040, Note_on_c, 3, 70, 92
4, 167064, Note_on_c, 3, 65, 92
4, 167088, Note_on_c, 3, 62, 92
4, 167134, Note_on_c, 3, 62, 0
4, 167134, Note_on_c, 3, 65, 0
4, 167134, Note_on_c, 3, 70, 0
4, 167136, Note_on_c, 3, 65, 92
4, 167136, Note_on_c, 3, 70, 92
4, 167230, Note_on_c, 3, 65, 0
4, 167230, Note_on_c, 3, 70, 0
4, 167232, Note_on_c, 3, 70, 92
4, 167256, Note_on_c, 3, 65, 92
4, 167280, Note_on_c, 3, 62, 92
4, 167304, Note_on_c, 3, 58, 92
4, 167488, Note_on_c, 3, 58, 0
4, 167488, Note_on_c, 3, 62, 0
4, 167488, Note_on_c, 3, 65, 0
4, 167488, Note_on_c, 3, 70, 0
4, 167520, Note_on_c, 3, 62, 92
4, 167520, Note_on_c, 3, 65, 92
4, 167520, Note_on_c, 3, 70, 92
4, 167614, Note_on_c, 3, 62, 0
4, 167614, Note_on_c, 3, 65, 0
4, 167614, Note_on_c, 3, 70, 0
4, 167616, Note_on_c, 3, 58, 92
4, 167616, Note_on_c, 3, 62, 92
4, 167616, Note_on_c, 3, 65, 92
4, 167616, Note_on_c, 3, 70, 92
4, 167776, Note_on_c, 3, 58, 0
4, 167776, Note_on_c, 3, 62, 0
4, 167776, Note_on_c, 3, 65, 0
4, 167776, Note_on_c, 3, 70, 0
4, 167808, Note_on_c, 3, 62, 92
4, 167808, Note_on_c, 3, 65, 92
4, 167808, Note_on_c, 3, 70, 92
4, 167902, Note_on_c, 3, 62, 0
4, 167902, Note_on_c, 3, 65, 0
4, 167902, Note_on_c, 3, 70, 0
4, 167904, Note_on_c, 3, 58, 92
4, 167904, Note_on_c, 3, 62, 92
4, 167904, Note_on_c, 3, 65, 92
4, 167904, Note_on_c, 3, 70, 92
4, 168094, Note_on_c, 3, 58, 0
4, 168094, Note_on_c, 3, 62, 0
4, 168094, Note_on_c, 3, 65, 0
4, 168094, Note_on_c, 3, 70, 0
4, 168096, Note_on_c, 3, 62, 92
4, 168096, Note_on_c, 3, 65, 92
4, 168096, Note_on_c, 3, 70, 92
4, 168190, Note_on_c, 3, 62, 0
4, 168190, Note_on_c, 3, 65, 0
4, 168190, Note_on_c, 3, 70, 0
4, 168192, Note_on_c, 3, 70, 92
4, 168216, Note_on_c, 3, 65, 92
4, 168240, Note_on_c, 3, 62, 92
4, 168264, Note_on_c, 3, 58, 92
4, 168382, Note_on_c, 3, 58, 0
4, 168382, Note_on_c, 3, 62, 0
4, 168382, Note_on_c, 3, 65, 0
4, 168382, Note_on_c, 3, 70, 0
4, 168384, Note_on_c, 3, 58, 92
4, 168384, Note_on_c, 3, 62, 92
4, 168384, Note_on_c, 3, 65, 92
4, 168384, Note_on_c, 3, 70, 92
4, 168544, Note_on_c, 3, 58, 0
4, 168544, Note_on_c, 3, 62, 0
4, 168544, Note_on_c, 3, 65, 0
4, 168544, Note_on_c, 3, 70, 0
4, 168576, Note_on_c, 3, 65, 92
4, 168576, Note_on_c, 3, 70, 92
4, 168670, Note_on_c, 3, 65, 0
4, 168670, Note_on_c, 3, 70, 0
4, 168672, Note_on_c, 3, 62, 92
4, 168672, Note_on_c, 3, 65, 92
4, 168672, Note_on_c, 3, 70, 92
4, 168766, Note_on_c, 3, 62, 0
4, 168766, Note_on_c, 3, 65, 0
4, 168766, Note_on_c, 3, 70, 0
4, 168768, Note_on_c, 3, 60, 92
4, 168768, Note_on_c, 3, 63, 92
4, 168768, Note_on_c, 3, 68, 92
4, 169024, Note_on_c, 3, 60, 0
4, 169024, Note_on_c, 3, 63, 0
4, 169024, Note_on_c, 3, 68, 0
4, 169056, Note_on_c, 3, 63, 92
4, 169056, Note_on_c, 3, 68, 92
4, 169150, Note_on_c, 3, 63, 0
4, 169150, Note_on_c, 3, 68, 0
4, 169152, Note_on_c, 3, 60, 92
4, 169152, Note_on_c, 3, 63, 92
4, 169152, Note_on_c, 3, 70, 92
4, 169312, Note_on_c, 3, 60, 0
4, 169312, Note_on_c, 3, 63, 0
4, 169312, Note_on_c, 3, 70, 0
4, 169344, Note_on_c, 3, 60, 92
4, 169344, Note_on_c, 3, 63, 92
4, 169344, Note_on_c, 3, 68, 92
4, 169504, Note_on_c, 3, 60, 0
4, 169504, Note_on_c, 3, 63, 0
4, 169504, Note_on_c, 3, 68, 0
4, 169536, Note_on_c, 3, 53, 92
4, 169536, Note_on_c, 3, 58, 92
4, 169536, Note_on_c, 3, 62, 92
4, 169536, Note_on_c, 3, 65, 92
4, 169536, Note_on_c, 3, 70, 92
4, 169630, Note_on_c, 3, 53, 0
4, 169630, Note_on_c, 3, 58, 0
4, 169630, Note_on_c, 3, 62, 0
4, 169630, Note_on_c, 3, 65, 0
4, 169630, Note_on_c, 3, 70, 0
4, 169632, Note_on_c, 3, 58, 92
4, 169632, Note_on_c, 3, 62, 92
4, 169632, Note_on_c, 3, 65, 92
4, 169632, Note_on_c, 3, 70, 92
4, 169726, Note_on_c, 3, 58, 0
4, 169726, Note_on_c, 3, 62, 0
4, 169726, Note_on_c, 3, 65, 0
4, 169726, Note_on_c, 3, 70, 0
4, 169728, Note_on_c, 3, 70, 92
4, 169752, Note_on_c, 3, 65, 92
4, 169776, Note_on_c, 3, 62, 92
4, 169800, Note_on_c, 3, 58, 92
4, 169824, Note_on_c, 3, 53, 92
4, 170080, Note_on_c, 3, 53, 0
4, 170080, Note_on_c, 3, 58, 0
4, 170080, Note_on_c, 3, 62, 0
4, 170080, Note_on_c, 3, 65, 0
4, 170080, Note_on_c, 3, 70, 0
4, 170112, Note_on_c, 3, 62, 92
4, 170112, Note_on_c, 3, 65, 92
4, 170112, Note_on_c, 3, 70, 92
4, 170206, Note_on_c, 3, 62, 0
4, 170206, Note_on_c, 3, 65, 0
4, 170206, Note_on_c, 3, 70, 0
4, 170208, Note_on_c, 3, 65, 92
4, 170208, Note_on_c, 3, 70, 92
4, 170302, Note_on_c, 3, 65, 0
4, 170302, Note_on_c, 3, 70, 0
4, 170304, Note_on_c, 3, 70, 92
4, 170328, Note_on_c, 3, 65, 92
4, 170352, Note_on_c, 3, 58, 92
4, 170352, Note_on_c, 3, 62, 92
4, 170560, Note_on_c, 3, 58, 0
4, 170560, Note_on_c, 3, 62, 0
4, 170560, Note_on_c, 3, 65, 0
4, 170560, Note_on_c, 3, 70, 0
4, 170592, Note_on_c, 3, 62, 92
4, 170592, Note_on_c, 3, 65, 92
4, 170592, Note_on_c, 3, 70, 92
4, 170686, Note_on_c, 3, 62, 0
4, 170686, Note_on_c, 3, 65, 0
4, 170686, Note_on_c, 3, 70, 0
4, 170688, Note_on_c, 3, 58, 92
4, 170688, Note_on_c, 3, 62, 92
4, 170688, Note_on_c, 3, 65, 92
4, 170688, Note_on_c, 3, 70, 92
4, 170848, Note_on_c, 3, 58, 0
4, 170848, Note_on_c, 3, 62, 0
4, 170848, Note_on_c, 3, 65, 0
4, 170848, Note_on_c, 3, 70, 0
4, 170880, Note_on_c, 3, 62, 92
4, 170880, Note_on_c, 3, 65, 92
4, 170880, Note_on_c, 3, 70, 92
4, 170974, Note_on_c, 3, 62, 0
4, 170974, Note_on_c, 3, 65, 0
4, 170974, Note_on_c, 3, 70, 0
4, 170976, Note_on_c, 3, 58, 92
4, 170976, Note_on_c, 3, 62, 92
4, 170976, Note_on_c, 3, 65, 92
4, 170976, Note_on_c, 3, 70, 92
4, 171166, Note_on_c, 3, 58, 0
4, 171166, Note_on_c, 3, 62, 0
4, 171166, Note_on_c, 3, 65, 0
4, 171166, Note_on_c, 3, 70, 0
4, 171168, Note_on_c, 3, 62, 92
4, 171168, Note_on_c, 3, 65, 92
4, 171168, Note_on_c, 3, 70, 92
4, 171262, Note_on_c, 3, 62, 0
4, 171262, Note_on_c, 3, 65, 0
4, 171262, Note_on_c, 3, 70, 0
4, 171264, Note_on_c, 3, 58, 92
4, 171264, Note_on_c, 3, 62, 92
4, 171264, Note_on_c, 3, 65, 92
4, 171264, Note_on_c, 3, 70, 92
4, 171424, Note_on_c, 3, 58, 0
4, 171424, Note_on_c, 3, 62, 0
4, 171424, Note_on_c, 3, 65, 0
4, 171424, Note_on_c, 3, 70, 0
4, 171456, Note_on_c, 3, 58, 92
4, 171456, Note_on_c, 3, 62, 92
4, 171456, Note_on_c, 3, 65, 92
4, 171456, Note_on_c, 3, 70, 92
4, 171616, Note_on_c, 3, 58, 0
4, 171616, Note_on_c, 3, 62, 0
4, 171616, Note_on_c, 3, 65, 0
4, 171616, Note_on_c, 3, 70, 0
4, 171648, Note_on_c, 3, 65, 92
4, 171648, Note_on_c, 3, 70, 92
4, 171742, Note_on_c, 3, 65, 0
4, 171742, Note_on_c, 3, 70, 0
4, 171744, Note_on_c, 3, 62, 92
4, 171744, Note_on_c, 3, 65, 92
4, 171744, Note_on_c, 3, 70, 92
4, 171838, Note_on_c, 3, 62, 0
4, 171838, Note_on_c, 3, 65, 0
4, 171838, Note_on_c, 3, 70, 0
4, 171840, Note_on_c, 3, 60, 92
4, 171840, Note_on_c, 3, 63, 92
4, 171840, Note_on_c, 3, 68, 92
4, 172096, Note_on_c, 3, 60, 0
4, 172096, Note_on_c, 3, 63, 0
4, 172096, Note_on_c, 3, 68, 0
4, 172128, Note_on_c, 3, 63, 92
4, 172128, Note_on_c, 3, 68, 92
4, 172222, Note_on_c, 3, 63, 0
4, 172222, Note_on_c, 3, 68, 0
4, 172224, Note_on_c, 3, 60, 92
4, 172224, Note_on_c, 3, 63, 92
4, 172224, Note_on_c, 3, 70, 92
4, 172384, Note_on_c, 3, 60, 0
4, 172384, Note_on_c, 3, 63, 0
4, 172384, Note_on_c, 3, 70, 0
4, 172416, Note_on_c, 3, 60, 92
4, 172416, Note_on_c, 3, 63, 92
4, 172416, Note_on_c, 3, 68, 92
4, 172510, Note_on_c, 3, 60, 0
4, 172510, Note_on_c, 3, 63, 0
4, 172510, Note_on_c, 3, 68, 0
4, 172512, Note_on_c, 3, 58, 92
4, 172606, Note_on_c, 3, 58, 0
4, 172608, Note_on_c, 3, 58, 92
4, 172608, Note_on_c, 3, 65, 92
4, 172702, Note_on_c, 3, 58, 0
4, 172702, Note_on_c, 3, 65, 0
4, 172704, Note_on_c, 3, 58, 92
4, 172704, Note_on_c, 3, 65, 92
4, 172798, Note_on_c, 3, 58, 0
4, 172798, Note_on_c, 3, 65, 0
4, 172800, Note_on_c, 3, 70, 92
4, 172824, Note_on_c, 3, 65, 92
4, 172848, Note_on_c, 3, 58, 92
4, 173056, Note_on_c, 3, 58, 0
4, 173056, Note_on_c, 3, 65, 0
4, 173056, Note_on_c, 3, 70, 0
4, 173088, Note_on_c, 3, 65, 92
4, 173088, Note_on_c, 3, 70, 92
4, 173182, Note_on_c, 3, 65, 0
4, 173182, Note_on_c, 3, 70, 0
4, 173184, Note_on_c, 3, 58, 92
4, 173184, Note_on_c, 3, 65, 92
4, 173184, Note_on_c, 3, 70, 92
4, 173278, Note_on_c, 3, 58, 0
4, 173278, Note_on_c, 3, 65, 0
4, 173278, Note_on_c, 3, 70, 0
4, 173280, Note_on_c, 3, 58, 92
4, 173280, Note_on_c, 3, 65, 92
4, 173280, Note_on_c, 3, 70, 92
4, 173374, Note_on_c, 3, 58, 0
4, 173374, Note_on_c, 3, 65, 0
4, 173374, Note_on_c, 3, 70, 0
4, 173376, Note_on_c, 3, 68, 92
4, 173400, Note_on_c, 3, 63, 92
4, 173424, Note_on_c, 3, 60, 92
4, 173448, Note_on_c, 3, 56, 92
4, 173566, Note_on_c, 3, 56, 0
4, 173566, Note_on_c, 3, 60, 0
4, 173566, Note_on_c, 3, 63, 0
4, 173566, Note_on_c, 3, 68, 0
4, 173568, Note_on_c, 3, 60, 92
4, 173568, Note_on_c, 3, 63, 92
4, 173568, Note_on_c, 3, 68, 92
4, 173662, Note_on_c, 3, 63, 0
4, 173662, Note_on_c, 3, 68, 0
4, 173664, Note_on_c, 3, 63, 92
4, 173664, Note_on_c, 3, 68, 92
4, 173728, Note_on_c, 3, 60, 0
4, 173758, Note_on_c, 3, 63, 0
4, 173758, Note_on_c, 3, 68, 0
4, 173760, Note_on_c, 3, 63, 92
4, 173760, Note_on_c, 3, 70, 92
4, 173854, Note_on_c, 3, 70, 0
4, 173856, Note_on_c, 3, 70, 92
4, 173920, Note_on_c, 3, 63, 0
4, 173950, Note_on_c, 3, 70, 0
4, 173952, Note_on_c, 3, 60, 92
4, 173952, Note_on_c, 3, 63, 92
4, 173952, Note_on_c, 3, 68, 92
4, 174046, Note_on_c, 3, 63, 0
4, 174046, Note_on_c, 3, 68, 0
4, 174048, Note_on_c, 3, 63, 92
4, 174048, Note_on_c, 3, 68, 92
4, 174112, Note_on_c, 3, 60, 0
4, 174142, Note_on_c, 3, 63, 0
4, 174142, Note_on_c, 3, 68, 0
4, 174144, Note_on_c, 3, 55, 92
4, 174144, Note_on_c, 3, 58, 92
4, 174144, Note_on_c, 3, 63, 92
4, 174144, Note_on_c, 3, 67, 92
4, 174238, Note_on_c, 3, 55, 0
4, 174238, Note_on_c, 3, 58, 0
4, 174238, Note_on_c, 3, 63, 0
4, 174238, Note_on_c, 3, 67, 0
4, 174240, Note_on_c, 3, 63, 92
4, 174240, Note_on_c, 3, 67, 92
4, 174334, Note_on_c, 3, 63, 0
4, 174334, Note_on_c, 3, 67, 0
4, 174336, Note_on_c, 3, 55, 92
4, 174336, Note_on_c, 3, 58, 92
4, 174336, Note_on_c, 3, 63, 92
4, 174336, Note_on_c, 3, 70, 92
4, 174592, Note_on_c, 3, 55, 0
4, 174592, Note_on_c, 3, 58, 0
4, 174592, Note_on_c, 3, 63, 0
4, 174592, Note_on_c, 3, 70, 0
4, 174624, Note_on_c, 3, 70, 92
4, 174648, Note_on_c, 3, 63, 92
4, 174672, Note_on_c, 3, 58, 92
4, 174718, Note_on_c, 3, 58, 0
4, 174718, Note_on_c, 3, 63, 0
4, 174718, Note_on_c, 3, 70, 0
4, 174720, Note_on_c, 3, 58, 92
4, 174720, Note_on_c, 3, 63, 92
4, 174720, Note_on_c, 3, 70, 92
4, 174814, Note_on_c, 3, 58, 0
4, 174814, Note_on_c, 3, 63, 0
4, 174814, Note_on_c, 3, 70, 0
4, 174816, Note_on_c, 3, 58, 92
4, 174816, Note_on_c, 3, 62, 92
4, 174816, Note_on_c, 3, 70, 92
4, 174910, Note_on_c, 3, 58, 0
4, 174910, Note_on_c, 3, 62, 0
4, 174910, Note_on_c, 3, 70, 0
4, 174912, Note_on_c, 3, 60, 92
4, 174912, Note_on_c, 3, 70, 92
4, 175006, Note_on_c, 3, 60, 0
4, 175006, Note_on_c, 3, 70, 0
4, 175008, Note_on_c, 3, 62, 92
4, 175008, Note_on_c, 3, 70, 92
4, 175102, Note_on_c, 3, 62, 0
4, 175102, Note_on_c, 3, 70, 0
4, 175104, Note_on_c, 3, 58, 92
4, 175104, Note_on_c, 3, 62, 92
4, 175104, Note_on_c, 3, 70, 92
4, 175360, Note_on_c, 3, 58, 0
4, 175360, Note_on_c, 3, 62, 0
4, 175360, Note_on_c, 3, 70, 0
4, 175392, Note_on_c, 3, 62, 92
4, 175392, Note_on_c, 3, 70, 92
4, 175486, Note_on_c, 3, 62, 0
4, 175486, Note_on_c, 3, 70, 0
4, 175488, Note_on_c, 3, 62, 92
4, 175488, Note_on_c, 3, 70, 92
4, 175582, Note_on_c, 3, 62, 0
4, 175582, Note_on_c, 3, 70, 0
4, 175584, Note_on_c, 3, 62, 92
4, 175584, Note_on_c, 3, 70, 92
4, 175678, Note_on_c, 3, 62, 0
4, 175678, Note_on_c, 3, 70, 0
4, 175680, Note_on_c, 3, 60, 127
4, 175680, Note_on_c, 3, 63, 127
4, 175680, Note_on_c, 3, 68, 127
4, 175774, Note_on_c, 3, 60, 0
4, 175774, Note_on_c, 3, 63, 0
4, 175774, Note_on_c, 3, 68, 0
4, 175776, Note_on_c, 3, 60, 92
4, 175776, Note_on_c, 3, 63, 92
4, 175776, Note_on_c, 3, 68, 92
4, 175870, Note_on_c, 3, 60, 0
4, 175870, Note_on_c, 3, 63, 0
4, 175870, Note_on_c, 3, 68, 0
4, 175872, Note_on_c, 3, 60, 92
4, 175872, Note_on_c, 3, 63, 92
4, 175872, Note_on_c, 3, 68, 92
4, 175904, Note_on_c, 3, 60, 0
4, 175904, Note_on_c, 3, 63, 0
4, 175904, Note_on_c, 3, 68, 0
4, 175968, Note_on_c, 3, 60, 127
4, 175968, Note_on_c, 3, 63, 127
4, 175968, Note_on_c, 3, 68, 127
4, 176062, Note_on_c, 3, 60, 0
4, 176062, Note_on_c, 3, 63, 0
4, 176062, Note_on_c, 3, 68, 0
4, 176064, Note_on_c, 3, 60, 92
4, 176064, Note_on_c, 3, 63, 92
4, 176064, Note_on_c, 3, 68, 92
4, 176158, Note_on_c, 3, 60, 0
4, 176158, Note_on_c, 3, 63, 0
4, 176158, Note_on_c, 3, 68, 0
4, 176160, Note_on_c, 3, 60, 92
4, 176160, Note_on_c, 3, 63, 92
4, 176160, Note_on_c, 3, 68, 92
4, 176192, Note_on_c, 3, 60, 0
4, 176192, Note_on_c, 3, 63, 0
4, 176192, Note_on_c, 3, 68, 0
4, 176256, Note_on_c, 3, 60, 127
4, 176256, Note_on_c, 3, 63, 127
4, 176256, Note_on_c, 3, 68, 127
4, 176350, Note_on_c, 3, 60, 0
4, 176350, Note_on_c, 3, 63, 0
4, 176350, Note_on_c, 3, 68, 0
4, 176352, Note_on_c, 3, 60, 92
4, 176352, Note_on_c, 3, 63, 92
4, 176352, Note_on_c, 3, 68, 92
4, 176446, Note_on_c, 3, 60, 0
4, 176446, Note_on_c, 3, 63, 0
4, 176446, Note_on_c, 3, 68, 0
4, 176448, Note_on_c, 3, 60, 92
4, 176448, Note_on_c, 3, 63, 92
4, 176448, Note_on_c, 3, 68, 92
4, 176480, Note_on_c, 3, 60, 0
4, 176480, Note_on_c, 3, 63, 0
4, 176480, Note_on_c, 3, 68, 0
4, 176544, Note_on_c, 3, 60, 127
4, 176544, Note_on_c, 3, 63, 127
4, 176544, Note_on_c, 3, 68, 127
4, 176638, Note_on_c, 3, 60, 0
4, 176638, Note_on_c, 3, 63, 0
4, 176638, Note_on_c, 3, 68, 0
4, 176640, Note_on_c, 3, 60, 92
4, 176640, Note_on_c, 3, 63, 92
4, 176640, Note_on_c, 3, 68, 92
4, 176734, Note_on_c, 3, 60, 0
4, 176734, Note_on_c, 3, 63, 0
4, 176734, Note_on_c, 3, 68, 0
4, 176736, Note_on_c, 3, 60, 92
4, 176736, Note_on_c, 3, 63, 92
4, 176736, Note_on_c, 3, 68, 92
4, 176768, Note_on_c, 3, 60, 0
4, 176768, Note_on_c, 3, 63, 0
4, 176768, Note_on_c, 3, 68, 0
4, 176832, Note_on_c, 3, 60, 127
4, 176832, Note_on_c, 3, 63, 127
4, 176832, Note_on_c, 3, 68, 127
4, 176926, Note_on_c, 3, 60, 0
4, 176926, Note_on_c, 3, 63, 0
4, 176926, Note_on_c, 3, 68, 0
4, 176928, Note_on_c, 3, 60, 92
4, 176928, Note_on_c, 3, 63, 92
4, 176928, Note_on_c, 3, 68, 92
4, 177022, Note_on_c, 3, 60, 0
4, 177022, Note_on_c, 3, 63, 0
4, 177022, Note_on_c, 3, 68, 0
4, 177024, Note_on_c, 3, 60, 127
4, 177024, Note_on_c, 3, 63, 127
4, 177024, Note_on_c, 3, 68, 127
4, 177118, Note_on_c, 3, 60, 0
4, 177118, Note_on_c, 3, 63, 0
4, 177118, Note_on_c, 3, 68, 0
4, 177120, Note_on_c, 3, 60, 92
4, 177120, Note_on_c, 3, 63, 92
4, 177120, Note_on_c, 3, 68, 92
4, 177214, Note_on_c, 3, 60, 0
4, 177214, Note_on_c, 3, 63, 0
4, 177214, Note_on_c, 3, 68, 0
4, 178560, Note_on_c, 3, 67, 92
4, 178720, Note_on_c, 3, 67, 0
4, 178752, Note_on_c, 3, 74, 92
4, 178846, Note_on_c, 3, 74, 0
4, 178848, Note_on_c, 3, 72, 92
4, 178942, Note_on_c, 3, 72, 0
4, 178944, Note_on_c, 3, 74, 92
4, 179038, Note_on_c, 3, 74, 0
4, 179136, Note_on_c, 3, 67, 92
4, 179296, Note_on_c, 3, 67, 0
4, 179328, Note_on_c, 3, 70, 92
4, 179422, Note_on_c, 3, 70, 0
4, 179424, Note_on_c, 3, 69, 92
4, 179518, Note_on_c, 3, 69, 0
4, 179520, Note_on_c, 3, 67, 92
4, 179614, Note_on_c, 3, 67, 0
4, 179616, Note_on_c, 3, 65, 92
4, 179710, Note_on_c, 3, 65, 0
4, 179712, Note_on_c, 3, 69, 92
4, 179806, Note_on_c, 3, 69, 0
4, 179808, Note_on_c, 3, 65, 92
4, 179902, Note_on_c, 3, 65, 0
4, 179904, Note_on_c, 3, 67, 92
4, 180240, Note_on_c, 3, 67, 0
4, 180480, Note_on_c, 3, 67, 92
4, 180640, Note_on_c, 3, 67, 0
4, 180672, Note_on_c, 3, 69, 92
4, 181008, Note_on_c, 3, 69, 0
4, 181248, Note_on_c, 3, 69, 92
4, 181408, Note_on_c, 3, 69, 0
4, 181440, Note_on_c, 3, 70, 92
4, 181776, Note_on_c, 3, 70, 0
4, 182016, Note_on_c, 3, 72, 92
4, 182176, Note_on_c, 3, 72, 0
4, 182208, Note_on_c, 3, 74, 92
4, 182368, Note_on_c, 3, 74, 0
4, 182400, Note_on_c, 3, 66, 92
4, 182560, Note_on_c, 3, 66, 0
4, 182592, Note_on_c, 3, 55, 92
4, 182592, Note_on_c, 3, 67, 92
4, 182752, Note_on_c, 3, 67, 0
4, 182784, Note_on_c, 3, 67, 92
4, 182878, Note_on_c, 3, 67, 0
4, 182880, Note_on_c, 3, 69, 92
4, 182928, Note_on_c, 3, 55, 0
4, 182974, Note_on_c, 3, 69, 0
4, 182976, Note_on_c, 3, 70, 92
4, 183136, Note_on_c, 3, 70, 0
4, 183168, Note_on_c, 3, 72, 92
4, 183328, Note_on_c, 3, 72, 0
4, 183360, Note_on_c, 3, 65, 92
4, 183520, Note_on_c, 3, 65, 0
4, 183552, Note_on_c, 3, 60, 92
4, 183552, Note_on_c, 3, 65, 92
4, 183888, Note_on_c, 3, 60, 0
4, 183888, Note_on_c, 3, 65, 0
4, 183936, Note_on_c, 3, 60, 92
4, 183936, Note_on_c, 3, 65, 92
4, 184096, Note_on_c, 3, 60, 0
4, 184096, Note_on_c, 3, 65, 0
4, 184128, Note_on_c, 3, 62, 92
4, 184128, Note_on_c, 3, 66, 92
4, 184384, Note_on_c, 3, 66, 0
4, 184416, Note_on_c, 3, 64, 92
4, 184464, Note_on_c, 3, 62, 0
4, 184510, Note_on_c, 3, 64, 0
4, 184512, Note_on_c, 3, 62, 92
4, 184672, Note_on_c, 3, 62, 0
4, 184704, Note_on_c, 3, 67, 92
4, 184704, Note_on_c, 3, 70, 92
4, 184864, Note_on_c, 3, 70, 0
4, 184896, Note_on_c, 3, 69, 92
4, 185040, Note_on_c, 3, 67, 0
4, 185056, Note_on_c, 3, 69, 0
4, 185088, Note_on_c, 3, 67, 92
4, 185248, Note_on_c, 3, 67, 0
4, 185280, Note_on_c, 3, 66, 92
4, 185280, Note_on_c, 3, 69, 92
4, 185440, Note_on_c, 3, 69, 0
4, 185472, Note_on_c, 3, 66, 92
4, 185566, Note_on_c, 3, 66, 0
4, 185568, Note_on_c, 3, 67, 92
4, 185616, Note_on_c, 3, 66, 0
4, 185662, Note_on_c, 3, 67, 0
4, 185664, Note_on_c, 3, 69, 92
4, 185824, Note_on_c, 3, 69, 0
4, 185856, Note_on_c, 3, 74, 92
4, 186016, Note_on_c, 3, 74, 0
4, 186048, Note_on_c, 3, 67, 92
4, 186208, Note_on_c, 3, 67, 0
4, 186240, Note_on_c, 3, 66, 92
4, 186240, Note_on_c, 3, 69, 92
4, 186400, Note_on_c, 3, 66, 0
4, 186400, Note_on_c, 3, 69, 0
4, 186432, Note_on_c, 3, 67, 92
4, 186432, Note_on_c, 3, 71, 92
4, 186688, Note_on_c, 3, 71, 0
4, 186720, Note_on_c, 3, 72, 92
4, 186814, Note_on_c, 3, 72, 0
4, 186816, Note_on_c, 3, 74, 92
4, 186960, Note_on_c, 3, 67, 0
4, 186976, Note_on_c, 3, 74, 0
4, 187008, Note_on_c, 3, 67, 92
4, 187008, Note_on_c, 3, 72, 92
4, 187264, Note_on_c, 3, 72, 0
4, 187296, Note_on_c, 3, 74, 92
4, 187390, Note_on_c, 3, 74, 0
4, 187392, Note_on_c, 3, 76, 92
4, 187536, Note_on_c, 3, 67, 0
4, 187552, Note_on_c, 3, 76, 0
4, 187584, Note_on_c, 3, 67, 92
4, 187584, Note_on_c, 3, 76, 92
4, 187744, Note_on_c, 3, 76, 0
4, 187776, Note_on_c, 3, 74, 92
4, 187936, Note_on_c, 3, 74, 0
4, 187968, Note_on_c, 3, 72, 92
4, 188112, Note_on_c, 3, 67, 0
4, 188128, Note_on_c, 3, 72, 0
4, 188160, Note_on_c, 3, 67, 92
4, 188160, Note_on_c, 3, 71, 92
4, 188320, Note_on_c, 3, 71, 0
4, 188352, Note_on_c, 3, 74, 92
4, 188496, Note_on_c, 3, 67, 0
4, 188512, Note_on_c, 3, 74, 0
4, 188544, Note_on_c, 3, 65, 92
4, 188544, Note_on_c, 3, 69, 92
4, 188800, Note_on_c, 3, 69, 0
4, 188832, Note_on_c, 3, 70, 92
4, 188926, Note_on_c, 3, 70, 0
4, 188928, Note_on_c, 3, 72, 92
4, 189072, Note_on_c, 3, 65, 0
4, 189088, Note_on_c, 3, 72, 0
4, 189120, Note_on_c, 3, 65, 92
4, 189120, Note_on_c, 3, 69, 92
4, 189280, Note_on_c, 3, 69, 0
4, 189312, Note_on_c, 3, 67, 92
4, 189456, Note_on_c, 3, 65, 0
4, 189472, Note_on_c, 3, 67, 0
4, 189504, Note_on_c, 3, 66, 92
4, 189664, Note_on_c, 3, 66, 0
4, 189696, Note_on_c, 3, 66, 92
4, 189790, Note_on_c, 3, 66, 0
4, 189792, Note_on_c, 3, 67, 92
4, 189886, Note_on_c, 3, 67, 0
4, 189888, Note_on_c, 3, 66, 92
4, 189888, Note_on_c, 3, 69, 92
4, 190048, Note_on_c, 3, 66, 0
4, 190048, Note_on_c, 3, 69, 0
4, 190080, Note_on_c, 3, 55, 92
4, 190080, Note_on_c, 3, 67, 92
4, 190240, Note_on_c, 3, 67, 0
4, 190272, Note_on_c, 3, 67, 92
4, 190366, Note_on_c, 3, 67, 0
4, 190368, Note_on_c, 3, 69, 92
4, 190416, Note_on_c, 3, 55, 0
4, 190462, Note_on_c, 3, 69, 0
4, 190464, Note_on_c, 3, 70, 92
4, 190624, Note_on_c, 3, 70, 0
4, 190656, Note_on_c, 3, 72, 92
4, 190816, Note_on_c, 3, 72, 0
4, 190848, Note_on_c, 3, 65, 92
4, 191008, Note_on_c, 3, 65, 0
4, 191040, Note_on_c, 3, 62, 92
4, 191040, Note_on_c, 3, 67, 92
4, 191968, Note_on_c, 3, 62, 0
4, 191968, Note_on_c, 3, 67, 0
4, 192000, Note_on_c, 3, 55, 92
4, 192160, Note_on_c, 3, 55, 0
4, 192192, Note_on_c, 3, 67, 92
4, 192286, Note_on_c, 3, 67, 0
4, 192288, Note_on_c, 3, 65, 92
4, 192382, Note_on_c, 3, 65, 0
4, 192384, Note_on_c, 3, 67, 92
4, 192544, Note_on_c, 3, 67, 0
4, 192576, Note_on_c, 3, 55, 92
4, 192736, Note_on_c, 3, 55, 0
4, 192768, Note_on_c, 3, 62, 92
4, 192862, Note_on_c, 3, 62, 0
4, 192864, Note_on_c, 3, 60, 92
4, 192958, Note_on_c, 3, 60, 0
4, 192960, Note_on_c, 3, 58, 92
4, 193054, Note_on_c, 3, 58, 0
4, 193056, Note_on_c, 3, 57, 92
4, 193150, Note_on_c, 3, 57, 0
4, 193152, Note_on_c, 3, 60, 92
4, 193246, Note_on_c, 3, 60, 0
4, 193248, Note_on_c, 3, 57, 92
4, 193342, Note_on_c, 3, 57, 0
4, 193344, Note_on_c, 3, 55, 92
4, 193344, Note_on_c, 3, 67, 92
4, 193504, Note_on_c, 3, 67, 0
4, 193536, Note_on_c, 3, 67, 92
4, 193630, Note_on_c, 3, 67, 0
4, 193632, Note_on_c, 3, 69, 92
4, 193680, Note_on_c, 3, 55, 0
4, 193726, Note_on_c, 3, 69, 0
4, 193728, Note_on_c, 3, 70, 92
4, 193888, Note_on_c, 3, 70, 0
4, 193920, Note_on_c, 3, 72, 92
4, 194080, Note_on_c, 3, 72, 0
4, 194112, Note_on_c, 3, 65, 92
4, 194272, Note_on_c, 3, 65, 0
4, 194304, Note_on_c, 3, 60, 92
4, 194304, Note_on_c, 3, 65, 92
4, 194640, Note_on_c, 3, 60, 0
4, 194640, Note_on_c, 3, 65, 0
4, 194688, Note_on_c, 3, 60, 92
4, 194688, Note_on_c, 3, 65, 92
4, 194848, Note_on_c, 3, 60, 0
4, 194848, Note_on_c, 3, 65, 0
4, 194880, Note_on_c, 3, 62, 92
4, 194880, Note_on_c, 3, 66, 92
4, 195136, Note_on_c, 3, 66, 0
4, 195168, Note_on_c, 3, 64, 92
4, 195216, Note_on_c, 3, 62, 0
4, 195262, Note_on_c, 3, 64, 0
4, 195264, Note_on_c, 3, 62, 92
4, 195424, Note_on_c, 3, 62, 0
4, 195456, Note_on_c, 3, 67, 92
4, 195456, Note_on_c, 3, 70, 92
4, 195616, Note_on_c, 3, 70, 0
4, 195648, Note_on_c, 3, 69, 92
4, 195792, Note_on_c, 3, 67, 0
4, 195808, Note_on_c, 3, 69, 0
4, 195840, Note_on_c, 3, 67, 92
4, 196000, Note_on_c, 3, 67, 0
4, 196032, Note_on_c, 3, 66, 92
4, 196032, Note_on_c, 3, 69, 92
4, 196192, Note_on_c, 3, 69, 0
4, 196224, Note_on_c, 3, 66, 92
4, 196318, Note_on_c, 3, 66, 0
4, 196320, Note_on_c, 3, 67, 92
4, 196368, Note_on_c, 3, 66, 0
4, 196414, Note_on_c, 3, 67, 0
4, 196416, Note_on_c, 3, 69, 92
4, 196576, Note_on_c, 3, 69, 0
4, 196608, Note_on_c, 3, 74, 92
4, 196768, Note_on_c, 3, 74, 0
4, 196800, Note_on_c, 3, 67, 92
4, 196960, Note_on_c, 3, 67, 0
4, 196992, Note_on_c, 3, 66, 92
4, 196992, Note_on_c, 3, 69, 92
4, 197152, Note_on_c, 3, 66, 0
4, 197152, Note_on_c, 3, 69, 0
4, 197184, Note_on_c, 3, 67, 92
4, 197184, Note_on_c, 3, 71, 92
4, 197440, Note_on_c, 3, 71, 0
4, 197472, Note_on_c, 3, 72, 92
4, 197566, Note_on_c, 3, 72, 0
4, 197568, Note_on_c, 3, 74, 92
4, 197712, Note_on_c, 3, 67, 0
4, 197728, Note_on_c, 3, 74, 0
4, 197760, Note_on_c, 3, 67, 92
4, 197760, Note_on_c, 3, 72, 92
4, 198016, Note_on_c, 3, 72, 0
4, 198048, Note_on_c, 3, 74, 92
4, 198142, Note_on_c, 3, 74, 0
4, 198144, Note_on_c, 3, 76, 92
4, 198288, Note_on_c, 3, 67, 0
4, 198304, Note_on_c, 3, 76, 0
4, 198336, Note_on_c, 3, 67, 92
4, 198336, Note_on_c, 3, 76, 92
4, 198496, Note_on_c, 3, 76, 0
4, 198528, Note_on_c, 3, 74, 92
4, 198688, Note_on_c, 3, 74, 0
4, 198720, Note_on_c, 3, 72, 92
4, 198864, Note_on_c, 3, 67, 0
4, 198880, Note_on_c, 3, 72, 0
4, 198912, Note_on_c, 3, 67, 92
4, 198912, Note_on_c, 3, 71, 92
4, 199072, Note_on_c, 3, 71, 0
4, 199104, Note_on_c, 3, 74, 92
4, 199248, Note_on_c, 3, 67, 0
4, 199264, Note_on_c, 3, 74, 0
4, 199296, Note_on_c, 3, 65, 92
4, 199296, Note_on_c, 3, 69, 92
4, 199552, Note_on_c, 3, 69, 0
4, 199584, Note_on_c, 3, 70, 92
4, 199678, Note_on_c, 3, 70, 0
4, 199680, Note_on_c, 3, 72, 92
4, 199824, Note_on_c, 3, 65, 0
4, 199840, Note_on_c, 3, 72, 0
4, 199872, Note_on_c, 3, 65, 92
4, 199872, Note_on_c, 3, 69, 92
4, 200032, Note_on_c, 3, 69, 0
4, 200064, Note_on_c, 3, 67, 92
4, 200208, Note_on_c, 3, 65, 0
4, 200224, Note_on_c, 3, 67, 0
4, 200256, Note_on_c, 3, 66, 92
4, 200416, Note_on_c, 3, 66, 0
4, 200448, Note_on_c, 3, 66, 92
4, 200542, Note_on_c, 3, 66, 0
4, 200544, Note_on_c, 3, 67, 92
4, 200638, Note_on_c, 3, 67, 0
4, 200640, Note_on_c, 3, 66, 92
4, 200640, Note_on_c, 3, 69, 92
4, 200800, Note_on_c, 3, 66, 0
4, 200800, Note_on_c, 3, 69, 0
4, 200832, Note_on_c, 3, 55, 92
4, 200832, Note_on_c, 3, 67, 92
4, 200992, Note_on_c, 3, 67, 0
4, 201024, Note_on_c, 3, 67, 92
4, 201118, Note_on_c, 3, 67, 0
4, 201120, Note_on_c, 3, 69, 92
4, 201168, Note_on_c, 3, 55, 0
4, 201214, Note_on_c, 3, 69, 0
4, 201216, Note_on_c, 3, 70, 92
4, 201376, Note_on_c, 3, 70, 0
4, 201408, Note_on_c, 3, 72, 92
4, 201568, Note_on_c, 3, 72, 0
4, 201600, Note_on_c, 3, 65, 92
4, 201760, Note_on_c, 3, 65, 0
4, 201792, Note_on_c, 3, 62, 92
4, 201792, Note_on_c, 3, 67, 92
4, 202720, Note_on_c, 3, 62, 0
4, 202720, Note_on_c, 3, 67, 0
4, 202752, Note_on_c, 3, 55, 92
4, 202912, Note_on_c, 3, 55, 0
4, 202944, Note_on_c, 3, 67, 92
4, 203038, Note_on_c, 3, 67, 0
4, 203040, Note_on_c, 3, 65, 92
4, 203134, Note_on_c, 3, 65, 0
4, 203136, Note_on_c, 3, 67, 92
4, 203296, Note_on_c, 3, 67, 0
4, 203328, Note_on_c, 3, 55, 92
4, 203488, Note_on_c, 3, 55, 0
4, 203520, Note_on_c, 3, 62, 92
4, 203614, Note_on_c, 3, 62, 0
4, 203616, Note_on_c, 3, 60, 92
4, 203710, Note_on_c, 3, 60, 0
4, 203712, Note_on_c, 3, 58, 92
4, 203806, Note_on_c, 3, 58, 0
4, 203808, Note_on_c, 3, 57, 92
4, 203902, Note_on_c, 3, 57, 0
4, 203904, Note_on_c, 3, 60, 92
4, 203998, Note_on_c, 3, 60, 0
4, 204000, Note_on_c, 3, 57, 92
4, 204094, Note_on_c, 3, 57, 0
4, 204096, Note_on_c, 3, 55, 92
4, 204256, Note_on_c, 3, 55, 0
4, 204288, Note_on_c, 3, 67, 92
4, 204382, Note_on_c, 3, 67, 0
4, 204384, Note_on_c, 3, 65, 92
4, 204478, Note_on_c, 3, 65, 0
4, 204480, Note_on_c, 3, 67, 92
4, 204640, Note_on_c, 3, 67, 0
4, 204672, Note_on_c, 3, 55, 92
4, 204832, Note_on_c, 3, 55, 0
4, 204864, Note_on_c, 3, 60, 92
4, 204958, Note_on_c, 3, 60, 0
4, 204960, Note_on_c, 3, 62, 92
4, 205054, Note_on_c, 3, 62, 0
4, 205056, Note_on_c, 3, 65, 92
4, 205216, Note_on_c, 3, 65, 0
4, 205248, Note_on_c, 3, 55, 92
4, 205408, Note_on_c, 3, 55, 0
4, 205440, Note_on_c, 3, 67, 92
4, 205534, Note_on_c, 3, 67, 0
4, 205536, Note_on_c, 3, 65, 92
4, 205630, Note_on_c, 3, 65, 0
4, 205632, Note_on_c, 3, 67, 92
4, 205792, Note_on_c, 3, 67, 0
4, 205824, Note_on_c, 3, 55, 92
4, 205984, Note_on_c, 3, 55, 0
4, 206016, Note_on_c, 3, 62, 92
4, 206110, Note_on_c, 3, 62, 0
4, 206112, Note_on_c, 3, 60, 92
4, 206206, Note_on_c, 3, 60, 0
4, 206208, Note_on_c, 3, 58, 92
4, 206302, Note_on_c, 3, 58, 0
4, 206304, Note_on_c, 3, 57, 92
4, 206398, Note_on_c, 3, 57, 0
4, 206400, Note_on_c, 3, 60, 92
4, 206494, Note_on_c, 3, 60, 0
4, 206496, Note_on_c, 3, 57, 92
4, 206590, Note_on_c, 3, 57, 0
4, 206592, Note_on_c, 3, 55, 92
4, 206752, Note_on_c, 3, 55, 0
4, 206784, Note_on_c, 3, 67, 92
4, 206878, Note_on_c, 3, 67, 0
4, 206880, Note_on_c, 3, 65, 92
4, 206974, Note_on_c, 3, 65, 0
4, 206976, Note_on_c, 3, 67, 92
4, 207136, Note_on_c, 3, 67, 0
4, 207168, Note_on_c, 3, 55, 92
4, 207328, Note_on_c, 3, 55, 0
4, 207360, Note_on_c, 3, 60, 92
4, 207454, Note_on_c, 3, 60, 0
4, 207456, Note_on_c, 3, 62, 92
4, 207550, Note_on_c, 3, 62, 0
4, 207552, Note_on_c, 3, 65, 92
4, 207712, Note_on_c, 3, 65, 0
4, 207744, Note_on_c, 3, 55, 92
4, 207904, Note_on_c, 3, 55, 0
4, 207936, Note_on_c, 3, 67, 92
4, 208030, Note_on_c, 3, 67, 0
4, 208032, Note_on_c, 3, 65, 92
4, 208126, Note_on_c, 3, 65, 0
4, 208128, Note_on_c, 3, 67, 92
4, 208288, Note_on_c, 3, 67, 0
4, 208320, Note_on_c, 3, 55, 92
4, 208480, Note_on_c, 3, 55, 0
4, 208512, Note_on_c, 3, 62, 92
4, 208606, Note_on_c, 3, 62, 0
4, 208608, Note_on_c, 3, 60, 92
4, 208702, Note_on_c, 3, 60, 0
4, 208704, Note_on_c, 3, 58, 92
4, 208798, Note_on_c, 3, 58, 0
4, 208800, Note_on_c, 3, 57, 92
4, 208894, Note_on_c, 3, 57, 0
4, 208896, Note_on_c, 3, 60, 92
4, 208990, Note_on_c, 3, 60, 0
4, 208992, Note_on_c, 3, 57, 92
4, 209086, Note_on_c, 3, 57, 0
4, 209088, Note_on_c, 3, 55, 92
4, 209248, Note_on_c, 3, 55, 0
4, 209280, Note_on_c, 3, 67, 92
4, 209374, Note_on_c, 3, 67, 0
4, 209376, Note_on_c, 3, 65, 92
4, 209470, Note_on_c, 3, 65, 0
4, 209472, Note_on_c, 3, 67, 92
4, 209632, Note_on_c, 3, 67, 0
4, 209664, Note_on_c, 3, 55, 92
4, 209824, Note_on_c, 3, 55, 0
4, 209856, Note_on_c, 3, 60, 92
4, 209950, Note_on_c, 3, 60, 0
4, 209952, Note_on_c, 3, 62, 92
4, 210046, Note_on_c, 3, 62, 0
4, 210048, Note_on_c, 3, 65, 92
4, 210208, Note_on_c, 3, 65, 0
4, 210240, Note_on_c, 3, 55, 92
4, 210400, Note_on_c, 3, 55, 0
4, 210432, Note_on_c, 3, 67, 92
4, 210526, Note_on_c, 3, 67, 0
4, 210528, Note_on_c, 3, 65, 92
4, 210622, Note_on_c, 3, 65, 0
4, 210624, Note_on_c, 3, 67, 92
4, 210784, Note_on_c, 3, 67, 0
4, 210816, Note_on_c, 3, 55, 92
4, 210976, Note_on_c, 3, 55, 0
4, 211008, Note_on_c, 3, 62, 92
4, 211102, Note_on_c, 3, 62, 0
4, 211104, Note_on_c, 3, 60, 92
4, 211198, Note_on_c, 3, 60, 0
4, 211200, Note_on_c, 3, 58, 92
4, 211294, Note_on_c, 3, 58, 0
4, 211296, Note_on_c, 3, 57, 92
4, 211390, Note_on_c, 3, 57, 0
4, 211392, Note_on_c, 3, 60, 92
4, 211486, Note_on_c, 3, 60, 0
4, 211488, Note_on_c, 3, 57, 92
4, 211582, Note_on_c, 3, 57, 0
4, 211584, Note_on_c, 3, 55, 92
4, 211744, Note_on_c, 3, 55, 0
4, 211776, Note_on_c, 3, 67, 92
4, 211870, Note_on_c, 3, 67, 0
4, 211872, Note_on_c, 3, 65, 92
4, 211966, Note_on_c, 3, 65, 0
4, 211968, Note_on_c, 3, 67, 92
4, 212128, Note_on_c, 3, 67, 0
4, 212160, Note_on_c, 3, 55, 92
4, 212320, Note_on_c, 3, 55, 0
4, 212352, Note_on_c, 3, 60, 92
4, 212446, Note_on_c, 3, 60, 0
4, 212448, Note_on_c, 3, 62, 92
4, 212542, Note_on_c, 3, 62, 0
4, 212544, Note_on_c, 3, 65, 92
4, 212704, Note_on_c, 3, 65, 0
4, 212736, Note_on_c, 3, 55, 92
4, 212896, Note_on_c, 3, 55, 0
4, 212928, Note_on_c, 3, 67, 92
4, 213022, Note_on_c, 3, 67, 0
4, 213024, Note_on_c, 3, 65, 92
4, 213118, Note_on_c, 3, 65, 0
4, 213120, Note_on_c, 3, 67, 92
4, 213280, Note_on_c, 3, 67, 0
4, 213312, Note_on_c, 3, 55, 92
4, 213472, Note_on_c, 3, 55, 0
4, 213504, Note_on_c, 3, 62, 92
4, 213598, Note_on_c, 3, 62, 0
4, 213600, Note_on_c, 3, 60, 92
4, 213694, Note_on_c, 3, 60, 0
4, 213696, Note_on_c, 3, 58, 92
4, 213790, Note_on_c, 3, 58, 0
4, 213792, Note_on_c, 3, 57, 92
4, 213886, Note_on_c, 3, 57, 0
4, 213888, Note_on_c, 3, 60, 92
4, 213982, Note_on_c, 3, 60, 0
4, 213984, Note_on_c, 3, 57, 92
4, 214078, Note_on_c, 3, 57, 0
4, 214080, Note_on_c, 3, 55, 92
4, 214104, Note_on_c, 3, 58, 92
4, 214128, Note_on_c, 3, 62, 92
4, 215376, Note_on_c, 3, 55, 0
4, 215376, Note_on_c, 3, 58, 0
4, 215376, Note_on_c, 3, 62, 0
4, 215424, Note_on_c, 3, 55, 92
4, 215448, Note_on_c, 3, 58, 92
4, 215472, Note_on_c, 3, 62, 92
4, 216720, Note_on_c, 3, 55, 0
4, 216720, Note_on_c, 3, 58, 0
4, 216720, Note_on_c, 3, 62, 0
4, 216720, End_track
5, 0, Start_track
5, 0, MIDI_port, 0
5, 0, Title_t, "Celeste., keys"
5, 0, Program_c, 4, 8
5, 0, Control_c, 4, 7, 127
5, 0, Control_c, 4, 10, 64
5, 7296, Note_on_c, 4, 79, 110
5, 7456, Note_on_c, 4, 79, 0
5, 7488, Note_on_c, 4, 79, 110
5, 7582, Note_on_c, 4, 79, 0
5, 7584, Note_on_c, 4, 81, 110
5, 7678, Note_on_c, 4, 81, 0
5, 7680, Note_on_c, 4, 82, 110
5, 7840, Note_on_c, 4, 82, 0
5, 7872, Note_on_c, 4, 84, 110
5, 8032, Note_on_c, 4, 84, 0
5, 8064, Note_on_c, 4, 77, 110
5, 8224, Note_on_c, 4, 77, 0
5, 8256, Note_on_c, 4, 79, 110
5, 8784, Note_on_c, 4, 79, 0
5, 8832, Note_on_c, 4, 79, 110
5, 8992, Note_on_c, 4, 79, 0
5, 9024, Note_on_c, 4, 81, 110
5, 9552, Note_on_c, 4, 81, 0
5, 9600, Note_on_c, 4, 81, 110
5, 9760, Note_on_c, 4, 81, 0
5, 9792, Note_on_c, 4, 82, 110
5, 10320, Note_on_c, 4, 82, 0
5, 10368, Note_on_c, 4, 84, 110
5, 10528, Note_on_c, 4, 84, 0
5, 10560, Note_on_c, 4, 86, 110
5, 10720, Note_on_c, 4, 86, 0
5, 10752, Note_on_c, 4, 90, 110
5, 10912, Note_on_c, 4, 90, 0
5, 10944, Note_on_c, 4, 91, 110
5, 10992, Note_on_c, 4, 91, 0
5, 18432, Program_c, 4, 18
5, 19200, Note_on_c, 4, 77, 92
5, 19294, Note_on_c, 4, 77, 0
5, 19296, Note_on_c, 4, 79, 92
5, 19390, Note_on_c, 4, 79, 0
5, 19392, Note_on_c, 4, 81, 92
5, 19486, Note_on_c, 4, 81, 0
5, 19584, Note_on_c, 4, 79, 92
5, 19744, Note_on_c, 4, 79, 0
5, 19776, Note_on_c, 4, 79, 92
5, 19776, Note_on_c, 4, 82, 92
5, 19870, Note_on_c, 4, 79, 0
5, 19870, Note_on_c, 4, 82, 0
5, 19872, Note_on_c, 4, 77, 92
5, 19872, Note_on_c, 4, 81, 92
5, 19966, Note_on_c, 4, 77, 0
5, 19966, Note_on_c, 4, 81, 0
5, 19968, Note_on_c, 4, 79, 92
5, 19968, Note_on_c, 4, 82, 92
5, 20128, Note_on_c, 4, 79, 0
5, 20128, Note_on_c, 4, 82, 0
5, 20160, Note_on_c, 4, 79, 92
5, 20320, Note_on_c, 4, 79, 0
5, 20352, Note_on_c, 4, 79, 92
5, 20352, Note_on_c, 4, 82, 92
5, 20446, Note_on_c, 4, 79, 0
5, 20446, Note_on_c, 4, 82, 0
5, 20448, Note_on_c, 4, 77, 92
5, 20448, Note_on_c, 4, 81, 92
5, 20542, Note_on_c, 4, 77, 0
5, 20542, Note_on_c, 4, 81, 0
5, 20544, Note_on_c, 4, 76, 92
5, 20544, Note_on_c, 4, 79, 92
5, 20638, Note_on_c, 4, 76, 0
5, 20638, Note_on_c, 4, 79, 0
5, 20640, Note_on_c, 4, 74, 92
5, 20640, Note_on_c, 4, 77, 92
5, 20734, Note_on_c, 4, 74, 0
5, 20734, Note_on_c, 4, 77, 0
5, 20736, Note_on_c, 4, 77, 92
5, 20736, Note_on_c, 4, 81, 92
5, 20830, Note_on_c, 4, 77, 0
5, 20830, Note_on_c, 4, 81, 0
5, 20832, Note_on_c, 4, 74, 92
5, 20832, Note_on_c, 4, 77, 92
5, 20926, Note_on_c, 4, 74, 0
5, 20926, Note_on_c, 4, 77, 0
5, 20928, Note_on_c, 4, 70, 92
5, 20928, Note_on_c, 4, 79, 92
5, 21088, Note_on_c, 4, 70, 0
5, 21088, Note_on_c, 4, 79, 0
5, 21120, Note_on_c, 4, 79, 92
5, 21120, Note_on_c, 4, 82, 92
5, 21214, Note_on_c, 4, 79, 0
5, 21214, Note_on_c, 4, 82, 0
5, 21216, Note_on_c, 4, 77, 92
5, 21216, Note_on_c, 4, 81, 92
5, 21310, Note_on_c, 4, 77, 0
5, 21310, Note_on_c, 4, 81, 0
5, 21312, Note_on_c, 4, 79, 92
5, 21312, Note_on_c, 4, 82, 92
5, 21472, Note_on_c, 4, 79, 0
5, 21472, Note_on_c, 4, 82, 0
5, 21504, Note_on_c, 4, 79, 92
5, 21664, Note_on_c, 4, 79, 0
5, 21696, Note_on_c, 4, 72, 92
5, 21696, Note_on_c, 4, 77, 92
5, 21696, Note_on_c, 4, 81, 92
5, 21790, Note_on_c, 4, 72, 0
5, 21790, Note_on_c, 4, 77, 0
5, 21790, Note_on_c, 4, 81, 0
5, 21792, Note_on_c, 4, 74, 92
5, 21792, Note_on_c, 4, 79, 92
5, 21792, Note_on_c, 4, 82, 92
5, 21886, Note_on_c, 4, 74, 0
5, 21886, Note_on_c, 4, 79, 0
5, 21886, Note_on_c, 4, 82, 0
5, 21888, Note_on_c, 4, 77, 92
5, 21888, Note_on_c, 4, 81, 92
5, 21888, Note_on_c, 4, 84, 92
5, 22048, Note_on_c, 4, 77, 0
5, 22048, Note_on_c, 4, 81, 0
5, 22048, Note_on_c, 4, 84, 0
5, 22080, Note_on_c, 4, 70, 92
5, 22080, Note_on_c, 4, 79, 92
5, 22240, Note_on_c, 4, 70, 0
5, 22240, Note_on_c, 4, 79, 0
5, 22272, Note_on_c, 4, 79, 92
5, 22272, Note_on_c, 4, 82, 92
5, 22366, Note_on_c, 4, 79, 0
5, 22366, Note_on_c, 4, 82, 0
5, 22368, Note_on_c, 4, 77, 92
5, 22368, Note_on_c, 4, 81, 92
5, 22462, Note_on_c, 4, 77, 0
5, 22462, Note_on_c, 4, 81, 0
5, 22464, Note_on_c, 4, 79, 92
5, 22464, Note_on_c, 4, 82, 92
5, 22624, Note_on_c, 4, 79, 0
5, 22624, Note_on_c, 4, 82, 0
5, 22656, Note_on_c, 4, 79, 92
5, 22816, Note_on_c, 4, 79, 0
5, 22848, Note_on_c, 4, 79, 92
5, 22848, Note_on_c, 4, 82, 92
5, 22942, Note_on_c, 4, 79, 0
5, 22942, Note_on_c, 4, 82, 0
5, 22944, Note_on_c, 4, 77, 92
5, 22944, Note_on_c, 4, 81, 92
5, 23038, Note_on_c, 4, 77, 0
5, 23038, Note_on_c, 4, 81, 0
5, 23040, Note_on_c, 4, 76, 92
5, 23040, Note_on_c, 4, 79, 92
5, 23134, Note_on_c, 4, 76, 0
5, 23134, Note_on_c, 4, 79, 0
5, 23136, Note_on_c, 4, 74, 92
5, 23136, Note_on_c, 4, 77, 92
5, 23230, Note_on_c, 4, 74, 0
5, 23230, Note_on_c, 4, 77, 0
5, 23232, Note_on_c, 4, 77, 92
5, 23232, Note_on_c, 4, 81, 92
5, 23326, Note_on_c, 4, 77, 0
5, 23326, Note_on_c, 4, 81, 0
5, 23328, Note_on_c, 4, 74, 92
5, 23328, Note_on_c, 4, 77, 92
5, 23422, Note_on_c, 4, 74, 0
5, 23422, Note_on_c, 4, 77, 0
5, 23424, Note_on_c, 4, 70, 92
5, 23424, Note_on_c, 4, 79, 92
5, 23584, Note_on_c, 4, 70, 0
5, 23584, Note_on_c, 4, 79, 0
5, 23616, Note_on_c, 4, 79, 92
5, 23616, Note_on_c, 4, 82, 92
5, 23710, Note_on_c, 4, 79, 0
5, 23710, Note_on_c, 4, 82, 0
5, 23712, Note_on_c, 4, 77, 92
5, 23712, Note_on_c, 4, 81, 92
5, 23806, Note_on_c, 4, 77, 0
5, 23806, Note_on_c, 4, 81, 0
5, 23808, Note_on_c, 4, 79, 92
5, 23808, Note_on_c, 4, 82, 92
5, 23968, Note_on_c, 4, 79, 0
5, 23968, Note_on_c, 4, 82, 0
5, 24000, Note_on_c, 4, 79, 92
5, 24160, Note_on_c, 4, 79, 0
5, 24192, Note_on_c, 4, 72, 92
5, 24192, Note_on_c, 4, 77, 92
5, 24192, Note_on_c, 4, 81, 92
5, 24286, Note_on_c, 4, 72, 0
5, 24286, Note_on_c, 4, 77, 0
5, 24286, Note_on_c, 4, 81, 0
5, 24288, Note_on_c, 4, 74, 92
5, 24288, Note_on_c, 4, 79, 92
5, 24288, Note_on_c, 4, 82, 92
5, 24382, Note_on_c, 4, 74, 0
5, 24382, Note_on_c, 4, 79, 0
5, 24382, Note_on_c, 4, 82, 0
5, 24384, Note_on_c, 4, 77, 92
5, 24384, Note_on_c, 4, 81, 92
5, 24384, Note_on_c, 4, 84, 92
5, 24544, Note_on_c, 4, 77, 0
5, 24544, Note_on_c, 4, 81, 0
5, 24544, Note_on_c, 4, 84, 0
5, 24576, Note_on_c, 4, 70, 92
5, 24576, Note_on_c, 4, 79, 92
5, 24736, Note_on_c, 4, 70, 0
5, 24736, Note_on_c, 4, 79, 0
5, 24768, Note_on_c, 4, 79, 92
5, 24768, Note_on_c, 4, 82, 92
5, 24862, Note_on_c, 4, 79, 0
5, 24862, Note_on_c, 4, 82, 0
5, 24864, Note_on_c, 4, 77, 92
5, 24864, Note_on_c, 4, 81, 92
5, 24958, Note_on_c, 4, 77, 0
5, 24958, Note_on_c, 4, 81, 0
5, 24960, Note_on_c, 4, 79, 92
5, 24960, Note_on_c, 4, 82, 92
5, 25120, Note_on_c, 4, 79, 0
5, 25120, Note_on_c, 4, 82, 0
5, 25152, Note_on_c, 4, 79, 92
5, 25312, Note_on_c, 4, 79, 0
5, 25344, Note_on_c, 4, 79, 92
5, 25344, Note_on_c, 4, 82, 92
5, 25438, Note_on_c, 4, 79, 0
5, 25438, Note_on_c, 4, 82, 0
5, 25440, Note_on_c, 4, 77, 92
5, 25440, Note_on_c, 4, 81, 92
5, 25534, Note_on_c, 4, 77, 0
5, 25534, Note_on_c, 4, 81, 0
5, 25536, Note_on_c, 4, 76, 92
5, 25536, Note_on_c, 4, 79, 92
5, 25630, Note_on_c, 4, 76, 0
5, 25630, Note_on_c, 4, 79, 0
5, 25632, Note_on_c, 4, 74, 92
5, 25632, Note_on_c, 4, 77, 92
5, 25726, Note_on_c, 4, 74, 0
5, 25726, Note_on_c, 4, 77, 0
5, 25728, Note_on_c, 4, 77, 92
5, 25728, Note_on_c, 4, 81, 92
5, 25822, Note_on_c, 4, 77, 0
5, 25822, Note_on_c, 4, 81, 0
5, 25824, Note_on_c, 4, 74, 92
5, 25824, Note_on_c, 4, 77, 92
5, 25918, Note_on_c, 4, 74, 0
5, 25918, Note_on_c, 4, 77, 0
5, 25920, Note_on_c, 4, 70, 92
5, 25920, Note_on_c, 4, 79, 92
5, 26080, Note_on_c, 4, 70, 0
5, 26080, Note_on_c, 4, 79, 0
5, 26112, Note_on_c, 4, 79, 92
5, 26112, Note_on_c, 4, 82, 92
5, 26206, Note_on_c, 4, 79, 0
5, 26206, Note_on_c, 4, 82, 0
5, 26208, Note_on_c, 4, 77, 92
5, 26208, Note_on_c, 4, 81, 92
5, 26302, Note_on_c, 4, 77, 0
5, 26302, Note_on_c, 4, 81, 0
5, 26304, Note_on_c, 4, 79, 92
5, 26304, Note_on_c, 4, 82, 92
5, 26464, Note_on_c, 4, 79, 0
5, 26464, Note_on_c, 4, 82, 0
5, 26496, Note_on_c, 4, 79, 92
5, 26656, Note_on_c, 4, 79, 0
5, 26688, Note_on_c, 4, 72, 92
5, 26688, Note_on_c, 4, 77, 92
5, 26688, Note_on_c, 4, 81, 92
5, 26782, Note_on_c, 4, 72, 0
5, 26782, Note_on_c, 4, 77, 0
5, 26782, Note_on_c, 4, 81, 0
5, 26784, Note_on_c, 4, 74, 92
5, 26784, Note_on_c, 4, 79, 92
5, 26784, Note_on_c, 4, 82, 92
5, 26878, Note_on_c, 4, 74, 0
5, 26878, Note_on_c, 4, 79, 0
5, 26878, Note_on_c, 4, 82, 0
5, 26880, Note_on_c, 4, 77, 92
5, 26880, Note_on_c, 4, 81, 92
5, 26880, Note_on_c, 4, 84, 92
5, 27040, Note_on_c, 4, 77, 0
5, 27040, Note_on_c, 4, 81, 0
5, 27040, Note_on_c, 4, 84, 0
5, 27072, Note_on_c, 4, 70, 92
5, 27072, Note_on_c, 4, 79, 92
5, 27232, Note_on_c, 4, 70, 0
5, 27232, Note_on_c, 4, 79, 0
5, 27264, Note_on_c, 4, 79, 92
5, 27264, Note_on_c, 4, 82, 92
5, 27358, Note_on_c, 4, 79, 0
5, 27358, Note_on_c, 4, 82, 0
5, 27360, Note_on_c, 4, 77, 92
5, 27360, Note_on_c, 4, 81, 92
5, 27454, Note_on_c, 4, 77, 0
5, 27454, Note_on_c, 4, 81, 0
5, 27456, Note_on_c, 4, 79, 92
5, 27456, Note_on_c, 4, 82, 92
5, 27616, Note_on_c, 4, 79, 0
5, 27616, Note_on_c, 4, 82, 0
5, 27648, Note_on_c, 4, 79, 92
5, 27808, Note_on_c, 4, 79, 0
5, 27840, Note_on_c, 4, 79, 92
5, 27840, Note_on_c, 4, 82, 92
5, 27934, Note_on_c, 4, 79, 0
5, 27934, Note_on_c, 4, 82, 0
5, 27936, Note_on_c, 4, 77, 92
5, 27936, Note_on_c, 4, 81, 92
5, 28030, Note_on_c, 4, 77, 0
5, 28030, Note_on_c, 4, 81, 0
5, 28032, Note_on_c, 4, 76, 92
5, 28032, Note_on_c, 4, 79, 92
5, 28126, Note_on_c, 4, 76, 0
5, 28126, Note_on_c, 4, 79, 0
5, 28128, Note_on_c, 4, 74, 92
5, 28128, Note_on_c, 4, 77, 92
5, 28222, Note_on_c, 4, 74, 0
5, 28222, Note_on_c, 4, 77, 0
5, 28224, Note_on_c, 4, 77, 92
5, 28224, Note_on_c, 4, 81, 92
5, 28318, Note_on_c, 4, 77, 0
5, 28318, Note_on_c, 4, 81, 0
5, 28320, Note_on_c, 4, 74, 92
5, 28320, Note_on_c, 4, 77, 92
5, 28414, Note_on_c, 4, 74, 0
5, 28414, Note_on_c, 4, 77, 0
5, 28416, Note_on_c, 4, 70, 92
5, 28416, Note_on_c, 4, 79, 92
5, 28576, Note_on_c, 4, 70, 0
5, 28576, Note_on_c, 4, 79, 0
5, 28608, Note_on_c, 4, 79, 92
5, 28608, Note_on_c, 4, 82, 92
5, 28702, Note_on_c, 4, 79, 0
5, 28702, Note_on_c, 4, 82, 0
5, 28704, Note_on_c, 4, 77, 92
5, 28704, Note_on_c, 4, 81, 92
5, 28798, Note_on_c, 4, 77, 0
5, 28798, Note_on_c, 4, 81, 0
5, 28800, Note_on_c, 4, 79, 92
5, 28800, Note_on_c, 4, 82, 92
5, 28960, Note_on_c, 4, 79, 0
5, 28960, Note_on_c, 4, 82, 0
5, 28992, Note_on_c, 4, 79, 92
5, 29152, Note_on_c, 4, 79, 0
5, 29184, Note_on_c, 4, 72, 92
5, 29184, Note_on_c, 4, 77, 92
5, 29184, Note_on_c, 4, 81, 92
5, 29278, Note_on_c, 4, 72, 0
5, 29278, Note_on_c, 4, 77, 0
5, 29278, Note_on_c, 4, 81, 0
5, 29280, Note_on_c, 4, 74, 92
5, 29280, Note_on_c, 4, 79, 92
5, 29280, Note_on_c, 4, 82, 92
5, 29374, Note_on_c, 4, 74, 0
5, 29374, Note_on_c, 4, 79, 0
5, 29374, Note_on_c, 4, 82, 0
5, 29376, Note_on_c, 4, 77, 92
5, 29376, Note_on_c, 4, 81, 92
5, 29376, Note_on_c, 4, 84, 92
5, 29536, Note_on_c, 4, 77, 0
5, 29536, Note_on_c, 4, 81, 0
5, 29536, Note_on_c, 4, 84, 0
5, 29568, Note_on_c, 4, 70, 92
5, 29568, Note_on_c, 4, 79, 92
5, 29728, Note_on_c, 4, 70, 0
5, 29728, Note_on_c, 4, 79, 0
5, 29760, Note_on_c, 4, 79, 92
5, 29760, Note_on_c, 4, 82, 92
5, 29854, Note_on_c, 4, 79, 0
5, 29854, Note_on_c, 4, 82, 0
5, 29856, Note_on_c, 4, 77, 92
5, 29856, Note_on_c, 4, 81, 92
5, 29950, Note_on_c, 4, 77, 0
5, 29950, Note_on_c, 4, 81, 0
5, 29952, Note_on_c, 4, 79, 92
5, 29952, Note_on_c, 4, 82, 92
5, 30112, Note_on_c, 4, 79, 0
5, 30112, Note_on_c, 4, 82, 0
5, 30144, Note_on_c, 4, 79, 92
5, 30304, Note_on_c, 4, 79, 0
5, 30336, Note_on_c, 4, 79, 92
5, 30336, Note_on_c, 4, 82, 92
5, 30430, Note_on_c, 4, 79, 0
5, 30430, Note_on_c, 4, 82, 0
5, 30432, Note_on_c, 4, 77, 92
5, 30432, Note_on_c, 4, 81, 92
5, 30526, Note_on_c, 4, 77, 0
5, 30526, Note_on_c, 4, 81, 0
5, 30528, Note_on_c, 4, 76, 92
5, 30528, Note_on_c, 4, 79, 92
5, 30622, Note_on_c, 4, 76, 0
5, 30622, Note_on_c, 4, 79, 0
5, 30624, Note_on_c, 4, 74, 92
5, 30624, Note_on_c, 4, 77, 92
5, 30718, Note_on_c, 4, 74, 0
5, 30718, Note_on_c, 4, 77, 0
5, 30720, Note_on_c, 4, 77, 92
5, 30720, Note_on_c, 4, 81, 92
5, 30814, Note_on_c, 4, 77, 0
5, 30814, Note_on_c, 4, 81, 0
5, 30816, Note_on_c, 4, 74, 92
5, 30816, Note_on_c, 4, 77, 92
5, 30910, Note_on_c, 4, 74, 0
5, 30910, Note_on_c, 4, 77, 0
5, 30912, Note_on_c, 4, 67, 92
5, 30912, Note_on_c, 4, 70, 92
5, 30912, Note_on_c, 4, 74, 92
5, 31248, Note_on_c, 4, 67, 0
5, 31248, Note_on_c, 4, 70, 0
5, 31248, Note_on_c, 4, 74, 0
5, 40320, Note_on_c, 4, 79, 92
5, 40480, Note_on_c, 4, 79, 0
5, 40512, Note_on_c, 4, 79, 92
5, 40512, Note_on_c, 4, 82, 92
5, 40606, Note_on_c, 4, 79, 0
5, 40606, Note_on_c, 4, 82, 0
5, 40608, Note_on_c, 4, 77, 92
5, 40608, Note_on_c, 4, 81, 92
5, 40702, Note_on_c, 4, 77, 0
5, 40702, Note_on_c, 4, 81, 0
5, 40704, Note_on_c, 4, 79, 92
5, 40704, Note_on_c, 4, 82, 92
5, 40864, Note_on_c, 4, 79, 0
5, 40864, Note_on_c, 4, 82, 0
5, 40896, Note_on_c, 4, 79, 92
5, 41056, Note_on_c, 4, 79, 0
5, 41088, Note_on_c, 4, 79, 92
5, 41088, Note_on_c, 4, 82, 92
5, 41182, Note_on_c, 4, 79, 0
5, 41182, Note_on_c, 4, 82, 0
5, 41184, Note_on_c, 4, 77, 92
5, 41184, Note_on_c, 4, 81, 92
5, 41278, Note_on_c, 4, 77, 0
5, 41278, Note_on_c, 4, 81, 0
5, 41280, Note_on_c, 4, 76, 92
5, 41280, Note_on_c, 4, 79, 92
5, 41374, Note_on_c, 4, 76, 0
5, 41374, Note_on_c, 4, 79, 0
5, 41376, Note_on_c, 4, 74, 92
5, 41376, Note_on_c, 4, 77, 92
5, 41470, Note_on_c, 4, 74, 0
5, 41470, Note_on_c, 4, 77, 0
5, 41472, Note_on_c, 4, 77, 92
5, 41472, Note_on_c, 4, 81, 92
5, 41566, Note_on_c, 4, 77, 0
5, 41566, Note_on_c, 4, 81, 0
5, 41568, Note_on_c, 4, 74, 92
5, 41568, Note_on_c, 4, 77, 92
5, 41662, Note_on_c, 4, 74, 0
5, 41662, Note_on_c, 4, 77, 0
5, 41664, Program_c, 4, 8
5, 41664, Note_on_c, 4, 67, 92
5, 41664, Note_on_c, 4, 79, 92
5, 41824, Note_on_c, 4, 79, 0
5, 41856, Note_on_c, 4, 79, 92
5, 41950, Note_on_c, 4, 79, 0
5, 41952, Note_on_c, 4, 81, 92
5, 42000, Note_on_c, 4, 67, 0
5, 42046, Note_on_c, 4, 81, 0
5, 42048, Note_on_c, 4, 82, 92
5, 42208, Note_on_c, 4, 82, 0
5, 42240, Note_on_c, 4, 84, 92
5, 42400, Note_on_c, 4, 84, 0
5, 42432, Note_on_c, 4, 77, 92
5, 42592, Note_on_c, 4, 77, 0
5, 42624, Note_on_c, 4, 72, 92
5, 42624, Note_on_c, 4, 77, 92
5, 42960, Note_on_c, 4, 72, 0
5, 42960, Note_on_c, 4, 77, 0
5, 43008, Note_on_c, 4, 72, 92
5, 43008, Note_on_c, 4, 77, 92
5, 43168, Note_on_c, 4, 72, 0
5, 43168, Note_on_c, 4, 77, 0
5, 43200, Note_on_c, 4, 74, 92
5, 43200, Note_on_c, 4, 78, 92
5, 43456, Note_on_c, 4, 78, 0
5, 43488, Note_on_c, 4, 76, 92
5, 43536, Note_on_c, 4, 74, 0
5, 43582, Note_on_c, 4, 76, 0
5, 43584, Note_on_c, 4, 74, 92
5, 43744, Note_on_c, 4, 74, 0
5, 43776, Note_on_c, 4, 79, 92
5, 43776, Note_on_c, 4, 82, 92
5, 43936, Note_on_c, 4, 82, 0
5, 43968, Note_on_c, 4, 81, 92
5, 44112, Note_on_c, 4, 79, 0
5, 44128, Note_on_c, 4, 81, 0
5, 44160, Note_on_c, 4, 79, 92
5, 44320, Note_on_c, 4, 79, 0
5, 44352, Note_on_c, 4, 78, 92
5, 44352, Note_on_c, 4, 81, 92
5, 44512, Note_on_c, 4, 81, 0
5, 44544, Note_on_c, 4, 78, 92
5, 44638, Note_on_c, 4, 78, 0
5, 44640, Note_on_c, 4, 79, 92
5, 44688, Note_on_c, 4, 78, 0
5, 44734, Note_on_c, 4, 79, 0
5, 44736, Note_on_c, 4, 81, 92
5, 44896, Note_on_c, 4, 81, 0
5, 44928, Note_on_c, 4, 86, 92
5, 45088, Note_on_c, 4, 86, 0
5, 45120, Note_on_c, 4, 79, 92
5, 45280, Note_on_c, 4, 79, 0
5, 45312, Note_on_c, 4, 78, 92
5, 45312, Note_on_c, 4, 81, 92
5, 45472, Note_on_c, 4, 78, 0
5, 45472, Note_on_c, 4, 81, 0
5, 45504, Note_on_c, 4, 79, 92
5, 45504, Note_on_c, 4, 83, 92
5, 45760, Note_on_c, 4, 83, 0
5, 45792, Note_on_c, 4, 84, 92
5, 45886, Note_on_c, 4, 84, 0
5, 45888, Note_on_c, 4, 86, 92
5, 46032, Note_on_c, 4, 79, 0
5, 46048, Note_on_c, 4, 86, 0
5, 46080, Note_on_c, 4, 79, 92
5, 46080, Note_on_c, 4, 84, 92
5, 46336, Note_on_c, 4, 84, 0
5, 46368, Note_on_c, 4, 86, 92
5, 46462, Note_on_c, 4, 86, 0
5, 46464, Note_on_c, 4, 88, 92
5, 46608, Note_on_c, 4, 79, 0
5, 46624, Note_on_c, 4, 88, 0
5, 46656, Note_on_c, 4, 79, 92
5, 46656, Note_on_c, 4, 88, 92
5, 46816, Note_on_c, 4, 88, 0
5, 46848, Note_on_c, 4, 86, 92
5, 47008, Note_on_c, 4, 86, 0
5, 47040, Note_on_c, 4, 84, 92
5, 47184, Note_on_c, 4, 79, 0
5, 47200, Note_on_c, 4, 84, 0
5, 47232, Note_on_c, 4, 79, 92
5, 47232, Note_on_c, 4, 83, 92
5, 47392, Note_on_c, 4, 83, 0
5, 47424, Note_on_c, 4, 86, 92
5, 47568, Note_on_c, 4, 79, 0
5, 47584, Note_on_c, 4, 86, 0
5, 47616, Note_on_c, 4, 77, 92
5, 47616, Note_on_c, 4, 81, 92
5, 47872, Note_on_c, 4, 81, 0
5, 47904, Note_on_c, 4, 82, 92
5, 47998, Note_on_c, 4, 82, 0
5, 48000, Note_on_c, 4, 84, 92
5, 48144, Note_on_c, 4, 77, 0
5, 48160, Note_on_c, 4, 84, 0
5, 48192, Note_on_c, 4, 77, 92
5, 48192, Note_on_c, 4, 81, 92
5, 48352, Note_on_c, 4, 81, 0
5, 48384, Note_on_c, 4, 79, 92
5, 48528, Note_on_c, 4, 77, 0
5, 48544, Note_on_c, 4, 79, 0
5, 48576, Note_on_c, 4, 78, 92
5, 48736, Note_on_c, 4, 78, 0
5, 48768, Note_on_c, 4, 78, 92
5, 48862, Note_on_c, 4, 78, 0
5, 48864, Note_on_c, 4, 79, 92
5, 48958, Note_on_c, 4, 79, 0
5, 48960, Note_on_c, 4, 78, 92
5, 48960, Note_on_c, 4, 81, 92
5, 49120, Note_on_c, 4, 78, 0
5, 49120, Note_on_c, 4, 81, 0
5, 49152, Note_on_c, 4, 67, 92
5, 49152, Note_on_c, 4, 79, 92
5, 49312, Note_on_c, 4, 79, 0
5, 49344, Note_on_c, 4, 79, 92
5, 49438, Note_on_c, 4, 79, 0
5, 49440, Note_on_c, 4, 81, 92
5, 49488, Note_on_c, 4, 67, 0
5, 49534, Note_on_c, 4, 81, 0
5, 49536, Note_on_c, 4, 82, 92
5, 49696, Note_on_c, 4, 82, 0
5, 49728, Note_on_c, 4, 84, 92
5, 49888, Note_on_c, 4, 84, 0
5, 49920, Note_on_c, 4, 77, 92
5, 50080, Note_on_c, 4, 77, 0
5, 50112, Note_on_c, 4, 74, 92
5, 50112, Note_on_c, 4, 79, 92
5, 51040, Note_on_c, 4, 74, 0
5, 51040, Note_on_c, 4, 79, 0
5, 53568, Program_c, 4, 18
5, 53568, Note_on_c, 4, 79, 92
5, 53728, Note_on_c, 4, 79, 0
5, 53760, Note_on_c, 4, 79, 92
5, 53760, Note_on_c, 4, 82, 92
5, 53854, Note_on_c, 4, 79, 0
5, 53854, Note_on_c, 4, 82, 0
5, 53856, Note_on_c, 4, 77, 92
5, 53856, Note_on_c, 4, 81, 92
5, 53950, Note_on_c, 4, 77, 0
5, 53950, Note_on_c, 4, 81, 0
5, 53952, Note_on_c, 4, 79, 92
5, 53952, Note_on_c, 4, 82, 92
5, 54112, Note_on_c, 4, 79, 0
5, 54112, Note_on_c, 4, 82, 0
5, 54144, Note_on_c, 4, 79, 92
5, 54304, Note_on_c, 4, 79, 0
5, 54336, Note_on_c, 4, 79, 92
5, 54336, Note_on_c, 4, 82, 92
5, 54430, Note_on_c, 4, 79, 0
5, 54430, Note_on_c, 4, 82, 0
5, 54432, Note_on_c, 4, 77, 92
5, 54432, Note_on_c, 4, 81, 92
5, 54526, Note_on_c, 4, 77, 0
5, 54526, Note_on_c, 4, 81, 0
5, 54528, Note_on_c, 4, 76, 92
5, 54528, Note_on_c, 4, 79, 92
5, 54622, Note_on_c, 4, 76, 0
5, 54622, Note_on_c, 4, 79, 0
5, 54624, Note_on_c, 4, 74, 92
5, 54624, Note_on_c, 4, 77, 92
5, 54718, Note_on_c, 4, 74, 0
5, 54718, Note_on_c, 4, 77, 0
5, 54720, Note_on_c, 4, 77, 92
5, 54720, Note_on_c, 4, 81, 92
5, 54814, Note_on_c, 4, 77, 0
5, 54814, Note_on_c, 4, 81, 0
5, 54816, Note_on_c, 4, 74, 92
5, 54816, Note_on_c, 4, 77, 92
5, 54910, Note_on_c, 4, 74, 0
5, 54910, Note_on_c, 4, 77, 0
5, 54912, Note_on_c, 4, 70, 92
5, 54912, Note_on_c, 4, 79, 92
5, 55072, Note_on_c, 4, 70, 0
5, 55072, Note_on_c, 4, 79, 0
5, 55104, Note_on_c, 4, 79, 92
5, 55104, Note_on_c, 4, 82, 92
5, 55198, Note_on_c, 4, 79, 0
5, 55198, Note_on_c, 4, 82, 0
5, 55200, Note_on_c, 4, 77, 92
5, 55200, Note_on_c, 4, 81, 92
5, 55294, Note_on_c, 4, 77, 0
5, 55294, Note_on_c, 4, 81, 0
5, 55296, Note_on_c, 4, 79, 92
5, 55296, Note_on_c, 4, 82, 92
5, 55456, Note_on_c, 4, 79, 0
5, 55456, Note_on_c, 4, 82, 0
5, 55488, Note_on_c, 4, 79, 92
5, 55648, Note_on_c, 4, 79, 0
5, 55680, Note_on_c, 4, 72, 92
5, 55680, Note_on_c, 4, 77, 92
5, 55680, Note_on_c, 4, 81, 92
5, 55774, Note_on_c, 4, 72, 0
5, 55774, Note_on_c, 4, 77, 0
5, 55774, Note_on_c, 4, 81, 0
5, 55776, Note_on_c, 4, 74, 92
5, 55776, Note_on_c, 4, 79, 92
5, 55776, Note_on_c, 4, 82, 92
5, 55870, Note_on_c, 4, 74, 0
5, 55870, Note_on_c, 4, 79, 0
5, 55870, Note_on_c, 4, 82, 0
5, 55872, Note_on_c, 4, 77, 92
5, 55872, Note_on_c, 4, 81, 92
5, 55872, Note_on_c, 4, 84, 92
5, 56032, Note_on_c, 4, 77, 0
5, 56032, Note_on_c, 4, 81, 0
5, 56032, Note_on_c, 4, 84, 0
5, 56064, Note_on_c, 4, 70, 92
5, 56064, Note_on_c, 4, 79, 92
5, 56224, Note_on_c, 4, 70, 0
5, 56224, Note_on_c, 4, 79, 0
5, 56256, Note_on_c, 4, 79, 92
5, 56256, Note_on_c, 4, 82, 92
5, 56350, Note_on_c, 4, 79, 0
5, 56350, Note_on_c, 4, 82, 0
5, 56352, Note_on_c, 4, 77, 92
5, 56352, Note_on_c, 4, 81, 92
5, 56446, Note_on_c, 4, 77, 0
5, 56446, Note_on_c, 4, 81, 0
5, 56448, Note_on_c, 4, 79, 92
5, 56448, Note_on_c, 4, 82, 92
5, 56608, Note_on_c, 4, 79, 0
5, 56608, Note_on_c, 4, 82, 0
5, 56640, Note_on_c, 4, 79, 92
5, 56800, Note_on_c, 4, 79, 0
5, 56832, Note_on_c, 4, 79, 92
5, 56832, Note_on_c, 4, 82, 92
5, 56926, Note_on_c, 4, 79, 0
5, 56926, Note_on_c, 4, 82, 0
5, 56928, Note_on_c, 4, 77, 92
5, 56928, Note_on_c, 4, 81, 92
5, 57022, Note_on_c, 4, 77, 0
5, 57022, Note_on_c, 4, 81, 0
5, 57024, Note_on_c, 4, 76, 92
5, 57024, Note_on_c, 4, 79, 92
5, 57118, Note_on_c, 4, 76, 0
5, 57118, Note_on_c, 4, 79, 0
5, 57120, Note_on_c, 4, 74, 92
5, 57120, Note_on_c, 4, 77, 92
5, 57214, Note_on_c, 4, 74, 0
5, 57214, Note_on_c, 4, 77, 0
5, 57216, Note_on_c, 4, 77, 92
5, 57216, Note_on_c, 4, 81, 92
5, 57310, Note_on_c, 4, 77, 0
5, 57310, Note_on_c, 4, 81, 0
5, 57312, Note_on_c, 4, 74, 92
5, 57312, Note_on_c, 4, 77, 92
5, 57406, Note_on_c, 4, 74, 0
5, 57406, Note_on_c, 4, 77, 0
5, 57408, Note_on_c, 4, 70, 92
5, 57408, Note_on_c, 4, 79, 92
5, 57568, Note_on_c, 4, 70, 0
5, 57568, Note_on_c, 4, 79, 0
5, 57600, Note_on_c, 4, 79, 92
5, 57600, Note_on_c, 4, 82, 92
5, 57694, Note_on_c, 4, 79, 0
5, 57694, Note_on_c, 4, 82, 0
5, 57696, Note_on_c, 4, 77, 92
5, 57696, Note_on_c, 4, 81, 92
5, 57790, Note_on_c, 4, 77, 0
5, 57790, Note_on_c, 4, 81, 0
5, 57792, Note_on_c, 4, 79, 92
5, 57792, Note_on_c, 4, 82, 92
5, 57952, Note_on_c, 4, 79, 0
5, 57952, Note_on_c, 4, 82, 0
5, 57984, Note_on_c, 4, 79, 92
5, 58144, Note_on_c, 4, 79, 0
5, 58176, Note_on_c, 4, 72, 92
5, 58176, Note_on_c, 4, 77, 92
5, 58176, Note_on_c, 4, 81, 92
5, 58270, Note_on_c, 4, 72, 0
5, 58270, Note_on_c, 4, 77, 0
5, 58270, Note_on_c, 4, 81, 0
5, 58272, Note_on_c, 4, 74, 92
5, 58272, Note_on_c, 4, 79, 92
5, 58272, Note_on_c, 4, 82, 92
5, 58366, Note_on_c, 4, 74, 0
5, 58366, Note_on_c, 4, 79, 0
5, 58366, Note_on_c, 4, 82, 0
5, 58368, Note_on_c, 4, 77, 92
5, 58368, Note_on_c, 4, 81, 92
5, 58368, Note_on_c, 4, 84, 92
5, 58528, Note_on_c, 4, 77, 0
5, 58528, Note_on_c, 4, 81, 0
5, 58528, Note_on_c, 4, 84, 0
5, 58560, Note_on_c, 4, 70, 92
5, 58560, Note_on_c, 4, 79, 92
5, 58720, Note_on_c, 4, 70, 0
5, 58720, Note_on_c, 4, 79, 0
5, 58752, Note_on_c, 4, 79, 92
5, 58752, Note_on_c, 4, 82, 92
5, 58846, Note_on_c, 4, 79, 0
5, 58846, Note_on_c, 4, 82, 0
5, 58848, Note_on_c, 4, 77, 92
5, 58848, Note_on_c, 4, 81, 92
5, 58942, Note_on_c, 4, 77, 0
5, 58942, Note_on_c, 4, 81, 0
5, 58944, Note_on_c, 4, 79, 92
5, 58944, Note_on_c, 4, 82, 92
5, 59104, Note_on_c, 4, 79, 0
5, 59104, Note_on_c, 4, 82, 0
5, 59136, Note_on_c, 4, 79, 92
5, 59296, Note_on_c, 4, 79, 0
5, 59328, Note_on_c, 4, 79, 92
5, 59328, Note_on_c, 4, 82, 92
5, 59422, Note_on_c, 4, 79, 0
5, 59422, Note_on_c, 4, 82, 0
5, 59424, Note_on_c, 4, 77, 92
5, 59424, Note_on_c, 4, 81, 92
5, 59518, Note_on_c, 4, 77, 0
5, 59518, Note_on_c, 4, 81, 0
5, 59520, Note_on_c, 4, 76, 92
5, 59520, Note_on_c, 4, 79, 92
5, 59614, Note_on_c, 4, 76, 0
5, 59614, Note_on_c, 4, 79, 0
5, 59616, Note_on_c, 4, 74, 92
5, 59616, Note_on_c, 4, 77, 92
5, 59710, Note_on_c, 4, 74, 0
5, 59710, Note_on_c, 4, 77, 0
5, 59712, Note_on_c, 4, 77, 92
5, 59712, Note_on_c, 4, 81, 92
5, 59806, Note_on_c, 4, 77, 0
5, 59806, Note_on_c, 4, 81, 0
5, 59808, Note_on_c, 4, 74, 92
5, 59808, Note_on_c, 4, 77, 92
5, 59902, Note_on_c, 4, 74, 0
5, 59902, Note_on_c, 4, 77, 0
5, 59904, Note_on_c, 4, 67, 92
5, 59904, Note_on_c, 4, 70, 92
5, 59904, Note_on_c, 4, 74, 92
5, 61200, Note_on_c, 4, 67, 0
5, 61200, Note_on_c, 4, 70, 0
5, 61200, Note_on_c, 4, 74, 0
5, 72000, Program_c, 4, 30
5, 72480, Note_on_c, 4, 70, 92
5, 72574, Note_on_c, 4, 70, 0
5, 72576, Note_on_c, 4, 70, 92
5, 72670, Note_on_c, 4, 70, 0
5, 72672, Note_on_c, 4, 68, 92
5, 72766, Note_on_c, 4, 68, 0
5, 72768, Note_on_c, 4, 70, 92
5, 73104, Note_on_c, 4, 70, 0
5, 73248, Note_on_c, 4, 77, 92
5, 73342, Note_on_c, 4, 77, 0
5, 73344, Note_on_c, 4, 77, 92
5, 73438, Note_on_c, 4, 77, 0
5, 73440, Note_on_c, 4, 75, 92
5, 73534, Note_on_c, 4, 75, 0
5, 73536, Note_on_c, 4, 77, 92
5, 74256, Note_on_c, 4, 77, 0
5, 76704, Note_on_c, 4, 70, 75
5, 76704, Note_on_c, 4, 77, 75
5, 76798, Note_on_c, 4, 70, 0
5, 76798, Note_on_c, 4, 77, 0
5, 76800, Note_on_c, 4, 70, 75
5, 76800, Note_on_c, 4, 77, 75
5, 76894, Note_on_c, 4, 70, 0
5, 76894, Note_on_c, 4, 77, 0
5, 76896, Note_on_c, 4, 70, 75
5, 76896, Note_on_c, 4, 77, 75
5, 76990, Note_on_c, 4, 70, 0
5, 76990, Note_on_c, 4, 77, 0
5, 76992, Note_on_c, 4, 70, 75
5, 76992, Note_on_c, 4, 77, 75
5, 77328, Note_on_c, 4, 70, 0
5, 77328, Note_on_c, 4, 77, 0
5, 98592, Note_on_c, 4, 70, 75
5, 98686, Note_on_c, 4, 70, 0
5, 98688, Note_on_c, 4, 70, 75
5, 98782, Note_on_c, 4, 70, 0
5, 98784, Note_on_c, 4, 68, 75
5, 98878, Note_on_c, 4, 68, 0
5, 98880, Note_on_c, 4, 70, 75
5, 98974, Note_on_c, 4, 70, 0
5, 98976, Note_on_c, 4, 70, 75
5, 99070, Note_on_c, 4, 70, 0
5, 99264, Note_on_c, 4, 77, 75
5, 99358, Note_on_c, 4, 77, 0
5, 99360, Note_on_c, 4, 77, 75
5, 99454, Note_on_c, 4, 77, 0
5, 99456, Note_on_c, 4, 75, 75
5, 99550, Note_on_c, 4, 75, 0
5, 99552, Note_on_c, 4, 77, 75
5, 100368, Note_on_c, 4, 77, 0
5, 100416, Program_c, 4, 18
5, 100416, Note_on_c, 4, 70, 108
5, 100416, Note_on_c, 4, 75, 108
5, 100672, Note_on_c, 4, 70, 0
5, 100672, Note_on_c, 4, 75, 0
5, 100704, Note_on_c, 4, 70, 108
5, 100798, Note_on_c, 4, 70, 0
5, 100800, Note_on_c, 4, 70, 108
5, 100800, Note_on_c, 4, 75, 108
5, 100960, Note_on_c, 4, 70, 0
5, 100960, Note_on_c, 4, 75, 0
5, 100992, Note_on_c, 4, 70, 108
5, 100992, Note_on_c, 4, 75, 108
5, 101344, Note_on_c, 4, 70, 0
5, 101344, Note_on_c, 4, 75, 0
5, 101376, Note_on_c, 4, 70, 108
5, 101376, Note_on_c, 4, 75, 108
5, 101536, Note_on_c, 4, 70, 0
5, 101536, Note_on_c, 4, 75, 0
5, 101568, Note_on_c, 4, 68, 108
5, 101568, Note_on_c, 4, 73, 108
5, 101662, Note_on_c, 4, 68, 0
5, 101662, Note_on_c, 4, 73, 0
5, 101664, Note_on_c, 4, 72, 108
5, 101758, Note_on_c, 4, 72, 0
5, 101760, Note_on_c, 4, 63, 108
5, 101760, Note_on_c, 4, 68, 108
5, 101920, Note_on_c, 4, 63, 0
5, 101920, Note_on_c, 4, 68, 0
5, 101952, Note_on_c, 4, 70, 108
5, 101952, Note_on_c, 4, 75, 108
5, 102208, Note_on_c, 4, 70, 0
5, 102208, Note_on_c, 4, 75, 0
5, 102240, Note_on_c, 4, 70, 108
5, 102334, Note_on_c, 4, 70, 0
5, 102336, Note_on_c, 4, 70, 108
5, 102336, Note_on_c, 4, 75, 108
5, 102496, Note_on_c, 4, 70, 0
5, 102496, Note_on_c, 4, 75, 0
5, 102528, Note_on_c, 4, 70, 108
5, 102528, Note_on_c, 4, 75, 108
5, 102880, Note_on_c, 4, 70, 0
5, 102880, Note_on_c, 4, 75, 0
5, 102912, Note_on_c, 4, 70, 108
5, 102912, Note_on_c, 4, 75, 108
5, 103072, Note_on_c, 4, 70, 0
5, 103072, Note_on_c, 4, 75, 0
5, 103104, Note_on_c, 4, 68, 108
5, 103104, Note_on_c, 4, 73, 108
5, 103104, Note_on_c, 4, 77, 108
5, 103198, Note_on_c, 4, 77, 0
5, 103200, Note_on_c, 4, 79, 108
5, 103264, Note_on_c, 4, 68, 0
5, 103264, Note_on_c, 4, 73, 0
5, 103294, Note_on_c, 4, 79, 0
5, 103296, Note_on_c, 4, 63, 108
5, 103296, Note_on_c, 4, 68, 108
5, 103296, Note_on_c, 4, 77, 108
5, 103296, Note_on_c, 4, 80, 108
5, 103390, Note_on_c, 4, 80, 0
5, 103392, Note_on_c, 4, 79, 108
5, 103456, Note_on_c, 4, 63, 0
5, 103456, Note_on_c, 4, 68, 0
5, 103456, Note_on_c, 4, 77, 0
5, 103486, Note_on_c, 4, 79, 0
5, 103488, Note_on_c, 4, 70, 108
5, 103488, Note_on_c, 4, 75, 108
5, 103744, Note_on_c, 4, 70, 0
5, 103744, Note_on_c, 4, 75, 0
5, 103776, Note_on_c, 4, 70, 108
5, 103870, Note_on_c, 4, 70, 0
5, 103872, Note_on_c, 4, 70, 108
5, 103872, Note_on_c, 4, 75, 108
5, 104032, Note_on_c, 4, 70, 0
5, 104032, Note_on_c, 4, 75, 0
5, 104064, Note_on_c, 4, 70, 108
5, 104064, Note_on_c, 4, 75, 108
5, 104416, Note_on_c, 4, 70, 0
5, 104416, Note_on_c, 4, 75, 0
5, 104448, Note_on_c, 4, 70, 108
5, 104448, Note_on_c, 4, 75, 108
5, 104608, Note_on_c, 4, 70, 0
5, 104608, Note_on_c, 4, 75, 0
5, 104640, Note_on_c, 4, 68, 108
5, 104640, Note_on_c, 4, 73, 108
5, 104734, Note_on_c, 4, 68, 0
5, 104734, Note_on_c, 4, 73, 0
5, 104736, Note_on_c, 4, 72, 108
5, 104830, Note_on_c, 4, 72, 0
5, 104832, Note_on_c, 4, 63, 108
5, 104832, Note_on_c, 4, 68, 108
5, 104992, Note_on_c, 4, 63, 0
5, 104992, Note_on_c, 4, 68, 0
5, 105024, Note_on_c, 4, 70, 108
5, 105024, Note_on_c, 4, 75, 108
5, 105280, Note_on_c, 4, 70, 0
5, 105280, Note_on_c, 4, 75, 0
5, 105312, Note_on_c, 4, 70, 108
5, 105406, Note_on_c, 4, 70, 0
5, 105408, Note_on_c, 4, 70, 108
5, 105408, Note_on_c, 4, 75, 108
5, 105568, Note_on_c, 4, 70, 0
5, 105568, Note_on_c, 4, 75, 0
5, 105600, Note_on_c, 4, 70, 108
5, 105600, Note_on_c, 4, 75, 108
5, 105952, Note_on_c, 4, 70, 0
5, 105952, Note_on_c, 4, 75, 0
5, 105984, Note_on_c, 4, 70, 108
5, 105984, Note_on_c, 4, 75, 108
5, 106144, Note_on_c, 4, 70, 0
5, 106144, Note_on_c, 4, 75, 0
5, 106176, Note_on_c, 4, 68, 108
5, 106176, Note_on_c, 4, 73, 108
5, 106176, Note_on_c, 4, 77, 108
5, 106270, Note_on_c, 4, 77, 0
5, 106272, Note_on_c, 4, 79, 108
5, 106336, Note_on_c, 4, 68, 0
5, 106336, Note_on_c, 4, 73, 0
5, 106366, Note_on_c, 4, 79, 0
5, 106368, Note_on_c, 4, 63, 108
5, 106368, Note_on_c, 4, 68, 108
5, 106368, Note_on_c, 4, 77, 108
5, 106368, Note_on_c, 4, 80, 108
5, 106462, Note_on_c, 4, 80, 0
5, 106464, Note_on_c, 4, 79, 108
5, 106528, Note_on_c, 4, 63, 0
5, 106528, Note_on_c, 4, 68, 0
5, 106528, Note_on_c, 4, 77, 0
5, 106558, Note_on_c, 4, 79, 0
5, 106560, Note_on_c, 4, 70, 108
5, 106560, Note_on_c, 4, 75, 108
5, 106720, Note_on_c, 4, 70, 0
5, 106720, Note_on_c, 4, 75, 0
5, 106752, Note_on_c, 4, 75, 108
5, 106846, Note_on_c, 4, 75, 0
5, 106848, Note_on_c, 4, 77, 108
5, 106942, Note_on_c, 4, 77, 0
5, 106944, Note_on_c, 4, 78, 108
5, 107038, Note_on_c, 4, 78, 0
5, 107136, Note_on_c, 4, 68, 108
5, 107136, Note_on_c, 4, 77, 108
5, 107296, Note_on_c, 4, 68, 0
5, 107296, Note_on_c, 4, 77, 0
5, 107328, Note_on_c, 4, 68, 108
5, 107328, Note_on_c, 4, 73, 108
5, 107376, Note_on_c, 4, 68, 0
5, 107376, Note_on_c, 4, 73, 0
5, 107520, Note_on_c, 4, 70, 108
5, 107520, Note_on_c, 4, 75, 108
5, 107680, Note_on_c, 4, 70, 0
5, 107680, Note_on_c, 4, 75, 0
5, 107712, Note_on_c, 4, 75, 108
5, 107806, Note_on_c, 4, 75, 0
5, 107808, Note_on_c, 4, 77, 108
5, 107902, Note_on_c, 4, 77, 0
5, 107904, Note_on_c, 4, 75, 108
5, 107998, Note_on_c, 4, 75, 0
5, 108096, Note_on_c, 4, 74, 108
5, 108190, Note_on_c, 4, 74, 0
5, 108192, Note_on_c, 4, 72, 108
5, 108286, Note_on_c, 4, 72, 0
5, 108288, Note_on_c, 4, 65, 108
5, 108288, Note_on_c, 4, 70, 108
5, 108288, Note_on_c, 4, 82, 108
5, 108336, Note_on_c, 4, 65, 0
5, 108336, Note_on_c, 4, 70, 0
5, 108336, Note_on_c, 4, 82, 0
5, 108480, Note_on_c, 4, 65, 108
5, 108480, Note_on_c, 4, 70, 108
5, 108480, Note_on_c, 4, 82, 108
5, 108528, Note_on_c, 4, 65, 0
5, 108528, Note_on_c, 4, 70, 0
5, 108528, Note_on_c, 4, 82, 0
5, 108672, Note_on_c, 4, 70, 108
5, 108672, Note_on_c, 4, 75, 108
5, 108832, Note_on_c, 4, 70, 0
5, 108832, Note_on_c, 4, 75, 0
5, 108864, Note_on_c, 4, 75, 108
5, 108958, Note_on_c, 4, 75, 0
5, 108960, Note_on_c, 4, 77, 108
5, 109054, Note_on_c, 4, 77, 0
5, 109056, Note_on_c, 4, 78, 108
5, 109150, Note_on_c, 4, 78, 0
5, 109248, Note_on_c, 4, 80, 108
5, 109408, Note_on_c, 4, 80, 0
5, 109440, Note_on_c, 4, 74, 108
5, 109440, Note_on_c, 4, 82, 108
5, 109488, Note_on_c, 4, 74, 0
5, 109488, Note_on_c, 4, 82, 0
5, 109632, Note_on_c, 4, 75, 108
5, 109632, Note_on_c, 4, 79, 108
5, 109792, Note_on_c, 4, 75, 0
5, 109792, Note_on_c, 4, 79, 0
5, 109824, Note_on_c, 4, 79, 108
5, 109918, Note_on_c, 4, 79, 0
5, 109920, Note_on_c, 4, 80, 108
5, 110014, Note_on_c, 4, 80, 0
5, 110016, Note_on_c, 4, 82, 108
5, 110110, Note_on_c, 4, 82, 0
5, 110208, Note_on_c, 4, 70, 108
5, 110208, Note_on_c, 4, 79, 108
5, 110256, Note_on_c, 4, 70, 0
5, 110256, Note_on_c, 4, 79, 0
5, 110400, Note_on_c, 4, 70, 108
5, 110400, Note_on_c, 4, 79, 108
5, 110494, Note_on_c, 4, 79, 0
5, 110496, Note_on_c, 4, 77, 108
5, 110560, Note_on_c, 4, 70, 0
5, 110590, Note_on_c, 4, 77, 0
5, 110592, Note_on_c, 4, 70, 108
5, 110592, Note_on_c, 4, 75, 108
5, 110640, Note_on_c, 4, 70, 0
5, 110640, Note_on_c, 4, 75, 0
5, 110784, Note_on_c, 4, 64, 108
5, 110784, Note_on_c, 4, 67, 108
5, 111136, Note_on_c, 4, 64, 0
5, 111136, Note_on_c, 4, 67, 0
5, 111168, Note_on_c, 4, 67, 108
5, 111168, Note_on_c, 4, 72, 108
5, 111328, Note_on_c, 4, 67, 0
5, 111328, Note_on_c, 4, 72, 0
5, 111360, Note_on_c, 4, 72, 108
5, 111360, Note_on_c, 4, 76, 108
5, 111520, Note_on_c, 4, 72, 0
5, 111520, Note_on_c, 4, 76, 0
5, 111552, Note_on_c, 4, 76, 108
5, 111552, Note_on_c, 4, 79, 108
5, 111712, Note_on_c, 4, 76, 0
5, 111712, Note_on_c, 4, 79, 0
5, 111744, Note_on_c, 4, 84, 108
5, 111904, Note_on_c, 4, 84, 0
5, 111936, Note_on_c, 4, 82, 108
5, 111968, Note_on_c, 4, 82, 0
5, 112032, Note_on_c, 4, 81, 108
5, 112064, Note_on_c, 4, 81, 0
5, 112128, Note_on_c, 4, 79, 108
5, 112222, Note_on_c, 4, 79, 0
5, 112320, Note_on_c, 4, 84, 108
5, 112320, Note_on_c, 4, 88, 108
5, 112656, Note_on_c, 4, 84, 0
5, 112656, Note_on_c, 4, 88, 0
5, 112704, Note_on_c, 4, 82, 108
5, 112798, Note_on_c, 4, 82, 0
5, 112800, Note_on_c, 4, 81, 108
5, 112894, Note_on_c, 4, 81, 0
5, 112896, Note_on_c, 4, 79, 108
5, 112990, Note_on_c, 4, 79, 0
5, 113088, Note_on_c, 4, 82, 108
5, 113248, Note_on_c, 4, 82, 0
5, 113280, Note_on_c, 4, 81, 108
5, 113374, Note_on_c, 4, 81, 0
5, 113376, Note_on_c, 4, 79, 108
5, 113470, Note_on_c, 4, 79, 0
5, 113472, Note_on_c, 4, 76, 108
5, 113566, Note_on_c, 4, 76, 0
5, 113568, Note_on_c, 4, 77, 108
5, 113662, Note_on_c, 4, 77, 0
5, 113664, Note_on_c, 4, 79, 108
5, 113758, Note_on_c, 4, 79, 0
5, 114048, Note_on_c, 4, 84, 108
5, 114208, Note_on_c, 4, 84, 0
5, 114240, Note_on_c, 4, 88, 108
5, 114496, Note_on_c, 4, 88, 0
5, 114528, Note_on_c, 4, 89, 108
5, 114622, Note_on_c, 4, 89, 0
5, 114624, Note_on_c, 4, 91, 108
5, 114784, Note_on_c, 4, 91, 0
5, 114816, Note_on_c, 4, 89, 108
5, 114910, Note_on_c, 4, 89, 0
5, 114912, Note_on_c, 4, 88, 108
5, 115006, Note_on_c, 4, 88, 0
5, 115008, Note_on_c, 4, 86, 108
5, 115102, Note_on_c, 4, 86, 0
5, 115104, Note_on_c, 4, 84, 108
5, 115198, Note_on_c, 4, 84, 0
5, 115200, Note_on_c, 4, 82, 108
5, 115294, Note_on_c, 4, 82, 0
5, 115392, Note_on_c, 4, 84, 108
5, 115552, Note_on_c, 4, 84, 0
5, 115584, Note_on_c, 4, 88, 108
5, 115678, Note_on_c, 4, 88, 0
5, 115680, Note_on_c, 4, 89, 108
5, 115774, Note_on_c, 4, 89, 0
5, 115776, Note_on_c, 4, 91, 108
5, 115936, Note_on_c, 4, 91, 0
5, 115968, Note_on_c, 4, 89, 108
5, 116062, Note_on_c, 4, 89, 0
5, 116064, Note_on_c, 4, 88, 108
5, 116158, Note_on_c, 4, 88, 0
5, 116160, Note_on_c, 4, 86, 108
5, 116320, Note_on_c, 4, 86, 0
5, 116352, Note_on_c, 4, 84, 108
5, 116512, Note_on_c, 4, 84, 0
5, 116544, Note_on_c, 4, 82, 108
5, 116638, Note_on_c, 4, 82, 0
5, 116640, Note_on_c, 4, 84, 108
5, 116734, Note_on_c, 4, 84, 0
5, 116736, Note_on_c, 4, 82, 108
5, 116830, Note_on_c, 4, 82, 0
5, 116832, Note_on_c, 4, 81, 108
5, 116926, Note_on_c, 4, 81, 0
5, 116928, Note_on_c, 4, 72, 108
5, 116928, Note_on_c, 4, 76, 108
5, 116928, Note_on_c, 4, 79, 108
5, 116928, Note_on_c, 4, 84, 108
5, 117264, Note_on_c, 4, 72, 0
5, 117264, Note_on_c, 4, 76, 0
5, 117264, Note_on_c, 4, 79, 0
5, 117264, Note_on_c, 4, 84, 0
5, 117312, Note_on_c, 4, 72, 108
5, 117312, Note_on_c, 4, 79, 108
5, 117312, Note_on_c, 4, 84, 108
5, 117472, Note_on_c, 4, 72, 0
5, 117472, Note_on_c, 4, 79, 0
5, 117472, Note_on_c, 4, 84, 0
5, 117888, Note_on_c, 4, 72, 108
5, 117888, Note_on_c, 4, 76, 108
5, 117888, Note_on_c, 4, 79, 108
5, 117888, Note_on_c, 4, 84, 108
5, 118224, Note_on_c, 4, 72, 0
5, 118224, Note_on_c, 4, 76, 0
5, 118224, Note_on_c, 4, 79, 0
5, 118224, Note_on_c, 4, 84, 0
5, 118272, Note_on_c, 4, 72, 108
5, 118272, Note_on_c, 4, 79, 108
5, 118272, Note_on_c, 4, 84, 108
5, 118432, Note_on_c, 4, 72, 0
5, 118432, Note_on_c, 4, 79, 0
5, 118432, Note_on_c, 4, 84, 0
5, 118848, Note_on_c, 4, 72, 108
5, 118848, Note_on_c, 4, 76, 108
5, 118848, Note_on_c, 4, 79, 108
5, 118848, Note_on_c, 4, 84, 108
5, 119184, Note_on_c, 4, 72, 0
5, 119184, Note_on_c, 4, 76, 0
5, 119184, Note_on_c, 4, 79, 0
5, 119184, Note_on_c, 4, 84, 0
5, 119232, Note_on_c, 4, 72, 108
5, 119232, Note_on_c, 4, 79, 108
5, 119232, Note_on_c, 4, 84, 108
5, 119392, Note_on_c, 4, 72, 0
5, 119392, Note_on_c, 4, 79, 0
5, 119392, Note_on_c, 4, 84, 0
5, 119808, Note_on_c, 4, 72, 108
5, 119808, Note_on_c, 4, 76, 108
5, 119808, Note_on_c, 4, 79, 108
5, 119808, Note_on_c, 4, 84, 108
5, 120144, Note_on_c, 4, 72, 0
5, 120144, Note_on_c, 4, 76, 0
5, 120144, Note_on_c, 4, 79, 0
5, 120144, Note_on_c, 4, 84, 0
5, 120192, Note_on_c, 4, 72, 108
5, 120192, Note_on_c, 4, 79, 108
5, 120192, Note_on_c, 4, 84, 108
5, 120352, Note_on_c, 4, 72, 0
5, 120352, Note_on_c, 4, 79, 0
5, 120352, Note_on_c, 4, 84, 0
5, 122304, Note_on_c, 4, 79, 108
5, 122352, Note_on_c, 4, 79, 0
5, 122688, Note_on_c, 4, 79, 108
5, 122848, Note_on_c, 4, 79, 0
5, 122880, Note_on_c, 4, 79, 108
5, 122928, Note_on_c, 4, 79, 0
5, 123264, Note_on_c, 4, 79, 108
5, 123424, Note_on_c, 4, 79, 0
5, 123456, Note_on_c, 4, 78, 108
5, 123504, Note_on_c, 4, 78, 0
5, 124032, Note_on_c, 4, 74, 108
5, 124032, Note_on_c, 4, 86, 108
5, 124192, Note_on_c, 4, 74, 0
5, 124192, Note_on_c, 4, 86, 0
5, 124224, Note_on_c, 4, 78, 108
5, 124224, Note_on_c, 4, 90, 108
5, 124480, Note_on_c, 4, 78, 0
5, 124480, Note_on_c, 4, 90, 0
5, 124512, Note_on_c, 4, 79, 108
5, 124512, Note_on_c, 4, 91, 108
5, 124606, Note_on_c, 4, 79, 0
5, 124606, Note_on_c, 4, 91, 0
5, 124608, Note_on_c, 4, 81, 108
5, 124608, Note_on_c, 4, 93, 108
5, 124768, Note_on_c, 4, 81, 0
5, 124768, Note_on_c, 4, 93, 0
5, 124800, Note_on_c, 4, 79, 108
5, 124800, Note_on_c, 4, 91, 108
5, 124894, Note_on_c, 4, 79, 0
5, 124894, Note_on_c, 4, 91, 0
5, 124896, Note_on_c, 4, 78, 108
5, 124896, Note_on_c, 4, 90, 108
5, 124990, Note_on_c, 4, 78, 0
5, 124990, Note_on_c, 4, 90, 0
5, 124992, Note_on_c, 4, 76, 108
5, 124992, Note_on_c, 4, 88, 108
5, 125086, Note_on_c, 4, 76, 0
5, 125086, Note_on_c, 4, 88, 0
5, 125088, Note_on_c, 4, 74, 108
5, 125088, Note_on_c, 4, 86, 108
5, 125182, Note_on_c, 4, 74, 0
5, 125182, Note_on_c, 4, 86, 0
5, 125184, Note_on_c, 4, 72, 108
5, 125184, Note_on_c, 4, 84, 108
5, 125344, Note_on_c, 4, 72, 0
5, 125344, Note_on_c, 4, 84, 0
5, 125376, Note_on_c, 4, 74, 108
5, 125376, Note_on_c, 4, 86, 108
5, 125536, Note_on_c, 4, 74, 0
5, 125536, Note_on_c, 4, 86, 0
5, 125568, Note_on_c, 4, 78, 108
5, 125568, Note_on_c, 4, 90, 108
5, 125662, Note_on_c, 4, 78, 0
5, 125662, Note_on_c, 4, 90, 0
5, 125664, Note_on_c, 4, 79, 108
5, 125664, Note_on_c, 4, 91, 108
5, 125758, Note_on_c, 4, 79, 0
5, 125758, Note_on_c, 4, 91, 0
5, 125760, Note_on_c, 4, 81, 108
5, 125760, Note_on_c, 4, 93, 108
5, 125920, Note_on_c, 4, 81, 0
5, 125920, Note_on_c, 4, 93, 0
5, 125952, Note_on_c, 4, 79, 108
5, 125952, Note_on_c, 4, 91, 108
5, 126046, Note_on_c, 4, 79, 0
5, 126046, Note_on_c, 4, 91, 0
5, 126048, Note_on_c, 4, 78, 108
5, 126048, Note_on_c, 4, 90, 108
5, 126142, Note_on_c, 4, 78, 0
5, 126142, Note_on_c, 4, 90, 0
5, 126144, Note_on_c, 4, 76, 108
5, 126144, Note_on_c, 4, 88, 108
5, 126304, Note_on_c, 4, 76, 0
5, 126304, Note_on_c, 4, 88, 0
5, 126336, Note_on_c, 4, 74, 108
5, 126336, Note_on_c, 4, 86, 108
5, 126496, Note_on_c, 4, 74, 0
5, 126496, Note_on_c, 4, 86, 0
5, 126528, Note_on_c, 4, 72, 108
5, 126528, Note_on_c, 4, 84, 108
5, 126622, Note_on_c, 4, 72, 0
5, 126622, Note_on_c, 4, 84, 0
5, 126624, Note_on_c, 4, 74, 108
5, 126624, Note_on_c, 4, 86, 108
5, 126718, Note_on_c, 4, 74, 0
5, 126718, Note_on_c, 4, 86, 0
5, 126720, Note_on_c, 4, 72, 108
5, 126720, Note_on_c, 4, 84, 108
5, 126814, Note_on_c, 4, 72, 0
5, 126814, Note_on_c, 4, 84, 0
5, 126816, Note_on_c, 4, 71, 108
5, 126816, Note_on_c, 4, 83, 108
5, 126910, Note_on_c, 4, 71, 0
5, 126910, Note_on_c, 4, 83, 0
5, 126912, Note_on_c, 4, 69, 108
5, 126912, Note_on_c, 4, 81, 108
5, 127440, Note_on_c, 4, 69, 0
5, 127440, Note_on_c, 4, 81, 0
5, 128064, Note_on_c, 4, 81, 108
5, 128064, Note_on_c, 4, 86, 108
5, 128112, Note_on_c, 4, 81, 0
5, 128112, Note_on_c, 4, 86, 0
5, 128256, Note_on_c, 4, 81, 108
5, 128256, Note_on_c, 4, 86, 108
5, 128350, Note_on_c, 4, 81, 0
5, 128350, Note_on_c, 4, 86, 0
5, 128352, Note_on_c, 4, 81, 108
5, 128352, Note_on_c, 4, 84, 108
5, 128446, Note_on_c, 4, 81, 0
5, 128446, Note_on_c, 4, 84, 0
5, 128448, Note_on_c, 4, 81, 108
5, 128448, Note_on_c, 4, 86, 108
5, 128496, Note_on_c, 4, 81, 0
5, 128496, Note_on_c, 4, 86, 0
5, 130368, Note_on_c, 4, 79, 108
5, 130368, Note_on_c, 4, 84, 108
5, 130416, Note_on_c, 4, 79, 0
5, 130416, Note_on_c, 4, 84, 0
5, 130560, Note_on_c, 4, 79, 108
5, 130560, Note_on_c, 4, 84, 108
5, 130654, Note_on_c, 4, 79, 0
5, 130654, Note_on_c, 4, 84, 0
5, 130656, Note_on_c, 4, 79, 108
5, 130656, Note_on_c, 4, 82, 108
5, 130750, Note_on_c, 4, 79, 0
5, 130750, Note_on_c, 4, 82, 0
5, 130752, Note_on_c, 4, 79, 108
5, 130752, Note_on_c, 4, 84, 108
5, 130800, Note_on_c, 4, 79, 0
5, 130800, Note_on_c, 4, 84, 0
5, 132672, Note_on_c, 4, 77, 108
5, 132672, Note_on_c, 4, 82, 108
5, 132720, Note_on_c, 4, 77, 0
5, 132720, Note_on_c, 4, 82, 0
5, 132864, Note_on_c, 4, 77, 108
5, 132864, Note_on_c, 4, 82, 108
5, 132958, Note_on_c, 4, 77, 0
5, 132958, Note_on_c, 4, 82, 0
5, 132960, Note_on_c, 4, 77, 108
5, 132960, Note_on_c, 4, 80, 108
5, 133054, Note_on_c, 4, 77, 0
5, 133054, Note_on_c, 4, 80, 0
5, 133056, Note_on_c, 4, 77, 108
5, 133056, Note_on_c, 4, 82, 108
5, 133104, Note_on_c, 4, 77, 0
5, 133104, Note_on_c, 4, 82, 0
5, 134400, Note_on_c, 4, 72, 108
5, 134400, Note_on_c, 4, 78, 108
5, 134560, Note_on_c, 4, 72, 0
5, 134560, Note_on_c, 4, 78, 0
5, 134592, Note_on_c, 4, 72, 108
5, 134592, Note_on_c, 4, 78, 108
5, 134686, Note_on_c, 4, 72, 0
5, 134686, Note_on_c, 4, 78, 0
5, 134688, Note_on_c, 4, 74, 108
5, 134688, Note_on_c, 4, 79, 108
5, 134782, Note_on_c, 4, 74, 0
5, 134782, Note_on_c, 4, 79, 0
5, 134784, Note_on_c, 4, 75, 108
5, 134784, Note_on_c, 4, 81, 108
5, 134944, Note_on_c, 4, 75, 0
5, 134944, Note_on_c, 4, 81, 0
5, 134976, Note_on_c, 4, 78, 108
5, 135136, Note_on_c, 4, 78, 0
5, 135168, Note_on_c, 4, 79, 108
5, 135328, Note_on_c, 4, 79, 0
5, 135360, Note_on_c, 4, 81, 108
5, 135520, Note_on_c, 4, 81, 0
5, 135552, Note_on_c, 4, 72, 108
5, 135552, Note_on_c, 4, 78, 108
5, 135712, Note_on_c, 4, 72, 0
5, 135712, Note_on_c, 4, 78, 0
5, 135744, Note_on_c, 4, 72, 108
5, 135744, Note_on_c, 4, 78, 108
5, 135838, Note_on_c, 4, 72, 0
5, 135838, Note_on_c, 4, 78, 0
5, 135840, Note_on_c, 4, 74, 108
5, 135840, Note_on_c, 4, 79, 108
5, 135934, Note_on_c, 4, 74, 0
5, 135934, Note_on_c, 4, 79, 0
5, 135936, Note_on_c, 4, 75, 108
5, 135936, Note_on_c, 4, 81, 108
5, 136096, Note_on_c, 4, 75, 0
5, 136096, Note_on_c, 4, 81, 0
5, 136128, Note_on_c, 4, 67, 108
5, 136128, Note_on_c, 4, 70, 108
5, 136128, Note_on_c, 4, 74, 108
5, 136128, Note_on_c, 4, 79, 108
5, 136288, Note_on_c, 4, 79, 0
5, 136320, Note_on_c, 4, 79, 108
5, 136414, Note_on_c, 4, 79, 0
5, 136416, Note_on_c, 4, 81, 108
5, 136510, Note_on_c, 4, 81, 0
5, 136512, Note_on_c, 4, 82, 108
5, 136656, Note_on_c, 4, 67, 0
5, 136656, Note_on_c, 4, 70, 0
5, 136656, Note_on_c, 4, 74, 0
5, 136672, Note_on_c, 4, 82, 0
5, 136704, Note_on_c, 4, 69, 108
5, 136704, Note_on_c, 4, 72, 108
5, 136704, Note_on_c, 4, 84, 108
5, 136864, Note_on_c, 4, 84, 0
5, 136896, Note_on_c, 4, 77, 108
5, 137040, Note_on_c, 4, 69, 0
5, 137040, Note_on_c, 4, 72, 0
5, 137056, Note_on_c, 4, 77, 0
5, 137088, Note_on_c, 4, 70, 108
5, 137088, Note_on_c, 4, 74, 108
5, 137088, Note_on_c, 4, 79, 108
5, 137248, Note_on_c, 4, 79, 0
5, 137280, Note_on_c, 4, 82, 108
5, 137374, Note_on_c, 4, 82, 0
5, 137376, Note_on_c, 4, 81, 108
5, 137424, Note_on_c, 4, 70, 0
5, 137424, Note_on_c, 4, 74, 0
5, 137470, Note_on_c, 4, 81, 0
5, 137472, Note_on_c, 4, 72, 108
5, 137472, Note_on_c, 4, 75, 108
5, 137472, Note_on_c, 4, 79, 108
5, 137632, Note_on_c, 4, 72, 0
5, 137632, Note_on_c, 4, 75, 0
5, 137632, Note_on_c, 4, 79, 0
5, 137664, Note_on_c, 4, 69, 108
5, 137664, Note_on_c, 4, 74, 108
5, 137664, Note_on_c, 4, 78, 108
5, 137694, Note_on_c, 4, 78, 0
5, 137696, Note_on_c, 4, 79, 108
5, 137726, Note_on_c, 4, 79, 0
5, 137728, Note_on_c, 4, 78, 108
5, 137758, Note_on_c, 4, 78, 0
5, 137760, Note_on_c, 4, 76, 108
5, 137854, Note_on_c, 4, 76, 0
5, 137856, Note_on_c, 4, 78, 108
5, 138000, Note_on_c, 4, 69, 0
5, 138000, Note_on_c, 4, 74, 0
5, 138016, Note_on_c, 4, 78, 0
5, 138048, Note_on_c, 4, 74, 108
5, 138208, Note_on_c, 4, 74, 0
5, 138240, Note_on_c, 4, 70, 108
5, 138240, Note_on_c, 4, 74, 108
5, 138240, Note_on_c, 4, 79, 108
5, 138400, Note_on_c, 4, 79, 0
5, 138432, Note_on_c, 4, 79, 108
5, 138526, Note_on_c, 4, 79, 0
5, 138528, Note_on_c, 4, 81, 108
5, 138622, Note_on_c, 4, 81, 0
5, 138624, Note_on_c, 4, 82, 108
5, 138768, Note_on_c, 4, 70, 0
5, 138768, Note_on_c, 4, 74, 0
5, 138784, Note_on_c, 4, 82, 0
5, 138816, Note_on_c, 4, 69, 108
5, 138816, Note_on_c, 4, 72, 108
5, 138816, Note_on_c, 4, 84, 108
5, 138976, Note_on_c, 4, 69, 0
5, 138976, Note_on_c, 4, 72, 0
5, 138976, Note_on_c, 4, 84, 0
5, 139008, Note_on_c, 4, 69, 108
5, 139008, Note_on_c, 4, 72, 108
5, 139008, Note_on_c, 4, 77, 108
5, 139168, Note_on_c, 4, 69, 0
5, 139168, Note_on_c, 4, 72, 0
5, 139168, Note_on_c, 4, 77, 0
5, 139200, Note_on_c, 4, 69, 108
5, 139200, Note_on_c, 4, 72, 108
5, 139200, Note_on_c, 4, 77, 108
5, 139536, Note_on_c, 4, 69, 0
5, 139536, Note_on_c, 4, 72, 0
5, 139536, Note_on_c, 4, 77, 0
5, 139584, Note_on_c, 4, 72, 108
5, 139584, Note_on_c, 4, 75, 108
5, 139584, Note_on_c, 4, 79, 108
5, 139744, Note_on_c, 4, 72, 0
5, 139744, Note_on_c, 4, 75, 0
5, 139744, Note_on_c, 4, 79, 0
5, 139776, Note_on_c, 4, 69, 108
5, 139776, Note_on_c, 4, 74, 108
5, 139776, Note_on_c, 4, 78, 108
5, 139776, Note_on_c, 4, 81, 108
5, 140112, Note_on_c, 4, 69, 0
5, 140112, Note_on_c, 4, 74, 0
5, 140112, Note_on_c, 4, 78, 0
5, 140112, Note_on_c, 4, 81, 0
5, 140160, Note_on_c, 4, 69, 108
5, 140160, Note_on_c, 4, 74, 108
5, 140160, Note_on_c, 4, 78, 108
5, 140160, Note_on_c, 4, 81, 108
5, 140320, Note_on_c, 4, 69, 0
5, 140320, Note_on_c, 4, 74, 0
5, 140320, Note_on_c, 4, 78, 0
5, 140320, Note_on_c, 4, 81, 0
5, 144960, Note_on_c, 4, 65, 127
5, 144960, Note_on_c, 4, 70, 127
5, 144960, Note_on_c, 4, 77, 127
5, 145120, Note_on_c, 4, 65, 0
5, 145120, Note_on_c, 4, 70, 0
5, 145120, Note_on_c, 4, 77, 0
5, 145152, Note_on_c, 4, 65, 108
5, 145152, Note_on_c, 4, 70, 108
5, 145152, Note_on_c, 4, 77, 108
5, 145312, Note_on_c, 4, 65, 0
5, 145312, Note_on_c, 4, 70, 0
5, 145312, Note_on_c, 4, 77, 0
5, 145344, Note_on_c, 4, 65, 108
5, 145344, Note_on_c, 4, 70, 108
5, 145344, Note_on_c, 4, 77, 108
5, 145504, Note_on_c, 4, 65, 0
5, 145504, Note_on_c, 4, 70, 0
5, 145504, Note_on_c, 4, 77, 0
5, 145536, Note_on_c, 4, 65, 127
5, 145536, Note_on_c, 4, 70, 127
5, 145536, Note_on_c, 4, 77, 127
5, 145696, Note_on_c, 4, 65, 0
5, 145696, Note_on_c, 4, 70, 0
5, 145696, Note_on_c, 4, 77, 0
5, 145728, Note_on_c, 4, 65, 108
5, 145728, Note_on_c, 4, 70, 108
5, 145728, Note_on_c, 4, 77, 108
5, 145888, Note_on_c, 4, 65, 0
5, 145888, Note_on_c, 4, 70, 0
5, 145888, Note_on_c, 4, 77, 0
5, 145920, Note_on_c, 4, 65, 108
5, 145920, Note_on_c, 4, 70, 108
5, 145920, Note_on_c, 4, 77, 108
5, 146080, Note_on_c, 4, 65, 0
5, 146080, Note_on_c, 4, 70, 0
5, 146080, Note_on_c, 4, 77, 0
5, 146112, Note_on_c, 4, 63, 108
5, 146112, Note_on_c, 4, 68, 108
5, 146112, Note_on_c, 4, 75, 108
5, 146272, Note_on_c, 4, 63, 0
5, 146272, Note_on_c, 4, 68, 0
5, 146272, Note_on_c, 4, 75, 0
5, 146304, Note_on_c, 4, 63, 108
5, 146304, Note_on_c, 4, 68, 108
5, 146304, Note_on_c, 4, 75, 108
5, 146464, Note_on_c, 4, 63, 0
5, 146464, Note_on_c, 4, 68, 0
5, 146464, Note_on_c, 4, 75, 0
5, 148032, Note_on_c, 4, 65, 127
5, 148032, Note_on_c, 4, 70, 127
5, 148032, Note_on_c, 4, 77, 127
5, 148192, Note_on_c, 4, 65, 0
5, 148192, Note_on_c, 4, 70, 0
5, 148192, Note_on_c, 4, 77, 0
5, 148224, Note_on_c, 4, 65, 108
5, 148224, Note_on_c, 4, 70, 108
5, 148224, Note_on_c, 4, 77, 108
5, 148384, Note_on_c, 4, 65, 0
5, 148384, Note_on_c, 4, 70, 0
5, 148384, Note_on_c, 4, 77, 0
5, 148416, Note_on_c, 4, 65, 108
5, 148416, Note_on_c, 4, 70, 108
5, 148416, Note_on_c, 4, 77, 108
5, 148576, Note_on_c, 4, 65, 0
5, 148576, Note_on_c, 4, 70, 0
5, 148576, Note_on_c, 4, 77, 0
5, 148608, Note_on_c, 4, 65, 127
5, 148608, Note_on_c, 4, 70, 127
5, 148608, Note_on_c, 4, 77, 127
5, 148768, Note_on_c, 4, 65, 0
5, 148768, Note_on_c, 4, 70, 0
5, 148768, Note_on_c, 4, 77, 0
5, 148800, Note_on_c, 4, 65, 108
5, 148800, Note_on_c, 4, 70, 108
5, 148800, Note_on_c, 4, 77, 108
5, 148960, Note_on_c, 4, 65, 0
5, 148960, Note_on_c, 4, 70, 0
5, 148960, Note_on_c, 4, 77, 0
5, 148992, Note_on_c, 4, 65, 108
5, 148992, Note_on_c, 4, 70, 108
5, 148992, Note_on_c, 4, 77, 108
5, 149152, Note_on_c, 4, 65, 0
5, 149152, Note_on_c, 4, 70, 0
5, 149152, Note_on_c, 4, 77, 0
5, 149184, Note_on_c, 4, 63, 108
5, 149184, Note_on_c, 4, 68, 108
5, 149184, Note_on_c, 4, 75, 108
5, 149344, Note_on_c, 4, 63, 0
5, 149344, Note_on_c, 4, 68, 0
5, 149344, Note_on_c, 4, 75, 0
5, 149376, Note_on_c, 4, 63, 108
5, 149376, Note_on_c, 4, 68, 108
5, 149376, Note_on_c, 4, 75, 108
5, 149536, Note_on_c, 4, 63, 0
5, 149536, Note_on_c, 4, 68, 0
5, 149536, Note_on_c, 4, 75, 0
5, 153408, Program_c, 4, 30
5, 153504, Note_on_c, 4, 70, 75
5, 153504, Note_on_c, 4, 77, 75
5, 153598, Note_on_c, 4, 70, 0
5, 153598, Note_on_c, 4, 77, 0
5, 153600, Note_on_c, 4, 70, 75
5, 153600, Note_on_c, 4, 77, 75
5, 153694, Note_on_c, 4, 70, 0
5, 153694, Note_on_c, 4, 77, 0
5, 153696, Note_on_c, 4, 70, 75
5, 153696, Note_on_c, 4, 77, 75
5, 153790, Note_on_c, 4, 70, 0
5, 153790, Note_on_c, 4, 77, 0
5, 153792, Note_on_c, 4, 70, 75
5, 153792, Note_on_c, 4, 77, 75
5, 154128, Note_on_c, 4, 70, 0
5, 154128, Note_on_c, 4, 77, 0
5, 175392, Note_on_c, 4, 70, 75
5, 175486, Note_on_c, 4, 70, 0
5, 175488, Note_on_c, 4, 70, 75
5, 175582, Note_on_c, 4, 70, 0
5, 175584, Note_on_c, 4, 68, 75
5, 175678, Note_on_c, 4, 68, 0
5, 175680, Note_on_c, 4, 70, 75
5, 175774, Note_on_c, 4, 70, 0
5, 175776, Note_on_c, 4, 70, 75
5, 175870, Note_on_c, 4, 70, 0
5, 175968, Note_on_c, 4, 77, 75
5, 176062, Note_on_c, 4, 77, 0
5, 176064, Note_on_c, 4, 77, 75
5, 176158, Note_on_c, 4, 77, 0
5, 176160, Note_on_c, 4, 75, 75
5, 176254, Note_on_c, 4, 75, 0
5, 176256, Note_on_c, 4, 77, 75
5, 177168, Note_on_c, 4, 77, 0
5, 177216, Program_c, 4, 74
5, 177216, Note_on_c, 4, 62, 75
5, 177216, Note_on_c, 4, 67, 75
5, 177376, Note_on_c, 4, 62, 0
5, 177376, Note_on_c, 4, 67, 0
5, 177408, Note_on_c, 4, 79, 75
5, 177502, Note_on_c, 4, 79, 0
5, 177504, Note_on_c, 4, 77, 75
5, 177598, Note_on_c, 4, 77, 0
5, 177600, Note_on_c, 4, 79, 75
5, 177694, Note_on_c, 4, 79, 0
5, 177792, Note_on_c, 4, 67, 75
5, 177952, Note_on_c, 4, 67, 0
5, 177984, Note_on_c, 4, 74, 75
5, 178078, Note_on_c, 4, 74, 0
5, 178080, Note_on_c, 4, 72, 75
5, 178174, Note_on_c, 4, 72, 0
5, 178176, Note_on_c, 4, 70, 75
5, 178270, Note_on_c, 4, 70, 0
5, 178272, Note_on_c, 4, 69, 75
5, 178366, Note_on_c, 4, 69, 0
5, 178368, Note_on_c, 4, 72, 75
5, 178462, Note_on_c, 4, 72, 0
5, 178464, Note_on_c, 4, 69, 75
5, 178558, Note_on_c, 4, 69, 0
5, 179328, Program_c, 4, 17
5, 179328, Note_on_c, 4, 70, 75
5, 179422, Note_on_c, 4, 70, 0
5, 179424, Note_on_c, 4, 69, 75
5, 179518, Note_on_c, 4, 69, 0
5, 179520, Note_on_c, 4, 67, 75
5, 179614, Note_on_c, 4, 67, 0
5, 179616, Note_on_c, 4, 65, 75
5, 179710, Note_on_c, 4, 65, 0
5, 179712, Note_on_c, 4, 69, 75
5, 179806, Note_on_c, 4, 69, 0
5, 179808, Note_on_c, 4, 65, 75
5, 179902, Note_on_c, 4, 65, 0
5, 182592, Note_on_c, 4, 67, 75
5, 182592, Note_on_c, 4, 70, 75
5, 182592, Note_on_c, 4, 74, 75
5, 182928, Note_on_c, 4, 67, 0
5, 182928, Note_on_c, 4, 70, 0
5, 182928, Note_on_c, 4, 74, 0
5, 192000, Note_on_c, 4, 79, 75
5, 192160, Note_on_c, 4, 79, 0
5, 192192, Note_on_c, 4, 79, 75
5, 192192, Note_on_c, 4, 82, 75
5, 192286, Note_on_c, 4, 79, 0
5, 192286, Note_on_c, 4, 82, 0
5, 192288, Note_on_c, 4, 77, 75
5, 192288, Note_on_c, 4, 81, 75
5, 192382, Note_on_c, 4, 77, 0
5, 192382, Note_on_c, 4, 81, 0
5, 192384, Note_on_c, 4, 79, 75
5, 192384, Note_on_c, 4, 82, 75
5, 192544, Note_on_c, 4, 79, 0
5, 192544, Note_on_c, 4, 82, 0
5, 192576, Note_on_c, 4, 79, 75
5, 192736, Note_on_c, 4, 79, 0
5, 192768, Note_on_c, 4, 79, 75
5, 192768, Note_on_c, 4, 82, 75
5, 192862, Note_on_c, 4, 79, 0
5, 192862, Note_on_c, 4, 82, 0
5, 192864, Note_on_c, 4, 77, 75
5, 192864, Note_on_c, 4, 81, 75
5, 192958, Note_on_c, 4, 77, 0
5, 192958, Note_on_c, 4, 81, 0
5, 192960, Note_on_c, 4, 76, 75
5, 192960, Note_on_c, 4, 79, 75
5, 193054, Note_on_c, 4, 76, 0
5, 193054, Note_on_c, 4, 79, 0
5, 193056, Note_on_c, 4, 74, 75
5, 193056, Note_on_c, 4, 77, 75
5, 193150, Note_on_c, 4, 74, 0
5, 193150, Note_on_c, 4, 77, 0
5, 193152, Note_on_c, 4, 77, 75
5, 193152, Note_on_c, 4, 81, 75
5, 193246, Note_on_c, 4, 77, 0
5, 193246, Note_on_c, 4, 81, 0
5, 193248, Note_on_c, 4, 74, 75
5, 193248, Note_on_c, 4, 77, 75
5, 193342, Note_on_c, 4, 74, 0
5, 193342, Note_on_c, 4, 77, 0
5, 193344, Program_c, 4, 8
5, 193344, Note_on_c, 4, 67, 75
5, 193344, Note_on_c, 4, 79, 75
5, 193504, Note_on_c, 4, 79, 0
5, 193536, Note_on_c, 4, 79, 75
5, 193630, Note_on_c, 4, 79, 0
5, 193632, Note_on_c, 4, 81, 75
5, 193680, Note_on_c, 4, 67, 0
5, 193726, Note_on_c, 4, 81, 0
5, 193728, Note_on_c, 4, 82, 75
5, 193888, Note_on_c, 4, 82, 0
5, 193920, Note_on_c, 4, 84, 75
5, 194080, Note_on_c, 4, 84, 0
5, 194112, Note_on_c, 4, 77, 75
5, 194272, Note_on_c, 4, 77, 0
5, 194304, Note_on_c, 4, 72, 75
5, 194304, Note_on_c, 4, 77, 75
5, 194640, Note_on_c, 4, 72, 0
5, 194640, Note_on_c, 4, 77, 0
5, 194688, Note_on_c, 4, 72, 75
5, 194688, Note_on_c, 4, 77, 75
5, 194848, Note_on_c, 4, 72, 0
5, 194848, Note_on_c, 4, 77, 0
5, 194880, Note_on_c, 4, 74, 75
5, 194880, Note_on_c, 4, 78, 75
5, 195136, Note_on_c, 4, 78, 0
5, 195168, Note_on_c, 4, 76, 75
5, 195216, Note_on_c, 4, 74, 0
5, 195262, Note_on_c, 4, 76, 0
5, 195264, Note_on_c, 4, 74, 75
5, 195424, Note_on_c, 4, 74, 0
5, 195456, Note_on_c, 4, 79, 75
5, 195456, Note_on_c, 4, 82, 75
5, 195616, Note_on_c, 4, 82, 0
5, 195648, Note_on_c, 4, 81, 75
5, 195792, Note_on_c, 4, 79, 0
5, 195808, Note_on_c, 4, 81, 0
5, 195840, Note_on_c, 4, 79, 75
5, 196000, Note_on_c, 4, 79, 0
5, 196032, Note_on_c, 4, 78, 75
5, 196032, Note_on_c, 4, 81, 75
5, 196192, Note_on_c, 4, 81, 0
5, 196224, Note_on_c, 4, 78, 75
5, 196318, Note_on_c, 4, 78, 0
5, 196320, Note_on_c, 4, 79, 75
5, 196368, Note_on_c, 4, 78, 0
5, 196414, Note_on_c, 4, 79, 0
5, 196416, Note_on_c, 4, 81, 75
5, 196576, Note_on_c, 4, 81, 0
5, 196608, Note_on_c, 4, 86, 75
5, 196768, Note_on_c, 4, 86, 0
5, 196800, Note_on_c, 4, 79, 75
5, 196960, Note_on_c, 4, 79, 0
5, 196992, Note_on_c, 4, 78, 75
5, 196992, Note_on_c, 4, 81, 75
5, 197152, Note_on_c, 4, 78, 0
5, 197152, Note_on_c, 4, 81, 0
5, 197184, Note_on_c, 4, 79, 75
5, 197184, Note_on_c, 4, 83, 75
5, 197440, Note_on_c, 4, 83, 0
5, 197472, Note_on_c, 4, 84, 75
5, 197566, Note_on_c, 4, 84, 0
5, 197568, Note_on_c, 4, 86, 75
5, 197712, Note_on_c, 4, 79, 0
5, 197728, Note_on_c, 4, 86, 0
5, 197760, Note_on_c, 4, 79, 75
5, 197760, Note_on_c, 4, 84, 75
5, 198016, Note_on_c, 4, 84, 0
5, 198048, Note_on_c, 4, 86, 75
5, 198142, Note_on_c, 4, 86, 0
5, 198144, Note_on_c, 4, 88, 75
5, 198288, Note_on_c, 4, 79, 0
5, 198304, Note_on_c, 4, 88, 0
5, 198336, Note_on_c, 4, 79, 75
5, 198336, Note_on_c, 4, 88, 75
5, 198496, Note_on_c, 4, 88, 0
5, 198528, Note_on_c, 4, 86, 75
5, 198688, Note_on_c, 4, 86, 0
5, 198720, Note_on_c, 4, 84, 75
5, 198864, Note_on_c, 4, 79, 0
5, 198880, Note_on_c, 4, 84, 0
5, 198912, Note_on_c, 4, 79, 75
5, 198912, Note_on_c, 4, 83, 75
5, 199072, Note_on_c, 4, 83, 0
5, 199104, Note_on_c, 4, 86, 75
5, 199248, Note_on_c, 4, 79, 0
5, 199264, Note_on_c, 4, 86, 0
5, 199296, Note_on_c, 4, 77, 75
5, 199296, Note_on_c, 4, 81, 75
5, 199552, Note_on_c, 4, 81, 0
5, 199584, Note_on_c, 4, 82, 75
5, 199678, Note_on_c, 4, 82, 0
5, 199680, Note_on_c, 4, 84, 75
5, 199824, Note_on_c, 4, 77, 0
5, 199840, Note_on_c, 4, 84, 0
5, 199872, Note_on_c, 4, 77, 75
5, 199872, Note_on_c, 4, 81, 75
5, 200032, Note_on_c, 4, 81, 0
5, 200064, Note_on_c, 4, 79, 75
5, 200208, Note_on_c, 4, 77, 0
5, 200224, Note_on_c, 4, 79, 0
5, 200256, Note_on_c, 4, 78, 75
5, 200416, Note_on_c, 4, 78, 0
5, 200448, Note_on_c, 4, 78, 75
5, 200542, Note_on_c, 4, 78, 0
5, 200544, Note_on_c, 4, 79, 75
5, 200638, Note_on_c, 4, 79, 0
5, 200640, Note_on_c, 4, 78, 75
5, 200640, Note_on_c, 4, 81, 75
5, 200800, Note_on_c, 4, 78, 0
5, 200800, Note_on_c, 4, 81, 0
5, 200832, Note_on_c, 4, 67, 75
5, 200832, Note_on_c, 4, 79, 75
5, 200992, Note_on_c, 4, 79, 0
5, 201024, Note_on_c, 4, 79, 75
5, 201118, Note_on_c, 4, 79, 0
5, 201120, Note_on_c, 4, 81, 75
5, 201168, Note_on_c, 4, 67, 0
5, 201214, Note_on_c, 4, 81, 0
5, 201216, Note_on_c, 4, 82, 75
5, 201376, Note_on_c, 4, 82, 0
5, 201408, Note_on_c, 4, 84, 75
5, 201568, Note_on_c, 4, 84, 0
5, 201600, Note_on_c, 4, 77, 75
5, 201760, Note_on_c, 4, 77, 0
5, 201792, Note_on_c, 4, 74, 75
5, 201792, Note_on_c, 4, 79, 75
5, 202720, Note_on_c, 4, 74, 0
5, 202720, Note_on_c, 4, 79, 0
5, 205248, Program_c, 4, 18
5, 205248, Note_on_c, 4, 79, 75
5, 205408, Note_on_c, 4, 79, 0
5, 205440, Note_on_c, 4, 79, 75
5, 205440, Note_on_c, 4, 82, 75
5, 205534, Note_on_c, 4, 79, 0
5, 205534, Note_on_c, 4, 82, 0
5, 205536, Note_on_c, 4, 77, 75
5, 205536, Note_on_c, 4, 81, 75
5, 205630, Note_on_c, 4, 77, 0
5, 205630, Note_on_c, 4, 81, 0
5, 205632, Note_on_c, 4, 79, 75
5, 205632, Note_on_c, 4, 82, 75
5, 205792, Note_on_c, 4, 79, 0
5, 205792, Note_on_c, 4, 82, 0
5, 205824, Note_on_c, 4, 79, 75
5, 205984, Note_on_c, 4, 79, 0
5, 206016, Note_on_c, 4, 79, 75
5, 206016, Note_on_c, 4, 82, 75
5, 206110, Note_on_c, 4, 79, 0
5, 206110, Note_on_c, 4, 82, 0
5, 206112, Note_on_c, 4, 77, 75
5, 206112, Note_on_c, 4, 81, 75
5, 206206, Note_on_c, 4, 77, 0
5, 206206, Note_on_c, 4, 81, 0
5, 206208, Note_on_c, 4, 76, 75
5, 206208, Note_on_c, 4, 79, 75
5, 206302, Note_on_c, 4, 76, 0
5, 206302, Note_on_c, 4, 79, 0
5, 206304, Note_on_c, 4, 74, 75
5, 206304, Note_on_c, 4, 77, 75
5, 206398, Note_on_c, 4, 74, 0
5, 206398, Note_on_c, 4, 77, 0
5, 206400, Note_on_c, 4, 77, 75
5, 206400, Note_on_c, 4, 81, 75
5, 206494, Note_on_c, 4, 77, 0
5, 206494, Note_on_c, 4, 81, 0
5, 206496, Note_on_c, 4, 74, 75
5, 206496, Note_on_c, 4, 77, 75
5, 206590, Note_on_c, 4, 74, 0
5, 206590, Note_on_c, 4, 77, 0
5, 206592, Note_on_c, 4, 70, 75
5, 206592, Note_on_c, 4, 79, 75
5, 206752, Note_on_c, 4, 70, 0
5, 206752, Note_on_c, 4, 79, 0
5, 206784, Note_on_c, 4, 79, 75
5, 206784, Note_on_c, 4, 82, 75
5, 206878, Note_on_c, 4, 79, 0
5, 206878, Note_on_c, 4, 82, 0
5, 206880, Note_on_c, 4, 77, 75
5, 206880, Note_on_c, 4, 81, 75
5, 206974, Note_on_c, 4, 77, 0
5, 206974, Note_on_c, 4, 81, 0
5, 206976, Note_on_c, 4, 79, 75
5, 206976, Note_on_c, 4, 82, 75
5, 207136, Note_on_c, 4, 79, 0
5, 207136, Note_on_c, 4, 82, 0
5, 207168, Note_on_c, 4, 79, 75
5, 207328, Note_on_c, 4, 79, 0
5, 207360, Note_on_c, 4, 72, 75
5, 207360, Note_on_c, 4, 77, 75
5, 207360, Note_on_c, 4, 81, 75
5, 207454, Note_on_c, 4, 72, 0
5, 207454, Note_on_c, 4, 77, 0
5, 207454, Note_on_c, 4, 81, 0
5, 207456, Note_on_c, 4, 74, 75
5, 207456, Note_on_c, 4, 79, 75
5, 207456, Note_on_c, 4, 82, 75
5, 207550, Note_on_c, 4, 74, 0
5, 207550, Note_on_c, 4, 79, 0
5, 207550, Note_on_c, 4, 82, 0
5, 207552, Note_on_c, 4, 77, 75
5, 207552, Note_on_c, 4, 81, 75
5, 207552, Note_on_c, 4, 84, 75
5, 207712, Note_on_c, 4, 77, 0
5, 207712, Note_on_c, 4, 81, 0
5, 207712, Note_on_c, 4, 84, 0
5, 207744, Note_on_c, 4, 70, 75
5, 207744, Note_on_c, 4, 79, 75
5, 207904, Note_on_c, 4, 70, 0
5, 207904, Note_on_c, 4, 79, 0
5, 207936, Note_on_c, 4, 79, 75
5, 207936, Note_on_c, 4, 82, 75
5, 208030, Note_on_c, 4, 79, 0
5, 208030, Note_on_c, 4, 82, 0
5, 208032, Note_on_c, 4, 77, 75
5, 208032, Note_on_c, 4, 81, 75
5, 208126, Note_on_c, 4, 77, 0
5, 208126, Note_on_c, 4, 81, 0
5, 208128, Note_on_c, 4, 79, 75
5, 208128, Note_on_c, 4, 82, 75
5, 208288, Note_on_c, 4, 79, 0
5, 208288, Note_on_c, 4, 82, 0
5, 208320, Note_on_c, 4, 79, 75
5, 208480, Note_on_c, 4, 79, 0
5, 208512, Note_on_c, 4, 79, 75
5, 208512, Note_on_c, 4, 82, 75
5, 208606, Note_on_c, 4, 79, 0
5, 208606, Note_on_c, 4, 82, 0
5, 208608, Note_on_c, 4, 77, 75
5, 208608, Note_on_c, 4, 81, 75
5, 208702, Note_on_c, 4, 77, 0
5, 208702, Note_on_c, 4, 81, 0
5, 208704, Note_on_c, 4, 76, 75
5, 208704, Note_on_c, 4, 79, 75
5, 208798, Note_on_c, 4, 76, 0
5, 208798, Note_on_c, 4, 79, 0
5, 208800, Note_on_c, 4, 74, 75
5, 208800, Note_on_c, 4, 77, 75
5, 208894, Note_on_c, 4, 74, 0
5, 208894, Note_on_c, 4, 77, 0
5, 208896, Note_on_c, 4, 77, 75
5, 208896, Note_on_c, 4, 81, 75
5, 208990, Note_on_c, 4, 77, 0
5, 208990, Note_on_c, 4, 81, 0
5, 208992, Note_on_c, 4, 74, 75
5, 208992, Note_on_c, 4, 77, 75
5, 209086, Note_on_c, 4, 74, 0
5, 209086, Note_on_c, 4, 77, 0
5, 209088, Note_on_c, 4, 70, 75
5, 209088, Note_on_c, 4, 79, 75
5, 209248, Note_on_c, 4, 70, 0
5, 209248, Note_on_c, 4, 79, 0
5, 209280, Note_on_c, 4, 79, 75
5, 209280, Note_on_c, 4, 82, 75
5, 209374, Note_on_c, 4, 79, 0
5, 209374, Note_on_c, 4, 82, 0
5, 209376, Note_on_c, 4, 77, 75
5, 209376, Note_on_c, 4, 81, 75
5, 209470, Note_on_c, 4, 77, 0
5, 209470, Note_on_c, 4, 81, 0
5, 209472, Note_on_c, 4, 79, 75
5, 209472, Note_on_c, 4, 82, 75
5, 209632, Note_on_c, 4, 79, 0
5, 209632, Note_on_c, 4, 82, 0
5, 209664, Note_on_c, 4, 79, 75
5, 209824, Note_on_c, 4, 79, 0
5, 209856, Note_on_c, 4, 72, 75
5, 209856, Note_on_c, 4, 77, 75
5, 209856, Note_on_c, 4, 81, 75
5, 209950, Note_on_c, 4, 72, 0
5, 209950, Note_on_c, 4, 77, 0
5, 209950, Note_on_c, 4, 81, 0
5, 209952, Note_on_c, 4, 74, 75
5, 209952, Note_on_c, 4, 79, 75
5, 209952, Note_on_c, 4, 82, 75
5, 210046, Note_on_c, 4, 74, 0
5, 210046, Note_on_c, 4, 79, 0
5, 210046, Note_on_c, 4, 82, 0
5, 210048, Note_on_c, 4, 77, 75
5, 210048, Note_on_c, 4, 81, 75
5, 210048, Note_on_c, 4, 84, 75
5, 210208, Note_on_c, 4, 77, 0
5, 210208, Note_on_c, 4, 81, 0
5, 210208, Note_on_c, 4, 84, 0
5, 210240, Note_on_c, 4, 70, 75
5, 210240, Note_on_c, 4, 79, 75
5, 210400, Note_on_c, 4, 70, 0
5, 210400, Note_on_c, 4, 79, 0
5, 210432, Note_on_c, 4, 79, 75
5, 210432, Note_on_c, 4, 82, 75
5, 210526, Note_on_c, 4, 79, 0
5, 210526, Note_on_c, 4, 82, 0
5, 210528, Note_on_c, 4, 77, 75
5, 210528, Note_on_c, 4, 81, 75
5, 210622, Note_on_c, 4, 77, 0
5, 210622, Note_on_c, 4, 81, 0
5, 210624, Note_on_c, 4, 79, 75
5, 210624, Note_on_c, 4, 82, 75
5, 210784, Note_on_c, 4, 79, 0
5, 210784, Note_on_c, 4, 82, 0
5, 210816, Note_on_c, 4, 79, 75
5, 210976, Note_on_c, 4, 79, 0
5, 211008, Note_on_c, 4, 79, 75
5, 211008, Note_on_c, 4, 82, 75
5, 211102, Note_on_c, 4, 79, 0
5, 211102, Note_on_c, 4, 82, 0
5, 211104, Note_on_c, 4, 77, 75
5, 211104, Note_on_c, 4, 81, 75
5, 211198, Note_on_c, 4, 77, 0
5, 211198, Note_on_c, 4, 81, 0
5, 211200, Note_on_c, 4, 76, 75
5, 211200, Note_on_c, 4, 79, 75
5, 211294, Note_on_c, 4, 76, 0
5, 211294, Note_on_c, 4, 79, 0
5, 211296, Note_on_c, 4, 74, 75
5, 211296, Note_on_c, 4, 77, 75
5, 211390, Note_on_c, 4, 74, 0
5, 211390, Note_on_c, 4, 77, 0
5, 211392, Note_on_c, 4, 77, 75
5, 211392, Note_on_c, 4, 81, 75
5, 211486, Note_on_c, 4, 77, 0
5, 211486, Note_on_c, 4, 81, 0
5, 211488, Note_on_c, 4, 74, 75
5, 211488, Note_on_c, 4, 77, 75
5, 211582, Note_on_c, 4, 74, 0
5, 211582, Note_on_c, 4, 77, 0
5, 211584, Note_on_c, 4, 70, 75
5, 211584, Note_on_c, 4, 79, 75
5, 211744, Note_on_c, 4, 70, 0
5, 211744, Note_on_c, 4, 79, 0
5, 211776, Note_on_c, 4, 79, 75
5, 211776, Note_on_c, 4, 82, 75
5, 211870, Note_on_c, 4, 79, 0
5, 211870, Note_on_c, 4, 82, 0
5, 211872, Note_on_c, 4, 77, 75
5, 211872, Note_on_c, 4, 81, 75
5, 211966, Note_on_c, 4, 77, 0
5, 211966, Note_on_c, 4, 81, 0
5, 211968, Note_on_c, 4, 79, 75
5, 211968, Note_on_c, 4, 82, 75
5, 212128, Note_on_c, 4, 79, 0
5, 212128, Note_on_c, 4, 82, 0
5, 212160, Note_on_c, 4, 79, 75
5, 212320, Note_on_c, 4, 79, 0
5, 212352, Note_on_c, 4, 72, 75
5, 212352, Note_on_c, 4, 77, 75
5, 212352, Note_on_c, 4, 81, 75
5, 212446, Note_on_c, 4, 72, 0
5, 212446, Note_on_c, 4, 77, 0
5, 212446, Note_on_c, 4, 81, 0
5, 212448, Note_on_c, 4, 74, 75
5, 212448, Note_on_c, 4, 79, 75
5, 212448, Note_on_c, 4, 82, 75
5, 212542, Note_on_c, 4, 74, 0
5, 212542, Note_on_c, 4, 79, 0
5, 212542, Note_on_c, 4, 82, 0
5, 212544, Note_on_c, 4, 77, 75
5, 212544, Note_on_c, 4, 81, 75
5, 212544, Note_on_c, 4, 84, 75
5, 212704, Note_on_c, 4, 77, 0
5, 212704, Note_on_c, 4, 81, 0
5, 212704, Note_on_c, 4, 84, 0
5, 212736, Note_on_c, 4, 70, 75
5, 212736, Note_on_c, 4, 79, 75
5, 212896, Note_on_c, 4, 70, 0
5, 212896, Note_on_c, 4, 79, 0
5, 212928, Note_on_c, 4, 79, 75
5, 212928, Note_on_c, 4, 82, 75
5, 213022, Note_on_c, 4, 79, 0
5, 213022, Note_on_c, 4, 82, 0
5, 213024, Note_on_c, 4, 77, 75
5, 213024, Note_on_c, 4, 81, 75
5, 213118, Note_on_c, 4, 77, 0
5, 213118, Note_on_c, 4, 81, 0
5, 213120, Note_on_c, 4, 79, 75
5, 213120, Note_on_c, 4, 82, 75
5, 213280, Note_on_c, 4, 79, 0
5, 213280, Note_on_c, 4, 82, 0
5, 213312, Note_on_c, 4, 79, 75
5, 213472, Note_on_c, 4, 79, 0
5, 213504, Note_on_c, 4, 79, 75
5, 213504, Note_on_c, 4, 82, 75
5, 213598, Note_on_c, 4, 79, 0
5, 213598, Note_on_c, 4, 82, 0
5, 213600, Note_on_c, 4, 77, 75
5, 213600, Note_on_c, 4, 81, 75
5, 213694, Note_on_c, 4, 77, 0
5, 213694, Note_on_c, 4, 81, 0
5, 213696, Note_on_c, 4, 76, 75
5, 213696, Note_on_c, 4, 79, 75
5, 213790, Note_on_c, 4, 76, 0
5, 213790, Note_on_c, 4, 79, 0
5, 213792, Note_on_c, 4, 74, 75
5, 213792, Note_on_c, 4, 77, 75
5, 213886, Note_on_c, 4, 74, 0
5, 213886, Note_on_c, 4, 77, 0
5, 213888, Note_on_c, 4, 77, 75
5, 213888, Note_on_c, 4, 81, 75
5, 213982, Note_on_c, 4, 77, 0
5, 213982, Note_on_c, 4, 81, 0
5, 213984, Note_on_c, 4, 74, 75
5, 213984, Note_on_c, 4, 77, 75
5, 214078, Note_on_c, 4, 74, 0
5, 214078, Note_on_c, 4, 77, 0
5, 214080, Note_on_c, 4, 67, 75
5, 214080, Note_on_c, 4, 70, 75
5, 214080, Note_on_c, 4, 74, 75
5, 215376, Note_on_c, 4, 67, 0
5, 215376, Note_on_c, 4, 70, 0
5, 215376, Note_on_c, 4, 74, 0
5, 215376, End_track
6, 0, Start_track
6, 0, MIDI_port, 0
6, 0, Title_t, "Bass"
6, 0, Program_c, 1, 33
6, 0, Control_c, 1, 7, 127
6, 0, Control_c, 1, 10, 64
6, 0, Note_on_c, 1, 43, 92
6, 528, Note_on_c, 1, 43, 0
6, 576, Note_on_c, 1, 45, 92
6, 912, Note_on_c, 1, 45, 0
6, 960, Note_on_c, 1, 46, 92
6, 1296, Note_on_c, 1, 46, 0
6, 1344, Note_on_c, 1, 48, 92
6, 1504, Note_on_c, 1, 48, 0
6, 1536, Note_on_c, 1, 50, 92
6, 2064, Note_on_c, 1, 50, 0
6, 2112, Note_on_c, 1, 43, 92
6, 2640, Note_on_c, 1, 43, 0
6, 2688, Note_on_c, 1, 45, 92
6, 2848, Note_on_c, 1, 45, 0
6, 2880, Note_on_c, 1, 46, 92
6, 3040, Note_on_c, 1, 46, 0
6, 3072, Note_on_c, 1, 48, 92
6, 3232, Note_on_c, 1, 48, 0
6, 3264, Note_on_c, 1, 50, 92
6, 3600, Note_on_c, 1, 50, 0
6, 3648, Note_on_c, 1, 43, 92
6, 3984, Note_on_c, 1, 43, 0
6, 4032, Note_on_c, 1, 43, 92
6, 4192, Note_on_c, 1, 43, 0
6, 4224, Note_on_c, 1, 36, 92
6, 5152, Note_on_c, 1, 36, 0
6, 5184, Note_on_c, 1, 40, 92
6, 5278, Note_on_c, 1, 40, 0
6, 5280, Note_on_c, 1, 41, 92
6, 5374, Note_on_c, 1, 41, 0
6, 5376, Note_on_c, 1, 43, 92
6, 5712, Note_on_c, 1, 43, 0
6, 5760, Note_on_c, 1, 41, 92
6, 6288, Note_on_c, 1, 41, 0
6, 6336, Note_on_c, 1, 41, 92
6, 6496, Note_on_c, 1, 41, 0
6, 6528, Note_on_c, 1, 39, 92
6, 6688, Note_on_c, 1, 39, 0
6, 6720, Note_on_c, 1, 38, 92
6, 6976, Note_on_c, 1, 38, 0
6, 7008, Note_on_c, 1, 40, 92
6, 7102, Note_on_c, 1, 40, 0
6, 7104, Note_on_c, 1, 42, 92
6, 7264, Note_on_c, 1, 42, 0
6, 7296, Note_on_c, 1, 43, 92
6, 7456, Note_on_c, 1, 43, 0
6, 7488, Note_on_c, 1, 43, 92
6, 7582, Note_on_c, 1, 43, 0
6, 7584, Note_on_c, 1, 45, 92
6, 7678, Note_on_c, 1, 45, 0
6, 7680, Note_on_c, 1, 46, 92
6, 7840, Note_on_c, 1, 46, 0
6, 7872, Note_on_c, 1, 48, 92
6, 8032, Note_on_c, 1, 48, 0
6, 8064, Note_on_c, 1, 41, 92
6, 8224, Note_on_c, 1, 41, 0
6, 8256, Note_on_c, 1, 31, 92
6, 8784, Note_on_c, 1, 31, 0
6, 8832, Note_on_c, 1, 31, 92
6, 8992, Note_on_c, 1, 31, 0
6, 9024, Note_on_c, 1, 33, 92
6, 9552, Note_on_c, 1, 33, 0
6, 9600, Note_on_c, 1, 33, 92
6, 9760, Note_on_c, 1, 33, 0
6, 9792, Note_on_c, 1, 34, 92
6, 10320, Note_on_c, 1, 34, 0
6, 10368, Note_on_c, 1, 36, 92
6, 10528, Note_on_c, 1, 36, 0
6, 10560, Note_on_c, 1, 38, 92
6, 10720, Note_on_c, 1, 38, 0
6, 10752, Note_on_c, 1, 42, 92
6, 10912, Note_on_c, 1, 42, 0
6, 10944, Note_on_c, 1, 43, 92
6, 12240, Note_on_c, 1, 43, 0
6, 12288, Note_on_c, 1, 31, 92
6, 12448, Note_on_c, 1, 31, 0
6, 12480, Note_on_c, 1, 31, 92
6, 12574, Note_on_c, 1, 31, 0
6, 12576, Note_on_c, 1, 33, 92
6, 12670, Note_on_c, 1, 33, 0
6, 12672, Note_on_c, 1, 34, 92
6, 12832, Note_on_c, 1, 34, 0
6, 12864, Note_on_c, 1, 36, 92
6, 13024, Note_on_c, 1, 36, 0
6, 13056, Note_on_c, 1, 29, 92
6, 13216, Note_on_c, 1, 29, 0
6, 13248, Note_on_c, 1, 31, 92
6, 14544, Note_on_c, 1, 31, 0
6, 14592, Note_on_c, 1, 31, 92
6, 14752, Note_on_c, 1, 31, 0
6, 14784, Note_on_c, 1, 43, 92
6, 14878, Note_on_c, 1, 43, 0
6, 14880, Note_on_c, 1, 41, 92
6, 14974, Note_on_c, 1, 41, 0
6, 14976, Note_on_c, 1, 43, 92
6, 15136, Note_on_c, 1, 43, 0
6, 15168, Note_on_c, 1, 31, 92
6, 15328, Note_on_c, 1, 31, 0
6, 15360, Note_on_c, 1, 38, 92
6, 15454, Note_on_c, 1, 38, 0
6, 15456, Note_on_c, 1, 36, 92
6, 15550, Note_on_c, 1, 36, 0
6, 15552, Note_on_c, 1, 34, 92
6, 15646, Note_on_c, 1, 34, 0
6, 15648, Note_on_c, 1, 33, 92
6, 15742, Note_on_c, 1, 33, 0
6, 15744, Note_on_c, 1, 36, 92
6, 15838, Note_on_c, 1, 36, 0
6, 15840, Note_on_c, 1, 33, 92
6, 15934, Note_on_c, 1, 33, 0
6, 15936, Note_on_c, 1, 31, 92
6, 16096, Note_on_c, 1, 31, 0
6, 16128, Note_on_c, 1, 43, 92
6, 16222, Note_on_c, 1, 43, 0
6, 16224, Note_on_c, 1, 41, 92
6, 16318, Note_on_c, 1, 41, 0
6, 16320, Note_on_c, 1, 43, 92
6, 16480, Note_on_c, 1, 43, 0
6, 16512, Note_on_c, 1, 31, 92
6, 16672, Note_on_c, 1, 31, 0
6, 16704, Note_on_c, 1, 36, 92
6, 16798, Note_on_c, 1, 36, 0
6, 16800, Note_on_c, 1, 38, 92
6, 16894, Note_on_c, 1, 38, 0
6, 16896, Note_on_c, 1, 41, 92
6, 17056, Note_on_c, 1, 41, 0
6, 17088, Note_on_c, 1, 31, 92
6, 17248, Note_on_c, 1, 31, 0
6, 17280, Note_on_c, 1, 43, 92
6, 17374, Note_on_c, 1, 43, 0
6, 17376, Note_on_c, 1, 41, 92
6, 17470, Note_on_c, 1, 41, 0
6, 17472, Note_on_c, 1, 43, 92
6, 17632, Note_on_c, 1, 43, 0
6, 17664, Note_on_c, 1, 31, 92
6, 17824, Note_on_c, 1, 31, 0
6, 17856, Note_on_c, 1, 38, 92
6, 17950, Note_on_c, 1, 38, 0
6, 17952, Note_on_c, 1, 36, 92
6, 18046, Note_on_c, 1, 36, 0
6, 18048, Note_on_c, 1, 34, 92
6, 18142, Note_on_c, 1, 34, 0
6, 18144, Note_on_c, 1, 33, 92
6, 18238, Note_on_c, 1, 33, 0
6, 18240, Note_on_c, 1, 36, 92
6, 18334, Note_on_c, 1, 36, 0
6, 18336, Note_on_c, 1, 33, 92
6, 18430, Note_on_c, 1, 33, 0
6, 18432, Note_on_c, 1, 31, 92
6, 18592, Note_on_c, 1, 31, 0
6, 18624, Note_on_c, 1, 43, 92
6, 18718, Note_on_c, 1, 43, 0
6, 18720, Note_on_c, 1, 41, 92
6, 18814, Note_on_c, 1, 41, 0
6, 18816, Note_on_c, 1, 43, 92
6, 18976, Note_on_c, 1, 43, 0
6, 19008, Note_on_c, 1, 31, 92
6, 19168, Note_on_c, 1, 31, 0
6, 19200, Note_on_c, 1, 36, 92
6, 19294, Note_on_c, 1, 36, 0
6, 19296, Note_on_c, 1, 38, 92
6, 19390, Note_on_c, 1, 38, 0
6, 19392, Note_on_c, 1, 41, 92
6, 19552, Note_on_c, 1, 41, 0
6, 19584, Note_on_c, 1, 31, 92
6, 19744, Note_on_c, 1, 31, 0
6, 19776, Note_on_c, 1, 43, 92
6, 19870, Note_on_c, 1, 43, 0
6, 19872, Note_on_c, 1, 41, 92
6, 20032, Note_on_c, 1, 41, 0
6, 20064, Note_on_c, 1, 43, 92
6, 20158, Note_on_c, 1, 43, 0
6, 20160, Note_on_c, 1, 31, 92
6, 20320, Note_on_c, 1, 31, 0
6, 20352, Note_on_c, 1, 38, 92
6, 20446, Note_on_c, 1, 38, 0
6, 20448, Note_on_c, 1, 36, 92
6, 20542, Note_on_c, 1, 36, 0
6, 20544, Note_on_c, 1, 34, 92
6, 20638, Note_on_c, 1, 34, 0
6, 20640, Note_on_c, 1, 33, 92
6, 20734, Note_on_c, 1, 33, 0
6, 20736, Note_on_c, 1, 36, 92
6, 20830, Note_on_c, 1, 36, 0
6, 20832, Note_on_c, 1, 33, 92
6, 20926, Note_on_c, 1, 33, 0
6, 20928, Note_on_c, 1, 31, 92
6, 21088, Note_on_c, 1, 31, 0
6, 21120, Note_on_c, 1, 43, 92
6, 21214, Note_on_c, 1, 43, 0
6, 21216, Note_on_c, 1, 41, 92
6, 21376, Note_on_c, 1, 41, 0
6, 21408, Note_on_c, 1, 43, 92
6, 21502, Note_on_c, 1, 43, 0
6, 21504, Note_on_c, 1, 31, 92
6, 21664, Note_on_c, 1, 31, 0
6, 21696, Note_on_c, 1, 36, 92
6, 21790, Note_on_c, 1, 36, 0
6, 21792, Note_on_c, 1, 38, 92
6, 21886, Note_on_c, 1, 38, 0
6, 21888, Note_on_c, 1, 41, 92
6, 22048, Note_on_c, 1, 41, 0
6, 22080, Note_on_c, 1, 31, 92
6, 22240, Note_on_c, 1, 31, 0
6, 22272, Note_on_c, 1, 43, 92
6, 22366, Note_on_c, 1, 43, 0
6, 22368, Note_on_c, 1, 41, 92
6, 22528, Note_on_c, 1, 41, 0
6, 22560, Note_on_c, 1, 43, 92
6, 22654, Note_on_c, 1, 43, 0
6, 22656, Note_on_c, 1, 31, 92
6, 22816, Note_on_c, 1, 31, 0
6, 22848, Note_on_c, 1, 38, 92
6, 22942, Note_on_c, 1, 38, 0
6, 22944, Note_on_c, 1, 36, 92
6, 23038, Note_on_c, 1, 36, 0
6, 23040, Note_on_c, 1, 34, 92
6, 23134, Note_on_c, 1, 34, 0
6, 23136, Note_on_c, 1, 33, 92
6, 23230, Note_on_c, 1, 33, 0
6, 23232, Note_on_c, 1, 36, 92
6, 23326, Note_on_c, 1, 36, 0
6, 23328, Note_on_c, 1, 33, 92
6, 23422, Note_on_c, 1, 33, 0
6, 23424, Note_on_c, 1, 31, 92
6, 23584, Note_on_c, 1, 31, 0
6, 23616, Note_on_c, 1, 43, 92
6, 23710, Note_on_c, 1, 43, 0
6, 23712, Note_on_c, 1, 41, 92
6, 23872, Note_on_c, 1, 41, 0
6, 23904, Note_on_c, 1, 43, 92
6, 23998, Note_on_c, 1, 43, 0
6, 24000, Note_on_c, 1, 31, 92
6, 24160, Note_on_c, 1, 31, 0
6, 24192, Note_on_c, 1, 36, 92
6, 24286, Note_on_c, 1, 36, 0
6, 24288, Note_on_c, 1, 38, 92
6, 24382, Note_on_c, 1, 38, 0
6, 24384, Note_on_c, 1, 41, 92
6, 24544, Note_on_c, 1, 41, 0
6, 24576, Note_on_c, 1, 31, 92
6, 24736, Note_on_c, 1, 31, 0
6, 24768, Note_on_c, 1, 43, 92
6, 24862, Note_on_c, 1, 43, 0
6, 24864, Note_on_c, 1, 41, 92
6, 25024, Note_on_c, 1, 41, 0
6, 25056, Note_on_c, 1, 43, 92
6, 25150, Note_on_c, 1, 43, 0
6, 25152, Note_on_c, 1, 31, 92
6, 25312, Note_on_c, 1, 31, 0
6, 25344, Note_on_c, 1, 38, 92
6, 25438, Note_on_c, 1, 38, 0
6, 25440, Note_on_c, 1, 36, 92
6, 25534, Note_on_c, 1, 36, 0
6, 25536, Note_on_c, 1, 34, 92
6, 25630, Note_on_c, 1, 34, 0
6, 25632, Note_on_c, 1, 33, 92
6, 25726, Note_on_c, 1, 33, 0
6, 25728, Note_on_c, 1, 36, 92
6, 25822, Note_on_c, 1, 36, 0
6, 25824, Note_on_c, 1, 33, 92
6, 25918, Note_on_c, 1, 33, 0
6, 25920, Note_on_c, 1, 31, 92
6, 26080, Note_on_c, 1, 31, 0
6, 26112, Note_on_c, 1, 43, 92
6, 26206, Note_on_c, 1, 43, 0
6, 26208, Note_on_c, 1, 41, 92
6, 26368, Note_on_c, 1, 41, 0
6, 26400, Note_on_c, 1, 43, 92
6, 26494, Note_on_c, 1, 43, 0
6, 26496, Note_on_c, 1, 31, 92
6, 26656, Note_on_c, 1, 31, 0
6, 26688, Note_on_c, 1, 36, 92
6, 26782, Note_on_c, 1, 36, 0
6, 26784, Note_on_c, 1, 38, 92
6, 26878, Note_on_c, 1, 38, 0
6, 26880, Note_on_c, 1, 41, 92
6, 27040, Note_on_c, 1, 41, 0
6, 27072, Note_on_c, 1, 31, 92
6, 27232, Note_on_c, 1, 31, 0
6, 27264, Note_on_c, 1, 43, 92
6, 27358, Note_on_c, 1, 43, 0
6, 27360, Note_on_c, 1, 41, 92
6, 27520, Note_on_c, 1, 41, 0
6, 27552, Note_on_c, 1, 43, 92
6, 27646, Note_on_c, 1, 43, 0
6, 27648, Note_on_c, 1, 31, 92
6, 27808, Note_on_c, 1, 31, 0
6, 27840, Note_on_c, 1, 38, 92
6, 27934, Note_on_c, 1, 38, 0
6, 27936, Note_on_c, 1, 36, 92
6, 28030, Note_on_c, 1, 36, 0
6, 28032, Note_on_c, 1, 34, 92
6, 28126, Note_on_c, 1, 34, 0
6, 28128, Note_on_c, 1, 33, 92
6, 28222, Note_on_c, 1, 33, 0
6, 28224, Note_on_c, 1, 36, 92
6, 28318, Note_on_c, 1, 36, 0
6, 28320, Note_on_c, 1, 33, 92
6, 28414, Note_on_c, 1, 33, 0
6, 28416, Note_on_c, 1, 31, 92
6, 28576, Note_on_c, 1, 31, 0
6, 28608, Note_on_c, 1, 43, 92
6, 28702, Note_on_c, 1, 43, 0
6, 28704, Note_on_c, 1, 41, 92
6, 28864, Note_on_c, 1, 41, 0
6, 28896, Note_on_c, 1, 43, 92
6, 28990, Note_on_c, 1, 43, 0
6, 28992, Note_on_c, 1, 31, 92
6, 29152, Note_on_c, 1, 31, 0
6, 29184, Note_on_c, 1, 36, 92
6, 29278, Note_on_c, 1, 36, 0
6, 29280, Note_on_c, 1, 38, 92
6, 29374, Note_on_c, 1, 38, 0
6, 29376, Note_on_c, 1, 41, 92
6, 29536, Note_on_c, 1, 41, 0
6, 29568, Note_on_c, 1, 31, 92
6, 29728, Note_on_c, 1, 31, 0
6, 29760, Note_on_c, 1, 43, 92
6, 29854, Note_on_c, 1, 43, 0
6, 29856, Note_on_c, 1, 41, 92
6, 30016, Note_on_c, 1, 41, 0
6, 30048, Note_on_c, 1, 43, 92
6, 30142, Note_on_c, 1, 43, 0
6, 30144, Note_on_c, 1, 31, 92
6, 30304, Note_on_c, 1, 31, 0
6, 30336, Note_on_c, 1, 38, 92
6, 30430, Note_on_c, 1, 38, 0
6, 30432, Note_on_c, 1, 36, 92
6, 30526, Note_on_c, 1, 36, 0
6, 30528, Note_on_c, 1, 34, 92
6, 30622, Note_on_c, 1, 34, 0
6, 30624, Note_on_c, 1, 33, 92
6, 30718, Note_on_c, 1, 33, 0
6, 30720, Note_on_c, 1, 36, 92
6, 30814, Note_on_c, 1, 36, 0
6, 30816, Note_on_c, 1, 33, 92
6, 30910, Note_on_c, 1, 33, 0
6, 30912, Note_on_c, 1, 31, 92
6, 31248, Note_on_c, 1, 31, 0
6, 31680, Note_on_c, 1, 46, 92
6, 31840, Note_on_c, 1, 46, 0
6, 31872, Note_on_c, 1, 48, 92
6, 32208, Note_on_c, 1, 48, 0
6, 32256, Note_on_c, 1, 36, 92
6, 32416, Note_on_c, 1, 36, 0
6, 32448, Note_on_c, 1, 38, 92
6, 34320, Note_on_c, 1, 38, 0
6, 34560, Note_on_c, 1, 30, 92
6, 34720, Note_on_c, 1, 30, 0
6, 34752, Note_on_c, 1, 31, 92
6, 34912, Note_on_c, 1, 31, 0
6, 34944, Note_on_c, 1, 33, 92
6, 35104, Note_on_c, 1, 33, 0
6, 35136, Note_on_c, 1, 35, 92
6, 35296, Note_on_c, 1, 35, 0
6, 35328, Note_on_c, 1, 36, 92
6, 35488, Note_on_c, 1, 36, 0
6, 35520, Note_on_c, 1, 35, 92
6, 35680, Note_on_c, 1, 35, 0
6, 35712, Note_on_c, 1, 36, 92
6, 35872, Note_on_c, 1, 36, 0
6, 35904, Note_on_c, 1, 36, 92
6, 36064, Note_on_c, 1, 36, 0
6, 36096, Note_on_c, 1, 36, 92
6, 36190, Note_on_c, 1, 36, 0
6, 36192, Note_on_c, 1, 38, 92
6, 36286, Note_on_c, 1, 38, 0
6, 36288, Note_on_c, 1, 40, 92
6, 36382, Note_on_c, 1, 40, 0
6, 36384, Note_on_c, 1, 41, 92
6, 36478, Note_on_c, 1, 41, 0
6, 36480, Note_on_c, 1, 43, 92
6, 36640, Note_on_c, 1, 43, 0
6, 36672, Note_on_c, 1, 31, 92
6, 36832, Note_on_c, 1, 31, 0
6, 36864, Note_on_c, 1, 29, 92
6, 37392, Note_on_c, 1, 29, 0
6, 37440, Note_on_c, 1, 41, 92
6, 37600, Note_on_c, 1, 41, 0
6, 37632, Note_on_c, 1, 39, 92
6, 37792, Note_on_c, 1, 39, 0
6, 37824, Note_on_c, 1, 38, 92
6, 38080, Note_on_c, 1, 38, 0
6, 38112, Note_on_c, 1, 40, 92
6, 38206, Note_on_c, 1, 40, 0
6, 38208, Note_on_c, 1, 42, 92
6, 38368, Note_on_c, 1, 42, 0
6, 38400, Note_on_c, 1, 43, 92
6, 39120, Note_on_c, 1, 43, 0
6, 39168, Note_on_c, 1, 58, 92
6, 39328, Note_on_c, 1, 58, 0
6, 39360, Note_on_c, 1, 60, 92
6, 40288, Note_on_c, 1, 60, 0
6, 40320, Note_on_c, 1, 31, 92
6, 40480, Note_on_c, 1, 31, 0
6, 40512, Note_on_c, 1, 43, 92
6, 40606, Note_on_c, 1, 43, 0
6, 40608, Note_on_c, 1, 41, 92
6, 40702, Note_on_c, 1, 41, 0
6, 40704, Note_on_c, 1, 43, 92
6, 40864, Note_on_c, 1, 43, 0
6, 40896, Note_on_c, 1, 31, 92
6, 41056, Note_on_c, 1, 31, 0
6, 41088, Note_on_c, 1, 38, 92
6, 41182, Note_on_c, 1, 38, 0
6, 41184, Note_on_c, 1, 36, 92
6, 41278, Note_on_c, 1, 36, 0
6, 41280, Note_on_c, 1, 34, 92
6, 41374, Note_on_c, 1, 34, 0
6, 41376, Note_on_c, 1, 33, 92
6, 41470, Note_on_c, 1, 33, 0
6, 41472, Note_on_c, 1, 36, 92
6, 41566, Note_on_c, 1, 36, 0
6, 41568, Note_on_c, 1, 33, 92
6, 41662, Note_on_c, 1, 33, 0
6, 41664, Note_on_c, 1, 31, 92
6, 42384, Note_on_c, 1, 31, 0
6, 42432, Note_on_c, 1, 46, 92
6, 42592, Note_on_c, 1, 46, 0
6, 42624, Note_on_c, 1, 48, 92
6, 42960, Note_on_c, 1, 48, 0
6, 43008, Note_on_c, 1, 36, 92
6, 43168, Note_on_c, 1, 36, 0
6, 43200, Note_on_c, 1, 38, 92
6, 45072, Note_on_c, 1, 38, 0
6, 45504, Note_on_c, 1, 47, 92
6, 45664, Note_on_c, 1, 47, 0
6, 45696, Note_on_c, 1, 45, 92
6, 45856, Note_on_c, 1, 45, 0
6, 45888, Note_on_c, 1, 43, 92
6, 46048, Note_on_c, 1, 43, 0
6, 46080, Note_on_c, 1, 36, 92
6, 46240, Note_on_c, 1, 36, 0
6, 46272, Note_on_c, 1, 35, 92
6, 46432, Note_on_c, 1, 35, 0
6, 46464, Note_on_c, 1, 36, 92
6, 46624, Note_on_c, 1, 36, 0
6, 46656, Note_on_c, 1, 36, 92
6, 46816, Note_on_c, 1, 36, 0
6, 46848, Note_on_c, 1, 36, 92
6, 46942, Note_on_c, 1, 36, 0
6, 46944, Note_on_c, 1, 38, 92
6, 47038, Note_on_c, 1, 38, 0
6, 47040, Note_on_c, 1, 40, 92
6, 47134, Note_on_c, 1, 40, 0
6, 47136, Note_on_c, 1, 41, 92
6, 47230, Note_on_c, 1, 41, 0
6, 47232, Note_on_c, 1, 43, 92
6, 47392, Note_on_c, 1, 43, 0
6, 47424, Note_on_c, 1, 31, 92
6, 47584, Note_on_c, 1, 31, 0
6, 47616, Note_on_c, 1, 29, 92
6, 47776, Note_on_c, 1, 29, 0
6, 47808, Note_on_c, 1, 31, 92
6, 47968, Note_on_c, 1, 31, 0
6, 48000, Note_on_c, 1, 33, 92
6, 48160, Note_on_c, 1, 33, 0
6, 48192, Note_on_c, 1, 41, 92
6, 48352, Note_on_c, 1, 41, 0
6, 48384, Note_on_c, 1, 39, 92
6, 48544, Note_on_c, 1, 39, 0
6, 48576, Note_on_c, 1, 38, 92
6, 48832, Note_on_c, 1, 38, 0
6, 48864, Note_on_c, 1, 40, 92
6, 48958, Note_on_c, 1, 40, 0
6, 48960, Note_on_c, 1, 42, 92
6, 49120, Note_on_c, 1, 42, 0
6, 49152, Note_on_c, 1, 43, 92
6, 49872, Note_on_c, 1, 43, 0
6, 49920, Note_on_c, 1, 58, 92
6, 50080, Note_on_c, 1, 58, 0
6, 50112, Note_on_c, 1, 60, 92
6, 51040, Note_on_c, 1, 60, 0
6, 51072, Note_on_c, 1, 31, 92
6, 51232, Note_on_c, 1, 31, 0
6, 51264, Note_on_c, 1, 43, 92
6, 51358, Note_on_c, 1, 43, 0
6, 51360, Note_on_c, 1, 41, 92
6, 51454, Note_on_c, 1, 41, 0
6, 51456, Note_on_c, 1, 43, 92
6, 51616, Note_on_c, 1, 43, 0
6, 51648, Note_on_c, 1, 31, 92
6, 51808, Note_on_c, 1, 31, 0
6, 51840, Note_on_c, 1, 38, 92
6, 51934, Note_on_c, 1, 38, 0
6, 51936, Note_on_c, 1, 36, 92
6, 52030, Note_on_c, 1, 36, 0
6, 52032, Note_on_c, 1, 34, 92
6, 52126, Note_on_c, 1, 34, 0
6, 52128, Note_on_c, 1, 33, 92
6, 52222, Note_on_c, 1, 33, 0
6, 52224, Note_on_c, 1, 36, 92
6, 52318, Note_on_c, 1, 36, 0
6, 52320, Note_on_c, 1, 33, 92
6, 52414, Note_on_c, 1, 33, 0
6, 52416, Note_on_c, 1, 31, 92
6, 52576, Note_on_c, 1, 31, 0
6, 52608, Note_on_c, 1, 43, 92
6, 52702, Note_on_c, 1, 43, 0
6, 52704, Note_on_c, 1, 41, 92
6, 52798, Note_on_c, 1, 41, 0
6, 52800, Note_on_c, 1, 43, 92
6, 52960, Note_on_c, 1, 43, 0
6, 52992, Note_on_c, 1, 31, 92
6, 53152, Note_on_c, 1, 31, 0
6, 53184, Note_on_c, 1, 36, 92
6, 53278, Note_on_c, 1, 36, 0
6, 53280, Note_on_c, 1, 38, 92
6, 53374, Note_on_c, 1, 38, 0
6, 53376, Note_on_c, 1, 41, 92
6, 53536, Note_on_c, 1, 41, 0
6, 53568, Note_on_c, 1, 31, 92
6, 53728, Note_on_c, 1, 31, 0
6, 53760, Note_on_c, 1, 43, 92
6, 53854, Note_on_c, 1, 43, 0
6, 53856, Note_on_c, 1, 41, 92
6, 54016, Note_on_c, 1, 41, 0
6, 54048, Note_on_c, 1, 43, 92
6, 54142, Note_on_c, 1, 43, 0
6, 54144, Note_on_c, 1, 31, 92
6, 54304, Note_on_c, 1, 31, 0
6, 54336, Note_on_c, 1, 38, 92
6, 54430, Note_on_c, 1, 38, 0
6, 54432, Note_on_c, 1, 36, 92
6, 54526, Note_on_c, 1, 36, 0
6, 54528, Note_on_c, 1, 34, 92
6, 54622, Note_on_c, 1, 34, 0
6, 54624, Note_on_c, 1, 33, 92
6, 54718, Note_on_c, 1, 33, 0
6, 54720, Note_on_c, 1, 36, 92
6, 54814, Note_on_c, 1, 36, 0
6, 54816, Note_on_c, 1, 33, 92
6, 54910, Note_on_c, 1, 33, 0
6, 54912, Note_on_c, 1, 31, 92
6, 55072, Note_on_c, 1, 31, 0
6, 55104, Note_on_c, 1, 43, 92
6, 55198, Note_on_c, 1, 43, 0
6, 55200, Note_on_c, 1, 41, 92
6, 55360, Note_on_c, 1, 41, 0
6, 55392, Note_on_c, 1, 43, 92
6, 55486, Note_on_c, 1, 43, 0
6, 55488, Note_on_c, 1, 31, 92
6, 55648, Note_on_c, 1, 31, 0
6, 55680, Note_on_c, 1, 36, 92
6, 55774, Note_on_c, 1, 36, 0
6, 55776, Note_on_c, 1, 38, 92
6, 55870, Note_on_c, 1, 38, 0
6, 55872, Note_on_c, 1, 41, 92
6, 56032, Note_on_c, 1, 41, 0
6, 56064, Note_on_c, 1, 31, 92
6, 56224, Note_on_c, 1, 31, 0
6, 56256, Note_on_c, 1, 43, 92
6, 56350, Note_on_c, 1, 43, 0
6, 56352, Note_on_c, 1, 41, 92
6, 56512, Note_on_c, 1, 41, 0
6, 56544, Note_on_c, 1, 43, 92
6, 56638, Note_on_c, 1, 43, 0
6, 56640, Note_on_c, 1, 31, 92
6, 56800, Note_on_c, 1, 31, 0
6, 56832, Note_on_c, 1, 38, 92
6, 56926, Note_on_c, 1, 38, 0
6, 56928, Note_on_c, 1, 36, 92
6, 57022, Note_on_c, 1, 36, 0
6, 57024, Note_on_c, 1, 34, 92
6, 57118, Note_on_c, 1, 34, 0
6, 57120, Note_on_c, 1, 33, 92
6, 57214, Note_on_c, 1, 33, 0
6, 57216, Note_on_c, 1, 36, 92
6, 57310, Note_on_c, 1, 36, 0
6, 57312, Note_on_c, 1, 33, 92
6, 57406, Note_on_c, 1, 33, 0
6, 57408, Note_on_c, 1, 31, 92
6, 57568, Note_on_c, 1, 31, 0
6, 57600, Note_on_c, 1, 43, 92
6, 57694, Note_on_c, 1, 43, 0
6, 57696, Note_on_c, 1, 41, 92
6, 57856, Note_on_c, 1, 41, 0
6, 57888, Note_on_c, 1, 43, 92
6, 57982, Note_on_c, 1, 43, 0
6, 57984, Note_on_c, 1, 31, 92
6, 58144, Note_on_c, 1, 31, 0
6, 58176, Note_on_c, 1, 36, 92
6, 58270, Note_on_c, 1, 36, 0
6, 58272, Note_on_c, 1, 38, 92
6, 58366, Note_on_c, 1, 38, 0
6, 58368, Note_on_c, 1, 41, 92
6, 58528, Note_on_c, 1, 41, 0
6, 58560, Note_on_c, 1, 31, 92
6, 58720, Note_on_c, 1, 31, 0
6, 58752, Note_on_c, 1, 43, 92
6, 58846, Note_on_c, 1, 43, 0
6, 58848, Note_on_c, 1, 41, 92
6, 59008, Note_on_c, 1, 41, 0
6, 59040, Note_on_c, 1, 43, 92
6, 59134, Note_on_c, 1, 43, 0
6, 59136, Note_on_c, 1, 31, 92
6, 59296, Note_on_c, 1, 31, 0
6, 59328, Note_on_c, 1, 38, 92
6, 59422, Note_on_c, 1, 38, 0
6, 59424, Note_on_c, 1, 36, 92
6, 59518, Note_on_c, 1, 36, 0
6, 59520, Note_on_c, 1, 34, 92
6, 59614, Note_on_c, 1, 34, 0
6, 59616, Note_on_c, 1, 33, 92
6, 59710, Note_on_c, 1, 33, 0
6, 59712, Note_on_c, 1, 36, 92
6, 59806, Note_on_c, 1, 36, 0
6, 59808, Note_on_c, 1, 33, 92
6, 59902, Note_on_c, 1, 33, 0
6, 59904, Note_on_c, 1, 31, 92
6, 61200, Note_on_c, 1, 31, 0
6, 103488, Note_on_c, 1, 39, 92
6, 103488, Note_on_c, 1, 46, 92
6, 104016, Note_on_c, 1, 39, 0
6, 104016, Note_on_c, 1, 46, 0
6, 104064, Note_on_c, 1, 39, 92
6, 104064, Note_on_c, 1, 46, 92
6, 104416, Note_on_c, 1, 39, 0
6, 104416, Note_on_c, 1, 46, 0
6, 104448, Note_on_c, 1, 39, 92
6, 104448, Note_on_c, 1, 46, 92
6, 104608, Note_on_c, 1, 39, 0
6, 104608, Note_on_c, 1, 46, 0
6, 104640, Note_on_c, 1, 37, 92
6, 104640, Note_on_c, 1, 44, 92
6, 104976, Note_on_c, 1, 37, 0
6, 104976, Note_on_c, 1, 44, 0
6, 105024, Note_on_c, 1, 39, 92
6, 105024, Note_on_c, 1, 46, 92
6, 105552, Note_on_c, 1, 39, 0
6, 105552, Note_on_c, 1, 46, 0
6, 105600, Note_on_c, 1, 39, 92
6, 105600, Note_on_c, 1, 46, 92
6, 105952, Note_on_c, 1, 39, 0
6, 105952, Note_on_c, 1, 46, 0
6, 105984, Note_on_c, 1, 39, 92
6, 105984, Note_on_c, 1, 46, 92
6, 106144, Note_on_c, 1, 39, 0
6, 106144, Note_on_c, 1, 46, 0
6, 106176, Note_on_c, 1, 37, 92
6, 106176, Note_on_c, 1, 44, 92
6, 106512, Note_on_c, 1, 37, 0
6, 106512, Note_on_c, 1, 44, 0
6, 106560, Note_on_c, 1, 39, 92
6, 107088, Note_on_c, 1, 39, 0
6, 110784, Note_on_c, 1, 43, 92
6, 110784, Note_on_c, 1, 48, 92
6, 111312, Note_on_c, 1, 43, 0
6, 111312, Note_on_c, 1, 48, 0
6, 111360, Note_on_c, 1, 43, 92
6, 111360, Note_on_c, 1, 48, 92
6, 111712, Note_on_c, 1, 43, 0
6, 111712, Note_on_c, 1, 48, 0
6, 111744, Note_on_c, 1, 43, 92
6, 111744, Note_on_c, 1, 48, 92
6, 111904, Note_on_c, 1, 43, 0
6, 111904, Note_on_c, 1, 48, 0
6, 111936, Note_on_c, 1, 41, 92
6, 111936, Note_on_c, 1, 46, 92
6, 112272, Note_on_c, 1, 41, 0
6, 112272, Note_on_c, 1, 46, 0
6, 112320, Note_on_c, 1, 43, 92
6, 112320, Note_on_c, 1, 48, 92
6, 112848, Note_on_c, 1, 43, 0
6, 112848, Note_on_c, 1, 48, 0
6, 112896, Note_on_c, 1, 43, 92
6, 112896, Note_on_c, 1, 48, 92
6, 113248, Note_on_c, 1, 43, 0
6, 113248, Note_on_c, 1, 48, 0
6, 113280, Note_on_c, 1, 43, 92
6, 113280, Note_on_c, 1, 48, 92
6, 113440, Note_on_c, 1, 43, 0
6, 113440, Note_on_c, 1, 48, 0
6, 113472, Note_on_c, 1, 41, 92
6, 113472, Note_on_c, 1, 46, 92
6, 113808, Note_on_c, 1, 41, 0
6, 113808, Note_on_c, 1, 46, 0
6, 113856, Note_on_c, 1, 43, 92
6, 113856, Note_on_c, 1, 48, 92
6, 114384, Note_on_c, 1, 43, 0
6, 114384, Note_on_c, 1, 48, 0
6, 114432, Note_on_c, 1, 43, 92
6, 114432, Note_on_c, 1, 48, 92
6, 114784, Note_on_c, 1, 43, 0
6, 114784, Note_on_c, 1, 48, 0
6, 114816, Note_on_c, 1, 43, 92
6, 114816, Note_on_c, 1, 48, 92
6, 114976, Note_on_c, 1, 43, 0
6, 114976, Note_on_c, 1, 48, 0
6, 115008, Note_on_c, 1, 41, 92
6, 115008, Note_on_c, 1, 46, 92
6, 115344, Note_on_c, 1, 41, 0
6, 115344, Note_on_c, 1, 46, 0
6, 115392, Note_on_c, 1, 43, 92
6, 115392, Note_on_c, 1, 48, 92
6, 115920, Note_on_c, 1, 43, 0
6, 115920, Note_on_c, 1, 48, 0
6, 115968, Note_on_c, 1, 43, 92
6, 115968, Note_on_c, 1, 48, 92
6, 116320, Note_on_c, 1, 43, 0
6, 116320, Note_on_c, 1, 48, 0
6, 116352, Note_on_c, 1, 43, 92
6, 116352, Note_on_c, 1, 48, 92
6, 116512, Note_on_c, 1, 43, 0
6, 116512, Note_on_c, 1, 48, 0
6, 116544, Note_on_c, 1, 41, 92
6, 116544, Note_on_c, 1, 46, 92
6, 116880, Note_on_c, 1, 41, 0
6, 116880, Note_on_c, 1, 46, 0
6, 116928, Note_on_c, 1, 43, 92
6, 116928, Note_on_c, 1, 48, 92
6, 117264, Note_on_c, 1, 43, 0
6, 117264, Note_on_c, 1, 48, 0
6, 117312, Note_on_c, 1, 43, 92
6, 117312, Note_on_c, 1, 48, 92
6, 117472, Note_on_c, 1, 43, 0
6, 117472, Note_on_c, 1, 48, 0
6, 117504, Note_on_c, 1, 41, 92
6, 117504, Note_on_c, 1, 46, 92
6, 117664, Note_on_c, 1, 41, 0
6, 117664, Note_on_c, 1, 46, 0
6, 117696, Note_on_c, 1, 41, 92
6, 117696, Note_on_c, 1, 46, 92
6, 117856, Note_on_c, 1, 41, 0
6, 117856, Note_on_c, 1, 46, 0
6, 117888, Note_on_c, 1, 43, 92
6, 117888, Note_on_c, 1, 48, 92
6, 118224, Note_on_c, 1, 43, 0
6, 118224, Note_on_c, 1, 48, 0
6, 118272, Note_on_c, 1, 43, 92
6, 118272, Note_on_c, 1, 48, 92
6, 118432, Note_on_c, 1, 43, 0
6, 118432, Note_on_c, 1, 48, 0
6, 118464, Note_on_c, 1, 41, 92
6, 118464, Note_on_c, 1, 46, 92
6, 118624, Note_on_c, 1, 41, 0
6, 118624, Note_on_c, 1, 46, 0
6, 118656, Note_on_c, 1, 41, 92
6, 118656, Note_on_c, 1, 46, 92
6, 118816, Note_on_c, 1, 41, 0
6, 118816, Note_on_c, 1, 46, 0
6, 118848, Note_on_c, 1, 43, 92
6, 118848, Note_on_c, 1, 48, 92
6, 119184, Note_on_c, 1, 43, 0
6, 119184, Note_on_c, 1, 48, 0
6, 119232, Note_on_c, 1, 43, 92
6, 119232, Note_on_c, 1, 48, 92
6, 119392, Note_on_c, 1, 43, 0
6, 119392, Note_on_c, 1, 48, 0
6, 119424, Note_on_c, 1, 41, 92
6, 119424, Note_on_c, 1, 46, 92
6, 119584, Note_on_c, 1, 41, 0
6, 119584, Note_on_c, 1, 46, 0
6, 119616, Note_on_c, 1, 41, 92
6, 119616, Note_on_c, 1, 46, 92
6, 119776, Note_on_c, 1, 41, 0
6, 119776, Note_on_c, 1, 46, 0
6, 119808, Note_on_c, 1, 43, 92
6, 119808, Note_on_c, 1, 48, 92
6, 120144, Note_on_c, 1, 43, 0
6, 120144, Note_on_c, 1, 48, 0
6, 120192, Note_on_c, 1, 43, 92
6, 120192, Note_on_c, 1, 48, 92
6, 120352, Note_on_c, 1, 43, 0
6, 120352, Note_on_c, 1, 48, 0
6, 120384, Note_on_c, 1, 41, 92
6, 120384, Note_on_c, 1, 46, 92
6, 120544, Note_on_c, 1, 41, 0
6, 120544, Note_on_c, 1, 46, 0
6, 120576, Note_on_c, 1, 43, 92
6, 120576, Note_on_c, 1, 48, 92
6, 120736, Note_on_c, 1, 43, 0
6, 120736, Note_on_c, 1, 48, 0
6, 120768, Note_on_c, 1, 45, 92
6, 120768, Note_on_c, 1, 50, 92
6, 121296, Note_on_c, 1, 45, 0
6, 121296, Note_on_c, 1, 50, 0
6, 121344, Note_on_c, 1, 45, 92
6, 121344, Note_on_c, 1, 50, 92
6, 121696, Note_on_c, 1, 45, 0
6, 121696, Note_on_c, 1, 50, 0
6, 121728, Note_on_c, 1, 45, 92
6, 121728, Note_on_c, 1, 50, 92
6, 121888, Note_on_c, 1, 45, 0
6, 121888, Note_on_c, 1, 50, 0
6, 121920, Note_on_c, 1, 43, 92
6, 121920, Note_on_c, 1, 48, 92
6, 122080, Note_on_c, 1, 43, 0
6, 122080, Note_on_c, 1, 48, 0
6, 122112, Note_on_c, 1, 43, 92
6, 122112, Note_on_c, 1, 48, 92
6, 122272, Note_on_c, 1, 43, 0
6, 122272, Note_on_c, 1, 48, 0
6, 122304, Note_on_c, 1, 45, 92
6, 122304, Note_on_c, 1, 50, 92
6, 122832, Note_on_c, 1, 45, 0
6, 122832, Note_on_c, 1, 50, 0
6, 122880, Note_on_c, 1, 45, 92
6, 122880, Note_on_c, 1, 50, 92
6, 123232, Note_on_c, 1, 45, 0
6, 123232, Note_on_c, 1, 50, 0
6, 123264, Note_on_c, 1, 45, 92
6, 123264, Note_on_c, 1, 50, 92
6, 123424, Note_on_c, 1, 45, 0
6, 123424, Note_on_c, 1, 50, 0
6, 123456, Note_on_c, 1, 43, 92
6, 123456, Note_on_c, 1, 48, 92
6, 123616, Note_on_c, 1, 43, 0
6, 123616, Note_on_c, 1, 48, 0
6, 123648, Note_on_c, 1, 43, 92
6, 123648, Note_on_c, 1, 48, 92
6, 123808, Note_on_c, 1, 43, 0
6, 123808, Note_on_c, 1, 48, 0
6, 123840, Note_on_c, 1, 45, 92
6, 123840, Note_on_c, 1, 50, 92
6, 124368, Note_on_c, 1, 45, 0
6, 124368, Note_on_c, 1, 50, 0
6, 124416, Note_on_c, 1, 45, 92
6, 124416, Note_on_c, 1, 50, 92
6, 124768, Note_on_c, 1, 45, 0
6, 124768, Note_on_c, 1, 50, 0
6, 124800, Note_on_c, 1, 45, 92
6, 124800, Note_on_c, 1, 50, 92
6, 124960, Note_on_c, 1, 45, 0
6, 124960, Note_on_c, 1, 50, 0
6, 124992, Note_on_c, 1, 43, 92
6, 124992, Note_on_c, 1, 48, 92
6, 125152, Note_on_c, 1, 43, 0
6, 125152, Note_on_c, 1, 48, 0
6, 125184, Note_on_c, 1, 43, 92
6, 125184, Note_on_c, 1, 48, 92
6, 125344, Note_on_c, 1, 43, 0
6, 125344, Note_on_c, 1, 48, 0
6, 125376, Note_on_c, 1, 45, 92
6, 125376, Note_on_c, 1, 50, 92
6, 125904, Note_on_c, 1, 45, 0
6, 125904, Note_on_c, 1, 50, 0
6, 125952, Note_on_c, 1, 45, 92
6, 125952, Note_on_c, 1, 50, 92
6, 126304, Note_on_c, 1, 45, 0
6, 126304, Note_on_c, 1, 50, 0
6, 126336, Note_on_c, 1, 45, 92
6, 126336, Note_on_c, 1, 50, 92
6, 126496, Note_on_c, 1, 45, 0
6, 126496, Note_on_c, 1, 50, 0
6, 126528, Note_on_c, 1, 43, 92
6, 126528, Note_on_c, 1, 48, 92
6, 126688, Note_on_c, 1, 43, 0
6, 126688, Note_on_c, 1, 48, 0
6, 126720, Note_on_c, 1, 43, 92
6, 126720, Note_on_c, 1, 48, 92
6, 126880, Note_on_c, 1, 43, 0
6, 126880, Note_on_c, 1, 48, 0
6, 126912, Note_on_c, 1, 50, 92
6, 127168, Note_on_c, 1, 50, 0
6, 127200, Note_on_c, 1, 48, 92
6, 127294, Note_on_c, 1, 48, 0
6, 127296, Note_on_c, 1, 50, 92
6, 127456, Note_on_c, 1, 50, 0
6, 127488, Note_on_c, 1, 46, 92
6, 127648, Note_on_c, 1, 46, 0
6, 127680, Note_on_c, 1, 45, 92
6, 127840, Note_on_c, 1, 45, 0
6, 127872, Note_on_c, 1, 43, 92
6, 128032, Note_on_c, 1, 43, 0
6, 128064, Note_on_c, 1, 42, 92
6, 128224, Note_on_c, 1, 42, 0
6, 128256, Note_on_c, 1, 43, 92
6, 128416, Note_on_c, 1, 43, 0
6, 128448, Note_on_c, 1, 45, 92
6, 128608, Note_on_c, 1, 45, 0
6, 128640, Note_on_c, 1, 46, 92
6, 128800, Note_on_c, 1, 46, 0
6, 128832, Note_on_c, 1, 45, 92
6, 128992, Note_on_c, 1, 45, 0
6, 129024, Note_on_c, 1, 43, 92
6, 129184, Note_on_c, 1, 43, 0
6, 129216, Note_on_c, 1, 48, 92
6, 129472, Note_on_c, 1, 48, 0
6, 129504, Note_on_c, 1, 46, 92
6, 129598, Note_on_c, 1, 46, 0
6, 129600, Note_on_c, 1, 48, 92
6, 129760, Note_on_c, 1, 48, 0
6, 129792, Note_on_c, 1, 44, 92
6, 129952, Note_on_c, 1, 44, 0
6, 129984, Note_on_c, 1, 43, 92
6, 130144, Note_on_c, 1, 43, 0
6, 130176, Note_on_c, 1, 41, 92
6, 130336, Note_on_c, 1, 41, 0
6, 130368, Note_on_c, 1, 40, 92
6, 130528, Note_on_c, 1, 40, 0
6, 130560, Note_on_c, 1, 41, 92
6, 130720, Note_on_c, 1, 41, 0
6, 130752, Note_on_c, 1, 43, 92
6, 130912, Note_on_c, 1, 43, 0
6, 130944, Note_on_c, 1, 44, 92
6, 131104, Note_on_c, 1, 44, 0
6, 131136, Note_on_c, 1, 43, 92
6, 131296, Note_on_c, 1, 43, 0
6, 131328, Note_on_c, 1, 41, 92
6, 131488, Note_on_c, 1, 41, 0
6, 131520, Note_on_c, 1, 46, 92
6, 131776, Note_on_c, 1, 46, 0
6, 131808, Note_on_c, 1, 44, 92
6, 131902, Note_on_c, 1, 44, 0
6, 131904, Note_on_c, 1, 46, 92
6, 132064, Note_on_c, 1, 46, 0
6, 132096, Note_on_c, 1, 43, 92
6, 132256, Note_on_c, 1, 43, 0
6, 132288, Note_on_c, 1, 41, 92
6, 132448, Note_on_c, 1, 41, 0
6, 132480, Note_on_c, 1, 39, 92
6, 132640, Note_on_c, 1, 39, 0
6, 132672, Note_on_c, 1, 38, 92
6, 132832, Note_on_c, 1, 38, 0
6, 132864, Note_on_c, 1, 39, 92
6, 133024, Note_on_c, 1, 39, 0
6, 133056, Note_on_c, 1, 41, 92
6, 133216, Note_on_c, 1, 41, 0
6, 133248, Note_on_c, 1, 43, 92
6, 133408, Note_on_c, 1, 43, 0
6, 133440, Note_on_c, 1, 44, 92
6, 133600, Note_on_c, 1, 44, 0
6, 133632, Note_on_c, 1, 46, 92
6, 133792, Note_on_c, 1, 46, 0
6, 133824, Note_on_c, 1, 43, 92
6, 133984, Note_on_c, 1, 43, 0
6, 134016, Note_on_c, 1, 44, 92
6, 134176, Note_on_c, 1, 44, 0
6, 134208, Note_on_c, 1, 46, 92
6, 134368, Note_on_c, 1, 46, 0
6, 134400, Note_on_c, 1, 45, 92
6, 134560, Note_on_c, 1, 45, 0
6, 134592, Note_on_c, 1, 46, 92
6, 134752, Note_on_c, 1, 46, 0
6, 134784, Note_on_c, 1, 48, 92
6, 134944, Note_on_c, 1, 48, 0
6, 134976, Note_on_c, 1, 45, 92
6, 135136, Note_on_c, 1, 45, 0
6, 135168, Note_on_c, 1, 46, 92
6, 135328, Note_on_c, 1, 46, 0
6, 135360, Note_on_c, 1, 48, 92
6, 135520, Note_on_c, 1, 48, 0
6, 135552, Note_on_c, 1, 45, 92
6, 135712, Note_on_c, 1, 45, 0
6, 135744, Note_on_c, 1, 46, 92
6, 135904, Note_on_c, 1, 46, 0
6, 135936, Note_on_c, 1, 48, 92
6, 136096, Note_on_c, 1, 48, 0
6, 140352, Note_on_c, 1, 43, 92
6, 140880, Note_on_c, 1, 43, 0
6, 140928, Note_on_c, 1, 43, 92
6, 141456, Note_on_c, 1, 43, 0
6, 141504, Note_on_c, 1, 41, 92
6, 141840, Note_on_c, 1, 41, 0
6, 141888, Note_on_c, 1, 39, 92
6, 142416, Note_on_c, 1, 39, 0
6, 142464, Note_on_c, 1, 39, 92
6, 142992, Note_on_c, 1, 39, 0
6, 143040, Note_on_c, 1, 37, 92
6, 143376, Note_on_c, 1, 37, 0
6, 143424, Note_on_c, 1, 46, 92
6, 143760, Note_on_c, 1, 46, 0
6, 143808, Note_on_c, 1, 46, 92
6, 143968, Note_on_c, 1, 46, 0
6, 144000, Note_on_c, 1, 46, 92
6, 144352, Note_on_c, 1, 46, 0
6, 144384, Note_on_c, 1, 46, 92
6, 144544, Note_on_c, 1, 46, 0
6, 144576, Note_on_c, 1, 44, 92
6, 144912, Note_on_c, 1, 44, 0
6, 144960, Note_on_c, 1, 46, 127
6, 145120, Note_on_c, 1, 46, 0
6, 145152, Note_on_c, 1, 46, 92
6, 145312, Note_on_c, 1, 46, 0
6, 145344, Note_on_c, 1, 46, 92
6, 145504, Note_on_c, 1, 46, 0
6, 145536, Note_on_c, 1, 46, 127
6, 145696, Note_on_c, 1, 46, 0
6, 145728, Note_on_c, 1, 46, 92
6, 145888, Note_on_c, 1, 46, 0
6, 145920, Note_on_c, 1, 46, 92
6, 146080, Note_on_c, 1, 46, 0
6, 146112, Note_on_c, 1, 44, 92
6, 146272, Note_on_c, 1, 44, 0
6, 146304, Note_on_c, 1, 44, 92
6, 146464, Note_on_c, 1, 44, 0
6, 148032, Note_on_c, 1, 46, 92
6, 148192, Note_on_c, 1, 46, 0
6, 148224, Note_on_c, 1, 46, 92
6, 148384, Note_on_c, 1, 46, 0
6, 148416, Note_on_c, 1, 46, 92
6, 148576, Note_on_c, 1, 46, 0
6, 148608, Note_on_c, 1, 46, 127
6, 148768, Note_on_c, 1, 46, 0
6, 148800, Note_on_c, 1, 46, 92
6, 148960, Note_on_c, 1, 46, 0
6, 148992, Note_on_c, 1, 46, 92
6, 149152, Note_on_c, 1, 46, 0
6, 149184, Note_on_c, 1, 44, 92
6, 149344, Note_on_c, 1, 44, 0
6, 149376, Note_on_c, 1, 44, 92
6, 149536, Note_on_c, 1, 44, 0
6, 179904, Note_on_c, 1, 31, 92
6, 180432, Note_on_c, 1, 31, 0
6, 180480, Note_on_c, 1, 31, 92
6, 180640, Note_on_c, 1, 31, 0
6, 180672, Note_on_c, 1, 33, 92
6, 181200, Note_on_c, 1, 33, 0
6, 181248, Note_on_c, 1, 33, 92
6, 181408, Note_on_c, 1, 33, 0
6, 181440, Note_on_c, 1, 34, 92
6, 181968, Note_on_c, 1, 34, 0
6, 182016, Note_on_c, 1, 36, 92
6, 182176, Note_on_c, 1, 36, 0
6, 182208, Note_on_c, 1, 38, 92
6, 182368, Note_on_c, 1, 38, 0
6, 182400, Note_on_c, 1, 42, 92
6, 182560, Note_on_c, 1, 42, 0
6, 182592, Note_on_c, 1, 31, 92
6, 183312, Note_on_c, 1, 31, 0
6, 183360, Note_on_c, 1, 46, 92
6, 183520, Note_on_c, 1, 46, 0
6, 183552, Note_on_c, 1, 48, 92
6, 183888, Note_on_c, 1, 48, 0
6, 183936, Note_on_c, 1, 36, 92
6, 184096, Note_on_c, 1, 36, 0
6, 184128, Note_on_c, 1, 38, 92
6, 186000, Note_on_c, 1, 38, 0
6, 186432, Note_on_c, 1, 47, 92
6, 186592, Note_on_c, 1, 47, 0
6, 186624, Note_on_c, 1, 45, 92
6, 186784, Note_on_c, 1, 45, 0
6, 186816, Note_on_c, 1, 43, 92
6, 186976, Note_on_c, 1, 43, 0
6, 187008, Note_on_c, 1, 36, 92
6, 187168, Note_on_c, 1, 36, 0
6, 187200, Note_on_c, 1, 35, 92
6, 187360, Note_on_c, 1, 35, 0
6, 187392, Note_on_c, 1, 36, 92
6, 187552, Note_on_c, 1, 36, 0
6, 187584, Note_on_c, 1, 36, 92
6, 187744, Note_on_c, 1, 36, 0
6, 187776, Note_on_c, 1, 36, 92
6, 187870, Note_on_c, 1, 36, 0
6, 187872, Note_on_c, 1, 38, 92
6, 187966, Note_on_c, 1, 38, 0
6, 187968, Note_on_c, 1, 40, 92
6, 188062, Note_on_c, 1, 40, 0
6, 188064, Note_on_c, 1, 41, 92
6, 188158, Note_on_c, 1, 41, 0
6, 188160, Note_on_c, 1, 43, 92
6, 188320, Note_on_c, 1, 43, 0
6, 188352, Note_on_c, 1, 31, 92
6, 188512, Note_on_c, 1, 31, 0
6, 188544, Note_on_c, 1, 29, 92
6, 188704, Note_on_c, 1, 29, 0
6, 188736, Note_on_c, 1, 31, 92
6, 188896, Note_on_c, 1, 31, 0
6, 188928, Note_on_c, 1, 33, 92
6, 189088, Note_on_c, 1, 33, 0
6, 189120, Note_on_c, 1, 41, 92
6, 189280, Note_on_c, 1, 41, 0
6, 189312, Note_on_c, 1, 39, 92
6, 189472, Note_on_c, 1, 39, 0
6, 189504, Note_on_c, 1, 38, 92
6, 189760, Note_on_c, 1, 38, 0
6, 189792, Note_on_c, 1, 40, 92
6, 189886, Note_on_c, 1, 40, 0
6, 189888, Note_on_c, 1, 42, 92
6, 190048, Note_on_c, 1, 42, 0
6, 190080, Note_on_c, 1, 43, 92
6, 190800, Note_on_c, 1, 43, 0
6, 190848, Note_on_c, 1, 58, 92
6, 191008, Note_on_c, 1, 58, 0
6, 191040, Note_on_c, 1, 60, 92
6, 191968, Note_on_c, 1, 60, 0
6, 192000, Note_on_c, 1, 31, 92
6, 192160, Note_on_c, 1, 31, 0
6, 192192, Note_on_c, 1, 43, 92
6, 192286, Note_on_c, 1, 43, 0
6, 192288, Note_on_c, 1, 41, 92
6, 192382, Note_on_c, 1, 41, 0
6, 192384, Note_on_c, 1, 43, 92
6, 192544, Note_on_c, 1, 43, 0
6, 192576, Note_on_c, 1, 31, 92
6, 192736, Note_on_c, 1, 31, 0
6, 192768, Note_on_c, 1, 38, 92
6, 192862, Note_on_c, 1, 38, 0
6, 192864, Note_on_c, 1, 36, 92
6, 192958, Note_on_c, 1, 36, 0
6, 192960, Note_on_c, 1, 34, 92
6, 193054, Note_on_c, 1, 34, 0
6, 193056, Note_on_c, 1, 33, 92
6, 193150, Note_on_c, 1, 33, 0
6, 193152, Note_on_c, 1, 36, 92
6, 193246, Note_on_c, 1, 36, 0
6, 193248, Note_on_c, 1, 33, 92
6, 193342, Note_on_c, 1, 33, 0
6, 193344, Note_on_c, 1, 31, 92
6, 194064, Note_on_c, 1, 31, 0
6, 194112, Note_on_c, 1, 46, 92
6, 194272, Note_on_c, 1, 46, 0
6, 194304, Note_on_c, 1, 48, 92
6, 194640, Note_on_c, 1, 48, 0
6, 194688, Note_on_c, 1, 36, 92
6, 194848, Note_on_c, 1, 36, 0
6, 194880, Note_on_c, 1, 38, 92
6, 195408, Note_on_c, 1, 38, 0
6, 195456, Note_on_c, 1, 43, 92
6, 195984, Note_on_c, 1, 43, 0
6, 196032, Note_on_c, 1, 38, 92
6, 196752, Note_on_c, 1, 38, 0
6, 197184, Note_on_c, 1, 31, 92
6, 197344, Note_on_c, 1, 31, 0
6, 197376, Note_on_c, 1, 33, 92
6, 197536, Note_on_c, 1, 33, 0
6, 197568, Note_on_c, 1, 35, 92
6, 197728, Note_on_c, 1, 35, 0
6, 197760, Note_on_c, 1, 36, 92
6, 197920, Note_on_c, 1, 36, 0
6, 197952, Note_on_c, 1, 35, 92
6, 198112, Note_on_c, 1, 35, 0
6, 198144, Note_on_c, 1, 36, 92
6, 198304, Note_on_c, 1, 36, 0
6, 198336, Note_on_c, 1, 36, 92
6, 198496, Note_on_c, 1, 36, 0
6, 198528, Note_on_c, 1, 36, 92
6, 198622, Note_on_c, 1, 36, 0
6, 198624, Note_on_c, 1, 38, 92
6, 198718, Note_on_c, 1, 38, 0
6, 198720, Note_on_c, 1, 40, 92
6, 198814, Note_on_c, 1, 40, 0
6, 198816, Note_on_c, 1, 41, 92
6, 198910, Note_on_c, 1, 41, 0
6, 198912, Note_on_c, 1, 43, 92
6, 199072, Note_on_c, 1, 43, 0
6, 199104, Note_on_c, 1, 31, 92
6, 199264, Note_on_c, 1, 31, 0
6, 199296, Note_on_c, 1, 29, 92
6, 199456, Note_on_c, 1, 29, 0
6, 199488, Note_on_c, 1, 31, 92
6, 199648, Note_on_c, 1, 31, 0
6, 199680, Note_on_c, 1, 33, 92
6, 199840, Note_on_c, 1, 33, 0
6, 199872, Note_on_c, 1, 41, 92
6, 200032, Note_on_c, 1, 41, 0
6, 200064, Note_on_c, 1, 39, 92
6, 200224, Note_on_c, 1, 39, 0
6, 200256, Note_on_c, 1, 38, 92
6, 200512, Note_on_c, 1, 38, 0
6, 200544, Note_on_c, 1, 40, 92
6, 200638, Note_on_c, 1, 40, 0
6, 200640, Note_on_c, 1, 42, 92
6, 200800, Note_on_c, 1, 42, 0
6, 200832, Note_on_c, 1, 43, 92
6, 201552, Note_on_c, 1, 43, 0
6, 201600, Note_on_c, 1, 58, 92
6, 201760, Note_on_c, 1, 58, 0
6, 201792, Note_on_c, 1, 60, 92
6, 202720, Note_on_c, 1, 60, 0
6, 202752, Note_on_c, 1, 31, 92
6, 202912, Note_on_c, 1, 31, 0
6, 202944, Note_on_c, 1, 43, 92
6, 203038, Note_on_c, 1, 43, 0
6, 203040, Note_on_c, 1, 41, 92
6, 203134, Note_on_c, 1, 41, 0
6, 203136, Note_on_c, 1, 43, 92
6, 203296, Note_on_c, 1, 43, 0
6, 203328, Note_on_c, 1, 31, 92
6, 203488, Note_on_c, 1, 31, 0
6, 203520, Note_on_c, 1, 38, 92
6, 203614, Note_on_c, 1, 38, 0
6, 203616, Note_on_c, 1, 36, 92
6, 203710, Note_on_c, 1, 36, 0
6, 203712, Note_on_c, 1, 34, 92
6, 203806, Note_on_c, 1, 34, 0
6, 203808, Note_on_c, 1, 33, 92
6, 203902, Note_on_c, 1, 33, 0
6, 203904, Note_on_c, 1, 36, 92
6, 203998, Note_on_c, 1, 36, 0
6, 204000, Note_on_c, 1, 33, 92
6, 204094, Note_on_c, 1, 33, 0
6, 204096, Note_on_c, 1, 31, 92
6, 204256, Note_on_c, 1, 31, 0
6, 204288, Note_on_c, 1, 43, 92
6, 204382, Note_on_c, 1, 43, 0
6, 204384, Note_on_c, 1, 41, 92
6, 204478, Note_on_c, 1, 41, 0
6, 204480, Note_on_c, 1, 43, 92
6, 204640, Note_on_c, 1, 43, 0
6, 204672, Note_on_c, 1, 31, 92
6, 204832, Note_on_c, 1, 31, 0
6, 204864, Note_on_c, 1, 36, 92
6, 204958, Note_on_c, 1, 36, 0
6, 204960, Note_on_c, 1, 38, 92
6, 205054, Note_on_c, 1, 38, 0
6, 205056, Note_on_c, 1, 41, 92
6, 205216, Note_on_c, 1, 41, 0
6, 205248, Note_on_c, 1, 31, 92
6, 205408, Note_on_c, 1, 31, 0
6, 205440, Note_on_c, 1, 43, 92
6, 205534, Note_on_c, 1, 43, 0
6, 205536, Note_on_c, 1, 41, 92
6, 205696, Note_on_c, 1, 41, 0
6, 205728, Note_on_c, 1, 43, 92
6, 205822, Note_on_c, 1, 43, 0
6, 205824, Note_on_c, 1, 31, 92
6, 205984, Note_on_c, 1, 31, 0
6, 206016, Note_on_c, 1, 38, 92
6, 206110, Note_on_c, 1, 38, 0
6, 206112, Note_on_c, 1, 36, 92
6, 206206, Note_on_c, 1, 36, 0
6, 206208, Note_on_c, 1, 34, 92
6, 206302, Note_on_c, 1, 34, 0
6, 206304, Note_on_c, 1, 33, 92
6, 206398, Note_on_c, 1, 33, 0
6, 206400, Note_on_c, 1, 36, 92
6, 206494, Note_on_c, 1, 36, 0
6, 206496, Note_on_c, 1, 33, 92
6, 206590, Note_on_c, 1, 33, 0
6, 206592, Note_on_c, 1, 31, 92
6, 206752, Note_on_c, 1, 31, 0
6, 206784, Note_on_c, 1, 43, 92
6, 206878, Note_on_c, 1, 43, 0
6, 206880, Note_on_c, 1, 41, 92
6, 207040, Note_on_c, 1, 41, 0
6, 207072, Note_on_c, 1, 43, 92
6, 207166, Note_on_c, 1, 43, 0
6, 207168, Note_on_c, 1, 31, 92
6, 207328, Note_on_c, 1, 31, 0
6, 207360, Note_on_c, 1, 36, 92
6, 207454, Note_on_c, 1, 36, 0
6, 207456, Note_on_c, 1, 38, 92
6, 207550, Note_on_c, 1, 38, 0
6, 207552, Note_on_c, 1, 41, 92
6, 207712, Note_on_c, 1, 41, 0
6, 207744, Note_on_c, 1, 31, 92
6, 207904, Note_on_c, 1, 31, 0
6, 207936, Note_on_c, 1, 43, 92
6, 208030, Note_on_c, 1, 43, 0
6, 208032, Note_on_c, 1, 41, 92
6, 208192, Note_on_c, 1, 41, 0
6, 208224, Note_on_c, 1, 43, 92
6, 208318, Note_on_c, 1, 43, 0
6, 208320, Note_on_c, 1, 31, 92
6, 208480, Note_on_c, 1, 31, 0
6, 208512, Note_on_c, 1, 38, 92
6, 208606, Note_on_c, 1, 38, 0
6, 208608, Note_on_c, 1, 36, 92
6, 208702, Note_on_c, 1, 36, 0
6, 208704, Note_on_c, 1, 34, 92
6, 208798, Note_on_c, 1, 34, 0
6, 208800, Note_on_c, 1, 33, 92
6, 208894, Note_on_c, 1, 33, 0
6, 208896, Note_on_c, 1, 36, 92
6, 208990, Note_on_c, 1, 36, 0
6, 208992, Note_on_c, 1, 33, 92
6, 209086, Note_on_c, 1, 33, 0
6, 209088, Note_on_c, 1, 31, 92
6, 209248, Note_on_c, 1, 31, 0
6, 209280, Note_on_c, 1, 43, 92
6, 209374, Note_on_c, 1, 43, 0
6, 209376, Note_on_c, 1, 41, 92
6, 209536, Note_on_c, 1, 41, 0
6, 209568, Note_on_c, 1, 43, 92
6, 209662, Note_on_c, 1, 43, 0
6, 209664, Note_on_c, 1, 31, 92
6, 209824, Note_on_c, 1, 31, 0
6, 209856, Note_on_c, 1, 36, 92
6, 209950, Note_on_c, 1, 36, 0
6, 209952, Note_on_c, 1, 38, 92
6, 210046, Note_on_c, 1, 38, 0
6, 210048, Note_on_c, 1, 41, 92
6, 210208, Note_on_c, 1, 41, 0
6, 210240, Note_on_c, 1, 31, 92
6, 210400, Note_on_c, 1, 31, 0
6, 210432, Note_on_c, 1, 43, 92
6, 210526, Note_on_c, 1, 43, 0
6, 210528, Note_on_c, 1, 41, 92
6, 210688, Note_on_c, 1, 41, 0
6, 210720, Note_on_c, 1, 43, 92
6, 210814, Note_on_c, 1, 43, 0
6, 210816, Note_on_c, 1, 31, 92
6, 210976, Note_on_c, 1, 31, 0
6, 211008, Note_on_c, 1, 38, 92
6, 211102, Note_on_c, 1, 38, 0
6, 211104, Note_on_c, 1, 36, 92
6, 211198, Note_on_c, 1, 36, 0
6, 211200, Note_on_c, 1, 34, 92
6, 211294, Note_on_c, 1, 34, 0
6, 211296, Note_on_c, 1, 33, 92
6, 211390, Note_on_c, 1, 33, 0
6, 211392, Note_on_c, 1, 36, 92
6, 211486, Note_on_c, 1, 36, 0
6, 211488, Note_on_c, 1, 33, 92
6, 211582, Note_on_c, 1, 33, 0
6, 211584, Note_on_c, 1, 31, 92
6, 211744, Note_on_c, 1, 31, 0
6, 211776, Note_on_c, 1, 43, 92
6, 211870, Note_on_c, 1, 43, 0
6, 211872, Note_on_c, 1, 41, 92
6, 212032, Note_on_c, 1, 41, 0
6, 212064, Note_on_c, 1, 43, 92
6, 212158, Note_on_c, 1, 43, 0
6, 212160, Note_on_c, 1, 31, 92
6, 212320, Note_on_c, 1, 31, 0
6, 212352, Note_on_c, 1, 36, 92
6, 212446, Note_on_c, 1, 36, 0
6, 212448, Note_on_c, 1, 38, 92
6, 212542, Note_on_c, 1, 38, 0
6, 212544, Note_on_c, 1, 41, 92
6, 212704, Note_on_c, 1, 41, 0
6, 212736, Note_on_c, 1, 31, 92
6, 212896, Note_on_c, 1, 31, 0
6, 212928, Note_on_c, 1, 43, 92
6, 213022, Note_on_c, 1, 43, 0
6, 213024, Note_on_c, 1, 41, 92
6, 213184, Note_on_c, 1, 41, 0
6, 213216, Note_on_c, 1, 43, 92
6, 213310, Note_on_c, 1, 43, 0
6, 213312, Note_on_c, 1, 31, 92
6, 213472, Note_on_c, 1, 31, 0
6, 213504, Note_on_c, 1, 38, 92
6, 213598, Note_on_c, 1, 38, 0
6, 213600, Note_on_c, 1, 36, 92
6, 213694, Note_on_c, 1, 36, 0
6, 213696, Note_on_c, 1, 34, 92
6, 213790, Note_on_c, 1, 34, 0
6, 213792, Note_on_c, 1, 33, 92
6, 213886, Note_on_c, 1, 33, 0
6, 213888, Note_on_c, 1, 36, 92
6, 213982, Note_on_c, 1, 36, 0
6, 213984, Note_on_c, 1, 33, 92
6, 214078, Note_on_c, 1, 33, 0
6, 214080, Note_on_c, 1, 31, 92
6, 215376, Note_on_c, 1, 31, 0
6, 215376, End_track
7, 0, Start_track
7, 0, MIDI_port, 0
7, 0, Title_t, "Velvet Green"
7, 0, Program_c, 9, 0
7, 0, Control_c, 9, 7, 127
7, 0, Control_c, 9, 10, 64
7, 19584, Note_on_c, 9, 35, 110
7, 19744, Note_on_c, 9, 35, 0
7, 19776, Note_on_c, 9, 50, 110
7, 19776, Note_on_c, 9, 60, 110
7, 19870, Note_on_c, 9, 50, 0
7, 19870, Note_on_c, 9, 60, 0
7, 19872, Note_on_c, 9, 48, 110
7, 19872, Note_on_c, 9, 59, 110
7, 19966, Note_on_c, 9, 48, 0
7, 19966, Note_on_c, 9, 59, 0
7, 20064, Note_on_c, 9, 35, 110
7, 20064, Note_on_c, 9, 50, 110
7, 20064, Note_on_c, 9, 60, 110
7, 20158, Note_on_c, 9, 35, 0
7, 20158, Note_on_c, 9, 50, 0
7, 20158, Note_on_c, 9, 60, 0
7, 20160, Note_on_c, 9, 35, 110
7, 20160, Note_on_c, 9, 47, 110
7, 20160, Note_on_c, 9, 59, 110
7, 20320, Note_on_c, 9, 35, 0
7, 20320, Note_on_c, 9, 47, 0
7, 20320, Note_on_c, 9, 59, 0
7, 20352, Note_on_c, 9, 50, 110
7, 20352, Note_on_c, 9, 60, 110
7, 20512, Note_on_c, 9, 50, 0
7, 20512, Note_on_c, 9, 60, 0
7, 20544, Note_on_c, 9, 35, 110
7, 20544, Note_on_c, 9, 50, 110
7, 20544, Note_on_c, 9, 60, 110
7, 20638, Note_on_c, 9, 35, 0
7, 20638, Note_on_c, 9, 50, 0
7, 20638, Note_on_c, 9, 60, 0
7, 20640, Note_on_c, 9, 50, 110
7, 20640, Note_on_c, 9, 60, 110
7, 20734, Note_on_c, 9, 50, 0
7, 20734, Note_on_c, 9, 60, 0
7, 20736, Note_on_c, 9, 50, 110
7, 20736, Note_on_c, 9, 60, 110
7, 20830, Note_on_c, 9, 50, 0
7, 20830, Note_on_c, 9, 60, 0
7, 20832, Note_on_c, 9, 35, 110
7, 20832, Note_on_c, 9, 48, 110
7, 20832, Note_on_c, 9, 59, 110
7, 20926, Note_on_c, 9, 35, 0
7, 20926, Note_on_c, 9, 48, 0
7, 20926, Note_on_c, 9, 59, 0
7, 20928, Note_on_c, 9, 35, 110
7, 20928, Note_on_c, 9, 57, 110
7, 21088, Note_on_c, 9, 35, 0
7, 21088, Note_on_c, 9, 57, 0
7, 21120, Note_on_c, 9, 50, 110
7, 21120, Note_on_c, 9, 60, 110
7, 21214, Note_on_c, 9, 50, 0
7, 21214, Note_on_c, 9, 60, 0
7, 21216, Note_on_c, 9, 48, 110
7, 21216, Note_on_c, 9, 59, 110
7, 21310, Note_on_c, 9, 48, 0
7, 21310, Note_on_c, 9, 59, 0
7, 21408, Note_on_c, 9, 35, 110
7, 21408, Note_on_c, 9, 50, 110
7, 21408, Note_on_c, 9, 60, 110
7, 21502, Note_on_c, 9, 35, 0
7, 21502, Note_on_c, 9, 50, 0
7, 21502, Note_on_c, 9, 60, 0
7, 21504, Note_on_c, 9, 35, 110
7, 21504, Note_on_c, 9, 47, 110
7, 21504, Note_on_c, 9, 59, 110
7, 21664, Note_on_c, 9, 35, 0
7, 21664, Note_on_c, 9, 47, 0
7, 21664, Note_on_c, 9, 59, 0
7, 21696, Note_on_c, 9, 35, 110
7, 21696, Note_on_c, 9, 50, 110
7, 21696, Note_on_c, 9, 60, 110
7, 21790, Note_on_c, 9, 35, 0
7, 21790, Note_on_c, 9, 50, 0
7, 21790, Note_on_c, 9, 60, 0
7, 21792, Note_on_c, 9, 35, 110
7, 21886, Note_on_c, 9, 35, 0
7, 21888, Note_on_c, 9, 35, 110
7, 21888, Note_on_c, 9, 48, 110
7, 21888, Note_on_c, 9, 59, 110
7, 22048, Note_on_c, 9, 35, 0
7, 22048, Note_on_c, 9, 48, 0
7, 22048, Note_on_c, 9, 59, 0
7, 22080, Note_on_c, 9, 35, 110
7, 22240, Note_on_c, 9, 35, 0
7, 22272, Note_on_c, 9, 50, 110
7, 22272, Note_on_c, 9, 60, 110
7, 22366, Note_on_c, 9, 50, 0
7, 22366, Note_on_c, 9, 60, 0
7, 22368, Note_on_c, 9, 48, 110
7, 22368, Note_on_c, 9, 59, 110
7, 22462, Note_on_c, 9, 48, 0
7, 22462, Note_on_c, 9, 59, 0
7, 22560, Note_on_c, 9, 35, 110
7, 22560, Note_on_c, 9, 50, 110
7, 22560, Note_on_c, 9, 60, 110
7, 22654, Note_on_c, 9, 35, 0
7, 22654, Note_on_c, 9, 50, 0
7, 22654, Note_on_c, 9, 60, 0
7, 22656, Note_on_c, 9, 35, 110
7, 22656, Note_on_c, 9, 47, 110
7, 22656, Note_on_c, 9, 59, 110
7, 22816, Note_on_c, 9, 35, 0
7, 22816, Note_on_c, 9, 47, 0
7, 22816, Note_on_c, 9, 59, 0
7, 22848, Note_on_c, 9, 50, 110
7, 22848, Note_on_c, 9, 60, 110
7, 23008, Note_on_c, 9, 50, 0
7, 23008, Note_on_c, 9, 60, 0
7, 23040, Note_on_c, 9, 35, 110
7, 23040, Note_on_c, 9, 50, 110
7, 23040, Note_on_c, 9, 60, 110
7, 23134, Note_on_c, 9, 35, 0
7, 23134, Note_on_c, 9, 50, 0
7, 23134, Note_on_c, 9, 60, 0
7, 23136, Note_on_c, 9, 50, 110
7, 23136, Note_on_c, 9, 60, 110
7, 23230, Note_on_c, 9, 50, 0
7, 23230, Note_on_c, 9, 60, 0
7, 23232, Note_on_c, 9, 50, 110
7, 23232, Note_on_c, 9, 60, 110
7, 23326, Note_on_c, 9, 50, 0
7, 23326, Note_on_c, 9, 60, 0
7, 23328, Note_on_c, 9, 35, 110
7, 23328, Note_on_c, 9, 48, 110
7, 23328, Note_on_c, 9, 59, 110
7, 23422, Note_on_c, 9, 35, 0
7, 23422, Note_on_c, 9, 48, 0
7, 23422, Note_on_c, 9, 59, 0
7, 23424, Note_on_c, 9, 35, 110
7, 23424, Note_on_c, 9, 57, 110
7, 23584, Note_on_c, 9, 35, 0
7, 23584, Note_on_c, 9, 57, 0
7, 23616, Note_on_c, 9, 50, 110
7, 23616, Note_on_c, 9, 60, 110
7, 23710, Note_on_c, 9, 50, 0
7, 23710, Note_on_c, 9, 60, 0
7, 23712, Note_on_c, 9, 48, 110
7, 23712, Note_on_c, 9, 59, 110
7, 23806, Note_on_c, 9, 48, 0
7, 23806, Note_on_c, 9, 59, 0
7, 23904, Note_on_c, 9, 35, 110
7, 23904, Note_on_c, 9, 50, 110
7, 23904, Note_on_c, 9, 60, 110
7, 23998, Note_on_c, 9, 35, 0
7, 23998, Note_on_c, 9, 50, 0
7, 23998, Note_on_c, 9, 60, 0
7, 24000, Note_on_c, 9, 35, 110
7, 24000, Note_on_c, 9, 47, 110
7, 24000, Note_on_c, 9, 59, 110
7, 24160, Note_on_c, 9, 35, 0
7, 24160, Note_on_c, 9, 47, 0
7, 24160, Note_on_c, 9, 59, 0
7, 24192, Note_on_c, 9, 35, 110
7, 24192, Note_on_c, 9, 50, 110
7, 24192, Note_on_c, 9, 60, 110
7, 24286, Note_on_c, 9, 35, 0
7, 24286, Note_on_c, 9, 50, 0
7, 24286, Note_on_c, 9, 60, 0
7, 24288, Note_on_c, 9, 35, 110
7, 24382, Note_on_c, 9, 35, 0
7, 24384, Note_on_c, 9, 35, 110
7, 24384, Note_on_c, 9, 48, 110
7, 24384, Note_on_c, 9, 59, 110
7, 24544, Note_on_c, 9, 35, 0
7, 24544, Note_on_c, 9, 48, 0
7, 24544, Note_on_c, 9, 59, 0
7, 24576, Note_on_c, 9, 35, 110
7, 24736, Note_on_c, 9, 35, 0
7, 24768, Note_on_c, 9, 50, 110
7, 24768, Note_on_c, 9, 60, 110
7, 24862, Note_on_c, 9, 50, 0
7, 24862, Note_on_c, 9, 60, 0
7, 24864, Note_on_c, 9, 48, 110
7, 24864, Note_on_c, 9, 59, 110
7, 24958, Note_on_c, 9, 48, 0
7, 24958, Note_on_c, 9, 59, 0
7, 25056, Note_on_c, 9, 35, 110
7, 25056, Note_on_c, 9, 50, 110
7, 25056, Note_on_c, 9, 60, 110
7, 25150, Note_on_c, 9, 35, 0
7, 25150, Note_on_c, 9, 50, 0
7, 25150, Note_on_c, 9, 60, 0
7, 25152, Note_on_c, 9, 35, 110
7, 25152, Note_on_c, 9, 47, 110
7, 25152, Note_on_c, 9, 59, 110
7, 25312, Note_on_c, 9, 35, 0
7, 25312, Note_on_c, 9, 47, 0
7, 25312, Note_on_c, 9, 59, 0
7, 25344, Note_on_c, 9, 50, 110
7, 25344, Note_on_c, 9, 60, 110
7, 25504, Note_on_c, 9, 50, 0
7, 25504, Note_on_c, 9, 60, 0
7, 25536, Note_on_c, 9, 35, 110
7, 25536, Note_on_c, 9, 50, 110
7, 25536, Note_on_c, 9, 60, 110
7, 25630, Note_on_c, 9, 35, 0
7, 25630, Note_on_c, 9, 50, 0
7, 25630, Note_on_c, 9, 60, 0
7, 25632, Note_on_c, 9, 50, 110
7, 25632, Note_on_c, 9, 60, 110
7, 25726, Note_on_c, 9, 50, 0
7, 25726, Note_on_c, 9, 60, 0
7, 25728, Note_on_c, 9, 50, 110
7, 25728, Note_on_c, 9, 60, 110
7, 25822, Note_on_c, 9, 50, 0
7, 25822, Note_on_c, 9, 60, 0
7, 25824, Note_on_c, 9, 35, 110
7, 25824, Note_on_c, 9, 48, 110
7, 25824, Note_on_c, 9, 59, 110
7, 25918, Note_on_c, 9, 35, 0
7, 25918, Note_on_c, 9, 48, 0
7, 25918, Note_on_c, 9, 59, 0
7, 25920, Note_on_c, 9, 35, 110
7, 25920, Note_on_c, 9, 57, 110
7, 26080, Note_on_c, 9, 35, 0
7, 26080, Note_on_c, 9, 57, 0
7, 26112, Note_on_c, 9, 50, 110
7, 26112, Note_on_c, 9, 60, 110
7, 26206, Note_on_c, 9, 50, 0
7, 26206, Note_on_c, 9, 60, 0
7, 26208, Note_on_c, 9, 48, 110
7, 26208, Note_on_c, 9, 59, 110
7, 26302, Note_on_c, 9, 48, 0
7, 26302, Note_on_c, 9, 59, 0
7, 26400, Note_on_c, 9, 35, 110
7, 26400, Note_on_c, 9, 50, 110
7, 26400, Note_on_c, 9, 60, 110
7, 26494, Note_on_c, 9, 35, 0
7, 26494, Note_on_c, 9, 50, 0
7, 26494, Note_on_c, 9, 60, 0
7, 26496, Note_on_c, 9, 35, 110
7, 26496, Note_on_c, 9, 47, 110
7, 26496, Note_on_c, 9, 59, 110
7, 26656, Note_on_c, 9, 35, 0
7, 26656, Note_on_c, 9, 47, 0
7, 26656, Note_on_c, 9, 59, 0
7, 26688, Note_on_c, 9, 35, 110
7, 26688, Note_on_c, 9, 50, 110
7, 26688, Note_on_c, 9, 60, 110
7, 26782, Note_on_c, 9, 35, 0
7, 26782, Note_on_c, 9, 50, 0
7, 26782, Note_on_c, 9, 60, 0
7, 26784, Note_on_c, 9, 35, 110
7, 26878, Note_on_c, 9, 35, 0
7, 26880, Note_on_c, 9, 35, 110
7, 26880, Note_on_c, 9, 48, 110
7, 26880, Note_on_c, 9, 59, 110
7, 27040, Note_on_c, 9, 35, 0
7, 27040, Note_on_c, 9, 48, 0
7, 27040, Note_on_c, 9, 59, 0
7, 27072, Note_on_c, 9, 35, 110
7, 27232, Note_on_c, 9, 35, 0
7, 27264, Note_on_c, 9, 50, 110
7, 27264, Note_on_c, 9, 60, 110
7, 27358, Note_on_c, 9, 50, 0
7, 27358, Note_on_c, 9, 60, 0
7, 27360, Note_on_c, 9, 48, 110
7, 27360, Note_on_c, 9, 59, 110
7, 27454, Note_on_c, 9, 48, 0
7, 27454, Note_on_c, 9, 59, 0
7, 27552, Note_on_c, 9, 35, 110
7, 27552, Note_on_c, 9, 50, 110
7, 27552, Note_on_c, 9, 60, 110
7, 27646, Note_on_c, 9, 35, 0
7, 27646, Note_on_c, 9, 50, 0
7, 27646, Note_on_c, 9, 60, 0
7, 27648, Note_on_c, 9, 35, 110
7, 27648, Note_on_c, 9, 47, 110
7, 27648, Note_on_c, 9, 59, 110
7, 27808, Note_on_c, 9, 35, 0
7, 27808, Note_on_c, 9, 47, 0
7, 27808, Note_on_c, 9, 59, 0
7, 27840, Note_on_c, 9, 50, 110
7, 27840, Note_on_c, 9, 60, 110
7, 28000, Note_on_c, 9, 50, 0
7, 28000, Note_on_c, 9, 60, 0
7, 28032, Note_on_c, 9, 35, 110
7, 28032, Note_on_c, 9, 50, 110
7, 28032, Note_on_c, 9, 60, 110
7, 28126, Note_on_c, 9, 35, 0
7, 28126, Note_on_c, 9, 50, 0
7, 28126, Note_on_c, 9, 60, 0
7, 28128, Note_on_c, 9, 50, 110
7, 28128, Note_on_c, 9, 60, 110
7, 28222, Note_on_c, 9, 50, 0
7, 28222, Note_on_c, 9, 60, 0
7, 28224, Note_on_c, 9, 50, 110
7, 28224, Note_on_c, 9, 60, 110
7, 28318, Note_on_c, 9, 50, 0
7, 28318, Note_on_c, 9, 60, 0
7, 28320, Note_on_c, 9, 35, 110
7, 28320, Note_on_c, 9, 48, 110
7, 28320, Note_on_c, 9, 59, 110
7, 28414, Note_on_c, 9, 35, 0
7, 28414, Note_on_c, 9, 48, 0
7, 28414, Note_on_c, 9, 59, 0
7, 28416, Note_on_c, 9, 35, 110
7, 28416, Note_on_c, 9, 57, 110
7, 28576, Note_on_c, 9, 35, 0
7, 28576, Note_on_c, 9, 57, 0
7, 28608, Note_on_c, 9, 50, 110
7, 28608, Note_on_c, 9, 60, 110
7, 28702, Note_on_c, 9, 50, 0
7, 28702, Note_on_c, 9, 60, 0
7, 28704, Note_on_c, 9, 48, 110
7, 28704, Note_on_c, 9, 59, 110
7, 28798, Note_on_c, 9, 48, 0
7, 28798, Note_on_c, 9, 59, 0
7, 28896, Note_on_c, 9, 35, 110
7, 28896, Note_on_c, 9, 50, 110
7, 28896, Note_on_c, 9, 60, 110
7, 28990, Note_on_c, 9, 35, 0
7, 28990, Note_on_c, 9, 50, 0
7, 28990, Note_on_c, 9, 60, 0
7, 28992, Note_on_c, 9, 35, 110
7, 28992, Note_on_c, 9, 47, 110
7, 28992, Note_on_c, 9, 59, 110
7, 29152, Note_on_c, 9, 35, 0
7, 29152, Note_on_c, 9, 47, 0
7, 29152, Note_on_c, 9, 59, 0
7, 29184, Note_on_c, 9, 35, 110
7, 29184, Note_on_c, 9, 50, 110
7, 29184, Note_on_c, 9, 60, 110
7, 29278, Note_on_c, 9, 35, 0
7, 29278, Note_on_c, 9, 50, 0
7, 29278, Note_on_c, 9, 60, 0
7, 29280, Note_on_c, 9, 35, 110
7, 29374, Note_on_c, 9, 35, 0
7, 29376, Note_on_c, 9, 35, 110
7, 29376, Note_on_c, 9, 48, 110
7, 29376, Note_on_c, 9, 59, 110
7, 29536, Note_on_c, 9, 35, 0
7, 29536, Note_on_c, 9, 48, 0
7, 29536, Note_on_c, 9, 59, 0
7, 29568, Note_on_c, 9, 35, 110
7, 29728, Note_on_c, 9, 35, 0
7, 29760, Note_on_c, 9, 50, 110
7, 29760, Note_on_c, 9, 60, 110
7, 29854, Note_on_c, 9, 50, 0
7, 29854, Note_on_c, 9, 60, 0
7, 29856, Note_on_c, 9, 48, 110
7, 29856, Note_on_c, 9, 59, 110
7, 29950, Note_on_c, 9, 48, 0
7, 29950, Note_on_c, 9, 59, 0
7, 30048, Note_on_c, 9, 35, 110
7, 30048, Note_on_c, 9, 50, 110
7, 30048, Note_on_c, 9, 60, 110
7, 30142, Note_on_c, 9, 35, 0
7, 30142, Note_on_c, 9, 50, 0
7, 30142, Note_on_c, 9, 60, 0
7, 30144, Note_on_c, 9, 35, 110
7, 30144, Note_on_c, 9, 47, 110
7, 30144, Note_on_c, 9, 59, 110
7, 30304, Note_on_c, 9, 35, 0
7, 30304, Note_on_c, 9, 47, 0
7, 30304, Note_on_c, 9, 59, 0
7, 30336, Note_on_c, 9, 50, 110
7, 30336, Note_on_c, 9, 60, 110
7, 30496, Note_on_c, 9, 50, 0
7, 30496, Note_on_c, 9, 60, 0
7, 30528, Note_on_c, 9, 35, 110
7, 30528, Note_on_c, 9, 50, 110
7, 30528, Note_on_c, 9, 60, 110
7, 30622, Note_on_c, 9, 35, 0
7, 30622, Note_on_c, 9, 50, 0
7, 30622, Note_on_c, 9, 60, 0
7, 30624, Note_on_c, 9, 50, 110
7, 30624, Note_on_c, 9, 60, 110
7, 30718, Note_on_c, 9, 50, 0
7, 30718, Note_on_c, 9, 60, 0
7, 30720, Note_on_c, 9, 50, 110
7, 30720, Note_on_c, 9, 60, 110
7, 30814, Note_on_c, 9, 50, 0
7, 30814, Note_on_c, 9, 60, 0
7, 30816, Note_on_c, 9, 35, 110
7, 30816, Note_on_c, 9, 48, 110
7, 30816, Note_on_c, 9, 59, 110
7, 30910, Note_on_c, 9, 35, 0
7, 30910, Note_on_c, 9, 48, 0
7, 30910, Note_on_c, 9, 59, 0
7, 30912, Note_on_c, 9, 35, 110
7, 30912, Note_on_c, 9, 57, 110
7, 31248, Note_on_c, 9, 35, 0
7, 31248, Note_on_c, 9, 57, 0
7, 41664, Program_c, 9, 8
7, 53184, Note_on_c, 9, 35, 110
7, 53184, Note_on_c, 9, 50, 110
7, 53184, Note_on_c, 9, 60, 110
7, 53278, Note_on_c, 9, 35, 0
7, 53278, Note_on_c, 9, 50, 0
7, 53278, Note_on_c, 9, 60, 0
7, 53280, Note_on_c, 9, 50, 110
7, 53280, Note_on_c, 9, 60, 110
7, 53374, Note_on_c, 9, 50, 0
7, 53374, Note_on_c, 9, 60, 0
7, 53376, Note_on_c, 9, 50, 110
7, 53376, Note_on_c, 9, 60, 110
7, 53470, Note_on_c, 9, 50, 0
7, 53470, Note_on_c, 9, 60, 0
7, 53472, Note_on_c, 9, 35, 110
7, 53472, Note_on_c, 9, 48, 110
7, 53472, Note_on_c, 9, 59, 110
7, 53566, Note_on_c, 9, 35, 0
7, 53566, Note_on_c, 9, 48, 0
7, 53566, Note_on_c, 9, 59, 0
7, 53568, Note_on_c, 9, 35, 110
7, 53728, Note_on_c, 9, 35, 0
7, 53760, Note_on_c, 9, 50, 110
7, 53760, Note_on_c, 9, 60, 110
7, 53854, Note_on_c, 9, 50, 0
7, 53854, Note_on_c, 9, 60, 0
7, 53856, Note_on_c, 9, 48, 110
7, 53856, Note_on_c, 9, 59, 110
7, 53950, Note_on_c, 9, 48, 0
7, 53950, Note_on_c, 9, 59, 0
7, 54048, Note_on_c, 9, 35, 110
7, 54048, Note_on_c, 9, 50, 110
7, 54048, Note_on_c, 9, 60, 110
7, 54142, Note_on_c, 9, 35, 0
7, 54142, Note_on_c, 9, 50, 0
7, 54142, Note_on_c, 9, 60, 0
7, 54144, Note_on_c, 9, 35, 110
7, 54144, Note_on_c, 9, 47, 110
7, 54144, Note_on_c, 9, 59, 110
7, 54304, Note_on_c, 9, 35, 0
7, 54304, Note_on_c, 9, 47, 0
7, 54304, Note_on_c, 9, 59, 0
7, 54336, Note_on_c, 9, 50, 110
7, 54336, Note_on_c, 9, 60, 110
7, 54496, Note_on_c, 9, 50, 0
7, 54496, Note_on_c, 9, 60, 0
7, 54528, Note_on_c, 9, 35, 110
7, 54528, Note_on_c, 9, 50, 110
7, 54528, Note_on_c, 9, 60, 110
7, 54622, Note_on_c, 9, 35, 0
7, 54622, Note_on_c, 9, 50, 0
7, 54622, Note_on_c, 9, 60, 0
7, 54624, Note_on_c, 9, 50, 110
7, 54624, Note_on_c, 9, 60, 110
7, 54718, Note_on_c, 9, 50, 0
7, 54718, Note_on_c, 9, 60, 0
7, 54720, Note_on_c, 9, 50, 110
7, 54720, Note_on_c, 9, 60, 110
7, 54814, Note_on_c, 9, 50, 0
7, 54814, Note_on_c, 9, 60, 0
7, 54816, Note_on_c, 9, 35, 110
7, 54816, Note_on_c, 9, 48, 110
7, 54816, Note_on_c, 9, 59, 110
7, 54910, Note_on_c, 9, 35, 0
7, 54910, Note_on_c, 9, 48, 0
7, 54910, Note_on_c, 9, 59, 0
7, 54912, Note_on_c, 9, 35, 110
7, 54912, Note_on_c, 9, 57, 110
7, 55072, Note_on_c, 9, 35, 0
7, 55072, Note_on_c, 9, 57, 0
7, 55104, Note_on_c, 9, 50, 110
7, 55104, Note_on_c, 9, 60, 110
7, 55198, Note_on_c, 9, 50, 0
7, 55198, Note_on_c, 9, 60, 0
7, 55200, Note_on_c, 9, 48, 110
7, 55200, Note_on_c, 9, 59, 110
7, 55294, Note_on_c, 9, 48, 0
7, 55294, Note_on_c, 9, 59, 0
7, 55392, Note_on_c, 9, 35, 110
7, 55392, Note_on_c, 9, 50, 110
7, 55392, Note_on_c, 9, 60, 110
7, 55486, Note_on_c, 9, 35, 0
7, 55486, Note_on_c, 9, 50, 0
7, 55486, Note_on_c, 9, 60, 0
7, 55488, Note_on_c, 9, 35, 110
7, 55488, Note_on_c, 9, 47, 110
7, 55488, Note_on_c, 9, 59, 110
7, 55648, Note_on_c, 9, 35, 0
7, 55648, Note_on_c, 9, 47, 0
7, 55648, Note_on_c, 9, 59, 0
7, 55680, Note_on_c, 9, 35, 110
7, 55680, Note_on_c, 9, 50, 110
7, 55680, Note_on_c, 9, 60, 110
7, 55774, Note_on_c, 9, 35, 0
7, 55774, Note_on_c, 9, 50, 0
7, 55774, Note_on_c, 9, 60, 0
7, 55776, Note_on_c, 9, 35, 110
7, 55870, Note_on_c, 9, 35, 0
7, 55872, Note_on_c, 9, 35, 110
7, 55872, Note_on_c, 9, 48, 110
7, 55872, Note_on_c, 9, 59, 110
7, 56032, Note_on_c, 9, 35, 0
7, 56032, Note_on_c, 9, 48, 0
7, 56032, Note_on_c, 9, 59, 0
7, 56064, Note_on_c, 9, 35, 110
7, 56224, Note_on_c, 9, 35, 0
7, 56256, Note_on_c, 9, 50, 110
7, 56256, Note_on_c, 9, 60, 110
7, 56350, Note_on_c, 9, 50, 0
7, 56350, Note_on_c, 9, 60, 0
7, 56352, Note_on_c, 9, 48, 110
7, 56352, Note_on_c, 9, 59, 110
7, 56446, Note_on_c, 9, 48, 0
7, 56446, Note_on_c, 9, 59, 0
7, 56544, Note_on_c, 9, 35, 110
7, 56544, Note_on_c, 9, 50, 110
7, 56544, Note_on_c, 9, 60, 110
7, 56638, Note_on_c, 9, 35, 0
7, 56638, Note_on_c, 9, 50, 0
7, 56638, Note_on_c, 9, 60, 0
7, 56640, Note_on_c, 9, 35, 110
7, 56640, Note_on_c, 9, 47, 110
7, 56640, Note_on_c, 9, 59, 110
7, 56800, Note_on_c, 9, 35, 0
7, 56800, Note_on_c, 9, 47, 0
7, 56800, Note_on_c, 9, 59, 0
7, 56832, Note_on_c, 9, 50, 110
7, 56832, Note_on_c, 9, 60, 110
7, 56992, Note_on_c, 9, 50, 0
7, 56992, Note_on_c, 9, 60, 0
7, 57024, Note_on_c, 9, 35, 110
7, 57024, Note_on_c, 9, 50, 110
7, 57024, Note_on_c, 9, 60, 110
7, 57118, Note_on_c, 9, 35, 0
7, 57118, Note_on_c, 9, 50, 0
7, 57118, Note_on_c, 9, 60, 0
7, 57120, Note_on_c, 9, 50, 110
7, 57120, Note_on_c, 9, 60, 110
7, 57214, Note_on_c, 9, 50, 0
7, 57214, Note_on_c, 9, 60, 0
7, 57216, Note_on_c, 9, 50, 110
7, 57216, Note_on_c, 9, 60, 110
7, 57310, Note_on_c, 9, 50, 0
7, 57310, Note_on_c, 9, 60, 0
7, 57312, Note_on_c, 9, 35, 110
7, 57312, Note_on_c, 9, 48, 110
7, 57312, Note_on_c, 9, 59, 110
7, 57406, Note_on_c, 9, 35, 0
7, 57406, Note_on_c, 9, 48, 0
7, 57406, Note_on_c, 9, 59, 0
7, 57408, Note_on_c, 9, 35, 110
7, 57408, Note_on_c, 9, 57, 110
7, 57568, Note_on_c, 9, 35, 0
7, 57568, Note_on_c, 9, 57, 0
7, 57600, Note_on_c, 9, 50, 110
7, 57600, Note_on_c, 9, 60, 110
7, 57694, Note_on_c, 9, 50, 0
7, 57694, Note_on_c, 9, 60, 0
7, 57696, Note_on_c, 9, 48, 110
7, 57696, Note_on_c, 9, 59, 110
7, 57790, Note_on_c, 9, 48, 0
7, 57790, Note_on_c, 9, 59, 0
7, 57888, Note_on_c, 9, 35, 110
7, 57888, Note_on_c, 9, 50, 110
7, 57888, Note_on_c, 9, 60, 110
7, 57982, Note_on_c, 9, 35, 0
7, 57982, Note_on_c, 9, 50, 0
7, 57982, Note_on_c, 9, 60, 0
7, 57984, Note_on_c, 9, 35, 110
7, 57984, Note_on_c, 9, 47, 110
7, 57984, Note_on_c, 9, 59, 110
7, 58144, Note_on_c, 9, 35, 0
7, 58144, Note_on_c, 9, 47, 0
7, 58144, Note_on_c, 9, 59, 0
7, 58176, Note_on_c, 9, 35, 110
7, 58176, Note_on_c, 9, 50, 110
7, 58176, Note_on_c, 9, 60, 110
7, 58270, Note_on_c, 9, 35, 0
7, 58270, Note_on_c, 9, 50, 0
7, 58270, Note_on_c, 9, 60, 0
7, 58272, Note_on_c, 9, 35, 110
7, 58366, Note_on_c, 9, 35, 0
7, 58368, Note_on_c, 9, 35, 110
7, 58368, Note_on_c, 9, 48, 110
7, 58368, Note_on_c, 9, 59, 110
7, 58528, Note_on_c, 9, 35, 0
7, 58528, Note_on_c, 9, 48, 0
7, 58528, Note_on_c, 9, 59, 0
7, 58560, Note_on_c, 9, 35, 110
7, 58720, Note_on_c, 9, 35, 0
7, 58752, Note_on_c, 9, 50, 110
7, 58752, Note_on_c, 9, 60, 110
7, 58846, Note_on_c, 9, 50, 0
7, 58846, Note_on_c, 9, 60, 0
7, 58848, Note_on_c, 9, 48, 110
7, 58848, Note_on_c, 9, 59, 110
7, 58942, Note_on_c, 9, 48, 0
7, 58942, Note_on_c, 9, 59, 0
7, 59040, Note_on_c, 9, 35, 110
7, 59040, Note_on_c, 9, 50, 110
7, 59040, Note_on_c, 9, 60, 110
7, 59134, Note_on_c, 9, 35, 0
7, 59134, Note_on_c, 9, 50, 0
7, 59134, Note_on_c, 9, 60, 0
7, 59136, Note_on_c, 9, 35, 110
7, 59136, Note_on_c, 9, 47, 110
7, 59136, Note_on_c, 9, 59, 110
7, 59296, Note_on_c, 9, 35, 0
7, 59296, Note_on_c, 9, 47, 0
7, 59296, Note_on_c, 9, 59, 0
7, 59328, Note_on_c, 9, 35, 110
7, 59328, Note_on_c, 9, 50, 110
7, 59328, Note_on_c, 9, 60, 110
7, 59488, Note_on_c, 9, 35, 0
7, 59488, Note_on_c, 9, 50, 0
7, 59488, Note_on_c, 9, 60, 0
7, 59520, Note_on_c, 9, 35, 110
7, 59520, Note_on_c, 9, 50, 110
7, 59520, Note_on_c, 9, 60, 110
7, 59614, Note_on_c, 9, 35, 0
7, 59614, Note_on_c, 9, 50, 0
7, 59614, Note_on_c, 9, 60, 0
7, 59616, Note_on_c, 9, 50, 110
7, 59616, Note_on_c, 9, 60, 110
7, 59710, Note_on_c, 9, 50, 0
7, 59710, Note_on_c, 9, 60, 0
7, 59712, Note_on_c, 9, 50, 110
7, 59712, Note_on_c, 9, 60, 110
7, 59806, Note_on_c, 9, 50, 0
7, 59806, Note_on_c, 9, 60, 0
7, 59808, Note_on_c, 9, 35, 110
7, 59808, Note_on_c, 9, 48, 110
7, 59808, Note_on_c, 9, 59, 110
7, 59902, Note_on_c, 9, 35, 0
7, 59902, Note_on_c, 9, 48, 0
7, 59902, Note_on_c, 9, 59, 0
7, 59904, Note_on_c, 9, 35, 110
7, 59904, Note_on_c, 9, 45, 110
7, 59904, Note_on_c, 9, 57, 110
7, 61200, Note_on_c, 9, 35, 0
7, 61200, Note_on_c, 9, 45, 0
7, 61200, Note_on_c, 9, 57, 0
7, 63552, Note_on_c, 9, 60, 110
7, 63646, Note_on_c, 9, 60, 0
7, 76608, Note_on_c, 9, 60, 110
7, 76702, Note_on_c, 9, 60, 0
7, 89664, Note_on_c, 9, 60, 110
7, 89758, Note_on_c, 9, 60, 0
7, 100416, Note_on_c, 9, 35, 92
7, 100416, Note_on_c, 9, 58, 92
7, 100576, Note_on_c, 9, 35, 0
7, 100608, Note_on_c, 9, 46, 92
7, 100768, Note_on_c, 9, 46, 0
7, 100800, Note_on_c, 9, 35, 92
7, 100960, Note_on_c, 9, 35, 0
7, 100992, Note_on_c, 9, 46, 92
7, 101136, Note_on_c, 9, 58, 0
7, 101152, Note_on_c, 9, 46, 0
7, 101952, Note_on_c, 9, 35, 92
7, 102112, Note_on_c, 9, 35, 0
7, 102144, Note_on_c, 9, 46, 92
7, 102304, Note_on_c, 9, 46, 0
7, 102336, Note_on_c, 9, 35, 92
7, 102496, Note_on_c, 9, 35, 0
7, 102528, Note_on_c, 9, 46, 92
7, 102688, Note_on_c, 9, 46, 0
7, 103488, Note_on_c, 9, 35, 92
7, 103648, Note_on_c, 9, 35, 0
7, 103680, Note_on_c, 9, 46, 92
7, 103840, Note_on_c, 9, 46, 0
7, 103872, Note_on_c, 9, 35, 92
7, 104032, Note_on_c, 9, 35, 0
7, 104064, Note_on_c, 9, 46, 92
7, 104224, Note_on_c, 9, 46, 0
7, 105024, Note_on_c, 9, 35, 92
7, 105184, Note_on_c, 9, 35, 0
7, 105216, Note_on_c, 9, 46, 92
7, 105376, Note_on_c, 9, 46, 0
7, 105408, Note_on_c, 9, 35, 92
7, 105568, Note_on_c, 9, 35, 0
7, 105600, Note_on_c, 9, 46, 92
7, 105760, Note_on_c, 9, 46, 0
7, 106560, Note_on_c, 9, 35, 92
7, 106560, Note_on_c, 9, 51, 92
7, 107280, Note_on_c, 9, 35, 0
7, 107280, Note_on_c, 9, 51, 0
7, 110784, Note_on_c, 9, 35, 92
7, 110944, Note_on_c, 9, 35, 0
7, 110976, Note_on_c, 9, 51, 92
7, 111136, Note_on_c, 9, 51, 0
7, 111168, Note_on_c, 9, 35, 92
7, 111328, Note_on_c, 9, 35, 0
7, 111360, Note_on_c, 9, 51, 92
7, 111520, Note_on_c, 9, 51, 0
7, 111744, Note_on_c, 9, 48, 92
7, 111904, Note_on_c, 9, 48, 0
7, 111936, Note_on_c, 9, 35, 92
7, 111936, Note_on_c, 9, 47, 92
7, 112096, Note_on_c, 9, 35, 0
7, 112096, Note_on_c, 9, 47, 0
7, 112128, Note_on_c, 9, 35, 92
7, 112128, Note_on_c, 9, 45, 92
7, 112288, Note_on_c, 9, 35, 0
7, 112288, Note_on_c, 9, 45, 0
7, 112320, Note_on_c, 9, 35, 92
7, 112480, Note_on_c, 9, 35, 0
7, 112512, Note_on_c, 9, 51, 92
7, 112672, Note_on_c, 9, 51, 0
7, 112704, Note_on_c, 9, 35, 92
7, 112864, Note_on_c, 9, 35, 0
7, 112896, Note_on_c, 9, 51, 92
7, 113056, Note_on_c, 9, 51, 0
7, 113280, Note_on_c, 9, 48, 92
7, 113440, Note_on_c, 9, 48, 0
7, 113472, Note_on_c, 9, 35, 92
7, 113472, Note_on_c, 9, 47, 92
7, 113632, Note_on_c, 9, 35, 0
7, 113632, Note_on_c, 9, 47, 0
7, 113664, Note_on_c, 9, 35, 92
7, 113664, Note_on_c, 9, 45, 92
7, 113824, Note_on_c, 9, 35, 0
7, 113824, Note_on_c, 9, 45, 0
7, 113856, Note_on_c, 9, 35, 92
7, 113856, Note_on_c, 9, 51, 92
7, 114576, Note_on_c, 9, 35, 0
7, 114576, Note_on_c, 9, 51, 0
7, 116544, Note_on_c, 9, 35, 92
7, 116544, Note_on_c, 9, 47, 92
7, 116704, Note_on_c, 9, 35, 0
7, 116704, Note_on_c, 9, 47, 0
7, 116736, Note_on_c, 9, 35, 92
7, 116736, Note_on_c, 9, 47, 92
7, 116896, Note_on_c, 9, 35, 0
7, 116896, Note_on_c, 9, 47, 0
7, 116928, Note_on_c, 9, 35, 108
7, 116928, Note_on_c, 9, 64, 108
7, 117088, Note_on_c, 9, 35, 0
7, 117088, Note_on_c, 9, 64, 0
7, 117120, Note_on_c, 9, 64, 108
7, 117214, Note_on_c, 9, 64, 0
7, 117216, Note_on_c, 9, 64, 108
7, 117310, Note_on_c, 9, 64, 0
7, 117312, Note_on_c, 9, 64, 108
7, 117472, Note_on_c, 9, 64, 0
7, 117504, Note_on_c, 9, 35, 108
7, 117504, Note_on_c, 9, 62, 108
7, 117664, Note_on_c, 9, 35, 0
7, 117664, Note_on_c, 9, 62, 0
7, 117696, Note_on_c, 9, 35, 108
7, 117696, Note_on_c, 9, 62, 108
7, 117856, Note_on_c, 9, 35, 0
7, 117856, Note_on_c, 9, 62, 0
7, 117888, Note_on_c, 9, 35, 108
7, 117888, Note_on_c, 9, 60, 108
7, 117888, Note_on_c, 9, 64, 108
7, 117934, Note_on_c, 9, 64, 0
7, 117936, Note_on_c, 9, 64, 108
7, 117982, Note_on_c, 9, 35, 0
7, 117982, Note_on_c, 9, 60, 0
7, 117982, Note_on_c, 9, 64, 0
7, 117984, Note_on_c, 9, 60, 108
7, 117984, Note_on_c, 9, 64, 108
7, 118030, Note_on_c, 9, 64, 0
7, 118032, Note_on_c, 9, 64, 108
7, 118078, Note_on_c, 9, 60, 0
7, 118078, Note_on_c, 9, 64, 0
7, 118080, Note_on_c, 9, 64, 108
7, 118174, Note_on_c, 9, 64, 0
7, 118176, Note_on_c, 9, 64, 108
7, 118270, Note_on_c, 9, 64, 0
7, 118272, Note_on_c, 9, 64, 108
7, 118366, Note_on_c, 9, 64, 0
7, 118368, Note_on_c, 9, 64, 108
7, 118462, Note_on_c, 9, 64, 0
7, 118464, Note_on_c, 9, 35, 108
7, 118464, Note_on_c, 9, 62, 108
7, 118624, Note_on_c, 9, 35, 0
7, 118624, Note_on_c, 9, 62, 0
7, 118656, Note_on_c, 9, 35, 108
7, 118656, Note_on_c, 9, 62, 108
7, 118816, Note_on_c, 9, 35, 0
7, 118816, Note_on_c, 9, 62, 0
7, 118848, Note_on_c, 9, 35, 108
7, 118848, Note_on_c, 9, 60, 108
7, 118848, Note_on_c, 9, 64, 108
7, 118894, Note_on_c, 9, 64, 0
7, 118896, Note_on_c, 9, 64, 108
7, 118942, Note_on_c, 9, 35, 0
7, 118942, Note_on_c, 9, 60, 0
7, 118942, Note_on_c, 9, 64, 0
7, 118944, Note_on_c, 9, 60, 108
7, 118944, Note_on_c, 9, 64, 108
7, 118990, Note_on_c, 9, 64, 0
7, 118992, Note_on_c, 9, 64, 108
7, 119038, Note_on_c, 9, 60, 0
7, 119038, Note_on_c, 9, 64, 0
7, 119040, Note_on_c, 9, 64, 108
7, 119134, Note_on_c, 9, 64, 0
7, 119136, Note_on_c, 9, 64, 108
7, 119230, Note_on_c, 9, 64, 0
7, 119232, Note_on_c, 9, 64, 108
7, 119326, Note_on_c, 9, 64, 0
7, 119328, Note_on_c, 9, 64, 108
7, 119422, Note_on_c, 9, 64, 0
7, 119424, Note_on_c, 9, 35, 108
7, 119424, Note_on_c, 9, 62, 108
7, 119584, Note_on_c, 9, 35, 0
7, 119584, Note_on_c, 9, 62, 0
7, 119616, Note_on_c, 9, 35, 108
7, 119616, Note_on_c, 9, 62, 108
7, 119776, Note_on_c, 9, 35, 0
7, 119776, Note_on_c, 9, 62, 0
7, 119808, Note_on_c, 9, 35, 108
7, 119808, Note_on_c, 9, 60, 108
7, 119808, Note_on_c, 9, 64, 108
7, 119854, Note_on_c, 9, 64, 0
7, 119856, Note_on_c, 9, 64, 108
7, 119902, Note_on_c, 9, 35, 0
7, 119902, Note_on_c, 9, 60, 0
7, 119902, Note_on_c, 9, 64, 0
7, 119904, Note_on_c, 9, 60, 108
7, 119904, Note_on_c, 9, 64, 108
7, 119950, Note_on_c, 9, 64, 0
7, 119952, Note_on_c, 9, 64, 108
7, 119998, Note_on_c, 9, 60, 0
7, 119998, Note_on_c, 9, 64, 0
7, 120000, Note_on_c, 9, 64, 108
7, 120094, Note_on_c, 9, 64, 0
7, 120096, Note_on_c, 9, 64, 108
7, 120190, Note_on_c, 9, 64, 0
7, 120192, Note_on_c, 9, 64, 108
7, 120286, Note_on_c, 9, 64, 0
7, 120288, Note_on_c, 9, 64, 108
7, 120382, Note_on_c, 9, 64, 0
7, 120384, Note_on_c, 9, 35, 108
7, 120384, Note_on_c, 9, 62, 108
7, 120544, Note_on_c, 9, 35, 0
7, 120544, Note_on_c, 9, 62, 0
7, 120576, Note_on_c, 9, 35, 108
7, 120576, Note_on_c, 9, 62, 108
7, 120736, Note_on_c, 9, 35, 0
7, 120736, Note_on_c, 9, 62, 0
7, 120768, Note_on_c, 9, 35, 108
7, 120768, Note_on_c, 9, 51, 108
7, 120768, Note_on_c, 9, 64, 108
7, 120928, Note_on_c, 9, 35, 0
7, 120928, Note_on_c, 9, 51, 0
7, 120928, Note_on_c, 9, 64, 0
7, 120960, Note_on_c, 9, 51, 108
7, 120960, Note_on_c, 9, 64, 108
7, 121054, Note_on_c, 9, 64, 0
7, 121056, Note_on_c, 9, 64, 108
7, 121120, Note_on_c, 9, 51, 0
7, 121150, Note_on_c, 9, 64, 0
7, 121152, Note_on_c, 9, 51, 108
7, 121152, Note_on_c, 9, 64, 108
7, 121198, Note_on_c, 9, 64, 0
7, 121200, Note_on_c, 9, 64, 108
7, 121246, Note_on_c, 9, 64, 0
7, 121248, Note_on_c, 9, 64, 108
7, 121294, Note_on_c, 9, 64, 0
7, 121296, Note_on_c, 9, 64, 108
7, 121312, Note_on_c, 9, 51, 0
7, 121342, Note_on_c, 9, 64, 0
7, 121344, Note_on_c, 9, 51, 108
7, 121344, Note_on_c, 9, 62, 108
7, 121504, Note_on_c, 9, 51, 0
7, 121504, Note_on_c, 9, 62, 0
7, 121536, Note_on_c, 9, 51, 108
7, 121536, Note_on_c, 9, 64, 108
7, 121582, Note_on_c, 9, 64, 0
7, 121584, Note_on_c, 9, 63, 108
7, 121630, Note_on_c, 9, 63, 0
7, 121632, Note_on_c, 9, 63, 108
7, 121678, Note_on_c, 9, 63, 0
7, 121680, Note_on_c, 9, 63, 108
7, 121696, Note_on_c, 9, 51, 0
7, 121726, Note_on_c, 9, 63, 0
7, 121728, Note_on_c, 9, 51, 108
7, 121728, Note_on_c, 9, 62, 108
7, 121822, Note_on_c, 9, 62, 0
7, 121824, Note_on_c, 9, 62, 108
7, 121888, Note_on_c, 9, 51, 0
7, 121918, Note_on_c, 9, 62, 0
7, 121920, Note_on_c, 9, 35, 108
7, 121920, Note_on_c, 9, 57, 108
7, 121920, Note_on_c, 9, 63, 108
7, 122080, Note_on_c, 9, 35, 0
7, 122080, Note_on_c, 9, 57, 0
7, 122080, Note_on_c, 9, 63, 0
7, 122112, Note_on_c, 9, 35, 108
7, 122112, Note_on_c, 9, 57, 108
7, 122112, Note_on_c, 9, 62, 108
7, 122272, Note_on_c, 9, 35, 0
7, 122272, Note_on_c, 9, 57, 0
7, 122272, Note_on_c, 9, 62, 0
7, 122304, Note_on_c, 9, 35, 108
7, 122304, Note_on_c, 9, 51, 108
7, 122304, Note_on_c, 9, 64, 108
7, 122464, Note_on_c, 9, 35, 0
7, 122464, Note_on_c, 9, 51, 0
7, 122464, Note_on_c, 9, 64, 0
7, 122496, Note_on_c, 9, 51, 108
7, 122496, Note_on_c, 9, 64, 108
7, 122590, Note_on_c, 9, 64, 0
7, 122592, Note_on_c, 9, 64, 108
7, 122656, Note_on_c, 9, 51, 0
7, 122686, Note_on_c, 9, 64, 0
7, 122688, Note_on_c, 9, 51, 108
7, 122688, Note_on_c, 9, 64, 108
7, 122734, Note_on_c, 9, 64, 0
7, 122736, Note_on_c, 9, 64, 108
7, 122782, Note_on_c, 9, 64, 0
7, 122784, Note_on_c, 9, 64, 108
7, 122830, Note_on_c, 9, 64, 0
7, 122832, Note_on_c, 9, 64, 108
7, 122848, Note_on_c, 9, 51, 0
7, 122878, Note_on_c, 9, 64, 0
7, 122880, Note_on_c, 9, 51, 108
7, 122880, Note_on_c, 9, 62, 108
7, 123040, Note_on_c, 9, 51, 0
7, 123040, Note_on_c, 9, 62, 0
7, 123072, Note_on_c, 9, 51, 108
7, 123072, Note_on_c, 9, 64, 108
7, 123118, Note_on_c, 9, 64, 0
7, 123120, Note_on_c, 9, 63, 108
7, 123166, Note_on_c, 9, 63, 0
7, 123168, Note_on_c, 9, 63, 108
7, 123214, Note_on_c, 9, 63, 0
7, 123216, Note_on_c, 9, 63, 108
7, 123232, Note_on_c, 9, 51, 0
7, 123262, Note_on_c, 9, 63, 0
7, 123264, Note_on_c, 9, 51, 108
7, 123264, Note_on_c, 9, 62, 108
7, 123358, Note_on_c, 9, 62, 0
7, 123360, Note_on_c, 9, 62, 108
7, 123424, Note_on_c, 9, 51, 0
7, 123454, Note_on_c, 9, 62, 0
7, 123456, Note_on_c, 9, 35, 108
7, 123456, Note_on_c, 9, 57, 108
7, 123456, Note_on_c, 9, 63, 108
7, 123616, Note_on_c, 9, 35, 0
7, 123616, Note_on_c, 9, 57, 0
7, 123616, Note_on_c, 9, 63, 0
7, 123648, Note_on_c, 9, 35, 108
7, 123648, Note_on_c, 9, 57, 108
7, 123648, Note_on_c, 9, 62, 108
7, 123808, Note_on_c, 9, 35, 0
7, 123808, Note_on_c, 9, 57, 0
7, 123808, Note_on_c, 9, 62, 0
7, 123840, Note_on_c, 9, 35, 108
7, 123840, Note_on_c, 9, 51, 108
7, 123840, Note_on_c, 9, 64, 108
7, 124000, Note_on_c, 9, 35, 0
7, 124000, Note_on_c, 9, 51, 0
7, 124000, Note_on_c, 9, 64, 0
7, 124032, Note_on_c, 9, 51, 108
7, 124032, Note_on_c, 9, 64, 108
7, 124126, Note_on_c, 9, 64, 0
7, 124128, Note_on_c, 9, 64, 108
7, 124192, Note_on_c, 9, 51, 0
7, 124222, Note_on_c, 9, 64, 0
7, 124224, Note_on_c, 9, 51, 108
7, 124224, Note_on_c, 9, 64, 108
7, 124270, Note_on_c, 9, 64, 0
7, 124272, Note_on_c, 9, 64, 108
7, 124318, Note_on_c, 9, 64, 0
7, 124320, Note_on_c, 9, 64, 108
7, 124366, Note_on_c, 9, 64, 0
7, 124368, Note_on_c, 9, 64, 108
7, 124384, Note_on_c, 9, 51, 0
7, 124414, Note_on_c, 9, 64, 0
7, 124416, Note_on_c, 9, 51, 108
7, 124416, Note_on_c, 9, 62, 108
7, 124576, Note_on_c, 9, 51, 0
7, 124576, Note_on_c, 9, 62, 0
7, 124608, Note_on_c, 9, 51, 108
7, 124608, Note_on_c, 9, 64, 108
7, 124654, Note_on_c, 9, 64, 0
7, 124656, Note_on_c, 9, 63, 108
7, 124702, Note_on_c, 9, 63, 0
7, 124704, Note_on_c, 9, 63, 108
7, 124750, Note_on_c, 9, 63, 0
7, 124752, Note_on_c, 9, 63, 108
7, 124768, Note_on_c, 9, 51, 0
7, 124798, Note_on_c, 9, 63, 0
7, 124800, Note_on_c, 9, 51, 108
7, 124800, Note_on_c, 9, 62, 108
7, 124894, Note_on_c, 9, 62, 0
7, 124896, Note_on_c, 9, 62, 108
7, 124960, Note_on_c, 9, 51, 0
7, 124990, Note_on_c, 9, 62, 0
7, 124992, Note_on_c, 9, 35, 108
7, 124992, Note_on_c, 9, 57, 108
7, 124992, Note_on_c, 9, 63, 108
7, 125152, Note_on_c, 9, 35, 0
7, 125152, Note_on_c, 9, 57, 0
7, 125152, Note_on_c, 9, 63, 0
7, 125184, Note_on_c, 9, 35, 108
7, 125184, Note_on_c, 9, 57, 108
7, 125184, Note_on_c, 9, 62, 108
7, 125344, Note_on_c, 9, 35, 0
7, 125344, Note_on_c, 9, 57, 0
7, 125344, Note_on_c, 9, 62, 0
7, 125376, Note_on_c, 9, 35, 108
7, 125376, Note_on_c, 9, 51, 108
7, 125376, Note_on_c, 9, 64, 108
7, 125536, Note_on_c, 9, 35, 0
7, 125536, Note_on_c, 9, 51, 0
7, 125536, Note_on_c, 9, 64, 0
7, 125568, Note_on_c, 9, 51, 108
7, 125568, Note_on_c, 9, 64, 108
7, 125662, Note_on_c, 9, 64, 0
7, 125664, Note_on_c, 9, 64, 108
7, 125728, Note_on_c, 9, 51, 0
7, 125758, Note_on_c, 9, 64, 0
7, 125760, Note_on_c, 9, 51, 108
7, 125760, Note_on_c, 9, 64, 108
7, 125806, Note_on_c, 9, 64, 0
7, 125808, Note_on_c, 9, 64, 108
7, 125854, Note_on_c, 9, 64, 0
7, 125856, Note_on_c, 9, 64, 108
7, 125902, Note_on_c, 9, 64, 0
7, 125904, Note_on_c, 9, 64, 108
7, 125920, Note_on_c, 9, 51, 0
7, 125950, Note_on_c, 9, 64, 0
7, 125952, Note_on_c, 9, 51, 108
7, 125952, Note_on_c, 9, 62, 108
7, 126112, Note_on_c, 9, 51, 0
7, 126112, Note_on_c, 9, 62, 0
7, 126144, Note_on_c, 9, 51, 108
7, 126144, Note_on_c, 9, 64, 108
7, 126190, Note_on_c, 9, 64, 0
7, 126192, Note_on_c, 9, 63, 108
7, 126238, Note_on_c, 9, 63, 0
7, 126240, Note_on_c, 9, 63, 108
7, 126286, Note_on_c, 9, 63, 0
7, 126288, Note_on_c, 9, 63, 108
7, 126304, Note_on_c, 9, 51, 0
7, 126334, Note_on_c, 9, 63, 0
7, 126336, Note_on_c, 9, 51, 108
7, 126336, Note_on_c, 9, 62, 108
7, 126430, Note_on_c, 9, 62, 0
7, 126432, Note_on_c, 9, 62, 108
7, 126496, Note_on_c, 9, 51, 0
7, 126526, Note_on_c, 9, 62, 0
7, 126528, Note_on_c, 9, 35, 108
7, 126528, Note_on_c, 9, 57, 108
7, 126528, Note_on_c, 9, 63, 108
7, 126688, Note_on_c, 9, 35, 0
7, 126688, Note_on_c, 9, 57, 0
7, 126688, Note_on_c, 9, 63, 0
7, 126720, Note_on_c, 9, 35, 108
7, 126720, Note_on_c, 9, 57, 108
7, 126720, Note_on_c, 9, 62, 108
7, 126880, Note_on_c, 9, 35, 0
7, 126880, Note_on_c, 9, 57, 0
7, 126880, Note_on_c, 9, 62, 0
7, 126912, Note_on_c, 9, 35, 108
7, 126912, Note_on_c, 9, 62, 108
7, 127072, Note_on_c, 9, 35, 0
7, 127072, Note_on_c, 9, 62, 0
7, 127104, Note_on_c, 9, 64, 108
7, 127198, Note_on_c, 9, 64, 0
7, 127200, Note_on_c, 9, 64, 108
7, 127294, Note_on_c, 9, 64, 0
7, 127296, Note_on_c, 9, 64, 108
7, 127456, Note_on_c, 9, 64, 0
7, 127488, Note_on_c, 9, 35, 108
7, 127488, Note_on_c, 9, 64, 108
7, 127648, Note_on_c, 9, 35, 0
7, 127648, Note_on_c, 9, 64, 0
7, 127680, Note_on_c, 9, 62, 108
7, 127774, Note_on_c, 9, 62, 0
7, 127776, Note_on_c, 9, 62, 108
7, 127870, Note_on_c, 9, 62, 0
7, 127872, Note_on_c, 9, 62, 108
7, 128032, Note_on_c, 9, 62, 0
7, 128064, Note_on_c, 9, 35, 108
7, 128064, Note_on_c, 9, 62, 108
7, 128224, Note_on_c, 9, 35, 0
7, 128224, Note_on_c, 9, 62, 0
7, 128256, Note_on_c, 9, 64, 108
7, 128350, Note_on_c, 9, 64, 0
7, 128352, Note_on_c, 9, 64, 108
7, 128446, Note_on_c, 9, 64, 0
7, 128448, Note_on_c, 9, 64, 108
7, 128608, Note_on_c, 9, 64, 0
7, 128640, Note_on_c, 9, 35, 108
7, 128640, Note_on_c, 9, 64, 108
7, 128800, Note_on_c, 9, 35, 0
7, 128800, Note_on_c, 9, 64, 0
7, 128832, Note_on_c, 9, 62, 108
7, 128992, Note_on_c, 9, 62, 0
7, 129024, Note_on_c, 9, 62, 108
7, 129184, Note_on_c, 9, 62, 0
7, 129216, Note_on_c, 9, 35, 108
7, 129216, Note_on_c, 9, 62, 108
7, 129376, Note_on_c, 9, 35, 0
7, 129376, Note_on_c, 9, 62, 0
7, 129408, Note_on_c, 9, 64, 108
7, 129502, Note_on_c, 9, 64, 0
7, 129504, Note_on_c, 9, 64, 108
7, 129598, Note_on_c, 9, 64, 0
7, 129600, Note_on_c, 9, 64, 108
7, 129760, Note_on_c, 9, 64, 0
7, 129792, Note_on_c, 9, 35, 108
7, 129792, Note_on_c, 9, 64, 108
7, 129952, Note_on_c, 9, 35, 0
7, 129952, Note_on_c, 9, 64, 0
7, 129984, Note_on_c, 9, 62, 108
7, 130078, Note_on_c, 9, 62, 0
7, 130080, Note_on_c, 9, 62, 108
7, 130174, Note_on_c, 9, 62, 0
7, 130176, Note_on_c, 9, 62, 108
7, 130336, Note_on_c, 9, 62, 0
7, 130368, Note_on_c, 9, 35, 108
7, 130368, Note_on_c, 9, 62, 108
7, 130528, Note_on_c, 9, 35, 0
7, 130528, Note_on_c, 9, 62, 0
7, 130560, Note_on_c, 9, 64, 108
7, 130654, Note_on_c, 9, 64, 0
7, 130656, Note_on_c, 9, 64, 108
7, 130750, Note_on_c, 9, 64, 0
7, 130752, Note_on_c, 9, 64, 108
7, 130912, Note_on_c, 9, 64, 0
7, 130944, Note_on_c, 9, 35, 108
7, 130944, Note_on_c, 9, 64, 108
7, 131104, Note_on_c, 9, 35, 0
7, 131104, Note_on_c, 9, 64, 0
7, 131136, Note_on_c, 9, 62, 108
7, 131296, Note_on_c, 9, 62, 0
7, 131328, Note_on_c, 9, 62, 108
7, 131488, Note_on_c, 9, 62, 0
7, 131520, Note_on_c, 9, 35, 108
7, 131520, Note_on_c, 9, 62, 108
7, 131680, Note_on_c, 9, 35, 0
7, 131680, Note_on_c, 9, 62, 0
7, 131712, Note_on_c, 9, 64, 108
7, 131806, Note_on_c, 9, 64, 0
7, 131808, Note_on_c, 9, 64, 108
7, 131902, Note_on_c, 9, 64, 0
7, 131904, Note_on_c, 9, 64, 108
7, 132064, Note_on_c, 9, 64, 0
7, 132096, Note_on_c, 9, 35, 108
7, 132096, Note_on_c, 9, 64, 108
7, 132256, Note_on_c, 9, 35, 0
7, 132256, Note_on_c, 9, 64, 0
7, 132288, Note_on_c, 9, 62, 108
7, 132382, Note_on_c, 9, 62, 0
7, 132384, Note_on_c, 9, 62, 108
7, 132478, Note_on_c, 9, 62, 0
7, 132480, Note_on_c, 9, 62, 108
7, 132640, Note_on_c, 9, 62, 0
7, 132672, Note_on_c, 9, 35, 108
7, 132672, Note_on_c, 9, 62, 108
7, 132832, Note_on_c, 9, 35, 0
7, 132832, Note_on_c, 9, 62, 0
7, 132864, Note_on_c, 9, 64, 108
7, 132958, Note_on_c, 9, 64, 0
7, 132960, Note_on_c, 9, 64, 108
7, 133054, Note_on_c, 9, 64, 0
7, 133056, Note_on_c, 9, 64, 108
7, 133216, Note_on_c, 9, 64, 0
7, 133248, Note_on_c, 9, 35, 108
7, 133248, Note_on_c, 9, 64, 108
7, 133408, Note_on_c, 9, 35, 0
7, 133408, Note_on_c, 9, 64, 0
7, 133440, Note_on_c, 9, 62, 108
7, 133600, Note_on_c, 9, 62, 0
7, 133632, Note_on_c, 9, 62, 108
7, 133792, Note_on_c, 9, 62, 0
7, 133824, Note_on_c, 9, 35, 108
7, 133824, Note_on_c, 9, 62, 108
7, 133984, Note_on_c, 9, 35, 0
7, 133984, Note_on_c, 9, 62, 0
7, 134016, Note_on_c, 9, 64, 108
7, 134110, Note_on_c, 9, 64, 0
7, 134112, Note_on_c, 9, 64, 108
7, 134206, Note_on_c, 9, 64, 0
7, 134208, Note_on_c, 9, 64, 108
7, 134368, Note_on_c, 9, 64, 0
7, 134400, Note_on_c, 9, 35, 108
7, 134400, Note_on_c, 9, 46, 108
7, 134400, Note_on_c, 9, 64, 108
7, 134560, Note_on_c, 9, 35, 0
7, 134560, Note_on_c, 9, 46, 0
7, 134560, Note_on_c, 9, 64, 0
7, 134592, Note_on_c, 9, 46, 108
7, 134592, Note_on_c, 9, 62, 108
7, 134686, Note_on_c, 9, 62, 0
7, 134688, Note_on_c, 9, 62, 108
7, 134752, Note_on_c, 9, 46, 0
7, 134782, Note_on_c, 9, 62, 0
7, 134784, Note_on_c, 9, 46, 108
7, 134784, Note_on_c, 9, 62, 108
7, 134944, Note_on_c, 9, 46, 0
7, 134944, Note_on_c, 9, 62, 0
7, 134976, Note_on_c, 9, 35, 108
7, 134976, Note_on_c, 9, 46, 108
7, 134976, Note_on_c, 9, 62, 108
7, 135136, Note_on_c, 9, 35, 0
7, 135136, Note_on_c, 9, 46, 0
7, 135136, Note_on_c, 9, 62, 0
7, 135168, Note_on_c, 9, 46, 108
7, 135168, Note_on_c, 9, 64, 108
7, 135262, Note_on_c, 9, 64, 0
7, 135264, Note_on_c, 9, 64, 108
7, 135328, Note_on_c, 9, 46, 0
7, 135358, Note_on_c, 9, 64, 0
7, 135360, Note_on_c, 9, 46, 108
7, 135360, Note_on_c, 9, 64, 108
7, 135520, Note_on_c, 9, 46, 0
7, 135520, Note_on_c, 9, 64, 0
7, 135552, Note_on_c, 9, 35, 108
7, 135552, Note_on_c, 9, 46, 108
7, 135552, Note_on_c, 9, 64, 108
7, 135712, Note_on_c, 9, 35, 0
7, 135712, Note_on_c, 9, 46, 0
7, 135712, Note_on_c, 9, 64, 0
7, 135744, Note_on_c, 9, 46, 108
7, 135744, Note_on_c, 9, 62, 108
7, 135838, Note_on_c, 9, 62, 0
7, 135840, Note_on_c, 9, 62, 108
7, 135904, Note_on_c, 9, 46, 0
7, 135934, Note_on_c, 9, 62, 0
7, 135936, Note_on_c, 9, 46, 108
7, 135936, Note_on_c, 9, 62, 108
7, 136096, Note_on_c, 9, 46, 0
7, 136096, Note_on_c, 9, 62, 0
7, 139776, Note_on_c, 9, 46, 108
7, 139822, Note_on_c, 9, 46, 0
7, 139824, Note_on_c, 9, 46, 108
7, 139870, Note_on_c, 9, 46, 0
7, 139872, Note_on_c, 9, 46, 108
7, 139918, Note_on_c, 9, 46, 0
7, 139920, Note_on_c, 9, 46, 108
7, 139966, Note_on_c, 9, 46, 0
7, 139968, Note_on_c, 9, 46, 108
7, 140128, Note_on_c, 9, 46, 0
7, 140160, Note_on_c, 9, 46, 108
7, 140320, Note_on_c, 9, 46, 0
7, 140352, Note_on_c, 9, 35, 108
7, 140352, Note_on_c, 9, 46, 108
7, 140352, Note_on_c, 9, 64, 108
7, 140512, Note_on_c, 9, 35, 0
7, 140512, Note_on_c, 9, 46, 0
7, 140512, Note_on_c, 9, 64, 0
7, 140544, Note_on_c, 9, 46, 108
7, 140544, Note_on_c, 9, 64, 108
7, 140638, Note_on_c, 9, 64, 0
7, 140640, Note_on_c, 9, 64, 108
7, 140704, Note_on_c, 9, 46, 0
7, 140734, Note_on_c, 9, 64, 0
7, 140736, Note_on_c, 9, 46, 108
7, 140736, Note_on_c, 9, 64, 108
7, 140782, Note_on_c, 9, 64, 0
7, 140784, Note_on_c, 9, 64, 108
7, 140830, Note_on_c, 9, 64, 0
7, 140832, Note_on_c, 9, 64, 108
7, 140878, Note_on_c, 9, 64, 0
7, 140880, Note_on_c, 9, 64, 108
7, 140896, Note_on_c, 9, 46, 0
7, 140926, Note_on_c, 9, 64, 0
7, 140928, Note_on_c, 9, 46, 108
7, 140928, Note_on_c, 9, 62, 108
7, 141088, Note_on_c, 9, 46, 0
7, 141088, Note_on_c, 9, 62, 0
7, 141120, Note_on_c, 9, 46, 108
7, 141120, Note_on_c, 9, 64, 108
7, 141166, Note_on_c, 9, 64, 0
7, 141168, Note_on_c, 9, 64, 108
7, 141214, Note_on_c, 9, 64, 0
7, 141216, Note_on_c, 9, 64, 108
7, 141262, Note_on_c, 9, 64, 0
7, 141264, Note_on_c, 9, 64, 108
7, 141280, Note_on_c, 9, 46, 0
7, 141310, Note_on_c, 9, 64, 0
7, 141312, Note_on_c, 9, 46, 108
7, 141312, Note_on_c, 9, 62, 108
7, 141406, Note_on_c, 9, 62, 0
7, 141408, Note_on_c, 9, 62, 108
7, 141472, Note_on_c, 9, 46, 0
7, 141502, Note_on_c, 9, 62, 0
7, 141504, Note_on_c, 9, 35, 108
7, 141504, Note_on_c, 9, 46, 108
7, 141504, Note_on_c, 9, 64, 108
7, 141664, Note_on_c, 9, 35, 0
7, 141664, Note_on_c, 9, 46, 0
7, 141664, Note_on_c, 9, 64, 0
7, 141696, Note_on_c, 9, 35, 108
7, 141696, Note_on_c, 9, 46, 108
7, 141696, Note_on_c, 9, 62, 108
7, 141856, Note_on_c, 9, 35, 0
7, 141856, Note_on_c, 9, 46, 0
7, 141856, Note_on_c, 9, 62, 0
7, 141888, Note_on_c, 9, 35, 108
7, 141888, Note_on_c, 9, 46, 108
7, 141888, Note_on_c, 9, 64, 108
7, 142048, Note_on_c, 9, 35, 0
7, 142048, Note_on_c, 9, 46, 0
7, 142048, Note_on_c, 9, 64, 0
7, 142080, Note_on_c, 9, 46, 108
7, 142080, Note_on_c, 9, 64, 108
7, 142174, Note_on_c, 9, 64, 0
7, 142176, Note_on_c, 9, 64, 108
7, 142240, Note_on_c, 9, 46, 0
7, 142270, Note_on_c, 9, 64, 0
7, 142272, Note_on_c, 9, 46, 108
7, 142272, Note_on_c, 9, 64, 108
7, 142318, Note_on_c, 9, 64, 0
7, 142320, Note_on_c, 9, 64, 108
7, 142366, Note_on_c, 9, 64, 0
7, 142368, Note_on_c, 9, 64, 108
7, 142414, Note_on_c, 9, 64, 0
7, 142416, Note_on_c, 9, 64, 108
7, 142432, Note_on_c, 9, 46, 0
7, 142462, Note_on_c, 9, 64, 0
7, 142464, Note_on_c, 9, 46, 108
7, 142464, Note_on_c, 9, 62, 108
7, 142624, Note_on_c, 9, 46, 0
7, 142624, Note_on_c, 9, 62, 0
7, 142656, Note_on_c, 9, 46, 108
7, 142656, Note_on_c, 9, 64, 108
7, 142702, Note_on_c, 9, 64, 0
7, 142704, Note_on_c, 9, 64, 108
7, 142750, Note_on_c, 9, 64, 0
7, 142752, Note_on_c, 9, 64, 108
7, 142798, Note_on_c, 9, 64, 0
7, 142800, Note_on_c, 9, 64, 108
7, 142816, Note_on_c, 9, 46, 0
7, 142846, Note_on_c, 9, 64, 0
7, 142848, Note_on_c, 9, 46, 108
7, 142848, Note_on_c, 9, 62, 108
7, 142942, Note_on_c, 9, 62, 0
7, 142944, Note_on_c, 9, 62, 108
7, 143008, Note_on_c, 9, 46, 0
7, 143038, Note_on_c, 9, 62, 0
7, 143040, Note_on_c, 9, 35, 108
7, 143040, Note_on_c, 9, 46, 108
7, 143040, Note_on_c, 9, 64, 108
7, 143200, Note_on_c, 9, 35, 0
7, 143200, Note_on_c, 9, 46, 0
7, 143200, Note_on_c, 9, 64, 0
7, 143232, Note_on_c, 9, 35, 108
7, 143232, Note_on_c, 9, 46, 108
7, 143232, Note_on_c, 9, 62, 108
7, 143392, Note_on_c, 9, 35, 0
7, 143392, Note_on_c, 9, 46, 0
7, 143392, Note_on_c, 9, 62, 0
7, 143424, Note_on_c, 9, 35, 108
7, 143424, Note_on_c, 9, 46, 108
7, 143424, Note_on_c, 9, 64, 108
7, 143584, Note_on_c, 9, 35, 0
7, 143584, Note_on_c, 9, 46, 0
7, 143584, Note_on_c, 9, 64, 0
7, 143616, Note_on_c, 9, 46, 108
7, 143616, Note_on_c, 9, 64, 108
7, 143710, Note_on_c, 9, 64, 0
7, 143712, Note_on_c, 9, 64, 108
7, 143776, Note_on_c, 9, 46, 0
7, 143806, Note_on_c, 9, 64, 0
7, 143808, Note_on_c, 9, 46, 108
7, 143808, Note_on_c, 9, 64, 108
7, 143854, Note_on_c, 9, 64, 0
7, 143856, Note_on_c, 9, 64, 108
7, 143902, Note_on_c, 9, 64, 0
7, 143904, Note_on_c, 9, 64, 108
7, 143950, Note_on_c, 9, 64, 0
7, 143952, Note_on_c, 9, 64, 108
7, 143968, Note_on_c, 9, 46, 0
7, 143998, Note_on_c, 9, 64, 0
7, 144000, Note_on_c, 9, 46, 108
7, 144000, Note_on_c, 9, 62, 108
7, 144160, Note_on_c, 9, 46, 0
7, 144160, Note_on_c, 9, 62, 0
7, 144192, Note_on_c, 9, 46, 108
7, 144192, Note_on_c, 9, 64, 108
7, 144238, Note_on_c, 9, 64, 0
7, 144240, Note_on_c, 9, 64, 108
7, 144286, Note_on_c, 9, 64, 0
7, 144288, Note_on_c, 9, 64, 108
7, 144334, Note_on_c, 9, 64, 0
7, 144336, Note_on_c, 9, 64, 108
7, 144352, Note_on_c, 9, 46, 0
7, 144382, Note_on_c, 9, 64, 0
7, 144384, Note_on_c, 9, 46, 108
7, 144384, Note_on_c, 9, 62, 108
7, 144478, Note_on_c, 9, 62, 0
7, 144480, Note_on_c, 9, 62, 108
7, 144544, Note_on_c, 9, 46, 0
7, 144574, Note_on_c, 9, 62, 0
7, 144576, Note_on_c, 9, 35, 108
7, 144576, Note_on_c, 9, 46, 108
7, 144576, Note_on_c, 9, 64, 108
7, 144736, Note_on_c, 9, 35, 0
7, 144736, Note_on_c, 9, 46, 0
7, 144736, Note_on_c, 9, 64, 0
7, 144768, Note_on_c, 9, 35, 108
7, 144768, Note_on_c, 9, 46, 108
7, 144768, Note_on_c, 9, 62, 108
7, 144928, Note_on_c, 9, 35, 0
7, 144928, Note_on_c, 9, 46, 0
7, 144928, Note_on_c, 9, 62, 0
7, 144960, Note_on_c, 9, 35, 108
7, 144960, Note_on_c, 9, 46, 108
7, 144960, Note_on_c, 9, 64, 108
7, 145120, Note_on_c, 9, 35, 0
7, 145120, Note_on_c, 9, 46, 0
7, 145120, Note_on_c, 9, 64, 0
7, 145152, Note_on_c, 9, 46, 108
7, 145152, Note_on_c, 9, 64, 108
7, 145246, Note_on_c, 9, 64, 0
7, 145248, Note_on_c, 9, 64, 108
7, 145312, Note_on_c, 9, 46, 0
7, 145342, Note_on_c, 9, 64, 0
7, 145344, Note_on_c, 9, 46, 108
7, 145344, Note_on_c, 9, 64, 108
7, 145390, Note_on_c, 9, 64, 0
7, 145392, Note_on_c, 9, 64, 108
7, 145438, Note_on_c, 9, 64, 0
7, 145440, Note_on_c, 9, 64, 108
7, 145486, Note_on_c, 9, 64, 0
7, 145488, Note_on_c, 9, 64, 108
7, 145504, Note_on_c, 9, 46, 0
7, 145534, Note_on_c, 9, 64, 0
7, 145536, Note_on_c, 9, 46, 108
7, 145536, Note_on_c, 9, 62, 108
7, 145696, Note_on_c, 9, 46, 0
7, 145696, Note_on_c, 9, 62, 0
7, 145728, Note_on_c, 9, 46, 108
7, 145728, Note_on_c, 9, 64, 108
7, 145774, Note_on_c, 9, 64, 0
7, 145776, Note_on_c, 9, 64, 108
7, 145822, Note_on_c, 9, 64, 0
7, 145824, Note_on_c, 9, 64, 108
7, 145870, Note_on_c, 9, 64, 0
7, 145872, Note_on_c, 9, 64, 108
7, 145888, Note_on_c, 9, 46, 0
7, 145918, Note_on_c, 9, 64, 0
7, 145920, Note_on_c, 9, 46, 108
7, 145920, Note_on_c, 9, 62, 108
7, 146014, Note_on_c, 9, 62, 0
7, 146016, Note_on_c, 9, 62, 108
7, 146080, Note_on_c, 9, 46, 0
7, 146110, Note_on_c, 9, 62, 0
7, 146112, Note_on_c, 9, 35, 108
7, 146112, Note_on_c, 9, 46, 108
7, 146112, Note_on_c, 9, 64, 108
7, 146272, Note_on_c, 9, 35, 0
7, 146272, Note_on_c, 9, 46, 0
7, 146272, Note_on_c, 9, 64, 0
7, 146304, Note_on_c, 9, 35, 108
7, 146304, Note_on_c, 9, 46, 108
7, 146304, Note_on_c, 9, 62, 108
7, 146464, Note_on_c, 9, 35, 0
7, 146464, Note_on_c, 9, 46, 0
7, 146464, Note_on_c, 9, 62, 0
7, 148032, Note_on_c, 9, 35, 108
7, 148032, Note_on_c, 9, 46, 108
7, 148032, Note_on_c, 9, 64, 108
7, 148192, Note_on_c, 9, 35, 0
7, 148192, Note_on_c, 9, 46, 0
7, 148192, Note_on_c, 9, 64, 0
7, 148224, Note_on_c, 9, 46, 108
7, 148224, Note_on_c, 9, 64, 108
7, 148318, Note_on_c, 9, 64, 0
7, 148320, Note_on_c, 9, 64, 108
7, 148384, Note_on_c, 9, 46, 0
7, 148414, Note_on_c, 9, 64, 0
7, 148416, Note_on_c, 9, 46, 108
7, 148416, Note_on_c, 9, 64, 108
7, 148462, Note_on_c, 9, 64, 0
7, 148464, Note_on_c, 9, 64, 108
7, 148510, Note_on_c, 9, 64, 0
7, 148512, Note_on_c, 9, 64, 108
7, 148558, Note_on_c, 9, 64, 0
7, 148560, Note_on_c, 9, 64, 108
7, 148576, Note_on_c, 9, 46, 0
7, 148606, Note_on_c, 9, 64, 0
7, 148608, Note_on_c, 9, 46, 108
7, 148608, Note_on_c, 9, 62, 108
7, 148768, Note_on_c, 9, 46, 0
7, 148768, Note_on_c, 9, 62, 0
7, 148800, Note_on_c, 9, 46, 108
7, 148800, Note_on_c, 9, 64, 108
7, 148846, Note_on_c, 9, 64, 0
7, 148848, Note_on_c, 9, 64, 108
7, 148894, Note_on_c, 9, 64, 0
7, 148896, Note_on_c, 9, 64, 108
7, 148942, Note_on_c, 9, 64, 0
7, 148944, Note_on_c, 9, 64, 108
7, 148960, Note_on_c, 9, 46, 0
7, 148990, Note_on_c, 9, 64, 0
7, 148992, Note_on_c, 9, 46, 108
7, 148992, Note_on_c, 9, 62, 108
7, 149086, Note_on_c, 9, 62, 0
7, 149088, Note_on_c, 9, 62, 108
7, 149152, Note_on_c, 9, 46, 0
7, 149182, Note_on_c, 9, 62, 0
7, 149184, Note_on_c, 9, 35, 108
7, 149184, Note_on_c, 9, 46, 108
7, 149184, Note_on_c, 9, 64, 108
7, 149344, Note_on_c, 9, 35, 0
7, 149344, Note_on_c, 9, 46, 0
7, 149344, Note_on_c, 9, 64, 0
7, 149376, Note_on_c, 9, 35, 108
7, 149376, Note_on_c, 9, 46, 108
7, 149376, Note_on_c, 9, 62, 108
7, 149536, Note_on_c, 9, 35, 0
7, 149536, Note_on_c, 9, 46, 0
7, 149536, Note_on_c, 9, 62, 0
7, 182592, Note_on_c, 9, 36, 108
7, 182592, Note_on_c, 9, 51, 108
7, 182928, Note_on_c, 9, 36, 0
7, 182928, Note_on_c, 9, 51, 0
7, 193344, Program_c, 9, 8
7, 204864, Note_on_c, 9, 35, 108
7, 204864, Note_on_c, 9, 50, 108
7, 204864, Note_on_c, 9, 60, 108
7, 204958, Note_on_c, 9, 35, 0
7, 204958, Note_on_c, 9, 50, 0
7, 204958, Note_on_c, 9, 60, 0
7, 204960, Note_on_c, 9, 50, 108
7, 204960, Note_on_c, 9, 60, 108
7, 205054, Note_on_c, 9, 50, 0
7, 205054, Note_on_c, 9, 60, 0
7, 205056, Note_on_c, 9, 50, 108
7, 205056, Note_on_c, 9, 60, 108
7, 205150, Note_on_c, 9, 50, 0
7, 205150, Note_on_c, 9, 60, 0
7, 205152, Note_on_c, 9, 35, 108
7, 205152, Note_on_c, 9, 48, 108
7, 205152, Note_on_c, 9, 59, 108
7, 205246, Note_on_c, 9, 35, 0
7, 205246, Note_on_c, 9, 48, 0
7, 205246, Note_on_c, 9, 59, 0
7, 205248, Note_on_c, 9, 35, 108
7, 205408, Note_on_c, 9, 35, 0
7, 205440, Note_on_c, 9, 50, 108
7, 205440, Note_on_c, 9, 60, 108
7, 205534, Note_on_c, 9, 50, 0
7, 205534, Note_on_c, 9, 60, 0
7, 205536, Note_on_c, 9, 48, 108
7, 205536, Note_on_c, 9, 59, 108
7, 205630, Note_on_c, 9, 48, 0
7, 205630, Note_on_c, 9, 59, 0
7, 205728, Note_on_c, 9, 35, 108
7, 205728, Note_on_c, 9, 50, 108
7, 205728, Note_on_c, 9, 60, 108
7, 205822, Note_on_c, 9, 35, 0
7, 205822, Note_on_c, 9, 50, 0
7, 205822, Note_on_c, 9, 60, 0
7, 205824, Note_on_c, 9, 35, 108
7, 205824, Note_on_c, 9, 47, 108
7, 205824, Note_on_c, 9, 59, 108
7, 205984, Note_on_c, 9, 35, 0
7, 205984, Note_on_c, 9, 47, 0
7, 205984, Note_on_c, 9, 59, 0
7, 206016, Note_on_c, 9, 50, 108
7, 206016, Note_on_c, 9, 60, 108
7, 206176, Note_on_c, 9, 50, 0
7, 206176, Note_on_c, 9, 60, 0
7, 206208, Note_on_c, 9, 35, 108
7, 206208, Note_on_c, 9, 50, 108
7, 206208, Note_on_c, 9, 60, 108
7, 206302, Note_on_c, 9, 35, 0
7, 206302, Note_on_c, 9, 50, 0
7, 206302, Note_on_c, 9, 60, 0
7, 206304, Note_on_c, 9, 50, 108
7, 206304, Note_on_c, 9, 60, 108
7, 206398, Note_on_c, 9, 50, 0
7, 206398, Note_on_c, 9, 60, 0
7, 206400, Note_on_c, 9, 50, 108
7, 206400, Note_on_c, 9, 60, 108
7, 206494, Note_on_c, 9, 50, 0
7, 206494, Note_on_c, 9, 60, 0
7, 206496, Note_on_c, 9, 35, 108
7, 206496, Note_on_c, 9, 48, 108
7, 206496, Note_on_c, 9, 59, 108
7, 206590, Note_on_c, 9, 35, 0
7, 206590, Note_on_c, 9, 48, 0
7, 206590, Note_on_c, 9, 59, 0
7, 206592, Note_on_c, 9, 35, 108
7, 206592, Note_on_c, 9, 57, 108
7, 206752, Note_on_c, 9, 35, 0
7, 206752, Note_on_c, 9, 57, 0
7, 206784, Note_on_c, 9, 50, 108
7, 206784, Note_on_c, 9, 60, 108
7, 206878, Note_on_c, 9, 50, 0
7, 206878, Note_on_c, 9, 60, 0
7, 206880, Note_on_c, 9, 48, 108
7, 206880, Note_on_c, 9, 59, 108
7, 206974, Note_on_c, 9, 48, 0
7, 206974, Note_on_c, 9, 59, 0
7, 207072, Note_on_c, 9, 35, 108
7, 207072, Note_on_c, 9, 50, 108
7, 207072, Note_on_c, 9, 60, 108
7, 207166, Note_on_c, 9, 35, 0
7, 207166, Note_on_c, 9, 50, 0
7, 207166, Note_on_c, 9, 60, 0
7, 207168, Note_on_c, 9, 35, 108
7, 207168, Note_on_c, 9, 47, 108
7, 207168, Note_on_c, 9, 59, 108
7, 207328, Note_on_c, 9, 35, 0
7, 207328, Note_on_c, 9, 47, 0
7, 207328, Note_on_c, 9, 59, 0
7, 207360, Note_on_c, 9, 35, 108
7, 207360, Note_on_c, 9, 50, 108
7, 207360, Note_on_c, 9, 60, 108
7, 207454, Note_on_c, 9, 35, 0
7, 207454, Note_on_c, 9, 50, 0
7, 207454, Note_on_c, 9, 60, 0
7, 207456, Note_on_c, 9, 35, 108
7, 207550, Note_on_c, 9, 35, 0
7, 207552, Note_on_c, 9, 35, 108
7, 207552, Note_on_c, 9, 48, 108
7, 207552, Note_on_c, 9, 59, 108
7, 207712, Note_on_c, 9, 35, 0
7, 207712, Note_on_c, 9, 48, 0
7, 207712, Note_on_c, 9, 59, 0
7, 207744, Note_on_c, 9, 35, 108
7, 207904, Note_on_c, 9, 35, 0
7, 207936, Note_on_c, 9, 50, 108
7, 207936, Note_on_c, 9, 60, 108
7, 208030, Note_on_c, 9, 50, 0
7, 208030, Note_on_c, 9, 60, 0
7, 208032, Note_on_c, 9, 48, 108
7, 208032, Note_on_c, 9, 59, 108
7, 208126, Note_on_c, 9, 48, 0
7, 208126, Note_on_c, 9, 59, 0
7, 208224, Note_on_c, 9, 35, 108
7, 208224, Note_on_c, 9, 50, 108
7, 208224, Note_on_c, 9, 60, 108
7, 208318, Note_on_c, 9, 35, 0
7, 208318, Note_on_c, 9, 50, 0
7, 208318, Note_on_c, 9, 60, 0
7, 208320, Note_on_c, 9, 35, 108
7, 208320, Note_on_c, 9, 47, 108
7, 208320, Note_on_c, 9, 59, 108
7, 208480, Note_on_c, 9, 35, 0
7, 208480, Note_on_c, 9, 47, 0
7, 208480, Note_on_c, 9, 59, 0
7, 208512, Note_on_c, 9, 50, 108
7, 208512, Note_on_c, 9, 60, 108
7, 208672, Note_on_c, 9, 50, 0
7, 208672, Note_on_c, 9, 60, 0
7, 208704, Note_on_c, 9, 35, 108
7, 208704, Note_on_c, 9, 50, 108
7, 208704, Note_on_c, 9, 60, 108
7, 208798, Note_on_c, 9, 35, 0
7, 208798, Note_on_c, 9, 50, 0
7, 208798, Note_on_c, 9, 60, 0
7, 208800, Note_on_c, 9, 50, 108
7, 208800, Note_on_c, 9, 60, 108
7, 208894, Note_on_c, 9, 50, 0
7, 208894, Note_on_c, 9, 60, 0
7, 208896, Note_on_c, 9, 50, 108
7, 208896, Note_on_c, 9, 60, 108
7, 208990, Note_on_c, 9, 50, 0
7, 208990, Note_on_c, 9, 60, 0
7, 208992, Note_on_c, 9, 35, 108
7, 208992, Note_on_c, 9, 48, 108
7, 208992, Note_on_c, 9, 59, 108
7, 209086, Note_on_c, 9, 35, 0
7, 209086, Note_on_c, 9, 48, 0
7, 209086, Note_on_c, 9, 59, 0
7, 209088, Note_on_c, 9, 35, 108
7, 209088, Note_on_c, 9, 57, 108
7, 209248, Note_on_c, 9, 35, 0
7, 209248, Note_on_c, 9, 57, 0
7, 209280, Note_on_c, 9, 50, 108
7, 209280, Note_on_c, 9, 60, 108
7, 209374, Note_on_c, 9, 50, 0
7, 209374, Note_on_c, 9, 60, 0
7, 209376, Note_on_c, 9, 48, 108
7, 209376, Note_on_c, 9, 59, 108
7, 209470, Note_on_c, 9, 48, 0
7, 209470, Note_on_c, 9, 59, 0
7, 209568, Note_on_c, 9, 35, 108
7, 209568, Note_on_c, 9, 50, 108
7, 209568, Note_on_c, 9, 60, 108
7, 209662, Note_on_c, 9, 35, 0
7, 209662, Note_on_c, 9, 50, 0
7, 209662, Note_on_c, 9, 60, 0
7, 209664, Note_on_c, 9, 35, 108
7, 209664, Note_on_c, 9, 47, 108
7, 209664, Note_on_c, 9, 59, 108
7, 209824, Note_on_c, 9, 35, 0
7, 209824, Note_on_c, 9, 47, 0
7, 209824, Note_on_c, 9, 59, 0
7, 209856, Note_on_c, 9, 35, 108
7, 209856, Note_on_c, 9, 50, 108
7, 209856, Note_on_c, 9, 60, 108
7, 209950, Note_on_c, 9, 35, 0
7, 209950, Note_on_c, 9, 50, 0
7, 209950, Note_on_c, 9, 60, 0
7, 209952, Note_on_c, 9, 35, 108
7, 210046, Note_on_c, 9, 35, 0
7, 210048, Note_on_c, 9, 35, 108
7, 210048, Note_on_c, 9, 48, 108
7, 210048, Note_on_c, 9, 59, 108
7, 210208, Note_on_c, 9, 35, 0
7, 210208, Note_on_c, 9, 48, 0
7, 210208, Note_on_c, 9, 59, 0
7, 210240, Note_on_c, 9, 35, 108
7, 210400, Note_on_c, 9, 35, 0
7, 210432, Note_on_c, 9, 50, 108
7, 210432, Note_on_c, 9, 60, 108
7, 210526, Note_on_c, 9, 50, 0
7, 210526, Note_on_c, 9, 60, 0
7, 210528, Note_on_c, 9, 48, 108
7, 210528, Note_on_c, 9, 59, 108
7, 210622, Note_on_c, 9, 48, 0
7, 210622, Note_on_c, 9, 59, 0
7, 210720, Note_on_c, 9, 35, 108
7, 210720, Note_on_c, 9, 50, 108
7, 210720, Note_on_c, 9, 60, 108
7, 210814, Note_on_c, 9, 35, 0
7, 210814, Note_on_c, 9, 50, 0
7, 210814, Note_on_c, 9, 60, 0
7, 210816, Note_on_c, 9, 35, 108
7, 210816, Note_on_c, 9, 47, 108
7, 210816, Note_on_c, 9, 59, 108
7, 210976, Note_on_c, 9, 35, 0
7, 210976, Note_on_c, 9, 47, 0
7, 210976, Note_on_c, 9, 59, 0
7, 211008, Note_on_c, 9, 50, 108
7, 211008, Note_on_c, 9, 60, 108
7, 211168, Note_on_c, 9, 50, 0
7, 211168, Note_on_c, 9, 60, 0
7, 211200, Note_on_c, 9, 35, 108
7, 211200, Note_on_c, 9, 50, 108
7, 211200, Note_on_c, 9, 60, 108
7, 211294, Note_on_c, 9, 35, 0
7, 211294, Note_on_c, 9, 50, 0
7, 211294, Note_on_c, 9, 60, 0
7, 211296, Note_on_c, 9, 50, 108
7, 211296, Note_on_c, 9, 60, 108
7, 211390, Note_on_c, 9, 50, 0
7, 211390, Note_on_c, 9, 60, 0
7, 211392, Note_on_c, 9, 50, 108
7, 211392, Note_on_c, 9, 60, 108
7, 211486, Note_on_c, 9, 50, 0
7, 211486, Note_on_c, 9, 60, 0
7, 211488, Note_on_c, 9, 35, 108
7, 211488, Note_on_c, 9, 48, 108
7, 211488, Note_on_c, 9, 59, 108
7, 211582, Note_on_c, 9, 35, 0
7, 211582, Note_on_c, 9, 48, 0
7, 211582, Note_on_c, 9, 59, 0
7, 211584, Note_on_c, 9, 35, 108
7, 211584, Note_on_c, 9, 57, 108
7, 211744, Note_on_c, 9, 35, 0
7, 211744, Note_on_c, 9, 57, 0
7, 211776, Note_on_c, 9, 50, 108
7, 211776, Note_on_c, 9, 60, 108
7, 211870, Note_on_c, 9, 50, 0
7, 211870, Note_on_c, 9, 60, 0
7, 211872, Note_on_c, 9, 48, 108
7, 211872, Note_on_c, 9, 59, 108
7, 211966, Note_on_c, 9, 48, 0
7, 211966, Note_on_c, 9, 59, 0
7, 212064, Note_on_c, 9, 35, 108
7, 212064, Note_on_c, 9, 50, 108
7, 212064, Note_on_c, 9, 60, 108
7, 212158, Note_on_c, 9, 35, 0
7, 212158, Note_on_c, 9, 50, 0
7, 212158, Note_on_c, 9, 60, 0
7, 212160, Note_on_c, 9, 35, 108
7, 212160, Note_on_c, 9, 47, 108
7, 212160, Note_on_c, 9, 59, 108
7, 212320, Note_on_c, 9, 35, 0
7, 212320, Note_on_c, 9, 47, 0
7, 212320, Note_on_c, 9, 59, 0
7, 212352, Note_on_c, 9, 35, 108
7, 212352, Note_on_c, 9, 50, 108
7, 212352, Note_on_c, 9, 60, 108
7, 212446, Note_on_c, 9, 35, 0
7, 212446, Note_on_c, 9, 50, 0
7, 212446, Note_on_c, 9, 60, 0
7, 212448, Note_on_c, 9, 35, 108
7, 212542, Note_on_c, 9, 35, 0
7, 212544, Note_on_c, 9, 35, 108
7, 212544, Note_on_c, 9, 48, 108
7, 212544, Note_on_c, 9, 59, 108
7, 212704, Note_on_c, 9, 35, 0
7, 212704, Note_on_c, 9, 48, 0
7, 212704, Note_on_c, 9, 59, 0
7, 212736, Note_on_c, 9, 35, 108
7, 212896, Note_on_c, 9, 35, 0
7, 212928, Note_on_c, 9, 50, 108
7, 212928, Note_on_c, 9, 60, 108
7, 213022, Note_on_c, 9, 50, 0
7, 213022, Note_on_c, 9, 60, 0
7, 213024, Note_on_c, 9, 48, 108
7, 213024, Note_on_c, 9, 59, 108
7, 213118, Note_on_c, 9, 48, 0
7, 213118, Note_on_c, 9, 59, 0
7, 213216, Note_on_c, 9, 35, 108
7, 213216, Note_on_c, 9, 50, 108
7, 213216, Note_on_c, 9, 60, 108
7, 213310, Note_on_c, 9, 35, 0
7, 213310, Note_on_c, 9, 50, 0
7, 213310, Note_on_c, 9, 60, 0
7, 213312, Note_on_c, 9, 35, 108
7, 213312, Note_on_c, 9, 47, 108
7, 213312, Note_on_c, 9, 59, 108
7, 213472, Note_on_c, 9, 35, 0
7, 213472, Note_on_c, 9, 47, 0
7, 213472, Note_on_c, 9, 59, 0
7, 213504, Note_on_c, 9, 50, 108
7, 213504, Note_on_c, 9, 60, 108
7, 213664, Note_on_c, 9, 50, 0
7, 213664, Note_on_c, 9, 60, 0
7, 213696, Note_on_c, 9, 35, 108
7, 213696, Note_on_c, 9, 50, 108
7, 213696, Note_on_c, 9, 60, 108
7, 213790, Note_on_c, 9, 35, 0
7, 213790, Note_on_c, 9, 50, 0
7, 213790, Note_on_c, 9, 60, 0
7, 213792, Note_on_c, 9, 50, 108
7, 213792, Note_on_c, 9, 60, 108
7, 213886, Note_on_c, 9, 50, 0
7, 213886, Note_on_c, 9, 60, 0
7, 213888, Note_on_c, 9, 50, 108
7, 213888, Note_on_c, 9, 60, 108
7, 213982, Note_on_c, 9, 50, 0
7, 213982, Note_on_c, 9, 60, 0
7, 213984, Note_on_c, 9, 35, 108
7, 213984, Note_on_c, 9, 48, 108
7, 213984, Note_on_c, 9, 59, 108
7, 214078, Note_on_c, 9, 35, 0
7, 214078, Note_on_c, 9, 48, 0
7, 214078, Note_on_c, 9, 59, 0
7, 214080, Note_on_c, 9, 35, 108
7, 214080, Note_on_c, 9, 36, 108
7, 214080, Note_on_c, 9, 45, 108
7, 214080, Note_on_c, 9, 57, 108
7, 215376, Note_on_c, 9, 35, 0
7, 215376, Note_on_c, 9, 36, 0
7, 215376, Note_on_c, 9, 45, 0
7, 215376, Note_on_c, 9, 57, 0
7, 215376, End_track
0, 0, End_of_file
