0, 0, Header, 0, 1, 384
1, 0, Start_track
1, 0, Title_t, "7405BROK"
1, 0, Tempo, 300000
1, 0, Time_signature, 4, 2, 24, 8
1, 0, Text_t, "7405BROK\000\000"
1, 10, System_exclusive, 5, 126, 127, 9, 1, 247
1, 24, System_exclusive, 10, 65, 16, 66, 18, 64, 0, 127, 0, 65, 247
1, 48, System_exclusive, 25, 65, 16, 66, 18, 64, 1, 16, 2, 0, 1, 3, 2, 2, 2, 2, 2, 2, 1, 1, 1, 1, 1, 1, 23, 247
1, 72, System_exclusive, 10, 65, 16, 66, 18, 64, 1, 51, 90, 50, 247
1, 112, System_exclusive, 10, 65, 16, 66, 18, 64, 1, 58, 90, 43, 247
1, 276, Control_c, 0, 121, 0
1, 324, Control_c, 1, 121, 0
1, 328, Control_c, 2, 121, 0
1, 332, Control_c, 3, 121, 0
1, 336, Control_c, 4, 121, 0
1, 340, Control_c, 5, 121, 0
1, 344, Control_c, 6, 121, 0
1, 348, Control_c, 7, 121, 0
1, 352, Control_c, 8, 121, 0
1, 356, Control_c, 9, 121, 0
1, 360, Control_c, 10, 121, 0
1, 364, Control_c, 11, 121, 0
1, 368, Control_c, 0, 11, 127
1, 368, Control_c, 0, 10, 64
1, 368, Control_c, 0, 7, 100
1, 368, Control_c, 12, 121, 0
1, 372, Control_c, 0, 91, 70
1, 372, Control_c, 0, 93, 0
1, 372, Control_c, 13, 121, 0
1, 376, Control_c, 14, 121, 0
1, 380, Control_c, 15, 121, 0
1, 384, Control_c, 0, 0, 5
1, 388, Control_c, 0, 32, 0
1, 392, Program_c, 0, 124
1, 404, Control_c, 1, 0, 0
1, 408, Control_c, 1, 32, 0
1, 412, Program_c, 1, 33
1, 416, Control_c, 1, 7, 110
1, 416, Control_c, 1, 10, 64
1, 416, Control_c, 1, 11, 127
1, 420, Control_c, 1, 91, 60
1, 420, Control_c, 1, 93, 0
1, 424, Control_c, 2, 0, 0
1, 428, Control_c, 2, 32, 0
1, 432, Program_c, 2, 0
1, 436, Control_c, 2, 7, 120
1, 436, Control_c, 2, 10, 64
1, 436, Control_c, 2, 11, 127
1, 440, Control_c, 2, 91, 70
1, 440, Control_c, 2, 93, 0
1, 444, Control_c, 3, 0, 0
1, 448, Control_c, 3, 32, 0
1, 452, Program_c, 3, 28
1, 456, Control_c, 3, 7, 100
1, 456, Control_c, 3, 10, 24
1, 456, Control_c, 3, 11, 127
1, 460, Control_c, 3, 91, 70
1, 460, Control_c, 3, 93, 0
1, 464, Control_c, 4, 0, 0
1, 468, Control_c, 4, 32, 0
1, 472, Program_c, 4, 30
1, 476, Control_c, 4, 7, 100
1, 476, Control_c, 4, 10, 84
1, 476, Control_c, 4, 11, 127
1, 480, Control_c, 4, 91, 105
1, 480, Control_c, 4, 93, 10
1, 484, Control_c, 5, 0, 0
1, 488, Control_c, 5, 32, 0
1, 492, Program_c, 5, 95
1, 496, Control_c, 5, 7, 100
1, 496, Control_c, 5, 10, 64
1, 496, Control_c, 5, 11, 127
1, 500, Control_c, 5, 91, 70
1, 500, Control_c, 5, 93, 15
1, 504, Control_c, 6, 0, 0
1, 508, Control_c, 6, 32, 0
1, 512, Program_c, 6, 48
1, 516, Control_c, 6, 7, 100
1, 516, Control_c, 6, 10, 64
1, 516, Control_c, 6, 11, 127
1, 520, Control_c, 6, 91, 75
1, 520, Control_c, 6, 93, 0
1, 524, Control_c, 7, 0, 0
1, 528, Control_c, 7, 32, 0
1, 532, Program_c, 7, 48
1, 536, Control_c, 7, 7, 100
1, 536, Control_c, 7, 10, 34
1, 536, Control_c, 7, 11, 127
1, 540, Control_c, 7, 91, 80
1, 540, Control_c, 7, 93, 0
1, 544, Control_c, 8, 0, 0
1, 548, Control_c, 8, 32, 0
1, 552, Program_c, 8, 48
1, 556, Control_c, 8, 7, 100
1, 556, Control_c, 8, 10, 94
1, 556, Control_c, 8, 11, 127
1, 560, Control_c, 8, 91, 80
1, 560, Control_c, 8, 93, 0
1, 564, Control_c, 9, 0, 0
1, 568, Control_c, 9, 32, 0
1, 572, Program_c, 9, 0
1, 576, Control_c, 9, 7, 100
1, 576, Control_c, 9, 10, 64
1, 576, Control_c, 9, 11, 127
1, 580, Control_c, 9, 91, 60
1, 580, Control_c, 9, 93, 0
1, 584, Control_c, 10, 0, 0
1, 588, Control_c, 10, 32, 0
1, 592, Program_c, 10, 90
1, 596, Control_c, 10, 7, 124
1, 596, Control_c, 10, 10, 64
1, 596, Control_c, 10, 11, 127
1, 600, Control_c, 10, 91, 70
1, 600, Control_c, 10, 93, 0
1, 604, Control_c, 11, 0, 0
1, 608, Control_c, 11, 32, 0
1, 608, Program_c, 11, 75
1, 616, Control_c, 11, 7, 100
1, 616, Control_c, 11, 10, 24
1, 616, Control_c, 11, 11, 127
1, 620, Control_c, 11, 91, 70
1, 620, Control_c, 11, 93, 0
1, 624, Control_c, 12, 0, 0
1, 628, Control_c, 12, 32, 0
1, 632, Program_c, 12, 100
1, 636, Control_c, 12, 7, 100
1, 636, Control_c, 12, 10, 104
1, 636, Control_c, 12, 11, 127
1, 640, Control_c, 12, 91, 65
1, 640, Control_c, 12, 93, 0
1, 644, Control_c, 13, 0, 0
1, 648, Control_c, 13, 32, 0
1, 652, Program_c, 13, 47
1, 656, Control_c, 13, 7, 120
1, 656, Control_c, 13, 10, 64
1, 656, Control_c, 13, 11, 127
1, 660, Control_c, 13, 91, 100
1, 660, Control_c, 13, 93, 80
1, 664, Control_c, 14, 0, 0
1, 668, Control_c, 14, 32, 0
1, 672, Program_c, 14, 53
1, 676, Control_c, 14, 7, 100
1, 676, Control_c, 14, 10, 64
1, 676, Control_c, 14, 11, 127
1, 680, Control_c, 14, 91, 110
1, 680, Control_c, 14, 93, 20
1, 684, Control_c, 15, 0, 0
1, 688, Control_c, 15, 32, 0
1, 692, Program_c, 15, 65
1, 696, Control_c, 15, 7, 125
1, 696, Control_c, 15, 10, 64
1, 696, Control_c, 15, 11, 127
1, 700, Control_c, 15, 91, 125
1, 700, Control_c, 15, 93, 0
1, 740, Control_c, 0, 101, 0
1, 744, Control_c, 0, 100, 0
1, 748, Control_c, 0, 6, 12
1, 752, Control_c, 0, 101, 127
1, 756, Control_c, 0, 100, 127
1, 788, Control_c, 1, 101, 0
1, 792, Control_c, 1, 100, 0
1, 796, Control_c, 1, 6, 12
1, 800, Control_c, 1, 101, 127
1, 804, Control_c, 1, 100, 127
1, 808, Control_c, 2, 101, 0
1, 812, Control_c, 2, 100, 0
1, 816, Control_c, 2, 6, 12
1, 820, Control_c, 2, 101, 127
1, 824, Control_c, 2, 100, 127
1, 828, Control_c, 3, 101, 0
1, 832, Control_c, 3, 100, 0
1, 836, Control_c, 3, 6, 12
1, 840, Control_c, 3, 101, 127
1, 844, Control_c, 3, 100, 127
1, 848, Control_c, 4, 101, 0
1, 852, Control_c, 4, 100, 0
1, 856, Control_c, 4, 6, 12
1, 860, Control_c, 4, 101, 127
1, 864, Control_c, 4, 100, 127
1, 868, Control_c, 5, 101, 0
1, 872, Control_c, 5, 100, 0
1, 876, Control_c, 5, 6, 12
1, 880, Control_c, 5, 101, 127
1, 884, Control_c, 5, 100, 127
1, 888, Control_c, 6, 101, 0
1, 892, Control_c, 6, 100, 0
1, 896, Control_c, 6, 6, 12
1, 900, Control_c, 6, 101, 127
1, 904, Control_c, 6, 100, 127
1, 908, Control_c, 7, 101, 0
1, 912, Control_c, 7, 100, 0
1, 916, Control_c, 7, 6, 12
1, 920, Control_c, 7, 101, 127
1, 924, Control_c, 7, 100, 127
1, 928, Control_c, 8, 101, 0
1, 932, Control_c, 8, 100, 0
1, 936, Control_c, 8, 6, 12
1, 940, Control_c, 8, 101, 127
1, 944, Control_c, 8, 100, 127
1, 948, Control_c, 9, 101, 0
1, 952, Control_c, 9, 100, 0
1, 956, Control_c, 9, 6, 12
1, 960, Control_c, 9, 101, 127
1, 964, Control_c, 9, 100, 127
1, 968, Control_c, 10, 101, 0
1, 972, Control_c, 10, 100, 0
1, 976, Control_c, 10, 6, 12
1, 980, Control_c, 10, 101, 127
1, 984, Control_c, 10, 100, 127
1, 988, Control_c, 11, 101, 0
1, 992, Control_c, 11, 100, 0
1, 996, Control_c, 11, 6, 12
1, 1000, Control_c, 11, 101, 127
1, 1004, Control_c, 11, 100, 127
1, 1008, Control_c, 12, 101, 0
1, 1012, Control_c, 12, 100, 0
1, 1016, Control_c, 12, 6, 12
1, 1020, Control_c, 12, 101, 127
1, 1024, Control_c, 12, 100, 127
1, 1028, Control_c, 13, 101, 0
1, 1032, Control_c, 13, 100, 0
1, 1036, Control_c, 13, 6, 12
1, 1040, Control_c, 13, 101, 127
1, 1044, Control_c, 13, 100, 127
1, 1048, Control_c, 14, 101, 0
1, 1052, Control_c, 14, 100, 0
1, 1056, Control_c, 14, 6, 12
1, 1060, Control_c, 14, 101, 127
1, 1064, Control_c, 14, 100, 127
1, 1068, Control_c, 15, 101, 0
1, 1072, Control_c, 15, 100, 0
1, 1076, Control_c, 15, 6, 12
1, 1080, Control_c, 15, 101, 127
1, 1084, Control_c, 15, 100, 127
1, 1388, System_exclusive, 73, 65, 16, 69, 18, 16, 1, 0, 28, 11, 11, 8, 1, 9, 8, 11, 31, 28, 29, 29, 29, 29, 28, 31, 16, 32, 6, 6, 6, 6, 6, 22, 31, 4, 21, 21, 21, 21, 5, 31, 3, 8, 9, 9, 8, 11, 3, 28, 31, 7, 23, 23, 23, 23, 23, 31, 31, 0, 31, 31, 0, 0, 0, 0, 31, 31, 31, 31, 31, 31, 31, 31, 83, 247
1, 1449, System_exclusive, 34, 65, 16, 69, 18, 16, 0, 0, 80, 114, 111, 103, 114, 97, 109, 109, 101, 100, 32, 98, 121, 32, 72, 97, 110, 100, 115, 32, 79, 110, 46, 32, 32, 14, 247
1, 1536, Tempo, 504200
1, 3012, System_exclusive, 73, 65, 16, 69, 18, 16, 1, 0, 3, 20, 20, 23, 30, 22, 23, 20, 3, 2, 2, 2, 2, 3, 0, 0, 16, 31, 25, 25, 25, 25, 25, 0, 27, 10, 10, 10, 10, 26, 0, 0, 28, 23, 22, 22, 23, 28, 0, 3, 24, 8, 8, 8, 8, 8, 0, 0, 0, 31, 0, 0, 31, 31, 31, 31, 0, 0, 0, 0, 0, 0, 0, 0, 71, 247
1, 4608, Note_on_c, 2, 72, 93
1, 4608, Note_on_c, 2, 84, 87
1, 4668, System_exclusive, 73, 65, 16, 69, 18, 16, 1, 0, 28, 11, 11, 8, 1, 9, 8, 11, 31, 28, 29, 29, 29, 29, 28, 31, 16, 32, 6, 6, 6, 6, 6, 22, 31, 4, 21, 21, 21, 21, 5, 31, 3, 8, 9, 9, 8, 11, 3, 28, 31, 7, 23, 23, 23, 23, 23, 31, 31, 0, 31, 31, 0, 0, 0, 0, 31, 31, 31, 31, 31, 31, 31, 31, 83, 247
1, 4792, Note_off_c, 2, 84, 87
1, 4792, Note_off_c, 2, 72, 93
1, 4800, Note_on_c, 2, 79, 89
1, 4800, Note_on_c, 2, 91, 81
1, 4984, Note_off_c, 2, 91, 81
1, 4984, Note_off_c, 2, 79, 89
1, 4992, Note_on_c, 2, 76, 90
1, 4992, Note_on_c, 2, 88, 96
1, 5176, Note_off_c, 2, 88, 96
1, 5176, Note_off_c, 2, 76, 90
1, 5184, Note_on_c, 2, 77, 84
1, 5184, Note_on_c, 2, 89, 80
1, 5368, Note_off_c, 2, 89, 80
1, 5368, Note_off_c, 2, 77, 84
1, 5376, Note_on_c, 2, 84, 88
1, 5376, Note_on_c, 2, 96, 91
1, 5560, Note_off_c, 2, 96, 91
1, 5560, Note_off_c, 2, 84, 88
1, 5568, Note_on_c, 2, 89, 85
1, 5568, Note_on_c, 2, 101, 78
1, 5752, Note_off_c, 2, 101, 78
1, 5752, Note_off_c, 2, 89, 85
1, 5952, Note_on_c, 2, 88, 86
1, 5952, Note_on_c, 2, 100, 89
1, 6136, Note_off_c, 2, 100, 89
1, 6136, Note_off_c, 2, 88, 86
1, 6336, Note_on_c, 2, 84, 86
1, 6336, Note_on_c, 2, 96, 95
1, 6520, Note_off_c, 2, 96, 95
1, 6520, Note_off_c, 2, 84, 86
1, 6636, System_exclusive, 73, 65, 16, 69, 18, 16, 1, 0, 0, 3, 20, 20, 23, 30, 22, 23, 20, 3, 2, 2, 2, 2, 3, 0, 0, 16, 31, 25, 25, 25, 25, 25, 0, 27, 10, 10, 10, 10, 26, 0, 0, 28, 23, 22, 22, 23, 28, 0, 3, 24, 8, 8, 8, 8, 8, 0, 0, 0, 31, 0, 0, 31, 31, 31, 31, 0, 0, 0, 0, 0, 0, 0, 71, 247
1, 6720, Note_on_c, 2, 79, 84
1, 6720, Note_on_c, 2, 91, 84
1, 6904, Note_off_c, 2, 91, 84
1, 6904, Note_off_c, 2, 79, 84
1, 7296, Note_on_c, 2, 86, 78
1, 7296, Note_on_c, 2, 98, 96
1, 7560, Note_off_c, 2, 98, 96
1, 7560, Note_off_c, 2, 86, 78
1, 7680, Note_on_c, 8, 48, 124
1, 7680, Note_on_c, 7, 60, 106
1, 7680, Note_on_c, 7, 64, 122
1, 7680, Note_on_c, 7, 67, 115
1, 7680, Note_on_c, 2, 72, 96
1, 7680, Note_on_c, 2, 84, 92
1, 7864, Note_off_c, 2, 84, 92
1, 7864, Note_off_c, 2, 72, 96
1, 7864, Note_off_c, 7, 67, 115
1, 7864, Note_off_c, 7, 64, 122
1, 7864, Note_off_c, 7, 60, 106
1, 7864, Note_off_c, 8, 48, 124
1, 7872, Note_on_c, 2, 79, 86
1, 7872, Note_on_c, 2, 91, 84
1, 8056, Note_off_c, 2, 91, 84
1, 8056, Note_off_c, 2, 79, 86
1, 8064, Note_on_c, 8, 52, 115
1, 8064, Note_on_c, 7, 60, 105
1, 8064, Note_on_c, 7, 64, 112
1, 8064, Note_on_c, 7, 67, 112
1, 8064, Note_on_c, 2, 76, 97
1, 8064, Note_on_c, 2, 88, 90
1, 8152, Note_off_c, 7, 67, 112
1, 8152, Note_off_c, 7, 64, 112
1, 8152, Note_off_c, 7, 60, 105
1, 8152, Note_off_c, 8, 52, 115
1, 8248, Note_off_c, 2, 88, 90
1, 8248, Note_off_c, 2, 76, 97
1, 8256, Note_on_c, 8, 53, 127
1, 8256, Note_on_c, 7, 60, 115
1, 8256, Note_on_c, 7, 65, 118
1, 8256, Note_on_c, 7, 69, 114
1, 8256, Note_on_c, 2, 77, 85
1, 8256, Note_on_c, 2, 89, 87
1, 8344, Note_off_c, 7, 69, 114
1, 8344, Note_off_c, 7, 65, 118
1, 8344, Note_off_c, 7, 60, 115
1, 8344, Note_off_c, 8, 53, 127
1, 8440, Note_off_c, 2, 89, 87
1, 8440, Note_off_c, 2, 77, 85
1, 8448, Note_on_c, 2, 84, 80
1, 8448, Note_on_c, 2, 96, 93
1, 8632, Note_off_c, 2, 96, 93
1, 8632, Note_off_c, 2, 84, 80
1, 8640, Note_on_c, 8, 52, 126
1, 8640, Note_on_c, 7, 60, 106
1, 8640, Note_on_c, 7, 64, 117
1, 8640, Note_on_c, 7, 67, 116
1, 8640, Note_on_c, 2, 89, 82
1, 8640, Note_on_c, 2, 101, 97
1, 8712, System_exclusive, 73, 65, 16, 69, 18, 16, 1, 0, 28, 11, 11, 8, 1, 9, 8, 11, 31, 28, 29, 29, 29, 29, 28, 31, 16, 32, 6, 6, 6, 6, 6, 22, 31, 4, 21, 21, 21, 21, 5, 31, 3, 8, 9, 9, 8, 11, 3, 28, 31, 7, 23, 23, 23, 23, 23, 31, 31, 0, 31, 31, 0, 0, 0, 0, 31, 31, 31, 31, 31, 31, 31, 31, 83, 247
1, 8728, Note_off_c, 7, 67, 116
1, 8728, Note_off_c, 7, 64, 117
1, 8728, Note_off_c, 7, 60, 106
1, 8728, Note_off_c, 8, 52, 126
1, 8824, Note_off_c, 2, 101, 97
1, 8824, Note_off_c, 2, 89, 82
1, 9024, Note_on_c, 8, 53, 122
1, 9024, Note_on_c, 7, 60, 119
1, 9024, Note_on_c, 7, 65, 122
1, 9024, Note_on_c, 7, 69, 103
1, 9024, Note_on_c, 2, 88, 96
1, 9024, Note_on_c, 2, 100, 79
1, 9112, Note_off_c, 7, 69, 103
1, 9112, Note_off_c, 7, 65, 122
1, 9112, Note_off_c, 7, 60, 119
1, 9112, Note_off_c, 8, 53, 122
1, 9208, Note_off_c, 2, 100, 79
1, 9208, Note_off_c, 2, 88, 96
1, 9408, Note_on_c, 8, 52, 127
1, 9408, Note_on_c, 7, 60, 122
1, 9408, Note_on_c, 7, 64, 109
1, 9408, Note_on_c, 7, 67, 103
1, 9408, Note_on_c, 2, 84, 91
1, 9408, Note_on_c, 2, 96, 94
1, 9496, Note_off_c, 7, 67, 103
1, 9496, Note_off_c, 7, 64, 109
1, 9496, Note_off_c, 7, 60, 122
1, 9496, Note_off_c, 8, 52, 127
1, 9592, Note_off_c, 2, 96, 94
1, 9592, Note_off_c, 2, 84, 91
1, 9792, Note_on_c, 8, 53, 125
1, 9792, Note_on_c, 7, 60, 107
1, 9792, Note_on_c, 7, 65, 111
1, 9792, Note_on_c, 7, 69, 110
1, 9792, Note_on_c, 2, 79, 83
1, 9792, Note_on_c, 2, 91, 80
1, 9880, Note_off_c, 7, 69, 110
1, 9880, Note_off_c, 7, 65, 111
1, 9880, Note_off_c, 7, 60, 107
1, 9880, Note_off_c, 8, 53, 125
1, 9976, Note_off_c, 2, 91, 80
1, 9976, Note_off_c, 2, 79, 83
1, 9984, Note_on_c, 8, 55, 122
1, 9984, Note_on_c, 7, 62, 117
1, 9984, Note_on_c, 7, 67, 114
1, 9984, Note_on_c, 7, 71, 110
1, 10168, Note_off_c, 7, 71, 110
1, 10168, Note_off_c, 7, 67, 114
1, 10168, Note_off_c, 7, 62, 117
1, 10168, Note_off_c, 8, 55, 122
1, 10368, Note_on_c, 8, 55, 121
1, 10368, Note_on_c, 7, 62, 109
1, 10368, Note_on_c, 7, 67, 122
1, 10368, Note_on_c, 7, 71, 114
1, 10368, Note_on_c, 2, 86, 78
1, 10368, Note_on_c, 2, 98, 90
1, 10552, Note_off_c, 7, 71, 114
1, 10552, Note_off_c, 7, 67, 122
1, 10552, Note_off_c, 7, 62, 109
1, 10552, Note_off_c, 8, 55, 121
1, 10632, Note_off_c, 2, 98, 90
1, 10632, Note_off_c, 2, 86, 78
1, 10752, Note_on_c, 14, 60, 127
1, 10752, Note_on_c, 14, 72, 125
1, 10752, Note_on_c, 15, 60, 121
1, 10752, Note_on_c, 8, 48, 127
1, 10752, Note_on_c, 7, 60, 107
1, 10752, Note_on_c, 7, 64, 103
1, 10752, Note_on_c, 7, 67, 109
1, 10752, Note_on_c, 2, 72, 92
1, 10752, Note_on_c, 2, 84, 94
1, 10764, System_exclusive, 73, 65, 16, 69, 18, 16, 1, 0, 0, 3, 20, 20, 23, 30, 22, 23, 20, 3, 2, 2, 2, 2, 3, 0, 0, 16, 31, 25, 25, 25, 25, 25, 0, 27, 10, 10, 10, 10, 26, 0, 0, 28, 23, 22, 22, 23, 28, 0, 3, 24, 8, 8, 8, 8, 8, 0, 0, 0, 31, 0, 0, 31, 31, 31, 31, 0, 0, 0, 0, 0, 0, 0, 71, 247
1, 10920, Note_off_c, 15, 60, 121
1, 10928, Note_off_c, 14, 72, 125
1, 10928, Note_off_c, 14, 60, 127
1, 10936, Note_off_c, 2, 84, 94
1, 10936, Note_off_c, 2, 72, 92
1, 10936, Note_off_c, 7, 67, 109
1, 10936, Note_off_c, 7, 64, 103
1, 10936, Note_off_c, 7, 60, 107
1, 10936, Note_off_c, 8, 48, 127
1, 10944, Note_on_c, 14, 57, 127
1, 10944, Note_on_c, 14, 69, 110
1, 10944, Note_on_c, 15, 57, 123
1, 10944, Note_on_c, 2, 79, 83
1, 10944, Note_on_c, 2, 91, 83
1, 11120, Note_off_c, 14, 69, 110
1, 11120, Note_off_c, 14, 57, 127
1, 11128, Note_off_c, 2, 91, 83
1, 11128, Note_off_c, 2, 79, 83
1, 11132, Note_off_c, 15, 57, 123
1, 11136, Note_on_c, 14, 60, 121
1, 11136, Note_on_c, 14, 72, 126
1, 11136, Note_on_c, 15, 60, 118
1, 11136, Note_on_c, 8, 52, 127
1, 11136, Note_on_c, 7, 60, 122
1, 11136, Note_on_c, 7, 64, 117
1, 11136, Note_on_c, 7, 67, 122
1, 11136, Note_on_c, 2, 76, 87
1, 11136, Note_on_c, 2, 88, 89
1, 11224, Note_off_c, 7, 67, 122
1, 11224, Note_off_c, 7, 64, 117
1, 11224, Note_off_c, 7, 60, 122
1, 11224, Note_off_c, 8, 52, 127
1, 11320, Note_off_c, 2, 88, 89
1, 11320, Note_off_c, 2, 76, 87
1, 11328, Note_on_c, 8, 53, 127
1, 11328, Note_on_c, 7, 60, 115
1, 11328, Note_on_c, 7, 65, 121
1, 11328, Note_on_c, 7, 69, 109
1, 11328, Note_on_c, 2, 77, 86
1, 11328, Note_on_c, 2, 89, 95
1, 11416, Note_off_c, 7, 69, 109
1, 11416, Note_off_c, 7, 65, 121
1, 11416, Note_off_c, 7, 60, 115
1, 11416, Note_off_c, 8, 53, 127
1, 11456, Note_off_c, 15, 60, 118
1, 11504, Note_off_c, 14, 72, 126
1, 11504, Note_off_c, 14, 60, 121
1, 11512, Note_off_c, 2, 89, 95
1, 11512, Note_off_c, 2, 77, 86
1, 11520, Note_on_c, 14, 60, 123
1, 11520, Note_on_c, 14, 72, 121
1, 11520, Note_on_c, 15, 60, 123
1, 11520, Note_on_c, 2, 84, 84
1, 11520, Note_on_c, 2, 96, 84
1, 11684, Note_off_c, 15, 60, 123
1, 11696, Note_off_c, 14, 72, 121
1, 11696, Note_off_c, 14, 60, 123
1, 11704, Note_off_c, 2, 96, 84
1, 11704, Note_off_c, 2, 84, 84
1, 11712, Note_on_c, 14, 57, 117
1, 11712, Note_on_c, 14, 69, 113
1, 11712, Note_on_c, 15, 57, 127
1, 11712, Note_on_c, 8, 52, 118
1, 11712, Note_on_c, 7, 60, 111
1, 11712, Note_on_c, 7, 64, 117
1, 11712, Note_on_c, 7, 67, 116
1, 11712, Note_on_c, 2, 89, 93
1, 11712, Note_on_c, 2, 101, 92
1, 11800, Note_off_c, 7, 67, 116
1, 11800, Note_off_c, 7, 64, 117
1, 11800, Note_off_c, 7, 60, 111
1, 11800, Note_off_c, 8, 52, 118
1, 11884, Note_off_c, 15, 57, 127
1, 11888, Note_off_c, 14, 69, 113
1, 11888, Note_off_c, 14, 57, 117
1, 11896, Note_off_c, 2, 101, 92
1, 11896, Note_off_c, 2, 89, 93
1, 11904, Note_on_c, 14, 60, 120
1, 11904, Note_on_c, 14, 72, 115
1, 11904, Note_on_c, 15, 60, 119
1, 12096, Note_on_c, 8, 53, 127
1, 12096, Note_on_c, 7, 60, 122
1, 12096, Note_on_c, 7, 65, 116
1, 12096, Note_on_c, 7, 69, 109
1, 12096, Note_on_c, 2, 88, 79
1, 12096, Note_on_c, 2, 100, 78
1, 12184, Note_off_c, 7, 69, 109
1, 12184, Note_off_c, 7, 65, 116
1, 12184, Note_off_c, 7, 60, 122
1, 12184, Note_off_c, 8, 53, 127
1, 12224, Note_off_c, 15, 60, 119
1, 12272, Note_off_c, 14, 72, 115
1, 12272, Note_off_c, 14, 60, 120
1, 12280, Note_off_c, 2, 100, 78
1, 12280, Note_off_c, 2, 88, 79
1, 12288, Note_on_c, 14, 60, 114
1, 12288, Note_on_c, 14, 72, 118
1, 12288, Note_on_c, 15, 60, 125
1, 12480, Note_on_c, 8, 52, 124
1, 12480, Note_on_c, 7, 60, 112
1, 12480, Note_on_c, 7, 64, 106
1, 12480, Note_on_c, 7, 67, 103
1, 12480, Note_on_c, 2, 84, 88
1, 12480, Note_on_c, 2, 96, 93
1, 12568, Note_off_c, 7, 67, 103
1, 12568, Note_off_c, 7, 64, 106
1, 12568, Note_off_c, 7, 60, 112
1, 12568, Note_off_c, 8, 52, 124
1, 12608, Note_off_c, 15, 60, 125
1, 12656, Note_off_c, 14, 72, 118
1, 12656, Note_off_c, 14, 60, 114
1, 12664, Note_off_c, 2, 96, 93
1, 12664, Note_off_c, 2, 84, 88
1, 12672, Note_on_c, 14, 60, 113
1, 12672, Note_on_c, 14, 72, 115
1, 12672, Note_on_c, 15, 60, 127
1, 12864, Note_on_c, 8, 53, 127
1, 12864, Note_on_c, 7, 60, 114
1, 12864, Note_on_c, 7, 65, 108
1, 12864, Note_on_c, 7, 69, 120
1, 12864, Note_on_c, 2, 79, 95
1, 12864, Note_on_c, 2, 91, 91
1, 12952, Note_off_c, 7, 69, 120
1, 12952, Note_off_c, 7, 65, 108
1, 12952, Note_off_c, 7, 60, 114
1, 12952, Note_off_c, 8, 53, 127
1, 12992, Note_off_c, 15, 60, 127
1, 13040, Note_off_c, 14, 72, 115
1, 13040, Note_off_c, 14, 60, 113
1, 13048, Note_off_c, 2, 91, 91
1, 13048, Note_off_c, 2, 79, 95
1, 13056, Note_on_c, 14, 64, 127
1, 13056, Note_on_c, 14, 76, 127
1, 13056, Note_on_c, 15, 64, 118
1, 13056, Note_on_c, 8, 55, 127
1, 13056, Note_on_c, 7, 62, 110
1, 13056, Note_on_c, 7, 67, 108
1, 13056, Note_on_c, 7, 71, 118
1, 13056, Note_on_c, 2, 48, 81
1, 13144, Note_off_c, 2, 48, 81
1, 13152, Note_on_c, 2, 50, 93
1, 13240, Note_off_c, 2, 50, 93
1, 13240, Note_off_c, 7, 71, 118
1, 13240, Note_off_c, 7, 67, 108
1, 13240, Note_off_c, 7, 62, 110
1, 13240, Note_off_c, 8, 55, 127
1, 13248, Note_on_c, 2, 52, 94
1, 13336, Note_off_c, 2, 52, 94
1, 13344, Note_on_c, 2, 53, 83
1, 13424, Note_off_c, 14, 76, 127
1, 13424, Note_off_c, 14, 64, 127
1, 13428, Note_off_c, 15, 64, 118
1, 13432, Note_off_c, 2, 53, 83
1, 13440, Note_on_c, 14, 62, 124
1, 13440, Note_on_c, 14, 74, 115
1, 13440, Note_on_c, 15, 62, 124
1, 13440, Note_on_c, 8, 55, 121
1, 13440, Note_on_c, 7, 62, 109
1, 13440, Note_on_c, 7, 67, 116
1, 13440, Note_on_c, 7, 71, 107
1, 13440, Note_on_c, 2, 53, 82
1, 13440, Note_on_c, 2, 86, 83
1, 13440, Note_on_c, 2, 98, 93
1, 13528, Note_off_c, 2, 53, 82
1, 13536, Note_on_c, 2, 55, 78
1, 13600, Note_off_c, 15, 62, 124
1, 13616, Note_off_c, 14, 74, 115
1, 13616, Note_off_c, 14, 62, 124
1, 13624, Note_off_c, 2, 55, 78
1, 13624, Note_off_c, 7, 71, 107
1, 13624, Note_off_c, 7, 67, 116
1, 13624, Note_off_c, 7, 62, 109
1, 13624, Note_off_c, 8, 55, 121
1, 13632, Note_on_c, 14, 60, 127
1, 13632, Note_on_c, 14, 72, 125
1, 13632, Note_on_c, 15, 60, 127
1, 13632, Note_on_c, 2, 57, 83
1, 13704, Note_off_c, 2, 98, 93
1, 13704, Note_off_c, 2, 86, 83
1, 13720, Note_off_c, 2, 57, 83
1, 13728, Note_on_c, 2, 59, 83
1, 13816, Note_off_c, 2, 59, 83
1, 13824, Note_on_c, 8, 48, 127
1, 13824, Note_on_c, 7, 60, 110
1, 13824, Note_on_c, 7, 64, 109
1, 13824, Note_on_c, 7, 67, 122
1, 13824, Note_on_c, 2, 60, 82
1, 13824, Note_on_c, 2, 72, 85
1, 13824, Note_on_c, 2, 84, 88
1, 13912, Note_off_c, 2, 60, 82
1, 14008, Note_off_c, 2, 84, 88
1, 14008, Note_off_c, 2, 72, 85
1, 14008, Note_off_c, 7, 67, 122
1, 14008, Note_off_c, 7, 64, 109
1, 14008, Note_off_c, 7, 60, 110
1, 14008, Note_off_c, 8, 48, 127
1, 14016, Note_on_c, 2, 79, 83
1, 14016, Note_on_c, 2, 91, 78
1, 14200, Note_off_c, 2, 91, 78
1, 14200, Note_off_c, 2, 79, 83
1, 14208, Note_on_c, 8, 52, 118
1, 14208, Note_on_c, 7, 60, 114
1, 14208, Note_on_c, 7, 64, 115
1, 14208, Note_on_c, 7, 67, 112
1, 14208, Note_on_c, 2, 76, 92
1, 14208, Note_on_c, 2, 88, 85
1, 14296, Note_off_c, 7, 67, 112
1, 14296, Note_off_c, 7, 64, 115
1, 14296, Note_off_c, 7, 60, 114
1, 14296, Note_off_c, 8, 52, 118
1, 14392, Note_off_c, 2, 88, 85
1, 14392, Note_off_c, 2, 76, 92
1, 14400, Note_on_c, 8, 53, 126
1, 14400, Note_on_c, 7, 60, 117
1, 14400, Note_on_c, 7, 65, 112
1, 14400, Note_on_c, 7, 69, 121
1, 14400, Note_on_c, 2, 77, 80
1, 14400, Note_on_c, 2, 89, 81
1, 14488, Note_off_c, 7, 69, 121
1, 14488, Note_off_c, 7, 65, 112
1, 14488, Note_off_c, 7, 60, 117
1, 14488, Note_off_c, 8, 53, 126
1, 14584, Note_off_c, 2, 89, 81
1, 14584, Note_off_c, 2, 77, 80
1, 14592, Note_on_c, 2, 84, 86
1, 14592, Note_on_c, 2, 96, 80
1, 14768, Note_off_c, 14, 72, 125
1, 14768, Note_off_c, 14, 60, 127
1, 14776, Note_off_c, 2, 96, 80
1, 14776, Note_off_c, 2, 84, 86
1, 14784, Note_on_c, 8, 52, 117
1, 14784, Note_on_c, 7, 60, 120
1, 14784, Note_on_c, 7, 64, 113
1, 14784, Note_on_c, 7, 67, 107
1, 14784, Note_on_c, 2, 89, 78
1, 14784, Note_on_c, 2, 101, 93
1, 14872, Note_off_c, 7, 67, 107
1, 14872, Note_off_c, 7, 64, 113
1, 14872, Note_off_c, 7, 60, 120
1, 14872, Note_off_c, 8, 52, 117
1, 14968, Note_off_c, 2, 101, 93
1, 14968, Note_off_c, 2, 89, 78
1, 15128, Note_off_c, 15, 60, 127
1, 15168, Note_on_c, 8, 53, 127
1, 15168, Note_on_c, 7, 60, 121
1, 15168, Note_on_c, 7, 65, 107
1, 15168, Note_on_c, 7, 69, 111
1, 15168, Note_on_c, 2, 88, 94
1, 15168, Note_on_c, 2, 100, 82
1, 15256, Note_off_c, 7, 69, 111
1, 15256, Note_off_c, 7, 65, 107
1, 15256, Note_off_c, 7, 60, 121
1, 15256, Note_off_c, 8, 53, 127
1, 15352, Note_off_c, 2, 100, 82
1, 15352, Note_off_c, 2, 88, 94
1, 15552, Note_on_c, 8, 52, 121
1, 15552, Note_on_c, 7, 60, 122
1, 15552, Note_on_c, 7, 64, 105
1, 15552, Note_on_c, 7, 67, 114
1, 15552, Note_on_c, 2, 84, 81
1, 15552, Note_on_c, 2, 96, 94
1, 15640, Note_off_c, 7, 67, 114
1, 15640, Note_off_c, 7, 64, 105
1, 15640, Note_off_c, 7, 60, 122
1, 15640, Note_off_c, 8, 52, 121
1, 15736, Note_off_c, 2, 96, 94
1, 15736, Note_off_c, 2, 84, 81
1, 15840, Control_c, 1, 99, 1
1, 15936, Note_on_c, 8, 53, 121
1, 15936, Note_on_c, 7, 60, 118
1, 15936, Note_on_c, 7, 65, 112
1, 15936, Note_on_c, 7, 69, 120
1, 15936, Note_on_c, 2, 79, 93
1, 15936, Note_on_c, 2, 91, 89
1, 15936, Control_c, 1, 98, 32
1, 16024, Note_off_c, 7, 69, 120
1, 16024, Note_off_c, 7, 65, 112
1, 16024, Note_off_c, 7, 60, 118
1, 16024, Note_off_c, 8, 53, 121
1, 16032, Control_c, 1, 6, 40
1, 16120, Note_off_c, 2, 91, 89
1, 16120, Note_off_c, 2, 79, 93
1, 16128, Note_on_c, 8, 55, 127
1, 16128, Note_on_c, 7, 62, 117
1, 16128, Note_on_c, 7, 67, 120
1, 16128, Note_on_c, 7, 71, 111
1, 16312, Note_off_c, 7, 71, 111
1, 16312, Note_off_c, 7, 67, 120
1, 16312, Note_off_c, 7, 62, 117
1, 16312, Note_off_c, 8, 55, 127
1, 16512, Note_on_c, 13, 43, 105
1, 16512, Note_on_c, 8, 55, 122
1, 16512, Note_on_c, 7, 62, 117
1, 16512, Note_on_c, 7, 67, 103
1, 16512, Note_on_c, 7, 71, 111
1, 16512, Note_on_c, 2, 43, 89
1, 16512, Note_on_c, 2, 55, 88
1, 16512, Note_on_c, 1, 31, 103
1, 16512, Note_on_c, 9, 36, 108
1, 16512, Note_on_c, 9, 38, 113
1, 16512, Note_on_c, 9, 43, 67
1, 16512, Note_on_c, 9, 49, 123
1, 16516, Note_off_c, 9, 49, 123
1, 16516, Note_off_c, 9, 43, 67
1, 16516, Note_off_c, 9, 38, 113
1, 16516, Note_off_c, 9, 36, 108
1, 16624, Pitch_bend_c, 1, 8192
1, 16632, Pitch_bend_c, 1, 8308
1, 16640, Pitch_bend_c, 1, 8424
1, 16648, Pitch_bend_c, 1, 8540
1, 16656, Pitch_bend_c, 1, 8656
1, 16664, Pitch_bend_c, 1, 8772
1, 16668, Note_off_c, 13, 43, 105
1, 16672, Pitch_bend_c, 1, 8888
1, 16680, Pitch_bend_c, 1, 9004
1, 16688, Pitch_bend_c, 1, 9120
1, 16696, Note_off_c, 7, 71, 111
1, 16696, Note_off_c, 7, 67, 103
1, 16696, Note_off_c, 7, 62, 117
1, 16696, Note_off_c, 8, 55, 122
1, 16696, Pitch_bend_c, 1, 9236
1, 16704, Pitch_bend_c, 1, 9353
1, 16712, Pitch_bend_c, 1, 9469
1, 16720, Pitch_bend_c, 1, 9585
1, 16728, Pitch_bend_c, 1, 9701
1, 16736, Pitch_bend_c, 1, 9817
1, 16744, Pitch_bend_c, 1, 9933
1, 16752, Pitch_bend_c, 1, 10049
1, 16760, Pitch_bend_c, 1, 10165
1, 16768, Pitch_bend_c, 1, 10282
1, 16776, Note_off_c, 2, 55, 88
1, 16776, Note_off_c, 2, 43, 89
1, 16776, Pitch_bend_c, 1, 10398
1, 16784, Pitch_bend_c, 1, 10514
1, 16792, Pitch_bend_c, 1, 10630
1, 16800, Pitch_bend_c, 1, 10746
1, 16808, Pitch_bend_c, 1, 10862
1, 16816, Pitch_bend_c, 1, 10978
1, 16824, Pitch_bend_c, 1, 11094
1, 16832, Pitch_bend_c, 1, 11211
1, 16840, Pitch_bend_c, 1, 11327
1, 16848, Pitch_bend_c, 1, 11443
1, 16856, Pitch_bend_c, 1, 11559
1, 16864, Note_off_c, 1, 31, 103
1, 16864, Pitch_bend_c, 1, 11675
1, 16872, Pitch_bend_c, 1, 11791
1, 16880, Pitch_bend_c, 1, 11907
1, 16888, Pitch_bend_c, 1, 8192
1, 16896, Tempo, 500000
1, 16896, Note_on_c, 14, 60, 117
1, 16896, Note_on_c, 14, 72, 111
1, 16896, Note_on_c, 15, 60, 122
1, 16896, Note_on_c, 8, 48, 119
1, 16896, Note_on_c, 7, 60, 115
1, 16896, Note_on_c, 7, 64, 105
1, 16896, Note_on_c, 7, 67, 120
1, 16896, Note_on_c, 3, 72, 52
1, 16896, Note_on_c, 2, 72, 79
1, 16896, Note_on_c, 2, 84, 93
1, 16896, Note_on_c, 1, 36, 102
1, 16896, Note_on_c, 9, 36, 117
1, 16896, Note_on_c, 9, 42, 79
1, 16896, Note_on_c, 9, 54, 35
1, 16896, Note_on_c, 9, 69, 36
1, 16900, Note_off_c, 9, 69, 36
1, 16900, Note_off_c, 9, 54, 35
1, 16900, Note_off_c, 9, 42, 79
1, 16900, Note_off_c, 9, 36, 117
1, 16984, Note_off_c, 3, 72, 52
1, 16984, Pitch_bend_c, 1, 8192
1, 16992, Note_on_c, 3, 72, 57
1, 16992, Pitch_bend_c, 1, 8009
1, 16992, Note_on_c, 9, 54, 48
1, 16996, Note_off_c, 9, 54, 48
1, 17000, Pitch_bend_c, 1, 7827
1, 17008, Pitch_bend_c, 1, 7644
1, 17016, Pitch_bend_c, 1, 7461
1, 17024, Pitch_bend_c, 1, 7278
1, 17032, Pitch_bend_c, 1, 7096
1, 17040, Pitch_bend_c, 1, 6913
1, 17048, Pitch_bend_c, 1, 6730
1, 17056, Note_off_c, 15, 60, 122
1, 17056, Pitch_bend_c, 1, 6548
1, 17064, Pitch_bend_c, 1, 6365
1, 17072, Note_off_c, 14, 72, 111
1, 17072, Note_off_c, 14, 60, 117
1, 17072, Pitch_bend_c, 1, 6182
1, 17080, Note_off_c, 3, 72, 57
1, 17080, Note_off_c, 2, 84, 93
1, 17080, Note_off_c, 2, 72, 79
1, 17080, Note_off_c, 7, 67, 120
1, 17080, Note_off_c, 7, 64, 105
1, 17080, Note_off_c, 7, 60, 115
1, 17080, Note_off_c, 8, 48, 119
1, 17080, Pitch_bend_c, 1, 6000
1, 17088, Note_on_c, 14, 57, 116
1, 17088, Note_on_c, 14, 69, 127
1, 17088, Note_on_c, 15, 57, 127
1, 17088, Note_on_c, 3, 72, 58
1, 17088, Note_on_c, 2, 79, 92
1, 17088, Note_on_c, 2, 91, 87
1, 17088, Pitch_bend_c, 1, 5817
1, 17088, Note_on_c, 9, 46, 92
1, 17088, Note_on_c, 9, 54, 48
1, 17088, Note_on_c, 9, 69, 40
1, 17092, Note_off_c, 9, 69, 40
1, 17092, Note_off_c, 9, 54, 48
1, 17092, Note_off_c, 9, 46, 92
1, 17096, Pitch_bend_c, 1, 5634
1, 17104, Pitch_bend_c, 1, 5451
1, 17112, Pitch_bend_c, 1, 5269
1, 17120, Pitch_bend_c, 1, 5086
1, 17128, Pitch_bend_c, 1, 4903
1, 17136, Pitch_bend_c, 1, 4720
1, 17144, Pitch_bend_c, 1, 4538
1, 17152, Pitch_bend_c, 1, 4355
1, 17160, Pitch_bend_c, 1, 4172
1, 17168, Pitch_bend_c, 1, 3990
1, 17172, Note_off_c, 1, 36, 102
1, 17176, Note_off_c, 3, 72, 58
1, 17176, Pitch_bend_c, 1, 3807
1, 17184, Note_on_c, 3, 72, 66
1, 17184, Pitch_bend_c, 1, 3624
1, 17184, Note_on_c, 9, 54, 45
1, 17184, Note_on_c, 9, 69, 41
1, 17188, Note_off_c, 9, 69, 41
1, 17188, Note_off_c, 9, 54, 45
1, 17192, Pitch_bend_c, 1, 3441
1, 17200, Pitch_bend_c, 1, 3259
1, 17208, Pitch_bend_c, 1, 3076
1, 17216, Pitch_bend_c, 1, 8192
1, 17264, Note_off_c, 15, 57, 127
1, 17264, Note_off_c, 14, 69, 127
1, 17264, Note_off_c, 14, 57, 116
1, 17272, Note_off_c, 3, 72, 66
1, 17272, Note_off_c, 2, 91, 87
1, 17272, Note_off_c, 2, 79, 92
1, 17280, Note_on_c, 14, 60, 117
1, 17280, Note_on_c, 14, 72, 122
1, 17280, Note_on_c, 15, 60, 118
1, 17280, Note_on_c, 8, 52, 115
1, 17280, Note_on_c, 7, 60, 117
1, 17280, Note_on_c, 7, 64, 122
1, 17280, Note_on_c, 7, 67, 122
1, 17280, Note_on_c, 3, 72, 59
1, 17280, Note_on_c, 2, 76, 92
1, 17280, Note_on_c, 2, 88, 82
1, 17280, Note_on_c, 9, 39, 98
1, 17280, Note_on_c, 1, 28, 119
1, 17280, Note_on_c, 9, 36, 124
1, 17280, Note_on_c, 9, 38, 123
1, 17280, Note_on_c, 9, 42, 79
1, 17280, Note_on_c, 9, 54, 39
1, 17280, Note_on_c, 9, 69, 35
1, 17284, Note_off_c, 9, 69, 35
1, 17284, Note_off_c, 9, 54, 39
1, 17284, Note_off_c, 9, 42, 79
1, 17284, Note_off_c, 9, 38, 123
1, 17284, Note_off_c, 9, 36, 124
1, 17284, Note_off_c, 9, 39, 98
1, 17368, Note_off_c, 3, 72, 59
1, 17368, Note_off_c, 7, 67, 122
1, 17368, Note_off_c, 7, 64, 122
1, 17368, Note_off_c, 7, 60, 117
1, 17368, Note_off_c, 8, 52, 115
1, 17376, Note_on_c, 3, 72, 65
1, 17376, Note_on_c, 9, 54, 42
1, 17380, Note_off_c, 9, 54, 42
1, 17460, Note_off_c, 1, 28, 119
1, 17464, Note_off_c, 3, 72, 65
1, 17464, Note_off_c, 2, 88, 82
1, 17464, Note_off_c, 2, 76, 92
1, 17472, Note_on_c, 8, 53, 123
1, 17472, Note_on_c, 7, 60, 111
1, 17472, Note_on_c, 7, 65, 105
1, 17472, Note_on_c, 7, 69, 122
1, 17472, Note_on_c, 3, 72, 63
1, 17472, Note_on_c, 2, 77, 83
1, 17472, Note_on_c, 2, 89, 90
1, 17472, Note_on_c, 1, 29, 115
1, 17472, Note_on_c, 9, 42, 78
1, 17472, Note_on_c, 9, 54, 32
1, 17472, Note_on_c, 9, 69, 33
1, 17476, Note_off_c, 9, 69, 33
1, 17476, Note_off_c, 9, 54, 32
1, 17476, Note_off_c, 9, 42, 78
1, 17560, Note_off_c, 3, 72, 63
1, 17560, Note_off_c, 7, 69, 122
1, 17560, Note_off_c, 7, 65, 105
1, 17560, Note_off_c, 7, 60, 111
1, 17560, Note_off_c, 8, 53, 123
1, 17568, Note_on_c, 3, 72, 54
1, 17568, Note_on_c, 9, 54, 33
1, 17568, Note_on_c, 9, 69, 31
1, 17572, Note_off_c, 9, 69, 31
1, 17572, Note_off_c, 9, 54, 33
1, 17600, Note_off_c, 15, 60, 118
1, 17648, Note_off_c, 14, 72, 122
1, 17648, Note_off_c, 14, 60, 117
1, 17652, Note_off_c, 1, 29, 115
1, 17656, Note_off_c, 3, 72, 54
1, 17656, Note_off_c, 2, 89, 90
1, 17656, Note_off_c, 2, 77, 83
1, 17664, Note_on_c, 14, 60, 127
1, 17664, Note_on_c, 14, 72, 112
1, 17664, Note_on_c, 15, 60, 110
1, 17664, Note_on_c, 3, 72, 60
1, 17664, Note_on_c, 2, 84, 88
1, 17664, Note_on_c, 2, 96, 95
1, 17664, Note_on_c, 9, 36, 109
1, 17664, Note_on_c, 9, 42, 79
1, 17664, Note_on_c, 9, 54, 42
1, 17664, Note_on_c, 9, 69, 47
1, 17668, Note_off_c, 9, 69, 47
1, 17668, Note_off_c, 9, 54, 42
1, 17668, Note_off_c, 9, 42, 79
1, 17668, Note_off_c, 9, 36, 109
1, 17752, Note_off_c, 3, 72, 60
1, 17760, Note_on_c, 3, 72, 63
1, 17760, Note_on_c, 9, 54, 36
1, 17764, Note_off_c, 9, 54, 36
1, 17840, Note_off_c, 14, 72, 112
1, 17840, Note_off_c, 14, 60, 127
1, 17844, Note_off_c, 15, 60, 110
1, 17848, Note_off_c, 3, 72, 63
1, 17848, Note_off_c, 2, 96, 95
1, 17848, Note_off_c, 2, 84, 88
1, 17856, Note_on_c, 14, 57, 127
1, 17856, Note_on_c, 14, 69, 121
1, 17856, Note_on_c, 15, 57, 111
1, 17856, Note_on_c, 8, 52, 120
1, 17856, Note_on_c, 7, 60, 105
1, 17856, Note_on_c, 7, 64, 112
1, 17856, Note_on_c, 7, 67, 116
1, 17856, Note_on_c, 3, 72, 58
1, 17856, Note_on_c, 2, 89, 78
1, 17856, Note_on_c, 2, 101, 95
1, 17856, Note_on_c, 1, 28, 103
1, 17856, Note_on_c, 9, 42, 87
1, 17856, Note_on_c, 9, 54, 33
1, 17856, Note_on_c, 9, 69, 42
1, 17860, Note_off_c, 9, 69, 42
1, 17860, Note_off_c, 9, 54, 33
1, 17860, Note_off_c, 9, 42, 87
1, 17944, Note_off_c, 3, 72, 58
1, 17944, Note_off_c, 7, 67, 116
1, 17944, Note_off_c, 7, 64, 112
1, 17944, Note_off_c, 7, 60, 105
1, 17944, Note_off_c, 8, 52, 120
1, 17952, Note_on_c, 3, 72, 54
1, 17952, Note_on_c, 9, 54, 46
1, 17952, Note_on_c, 9, 69, 43
1, 17956, Note_off_c, 9, 69, 43
1, 17956, Note_off_c, 9, 54, 46
1, 18024, Note_off_c, 15, 57, 111
1, 18032, Note_off_c, 14, 69, 121
1, 18032, Note_off_c, 14, 57, 127
1, 18036, Note_off_c, 1, 28, 103
1, 18040, Note_off_c, 3, 72, 54
1, 18040, Note_off_c, 2, 101, 95
1, 18040, Note_off_c, 2, 89, 78
1, 18048, Note_on_c, 14, 60, 115
1, 18048, Note_on_c, 14, 72, 120
1, 18048, Note_on_c, 15, 60, 113
1, 18048, Note_on_c, 3, 72, 52
1, 18048, Note_on_c, 9, 39, 90
1, 18048, Note_on_c, 9, 36, 113
1, 18048, Note_on_c, 9, 38, 115
1, 18048, Note_on_c, 9, 42, 88
1, 18048, Note_on_c, 9, 54, 41
1, 18048, Note_on_c, 9, 69, 37
1, 18052, Note_off_c, 9, 69, 37
1, 18052, Note_off_c, 9, 54, 41
1, 18052, Note_off_c, 9, 42, 88
1, 18052, Note_off_c, 9, 38, 115
1, 18052, Note_off_c, 9, 36, 113
1, 18052, Note_off_c, 9, 39, 90
1, 18136, Note_off_c, 3, 72, 52
1, 18144, Note_on_c, 3, 72, 60
1, 18144, Note_on_c, 9, 54, 31
1, 18148, Note_off_c, 9, 54, 31
1, 18232, Note_off_c, 3, 72, 60
1, 18240, Note_on_c, 8, 53, 127
1, 18240, Note_on_c, 7, 60, 120
1, 18240, Note_on_c, 7, 65, 116
1, 18240, Note_on_c, 7, 69, 107
1, 18240, Note_on_c, 3, 72, 60
1, 18240, Note_on_c, 2, 88, 96
1, 18240, Note_on_c, 2, 100, 93
1, 18240, Note_on_c, 1, 29, 116
1, 18240, Note_on_c, 9, 42, 83
1, 18240, Note_on_c, 9, 54, 43
1, 18240, Note_on_c, 9, 69, 30
1, 18244, Note_off_c, 9, 69, 30
1, 18244, Note_off_c, 9, 54, 43
1, 18244, Note_off_c, 9, 42, 83
1, 18328, Note_off_c, 3, 72, 60
1, 18328, Note_off_c, 7, 69, 107
1, 18328, Note_off_c, 7, 65, 116
1, 18328, Note_off_c, 7, 60, 120
1, 18328, Note_off_c, 8, 53, 127
1, 18336, Note_on_c, 3, 72, 54
1, 18336, Note_on_c, 9, 54, 37
1, 18336, Note_on_c, 9, 69, 49
1, 18340, Note_off_c, 9, 69, 49
1, 18340, Note_off_c, 9, 54, 37
1, 18352, Note_off_c, 15, 60, 113
1, 18416, Note_off_c, 14, 72, 120
1, 18416, Note_off_c, 14, 60, 115
1, 18420, Note_off_c, 1, 29, 116
1, 18424, Note_off_c, 3, 72, 54
1, 18424, Note_off_c, 2, 100, 93
1, 18424, Note_off_c, 2, 88, 96
1, 18432, Note_on_c, 14, 60, 123
1, 18432, Note_on_c, 14, 72, 115
1, 18432, Note_on_c, 15, 60, 114
1, 18432, Note_on_c, 3, 72, 69
1, 18432, Note_on_c, 9, 36, 119
1, 18432, Note_on_c, 9, 42, 92
1, 18432, Note_on_c, 9, 54, 33
1, 18432, Note_on_c, 9, 69, 45
1, 18436, Note_off_c, 9, 69, 45
1, 18436, Note_off_c, 9, 54, 33
1, 18436, Note_off_c, 9, 42, 92
1, 18436, Note_off_c, 9, 36, 119
1, 18520, Note_off_c, 3, 72, 69
1, 18528, Note_on_c, 3, 72, 69
1, 18528, Note_on_c, 9, 54, 32
1, 18532, Note_off_c, 9, 54, 32
1, 18616, Note_off_c, 3, 72, 69
1, 18624, Note_on_c, 8, 52, 127
1, 18624, Note_on_c, 7, 60, 110
1, 18624, Note_on_c, 7, 64, 114
1, 18624, Note_on_c, 7, 67, 106
1, 18624, Note_on_c, 3, 72, 62
1, 18624, Note_on_c, 2, 84, 81
1, 18624, Note_on_c, 2, 96, 88
1, 18624, Note_on_c, 1, 28, 101
1, 18624, Note_on_c, 9, 46, 110
1, 18624, Note_on_c, 9, 54, 34
1, 18624, Note_on_c, 9, 69, 43
1, 18628, Note_off_c, 9, 69, 43
1, 18628, Note_off_c, 9, 54, 34
1, 18628, Note_off_c, 9, 46, 110
1, 18712, Note_off_c, 3, 72, 62
1, 18712, Note_off_c, 7, 67, 106
1, 18712, Note_off_c, 7, 64, 114
1, 18712, Note_off_c, 7, 60, 110
1, 18712, Note_off_c, 8, 52, 127
1, 18720, Note_on_c, 3, 72, 66
1, 18720, Note_on_c, 9, 54, 32
1, 18720, Note_on_c, 9, 69, 37
1, 18724, Note_off_c, 9, 69, 37
1, 18724, Note_off_c, 9, 54, 32
1, 18764, Note_off_c, 15, 60, 114
1, 18800, Note_off_c, 14, 72, 115
1, 18800, Note_off_c, 14, 60, 123
1, 18804, Note_off_c, 1, 28, 101
1, 18808, Note_off_c, 3, 72, 66
1, 18808, Note_off_c, 2, 96, 88
1, 18808, Note_off_c, 2, 84, 81
1, 18816, Note_on_c, 14, 60, 110
1, 18816, Note_on_c, 14, 72, 127
1, 18816, Note_on_c, 15, 60, 120
1, 18816, Note_on_c, 3, 72, 57
1, 18816, Note_on_c, 9, 39, 100
1, 18816, Note_on_c, 9, 36, 114
1, 18816, Note_on_c, 9, 38, 119
1, 18816, Note_on_c, 9, 42, 90
1, 18816, Note_on_c, 9, 54, 46
1, 18816, Note_on_c, 9, 69, 43
1, 18820, Note_off_c, 9, 69, 43
1, 18820, Note_off_c, 9, 54, 46
1, 18820, Note_off_c, 9, 42, 90
1, 18820, Note_off_c, 9, 38, 119
1, 18820, Note_off_c, 9, 36, 114
1, 18820, Note_off_c, 9, 39, 100
1, 18904, Note_off_c, 3, 72, 57
1, 18912, Note_on_c, 3, 72, 51
1, 18912, Note_on_c, 9, 54, 43
1, 18916, Note_off_c, 9, 54, 43
1, 19000, Note_off_c, 3, 72, 51
1, 19008, Note_on_c, 8, 53, 127
1, 19008, Note_on_c, 7, 60, 107
1, 19008, Note_on_c, 7, 65, 104
1, 19008, Note_on_c, 7, 69, 121
1, 19008, Note_on_c, 3, 72, 53
1, 19008, Note_on_c, 2, 79, 83
1, 19008, Note_on_c, 2, 91, 86
1, 19008, Note_on_c, 1, 29, 115
1, 19008, Note_on_c, 9, 42, 94
1, 19008, Note_on_c, 9, 54, 30
1, 19008, Note_on_c, 9, 69, 38
1, 19012, Note_off_c, 9, 69, 38
1, 19012, Note_off_c, 9, 54, 30
1, 19012, Note_off_c, 9, 42, 94
1, 19096, Note_off_c, 3, 72, 53
1, 19096, Note_off_c, 7, 69, 121
1, 19096, Note_off_c, 7, 65, 104
1, 19096, Note_off_c, 7, 60, 107
1, 19096, Note_off_c, 8, 53, 127
1, 19104, Note_on_c, 3, 72, 56
1, 19104, Note_on_c, 9, 54, 37
1, 19104, Note_on_c, 9, 69, 39
1, 19108, Note_off_c, 9, 69, 39
1, 19108, Note_off_c, 9, 54, 37
1, 19140, Note_off_c, 1, 29, 115
1, 19168, Note_off_c, 15, 60, 120
1, 19184, Note_off_c, 14, 72, 127
1, 19184, Note_off_c, 14, 60, 110
1, 19192, Note_off_c, 3, 72, 56
1, 19192, Note_off_c, 2, 91, 86
1, 19192, Note_off_c, 2, 79, 83
1, 19200, Note_on_c, 14, 64, 118
1, 19200, Note_on_c, 14, 76, 127
1, 19200, Note_on_c, 15, 64, 111
1, 19200, Note_on_c, 8, 55, 126
1, 19200, Note_on_c, 7, 62, 113
1, 19200, Note_on_c, 7, 67, 112
1, 19200, Note_on_c, 7, 71, 103
1, 19200, Note_on_c, 3, 72, 51
1, 19200, Note_on_c, 1, 31, 107
1, 19200, Note_on_c, 9, 36, 123
1, 19200, Note_on_c, 9, 42, 75
1, 19200, Note_on_c, 9, 54, 33
1, 19200, Note_on_c, 9, 69, 33
1, 19204, Note_off_c, 9, 69, 33
1, 19204, Note_off_c, 9, 54, 33
1, 19204, Note_off_c, 9, 42, 75
1, 19204, Note_off_c, 9, 36, 123
1, 19288, Note_off_c, 3, 72, 51
1, 19296, Note_on_c, 3, 72, 65
1, 19296, Note_on_c, 9, 54, 41
1, 19300, Note_off_c, 9, 54, 41
1, 19380, Note_off_c, 1, 31, 107
1, 19384, Note_off_c, 3, 72, 65
1, 19384, Note_off_c, 7, 71, 103
1, 19384, Note_off_c, 7, 67, 112
1, 19384, Note_off_c, 7, 62, 113
1, 19384, Note_off_c, 8, 55, 126
1, 19392, Note_on_c, 3, 72, 52
1, 19392, Note_on_c, 9, 42, 84
1, 19392, Note_on_c, 9, 54, 36
1, 19392, Note_on_c, 9, 69, 39
1, 19396, Note_off_c, 9, 69, 39
1, 19396, Note_off_c, 9, 54, 36
1, 19396, Note_off_c, 9, 42, 84
1, 19480, Note_off_c, 3, 72, 52
1, 19488, Note_on_c, 3, 72, 50
1, 19488, Note_on_c, 9, 54, 32
1, 19488, Note_on_c, 9, 69, 48
1, 19492, Note_off_c, 9, 69, 48
1, 19492, Note_off_c, 9, 54, 32
1, 19568, Note_off_c, 14, 76, 127
1, 19568, Note_off_c, 14, 64, 118
1, 19576, Note_off_c, 3, 72, 50
1, 19580, Note_off_c, 15, 64, 111
1, 19584, Note_on_c, 14, 62, 124
1, 19584, Note_on_c, 14, 74, 126
1, 19584, Note_on_c, 15, 62, 123
1, 19584, Note_on_c, 8, 55, 127
1, 19584, Note_on_c, 7, 62, 107
1, 19584, Note_on_c, 7, 67, 105
1, 19584, Note_on_c, 7, 71, 113
1, 19584, Note_on_c, 3, 72, 50
1, 19584, Note_on_c, 2, 86, 94
1, 19584, Note_on_c, 2, 98, 89
1, 19584, Note_on_c, 9, 39, 97
1, 19584, Note_on_c, 1, 31, 103
1, 19584, Note_on_c, 9, 36, 105
1, 19584, Note_on_c, 9, 38, 117
1, 19584, Note_on_c, 9, 42, 80
1, 19584, Note_on_c, 9, 54, 48
1, 19584, Note_on_c, 9, 69, 38
1, 19588, Note_off_c, 9, 69, 38
1, 19588, Note_off_c, 9, 54, 48
1, 19588, Note_off_c, 9, 42, 80
1, 19588, Note_off_c, 9, 38, 117
1, 19588, Note_off_c, 9, 36, 105
1, 19588, Note_off_c, 9, 39, 97
1, 19672, Note_off_c, 3, 72, 50
1, 19680, Note_on_c, 3, 72, 69
1, 19680, Note_on_c, 9, 54, 47
1, 19684, Note_off_c, 9, 54, 47
1, 19760, Note_off_c, 15, 62, 123
1, 19760, Note_off_c, 14, 74, 126
1, 19760, Note_off_c, 14, 62, 124
1, 19768, Note_off_c, 3, 72, 69
1, 19768, Note_off_c, 7, 71, 113
1, 19768, Note_off_c, 7, 67, 105
1, 19768, Note_off_c, 7, 62, 107
1, 19768, Note_off_c, 8, 55, 127
1, 19776, Note_on_c, 14, 60, 121
1, 19776, Note_on_c, 14, 72, 123
1, 19776, Note_on_c, 15, 60, 124
1, 19776, Note_on_c, 3, 72, 52
1, 19776, Note_on_c, 9, 42, 82
1, 19776, Note_on_c, 9, 54, 34
1, 19776, Note_on_c, 9, 69, 34
1, 19780, Note_off_c, 9, 69, 34
1, 19780, Note_off_c, 9, 54, 34
1, 19780, Note_off_c, 9, 42, 82
1, 19848, Note_off_c, 2, 98, 89
1, 19848, Note_off_c, 2, 86, 94
1, 19860, Note_off_c, 1, 31, 103
1, 19864, Note_off_c, 3, 72, 52
1, 19872, Note_on_c, 3, 72, 52
1, 19872, Note_on_c, 9, 54, 42
1, 19872, Note_on_c, 9, 69, 40
1, 19876, Note_off_c, 9, 69, 40
1, 19876, Note_off_c, 9, 54, 42
1, 19960, Note_off_c, 3, 72, 52
1, 19968, Note_on_c, 8, 48, 115
1, 19968, Note_on_c, 7, 60, 110
1, 19968, Note_on_c, 7, 64, 120
1, 19968, Note_on_c, 7, 67, 107
1, 19968, Note_on_c, 3, 72, 57
1, 19968, Note_on_c, 2, 72, 97
1, 19968, Note_on_c, 2, 84, 91
1, 19968, Note_on_c, 1, 36, 110
1, 19968, Note_on_c, 9, 36, 124
1, 19968, Note_on_c, 9, 42, 81
1, 19968, Note_on_c, 9, 54, 35
1, 19968, Note_on_c, 9, 69, 38
1, 19972, Note_off_c, 9, 69, 38
1, 19972, Note_off_c, 9, 54, 35
1, 19972, Note_off_c, 9, 42, 81
1, 19972, Note_off_c, 9, 36, 124
1, 20056, Note_off_c, 3, 72, 57
1, 20056, Pitch_bend_c, 1, 8192
1, 20064, Note_on_c, 3, 72, 60
1, 20064, Pitch_bend_c, 1, 8009
1, 20064, Note_on_c, 9, 54, 36
1, 20068, Note_off_c, 9, 54, 36
1, 20072, Pitch_bend_c, 1, 7827
1, 20080, Pitch_bend_c, 1, 7644
1, 20088, Pitch_bend_c, 1, 7461
1, 20096, Pitch_bend_c, 1, 7278
1, 20104, Pitch_bend_c, 1, 7096
1, 20112, Pitch_bend_c, 1, 6913
1, 20120, Pitch_bend_c, 1, 6730
1, 20128, Pitch_bend_c, 1, 6548
1, 20136, Pitch_bend_c, 1, 6365
1, 20144, Pitch_bend_c, 1, 6182
1, 20152, Note_off_c, 3, 72, 60
1, 20152, Note_off_c, 2, 84, 91
1, 20152, Note_off_c, 2, 72, 97
1, 20152, Note_off_c, 7, 67, 107
1, 20152, Note_off_c, 7, 64, 120
1, 20152, Note_off_c, 7, 60, 110
1, 20152, Note_off_c, 8, 48, 115
1, 20152, Pitch_bend_c, 1, 6000
1, 20160, Note_on_c, 3, 72, 69
1, 20160, Note_on_c, 2, 79, 89
1, 20160, Note_on_c, 2, 91, 86
1, 20160, Pitch_bend_c, 1, 5817
1, 20160, Note_on_c, 9, 46, 96
1, 20160, Note_on_c, 9, 54, 40
1, 20160, Note_on_c, 9, 69, 40
1, 20164, Note_off_c, 9, 69, 40
1, 20164, Note_off_c, 9, 54, 40
1, 20164, Note_off_c, 9, 46, 96
1, 20168, Pitch_bend_c, 1, 5634
1, 20176, Pitch_bend_c, 1, 5451
1, 20184, Pitch_bend_c, 1, 5269
1, 20192, Pitch_bend_c, 1, 5086
1, 20200, Pitch_bend_c, 1, 4903
1, 20208, Pitch_bend_c, 1, 4720
1, 20216, Pitch_bend_c, 1, 4538
1, 20224, Pitch_bend_c, 1, 4355
1, 20232, Pitch_bend_c, 1, 4172
1, 20240, Pitch_bend_c, 1, 3990
1, 20244, Note_off_c, 1, 36, 110
1, 20248, Note_off_c, 3, 72, 69
1, 20248, Pitch_bend_c, 1, 3807
1, 20256, Note_on_c, 3, 72, 62
1, 20256, Pitch_bend_c, 1, 3624
1, 20256, Note_on_c, 9, 54, 46
1, 20256, Note_on_c, 9, 69, 30
1, 20260, Note_off_c, 9, 69, 30
1, 20260, Note_off_c, 9, 54, 46
1, 20264, Pitch_bend_c, 1, 3441
1, 20272, Pitch_bend_c, 1, 3259
1, 20280, Pitch_bend_c, 1, 3076
1, 20288, Pitch_bend_c, 1, 8192
1, 20344, Note_off_c, 3, 72, 62
1, 20344, Note_off_c, 2, 91, 86
1, 20344, Note_off_c, 2, 79, 89
1, 20352, Note_on_c, 8, 52, 125
1, 20352, Note_on_c, 7, 60, 104
1, 20352, Note_on_c, 7, 64, 120
1, 20352, Note_on_c, 7, 67, 114
1, 20352, Note_on_c, 3, 72, 65
1, 20352, Note_on_c, 2, 76, 81
1, 20352, Note_on_c, 2, 88, 93
1, 20352, Note_on_c, 9, 39, 92
1, 20352, Note_on_c, 1, 28, 113
1, 20352, Note_on_c, 9, 36, 120
1, 20352, Note_on_c, 9, 38, 106
1, 20352, Note_on_c, 9, 42, 84
1, 20352, Note_on_c, 9, 54, 36
1, 20352, Note_on_c, 9, 69, 39
1, 20356, Note_off_c, 9, 69, 39
1, 20356, Note_off_c, 9, 54, 36
1, 20356, Note_off_c, 9, 42, 84
1, 20356, Note_off_c, 9, 38, 106
1, 20356, Note_off_c, 9, 36, 120
1, 20356, Note_off_c, 9, 39, 92
1, 20440, Note_off_c, 3, 72, 65
1, 20440, Note_off_c, 7, 67, 114
1, 20440, Note_off_c, 7, 64, 120
1, 20440, Note_off_c, 7, 60, 104
1, 20440, Note_off_c, 8, 52, 125
1, 20448, Note_on_c, 3, 72, 62
1, 20448, Note_on_c, 9, 54, 47
1, 20452, Note_off_c, 9, 54, 47
1, 20532, Note_off_c, 1, 28, 113
1, 20536, Note_off_c, 3, 72, 62
1, 20536, Note_off_c, 2, 88, 93
1, 20536, Note_off_c, 2, 76, 81
1, 20544, Note_on_c, 8, 53, 117
1, 20544, Note_on_c, 7, 60, 105
1, 20544, Note_on_c, 7, 65, 106
1, 20544, Note_on_c, 7, 69, 109
1, 20544, Note_on_c, 3, 72, 57
1, 20544, Note_on_c, 2, 77, 94
1, 20544, Note_on_c, 2, 89, 90
1, 20544, Note_on_c, 1, 29, 102
1, 20544, Note_on_c, 9, 42, 85
1, 20544, Note_on_c, 9, 54, 49
1, 20544, Note_on_c, 9, 69, 44
1, 20548, Note_off_c, 9, 69, 44
1, 20548, Note_off_c, 9, 54, 49
1, 20548, Note_off_c, 9, 42, 85
1, 20632, Note_off_c, 3, 72, 57
1, 20632, Note_off_c, 7, 69, 109
1, 20632, Note_off_c, 7, 65, 106
1, 20632, Note_off_c, 7, 60, 105
1, 20632, Note_off_c, 8, 53, 117
1, 20640, Note_on_c, 3, 72, 60
1, 20640, Note_on_c, 9, 54, 30
1, 20640, Note_on_c, 9, 69, 31
1, 20644, Note_off_c, 9, 69, 31
1, 20644, Note_off_c, 9, 54, 30
1, 20724, Note_off_c, 1, 29, 102
1, 20728, Note_off_c, 3, 72, 60
1, 20728, Note_off_c, 2, 89, 90
1, 20728, Note_off_c, 2, 77, 94
1, 20736, Note_on_c, 3, 72, 69
1, 20736, Note_on_c, 2, 84, 92
1, 20736, Note_on_c, 2, 96, 91
1, 20736, Note_on_c, 9, 36, 124
1, 20736, Note_on_c, 9, 42, 80
1, 20736, Note_on_c, 9, 54, 49
1, 20736, Note_on_c, 9, 69, 30
1, 20740, Note_off_c, 9, 69, 30
1, 20740, Note_off_c, 9, 54, 49
1, 20740, Note_off_c, 9, 42, 80
1, 20740, Note_off_c, 9, 36, 124
1, 20824, Note_off_c, 3, 72, 69
1, 20832, Note_on_c, 3, 72, 57
1, 20832, Note_on_c, 9, 54, 34
1, 20836, Note_off_c, 9, 54, 34
1, 20916, Note_off_c, 15, 60, 124
1, 20920, Note_off_c, 3, 72, 57
1, 20920, Note_off_c, 2, 96, 91
1, 20920, Note_off_c, 2, 84, 92
1, 20928, Note_on_c, 8, 52, 127
1, 20928, Note_on_c, 7, 60, 105
1, 20928, Note_on_c, 7, 64, 114
1, 20928, Note_on_c, 7, 67, 116
1, 20928, Note_on_c, 3, 72, 63
1, 20928, Note_on_c, 2, 89, 88
1, 20928, Note_on_c, 2, 101, 88
1, 20928, Note_on_c, 1, 28, 104
1, 20928, Note_on_c, 9, 42, 89
1, 20928, Note_on_c, 9, 54, 34
1, 20928, Note_on_c, 9, 69, 34
1, 20932, Note_off_c, 9, 69, 34
1, 20932, Note_off_c, 9, 54, 34
1, 20932, Note_off_c, 9, 42, 89
1, 21016, Note_off_c, 3, 72, 63
1, 21016, Note_off_c, 7, 67, 116
1, 21016, Note_off_c, 7, 64, 114
1, 21016, Note_off_c, 7, 60, 105
1, 21016, Note_off_c, 8, 52, 127
1, 21024, Note_on_c, 3, 72, 57
1, 21024, Note_on_c, 9, 54, 44
1, 21024, Note_on_c, 9, 69, 49
1, 21028, Note_off_c, 9, 69, 49
1, 21028, Note_off_c, 9, 54, 44
1, 21104, Note_off_c, 14, 72, 123
1, 21104, Note_off_c, 14, 60, 121
1, 21108, Note_off_c, 1, 28, 104
1, 21112, Note_off_c, 3, 72, 57
1, 21112, Note_off_c, 2, 101, 88
1, 21112, Note_off_c, 2, 89, 88
1, 21120, Note_on_c, 3, 72, 61
1, 21120, Note_on_c, 9, 39, 96
1, 21120, Note_on_c, 9, 36, 120
1, 21120, Note_on_c, 9, 38, 109
1, 21120, Note_on_c, 9, 42, 91
1, 21120, Note_on_c, 9, 54, 47
1, 21120, Note_on_c, 9, 69, 30
1, 21124, Note_off_c, 9, 69, 30
1, 21124, Note_off_c, 9, 54, 47
1, 21124, Note_off_c, 9, 42, 91
1, 21124, Note_off_c, 9, 38, 109
1, 21124, Note_off_c, 9, 36, 120
1, 21124, Note_off_c, 9, 39, 96
1, 21208, Note_off_c, 3, 72, 61
1, 21216, Note_on_c, 3, 72, 64
1, 21216, Note_on_c, 9, 54, 38
1, 21220, Note_off_c, 9, 54, 38
1, 21304, Note_off_c, 3, 72, 64
1, 21312, Note_on_c, 8, 53, 121
1, 21312, Note_on_c, 7, 60, 120
1, 21312, Note_on_c, 7, 65, 104
1, 21312, Note_on_c, 7, 69, 111
1, 21312, Note_on_c, 3, 72, 55
1, 21312, Note_on_c, 2, 88, 80
1, 21312, Note_on_c, 2, 100, 86
1, 21312, Note_on_c, 1, 29, 115
1, 21312, Note_on_c, 9, 42, 85
1, 21312, Note_on_c, 9, 54, 38
1, 21312, Note_on_c, 9, 69, 34
1, 21316, Note_off_c, 9, 69, 34
1, 21316, Note_off_c, 9, 54, 38
1, 21316, Note_off_c, 9, 42, 85
1, 21400, Note_off_c, 3, 72, 55
1, 21400, Note_off_c, 7, 69, 111
1, 21400, Note_off_c, 7, 65, 104
1, 21400, Note_off_c, 7, 60, 120
1, 21400, Note_off_c, 8, 53, 121
1, 21408, Note_on_c, 3, 72, 52
1, 21408, Note_on_c, 9, 54, 46
1, 21408, Note_on_c, 9, 69, 47
1, 21412, Note_off_c, 9, 69, 47
1, 21412, Note_off_c, 9, 54, 46
1, 21492, Note_off_c, 1, 29, 115
1, 21496, Note_off_c, 3, 72, 52
1, 21496, Note_off_c, 2, 100, 86
1, 21496, Note_off_c, 2, 88, 80
1, 21504, Note_on_c, 3, 72, 51
1, 21504, Note_on_c, 9, 36, 105
1, 21504, Note_on_c, 9, 42, 87
1, 21504, Note_on_c, 9, 54, 36
1, 21504, Note_on_c, 9, 69, 44
1, 21508, Note_off_c, 9, 69, 44
1, 21508, Note_off_c, 9, 54, 36
1, 21508, Note_off_c, 9, 42, 87
1, 21508, Note_off_c, 9, 36, 105
1, 21592, Note_off_c, 3, 72, 51
1, 21600, Note_on_c, 3, 72, 60
1, 21600, Note_on_c, 9, 54, 41
1, 21604, Note_off_c, 9, 54, 41
1, 21688, Note_off_c, 3, 72, 60
1, 21696, Note_on_c, 8, 52, 116
1, 21696, Note_on_c, 7, 60, 114
1, 21696, Note_on_c, 7, 64, 108
1, 21696, Note_on_c, 7, 67, 106
1, 21696, Note_on_c, 3, 72, 64
1, 21696, Note_on_c, 2, 84, 82
1, 21696, Note_on_c, 2, 96, 78
1, 21696, Note_on_c, 1, 28, 107
1, 21696, Note_on_c, 9, 46, 93
1, 21696, Note_on_c, 9, 54, 36
1, 21696, Note_on_c, 9, 69, 44
1, 21700, Note_off_c, 9, 69, 44
1, 21700, Note_off_c, 9, 54, 36
1, 21700, Note_off_c, 9, 46, 93
1, 21784, Note_off_c, 3, 72, 64
1, 21784, Note_off_c, 7, 67, 106
1, 21784, Note_off_c, 7, 64, 108
1, 21784, Note_off_c, 7, 60, 114
1, 21784, Note_off_c, 8, 52, 116
1, 21792, Note_on_c, 3, 72, 64
1, 21792, Note_on_c, 9, 54, 46
1, 21792, Note_on_c, 9, 69, 33
1, 21796, Note_off_c, 9, 69, 33
1, 21796, Note_off_c, 9, 54, 46
1, 21880, Note_off_c, 3, 72, 64
1, 21880, Note_off_c, 2, 96, 78
1, 21880, Note_off_c, 2, 84, 82
1, 21888, Note_on_c, 3, 72, 54
1, 21888, Note_on_c, 9, 39, 92
1, 21888, Note_on_c, 9, 36, 105
1, 21888, Note_on_c, 9, 38, 116
1, 21888, Note_on_c, 9, 42, 84
1, 21888, Note_on_c, 9, 54, 33
1, 21888, Note_on_c, 9, 69, 42
1, 21892, Note_off_c, 9, 69, 42
1, 21892, Note_off_c, 9, 54, 33
1, 21892, Note_off_c, 9, 42, 84
1, 21892, Note_off_c, 9, 38, 116
1, 21892, Note_off_c, 9, 36, 105
1, 21892, Note_off_c, 9, 39, 92
1, 21976, Note_off_c, 3, 72, 54
1, 21984, Note_on_c, 3, 72, 66
1, 21984, Note_on_c, 9, 54, 49
1, 21988, Note_off_c, 9, 54, 49
1, 22068, Note_off_c, 1, 28, 107
1, 22072, Note_off_c, 3, 72, 66
1, 22080, Note_on_c, 8, 53, 125
1, 22080, Note_on_c, 7, 60, 121
1, 22080, Note_on_c, 7, 65, 108
1, 22080, Note_on_c, 7, 69, 106
1, 22080, Note_on_c, 3, 72, 65
1, 22080, Note_on_c, 2, 79, 96
1, 22080, Note_on_c, 2, 91, 83
1, 22080, Note_on_c, 9, 42, 86
1, 22080, Note_on_c, 9, 54, 35
1, 22080, Note_on_c, 9, 69, 45
1, 22084, Note_off_c, 9, 69, 45
1, 22084, Note_off_c, 9, 54, 35
1, 22084, Note_off_c, 9, 42, 86
1, 22168, Note_off_c, 3, 72, 65
1, 22168, Note_off_c, 7, 69, 106
1, 22168, Note_off_c, 7, 65, 108
1, 22168, Note_off_c, 7, 60, 121
1, 22168, Note_off_c, 8, 53, 125
1, 22176, Note_on_c, 3, 72, 65
1, 22176, Note_on_c, 9, 54, 44
1, 22176, Note_on_c, 9, 69, 45
1, 22180, Note_off_c, 9, 69, 45
1, 22180, Note_off_c, 9, 54, 44
1, 22264, Note_off_c, 3, 72, 65
1, 22264, Note_off_c, 2, 91, 83
1, 22264, Note_off_c, 2, 79, 96
1, 22272, Note_on_c, 8, 55, 123
1, 22272, Note_on_c, 7, 62, 112
1, 22272, Note_on_c, 7, 67, 112
1, 22272, Note_on_c, 7, 71, 104
1, 22272, Note_on_c, 3, 72, 58
1, 22272, Note_on_c, 1, 31, 101
1, 22272, Note_on_c, 9, 36, 124
1, 22272, Note_on_c, 9, 42, 88
1, 22272, Note_on_c, 9, 54, 41
1, 22272, Note_on_c, 9, 69, 42
1, 22276, Note_off_c, 9, 69, 42
1, 22276, Note_off_c, 9, 54, 41
1, 22276, Note_off_c, 9, 42, 88
1, 22276, Note_off_c, 9, 36, 124
1, 22360, Note_off_c, 3, 72, 58
1, 22368, Note_on_c, 3, 72, 65
1, 22368, Note_on_c, 9, 54, 34
1, 22372, Note_off_c, 9, 54, 34
1, 22456, Note_off_c, 3, 72, 65
1, 22456, Note_off_c, 7, 71, 104
1, 22456, Note_off_c, 7, 67, 112
1, 22456, Note_off_c, 7, 62, 112
1, 22456, Note_off_c, 8, 55, 123
1, 22464, Note_on_c, 3, 72, 68
1, 22464, Note_on_c, 9, 36, 114
1, 22464, Note_on_c, 9, 42, 78
1, 22464, Note_on_c, 9, 54, 41
1, 22464, Note_on_c, 9, 69, 44
1, 22468, Note_off_c, 9, 69, 44
1, 22468, Note_off_c, 9, 54, 41
1, 22468, Note_off_c, 9, 42, 78
1, 22468, Note_off_c, 9, 36, 114
1, 22500, Note_off_c, 1, 31, 101
1, 22552, Note_off_c, 3, 72, 68
1, 22560, Note_on_c, 3, 72, 66
1, 22560, Note_on_c, 9, 54, 43
1, 22560, Note_on_c, 9, 69, 49
1, 22564, Note_off_c, 9, 69, 49
1, 22564, Note_off_c, 9, 54, 43
1, 22648, Note_off_c, 3, 72, 66
1, 22656, Note_on_c, 8, 55, 125
1, 22656, Note_on_c, 7, 62, 113
1, 22656, Note_on_c, 7, 67, 113
1, 22656, Note_on_c, 7, 71, 106
1, 22656, Note_on_c, 3, 72, 64
1, 22656, Note_on_c, 2, 86, 83
1, 22656, Note_on_c, 2, 98, 95
1, 22656, Note_on_c, 9, 39, 88
1, 22656, Note_on_c, 1, 31, 119
1, 22656, Note_on_c, 9, 36, 113
1, 22656, Note_on_c, 9, 38, 121
1, 22656, Note_on_c, 9, 42, 92
1, 22656, Note_on_c, 9, 54, 30
1, 22656, Note_on_c, 9, 69, 31
1, 22660, Note_off_c, 9, 69, 31
1, 22660, Note_off_c, 9, 54, 30
1, 22660, Note_off_c, 9, 42, 92
1, 22660, Note_off_c, 9, 38, 121
1, 22660, Note_off_c, 9, 36, 113
1, 22660, Note_off_c, 9, 39, 88
1, 22744, Note_off_c, 3, 72, 64
1, 22752, Note_on_c, 3, 72, 69
1, 22752, Note_on_c, 9, 54, 48
1, 22756, Note_off_c, 9, 54, 48
1, 22800, Pitch_bend_c, 1, 8192
1, 22808, Pitch_bend_c, 1, 8323
1, 22816, Pitch_bend_c, 1, 8456
1, 22824, Pitch_bend_c, 1, 8588
1, 22832, Pitch_bend_c, 1, 8720
1, 22840, Note_off_c, 3, 72, 69
1, 22840, Note_off_c, 7, 71, 106
1, 22840, Note_off_c, 7, 67, 113
1, 22840, Note_off_c, 7, 62, 113
1, 22840, Note_off_c, 8, 55, 125
1, 22840, Pitch_bend_c, 1, 8852
1, 22848, Note_on_c, 3, 72, 69
1, 22848, Pitch_bend_c, 1, 8984
1, 22848, Note_on_c, 9, 46, 104
1, 22848, Note_on_c, 9, 54, 49
1, 22848, Note_on_c, 9, 69, 37
1, 22852, Note_off_c, 9, 69, 37
1, 22852, Note_off_c, 9, 54, 49
1, 22852, Note_off_c, 9, 46, 104
1, 22856, Pitch_bend_c, 1, 9116
1, 22864, Pitch_bend_c, 1, 9248
1, 22872, Pitch_bend_c, 1, 9380
1, 22880, Pitch_bend_c, 1, 9512
1, 22888, Pitch_bend_c, 1, 9644
1, 22896, Pitch_bend_c, 1, 9776
1, 22904, Pitch_bend_c, 1, 9908
1, 22912, Pitch_bend_c, 1, 10040
1, 22920, Note_off_c, 2, 98, 95
1, 22920, Note_off_c, 2, 86, 83
1, 22920, Pitch_bend_c, 1, 10172
1, 22928, Pitch_bend_c, 1, 10305
1, 22932, Note_off_c, 1, 31, 119
1, 22936, Note_off_c, 3, 72, 69
1, 22936, Pitch_bend_c, 1, 10437
1, 22944, Note_on_c, 3, 72, 51
1, 22944, Pitch_bend_c, 1, 10569
1, 22944, Note_on_c, 9, 54, 41
1, 22944, Note_on_c, 9, 69, 36
1, 22948, Note_off_c, 9, 69, 36
1, 22948, Note_off_c, 9, 54, 41
1, 22952, Pitch_bend_c, 1, 10701
1, 22960, Pitch_bend_c, 1, 10833
1, 22968, Pitch_bend_c, 1, 10965
1, 22976, Pitch_bend_c, 1, 11097
1, 22984, Pitch_bend_c, 1, 11229
1, 22992, Pitch_bend_c, 1, 11361
1, 23000, Pitch_bend_c, 1, 11493
1, 23008, Pitch_bend_c, 1, 11625
1, 23016, Pitch_bend_c, 1, 11757
1, 23024, Pitch_bend_c, 1, 8192
1, 23032, Note_off_c, 3, 72, 51
1, 23040, Tempo, 504200
1, 23040, Note_on_c, 0, 64, 49
1, 23040, Note_on_c, 10, 64, 71
1, 23040, Note_on_c, 10, 67, 77
1, 23040, Note_on_c, 10, 72, 75
1, 23040, Note_on_c, 2, 41, 85
1, 23040, Note_on_c, 1, 41, 118
1, 23040, Note_on_c, 9, 36, 106
1, 23040, Note_on_c, 9, 42, 79
1, 23040, Note_on_c, 9, 54, 49
1, 23040, Note_on_c, 9, 69, 35
1, 23044, Note_off_c, 9, 69, 35
1, 23044, Note_off_c, 9, 54, 49
1, 23044, Note_off_c, 9, 42, 79
1, 23044, Note_off_c, 9, 36, 106
1, 23124, Note_off_c, 1, 41, 118
1, 23136, Note_on_c, 9, 54, 42
1, 23140, Note_off_c, 9, 54, 42
1, 23232, Note_on_c, 1, 41, 103
1, 23232, Note_on_c, 9, 42, 76
1, 23232, Note_on_c, 9, 54, 47
1, 23232, Note_on_c, 9, 69, 41
1, 23236, Note_off_c, 9, 69, 41
1, 23236, Note_off_c, 9, 54, 47
1, 23236, Note_off_c, 9, 42, 76
1, 23316, Note_off_c, 1, 41, 103
1, 23328, Note_on_c, 9, 54, 44
1, 23328, Note_on_c, 9, 69, 39
1, 23332, Note_off_c, 9, 69, 39
1, 23332, Note_off_c, 9, 54, 44
1, 23424, Note_on_c, 9, 39, 89
1, 23424, Note_on_c, 1, 41, 102
1, 23424, Note_on_c, 9, 38, 121
1, 23424, Note_on_c, 9, 42, 78
1, 23424, Note_on_c, 9, 54, 48
1, 23424, Note_on_c, 9, 69, 30
1, 23428, Note_off_c, 9, 69, 30
1, 23428, Note_off_c, 9, 54, 48
1, 23428, Note_off_c, 9, 42, 78
1, 23428, Note_off_c, 9, 38, 121
1, 23428, Note_off_c, 9, 39, 89
1, 23508, Note_off_c, 1, 41, 102
1, 23520, Note_on_c, 9, 54, 38
1, 23524, Note_off_c, 9, 54, 38
1, 23616, Note_on_c, 1, 41, 118
1, 23616, Note_on_c, 9, 42, 83
1, 23616, Note_on_c, 9, 54, 45
1, 23616, Note_on_c, 9, 69, 47
1, 23620, Note_off_c, 9, 69, 47
1, 23620, Note_off_c, 9, 54, 45
1, 23620, Note_off_c, 9, 42, 83
1, 23700, Note_off_c, 1, 41, 118
1, 23712, Note_on_c, 9, 54, 33
1, 23712, Note_on_c, 9, 69, 49
1, 23716, Note_off_c, 9, 69, 49
1, 23716, Note_off_c, 9, 54, 33
1, 23808, Note_on_c, 1, 41, 112
1, 23808, Note_on_c, 9, 36, 107
1, 23808, Note_on_c, 9, 42, 75
1, 23808, Note_on_c, 9, 54, 35
1, 23808, Note_on_c, 9, 69, 49
1, 23812, Note_off_c, 9, 69, 49
1, 23812, Note_off_c, 9, 54, 35
1, 23812, Note_off_c, 9, 42, 75
1, 23812, Note_off_c, 9, 36, 107
1, 23892, Note_off_c, 1, 41, 112
1, 23904, Note_on_c, 9, 54, 41
1, 23908, Note_off_c, 9, 54, 41
1, 24000, Note_on_c, 15, 57, 120
1, 24000, Note_on_c, 1, 41, 115
1, 24000, Note_on_c, 9, 42, 88
1, 24000, Note_on_c, 9, 54, 31
1, 24000, Note_on_c, 9, 69, 30
1, 24004, Note_off_c, 9, 69, 30
1, 24004, Note_off_c, 9, 54, 31
1, 24004, Note_off_c, 9, 42, 88
1, 24084, Note_off_c, 1, 41, 115
1, 24096, Note_on_c, 9, 54, 39
1, 24096, Note_on_c, 9, 69, 47
1, 24100, Note_off_c, 9, 69, 47
1, 24100, Note_off_c, 9, 54, 39
1, 24176, Note_off_c, 15, 57, 120
1, 24192, Note_on_c, 15, 60, 127
1, 24192, Note_on_c, 9, 39, 88
1, 24192, Note_on_c, 1, 41, 118
1, 24192, Note_on_c, 9, 38, 105
1, 24192, Note_on_c, 9, 42, 75
1, 24192, Note_on_c, 9, 54, 49
1, 24192, Note_on_c, 9, 69, 42
1, 24196, Note_off_c, 9, 69, 42
1, 24196, Note_off_c, 9, 54, 49
1, 24196, Note_off_c, 9, 42, 75
1, 24196, Note_off_c, 9, 38, 105
1, 24196, Note_off_c, 9, 39, 88
1, 24272, Note_off_c, 15, 60, 127
1, 24276, Note_off_c, 1, 41, 118
1, 24288, Note_on_c, 15, 62, 124
1, 24288, Note_on_c, 9, 54, 46
1, 24292, Note_off_c, 9, 54, 46
1, 24368, Note_off_c, 15, 62, 124
1, 24384, Note_on_c, 1, 41, 101
1, 24384, Note_on_c, 9, 42, 92
1, 24384, Note_on_c, 9, 54, 43
1, 24384, Note_on_c, 9, 69, 33
1, 24388, Note_off_c, 9, 69, 33
1, 24388, Note_off_c, 9, 54, 43
1, 24388, Note_off_c, 9, 42, 92
1, 24468, Note_off_c, 1, 41, 101
1, 24480, Note_on_c, 15, 64, 126
1, 24480, Note_on_c, 9, 54, 42
1, 24480, Note_on_c, 9, 69, 43
1, 24484, Note_off_c, 9, 69, 43
1, 24484, Note_off_c, 9, 54, 42
1, 24576, Note_on_c, 1, 41, 106
1, 24576, Note_on_c, 9, 36, 117
1, 24576, Note_on_c, 9, 42, 81
1, 24576, Note_on_c, 9, 54, 33
1, 24576, Note_on_c, 9, 69, 41
1, 24580, Note_off_c, 9, 69, 41
1, 24580, Note_off_c, 9, 54, 33
1, 24580, Note_off_c, 9, 42, 81
1, 24580, Note_off_c, 9, 36, 117
1, 24660, Note_off_c, 1, 41, 106
1, 24672, Note_on_c, 9, 54, 40
1, 24676, Note_off_c, 9, 54, 40
1, 24752, Note_off_c, 15, 64, 126
1, 24768, Note_on_c, 15, 62, 113
1, 24768, Note_on_c, 1, 41, 113
1, 24768, Note_on_c, 9, 42, 86
1, 24768, Note_on_c, 9, 54, 35
1, 24768, Note_on_c, 9, 69, 42
1, 24772, Note_off_c, 9, 69, 42
1, 24772, Note_off_c, 9, 54, 35
1, 24772, Note_off_c, 9, 42, 86
1, 24852, Note_off_c, 1, 41, 113
1, 24864, Note_on_c, 9, 54, 36
1, 24864, Note_on_c, 9, 69, 43
1, 24868, Note_off_c, 9, 69, 43
1, 24868, Note_off_c, 9, 54, 36
1, 24944, Note_off_c, 15, 62, 113
1, 24960, Note_on_c, 15, 60, 116
1, 24960, Note_on_c, 9, 39, 97
1, 24960, Note_on_c, 1, 41, 109
1, 24960, Note_on_c, 9, 36, 115
1, 24960, Note_on_c, 9, 38, 119
1, 24960, Note_on_c, 9, 42, 79
1, 24960, Note_on_c, 9, 54, 46
1, 24960, Note_on_c, 9, 69, 39
1, 24964, Note_off_c, 9, 69, 39
1, 24964, Note_off_c, 9, 54, 46
1, 24964, Note_off_c, 9, 42, 79
1, 24964, Note_off_c, 9, 38, 119
1, 24964, Note_off_c, 9, 36, 115
1, 24964, Note_off_c, 9, 39, 97
1, 25040, Note_off_c, 15, 60, 116
1, 25044, Note_off_c, 1, 41, 109
1, 25056, Note_on_c, 15, 62, 118
1, 25056, Note_on_c, 9, 54, 49
1, 25060, Note_off_c, 9, 54, 49
1, 25136, Note_off_c, 15, 62, 118
1, 25152, Note_on_c, 15, 60, 115
1, 25152, Note_on_c, 1, 41, 102
1, 25152, Note_on_c, 9, 42, 81
1, 25152, Note_on_c, 9, 54, 44
1, 25152, Note_on_c, 9, 69, 46
1, 25156, Note_off_c, 9, 69, 46
1, 25156, Note_off_c, 9, 54, 44
1, 25156, Note_off_c, 9, 42, 81
1, 25236, Note_off_c, 1, 41, 102
1, 25248, Note_on_c, 9, 54, 37
1, 25248, Note_on_c, 9, 69, 38
1, 25252, Note_off_c, 9, 69, 38
1, 25252, Note_off_c, 9, 54, 37
1, 25336, Note_off_c, 10, 72, 75
1, 25336, Note_off_c, 10, 67, 77
1, 25336, Note_off_c, 10, 64, 71
1, 25344, Note_on_c, 10, 64, 66
1, 25344, Note_on_c, 10, 67, 66
1, 25344, Note_on_c, 10, 72, 66
1, 25344, Note_on_c, 1, 41, 117
1, 25344, Note_on_c, 9, 36, 119
1, 25344, Note_on_c, 9, 42, 79
1, 25344, Note_on_c, 9, 54, 49
1, 25344, Note_on_c, 9, 69, 43
1, 25348, Note_off_c, 9, 69, 43
1, 25348, Note_off_c, 9, 54, 49
1, 25348, Note_off_c, 9, 42, 79
1, 25348, Note_off_c, 9, 36, 119
1, 25400, Note_off_c, 10, 72, 66
1, 25400, Note_off_c, 10, 67, 66
1, 25400, Note_off_c, 10, 64, 66
1, 25408, Note_on_c, 10, 64, 71
1, 25408, Note_on_c, 10, 67, 71
1, 25408, Note_on_c, 10, 72, 71
1, 25428, Note_off_c, 1, 41, 117
1, 25440, Note_on_c, 9, 54, 43
1, 25444, Note_off_c, 9, 54, 43
1, 25464, Note_off_c, 10, 72, 71
1, 25464, Note_off_c, 10, 67, 71
1, 25464, Note_off_c, 10, 64, 71
1, 25472, Note_on_c, 10, 64, 76
1, 25472, Note_on_c, 10, 67, 76
1, 25472, Note_on_c, 10, 72, 76
1, 25528, Note_off_c, 10, 72, 76
1, 25528, Note_off_c, 10, 67, 76
1, 25528, Note_off_c, 10, 64, 76
1, 25536, Note_on_c, 10, 64, 80
1, 25536, Note_on_c, 10, 67, 80
1, 25536, Note_on_c, 10, 72, 80
1, 25536, Note_on_c, 1, 41, 116
1, 25536, Note_on_c, 9, 42, 81
1, 25536, Note_on_c, 9, 54, 40
1, 25536, Note_on_c, 9, 69, 35
1, 25540, Note_off_c, 9, 69, 35
1, 25540, Note_off_c, 9, 54, 40
1, 25540, Note_off_c, 9, 42, 81
1, 25592, Note_off_c, 10, 72, 80
1, 25592, Note_off_c, 10, 67, 80
1, 25592, Note_off_c, 10, 64, 80
1, 25600, Note_on_c, 10, 64, 85
1, 25600, Note_on_c, 10, 67, 85
1, 25600, Note_on_c, 10, 72, 85
1, 25620, Note_off_c, 1, 41, 116
1, 25632, Note_on_c, 9, 54, 39
1, 25632, Note_on_c, 9, 69, 30
1, 25636, Note_off_c, 9, 69, 30
1, 25636, Note_off_c, 9, 54, 39
1, 25656, Note_off_c, 10, 72, 85
1, 25656, Note_off_c, 10, 67, 85
1, 25656, Note_off_c, 10, 64, 85
1, 25664, Note_on_c, 10, 64, 90
1, 25664, Note_on_c, 10, 67, 90
1, 25664, Note_on_c, 10, 72, 90
1, 25720, Note_off_c, 10, 72, 90
1, 25720, Note_off_c, 10, 67, 90
1, 25720, Note_off_c, 10, 64, 90
1, 25728, Note_on_c, 10, 64, 95
1, 25728, Note_on_c, 10, 67, 95
1, 25728, Note_on_c, 10, 72, 95
1, 25728, Note_on_c, 9, 39, 85
1, 25728, Note_on_c, 1, 41, 107
1, 25728, Note_on_c, 9, 36, 122
1, 25728, Note_on_c, 9, 38, 117
1, 25728, Note_on_c, 9, 42, 92
1, 25728, Note_on_c, 9, 54, 49
1, 25728, Note_on_c, 9, 69, 33
1, 25732, Note_off_c, 9, 69, 33
1, 25732, Note_off_c, 9, 54, 49
1, 25732, Note_off_c, 9, 42, 92
1, 25732, Note_off_c, 9, 38, 117
1, 25732, Note_off_c, 9, 36, 122
1, 25732, Note_off_c, 9, 39, 85
1, 25784, Note_off_c, 10, 72, 95
1, 25784, Note_off_c, 10, 67, 95
1, 25784, Note_off_c, 10, 64, 95
1, 25792, Note_on_c, 10, 64, 100
1, 25792, Note_on_c, 10, 67, 100
1, 25792, Note_on_c, 10, 72, 100
1, 25812, Note_off_c, 1, 41, 107
1, 25824, Note_on_c, 9, 54, 34
1, 25828, Note_off_c, 9, 54, 34
1, 25848, Note_off_c, 10, 72, 100
1, 25848, Note_off_c, 10, 67, 100
1, 25848, Note_off_c, 10, 64, 100
1, 25856, Note_on_c, 10, 64, 104
1, 25856, Note_on_c, 10, 67, 104
1, 25856, Note_on_c, 10, 72, 104
1, 25912, Note_off_c, 10, 72, 104
1, 25912, Note_off_c, 10, 67, 104
1, 25912, Note_off_c, 10, 64, 104
1, 25920, Note_on_c, 10, 64, 109
1, 25920, Note_on_c, 10, 67, 109
1, 25920, Note_on_c, 10, 72, 109
1, 25920, Note_on_c, 1, 41, 105
1, 25920, Note_on_c, 9, 42, 83
1, 25920, Note_on_c, 9, 54, 39
1, 25920, Note_on_c, 9, 69, 49
1, 25924, Note_off_c, 9, 69, 49
1, 25924, Note_off_c, 9, 54, 39
1, 25924, Note_off_c, 9, 42, 83
1, 25976, Note_off_c, 10, 72, 109
1, 25976, Note_off_c, 10, 67, 109
1, 25976, Note_off_c, 10, 64, 109
1, 25984, Note_on_c, 10, 64, 114
1, 25984, Note_on_c, 10, 67, 114
1, 25984, Note_on_c, 10, 72, 114
1, 26004, Note_off_c, 1, 41, 105
1, 26016, Note_on_c, 9, 54, 30
1, 26016, Note_on_c, 9, 69, 30
1, 26020, Note_off_c, 9, 69, 30
1, 26020, Note_off_c, 9, 54, 30
1, 26040, Note_off_c, 10, 72, 114
1, 26040, Note_off_c, 10, 67, 114
1, 26040, Note_off_c, 10, 64, 114
1, 26048, Note_off_c, 0, 64, 49
1, 26048, Note_on_c, 10, 64, 119
1, 26048, Note_on_c, 10, 67, 119
1, 26048, Note_on_c, 10, 72, 119
1, 26096, Note_off_c, 15, 60, 115
1, 26104, Note_off_c, 10, 72, 119
1, 26104, Note_off_c, 10, 67, 119
1, 26104, Note_off_c, 10, 64, 119
1, 26104, Note_off_c, 2, 41, 85
1, 26112, Tempo, 500000
1, 26112, Note_on_c, 8, 48, 115
1, 26112, Note_on_c, 7, 60, 106
1, 26112, Note_on_c, 7, 64, 110
1, 26112, Note_on_c, 7, 67, 103
1, 26112, Note_on_c, 1, 36, 110
1, 26112, Note_on_c, 9, 36, 106
1, 26112, Note_on_c, 9, 42, 80
1, 26112, Note_on_c, 9, 54, 38
1, 26112, Note_on_c, 9, 69, 47
1, 26116, Note_off_c, 9, 69, 47
1, 26116, Note_off_c, 9, 54, 38
1, 26116, Note_off_c, 9, 42, 80
1, 26116, Note_off_c, 9, 36, 106
1, 26200, Pitch_bend_c, 1, 8192
1, 26208, Pitch_bend_c, 1, 8009
1, 26208, Note_on_c, 9, 54, 44
1, 26212, Note_off_c, 9, 54, 44
1, 26216, Pitch_bend_c, 1, 7827
1, 26224, Pitch_bend_c, 1, 7644
1, 26232, Pitch_bend_c, 1, 7461
1, 26240, Pitch_bend_c, 1, 7278
1, 26248, Pitch_bend_c, 1, 7096
1, 26256, Pitch_bend_c, 1, 6913
1, 26264, Pitch_bend_c, 1, 6730
1, 26272, Pitch_bend_c, 1, 6548
1, 26280, Pitch_bend_c, 1, 6365
1, 26288, Pitch_bend_c, 1, 6182
1, 26296, Note_off_c, 7, 67, 103
1, 26296, Note_off_c, 7, 64, 110
1, 26296, Note_off_c, 7, 60, 106
1, 26296, Note_off_c, 8, 48, 115
1, 26296, Pitch_bend_c, 1, 6000
1, 26304, Pitch_bend_c, 1, 5817
1, 26304, Note_on_c, 9, 42, 87
1, 26304, Note_on_c, 9, 54, 49
1, 26304, Note_on_c, 9, 69, 32
1, 26308, Note_off_c, 9, 69, 32
1, 26308, Note_off_c, 9, 54, 49
1, 26308, Note_off_c, 9, 42, 87
1, 26312, Pitch_bend_c, 1, 5634
1, 26320, Pitch_bend_c, 1, 5451
1, 26328, Pitch_bend_c, 1, 5269
1, 26336, Pitch_bend_c, 1, 5086
1, 26344, Pitch_bend_c, 1, 4903
1, 26352, Pitch_bend_c, 1, 4720
1, 26360, Pitch_bend_c, 1, 4538
1, 26368, Pitch_bend_c, 1, 4355
1, 26376, Pitch_bend_c, 1, 4172
1, 26384, Pitch_bend_c, 1, 3990
1, 26388, Note_off_c, 1, 36, 110
1, 26392, Pitch_bend_c, 1, 3807
1, 26400, Pitch_bend_c, 1, 3624
1, 26400, Note_on_c, 9, 54, 32
1, 26400, Note_on_c, 9, 69, 33
1, 26404, Note_off_c, 9, 69, 33
1, 26404, Note_off_c, 9, 54, 32
1, 26408, Pitch_bend_c, 1, 3441
1, 26416, Pitch_bend_c, 1, 3259
1, 26424, Pitch_bend_c, 1, 3076
1, 26432, Pitch_bend_c, 1, 8192
1, 26496, Note_on_c, 8, 52, 127
1, 26496, Note_on_c, 7, 60, 115
1, 26496, Note_on_c, 7, 64, 117
1, 26496, Note_on_c, 7, 67, 110
1, 26496, Note_on_c, 9, 39, 101
1, 26496, Note_on_c, 1, 28, 108
1, 26496, Note_on_c, 9, 38, 108
1, 26496, Note_on_c, 9, 42, 80
1, 26496, Note_on_c, 9, 54, 43
1, 26496, Note_on_c, 9, 69, 38
1, 26500, Note_off_c, 9, 69, 38
1, 26500, Note_off_c, 9, 54, 43
1, 26500, Note_off_c, 9, 42, 80
1, 26500, Note_off_c, 9, 38, 108
1, 26500, Note_off_c, 9, 39, 101
1, 26584, Note_off_c, 7, 67, 110
1, 26584, Note_off_c, 7, 64, 117
1, 26584, Note_off_c, 7, 60, 115
1, 26584, Note_off_c, 8, 52, 127
1, 26592, Note_on_c, 9, 54, 42
1, 26596, Note_off_c, 9, 54, 42
1, 26676, Note_off_c, 1, 28, 108
1, 26688, Note_on_c, 8, 53, 123
1, 26688, Note_on_c, 7, 60, 107
1, 26688, Note_on_c, 7, 65, 115
1, 26688, Note_on_c, 7, 69, 109
1, 26688, Note_on_c, 1, 29, 107
1, 26688, Note_on_c, 9, 42, 92
1, 26688, Note_on_c, 9, 54, 47
1, 26688, Note_on_c, 9, 69, 42
1, 26692, Note_off_c, 9, 69, 42
1, 26692, Note_off_c, 9, 54, 47
1, 26692, Note_off_c, 9, 42, 92
1, 26776, Note_off_c, 7, 69, 109
1, 26776, Note_off_c, 7, 65, 115
1, 26776, Note_off_c, 7, 60, 107
1, 26776, Note_off_c, 8, 53, 123
1, 26784, Note_on_c, 9, 54, 44
1, 26784, Note_on_c, 9, 69, 33
1, 26788, Note_off_c, 9, 69, 33
1, 26788, Note_off_c, 9, 54, 44
1, 26868, Note_off_c, 1, 29, 107
1, 26880, Note_on_c, 9, 36, 120
1, 26880, Note_on_c, 9, 42, 76
1, 26880, Note_on_c, 9, 54, 42
1, 26880, Note_on_c, 9, 69, 38
1, 26884, Note_off_c, 9, 69, 38
1, 26884, Note_off_c, 9, 54, 42
1, 26884, Note_off_c, 9, 42, 76
1, 26884, Note_off_c, 9, 36, 120
1, 26976, Note_on_c, 9, 54, 45
1, 26980, Note_off_c, 9, 54, 45
1, 27072, Note_on_c, 15, 55, 119
1, 27072, Note_on_c, 8, 52, 118
1, 27072, Note_on_c, 7, 60, 110
1, 27072, Note_on_c, 7, 64, 104
1, 27072, Note_on_c, 7, 67, 114
1, 27072, Note_on_c, 1, 28, 107
1, 27072, Note_on_c, 9, 42, 89
1, 27072, Note_on_c, 9, 54, 31
1, 27072, Note_on_c, 9, 69, 41
1, 27076, Note_off_c, 9, 69, 41
1, 27076, Note_off_c, 9, 54, 31
1, 27076, Note_off_c, 9, 42, 89
1, 27160, Note_off_c, 7, 67, 114
1, 27160, Note_off_c, 7, 64, 104
1, 27160, Note_off_c, 7, 60, 110
1, 27160, Note_off_c, 8, 52, 118
1, 27168, Note_on_c, 9, 54, 39
1, 27168, Note_on_c, 9, 69, 45
1, 27172, Note_off_c, 9, 69, 45
1, 27172, Note_off_c, 9, 54, 39
1, 27248, Note_off_c, 15, 55, 119
1, 27252, Note_off_c, 1, 28, 107
1, 27264, Note_on_c, 15, 57, 125
1, 27264, Note_on_c, 9, 39, 86
1, 27264, Note_on_c, 9, 38, 106
1, 27264, Note_on_c, 9, 42, 82
1, 27264, Note_on_c, 9, 54, 36
1, 27264, Note_on_c, 9, 69, 43
1, 27268, Note_off_c, 9, 69, 43
1, 27268, Note_off_c, 9, 54, 36
1, 27268, Note_off_c, 9, 42, 82
1, 27268, Note_off_c, 9, 38, 106
1, 27268, Note_off_c, 9, 39, 86
1, 27344, Note_off_c, 15, 57, 125
1, 27360, Note_on_c, 15, 55, 110
1, 27360, Note_on_c, 9, 54, 43
1, 27364, Note_off_c, 9, 54, 43
1, 27440, Note_off_c, 15, 55, 110
1, 27456, Note_on_c, 15, 60, 110
1, 27456, Note_on_c, 8, 53, 124
1, 27456, Note_on_c, 7, 60, 110
1, 27456, Note_on_c, 7, 65, 106
1, 27456, Note_on_c, 7, 69, 111
1, 27456, Note_on_c, 1, 29, 109
1, 27456, Note_on_c, 9, 42, 85
1, 27456, Note_on_c, 9, 54, 35
1, 27456, Note_on_c, 9, 69, 43
1, 27460, Note_off_c, 9, 69, 43
1, 27460, Note_off_c, 9, 54, 35
1, 27460, Note_off_c, 9, 42, 85
1, 27544, Note_off_c, 7, 69, 111
1, 27544, Note_off_c, 7, 65, 106
1, 27544, Note_off_c, 7, 60, 110
1, 27544, Note_off_c, 8, 53, 124
1, 27552, Note_on_c, 9, 54, 47
1, 27552, Note_on_c, 9, 69, 47
1, 27556, Note_off_c, 9, 69, 47
1, 27556, Note_off_c, 9, 54, 47
1, 27636, Note_off_c, 1, 29, 109
1, 27648, Note_on_c, 9, 36, 112
1, 27648, Note_on_c, 9, 42, 82
1, 27648, Note_on_c, 9, 54, 44
1, 27648, Note_on_c, 9, 69, 36
1, 27652, Note_off_c, 9, 69, 36
1, 27652, Note_off_c, 9, 54, 44
1, 27652, Note_off_c, 9, 42, 82
1, 27652, Note_off_c, 9, 36, 112
1, 27744, Note_on_c, 9, 54, 36
1, 27748, Note_off_c, 9, 54, 36
1, 27840, Note_on_c, 8, 52, 120
1, 27840, Note_on_c, 7, 60, 106
1, 27840, Note_on_c, 7, 64, 113
1, 27840, Note_on_c, 7, 67, 104
1, 27840, Note_on_c, 1, 28, 100
1, 27840, Note_on_c, 9, 42, 90
1, 27840, Note_on_c, 9, 54, 44
1, 27840, Note_on_c, 9, 69, 35
1, 27844, Note_off_c, 9, 69, 35
1, 27844, Note_off_c, 9, 54, 44
1, 27844, Note_off_c, 9, 42, 90
1, 27928, Note_off_c, 7, 67, 104
1, 27928, Note_off_c, 7, 64, 113
1, 27928, Note_off_c, 7, 60, 106
1, 27928, Note_off_c, 8, 52, 120
1, 27936, Note_on_c, 9, 54, 35
1, 27936, Note_on_c, 9, 69, 32
1, 27940, Note_off_c, 9, 69, 32
1, 27940, Note_off_c, 9, 54, 35
1, 28016, Note_off_c, 15, 60, 110
1, 28032, Note_on_c, 15, 60, 113
1, 28032, Note_on_c, 9, 39, 102
1, 28032, Note_on_c, 9, 38, 109
1, 28032, Note_on_c, 9, 42, 91
1, 28032, Note_on_c, 9, 54, 45
1, 28032, Note_on_c, 9, 69, 39
1, 28036, Note_off_c, 9, 69, 39
1, 28036, Note_off_c, 9, 54, 45
1, 28036, Note_off_c, 9, 42, 91
1, 28036, Note_off_c, 9, 38, 109
1, 28036, Note_off_c, 9, 39, 102
1, 28128, Note_on_c, 9, 54, 46
1, 28132, Note_off_c, 9, 54, 46
1, 28208, Note_off_c, 15, 60, 113
1, 28212, Note_off_c, 1, 28, 100
1, 28224, Note_on_c, 15, 57, 120
1, 28224, Note_on_c, 8, 53, 127
1, 28224, Note_on_c, 7, 60, 104
1, 28224, Note_on_c, 7, 65, 111
1, 28224, Note_on_c, 7, 69, 120
1, 28224, Note_on_c, 9, 42, 75
1, 28224, Note_on_c, 9, 54, 48
1, 28224, Note_on_c, 9, 69, 31
1, 28228, Note_off_c, 9, 69, 31
1, 28228, Note_off_c, 9, 54, 48
1, 28228, Note_off_c, 9, 42, 75
1, 28312, Note_off_c, 7, 69, 120
1, 28312, Note_off_c, 7, 65, 111
1, 28312, Note_off_c, 7, 60, 104
1, 28312, Note_off_c, 8, 53, 127
1, 28320, Note_on_c, 9, 54, 41
1, 28320, Note_on_c, 9, 69, 36
1, 28324, Note_off_c, 9, 69, 36
1, 28324, Note_off_c, 9, 54, 41
1, 28400, Note_off_c, 15, 57, 120
1, 28416, Note_on_c, 15, 60, 127
1, 28416, Note_on_c, 8, 55, 126
1, 28416, Note_on_c, 7, 62, 106
1, 28416, Note_on_c, 7, 67, 122
1, 28416, Note_on_c, 7, 71, 111
1, 28416, Note_on_c, 1, 31, 108
1, 28416, Note_on_c, 9, 36, 113
1, 28416, Note_on_c, 9, 42, 94
1, 28416, Note_on_c, 9, 54, 49
1, 28416, Note_on_c, 9, 69, 36
1, 28420, Note_off_c, 9, 69, 36
1, 28420, Note_off_c, 9, 54, 49
1, 28420, Note_off_c, 9, 42, 94
1, 28420, Note_off_c, 9, 36, 113
1, 28512, Note_on_c, 9, 54, 46
1, 28516, Note_off_c, 9, 54, 46
1, 28600, Note_off_c, 7, 71, 111
1, 28600, Note_off_c, 7, 67, 122
1, 28600, Note_off_c, 7, 62, 106
1, 28600, Note_off_c, 8, 55, 126
1, 28608, Note_on_c, 9, 42, 85
1, 28608, Note_on_c, 9, 54, 30
1, 28608, Note_on_c, 9, 69, 41
1, 28612, Note_off_c, 9, 69, 41
1, 28612, Note_off_c, 9, 54, 30
1, 28612, Note_off_c, 9, 42, 85
1, 28644, Note_off_c, 1, 31, 108
1, 28704, Note_on_c, 9, 54, 35
1, 28704, Note_on_c, 9, 69, 38
1, 28708, Note_off_c, 9, 69, 38
1, 28708, Note_off_c, 9, 54, 35
1, 28784, Note_off_c, 15, 60, 127
1, 28800, Note_on_c, 15, 64, 124
1, 28800, Note_on_c, 8, 55, 123
1, 28800, Note_on_c, 7, 62, 120
1, 28800, Note_on_c, 7, 67, 104
1, 28800, Note_on_c, 7, 71, 105
1, 28800, Note_on_c, 9, 39, 100
1, 28800, Note_on_c, 1, 31, 111
1, 28800, Note_on_c, 9, 38, 108
1, 28800, Note_on_c, 9, 42, 79
1, 28800, Note_on_c, 9, 54, 41
1, 28800, Note_on_c, 9, 69, 40
1, 28804, Note_off_c, 9, 69, 40
1, 28804, Note_off_c, 9, 54, 41
1, 28804, Note_off_c, 9, 42, 79
1, 28804, Note_off_c, 9, 38, 108
1, 28804, Note_off_c, 9, 39, 100
1, 28896, Note_on_c, 9, 54, 35
1, 28900, Note_off_c, 9, 54, 35
1, 28944, Pitch_bend_c, 1, 8192
1, 28952, Pitch_bend_c, 1, 8323
1, 28960, Pitch_bend_c, 1, 8456
1, 28968, Pitch_bend_c, 1, 8588
1, 28976, Pitch_bend_c, 1, 8720
1, 28984, Note_off_c, 7, 71, 105
1, 28984, Note_off_c, 7, 67, 104
1, 28984, Note_off_c, 7, 62, 120
1, 28984, Note_off_c, 8, 55, 123
1, 28984, Pitch_bend_c, 1, 8852
1, 28992, Pitch_bend_c, 1, 8984
1, 28992, Note_on_c, 9, 46, 103
1, 28992, Note_on_c, 9, 54, 30
1, 28992, Note_on_c, 9, 69, 32
1, 28996, Note_off_c, 9, 69, 32
1, 28996, Note_off_c, 9, 54, 30
1, 28996, Note_off_c, 9, 46, 103
1, 29000, Pitch_bend_c, 1, 9116
1, 29008, Pitch_bend_c, 1, 9248
1, 29016, Pitch_bend_c, 1, 9380
1, 29024, Pitch_bend_c, 1, 9512
1, 29032, Pitch_bend_c, 1, 9644
1, 29040, Pitch_bend_c, 1, 9776
1, 29048, Pitch_bend_c, 1, 9908
1, 29056, Pitch_bend_c, 1, 10040
1, 29064, Pitch_bend_c, 1, 10172
1, 29072, Pitch_bend_c, 1, 10305
1, 29076, Note_off_c, 1, 31, 111
1, 29080, Pitch_bend_c, 1, 10437
1, 29088, Pitch_bend_c, 1, 10569
1, 29088, Note_on_c, 9, 54, 46
1, 29088, Note_on_c, 9, 69, 32
1, 29092, Note_off_c, 9, 69, 32
1, 29092, Note_off_c, 9, 54, 46
1, 29096, Pitch_bend_c, 1, 10701
1, 29104, Pitch_bend_c, 1, 10833
1, 29112, Pitch_bend_c, 1, 10965
1, 29120, Pitch_bend_c, 1, 11097
1, 29128, Pitch_bend_c, 1, 11229
1, 29136, Pitch_bend_c, 1, 11361
1, 29144, Pitch_bend_c, 1, 11493
1, 29152, Pitch_bend_c, 1, 11625
1, 29160, Pitch_bend_c, 1, 11757
1, 29168, Note_off_c, 15, 64, 124
1, 29168, Pitch_bend_c, 1, 8192
1, 29184, Tempo, 504200
1, 29184, Note_on_c, 0, 64, 50
1, 29184, Note_on_c, 10, 64, 80
1, 29184, Note_on_c, 10, 67, 86
1, 29184, Note_on_c, 10, 72, 68
1, 29184, Note_on_c, 2, 41, 88
1, 29184, Note_on_c, 1, 41, 114
1, 29184, Note_on_c, 9, 36, 112
1, 29184, Note_on_c, 9, 42, 92
1, 29184, Note_on_c, 9, 54, 36
1, 29184, Note_on_c, 9, 69, 39
1, 29188, Note_off_c, 9, 69, 39
1, 29188, Note_off_c, 9, 54, 36
1, 29188, Note_off_c, 9, 42, 92
1, 29188, Note_off_c, 9, 36, 112
1, 29268, Note_off_c, 1, 41, 114
1, 29280, Note_on_c, 9, 54, 47
1, 29284, Note_off_c, 9, 54, 47
1, 29376, Note_on_c, 1, 41, 100
1, 29376, Note_on_c, 9, 42, 86
1, 29376, Note_on_c, 9, 54, 37
1, 29376, Note_on_c, 9, 69, 33
1, 29380, Note_off_c, 9, 69, 33
1, 29380, Note_off_c, 9, 54, 37
1, 29380, Note_off_c, 9, 42, 86
1, 29460, Note_off_c, 1, 41, 100
1, 29472, Note_on_c, 9, 54, 43
1, 29472, Note_on_c, 9, 69, 45
1, 29476, Note_off_c, 9, 69, 45
1, 29476, Note_off_c, 9, 54, 43
1, 29568, Note_on_c, 9, 39, 101
1, 29568, Note_on_c, 1, 41, 119
1, 29568, Note_on_c, 9, 38, 105
1, 29568, Note_on_c, 9, 42, 80
1, 29568, Note_on_c, 9, 54, 36
1, 29568, Note_on_c, 9, 69, 38
1, 29572, Note_off_c, 9, 69, 38
1, 29572, Note_off_c, 9, 54, 36
1, 29572, Note_off_c, 9, 42, 80
1, 29572, Note_off_c, 9, 38, 105
1, 29572, Note_off_c, 9, 39, 101
1, 29652, Note_off_c, 1, 41, 119
1, 29664, Note_on_c, 9, 54, 43
1, 29668, Note_off_c, 9, 54, 43
1, 29760, Note_on_c, 1, 41, 117
1, 29760, Note_on_c, 9, 42, 75
1, 29760, Note_on_c, 9, 54, 45
1, 29760, Note_on_c, 9, 69, 31
1, 29764, Note_off_c, 9, 69, 31
1, 29764, Note_off_c, 9, 54, 45
1, 29764, Note_off_c, 9, 42, 75
1, 29844, Note_off_c, 1, 41, 117
1, 29856, Note_on_c, 15, 60, 113
1, 29856, Note_on_c, 9, 54, 46
1, 29856, Note_on_c, 9, 69, 37
1, 29860, Note_off_c, 9, 69, 37
1, 29860, Note_off_c, 9, 54, 46
1, 29936, Note_off_c, 15, 60, 113
1, 29952, Note_on_c, 15, 64, 127
1, 29952, Note_on_c, 1, 41, 104
1, 29952, Note_on_c, 9, 36, 108
1, 29952, Note_on_c, 9, 42, 87
1, 29952, Note_on_c, 9, 54, 30
1, 29952, Note_on_c, 9, 69, 48
1, 29956, Note_off_c, 9, 69, 48
1, 29956, Note_off_c, 9, 54, 30
1, 29956, Note_off_c, 9, 42, 87
1, 29956, Note_off_c, 9, 36, 108
1, 30036, Note_off_c, 1, 41, 104
1, 30048, Note_on_c, 9, 54, 32
1, 30052, Note_off_c, 9, 54, 32
1, 30128, Note_off_c, 15, 64, 127
1, 30144, Note_on_c, 15, 67, 125
1, 30144, Note_on_c, 1, 41, 118
1, 30144, Note_on_c, 9, 42, 81
1, 30144, Note_on_c, 9, 54, 43
1, 30144, Note_on_c, 9, 69, 48
1, 30148, Note_off_c, 9, 69, 48
1, 30148, Note_off_c, 9, 54, 43
1, 30148, Note_off_c, 9, 42, 81
1, 30228, Note_off_c, 1, 41, 118
1, 30240, Note_on_c, 9, 54, 47
1, 30240, Note_on_c, 9, 69, 39
1, 30244, Note_off_c, 9, 69, 39
1, 30244, Note_off_c, 9, 54, 47
1, 30320, Note_off_c, 15, 67, 125
1, 30336, Note_on_c, 15, 69, 127
1, 30336, Note_on_c, 9, 39, 95
1, 30336, Note_on_c, 1, 41, 100
1, 30336, Note_on_c, 9, 38, 117
1, 30336, Note_on_c, 9, 42, 92
1, 30336, Note_on_c, 9, 54, 36
1, 30336, Note_on_c, 9, 69, 48
1, 30340, Note_off_c, 9, 69, 48
1, 30340, Note_off_c, 9, 54, 36
1, 30340, Note_off_c, 9, 42, 92
1, 30340, Note_off_c, 9, 38, 117
1, 30340, Note_off_c, 9, 39, 95
1, 30420, Note_off_c, 1, 41, 100
1, 30432, Note_on_c, 9, 54, 45
1, 30436, Note_off_c, 9, 54, 45
1, 30528, Note_on_c, 1, 41, 106
1, 30528, Note_on_c, 9, 42, 77
1, 30528, Note_on_c, 9, 54, 36
1, 30528, Note_on_c, 9, 69, 33
1, 30532, Note_off_c, 9, 69, 33
1, 30532, Note_off_c, 9, 54, 36
1, 30532, Note_off_c, 9, 42, 77
1, 30612, Note_off_c, 1, 41, 106
1, 30624, Control_c, 6, 11, 19
1, 30624, Note_on_c, 9, 54, 41
1, 30624, Note_on_c, 9, 69, 30
1, 30628, Note_off_c, 9, 69, 30
1, 30628, Note_off_c, 9, 54, 41
1, 30720, Note_on_c, 6, 87, 101
1, 30720, Note_on_c, 1, 41, 118
1, 30720, Note_on_c, 9, 36, 121
1, 30720, Note_on_c, 9, 42, 85
1, 30720, Note_on_c, 9, 54, 31
1, 30720, Note_on_c, 9, 69, 41
1, 30724, Note_off_c, 9, 69, 41
1, 30724, Note_off_c, 9, 54, 31
1, 30724, Note_off_c, 9, 42, 85
1, 30724, Note_off_c, 9, 36, 121
1, 30768, Control_c, 6, 11, 46
1, 30804, Note_off_c, 1, 41, 118
1, 30816, Control_c, 6, 11, 55
1, 30816, Note_on_c, 9, 54, 30
1, 30820, Note_off_c, 9, 54, 30
1, 30864, Control_c, 6, 11, 64
1, 30896, Note_off_c, 15, 69, 127
1, 30912, Note_on_c, 15, 64, 126
1, 30912, Control_c, 6, 11, 73
1, 30912, Note_on_c, 1, 41, 116
1, 30912, Note_on_c, 9, 42, 90
1, 30912, Note_on_c, 9, 54, 34
1, 30912, Note_on_c, 9, 69, 36
1, 30916, Note_off_c, 9, 69, 36
1, 30916, Note_off_c, 9, 54, 34
1, 30916, Note_off_c, 9, 42, 90
1, 30960, Control_c, 6, 11, 82
1, 30996, Note_off_c, 1, 41, 116
1, 31008, Control_c, 6, 11, 91
1, 31008, Note_on_c, 9, 54, 39
1, 31008, Note_on_c, 9, 69, 32
1, 31012, Note_off_c, 9, 69, 32
1, 31012, Note_off_c, 9, 54, 39
1, 31056, Control_c, 6, 11, 100
1, 31088, Note_off_c, 15, 64, 126
1, 31104, Note_on_c, 15, 64, 114
1, 31104, Control_c, 6, 11, 109
1, 31104, Note_on_c, 9, 39, 96
1, 31104, Note_on_c, 1, 41, 104
1, 31104, Note_on_c, 9, 38, 113
1, 31104, Note_on_c, 9, 42, 76
1, 31104, Note_on_c, 9, 54, 43
1, 31104, Note_on_c, 9, 69, 37
1, 31108, Note_off_c, 9, 69, 37
1, 31108, Note_off_c, 9, 54, 43
1, 31108, Note_off_c, 9, 42, 76
1, 31108, Note_off_c, 9, 38, 113
1, 31108, Note_off_c, 9, 39, 96
1, 31152, Control_c, 6, 11, 118
1, 31188, Note_off_c, 1, 41, 104
1, 31200, Control_c, 6, 11, 127
1, 31200, Note_on_c, 9, 54, 45
1, 31204, Note_off_c, 9, 54, 45
1, 31280, Note_off_c, 15, 64, 114
1, 31296, Note_on_c, 15, 64, 121
1, 31296, Note_on_c, 1, 41, 101
1, 31296, Note_on_c, 9, 42, 75
1, 31296, Note_on_c, 9, 54, 45
1, 31296, Note_on_c, 9, 69, 37
1, 31300, Note_off_c, 9, 69, 37
1, 31300, Note_off_c, 9, 54, 45
1, 31300, Note_off_c, 9, 42, 75
1, 31380, Note_off_c, 1, 41, 101
1, 31392, Note_on_c, 9, 54, 48
1, 31392, Note_on_c, 9, 69, 35
1, 31396, Note_off_c, 9, 69, 35
1, 31396, Note_off_c, 9, 54, 48
1, 31472, Note_off_c, 15, 64, 121
1, 31480, Note_off_c, 10, 72, 68
1, 31480, Note_off_c, 10, 67, 86
1, 31480, Note_off_c, 10, 64, 80
1, 31488, Note_on_c, 15, 62, 126
1, 31488, Note_on_c, 10, 64, 64
1, 31488, Note_on_c, 10, 67, 64
1, 31488, Note_on_c, 10, 72, 64
1, 31488, Note_on_c, 1, 41, 112
1, 31488, Note_on_c, 9, 36, 113
1, 31488, Note_on_c, 9, 42, 87
1, 31488, Note_on_c, 9, 54, 39
1, 31488, Note_on_c, 9, 69, 45
1, 31492, Note_off_c, 9, 69, 45
1, 31492, Note_off_c, 9, 54, 39
1, 31492, Note_off_c, 9, 42, 87
1, 31492, Note_off_c, 9, 36, 113
1, 31544, Note_off_c, 10, 72, 64
1, 31544, Note_off_c, 10, 67, 64
1, 31544, Note_off_c, 10, 64, 64
1, 31552, Note_on_c, 10, 64, 68
1, 31552, Note_on_c, 10, 67, 68
1, 31552, Note_on_c, 10, 72, 68
1, 31572, Note_off_c, 1, 41, 112
1, 31584, Note_on_c, 9, 54, 43
1, 31588, Note_off_c, 9, 54, 43
1, 31608, Note_off_c, 10, 72, 68
1, 31608, Note_off_c, 10, 67, 68
1, 31608, Note_off_c, 10, 64, 68
1, 31616, Note_on_c, 10, 64, 73
1, 31616, Note_on_c, 10, 67, 73
1, 31616, Note_on_c, 10, 72, 73
1, 31664, Note_off_c, 15, 62, 126
1, 31672, Note_off_c, 10, 72, 73
1, 31672, Note_off_c, 10, 67, 73
1, 31672, Note_off_c, 10, 64, 73
1, 31680, Note_on_c, 15, 64, 126
1, 31680, Note_on_c, 10, 64, 78
1, 31680, Note_on_c, 10, 67, 78
1, 31680, Note_on_c, 10, 72, 78
1, 31680, Note_on_c, 1, 41, 114
1, 31680, Note_on_c, 9, 42, 90
1, 31680, Note_on_c, 9, 54, 39
1, 31680, Note_on_c, 9, 69, 48
1, 31684, Note_off_c, 9, 69, 48
1, 31684, Note_off_c, 9, 54, 39
1, 31684, Note_off_c, 9, 42, 90
1, 31736, Note_off_c, 10, 72, 78
1, 31736, Note_off_c, 10, 67, 78
1, 31736, Note_off_c, 10, 64, 78
1, 31744, Note_on_c, 10, 64, 83
1, 31744, Note_on_c, 10, 67, 83
1, 31744, Note_on_c, 10, 72, 83
1, 31760, Note_off_c, 15, 64, 126
1, 31764, Note_off_c, 1, 41, 114
1, 31776, Note_on_c, 15, 62, 117
1, 31776, Note_on_c, 9, 54, 43
1, 31776, Note_on_c, 9, 69, 32
1, 31780, Note_off_c, 9, 69, 32
1, 31780, Note_off_c, 9, 54, 43
1, 31800, Note_off_c, 10, 72, 83
1, 31800, Note_off_c, 10, 67, 83
1, 31800, Note_off_c, 10, 64, 83
1, 31808, Note_on_c, 10, 64, 87
1, 31808, Note_on_c, 10, 67, 87
1, 31808, Note_on_c, 10, 72, 87
1, 31856, Note_off_c, 15, 62, 117
1, 31864, Note_off_c, 10, 72, 87
1, 31864, Note_off_c, 10, 67, 87
1, 31864, Note_off_c, 10, 64, 87
1, 31872, Note_on_c, 15, 60, 122
1, 31872, Note_on_c, 10, 64, 92
1, 31872, Note_on_c, 10, 67, 92
1, 31872, Note_on_c, 10, 72, 92
1, 31872, Note_on_c, 9, 39, 90
1, 31872, Note_on_c, 1, 41, 108
1, 31872, Note_on_c, 9, 38, 124
1, 31872, Note_on_c, 9, 42, 90
1, 31872, Note_on_c, 9, 54, 48
1, 31872, Note_on_c, 9, 69, 39
1, 31876, Note_off_c, 9, 69, 39
1, 31876, Note_off_c, 9, 54, 48
1, 31876, Note_off_c, 9, 42, 90
1, 31876, Note_off_c, 9, 38, 124
1, 31876, Note_off_c, 9, 39, 90
1, 31928, Note_off_c, 10, 72, 92
1, 31928, Note_off_c, 10, 67, 92
1, 31928, Note_off_c, 10, 64, 92
1, 31936, Note_on_c, 10, 64, 97
1, 31936, Note_on_c, 10, 67, 97
1, 31936, Note_on_c, 10, 72, 97
1, 31956, Note_off_c, 1, 41, 108
1, 31968, Note_on_c, 9, 54, 34
1, 31972, Note_off_c, 9, 54, 34
1, 31992, Note_off_c, 10, 72, 97
1, 31992, Note_off_c, 10, 67, 97
1, 31992, Note_off_c, 10, 64, 97
1, 32000, Note_on_c, 10, 64, 102
1, 32000, Note_on_c, 10, 67, 102
1, 32000, Note_on_c, 10, 72, 102
1, 32048, Note_off_c, 15, 60, 122
1, 32056, Note_off_c, 10, 72, 102
1, 32056, Note_off_c, 10, 67, 102
1, 32056, Note_off_c, 10, 64, 102
1, 32064, Note_on_c, 15, 57, 115
1, 32064, Note_on_c, 10, 64, 106
1, 32064, Note_on_c, 10, 67, 106
1, 32064, Note_on_c, 10, 72, 106
1, 32064, Note_on_c, 1, 41, 117
1, 32064, Note_on_c, 9, 42, 87
1, 32064, Note_on_c, 9, 54, 33
1, 32064, Note_on_c, 9, 69, 43
1, 32068, Note_off_c, 9, 69, 43
1, 32068, Note_off_c, 9, 54, 33
1, 32068, Note_off_c, 9, 42, 87
1, 32088, Pitch_bend_c, 6, 8192
1, 32096, Pitch_bend_c, 6, 7976
1, 32104, Pitch_bend_c, 6, 7760
1, 32112, Pitch_bend_c, 6, 7544
1, 32120, Note_off_c, 10, 72, 106
1, 32120, Note_off_c, 10, 67, 106
1, 32120, Note_off_c, 10, 64, 106
1, 32120, Pitch_bend_c, 6, 7328
1, 32128, Note_on_c, 10, 64, 111
1, 32128, Note_on_c, 10, 67, 111
1, 32128, Note_on_c, 10, 72, 111
1, 32128, Pitch_bend_c, 6, 7111
1, 32136, Pitch_bend_c, 6, 6895
1, 32144, Pitch_bend_c, 6, 6679
1, 32148, Note_off_c, 1, 41, 117
1, 32152, Pitch_bend_c, 6, 6463
1, 32160, Pitch_bend_c, 6, 6247
1, 32160, Note_on_c, 9, 54, 48
1, 32160, Note_on_c, 9, 69, 39
1, 32164, Note_off_c, 9, 69, 39
1, 32164, Note_off_c, 9, 54, 48
1, 32168, Pitch_bend_c, 6, 6031
1, 32176, Pitch_bend_c, 6, 5815
1, 32184, Note_off_c, 10, 72, 111
1, 32184, Note_off_c, 10, 67, 111
1, 32184, Note_off_c, 10, 64, 111
1, 32184, Pitch_bend_c, 6, 5599
1, 32192, Note_off_c, 0, 64, 50
1, 32192, Note_on_c, 10, 64, 116
1, 32192, Note_on_c, 10, 67, 116
1, 32192, Note_on_c, 10, 72, 116
1, 32192, Pitch_bend_c, 6, 5382
1, 32200, Pitch_bend_c, 6, 5166
1, 32208, Pitch_bend_c, 6, 4950
1, 32216, Pitch_bend_c, 6, 4734
1, 32224, Pitch_bend_c, 6, 4518
1, 32232, Pitch_bend_c, 6, 4302
1, 32240, Note_off_c, 15, 57, 115
1, 32240, Pitch_bend_c, 6, 4086
1, 32248, Note_off_c, 10, 72, 116
1, 32248, Note_off_c, 10, 67, 116
1, 32248, Note_off_c, 10, 64, 116
1, 32248, Note_off_c, 6, 87, 101
1, 32248, Note_off_c, 2, 41, 88
1, 32256, Tempo, 500000
1, 32256, Note_on_c, 8, 48, 117
1, 32256, Note_on_c, 7, 60, 114
1, 32256, Note_on_c, 7, 64, 121
1, 32256, Note_on_c, 7, 67, 113
1, 32256, Note_on_c, 1, 36, 108
1, 32256, Note_on_c, 9, 36, 108
1, 32256, Note_on_c, 9, 42, 78
1, 32256, Note_on_c, 9, 54, 42
1, 32256, Note_on_c, 9, 69, 30
1, 32260, Note_off_c, 9, 69, 30
1, 32260, Note_off_c, 9, 54, 42
1, 32260, Note_off_c, 9, 42, 78
1, 32260, Note_off_c, 9, 36, 108
1, 32344, Pitch_bend_c, 1, 8192
1, 32352, Pitch_bend_c, 1, 8009
1, 32352, Note_on_c, 9, 54, 42
1, 32356, Note_off_c, 9, 54, 42
1, 32360, Pitch_bend_c, 1, 7827
1, 32368, Pitch_bend_c, 1, 7644
1, 32376, Pitch_bend_c, 1, 7461
1, 32384, Pitch_bend_c, 1, 7278
1, 32392, Pitch_bend_c, 1, 7096
1, 32400, Pitch_bend_c, 1, 6913
1, 32408, Pitch_bend_c, 1, 6730
1, 32416, Pitch_bend_c, 1, 6548
1, 32424, Pitch_bend_c, 1, 6365
1, 32432, Pitch_bend_c, 1, 6182
1, 32440, Note_off_c, 7, 67, 113
1, 32440, Note_off_c, 7, 64, 121
1, 32440, Note_off_c, 7, 60, 114
1, 32440, Note_off_c, 8, 48, 117
1, 32440, Pitch_bend_c, 1, 6000
1, 32448, Pitch_bend_c, 1, 5817
1, 32448, Note_on_c, 9, 42, 86
1, 32448, Note_on_c, 9, 54, 43
1, 32448, Note_on_c, 9, 69, 38
1, 32452, Note_off_c, 9, 69, 38
1, 32452, Note_off_c, 9, 54, 43
1, 32452, Note_off_c, 9, 42, 86
1, 32456, Pitch_bend_c, 1, 5634
1, 32464, Pitch_bend_c, 1, 5451
1, 32472, Pitch_bend_c, 1, 5269
1, 32480, Pitch_bend_c, 1, 5086
1, 32488, Pitch_bend_c, 1, 4903
1, 32496, Pitch_bend_c, 1, 4720
1, 32504, Pitch_bend_c, 1, 4538
1, 32512, Pitch_bend_c, 1, 4355
1, 32520, Pitch_bend_c, 1, 4172
1, 32528, Pitch_bend_c, 1, 3990
1, 32532, Note_off_c, 1, 36, 108
1, 32536, Pitch_bend_c, 1, 3807
1, 32544, Pitch_bend_c, 1, 3624
1, 32544, Note_on_c, 9, 54, 39
1, 32544, Note_on_c, 9, 69, 43
1, 32548, Note_off_c, 9, 69, 43
1, 32548, Note_off_c, 9, 54, 39
1, 32552, Pitch_bend_c, 1, 3441
1, 32560, Pitch_bend_c, 1, 3259
1, 32568, Pitch_bend_c, 1, 3076
1, 32576, Pitch_bend_c, 1, 8192
1, 32640, Note_on_c, 8, 52, 127
1, 32640, Note_on_c, 7, 60, 122
1, 32640, Note_on_c, 7, 64, 111
1, 32640, Note_on_c, 7, 67, 110
1, 32640, Note_on_c, 9, 39, 90
1, 32640, Note_on_c, 1, 28, 112
1, 32640, Note_on_c, 9, 36, 120
1, 32640, Note_on_c, 9, 38, 110
1, 32640, Note_on_c, 9, 42, 89
1, 32640, Note_on_c, 9, 54, 39
1, 32640, Note_on_c, 9, 69, 37
1, 32644, Note_off_c, 9, 69, 37
1, 32644, Note_off_c, 9, 54, 39
1, 32644, Note_off_c, 9, 42, 89
1, 32644, Note_off_c, 9, 38, 110
1, 32644, Note_off_c, 9, 36, 120
1, 32644, Note_off_c, 9, 39, 90
1, 32728, Note_off_c, 7, 67, 110
1, 32728, Note_off_c, 7, 64, 111
1, 32728, Note_off_c, 7, 60, 122
1, 32728, Note_off_c, 8, 52, 127
1, 32736, Note_on_c, 9, 54, 49
1, 32740, Note_off_c, 9, 54, 49
1, 32820, Note_off_c, 1, 28, 112
1, 32832, Note_on_c, 15, 60, 127
1, 32832, Note_on_c, 8, 53, 127
1, 32832, Note_on_c, 7, 60, 108
1, 32832, Note_on_c, 7, 65, 115
1, 32832, Note_on_c, 7, 69, 108
1, 32832, Note_on_c, 1, 29, 104
1, 32832, Note_on_c, 9, 42, 94
1, 32832, Note_on_c, 9, 54, 39
1, 32832, Note_on_c, 9, 69, 46
1, 32836, Note_off_c, 9, 69, 46
1, 32836, Note_off_c, 9, 54, 39
1, 32836, Note_off_c, 9, 42, 94
1, 32912, Note_off_c, 15, 60, 127
1, 32920, Note_off_c, 7, 69, 108
1, 32920, Note_off_c, 7, 65, 115
1, 32920, Note_off_c, 7, 60, 108
1, 32920, Note_off_c, 8, 53, 127
1, 32928, Note_on_c, 15, 62, 123
1, 32928, Note_on_c, 9, 54, 49
1, 32928, Note_on_c, 9, 69, 37
1, 32932, Note_off_c, 9, 69, 37
1, 32932, Note_off_c, 9, 54, 49
1, 33008, Note_off_c, 15, 62, 123
1, 33012, Note_off_c, 1, 29, 104
1, 33024, Note_on_c, 15, 64, 115
1, 33024, Note_on_c, 9, 36, 121
1, 33024, Note_on_c, 9, 42, 84
1, 33024, Note_on_c, 9, 54, 43
1, 33024, Note_on_c, 9, 69, 35
1, 33028, Note_off_c, 9, 69, 35
1, 33028, Note_off_c, 9, 54, 43
1, 33028, Note_off_c, 9, 42, 84
1, 33028, Note_off_c, 9, 36, 121
1, 33120, Note_on_c, 9, 54, 45
1, 33124, Note_off_c, 9, 54, 45
1, 33200, Note_off_c, 15, 64, 115
1, 33216, Note_on_c, 15, 67, 110
1, 33216, Note_on_c, 8, 52, 127
1, 33216, Note_on_c, 7, 60, 106
1, 33216, Note_on_c, 7, 64, 118
1, 33216, Note_on_c, 7, 67, 117
1, 33216, Note_on_c, 1, 28, 101
1, 33216, Note_on_c, 9, 42, 94
1, 33216, Note_on_c, 9, 54, 34
1, 33216, Note_on_c, 9, 69, 30
1, 33220, Note_off_c, 9, 69, 30
1, 33220, Note_off_c, 9, 54, 34
1, 33220, Note_off_c, 9, 42, 94
1, 33304, Note_off_c, 7, 67, 117
1, 33304, Note_off_c, 7, 64, 118
1, 33304, Note_off_c, 7, 60, 106
1, 33304, Note_off_c, 8, 52, 127
1, 33312, Note_on_c, 9, 54, 48
1, 33312, Note_on_c, 9, 69, 44
1, 33316, Note_off_c, 9, 69, 44
1, 33316, Note_off_c, 9, 54, 48
1, 33396, Note_off_c, 1, 28, 101
1, 33408, Note_on_c, 9, 39, 91
1, 33408, Note_on_c, 9, 36, 114
1, 33408, Note_on_c, 9, 38, 120
1, 33408, Note_on_c, 9, 42, 93
1, 33408, Note_on_c, 9, 54, 47
1, 33408, Note_on_c, 9, 69, 47
1, 33412, Note_off_c, 9, 69, 47
1, 33412, Note_off_c, 9, 54, 47
1, 33412, Note_off_c, 9, 42, 93
1, 33412, Note_off_c, 9, 38, 120
1, 33412, Note_off_c, 9, 36, 114
1, 33412, Note_off_c, 9, 39, 91
1, 33504, Note_on_c, 9, 54, 45
1, 33508, Note_off_c, 9, 54, 45
1, 33600, Note_on_c, 8, 53, 127
1, 33600, Note_on_c, 7, 60, 109
1, 33600, Note_on_c, 7, 65, 114
1, 33600, Note_on_c, 7, 69, 111
1, 33600, Note_on_c, 1, 29, 102
1, 33600, Note_on_c, 9, 42, 85
1, 33600, Note_on_c, 9, 54, 43
1, 33600, Note_on_c, 9, 69, 34
1, 33604, Note_off_c, 9, 69, 34
1, 33604, Note_off_c, 9, 54, 43
1, 33604, Note_off_c, 9, 42, 85
1, 33688, Note_off_c, 7, 69, 111
1, 33688, Note_off_c, 7, 65, 114
1, 33688, Note_off_c, 7, 60, 109
1, 33688, Note_off_c, 8, 53, 127
1, 33696, Note_on_c, 9, 54, 39
1, 33696, Note_on_c, 9, 69, 37
1, 33700, Note_off_c, 9, 69, 37
1, 33700, Note_off_c, 9, 54, 39
1, 33780, Note_off_c, 1, 29, 102
1, 33792, Pitch_bend_c, 6, 8192
1, 33792, Note_on_c, 9, 36, 122
1, 33792, Note_on_c, 9, 42, 93
1, 33792, Note_on_c, 9, 54, 41
1, 33792, Note_on_c, 9, 69, 48
1, 33796, Note_off_c, 9, 69, 48
1, 33796, Note_off_c, 9, 54, 41
1, 33796, Note_off_c, 9, 42, 93
1, 33796, Note_off_c, 9, 36, 122
1, 33888, Note_on_c, 9, 54, 30
1, 33892, Note_off_c, 9, 54, 30
1, 33968, Note_off_c, 15, 67, 110
1, 33984, Note_on_c, 15, 64, 123
1, 33984, Note_on_c, 8, 52, 122
1, 33984, Note_on_c, 7, 60, 121
1, 33984, Note_on_c, 7, 64, 105
1, 33984, Note_on_c, 7, 67, 110
1, 33984, Note_on_c, 1, 28, 113
1, 33984, Note_on_c, 9, 42, 92
1, 33984, Note_on_c, 9, 54, 44
1, 33984, Note_on_c, 9, 69, 38
1, 33988, Note_off_c, 9, 69, 38
1, 33988, Note_off_c, 9, 54, 44
1, 33988, Note_off_c, 9, 42, 92
1, 34072, Note_off_c, 7, 67, 110
1, 34072, Note_off_c, 7, 64, 105
1, 34072, Note_off_c, 7, 60, 121
1, 34072, Note_off_c, 8, 52, 122
1, 34080, Note_on_c, 9, 54, 38
1, 34080, Note_on_c, 9, 69, 39
1, 34084, Note_off_c, 9, 69, 39
1, 34084, Note_off_c, 9, 54, 38
1, 34164, Note_off_c, 1, 28, 113
1, 34176, Note_on_c, 9, 39, 93
1, 34176, Note_on_c, 9, 36, 117
1, 34176, Note_on_c, 9, 38, 119
1, 34176, Note_on_c, 9, 42, 91
1, 34176, Note_on_c, 9, 54, 35
1, 34176, Note_on_c, 9, 69, 45
1, 34180, Note_off_c, 9, 69, 45
1, 34180, Note_off_c, 9, 54, 35
1, 34180, Note_off_c, 9, 42, 91
1, 34180, Note_off_c, 9, 38, 119
1, 34180, Note_off_c, 9, 36, 117
1, 34180, Note_off_c, 9, 39, 93
1, 34256, Note_off_c, 15, 64, 123
1, 34272, Note_on_c, 15, 62, 112
1, 34272, Note_on_c, 9, 54, 40
1, 34276, Note_off_c, 9, 54, 40
1, 34352, Note_off_c, 15, 62, 112
1, 34368, Note_on_c, 15, 60, 127
1, 34368, Note_on_c, 8, 53, 127
1, 34368, Note_on_c, 7, 60, 114
1, 34368, Note_on_c, 7, 65, 113
1, 34368, Note_on_c, 7, 69, 118
1, 34368, Note_on_c, 1, 29, 118
1, 34368, Note_on_c, 9, 42, 91
1, 34368, Note_on_c, 9, 54, 31
1, 34368, Note_on_c, 9, 69, 36
1, 34372, Note_off_c, 9, 69, 36
1, 34372, Note_off_c, 9, 54, 31
1, 34372, Note_off_c, 9, 42, 91
1, 34456, Note_off_c, 7, 69, 118
1, 34456, Note_off_c, 7, 65, 113
1, 34456, Note_off_c, 7, 60, 114
1, 34456, Note_off_c, 8, 53, 127
1, 34464, Note_on_c, 9, 54, 40
1, 34464, Note_on_c, 9, 69, 32
1, 34468, Note_off_c, 9, 69, 32
1, 34468, Note_off_c, 9, 54, 40
1, 34500, Note_off_c, 1, 29, 118
1, 34560, Note_on_c, 8, 55, 127
1, 34560, Note_on_c, 7, 62, 113
1, 34560, Note_on_c, 7, 67, 109
1, 34560, Note_on_c, 7, 71, 108
1, 34560, Note_on_c, 1, 31, 103
1, 34560, Note_on_c, 9, 36, 112
1, 34560, Note_on_c, 9, 42, 75
1, 34560, Note_on_c, 9, 54, 43
1, 34560, Note_on_c, 9, 69, 44
1, 34564, Note_off_c, 9, 69, 44
1, 34564, Note_off_c, 9, 54, 43
1, 34564, Note_off_c, 9, 42, 75
1, 34564, Note_off_c, 9, 36, 112
1, 34640, Note_off_c, 15, 60, 127
1, 34656, Note_on_c, 9, 54, 41
1, 34660, Note_off_c, 9, 54, 41
1, 34740, Note_off_c, 1, 31, 103
1, 34744, Note_off_c, 7, 71, 108
1, 34744, Note_off_c, 7, 67, 109
1, 34744, Note_off_c, 7, 62, 113
1, 34744, Note_off_c, 8, 55, 127
1, 34752, Note_on_c, 9, 42, 91
1, 34752, Note_on_c, 9, 54, 32
1, 34752, Note_on_c, 9, 69, 45
1, 34756, Note_off_c, 9, 69, 45
1, 34756, Note_off_c, 9, 54, 32
1, 34756, Note_off_c, 9, 42, 91
1, 34848, Note_on_c, 9, 54, 41
1, 34848, Note_on_c, 9, 69, 34
1, 34852, Note_off_c, 9, 69, 34
1, 34852, Note_off_c, 9, 54, 41
1, 34944, Note_on_c, 8, 55, 120
1, 34944, Note_on_c, 7, 62, 115
1, 34944, Note_on_c, 7, 67, 117
1, 34944, Note_on_c, 7, 71, 109
1, 34944, Note_on_c, 9, 39, 94
1, 34944, Note_on_c, 1, 31, 105
1, 34944, Note_on_c, 9, 36, 122
1, 34944, Note_on_c, 9, 38, 106
1, 34944, Note_on_c, 9, 42, 91
1, 34944, Note_on_c, 9, 54, 47
1, 34944, Note_on_c, 9, 69, 37
1, 34948, Note_off_c, 9, 69, 37
1, 34948, Note_off_c, 9, 54, 47
1, 34948, Note_off_c, 9, 42, 91
1, 34948, Note_off_c, 9, 38, 106
1, 34948, Note_off_c, 9, 36, 122
1, 34948, Note_off_c, 9, 39, 94
1, 35040, Note_on_c, 9, 54, 38
1, 35044, Note_off_c, 9, 54, 38
1, 35128, Note_off_c, 7, 71, 109
1, 35128, Note_off_c, 7, 67, 117
1, 35128, Note_off_c, 7, 62, 115
1, 35128, Note_off_c, 8, 55, 120
1, 35136, Note_on_c, 9, 46, 107
1, 35136, Note_on_c, 9, 54, 40
1, 35136, Note_on_c, 9, 69, 34
1, 35140, Note_off_c, 9, 69, 34
1, 35140, Note_off_c, 9, 54, 40
1, 35140, Note_off_c, 9, 46, 107
1, 35144, Control_c, 4, 1, 10
1, 35220, Note_off_c, 1, 31, 105
1, 35232, Note_on_c, 9, 54, 36
1, 35232, Note_on_c, 9, 69, 44
1, 35236, Note_off_c, 9, 69, 44
1, 35236, Note_off_c, 9, 54, 36
1, 35276, Note_on_c, 4, 52, 89
1, 35296, Note_on_c, 4, 57, 86
1, 35328, Tempo, 504200
1, 35328, Note_on_c, 8, 57, 127
1, 35328, Note_on_c, 8, 60, 120
1, 35328, Note_on_c, 2, 57, 79
1, 35328, Note_on_c, 2, 60, 84
1, 35328, Note_on_c, 2, 64, 82
1, 35328, Note_on_c, 1, 33, 103
1, 35328, Note_on_c, 9, 36, 114
1, 35328, Note_on_c, 9, 42, 88
1, 35328, Note_on_c, 9, 49, 116
1, 35328, Note_on_c, 9, 54, 48
1, 35328, Note_on_c, 9, 69, 46
1, 35332, Note_off_c, 9, 69, 46
1, 35332, Note_off_c, 9, 54, 48
1, 35332, Note_off_c, 9, 49, 116
1, 35332, Note_off_c, 9, 42, 88
1, 35332, Note_off_c, 9, 36, 114
1, 35344, Note_on_c, 4, 60, 93
1, 35424, Note_on_c, 9, 54, 46
1, 35428, Note_off_c, 9, 54, 46
1, 35520, Note_on_c, 9, 42, 93
1, 35520, Note_on_c, 9, 54, 35
1, 35520, Note_on_c, 9, 69, 35
1, 35524, Note_off_c, 9, 69, 35
1, 35524, Note_off_c, 9, 54, 35
1, 35524, Note_off_c, 9, 42, 93
1, 35604, Note_off_c, 1, 33, 103
1, 35616, Note_on_c, 9, 54, 43
1, 35616, Note_on_c, 9, 69, 40
1, 35620, Note_off_c, 9, 69, 40
1, 35620, Note_off_c, 9, 54, 43
1, 35712, Note_on_c, 7, 64, 105
1, 35712, Note_on_c, 9, 39, 103
1, 35712, Note_on_c, 9, 38, 119
1, 35712, Note_on_c, 9, 42, 86
1, 35712, Note_on_c, 9, 54, 32
1, 35712, Note_on_c, 9, 69, 44
1, 35716, Note_off_c, 9, 69, 44
1, 35716, Note_off_c, 9, 54, 32
1, 35716, Note_off_c, 9, 42, 86
1, 35716, Note_off_c, 9, 38, 119
1, 35716, Note_off_c, 9, 39, 103
1, 35808, Note_on_c, 9, 54, 41
1, 35812, Note_off_c, 9, 54, 41
1, 35904, Note_on_c, 1, 33, 114
1, 35904, Note_on_c, 9, 42, 85
1, 35904, Note_on_c, 9, 54, 49
1, 35904, Note_on_c, 9, 69, 44
1, 35908, Note_off_c, 9, 69, 44
1, 35908, Note_off_c, 9, 54, 49
1, 35908, Note_off_c, 9, 42, 85
1, 35988, Note_off_c, 1, 33, 114
1, 35992, Note_off_c, 7, 64, 105
1, 36000, Note_on_c, 9, 54, 43
1, 36000, Note_on_c, 9, 69, 38
1, 36004, Note_off_c, 9, 69, 38
1, 36004, Note_off_c, 9, 54, 43
1, 36096, Note_on_c, 15, 69, 120
1, 36096, Note_on_c, 1, 33, 108
1, 36096, Note_on_c, 9, 36, 122
1, 36096, Note_on_c, 9, 42, 76
1, 36096, Note_on_c, 9, 54, 41
1, 36096, Note_on_c, 9, 69, 35
1, 36100, Note_off_c, 9, 69, 35
1, 36100, Note_off_c, 9, 54, 41
1, 36100, Note_off_c, 9, 42, 76
1, 36100, Note_off_c, 9, 36, 122
1, 36192, Note_on_c, 9, 54, 47
1, 36196, Note_off_c, 9, 54, 47
1, 36272, Note_off_c, 15, 69, 120
1, 36288, Note_on_c, 15, 69, 111
1, 36288, Note_on_c, 9, 42, 92
1, 36288, Note_on_c, 9, 54, 34
1, 36288, Note_on_c, 9, 69, 42
1, 36292, Note_off_c, 9, 69, 42
1, 36292, Note_off_c, 9, 54, 34
1, 36292, Note_off_c, 9, 42, 92
1, 36384, Note_on_c, 9, 54, 36
1, 36384, Note_on_c, 9, 69, 44
1, 36388, Note_off_c, 9, 69, 44
1, 36388, Note_off_c, 9, 54, 36
1, 36468, Note_off_c, 1, 33, 108
1, 36480, Note_on_c, 7, 64, 114
1, 36480, Note_on_c, 9, 39, 86
1, 36480, Note_on_c, 9, 38, 123
1, 36480, Note_on_c, 9, 42, 81
1, 36480, Note_on_c, 9, 54, 46
1, 36480, Note_on_c, 9, 69, 39
1, 36484, Note_off_c, 9, 69, 39
1, 36484, Note_off_c, 9, 54, 46
1, 36484, Note_off_c, 9, 42, 81
1, 36484, Note_off_c, 9, 38, 123
1, 36484, Note_off_c, 9, 39, 86
1, 36576, Note_on_c, 9, 54, 42
1, 36580, Note_off_c, 9, 54, 42
1, 36656, Note_off_c, 15, 69, 111
1, 36664, Note_off_c, 8, 60, 120
1, 36664, Note_off_c, 8, 57, 127
1, 36672, Note_on_c, 15, 64, 84
1, 36672, Note_on_c, 8, 59, 118
1, 36672, Note_on_c, 1, 35, 116
1, 36672, Note_on_c, 9, 42, 81
1, 36672, Note_on_c, 9, 54, 35
1, 36672, Note_on_c, 9, 69, 36
1, 36676, Note_off_c, 9, 69, 36
1, 36676, Note_off_c, 9, 54, 35
1, 36676, Note_off_c, 9, 42, 81
1, 36712, Note_off_c, 4, 52, 89
1, 36736, Note_off_c, 4, 57, 86
1, 36744, Note_off_c, 2, 64, 82
1, 36744, Note_off_c, 2, 60, 84
1, 36744, Note_off_c, 2, 57, 79
1, 36760, Note_off_c, 7, 64, 114
1, 36768, Note_on_c, 9, 54, 35
1, 36768, Note_on_c, 9, 69, 35
1, 36772, Note_off_c, 9, 69, 35
1, 36772, Note_off_c, 9, 54, 35
1, 36784, Note_off_c, 4, 60, 93
1, 36820, Note_on_c, 4, 52, 88
1, 36848, Note_off_c, 15, 64, 84
1, 36852, Note_off_c, 1, 35, 116
1, 36856, Note_off_c, 8, 59, 118
1, 36864, Note_on_c, 15, 67, 111
1, 36864, Note_on_c, 8, 55, 127
1, 36864, Note_on_c, 8, 60, 115
1, 36864, Note_on_c, 7, 64, 121
1, 36864, Note_on_c, 4, 55, 97
1, 36864, Note_on_c, 2, 55, 93
1, 36864, Note_on_c, 2, 60, 91
1, 36864, Note_on_c, 2, 64, 89
1, 36864, Note_on_c, 1, 36, 113
1, 36864, Note_on_c, 9, 36, 110
1, 36864, Note_on_c, 9, 42, 83
1, 36864, Note_on_c, 9, 54, 43
1, 36864, Note_on_c, 9, 69, 36
1, 36868, Note_off_c, 9, 69, 36
1, 36868, Note_off_c, 9, 54, 43
1, 36868, Note_off_c, 9, 42, 83
1, 36868, Note_off_c, 9, 36, 110
1, 36872, Note_on_c, 4, 60, 90
1, 36960, Note_on_c, 9, 54, 40
1, 36964, Note_off_c, 9, 54, 40
1, 37056, Note_on_c, 9, 42, 89
1, 37056, Note_on_c, 9, 54, 30
1, 37056, Note_on_c, 9, 69, 49
1, 37060, Note_off_c, 9, 69, 49
1, 37060, Note_off_c, 9, 54, 30
1, 37060, Note_off_c, 9, 42, 89
1, 37152, Note_on_c, 9, 54, 49
1, 37152, Note_on_c, 9, 69, 37
1, 37156, Note_off_c, 9, 69, 37
1, 37156, Note_off_c, 9, 54, 49
1, 37232, Note_off_c, 15, 67, 111
1, 37236, Note_off_c, 1, 36, 113
1, 37248, Note_on_c, 15, 64, 93
1, 37248, Note_on_c, 9, 39, 97
1, 37248, Note_on_c, 9, 38, 105
1, 37248, Note_on_c, 9, 42, 76
1, 37248, Note_on_c, 9, 54, 47
1, 37248, Note_on_c, 9, 69, 46
1, 37252, Note_off_c, 9, 69, 46
1, 37252, Note_off_c, 9, 54, 47
1, 37252, Note_off_c, 9, 42, 76
1, 37252, Note_off_c, 9, 38, 105
1, 37252, Note_off_c, 9, 39, 97
1, 37344, Note_on_c, 9, 54, 44
1, 37348, Note_off_c, 9, 54, 44
1, 37424, Note_off_c, 15, 64, 93
1, 37440, Note_on_c, 15, 69, 111
1, 37440, Note_on_c, 1, 36, 102
1, 37440, Note_on_c, 9, 42, 92
1, 37440, Note_on_c, 9, 54, 44
1, 37440, Note_on_c, 9, 69, 31
1, 37444, Note_off_c, 9, 69, 31
1, 37444, Note_off_c, 9, 54, 44
1, 37444, Note_off_c, 9, 42, 92
1, 37524, Note_off_c, 1, 36, 102
1, 37536, Note_on_c, 9, 54, 45
1, 37536, Note_on_c, 9, 69, 42
1, 37540, Note_off_c, 9, 69, 42
1, 37540, Note_off_c, 9, 54, 45
1, 37608, Note_off_c, 2, 64, 89
1, 37632, Note_on_c, 1, 36, 100
1, 37632, Note_on_c, 9, 36, 121
1, 37632, Note_on_c, 9, 42, 86
1, 37632, Note_on_c, 9, 54, 49
1, 37632, Note_on_c, 9, 69, 49
1, 37636, Note_off_c, 9, 69, 49
1, 37636, Note_off_c, 9, 54, 49
1, 37636, Note_off_c, 9, 42, 86
1, 37636, Note_off_c, 9, 36, 121
1, 37712, Note_off_c, 15, 69, 111
1, 37720, Note_off_c, 7, 64, 121
1, 37728, Note_on_c, 15, 67, 102
1, 37728, Note_on_c, 9, 54, 44
1, 37732, Note_off_c, 9, 54, 44
1, 37808, Note_off_c, 15, 67, 102
1, 37824, Note_on_c, 15, 64, 111
1, 37824, Note_on_c, 7, 64, 120
1, 37824, Note_on_c, 2, 64, 90
1, 37824, Note_on_c, 9, 42, 85
1, 37824, Note_on_c, 9, 54, 47
1, 37824, Note_on_c, 9, 69, 40
1, 37828, Note_off_c, 9, 69, 40
1, 37828, Note_off_c, 9, 54, 47
1, 37828, Note_off_c, 9, 42, 85
1, 37920, Note_on_c, 9, 54, 45
1, 37920, Note_on_c, 9, 69, 41
1, 37924, Note_off_c, 9, 69, 41
1, 37924, Note_off_c, 9, 54, 45
1, 38004, Note_off_c, 1, 36, 100
1, 38008, Note_off_c, 2, 64, 90
1, 38008, Note_off_c, 7, 64, 120
1, 38008, Note_off_c, 8, 60, 115
1, 38008, Note_off_c, 8, 55, 127
1, 38016, Note_on_c, 8, 55, 127
1, 38016, Note_on_c, 8, 60, 127
1, 38016, Note_on_c, 7, 67, 109
1, 38016, Note_on_c, 2, 67, 78
1, 38016, Note_on_c, 9, 39, 98
1, 38016, Note_on_c, 9, 38, 118
1, 38016, Note_on_c, 9, 42, 81
1, 38016, Note_on_c, 9, 54, 39
1, 38016, Note_on_c, 9, 69, 33
1, 38020, Note_off_c, 9, 69, 33
1, 38020, Note_off_c, 9, 54, 39
1, 38020, Note_off_c, 9, 42, 81
1, 38020, Note_off_c, 9, 38, 118
1, 38020, Note_off_c, 9, 39, 98
1, 38112, Note_on_c, 9, 54, 42
1, 38116, Note_off_c, 9, 54, 42
1, 38200, Note_off_c, 2, 67, 78
1, 38200, Note_off_c, 7, 67, 109
1, 38208, Note_on_c, 7, 72, 104
1, 38208, Note_on_c, 2, 72, 81
1, 38208, Note_on_c, 1, 40, 117
1, 38208, Note_on_c, 9, 42, 83
1, 38208, Note_on_c, 9, 54, 31
1, 38208, Note_on_c, 9, 69, 32
1, 38212, Note_off_c, 9, 69, 32
1, 38212, Note_off_c, 9, 54, 31
1, 38212, Note_off_c, 9, 42, 83
1, 38268, Note_off_c, 4, 52, 88
1, 38280, Note_off_c, 2, 60, 91
1, 38280, Note_off_c, 2, 55, 93
1, 38288, Note_off_c, 15, 64, 111
1, 38296, Note_off_c, 8, 60, 127
1, 38296, Note_off_c, 8, 55, 127
1, 38300, Note_off_c, 4, 60, 90
1, 38300, Note_off_c, 4, 55, 97
1, 38304, Note_on_c, 9, 54, 31
1, 38304, Note_on_c, 9, 69, 30
1, 38308, Note_off_c, 9, 69, 30
1, 38308, Note_off_c, 9, 54, 31
1, 38364, Note_on_c, 4, 48, 98
1, 38388, Note_off_c, 1, 40, 117
1, 38388, Note_on_c, 4, 53, 100
1, 38392, Note_off_c, 2, 72, 81
1, 38392, Note_off_c, 7, 72, 104
1, 38400, Note_on_c, 8, 57, 127
1, 38400, Note_on_c, 8, 60, 119
1, 38400, Note_on_c, 7, 69, 120
1, 38400, Note_on_c, 2, 60, 87
1, 38400, Note_on_c, 2, 65, 97
1, 38400, Note_on_c, 2, 69, 88
1, 38400, Note_on_c, 1, 41, 108
1, 38400, Note_on_c, 9, 36, 111
1, 38400, Note_on_c, 9, 42, 83
1, 38400, Note_on_c, 9, 54, 30
1, 38400, Note_on_c, 9, 69, 46
1, 38404, Note_off_c, 9, 69, 46
1, 38404, Note_off_c, 9, 54, 30
1, 38404, Note_off_c, 9, 42, 83
1, 38404, Note_off_c, 9, 36, 111
1, 38404, Note_on_c, 4, 57, 94
1, 38496, Note_on_c, 9, 54, 42
1, 38500, Note_off_c, 9, 54, 42
1, 38592, Note_on_c, 15, 60, 84
1, 38592, Note_on_c, 9, 42, 93
1, 38592, Note_on_c, 9, 54, 39
1, 38592, Note_on_c, 9, 69, 45
1, 38596, Note_off_c, 9, 69, 45
1, 38596, Note_off_c, 9, 54, 39
1, 38596, Note_off_c, 9, 42, 93
1, 38688, Note_on_c, 9, 54, 46
1, 38688, Note_on_c, 9, 69, 46
1, 38692, Note_off_c, 9, 69, 46
1, 38692, Note_off_c, 9, 54, 46
1, 38768, Note_off_c, 15, 60, 84
1, 38772, Note_off_c, 1, 41, 108
1, 38784, Note_on_c, 15, 67, 84
1, 38784, Note_on_c, 9, 39, 89
1, 38784, Note_on_c, 9, 38, 119
1, 38784, Note_on_c, 9, 42, 84
1, 38784, Note_on_c, 9, 54, 31
1, 38784, Note_on_c, 9, 69, 46
1, 38788, Note_off_c, 9, 69, 46
1, 38788, Note_off_c, 9, 54, 31
1, 38788, Note_off_c, 9, 42, 84
1, 38788, Note_off_c, 9, 38, 119
1, 38788, Note_off_c, 9, 39, 89
1, 38880, Note_on_c, 9, 54, 47
1, 38884, Note_off_c, 9, 54, 47
1, 38976, Note_on_c, 1, 41, 112
1, 38976, Note_on_c, 9, 42, 75
1, 38976, Note_on_c, 9, 54, 48
1, 38976, Note_on_c, 9, 69, 32
1, 38980, Note_off_c, 9, 69, 32
1, 38980, Note_off_c, 9, 54, 48
1, 38980, Note_off_c, 9, 42, 75
1, 39060, Note_off_c, 1, 41, 112
1, 39072, Note_on_c, 9, 54, 46
1, 39072, Note_on_c, 9, 69, 44
1, 39076, Note_off_c, 9, 69, 44
1, 39076, Note_off_c, 9, 54, 46
1, 39152, Note_off_c, 15, 67, 84
1, 39168, Note_on_c, 15, 67, 102
1, 39168, Note_on_c, 1, 41, 103
1, 39168, Note_on_c, 9, 36, 110
1, 39168, Note_on_c, 9, 42, 90
1, 39168, Note_on_c, 9, 54, 31
1, 39168, Note_on_c, 9, 69, 30
1, 39172, Note_off_c, 9, 69, 30
1, 39172, Note_off_c, 9, 54, 31
1, 39172, Note_off_c, 9, 42, 90
1, 39172, Note_off_c, 9, 36, 110
1, 39264, Note_on_c, 9, 54, 40
1, 39268, Note_off_c, 9, 54, 40
1, 39360, Note_on_c, 9, 42, 80
1, 39360, Note_on_c, 9, 54, 47
1, 39360, Note_on_c, 9, 69, 36
1, 39364, Note_off_c, 9, 69, 36
1, 39364, Note_off_c, 9, 54, 47
1, 39364, Note_off_c, 9, 42, 80
1, 39432, Note_off_c, 2, 69, 88
1, 39432, Note_off_c, 2, 65, 97
1, 39432, Note_off_c, 2, 60, 87
1, 39448, Note_off_c, 8, 60, 119
1, 39448, Note_off_c, 8, 57, 127
1, 39456, Note_on_c, 9, 54, 31
1, 39456, Note_on_c, 9, 69, 40
1, 39460, Note_off_c, 9, 69, 40
1, 39460, Note_off_c, 9, 54, 31
1, 39536, Note_off_c, 15, 67, 102
1, 39544, Note_off_c, 7, 69, 120
1, 39552, Note_on_c, 15, 67, 93
1, 39552, Note_on_c, 8, 57, 115
1, 39552, Note_on_c, 8, 60, 119
1, 39552, Note_on_c, 7, 69, 115
1, 39552, Note_on_c, 2, 60, 88
1, 39552, Note_on_c, 2, 65, 95
1, 39552, Note_on_c, 2, 69, 83
1, 39552, Note_on_c, 9, 39, 96
1, 39552, Note_on_c, 9, 38, 110
1, 39552, Note_on_c, 9, 42, 87
1, 39552, Note_on_c, 9, 54, 42
1, 39552, Note_on_c, 9, 69, 36
1, 39556, Note_off_c, 9, 69, 36
1, 39556, Note_off_c, 9, 54, 42
1, 39556, Note_off_c, 9, 42, 87
1, 39556, Note_off_c, 9, 38, 110
1, 39556, Note_off_c, 9, 39, 96
1, 39648, Note_on_c, 9, 54, 35
1, 39652, Note_off_c, 9, 54, 35
1, 39728, Note_off_c, 15, 67, 93
1, 39744, Note_on_c, 15, 64, 120
1, 39744, Note_on_c, 9, 42, 78
1, 39744, Note_on_c, 9, 54, 43
1, 39744, Note_on_c, 9, 69, 30
1, 39748, Note_off_c, 9, 69, 30
1, 39748, Note_off_c, 9, 54, 43
1, 39748, Note_off_c, 9, 42, 78
1, 39820, Note_off_c, 4, 48, 98
1, 39828, Note_off_c, 1, 41, 103
1, 39840, Note_off_c, 4, 53, 100
1, 39840, Note_on_c, 9, 54, 33
1, 39840, Note_on_c, 9, 69, 42
1, 39844, Note_off_c, 9, 69, 42
1, 39844, Note_off_c, 9, 54, 33
1, 39856, Note_off_c, 4, 57, 94
1, 39912, Note_off_c, 2, 69, 83
1, 39912, Note_off_c, 2, 65, 95
1, 39912, Note_off_c, 2, 60, 88
1, 39916, Note_on_c, 4, 48, 96
1, 39928, Note_off_c, 7, 69, 115
1, 39928, Note_off_c, 8, 60, 119
1, 39928, Note_off_c, 8, 57, 115
1, 39936, Note_on_c, 8, 55, 120
1, 39936, Note_on_c, 8, 60, 127
1, 39936, Note_on_c, 7, 67, 111
1, 39936, Note_on_c, 4, 52, 91
1, 39936, Note_on_c, 2, 60, 96
1, 39936, Note_on_c, 2, 64, 91
1, 39936, Note_on_c, 2, 67, 94
1, 39936, Note_on_c, 1, 36, 115
1, 39936, Note_on_c, 9, 36, 117
1, 39936, Note_on_c, 9, 42, 89
1, 39936, Note_on_c, 9, 54, 33
1, 39936, Note_on_c, 9, 69, 46
1, 39940, Note_off_c, 9, 69, 46
1, 39940, Note_off_c, 9, 54, 33
1, 39940, Note_off_c, 9, 42, 89
1, 39940, Note_off_c, 9, 36, 117
1, 39944, Note_on_c, 4, 55, 102
1, 40016, Note_off_c, 15, 64, 120
1, 40032, Note_on_c, 15, 62, 93
1, 40032, Note_on_c, 9, 54, 48
1, 40036, Note_off_c, 9, 54, 48
1, 40112, Note_off_c, 15, 62, 93
1, 40128, Note_on_c, 15, 60, 102
1, 40128, Note_on_c, 9, 42, 81
1, 40128, Note_on_c, 9, 54, 33
1, 40128, Note_on_c, 9, 69, 41
1, 40132, Note_off_c, 9, 69, 41
1, 40132, Note_off_c, 9, 54, 33
1, 40132, Note_off_c, 9, 42, 81
1, 40208, Note_off_c, 15, 60, 102
1, 40224, Note_on_c, 15, 64, 102
1, 40224, Note_on_c, 9, 54, 42
1, 40224, Note_on_c, 9, 69, 34
1, 40228, Note_off_c, 9, 69, 34
1, 40228, Note_off_c, 9, 54, 42
1, 40320, Note_on_c, 9, 39, 100
1, 40320, Note_on_c, 9, 38, 106
1, 40320, Note_on_c, 9, 42, 86
1, 40320, Note_on_c, 9, 54, 48
1, 40320, Note_on_c, 9, 69, 38
1, 40324, Note_off_c, 9, 69, 38
1, 40324, Note_off_c, 9, 54, 48
1, 40324, Note_off_c, 9, 42, 86
1, 40324, Note_off_c, 9, 38, 106
1, 40324, Note_off_c, 9, 39, 100
1, 40416, Note_on_c, 9, 54, 40
1, 40420, Note_off_c, 9, 54, 40
1, 40512, Note_on_c, 9, 42, 76
1, 40512, Note_on_c, 9, 54, 42
1, 40512, Note_on_c, 9, 69, 37
1, 40516, Note_off_c, 9, 69, 37
1, 40516, Note_off_c, 9, 54, 42
1, 40516, Note_off_c, 9, 42, 76
1, 40584, Note_off_c, 2, 67, 94
1, 40584, Note_off_c, 2, 64, 91
1, 40584, Note_off_c, 2, 60, 96
1, 40596, Note_off_c, 1, 36, 115
1, 40604, Note_off_c, 4, 48, 96
1, 40608, Note_on_c, 9, 54, 43
1, 40608, Note_on_c, 9, 69, 43
1, 40612, Note_off_c, 9, 69, 43
1, 40612, Note_off_c, 9, 54, 43
1, 40612, Note_off_c, 4, 52, 91
1, 40628, Note_off_c, 4, 55, 102
1, 40696, Note_off_c, 8, 60, 127
1, 40696, Note_off_c, 8, 55, 120
1, 40700, Note_on_c, 4, 55, 93
1, 40704, Note_on_c, 8, 60, 127
1, 40704, Note_on_c, 4, 52, 92
1, 40704, Note_on_c, 4, 60, 99
1, 40704, Note_on_c, 2, 48, 93
1, 40704, Note_on_c, 2, 60, 93
1, 40704, Note_on_c, 2, 64, 90
1, 40704, Note_on_c, 2, 67, 80
1, 40704, Note_on_c, 1, 36, 114
1, 40704, Note_on_c, 9, 36, 122
1, 40704, Note_on_c, 9, 42, 88
1, 40704, Note_on_c, 9, 54, 36
1, 40704, Note_on_c, 9, 69, 31
1, 40708, Note_off_c, 9, 69, 31
1, 40708, Note_off_c, 9, 54, 36
1, 40708, Note_off_c, 9, 42, 88
1, 40708, Note_off_c, 9, 36, 122
1, 40784, Note_off_c, 15, 64, 102
1, 40800, Note_on_c, 9, 54, 47
1, 40804, Note_off_c, 9, 54, 47
1, 40896, Note_on_c, 9, 42, 78
1, 40896, Note_on_c, 9, 54, 39
1, 40896, Note_on_c, 9, 69, 45
1, 40900, Note_off_c, 9, 69, 45
1, 40900, Note_off_c, 9, 54, 39
1, 40900, Note_off_c, 9, 42, 78
1, 40932, Note_off_c, 4, 55, 93
1, 40960, Note_off_c, 4, 52, 92
1, 40972, Note_off_c, 4, 60, 99
1, 40984, Note_off_c, 8, 60, 127
1, 40992, Note_on_c, 9, 54, 39
1, 40992, Note_on_c, 9, 69, 32
1, 40996, Note_off_c, 9, 69, 32
1, 40996, Note_off_c, 9, 54, 39
1, 41064, Note_off_c, 2, 67, 80
1, 41064, Note_off_c, 2, 64, 90
1, 41064, Note_off_c, 2, 60, 93
1, 41064, Note_off_c, 2, 48, 93
1, 41076, Note_off_c, 1, 36, 114
1, 41088, Note_on_c, 8, 59, 123
1, 41088, Note_on_c, 2, 47, 91
1, 41088, Note_on_c, 2, 59, 78
1, 41088, Note_on_c, 2, 62, 97
1, 41088, Note_on_c, 2, 67, 82
1, 41088, Note_on_c, 9, 39, 102
1, 41088, Note_on_c, 1, 35, 112
1, 41088, Note_on_c, 9, 38, 123
1, 41088, Note_on_c, 9, 42, 93
1, 41088, Note_on_c, 9, 54, 40
1, 41088, Note_on_c, 9, 69, 48
1, 41092, Note_off_c, 9, 69, 48
1, 41092, Note_off_c, 9, 54, 40
1, 41092, Note_off_c, 9, 42, 93
1, 41092, Note_off_c, 9, 38, 123
1, 41092, Note_off_c, 9, 39, 102
1, 41096, Note_on_c, 4, 55, 98
1, 41104, Note_on_c, 4, 59, 100
1, 41108, Note_on_c, 4, 50, 99
1, 41184, Note_on_c, 9, 54, 48
1, 41188, Note_off_c, 9, 54, 48
1, 41280, Note_on_c, 9, 46, 106
1, 41280, Note_on_c, 9, 54, 42
1, 41280, Note_on_c, 9, 69, 38
1, 41284, Note_off_c, 9, 69, 38
1, 41284, Note_off_c, 9, 54, 42
1, 41284, Note_off_c, 9, 46, 106
1, 41328, Note_off_c, 4, 50, 99
1, 41328, Note_off_c, 4, 59, 100
1, 41340, Note_off_c, 4, 55, 98
1, 41364, Note_off_c, 1, 35, 112
1, 41368, Note_off_c, 8, 59, 123
1, 41368, Note_off_c, 7, 67, 111
1, 41376, Note_on_c, 9, 54, 34
1, 41376, Note_on_c, 9, 69, 35
1, 41380, Note_off_c, 9, 69, 35
1, 41380, Note_off_c, 9, 54, 34
1, 41432, Note_on_c, 4, 48, 101
1, 41448, Note_off_c, 2, 67, 82
1, 41448, Note_off_c, 2, 62, 97
1, 41448, Note_off_c, 2, 59, 78
1, 41448, Note_off_c, 2, 47, 91
1, 41472, Note_on_c, 8, 60, 126
1, 41472, Note_on_c, 7, 64, 104
1, 41472, Note_on_c, 2, 45, 89
1, 41472, Note_on_c, 2, 52, 84
1, 41472, Note_on_c, 2, 57, 93
1, 41472, Note_on_c, 2, 60, 87
1, 41472, Note_on_c, 1, 33, 114
1, 41472, Note_on_c, 9, 36, 114
1, 41472, Note_on_c, 9, 42, 78
1, 41472, Note_on_c, 9, 54, 34
1, 41472, Note_on_c, 9, 69, 33
1, 41476, Note_off_c, 9, 69, 33
1, 41476, Note_off_c, 9, 54, 34
1, 41476, Note_off_c, 9, 42, 78
1, 41476, Note_off_c, 9, 36, 114
1, 41476, Note_on_c, 4, 52, 93
1, 41480, Note_on_c, 4, 57, 87
1, 41568, Note_on_c, 9, 54, 38
1, 41572, Note_off_c, 9, 54, 38
1, 41664, Note_on_c, 9, 42, 94
1, 41664, Note_on_c, 9, 54, 35
1, 41664, Note_on_c, 9, 69, 41
1, 41668, Note_off_c, 9, 69, 41
1, 41668, Note_off_c, 9, 54, 35
1, 41668, Note_off_c, 9, 42, 94
1, 41760, Note_on_c, 9, 54, 40
1, 41760, Note_on_c, 9, 69, 38
1, 41764, Note_off_c, 9, 69, 38
1, 41764, Note_off_c, 9, 54, 40
1, 41856, Note_on_c, 15, 69, 120
1, 41856, Note_on_c, 9, 39, 85
1, 41856, Note_on_c, 9, 38, 105
1, 41856, Note_on_c, 9, 42, 90
1, 41856, Note_on_c, 9, 54, 41
1, 41856, Note_on_c, 9, 69, 49
1, 41860, Note_off_c, 9, 69, 49
1, 41860, Note_off_c, 9, 54, 41
1, 41860, Note_off_c, 9, 42, 90
1, 41860, Note_off_c, 9, 38, 105
1, 41860, Note_off_c, 9, 39, 85
1, 41940, Note_off_c, 1, 33, 114
1, 41952, Note_on_c, 9, 54, 48
1, 41956, Note_off_c, 9, 54, 48
1, 42032, Note_off_c, 15, 69, 120
1, 42048, Note_on_c, 15, 72, 120
1, 42048, Note_on_c, 1, 33, 106
1, 42048, Note_on_c, 9, 42, 76
1, 42048, Note_on_c, 9, 54, 48
1, 42048, Note_on_c, 9, 69, 42
1, 42052, Note_off_c, 9, 69, 42
1, 42052, Note_off_c, 9, 54, 48
1, 42052, Note_off_c, 9, 42, 76
1, 42132, Note_off_c, 1, 33, 106
1, 42144, Note_on_c, 9, 54, 33
1, 42144, Note_on_c, 9, 69, 30
1, 42148, Note_off_c, 9, 69, 30
1, 42148, Note_off_c, 9, 54, 33
1, 42240, Note_on_c, 1, 33, 104
1, 42240, Note_on_c, 9, 36, 119
1, 42240, Note_on_c, 9, 42, 93
1, 42240, Note_on_c, 9, 54, 34
1, 42240, Note_on_c, 9, 69, 38
1, 42244, Note_off_c, 9, 69, 38
1, 42244, Note_off_c, 9, 54, 34
1, 42244, Note_off_c, 9, 42, 93
1, 42244, Note_off_c, 9, 36, 119
1, 42336, Note_on_c, 9, 54, 40
1, 42340, Note_off_c, 9, 54, 40
1, 42416, Note_off_c, 15, 72, 120
1, 42432, Note_on_c, 15, 69, 120
1, 42432, Note_on_c, 9, 42, 79
1, 42432, Note_on_c, 9, 54, 44
1, 42432, Note_on_c, 9, 69, 38
1, 42436, Note_off_c, 9, 69, 38
1, 42436, Note_off_c, 9, 54, 44
1, 42436, Note_off_c, 9, 42, 79
1, 42528, Note_on_c, 9, 54, 42
1, 42528, Note_on_c, 9, 69, 42
1, 42532, Note_off_c, 9, 69, 42
1, 42532, Note_off_c, 9, 54, 42
1, 42624, Note_on_c, 2, 64, 83
1, 42624, Note_on_c, 9, 39, 102
1, 42624, Note_on_c, 9, 38, 105
1, 42624, Note_on_c, 9, 42, 79
1, 42624, Note_on_c, 9, 54, 42
1, 42624, Note_on_c, 9, 69, 36
1, 42628, Note_off_c, 9, 69, 36
1, 42628, Note_off_c, 9, 54, 42
1, 42628, Note_off_c, 9, 42, 79
1, 42628, Note_off_c, 9, 38, 105
1, 42628, Note_off_c, 9, 39, 102
1, 42708, Note_off_c, 1, 33, 104
1, 42720, Note_on_c, 9, 54, 47
1, 42724, Note_off_c, 9, 54, 47
1, 42800, Note_off_c, 15, 69, 120
1, 42800, Note_off_c, 4, 52, 93
1, 42808, Note_off_c, 2, 64, 83
1, 42816, Note_on_c, 15, 64, 80
1, 42816, Note_on_c, 2, 67, 82
1, 42816, Note_on_c, 1, 33, 111
1, 42816, Note_on_c, 9, 42, 84
1, 42816, Note_on_c, 9, 54, 43
1, 42816, Note_on_c, 9, 69, 45
1, 42820, Note_off_c, 9, 69, 45
1, 42820, Note_off_c, 9, 54, 43
1, 42820, Note_off_c, 9, 42, 84
1, 42864, Note_off_c, 4, 48, 101
1, 42888, Note_off_c, 2, 60, 87
1, 42888, Note_off_c, 2, 57, 93
1, 42888, Note_off_c, 2, 52, 84
1, 42888, Note_off_c, 2, 45, 89
1, 42908, Note_off_c, 4, 57, 87
1, 42912, Note_on_c, 9, 54, 39
1, 42912, Note_on_c, 9, 69, 39
1, 42916, Note_off_c, 9, 69, 39
1, 42916, Note_off_c, 9, 54, 39
1, 42992, Note_off_c, 15, 64, 80
1, 42996, Note_off_c, 1, 33, 111
1, 43000, Note_off_c, 2, 67, 82
1, 43000, Note_off_c, 7, 64, 104
1, 43000, Note_off_c, 8, 60, 126
1, 43004, Note_on_c, 4, 52, 94
1, 43004, Note_on_c, 4, 55, 87
1, 43004, Note_on_c, 4, 59, 97
1, 43008, Note_on_c, 15, 67, 93
1, 43008, Note_on_c, 8, 59, 126
1, 43008, Note_on_c, 7, 62, 119
1, 43008, Note_on_c, 2, 62, 88
1, 43008, Note_on_c, 2, 64, 87
1, 43008, Note_on_c, 2, 67, 89
1, 43008, Note_on_c, 1, 28, 115
1, 43008, Note_on_c, 9, 36, 118
1, 43008, Note_on_c, 9, 42, 83
1, 43008, Note_on_c, 9, 54, 43
1, 43008, Note_on_c, 9, 69, 47
1, 43012, Note_off_c, 9, 69, 47
1, 43012, Note_off_c, 9, 54, 43
1, 43012, Note_off_c, 9, 42, 83
1, 43012, Note_off_c, 9, 36, 118
1, 43104, Note_on_c, 9, 54, 42
1, 43108, Note_off_c, 9, 54, 42
1, 43184, Note_off_c, 15, 67, 93
1, 43200, Note_on_c, 15, 67, 111
1, 43200, Note_on_c, 9, 42, 94
1, 43200, Note_on_c, 9, 54, 34
1, 43200, Note_on_c, 9, 69, 38
1, 43204, Note_off_c, 9, 69, 38
1, 43204, Note_off_c, 9, 54, 34
1, 43204, Note_off_c, 9, 42, 94
1, 43296, Note_on_c, 9, 54, 32
1, 43296, Note_on_c, 9, 69, 46
1, 43300, Note_off_c, 9, 69, 46
1, 43300, Note_off_c, 9, 54, 32
1, 43392, Note_on_c, 9, 39, 88
1, 43392, Note_on_c, 9, 38, 121
1, 43392, Note_on_c, 9, 42, 87
1, 43392, Note_on_c, 9, 54, 39
1, 43392, Note_on_c, 9, 69, 49
1, 43396, Note_off_c, 9, 69, 49
1, 43396, Note_off_c, 9, 54, 39
1, 43396, Note_off_c, 9, 42, 87
1, 43396, Note_off_c, 9, 38, 121
1, 43396, Note_off_c, 9, 39, 88
1, 43476, Note_off_c, 1, 28, 115
1, 43488, Note_on_c, 9, 54, 30
1, 43492, Note_off_c, 9, 54, 30
1, 43568, Note_off_c, 15, 67, 111
1, 43584, Note_on_c, 15, 69, 93
1, 43584, Note_on_c, 1, 28, 111
1, 43584, Note_on_c, 9, 42, 89
1, 43584, Note_on_c, 9, 54, 46
1, 43584, Note_on_c, 9, 69, 42
1, 43588, Note_off_c, 9, 69, 42
1, 43588, Note_off_c, 9, 54, 46
1, 43588, Note_off_c, 9, 42, 89
1, 43668, Note_off_c, 1, 28, 111
1, 43680, Note_on_c, 9, 54, 38
1, 43680, Note_on_c, 9, 69, 48
1, 43684, Note_off_c, 9, 69, 48
1, 43684, Note_off_c, 9, 54, 38
1, 43752, Note_off_c, 2, 67, 89
1, 43752, Note_off_c, 2, 64, 87
1, 43752, Note_off_c, 2, 62, 88
1, 43776, Note_on_c, 2, 62, 80
1, 43776, Note_on_c, 2, 64, 82
1, 43776, Note_on_c, 2, 67, 83
1, 43776, Note_on_c, 1, 28, 109
1, 43776, Note_on_c, 9, 36, 112
1, 43776, Note_on_c, 9, 42, 80
1, 43776, Note_on_c, 9, 54, 41
1, 43776, Note_on_c, 9, 69, 41
1, 43780, Note_off_c, 9, 69, 41
1, 43780, Note_off_c, 9, 54, 41
1, 43780, Note_off_c, 9, 42, 80
1, 43780, Note_off_c, 9, 36, 112
1, 43872, Note_on_c, 9, 54, 42
1, 43876, Note_off_c, 9, 54, 42
1, 43952, Note_off_c, 15, 69, 93
1, 43968, Note_on_c, 15, 64, 102
1, 43968, Note_on_c, 9, 42, 87
1, 43968, Note_on_c, 9, 54, 33
1, 43968, Note_on_c, 9, 69, 49
1, 43972, Note_off_c, 9, 69, 49
1, 43972, Note_off_c, 9, 54, 33
1, 43972, Note_off_c, 9, 42, 87
1, 44056, Note_off_c, 8, 59, 126
1, 44064, Note_on_c, 9, 54, 43
1, 44064, Note_on_c, 9, 69, 40
1, 44068, Note_off_c, 9, 69, 40
1, 44068, Note_off_c, 9, 54, 43
1, 44136, Note_off_c, 2, 67, 83
1, 44136, Note_off_c, 2, 64, 82
1, 44136, Note_off_c, 2, 62, 80
1, 44144, Note_off_c, 15, 64, 102
1, 44160, Note_on_c, 15, 64, 93
1, 44160, Note_on_c, 8, 55, 127
1, 44160, Note_on_c, 2, 62, 96
1, 44160, Note_on_c, 2, 64, 94
1, 44160, Note_on_c, 2, 67, 87
1, 44160, Note_on_c, 9, 39, 96
1, 44160, Note_on_c, 9, 38, 119
1, 44160, Note_on_c, 9, 42, 78
1, 44160, Note_on_c, 9, 54, 32
1, 44160, Note_on_c, 9, 69, 30
1, 44164, Note_off_c, 9, 69, 30
1, 44164, Note_off_c, 9, 54, 32
1, 44164, Note_off_c, 9, 42, 78
1, 44164, Note_off_c, 9, 38, 119
1, 44164, Note_off_c, 9, 39, 96
1, 44244, Note_off_c, 1, 28, 109
1, 44256, Note_on_c, 9, 54, 45
1, 44260, Note_off_c, 9, 54, 45
1, 44336, Note_off_c, 15, 64, 93
1, 44352, Note_on_c, 15, 65, 111
1, 44352, Note_on_c, 1, 28, 108
1, 44352, Note_on_c, 9, 42, 86
1, 44352, Note_on_c, 9, 54, 41
1, 44352, Note_on_c, 9, 69, 48
1, 44356, Note_off_c, 9, 69, 48
1, 44356, Note_off_c, 9, 54, 41
1, 44356, Note_off_c, 9, 42, 86
1, 44400, Note_off_c, 4, 52, 94
1, 44432, Note_off_c, 4, 55, 87
1, 44436, Note_off_c, 4, 59, 97
1, 44448, Note_on_c, 9, 54, 49
1, 44448, Note_on_c, 9, 69, 44
1, 44452, Note_off_c, 9, 69, 44
1, 44452, Note_off_c, 9, 54, 49
1, 44456, Note_on_c, 4, 48, 101
1, 44520, Note_off_c, 2, 67, 87
1, 44520, Note_off_c, 2, 64, 94
1, 44520, Note_off_c, 2, 62, 96
1, 44528, Note_off_c, 15, 65, 111
1, 44532, Note_off_c, 1, 28, 108
1, 44536, Note_off_c, 8, 55, 127
1, 44536, Note_off_c, 7, 62, 119
1, 44540, Note_on_c, 4, 53, 90
1, 44544, Note_on_c, 14, 65, 110
1, 44544, Note_on_c, 15, 67, 120
1, 44544, Note_on_c, 8, 57, 127
1, 44544, Note_on_c, 7, 65, 117
1, 44544, Note_on_c, 2, 60, 96
1, 44544, Note_on_c, 2, 65, 93
1, 44544, Note_on_c, 2, 67, 97
1, 44544, Note_on_c, 1, 29, 113
1, 44544, Note_on_c, 9, 36, 117
1, 44544, Note_on_c, 9, 42, 81
1, 44544, Note_on_c, 9, 54, 35
1, 44544, Note_on_c, 9, 69, 47
1, 44548, Note_off_c, 9, 69, 47
1, 44548, Note_off_c, 9, 54, 35
1, 44548, Note_off_c, 9, 42, 81
1, 44548, Note_off_c, 9, 36, 117
1, 44552, Note_on_c, 4, 55, 90
1, 44640, Note_on_c, 9, 54, 49
1, 44644, Note_off_c, 9, 54, 49
1, 44736, Note_on_c, 9, 42, 93
1, 44736, Note_on_c, 9, 54, 45
1, 44736, Note_on_c, 9, 69, 34
1, 44740, Note_off_c, 9, 69, 34
1, 44740, Note_off_c, 9, 54, 45
1, 44740, Note_off_c, 9, 42, 93
1, 44832, Note_on_c, 9, 54, 46
1, 44832, Note_on_c, 9, 69, 46
1, 44836, Note_off_c, 9, 69, 46
1, 44836, Note_off_c, 9, 54, 46
1, 44912, Note_off_c, 15, 67, 120
1, 44912, Note_off_c, 14, 65, 110
1, 44916, Note_off_c, 1, 29, 113
1, 44920, Note_off_c, 7, 65, 117
1, 44928, Note_on_c, 14, 64, 122
1, 44928, Note_on_c, 15, 67, 111
1, 44928, Note_on_c, 7, 64, 112
1, 44928, Note_on_c, 9, 39, 103
1, 44928, Note_on_c, 1, 29, 103
1, 44928, Note_on_c, 9, 38, 109
1, 44928, Note_on_c, 9, 42, 75
1, 44928, Note_on_c, 9, 54, 41
1, 44928, Note_on_c, 9, 69, 35
1, 44932, Note_off_c, 9, 69, 35
1, 44932, Note_off_c, 9, 54, 41
1, 44932, Note_off_c, 9, 42, 75
1, 44932, Note_off_c, 9, 38, 109
1, 44932, Note_off_c, 9, 39, 103
1, 45012, Note_off_c, 1, 29, 103
1, 45024, Note_on_c, 9, 54, 31
1, 45028, Note_off_c, 9, 54, 31
1, 45120, Note_on_c, 1, 29, 117
1, 45120, Note_on_c, 9, 42, 83
1, 45120, Note_on_c, 9, 54, 33
1, 45120, Note_on_c, 9, 69, 36
1, 45124, Note_off_c, 9, 69, 36
1, 45124, Note_off_c, 9, 54, 33
1, 45124, Note_off_c, 9, 42, 83
1, 45204, Note_off_c, 1, 29, 117
1, 45216, Note_on_c, 9, 54, 48
1, 45216, Note_on_c, 9, 69, 31
1, 45220, Note_off_c, 9, 69, 31
1, 45220, Note_off_c, 9, 54, 48
1, 45296, Note_off_c, 15, 67, 111
1, 45296, Note_off_c, 14, 64, 122
1, 45304, Note_off_c, 7, 64, 112
1, 45312, Note_on_c, 14, 62, 117
1, 45312, Note_on_c, 15, 67, 102
1, 45312, Note_on_c, 7, 62, 110
1, 45312, Note_on_c, 1, 29, 105
1, 45312, Note_on_c, 9, 36, 114
1, 45312, Note_on_c, 9, 42, 83
1, 45312, Note_on_c, 9, 54, 40
1, 45312, Note_on_c, 9, 69, 47
1, 45316, Note_off_c, 9, 69, 47
1, 45316, Note_off_c, 9, 54, 40
1, 45316, Note_off_c, 9, 42, 83
1, 45316, Note_off_c, 9, 36, 114
1, 45396, Note_off_c, 1, 29, 105
1, 45408, Note_on_c, 9, 54, 49
1, 45412, Note_off_c, 9, 54, 49
1, 45504, Note_on_c, 1, 29, 105
1, 45504, Note_on_c, 9, 42, 85
1, 45504, Note_on_c, 9, 54, 47
1, 45504, Note_on_c, 9, 69, 31
1, 45508, Note_off_c, 9, 69, 31
1, 45508, Note_off_c, 9, 54, 47
1, 45508, Note_off_c, 9, 42, 85
1, 45584, Note_off_c, 15, 67, 102
1, 45588, Note_off_c, 1, 29, 105
1, 45600, Note_on_c, 9, 54, 44
1, 45600, Note_on_c, 9, 69, 38
1, 45604, Note_off_c, 9, 69, 38
1, 45604, Note_off_c, 9, 54, 44
1, 45680, Note_off_c, 14, 62, 117
1, 45688, Note_off_c, 7, 62, 110
1, 45696, Note_on_c, 14, 60, 122
1, 45696, Note_on_c, 15, 67, 102
1, 45696, Note_on_c, 7, 60, 116
1, 45696, Note_on_c, 9, 39, 87
1, 45696, Note_on_c, 1, 29, 118
1, 45696, Note_on_c, 9, 38, 119
1, 45696, Note_on_c, 9, 42, 94
1, 45696, Note_on_c, 9, 54, 42
1, 45696, Note_on_c, 9, 69, 35
1, 45700, Note_off_c, 9, 69, 35
1, 45700, Note_off_c, 9, 54, 42
1, 45700, Note_off_c, 9, 42, 94
1, 45700, Note_off_c, 9, 38, 119
1, 45700, Note_off_c, 9, 39, 87
1, 45780, Note_off_c, 1, 29, 118
1, 45792, Note_on_c, 9, 54, 40
1, 45796, Note_off_c, 9, 54, 40
1, 45872, Note_off_c, 15, 67, 102
1, 45888, Note_on_c, 15, 64, 93
1, 45888, Note_on_c, 1, 29, 113
1, 45888, Note_on_c, 9, 42, 94
1, 45888, Note_on_c, 9, 54, 45
1, 45888, Note_on_c, 9, 69, 33
1, 45892, Note_off_c, 9, 69, 33
1, 45892, Note_off_c, 9, 54, 45
1, 45892, Note_off_c, 9, 42, 94
1, 45900, Note_off_c, 4, 48, 101
1, 45972, Note_off_c, 1, 29, 113
1, 45984, Note_on_c, 9, 54, 31
1, 45984, Note_on_c, 9, 69, 40
1, 45988, Note_off_c, 9, 69, 40
1, 45988, Note_off_c, 9, 54, 31
1, 45988, Note_off_c, 4, 53, 90
1, 46016, Note_off_c, 4, 55, 90
1, 46056, Note_off_c, 2, 67, 97
1, 46056, Note_off_c, 2, 65, 93
1, 46056, Note_off_c, 2, 60, 96
1, 46064, Note_off_c, 15, 64, 93
1, 46072, Note_off_c, 7, 60, 116
1, 46072, Note_off_c, 8, 57, 127
1, 46072, Note_on_c, 4, 50, 92
1, 46076, Note_on_c, 4, 55, 90
1, 46080, Note_on_c, 14, 62, 119
1, 46080, Note_on_c, 15, 67, 111
1, 46080, Note_on_c, 8, 43, 127
1, 46080, Note_on_c, 7, 62, 107
1, 46080, Note_on_c, 4, 59, 84
1, 46080, Note_on_c, 2, 59, 80
1, 46080, Note_on_c, 2, 62, 83
1, 46080, Note_on_c, 2, 67, 85
1, 46080, Note_on_c, 1, 31, 109
1, 46080, Note_on_c, 9, 36, 117
1, 46080, Note_on_c, 9, 42, 84
1, 46080, Note_on_c, 9, 54, 37
1, 46080, Note_on_c, 9, 69, 31
1, 46084, Note_off_c, 9, 69, 31
1, 46084, Note_off_c, 9, 54, 37
1, 46084, Note_off_c, 9, 42, 84
1, 46084, Note_off_c, 9, 36, 117
1, 46088, Note_off_c, 14, 60, 122
1, 46164, Note_off_c, 1, 31, 109
1, 46176, Note_on_c, 9, 54, 31
1, 46180, Note_off_c, 9, 54, 31
1, 46256, Note_off_c, 15, 67, 111
1, 46256, Note_off_c, 14, 62, 119
1, 46264, Note_off_c, 8, 43, 127
1, 46272, Note_on_c, 14, 62, 126
1, 46272, Note_on_c, 15, 67, 102
1, 46272, Note_on_c, 8, 45, 87
1, 46272, Note_on_c, 1, 31, 111
1, 46272, Note_on_c, 9, 42, 77
1, 46272, Note_on_c, 9, 54, 39
1, 46272, Note_on_c, 9, 69, 49
1, 46276, Note_off_c, 9, 69, 49
1, 46276, Note_off_c, 9, 54, 39
1, 46276, Note_off_c, 9, 42, 77
1, 46356, Note_off_c, 1, 31, 111
1, 46360, Note_off_c, 8, 45, 87
1, 46368, Note_on_c, 8, 47, 90
1, 46368, Note_on_c, 9, 54, 30
1, 46368, Note_on_c, 9, 69, 33
1, 46372, Note_off_c, 9, 69, 33
1, 46372, Note_off_c, 9, 54, 30
1, 46448, Note_off_c, 15, 67, 102
1, 46448, Note_off_c, 14, 62, 126
1, 46456, Note_off_c, 8, 47, 90
1, 46464, Note_on_c, 14, 62, 119
1, 46464, Note_on_c, 15, 67, 120
1, 46464, Note_on_c, 8, 48, 93
1, 46464, Note_on_c, 9, 39, 99
1, 46464, Note_on_c, 1, 31, 112
1, 46464, Note_on_c, 9, 38, 113
1, 46464, Note_on_c, 9, 42, 92
1, 46464, Note_on_c, 9, 54, 45
1, 46464, Note_on_c, 9, 69, 47
1, 46468, Note_off_c, 9, 69, 47
1, 46468, Note_off_c, 9, 54, 45
1, 46468, Note_off_c, 9, 42, 92
1, 46468, Note_off_c, 9, 38, 113
1, 46468, Note_off_c, 9, 39, 99
1, 46548, Note_off_c, 1, 31, 112
1, 46552, Note_off_c, 8, 48, 93
1, 46560, Note_on_c, 8, 50, 96
1, 46560, Note_on_c, 9, 54, 49
1, 46564, Note_off_c, 9, 54, 49
1, 46648, Note_off_c, 8, 50, 96
1, 46656, Note_on_c, 8, 52, 99
1, 46656, Note_on_c, 1, 31, 108
1, 46656, Note_on_c, 9, 42, 90
1, 46656, Note_on_c, 9, 54, 34
1, 46656, Note_on_c, 9, 69, 46
1, 46660, Note_off_c, 9, 69, 46
1, 46660, Note_off_c, 9, 54, 34
1, 46660, Note_off_c, 9, 42, 90
1, 46740, Note_off_c, 1, 31, 108
1, 46744, Note_off_c, 8, 52, 99
1, 46752, Note_on_c, 8, 53, 101
1, 46752, Note_on_c, 9, 54, 48
1, 46752, Note_on_c, 9, 69, 35
1, 46756, Note_off_c, 9, 69, 35
1, 46756, Note_off_c, 9, 54, 48
1, 46832, Note_off_c, 15, 67, 120
1, 46840, Note_off_c, 8, 53, 101
1, 46848, Note_on_c, 15, 69, 111
1, 46848, Note_on_c, 8, 55, 104
1, 46848, Note_on_c, 1, 31, 105
1, 46848, Note_on_c, 9, 36, 113
1, 46848, Note_on_c, 9, 42, 90
1, 46848, Note_on_c, 9, 54, 36
1, 46848, Note_on_c, 9, 69, 43
1, 46852, Note_off_c, 9, 69, 43
1, 46852, Note_off_c, 9, 54, 36
1, 46852, Note_off_c, 9, 42, 90
1, 46852, Note_off_c, 9, 36, 113
1, 46932, Note_off_c, 1, 31, 105
1, 46944, Note_on_c, 9, 54, 49
1, 46948, Note_off_c, 9, 54, 49
1, 47032, Note_off_c, 7, 62, 107
1, 47040, Note_on_c, 7, 62, 90
1, 47040, Note_on_c, 1, 31, 102
1, 47040, Note_on_c, 9, 42, 75
1, 47040, Note_on_c, 9, 54, 35
1, 47040, Note_on_c, 9, 69, 47
1, 47044, Note_off_c, 9, 69, 47
1, 47044, Note_off_c, 9, 54, 35
1, 47044, Note_off_c, 9, 42, 75
1, 47124, Note_off_c, 1, 31, 102
1, 47128, Note_off_c, 7, 62, 90
1, 47136, Note_on_c, 7, 64, 96
1, 47136, Note_on_c, 9, 54, 44
1, 47136, Note_on_c, 9, 69, 43
1, 47140, Note_off_c, 9, 69, 43
1, 47140, Note_off_c, 9, 54, 44
1, 47216, Note_off_c, 15, 69, 111
1, 47224, Note_off_c, 7, 64, 96
1, 47224, Note_off_c, 8, 55, 104
1, 47232, Note_on_c, 15, 67, 102
1, 47232, Note_on_c, 8, 53, 115
1, 47232, Note_on_c, 7, 65, 102
1, 47232, Note_on_c, 9, 39, 95
1, 47232, Note_on_c, 1, 31, 101
1, 47232, Note_on_c, 9, 38, 117
1, 47232, Note_on_c, 9, 42, 77
1, 47232, Note_on_c, 9, 54, 30
1, 47232, Note_on_c, 9, 69, 33
1, 47236, Note_off_c, 9, 69, 33
1, 47236, Note_off_c, 9, 54, 30
1, 47236, Note_off_c, 9, 42, 77
1, 47236, Note_off_c, 9, 38, 117
1, 47236, Note_off_c, 9, 39, 95
1, 47316, Note_off_c, 1, 31, 101
1, 47320, Note_off_c, 7, 65, 102
1, 47320, Note_off_c, 8, 53, 115
1, 47328, Note_on_c, 8, 55, 118
1, 47328, Note_on_c, 7, 67, 108
1, 47328, Note_on_c, 9, 54, 30
1, 47332, Note_off_c, 9, 54, 30
1, 47416, Note_off_c, 7, 67, 108
1, 47416, Note_off_c, 8, 55, 118
1, 47424, Note_on_c, 8, 57, 121
1, 47424, Note_on_c, 7, 69, 114
1, 47424, Note_on_c, 1, 31, 111
1, 47424, Note_on_c, 9, 43, 77
1, 47424, Note_on_c, 9, 46, 108
1, 47424, Note_on_c, 9, 54, 32
1, 47424, Note_on_c, 9, 69, 31
1, 47428, Note_off_c, 9, 69, 31
1, 47428, Note_off_c, 9, 54, 32
1, 47428, Note_off_c, 9, 46, 108
1, 47428, Note_off_c, 9, 43, 77
1, 47508, Note_off_c, 1, 31, 111
1, 47512, Note_off_c, 7, 69, 114
1, 47512, Note_off_c, 8, 57, 121
1, 47520, Note_on_c, 8, 59, 124
1, 47520, Note_on_c, 7, 71, 121
1, 47520, Note_on_c, 9, 54, 37
1, 47520, Note_on_c, 9, 69, 40
1, 47524, Note_off_c, 9, 69, 40
1, 47524, Note_off_c, 9, 54, 37
1, 47588, Note_off_c, 4, 59, 84
1, 47592, Note_off_c, 2, 67, 85
1, 47592, Note_off_c, 2, 62, 83
1, 47592, Note_off_c, 2, 59, 80
1, 47600, Note_off_c, 15, 67, 102
1, 47600, Note_off_c, 14, 62, 119
1, 47604, Note_off_c, 4, 55, 90
1, 47604, Note_off_c, 4, 50, 92
1, 47608, Note_off_c, 7, 71, 121
1, 47608, Note_off_c, 8, 59, 124
1, 47616, Tempo, 500000
1, 47616, Note_on_c, 14, 60, 124
1, 47616, Note_on_c, 14, 72, 126
1, 47616, Note_on_c, 15, 60, 122
1, 47616, Note_on_c, 8, 48, 127
1, 47616, Note_on_c, 8, 60, 127
1, 47616, Note_on_c, 7, 60, 127
1, 47616, Note_on_c, 7, 64, 127
1, 47616, Note_on_c, 7, 67, 127
1, 47616, Note_on_c, 3, 72, 65
1, 47616, Note_on_c, 2, 72, 90
1, 47616, Note_on_c, 2, 84, 81
1, 47616, Note_on_c, 1, 36, 100
1, 47616, Note_on_c, 9, 36, 123
1, 47616, Note_on_c, 9, 42, 89
1, 47616, Note_on_c, 9, 54, 37
1, 47616, Note_on_c, 9, 69, 30
1, 47620, Note_off_c, 9, 69, 30
1, 47620, Note_off_c, 9, 54, 37
1, 47620, Note_off_c, 9, 42, 89
1, 47620, Note_off_c, 9, 36, 123
1, 47704, Note_off_c, 3, 72, 65
1, 47704, Pitch_bend_c, 1, 8192
1, 47712, Note_on_c, 3, 72, 52
1, 47712, Pitch_bend_c, 1, 8009
1, 47712, Note_on_c, 9, 54, 36
1, 47716, Note_off_c, 9, 54, 36
1, 47720, Pitch_bend_c, 1, 7827
1, 47728, Pitch_bend_c, 1, 7644
1, 47736, Pitch_bend_c, 1, 7461
1, 47744, Pitch_bend_c, 1, 7278
1, 47752, Note_off_c, 2, 84, 81
1, 47752, Pitch_bend_c, 1, 7096
1, 47760, Note_off_c, 2, 72, 90
1, 47760, Pitch_bend_c, 1, 6913
1, 47768, Pitch_bend_c, 1, 6730
1, 47776, Pitch_bend_c, 1, 6548
1, 47780, Note_off_c, 15, 60, 122
1, 47784, Pitch_bend_c, 1, 6365
1, 47792, Note_off_c, 14, 72, 126
1, 47792, Note_off_c, 14, 60, 124
1, 47792, Pitch_bend_c, 1, 6182
1, 47800, Note_off_c, 3, 72, 52
1, 47800, Note_off_c, 7, 67, 127
1, 47800, Note_off_c, 7, 64, 127
1, 47800, Note_off_c, 7, 60, 127
1, 47800, Note_off_c, 8, 60, 127
1, 47800, Note_off_c, 8, 48, 127
1, 47800, Pitch_bend_c, 1, 6000
1, 47808, Note_on_c, 14, 57, 117
1, 47808, Note_on_c, 14, 69, 121
1, 47808, Note_on_c, 15, 57, 116
1, 47808, Note_on_c, 3, 72, 50
1, 47808, Pitch_bend_c, 1, 5817
1, 47808, Note_on_c, 9, 46, 106
1, 47808, Note_on_c, 9, 54, 44
1, 47808, Note_on_c, 9, 69, 41
1, 47812, Note_off_c, 9, 69, 41
1, 47812, Note_off_c, 9, 54, 44
1, 47812, Note_off_c, 9, 46, 106
1, 47816, Pitch_bend_c, 1, 5634
1, 47824, Pitch_bend_c, 1, 5451
1, 47832, Pitch_bend_c, 1, 5269
1, 47840, Pitch_bend_c, 1, 5086
1, 47848, Pitch_bend_c, 1, 4903
1, 47856, Pitch_bend_c, 1, 4720
1, 47864, Pitch_bend_c, 1, 4538
1, 47872, Pitch_bend_c, 1, 4355
1, 47880, Pitch_bend_c, 1, 4172
1, 47888, Pitch_bend_c, 1, 3990
1, 47892, Note_off_c, 1, 36, 100
1, 47896, Note_off_c, 3, 72, 50
1, 47896, Pitch_bend_c, 1, 3807
1, 47904, Note_on_c, 3, 72, 59
1, 47904, Pitch_bend_c, 1, 3624
1, 47904, Note_on_c, 9, 54, 46
1, 47904, Note_on_c, 9, 69, 49
1, 47908, Note_off_c, 9, 69, 49
1, 47908, Note_off_c, 9, 54, 46
1, 47912, Pitch_bend_c, 1, 3441
1, 47920, Pitch_bend_c, 1, 3259
1, 47928, Pitch_bend_c, 1, 3076
1, 47936, Pitch_bend_c, 1, 8192
1, 47984, Note_off_c, 15, 57, 116
1, 47984, Note_off_c, 14, 69, 121
1, 47984, Note_off_c, 14, 57, 117
1, 47992, Note_off_c, 3, 72, 59
1, 48000, Note_on_c, 14, 60, 112
1, 48000, Note_on_c, 14, 72, 111
1, 48000, Note_on_c, 15, 60, 116
1, 48000, Note_on_c, 8, 52, 127
1, 48000, Note_on_c, 7, 60, 109
1, 48000, Note_on_c, 7, 64, 122
1, 48000, Note_on_c, 7, 67, 122
1, 48000, Note_on_c, 3, 72, 50
1, 48000, Note_on_c, 2, 72, 88
1, 48000, Note_on_c, 2, 84, 81
1, 48000, Note_on_c, 9, 39, 103
1, 48000, Note_on_c, 1, 28, 105
1, 48000, Note_on_c, 9, 36, 124
1, 48000, Note_on_c, 9, 38, 123
1, 48000, Note_on_c, 9, 42, 87
1, 48000, Note_on_c, 9, 54, 41
1, 48000, Note_on_c, 9, 69, 48
1, 48004, Note_off_c, 9, 69, 48
1, 48004, Note_off_c, 9, 54, 41
1, 48004, Note_off_c, 9, 42, 87
1, 48004, Note_off_c, 9, 38, 123
1, 48004, Note_off_c, 9, 36, 124
1, 48004, Note_off_c, 9, 39, 103
1, 48088, Note_off_c, 3, 72, 50
1, 48088, Note_off_c, 7, 67, 122
1, 48088, Note_off_c, 7, 64, 122
1, 48088, Note_off_c, 7, 60, 109
1, 48088, Note_off_c, 8, 52, 127
1, 48096, Note_on_c, 3, 72, 69
1, 48096, Note_on_c, 9, 54, 38
1, 48100, Note_off_c, 9, 54, 38
1, 48116, Note_off_c, 2, 84, 81
1, 48140, Note_off_c, 2, 72, 88
1, 48180, Note_off_c, 1, 28, 105
1, 48184, Note_off_c, 3, 72, 69
1, 48192, Note_on_c, 8, 53, 117
1, 48192, Note_on_c, 7, 60, 106
1, 48192, Note_on_c, 7, 65, 109
1, 48192, Note_on_c, 7, 69, 103
1, 48192, Note_on_c, 3, 72, 62
1, 48192, Note_on_c, 1, 29, 106
1, 48192, Note_on_c, 9, 42, 89
1, 48192, Note_on_c, 9, 54, 48
1, 48192, Note_on_c, 9, 69, 37
1, 48196, Note_off_c, 9, 69, 37
1, 48196, Note_off_c, 9, 54, 48
1, 48196, Note_off_c, 9, 42, 89
1, 48280, Note_off_c, 3, 72, 62
1, 48280, Note_off_c, 7, 69, 103
1, 48280, Note_off_c, 7, 65, 109
1, 48280, Note_off_c, 7, 60, 106
1, 48280, Note_off_c, 8, 53, 117
1, 48288, Note_on_c, 3, 72, 67
1, 48288, Note_on_c, 9, 54, 35
1, 48288, Note_on_c, 9, 69, 49
1, 48292, Note_off_c, 9, 69, 49
1, 48292, Note_off_c, 9, 54, 35
1, 48336, Note_off_c, 15, 60, 116
1, 48368, Note_off_c, 14, 72, 111
1, 48368, Note_off_c, 14, 60, 112
1, 48372, Note_off_c, 1, 29, 106
1, 48376, Note_off_c, 3, 72, 67
1, 48384, Note_on_c, 14, 60, 119
1, 48384, Note_on_c, 14, 72, 126
1, 48384, Note_on_c, 15, 60, 121
1, 48384, Note_on_c, 3, 72, 58
1, 48384, Note_on_c, 2, 72, 87
1, 48384, Note_on_c, 2, 84, 96
1, 48384, Note_on_c, 9, 36, 122
1, 48384, Note_on_c, 9, 42, 90
1, 48384, Note_on_c, 9, 54, 32
1, 48384, Note_on_c, 9, 69, 39
1, 48388, Note_off_c, 9, 69, 39
1, 48388, Note_off_c, 9, 54, 32
1, 48388, Note_off_c, 9, 42, 90
1, 48388, Note_off_c, 9, 36, 122
1, 48472, Note_off_c, 3, 72, 58
1, 48480, Note_off_c, 2, 84, 96
1, 48480, Note_on_c, 3, 72, 52
1, 48480, Note_on_c, 9, 54, 39
1, 48484, Note_off_c, 9, 54, 39
1, 48500, Note_off_c, 2, 72, 87
1, 48552, Note_off_c, 15, 60, 121
1, 48560, Note_off_c, 14, 72, 126
1, 48560, Note_off_c, 14, 60, 119
1, 48568, Note_off_c, 3, 72, 52
1, 48576, Note_on_c, 14, 57, 127
1, 48576, Note_on_c, 14, 69, 119
1, 48576, Note_on_c, 15, 57, 127
1, 48576, Note_on_c, 8, 52, 127
1, 48576, Note_on_c, 7, 60, 116
1, 48576, Note_on_c, 7, 64, 109
1, 48576, Note_on_c, 7, 67, 105
1, 48576, Note_on_c, 3, 72, 54
1, 48576, Note_on_c, 1, 28, 106
1, 48576, Note_on_c, 9, 42, 77
1, 48576, Note_on_c, 9, 54, 47
1, 48576, Note_on_c, 9, 69, 33
1, 48580, Note_off_c, 9, 69, 33
1, 48580, Note_off_c, 9, 54, 47
1, 48580, Note_off_c, 9, 42, 77
1, 48664, Note_off_c, 3, 72, 54
1, 48664, Note_off_c, 7, 67, 105
1, 48664, Note_off_c, 7, 64, 109
1, 48664, Note_off_c, 7, 60, 116
1, 48664, Note_off_c, 8, 52, 127
1, 48672, Note_on_c, 3, 72, 59
1, 48672, Note_on_c, 9, 54, 40
1, 48672, Note_on_c, 9, 69, 45
1, 48676, Note_off_c, 9, 69, 45
1, 48676, Note_off_c, 9, 54, 40
1, 48752, Note_off_c, 14, 69, 119
1, 48752, Note_off_c, 14, 57, 127
1, 48756, Note_off_c, 1, 28, 106
1, 48760, Note_off_c, 3, 72, 59
1, 48760, Note_off_c, 15, 57, 127
1, 48768, Note_on_c, 14, 60, 116
1, 48768, Note_on_c, 14, 72, 110
1, 48768, Note_on_c, 15, 60, 127
1, 48768, Note_on_c, 3, 72, 53
1, 48768, Note_on_c, 2, 72, 86
1, 48768, Note_on_c, 2, 84, 88
1, 48768, Note_on_c, 9, 39, 102
1, 48768, Note_on_c, 9, 36, 119
1, 48768, Note_on_c, 9, 38, 107
1, 48768, Note_on_c, 9, 42, 82
1, 48768, Note_on_c, 9, 54, 39
1, 48768, Note_on_c, 9, 69, 33
1, 48772, Note_off_c, 9, 69, 33
1, 48772, Note_off_c, 9, 54, 39
1, 48772, Note_off_c, 9, 42, 82
1, 48772, Note_off_c, 9, 38, 107
1, 48772, Note_off_c, 9, 36, 119
1, 48772, Note_off_c, 9, 39, 102
1, 48856, Note_off_c, 3, 72, 53
1, 48864, Note_on_c, 3, 72, 67
1, 48864, Note_on_c, 9, 54, 44
1, 48868, Note_off_c, 9, 54, 44
1, 48872, Note_off_c, 2, 84, 88
1, 48888, Note_off_c, 2, 72, 86
1, 48952, Note_off_c, 3, 72, 67
1, 48960, Note_on_c, 8, 53, 117
1, 48960, Note_on_c, 7, 60, 122
1, 48960, Note_on_c, 7, 65, 106
1, 48960, Note_on_c, 7, 69, 115
1, 48960, Note_on_c, 3, 72, 65
1, 48960, Note_on_c, 1, 29, 103
1, 48960, Note_on_c, 9, 42, 84
1, 48960, Note_on_c, 9, 54, 42
1, 48960, Note_on_c, 9, 69, 39
1, 48964, Note_off_c, 9, 69, 39
1, 48964, Note_off_c, 9, 54, 42
1, 48964, Note_off_c, 9, 42, 84
1, 49048, Note_off_c, 3, 72, 65
1, 49048, Note_off_c, 7, 69, 115
1, 49048, Note_off_c, 7, 65, 106
1, 49048, Note_off_c, 7, 60, 122
1, 49048, Note_off_c, 8, 53, 117
1, 49056, Note_on_c, 3, 72, 63
1, 49056, Note_on_c, 9, 54, 45
1, 49056, Note_on_c, 9, 69, 38
1, 49060, Note_off_c, 9, 69, 38
1, 49060, Note_off_c, 9, 54, 45
1, 49080, Note_off_c, 15, 60, 127
1, 49136, Note_off_c, 14, 72, 110
1, 49136, Note_off_c, 14, 60, 116
1, 49140, Note_off_c, 1, 29, 103
1, 49144, Note_off_c, 3, 72, 63
1, 49152, Note_on_c, 14, 60, 127
1, 49152, Note_on_c, 14, 72, 121
1, 49152, Note_on_c, 15, 60, 120
1, 49152, Note_on_c, 3, 72, 65
1, 49152, Note_on_c, 2, 72, 79
1, 49152, Note_on_c, 2, 84, 87
1, 49152, Note_on_c, 9, 36, 108
1, 49152, Note_on_c, 9, 42, 78
1, 49152, Note_on_c, 9, 54, 35
1, 49152, Note_on_c, 9, 69, 36
1, 49156, Note_off_c, 9, 69, 36
1, 49156, Note_off_c, 9, 54, 35
1, 49156, Note_off_c, 9, 42, 78
1, 49156, Note_off_c, 9, 36, 108
1, 49240, Note_off_c, 3, 72, 65
1, 49248, Note_off_c, 2, 72, 79
1, 49248, Note_on_c, 3, 72, 58
1, 49248, Note_on_c, 9, 54, 43
1, 49252, Note_off_c, 9, 54, 43
1, 49260, Note_off_c, 2, 84, 87
1, 49336, Note_off_c, 3, 72, 58
1, 49344, Note_on_c, 8, 52, 125
1, 49344, Note_on_c, 7, 60, 120
1, 49344, Note_on_c, 7, 64, 113
1, 49344, Note_on_c, 7, 67, 122
1, 49344, Note_on_c, 3, 72, 63
1, 49344, Note_on_c, 1, 28, 106
1, 49344, Note_on_c, 9, 46, 102
1, 49344, Note_on_c, 9, 54, 33
1, 49344, Note_on_c, 9, 69, 37
1, 49348, Note_off_c, 9, 69, 37
1, 49348, Note_off_c, 9, 54, 33
1, 49348, Note_off_c, 9, 46, 102
1, 49432, Note_off_c, 3, 72, 63
1, 49432, Note_off_c, 7, 67, 122
1, 49432, Note_off_c, 7, 64, 113
1, 49432, Note_off_c, 7, 60, 120
1, 49432, Note_off_c, 8, 52, 125
1, 49440, Note_on_c, 3, 72, 50
1, 49440, Note_on_c, 9, 54, 49
1, 49440, Note_on_c, 9, 69, 43
1, 49444, Note_off_c, 9, 69, 43
1, 49444, Note_off_c, 9, 54, 49
1, 49500, Note_off_c, 15, 60, 120
1, 49520, Note_off_c, 14, 72, 121
1, 49520, Note_off_c, 14, 60, 127
1, 49524, Note_off_c, 1, 28, 106
1, 49528, Note_off_c, 3, 72, 50
1, 49536, Note_on_c, 14, 60, 112
1, 49536, Note_on_c, 14, 72, 119
1, 49536, Note_on_c, 15, 60, 113
1, 49536, Note_on_c, 3, 72, 54
1, 49536, Note_on_c, 2, 72, 92
1, 49536, Note_on_c, 2, 84, 78
1, 49536, Note_on_c, 9, 39, 93
1, 49536, Note_on_c, 9, 36, 112
1, 49536, Note_on_c, 9, 38, 108
1, 49536, Note_on_c, 9, 42, 84
1, 49536, Note_on_c, 9, 54, 39
1, 49536, Note_on_c, 9, 69, 47
1, 49540, Note_off_c, 9, 69, 47
1, 49540, Note_off_c, 9, 54, 39
1, 49540, Note_off_c, 9, 42, 84
1, 49540, Note_off_c, 9, 38, 108
1, 49540, Note_off_c, 9, 36, 112
1, 49540, Note_off_c, 9, 39, 93
1, 49624, Note_off_c, 3, 72, 54
1, 49628, Note_off_c, 2, 84, 78
1, 49632, Note_on_c, 3, 72, 67
1, 49632, Note_on_c, 9, 54, 47
1, 49636, Note_off_c, 9, 54, 47
1, 49640, Note_off_c, 2, 72, 92
1, 49720, Note_off_c, 3, 72, 67
1, 49728, Note_on_c, 8, 53, 115
1, 49728, Note_on_c, 7, 60, 119
1, 49728, Note_on_c, 7, 65, 113
1, 49728, Note_on_c, 7, 69, 103
1, 49728, Note_on_c, 3, 72, 69
1, 49728, Note_on_c, 1, 29, 104
1, 49728, Note_on_c, 9, 42, 82
1, 49728, Note_on_c, 9, 54, 30
1, 49728, Note_on_c, 9, 69, 40
1, 49732, Note_off_c, 9, 69, 40
1, 49732, Note_off_c, 9, 54, 30
1, 49732, Note_off_c, 9, 42, 82
1, 49816, Note_off_c, 3, 72, 69
1, 49816, Note_off_c, 7, 69, 103
1, 49816, Note_off_c, 7, 65, 113
1, 49816, Note_off_c, 7, 60, 119
1, 49816, Note_off_c, 8, 53, 115
1, 49824, Note_on_c, 3, 72, 56
1, 49824, Note_on_c, 9, 54, 34
1, 49824, Note_on_c, 9, 69, 35
1, 49828, Note_off_c, 9, 69, 35
1, 49828, Note_off_c, 9, 54, 34
1, 49836, Note_off_c, 15, 60, 113
1, 49860, Note_off_c, 1, 29, 104
1, 49904, Note_off_c, 14, 72, 119
1, 49904, Note_off_c, 14, 60, 112
1, 49912, Note_off_c, 3, 72, 56
1, 49920, Note_on_c, 14, 64, 122
1, 49920, Note_on_c, 14, 76, 118
1, 49920, Note_on_c, 15, 64, 112
1, 49920, Note_on_c, 8, 55, 127
1, 49920, Note_on_c, 7, 62, 105
1, 49920, Note_on_c, 7, 67, 119
1, 49920, Note_on_c, 7, 71, 113
1, 49920, Note_on_c, 3, 72, 64
1, 49920, Note_on_c, 2, 72, 96
1, 49920, Note_on_c, 2, 84, 86
1, 49920, Note_on_c, 1, 31, 113
1, 49920, Note_on_c, 9, 36, 117
1, 49920, Note_on_c, 9, 42, 80
1, 49920, Note_on_c, 9, 54, 31
1, 49920, Note_on_c, 9, 69, 42
1, 49924, Note_off_c, 9, 69, 42
1, 49924, Note_off_c, 9, 54, 31
1, 49924, Note_off_c, 9, 42, 80
1, 49924, Note_off_c, 9, 36, 117
1, 50008, Note_off_c, 3, 72, 64
1, 50012, Note_off_c, 2, 84, 86
1, 50016, Note_off_c, 2, 72, 96
1, 50016, Note_on_c, 3, 72, 55
1, 50016, Note_on_c, 9, 54, 48
1, 50020, Note_off_c, 9, 54, 48
1, 50100, Note_off_c, 1, 31, 113
1, 50104, Note_off_c, 3, 72, 55
1, 50104, Note_off_c, 7, 71, 113
1, 50104, Note_off_c, 7, 67, 119
1, 50104, Note_off_c, 7, 62, 105
1, 50104, Note_off_c, 8, 55, 127
1, 50112, Note_on_c, 3, 67, 66
1, 50112, Note_on_c, 9, 42, 78
1, 50112, Note_on_c, 9, 54, 41
1, 50112, Note_on_c, 9, 69, 47
1, 50116, Note_off_c, 9, 69, 47
1, 50116, Note_off_c, 9, 54, 41
1, 50116, Note_off_c, 9, 42, 78
1, 50200, Note_off_c, 3, 67, 66
1, 50208, Note_on_c, 9, 54, 48
1, 50208, Note_on_c, 9, 69, 49
1, 50212, Note_off_c, 9, 69, 49
1, 50212, Note_off_c, 9, 54, 48
1, 50248, Note_off_c, 15, 64, 112
1, 50288, Note_off_c, 14, 76, 118
1, 50288, Note_off_c, 14, 64, 122
1, 50304, Note_on_c, 14, 62, 120
1, 50304, Note_on_c, 14, 74, 120
1, 50304, Note_on_c, 15, 62, 114
1, 50304, Note_on_c, 8, 55, 115
1, 50304, Note_on_c, 7, 62, 103
1, 50304, Note_on_c, 7, 67, 109
1, 50304, Note_on_c, 7, 71, 114
1, 50304, Note_on_c, 3, 67, 56
1, 50304, Note_on_c, 2, 72, 79
1, 50304, Note_on_c, 2, 84, 88
1, 50304, Note_on_c, 9, 39, 85
1, 50304, Note_on_c, 1, 31, 109
1, 50304, Note_on_c, 9, 36, 117
1, 50304, Note_on_c, 9, 38, 106
1, 50304, Note_on_c, 9, 42, 82
1, 50304, Note_on_c, 9, 54, 33
1, 50304, Note_on_c, 9, 69, 39
1, 50308, Note_off_c, 9, 69, 39
1, 50308, Note_off_c, 9, 54, 33
1, 50308, Note_off_c, 9, 42, 82
1, 50308, Note_off_c, 9, 38, 106
1, 50308, Note_off_c, 9, 36, 117
1, 50308, Note_off_c, 9, 39, 85
1, 50392, Note_off_c, 3, 67, 56
1, 50400, Note_on_c, 3, 69, 57
1, 50400, Note_on_c, 9, 54, 47
1, 50404, Note_off_c, 9, 54, 47
1, 50412, Note_off_c, 2, 72, 79
1, 50420, Note_off_c, 2, 84, 88
1, 50480, Note_off_c, 15, 62, 114
1, 50480, Note_off_c, 14, 74, 120
1, 50480, Note_off_c, 14, 62, 120
1, 50488, Note_off_c, 3, 69, 57
1, 50488, Note_off_c, 7, 71, 114
1, 50488, Note_off_c, 7, 67, 109
1, 50488, Note_off_c, 7, 62, 103
1, 50488, Note_off_c, 8, 55, 115
1, 50496, Note_on_c, 14, 60, 123
1, 50496, Note_on_c, 14, 72, 122
1, 50496, Note_on_c, 15, 60, 123
1, 50496, Note_on_c, 3, 72, 54
1, 50496, Note_on_c, 9, 42, 90
1, 50496, Note_on_c, 9, 54, 48
1, 50496, Note_on_c, 9, 69, 36
1, 50500, Note_off_c, 9, 69, 36
1, 50500, Note_off_c, 9, 54, 48
1, 50500, Note_off_c, 9, 42, 90
1, 50580, Note_off_c, 1, 31, 109
1, 50584, Note_off_c, 3, 72, 54
1, 50592, Note_on_c, 3, 74, 51
1, 50592, Note_on_c, 9, 54, 45
1, 50592, Note_on_c, 9, 69, 34
1, 50596, Note_off_c, 9, 69, 34
1, 50596, Note_off_c, 9, 54, 45
1, 50680, Note_off_c, 3, 74, 51
1, 50688, Tempo, 504200
1, 50688, Note_on_c, 8, 48, 123
1, 50688, Note_on_c, 7, 60, 120
1, 50688, Note_on_c, 7, 64, 105
1, 50688, Note_on_c, 7, 67, 114
1, 50688, Note_on_c, 3, 72, 57
1, 50688, Note_on_c, 2, 72, 94
1, 50688, Note_on_c, 2, 84, 90
1, 50688, Note_on_c, 1, 36, 100
1, 50688, Note_on_c, 9, 36, 124
1, 50688, Note_on_c, 9, 42, 89
1, 50688, Note_on_c, 9, 54, 49
1, 50688, Note_on_c, 9, 69, 41
1, 50692, Note_off_c, 9, 69, 41
1, 50692, Note_off_c, 9, 54, 49
1, 50692, Note_off_c, 9, 42, 89
1, 50692, Note_off_c, 9, 36, 124
1, 50776, Note_off_c, 3, 72, 57
1, 50776, Pitch_bend_c, 1, 8192
1, 50784, Note_on_c, 3, 72, 54
1, 50784, Pitch_bend_c, 1, 8009
1, 50784, Note_on_c, 9, 54, 44
1, 50788, Note_off_c, 9, 54, 44
1, 50792, Pitch_bend_c, 1, 7827
1, 50800, Pitch_bend_c, 1, 7644
1, 50808, Pitch_bend_c, 1, 7461
1, 50816, Pitch_bend_c, 1, 7278
1, 50824, Pitch_bend_c, 1, 7096
1, 50832, Pitch_bend_c, 1, 6913
1, 50840, Pitch_bend_c, 1, 6730
1, 50848, Pitch_bend_c, 1, 6548
1, 50856, Pitch_bend_c, 1, 6365
1, 50864, Pitch_bend_c, 1, 6182
1, 50872, Note_off_c, 3, 72, 54
1, 50872, Note_off_c, 2, 84, 90
1, 50872, Note_off_c, 2, 72, 94
1, 50872, Note_off_c, 7, 67, 114
1, 50872, Note_off_c, 7, 64, 105
1, 50872, Note_off_c, 7, 60, 120
1, 50872, Note_off_c, 8, 48, 123
1, 50872, Pitch_bend_c, 1, 6000
1, 50880, Note_on_c, 3, 72, 52
1, 50880, Note_on_c, 2, 79, 93
1, 50880, Note_on_c, 2, 91, 88
1, 50880, Pitch_bend_c, 1, 5817
1, 50880, Note_on_c, 9, 46, 94
1, 50880, Note_on_c, 9, 54, 49
1, 50880, Note_on_c, 9, 69, 41
1, 50884, Note_off_c, 9, 69, 41
1, 50884, Note_off_c, 9, 54, 49
1, 50884, Note_off_c, 9, 46, 94
1, 50888, Pitch_bend_c, 1, 5634
1, 50896, Pitch_bend_c, 1, 5451
1, 50904, Pitch_bend_c, 1, 5269
1, 50912, Pitch_bend_c, 1, 5086
1, 50920, Pitch_bend_c, 1, 4903
1, 50928, Pitch_bend_c, 1, 4720
1, 50936, Pitch_bend_c, 1, 4538
1, 50944, Pitch_bend_c, 1, 4355
1, 50952, Pitch_bend_c, 1, 4172
1, 50960, Pitch_bend_c, 1, 3990
1, 50964, Note_off_c, 1, 36, 100
1, 50968, Note_off_c, 3, 72, 52
1, 50968, Pitch_bend_c, 1, 3807
1, 50976, Note_on_c, 3, 72, 54
1, 50976, Pitch_bend_c, 1, 3624
1, 50976, Note_on_c, 9, 54, 49
1, 50976, Note_on_c, 9, 69, 39
1, 50980, Note_off_c, 9, 69, 39
1, 50980, Note_off_c, 9, 54, 49
1, 50984, Pitch_bend_c, 1, 3441
1, 50992, Pitch_bend_c, 1, 3259
1, 51000, Pitch_bend_c, 1, 3076
1, 51008, Pitch_bend_c, 1, 8192
1, 51064, Note_off_c, 3, 72, 54
1, 51064, Note_off_c, 2, 91, 88
1, 51064, Note_off_c, 2, 79, 93
1, 51072, Note_on_c, 8, 52, 116
1, 51072, Note_on_c, 7, 60, 119
1, 51072, Note_on_c, 7, 64, 116
1, 51072, Note_on_c, 7, 67, 119
1, 51072, Note_on_c, 3, 72, 53
1, 51072, Note_on_c, 2, 76, 91
1, 51072, Note_on_c, 2, 88, 92
1, 51072, Note_on_c, 9, 39, 102
1, 51072, Note_on_c, 1, 28, 110
1, 51072, Note_on_c, 9, 36, 106
1, 51072, Note_on_c, 9, 38, 121
1, 51072, Note_on_c, 9, 42, 81
1, 51072, Note_on_c, 9, 54, 46
1, 51072, Note_on_c, 9, 69, 47
1, 51076, Note_off_c, 9, 69, 47
1, 51076, Note_off_c, 9, 54, 46
1, 51076, Note_off_c, 9, 42, 81
1, 51076, Note_off_c, 9, 38, 121
1, 51076, Note_off_c, 9, 36, 106
1, 51076, Note_off_c, 9, 39, 102
1, 51160, Note_off_c, 3, 72, 53
1, 51160, Note_off_c, 7, 67, 119
1, 51160, Note_off_c, 7, 64, 116
1, 51160, Note_off_c, 7, 60, 119
1, 51160, Note_off_c, 8, 52, 116
1, 51168, Note_on_c, 3, 72, 62
1, 51168, Note_on_c, 9, 54, 33
1, 51172, Note_off_c, 9, 54, 33
1, 51252, Note_off_c, 1, 28, 110
1, 51256, Note_off_c, 3, 72, 62
1, 51256, Note_off_c, 2, 88, 92
1, 51256, Note_off_c, 2, 76, 91
1, 51264, Note_on_c, 8, 53, 117
1, 51264, Note_on_c, 7, 60, 120
1, 51264, Note_on_c, 7, 65, 120
1, 51264, Note_on_c, 7, 69, 117
1, 51264, Note_on_c, 3, 72, 55
1, 51264, Note_on_c, 2, 77, 79
1, 51264, Note_on_c, 2, 89, 94
1, 51264, Note_on_c, 1, 29, 118
1, 51264, Note_on_c, 9, 42, 82
1, 51264, Note_on_c, 9, 54, 48
1, 51264, Note_on_c, 9, 69, 43
1, 51268, Note_off_c, 9, 69, 43
1, 51268, Note_off_c, 9, 54, 48
1, 51268, Note_off_c, 9, 42, 82
1, 51352, Note_off_c, 3, 72, 55
1, 51352, Note_off_c, 7, 69, 117
1, 51352, Note_off_c, 7, 65, 120
1, 51352, Note_off_c, 7, 60, 120
1, 51352, Note_off_c, 8, 53, 117
1, 51360, Note_on_c, 3, 72, 60
1, 51360, Note_on_c, 9, 54, 44
1, 51360, Note_on_c, 9, 69, 48
1, 51364, Note_off_c, 9, 69, 48
1, 51364, Note_off_c, 9, 54, 44
1, 51444, Note_off_c, 1, 29, 118
1, 51448, Note_off_c, 3, 72, 60
1, 51448, Note_off_c, 2, 89, 94
1, 51448, Note_off_c, 2, 77, 79
1, 51456, Note_on_c, 3, 72, 59
1, 51456, Note_on_c, 2, 84, 80
1, 51456, Note_on_c, 2, 96, 91
1, 51456, Note_on_c, 9, 36, 123
1, 51456, Note_on_c, 9, 42, 91
1, 51456, Note_on_c, 9, 54, 41
1, 51456, Note_on_c, 9, 69, 45
1, 51460, Note_off_c, 9, 69, 45
1, 51460, Note_off_c, 9, 54, 41
1, 51460, Note_off_c, 9, 42, 91
1, 51460, Note_off_c, 9, 36, 123
1, 51544, Note_off_c, 3, 72, 59
1, 51552, Note_on_c, 3, 72, 65
1, 51552, Note_on_c, 9, 54, 48
1, 51556, Note_off_c, 9, 54, 48
1, 51632, Note_off_c, 14, 72, 122
1, 51632, Note_off_c, 14, 60, 123
1, 51640, Note_off_c, 3, 72, 65
1, 51640, Note_off_c, 2, 96, 91
1, 51640, Note_off_c, 2, 84, 80
1, 51648, Note_on_c, 8, 52, 119
1, 51648, Note_on_c, 7, 60, 121
1, 51648, Note_on_c, 7, 64, 119
1, 51648, Note_on_c, 7, 67, 120
1, 51648, Note_on_c, 3, 72, 67
1, 51648, Note_on_c, 2, 89, 86
1, 51648, Note_on_c, 2, 101, 86
1, 51648, Note_on_c, 1, 28, 103
1, 51648, Note_on_c, 9, 42, 88
1, 51648, Note_on_c, 9, 54, 47
1, 51648, Note_on_c, 9, 69, 40
1, 51652, Note_off_c, 9, 69, 40
1, 51652, Note_off_c, 9, 54, 47
1, 51652, Note_off_c, 9, 42, 88
1, 51736, Note_off_c, 3, 72, 67
1, 51736, Note_off_c, 7, 67, 120
1, 51736, Note_off_c, 7, 64, 119
1, 51736, Note_off_c, 7, 60, 121
1, 51736, Note_off_c, 8, 52, 119
1, 51744, Note_on_c, 3, 72, 63
1, 51744, Note_on_c, 9, 54, 38
1, 51744, Note_on_c, 9, 69, 39
1, 51748, Note_off_c, 9, 69, 39
1, 51748, Note_off_c, 9, 54, 38
1, 51816, Note_off_c, 15, 60, 123
1, 51828, Note_off_c, 1, 28, 103
1, 51832, Note_off_c, 3, 72, 63
1, 51832, Note_off_c, 2, 101, 86
1, 51832, Note_off_c, 2, 89, 86
1, 51840, Note_on_c, 3, 72, 53
1, 51840, Note_on_c, 9, 39, 100
1, 51840, Note_on_c, 9, 36, 120
1, 51840, Note_on_c, 9, 38, 108
1, 51840, Note_on_c, 9, 42, 80
1, 51840, Note_on_c, 9, 54, 40
1, 51840, Note_on_c, 9, 69, 47
1, 51844, Note_off_c, 9, 69, 47
1, 51844, Note_off_c, 9, 54, 40
1, 51844, Note_off_c, 9, 42, 80
1, 51844, Note_off_c, 9, 38, 108
1, 51844, Note_off_c, 9, 36, 120
1, 51844, Note_off_c, 9, 39, 100
1, 51928, Note_off_c, 3, 72, 53
1, 51936, Note_on_c, 3, 72, 57
1, 51936, Note_on_c, 9, 54, 43
1, 51940, Note_off_c, 9, 54, 43
1, 52024, Note_off_c, 3, 72, 57
1, 52032, Note_on_c, 15, 74, 125
1, 52032, Note_on_c, 8, 53, 127
1, 52032, Note_on_c, 7, 60, 113
1, 52032, Note_on_c, 7, 65, 115
1, 52032, Note_on_c, 7, 69, 114
1, 52032, Note_on_c, 3, 72, 61
1, 52032, Note_on_c, 2, 88, 86
1, 52032, Note_on_c, 2, 100, 82
1, 52032, Note_on_c, 1, 29, 105
1, 52032, Note_on_c, 9, 42, 76
1, 52032, Note_on_c, 9, 54, 40
1, 52032, Note_on_c, 9, 69, 36
1, 52036, Note_off_c, 9, 69, 36
1, 52036, Note_off_c, 9, 54, 40
1, 52036, Note_off_c, 9, 42, 76
1, 52120, Note_off_c, 3, 72, 61
1, 52120, Note_off_c, 7, 69, 114
1, 52120, Note_off_c, 7, 65, 115
1, 52120, Note_off_c, 7, 60, 113
1, 52120, Note_off_c, 8, 53, 127
1, 52128, Note_on_c, 3, 72, 50
1, 52128, Note_on_c, 9, 54, 32
1, 52128, Note_on_c, 9, 69, 43
1, 52132, Note_off_c, 9, 69, 43
1, 52132, Note_off_c, 9, 54, 32
1, 52212, Note_off_c, 1, 29, 105
1, 52216, Note_off_c, 3, 72, 50
1, 52216, Note_off_c, 2, 100, 82
1, 52216, Note_off_c, 2, 88, 86
1, 52224, Note_on_c, 3, 72, 54
1, 52224, Note_on_c, 9, 36, 121
1, 52224, Note_on_c, 9, 42, 92
1, 52224, Note_on_c, 9, 54, 48
1, 52224, Note_on_c, 9, 69, 40
1, 52228, Note_off_c, 9, 69, 40
1, 52228, Note_off_c, 9, 54, 48
1, 52228, Note_off_c, 9, 42, 92
1, 52228, Note_off_c, 9, 36, 121
1, 52312, Note_off_c, 3, 72, 54
1, 52320, Note_on_c, 3, 72, 69
1, 52320, Note_on_c, 9, 54, 31
1, 52324, Note_off_c, 9, 54, 31
1, 52408, Note_off_c, 3, 72, 69
1, 52416, Note_on_c, 8, 52, 115
1, 52416, Note_on_c, 7, 60, 119
1, 52416, Note_on_c, 7, 64, 111
1, 52416, Note_on_c, 7, 67, 107
1, 52416, Note_on_c, 3, 72, 64
1, 52416, Note_on_c, 2, 84, 79
1, 52416, Note_on_c, 2, 96, 95
1, 52416, Note_on_c, 1, 28, 105
1, 52416, Note_on_c, 9, 46, 96
1, 52416, Note_on_c, 9, 54, 46
1, 52416, Note_on_c, 9, 69, 45
1, 52420, Note_off_c, 9, 69, 45
1, 52420, Note_off_c, 9, 54, 46
1, 52420, Note_off_c, 9, 46, 96
1, 52504, Note_off_c, 3, 72, 64
1, 52504, Note_off_c, 7, 67, 107
1, 52504, Note_off_c, 7, 64, 111
1, 52504, Note_off_c, 7, 60, 119
1, 52504, Note_off_c, 8, 52, 115
1, 52512, Note_on_c, 3, 72, 69
1, 52512, Note_on_c, 9, 54, 39
1, 52512, Note_on_c, 9, 69, 47
1, 52516, Note_off_c, 9, 69, 47
1, 52516, Note_off_c, 9, 54, 39
1, 52596, Note_off_c, 1, 28, 105
1, 52600, Note_off_c, 3, 72, 69
1, 52600, Note_off_c, 2, 96, 95
1, 52600, Note_off_c, 2, 84, 79
1, 52600, Note_off_c, 15, 74, 125
1, 52608, Note_on_c, 15, 76, 126
1, 52608, Note_on_c, 3, 72, 60
1, 52608, Note_on_c, 9, 39, 100
1, 52608, Note_on_c, 9, 36, 124
1, 52608, Note_on_c, 9, 38, 110
1, 52608, Note_on_c, 9, 42, 78
1, 52608, Note_on_c, 9, 54, 41
1, 52608, Note_on_c, 9, 69, 41
1, 52612, Note_off_c, 9, 69, 41
1, 52612, Note_off_c, 9, 54, 41
1, 52612, Note_off_c, 9, 42, 78
1, 52612, Note_off_c, 9, 38, 110
1, 52612, Note_off_c, 9, 36, 124
1, 52612, Note_off_c, 9, 39, 100
1, 52696, Note_off_c, 3, 72, 60
1, 52704, Note_on_c, 3, 72, 65
1, 52704, Note_on_c, 9, 54, 46
1, 52708, Note_off_c, 9, 54, 46
1, 52792, Note_off_c, 3, 72, 65
1, 52792, Note_off_c, 15, 76, 126
1, 52800, Note_on_c, 15, 74, 127
1, 52800, Note_on_c, 8, 53, 127
1, 52800, Note_on_c, 7, 60, 121
1, 52800, Note_on_c, 7, 65, 104
1, 52800, Note_on_c, 7, 69, 119
1, 52800, Note_on_c, 3, 72, 61
1, 52800, Note_on_c, 2, 79, 79
1, 52800, Note_on_c, 2, 91, 90
1, 52800, Note_on_c, 1, 29, 101
1, 52800, Note_on_c, 9, 42, 86
1, 52800, Note_on_c, 9, 54, 33
1, 52800, Note_on_c, 9, 69, 30
1, 52804, Note_off_c, 9, 69, 30
1, 52804, Note_off_c, 9, 54, 33
1, 52804, Note_off_c, 9, 42, 86
1, 52888, Note_off_c, 3, 72, 61
1, 52888, Note_off_c, 7, 69, 119
1, 52888, Note_off_c, 7, 65, 104
1, 52888, Note_off_c, 7, 60, 121
1, 52888, Note_off_c, 8, 53, 127
1, 52896, Note_off_c, 15, 74, 127
1, 52896, Note_on_c, 15, 72, 117
1, 52896, Note_on_c, 3, 72, 66
1, 52896, Note_on_c, 9, 54, 49
1, 52896, Note_on_c, 9, 69, 46
1, 52900, Note_off_c, 9, 69, 46
1, 52900, Note_off_c, 9, 54, 49
1, 52932, Note_off_c, 1, 29, 101
1, 52984, Note_off_c, 3, 72, 66
1, 52984, Note_off_c, 2, 91, 90
1, 52984, Note_off_c, 2, 79, 79
1, 52992, Note_on_c, 8, 55, 116
1, 52992, Note_on_c, 7, 62, 108
1, 52992, Note_on_c, 7, 67, 103
1, 52992, Note_on_c, 7, 71, 116
1, 52992, Note_on_c, 3, 72, 55
1, 52992, Note_on_c, 1, 31, 108
1, 52992, Note_on_c, 9, 36, 120
1, 52992, Note_on_c, 9, 42, 81
1, 52992, Note_on_c, 9, 54, 48
1, 52992, Note_on_c, 9, 69, 36
1, 52996, Note_off_c, 9, 69, 36
1, 52996, Note_off_c, 9, 54, 48
1, 52996, Note_off_c, 9, 42, 81
1, 52996, Note_off_c, 9, 36, 120
1, 53080, Note_off_c, 3, 72, 55
1, 53088, Note_on_c, 3, 72, 66
1, 53088, Note_on_c, 9, 54, 46
1, 53092, Note_off_c, 9, 54, 46
1, 53172, Note_off_c, 1, 31, 108
1, 53176, Note_off_c, 3, 72, 66
1, 53176, Note_off_c, 7, 71, 116
1, 53176, Note_off_c, 7, 67, 103
1, 53176, Note_off_c, 7, 62, 108
1, 53176, Note_off_c, 8, 55, 116
1, 53184, Note_on_c, 3, 76, 55
1, 53184, Note_on_c, 9, 42, 88
1, 53184, Note_on_c, 9, 54, 44
1, 53184, Note_on_c, 9, 69, 48
1, 53188, Note_off_c, 9, 69, 48
1, 53188, Note_off_c, 9, 54, 44
1, 53188, Note_off_c, 9, 42, 88
1, 53272, Note_off_c, 3, 76, 55
1, 53280, Note_on_c, 9, 54, 46
1, 53280, Note_on_c, 9, 69, 31
1, 53284, Note_off_c, 9, 69, 31
1, 53284, Note_off_c, 9, 54, 46
1, 53360, Note_off_c, 15, 72, 117
1, 53376, Note_on_c, 15, 69, 117
1, 53376, Note_on_c, 8, 55, 127
1, 53376, Note_on_c, 7, 62, 111
1, 53376, Note_on_c, 7, 67, 115
1, 53376, Note_on_c, 7, 71, 117
1, 53376, Note_on_c, 3, 76, 58
1, 53376, Note_on_c, 2, 86, 83
1, 53376, Note_on_c, 2, 98, 97
1, 53376, Note_on_c, 9, 39, 92
1, 53376, Note_on_c, 1, 31, 101
1, 53376, Note_on_c, 9, 36, 107
1, 53376, Note_on_c, 9, 38, 110
1, 53376, Note_on_c, 9, 42, 87
1, 53376, Note_on_c, 9, 54, 37
1, 53376, Note_on_c, 9, 69, 30
1, 53380, Note_off_c, 9, 69, 30
1, 53380, Note_off_c, 9, 54, 37
1, 53380, Note_off_c, 9, 42, 87
1, 53380, Note_off_c, 9, 38, 110
1, 53380, Note_off_c, 9, 36, 107
1, 53380, Note_off_c, 9, 39, 92
1, 53464, Note_off_c, 3, 76, 58
1, 53472, Note_on_c, 3, 74, 57
1, 53472, Note_on_c, 9, 54, 45
1, 53476, Note_off_c, 9, 54, 45
1, 53548, Note_off_c, 15, 69, 117
1, 53560, Note_off_c, 3, 74, 57
1, 53560, Note_off_c, 7, 71, 117
1, 53560, Note_off_c, 7, 67, 115
1, 53560, Note_off_c, 7, 62, 111
1, 53560, Note_off_c, 8, 55, 127
1, 53568, Note_on_c, 15, 72, 120
1, 53568, Note_on_c, 3, 69, 54
1, 53568, Note_on_c, 9, 46, 109
1, 53568, Note_on_c, 9, 54, 40
1, 53568, Note_on_c, 9, 69, 39
1, 53572, Note_off_c, 9, 69, 39
1, 53572, Note_off_c, 9, 54, 40
1, 53572, Note_off_c, 9, 46, 109
1, 53640, Note_off_c, 2, 98, 97
1, 53640, Note_off_c, 2, 86, 83
1, 53652, Note_off_c, 1, 31, 101
1, 53656, Note_off_c, 3, 69, 54
1, 53664, Note_on_c, 3, 67, 53
1, 53664, Note_on_c, 9, 54, 37
1, 53664, Note_on_c, 9, 69, 33
1, 53668, Note_off_c, 9, 69, 33
1, 53668, Note_off_c, 9, 54, 37
1, 53748, Note_off_c, 15, 72, 120
1, 53752, Note_off_c, 3, 67, 53
1, 53760, Tempo, 500000
1, 53760, Note_on_c, 14, 60, 112
1, 53760, Note_on_c, 14, 72, 122
1, 53760, Note_on_c, 15, 60, 127
1, 53760, Note_on_c, 8, 48, 127
1, 53760, Note_on_c, 7, 60, 113
1, 53760, Note_on_c, 7, 64, 107
1, 53760, Note_on_c, 7, 67, 110
1, 53760, Note_on_c, 3, 72, 60
1, 53760, Note_on_c, 2, 72, 81
1, 53760, Note_on_c, 2, 84, 87
1, 53760, Note_on_c, 1, 36, 117
1, 53760, Note_on_c, 9, 36, 115
1, 53760, Note_on_c, 9, 42, 90
1, 53760, Note_on_c, 9, 54, 34
1, 53760, Note_on_c, 9, 69, 41
1, 53764, Note_off_c, 9, 69, 41
1, 53764, Note_off_c, 9, 54, 34
1, 53764, Note_off_c, 9, 42, 90
1, 53764, Note_off_c, 9, 36, 115
1, 53848, Note_off_c, 3, 72, 60
1, 53848, Pitch_bend_c, 1, 8192
1, 53856, Note_on_c, 3, 72, 53
1, 53856, Pitch_bend_c, 1, 8009
1, 53856, Note_on_c, 9, 54, 49
1, 53860, Note_off_c, 9, 54, 49
1, 53864, Pitch_bend_c, 1, 7827
1, 53872, Pitch_bend_c, 1, 7644
1, 53880, Pitch_bend_c, 1, 7461
1, 53888, Pitch_bend_c, 1, 7278
1, 53896, Note_off_c, 2, 84, 87
1, 53896, Pitch_bend_c, 1, 7096
1, 53904, Note_off_c, 2, 72, 81
1, 53904, Pitch_bend_c, 1, 6913
1, 53912, Pitch_bend_c, 1, 6730
1, 53920, Pitch_bend_c, 1, 6548
1, 53928, Pitch_bend_c, 1, 6365
1, 53936, Note_off_c, 15, 60, 127
1, 53936, Note_off_c, 14, 72, 122
1, 53936, Note_off_c, 14, 60, 112
1, 53936, Pitch_bend_c, 1, 6182
1, 53944, Note_off_c, 3, 72, 53
1, 53944, Note_off_c, 7, 67, 110
1, 53944, Note_off_c, 7, 64, 107
1, 53944, Note_off_c, 7, 60, 113
1, 53944, Note_off_c, 8, 48, 127
1, 53944, Pitch_bend_c, 1, 6000
1, 53952, Note_on_c, 14, 57, 127
1, 53952, Note_on_c, 14, 69, 127
1, 53952, Note_on_c, 15, 57, 116
1, 53952, Note_on_c, 3, 72, 61
1, 53952, Pitch_bend_c, 1, 5817
1, 53952, Note_on_c, 9, 46, 109
1, 53952, Note_on_c, 9, 54, 48
1, 53952, Note_on_c, 9, 69, 39
1, 53956, Note_off_c, 9, 69, 39
1, 53956, Note_off_c, 9, 54, 48
1, 53956, Note_off_c, 9, 46, 109
1, 53960, Pitch_bend_c, 1, 5634
1, 53968, Pitch_bend_c, 1, 5451
1, 53976, Pitch_bend_c, 1, 5269
1, 53984, Pitch_bend_c, 1, 5086
1, 53992, Pitch_bend_c, 1, 4903
1, 54000, Pitch_bend_c, 1, 4720
1, 54008, Pitch_bend_c, 1, 4538
1, 54016, Pitch_bend_c, 1, 4355
1, 54024, Pitch_bend_c, 1, 4172
1, 54032, Pitch_bend_c, 1, 3990
1, 54036, Note_off_c, 1, 36, 117
1, 54040, Note_off_c, 3, 72, 61
1, 54040, Pitch_bend_c, 1, 3807
1, 54048, Note_on_c, 3, 72, 58
1, 54048, Pitch_bend_c, 1, 3624
1, 54048, Note_on_c, 9, 54, 46
1, 54048, Note_on_c, 9, 69, 38
1, 54052, Note_off_c, 9, 69, 38
1, 54052, Note_off_c, 9, 54, 46
1, 54056, Pitch_bend_c, 1, 3441
1, 54064, Pitch_bend_c, 1, 3259
1, 54072, Pitch_bend_c, 1, 3076
1, 54080, Pitch_bend_c, 1, 8192
1, 54128, Note_off_c, 14, 69, 127
1, 54128, Note_off_c, 14, 57, 127
1, 54136, Note_off_c, 3, 72, 58
1, 54136, Note_off_c, 15, 57, 116
1, 54144, Note_on_c, 14, 60, 123
1, 54144, Note_on_c, 14, 72, 122
1, 54144, Note_on_c, 15, 60, 120
1, 54144, Note_on_c, 8, 52, 127
1, 54144, Note_on_c, 7, 60, 109
1, 54144, Note_on_c, 7, 64, 107
1, 54144, Note_on_c, 7, 67, 120
1, 54144, Note_on_c, 3, 72, 51
1, 54144, Note_on_c, 2, 72, 78
1, 54144, Note_on_c, 2, 84, 87
1, 54144, Note_on_c, 9, 39, 98
1, 54144, Note_on_c, 1, 28, 116
1, 54144, Note_on_c, 9, 36, 110
1, 54144, Note_on_c, 9, 38, 105
1, 54144, Note_on_c, 9, 42, 93
1, 54144, Note_on_c, 9, 54, 48
1, 54144, Note_on_c, 9, 69, 32
1, 54148, Note_off_c, 9, 69, 32
1, 54148, Note_off_c, 9, 54, 48
1, 54148, Note_off_c, 9, 42, 93
1, 54148, Note_off_c, 9, 38, 105
1, 54148, Note_off_c, 9, 36, 110
1, 54148, Note_off_c, 9, 39, 98
1, 54232, Note_off_c, 3, 72, 51
1, 54232, Note_off_c, 7, 67, 120
1, 54232, Note_off_c, 7, 64, 107
1, 54232, Note_off_c, 7, 60, 109
1, 54232, Note_off_c, 8, 52, 127
1, 54240, Note_on_c, 3, 72, 57
1, 54240, Note_on_c, 9, 54, 37
1, 54244, Note_off_c, 9, 54, 37
1, 54260, Note_off_c, 2, 84, 87
1, 54284, Note_off_c, 2, 72, 78
1, 54324, Note_off_c, 1, 28, 116
1, 54328, Note_off_c, 3, 72, 57
1, 54336, Note_on_c, 8, 53, 127
1, 54336, Note_on_c, 7, 60, 120
1, 54336, Note_on_c, 7, 65, 116
1, 54336, Note_on_c, 7, 69, 115
1, 54336, Note_on_c, 3, 72, 69
1, 54336, Note_on_c, 1, 29, 116
1, 54336, Note_on_c, 9, 42, 92
1, 54336, Note_on_c, 9, 54, 30
1, 54336, Note_on_c, 9, 69, 34
1, 54340, Note_off_c, 9, 69, 34
1, 54340, Note_off_c, 9, 54, 30
1, 54340, Note_off_c, 9, 42, 92
1, 54424, Note_off_c, 3, 72, 69
1, 54424, Note_off_c, 7, 69, 115
1, 54424, Note_off_c, 7, 65, 116
1, 54424, Note_off_c, 7, 60, 120
1, 54424, Note_off_c, 8, 53, 127
1, 54432, Note_on_c, 3, 72, 50
1, 54432, Note_on_c, 9, 54, 46
1, 54432, Note_on_c, 9, 69, 42
1, 54436, Note_off_c, 9, 69, 42
1, 54436, Note_off_c, 9, 54, 46
1, 54480, Note_off_c, 15, 60, 120
1, 54512, Note_off_c, 14, 72, 122
1, 54512, Note_off_c, 14, 60, 123
1, 54516, Note_off_c, 1, 29, 116
1, 54520, Note_off_c, 3, 72, 50
1, 54528, Note_on_c, 14, 60, 127
1, 54528, Note_on_c, 14, 72, 114
1, 54528, Note_on_c, 15, 60, 113
1, 54528, Note_on_c, 3, 72, 53
1, 54528, Note_on_c, 2, 72, 92
1, 54528, Note_on_c, 2, 84, 92
1, 54528, Note_on_c, 9, 36, 121
1, 54528, Note_on_c, 9, 42, 83
1, 54528, Note_on_c, 9, 54, 32
1, 54528, Note_on_c, 9, 69, 34
1, 54532, Note_off_c, 9, 69, 34
1, 54532, Note_off_c, 9, 54, 32
1, 54532, Note_off_c, 9, 42, 83
1, 54532, Note_off_c, 9, 36, 121
1, 54616, Note_off_c, 3, 72, 53
1, 54624, Note_off_c, 2, 84, 92
1, 54624, Note_on_c, 3, 72, 60
1, 54624, Note_on_c, 9, 54, 46
1, 54628, Note_off_c, 9, 54, 46
1, 54644, Note_off_c, 2, 72, 92
1, 54688, Note_off_c, 15, 60, 113
1, 54704, Note_off_c, 14, 72, 114
1, 54704, Note_off_c, 14, 60, 127
1, 54712, Note_off_c, 3, 72, 60
1, 54720, Note_on_c, 14, 57, 126
1, 54720, Note_on_c, 14, 69, 119
1, 54720, Note_on_c, 15, 57, 120
1, 54720, Note_on_c, 8, 52, 127
1, 54720, Note_on_c, 7, 60, 122
1, 54720, Note_on_c, 7, 64, 108
1, 54720, Note_on_c, 7, 67, 118
1, 54720, Note_on_c, 3, 72, 66
1, 54720, Note_on_c, 1, 28, 118
1, 54720, Note_on_c, 9, 42, 89
1, 54720, Note_on_c, 9, 54, 34
1, 54720, Note_on_c, 9, 69, 40
1, 54724, Note_off_c, 9, 69, 40
1, 54724, Note_off_c, 9, 54, 34
1, 54724, Note_off_c, 9, 42, 89
1, 54808, Note_off_c, 3, 72, 66
1, 54808, Note_off_c, 7, 67, 118
1, 54808, Note_off_c, 7, 64, 108
1, 54808, Note_off_c, 7, 60, 122
1, 54808, Note_off_c, 8, 52, 127
1, 54816, Note_on_c, 3, 72, 62
1, 54816, Note_on_c, 9, 54, 37
1, 54816, Note_on_c, 9, 69, 44
1, 54820, Note_off_c, 9, 69, 44
1, 54820, Note_off_c, 9, 54, 37
1, 54896, Note_off_c, 14, 69, 119
1, 54896, Note_off_c, 14, 57, 126
1, 54900, Note_off_c, 1, 28, 118
1, 54904, Note_off_c, 3, 72, 62
1, 54912, Note_off_c, 15, 57, 120
1, 54912, Note_on_c, 14, 60, 125
1, 54912, Note_on_c, 14, 72, 124
1, 54912, Note_on_c, 15, 60, 121
1, 54912, Note_on_c, 3, 72, 61
1, 54912, Note_on_c, 2, 72, 86
1, 54912, Note_on_c, 2, 84, 82
1, 54912, Note_on_c, 9, 39, 89
1, 54912, Note_on_c, 9, 36, 120
1, 54912, Note_on_c, 9, 38, 123
1, 54912, Note_on_c, 9, 42, 92
1, 54912, Note_on_c, 9, 54, 49
1, 54912, Note_on_c, 9, 69, 40
1, 54916, Note_off_c, 9, 69, 40
1, 54916, Note_off_c, 9, 54, 49
1, 54916, Note_off_c, 9, 42, 92
1, 54916, Note_off_c, 9, 38, 123
1, 54916, Note_off_c, 9, 36, 120
1, 54916, Note_off_c, 9, 39, 89
1, 55000, Note_off_c, 3, 72, 61
1, 55008, Note_on_c, 3, 72, 53
1, 55008, Note_on_c, 9, 54, 31
1, 55012, Note_off_c, 9, 54, 31
1, 55016, Note_off_c, 2, 84, 82
1, 55032, Note_off_c, 2, 72, 86
1, 55096, Note_off_c, 3, 72, 53
1, 55104, Note_on_c, 8, 53, 127
1, 55104, Note_on_c, 7, 60, 107
1, 55104, Note_on_c, 7, 65, 103
1, 55104, Note_on_c, 7, 69, 121
1, 55104, Note_on_c, 3, 72, 60
1, 55104, Note_on_c, 1, 29, 101
1, 55104, Note_on_c, 9, 42, 84
1, 55104, Note_on_c, 9, 54, 47
1, 55104, Note_on_c, 9, 69, 30
1, 55108, Note_off_c, 9, 69, 30
1, 55108, Note_off_c, 9, 54, 47
1, 55108, Note_off_c, 9, 42, 84
1, 55192, Note_off_c, 3, 72, 60
1, 55192, Note_off_c, 7, 69, 121
1, 55192, Note_off_c, 7, 65, 103
1, 55192, Note_off_c, 7, 60, 107
1, 55192, Note_off_c, 8, 53, 127
1, 55200, Note_on_c, 3, 72, 53
1, 55200, Note_on_c, 9, 54, 39
1, 55200, Note_on_c, 9, 69, 43
1, 55204, Note_off_c, 9, 69, 43
1, 55204, Note_off_c, 9, 54, 39
1, 55220, Note_off_c, 15, 60, 121
1, 55280, Note_off_c, 14, 72, 124
1, 55280, Note_off_c, 14, 60, 125
1, 55284, Note_off_c, 1, 29, 101
1, 55288, Note_off_c, 3, 72, 53
1, 55296, Note_on_c, 14, 60, 118
1, 55296, Note_on_c, 14, 72, 127
1, 55296, Note_on_c, 15, 60, 124
1, 55296, Note_on_c, 3, 72, 53
1, 55296, Note_on_c, 2, 72, 96
1, 55296, Note_on_c, 2, 84, 90
1, 55296, Note_on_c, 9, 36, 123
1, 55296, Note_on_c, 9, 42, 81
1, 55296, Note_on_c, 9, 54, 43
1, 55296, Note_on_c, 9, 69, 34
1, 55300, Note_off_c, 9, 69, 34
1, 55300, Note_off_c, 9, 54, 43
1, 55300, Note_off_c, 9, 42, 81
1, 55300, Note_off_c, 9, 36, 123
1, 55384, Note_off_c, 3, 72, 53
1, 55392, Note_off_c, 2, 72, 96
1, 55392, Note_on_c, 3, 72, 67
1, 55392, Note_on_c, 9, 54, 46
1, 55396, Note_off_c, 9, 54, 46
1, 55404, Note_off_c, 2, 84, 90
1, 55480, Note_off_c, 3, 72, 67
1, 55488, Note_on_c, 8, 52, 120
1, 55488, Note_on_c, 7, 60, 104
1, 55488, Note_on_c, 7, 64, 120
1, 55488, Note_on_c, 7, 67, 112
1, 55488, Note_on_c, 3, 72, 58
1, 55488, Note_on_c, 1, 28, 116
1, 55488, Note_on_c, 9, 46, 107
1, 55488, Note_on_c, 9, 54, 48
1, 55488, Note_on_c, 9, 69, 33
1, 55492, Note_off_c, 9, 69, 33
1, 55492, Note_off_c, 9, 54, 48
1, 55492, Note_off_c, 9, 46, 107
1, 55576, Note_off_c, 3, 72, 58
1, 55576, Note_off_c, 7, 67, 112
1, 55576, Note_off_c, 7, 64, 120
1, 55576, Note_off_c, 7, 60, 104
1, 55576, Note_off_c, 8, 52, 120
1, 55584, Note_on_c, 3, 72, 56
1, 55584, Note_on_c, 9, 54, 33
1, 55584, Note_on_c, 9, 69, 46
1, 55588, Note_off_c, 9, 69, 46
1, 55588, Note_off_c, 9, 54, 33
1, 55616, Note_off_c, 15, 60, 124
1, 55664, Note_off_c, 14, 72, 127
1, 55664, Note_off_c, 14, 60, 118
1, 55668, Note_off_c, 1, 28, 116
1, 55672, Note_off_c, 3, 72, 56
1, 55680, Note_on_c, 14, 60, 113
1, 55680, Note_on_c, 14, 72, 111
1, 55680, Note_on_c, 15, 60, 117
1, 55680, Note_on_c, 3, 72, 56
1, 55680, Note_on_c, 2, 72, 85
1, 55680, Note_on_c, 2, 84, 96
1, 55680, Note_on_c, 9, 39, 104
1, 55680, Note_on_c, 9, 36, 112
1, 55680, Note_on_c, 9, 38, 111
1, 55680, Note_on_c, 9, 42, 86
1, 55680, Note_on_c, 9, 54, 40
1, 55680, Note_on_c, 9, 69, 32
1, 55684, Note_off_c, 9, 69, 32
1, 55684, Note_off_c, 9, 54, 40
1, 55684, Note_off_c, 9, 42, 86
1, 55684, Note_off_c, 9, 38, 111
1, 55684, Note_off_c, 9, 36, 112
1, 55684, Note_off_c, 9, 39, 104
1, 55768, Note_off_c, 3, 72, 56
1, 55772, Note_off_c, 2, 84, 96
1, 55776, Note_on_c, 3, 72, 67
1, 55776, Note_on_c, 9, 54, 49
1, 55780, Note_off_c, 9, 54, 49
1, 55784, Note_off_c, 2, 72, 85
1, 55864, Note_off_c, 3, 72, 67
1, 55872, Note_on_c, 8, 53, 127
1, 55872, Note_on_c, 7, 60, 112
1, 55872, Note_on_c, 7, 65, 109
1, 55872, Note_on_c, 7, 69, 108
1, 55872, Note_on_c, 3, 72, 53
1, 55872, Note_on_c, 1, 29, 110
1, 55872, Note_on_c, 9, 42, 86
1, 55872, Note_on_c, 9, 54, 31
1, 55872, Note_on_c, 9, 69, 30
1, 55876, Note_off_c, 9, 69, 30
1, 55876, Note_off_c, 9, 54, 31
1, 55876, Note_off_c, 9, 42, 86
1, 55960, Note_off_c, 3, 72, 53
1, 55960, Note_off_c, 7, 69, 108
1, 55960, Note_off_c, 7, 65, 109
1, 55960, Note_off_c, 7, 60, 112
1, 55960, Note_off_c, 8, 53, 127
1, 55968, Note_on_c, 3, 72, 60
1, 55968, Note_on_c, 9, 54, 32
1, 55968, Note_on_c, 9, 69, 40
1, 55972, Note_off_c, 9, 69, 40
1, 55972, Note_off_c, 9, 54, 32
1, 56004, Note_off_c, 1, 29, 110
1, 56048, Note_off_c, 14, 72, 111
1, 56048, Note_off_c, 14, 60, 113
1, 56052, Note_off_c, 15, 60, 117
1, 56056, Note_off_c, 3, 72, 60
1, 56064, Note_on_c, 14, 64, 111
1, 56064, Note_on_c, 14, 76, 127
1, 56064, Note_on_c, 15, 64, 111
1, 56064, Note_on_c, 8, 55, 126
1, 56064, Note_on_c, 7, 62, 105
1, 56064, Note_on_c, 7, 67, 120
1, 56064, Note_on_c, 7, 71, 115
1, 56064, Note_on_c, 3, 72, 60
1, 56064, Note_on_c, 2, 72, 87
1, 56064, Note_on_c, 2, 84, 92
1, 56064, Note_on_c, 1, 31, 103
1, 56064, Note_on_c, 9, 36, 107
1, 56064, Note_on_c, 9, 42, 93
1, 56064, Note_on_c, 9, 54, 30
1, 56064, Note_on_c, 9, 69, 47
1, 56068, Note_off_c, 9, 69, 47
1, 56068, Note_off_c, 9, 54, 30
1, 56068, Note_off_c, 9, 42, 93
1, 56068, Note_off_c, 9, 36, 107
1, 56152, Note_off_c, 3, 72, 60
1, 56156, Note_off_c, 2, 84, 92
1, 56160, Note_off_c, 2, 72, 87
1, 56160, Note_on_c, 3, 72, 65
1, 56160, Note_on_c, 9, 54, 49
1, 56164, Note_off_c, 9, 54, 49
1, 56244, Note_off_c, 1, 31, 103
1, 56248, Note_off_c, 3, 72, 65
1, 56248, Note_off_c, 7, 71, 115
1, 56248, Note_off_c, 7, 67, 120
1, 56248, Note_off_c, 7, 62, 105
1, 56248, Note_off_c, 8, 55, 126
1, 56256, Note_on_c, 3, 67, 60
1, 56256, Note_on_c, 9, 42, 82
1, 56256, Note_on_c, 9, 54, 49
1, 56256, Note_on_c, 9, 69, 42
1, 56260, Note_off_c, 9, 69, 42
1, 56260, Note_off_c, 9, 54, 49
1, 56260, Note_off_c, 9, 42, 82
1, 56344, Note_off_c, 3, 67, 60
1, 56352, Note_on_c, 9, 54, 47
1, 56352, Note_on_c, 9, 69, 38
1, 56356, Note_off_c, 9, 69, 38
1, 56356, Note_off_c, 9, 54, 47
1, 56432, Note_off_c, 14, 76, 127
1, 56432, Note_off_c, 14, 64, 111
1, 56436, Note_off_c, 15, 64, 111
1, 56448, Note_on_c, 14, 62, 115
1, 56448, Note_on_c, 14, 74, 124
1, 56448, Note_on_c, 15, 62, 123
1, 56448, Note_on_c, 8, 55, 115
1, 56448, Note_on_c, 7, 62, 114
1, 56448, Note_on_c, 7, 67, 119
1, 56448, Note_on_c, 7, 71, 117
1, 56448, Note_on_c, 3, 67, 64
1, 56448, Note_on_c, 2, 72, 80
1, 56448, Note_on_c, 2, 84, 84
1, 56448, Note_on_c, 9, 39, 91
1, 56448, Note_on_c, 1, 31, 118
1, 56448, Note_on_c, 9, 36, 120
1, 56448, Note_on_c, 9, 38, 121
1, 56448, Note_on_c, 9, 42, 77
1, 56448, Note_on_c, 9, 54, 41
1, 56448, Note_on_c, 9, 69, 42
1, 56452, Note_off_c, 9, 69, 42
1, 56452, Note_off_c, 9, 54, 41
1, 56452, Note_off_c, 9, 42, 77
1, 56452, Note_off_c, 9, 38, 121
1, 56452, Note_off_c, 9, 36, 120
1, 56452, Note_off_c, 9, 39, 91
1, 56536, Note_off_c, 3, 67, 64
1, 56544, Note_on_c, 3, 69, 55
1, 56544, Note_on_c, 9, 54, 45
1, 56548, Note_off_c, 9, 54, 45
1, 56556, Note_off_c, 2, 72, 80
1, 56564, Note_off_c, 2, 84, 84
1, 56624, Note_off_c, 14, 74, 124
1, 56624, Note_off_c, 14, 62, 115
1, 56628, Note_off_c, 15, 62, 123
1, 56632, Note_off_c, 3, 69, 55
1, 56632, Note_off_c, 7, 71, 117
1, 56632, Note_off_c, 7, 67, 119
1, 56632, Note_off_c, 7, 62, 114
1, 56632, Note_off_c, 8, 55, 115
1, 56640, Note_on_c, 14, 60, 120
1, 56640, Note_on_c, 14, 72, 116
1, 56640, Note_on_c, 15, 60, 117
1, 56640, Note_on_c, 3, 72, 61
1, 56640, Note_on_c, 9, 42, 85
1, 56640, Note_on_c, 9, 54, 30
1, 56640, Note_on_c, 9, 69, 38
1, 56644, Note_off_c, 9, 69, 38
1, 56644, Note_off_c, 9, 54, 30
1, 56644, Note_off_c, 9, 42, 85
1, 56724, Note_off_c, 1, 31, 118
1, 56728, Note_off_c, 3, 72, 61
1, 56736, Note_on_c, 3, 74, 63
1, 56736, Note_on_c, 9, 54, 41
1, 56736, Note_on_c, 9, 69, 31
1, 56740, Note_off_c, 9, 69, 31
1, 56740, Note_off_c, 9, 54, 41
1, 56824, Note_off_c, 3, 74, 63
1, 56832, Tempo, 504200
1, 56832, Note_on_c, 8, 48, 127
1, 56832, Note_on_c, 7, 60, 120
1, 56832, Note_on_c, 7, 64, 104
1, 56832, Note_on_c, 7, 67, 119
1, 56832, Note_on_c, 3, 72, 56
1, 56832, Note_on_c, 2, 72, 96
1, 56832, Note_on_c, 2, 84, 96
1, 56832, Note_on_c, 1, 36, 112
1, 56832, Note_on_c, 9, 36, 111
1, 56832, Note_on_c, 9, 42, 79
1, 56832, Note_on_c, 9, 54, 37
1, 56832, Note_on_c, 9, 69, 30
1, 56836, Note_off_c, 9, 69, 30
1, 56836, Note_off_c, 9, 54, 37
1, 56836, Note_off_c, 9, 42, 79
1, 56836, Note_off_c, 9, 36, 111
1, 56920, Note_off_c, 3, 72, 56
1, 56920, Pitch_bend_c, 1, 8192
1, 56928, Note_on_c, 3, 72, 57
1, 56928, Pitch_bend_c, 1, 8009
1, 56928, Note_on_c, 9, 54, 44
1, 56932, Note_off_c, 9, 54, 44
1, 56936, Pitch_bend_c, 1, 7827
1, 56944, Pitch_bend_c, 1, 7644
1, 56952, Pitch_bend_c, 1, 7461
1, 56960, Pitch_bend_c, 1, 7278
1, 56968, Pitch_bend_c, 1, 7096
1, 56976, Pitch_bend_c, 1, 6913
1, 56984, Pitch_bend_c, 1, 6730
1, 56992, Pitch_bend_c, 1, 6548
1, 57000, Pitch_bend_c, 1, 6365
1, 57008, Pitch_bend_c, 1, 6182
1, 57016, Note_off_c, 3, 72, 57
1, 57016, Note_off_c, 2, 84, 96
1, 57016, Note_off_c, 2, 72, 96
1, 57016, Note_off_c, 7, 67, 119
1, 57016, Note_off_c, 7, 64, 104
1, 57016, Note_off_c, 7, 60, 120
1, 57016, Note_off_c, 8, 48, 127
1, 57016, Pitch_bend_c, 1, 6000
1, 57024, Note_on_c, 3, 72, 64
1, 57024, Note_on_c, 2, 79, 97
1, 57024, Note_on_c, 2, 91, 93
1, 57024, Pitch_bend_c, 1, 5817
1, 57024, Note_on_c, 9, 46, 104
1, 57024, Note_on_c, 9, 54, 31
1, 57024, Note_on_c, 9, 69, 39
1, 57028, Note_off_c, 9, 69, 39
1, 57028, Note_off_c, 9, 54, 31
1, 57028, Note_off_c, 9, 46, 104
1, 57032, Pitch_bend_c, 1, 5634
1, 57040, Pitch_bend_c, 1, 5451
1, 57048, Pitch_bend_c, 1, 5269
1, 57056, Pitch_bend_c, 1, 5086
1, 57064, Pitch_bend_c, 1, 4903
1, 57072, Pitch_bend_c, 1, 4720
1, 57080, Pitch_bend_c, 1, 4538
1, 57088, Pitch_bend_c, 1, 4355
1, 57096, Pitch_bend_c, 1, 4172
1, 57104, Pitch_bend_c, 1, 3990
1, 57108, Note_off_c, 1, 36, 112
1, 57112, Note_off_c, 3, 72, 64
1, 57112, Pitch_bend_c, 1, 3807
1, 57120, Note_on_c, 3, 72, 61
1, 57120, Pitch_bend_c, 1, 3624
1, 57120, Note_on_c, 9, 54, 38
1, 57120, Note_on_c, 9, 69, 39
1, 57124, Note_off_c, 9, 69, 39
1, 57124, Note_off_c, 9, 54, 38
1, 57128, Pitch_bend_c, 1, 3441
1, 57136, Pitch_bend_c, 1, 3259
1, 57144, Pitch_bend_c, 1, 3076
1, 57152, Pitch_bend_c, 1, 8192
1, 57208, Note_off_c, 3, 72, 61
1, 57208, Note_off_c, 2, 91, 93
1, 57208, Note_off_c, 2, 79, 97
1, 57216, Note_on_c, 8, 52, 123
1, 57216, Note_on_c, 7, 60, 110
1, 57216, Note_on_c, 7, 64, 112
1, 57216, Note_on_c, 7, 67, 115
1, 57216, Note_on_c, 3, 72, 52
1, 57216, Note_on_c, 2, 76, 92
1, 57216, Note_on_c, 2, 88, 89
1, 57216, Note_on_c, 9, 39, 90
1, 57216, Note_on_c, 1, 28, 104
1, 57216, Note_on_c, 9, 36, 124
1, 57216, Note_on_c, 9, 38, 114
1, 57216, Note_on_c, 9, 42, 76
1, 57216, Note_on_c, 9, 54, 38
1, 57216, Note_on_c, 9, 69, 39
1, 57220, Note_off_c, 9, 69, 39
1, 57220, Note_off_c, 9, 54, 38
1, 57220, Note_off_c, 9, 42, 76
1, 57220, Note_off_c, 9, 38, 114
1, 57220, Note_off_c, 9, 36, 124
1, 57220, Note_off_c, 9, 39, 90
1, 57304, Note_off_c, 3, 72, 52
1, 57304, Note_off_c, 7, 67, 115
1, 57304, Note_off_c, 7, 64, 112
1, 57304, Note_off_c, 7, 60, 110
1, 57304, Note_off_c, 8, 52, 123
1, 57312, Note_on_c, 3, 72, 54
1, 57312, Note_on_c, 9, 54, 36
1, 57316, Note_off_c, 9, 54, 36
1, 57396, Note_off_c, 1, 28, 104
1, 57400, Note_off_c, 3, 72, 54
1, 57400, Note_off_c, 2, 88, 89
1, 57400, Note_off_c, 2, 76, 92
1, 57408, Note_on_c, 8, 53, 127
1, 57408, Note_on_c, 7, 60, 122
1, 57408, Note_on_c, 7, 65, 112
1, 57408, Note_on_c, 7, 69, 111
1, 57408, Note_on_c, 3, 72, 67
1, 57408, Note_on_c, 2, 77, 80
1, 57408, Note_on_c, 2, 89, 81
1, 57408, Note_on_c, 1, 29, 114
1, 57408, Note_on_c, 9, 42, 80
1, 57408, Note_on_c, 9, 54, 41
1, 57408, Note_on_c, 9, 69, 39
1, 57412, Note_off_c, 9, 69, 39
1, 57412, Note_off_c, 9, 54, 41
1, 57412, Note_off_c, 9, 42, 80
1, 57496, Note_off_c, 3, 72, 67
1, 57496, Note_off_c, 7, 69, 111
1, 57496, Note_off_c, 7, 65, 112
1, 57496, Note_off_c, 7, 60, 122
1, 57496, Note_off_c, 8, 53, 127
1, 57504, Note_on_c, 3, 72, 56
1, 57504, Note_on_c, 9, 54, 39
1, 57504, Note_on_c, 9, 69, 42
1, 57508, Note_off_c, 9, 69, 42
1, 57508, Note_off_c, 9, 54, 39
1, 57588, Note_off_c, 1, 29, 114
1, 57592, Note_off_c, 3, 72, 56
1, 57592, Note_off_c, 2, 89, 81
1, 57592, Note_off_c, 2, 77, 80
1, 57600, Note_on_c, 3, 72, 64
1, 57600, Note_on_c, 2, 84, 86
1, 57600, Note_on_c, 2, 96, 86
1, 57600, Note_on_c, 9, 36, 124
1, 57600, Note_on_c, 9, 42, 78
1, 57600, Note_on_c, 9, 54, 38
1, 57600, Note_on_c, 9, 69, 40
1, 57604, Note_off_c, 9, 69, 40
1, 57604, Note_off_c, 9, 54, 38
1, 57604, Note_off_c, 9, 42, 78
1, 57604, Note_off_c, 9, 36, 124
1, 57688, Note_off_c, 3, 72, 64
1, 57696, Note_on_c, 3, 72, 62
1, 57696, Note_on_c, 9, 54, 47
1, 57700, Note_off_c, 9, 54, 47
1, 57772, Note_off_c, 15, 60, 117
1, 57784, Note_off_c, 3, 72, 62
1, 57784, Note_off_c, 2, 96, 86
1, 57784, Note_off_c, 2, 84, 86
1, 57792, Note_on_c, 8, 52, 118
1, 57792, Note_on_c, 7, 60, 112
1, 57792, Note_on_c, 7, 64, 104
1, 57792, Note_on_c, 7, 67, 108
1, 57792, Note_on_c, 3, 72, 55
1, 57792, Note_on_c, 2, 89, 94
1, 57792, Note_on_c, 2, 101, 81
1, 57792, Note_on_c, 1, 28, 119
1, 57792, Note_on_c, 9, 42, 91
1, 57792, Note_on_c, 9, 54, 33
1, 57792, Note_on_c, 9, 69, 44
1, 57796, Note_off_c, 9, 69, 44
1, 57796, Note_off_c, 9, 54, 33
1, 57796, Note_off_c, 9, 42, 91
1, 57880, Note_off_c, 3, 72, 55
1, 57880, Note_off_c, 7, 67, 108
1, 57880, Note_off_c, 7, 64, 104
1, 57880, Note_off_c, 7, 60, 112
1, 57880, Note_off_c, 8, 52, 118
1, 57888, Note_on_c, 3, 72, 58
1, 57888, Note_on_c, 9, 54, 39
1, 57888, Note_on_c, 9, 69, 42
1, 57892, Note_off_c, 9, 69, 42
1, 57892, Note_off_c, 9, 54, 39
1, 57968, Note_off_c, 14, 72, 116
1, 57968, Note_off_c, 14, 60, 120
1, 57972, Note_off_c, 1, 28, 119
1, 57976, Note_off_c, 3, 72, 58
1, 57976, Note_off_c, 2, 101, 81
1, 57976, Note_off_c, 2, 89, 94
1, 57984, Note_on_c, 3, 72, 55
1, 57984, Note_on_c, 9, 39, 94
1, 57984, Note_on_c, 9, 36, 109
1, 57984, Note_on_c, 9, 38, 119
1, 57984, Note_on_c, 9, 42, 89
1, 57984, Note_on_c, 9, 54, 44
1, 57984, Note_on_c, 9, 69, 30
1, 57988, Note_off_c, 9, 69, 30
1, 57988, Note_off_c, 9, 54, 44
1, 57988, Note_off_c, 9, 42, 89
1, 57988, Note_off_c, 9, 38, 119
1, 57988, Note_off_c, 9, 36, 109
1, 57988, Note_off_c, 9, 39, 94
1, 58072, Note_off_c, 3, 72, 55
1, 58080, Note_on_c, 3, 72, 60
1, 58080, Note_on_c, 9, 54, 40
1, 58084, Note_off_c, 9, 54, 40
1, 58168, Note_off_c, 3, 72, 60
1, 58176, Note_on_c, 8, 53, 122
1, 58176, Note_on_c, 7, 60, 113
1, 58176, Note_on_c, 7, 65, 122
1, 58176, Note_on_c, 7, 69, 112
1, 58176, Note_on_c, 3, 72, 55
1, 58176, Note_on_c, 2, 88, 81
1, 58176, Note_on_c, 2, 100, 93
1, 58176, Note_on_c, 1, 29, 115
1, 58176, Note_on_c, 9, 46, 101
1, 58176, Note_on_c, 9, 54, 48
1, 58176, Note_on_c, 9, 69, 31
1, 58180, Note_off_c, 9, 69, 31
1, 58180, Note_off_c, 9, 54, 48
1, 58180, Note_off_c, 9, 46, 101
1, 58264, Note_off_c, 3, 72, 55
1, 58264, Note_off_c, 7, 69, 112
1, 58264, Note_off_c, 7, 65, 122
1, 58264, Note_off_c, 7, 60, 113
1, 58264, Note_off_c, 8, 53, 122
1, 58272, Note_on_c, 3, 72, 67
1, 58272, Note_on_c, 9, 54, 49
1, 58272, Note_on_c, 9, 69, 41
1, 58276, Note_off_c, 9, 69, 41
1, 58276, Note_off_c, 9, 54, 49
1, 58356, Note_off_c, 1, 29, 115
1, 58360, Note_off_c, 3, 72, 67
1, 58360, Note_off_c, 2, 100, 93
1, 58360, Note_off_c, 2, 88, 81
1, 58368, Note_on_c, 3, 72, 53
1, 58368, Note_on_c, 9, 36, 118
1, 58368, Note_on_c, 9, 42, 79
1, 58368, Note_on_c, 9, 54, 36
1, 58368, Note_on_c, 9, 69, 44
1, 58372, Note_off_c, 9, 69, 44
1, 58372, Note_off_c, 9, 54, 36
1, 58372, Note_off_c, 9, 42, 79
1, 58372, Note_off_c, 9, 36, 118
1, 58456, Note_off_c, 3, 72, 53
1, 58464, Note_on_c, 3, 72, 56
1, 58464, Note_on_c, 9, 54, 41
1, 58468, Note_off_c, 9, 54, 41
1, 58552, Note_off_c, 3, 72, 56
1, 58560, Note_on_c, 8, 52, 127
1, 58560, Note_on_c, 7, 60, 108
1, 58560, Note_on_c, 7, 64, 107
1, 58560, Note_on_c, 7, 67, 108
1, 58560, Note_on_c, 3, 72, 67
1, 58560, Note_on_c, 2, 84, 85
1, 58560, Note_on_c, 2, 96, 95
1, 58560, Note_on_c, 1, 28, 116
1, 58560, Note_on_c, 9, 46, 101
1, 58560, Note_on_c, 9, 54, 35
1, 58560, Note_on_c, 9, 69, 42
1, 58564, Note_off_c, 9, 69, 42
1, 58564, Note_off_c, 9, 54, 35
1, 58564, Note_off_c, 9, 46, 101
1, 58648, Note_off_c, 3, 72, 67
1, 58648, Note_off_c, 7, 67, 108
1, 58648, Note_off_c, 7, 64, 107
1, 58648, Note_off_c, 7, 60, 108
1, 58648, Note_off_c, 8, 52, 127
1, 58656, Note_on_c, 3, 72, 69
1, 58656, Note_on_c, 9, 54, 41
1, 58656, Note_on_c, 9, 69, 42
1, 58660, Note_off_c, 9, 69, 42
1, 58660, Note_off_c, 9, 54, 41
1, 58740, Note_off_c, 1, 28, 116
1, 58744, Note_off_c, 3, 72, 69
1, 58744, Note_off_c, 2, 96, 95
1, 58744, Note_off_c, 2, 84, 85
1, 58752, Note_on_c, 3, 72, 55
1, 58752, Note_on_c, 9, 39, 94
1, 58752, Note_on_c, 9, 36, 107
1, 58752, Note_on_c, 9, 38, 113
1, 58752, Note_on_c, 9, 42, 79
1, 58752, Note_on_c, 9, 54, 48
1, 58752, Note_on_c, 9, 69, 41
1, 58756, Note_off_c, 9, 69, 41
1, 58756, Note_off_c, 9, 54, 48
1, 58756, Note_off_c, 9, 42, 79
1, 58756, Note_off_c, 9, 38, 113
1, 58756, Note_off_c, 9, 36, 107
1, 58756, Note_off_c, 9, 39, 94
1, 58840, Note_off_c, 3, 72, 55
1, 58848, Note_on_c, 3, 72, 54
1, 58848, Note_on_c, 9, 54, 46
1, 58852, Note_off_c, 9, 54, 46
1, 58936, Note_off_c, 3, 72, 54
1, 58944, Note_on_c, 8, 53, 123
1, 58944, Note_on_c, 7, 60, 119
1, 58944, Note_on_c, 7, 65, 119
1, 58944, Note_on_c, 7, 69, 121
1, 58944, Note_on_c, 3, 72, 67
1, 58944, Note_on_c, 2, 79, 86
1, 58944, Note_on_c, 2, 91, 93
1, 58944, Note_on_c, 1, 29, 101
1, 58944, Note_on_c, 9, 42, 83
1, 58944, Note_on_c, 9, 54, 43
1, 58944, Note_on_c, 9, 69, 30
1, 58948, Note_off_c, 9, 69, 30
1, 58948, Note_off_c, 9, 54, 43
1, 58948, Note_off_c, 9, 42, 83
1, 59032, Note_off_c, 3, 72, 67
1, 59032, Note_off_c, 7, 69, 121
1, 59032, Note_off_c, 7, 65, 119
1, 59032, Note_off_c, 7, 60, 119
1, 59032, Note_off_c, 8, 53, 123
1, 59040, Note_on_c, 3, 72, 66
1, 59040, Note_on_c, 9, 54, 33
1, 59040, Note_on_c, 9, 69, 33
1, 59044, Note_off_c, 9, 69, 33
1, 59044, Note_off_c, 9, 54, 33
1, 59076, Note_off_c, 1, 29, 101
1, 59128, Note_off_c, 3, 72, 66
1, 59128, Note_off_c, 2, 91, 93
1, 59128, Note_off_c, 2, 79, 86
1, 59136, Note_on_c, 8, 55, 127
1, 59136, Note_on_c, 7, 62, 118
1, 59136, Note_on_c, 7, 67, 112
1, 59136, Note_on_c, 7, 71, 116
1, 59136, Note_on_c, 3, 72, 51
1, 59136, Note_on_c, 1, 31, 107
1, 59136, Note_on_c, 9, 36, 117
1, 59136, Note_on_c, 9, 42, 92
1, 59136, Note_on_c, 9, 54, 30
1, 59136, Note_on_c, 9, 69, 45
1, 59140, Note_off_c, 9, 69, 45
1, 59140, Note_off_c, 9, 54, 30
1, 59140, Note_off_c, 9, 42, 92
1, 59140, Note_off_c, 9, 36, 117
1, 59224, Note_off_c, 3, 72, 51
1, 59232, Note_on_c, 3, 72, 51
1, 59232, Note_on_c, 9, 54, 32
1, 59236, Note_off_c, 9, 54, 32
1, 59316, Note_off_c, 1, 31, 107
1, 59320, Note_off_c, 3, 72, 51
1, 59320, Note_off_c, 7, 71, 116
1, 59320, Note_off_c, 7, 67, 112
1, 59320, Note_off_c, 7, 62, 118
1, 59320, Note_off_c, 8, 55, 127
1, 59328, Note_on_c, 3, 67, 51
1, 59328, Note_on_c, 9, 42, 86
1, 59328, Note_on_c, 9, 54, 41
1, 59328, Note_on_c, 9, 69, 46
1, 59332, Note_off_c, 9, 69, 46
1, 59332, Note_off_c, 9, 54, 41
1, 59332, Note_off_c, 9, 42, 86
1, 59416, Note_off_c, 3, 67, 51
1, 59424, Note_on_c, 9, 54, 49
1, 59424, Note_on_c, 9, 69, 38
1, 59428, Note_off_c, 9, 69, 38
1, 59428, Note_off_c, 9, 54, 49
1, 59520, Note_on_c, 8, 55, 124
1, 59520, Note_on_c, 7, 62, 122
1, 59520, Note_on_c, 7, 67, 118
1, 59520, Note_on_c, 7, 71, 116
1, 59520, Note_on_c, 3, 72, 64
1, 59520, Note_on_c, 2, 86, 91
1, 59520, Note_on_c, 2, 98, 86
1, 59520, Note_on_c, 9, 39, 91
1, 59520, Note_on_c, 1, 31, 104
1, 59520, Note_on_c, 9, 36, 119
1, 59520, Note_on_c, 9, 38, 105
1, 59520, Note_on_c, 9, 42, 81
1, 59520, Note_on_c, 9, 54, 40
1, 59520, Note_on_c, 9, 69, 49
1, 59524, Note_off_c, 9, 69, 49
1, 59524, Note_off_c, 9, 54, 40
1, 59524, Note_off_c, 9, 42, 81
1, 59524, Note_off_c, 9, 38, 105
1, 59524, Note_off_c, 9, 36, 119
1, 59524, Note_off_c, 9, 39, 91
1, 59608, Note_off_c, 3, 72, 64
1, 59616, Note_on_c, 3, 72, 62
1, 59616, Note_on_c, 9, 54, 30
1, 59620, Note_off_c, 9, 54, 30
1, 59704, Note_off_c, 3, 72, 62
1, 59704, Note_off_c, 7, 71, 116
1, 59704, Note_off_c, 7, 67, 118
1, 59704, Note_off_c, 7, 62, 122
1, 59704, Note_off_c, 8, 55, 124
1, 59712, Note_on_c, 15, 60, 113
1, 59712, Note_on_c, 3, 69, 69
1, 59712, Note_on_c, 9, 46, 104
1, 59712, Note_on_c, 9, 54, 35
1, 59712, Note_on_c, 9, 69, 39
1, 59716, Note_off_c, 9, 69, 39
1, 59716, Note_off_c, 9, 54, 35
1, 59716, Note_off_c, 9, 46, 104
1, 59784, Note_off_c, 2, 98, 86
1, 59784, Note_off_c, 2, 86, 91
1, 59796, Note_off_c, 1, 31, 104
1, 59800, Note_off_c, 3, 69, 69
1, 59808, Note_on_c, 3, 67, 64
1, 59808, Note_on_c, 9, 54, 42
1, 59808, Note_on_c, 9, 69, 40
1, 59812, Note_off_c, 9, 69, 40
1, 59812, Note_off_c, 9, 54, 42
1, 59836, Note_off_c, 15, 60, 113
1, 59896, Note_off_c, 3, 67, 64
1, 59904, Note_on_c, 14, 72, 124
1, 59904, Note_on_c, 14, 76, 110
1, 59904, Note_on_c, 15, 69, 114
1, 59904, Note_on_c, 7, 69, 112
1, 59904, Note_on_c, 7, 72, 121
1, 59904, Control_c, 5, 11, 4
1, 59904, Note_on_c, 5, 72, 109
1, 59904, Note_on_c, 5, 69, 118
1, 59904, Note_on_c, 5, 64, 111
1, 59904, Note_on_c, 2, 64, 97
1, 59904, Note_on_c, 2, 69, 80
1, 59904, Note_on_c, 2, 72, 90
1, 59904, Note_on_c, 1, 33, 114
1, 59904, Note_on_c, 9, 36, 107
1, 59904, Note_on_c, 9, 42, 76
1, 59904, Note_on_c, 9, 49, 111
1, 59904, Note_on_c, 9, 54, 38
1, 59904, Note_on_c, 9, 69, 47
1, 59908, Note_off_c, 9, 69, 47
1, 59908, Note_off_c, 9, 54, 38
1, 59908, Note_off_c, 9, 49, 111
1, 59908, Note_off_c, 9, 42, 76
1, 59908, Note_off_c, 9, 36, 107
1, 59928, Control_c, 5, 11, 0
1, 59952, Control_c, 5, 11, 6
1, 59976, Control_c, 5, 11, 12
1, 60000, Control_c, 5, 11, 18
1, 60000, Note_on_c, 9, 54, 39
1, 60004, Note_off_c, 9, 54, 39
1, 60024, Control_c, 5, 11, 24
1, 60048, Control_c, 5, 11, 30
1, 60072, Control_c, 5, 11, 36
1, 60096, Control_c, 5, 11, 42
1, 60096, Note_on_c, 9, 42, 83
1, 60096, Note_on_c, 9, 54, 42
1, 60096, Note_on_c, 9, 69, 34
1, 60100, Note_off_c, 9, 69, 34
1, 60100, Note_off_c, 9, 54, 42
1, 60100, Note_off_c, 9, 42, 83
1, 60120, Control_c, 5, 11, 47
1, 60144, Control_c, 5, 11, 53
1, 60168, Control_c, 5, 11, 59
1, 60180, Note_off_c, 1, 33, 114
1, 60192, Control_c, 5, 11, 65
1, 60192, Note_on_c, 9, 54, 43
1, 60192, Note_on_c, 9, 69, 44
1, 60196, Note_off_c, 9, 69, 44
1, 60196, Note_off_c, 9, 54, 43
1, 60216, Control_c, 5, 11, 71
1, 60264, Control_c, 5, 11, 72
1, 60272, Note_off_c, 15, 69, 114
1, 60288, Note_on_c, 15, 67, 119
1, 60288, Control_c, 5, 11, 74
1, 60288, Note_on_c, 9, 39, 96
1, 60288, Note_on_c, 1, 33, 110
1, 60288, Note_on_c, 9, 36, 112
1, 60288, Note_on_c, 9, 38, 116
1, 60288, Note_on_c, 9, 42, 88
1, 60288, Note_on_c, 9, 54, 31
1, 60288, Note_on_c, 9, 69, 45
1, 60292, Note_off_c, 9, 69, 45
1, 60292, Note_off_c, 9, 54, 31
1, 60292, Note_off_c, 9, 42, 88
1, 60292, Note_off_c, 9, 38, 116
1, 60292, Note_off_c, 9, 36, 112
1, 60292, Note_off_c, 9, 39, 96
1, 60312, Control_c, 5, 11, 75
1, 60336, Control_c, 5, 11, 76
1, 60360, Control_c, 5, 11, 77
1, 60368, Note_off_c, 15, 67, 119
1, 60372, Note_off_c, 1, 33, 110
1, 60384, Control_c, 5, 11, 78
1, 60384, Note_on_c, 9, 54, 49
1, 60388, Note_off_c, 9, 54, 49
1, 60408, Control_c, 5, 11, 79
1, 60432, Control_c, 5, 11, 80
1, 60456, Control_c, 5, 11, 82
1, 60480, Note_on_c, 15, 67, 127
1, 60480, Control_c, 5, 11, 83
1, 60480, Note_on_c, 1, 33, 109
1, 60480, Note_on_c, 9, 42, 79
1, 60480, Note_on_c, 9, 54, 49
1, 60480, Note_on_c, 9, 69, 33
1, 60484, Note_off_c, 9, 69, 33
1, 60484, Note_off_c, 9, 54, 49
1, 60484, Note_off_c, 9, 42, 79
1, 60504, Control_c, 5, 11, 84
1, 60528, Control_c, 5, 11, 85
1, 60552, Control_c, 5, 11, 86
1, 60564, Note_off_c, 1, 33, 109
1, 60576, Control_c, 5, 11, 87
1, 60576, Note_on_c, 9, 54, 39
1, 60576, Note_on_c, 9, 69, 33
1, 60580, Note_off_c, 9, 69, 33
1, 60580, Note_off_c, 9, 54, 39
1, 60600, Control_c, 5, 11, 88
1, 60624, Control_c, 5, 11, 90
1, 60648, Control_c, 5, 11, 91
1, 60672, Control_c, 5, 11, 92
1, 60672, Note_on_c, 1, 33, 115
1, 60672, Note_on_c, 9, 36, 114
1, 60672, Note_on_c, 9, 42, 87
1, 60672, Note_on_c, 9, 54, 46
1, 60672, Note_on_c, 9, 69, 36
1, 60676, Note_off_c, 9, 69, 36
1, 60676, Note_off_c, 9, 54, 46
1, 60676, Note_off_c, 9, 42, 87
1, 60676, Note_off_c, 9, 36, 114
1, 60696, Control_c, 5, 11, 93
1, 60720, Control_c, 5, 11, 94
1, 60744, Control_c, 5, 11, 95
1, 60756, Note_off_c, 1, 33, 115
1, 60768, Control_c, 5, 11, 96
1, 60768, Note_on_c, 9, 54, 39
1, 60772, Note_off_c, 9, 54, 39
1, 60792, Control_c, 5, 11, 98
1, 60840, Control_c, 5, 11, 100
1, 60848, Note_off_c, 15, 67, 127
1, 60864, Note_on_c, 15, 69, 125
1, 60864, Control_c, 5, 11, 97
1, 60864, Note_on_c, 1, 33, 103
1, 60864, Note_on_c, 9, 42, 75
1, 60864, Note_on_c, 9, 54, 31
1, 60864, Note_on_c, 9, 69, 30
1, 60868, Note_off_c, 9, 69, 30
1, 60868, Note_off_c, 9, 54, 31
1, 60868, Note_off_c, 9, 42, 75
1, 60912, Control_c, 5, 11, 96
1, 60936, Control_c, 5, 11, 95
1, 60948, Note_off_c, 1, 33, 103
1, 60960, Note_on_c, 9, 54, 37
1, 60960, Note_on_c, 9, 69, 43
1, 60964, Note_off_c, 9, 69, 43
1, 60964, Note_off_c, 9, 54, 37
1, 60984, Control_c, 5, 11, 94
1, 61008, Control_c, 5, 11, 93
1, 61056, Control_c, 5, 11, 92
1, 61056, Note_on_c, 9, 39, 103
1, 61056, Note_on_c, 1, 33, 117
1, 61056, Note_on_c, 9, 36, 107
1, 61056, Note_on_c, 9, 38, 123
1, 61056, Note_on_c, 9, 42, 84
1, 61056, Note_on_c, 9, 54, 39
1, 61056, Note_on_c, 9, 69, 41
1, 61060, Note_off_c, 9, 69, 41
1, 61060, Note_off_c, 9, 54, 39
1, 61060, Note_off_c, 9, 42, 84
1, 61060, Note_off_c, 9, 38, 123
1, 61060, Note_off_c, 9, 36, 107
1, 61060, Note_off_c, 9, 39, 103
1, 61104, Control_c, 5, 11, 91
1, 61128, Control_c, 5, 11, 90
1, 61140, Note_off_c, 1, 33, 117
1, 61152, Note_on_c, 9, 54, 45
1, 61156, Note_off_c, 9, 54, 45
1, 61176, Control_c, 5, 11, 89
1, 61216, Note_off_c, 7, 69, 112
1, 61220, Note_off_c, 7, 72, 121
1, 61224, Note_off_c, 2, 72, 90
1, 61224, Note_off_c, 2, 69, 80
1, 61224, Note_off_c, 2, 64, 97
1, 61224, Control_c, 5, 11, 88
1, 61232, Note_off_c, 15, 69, 125
1, 61248, Note_on_c, 15, 64, 120
1, 61248, Note_on_c, 7, 71, 112
1, 61248, Note_on_c, 7, 74, 120
1, 61248, Control_c, 5, 11, 87
1, 61248, Note_on_c, 2, 67, 86
1, 61248, Note_on_c, 2, 71, 84
1, 61248, Note_on_c, 2, 74, 91
1, 61248, Note_on_c, 1, 33, 115
1, 61248, Note_on_c, 9, 42, 84
1, 61248, Note_on_c, 9, 54, 48
1, 61248, Note_on_c, 9, 69, 44
1, 61252, Note_off_c, 9, 69, 44
1, 61252, Note_off_c, 9, 54, 48
1, 61252, Note_off_c, 9, 42, 84
1, 61296, Control_c, 5, 11, 86
1, 61328, Note_off_c, 15, 64, 120
1, 61332, Note_off_c, 1, 33, 115
1, 61344, Note_on_c, 15, 65, 120
1, 61344, Control_c, 5, 11, 85
1, 61344, Note_on_c, 9, 54, 42
1, 61344, Note_on_c, 9, 69, 39
1, 61348, Note_off_c, 9, 69, 39
1, 61348, Note_off_c, 9, 54, 42
1, 61392, Control_c, 5, 11, 84
1, 61416, Control_c, 5, 11, 83
1, 61424, Note_off_c, 15, 65, 120
1, 61432, Note_off_c, 2, 74, 91
1, 61432, Note_off_c, 2, 71, 84
1, 61432, Note_off_c, 2, 67, 86
1, 61440, Note_on_c, 15, 67, 114
1, 61440, Note_on_c, 7, 72, 112
1, 61440, Note_on_c, 7, 76, 103
1, 61440, Note_on_c, 2, 64, 86
1, 61440, Note_on_c, 2, 69, 89
1, 61440, Note_on_c, 2, 72, 83
1, 61440, Note_on_c, 1, 33, 106
1, 61440, Note_on_c, 9, 36, 117
1, 61440, Note_on_c, 9, 42, 87
1, 61440, Note_on_c, 9, 54, 42
1, 61440, Note_on_c, 9, 69, 31
1, 61444, Note_off_c, 9, 69, 31
1, 61444, Note_off_c, 9, 54, 42
1, 61444, Note_off_c, 9, 42, 87
1, 61444, Note_off_c, 9, 36, 117
1, 61464, Control_c, 5, 11, 82
1, 61476, Note_off_c, 7, 74, 120
1, 61476, Note_off_c, 7, 71, 112
1, 61488, Control_c, 5, 11, 81
1, 61524, Note_off_c, 1, 33, 106
1, 61536, Control_c, 5, 11, 80
1, 61536, Note_on_c, 9, 54, 47
1, 61540, Note_off_c, 9, 54, 47
1, 61584, Control_c, 5, 11, 79
1, 61608, Control_c, 5, 11, 78
1, 61616, Note_off_c, 15, 67, 114
1, 61632, Note_on_c, 15, 67, 110
1, 61632, Note_on_c, 1, 33, 104
1, 61632, Note_on_c, 9, 42, 82
1, 61632, Note_on_c, 9, 54, 38
1, 61632, Note_on_c, 9, 69, 49
1, 61636, Note_off_c, 9, 69, 49
1, 61636, Note_off_c, 9, 54, 38
1, 61636, Note_off_c, 9, 42, 82
1, 61656, Control_c, 5, 11, 77
1, 61704, Control_c, 5, 11, 76
1, 61716, Note_off_c, 1, 33, 104
1, 61728, Control_c, 5, 11, 77
1, 61728, Note_on_c, 9, 54, 36
1, 61728, Note_on_c, 9, 69, 49
1, 61732, Note_off_c, 9, 69, 49
1, 61732, Note_off_c, 9, 54, 36
1, 61752, Control_c, 5, 11, 78
1, 61776, Control_c, 5, 11, 79
1, 61800, Control_c, 5, 11, 80
1, 61824, Control_c, 5, 11, 81
1, 61824, Note_on_c, 9, 39, 88
1, 61824, Note_on_c, 1, 33, 114
1, 61824, Note_on_c, 9, 36, 121
1, 61824, Note_on_c, 9, 38, 109
1, 61824, Note_on_c, 9, 42, 81
1, 61824, Note_on_c, 9, 54, 49
1, 61824, Note_on_c, 9, 69, 35
1, 61828, Note_off_c, 9, 69, 35
1, 61828, Note_off_c, 9, 54, 49
1, 61828, Note_off_c, 9, 42, 81
1, 61828, Note_off_c, 9, 38, 109
1, 61828, Note_off_c, 9, 36, 121
1, 61828, Note_off_c, 9, 39, 88
1, 61848, Control_c, 5, 11, 82
1, 61872, Control_c, 5, 11, 83
1, 61896, Control_c, 5, 11, 84
1, 61908, Note_off_c, 1, 33, 114
1, 61920, Note_on_c, 9, 54, 49
1, 61924, Note_off_c, 9, 54, 49
1, 61944, Control_c, 5, 11, 85
1, 61968, Control_c, 5, 11, 86
1, 61992, Control_c, 5, 11, 87
1, 62000, Note_off_c, 15, 67, 110
1, 62016, Note_on_c, 15, 69, 110
1, 62016, Control_c, 5, 11, 88
1, 62016, Note_on_c, 1, 33, 112
1, 62016, Note_on_c, 9, 42, 88
1, 62016, Note_on_c, 9, 54, 38
1, 62016, Note_on_c, 9, 69, 30
1, 62020, Note_off_c, 9, 69, 30
1, 62020, Note_off_c, 9, 54, 38
1, 62020, Note_off_c, 9, 42, 88
1, 62040, Control_c, 5, 11, 89
1, 62064, Control_c, 5, 11, 90
1, 62088, Control_c, 5, 11, 91
1, 62100, Note_off_c, 1, 33, 112
1, 62112, Control_c, 5, 11, 92
1, 62112, Note_on_c, 9, 54, 48
1, 62112, Note_on_c, 9, 69, 37
1, 62116, Note_off_c, 9, 69, 37
1, 62116, Note_off_c, 9, 54, 48
1, 62136, Control_c, 5, 11, 93
1, 62160, Control_c, 5, 11, 94
1, 62184, Control_c, 5, 11, 95
1, 62208, Control_c, 5, 11, 96
1, 62208, Note_on_c, 1, 33, 107
1, 62208, Note_on_c, 9, 36, 115
1, 62208, Note_on_c, 9, 42, 89
1, 62208, Note_on_c, 9, 54, 43
1, 62208, Note_on_c, 9, 69, 46
1, 62212, Note_off_c, 9, 69, 46
1, 62212, Note_off_c, 9, 54, 43
1, 62212, Note_off_c, 9, 42, 89
1, 62212, Note_off_c, 9, 36, 115
1, 62232, Control_c, 5, 11, 97
1, 62256, Control_c, 5, 11, 98
1, 62280, Control_c, 5, 11, 99
1, 62292, Note_off_c, 1, 33, 107
1, 62304, Control_c, 5, 11, 100
1, 62304, Note_on_c, 9, 54, 47
1, 62308, Note_off_c, 9, 54, 47
1, 62328, Control_c, 5, 11, 101
1, 62352, Control_c, 5, 11, 102
1, 62376, Control_c, 5, 11, 103
1, 62384, Note_off_c, 15, 69, 110
1, 62400, Note_on_c, 15, 65, 121
1, 62400, Control_c, 5, 11, 104
1, 62400, Note_on_c, 1, 33, 101
1, 62400, Note_on_c, 9, 42, 75
1, 62400, Note_on_c, 9, 54, 32
1, 62400, Note_on_c, 9, 69, 34
1, 62404, Note_off_c, 9, 69, 34
1, 62404, Note_off_c, 9, 54, 32
1, 62404, Note_off_c, 9, 42, 75
1, 62424, Control_c, 5, 11, 105
1, 62448, Control_c, 5, 11, 106
1, 62484, Note_off_c, 1, 33, 101
1, 62496, Control_c, 5, 11, 107
1, 62496, Note_on_c, 9, 54, 43
1, 62496, Note_on_c, 9, 69, 36
1, 62500, Note_off_c, 9, 69, 36
1, 62500, Note_off_c, 9, 54, 43
1, 62520, Control_c, 5, 11, 108
1, 62544, Control_c, 5, 11, 109
1, 62560, Note_off_c, 7, 76, 103
1, 62568, Note_off_c, 2, 72, 83
1, 62568, Note_off_c, 2, 69, 89
1, 62568, Note_off_c, 2, 64, 86
1, 62568, Control_c, 5, 11, 110
1, 62576, Note_off_c, 15, 65, 121
1, 62576, Note_off_c, 7, 72, 112
1, 62576, Note_off_c, 14, 76, 110
1, 62576, Note_off_c, 14, 72, 124
1, 62592, Note_on_c, 14, 74, 120
1, 62592, Note_on_c, 14, 77, 117
1, 62592, Note_on_c, 15, 64, 127
1, 62592, Note_on_c, 7, 74, 122
1, 62592, Note_on_c, 7, 77, 121
1, 62592, Control_c, 5, 11, 111
1, 62592, Note_on_c, 2, 67, 96
1, 62592, Note_on_c, 2, 71, 89
1, 62592, Note_on_c, 2, 74, 81
1, 62592, Note_on_c, 9, 39, 92
1, 62592, Note_on_c, 1, 35, 117
1, 62592, Note_on_c, 9, 36, 112
1, 62592, Note_on_c, 9, 38, 110
1, 62592, Note_on_c, 9, 42, 78
1, 62592, Note_on_c, 9, 54, 32
1, 62592, Note_on_c, 9, 69, 38
1, 62596, Note_off_c, 9, 69, 38
1, 62596, Note_off_c, 9, 54, 32
1, 62596, Note_off_c, 9, 42, 78
1, 62596, Note_off_c, 9, 38, 110
1, 62596, Note_off_c, 9, 36, 112
1, 62596, Note_off_c, 9, 39, 92
1, 62616, Control_c, 5, 11, 112
1, 62640, Control_c, 5, 11, 113
1, 62664, Control_c, 5, 11, 114
1, 62688, Control_c, 5, 11, 115
1, 62688, Note_on_c, 9, 54, 34
1, 62692, Note_off_c, 9, 54, 34
1, 62712, Control_c, 5, 11, 116
1, 62736, Control_c, 5, 11, 117
1, 62760, Control_c, 5, 11, 118
1, 62768, Note_off_c, 15, 64, 127
1, 62784, Note_on_c, 15, 60, 122
1, 62784, Control_c, 5, 11, 119
1, 62784, Note_on_c, 9, 42, 79
1, 62784, Note_on_c, 9, 54, 43
1, 62784, Note_on_c, 9, 69, 30
1, 62788, Note_off_c, 9, 69, 30
1, 62788, Note_off_c, 9, 54, 43
1, 62788, Note_off_c, 9, 42, 79
1, 62808, Control_c, 5, 11, 120
1, 62832, Control_c, 5, 11, 121
1, 62856, Control_c, 5, 11, 122
1, 62880, Control_c, 5, 11, 123
1, 62880, Note_on_c, 9, 54, 31
1, 62880, Note_on_c, 9, 69, 39
1, 62884, Note_off_c, 9, 69, 39
1, 62884, Note_off_c, 9, 54, 31
1, 62904, Control_c, 5, 11, 124
1, 62928, Control_c, 5, 11, 125
1, 62952, Note_off_c, 2, 74, 81
1, 62952, Note_off_c, 2, 71, 89
1, 62952, Note_off_c, 2, 67, 96
1, 62952, Control_c, 5, 11, 126
1, 62960, Note_off_c, 15, 60, 122
1, 62960, Note_off_c, 14, 77, 117
1, 62960, Note_off_c, 14, 74, 120
1, 62960, Note_off_c, 5, 64, 111
1, 62960, Note_off_c, 5, 69, 118
1, 62960, Note_off_c, 5, 72, 109
1, 62964, Note_off_c, 1, 35, 117
1, 62968, Note_off_c, 7, 77, 121
1, 62972, Note_off_c, 7, 74, 122
1, 62976, Tempo, 500000
1, 62976, Note_on_c, 14, 76, 110
1, 62976, Note_on_c, 14, 79, 127
1, 62976, Note_on_c, 8, 48, 124
1, 62976, Note_on_c, 7, 72, 104
1, 62976, Note_on_c, 7, 76, 119
1, 62976, Note_on_c, 7, 79, 114
1, 62976, Note_on_c, 2, 67, 82
1, 62976, Note_on_c, 2, 72, 79
1, 62976, Note_on_c, 2, 76, 83
1, 62976, Note_on_c, 1, 36, 118
1, 62976, Note_on_c, 9, 36, 119
1, 62976, Note_on_c, 9, 42, 89
1, 62976, Note_on_c, 9, 54, 39
1, 62976, Note_on_c, 9, 69, 31
1, 62980, Note_off_c, 9, 69, 31
1, 62980, Note_off_c, 9, 54, 39
1, 62980, Note_off_c, 9, 42, 89
1, 62980, Note_off_c, 9, 36, 119
1, 63064, Pitch_bend_c, 1, 8192
1, 63072, Pitch_bend_c, 1, 8009
1, 63072, Note_on_c, 9, 54, 40
1, 63076, Note_off_c, 9, 54, 40
1, 63080, Pitch_bend_c, 1, 7827
1, 63088, Pitch_bend_c, 1, 7644
1, 63096, Pitch_bend_c, 1, 7461
1, 63104, Pitch_bend_c, 1, 7278
1, 63112, Pitch_bend_c, 1, 7096
1, 63120, Pitch_bend_c, 1, 6913
1, 63128, Pitch_bend_c, 1, 6730
1, 63136, Pitch_bend_c, 1, 6548
1, 63144, Pitch_bend_c, 1, 6365
1, 63152, Pitch_bend_c, 1, 6182
1, 63160, Note_off_c, 7, 79, 114
1, 63160, Note_off_c, 7, 76, 119
1, 63160, Note_off_c, 7, 72, 104
1, 63160, Note_off_c, 8, 48, 124
1, 63160, Pitch_bend_c, 1, 6000
1, 63168, Note_on_c, 15, 64, 117
1, 63168, Pitch_bend_c, 1, 5817
1, 63168, Note_on_c, 9, 42, 92
1, 63168, Note_on_c, 9, 54, 46
1, 63168, Note_on_c, 9, 69, 34
1, 63172, Note_off_c, 9, 69, 34
1, 63172, Note_off_c, 9, 54, 46
1, 63172, Note_off_c, 9, 42, 92
1, 63176, Pitch_bend_c, 1, 5634
1, 63184, Pitch_bend_c, 1, 5451
1, 63192, Pitch_bend_c, 1, 5269
1, 63200, Pitch_bend_c, 1, 5086
1, 63208, Pitch_bend_c, 1, 4903
1, 63216, Pitch_bend_c, 1, 4720
1, 63224, Pitch_bend_c, 1, 4538
1, 63232, Pitch_bend_c, 1, 4355
1, 63240, Note_off_c, 2, 76, 83
1, 63240, Note_off_c, 2, 72, 79
1, 63240, Note_off_c, 2, 67, 82
1, 63240, Pitch_bend_c, 1, 4172
1, 63248, Note_off_c, 15, 64, 117
1, 63248, Pitch_bend_c, 1, 3990
1, 63252, Note_off_c, 1, 36, 118
1, 63256, Pitch_bend_c, 1, 3807
1, 63264, Note_on_c, 15, 65, 118
1, 63264, Pitch_bend_c, 1, 3624
1, 63264, Note_on_c, 9, 54, 32
1, 63264, Note_on_c, 9, 69, 31
1, 63268, Note_off_c, 9, 69, 31
1, 63268, Note_off_c, 9, 54, 32
1, 63272, Pitch_bend_c, 1, 3441
1, 63280, Pitch_bend_c, 1, 3259
1, 63288, Pitch_bend_c, 1, 3076
1, 63296, Pitch_bend_c, 1, 8192
1, 63344, Note_off_c, 15, 65, 118
1, 63344, Note_off_c, 14, 79, 127
1, 63344, Note_off_c, 14, 76, 110
1, 63360, Note_on_c, 15, 67, 126
1, 63360, Note_on_c, 8, 52, 116
1, 63360, Note_on_c, 7, 60, 103
1, 63360, Note_on_c, 7, 64, 112
1, 63360, Note_on_c, 7, 67, 105
1, 63360, Note_on_c, 9, 39, 97
1, 63360, Note_on_c, 1, 28, 100
1, 63360, Note_on_c, 9, 36, 116
1, 63360, Note_on_c, 9, 38, 107
1, 63360, Note_on_c, 9, 42, 87
1, 63360, Note_on_c, 9, 54, 43
1, 63360, Note_on_c, 9, 69, 44
1, 63364, Note_off_c, 9, 69, 44
1, 63364, Note_off_c, 9, 54, 43
1, 63364, Note_off_c, 9, 42, 87
1, 63364, Note_off_c, 9, 38, 107
1, 63364, Note_off_c, 9, 36, 116
1, 63364, Note_off_c, 9, 39, 97
1, 63440, Note_off_c, 15, 67, 126
1, 63448, Note_off_c, 7, 67, 105
1, 63448, Note_off_c, 7, 64, 112
1, 63448, Note_off_c, 7, 60, 103
1, 63448, Note_off_c, 8, 52, 116
1, 63456, Note_on_c, 9, 54, 41
1, 63460, Note_off_c, 9, 54, 41
1, 63540, Note_off_c, 1, 28, 100
1, 63552, Note_on_c, 15, 67, 125
1, 63552, Note_on_c, 8, 53, 127
1, 63552, Note_on_c, 7, 60, 113
1, 63552, Note_on_c, 7, 65, 108
1, 63552, Note_on_c, 7, 69, 107
1, 63552, Note_on_c, 1, 29, 118
1, 63552, Note_on_c, 9, 42, 88
1, 63552, Note_on_c, 9, 54, 35
1, 63552, Note_on_c, 9, 69, 41
1, 63556, Note_off_c, 9, 69, 41
1, 63556, Note_off_c, 9, 54, 35
1, 63556, Note_off_c, 9, 42, 88
1, 63640, Note_off_c, 7, 69, 107
1, 63640, Note_off_c, 7, 65, 108
1, 63640, Note_off_c, 7, 60, 113
1, 63640, Note_off_c, 8, 53, 127
1, 63648, Note_on_c, 9, 54, 32
1, 63648, Note_on_c, 9, 69, 35
1, 63652, Note_off_c, 9, 69, 35
1, 63652, Note_off_c, 9, 54, 32
1, 63732, Note_off_c, 1, 29, 118
1, 63744, Note_on_c, 9, 36, 119
1, 63744, Note_on_c, 9, 42, 82
1, 63744, Note_on_c, 9, 54, 31
1, 63744, Note_on_c, 9, 69, 40
1, 63748, Note_off_c, 9, 69, 40
1, 63748, Note_off_c, 9, 54, 31
1, 63748, Note_off_c, 9, 42, 82
1, 63748, Note_off_c, 9, 36, 119
1, 63824, Note_off_c, 15, 67, 125
1, 63840, Note_on_c, 9, 54, 32
1, 63844, Note_off_c, 9, 54, 32
1, 63936, Note_on_c, 15, 67, 111
1, 63936, Note_on_c, 8, 52, 117
1, 63936, Note_on_c, 7, 60, 106
1, 63936, Note_on_c, 7, 64, 113
1, 63936, Note_on_c, 7, 67, 116
1, 63936, Note_on_c, 1, 28, 105
1, 63936, Note_on_c, 9, 42, 91
1, 63936, Note_on_c, 9, 54, 49
1, 63936, Note_on_c, 9, 69, 39
1, 63940, Note_off_c, 9, 69, 39
1, 63940, Note_off_c, 9, 54, 49
1, 63940, Note_off_c, 9, 42, 91
1, 64024, Note_off_c, 7, 67, 116
1, 64024, Note_off_c, 7, 64, 113
1, 64024, Note_off_c, 7, 60, 106
1, 64024, Note_off_c, 8, 52, 117
1, 64032, Note_on_c, 9, 54, 47
1, 64032, Note_on_c, 9, 69, 36
1, 64036, Note_off_c, 9, 69, 36
1, 64036, Note_off_c, 9, 54, 47
1, 64116, Note_off_c, 1, 28, 105
1, 64128, Note_on_c, 9, 39, 98
1, 64128, Note_on_c, 9, 36, 113
1, 64128, Note_on_c, 9, 38, 113
1, 64128, Note_on_c, 9, 42, 94
1, 64128, Note_on_c, 9, 54, 39
1, 64128, Note_on_c, 9, 69, 35
1, 64132, Note_off_c, 9, 69, 35
1, 64132, Note_off_c, 9, 54, 39
1, 64132, Note_off_c, 9, 42, 94
1, 64132, Note_off_c, 9, 38, 113
1, 64132, Note_off_c, 9, 36, 113
1, 64132, Note_off_c, 9, 39, 98
1, 64208, Note_off_c, 15, 67, 111
1, 64224, Note_on_c, 9, 54, 43
1, 64228, Note_off_c, 9, 54, 43
1, 64320, Note_on_c, 15, 69, 127
1, 64320, Note_on_c, 8, 53, 115
1, 64320, Note_on_c, 7, 60, 108
1, 64320, Note_on_c, 7, 65, 105
1, 64320, Note_on_c, 7, 69, 119
1, 64320, Note_on_c, 1, 29, 107
1, 64320, Note_on_c, 9, 42, 93
1, 64320, Note_on_c, 9, 54, 48
1, 64320, Note_on_c, 9, 69, 41
1, 64324, Note_off_c, 9, 69, 41
1, 64324, Note_off_c, 9, 54, 48
1, 64324, Note_off_c, 9, 42, 93
1, 64408, Note_off_c, 7, 69, 119
1, 64408, Note_off_c, 7, 65, 105
1, 64408, Note_off_c, 7, 60, 108
1, 64408, Note_off_c, 8, 53, 115
1, 64416, Note_on_c, 9, 54, 31
1, 64416, Note_on_c, 9, 69, 35
1, 64420, Note_off_c, 9, 69, 35
1, 64420, Note_off_c, 9, 54, 31
1, 64500, Note_off_c, 1, 29, 107
1, 64512, Note_on_c, 9, 36, 106
1, 64512, Note_on_c, 9, 42, 90
1, 64512, Note_on_c, 9, 54, 44
1, 64512, Note_on_c, 9, 69, 30
1, 64516, Note_off_c, 9, 69, 30
1, 64516, Note_off_c, 9, 54, 44
1, 64516, Note_off_c, 9, 42, 90
1, 64516, Note_off_c, 9, 36, 106
1, 64592, Note_off_c, 15, 69, 127
1, 64608, Note_on_c, 9, 54, 43
1, 64612, Note_off_c, 9, 54, 43
1, 64704, Note_on_c, 15, 67, 115
1, 64704, Note_on_c, 8, 52, 120
1, 64704, Note_on_c, 7, 60, 117
1, 64704, Note_on_c, 7, 64, 113
1, 64704, Note_on_c, 7, 67, 114
1, 64704, Note_on_c, 1, 28, 102
1, 64704, Note_on_c, 9, 42, 75
1, 64704, Note_on_c, 9, 54, 39
1, 64704, Note_on_c, 9, 69, 32
1, 64708, Note_off_c, 9, 69, 32
1, 64708, Note_off_c, 9, 54, 39
1, 64708, Note_off_c, 9, 42, 75
1, 64792, Note_off_c, 7, 67, 114
1, 64792, Note_off_c, 7, 64, 113
1, 64792, Note_off_c, 7, 60, 117
1, 64792, Note_off_c, 8, 52, 120
1, 64800, Note_on_c, 9, 54, 45
1, 64800, Note_on_c, 9, 69, 40
1, 64804, Note_off_c, 9, 69, 40
1, 64804, Note_off_c, 9, 54, 45
1, 64884, Note_off_c, 1, 28, 102
1, 64896, Note_on_c, 9, 39, 85
1, 64896, Note_on_c, 9, 36, 121
1, 64896, Note_on_c, 9, 38, 112
1, 64896, Note_on_c, 9, 42, 77
1, 64896, Note_on_c, 9, 54, 30
1, 64896, Note_on_c, 9, 69, 43
1, 64900, Note_off_c, 9, 69, 43
1, 64900, Note_off_c, 9, 54, 30
1, 64900, Note_off_c, 9, 42, 77
1, 64900, Note_off_c, 9, 38, 112
1, 64900, Note_off_c, 9, 36, 121
1, 64900, Note_off_c, 9, 39, 85
1, 64992, Note_on_c, 9, 54, 37
1, 64996, Note_off_c, 9, 54, 37
1, 65072, Note_off_c, 15, 67, 115
1, 65088, Note_on_c, 15, 64, 115
1, 65088, Note_on_c, 8, 53, 127
1, 65088, Note_on_c, 7, 60, 114
1, 65088, Note_on_c, 7, 65, 106
1, 65088, Note_on_c, 7, 69, 121
1, 65088, Note_on_c, 9, 42, 90
1, 65088, Note_on_c, 9, 54, 40
1, 65088, Note_on_c, 9, 69, 44
1, 65092, Note_off_c, 9, 69, 44
1, 65092, Note_off_c, 9, 54, 40
1, 65092, Note_off_c, 9, 42, 90
1, 65176, Note_off_c, 7, 69, 121
1, 65176, Note_off_c, 7, 65, 106
1, 65176, Note_off_c, 7, 60, 114
1, 65176, Note_off_c, 8, 53, 127
1, 65184, Note_on_c, 9, 54, 43
1, 65184, Note_on_c, 9, 69, 46
1, 65188, Note_off_c, 9, 69, 46
1, 65188, Note_off_c, 9, 54, 43
1, 65280, Note_on_c, 8, 55, 117
1, 65280, Note_on_c, 7, 62, 119
1, 65280, Note_on_c, 7, 67, 119
1, 65280, Note_on_c, 7, 71, 114
1, 65280, Note_on_c, 1, 31, 115
1, 65280, Note_on_c, 9, 36, 124
1, 65280, Note_on_c, 9, 42, 80
1, 65280, Note_on_c, 9, 54, 34
1, 65280, Note_on_c, 9, 69, 37
1, 65284, Note_off_c, 9, 69, 37
1, 65284, Note_off_c, 9, 54, 34
1, 65284, Note_off_c, 9, 42, 80
1, 65284, Note_off_c, 9, 36, 124
1, 65376, Note_on_c, 9, 54, 36
1, 65380, Note_off_c, 9, 54, 36
1, 65456, Note_off_c, 15, 64, 115
1, 65460, Note_off_c, 1, 31, 115
1, 65464, Note_off_c, 7, 71, 114
1, 65464, Note_off_c, 7, 67, 119
1, 65464, Note_off_c, 7, 62, 119
1, 65464, Note_off_c, 8, 55, 117
1, 65472, Note_on_c, 15, 60, 126
1, 65472, Note_on_c, 9, 42, 88
1, 65472, Note_on_c, 9, 54, 37
1, 65472, Note_on_c, 9, 69, 48
1, 65476, Note_off_c, 9, 69, 48
1, 65476, Note_off_c, 9, 54, 37
1, 65476, Note_off_c, 9, 42, 88
1, 65552, Note_off_c, 15, 60, 126
1, 65568, Note_on_c, 9, 54, 32
1, 65568, Note_on_c, 9, 69, 39
1, 65572, Note_off_c, 9, 69, 39
1, 65572, Note_off_c, 9, 54, 32
1, 65664, Note_on_c, 15, 60, 113
1, 65664, Note_on_c, 8, 55, 127
1, 65664, Note_on_c, 7, 62, 111
1, 65664, Note_on_c, 7, 67, 106
1, 65664, Note_on_c, 7, 71, 117
1, 65664, Note_on_c, 9, 39, 99
1, 65664, Note_on_c, 1, 31, 114
1, 65664, Note_on_c, 9, 36, 109
1, 65664, Note_on_c, 9, 38, 111
1, 65664, Note_on_c, 9, 42, 87
1, 65664, Note_on_c, 9, 54, 31
1, 65664, Note_on_c, 9, 69, 36
1, 65668, Note_off_c, 9, 69, 36
1, 65668, Note_off_c, 9, 54, 31
1, 65668, Note_off_c, 9, 42, 87
1, 65668, Note_off_c, 9, 38, 111
1, 65668, Note_off_c, 9, 36, 109
1, 65668, Note_off_c, 9, 39, 99
1, 65744, Note_off_c, 15, 60, 113
1, 65760, Note_on_c, 15, 62, 114
1, 65760, Note_on_c, 9, 54, 34
1, 65764, Note_off_c, 9, 54, 34
1, 65840, Note_off_c, 15, 62, 114
1, 65848, Note_off_c, 7, 71, 117
1, 65848, Note_off_c, 7, 67, 106
1, 65848, Note_off_c, 7, 62, 111
1, 65848, Note_off_c, 8, 55, 127
1, 65856, Note_on_c, 15, 64, 121
1, 65856, Note_on_c, 9, 46, 102
1, 65856, Note_on_c, 9, 54, 38
1, 65856, Note_on_c, 9, 69, 47
1, 65860, Note_off_c, 9, 69, 47
1, 65860, Note_off_c, 9, 54, 38
1, 65860, Note_off_c, 9, 46, 102
1, 65940, Note_off_c, 1, 31, 114
1, 65952, Note_on_c, 9, 54, 34
1, 65952, Note_on_c, 9, 69, 43
1, 65956, Note_off_c, 9, 69, 43
1, 65956, Note_off_c, 9, 54, 34
1, 66032, Note_off_c, 15, 64, 121
1, 66048, Tempo, 504200
1, 66048, Note_on_c, 7, 57, 113
1, 66048, Note_on_c, 7, 60, 120
1, 66048, Note_on_c, 7, 65, 114
1, 66048, Control_c, 5, 11, 4
1, 66048, Note_on_c, 5, 72, 101
1, 66048, Note_on_c, 5, 69, 100
1, 66048, Note_on_c, 5, 64, 104
1, 66048, Note_on_c, 2, 60, 86
1, 66048, Note_on_c, 2, 65, 94
1, 66048, Note_on_c, 2, 67, 87
1, 66048, Note_on_c, 1, 29, 110
1, 66048, Note_on_c, 9, 36, 109
1, 66048, Note_on_c, 9, 42, 77
1, 66048, Note_on_c, 9, 49, 121
1, 66048, Note_on_c, 9, 54, 37
1, 66048, Note_on_c, 9, 69, 43
1, 66052, Note_off_c, 9, 69, 43
1, 66052, Note_off_c, 9, 54, 37
1, 66052, Note_off_c, 9, 49, 121
1, 66052, Note_off_c, 9, 42, 77
1, 66052, Note_off_c, 9, 36, 109
1, 66072, Control_c, 5, 11, 0
1, 66096, Control_c, 5, 11, 6
1, 66120, Control_c, 5, 11, 12
1, 66144, Control_c, 5, 11, 18
1, 66144, Note_on_c, 9, 54, 46
1, 66148, Note_off_c, 9, 54, 46
1, 66168, Control_c, 5, 11, 24
1, 66192, Control_c, 5, 11, 30
1, 66216, Control_c, 5, 11, 36
1, 66240, Note_on_c, 15, 60, 119
1, 66240, Control_c, 5, 11, 42
1, 66240, Note_on_c, 9, 42, 85
1, 66240, Note_on_c, 9, 54, 41
1, 66240, Note_on_c, 9, 69, 39
1, 66244, Note_off_c, 9, 69, 39
1, 66244, Note_off_c, 9, 54, 41
1, 66244, Note_off_c, 9, 42, 85
1, 66264, Control_c, 5, 11, 47
1, 66288, Control_c, 5, 11, 53
1, 66312, Control_c, 5, 11, 59
1, 66336, Control_c, 5, 11, 65
1, 66336, Note_on_c, 9, 54, 33
1, 66336, Note_on_c, 9, 69, 43
1, 66340, Note_off_c, 9, 69, 43
1, 66340, Note_off_c, 9, 54, 33
1, 66360, Control_c, 5, 11, 71
1, 66408, Control_c, 5, 11, 72
1, 66416, Note_off_c, 15, 60, 119
1, 66432, Note_on_c, 14, 72, 117
1, 66432, Note_on_c, 14, 76, 125
1, 66432, Note_on_c, 15, 69, 118
1, 66432, Control_c, 5, 11, 74
1, 66432, Note_on_c, 9, 39, 85
1, 66432, Note_on_c, 9, 36, 111
1, 66432, Note_on_c, 9, 38, 111
1, 66432, Note_on_c, 9, 42, 91
1, 66432, Note_on_c, 9, 54, 34
1, 66432, Note_on_c, 9, 69, 49
1, 66436, Note_off_c, 9, 69, 49
1, 66436, Note_off_c, 9, 54, 34
1, 66436, Note_off_c, 9, 42, 91
1, 66436, Note_off_c, 9, 38, 111
1, 66436, Note_off_c, 9, 36, 111
1, 66436, Note_off_c, 9, 39, 85
1, 66456, Control_c, 5, 11, 75
1, 66480, Control_c, 5, 11, 76
1, 66504, Control_c, 5, 11, 77
1, 66516, Note_off_c, 1, 29, 110
1, 66528, Control_c, 5, 11, 78
1, 66528, Note_on_c, 9, 54, 31
1, 66532, Note_off_c, 9, 54, 31
1, 66552, Control_c, 5, 11, 79
1, 66576, Control_c, 5, 11, 80
1, 66600, Control_c, 5, 11, 82
1, 66624, Control_c, 5, 11, 83
1, 66624, Note_on_c, 1, 29, 106
1, 66624, Note_on_c, 9, 42, 77
1, 66624, Note_on_c, 9, 54, 38
1, 66624, Note_on_c, 9, 69, 31
1, 66628, Note_off_c, 9, 69, 31
1, 66628, Note_off_c, 9, 54, 38
1, 66628, Note_off_c, 9, 42, 77
1, 66648, Control_c, 5, 11, 84
1, 66672, Control_c, 5, 11, 85
1, 66696, Control_c, 5, 11, 86
1, 66708, Note_off_c, 1, 29, 106
1, 66720, Control_c, 5, 11, 87
1, 66720, Note_on_c, 9, 54, 40
1, 66720, Note_on_c, 9, 69, 41
1, 66724, Note_off_c, 9, 69, 41
1, 66724, Note_off_c, 9, 54, 40
1, 66744, Control_c, 5, 11, 88
1, 66768, Control_c, 5, 11, 90
1, 66792, Control_c, 5, 11, 91
1, 66800, Note_off_c, 15, 69, 118
1, 66800, Note_off_c, 14, 76, 125
1, 66800, Note_off_c, 14, 72, 117
1, 66816, Note_on_c, 14, 69, 126
1, 66816, Note_on_c, 14, 72, 110
1, 66816, Note_on_c, 15, 72, 118
1, 66816, Control_c, 5, 11, 92
1, 66816, Note_on_c, 1, 29, 112
1, 66816, Note_on_c, 9, 36, 115
1, 66816, Note_on_c, 9, 42, 90
1, 66816, Note_on_c, 9, 54, 42
1, 66816, Note_on_c, 9, 69, 31
1, 66820, Note_off_c, 9, 69, 31
1, 66820, Note_off_c, 9, 54, 42
1, 66820, Note_off_c, 9, 42, 90
1, 66820, Note_off_c, 9, 36, 115
1, 66840, Control_c, 5, 11, 93
1, 66864, Control_c, 5, 11, 94
1, 66888, Control_c, 5, 11, 95
1, 66912, Control_c, 5, 11, 96
1, 66912, Note_on_c, 9, 54, 31
1, 66916, Note_off_c, 9, 54, 31
1, 66936, Control_c, 5, 11, 98
1, 66984, Control_c, 5, 11, 100
1, 66992, Note_off_c, 14, 72, 110
1, 66992, Note_off_c, 14, 69, 126
1, 67008, Control_c, 5, 11, 97
1, 67008, Note_on_c, 9, 42, 86
1, 67008, Note_on_c, 9, 54, 36
1, 67008, Note_on_c, 9, 69, 44
1, 67012, Note_off_c, 9, 69, 44
1, 67012, Note_off_c, 9, 54, 36
1, 67012, Note_off_c, 9, 42, 86
1, 67056, Control_c, 5, 11, 96
1, 67080, Control_c, 5, 11, 95
1, 67104, Note_on_c, 9, 54, 37
1, 67104, Note_on_c, 9, 69, 40
1, 67108, Note_off_c, 9, 69, 40
1, 67108, Note_off_c, 9, 54, 37
1, 67128, Control_c, 5, 11, 94
1, 67152, Control_c, 5, 11, 93
1, 67200, Note_on_c, 14, 69, 117
1, 67200, Note_on_c, 14, 72, 122
1, 67200, Control_c, 5, 11, 92
1, 67200, Note_on_c, 9, 39, 90
1, 67200, Note_on_c, 9, 36, 122
1, 67200, Note_on_c, 9, 38, 119
1, 67200, Note_on_c, 9, 42, 82
1, 67200, Note_on_c, 9, 54, 49
1, 67200, Note_on_c, 9, 69, 37
1, 67204, Note_off_c, 9, 69, 37
1, 67204, Note_off_c, 9, 54, 49
1, 67204, Note_off_c, 9, 42, 82
1, 67204, Note_off_c, 9, 38, 119
1, 67204, Note_off_c, 9, 36, 122
1, 67204, Note_off_c, 9, 39, 90
1, 67248, Control_c, 5, 11, 91
1, 67272, Control_c, 5, 11, 90
1, 67296, Note_on_c, 9, 54, 34
1, 67300, Note_off_c, 9, 54, 34
1, 67320, Control_c, 5, 11, 89
1, 67368, Control_c, 5, 11, 88
1, 67376, Note_off_c, 15, 72, 118
1, 67392, Control_c, 5, 11, 87
1, 67392, Note_on_c, 9, 42, 84
1, 67392, Note_on_c, 9, 54, 31
1, 67392, Note_on_c, 9, 69, 46
1, 67396, Note_off_c, 9, 69, 46
1, 67396, Note_off_c, 9, 54, 31
1, 67396, Note_off_c, 9, 42, 84
1, 67440, Control_c, 5, 11, 86
1, 67488, Control_c, 5, 11, 85
1, 67488, Note_on_c, 9, 54, 30
1, 67488, Note_on_c, 9, 69, 47
1, 67492, Note_off_c, 9, 69, 47
1, 67492, Note_off_c, 9, 54, 30
1, 67536, Control_c, 5, 11, 84
1, 67560, Control_c, 5, 11, 83
1, 67568, Note_off_c, 14, 72, 122
1, 67568, Note_off_c, 14, 69, 117
1, 67584, Note_on_c, 14, 65, 121
1, 67584, Note_on_c, 14, 69, 125
1, 67584, Note_on_c, 15, 69, 112
1, 67584, Note_on_c, 9, 36, 111
1, 67584, Note_on_c, 9, 42, 90
1, 67584, Note_on_c, 9, 54, 44
1, 67584, Note_on_c, 9, 69, 30
1, 67588, Note_off_c, 9, 69, 30
1, 67588, Note_off_c, 9, 54, 44
1, 67588, Note_off_c, 9, 42, 90
1, 67588, Note_off_c, 9, 36, 111
1, 67608, Control_c, 5, 11, 82
1, 67632, Control_c, 5, 11, 81
1, 67680, Control_c, 5, 11, 80
1, 67680, Note_on_c, 9, 54, 40
1, 67684, Note_off_c, 9, 54, 40
1, 67728, Control_c, 5, 11, 79
1, 67752, Note_off_c, 2, 67, 87
1, 67752, Note_off_c, 2, 65, 94
1, 67752, Note_off_c, 2, 60, 86
1, 67752, Control_c, 5, 11, 78
1, 67760, Note_off_c, 14, 69, 125
1, 67760, Note_off_c, 14, 65, 121
1, 67764, Note_off_c, 1, 29, 112
1, 67776, Note_on_c, 8, 53, 127
1, 67776, Note_on_c, 2, 53, 88
1, 67776, Note_on_c, 2, 65, 92
1, 67776, Note_on_c, 1, 41, 107
1, 67776, Note_on_c, 9, 42, 89
1, 67776, Note_on_c, 9, 54, 34
1, 67776, Note_on_c, 9, 69, 43
1, 67780, Note_off_c, 9, 69, 43
1, 67780, Note_off_c, 9, 54, 34
1, 67780, Note_off_c, 9, 42, 89
1, 67800, Control_c, 5, 11, 77
1, 67848, Control_c, 5, 11, 76
1, 67856, Note_off_c, 15, 69, 112
1, 67872, Control_c, 5, 11, 77
1, 67872, Note_on_c, 9, 54, 42
1, 67872, Note_on_c, 9, 69, 40
1, 67876, Note_off_c, 9, 69, 40
1, 67876, Note_off_c, 9, 54, 42
1, 67896, Control_c, 5, 11, 78
1, 67920, Control_c, 5, 11, 79
1, 67944, Control_c, 5, 11, 80
1, 67956, Note_off_c, 1, 41, 107
1, 67960, Note_off_c, 2, 65, 92
1, 67960, Note_off_c, 2, 53, 88
1, 67960, Note_off_c, 8, 53, 127
1, 67968, Note_on_c, 14, 65, 120
1, 67968, Note_on_c, 14, 69, 126
1, 67968, Note_on_c, 15, 69, 122
1, 67968, Note_on_c, 8, 52, 127
1, 67968, Control_c, 5, 11, 81
1, 67968, Note_on_c, 2, 52, 82
1, 67968, Note_on_c, 2, 64, 97
1, 67968, Note_on_c, 9, 39, 103
1, 67968, Note_on_c, 1, 40, 108
1, 67968, Note_on_c, 9, 36, 109
1, 67968, Note_on_c, 9, 38, 108
1, 67968, Note_on_c, 9, 42, 84
1, 67968, Note_on_c, 9, 54, 30
1, 67968, Note_on_c, 9, 69, 39
1, 67972, Note_off_c, 9, 69, 39
1, 67972, Note_off_c, 9, 54, 30
1, 67972, Note_off_c, 9, 42, 84
1, 67972, Note_off_c, 9, 38, 108
1, 67972, Note_off_c, 9, 36, 109
1, 67972, Note_off_c, 9, 39, 103
1, 67992, Control_c, 5, 11, 82
1, 68016, Control_c, 5, 11, 83
1, 68040, Control_c, 5, 11, 84
1, 68064, Note_on_c, 9, 54, 32
1, 68068, Note_off_c, 9, 54, 32
1, 68088, Control_c, 5, 11, 85
1, 68112, Control_c, 5, 11, 86
1, 68136, Control_c, 5, 11, 87
1, 68148, Note_off_c, 1, 40, 108
1, 68152, Note_off_c, 2, 64, 97
1, 68152, Note_off_c, 2, 52, 82
1, 68152, Note_off_c, 8, 52, 127
1, 68160, Note_on_c, 8, 50, 127
1, 68160, Control_c, 5, 11, 88
1, 68160, Note_on_c, 2, 50, 88
1, 68160, Note_on_c, 2, 62, 87
1, 68160, Note_on_c, 1, 38, 104
1, 68160, Note_on_c, 9, 42, 84
1, 68160, Note_on_c, 9, 54, 38
1, 68160, Note_on_c, 9, 69, 35
1, 68164, Note_off_c, 9, 69, 35
1, 68164, Note_off_c, 9, 54, 38
1, 68164, Note_off_c, 9, 42, 84
1, 68184, Control_c, 5, 11, 89
1, 68208, Control_c, 5, 11, 90
1, 68232, Control_c, 5, 11, 91
1, 68240, Note_off_c, 15, 69, 122
1, 68256, Control_c, 5, 11, 92
1, 68256, Note_on_c, 9, 54, 32
1, 68256, Note_on_c, 9, 69, 32
1, 68260, Note_off_c, 9, 69, 32
1, 68260, Note_off_c, 9, 54, 32
1, 68280, Control_c, 5, 11, 93
1, 68304, Control_c, 5, 11, 94
1, 68328, Control_c, 5, 11, 95
1, 68336, Note_off_c, 14, 69, 126
1, 68336, Note_off_c, 14, 65, 120
1, 68340, Note_off_c, 1, 38, 104
1, 68344, Note_off_c, 2, 62, 87
1, 68344, Note_off_c, 2, 50, 88
1, 68344, Note_off_c, 8, 50, 127
1, 68352, Note_on_c, 14, 60, 115
1, 68352, Note_on_c, 14, 64, 112
1, 68352, Note_on_c, 15, 64, 119
1, 68352, Note_on_c, 8, 48, 126
1, 68352, Control_c, 5, 11, 96
1, 68352, Note_on_c, 2, 48, 79
1, 68352, Note_on_c, 2, 60, 78
1, 68352, Note_on_c, 1, 36, 119
1, 68352, Note_on_c, 9, 36, 119
1, 68352, Note_on_c, 9, 42, 79
1, 68352, Note_on_c, 9, 54, 31
1, 68352, Note_on_c, 9, 69, 47
1, 68356, Note_off_c, 9, 69, 47
1, 68356, Note_off_c, 9, 54, 31
1, 68356, Note_off_c, 9, 42, 79
1, 68356, Note_off_c, 9, 36, 119
1, 68376, Control_c, 5, 11, 97
1, 68400, Control_c, 5, 11, 98
1, 68424, Control_c, 5, 11, 99
1, 68448, Control_c, 5, 11, 100
1, 68448, Note_on_c, 9, 54, 39
1, 68452, Note_off_c, 9, 54, 39
1, 68472, Control_c, 5, 11, 101
1, 68496, Control_c, 5, 11, 102
1, 68520, Control_c, 5, 11, 103
1, 68528, Note_off_c, 15, 64, 119
1, 68528, Note_off_c, 14, 64, 112
1, 68528, Note_off_c, 14, 60, 115
1, 68532, Note_off_c, 1, 36, 119
1, 68536, Note_off_c, 2, 60, 78
1, 68536, Note_off_c, 2, 48, 79
1, 68536, Note_off_c, 8, 48, 126
1, 68544, Note_on_c, 15, 62, 119
1, 68544, Note_on_c, 8, 45, 126
1, 68544, Control_c, 5, 11, 104
1, 68544, Note_on_c, 2, 45, 94
1, 68544, Note_on_c, 2, 57, 94
1, 68544, Note_on_c, 1, 33, 101
1, 68544, Note_on_c, 9, 42, 82
1, 68544, Note_on_c, 9, 54, 38
1, 68544, Note_on_c, 9, 69, 43
1, 68548, Note_off_c, 9, 69, 43
1, 68548, Note_off_c, 9, 54, 38
1, 68548, Note_off_c, 9, 42, 82
1, 68568, Control_c, 5, 11, 105
1, 68592, Control_c, 5, 11, 106
1, 68624, Note_off_c, 15, 62, 119
1, 68640, Note_on_c, 15, 60, 114
1, 68640, Control_c, 5, 11, 107
1, 68640, Note_on_c, 9, 54, 33
1, 68640, Note_on_c, 9, 69, 47
1, 68644, Note_off_c, 9, 69, 47
1, 68644, Note_off_c, 9, 54, 33
1, 68664, Control_c, 5, 11, 108
1, 68688, Control_c, 5, 11, 109
1, 68712, Control_c, 5, 11, 110
1, 68724, Note_off_c, 1, 33, 101
1, 68728, Note_off_c, 2, 57, 94
1, 68728, Note_off_c, 2, 45, 94
1, 68728, Note_off_c, 8, 45, 126
1, 68736, Note_on_c, 14, 65, 125
1, 68736, Note_on_c, 14, 69, 125
1, 68736, Note_on_c, 8, 43, 127
1, 68736, Control_c, 5, 11, 111
1, 68736, Note_on_c, 2, 43, 94
1, 68736, Note_on_c, 2, 55, 91
1, 68736, Note_on_c, 9, 39, 90
1, 68736, Note_on_c, 1, 31, 109
1, 68736, Note_on_c, 9, 36, 120
1, 68736, Note_on_c, 9, 38, 119
1, 68736, Note_on_c, 9, 42, 75
1, 68736, Note_on_c, 9, 54, 35
1, 68736, Note_on_c, 9, 69, 41
1, 68740, Note_off_c, 9, 69, 41
1, 68740, Note_off_c, 9, 54, 35
1, 68740, Note_off_c, 9, 42, 75
1, 68740, Note_off_c, 9, 38, 119
1, 68740, Note_off_c, 9, 36, 120
1, 68740, Note_off_c, 9, 39, 90
1, 68760, Control_c, 5, 11, 112
1, 68784, Control_c, 5, 11, 113
1, 68808, Control_c, 5, 11, 114
1, 68832, Control_c, 5, 11, 115
1, 68832, Note_on_c, 9, 54, 40
1, 68836, Note_off_c, 9, 54, 40
1, 68856, Control_c, 5, 11, 116
1, 68880, Control_c, 5, 11, 117
1, 68904, Control_c, 5, 11, 118
1, 68912, Note_off_c, 15, 60, 114
1, 68916, Note_off_c, 1, 31, 109
1, 68920, Note_off_c, 2, 55, 91
1, 68920, Note_off_c, 2, 43, 94
1, 68920, Note_off_c, 8, 43, 127
1, 68928, Note_on_c, 15, 57, 118
1, 68928, Note_on_c, 8, 45, 127
1, 68928, Control_c, 5, 11, 119
1, 68928, Note_on_c, 2, 45, 95
1, 68928, Note_on_c, 2, 57, 78
1, 68928, Note_on_c, 1, 33, 111
1, 68928, Note_on_c, 9, 42, 93
1, 68928, Note_on_c, 9, 54, 34
1, 68928, Note_on_c, 9, 69, 44
1, 68932, Note_off_c, 9, 69, 44
1, 68932, Note_off_c, 9, 54, 34
1, 68932, Note_off_c, 9, 42, 93
1, 68952, Control_c, 5, 11, 120
1, 68976, Control_c, 5, 11, 121
1, 69000, Control_c, 5, 11, 122
1, 69008, Note_off_c, 15, 57, 118
1, 69024, Note_on_c, 15, 55, 126
1, 69024, Control_c, 5, 11, 123
1, 69024, Note_on_c, 9, 54, 45
1, 69024, Note_on_c, 9, 69, 36
1, 69028, Note_off_c, 9, 69, 36
1, 69028, Note_off_c, 9, 54, 45
1, 69048, Control_c, 5, 11, 124
1, 69072, Control_c, 5, 11, 125
1, 69088, Note_off_c, 7, 65, 114
1, 69088, Note_off_c, 7, 60, 120
1, 69088, Note_off_c, 7, 57, 113
1, 69096, Control_c, 5, 11, 127
1, 69104, Note_off_c, 14, 69, 125
1, 69104, Note_off_c, 14, 65, 125
1, 69104, Note_off_c, 5, 64, 104
1, 69104, Note_off_c, 5, 69, 100
1, 69104, Note_off_c, 5, 72, 101
1, 69108, Note_off_c, 1, 33, 111
1, 69112, Note_off_c, 2, 57, 78
1, 69112, Note_off_c, 2, 45, 95
1, 69112, Note_off_c, 8, 45, 127
1, 69120, Tempo, 500000
1, 69120, Note_on_c, 14, 64, 115
1, 69120, Note_on_c, 14, 67, 127
1, 69120, Note_on_c, 8, 48, 118
1, 69120, Note_on_c, 7, 60, 105
1, 69120, Note_on_c, 7, 64, 113
1, 69120, Note_on_c, 7, 67, 119
1, 69120, Note_on_c, 2, 48, 78
1, 69120, Note_on_c, 2, 55, 82
1, 69120, Note_on_c, 2, 60, 82
1, 69120, Note_on_c, 2, 64, 85
1, 69120, Note_on_c, 1, 36, 106
1, 69120, Note_on_c, 9, 36, 108
1, 69120, Note_on_c, 9, 42, 91
1, 69120, Note_on_c, 9, 54, 31
1, 69120, Note_on_c, 9, 69, 39
1, 69124, Note_off_c, 9, 69, 39
1, 69124, Note_off_c, 9, 54, 31
1, 69124, Note_off_c, 9, 42, 91
1, 69124, Note_off_c, 9, 36, 108
1, 69208, Pitch_bend_c, 1, 8192
1, 69216, Pitch_bend_c, 1, 8009
1, 69216, Note_on_c, 9, 54, 37
1, 69220, Note_off_c, 9, 54, 37
1, 69224, Pitch_bend_c, 1, 7827
1, 69232, Pitch_bend_c, 1, 7644
1, 69240, Pitch_bend_c, 1, 7461
1, 69248, Pitch_bend_c, 1, 7278
1, 69256, Pitch_bend_c, 1, 7096
1, 69264, Pitch_bend_c, 1, 6913
1, 69272, Pitch_bend_c, 1, 6730
1, 69280, Pitch_bend_c, 1, 6548
1, 69288, Pitch_bend_c, 1, 6365
1, 69296, Note_off_c, 15, 55, 126
1, 69296, Pitch_bend_c, 1, 6182
1, 69304, Note_off_c, 2, 64, 85
1, 69304, Note_off_c, 2, 60, 82
1, 69304, Note_off_c, 2, 55, 82
1, 69304, Note_off_c, 2, 48, 78
1, 69304, Note_off_c, 7, 67, 119
1, 69304, Note_off_c, 7, 64, 113
1, 69304, Note_off_c, 7, 60, 105
1, 69304, Note_off_c, 8, 48, 118
1, 69304, Pitch_bend_c, 1, 6000
1, 69312, Pitch_bend_c, 1, 5817
1, 69312, Note_on_c, 9, 42, 76
1, 69312, Note_on_c, 9, 54, 46
1, 69312, Note_on_c, 9, 69, 47
1, 69316, Note_off_c, 9, 69, 47
1, 69316, Note_off_c, 9, 54, 46
1, 69316, Note_off_c, 9, 42, 76
1, 69320, Pitch_bend_c, 1, 5634
1, 69328, Pitch_bend_c, 1, 5451
1, 69336, Pitch_bend_c, 1, 5269
1, 69344, Pitch_bend_c, 1, 5086
1, 69352, Pitch_bend_c, 1, 4903
1, 69360, Pitch_bend_c, 1, 4720
1, 69368, Pitch_bend_c, 1, 4538
1, 69376, Pitch_bend_c, 1, 4355
1, 69384, Pitch_bend_c, 1, 4172
1, 69392, Pitch_bend_c, 1, 3990
1, 69396, Note_off_c, 1, 36, 106
1, 69400, Pitch_bend_c, 1, 3807
1, 69408, Pitch_bend_c, 1, 3624
1, 69408, Note_on_c, 9, 54, 44
1, 69408, Note_on_c, 9, 69, 38
1, 69412, Note_off_c, 9, 69, 38
1, 69412, Note_off_c, 9, 54, 44
1, 69416, Pitch_bend_c, 1, 3441
1, 69424, Pitch_bend_c, 1, 3259
1, 69432, Pitch_bend_c, 1, 3076
1, 69440, Pitch_bend_c, 1, 8192
1, 69504, Note_on_c, 8, 52, 117
1, 69504, Note_on_c, 7, 60, 112
1, 69504, Note_on_c, 7, 64, 103
1, 69504, Note_on_c, 7, 67, 122
1, 69504, Note_on_c, 9, 39, 85
1, 69504, Note_on_c, 1, 28, 101
1, 69504, Note_on_c, 9, 36, 121
1, 69504, Note_on_c, 9, 38, 110
1, 69504, Note_on_c, 9, 42, 91
1, 69504, Note_on_c, 9, 54, 44
1, 69504, Note_on_c, 9, 69, 49
1, 69508, Note_off_c, 9, 69, 49
1, 69508, Note_off_c, 9, 54, 44
1, 69508, Note_off_c, 9, 42, 91
1, 69508, Note_off_c, 9, 38, 110
1, 69508, Note_off_c, 9, 36, 121
1, 69508, Note_off_c, 9, 39, 85
1, 69592, Note_off_c, 7, 67, 122
1, 69592, Note_off_c, 7, 64, 103
1, 69592, Note_off_c, 7, 60, 112
1, 69592, Note_off_c, 8, 52, 117
1, 69600, Note_on_c, 9, 54, 43
1, 69604, Note_off_c, 9, 54, 43
1, 69684, Note_off_c, 1, 28, 101
1, 69696, Note_on_c, 15, 64, 123
1, 69696, Note_on_c, 8, 53, 127
1, 69696, Note_on_c, 7, 60, 118
1, 69696, Note_on_c, 7, 65, 111
1, 69696, Note_on_c, 7, 69, 111
1, 69696, Note_on_c, 1, 29, 107
1, 69696, Note_on_c, 9, 42, 77
1, 69696, Note_on_c, 9, 54, 49
1, 69696, Note_on_c, 9, 69, 42
1, 69700, Note_off_c, 9, 69, 42
1, 69700, Note_off_c, 9, 54, 49
1, 69700, Note_off_c, 9, 42, 77
1, 69776, Note_off_c, 15, 64, 123
1, 69784, Note_off_c, 7, 69, 111
1, 69784, Note_off_c, 7, 65, 111
1, 69784, Note_off_c, 7, 60, 118
1, 69784, Note_off_c, 8, 53, 127
1, 69792, Note_on_c, 15, 65, 126
1, 69792, Note_on_c, 9, 54, 37
1, 69792, Note_on_c, 9, 69, 43
1, 69796, Note_off_c, 9, 69, 43
1, 69796, Note_off_c, 9, 54, 37
1, 69872, Note_off_c, 15, 65, 126
1, 69876, Note_off_c, 1, 29, 107
1, 69888, Note_on_c, 15, 67, 118
1, 69888, Note_on_c, 9, 36, 124
1, 69888, Note_on_c, 9, 42, 81
1, 69888, Note_on_c, 9, 54, 35
1, 69888, Note_on_c, 9, 69, 31
1, 69892, Note_off_c, 9, 69, 31
1, 69892, Note_off_c, 9, 54, 35
1, 69892, Note_off_c, 9, 42, 81
1, 69892, Note_off_c, 9, 36, 124
1, 69968, Note_off_c, 15, 67, 118
1, 69984, Note_on_c, 9, 54, 43
1, 69988, Note_off_c, 9, 54, 43
1, 70080, Note_on_c, 15, 67, 114
1, 70080, Note_on_c, 8, 52, 119
1, 70080, Note_on_c, 7, 60, 120
1, 70080, Note_on_c, 7, 64, 115
1, 70080, Note_on_c, 7, 67, 105
1, 70080, Note_on_c, 1, 28, 100
1, 70080, Note_on_c, 9, 42, 82
1, 70080, Note_on_c, 9, 54, 32
1, 70080, Note_on_c, 9, 69, 37
1, 70084, Note_off_c, 9, 69, 37
1, 70084, Note_off_c, 9, 54, 32
1, 70084, Note_off_c, 9, 42, 82
1, 70168, Note_off_c, 7, 67, 105
1, 70168, Note_off_c, 7, 64, 115
1, 70168, Note_off_c, 7, 60, 120
1, 70168, Note_off_c, 8, 52, 119
1, 70176, Note_on_c, 9, 54, 38
1, 70176, Note_on_c, 9, 69, 30
1, 70180, Note_off_c, 9, 69, 30
1, 70180, Note_off_c, 9, 54, 38
1, 70260, Note_off_c, 1, 28, 100
1, 70272, Note_on_c, 9, 39, 101
1, 70272, Note_on_c, 9, 36, 119
1, 70272, Note_on_c, 9, 38, 124
1, 70272, Note_on_c, 9, 42, 83
1, 70272, Note_on_c, 9, 54, 43
1, 70272, Note_on_c, 9, 69, 30
1, 70276, Note_off_c, 9, 69, 30
1, 70276, Note_off_c, 9, 54, 43
1, 70276, Note_off_c, 9, 42, 83
1, 70276, Note_off_c, 9, 38, 124
1, 70276, Note_off_c, 9, 36, 119
1, 70276, Note_off_c, 9, 39, 101
1, 70352, Note_off_c, 15, 67, 114
1, 70368, Note_on_c, 9, 54, 39
1, 70372, Note_off_c, 9, 54, 39
1, 70448, Note_off_c, 14, 67, 127
1, 70448, Note_off_c, 14, 64, 115
1, 70464, Note_on_c, 15, 64, 126
1, 70464, Note_on_c, 8, 53, 127
1, 70464, Note_on_c, 7, 60, 109
1, 70464, Note_on_c, 7, 65, 119
1, 70464, Note_on_c, 7, 69, 117
1, 70464, Note_on_c, 1, 29, 107
1, 70464, Note_on_c, 9, 42, 86
1, 70464, Note_on_c, 9, 54, 34
1, 70464, Note_on_c, 9, 69, 48
1, 70468, Note_off_c, 9, 69, 48
1, 70468, Note_off_c, 9, 54, 34
1, 70468, Note_off_c, 9, 42, 86
1, 70552, Note_off_c, 7, 69, 117
1, 70552, Note_off_c, 7, 65, 119
1, 70552, Note_off_c, 7, 60, 109
1, 70552, Note_off_c, 8, 53, 127
1, 70560, Note_on_c, 9, 54, 42
1, 70560, Note_on_c, 9, 69, 46
1, 70564, Note_off_c, 9, 69, 46
1, 70564, Note_off_c, 9, 54, 42
1, 70640, Note_off_c, 15, 64, 126
1, 70644, Note_off_c, 1, 29, 107
1, 70656, Tempo, 504200
1, 70656, Note_on_c, 15, 62, 124
1, 70656, Note_on_c, 9, 36, 111
1, 70656, Note_on_c, 9, 42, 89
1, 70656, Note_on_c, 9, 54, 32
1, 70656, Note_on_c, 9, 69, 39
1, 70660, Note_off_c, 9, 69, 39
1, 70660, Note_off_c, 9, 54, 32
1, 70660, Note_off_c, 9, 42, 89
1, 70660, Note_off_c, 9, 36, 111
1, 70736, Note_off_c, 15, 62, 124
1, 70752, Note_on_c, 15, 60, 127
1, 70752, Note_on_c, 9, 54, 38
1, 70756, Note_off_c, 9, 54, 38
1, 70832, Note_off_c, 15, 60, 127
1, 70848, Note_on_c, 15, 62, 124
1, 70848, Note_on_c, 8, 52, 125
1, 70848, Note_on_c, 7, 60, 113
1, 70848, Note_on_c, 7, 64, 118
1, 70848, Note_on_c, 7, 67, 121
1, 70848, Note_on_c, 1, 28, 100
1, 70848, Note_on_c, 9, 42, 85
1, 70848, Note_on_c, 9, 54, 48
1, 70848, Note_on_c, 9, 69, 39
1, 70852, Note_off_c, 9, 69, 39
1, 70852, Note_off_c, 9, 54, 48
1, 70852, Note_off_c, 9, 42, 85
1, 70936, Note_off_c, 7, 67, 121
1, 70936, Note_off_c, 7, 64, 118
1, 70936, Note_off_c, 7, 60, 113
1, 70936, Note_off_c, 8, 52, 125
1, 70944, Note_on_c, 9, 54, 34
1, 70944, Note_on_c, 9, 69, 36
1, 70948, Note_off_c, 9, 69, 36
1, 70948, Note_off_c, 9, 54, 34
1, 71028, Note_off_c, 1, 28, 100
1, 71040, Note_on_c, 9, 39, 99
1, 71040, Note_on_c, 9, 36, 109
1, 71040, Note_on_c, 9, 38, 107
1, 71040, Note_on_c, 9, 42, 86
1, 71040, Note_on_c, 9, 54, 30
1, 71040, Note_on_c, 9, 69, 39
1, 71044, Note_off_c, 9, 69, 39
1, 71044, Note_off_c, 9, 54, 30
1, 71044, Note_off_c, 9, 42, 86
1, 71044, Note_off_c, 9, 38, 107
1, 71044, Note_off_c, 9, 36, 109
1, 71044, Note_off_c, 9, 39, 99
1, 71136, Note_on_c, 9, 54, 43
1, 71140, Note_off_c, 9, 54, 43
1, 71216, Note_off_c, 15, 62, 124
1, 71232, Note_on_c, 15, 57, 117
1, 71232, Note_on_c, 8, 53, 124
1, 71232, Note_on_c, 7, 60, 114
1, 71232, Note_on_c, 7, 65, 122
1, 71232, Note_on_c, 7, 69, 107
1, 71232, Note_on_c, 1, 29, 109
1, 71232, Note_on_c, 9, 42, 77
1, 71232, Note_on_c, 9, 54, 36
1, 71232, Note_on_c, 9, 69, 44
1, 71236, Note_off_c, 9, 69, 44
1, 71236, Note_off_c, 9, 54, 36
1, 71236, Note_off_c, 9, 42, 77
1, 71312, Note_off_c, 15, 57, 117
1, 71320, Note_off_c, 7, 69, 107
1, 71320, Note_off_c, 7, 65, 122
1, 71320, Note_off_c, 7, 60, 114
1, 71320, Note_off_c, 8, 53, 124
1, 71328, Note_on_c, 15, 55, 110
1, 71328, Note_on_c, 9, 54, 38
1, 71328, Note_on_c, 9, 69, 49
1, 71332, Note_off_c, 9, 69, 49
1, 71332, Note_off_c, 9, 54, 38
1, 71364, Note_off_c, 1, 29, 109
1, 71424, Note_on_c, 8, 55, 124
1, 71424, Note_on_c, 7, 62, 104
1, 71424, Note_on_c, 7, 67, 115
1, 71424, Note_on_c, 7, 71, 108
1, 71424, Note_on_c, 1, 31, 118
1, 71424, Note_on_c, 9, 36, 122
1, 71424, Note_on_c, 9, 42, 85
1, 71424, Note_on_c, 9, 54, 31
1, 71424, Note_on_c, 9, 69, 36
1, 71428, Note_off_c, 9, 69, 36
1, 71428, Note_off_c, 9, 54, 31
1, 71428, Note_off_c, 9, 42, 85
1, 71428, Note_off_c, 9, 36, 122
1, 71520, Note_on_c, 9, 54, 43
1, 71524, Note_off_c, 9, 54, 43
1, 71604, Note_off_c, 1, 31, 118
1, 71608, Note_off_c, 7, 71, 108
1, 71608, Note_off_c, 7, 67, 115
1, 71608, Note_off_c, 7, 62, 104
1, 71608, Note_off_c, 8, 55, 124
1, 71616, Note_on_c, 9, 42, 75
1, 71616, Note_on_c, 9, 54, 39
1, 71616, Note_on_c, 9, 69, 41
1, 71620, Note_off_c, 9, 69, 41
1, 71620, Note_off_c, 9, 54, 39
1, 71620, Note_off_c, 9, 42, 75
1, 71712, Note_on_c, 9, 54, 30
1, 71712, Note_on_c, 9, 69, 44
1, 71716, Note_off_c, 9, 69, 44
1, 71716, Note_off_c, 9, 54, 30
1, 71808, Note_on_c, 8, 55, 127
1, 71808, Note_on_c, 7, 62, 122
1, 71808, Note_on_c, 7, 67, 121
1, 71808, Note_on_c, 7, 71, 118
1, 71808, Note_on_c, 9, 39, 100
1, 71808, Note_on_c, 1, 31, 114
1, 71808, Note_on_c, 9, 36, 118
1, 71808, Note_on_c, 9, 38, 118
1, 71808, Note_on_c, 9, 42, 91
1, 71808, Note_on_c, 9, 54, 38
1, 71808, Note_on_c, 9, 69, 32
1, 71812, Note_off_c, 9, 69, 32
1, 71812, Note_off_c, 9, 54, 38
1, 71812, Note_off_c, 9, 42, 91
1, 71812, Note_off_c, 9, 38, 118
1, 71812, Note_off_c, 9, 36, 118
1, 71812, Note_off_c, 9, 39, 100
1, 71888, Note_off_c, 15, 55, 110
1, 71904, Note_on_c, 9, 54, 44
1, 71908, Note_off_c, 9, 54, 44
1, 71992, Note_off_c, 7, 71, 118
1, 71992, Note_off_c, 7, 67, 121
1, 71992, Note_off_c, 7, 62, 122
1, 71992, Note_off_c, 8, 55, 127
1, 72000, Note_on_c, 9, 46, 106
1, 72000, Note_on_c, 9, 54, 45
1, 72000, Note_on_c, 9, 69, 49
1, 72004, Note_off_c, 9, 69, 49
1, 72004, Note_off_c, 9, 54, 45
1, 72004, Note_off_c, 9, 46, 106
1, 72084, Note_off_c, 1, 31, 114
1, 72096, Note_on_c, 9, 54, 31
1, 72096, Note_on_c, 9, 69, 39
1, 72100, Note_off_c, 9, 69, 39
1, 72100, Note_off_c, 9, 54, 31
1, 72192, Note_on_c, 8, 57, 127
1, 72192, Note_on_c, 8, 60, 126
1, 72192, Note_on_c, 7, 64, 115
1, 72192, Note_on_c, 4, 52, 84
1, 72192, Note_on_c, 4, 57, 85
1, 72192, Note_on_c, 4, 60, 84
1, 72192, Note_on_c, 1, 33, 108
1, 72192, Note_on_c, 9, 36, 124
1, 72192, Note_on_c, 9, 42, 91
1, 72192, Note_on_c, 9, 49, 122
1, 72192, Note_on_c, 9, 54, 34
1, 72192, Note_on_c, 9, 69, 39
1, 72196, Note_off_c, 9, 69, 39
1, 72196, Note_off_c, 9, 54, 34
1, 72196, Note_off_c, 9, 49, 122
1, 72196, Note_off_c, 9, 42, 91
1, 72196, Note_off_c, 9, 36, 124
1, 72288, Note_on_c, 9, 54, 44
1, 72292, Note_off_c, 9, 54, 44
1, 72384, Note_on_c, 9, 42, 90
1, 72384, Note_on_c, 9, 54, 33
1, 72384, Note_on_c, 9, 69, 45
1, 72388, Note_off_c, 9, 69, 45
1, 72388, Note_off_c, 9, 54, 33
1, 72388, Note_off_c, 9, 42, 90
1, 72480, Note_on_c, 9, 54, 46
1, 72480, Note_on_c, 9, 69, 43
1, 72484, Note_off_c, 9, 69, 43
1, 72484, Note_off_c, 9, 54, 46
1, 72576, Note_on_c, 2, 60, 84
1, 72576, Note_on_c, 9, 39, 103
1, 72576, Note_on_c, 9, 36, 109
1, 72576, Note_on_c, 9, 38, 106
1, 72576, Note_on_c, 9, 42, 84
1, 72576, Note_on_c, 9, 54, 38
1, 72576, Note_on_c, 9, 69, 38
1, 72580, Note_off_c, 9, 69, 38
1, 72580, Note_off_c, 9, 54, 38
1, 72580, Note_off_c, 9, 42, 84
1, 72580, Note_off_c, 9, 38, 106
1, 72580, Note_off_c, 9, 36, 109
1, 72580, Note_off_c, 9, 39, 103
1, 72660, Note_off_c, 1, 33, 108
1, 72672, Note_on_c, 9, 54, 35
1, 72676, Note_off_c, 9, 54, 35
1, 72760, Note_off_c, 2, 60, 84
1, 72768, Note_on_c, 14, 69, 119
1, 72768, Note_on_c, 14, 72, 123
1, 72768, Note_on_c, 15, 69, 115
1, 72768, Note_on_c, 2, 64, 84
1, 72768, Note_on_c, 1, 33, 108
1, 72768, Note_on_c, 9, 42, 89
1, 72768, Note_on_c, 9, 54, 42
1, 72768, Note_on_c, 9, 69, 37
1, 72772, Note_off_c, 9, 69, 37
1, 72772, Note_off_c, 9, 54, 42
1, 72772, Note_off_c, 9, 42, 89
1, 72848, Note_off_c, 14, 72, 123
1, 72848, Note_off_c, 14, 69, 119
1, 72852, Note_off_c, 1, 33, 108
1, 72864, Note_on_c, 1, 33, 108
1, 72864, Note_on_c, 9, 54, 31
1, 72864, Note_on_c, 9, 69, 41
1, 72868, Note_off_c, 9, 69, 41
1, 72868, Note_off_c, 9, 54, 31
1, 72944, Note_off_c, 15, 69, 115
1, 72948, Note_off_c, 1, 33, 108
1, 72960, Note_on_c, 14, 69, 110
1, 72960, Note_on_c, 14, 72, 117
1, 72960, Note_on_c, 15, 69, 112
1, 72960, Note_on_c, 1, 33, 118
1, 72960, Note_on_c, 9, 36, 111
1, 72960, Note_on_c, 9, 42, 84
1, 72960, Note_on_c, 9, 54, 41
1, 72960, Note_on_c, 9, 69, 42
1, 72964, Note_off_c, 9, 69, 42
1, 72964, Note_off_c, 9, 54, 41
1, 72964, Note_off_c, 9, 42, 84
1, 72964, Note_off_c, 9, 36, 111
1, 73040, Note_off_c, 14, 72, 117
1, 73040, Note_off_c, 14, 69, 110
1, 73056, Note_on_c, 14, 69, 110
1, 73056, Note_on_c, 14, 72, 127
1, 73056, Note_on_c, 9, 54, 30
1, 73060, Note_off_c, 9, 54, 30
1, 73128, Note_off_c, 2, 64, 84
1, 73136, Note_off_c, 14, 72, 127
1, 73136, Note_off_c, 14, 69, 110
1, 73136, Note_off_c, 15, 69, 112
1, 73152, Note_on_c, 14, 69, 123
1, 73152, Note_on_c, 14, 72, 127
1, 73152, Note_on_c, 15, 69, 120
1, 73152, Note_on_c, 2, 62, 94
1, 73152, Note_on_c, 9, 42, 83
1, 73152, Note_on_c, 9, 54, 45
1, 73152, Note_on_c, 9, 69, 42
1, 73156, Note_off_c, 9, 69, 42
1, 73156, Note_off_c, 9, 54, 45
1, 73156, Note_off_c, 9, 42, 83
1, 73248, Note_on_c, 9, 54, 32
1, 73248, Note_on_c, 9, 69, 30
1, 73252, Note_off_c, 9, 69, 30
1, 73252, Note_off_c, 9, 54, 32
1, 73268, Note_off_c, 4, 52, 84
1, 73276, Note_off_c, 4, 60, 84
1, 73276, Note_off_c, 4, 57, 85
1, 73336, Note_off_c, 2, 62, 94
1, 73336, Note_off_c, 8, 60, 126
1, 73336, Note_off_c, 8, 57, 127
1, 73340, Note_off_c, 7, 64, 115
1, 73344, Note_on_c, 8, 59, 127
1, 73344, Note_on_c, 7, 62, 109
1, 73344, Note_on_c, 4, 52, 84
1, 73344, Note_on_c, 4, 57, 90
1, 73344, Note_on_c, 4, 60, 88
1, 73344, Note_on_c, 2, 60, 87
1, 73344, Note_on_c, 9, 39, 90
1, 73344, Note_on_c, 9, 36, 118
1, 73344, Note_on_c, 9, 38, 124
1, 73344, Note_on_c, 9, 42, 82
1, 73344, Note_on_c, 9, 54, 36
1, 73344, Note_on_c, 9, 69, 42
1, 73348, Note_off_c, 9, 69, 42
1, 73348, Note_off_c, 9, 54, 36
1, 73348, Note_off_c, 9, 42, 82
1, 73348, Note_off_c, 9, 38, 124
1, 73348, Note_off_c, 9, 36, 118
1, 73348, Note_off_c, 9, 39, 90
1, 73440, Note_on_c, 9, 54, 43
1, 73444, Note_off_c, 9, 54, 43
1, 73520, Note_off_c, 15, 69, 120
1, 73520, Note_off_c, 14, 72, 127
1, 73520, Note_off_c, 14, 69, 123
1, 73524, Note_off_c, 1, 33, 118
1, 73528, Note_off_c, 2, 60, 87
1, 73536, Note_on_c, 14, 67, 126
1, 73536, Note_on_c, 14, 72, 111
1, 73536, Note_on_c, 15, 67, 125
1, 73536, Note_on_c, 2, 60, 92
1, 73536, Note_on_c, 1, 35, 115
1, 73536, Note_on_c, 9, 42, 82
1, 73536, Note_on_c, 9, 54, 36
1, 73536, Note_on_c, 9, 69, 32
1, 73540, Note_off_c, 9, 69, 32
1, 73540, Note_off_c, 9, 54, 36
1, 73540, Note_off_c, 9, 42, 82
1, 73616, Note_off_c, 15, 67, 125
1, 73620, Note_off_c, 1, 35, 115
1, 73632, Note_on_c, 9, 54, 33
1, 73632, Note_on_c, 9, 69, 43
1, 73636, Note_off_c, 9, 69, 43
1, 73636, Note_off_c, 9, 54, 33
1, 73648, Note_off_c, 4, 52, 84
1, 73672, Note_off_c, 4, 57, 90
1, 73680, Note_off_c, 4, 60, 88
1, 73712, Note_off_c, 14, 72, 111
1, 73712, Note_off_c, 14, 67, 126
1, 73720, Note_off_c, 2, 60, 92
1, 73720, Note_off_c, 8, 59, 127
1, 73728, Note_on_c, 14, 67, 122
1, 73728, Note_on_c, 14, 72, 127
1, 73728, Note_on_c, 15, 67, 110
1, 73728, Note_on_c, 8, 55, 121
1, 73728, Note_on_c, 8, 60, 126
1, 73728, Note_on_c, 7, 64, 114
1, 73728, Note_on_c, 4, 52, 92
1, 73728, Note_on_c, 4, 55, 86
1, 73728, Note_on_c, 4, 60, 89
1, 73728, Note_on_c, 2, 64, 86
1, 73728, Note_on_c, 1, 36, 112
1, 73728, Note_on_c, 9, 36, 124
1, 73728, Note_on_c, 9, 42, 82
1, 73728, Note_on_c, 9, 54, 36
1, 73728, Note_on_c, 9, 69, 32
1, 73732, Note_off_c, 9, 69, 32
1, 73732, Note_off_c, 9, 54, 36
1, 73732, Note_off_c, 9, 42, 82
1, 73732, Note_off_c, 9, 36, 124
1, 73744, Note_off_c, 7, 62, 109
1, 73808, Note_off_c, 14, 72, 127
1, 73808, Note_off_c, 14, 67, 122
1, 73824, Note_on_c, 9, 54, 31
1, 73828, Note_off_c, 9, 54, 31
1, 73904, Note_off_c, 15, 67, 110
1, 73912, Note_off_c, 2, 64, 86
1, 73920, Note_on_c, 14, 67, 116
1, 73920, Note_on_c, 14, 72, 119
1, 73920, Note_on_c, 15, 67, 116
1, 73920, Note_on_c, 2, 60, 92
1, 73920, Note_on_c, 9, 42, 94
1, 73920, Note_on_c, 9, 54, 42
1, 73920, Note_on_c, 9, 69, 48
1, 73924, Note_off_c, 9, 69, 48
1, 73924, Note_off_c, 9, 54, 42
1, 73924, Note_off_c, 9, 42, 94
1, 74016, Note_on_c, 9, 54, 32
1, 74016, Note_on_c, 9, 69, 43
1, 74020, Note_off_c, 9, 69, 43
1, 74020, Note_off_c, 9, 54, 32
1, 74112, Note_on_c, 9, 39, 101
1, 74112, Note_on_c, 9, 36, 115
1, 74112, Note_on_c, 9, 38, 114
1, 74112, Note_on_c, 9, 42, 85
1, 74112, Note_on_c, 9, 54, 42
1, 74112, Note_on_c, 9, 69, 44
1, 74116, Note_off_c, 9, 69, 44
1, 74116, Note_off_c, 9, 54, 42
1, 74116, Note_off_c, 9, 42, 85
1, 74116, Note_off_c, 9, 38, 114
1, 74116, Note_off_c, 9, 36, 115
1, 74116, Note_off_c, 9, 39, 101
1, 74192, Note_off_c, 14, 72, 119
1, 74192, Note_off_c, 14, 67, 116
1, 74196, Note_off_c, 1, 36, 112
1, 74208, Note_on_c, 9, 54, 40
1, 74212, Note_off_c, 9, 54, 40
1, 74280, Note_off_c, 2, 60, 92
1, 74288, Note_off_c, 15, 67, 116
1, 74304, Note_on_c, 14, 69, 127
1, 74304, Note_on_c, 14, 72, 120
1, 74304, Note_on_c, 15, 69, 117
1, 74304, Note_on_c, 2, 55, 95
1, 74304, Note_on_c, 1, 36, 118
1, 74304, Note_on_c, 9, 42, 84
1, 74304, Note_on_c, 9, 54, 48
1, 74304, Note_on_c, 9, 69, 36
1, 74308, Note_off_c, 9, 69, 36
1, 74308, Note_off_c, 9, 54, 48
1, 74308, Note_off_c, 9, 42, 84
1, 74388, Note_off_c, 1, 36, 118
1, 74400, Note_on_c, 9, 54, 49
1, 74400, Note_on_c, 9, 69, 48
1, 74404, Note_off_c, 9, 69, 48
1, 74404, Note_off_c, 9, 54, 49
1, 74488, Note_off_c, 2, 55, 95
1, 74496, Note_on_c, 2, 60, 80
1, 74496, Note_on_c, 1, 36, 112
1, 74496, Note_on_c, 9, 36, 122
1, 74496, Note_on_c, 9, 42, 93
1, 74496, Note_on_c, 9, 54, 32
1, 74496, Note_on_c, 9, 69, 49
1, 74500, Note_off_c, 9, 69, 49
1, 74500, Note_off_c, 9, 54, 32
1, 74500, Note_off_c, 9, 42, 93
1, 74500, Note_off_c, 9, 36, 122
1, 74576, Note_off_c, 15, 69, 117
1, 74576, Note_off_c, 14, 72, 120
1, 74576, Note_off_c, 14, 69, 127
1, 74592, Note_on_c, 15, 67, 125
1, 74592, Note_on_c, 9, 54, 35
1, 74596, Note_off_c, 9, 54, 35
1, 74672, Note_off_c, 15, 67, 125
1, 74680, Note_off_c, 2, 60, 80
1, 74688, Note_on_c, 14, 67, 111
1, 74688, Note_on_c, 14, 72, 120
1, 74688, Note_on_c, 15, 64, 117
1, 74688, Note_on_c, 2, 60, 87
1, 74688, Note_on_c, 2, 67, 83
1, 74688, Note_on_c, 9, 42, 91
1, 74688, Note_on_c, 9, 54, 32
1, 74688, Note_on_c, 9, 69, 39
1, 74692, Note_off_c, 9, 69, 39
1, 74692, Note_off_c, 9, 54, 32
1, 74692, Note_off_c, 9, 42, 91
1, 74768, Note_off_c, 14, 72, 120
1, 74768, Note_off_c, 14, 67, 111
1, 74776, Note_off_c, 2, 67, 83
1, 74784, Note_on_c, 14, 67, 110
1, 74784, Note_on_c, 14, 72, 122
1, 74784, Note_on_c, 9, 54, 47
1, 74784, Note_on_c, 9, 69, 47
1, 74788, Note_off_c, 9, 69, 47
1, 74788, Note_off_c, 9, 54, 47
1, 74796, Note_off_c, 4, 52, 92
1, 74808, Note_off_c, 4, 55, 86
1, 74812, Note_off_c, 4, 60, 89
1, 74864, Note_off_c, 14, 72, 122
1, 74864, Note_off_c, 14, 67, 110
1, 74868, Note_off_c, 1, 36, 112
1, 74872, Note_off_c, 8, 60, 126
1, 74872, Note_off_c, 8, 55, 121
1, 74880, Note_off_c, 7, 64, 114
1, 74880, Note_on_c, 14, 64, 115
1, 74880, Note_on_c, 14, 67, 120
1, 74880, Note_on_c, 8, 64, 119
1, 74880, Note_on_c, 7, 67, 122
1, 74880, Note_on_c, 4, 52, 84
1, 74880, Note_on_c, 4, 55, 101
1, 74880, Note_on_c, 4, 60, 87
1, 74880, Note_on_c, 2, 67, 84
1, 74880, Note_on_c, 9, 39, 99
1, 74880, Note_on_c, 1, 40, 110
1, 74880, Note_on_c, 9, 36, 112
1, 74880, Note_on_c, 9, 38, 113
1, 74880, Note_on_c, 9, 42, 89
1, 74880, Note_on_c, 9, 54, 36
1, 74880, Note_on_c, 9, 69, 39
1, 74884, Note_off_c, 9, 69, 39
1, 74884, Note_off_c, 9, 54, 36
1, 74884, Note_off_c, 9, 42, 89
1, 74884, Note_off_c, 9, 38, 113
1, 74884, Note_off_c, 9, 36, 112
1, 74884, Note_off_c, 9, 39, 99
1, 74960, Note_off_c, 15, 64, 117
1, 74968, Note_off_c, 2, 67, 84
1, 74976, Note_on_c, 9, 54, 48
1, 74980, Note_off_c, 9, 54, 48
1, 75072, Note_on_c, 2, 67, 84
1, 75072, Note_on_c, 9, 42, 86
1, 75072, Note_on_c, 9, 54, 49
1, 75072, Note_on_c, 9, 69, 47
1, 75076, Note_off_c, 9, 69, 47
1, 75076, Note_off_c, 9, 54, 49
1, 75076, Note_off_c, 9, 42, 86
1, 75160, Note_off_c, 2, 67, 84
1, 75168, Note_off_c, 4, 55, 101
1, 75168, Note_on_c, 9, 54, 47
1, 75168, Note_on_c, 9, 69, 39
1, 75172, Note_off_c, 9, 69, 39
1, 75172, Note_off_c, 9, 54, 47
1, 75188, Note_off_c, 4, 60, 87
1, 75196, Note_off_c, 4, 52, 84
1, 75240, Note_off_c, 2, 60, 87
1, 75248, Note_off_c, 14, 67, 120
1, 75248, Note_off_c, 14, 64, 115
1, 75252, Note_off_c, 1, 40, 110
1, 75256, Note_off_c, 7, 67, 122
1, 75256, Note_off_c, 8, 64, 119
1, 75264, Note_on_c, 8, 60, 116
1, 75264, Note_on_c, 7, 69, 116
1, 75264, Note_on_c, 4, 53, 102
1, 75264, Note_on_c, 4, 57, 96
1, 75264, Note_on_c, 4, 60, 100
1, 75264, Note_on_c, 2, 65, 93
1, 75264, Note_on_c, 2, 69, 79
1, 75264, Note_on_c, 1, 41, 115
1, 75264, Note_on_c, 9, 36, 123
1, 75264, Note_on_c, 9, 42, 94
1, 75264, Note_on_c, 9, 54, 42
1, 75264, Note_on_c, 9, 69, 39
1, 75268, Note_off_c, 9, 69, 39
1, 75268, Note_off_c, 9, 54, 42
1, 75268, Note_off_c, 9, 42, 94
1, 75268, Note_off_c, 9, 36, 123
1, 75360, Note_on_c, 9, 54, 37
1, 75364, Note_off_c, 9, 54, 37
1, 75456, Note_on_c, 9, 42, 85
1, 75456, Note_on_c, 9, 54, 36
1, 75456, Note_on_c, 9, 69, 36
1, 75460, Note_off_c, 9, 69, 36
1, 75460, Note_off_c, 9, 54, 36
1, 75460, Note_off_c, 9, 42, 85
1, 75552, Note_on_c, 15, 60, 114
1, 75552, Note_on_c, 9, 54, 45
1, 75552, Note_on_c, 9, 69, 39
1, 75556, Note_off_c, 9, 69, 39
1, 75556, Note_off_c, 9, 54, 45
1, 75632, Note_off_c, 15, 60, 114
1, 75648, Note_on_c, 15, 67, 112
1, 75648, Note_on_c, 9, 39, 103
1, 75648, Note_on_c, 9, 36, 106
1, 75648, Note_on_c, 9, 38, 111
1, 75648, Note_on_c, 9, 42, 89
1, 75648, Note_on_c, 9, 54, 38
1, 75648, Note_on_c, 9, 69, 39
1, 75652, Note_off_c, 9, 69, 39
1, 75652, Note_off_c, 9, 54, 38
1, 75652, Note_off_c, 9, 42, 89
1, 75652, Note_off_c, 9, 38, 111
1, 75652, Note_off_c, 9, 36, 106
1, 75652, Note_off_c, 9, 39, 103
1, 75732, Note_off_c, 1, 41, 115
1, 75744, Note_on_c, 9, 54, 32
1, 75748, Note_off_c, 9, 54, 32
1, 75840, Note_on_c, 1, 41, 109
1, 75840, Note_on_c, 9, 42, 94
1, 75840, Note_on_c, 9, 54, 37
1, 75840, Note_on_c, 9, 69, 31
1, 75844, Note_off_c, 9, 69, 31
1, 75844, Note_off_c, 9, 54, 37
1, 75844, Note_off_c, 9, 42, 94
1, 75920, Note_off_c, 15, 67, 112
1, 75924, Note_off_c, 1, 41, 109
1, 75936, Note_on_c, 15, 64, 112
1, 75936, Note_on_c, 9, 54, 42
1, 75936, Note_on_c, 9, 69, 36
1, 75940, Note_off_c, 9, 69, 36
1, 75940, Note_off_c, 9, 54, 42
1, 76032, Note_on_c, 1, 41, 115
1, 76032, Note_on_c, 9, 36, 118
1, 76032, Note_on_c, 9, 42, 80
1, 76032, Note_on_c, 9, 54, 39
1, 76032, Note_on_c, 9, 69, 31
1, 76036, Note_off_c, 9, 69, 31
1, 76036, Note_off_c, 9, 54, 39
1, 76036, Note_off_c, 9, 42, 80
1, 76036, Note_off_c, 9, 36, 118
1, 76128, Note_on_c, 9, 54, 35
1, 76132, Note_off_c, 9, 54, 35
1, 76200, Note_off_c, 2, 69, 79
1, 76200, Note_off_c, 2, 65, 93
1, 76208, Note_off_c, 15, 64, 112
1, 76224, Note_on_c, 15, 62, 125
1, 76224, Note_on_c, 2, 72, 95
1, 76224, Note_on_c, 9, 42, 90
1, 76224, Note_on_c, 9, 54, 36
1, 76224, Note_on_c, 9, 69, 44
1, 76228, Note_off_c, 9, 69, 44
1, 76228, Note_off_c, 9, 54, 36
1, 76228, Note_off_c, 9, 42, 90
1, 76304, Note_off_c, 15, 62, 125
1, 76320, Note_on_c, 9, 54, 43
1, 76320, Note_on_c, 9, 69, 43
1, 76324, Note_off_c, 9, 69, 43
1, 76324, Note_off_c, 9, 54, 43
1, 76408, Note_off_c, 2, 72, 95
1, 76408, Note_off_c, 8, 60, 116
1, 76416, Note_on_c, 15, 62, 127
1, 76416, Note_on_c, 8, 59, 119
1, 76416, Note_on_c, 7, 67, 122
1, 76416, Note_on_c, 2, 67, 84
1, 76416, Note_on_c, 9, 39, 104
1, 76416, Note_on_c, 9, 36, 115
1, 76416, Note_on_c, 9, 38, 107
1, 76416, Note_on_c, 9, 42, 77
1, 76416, Note_on_c, 9, 54, 30
1, 76416, Note_on_c, 9, 69, 38
1, 76420, Note_off_c, 9, 69, 38
1, 76420, Note_off_c, 9, 54, 30
1, 76420, Note_off_c, 9, 42, 77
1, 76420, Note_off_c, 9, 38, 107
1, 76420, Note_off_c, 9, 36, 115
1, 76420, Note_off_c, 9, 39, 104
1, 76420, Note_off_c, 7, 69, 116
1, 76512, Note_on_c, 9, 54, 30
1, 76516, Note_off_c, 9, 54, 30
1, 76592, Note_off_c, 15, 62, 127
1, 76600, Note_off_c, 2, 67, 84
1, 76600, Note_off_c, 8, 59, 119
1, 76604, Note_off_c, 7, 67, 122
1, 76608, Note_on_c, 15, 64, 124
1, 76608, Note_on_c, 8, 57, 120
1, 76608, Note_on_c, 7, 65, 113
1, 76608, Note_on_c, 2, 65, 96
1, 76608, Note_on_c, 9, 42, 94
1, 76608, Note_on_c, 9, 54, 32
1, 76608, Note_on_c, 9, 69, 46
1, 76612, Note_off_c, 9, 69, 46
1, 76612, Note_off_c, 9, 54, 32
1, 76612, Note_off_c, 9, 42, 94
1, 76688, Note_off_c, 15, 64, 124
1, 76704, Note_on_c, 15, 62, 112
1, 76704, Note_on_c, 9, 54, 40
1, 76704, Note_on_c, 9, 69, 45
1, 76708, Note_off_c, 9, 69, 45
1, 76708, Note_off_c, 9, 54, 40
1, 76708, Note_off_c, 4, 53, 102
1, 76716, Note_off_c, 4, 57, 96
1, 76728, Note_off_c, 4, 60, 100
1, 76784, Note_off_c, 15, 62, 112
1, 76788, Note_off_c, 1, 41, 115
1, 76792, Note_off_c, 2, 65, 96
1, 76792, Note_off_c, 8, 57, 120
1, 76800, Note_on_c, 15, 60, 116
1, 76800, Note_on_c, 8, 60, 127
1, 76800, Note_on_c, 7, 67, 110
1, 76800, Note_on_c, 4, 52, 92
1, 76800, Note_on_c, 4, 55, 101
1, 76800, Note_on_c, 4, 60, 90
1, 76800, Note_on_c, 2, 67, 78
1, 76800, Note_on_c, 1, 36, 118
1, 76800, Note_on_c, 9, 36, 117
1, 76800, Note_on_c, 9, 42, 84
1, 76800, Note_on_c, 9, 54, 34
1, 76800, Note_on_c, 9, 69, 46
1, 76804, Note_off_c, 9, 69, 46
1, 76804, Note_off_c, 9, 54, 34
1, 76804, Note_off_c, 9, 42, 84
1, 76804, Note_off_c, 9, 36, 117
1, 76804, Note_off_c, 7, 65, 113
1, 76896, Note_on_c, 9, 54, 41
1, 76900, Note_off_c, 9, 54, 41
1, 76984, Note_off_c, 2, 67, 78
1, 76992, Note_on_c, 2, 60, 97
1, 76992, Note_on_c, 9, 42, 87
1, 76992, Note_on_c, 9, 54, 46
1, 76992, Note_on_c, 9, 69, 44
1, 76996, Note_off_c, 9, 69, 44
1, 76996, Note_off_c, 9, 54, 46
1, 76996, Note_off_c, 9, 42, 87
1, 77088, Note_on_c, 9, 54, 43
1, 77088, Note_on_c, 9, 69, 41
1, 77092, Note_off_c, 9, 69, 41
1, 77092, Note_off_c, 9, 54, 43
1, 77168, Note_off_c, 15, 60, 116
1, 77176, Note_off_c, 2, 60, 97
1, 77184, Note_on_c, 15, 62, 117
1, 77184, Note_on_c, 2, 62, 85
1, 77184, Note_on_c, 9, 39, 94
1, 77184, Note_on_c, 9, 36, 124
1, 77184, Note_on_c, 9, 38, 108
1, 77184, Note_on_c, 9, 42, 80
1, 77184, Note_on_c, 9, 54, 41
1, 77184, Note_on_c, 9, 69, 36
1, 77188, Note_off_c, 9, 69, 36
1, 77188, Note_off_c, 9, 54, 41
1, 77188, Note_off_c, 9, 42, 80
1, 77188, Note_off_c, 9, 38, 108
1, 77188, Note_off_c, 9, 36, 124
1, 77188, Note_off_c, 9, 39, 94
1, 77268, Note_off_c, 1, 36, 118
1, 77280, Note_on_c, 9, 54, 43
1, 77284, Note_off_c, 9, 54, 43
1, 77368, Note_off_c, 2, 62, 85
1, 77376, Note_on_c, 2, 48, 86
1, 77376, Note_on_c, 2, 55, 78
1, 77376, Note_on_c, 2, 60, 90
1, 77376, Note_on_c, 2, 64, 85
1, 77376, Note_on_c, 1, 36, 114
1, 77376, Note_on_c, 9, 42, 76
1, 77376, Note_on_c, 9, 54, 40
1, 77376, Note_on_c, 9, 69, 36
1, 77380, Note_off_c, 9, 69, 36
1, 77380, Note_off_c, 9, 54, 40
1, 77380, Note_off_c, 9, 42, 76
1, 77460, Note_off_c, 1, 36, 114
1, 77464, Note_off_c, 8, 60, 127
1, 77472, Note_on_c, 9, 54, 49
1, 77472, Note_on_c, 9, 69, 43
1, 77476, Note_off_c, 9, 69, 43
1, 77476, Note_off_c, 9, 54, 49
1, 77484, Note_off_c, 7, 67, 110
1, 77552, Note_off_c, 15, 62, 117
1, 77568, Note_on_c, 14, 64, 114
1, 77568, Note_on_c, 14, 72, 113
1, 77568, Note_on_c, 8, 60, 117
1, 77568, Note_on_c, 7, 72, 118
1, 77568, Note_on_c, 1, 36, 119
1, 77568, Note_on_c, 9, 36, 122
1, 77568, Note_on_c, 9, 42, 77
1, 77568, Note_on_c, 9, 49, 115
1, 77568, Note_on_c, 9, 54, 43
1, 77568, Note_on_c, 9, 69, 40
1, 77572, Note_off_c, 9, 69, 40
1, 77572, Note_off_c, 9, 54, 43
1, 77572, Note_off_c, 9, 49, 115
1, 77572, Note_off_c, 9, 42, 77
1, 77572, Note_off_c, 9, 36, 122
1, 77664, Note_on_c, 9, 54, 31
1, 77668, Note_off_c, 9, 54, 31
1, 77760, Note_on_c, 9, 42, 77
1, 77760, Note_on_c, 9, 54, 48
1, 77760, Note_on_c, 9, 69, 43
1, 77764, Note_off_c, 9, 69, 43
1, 77764, Note_off_c, 9, 54, 48
1, 77764, Note_off_c, 9, 42, 77
1, 77848, Note_off_c, 8, 60, 117
1, 77856, Note_on_c, 9, 54, 33
1, 77856, Note_on_c, 9, 69, 38
1, 77860, Note_off_c, 9, 69, 38
1, 77860, Note_off_c, 9, 54, 33
1, 77892, Note_off_c, 7, 72, 118
1, 77928, Note_off_c, 2, 64, 85
1, 77928, Note_off_c, 2, 60, 90
1, 77928, Note_off_c, 2, 55, 78
1, 77928, Note_off_c, 2, 48, 86
1, 77936, Note_off_c, 14, 72, 113
1, 77936, Note_off_c, 14, 64, 114
1, 77940, Note_off_c, 1, 36, 119
1, 77952, Note_on_c, 14, 62, 117
1, 77952, Note_on_c, 14, 71, 120
1, 77952, Note_on_c, 8, 59, 115
1, 77952, Note_on_c, 7, 71, 119
1, 77952, Note_on_c, 2, 47, 93
1, 77952, Note_on_c, 2, 55, 78
1, 77952, Note_on_c, 2, 59, 96
1, 77952, Note_on_c, 2, 62, 86
1, 77952, Note_on_c, 9, 39, 87
1, 77952, Note_on_c, 1, 35, 111
1, 77952, Note_on_c, 9, 36, 113
1, 77952, Note_on_c, 9, 38, 115
1, 77952, Note_on_c, 9, 42, 86
1, 77952, Note_on_c, 9, 57, 106
1, 77952, Note_on_c, 9, 54, 43
1, 77952, Note_on_c, 9, 69, 33
1, 77956, Note_off_c, 9, 69, 33
1, 77956, Note_off_c, 9, 54, 43
1, 77956, Note_off_c, 9, 57, 106
1, 77956, Note_off_c, 9, 42, 86
1, 77956, Note_off_c, 9, 38, 115
1, 77956, Note_off_c, 9, 36, 113
1, 77956, Note_off_c, 9, 39, 87
1, 78048, Note_on_c, 9, 54, 39
1, 78052, Note_off_c, 9, 54, 39
1, 78144, Note_on_c, 9, 42, 79
1, 78144, Note_on_c, 9, 54, 48
1, 78144, Note_on_c, 9, 69, 31
1, 78148, Note_off_c, 9, 69, 31
1, 78148, Note_off_c, 9, 54, 48
1, 78148, Note_off_c, 9, 42, 79
1, 78188, Note_off_c, 4, 52, 92
1, 78204, Note_off_c, 4, 55, 101
1, 78212, Note_off_c, 4, 60, 90
1, 78232, Note_off_c, 8, 59, 115
1, 78240, Note_on_c, 9, 54, 43
1, 78240, Note_on_c, 9, 69, 40
1, 78244, Note_off_c, 9, 69, 40
1, 78244, Note_off_c, 9, 54, 43
1, 78256, Note_off_c, 7, 71, 119
1, 78312, Note_off_c, 2, 62, 86
1, 78312, Note_off_c, 2, 59, 96
1, 78312, Note_off_c, 2, 55, 78
1, 78312, Note_off_c, 2, 47, 93
1, 78320, Note_off_c, 14, 71, 120
1, 78320, Note_off_c, 14, 62, 117
1, 78324, Note_off_c, 1, 35, 111
1, 78336, Note_on_c, 14, 60, 118
1, 78336, Note_on_c, 14, 69, 127
1, 78336, Note_on_c, 8, 57, 116
1, 78336, Note_on_c, 7, 69, 113
1, 78336, Note_on_c, 4, 52, 89
1, 78336, Note_on_c, 4, 57, 84
1, 78336, Note_on_c, 4, 60, 94
1, 78336, Note_on_c, 2, 64, 88
1, 78336, Note_on_c, 1, 33, 108
1, 78336, Note_on_c, 9, 36, 117
1, 78336, Note_on_c, 9, 42, 84
1, 78336, Note_on_c, 9, 49, 113
1, 78336, Note_on_c, 9, 54, 47
1, 78336, Note_on_c, 9, 69, 39
1, 78340, Note_off_c, 9, 69, 39
1, 78340, Note_off_c, 9, 54, 47
1, 78340, Note_off_c, 9, 49, 113
1, 78340, Note_off_c, 9, 42, 84
1, 78340, Note_off_c, 9, 36, 117
1, 78432, Note_on_c, 9, 54, 40
1, 78436, Note_off_c, 9, 54, 40
1, 78520, Note_off_c, 2, 64, 88
1, 78528, Note_on_c, 2, 57, 81
1, 78528, Note_on_c, 9, 42, 86
1, 78528, Note_on_c, 9, 54, 41
1, 78528, Note_on_c, 9, 69, 35
1, 78532, Note_off_c, 9, 69, 35
1, 78532, Note_off_c, 9, 54, 41
1, 78532, Note_off_c, 9, 42, 86
1, 78624, Note_on_c, 9, 54, 49
1, 78624, Note_on_c, 9, 69, 31
1, 78628, Note_off_c, 9, 69, 31
1, 78628, Note_off_c, 9, 54, 49
1, 78712, Note_off_c, 2, 57, 81
1, 78720, Note_on_c, 2, 60, 95
1, 78720, Note_on_c, 9, 39, 86
1, 78720, Note_on_c, 9, 36, 110
1, 78720, Note_on_c, 9, 38, 115
1, 78720, Note_on_c, 9, 42, 88
1, 78720, Note_on_c, 9, 54, 35
1, 78720, Note_on_c, 9, 69, 43
1, 78724, Note_off_c, 9, 69, 43
1, 78724, Note_off_c, 9, 54, 35
1, 78724, Note_off_c, 9, 42, 88
1, 78724, Note_off_c, 9, 38, 115
1, 78724, Note_off_c, 9, 36, 110
1, 78724, Note_off_c, 9, 39, 86
1, 78804, Note_off_c, 1, 33, 108
1, 78816, Note_on_c, 9, 54, 30
1, 78820, Note_off_c, 9, 54, 30
1, 78904, Note_off_c, 2, 60, 95
1, 78912, Note_on_c, 15, 60, 127
1, 78912, Note_on_c, 2, 64, 92
1, 78912, Note_on_c, 1, 33, 105
1, 78912, Note_on_c, 9, 42, 75
1, 78912, Note_on_c, 9, 54, 41
1, 78912, Note_on_c, 9, 69, 39
1, 78916, Note_off_c, 9, 69, 39
1, 78916, Note_off_c, 9, 54, 41
1, 78916, Note_off_c, 9, 42, 75
1, 78996, Note_off_c, 1, 33, 105
1, 79008, Note_on_c, 9, 54, 48
1, 79008, Note_on_c, 9, 69, 40
1, 79012, Note_off_c, 9, 69, 40
1, 79012, Note_off_c, 9, 54, 48
1, 79088, Note_off_c, 15, 60, 127
1, 79096, Note_off_c, 2, 64, 92
1, 79104, Note_on_c, 15, 69, 117
1, 79104, Note_on_c, 2, 69, 95
1, 79104, Note_on_c, 1, 33, 117
1, 79104, Note_on_c, 9, 36, 115
1, 79104, Note_on_c, 9, 42, 90
1, 79104, Note_on_c, 9, 54, 42
1, 79104, Note_on_c, 9, 69, 45
1, 79108, Note_off_c, 9, 69, 45
1, 79108, Note_off_c, 9, 54, 42
1, 79108, Note_off_c, 9, 42, 90
1, 79108, Note_off_c, 9, 36, 115
1, 79200, Note_on_c, 9, 54, 39
1, 79204, Note_off_c, 9, 54, 39
1, 79280, Note_off_c, 15, 69, 117
1, 79288, Note_off_c, 2, 69, 95
1, 79296, Note_on_c, 15, 69, 117
1, 79296, Note_on_c, 2, 64, 85
1, 79296, Note_on_c, 9, 42, 81
1, 79296, Note_on_c, 9, 54, 49
1, 79296, Note_on_c, 9, 69, 37
1, 79300, Note_off_c, 9, 69, 37
1, 79300, Note_off_c, 9, 54, 49
1, 79300, Note_off_c, 9, 42, 81
1, 79392, Note_on_c, 9, 54, 48
1, 79392, Note_on_c, 9, 69, 42
1, 79396, Note_off_c, 9, 69, 42
1, 79396, Note_off_c, 9, 54, 48
1, 79396, Note_off_c, 4, 52, 89
1, 79404, Note_off_c, 4, 57, 84
1, 79412, Note_off_c, 4, 60, 94
1, 79480, Note_off_c, 2, 64, 85
1, 79488, Note_on_c, 4, 52, 85
1, 79488, Note_on_c, 4, 57, 92
1, 79488, Note_on_c, 4, 60, 101
1, 79488, Note_on_c, 2, 60, 85
1, 79488, Note_on_c, 9, 39, 92
1, 79488, Note_on_c, 9, 36, 122
1, 79488, Note_on_c, 9, 38, 121
1, 79488, Note_on_c, 9, 42, 80
1, 79488, Note_on_c, 9, 54, 31
1, 79488, Note_on_c, 9, 69, 46
1, 79492, Note_off_c, 9, 69, 46
1, 79492, Note_off_c, 9, 54, 31
1, 79492, Note_off_c, 9, 42, 80
1, 79492, Note_off_c, 9, 38, 121
1, 79492, Note_off_c, 9, 36, 122
1, 79492, Note_off_c, 9, 39, 92
1, 79572, Note_off_c, 1, 33, 117
1, 79584, Note_on_c, 9, 54, 31
1, 79588, Note_off_c, 9, 54, 31
1, 79664, Note_off_c, 15, 69, 117
1, 79672, Note_off_c, 2, 60, 85
1, 79680, Note_on_c, 15, 67, 111
1, 79680, Note_on_c, 2, 62, 90
1, 79680, Note_on_c, 1, 33, 103
1, 79680, Note_on_c, 9, 42, 78
1, 79680, Note_on_c, 9, 54, 39
1, 79680, Note_on_c, 9, 69, 35
1, 79684, Note_off_c, 9, 69, 35
1, 79684, Note_off_c, 9, 54, 39
1, 79684, Note_off_c, 9, 42, 78
1, 79756, Note_off_c, 4, 52, 85
1, 79760, Note_off_c, 15, 67, 111
1, 79764, Note_off_c, 1, 33, 103
1, 79776, Note_on_c, 1, 35, 100
1, 79776, Note_on_c, 9, 54, 38
1, 79776, Note_on_c, 9, 69, 37
1, 79780, Note_off_c, 9, 69, 37
1, 79780, Note_off_c, 9, 54, 38
1, 79788, Note_off_c, 4, 57, 92
1, 79804, Note_off_c, 4, 60, 101
1, 79848, Note_off_c, 7, 69, 113
1, 79856, Note_off_c, 14, 69, 127
1, 79856, Note_off_c, 14, 60, 118
1, 79860, Note_off_c, 1, 35, 100
1, 79864, Note_off_c, 2, 62, 90
1, 79864, Note_off_c, 8, 57, 116
1, 79872, Note_on_c, 15, 67, 112
1, 79872, Note_on_c, 8, 55, 127
1, 79872, Note_on_c, 7, 67, 120
1, 79872, Note_on_c, 4, 52, 88
1, 79872, Note_on_c, 4, 55, 91
1, 79872, Note_on_c, 4, 60, 94
1, 79872, Note_on_c, 2, 64, 96
1, 79872, Note_on_c, 1, 36, 116
1, 79872, Note_on_c, 9, 36, 108
1, 79872, Note_on_c, 9, 42, 91
1, 79872, Note_on_c, 9, 54, 40
1, 79872, Note_on_c, 9, 69, 48
1, 79876, Note_off_c, 9, 69, 48
1, 79876, Note_off_c, 9, 54, 40
1, 79876, Note_off_c, 9, 42, 91
1, 79876, Note_off_c, 9, 36, 108
1, 79968, Note_on_c, 9, 54, 43
1, 79972, Note_off_c, 9, 54, 43
1, 80048, Note_off_c, 15, 67, 112
1, 80064, Note_on_c, 15, 67, 118
1, 80064, Note_on_c, 9, 42, 76
1, 80064, Note_on_c, 9, 54, 46
1, 80064, Note_on_c, 9, 69, 32
1, 80068, Note_off_c, 9, 69, 32
1, 80068, Note_off_c, 9, 54, 46
1, 80068, Note_off_c, 9, 42, 76
1, 80136, Note_off_c, 2, 64, 96
1, 80160, Note_on_c, 9, 54, 40
1, 80160, Note_on_c, 9, 69, 37
1, 80164, Note_off_c, 9, 69, 37
1, 80164, Note_off_c, 9, 54, 40
1, 80256, Note_on_c, 2, 67, 88
1, 80256, Note_on_c, 2, 72, 82
1, 80256, Note_on_c, 2, 76, 79
1, 80256, Note_on_c, 9, 39, 102
1, 80256, Note_on_c, 9, 36, 116
1, 80256, Note_on_c, 9, 38, 106
1, 80256, Note_on_c, 9, 42, 76
1, 80256, Note_on_c, 9, 54, 36
1, 80256, Note_on_c, 9, 69, 44
1, 80260, Note_off_c, 9, 69, 44
1, 80260, Note_off_c, 9, 54, 36
1, 80260, Note_off_c, 9, 42, 76
1, 80260, Note_off_c, 9, 38, 106
1, 80260, Note_off_c, 9, 36, 116
1, 80260, Note_off_c, 9, 39, 102
1, 80340, Note_off_c, 1, 36, 116
1, 80352, Note_on_c, 9, 54, 30
1, 80356, Note_off_c, 9, 54, 30
1, 80432, Note_off_c, 15, 67, 118
1, 80448, Note_on_c, 15, 69, 125
1, 80448, Note_on_c, 1, 36, 117
1, 80448, Note_on_c, 9, 42, 93
1, 80448, Note_on_c, 9, 54, 45
1, 80448, Note_on_c, 9, 69, 35
1, 80452, Note_off_c, 9, 69, 35
1, 80452, Note_off_c, 9, 54, 45
1, 80452, Note_off_c, 9, 42, 93
1, 80532, Note_off_c, 1, 36, 117
1, 80544, Note_on_c, 1, 36, 103
1, 80544, Note_on_c, 9, 54, 41
1, 80544, Note_on_c, 9, 69, 43
1, 80548, Note_off_c, 9, 69, 43
1, 80548, Note_off_c, 9, 54, 41
1, 80616, Note_off_c, 2, 76, 79
1, 80616, Note_off_c, 2, 72, 82
1, 80616, Note_off_c, 2, 67, 88
1, 80628, Note_off_c, 1, 36, 103
1, 80640, Note_on_c, 2, 64, 88
1, 80640, Note_on_c, 2, 67, 92
1, 80640, Note_on_c, 2, 72, 87
1, 80640, Note_on_c, 1, 36, 101
1, 80640, Note_on_c, 9, 36, 110
1, 80640, Note_on_c, 9, 42, 93
1, 80640, Note_on_c, 9, 54, 35
1, 80640, Note_on_c, 9, 69, 48
1, 80644, Note_off_c, 9, 69, 48
1, 80644, Note_off_c, 9, 54, 35
1, 80644, Note_off_c, 9, 42, 93
1, 80644, Note_off_c, 9, 36, 110
1, 80736, Note_on_c, 9, 54, 43
1, 80740, Note_off_c, 9, 54, 43
1, 80816, Note_off_c, 15, 69, 125
1, 80832, Note_on_c, 15, 64, 124
1, 80832, Note_on_c, 9, 42, 87
1, 80832, Note_on_c, 9, 54, 31
1, 80832, Note_on_c, 9, 69, 31
1, 80836, Note_off_c, 9, 69, 31
1, 80836, Note_off_c, 9, 54, 31
1, 80836, Note_off_c, 9, 42, 87
1, 80916, Note_off_c, 1, 36, 101
1, 80928, Note_on_c, 9, 54, 34
1, 80928, Note_on_c, 9, 69, 30
1, 80932, Note_off_c, 9, 69, 30
1, 80932, Note_off_c, 9, 54, 34
1, 81000, Note_off_c, 2, 72, 87
1, 81000, Note_off_c, 2, 67, 92
1, 81000, Note_off_c, 2, 64, 88
1, 81008, Note_off_c, 15, 64, 124
1, 81024, Note_on_c, 15, 65, 127
1, 81024, Note_on_c, 2, 64, 80
1, 81024, Note_on_c, 9, 39, 99
1, 81024, Note_on_c, 1, 36, 114
1, 81024, Note_on_c, 9, 36, 121
1, 81024, Note_on_c, 9, 38, 124
1, 81024, Note_on_c, 9, 42, 91
1, 81024, Note_on_c, 9, 54, 35
1, 81024, Note_on_c, 9, 69, 36
1, 81028, Note_off_c, 9, 69, 36
1, 81028, Note_off_c, 9, 54, 35
1, 81028, Note_off_c, 9, 42, 91
1, 81028, Note_off_c, 9, 38, 124
1, 81028, Note_off_c, 9, 36, 121
1, 81028, Note_off_c, 9, 39, 99
1, 81120, Note_on_c, 9, 54, 35
1, 81124, Note_off_c, 9, 54, 35
1, 81192, Pitch_bend_c, 1, 8064
1, 81200, Pitch_bend_c, 1, 7936
1, 81208, Note_off_c, 2, 64, 80
1, 81208, Pitch_bend_c, 1, 7808
1, 81216, Note_on_c, 2, 65, 78
1, 81216, Pitch_bend_c, 1, 7680
1, 81216, Note_on_c, 9, 42, 93
1, 81216, Note_on_c, 9, 54, 47
1, 81216, Note_on_c, 9, 69, 38
1, 81220, Note_off_c, 9, 69, 38
1, 81220, Note_off_c, 9, 54, 47
1, 81220, Note_off_c, 9, 42, 93
1, 81224, Pitch_bend_c, 1, 7552
1, 81232, Pitch_bend_c, 1, 7424
1, 81240, Pitch_bend_c, 1, 7296
1, 81248, Pitch_bend_c, 1, 7168
1, 81256, Pitch_bend_c, 1, 7040
1, 81264, Pitch_bend_c, 1, 6912
1, 81272, Pitch_bend_c, 1, 6784
1, 81280, Pitch_bend_c, 1, 6655
1, 81288, Pitch_bend_c, 1, 6527
1, 81292, Note_off_c, 7, 67, 120
1, 81296, Note_off_c, 15, 65, 127
1, 81296, Pitch_bend_c, 1, 6399
1, 81304, Note_off_c, 8, 55, 127
1, 81304, Pitch_bend_c, 1, 6271
1, 81312, Pitch_bend_c, 1, 6143
1, 81312, Note_on_c, 9, 54, 37
1, 81312, Note_on_c, 9, 69, 35
1, 81316, Note_off_c, 9, 69, 35
1, 81316, Note_off_c, 9, 54, 37
1, 81320, Pitch_bend_c, 1, 6015
1, 81328, Pitch_bend_c, 1, 5887
1, 81336, Pitch_bend_c, 1, 5759
1, 81344, Note_off_c, 4, 52, 88
1, 81344, Pitch_bend_c, 1, 5631
1, 81352, Pitch_bend_c, 1, 5503
1, 81356, Note_off_c, 4, 60, 94
1, 81356, Note_off_c, 4, 55, 91
1, 81360, Pitch_bend_c, 1, 5375
1, 81368, Pitch_bend_c, 1, 5247
1, 81376, Pitch_bend_c, 1, 5119
1, 81396, Note_off_c, 1, 36, 114
1, 81400, Note_off_c, 2, 65, 78
1, 81404, Pitch_bend_c, 1, 8192
1, 81408, Note_on_c, 14, 72, 122
1, 81408, Note_on_c, 14, 76, 114
1, 81408, Note_on_c, 15, 67, 112
1, 81408, Note_on_c, 8, 43, 123
1, 81408, Note_on_c, 8, 55, 127
1, 81408, Note_on_c, 7, 67, 115
1, 81408, Note_on_c, 4, 55, 87
1, 81408, Note_on_c, 4, 60, 101
1, 81408, Note_on_c, 2, 76, 79
1, 81408, Note_on_c, 1, 31, 105
1, 81408, Note_on_c, 9, 36, 105
1, 81408, Note_on_c, 9, 42, 80
1, 81408, Note_on_c, 9, 54, 40
1, 81408, Note_on_c, 9, 69, 35
1, 81412, Note_off_c, 9, 69, 35
1, 81412, Note_off_c, 9, 54, 40
1, 81412, Note_off_c, 9, 42, 80
1, 81412, Note_off_c, 9, 36, 105
1, 81492, Note_off_c, 1, 31, 105
1, 81504, Note_on_c, 9, 54, 35
1, 81508, Note_off_c, 9, 54, 35
1, 81592, Note_off_c, 2, 76, 79
1, 81600, Note_on_c, 2, 74, 89
1, 81600, Note_on_c, 1, 31, 111
1, 81600, Note_on_c, 9, 42, 84
1, 81600, Note_on_c, 9, 54, 37
1, 81600, Note_on_c, 9, 69, 32
1, 81604, Note_off_c, 9, 69, 32
1, 81604, Note_off_c, 9, 54, 37
1, 81604, Note_off_c, 9, 42, 84
1, 81680, Note_off_c, 14, 76, 114
1, 81680, Note_off_c, 14, 72, 122
1, 81684, Note_off_c, 1, 31, 111
1, 81696, Note_on_c, 9, 54, 37
1, 81696, Note_on_c, 9, 69, 44
1, 81700, Note_off_c, 9, 69, 44
1, 81700, Note_off_c, 9, 54, 37
1, 81776, Note_off_c, 15, 67, 112
1, 81784, Note_off_c, 2, 74, 89
1, 81792, Note_on_c, 14, 72, 115
1, 81792, Note_on_c, 14, 76, 127
1, 81792, Note_on_c, 15, 67, 124
1, 81792, Note_on_c, 7, 72, 103
1, 81792, Note_on_c, 2, 76, 97
1, 81792, Note_on_c, 9, 39, 94
1, 81792, Note_on_c, 1, 31, 103
1, 81792, Note_on_c, 9, 36, 116
1, 81792, Note_on_c, 9, 38, 122
1, 81792, Note_on_c, 9, 42, 94
1, 81792, Note_on_c, 9, 54, 36
1, 81792, Note_on_c, 9, 69, 31
1, 81796, Note_off_c, 9, 69, 31
1, 81796, Note_off_c, 9, 54, 36
1, 81796, Note_off_c, 9, 42, 94
1, 81796, Note_off_c, 9, 38, 122
1, 81796, Note_off_c, 9, 36, 116
1, 81796, Note_off_c, 9, 39, 94
1, 81876, Note_off_c, 1, 31, 103
1, 81888, Note_on_c, 9, 54, 33
1, 81892, Note_off_c, 9, 54, 33
1, 81976, Note_off_c, 2, 76, 97
1, 81984, Note_on_c, 2, 74, 91
1, 81984, Note_on_c, 1, 31, 119
1, 81984, Note_on_c, 9, 42, 86
1, 81984, Note_on_c, 9, 54, 48
1, 81984, Note_on_c, 9, 69, 30
1, 81988, Note_off_c, 9, 69, 30
1, 81988, Note_off_c, 9, 54, 48
1, 81988, Note_off_c, 9, 42, 86
1, 82064, Note_off_c, 14, 76, 127
1, 82064, Note_off_c, 14, 72, 115
1, 82068, Note_off_c, 1, 31, 119
1, 82080, Note_off_c, 4, 60, 101
1, 82080, Note_on_c, 9, 54, 33
1, 82080, Note_on_c, 9, 69, 42
1, 82084, Note_off_c, 9, 69, 42
1, 82084, Note_off_c, 9, 54, 33
1, 82092, Note_off_c, 4, 55, 87
1, 82160, Note_off_c, 15, 67, 124
1, 82168, Note_off_c, 2, 74, 91
1, 82168, Note_off_c, 7, 72, 103
1, 82176, Note_on_c, 14, 72, 122
1, 82176, Note_on_c, 14, 76, 121
1, 82176, Note_on_c, 15, 67, 127
1, 82176, Note_on_c, 4, 55, 86
1, 82176, Note_on_c, 4, 60, 86
1, 82176, Note_on_c, 2, 72, 97
1, 82176, Note_on_c, 1, 31, 103
1, 82176, Note_on_c, 9, 36, 116
1, 82176, Note_on_c, 9, 42, 79
1, 82176, Note_on_c, 9, 54, 49
1, 82176, Note_on_c, 9, 69, 35
1, 82180, Note_off_c, 9, 69, 35
1, 82180, Note_off_c, 9, 54, 49
1, 82180, Note_off_c, 9, 42, 79
1, 82180, Note_off_c, 9, 36, 116
1, 82260, Note_off_c, 1, 31, 103
1, 82272, Note_on_c, 9, 54, 40
1, 82276, Note_off_c, 9, 54, 40
1, 82360, Note_off_c, 2, 72, 97
1, 82368, Note_on_c, 2, 74, 97
1, 82368, Note_on_c, 1, 31, 116
1, 82368, Note_on_c, 9, 42, 75
1, 82368, Note_on_c, 9, 54, 46
1, 82368, Note_on_c, 9, 69, 39
1, 82372, Note_off_c, 9, 69, 39
1, 82372, Note_off_c, 9, 54, 46
1, 82372, Note_off_c, 9, 42, 75
1, 82448, Note_off_c, 14, 76, 121
1, 82448, Note_off_c, 14, 72, 122
1, 82452, Note_off_c, 1, 31, 116
1, 82464, Note_on_c, 9, 54, 47
1, 82464, Note_on_c, 9, 69, 34
1, 82468, Note_off_c, 9, 69, 34
1, 82468, Note_off_c, 9, 54, 47
1, 82468, Note_off_c, 4, 60, 86
1, 82476, Note_off_c, 4, 55, 86
1, 82544, Note_off_c, 15, 67, 127
1, 82552, Note_off_c, 2, 74, 97
1, 82560, Note_on_c, 14, 72, 124
1, 82560, Note_on_c, 14, 76, 114
1, 82560, Note_on_c, 15, 67, 116
1, 82560, Note_on_c, 7, 72, 117
1, 82560, Note_on_c, 4, 55, 91
1, 82560, Note_on_c, 4, 60, 97
1, 82560, Note_on_c, 2, 72, 93
1, 82560, Note_on_c, 9, 39, 89
1, 82560, Note_on_c, 1, 31, 111
1, 82560, Note_on_c, 9, 36, 109
1, 82560, Note_on_c, 9, 38, 116
1, 82560, Note_on_c, 9, 42, 90
1, 82560, Note_on_c, 9, 54, 30
1, 82560, Note_on_c, 9, 69, 35
1, 82564, Note_off_c, 9, 69, 35
1, 82564, Note_off_c, 9, 54, 30
1, 82564, Note_off_c, 9, 42, 90
1, 82564, Note_off_c, 9, 38, 116
1, 82564, Note_off_c, 9, 36, 109
1, 82564, Note_off_c, 9, 39, 89
1, 82644, Note_off_c, 1, 31, 111
1, 82656, Note_on_c, 9, 54, 34
1, 82660, Note_off_c, 9, 54, 34
1, 82736, Note_off_c, 15, 67, 116
1, 82744, Note_off_c, 2, 72, 93
1, 82752, Note_on_c, 15, 64, 127
1, 82752, Note_on_c, 2, 76, 91
1, 82752, Note_on_c, 1, 31, 109
1, 82752, Note_on_c, 9, 42, 94
1, 82752, Note_on_c, 9, 54, 46
1, 82752, Note_on_c, 9, 69, 46
1, 82756, Note_off_c, 9, 69, 46
1, 82756, Note_off_c, 9, 54, 46
1, 82756, Note_off_c, 9, 42, 94
1, 82828, Note_off_c, 4, 60, 97
1, 82832, Note_off_c, 14, 76, 114
1, 82832, Note_off_c, 14, 72, 124
1, 82836, Note_off_c, 1, 31, 109
1, 82836, Note_off_c, 4, 55, 91
1, 82840, Note_off_c, 7, 72, 117
1, 82840, Note_off_c, 7, 67, 115
1, 82840, Note_off_c, 8, 55, 127
1, 82840, Note_off_c, 8, 43, 123
1, 82848, Note_on_c, 9, 54, 38
1, 82848, Note_on_c, 9, 69, 41
1, 82852, Note_off_c, 9, 69, 41
1, 82852, Note_off_c, 9, 54, 38
1, 82928, Note_off_c, 15, 64, 127
1, 82936, Note_off_c, 2, 76, 91
1, 82944, Note_on_c, 14, 71, 110
1, 82944, Note_on_c, 14, 74, 127
1, 82944, Note_on_c, 15, 67, 123
1, 82944, Note_on_c, 8, 43, 127
1, 82944, Note_on_c, 8, 55, 127
1, 82944, Note_on_c, 7, 62, 111
1, 82944, Note_on_c, 7, 67, 110
1, 82944, Note_on_c, 7, 71, 104
1, 82944, Note_on_c, 4, 55, 97
1, 82944, Note_on_c, 4, 59, 95
1, 82944, Note_on_c, 2, 74, 97
1, 82944, Note_on_c, 1, 31, 103
1, 82944, Note_on_c, 9, 36, 121
1, 82944, Note_on_c, 9, 42, 79
1, 82944, Note_on_c, 9, 54, 38
1, 82944, Note_on_c, 9, 69, 44
1, 82948, Note_off_c, 9, 69, 44
1, 82948, Note_off_c, 9, 54, 38
1, 82948, Note_off_c, 9, 42, 79
1, 82948, Note_off_c, 9, 36, 121
1, 83028, Note_off_c, 1, 31, 103
1, 83032, Note_off_c, 7, 71, 104
1, 83032, Note_off_c, 7, 67, 110
1, 83032, Note_off_c, 7, 62, 111
1, 83120, Note_off_c, 15, 67, 123
1, 83120, Note_off_c, 14, 74, 127
1, 83120, Note_off_c, 14, 71, 110
1, 83128, Note_off_c, 8, 55, 127
1, 83128, Note_off_c, 8, 43, 127
1, 83136, Note_on_c, 14, 71, 120
1, 83136, Note_on_c, 14, 74, 127
1, 83136, Note_on_c, 15, 67, 112
1, 83136, Note_on_c, 8, 45, 88
1, 83136, Note_on_c, 7, 57, 75
1, 83140, Note_off_c, 4, 55, 97
1, 83156, Note_off_c, 4, 59, 95
1, 83208, Note_off_c, 2, 74, 97
1, 83216, Note_off_c, 14, 74, 127
1, 83216, Note_off_c, 14, 71, 120
1, 83224, Note_off_c, 7, 57, 75
1, 83224, Note_off_c, 8, 45, 88
1, 83232, Note_on_c, 8, 47, 91
1, 83232, Note_on_c, 7, 59, 79
1, 83312, Note_off_c, 15, 67, 112
1, 83320, Note_off_c, 7, 59, 79
1, 83320, Note_off_c, 8, 47, 91
1, 83328, Note_on_c, 15, 67, 118
1, 83328, Note_on_c, 8, 48, 94
1, 83328, Note_on_c, 7, 60, 83
1, 83328, Note_on_c, 9, 39, 89
1, 83332, Note_off_c, 9, 39, 89
1, 83416, Note_off_c, 7, 60, 83
1, 83416, Note_off_c, 8, 48, 94
1, 83424, Note_on_c, 8, 50, 97
1, 83424, Note_on_c, 7, 62, 86
1, 83512, Note_off_c, 7, 62, 86
1, 83512, Note_off_c, 8, 50, 97
1, 83520, Note_on_c, 8, 52, 99
1, 83520, Note_on_c, 7, 64, 90
1, 83608, Note_off_c, 7, 64, 90
1, 83608, Note_off_c, 8, 52, 99
1, 83616, Note_on_c, 8, 53, 102
1, 83616, Note_on_c, 7, 65, 94
1, 83696, Note_off_c, 15, 67, 118
1, 83704, Note_off_c, 7, 65, 94
1, 83704, Note_off_c, 8, 53, 102
1, 83712, Note_on_c, 15, 69, 126
1, 83712, Note_on_c, 8, 55, 105
1, 83712, Note_on_c, 7, 67, 98
1, 83800, Note_off_c, 7, 67, 98
1, 83800, Note_off_c, 8, 55, 105
1, 83808, Note_on_c, 8, 57, 108
1, 83808, Note_on_c, 7, 69, 101
1, 83896, Note_off_c, 7, 69, 101
1, 83896, Note_off_c, 8, 57, 108
1, 83904, Note_on_c, 8, 59, 111
1, 83904, Note_on_c, 7, 71, 105
1, 83992, Note_off_c, 7, 71, 105
1, 83992, Note_off_c, 8, 59, 111
1, 84000, Note_on_c, 8, 60, 113
1, 84000, Note_on_c, 7, 72, 109
1, 84080, Note_off_c, 15, 69, 126
1, 84088, Note_off_c, 7, 72, 109
1, 84088, Note_off_c, 8, 60, 113
1, 84096, Note_on_c, 15, 67, 127
1, 84096, Note_on_c, 13, 43, 107
1, 84096, Note_on_c, 8, 62, 116
1, 84096, Note_on_c, 7, 74, 113
1, 84096, Note_on_c, 2, 67, 85
1, 84096, Note_on_c, 2, 71, 82
1, 84096, Note_on_c, 2, 74, 86
1, 84096, Note_on_c, 9, 39, 92
1, 84096, Note_on_c, 1, 31, 112
1, 84096, Note_on_c, 9, 36, 115
1, 84096, Note_on_c, 9, 38, 123
1, 84096, Note_on_c, 9, 49, 115
1, 84100, Note_off_c, 9, 49, 115
1, 84100, Note_off_c, 9, 38, 123
1, 84100, Note_off_c, 9, 36, 115
1, 84100, Note_off_c, 9, 39, 92
1, 84184, Note_off_c, 7, 74, 113
1, 84184, Note_off_c, 8, 62, 116
1, 84192, Note_on_c, 8, 64, 119
1, 84192, Note_on_c, 7, 76, 116
1, 84232, Pitch_bend_c, 1, 8192
1, 84236, Note_off_c, 13, 43, 107
1, 84240, Pitch_bend_c, 1, 8072
1, 84248, Pitch_bend_c, 1, 7952
1, 84256, Pitch_bend_c, 1, 7832
1, 84264, Pitch_bend_c, 1, 7712
1, 84272, Pitch_bend_c, 1, 7592
1, 84280, Note_off_c, 7, 76, 116
1, 84280, Note_off_c, 8, 64, 119
1, 84280, Pitch_bend_c, 1, 7472
1, 84288, Note_on_c, 8, 65, 122
1, 84288, Note_on_c, 7, 77, 120
1, 84288, Pitch_bend_c, 1, 7352
1, 84288, Note_on_c, 9, 54, 41
1, 84288, Note_on_c, 9, 69, 34
1, 84292, Note_off_c, 9, 69, 34
1, 84292, Note_off_c, 9, 54, 41
1, 84296, Pitch_bend_c, 1, 7232
1, 84304, Pitch_bend_c, 1, 7112
1, 84312, Pitch_bend_c, 1, 6992
1, 84320, Pitch_bend_c, 1, 6872
1, 84328, Pitch_bend_c, 1, 6752
1, 84336, Pitch_bend_c, 1, 6632
1, 84344, Pitch_bend_c, 1, 6512
1, 84352, Pitch_bend_c, 1, 6392
1, 84360, Note_off_c, 2, 74, 86
1, 84360, Note_off_c, 2, 71, 82
1, 84360, Note_off_c, 2, 67, 85
1, 84360, Pitch_bend_c, 1, 6272
1, 84368, Pitch_bend_c, 1, 6152
1, 84372, Note_off_c, 1, 31, 112
1, 84376, Note_off_c, 7, 77, 120
1, 84376, Note_off_c, 8, 65, 122
1, 84376, Pitch_bend_c, 1, 6032
1, 84384, Note_on_c, 8, 67, 125
1, 84384, Note_on_c, 7, 79, 124
1, 84384, Pitch_bend_c, 1, 5912
1, 84384, Note_on_c, 9, 54, 43
1, 84384, Note_on_c, 9, 69, 47
1, 84388, Note_off_c, 9, 69, 47
1, 84388, Note_off_c, 9, 54, 43
1, 84392, Pitch_bend_c, 1, 5792
1, 84400, Pitch_bend_c, 1, 5672
1, 84408, Pitch_bend_c, 1, 5552
1, 84448, Pitch_bend_c, 1, 8192
1, 84464, Note_off_c, 15, 67, 127
1, 84472, Note_off_c, 7, 79, 124
1, 84472, Note_off_c, 8, 67, 125
1, 84480, Tempo, 500000
1, 84480, Note_on_c, 15, 60, 121
1, 84480, Note_on_c, 8, 48, 127
1, 84480, Note_on_c, 7, 60, 127
1, 84480, Note_on_c, 7, 64, 127
1, 84480, Note_on_c, 7, 67, 127
1, 84480, Note_on_c, 3, 72, 50
1, 84480, Note_on_c, 2, 72, 89
1, 84480, Note_on_c, 2, 84, 90
1, 84480, Note_on_c, 1, 36, 109
1, 84480, Note_on_c, 9, 36, 112
1, 84480, Note_on_c, 9, 42, 94
1, 84480, Note_on_c, 9, 54, 41
1, 84480, Note_on_c, 9, 69, 36
1, 84484, Note_off_c, 9, 69, 36
1, 84484, Note_off_c, 9, 54, 41
1, 84484, Note_off_c, 9, 42, 94
1, 84484, Note_off_c, 9, 36, 112
1, 84568, Note_off_c, 3, 72, 50
1, 84568, Pitch_bend_c, 1, 8192
1, 84576, Note_on_c, 3, 72, 51
1, 84576, Pitch_bend_c, 1, 8009
1, 84576, Note_on_c, 9, 54, 35
1, 84580, Note_off_c, 9, 54, 35
1, 84584, Pitch_bend_c, 1, 7827
1, 84592, Pitch_bend_c, 1, 7644
1, 84600, Pitch_bend_c, 1, 7461
1, 84608, Pitch_bend_c, 1, 7278
1, 84616, Note_off_c, 2, 84, 90
1, 84616, Pitch_bend_c, 1, 7096
1, 84624, Note_off_c, 2, 72, 89
1, 84624, Pitch_bend_c, 1, 6913
1, 84632, Pitch_bend_c, 1, 6730
1, 84640, Pitch_bend_c, 1, 6548
1, 84648, Pitch_bend_c, 1, 6365
1, 84656, Note_off_c, 15, 60, 121
1, 84656, Pitch_bend_c, 1, 6182
1, 84664, Note_off_c, 3, 72, 51
1, 84664, Note_off_c, 7, 67, 127
1, 84664, Note_off_c, 7, 64, 127
1, 84664, Note_off_c, 7, 60, 127
1, 84664, Note_off_c, 8, 48, 127
1, 84664, Pitch_bend_c, 1, 6000
1, 84672, Note_on_c, 15, 57, 123
1, 84672, Note_on_c, 3, 72, 65
1, 84672, Pitch_bend_c, 1, 5817
1, 84672, Note_on_c, 9, 46, 99
1, 84672, Note_on_c, 9, 54, 30
1, 84672, Note_on_c, 9, 69, 32
1, 84676, Note_off_c, 9, 69, 32
1, 84676, Note_off_c, 9, 54, 30
1, 84676, Note_off_c, 9, 46, 99
1, 84680, Pitch_bend_c, 1, 5634
1, 84688, Pitch_bend_c, 1, 5451
1, 84696, Pitch_bend_c, 1, 5269
1, 84704, Pitch_bend_c, 1, 5086
1, 84712, Pitch_bend_c, 1, 4903
1, 84720, Pitch_bend_c, 1, 4720
1, 84728, Pitch_bend_c, 1, 4538
1, 84736, Pitch_bend_c, 1, 4355
1, 84744, Pitch_bend_c, 1, 4172
1, 84752, Pitch_bend_c, 1, 3990
1, 84756, Note_off_c, 1, 36, 109
1, 84760, Note_off_c, 3, 72, 65
1, 84760, Pitch_bend_c, 1, 3807
1, 84768, Note_on_c, 3, 72, 55
1, 84768, Pitch_bend_c, 1, 3624
1, 84768, Note_on_c, 9, 54, 42
1, 84768, Note_on_c, 9, 69, 45
1, 84772, Note_off_c, 9, 69, 45
1, 84772, Note_off_c, 9, 54, 42
1, 84776, Pitch_bend_c, 1, 3441
1, 84784, Pitch_bend_c, 1, 3259
1, 84792, Pitch_bend_c, 1, 3076
1, 84800, Pitch_bend_c, 1, 8192
1, 84848, Note_off_c, 15, 57, 123
1, 84856, Note_off_c, 3, 72, 55
1, 84864, Note_on_c, 15, 60, 122
1, 84864, Note_on_c, 8, 52, 127
1, 84864, Note_on_c, 7, 60, 106
1, 84864, Note_on_c, 7, 64, 103
1, 84864, Note_on_c, 7, 67, 120
1, 84864, Note_on_c, 3, 72, 53
1, 84864, Note_on_c, 2, 72, 89
1, 84864, Note_on_c, 2, 84, 91
1, 84864, Note_on_c, 9, 39, 101
1, 84864, Note_on_c, 1, 28, 106
1, 84864, Note_on_c, 9, 36, 105
1, 84864, Note_on_c, 9, 38, 113
1, 84864, Note_on_c, 9, 42, 93
1, 84864, Note_on_c, 9, 54, 42
1, 84864, Note_on_c, 9, 69, 49
1, 84868, Note_off_c, 9, 69, 49
1, 84868, Note_off_c, 9, 54, 42
1, 84868, Note_off_c, 9, 42, 93
1, 84868, Note_off_c, 9, 38, 113
1, 84868, Note_off_c, 9, 36, 105
1, 84868, Note_off_c, 9, 39, 101
1, 84952, Note_off_c, 3, 72, 53
1, 84952, Note_off_c, 7, 67, 120
1, 84952, Note_off_c, 7, 64, 103
1, 84952, Note_off_c, 7, 60, 106
1, 84952, Note_off_c, 8, 52, 127
1, 84960, Note_on_c, 3, 72, 51
1, 84960, Note_on_c, 9, 54, 42
1, 84964, Note_off_c, 9, 54, 42
1, 84980, Note_off_c, 2, 84, 91
1, 85004, Note_off_c, 2, 72, 89
1, 85044, Note_off_c, 1, 28, 106
1, 85048, Note_off_c, 3, 72, 51
1, 85056, Note_on_c, 8, 53, 121
1, 85056, Note_on_c, 7, 60, 113
1, 85056, Note_on_c, 7, 65, 105
1, 85056, Note_on_c, 7, 69, 121
1, 85056, Note_on_c, 3, 72, 55
1, 85056, Note_on_c, 1, 29, 119
1, 85056, Note_on_c, 9, 42, 92
1, 85056, Note_on_c, 9, 54, 34
1, 85056, Note_on_c, 9, 69, 41
1, 85060, Note_off_c, 9, 69, 41
1, 85060, Note_off_c, 9, 54, 34
1, 85060, Note_off_c, 9, 42, 92
1, 85144, Note_off_c, 3, 72, 55
1, 85144, Note_off_c, 7, 69, 121
1, 85144, Note_off_c, 7, 65, 105
1, 85144, Note_off_c, 7, 60, 113
1, 85144, Note_off_c, 8, 53, 121
1, 85152, Note_on_c, 3, 72, 56
1, 85152, Note_on_c, 9, 54, 49
1, 85152, Note_on_c, 9, 69, 44
1, 85156, Note_off_c, 9, 69, 44
1, 85156, Note_off_c, 9, 54, 49
1, 85232, Note_off_c, 15, 60, 122
1, 85236, Note_off_c, 1, 29, 119
1, 85240, Note_off_c, 3, 72, 56
1, 85248, Note_on_c, 15, 60, 114
1, 85248, Note_on_c, 3, 72, 50
1, 85248, Note_on_c, 2, 72, 93
1, 85248, Note_on_c, 2, 84, 83
1, 85248, Note_on_c, 9, 36, 107
1, 85248, Note_on_c, 9, 42, 79
1, 85248, Note_on_c, 9, 54, 42
1, 85248, Note_on_c, 9, 69, 44
1, 85252, Note_off_c, 9, 69, 44
1, 85252, Note_off_c, 9, 54, 42
1, 85252, Note_off_c, 9, 42, 79
1, 85252, Note_off_c, 9, 36, 107
1, 85336, Note_off_c, 3, 72, 50
1, 85344, Note_off_c, 2, 84, 83
1, 85344, Note_on_c, 3, 72, 65
1, 85344, Note_on_c, 9, 54, 31
1, 85348, Note_off_c, 9, 54, 31
1, 85364, Note_off_c, 2, 72, 93
1, 85424, Note_off_c, 15, 60, 114
1, 85432, Note_off_c, 3, 72, 65
1, 85440, Note_on_c, 15, 57, 125
1, 85440, Note_on_c, 8, 52, 124
1, 85440, Note_on_c, 7, 60, 105
1, 85440, Note_on_c, 7, 64, 105
1, 85440, Note_on_c, 7, 67, 117
1, 85440, Note_on_c, 3, 72, 50
1, 85440, Note_on_c, 1, 28, 101
1, 85440, Note_on_c, 9, 42, 86
1, 85440, Note_on_c, 9, 54, 37
1, 85440, Note_on_c, 9, 69, 33
1, 85444, Note_off_c, 9, 69, 33
1, 85444, Note_off_c, 9, 54, 37
1, 85444, Note_off_c, 9, 42, 86
1, 85528, Note_off_c, 3, 72, 50
1, 85528, Note_off_c, 7, 67, 117
1, 85528, Note_off_c, 7, 64, 105
1, 85528, Note_off_c, 7, 60, 105
1, 85528, Note_off_c, 8, 52, 124
1, 85536, Note_on_c, 3, 72, 69
1, 85536, Note_on_c, 9, 54, 31
1, 85536, Note_on_c, 9, 69, 40
1, 85540, Note_off_c, 9, 69, 40
1, 85540, Note_off_c, 9, 54, 31
1, 85616, Note_off_c, 15, 57, 125
1, 85620, Note_off_c, 1, 28, 101
1, 85624, Note_off_c, 3, 72, 69
1, 85632, Note_on_c, 15, 60, 123
1, 85632, Note_on_c, 3, 72, 58
1, 85632, Note_on_c, 2, 72, 88
1, 85632, Note_on_c, 2, 84, 81
1, 85632, Note_on_c, 9, 39, 99
1, 85632, Note_on_c, 9, 36, 122
1, 85632, Note_on_c, 9, 38, 105
1, 85632, Note_on_c, 9, 42, 89
1, 85632, Note_on_c, 9, 54, 33
1, 85632, Note_on_c, 9, 69, 48
1, 85636, Note_off_c, 9, 69, 48
1, 85636, Note_off_c, 9, 54, 33
1, 85636, Note_off_c, 9, 42, 89
1, 85636, Note_off_c, 9, 38, 105
1, 85636, Note_off_c, 9, 36, 122
1, 85636, Note_off_c, 9, 39, 99
1, 85720, Note_off_c, 3, 72, 58
1, 85728, Note_on_c, 3, 72, 67
1, 85728, Note_on_c, 9, 54, 45
1, 85732, Note_off_c, 9, 54, 45
1, 85736, Note_off_c, 2, 84, 81
1, 85752, Note_off_c, 2, 72, 88
1, 85816, Note_off_c, 3, 72, 67
1, 85824, Note_on_c, 8, 53, 127
1, 85824, Note_on_c, 7, 60, 120
1, 85824, Note_on_c, 7, 65, 112
1, 85824, Note_on_c, 7, 69, 105
1, 85824, Note_on_c, 3, 72, 52
1, 85824, Note_on_c, 1, 29, 117
1, 85824, Note_on_c, 9, 42, 75
1, 85824, Note_on_c, 9, 54, 38
1, 85824, Note_on_c, 9, 69, 43
1, 85828, Note_off_c, 9, 69, 43
1, 85828, Note_off_c, 9, 54, 38
1, 85828, Note_off_c, 9, 42, 75
1, 85912, Note_off_c, 3, 72, 52
1, 85912, Note_off_c, 7, 69, 105
1, 85912, Note_off_c, 7, 65, 112
1, 85912, Note_off_c, 7, 60, 120
1, 85912, Note_off_c, 8, 53, 127
1, 85920, Note_on_c, 3, 72, 52
1, 85920, Note_on_c, 9, 54, 48
1, 85920, Note_on_c, 9, 69, 44
1, 85924, Note_off_c, 9, 69, 44
1, 85924, Note_off_c, 9, 54, 48
1, 86000, Note_off_c, 15, 60, 123
1, 86004, Note_off_c, 1, 29, 117
1, 86008, Note_off_c, 3, 72, 52
1, 86016, Note_on_c, 15, 60, 127
1, 86016, Note_on_c, 3, 72, 66
1, 86016, Note_on_c, 2, 72, 93
1, 86016, Note_on_c, 2, 84, 87
1, 86016, Note_on_c, 9, 36, 113
1, 86016, Note_on_c, 9, 42, 86
1, 86016, Note_on_c, 9, 54, 45
1, 86016, Note_on_c, 9, 69, 36
1, 86020, Note_off_c, 9, 69, 36
1, 86020, Note_off_c, 9, 54, 45
1, 86020, Note_off_c, 9, 42, 86
1, 86020, Note_off_c, 9, 36, 113
1, 86104, Note_off_c, 3, 72, 66
1, 86112, Note_off_c, 2, 72, 93
1, 86112, Note_on_c, 3, 72, 51
1, 86112, Note_on_c, 9, 54, 49
1, 86116, Note_off_c, 9, 54, 49
1, 86124, Note_off_c, 2, 84, 87
1, 86200, Note_off_c, 3, 72, 51
1, 86208, Note_on_c, 8, 52, 120
1, 86208, Note_on_c, 7, 60, 119
1, 86208, Note_on_c, 7, 64, 108
1, 86208, Note_on_c, 7, 67, 117
1, 86208, Note_on_c, 3, 72, 60
1, 86208, Note_on_c, 1, 28, 100
1, 86208, Note_on_c, 9, 46, 102
1, 86208, Note_on_c, 9, 54, 37
1, 86208, Note_on_c, 9, 69, 33
1, 86212, Note_off_c, 9, 69, 33
1, 86212, Note_off_c, 9, 54, 37
1, 86212, Note_off_c, 9, 46, 102
1, 86296, Note_off_c, 3, 72, 60
1, 86296, Note_off_c, 7, 67, 117
1, 86296, Note_off_c, 7, 64, 108
1, 86296, Note_off_c, 7, 60, 119
1, 86296, Note_off_c, 8, 52, 120
1, 86304, Note_on_c, 3, 72, 59
1, 86304, Note_on_c, 9, 54, 36
1, 86304, Note_on_c, 9, 69, 42
1, 86308, Note_off_c, 9, 69, 42
1, 86308, Note_off_c, 9, 54, 36
1, 86384, Note_off_c, 15, 60, 127
1, 86388, Note_off_c, 1, 28, 100
1, 86392, Note_off_c, 3, 72, 59
1, 86400, Note_on_c, 15, 60, 124
1, 86400, Note_on_c, 3, 72, 61
1, 86400, Note_on_c, 2, 72, 78
1, 86400, Note_on_c, 2, 84, 81
1, 86400, Note_on_c, 9, 39, 85
1, 86400, Note_on_c, 9, 36, 106
1, 86400, Note_on_c, 9, 38, 113
1, 86400, Note_on_c, 9, 42, 75
1, 86400, Note_on_c, 9, 54, 43
1, 86400, Note_on_c, 9, 69, 35
1, 86404, Note_off_c, 9, 69, 35
1, 86404, Note_off_c, 9, 54, 43
1, 86404, Note_off_c, 9, 42, 75
1, 86404, Note_off_c, 9, 38, 113
1, 86404, Note_off_c, 9, 36, 106
1, 86404, Note_off_c, 9, 39, 85
1, 86488, Note_off_c, 3, 72, 61
1, 86492, Note_off_c, 2, 84, 81
1, 86496, Note_on_c, 3, 72, 59
1, 86496, Note_on_c, 9, 54, 32
1, 86500, Note_off_c, 9, 54, 32
1, 86504, Note_off_c, 2, 72, 78
1, 86584, Note_off_c, 3, 72, 59
1, 86592, Note_on_c, 8, 53, 127
1, 86592, Note_on_c, 7, 60, 106
1, 86592, Note_on_c, 7, 65, 120
1, 86592, Note_on_c, 7, 69, 113
1, 86592, Note_on_c, 3, 72, 56
1, 86592, Note_on_c, 1, 29, 118
1, 86592, Note_on_c, 9, 42, 75
1, 86592, Note_on_c, 9, 54, 35
1, 86592, Note_on_c, 9, 69, 32
1, 86596, Note_off_c, 9, 69, 32
1, 86596, Note_off_c, 9, 54, 35
1, 86596, Note_off_c, 9, 42, 75
1, 86680, Note_off_c, 3, 72, 56
1, 86680, Note_off_c, 7, 69, 113
1, 86680, Note_off_c, 7, 65, 120
1, 86680, Note_off_c, 7, 60, 106
1, 86680, Note_off_c, 8, 53, 127
1, 86688, Note_on_c, 3, 72, 54
1, 86688, Note_on_c, 9, 54, 38
1, 86688, Note_on_c, 9, 69, 30
1, 86692, Note_off_c, 9, 69, 30
1, 86692, Note_off_c, 9, 54, 38
1, 86724, Note_off_c, 1, 29, 118
1, 86768, Note_off_c, 15, 60, 124
1, 86776, Note_off_c, 3, 72, 54
1, 86784, Note_on_c, 15, 64, 123
1, 86784, Note_on_c, 8, 55, 127
1, 86784, Note_on_c, 7, 62, 110
1, 86784, Note_on_c, 7, 67, 111
1, 86784, Note_on_c, 7, 71, 119
1, 86784, Note_on_c, 3, 72, 50
1, 86784, Note_on_c, 2, 72, 95
1, 86784, Note_on_c, 2, 84, 80
1, 86784, Note_on_c, 1, 31, 101
1, 86784, Note_on_c, 9, 36, 109
1, 86784, Note_on_c, 9, 42, 84
1, 86784, Note_on_c, 9, 54, 40
1, 86784, Note_on_c, 9, 69, 41
1, 86788, Note_off_c, 9, 69, 41
1, 86788, Note_off_c, 9, 54, 40
1, 86788, Note_off_c, 9, 42, 84
1, 86788, Note_off_c, 9, 36, 109
1, 86872, Note_off_c, 3, 72, 50
1, 86876, Note_off_c, 2, 84, 80
1, 86880, Note_off_c, 2, 72, 95
1, 86880, Note_on_c, 3, 72, 65
1, 86880, Note_on_c, 9, 54, 34
1, 86884, Note_off_c, 9, 54, 34
1, 86964, Note_off_c, 1, 31, 101
1, 86968, Note_off_c, 3, 72, 65
1, 86968, Note_off_c, 7, 71, 119
1, 86968, Note_off_c, 7, 67, 111
1, 86968, Note_off_c, 7, 62, 110
1, 86968, Note_off_c, 8, 55, 127
1, 86976, Note_on_c, 3, 67, 61
1, 86976, Note_on_c, 9, 42, 90
1, 86976, Note_on_c, 9, 54, 33
1, 86976, Note_on_c, 9, 69, 49
1, 86980, Note_off_c, 9, 69, 49
1, 86980, Note_off_c, 9, 54, 33
1, 86980, Note_off_c, 9, 42, 90
1, 87064, Note_off_c, 3, 67, 61
1, 87072, Note_on_c, 9, 54, 42
1, 87072, Note_on_c, 9, 69, 47
1, 87076, Note_off_c, 9, 69, 47
1, 87076, Note_off_c, 9, 54, 42
1, 87152, Note_off_c, 15, 64, 123
1, 87168, Note_on_c, 15, 62, 122
1, 87168, Note_on_c, 8, 55, 127
1, 87168, Note_on_c, 7, 62, 121
1, 87168, Note_on_c, 7, 67, 105
1, 87168, Note_on_c, 7, 71, 105
1, 87168, Note_on_c, 3, 67, 58
1, 87168, Note_on_c, 2, 72, 87
1, 87168, Note_on_c, 2, 84, 78
1, 87168, Note_on_c, 9, 39, 101
1, 87168, Note_on_c, 1, 31, 108
1, 87168, Note_on_c, 9, 36, 108
1, 87168, Note_on_c, 9, 38, 121
1, 87168, Note_on_c, 9, 42, 77
1, 87168, Note_on_c, 9, 54, 36
1, 87168, Note_on_c, 9, 69, 31
1, 87172, Note_off_c, 9, 69, 31
1, 87172, Note_off_c, 9, 54, 36
1, 87172, Note_off_c, 9, 42, 77
1, 87172, Note_off_c, 9, 38, 121
1, 87172, Note_off_c, 9, 36, 108
1, 87172, Note_off_c, 9, 39, 101
1, 87256, Note_off_c, 3, 67, 58
1, 87264, Note_on_c, 3, 69, 54
1, 87264, Note_on_c, 9, 54, 49
1, 87268, Note_off_c, 9, 54, 49
1, 87276, Note_off_c, 2, 72, 87
1, 87284, Note_off_c, 2, 84, 78
1, 87312, Pitch_bend_c, 1, 8192
1, 87320, Pitch_bend_c, 1, 8323
1, 87328, Pitch_bend_c, 1, 8456
1, 87336, Pitch_bend_c, 1, 8588
1, 87344, Note_off_c, 15, 62, 122
1, 87344, Pitch_bend_c, 1, 8720
1, 87352, Note_off_c, 3, 69, 54
1, 87352, Note_off_c, 7, 71, 105
1, 87352, Note_off_c, 7, 67, 105
1, 87352, Note_off_c, 7, 62, 121
1, 87352, Note_off_c, 8, 55, 127
1, 87352, Pitch_bend_c, 1, 8852
1, 87360, Note_on_c, 15, 60, 127
1, 87360, Note_on_c, 3, 72, 68
1, 87360, Pitch_bend_c, 1, 8984
1, 87360, Note_on_c, 9, 42, 85
1, 87360, Note_on_c, 9, 54, 33
1, 87360, Note_on_c, 9, 69, 41
1, 87364, Note_off_c, 9, 69, 41
1, 87364, Note_off_c, 9, 54, 33
1, 87364, Note_off_c, 9, 42, 85
1, 87368, Pitch_bend_c, 1, 9116
1, 87376, Pitch_bend_c, 1, 9248
1, 87384, Pitch_bend_c, 1, 9380
1, 87392, Pitch_bend_c, 1, 9512
1, 87400, Pitch_bend_c, 1, 9644
1, 87408, Pitch_bend_c, 1, 9776
1, 87416, Pitch_bend_c, 1, 9908
1, 87424, Pitch_bend_c, 1, 10040
1, 87432, Pitch_bend_c, 1, 10172
1, 87440, Pitch_bend_c, 1, 10305
1, 87444, Note_off_c, 1, 31, 108
1, 87448, Note_off_c, 3, 72, 68
1, 87448, Pitch_bend_c, 1, 10437
1, 87456, Note_on_c, 3, 74, 52
1, 87456, Pitch_bend_c, 1, 10569
1, 87456, Note_on_c, 9, 54, 38
1, 87456, Note_on_c, 9, 69, 37
1, 87460, Note_off_c, 9, 69, 37
1, 87460, Note_off_c, 9, 54, 38
1, 87464, Pitch_bend_c, 1, 10701
1, 87472, Pitch_bend_c, 1, 10833
1, 87480, Pitch_bend_c, 1, 10965
1, 87488, Pitch_bend_c, 1, 11097
1, 87496, Pitch_bend_c, 1, 11229
1, 87504, Pitch_bend_c, 1, 11361
1, 87512, Pitch_bend_c, 1, 11493
1, 87520, Pitch_bend_c, 1, 11625
1, 87528, Pitch_bend_c, 1, 11757
1, 87536, Pitch_bend_c, 1, 8192
1, 87544, Note_off_c, 3, 74, 52
1, 87552, Tempo, 504200
1, 87552, Note_on_c, 8, 48, 120
1, 87552, Note_on_c, 7, 60, 117
1, 87552, Note_on_c, 7, 64, 108
1, 87552, Note_on_c, 7, 67, 109
1, 87552, Note_on_c, 3, 72, 59
1, 87552, Note_on_c, 2, 72, 92
1, 87552, Note_on_c, 2, 84, 82
1, 87552, Note_on_c, 1, 36, 117
1, 87552, Note_on_c, 9, 36, 110
1, 87552, Note_on_c, 9, 42, 87
1, 87552, Note_on_c, 9, 54, 34
1, 87552, Note_on_c, 9, 69, 43
1, 87556, Note_off_c, 9, 69, 43
1, 87556, Note_off_c, 9, 54, 34
1, 87556, Note_off_c, 9, 42, 87
1, 87556, Note_off_c, 9, 36, 110
1, 87640, Note_off_c, 3, 72, 59
1, 87640, Pitch_bend_c, 1, 8192
1, 87648, Note_on_c, 3, 72, 62
1, 87648, Pitch_bend_c, 1, 8009
1, 87648, Note_on_c, 9, 54, 47
1, 87652, Note_off_c, 9, 54, 47
1, 87656, Pitch_bend_c, 1, 7827
1, 87664, Pitch_bend_c, 1, 7644
1, 87672, Pitch_bend_c, 1, 7461
1, 87680, Pitch_bend_c, 1, 7278
1, 87688, Pitch_bend_c, 1, 7096
1, 87696, Pitch_bend_c, 1, 6913
1, 87704, Pitch_bend_c, 1, 6730
1, 87712, Pitch_bend_c, 1, 6548
1, 87720, Pitch_bend_c, 1, 6365
1, 87728, Pitch_bend_c, 1, 6182
1, 87736, Note_off_c, 3, 72, 62
1, 87736, Note_off_c, 2, 84, 82
1, 87736, Note_off_c, 2, 72, 92
1, 87736, Note_off_c, 7, 67, 109
1, 87736, Note_off_c, 7, 64, 108
1, 87736, Note_off_c, 7, 60, 117
1, 87736, Note_off_c, 8, 48, 120
1, 87736, Pitch_bend_c, 1, 6000
1, 87744, Note_on_c, 3, 72, 69
1, 87744, Note_on_c, 2, 79, 83
1, 87744, Note_on_c, 2, 91, 94
1, 87744, Pitch_bend_c, 1, 5817
1, 87744, Note_on_c, 9, 46, 106
1, 87744, Note_on_c, 9, 54, 32
1, 87744, Note_on_c, 9, 69, 37
1, 87748, Note_off_c, 9, 69, 37
1, 87748, Note_off_c, 9, 54, 32
1, 87748, Note_off_c, 9, 46, 106
1, 87752, Pitch_bend_c, 1, 5634
1, 87760, Pitch_bend_c, 1, 5451
1, 87768, Pitch_bend_c, 1, 5269
1, 87776, Pitch_bend_c, 1, 5086
1, 87784, Pitch_bend_c, 1, 4903
1, 87792, Pitch_bend_c, 1, 4720
1, 87800, Pitch_bend_c, 1, 4538
1, 87808, Pitch_bend_c, 1, 4355
1, 87816, Pitch_bend_c, 1, 4172
1, 87824, Pitch_bend_c, 1, 3990
1, 87828, Note_off_c, 1, 36, 117
1, 87832, Note_off_c, 3, 72, 69
1, 87832, Pitch_bend_c, 1, 3807
1, 87840, Note_on_c, 3, 72, 66
1, 87840, Pitch_bend_c, 1, 3624
1, 87840, Note_on_c, 9, 54, 33
1, 87840, Note_on_c, 9, 69, 42
1, 87844, Note_off_c, 9, 69, 42
1, 87844, Note_off_c, 9, 54, 33
1, 87848, Pitch_bend_c, 1, 3441
1, 87856, Pitch_bend_c, 1, 3259
1, 87900, Pitch_bend_c, 1, 8192
1, 87920, Note_off_c, 15, 60, 127
1, 87928, Note_off_c, 3, 72, 66
1, 87928, Note_off_c, 2, 91, 94
1, 87928, Note_off_c, 2, 79, 83
1, 87936, Note_on_c, 8, 52, 123
1, 87936, Note_on_c, 7, 60, 113
1, 87936, Note_on_c, 7, 64, 109
1, 87936, Note_on_c, 7, 67, 103
1, 87936, Note_on_c, 3, 72, 69
1, 87936, Note_on_c, 2, 76, 97
1, 87936, Note_on_c, 2, 88, 84
1, 87936, Note_on_c, 9, 39, 86
1, 87936, Note_on_c, 1, 28, 100
1, 87936, Note_on_c, 9, 36, 115
1, 87936, Note_on_c, 9, 38, 114
1, 87936, Note_on_c, 9, 42, 82
1, 87936, Note_on_c, 9, 54, 49
1, 87936, Note_on_c, 9, 69, 47
1, 87940, Note_off_c, 9, 69, 47
1, 87940, Note_off_c, 9, 54, 49
1, 87940, Note_off_c, 9, 42, 82
1, 87940, Note_off_c, 9, 38, 114
1, 87940, Note_off_c, 9, 36, 115
1, 87940, Note_off_c, 9, 39, 86
1, 88024, Note_off_c, 3, 72, 69
1, 88024, Note_off_c, 7, 67, 103
1, 88024, Note_off_c, 7, 64, 109
1, 88024, Note_off_c, 7, 60, 113
1, 88024, Note_off_c, 8, 52, 123
1, 88032, Note_on_c, 3, 72, 53
1, 88032, Note_on_c, 9, 54, 34
1, 88036, Note_off_c, 9, 54, 34
1, 88116, Note_off_c, 1, 28, 100
1, 88120, Note_off_c, 3, 72, 53
1, 88120, Note_off_c, 2, 88, 84
1, 88120, Note_off_c, 2, 76, 97
1, 88128, Note_on_c, 8, 53, 127
1, 88128, Note_on_c, 7, 60, 119
1, 88128, Note_on_c, 7, 65, 110
1, 88128, Note_on_c, 7, 69, 118
1, 88128, Note_on_c, 3, 72, 55
1, 88128, Note_on_c, 2, 77, 88
1, 88128, Note_on_c, 2, 89, 84
1, 88128, Note_on_c, 1, 29, 102
1, 88128, Note_on_c, 9, 42, 87
1, 88128, Note_on_c, 9, 54, 45
1, 88128, Note_on_c, 9, 69, 30
1, 88132, Note_off_c, 9, 69, 30
1, 88132, Note_off_c, 9, 54, 45
1, 88132, Note_off_c, 9, 42, 87
1, 88216, Note_off_c, 3, 72, 55
1, 88216, Note_off_c, 7, 69, 118
1, 88216, Note_off_c, 7, 65, 110
1, 88216, Note_off_c, 7, 60, 119
1, 88216, Note_off_c, 8, 53, 127
1, 88224, Note_on_c, 3, 72, 66
1, 88224, Note_on_c, 9, 54, 40
1, 88224, Note_on_c, 9, 69, 35
1, 88228, Note_off_c, 9, 69, 35
1, 88228, Note_off_c, 9, 54, 40
1, 88308, Note_off_c, 1, 29, 102
1, 88312, Note_off_c, 3, 72, 66
1, 88312, Note_off_c, 2, 89, 84
1, 88312, Note_off_c, 2, 77, 88
1, 88320, Note_on_c, 3, 72, 58
1, 88320, Note_on_c, 2, 84, 87
1, 88320, Note_on_c, 2, 96, 88
1, 88320, Note_on_c, 9, 36, 113
1, 88320, Note_on_c, 9, 42, 88
1, 88320, Note_on_c, 9, 54, 44
1, 88320, Note_on_c, 9, 69, 47
1, 88324, Note_off_c, 9, 69, 47
1, 88324, Note_off_c, 9, 54, 44
1, 88324, Note_off_c, 9, 42, 88
1, 88324, Note_off_c, 9, 36, 113
1, 88408, Note_off_c, 3, 72, 58
1, 88416, Note_on_c, 3, 72, 60
1, 88416, Note_on_c, 9, 54, 31
1, 88420, Note_off_c, 9, 54, 31
1, 88504, Note_off_c, 3, 72, 60
1, 88504, Note_off_c, 2, 96, 88
1, 88504, Note_off_c, 2, 84, 87
1, 88512, Note_on_c, 8, 52, 119
1, 88512, Note_on_c, 7, 60, 118
1, 88512, Note_on_c, 7, 64, 111
1, 88512, Note_on_c, 7, 67, 114
1, 88512, Note_on_c, 3, 72, 63
1, 88512, Note_on_c, 2, 89, 88
1, 88512, Note_on_c, 2, 101, 82
1, 88512, Note_on_c, 1, 28, 119
1, 88512, Note_on_c, 9, 42, 77
1, 88512, Note_on_c, 9, 54, 35
1, 88512, Note_on_c, 9, 69, 41
1, 88516, Note_off_c, 9, 69, 41
1, 88516, Note_off_c, 9, 54, 35
1, 88516, Note_off_c, 9, 42, 77
1, 88600, Note_off_c, 3, 72, 63
1, 88600, Note_off_c, 7, 67, 114
1, 88600, Note_off_c, 7, 64, 111
1, 88600, Note_off_c, 7, 60, 118
1, 88600, Note_off_c, 8, 52, 119
1, 88608, Note_on_c, 3, 72, 59
1, 88608, Note_on_c, 9, 54, 35
1, 88608, Note_on_c, 9, 69, 30
1, 88612, Note_off_c, 9, 69, 30
1, 88612, Note_off_c, 9, 54, 35
1, 88692, Note_off_c, 1, 28, 119
1, 88696, Note_off_c, 3, 72, 59
1, 88696, Note_off_c, 2, 101, 82
1, 88696, Note_off_c, 2, 89, 88
1, 88704, Note_on_c, 3, 72, 64
1, 88704, Note_on_c, 9, 39, 88
1, 88704, Note_on_c, 9, 36, 110
1, 88704, Note_on_c, 9, 38, 123
1, 88704, Note_on_c, 9, 42, 93
1, 88704, Note_on_c, 9, 54, 30
1, 88704, Note_on_c, 9, 69, 43
1, 88708, Note_off_c, 9, 69, 43
1, 88708, Note_off_c, 9, 54, 30
1, 88708, Note_off_c, 9, 42, 93
1, 88708, Note_off_c, 9, 38, 123
1, 88708, Note_off_c, 9, 36, 110
1, 88708, Note_off_c, 9, 39, 88
1, 88792, Note_off_c, 3, 72, 64
1, 88800, Note_on_c, 3, 72, 63
1, 88800, Note_on_c, 9, 54, 43
1, 88804, Note_off_c, 9, 54, 43
1, 88888, Note_off_c, 3, 72, 63
1, 88896, Note_on_c, 8, 53, 115
1, 88896, Note_on_c, 7, 60, 108
1, 88896, Note_on_c, 7, 65, 109
1, 88896, Note_on_c, 7, 69, 118
1, 88896, Note_on_c, 3, 72, 56
1, 88896, Note_on_c, 2, 88, 94
1, 88896, Note_on_c, 2, 100, 89
1, 88896, Note_on_c, 1, 29, 106
1, 88896, Note_on_c, 9, 42, 94
1, 88896, Note_on_c, 9, 54, 43
1, 88896, Note_on_c, 9, 69, 44
1, 88900, Note_off_c, 9, 69, 44
1, 88900, Note_off_c, 9, 54, 43
1, 88900, Note_off_c, 9, 42, 94
1, 88984, Note_off_c, 3, 72, 56
1, 88984, Note_off_c, 7, 69, 118
1, 88984, Note_off_c, 7, 65, 109
1, 88984, Note_off_c, 7, 60, 108
1, 88984, Note_off_c, 8, 53, 115
1, 88992, Note_on_c, 3, 72, 69
1, 88992, Note_on_c, 9, 54, 41
1, 88992, Note_on_c, 9, 69, 39
1, 88996, Note_off_c, 9, 69, 39
1, 88996, Note_off_c, 9, 54, 41
1, 89076, Note_off_c, 1, 29, 106
1, 89080, Note_off_c, 3, 72, 69
1, 89080, Note_off_c, 2, 100, 89
1, 89080, Note_off_c, 2, 88, 94
1, 89088, Note_on_c, 3, 72, 59
1, 89088, Note_on_c, 9, 36, 119
1, 89088, Note_on_c, 9, 42, 94
1, 89088, Note_on_c, 9, 54, 41
1, 89088, Note_on_c, 9, 69, 47
1, 89092, Note_off_c, 9, 69, 47
1, 89092, Note_off_c, 9, 54, 41
1, 89092, Note_off_c, 9, 42, 94
1, 89092, Note_off_c, 9, 36, 119
1, 89176, Note_off_c, 3, 72, 59
1, 89184, Note_on_c, 3, 72, 63
1, 89184, Note_on_c, 9, 54, 37
1, 89188, Note_off_c, 9, 54, 37
1, 89272, Note_off_c, 3, 72, 63
1, 89280, Note_on_c, 8, 52, 116
1, 89280, Note_on_c, 7, 60, 119
1, 89280, Note_on_c, 7, 64, 106
1, 89280, Note_on_c, 7, 67, 113
1, 89280, Note_on_c, 3, 72, 56
1, 89280, Note_on_c, 2, 84, 93
1, 89280, Note_on_c, 2, 96, 80
1, 89280, Note_on_c, 1, 28, 113
1, 89280, Note_on_c, 9, 46, 100
1, 89280, Note_on_c, 9, 54, 46
1, 89280, Note_on_c, 9, 69, 43
1, 89284, Note_off_c, 9, 69, 43
1, 89284, Note_off_c, 9, 54, 46
1, 89284, Note_off_c, 9, 46, 100
1, 89368, Note_off_c, 3, 72, 56
1, 89368, Note_off_c, 7, 67, 113
1, 89368, Note_off_c, 7, 64, 106
1, 89368, Note_off_c, 7, 60, 119
1, 89368, Note_off_c, 8, 52, 116
1, 89376, Note_on_c, 3, 72, 67
1, 89376, Note_on_c, 9, 54, 38
1, 89376, Note_on_c, 9, 69, 48
1, 89380, Note_off_c, 9, 69, 48
1, 89380, Note_off_c, 9, 54, 38
1, 89460, Note_off_c, 1, 28, 113
1, 89464, Note_off_c, 3, 72, 67
1, 89464, Note_off_c, 2, 96, 80
1, 89464, Note_off_c, 2, 84, 93
1, 89472, Note_on_c, 3, 72, 68
1, 89472, Note_on_c, 9, 39, 98
1, 89472, Note_on_c, 9, 36, 108
1, 89472, Note_on_c, 9, 38, 120
1, 89472, Note_on_c, 9, 42, 75
1, 89472, Note_on_c, 9, 54, 42
1, 89472, Note_on_c, 9, 69, 43
1, 89476, Note_off_c, 9, 69, 43
1, 89476, Note_off_c, 9, 54, 42
1, 89476, Note_off_c, 9, 42, 75
1, 89476, Note_off_c, 9, 38, 120
1, 89476, Note_off_c, 9, 36, 108
1, 89476, Note_off_c, 9, 39, 98
1, 89560, Note_off_c, 3, 72, 68
1, 89568, Note_on_c, 3, 72, 69
1, 89568, Note_on_c, 9, 54, 32
1, 89572, Note_off_c, 9, 54, 32
1, 89656, Note_off_c, 3, 72, 69
1, 89664, Note_on_c, 8, 53, 118
1, 89664, Note_on_c, 7, 60, 121
1, 89664, Note_on_c, 7, 65, 107
1, 89664, Note_on_c, 7, 69, 107
1, 89664, Note_on_c, 3, 72, 68
1, 89664, Note_on_c, 2, 79, 95
1, 89664, Note_on_c, 2, 91, 97
1, 89664, Note_on_c, 1, 29, 119
1, 89664, Note_on_c, 9, 42, 90
1, 89664, Note_on_c, 9, 54, 42
1, 89664, Note_on_c, 9, 69, 46
1, 89668, Note_off_c, 9, 69, 46
1, 89668, Note_off_c, 9, 54, 42
1, 89668, Note_off_c, 9, 42, 90
1, 89752, Note_off_c, 3, 72, 68
1, 89752, Note_off_c, 7, 69, 107
1, 89752, Note_off_c, 7, 65, 107
1, 89752, Note_off_c, 7, 60, 121
1, 89752, Note_off_c, 8, 53, 118
1, 89760, Note_on_c, 3, 72, 53
1, 89760, Note_on_c, 9, 54, 40
1, 89760, Note_on_c, 9, 69, 31
1, 89764, Note_off_c, 9, 69, 31
1, 89764, Note_off_c, 9, 54, 40
1, 89796, Note_off_c, 1, 29, 119
1, 89848, Note_off_c, 3, 72, 53
1, 89848, Note_off_c, 2, 91, 97
1, 89848, Note_off_c, 2, 79, 95
1, 89856, Note_on_c, 8, 55, 124
1, 89856, Note_on_c, 7, 62, 105
1, 89856, Note_on_c, 7, 67, 115
1, 89856, Note_on_c, 7, 71, 117
1, 89856, Note_on_c, 3, 72, 61
1, 89856, Note_on_c, 1, 31, 112
1, 89856, Note_on_c, 9, 36, 108
1, 89856, Note_on_c, 9, 42, 86
1, 89856, Note_on_c, 9, 54, 34
1, 89856, Note_on_c, 9, 69, 45
1, 89860, Note_off_c, 9, 69, 45
1, 89860, Note_off_c, 9, 54, 34
1, 89860, Note_off_c, 9, 42, 86
1, 89860, Note_off_c, 9, 36, 108
1, 89944, Note_off_c, 3, 72, 61
1, 89952, Note_on_c, 3, 72, 51
1, 89952, Note_on_c, 9, 54, 33
1, 89956, Note_off_c, 9, 54, 33
1, 90036, Note_off_c, 1, 31, 112
1, 90040, Note_off_c, 3, 72, 51
1, 90040, Note_off_c, 7, 71, 117
1, 90040, Note_off_c, 7, 67, 115
1, 90040, Note_off_c, 7, 62, 105
1, 90040, Note_off_c, 8, 55, 124
1, 90048, Note_on_c, 3, 67, 50
1, 90048, Note_on_c, 9, 42, 92
1, 90048, Note_on_c, 9, 54, 41
1, 90048, Note_on_c, 9, 69, 34
1, 90052, Note_off_c, 9, 69, 34
1, 90052, Note_off_c, 9, 54, 41
1, 90052, Note_off_c, 9, 42, 92
1, 90136, Note_off_c, 3, 67, 50
1, 90144, Note_on_c, 9, 54, 32
1, 90144, Note_on_c, 9, 69, 45
1, 90148, Note_off_c, 9, 69, 45
1, 90148, Note_off_c, 9, 54, 32
1, 90240, Note_on_c, 8, 55, 127
1, 90240, Note_on_c, 7, 62, 110
1, 90240, Note_on_c, 7, 67, 113
1, 90240, Note_on_c, 7, 71, 121
1, 90240, Note_on_c, 3, 72, 53
1, 90240, Note_on_c, 2, 86, 86
1, 90240, Note_on_c, 2, 98, 89
1, 90240, Note_on_c, 9, 39, 95
1, 90240, Note_on_c, 1, 31, 118
1, 90240, Note_on_c, 9, 36, 110
1, 90240, Note_on_c, 9, 38, 109
1, 90240, Note_on_c, 9, 42, 82
1, 90240, Note_on_c, 9, 54, 36
1, 90240, Note_on_c, 9, 69, 30
1, 90244, Note_off_c, 9, 69, 30
1, 90244, Note_off_c, 9, 54, 36
1, 90244, Note_off_c, 9, 42, 82
1, 90244, Note_off_c, 9, 38, 109
1, 90244, Note_off_c, 9, 36, 110
1, 90244, Note_off_c, 9, 39, 95
1, 90328, Note_off_c, 3, 72, 53
1, 90336, Note_on_c, 3, 72, 69
1, 90336, Note_on_c, 9, 54, 39
1, 90340, Note_off_c, 9, 54, 39
1, 90424, Note_off_c, 3, 72, 69
1, 90424, Note_off_c, 7, 71, 121
1, 90424, Note_off_c, 7, 67, 113
1, 90424, Note_off_c, 7, 62, 110
1, 90424, Note_off_c, 8, 55, 127
1, 90432, Note_on_c, 3, 69, 68
1, 90432, Note_on_c, 9, 46, 94
1, 90432, Note_on_c, 9, 54, 43
1, 90432, Note_on_c, 9, 69, 44
1, 90436, Note_off_c, 9, 69, 44
1, 90436, Note_off_c, 9, 54, 43
1, 90436, Note_off_c, 9, 46, 94
1, 90504, Note_off_c, 2, 98, 89
1, 90504, Note_off_c, 2, 86, 86
1, 90516, Note_off_c, 1, 31, 118
1, 90520, Note_off_c, 3, 69, 68
1, 90528, Note_on_c, 3, 67, 61
1, 90528, Note_on_c, 9, 54, 45
1, 90528, Note_on_c, 9, 69, 33
1, 90532, Note_off_c, 9, 69, 33
1, 90532, Note_off_c, 9, 54, 45
1, 90616, Note_off_c, 3, 67, 61
1, 90624, Tempo, 500000
1, 90624, Note_on_c, 10, 64, 70
1, 90624, Note_on_c, 8, 50, 106
1, 90624, Note_on_c, 7, 60, 95
1, 90624, Note_on_c, 7, 64, 102
1, 90624, Note_on_c, 5, 50, 100
1, 90624, Note_on_c, 5, 53, 89
1, 90624, Note_on_c, 5, 57, 97
1, 90624, Note_on_c, 1, 26, 95
1, 90624, Note_on_c, 9, 36, 99
1, 90624, Note_on_c, 9, 42, 64
1, 90624, Note_on_c, 9, 49, 101
1, 90624, Note_on_c, 9, 54, 23
1, 90624, Note_on_c, 9, 69, 25
1, 90628, Note_off_c, 9, 69, 25
1, 90628, Note_off_c, 9, 54, 23
1, 90628, Note_off_c, 9, 49, 101
1, 90628, Note_off_c, 9, 42, 64
1, 90628, Note_off_c, 9, 36, 99
1, 90720, Note_on_c, 9, 54, 19
1, 90724, Note_off_c, 9, 54, 19
1, 90808, Note_off_c, 7, 64, 102
1, 90808, Note_off_c, 7, 60, 95
1, 90816, Note_on_c, 7, 62, 106
1, 90816, Note_on_c, 7, 65, 93
1, 90816, Note_on_c, 9, 46, 95
1, 90816, Note_on_c, 9, 54, 19
1, 90816, Note_on_c, 9, 69, 16
1, 90820, Note_off_c, 9, 69, 16
1, 90820, Note_off_c, 9, 54, 19
1, 90820, Note_off_c, 9, 46, 95
1, 90912, Note_on_c, 9, 54, 25
1, 90912, Note_on_c, 9, 69, 33
1, 90916, Note_off_c, 9, 69, 33
1, 90916, Note_off_c, 9, 54, 25
1, 91000, Note_off_c, 7, 65, 93
1, 91000, Note_off_c, 7, 62, 106
1, 91008, Note_on_c, 11, 72, 83
1, 91008, Note_on_c, 2, 72, 75
1, 91008, Note_on_c, 9, 39, 79
1, 91008, Note_on_c, 9, 36, 102
1, 91008, Note_on_c, 9, 42, 65
1, 91008, Note_on_c, 9, 54, 22
1, 91008, Note_on_c, 9, 69, 27
1, 91012, Note_off_c, 9, 69, 27
1, 91012, Note_off_c, 9, 54, 22
1, 91012, Note_off_c, 9, 42, 65
1, 91012, Note_off_c, 9, 36, 102
1, 91012, Note_off_c, 9, 39, 79
1, 91052, Note_off_c, 11, 72, 83
1, 91104, Note_on_c, 11, 72, 78
1, 91104, Note_on_c, 9, 54, 15
1, 91108, Note_off_c, 9, 54, 15
1, 91152, Note_off_c, 11, 72, 78
1, 91192, Note_off_c, 2, 72, 75
1, 91200, Note_on_c, 15, 60, 112
1, 91200, Note_on_c, 11, 79, 90
1, 91200, Note_on_c, 2, 79, 73
1, 91200, Note_on_c, 9, 46, 95
1, 91200, Note_on_c, 9, 54, 28
1, 91200, Note_on_c, 9, 69, 34
1, 91204, Note_off_c, 9, 69, 34
1, 91204, Note_off_c, 9, 54, 28
1, 91204, Note_off_c, 9, 46, 95
1, 91248, Note_off_c, 11, 79, 90
1, 91288, Note_off_c, 2, 79, 73
1, 91296, Note_on_c, 9, 54, 15
1, 91296, Note_on_c, 9, 69, 29
1, 91300, Note_off_c, 9, 69, 29
1, 91300, Note_off_c, 9, 54, 15
1, 91376, Note_off_c, 15, 60, 112
1, 91392, Note_on_c, 15, 76, 110
1, 91392, Note_on_c, 9, 36, 101
1, 91392, Note_on_c, 9, 42, 61
1, 91392, Note_on_c, 9, 54, 17
1, 91392, Note_on_c, 9, 69, 19
1, 91396, Note_off_c, 9, 69, 19
1, 91396, Note_off_c, 9, 54, 17
1, 91396, Note_off_c, 9, 42, 61
1, 91396, Note_off_c, 9, 36, 101
1, 91488, Note_on_c, 9, 54, 15
1, 91492, Note_off_c, 9, 54, 15
1, 91568, Note_off_c, 15, 76, 110
1, 91584, Note_on_c, 15, 74, 102
1, 91584, Note_on_c, 11, 72, 85
1, 91584, Note_on_c, 2, 72, 64
1, 91584, Note_on_c, 9, 46, 86
1, 91584, Note_on_c, 9, 54, 31
1, 91584, Note_on_c, 9, 69, 28
1, 91588, Note_off_c, 9, 69, 28
1, 91588, Note_off_c, 9, 54, 31
1, 91588, Note_off_c, 9, 46, 86
1, 91620, Note_off_c, 11, 72, 85
1, 91680, Note_on_c, 11, 72, 74
1, 91680, Note_on_c, 9, 54, 28
1, 91680, Note_on_c, 9, 69, 27
1, 91684, Note_off_c, 9, 69, 27
1, 91684, Note_off_c, 9, 54, 28
1, 91720, Note_off_c, 11, 72, 74
1, 91760, Note_off_c, 15, 74, 102
1, 91768, Note_off_c, 2, 72, 64
1, 91776, Note_on_c, 15, 74, 107
1, 91776, Note_on_c, 11, 79, 78
1, 91776, Note_on_c, 2, 79, 69
1, 91776, Note_on_c, 9, 39, 85
1, 91776, Note_on_c, 9, 36, 99
1, 91776, Note_on_c, 9, 42, 74
1, 91776, Note_on_c, 9, 54, 24
1, 91776, Note_on_c, 9, 69, 32
1, 91780, Note_off_c, 9, 69, 32
1, 91780, Note_off_c, 9, 54, 24
1, 91780, Note_off_c, 9, 42, 74
1, 91780, Note_off_c, 9, 36, 99
1, 91780, Note_off_c, 9, 39, 85
1, 91832, Note_off_c, 11, 79, 78
1, 91864, Note_off_c, 2, 79, 69
1, 91872, Note_on_c, 9, 54, 15
1, 91876, Note_off_c, 9, 54, 15
1, 91952, Note_off_c, 15, 74, 107
1, 91956, Note_off_c, 1, 26, 95
1, 91968, Note_on_c, 15, 72, 103
1, 91968, Note_on_c, 9, 46, 85
1, 91968, Note_on_c, 9, 54, 22
1, 91968, Note_on_c, 9, 69, 18
1, 91972, Note_off_c, 9, 69, 18
1, 91972, Note_off_c, 9, 54, 22
1, 91972, Note_off_c, 9, 46, 85
1, 92064, Note_on_c, 9, 54, 23
1, 92064, Note_on_c, 9, 69, 32
1, 92068, Note_off_c, 9, 69, 32
1, 92068, Note_off_c, 9, 54, 23
1, 92144, Note_off_c, 5, 57, 97
1, 92144, Note_off_c, 5, 53, 89
1, 92144, Note_off_c, 5, 50, 100
1, 92152, Note_off_c, 8, 50, 106
1, 92152, Note_off_c, 10, 64, 70
1, 92160, Note_on_c, 10, 65, 58
1, 92160, Note_on_c, 8, 46, 110
1, 92160, Note_on_c, 7, 60, 93
1, 92160, Note_on_c, 7, 64, 96
1, 92160, Note_on_c, 5, 50, 86
1, 92160, Note_on_c, 5, 53, 104
1, 92160, Note_on_c, 5, 58, 85
1, 92160, Note_on_c, 1, 34, 90
1, 92160, Note_on_c, 9, 36, 92
1, 92160, Note_on_c, 9, 42, 74
1, 92160, Note_on_c, 9, 54, 26
1, 92160, Note_on_c, 9, 69, 31
1, 92164, Note_off_c, 9, 69, 31
1, 92164, Note_off_c, 9, 54, 26
1, 92164, Note_off_c, 9, 42, 74
1, 92164, Note_off_c, 9, 36, 92
1, 92256, Note_on_c, 9, 54, 23
1, 92260, Note_off_c, 9, 54, 23
1, 92336, Note_off_c, 15, 72, 103
1, 92344, Note_off_c, 7, 64, 96
1, 92344, Note_off_c, 7, 60, 93
1, 92352, Note_on_c, 15, 69, 96
1, 92352, Note_on_c, 7, 62, 93
1, 92352, Note_on_c, 7, 65, 99
1, 92352, Note_on_c, 9, 46, 92
1, 92352, Note_on_c, 9, 54, 20
1, 92352, Note_on_c, 9, 69, 32
1, 92356, Note_off_c, 9, 69, 32
1, 92356, Note_off_c, 9, 54, 20
1, 92356, Note_off_c, 9, 46, 92
1, 92432, Note_off_c, 15, 69, 96
1, 92448, Note_on_c, 15, 72, 100
1, 92448, Note_on_c, 9, 54, 29
1, 92448, Note_on_c, 9, 69, 26
1, 92452, Note_off_c, 9, 69, 26
1, 92452, Note_off_c, 9, 54, 29
1, 92536, Note_off_c, 7, 65, 99
1, 92536, Note_off_c, 7, 62, 93
1, 92544, Note_on_c, 11, 72, 90
1, 92544, Note_on_c, 2, 72, 69
1, 92544, Note_on_c, 9, 39, 78
1, 92544, Note_on_c, 9, 36, 106
1, 92544, Note_on_c, 9, 42, 67
1, 92544, Note_on_c, 9, 54, 33
1, 92544, Note_on_c, 9, 69, 15
1, 92548, Note_off_c, 9, 69, 15
1, 92548, Note_off_c, 9, 54, 33
1, 92548, Note_off_c, 9, 42, 67
1, 92548, Note_off_c, 9, 36, 106
1, 92548, Note_off_c, 9, 39, 78
1, 92580, Note_off_c, 11, 72, 90
1, 92624, Note_off_c, 15, 72, 100
1, 92640, Note_on_c, 11, 72, 75
1, 92640, Note_on_c, 9, 54, 15
1, 92644, Note_off_c, 9, 54, 15
1, 92696, Note_off_c, 11, 72, 75
1, 92728, Note_off_c, 2, 72, 69
1, 92736, Note_on_c, 15, 72, 97
1, 92736, Note_on_c, 11, 79, 75
1, 92736, Note_on_c, 2, 79, 73
1, 92736, Note_on_c, 9, 46, 81
1, 92736, Note_on_c, 9, 54, 17
1, 92736, Note_on_c, 9, 69, 19
1, 92740, Note_off_c, 9, 69, 19
1, 92740, Note_off_c, 9, 54, 17
1, 92740, Note_off_c, 9, 46, 81
1, 92792, Note_off_c, 11, 79, 75
1, 92824, Note_off_c, 2, 79, 73
1, 92832, Note_on_c, 9, 54, 32
1, 92832, Note_on_c, 9, 69, 21
1, 92836, Note_off_c, 9, 69, 21
1, 92836, Note_off_c, 9, 54, 32
1, 92912, Note_off_c, 15, 72, 97
1, 92928, Note_on_c, 15, 69, 100
1, 92928, Note_on_c, 9, 36, 103
1, 92928, Note_on_c, 9, 42, 75
1, 92928, Note_on_c, 9, 54, 28
1, 92928, Note_on_c, 9, 69, 31
1, 92932, Note_off_c, 9, 69, 31
1, 92932, Note_off_c, 9, 54, 28
1, 92932, Note_off_c, 9, 42, 75
1, 92932, Note_off_c, 9, 36, 103
1, 93024, Note_on_c, 9, 54, 31
1, 93028, Note_off_c, 9, 54, 31
1, 93104, Note_off_c, 15, 69, 100
1, 93120, Note_on_c, 15, 72, 102
1, 93120, Note_on_c, 11, 72, 75
1, 93120, Note_on_c, 2, 72, 81
1, 93120, Note_on_c, 9, 46, 80
1, 93120, Note_on_c, 9, 54, 23
1, 93120, Note_on_c, 9, 69, 18
1, 93124, Note_off_c, 9, 69, 18
1, 93124, Note_off_c, 9, 54, 23
1, 93124, Note_off_c, 9, 46, 80
1, 93160, Note_off_c, 11, 72, 75
1, 93216, Note_on_c, 11, 72, 79
1, 93216, Note_on_c, 9, 54, 22
1, 93216, Note_on_c, 9, 69, 18
1, 93220, Note_off_c, 9, 69, 18
1, 93220, Note_off_c, 9, 54, 22
1, 93264, Note_off_c, 11, 72, 79
1, 93304, Note_off_c, 2, 72, 81
1, 93312, Note_on_c, 11, 79, 80
1, 93312, Note_on_c, 2, 79, 78
1, 93312, Note_on_c, 9, 39, 86
1, 93312, Note_on_c, 9, 36, 103
1, 93312, Note_on_c, 9, 42, 66
1, 93312, Note_on_c, 9, 54, 24
1, 93312, Note_on_c, 9, 69, 28
1, 93316, Note_off_c, 9, 69, 28
1, 93316, Note_off_c, 9, 54, 24
1, 93316, Note_off_c, 9, 42, 66
1, 93316, Note_off_c, 9, 36, 103
1, 93316, Note_off_c, 9, 39, 86
1, 93372, Note_off_c, 11, 79, 80
1, 93400, Note_off_c, 2, 79, 78
1, 93408, Note_on_c, 9, 54, 23
1, 93412, Note_off_c, 9, 54, 23
1, 93416, Pitch_bend_c, 1, 8192
1, 93424, Pitch_bend_c, 1, 8083
1, 93432, Pitch_bend_c, 1, 7973
1, 93440, Pitch_bend_c, 1, 7864
1, 93448, Pitch_bend_c, 1, 7754
1, 93456, Pitch_bend_c, 1, 7645
1, 93464, Pitch_bend_c, 1, 7535
1, 93472, Pitch_bend_c, 1, 7426
1, 93480, Pitch_bend_c, 1, 7316
1, 93488, Pitch_bend_c, 1, 7207
1, 93496, Pitch_bend_c, 1, 7097
1, 93504, Pitch_bend_c, 1, 6988
1, 93504, Note_on_c, 9, 46, 88
1, 93504, Note_on_c, 9, 54, 18
1, 93504, Note_on_c, 9, 69, 24
1, 93508, Note_off_c, 9, 69, 24
1, 93508, Note_off_c, 9, 54, 18
1, 93508, Note_off_c, 9, 46, 88
1, 93512, Pitch_bend_c, 1, 6879
1, 93520, Pitch_bend_c, 1, 6769
1, 93528, Pitch_bend_c, 1, 6660
1, 93536, Pitch_bend_c, 1, 6550
1, 93544, Pitch_bend_c, 1, 6441
1, 93552, Pitch_bend_c, 1, 6331
1, 93560, Pitch_bend_c, 1, 6222
1, 93568, Pitch_bend_c, 1, 6112
1, 93576, Pitch_bend_c, 1, 6003
1, 93584, Pitch_bend_c, 1, 5893
1, 93592, Pitch_bend_c, 1, 5784
1, 93600, Pitch_bend_c, 1, 5675
1, 93600, Note_on_c, 9, 54, 28
1, 93600, Note_on_c, 9, 69, 32
1, 93604, Note_off_c, 9, 69, 32
1, 93604, Note_off_c, 9, 54, 28
1, 93608, Pitch_bend_c, 1, 5565
1, 93616, Pitch_bend_c, 1, 5456
1, 93624, Pitch_bend_c, 1, 5346
1, 93628, Note_off_c, 1, 34, 90
1, 93632, Pitch_bend_c, 1, 5237
1, 93640, Pitch_bend_c, 1, 5127
1, 93648, Pitch_bend_c, 1, 5018
1, 93656, Pitch_bend_c, 1, 4908
1, 93664, Pitch_bend_c, 1, 4799
1, 93672, Pitch_bend_c, 1, 4689
1, 93680, Note_off_c, 5, 58, 85
1, 93680, Note_off_c, 5, 53, 104
1, 93680, Note_off_c, 5, 50, 86
1, 93680, Pitch_bend_c, 1, 4580
1, 93688, Note_off_c, 8, 46, 110
1, 93688, Note_off_c, 10, 65, 58
1, 93688, Pitch_bend_c, 1, 8192
1, 93696, Note_on_c, 10, 65, 65
1, 93696, Note_on_c, 8, 41, 104
1, 93696, Note_on_c, 7, 60, 96
1, 93696, Note_on_c, 7, 64, 98
1, 93696, Note_on_c, 5, 53, 87
1, 93696, Note_on_c, 5, 57, 87
1, 93696, Note_on_c, 5, 60, 94
1, 93696, Note_on_c, 1, 29, 101
1, 93696, Note_on_c, 9, 36, 93
1, 93696, Note_on_c, 9, 42, 66
1, 93696, Note_on_c, 9, 54, 29
1, 93696, Note_on_c, 9, 69, 29
1, 93700, Note_off_c, 9, 69, 29
1, 93700, Note_off_c, 9, 54, 29
1, 93700, Note_off_c, 9, 42, 66
1, 93700, Note_off_c, 9, 36, 93
1, 93792, Note_on_c, 9, 54, 23
1, 93796, Note_off_c, 9, 54, 23
1, 93880, Note_off_c, 7, 64, 98
1, 93880, Note_off_c, 7, 60, 96
1, 93888, Note_on_c, 7, 62, 103
1, 93888, Note_on_c, 7, 65, 101
1, 93888, Note_on_c, 9, 46, 77
1, 93888, Note_on_c, 9, 54, 18
1, 93888, Note_on_c, 9, 69, 15
1, 93892, Note_off_c, 9, 69, 15
1, 93892, Note_off_c, 9, 54, 18
1, 93892, Note_off_c, 9, 46, 77
1, 93984, Note_on_c, 9, 54, 29
1, 93984, Note_on_c, 9, 69, 27
1, 93988, Note_off_c, 9, 69, 27
1, 93988, Note_off_c, 9, 54, 29
1, 94072, Note_off_c, 7, 65, 101
1, 94072, Note_off_c, 7, 62, 103
1, 94080, Note_on_c, 11, 72, 79
1, 94080, Note_on_c, 2, 72, 65
1, 94080, Note_on_c, 9, 39, 86
1, 94080, Note_on_c, 9, 36, 106
1, 94080, Note_on_c, 9, 42, 79
1, 94080, Note_on_c, 9, 54, 19
1, 94080, Note_on_c, 9, 69, 33
1, 94084, Note_off_c, 9, 69, 33
1, 94084, Note_off_c, 9, 54, 19
1, 94084, Note_off_c, 9, 42, 79
1, 94084, Note_off_c, 9, 36, 106
1, 94084, Note_off_c, 9, 39, 86
1, 94112, Note_off_c, 11, 72, 79
1, 94176, Note_on_c, 11, 72, 86
1, 94176, Note_on_c, 9, 54, 19
1, 94180, Note_off_c, 9, 54, 19
1, 94224, Note_off_c, 11, 72, 86
1, 94256, Note_off_c, 15, 72, 102
1, 94264, Note_off_c, 2, 72, 65
1, 94272, Note_on_c, 15, 60, 110
1, 94272, Note_on_c, 11, 79, 84
1, 94272, Note_on_c, 2, 79, 69
1, 94272, Note_on_c, 9, 46, 76
1, 94272, Note_on_c, 9, 54, 21
1, 94272, Note_on_c, 9, 69, 23
1, 94276, Note_off_c, 9, 69, 23
1, 94276, Note_off_c, 9, 54, 21
1, 94276, Note_off_c, 9, 46, 76
1, 94328, Note_off_c, 11, 79, 84
1, 94352, Note_off_c, 15, 60, 110
1, 94360, Note_off_c, 2, 79, 69
1, 94368, Note_on_c, 15, 65, 101
1, 94368, Note_on_c, 9, 54, 29
1, 94368, Note_on_c, 9, 69, 32
1, 94372, Note_off_c, 9, 69, 32
1, 94372, Note_off_c, 9, 54, 29
1, 94464, Note_on_c, 9, 36, 108
1, 94464, Note_on_c, 9, 42, 70
1, 94464, Note_on_c, 9, 54, 17
1, 94464, Note_on_c, 9, 69, 27
1, 94468, Note_off_c, 9, 69, 27
1, 94468, Note_off_c, 9, 54, 17
1, 94468, Note_off_c, 9, 42, 70
1, 94468, Note_off_c, 9, 36, 108
1, 94560, Note_on_c, 9, 54, 21
1, 94564, Note_off_c, 9, 54, 21
1, 94640, Note_off_c, 15, 65, 101
1, 94656, Note_on_c, 15, 64, 110
1, 94656, Note_on_c, 11, 72, 90
1, 94656, Note_on_c, 2, 72, 80
1, 94656, Note_on_c, 9, 46, 77
1, 94656, Note_on_c, 9, 54, 21
1, 94656, Note_on_c, 9, 69, 26
1, 94660, Note_off_c, 9, 69, 26
1, 94660, Note_off_c, 9, 54, 21
1, 94660, Note_off_c, 9, 46, 77
1, 94684, Note_off_c, 11, 72, 90
1, 94752, Note_on_c, 11, 72, 84
1, 94752, Note_on_c, 9, 54, 34
1, 94752, Note_on_c, 9, 69, 21
1, 94756, Note_off_c, 9, 69, 21
1, 94756, Note_off_c, 9, 54, 34
1, 94784, Note_off_c, 11, 72, 84
1, 94832, Note_off_c, 15, 64, 110
1, 94840, Note_off_c, 2, 72, 80
1, 94848, Note_on_c, 15, 62, 111
1, 94848, Note_on_c, 11, 79, 82
1, 94848, Note_on_c, 2, 79, 79
1, 94848, Note_on_c, 9, 39, 81
1, 94848, Note_on_c, 9, 36, 93
1, 94848, Note_on_c, 9, 42, 62
1, 94848, Note_on_c, 9, 54, 27
1, 94848, Note_on_c, 9, 69, 32
1, 94852, Note_off_c, 9, 69, 32
1, 94852, Note_off_c, 9, 54, 27
1, 94852, Note_off_c, 9, 42, 62
1, 94852, Note_off_c, 9, 36, 93
1, 94852, Note_off_c, 9, 39, 81
1, 94912, Note_off_c, 11, 79, 82
1, 94936, Note_off_c, 2, 79, 79
1, 94944, Note_on_c, 9, 54, 23
1, 94948, Note_off_c, 9, 54, 23
1, 95024, Note_off_c, 15, 62, 111
1, 95040, Note_on_c, 15, 60, 111
1, 95040, Note_on_c, 9, 46, 92
1, 95040, Note_on_c, 9, 54, 32
1, 95040, Note_on_c, 9, 69, 33
1, 95044, Note_off_c, 9, 69, 33
1, 95044, Note_off_c, 9, 54, 32
1, 95044, Note_off_c, 9, 46, 92
1, 95120, Note_off_c, 15, 60, 111
1, 95136, Note_on_c, 15, 60, 96
1, 95136, Note_on_c, 9, 54, 30
1, 95136, Note_on_c, 9, 69, 30
1, 95140, Note_off_c, 9, 69, 30
1, 95140, Note_off_c, 9, 54, 30
1, 95232, Note_on_c, 9, 36, 93
1, 95232, Note_on_c, 9, 42, 78
1, 95232, Note_on_c, 9, 54, 29
1, 95232, Note_on_c, 9, 69, 29
1, 95236, Note_off_c, 9, 69, 29
1, 95236, Note_off_c, 9, 54, 29
1, 95236, Note_off_c, 9, 42, 78
1, 95236, Note_off_c, 9, 36, 93
1, 95328, Note_on_c, 9, 54, 23
1, 95332, Note_off_c, 9, 54, 23
1, 95424, Note_on_c, 9, 46, 80
1, 95424, Note_on_c, 9, 54, 18
1, 95424, Note_on_c, 9, 69, 15
1, 95428, Note_off_c, 9, 69, 15
1, 95428, Note_off_c, 9, 54, 18
1, 95428, Note_off_c, 9, 46, 80
1, 95520, Note_on_c, 9, 54, 29
1, 95520, Note_on_c, 9, 69, 27
1, 95524, Note_off_c, 9, 69, 27
1, 95524, Note_off_c, 9, 54, 29
1, 95616, Note_on_c, 9, 39, 79
1, 95616, Note_on_c, 9, 36, 97
1, 95616, Note_on_c, 9, 42, 72
1, 95616, Note_on_c, 9, 54, 19
1, 95616, Note_on_c, 9, 69, 33
1, 95620, Note_off_c, 9, 69, 33
1, 95620, Note_off_c, 9, 54, 19
1, 95620, Note_off_c, 9, 42, 72
1, 95620, Note_off_c, 9, 36, 97
1, 95620, Note_off_c, 9, 39, 79
1, 95696, Note_off_c, 15, 60, 96
1, 95712, Note_on_c, 9, 54, 19
1, 95716, Note_off_c, 9, 54, 19
1, 95808, Note_on_c, 15, 62, 101
1, 95808, Note_on_c, 10, 55, 60
1, 95808, Note_on_c, 9, 46, 93
1, 95808, Note_on_c, 9, 54, 21
1, 95808, Note_on_c, 9, 69, 23
1, 95812, Note_off_c, 9, 69, 23
1, 95812, Note_off_c, 9, 54, 21
1, 95812, Note_off_c, 9, 46, 93
1, 95864, Note_off_c, 10, 55, 60
1, 95872, Note_on_c, 10, 53, 63
1, 95904, Note_on_c, 9, 54, 29
1, 95904, Note_on_c, 9, 69, 32
1, 95908, Note_off_c, 9, 69, 32
1, 95908, Note_off_c, 9, 54, 29
1, 95928, Note_off_c, 10, 53, 63
1, 95936, Note_on_c, 10, 55, 66
1, 95992, Note_off_c, 10, 55, 66
1, 95996, Note_on_c, 12, 84, 55
1, 96000, Note_on_c, 10, 60, 68
1, 96000, Note_on_c, 9, 36, 105
1, 96000, Note_on_c, 9, 42, 68
1, 96000, Note_on_c, 9, 54, 17
1, 96000, Note_on_c, 9, 69, 27
1, 96004, Note_off_c, 9, 69, 27
1, 96004, Note_off_c, 9, 54, 17
1, 96004, Note_off_c, 9, 42, 68
1, 96004, Note_off_c, 9, 36, 105
1, 96056, Note_off_c, 10, 60, 68
1, 96064, Note_on_c, 10, 59, 71
1, 96080, Note_off_c, 12, 84, 55
1, 96096, Note_on_c, 9, 54, 21
1, 96100, Note_off_c, 9, 54, 21
1, 96120, Note_off_c, 10, 59, 71
1, 96128, Note_on_c, 10, 60, 73
1, 96180, Note_off_c, 1, 29, 101
1, 96184, Note_off_c, 10, 60, 73
1, 96184, Note_on_c, 12, 91, 57
1, 96192, Note_on_c, 10, 67, 76
1, 96192, Note_on_c, 1, 31, 92
1, 96192, Note_on_c, 9, 46, 90
1, 96192, Note_on_c, 9, 54, 21
1, 96192, Note_on_c, 9, 69, 26
1, 96196, Note_off_c, 9, 69, 26
1, 96196, Note_off_c, 9, 54, 21
1, 96196, Note_off_c, 9, 46, 90
1, 96248, Note_off_c, 10, 67, 76
1, 96256, Note_on_c, 10, 65, 78
1, 96268, Note_off_c, 12, 91, 57
1, 96276, Note_off_c, 1, 31, 92
1, 96288, Note_on_c, 1, 33, 97
1, 96288, Note_on_c, 9, 54, 34
1, 96288, Note_on_c, 9, 69, 21
1, 96292, Note_off_c, 9, 69, 21
1, 96292, Note_off_c, 9, 54, 34
1, 96312, Note_off_c, 10, 65, 78
1, 96320, Note_on_c, 10, 67, 81
1, 96368, Note_off_c, 15, 62, 101
1, 96372, Note_off_c, 1, 33, 97
1, 96376, Note_off_c, 10, 67, 81
1, 96380, Note_on_c, 12, 96, 48
1, 96384, Note_on_c, 15, 60, 109
1, 96384, Note_on_c, 10, 72, 84
1, 96384, Note_on_c, 9, 39, 79
1, 96384, Note_on_c, 1, 35, 92
1, 96384, Note_on_c, 9, 36, 103
1, 96384, Note_on_c, 9, 42, 65
1, 96384, Note_on_c, 9, 54, 27
1, 96384, Note_on_c, 9, 69, 32
1, 96388, Note_off_c, 9, 69, 32
1, 96388, Note_off_c, 9, 54, 27
1, 96388, Note_off_c, 9, 42, 65
1, 96388, Note_off_c, 9, 36, 103
1, 96388, Note_off_c, 9, 39, 79
1, 96440, Note_off_c, 10, 72, 84
1, 96448, Note_on_c, 10, 71, 86
1, 96468, Note_off_c, 1, 35, 92
1, 96480, Note_on_c, 1, 36, 85
1, 96480, Note_on_c, 9, 54, 23
1, 96484, Note_off_c, 9, 54, 23
1, 96504, Note_off_c, 10, 71, 86
1, 96512, Note_on_c, 10, 72, 89
1, 96560, Note_off_c, 15, 60, 109
1, 96564, Note_off_c, 1, 36, 85
1, 96568, Note_off_c, 10, 72, 89
1, 96576, Note_on_c, 15, 57, 112
1, 96576, Note_on_c, 10, 79, 91
1, 96576, Note_on_c, 1, 38, 97
1, 96576, Note_on_c, 9, 46, 76
1, 96576, Note_on_c, 9, 54, 32
1, 96576, Note_on_c, 9, 69, 33
1, 96580, Note_off_c, 9, 69, 33
1, 96580, Note_off_c, 9, 54, 32
1, 96580, Note_off_c, 9, 46, 76
1, 96632, Note_off_c, 10, 79, 91
1, 96640, Note_on_c, 10, 77, 94
1, 96656, Note_off_c, 12, 96, 48
1, 96660, Note_off_c, 1, 38, 97
1, 96672, Note_on_c, 1, 40, 96
1, 96672, Note_on_c, 9, 54, 30
1, 96672, Note_on_c, 9, 69, 30
1, 96676, Note_off_c, 9, 69, 30
1, 96676, Note_off_c, 9, 54, 30
1, 96696, Note_off_c, 10, 77, 94
1, 96704, Note_on_c, 10, 79, 96
1, 96752, Note_off_c, 15, 57, 112
1, 96752, Note_off_c, 5, 60, 94
1, 96752, Note_off_c, 5, 57, 87
1, 96752, Note_off_c, 5, 53, 87
1, 96756, Note_off_c, 1, 40, 96
1, 96760, Note_off_c, 10, 79, 96
1, 96760, Note_off_c, 10, 65, 65
1, 96760, Note_off_c, 8, 41, 104
1, 96768, Note_on_c, 10, 64, 53
1, 96768, Note_on_c, 8, 50, 107
1, 96768, Note_on_c, 7, 60, 107
1, 96768, Note_on_c, 7, 64, 93
1, 96768, Note_on_c, 5, 50, 99
1, 96768, Note_on_c, 5, 53, 94
1, 96768, Note_on_c, 5, 57, 91
1, 96768, Note_on_c, 1, 38, 97
1, 96768, Note_on_c, 9, 36, 106
1, 96768, Note_on_c, 9, 42, 68
1, 96768, Note_on_c, 9, 57, 91
1, 96768, Note_on_c, 9, 54, 26
1, 96768, Note_on_c, 9, 69, 17
1, 96772, Note_off_c, 9, 69, 17
1, 96772, Note_off_c, 9, 54, 26
1, 96772, Note_off_c, 9, 57, 91
1, 96772, Note_off_c, 9, 42, 68
1, 96772, Note_off_c, 9, 36, 106
1, 96864, Note_on_c, 9, 54, 23
1, 96868, Note_off_c, 9, 54, 23
1, 96952, Note_off_c, 7, 64, 93
1, 96952, Note_off_c, 7, 60, 107
1, 96960, Note_on_c, 7, 62, 100
1, 96960, Note_on_c, 7, 65, 102
1, 96960, Note_on_c, 9, 46, 81
1, 96960, Note_on_c, 9, 54, 33
1, 96960, Note_on_c, 9, 69, 27
1, 96964, Note_off_c, 9, 69, 27
1, 96964, Note_off_c, 9, 54, 33
1, 96964, Note_off_c, 9, 46, 81
1, 97056, Note_on_c, 9, 54, 19
1, 97056, Note_on_c, 9, 69, 23
1, 97060, Note_off_c, 9, 69, 23
1, 97060, Note_off_c, 9, 54, 19
1, 97144, Note_off_c, 7, 65, 102
1, 97144, Note_off_c, 7, 62, 100
1, 97152, Note_on_c, 11, 72, 90
1, 97152, Note_on_c, 2, 72, 64
1, 97152, Note_on_c, 9, 39, 87
1, 97152, Note_on_c, 9, 36, 108
1, 97152, Note_on_c, 9, 42, 70
1, 97152, Note_on_c, 9, 54, 17
1, 97152, Note_on_c, 9, 69, 34
1, 97156, Note_off_c, 9, 69, 34
1, 97156, Note_off_c, 9, 54, 17
1, 97156, Note_off_c, 9, 42, 70
1, 97156, Note_off_c, 9, 36, 108
1, 97156, Note_off_c, 9, 39, 87
1, 97184, Note_off_c, 11, 72, 90
1, 97248, Note_on_c, 11, 72, 85
1, 97248, Note_on_c, 9, 54, 20
1, 97252, Note_off_c, 9, 54, 20
1, 97296, Note_off_c, 11, 72, 85
1, 97336, Note_off_c, 2, 72, 64
1, 97344, Note_on_c, 15, 60, 95
1, 97344, Note_on_c, 11, 79, 80
1, 97344, Note_on_c, 2, 79, 82
1, 97344, Note_on_c, 9, 46, 94
1, 97344, Note_on_c, 9, 54, 26
1, 97344, Note_on_c, 9, 69, 24
1, 97348, Note_off_c, 9, 69, 24
1, 97348, Note_off_c, 9, 54, 26
1, 97348, Note_off_c, 9, 46, 94
1, 97400, Note_off_c, 11, 79, 80
1, 97424, Note_off_c, 15, 60, 95
1, 97432, Note_off_c, 2, 79, 82
1, 97440, Note_on_c, 15, 76, 112
1, 97440, Note_on_c, 9, 54, 34
1, 97440, Note_on_c, 9, 69, 29
1, 97444, Note_off_c, 9, 69, 29
1, 97444, Note_off_c, 9, 54, 34
1, 97536, Note_on_c, 9, 36, 92
1, 97536, Note_on_c, 9, 42, 63
1, 97536, Note_on_c, 9, 54, 29
1, 97536, Note_on_c, 9, 69, 16
1, 97540, Note_off_c, 9, 69, 16
1, 97540, Note_off_c, 9, 54, 29
1, 97540, Note_off_c, 9, 42, 63
1, 97540, Note_off_c, 9, 36, 92
1, 97616, Note_off_c, 15, 76, 112
1, 97632, Note_on_c, 9, 54, 32
1, 97636, Note_off_c, 9, 54, 32
1, 97728, Note_on_c, 15, 76, 104
1, 97728, Note_on_c, 11, 72, 90
1, 97728, Note_on_c, 2, 72, 70
1, 97728, Note_on_c, 9, 46, 86
1, 97728, Note_on_c, 9, 54, 17
1, 97728, Note_on_c, 9, 69, 32
1, 97732, Note_off_c, 9, 69, 32
1, 97732, Note_off_c, 9, 54, 17
1, 97732, Note_off_c, 9, 46, 86
1, 97760, Note_off_c, 11, 72, 90
1, 97824, Note_on_c, 11, 72, 85
1, 97824, Note_on_c, 9, 54, 33
1, 97824, Note_on_c, 9, 69, 21
1, 97828, Note_off_c, 9, 69, 21
1, 97828, Note_off_c, 9, 54, 33
1, 97872, Note_off_c, 11, 72, 85
1, 97904, Note_off_c, 15, 76, 104
1, 97912, Note_off_c, 2, 72, 70
1, 97920, Note_on_c, 15, 74, 97
1, 97920, Note_on_c, 11, 79, 81
1, 97920, Note_on_c, 2, 79, 71
1, 97920, Note_on_c, 9, 39, 85
1, 97920, Note_on_c, 9, 36, 101
1, 97920, Note_on_c, 9, 42, 66
1, 97920, Note_on_c, 9, 54, 28
1, 97920, Note_on_c, 9, 69, 32
1, 97924, Note_off_c, 9, 69, 32
1, 97924, Note_off_c, 9, 54, 28
1, 97924, Note_off_c, 9, 42, 66
1, 97924, Note_off_c, 9, 36, 101
1, 97924, Note_off_c, 9, 39, 85
1, 97936, Pitch_bend_c, 1, 8192
1, 97944, Pitch_bend_c, 1, 8083
1, 97952, Pitch_bend_c, 1, 7974
1, 97960, Pitch_bend_c, 1, 7865
1, 97968, Pitch_bend_c, 1, 7756
1, 97976, Pitch_bend_c, 1, 7648
1, 97984, Note_off_c, 11, 79, 81
1, 97984, Pitch_bend_c, 1, 7539
1, 97992, Pitch_bend_c, 1, 7430
1, 98000, Pitch_bend_c, 1, 7321
1, 98008, Note_off_c, 2, 79, 71
1, 98008, Pitch_bend_c, 1, 7212
1, 98016, Pitch_bend_c, 1, 7103
1, 98016, Note_on_c, 9, 54, 18
1, 98020, Note_off_c, 9, 54, 18
1, 98024, Pitch_bend_c, 1, 6994
1, 98032, Pitch_bend_c, 1, 6885
1, 98040, Pitch_bend_c, 1, 6776
1, 98048, Pitch_bend_c, 1, 6667
1, 98056, Pitch_bend_c, 1, 6558
1, 98064, Pitch_bend_c, 1, 6449
1, 98072, Pitch_bend_c, 1, 6341
1, 98080, Pitch_bend_c, 1, 6232
1, 98088, Pitch_bend_c, 1, 6123
1, 98096, Note_off_c, 15, 74, 97
1, 98096, Pitch_bend_c, 1, 6014
1, 98104, Pitch_bend_c, 1, 5905
1, 98112, Note_on_c, 15, 72, 101
1, 98112, Pitch_bend_c, 1, 5796
1, 98112, Note_on_c, 9, 46, 78
1, 98112, Note_on_c, 9, 54, 28
1, 98112, Note_on_c, 9, 69, 22
1, 98116, Note_off_c, 9, 69, 22
1, 98116, Note_off_c, 9, 54, 28
1, 98116, Note_off_c, 9, 46, 78
1, 98120, Pitch_bend_c, 1, 5687
1, 98128, Pitch_bend_c, 1, 5578
1, 98136, Pitch_bend_c, 1, 5469
1, 98144, Pitch_bend_c, 1, 5360
1, 98152, Pitch_bend_c, 1, 5251
1, 98160, Pitch_bend_c, 1, 5142
1, 98168, Pitch_bend_c, 1, 5034
1, 98176, Pitch_bend_c, 1, 4925
1, 98184, Pitch_bend_c, 1, 4816
1, 98192, Pitch_bend_c, 1, 4707
1, 98200, Pitch_bend_c, 1, 4598
1, 98208, Pitch_bend_c, 1, 4489
1, 98208, Note_on_c, 9, 54, 33
1, 98208, Note_on_c, 9, 69, 26
1, 98212, Note_off_c, 9, 69, 26
1, 98212, Note_off_c, 9, 54, 33
1, 98216, Pitch_bend_c, 1, 4380
1, 98224, Pitch_bend_c, 1, 4271
1, 98232, Pitch_bend_c, 1, 4162
1, 98240, Pitch_bend_c, 1, 4053
1, 98244, Note_off_c, 10, 64, 53
1, 98248, Pitch_bend_c, 1, 3945
1, 98256, Pitch_bend_c, 1, 3835
1, 98264, Pitch_bend_c, 1, 3727
1, 98288, Note_off_c, 5, 57, 91
1, 98288, Note_off_c, 5, 53, 94
1, 98288, Note_off_c, 5, 50, 99
1, 98292, Note_off_c, 1, 38, 97
1, 98296, Note_off_c, 8, 50, 107
1, 98296, Pitch_bend_c, 1, 8192
1, 98304, Note_on_c, 10, 64, 65
1, 98304, Note_on_c, 8, 46, 109
1, 98304, Note_on_c, 7, 58, 96
1, 98304, Note_on_c, 7, 64, 98
1, 98304, Note_on_c, 5, 50, 85
1, 98304, Note_on_c, 5, 53, 85
1, 98304, Note_on_c, 5, 58, 94
1, 98304, Note_on_c, 1, 34, 92
1, 98304, Note_on_c, 9, 36, 106
1, 98304, Note_on_c, 9, 42, 68
1, 98304, Note_on_c, 9, 54, 22
1, 98304, Note_on_c, 9, 69, 18
1, 98308, Note_off_c, 9, 69, 18
1, 98308, Note_off_c, 9, 54, 22
1, 98308, Note_off_c, 9, 42, 68
1, 98308, Note_off_c, 9, 36, 106
1, 98400, Note_on_c, 9, 54, 16
1, 98404, Note_off_c, 9, 54, 16
1, 98488, Note_off_c, 7, 64, 98
1, 98488, Note_off_c, 7, 58, 96
1, 98496, Note_on_c, 7, 60, 93
1, 98496, Note_on_c, 7, 65, 103
1, 98496, Note_on_c, 9, 46, 85
1, 98496, Note_on_c, 9, 54, 32
1, 98496, Note_on_c, 9, 69, 25
1, 98500, Note_off_c, 9, 69, 25
1, 98500, Note_off_c, 9, 54, 32
1, 98500, Note_off_c, 9, 46, 85
1, 98592, Note_on_c, 9, 54, 22
1, 98592, Note_on_c, 9, 69, 15
1, 98596, Note_off_c, 9, 69, 15
1, 98596, Note_off_c, 9, 54, 22
1, 98680, Note_off_c, 7, 65, 103
1, 98680, Note_off_c, 7, 60, 93
1, 98688, Note_on_c, 11, 72, 71
1, 98688, Note_on_c, 2, 72, 68
1, 98688, Note_on_c, 9, 39, 73
1, 98688, Note_on_c, 9, 36, 104
1, 98688, Note_on_c, 9, 42, 76
1, 98688, Note_on_c, 9, 54, 32
1, 98688, Note_on_c, 9, 69, 22
1, 98692, Note_off_c, 9, 69, 22
1, 98692, Note_off_c, 9, 54, 32
1, 98692, Note_off_c, 9, 42, 76
1, 98692, Note_off_c, 9, 36, 104
1, 98692, Note_off_c, 9, 39, 73
1, 98708, Note_off_c, 11, 72, 71
1, 98784, Note_on_c, 11, 72, 84
1, 98784, Note_on_c, 9, 54, 25
1, 98788, Note_off_c, 9, 54, 25
1, 98824, Note_off_c, 11, 72, 84
1, 98864, Note_off_c, 15, 72, 101
1, 98872, Note_off_c, 2, 72, 68
1, 98880, Note_on_c, 15, 69, 97
1, 98880, Note_on_c, 11, 79, 76
1, 98880, Note_on_c, 2, 79, 70
1, 98880, Note_on_c, 9, 46, 95
1, 98880, Note_on_c, 9, 54, 18
1, 98880, Note_on_c, 9, 69, 19
1, 98884, Note_off_c, 9, 69, 19
1, 98884, Note_off_c, 9, 54, 18
1, 98884, Note_off_c, 9, 46, 95
1, 98932, Note_off_c, 11, 79, 76
1, 98960, Note_off_c, 15, 69, 97
1, 98968, Note_off_c, 2, 79, 70
1, 98976, Note_on_c, 15, 72, 98
1, 98976, Note_on_c, 9, 54, 19
1, 98976, Note_on_c, 9, 69, 21
1, 98980, Note_off_c, 9, 69, 21
1, 98980, Note_off_c, 9, 54, 19
1, 99072, Note_on_c, 9, 36, 99
1, 99072, Note_on_c, 9, 42, 61
1, 99072, Note_on_c, 9, 54, 32
1, 99072, Note_on_c, 9, 69, 22
1, 99076, Note_off_c, 9, 69, 22
1, 99076, Note_off_c, 9, 54, 32
1, 99076, Note_off_c, 9, 42, 61
1, 99076, Note_off_c, 9, 36, 99
1, 99152, Note_off_c, 15, 72, 98
1, 99168, Note_on_c, 9, 54, 29
1, 99172, Note_off_c, 9, 54, 29
1, 99264, Note_on_c, 15, 72, 101
1, 99264, Note_on_c, 11, 72, 75
1, 99264, Note_on_c, 2, 72, 81
1, 99264, Note_on_c, 9, 46, 95
1, 99264, Note_on_c, 9, 54, 31
1, 99264, Note_on_c, 9, 69, 15
1, 99268, Note_off_c, 9, 69, 15
1, 99268, Note_off_c, 9, 54, 31
1, 99268, Note_off_c, 9, 46, 95
1, 99292, Note_off_c, 11, 72, 75
1, 99360, Note_on_c, 11, 72, 77
1, 99360, Note_on_c, 9, 54, 23
1, 99360, Note_on_c, 9, 69, 21
1, 99364, Note_off_c, 9, 69, 21
1, 99364, Note_off_c, 9, 54, 23
1, 99400, Note_off_c, 11, 72, 77
1, 99440, Note_off_c, 15, 72, 101
1, 99448, Note_off_c, 2, 72, 81
1, 99456, Note_on_c, 15, 69, 95
1, 99456, Note_on_c, 11, 79, 76
1, 99456, Note_on_c, 2, 79, 73
1, 99456, Note_on_c, 9, 39, 73
1, 99456, Note_on_c, 9, 36, 107
1, 99456, Note_on_c, 9, 42, 68
1, 99456, Note_on_c, 9, 54, 34
1, 99456, Note_on_c, 9, 69, 33
1, 99460, Note_off_c, 9, 69, 33
1, 99460, Note_off_c, 9, 54, 34
1, 99460, Note_off_c, 9, 42, 68
1, 99460, Note_off_c, 9, 36, 107
1, 99460, Note_off_c, 9, 39, 73
1, 99524, Note_off_c, 11, 79, 76
1, 99544, Note_off_c, 2, 79, 73
1, 99552, Note_on_c, 9, 54, 28
1, 99556, Note_off_c, 9, 54, 28
1, 99560, Pitch_bend_c, 1, 8192
1, 99568, Pitch_bend_c, 1, 8083
1, 99576, Pitch_bend_c, 1, 7973
1, 99584, Pitch_bend_c, 1, 7864
1, 99592, Pitch_bend_c, 1, 7754
1, 99600, Pitch_bend_c, 1, 7645
1, 99608, Pitch_bend_c, 1, 7535
1, 99616, Pitch_bend_c, 1, 7426
1, 99624, Pitch_bend_c, 1, 7316
1, 99632, Note_off_c, 15, 69, 95
1, 99632, Pitch_bend_c, 1, 7207
1, 99640, Pitch_bend_c, 1, 7097
1, 99648, Note_on_c, 15, 72, 105
1, 99648, Pitch_bend_c, 1, 6988
1, 99648, Note_on_c, 9, 46, 93
1, 99648, Note_on_c, 9, 54, 28
1, 99648, Note_on_c, 9, 69, 21
1, 99652, Note_off_c, 9, 69, 21
1, 99652, Note_off_c, 9, 54, 28
1, 99652, Note_off_c, 9, 46, 93
1, 99656, Pitch_bend_c, 1, 6879
1, 99664, Pitch_bend_c, 1, 6769
1, 99672, Pitch_bend_c, 1, 6660
1, 99680, Pitch_bend_c, 1, 6550
1, 99688, Pitch_bend_c, 1, 6441
1, 99696, Pitch_bend_c, 1, 6331
1, 99704, Pitch_bend_c, 1, 6222
1, 99712, Pitch_bend_c, 1, 6112
1, 99720, Pitch_bend_c, 1, 6003
1, 99728, Pitch_bend_c, 1, 5893
1, 99732, Note_off_c, 10, 64, 65
1, 99736, Pitch_bend_c, 1, 5784
1, 99744, Pitch_bend_c, 1, 5675
1, 99744, Note_on_c, 9, 54, 16
1, 99744, Note_on_c, 9, 69, 18
1, 99748, Note_off_c, 9, 69, 18
1, 99748, Note_off_c, 9, 54, 16
1, 99752, Pitch_bend_c, 1, 5565
1, 99760, Pitch_bend_c, 1, 5456
1, 99768, Pitch_bend_c, 1, 5346
1, 99772, Note_off_c, 1, 34, 92
1, 99776, Pitch_bend_c, 1, 5237
1, 99784, Pitch_bend_c, 1, 5127
1, 99792, Pitch_bend_c, 1, 5018
1, 99800, Pitch_bend_c, 1, 4908
1, 99808, Pitch_bend_c, 1, 4799
1, 99816, Pitch_bend_c, 1, 4689
1, 99824, Note_off_c, 5, 58, 94
1, 99824, Note_off_c, 5, 53, 85
1, 99824, Note_off_c, 5, 50, 85
1, 99824, Pitch_bend_c, 1, 4580
1, 99832, Note_off_c, 8, 46, 109
1, 99832, Pitch_bend_c, 1, 8192
1, 99840, Note_on_c, 10, 65, 64
1, 99840, Note_on_c, 8, 41, 112
1, 99840, Note_on_c, 7, 60, 103
1, 99840, Note_on_c, 7, 64, 97
1, 99840, Note_on_c, 5, 53, 103
1, 99840, Note_on_c, 5, 57, 86
1, 99840, Note_on_c, 5, 60, 100
1, 99840, Note_on_c, 1, 29, 99
1, 99840, Note_on_c, 9, 36, 101
1, 99840, Note_on_c, 9, 42, 73
1, 99840, Note_on_c, 9, 54, 31
1, 99840, Note_on_c, 9, 69, 15
1, 99844, Note_off_c, 9, 69, 15
1, 99844, Note_off_c, 9, 54, 31
1, 99844, Note_off_c, 9, 42, 73
1, 99844, Note_off_c, 9, 36, 101
1, 99936, Note_on_c, 9, 54, 32
1, 99940, Note_off_c, 9, 54, 32
1, 100024, Note_off_c, 7, 64, 97
1, 100024, Note_off_c, 7, 60, 103
1, 100032, Note_on_c, 7, 62, 104
1, 100032, Note_on_c, 7, 65, 92
1, 100032, Note_on_c, 9, 46, 78
1, 100032, Note_on_c, 9, 54, 27
1, 100032, Note_on_c, 9, 69, 23
1, 100036, Note_off_c, 9, 69, 23
1, 100036, Note_off_c, 9, 54, 27
1, 100036, Note_off_c, 9, 46, 78
1, 100128, Note_on_c, 9, 54, 16
1, 100128, Note_on_c, 9, 69, 29
1, 100132, Note_off_c, 9, 69, 29
1, 100132, Note_off_c, 9, 54, 16
1, 100216, Note_off_c, 7, 65, 92
1, 100216, Note_off_c, 7, 62, 104
1, 100224, Note_on_c, 11, 72, 73
1, 100224, Note_on_c, 2, 72, 82
1, 100224, Note_on_c, 9, 39, 71
1, 100224, Note_on_c, 9, 36, 102
1, 100224, Note_on_c, 9, 42, 68
1, 100224, Note_on_c, 9, 54, 23
1, 100224, Note_on_c, 9, 69, 31
1, 100228, Note_off_c, 9, 69, 31
1, 100228, Note_off_c, 9, 54, 23
1, 100228, Note_off_c, 9, 42, 68
1, 100228, Note_off_c, 9, 36, 102
1, 100228, Note_off_c, 9, 39, 71
1, 100244, Note_off_c, 11, 72, 73
1, 100320, Note_on_c, 11, 72, 79
1, 100320, Note_on_c, 9, 54, 29
1, 100324, Note_off_c, 9, 54, 29
1, 100356, Note_off_c, 11, 72, 79
1, 100400, Note_off_c, 15, 72, 105
1, 100408, Note_off_c, 2, 72, 82
1, 100416, Note_on_c, 15, 55, 109
1, 100416, Note_on_c, 11, 79, 83
1, 100416, Note_on_c, 2, 79, 67
1, 100416, Note_on_c, 9, 46, 90
1, 100416, Note_on_c, 9, 54, 20
1, 100416, Note_on_c, 9, 69, 15
1, 100420, Note_off_c, 9, 69, 15
1, 100420, Note_off_c, 9, 54, 20
1, 100420, Note_off_c, 9, 46, 90
1, 100472, Note_off_c, 11, 79, 83
1, 100496, Note_off_c, 15, 55, 109
1, 100504, Note_off_c, 2, 79, 67
1, 100512, Note_on_c, 15, 67, 95
1, 100512, Note_on_c, 9, 54, 15
1, 100512, Note_on_c, 9, 69, 21
1, 100516, Note_off_c, 9, 69, 21
1, 100516, Note_off_c, 9, 54, 15
1, 100608, Note_on_c, 9, 36, 103
1, 100608, Note_on_c, 9, 42, 73
1, 100608, Note_on_c, 9, 54, 15
1, 100608, Note_on_c, 9, 69, 27
1, 100612, Note_off_c, 9, 69, 27
1, 100612, Note_off_c, 9, 54, 15
1, 100612, Note_off_c, 9, 42, 73
1, 100612, Note_off_c, 9, 36, 103
1, 100704, Note_on_c, 9, 54, 25
1, 100708, Note_off_c, 9, 54, 25
1, 100784, Note_off_c, 15, 67, 95
1, 100800, Note_on_c, 15, 64, 99
1, 100800, Note_on_c, 11, 72, 84
1, 100800, Note_on_c, 2, 72, 75
1, 100800, Note_on_c, 9, 46, 76
1, 100800, Note_on_c, 9, 54, 19
1, 100800, Note_on_c, 9, 69, 15
1, 100804, Note_off_c, 9, 69, 15
1, 100804, Note_off_c, 9, 54, 19
1, 100804, Note_off_c, 9, 46, 76
1, 100836, Note_off_c, 11, 72, 84
1, 100896, Note_on_c, 11, 72, 72
1, 100896, Note_on_c, 9, 54, 34
1, 100896, Note_on_c, 9, 69, 26
1, 100900, Note_off_c, 9, 69, 26
1, 100900, Note_off_c, 9, 54, 34
1, 100932, Note_off_c, 11, 72, 72
1, 100984, Note_off_c, 2, 72, 75
1, 100992, Note_on_c, 11, 79, 73
1, 100992, Note_on_c, 2, 79, 74
1, 100992, Note_on_c, 9, 39, 80
1, 100992, Note_on_c, 9, 36, 92
1, 100992, Note_on_c, 9, 42, 70
1, 100992, Note_on_c, 9, 54, 16
1, 100992, Note_on_c, 9, 69, 15
1, 100996, Note_off_c, 9, 69, 15
1, 100996, Note_off_c, 9, 54, 16
1, 100996, Note_off_c, 9, 42, 70
1, 100996, Note_off_c, 9, 36, 92
1, 100996, Note_off_c, 9, 39, 80
1, 101052, Note_off_c, 11, 79, 73
1, 101080, Note_off_c, 2, 79, 74
1, 101088, Note_on_c, 9, 54, 23
1, 101092, Note_off_c, 9, 54, 23
1, 101168, Note_off_c, 15, 64, 99
1, 101184, Note_on_c, 15, 62, 96
1, 101184, Note_on_c, 9, 46, 95
1, 101184, Note_on_c, 9, 54, 22
1, 101184, Note_on_c, 9, 69, 19
1, 101188, Note_off_c, 9, 69, 19
1, 101188, Note_off_c, 9, 54, 22
1, 101188, Note_off_c, 9, 46, 95
1, 101280, Note_on_c, 9, 54, 29
1, 101280, Note_on_c, 9, 69, 22
1, 101284, Note_off_c, 9, 69, 22
1, 101284, Note_off_c, 9, 54, 29
1, 101376, Note_on_c, 7, 60, 100
1, 101376, Note_on_c, 7, 64, 104
1, 101376, Note_on_c, 9, 36, 101
1, 101376, Note_on_c, 9, 42, 65
1, 101376, Note_on_c, 9, 54, 33
1, 101376, Note_on_c, 9, 69, 26
1, 101380, Note_off_c, 9, 69, 26
1, 101380, Note_off_c, 9, 54, 33
1, 101380, Note_off_c, 9, 42, 65
1, 101380, Note_off_c, 9, 36, 101
1, 101472, Note_on_c, 9, 54, 21
1, 101476, Note_off_c, 9, 54, 21
1, 101552, Note_off_c, 15, 62, 96
1, 101560, Note_off_c, 7, 64, 104
1, 101560, Note_off_c, 7, 60, 100
1, 101568, Note_on_c, 15, 60, 112
1, 101568, Note_on_c, 7, 62, 102
1, 101568, Note_on_c, 7, 65, 89
1, 101568, Note_on_c, 9, 46, 85
1, 101568, Note_on_c, 9, 54, 34
1, 101568, Note_on_c, 9, 69, 34
1, 101572, Note_off_c, 9, 69, 34
1, 101572, Note_off_c, 9, 54, 34
1, 101572, Note_off_c, 9, 46, 85
1, 101656, Note_off_c, 7, 65, 89
1, 101656, Note_off_c, 7, 62, 102
1, 101664, Note_on_c, 9, 54, 23
1, 101664, Note_on_c, 9, 69, 20
1, 101668, Note_off_c, 9, 69, 20
1, 101668, Note_off_c, 9, 54, 23
1, 101760, Note_on_c, 7, 60, 100
1, 101760, Note_on_c, 7, 64, 93
1, 101760, Note_on_c, 9, 39, 89
1, 101760, Note_on_c, 9, 36, 99
1, 101760, Note_on_c, 9, 42, 79
1, 101760, Note_on_c, 9, 54, 27
1, 101760, Note_on_c, 9, 69, 16
1, 101764, Note_off_c, 9, 69, 16
1, 101764, Note_off_c, 9, 54, 27
1, 101764, Note_off_c, 9, 42, 79
1, 101764, Note_off_c, 9, 36, 99
1, 101764, Note_off_c, 9, 39, 89
1, 101856, Note_on_c, 9, 54, 29
1, 101860, Note_off_c, 9, 54, 29
1, 101944, Note_off_c, 7, 64, 93
1, 101944, Note_off_c, 7, 60, 100
1, 101952, Note_on_c, 7, 62, 99
1, 101952, Note_on_c, 7, 65, 90
1, 101952, Note_on_c, 9, 46, 82
1, 101952, Note_on_c, 9, 54, 25
1, 101952, Note_on_c, 9, 69, 27
1, 101956, Note_off_c, 9, 69, 27
1, 101956, Note_off_c, 9, 54, 25
1, 101956, Note_off_c, 9, 46, 82
1, 102040, Note_off_c, 7, 65, 90
1, 102040, Note_off_c, 7, 62, 99
1, 102048, Note_on_c, 9, 54, 15
1, 102048, Note_on_c, 9, 69, 32
1, 102052, Note_off_c, 9, 69, 32
1, 102052, Note_off_c, 9, 54, 15
1, 102128, Note_off_c, 15, 60, 112
1, 102140, Note_on_c, 12, 84, 48
1, 102144, Note_on_c, 15, 57, 97
1, 102144, Note_on_c, 10, 84, 61
1, 102144, Note_on_c, 2, 84, 66
1, 102144, Note_on_c, 9, 36, 97
1, 102144, Note_on_c, 9, 42, 68
1, 102144, Note_on_c, 9, 54, 24
1, 102144, Note_on_c, 9, 69, 33
1, 102148, Note_off_c, 9, 69, 33
1, 102148, Note_off_c, 9, 54, 24
1, 102148, Note_off_c, 9, 42, 68
1, 102148, Note_off_c, 9, 36, 97
1, 102184, Note_off_c, 10, 84, 61
1, 102192, Note_on_c, 10, 84, 63
1, 102224, Note_off_c, 12, 84, 48
1, 102232, Note_off_c, 10, 84, 63
1, 102232, Note_off_c, 2, 84, 66
1, 102236, Note_on_c, 12, 79, 47
1, 102240, Note_on_c, 10, 79, 65
1, 102240, Note_on_c, 2, 79, 66
1, 102240, Note_on_c, 9, 54, 28
1, 102244, Note_off_c, 9, 54, 28
1, 102280, Note_off_c, 10, 79, 65
1, 102288, Note_on_c, 10, 79, 67
1, 102320, Note_off_c, 12, 79, 47
1, 102320, Note_off_c, 15, 57, 97
1, 102324, Note_off_c, 1, 29, 99
1, 102328, Note_off_c, 10, 79, 67
1, 102328, Note_off_c, 2, 79, 66
1, 102328, Note_on_c, 12, 77, 65
1, 102336, Note_on_c, 15, 60, 97
1, 102336, Note_on_c, 10, 77, 69
1, 102336, Note_on_c, 2, 77, 63
1, 102336, Note_on_c, 1, 31, 95
1, 102336, Note_on_c, 9, 46, 78
1, 102336, Note_on_c, 9, 54, 31
1, 102336, Note_on_c, 9, 69, 32
1, 102340, Note_off_c, 9, 69, 32
1, 102340, Note_off_c, 9, 54, 31
1, 102340, Note_off_c, 9, 46, 78
1, 102376, Note_off_c, 10, 77, 69
1, 102384, Note_on_c, 10, 77, 71
1, 102412, Note_off_c, 12, 77, 65
1, 102420, Note_off_c, 1, 31, 95
1, 102424, Note_off_c, 10, 77, 71
1, 102424, Note_off_c, 2, 77, 63
1, 102424, Note_off_c, 8, 41, 112
1, 102428, Note_on_c, 12, 84, 54
1, 102432, Note_on_c, 10, 84, 73
1, 102432, Note_on_c, 8, 41, 109
1, 102432, Note_on_c, 2, 84, 82
1, 102432, Note_on_c, 1, 33, 99
1, 102432, Note_on_c, 9, 54, 20
1, 102432, Note_on_c, 9, 69, 26
1, 102436, Note_off_c, 9, 69, 26
1, 102436, Note_off_c, 9, 54, 20
1, 102472, Note_off_c, 10, 84, 73
1, 102480, Note_on_c, 10, 84, 75
1, 102512, Note_off_c, 12, 84, 54
1, 102516, Note_off_c, 1, 33, 99
1, 102520, Note_off_c, 10, 84, 75
1, 102520, Note_off_c, 2, 84, 82
1, 102520, Note_off_c, 8, 41, 109
1, 102520, Note_on_c, 12, 79, 62
1, 102528, Note_on_c, 10, 79, 77
1, 102528, Note_on_c, 8, 43, 101
1, 102528, Note_on_c, 2, 79, 71
1, 102528, Note_on_c, 9, 39, 81
1, 102528, Note_on_c, 1, 36, 98
1, 102528, Note_on_c, 9, 36, 93
1, 102528, Note_on_c, 9, 42, 66
1, 102528, Note_on_c, 9, 54, 29
1, 102528, Note_on_c, 9, 69, 21
1, 102532, Note_off_c, 9, 69, 21
1, 102532, Note_off_c, 9, 54, 29
1, 102532, Note_off_c, 9, 42, 66
1, 102532, Note_off_c, 9, 36, 93
1, 102532, Note_off_c, 9, 39, 81
1, 102568, Note_off_c, 10, 79, 77
1, 102576, Note_on_c, 10, 79, 78
1, 102592, Pitch_bend_c, 1, 8192
1, 102600, Pitch_bend_c, 1, 8382
1, 102604, Note_off_c, 12, 79, 62
1, 102608, Pitch_bend_c, 1, 8572
1, 102616, Note_off_c, 10, 79, 78
1, 102616, Note_off_c, 2, 79, 71
1, 102616, Note_off_c, 8, 43, 101
1, 102616, Note_on_c, 12, 77, 65
1, 102616, Pitch_bend_c, 1, 8762
1, 102624, Note_on_c, 10, 77, 80
1, 102624, Note_on_c, 8, 45, 112
1, 102624, Note_on_c, 2, 77, 73
1, 102624, Pitch_bend_c, 1, 8952
1, 102624, Note_on_c, 9, 54, 29
1, 102628, Note_off_c, 9, 54, 29
1, 102632, Pitch_bend_c, 1, 9142
1, 102640, Pitch_bend_c, 1, 9332
1, 102648, Pitch_bend_c, 1, 9522
1, 102656, Pitch_bend_c, 1, 9712
1, 102664, Note_off_c, 10, 77, 80
1, 102664, Pitch_bend_c, 1, 9902
1, 102672, Note_on_c, 10, 77, 82
1, 102672, Pitch_bend_c, 1, 10092
1, 102680, Pitch_bend_c, 1, 10282
1, 102688, Pitch_bend_c, 1, 10472
1, 102696, Pitch_bend_c, 1, 10662
1, 102700, Note_off_c, 12, 77, 65
1, 102704, Pitch_bend_c, 1, 10852
1, 102712, Note_off_c, 10, 77, 82
1, 102712, Note_off_c, 2, 77, 73
1, 102712, Note_off_c, 8, 45, 112
1, 102712, Pitch_bend_c, 1, 11042
1, 102716, Note_on_c, 12, 84, 53
1, 102720, Note_on_c, 10, 84, 84
1, 102720, Note_on_c, 8, 47, 110
1, 102720, Note_on_c, 2, 84, 72
1, 102720, Pitch_bend_c, 1, 11232
1, 102720, Note_on_c, 9, 46, 82
1, 102720, Note_on_c, 9, 54, 26
1, 102720, Note_on_c, 9, 69, 29
1, 102724, Note_off_c, 9, 69, 29
1, 102724, Note_off_c, 9, 54, 26
1, 102724, Note_off_c, 9, 46, 82
1, 102728, Pitch_bend_c, 1, 11422
1, 102736, Pitch_bend_c, 1, 11612
1, 102744, Pitch_bend_c, 1, 11802
1, 102752, Pitch_bend_c, 1, 11992
1, 102760, Note_off_c, 10, 84, 84
1, 102760, Pitch_bend_c, 1, 12182
1, 102768, Note_on_c, 10, 84, 86
1, 102768, Pitch_bend_c, 1, 12372
1, 102776, Pitch_bend_c, 1, 12563
1, 102784, Pitch_bend_c, 1, 12753
1, 102792, Pitch_bend_c, 1, 12943
1, 102800, Note_off_c, 12, 84, 53
1, 102800, Pitch_bend_c, 1, 13133
1, 102808, Note_off_c, 10, 84, 86
1, 102808, Note_off_c, 2, 84, 72
1, 102808, Note_off_c, 8, 47, 110
1, 102808, Note_on_c, 12, 79, 59
1, 102808, Pitch_bend_c, 1, 13323
1, 102816, Note_on_c, 10, 79, 88
1, 102816, Note_on_c, 8, 48, 102
1, 102816, Note_on_c, 2, 79, 70
1, 102816, Pitch_bend_c, 1, 13513
1, 102816, Note_on_c, 9, 54, 26
1, 102816, Note_on_c, 9, 69, 15
1, 102820, Note_off_c, 9, 69, 15
1, 102820, Note_off_c, 9, 54, 26
1, 102824, Pitch_bend_c, 1, 13703
1, 102832, Pitch_bend_c, 1, 13893
1, 102840, Pitch_bend_c, 1, 14083
1, 102848, Pitch_bend_c, 1, 14273
1, 102856, Note_off_c, 10, 79, 88
1, 102856, Pitch_bend_c, 1, 14463
1, 102864, Note_on_c, 10, 79, 90
1, 102864, Pitch_bend_c, 1, 14653
1, 102872, Pitch_bend_c, 1, 14843
1, 102880, Pitch_bend_c, 1, 15033
1, 102888, Pitch_bend_c, 1, 15223
1, 102896, Note_off_c, 15, 60, 97
1, 102896, Note_off_c, 5, 60, 100
1, 102896, Note_off_c, 5, 57, 86
1, 102896, Note_off_c, 5, 53, 103
1, 102896, Pitch_bend_c, 1, 15413
1, 102900, Note_off_c, 1, 36, 98
1, 102904, Note_off_c, 10, 79, 90
1, 102904, Note_off_c, 8, 48, 102
1, 102904, Pitch_bend_c, 1, 8192
1, 102912, Note_on_c, 10, 64, 63
1, 102912, Note_on_c, 8, 50, 107
1, 102912, Note_on_c, 7, 60, 95
1, 102912, Note_on_c, 7, 64, 91
1, 102912, Note_on_c, 5, 50, 88
1, 102912, Note_on_c, 5, 53, 99
1, 102912, Note_on_c, 5, 57, 100
1, 102912, Note_on_c, 1, 38, 91
1, 102912, Note_on_c, 9, 36, 96
1, 102912, Note_on_c, 9, 42, 69
1, 102912, Note_on_c, 9, 49, 94
1, 102912, Note_on_c, 9, 54, 28
1, 102912, Note_on_c, 9, 69, 28
1, 102916, Note_off_c, 9, 69, 28
1, 102916, Note_off_c, 9, 54, 28
1, 102916, Note_off_c, 9, 49, 94
1, 102916, Note_off_c, 9, 42, 69
1, 102916, Note_off_c, 9, 36, 96
1, 102920, Note_off_c, 10, 65, 64
1, 103008, Note_on_c, 9, 54, 27
1, 103012, Note_off_c, 9, 54, 27
1, 103080, Note_off_c, 2, 79, 70
1, 103096, Note_off_c, 7, 64, 91
1, 103096, Note_off_c, 7, 60, 95
1, 103104, Note_on_c, 7, 62, 89
1, 103104, Note_on_c, 7, 65, 99
1, 103104, Note_on_c, 9, 46, 90
1, 103104, Note_on_c, 9, 54, 25
1, 103104, Note_on_c, 9, 69, 19
1, 103108, Note_off_c, 9, 69, 19
1, 103108, Note_off_c, 9, 54, 25
1, 103108, Note_off_c, 9, 46, 90
1, 103200, Note_on_c, 9, 54, 27
1, 103200, Note_on_c, 9, 69, 23
1, 103204, Note_off_c, 9, 69, 23
1, 103204, Note_off_c, 9, 54, 27
1, 103288, Note_off_c, 7, 65, 99
1, 103288, Note_off_c, 7, 62, 89
1, 103296, Note_on_c, 11, 72, 72
1, 103296, Note_on_c, 2, 72, 73
1, 103296, Note_on_c, 9, 39, 85
1, 103296, Note_on_c, 9, 36, 98
1, 103296, Note_on_c, 9, 42, 60
1, 103296, Note_on_c, 9, 54, 23
1, 103296, Note_on_c, 9, 69, 27
1, 103300, Note_off_c, 9, 69, 27
1, 103300, Note_off_c, 9, 54, 23
1, 103300, Note_off_c, 9, 42, 60
1, 103300, Note_off_c, 9, 36, 98
1, 103300, Note_off_c, 9, 39, 85
1, 103328, Note_off_c, 11, 72, 72
1, 103372, Note_off_c, 12, 79, 59
1, 103392, Note_on_c, 11, 72, 85
1, 103392, Note_on_c, 9, 54, 19
1, 103396, Note_off_c, 9, 54, 19
1, 103444, Note_off_c, 11, 72, 85
1, 103476, Note_off_c, 1, 38, 91
1, 103480, Note_off_c, 2, 72, 73
1, 103488, Note_on_c, 15, 67, 109
1, 103488, Note_on_c, 11, 79, 89
1, 103488, Note_on_c, 2, 79, 81
1, 103488, Note_on_c, 1, 38, 97
1, 103488, Note_on_c, 9, 46, 82
1, 103488, Note_on_c, 9, 54, 25
1, 103488, Note_on_c, 9, 69, 16
1, 103492, Note_off_c, 9, 69, 16
1, 103492, Note_off_c, 9, 54, 25
1, 103492, Note_off_c, 9, 46, 82
1, 103556, Note_off_c, 11, 79, 89
1, 103568, Note_off_c, 15, 67, 109
1, 103576, Note_off_c, 2, 79, 81
1, 103584, Note_on_c, 15, 76, 107
1, 103584, Note_on_c, 9, 54, 23
1, 103584, Note_on_c, 9, 69, 23
1, 103588, Note_off_c, 9, 69, 23
1, 103588, Note_off_c, 9, 54, 23
1, 103680, Note_on_c, 9, 36, 100
1, 103680, Note_on_c, 9, 42, 69
1, 103680, Note_on_c, 9, 54, 20
1, 103680, Note_on_c, 9, 69, 21
1, 103684, Note_off_c, 9, 69, 21
1, 103684, Note_off_c, 9, 54, 20
1, 103684, Note_off_c, 9, 42, 69
1, 103684, Note_off_c, 9, 36, 100
1, 103760, Note_off_c, 15, 76, 107
1, 103776, Note_on_c, 9, 54, 30
1, 103780, Note_off_c, 9, 54, 30
1, 103872, Note_on_c, 15, 76, 96
1, 103872, Note_on_c, 11, 72, 75
1, 103872, Note_on_c, 2, 72, 82
1, 103872, Note_on_c, 9, 46, 83
1, 103872, Note_on_c, 9, 54, 24
1, 103872, Note_on_c, 9, 69, 33
1, 103876, Note_off_c, 9, 69, 33
1, 103876, Note_off_c, 9, 54, 24
1, 103876, Note_off_c, 9, 46, 83
1, 103916, Note_off_c, 11, 72, 75
1, 103968, Note_on_c, 11, 72, 86
1, 103968, Note_on_c, 9, 54, 33
1, 103968, Note_on_c, 9, 69, 23
1, 103972, Note_off_c, 9, 69, 23
1, 103972, Note_off_c, 9, 54, 33
1, 104016, Note_off_c, 11, 72, 86
1, 104056, Note_off_c, 2, 72, 82
1, 104064, Note_on_c, 11, 79, 75
1, 104064, Note_on_c, 2, 79, 70
1, 104064, Note_on_c, 9, 39, 76
1, 104064, Note_on_c, 9, 36, 93
1, 104064, Note_on_c, 9, 42, 70
1, 104064, Note_on_c, 9, 54, 20
1, 104064, Note_on_c, 9, 69, 24
1, 104068, Note_off_c, 9, 69, 24
1, 104068, Note_off_c, 9, 54, 20
1, 104068, Note_off_c, 9, 42, 70
1, 104068, Note_off_c, 9, 36, 93
1, 104068, Note_off_c, 9, 39, 76
1, 104140, Note_off_c, 11, 79, 75
1, 104152, Note_off_c, 2, 79, 70
1, 104152, Note_off_c, 8, 50, 107
1, 104160, Note_on_c, 9, 54, 16
1, 104164, Note_off_c, 9, 54, 16
1, 104240, Note_off_c, 15, 76, 96
1, 104244, Note_off_c, 1, 38, 97
1, 104256, Note_on_c, 15, 76, 105
1, 104256, Note_on_c, 8, 50, 101
1, 104256, Note_on_c, 1, 38, 92
1, 104256, Note_on_c, 9, 46, 82
1, 104256, Note_on_c, 9, 54, 34
1, 104256, Note_on_c, 9, 69, 25
1, 104260, Note_off_c, 9, 69, 25
1, 104260, Note_off_c, 9, 54, 34
1, 104260, Note_off_c, 9, 46, 82
1, 104296, Pitch_bend_c, 1, 8014
1, 104304, Pitch_bend_c, 1, 7864
1, 104312, Pitch_bend_c, 1, 7713
1, 104320, Pitch_bend_c, 1, 7563
1, 104328, Pitch_bend_c, 1, 7412
1, 104336, Pitch_bend_c, 1, 7262
1, 104344, Note_off_c, 8, 50, 101
1, 104344, Pitch_bend_c, 1, 7111
1, 104352, Note_on_c, 8, 48, 100
1, 104352, Pitch_bend_c, 1, 6960
1, 104352, Note_on_c, 9, 54, 16
1, 104352, Note_on_c, 9, 69, 18
1, 104356, Note_off_c, 9, 69, 18
1, 104356, Note_off_c, 9, 54, 16
1, 104360, Pitch_bend_c, 1, 6810
1, 104368, Pitch_bend_c, 1, 6659
1, 104376, Pitch_bend_c, 1, 6509
1, 104384, Pitch_bend_c, 1, 6358
1, 104388, Note_off_c, 10, 64, 63
1, 104392, Pitch_bend_c, 1, 6208
1, 104400, Pitch_bend_c, 1, 6057
1, 104408, Pitch_bend_c, 1, 5906
1, 104416, Pitch_bend_c, 1, 5756
1, 104432, Note_off_c, 5, 57, 100
1, 104432, Note_off_c, 5, 53, 99
1, 104432, Note_off_c, 5, 50, 88
1, 104436, Note_off_c, 1, 38, 92
1, 104440, Note_off_c, 8, 48, 100
1, 104440, Pitch_bend_c, 1, 8192
1, 104448, Note_on_c, 10, 64, 57
1, 104448, Note_on_c, 8, 46, 109
1, 104448, Note_on_c, 7, 60, 94
1, 104448, Note_on_c, 7, 64, 95
1, 104448, Note_on_c, 5, 50, 93
1, 104448, Note_on_c, 5, 53, 99
1, 104448, Note_on_c, 5, 58, 104
1, 104448, Note_on_c, 1, 34, 96
1, 104448, Note_on_c, 9, 36, 102
1, 104448, Note_on_c, 9, 42, 76
1, 104448, Note_on_c, 9, 54, 30
1, 104448, Note_on_c, 9, 69, 15
1, 104452, Note_off_c, 9, 69, 15
1, 104452, Note_off_c, 9, 54, 30
1, 104452, Note_off_c, 9, 42, 76
1, 104452, Note_off_c, 9, 36, 102
1, 104528, Note_off_c, 15, 76, 105
1, 104544, Note_on_c, 15, 74, 108
1, 104544, Note_on_c, 9, 54, 24
1, 104548, Note_off_c, 9, 54, 24
1, 104624, Note_off_c, 15, 74, 108
1, 104632, Note_off_c, 7, 64, 95
1, 104632, Note_off_c, 7, 60, 94
1, 104640, Note_on_c, 15, 72, 106
1, 104640, Note_on_c, 7, 62, 104
1, 104640, Note_on_c, 7, 65, 104
1, 104640, Note_on_c, 9, 46, 77
1, 104640, Note_on_c, 9, 54, 17
1, 104640, Note_on_c, 9, 69, 30
1, 104644, Note_off_c, 9, 69, 30
1, 104644, Note_off_c, 9, 54, 17
1, 104644, Note_off_c, 9, 46, 77
1, 104736, Note_on_c, 9, 54, 33
1, 104736, Note_on_c, 9, 69, 34
1, 104740, Note_off_c, 9, 69, 34
1, 104740, Note_off_c, 9, 54, 33
1, 104824, Note_off_c, 7, 65, 104
1, 104824, Note_off_c, 7, 62, 104
1, 104832, Note_on_c, 11, 72, 72
1, 104832, Note_on_c, 2, 72, 66
1, 104832, Note_on_c, 9, 39, 86
1, 104832, Note_on_c, 9, 36, 107
1, 104832, Note_on_c, 9, 42, 76
1, 104832, Note_on_c, 9, 54, 26
1, 104832, Note_on_c, 9, 69, 28
1, 104836, Note_off_c, 9, 69, 28
1, 104836, Note_off_c, 9, 54, 26
1, 104836, Note_off_c, 9, 42, 76
1, 104836, Note_off_c, 9, 36, 107
1, 104836, Note_off_c, 9, 39, 86
1, 104868, Note_off_c, 11, 72, 72
1, 104928, Note_on_c, 11, 72, 78
1, 104928, Note_on_c, 9, 54, 30
1, 104932, Note_off_c, 9, 54, 30
1, 104976, Note_off_c, 11, 72, 78
1, 105012, Note_off_c, 1, 34, 96
1, 105016, Note_off_c, 2, 72, 66
1, 105024, Note_on_c, 11, 79, 83
1, 105024, Note_on_c, 2, 79, 73
1, 105024, Note_on_c, 1, 34, 85
1, 105024, Note_on_c, 9, 46, 78
1, 105024, Note_on_c, 9, 54, 20
1, 105024, Note_on_c, 9, 69, 26
1, 105028, Note_off_c, 9, 69, 26
1, 105028, Note_off_c, 9, 54, 20
1, 105028, Note_off_c, 9, 46, 78
1, 105100, Note_off_c, 11, 79, 83
1, 105112, Note_off_c, 2, 79, 73
1, 105120, Note_on_c, 9, 54, 22
1, 105120, Note_on_c, 9, 69, 18
1, 105124, Note_off_c, 9, 69, 18
1, 105124, Note_off_c, 9, 54, 22
1, 105204, Note_off_c, 1, 34, 85
1, 105216, Note_on_c, 1, 34, 92
1, 105216, Note_on_c, 9, 36, 91
1, 105216, Note_on_c, 9, 42, 65
1, 105216, Note_on_c, 9, 54, 33
1, 105216, Note_on_c, 9, 69, 22
1, 105220, Note_off_c, 9, 69, 22
1, 105220, Note_off_c, 9, 54, 33
1, 105220, Note_off_c, 9, 42, 65
1, 105220, Note_off_c, 9, 36, 91
1, 105312, Note_on_c, 9, 54, 25
1, 105316, Note_off_c, 9, 54, 25
1, 105392, Note_off_c, 15, 72, 106
1, 105408, Note_on_c, 15, 69, 96
1, 105408, Note_on_c, 11, 72, 79
1, 105408, Note_on_c, 2, 72, 69
1, 105408, Note_on_c, 9, 46, 92
1, 105408, Note_on_c, 9, 54, 21
1, 105408, Note_on_c, 9, 69, 31
1, 105412, Note_off_c, 9, 69, 31
1, 105412, Note_off_c, 9, 54, 21
1, 105412, Note_off_c, 9, 46, 92
1, 105448, Note_off_c, 11, 72, 79
1, 105488, Note_off_c, 15, 69, 96
1, 105492, Note_off_c, 1, 34, 92
1, 105504, Note_on_c, 15, 72, 102
1, 105504, Note_on_c, 11, 72, 85
1, 105504, Note_on_c, 9, 54, 27
1, 105504, Note_on_c, 9, 69, 29
1, 105508, Note_off_c, 9, 69, 29
1, 105508, Note_off_c, 9, 54, 27
1, 105548, Note_off_c, 11, 72, 85
1, 105592, Note_off_c, 2, 72, 69
1, 105600, Note_on_c, 11, 79, 73
1, 105600, Note_on_c, 2, 79, 70
1, 105600, Note_on_c, 9, 39, 79
1, 105600, Note_on_c, 1, 34, 91
1, 105600, Note_on_c, 9, 36, 104
1, 105600, Note_on_c, 9, 42, 65
1, 105600, Note_on_c, 9, 54, 21
1, 105600, Note_on_c, 9, 69, 16
1, 105604, Note_off_c, 9, 69, 16
1, 105604, Note_off_c, 9, 54, 21
1, 105604, Note_off_c, 9, 42, 65
1, 105604, Note_off_c, 9, 36, 104
1, 105604, Note_off_c, 9, 39, 79
1, 105676, Note_off_c, 11, 79, 73
1, 105688, Note_off_c, 2, 79, 70
1, 105696, Note_on_c, 9, 54, 27
1, 105700, Note_off_c, 9, 54, 27
1, 105760, Pitch_bend_c, 1, 8192
1, 105768, Pitch_bend_c, 1, 8059
1, 105776, Note_off_c, 15, 72, 102
1, 105776, Pitch_bend_c, 1, 7927
1, 105784, Pitch_bend_c, 1, 7794
1, 105792, Note_on_c, 15, 69, 101
1, 105792, Pitch_bend_c, 1, 7661
1, 105792, Note_on_c, 9, 46, 86
1, 105792, Note_on_c, 9, 54, 21
1, 105792, Note_on_c, 9, 69, 32
1, 105796, Note_off_c, 9, 69, 32
1, 105796, Note_off_c, 9, 54, 21
1, 105796, Note_off_c, 9, 46, 86
1, 105800, Pitch_bend_c, 1, 7529
1, 105808, Pitch_bend_c, 1, 7396
1, 105816, Pitch_bend_c, 1, 7264
1, 105824, Pitch_bend_c, 1, 7131
1, 105832, Pitch_bend_c, 1, 6998
1, 105840, Pitch_bend_c, 1, 6866
1, 105848, Pitch_bend_c, 1, 6733
1, 105856, Pitch_bend_c, 1, 6600
1, 105864, Pitch_bend_c, 1, 6468
1, 105872, Note_off_c, 15, 69, 101
1, 105872, Pitch_bend_c, 1, 6335
1, 105876, Note_off_c, 10, 64, 57
1, 105880, Pitch_bend_c, 1, 6203
1, 105888, Note_on_c, 15, 67, 103
1, 105888, Pitch_bend_c, 1, 6070
1, 105888, Note_on_c, 9, 54, 30
1, 105888, Note_on_c, 9, 69, 16
1, 105892, Note_off_c, 9, 69, 16
1, 105892, Note_off_c, 9, 54, 30
1, 105896, Pitch_bend_c, 1, 5937
1, 105904, Pitch_bend_c, 1, 5805
1, 105912, Pitch_bend_c, 1, 5672
1, 105920, Pitch_bend_c, 1, 5539
1, 105928, Pitch_bend_c, 1, 5407
1, 105936, Pitch_bend_c, 1, 5274
1, 105968, Note_off_c, 15, 67, 103
1, 105968, Note_off_c, 5, 58, 104
1, 105968, Note_off_c, 5, 53, 99
1, 105968, Note_off_c, 5, 50, 93
1, 105972, Note_off_c, 1, 34, 91
1, 105976, Note_off_c, 8, 46, 109
1, 105976, Pitch_bend_c, 1, 8192
1, 105984, Note_on_c, 10, 65, 65
1, 105984, Note_on_c, 8, 41, 112
1, 105984, Note_on_c, 7, 60, 106
1, 105984, Note_on_c, 7, 64, 98
1, 105984, Note_on_c, 5, 53, 85
1, 105984, Note_on_c, 5, 57, 91
1, 105984, Note_on_c, 5, 60, 92
1, 105984, Note_on_c, 1, 29, 86
1, 105984, Note_on_c, 9, 36, 97
1, 105984, Note_on_c, 9, 42, 70
1, 105984, Note_on_c, 9, 54, 19
1, 105984, Note_on_c, 9, 69, 22
1, 105988, Note_off_c, 9, 69, 22
1, 105988, Note_off_c, 9, 54, 19
1, 105988, Note_off_c, 9, 42, 70
1, 105988, Note_off_c, 9, 36, 97
1, 106080, Note_on_c, 9, 54, 29
1, 106084, Note_off_c, 9, 54, 29
1, 106168, Note_off_c, 7, 64, 98
1, 106168, Note_off_c, 7, 60, 106
1, 106176, Note_on_c, 7, 62, 94
1, 106176, Note_on_c, 7, 65, 96
1, 106176, Note_on_c, 9, 46, 88
1, 106176, Note_on_c, 9, 54, 29
1, 106176, Note_on_c, 9, 69, 20
1, 106180, Note_off_c, 9, 69, 20
1, 106180, Note_off_c, 9, 54, 29
1, 106180, Note_off_c, 9, 46, 88
1, 106272, Note_on_c, 9, 54, 17
1, 106272, Note_on_c, 9, 69, 28
1, 106276, Note_off_c, 9, 69, 28
1, 106276, Note_off_c, 9, 54, 17
1, 106360, Note_off_c, 7, 65, 96
1, 106360, Note_off_c, 7, 62, 94
1, 106368, Note_on_c, 11, 72, 75
1, 106368, Note_on_c, 2, 72, 82
1, 106368, Note_on_c, 9, 39, 89
1, 106368, Note_on_c, 9, 36, 93
1, 106368, Note_on_c, 9, 42, 73
1, 106368, Note_on_c, 9, 54, 31
1, 106368, Note_on_c, 9, 69, 22
1, 106372, Note_off_c, 9, 69, 22
1, 106372, Note_off_c, 9, 54, 31
1, 106372, Note_off_c, 9, 42, 73
1, 106372, Note_off_c, 9, 36, 93
1, 106372, Note_off_c, 9, 39, 89
1, 106408, Note_off_c, 11, 72, 75
1, 106464, Note_on_c, 11, 72, 72
1, 106464, Note_on_c, 9, 54, 30
1, 106468, Note_off_c, 9, 54, 30
1, 106512, Note_off_c, 11, 72, 72
1, 106548, Note_off_c, 1, 29, 86
1, 106552, Note_off_c, 2, 72, 82
1, 106560, Note_on_c, 15, 55, 112
1, 106560, Note_on_c, 11, 79, 74
1, 106560, Note_on_c, 2, 79, 66
1, 106560, Note_on_c, 1, 29, 91
1, 106560, Note_on_c, 9, 46, 80
1, 106560, Note_on_c, 9, 54, 18
1, 106560, Note_on_c, 9, 69, 15
1, 106564, Note_off_c, 9, 69, 15
1, 106564, Note_off_c, 9, 54, 18
1, 106564, Note_off_c, 9, 46, 80
1, 106640, Note_off_c, 11, 79, 74
1, 106640, Note_off_c, 15, 55, 112
1, 106644, Note_off_c, 1, 29, 91
1, 106648, Note_off_c, 2, 79, 66
1, 106656, Note_on_c, 15, 67, 112
1, 106656, Note_on_c, 9, 54, 21
1, 106656, Note_on_c, 9, 69, 17
1, 106660, Note_off_c, 9, 69, 17
1, 106660, Note_off_c, 9, 54, 21
1, 106752, Note_on_c, 1, 29, 102
1, 106752, Note_on_c, 9, 36, 92
1, 106752, Note_on_c, 9, 42, 70
1, 106752, Note_on_c, 9, 54, 28
1, 106752, Note_on_c, 9, 69, 22
1, 106756, Note_off_c, 9, 69, 22
1, 106756, Note_off_c, 9, 54, 28
1, 106756, Note_off_c, 9, 42, 70
1, 106756, Note_off_c, 9, 36, 92
1, 106848, Note_on_c, 9, 54, 31
1, 106852, Note_off_c, 9, 54, 31
1, 106928, Note_off_c, 15, 67, 112
1, 106944, Note_on_c, 15, 65, 112
1, 106944, Note_on_c, 11, 72, 76
1, 106944, Note_on_c, 2, 72, 76
1, 106944, Note_on_c, 9, 46, 88
1, 106944, Note_on_c, 9, 54, 16
1, 106944, Note_on_c, 9, 69, 32
1, 106948, Note_off_c, 9, 69, 32
1, 106948, Note_off_c, 9, 54, 16
1, 106948, Note_off_c, 9, 46, 88
1, 106984, Note_off_c, 11, 72, 76
1, 107040, Note_on_c, 11, 72, 89
1, 107040, Note_on_c, 9, 54, 16
1, 107040, Note_on_c, 9, 69, 24
1, 107044, Note_off_c, 9, 69, 24
1, 107044, Note_off_c, 9, 54, 16
1, 107092, Note_off_c, 11, 72, 89
1, 107128, Note_off_c, 2, 72, 76
1, 107136, Note_on_c, 11, 79, 80
1, 107136, Note_on_c, 2, 79, 82
1, 107136, Note_on_c, 9, 39, 78
1, 107136, Note_on_c, 9, 36, 101
1, 107136, Note_on_c, 9, 42, 74
1, 107136, Note_on_c, 9, 54, 29
1, 107136, Note_on_c, 9, 69, 15
1, 107140, Note_off_c, 9, 69, 15
1, 107140, Note_off_c, 9, 54, 29
1, 107140, Note_off_c, 9, 42, 74
1, 107140, Note_off_c, 9, 36, 101
1, 107140, Note_off_c, 9, 39, 78
1, 107212, Note_off_c, 11, 79, 80
1, 107224, Note_off_c, 2, 79, 82
1, 107232, Note_on_c, 9, 54, 23
1, 107236, Note_off_c, 9, 54, 23
1, 107312, Note_off_c, 15, 65, 112
1, 107328, Note_on_c, 15, 64, 101
1, 107328, Note_on_c, 9, 46, 89
1, 107328, Note_on_c, 9, 54, 21
1, 107328, Note_on_c, 9, 69, 17
1, 107332, Note_off_c, 9, 69, 17
1, 107332, Note_off_c, 9, 54, 21
1, 107332, Note_off_c, 9, 46, 89
1, 107424, Note_on_c, 9, 54, 17
1, 107424, Note_on_c, 9, 69, 23
1, 107428, Note_off_c, 9, 69, 23
1, 107428, Note_off_c, 9, 54, 17
1, 107504, Note_off_c, 15, 64, 101
1, 107520, Note_on_c, 15, 64, 106
1, 107520, Note_on_c, 9, 36, 92
1, 107520, Note_on_c, 9, 42, 63
1, 107520, Note_on_c, 9, 54, 19
1, 107520, Note_on_c, 9, 69, 22
1, 107524, Note_off_c, 9, 69, 22
1, 107524, Note_off_c, 9, 54, 19
1, 107524, Note_off_c, 9, 42, 63
1, 107524, Note_off_c, 9, 36, 92
1, 107616, Note_on_c, 9, 54, 29
1, 107620, Note_off_c, 9, 54, 29
1, 107712, Note_on_c, 9, 46, 91
1, 107712, Note_on_c, 9, 54, 29
1, 107712, Note_on_c, 9, 69, 20
1, 107716, Note_off_c, 9, 69, 20
1, 107716, Note_off_c, 9, 54, 29
1, 107716, Note_off_c, 9, 46, 91
1, 107792, Note_off_c, 15, 64, 106
1, 107808, Note_on_c, 9, 54, 17
1, 107808, Note_on_c, 9, 69, 28
1, 107812, Note_off_c, 9, 69, 28
1, 107812, Note_off_c, 9, 54, 17
1, 107904, Note_on_c, 15, 64, 106
1, 107904, Note_on_c, 9, 39, 83
1, 107904, Note_on_c, 9, 36, 98
1, 107904, Note_on_c, 9, 42, 75
1, 107904, Note_on_c, 9, 54, 31
1, 107904, Note_on_c, 9, 69, 22
1, 107908, Note_off_c, 9, 69, 22
1, 107908, Note_off_c, 9, 54, 31
1, 107908, Note_off_c, 9, 42, 75
1, 107908, Note_off_c, 9, 36, 98
1, 107908, Note_off_c, 9, 39, 83
1, 107984, Note_off_c, 15, 64, 106
1, 108000, Note_on_c, 15, 62, 100
1, 108000, Note_on_c, 9, 54, 30
1, 108004, Note_off_c, 9, 54, 30
1, 108080, Note_off_c, 15, 62, 100
1, 108096, Note_on_c, 15, 60, 112
1, 108096, Note_on_c, 10, 55, 64
1, 108096, Note_on_c, 9, 46, 78
1, 108096, Note_on_c, 9, 54, 18
1, 108096, Note_on_c, 9, 69, 15
1, 108100, Note_off_c, 9, 69, 15
1, 108100, Note_off_c, 9, 54, 18
1, 108100, Note_off_c, 9, 46, 78
1, 108152, Note_off_c, 10, 55, 64
1, 108160, Note_on_c, 10, 53, 66
1, 108192, Note_on_c, 9, 54, 21
1, 108192, Note_on_c, 9, 69, 17
1, 108196, Note_off_c, 9, 69, 17
1, 108196, Note_off_c, 9, 54, 21
1, 108216, Note_off_c, 10, 53, 66
1, 108224, Note_on_c, 10, 55, 68
1, 108272, Note_off_c, 15, 60, 112
1, 108276, Note_off_c, 1, 29, 102
1, 108280, Note_off_c, 10, 55, 68
1, 108280, Note_on_c, 12, 84, 65
1, 108288, Note_on_c, 15, 55, 106
1, 108288, Note_on_c, 15, 57, 109
1, 108288, Note_on_c, 10, 60, 71
1, 108288, Note_on_c, 1, 33, 92
1, 108288, Note_on_c, 9, 36, 92
1, 108288, Note_on_c, 9, 42, 73
1, 108288, Note_on_c, 9, 54, 28
1, 108288, Note_on_c, 9, 69, 22
1, 108292, Note_off_c, 9, 69, 22
1, 108292, Note_off_c, 9, 54, 28
1, 108292, Note_off_c, 9, 42, 73
1, 108292, Note_off_c, 9, 36, 92
1, 108344, Note_off_c, 10, 60, 71
1, 108352, Note_on_c, 10, 59, 73
1, 108368, Note_off_c, 15, 57, 109
1, 108384, Note_on_c, 9, 54, 31
1, 108388, Note_off_c, 9, 54, 31
1, 108408, Note_off_c, 10, 59, 73
1, 108416, Note_on_c, 10, 60, 75
1, 108464, Note_off_c, 15, 55, 106
1, 108468, Note_off_c, 12, 84, 65
1, 108472, Note_off_c, 10, 60, 75
1, 108476, Note_on_c, 12, 91, 49
1, 108480, Note_on_c, 15, 60, 109
1, 108480, Note_on_c, 10, 67, 77
1, 108480, Note_on_c, 9, 46, 86
1, 108480, Note_on_c, 9, 54, 16
1, 108480, Note_on_c, 9, 69, 32
1, 108484, Note_off_c, 9, 69, 32
1, 108484, Note_off_c, 9, 54, 16
1, 108484, Note_off_c, 9, 46, 86
1, 108536, Note_off_c, 10, 67, 77
1, 108544, Note_on_c, 10, 65, 80
1, 108576, Note_on_c, 9, 54, 16
1, 108576, Note_on_c, 9, 69, 24
1, 108580, Note_off_c, 9, 69, 24
1, 108580, Note_off_c, 9, 54, 16
1, 108600, Note_off_c, 10, 65, 80
1, 108608, Note_on_c, 10, 67, 82
1, 108648, Note_off_c, 12, 91, 49
1, 108660, Note_off_c, 1, 33, 92
1, 108664, Note_off_c, 10, 67, 82
1, 108664, Note_off_c, 8, 41, 112
1, 108664, Note_on_c, 12, 96, 59
1, 108672, Note_on_c, 10, 72, 84
1, 108672, Note_on_c, 8, 48, 112
1, 108672, Note_on_c, 9, 39, 72
1, 108672, Note_on_c, 1, 36, 91
1, 108672, Note_on_c, 9, 36, 100
1, 108672, Note_on_c, 9, 42, 65
1, 108672, Note_on_c, 9, 54, 29
1, 108672, Note_on_c, 9, 69, 15
1, 108676, Note_off_c, 9, 69, 15
1, 108676, Note_off_c, 9, 54, 29
1, 108676, Note_off_c, 9, 42, 65
1, 108676, Note_off_c, 9, 36, 100
1, 108676, Note_off_c, 9, 39, 72
1, 108728, Note_off_c, 10, 72, 84
1, 108736, Note_on_c, 10, 71, 86
1, 108768, Note_on_c, 9, 54, 23
1, 108772, Note_off_c, 9, 54, 23
1, 108792, Note_off_c, 10, 71, 86
1, 108800, Note_on_c, 10, 72, 89
1, 108856, Note_off_c, 10, 72, 89
1, 108856, Note_on_c, 12, 91, 60
1, 108860, Note_off_c, 12, 96, 59
1, 108864, Note_on_c, 10, 79, 91
1, 108864, Note_on_c, 2, 89, 75
1, 108864, Note_on_c, 9, 46, 93
1, 108864, Note_on_c, 9, 54, 21
1, 108864, Note_on_c, 9, 69, 17
1, 108868, Note_off_c, 9, 69, 17
1, 108868, Note_off_c, 9, 54, 21
1, 108868, Note_off_c, 9, 46, 93
1, 108872, Pitch_bend_c, 1, 8192
1, 108880, Pitch_bend_c, 1, 8282
1, 108888, Pitch_bend_c, 1, 8373
1, 108896, Pitch_bend_c, 1, 8464
1, 108904, Pitch_bend_c, 1, 8555
1, 108912, Pitch_bend_c, 1, 8646
1, 108920, Note_off_c, 2, 89, 75
1, 108920, Note_off_c, 10, 79, 91
1, 108920, Pitch_bend_c, 1, 8736
1, 108928, Note_on_c, 10, 77, 93
1, 108928, Note_on_c, 2, 88, 82
1, 108928, Pitch_bend_c, 1, 8827
1, 108936, Pitch_bend_c, 1, 8918
1, 108944, Note_off_c, 15, 60, 109
1, 108944, Pitch_bend_c, 1, 9009
1, 108952, Pitch_bend_c, 1, 9100
1, 108960, Pitch_bend_c, 1, 9191
1, 108960, Note_on_c, 9, 54, 17
1, 108960, Note_on_c, 9, 69, 23
1, 108964, Note_off_c, 9, 69, 23
1, 108964, Note_off_c, 9, 54, 17
1, 108968, Pitch_bend_c, 1, 9281
1, 108976, Pitch_bend_c, 1, 9372
1, 108984, Note_off_c, 2, 88, 82
1, 108984, Note_off_c, 10, 77, 93
1, 108984, Pitch_bend_c, 1, 9463
1, 108992, Note_on_c, 10, 79, 95
1, 108992, Note_on_c, 2, 86, 78
1, 108992, Pitch_bend_c, 1, 9554
1, 109000, Pitch_bend_c, 1, 9645
1, 109008, Pitch_bend_c, 1, 9736
1, 109016, Pitch_bend_c, 1, 9826
1, 109024, Pitch_bend_c, 1, 9917
1, 109032, Pitch_bend_c, 1, 10008
1, 109040, Note_off_c, 5, 60, 92
1, 109040, Note_off_c, 5, 57, 91
1, 109040, Note_off_c, 5, 53, 85
1, 109040, Pitch_bend_c, 1, 10099
1, 109044, Note_off_c, 1, 36, 91
1, 109048, Note_off_c, 2, 86, 78
1, 109048, Note_off_c, 10, 79, 95
1, 109048, Note_off_c, 8, 48, 112
1, 109048, Pitch_bend_c, 1, 8192
1, 109056, Note_on_c, 10, 64, 68
1, 109056, Note_on_c, 8, 50, 112
1, 109056, Note_on_c, 7, 60, 93
1, 109056, Note_on_c, 7, 64, 95
1, 109056, Note_on_c, 5, 50, 93
1, 109056, Note_on_c, 5, 53, 85
1, 109056, Note_on_c, 5, 57, 94
1, 109056, Note_on_c, 2, 84, 64
1, 109056, Note_on_c, 1, 38, 93
1, 109056, Note_on_c, 9, 36, 92
1, 109056, Note_on_c, 9, 42, 73
1, 109056, Note_on_c, 9, 57, 109
1, 109056, Note_on_c, 9, 54, 25
1, 109056, Note_on_c, 9, 69, 32
1, 109060, Note_off_c, 9, 69, 32
1, 109060, Note_off_c, 9, 54, 25
1, 109060, Note_off_c, 9, 57, 109
1, 109060, Note_off_c, 9, 42, 73
1, 109060, Note_off_c, 9, 36, 92
1, 109064, Note_off_c, 10, 65, 65
1, 109152, Note_on_c, 9, 54, 20
1, 109156, Note_off_c, 9, 54, 20
1, 109240, Note_off_c, 2, 84, 64
1, 109240, Note_off_c, 7, 64, 95
1, 109240, Note_off_c, 7, 60, 93
1, 109248, Note_on_c, 7, 62, 97
1, 109248, Note_on_c, 7, 65, 97
1, 109248, Note_on_c, 9, 46, 94
1, 109248, Note_on_c, 9, 54, 20
1, 109248, Note_on_c, 9, 69, 32
1, 109252, Note_off_c, 9, 69, 32
1, 109252, Note_off_c, 9, 54, 20
1, 109252, Note_off_c, 9, 46, 94
1, 109344, Note_on_c, 9, 54, 34
1, 109344, Note_on_c, 9, 69, 34
1, 109348, Note_off_c, 9, 69, 34
1, 109348, Note_off_c, 9, 54, 34
1, 109432, Note_off_c, 7, 65, 97
1, 109432, Note_off_c, 7, 62, 97
1, 109440, Note_on_c, 15, 67, 110
1, 109440, Note_on_c, 11, 72, 74
1, 109440, Note_on_c, 2, 72, 74
1, 109440, Note_on_c, 9, 39, 78
1, 109440, Note_on_c, 9, 36, 91
1, 109440, Note_on_c, 9, 42, 79
1, 109440, Note_on_c, 9, 54, 34
1, 109440, Note_on_c, 9, 69, 24
1, 109444, Note_off_c, 9, 69, 24
1, 109444, Note_off_c, 9, 54, 34
1, 109444, Note_off_c, 9, 42, 79
1, 109444, Note_off_c, 9, 36, 91
1, 109444, Note_off_c, 9, 39, 78
1, 109468, Note_off_c, 11, 72, 74
1, 109536, Note_on_c, 11, 72, 80
1, 109536, Note_on_c, 9, 54, 20
1, 109540, Note_off_c, 9, 54, 20
1, 109588, Note_off_c, 11, 72, 80
1, 109616, Note_off_c, 15, 67, 110
1, 109620, Note_off_c, 1, 38, 93
1, 109624, Note_off_c, 2, 72, 74
1, 109632, Note_on_c, 15, 76, 106
1, 109632, Note_on_c, 11, 79, 81
1, 109632, Note_on_c, 2, 79, 66
1, 109632, Note_on_c, 1, 38, 97
1, 109632, Note_on_c, 9, 46, 92
1, 109632, Note_on_c, 9, 54, 21
1, 109632, Note_on_c, 9, 69, 15
1, 109636, Note_off_c, 9, 69, 15
1, 109636, Note_off_c, 9, 54, 21
1, 109636, Note_off_c, 9, 46, 92
1, 109692, Note_off_c, 11, 79, 81
1, 109716, Note_off_c, 1, 38, 97
1, 109720, Note_off_c, 2, 79, 66
1, 109728, Note_on_c, 9, 54, 24
1, 109728, Note_on_c, 9, 69, 31
1, 109732, Note_off_c, 9, 69, 31
1, 109732, Note_off_c, 9, 54, 24
1, 109824, Note_on_c, 1, 38, 85
1, 109824, Note_on_c, 9, 36, 91
1, 109824, Note_on_c, 9, 42, 72
1, 109824, Note_on_c, 9, 54, 26
1, 109824, Note_on_c, 9, 69, 25
1, 109828, Note_off_c, 9, 69, 25
1, 109828, Note_off_c, 9, 54, 26
1, 109828, Note_off_c, 9, 42, 72
1, 109828, Note_off_c, 9, 36, 91
1, 109892, Note_off_c, 12, 91, 60
1, 109904, Note_off_c, 15, 76, 106
1, 109920, Note_on_c, 9, 54, 28
1, 109924, Note_off_c, 9, 54, 28
1, 110016, Note_on_c, 15, 76, 105
1, 110016, Note_on_c, 11, 72, 76
1, 110016, Note_on_c, 2, 72, 66
1, 110016, Note_on_c, 9, 46, 83
1, 110016, Note_on_c, 9, 54, 26
1, 110016, Note_on_c, 9, 69, 23
1, 110020, Note_off_c, 9, 69, 23
1, 110020, Note_off_c, 9, 54, 26
1, 110020, Note_off_c, 9, 46, 83
1, 110056, Note_off_c, 11, 72, 76
1, 110112, Note_on_c, 11, 72, 72
1, 110112, Note_on_c, 9, 54, 29
1, 110112, Note_on_c, 9, 69, 30
1, 110116, Note_off_c, 9, 69, 30
1, 110116, Note_off_c, 9, 54, 29
1, 110164, Note_off_c, 11, 72, 72
1, 110200, Note_off_c, 2, 72, 66
1, 110208, Note_on_c, 11, 79, 72
1, 110208, Note_on_c, 2, 79, 79
1, 110208, Note_on_c, 9, 39, 85
1, 110208, Note_on_c, 9, 36, 97
1, 110208, Note_on_c, 9, 42, 68
1, 110208, Note_on_c, 9, 54, 29
1, 110208, Note_on_c, 9, 69, 20
1, 110212, Note_off_c, 9, 69, 20
1, 110212, Note_off_c, 9, 54, 29
1, 110212, Note_off_c, 9, 42, 68
1, 110212, Note_off_c, 9, 36, 97
1, 110212, Note_off_c, 9, 39, 85
1, 110276, Note_off_c, 11, 79, 72
1, 110288, Note_off_c, 15, 76, 105
1, 110296, Note_off_c, 2, 79, 79
1, 110304, Note_on_c, 9, 54, 26
1, 110308, Note_off_c, 9, 54, 26
1, 110392, Pitch_bend_c, 1, 8192
1, 110400, Note_on_c, 15, 76, 101
1, 110400, Pitch_bend_c, 1, 8006
1, 110400, Note_on_c, 9, 46, 82
1, 110400, Note_on_c, 9, 54, 25
1, 110400, Note_on_c, 9, 69, 30
1, 110404, Note_off_c, 9, 69, 30
1, 110404, Note_off_c, 9, 54, 25
1, 110404, Note_off_c, 9, 46, 82
1, 110408, Pitch_bend_c, 1, 7820
1, 110416, Pitch_bend_c, 1, 7633
1, 110424, Pitch_bend_c, 1, 7447
1, 110432, Pitch_bend_c, 1, 7261
1, 110440, Pitch_bend_c, 1, 7075
1, 110448, Pitch_bend_c, 1, 6888
1, 110456, Pitch_bend_c, 1, 6702
1, 110464, Pitch_bend_c, 1, 6516
1, 110472, Pitch_bend_c, 1, 6330
1, 110480, Pitch_bend_c, 1, 6143
1, 110488, Pitch_bend_c, 1, 5957
1, 110496, Pitch_bend_c, 1, 5771
1, 110496, Note_on_c, 9, 54, 16
1, 110496, Note_on_c, 9, 69, 23
1, 110500, Note_off_c, 9, 69, 23
1, 110500, Note_off_c, 9, 54, 16
1, 110504, Pitch_bend_c, 1, 5585
1, 110512, Pitch_bend_c, 1, 5398
1, 110520, Pitch_bend_c, 1, 5212
1, 110528, Pitch_bend_c, 1, 5026
1, 110532, Note_off_c, 10, 64, 68
1, 110536, Pitch_bend_c, 1, 4840
1, 110544, Pitch_bend_c, 1, 4654
1, 110552, Pitch_bend_c, 1, 4467
1, 110576, Note_off_c, 5, 57, 94
1, 110576, Note_off_c, 5, 53, 85
1, 110576, Note_off_c, 5, 50, 93
1, 110580, Note_off_c, 1, 38, 85
1, 110584, Note_off_c, 8, 50, 112
1, 110584, Pitch_bend_c, 1, 8192
1, 110592, Note_on_c, 10, 64, 65
1, 110592, Note_on_c, 8, 46, 112
1, 110592, Note_on_c, 7, 60, 99
1, 110592, Note_on_c, 7, 64, 97
1, 110592, Note_on_c, 5, 50, 99
1, 110592, Note_on_c, 5, 53, 89
1, 110592, Note_on_c, 5, 58, 88
1, 110592, Note_on_c, 1, 34, 97
1, 110592, Note_on_c, 9, 36, 95
1, 110592, Note_on_c, 9, 42, 65
1, 110592, Note_on_c, 9, 54, 27
1, 110592, Note_on_c, 9, 69, 22
1, 110596, Note_off_c, 9, 69, 22
1, 110596, Note_off_c, 9, 54, 27
1, 110596, Note_off_c, 9, 42, 65
1, 110596, Note_off_c, 9, 36, 95
1, 110672, Note_off_c, 15, 76, 101
1, 110688, Note_on_c, 15, 74, 111
1, 110688, Note_on_c, 9, 54, 33
1, 110692, Note_off_c, 9, 54, 33
1, 110768, Note_off_c, 15, 74, 111
1, 110776, Note_off_c, 7, 64, 97
1, 110776, Note_off_c, 7, 60, 99
1, 110784, Note_on_c, 15, 72, 112
1, 110784, Note_on_c, 7, 62, 89
1, 110784, Note_on_c, 7, 65, 91
1, 110784, Note_on_c, 9, 46, 81
1, 110784, Note_on_c, 9, 54, 15
1, 110784, Note_on_c, 9, 69, 32
1, 110788, Note_off_c, 9, 69, 32
1, 110788, Note_off_c, 9, 54, 15
1, 110788, Note_off_c, 9, 46, 81
1, 110880, Note_on_c, 9, 54, 17
1, 110880, Note_on_c, 9, 69, 29
1, 110884, Note_off_c, 9, 69, 29
1, 110884, Note_off_c, 9, 54, 17
1, 110968, Note_off_c, 7, 65, 91
1, 110968, Note_off_c, 7, 62, 89
1, 110976, Note_on_c, 11, 72, 84
1, 110976, Note_on_c, 2, 72, 72
1, 110976, Note_on_c, 9, 39, 81
1, 110976, Note_on_c, 9, 36, 96
1, 110976, Note_on_c, 9, 42, 64
1, 110976, Note_on_c, 9, 54, 29
1, 110976, Note_on_c, 9, 69, 15
1, 110980, Note_off_c, 9, 69, 15
1, 110980, Note_off_c, 9, 54, 29
1, 110980, Note_off_c, 9, 42, 64
1, 110980, Note_off_c, 9, 36, 96
1, 110980, Note_off_c, 9, 39, 81
1, 110996, Note_off_c, 11, 72, 84
1, 111060, Note_off_c, 1, 34, 97
1, 111072, Note_on_c, 11, 72, 90
1, 111072, Note_on_c, 9, 54, 27
1, 111076, Note_off_c, 9, 54, 27
1, 111108, Note_off_c, 11, 72, 90
1, 111152, Note_off_c, 15, 72, 112
1, 111160, Note_off_c, 2, 72, 72
1, 111168, Note_on_c, 15, 69, 105
1, 111168, Note_on_c, 11, 79, 80
1, 111168, Note_on_c, 2, 79, 65
1, 111168, Note_on_c, 1, 34, 85
1, 111168, Note_on_c, 9, 46, 94
1, 111168, Note_on_c, 9, 54, 18
1, 111168, Note_on_c, 9, 69, 17
1, 111172, Note_off_c, 9, 69, 17
1, 111172, Note_off_c, 9, 54, 18
1, 111172, Note_off_c, 9, 46, 94
1, 111240, Note_off_c, 11, 79, 80
1, 111248, Note_off_c, 15, 69, 105
1, 111252, Note_off_c, 1, 34, 85
1, 111256, Note_off_c, 2, 79, 65
1, 111264, Note_on_c, 15, 72, 105
1, 111264, Note_on_c, 9, 54, 21
1, 111264, Note_on_c, 9, 69, 31
1, 111268, Note_off_c, 9, 69, 31
1, 111268, Note_off_c, 9, 54, 21
1, 111360, Note_on_c, 1, 34, 86
1, 111360, Note_on_c, 9, 36, 90
1, 111360, Note_on_c, 9, 42, 73
1, 111360, Note_on_c, 9, 54, 29
1, 111360, Note_on_c, 9, 69, 26
1, 111364, Note_off_c, 9, 69, 26
1, 111364, Note_off_c, 9, 54, 29
1, 111364, Note_off_c, 9, 42, 73
1, 111364, Note_off_c, 9, 36, 90
1, 111456, Note_on_c, 9, 54, 26
1, 111460, Note_off_c, 9, 54, 26
1, 111536, Note_off_c, 15, 72, 105
1, 111552, Note_on_c, 15, 74, 100
1, 111552, Note_on_c, 11, 72, 74
1, 111552, Note_on_c, 2, 72, 82
1, 111552, Note_on_c, 9, 46, 77
1, 111552, Note_on_c, 9, 54, 31
1, 111552, Note_on_c, 9, 69, 19
1, 111556, Note_off_c, 9, 69, 19
1, 111556, Note_off_c, 9, 54, 31
1, 111556, Note_off_c, 9, 46, 77
1, 111580, Note_off_c, 11, 72, 74
1, 111648, Note_on_c, 11, 72, 87
1, 111648, Note_on_c, 9, 54, 21
1, 111648, Note_on_c, 9, 69, 28
1, 111652, Note_off_c, 9, 69, 28
1, 111652, Note_off_c, 9, 54, 21
1, 111680, Note_off_c, 11, 72, 87
1, 111728, Note_off_c, 15, 74, 100
1, 111736, Note_off_c, 2, 72, 82
1, 111744, Note_on_c, 15, 72, 109
1, 111744, Note_on_c, 11, 79, 71
1, 111744, Note_on_c, 2, 79, 70
1, 111744, Note_on_c, 9, 39, 71
1, 111744, Note_on_c, 9, 36, 107
1, 111744, Note_on_c, 9, 42, 64
1, 111744, Note_on_c, 9, 54, 22
1, 111744, Note_on_c, 9, 69, 24
1, 111748, Note_off_c, 9, 69, 24
1, 111748, Note_off_c, 9, 54, 22
1, 111748, Note_off_c, 9, 42, 64
1, 111748, Note_off_c, 9, 36, 107
1, 111748, Note_off_c, 9, 39, 71
1, 111824, Note_off_c, 11, 79, 71
1, 111832, Note_off_c, 2, 79, 70
1, 111840, Note_on_c, 9, 54, 27
1, 111844, Note_off_c, 9, 54, 27
1, 111936, Note_on_c, 9, 46, 93
1, 111936, Note_on_c, 9, 54, 31
1, 111936, Note_on_c, 9, 69, 23
1, 111940, Note_off_c, 9, 69, 23
1, 111940, Note_off_c, 9, 54, 31
1, 111940, Note_off_c, 9, 46, 93
1, 111944, Pitch_bend_c, 1, 8192
1, 111952, Pitch_bend_c, 1, 8102
1, 111960, Pitch_bend_c, 1, 8013
1, 111968, Pitch_bend_c, 1, 7923
1, 111976, Pitch_bend_c, 1, 7833
1, 111984, Pitch_bend_c, 1, 7744
1, 111992, Pitch_bend_c, 1, 7654
1, 112000, Pitch_bend_c, 1, 7564
1, 112008, Pitch_bend_c, 1, 7474
1, 112016, Pitch_bend_c, 1, 7385
1, 112020, Note_off_c, 10, 64, 65
1, 112024, Pitch_bend_c, 1, 7295
1, 112032, Pitch_bend_c, 1, 7205
1, 112032, Note_on_c, 9, 54, 18
1, 112032, Note_on_c, 9, 69, 23
1, 112036, Note_off_c, 9, 69, 23
1, 112036, Note_off_c, 9, 54, 18
1, 112040, Pitch_bend_c, 1, 7116
1, 112048, Pitch_bend_c, 1, 7026
1, 112056, Pitch_bend_c, 1, 6936
1, 112064, Pitch_bend_c, 1, 6847
1, 112072, Pitch_bend_c, 1, 6757
1, 112080, Pitch_bend_c, 1, 6667
1, 112088, Pitch_bend_c, 1, 6578
1, 112112, Note_off_c, 5, 58, 88
1, 112112, Note_off_c, 5, 53, 89
1, 112112, Note_off_c, 5, 50, 99
1, 112116, Note_off_c, 1, 34, 86
1, 112120, Note_off_c, 8, 46, 112
1, 112120, Pitch_bend_c, 1, 8192
1, 112128, Note_on_c, 10, 62, 62
1, 112128, Note_on_c, 8, 43, 112
1, 112128, Note_on_c, 7, 62, 91
1, 112128, Note_on_c, 5, 43, 89
1, 112128, Note_on_c, 5, 55, 94
1, 112128, Note_on_c, 5, 62, 99
1, 112128, Note_on_c, 1, 31, 100
1, 112128, Note_on_c, 9, 36, 101
1, 112128, Note_on_c, 9, 42, 64
1, 112128, Note_on_c, 9, 54, 27
1, 112128, Note_on_c, 9, 69, 17
1, 112132, Note_off_c, 9, 69, 17
1, 112132, Note_off_c, 9, 54, 27
1, 112132, Note_off_c, 9, 42, 64
1, 112132, Note_off_c, 9, 36, 101
1, 112224, Note_on_c, 9, 54, 16
1, 112228, Note_off_c, 9, 54, 16
1, 112320, Note_on_c, 9, 46, 93
1, 112320, Note_on_c, 9, 54, 30
1, 112320, Note_on_c, 9, 69, 32
1, 112324, Note_off_c, 9, 69, 32
1, 112324, Note_off_c, 9, 54, 30
1, 112324, Note_off_c, 9, 46, 93
1, 112416, Note_on_c, 9, 54, 28
1, 112416, Note_on_c, 9, 69, 24
1, 112420, Note_off_c, 9, 69, 24
1, 112420, Note_off_c, 9, 54, 28
1, 112496, Note_off_c, 15, 72, 109
1, 112500, Note_off_c, 1, 31, 100
1, 112512, Note_on_c, 9, 39, 85
1, 112512, Note_on_c, 1, 31, 94
1, 112512, Note_on_c, 9, 36, 106
1, 112512, Note_on_c, 9, 42, 78
1, 112512, Note_on_c, 9, 54, 19
1, 112512, Note_on_c, 9, 69, 17
1, 112516, Note_off_c, 9, 69, 17
1, 112516, Note_off_c, 9, 54, 19
1, 112516, Note_off_c, 9, 42, 78
1, 112516, Note_off_c, 9, 36, 106
1, 112516, Note_off_c, 9, 39, 85
1, 112608, Note_on_c, 9, 54, 32
1, 112612, Note_off_c, 9, 54, 32
1, 112704, Note_on_c, 15, 55, 112
1, 112704, Note_on_c, 9, 46, 85
1, 112704, Note_on_c, 9, 54, 30
1, 112704, Note_on_c, 9, 69, 28
1, 112708, Note_off_c, 9, 69, 28
1, 112708, Note_off_c, 9, 54, 30
1, 112708, Note_off_c, 9, 46, 85
1, 112788, Note_off_c, 1, 31, 94
1, 112800, Note_on_c, 9, 54, 33
1, 112800, Note_on_c, 9, 69, 28
1, 112804, Note_off_c, 9, 69, 28
1, 112804, Note_off_c, 9, 54, 33
1, 112880, Note_off_c, 15, 55, 112
1, 112896, Note_on_c, 15, 67, 105
1, 112896, Note_on_c, 1, 31, 88
1, 112896, Note_on_c, 9, 36, 106
1, 112896, Note_on_c, 9, 42, 60
1, 112896, Note_on_c, 9, 54, 26
1, 112896, Note_on_c, 9, 69, 16
1, 112900, Note_off_c, 9, 69, 16
1, 112900, Note_off_c, 9, 54, 26
1, 112900, Note_off_c, 9, 42, 60
1, 112900, Note_off_c, 9, 36, 106
1, 112980, Note_off_c, 1, 31, 88
1, 112992, Note_on_c, 9, 54, 34
1, 112996, Note_off_c, 9, 54, 34
1, 113072, Note_off_c, 15, 67, 105
1, 113088, Note_on_c, 15, 67, 106
1, 113088, Note_on_c, 1, 31, 104
1, 113088, Note_on_c, 9, 46, 91
1, 113088, Note_on_c, 9, 54, 18
1, 113088, Note_on_c, 9, 69, 27
1, 113092, Note_off_c, 9, 69, 27
1, 113092, Note_off_c, 9, 54, 18
1, 113092, Note_off_c, 9, 46, 91
1, 113172, Note_off_c, 1, 31, 104
1, 113184, Note_on_c, 9, 54, 16
1, 113184, Note_on_c, 9, 69, 29
1, 113188, Note_off_c, 9, 69, 29
1, 113188, Note_off_c, 9, 54, 16
1, 113280, Note_on_c, 9, 39, 89
1, 113280, Note_on_c, 1, 31, 94
1, 113280, Note_on_c, 9, 36, 97
1, 113280, Note_on_c, 9, 42, 76
1, 113280, Note_on_c, 9, 54, 22
1, 113280, Note_on_c, 9, 69, 22
1, 113284, Note_off_c, 9, 69, 22
1, 113284, Note_off_c, 9, 54, 22
1, 113284, Note_off_c, 9, 42, 76
1, 113284, Note_off_c, 9, 36, 97
1, 113284, Note_off_c, 9, 39, 89
1, 113364, Note_off_c, 1, 31, 94
1, 113376, Note_on_c, 9, 54, 18
1, 113380, Note_off_c, 9, 54, 18
1, 113456, Note_off_c, 15, 67, 106
1, 113472, Note_on_c, 15, 69, 103
1, 113472, Note_on_c, 1, 31, 92
1, 113472, Note_on_c, 9, 46, 86
1, 113472, Note_on_c, 9, 54, 19
1, 113472, Note_on_c, 9, 69, 33
1, 113476, Note_off_c, 9, 69, 33
1, 113476, Note_off_c, 9, 54, 19
1, 113476, Note_off_c, 9, 46, 86
1, 113556, Note_off_c, 1, 31, 92
1, 113568, Note_on_c, 9, 54, 27
1, 113568, Note_on_c, 9, 69, 28
1, 113572, Note_off_c, 9, 69, 28
1, 113572, Note_off_c, 9, 54, 27
1, 113664, Note_on_c, 10, 91, 83
1, 113664, Note_on_c, 2, 74, 75
1, 113664, Note_on_c, 2, 79, 72
1, 113664, Note_on_c, 1, 31, 99
1, 113664, Note_on_c, 9, 36, 95
1, 113664, Note_on_c, 9, 42, 65
1, 113664, Note_on_c, 9, 54, 15
1, 113664, Note_on_c, 9, 69, 26
1, 113668, Note_off_c, 9, 69, 26
1, 113668, Note_off_c, 9, 54, 15
1, 113668, Note_off_c, 9, 42, 65
1, 113668, Note_off_c, 9, 36, 95
1, 113744, Note_off_c, 15, 69, 103
1, 113748, Note_off_c, 1, 31, 99
1, 113760, Note_on_c, 9, 54, 25
1, 113764, Note_off_c, 9, 54, 25
1, 113856, Note_on_c, 15, 69, 99
1, 113856, Note_on_c, 1, 31, 97
1, 113856, Note_on_c, 9, 46, 84
1, 113856, Note_on_c, 9, 54, 22
1, 113856, Note_on_c, 9, 69, 28
1, 113860, Note_off_c, 9, 69, 28
1, 113860, Note_off_c, 9, 54, 22
1, 113860, Note_off_c, 9, 46, 84
1, 113928, Note_off_c, 2, 79, 72
1, 113928, Note_off_c, 2, 74, 75
1, 113940, Note_off_c, 1, 31, 97
1, 113952, Note_on_c, 9, 54, 15
1, 113952, Note_on_c, 9, 69, 27
1, 113956, Note_off_c, 9, 69, 27
1, 113956, Note_off_c, 9, 54, 15
1, 114048, Note_on_c, 2, 74, 65
1, 114048, Note_on_c, 2, 79, 75
1, 114048, Note_on_c, 9, 39, 81
1, 114048, Note_on_c, 1, 31, 88
1, 114048, Note_on_c, 9, 36, 91
1, 114048, Note_on_c, 9, 42, 71
1, 114048, Note_on_c, 9, 54, 19
1, 114048, Note_on_c, 9, 69, 18
1, 114052, Note_off_c, 9, 69, 18
1, 114052, Note_off_c, 9, 54, 19
1, 114052, Note_off_c, 9, 42, 71
1, 114052, Note_off_c, 9, 36, 91
1, 114052, Note_off_c, 9, 39, 81
1, 114132, Note_off_c, 1, 31, 88
1, 114144, Note_on_c, 9, 54, 34
1, 114148, Note_off_c, 9, 54, 34
1, 114224, Note_off_c, 15, 69, 99
1, 114240, Note_on_c, 15, 72, 109
1, 114240, Note_on_c, 1, 31, 86
1, 114240, Note_on_c, 9, 46, 84
1, 114240, Note_on_c, 9, 54, 21
1, 114240, Note_on_c, 9, 69, 22
1, 114244, Note_off_c, 9, 69, 22
1, 114244, Note_off_c, 9, 54, 21
1, 114244, Note_off_c, 9, 46, 84
1, 114312, Note_off_c, 2, 79, 75
1, 114312, Note_off_c, 2, 74, 65
1, 114324, Note_off_c, 1, 31, 86
1, 114336, Note_on_c, 9, 54, 26
1, 114336, Note_on_c, 9, 69, 27
1, 114340, Note_off_c, 9, 69, 27
1, 114340, Note_off_c, 9, 54, 26
1, 114432, Note_on_c, 2, 72, 65
1, 114432, Note_on_c, 2, 74, 65
1, 114432, Note_on_c, 2, 79, 70
1, 114432, Note_on_c, 1, 31, 103
1, 114432, Note_on_c, 9, 36, 93
1, 114432, Note_on_c, 9, 42, 73
1, 114432, Note_on_c, 9, 54, 26
1, 114432, Note_on_c, 9, 69, 20
1, 114436, Note_off_c, 9, 69, 20
1, 114436, Note_off_c, 9, 54, 26
1, 114436, Note_off_c, 9, 42, 73
1, 114436, Note_off_c, 9, 36, 93
1, 114516, Note_off_c, 1, 31, 103
1, 114520, Note_off_c, 2, 79, 70
1, 114520, Note_off_c, 2, 74, 65
1, 114520, Note_off_c, 2, 72, 65
1, 114528, Note_on_c, 9, 54, 24
1, 114532, Note_off_c, 9, 54, 24
1, 114624, Note_on_c, 2, 72, 81
1, 114624, Note_on_c, 2, 74, 67
1, 114624, Note_on_c, 2, 79, 65
1, 114624, Note_on_c, 1, 31, 96
1, 114624, Note_on_c, 9, 46, 87
1, 114624, Note_on_c, 9, 54, 18
1, 114624, Note_on_c, 9, 69, 31
1, 114628, Note_off_c, 9, 69, 31
1, 114628, Note_off_c, 9, 54, 18
1, 114628, Note_off_c, 9, 46, 87
1, 114708, Note_off_c, 1, 31, 96
1, 114712, Note_off_c, 2, 79, 65
1, 114712, Note_off_c, 2, 74, 67
1, 114712, Note_off_c, 2, 72, 81
1, 114720, Note_on_c, 9, 54, 23
1, 114720, Note_on_c, 9, 69, 31
1, 114724, Note_off_c, 9, 69, 31
1, 114724, Note_off_c, 9, 54, 23
1, 114800, Note_off_c, 15, 72, 109
1, 114816, Note_on_c, 15, 74, 107
1, 114816, Note_on_c, 2, 72, 77
1, 114816, Note_on_c, 2, 74, 67
1, 114816, Note_on_c, 2, 79, 66
1, 114816, Note_on_c, 9, 39, 86
1, 114816, Note_on_c, 1, 31, 101
1, 114816, Note_on_c, 9, 36, 91
1, 114816, Note_on_c, 9, 42, 67
1, 114816, Note_on_c, 9, 54, 29
1, 114816, Note_on_c, 9, 69, 17
1, 114820, Note_off_c, 9, 69, 17
1, 114820, Note_off_c, 9, 54, 29
1, 114820, Note_off_c, 9, 42, 67
1, 114820, Note_off_c, 9, 36, 91
1, 114820, Note_off_c, 9, 39, 86
1, 114900, Note_off_c, 1, 31, 101
1, 114904, Note_off_c, 2, 79, 66
1, 114904, Note_off_c, 2, 74, 67
1, 114904, Note_off_c, 2, 72, 77
1, 114912, Note_on_c, 9, 54, 29
1, 114916, Note_off_c, 9, 54, 29
1, 114992, Note_off_c, 15, 74, 107
1, 115008, Note_on_c, 15, 72, 98
1, 115008, Note_on_c, 2, 72, 73
1, 115008, Note_on_c, 2, 74, 73
1, 115008, Note_on_c, 2, 79, 66
1, 115008, Note_on_c, 1, 31, 88
1, 115008, Note_on_c, 9, 46, 88
1, 115008, Note_on_c, 9, 54, 32
1, 115008, Note_on_c, 9, 69, 23
1, 115012, Note_off_c, 9, 69, 23
1, 115012, Note_off_c, 9, 54, 32
1, 115012, Note_off_c, 9, 46, 88
1, 115092, Note_off_c, 1, 31, 88
1, 115096, Note_off_c, 2, 79, 66
1, 115096, Note_off_c, 2, 74, 73
1, 115096, Note_off_c, 2, 72, 73
1, 115104, Note_on_c, 9, 54, 26
1, 115104, Note_on_c, 9, 69, 30
1, 115108, Note_off_c, 9, 69, 30
1, 115108, Note_off_c, 9, 54, 26
1, 115160, Note_off_c, 10, 91, 83
1, 115184, Note_off_c, 15, 72, 98
1, 115184, Note_off_c, 5, 62, 99
1, 115184, Note_off_c, 5, 55, 94
1, 115184, Note_off_c, 5, 43, 89
1, 115192, Note_off_c, 8, 43, 112
1, 115196, Note_off_c, 7, 62, 91
1, 115200, Tempo, 504200
1, 115200, Note_on_c, 15, 74, 117
1, 115200, Note_on_c, 8, 48, 120
1, 115200, Note_on_c, 7, 60, 117
1, 115200, Note_on_c, 7, 64, 116
1, 115200, Note_on_c, 7, 67, 113
1, 115200, Note_on_c, 9, 36, 124
1, 115200, Note_on_c, 9, 42, 88
1, 115204, Note_off_c, 9, 42, 88
1, 115204, Note_off_c, 9, 36, 124
1, 115208, Note_off_c, 10, 62, 62
1, 115376, Note_off_c, 15, 74, 117
1, 115384, Note_off_c, 7, 67, 113
1, 115384, Note_off_c, 7, 64, 116
1, 115384, Note_off_c, 7, 60, 117
1, 115384, Note_off_c, 8, 48, 120
1, 115392, Note_on_c, 15, 72, 120
1, 115584, Note_on_c, 8, 52, 115
1, 115584, Note_on_c, 7, 60, 113
1, 115584, Note_on_c, 7, 64, 118
1, 115584, Note_on_c, 7, 67, 113
1, 115672, Note_off_c, 7, 67, 113
1, 115672, Note_off_c, 7, 64, 118
1, 115672, Note_off_c, 7, 60, 113
1, 115672, Note_off_c, 8, 52, 115
1, 115776, Note_on_c, 8, 53, 127
1, 115776, Note_on_c, 7, 60, 119
1, 115776, Note_on_c, 7, 65, 103
1, 115776, Note_on_c, 7, 69, 110
1, 115864, Note_off_c, 7, 69, 110
1, 115864, Note_off_c, 7, 65, 103
1, 115864, Note_off_c, 7, 60, 119
1, 115864, Note_off_c, 8, 53, 127
1, 116160, Note_on_c, 8, 52, 121
1, 116160, Note_on_c, 7, 60, 121
1, 116160, Note_on_c, 7, 64, 108
1, 116160, Note_on_c, 7, 67, 117
1, 116248, Note_off_c, 7, 67, 117
1, 116248, Note_off_c, 7, 64, 108
1, 116248, Note_off_c, 7, 60, 121
1, 116248, Note_off_c, 8, 52, 121
1, 116544, Note_on_c, 8, 53, 127
1, 116544, Note_on_c, 7, 60, 114
1, 116544, Note_on_c, 7, 65, 118
1, 116544, Note_on_c, 7, 69, 104
1, 116632, Note_off_c, 7, 69, 104
1, 116632, Note_off_c, 7, 65, 118
1, 116632, Note_off_c, 7, 60, 114
1, 116632, Note_off_c, 8, 53, 127
1, 116912, Note_off_c, 15, 72, 120
1, 116928, Note_on_c, 8, 52, 127
1, 116928, Note_on_c, 7, 60, 107
1, 116928, Note_on_c, 7, 64, 114
1, 116928, Note_on_c, 7, 67, 109
1, 117016, Note_off_c, 7, 67, 109
1, 117016, Note_off_c, 7, 64, 114
1, 117016, Note_off_c, 7, 60, 107
1, 117016, Note_off_c, 8, 52, 127
1, 117312, Note_on_c, 8, 53, 115
1, 117312, Note_on_c, 7, 60, 109
1, 117312, Note_on_c, 7, 65, 112
1, 117312, Note_on_c, 7, 69, 120
1, 117400, Note_off_c, 7, 69, 120
1, 117400, Note_off_c, 7, 65, 112
1, 117400, Note_off_c, 7, 60, 109
1, 117400, Note_off_c, 8, 53, 115
1, 117504, Note_on_c, 8, 55, 124
1, 117504, Note_on_c, 7, 62, 104
1, 117504, Note_on_c, 7, 67, 104
1, 117504, Note_on_c, 7, 71, 117
1, 117688, Note_off_c, 7, 71, 117
1, 117688, Note_off_c, 7, 67, 104
1, 117688, Note_off_c, 7, 62, 104
1, 117688, Note_off_c, 8, 55, 124
1, 117888, Note_on_c, 8, 55, 119
1, 117888, Note_on_c, 6, 71, 119
1, 117888, Note_on_c, 7, 62, 110
1, 117888, Note_on_c, 7, 67, 121
1, 117888, Note_on_c, 7, 71, 114
1, 117944, Note_off_c, 6, 71, 119
1, 117952, Note_on_c, 6, 72, 112
1, 118008, Note_off_c, 6, 72, 112
1, 118016, Note_on_c, 6, 71, 106
1, 118072, Note_off_c, 6, 71, 106
1, 118072, Note_off_c, 7, 71, 114
1, 118072, Note_off_c, 7, 67, 121
1, 118072, Note_off_c, 7, 62, 110
1, 118072, Note_off_c, 8, 55, 119
1, 118080, Note_on_c, 6, 69, 103
1, 118168, Note_off_c, 6, 69, 103
1, 118176, Note_on_c, 6, 71, 100
1, 118264, Note_off_c, 6, 71, 100
1, 118272, Tempo, 500000
1, 118272, Note_on_c, 8, 48, 124
1, 118272, Note_on_c, 6, 72, 119
1, 118272, Note_on_c, 7, 60, 109
1, 118272, Note_on_c, 7, 64, 118
1, 118272, Note_on_c, 7, 67, 114
1, 118456, Note_off_c, 7, 67, 114
1, 118456, Note_off_c, 7, 64, 118
1, 118456, Note_off_c, 7, 60, 109
1, 118456, Note_off_c, 8, 48, 124
1, 118656, Note_on_c, 8, 52, 119
1, 118656, Note_on_c, 7, 60, 122
1, 118656, Note_on_c, 7, 64, 116
1, 118656, Note_on_c, 7, 67, 106
1, 118744, Note_off_c, 7, 67, 106
1, 118744, Note_off_c, 7, 64, 116
1, 118744, Note_off_c, 7, 60, 122
1, 118744, Note_off_c, 8, 52, 119
1, 118848, Note_on_c, 8, 53, 127
1, 118848, Note_on_c, 7, 60, 110
1, 118848, Note_on_c, 7, 65, 119
1, 118848, Note_on_c, 7, 69, 107
1, 118936, Note_off_c, 7, 69, 107
1, 118936, Note_off_c, 7, 65, 119
1, 118936, Note_off_c, 7, 60, 110
1, 118936, Note_off_c, 8, 53, 127
1, 119232, Note_on_c, 8, 52, 127
1, 119232, Note_on_c, 7, 60, 112
1, 119232, Note_on_c, 7, 64, 121
1, 119232, Note_on_c, 7, 67, 110
1, 119320, Note_off_c, 7, 67, 110
1, 119320, Note_off_c, 7, 64, 121
1, 119320, Note_off_c, 7, 60, 112
1, 119320, Note_off_c, 8, 52, 127
1, 119616, Note_on_c, 8, 53, 123
1, 119616, Note_on_c, 7, 60, 111
1, 119616, Note_on_c, 7, 65, 109
1, 119616, Note_on_c, 7, 69, 121
1, 119704, Note_off_c, 7, 69, 121
1, 119704, Note_off_c, 7, 65, 109
1, 119704, Note_off_c, 7, 60, 111
1, 119704, Note_off_c, 8, 53, 123
1, 120000, Note_on_c, 8, 52, 127
1, 120000, Note_on_c, 7, 60, 122
1, 120000, Note_on_c, 7, 64, 120
1, 120000, Note_on_c, 7, 67, 115
1, 120088, Note_off_c, 7, 67, 115
1, 120088, Note_off_c, 7, 64, 120
1, 120088, Note_off_c, 7, 60, 122
1, 120088, Note_off_c, 8, 52, 127
1, 120384, Note_on_c, 8, 53, 127
1, 120384, Note_on_c, 7, 60, 114
1, 120384, Note_on_c, 7, 65, 108
1, 120384, Note_on_c, 7, 69, 115
1, 120472, Note_off_c, 7, 69, 115
1, 120472, Note_off_c, 7, 65, 108
1, 120472, Note_off_c, 7, 60, 114
1, 120472, Note_off_c, 8, 53, 127
1, 120576, Note_on_c, 13, 43, 101
1, 120576, Note_on_c, 8, 55, 118
1, 120576, Note_on_c, 7, 62, 114
1, 120576, Note_on_c, 7, 67, 112
1, 120576, Note_on_c, 7, 71, 122
1, 120576, Note_on_c, 2, 62, 85
1, 120576, Note_on_c, 2, 67, 93
1, 120576, Note_on_c, 2, 71, 86
1, 120576, Note_on_c, 1, 31, 101
1, 120576, Note_on_c, 9, 36, 105
1, 120576, Note_on_c, 9, 38, 106
1, 120576, Note_on_c, 9, 43, 82
1, 120576, Note_on_c, 9, 49, 106
1, 120580, Note_off_c, 9, 49, 106
1, 120580, Note_off_c, 9, 43, 82
1, 120580, Note_off_c, 9, 38, 106
1, 120580, Note_off_c, 9, 36, 105
1, 120624, Pitch_bend_c, 1, 8192
1, 120632, Pitch_bend_c, 1, 7992
1, 120640, Note_off_c, 13, 43, 101
1, 120640, Pitch_bend_c, 1, 7791
1, 120648, Pitch_bend_c, 1, 7591
1, 120656, Pitch_bend_c, 1, 7390
1, 120664, Pitch_bend_c, 1, 7190
1, 120672, Pitch_bend_c, 1, 6990
1, 120680, Pitch_bend_c, 1, 6789
1, 120688, Pitch_bend_c, 1, 6589
1, 120696, Pitch_bend_c, 1, 6388
1, 120704, Pitch_bend_c, 1, 6188
1, 120712, Pitch_bend_c, 1, 5988
1, 120720, Pitch_bend_c, 1, 5787
1, 120728, Pitch_bend_c, 1, 5587
1, 120740, Note_off_c, 1, 31, 101
1, 120752, Note_off_c, 2, 62, 85
1, 120756, Note_off_c, 2, 71, 86
1, 120760, Note_off_c, 2, 67, 93
1, 120760, Note_off_c, 7, 71, 122
1, 120760, Note_off_c, 7, 67, 112
1, 120760, Note_off_c, 7, 62, 114
1, 120760, Note_off_c, 8, 55, 118
1, 120872, Pitch_bend_c, 1, 8192
1, 120960, Note_on_c, 13, 43, 99
1, 120960, Note_on_c, 8, 55, 127
1, 120960, Note_on_c, 7, 62, 111
1, 120960, Note_on_c, 7, 67, 117
1, 120960, Note_on_c, 7, 71, 113
1, 120960, Note_on_c, 2, 62, 78
1, 120960, Note_on_c, 2, 67, 90
1, 120960, Note_on_c, 2, 71, 89
1, 120960, Note_on_c, 1, 31, 107
1, 120960, Note_on_c, 9, 36, 118
1, 120960, Note_on_c, 9, 38, 120
1, 120960, Note_on_c, 9, 43, 68
1, 120960, Note_on_c, 9, 57, 114
1, 120964, Note_off_c, 9, 57, 114
1, 120964, Note_off_c, 9, 43, 68
1, 120964, Note_off_c, 9, 38, 120
1, 120964, Note_off_c, 9, 36, 118
1, 121008, Pitch_bend_c, 1, 8192
1, 121016, Pitch_bend_c, 1, 7992
1, 121020, Note_off_c, 13, 43, 99
1, 121024, Pitch_bend_c, 1, 7791
1, 121032, Pitch_bend_c, 1, 7591
1, 121040, Pitch_bend_c, 1, 7390
1, 121048, Pitch_bend_c, 1, 7190
1, 121056, Pitch_bend_c, 1, 6990
1, 121064, Pitch_bend_c, 1, 6789
1, 121072, Pitch_bend_c, 1, 6589
1, 121080, Pitch_bend_c, 1, 6388
1, 121088, Pitch_bend_c, 1, 6188
1, 121096, Pitch_bend_c, 1, 5988
1, 121104, Pitch_bend_c, 1, 5787
1, 121112, Pitch_bend_c, 1, 5587
1, 121120, Note_off_c, 1, 31, 107
1, 121132, Note_off_c, 2, 71, 89
1, 121136, Note_off_c, 2, 62, 78
1, 121144, Note_off_c, 2, 67, 90
1, 121144, Note_off_c, 7, 71, 113
1, 121144, Note_off_c, 7, 67, 117
1, 121144, Note_off_c, 7, 62, 111
1, 121144, Note_off_c, 8, 55, 127
1, 121240, Note_off_c, 6, 72, 119
1, 121240, Pitch_bend_c, 1, 8192
1, 121336, Note_on_c, 12, 65, 75
1, 121344, Note_on_c, 0, 64, 35
1, 121344, Note_on_c, 10, 65, 80
1, 121344, Note_on_c, 4, 53, 90
1, 121344, Note_on_c, 4, 60, 103
1, 121344, Note_on_c, 2, 41, 78
1, 121344, Note_on_c, 1, 29, 111
1, 121344, Note_on_c, 9, 36, 109
1, 121344, Note_on_c, 9, 42, 76
1, 121344, Note_on_c, 9, 49, 107
1, 121344, Note_on_c, 9, 54, 42
1, 121344, Note_on_c, 9, 69, 45
1, 121348, Note_off_c, 9, 69, 45
1, 121348, Note_off_c, 9, 54, 42
1, 121348, Note_off_c, 9, 49, 107
1, 121348, Note_off_c, 9, 42, 76
1, 121348, Note_off_c, 9, 36, 109
1, 121440, Note_on_c, 9, 54, 30
1, 121444, Note_off_c, 9, 54, 30
1, 121536, Note_on_c, 9, 42, 93
1, 121536, Note_on_c, 9, 54, 49
1, 121536, Note_on_c, 9, 69, 36
1, 121540, Note_off_c, 9, 69, 36
1, 121540, Note_off_c, 9, 54, 49
1, 121540, Note_off_c, 9, 42, 93
1, 121620, Note_off_c, 1, 29, 111
1, 121632, Note_on_c, 9, 54, 32
1, 121632, Note_on_c, 9, 69, 30
1, 121636, Note_off_c, 9, 69, 30
1, 121636, Note_off_c, 9, 54, 32
1, 121728, Note_on_c, 9, 39, 95
1, 121728, Note_on_c, 1, 29, 115
1, 121728, Note_on_c, 9, 36, 116
1, 121728, Note_on_c, 9, 38, 113
1, 121728, Note_on_c, 9, 42, 75
1, 121728, Note_on_c, 9, 54, 32
1, 121728, Note_on_c, 9, 69, 32
1, 121732, Note_off_c, 9, 69, 32
1, 121732, Note_off_c, 9, 54, 32
1, 121732, Note_off_c, 9, 42, 75
1, 121732, Note_off_c, 9, 38, 113
1, 121732, Note_off_c, 9, 36, 116
1, 121732, Note_off_c, 9, 39, 95
1, 121824, Note_on_c, 9, 54, 48
1, 121828, Note_off_c, 9, 54, 48
1, 121920, Note_on_c, 15, 60, 120
1, 121920, Note_on_c, 9, 42, 75
1, 121920, Note_on_c, 9, 54, 46
1, 121920, Note_on_c, 9, 69, 47
1, 121924, Note_off_c, 9, 69, 47
1, 121924, Note_off_c, 9, 54, 46
1, 121924, Note_off_c, 9, 42, 75
1, 122016, Note_on_c, 9, 54, 36
1, 122016, Note_on_c, 9, 69, 35
1, 122020, Note_off_c, 9, 69, 35
1, 122020, Note_off_c, 9, 54, 36
1, 122072, Note_off_c, 12, 65, 75
1, 122084, Note_off_c, 10, 65, 80
1, 122096, Note_off_c, 15, 60, 120
1, 122100, Note_off_c, 1, 29, 115
1, 122104, Note_on_c, 12, 64, 61
1, 122112, Note_on_c, 15, 69, 117
1, 122112, Note_on_c, 10, 64, 70
1, 122112, Note_on_c, 7, 65, 121
1, 122112, Note_on_c, 7, 69, 122
1, 122112, Note_on_c, 1, 29, 112
1, 122112, Note_on_c, 9, 36, 113
1, 122112, Note_on_c, 9, 42, 86
1, 122112, Note_on_c, 9, 54, 31
1, 122112, Note_on_c, 9, 69, 32
1, 122116, Note_off_c, 9, 69, 32
1, 122116, Note_off_c, 9, 54, 31
1, 122116, Note_off_c, 9, 42, 86
1, 122116, Note_off_c, 9, 36, 113
1, 122168, Note_off_c, 7, 69, 122
1, 122192, Note_off_c, 7, 65, 121
1, 122196, Note_off_c, 1, 29, 112
1, 122208, Note_on_c, 9, 54, 41
1, 122212, Note_off_c, 9, 54, 41
1, 122288, Note_off_c, 15, 69, 117
1, 122304, Note_on_c, 15, 67, 111
1, 122304, Note_on_c, 7, 67, 113
1, 122304, Note_on_c, 7, 71, 104
1, 122304, Note_on_c, 1, 29, 116
1, 122304, Note_on_c, 9, 42, 90
1, 122304, Note_on_c, 9, 54, 47
1, 122304, Note_on_c, 9, 69, 32
1, 122308, Note_off_c, 9, 69, 32
1, 122308, Note_off_c, 9, 54, 47
1, 122308, Note_off_c, 9, 42, 90
1, 122364, Note_off_c, 7, 71, 104
1, 122380, Note_off_c, 7, 67, 113
1, 122388, Note_off_c, 1, 29, 116
1, 122400, Note_on_c, 9, 54, 47
1, 122400, Note_on_c, 9, 69, 38
1, 122404, Note_off_c, 9, 69, 38
1, 122404, Note_off_c, 9, 54, 47
1, 122480, Note_off_c, 15, 67, 111
1, 122496, Note_on_c, 15, 67, 113
1, 122496, Note_on_c, 7, 69, 110
1, 122496, Note_on_c, 7, 72, 111
1, 122496, Note_on_c, 9, 39, 99
1, 122496, Note_on_c, 1, 29, 102
1, 122496, Note_on_c, 9, 36, 122
1, 122496, Note_on_c, 9, 38, 112
1, 122496, Note_on_c, 9, 42, 89
1, 122496, Note_on_c, 9, 54, 30
1, 122496, Note_on_c, 9, 69, 39
1, 122500, Note_off_c, 9, 69, 39
1, 122500, Note_off_c, 9, 54, 30
1, 122500, Note_off_c, 9, 42, 89
1, 122500, Note_off_c, 9, 38, 112
1, 122500, Note_off_c, 9, 36, 122
1, 122500, Note_off_c, 9, 39, 99
1, 122568, Note_off_c, 7, 72, 111
1, 122576, Note_off_c, 7, 69, 110
1, 122576, Note_off_c, 15, 67, 113
1, 122580, Note_off_c, 1, 29, 102
1, 122592, Note_on_c, 15, 64, 114
1, 122592, Note_on_c, 9, 54, 49
1, 122596, Note_off_c, 9, 54, 49
1, 122672, Note_off_c, 15, 64, 114
1, 122688, Note_on_c, 15, 64, 125
1, 122688, Note_on_c, 1, 29, 109
1, 122688, Note_on_c, 9, 42, 89
1, 122688, Note_on_c, 9, 54, 33
1, 122688, Note_on_c, 9, 69, 30
1, 122692, Note_off_c, 9, 69, 30
1, 122692, Note_off_c, 9, 54, 33
1, 122692, Note_off_c, 9, 42, 89
1, 122768, Note_off_c, 15, 64, 125
1, 122772, Note_off_c, 1, 29, 109
1, 122784, Note_on_c, 15, 62, 118
1, 122784, Note_on_c, 9, 54, 36
1, 122784, Note_on_c, 9, 69, 44
1, 122788, Note_off_c, 9, 69, 44
1, 122788, Note_off_c, 9, 54, 36
1, 122848, Note_off_c, 12, 64, 61
1, 122860, Note_off_c, 10, 64, 70
1, 122864, Note_off_c, 15, 62, 118
1, 122872, Note_on_c, 12, 62, 65
1, 122880, Note_on_c, 15, 62, 115
1, 122880, Note_on_c, 10, 62, 68
1, 122880, Note_on_c, 1, 29, 108
1, 122880, Note_on_c, 9, 36, 115
1, 122880, Note_on_c, 9, 42, 90
1, 122880, Note_on_c, 9, 54, 45
1, 122880, Note_on_c, 9, 69, 49
1, 122884, Note_off_c, 9, 69, 49
1, 122884, Note_off_c, 9, 54, 45
1, 122884, Note_off_c, 9, 42, 90
1, 122884, Note_off_c, 9, 36, 115
1, 122964, Note_off_c, 1, 29, 108
1, 122976, Note_on_c, 9, 54, 39
1, 122980, Note_off_c, 9, 54, 39
1, 123072, Note_on_c, 1, 29, 102
1, 123072, Note_on_c, 9, 42, 77
1, 123072, Note_on_c, 9, 54, 47
1, 123072, Note_on_c, 9, 69, 36
1, 123076, Note_off_c, 9, 69, 36
1, 123076, Note_off_c, 9, 54, 47
1, 123076, Note_off_c, 9, 42, 77
1, 123152, Note_off_c, 15, 62, 115
1, 123156, Note_off_c, 1, 29, 102
1, 123168, Note_on_c, 15, 60, 122
1, 123168, Note_on_c, 9, 54, 35
1, 123168, Note_on_c, 9, 69, 45
1, 123172, Note_off_c, 9, 69, 45
1, 123172, Note_off_c, 9, 54, 35
1, 123248, Note_off_c, 15, 60, 122
1, 123264, Note_on_c, 15, 60, 117
1, 123264, Note_on_c, 9, 39, 86
1, 123264, Note_on_c, 1, 29, 109
1, 123264, Note_on_c, 9, 36, 108
1, 123264, Note_on_c, 9, 38, 119
1, 123264, Note_on_c, 9, 42, 90
1, 123264, Note_on_c, 9, 54, 47
1, 123264, Note_on_c, 9, 69, 38
1, 123268, Note_off_c, 9, 69, 38
1, 123268, Note_off_c, 9, 54, 47
1, 123268, Note_off_c, 9, 42, 90
1, 123268, Note_off_c, 9, 38, 119
1, 123268, Note_off_c, 9, 36, 108
1, 123268, Note_off_c, 9, 39, 86
1, 123348, Note_off_c, 1, 29, 109
1, 123360, Note_on_c, 9, 54, 30
1, 123364, Note_off_c, 9, 54, 30
1, 123440, Note_off_c, 15, 60, 117
1, 123456, Note_on_c, 15, 60, 127
1, 123456, Note_on_c, 1, 29, 112
1, 123456, Note_on_c, 9, 42, 83
1, 123456, Note_on_c, 9, 54, 34
1, 123456, Note_on_c, 9, 69, 37
1, 123460, Note_off_c, 9, 69, 37
1, 123460, Note_off_c, 9, 54, 34
1, 123460, Note_off_c, 9, 42, 83
1, 123540, Note_off_c, 1, 29, 112
1, 123552, Note_on_c, 9, 54, 35
1, 123552, Note_on_c, 9, 69, 35
1, 123556, Note_off_c, 9, 69, 35
1, 123556, Note_off_c, 9, 54, 35
1, 123612, Note_off_c, 12, 62, 65
1, 123624, Note_off_c, 10, 62, 68
1, 123640, Note_on_c, 12, 60, 75
1, 123648, Note_on_c, 10, 60, 82
1, 123648, Note_on_c, 7, 65, 105
1, 123648, Note_on_c, 7, 69, 113
1, 123648, Note_on_c, 1, 29, 109
1, 123648, Note_on_c, 9, 36, 116
1, 123648, Note_on_c, 9, 42, 86
1, 123648, Note_on_c, 9, 54, 45
1, 123648, Note_on_c, 9, 69, 30
1, 123652, Note_off_c, 9, 69, 30
1, 123652, Note_off_c, 9, 54, 45
1, 123652, Note_off_c, 9, 42, 86
1, 123652, Note_off_c, 9, 36, 116
1, 123716, Note_off_c, 7, 69, 113
1, 123728, Note_off_c, 15, 60, 127
1, 123732, Note_off_c, 1, 29, 109
1, 123732, Note_off_c, 7, 65, 105
1, 123744, Note_on_c, 15, 62, 126
1, 123744, Note_on_c, 9, 54, 33
1, 123748, Note_off_c, 9, 54, 33
1, 123824, Note_off_c, 15, 62, 126
1, 123840, Note_on_c, 15, 64, 127
1, 123840, Note_on_c, 7, 67, 110
1, 123840, Note_on_c, 7, 71, 103
1, 123840, Note_on_c, 1, 29, 114
1, 123840, Note_on_c, 9, 42, 85
1, 123840, Note_on_c, 9, 54, 41
1, 123840, Note_on_c, 9, 69, 35
1, 123844, Note_off_c, 9, 69, 35
1, 123844, Note_off_c, 9, 54, 41
1, 123844, Note_off_c, 9, 42, 85
1, 123904, Note_off_c, 7, 71, 103
1, 123924, Note_off_c, 1, 29, 114
1, 123924, Note_off_c, 7, 67, 110
1, 123936, Note_on_c, 9, 54, 34
1, 123936, Note_on_c, 9, 69, 40
1, 123940, Note_off_c, 9, 69, 40
1, 123940, Note_off_c, 9, 54, 34
1, 124032, Note_on_c, 7, 69, 104
1, 124032, Note_on_c, 7, 72, 111
1, 124032, Note_on_c, 9, 39, 94
1, 124032, Note_on_c, 1, 29, 116
1, 124032, Note_on_c, 9, 36, 123
1, 124032, Note_on_c, 9, 38, 111
1, 124032, Note_on_c, 9, 42, 83
1, 124032, Note_on_c, 9, 54, 30
1, 124032, Note_on_c, 9, 69, 42
1, 124036, Note_off_c, 9, 69, 42
1, 124036, Note_off_c, 9, 54, 30
1, 124036, Note_off_c, 9, 42, 83
1, 124036, Note_off_c, 9, 38, 111
1, 124036, Note_off_c, 9, 36, 123
1, 124036, Note_off_c, 9, 39, 94
1, 124096, Note_off_c, 7, 72, 111
1, 124112, Note_off_c, 15, 64, 127
1, 124116, Note_off_c, 1, 29, 116
1, 124116, Note_off_c, 7, 69, 104
1, 124128, Note_on_c, 9, 54, 41
1, 124132, Note_off_c, 9, 54, 41
1, 124224, Note_on_c, 7, 67, 106
1, 124224, Note_on_c, 7, 71, 107
1, 124224, Note_on_c, 1, 29, 114
1, 124224, Note_on_c, 9, 42, 92
1, 124224, Note_on_c, 9, 54, 43
1, 124224, Note_on_c, 9, 69, 33
1, 124228, Note_off_c, 9, 69, 33
1, 124228, Note_off_c, 9, 54, 43
1, 124228, Note_off_c, 9, 42, 92
1, 124296, Pitch_bend_c, 1, 8192
1, 124304, Note_off_c, 7, 71, 107
1, 124304, Pitch_bend_c, 1, 8384
1, 124308, Note_off_c, 7, 67, 106
1, 124312, Pitch_bend_c, 1, 8576
1, 124320, Pitch_bend_c, 1, 8769
1, 124320, Note_on_c, 9, 54, 32
1, 124320, Note_on_c, 9, 69, 38
1, 124324, Note_off_c, 9, 69, 38
1, 124324, Note_off_c, 9, 54, 32
1, 124324, Note_off_c, 12, 60, 75
1, 124328, Pitch_bend_c, 1, 8961
1, 124336, Note_off_c, 10, 60, 82
1, 124336, Pitch_bend_c, 1, 9154
1, 124344, Pitch_bend_c, 1, 9346
1, 124352, Note_off_c, 0, 64, 35
1, 124352, Pitch_bend_c, 1, 9539
1, 124360, Pitch_bend_c, 1, 9731
1, 124368, Pitch_bend_c, 1, 9924
1, 124376, Pitch_bend_c, 1, 10116
1, 124384, Pitch_bend_c, 1, 10309
1, 124388, Note_off_c, 2, 41, 78
1, 124392, Pitch_bend_c, 1, 10501
1, 124400, Pitch_bend_c, 1, 10694
1, 124404, Note_off_c, 1, 29, 114
1, 124408, Note_off_c, 4, 53, 90
1, 124408, Pitch_bend_c, 1, 8192
1, 124412, Note_off_c, 4, 60, 103
1, 124416, Note_on_c, 7, 60, 104
1, 124416, Note_on_c, 7, 64, 122
1, 124416, Note_on_c, 7, 67, 111
1, 124416, Note_on_c, 1, 36, 108
1, 124416, Note_on_c, 9, 36, 107
1, 124416, Note_on_c, 9, 42, 83
1, 124416, Note_on_c, 9, 54, 38
1, 124416, Note_on_c, 9, 69, 40
1, 124420, Note_off_c, 9, 69, 40
1, 124420, Note_off_c, 9, 54, 38
1, 124420, Note_off_c, 9, 42, 83
1, 124420, Note_off_c, 9, 36, 107
1, 124504, Pitch_bend_c, 1, 8192
1, 124512, Pitch_bend_c, 1, 8009
1, 124512, Note_on_c, 9, 54, 35
1, 124516, Note_off_c, 9, 54, 35
1, 124520, Pitch_bend_c, 1, 7827
1, 124528, Pitch_bend_c, 1, 7644
1, 124536, Pitch_bend_c, 1, 7461
1, 124544, Pitch_bend_c, 1, 7278
1, 124552, Pitch_bend_c, 1, 7096
1, 124560, Pitch_bend_c, 1, 6913
1, 124568, Pitch_bend_c, 1, 6730
1, 124576, Pitch_bend_c, 1, 6548
1, 124584, Pitch_bend_c, 1, 6365
1, 124592, Pitch_bend_c, 1, 6182
1, 124600, Note_off_c, 7, 67, 111
1, 124600, Note_off_c, 7, 64, 122
1, 124600, Note_off_c, 7, 60, 104
1, 124600, Pitch_bend_c, 1, 6000
1, 124608, Pitch_bend_c, 1, 5817
1, 124608, Note_on_c, 9, 42, 87
1, 124608, Note_on_c, 9, 54, 35
1, 124608, Note_on_c, 9, 69, 35
1, 124612, Note_off_c, 9, 69, 35
1, 124612, Note_off_c, 9, 54, 35
1, 124612, Note_off_c, 9, 42, 87
1, 124616, Pitch_bend_c, 1, 5634
1, 124624, Pitch_bend_c, 1, 5451
1, 124632, Pitch_bend_c, 1, 5269
1, 124640, Pitch_bend_c, 1, 5086
1, 124648, Pitch_bend_c, 1, 4903
1, 124656, Pitch_bend_c, 1, 4720
1, 124664, Pitch_bend_c, 1, 4538
1, 124672, Pitch_bend_c, 1, 4355
1, 124680, Pitch_bend_c, 1, 4172
1, 124688, Pitch_bend_c, 1, 3990
1, 124692, Note_off_c, 1, 36, 108
1, 124696, Pitch_bend_c, 1, 3807
1, 124704, Pitch_bend_c, 1, 3624
1, 124704, Note_on_c, 9, 54, 30
1, 124704, Note_on_c, 9, 69, 42
1, 124708, Note_off_c, 9, 69, 42
1, 124708, Note_off_c, 9, 54, 30
1, 124712, Pitch_bend_c, 1, 3441
1, 124720, Pitch_bend_c, 1, 3259
1, 124728, Pitch_bend_c, 1, 3076
1, 124736, Pitch_bend_c, 1, 8192
1, 124800, Note_on_c, 7, 60, 107
1, 124800, Note_on_c, 7, 64, 106
1, 124800, Note_on_c, 7, 67, 119
1, 124800, Note_on_c, 9, 39, 98
1, 124800, Note_on_c, 1, 28, 118
1, 124800, Note_on_c, 9, 36, 107
1, 124800, Note_on_c, 9, 38, 117
1, 124800, Note_on_c, 9, 42, 78
1, 124800, Note_on_c, 9, 54, 32
1, 124800, Note_on_c, 9, 69, 41
1, 124804, Note_off_c, 9, 69, 41
1, 124804, Note_off_c, 9, 54, 32
1, 124804, Note_off_c, 9, 42, 78
1, 124804, Note_off_c, 9, 38, 117
1, 124804, Note_off_c, 9, 36, 107
1, 124804, Note_off_c, 9, 39, 98
1, 124888, Note_off_c, 7, 67, 119
1, 124888, Note_off_c, 7, 64, 106
1, 124888, Note_off_c, 7, 60, 107
1, 124896, Note_on_c, 9, 54, 49
1, 124900, Note_off_c, 9, 54, 49
1, 124980, Note_off_c, 1, 28, 118
1, 124992, Note_on_c, 7, 60, 113
1, 124992, Note_on_c, 7, 65, 112
1, 124992, Note_on_c, 7, 69, 109
1, 124992, Note_on_c, 1, 29, 113
1, 124992, Note_on_c, 9, 40, 121
1, 124992, Note_on_c, 9, 42, 75
1, 124992, Note_on_c, 9, 54, 49
1, 124992, Note_on_c, 9, 69, 39
1, 124996, Note_off_c, 9, 69, 39
1, 124996, Note_off_c, 9, 54, 49
1, 124996, Note_off_c, 9, 42, 75
1, 124996, Note_off_c, 9, 40, 121
1, 125080, Note_off_c, 7, 69, 109
1, 125080, Note_off_c, 7, 65, 112
1, 125080, Note_off_c, 7, 60, 113
1, 125088, Note_on_c, 9, 40, 112
1, 125088, Note_on_c, 9, 54, 35
1, 125088, Note_on_c, 9, 69, 35
1, 125092, Note_off_c, 9, 69, 35
1, 125092, Note_off_c, 9, 54, 35
1, 125092, Note_off_c, 9, 40, 112
1, 125172, Note_off_c, 1, 29, 113
1, 125184, Note_on_c, 9, 36, 124
1, 125184, Note_on_c, 9, 42, 86
1, 125184, Note_on_c, 9, 54, 43
1, 125184, Note_on_c, 9, 69, 48
1, 125188, Note_off_c, 9, 69, 48
1, 125188, Note_off_c, 9, 54, 43
1, 125188, Note_off_c, 9, 42, 86
1, 125188, Note_off_c, 9, 36, 124
1, 125280, Note_on_c, 15, 64, 127
1, 125280, Note_on_c, 9, 40, 123
1, 125280, Note_on_c, 9, 54, 38
1, 125284, Note_off_c, 9, 54, 38
1, 125284, Note_off_c, 9, 40, 123
1, 125376, Note_on_c, 7, 60, 103
1, 125376, Note_on_c, 7, 64, 103
1, 125376, Note_on_c, 7, 67, 108
1, 125376, Note_on_c, 1, 28, 106
1, 125376, Note_on_c, 9, 40, 120
1, 125376, Note_on_c, 9, 42, 85
1, 125376, Note_on_c, 9, 54, 39
1, 125376, Note_on_c, 9, 69, 41
1, 125380, Note_off_c, 9, 69, 41
1, 125380, Note_off_c, 9, 54, 39
1, 125380, Note_off_c, 9, 42, 85
1, 125380, Note_off_c, 9, 40, 120
1, 125456, Note_off_c, 15, 64, 127
1, 125464, Note_off_c, 7, 67, 108
1, 125464, Note_off_c, 7, 64, 103
1, 125464, Note_off_c, 7, 60, 103
1, 125472, Note_on_c, 15, 67, 121
1, 125472, Note_on_c, 9, 54, 46
1, 125472, Note_on_c, 9, 69, 41
1, 125476, Note_off_c, 9, 69, 41
1, 125476, Note_off_c, 9, 54, 46
1, 125552, Note_off_c, 15, 67, 121
1, 125556, Note_off_c, 1, 28, 106
1, 125568, Note_on_c, 15, 67, 118
1, 125568, Note_on_c, 9, 39, 90
1, 125568, Note_on_c, 9, 36, 122
1, 125568, Note_on_c, 9, 38, 121
1, 125568, Note_on_c, 9, 42, 84
1, 125568, Note_on_c, 9, 54, 46
1, 125568, Note_on_c, 9, 69, 40
1, 125572, Note_off_c, 9, 69, 40
1, 125572, Note_off_c, 9, 54, 46
1, 125572, Note_off_c, 9, 42, 84
1, 125572, Note_off_c, 9, 38, 121
1, 125572, Note_off_c, 9, 36, 122
1, 125572, Note_off_c, 9, 39, 90
1, 125648, Note_off_c, 15, 67, 118
1, 125664, Note_on_c, 15, 64, 126
1, 125664, Note_on_c, 9, 54, 37
1, 125668, Note_off_c, 9, 54, 37
1, 125744, Note_off_c, 15, 64, 126
1, 125760, Note_on_c, 15, 67, 115
1, 125760, Note_on_c, 7, 60, 112
1, 125760, Note_on_c, 7, 65, 115
1, 125760, Note_on_c, 7, 69, 106
1, 125760, Note_on_c, 1, 29, 119
1, 125760, Note_on_c, 9, 42, 81
1, 125760, Note_on_c, 9, 54, 43
1, 125760, Note_on_c, 9, 69, 42
1, 125764, Note_off_c, 9, 69, 42
1, 125764, Note_off_c, 9, 54, 43
1, 125764, Note_off_c, 9, 42, 81
1, 125840, Note_off_c, 15, 67, 115
1, 125848, Note_off_c, 7, 69, 106
1, 125848, Note_off_c, 7, 65, 115
1, 125848, Note_off_c, 7, 60, 112
1, 125856, Note_on_c, 15, 64, 118
1, 125856, Note_on_c, 9, 54, 31
1, 125856, Note_on_c, 9, 69, 43
1, 125860, Note_off_c, 9, 69, 43
1, 125860, Note_off_c, 9, 54, 31
1, 125936, Note_off_c, 15, 64, 118
1, 125940, Note_off_c, 1, 29, 119
1, 125952, Note_on_c, 15, 69, 127
1, 125952, Note_on_c, 9, 36, 112
1, 125952, Note_on_c, 9, 42, 85
1, 125952, Note_on_c, 9, 54, 31
1, 125952, Note_on_c, 9, 69, 43
1, 125956, Note_off_c, 9, 69, 43
1, 125956, Note_off_c, 9, 54, 31
1, 125956, Note_off_c, 9, 42, 85
1, 125956, Note_off_c, 9, 36, 112
1, 126048, Note_on_c, 9, 54, 36
1, 126052, Note_off_c, 9, 54, 36
1, 126144, Note_on_c, 7, 60, 112
1, 126144, Note_on_c, 7, 64, 111
1, 126144, Note_on_c, 7, 67, 114
1, 126144, Note_on_c, 1, 28, 105
1, 126144, Note_on_c, 9, 42, 78
1, 126144, Note_on_c, 9, 54, 39
1, 126144, Note_on_c, 9, 69, 46
1, 126148, Note_off_c, 9, 69, 46
1, 126148, Note_off_c, 9, 54, 39
1, 126148, Note_off_c, 9, 42, 78
1, 126224, Note_off_c, 15, 69, 127
1, 126232, Note_off_c, 7, 67, 114
1, 126232, Note_off_c, 7, 64, 111
1, 126232, Note_off_c, 7, 60, 112
1, 126240, Note_on_c, 15, 64, 112
1, 126240, Note_on_c, 9, 54, 42
1, 126240, Note_on_c, 9, 69, 33
1, 126244, Note_off_c, 9, 69, 33
1, 126244, Note_off_c, 9, 54, 42
1, 126320, Note_off_c, 15, 64, 112
1, 126324, Note_off_c, 1, 28, 105
1, 126336, Note_on_c, 15, 62, 123
1, 126336, Note_on_c, 9, 39, 90
1, 126336, Note_on_c, 9, 36, 109
1, 126336, Note_on_c, 9, 38, 112
1, 126336, Note_on_c, 9, 42, 78
1, 126336, Note_on_c, 9, 54, 42
1, 126336, Note_on_c, 9, 69, 35
1, 126340, Note_off_c, 9, 69, 35
1, 126340, Note_off_c, 9, 54, 42
1, 126340, Note_off_c, 9, 42, 78
1, 126340, Note_off_c, 9, 38, 112
1, 126340, Note_off_c, 9, 36, 109
1, 126340, Note_off_c, 9, 39, 90
1, 126432, Note_on_c, 9, 54, 38
1, 126436, Note_off_c, 9, 54, 38
1, 126512, Note_off_c, 15, 62, 123
1, 126528, Note_on_c, 15, 60, 112
1, 126528, Note_on_c, 7, 60, 104
1, 126528, Note_on_c, 7, 65, 115
1, 126528, Note_on_c, 7, 69, 122
1, 126528, Note_on_c, 1, 29, 106
1, 126528, Note_on_c, 9, 42, 89
1, 126528, Note_on_c, 9, 54, 43
1, 126528, Note_on_c, 9, 69, 36
1, 126532, Note_off_c, 9, 69, 36
1, 126532, Note_off_c, 9, 54, 43
1, 126532, Note_off_c, 9, 42, 89
1, 126616, Note_off_c, 7, 69, 122
1, 126616, Note_off_c, 7, 65, 115
1, 126616, Note_off_c, 7, 60, 104
1, 126624, Note_on_c, 9, 54, 44
1, 126624, Note_on_c, 9, 69, 35
1, 126628, Note_off_c, 9, 69, 35
1, 126628, Note_off_c, 9, 54, 44
1, 126660, Note_off_c, 1, 29, 106
1, 126720, Note_on_c, 7, 62, 114
1, 126720, Note_on_c, 7, 67, 110
1, 126720, Note_on_c, 7, 71, 114
1, 126720, Note_on_c, 1, 31, 116
1, 126720, Note_on_c, 9, 36, 115
1, 126720, Note_on_c, 9, 42, 85
1, 126720, Note_on_c, 9, 54, 44
1, 126720, Note_on_c, 9, 69, 31
1, 126724, Note_off_c, 9, 69, 31
1, 126724, Note_off_c, 9, 54, 44
1, 126724, Note_off_c, 9, 42, 85
1, 126724, Note_off_c, 9, 36, 115
1, 126800, Note_off_c, 15, 60, 112
1, 126816, Note_on_c, 15, 57, 110
1, 126816, Note_on_c, 9, 54, 44
1, 126820, Note_off_c, 9, 54, 44
1, 126896, Note_off_c, 15, 57, 110
1, 126900, Note_off_c, 1, 31, 116
1, 126904, Note_off_c, 7, 71, 114
1, 126904, Note_off_c, 7, 67, 110
1, 126904, Note_off_c, 7, 62, 114
1, 126912, Note_on_c, 15, 55, 125
1, 126912, Note_on_c, 9, 42, 80
1, 126912, Note_on_c, 9, 54, 45
1, 126912, Note_on_c, 9, 69, 31
1, 126916, Note_off_c, 9, 69, 31
1, 126916, Note_off_c, 9, 54, 45
1, 126916, Note_off_c, 9, 42, 80
1, 127008, Note_on_c, 9, 54, 38
1, 127008, Note_on_c, 9, 69, 49
1, 127012, Note_off_c, 9, 69, 49
1, 127012, Note_off_c, 9, 54, 38
1, 127104, Note_on_c, 7, 62, 117
1, 127104, Note_on_c, 7, 67, 109
1, 127104, Note_on_c, 7, 71, 105
1, 127104, Note_on_c, 9, 39, 92
1, 127104, Note_on_c, 1, 31, 113
1, 127104, Note_on_c, 9, 36, 116
1, 127104, Note_on_c, 9, 38, 122
1, 127104, Note_on_c, 9, 42, 81
1, 127104, Note_on_c, 9, 54, 32
1, 127104, Note_on_c, 9, 69, 35
1, 127108, Note_off_c, 9, 69, 35
1, 127108, Note_off_c, 9, 54, 32
1, 127108, Note_off_c, 9, 42, 81
1, 127108, Note_off_c, 9, 38, 122
1, 127108, Note_off_c, 9, 36, 116
1, 127108, Note_off_c, 9, 39, 92
1, 127184, Note_off_c, 15, 55, 125
1, 127200, Note_on_c, 9, 54, 40
1, 127204, Note_off_c, 9, 54, 40
1, 127288, Note_off_c, 7, 71, 105
1, 127288, Note_off_c, 7, 67, 109
1, 127288, Note_off_c, 7, 62, 117
1, 127296, Note_on_c, 9, 46, 99
1, 127296, Note_on_c, 9, 54, 37
1, 127296, Note_on_c, 9, 69, 49
1, 127300, Note_off_c, 9, 69, 49
1, 127300, Note_off_c, 9, 54, 37
1, 127300, Note_off_c, 9, 46, 99
1, 127380, Note_off_c, 1, 31, 113
1, 127392, Note_on_c, 9, 54, 39
1, 127392, Note_on_c, 9, 69, 35
1, 127396, Note_off_c, 9, 69, 35
1, 127396, Note_off_c, 9, 54, 39
1, 127480, Note_on_c, 12, 65, 70
1, 127488, Tempo, 504200
1, 127488, Note_on_c, 0, 64, 36
1, 127488, Note_on_c, 10, 65, 81
1, 127488, Note_on_c, 4, 53, 87
1, 127488, Note_on_c, 4, 60, 97
1, 127488, Note_on_c, 2, 41, 94
1, 127488, Note_on_c, 1, 29, 113
1, 127488, Note_on_c, 9, 36, 108
1, 127488, Note_on_c, 9, 42, 75
1, 127488, Note_on_c, 9, 57, 112
1, 127488, Note_on_c, 9, 54, 38
1, 127488, Note_on_c, 9, 69, 31
1, 127492, Note_off_c, 9, 69, 31
1, 127492, Note_off_c, 9, 54, 38
1, 127492, Note_off_c, 9, 57, 112
1, 127492, Note_off_c, 9, 42, 75
1, 127492, Note_off_c, 9, 36, 108
1, 127584, Note_on_c, 9, 54, 41
1, 127588, Note_off_c, 9, 54, 41
1, 127680, Note_on_c, 9, 42, 92
1, 127680, Note_on_c, 9, 54, 36
1, 127680, Note_on_c, 9, 69, 39
1, 127684, Note_off_c, 9, 69, 39
1, 127684, Note_off_c, 9, 54, 36
1, 127684, Note_off_c, 9, 42, 92
1, 127764, Note_off_c, 1, 29, 113
1, 127776, Note_on_c, 9, 54, 39
1, 127776, Note_on_c, 9, 69, 44
1, 127780, Note_off_c, 9, 69, 44
1, 127780, Note_off_c, 9, 54, 39
1, 127872, Note_on_c, 9, 39, 94
1, 127872, Note_on_c, 1, 29, 111
1, 127872, Note_on_c, 9, 36, 105
1, 127872, Note_on_c, 9, 38, 109
1, 127872, Note_on_c, 9, 42, 81
1, 127872, Note_on_c, 9, 54, 47
1, 127872, Note_on_c, 9, 69, 46
1, 127876, Note_off_c, 9, 69, 46
1, 127876, Note_off_c, 9, 54, 47
1, 127876, Note_off_c, 9, 42, 81
1, 127876, Note_off_c, 9, 38, 109
1, 127876, Note_off_c, 9, 36, 105
1, 127876, Note_off_c, 9, 39, 94
1, 127968, Note_on_c, 9, 54, 47
1, 127972, Note_off_c, 9, 54, 47
1, 128064, Note_on_c, 14, 67, 115
1, 128064, Note_on_c, 14, 72, 112
1, 128064, Note_on_c, 15, 67, 118
1, 128064, Note_on_c, 9, 42, 93
1, 128064, Note_on_c, 9, 54, 49
1, 128064, Note_on_c, 9, 69, 30
1, 128068, Note_off_c, 9, 69, 30
1, 128068, Note_off_c, 9, 54, 49
1, 128068, Note_off_c, 9, 42, 93
1, 128144, Note_off_c, 15, 67, 118
1, 128144, Note_off_c, 14, 72, 112
1, 128144, Note_off_c, 14, 67, 115
1, 128160, Note_on_c, 14, 74, 121
1, 128160, Note_on_c, 14, 77, 120
1, 128160, Note_on_c, 15, 74, 126
1, 128160, Note_on_c, 9, 54, 42
1, 128160, Note_on_c, 9, 69, 35
1, 128164, Note_off_c, 9, 69, 35
1, 128164, Note_off_c, 9, 54, 42
1, 128216, Note_off_c, 12, 65, 70
1, 128228, Note_off_c, 10, 65, 81
1, 128244, Note_off_c, 1, 29, 111
1, 128248, Note_on_c, 12, 64, 79
1, 128256, Note_on_c, 10, 64, 73
1, 128256, Note_on_c, 7, 65, 104
1, 128256, Note_on_c, 7, 69, 122
1, 128256, Note_on_c, 1, 29, 116
1, 128256, Note_on_c, 9, 36, 120
1, 128256, Note_on_c, 9, 42, 80
1, 128256, Note_on_c, 9, 54, 32
1, 128256, Note_on_c, 9, 69, 33
1, 128260, Note_off_c, 9, 69, 33
1, 128260, Note_off_c, 9, 54, 32
1, 128260, Note_off_c, 9, 42, 80
1, 128260, Note_off_c, 9, 36, 120
1, 128312, Note_off_c, 7, 69, 122
1, 128336, Note_off_c, 7, 65, 104
1, 128336, Note_off_c, 15, 74, 126
1, 128340, Note_off_c, 1, 29, 116
1, 128352, Note_on_c, 9, 54, 33
1, 128356, Note_off_c, 9, 54, 33
1, 128432, Note_off_c, 14, 77, 120
1, 128432, Note_off_c, 14, 74, 121
1, 128448, Note_on_c, 14, 72, 115
1, 128448, Note_on_c, 14, 76, 127
1, 128448, Note_on_c, 15, 72, 110
1, 128448, Note_on_c, 7, 67, 118
1, 128448, Note_on_c, 7, 71, 116
1, 128448, Note_on_c, 1, 29, 100
1, 128448, Note_on_c, 9, 42, 90
1, 128448, Note_on_c, 9, 54, 44
1, 128448, Note_on_c, 9, 69, 31
1, 128452, Note_off_c, 9, 69, 31
1, 128452, Note_off_c, 9, 54, 44
1, 128452, Note_off_c, 9, 42, 90
1, 128508, Note_off_c, 7, 71, 116
1, 128524, Note_off_c, 7, 67, 118
1, 128532, Note_off_c, 1, 29, 100
1, 128544, Note_on_c, 9, 54, 47
1, 128544, Note_on_c, 9, 69, 40
1, 128548, Note_off_c, 9, 69, 40
1, 128548, Note_off_c, 9, 54, 47
1, 128640, Note_on_c, 7, 69, 118
1, 128640, Note_on_c, 7, 72, 121
1, 128640, Note_on_c, 9, 39, 93
1, 128640, Note_on_c, 1, 29, 104
1, 128640, Note_on_c, 9, 36, 121
1, 128640, Note_on_c, 9, 38, 114
1, 128640, Note_on_c, 9, 42, 87
1, 128640, Note_on_c, 9, 54, 41
1, 128640, Note_on_c, 9, 69, 48
1, 128644, Note_off_c, 9, 69, 48
1, 128644, Note_off_c, 9, 54, 41
1, 128644, Note_off_c, 9, 42, 87
1, 128644, Note_off_c, 9, 38, 114
1, 128644, Note_off_c, 9, 36, 121
1, 128644, Note_off_c, 9, 39, 93
1, 128700, Note_off_c, 1, 29, 104
1, 128712, Note_off_c, 7, 72, 121
1, 128720, Note_off_c, 7, 69, 118
1, 128720, Note_off_c, 14, 76, 127
1, 128720, Note_off_c, 14, 72, 115
1, 128736, Note_on_c, 9, 54, 42
1, 128740, Note_off_c, 9, 54, 42
1, 128816, Note_off_c, 15, 72, 110
1, 128832, Note_on_c, 14, 69, 113
1, 128832, Note_on_c, 14, 72, 122
1, 128832, Note_on_c, 15, 69, 127
1, 128832, Note_on_c, 1, 29, 109
1, 128832, Note_on_c, 9, 42, 84
1, 128832, Note_on_c, 9, 54, 34
1, 128832, Note_on_c, 9, 69, 42
1, 128836, Note_off_c, 9, 69, 42
1, 128836, Note_off_c, 9, 54, 34
1, 128836, Note_off_c, 9, 42, 84
1, 128916, Note_off_c, 1, 29, 109
1, 128928, Note_on_c, 9, 54, 30
1, 128928, Note_on_c, 9, 69, 37
1, 128932, Note_off_c, 9, 69, 37
1, 128932, Note_off_c, 9, 54, 30
1, 128992, Note_off_c, 12, 64, 79
1, 129004, Note_off_c, 10, 64, 73
1, 129008, Note_off_c, 15, 69, 127
1, 129008, Note_off_c, 14, 72, 122
1, 129008, Note_off_c, 14, 69, 113
1, 129016, Note_on_c, 12, 62, 79
1, 129024, Note_on_c, 14, 72, 124
1, 129024, Note_on_c, 14, 76, 118
1, 129024, Note_on_c, 15, 72, 121
1, 129024, Note_on_c, 10, 62, 79
1, 129024, Note_on_c, 1, 29, 111
1, 129024, Note_on_c, 9, 36, 117
1, 129024, Note_on_c, 9, 42, 81
1, 129024, Note_on_c, 9, 54, 38
1, 129024, Note_on_c, 9, 69, 30
1, 129028, Note_off_c, 9, 69, 30
1, 129028, Note_off_c, 9, 54, 38
1, 129028, Note_off_c, 9, 42, 81
1, 129028, Note_off_c, 9, 36, 117
1, 129072, Pitch_bend_c, 1, 8192
1, 129080, Pitch_bend_c, 1, 8768
1, 129088, Pitch_bend_c, 1, 9345
1, 129096, Pitch_bend_c, 1, 9921
1, 129104, Pitch_bend_c, 1, 10498
1, 129112, Pitch_bend_c, 1, 11075
1, 129120, Pitch_bend_c, 1, 11652
1, 129120, Note_on_c, 9, 54, 42
1, 129124, Note_off_c, 9, 54, 42
1, 129128, Pitch_bend_c, 1, 12228
1, 129136, Pitch_bend_c, 1, 12805
1, 129144, Pitch_bend_c, 1, 13381
1, 129152, Pitch_bend_c, 1, 13958
1, 129160, Pitch_bend_c, 1, 14535
1, 129180, Note_off_c, 1, 29, 111
1, 129200, Note_off_c, 15, 72, 121
1, 129200, Note_off_c, 14, 76, 118
1, 129200, Note_off_c, 14, 72, 124
1, 129212, Pitch_bend_c, 1, 8192
1, 129216, Note_on_c, 14, 69, 115
1, 129216, Note_on_c, 14, 72, 125
1, 129216, Note_on_c, 15, 69, 119
1, 129216, Note_on_c, 1, 41, 116
1, 129216, Note_on_c, 9, 42, 75
1, 129216, Note_on_c, 9, 54, 44
1, 129216, Note_on_c, 9, 69, 32
1, 129220, Note_off_c, 9, 69, 32
1, 129220, Note_off_c, 9, 54, 44
1, 129220, Note_off_c, 9, 42, 75
1, 129300, Note_off_c, 1, 41, 116
1, 129312, Note_on_c, 9, 54, 47
1, 129312, Note_on_c, 9, 69, 35
1, 129316, Note_off_c, 9, 69, 35
1, 129316, Note_off_c, 9, 54, 47
1, 129392, Note_off_c, 15, 69, 119
1, 129392, Note_off_c, 14, 72, 125
1, 129392, Note_off_c, 14, 69, 115
1, 129408, Note_on_c, 14, 72, 116
1, 129408, Note_on_c, 14, 76, 124
1, 129408, Note_on_c, 15, 72, 121
1, 129408, Note_on_c, 9, 39, 89
1, 129408, Note_on_c, 1, 41, 114
1, 129408, Note_on_c, 9, 36, 119
1, 129408, Note_on_c, 9, 38, 121
1, 129408, Note_on_c, 9, 42, 80
1, 129408, Note_on_c, 9, 54, 46
1, 129408, Note_on_c, 9, 69, 43
1, 129412, Note_off_c, 9, 69, 43
1, 129412, Note_off_c, 9, 54, 46
1, 129412, Note_off_c, 9, 42, 80
1, 129412, Note_off_c, 9, 38, 121
1, 129412, Note_off_c, 9, 36, 119
1, 129412, Note_off_c, 9, 39, 89
1, 129488, Note_off_c, 15, 72, 121
1, 129492, Note_off_c, 1, 41, 114
1, 129504, Note_on_c, 9, 54, 40
1, 129508, Note_off_c, 9, 54, 40
1, 129584, Note_off_c, 14, 76, 124
1, 129584, Note_off_c, 14, 72, 116
1, 129600, Note_on_c, 14, 72, 119
1, 129600, Note_on_c, 14, 76, 127
1, 129600, Note_on_c, 15, 72, 127
1, 129600, Note_on_c, 1, 41, 115
1, 129600, Note_on_c, 9, 42, 90
1, 129600, Note_on_c, 9, 54, 48
1, 129600, Note_on_c, 9, 69, 36
1, 129604, Note_off_c, 9, 69, 36
1, 129604, Note_off_c, 9, 54, 48
1, 129604, Note_off_c, 9, 42, 90
1, 129680, Note_off_c, 15, 72, 127
1, 129680, Note_off_c, 14, 76, 127
1, 129680, Note_off_c, 14, 72, 119
1, 129684, Note_off_c, 1, 41, 115
1, 129696, Note_on_c, 14, 69, 124
1, 129696, Note_on_c, 14, 72, 111
1, 129696, Note_on_c, 15, 69, 116
1, 129696, Note_on_c, 9, 54, 44
1, 129696, Note_on_c, 9, 69, 44
1, 129700, Note_off_c, 9, 69, 44
1, 129700, Note_off_c, 9, 54, 44
1, 129756, Note_off_c, 12, 62, 79
1, 129768, Note_off_c, 10, 62, 79
1, 129784, Note_on_c, 12, 60, 76
1, 129792, Note_on_c, 10, 60, 86
1, 129792, Note_on_c, 7, 65, 117
1, 129792, Note_on_c, 7, 69, 112
1, 129792, Note_on_c, 1, 41, 116
1, 129792, Note_on_c, 9, 36, 111
1, 129792, Note_on_c, 9, 42, 85
1, 129792, Note_on_c, 9, 54, 47
1, 129792, Note_on_c, 9, 69, 43
1, 129796, Note_off_c, 9, 69, 43
1, 129796, Note_off_c, 9, 54, 47
1, 129796, Note_off_c, 9, 42, 85
1, 129796, Note_off_c, 9, 36, 111
1, 129860, Note_off_c, 7, 69, 112
1, 129876, Note_off_c, 1, 41, 116
1, 129876, Note_off_c, 7, 65, 117
1, 129888, Note_on_c, 9, 54, 31
1, 129892, Note_off_c, 9, 54, 31
1, 129968, Note_off_c, 15, 69, 116
1, 129968, Note_off_c, 14, 72, 111
1, 129968, Note_off_c, 14, 69, 124
1, 129984, Note_on_c, 14, 76, 126
1, 129984, Note_on_c, 15, 72, 112
1, 129984, Note_on_c, 7, 67, 118
1, 129984, Note_on_c, 7, 71, 105
1, 129984, Note_on_c, 1, 41, 111
1, 129984, Note_on_c, 9, 42, 85
1, 129984, Note_on_c, 9, 54, 40
1, 129984, Note_on_c, 9, 69, 43
1, 129988, Note_off_c, 9, 69, 43
1, 129988, Note_off_c, 9, 54, 40
1, 129988, Note_off_c, 9, 42, 85
1, 130048, Note_off_c, 7, 71, 105
1, 130068, Note_off_c, 1, 41, 111
1, 130068, Note_off_c, 7, 67, 118
1, 130080, Note_on_c, 9, 54, 37
1, 130080, Note_on_c, 9, 69, 34
1, 130084, Note_off_c, 9, 69, 34
1, 130084, Note_off_c, 9, 54, 37
1, 130176, Note_on_c, 7, 69, 119
1, 130176, Note_on_c, 7, 72, 103
1, 130176, Note_on_c, 9, 39, 100
1, 130176, Note_on_c, 1, 41, 105
1, 130176, Note_on_c, 9, 36, 106
1, 130176, Note_on_c, 9, 38, 114
1, 130176, Note_on_c, 9, 42, 86
1, 130176, Note_on_c, 9, 54, 44
1, 130176, Note_on_c, 9, 69, 32
1, 130180, Note_off_c, 9, 69, 32
1, 130180, Note_off_c, 9, 54, 44
1, 130180, Note_off_c, 9, 42, 86
1, 130180, Note_off_c, 9, 38, 114
1, 130180, Note_off_c, 9, 36, 106
1, 130180, Note_off_c, 9, 39, 100
1, 130240, Note_off_c, 7, 72, 103
1, 130256, Note_off_c, 15, 72, 112
1, 130260, Note_off_c, 1, 41, 105
1, 130260, Note_off_c, 7, 69, 119
1, 130272, Note_on_c, 15, 69, 125
1, 130272, Note_on_c, 9, 54, 31
1, 130276, Note_off_c, 9, 54, 31
1, 130352, Note_off_c, 15, 69, 125
1, 130368, Note_on_c, 15, 67, 126
1, 130368, Note_on_c, 7, 67, 109
1, 130368, Note_on_c, 7, 71, 114
1, 130368, Note_on_c, 1, 41, 100
1, 130368, Note_on_c, 9, 42, 85
1, 130368, Note_on_c, 9, 54, 41
1, 130368, Note_on_c, 9, 69, 41
1, 130372, Note_off_c, 9, 69, 41
1, 130372, Note_off_c, 9, 54, 41
1, 130372, Note_off_c, 9, 42, 85
1, 130440, Pitch_bend_c, 1, 8192
1, 130448, Note_off_c, 7, 71, 114
1, 130448, Pitch_bend_c, 1, 8384
1, 130452, Note_off_c, 7, 67, 109
1, 130456, Pitch_bend_c, 1, 8192
1, 130464, Pitch_bend_c, 1, 7910
1, 130464, Note_on_c, 9, 54, 46
1, 130464, Note_on_c, 9, 69, 35
1, 130468, Note_off_c, 9, 69, 35
1, 130468, Note_off_c, 9, 54, 46
1, 130468, Note_off_c, 12, 60, 76
1, 130472, Pitch_bend_c, 1, 7628
1, 130480, Note_off_c, 10, 60, 86
1, 130480, Pitch_bend_c, 1, 7346
1, 130488, Pitch_bend_c, 1, 7064
1, 130496, Note_off_c, 0, 64, 36
1, 130496, Pitch_bend_c, 1, 6782
1, 130504, Pitch_bend_c, 1, 6500
1, 130512, Pitch_bend_c, 1, 6218
1, 130520, Pitch_bend_c, 1, 5935
1, 130528, Pitch_bend_c, 1, 5653
1, 130532, Note_off_c, 2, 41, 94
1, 130536, Pitch_bend_c, 1, 5371
1, 130544, Note_off_c, 15, 67, 126
1, 130544, Note_off_c, 14, 76, 126
1, 130544, Pitch_bend_c, 1, 5089
1, 130548, Note_off_c, 1, 41, 100
1, 130552, Note_off_c, 4, 53, 87
1, 130552, Pitch_bend_c, 1, 8192
1, 130556, Note_off_c, 4, 60, 97
1, 130560, Tempo, 500000
1, 130560, Note_on_c, 7, 60, 112
1, 130560, Note_on_c, 7, 64, 118
1, 130560, Note_on_c, 7, 67, 111
1, 130560, Note_on_c, 1, 36, 108
1, 130560, Note_on_c, 9, 36, 121
1, 130560, Note_on_c, 9, 42, 92
1, 130560, Note_on_c, 9, 54, 41
1, 130560, Note_on_c, 9, 69, 38
1, 130564, Note_off_c, 9, 69, 38
1, 130564, Note_off_c, 9, 54, 41
1, 130564, Note_off_c, 9, 42, 92
1, 130564, Note_off_c, 9, 36, 121
1, 130648, Pitch_bend_c, 1, 8192
1, 130656, Pitch_bend_c, 1, 8009
1, 130656, Note_on_c, 9, 54, 47
1, 130660, Note_off_c, 9, 54, 47
1, 130664, Pitch_bend_c, 1, 7827
1, 130672, Pitch_bend_c, 1, 7644
1, 130680, Pitch_bend_c, 1, 7461
1, 130688, Pitch_bend_c, 1, 7278
1, 130696, Pitch_bend_c, 1, 7096
1, 130704, Pitch_bend_c, 1, 6913
1, 130712, Pitch_bend_c, 1, 6730
1, 130720, Pitch_bend_c, 1, 6548
1, 130728, Pitch_bend_c, 1, 6365
1, 130736, Pitch_bend_c, 1, 6182
1, 130744, Note_off_c, 7, 67, 111
1, 130744, Note_off_c, 7, 64, 118
1, 130744, Note_off_c, 7, 60, 112
1, 130744, Pitch_bend_c, 1, 6000
1, 130752, Pitch_bend_c, 1, 5817
1, 130752, Note_on_c, 9, 40, 108
1, 130752, Note_on_c, 9, 42, 91
1, 130752, Note_on_c, 9, 54, 41
1, 130752, Note_on_c, 9, 69, 41
1, 130756, Note_off_c, 9, 69, 41
1, 130756, Note_off_c, 9, 54, 41
1, 130756, Note_off_c, 9, 42, 91
1, 130756, Note_off_c, 9, 40, 108
1, 130760, Pitch_bend_c, 1, 5634
1, 130768, Pitch_bend_c, 1, 5451
1, 130776, Pitch_bend_c, 1, 5269
1, 130784, Pitch_bend_c, 1, 5086
1, 130792, Pitch_bend_c, 1, 4903
1, 130800, Pitch_bend_c, 1, 4720
1, 130808, Pitch_bend_c, 1, 4538
1, 130816, Pitch_bend_c, 1, 4355
1, 130824, Pitch_bend_c, 1, 4172
1, 130832, Pitch_bend_c, 1, 3990
1, 130836, Note_off_c, 1, 36, 108
1, 130840, Pitch_bend_c, 1, 3807
1, 130848, Pitch_bend_c, 1, 3624
1, 130848, Note_on_c, 9, 54, 47
1, 130848, Note_on_c, 9, 69, 43
1, 130852, Note_off_c, 9, 69, 43
1, 130852, Note_off_c, 9, 54, 47
1, 130856, Pitch_bend_c, 1, 3441
1, 130864, Pitch_bend_c, 1, 3259
1, 130872, Pitch_bend_c, 1, 3076
1, 130880, Pitch_bend_c, 1, 8192
1, 130944, Note_on_c, 7, 60, 104
1, 130944, Note_on_c, 7, 64, 117
1, 130944, Note_on_c, 7, 67, 121
1, 130944, Note_on_c, 9, 39, 86
1, 130944, Note_on_c, 1, 28, 110
1, 130944, Note_on_c, 9, 36, 115
1, 130944, Note_on_c, 9, 38, 113
1, 130944, Note_on_c, 9, 42, 91
1, 130944, Note_on_c, 9, 54, 37
1, 130944, Note_on_c, 9, 69, 32
1, 130948, Note_off_c, 9, 69, 32
1, 130948, Note_off_c, 9, 54, 37
1, 130948, Note_off_c, 9, 42, 91
1, 130948, Note_off_c, 9, 38, 113
1, 130948, Note_off_c, 9, 36, 115
1, 130948, Note_off_c, 9, 39, 86
1, 131032, Note_off_c, 7, 67, 121
1, 131032, Note_off_c, 7, 64, 117
1, 131032, Note_off_c, 7, 60, 104
1, 131040, Note_on_c, 9, 54, 39
1, 131044, Note_off_c, 9, 54, 39
1, 131124, Note_off_c, 1, 28, 110
1, 131136, Note_on_c, 7, 60, 117
1, 131136, Note_on_c, 7, 65, 115
1, 131136, Note_on_c, 7, 69, 105
1, 131136, Note_on_c, 1, 29, 103
1, 131136, Note_on_c, 9, 40, 119
1, 131136, Note_on_c, 9, 42, 80
1, 131136, Note_on_c, 9, 54, 34
1, 131136, Note_on_c, 9, 69, 36
1, 131140, Note_off_c, 9, 69, 36
1, 131140, Note_off_c, 9, 54, 34
1, 131140, Note_off_c, 9, 42, 80
1, 131140, Note_off_c, 9, 40, 119
1, 131224, Note_off_c, 7, 69, 105
1, 131224, Note_off_c, 7, 65, 115
1, 131224, Note_off_c, 7, 60, 117
1, 131232, Note_on_c, 9, 40, 120
1, 131232, Note_on_c, 9, 54, 41
1, 131232, Note_on_c, 9, 69, 44
1, 131236, Note_off_c, 9, 69, 44
1, 131236, Note_off_c, 9, 54, 41
1, 131236, Note_off_c, 9, 40, 120
1, 131316, Note_off_c, 1, 29, 103
1, 131328, Note_on_c, 9, 36, 108
1, 131328, Note_on_c, 9, 42, 88
1, 131328, Note_on_c, 9, 54, 39
1, 131328, Note_on_c, 9, 69, 40
1, 131332, Note_off_c, 9, 69, 40
1, 131332, Note_off_c, 9, 54, 39
1, 131332, Note_off_c, 9, 42, 88
1, 131332, Note_off_c, 9, 36, 108
1, 131424, Note_on_c, 9, 40, 114
1, 131424, Note_on_c, 9, 54, 47
1, 131428, Note_off_c, 9, 54, 47
1, 131428, Note_off_c, 9, 40, 114
1, 131520, Note_on_c, 15, 64, 110
1, 131520, Note_on_c, 7, 60, 104
1, 131520, Note_on_c, 7, 64, 103
1, 131520, Note_on_c, 7, 67, 109
1, 131520, Note_on_c, 1, 28, 110
1, 131520, Note_on_c, 9, 40, 112
1, 131520, Note_on_c, 9, 42, 81
1, 131520, Note_on_c, 9, 54, 42
1, 131520, Note_on_c, 9, 69, 49
1, 131524, Note_off_c, 9, 69, 49
1, 131524, Note_off_c, 9, 54, 42
1, 131524, Note_off_c, 9, 42, 81
1, 131524, Note_off_c, 9, 40, 112
1, 131608, Note_off_c, 7, 67, 109
1, 131608, Note_off_c, 7, 64, 103
1, 131608, Note_off_c, 7, 60, 104
1, 131616, Note_on_c, 9, 54, 44
1, 131616, Note_on_c, 9, 69, 41
1, 131620, Note_off_c, 9, 69, 41
1, 131620, Note_off_c, 9, 54, 44
1, 131700, Note_off_c, 1, 28, 110
1, 131712, Note_on_c, 9, 39, 102
1, 131712, Note_on_c, 9, 36, 110
1, 131712, Note_on_c, 9, 38, 109
1, 131712, Note_on_c, 9, 42, 92
1, 131712, Note_on_c, 9, 54, 30
1, 131712, Note_on_c, 9, 69, 46
1, 131716, Note_off_c, 9, 69, 46
1, 131716, Note_off_c, 9, 54, 30
1, 131716, Note_off_c, 9, 42, 92
1, 131716, Note_off_c, 9, 38, 109
1, 131716, Note_off_c, 9, 36, 110
1, 131716, Note_off_c, 9, 39, 102
1, 131808, Note_on_c, 9, 54, 42
1, 131812, Note_off_c, 9, 54, 42
1, 131888, Note_off_c, 15, 64, 110
1, 131904, Note_on_c, 15, 62, 125
1, 131904, Note_on_c, 7, 60, 109
1, 131904, Note_on_c, 7, 65, 104
1, 131904, Note_on_c, 7, 69, 110
1, 131904, Note_on_c, 1, 29, 103
1, 131904, Note_on_c, 9, 42, 86
1, 131904, Note_on_c, 9, 54, 34
1, 131904, Note_on_c, 9, 69, 46
1, 131908, Note_off_c, 9, 69, 46
1, 131908, Note_off_c, 9, 54, 34
1, 131908, Note_off_c, 9, 42, 86
1, 131984, Note_off_c, 15, 62, 125
1, 131992, Note_off_c, 7, 69, 110
1, 131992, Note_off_c, 7, 65, 104
1, 131992, Note_off_c, 7, 60, 109
1, 132000, Note_on_c, 15, 62, 110
1, 132000, Note_on_c, 9, 54, 30
1, 132000, Note_on_c, 9, 69, 48
1, 132004, Note_off_c, 9, 69, 48
1, 132004, Note_off_c, 9, 54, 30
1, 132084, Note_off_c, 1, 29, 103
1, 132096, Note_on_c, 9, 36, 109
1, 132096, Note_on_c, 9, 42, 83
1, 132096, Note_on_c, 9, 54, 44
1, 132096, Note_on_c, 9, 69, 45
1, 132100, Note_off_c, 9, 69, 45
1, 132100, Note_off_c, 9, 54, 44
1, 132100, Note_off_c, 9, 42, 83
1, 132100, Note_off_c, 9, 36, 109
1, 132192, Note_on_c, 9, 54, 37
1, 132196, Note_off_c, 9, 54, 37
1, 132272, Note_off_c, 15, 62, 110
1, 132288, Note_on_c, 15, 60, 120
1, 132288, Note_on_c, 7, 60, 120
1, 132288, Note_on_c, 7, 64, 109
1, 132288, Note_on_c, 7, 67, 120
1, 132288, Note_on_c, 1, 28, 105
1, 132288, Note_on_c, 9, 42, 78
1, 132288, Note_on_c, 9, 54, 49
1, 132288, Note_on_c, 9, 69, 37
1, 132292, Note_off_c, 9, 69, 37
1, 132292, Note_off_c, 9, 54, 49
1, 132292, Note_off_c, 9, 42, 78
1, 132368, Note_off_c, 15, 60, 120
1, 132376, Note_off_c, 7, 67, 120
1, 132376, Note_off_c, 7, 64, 109
1, 132376, Note_off_c, 7, 60, 120
1, 132384, Note_on_c, 15, 60, 112
1, 132384, Note_on_c, 9, 54, 49
1, 132384, Note_on_c, 9, 69, 48
1, 132388, Note_off_c, 9, 69, 48
1, 132388, Note_off_c, 9, 54, 49
1, 132468, Note_off_c, 1, 28, 105
1, 132480, Note_on_c, 9, 39, 99
1, 132480, Note_on_c, 9, 36, 105
1, 132480, Note_on_c, 9, 38, 123
1, 132480, Note_on_c, 9, 42, 93
1, 132480, Note_on_c, 9, 54, 36
1, 132480, Note_on_c, 9, 69, 42
1, 132484, Note_off_c, 9, 69, 42
1, 132484, Note_off_c, 9, 54, 36
1, 132484, Note_off_c, 9, 42, 93
1, 132484, Note_off_c, 9, 38, 123
1, 132484, Note_off_c, 9, 36, 105
1, 132484, Note_off_c, 9, 39, 99
1, 132560, Note_off_c, 15, 60, 112
1, 132576, Note_on_c, 15, 62, 127
1, 132576, Note_on_c, 9, 54, 41
1, 132580, Note_off_c, 9, 54, 41
1, 132656, Note_off_c, 15, 62, 127
1, 132672, Note_on_c, 15, 60, 111
1, 132672, Note_on_c, 7, 60, 121
1, 132672, Note_on_c, 7, 65, 120
1, 132672, Note_on_c, 7, 69, 111
1, 132672, Note_on_c, 1, 29, 117
1, 132672, Note_on_c, 9, 40, 120
1, 132672, Note_on_c, 9, 42, 88
1, 132672, Note_on_c, 9, 54, 32
1, 132672, Note_on_c, 9, 69, 48
1, 132676, Note_off_c, 9, 69, 48
1, 132676, Note_off_c, 9, 54, 32
1, 132676, Note_off_c, 9, 42, 88
1, 132676, Note_off_c, 9, 40, 120
1, 132760, Note_off_c, 7, 69, 111
1, 132760, Note_off_c, 7, 65, 120
1, 132760, Note_off_c, 7, 60, 121
1, 132768, Note_on_c, 9, 40, 119
1, 132768, Note_on_c, 9, 54, 44
1, 132768, Note_on_c, 9, 69, 37
1, 132772, Note_off_c, 9, 69, 37
1, 132772, Note_off_c, 9, 54, 44
1, 132772, Note_off_c, 9, 40, 119
1, 132804, Note_off_c, 1, 29, 117
1, 132848, Note_off_c, 15, 60, 111
1, 132864, Note_on_c, 15, 57, 127
1, 132864, Note_on_c, 7, 62, 112
1, 132864, Note_on_c, 7, 67, 105
1, 132864, Note_on_c, 7, 71, 103
1, 132864, Note_on_c, 1, 31, 100
1, 132864, Note_on_c, 9, 36, 121
1, 132864, Note_on_c, 9, 40, 107
1, 132864, Note_on_c, 9, 42, 88
1, 132864, Note_on_c, 9, 54, 41
1, 132864, Note_on_c, 9, 69, 31
1, 132868, Note_off_c, 9, 69, 31
1, 132868, Note_off_c, 9, 54, 41
1, 132868, Note_off_c, 9, 42, 88
1, 132868, Note_off_c, 9, 40, 107
1, 132868, Note_off_c, 9, 36, 121
1, 132960, Note_on_c, 9, 40, 109
1, 132960, Note_on_c, 9, 54, 48
1, 132964, Note_off_c, 9, 54, 48
1, 132964, Note_off_c, 9, 40, 109
1, 133040, Note_off_c, 15, 57, 127
1, 133044, Note_off_c, 1, 31, 100
1, 133048, Note_off_c, 7, 71, 103
1, 133048, Note_off_c, 7, 67, 105
1, 133048, Note_off_c, 7, 62, 112
1, 133056, Note_on_c, 15, 60, 125
1, 133056, Note_on_c, 9, 40, 111
1, 133056, Note_on_c, 9, 42, 83
1, 133056, Note_on_c, 9, 54, 33
1, 133056, Note_on_c, 9, 69, 49
1, 133060, Note_off_c, 9, 69, 49
1, 133060, Note_off_c, 9, 54, 33
1, 133060, Note_off_c, 9, 42, 83
1, 133060, Note_off_c, 9, 40, 111
1, 133152, Note_on_c, 9, 54, 34
1, 133152, Note_on_c, 9, 69, 41
1, 133156, Note_off_c, 9, 69, 41
1, 133156, Note_off_c, 9, 54, 34
1, 133248, Note_on_c, 7, 62, 111
1, 133248, Note_on_c, 7, 67, 111
1, 133248, Note_on_c, 7, 71, 112
1, 133248, Note_on_c, 9, 39, 90
1, 133248, Note_on_c, 1, 31, 113
1, 133248, Note_on_c, 9, 36, 106
1, 133248, Note_on_c, 9, 38, 124
1, 133248, Note_on_c, 9, 42, 84
1, 133248, Note_on_c, 9, 57, 115
1, 133248, Note_on_c, 9, 54, 30
1, 133248, Note_on_c, 9, 69, 35
1, 133252, Note_off_c, 9, 69, 35
1, 133252, Note_off_c, 9, 54, 30
1, 133252, Note_off_c, 9, 57, 115
1, 133252, Note_off_c, 9, 42, 84
1, 133252, Note_off_c, 9, 38, 124
1, 133252, Note_off_c, 9, 36, 106
1, 133252, Note_off_c, 9, 39, 90
1, 133328, Note_off_c, 15, 60, 125
1, 133344, Note_on_c, 15, 57, 114
1, 133344, Note_on_c, 9, 54, 39
1, 133348, Note_off_c, 9, 54, 39
1, 133424, Note_off_c, 15, 57, 114
1, 133432, Note_off_c, 7, 71, 112
1, 133432, Note_off_c, 7, 67, 111
1, 133432, Note_off_c, 7, 62, 111
1, 133440, Note_on_c, 15, 55, 110
1, 133440, Note_on_c, 9, 46, 97
1, 133440, Note_on_c, 9, 54, 48
1, 133440, Note_on_c, 9, 69, 47
1, 133444, Note_off_c, 9, 69, 47
1, 133444, Note_off_c, 9, 54, 48
1, 133444, Note_off_c, 9, 46, 97
1, 133524, Note_off_c, 1, 31, 113
1, 133536, Note_on_c, 9, 54, 34
1, 133536, Note_on_c, 9, 69, 43
1, 133540, Note_off_c, 9, 69, 43
1, 133540, Note_off_c, 9, 54, 34
1, 133616, Note_off_c, 15, 55, 110
1, 133632, Tempo, 504200
1, 133632, Note_on_c, 7, 60, 118
1, 133632, Note_on_c, 7, 64, 116
1, 133632, Note_on_c, 4, 52, 100
1, 133632, Note_on_c, 4, 57, 84
1, 133632, Note_on_c, 4, 60, 89
1, 133632, Note_on_c, 2, 55, 78
1, 133632, Note_on_c, 2, 60, 89
1, 133632, Note_on_c, 2, 64, 91
1, 133632, Note_on_c, 1, 33, 111
1, 133632, Note_on_c, 9, 36, 108
1, 133632, Note_on_c, 9, 42, 85
1, 133632, Note_on_c, 9, 49, 110
1, 133632, Note_on_c, 9, 54, 40
1, 133632, Note_on_c, 9, 69, 38
1, 133636, Note_off_c, 9, 69, 38
1, 133636, Note_off_c, 9, 54, 40
1, 133636, Note_off_c, 9, 49, 110
1, 133636, Note_off_c, 9, 42, 85
1, 133636, Note_off_c, 9, 36, 108
1, 133728, Note_on_c, 9, 54, 45
1, 133732, Note_off_c, 9, 54, 45
1, 133824, Note_on_c, 9, 42, 87
1, 133824, Note_on_c, 9, 54, 42
1, 133824, Note_on_c, 9, 69, 46
1, 133828, Note_off_c, 9, 69, 46
1, 133828, Note_off_c, 9, 54, 42
1, 133828, Note_off_c, 9, 42, 87
1, 133908, Note_off_c, 1, 33, 111
1, 133920, Note_on_c, 9, 54, 33
1, 133920, Note_on_c, 9, 69, 34
1, 133924, Note_off_c, 9, 69, 34
1, 133924, Note_off_c, 9, 54, 33
1, 134016, Note_on_c, 9, 39, 86
1, 134016, Note_on_c, 1, 33, 111
1, 134016, Note_on_c, 9, 36, 124
1, 134016, Note_on_c, 9, 38, 108
1, 134016, Note_on_c, 9, 42, 76
1, 134016, Note_on_c, 9, 54, 41
1, 134016, Note_on_c, 9, 69, 47
1, 134020, Note_off_c, 9, 69, 47
1, 134020, Note_off_c, 9, 54, 41
1, 134020, Note_off_c, 9, 42, 76
1, 134020, Note_off_c, 9, 38, 108
1, 134020, Note_off_c, 9, 36, 124
1, 134020, Note_off_c, 9, 39, 86
1, 134100, Note_off_c, 1, 33, 111
1, 134112, Note_on_c, 9, 54, 46
1, 134116, Note_off_c, 9, 54, 46
1, 134208, Note_on_c, 15, 60, 122
1, 134208, Note_on_c, 1, 33, 104
1, 134208, Note_on_c, 9, 42, 92
1, 134208, Note_on_c, 9, 54, 36
1, 134208, Note_on_c, 9, 69, 47
1, 134212, Note_off_c, 9, 69, 47
1, 134212, Note_off_c, 9, 54, 36
1, 134212, Note_off_c, 9, 42, 92
1, 134288, Note_off_c, 15, 60, 122
1, 134292, Note_off_c, 1, 33, 104
1, 134304, Note_on_c, 15, 69, 111
1, 134304, Note_on_c, 9, 54, 38
1, 134304, Note_on_c, 9, 69, 31
1, 134308, Note_off_c, 9, 69, 31
1, 134308, Note_off_c, 9, 54, 38
1, 134400, Note_on_c, 1, 33, 111
1, 134400, Note_on_c, 9, 36, 116
1, 134400, Note_on_c, 9, 42, 82
1, 134400, Note_on_c, 9, 54, 42
1, 134400, Note_on_c, 9, 69, 32
1, 134404, Note_off_c, 9, 69, 32
1, 134404, Note_off_c, 9, 54, 42
1, 134404, Note_off_c, 9, 42, 82
1, 134404, Note_off_c, 9, 36, 116
1, 134480, Note_off_c, 15, 69, 111
1, 134496, Note_on_c, 9, 54, 36
1, 134500, Note_off_c, 9, 54, 36
1, 134592, Note_on_c, 15, 67, 120
1, 134592, Note_on_c, 9, 42, 80
1, 134592, Note_on_c, 9, 54, 30
1, 134592, Note_on_c, 9, 69, 36
1, 134596, Note_off_c, 9, 69, 36
1, 134596, Note_off_c, 9, 54, 30
1, 134596, Note_off_c, 9, 42, 80
1, 134664, Note_off_c, 2, 55, 78
1, 134676, Note_off_c, 1, 33, 111
1, 134688, Note_off_c, 2, 60, 89
1, 134688, Note_on_c, 9, 54, 35
1, 134688, Note_on_c, 9, 69, 43
1, 134692, Note_off_c, 9, 69, 43
1, 134692, Note_off_c, 9, 54, 35
1, 134708, Note_off_c, 4, 52, 100
1, 134716, Note_off_c, 4, 60, 89
1, 134716, Note_off_c, 4, 57, 84
1, 134720, Note_off_c, 2, 64, 91
1, 134784, Note_on_c, 4, 52, 97
1, 134784, Note_on_c, 4, 57, 92
1, 134784, Note_on_c, 4, 60, 85
1, 134784, Note_on_c, 2, 55, 88
1, 134784, Note_on_c, 9, 39, 93
1, 134784, Note_on_c, 1, 33, 112
1, 134784, Note_on_c, 9, 36, 116
1, 134784, Note_on_c, 9, 38, 108
1, 134784, Note_on_c, 9, 42, 77
1, 134784, Note_on_c, 9, 54, 45
1, 134784, Note_on_c, 9, 69, 30
1, 134788, Note_off_c, 9, 69, 30
1, 134788, Note_off_c, 9, 54, 45
1, 134788, Note_off_c, 9, 42, 77
1, 134788, Note_off_c, 9, 38, 108
1, 134788, Note_off_c, 9, 36, 116
1, 134788, Note_off_c, 9, 39, 93
1, 134880, Note_on_c, 9, 54, 32
1, 134884, Note_off_c, 9, 54, 32
1, 134960, Note_off_c, 15, 67, 120
1, 134964, Note_off_c, 1, 33, 112
1, 134964, Note_off_c, 2, 55, 88
1, 134976, Note_on_c, 15, 67, 113
1, 134976, Note_on_c, 2, 64, 83
1, 134976, Note_on_c, 1, 35, 111
1, 134976, Note_on_c, 9, 42, 86
1, 134976, Note_on_c, 9, 54, 35
1, 134976, Note_on_c, 9, 69, 38
1, 134980, Note_off_c, 9, 69, 38
1, 134980, Note_off_c, 9, 54, 35
1, 134980, Note_off_c, 9, 42, 86
1, 135056, Note_off_c, 15, 67, 113
1, 135072, Note_on_c, 15, 64, 125
1, 135072, Note_on_c, 9, 54, 49
1, 135072, Note_on_c, 9, 69, 31
1, 135076, Note_off_c, 9, 69, 31
1, 135076, Note_off_c, 9, 54, 49
1, 135088, Note_off_c, 4, 52, 97
1, 135112, Note_off_c, 4, 57, 92
1, 135120, Note_off_c, 4, 60, 85
1, 135152, Note_off_c, 15, 64, 125
1, 135156, Note_off_c, 1, 35, 111
1, 135168, Note_on_c, 15, 67, 117
1, 135168, Note_on_c, 4, 52, 99
1, 135168, Note_on_c, 4, 55, 88
1, 135168, Note_on_c, 4, 60, 88
1, 135168, Note_on_c, 1, 36, 113
1, 135168, Note_on_c, 9, 36, 113
1, 135168, Note_on_c, 9, 42, 86
1, 135168, Note_on_c, 9, 54, 48
1, 135168, Note_on_c, 9, 69, 30
1, 135172, Note_off_c, 9, 69, 30
1, 135172, Note_off_c, 9, 54, 48
1, 135172, Note_off_c, 9, 42, 86
1, 135172, Note_off_c, 9, 36, 113
1, 135264, Note_on_c, 9, 54, 39
1, 135268, Note_off_c, 9, 54, 39
1, 135344, Note_off_c, 15, 67, 117
1, 135360, Note_on_c, 15, 69, 126
1, 135360, Note_on_c, 9, 42, 90
1, 135360, Note_on_c, 9, 54, 35
1, 135360, Note_on_c, 9, 69, 39
1, 135364, Note_off_c, 9, 69, 39
1, 135364, Note_off_c, 9, 54, 35
1, 135364, Note_off_c, 9, 42, 90
1, 135456, Note_on_c, 9, 54, 49
1, 135456, Note_on_c, 9, 69, 41
1, 135460, Note_off_c, 9, 69, 41
1, 135460, Note_off_c, 9, 54, 49
1, 135552, Note_on_c, 9, 39, 92
1, 135552, Note_on_c, 9, 36, 123
1, 135552, Note_on_c, 9, 38, 112
1, 135552, Note_on_c, 9, 42, 81
1, 135552, Note_on_c, 9, 54, 37
1, 135552, Note_on_c, 9, 69, 43
1, 135556, Note_off_c, 9, 69, 43
1, 135556, Note_off_c, 9, 54, 37
1, 135556, Note_off_c, 9, 42, 81
1, 135556, Note_off_c, 9, 38, 112
1, 135556, Note_off_c, 9, 36, 123
1, 135556, Note_off_c, 9, 39, 92
1, 135636, Note_off_c, 1, 36, 113
1, 135648, Note_on_c, 9, 54, 43
1, 135652, Note_off_c, 9, 54, 43
1, 135744, Note_on_c, 1, 36, 103
1, 135744, Note_on_c, 9, 42, 82
1, 135744, Note_on_c, 9, 54, 48
1, 135744, Note_on_c, 9, 69, 44
1, 135748, Note_off_c, 9, 69, 44
1, 135748, Note_off_c, 9, 54, 48
1, 135748, Note_off_c, 9, 42, 82
1, 135828, Note_off_c, 1, 36, 103
1, 135840, Note_on_c, 1, 36, 115
1, 135840, Note_on_c, 9, 54, 40
1, 135840, Note_on_c, 9, 69, 38
1, 135844, Note_off_c, 9, 69, 38
1, 135844, Note_off_c, 9, 54, 40
1, 135920, Note_off_c, 15, 69, 126
1, 135924, Note_off_c, 1, 36, 115
1, 135936, Note_on_c, 1, 36, 106
1, 135936, Note_on_c, 9, 36, 110
1, 135936, Note_on_c, 9, 42, 94
1, 135936, Note_on_c, 9, 54, 31
1, 135936, Note_on_c, 9, 69, 38
1, 135940, Note_off_c, 9, 69, 38
1, 135940, Note_off_c, 9, 54, 31
1, 135940, Note_off_c, 9, 42, 94
1, 135940, Note_off_c, 9, 36, 110
1, 136032, Note_on_c, 9, 54, 47
1, 136036, Note_off_c, 9, 54, 47
1, 136128, Note_on_c, 9, 42, 79
1, 136128, Note_on_c, 9, 54, 36
1, 136128, Note_on_c, 9, 69, 45
1, 136132, Note_off_c, 9, 69, 45
1, 136132, Note_off_c, 9, 54, 36
1, 136132, Note_off_c, 9, 42, 79
1, 136224, Note_on_c, 9, 54, 44
1, 136224, Note_on_c, 9, 69, 33
1, 136228, Note_off_c, 9, 69, 33
1, 136228, Note_off_c, 9, 54, 44
1, 136232, Note_off_c, 2, 64, 83
1, 136236, Note_off_c, 4, 52, 99
1, 136248, Note_off_c, 4, 55, 88
1, 136252, Note_off_c, 4, 60, 88
1, 136320, Note_on_c, 4, 52, 87
1, 136320, Note_on_c, 4, 55, 103
1, 136320, Note_on_c, 4, 60, 90
1, 136320, Note_on_c, 2, 60, 97
1, 136320, Note_on_c, 9, 39, 88
1, 136320, Note_on_c, 9, 36, 112
1, 136320, Note_on_c, 9, 38, 106
1, 136320, Note_on_c, 9, 42, 92
1, 136320, Note_on_c, 9, 54, 47
1, 136320, Note_on_c, 9, 69, 42
1, 136324, Note_off_c, 9, 69, 42
1, 136324, Note_off_c, 9, 54, 47
1, 136324, Note_off_c, 9, 42, 92
1, 136324, Note_off_c, 9, 38, 106
1, 136324, Note_off_c, 9, 36, 112
1, 136324, Note_off_c, 9, 39, 88
1, 136408, Note_off_c, 1, 36, 106
1, 136416, Note_on_c, 9, 54, 33
1, 136420, Note_off_c, 9, 54, 33
1, 136472, Note_off_c, 2, 60, 97
1, 136512, Note_on_c, 2, 67, 83
1, 136512, Note_on_c, 1, 40, 119
1, 136512, Note_on_c, 9, 42, 89
1, 136512, Note_on_c, 9, 54, 42
1, 136512, Note_on_c, 9, 69, 39
1, 136516, Note_off_c, 9, 69, 39
1, 136516, Note_off_c, 9, 54, 42
1, 136516, Note_off_c, 9, 42, 89
1, 136596, Note_off_c, 1, 40, 119
1, 136608, Note_off_c, 4, 55, 103
1, 136608, Note_on_c, 9, 54, 35
1, 136608, Note_on_c, 9, 69, 49
1, 136612, Note_off_c, 9, 69, 49
1, 136612, Note_off_c, 9, 54, 35
1, 136628, Note_off_c, 4, 60, 90
1, 136636, Note_off_c, 4, 52, 87
1, 136696, Note_off_c, 7, 64, 116
1, 136696, Note_off_c, 7, 60, 118
1, 136704, Tempo, 500000
1, 136704, Note_on_c, 7, 65, 122
1, 136704, Note_on_c, 4, 53, 102
1, 136704, Note_on_c, 4, 57, 88
1, 136704, Note_on_c, 4, 60, 84
1, 136704, Note_on_c, 1, 41, 118
1, 136704, Note_on_c, 9, 36, 115
1, 136704, Note_on_c, 9, 42, 82
1, 136704, Note_on_c, 9, 54, 33
1, 136704, Note_on_c, 9, 69, 35
1, 136708, Note_off_c, 9, 69, 35
1, 136708, Note_off_c, 9, 54, 33
1, 136708, Note_off_c, 9, 42, 82
1, 136708, Note_off_c, 9, 36, 115
1, 136800, Note_on_c, 9, 54, 31
1, 136804, Note_off_c, 9, 54, 31
1, 136896, Note_on_c, 9, 42, 89
1, 136896, Note_on_c, 9, 54, 46
1, 136896, Note_on_c, 9, 69, 40
1, 136900, Note_off_c, 9, 69, 40
1, 136900, Note_off_c, 9, 54, 46
1, 136900, Note_off_c, 9, 42, 89
1, 136992, Note_on_c, 9, 54, 37
1, 136992, Note_on_c, 9, 69, 33
1, 136996, Note_off_c, 9, 69, 33
1, 136996, Note_off_c, 9, 54, 37
1, 137088, Note_on_c, 9, 39, 85
1, 137088, Note_on_c, 9, 36, 122
1, 137088, Note_on_c, 9, 38, 105
1, 137088, Note_on_c, 9, 42, 77
1, 137088, Note_on_c, 9, 54, 31
1, 137088, Note_on_c, 9, 69, 37
1, 137092, Note_off_c, 9, 69, 37
1, 137092, Note_off_c, 9, 54, 31
1, 137092, Note_off_c, 9, 42, 77
1, 137092, Note_off_c, 9, 38, 105
1, 137092, Note_off_c, 9, 36, 122
1, 137092, Note_off_c, 9, 39, 85
1, 137172, Note_off_c, 1, 41, 118
1, 137184, Note_on_c, 9, 54, 30
1, 137188, Note_off_c, 9, 54, 30
1, 137280, Note_on_c, 15, 67, 118
1, 137280, Note_on_c, 1, 41, 114
1, 137280, Note_on_c, 9, 42, 76
1, 137280, Note_on_c, 9, 54, 38
1, 137280, Note_on_c, 9, 69, 38
1, 137284, Note_off_c, 9, 69, 38
1, 137284, Note_off_c, 9, 54, 38
1, 137284, Note_off_c, 9, 42, 76
1, 137364, Note_off_c, 1, 41, 114
1, 137376, Note_on_c, 9, 54, 33
1, 137376, Note_on_c, 9, 69, 36
1, 137380, Note_off_c, 9, 69, 36
1, 137380, Note_off_c, 9, 54, 33
1, 137472, Note_on_c, 1, 41, 107
1, 137472, Note_on_c, 9, 36, 117
1, 137472, Note_on_c, 9, 42, 94
1, 137472, Note_on_c, 9, 54, 31
1, 137472, Note_on_c, 9, 69, 33
1, 137476, Note_off_c, 9, 69, 33
1, 137476, Note_off_c, 9, 54, 31
1, 137476, Note_off_c, 9, 42, 94
1, 137476, Note_off_c, 9, 36, 117
1, 137568, Note_on_c, 9, 54, 41
1, 137572, Note_off_c, 9, 54, 41
1, 137648, Note_off_c, 15, 67, 118
1, 137664, Note_on_c, 15, 64, 111
1, 137664, Note_on_c, 9, 42, 86
1, 137664, Note_on_c, 9, 54, 34
1, 137664, Note_on_c, 9, 69, 36
1, 137668, Note_off_c, 9, 69, 36
1, 137668, Note_off_c, 9, 54, 34
1, 137668, Note_off_c, 9, 42, 86
1, 137744, Note_off_c, 15, 64, 111
1, 137748, Note_off_c, 1, 41, 107
1, 137760, Note_on_c, 15, 64, 127
1, 137760, Note_on_c, 9, 54, 33
1, 137760, Note_on_c, 9, 69, 45
1, 137764, Note_off_c, 9, 69, 45
1, 137764, Note_off_c, 9, 54, 33
1, 137772, Note_off_c, 2, 67, 83
1, 137848, Note_off_c, 7, 65, 122
1, 137856, Note_on_c, 7, 67, 108
1, 137856, Note_on_c, 2, 67, 88
1, 137856, Note_on_c, 9, 39, 102
1, 137856, Note_on_c, 1, 41, 107
1, 137856, Note_on_c, 9, 36, 119
1, 137856, Note_on_c, 9, 38, 121
1, 137856, Note_on_c, 9, 42, 78
1, 137856, Note_on_c, 9, 54, 35
1, 137856, Note_on_c, 9, 69, 32
1, 137860, Note_off_c, 9, 69, 32
1, 137860, Note_off_c, 9, 54, 35
1, 137860, Note_off_c, 9, 42, 78
1, 137860, Note_off_c, 9, 38, 121
1, 137860, Note_off_c, 9, 36, 119
1, 137860, Note_off_c, 9, 39, 102
1, 137944, Pitch_bend_c, 1, 8192
1, 137952, Pitch_bend_c, 1, 8092
1, 137952, Note_on_c, 9, 54, 38
1, 137956, Note_off_c, 9, 54, 38
1, 137960, Pitch_bend_c, 1, 7991
1, 137968, Pitch_bend_c, 1, 7891
1, 137976, Pitch_bend_c, 1, 7791
1, 137984, Pitch_bend_c, 1, 7690
1, 137992, Pitch_bend_c, 1, 7590
1, 138000, Pitch_bend_c, 1, 7489
1, 138008, Pitch_bend_c, 1, 7389
1, 138016, Pitch_bend_c, 1, 7289
1, 138024, Pitch_bend_c, 1, 7188
1, 138028, Note_off_c, 2, 67, 88
1, 138032, Note_off_c, 15, 64, 127
1, 138032, Pitch_bend_c, 1, 7088
1, 138040, Pitch_bend_c, 1, 6988
1, 138048, Note_on_c, 15, 62, 127
1, 138048, Note_on_c, 2, 60, 81
1, 138048, Pitch_bend_c, 1, 6887
1, 138048, Note_on_c, 9, 42, 94
1, 138048, Note_on_c, 9, 54, 44
1, 138048, Note_on_c, 9, 69, 38
1, 138052, Note_off_c, 9, 69, 38
1, 138052, Note_off_c, 9, 54, 44
1, 138052, Note_off_c, 9, 42, 94
1, 138056, Pitch_bend_c, 1, 6787
1, 138064, Pitch_bend_c, 1, 6687
1, 138072, Pitch_bend_c, 1, 6586
1, 138080, Pitch_bend_c, 1, 6486
1, 138088, Pitch_bend_c, 1, 6386
1, 138096, Pitch_bend_c, 1, 6285
1, 138104, Pitch_bend_c, 1, 6185
1, 138112, Pitch_bend_c, 1, 6084
1, 138120, Pitch_bend_c, 1, 5984
1, 138128, Pitch_bend_c, 1, 5884
1, 138136, Pitch_bend_c, 1, 5783
1, 138144, Pitch_bend_c, 1, 5683
1, 138144, Note_on_c, 9, 54, 41
1, 138144, Note_on_c, 9, 69, 48
1, 138148, Note_off_c, 9, 69, 48
1, 138148, Note_off_c, 9, 54, 41
1, 138148, Note_off_c, 4, 53, 102
1, 138152, Pitch_bend_c, 1, 5583
1, 138156, Note_off_c, 4, 57, 88
1, 138160, Pitch_bend_c, 1, 5482
1, 138168, Note_off_c, 4, 60, 84
1, 138168, Pitch_bend_c, 1, 5382
1, 138176, Pitch_bend_c, 1, 5281
1, 138180, Note_off_c, 2, 60, 81
1, 138184, Pitch_bend_c, 1, 5181
1, 138192, Pitch_bend_c, 1, 5081
1, 138200, Pitch_bend_c, 1, 4980
1, 138224, Note_off_c, 15, 62, 127
1, 138228, Note_off_c, 1, 41, 107
1, 138232, Note_off_c, 7, 67, 108
1, 138232, Pitch_bend_c, 1, 8192
1, 138240, Note_on_c, 15, 60, 118
1, 138240, Note_on_c, 7, 60, 119
1, 138240, Note_on_c, 7, 64, 118
1, 138240, Note_on_c, 4, 52, 95
1, 138240, Note_on_c, 4, 55, 94
1, 138240, Note_on_c, 4, 60, 88
1, 138240, Note_on_c, 2, 60, 87
1, 138240, Note_on_c, 2, 64, 84
1, 138240, Note_on_c, 2, 67, 85
1, 138240, Note_on_c, 1, 36, 114
1, 138240, Note_on_c, 9, 36, 113
1, 138240, Note_on_c, 9, 42, 78
1, 138240, Note_on_c, 9, 54, 42
1, 138240, Note_on_c, 9, 69, 35
1, 138244, Note_off_c, 9, 69, 35
1, 138244, Note_off_c, 9, 54, 42
1, 138244, Note_off_c, 9, 42, 78
1, 138244, Note_off_c, 9, 36, 113
1, 138336, Note_on_c, 9, 54, 34
1, 138340, Note_off_c, 9, 54, 34
1, 138432, Note_on_c, 9, 42, 88
1, 138432, Note_on_c, 9, 54, 38
1, 138432, Note_on_c, 9, 69, 44
1, 138436, Note_off_c, 9, 69, 44
1, 138436, Note_off_c, 9, 54, 38
1, 138436, Note_off_c, 9, 42, 88
1, 138512, Note_off_c, 15, 60, 118
1, 138528, Note_on_c, 15, 62, 123
1, 138528, Note_on_c, 9, 54, 31
1, 138528, Note_on_c, 9, 69, 45
1, 138532, Note_off_c, 9, 69, 45
1, 138532, Note_off_c, 9, 54, 31
1, 138608, Note_off_c, 15, 62, 123
1, 138624, Note_on_c, 15, 64, 125
1, 138624, Note_on_c, 9, 39, 99
1, 138624, Note_on_c, 9, 36, 117
1, 138624, Note_on_c, 9, 38, 112
1, 138624, Note_on_c, 9, 42, 88
1, 138624, Note_on_c, 9, 54, 48
1, 138624, Note_on_c, 9, 69, 38
1, 138628, Note_off_c, 9, 69, 38
1, 138628, Note_off_c, 9, 54, 48
1, 138628, Note_off_c, 9, 42, 88
1, 138628, Note_off_c, 9, 38, 112
1, 138628, Note_off_c, 9, 36, 117
1, 138628, Note_off_c, 9, 39, 99
1, 138704, Note_off_c, 15, 64, 125
1, 138708, Note_off_c, 1, 36, 114
1, 138720, Note_on_c, 15, 62, 124
1, 138720, Note_on_c, 9, 54, 48
1, 138724, Note_off_c, 9, 54, 48
1, 138800, Note_off_c, 15, 62, 124
1, 138816, Note_on_c, 15, 64, 124
1, 138816, Note_on_c, 1, 36, 119
1, 138816, Note_on_c, 9, 42, 83
1, 138816, Note_on_c, 9, 54, 46
1, 138816, Note_on_c, 9, 69, 46
1, 138820, Note_off_c, 9, 69, 46
1, 138820, Note_off_c, 9, 54, 46
1, 138820, Note_off_c, 9, 42, 83
1, 138900, Note_off_c, 1, 36, 119
1, 138912, Note_on_c, 9, 54, 43
1, 138912, Note_on_c, 9, 69, 49
1, 138916, Note_off_c, 9, 69, 49
1, 138916, Note_off_c, 9, 54, 43
1, 138980, Note_off_c, 2, 64, 84
1, 138992, Note_off_c, 2, 67, 85
1, 139000, Note_off_c, 2, 60, 87
1, 139000, Note_off_c, 7, 64, 118
1, 139000, Note_off_c, 7, 60, 119
1, 139008, Note_on_c, 7, 64, 119
1, 139008, Note_on_c, 2, 76, 83
1, 139008, Note_on_c, 1, 36, 101
1, 139008, Note_on_c, 9, 36, 105
1, 139008, Note_on_c, 9, 46, 102
1, 139008, Note_on_c, 9, 54, 39
1, 139008, Note_on_c, 9, 69, 30
1, 139012, Note_off_c, 9, 69, 30
1, 139012, Note_off_c, 9, 54, 39
1, 139012, Note_off_c, 9, 46, 102
1, 139012, Note_off_c, 9, 36, 105
1, 139104, Note_on_c, 9, 54, 32
1, 139108, Note_off_c, 9, 54, 32
1, 139188, Note_off_c, 1, 36, 101
1, 139200, Note_off_c, 2, 76, 83
1, 139200, Note_on_c, 2, 72, 83
1, 139200, Note_on_c, 1, 43, 102
1, 139200, Note_on_c, 9, 42, 81
1, 139200, Note_on_c, 9, 54, 30
1, 139200, Note_on_c, 9, 69, 35
1, 139204, Note_off_c, 9, 69, 35
1, 139204, Note_off_c, 9, 54, 30
1, 139204, Note_off_c, 9, 42, 81
1, 139296, Note_on_c, 9, 54, 42
1, 139296, Note_on_c, 9, 69, 38
1, 139300, Note_off_c, 9, 69, 38
1, 139300, Note_off_c, 9, 54, 42
1, 139368, Note_off_c, 2, 72, 83
1, 139376, Note_off_c, 15, 64, 124
1, 139380, Note_off_c, 1, 43, 102
1, 139384, Note_off_c, 7, 64, 119
1, 139392, Note_on_c, 7, 62, 113
1, 139392, Note_on_c, 2, 74, 90
1, 139392, Note_on_c, 9, 39, 89
1, 139392, Note_on_c, 1, 35, 116
1, 139392, Note_on_c, 9, 36, 111
1, 139392, Note_on_c, 9, 38, 117
1, 139392, Note_on_c, 9, 42, 90
1, 139392, Note_on_c, 9, 54, 42
1, 139392, Note_on_c, 9, 69, 33
1, 139396, Note_off_c, 9, 69, 33
1, 139396, Note_off_c, 9, 54, 42
1, 139396, Note_off_c, 9, 42, 90
1, 139396, Note_off_c, 9, 38, 117
1, 139396, Note_off_c, 9, 36, 111
1, 139396, Note_off_c, 9, 39, 89
1, 139488, Note_on_c, 9, 54, 37
1, 139492, Note_off_c, 9, 54, 37
1, 139568, Note_off_c, 2, 74, 90
1, 139584, Note_on_c, 2, 71, 83
1, 139584, Note_on_c, 9, 42, 92
1, 139584, Note_on_c, 9, 54, 49
1, 139584, Note_on_c, 9, 69, 48
1, 139588, Note_off_c, 9, 69, 48
1, 139588, Note_off_c, 9, 54, 49
1, 139588, Note_off_c, 9, 42, 92
1, 139628, Note_off_c, 4, 52, 95
1, 139644, Note_off_c, 4, 55, 94
1, 139648, Pitch_bend_c, 1, 8192
1, 139652, Note_off_c, 4, 60, 88
1, 139656, Pitch_bend_c, 1, 8026
1, 139664, Pitch_bend_c, 1, 7861
1, 139672, Note_off_c, 7, 62, 113
1, 139672, Pitch_bend_c, 1, 7695
1, 139680, Pitch_bend_c, 1, 7529
1, 139680, Note_on_c, 9, 54, 35
1, 139680, Note_on_c, 9, 69, 48
1, 139684, Note_off_c, 9, 69, 48
1, 139684, Note_off_c, 9, 54, 35
1, 139688, Pitch_bend_c, 1, 7363
1, 139696, Pitch_bend_c, 1, 7197
1, 139704, Pitch_bend_c, 1, 7032
1, 139712, Pitch_bend_c, 1, 6866
1, 139720, Pitch_bend_c, 1, 6700
1, 139724, Note_off_c, 2, 71, 83
1, 139728, Pitch_bend_c, 1, 6534
1, 139736, Pitch_bend_c, 1, 6368
1, 139744, Pitch_bend_c, 1, 6203
1, 139764, Note_off_c, 1, 35, 116
1, 139768, Pitch_bend_c, 1, 8192
1, 139776, Note_on_c, 7, 60, 122
1, 139776, Note_on_c, 4, 52, 89
1, 139776, Note_on_c, 4, 57, 95
1, 139776, Note_on_c, 4, 60, 99
1, 139776, Note_on_c, 2, 72, 84
1, 139776, Note_on_c, 1, 33, 116
1, 139776, Note_on_c, 9, 36, 108
1, 139776, Note_on_c, 9, 42, 76
1, 139776, Note_on_c, 9, 49, 114
1, 139776, Note_on_c, 9, 54, 35
1, 139776, Note_on_c, 9, 69, 32
1, 139780, Note_off_c, 9, 69, 32
1, 139780, Note_off_c, 9, 54, 35
1, 139780, Note_off_c, 9, 49, 114
1, 139780, Note_off_c, 9, 42, 76
1, 139780, Note_off_c, 9, 36, 108
1, 139872, Note_on_c, 9, 54, 35
1, 139876, Note_off_c, 9, 54, 35
1, 139968, Note_on_c, 15, 69, 121
1, 139968, Note_on_c, 9, 42, 93
1, 139968, Note_on_c, 9, 54, 46
1, 139968, Note_on_c, 9, 69, 39
1, 139972, Note_off_c, 9, 69, 39
1, 139972, Note_off_c, 9, 54, 46
1, 139972, Note_off_c, 9, 42, 93
1, 140064, Note_on_c, 9, 54, 32
1, 140064, Note_on_c, 9, 69, 40
1, 140068, Note_off_c, 9, 69, 40
1, 140068, Note_off_c, 9, 54, 32
1, 140160, Note_on_c, 9, 39, 96
1, 140160, Note_on_c, 9, 36, 109
1, 140160, Note_on_c, 9, 38, 119
1, 140160, Note_on_c, 9, 42, 81
1, 140160, Note_on_c, 9, 54, 35
1, 140160, Note_on_c, 9, 69, 34
1, 140164, Note_off_c, 9, 69, 34
1, 140164, Note_off_c, 9, 54, 35
1, 140164, Note_off_c, 9, 42, 81
1, 140164, Note_off_c, 9, 38, 119
1, 140164, Note_off_c, 9, 36, 109
1, 140164, Note_off_c, 9, 39, 96
1, 140244, Note_off_c, 1, 33, 116
1, 140256, Note_on_c, 9, 54, 35
1, 140260, Note_off_c, 9, 54, 35
1, 140336, Note_off_c, 15, 69, 121
1, 140352, Note_on_c, 15, 72, 124
1, 140352, Note_on_c, 1, 33, 112
1, 140352, Note_on_c, 9, 42, 80
1, 140352, Note_on_c, 9, 54, 30
1, 140352, Note_on_c, 9, 69, 40
1, 140356, Note_off_c, 9, 69, 40
1, 140356, Note_off_c, 9, 54, 30
1, 140356, Note_off_c, 9, 42, 80
1, 140436, Note_off_c, 1, 33, 112
1, 140448, Note_on_c, 9, 54, 42
1, 140448, Note_on_c, 9, 69, 43
1, 140452, Note_off_c, 9, 69, 43
1, 140452, Note_off_c, 9, 54, 42
1, 140528, Note_off_c, 15, 72, 124
1, 140544, Note_on_c, 15, 69, 124
1, 140544, Note_on_c, 1, 33, 112
1, 140544, Note_on_c, 9, 36, 122
1, 140544, Note_on_c, 9, 42, 85
1, 140544, Note_on_c, 9, 54, 32
1, 140544, Note_on_c, 9, 69, 34
1, 140548, Note_off_c, 9, 69, 34
1, 140548, Note_off_c, 9, 54, 32
1, 140548, Note_off_c, 9, 42, 85
1, 140548, Note_off_c, 9, 36, 122
1, 140640, Note_on_c, 9, 54, 41
1, 140644, Note_off_c, 9, 54, 41
1, 140736, Note_on_c, 9, 42, 83
1, 140736, Note_on_c, 9, 54, 36
1, 140736, Note_on_c, 9, 69, 46
1, 140740, Note_off_c, 9, 69, 46
1, 140740, Note_off_c, 9, 54, 36
1, 140740, Note_off_c, 9, 42, 83
1, 140832, Note_on_c, 9, 54, 35
1, 140832, Note_on_c, 9, 69, 37
1, 140836, Note_off_c, 9, 69, 37
1, 140836, Note_off_c, 9, 54, 35
1, 140836, Note_off_c, 4, 52, 89
1, 140844, Note_off_c, 4, 57, 95
1, 140852, Note_off_c, 4, 60, 99
1, 140912, Note_off_c, 15, 69, 124
1, 140916, Note_off_c, 1, 33, 112
1, 140928, Note_on_c, 15, 67, 120
1, 140928, Note_on_c, 4, 52, 85
1, 140928, Note_on_c, 4, 57, 87
1, 140928, Note_on_c, 4, 60, 91
1, 140928, Note_on_c, 9, 39, 95
1, 140928, Note_on_c, 1, 35, 112
1, 140928, Note_on_c, 9, 36, 118
1, 140928, Note_on_c, 9, 38, 115
1, 140928, Note_on_c, 9, 42, 87
1, 140928, Note_on_c, 9, 54, 45
1, 140928, Note_on_c, 9, 69, 31
1, 140932, Note_off_c, 9, 69, 31
1, 140932, Note_off_c, 9, 54, 45
1, 140932, Note_off_c, 9, 42, 87
1, 140932, Note_off_c, 9, 38, 115
1, 140932, Note_off_c, 9, 36, 118
1, 140932, Note_off_c, 9, 39, 95
1, 141024, Note_on_c, 9, 54, 45
1, 141028, Note_off_c, 9, 54, 45
1, 141096, Note_off_c, 2, 72, 84
1, 141104, Note_off_c, 15, 67, 120
1, 141112, Note_off_c, 7, 60, 122
1, 141120, Note_on_c, 15, 64, 117
1, 141120, Note_on_c, 7, 62, 107
1, 141120, Note_on_c, 2, 62, 93
1, 141120, Note_on_c, 9, 42, 81
1, 141120, Note_on_c, 9, 54, 38
1, 141120, Note_on_c, 9, 69, 34
1, 141124, Note_off_c, 9, 69, 34
1, 141124, Note_off_c, 9, 54, 38
1, 141124, Note_off_c, 9, 42, 81
1, 141196, Note_off_c, 4, 52, 85
1, 141216, Note_on_c, 4, 55, 84
1, 141216, Note_on_c, 9, 54, 43
1, 141216, Note_on_c, 9, 69, 34
1, 141220, Note_off_c, 9, 69, 34
1, 141220, Note_off_c, 9, 54, 43
1, 141228, Note_off_c, 4, 57, 87
1, 141232, Note_off_c, 4, 55, 84
1, 141244, Note_off_c, 4, 60, 91
1, 141296, Note_off_c, 15, 64, 117
1, 141300, Note_off_c, 1, 35, 112
1, 141304, Note_off_c, 2, 62, 93
1, 141304, Note_off_c, 7, 62, 107
1, 141312, Note_on_c, 15, 67, 125
1, 141312, Note_on_c, 7, 60, 118
1, 141312, Note_on_c, 7, 64, 105
1, 141312, Note_on_c, 4, 52, 101
1, 141312, Note_on_c, 4, 55, 92
1, 141312, Note_on_c, 4, 60, 95
1, 141312, Note_on_c, 2, 64, 85
1, 141312, Note_on_c, 1, 36, 118
1, 141312, Note_on_c, 9, 36, 116
1, 141312, Note_on_c, 9, 42, 88
1, 141312, Note_on_c, 9, 54, 36
1, 141312, Note_on_c, 9, 69, 34
1, 141316, Note_off_c, 9, 69, 34
1, 141316, Note_off_c, 9, 54, 36
1, 141316, Note_off_c, 9, 42, 88
1, 141316, Note_off_c, 9, 36, 116
1, 141392, Note_off_c, 15, 67, 125
1, 141408, Note_on_c, 9, 54, 47
1, 141412, Note_off_c, 9, 54, 47
1, 141504, Note_on_c, 15, 67, 122
1, 141504, Note_on_c, 9, 42, 77
1, 141504, Note_on_c, 9, 54, 48
1, 141504, Note_on_c, 9, 69, 33
1, 141508, Note_off_c, 9, 69, 33
1, 141508, Note_off_c, 9, 54, 48
1, 141508, Note_off_c, 9, 42, 77
1, 141600, Note_on_c, 9, 54, 39
1, 141600, Note_on_c, 9, 69, 45
1, 141604, Note_off_c, 9, 69, 45
1, 141604, Note_off_c, 9, 54, 39
1, 141696, Note_on_c, 9, 39, 97
1, 141696, Note_on_c, 9, 36, 105
1, 141696, Note_on_c, 9, 38, 106
1, 141696, Note_on_c, 9, 42, 88
1, 141696, Note_on_c, 9, 54, 31
1, 141696, Note_on_c, 9, 69, 31
1, 141700, Note_off_c, 9, 69, 31
1, 141700, Note_off_c, 9, 54, 31
1, 141700, Note_off_c, 9, 42, 88
1, 141700, Note_off_c, 9, 38, 106
1, 141700, Note_off_c, 9, 36, 105
1, 141700, Note_off_c, 9, 39, 97
1, 141780, Note_off_c, 1, 36, 118
1, 141792, Note_on_c, 9, 54, 30
1, 141796, Note_off_c, 9, 54, 30
1, 141872, Note_off_c, 15, 67, 122
1, 141888, Note_on_c, 15, 69, 127
1, 141888, Note_on_c, 1, 36, 109
1, 141888, Note_on_c, 9, 42, 94
1, 141888, Note_on_c, 9, 54, 45
1, 141888, Note_on_c, 9, 69, 33
1, 141892, Note_off_c, 9, 69, 33
1, 141892, Note_off_c, 9, 54, 45
1, 141892, Note_off_c, 9, 42, 94
1, 141972, Note_off_c, 1, 36, 109
1, 141984, Note_on_c, 9, 54, 31
1, 141984, Note_on_c, 9, 69, 37
1, 141988, Note_off_c, 9, 69, 37
1, 141988, Note_off_c, 9, 54, 31
1, 142080, Note_on_c, 1, 36, 110
1, 142080, Note_on_c, 9, 36, 110
1, 142080, Note_on_c, 9, 42, 89
1, 142080, Note_on_c, 9, 54, 31
1, 142080, Note_on_c, 9, 69, 48
1, 142084, Note_off_c, 9, 69, 48
1, 142084, Note_off_c, 9, 54, 31
1, 142084, Note_off_c, 9, 42, 89
1, 142084, Note_off_c, 9, 36, 110
1, 142176, Note_on_c, 9, 54, 46
1, 142180, Note_off_c, 9, 54, 46
1, 142256, Note_off_c, 15, 69, 127
1, 142272, Note_on_c, 15, 69, 118
1, 142272, Note_on_c, 9, 42, 94
1, 142272, Note_on_c, 9, 54, 41
1, 142272, Note_on_c, 9, 69, 42
1, 142276, Note_off_c, 9, 69, 42
1, 142276, Note_off_c, 9, 54, 41
1, 142276, Note_off_c, 9, 42, 94
1, 142344, Note_off_c, 2, 64, 85
1, 142356, Note_off_c, 1, 36, 110
1, 142368, Note_on_c, 9, 54, 30
1, 142368, Note_on_c, 9, 69, 40
1, 142372, Note_off_c, 9, 69, 40
1, 142372, Note_off_c, 9, 54, 30
1, 142448, Note_off_c, 15, 69, 118
1, 142464, Note_on_c, 15, 69, 127
1, 142464, Note_on_c, 2, 64, 88
1, 142464, Note_on_c, 9, 39, 103
1, 142464, Note_on_c, 1, 36, 102
1, 142464, Note_on_c, 9, 36, 110
1, 142464, Note_on_c, 9, 38, 105
1, 142464, Note_on_c, 9, 42, 88
1, 142464, Note_on_c, 9, 54, 40
1, 142464, Note_on_c, 9, 69, 40
1, 142468, Note_off_c, 9, 69, 40
1, 142468, Note_off_c, 9, 54, 40
1, 142468, Note_off_c, 9, 42, 88
1, 142468, Note_off_c, 9, 38, 105
1, 142468, Note_off_c, 9, 36, 110
1, 142468, Note_off_c, 9, 39, 103
1, 142560, Note_on_c, 9, 54, 40
1, 142564, Note_off_c, 9, 54, 40
1, 142640, Note_off_c, 15, 69, 127
1, 142644, Note_off_c, 1, 36, 102
1, 142656, Note_on_c, 15, 67, 114
1, 142656, Note_on_c, 1, 28, 113
1, 142656, Note_on_c, 9, 42, 81
1, 142656, Note_on_c, 9, 54, 45
1, 142656, Note_on_c, 9, 69, 40
1, 142660, Note_off_c, 9, 69, 40
1, 142660, Note_off_c, 9, 54, 45
1, 142660, Note_off_c, 9, 42, 81
1, 142744, Note_off_c, 7, 60, 118
1, 142752, Note_on_c, 9, 54, 32
1, 142752, Note_on_c, 9, 69, 37
1, 142756, Note_off_c, 9, 69, 37
1, 142756, Note_off_c, 9, 54, 32
1, 142784, Note_off_c, 4, 52, 101
1, 142796, Note_off_c, 4, 60, 95
1, 142796, Note_off_c, 4, 55, 92
1, 142824, Note_off_c, 2, 64, 88
1, 142832, Note_off_c, 15, 67, 114
1, 142836, Note_off_c, 1, 28, 113
1, 142840, Note_off_c, 7, 64, 105
1, 142848, Note_on_c, 15, 67, 115
1, 142848, Note_on_c, 7, 60, 116
1, 142848, Note_on_c, 7, 65, 122
1, 142848, Note_on_c, 4, 55, 85
1, 142848, Note_on_c, 4, 60, 91
1, 142848, Note_on_c, 2, 65, 89
1, 142848, Note_on_c, 1, 29, 102
1, 142848, Note_on_c, 9, 36, 121
1, 142848, Note_on_c, 9, 42, 84
1, 142848, Note_on_c, 9, 54, 48
1, 142848, Note_on_c, 9, 69, 38
1, 142852, Note_off_c, 9, 69, 38
1, 142852, Note_off_c, 9, 54, 48
1, 142852, Note_off_c, 9, 42, 84
1, 142852, Note_off_c, 9, 36, 121
1, 142944, Note_on_c, 9, 54, 49
1, 142948, Note_off_c, 9, 54, 49
1, 143024, Note_off_c, 15, 67, 115
1, 143040, Note_on_c, 15, 67, 111
1, 143040, Note_on_c, 9, 42, 90
1, 143040, Note_on_c, 9, 54, 48
1, 143040, Note_on_c, 9, 69, 43
1, 143044, Note_off_c, 9, 69, 43
1, 143044, Note_off_c, 9, 54, 48
1, 143044, Note_off_c, 9, 42, 90
1, 143136, Note_on_c, 9, 54, 33
1, 143136, Note_on_c, 9, 69, 38
1, 143140, Note_off_c, 9, 69, 38
1, 143140, Note_off_c, 9, 54, 33
1, 143232, Note_on_c, 9, 39, 96
1, 143232, Note_on_c, 9, 36, 119
1, 143232, Note_on_c, 9, 38, 118
1, 143232, Note_on_c, 9, 42, 89
1, 143232, Note_on_c, 9, 54, 33
1, 143232, Note_on_c, 9, 69, 45
1, 143236, Note_off_c, 9, 69, 45
1, 143236, Note_off_c, 9, 54, 33
1, 143236, Note_off_c, 9, 42, 89
1, 143236, Note_off_c, 9, 38, 118
1, 143236, Note_off_c, 9, 36, 119
1, 143236, Note_off_c, 9, 39, 96
1, 143316, Note_off_c, 1, 29, 102
1, 143328, Note_on_c, 9, 54, 48
1, 143332, Note_off_c, 9, 54, 48
1, 143408, Note_off_c, 15, 67, 111
1, 143424, Note_on_c, 15, 69, 122
1, 143424, Note_on_c, 1, 29, 104
1, 143424, Note_on_c, 9, 42, 86
1, 143424, Note_on_c, 9, 54, 34
1, 143424, Note_on_c, 9, 69, 47
1, 143428, Note_off_c, 9, 69, 47
1, 143428, Note_off_c, 9, 54, 34
1, 143428, Note_off_c, 9, 42, 86
1, 143508, Note_off_c, 1, 29, 104
1, 143520, Note_off_c, 4, 60, 91
1, 143520, Note_on_c, 9, 54, 35
1, 143520, Note_on_c, 9, 69, 47
1, 143524, Note_off_c, 9, 69, 47
1, 143524, Note_off_c, 9, 54, 35
1, 143532, Note_off_c, 4, 55, 85
1, 143616, Note_on_c, 4, 55, 103
1, 143616, Note_on_c, 4, 60, 85
1, 143616, Note_on_c, 1, 29, 103
1, 143616, Note_on_c, 9, 36, 109
1, 143616, Note_on_c, 9, 42, 80
1, 143616, Note_on_c, 9, 54, 40
1, 143616, Note_on_c, 9, 69, 48
1, 143620, Note_off_c, 9, 69, 48
1, 143620, Note_off_c, 9, 54, 40
1, 143620, Note_off_c, 9, 42, 80
1, 143620, Note_off_c, 9, 36, 109
1, 143712, Note_on_c, 9, 54, 40
1, 143716, Note_off_c, 9, 54, 40
1, 143792, Note_off_c, 15, 69, 122
1, 143808, Note_on_c, 14, 70, 113
1, 143808, Note_on_c, 15, 67, 121
1, 143808, Note_on_c, 9, 42, 85
1, 143808, Note_on_c, 9, 54, 45
1, 143808, Note_on_c, 9, 69, 47
1, 143812, Note_off_c, 9, 69, 47
1, 143812, Note_off_c, 9, 54, 45
1, 143812, Note_off_c, 9, 42, 85
1, 143892, Note_off_c, 1, 29, 103
1, 143904, Note_on_c, 9, 54, 35
1, 143904, Note_on_c, 9, 69, 49
1, 143908, Note_off_c, 9, 69, 49
1, 143908, Note_off_c, 9, 54, 35
1, 143908, Note_off_c, 4, 60, 85
1, 143916, Note_off_c, 4, 55, 103
1, 143976, Note_off_c, 2, 65, 89
1, 143984, Note_off_c, 14, 70, 113
1, 144000, Note_on_c, 14, 69, 126
1, 144000, Note_on_c, 4, 55, 90
1, 144000, Note_on_c, 4, 60, 87
1, 144000, Note_on_c, 2, 65, 87
1, 144000, Note_on_c, 9, 39, 93
1, 144000, Note_on_c, 1, 29, 115
1, 144000, Note_on_c, 9, 36, 122
1, 144000, Note_on_c, 9, 38, 107
1, 144000, Note_on_c, 9, 42, 88
1, 144000, Note_on_c, 9, 54, 41
1, 144000, Note_on_c, 9, 69, 48
1, 144004, Note_off_c, 9, 69, 48
1, 144004, Note_off_c, 9, 54, 41
1, 144004, Note_off_c, 9, 42, 88
1, 144004, Note_off_c, 9, 38, 107
1, 144004, Note_off_c, 9, 36, 122
1, 144004, Note_off_c, 9, 39, 93
1, 144084, Note_off_c, 1, 29, 115
1, 144096, Note_on_c, 9, 54, 48
1, 144100, Note_off_c, 9, 54, 48
1, 144176, Note_off_c, 14, 69, 126
1, 144192, Note_on_c, 14, 67, 113
1, 144192, Note_on_c, 1, 29, 110
1, 144192, Note_on_c, 9, 42, 84
1, 144192, Note_on_c, 9, 54, 46
1, 144192, Note_on_c, 9, 69, 30
1, 144196, Note_off_c, 9, 69, 30
1, 144196, Note_off_c, 9, 54, 46
1, 144196, Note_off_c, 9, 42, 84
1, 144268, Note_off_c, 4, 60, 87
1, 144276, Note_off_c, 4, 55, 90
1, 144280, Note_off_c, 7, 65, 122
1, 144280, Note_off_c, 7, 60, 116
1, 144288, Note_on_c, 9, 54, 44
1, 144288, Note_on_c, 9, 69, 48
1, 144292, Note_off_c, 9, 69, 48
1, 144292, Note_off_c, 9, 54, 44
1, 144360, Note_off_c, 2, 65, 87
1, 144368, Note_off_c, 14, 67, 113
1, 144368, Note_off_c, 15, 67, 121
1, 144372, Note_off_c, 1, 29, 110
1, 144384, Note_on_c, 14, 67, 117
1, 144384, Note_on_c, 7, 62, 106
1, 144384, Note_on_c, 7, 67, 116
1, 144384, Note_on_c, 4, 55, 87
1, 144384, Note_on_c, 4, 60, 84
1, 144384, Note_on_c, 2, 67, 86
1, 144384, Note_on_c, 1, 31, 107
1, 144384, Note_on_c, 9, 36, 105
1, 144384, Note_on_c, 9, 42, 94
1, 144384, Note_on_c, 9, 43, 71
1, 144384, Note_on_c, 9, 54, 33
1, 144384, Note_on_c, 9, 69, 35
1, 144388, Note_off_c, 9, 69, 35
1, 144388, Note_off_c, 9, 54, 33
1, 144388, Note_off_c, 9, 43, 71
1, 144388, Note_off_c, 9, 42, 94
1, 144388, Note_off_c, 9, 36, 105
1, 144468, Note_off_c, 1, 31, 107
1, 144480, Note_on_c, 9, 54, 30
1, 144484, Note_off_c, 9, 54, 30
1, 144560, Note_off_c, 14, 67, 117
1, 144576, Note_on_c, 14, 67, 117
1, 144576, Note_on_c, 1, 31, 108
1, 144576, Note_on_c, 9, 42, 78
1, 144576, Note_on_c, 9, 43, 83
1, 144576, Note_on_c, 9, 54, 32
1, 144576, Note_on_c, 9, 69, 33
1, 144580, Note_off_c, 9, 69, 33
1, 144580, Note_off_c, 9, 54, 32
1, 144580, Note_off_c, 9, 43, 83
1, 144580, Note_off_c, 9, 42, 78
1, 144648, Note_off_c, 2, 67, 86
1, 144660, Note_off_c, 1, 31, 108
1, 144664, Note_off_c, 7, 67, 116
1, 144664, Note_off_c, 7, 62, 106
1, 144672, Note_on_c, 9, 54, 43
1, 144672, Note_on_c, 9, 69, 32
1, 144676, Note_off_c, 9, 69, 32
1, 144676, Note_off_c, 9, 54, 43
1, 144768, Note_on_c, 7, 62, 119
1, 144768, Note_on_c, 7, 67, 109
1, 144768, Note_on_c, 2, 67, 95
1, 144768, Note_on_c, 9, 39, 101
1, 144768, Note_on_c, 1, 31, 118
1, 144768, Note_on_c, 9, 36, 106
1, 144768, Note_on_c, 9, 38, 107
1, 144768, Note_on_c, 9, 42, 94
1, 144768, Note_on_c, 9, 43, 83
1, 144768, Note_on_c, 9, 54, 44
1, 144768, Note_on_c, 9, 69, 46
1, 144772, Note_off_c, 9, 69, 46
1, 144772, Note_off_c, 9, 54, 44
1, 144772, Note_off_c, 9, 43, 83
1, 144772, Note_off_c, 9, 42, 94
1, 144772, Note_off_c, 9, 38, 107
1, 144772, Note_off_c, 9, 36, 106
1, 144772, Note_off_c, 9, 39, 101
1, 144852, Note_off_c, 1, 31, 118
1, 144864, Note_on_c, 9, 54, 44
1, 144868, Note_off_c, 9, 54, 44
1, 144944, Note_off_c, 14, 67, 117
1, 144960, Note_on_c, 14, 69, 122
1, 144960, Note_on_c, 1, 31, 115
1, 144960, Note_on_c, 9, 42, 82
1, 144960, Note_on_c, 9, 43, 80
1, 144960, Note_on_c, 9, 54, 41
1, 144960, Note_on_c, 9, 69, 38
1, 144964, Note_off_c, 9, 69, 38
1, 144964, Note_off_c, 9, 54, 41
1, 144964, Note_off_c, 9, 43, 80
1, 144964, Note_off_c, 9, 42, 82
1, 145032, Note_off_c, 2, 67, 95
1, 145044, Note_off_c, 1, 31, 115
1, 145048, Note_off_c, 7, 67, 109
1, 145048, Note_off_c, 7, 62, 119
1, 145056, Note_on_c, 9, 54, 37
1, 145056, Note_on_c, 9, 69, 48
1, 145060, Note_off_c, 9, 69, 48
1, 145060, Note_off_c, 9, 54, 37
1, 145152, Note_on_c, 7, 62, 121
1, 145152, Note_on_c, 7, 67, 117
1, 145152, Note_on_c, 2, 67, 79
1, 145152, Note_on_c, 1, 31, 119
1, 145152, Note_on_c, 9, 36, 112
1, 145152, Note_on_c, 9, 42, 84
1, 145152, Note_on_c, 9, 43, 69
1, 145152, Note_on_c, 9, 54, 43
1, 145152, Note_on_c, 9, 69, 38
1, 145156, Note_off_c, 9, 69, 38
1, 145156, Note_off_c, 9, 54, 43
1, 145156, Note_off_c, 9, 43, 69
1, 145156, Note_off_c, 9, 42, 84
1, 145156, Note_off_c, 9, 36, 112
1, 145236, Note_off_c, 1, 31, 119
1, 145248, Note_on_c, 9, 54, 47
1, 145252, Note_off_c, 9, 54, 47
1, 145328, Note_off_c, 14, 69, 122
1, 145344, Note_on_c, 14, 67, 122
1, 145344, Note_on_c, 15, 64, 116
1, 145344, Note_on_c, 1, 31, 102
1, 145344, Note_on_c, 9, 42, 87
1, 145344, Note_on_c, 9, 43, 82
1, 145344, Note_on_c, 9, 54, 44
1, 145344, Note_on_c, 9, 69, 38
1, 145348, Note_off_c, 9, 69, 38
1, 145348, Note_off_c, 9, 54, 44
1, 145348, Note_off_c, 9, 43, 82
1, 145348, Note_off_c, 9, 42, 87
1, 145416, Note_off_c, 2, 67, 79
1, 145428, Note_off_c, 1, 31, 102
1, 145432, Note_off_c, 7, 67, 117
1, 145432, Note_off_c, 7, 62, 121
1, 145440, Note_on_c, 9, 54, 33
1, 145440, Note_on_c, 9, 69, 49
1, 145444, Note_off_c, 9, 69, 49
1, 145444, Note_off_c, 9, 54, 33
1, 145520, Note_off_c, 15, 64, 116
1, 145536, Note_on_c, 15, 67, 110
1, 145536, Note_on_c, 7, 62, 115
1, 145536, Note_on_c, 7, 67, 114
1, 145536, Note_on_c, 2, 67, 86
1, 145536, Note_on_c, 9, 39, 97
1, 145536, Note_on_c, 1, 31, 107
1, 145536, Note_on_c, 9, 36, 111
1, 145536, Note_on_c, 9, 38, 117
1, 145536, Note_on_c, 9, 42, 81
1, 145536, Note_on_c, 9, 43, 82
1, 145536, Note_on_c, 9, 54, 49
1, 145536, Note_on_c, 9, 69, 42
1, 145540, Note_off_c, 9, 69, 42
1, 145540, Note_off_c, 9, 54, 49
1, 145540, Note_off_c, 9, 43, 82
1, 145540, Note_off_c, 9, 42, 81
1, 145540, Note_off_c, 9, 38, 117
1, 145540, Note_off_c, 9, 36, 111
1, 145540, Note_off_c, 9, 39, 97
1, 145620, Note_off_c, 1, 31, 107
1, 145632, Note_on_c, 9, 54, 46
1, 145636, Note_off_c, 9, 54, 46
1, 145728, Note_on_c, 1, 31, 118
1, 145728, Note_on_c, 9, 42, 78
1, 145728, Note_on_c, 9, 43, 70
1, 145728, Note_on_c, 9, 54, 47
1, 145728, Note_on_c, 9, 69, 42
1, 145732, Note_off_c, 9, 69, 42
1, 145732, Note_off_c, 9, 54, 47
1, 145732, Note_off_c, 9, 43, 70
1, 145732, Note_off_c, 9, 42, 78
1, 145788, Note_off_c, 4, 55, 87
1, 145800, Note_off_c, 2, 67, 86
1, 145800, Note_off_c, 4, 60, 84
1, 145812, Note_off_c, 1, 31, 118
1, 145816, Note_off_c, 7, 67, 114
1, 145816, Note_off_c, 7, 62, 115
1, 145824, Note_on_c, 9, 54, 42
1, 145824, Note_on_c, 9, 69, 43
1, 145828, Note_off_c, 9, 69, 43
1, 145828, Note_off_c, 9, 54, 42
1, 145904, Note_off_c, 15, 67, 110
1, 145904, Note_off_c, 14, 67, 122
1, 145920, Note_on_c, 15, 67, 115
1, 145920, Note_on_c, 7, 62, 109
1, 145920, Note_on_c, 7, 67, 108
1, 145920, Note_on_c, 4, 55, 99
1, 145920, Note_on_c, 4, 60, 89
1, 145920, Note_on_c, 2, 62, 95
1, 145920, Note_on_c, 2, 67, 88
1, 145920, Note_on_c, 1, 31, 108
1, 145920, Note_on_c, 9, 36, 105
1, 145920, Note_on_c, 9, 42, 88
1, 145920, Note_on_c, 9, 43, 73
1, 145920, Note_on_c, 9, 54, 46
1, 145920, Note_on_c, 9, 69, 37
1, 145924, Note_off_c, 9, 69, 37
1, 145924, Note_off_c, 9, 54, 46
1, 145924, Note_off_c, 9, 43, 73
1, 145924, Note_off_c, 9, 42, 88
1, 145924, Note_off_c, 9, 36, 105
1, 146000, Note_off_c, 15, 67, 115
1, 146004, Note_off_c, 1, 31, 108
1, 146008, Note_off_c, 2, 67, 88
1, 146008, Note_off_c, 2, 62, 95
1, 146016, Note_on_c, 9, 54, 39
1, 146020, Note_off_c, 9, 54, 39
1, 146112, Note_on_c, 15, 67, 119
1, 146112, Note_on_c, 2, 62, 92
1, 146112, Note_on_c, 2, 67, 88
1, 146112, Note_on_c, 1, 31, 110
1, 146112, Note_on_c, 9, 42, 89
1, 146112, Note_on_c, 9, 43, 66
1, 146112, Note_on_c, 9, 54, 44
1, 146112, Note_on_c, 9, 69, 38
1, 146116, Note_off_c, 9, 69, 38
1, 146116, Note_off_c, 9, 54, 44
1, 146116, Note_off_c, 9, 43, 66
1, 146116, Note_off_c, 9, 42, 89
1, 146196, Note_off_c, 1, 31, 110
1, 146200, Note_off_c, 2, 67, 88
1, 146200, Note_off_c, 2, 62, 92
1, 146200, Note_off_c, 7, 67, 108
1, 146200, Note_off_c, 7, 62, 109
1, 146208, Note_on_c, 9, 54, 49
1, 146208, Note_on_c, 9, 69, 36
1, 146212, Note_off_c, 9, 69, 36
1, 146212, Note_off_c, 9, 54, 49
1, 146304, Note_on_c, 7, 62, 107
1, 146304, Note_on_c, 7, 67, 113
1, 146304, Note_on_c, 2, 62, 82
1, 146304, Note_on_c, 2, 67, 78
1, 146304, Note_on_c, 9, 39, 97
1, 146304, Note_on_c, 1, 31, 119
1, 146304, Note_on_c, 9, 36, 118
1, 146304, Note_on_c, 9, 38, 123
1, 146304, Note_on_c, 9, 42, 90
1, 146304, Note_on_c, 9, 43, 66
1, 146304, Note_on_c, 9, 54, 45
1, 146304, Note_on_c, 9, 69, 43
1, 146308, Note_off_c, 9, 69, 43
1, 146308, Note_off_c, 9, 54, 45
1, 146308, Note_off_c, 9, 43, 66
1, 146308, Note_off_c, 9, 42, 90
1, 146308, Note_off_c, 9, 38, 123
1, 146308, Note_off_c, 9, 36, 118
1, 146308, Note_off_c, 9, 39, 97
1, 146388, Note_off_c, 1, 31, 119
1, 146392, Note_off_c, 2, 67, 78
1, 146392, Note_off_c, 2, 62, 82
1, 146400, Note_on_c, 9, 54, 39
1, 146404, Note_off_c, 9, 54, 39
1, 146480, Note_off_c, 15, 67, 119
1, 146496, Note_on_c, 15, 69, 127
1, 146496, Note_on_c, 2, 62, 83
1, 146496, Note_on_c, 2, 67, 82
1, 146496, Note_on_c, 1, 31, 102
1, 146496, Note_on_c, 9, 42, 89
1, 146496, Note_on_c, 9, 43, 66
1, 146496, Note_on_c, 9, 54, 34
1, 146496, Note_on_c, 9, 69, 47
1, 146500, Note_off_c, 9, 69, 47
1, 146500, Note_off_c, 9, 54, 34
1, 146500, Note_off_c, 9, 43, 66
1, 146500, Note_off_c, 9, 42, 89
1, 146580, Note_off_c, 1, 31, 102
1, 146584, Note_off_c, 2, 67, 82
1, 146584, Note_off_c, 2, 62, 83
1, 146584, Note_off_c, 7, 67, 113
1, 146584, Note_off_c, 7, 62, 107
1, 146592, Note_on_c, 9, 54, 43
1, 146592, Note_on_c, 9, 69, 47
1, 146596, Note_off_c, 9, 69, 47
1, 146596, Note_off_c, 9, 54, 43
1, 146688, Note_on_c, 14, 67, 117
1, 146688, Note_on_c, 7, 62, 119
1, 146688, Note_on_c, 7, 67, 108
1, 146688, Note_on_c, 2, 62, 90
1, 146688, Note_on_c, 2, 67, 92
1, 146688, Note_on_c, 1, 31, 100
1, 146688, Note_on_c, 9, 36, 105
1, 146688, Note_on_c, 9, 42, 93
1, 146688, Note_on_c, 9, 43, 69
1, 146688, Note_on_c, 9, 54, 49
1, 146688, Note_on_c, 9, 69, 36
1, 146692, Note_off_c, 9, 69, 36
1, 146692, Note_off_c, 9, 54, 49
1, 146692, Note_off_c, 9, 43, 69
1, 146692, Note_off_c, 9, 42, 93
1, 146692, Note_off_c, 9, 36, 105
1, 146772, Note_off_c, 1, 31, 100
1, 146776, Note_off_c, 2, 67, 92
1, 146776, Note_off_c, 2, 62, 90
1, 146776, Note_off_c, 7, 67, 108
1, 146776, Note_off_c, 7, 62, 119
1, 146784, Note_on_c, 9, 54, 37
1, 146788, Note_off_c, 9, 54, 37
1, 146864, Note_off_c, 14, 67, 117
1, 146864, Note_off_c, 15, 69, 127
1, 146880, Note_on_c, 14, 67, 126
1, 146880, Note_on_c, 15, 64, 122
1, 146880, Note_on_c, 7, 62, 111
1, 146880, Note_on_c, 7, 67, 105
1, 146880, Note_on_c, 2, 62, 91
1, 146880, Note_on_c, 2, 67, 90
1, 146880, Note_on_c, 1, 31, 104
1, 146880, Note_on_c, 9, 42, 81
1, 146880, Note_on_c, 9, 43, 69
1, 146880, Note_on_c, 9, 54, 49
1, 146880, Note_on_c, 9, 69, 34
1, 146884, Note_off_c, 9, 69, 34
1, 146884, Note_off_c, 9, 54, 49
1, 146884, Note_off_c, 9, 43, 69
1, 146884, Note_off_c, 9, 42, 81
1, 146964, Note_off_c, 1, 31, 104
1, 146968, Note_off_c, 2, 67, 90
1, 146968, Note_off_c, 2, 62, 91
1, 146968, Note_off_c, 7, 67, 105
1, 146968, Note_off_c, 7, 62, 111
1, 146976, Note_on_c, 9, 54, 49
1, 146976, Note_on_c, 9, 69, 44
1, 146980, Note_off_c, 9, 69, 44
1, 146980, Note_off_c, 9, 54, 49
1, 147056, Note_off_c, 15, 64, 122
1, 147072, Note_on_c, 15, 67, 115
1, 147072, Note_on_c, 7, 62, 106
1, 147072, Note_on_c, 7, 67, 117
1, 147072, Note_on_c, 2, 62, 91
1, 147072, Note_on_c, 2, 67, 87
1, 147072, Note_on_c, 9, 39, 93
1, 147072, Note_on_c, 1, 31, 115
1, 147072, Note_on_c, 9, 36, 117
1, 147072, Note_on_c, 9, 38, 120
1, 147072, Note_on_c, 9, 42, 85
1, 147072, Note_on_c, 9, 43, 78
1, 147072, Note_on_c, 9, 54, 40
1, 147072, Note_on_c, 9, 69, 30
1, 147076, Note_off_c, 9, 69, 30
1, 147076, Note_off_c, 9, 54, 40
1, 147076, Note_off_c, 9, 43, 78
1, 147076, Note_off_c, 9, 42, 85
1, 147076, Note_off_c, 9, 38, 120
1, 147076, Note_off_c, 9, 36, 117
1, 147076, Note_off_c, 9, 39, 93
1, 147156, Note_off_c, 1, 31, 115
1, 147160, Note_off_c, 2, 67, 87
1, 147160, Note_off_c, 2, 62, 91
1, 147160, Note_off_c, 7, 67, 117
1, 147160, Note_off_c, 7, 62, 106
1, 147168, Note_on_c, 9, 54, 42
1, 147172, Note_off_c, 9, 54, 42
1, 147248, Note_off_c, 14, 67, 126
1, 147264, Note_on_c, 14, 69, 125
1, 147264, Note_on_c, 7, 62, 104
1, 147264, Note_on_c, 7, 67, 115
1, 147264, Note_on_c, 2, 62, 79
1, 147264, Note_on_c, 2, 67, 78
1, 147264, Note_on_c, 1, 31, 118
1, 147264, Note_on_c, 9, 42, 76
1, 147264, Note_on_c, 9, 43, 76
1, 147264, Note_on_c, 9, 54, 45
1, 147264, Note_on_c, 9, 69, 39
1, 147268, Note_off_c, 9, 69, 39
1, 147268, Note_off_c, 9, 54, 45
1, 147268, Note_off_c, 9, 43, 76
1, 147268, Note_off_c, 9, 42, 76
1, 147340, Note_off_c, 4, 60, 89
1, 147340, Note_off_c, 4, 55, 99
1, 147348, Note_off_c, 1, 31, 118
1, 147352, Note_off_c, 2, 67, 78
1, 147352, Note_off_c, 2, 62, 79
1, 147352, Note_off_c, 7, 67, 115
1, 147352, Note_off_c, 7, 62, 104
1, 147360, Note_on_c, 9, 54, 38
1, 147360, Note_on_c, 9, 69, 46
1, 147364, Note_off_c, 9, 69, 46
1, 147364, Note_off_c, 9, 54, 38
1, 147440, Note_off_c, 15, 67, 115
1, 147456, Note_on_c, 11, 52, 41
1, 147456, Note_on_c, 7, 62, 118
1, 147456, Note_on_c, 7, 67, 116
1, 147456, Note_on_c, 4, 55, 91
1, 147456, Note_on_c, 4, 60, 102
1, 147456, Note_on_c, 2, 60, 80
1, 147456, Note_on_c, 2, 62, 92
1, 147456, Note_on_c, 2, 67, 90
1, 147456, Note_on_c, 1, 31, 112
1, 147456, Note_on_c, 9, 36, 107
1, 147456, Note_on_c, 9, 42, 76
1, 147456, Note_on_c, 9, 43, 76
1, 147456, Note_on_c, 9, 54, 37
1, 147456, Note_on_c, 9, 69, 45
1, 147460, Note_off_c, 9, 69, 45
1, 147460, Note_off_c, 9, 54, 37
1, 147460, Note_off_c, 9, 43, 76
1, 147460, Note_off_c, 9, 42, 76
1, 147460, Note_off_c, 9, 36, 107
1, 147540, Note_off_c, 1, 31, 112
1, 147544, Note_off_c, 2, 67, 90
1, 147544, Note_off_c, 2, 62, 92
1, 147544, Note_off_c, 2, 60, 80
1, 147544, Note_off_c, 7, 67, 116
1, 147544, Note_off_c, 7, 62, 118
1, 147544, Note_off_c, 11, 52, 41
1, 147552, Note_on_c, 11, 53, 43
1, 147552, Note_on_c, 9, 54, 36
1, 147556, Note_off_c, 9, 54, 36
1, 147632, Note_off_c, 14, 69, 125
1, 147640, Note_off_c, 11, 53, 43
1, 147648, Note_on_c, 14, 64, 127
1, 147648, Note_on_c, 11, 54, 45
1, 147648, Note_on_c, 7, 62, 106
1, 147648, Note_on_c, 7, 67, 120
1, 147648, Note_on_c, 2, 60, 85
1, 147648, Note_on_c, 2, 62, 79
1, 147648, Note_on_c, 2, 67, 95
1, 147648, Note_on_c, 1, 31, 100
1, 147648, Note_on_c, 9, 42, 79
1, 147648, Note_on_c, 9, 43, 69
1, 147648, Note_on_c, 9, 54, 48
1, 147648, Note_on_c, 9, 69, 47
1, 147652, Note_off_c, 9, 69, 47
1, 147652, Note_off_c, 9, 54, 48
1, 147652, Note_off_c, 9, 43, 69
1, 147652, Note_off_c, 9, 42, 79
1, 147732, Note_off_c, 1, 31, 100
1, 147736, Note_off_c, 2, 67, 95
1, 147736, Note_off_c, 2, 62, 79
1, 147736, Note_off_c, 2, 60, 85
1, 147736, Note_off_c, 7, 67, 120
1, 147736, Note_off_c, 7, 62, 106
1, 147736, Note_off_c, 11, 54, 45
1, 147744, Note_on_c, 11, 55, 47
1, 147744, Note_on_c, 9, 54, 49
1, 147744, Note_on_c, 9, 69, 47
1, 147748, Note_off_c, 9, 69, 47
1, 147748, Note_off_c, 9, 54, 49
1, 147792, Note_off_c, 4, 60, 102
1, 147800, Note_off_c, 4, 55, 91
1, 147824, Note_off_c, 14, 64, 127
1, 147832, Note_off_c, 11, 55, 47
1, 147840, Note_on_c, 14, 67, 112
1, 147840, Note_on_c, 11, 56, 49
1, 147840, Note_on_c, 7, 62, 109
1, 147840, Note_on_c, 7, 67, 119
1, 147840, Note_on_c, 4, 55, 96
1, 147840, Note_on_c, 4, 60, 98
1, 147840, Note_on_c, 2, 60, 96
1, 147840, Note_on_c, 2, 62, 91
1, 147840, Note_on_c, 2, 67, 94
1, 147840, Note_on_c, 9, 39, 103
1, 147840, Note_on_c, 1, 31, 104
1, 147840, Note_on_c, 9, 36, 120
1, 147840, Note_on_c, 9, 38, 120
1, 147840, Note_on_c, 9, 42, 93
1, 147840, Note_on_c, 9, 43, 76
1, 147840, Note_on_c, 9, 54, 31
1, 147840, Note_on_c, 9, 69, 37
1, 147844, Note_off_c, 9, 69, 37
1, 147844, Note_off_c, 9, 54, 31
1, 147844, Note_off_c, 9, 43, 76
1, 147844, Note_off_c, 9, 42, 93
1, 147844, Note_off_c, 9, 38, 120
1, 147844, Note_off_c, 9, 36, 120
1, 147844, Note_off_c, 9, 39, 103
1, 147924, Note_off_c, 1, 31, 104
1, 147928, Note_off_c, 2, 67, 94
1, 147928, Note_off_c, 2, 62, 91
1, 147928, Note_off_c, 2, 60, 96
1, 147928, Note_off_c, 7, 67, 119
1, 147928, Note_off_c, 7, 62, 109
1, 147928, Note_off_c, 11, 56, 49
1, 147936, Note_on_c, 11, 57, 51
1, 147936, Note_on_c, 9, 54, 41
1, 147940, Note_off_c, 9, 54, 41
1, 148024, Note_off_c, 11, 57, 51
1, 148032, Note_on_c, 11, 58, 53
1, 148032, Note_on_c, 7, 62, 110
1, 148032, Note_on_c, 7, 67, 114
1, 148032, Note_on_c, 2, 60, 80
1, 148032, Note_on_c, 2, 62, 90
1, 148032, Note_on_c, 2, 67, 94
1, 148032, Note_on_c, 1, 31, 118
1, 148032, Note_on_c, 9, 42, 83
1, 148032, Note_on_c, 9, 43, 76
1, 148032, Note_on_c, 9, 54, 42
1, 148032, Note_on_c, 9, 69, 30
1, 148036, Note_off_c, 9, 69, 30
1, 148036, Note_off_c, 9, 54, 42
1, 148036, Note_off_c, 9, 43, 76
1, 148036, Note_off_c, 9, 42, 83
1, 148112, Note_off_c, 14, 67, 112
1, 148116, Note_off_c, 1, 31, 118
1, 148120, Note_off_c, 2, 67, 94
1, 148120, Note_off_c, 2, 62, 90
1, 148120, Note_off_c, 2, 60, 80
1, 148120, Note_off_c, 7, 67, 114
1, 148120, Note_off_c, 7, 62, 110
1, 148120, Note_off_c, 11, 58, 53
1, 148128, Note_on_c, 11, 59, 55
1, 148128, Note_on_c, 9, 54, 42
1, 148128, Note_on_c, 9, 69, 35
1, 148132, Note_off_c, 9, 69, 35
1, 148132, Note_off_c, 9, 54, 42
1, 148144, Note_off_c, 4, 55, 96
1, 148152, Note_off_c, 4, 60, 98
1, 148216, Note_off_c, 11, 59, 55
1, 148224, Note_on_c, 14, 64, 126
1, 148224, Note_on_c, 15, 67, 113
1, 148224, Note_on_c, 11, 60, 56
1, 148224, Note_on_c, 7, 62, 122
1, 148224, Note_on_c, 7, 67, 112
1, 148224, Note_on_c, 4, 55, 99
1, 148224, Note_on_c, 4, 60, 94
1, 148224, Note_on_c, 2, 60, 92
1, 148224, Note_on_c, 2, 62, 96
1, 148224, Note_on_c, 2, 67, 78
1, 148224, Note_on_c, 1, 31, 110
1, 148224, Note_on_c, 9, 36, 107
1, 148224, Note_on_c, 9, 42, 82
1, 148224, Note_on_c, 9, 43, 74
1, 148224, Note_on_c, 9, 54, 38
1, 148224, Note_on_c, 9, 69, 40
1, 148228, Note_off_c, 9, 69, 40
1, 148228, Note_off_c, 9, 54, 38
1, 148228, Note_off_c, 9, 43, 74
1, 148228, Note_off_c, 9, 42, 82
1, 148228, Note_off_c, 9, 36, 107
1, 148308, Note_off_c, 1, 31, 110
1, 148312, Note_off_c, 2, 67, 78
1, 148312, Note_off_c, 2, 62, 96
1, 148312, Note_off_c, 2, 60, 92
1, 148312, Note_off_c, 7, 67, 112
1, 148312, Note_off_c, 7, 62, 122
1, 148312, Note_off_c, 11, 60, 56
1, 148320, Note_on_c, 11, 61, 58
1, 148320, Note_on_c, 9, 54, 30
1, 148324, Note_off_c, 9, 54, 30
1, 148400, Note_off_c, 14, 64, 126
1, 148408, Note_off_c, 11, 61, 58
1, 148416, Note_on_c, 14, 67, 119
1, 148416, Note_on_c, 11, 62, 60
1, 148416, Note_on_c, 7, 62, 122
1, 148416, Note_on_c, 7, 67, 115
1, 148416, Note_on_c, 2, 60, 87
1, 148416, Note_on_c, 2, 62, 89
1, 148416, Note_on_c, 2, 67, 93
1, 148416, Note_on_c, 1, 31, 115
1, 148416, Note_on_c, 9, 42, 76
1, 148416, Note_on_c, 9, 43, 81
1, 148416, Note_on_c, 9, 54, 40
1, 148416, Note_on_c, 9, 69, 32
1, 148420, Note_off_c, 9, 69, 32
1, 148420, Note_off_c, 9, 54, 40
1, 148420, Note_off_c, 9, 43, 81
1, 148420, Note_off_c, 9, 42, 76
1, 148496, Note_off_c, 4, 55, 99
1, 148500, Note_off_c, 1, 31, 115
1, 148500, Note_off_c, 4, 60, 94
1, 148504, Note_off_c, 2, 67, 93
1, 148504, Note_off_c, 2, 62, 89
1, 148504, Note_off_c, 2, 60, 87
1, 148504, Note_off_c, 7, 67, 115
1, 148504, Note_off_c, 7, 62, 122
1, 148504, Note_off_c, 11, 62, 60
1, 148512, Note_on_c, 11, 63, 62
1, 148512, Note_on_c, 9, 54, 43
1, 148512, Note_on_c, 9, 69, 31
1, 148516, Note_off_c, 9, 69, 31
1, 148516, Note_off_c, 9, 54, 43
1, 148592, Note_off_c, 15, 67, 113
1, 148600, Note_off_c, 11, 63, 62
1, 148608, Note_on_c, 15, 67, 127
1, 148608, Note_on_c, 11, 64, 64
1, 148608, Note_on_c, 7, 62, 107
1, 148608, Note_on_c, 7, 67, 108
1, 148608, Note_on_c, 4, 55, 86
1, 148608, Note_on_c, 4, 60, 103
1, 148608, Note_on_c, 2, 60, 93
1, 148608, Note_on_c, 2, 62, 81
1, 148608, Note_on_c, 2, 67, 84
1, 148608, Note_on_c, 9, 39, 99
1, 148608, Note_on_c, 1, 31, 101
1, 148608, Note_on_c, 9, 36, 112
1, 148608, Note_on_c, 9, 38, 106
1, 148608, Note_on_c, 9, 42, 76
1, 148608, Note_on_c, 9, 43, 73
1, 148608, Note_on_c, 9, 54, 39
1, 148608, Note_on_c, 9, 69, 49
1, 148612, Note_off_c, 9, 69, 49
1, 148612, Note_off_c, 9, 54, 39
1, 148612, Note_off_c, 9, 43, 73
1, 148612, Note_off_c, 9, 42, 76
1, 148612, Note_off_c, 9, 38, 106
1, 148612, Note_off_c, 9, 36, 112
1, 148612, Note_off_c, 9, 39, 99
1, 148692, Note_off_c, 1, 31, 101
1, 148696, Note_off_c, 2, 67, 84
1, 148696, Note_off_c, 2, 62, 81
1, 148696, Note_off_c, 2, 60, 93
1, 148696, Note_off_c, 7, 67, 108
1, 148696, Note_off_c, 7, 62, 107
1, 148696, Note_off_c, 11, 64, 64
1, 148704, Note_on_c, 11, 65, 66
1, 148704, Note_on_c, 9, 54, 44
1, 148708, Note_off_c, 9, 54, 44
1, 148792, Note_off_c, 11, 65, 66
1, 148800, Note_on_c, 11, 66, 68
1, 148800, Note_on_c, 7, 62, 122
1, 148800, Note_on_c, 7, 67, 118
1, 148800, Note_on_c, 2, 60, 81
1, 148800, Note_on_c, 2, 62, 80
1, 148800, Note_on_c, 2, 67, 96
1, 148800, Note_on_c, 1, 31, 111
1, 148800, Note_on_c, 9, 42, 78
1, 148800, Note_on_c, 9, 43, 77
1, 148800, Note_on_c, 9, 54, 44
1, 148800, Note_on_c, 9, 69, 34
1, 148804, Note_off_c, 9, 69, 34
1, 148804, Note_off_c, 9, 54, 44
1, 148804, Note_off_c, 9, 43, 77
1, 148804, Note_off_c, 9, 42, 78
1, 148880, Note_off_c, 14, 67, 119
1, 148884, Note_off_c, 1, 31, 111
1, 148888, Note_off_c, 2, 67, 96
1, 148888, Note_off_c, 2, 62, 80
1, 148888, Note_off_c, 2, 60, 81
1, 148888, Note_off_c, 7, 67, 118
1, 148888, Note_off_c, 7, 62, 122
1, 148888, Note_off_c, 11, 66, 68
1, 148896, Note_on_c, 11, 67, 70
1, 148896, Note_on_c, 9, 54, 48
1, 148896, Note_on_c, 9, 69, 31
1, 148900, Note_off_c, 9, 69, 31
1, 148900, Note_off_c, 9, 54, 48
1, 148928, Note_off_c, 4, 55, 86
1, 148932, Note_off_c, 4, 60, 103
1, 148976, Note_off_c, 15, 67, 127
1, 148984, Note_off_c, 11, 67, 70
1, 148992, Note_on_c, 14, 69, 122
1, 148992, Note_on_c, 15, 67, 116
1, 148992, Note_on_c, 11, 68, 72
1, 148992, Note_on_c, 10, 55, 88
1, 148992, Note_on_c, 10, 60, 88
1, 148992, Note_on_c, 10, 62, 88
1, 148992, Note_on_c, 7, 62, 121
1, 148992, Note_on_c, 7, 67, 109
1, 148992, Note_on_c, 4, 55, 86
1, 148992, Note_on_c, 4, 60, 91
1, 148992, Note_on_c, 2, 60, 91
1, 148992, Note_on_c, 2, 62, 92
1, 148992, Note_on_c, 2, 67, 87
1, 148992, Note_on_c, 1, 31, 112
1, 148992, Note_on_c, 9, 36, 118
1, 148992, Note_on_c, 9, 42, 76
1, 148992, Note_on_c, 9, 43, 68
1, 148992, Note_on_c, 9, 54, 34
1, 148992, Note_on_c, 9, 69, 44
1, 148996, Note_off_c, 9, 69, 44
1, 148996, Note_off_c, 9, 54, 34
1, 148996, Note_off_c, 9, 43, 68
1, 148996, Note_off_c, 9, 42, 76
1, 148996, Note_off_c, 9, 36, 118
1, 149076, Note_off_c, 1, 31, 112
1, 149080, Note_off_c, 2, 67, 87
1, 149080, Note_off_c, 2, 62, 92
1, 149080, Note_off_c, 2, 60, 91
1, 149080, Note_off_c, 7, 67, 109
1, 149080, Note_off_c, 7, 62, 121
1, 149080, Note_off_c, 11, 68, 72
1, 149088, Note_on_c, 11, 69, 74
1, 149088, Note_on_c, 9, 54, 35
1, 149092, Note_off_c, 9, 54, 35
1, 149168, Note_off_c, 15, 67, 116
1, 149168, Note_off_c, 14, 69, 122
1, 149176, Note_off_c, 11, 69, 74
1, 149184, Note_on_c, 14, 72, 124
1, 149184, Note_on_c, 15, 67, 127
1, 149184, Note_on_c, 11, 70, 76
1, 149184, Note_on_c, 7, 62, 107
1, 149184, Note_on_c, 7, 67, 118
1, 149184, Note_on_c, 2, 60, 84
1, 149184, Note_on_c, 2, 62, 78
1, 149184, Note_on_c, 2, 67, 88
1, 149184, Note_on_c, 1, 31, 113
1, 149184, Note_on_c, 9, 42, 86
1, 149184, Note_on_c, 9, 43, 78
1, 149184, Note_on_c, 9, 54, 39
1, 149184, Note_on_c, 9, 69, 36
1, 149188, Note_off_c, 9, 69, 36
1, 149188, Note_off_c, 9, 54, 39
1, 149188, Note_off_c, 9, 43, 78
1, 149188, Note_off_c, 9, 42, 86
1, 149268, Note_off_c, 1, 31, 113
1, 149272, Note_off_c, 2, 67, 88
1, 149272, Note_off_c, 2, 62, 78
1, 149272, Note_off_c, 2, 60, 84
1, 149272, Note_off_c, 7, 67, 118
1, 149272, Note_off_c, 7, 62, 107
1, 149272, Note_off_c, 11, 70, 76
1, 149272, Note_off_c, 10, 62, 88
1, 149272, Note_off_c, 10, 60, 88
1, 149272, Note_off_c, 10, 55, 88
1, 149280, Note_on_c, 11, 71, 78
1, 149280, Note_on_c, 9, 54, 48
1, 149280, Note_on_c, 9, 69, 41
1, 149284, Note_off_c, 9, 69, 41
1, 149284, Note_off_c, 9, 54, 48
1, 149296, Note_off_c, 4, 60, 91
1, 149296, Note_off_c, 4, 55, 86
1, 149360, Note_off_c, 15, 67, 127
1, 149360, Note_off_c, 14, 72, 124
1, 149368, Note_off_c, 11, 71, 78
1, 149376, Note_on_c, 14, 69, 127
1, 149376, Note_on_c, 15, 67, 111
1, 149376, Note_on_c, 11, 72, 80
1, 149376, Note_on_c, 10, 55, 97
1, 149376, Note_on_c, 10, 60, 97
1, 149376, Note_on_c, 10, 62, 97
1, 149376, Note_on_c, 7, 62, 105
1, 149376, Note_on_c, 7, 67, 110
1, 149376, Note_on_c, 4, 55, 102
1, 149376, Note_on_c, 4, 60, 99
1, 149376, Note_on_c, 2, 60, 81
1, 149376, Note_on_c, 2, 62, 91
1, 149376, Note_on_c, 2, 67, 94
1, 149376, Note_on_c, 9, 39, 102
1, 149376, Note_on_c, 1, 31, 109
1, 149376, Note_on_c, 9, 36, 113
1, 149376, Note_on_c, 9, 38, 116
1, 149376, Note_on_c, 9, 42, 80
1, 149376, Note_on_c, 9, 43, 72
1, 149376, Note_on_c, 9, 54, 39
1, 149376, Note_on_c, 9, 69, 36
1, 149380, Note_off_c, 9, 69, 36
1, 149380, Note_off_c, 9, 54, 39
1, 149380, Note_off_c, 9, 43, 72
1, 149380, Note_off_c, 9, 42, 80
1, 149380, Note_off_c, 9, 38, 116
1, 149380, Note_off_c, 9, 36, 113
1, 149380, Note_off_c, 9, 39, 102
1, 149460, Note_off_c, 1, 31, 109
1, 149464, Note_off_c, 2, 67, 94
1, 149464, Note_off_c, 2, 62, 91
1, 149464, Note_off_c, 2, 60, 81
1, 149464, Note_off_c, 7, 67, 110
1, 149464, Note_off_c, 7, 62, 105
1, 149464, Note_off_c, 11, 72, 80
1, 149472, Note_on_c, 11, 73, 81
1, 149472, Note_on_c, 9, 54, 36
1, 149476, Note_off_c, 9, 54, 36
1, 149552, Note_off_c, 14, 69, 127
1, 149560, Note_off_c, 11, 73, 81
1, 149568, Note_on_c, 14, 67, 122
1, 149568, Note_on_c, 11, 74, 83
1, 149568, Note_on_c, 7, 62, 118
1, 149568, Note_on_c, 7, 67, 119
1, 149568, Note_on_c, 2, 60, 90
1, 149568, Note_on_c, 2, 62, 81
1, 149568, Note_on_c, 2, 67, 96
1, 149568, Note_on_c, 1, 31, 106
1, 149568, Note_on_c, 9, 42, 79
1, 149568, Note_on_c, 9, 43, 79
1, 149568, Note_on_c, 9, 54, 30
1, 149568, Note_on_c, 9, 69, 35
1, 149572, Note_off_c, 9, 69, 35
1, 149572, Note_off_c, 9, 54, 30
1, 149572, Note_off_c, 9, 43, 79
1, 149572, Note_off_c, 9, 42, 79
1, 149652, Note_off_c, 1, 31, 106
1, 149656, Note_off_c, 2, 67, 96
1, 149656, Note_off_c, 2, 62, 81
1, 149656, Note_off_c, 2, 60, 90
1, 149656, Note_off_c, 7, 67, 119
1, 149656, Note_off_c, 7, 62, 118
1, 149656, Note_off_c, 11, 74, 83
1, 149656, Note_off_c, 10, 62, 97
1, 149656, Note_off_c, 10, 60, 97
1, 149656, Note_off_c, 10, 55, 97
1, 149664, Note_on_c, 11, 75, 85
1, 149664, Note_on_c, 9, 54, 46
1, 149664, Note_on_c, 9, 69, 32
1, 149668, Note_off_c, 9, 69, 32
1, 149668, Note_off_c, 9, 54, 46
1, 149692, Note_off_c, 4, 60, 99
1, 149696, Note_off_c, 4, 55, 102
1, 149744, Note_off_c, 14, 67, 122
1, 149744, Note_off_c, 15, 67, 111
1, 149752, Note_off_c, 11, 75, 85
1, 149760, Note_on_c, 14, 69, 114
1, 149760, Note_on_c, 15, 69, 121
1, 149760, Note_on_c, 11, 76, 87
1, 149760, Note_on_c, 10, 59, 105
1, 149760, Note_on_c, 7, 62, 110
1, 149760, Note_on_c, 7, 67, 107
1, 149760, Note_on_c, 4, 55, 100
1, 149760, Note_on_c, 4, 60, 91
1, 149760, Note_on_c, 2, 60, 96
1, 149760, Note_on_c, 2, 62, 95
1, 149760, Note_on_c, 2, 67, 78
1, 149760, Note_on_c, 1, 31, 100
1, 149760, Note_on_c, 9, 36, 106
1, 149760, Note_on_c, 9, 42, 87
1, 149760, Note_on_c, 9, 43, 82
1, 149760, Note_on_c, 9, 54, 40
1, 149760, Note_on_c, 9, 69, 41
1, 149764, Note_off_c, 9, 69, 41
1, 149764, Note_off_c, 9, 54, 40
1, 149764, Note_off_c, 9, 43, 82
1, 149764, Note_off_c, 9, 42, 87
1, 149764, Note_off_c, 9, 36, 106
1, 149844, Note_off_c, 1, 31, 100
1, 149848, Note_off_c, 2, 67, 78
1, 149848, Note_off_c, 2, 62, 95
1, 149848, Note_off_c, 2, 60, 96
1, 149848, Note_off_c, 7, 67, 107
1, 149848, Note_off_c, 7, 62, 110
1, 149848, Note_off_c, 10, 59, 105
1, 149848, Note_off_c, 11, 76, 87
1, 149856, Note_on_c, 11, 77, 89
1, 149856, Note_on_c, 10, 60, 108
1, 149856, Note_on_c, 9, 54, 38
1, 149860, Note_off_c, 9, 54, 38
1, 149860, Note_off_c, 4, 60, 91
1, 149860, Note_off_c, 4, 55, 100
1, 149936, Note_off_c, 14, 69, 114
1, 149944, Note_off_c, 10, 60, 108
1, 149944, Note_off_c, 11, 77, 89
1, 149952, Note_on_c, 14, 72, 127
1, 149952, Note_on_c, 11, 78, 91
1, 149952, Note_on_c, 10, 62, 110
1, 149952, Note_on_c, 7, 62, 110
1, 149952, Note_on_c, 7, 67, 110
1, 149952, Note_on_c, 4, 55, 85
1, 149952, Note_on_c, 4, 60, 98
1, 149952, Note_on_c, 2, 60, 93
1, 149952, Note_on_c, 2, 62, 87
1, 149952, Note_on_c, 2, 67, 82
1, 149952, Note_on_c, 1, 31, 117
1, 149952, Note_on_c, 9, 42, 76
1, 149952, Note_on_c, 9, 43, 72
1, 149952, Note_on_c, 9, 54, 40
1, 149952, Note_on_c, 9, 69, 44
1, 149956, Note_off_c, 9, 69, 44
1, 149956, Note_off_c, 9, 54, 40
1, 149956, Note_off_c, 9, 43, 72
1, 149956, Note_off_c, 9, 42, 76
1, 150036, Note_off_c, 1, 31, 117
1, 150040, Note_off_c, 2, 67, 82
1, 150040, Note_off_c, 2, 62, 87
1, 150040, Note_off_c, 2, 60, 93
1, 150040, Note_off_c, 4, 55, 85
1, 150040, Note_off_c, 7, 67, 110
1, 150040, Note_off_c, 7, 62, 110
1, 150040, Note_off_c, 10, 62, 110
1, 150040, Note_off_c, 11, 78, 91
1, 150044, Note_off_c, 4, 60, 98
1, 150048, Note_on_c, 11, 79, 93
1, 150048, Note_on_c, 10, 64, 112
1, 150048, Note_on_c, 9, 54, 48
1, 150048, Note_on_c, 9, 69, 44
1, 150052, Note_off_c, 9, 69, 44
1, 150052, Note_off_c, 9, 54, 48
1, 150128, Note_off_c, 14, 72, 127
1, 150128, Note_off_c, 15, 69, 121
1, 150136, Note_off_c, 10, 64, 112
1, 150136, Note_off_c, 11, 79, 93
1, 150144, Note_on_c, 14, 69, 117
1, 150144, Note_on_c, 15, 67, 117
1, 150144, Note_on_c, 11, 80, 95
1, 150144, Note_on_c, 10, 65, 114
1, 150144, Note_on_c, 7, 62, 121
1, 150144, Note_on_c, 7, 67, 113
1, 150144, Note_on_c, 4, 55, 88
1, 150144, Note_on_c, 4, 60, 84
1, 150144, Note_on_c, 2, 60, 78
1, 150144, Note_on_c, 2, 62, 85
1, 150144, Note_on_c, 2, 67, 88
1, 150144, Note_on_c, 9, 39, 86
1, 150144, Note_on_c, 1, 31, 107
1, 150144, Note_on_c, 9, 36, 107
1, 150144, Note_on_c, 9, 38, 107
1, 150144, Note_on_c, 9, 42, 76
1, 150144, Note_on_c, 9, 43, 65
1, 150144, Note_on_c, 9, 54, 43
1, 150144, Note_on_c, 9, 69, 42
1, 150148, Note_off_c, 9, 69, 42
1, 150148, Note_off_c, 9, 54, 43
1, 150148, Note_off_c, 9, 43, 65
1, 150148, Note_off_c, 9, 42, 76
1, 150148, Note_off_c, 9, 38, 107
1, 150148, Note_off_c, 9, 36, 107
1, 150148, Note_off_c, 9, 39, 86
1, 150224, Note_off_c, 4, 55, 88
1, 150228, Note_off_c, 1, 31, 107
1, 150232, Note_off_c, 2, 67, 88
1, 150232, Note_off_c, 2, 62, 85
1, 150232, Note_off_c, 2, 60, 78
1, 150232, Note_off_c, 4, 60, 84
1, 150232, Note_off_c, 7, 67, 113
1, 150232, Note_off_c, 7, 62, 121
1, 150232, Note_off_c, 10, 65, 114
1, 150232, Note_off_c, 11, 80, 95
1, 150240, Note_on_c, 11, 81, 97
1, 150240, Note_on_c, 10, 67, 116
1, 150240, Note_on_c, 9, 54, 31
1, 150244, Note_off_c, 9, 54, 31
1, 150320, Note_off_c, 14, 69, 117
1, 150328, Note_off_c, 10, 67, 116
1, 150328, Note_off_c, 11, 81, 97
1, 150336, Note_on_c, 14, 67, 113
1, 150336, Note_on_c, 11, 82, 99
1, 150336, Note_on_c, 10, 69, 119
1, 150336, Note_on_c, 7, 62, 122
1, 150336, Note_on_c, 7, 67, 111
1, 150336, Note_on_c, 4, 55, 98
1, 150336, Note_on_c, 4, 60, 95
1, 150336, Note_on_c, 2, 60, 87
1, 150336, Note_on_c, 2, 62, 80
1, 150336, Note_on_c, 2, 67, 85
1, 150336, Note_on_c, 1, 31, 103
1, 150336, Note_on_c, 9, 42, 87
1, 150336, Note_on_c, 9, 43, 66
1, 150336, Note_on_c, 9, 54, 47
1, 150336, Note_on_c, 9, 69, 30
1, 150340, Note_off_c, 9, 69, 30
1, 150340, Note_off_c, 9, 54, 47
1, 150340, Note_off_c, 9, 43, 66
1, 150340, Note_off_c, 9, 42, 87
1, 150420, Note_off_c, 1, 31, 103
1, 150424, Note_off_c, 2, 67, 85
1, 150424, Note_off_c, 2, 62, 80
1, 150424, Note_off_c, 2, 60, 87
1, 150424, Note_off_c, 7, 67, 111
1, 150424, Note_off_c, 7, 62, 122
1, 150424, Note_off_c, 10, 69, 119
1, 150424, Note_off_c, 11, 82, 99
1, 150428, Note_off_c, 4, 60, 95
1, 150432, Note_off_c, 4, 55, 98
1, 150432, Note_on_c, 11, 83, 101
1, 150432, Note_on_c, 10, 71, 121
1, 150432, Note_on_c, 9, 54, 30
1, 150432, Note_on_c, 9, 69, 48
1, 150436, Note_off_c, 9, 69, 48
1, 150436, Note_off_c, 9, 54, 30
1, 150512, Note_off_c, 14, 67, 113
1, 150512, Note_off_c, 15, 67, 117
1, 150520, Note_off_c, 10, 71, 121
1, 150520, Note_off_c, 11, 83, 101
1, 150528, Tempo, 504200
1, 150528, Note_on_c, 14, 60, 117
1, 150528, Note_on_c, 14, 72, 120
1, 150528, Note_on_c, 15, 60, 113
1, 150528, Note_on_c, 11, 84, 103
1, 150528, Note_on_c, 10, 72, 123
1, 150528, Note_on_c, 8, 48, 122
1, 150528, Note_on_c, 7, 60, 112
1, 150528, Note_on_c, 7, 64, 121
1, 150528, Note_on_c, 7, 67, 121
1, 150528, Note_on_c, 3, 72, 57
1, 150528, Note_on_c, 2, 72, 86
1, 150528, Note_on_c, 2, 84, 93
1, 150528, Note_on_c, 1, 36, 105
1, 150528, Note_on_c, 9, 36, 124
1, 150528, Note_on_c, 9, 42, 89
1, 150528, Note_on_c, 9, 49, 111
1, 150528, Note_on_c, 9, 54, 42
1, 150528, Note_on_c, 9, 69, 45
1, 150532, Note_off_c, 9, 69, 45
1, 150532, Note_off_c, 9, 54, 42
1, 150532, Note_off_c, 9, 49, 111
1, 150532, Note_off_c, 9, 42, 89
1, 150532, Note_off_c, 9, 36, 124
1, 150616, Note_off_c, 3, 72, 57
1, 150616, Note_off_c, 10, 72, 123
1, 150616, Note_off_c, 11, 84, 103
1, 150624, Note_on_c, 3, 72, 62
1, 150624, Pitch_bend_c, 1, 8009
1, 150624, Note_on_c, 9, 54, 44
1, 150628, Note_off_c, 9, 54, 44
1, 150632, Pitch_bend_c, 1, 7827
1, 150640, Pitch_bend_c, 1, 7644
1, 150648, Pitch_bend_c, 1, 7461
1, 150656, Pitch_bend_c, 1, 7278
1, 150664, Pitch_bend_c, 1, 7096
1, 150672, Pitch_bend_c, 1, 6913
1, 150680, Pitch_bend_c, 1, 6730
1, 150688, Pitch_bend_c, 1, 6548
1, 150692, Note_off_c, 15, 60, 113
1, 150696, Pitch_bend_c, 1, 6365
1, 150704, Note_off_c, 14, 72, 120
1, 150704, Note_off_c, 14, 60, 117
1, 150704, Pitch_bend_c, 1, 6182
1, 150712, Note_off_c, 3, 72, 62
1, 150712, Note_off_c, 2, 84, 93
1, 150712, Note_off_c, 2, 72, 86
1, 150712, Note_off_c, 7, 67, 121
1, 150712, Note_off_c, 7, 64, 121
1, 150712, Note_off_c, 7, 60, 112
1, 150712, Note_off_c, 8, 48, 122
1, 150712, Pitch_bend_c, 1, 6000
1, 150720, Note_on_c, 14, 57, 121
1, 150720, Note_on_c, 14, 69, 127
1, 150720, Note_on_c, 15, 57, 113
1, 150720, Note_on_c, 3, 72, 67
1, 150720, Note_on_c, 2, 79, 93
1, 150720, Note_on_c, 2, 91, 90
1, 150720, Pitch_bend_c, 1, 5817
1, 150720, Note_on_c, 9, 42, 76
1, 150720, Note_on_c, 9, 54, 33
1, 150720, Note_on_c, 9, 69, 44
1, 150724, Note_off_c, 9, 69, 44
1, 150724, Note_off_c, 9, 54, 33
1, 150724, Note_off_c, 9, 42, 76
1, 150728, Pitch_bend_c, 1, 5634
1, 150736, Pitch_bend_c, 1, 5451
1, 150744, Pitch_bend_c, 1, 5269
1, 150752, Pitch_bend_c, 1, 5086
1, 150760, Pitch_bend_c, 1, 4903
1, 150768, Pitch_bend_c, 1, 4720
1, 150776, Pitch_bend_c, 1, 4538
1, 150784, Pitch_bend_c, 1, 4355
1, 150792, Pitch_bend_c, 1, 4172
1, 150800, Pitch_bend_c, 1, 3990
1, 150804, Note_off_c, 1, 36, 105
1, 150808, Note_off_c, 3, 72, 67
1, 150808, Pitch_bend_c, 1, 3807
1, 150816, Note_on_c, 3, 72, 58
1, 150816, Pitch_bend_c, 1, 3624
1, 150816, Note_on_c, 9, 54, 33
1, 150816, Note_on_c, 9, 69, 36
1, 150820, Note_off_c, 9, 69, 36
1, 150820, Note_off_c, 9, 54, 33
1, 150824, Pitch_bend_c, 1, 3441
1, 150832, Pitch_bend_c, 1, 3259
1, 150840, Pitch_bend_c, 1, 3076
1, 150848, Pitch_bend_c, 1, 8192
1, 150892, Note_off_c, 15, 57, 113
1, 150896, Note_off_c, 14, 69, 127
1, 150896, Note_off_c, 14, 57, 121
1, 150904, Note_off_c, 3, 72, 58
1, 150904, Note_off_c, 2, 91, 90
1, 150904, Note_off_c, 2, 79, 93
1, 150912, Note_on_c, 14, 60, 127
1, 150912, Note_on_c, 14, 72, 127
1, 150912, Note_on_c, 15, 57, 114
1, 150912, Note_on_c, 8, 52, 124
1, 150912, Note_on_c, 7, 60, 121
1, 150912, Note_on_c, 7, 64, 119
1, 150912, Note_on_c, 7, 67, 120
1, 150912, Note_on_c, 3, 72, 61
1, 150912, Note_on_c, 2, 76, 88
1, 150912, Note_on_c, 2, 88, 82
1, 150912, Note_on_c, 9, 39, 90
1, 150912, Note_on_c, 1, 28, 101
1, 150912, Note_on_c, 9, 36, 121
1, 150912, Note_on_c, 9, 38, 115
1, 150912, Note_on_c, 9, 42, 81
1, 150912, Note_on_c, 9, 54, 49
1, 150912, Note_on_c, 9, 69, 40
1, 150916, Note_off_c, 9, 69, 40
1, 150916, Note_off_c, 9, 54, 49
1, 150916, Note_off_c, 9, 42, 81
1, 150916, Note_off_c, 9, 38, 115
1, 150916, Note_off_c, 9, 36, 121
1, 150916, Note_off_c, 9, 39, 90
1, 151000, Note_off_c, 3, 72, 61
1, 151000, Note_off_c, 7, 67, 120
1, 151000, Note_off_c, 7, 64, 119
1, 151000, Note_off_c, 7, 60, 121
1, 151000, Note_off_c, 8, 52, 124
1, 151008, Note_on_c, 3, 72, 52
1, 151008, Note_on_c, 9, 54, 31
1, 151012, Note_off_c, 9, 54, 31
1, 151092, Note_off_c, 1, 28, 101
1, 151096, Note_off_c, 3, 72, 52
1, 151096, Note_off_c, 2, 88, 82
1, 151096, Note_off_c, 2, 76, 88
1, 151104, Note_on_c, 8, 53, 125
1, 151104, Note_on_c, 7, 60, 120
1, 151104, Note_on_c, 7, 65, 108
1, 151104, Note_on_c, 7, 69, 112
1, 151104, Note_on_c, 3, 72, 58
1, 151104, Note_on_c, 2, 77, 95
1, 151104, Note_on_c, 2, 89, 81
1, 151104, Note_on_c, 1, 29, 115
1, 151104, Note_on_c, 9, 42, 82
1, 151104, Note_on_c, 9, 54, 30
1, 151104, Note_on_c, 9, 69, 49
1, 151108, Note_off_c, 9, 69, 49
1, 151108, Note_off_c, 9, 54, 30
1, 151108, Note_off_c, 9, 42, 82
1, 151192, Note_off_c, 3, 72, 58
1, 151192, Note_off_c, 7, 69, 112
1, 151192, Note_off_c, 7, 65, 108
1, 151192, Note_off_c, 7, 60, 120
1, 151192, Note_off_c, 8, 53, 125
1, 151200, Note_on_c, 3, 72, 64
1, 151200, Note_on_c, 9, 54, 40
1, 151200, Note_on_c, 9, 69, 47
1, 151204, Note_off_c, 9, 69, 47
1, 151204, Note_off_c, 9, 54, 40
1, 151252, Note_off_c, 15, 57, 114
1, 151280, Note_off_c, 14, 72, 127
1, 151280, Note_off_c, 14, 60, 127
1, 151284, Note_off_c, 1, 29, 115
1, 151288, Note_off_c, 3, 72, 64
1, 151288, Note_off_c, 2, 89, 81
1, 151288, Note_off_c, 2, 77, 95
1, 151296, Note_on_c, 14, 60, 123
1, 151296, Note_on_c, 14, 72, 126
1, 151296, Note_on_c, 15, 60, 114
1, 151296, Note_on_c, 3, 72, 58
1, 151296, Note_on_c, 2, 84, 95
1, 151296, Note_on_c, 2, 96, 85
1, 151296, Note_on_c, 9, 36, 120
1, 151296, Note_on_c, 9, 42, 83
1, 151296, Note_on_c, 9, 54, 49
1, 151296, Note_on_c, 9, 69, 40
1, 151300, Note_off_c, 9, 69, 40
1, 151300, Note_off_c, 9, 54, 49
1, 151300, Note_off_c, 9, 42, 83
1, 151300, Note_off_c, 9, 36, 120
1, 151384, Note_off_c, 3, 72, 58
1, 151392, Note_on_c, 3, 72, 69
1, 151392, Note_on_c, 9, 54, 43
1, 151396, Note_off_c, 9, 54, 43
1, 151464, Note_off_c, 15, 60, 114
1, 151472, Note_off_c, 14, 72, 126
1, 151472, Note_off_c, 14, 60, 123
1, 151480, Note_off_c, 3, 72, 69
1, 151480, Note_off_c, 2, 96, 85
1, 151480, Note_off_c, 2, 84, 95
1, 151488, Note_on_c, 14, 57, 120
1, 151488, Note_on_c, 14, 69, 127
1, 151488, Note_on_c, 15, 57, 119
1, 151488, Note_on_c, 8, 52, 127
1, 151488, Note_on_c, 7, 60, 122
1, 151488, Note_on_c, 7, 64, 109
1, 151488, Note_on_c, 7, 67, 116
1, 151488, Note_on_c, 3, 72, 50
1, 151488, Note_on_c, 2, 89, 95
1, 151488, Note_on_c, 2, 101, 91
1, 151488, Note_on_c, 1, 28, 116
1, 151488, Note_on_c, 9, 42, 86
1, 151488, Note_on_c, 9, 54, 39
1, 151488, Note_on_c, 9, 69, 42
1, 151492, Note_off_c, 9, 69, 42
1, 151492, Note_off_c, 9, 54, 39
1, 151492, Note_off_c, 9, 42, 86
1, 151576, Note_off_c, 3, 72, 50
1, 151576, Note_off_c, 7, 67, 116
1, 151576, Note_off_c, 7, 64, 109
1, 151576, Note_off_c, 7, 60, 122
1, 151576, Note_off_c, 8, 52, 127
1, 151584, Note_on_c, 3, 72, 68
1, 151584, Note_on_c, 9, 54, 33
1, 151584, Note_on_c, 9, 69, 39
1, 151588, Note_off_c, 9, 69, 39
1, 151588, Note_off_c, 9, 54, 33
1, 151656, Note_off_c, 15, 57, 119
1, 151664, Note_off_c, 14, 69, 127
1, 151664, Note_off_c, 14, 57, 120
1, 151668, Note_off_c, 1, 28, 116
1, 151672, Note_off_c, 3, 72, 68
1, 151672, Note_off_c, 2, 101, 91
1, 151672, Note_off_c, 2, 89, 95
1, 151680, Note_on_c, 14, 60, 119
1, 151680, Note_on_c, 14, 72, 115
1, 151680, Note_on_c, 15, 57, 117
1, 151680, Note_on_c, 3, 72, 50
1, 151680, Note_on_c, 9, 39, 87
1, 151680, Note_on_c, 9, 36, 114
1, 151680, Note_on_c, 9, 38, 110
1, 151680, Note_on_c, 9, 42, 76
1, 151680, Note_on_c, 9, 54, 45
1, 151680, Note_on_c, 9, 69, 35
1, 151684, Note_off_c, 9, 69, 35
1, 151684, Note_off_c, 9, 54, 45
1, 151684, Note_off_c, 9, 42, 76
1, 151684, Note_off_c, 9, 38, 110
1, 151684, Note_off_c, 9, 36, 114
1, 151684, Note_off_c, 9, 39, 87
1, 151768, Note_off_c, 3, 72, 50
1, 151776, Note_on_c, 3, 72, 67
1, 151776, Note_on_c, 9, 54, 36
1, 151780, Note_off_c, 9, 54, 36
1, 151864, Note_off_c, 3, 72, 67
1, 151872, Note_on_c, 8, 53, 125
1, 151872, Note_on_c, 7, 60, 108
1, 151872, Note_on_c, 7, 65, 115
1, 151872, Note_on_c, 7, 69, 111
1, 151872, Note_on_c, 3, 72, 69
1, 151872, Note_on_c, 2, 88, 81
1, 151872, Note_on_c, 2, 100, 86
1, 151872, Note_on_c, 1, 29, 117
1, 151872, Note_on_c, 9, 42, 90
1, 151872, Note_on_c, 9, 54, 43
1, 151872, Note_on_c, 9, 69, 36
1, 151876, Note_off_c, 9, 69, 36
1, 151876, Note_off_c, 9, 54, 43
1, 151876, Note_off_c, 9, 42, 90
1, 151960, Note_off_c, 3, 72, 69
1, 151960, Note_off_c, 7, 69, 111
1, 151960, Note_off_c, 7, 65, 115
1, 151960, Note_off_c, 7, 60, 108
1, 151960, Note_off_c, 8, 53, 125
1, 151968, Note_on_c, 3, 72, 63
1, 151968, Note_on_c, 9, 54, 32
1, 151968, Note_on_c, 9, 69, 37
1, 151972, Note_off_c, 9, 69, 37
1, 151972, Note_off_c, 9, 54, 32
1, 152040, Note_off_c, 15, 57, 117
1, 152048, Note_off_c, 14, 72, 115
1, 152048, Note_off_c, 14, 60, 119
1, 152052, Note_off_c, 1, 29, 117
1, 152056, Note_off_c, 3, 72, 63
1, 152056, Note_off_c, 2, 100, 86
1, 152056, Note_off_c, 2, 88, 81
1, 152064, Note_on_c, 14, 60, 124
1, 152064, Note_on_c, 14, 72, 121
1, 152064, Note_on_c, 15, 60, 111
1, 152064, Note_on_c, 3, 72, 64
1, 152064, Note_on_c, 9, 36, 124
1, 152064, Note_on_c, 9, 42, 89
1, 152064, Note_on_c, 9, 54, 30
1, 152064, Note_on_c, 9, 69, 48
1, 152068, Note_off_c, 9, 69, 48
1, 152068, Note_off_c, 9, 54, 30
1, 152068, Note_off_c, 9, 42, 89
1, 152068, Note_off_c, 9, 36, 124
1, 152152, Note_off_c, 3, 72, 64
1, 152160, Note_on_c, 3, 72, 51
1, 152160, Note_on_c, 9, 54, 39
1, 152164, Note_off_c, 9, 54, 39
1, 152248, Note_off_c, 3, 72, 51
1, 152256, Note_on_c, 8, 52, 127
1, 152256, Note_on_c, 7, 60, 119
1, 152256, Note_on_c, 7, 64, 103
1, 152256, Note_on_c, 7, 67, 122
1, 152256, Note_on_c, 3, 72, 67
1, 152256, Note_on_c, 2, 84, 97
1, 152256, Note_on_c, 2, 96, 97
1, 152256, Note_on_c, 1, 28, 107
1, 152256, Note_on_c, 9, 42, 76
1, 152256, Note_on_c, 9, 54, 45
1, 152256, Note_on_c, 9, 69, 36
1, 152260, Note_off_c, 9, 69, 36
1, 152260, Note_off_c, 9, 54, 45
1, 152260, Note_off_c, 9, 42, 76
1, 152344, Note_off_c, 3, 72, 67
1, 152344, Note_off_c, 7, 67, 122
1, 152344, Note_off_c, 7, 64, 103
1, 152344, Note_off_c, 7, 60, 119
1, 152344, Note_off_c, 8, 52, 127
1, 152352, Note_on_c, 3, 72, 57
1, 152352, Note_on_c, 9, 54, 33
1, 152352, Note_on_c, 9, 69, 30
1, 152356, Note_off_c, 9, 69, 30
1, 152356, Note_off_c, 9, 54, 33
1, 152404, Note_off_c, 15, 60, 111
1, 152432, Note_off_c, 14, 72, 121
1, 152432, Note_off_c, 14, 60, 124
1, 152436, Note_off_c, 1, 28, 107
1, 152440, Note_off_c, 3, 72, 57
1, 152440, Note_off_c, 2, 96, 97
1, 152440, Note_off_c, 2, 84, 97
1, 152448, Note_on_c, 14, 60, 110
1, 152448, Note_on_c, 14, 72, 116
1, 152448, Note_on_c, 15, 60, 116
1, 152448, Note_on_c, 3, 72, 60
1, 152448, Note_on_c, 9, 39, 103
1, 152448, Note_on_c, 9, 36, 121
1, 152448, Note_on_c, 9, 38, 115
1, 152448, Note_on_c, 9, 42, 81
1, 152448, Note_on_c, 9, 54, 43
1, 152448, Note_on_c, 9, 69, 42
1, 152452, Note_off_c, 9, 69, 42
1, 152452, Note_off_c, 9, 54, 43
1, 152452, Note_off_c, 9, 42, 81
1, 152452, Note_off_c, 9, 38, 115
1, 152452, Note_off_c, 9, 36, 121
1, 152452, Note_off_c, 9, 39, 103
1, 152536, Note_off_c, 3, 72, 60
1, 152544, Note_on_c, 3, 72, 57
1, 152544, Note_on_c, 9, 54, 35
1, 152548, Note_off_c, 9, 54, 35
1, 152632, Note_off_c, 3, 72, 57
1, 152640, Note_on_c, 8, 53, 116
1, 152640, Note_on_c, 7, 60, 104
1, 152640, Note_on_c, 7, 65, 117
1, 152640, Note_on_c, 7, 69, 103
1, 152640, Note_on_c, 3, 72, 50
1, 152640, Note_on_c, 2, 79, 97
1, 152640, Note_on_c, 2, 91, 80
1, 152640, Note_on_c, 1, 29, 116
1, 152640, Note_on_c, 9, 42, 82
1, 152640, Note_on_c, 9, 54, 42
1, 152640, Note_on_c, 9, 69, 40
1, 152644, Note_off_c, 9, 69, 40
1, 152644, Note_off_c, 9, 54, 42
1, 152644, Note_off_c, 9, 42, 82
1, 152728, Note_off_c, 3, 72, 50
1, 152728, Note_off_c, 7, 69, 103
1, 152728, Note_off_c, 7, 65, 117
1, 152728, Note_off_c, 7, 60, 104
1, 152728, Note_off_c, 8, 53, 116
1, 152736, Note_on_c, 3, 72, 62
1, 152736, Note_on_c, 9, 54, 47
1, 152736, Note_on_c, 9, 69, 34
1, 152740, Note_off_c, 9, 69, 34
1, 152740, Note_off_c, 9, 54, 47
1, 152772, Note_off_c, 1, 29, 116
1, 152800, Note_off_c, 15, 60, 116
1, 152816, Note_off_c, 14, 72, 116
1, 152816, Note_off_c, 14, 60, 110
1, 152824, Note_off_c, 3, 72, 62
1, 152824, Note_off_c, 2, 91, 80
1, 152824, Note_off_c, 2, 79, 97
1, 152832, Note_on_c, 14, 64, 112
1, 152832, Note_on_c, 14, 76, 118
1, 152832, Note_on_c, 15, 64, 120
1, 152832, Note_on_c, 8, 55, 124
1, 152832, Note_on_c, 7, 62, 114
1, 152832, Note_on_c, 7, 67, 109
1, 152832, Note_on_c, 7, 71, 106
1, 152832, Note_on_c, 3, 72, 58
1, 152832, Note_on_c, 1, 31, 100
1, 152832, Note_on_c, 9, 36, 120
1, 152832, Note_on_c, 9, 42, 83
1, 152832, Note_on_c, 9, 54, 34
1, 152832, Note_on_c, 9, 69, 34
1, 152836, Note_off_c, 9, 69, 34
1, 152836, Note_off_c, 9, 54, 34
1, 152836, Note_off_c, 9, 42, 83
1, 152836, Note_off_c, 9, 36, 120
1, 152920, Note_off_c, 3, 72, 58
1, 152928, Note_on_c, 3, 72, 64
1, 152928, Note_on_c, 9, 54, 45
1, 152932, Note_off_c, 9, 54, 45
1, 153012, Note_off_c, 1, 31, 100
1, 153016, Note_off_c, 3, 72, 64
1, 153016, Note_off_c, 7, 71, 106
1, 153016, Note_off_c, 7, 67, 109
1, 153016, Note_off_c, 7, 62, 114
1, 153016, Note_off_c, 8, 55, 124
1, 153024, Note_on_c, 3, 67, 58
1, 153024, Note_on_c, 9, 42, 86
1, 153024, Note_on_c, 9, 54, 31
1, 153024, Note_on_c, 9, 69, 48
1, 153028, Note_off_c, 9, 69, 48
1, 153028, Note_off_c, 9, 54, 31
1, 153028, Note_off_c, 9, 42, 86
1, 153112, Note_off_c, 3, 67, 58
1, 153120, Note_on_c, 9, 54, 30
1, 153120, Note_on_c, 9, 69, 44
1, 153124, Note_off_c, 9, 69, 44
1, 153124, Note_off_c, 9, 54, 30
1, 153200, Note_off_c, 15, 64, 120
1, 153200, Note_off_c, 14, 76, 118
1, 153200, Note_off_c, 14, 64, 112
1, 153216, Note_on_c, 14, 62, 112
1, 153216, Note_on_c, 14, 74, 119
1, 153216, Note_on_c, 15, 62, 113
1, 153216, Note_on_c, 8, 55, 117
1, 153216, Note_on_c, 7, 62, 107
1, 153216, Note_on_c, 7, 67, 112
1, 153216, Note_on_c, 7, 71, 105
1, 153216, Note_on_c, 3, 67, 57
1, 153216, Note_on_c, 2, 86, 92
1, 153216, Note_on_c, 2, 98, 94
1, 153216, Note_on_c, 9, 39, 85
1, 153216, Note_on_c, 1, 31, 119
1, 153216, Note_on_c, 9, 36, 114
1, 153216, Note_on_c, 9, 38, 110
1, 153216, Note_on_c, 9, 42, 76
1, 153216, Note_on_c, 9, 54, 43
1, 153216, Note_on_c, 9, 69, 40
1, 153220, Note_off_c, 9, 69, 40
1, 153220, Note_off_c, 9, 54, 43
1, 153220, Note_off_c, 9, 42, 76
1, 153220, Note_off_c, 9, 38, 110
1, 153220, Note_off_c, 9, 36, 114
1, 153220, Note_off_c, 9, 39, 85
1, 153304, Note_off_c, 3, 67, 57
1, 153312, Note_on_c, 3, 69, 68
1, 153312, Note_on_c, 9, 54, 40
1, 153316, Note_off_c, 9, 54, 40
1, 153360, Pitch_bend_c, 1, 8192
1, 153368, Pitch_bend_c, 1, 8323
1, 153376, Pitch_bend_c, 1, 8456
1, 153384, Pitch_bend_c, 1, 8588
1, 153388, Note_off_c, 15, 62, 113
1, 153392, Note_off_c, 14, 74, 119
1, 153392, Note_off_c, 14, 62, 112
1, 153392, Pitch_bend_c, 1, 8720
1, 153400, Note_off_c, 3, 69, 68
1, 153400, Note_off_c, 7, 71, 105
1, 153400, Note_off_c, 7, 67, 112
1, 153400, Note_off_c, 7, 62, 107
1, 153400, Note_off_c, 8, 55, 117
1, 153400, Pitch_bend_c, 1, 8852
1, 153408, Note_on_c, 14, 60, 121
1, 153408, Note_on_c, 14, 72, 125
1, 153408, Note_on_c, 15, 60, 127
1, 153408, Note_on_c, 3, 72, 69
1, 153408, Pitch_bend_c, 1, 8984
1, 153408, Note_on_c, 9, 42, 90
1, 153408, Note_on_c, 9, 54, 30
1, 153408, Note_on_c, 9, 69, 38
1, 153412, Note_off_c, 9, 69, 38
1, 153412, Note_off_c, 9, 54, 30
1, 153412, Note_off_c, 9, 42, 90
1, 153416, Pitch_bend_c, 1, 9116
1, 153424, Pitch_bend_c, 1, 9248
1, 153432, Pitch_bend_c, 1, 9380
1, 153440, Pitch_bend_c, 1, 9512
1, 153448, Pitch_bend_c, 1, 9644
1, 153456, Pitch_bend_c, 1, 9776
1, 153464, Pitch_bend_c, 1, 9908
1, 153472, Pitch_bend_c, 1, 10040
1, 153480, Note_off_c, 2, 98, 94
1, 153480, Note_off_c, 2, 86, 92
1, 153480, Pitch_bend_c, 1, 10172
1, 153488, Pitch_bend_c, 1, 10305
1, 153492, Note_off_c, 1, 31, 119
1, 153496, Note_off_c, 3, 72, 69
1, 153496, Pitch_bend_c, 1, 10437
1, 153504, Note_on_c, 3, 74, 61
1, 153504, Pitch_bend_c, 1, 10569
1, 153504, Note_on_c, 9, 54, 33
1, 153504, Note_on_c, 9, 69, 47
1, 153508, Note_off_c, 9, 69, 47
1, 153508, Note_off_c, 9, 54, 33
1, 153512, Pitch_bend_c, 1, 10701
1, 153520, Pitch_bend_c, 1, 10833
1, 153528, Pitch_bend_c, 1, 10965
1, 153536, Pitch_bend_c, 1, 11097
1, 153544, Pitch_bend_c, 1, 11229
1, 153552, Pitch_bend_c, 1, 11361
1, 153560, Pitch_bend_c, 1, 11493
1, 153568, Pitch_bend_c, 1, 11625
1, 153576, Pitch_bend_c, 1, 11757
1, 153584, Pitch_bend_c, 1, 8192
1, 153592, Note_off_c, 3, 74, 61
1, 153600, Tempo, 500000
1, 153600, Note_on_c, 8, 48, 117
1, 153600, Note_on_c, 7, 60, 111
1, 153600, Note_on_c, 7, 64, 104
1, 153600, Note_on_c, 7, 67, 116
1, 153600, Note_on_c, 3, 72, 60
1, 153600, Note_on_c, 2, 72, 95
1, 153600, Note_on_c, 2, 84, 89
1, 153600, Note_on_c, 1, 36, 117
1, 153600, Note_on_c, 9, 36, 124
1, 153600, Note_on_c, 9, 42, 89
1, 153600, Note_on_c, 9, 54, 43
1, 153600, Note_on_c, 9, 69, 37
1, 153604, Note_off_c, 9, 69, 37
1, 153604, Note_off_c, 9, 54, 43
1, 153604, Note_off_c, 9, 42, 89
1, 153604, Note_off_c, 9, 36, 124
1, 153688, Note_off_c, 3, 72, 60
1, 153688, Pitch_bend_c, 1, 8192
1, 153696, Note_on_c, 3, 72, 54
1, 153696, Pitch_bend_c, 1, 8009
1, 153696, Note_on_c, 9, 54, 33
1, 153700, Note_off_c, 9, 54, 33
1, 153704, Pitch_bend_c, 1, 7827
1, 153712, Pitch_bend_c, 1, 7644
1, 153720, Pitch_bend_c, 1, 7461
1, 153728, Pitch_bend_c, 1, 7278
1, 153736, Pitch_bend_c, 1, 7096
1, 153744, Pitch_bend_c, 1, 6913
1, 153752, Pitch_bend_c, 1, 6730
1, 153760, Pitch_bend_c, 1, 6548
1, 153768, Pitch_bend_c, 1, 6365
1, 153776, Pitch_bend_c, 1, 6182
1, 153784, Note_off_c, 3, 72, 54
1, 153784, Note_off_c, 2, 84, 89
1, 153784, Note_off_c, 2, 72, 95
1, 153784, Note_off_c, 7, 67, 116
1, 153784, Note_off_c, 7, 64, 104
1, 153784, Note_off_c, 7, 60, 111
1, 153784, Note_off_c, 8, 48, 117
1, 153784, Pitch_bend_c, 1, 6000
1, 153792, Note_on_c, 3, 72, 66
1, 153792, Note_on_c, 2, 79, 79
1, 153792, Note_on_c, 2, 91, 93
1, 153792, Pitch_bend_c, 1, 5817
1, 153792, Note_on_c, 9, 42, 76
1, 153792, Note_on_c, 9, 54, 34
1, 153792, Note_on_c, 9, 69, 49
1, 153796, Note_off_c, 9, 69, 49
1, 153796, Note_off_c, 9, 54, 34
1, 153796, Note_off_c, 9, 42, 76
1, 153800, Pitch_bend_c, 1, 5634
1, 153808, Pitch_bend_c, 1, 5451
1, 153816, Pitch_bend_c, 1, 5269
1, 153824, Pitch_bend_c, 1, 5086
1, 153832, Pitch_bend_c, 1, 4903
1, 153840, Pitch_bend_c, 1, 4720
1, 153848, Pitch_bend_c, 1, 4538
1, 153856, Pitch_bend_c, 1, 4355
1, 153864, Pitch_bend_c, 1, 4172
1, 153872, Pitch_bend_c, 1, 3990
1, 153876, Note_off_c, 1, 36, 117
1, 153880, Note_off_c, 3, 72, 66
1, 153880, Pitch_bend_c, 1, 3807
1, 153888, Note_on_c, 3, 72, 51
1, 153888, Pitch_bend_c, 1, 3624
1, 153888, Note_on_c, 9, 54, 45
1, 153888, Note_on_c, 9, 69, 38
1, 153892, Note_off_c, 9, 69, 38
1, 153892, Note_off_c, 9, 54, 45
1, 153896, Pitch_bend_c, 1, 3441
1, 153904, Pitch_bend_c, 1, 3259
1, 153912, Pitch_bend_c, 1, 3076
1, 153920, Pitch_bend_c, 1, 8192
1, 153976, Note_off_c, 3, 72, 51
1, 153976, Note_off_c, 2, 91, 93
1, 153976, Note_off_c, 2, 79, 79
1, 153984, Note_on_c, 8, 52, 127
1, 153984, Note_on_c, 7, 60, 121
1, 153984, Note_on_c, 7, 64, 116
1, 153984, Note_on_c, 7, 67, 120
1, 153984, Note_on_c, 3, 72, 68
1, 153984, Note_on_c, 2, 76, 86
1, 153984, Note_on_c, 2, 88, 95
1, 153984, Note_on_c, 9, 39, 97
1, 153984, Note_on_c, 1, 28, 112
1, 153984, Note_on_c, 9, 36, 121
1, 153984, Note_on_c, 9, 38, 115
1, 153984, Note_on_c, 9, 42, 81
1, 153984, Note_on_c, 9, 54, 39
1, 153984, Note_on_c, 9, 69, 43
1, 153988, Note_off_c, 9, 69, 43
1, 153988, Note_off_c, 9, 54, 39
1, 153988, Note_off_c, 9, 42, 81
1, 153988, Note_off_c, 9, 38, 115
1, 153988, Note_off_c, 9, 36, 121
1, 153988, Note_off_c, 9, 39, 97
1, 154072, Note_off_c, 3, 72, 68
1, 154072, Note_off_c, 7, 67, 120
1, 154072, Note_off_c, 7, 64, 116
1, 154072, Note_off_c, 7, 60, 121
1, 154072, Note_off_c, 8, 52, 127
1, 154080, Note_on_c, 3, 72, 53
1, 154080, Note_on_c, 9, 54, 37
1, 154084, Note_off_c, 9, 54, 37
1, 154164, Note_off_c, 1, 28, 112
1, 154168, Note_off_c, 3, 72, 53
1, 154168, Note_off_c, 2, 88, 95
1, 154168, Note_off_c, 2, 76, 86
1, 154176, Note_on_c, 8, 53, 124
1, 154176, Note_on_c, 7, 60, 122
1, 154176, Note_on_c, 7, 65, 104
1, 154176, Note_on_c, 7, 69, 114
1, 154176, Note_on_c, 3, 72, 68
1, 154176, Note_on_c, 2, 77, 78
1, 154176, Note_on_c, 2, 89, 87
1, 154176, Note_on_c, 1, 29, 107
1, 154176, Note_on_c, 9, 42, 82
1, 154176, Note_on_c, 9, 54, 38
1, 154176, Note_on_c, 9, 69, 35
1, 154180, Note_off_c, 9, 69, 35
1, 154180, Note_off_c, 9, 54, 38
1, 154180, Note_off_c, 9, 42, 82
1, 154264, Note_off_c, 3, 72, 68
1, 154264, Note_off_c, 7, 69, 114
1, 154264, Note_off_c, 7, 65, 104
1, 154264, Note_off_c, 7, 60, 122
1, 154264, Note_off_c, 8, 53, 124
1, 154272, Note_on_c, 3, 72, 65
1, 154272, Note_on_c, 9, 54, 33
1, 154272, Note_on_c, 9, 69, 41
1, 154276, Note_off_c, 9, 69, 41
1, 154276, Note_off_c, 9, 54, 33
1, 154356, Note_off_c, 1, 29, 107
1, 154360, Note_off_c, 3, 72, 65
1, 154360, Note_off_c, 2, 89, 87
1, 154360, Note_off_c, 2, 77, 78
1, 154368, Note_on_c, 3, 72, 57
1, 154368, Note_on_c, 2, 84, 92
1, 154368, Note_on_c, 2, 96, 84
1, 154368, Note_on_c, 9, 36, 120
1, 154368, Note_on_c, 9, 42, 83
1, 154368, Note_on_c, 9, 54, 37
1, 154368, Note_on_c, 9, 69, 37
1, 154372, Note_off_c, 9, 69, 37
1, 154372, Note_off_c, 9, 54, 37
1, 154372, Note_off_c, 9, 42, 83
1, 154372, Note_off_c, 9, 36, 120
1, 154456, Note_off_c, 3, 72, 57
1, 154464, Note_on_c, 3, 72, 63
1, 154464, Note_on_c, 9, 54, 34
1, 154468, Note_off_c, 9, 54, 34
1, 154552, Note_off_c, 3, 72, 63
1, 154552, Note_off_c, 2, 96, 84
1, 154552, Note_off_c, 2, 84, 92
1, 154560, Note_on_c, 8, 52, 127
1, 154560, Note_on_c, 7, 60, 119
1, 154560, Note_on_c, 7, 64, 115
1, 154560, Note_on_c, 7, 67, 110
1, 154560, Note_on_c, 3, 72, 63
1, 154560, Note_on_c, 2, 89, 88
1, 154560, Note_on_c, 2, 101, 96
1, 154560, Note_on_c, 1, 28, 101
1, 154560, Note_on_c, 9, 42, 86
1, 154560, Note_on_c, 9, 54, 34
1, 154560, Note_on_c, 9, 69, 45
1, 154564, Note_off_c, 9, 69, 45
1, 154564, Note_off_c, 9, 54, 34
1, 154564, Note_off_c, 9, 42, 86
1, 154640, Note_off_c, 14, 72, 125
1, 154640, Note_off_c, 14, 60, 121
1, 154644, Note_off_c, 15, 60, 127
1, 154648, Note_off_c, 3, 72, 63
1, 154648, Note_off_c, 7, 67, 110
1, 154648, Note_off_c, 7, 64, 115
1, 154648, Note_off_c, 7, 60, 119
1, 154648, Note_off_c, 8, 52, 127
1, 154656, Note_on_c, 3, 72, 69
1, 154656, Note_on_c, 9, 54, 46
1, 154656, Note_on_c, 9, 69, 39
1, 154660, Note_off_c, 9, 69, 39
1, 154660, Note_off_c, 9, 54, 46
1, 154740, Note_off_c, 1, 28, 101
1, 154744, Note_off_c, 3, 72, 69
1, 154744, Note_off_c, 2, 101, 96
1, 154744, Note_off_c, 2, 89, 88
1, 154752, Note_on_c, 3, 72, 69
1, 154752, Note_on_c, 9, 39, 97
1, 154752, Note_on_c, 9, 36, 114
1, 154752, Note_on_c, 9, 38, 110
1, 154752, Note_on_c, 9, 42, 76
1, 154752, Note_on_c, 9, 54, 38
1, 154752, Note_on_c, 9, 69, 47
1, 154756, Note_off_c, 9, 69, 47
1, 154756, Note_off_c, 9, 54, 38
1, 154756, Note_off_c, 9, 42, 76
1, 154756, Note_off_c, 9, 38, 110
1, 154756, Note_off_c, 9, 36, 114
1, 154756, Note_off_c, 9, 39, 97
1, 154840, Note_off_c, 3, 72, 69
1, 154848, Note_on_c, 3, 72, 65
1, 154848, Note_on_c, 9, 54, 49
1, 154852, Note_off_c, 9, 54, 49
1, 154936, Note_off_c, 3, 72, 65
1, 154944, Note_on_c, 8, 53, 127
1, 154944, Note_on_c, 7, 60, 106
1, 154944, Note_on_c, 7, 65, 109
1, 154944, Note_on_c, 7, 69, 105
1, 154944, Note_on_c, 3, 72, 61
1, 154944, Note_on_c, 2, 88, 97
1, 154944, Note_on_c, 2, 100, 94
1, 154944, Note_on_c, 1, 29, 117
1, 154944, Note_on_c, 9, 42, 90
1, 154944, Note_on_c, 9, 54, 46
1, 154944, Note_on_c, 9, 69, 42
1, 154948, Note_off_c, 9, 69, 42
1, 154948, Note_off_c, 9, 54, 46
1, 154948, Note_off_c, 9, 42, 90
1, 155032, Note_off_c, 3, 72, 61
1, 155032, Note_off_c, 7, 69, 105
1, 155032, Note_off_c, 7, 65, 109
1, 155032, Note_off_c, 7, 60, 106
1, 155032, Note_off_c, 8, 53, 127
1, 155040, Note_on_c, 3, 72, 54
1, 155040, Note_on_c, 9, 54, 45
1, 155040, Note_on_c, 9, 69, 36
1, 155044, Note_off_c, 9, 69, 36
1, 155044, Note_off_c, 9, 54, 45
1, 155124, Note_off_c, 1, 29, 117
1, 155128, Note_off_c, 3, 72, 54
1, 155128, Note_off_c, 2, 100, 94
1, 155128, Note_off_c, 2, 88, 97
1, 155136, Note_on_c, 3, 72, 65
1, 155136, Note_on_c, 9, 36, 124
1, 155136, Note_on_c, 9, 42, 89
1, 155136, Note_on_c, 9, 54, 38
1, 155136, Note_on_c, 9, 69, 48
1, 155140, Note_off_c, 9, 69, 48
1, 155140, Note_off_c, 9, 54, 38
1, 155140, Note_off_c, 9, 42, 89
1, 155140, Note_off_c, 9, 36, 124
1, 155224, Note_off_c, 3, 72, 65
1, 155232, Note_on_c, 3, 72, 67
1, 155232, Note_on_c, 9, 54, 39
1, 155236, Note_off_c, 9, 54, 39
1, 155320, Note_off_c, 3, 72, 67
1, 155328, Note_on_c, 8, 52, 115
1, 155328, Note_on_c, 7, 60, 119
1, 155328, Note_on_c, 7, 64, 105
1, 155328, Note_on_c, 7, 67, 112
1, 155328, Note_on_c, 3, 72, 61
1, 155328, Note_on_c, 2, 84, 85
1, 155328, Note_on_c, 2, 96, 91
1, 155328, Note_on_c, 1, 28, 114
1, 155328, Note_on_c, 9, 42, 76
1, 155328, Note_on_c, 9, 54, 47
1, 155328, Note_on_c, 9, 69, 40
1, 155332, Note_off_c, 9, 69, 40
1, 155332, Note_off_c, 9, 54, 47
1, 155332, Note_off_c, 9, 42, 76
1, 155416, Note_off_c, 3, 72, 61
1, 155416, Note_off_c, 7, 67, 112
1, 155416, Note_off_c, 7, 64, 105
1, 155416, Note_off_c, 7, 60, 119
1, 155416, Note_off_c, 8, 52, 115
1, 155424, Note_on_c, 3, 72, 63
1, 155424, Note_on_c, 9, 54, 47
1, 155424, Note_on_c, 9, 69, 38
1, 155428, Note_off_c, 9, 69, 38
1, 155428, Note_off_c, 9, 54, 47
1, 155508, Note_off_c, 1, 28, 114
1, 155512, Note_off_c, 3, 72, 63
1, 155512, Note_off_c, 2, 96, 91
1, 155512, Note_off_c, 2, 84, 85
1, 155520, Note_on_c, 3, 72, 63
1, 155520, Note_on_c, 9, 39, 103
1, 155520, Note_on_c, 9, 36, 121
1, 155520, Note_on_c, 9, 38, 115
1, 155520, Note_on_c, 9, 42, 81
1, 155520, Note_on_c, 9, 54, 36
1, 155520, Note_on_c, 9, 69, 49
1, 155524, Note_off_c, 9, 69, 49
1, 155524, Note_off_c, 9, 54, 36
1, 155524, Note_off_c, 9, 42, 81
1, 155524, Note_off_c, 9, 38, 115
1, 155524, Note_off_c, 9, 36, 121
1, 155524, Note_off_c, 9, 39, 103
1, 155608, Note_off_c, 3, 72, 63
1, 155616, Note_on_c, 3, 72, 60
1, 155616, Note_on_c, 9, 54, 30
1, 155620, Note_off_c, 9, 54, 30
1, 155704, Note_off_c, 3, 72, 60
1, 155712, Note_on_c, 8, 53, 123
1, 155712, Note_on_c, 7, 60, 111
1, 155712, Note_on_c, 7, 65, 112
1, 155712, Note_on_c, 7, 69, 112
1, 155712, Note_on_c, 3, 72, 50
1, 155712, Note_on_c, 2, 79, 88
1, 155712, Note_on_c, 2, 91, 85
1, 155712, Note_on_c, 1, 29, 115
1, 155712, Note_on_c, 9, 42, 82
1, 155712, Note_on_c, 9, 54, 48
1, 155712, Note_on_c, 9, 69, 35
1, 155716, Note_off_c, 9, 69, 35
1, 155716, Note_off_c, 9, 54, 48
1, 155716, Note_off_c, 9, 42, 82
1, 155800, Note_off_c, 3, 72, 50
1, 155800, Note_off_c, 7, 69, 112
1, 155800, Note_off_c, 7, 65, 112
1, 155800, Note_off_c, 7, 60, 111
1, 155800, Note_off_c, 8, 53, 123
1, 155808, Note_on_c, 3, 72, 61
1, 155808, Note_on_c, 9, 54, 40
1, 155808, Note_on_c, 9, 69, 37
1, 155812, Note_off_c, 9, 69, 37
1, 155812, Note_off_c, 9, 54, 40
1, 155844, Note_off_c, 1, 29, 115
1, 155896, Note_off_c, 3, 72, 61
1, 155896, Note_off_c, 2, 91, 85
1, 155896, Note_off_c, 2, 79, 88
1, 155904, Note_on_c, 8, 55, 119
1, 155904, Note_on_c, 7, 62, 120
1, 155904, Note_on_c, 7, 67, 122
1, 155904, Note_on_c, 7, 71, 114
1, 155904, Note_on_c, 3, 72, 59
1, 155904, Note_on_c, 1, 31, 108
1, 155904, Note_on_c, 9, 36, 120
1, 155904, Note_on_c, 9, 42, 83
1, 155904, Note_on_c, 9, 54, 39
1, 155904, Note_on_c, 9, 69, 44
1, 155908, Note_off_c, 9, 69, 44
1, 155908, Note_off_c, 9, 54, 39
1, 155908, Note_off_c, 9, 42, 83
1, 155908, Note_off_c, 9, 36, 120
1, 155992, Note_off_c, 3, 72, 59
1, 156000, Note_on_c, 3, 72, 62
1, 156000, Note_on_c, 9, 54, 46
1, 156004, Note_off_c, 9, 54, 46
1, 156084, Note_off_c, 1, 31, 108
1, 156088, Note_off_c, 3, 72, 62
1, 156088, Note_off_c, 7, 71, 114
1, 156088, Note_off_c, 7, 67, 122
1, 156088, Note_off_c, 7, 62, 120
1, 156088, Note_off_c, 8, 55, 119
1, 156096, Note_on_c, 3, 76, 57
1, 156096, Note_on_c, 9, 42, 86
1, 156096, Note_on_c, 9, 54, 39
1, 156096, Note_on_c, 9, 69, 41
1, 156100, Note_off_c, 9, 69, 41
1, 156100, Note_off_c, 9, 54, 39
1, 156100, Note_off_c, 9, 42, 86
1, 156184, Note_off_c, 3, 76, 57
1, 156192, Note_on_c, 9, 54, 45
1, 156192, Note_on_c, 9, 69, 37
1, 156196, Note_off_c, 9, 69, 37
1, 156196, Note_off_c, 9, 54, 45
1, 156288, Note_on_c, 8, 55, 127
1, 156288, Note_on_c, 7, 62, 120
1, 156288, Note_on_c, 7, 67, 108
1, 156288, Note_on_c, 7, 71, 107
1, 156288, Note_on_c, 3, 76, 56
1, 156288, Note_on_c, 2, 86, 90
1, 156288, Note_on_c, 2, 98, 83
1, 156288, Note_on_c, 9, 39, 93
1, 156288, Note_on_c, 1, 31, 113
1, 156288, Note_on_c, 9, 36, 114
1, 156288, Note_on_c, 9, 38, 110
1, 156288, Note_on_c, 9, 42, 76
1, 156288, Note_on_c, 9, 54, 33
1, 156288, Note_on_c, 9, 69, 35
1, 156292, Note_off_c, 9, 69, 35
1, 156292, Note_off_c, 9, 54, 33
1, 156292, Note_off_c, 9, 42, 76
1, 156292, Note_off_c, 9, 38, 110
1, 156292, Note_off_c, 9, 36, 114
1, 156292, Note_off_c, 9, 39, 93
1, 156376, Note_off_c, 3, 76, 56
1, 156384, Note_on_c, 3, 74, 54
1, 156384, Note_on_c, 9, 54, 42
1, 156388, Note_off_c, 9, 54, 42
1, 156432, Pitch_bend_c, 1, 8192
1, 156440, Pitch_bend_c, 1, 8323
1, 156448, Pitch_bend_c, 1, 8456
1, 156456, Pitch_bend_c, 1, 8588
1, 156464, Pitch_bend_c, 1, 8720
1, 156472, Note_off_c, 3, 74, 54
1, 156472, Note_off_c, 7, 71, 107
1, 156472, Note_off_c, 7, 67, 108
1, 156472, Note_off_c, 7, 62, 120
1, 156472, Note_off_c, 8, 55, 127
1, 156472, Pitch_bend_c, 1, 8852
1, 156480, Note_on_c, 3, 69, 69
1, 156480, Pitch_bend_c, 1, 8984
1, 156480, Note_on_c, 9, 42, 90
1, 156480, Note_on_c, 9, 54, 48
1, 156480, Note_on_c, 9, 69, 37
1, 156484, Note_off_c, 9, 69, 37
1, 156484, Note_off_c, 9, 54, 48
1, 156484, Note_off_c, 9, 42, 90
1, 156488, Pitch_bend_c, 1, 9116
1, 156496, Pitch_bend_c, 1, 9248
1, 156504, Pitch_bend_c, 1, 9380
1, 156512, Pitch_bend_c, 1, 9512
1, 156520, Pitch_bend_c, 1, 9644
1, 156528, Pitch_bend_c, 1, 9776
1, 156536, Pitch_bend_c, 1, 9908
1, 156544, Pitch_bend_c, 1, 10040
1, 156552, Note_off_c, 2, 98, 83
1, 156552, Note_off_c, 2, 86, 90
1, 156552, Pitch_bend_c, 1, 10172
1, 156560, Pitch_bend_c, 1, 10305
1, 156564, Note_off_c, 1, 31, 113
1, 156568, Note_off_c, 3, 69, 69
1, 156568, Pitch_bend_c, 1, 10437
1, 156576, Note_on_c, 3, 67, 63
1, 156576, Pitch_bend_c, 1, 10569
1, 156576, Note_on_c, 9, 54, 49
1, 156576, Note_on_c, 9, 69, 43
1, 156580, Note_off_c, 9, 69, 43
1, 156580, Note_off_c, 9, 54, 49
1, 156584, Pitch_bend_c, 1, 10701
1, 156592, Pitch_bend_c, 1, 10833
1, 156600, Pitch_bend_c, 1, 10965
1, 156608, Pitch_bend_c, 1, 11097
1, 156616, Pitch_bend_c, 1, 11229
1, 156624, Pitch_bend_c, 1, 11361
1, 156632, Pitch_bend_c, 1, 11493
1, 156640, Pitch_bend_c, 1, 11625
1, 156648, Pitch_bend_c, 1, 11757
1, 156656, Pitch_bend_c, 1, 8192
1, 156664, Note_off_c, 3, 67, 63
1, 156672, Tempo, 504200
1, 156672, Note_on_c, 14, 60, 112
1, 156672, Note_on_c, 14, 72, 119
1, 156672, Note_on_c, 15, 60, 114
1, 156672, Note_on_c, 8, 48, 123
1, 156672, Note_on_c, 7, 60, 108
1, 156672, Note_on_c, 7, 64, 113
1, 156672, Note_on_c, 7, 67, 120
1, 156672, Note_on_c, 3, 72, 52
1, 156672, Note_on_c, 2, 72, 78
1, 156672, Note_on_c, 2, 84, 79
1, 156672, Note_on_c, 1, 36, 110
1, 156672, Note_on_c, 9, 36, 124
1, 156672, Note_on_c, 9, 42, 89
1, 156672, Note_on_c, 9, 54, 46
1, 156672, Note_on_c, 9, 69, 37
1, 156676, Note_off_c, 9, 69, 37
1, 156676, Note_off_c, 9, 54, 46
1, 156676, Note_off_c, 9, 42, 89
1, 156676, Note_off_c, 9, 36, 124
1, 156760, Note_off_c, 3, 72, 52
1, 156760, Pitch_bend_c, 1, 8192
1, 156768, Note_on_c, 3, 72, 66
1, 156768, Pitch_bend_c, 1, 8009
1, 156768, Note_on_c, 9, 54, 31
1, 156772, Note_off_c, 9, 54, 31
1, 156776, Pitch_bend_c, 1, 7827
1, 156784, Pitch_bend_c, 1, 7644
1, 156792, Pitch_bend_c, 1, 7461
1, 156800, Pitch_bend_c, 1, 7278
1, 156808, Pitch_bend_c, 1, 7096
1, 156816, Pitch_bend_c, 1, 6913
1, 156824, Pitch_bend_c, 1, 6730
1, 156832, Pitch_bend_c, 1, 6548
1, 156836, Note_off_c, 15, 60, 114
1, 156840, Pitch_bend_c, 1, 6365
1, 156848, Note_off_c, 14, 72, 119
1, 156848, Note_off_c, 14, 60, 112
1, 156848, Pitch_bend_c, 1, 6182
1, 156856, Note_off_c, 3, 72, 66
1, 156856, Note_off_c, 2, 84, 79
1, 156856, Note_off_c, 2, 72, 78
1, 156856, Note_off_c, 7, 67, 120
1, 156856, Note_off_c, 7, 64, 113
1, 156856, Note_off_c, 7, 60, 108
1, 156856, Note_off_c, 8, 48, 123
1, 156856, Pitch_bend_c, 1, 6000
1, 156864, Note_on_c, 14, 57, 113
1, 156864, Note_on_c, 14, 69, 125
1, 156864, Note_on_c, 15, 57, 124
1, 156864, Note_on_c, 3, 72, 56
1, 156864, Note_on_c, 2, 79, 79
1, 156864, Note_on_c, 2, 91, 95
1, 156864, Pitch_bend_c, 1, 5817
1, 156864, Note_on_c, 9, 42, 76
1, 156864, Note_on_c, 9, 54, 36
1, 156864, Note_on_c, 9, 69, 32
1, 156868, Note_off_c, 9, 69, 32
1, 156868, Note_off_c, 9, 54, 36
1, 156868, Note_off_c, 9, 42, 76
1, 156872, Pitch_bend_c, 1, 5634
1, 156880, Pitch_bend_c, 1, 5451
1, 156888, Pitch_bend_c, 1, 5269
1, 156896, Pitch_bend_c, 1, 5086
1, 156904, Pitch_bend_c, 1, 4903
1, 156912, Pitch_bend_c, 1, 4720
1, 156920, Pitch_bend_c, 1, 4538
1, 156928, Pitch_bend_c, 1, 4355
1, 156936, Pitch_bend_c, 1, 4172
1, 156944, Pitch_bend_c, 1, 3990
1, 156948, Note_off_c, 1, 36, 110
1, 156952, Note_off_c, 3, 72, 56
1, 156952, Pitch_bend_c, 1, 3807
1, 156960, Note_on_c, 3, 72, 66
1, 156960, Pitch_bend_c, 1, 3624
1, 156960, Note_on_c, 9, 54, 46
1, 156960, Note_on_c, 9, 69, 36
1, 156964, Note_off_c, 9, 69, 36
1, 156964, Note_off_c, 9, 54, 46
1, 156968, Pitch_bend_c, 1, 3441
1, 156976, Pitch_bend_c, 1, 3259
1, 156984, Pitch_bend_c, 1, 3076
1, 156992, Pitch_bend_c, 1, 8192
1, 157036, Note_off_c, 15, 57, 124
1, 157040, Note_off_c, 14, 69, 125
1, 157040, Note_off_c, 14, 57, 113
1, 157048, Note_off_c, 3, 72, 66
1, 157048, Note_off_c, 2, 91, 95
1, 157048, Note_off_c, 2, 79, 79
1, 157056, Note_on_c, 14, 60, 118
1, 157056, Note_on_c, 14, 72, 119
1, 157056, Note_on_c, 15, 57, 117
1, 157056, Note_on_c, 8, 52, 127
1, 157056, Note_on_c, 7, 60, 120
1, 157056, Note_on_c, 7, 64, 116
1, 157056, Note_on_c, 7, 67, 103
1, 157056, Note_on_c, 3, 72, 61
1, 157056, Note_on_c, 2, 76, 92
1, 157056, Note_on_c, 2, 88, 80
1, 157056, Note_on_c, 9, 39, 93
1, 157056, Note_on_c, 1, 28, 100
1, 157056, Note_on_c, 9, 36, 121
1, 157056, Note_on_c, 9, 38, 115
1, 157056, Note_on_c, 9, 42, 81
1, 157056, Note_on_c, 9, 54, 38
1, 157056, Note_on_c, 9, 69, 33
1, 157060, Note_off_c, 9, 69, 33
1, 157060, Note_off_c, 9, 54, 38
1, 157060, Note_off_c, 9, 42, 81
1, 157060, Note_off_c, 9, 38, 115
1, 157060, Note_off_c, 9, 36, 121
1, 157060, Note_off_c, 9, 39, 93
1, 157144, Note_off_c, 3, 72, 61
1, 157144, Note_off_c, 7, 67, 103
1, 157144, Note_off_c, 7, 64, 116
1, 157144, Note_off_c, 7, 60, 120
1, 157144, Note_off_c, 8, 52, 127
1, 157152, Note_on_c, 3, 72, 69
1, 157152, Note_on_c, 9, 54, 44
1, 157156, Note_off_c, 9, 54, 44
1, 157236, Note_off_c, 1, 28, 100
1, 157240, Note_off_c, 3, 72, 69
1, 157240, Note_off_c, 2, 88, 80
1, 157240, Note_off_c, 2, 76, 92
1, 157248, Note_on_c, 8, 53, 127
1, 157248, Note_on_c, 7, 60, 103
1, 157248, Note_on_c, 7, 65, 109
1, 157248, Note_on_c, 7, 69, 107
1, 157248, Note_on_c, 3, 72, 62
1, 157248, Note_on_c, 2, 77, 97
1, 157248, Note_on_c, 2, 89, 88
1, 157248, Note_on_c, 1, 29, 107
1, 157248, Note_on_c, 9, 42, 82
1, 157248, Note_on_c, 9, 54, 37
1, 157248, Note_on_c, 9, 69, 38
1, 157252, Note_off_c, 9, 69, 38
1, 157252, Note_off_c, 9, 54, 37
1, 157252, Note_off_c, 9, 42, 82
1, 157336, Note_off_c, 3, 72, 62
1, 157336, Note_off_c, 7, 69, 107
1, 157336, Note_off_c, 7, 65, 109
1, 157336, Note_off_c, 7, 60, 103
1, 157336, Note_off_c, 8, 53, 127
1, 157344, Note_on_c, 3, 72, 61
1, 157344, Note_on_c, 9, 54, 39
1, 157344, Note_on_c, 9, 69, 32
1, 157348, Note_off_c, 9, 69, 32
1, 157348, Note_off_c, 9, 54, 39
1, 157396, Note_off_c, 15, 57, 117
1, 157424, Note_off_c, 14, 72, 119
1, 157424, Note_off_c, 14, 60, 118
1, 157428, Note_off_c, 1, 29, 107
1, 157432, Note_off_c, 3, 72, 61
1, 157432, Note_off_c, 2, 89, 88
1, 157432, Note_off_c, 2, 77, 97
1, 157440, Note_on_c, 14, 60, 112
1, 157440, Note_on_c, 14, 72, 127
1, 157440, Note_on_c, 15, 60, 110
1, 157440, Note_on_c, 3, 72, 50
1, 157440, Note_on_c, 2, 84, 82
1, 157440, Note_on_c, 2, 96, 80
1, 157440, Note_on_c, 9, 36, 120
1, 157440, Note_on_c, 9, 42, 83
1, 157440, Note_on_c, 9, 54, 31
1, 157440, Note_on_c, 9, 69, 37
1, 157444, Note_off_c, 9, 69, 37
1, 157444, Note_off_c, 9, 54, 31
1, 157444, Note_off_c, 9, 42, 83
1, 157444, Note_off_c, 9, 36, 120
1, 157528, Note_off_c, 3, 72, 50
1, 157536, Note_on_c, 3, 72, 54
1, 157536, Note_on_c, 9, 54, 43
1, 157540, Note_off_c, 9, 54, 43
1, 157608, Note_off_c, 15, 60, 110
1, 157616, Note_off_c, 14, 72, 127
1, 157616, Note_off_c, 14, 60, 112
1, 157624, Note_off_c, 3, 72, 54
1, 157624, Note_off_c, 2, 96, 80
1, 157624, Note_off_c, 2, 84, 82
1, 157632, Note_on_c, 14, 57, 123
1, 157632, Note_on_c, 14, 69, 115
1, 157632, Note_on_c, 15, 57, 126
1, 157632, Note_on_c, 8, 52, 123
1, 157632, Note_on_c, 7, 60, 107
1, 157632, Note_on_c, 7, 64, 106
1, 157632, Note_on_c, 7, 67, 105
1, 157632, Note_on_c, 3, 72, 54
1, 157632, Note_on_c, 2, 89, 84
1, 157632, Note_on_c, 2, 101, 79
1, 157632, Note_on_c, 1, 28, 111
1, 157632, Note_on_c, 9, 42, 86
1, 157632, Note_on_c, 9, 54, 32
1, 157632, Note_on_c, 9, 69, 46
1, 157636, Note_off_c, 9, 69, 46
1, 157636, Note_off_c, 9, 54, 32
1, 157636, Note_off_c, 9, 42, 86
1, 157720, Note_off_c, 3, 72, 54
1, 157720, Note_off_c, 7, 67, 105
1, 157720, Note_off_c, 7, 64, 106
1, 157720, Note_off_c, 7, 60, 107
1, 157720, Note_off_c, 8, 52, 123
1, 157728, Note_on_c, 3, 72, 53
1, 157728, Note_on_c, 9, 54, 44
1, 157728, Note_on_c, 9, 69, 47
1, 157732, Note_off_c, 9, 69, 47
1, 157732, Note_off_c, 9, 54, 44
1, 157800, Note_off_c, 15, 57, 126
1, 157808, Note_off_c, 14, 69, 115
1, 157808, Note_off_c, 14, 57, 123
1, 157812, Note_off_c, 1, 28, 111
1, 157816, Note_off_c, 3, 72, 53
1, 157816, Note_off_c, 2, 101, 79
1, 157816, Note_off_c, 2, 89, 84
1, 157824, Note_on_c, 14, 60, 115
1, 157824, Note_on_c, 14, 72, 127
1, 157824, Note_on_c, 15, 57, 127
1, 157824, Note_on_c, 3, 72, 64
1, 157824, Note_on_c, 9, 39, 91
1, 157824, Note_on_c, 9, 36, 114
1, 157824, Note_on_c, 9, 38, 110
1, 157824, Note_on_c, 9, 42, 76
1, 157824, Note_on_c, 9, 54, 39
1, 157824, Note_on_c, 9, 69, 36
1, 157828, Note_off_c, 9, 69, 36
1, 157828, Note_off_c, 9, 54, 39
1, 157828, Note_off_c, 9, 42, 76
1, 157828, Note_off_c, 9, 38, 110
1, 157828, Note_off_c, 9, 36, 114
1, 157828, Note_off_c, 9, 39, 91
1, 157912, Note_off_c, 3, 72, 64
1, 157920, Note_on_c, 3, 72, 55
1, 157920, Note_on_c, 9, 54, 47
1, 157924, Note_off_c, 9, 54, 47
1, 158008, Note_off_c, 3, 72, 55
1, 158016, Note_on_c, 8, 53, 127
1, 158016, Note_on_c, 7, 60, 110
1, 158016, Note_on_c, 7, 65, 121
1, 158016, Note_on_c, 7, 69, 120
1, 158016, Note_on_c, 3, 72, 66
1, 158016, Note_on_c, 2, 88, 88
1, 158016, Note_on_c, 2, 100, 96
1, 158016, Note_on_c, 1, 29, 103
1, 158016, Note_on_c, 9, 42, 90
1, 158016, Note_on_c, 9, 54, 33
1, 158016, Note_on_c, 9, 69, 49
1, 158020, Note_off_c, 9, 69, 49
1, 158020, Note_off_c, 9, 54, 33
1, 158020, Note_off_c, 9, 42, 90
1, 158104, Note_off_c, 3, 72, 66
1, 158104, Note_off_c, 7, 69, 120
1, 158104, Note_off_c, 7, 65, 121
1, 158104, Note_off_c, 7, 60, 110
1, 158104, Note_off_c, 8, 53, 127
1, 158112, Note_on_c, 3, 72, 50
1, 158112, Note_on_c, 9, 54, 37
1, 158112, Note_on_c, 9, 69, 34
1, 158116, Note_off_c, 9, 69, 34
1, 158116, Note_off_c, 9, 54, 37
1, 158184, Note_off_c, 15, 57, 127
1, 158192, Note_off_c, 14, 72, 127
1, 158192, Note_off_c, 14, 60, 115
1, 158196, Note_off_c, 1, 29, 103
1, 158200, Note_off_c, 3, 72, 50
1, 158200, Note_off_c, 2, 100, 96
1, 158200, Note_off_c, 2, 88, 88
1, 158208, Note_on_c, 14, 60, 121
1, 158208, Note_on_c, 14, 72, 126
1, 158208, Note_on_c, 15, 60, 124
1, 158208, Note_on_c, 3, 72, 54
1, 158208, Note_on_c, 9, 36, 124
1, 158208, Note_on_c, 9, 42, 89
1, 158208, Note_on_c, 9, 54, 39
1, 158208, Note_on_c, 9, 69, 38
1, 158212, Note_off_c, 9, 69, 38
1, 158212, Note_off_c, 9, 54, 39
1, 158212, Note_off_c, 9, 42, 89
1, 158212, Note_off_c, 9, 36, 124
1, 158296, Note_off_c, 3, 72, 54
1, 158304, Note_on_c, 3, 72, 64
1, 158304, Note_on_c, 9, 54, 34
1, 158308, Note_off_c, 9, 54, 34
1, 158392, Note_off_c, 3, 72, 64
1, 158400, Note_on_c, 8, 52, 127
1, 158400, Note_on_c, 7, 60, 120
1, 158400, Note_on_c, 7, 64, 119
1, 158400, Note_on_c, 7, 67, 110
1, 158400, Note_on_c, 3, 72, 50
1, 158400, Note_on_c, 2, 84, 95
1, 158400, Note_on_c, 2, 96, 97
1, 158400, Note_on_c, 1, 28, 116
1, 158400, Note_on_c, 9, 42, 76
1, 158400, Note_on_c, 9, 54, 34
1, 158400, Note_on_c, 9, 69, 41
1, 158404, Note_off_c, 9, 69, 41
1, 158404, Note_off_c, 9, 54, 34
1, 158404, Note_off_c, 9, 42, 76
1, 158488, Note_off_c, 3, 72, 50
1, 158488, Note_off_c, 7, 67, 110
1, 158488, Note_off_c, 7, 64, 119
1, 158488, Note_off_c, 7, 60, 120
1, 158488, Note_off_c, 8, 52, 127
1, 158496, Note_on_c, 3, 72, 64
1, 158496, Note_on_c, 9, 54, 47
1, 158496, Note_on_c, 9, 69, 47
1, 158500, Note_off_c, 9, 69, 47
1, 158500, Note_off_c, 9, 54, 47
1, 158548, Note_off_c, 15, 60, 124
1, 158576, Note_off_c, 14, 72, 126
1, 158576, Note_off_c, 14, 60, 121
1, 158580, Note_off_c, 1, 28, 116
1, 158584, Note_off_c, 3, 72, 64
1, 158584, Note_off_c, 2, 96, 97
1, 158584, Note_off_c, 2, 84, 95
1, 158592, Note_on_c, 14, 60, 113
1, 158592, Note_on_c, 14, 72, 119
1, 158592, Note_on_c, 15, 60, 121
1, 158592, Note_on_c, 3, 72, 58
1, 158592, Note_on_c, 9, 39, 95
1, 158592, Note_on_c, 9, 36, 121
1, 158592, Note_on_c, 9, 38, 115
1, 158592, Note_on_c, 9, 42, 81
1, 158592, Note_on_c, 9, 54, 35
1, 158592, Note_on_c, 9, 69, 36
1, 158596, Note_off_c, 9, 69, 36
1, 158596, Note_off_c, 9, 54, 35
1, 158596, Note_off_c, 9, 42, 81
1, 158596, Note_off_c, 9, 38, 115
1, 158596, Note_off_c, 9, 36, 121
1, 158596, Note_off_c, 9, 39, 95
1, 158680, Note_off_c, 3, 72, 58
1, 158688, Note_on_c, 3, 72, 65
1, 158688, Note_on_c, 9, 54, 40
1, 158692, Note_off_c, 9, 54, 40
1, 158776, Note_off_c, 3, 72, 65
1, 158784, Note_on_c, 8, 53, 115
1, 158784, Note_on_c, 7, 60, 106
1, 158784, Note_on_c, 7, 65, 117
1, 158784, Note_on_c, 7, 69, 111
1, 158784, Note_on_c, 3, 72, 50
1, 158784, Note_on_c, 2, 79, 95
1, 158784, Note_on_c, 2, 91, 83
1, 158784, Note_on_c, 1, 29, 119
1, 158784, Note_on_c, 9, 42, 82
1, 158784, Note_on_c, 9, 54, 45
1, 158784, Note_on_c, 9, 69, 47
1, 158788, Note_off_c, 9, 69, 47
1, 158788, Note_off_c, 9, 54, 45
1, 158788, Note_off_c, 9, 42, 82
1, 158872, Note_off_c, 3, 72, 50
1, 158872, Note_off_c, 7, 69, 111
1, 158872, Note_off_c, 7, 65, 117
1, 158872, Note_off_c, 7, 60, 106
1, 158872, Note_off_c, 8, 53, 115
1, 158880, Note_on_c, 3, 72, 53
1, 158880, Note_on_c, 9, 54, 37
1, 158880, Note_on_c, 9, 69, 49
1, 158884, Note_off_c, 9, 69, 49
1, 158884, Note_off_c, 9, 54, 37
1, 158916, Note_off_c, 1, 29, 119
1, 158944, Note_off_c, 15, 60, 121
1, 158960, Note_off_c, 14, 72, 119
1, 158960, Note_off_c, 14, 60, 113
1, 158968, Note_off_c, 3, 72, 53
1, 158968, Note_off_c, 2, 91, 83
1, 158968, Note_off_c, 2, 79, 95
1, 158976, Note_on_c, 14, 64, 113
1, 158976, Note_on_c, 14, 76, 112
1, 158976, Note_on_c, 15, 64, 127
1, 158976, Note_on_c, 8, 55, 127
1, 158976, Note_on_c, 7, 62, 109
1, 158976, Note_on_c, 7, 67, 112
1, 158976, Note_on_c, 7, 71, 108
1, 158976, Note_on_c, 3, 72, 60
1, 158976, Note_on_c, 1, 31, 102
1, 158976, Note_on_c, 9, 36, 120
1, 158976, Note_on_c, 9, 42, 83
1, 158976, Note_on_c, 9, 54, 44
1, 158976, Note_on_c, 9, 69, 34
1, 158980, Note_off_c, 9, 69, 34
1, 158980, Note_off_c, 9, 54, 44
1, 158980, Note_off_c, 9, 42, 83
1, 158980, Note_off_c, 9, 36, 120
1, 159064, Note_off_c, 3, 72, 60
1, 159072, Note_on_c, 3, 72, 60
1, 159072, Note_on_c, 9, 54, 43
1, 159076, Note_off_c, 9, 54, 43
1, 159156, Note_off_c, 1, 31, 102
1, 159160, Note_off_c, 3, 72, 60
1, 159160, Note_off_c, 7, 71, 108
1, 159160, Note_off_c, 7, 67, 112
1, 159160, Note_off_c, 7, 62, 109
1, 159160, Note_off_c, 8, 55, 127
1, 159168, Note_on_c, 3, 67, 57
1, 159168, Note_on_c, 9, 42, 86
1, 159168, Note_on_c, 9, 54, 39
1, 159168, Note_on_c, 9, 69, 30
1, 159172, Note_off_c, 9, 69, 30
1, 159172, Note_off_c, 9, 54, 39
1, 159172, Note_off_c, 9, 42, 86
1, 159256, Note_off_c, 3, 67, 57
1, 159264, Note_on_c, 9, 54, 49
1, 159264, Note_on_c, 9, 69, 49
1, 159268, Note_off_c, 9, 69, 49
1, 159268, Note_off_c, 9, 54, 49
1, 159344, Note_off_c, 15, 64, 127
1, 159344, Note_off_c, 14, 76, 112
1, 159344, Note_off_c, 14, 64, 113
1, 159360, Note_on_c, 14, 62, 123
1, 159360, Note_on_c, 14, 74, 120
1, 159360, Note_on_c, 15, 62, 126
1, 159360, Note_on_c, 8, 55, 124
1, 159360, Note_on_c, 7, 62, 108
1, 159360, Note_on_c, 7, 67, 110
1, 159360, Note_on_c, 7, 71, 121
1, 159360, Note_on_c, 3, 67, 54
1, 159360, Note_on_c, 2, 86, 97
1, 159360, Note_on_c, 2, 98, 91
1, 159360, Note_on_c, 9, 39, 85
1, 159360, Note_on_c, 1, 31, 111
1, 159360, Note_on_c, 9, 36, 114
1, 159360, Note_on_c, 9, 38, 110
1, 159360, Note_on_c, 9, 42, 76
1, 159360, Note_on_c, 9, 54, 41
1, 159360, Note_on_c, 9, 69, 30
1, 159364, Note_off_c, 9, 69, 30
1, 159364, Note_off_c, 9, 54, 41
1, 159364, Note_off_c, 9, 42, 76
1, 159364, Note_off_c, 9, 38, 110
1, 159364, Note_off_c, 9, 36, 114
1, 159364, Note_off_c, 9, 39, 85
1, 159448, Note_off_c, 3, 67, 54
1, 159456, Note_on_c, 3, 69, 53
1, 159456, Note_on_c, 9, 54, 30
1, 159460, Note_off_c, 9, 54, 30
1, 159504, Pitch_bend_c, 1, 8192
1, 159512, Pitch_bend_c, 1, 8323
1, 159520, Pitch_bend_c, 1, 8456
1, 159528, Pitch_bend_c, 1, 8588
1, 159532, Note_off_c, 15, 62, 126
1, 159536, Note_off_c, 14, 74, 120
1, 159536, Note_off_c, 14, 62, 123
1, 159536, Pitch_bend_c, 1, 8720
1, 159544, Note_off_c, 3, 69, 53
1, 159544, Note_off_c, 7, 71, 121
1, 159544, Note_off_c, 7, 67, 110
1, 159544, Note_off_c, 7, 62, 108
1, 159544, Note_off_c, 8, 55, 124
1, 159544, Pitch_bend_c, 1, 8852
1, 159552, Note_on_c, 14, 60, 127
1, 159552, Note_on_c, 14, 72, 124
1, 159552, Note_on_c, 15, 60, 126
1, 159552, Note_on_c, 3, 72, 50
1, 159552, Pitch_bend_c, 1, 8984
1, 159552, Note_on_c, 9, 42, 90
1, 159552, Note_on_c, 9, 54, 42
1, 159552, Note_on_c, 9, 69, 49
1, 159556, Note_off_c, 9, 69, 49
1, 159556, Note_off_c, 9, 54, 42
1, 159556, Note_off_c, 9, 42, 90
1, 159560, Pitch_bend_c, 1, 9116
1, 159568, Pitch_bend_c, 1, 9248
1, 159576, Pitch_bend_c, 1, 9380
1, 159584, Pitch_bend_c, 1, 9512
1, 159592, Pitch_bend_c, 1, 9644
1, 159600, Pitch_bend_c, 1, 9776
1, 159608, Pitch_bend_c, 1, 9908
1, 159616, Pitch_bend_c, 1, 10040
1, 159624, Note_off_c, 2, 98, 91
1, 159624, Note_off_c, 2, 86, 97
1, 159624, Pitch_bend_c, 1, 10172
1, 159632, Pitch_bend_c, 1, 10305
1, 159636, Note_off_c, 1, 31, 111
1, 159640, Note_off_c, 3, 72, 50
1, 159640, Pitch_bend_c, 1, 10437
1, 159648, Note_on_c, 3, 74, 56
1, 159648, Pitch_bend_c, 1, 10569
1, 159648, Note_on_c, 9, 54, 44
1, 159648, Note_on_c, 9, 69, 49
1, 159652, Note_off_c, 9, 69, 49
1, 159652, Note_off_c, 9, 54, 44
1, 159656, Pitch_bend_c, 1, 10701
1, 159664, Pitch_bend_c, 1, 10833
1, 159672, Pitch_bend_c, 1, 10965
1, 159680, Pitch_bend_c, 1, 11097
1, 159688, Pitch_bend_c, 1, 11229
1, 159696, Pitch_bend_c, 1, 11361
1, 159704, Pitch_bend_c, 1, 11493
1, 159712, Pitch_bend_c, 1, 11625
1, 159720, Pitch_bend_c, 1, 11757
1, 159728, Pitch_bend_c, 1, 8192
1, 159736, Note_off_c, 3, 74, 56
1, 159744, Tempo, 500000
1, 159744, Note_on_c, 8, 48, 119
1, 159744, Note_on_c, 7, 60, 114
1, 159744, Note_on_c, 7, 64, 103
1, 159744, Note_on_c, 7, 67, 116
1, 159744, Note_on_c, 3, 72, 54
1, 159744, Note_on_c, 2, 72, 90
1, 159744, Note_on_c, 2, 84, 95
1, 159744, Note_on_c, 1, 36, 111
1, 159744, Note_on_c, 9, 36, 124
1, 159744, Note_on_c, 9, 42, 89
1, 159744, Note_on_c, 9, 54, 39
1, 159744, Note_on_c, 9, 69, 42
1, 159748, Note_off_c, 9, 69, 42
1, 159748, Note_off_c, 9, 54, 39
1, 159748, Note_off_c, 9, 42, 89
1, 159748, Note_off_c, 9, 36, 124
1, 159832, Note_off_c, 3, 72, 54
1, 159832, Pitch_bend_c, 1, 8192
1, 159840, Note_on_c, 3, 72, 56
1, 159840, Pitch_bend_c, 1, 8009
1, 159840, Note_on_c, 9, 54, 41
1, 159844, Note_off_c, 9, 54, 41
1, 159848, Pitch_bend_c, 1, 7827
1, 159856, Pitch_bend_c, 1, 7644
1, 159864, Pitch_bend_c, 1, 7461
1, 159872, Pitch_bend_c, 1, 7278
1, 159880, Pitch_bend_c, 1, 7096
1, 159888, Pitch_bend_c, 1, 6913
1, 159896, Pitch_bend_c, 1, 6730
1, 159904, Pitch_bend_c, 1, 6548
1, 159912, Pitch_bend_c, 1, 6365
1, 159920, Pitch_bend_c, 1, 6182
1, 159928, Note_off_c, 3, 72, 56
1, 159928, Note_off_c, 2, 84, 95
1, 159928, Note_off_c, 2, 72, 90
1, 159928, Note_off_c, 7, 67, 116
1, 159928, Note_off_c, 7, 64, 103
1, 159928, Note_off_c, 7, 60, 114
1, 159928, Note_off_c, 8, 48, 119
1, 159928, Pitch_bend_c, 1, 6000
1, 159936, Note_on_c, 3, 72, 57
1, 159936, Note_on_c, 2, 79, 78
1, 159936, Note_on_c, 2, 91, 96
1, 159936, Pitch_bend_c, 1, 5817
1, 159936, Note_on_c, 9, 42, 76
1, 159936, Note_on_c, 9, 54, 38
1, 159936, Note_on_c, 9, 69, 40
1, 159940, Note_off_c, 9, 69, 40
1, 159940, Note_off_c, 9, 54, 38
1, 159940, Note_off_c, 9, 42, 76
1, 159944, Pitch_bend_c, 1, 5634
1, 159952, Pitch_bend_c, 1, 5451
1, 159960, Pitch_bend_c, 1, 5269
1, 159968, Pitch_bend_c, 1, 5086
1, 159976, Pitch_bend_c, 1, 4903
1, 159984, Pitch_bend_c, 1, 4720
1, 159992, Pitch_bend_c, 1, 4538
1, 160000, Pitch_bend_c, 1, 4355
1, 160008, Pitch_bend_c, 1, 4172
1, 160016, Pitch_bend_c, 1, 3990
1, 160020, Note_off_c, 1, 36, 111
1, 160024, Note_off_c, 3, 72, 57
1, 160024, Pitch_bend_c, 1, 3807
1, 160032, Note_on_c, 3, 72, 54
1, 160032, Pitch_bend_c, 1, 3624
1, 160032, Note_on_c, 9, 54, 30
1, 160032, Note_on_c, 9, 69, 47
1, 160036, Note_off_c, 9, 69, 47
1, 160036, Note_off_c, 9, 54, 30
1, 160040, Pitch_bend_c, 1, 3441
1, 160048, Pitch_bend_c, 1, 3259
1, 160056, Pitch_bend_c, 1, 3076
1, 160064, Pitch_bend_c, 1, 8192
1, 160120, Note_off_c, 3, 72, 54
1, 160120, Note_off_c, 2, 91, 96
1, 160120, Note_off_c, 2, 79, 78
1, 160128, Note_on_c, 8, 52, 122
1, 160128, Note_on_c, 7, 60, 115
1, 160128, Note_on_c, 7, 64, 104
1, 160128, Note_on_c, 7, 67, 105
1, 160128, Note_on_c, 3, 72, 56
1, 160128, Note_on_c, 2, 76, 86
1, 160128, Note_on_c, 2, 88, 80
1, 160128, Note_on_c, 9, 39, 103
1, 160128, Note_on_c, 1, 28, 119
1, 160128, Note_on_c, 9, 36, 121
1, 160128, Note_on_c, 9, 38, 115
1, 160128, Note_on_c, 9, 42, 81
1, 160128, Note_on_c, 9, 54, 49
1, 160128, Note_on_c, 9, 69, 48
1, 160132, Note_off_c, 9, 69, 48
1, 160132, Note_off_c, 9, 54, 49
1, 160132, Note_off_c, 9, 42, 81
1, 160132, Note_off_c, 9, 38, 115
1, 160132, Note_off_c, 9, 36, 121
1, 160132, Note_off_c, 9, 39, 103
1, 160216, Note_off_c, 3, 72, 56
1, 160216, Note_off_c, 7, 67, 105
1, 160216, Note_off_c, 7, 64, 104
1, 160216, Note_off_c, 7, 60, 115
1, 160216, Note_off_c, 8, 52, 122
1, 160224, Note_on_c, 3, 72, 63
1, 160224, Note_on_c, 9, 54, 30
1, 160228, Note_off_c, 9, 54, 30
1, 160308, Note_off_c, 1, 28, 119
1, 160312, Note_off_c, 3, 72, 63
1, 160312, Note_off_c, 2, 88, 80
1, 160312, Note_off_c, 2, 76, 86
1, 160320, Note_on_c, 8, 53, 127
1, 160320, Note_on_c, 7, 60, 118
1, 160320, Note_on_c, 7, 65, 108
1, 160320, Note_on_c, 7, 69, 104
1, 160320, Note_on_c, 3, 72, 69
1, 160320, Note_on_c, 2, 77, 95
1, 160320, Note_on_c, 2, 89, 92
1, 160320, Note_on_c, 1, 29, 112
1, 160320, Note_on_c, 9, 42, 82
1, 160320, Note_on_c, 9, 54, 47
1, 160320, Note_on_c, 9, 69, 46
1, 160324, Note_off_c, 9, 69, 46
1, 160324, Note_off_c, 9, 54, 47
1, 160324, Note_off_c, 9, 42, 82
1, 160408, Note_off_c, 3, 72, 69
1, 160408, Note_off_c, 7, 69, 104
1, 160408, Note_off_c, 7, 65, 108
1, 160408, Note_off_c, 7, 60, 118
1, 160408, Note_off_c, 8, 53, 127
1, 160416, Note_on_c, 3, 72, 51
1, 160416, Note_on_c, 9, 54, 39
1, 160416, Note_on_c, 9, 69, 40
1, 160420, Note_off_c, 9, 69, 40
1, 160420, Note_off_c, 9, 54, 39
1, 160500, Note_off_c, 1, 29, 112
1, 160504, Note_off_c, 3, 72, 51
1, 160504, Note_off_c, 2, 89, 92
1, 160504, Note_off_c, 2, 77, 95
1, 160512, Note_on_c, 3, 72, 55
1, 160512, Note_on_c, 2, 84, 90
1, 160512, Note_on_c, 2, 96, 81
1, 160512, Note_on_c, 9, 36, 120
1, 160512, Note_on_c, 9, 42, 83
1, 160512, Note_on_c, 9, 54, 49
1, 160512, Note_on_c, 9, 69, 37
1, 160516, Note_off_c, 9, 69, 37
1, 160516, Note_off_c, 9, 54, 49
1, 160516, Note_off_c, 9, 42, 83
1, 160516, Note_off_c, 9, 36, 120
1, 160600, Note_off_c, 3, 72, 55
1, 160608, Note_on_c, 3, 72, 51
1, 160608, Note_on_c, 9, 54, 30
1, 160612, Note_off_c, 9, 54, 30
1, 160696, Note_off_c, 3, 72, 51
1, 160696, Note_off_c, 2, 96, 81
1, 160696, Note_off_c, 2, 84, 90
1, 160704, Note_on_c, 8, 52, 126
1, 160704, Note_on_c, 7, 60, 120
1, 160704, Note_on_c, 7, 64, 119
1, 160704, Note_on_c, 7, 67, 104
1, 160704, Note_on_c, 3, 72, 53
1, 160704, Note_on_c, 2, 89, 94
1, 160704, Note_on_c, 2, 101, 79
1, 160704, Note_on_c, 1, 28, 114
1, 160704, Note_on_c, 9, 42, 86
1, 160704, Note_on_c, 9, 54, 40
1, 160704, Note_on_c, 9, 69, 49
1, 160708, Note_off_c, 9, 69, 49
1, 160708, Note_off_c, 9, 54, 40
1, 160708, Note_off_c, 9, 42, 86
1, 160784, Note_off_c, 14, 72, 124
1, 160784, Note_off_c, 14, 60, 127
1, 160788, Note_off_c, 15, 60, 126
1, 160792, Note_off_c, 3, 72, 53
1, 160792, Note_off_c, 7, 67, 104
1, 160792, Note_off_c, 7, 64, 119
1, 160792, Note_off_c, 7, 60, 120
1, 160792, Note_off_c, 8, 52, 126
1, 160800, Note_on_c, 3, 72, 62
1, 160800, Note_on_c, 9, 54, 39
1, 160800, Note_on_c, 9, 69, 31
1, 160804, Note_off_c, 9, 69, 31
1, 160804, Note_off_c, 9, 54, 39
1, 160884, Note_off_c, 1, 28, 114
1, 160888, Note_off_c, 3, 72, 62
1, 160888, Note_off_c, 2, 101, 79
1, 160888, Note_off_c, 2, 89, 94
1, 160896, Note_on_c, 3, 72, 55
1, 160896, Note_on_c, 9, 39, 91
1, 160896, Note_on_c, 9, 36, 114
1, 160896, Note_on_c, 9, 38, 110
1, 160896, Note_on_c, 9, 42, 76
1, 160896, Note_on_c, 9, 54, 43
1, 160896, Note_on_c, 9, 69, 46
1, 160900, Note_off_c, 9, 69, 46
1, 160900, Note_off_c, 9, 54, 43
1, 160900, Note_off_c, 9, 42, 76
1, 160900, Note_off_c, 9, 38, 110
1, 160900, Note_off_c, 9, 36, 114
1, 160900, Note_off_c, 9, 39, 91
1, 160984, Note_off_c, 3, 72, 55
1, 160992, Note_on_c, 3, 72, 60
1, 160992, Note_on_c, 9, 54, 36
1, 160996, Note_off_c, 9, 54, 36
1, 161080, Note_off_c, 3, 72, 60
1, 161088, Note_on_c, 8, 53, 115
1, 161088, Note_on_c, 7, 60, 104
1, 161088, Note_on_c, 7, 65, 117
1, 161088, Note_on_c, 7, 69, 122
1, 161088, Note_on_c, 3, 72, 55
1, 161088, Note_on_c, 2, 88, 78
1, 161088, Note_on_c, 2, 100, 83
1, 161088, Note_on_c, 1, 29, 100
1, 161088, Note_on_c, 9, 42, 90
1, 161088, Note_on_c, 9, 54, 36
1, 161088, Note_on_c, 9, 69, 44
1, 161092, Note_off_c, 9, 69, 44
1, 161092, Note_off_c, 9, 54, 36
1, 161092, Note_off_c, 9, 42, 90
1, 161176, Note_off_c, 3, 72, 55
1, 161176, Note_off_c, 7, 69, 122
1, 161176, Note_off_c, 7, 65, 117
1, 161176, Note_off_c, 7, 60, 104
1, 161176, Note_off_c, 8, 53, 115
1, 161184, Note_on_c, 3, 72, 55
1, 161184, Note_on_c, 9, 54, 44
1, 161184, Note_on_c, 9, 69, 35
1, 161188, Note_off_c, 9, 69, 35
1, 161188, Note_off_c, 9, 54, 44
1, 161268, Note_off_c, 1, 29, 100
1, 161272, Note_off_c, 3, 72, 55
1, 161272, Note_off_c, 2, 100, 83
1, 161272, Note_off_c, 2, 88, 78
1, 161280, Note_on_c, 3, 72, 60
1, 161280, Note_on_c, 9, 36, 124
1, 161280, Note_on_c, 9, 42, 89
1, 161280, Note_on_c, 9, 54, 39
1, 161280, Note_on_c, 9, 69, 41
1, 161284, Note_off_c, 9, 69, 41
1, 161284, Note_off_c, 9, 54, 39
1, 161284, Note_off_c, 9, 42, 89
1, 161284, Note_off_c, 9, 36, 124
1, 161368, Note_off_c, 3, 72, 60
1, 161376, Note_on_c, 3, 72, 67
1, 161376, Note_on_c, 9, 54, 48
1, 161380, Note_off_c, 9, 54, 48
1, 161464, Note_off_c, 3, 72, 67
1, 161472, Note_on_c, 8, 52, 127
1, 161472, Note_on_c, 7, 60, 112
1, 161472, Note_on_c, 7, 64, 105
1, 161472, Note_on_c, 7, 67, 111
1, 161472, Note_on_c, 3, 72, 57
1, 161472, Note_on_c, 2, 84, 87
1, 161472, Note_on_c, 2, 96, 86
1, 161472, Note_on_c, 1, 28, 100
1, 161472, Note_on_c, 9, 42, 76
1, 161472, Note_on_c, 9, 54, 33
1, 161472, Note_on_c, 9, 69, 32
1, 161476, Note_off_c, 9, 69, 32
1, 161476, Note_off_c, 9, 54, 33
1, 161476, Note_off_c, 9, 42, 76
1, 161560, Note_off_c, 3, 72, 57
1, 161560, Note_off_c, 7, 67, 111
1, 161560, Note_off_c, 7, 64, 105
1, 161560, Note_off_c, 7, 60, 112
1, 161560, Note_off_c, 8, 52, 127
1, 161568, Note_on_c, 3, 72, 67
1, 161568, Note_on_c, 9, 54, 30
1, 161568, Note_on_c, 9, 69, 40
1, 161572, Note_off_c, 9, 69, 40
1, 161572, Note_off_c, 9, 54, 30
1, 161652, Note_off_c, 1, 28, 100
1, 161656, Note_off_c, 3, 72, 67
1, 161656, Note_off_c, 2, 96, 86
1, 161656, Note_off_c, 2, 84, 87
1, 161664, Note_on_c, 3, 72, 55
1, 161664, Note_on_c, 9, 39, 104
1, 161664, Note_on_c, 9, 36, 121
1, 161664, Note_on_c, 9, 38, 115
1, 161664, Note_on_c, 9, 42, 81
1, 161664, Note_on_c, 9, 54, 48
1, 161664, Note_on_c, 9, 69, 36
1, 161668, Note_off_c, 9, 69, 36
1, 161668, Note_off_c, 9, 54, 48
1, 161668, Note_off_c, 9, 42, 81
1, 161668, Note_off_c, 9, 38, 115
1, 161668, Note_off_c, 9, 36, 121
1, 161668, Note_off_c, 9, 39, 104
1, 161752, Note_off_c, 3, 72, 55
1, 161760, Note_on_c, 3, 72, 60
1, 161760, Note_on_c, 9, 54, 43
1, 161764, Note_off_c, 9, 54, 43
1, 161848, Note_off_c, 3, 72, 60
1, 161856, Note_on_c, 8, 53, 119
1, 161856, Note_on_c, 7, 60, 120
1, 161856, Note_on_c, 7, 65, 106
1, 161856, Note_on_c, 7, 69, 116
1, 161856, Note_on_c, 3, 72, 51
1, 161856, Note_on_c, 2, 79, 90
1, 161856, Note_on_c, 2, 91, 89
1, 161856, Note_on_c, 1, 29, 115
1, 161856, Note_on_c, 9, 42, 82
1, 161856, Note_on_c, 9, 54, 47
1, 161856, Note_on_c, 9, 69, 30
1, 161860, Note_off_c, 9, 69, 30
1, 161860, Note_off_c, 9, 54, 47
1, 161860, Note_off_c, 9, 42, 82
1, 161944, Note_off_c, 3, 72, 51
1, 161944, Note_off_c, 7, 69, 116
1, 161944, Note_off_c, 7, 65, 106
1, 161944, Note_off_c, 7, 60, 120
1, 161944, Note_off_c, 8, 53, 119
1, 161952, Note_on_c, 3, 72, 50
1, 161952, Note_on_c, 9, 54, 44
1, 161952, Note_on_c, 9, 69, 47
1, 161956, Note_off_c, 9, 69, 47
1, 161956, Note_off_c, 9, 54, 44
1, 161988, Note_off_c, 1, 29, 115
1, 162040, Note_off_c, 3, 72, 50
1, 162040, Note_off_c, 2, 91, 89
1, 162040, Note_off_c, 2, 79, 90
1, 162048, Note_on_c, 8, 55, 117
1, 162048, Note_on_c, 7, 62, 107
1, 162048, Note_on_c, 7, 67, 103
1, 162048, Note_on_c, 7, 71, 107
1, 162048, Note_on_c, 3, 72, 69
1, 162048, Note_on_c, 1, 31, 100
1, 162048, Note_on_c, 9, 36, 120
1, 162048, Note_on_c, 9, 42, 83
1, 162048, Note_on_c, 9, 54, 42
1, 162048, Note_on_c, 9, 69, 44
1, 162052, Note_off_c, 9, 69, 44
1, 162052, Note_off_c, 9, 54, 42
1, 162052, Note_off_c, 9, 42, 83
1, 162052, Note_off_c, 9, 36, 120
1, 162136, Note_off_c, 3, 72, 69
1, 162144, Note_on_c, 3, 72, 62
1, 162144, Note_on_c, 9, 54, 48
1, 162148, Note_off_c, 9, 54, 48
1, 162228, Note_off_c, 1, 31, 100
1, 162232, Note_off_c, 3, 72, 62
1, 162232, Note_off_c, 7, 71, 107
1, 162232, Note_off_c, 7, 67, 103
1, 162232, Note_off_c, 7, 62, 107
1, 162232, Note_off_c, 8, 55, 117
1, 162240, Note_on_c, 3, 76, 63
1, 162240, Note_on_c, 9, 42, 86
1, 162240, Note_on_c, 9, 54, 35
1, 162240, Note_on_c, 9, 69, 48
1, 162244, Note_off_c, 9, 69, 48
1, 162244, Note_off_c, 9, 54, 35
1, 162244, Note_off_c, 9, 42, 86
1, 162328, Note_off_c, 3, 76, 63
1, 162336, Note_on_c, 9, 54, 33
1, 162336, Note_on_c, 9, 69, 47
1, 162340, Note_off_c, 9, 69, 47
1, 162340, Note_off_c, 9, 54, 33
1, 162432, Note_on_c, 8, 55, 118
1, 162432, Note_on_c, 7, 62, 103
1, 162432, Note_on_c, 7, 67, 104
1, 162432, Note_on_c, 7, 71, 110
1, 162432, Note_on_c, 3, 76, 55
1, 162432, Note_on_c, 2, 86, 79
1, 162432, Note_on_c, 2, 98, 80
1, 162432, Note_on_c, 9, 39, 100
1, 162432, Note_on_c, 1, 31, 115
1, 162432, Note_on_c, 9, 36, 114
1, 162432, Note_on_c, 9, 38, 110
1, 162432, Note_on_c, 9, 42, 76
1, 162432, Note_on_c, 9, 54, 36
1, 162432, Note_on_c, 9, 69, 45
1, 162436, Note_off_c, 9, 69, 45
1, 162436, Note_off_c, 9, 54, 36
1, 162436, Note_off_c, 9, 42, 76
1, 162436, Note_off_c, 9, 38, 110
1, 162436, Note_off_c, 9, 36, 114
1, 162436, Note_off_c, 9, 39, 100
1, 162520, Note_off_c, 3, 76, 55
1, 162528, Note_on_c, 3, 74, 69
1, 162528, Note_on_c, 9, 54, 48
1, 162532, Note_off_c, 9, 54, 48
1, 162576, Pitch_bend_c, 1, 8192
1, 162584, Pitch_bend_c, 1, 8323
1, 162592, Pitch_bend_c, 1, 8456
1, 162600, Pitch_bend_c, 1, 8588
1, 162608, Pitch_bend_c, 1, 8720
1, 162616, Note_off_c, 3, 74, 69
1, 162616, Note_off_c, 7, 71, 110
1, 162616, Note_off_c, 7, 67, 104
1, 162616, Note_off_c, 7, 62, 103
1, 162616, Note_off_c, 8, 55, 118
1, 162616, Pitch_bend_c, 1, 8852
1, 162624, Note_on_c, 3, 69, 55
1, 162624, Pitch_bend_c, 1, 8984
1, 162624, Note_on_c, 9, 42, 90
1, 162624, Note_on_c, 9, 54, 48
1, 162624, Note_on_c, 9, 69, 31
1, 162628, Note_off_c, 9, 69, 31
1, 162628, Note_off_c, 9, 54, 48
1, 162628, Note_off_c, 9, 42, 90
1, 162632, Pitch_bend_c, 1, 9116
1, 162640, Pitch_bend_c, 1, 9248
1, 162648, Pitch_bend_c, 1, 9380
1, 162656, Pitch_bend_c, 1, 9512
1, 162664, Pitch_bend_c, 1, 9644
1, 162672, Pitch_bend_c, 1, 9776
1, 162680, Pitch_bend_c, 1, 9908
1, 162688, Pitch_bend_c, 1, 10040
1, 162696, Note_off_c, 2, 98, 80
1, 162696, Note_off_c, 2, 86, 79
1, 162696, Pitch_bend_c, 1, 10172
1, 162704, Pitch_bend_c, 1, 10305
1, 162708, Note_off_c, 1, 31, 115
1, 162712, Note_off_c, 3, 69, 55
1, 162712, Pitch_bend_c, 1, 10437
1, 162720, Note_on_c, 3, 67, 57
1, 162720, Pitch_bend_c, 1, 10569
1, 162720, Note_on_c, 9, 54, 41
1, 162720, Note_on_c, 9, 69, 43
1, 162724, Note_off_c, 9, 69, 43
1, 162724, Note_off_c, 9, 54, 41
1, 162728, Pitch_bend_c, 1, 10701
1, 162736, Pitch_bend_c, 1, 10833
1, 162744, Pitch_bend_c, 1, 10965
1, 162752, Pitch_bend_c, 1, 11097
1, 162760, Pitch_bend_c, 1, 11229
1, 162768, Pitch_bend_c, 1, 11361
1, 162776, Pitch_bend_c, 1, 11493
1, 162784, Pitch_bend_c, 1, 11625
1, 162792, Pitch_bend_c, 1, 11757
1, 162800, Pitch_bend_c, 1, 8192
1, 162808, Note_off_c, 3, 67, 57
1, 162816, Tempo, 504200
1, 162816, Note_on_c, 14, 60, 123
1, 162816, Note_on_c, 14, 72, 119
1, 162816, Note_on_c, 15, 60, 123
1, 162816, Note_on_c, 8, 48, 116
1, 162816, Note_on_c, 7, 60, 110
1, 162816, Note_on_c, 7, 64, 109
1, 162816, Note_on_c, 7, 67, 117
1, 162816, Note_on_c, 3, 72, 52
1, 162816, Note_on_c, 2, 72, 97
1, 162816, Note_on_c, 2, 84, 90
1, 162816, Note_on_c, 1, 36, 100
1, 162816, Note_on_c, 9, 36, 121
1, 162816, Note_on_c, 9, 42, 83
1, 162816, Note_on_c, 9, 49, 123
1, 162816, Note_on_c, 9, 54, 40
1, 162816, Note_on_c, 9, 69, 40
1, 162820, Note_off_c, 9, 69, 40
1, 162820, Note_off_c, 9, 54, 40
1, 162820, Note_off_c, 9, 49, 123
1, 162820, Note_off_c, 9, 42, 83
1, 162820, Note_off_c, 9, 36, 121
1, 162904, Note_off_c, 3, 72, 52
1, 162904, Pitch_bend_c, 1, 8192
1, 162912, Note_on_c, 3, 72, 68
1, 162912, Pitch_bend_c, 1, 8009
1, 162912, Note_on_c, 9, 54, 39
1, 162916, Note_off_c, 9, 54, 39
1, 162920, Pitch_bend_c, 1, 7827
1, 162928, Pitch_bend_c, 1, 7644
1, 162936, Pitch_bend_c, 1, 7461
1, 162944, Pitch_bend_c, 1, 7278
1, 162952, Pitch_bend_c, 1, 7096
1, 162960, Pitch_bend_c, 1, 6913
1, 162968, Pitch_bend_c, 1, 6730
1, 162976, Pitch_bend_c, 1, 6548
1, 162980, Note_off_c, 15, 60, 123
1, 162984, Pitch_bend_c, 1, 6365
1, 162992, Note_off_c, 14, 72, 119
1, 162992, Note_off_c, 14, 60, 123
1, 162992, Pitch_bend_c, 1, 6182
1, 163000, Note_off_c, 3, 72, 68
1, 163000, Note_off_c, 2, 84, 90
1, 163000, Note_off_c, 2, 72, 97
1, 163000, Note_off_c, 7, 67, 117
1, 163000, Note_off_c, 7, 64, 109
1, 163000, Note_off_c, 7, 60, 110
1, 163000, Note_off_c, 8, 48, 116
1, 163000, Pitch_bend_c, 1, 6000
1, 163008, Note_on_c, 14, 57, 113
1, 163008, Note_on_c, 14, 69, 126
1, 163008, Note_on_c, 15, 57, 110
1, 163008, Note_on_c, 3, 72, 51
1, 163008, Note_on_c, 2, 79, 81
1, 163008, Note_on_c, 2, 91, 96
1, 163008, Pitch_bend_c, 1, 5817
1, 163008, Note_on_c, 9, 42, 79
1, 163008, Note_on_c, 9, 54, 34
1, 163008, Note_on_c, 9, 69, 45
1, 163012, Note_off_c, 9, 69, 45
1, 163012, Note_off_c, 9, 54, 34
1, 163012, Note_off_c, 9, 42, 79
1, 163016, Pitch_bend_c, 1, 5634
1, 163024, Pitch_bend_c, 1, 5451
1, 163032, Pitch_bend_c, 1, 5269
1, 163040, Pitch_bend_c, 1, 5086
1, 163048, Pitch_bend_c, 1, 4903
1, 163056, Pitch_bend_c, 1, 4720
1, 163064, Pitch_bend_c, 1, 4538
1, 163072, Pitch_bend_c, 1, 4355
1, 163080, Pitch_bend_c, 1, 4172
1, 163088, Pitch_bend_c, 1, 3990
1, 163092, Note_off_c, 1, 36, 100
1, 163096, Note_off_c, 3, 72, 51
1, 163096, Pitch_bend_c, 1, 3807
1, 163104, Note_on_c, 3, 72, 53
1, 163104, Pitch_bend_c, 1, 3624
1, 163104, Note_on_c, 9, 54, 42
1, 163104, Note_on_c, 9, 69, 49
1, 163108, Note_off_c, 9, 69, 49
1, 163108, Note_off_c, 9, 54, 42
1, 163112, Pitch_bend_c, 1, 3441
1, 163120, Pitch_bend_c, 1, 3259
1, 163128, Pitch_bend_c, 1, 3076
1, 163136, Pitch_bend_c, 1, 8192
1, 163180, Note_off_c, 15, 57, 110
1, 163184, Note_off_c, 14, 69, 126
1, 163184, Note_off_c, 14, 57, 113
1, 163192, Note_off_c, 3, 72, 53
1, 163192, Note_off_c, 2, 91, 96
1, 163192, Note_off_c, 2, 79, 81
1, 163200, Note_on_c, 14, 60, 120
1, 163200, Note_on_c, 14, 72, 127
1, 163200, Note_on_c, 15, 57, 127
1, 163200, Note_on_c, 8, 52, 122
1, 163200, Note_on_c, 7, 60, 111
1, 163200, Note_on_c, 7, 64, 105
1, 163200, Note_on_c, 7, 67, 108
1, 163200, Note_on_c, 3, 72, 61
1, 163200, Note_on_c, 2, 76, 87
1, 163200, Note_on_c, 2, 88, 96
1, 163200, Note_on_c, 9, 39, 87
1, 163200, Note_on_c, 1, 28, 113
1, 163200, Note_on_c, 9, 36, 122
1, 163200, Note_on_c, 9, 38, 123
1, 163200, Note_on_c, 9, 42, 87
1, 163200, Note_on_c, 9, 54, 46
1, 163200, Note_on_c, 9, 69, 49
1, 163204, Note_off_c, 9, 69, 49
1, 163204, Note_off_c, 9, 54, 46
1, 163204, Note_off_c, 9, 42, 87
1, 163204, Note_off_c, 9, 38, 123
1, 163204, Note_off_c, 9, 36, 122
1, 163204, Note_off_c, 9, 39, 87
1, 163288, Note_off_c, 3, 72, 61
1, 163288, Note_off_c, 7, 67, 108
1, 163288, Note_off_c, 7, 64, 105
1, 163288, Note_off_c, 7, 60, 111
1, 163288, Note_off_c, 8, 52, 122
1, 163296, Note_on_c, 3, 72, 51
1, 163296, Note_on_c, 9, 54, 34
1, 163300, Note_off_c, 9, 54, 34
1, 163380, Note_off_c, 1, 28, 113
1, 163384, Note_off_c, 3, 72, 51
1, 163384, Note_off_c, 2, 88, 96
1, 163384, Note_off_c, 2, 76, 87
1, 163392, Note_on_c, 8, 53, 127
1, 163392, Note_on_c, 7, 60, 116
1, 163392, Note_on_c, 7, 65, 112
1, 163392, Note_on_c, 7, 69, 109
1, 163392, Note_on_c, 3, 72, 66
1, 163392, Note_on_c, 2, 77, 83
1, 163392, Note_on_c, 2, 89, 83
1, 163392, Note_on_c, 1, 29, 109
1, 163392, Note_on_c, 9, 42, 88
1, 163392, Note_on_c, 9, 54, 46
1, 163392, Note_on_c, 9, 69, 38
1, 163396, Note_off_c, 9, 69, 38
1, 163396, Note_off_c, 9, 54, 46
1, 163396, Note_off_c, 9, 42, 88
1, 163480, Note_off_c, 3, 72, 66
1, 163480, Note_off_c, 7, 69, 109
1, 163480, Note_off_c, 7, 65, 112
1, 163480, Note_off_c, 7, 60, 116
1, 163480, Note_off_c, 8, 53, 127
1, 163488, Note_on_c, 3, 72, 58
1, 163488, Note_on_c, 9, 54, 35
1, 163488, Note_on_c, 9, 69, 45
1, 163492, Note_off_c, 9, 69, 45
1, 163492, Note_off_c, 9, 54, 35
1, 163540, Note_off_c, 15, 57, 127
1, 163568, Note_off_c, 14, 72, 127
1, 163568, Note_off_c, 14, 60, 120
1, 163572, Note_off_c, 1, 29, 109
1, 163576, Note_off_c, 3, 72, 58
1, 163576, Note_off_c, 2, 89, 83
1, 163576, Note_off_c, 2, 77, 83
1, 163584, Note_on_c, 14, 60, 114
1, 163584, Note_on_c, 14, 72, 126
1, 163584, Note_on_c, 15, 60, 113
1, 163584, Note_on_c, 3, 72, 62
1, 163584, Note_on_c, 2, 84, 82
1, 163584, Note_on_c, 2, 96, 95
1, 163584, Note_on_c, 9, 36, 124
1, 163584, Note_on_c, 9, 42, 78
1, 163584, Note_on_c, 9, 54, 37
1, 163584, Note_on_c, 9, 69, 43
1, 163588, Note_off_c, 9, 69, 43
1, 163588, Note_off_c, 9, 54, 37
1, 163588, Note_off_c, 9, 42, 78
1, 163588, Note_off_c, 9, 36, 124
1, 163672, Note_off_c, 3, 72, 62
1, 163680, Note_on_c, 3, 72, 55
1, 163680, Note_on_c, 9, 54, 45
1, 163684, Note_off_c, 9, 54, 45
1, 163752, Note_off_c, 15, 60, 113
1, 163760, Note_off_c, 14, 72, 126
1, 163760, Note_off_c, 14, 60, 114
1, 163768, Note_off_c, 3, 72, 55
1, 163768, Note_off_c, 2, 96, 95
1, 163768, Note_off_c, 2, 84, 82
1, 163776, Note_on_c, 14, 57, 120
1, 163776, Note_on_c, 14, 69, 112
1, 163776, Note_on_c, 15, 57, 127
1, 163776, Note_on_c, 8, 52, 115
1, 163776, Note_on_c, 7, 60, 118
1, 163776, Note_on_c, 7, 64, 111
1, 163776, Note_on_c, 7, 67, 120
1, 163776, Note_on_c, 3, 72, 65
1, 163776, Note_on_c, 2, 89, 78
1, 163776, Note_on_c, 2, 101, 86
1, 163776, Note_on_c, 1, 28, 102
1, 163776, Note_on_c, 9, 42, 80
1, 163776, Note_on_c, 9, 54, 37
1, 163776, Note_on_c, 9, 69, 45
1, 163780, Note_off_c, 9, 69, 45
1, 163780, Note_off_c, 9, 54, 37
1, 163780, Note_off_c, 9, 42, 80
1, 163864, Note_off_c, 3, 72, 65
1, 163864, Note_off_c, 7, 67, 120
1, 163864, Note_off_c, 7, 64, 111
1, 163864, Note_off_c, 7, 60, 118
1, 163864, Note_off_c, 8, 52, 115
1, 163872, Note_on_c, 3, 72, 54
1, 163872, Note_on_c, 9, 54, 43
1, 163872, Note_on_c, 9, 69, 48
1, 163876, Note_off_c, 9, 69, 48
1, 163876, Note_off_c, 9, 54, 43
1, 163944, Note_off_c, 15, 57, 127
1, 163952, Note_off_c, 14, 69, 112
1, 163952, Note_off_c, 14, 57, 120
1, 163956, Note_off_c, 1, 28, 102
1, 163960, Note_off_c, 3, 72, 54
1, 163960, Note_off_c, 2, 101, 86
1, 163960, Note_off_c, 2, 89, 78
1, 163968, Note_on_c, 14, 60, 115
1, 163968, Note_on_c, 14, 72, 118
1, 163968, Note_on_c, 15, 57, 117
1, 163968, Note_on_c, 3, 72, 58
1, 163968, Note_on_c, 9, 39, 93
1, 163968, Note_on_c, 9, 36, 120
1, 163968, Note_on_c, 9, 38, 111
1, 163968, Note_on_c, 9, 42, 82
1, 163968, Note_on_c, 9, 54, 35
1, 163968, Note_on_c, 9, 69, 45
1, 163972, Note_off_c, 9, 69, 45
1, 163972, Note_off_c, 9, 54, 35
1, 163972, Note_off_c, 9, 42, 82
1, 163972, Note_off_c, 9, 38, 111
1, 163972, Note_off_c, 9, 36, 120
1, 163972, Note_off_c, 9, 39, 93
1, 164056, Note_off_c, 3, 72, 58
1, 164064, Note_on_c, 3, 72, 63
1, 164064, Note_on_c, 9, 54, 39
1, 164068, Note_off_c, 9, 54, 39
1, 164152, Note_off_c, 3, 72, 63
1, 164160, Note_on_c, 8, 53, 127
1, 164160, Note_on_c, 7, 60, 106
1, 164160, Note_on_c, 7, 65, 118
1, 164160, Note_on_c, 7, 69, 108
1, 164160, Note_on_c, 3, 72, 65
1, 164160, Note_on_c, 2, 88, 90
1, 164160, Note_on_c, 2, 100, 92
1, 164160, Note_on_c, 1, 29, 116
1, 164160, Note_on_c, 9, 42, 94
1, 164160, Note_on_c, 9, 54, 48
1, 164160, Note_on_c, 9, 69, 38
1, 164164, Note_off_c, 9, 69, 38
1, 164164, Note_off_c, 9, 54, 48
1, 164164, Note_off_c, 9, 42, 94
1, 164248, Note_off_c, 3, 72, 65
1, 164248, Note_off_c, 7, 69, 108
1, 164248, Note_off_c, 7, 65, 118
1, 164248, Note_off_c, 7, 60, 106
1, 164248, Note_off_c, 8, 53, 127
1, 164256, Note_on_c, 3, 72, 59
1, 164256, Note_on_c, 9, 54, 43
1, 164256, Note_on_c, 9, 69, 33
1, 164260, Note_off_c, 9, 69, 33
1, 164260, Note_off_c, 9, 54, 43
1, 164328, Note_off_c, 15, 57, 117
1, 164336, Note_off_c, 14, 72, 118
1, 164336, Note_off_c, 14, 60, 115
1, 164340, Note_off_c, 1, 29, 116
1, 164344, Note_off_c, 3, 72, 59
1, 164344, Note_off_c, 2, 100, 92
1, 164344, Note_off_c, 2, 88, 90
1, 164352, Note_on_c, 14, 60, 110
1, 164352, Note_on_c, 14, 72, 112
1, 164352, Note_on_c, 15, 60, 120
1, 164352, Note_on_c, 3, 72, 54
1, 164352, Note_on_c, 9, 36, 124
1, 164352, Note_on_c, 9, 42, 89
1, 164352, Note_on_c, 9, 54, 41
1, 164352, Note_on_c, 9, 69, 34
1, 164356, Note_off_c, 9, 69, 34
1, 164356, Note_off_c, 9, 54, 41
1, 164356, Note_off_c, 9, 42, 89
1, 164356, Note_off_c, 9, 36, 124
1, 164440, Note_off_c, 3, 72, 54
1, 164448, Note_on_c, 3, 72, 54
1, 164448, Note_on_c, 9, 54, 37
1, 164452, Note_off_c, 9, 54, 37
1, 164536, Note_off_c, 3, 72, 54
1, 164544, Note_on_c, 8, 52, 115
1, 164544, Note_on_c, 7, 60, 109
1, 164544, Note_on_c, 7, 64, 104
1, 164544, Note_on_c, 7, 67, 119
1, 164544, Note_on_c, 3, 72, 68
1, 164544, Note_on_c, 2, 84, 84
1, 164544, Note_on_c, 2, 96, 93
1, 164544, Note_on_c, 1, 28, 104
1, 164544, Note_on_c, 9, 42, 76
1, 164544, Note_on_c, 9, 54, 33
1, 164544, Note_on_c, 9, 69, 38
1, 164548, Note_off_c, 9, 69, 38
1, 164548, Note_off_c, 9, 54, 33
1, 164548, Note_off_c, 9, 42, 76
1, 164632, Note_off_c, 3, 72, 68
1, 164632, Note_off_c, 7, 67, 119
1, 164632, Note_off_c, 7, 64, 104
1, 164632, Note_off_c, 7, 60, 109
1, 164632, Note_off_c, 8, 52, 115
1, 164640, Note_on_c, 3, 72, 65
1, 164640, Note_on_c, 9, 54, 48
1, 164640, Note_on_c, 9, 69, 47
1, 164644, Note_off_c, 9, 69, 47
1, 164644, Note_off_c, 9, 54, 48
1, 164692, Note_off_c, 15, 60, 120
1, 164720, Note_off_c, 14, 72, 112
1, 164720, Note_off_c, 14, 60, 110
1, 164724, Note_off_c, 1, 28, 104
1, 164728, Note_off_c, 3, 72, 65
1, 164728, Note_off_c, 2, 96, 93
1, 164728, Note_off_c, 2, 84, 84
1, 164736, Note_on_c, 14, 60, 115
1, 164736, Note_on_c, 14, 72, 114
1, 164736, Note_on_c, 15, 60, 127
1, 164736, Note_on_c, 3, 72, 67
1, 164736, Note_on_c, 9, 39, 98
1, 164736, Note_on_c, 9, 36, 121
1, 164736, Note_on_c, 9, 38, 115
1, 164736, Note_on_c, 9, 42, 81
1, 164736, Note_on_c, 9, 54, 42
1, 164736, Note_on_c, 9, 69, 46
1, 164740, Note_off_c, 9, 69, 46
1, 164740, Note_off_c, 9, 54, 42
1, 164740, Note_off_c, 9, 42, 81
1, 164740, Note_off_c, 9, 38, 115
1, 164740, Note_off_c, 9, 36, 121
1, 164740, Note_off_c, 9, 39, 98
1, 164824, Note_off_c, 3, 72, 67
1, 164832, Note_on_c, 3, 72, 67
1, 164832, Note_on_c, 9, 54, 42
1, 164836, Note_off_c, 9, 54, 42
1, 164920, Note_off_c, 3, 72, 67
1, 164928, Note_on_c, 8, 53, 127
1, 164928, Note_on_c, 7, 60, 108
1, 164928, Note_on_c, 7, 65, 103
1, 164928, Note_on_c, 7, 69, 120
1, 164928, Note_on_c, 3, 72, 54
1, 164928, Note_on_c, 2, 79, 97
1, 164928, Note_on_c, 2, 91, 81
1, 164928, Note_on_c, 1, 29, 108
1, 164928, Note_on_c, 9, 42, 82
1, 164928, Note_on_c, 9, 54, 48
1, 164928, Note_on_c, 9, 69, 31
1, 164932, Note_off_c, 9, 69, 31
1, 164932, Note_off_c, 9, 54, 48
1, 164932, Note_off_c, 9, 42, 82
1, 165016, Note_off_c, 3, 72, 54
1, 165016, Note_off_c, 7, 69, 120
1, 165016, Note_off_c, 7, 65, 103
1, 165016, Note_off_c, 7, 60, 108
1, 165016, Note_off_c, 8, 53, 127
1, 165024, Note_on_c, 3, 72, 51
1, 165024, Note_on_c, 9, 54, 47
1, 165024, Note_on_c, 9, 69, 33
1, 165028, Note_off_c, 9, 69, 33
1, 165028, Note_off_c, 9, 54, 47
1, 165060, Note_off_c, 1, 29, 108
1, 165088, Note_off_c, 15, 60, 127
1, 165104, Note_off_c, 14, 72, 114
1, 165104, Note_off_c, 14, 60, 115
1, 165112, Note_off_c, 3, 72, 51
1, 165112, Note_off_c, 2, 91, 81
1, 165112, Note_off_c, 2, 79, 97
1, 165120, Note_on_c, 14, 64, 127
1, 165120, Note_on_c, 14, 76, 118
1, 165120, Note_on_c, 15, 64, 113
1, 165120, Note_on_c, 8, 55, 127
1, 165120, Note_on_c, 7, 62, 121
1, 165120, Note_on_c, 7, 67, 120
1, 165120, Note_on_c, 7, 71, 117
1, 165120, Note_on_c, 3, 72, 62
1, 165120, Note_on_c, 1, 31, 101
1, 165120, Note_on_c, 9, 36, 120
1, 165120, Note_on_c, 9, 42, 83
1, 165120, Note_on_c, 9, 54, 30
1, 165120, Note_on_c, 9, 69, 43
1, 165124, Note_off_c, 9, 69, 43
1, 165124, Note_off_c, 9, 54, 30
1, 165124, Note_off_c, 9, 42, 83
1, 165124, Note_off_c, 9, 36, 120
1, 165208, Note_off_c, 3, 72, 62
1, 165216, Note_on_c, 3, 72, 64
1, 165216, Note_on_c, 9, 54, 44
1, 165220, Note_off_c, 9, 54, 44
1, 165300, Note_off_c, 1, 31, 101
1, 165304, Note_off_c, 3, 72, 64
1, 165304, Note_off_c, 7, 71, 117
1, 165304, Note_off_c, 7, 67, 120
1, 165304, Note_off_c, 7, 62, 121
1, 165304, Note_off_c, 8, 55, 127
1, 165312, Note_on_c, 3, 67, 66
1, 165312, Note_on_c, 9, 42, 86
1, 165312, Note_on_c, 9, 54, 46
1, 165312, Note_on_c, 9, 69, 39
1, 165316, Note_off_c, 9, 69, 39
1, 165316, Note_off_c, 9, 54, 46
1, 165316, Note_off_c, 9, 42, 86
1, 165400, Note_off_c, 3, 67, 66
1, 165408, Note_on_c, 9, 54, 31
1, 165408, Note_on_c, 9, 69, 49
1, 165412, Note_off_c, 9, 69, 49
1, 165412, Note_off_c, 9, 54, 31
1, 165488, Note_off_c, 15, 64, 113
1, 165488, Note_off_c, 14, 76, 118
1, 165488, Note_off_c, 14, 64, 127
1, 165504, Note_on_c, 14, 62, 121
1, 165504, Note_on_c, 14, 74, 121
1, 165504, Note_on_c, 15, 62, 116
1, 165504, Note_on_c, 8, 55, 120
1, 165504, Note_on_c, 7, 62, 121
1, 165504, Note_on_c, 7, 67, 104
1, 165504, Note_on_c, 7, 71, 114
1, 165504, Note_on_c, 3, 67, 67
1, 165504, Note_on_c, 2, 86, 79
1, 165504, Note_on_c, 2, 98, 96
1, 165504, Note_on_c, 9, 39, 94
1, 165504, Note_on_c, 1, 31, 101
1, 165504, Note_on_c, 9, 36, 114
1, 165504, Note_on_c, 9, 38, 110
1, 165504, Note_on_c, 9, 42, 76
1, 165504, Note_on_c, 9, 54, 39
1, 165504, Note_on_c, 9, 69, 46
1, 165508, Note_off_c, 9, 69, 46
1, 165508, Note_off_c, 9, 54, 39
1, 165508, Note_off_c, 9, 42, 76
1, 165508, Note_off_c, 9, 38, 110
1, 165508, Note_off_c, 9, 36, 114
1, 165508, Note_off_c, 9, 39, 94
1, 165592, Note_off_c, 3, 67, 67
1, 165600, Note_on_c, 3, 69, 68
1, 165600, Note_on_c, 9, 54, 38
1, 165604, Note_off_c, 9, 54, 38
1, 165648, Pitch_bend_c, 1, 8192
1, 165656, Pitch_bend_c, 1, 8323
1, 165664, Pitch_bend_c, 1, 8456
1, 165672, Pitch_bend_c, 1, 8588
1, 165676, Note_off_c, 15, 62, 116
1, 165680, Note_off_c, 14, 74, 121
1, 165680, Note_off_c, 14, 62, 121
1, 165680, Pitch_bend_c, 1, 8720
1, 165688, Note_off_c, 3, 69, 68
1, 165688, Note_off_c, 7, 71, 114
1, 165688, Note_off_c, 7, 67, 104
1, 165688, Note_off_c, 7, 62, 121
1, 165688, Note_off_c, 8, 55, 120
1, 165688, Pitch_bend_c, 1, 8852
1, 165696, Note_on_c, 14, 60, 113
1, 165696, Note_on_c, 14, 72, 119
1, 165696, Note_on_c, 15, 60, 115
1, 165696, Note_on_c, 3, 72, 57
1, 165696, Pitch_bend_c, 1, 8984
1, 165696, Note_on_c, 9, 42, 90
1, 165696, Note_on_c, 9, 54, 47
1, 165696, Note_on_c, 9, 69, 48
1, 165700, Note_off_c, 9, 69, 48
1, 165700, Note_off_c, 9, 54, 47
1, 165700, Note_off_c, 9, 42, 90
1, 165704, Pitch_bend_c, 1, 9116
1, 165712, Pitch_bend_c, 1, 9248
1, 165720, Pitch_bend_c, 1, 9380
1, 165728, Pitch_bend_c, 1, 9512
1, 165736, Pitch_bend_c, 1, 9644
1, 165744, Pitch_bend_c, 1, 9776
1, 165752, Pitch_bend_c, 1, 9908
1, 165760, Pitch_bend_c, 1, 10040
1, 165768, Note_off_c, 2, 98, 96
1, 165768, Note_off_c, 2, 86, 79
1, 165768, Pitch_bend_c, 1, 10172
1, 165776, Pitch_bend_c, 1, 10305
1, 165780, Note_off_c, 1, 31, 101
1, 165784, Note_off_c, 3, 72, 57
1, 165784, Pitch_bend_c, 1, 10437
1, 165792, Note_on_c, 3, 74, 50
1, 165792, Pitch_bend_c, 1, 10569
1, 165792, Note_on_c, 9, 54, 43
1, 165792, Note_on_c, 9, 69, 39
1, 165796, Note_off_c, 9, 69, 39
1, 165796, Note_off_c, 9, 54, 43
1, 165800, Pitch_bend_c, 1, 10701
1, 165808, Pitch_bend_c, 1, 10833
1, 165816, Pitch_bend_c, 1, 10965
1, 165824, Pitch_bend_c, 1, 11097
1, 165832, Pitch_bend_c, 1, 11229
1, 165840, Pitch_bend_c, 1, 11361
1, 165848, Pitch_bend_c, 1, 11493
1, 165856, Pitch_bend_c, 1, 11625
1, 165864, Pitch_bend_c, 1, 11757
1, 165872, Pitch_bend_c, 1, 8192
1, 165880, Note_off_c, 3, 74, 50
1, 165888, Tempo, 500000
1, 165888, Note_on_c, 8, 48, 117
1, 165888, Note_on_c, 7, 60, 106
1, 165888, Note_on_c, 7, 64, 111
1, 165888, Note_on_c, 7, 67, 108
1, 165888, Note_on_c, 3, 72, 61
1, 165888, Note_on_c, 2, 72, 85
1, 165888, Note_on_c, 2, 84, 90
1, 165888, Note_on_c, 1, 36, 106
1, 165888, Note_on_c, 9, 36, 124
1, 165888, Note_on_c, 9, 42, 89
1, 165888, Note_on_c, 9, 54, 47
1, 165888, Note_on_c, 9, 69, 44
1, 165892, Note_off_c, 9, 69, 44
1, 165892, Note_off_c, 9, 54, 47
1, 165892, Note_off_c, 9, 42, 89
1, 165892, Note_off_c, 9, 36, 124
1, 165976, Note_off_c, 3, 72, 61
1, 165976, Pitch_bend_c, 1, 8192
1, 165984, Note_on_c, 3, 72, 59
1, 165984, Pitch_bend_c, 1, 8009
1, 165984, Note_on_c, 9, 54, 36
1, 165988, Note_off_c, 9, 54, 36
1, 165992, Pitch_bend_c, 1, 7827
1, 166000, Pitch_bend_c, 1, 7644
1, 166008, Pitch_bend_c, 1, 7461
1, 166016, Pitch_bend_c, 1, 7278
1, 166024, Pitch_bend_c, 1, 7096
1, 166032, Pitch_bend_c, 1, 6913
1, 166040, Pitch_bend_c, 1, 6730
1, 166048, Pitch_bend_c, 1, 6548
1, 166056, Pitch_bend_c, 1, 6365
1, 166064, Pitch_bend_c, 1, 6182
1, 166072, Note_off_c, 3, 72, 59
1, 166072, Note_off_c, 2, 84, 90
1, 166072, Note_off_c, 2, 72, 85
1, 166072, Note_off_c, 7, 67, 108
1, 166072, Note_off_c, 7, 64, 111
1, 166072, Note_off_c, 7, 60, 106
1, 166072, Note_off_c, 8, 48, 117
1, 166072, Pitch_bend_c, 1, 6000
1, 166080, Note_on_c, 3, 72, 68
1, 166080, Note_on_c, 2, 79, 94
1, 166080, Note_on_c, 2, 91, 83
1, 166080, Pitch_bend_c, 1, 5817
1, 166080, Note_on_c, 9, 42, 76
1, 166080, Note_on_c, 9, 54, 30
1, 166080, Note_on_c, 9, 69, 37
1, 166084, Note_off_c, 9, 69, 37
1, 166084, Note_off_c, 9, 54, 30
1, 166084, Note_off_c, 9, 42, 76
1, 166088, Pitch_bend_c, 1, 5634
1, 166096, Pitch_bend_c, 1, 5451
1, 166104, Pitch_bend_c, 1, 5269
1, 166112, Pitch_bend_c, 1, 5086
1, 166120, Pitch_bend_c, 1, 4903
1, 166128, Pitch_bend_c, 1, 4720
1, 166136, Pitch_bend_c, 1, 4538
1, 166144, Pitch_bend_c, 1, 4355
1, 166152, Pitch_bend_c, 1, 4172
1, 166160, Pitch_bend_c, 1, 3990
1, 166164, Note_off_c, 1, 36, 106
1, 166168, Note_off_c, 3, 72, 68
1, 166168, Pitch_bend_c, 1, 3807
1, 166176, Note_on_c, 3, 72, 54
1, 166176, Pitch_bend_c, 1, 3624
1, 166176, Note_on_c, 9, 54, 41
1, 166176, Note_on_c, 9, 69, 36
1, 166180, Note_off_c, 9, 69, 36
1, 166180, Note_off_c, 9, 54, 41
1, 166184, Pitch_bend_c, 1, 3441
1, 166192, Pitch_bend_c, 1, 3259
1, 166200, Pitch_bend_c, 1, 3076
1, 166208, Pitch_bend_c, 1, 8192
1, 166264, Note_off_c, 3, 72, 54
1, 166264, Note_off_c, 2, 91, 83
1, 166264, Note_off_c, 2, 79, 94
1, 166272, Note_on_c, 8, 52, 116
1, 166272, Note_on_c, 7, 60, 118
1, 166272, Note_on_c, 7, 64, 122
1, 166272, Note_on_c, 7, 67, 104
1, 166272, Note_on_c, 3, 72, 53
1, 166272, Note_on_c, 2, 76, 97
1, 166272, Note_on_c, 2, 88, 86
1, 166272, Note_on_c, 9, 39, 90
1, 166272, Note_on_c, 1, 28, 100
1, 166272, Note_on_c, 9, 36, 121
1, 166272, Note_on_c, 9, 38, 115
1, 166272, Note_on_c, 9, 42, 81
1, 166272, Note_on_c, 9, 54, 31
1, 166272, Note_on_c, 9, 69, 46
1, 166276, Note_off_c, 9, 69, 46
1, 166276, Note_off_c, 9, 54, 31
1, 166276, Note_off_c, 9, 42, 81
1, 166276, Note_off_c, 9, 38, 115
1, 166276, Note_off_c, 9, 36, 121
1, 166276, Note_off_c, 9, 39, 90
1, 166360, Note_off_c, 3, 72, 53
1, 166360, Note_off_c, 7, 67, 104
1, 166360, Note_off_c, 7, 64, 122
1, 166360, Note_off_c, 7, 60, 118
1, 166360, Note_off_c, 8, 52, 116
1, 166368, Note_on_c, 3, 72, 69
1, 166368, Note_on_c, 9, 54, 49
1, 166372, Note_off_c, 9, 54, 49
1, 166452, Note_off_c, 1, 28, 100
1, 166456, Note_off_c, 3, 72, 69
1, 166456, Note_off_c, 2, 88, 86
1, 166456, Note_off_c, 2, 76, 97
1, 166464, Note_on_c, 8, 53, 118
1, 166464, Note_on_c, 7, 60, 113
1, 166464, Note_on_c, 7, 65, 109
1, 166464, Note_on_c, 7, 69, 105
1, 166464, Note_on_c, 3, 72, 64
1, 166464, Note_on_c, 2, 77, 95
1, 166464, Note_on_c, 2, 89, 90
1, 166464, Note_on_c, 1, 29, 101
1, 166464, Note_on_c, 9, 42, 82
1, 166464, Note_on_c, 9, 54, 39
1, 166464, Note_on_c, 9, 69, 33
1, 166468, Note_off_c, 9, 69, 33
1, 166468, Note_off_c, 9, 54, 39
1, 166468, Note_off_c, 9, 42, 82
1, 166552, Note_off_c, 3, 72, 64
1, 166552, Note_off_c, 7, 69, 105
1, 166552, Note_off_c, 7, 65, 109
1, 166552, Note_off_c, 7, 60, 113
1, 166552, Note_off_c, 8, 53, 118
1, 166560, Note_on_c, 3, 72, 54
1, 166560, Note_on_c, 9, 54, 30
1, 166560, Note_on_c, 9, 69, 31
1, 166564, Note_off_c, 9, 69, 31
1, 166564, Note_off_c, 9, 54, 30
1, 166644, Note_off_c, 1, 29, 101
1, 166648, Note_off_c, 3, 72, 54
1, 166648, Note_off_c, 2, 89, 90
1, 166648, Note_off_c, 2, 77, 95
1, 166656, Note_on_c, 3, 72, 66
1, 166656, Note_on_c, 2, 84, 86
1, 166656, Note_on_c, 2, 96, 93
1, 166656, Note_on_c, 9, 36, 120
1, 166656, Note_on_c, 9, 42, 83
1, 166656, Note_on_c, 9, 54, 49
1, 166656, Note_on_c, 9, 69, 32
1, 166660, Note_off_c, 9, 69, 32
1, 166660, Note_off_c, 9, 54, 49
1, 166660, Note_off_c, 9, 42, 83
1, 166660, Note_off_c, 9, 36, 120
1, 166744, Note_off_c, 3, 72, 66
1, 166752, Note_on_c, 3, 72, 57
1, 166752, Note_on_c, 9, 54, 42
1, 166756, Note_off_c, 9, 54, 42
1, 166840, Note_off_c, 3, 72, 57
1, 166840, Note_off_c, 2, 96, 93
1, 166840, Note_off_c, 2, 84, 86
1, 166848, Note_on_c, 8, 52, 124
1, 166848, Note_on_c, 7, 60, 109
1, 166848, Note_on_c, 7, 64, 120
1, 166848, Note_on_c, 7, 67, 117
1, 166848, Note_on_c, 3, 72, 65
1, 166848, Note_on_c, 2, 89, 91
1, 166848, Note_on_c, 2, 101, 86
1, 166848, Note_on_c, 1, 28, 113
1, 166848, Note_on_c, 9, 42, 86
1, 166848, Note_on_c, 9, 54, 46
1, 166848, Note_on_c, 9, 69, 45
1, 166852, Note_off_c, 9, 69, 45
1, 166852, Note_off_c, 9, 54, 46
1, 166852, Note_off_c, 9, 42, 86
1, 166928, Note_off_c, 14, 72, 119
1, 166928, Note_off_c, 14, 60, 113
1, 166932, Note_off_c, 15, 60, 115
1, 166936, Note_off_c, 3, 72, 65
1, 166936, Note_off_c, 7, 67, 117
1, 166936, Note_off_c, 7, 64, 120
1, 166936, Note_off_c, 7, 60, 109
1, 166936, Note_off_c, 8, 52, 124
1, 166944, Note_on_c, 3, 72, 68
1, 166944, Note_on_c, 9, 54, 36
1, 166944, Note_on_c, 9, 69, 49
1, 166948, Note_off_c, 9, 69, 49
1, 166948, Note_off_c, 9, 54, 36
1, 167028, Note_off_c, 1, 28, 113
1, 167032, Note_off_c, 3, 72, 68
1, 167032, Note_off_c, 2, 101, 86
1, 167032, Note_off_c, 2, 89, 91
1, 167040, Note_on_c, 3, 72, 57
1, 167040, Note_on_c, 9, 39, 97
1, 167040, Note_on_c, 9, 36, 114
1, 167040, Note_on_c, 9, 38, 110
1, 167040, Note_on_c, 9, 42, 76
1, 167040, Note_on_c, 9, 54, 35
1, 167040, Note_on_c, 9, 69, 35
1, 167044, Note_off_c, 9, 69, 35
1, 167044, Note_off_c, 9, 54, 35
1, 167044, Note_off_c, 9, 42, 76
1, 167044, Note_off_c, 9, 38, 110
1, 167044, Note_off_c, 9, 36, 114
1, 167044, Note_off_c, 9, 39, 97
1, 167128, Note_off_c, 3, 72, 57
1, 167136, Note_on_c, 3, 72, 56
1, 167136, Note_on_c, 9, 54, 40
1, 167140, Note_off_c, 9, 54, 40
1, 167224, Note_off_c, 3, 72, 56
1, 167232, Note_on_c, 8, 53, 127
1, 167232, Note_on_c, 7, 60, 106
1, 167232, Note_on_c, 7, 65, 104
1, 167232, Note_on_c, 7, 69, 121
1, 167232, Note_on_c, 3, 72, 50
1, 167232, Note_on_c, 2, 88, 83
1, 167232, Note_on_c, 2, 100, 79
1, 167232, Note_on_c, 1, 29, 119
1, 167232, Note_on_c, 9, 42, 90
1, 167232, Note_on_c, 9, 54, 32
1, 167232, Note_on_c, 9, 69, 32
1, 167236, Note_off_c, 9, 69, 32
1, 167236, Note_off_c, 9, 54, 32
1, 167236, Note_off_c, 9, 42, 90
1, 167320, Note_off_c, 3, 72, 50
1, 167320, Note_off_c, 7, 69, 121
1, 167320, Note_off_c, 7, 65, 104
1, 167320, Note_off_c, 7, 60, 106
1, 167320, Note_off_c, 8, 53, 127
1, 167328, Note_on_c, 3, 72, 66
1, 167328, Note_on_c, 9, 54, 38
1, 167328, Note_on_c, 9, 69, 43
1, 167332, Note_off_c, 9, 69, 43
1, 167332, Note_off_c, 9, 54, 38
1, 167412, Note_off_c, 1, 29, 119
1, 167416, Note_off_c, 3, 72, 66
1, 167416, Note_off_c, 2, 100, 79
1, 167416, Note_off_c, 2, 88, 83
1, 167424, Note_on_c, 3, 72, 57
1, 167424, Note_on_c, 9, 36, 124
1, 167424, Note_on_c, 9, 42, 89
1, 167424, Note_on_c, 9, 54, 32
1, 167424, Note_on_c, 9, 69, 45
1, 167428, Note_off_c, 9, 69, 45
1, 167428, Note_off_c, 9, 54, 32
1, 167428, Note_off_c, 9, 42, 89
1, 167428, Note_off_c, 9, 36, 124
1, 167512, Note_off_c, 3, 72, 57
1, 167520, Note_on_c, 3, 72, 64
1, 167520, Note_on_c, 9, 54, 42
1, 167524, Note_off_c, 9, 54, 42
1, 167608, Note_off_c, 3, 72, 64
1, 167616, Note_on_c, 8, 52, 120
1, 167616, Note_on_c, 7, 60, 116
1, 167616, Note_on_c, 7, 64, 112
1, 167616, Note_on_c, 7, 67, 107
1, 167616, Note_on_c, 3, 72, 56
1, 167616, Note_on_c, 2, 84, 80
1, 167616, Note_on_c, 2, 96, 88
1, 167616, Note_on_c, 1, 28, 112
1, 167616, Note_on_c, 9, 42, 76
1, 167616, Note_on_c, 9, 54, 37
1, 167616, Note_on_c, 9, 69, 43
1, 167620, Note_off_c, 9, 69, 43
1, 167620, Note_off_c, 9, 54, 37
1, 167620, Note_off_c, 9, 42, 76
1, 167704, Note_off_c, 3, 72, 56
1, 167704, Note_off_c, 7, 67, 107
1, 167704, Note_off_c, 7, 64, 112
1, 167704, Note_off_c, 7, 60, 116
1, 167704, Note_off_c, 8, 52, 120
1, 167712, Note_on_c, 3, 72, 56
1, 167712, Note_on_c, 9, 54, 34
1, 167712, Note_on_c, 9, 69, 35
1, 167716, Note_off_c, 9, 69, 35
1, 167716, Note_off_c, 9, 54, 34
1, 167796, Note_off_c, 1, 28, 112
1, 167800, Note_off_c, 3, 72, 56
1, 167800, Note_off_c, 2, 96, 88
1, 167800, Note_off_c, 2, 84, 80
1, 167808, Note_on_c, 3, 72, 67
1, 167808, Note_on_c, 9, 39, 103
1, 167808, Note_on_c, 9, 36, 121
1, 167808, Note_on_c, 9, 38, 115
1, 167808, Note_on_c, 9, 42, 81
1, 167808, Note_on_c, 9, 54, 34
1, 167808, Note_on_c, 9, 69, 43
1, 167812, Note_off_c, 9, 69, 43
1, 167812, Note_off_c, 9, 54, 34
1, 167812, Note_off_c, 9, 42, 81
1, 167812, Note_off_c, 9, 38, 115
1, 167812, Note_off_c, 9, 36, 121
1, 167812, Note_off_c, 9, 39, 103
1, 167896, Note_off_c, 3, 72, 67
1, 167904, Note_on_c, 3, 72, 64
1, 167904, Note_on_c, 9, 54, 41
1, 167908, Note_off_c, 9, 54, 41
1, 167992, Note_off_c, 3, 72, 64
1, 168000, Note_on_c, 8, 53, 127
1, 168000, Note_on_c, 7, 60, 120
1, 168000, Note_on_c, 7, 65, 106
1, 168000, Note_on_c, 7, 69, 120
1, 168000, Note_on_c, 3, 72, 56
1, 168000, Note_on_c, 2, 79, 85
1, 168000, Note_on_c, 2, 91, 88
1, 168000, Note_on_c, 1, 29, 100
1, 168000, Note_on_c, 9, 42, 82
1, 168000, Note_on_c, 9, 54, 39
1, 168000, Note_on_c, 9, 69, 41
1, 168004, Note_off_c, 9, 69, 41
1, 168004, Note_off_c, 9, 54, 39
1, 168004, Note_off_c, 9, 42, 82
1, 168088, Note_off_c, 3, 72, 56
1, 168088, Note_off_c, 7, 69, 120
1, 168088, Note_off_c, 7, 65, 106
1, 168088, Note_off_c, 7, 60, 120
1, 168088, Note_off_c, 8, 53, 127
1, 168096, Note_on_c, 3, 72, 69
1, 168096, Note_on_c, 9, 54, 43
1, 168096, Note_on_c, 9, 69, 40
1, 168100, Note_off_c, 9, 69, 40
1, 168100, Note_off_c, 9, 54, 43
1, 168132, Note_off_c, 1, 29, 100
1, 168184, Note_off_c, 3, 72, 69
1, 168184, Note_off_c, 2, 91, 88
1, 168184, Note_off_c, 2, 79, 85
1, 168192, Note_on_c, 8, 55, 115
1, 168192, Note_on_c, 7, 62, 114
1, 168192, Note_on_c, 7, 67, 105
1, 168192, Note_on_c, 7, 71, 111
1, 168192, Note_on_c, 3, 72, 54
1, 168192, Note_on_c, 1, 31, 113
1, 168192, Note_on_c, 9, 36, 120
1, 168192, Note_on_c, 9, 42, 83
1, 168192, Note_on_c, 9, 54, 49
1, 168192, Note_on_c, 9, 69, 40
1, 168196, Note_off_c, 9, 69, 40
1, 168196, Note_off_c, 9, 54, 49
1, 168196, Note_off_c, 9, 42, 83
1, 168196, Note_off_c, 9, 36, 120
1, 168280, Note_off_c, 3, 72, 54
1, 168288, Note_on_c, 3, 72, 50
1, 168288, Note_on_c, 9, 54, 43
1, 168292, Note_off_c, 9, 54, 43
1, 168372, Note_off_c, 1, 31, 113
1, 168376, Note_off_c, 3, 72, 50
1, 168376, Note_off_c, 7, 71, 111
1, 168376, Note_off_c, 7, 67, 105
1, 168376, Note_off_c, 7, 62, 114
1, 168376, Note_off_c, 8, 55, 115
1, 168384, Note_on_c, 3, 76, 60
1, 168384, Note_on_c, 9, 42, 86
1, 168384, Note_on_c, 9, 54, 39
1, 168384, Note_on_c, 9, 69, 32
1, 168388, Note_off_c, 9, 69, 32
1, 168388, Note_off_c, 9, 54, 39
1, 168388, Note_off_c, 9, 42, 86
1, 168472, Note_off_c, 3, 76, 60
1, 168480, Note_on_c, 9, 54, 34
1, 168480, Note_on_c, 9, 69, 32
1, 168484, Note_off_c, 9, 69, 32
1, 168484, Note_off_c, 9, 54, 34
1, 168576, Note_on_c, 8, 55, 122
1, 168576, Note_on_c, 7, 62, 110
1, 168576, Note_on_c, 7, 67, 106
1, 168576, Note_on_c, 7, 71, 116
1, 168576, Note_on_c, 3, 76, 67
1, 168576, Note_on_c, 2, 86, 91
1, 168576, Note_on_c, 2, 98, 84
1, 168576, Note_on_c, 9, 39, 90
1, 168576, Note_on_c, 1, 31, 115
1, 168576, Note_on_c, 9, 36, 114
1, 168576, Note_on_c, 9, 38, 110
1, 168576, Note_on_c, 9, 42, 76
1, 168576, Note_on_c, 9, 54, 33
1, 168576, Note_on_c, 9, 69, 41
1, 168580, Note_off_c, 9, 69, 41
1, 168580, Note_off_c, 9, 54, 33
1, 168580, Note_off_c, 9, 42, 76
1, 168580, Note_off_c, 9, 38, 110
1, 168580, Note_off_c, 9, 36, 114
1, 168580, Note_off_c, 9, 39, 90
1, 168664, Note_off_c, 3, 76, 67
1, 168672, Note_on_c, 3, 74, 53
1, 168672, Note_on_c, 9, 54, 33
1, 168676, Note_off_c, 9, 54, 33
1, 168720, Pitch_bend_c, 1, 8192
1, 168728, Pitch_bend_c, 1, 8323
1, 168736, Pitch_bend_c, 1, 8456
1, 168744, Pitch_bend_c, 1, 8588
1, 168752, Pitch_bend_c, 1, 8720
1, 168760, Note_off_c, 3, 74, 53
1, 168760, Note_off_c, 7, 71, 116
1, 168760, Note_off_c, 7, 67, 106
1, 168760, Note_off_c, 7, 62, 110
1, 168760, Note_off_c, 8, 55, 122
1, 168760, Pitch_bend_c, 1, 8852
1, 168768, Note_on_c, 3, 69, 68
1, 168768, Pitch_bend_c, 1, 8984
1, 168768, Note_on_c, 9, 42, 90
1, 168768, Note_on_c, 9, 54, 38
1, 168768, Note_on_c, 9, 69, 43
1, 168772, Note_off_c, 9, 69, 43
1, 168772, Note_off_c, 9, 54, 38
1, 168772, Note_off_c, 9, 42, 90
1, 168776, Pitch_bend_c, 1, 9116
1, 168784, Pitch_bend_c, 1, 9248
1, 168792, Pitch_bend_c, 1, 9380
1, 168800, Pitch_bend_c, 1, 9512
1, 168808, Pitch_bend_c, 1, 9644
1, 168816, Pitch_bend_c, 1, 9776
1, 168824, Pitch_bend_c, 1, 9908
1, 168832, Pitch_bend_c, 1, 10040
1, 168840, Note_off_c, 2, 98, 84
1, 168840, Note_off_c, 2, 86, 91
1, 168840, Pitch_bend_c, 1, 10172
1, 168848, Pitch_bend_c, 1, 10305
1, 168852, Note_off_c, 1, 31, 115
1, 168856, Note_off_c, 3, 69, 68
1, 168856, Pitch_bend_c, 1, 10437
1, 168864, Note_on_c, 3, 67, 53
1, 168864, Pitch_bend_c, 1, 10569
1, 168864, Note_on_c, 9, 54, 46
1, 168864, Note_on_c, 9, 69, 33
1, 168868, Note_off_c, 9, 69, 33
1, 168868, Note_off_c, 9, 54, 46
1, 168872, Pitch_bend_c, 1, 10701
1, 168880, Pitch_bend_c, 1, 10833
1, 168888, Pitch_bend_c, 1, 10965
1, 168896, Pitch_bend_c, 1, 11097
1, 168904, Pitch_bend_c, 1, 11229
1, 168912, Pitch_bend_c, 1, 11361
1, 168920, Pitch_bend_c, 1, 11493
1, 168928, Pitch_bend_c, 1, 11625
1, 168936, Pitch_bend_c, 1, 11757
1, 168944, Pitch_bend_c, 1, 8192
1, 168952, Note_off_c, 3, 67, 53
1, 168960, Tempo, 504200
1, 168960, Note_on_c, 14, 60, 123
1, 168960, Note_on_c, 14, 72, 114
1, 168960, Note_on_c, 15, 60, 110
1, 168960, Note_on_c, 8, 48, 119
1, 168960, Note_on_c, 7, 60, 116
1, 168960, Note_on_c, 7, 64, 110
1, 168960, Note_on_c, 7, 67, 121
1, 168960, Note_on_c, 3, 72, 64
1, 168960, Note_on_c, 2, 72, 89
1, 168960, Note_on_c, 2, 84, 81
1, 168960, Note_on_c, 1, 36, 114
1, 168960, Note_on_c, 9, 36, 124
1, 168960, Note_on_c, 9, 42, 89
1, 168960, Note_on_c, 9, 54, 31
1, 168960, Note_on_c, 9, 69, 37
1, 168964, Note_off_c, 9, 69, 37
1, 168964, Note_off_c, 9, 54, 31
1, 168964, Note_off_c, 9, 42, 89
1, 168964, Note_off_c, 9, 36, 124
1, 169048, Note_off_c, 3, 72, 64
1, 169048, Pitch_bend_c, 1, 8192
1, 169056, Note_on_c, 3, 72, 54
1, 169056, Pitch_bend_c, 1, 8009
1, 169056, Note_on_c, 9, 54, 33
1, 169060, Note_off_c, 9, 54, 33
1, 169064, Pitch_bend_c, 1, 7827
1, 169072, Pitch_bend_c, 1, 7644
1, 169080, Pitch_bend_c, 1, 7461
1, 169088, Pitch_bend_c, 1, 7278
1, 169096, Pitch_bend_c, 1, 7096
1, 169104, Pitch_bend_c, 1, 6913
1, 169112, Pitch_bend_c, 1, 6730
1, 169120, Pitch_bend_c, 1, 6548
1, 169124, Note_off_c, 15, 60, 110
1, 169128, Pitch_bend_c, 1, 6365
1, 169136, Note_off_c, 14, 72, 114
1, 169136, Note_off_c, 14, 60, 123
1, 169136, Pitch_bend_c, 1, 6182
1, 169144, Note_off_c, 3, 72, 54
1, 169144, Note_off_c, 2, 84, 81
1, 169144, Note_off_c, 2, 72, 89
1, 169144, Note_off_c, 7, 67, 121
1, 169144, Note_off_c, 7, 64, 110
1, 169144, Note_off_c, 7, 60, 116
1, 169144, Note_off_c, 8, 48, 119
1, 169144, Pitch_bend_c, 1, 6000
1, 169152, Note_on_c, 14, 57, 126
1, 169152, Note_on_c, 14, 69, 124
1, 169152, Note_on_c, 15, 57, 115
1, 169152, Note_on_c, 3, 72, 59
1, 169152, Note_on_c, 2, 79, 78
1, 169152, Note_on_c, 2, 91, 95
1, 169152, Pitch_bend_c, 1, 5817
1, 169152, Note_on_c, 9, 42, 76
1, 169152, Note_on_c, 9, 54, 32
1, 169152, Note_on_c, 9, 69, 49
1, 169156, Note_off_c, 9, 69, 49
1, 169156, Note_off_c, 9, 54, 32
1, 169156, Note_off_c, 9, 42, 76
1, 169160, Pitch_bend_c, 1, 5634
1, 169168, Pitch_bend_c, 1, 5451
1, 169176, Pitch_bend_c, 1, 5269
1, 169184, Pitch_bend_c, 1, 5086
1, 169192, Pitch_bend_c, 1, 4903
1, 169200, Pitch_bend_c, 1, 4720
1, 169208, Pitch_bend_c, 1, 4538
1, 169216, Pitch_bend_c, 1, 4355
1, 169224, Pitch_bend_c, 1, 4172
1, 169232, Pitch_bend_c, 1, 3990
1, 169236, Note_off_c, 1, 36, 114
1, 169240, Note_off_c, 3, 72, 59
1, 169240, Pitch_bend_c, 1, 3807
1, 169248, Note_on_c, 3, 72, 59
1, 169248, Pitch_bend_c, 1, 3624
1, 169248, Note_on_c, 9, 54, 35
1, 169248, Note_on_c, 9, 69, 44
1, 169252, Note_off_c, 9, 69, 44
1, 169252, Note_off_c, 9, 54, 35
1, 169256, Pitch_bend_c, 1, 3441
1, 169264, Pitch_bend_c, 1, 3259
1, 169272, Pitch_bend_c, 1, 3076
1, 169280, Pitch_bend_c, 1, 8192
1, 169324, Note_off_c, 15, 57, 115
1, 169328, Note_off_c, 14, 69, 124
1, 169328, Note_off_c, 14, 57, 126
1, 169336, Note_off_c, 3, 72, 59
1, 169336, Note_off_c, 2, 91, 95
1, 169336, Note_off_c, 2, 79, 78
1, 169344, Note_on_c, 14, 60, 113
1, 169344, Note_on_c, 14, 72, 115
1, 169344, Note_on_c, 15, 57, 124
1, 169344, Note_on_c, 8, 52, 122
1, 169344, Note_on_c, 7, 60, 114
1, 169344, Note_on_c, 7, 64, 103
1, 169344, Note_on_c, 7, 67, 120
1, 169344, Note_on_c, 3, 72, 61
1, 169344, Note_on_c, 2, 76, 85
1, 169344, Note_on_c, 2, 88, 93
1, 169344, Note_on_c, 9, 39, 93
1, 169344, Note_on_c, 1, 28, 115
1, 169344, Note_on_c, 9, 36, 121
1, 169344, Note_on_c, 9, 38, 115
1, 169344, Note_on_c, 9, 42, 81
1, 169344, Note_on_c, 9, 54, 39
1, 169344, Note_on_c, 9, 69, 31
1, 169348, Note_off_c, 9, 69, 31
1, 169348, Note_off_c, 9, 54, 39
1, 169348, Note_off_c, 9, 42, 81
1, 169348, Note_off_c, 9, 38, 115
1, 169348, Note_off_c, 9, 36, 121
1, 169348, Note_off_c, 9, 39, 93
1, 169432, Note_off_c, 3, 72, 61
1, 169432, Note_off_c, 7, 67, 120
1, 169432, Note_off_c, 7, 64, 103
1, 169432, Note_off_c, 7, 60, 114
1, 169432, Note_off_c, 8, 52, 122
1, 169440, Note_on_c, 3, 72, 56
1, 169440, Note_on_c, 9, 54, 47
1, 169444, Note_off_c, 9, 54, 47
1, 169524, Note_off_c, 1, 28, 115
1, 169528, Note_off_c, 3, 72, 56
1, 169528, Note_off_c, 2, 88, 93
1, 169528, Note_off_c, 2, 76, 85
1, 169536, Note_on_c, 8, 53, 127
1, 169536, Note_on_c, 7, 60, 107
1, 169536, Note_on_c, 7, 65, 122
1, 169536, Note_on_c, 7, 69, 106
1, 169536, Note_on_c, 3, 72, 68
1, 169536, Note_on_c, 2, 77, 94
1, 169536, Note_on_c, 2, 89, 82
1, 169536, Note_on_c, 1, 29, 111
1, 169536, Note_on_c, 9, 42, 82
1, 169536, Note_on_c, 9, 54, 32
1, 169536, Note_on_c, 9, 69, 38
1, 169540, Note_off_c, 9, 69, 38
1, 169540, Note_off_c, 9, 54, 32
1, 169540, Note_off_c, 9, 42, 82
1, 169624, Note_off_c, 3, 72, 68
1, 169624, Note_off_c, 7, 69, 106
1, 169624, Note_off_c, 7, 65, 122
1, 169624, Note_off_c, 7, 60, 107
1, 169624, Note_off_c, 8, 53, 127
1, 169632, Note_on_c, 3, 72, 51
1, 169632, Note_on_c, 9, 54, 46
1, 169632, Note_on_c, 9, 69, 43
1, 169636, Note_off_c, 9, 69, 43
1, 169636, Note_off_c, 9, 54, 46
1, 169684, Note_off_c, 15, 57, 124
1, 169712, Note_off_c, 14, 72, 115
1, 169712, Note_off_c, 14, 60, 113
1, 169716, Note_off_c, 1, 29, 111
1, 169720, Note_off_c, 3, 72, 51
1, 169720, Note_off_c, 2, 89, 82
1, 169720, Note_off_c, 2, 77, 94
1, 169728, Note_on_c, 14, 60, 115
1, 169728, Note_on_c, 14, 72, 127
1, 169728, Note_on_c, 15, 60, 122
1, 169728, Note_on_c, 3, 72, 57
1, 169728, Note_on_c, 2, 84, 90
1, 169728, Note_on_c, 2, 96, 85
1, 169728, Note_on_c, 9, 36, 120
1, 169728, Note_on_c, 9, 42, 83
1, 169728, Note_on_c, 9, 54, 49
1, 169728, Note_on_c, 9, 69, 48
1, 169732, Note_off_c, 9, 69, 48
1, 169732, Note_off_c, 9, 54, 49
1, 169732, Note_off_c, 9, 42, 83
1, 169732, Note_off_c, 9, 36, 120
1, 169816, Note_off_c, 3, 72, 57
1, 169824, Note_on_c, 3, 72, 62
1, 169824, Note_on_c, 9, 54, 44
1, 169828, Note_off_c, 9, 54, 44
1, 169896, Note_off_c, 15, 60, 122
1, 169904, Note_off_c, 14, 72, 127
1, 169904, Note_off_c, 14, 60, 115
1, 169912, Note_off_c, 3, 72, 62
1, 169912, Note_off_c, 2, 96, 85
1, 169912, Note_off_c, 2, 84, 90
1, 169920, Note_on_c, 14, 57, 111
1, 169920, Note_on_c, 14, 69, 127
1, 169920, Note_on_c, 15, 57, 125
1, 169920, Note_on_c, 8, 52, 115
1, 169920, Note_on_c, 7, 60, 118
1, 169920, Note_on_c, 7, 64, 111
1, 169920, Note_on_c, 7, 67, 115
1, 169920, Note_on_c, 3, 72, 58
1, 169920, Note_on_c, 2, 89, 93
1, 169920, Note_on_c, 2, 101, 88
1, 169920, Note_on_c, 1, 28, 113
1, 169920, Note_on_c, 9, 42, 86
1, 169920, Note_on_c, 9, 54, 42
1, 169920, Note_on_c, 9, 69, 47
1, 169924, Note_off_c, 9, 69, 47
1, 169924, Note_off_c, 9, 54, 42
1, 169924, Note_off_c, 9, 42, 86
1, 170008, Note_off_c, 3, 72, 58
1, 170008, Note_off_c, 7, 67, 115
1, 170008, Note_off_c, 7, 64, 111
1, 170008, Note_off_c, 7, 60, 118
1, 170008, Note_off_c, 8, 52, 115
1, 170016, Note_on_c, 3, 72, 69
1, 170016, Note_on_c, 9, 54, 40
1, 170016, Note_on_c, 9, 69, 32
1, 170020, Note_off_c, 9, 69, 32
1, 170020, Note_off_c, 9, 54, 40
1, 170088, Note_off_c, 15, 57, 125
1, 170096, Note_off_c, 14, 69, 127
1, 170096, Note_off_c, 14, 57, 111
1, 170100, Note_off_c, 1, 28, 113
1, 170104, Note_off_c, 3, 72, 69
1, 170104, Note_off_c, 2, 101, 88
1, 170104, Note_off_c, 2, 89, 93
1, 170112, Note_on_c, 14, 60, 125
1, 170112, Note_on_c, 14, 72, 124
1, 170112, Note_on_c, 15, 57, 112
1, 170112, Note_on_c, 3, 72, 57
1, 170112, Note_on_c, 9, 39, 90
1, 170112, Note_on_c, 9, 36, 114
1, 170112, Note_on_c, 9, 38, 110
1, 170112, Note_on_c, 9, 42, 76
1, 170112, Note_on_c, 9, 54, 33
1, 170112, Note_on_c, 9, 69, 39
1, 170116, Note_off_c, 9, 69, 39
1, 170116, Note_off_c, 9, 54, 33
1, 170116, Note_off_c, 9, 42, 76
1, 170116, Note_off_c, 9, 38, 110
1, 170116, Note_off_c, 9, 36, 114
1, 170116, Note_off_c, 9, 39, 90
1, 170200, Note_off_c, 3, 72, 57
1, 170208, Note_on_c, 3, 72, 61
1, 170208, Note_on_c, 9, 54, 42
1, 170212, Note_off_c, 9, 54, 42
1, 170296, Note_off_c, 3, 72, 61
1, 170304, Note_on_c, 8, 53, 116
1, 170304, Note_on_c, 7, 60, 118
1, 170304, Note_on_c, 7, 65, 115
1, 170304, Note_on_c, 7, 69, 111
1, 170304, Note_on_c, 3, 72, 66
1, 170304, Note_on_c, 2, 88, 85
1, 170304, Note_on_c, 2, 100, 90
1, 170304, Note_on_c, 1, 29, 116
1, 170304, Note_on_c, 9, 42, 90
1, 170304, Note_on_c, 9, 54, 33
1, 170304, Note_on_c, 9, 69, 33
1, 170308, Note_off_c, 9, 69, 33
1, 170308, Note_off_c, 9, 54, 33
1, 170308, Note_off_c, 9, 42, 90
1, 170392, Note_off_c, 3, 72, 66
1, 170392, Note_off_c, 7, 69, 111
1, 170392, Note_off_c, 7, 65, 115
1, 170392, Note_off_c, 7, 60, 118
1, 170392, Note_off_c, 8, 53, 116
1, 170400, Note_on_c, 3, 72, 52
1, 170400, Note_on_c, 9, 54, 32
1, 170400, Note_on_c, 9, 69, 48
1, 170404, Note_off_c, 9, 69, 48
1, 170404, Note_off_c, 9, 54, 32
1, 170472, Note_off_c, 15, 57, 112
1, 170480, Note_off_c, 14, 72, 124
1, 170480, Note_off_c, 14, 60, 125
1, 170484, Note_off_c, 1, 29, 116
1, 170488, Note_off_c, 3, 72, 52
1, 170488, Note_off_c, 2, 100, 90
1, 170488, Note_off_c, 2, 88, 85
1, 170496, Note_on_c, 14, 60, 119
1, 170496, Note_on_c, 14, 72, 122
1, 170496, Note_on_c, 15, 60, 127
1, 170496, Note_on_c, 3, 72, 50
1, 170496, Note_on_c, 9, 36, 124
1, 170496, Note_on_c, 9, 42, 89
1, 170496, Note_on_c, 9, 54, 37
1, 170496, Note_on_c, 9, 69, 37
1, 170500, Note_off_c, 9, 69, 37
1, 170500, Note_off_c, 9, 54, 37
1, 170500, Note_off_c, 9, 42, 89
1, 170500, Note_off_c, 9, 36, 124
1, 170584, Note_off_c, 3, 72, 50
1, 170592, Note_on_c, 3, 72, 57
1, 170592, Note_on_c, 9, 54, 35
1, 170596, Note_off_c, 9, 54, 35
1, 170680, Note_off_c, 3, 72, 57
1, 170688, Note_on_c, 8, 52, 127
1, 170688, Note_on_c, 7, 60, 108
1, 170688, Note_on_c, 7, 64, 113
1, 170688, Note_on_c, 7, 67, 107
1, 170688, Note_on_c, 3, 72, 68
1, 170688, Note_on_c, 2, 84, 96
1, 170688, Note_on_c, 2, 96, 90
1, 170688, Note_on_c, 1, 28, 115
1, 170688, Note_on_c, 9, 42, 76
1, 170688, Note_on_c, 9, 54, 35
1, 170688, Note_on_c, 9, 69, 43
1, 170692, Note_off_c, 9, 69, 43
1, 170692, Note_off_c, 9, 54, 35
1, 170692, Note_off_c, 9, 42, 76
1, 170776, Note_off_c, 3, 72, 68
1, 170776, Note_off_c, 7, 67, 107
1, 170776, Note_off_c, 7, 64, 113
1, 170776, Note_off_c, 7, 60, 108
1, 170776, Note_off_c, 8, 52, 127
1, 170784, Note_on_c, 3, 72, 52
1, 170784, Note_on_c, 9, 54, 31
1, 170784, Note_on_c, 9, 69, 42
1, 170788, Note_off_c, 9, 69, 42
1, 170788, Note_off_c, 9, 54, 31
1, 170836, Note_off_c, 15, 60, 127
1, 170864, Note_off_c, 14, 72, 122
1, 170864, Note_off_c, 14, 60, 119
1, 170868, Note_off_c, 1, 28, 115
1, 170872, Note_off_c, 3, 72, 52
1, 170872, Note_off_c, 2, 96, 90
1, 170872, Note_off_c, 2, 84, 96
1, 170880, Note_on_c, 14, 60, 111
1, 170880, Note_on_c, 14, 72, 115
1, 170880, Note_on_c, 15, 60, 124
1, 170880, Note_on_c, 3, 72, 67
1, 170880, Note_on_c, 9, 39, 102
1, 170880, Note_on_c, 9, 36, 121
1, 170880, Note_on_c, 9, 38, 115
1, 170880, Note_on_c, 9, 42, 81
1, 170880, Note_on_c, 9, 54, 41
1, 170880, Note_on_c, 9, 69, 47
1, 170884, Note_off_c, 9, 69, 47
1, 170884, Note_off_c, 9, 54, 41
1, 170884, Note_off_c, 9, 42, 81
1, 170884, Note_off_c, 9, 38, 115
1, 170884, Note_off_c, 9, 36, 121
1, 170884, Note_off_c, 9, 39, 102
1, 170968, Note_off_c, 3, 72, 67
1, 170976, Note_on_c, 3, 72, 62
1, 170976, Note_on_c, 9, 54, 47
1, 170980, Note_off_c, 9, 54, 47
1, 171064, Note_off_c, 3, 72, 62
1, 171072, Note_on_c, 8, 53, 126
1, 171072, Note_on_c, 7, 60, 115
1, 171072, Note_on_c, 7, 65, 113
1, 171072, Note_on_c, 7, 69, 108
1, 171072, Note_on_c, 3, 72, 50
1, 171072, Note_on_c, 2, 79, 97
1, 171072, Note_on_c, 2, 91, 78
1, 171072, Note_on_c, 1, 29, 113
1, 171072, Note_on_c, 9, 42, 82
1, 171072, Note_on_c, 9, 54, 32
1, 171072, Note_on_c, 9, 69, 48
1, 171076, Note_off_c, 9, 69, 48
1, 171076, Note_off_c, 9, 54, 32
1, 171076, Note_off_c, 9, 42, 82
1, 171160, Note_off_c, 3, 72, 50
1, 171160, Note_off_c, 7, 69, 108
1, 171160, Note_off_c, 7, 65, 113
1, 171160, Note_off_c, 7, 60, 115
1, 171160, Note_off_c, 8, 53, 126
1, 171168, Note_on_c, 3, 72, 55
1, 171168, Note_on_c, 9, 54, 49
1, 171168, Note_on_c, 9, 69, 43
1, 171172, Note_off_c, 9, 69, 43
1, 171172, Note_off_c, 9, 54, 49
1, 171204, Note_off_c, 1, 29, 113
1, 171232, Note_off_c, 15, 60, 124
1, 171248, Note_off_c, 14, 72, 115
1, 171248, Note_off_c, 14, 60, 111
1, 171256, Note_off_c, 3, 72, 55
1, 171256, Note_off_c, 2, 91, 78
1, 171256, Note_off_c, 2, 79, 97
1, 171264, Note_on_c, 14, 64, 119
1, 171264, Note_on_c, 14, 76, 122
1, 171264, Note_on_c, 15, 64, 118
1, 171264, Note_on_c, 8, 55, 127
1, 171264, Note_on_c, 7, 62, 108
1, 171264, Note_on_c, 7, 67, 104
1, 171264, Note_on_c, 7, 71, 111
1, 171264, Note_on_c, 3, 72, 51
1, 171264, Note_on_c, 1, 31, 100
1, 171264, Note_on_c, 9, 36, 120
1, 171264, Note_on_c, 9, 42, 83
1, 171264, Note_on_c, 9, 54, 40
1, 171264, Note_on_c, 9, 69, 37
1, 171268, Note_off_c, 9, 69, 37
1, 171268, Note_off_c, 9, 54, 40
1, 171268, Note_off_c, 9, 42, 83
1, 171268, Note_off_c, 9, 36, 120
1, 171352, Note_off_c, 3, 72, 51
1, 171360, Note_on_c, 3, 72, 50
1, 171360, Note_on_c, 9, 54, 33
1, 171364, Note_off_c, 9, 54, 33
1, 171444, Note_off_c, 1, 31, 100
1, 171448, Note_off_c, 3, 72, 50
1, 171448, Note_off_c, 7, 71, 111
1, 171448, Note_off_c, 7, 67, 104
1, 171448, Note_off_c, 7, 62, 108
1, 171448, Note_off_c, 8, 55, 127
1, 171456, Note_on_c, 3, 67, 54
1, 171456, Note_on_c, 9, 42, 86
1, 171456, Note_on_c, 9, 54, 37
1, 171456, Note_on_c, 9, 69, 47
1, 171460, Note_off_c, 9, 69, 47
1, 171460, Note_off_c, 9, 54, 37
1, 171460, Note_off_c, 9, 42, 86
1, 171544, Note_off_c, 3, 67, 54
1, 171552, Note_on_c, 9, 54, 37
1, 171552, Note_on_c, 9, 69, 47
1, 171556, Note_off_c, 9, 69, 47
1, 171556, Note_off_c, 9, 54, 37
1, 171632, Note_off_c, 15, 64, 118
1, 171632, Note_off_c, 14, 76, 122
1, 171632, Note_off_c, 14, 64, 119
1, 171648, Note_on_c, 14, 62, 117
1, 171648, Note_on_c, 14, 74, 127
1, 171648, Note_on_c, 15, 62, 119
1, 171648, Note_on_c, 8, 55, 127
1, 171648, Note_on_c, 7, 62, 104
1, 171648, Note_on_c, 7, 67, 109
1, 171648, Note_on_c, 7, 71, 116
1, 171648, Note_on_c, 3, 67, 64
1, 171648, Note_on_c, 2, 86, 81
1, 171648, Note_on_c, 2, 98, 90
1, 171648, Note_on_c, 9, 39, 90
1, 171648, Note_on_c, 1, 31, 102
1, 171648, Note_on_c, 9, 36, 114
1, 171648, Note_on_c, 9, 38, 110
1, 171648, Note_on_c, 9, 42, 76
1, 171648, Note_on_c, 9, 54, 34
1, 171648, Note_on_c, 9, 69, 45
1, 171652, Note_off_c, 9, 69, 45
1, 171652, Note_off_c, 9, 54, 34
1, 171652, Note_off_c, 9, 42, 76
1, 171652, Note_off_c, 9, 38, 110
1, 171652, Note_off_c, 9, 36, 114
1, 171652, Note_off_c, 9, 39, 90
1, 171736, Note_off_c, 3, 67, 64
1, 171744, Note_on_c, 3, 69, 63
1, 171744, Note_on_c, 9, 54, 46
1, 171748, Note_off_c, 9, 54, 46
1, 171792, Pitch_bend_c, 1, 8192
1, 171800, Pitch_bend_c, 1, 8323
1, 171808, Pitch_bend_c, 1, 8456
1, 171816, Pitch_bend_c, 1, 8588
1, 171820, Note_off_c, 15, 62, 119
1, 171824, Note_off_c, 14, 74, 127
1, 171824, Note_off_c, 14, 62, 117
1, 171824, Pitch_bend_c, 1, 8720
1, 171832, Note_off_c, 3, 69, 63
1, 171832, Note_off_c, 7, 71, 116
1, 171832, Note_off_c, 7, 67, 109
1, 171832, Note_off_c, 7, 62, 104
1, 171832, Note_off_c, 8, 55, 127
1, 171832, Pitch_bend_c, 1, 8852
1, 171840, Note_on_c, 14, 60, 127
1, 171840, Note_on_c, 14, 72, 125
1, 171840, Note_on_c, 15, 60, 124
1, 171840, Note_on_c, 3, 72, 60
1, 171840, Pitch_bend_c, 1, 8984
1, 171840, Note_on_c, 9, 42, 90
1, 171840, Note_on_c, 9, 54, 44
1, 171840, Note_on_c, 9, 69, 44
1, 171844, Note_off_c, 9, 69, 44
1, 171844, Note_off_c, 9, 54, 44
1, 171844, Note_off_c, 9, 42, 90
1, 171848, Pitch_bend_c, 1, 9116
1, 171856, Pitch_bend_c, 1, 9248
1, 171864, Pitch_bend_c, 1, 9380
1, 171872, Pitch_bend_c, 1, 9512
1, 171880, Pitch_bend_c, 1, 9644
1, 171888, Pitch_bend_c, 1, 9776
1, 171896, Pitch_bend_c, 1, 9908
1, 171904, Pitch_bend_c, 1, 10040
1, 171912, Note_off_c, 2, 98, 90
1, 171912, Note_off_c, 2, 86, 81
1, 171912, Pitch_bend_c, 1, 10172
1, 171920, Pitch_bend_c, 1, 10305
1, 171924, Note_off_c, 1, 31, 102
1, 171928, Note_off_c, 3, 72, 60
1, 171928, Pitch_bend_c, 1, 10437
1, 171936, Note_on_c, 3, 74, 66
1, 171936, Pitch_bend_c, 1, 10569
1, 171936, Note_on_c, 9, 54, 33
1, 171936, Note_on_c, 9, 69, 39
1, 171940, Note_off_c, 9, 69, 39
1, 171940, Note_off_c, 9, 54, 33
1, 171944, Pitch_bend_c, 1, 10701
1, 171952, Pitch_bend_c, 1, 10833
1, 171960, Pitch_bend_c, 1, 10965
1, 171968, Pitch_bend_c, 1, 11097
1, 171976, Pitch_bend_c, 1, 11229
1, 171984, Pitch_bend_c, 1, 11361
1, 171992, Pitch_bend_c, 1, 11493
1, 172000, Pitch_bend_c, 1, 11625
1, 172008, Pitch_bend_c, 1, 11757
1, 172016, Pitch_bend_c, 1, 8192
1, 172024, Note_off_c, 3, 74, 66
1, 172032, Tempo, 500000
1, 172032, Note_on_c, 8, 48, 115
1, 172032, Note_on_c, 7, 60, 111
1, 172032, Note_on_c, 7, 64, 113
1, 172032, Note_on_c, 7, 67, 105
1, 172032, Note_on_c, 3, 72, 50
1, 172032, Note_on_c, 2, 72, 92
1, 172032, Note_on_c, 2, 84, 91
1, 172032, Note_on_c, 1, 36, 111
1, 172032, Note_on_c, 9, 36, 124
1, 172032, Note_on_c, 9, 42, 89
1, 172032, Note_on_c, 9, 54, 43
1, 172032, Note_on_c, 9, 69, 44
1, 172036, Note_off_c, 9, 69, 44
1, 172036, Note_off_c, 9, 54, 43
1, 172036, Note_off_c, 9, 42, 89
1, 172036, Note_off_c, 9, 36, 124
1, 172120, Note_off_c, 3, 72, 50
1, 172120, Pitch_bend_c, 1, 8192
1, 172128, Note_on_c, 3, 72, 64
1, 172128, Pitch_bend_c, 1, 8009
1, 172128, Note_on_c, 9, 54, 49
1, 172132, Note_off_c, 9, 54, 49
1, 172136, Pitch_bend_c, 1, 7827
1, 172144, Pitch_bend_c, 1, 7644
1, 172152, Pitch_bend_c, 1, 7461
1, 172160, Pitch_bend_c, 1, 7278
1, 172168, Pitch_bend_c, 1, 7096
1, 172176, Pitch_bend_c, 1, 6913
1, 172184, Pitch_bend_c, 1, 6730
1, 172192, Pitch_bend_c, 1, 6548
1, 172200, Pitch_bend_c, 1, 6365
1, 172208, Pitch_bend_c, 1, 6182
1, 172216, Note_off_c, 3, 72, 64
1, 172216, Note_off_c, 2, 84, 91
1, 172216, Note_off_c, 2, 72, 92
1, 172216, Note_off_c, 7, 67, 105
1, 172216, Note_off_c, 7, 64, 113
1, 172216, Note_off_c, 7, 60, 111
1, 172216, Note_off_c, 8, 48, 115
1, 172216, Pitch_bend_c, 1, 6000
1, 172224, Note_on_c, 3, 72, 64
1, 172224, Note_on_c, 2, 79, 80
1, 172224, Note_on_c, 2, 91, 81
1, 172224, Pitch_bend_c, 1, 5817
1, 172224, Note_on_c, 9, 42, 76
1, 172224, Note_on_c, 9, 54, 35
1, 172224, Note_on_c, 9, 69, 33
1, 172228, Note_off_c, 9, 69, 33
1, 172228, Note_off_c, 9, 54, 35
1, 172228, Note_off_c, 9, 42, 76
1, 172232, Pitch_bend_c, 1, 5634
1, 172240, Pitch_bend_c, 1, 5451
1, 172248, Pitch_bend_c, 1, 5269
1, 172256, Pitch_bend_c, 1, 5086
1, 172264, Pitch_bend_c, 1, 4903
1, 172272, Pitch_bend_c, 1, 4720
1, 172280, Pitch_bend_c, 1, 4538
1, 172288, Pitch_bend_c, 1, 4355
1, 172296, Pitch_bend_c, 1, 4172
1, 172304, Pitch_bend_c, 1, 3990
1, 172308, Note_off_c, 1, 36, 111
1, 172312, Note_off_c, 3, 72, 64
1, 172312, Pitch_bend_c, 1, 3807
1, 172320, Note_on_c, 3, 72, 53
1, 172320, Pitch_bend_c, 1, 3624
1, 172320, Note_on_c, 9, 54, 49
1, 172320, Note_on_c, 9, 69, 43
1, 172324, Note_off_c, 9, 69, 43
1, 172324, Note_off_c, 9, 54, 49
1, 172328, Pitch_bend_c, 1, 3441
1, 172336, Pitch_bend_c, 1, 3259
1, 172344, Pitch_bend_c, 1, 3076
1, 172352, Pitch_bend_c, 1, 8192
1, 172408, Note_off_c, 3, 72, 53
1, 172408, Note_off_c, 2, 91, 81
1, 172408, Note_off_c, 2, 79, 80
1, 172416, Note_on_c, 8, 52, 127
1, 172416, Note_on_c, 7, 60, 118
1, 172416, Note_on_c, 7, 64, 106
1, 172416, Note_on_c, 7, 67, 106
1, 172416, Note_on_c, 3, 72, 65
1, 172416, Note_on_c, 2, 76, 84
1, 172416, Note_on_c, 2, 88, 96
1, 172416, Note_on_c, 9, 39, 89
1, 172416, Note_on_c, 1, 28, 114
1, 172416, Note_on_c, 9, 36, 121
1, 172416, Note_on_c, 9, 38, 115
1, 172416, Note_on_c, 9, 42, 81
1, 172416, Note_on_c, 9, 54, 31
1, 172416, Note_on_c, 9, 69, 46
1, 172420, Note_off_c, 9, 69, 46
1, 172420, Note_off_c, 9, 54, 31
1, 172420, Note_off_c, 9, 42, 81
1, 172420, Note_off_c, 9, 38, 115
1, 172420, Note_off_c, 9, 36, 121
1, 172420, Note_off_c, 9, 39, 89
1, 172504, Note_off_c, 3, 72, 65
1, 172504, Note_off_c, 7, 67, 106
1, 172504, Note_off_c, 7, 64, 106
1, 172504, Note_off_c, 7, 60, 118
1, 172504, Note_off_c, 8, 52, 127
1, 172512, Note_on_c, 3, 72, 69
1, 172512, Note_on_c, 9, 54, 35
1, 172516, Note_off_c, 9, 54, 35
1, 172596, Note_off_c, 1, 28, 114
1, 172600, Note_off_c, 3, 72, 69
1, 172600, Note_off_c, 2, 88, 96
1, 172600, Note_off_c, 2, 76, 84
1, 172608, Note_on_c, 8, 53, 122
1, 172608, Note_on_c, 7, 60, 109
1, 172608, Note_on_c, 7, 65, 104
1, 172608, Note_on_c, 7, 69, 110
1, 172608, Note_on_c, 3, 72, 63
1, 172608, Note_on_c, 2, 77, 79
1, 172608, Note_on_c, 2, 89, 81
1, 172608, Note_on_c, 1, 29, 114
1, 172608, Note_on_c, 9, 42, 82
1, 172608, Note_on_c, 9, 54, 38
1, 172608, Note_on_c, 9, 69, 42
1, 172612, Note_off_c, 9, 69, 42
1, 172612, Note_off_c, 9, 54, 38
1, 172612, Note_off_c, 9, 42, 82
1, 172696, Note_off_c, 3, 72, 63
1, 172696, Note_off_c, 7, 69, 110
1, 172696, Note_off_c, 7, 65, 104
1, 172696, Note_off_c, 7, 60, 109
1, 172696, Note_off_c, 8, 53, 122
1, 172704, Note_on_c, 3, 72, 52
1, 172704, Note_on_c, 9, 54, 30
1, 172704, Note_on_c, 9, 69, 30
1, 172708, Note_off_c, 9, 69, 30
1, 172708, Note_off_c, 9, 54, 30
1, 172788, Note_off_c, 1, 29, 114
1, 172792, Note_off_c, 3, 72, 52
1, 172792, Note_off_c, 2, 89, 81
1, 172792, Note_off_c, 2, 77, 79
1, 172800, Note_on_c, 3, 72, 66
1, 172800, Note_on_c, 2, 84, 94
1, 172800, Note_on_c, 2, 96, 91
1, 172800, Note_on_c, 9, 36, 120
1, 172800, Note_on_c, 9, 42, 83
1, 172800, Note_on_c, 9, 54, 47
1, 172800, Note_on_c, 9, 69, 30
1, 172804, Note_off_c, 9, 69, 30
1, 172804, Note_off_c, 9, 54, 47
1, 172804, Note_off_c, 9, 42, 83
1, 172804, Note_off_c, 9, 36, 120
1, 172888, Note_off_c, 3, 72, 66
1, 172896, Note_on_c, 3, 72, 59
1, 172896, Note_on_c, 9, 54, 34
1, 172900, Note_off_c, 9, 54, 34
1, 172984, Note_off_c, 3, 72, 59
1, 172984, Note_off_c, 2, 96, 91
1, 172984, Note_off_c, 2, 84, 94
1, 172992, Note_on_c, 8, 52, 117
1, 172992, Note_on_c, 7, 60, 119
1, 172992, Note_on_c, 7, 64, 103
1, 172992, Note_on_c, 7, 67, 118
1, 172992, Note_on_c, 3, 72, 54
1, 172992, Note_on_c, 2, 89, 84
1, 172992, Note_on_c, 2, 101, 96
1, 172992, Note_on_c, 1, 28, 108
1, 172992, Note_on_c, 9, 42, 86
1, 172992, Note_on_c, 9, 54, 40
1, 172992, Note_on_c, 9, 69, 49
1, 172996, Note_off_c, 9, 69, 49
1, 172996, Note_off_c, 9, 54, 40
1, 172996, Note_off_c, 9, 42, 86
1, 173072, Note_off_c, 14, 72, 125
1, 173072, Note_off_c, 14, 60, 127
1, 173076, Note_off_c, 15, 60, 124
1, 173080, Note_off_c, 3, 72, 54
1, 173080, Note_off_c, 7, 67, 118
1, 173080, Note_off_c, 7, 64, 103
1, 173080, Note_off_c, 7, 60, 119
1, 173080, Note_off_c, 8, 52, 117
1, 173088, Note_on_c, 3, 72, 66
1, 173088, Note_on_c, 9, 54, 45
1, 173088, Note_on_c, 9, 69, 31
1, 173092, Note_off_c, 9, 69, 31
1, 173092, Note_off_c, 9, 54, 45
1, 173172, Note_off_c, 1, 28, 108
1, 173176, Note_off_c, 3, 72, 66
1, 173176, Note_off_c, 2, 101, 96
1, 173176, Note_off_c, 2, 89, 84
1, 173184, Note_on_c, 3, 72, 53
1, 173184, Note_on_c, 9, 39, 85
1, 173184, Note_on_c, 9, 36, 114
1, 173184, Note_on_c, 9, 38, 110
1, 173184, Note_on_c, 9, 42, 76
1, 173184, Note_on_c, 9, 54, 33
1, 173184, Note_on_c, 9, 69, 36
1, 173188, Note_off_c, 9, 69, 36
1, 173188, Note_off_c, 9, 54, 33
1, 173188, Note_off_c, 9, 42, 76
1, 173188, Note_off_c, 9, 38, 110
1, 173188, Note_off_c, 9, 36, 114
1, 173188, Note_off_c, 9, 39, 85
1, 173272, Note_off_c, 3, 72, 53
1, 173280, Note_on_c, 3, 72, 69
1, 173280, Note_on_c, 9, 54, 30
1, 173284, Note_off_c, 9, 54, 30
1, 173368, Note_off_c, 3, 72, 69
1, 173376, Note_on_c, 8, 53, 127
1, 173376, Note_on_c, 7, 60, 105
1, 173376, Note_on_c, 7, 65, 119
1, 173376, Note_on_c, 7, 69, 109
1, 173376, Note_on_c, 3, 72, 65
1, 173376, Note_on_c, 2, 88, 97
1, 173376, Note_on_c, 2, 100, 91
1, 173376, Note_on_c, 1, 29, 110
1, 173376, Note_on_c, 9, 42, 90
1, 173376, Note_on_c, 9, 54, 48
1, 173376, Note_on_c, 9, 69, 35
1, 173380, Note_off_c, 9, 69, 35
1, 173380, Note_off_c, 9, 54, 48
1, 173380, Note_off_c, 9, 42, 90
1, 173464, Note_off_c, 3, 72, 65
1, 173464, Note_off_c, 7, 69, 109
1, 173464, Note_off_c, 7, 65, 119
1, 173464, Note_off_c, 7, 60, 105
1, 173464, Note_off_c, 8, 53, 127
1, 173472, Note_on_c, 3, 72, 61
1, 173472, Note_on_c, 9, 54, 37
1, 173472, Note_on_c, 9, 69, 32
1, 173476, Note_off_c, 9, 69, 32
1, 173476, Note_off_c, 9, 54, 37
1, 173556, Note_off_c, 1, 29, 110
1, 173560, Note_off_c, 3, 72, 61
1, 173560, Note_off_c, 2, 100, 91
1, 173560, Note_off_c, 2, 88, 97
1, 173568, Note_on_c, 3, 72, 63
1, 173568, Note_on_c, 9, 36, 124
1, 173568, Note_on_c, 9, 42, 89
1, 173568, Note_on_c, 9, 54, 46
1, 173568, Note_on_c, 9, 69, 42
1, 173572, Note_off_c, 9, 69, 42
1, 173572, Note_off_c, 9, 54, 46
1, 173572, Note_off_c, 9, 42, 89
1, 173572, Note_off_c, 9, 36, 124
1, 173656, Note_off_c, 3, 72, 63
1, 173664, Note_on_c, 3, 72, 63
1, 173664, Note_on_c, 9, 54, 35
1, 173668, Note_off_c, 9, 54, 35
1, 173752, Note_off_c, 3, 72, 63
1, 173760, Note_on_c, 8, 52, 118
1, 173760, Note_on_c, 7, 60, 114
1, 173760, Note_on_c, 7, 64, 122
1, 173760, Note_on_c, 7, 67, 119
1, 173760, Note_on_c, 3, 72, 50
1, 173760, Note_on_c, 2, 84, 94
1, 173760, Note_on_c, 2, 96, 82
1, 173760, Note_on_c, 1, 28, 118
1, 173760, Note_on_c, 9, 42, 76
1, 173760, Note_on_c, 9, 54, 31
1, 173760, Note_on_c, 9, 69, 37
1, 173764, Note_off_c, 9, 69, 37
1, 173764, Note_off_c, 9, 54, 31
1, 173764, Note_off_c, 9, 42, 76
1, 173848, Note_off_c, 3, 72, 50
1, 173848, Note_off_c, 7, 67, 119
1, 173848, Note_off_c, 7, 64, 122
1, 173848, Note_off_c, 7, 60, 114
1, 173848, Note_off_c, 8, 52, 118
1, 173856, Note_on_c, 3, 72, 68
1, 173856, Note_on_c, 9, 54, 48
1, 173856, Note_on_c, 9, 69, 44
1, 173860, Note_off_c, 9, 69, 44
1, 173860, Note_off_c, 9, 54, 48
1, 173940, Note_off_c, 1, 28, 118
1, 173944, Note_off_c, 3, 72, 68
1, 173944, Note_off_c, 2, 96, 82
1, 173944, Note_off_c, 2, 84, 94
1, 173952, Note_on_c, 3, 72, 65
1, 173952, Note_on_c, 9, 39, 102
1, 173952, Note_on_c, 9, 36, 121
1, 173952, Note_on_c, 9, 38, 115
1, 173952, Note_on_c, 9, 42, 81
1, 173952, Note_on_c, 9, 54, 48
1, 173952, Note_on_c, 9, 69, 34
1, 173956, Note_off_c, 9, 69, 34
1, 173956, Note_off_c, 9, 54, 48
1, 173956, Note_off_c, 9, 42, 81
1, 173956, Note_off_c, 9, 38, 115
1, 173956, Note_off_c, 9, 36, 121
1, 173956, Note_off_c, 9, 39, 102
1, 174040, Note_off_c, 3, 72, 65
1, 174048, Note_on_c, 3, 72, 57
1, 174048, Note_on_c, 9, 54, 46
1, 174052, Note_off_c, 9, 54, 46
1, 174136, Note_off_c, 3, 72, 57
1, 174144, Note_on_c, 8, 53, 127
1, 174144, Note_on_c, 7, 60, 117
1, 174144, Note_on_c, 7, 65, 114
1, 174144, Note_on_c, 7, 69, 103
1, 174144, Note_on_c, 3, 72, 50
1, 174144, Note_on_c, 2, 79, 86
1, 174144, Note_on_c, 2, 91, 78
1, 174144, Note_on_c, 1, 29, 114
1, 174144, Note_on_c, 9, 42, 82
1, 174144, Note_on_c, 9, 54, 33
1, 174144, Note_on_c, 9, 69, 44
1, 174148, Note_off_c, 9, 69, 44
1, 174148, Note_off_c, 9, 54, 33
1, 174148, Note_off_c, 9, 42, 82
1, 174232, Note_off_c, 3, 72, 50
1, 174232, Note_off_c, 7, 69, 103
1, 174232, Note_off_c, 7, 65, 114
1, 174232, Note_off_c, 7, 60, 117
1, 174232, Note_off_c, 8, 53, 127
1, 174240, Note_on_c, 3, 72, 55
1, 174240, Note_on_c, 9, 54, 35
1, 174240, Note_on_c, 9, 69, 49
1, 174244, Note_off_c, 9, 69, 49
1, 174244, Note_off_c, 9, 54, 35
1, 174276, Note_off_c, 1, 29, 114
1, 174328, Note_off_c, 3, 72, 55
1, 174328, Note_off_c, 2, 91, 78
1, 174328, Note_off_c, 2, 79, 86
1, 174336, Note_on_c, 8, 55, 127
1, 174336, Note_on_c, 7, 62, 116
1, 174336, Note_on_c, 7, 67, 112
1, 174336, Note_on_c, 7, 71, 120
1, 174336, Note_on_c, 3, 72, 59
1, 174336, Note_on_c, 1, 31, 113
1, 174336, Note_on_c, 9, 36, 120
1, 174336, Note_on_c, 9, 42, 83
1, 174336, Note_on_c, 9, 54, 32
1, 174336, Note_on_c, 9, 69, 31
1, 174340, Note_off_c, 9, 69, 31
1, 174340, Note_off_c, 9, 54, 32
1, 174340, Note_off_c, 9, 42, 83
1, 174340, Note_off_c, 9, 36, 120
1, 174424, Note_off_c, 3, 72, 59
1, 174432, Note_on_c, 3, 72, 66
1, 174432, Note_on_c, 9, 54, 47
1, 174436, Note_off_c, 9, 54, 47
1, 174516, Note_off_c, 1, 31, 113
1, 174520, Note_off_c, 3, 72, 66
1, 174520, Note_off_c, 7, 71, 120
1, 174520, Note_off_c, 7, 67, 112
1, 174520, Note_off_c, 7, 62, 116
1, 174520, Note_off_c, 8, 55, 127
1, 174528, Note_on_c, 3, 76, 67
1, 174528, Note_on_c, 9, 42, 86
1, 174528, Note_on_c, 9, 54, 34
1, 174528, Note_on_c, 9, 69, 32
1, 174532, Note_off_c, 9, 69, 32
1, 174532, Note_off_c, 9, 54, 34
1, 174532, Note_off_c, 9, 42, 86
1, 174616, Note_off_c, 3, 76, 67
1, 174624, Note_on_c, 9, 54, 47
1, 174624, Note_on_c, 9, 69, 42
1, 174628, Note_off_c, 9, 69, 42
1, 174628, Note_off_c, 9, 54, 47
1, 174720, Note_on_c, 8, 55, 127
1, 174720, Note_on_c, 7, 62, 103
1, 174720, Note_on_c, 7, 67, 103
1, 174720, Note_on_c, 7, 71, 103
1, 174720, Note_on_c, 3, 76, 56
1, 174720, Note_on_c, 2, 86, 93
1, 174720, Note_on_c, 2, 98, 97
1, 174720, Note_on_c, 9, 39, 99
1, 174720, Note_on_c, 1, 31, 111
1, 174720, Note_on_c, 9, 36, 114
1, 174720, Note_on_c, 9, 38, 110
1, 174720, Note_on_c, 9, 42, 76
1, 174720, Note_on_c, 9, 54, 40
1, 174720, Note_on_c, 9, 69, 32
1, 174724, Note_off_c, 9, 69, 32
1, 174724, Note_off_c, 9, 54, 40
1, 174724, Note_off_c, 9, 42, 76
1, 174724, Note_off_c, 9, 38, 110
1, 174724, Note_off_c, 9, 36, 114
1, 174724, Note_off_c, 9, 39, 99
1, 174808, Note_off_c, 3, 76, 56
1, 174816, Note_on_c, 3, 74, 58
1, 174816, Note_on_c, 9, 54, 37
1, 174820, Note_off_c, 9, 54, 37
1, 174864, Pitch_bend_c, 1, 8192
1, 174872, Pitch_bend_c, 1, 8323
1, 174880, Pitch_bend_c, 1, 8456
1, 174888, Pitch_bend_c, 1, 8588
1, 174896, Pitch_bend_c, 1, 8720
1, 174904, Note_off_c, 3, 74, 58
1, 174904, Note_off_c, 7, 71, 103
1, 174904, Note_off_c, 7, 67, 103
1, 174904, Note_off_c, 7, 62, 103
1, 174904, Note_off_c, 8, 55, 127
1, 174904, Pitch_bend_c, 1, 8852
1, 174912, Note_on_c, 3, 69, 50
1, 174912, Pitch_bend_c, 1, 8984
1, 174912, Note_on_c, 9, 42, 90
1, 174912, Note_on_c, 9, 54, 46
1, 174912, Note_on_c, 9, 69, 39
1, 174916, Note_off_c, 9, 69, 39
1, 174916, Note_off_c, 9, 54, 46
1, 174916, Note_off_c, 9, 42, 90
1, 174920, Pitch_bend_c, 1, 9116
1, 174928, Pitch_bend_c, 1, 9248
1, 174936, Pitch_bend_c, 1, 9380
1, 174944, Pitch_bend_c, 1, 9512
1, 174952, Pitch_bend_c, 1, 9644
1, 174960, Pitch_bend_c, 1, 9776
1, 174968, Pitch_bend_c, 1, 9908
1, 174976, Pitch_bend_c, 1, 10040
1, 174984, Note_off_c, 2, 98, 97
1, 174984, Note_off_c, 2, 86, 93
1, 174984, Pitch_bend_c, 1, 10172
1, 174992, Pitch_bend_c, 1, 10305
1, 174996, Note_off_c, 1, 31, 111
1, 175000, Note_off_c, 3, 69, 50
1, 175000, Pitch_bend_c, 1, 10437
1, 175008, Note_on_c, 3, 67, 66
1, 175008, Pitch_bend_c, 1, 10569
1, 175008, Note_on_c, 9, 54, 37
1, 175008, Note_on_c, 9, 69, 34
1, 175012, Note_off_c, 9, 69, 34
1, 175012, Note_off_c, 9, 54, 37
1, 175016, Pitch_bend_c, 1, 10701
1, 175024, Pitch_bend_c, 1, 10833
1, 175032, Pitch_bend_c, 1, 10965
1, 175040, Pitch_bend_c, 1, 11097
1, 175048, Pitch_bend_c, 1, 11229
1, 175056, Pitch_bend_c, 1, 11361
1, 175064, Pitch_bend_c, 1, 11493
1, 175072, Pitch_bend_c, 1, 11625
1, 175080, Pitch_bend_c, 1, 11757
1, 175088, Pitch_bend_c, 1, 8192
1, 175096, Note_off_c, 3, 67, 66
1, 175104, Tempo, 504200
1, 175104, Note_on_c, 14, 60, 116
1, 175104, Note_on_c, 14, 72, 111
1, 175104, Note_on_c, 15, 60, 119
1, 175104, Note_on_c, 8, 48, 116
1, 175104, Note_on_c, 7, 60, 104
1, 175104, Note_on_c, 7, 64, 108
1, 175104, Note_on_c, 7, 67, 114
1, 175104, Note_on_c, 3, 72, 56
1, 175104, Note_on_c, 2, 72, 88
1, 175104, Note_on_c, 2, 84, 83
1, 175104, Note_on_c, 1, 36, 119
1, 175104, Note_on_c, 9, 36, 121
1, 175104, Note_on_c, 9, 42, 83
1, 175104, Note_on_c, 9, 49, 123
1, 175104, Note_on_c, 9, 54, 44
1, 175104, Note_on_c, 9, 69, 45
1, 175108, Note_off_c, 9, 69, 45
1, 175108, Note_off_c, 9, 54, 44
1, 175108, Note_off_c, 9, 49, 123
1, 175108, Note_off_c, 9, 42, 83
1, 175108, Note_off_c, 9, 36, 121
1, 175192, Note_off_c, 3, 72, 56
1, 175192, Pitch_bend_c, 1, 8192
1, 175200, Note_on_c, 3, 72, 63
1, 175200, Pitch_bend_c, 1, 8009
1, 175200, Note_on_c, 9, 54, 32
1, 175204, Note_off_c, 9, 54, 32
1, 175208, Pitch_bend_c, 1, 7827
1, 175216, Pitch_bend_c, 1, 7644
1, 175224, Pitch_bend_c, 1, 7461
1, 175232, Pitch_bend_c, 1, 7278
1, 175240, Pitch_bend_c, 1, 7096
1, 175248, Pitch_bend_c, 1, 6913
1, 175256, Pitch_bend_c, 1, 6730
1, 175264, Pitch_bend_c, 1, 6548
1, 175268, Note_off_c, 15, 60, 119
1, 175272, Pitch_bend_c, 1, 6365
1, 175280, Note_off_c, 14, 72, 111
1, 175280, Note_off_c, 14, 60, 116
1, 175280, Pitch_bend_c, 1, 6182
1, 175288, Note_off_c, 3, 72, 63
1, 175288, Note_off_c, 2, 84, 83
1, 175288, Note_off_c, 2, 72, 88
1, 175288, Note_off_c, 7, 67, 114
1, 175288, Note_off_c, 7, 64, 108
1, 175288, Note_off_c, 7, 60, 104
1, 175288, Note_off_c, 8, 48, 116
1, 175288, Pitch_bend_c, 1, 6000
1, 175296, Note_on_c, 14, 57, 127
1, 175296, Note_on_c, 14, 69, 120
1, 175296, Note_on_c, 15, 57, 110
1, 175296, Note_on_c, 3, 72, 57
1, 175296, Note_on_c, 2, 79, 95
1, 175296, Note_on_c, 2, 91, 92
1, 175296, Pitch_bend_c, 1, 5817
1, 175296, Note_on_c, 9, 42, 79
1, 175296, Note_on_c, 9, 54, 32
1, 175296, Note_on_c, 9, 69, 45
1, 175300, Note_off_c, 9, 69, 45
1, 175300, Note_off_c, 9, 54, 32
1, 175300, Note_off_c, 9, 42, 79
1, 175304, Pitch_bend_c, 1, 5634
1, 175312, Pitch_bend_c, 1, 5451
1, 175320, Pitch_bend_c, 1, 5269
1, 175328, Pitch_bend_c, 1, 5086
1, 175336, Pitch_bend_c, 1, 4903
1, 175344, Pitch_bend_c, 1, 4720
1, 175352, Pitch_bend_c, 1, 4538
1, 175360, Pitch_bend_c, 1, 4355
1, 175368, Pitch_bend_c, 1, 4172
1, 175376, Pitch_bend_c, 1, 3990
1, 175380, Note_off_c, 1, 36, 119
1, 175384, Note_off_c, 3, 72, 57
1, 175384, Pitch_bend_c, 1, 3807
1, 175392, Note_on_c, 3, 72, 61
1, 175392, Pitch_bend_c, 1, 3624
1, 175392, Note_on_c, 9, 54, 34
1, 175392, Note_on_c, 9, 69, 47
1, 175396, Note_off_c, 9, 69, 47
1, 175396, Note_off_c, 9, 54, 34
1, 175400, Pitch_bend_c, 1, 3441
1, 175408, Pitch_bend_c, 1, 3259
1, 175416, Pitch_bend_c, 1, 3076
1, 175424, Pitch_bend_c, 1, 8192
1, 175468, Note_off_c, 15, 57, 110
1, 175472, Note_off_c, 14, 69, 120
1, 175472, Note_off_c, 14, 57, 127
1, 175480, Note_off_c, 3, 72, 61
1, 175480, Note_off_c, 2, 91, 92
1, 175480, Note_off_c, 2, 79, 95
1, 175488, Note_on_c, 14, 60, 123
1, 175488, Note_on_c, 14, 72, 125
1, 175488, Note_on_c, 15, 57, 113
1, 175488, Note_on_c, 8, 52, 122
1, 175488, Note_on_c, 7, 60, 113
1, 175488, Note_on_c, 7, 64, 107
1, 175488, Note_on_c, 7, 67, 115
1, 175488, Note_on_c, 3, 72, 63
1, 175488, Note_on_c, 2, 76, 81
1, 175488, Note_on_c, 2, 88, 82
1, 175488, Note_on_c, 9, 39, 85
1, 175488, Note_on_c, 1, 28, 114
1, 175488, Note_on_c, 9, 36, 122
1, 175488, Note_on_c, 9, 38, 123
1, 175488, Note_on_c, 9, 42, 87
1, 175488, Note_on_c, 9, 54, 40
1, 175488, Note_on_c, 9, 69, 34
1, 175492, Note_off_c, 9, 69, 34
1, 175492, Note_off_c, 9, 54, 40
1, 175492, Note_off_c, 9, 42, 87
1, 175492, Note_off_c, 9, 38, 123
1, 175492, Note_off_c, 9, 36, 122
1, 175492, Note_off_c, 9, 39, 85
1, 175576, Note_off_c, 3, 72, 63
1, 175576, Note_off_c, 7, 67, 115
1, 175576, Note_off_c, 7, 64, 107
1, 175576, Note_off_c, 7, 60, 113
1, 175576, Note_off_c, 8, 52, 122
1, 175584, Note_on_c, 3, 72, 52
1, 175584, Note_on_c, 9, 54, 43
1, 175588, Note_off_c, 9, 54, 43
1, 175668, Note_off_c, 1, 28, 114
1, 175672, Note_off_c, 3, 72, 52
1, 175672, Note_off_c, 2, 88, 82
1, 175672, Note_off_c, 2, 76, 81
1, 175680, Note_on_c, 8, 53, 127
1, 175680, Note_on_c, 7, 60, 113
1, 175680, Note_on_c, 7, 65, 115
1, 175680, Note_on_c, 7, 69, 119
1, 175680, Note_on_c, 3, 72, 56
1, 175680, Note_on_c, 2, 77, 87
1, 175680, Note_on_c, 2, 89, 94
1, 175680, Note_on_c, 1, 29, 106
1, 175680, Note_on_c, 9, 42, 88
1, 175680, Note_on_c, 9, 54, 48
1, 175680, Note_on_c, 9, 69, 42
1, 175684, Note_off_c, 9, 69, 42
1, 175684, Note_off_c, 9, 54, 48
1, 175684, Note_off_c, 9, 42, 88
1, 175768, Note_off_c, 3, 72, 56
1, 175768, Note_off_c, 7, 69, 119
1, 175768, Note_off_c, 7, 65, 115
1, 175768, Note_off_c, 7, 60, 113
1, 175768, Note_off_c, 8, 53, 127
1, 175776, Note_on_c, 3, 72, 52
1, 175776, Note_on_c, 9, 54, 45
1, 175776, Note_on_c, 9, 69, 39
1, 175780, Note_off_c, 9, 69, 39
1, 175780, Note_off_c, 9, 54, 45
1, 175828, Note_off_c, 15, 57, 113
1, 175856, Note_off_c, 14, 72, 125
1, 175856, Note_off_c, 14, 60, 123
1, 175860, Note_off_c, 1, 29, 106
1, 175864, Note_off_c, 3, 72, 52
1, 175864, Note_off_c, 2, 89, 94
1, 175864, Note_off_c, 2, 77, 87
1, 175872, Note_on_c, 14, 60, 127
1, 175872, Note_on_c, 14, 72, 115
1, 175872, Note_on_c, 15, 60, 120
1, 175872, Note_on_c, 3, 72, 52
1, 175872, Note_on_c, 2, 84, 79
1, 175872, Note_on_c, 2, 96, 88
1, 175872, Note_on_c, 9, 36, 124
1, 175872, Note_on_c, 9, 42, 78
1, 175872, Note_on_c, 9, 54, 45
1, 175872, Note_on_c, 9, 69, 39
1, 175876, Note_off_c, 9, 69, 39
1, 175876, Note_off_c, 9, 54, 45
1, 175876, Note_off_c, 9, 42, 78
1, 175876, Note_off_c, 9, 36, 124
1, 175960, Note_off_c, 3, 72, 52
1, 175968, Note_on_c, 3, 72, 63
1, 175968, Note_on_c, 9, 54, 47
1, 175972, Note_off_c, 9, 54, 47
1, 176040, Note_off_c, 15, 60, 120
1, 176048, Note_off_c, 14, 72, 115
1, 176048, Note_off_c, 14, 60, 127
1, 176056, Note_off_c, 3, 72, 63
1, 176056, Note_off_c, 2, 96, 88
1, 176056, Note_off_c, 2, 84, 79
1, 176064, Note_on_c, 14, 57, 113
1, 176064, Note_on_c, 14, 69, 123
1, 176064, Note_on_c, 15, 57, 114
1, 176064, Note_on_c, 8, 52, 124
1, 176064, Note_on_c, 7, 60, 104
1, 176064, Note_on_c, 7, 64, 110
1, 176064, Note_on_c, 7, 67, 112
1, 176064, Note_on_c, 3, 72, 69
1, 176064, Note_on_c, 2, 89, 82
1, 176064, Note_on_c, 2, 101, 92
1, 176064, Note_on_c, 1, 28, 104
1, 176064, Note_on_c, 9, 42, 80
1, 176064, Note_on_c, 9, 54, 30
1, 176064, Note_on_c, 9, 69, 37
1, 176068, Note_off_c, 9, 69, 37
1, 176068, Note_off_c, 9, 54, 30
1, 176068, Note_off_c, 9, 42, 80
1, 176152, Note_off_c, 3, 72, 69
1, 176152, Note_off_c, 7, 67, 112
1, 176152, Note_off_c, 7, 64, 110
1, 176152, Note_off_c, 7, 60, 104
1, 176152, Note_off_c, 8, 52, 124
1, 176160, Note_on_c, 3, 72, 54
1, 176160, Note_on_c, 9, 54, 42
1, 176160, Note_on_c, 9, 69, 44
1, 176164, Note_off_c, 9, 69, 44
1, 176164, Note_off_c, 9, 54, 42
1, 176232, Note_off_c, 15, 57, 114
1, 176240, Note_off_c, 14, 69, 123
1, 176240, Note_off_c, 14, 57, 113
1, 176244, Note_off_c, 1, 28, 104
1, 176248, Note_off_c, 3, 72, 54
1, 176248, Note_off_c, 2, 101, 92
1, 176248, Note_off_c, 2, 89, 82
1, 176256, Note_on_c, 14, 60, 116
1, 176256, Note_on_c, 14, 72, 123
1, 176256, Note_on_c, 15, 57, 125
1, 176256, Note_on_c, 3, 72, 63
1, 176256, Note_on_c, 9, 39, 91
1, 176256, Note_on_c, 9, 36, 120
1, 176256, Note_on_c, 9, 38, 111
1, 176256, Note_on_c, 9, 42, 82
1, 176256, Note_on_c, 9, 54, 48
1, 176256, Note_on_c, 9, 69, 47
1, 176260, Note_off_c, 9, 69, 47
1, 176260, Note_off_c, 9, 54, 48
1, 176260, Note_off_c, 9, 42, 82
1, 176260, Note_off_c, 9, 38, 111
1, 176260, Note_off_c, 9, 36, 120
1, 176260, Note_off_c, 9, 39, 91
1, 176344, Note_off_c, 3, 72, 63
1, 176352, Note_on_c, 3, 72, 59
1, 176352, Note_on_c, 9, 54, 45
1, 176356, Note_off_c, 9, 54, 45
1, 176440, Note_off_c, 3, 72, 59
1, 176448, Note_on_c, 8, 53, 118
1, 176448, Note_on_c, 7, 60, 114
1, 176448, Note_on_c, 7, 65, 116
1, 176448, Note_on_c, 7, 69, 120
1, 176448, Note_on_c, 3, 72, 61
1, 176448, Note_on_c, 2, 88, 81
1, 176448, Note_on_c, 2, 100, 83
1, 176448, Note_on_c, 1, 29, 113
1, 176448, Note_on_c, 9, 42, 94
1, 176448, Note_on_c, 9, 54, 31
1, 176448, Note_on_c, 9, 69, 39
1, 176452, Note_off_c, 9, 69, 39
1, 176452, Note_off_c, 9, 54, 31
1, 176452, Note_off_c, 9, 42, 94
1, 176536, Note_off_c, 3, 72, 61
1, 176536, Note_off_c, 7, 69, 120
1, 176536, Note_off_c, 7, 65, 116
1, 176536, Note_off_c, 7, 60, 114
1, 176536, Note_off_c, 8, 53, 118
1, 176544, Note_on_c, 3, 72, 68
1, 176544, Note_on_c, 9, 54, 41
1, 176544, Note_on_c, 9, 69, 47
1, 176548, Note_off_c, 9, 69, 47
1, 176548, Note_off_c, 9, 54, 41
1, 176616, Note_off_c, 15, 57, 125
1, 176624, Note_off_c, 14, 72, 123
1, 176624, Note_off_c, 14, 60, 116
1, 176628, Note_off_c, 1, 29, 113
1, 176632, Note_off_c, 3, 72, 68
1, 176632, Note_off_c, 2, 100, 83
1, 176632, Note_off_c, 2, 88, 81
1, 176640, Note_on_c, 14, 60, 119
1, 176640, Note_on_c, 14, 72, 125
1, 176640, Note_on_c, 15, 60, 127
1, 176640, Note_on_c, 3, 72, 52
1, 176640, Note_on_c, 9, 36, 124
1, 176640, Note_on_c, 9, 42, 89
1, 176640, Note_on_c, 9, 54, 45
1, 176640, Note_on_c, 9, 69, 45
1, 176644, Note_off_c, 9, 69, 45
1, 176644, Note_off_c, 9, 54, 45
1, 176644, Note_off_c, 9, 42, 89
1, 176644, Note_off_c, 9, 36, 124
1, 176728, Note_off_c, 3, 72, 52
1, 176736, Note_on_c, 3, 72, 57
1, 176736, Note_on_c, 9, 54, 31
1, 176740, Note_off_c, 9, 54, 31
1, 176824, Note_off_c, 3, 72, 57
1, 176832, Note_on_c, 8, 52, 118
1, 176832, Note_on_c, 7, 60, 108
1, 176832, Note_on_c, 7, 64, 112
1, 176832, Note_on_c, 7, 67, 114
1, 176832, Note_on_c, 3, 72, 52
1, 176832, Note_on_c, 2, 84, 92
1, 176832, Note_on_c, 2, 96, 79
1, 176832, Note_on_c, 1, 28, 107
1, 176832, Note_on_c, 9, 42, 76
1, 176832, Note_on_c, 9, 54, 31
1, 176832, Note_on_c, 9, 69, 32
1, 176836, Note_off_c, 9, 69, 32
1, 176836, Note_off_c, 9, 54, 31
1, 176836, Note_off_c, 9, 42, 76
1, 176920, Note_off_c, 3, 72, 52
1, 176920, Note_off_c, 7, 67, 114
1, 176920, Note_off_c, 7, 64, 112
1, 176920, Note_off_c, 7, 60, 108
1, 176920, Note_off_c, 8, 52, 118
1, 176928, Note_on_c, 3, 72, 63
1, 176928, Note_on_c, 9, 54, 43
1, 176928, Note_on_c, 9, 69, 43
1, 176932, Note_off_c, 9, 69, 43
1, 176932, Note_off_c, 9, 54, 43
1, 176980, Note_off_c, 15, 60, 127
1, 177008, Note_off_c, 14, 72, 125
1, 177008, Note_off_c, 14, 60, 119
1, 177012, Note_off_c, 1, 28, 107
1, 177016, Note_off_c, 3, 72, 63
1, 177016, Note_off_c, 2, 96, 79
1, 177016, Note_off_c, 2, 84, 92
1, 177024, Note_on_c, 14, 60, 123
1, 177024, Note_on_c, 14, 72, 116
1, 177024, Note_on_c, 15, 60, 110
1, 177024, Note_on_c, 3, 72, 65
1, 177024, Note_on_c, 9, 39, 100
1, 177024, Note_on_c, 9, 36, 121
1, 177024, Note_on_c, 9, 38, 115
1, 177024, Note_on_c, 9, 42, 81
1, 177024, Note_on_c, 9, 54, 42
1, 177024, Note_on_c, 9, 69, 47
1, 177028, Note_off_c, 9, 69, 47
1, 177028, Note_off_c, 9, 54, 42
1, 177028, Note_off_c, 9, 42, 81
1, 177028, Note_off_c, 9, 38, 115
1, 177028, Note_off_c, 9, 36, 121
1, 177028, Note_off_c, 9, 39, 100
1, 177112, Note_off_c, 3, 72, 65
1, 177120, Note_on_c, 3, 72, 60
1, 177120, Note_on_c, 9, 54, 32
1, 177124, Note_off_c, 9, 54, 32
1, 177208, Note_off_c, 3, 72, 60
1, 177216, Note_on_c, 8, 53, 123
1, 177216, Note_on_c, 7, 60, 104
1, 177216, Note_on_c, 7, 65, 117
1, 177216, Note_on_c, 7, 69, 106
1, 177216, Note_on_c, 3, 72, 64
1, 177216, Note_on_c, 2, 79, 80
1, 177216, Note_on_c, 2, 91, 91
1, 177216, Note_on_c, 1, 29, 102
1, 177216, Note_on_c, 9, 42, 82
1, 177216, Note_on_c, 9, 54, 31
1, 177216, Note_on_c, 9, 69, 33
1, 177220, Note_off_c, 9, 69, 33
1, 177220, Note_off_c, 9, 54, 31
1, 177220, Note_off_c, 9, 42, 82
1, 177304, Note_off_c, 3, 72, 64
1, 177304, Note_off_c, 7, 69, 106
1, 177304, Note_off_c, 7, 65, 117
1, 177304, Note_off_c, 7, 60, 104
1, 177304, Note_off_c, 8, 53, 123
1, 177312, Note_on_c, 3, 72, 50
1, 177312, Note_on_c, 9, 54, 49
1, 177312, Note_on_c, 9, 69, 48
1, 177316, Note_off_c, 9, 69, 48
1, 177316, Note_off_c, 9, 54, 49
1, 177348, Note_off_c, 1, 29, 102
1, 177376, Note_off_c, 15, 60, 110
1, 177392, Note_off_c, 14, 72, 116
1, 177392, Note_off_c, 14, 60, 123
1, 177400, Note_off_c, 3, 72, 50
1, 177400, Note_off_c, 2, 91, 91
1, 177400, Note_off_c, 2, 79, 80
1, 177408, Note_on_c, 14, 64, 113
1, 177408, Note_on_c, 14, 76, 127
1, 177408, Note_on_c, 15, 64, 125
1, 177408, Note_on_c, 8, 55, 124
1, 177408, Note_on_c, 7, 62, 109
1, 177408, Note_on_c, 7, 67, 110
1, 177408, Note_on_c, 7, 71, 116
1, 177408, Note_on_c, 3, 72, 52
1, 177408, Note_on_c, 1, 31, 104
1, 177408, Note_on_c, 9, 36, 120
1, 177408, Note_on_c, 9, 42, 83
1, 177408, Note_on_c, 9, 54, 34
1, 177408, Note_on_c, 9, 69, 31
1, 177412, Note_off_c, 9, 69, 31
1, 177412, Note_off_c, 9, 54, 34
1, 177412, Note_off_c, 9, 42, 83
1, 177412, Note_off_c, 9, 36, 120
1, 177496, Note_off_c, 3, 72, 52
1, 177504, Note_on_c, 3, 72, 63
1, 177504, Note_on_c, 9, 54, 34
1, 177508, Note_off_c, 9, 54, 34
1, 177588, Note_off_c, 1, 31, 104
1, 177592, Note_off_c, 3, 72, 63
1, 177592, Note_off_c, 7, 71, 116
1, 177592, Note_off_c, 7, 67, 110
1, 177592, Note_off_c, 7, 62, 109
1, 177592, Note_off_c, 8, 55, 124
1, 177600, Note_on_c, 3, 67, 62
1, 177600, Note_on_c, 9, 42, 86
1, 177600, Note_on_c, 9, 54, 36
1, 177600, Note_on_c, 9, 69, 43
1, 177604, Note_off_c, 9, 69, 43
1, 177604, Note_off_c, 9, 54, 36
1, 177604, Note_off_c, 9, 42, 86
1, 177688, Note_off_c, 3, 67, 62
1, 177696, Note_on_c, 9, 54, 40
1, 177696, Note_on_c, 9, 69, 40
1, 177700, Note_off_c, 9, 69, 40
1, 177700, Note_off_c, 9, 54, 40
1, 177776, Note_off_c, 15, 64, 125
1, 177776, Note_off_c, 14, 76, 127
1, 177776, Note_off_c, 14, 64, 113
1, 177792, Note_on_c, 14, 62, 117
1, 177792, Note_on_c, 14, 74, 113
1, 177792, Note_on_c, 15, 62, 112
1, 177792, Note_on_c, 8, 55, 126
1, 177792, Note_on_c, 7, 62, 116
1, 177792, Note_on_c, 7, 67, 112
1, 177792, Note_on_c, 7, 71, 117
1, 177792, Note_on_c, 3, 67, 56
1, 177792, Note_on_c, 2, 86, 94
1, 177792, Note_on_c, 2, 98, 78
1, 177792, Note_on_c, 9, 39, 93
1, 177792, Note_on_c, 1, 31, 107
1, 177792, Note_on_c, 9, 36, 114
1, 177792, Note_on_c, 9, 38, 110
1, 177792, Note_on_c, 9, 42, 76
1, 177792, Note_on_c, 9, 54, 40
1, 177792, Note_on_c, 9, 69, 43
1, 177796, Note_off_c, 9, 69, 43
1, 177796, Note_off_c, 9, 54, 40
1, 177796, Note_off_c, 9, 42, 76
1, 177796, Note_off_c, 9, 38, 110
1, 177796, Note_off_c, 9, 36, 114
1, 177796, Note_off_c, 9, 39, 93
1, 177880, Note_off_c, 3, 67, 56
1, 177888, Note_on_c, 3, 69, 59
1, 177888, Note_on_c, 9, 54, 49
1, 177892, Note_off_c, 9, 54, 49
1, 177936, Pitch_bend_c, 1, 8192
1, 177944, Pitch_bend_c, 1, 8323
1, 177952, Pitch_bend_c, 1, 8456
1, 177960, Pitch_bend_c, 1, 8588
1, 177964, Note_off_c, 15, 62, 112
1, 177968, Note_off_c, 14, 74, 113
1, 177968, Note_off_c, 14, 62, 117
1, 177968, Pitch_bend_c, 1, 8720
1, 177976, Note_off_c, 3, 69, 59
1, 177976, Note_off_c, 7, 71, 117
1, 177976, Note_off_c, 7, 67, 112
1, 177976, Note_off_c, 7, 62, 116
1, 177976, Note_off_c, 8, 55, 126
1, 177976, Pitch_bend_c, 1, 8852
1, 177984, Note_on_c, 14, 60, 118
1, 177984, Note_on_c, 14, 72, 121
1, 177984, Note_on_c, 15, 60, 118
1, 177984, Note_on_c, 3, 72, 68
1, 177984, Pitch_bend_c, 1, 8984
1, 177984, Note_on_c, 9, 42, 90
1, 177984, Note_on_c, 9, 54, 48
1, 177984, Note_on_c, 9, 69, 41
1, 177988, Note_off_c, 9, 69, 41
1, 177988, Note_off_c, 9, 54, 48
1, 177988, Note_off_c, 9, 42, 90
1, 177992, Pitch_bend_c, 1, 9116
1, 178000, Pitch_bend_c, 1, 9248
1, 178008, Pitch_bend_c, 1, 9380
1, 178016, Pitch_bend_c, 1, 9512
1, 178024, Pitch_bend_c, 1, 9644
1, 178032, Pitch_bend_c, 1, 9776
1, 178040, Pitch_bend_c, 1, 9908
1, 178048, Pitch_bend_c, 1, 10040
1, 178056, Note_off_c, 2, 98, 78
1, 178056, Note_off_c, 2, 86, 94
1, 178056, Pitch_bend_c, 1, 10172
1, 178064, Pitch_bend_c, 1, 10305
1, 178068, Note_off_c, 1, 31, 107
1, 178072, Note_off_c, 3, 72, 68
1, 178072, Pitch_bend_c, 1, 10437
1, 178080, Note_on_c, 3, 74, 66
1, 178080, Pitch_bend_c, 1, 10569
1, 178080, Note_on_c, 9, 54, 35
1, 178080, Note_on_c, 9, 69, 48
1, 178084, Note_off_c, 9, 69, 48
1, 178084, Note_off_c, 9, 54, 35
1, 178088, Pitch_bend_c, 1, 10701
1, 178096, Pitch_bend_c, 1, 10833
1, 178104, Pitch_bend_c, 1, 10965
1, 178112, Pitch_bend_c, 1, 11097
1, 178120, Pitch_bend_c, 1, 11229
1, 178128, Pitch_bend_c, 1, 11361
1, 178136, Pitch_bend_c, 1, 11493
1, 178144, Pitch_bend_c, 1, 11625
1, 178152, Pitch_bend_c, 1, 11757
1, 178160, Pitch_bend_c, 1, 8192
1, 178168, Note_off_c, 3, 74, 66
1, 178176, Tempo, 500000
1, 178176, Note_on_c, 8, 48, 127
1, 178176, Note_on_c, 7, 60, 108
1, 178176, Note_on_c, 7, 64, 111
1, 178176, Note_on_c, 7, 67, 120
1, 178176, Note_on_c, 3, 72, 52
1, 178176, Note_on_c, 2, 72, 86
1, 178176, Note_on_c, 2, 84, 86
1, 178176, Note_on_c, 1, 36, 102
1, 178176, Note_on_c, 9, 36, 124
1, 178176, Note_on_c, 9, 42, 89
1, 178176, Note_on_c, 9, 54, 37
1, 178176, Note_on_c, 9, 69, 39
1, 178180, Note_off_c, 9, 69, 39
1, 178180, Note_off_c, 9, 54, 37
1, 178180, Note_off_c, 9, 42, 89
1, 178180, Note_off_c, 9, 36, 124
1, 178264, Note_off_c, 3, 72, 52
1, 178264, Pitch_bend_c, 1, 8192
1, 178272, Note_on_c, 3, 72, 67
1, 178272, Pitch_bend_c, 1, 8009
1, 178272, Note_on_c, 9, 54, 47
1, 178276, Note_off_c, 9, 54, 47
1, 178280, Pitch_bend_c, 1, 7827
1, 178288, Pitch_bend_c, 1, 7644
1, 178296, Pitch_bend_c, 1, 7461
1, 178304, Pitch_bend_c, 1, 7278
1, 178312, Pitch_bend_c, 1, 7096
1, 178320, Pitch_bend_c, 1, 6913
1, 178328, Pitch_bend_c, 1, 6730
1, 178336, Pitch_bend_c, 1, 6548
1, 178344, Pitch_bend_c, 1, 6365
1, 178352, Pitch_bend_c, 1, 6182
1, 178360, Note_off_c, 3, 72, 67
1, 178360, Note_off_c, 2, 84, 86
1, 178360, Note_off_c, 2, 72, 86
1, 178360, Note_off_c, 7, 67, 120
1, 178360, Note_off_c, 7, 64, 111
1, 178360, Note_off_c, 7, 60, 108
1, 178360, Note_off_c, 8, 48, 127
1, 178360, Pitch_bend_c, 1, 6000
1, 178368, Note_on_c, 3, 72, 67
1, 178368, Note_on_c, 2, 79, 90
1, 178368, Note_on_c, 2, 91, 92
1, 178368, Pitch_bend_c, 1, 5817
1, 178368, Note_on_c, 9, 42, 76
1, 178368, Note_on_c, 9, 54, 30
1, 178368, Note_on_c, 9, 69, 36
1, 178372, Note_off_c, 9, 69, 36
1, 178372, Note_off_c, 9, 54, 30
1, 178372, Note_off_c, 9, 42, 76
1, 178376, Pitch_bend_c, 1, 5634
1, 178384, Pitch_bend_c, 1, 5451
1, 178392, Pitch_bend_c, 1, 5269
1, 178400, Pitch_bend_c, 1, 5086
1, 178408, Pitch_bend_c, 1, 4903
1, 178416, Pitch_bend_c, 1, 4720
1, 178424, Pitch_bend_c, 1, 4538
1, 178432, Pitch_bend_c, 1, 4355
1, 178440, Pitch_bend_c, 1, 4172
1, 178448, Pitch_bend_c, 1, 3990
1, 178452, Note_off_c, 1, 36, 102
1, 178456, Note_off_c, 3, 72, 67
1, 178456, Pitch_bend_c, 1, 3807
1, 178464, Note_on_c, 3, 72, 50
1, 178464, Pitch_bend_c, 1, 3624
1, 178464, Note_on_c, 9, 54, 41
1, 178464, Note_on_c, 9, 69, 42
1, 178468, Note_off_c, 9, 69, 42
1, 178468, Note_off_c, 9, 54, 41
1, 178472, Pitch_bend_c, 1, 3441
1, 178480, Pitch_bend_c, 1, 3259
1, 178488, Pitch_bend_c, 1, 3076
1, 178496, Pitch_bend_c, 1, 8192
1, 178552, Note_off_c, 3, 72, 50
1, 178552, Note_off_c, 2, 91, 92
1, 178552, Note_off_c, 2, 79, 90
1, 178560, Note_on_c, 8, 52, 127
1, 178560, Note_on_c, 7, 60, 107
1, 178560, Note_on_c, 7, 64, 111
1, 178560, Note_on_c, 7, 67, 110
1, 178560, Note_on_c, 3, 72, 54
1, 178560, Note_on_c, 2, 76, 89
1, 178560, Note_on_c, 2, 88, 93
1, 178560, Note_on_c, 9, 39, 93
1, 178560, Note_on_c, 1, 28, 107
1, 178560, Note_on_c, 9, 36, 121
1, 178560, Note_on_c, 9, 38, 115
1, 178560, Note_on_c, 9, 42, 81
1, 178560, Note_on_c, 9, 54, 48
1, 178560, Note_on_c, 9, 69, 49
1, 178564, Note_off_c, 9, 69, 49
1, 178564, Note_off_c, 9, 54, 48
1, 178564, Note_off_c, 9, 42, 81
1, 178564, Note_off_c, 9, 38, 115
1, 178564, Note_off_c, 9, 36, 121
1, 178564, Note_off_c, 9, 39, 93
1, 178648, Note_off_c, 3, 72, 54
1, 178648, Note_off_c, 7, 67, 110
1, 178648, Note_off_c, 7, 64, 111
1, 178648, Note_off_c, 7, 60, 107
1, 178648, Note_off_c, 8, 52, 127
1, 178656, Note_on_c, 3, 72, 52
1, 178656, Note_on_c, 9, 54, 49
1, 178660, Note_off_c, 9, 54, 49
1, 178740, Note_off_c, 1, 28, 107
1, 178744, Note_off_c, 3, 72, 52
1, 178744, Note_off_c, 2, 88, 93
1, 178744, Note_off_c, 2, 76, 89
1, 178752, Note_on_c, 8, 53, 117
1, 178752, Note_on_c, 7, 60, 109
1, 178752, Note_on_c, 7, 65, 111
1, 178752, Note_on_c, 7, 69, 112
1, 178752, Note_on_c, 3, 72, 62
1, 178752, Note_on_c, 2, 77, 83
1, 178752, Note_on_c, 2, 89, 93
1, 178752, Note_on_c, 1, 29, 116
1, 178752, Note_on_c, 9, 42, 82
1, 178752, Note_on_c, 9, 54, 43
1, 178752, Note_on_c, 9, 69, 35
1, 178756, Note_off_c, 9, 69, 35
1, 178756, Note_off_c, 9, 54, 43
1, 178756, Note_off_c, 9, 42, 82
1, 178840, Note_off_c, 3, 72, 62
1, 178840, Note_off_c, 7, 69, 112
1, 178840, Note_off_c, 7, 65, 111
1, 178840, Note_off_c, 7, 60, 109
1, 178840, Note_off_c, 8, 53, 117
1, 178848, Note_on_c, 3, 72, 57
1, 178848, Note_on_c, 9, 54, 39
1, 178848, Note_on_c, 9, 69, 44
1, 178852, Note_off_c, 9, 69, 44
1, 178852, Note_off_c, 9, 54, 39
1, 178932, Note_off_c, 1, 29, 116
1, 178936, Note_off_c, 3, 72, 57
1, 178936, Note_off_c, 2, 89, 93
1, 178936, Note_off_c, 2, 77, 83
1, 178944, Note_on_c, 3, 72, 62
1, 178944, Note_on_c, 2, 84, 86
1, 178944, Note_on_c, 2, 96, 87
1, 178944, Note_on_c, 9, 36, 120
1, 178944, Note_on_c, 9, 42, 83
1, 178944, Note_on_c, 9, 54, 49
1, 178944, Note_on_c, 9, 69, 33
1, 178948, Note_off_c, 9, 69, 33
1, 178948, Note_off_c, 9, 54, 49
1, 178948, Note_off_c, 9, 42, 83
1, 178948, Note_off_c, 9, 36, 120
1, 179032, Note_off_c, 3, 72, 62
1, 179040, Note_on_c, 3, 72, 60
1, 179040, Note_on_c, 9, 54, 40
1, 179044, Note_off_c, 9, 54, 40
1, 179128, Note_off_c, 3, 72, 60
1, 179128, Note_off_c, 2, 96, 87
1, 179128, Note_off_c, 2, 84, 86
1, 179136, Note_on_c, 8, 52, 127
1, 179136, Note_on_c, 7, 60, 116
1, 179136, Note_on_c, 7, 64, 105
1, 179136, Note_on_c, 7, 67, 103
1, 179136, Note_on_c, 3, 72, 57
1, 179136, Note_on_c, 2, 89, 90
1, 179136, Note_on_c, 2, 101, 92
1, 179136, Note_on_c, 1, 28, 101
1, 179136, Note_on_c, 9, 42, 86
1, 179136, Note_on_c, 9, 54, 42
1, 179136, Note_on_c, 9, 69, 34
1, 179140, Note_off_c, 9, 69, 34
1, 179140, Note_off_c, 9, 54, 42
1, 179140, Note_off_c, 9, 42, 86
1, 179216, Note_off_c, 14, 72, 121
1, 179216, Note_off_c, 14, 60, 118
1, 179220, Note_off_c, 15, 60, 118
1, 179224, Note_off_c, 3, 72, 57
1, 179224, Note_off_c, 7, 67, 103
1, 179224, Note_off_c, 7, 64, 105
1, 179224, Note_off_c, 7, 60, 116
1, 179224, Note_off_c, 8, 52, 127
1, 179232, Note_on_c, 3, 72, 53
1, 179232, Note_on_c, 9, 54, 30
1, 179232, Note_on_c, 9, 69, 48
1, 179236, Note_off_c, 9, 69, 48
1, 179236, Note_off_c, 9, 54, 30
1, 179316, Note_off_c, 1, 28, 101
1, 179320, Note_off_c, 3, 72, 53
1, 179320, Note_off_c, 2, 101, 92
1, 179320, Note_off_c, 2, 89, 90
1, 179328, Note_on_c, 3, 72, 69
1, 179328, Note_on_c, 9, 39, 88
1, 179328, Note_on_c, 9, 36, 114
1, 179328, Note_on_c, 9, 38, 110
1, 179328, Note_on_c, 9, 42, 76
1, 179328, Note_on_c, 9, 54, 47
1, 179328, Note_on_c, 9, 69, 47
1, 179332, Note_off_c, 9, 69, 47
1, 179332, Note_off_c, 9, 54, 47
1, 179332, Note_off_c, 9, 42, 76
1, 179332, Note_off_c, 9, 38, 110
1, 179332, Note_off_c, 9, 36, 114
1, 179332, Note_off_c, 9, 39, 88
1, 179416, Note_off_c, 3, 72, 69
1, 179424, Note_on_c, 3, 72, 52
1, 179424, Note_on_c, 9, 54, 32
1, 179428, Note_off_c, 9, 54, 32
1, 179512, Note_off_c, 3, 72, 52
1, 179520, Note_on_c, 8, 53, 127
1, 179520, Note_on_c, 7, 60, 113
1, 179520, Note_on_c, 7, 65, 114
1, 179520, Note_on_c, 7, 69, 103
1, 179520, Note_on_c, 3, 72, 54
1, 179520, Note_on_c, 2, 88, 92
1, 179520, Note_on_c, 2, 100, 83
1, 179520, Note_on_c, 1, 29, 101
1, 179520, Note_on_c, 9, 42, 90
1, 179520, Note_on_c, 9, 54, 31
1, 179520, Note_on_c, 9, 69, 36
1, 179524, Note_off_c, 9, 69, 36
1, 179524, Note_off_c, 9, 54, 31
1, 179524, Note_off_c, 9, 42, 90
1, 179608, Note_off_c, 3, 72, 54
1, 179608, Note_off_c, 7, 69, 103
1, 179608, Note_off_c, 7, 65, 114
1, 179608, Note_off_c, 7, 60, 113
1, 179608, Note_off_c, 8, 53, 127
1, 179616, Note_on_c, 3, 72, 69
1, 179616, Note_on_c, 9, 54, 44
1, 179616, Note_on_c, 9, 69, 47
1, 179620, Note_off_c, 9, 69, 47
1, 179620, Note_off_c, 9, 54, 44
1, 179700, Note_off_c, 1, 29, 101
1, 179704, Note_off_c, 3, 72, 69
1, 179704, Note_off_c, 2, 100, 83
1, 179704, Note_off_c, 2, 88, 92
1, 179712, Note_on_c, 3, 72, 51
1, 179712, Note_on_c, 9, 36, 124
1, 179712, Note_on_c, 9, 42, 89
1, 179712, Note_on_c, 9, 54, 46
1, 179712, Note_on_c, 9, 69, 44
1, 179716, Note_off_c, 9, 69, 44
1, 179716, Note_off_c, 9, 54, 46
1, 179716, Note_off_c, 9, 42, 89
1, 179716, Note_off_c, 9, 36, 124
1, 179800, Note_off_c, 3, 72, 51
1, 179808, Note_on_c, 3, 72, 52
1, 179808, Note_on_c, 9, 54, 39
1, 179812, Note_off_c, 9, 54, 39
1, 179896, Note_off_c, 3, 72, 52
1, 179904, Note_on_c, 8, 52, 120
1, 179904, Note_on_c, 7, 60, 117
1, 179904, Note_on_c, 7, 64, 113
1, 179904, Note_on_c, 7, 67, 108
1, 179904, Note_on_c, 3, 72, 69
1, 179904, Note_on_c, 2, 84, 82
1, 179904, Note_on_c, 2, 96, 93
1, 179904, Note_on_c, 1, 28, 118
1, 179904, Note_on_c, 9, 42, 76
1, 179904, Note_on_c, 9, 54, 41
1, 179904, Note_on_c, 9, 69, 37
1, 179908, Note_off_c, 9, 69, 37
1, 179908, Note_off_c, 9, 54, 41
1, 179908, Note_off_c, 9, 42, 76
1, 179992, Note_off_c, 3, 72, 69
1, 179992, Note_off_c, 7, 67, 108
1, 179992, Note_off_c, 7, 64, 113
1, 179992, Note_off_c, 7, 60, 117
1, 179992, Note_off_c, 8, 52, 120
1, 180000, Note_on_c, 3, 72, 65
1, 180000, Note_on_c, 9, 54, 39
1, 180000, Note_on_c, 9, 69, 43
1, 180004, Note_off_c, 9, 69, 43
1, 180004, Note_off_c, 9, 54, 39
1, 180084, Note_off_c, 1, 28, 118
1, 180088, Note_off_c, 3, 72, 65
1, 180088, Note_off_c, 2, 96, 93
1, 180088, Note_off_c, 2, 84, 82
1, 180096, Note_on_c, 3, 72, 68
1, 180096, Note_on_c, 9, 39, 101
1, 180096, Note_on_c, 9, 36, 121
1, 180096, Note_on_c, 9, 38, 115
1, 180096, Note_on_c, 9, 42, 81
1, 180096, Note_on_c, 9, 54, 39
1, 180096, Note_on_c, 9, 69, 45
1, 180100, Note_off_c, 9, 69, 45
1, 180100, Note_off_c, 9, 54, 39
1, 180100, Note_off_c, 9, 42, 81
1, 180100, Note_off_c, 9, 38, 115
1, 180100, Note_off_c, 9, 36, 121
1, 180100, Note_off_c, 9, 39, 101
1, 180184, Note_off_c, 3, 72, 68
1, 180192, Note_on_c, 3, 72, 61
1, 180192, Note_on_c, 9, 54, 35
1, 180196, Note_off_c, 9, 54, 35
1, 180280, Note_off_c, 3, 72, 61
1, 180288, Note_on_c, 8, 53, 123
1, 180288, Note_on_c, 7, 60, 107
1, 180288, Note_on_c, 7, 65, 103
1, 180288, Note_on_c, 7, 69, 113
1, 180288, Note_on_c, 3, 72, 62
1, 180288, Note_on_c, 2, 79, 86
1, 180288, Note_on_c, 2, 91, 84
1, 180288, Note_on_c, 1, 29, 117
1, 180288, Note_on_c, 9, 42, 82
1, 180288, Note_on_c, 9, 54, 31
1, 180288, Note_on_c, 9, 69, 47
1, 180292, Note_off_c, 9, 69, 47
1, 180292, Note_off_c, 9, 54, 31
1, 180292, Note_off_c, 9, 42, 82
1, 180376, Note_off_c, 3, 72, 62
1, 180376, Note_off_c, 7, 69, 113
1, 180376, Note_off_c, 7, 65, 103
1, 180376, Note_off_c, 7, 60, 107
1, 180376, Note_off_c, 8, 53, 123
1, 180384, Note_on_c, 3, 72, 65
1, 180384, Note_on_c, 9, 54, 33
1, 180384, Note_on_c, 9, 69, 41
1, 180388, Note_off_c, 9, 69, 41
1, 180388, Note_off_c, 9, 54, 33
1, 180420, Note_off_c, 1, 29, 117
1, 180472, Note_off_c, 3, 72, 65
1, 180472, Note_off_c, 2, 91, 84
1, 180472, Note_off_c, 2, 79, 86
1, 180480, Note_on_c, 8, 55, 115
1, 180480, Note_on_c, 7, 62, 119
1, 180480, Note_on_c, 7, 67, 103
1, 180480, Note_on_c, 7, 71, 111
1, 180480, Note_on_c, 3, 72, 61
1, 180480, Note_on_c, 1, 31, 111
1, 180480, Note_on_c, 9, 36, 120
1, 180480, Note_on_c, 9, 42, 83
1, 180480, Note_on_c, 9, 54, 42
1, 180480, Note_on_c, 9, 69, 47
1, 180484, Note_off_c, 9, 69, 47
1, 180484, Note_off_c, 9, 54, 42
1, 180484, Note_off_c, 9, 42, 83
1, 180484, Note_off_c, 9, 36, 120
1, 180568, Note_off_c, 3, 72, 61
1, 180576, Note_on_c, 3, 72, 53
1, 180576, Note_on_c, 9, 54, 30
1, 180580, Note_off_c, 9, 54, 30
1, 180660, Note_off_c, 1, 31, 111
1, 180664, Note_off_c, 3, 72, 53
1, 180664, Note_off_c, 7, 71, 111
1, 180664, Note_off_c, 7, 67, 103
1, 180664, Note_off_c, 7, 62, 119
1, 180664, Note_off_c, 8, 55, 115
1, 180672, Note_on_c, 3, 76, 60
1, 180672, Note_on_c, 9, 42, 86
1, 180672, Note_on_c, 9, 54, 40
1, 180672, Note_on_c, 9, 69, 43
1, 180676, Note_off_c, 9, 69, 43
1, 180676, Note_off_c, 9, 54, 40
1, 180676, Note_off_c, 9, 42, 86
1, 180760, Note_off_c, 3, 76, 60
1, 180768, Note_on_c, 9, 54, 44
1, 180768, Note_on_c, 9, 69, 43
1, 180772, Note_off_c, 9, 69, 43
1, 180772, Note_off_c, 9, 54, 44
1, 180864, Note_on_c, 8, 55, 117
1, 180864, Note_on_c, 7, 62, 104
1, 180864, Note_on_c, 7, 67, 121
1, 180864, Note_on_c, 7, 71, 116
1, 180864, Note_on_c, 3, 76, 66
1, 180864, Note_on_c, 2, 86, 94
1, 180864, Note_on_c, 2, 98, 90
1, 180864, Note_on_c, 9, 39, 104
1, 180864, Note_on_c, 1, 31, 109
1, 180864, Note_on_c, 9, 36, 114
1, 180864, Note_on_c, 9, 38, 110
1, 180864, Note_on_c, 9, 42, 76
1, 180864, Note_on_c, 9, 54, 46
1, 180864, Note_on_c, 9, 69, 39
1, 180868, Note_off_c, 9, 69, 39
1, 180868, Note_off_c, 9, 54, 46
1, 180868, Note_off_c, 9, 42, 76
1, 180868, Note_off_c, 9, 38, 110
1, 180868, Note_off_c, 9, 36, 114
1, 180868, Note_off_c, 9, 39, 104
1, 180952, Note_off_c, 3, 76, 66
1, 180960, Note_on_c, 3, 74, 65
1, 180960, Note_on_c, 9, 54, 33
1, 180964, Note_off_c, 9, 54, 33
1, 181008, Pitch_bend_c, 1, 8192
1, 181016, Pitch_bend_c, 1, 8323
1, 181024, Pitch_bend_c, 1, 8456
1, 181032, Pitch_bend_c, 1, 8588
1, 181040, Pitch_bend_c, 1, 8720
1, 181048, Note_off_c, 3, 74, 65
1, 181048, Note_off_c, 7, 71, 116
1, 181048, Note_off_c, 7, 67, 121
1, 181048, Note_off_c, 7, 62, 104
1, 181048, Note_off_c, 8, 55, 117
1, 181048, Pitch_bend_c, 1, 8852
1, 181056, Note_on_c, 3, 69, 64
1, 181056, Pitch_bend_c, 1, 8984
1, 181056, Note_on_c, 9, 42, 90
1, 181056, Note_on_c, 9, 54, 34
1, 181056, Note_on_c, 9, 69, 42
1, 181060, Note_off_c, 9, 69, 42
1, 181060, Note_off_c, 9, 54, 34
1, 181060, Note_off_c, 9, 42, 90
1, 181064, Pitch_bend_c, 1, 9116
1, 181072, Pitch_bend_c, 1, 9248
1, 181080, Pitch_bend_c, 1, 9380
1, 181088, Pitch_bend_c, 1, 9512
1, 181096, Pitch_bend_c, 1, 9644
1, 181104, Pitch_bend_c, 1, 9776
1, 181112, Pitch_bend_c, 1, 9908
1, 181120, Pitch_bend_c, 1, 10040
1, 181128, Note_off_c, 2, 98, 90
1, 181128, Note_off_c, 2, 86, 94
1, 181128, Pitch_bend_c, 1, 10172
1, 181136, Pitch_bend_c, 1, 10305
1, 181140, Note_off_c, 1, 31, 109
1, 181144, Note_off_c, 3, 69, 64
1, 181144, Pitch_bend_c, 1, 10437
1, 181152, Note_on_c, 3, 67, 58
1, 181152, Pitch_bend_c, 1, 10569
1, 181152, Note_on_c, 9, 54, 40
1, 181152, Note_on_c, 9, 69, 40
1, 181156, Note_off_c, 9, 69, 40
1, 181156, Note_off_c, 9, 54, 40
1, 181160, Pitch_bend_c, 1, 10701
1, 181168, Pitch_bend_c, 1, 10833
1, 181176, Pitch_bend_c, 1, 10965
1, 181184, Pitch_bend_c, 1, 11097
1, 181192, Pitch_bend_c, 1, 11229
1, 181200, Pitch_bend_c, 1, 11361
1, 181208, Pitch_bend_c, 1, 11493
1, 181216, Pitch_bend_c, 1, 11625
1, 181224, Pitch_bend_c, 1, 11757
1, 181232, Pitch_bend_c, 1, 8192
1, 181240, Note_off_c, 3, 67, 58
1, 181248, Tempo, 504200
1, 181248, Note_on_c, 14, 60, 113
1, 181248, Note_on_c, 14, 72, 118
1, 181248, Note_on_c, 15, 60, 114
1, 181248, Note_on_c, 8, 48, 117
1, 181248, Note_on_c, 7, 60, 115
1, 181248, Note_on_c, 7, 64, 119
1, 181248, Note_on_c, 7, 67, 119
1, 181248, Note_on_c, 3, 72, 67
1, 181248, Note_on_c, 2, 72, 86
1, 181248, Note_on_c, 2, 84, 85
1, 181248, Note_on_c, 1, 36, 101
1, 181248, Note_on_c, 9, 36, 124
1, 181248, Note_on_c, 9, 42, 89
1, 181248, Note_on_c, 9, 54, 36
1, 181248, Note_on_c, 9, 69, 39
1, 181252, Note_off_c, 9, 69, 39
1, 181252, Note_off_c, 9, 54, 36
1, 181252, Note_off_c, 9, 42, 89
1, 181252, Note_off_c, 9, 36, 124
1, 181336, Note_off_c, 3, 72, 67
1, 181336, Pitch_bend_c, 1, 8192
1, 181344, Note_on_c, 3, 72, 56
1, 181344, Pitch_bend_c, 1, 8009
1, 181344, Note_on_c, 9, 54, 30
1, 181348, Note_off_c, 9, 54, 30
1, 181352, Pitch_bend_c, 1, 7827
1, 181360, Pitch_bend_c, 1, 7644
1, 181368, Pitch_bend_c, 1, 7461
1, 181376, Pitch_bend_c, 1, 7278
1, 181384, Pitch_bend_c, 1, 7096
1, 181392, Pitch_bend_c, 1, 6913
1, 181400, Pitch_bend_c, 1, 6730
1, 181408, Pitch_bend_c, 1, 6548
1, 181412, Note_off_c, 15, 60, 114
1, 181416, Pitch_bend_c, 1, 6365
1, 181424, Note_off_c, 14, 72, 118
1, 181424, Note_off_c, 14, 60, 113
1, 181424, Pitch_bend_c, 1, 6182
1, 181432, Note_off_c, 3, 72, 56
1, 181432, Note_off_c, 2, 84, 85
1, 181432, Note_off_c, 2, 72, 86
1, 181432, Note_off_c, 7, 67, 119
1, 181432, Note_off_c, 7, 64, 119
1, 181432, Note_off_c, 7, 60, 115
1, 181432, Note_off_c, 8, 48, 117
1, 181432, Pitch_bend_c, 1, 6000
1, 181440, Note_on_c, 14, 57, 127
1, 181440, Note_on_c, 14, 69, 127
1, 181440, Note_on_c, 15, 57, 125
1, 181440, Note_on_c, 3, 72, 53
1, 181440, Note_on_c, 2, 79, 94
1, 181440, Note_on_c, 2, 91, 78
1, 181440, Pitch_bend_c, 1, 5817
1, 181440, Note_on_c, 9, 42, 76
1, 181440, Note_on_c, 9, 54, 30
1, 181440, Note_on_c, 9, 69, 45
1, 181444, Note_off_c, 9, 69, 45
1, 181444, Note_off_c, 9, 54, 30
1, 181444, Note_off_c, 9, 42, 76
1, 181448, Pitch_bend_c, 1, 5634
1, 181456, Pitch_bend_c, 1, 5451
1, 181464, Pitch_bend_c, 1, 5269
1, 181472, Pitch_bend_c, 1, 5086
1, 181480, Pitch_bend_c, 1, 4903
1, 181488, Pitch_bend_c, 1, 4720
1, 181496, Pitch_bend_c, 1, 4538
1, 181504, Pitch_bend_c, 1, 4355
1, 181512, Pitch_bend_c, 1, 4172
1, 181520, Pitch_bend_c, 1, 3990
1, 181524, Note_off_c, 1, 36, 101
1, 181528, Note_off_c, 3, 72, 53
1, 181528, Pitch_bend_c, 1, 3807
1, 181536, Note_on_c, 3, 72, 55
1, 181536, Pitch_bend_c, 1, 3624
1, 181536, Note_on_c, 9, 54, 45
1, 181536, Note_on_c, 9, 69, 39
1, 181540, Note_off_c, 9, 69, 39
1, 181540, Note_off_c, 9, 54, 45
1, 181544, Pitch_bend_c, 1, 3441
1, 181552, Pitch_bend_c, 1, 3259
1, 181560, Pitch_bend_c, 1, 3076
1, 181568, Pitch_bend_c, 1, 8192
1, 181612, Note_off_c, 15, 57, 125
1, 181616, Note_off_c, 14, 69, 127
1, 181616, Note_off_c, 14, 57, 127
1, 181624, Note_off_c, 3, 72, 55
1, 181624, Note_off_c, 2, 91, 78
1, 181624, Note_off_c, 2, 79, 94
1, 181632, Note_on_c, 14, 60, 127
1, 181632, Note_on_c, 14, 72, 125
1, 181632, Note_on_c, 15, 57, 127
1, 181632, Note_on_c, 8, 52, 123
1, 181632, Note_on_c, 7, 60, 114
1, 181632, Note_on_c, 7, 64, 119
1, 181632, Note_on_c, 7, 67, 122
1, 181632, Note_on_c, 3, 72, 50
1, 181632, Note_on_c, 2, 76, 84
1, 181632, Note_on_c, 2, 88, 88
1, 181632, Note_on_c, 9, 39, 98
1, 181632, Note_on_c, 1, 28, 117
1, 181632, Note_on_c, 9, 36, 121
1, 181632, Note_on_c, 9, 38, 115
1, 181632, Note_on_c, 9, 42, 81
1, 181632, Note_on_c, 9, 54, 47
1, 181632, Note_on_c, 9, 69, 48
1, 181636, Note_off_c, 9, 69, 48
1, 181636, Note_off_c, 9, 54, 47
1, 181636, Note_off_c, 9, 42, 81
1, 181636, Note_off_c, 9, 38, 115
1, 181636, Note_off_c, 9, 36, 121
1, 181636, Note_off_c, 9, 39, 98
1, 181720, Note_off_c, 3, 72, 50
1, 181720, Note_off_c, 7, 67, 122
1, 181720, Note_off_c, 7, 64, 119
1, 181720, Note_off_c, 7, 60, 114
1, 181720, Note_off_c, 8, 52, 123
1, 181728, Note_on_c, 3, 72, 53
1, 181728, Note_on_c, 9, 54, 37
1, 181732, Note_off_c, 9, 54, 37
1, 181812, Note_off_c, 1, 28, 117
1, 181816, Note_off_c, 3, 72, 53
1, 181816, Note_off_c, 2, 88, 88
1, 181816, Note_off_c, 2, 76, 84
1, 181824, Note_on_c, 8, 53, 127
1, 181824, Note_on_c, 7, 60, 120
1, 181824, Note_on_c, 7, 65, 107
1, 181824, Note_on_c, 7, 69, 114
1, 181824, Note_on_c, 3, 72, 61
1, 181824, Note_on_c, 2, 77, 94
1, 181824, Note_on_c, 2, 89, 95
1, 181824, Note_on_c, 1, 29, 115
1, 181824, Note_on_c, 9, 42, 82
1, 181824, Note_on_c, 9, 54, 40
1, 181824, Note_on_c, 9, 69, 49
1, 181828, Note_off_c, 9, 69, 49
1, 181828, Note_off_c, 9, 54, 40
1, 181828, Note_off_c, 9, 42, 82
1, 181912, Note_off_c, 3, 72, 61
1, 181912, Note_off_c, 7, 69, 114
1, 181912, Note_off_c, 7, 65, 107
1, 181912, Note_off_c, 7, 60, 120
1, 181912, Note_off_c, 8, 53, 127
1, 181920, Note_on_c, 3, 72, 60
1, 181920, Note_on_c, 9, 54, 38
1, 181920, Note_on_c, 9, 69, 38
1, 181924, Note_off_c, 9, 69, 38
1, 181924, Note_off_c, 9, 54, 38
1, 181972, Note_off_c, 15, 57, 127
1, 182000, Note_off_c, 14, 72, 125
1, 182000, Note_off_c, 14, 60, 127
1, 182004, Note_off_c, 1, 29, 115
1, 182008, Note_off_c, 3, 72, 60
1, 182008, Note_off_c, 2, 89, 95
1, 182008, Note_off_c, 2, 77, 94
1, 182016, Note_on_c, 14, 60, 118
1, 182016, Note_on_c, 14, 72, 123
1, 182016, Note_on_c, 15, 60, 117
1, 182016, Note_on_c, 3, 72, 51
1, 182016, Note_on_c, 2, 84, 93
1, 182016, Note_on_c, 2, 96, 93
1, 182016, Note_on_c, 9, 36, 120
1, 182016, Note_on_c, 9, 42, 83
1, 182016, Note_on_c, 9, 54, 39
1, 182016, Note_on_c, 9, 69, 34
1, 182020, Note_off_c, 9, 69, 34
1, 182020, Note_off_c, 9, 54, 39
1, 182020, Note_off_c, 9, 42, 83
1, 182020, Note_off_c, 9, 36, 120
1, 182104, Note_off_c, 3, 72, 51
1, 182112, Note_on_c, 3, 72, 54
1, 182112, Note_on_c, 9, 54, 39
1, 182116, Note_off_c, 9, 54, 39
1, 182184, Note_off_c, 15, 60, 117
1, 182192, Note_off_c, 14, 72, 123
1, 182192, Note_off_c, 14, 60, 118
1, 182200, Note_off_c, 3, 72, 54
1, 182200, Note_off_c, 2, 96, 93
1, 182200, Note_off_c, 2, 84, 93
1, 182208, Note_on_c, 14, 57, 120
1, 182208, Note_on_c, 14, 69, 111
1, 182208, Note_on_c, 15, 57, 110
1, 182208, Note_on_c, 8, 52, 124
1, 182208, Note_on_c, 7, 60, 103
1, 182208, Note_on_c, 7, 64, 106
1, 182208, Note_on_c, 7, 67, 117
1, 182208, Note_on_c, 3, 72, 67
1, 182208, Note_on_c, 2, 89, 82
1, 182208, Note_on_c, 2, 101, 84
1, 182208, Note_on_c, 1, 28, 117
1, 182208, Note_on_c, 9, 42, 86
1, 182208, Note_on_c, 9, 54, 40
1, 182208, Note_on_c, 9, 69, 33
1, 182212, Note_off_c, 9, 69, 33
1, 182212, Note_off_c, 9, 54, 40
1, 182212, Note_off_c, 9, 42, 86
1, 182296, Note_off_c, 3, 72, 67
1, 182296, Note_off_c, 7, 67, 117
1, 182296, Note_off_c, 7, 64, 106
1, 182296, Note_off_c, 7, 60, 103
1, 182296, Note_off_c, 8, 52, 124
1, 182304, Note_on_c, 3, 72, 61
1, 182304, Note_on_c, 9, 54, 30
1, 182304, Note_on_c, 9, 69, 44
1, 182308, Note_off_c, 9, 69, 44
1, 182308, Note_off_c, 9, 54, 30
1, 182376, Note_off_c, 15, 57, 110
1, 182384, Note_off_c, 14, 69, 111
1, 182384, Note_off_c, 14, 57, 120
1, 182388, Note_off_c, 1, 28, 117
1, 182392, Note_off_c, 3, 72, 61
1, 182392, Note_off_c, 2, 101, 84
1, 182392, Note_off_c, 2, 89, 82
1, 182400, Note_on_c, 14, 60, 111
1, 182400, Note_on_c, 14, 72, 113
1, 182400, Note_on_c, 15, 57, 120
1, 182400, Note_on_c, 3, 72, 58
1, 182400, Note_on_c, 9, 39, 104
1, 182400, Note_on_c, 9, 36, 114
1, 182400, Note_on_c, 9, 38, 110
1, 182400, Note_on_c, 9, 42, 76
1, 182400, Note_on_c, 9, 54, 48
1, 182400, Note_on_c, 9, 69, 35
1, 182404, Note_off_c, 9, 69, 35
1, 182404, Note_off_c, 9, 54, 48
1, 182404, Note_off_c, 9, 42, 76
1, 182404, Note_off_c, 9, 38, 110
1, 182404, Note_off_c, 9, 36, 114
1, 182404, Note_off_c, 9, 39, 104
1, 182488, Note_off_c, 3, 72, 58
1, 182496, Note_on_c, 3, 72, 50
1, 182496, Note_on_c, 9, 54, 31
1, 182500, Note_off_c, 9, 54, 31
1, 182584, Note_off_c, 3, 72, 50
1, 182592, Note_on_c, 8, 53, 127
1, 182592, Note_on_c, 7, 60, 112
1, 182592, Note_on_c, 7, 65, 120
1, 182592, Note_on_c, 7, 69, 105
1, 182592, Note_on_c, 3, 72, 54
1, 182592, Note_on_c, 2, 88, 93
1, 182592, Note_on_c, 2, 100, 91
1, 182592, Note_on_c, 1, 29, 118
1, 182592, Note_on_c, 9, 42, 90
1, 182592, Note_on_c, 9, 54, 36
1, 182592, Note_on_c, 9, 69, 39
1, 182596, Note_off_c, 9, 69, 39
1, 182596, Note_off_c, 9, 54, 36
1, 182596, Note_off_c, 9, 42, 90
1, 182680, Note_off_c, 3, 72, 54
1, 182680, Note_off_c, 7, 69, 105
1, 182680, Note_off_c, 7, 65, 120
1, 182680, Note_off_c, 7, 60, 112
1, 182680, Note_off_c, 8, 53, 127
1, 182688, Note_on_c, 3, 72, 60
1, 182688, Note_on_c, 9, 54, 41
1, 182688, Note_on_c, 9, 69, 35
1, 182692, Note_off_c, 9, 69, 35
1, 182692, Note_off_c, 9, 54, 41
1, 182760, Note_off_c, 15, 57, 120
1, 182768, Note_off_c, 14, 72, 113
1, 182768, Note_off_c, 14, 60, 111
1, 182772, Note_off_c, 1, 29, 118
1, 182776, Note_off_c, 3, 72, 60
1, 182776, Note_off_c, 2, 100, 91
1, 182776, Note_off_c, 2, 88, 93
1, 182784, Note_on_c, 14, 60, 113
1, 182784, Note_on_c, 14, 72, 120
1, 182784, Note_on_c, 15, 60, 127
1, 182784, Note_on_c, 3, 72, 52
1, 182784, Note_on_c, 9, 36, 124
1, 182784, Note_on_c, 9, 42, 89
1, 182784, Note_on_c, 9, 54, 37
1, 182784, Note_on_c, 9, 69, 30
1, 182788, Note_off_c, 9, 69, 30
1, 182788, Note_off_c, 9, 54, 37
1, 182788, Note_off_c, 9, 42, 89
1, 182788, Note_off_c, 9, 36, 124
1, 182872, Note_off_c, 3, 72, 52
1, 182880, Note_on_c, 3, 72, 52
1, 182880, Note_on_c, 9, 54, 44
1, 182884, Note_off_c, 9, 54, 44
1, 182968, Note_off_c, 3, 72, 52
1, 182976, Note_on_c, 8, 52, 118
1, 182976, Note_on_c, 7, 60, 122
1, 182976, Note_on_c, 7, 64, 107
1, 182976, Note_on_c, 7, 67, 107
1, 182976, Note_on_c, 3, 72, 51
1, 182976, Note_on_c, 2, 84, 95
1, 182976, Note_on_c, 2, 96, 86
1, 182976, Note_on_c, 1, 28, 105
1, 182976, Note_on_c, 9, 42, 76
1, 182976, Note_on_c, 9, 54, 47
1, 182976, Note_on_c, 9, 69, 32
1, 182980, Note_off_c, 9, 69, 32
1, 182980, Note_off_c, 9, 54, 47
1, 182980, Note_off_c, 9, 42, 76
1, 183064, Note_off_c, 3, 72, 51
1, 183064, Note_off_c, 7, 67, 107
1, 183064, Note_off_c, 7, 64, 107
1, 183064, Note_off_c, 7, 60, 122
1, 183064, Note_off_c, 8, 52, 118
1, 183072, Note_on_c, 3, 72, 52
1, 183072, Note_on_c, 9, 54, 48
1, 183072, Note_on_c, 9, 69, 34
1, 183076, Note_off_c, 9, 69, 34
1, 183076, Note_off_c, 9, 54, 48
1, 183124, Note_off_c, 15, 60, 127
1, 183152, Note_off_c, 14, 72, 120
1, 183152, Note_off_c, 14, 60, 113
1, 183156, Note_off_c, 1, 28, 105
1, 183160, Note_off_c, 3, 72, 52
1, 183160, Note_off_c, 2, 96, 86
1, 183160, Note_off_c, 2, 84, 95
1, 183168, Note_on_c, 14, 60, 124
1, 183168, Note_on_c, 14, 72, 115
1, 183168, Note_on_c, 15, 60, 127
1, 183168, Note_on_c, 3, 72, 68
1, 183168, Note_on_c, 9, 39, 94
1, 183168, Note_on_c, 9, 36, 121
1, 183168, Note_on_c, 9, 38, 115
1, 183168, Note_on_c, 9, 42, 81
1, 183168, Note_on_c, 9, 54, 33
1, 183168, Note_on_c, 9, 69, 32
1, 183172, Note_off_c, 9, 69, 32
1, 183172, Note_off_c, 9, 54, 33
1, 183172, Note_off_c, 9, 42, 81
1, 183172, Note_off_c, 9, 38, 115
1, 183172, Note_off_c, 9, 36, 121
1, 183172, Note_off_c, 9, 39, 94
1, 183256, Note_off_c, 3, 72, 68
1, 183264, Note_on_c, 3, 72, 53
1, 183264, Note_on_c, 9, 54, 34
1, 183268, Note_off_c, 9, 54, 34
1, 183352, Note_off_c, 3, 72, 53
1, 183360, Note_on_c, 8, 53, 116
1, 183360, Note_on_c, 7, 60, 113
1, 183360, Note_on_c, 7, 65, 109
1, 183360, Note_on_c, 7, 69, 119
1, 183360, Note_on_c, 3, 72, 58
1, 183360, Note_on_c, 2, 79, 86
1, 183360, Note_on_c, 2, 91, 97
1, 183360, Note_on_c, 1, 29, 108
1, 183360, Note_on_c, 9, 42, 82
1, 183360, Note_on_c, 9, 54, 37
1, 183360, Note_on_c, 9, 69, 31
1, 183364, Note_off_c, 9, 69, 31
1, 183364, Note_off_c, 9, 54, 37
1, 183364, Note_off_c, 9, 42, 82
1, 183448, Note_off_c, 3, 72, 58
1, 183448, Note_off_c, 7, 69, 119
1, 183448, Note_off_c, 7, 65, 109
1, 183448, Note_off_c, 7, 60, 113
1, 183448, Note_off_c, 8, 53, 116
1, 183456, Note_on_c, 3, 72, 53
1, 183456, Note_on_c, 9, 54, 47
1, 183456, Note_on_c, 9, 69, 34
1, 183460, Note_off_c, 9, 69, 34
1, 183460, Note_off_c, 9, 54, 47
1, 183492, Note_off_c, 1, 29, 108
1, 183520, Note_off_c, 15, 60, 127
1, 183536, Note_off_c, 14, 72, 115
1, 183536, Note_off_c, 14, 60, 124
1, 183544, Note_off_c, 3, 72, 53
1, 183544, Note_off_c, 2, 91, 97
1, 183544, Note_off_c, 2, 79, 86
1, 183552, Note_on_c, 14, 64, 115
1, 183552, Note_on_c, 14, 76, 111
1, 183552, Note_on_c, 15, 64, 126
1, 183552, Note_on_c, 8, 55, 127
1, 183552, Note_on_c, 7, 62, 120
1, 183552, Note_on_c, 7, 67, 113
1, 183552, Note_on_c, 7, 71, 113
1, 183552, Note_on_c, 3, 72, 56
1, 183552, Note_on_c, 1, 31, 102
1, 183552, Note_on_c, 9, 36, 120
1, 183552, Note_on_c, 9, 42, 83
1, 183552, Note_on_c, 9, 54, 30
1, 183552, Note_on_c, 9, 69, 35
1, 183556, Note_off_c, 9, 69, 35
1, 183556, Note_off_c, 9, 54, 30
1, 183556, Note_off_c, 9, 42, 83
1, 183556, Note_off_c, 9, 36, 120
1, 183640, Note_off_c, 3, 72, 56
1, 183648, Note_on_c, 3, 72, 63
1, 183648, Note_on_c, 9, 54, 44
1, 183652, Note_off_c, 9, 54, 44
1, 183732, Note_off_c, 1, 31, 102
1, 183736, Note_off_c, 3, 72, 63
1, 183736, Note_off_c, 7, 71, 113
1, 183736, Note_off_c, 7, 67, 113
1, 183736, Note_off_c, 7, 62, 120
1, 183736, Note_off_c, 8, 55, 127
1, 183744, Note_on_c, 3, 67, 50
1, 183744, Note_on_c, 9, 42, 86
1, 183744, Note_on_c, 9, 54, 38
1, 183744, Note_on_c, 9, 69, 48
1, 183748, Note_off_c, 9, 69, 48
1, 183748, Note_off_c, 9, 54, 38
1, 183748, Note_off_c, 9, 42, 86
1, 183832, Note_off_c, 3, 67, 50
1, 183840, Note_on_c, 9, 54, 32
1, 183840, Note_on_c, 9, 69, 44
1, 183844, Note_off_c, 9, 69, 44
1, 183844, Note_off_c, 9, 54, 32
1, 183920, Note_off_c, 15, 64, 126
1, 183920, Note_off_c, 14, 76, 111
1, 183920, Note_off_c, 14, 64, 115
1, 183936, Note_on_c, 14, 62, 115
1, 183936, Note_on_c, 14, 74, 111
1, 183936, Note_on_c, 15, 62, 121
1, 183936, Note_on_c, 8, 55, 117
1, 183936, Note_on_c, 7, 62, 103
1, 183936, Note_on_c, 7, 67, 111
1, 183936, Note_on_c, 7, 71, 121
1, 183936, Note_on_c, 3, 67, 65
1, 183936, Note_on_c, 2, 86, 82
1, 183936, Note_on_c, 2, 98, 91
1, 183936, Note_on_c, 9, 39, 103
1, 183936, Note_on_c, 1, 31, 118
1, 183936, Note_on_c, 9, 36, 114
1, 183936, Note_on_c, 9, 38, 110
1, 183936, Note_on_c, 9, 42, 76
1, 183936, Note_on_c, 9, 54, 44
1, 183936, Note_on_c, 9, 69, 48
1, 183940, Note_off_c, 9, 69, 48
1, 183940, Note_off_c, 9, 54, 44
1, 183940, Note_off_c, 9, 42, 76
1, 183940, Note_off_c, 9, 38, 110
1, 183940, Note_off_c, 9, 36, 114
1, 183940, Note_off_c, 9, 39, 103
1, 184024, Note_off_c, 3, 67, 65
1, 184032, Note_on_c, 3, 69, 64
1, 184032, Note_on_c, 9, 54, 40
1, 184036, Note_off_c, 9, 54, 40
1, 184080, Pitch_bend_c, 1, 8192
1, 184088, Pitch_bend_c, 1, 8323
1, 184096, Pitch_bend_c, 1, 8456
1, 184104, Pitch_bend_c, 1, 8588
1, 184108, Note_off_c, 15, 62, 121
1, 184112, Note_off_c, 14, 74, 111
1, 184112, Note_off_c, 14, 62, 115
1, 184112, Pitch_bend_c, 1, 8720
1, 184120, Note_off_c, 3, 69, 64
1, 184120, Note_off_c, 7, 71, 121
1, 184120, Note_off_c, 7, 67, 111
1, 184120, Note_off_c, 7, 62, 103
1, 184120, Note_off_c, 8, 55, 117
1, 184120, Pitch_bend_c, 1, 8852
1, 184128, Note_on_c, 14, 60, 116
1, 184128, Note_on_c, 14, 72, 118
1, 184128, Note_on_c, 15, 60, 115
1, 184128, Note_on_c, 3, 72, 65
1, 184128, Pitch_bend_c, 1, 8984
1, 184128, Note_on_c, 9, 42, 90
1, 184128, Note_on_c, 9, 54, 49
1, 184128, Note_on_c, 9, 69, 39
1, 184132, Note_off_c, 9, 69, 39
1, 184132, Note_off_c, 9, 54, 49
1, 184132, Note_off_c, 9, 42, 90
1, 184136, Pitch_bend_c, 1, 9116
1, 184144, Pitch_bend_c, 1, 9248
1, 184152, Pitch_bend_c, 1, 9380
1, 184160, Pitch_bend_c, 1, 9512
1, 184168, Pitch_bend_c, 1, 9644
1, 184176, Pitch_bend_c, 1, 9776
1, 184184, Pitch_bend_c, 1, 9908
1, 184192, Pitch_bend_c, 1, 10040
1, 184200, Note_off_c, 2, 98, 91
1, 184200, Note_off_c, 2, 86, 82
1, 184200, Pitch_bend_c, 1, 10172
1, 184208, Pitch_bend_c, 1, 10305
1, 184212, Note_off_c, 1, 31, 118
1, 184216, Note_off_c, 3, 72, 65
1, 184216, Pitch_bend_c, 1, 10437
1, 184224, Note_on_c, 3, 74, 53
1, 184224, Pitch_bend_c, 1, 10569
1, 184224, Note_on_c, 9, 54, 46
1, 184224, Note_on_c, 9, 69, 39
1, 184228, Note_off_c, 9, 69, 39
1, 184228, Note_off_c, 9, 54, 46
1, 184232, Pitch_bend_c, 1, 10701
1, 184240, Pitch_bend_c, 1, 10833
1, 184248, Pitch_bend_c, 1, 10965
1, 184256, Pitch_bend_c, 1, 11097
1, 184264, Pitch_bend_c, 1, 11229
1, 184272, Pitch_bend_c, 1, 11361
1, 184280, Pitch_bend_c, 1, 11493
1, 184288, Pitch_bend_c, 1, 11625
1, 184296, Pitch_bend_c, 1, 11757
1, 184304, Pitch_bend_c, 1, 8192
1, 184312, Note_off_c, 3, 74, 53
1, 184320, Tempo, 500000
1, 184320, Note_on_c, 8, 48, 125
1, 184320, Note_on_c, 7, 60, 103
1, 184320, Note_on_c, 7, 64, 118
1, 184320, Note_on_c, 7, 67, 119
1, 184320, Note_on_c, 3, 72, 52
1, 184320, Note_on_c, 2, 72, 95
1, 184320, Note_on_c, 2, 84, 78
1, 184320, Note_on_c, 1, 36, 102
1, 184320, Note_on_c, 9, 36, 124
1, 184320, Note_on_c, 9, 42, 89
1, 184320, Note_on_c, 9, 54, 36
1, 184320, Note_on_c, 9, 69, 39
1, 184324, Note_off_c, 9, 69, 39
1, 184324, Note_off_c, 9, 54, 36
1, 184324, Note_off_c, 9, 42, 89
1, 184324, Note_off_c, 9, 36, 124
1, 184408, Note_off_c, 3, 72, 52
1, 184408, Pitch_bend_c, 1, 8192
1, 184416, Note_on_c, 3, 72, 50
1, 184416, Pitch_bend_c, 1, 8009
1, 184416, Note_on_c, 9, 54, 32
1, 184420, Note_off_c, 9, 54, 32
1, 184424, Pitch_bend_c, 1, 7827
1, 184432, Pitch_bend_c, 1, 7644
1, 184440, Pitch_bend_c, 1, 7461
1, 184448, Pitch_bend_c, 1, 7278
1, 184456, Pitch_bend_c, 1, 7096
1, 184464, Pitch_bend_c, 1, 6913
1, 184472, Pitch_bend_c, 1, 6730
1, 184480, Pitch_bend_c, 1, 6548
1, 184488, Pitch_bend_c, 1, 6365
1, 184496, Pitch_bend_c, 1, 6182
1, 184504, Note_off_c, 3, 72, 50
1, 184504, Note_off_c, 2, 84, 78
1, 184504, Note_off_c, 2, 72, 95
1, 184504, Note_off_c, 7, 67, 119
1, 184504, Note_off_c, 7, 64, 118
1, 184504, Note_off_c, 7, 60, 103
1, 184504, Note_off_c, 8, 48, 125
1, 184504, Pitch_bend_c, 1, 6000
1, 184512, Note_on_c, 3, 72, 59
1, 184512, Note_on_c, 2, 79, 90
1, 184512, Note_on_c, 2, 91, 82
1, 184512, Pitch_bend_c, 1, 5817
1, 184512, Note_on_c, 9, 42, 76
1, 184512, Note_on_c, 9, 54, 49
1, 184512, Note_on_c, 9, 69, 47
1, 184516, Note_off_c, 9, 69, 47
1, 184516, Note_off_c, 9, 54, 49
1, 184516, Note_off_c, 9, 42, 76
1, 184520, Pitch_bend_c, 1, 5634
1, 184528, Pitch_bend_c, 1, 5451
1, 184536, Pitch_bend_c, 1, 5269
1, 184544, Pitch_bend_c, 1, 5086
1, 184552, Pitch_bend_c, 1, 4903
1, 184560, Pitch_bend_c, 1, 4720
1, 184568, Pitch_bend_c, 1, 4538
1, 184576, Pitch_bend_c, 1, 4355
1, 184584, Pitch_bend_c, 1, 4172
1, 184592, Pitch_bend_c, 1, 3990
1, 184596, Note_off_c, 1, 36, 102
1, 184600, Note_off_c, 3, 72, 59
1, 184600, Pitch_bend_c, 1, 3807
1, 184608, Note_on_c, 3, 72, 64
1, 184608, Pitch_bend_c, 1, 3624
1, 184608, Note_on_c, 9, 54, 40
1, 184608, Note_on_c, 9, 69, 40
1, 184612, Note_off_c, 9, 69, 40
1, 184612, Note_off_c, 9, 54, 40
1, 184616, Pitch_bend_c, 1, 3441
1, 184624, Pitch_bend_c, 1, 3259
1, 184632, Pitch_bend_c, 1, 3076
1, 184640, Pitch_bend_c, 1, 8192
1, 184696, Note_off_c, 3, 72, 64
1, 184696, Note_off_c, 2, 91, 82
1, 184696, Note_off_c, 2, 79, 90
1, 184704, Note_on_c, 8, 52, 117
1, 184704, Note_on_c, 7, 60, 107
1, 184704, Note_on_c, 7, 64, 112
1, 184704, Note_on_c, 7, 67, 121
1, 184704, Note_on_c, 3, 72, 62
1, 184704, Note_on_c, 2, 76, 85
1, 184704, Note_on_c, 2, 88, 94
1, 184704, Note_on_c, 9, 39, 96
1, 184704, Note_on_c, 1, 28, 104
1, 184704, Note_on_c, 9, 36, 121
1, 184704, Note_on_c, 9, 38, 115
1, 184704, Note_on_c, 9, 42, 81
1, 184704, Note_on_c, 9, 54, 37
1, 184704, Note_on_c, 9, 69, 36
1, 184708, Note_off_c, 9, 69, 36
1, 184708, Note_off_c, 9, 54, 37
1, 184708, Note_off_c, 9, 42, 81
1, 184708, Note_off_c, 9, 38, 115
1, 184708, Note_off_c, 9, 36, 121
1, 184708, Note_off_c, 9, 39, 96
1, 184792, Note_off_c, 3, 72, 62
1, 184792, Note_off_c, 7, 67, 121
1, 184792, Note_off_c, 7, 64, 112
1, 184792, Note_off_c, 7, 60, 107
1, 184792, Note_off_c, 8, 52, 117
1, 184800, Note_on_c, 3, 72, 63
1, 184800, Note_on_c, 9, 54, 42
1, 184804, Note_off_c, 9, 54, 42
1, 184884, Note_off_c, 1, 28, 104
1, 184888, Note_off_c, 3, 72, 63
1, 184888, Note_off_c, 2, 88, 94
1, 184888, Note_off_c, 2, 76, 85
1, 184896, Note_on_c, 8, 53, 120
1, 184896, Note_on_c, 7, 60, 120
1, 184896, Note_on_c, 7, 65, 122
1, 184896, Note_on_c, 7, 69, 120
1, 184896, Note_on_c, 3, 72, 66
1, 184896, Note_on_c, 2, 77, 91
1, 184896, Note_on_c, 2, 89, 95
1, 184896, Note_on_c, 1, 29, 104
1, 184896, Note_on_c, 9, 42, 82
1, 184896, Note_on_c, 9, 54, 47
1, 184896, Note_on_c, 9, 69, 49
1, 184900, Note_off_c, 9, 69, 49
1, 184900, Note_off_c, 9, 54, 47
1, 184900, Note_off_c, 9, 42, 82
1, 184984, Note_off_c, 3, 72, 66
1, 184984, Note_off_c, 7, 69, 120
1, 184984, Note_off_c, 7, 65, 122
1, 184984, Note_off_c, 7, 60, 120
1, 184984, Note_off_c, 8, 53, 120
1, 184992, Note_on_c, 3, 72, 52
1, 184992, Note_on_c, 9, 54, 33
1, 184992, Note_on_c, 9, 69, 39
1, 184996, Note_off_c, 9, 69, 39
1, 184996, Note_off_c, 9, 54, 33
1, 185076, Note_off_c, 1, 29, 104
1, 185080, Note_off_c, 3, 72, 52
1, 185080, Note_off_c, 2, 89, 95
1, 185080, Note_off_c, 2, 77, 91
1, 185088, Note_on_c, 3, 72, 52
1, 185088, Note_on_c, 2, 84, 92
1, 185088, Note_on_c, 2, 96, 96
1, 185088, Note_on_c, 9, 36, 120
1, 185088, Note_on_c, 9, 42, 83
1, 185088, Note_on_c, 9, 54, 36
1, 185088, Note_on_c, 9, 69, 38
1, 185092, Note_off_c, 9, 69, 38
1, 185092, Note_off_c, 9, 54, 36
1, 185092, Note_off_c, 9, 42, 83
1, 185092, Note_off_c, 9, 36, 120
1, 185176, Note_off_c, 3, 72, 52
1, 185184, Note_on_c, 3, 72, 53
1, 185184, Note_on_c, 9, 54, 31
1, 185188, Note_off_c, 9, 54, 31
1, 185272, Note_off_c, 3, 72, 53
1, 185272, Note_off_c, 2, 96, 96
1, 185272, Note_off_c, 2, 84, 92
1, 185280, Note_on_c, 8, 52, 116
1, 185280, Note_on_c, 7, 60, 120
1, 185280, Note_on_c, 7, 64, 113
1, 185280, Note_on_c, 7, 67, 121
1, 185280, Note_on_c, 3, 72, 66
1, 185280, Note_on_c, 2, 89, 85
1, 185280, Note_on_c, 2, 101, 92
1, 185280, Note_on_c, 1, 28, 114
1, 185280, Note_on_c, 9, 42, 86
1, 185280, Note_on_c, 9, 54, 48
1, 185280, Note_on_c, 9, 69, 46
1, 185284, Note_off_c, 9, 69, 46
1, 185284, Note_off_c, 9, 54, 48
1, 185284, Note_off_c, 9, 42, 86
1, 185360, Note_off_c, 14, 72, 118
1, 185360, Note_off_c, 14, 60, 116
1, 185364, Note_off_c, 15, 60, 115
1, 185368, Note_off_c, 3, 72, 66
1, 185368, Note_off_c, 7, 67, 121
1, 185368, Note_off_c, 7, 64, 113
1, 185368, Note_off_c, 7, 60, 120
1, 185368, Note_off_c, 8, 52, 116
1, 185376, Note_on_c, 3, 72, 66
1, 185376, Note_on_c, 9, 54, 31
1, 185376, Note_on_c, 9, 69, 49
1, 185380, Note_off_c, 9, 69, 49
1, 185380, Note_off_c, 9, 54, 31
1, 185460, Note_off_c, 1, 28, 114
1, 185464, Note_off_c, 3, 72, 66
1, 185464, Note_off_c, 2, 101, 92
1, 185464, Note_off_c, 2, 89, 85
1, 185472, Note_on_c, 3, 72, 50
1, 185472, Note_on_c, 9, 39, 95
1, 185472, Note_on_c, 9, 36, 114
1, 185472, Note_on_c, 9, 38, 110
1, 185472, Note_on_c, 9, 42, 76
1, 185472, Note_on_c, 9, 54, 45
1, 185472, Note_on_c, 9, 69, 42
1, 185476, Note_off_c, 9, 69, 42
1, 185476, Note_off_c, 9, 54, 45
1, 185476, Note_off_c, 9, 42, 76
1, 185476, Note_off_c, 9, 38, 110
1, 185476, Note_off_c, 9, 36, 114
1, 185476, Note_off_c, 9, 39, 95
1, 185560, Note_off_c, 3, 72, 50
1, 185568, Note_on_c, 3, 72, 51
1, 185568, Note_on_c, 9, 54, 46
1, 185572, Note_off_c, 9, 54, 46
1, 185656, Note_off_c, 3, 72, 51
1, 185664, Note_on_c, 8, 53, 123
1, 185664, Note_on_c, 7, 60, 107
1, 185664, Note_on_c, 7, 65, 105
1, 185664, Note_on_c, 7, 69, 110
1, 185664, Note_on_c, 3, 72, 65
1, 185664, Note_on_c, 2, 88, 80
1, 185664, Note_on_c, 2, 100, 79
1, 185664, Note_on_c, 1, 29, 118
1, 185664, Note_on_c, 9, 42, 90
1, 185664, Note_on_c, 9, 54, 46
1, 185664, Note_on_c, 9, 69, 33
1, 185668, Note_off_c, 9, 69, 33
1, 185668, Note_off_c, 9, 54, 46
1, 185668, Note_off_c, 9, 42, 90
1, 185752, Note_off_c, 3, 72, 65
1, 185752, Note_off_c, 7, 69, 110
1, 185752, Note_off_c, 7, 65, 105
1, 185752, Note_off_c, 7, 60, 107
1, 185752, Note_off_c, 8, 53, 123
1, 185760, Note_on_c, 3, 72, 50
1, 185760, Note_on_c, 9, 54, 38
1, 185760, Note_on_c, 9, 69, 32
1, 185764, Note_off_c, 9, 69, 32
1, 185764, Note_off_c, 9, 54, 38
1, 185844, Note_off_c, 1, 29, 118
1, 185848, Note_off_c, 3, 72, 50
1, 185848, Note_off_c, 2, 100, 79
1, 185848, Note_off_c, 2, 88, 80
1, 185856, Note_on_c, 3, 72, 63
1, 185856, Note_on_c, 9, 36, 124
1, 185856, Note_on_c, 9, 42, 89
1, 185856, Note_on_c, 9, 54, 33
1, 185856, Note_on_c, 9, 69, 42
1, 185860, Note_off_c, 9, 69, 42
1, 185860, Note_off_c, 9, 54, 33
1, 185860, Note_off_c, 9, 42, 89
1, 185860, Note_off_c, 9, 36, 124
1, 185944, Note_off_c, 3, 72, 63
1, 185952, Note_on_c, 3, 72, 65
1, 185952, Note_on_c, 9, 54, 38
1, 185956, Note_off_c, 9, 54, 38
1, 186040, Note_off_c, 3, 72, 65
1, 186048, Note_on_c, 8, 52, 117
1, 186048, Note_on_c, 7, 60, 112
1, 186048, Note_on_c, 7, 64, 121
1, 186048, Note_on_c, 7, 67, 116
1, 186048, Note_on_c, 3, 72, 51
1, 186048, Note_on_c, 2, 84, 94
1, 186048, Note_on_c, 2, 96, 94
1, 186048, Note_on_c, 1, 28, 111
1, 186048, Note_on_c, 9, 42, 76
1, 186048, Note_on_c, 9, 54, 31
1, 186048, Note_on_c, 9, 69, 38
1, 186052, Note_off_c, 9, 69, 38
1, 186052, Note_off_c, 9, 54, 31
1, 186052, Note_off_c, 9, 42, 76
1, 186136, Note_off_c, 3, 72, 51
1, 186136, Note_off_c, 7, 67, 116
1, 186136, Note_off_c, 7, 64, 121
1, 186136, Note_off_c, 7, 60, 112
1, 186136, Note_off_c, 8, 52, 117
1, 186144, Note_on_c, 3, 72, 63
1, 186144, Note_on_c, 9, 54, 47
1, 186144, Note_on_c, 9, 69, 45
1, 186148, Note_off_c, 9, 69, 45
1, 186148, Note_off_c, 9, 54, 47
1, 186228, Note_off_c, 1, 28, 111
1, 186232, Note_off_c, 3, 72, 63
1, 186232, Note_off_c, 2, 96, 94
1, 186232, Note_off_c, 2, 84, 94
1, 186240, Note_on_c, 3, 72, 62
1, 186240, Note_on_c, 9, 39, 102
1, 186240, Note_on_c, 9, 36, 121
1, 186240, Note_on_c, 9, 38, 115
1, 186240, Note_on_c, 9, 42, 81
1, 186240, Note_on_c, 9, 54, 30
1, 186240, Note_on_c, 9, 69, 48
1, 186244, Note_off_c, 9, 69, 48
1, 186244, Note_off_c, 9, 54, 30
1, 186244, Note_off_c, 9, 42, 81
1, 186244, Note_off_c, 9, 38, 115
1, 186244, Note_off_c, 9, 36, 121
1, 186244, Note_off_c, 9, 39, 102
1, 186328, Note_off_c, 3, 72, 62
1, 186336, Note_on_c, 3, 72, 68
1, 186336, Note_on_c, 9, 54, 41
1, 186340, Note_off_c, 9, 54, 41
1, 186424, Note_off_c, 3, 72, 68
1, 186432, Note_on_c, 8, 53, 118
1, 186432, Note_on_c, 7, 60, 122
1, 186432, Note_on_c, 7, 65, 112
1, 186432, Note_on_c, 7, 69, 109
1, 186432, Note_on_c, 3, 72, 67
1, 186432, Note_on_c, 2, 79, 93
1, 186432, Note_on_c, 2, 91, 85
1, 186432, Note_on_c, 1, 29, 113
1, 186432, Note_on_c, 9, 42, 82
1, 186432, Note_on_c, 9, 54, 31
1, 186432, Note_on_c, 9, 69, 36
1, 186436, Note_off_c, 9, 69, 36
1, 186436, Note_off_c, 9, 54, 31
1, 186436, Note_off_c, 9, 42, 82
1, 186520, Note_off_c, 3, 72, 67
1, 186520, Note_off_c, 7, 69, 109
1, 186520, Note_off_c, 7, 65, 112
1, 186520, Note_off_c, 7, 60, 122
1, 186520, Note_off_c, 8, 53, 118
1, 186528, Note_on_c, 3, 72, 58
1, 186528, Note_on_c, 9, 54, 46
1, 186528, Note_on_c, 9, 69, 41
1, 186532, Note_off_c, 9, 69, 41
1, 186532, Note_off_c, 9, 54, 46
1, 186564, Note_off_c, 1, 29, 113
1, 186616, Note_off_c, 3, 72, 58
1, 186616, Note_off_c, 2, 91, 85
1, 186616, Note_off_c, 2, 79, 93
1, 186624, Note_on_c, 8, 55, 127
1, 186624, Note_on_c, 7, 62, 109
1, 186624, Note_on_c, 7, 67, 114
1, 186624, Note_on_c, 7, 71, 105
1, 186624, Note_on_c, 3, 72, 60
1, 186624, Note_on_c, 1, 31, 101
1, 186624, Note_on_c, 9, 36, 120
1, 186624, Note_on_c, 9, 42, 83
1, 186624, Note_on_c, 9, 54, 42
1, 186624, Note_on_c, 9, 69, 34
1, 186628, Note_off_c, 9, 69, 34
1, 186628, Note_off_c, 9, 54, 42
1, 186628, Note_off_c, 9, 42, 83
1, 186628, Note_off_c, 9, 36, 120
1, 186712, Note_off_c, 3, 72, 60
1, 186720, Note_on_c, 3, 72, 54
1, 186720, Note_on_c, 9, 54, 35
1, 186724, Note_off_c, 9, 54, 35
1, 186804, Note_off_c, 1, 31, 101
1, 186808, Note_off_c, 3, 72, 54
1, 186808, Note_off_c, 7, 71, 105
1, 186808, Note_off_c, 7, 67, 114
1, 186808, Note_off_c, 7, 62, 109
1, 186808, Note_off_c, 8, 55, 127
1, 186816, Note_on_c, 3, 76, 55
1, 186816, Note_on_c, 9, 42, 86
1, 186816, Note_on_c, 9, 54, 31
1, 186816, Note_on_c, 9, 69, 37
1, 186820, Note_off_c, 9, 69, 37
1, 186820, Note_off_c, 9, 54, 31
1, 186820, Note_off_c, 9, 42, 86
1, 186904, Note_off_c, 3, 76, 55
1, 186912, Note_on_c, 9, 54, 32
1, 186912, Note_on_c, 9, 69, 37
1, 186916, Note_off_c, 9, 69, 37
1, 186916, Note_off_c, 9, 54, 32
1, 187008, Note_on_c, 8, 55, 123
1, 187008, Note_on_c, 7, 62, 121
1, 187008, Note_on_c, 7, 67, 116
1, 187008, Note_on_c, 7, 71, 110
1, 187008, Note_on_c, 3, 76, 54
1, 187008, Note_on_c, 2, 86, 94
1, 187008, Note_on_c, 2, 98, 83
1, 187008, Note_on_c, 9, 39, 93
1, 187008, Note_on_c, 1, 31, 116
1, 187008, Note_on_c, 9, 36, 114
1, 187008, Note_on_c, 9, 38, 110
1, 187008, Note_on_c, 9, 42, 76
1, 187008, Note_on_c, 9, 54, 39
1, 187008, Note_on_c, 9, 69, 38
1, 187012, Note_off_c, 9, 69, 38
1, 187012, Note_off_c, 9, 54, 39
1, 187012, Note_off_c, 9, 42, 76
1, 187012, Note_off_c, 9, 38, 110
1, 187012, Note_off_c, 9, 36, 114
1, 187012, Note_off_c, 9, 39, 93
1, 187096, Note_off_c, 3, 76, 54
1, 187104, Note_on_c, 3, 74, 52
1, 187104, Note_on_c, 9, 54, 31
1, 187108, Note_off_c, 9, 54, 31
1, 187152, Pitch_bend_c, 1, 8192
1, 187160, Pitch_bend_c, 1, 8323
1, 187168, Pitch_bend_c, 1, 8456
1, 187176, Pitch_bend_c, 1, 8588
1, 187184, Pitch_bend_c, 1, 8720
1, 187192, Note_off_c, 3, 74, 52
1, 187192, Note_off_c, 7, 71, 110
1, 187192, Note_off_c, 7, 67, 116
1, 187192, Note_off_c, 7, 62, 121
1, 187192, Note_off_c, 8, 55, 123
1, 187192, Pitch_bend_c, 1, 8852
1, 187200, Note_on_c, 3, 69, 63
1, 187200, Pitch_bend_c, 1, 8984
1, 187200, Note_on_c, 9, 42, 90
1, 187200, Note_on_c, 9, 54, 39
1, 187200, Note_on_c, 9, 69, 49
1, 187204, Note_off_c, 9, 69, 49
1, 187204, Note_off_c, 9, 54, 39
1, 187204, Note_off_c, 9, 42, 90
1, 187208, Pitch_bend_c, 1, 9116
1, 187216, Pitch_bend_c, 1, 9248
1, 187224, Pitch_bend_c, 1, 9380
1, 187232, Pitch_bend_c, 1, 9512
1, 187240, Pitch_bend_c, 1, 9644
1, 187248, Pitch_bend_c, 1, 9776
1, 187256, Pitch_bend_c, 1, 9908
1, 187264, Pitch_bend_c, 1, 10040
1, 187272, Note_off_c, 2, 98, 83
1, 187272, Note_off_c, 2, 86, 94
1, 187272, Pitch_bend_c, 1, 10172
1, 187280, Pitch_bend_c, 1, 10305
1, 187284, Note_off_c, 1, 31, 116
1, 187288, Note_off_c, 3, 69, 63
1, 187288, Pitch_bend_c, 1, 10437
1, 187296, Note_on_c, 3, 67, 64
1, 187296, Pitch_bend_c, 1, 10569
1, 187296, Note_on_c, 9, 54, 40
1, 187296, Note_on_c, 9, 69, 41
1, 187300, Note_off_c, 9, 69, 41
1, 187300, Note_off_c, 9, 54, 40
1, 187304, Pitch_bend_c, 1, 10701
1, 187312, Pitch_bend_c, 1, 10833
1, 187320, Pitch_bend_c, 1, 10965
1, 187328, Pitch_bend_c, 1, 11097
1, 187336, Pitch_bend_c, 1, 11229
1, 187344, Pitch_bend_c, 1, 11361
1, 187352, Pitch_bend_c, 1, 11493
1, 187360, Pitch_bend_c, 1, 11625
1, 187368, Pitch_bend_c, 1, 11757
1, 187376, Pitch_bend_c, 1, 8192
1, 187384, Note_off_c, 3, 67, 64
1, 187392, Tempo, 504200
1, 187392, Note_on_c, 13, 48, 116
1, 187392, Note_on_c, 8, 48, 127
1, 187392, Note_on_c, 7, 64, 117
1, 187392, Note_on_c, 7, 67, 119
1, 187392, Note_on_c, 7, 72, 124
1, 187392, Note_on_c, 3, 72, 78
1, 187392, Note_on_c, 2, 64, 96
1, 187392, Note_on_c, 2, 67, 93
1, 187392, Note_on_c, 2, 72, 102
1, 187392, Note_on_c, 1, 36, 118
1, 187392, Note_on_c, 9, 36, 127
1, 187392, Note_on_c, 9, 42, 93
1, 187392, Note_on_c, 9, 49, 127
1, 187392, Note_on_c, 9, 54, 57
1, 187392, Note_on_c, 9, 69, 52
1, 187396, Note_off_c, 9, 69, 52
1, 187396, Note_off_c, 9, 54, 57
1, 187396, Note_off_c, 9, 49, 127
1, 187396, Note_off_c, 9, 42, 93
1, 187396, Note_off_c, 9, 36, 127
1, 187564, Note_off_c, 2, 72, 102
1, 187568, Note_off_c, 2, 64, 96
1, 187572, Note_off_c, 2, 67, 93
1, 187576, Note_off_c, 8, 48, 127
1, 187584, Note_off_c, 1, 36, 118
1, 187596, Note_off_c, 3, 72, 78
1, 187600, Note_off_c, 7, 72, 124
1, 187600, Note_off_c, 7, 67, 119
1, 187604, Note_off_c, 7, 64, 117
1, 187612, Note_off_c, 13, 48, 116
1, 190305, System_exclusive, 5, 126, 127, 9, 1, 247
1, 190383, System_exclusive, 10, 65, 16, 66, 18, 64, 0, 127, 127, 66, 247
1, 190464, End_track
0, 0, End_of_file
