0, 0, Header, 1, 10, 192
1, 0, Start_track
1, 0, Title_t, "We All Fall In Love Sometimes"
1, 0, Text_t, "By Elton John Bernie Taupin"
1, 0, Copyright_t, "Adam Pringle"
1, 0, Text_t, "Generated by NoteWorthy Composer"
1, 0, Tempo, 967741
1, 0, Time_signature, 4, 2, 24, 8
1, 0, End_track
2, 0, Start_track
2, 0, MIDI_port, 0
2, 0, Title_t, "Staff"
2, 0, Program_c, 0, 0
2, 0, Control_c, 0, 7, 127
2, 0, Control_c, 0, 10, 64
2, 768, Note_on_c, 0, 82, 110
2, 864, Note_on_c, 0, 82, 0
2, 864, Note_on_c, 0, 81, 110
2, 960, Note_on_c, 0, 81, 0
2, 960, Note_on_c, 0, 81, 110
2, 1056, Note_on_c, 0, 81, 0
2, 1056, Note_on_c, 0, 79, 110
2, 1152, Note_on_c, 0, 79, 0
2, 1152, Note_on_c, 0, 79, 110
2, 1248, Note_on_c, 0, 79, 0
2, 1248, Note_on_c, 0, 74, 110
2, 1344, Note_on_c, 0, 74, 0
2, 1344, Note_on_c, 0, 70, 110
2, 1440, Note_on_c, 0, 70, 0
2, 1440, Note_on_c, 0, 67, 110
2, 1536, Note_on_c, 0, 67, 0
2, 1536, Note_on_c, 0, 79, 110
2, 1632, Note_on_c, 0, 79, 0
2, 1632, Note_on_c, 0, 77, 110
2, 1728, Note_on_c, 0, 77, 0
2, 1728, Note_on_c, 0, 77, 110
2, 1824, Note_on_c, 0, 77, 0
2, 1824, Note_on_c, 0, 75, 110
2, 1920, Note_on_c, 0, 75, 0
2, 1920, Note_on_c, 0, 75, 110
2, 2016, Note_on_c, 0, 75, 0
2, 2016, Note_on_c, 0, 72, 110
2, 2112, Note_on_c, 0, 72, 0
2, 2112, Note_on_c, 0, 67, 110
2, 2208, Note_on_c, 0, 67, 0
2, 2208, Note_on_c, 0, 63, 110
2, 2304, Note_on_c, 0, 63, 0
2, 2304, Note_on_c, 0, 62, 110
2, 2400, Note_on_c, 0, 62, 0
2, 2400, Note_on_c, 0, 66, 110
2, 2496, Note_on_c, 0, 66, 0
2, 2496, Note_on_c, 0, 66, 110
2, 2592, Note_on_c, 0, 66, 0
2, 2592, Note_on_c, 0, 62, 110
2, 2688, Note_on_c, 0, 62, 0
2, 2688, Note_on_c, 0, 69, 110
2, 2784, Note_on_c, 0, 69, 0
2, 2784, Note_on_c, 0, 66, 110
2, 2832, Note_on_c, 0, 66, 0
2, 2832, Note_on_c, 0, 62, 110
2, 2880, Note_on_c, 0, 62, 0
2, 2880, Note_on_c, 0, 60, 110
2, 2976, Note_on_c, 0, 60, 0
2, 2976, Note_on_c, 0, 58, 110
2, 3024, Note_on_c, 0, 58, 0
2, 3024, Note_on_c, 0, 57, 110
2, 3072, Note_on_c, 0, 57, 0
2, 3072, Note_on_c, 0, 55, 110
2, 3072, Note_on_c, 0, 58, 110
2, 3072, Note_on_c, 0, 62, 110
2, 3264, Note_on_c, 0, 55, 0
2, 3264, Note_on_c, 0, 58, 0
2, 3264, Note_on_c, 0, 62, 0
2, 3264, Note_on_c, 0, 55, 110
2, 3264, Note_on_c, 0, 58, 110
2, 3264, Note_on_c, 0, 62, 110
2, 3456, Note_on_c, 0, 55, 0
2, 3456, Note_on_c, 0, 58, 0
2, 3456, Note_on_c, 0, 62, 0
2, 3456, Note_on_c, 0, 55, 110
2, 3456, Note_on_c, 0, 58, 110
2, 3456, Note_on_c, 0, 62, 110
2, 3648, Note_on_c, 0, 55, 0
2, 3648, Note_on_c, 0, 58, 0
2, 3648, Note_on_c, 0, 62, 0
2, 3648, Note_on_c, 0, 67, 110
2, 3696, Note_on_c, 0, 67, 0
2, 3696, Note_on_c, 0, 65, 110
2, 3744, Note_on_c, 0, 65, 0
2, 3744, Note_on_c, 0, 63, 110
2, 3792, Note_on_c, 0, 63, 0
2, 3792, Note_on_c, 0, 62, 110
2, 3840, Note_on_c, 0, 62, 0
2, 3840, Note_on_c, 0, 55, 110
2, 3840, Note_on_c, 0, 60, 110
2, 3840, Note_on_c, 0, 63, 110
2, 4032, Note_on_c, 0, 55, 0
2, 4032, Note_on_c, 0, 60, 0
2, 4032, Note_on_c, 0, 63, 0
2, 4032, Note_on_c, 0, 55, 110
2, 4032, Note_on_c, 0, 60, 110
2, 4032, Note_on_c, 0, 63, 110
2, 4224, Note_on_c, 0, 55, 0
2, 4224, Note_on_c, 0, 60, 0
2, 4224, Note_on_c, 0, 63, 0
2, 4224, Note_on_c, 0, 55, 110
2, 4224, Note_on_c, 0, 60, 110
2, 4224, Note_on_c, 0, 63, 110
2, 4416, Note_on_c, 0, 55, 0
2, 4416, Note_on_c, 0, 60, 0
2, 4416, Note_on_c, 0, 63, 0
2, 4416, Note_on_c, 0, 60, 110
2, 4416, Note_on_c, 0, 63, 110
2, 4416, Note_on_c, 0, 67, 110
2, 4608, Note_on_c, 0, 60, 0
2, 4608, Note_on_c, 0, 63, 0
2, 4608, Note_on_c, 0, 67, 0
2, 4608, Note_on_c, 0, 55, 110
2, 4608, Note_on_c, 0, 60, 110
2, 4608, Note_on_c, 0, 62, 110
2, 4800, Note_on_c, 0, 55, 0
2, 4800, Note_on_c, 0, 60, 0
2, 4800, Note_on_c, 0, 62, 0
2, 4800, Note_on_c, 0, 55, 110
2, 4800, Note_on_c, 0, 60, 110
2, 4800, Note_on_c, 0, 62, 110
2, 4992, Note_on_c, 0, 55, 0
2, 4992, Note_on_c, 0, 60, 0
2, 4992, Note_on_c, 0, 62, 0
2, 4992, Note_on_c, 0, 60, 110
2, 4992, Note_on_c, 0, 62, 110
2, 4992, Note_on_c, 0, 66, 110
2, 5184, Note_on_c, 0, 60, 0
2, 5184, Note_on_c, 0, 62, 0
2, 5184, Note_on_c, 0, 66, 0
2, 5184, Note_on_c, 0, 60, 110
2, 5184, Note_on_c, 0, 62, 110
2, 5184, Note_on_c, 0, 67, 110
2, 5232, Note_on_c, 0, 60, 0
2, 5232, Note_on_c, 0, 62, 0
2, 5232, Note_on_c, 0, 67, 0
2, 5232, Note_on_c, 0, 66, 110
2, 5280, Note_on_c, 0, 66, 0
2, 5280, Note_on_c, 0, 62, 110
2, 5376, Note_on_c, 0, 62, 0
2, 5376, Note_on_c, 0, 55, 110
2, 5376, Note_on_c, 0, 58, 110
2, 5376, Note_on_c, 0, 62, 110
2, 5568, Note_on_c, 0, 55, 0
2, 5568, Note_on_c, 0, 58, 0
2, 5568, Note_on_c, 0, 62, 0
2, 5568, Note_on_c, 0, 55, 110
2, 5568, Note_on_c, 0, 58, 110
2, 5568, Note_on_c, 0, 62, 110
2, 5760, Note_on_c, 0, 55, 0
2, 5760, Note_on_c, 0, 58, 0
2, 5760, Note_on_c, 0, 62, 0
2, 5760, Note_on_c, 0, 55, 110
2, 5760, Note_on_c, 0, 58, 110
2, 5760, Note_on_c, 0, 62, 110
2, 5952, Note_on_c, 0, 55, 0
2, 5952, Note_on_c, 0, 58, 0
2, 5952, Note_on_c, 0, 62, 0
2, 5952, Note_on_c, 0, 55, 110
2, 5952, Note_on_c, 0, 58, 110
2, 5952, Note_on_c, 0, 62, 110
2, 6144, Note_on_c, 0, 55, 0
2, 6144, Note_on_c, 0, 58, 0
2, 6144, Note_on_c, 0, 62, 0
2, 6144, Note_on_c, 0, 55, 110
2, 6144, Note_on_c, 0, 58, 110
2, 6144, Note_on_c, 0, 63, 110
2, 6336, Note_on_c, 0, 55, 0
2, 6336, Note_on_c, 0, 58, 0
2, 6336, Note_on_c, 0, 63, 0
2, 6336, Note_on_c, 0, 55, 110
2, 6336, Note_on_c, 0, 58, 110
2, 6336, Note_on_c, 0, 63, 110
2, 6528, Note_on_c, 0, 55, 0
2, 6528, Note_on_c, 0, 58, 0
2, 6528, Note_on_c, 0, 63, 0
2, 6528, Note_on_c, 0, 55, 110
2, 6528, Note_on_c, 0, 58, 110
2, 6528, Note_on_c, 0, 63, 110
2, 6720, Note_on_c, 0, 55, 0
2, 6720, Note_on_c, 0, 58, 0
2, 6720, Note_on_c, 0, 63, 0
2, 6720, Note_on_c, 0, 55, 110
2, 6720, Note_on_c, 0, 58, 110
2, 6720, Note_on_c, 0, 63, 110
2, 6912, Note_on_c, 0, 55, 0
2, 6912, Note_on_c, 0, 58, 0
2, 6912, Note_on_c, 0, 63, 0
2, 6912, Note_on_c, 0, 60, 110
2, 6912, Note_on_c, 0, 63, 110
2, 6912, Note_on_c, 0, 67, 110
2, 7104, Note_on_c, 0, 60, 0
2, 7104, Note_on_c, 0, 63, 0
2, 7104, Note_on_c, 0, 67, 0
2, 7104, Note_on_c, 0, 60, 110
2, 7104, Note_on_c, 0, 63, 110
2, 7104, Note_on_c, 0, 67, 110
2, 7296, Note_on_c, 0, 60, 0
2, 7296, Note_on_c, 0, 63, 0
2, 7296, Note_on_c, 0, 67, 0
2, 7296, Note_on_c, 0, 60, 110
2, 7296, Note_on_c, 0, 62, 110
2, 7296, Note_on_c, 0, 66, 110
2, 7488, Note_on_c, 0, 60, 0
2, 7488, Note_on_c, 0, 62, 0
2, 7488, Note_on_c, 0, 66, 0
2, 7488, Note_on_c, 0, 58, 110
2, 7536, Note_on_c, 0, 58, 0
2, 7536, Note_on_c, 0, 60, 110
2, 7584, Note_on_c, 0, 60, 0
2, 7584, Note_on_c, 0, 62, 110
2, 7632, Note_on_c, 0, 62, 0
2, 7632, Note_on_c, 0, 67, 110
2, 7680, Note_on_c, 0, 67, 0
2, 7680, Note_on_c, 0, 55, 110
2, 7680, Note_on_c, 0, 58, 110
2, 7680, Note_on_c, 0, 62, 110
2, 7872, Note_on_c, 0, 55, 0
2, 7872, Note_on_c, 0, 58, 0
2, 7872, Note_on_c, 0, 62, 0
2, 7872, Note_on_c, 0, 55, 110
2, 7872, Note_on_c, 0, 58, 110
2, 7872, Note_on_c, 0, 62, 110
2, 8064, Note_on_c, 0, 55, 0
2, 8064, Note_on_c, 0, 58, 0
2, 8064, Note_on_c, 0, 62, 0
2, 8064, Note_on_c, 0, 58, 110
2, 8064, Note_on_c, 0, 62, 110
2, 8064, Note_on_c, 0, 67, 110
2, 8256, Note_on_c, 0, 58, 0
2, 8256, Note_on_c, 0, 62, 0
2, 8256, Note_on_c, 0, 67, 0
2, 8256, Note_on_c, 0, 58, 110
2, 8256, Note_on_c, 0, 62, 110
2, 8256, Note_on_c, 0, 67, 110
2, 8448, Note_on_c, 0, 58, 0
2, 8448, Note_on_c, 0, 62, 0
2, 8448, Note_on_c, 0, 67, 0
2, 8448, Note_on_c, 0, 58, 110
2, 8448, Note_on_c, 0, 63, 110
2, 8448, Note_on_c, 0, 67, 110
2, 8640, Note_on_c, 0, 58, 0
2, 8640, Note_on_c, 0, 63, 0
2, 8640, Note_on_c, 0, 67, 0
2, 8640, Note_on_c, 0, 58, 110
2, 8640, Note_on_c, 0, 63, 110
2, 8640, Note_on_c, 0, 67, 110
2, 8832, Note_on_c, 0, 58, 0
2, 8832, Note_on_c, 0, 63, 0
2, 8832, Note_on_c, 0, 67, 0
2, 8832, Note_on_c, 0, 58, 110
2, 8832, Note_on_c, 0, 63, 110
2, 8832, Note_on_c, 0, 67, 110
2, 8928, Note_on_c, 0, 58, 0
2, 8928, Note_on_c, 0, 63, 0
2, 8928, Note_on_c, 0, 67, 0
2, 8928, Note_on_c, 0, 65, 110
2, 9024, Note_on_c, 0, 65, 0
2, 9024, Note_on_c, 0, 65, 110
2, 9120, Note_on_c, 0, 65, 0
2, 9120, Note_on_c, 0, 63, 110
2, 9216, Note_on_c, 0, 63, 0
2, 9216, Note_on_c, 0, 55, 110
2, 9216, Note_on_c, 0, 60, 110
2, 9216, Note_on_c, 0, 62, 110
2, 9408, Note_on_c, 0, 55, 0
2, 9408, Note_on_c, 0, 60, 0
2, 9408, Note_on_c, 0, 62, 0
2, 9408, Note_on_c, 0, 55, 110
2, 9408, Note_on_c, 0, 60, 110
2, 9408, Note_on_c, 0, 62, 110
2, 9600, Note_on_c, 0, 55, 0
2, 9600, Note_on_c, 0, 60, 0
2, 9600, Note_on_c, 0, 62, 0
2, 9600, Note_on_c, 0, 54, 110
2, 9600, Note_on_c, 0, 60, 110
2, 9600, Note_on_c, 0, 62, 110
2, 9792, Note_on_c, 0, 54, 0
2, 9792, Note_on_c, 0, 60, 0
2, 9792, Note_on_c, 0, 62, 0
2, 9792, Note_on_c, 0, 54, 110
2, 9792, Note_on_c, 0, 60, 110
2, 9792, Note_on_c, 0, 62, 110
2, 9984, Note_on_c, 0, 54, 0
2, 9984, Note_on_c, 0, 60, 0
2, 9984, Note_on_c, 0, 62, 0
2, 9984, Note_on_c, 0, 55, 110
2, 9984, Note_on_c, 0, 58, 110
2, 10176, Note_on_c, 0, 55, 0
2, 10176, Note_on_c, 0, 58, 0
2, 10176, Note_on_c, 0, 55, 110
2, 10176, Note_on_c, 0, 58, 110
2, 10176, Note_on_c, 0, 62, 110
2, 10368, Note_on_c, 0, 55, 0
2, 10368, Note_on_c, 0, 58, 0
2, 10368, Note_on_c, 0, 62, 0
2, 10368, Note_on_c, 0, 70, 110
2, 10368, Note_on_c, 0, 74, 110
2, 10368, Note_on_c, 0, 82, 110
2, 10464, Note_on_c, 0, 70, 0
2, 10464, Note_on_c, 0, 74, 0
2, 10464, Note_on_c, 0, 82, 0
2, 10464, Note_on_c, 0, 81, 110
2, 10560, Note_on_c, 0, 81, 0
2, 10560, Note_on_c, 0, 70, 110
2, 10560, Note_on_c, 0, 74, 110
2, 10560, Note_on_c, 0, 81, 110
2, 10656, Note_on_c, 0, 70, 0
2, 10656, Note_on_c, 0, 74, 0
2, 10656, Note_on_c, 0, 81, 0
2, 10656, Note_on_c, 0, 79, 110
2, 10752, Note_on_c, 0, 79, 0
2, 10752, Note_on_c, 0, 69, 110
2, 10752, Note_on_c, 0, 72, 110
2, 10752, Note_on_c, 0, 79, 110
2, 10848, Note_on_c, 0, 69, 0
2, 10848, Note_on_c, 0, 72, 0
2, 10848, Note_on_c, 0, 79, 0
2, 10848, Note_on_c, 0, 77, 110
2, 10944, Note_on_c, 0, 77, 0
2, 10944, Note_on_c, 0, 69, 110
2, 10944, Note_on_c, 0, 72, 110
2, 10944, Note_on_c, 0, 75, 110
2, 11040, Note_on_c, 0, 69, 0
2, 11040, Note_on_c, 0, 72, 0
2, 11040, Note_on_c, 0, 75, 0
2, 11040, Note_on_c, 0, 74, 110
2, 11136, Note_on_c, 0, 74, 0
2, 11136, Note_on_c, 0, 66, 110
2, 11136, Note_on_c, 0, 72, 110
2, 11232, Note_on_c, 0, 66, 0
2, 11232, Note_on_c, 0, 72, 0
2, 11232, Note_on_c, 0, 60, 110
2, 11280, Note_on_c, 0, 60, 0
2, 11280, Note_on_c, 0, 62, 110
2, 11328, Note_on_c, 0, 62, 0
2, 11328, Note_on_c, 0, 60, 110
2, 11376, Note_on_c, 0, 60, 0
2, 11376, Note_on_c, 0, 58, 110
2, 11424, Note_on_c, 0, 58, 0
2, 11424, Note_on_c, 0, 57, 110
2, 11520, Note_on_c, 0, 57, 0
2, 11520, Note_on_c, 0, 55, 110
2, 11520, Note_on_c, 0, 58, 110
2, 11712, Note_on_c, 0, 55, 0
2, 11712, Note_on_c, 0, 58, 0
2, 11712, Note_on_c, 0, 55, 110
2, 11712, Note_on_c, 0, 58, 110
2, 11712, Note_on_c, 0, 62, 110
2, 11904, Note_on_c, 0, 55, 0
2, 11904, Note_on_c, 0, 58, 0
2, 11904, Note_on_c, 0, 62, 0
2, 11904, Note_on_c, 0, 55, 110
2, 11904, Note_on_c, 0, 58, 110
2, 11904, Note_on_c, 0, 62, 110
2, 12096, Note_on_c, 0, 55, 0
2, 12096, Note_on_c, 0, 58, 0
2, 12096, Note_on_c, 0, 62, 0
2, 12096, Note_on_c, 0, 67, 110
2, 12144, Note_on_c, 0, 67, 0
2, 12144, Note_on_c, 0, 65, 110
2, 12192, Note_on_c, 0, 65, 0
2, 12192, Note_on_c, 0, 63, 110
2, 12240, Note_on_c, 0, 63, 0
2, 12240, Note_on_c, 0, 62, 110
2, 12288, Note_on_c, 0, 62, 0
2, 12288, Note_on_c, 0, 55, 110
2, 12288, Note_on_c, 0, 60, 110
2, 12288, Note_on_c, 0, 63, 110
2, 12480, Note_on_c, 0, 55, 0
2, 12480, Note_on_c, 0, 60, 0
2, 12480, Note_on_c, 0, 63, 0
2, 12480, Note_on_c, 0, 55, 110
2, 12480, Note_on_c, 0, 60, 110
2, 12480, Note_on_c, 0, 63, 110
2, 12672, Note_on_c, 0, 55, 0
2, 12672, Note_on_c, 0, 60, 0
2, 12672, Note_on_c, 0, 63, 0
2, 12672, Note_on_c, 0, 55, 110
2, 12672, Note_on_c, 0, 60, 110
2, 12672, Note_on_c, 0, 63, 110
2, 12864, Note_on_c, 0, 55, 0
2, 12864, Note_on_c, 0, 60, 0
2, 12864, Note_on_c, 0, 63, 0
2, 12864, Note_on_c, 0, 60, 110
2, 12864, Note_on_c, 0, 63, 110
2, 12864, Note_on_c, 0, 67, 110
2, 13056, Note_on_c, 0, 60, 0
2, 13056, Note_on_c, 0, 63, 0
2, 13056, Note_on_c, 0, 67, 0
2, 13056, Note_on_c, 0, 55, 110
2, 13056, Note_on_c, 0, 60, 110
2, 13056, Note_on_c, 0, 62, 110
2, 13248, Note_on_c, 0, 55, 0
2, 13248, Note_on_c, 0, 60, 0
2, 13248, Note_on_c, 0, 62, 0
2, 13248, Note_on_c, 0, 55, 110
2, 13248, Note_on_c, 0, 60, 110
2, 13248, Note_on_c, 0, 62, 110
2, 13440, Note_on_c, 0, 55, 0
2, 13440, Note_on_c, 0, 60, 0
2, 13440, Note_on_c, 0, 62, 0
2, 13440, Note_on_c, 0, 60, 110
2, 13440, Note_on_c, 0, 62, 110
2, 13440, Note_on_c, 0, 66, 110
2, 13632, Note_on_c, 0, 60, 0
2, 13632, Note_on_c, 0, 62, 0
2, 13632, Note_on_c, 0, 66, 0
2, 13632, Note_on_c, 0, 60, 110
2, 13632, Note_on_c, 0, 62, 110
2, 13632, Note_on_c, 0, 67, 110
2, 13680, Note_on_c, 0, 60, 0
2, 13680, Note_on_c, 0, 62, 0
2, 13680, Note_on_c, 0, 67, 0
2, 13680, Note_on_c, 0, 66, 110
2, 13728, Note_on_c, 0, 66, 0
2, 13728, Note_on_c, 0, 62, 110
2, 13824, Note_on_c, 0, 62, 0
2, 13824, Note_on_c, 0, 55, 110
2, 13824, Note_on_c, 0, 58, 110
2, 13824, Note_on_c, 0, 62, 110
2, 14016, Note_on_c, 0, 55, 0
2, 14016, Note_on_c, 0, 58, 0
2, 14016, Note_on_c, 0, 62, 0
2, 14016, Note_on_c, 0, 55, 110
2, 14016, Note_on_c, 0, 58, 110
2, 14016, Note_on_c, 0, 62, 110
2, 14208, Note_on_c, 0, 55, 0
2, 14208, Note_on_c, 0, 58, 0
2, 14208, Note_on_c, 0, 62, 0
2, 14208, Note_on_c, 0, 55, 110
2, 14208, Note_on_c, 0, 58, 110
2, 14208, Note_on_c, 0, 62, 110
2, 14400, Note_on_c, 0, 55, 0
2, 14400, Note_on_c, 0, 58, 0
2, 14400, Note_on_c, 0, 62, 0
2, 14400, Note_on_c, 0, 55, 110
2, 14400, Note_on_c, 0, 58, 110
2, 14400, Note_on_c, 0, 62, 110
2, 14592, Note_on_c, 0, 55, 0
2, 14592, Note_on_c, 0, 58, 0
2, 14592, Note_on_c, 0, 62, 0
2, 14592, Note_on_c, 0, 55, 110
2, 14592, Note_on_c, 0, 58, 110
2, 14592, Note_on_c, 0, 63, 110
2, 14784, Note_on_c, 0, 55, 0
2, 14784, Note_on_c, 0, 58, 0
2, 14784, Note_on_c, 0, 63, 0
2, 14784, Note_on_c, 0, 55, 110
2, 14784, Note_on_c, 0, 58, 110
2, 14784, Note_on_c, 0, 63, 110
2, 14976, Note_on_c, 0, 55, 0
2, 14976, Note_on_c, 0, 58, 0
2, 14976, Note_on_c, 0, 63, 0
2, 14976, Note_on_c, 0, 55, 110
2, 14976, Note_on_c, 0, 58, 110
2, 14976, Note_on_c, 0, 63, 110
2, 15168, Note_on_c, 0, 55, 0
2, 15168, Note_on_c, 0, 58, 0
2, 15168, Note_on_c, 0, 63, 0
2, 15168, Note_on_c, 0, 55, 110
2, 15168, Note_on_c, 0, 58, 110
2, 15168, Note_on_c, 0, 63, 110
2, 15360, Note_on_c, 0, 55, 0
2, 15360, Note_on_c, 0, 58, 0
2, 15360, Note_on_c, 0, 63, 0
2, 15360, Note_on_c, 0, 60, 110
2, 15360, Note_on_c, 0, 63, 110
2, 15360, Note_on_c, 0, 67, 110
2, 15552, Note_on_c, 0, 60, 0
2, 15552, Note_on_c, 0, 63, 0
2, 15552, Note_on_c, 0, 67, 0
2, 15552, Note_on_c, 0, 60, 110
2, 15552, Note_on_c, 0, 63, 110
2, 15552, Note_on_c, 0, 67, 110
2, 15744, Note_on_c, 0, 60, 0
2, 15744, Note_on_c, 0, 63, 0
2, 15744, Note_on_c, 0, 67, 0
2, 15744, Note_on_c, 0, 60, 110
2, 15744, Note_on_c, 0, 62, 110
2, 15744, Note_on_c, 0, 66, 110
2, 15936, Note_on_c, 0, 60, 0
2, 15936, Note_on_c, 0, 62, 0
2, 15936, Note_on_c, 0, 66, 0
2, 15936, Note_on_c, 0, 58, 110
2, 15984, Note_on_c, 0, 58, 0
2, 15984, Note_on_c, 0, 60, 110
2, 16032, Note_on_c, 0, 60, 0
2, 16032, Note_on_c, 0, 62, 110
2, 16080, Note_on_c, 0, 62, 0
2, 16080, Note_on_c, 0, 67, 110
2, 16128, Note_on_c, 0, 67, 0
2, 16128, Note_on_c, 0, 55, 110
2, 16128, Note_on_c, 0, 58, 110
2, 16128, Note_on_c, 0, 62, 110
2, 16320, Note_on_c, 0, 55, 0
2, 16320, Note_on_c, 0, 58, 0
2, 16320, Note_on_c, 0, 62, 0
2, 16320, Note_on_c, 0, 55, 110
2, 16320, Note_on_c, 0, 58, 110
2, 16320, Note_on_c, 0, 62, 110
2, 16512, Note_on_c, 0, 55, 0
2, 16512, Note_on_c, 0, 58, 0
2, 16512, Note_on_c, 0, 62, 0
2, 16512, Note_on_c, 0, 58, 110
2, 16512, Note_on_c, 0, 62, 110
2, 16512, Note_on_c, 0, 67, 110
2, 16704, Note_on_c, 0, 58, 0
2, 16704, Note_on_c, 0, 62, 0
2, 16704, Note_on_c, 0, 67, 0
2, 16704, Note_on_c, 0, 58, 110
2, 16704, Note_on_c, 0, 62, 110
2, 16704, Note_on_c, 0, 67, 110
2, 16896, Note_on_c, 0, 58, 0
2, 16896, Note_on_c, 0, 62, 0
2, 16896, Note_on_c, 0, 67, 0
2, 16896, Note_on_c, 0, 58, 110
2, 16896, Note_on_c, 0, 63, 110
2, 16896, Note_on_c, 0, 67, 110
2, 17088, Note_on_c, 0, 58, 0
2, 17088, Note_on_c, 0, 63, 0
2, 17088, Note_on_c, 0, 67, 0
2, 17088, Note_on_c, 0, 58, 110
2, 17088, Note_on_c, 0, 63, 110
2, 17088, Note_on_c, 0, 67, 110
2, 17280, Note_on_c, 0, 58, 0
2, 17280, Note_on_c, 0, 63, 0
2, 17280, Note_on_c, 0, 67, 0
2, 17280, Note_on_c, 0, 58, 110
2, 17280, Note_on_c, 0, 63, 110
2, 17280, Note_on_c, 0, 67, 110
2, 17376, Note_on_c, 0, 58, 0
2, 17376, Note_on_c, 0, 63, 0
2, 17376, Note_on_c, 0, 67, 0
2, 17376, Note_on_c, 0, 65, 110
2, 17472, Note_on_c, 0, 65, 0
2, 17472, Note_on_c, 0, 65, 110
2, 17568, Note_on_c, 0, 65, 0
2, 17568, Note_on_c, 0, 63, 110
2, 17664, Note_on_c, 0, 63, 0
2, 17664, Note_on_c, 0, 55, 110
2, 17664, Note_on_c, 0, 60, 110
2, 17664, Note_on_c, 0, 62, 110
2, 17856, Note_on_c, 0, 55, 0
2, 17856, Note_on_c, 0, 60, 0
2, 17856, Note_on_c, 0, 62, 0
2, 17856, Note_on_c, 0, 55, 110
2, 17856, Note_on_c, 0, 60, 110
2, 17856, Note_on_c, 0, 62, 110
2, 18048, Note_on_c, 0, 55, 0
2, 18048, Note_on_c, 0, 60, 0
2, 18048, Note_on_c, 0, 62, 0
2, 18048, Note_on_c, 0, 54, 110
2, 18048, Note_on_c, 0, 60, 110
2, 18048, Note_on_c, 0, 62, 110
2, 18240, Note_on_c, 0, 54, 0
2, 18240, Note_on_c, 0, 60, 0
2, 18240, Note_on_c, 0, 62, 0
2, 18240, Note_on_c, 0, 54, 110
2, 18240, Note_on_c, 0, 60, 110
2, 18240, Note_on_c, 0, 62, 110
2, 18432, Note_on_c, 0, 54, 0
2, 18432, Note_on_c, 0, 60, 0
2, 18432, Note_on_c, 0, 62, 0
2, 18432, Note_on_c, 0, 55, 110
2, 18432, Note_on_c, 0, 58, 110
2, 18624, Note_on_c, 0, 55, 0
2, 18624, Note_on_c, 0, 58, 0
2, 18624, Note_on_c, 0, 55, 110
2, 18624, Note_on_c, 0, 58, 110
2, 18624, Note_on_c, 0, 62, 110
2, 18816, Note_on_c, 0, 55, 0
2, 18816, Note_on_c, 0, 58, 0
2, 18816, Note_on_c, 0, 62, 0
2, 18816, Note_on_c, 0, 70, 110
2, 18816, Note_on_c, 0, 74, 110
2, 18816, Note_on_c, 0, 82, 110
2, 18912, Note_on_c, 0, 70, 0
2, 18912, Note_on_c, 0, 74, 0
2, 18912, Note_on_c, 0, 82, 0
2, 18912, Note_on_c, 0, 81, 110
2, 19008, Note_on_c, 0, 81, 0
2, 19008, Note_on_c, 0, 70, 110
2, 19008, Note_on_c, 0, 74, 110
2, 19008, Note_on_c, 0, 81, 110
2, 19104, Note_on_c, 0, 70, 0
2, 19104, Note_on_c, 0, 74, 0
2, 19104, Note_on_c, 0, 81, 0
2, 19104, Note_on_c, 0, 79, 110
2, 19200, Note_on_c, 0, 79, 0
2, 19200, Note_on_c, 0, 69, 110
2, 19200, Note_on_c, 0, 72, 110
2, 19200, Note_on_c, 0, 79, 110
2, 19296, Note_on_c, 0, 69, 0
2, 19296, Note_on_c, 0, 72, 0
2, 19296, Note_on_c, 0, 79, 0
2, 19296, Note_on_c, 0, 77, 110
2, 19392, Note_on_c, 0, 77, 0
2, 19392, Note_on_c, 0, 69, 110
2, 19392, Note_on_c, 0, 72, 110
2, 19392, Note_on_c, 0, 77, 110
2, 19488, Note_on_c, 0, 69, 0
2, 19488, Note_on_c, 0, 72, 0
2, 19488, Note_on_c, 0, 77, 0
2, 19488, Note_on_c, 0, 75, 110
2, 19584, Note_on_c, 0, 75, 0
2, 19584, Note_on_c, 0, 74, 110
2, 19680, Note_on_c, 0, 74, 0
2, 19680, Note_on_c, 0, 69, 110
2, 19776, Note_on_c, 0, 69, 0
2, 19776, Note_on_c, 0, 62, 110
2, 19968, Note_on_c, 0, 62, 0
2, 19968, Note_on_c, 0, 62, 110
2, 19968, Note_on_c, 0, 67, 110
2, 19968, Note_on_c, 0, 71, 110
2, 20112, Note_on_c, 0, 62, 0
2, 20112, Note_on_c, 0, 67, 0
2, 20112, Note_on_c, 0, 71, 0
2, 20112, Note_on_c, 0, 67, 110
2, 20160, Note_on_c, 0, 67, 0
2, 20160, Note_on_c, 0, 62, 110
2, 20160, Note_on_c, 0, 71, 110
2, 20352, Note_on_c, 0, 62, 0
2, 20352, Note_on_c, 0, 71, 0
2, 20352, Note_on_c, 0, 62, 110
2, 20352, Note_on_c, 0, 69, 110
2, 20352, Note_on_c, 0, 72, 110
2, 20544, Note_on_c, 0, 62, 0
2, 20544, Note_on_c, 0, 69, 0
2, 20544, Note_on_c, 0, 72, 0
2, 20544, Note_on_c, 0, 62, 110
2, 20544, Note_on_c, 0, 69, 110
2, 20544, Note_on_c, 0, 74, 110
2, 20736, Note_on_c, 0, 62, 0
2, 20736, Note_on_c, 0, 69, 0
2, 20736, Note_on_c, 0, 74, 0
2, 20736, Note_on_c, 0, 64, 110
2, 20736, Note_on_c, 0, 67, 110
2, 20736, Note_on_c, 0, 76, 110
2, 20928, Note_on_c, 0, 64, 0
2, 20928, Note_on_c, 0, 67, 0
2, 20928, Note_on_c, 0, 76, 0
2, 20928, Note_on_c, 0, 64, 110
2, 20928, Note_on_c, 0, 67, 110
2, 20928, Note_on_c, 0, 76, 110
2, 21120, Note_on_c, 0, 64, 0
2, 21120, Note_on_c, 0, 67, 0
2, 21120, Note_on_c, 0, 76, 0
2, 21120, Note_on_c, 0, 64, 110
2, 21120, Note_on_c, 0, 68, 110
2, 21120, Note_on_c, 0, 74, 110
2, 21312, Note_on_c, 0, 64, 0
2, 21312, Note_on_c, 0, 68, 0
2, 21312, Note_on_c, 0, 74, 0
2, 21312, Note_on_c, 0, 64, 110
2, 21312, Note_on_c, 0, 68, 110
2, 21312, Note_on_c, 0, 74, 110
2, 21504, Note_on_c, 0, 64, 0
2, 21504, Note_on_c, 0, 68, 0
2, 21504, Note_on_c, 0, 74, 0
2, 21504, Note_on_c, 0, 64, 110
2, 21504, Note_on_c, 0, 69, 110
2, 21504, Note_on_c, 0, 72, 110
2, 21696, Note_on_c, 0, 64, 0
2, 21696, Note_on_c, 0, 69, 0
2, 21696, Note_on_c, 0, 72, 0
2, 21696, Note_on_c, 0, 64, 110
2, 21696, Note_on_c, 0, 69, 110
2, 21696, Note_on_c, 0, 72, 110
2, 21888, Note_on_c, 0, 64, 0
2, 21888, Note_on_c, 0, 69, 0
2, 21888, Note_on_c, 0, 72, 0
2, 21888, Note_on_c, 0, 64, 110
2, 21888, Note_on_c, 0, 69, 110
2, 21888, Note_on_c, 0, 72, 110
2, 22080, Note_on_c, 0, 64, 0
2, 22080, Note_on_c, 0, 69, 0
2, 22080, Note_on_c, 0, 72, 0
2, 22080, Note_on_c, 0, 64, 110
2, 22080, Note_on_c, 0, 69, 110
2, 22080, Note_on_c, 0, 72, 110
2, 22272, Note_on_c, 0, 64, 0
2, 22272, Note_on_c, 0, 69, 0
2, 22272, Note_on_c, 0, 72, 0
2, 22272, Note_on_c, 0, 62, 110
2, 22272, Note_on_c, 0, 69, 110
2, 22272, Note_on_c, 0, 72, 110
2, 22464, Note_on_c, 0, 62, 0
2, 22464, Note_on_c, 0, 69, 0
2, 22464, Note_on_c, 0, 72, 0
2, 22464, Note_on_c, 0, 62, 110
2, 22464, Note_on_c, 0, 69, 110
2, 22464, Note_on_c, 0, 72, 110
2, 22656, Note_on_c, 0, 62, 0
2, 22656, Note_on_c, 0, 69, 0
2, 22656, Note_on_c, 0, 72, 0
2, 22656, Note_on_c, 0, 62, 110
2, 22656, Note_on_c, 0, 69, 110
2, 22656, Note_on_c, 0, 72, 110
2, 22848, Note_on_c, 0, 62, 0
2, 22848, Note_on_c, 0, 69, 0
2, 22848, Note_on_c, 0, 72, 0
2, 22848, Note_on_c, 0, 62, 110
2, 22848, Note_on_c, 0, 69, 110
2, 22848, Note_on_c, 0, 72, 110
2, 23040, Note_on_c, 0, 62, 0
2, 23040, Note_on_c, 0, 69, 0
2, 23040, Note_on_c, 0, 72, 0
2, 23040, Note_on_c, 0, 64, 110
2, 23040, Note_on_c, 0, 67, 110
2, 23040, Note_on_c, 0, 72, 110
2, 23136, Note_on_c, 0, 64, 0
2, 23136, Note_on_c, 0, 67, 0
2, 23136, Note_on_c, 0, 72, 0
2, 23136, Note_on_c, 0, 62, 110
2, 23136, Note_on_c, 0, 67, 110
2, 23136, Note_on_c, 0, 71, 110
2, 23232, Note_on_c, 0, 62, 0
2, 23232, Note_on_c, 0, 67, 0
2, 23232, Note_on_c, 0, 71, 0
2, 23328, Note_on_c, 0, 64, 110
2, 23328, Note_on_c, 0, 67, 110
2, 23328, Note_on_c, 0, 72, 110
2, 23424, Note_on_c, 0, 64, 0
2, 23424, Note_on_c, 0, 67, 0
2, 23424, Note_on_c, 0, 72, 0
2, 23424, Note_on_c, 0, 62, 110
2, 23424, Note_on_c, 0, 67, 110
2, 23424, Note_on_c, 0, 71, 110
2, 23616, Note_on_c, 0, 62, 0
2, 23616, Note_on_c, 0, 67, 0
2, 23616, Note_on_c, 0, 71, 0
2, 23616, Note_on_c, 0, 62, 110
2, 23616, Note_on_c, 0, 67, 110
2, 23616, Note_on_c, 0, 71, 110
2, 23664, Note_on_c, 0, 62, 0
2, 23664, Note_on_c, 0, 67, 0
2, 23664, Note_on_c, 0, 71, 0
2, 23664, Note_on_c, 0, 62, 110
2, 23664, Note_on_c, 0, 69, 110
2, 23712, Note_on_c, 0, 62, 0
2, 23712, Note_on_c, 0, 69, 0
2, 23712, Note_on_c, 0, 67, 110
2, 23808, Note_on_c, 0, 67, 0
2, 23808, Note_on_c, 0, 63, 110
2, 23808, Note_on_c, 0, 69, 110
2, 23808, Note_on_c, 0, 71, 110
2, 24000, Note_on_c, 0, 63, 0
2, 24000, Note_on_c, 0, 69, 0
2, 24000, Note_on_c, 0, 71, 0
2, 24000, Note_on_c, 0, 63, 110
2, 24000, Note_on_c, 0, 69, 110
2, 24000, Note_on_c, 0, 71, 110
2, 24192, Note_on_c, 0, 63, 0
2, 24192, Note_on_c, 0, 69, 0
2, 24192, Note_on_c, 0, 71, 0
2, 24192, Note_on_c, 0, 63, 110
2, 24192, Note_on_c, 0, 69, 110
2, 24192, Note_on_c, 0, 71, 110
2, 24384, Note_on_c, 0, 63, 0
2, 24384, Note_on_c, 0, 69, 0
2, 24384, Note_on_c, 0, 71, 0
2, 24384, Note_on_c, 0, 63, 110
2, 24384, Note_on_c, 0, 69, 110
2, 24384, Note_on_c, 0, 71, 110
2, 24480, Note_on_c, 0, 63, 0
2, 24480, Note_on_c, 0, 69, 0
2, 24480, Note_on_c, 0, 71, 0
2, 24480, Note_on_c, 0, 63, 110
2, 24576, Note_on_c, 0, 63, 0
2, 24576, Note_on_c, 0, 55, 110
2, 24576, Note_on_c, 0, 60, 110
2, 24576, Note_on_c, 0, 64, 110
2, 24768, Note_on_c, 0, 55, 0
2, 24768, Note_on_c, 0, 60, 0
2, 24768, Note_on_c, 0, 64, 0
2, 24768, Note_on_c, 0, 55, 110
2, 24768, Note_on_c, 0, 60, 110
2, 24768, Note_on_c, 0, 64, 110
2, 24864, Note_on_c, 0, 55, 0
2, 24864, Note_on_c, 0, 60, 0
2, 24864, Note_on_c, 0, 64, 0
2, 24864, Note_on_c, 0, 55, 110
2, 24960, Note_on_c, 0, 55, 0
2, 24960, Note_on_c, 0, 55, 110
2, 24960, Note_on_c, 0, 57, 110
2, 24960, Note_on_c, 0, 64, 110
2, 25152, Note_on_c, 0, 55, 0
2, 25152, Note_on_c, 0, 57, 0
2, 25152, Note_on_c, 0, 64, 0
2, 25152, Note_on_c, 0, 55, 110
2, 25152, Note_on_c, 0, 57, 110
2, 25152, Note_on_c, 0, 64, 110
2, 25344, Note_on_c, 0, 55, 0
2, 25344, Note_on_c, 0, 57, 0
2, 25344, Note_on_c, 0, 64, 0
2, 25344, Note_on_c, 0, 62, 110
2, 25344, Note_on_c, 0, 66, 110
2, 25440, Note_on_c, 0, 62, 0
2, 25440, Note_on_c, 0, 66, 0
2, 25440, Note_on_c, 0, 60, 110
2, 25440, Note_on_c, 0, 64, 110
2, 25536, Note_on_c, 0, 60, 0
2, 25536, Note_on_c, 0, 64, 0
2, 25536, Note_on_c, 0, 60, 110
2, 25536, Note_on_c, 0, 64, 110
2, 25632, Note_on_c, 0, 60, 0
2, 25632, Note_on_c, 0, 64, 0
2, 25632, Note_on_c, 0, 62, 110
2, 25728, Note_on_c, 0, 62, 0
2, 25728, Note_on_c, 0, 60, 110
2, 25728, Note_on_c, 0, 62, 110
2, 25920, Note_on_c, 0, 60, 0
2, 25920, Note_on_c, 0, 62, 0
2, 25920, Note_on_c, 0, 60, 110
2, 25920, Note_on_c, 0, 66, 110
2, 26112, Note_on_c, 0, 60, 0
2, 26112, Note_on_c, 0, 66, 0
2, 26112, Note_on_c, 0, 55, 110
2, 26112, Note_on_c, 0, 58, 110
2, 26112, Note_on_c, 0, 62, 110
2, 26112, Note_on_c, 0, 67, 110
2, 26304, Note_on_c, 0, 55, 0
2, 26304, Note_on_c, 0, 58, 0
2, 26304, Note_on_c, 0, 62, 0
2, 26304, Note_on_c, 0, 67, 0
2, 26304, Note_on_c, 0, 55, 110
2, 26304, Note_on_c, 0, 58, 110
2, 26304, Note_on_c, 0, 62, 110
2, 26496, Note_on_c, 0, 55, 0
2, 26496, Note_on_c, 0, 58, 0
2, 26496, Note_on_c, 0, 62, 0
2, 26496, Note_on_c, 0, 55, 110
2, 26496, Note_on_c, 0, 58, 110
2, 26496, Note_on_c, 0, 62, 110
2, 26688, Note_on_c, 0, 55, 0
2, 26688, Note_on_c, 0, 58, 0
2, 26688, Note_on_c, 0, 62, 0
2, 26688, Note_on_c, 0, 67, 110
2, 26736, Note_on_c, 0, 67, 0
2, 26736, Note_on_c, 0, 65, 110
2, 26784, Note_on_c, 0, 65, 0
2, 26784, Note_on_c, 0, 63, 110
2, 26832, Note_on_c, 0, 63, 0
2, 26832, Note_on_c, 0, 62, 110
2, 26880, Note_on_c, 0, 62, 0
2, 26880, Note_on_c, 0, 55, 110
2, 26880, Note_on_c, 0, 60, 110
2, 26880, Note_on_c, 0, 63, 110
2, 27072, Note_on_c, 0, 55, 0
2, 27072, Note_on_c, 0, 60, 0
2, 27072, Note_on_c, 0, 63, 0
2, 27072, Note_on_c, 0, 55, 110
2, 27072, Note_on_c, 0, 60, 110
2, 27072, Note_on_c, 0, 63, 110
2, 27264, Note_on_c, 0, 55, 0
2, 27264, Note_on_c, 0, 60, 0
2, 27264, Note_on_c, 0, 63, 0
2, 27264, Note_on_c, 0, 55, 110
2, 27264, Note_on_c, 0, 60, 110
2, 27264, Note_on_c, 0, 63, 110
2, 27456, Note_on_c, 0, 55, 0
2, 27456, Note_on_c, 0, 60, 0
2, 27456, Note_on_c, 0, 63, 0
2, 27456, Note_on_c, 0, 60, 110
2, 27456, Note_on_c, 0, 63, 110
2, 27456, Note_on_c, 0, 67, 110
2, 27648, Note_on_c, 0, 60, 0
2, 27648, Note_on_c, 0, 63, 0
2, 27648, Note_on_c, 0, 67, 0
2, 27648, Note_on_c, 0, 55, 110
2, 27648, Note_on_c, 0, 60, 110
2, 27648, Note_on_c, 0, 62, 110
2, 27840, Note_on_c, 0, 55, 0
2, 27840, Note_on_c, 0, 60, 0
2, 27840, Note_on_c, 0, 62, 0
2, 27840, Note_on_c, 0, 55, 110
2, 27840, Note_on_c, 0, 60, 110
2, 27840, Note_on_c, 0, 62, 110
2, 28032, Note_on_c, 0, 55, 0
2, 28032, Note_on_c, 0, 60, 0
2, 28032, Note_on_c, 0, 62, 0
2, 28032, Note_on_c, 0, 60, 110
2, 28032, Note_on_c, 0, 62, 110
2, 28032, Note_on_c, 0, 66, 110
2, 28224, Note_on_c, 0, 60, 0
2, 28224, Note_on_c, 0, 62, 0
2, 28224, Note_on_c, 0, 66, 0
2, 28224, Note_on_c, 0, 60, 110
2, 28224, Note_on_c, 0, 67, 110
2, 28272, Note_on_c, 0, 60, 0
2, 28272, Note_on_c, 0, 67, 0
2, 28272, Note_on_c, 0, 66, 110
2, 28320, Note_on_c, 0, 66, 0
2, 28320, Note_on_c, 0, 62, 110
2, 28416, Note_on_c, 0, 62, 0
2, 28416, Note_on_c, 0, 55, 110
2, 28416, Note_on_c, 0, 58, 110
2, 28416, Note_on_c, 0, 62, 110
2, 28608, Note_on_c, 0, 55, 0
2, 28608, Note_on_c, 0, 58, 0
2, 28608, Note_on_c, 0, 62, 0
2, 28608, Note_on_c, 0, 55, 110
2, 28608, Note_on_c, 0, 58, 110
2, 28608, Note_on_c, 0, 62, 110
2, 28800, Note_on_c, 0, 55, 0
2, 28800, Note_on_c, 0, 58, 0
2, 28800, Note_on_c, 0, 62, 0
2, 28800, Note_on_c, 0, 55, 110
2, 28800, Note_on_c, 0, 58, 110
2, 28800, Note_on_c, 0, 62, 110
2, 28992, Note_on_c, 0, 55, 0
2, 28992, Note_on_c, 0, 58, 0
2, 28992, Note_on_c, 0, 62, 0
2, 28992, Note_on_c, 0, 55, 110
2, 28992, Note_on_c, 0, 58, 110
2, 28992, Note_on_c, 0, 62, 110
2, 29184, Note_on_c, 0, 55, 0
2, 29184, Note_on_c, 0, 58, 0
2, 29184, Note_on_c, 0, 62, 0
2, 29184, Note_on_c, 0, 55, 110
2, 29184, Note_on_c, 0, 58, 110
2, 29184, Note_on_c, 0, 63, 110
2, 29376, Note_on_c, 0, 55, 0
2, 29376, Note_on_c, 0, 58, 0
2, 29376, Note_on_c, 0, 63, 0
2, 29376, Note_on_c, 0, 55, 110
2, 29376, Note_on_c, 0, 58, 110
2, 29376, Note_on_c, 0, 63, 110
2, 29568, Note_on_c, 0, 55, 0
2, 29568, Note_on_c, 0, 58, 0
2, 29568, Note_on_c, 0, 63, 0
2, 29568, Note_on_c, 0, 55, 110
2, 29568, Note_on_c, 0, 58, 110
2, 29568, Note_on_c, 0, 63, 110
2, 29760, Note_on_c, 0, 55, 0
2, 29760, Note_on_c, 0, 58, 0
2, 29760, Note_on_c, 0, 63, 0
2, 29760, Note_on_c, 0, 55, 110
2, 29760, Note_on_c, 0, 58, 110
2, 29760, Note_on_c, 0, 63, 110
2, 29952, Note_on_c, 0, 55, 0
2, 29952, Note_on_c, 0, 58, 0
2, 29952, Note_on_c, 0, 63, 0
2, 29952, Note_on_c, 0, 60, 110
2, 29952, Note_on_c, 0, 63, 110
2, 29952, Note_on_c, 0, 67, 110
2, 30144, Note_on_c, 0, 60, 0
2, 30144, Note_on_c, 0, 63, 0
2, 30144, Note_on_c, 0, 67, 0
2, 30144, Note_on_c, 0, 60, 110
2, 30144, Note_on_c, 0, 63, 110
2, 30144, Note_on_c, 0, 67, 110
2, 30336, Note_on_c, 0, 60, 0
2, 30336, Note_on_c, 0, 63, 0
2, 30336, Note_on_c, 0, 67, 0
2, 30336, Note_on_c, 0, 60, 110
2, 30336, Note_on_c, 0, 62, 110
2, 30336, Note_on_c, 0, 66, 110
2, 30528, Note_on_c, 0, 60, 0
2, 30528, Note_on_c, 0, 62, 0
2, 30528, Note_on_c, 0, 66, 0
2, 30528, Note_on_c, 0, 58, 110
2, 30576, Note_on_c, 0, 58, 0
2, 30576, Note_on_c, 0, 60, 110
2, 30624, Note_on_c, 0, 60, 0
2, 30624, Note_on_c, 0, 62, 110
2, 30672, Note_on_c, 0, 62, 0
2, 30672, Note_on_c, 0, 67, 110
2, 30720, Note_on_c, 0, 67, 0
2, 30720, Note_on_c, 0, 55, 110
2, 30720, Note_on_c, 0, 58, 110
2, 30720, Note_on_c, 0, 62, 110
2, 30912, Note_on_c, 0, 55, 0
2, 30912, Note_on_c, 0, 58, 0
2, 30912, Note_on_c, 0, 62, 0
2, 30912, Note_on_c, 0, 55, 110
2, 30912, Note_on_c, 0, 58, 110
2, 30912, Note_on_c, 0, 62, 110
2, 31104, Note_on_c, 0, 55, 0
2, 31104, Note_on_c, 0, 58, 0
2, 31104, Note_on_c, 0, 62, 0
2, 31104, Note_on_c, 0, 58, 110
2, 31104, Note_on_c, 0, 62, 110
2, 31104, Note_on_c, 0, 67, 110
2, 31296, Note_on_c, 0, 58, 0
2, 31296, Note_on_c, 0, 62, 0
2, 31296, Note_on_c, 0, 67, 0
2, 31296, Note_on_c, 0, 58, 110
2, 31296, Note_on_c, 0, 62, 110
2, 31296, Note_on_c, 0, 67, 110
2, 31488, Note_on_c, 0, 58, 0
2, 31488, Note_on_c, 0, 62, 0
2, 31488, Note_on_c, 0, 67, 0
2, 31488, Note_on_c, 0, 58, 110
2, 31488, Note_on_c, 0, 63, 110
2, 31488, Note_on_c, 0, 67, 110
2, 31680, Note_on_c, 0, 58, 0
2, 31680, Note_on_c, 0, 63, 0
2, 31680, Note_on_c, 0, 67, 0
2, 31680, Note_on_c, 0, 58, 110
2, 31680, Note_on_c, 0, 63, 110
2, 31680, Note_on_c, 0, 67, 110
2, 31872, Note_on_c, 0, 58, 0
2, 31872, Note_on_c, 0, 63, 0
2, 31872, Note_on_c, 0, 67, 0
2, 31872, Note_on_c, 0, 58, 110
2, 31872, Note_on_c, 0, 63, 110
2, 31872, Note_on_c, 0, 67, 110
2, 31968, Note_on_c, 0, 58, 0
2, 31968, Note_on_c, 0, 63, 0
2, 31968, Note_on_c, 0, 67, 0
2, 31968, Note_on_c, 0, 65, 110
2, 32064, Note_on_c, 0, 65, 0
2, 32064, Note_on_c, 0, 65, 110
2, 32160, Note_on_c, 0, 65, 0
2, 32160, Note_on_c, 0, 63, 110
2, 32256, Note_on_c, 0, 63, 0
2, 32256, Note_on_c, 0, 55, 110
2, 32256, Note_on_c, 0, 60, 110
2, 32256, Note_on_c, 0, 62, 110
2, 32448, Note_on_c, 0, 55, 0
2, 32448, Note_on_c, 0, 60, 0
2, 32448, Note_on_c, 0, 62, 0
2, 32448, Note_on_c, 0, 67, 110
2, 32448, Note_on_c, 0, 69, 110
2, 32640, Note_on_c, 0, 67, 0
2, 32640, Note_on_c, 0, 69, 0
2, 32640, Note_on_c, 0, 62, 110
2, 32640, Note_on_c, 0, 67, 110
2, 32640, Note_on_c, 0, 69, 110
2, 32832, Note_on_c, 0, 67, 0
2, 32832, Note_on_c, 0, 62, 0
2, 32832, Note_on_c, 0, 69, 0
2, 32832, Note_on_c, 0, 60, 110
2, 32832, Note_on_c, 0, 62, 110
2, 33024, Note_on_c, 0, 60, 0
2, 33024, Note_on_c, 0, 62, 0
2, 33024, Note_on_c, 0, 62, 127
2, 33024, Note_on_c, 0, 67, 127
2, 33024, Note_on_c, 0, 71, 127
2, 33216, Note_on_c, 0, 62, 0
2, 33216, Note_on_c, 0, 67, 0
2, 33216, Note_on_c, 0, 71, 0
2, 33312, Note_on_c, 0, 62, 127
2, 33312, Note_on_c, 0, 67, 127
2, 33312, Note_on_c, 0, 71, 127
2, 33408, Note_on_c, 0, 62, 0
2, 33408, Note_on_c, 0, 67, 0
2, 33408, Note_on_c, 0, 71, 0
2, 33408, Note_on_c, 0, 62, 127
2, 33408, Note_on_c, 0, 66, 127
2, 33408, Note_on_c, 0, 72, 127
2, 33504, Note_on_c, 0, 62, 0
2, 33504, Note_on_c, 0, 66, 0
2, 33504, Note_on_c, 0, 72, 0
2, 33504, Note_on_c, 0, 62, 127
2, 33504, Note_on_c, 0, 66, 127
2, 33504, Note_on_c, 0, 72, 127
2, 33600, Note_on_c, 0, 62, 0
2, 33600, Note_on_c, 0, 66, 0
2, 33600, Note_on_c, 0, 72, 0
2, 33600, Note_on_c, 0, 62, 127
2, 33600, Note_on_c, 0, 67, 127
2, 33600, Note_on_c, 0, 74, 127
2, 33696, Note_on_c, 0, 62, 0
2, 33696, Note_on_c, 0, 67, 0
2, 33696, Note_on_c, 0, 74, 0
2, 33696, Note_on_c, 0, 62, 127
2, 33696, Note_on_c, 0, 67, 127
2, 33696, Note_on_c, 0, 74, 127
2, 33792, Note_on_c, 0, 62, 0
2, 33792, Note_on_c, 0, 67, 0
2, 33792, Note_on_c, 0, 74, 0
2, 33792, Note_on_c, 0, 64, 127
2, 33792, Note_on_c, 0, 67, 127
2, 33792, Note_on_c, 0, 76, 127
2, 33984, Note_on_c, 0, 64, 0
2, 33984, Note_on_c, 0, 67, 0
2, 33984, Note_on_c, 0, 76, 0
2, 33984, Note_on_c, 0, 64, 127
2, 33984, Note_on_c, 0, 67, 127
2, 33984, Note_on_c, 0, 76, 127
2, 34176, Note_on_c, 0, 64, 0
2, 34176, Note_on_c, 0, 67, 0
2, 34176, Note_on_c, 0, 76, 0
2, 34176, Note_on_c, 0, 64, 127
2, 34176, Note_on_c, 0, 68, 127
2, 34176, Note_on_c, 0, 74, 127
2, 34368, Note_on_c, 0, 64, 0
2, 34368, Note_on_c, 0, 68, 0
2, 34368, Note_on_c, 0, 74, 0
2, 34368, Note_on_c, 0, 64, 127
2, 34368, Note_on_c, 0, 68, 127
2, 34368, Note_on_c, 0, 74, 127
2, 34560, Note_on_c, 0, 64, 0
2, 34560, Note_on_c, 0, 68, 0
2, 34560, Note_on_c, 0, 74, 0
2, 34560, Note_on_c, 0, 64, 127
2, 34560, Note_on_c, 0, 69, 127
2, 34560, Note_on_c, 0, 72, 127
2, 34752, Note_on_c, 0, 64, 0
2, 34752, Note_on_c, 0, 69, 0
2, 34752, Note_on_c, 0, 72, 0
2, 34752, Note_on_c, 0, 64, 127
2, 34752, Note_on_c, 0, 69, 127
2, 34752, Note_on_c, 0, 72, 127
2, 34944, Note_on_c, 0, 64, 0
2, 34944, Note_on_c, 0, 69, 0
2, 34944, Note_on_c, 0, 72, 0
2, 34944, Note_on_c, 0, 64, 127
2, 34944, Note_on_c, 0, 69, 127
2, 34944, Note_on_c, 0, 72, 127
2, 35136, Note_on_c, 0, 64, 0
2, 35136, Note_on_c, 0, 69, 0
2, 35136, Note_on_c, 0, 72, 0
2, 35136, Note_on_c, 0, 64, 127
2, 35136, Note_on_c, 0, 69, 127
2, 35136, Note_on_c, 0, 72, 127
2, 35328, Note_on_c, 0, 64, 0
2, 35328, Note_on_c, 0, 69, 0
2, 35328, Note_on_c, 0, 72, 0
2, 35328, Note_on_c, 0, 62, 127
2, 35328, Note_on_c, 0, 69, 127
2, 35328, Note_on_c, 0, 72, 127
2, 35520, Note_on_c, 0, 62, 0
2, 35520, Note_on_c, 0, 69, 0
2, 35520, Note_on_c, 0, 72, 0
2, 35520, Note_on_c, 0, 62, 127
2, 35520, Note_on_c, 0, 69, 127
2, 35520, Note_on_c, 0, 72, 127
2, 35712, Note_on_c, 0, 62, 0
2, 35712, Note_on_c, 0, 69, 0
2, 35712, Note_on_c, 0, 72, 0
2, 35712, Note_on_c, 0, 62, 127
2, 35712, Note_on_c, 0, 66, 127
2, 35712, Note_on_c, 0, 72, 127
2, 35904, Note_on_c, 0, 62, 0
2, 35904, Note_on_c, 0, 66, 0
2, 35904, Note_on_c, 0, 72, 0
2, 35904, Note_on_c, 0, 62, 127
2, 35904, Note_on_c, 0, 69, 127
2, 35904, Note_on_c, 0, 72, 127
2, 36096, Note_on_c, 0, 62, 0
2, 36096, Note_on_c, 0, 69, 0
2, 36096, Note_on_c, 0, 72, 0
2, 36096, Note_on_c, 0, 64, 127
2, 36096, Note_on_c, 0, 67, 127
2, 36096, Note_on_c, 0, 72, 127
2, 36192, Note_on_c, 0, 64, 0
2, 36192, Note_on_c, 0, 67, 0
2, 36192, Note_on_c, 0, 72, 0
2, 36192, Note_on_c, 0, 62, 127
2, 36192, Note_on_c, 0, 67, 127
2, 36192, Note_on_c, 0, 71, 127
2, 36288, Note_on_c, 0, 62, 0
2, 36288, Note_on_c, 0, 67, 0
2, 36288, Note_on_c, 0, 71, 0
2, 36384, Note_on_c, 0, 64, 127
2, 36384, Note_on_c, 0, 67, 127
2, 36384, Note_on_c, 0, 72, 127
2, 36480, Note_on_c, 0, 64, 0
2, 36480, Note_on_c, 0, 67, 0
2, 36480, Note_on_c, 0, 72, 0
2, 36480, Note_on_c, 0, 62, 127
2, 36480, Note_on_c, 0, 67, 127
2, 36480, Note_on_c, 0, 71, 127
2, 36672, Note_on_c, 0, 62, 0
2, 36672, Note_on_c, 0, 67, 0
2, 36672, Note_on_c, 0, 71, 0
2, 36672, Note_on_c, 0, 62, 127
2, 36672, Note_on_c, 0, 67, 127
2, 36672, Note_on_c, 0, 71, 127
2, 36720, Note_on_c, 0, 62, 0
2, 36720, Note_on_c, 0, 67, 0
2, 36720, Note_on_c, 0, 71, 0
2, 36720, Note_on_c, 0, 62, 127
2, 36720, Note_on_c, 0, 69, 127
2, 36768, Note_on_c, 0, 62, 0
2, 36768, Note_on_c, 0, 69, 0
2, 36768, Note_on_c, 0, 62, 127
2, 36768, Note_on_c, 0, 67, 127
2, 36864, Note_on_c, 0, 62, 0
2, 36864, Note_on_c, 0, 67, 0
2, 36864, Note_on_c, 0, 63, 127
2, 36864, Note_on_c, 0, 69, 127
2, 36864, Note_on_c, 0, 71, 127
2, 37056, Note_on_c, 0, 63, 0
2, 37056, Note_on_c, 0, 69, 0
2, 37056, Note_on_c, 0, 71, 0
2, 37056, Note_on_c, 0, 63, 127
2, 37056, Note_on_c, 0, 69, 127
2, 37056, Note_on_c, 0, 71, 127
2, 37248, Note_on_c, 0, 63, 0
2, 37248, Note_on_c, 0, 69, 0
2, 37248, Note_on_c, 0, 71, 0
2, 37248, Note_on_c, 0, 63, 127
2, 37248, Note_on_c, 0, 69, 127
2, 37248, Note_on_c, 0, 71, 127
2, 37440, Note_on_c, 0, 63, 0
2, 37440, Note_on_c, 0, 69, 0
2, 37440, Note_on_c, 0, 71, 0
2, 37440, Note_on_c, 0, 63, 127
2, 37440, Note_on_c, 0, 69, 127
2, 37440, Note_on_c, 0, 71, 127
2, 37632, Note_on_c, 0, 63, 0
2, 37632, Note_on_c, 0, 69, 0
2, 37632, Note_on_c, 0, 71, 0
2, 37632, Note_on_c, 0, 55, 127
2, 37632, Note_on_c, 0, 60, 127
2, 37632, Note_on_c, 0, 64, 127
2, 37824, Note_on_c, 0, 55, 0
2, 37824, Note_on_c, 0, 60, 0
2, 37824, Note_on_c, 0, 64, 0
2, 37824, Note_on_c, 0, 60, 127
2, 37824, Note_on_c, 0, 64, 127
2, 37872, Note_on_c, 0, 60, 0
2, 37872, Note_on_c, 0, 64, 0
2, 37872, Note_on_c, 0, 59, 127
2, 37872, Note_on_c, 0, 63, 127
2, 37920, Note_on_c, 0, 59, 0
2, 37920, Note_on_c, 0, 63, 0
2, 37920, Note_on_c, 0, 60, 127
2, 37920, Note_on_c, 0, 64, 127
2, 38016, Note_on_c, 0, 60, 0
2, 38016, Note_on_c, 0, 64, 0
2, 38016, Note_on_c, 0, 61, 127
2, 38016, Note_on_c, 0, 64, 127
2, 38208, Note_on_c, 0, 61, 0
2, 38208, Note_on_c, 0, 64, 0
2, 38208, Note_on_c, 0, 57, 127
2, 38208, Note_on_c, 0, 59, 127
2, 38400, Note_on_c, 0, 57, 0
2, 38400, Note_on_c, 0, 59, 0
2, 38400, Note_on_c, 0, 57, 127
2, 38400, Note_on_c, 0, 60, 127
2, 38400, Note_on_c, 0, 66, 127
2, 38592, Note_on_c, 0, 57, 0
2, 38592, Note_on_c, 0, 60, 0
2, 38592, Note_on_c, 0, 66, 0
2, 38592, Note_on_c, 0, 57, 127
2, 38592, Note_on_c, 0, 60, 127
2, 38592, Note_on_c, 0, 66, 127
2, 38784, Note_on_c, 0, 57, 0
2, 38784, Note_on_c, 0, 60, 0
2, 38784, Note_on_c, 0, 66, 0
2, 38784, Note_on_c, 0, 57, 127
2, 38784, Note_on_c, 0, 60, 127
2, 38976, Note_on_c, 0, 57, 0
2, 38976, Note_on_c, 0, 60, 0
2, 38976, Note_on_c, 0, 54, 127
2, 38976, Note_on_c, 0, 57, 127
2, 38976, Note_on_c, 0, 66, 127
2, 39168, Note_on_c, 0, 54, 0
2, 39168, Note_on_c, 0, 57, 0
2, 39168, Note_on_c, 0, 66, 0
2, 39168, Note_on_c, 0, 59, 127
2, 39168, Note_on_c, 0, 62, 127
2, 39168, Note_on_c, 0, 67, 127
2, 39360, Note_on_c, 0, 59, 0
2, 39360, Note_on_c, 0, 62, 0
2, 39360, Note_on_c, 0, 67, 0
2, 39360, Note_on_c, 0, 59, 75
2, 39360, Note_on_c, 0, 62, 75
2, 39360, Note_on_c, 0, 67, 75
2, 39552, Note_on_c, 0, 59, 0
2, 39552, Note_on_c, 0, 62, 0
2, 39552, Note_on_c, 0, 67, 0
2, 39552, Note_on_c, 0, 82, 75
2, 39648, Note_on_c, 0, 82, 0
2, 39648, Note_on_c, 0, 81, 75
2, 39744, Note_on_c, 0, 81, 0
2, 39744, Note_on_c, 0, 79, 75
2, 39840, Note_on_c, 0, 79, 0
2, 39840, Note_on_c, 0, 74, 75
2, 39936, Note_on_c, 0, 74, 0
2, 39936, Note_on_c, 0, 75, 75
2, 40032, Note_on_c, 0, 75, 0
2, 40032, Note_on_c, 0, 77, 75
2, 40128, Note_on_c, 0, 77, 0
2, 40128, Note_on_c, 0, 77, 75
2, 40224, Note_on_c, 0, 77, 0
2, 40224, Note_on_c, 0, 75, 75
2, 40320, Note_on_c, 0, 75, 0
2, 40320, Note_on_c, 0, 74, 75
2, 40512, Note_on_c, 0, 74, 0
2, 40512, Note_on_c, 0, 62, 75
2, 40560, Note_on_c, 0, 62, 0
2, 40560, Note_on_c, 0, 60, 75
2, 40608, Note_on_c, 0, 60, 0
2, 40608, Note_on_c, 0, 58, 75
2, 40656, Note_on_c, 0, 58, 0
2, 40656, Note_on_c, 0, 57, 75
2, 40704, Note_on_c, 0, 57, 0
2, 40704, Note_on_c, 0, 55, 75
2, 40704, Note_on_c, 0, 58, 75
2, 40704, Note_on_c, 0, 62, 75
2, 40896, Note_on_c, 0, 55, 0
2, 40896, Note_on_c, 0, 58, 0
2, 40896, Note_on_c, 0, 62, 0
2, 40896, Note_on_c, 0, 55, 75
2, 40896, Note_on_c, 0, 58, 75
2, 40896, Note_on_c, 0, 62, 75
2, 41088, Note_on_c, 0, 55, 0
2, 41088, Note_on_c, 0, 58, 0
2, 41088, Note_on_c, 0, 62, 0
2, 41088, Note_on_c, 0, 55, 75
2, 41088, Note_on_c, 0, 58, 75
2, 41088, Note_on_c, 0, 62, 75
2, 41280, Note_on_c, 0, 55, 0
2, 41280, Note_on_c, 0, 58, 0
2, 41280, Note_on_c, 0, 62, 0
2, 41280, Note_on_c, 0, 67, 75
2, 41328, Note_on_c, 0, 67, 0
2, 41328, Note_on_c, 0, 65, 75
2, 41376, Note_on_c, 0, 65, 0
2, 41376, Note_on_c, 0, 63, 75
2, 41424, Note_on_c, 0, 63, 0
2, 41424, Note_on_c, 0, 62, 75
2, 41472, Note_on_c, 0, 62, 0
2, 41472, Note_on_c, 0, 55, 75
2, 41472, Note_on_c, 0, 60, 75
2, 41472, Note_on_c, 0, 63, 75
2, 41664, Note_on_c, 0, 55, 0
2, 41664, Note_on_c, 0, 60, 0
2, 41664, Note_on_c, 0, 63, 0
2, 41664, Note_on_c, 0, 55, 75
2, 41664, Note_on_c, 0, 60, 75
2, 41664, Note_on_c, 0, 63, 75
2, 41856, Note_on_c, 0, 55, 0
2, 41856, Note_on_c, 0, 60, 0
2, 41856, Note_on_c, 0, 63, 0
2, 41856, Note_on_c, 0, 55, 75
2, 41856, Note_on_c, 0, 60, 75
2, 41856, Note_on_c, 0, 63, 75
2, 42048, Note_on_c, 0, 55, 0
2, 42048, Note_on_c, 0, 60, 0
2, 42048, Note_on_c, 0, 63, 0
2, 42048, Note_on_c, 0, 60, 75
2, 42048, Note_on_c, 0, 63, 75
2, 42048, Note_on_c, 0, 67, 75
2, 42240, Note_on_c, 0, 60, 0
2, 42240, Note_on_c, 0, 63, 0
2, 42240, Note_on_c, 0, 67, 0
2, 42240, Note_on_c, 0, 55, 75
2, 42240, Note_on_c, 0, 60, 75
2, 42240, Note_on_c, 0, 62, 75
2, 42432, Note_on_c, 0, 55, 0
2, 42432, Note_on_c, 0, 60, 0
2, 42432, Note_on_c, 0, 62, 0
2, 42432, Note_on_c, 0, 55, 75
2, 42432, Note_on_c, 0, 60, 75
2, 42432, Note_on_c, 0, 62, 75
2, 42624, Note_on_c, 0, 55, 0
2, 42624, Note_on_c, 0, 60, 0
2, 42624, Note_on_c, 0, 62, 0
2, 42624, Note_on_c, 0, 60, 75
2, 42624, Note_on_c, 0, 62, 75
2, 42624, Note_on_c, 0, 66, 75
2, 42816, Note_on_c, 0, 60, 0
2, 42816, Note_on_c, 0, 62, 0
2, 42816, Note_on_c, 0, 66, 0
2, 42816, Note_on_c, 0, 60, 75
2, 42816, Note_on_c, 0, 62, 75
2, 42816, Note_on_c, 0, 67, 75
2, 42864, Note_on_c, 0, 60, 0
2, 42864, Note_on_c, 0, 62, 0
2, 42864, Note_on_c, 0, 67, 0
2, 42864, Note_on_c, 0, 66, 75
2, 42912, Note_on_c, 0, 66, 0
2, 42912, Note_on_c, 0, 62, 75
2, 43008, Note_on_c, 0, 62, 0
2, 43008, Note_on_c, 0, 55, 75
2, 43008, Note_on_c, 0, 58, 75
2, 43008, Note_on_c, 0, 62, 75
2, 43200, Note_on_c, 0, 55, 0
2, 43200, Note_on_c, 0, 58, 0
2, 43200, Note_on_c, 0, 62, 0
2, 43200, Note_on_c, 0, 55, 75
2, 43200, Note_on_c, 0, 58, 75
2, 43200, Note_on_c, 0, 62, 75
2, 43392, Note_on_c, 0, 55, 0
2, 43392, Note_on_c, 0, 58, 0
2, 43392, Note_on_c, 0, 62, 0
2, 43392, Note_on_c, 0, 55, 75
2, 43392, Note_on_c, 0, 58, 75
2, 43392, Note_on_c, 0, 62, 75
2, 43584, Note_on_c, 0, 55, 0
2, 43584, Note_on_c, 0, 58, 0
2, 43584, Note_on_c, 0, 62, 0
2, 43584, Note_on_c, 0, 55, 75
2, 43584, Note_on_c, 0, 58, 75
2, 43584, Note_on_c, 0, 62, 75
2, 43776, Note_on_c, 0, 55, 0
2, 43776, Note_on_c, 0, 58, 0
2, 43776, Note_on_c, 0, 62, 0
2, 43776, Note_on_c, 0, 55, 75
2, 43776, Note_on_c, 0, 58, 75
2, 43776, Note_on_c, 0, 63, 75
2, 43968, Note_on_c, 0, 55, 0
2, 43968, Note_on_c, 0, 58, 0
2, 43968, Note_on_c, 0, 63, 0
2, 43968, Note_on_c, 0, 55, 75
2, 43968, Note_on_c, 0, 58, 75
2, 43968, Note_on_c, 0, 63, 75
2, 44160, Note_on_c, 0, 55, 0
2, 44160, Note_on_c, 0, 58, 0
2, 44160, Note_on_c, 0, 63, 0
2, 44160, Note_on_c, 0, 55, 75
2, 44160, Note_on_c, 0, 58, 75
2, 44160, Note_on_c, 0, 63, 75
2, 44352, Note_on_c, 0, 55, 0
2, 44352, Note_on_c, 0, 58, 0
2, 44352, Note_on_c, 0, 63, 0
2, 44352, Note_on_c, 0, 55, 75
2, 44352, Note_on_c, 0, 58, 75
2, 44352, Note_on_c, 0, 63, 75
2, 44544, Note_on_c, 0, 55, 0
2, 44544, Note_on_c, 0, 58, 0
2, 44544, Note_on_c, 0, 63, 0
2, 44544, Note_on_c, 0, 60, 75
2, 44544, Note_on_c, 0, 63, 75
2, 44544, Note_on_c, 0, 67, 75
2, 44736, Note_on_c, 0, 60, 0
2, 44736, Note_on_c, 0, 63, 0
2, 44736, Note_on_c, 0, 67, 0
2, 44736, Note_on_c, 0, 60, 75
2, 44736, Note_on_c, 0, 63, 75
2, 44736, Note_on_c, 0, 67, 75
2, 44928, Note_on_c, 0, 60, 0
2, 44928, Note_on_c, 0, 63, 0
2, 44928, Note_on_c, 0, 67, 0
2, 44928, Note_on_c, 0, 60, 75
2, 44928, Note_on_c, 0, 62, 75
2, 44928, Note_on_c, 0, 66, 75
2, 45120, Note_on_c, 0, 60, 0
2, 45120, Note_on_c, 0, 62, 0
2, 45120, Note_on_c, 0, 66, 0
2, 45120, Note_on_c, 0, 58, 75
2, 45168, Note_on_c, 0, 58, 0
2, 45168, Note_on_c, 0, 60, 75
2, 45216, Note_on_c, 0, 60, 0
2, 45216, Note_on_c, 0, 62, 75
2, 45264, Note_on_c, 0, 62, 0
2, 45264, Note_on_c, 0, 67, 75
2, 45312, Note_on_c, 0, 67, 0
2, 45312, Note_on_c, 0, 55, 75
2, 45312, Note_on_c, 0, 58, 75
2, 45312, Note_on_c, 0, 62, 75
2, 45504, Note_on_c, 0, 55, 0
2, 45504, Note_on_c, 0, 58, 0
2, 45504, Note_on_c, 0, 62, 0
2, 45504, Note_on_c, 0, 55, 75
2, 45504, Note_on_c, 0, 58, 75
2, 45504, Note_on_c, 0, 62, 75
2, 45696, Note_on_c, 0, 55, 0
2, 45696, Note_on_c, 0, 58, 0
2, 45696, Note_on_c, 0, 62, 0
2, 45696, Note_on_c, 0, 58, 75
2, 45696, Note_on_c, 0, 62, 75
2, 45696, Note_on_c, 0, 67, 75
2, 45888, Note_on_c, 0, 58, 0
2, 45888, Note_on_c, 0, 62, 0
2, 45888, Note_on_c, 0, 67, 0
2, 45888, Note_on_c, 0, 58, 75
2, 45888, Note_on_c, 0, 62, 75
2, 45888, Note_on_c, 0, 67, 75
2, 46080, Note_on_c, 0, 58, 0
2, 46080, Note_on_c, 0, 62, 0
2, 46080, Note_on_c, 0, 67, 0
2, 46080, Note_on_c, 0, 58, 75
2, 46080, Note_on_c, 0, 63, 75
2, 46080, Note_on_c, 0, 67, 75
2, 46272, Note_on_c, 0, 58, 0
2, 46272, Note_on_c, 0, 63, 0
2, 46272, Note_on_c, 0, 67, 0
2, 46272, Note_on_c, 0, 58, 75
2, 46272, Note_on_c, 0, 63, 75
2, 46272, Note_on_c, 0, 67, 75
2, 46464, Note_on_c, 0, 58, 0
2, 46464, Note_on_c, 0, 63, 0
2, 46464, Note_on_c, 0, 67, 0
2, 46464, Note_on_c, 0, 58, 75
2, 46464, Note_on_c, 0, 63, 75
2, 46464, Note_on_c, 0, 67, 75
2, 46560, Note_on_c, 0, 58, 0
2, 46560, Note_on_c, 0, 63, 0
2, 46560, Note_on_c, 0, 67, 0
2, 46560, Note_on_c, 0, 65, 75
2, 46656, Note_on_c, 0, 65, 0
2, 46656, Note_on_c, 0, 65, 75
2, 46752, Note_on_c, 0, 65, 0
2, 46752, Note_on_c, 0, 63, 75
2, 46848, Note_on_c, 0, 63, 0
2, 46848, Note_on_c, 0, 55, 75
2, 46848, Note_on_c, 0, 60, 75
2, 46848, Note_on_c, 0, 62, 75
2, 47040, Note_on_c, 0, 55, 0
2, 47040, Note_on_c, 0, 60, 0
2, 47040, Note_on_c, 0, 62, 0
2, 47040, Note_on_c, 0, 55, 75
2, 47040, Note_on_c, 0, 60, 75
2, 47040, Note_on_c, 0, 62, 75
2, 47232, Note_on_c, 0, 55, 0
2, 47232, Note_on_c, 0, 60, 0
2, 47232, Note_on_c, 0, 62, 0
2, 47232, Note_on_c, 0, 54, 75
2, 47232, Note_on_c, 0, 60, 75
2, 47232, Note_on_c, 0, 62, 75
2, 47424, Note_on_c, 0, 54, 0
2, 47424, Note_on_c, 0, 60, 0
2, 47424, Note_on_c, 0, 62, 0
2, 47520, Note_on_c, 0, 57, 75
2, 47520, Note_on_c, 0, 60, 75
2, 47520, Note_on_c, 0, 66, 75
2, 47616, Note_on_c, 0, 57, 0
2, 47616, Note_on_c, 0, 60, 0
2, 47616, Note_on_c, 0, 66, 0
2, 47616, Note_on_c, 0, 59, 75
2, 47616, Note_on_c, 0, 62, 75
2, 47616, Note_on_c, 0, 67, 75
2, 47808, Note_on_c, 0, 59, 0
2, 47808, Note_on_c, 0, 62, 0
2, 47808, Note_on_c, 0, 67, 0
2, 47808, Note_on_c, 0, 59, 75
2, 47808, Note_on_c, 0, 62, 75
2, 48000, Note_on_c, 0, 59, 0
2, 48000, Note_on_c, 0, 62, 0
2, 48000, Note_on_c, 0, 59, 75
2, 48000, Note_on_c, 0, 62, 75
2, 48000, Note_on_c, 0, 67, 75
2, 48096, Note_on_c, 0, 59, 0
2, 48096, Note_on_c, 0, 62, 0
2, 48096, Note_on_c, 0, 67, 0
2, 48096, Note_on_c, 0, 59, 75
2, 48192, Note_on_c, 0, 59, 0
2, 48192, Note_on_c, 0, 59, 75
2, 48192, Note_on_c, 0, 62, 75
2, 48288, Note_on_c, 0, 59, 0
2, 48288, Note_on_c, 0, 62, 0
2, 48288, Note_on_c, 0, 65, 75
2, 48384, Note_on_c, 0, 65, 0
2, 48384, Note_on_c, 0, 60, 75
2, 48384, Note_on_c, 0, 64, 75
2, 48576, Note_on_c, 0, 60, 0
2, 48576, Note_on_c, 0, 64, 0
2, 48864, Note_on_c, 0, 60, 75
2, 48960, Note_on_c, 0, 60, 0
2, 48960, Note_on_c, 0, 64, 75
2, 49056, Note_on_c, 0, 64, 0
2, 49056, Note_on_c, 0, 72, 75
2, 49152, Note_on_c, 0, 72, 0
2, 49152, Note_on_c, 0, 62, 75
2, 49152, Note_on_c, 0, 67, 75
2, 49152, Note_on_c, 0, 71, 75
2, 49344, Note_on_c, 0, 62, 0
2, 49344, Note_on_c, 0, 67, 0
2, 49344, Note_on_c, 0, 71, 0
2, 49344, Note_on_c, 0, 62, 75
2, 49536, Note_on_c, 0, 62, 0
2, 49536, Note_on_c, 0, 62, 75
2, 49632, Note_on_c, 0, 62, 0
2, 49632, Note_on_c, 0, 62, 75
2, 49728, Note_on_c, 0, 62, 0
2, 49728, Note_on_c, 0, 67, 75
2, 49824, Note_on_c, 0, 67, 0
2, 49824, Note_on_c, 0, 71, 75
2, 49920, Note_on_c, 0, 71, 0
2, 49920, Note_on_c, 0, 64, 75
2, 49920, Note_on_c, 0, 67, 75
2, 49920, Note_on_c, 0, 72, 75
2, 50112, Note_on_c, 0, 64, 0
2, 50112, Note_on_c, 0, 67, 0
2, 50112, Note_on_c, 0, 72, 0
2, 50208, Note_on_c, 0, 62, 75
2, 50208, Note_on_c, 0, 67, 75
2, 50208, Note_on_c, 0, 71, 75
2, 50304, Note_on_c, 0, 62, 0
2, 50304, Note_on_c, 0, 67, 0
2, 50304, Note_on_c, 0, 71, 0
2, 50304, Note_on_c, 0, 64, 75
2, 50304, Note_on_c, 0, 67, 75
2, 50304, Note_on_c, 0, 69, 75
2, 50496, Note_on_c, 0, 64, 0
2, 50496, Note_on_c, 0, 67, 0
2, 50496, Note_on_c, 0, 69, 0
2, 50688, Note_on_c, 0, 60, 75
2, 50688, Note_on_c, 0, 64, 75
2, 50688, Note_on_c, 0, 71, 75
2, 50784, Note_on_c, 0, 60, 0
2, 50784, Note_on_c, 0, 64, 0
2, 50784, Note_on_c, 0, 71, 0
2, 50784, Note_on_c, 0, 67, 75
2, 50880, Note_on_c, 0, 67, 0
2, 50880, Note_on_c, 0, 64, 75
2, 50976, Note_on_c, 0, 64, 0
2, 50976, Note_on_c, 0, 60, 75
2, 51072, Note_on_c, 0, 60, 0
2, 51072, Note_on_c, 0, 59, 75
2, 51264, Note_on_c, 0, 59, 0
2, 51264, Note_on_c, 0, 60, 75
2, 51264, Note_on_c, 0, 66, 75
2, 51264, Note_on_c, 0, 69, 75
2, 51456, Note_on_c, 0, 60, 0
2, 51456, Note_on_c, 0, 66, 0
2, 51456, Note_on_c, 0, 69, 0
2, 51456, Note_on_c, 0, 59, 75
2, 51456, Note_on_c, 0, 62, 75
2, 51456, Note_on_c, 0, 67, 75
2, 52224, Note_on_c, 0, 59, 0
2, 52224, Note_on_c, 0, 62, 0
2, 52224, Note_on_c, 0, 67, 0
2, 52224, End_track
3, 0, Start_track
3, 0, MIDI_port, 0
3, 0, Title_t, "Staff-2"
3, 0, Program_c, 1, 0
3, 0, Control_c, 1, 7, 127
3, 0, Control_c, 1, 10, 64
3, 768, Note_on_c, 1, 55, 110
3, 768, Note_on_c, 1, 58, 110
3, 768, Note_on_c, 1, 62, 110
3, 1536, Note_on_c, 1, 55, 0
3, 1536, Note_on_c, 1, 58, 0
3, 1536, Note_on_c, 1, 62, 0
3, 1536, Note_on_c, 1, 51, 110
3, 1536, Note_on_c, 1, 55, 110
3, 2304, Note_on_c, 1, 51, 0
3, 2304, Note_on_c, 1, 55, 0
3, 2304, Note_on_c, 1, 50, 110
3, 2304, Note_on_c, 1, 54, 110
3, 2304, Note_on_c, 1, 60, 110
3, 2880, Note_on_c, 1, 50, 0
3, 2880, Note_on_c, 1, 54, 0
3, 2880, Note_on_c, 1, 60, 0
3, 9216, Note_on_c, 1, 50, 110
3, 9792, Note_on_c, 1, 50, 0
3, 10368, Note_on_c, 1, 55, 110
3, 10368, Note_on_c, 1, 62, 110
3, 10560, Note_on_c, 1, 55, 0
3, 10560, Note_on_c, 1, 62, 0
3, 10560, Note_on_c, 1, 55, 110
3, 10560, Note_on_c, 1, 62, 110
3, 10752, Note_on_c, 1, 55, 0
3, 10752, Note_on_c, 1, 62, 0
3, 10752, Note_on_c, 1, 57, 110
3, 10752, Note_on_c, 1, 63, 110
3, 10944, Note_on_c, 1, 57, 0
3, 10944, Note_on_c, 1, 63, 0
3, 10944, Note_on_c, 1, 57, 110
3, 10944, Note_on_c, 1, 63, 110
3, 11136, Note_on_c, 1, 57, 0
3, 11136, Note_on_c, 1, 63, 0
3, 11136, Note_on_c, 1, 62, 110
3, 11712, Note_on_c, 1, 62, 0
3, 17664, Note_on_c, 1, 50, 110
3, 18240, Note_on_c, 1, 50, 0
3, 18240, Note_on_c, 1, 50, 110
3, 18432, Note_on_c, 1, 50, 0
3, 18816, Note_on_c, 1, 55, 110
3, 18816, Note_on_c, 1, 62, 110
3, 19008, Note_on_c, 1, 55, 0
3, 19008, Note_on_c, 1, 62, 0
3, 19008, Note_on_c, 1, 55, 110
3, 19008, Note_on_c, 1, 62, 110
3, 19200, Note_on_c, 1, 55, 0
3, 19200, Note_on_c, 1, 62, 0
3, 19200, Note_on_c, 1, 57, 110
3, 19200, Note_on_c, 1, 63, 110
3, 19392, Note_on_c, 1, 57, 0
3, 19392, Note_on_c, 1, 63, 0
3, 19392, Note_on_c, 1, 57, 110
3, 19392, Note_on_c, 1, 63, 110
3, 19584, Note_on_c, 1, 57, 0
3, 19584, Note_on_c, 1, 63, 0
3, 19584, Note_on_c, 1, 62, 110
3, 19776, Note_on_c, 1, 62, 0
3, 19776, Note_on_c, 1, 50, 110
3, 19968, Note_on_c, 1, 50, 0
3, 24192, Note_on_c, 1, 51, 110
3, 24384, Note_on_c, 1, 51, 0
3, 25344, Note_on_c, 1, 50, 110
3, 25536, Note_on_c, 1, 50, 0
3, 25536, Note_on_c, 1, 50, 110
3, 25728, Note_on_c, 1, 50, 0
3, 25728, Note_on_c, 1, 50, 110
3, 25920, Note_on_c, 1, 50, 0
3, 27648, Note_on_c, 1, 50, 110
3, 27840, Note_on_c, 1, 50, 0
3, 27840, Note_on_c, 1, 50, 110
3, 28032, Note_on_c, 1, 50, 0
3, 28032, Note_on_c, 1, 50, 110
3, 28224, Note_on_c, 1, 50, 0
3, 28224, Note_on_c, 1, 50, 110
3, 28416, Note_on_c, 1, 50, 0
3, 29472, Note_on_c, 1, 51, 110
3, 29568, Note_on_c, 1, 51, 0
3, 30528, Note_on_c, 1, 50, 110
3, 30720, Note_on_c, 1, 50, 0
3, 30912, Note_on_c, 1, 55, 110
3, 31104, Note_on_c, 1, 55, 0
3, 31296, Note_on_c, 1, 53, 110
3, 31488, Note_on_c, 1, 53, 0
3, 31680, Note_on_c, 1, 51, 110
3, 31872, Note_on_c, 1, 51, 0
3, 32640, Note_on_c, 1, 50, 110
3, 32832, Note_on_c, 1, 50, 0
3, 33120, Note_on_c, 1, 50, 127
3, 33216, Note_on_c, 1, 50, 0
3, 33216, Note_on_c, 1, 55, 127
3, 33408, Note_on_c, 1, 55, 0
3, 38400, Note_on_c, 1, 50, 127
3, 38976, Note_on_c, 1, 50, 0
3, 39360, Note_on_c, 1, 50, 75
3, 39552, Note_on_c, 1, 50, 0
3, 39552, Note_on_c, 1, 53, 75
3, 39552, Note_on_c, 1, 55, 75
3, 39552, Note_on_c, 1, 58, 75
3, 39552, Note_on_c, 1, 62, 75
3, 39744, Note_on_c, 1, 53, 0
3, 39744, Note_on_c, 1, 55, 0
3, 39744, Note_on_c, 1, 58, 0
3, 39744, Note_on_c, 1, 62, 0
3, 39744, Note_on_c, 1, 55, 75
3, 39744, Note_on_c, 1, 58, 75
3, 39744, Note_on_c, 1, 62, 75
3, 39936, Note_on_c, 1, 55, 0
3, 39936, Note_on_c, 1, 58, 0
3, 39936, Note_on_c, 1, 62, 0
3, 39936, Note_on_c, 1, 57, 75
3, 39936, Note_on_c, 1, 63, 75
3, 39936, Note_on_c, 1, 67, 75
3, 40128, Note_on_c, 1, 57, 0
3, 40128, Note_on_c, 1, 63, 0
3, 40128, Note_on_c, 1, 67, 0
3, 40128, Note_on_c, 1, 57, 75
3, 40128, Note_on_c, 1, 63, 75
3, 40128, Note_on_c, 1, 67, 75
3, 40320, Note_on_c, 1, 57, 0
3, 40320, Note_on_c, 1, 63, 0
3, 40320, Note_on_c, 1, 67, 0
3, 40320, Note_on_c, 1, 57, 75
3, 40320, Note_on_c, 1, 60, 75
3, 40320, Note_on_c, 1, 66, 75
3, 40416, Note_on_c, 1, 57, 0
3, 40416, Note_on_c, 1, 60, 0
3, 40416, Note_on_c, 1, 66, 0
3, 40416, Note_on_c, 1, 57, 75
3, 40512, Note_on_c, 1, 57, 0
3, 47712, Note_on_c, 1, 50, 75
3, 47808, Note_on_c, 1, 50, 0
3, 47808, Note_on_c, 1, 55, 75
3, 47904, Note_on_c, 1, 55, 0
3, 47904, Note_on_c, 1, 50, 75
3, 48000, Note_on_c, 1, 50, 0
3, 49152, Note_on_c, 1, 50, 75
3, 49344, Note_on_c, 1, 50, 0
3, 49344, Note_on_c, 1, 50, 75
3, 49536, Note_on_c, 1, 50, 0
3, 49536, Note_on_c, 1, 50, 75
3, 49728, Note_on_c, 1, 50, 0
3, 50688, Note_on_c, 1, 50, 75
3, 51264, Note_on_c, 1, 50, 0
3, 51264, End_track
4, 0, Start_track
4, 0, MIDI_port, 0
4, 0, Title_t, "Staff-3"
4, 0, Program_c, 1, 0
4, 0, Control_c, 1, 7, 127
4, 0, Control_c, 1, 10, 64
4, 1536, Note_on_c, 1, 45, 110
4, 2304, Note_on_c, 1, 45, 0
4, 2880, Note_on_c, 1, 38, 110
4, 3072, Note_on_c, 1, 38, 0
4, 3072, Note_on_c, 1, 43, 110
4, 3648, Note_on_c, 1, 43, 0
4, 3648, Note_on_c, 1, 46, 110
4, 3840, Note_on_c, 1, 46, 0
4, 3840, Note_on_c, 1, 45, 110
4, 4416, Note_on_c, 1, 45, 0
4, 4416, Note_on_c, 1, 45, 110
4, 4608, Note_on_c, 1, 45, 0
4, 4608, Note_on_c, 1, 38, 110
4, 5376, Note_on_c, 1, 38, 0
4, 5376, Note_on_c, 1, 43, 110
4, 5760, Note_on_c, 1, 43, 0
4, 5760, Note_on_c, 1, 41, 110
4, 6144, Note_on_c, 1, 41, 0
4, 6144, Note_on_c, 1, 39, 110
4, 6720, Note_on_c, 1, 39, 0
4, 6720, Note_on_c, 1, 43, 110
4, 6768, Note_on_c, 1, 43, 0
4, 6768, Note_on_c, 1, 41, 110
4, 6816, Note_on_c, 1, 41, 0
4, 6816, Note_on_c, 1, 39, 110
4, 6864, Note_on_c, 1, 39, 0
4, 6864, Note_on_c, 1, 38, 110
4, 6912, Note_on_c, 1, 38, 0
4, 6912, Note_on_c, 1, 36, 110
4, 7296, Note_on_c, 1, 36, 0
4, 7296, Note_on_c, 1, 38, 110
4, 7680, Note_on_c, 1, 38, 0
4, 7680, Note_on_c, 1, 43, 110
4, 8064, Note_on_c, 1, 43, 0
4, 8064, Note_on_c, 1, 41, 110
4, 8448, Note_on_c, 1, 41, 0
4, 8448, Note_on_c, 1, 39, 110
4, 9024, Note_on_c, 1, 39, 0
4, 9024, Note_on_c, 1, 46, 110
4, 9120, Note_on_c, 1, 46, 0
4, 9120, Note_on_c, 1, 48, 110
4, 9216, Note_on_c, 1, 48, 0
4, 9792, Note_on_c, 1, 38, 110
4, 9984, Note_on_c, 1, 38, 0
4, 9984, Note_on_c, 1, 43, 110
4, 10944, Note_on_c, 1, 43, 0
4, 11520, Note_on_c, 1, 43, 110
4, 12096, Note_on_c, 1, 43, 0
4, 12096, Note_on_c, 1, 46, 110
4, 12288, Note_on_c, 1, 46, 0
4, 12288, Note_on_c, 1, 45, 110
4, 12864, Note_on_c, 1, 45, 0
4, 12864, Note_on_c, 1, 45, 110
4, 13056, Note_on_c, 1, 45, 0
4, 13056, Note_on_c, 1, 38, 110
4, 13824, Note_on_c, 1, 38, 0
4, 13824, Note_on_c, 1, 43, 110
4, 14208, Note_on_c, 1, 43, 0
4, 14208, Note_on_c, 1, 41, 110
4, 14592, Note_on_c, 1, 41, 0
4, 14592, Note_on_c, 1, 39, 110
4, 15168, Note_on_c, 1, 39, 0
4, 15168, Note_on_c, 1, 43, 110
4, 15216, Note_on_c, 1, 43, 0
4, 15216, Note_on_c, 1, 41, 110
4, 15264, Note_on_c, 1, 41, 0
4, 15264, Note_on_c, 1, 39, 110
4, 15312, Note_on_c, 1, 39, 0
4, 15312, Note_on_c, 1, 38, 110
4, 15360, Note_on_c, 1, 38, 0
4, 15360, Note_on_c, 1, 36, 110
4, 15744, Note_on_c, 1, 36, 0
4, 15744, Note_on_c, 1, 38, 110
4, 16128, Note_on_c, 1, 38, 0
4, 16128, Note_on_c, 1, 43, 110
4, 16512, Note_on_c, 1, 43, 0
4, 16512, Note_on_c, 1, 41, 110
4, 16896, Note_on_c, 1, 41, 0
4, 16896, Note_on_c, 1, 39, 110
4, 17568, Note_on_c, 1, 39, 0
4, 17568, Note_on_c, 1, 46, 110
4, 17616, Note_on_c, 1, 46, 0
4, 17616, Note_on_c, 1, 48, 110
4, 17664, Note_on_c, 1, 48, 0
4, 18432, Note_on_c, 1, 43, 110
4, 18816, Note_on_c, 1, 43, 0
4, 19872, Note_on_c, 1, 38, 110
4, 19968, Note_on_c, 1, 38, 0
4, 19968, Note_on_c, 1, 43, 110
4, 20352, Note_on_c, 1, 43, 0
4, 20352, Note_on_c, 1, 45, 110
4, 20544, Note_on_c, 1, 45, 0
4, 20544, Note_on_c, 1, 47, 110
4, 20736, Note_on_c, 1, 47, 0
4, 20736, Note_on_c, 1, 48, 110
4, 21120, Note_on_c, 1, 48, 0
4, 21120, Note_on_c, 1, 47, 110
4, 21504, Note_on_c, 1, 47, 0
4, 21504, Note_on_c, 1, 45, 110
4, 21792, Note_on_c, 1, 45, 0
4, 21792, Note_on_c, 1, 45, 110
4, 21888, Note_on_c, 1, 45, 0
4, 21888, Note_on_c, 1, 43, 110
4, 22176, Note_on_c, 1, 43, 0
4, 22176, Note_on_c, 1, 43, 110
4, 22272, Note_on_c, 1, 43, 0
4, 22272, Note_on_c, 1, 42, 110
4, 22560, Note_on_c, 1, 42, 0
4, 22560, Note_on_c, 1, 42, 110
4, 22656, Note_on_c, 1, 42, 0
4, 22656, Note_on_c, 1, 42, 110
4, 22848, Note_on_c, 1, 42, 0
4, 22848, Note_on_c, 1, 42, 110
4, 23040, Note_on_c, 1, 42, 0
4, 23040, Note_on_c, 1, 43, 110
4, 23136, Note_on_c, 1, 43, 0
4, 23136, Note_on_c, 1, 43, 110
4, 23328, Note_on_c, 1, 43, 0
4, 23328, Note_on_c, 1, 43, 110
4, 23424, Note_on_c, 1, 43, 0
4, 23424, Note_on_c, 1, 43, 110
4, 23616, Note_on_c, 1, 43, 0
4, 23616, Note_on_c, 1, 43, 110
4, 23664, Note_on_c, 1, 43, 0
4, 23664, Note_on_c, 1, 45, 110
4, 23712, Note_on_c, 1, 45, 0
4, 23712, Note_on_c, 1, 47, 110
4, 23808, Note_on_c, 1, 47, 0
4, 23808, Note_on_c, 1, 47, 110
4, 23904, Note_on_c, 1, 47, 0
4, 23904, Note_on_c, 1, 47, 110
4, 24096, Note_on_c, 1, 47, 0
4, 24096, Note_on_c, 1, 47, 110
4, 24192, Note_on_c, 1, 47, 0
4, 24384, Note_on_c, 1, 47, 110
4, 24480, Note_on_c, 1, 47, 0
4, 24480, Note_on_c, 1, 48, 110
4, 24960, Note_on_c, 1, 48, 0
4, 24960, Note_on_c, 1, 49, 110
4, 25248, Note_on_c, 1, 49, 0
4, 25248, Note_on_c, 1, 49, 110
4, 25344, Note_on_c, 1, 49, 0
4, 25920, Note_on_c, 1, 38, 110
4, 26112, Note_on_c, 1, 38, 0
4, 26112, Note_on_c, 1, 43, 110
4, 26304, Note_on_c, 1, 43, 0
4, 26304, Note_on_c, 1, 43, 110
4, 26496, Note_on_c, 1, 43, 0
4, 26496, Note_on_c, 1, 43, 110
4, 26688, Note_on_c, 1, 43, 0
4, 26688, Note_on_c, 1, 43, 110
4, 26880, Note_on_c, 1, 43, 0
4, 26880, Note_on_c, 1, 45, 110
4, 27072, Note_on_c, 1, 45, 0
4, 27072, Note_on_c, 1, 45, 110
4, 27264, Note_on_c, 1, 45, 0
4, 27264, Note_on_c, 1, 45, 110
4, 27456, Note_on_c, 1, 45, 0
4, 27456, Note_on_c, 1, 45, 110
4, 27648, Note_on_c, 1, 45, 0
4, 28320, Note_on_c, 1, 38, 110
4, 28416, Note_on_c, 1, 38, 0
4, 28416, Note_on_c, 1, 43, 110
4, 28704, Note_on_c, 1, 43, 0
4, 28704, Note_on_c, 1, 41, 110
4, 28800, Note_on_c, 1, 41, 0
4, 28800, Note_on_c, 1, 41, 110
4, 28992, Note_on_c, 1, 41, 0
4, 28992, Note_on_c, 1, 41, 110
4, 29184, Note_on_c, 1, 41, 0
4, 29184, Note_on_c, 1, 46, 110
4, 29376, Note_on_c, 1, 46, 0
4, 29376, Note_on_c, 1, 46, 110
4, 29520, Note_on_c, 1, 46, 0
4, 29520, Note_on_c, 1, 46, 110
4, 29568, Note_on_c, 1, 46, 0
4, 29568, Note_on_c, 1, 38, 110
4, 29664, Note_on_c, 1, 38, 0
4, 29664, Note_on_c, 1, 38, 110
4, 29760, Note_on_c, 1, 38, 0
4, 29760, Note_on_c, 1, 46, 110
4, 29856, Note_on_c, 1, 46, 0
4, 29856, Note_on_c, 1, 38, 110
4, 29952, Note_on_c, 1, 38, 0
4, 29952, Note_on_c, 1, 36, 110
4, 30048, Note_on_c, 1, 36, 0
4, 30048, Note_on_c, 1, 41, 110
4, 30144, Note_on_c, 1, 41, 0
4, 30144, Note_on_c, 1, 48, 110
4, 30336, Note_on_c, 1, 48, 0
4, 30336, Note_on_c, 1, 38, 110
4, 30432, Note_on_c, 1, 38, 0
4, 30432, Note_on_c, 1, 45, 110
4, 30528, Note_on_c, 1, 45, 0
4, 30720, Note_on_c, 1, 43, 110
4, 30912, Note_on_c, 1, 43, 0
4, 31008, Note_on_c, 1, 43, 110
4, 31104, Note_on_c, 1, 43, 0
4, 31104, Note_on_c, 1, 41, 110
4, 31296, Note_on_c, 1, 41, 0
4, 31392, Note_on_c, 1, 41, 110
4, 31488, Note_on_c, 1, 41, 0
4, 31488, Note_on_c, 1, 39, 110
4, 31680, Note_on_c, 1, 39, 0
4, 31776, Note_on_c, 1, 46, 110
4, 31968, Note_on_c, 1, 46, 0
4, 31968, Note_on_c, 1, 39, 110
4, 32064, Note_on_c, 1, 39, 0
4, 32064, Note_on_c, 1, 46, 110
4, 32160, Note_on_c, 1, 46, 0
4, 32160, Note_on_c, 1, 39, 110
4, 32208, Note_on_c, 1, 39, 0
4, 32208, Note_on_c, 1, 46, 110
4, 32256, Note_on_c, 1, 46, 0
4, 32256, Note_on_c, 1, 38, 110
4, 32448, Note_on_c, 1, 38, 0
4, 32448, Note_on_c, 1, 45, 110
4, 32640, Note_on_c, 1, 45, 0
4, 32736, Note_on_c, 1, 45, 110
4, 32832, Note_on_c, 1, 45, 0
4, 32832, Note_on_c, 1, 38, 110
4, 33024, Note_on_c, 1, 38, 0
4, 33024, Note_on_c, 1, 43, 127
4, 33216, Note_on_c, 1, 43, 0
4, 33312, Note_on_c, 1, 43, 127
4, 33408, Note_on_c, 1, 43, 0
4, 33408, Note_on_c, 1, 45, 127
4, 33600, Note_on_c, 1, 45, 0
4, 33600, Note_on_c, 1, 47, 127
4, 33792, Note_on_c, 1, 47, 0
4, 33792, Note_on_c, 1, 48, 127
4, 33984, Note_on_c, 1, 48, 0
4, 33984, Note_on_c, 1, 48, 127
4, 34176, Note_on_c, 1, 48, 0
4, 34176, Note_on_c, 1, 47, 127
4, 34464, Note_on_c, 1, 47, 0
4, 34464, Note_on_c, 1, 47, 127
4, 34560, Note_on_c, 1, 47, 0
4, 34560, Note_on_c, 1, 45, 127
4, 34848, Note_on_c, 1, 45, 0
4, 34848, Note_on_c, 1, 45, 127
4, 34944, Note_on_c, 1, 45, 0
4, 34944, Note_on_c, 1, 43, 127
4, 35232, Note_on_c, 1, 43, 0
4, 35232, Note_on_c, 1, 43, 127
4, 35280, Note_on_c, 1, 43, 0
4, 35280, Note_on_c, 1, 43, 127
4, 35328, Note_on_c, 1, 43, 0
4, 35328, Note_on_c, 1, 42, 127
4, 35616, Note_on_c, 1, 42, 0
4, 35616, Note_on_c, 1, 40, 127
4, 35712, Note_on_c, 1, 40, 0
4, 35712, Note_on_c, 1, 38, 127
4, 35904, Note_on_c, 1, 38, 0
4, 35904, Note_on_c, 1, 42, 127
4, 36096, Note_on_c, 1, 42, 0
4, 36096, Note_on_c, 1, 43, 127
4, 36192, Note_on_c, 1, 43, 0
4, 36192, Note_on_c, 1, 43, 127
4, 36384, Note_on_c, 1, 43, 0
4, 36384, Note_on_c, 1, 43, 127
4, 36480, Note_on_c, 1, 43, 0
4, 36480, Note_on_c, 1, 43, 127
4, 36672, Note_on_c, 1, 43, 0
4, 36672, Note_on_c, 1, 43, 127
4, 36720, Note_on_c, 1, 43, 0
4, 36720, Note_on_c, 1, 45, 127
4, 36768, Note_on_c, 1, 45, 0
4, 36768, Note_on_c, 1, 47, 127
4, 36864, Note_on_c, 1, 47, 0
4, 36864, Note_on_c, 1, 47, 127
4, 36960, Note_on_c, 1, 47, 0
4, 36960, Note_on_c, 1, 47, 127
4, 37152, Note_on_c, 1, 47, 0
4, 37152, Note_on_c, 1, 47, 127
4, 37248, Note_on_c, 1, 47, 0
4, 37248, Note_on_c, 1, 49, 127
4, 37440, Note_on_c, 1, 49, 0
4, 37440, Note_on_c, 1, 47, 127
4, 37536, Note_on_c, 1, 47, 0
4, 37536, Note_on_c, 1, 47, 127
4, 37632, Note_on_c, 1, 47, 0
4, 37632, Note_on_c, 1, 48, 127
4, 37824, Note_on_c, 1, 48, 0
4, 37824, Note_on_c, 1, 48, 127
4, 37872, Note_on_c, 1, 48, 0
4, 37872, Note_on_c, 1, 47, 127
4, 37920, Note_on_c, 1, 47, 0
4, 37920, Note_on_c, 1, 48, 127
4, 37968, Note_on_c, 1, 48, 0
4, 37968, Note_on_c, 1, 47, 127
4, 38016, Note_on_c, 1, 47, 0
4, 38016, Note_on_c, 1, 45, 127
4, 38208, Note_on_c, 1, 45, 0
4, 38208, Note_on_c, 1, 49, 127
4, 38400, Note_on_c, 1, 49, 0
4, 38976, Note_on_c, 1, 38, 127
4, 39168, Note_on_c, 1, 38, 0
4, 39168, Note_on_c, 1, 43, 127
4, 39360, Note_on_c, 1, 43, 0
4, 40512, Note_on_c, 1, 38, 75
4, 40704, Note_on_c, 1, 38, 0
4, 40704, Note_on_c, 1, 43, 75
4, 41280, Note_on_c, 1, 43, 0
4, 41280, Note_on_c, 1, 46, 75
4, 41472, Note_on_c, 1, 46, 0
4, 41472, Note_on_c, 1, 45, 75
4, 42048, Note_on_c, 1, 45, 0
4, 42048, Note_on_c, 1, 45, 75
4, 42240, Note_on_c, 1, 45, 0
4, 42240, Note_on_c, 1, 38, 75
4, 43008, Note_on_c, 1, 38, 0
4, 43008, Note_on_c, 1, 43, 75
4, 43392, Note_on_c, 1, 43, 0
4, 43392, Note_on_c, 1, 41, 75
4, 43776, Note_on_c, 1, 41, 0
4, 43776, Note_on_c, 1, 39, 75
4, 44352, Note_on_c, 1, 39, 0
4, 44352, Note_on_c, 1, 43, 75
4, 44400, Note_on_c, 1, 43, 0
4, 44400, Note_on_c, 1, 41, 75
4, 44448, Note_on_c, 1, 41, 0
4, 44448, Note_on_c, 1, 39, 75
4, 44496, Note_on_c, 1, 39, 0
4, 44496, Note_on_c, 1, 38, 75
4, 44544, Note_on_c, 1, 38, 0
4, 44544, Note_on_c, 1, 36, 75
4, 44928, Note_on_c, 1, 36, 0
4, 44928, Note_on_c, 1, 38, 75
4, 45312, Note_on_c, 1, 38, 0
4, 45312, Note_on_c, 1, 43, 75
4, 45696, Note_on_c, 1, 43, 0
4, 45696, Note_on_c, 1, 41, 75
4, 46080, Note_on_c, 1, 41, 0
4, 46080, Note_on_c, 1, 39, 75
4, 46656, Note_on_c, 1, 39, 0
4, 46656, Note_on_c, 1, 46, 75
4, 46752, Note_on_c, 1, 46, 0
4, 46752, Note_on_c, 1, 36, 75
4, 46848, Note_on_c, 1, 36, 0
4, 46848, Note_on_c, 1, 38, 75
4, 47232, Note_on_c, 1, 38, 0
4, 47424, Note_on_c, 1, 38, 75
4, 47616, Note_on_c, 1, 38, 0
4, 47616, Note_on_c, 1, 43, 75
4, 47808, Note_on_c, 1, 43, 0
4, 48000, Note_on_c, 1, 43, 75
4, 48192, Note_on_c, 1, 43, 0
4, 48192, Note_on_c, 1, 47, 75
4, 48384, Note_on_c, 1, 47, 0
4, 48384, Note_on_c, 1, 48, 75
4, 48576, Note_on_c, 1, 48, 0
4, 48576, Note_on_c, 1, 47, 75
4, 48768, Note_on_c, 1, 47, 0
4, 48768, Note_on_c, 1, 45, 75
4, 48960, Note_on_c, 1, 45, 0
4, 48960, Note_on_c, 1, 48, 75
4, 49152, Note_on_c, 1, 48, 0
4, 49632, Note_on_c, 1, 48, 75
4, 49728, Note_on_c, 1, 48, 0
4, 49728, Note_on_c, 1, 47, 75
4, 49920, Note_on_c, 1, 47, 0
4, 49920, Note_on_c, 1, 48, 75
4, 50208, Note_on_c, 1, 48, 0
4, 50208, Note_on_c, 1, 48, 75
4, 50304, Note_on_c, 1, 48, 0
4, 50304, Note_on_c, 1, 49, 75
4, 50496, Note_on_c, 1, 49, 0
4, 50496, Note_on_c, 1, 49, 75
4, 50688, Note_on_c, 1, 49, 0
4, 51264, Note_on_c, 1, 38, 75
4, 51456, Note_on_c, 1, 38, 0
4, 51456, Note_on_c, 1, 43, 75
4, 52032, Note_on_c, 1, 43, 0
4, 52032, End_track
5, 0, Start_track
5, 0, MIDI_port, 0
5, 0, Title_t, "Staff-4"
5, 0, Program_c, 2, 71
5, 0, Control_c, 2, 7, 127
5, 0, Control_c, 2, 10, 64
5, 3264, Note_on_c, 2, 67, 110
5, 3312, Note_on_c, 2, 67, 0
5, 3312, Note_on_c, 2, 74, 110
5, 3408, Note_on_c, 2, 74, 0
5, 3408, Note_on_c, 2, 74, 110
5, 3840, Note_on_c, 2, 74, 0
5, 3984, Note_on_c, 2, 63, 110
5, 4032, Note_on_c, 2, 63, 0
5, 4032, Note_on_c, 2, 72, 110
5, 4128, Note_on_c, 2, 72, 0
5, 4128, Note_on_c, 2, 74, 110
5, 4224, Note_on_c, 2, 74, 0
5, 4224, Note_on_c, 2, 75, 110
5, 4320, Note_on_c, 2, 75, 0
5, 4320, Note_on_c, 2, 77, 110
5, 4368, Note_on_c, 2, 77, 0
5, 4368, Note_on_c, 2, 75, 110
5, 4608, Note_on_c, 2, 75, 0
5, 4752, Note_on_c, 2, 66, 110
5, 4800, Note_on_c, 2, 66, 0
5, 4800, Note_on_c, 2, 75, 110
5, 4896, Note_on_c, 2, 75, 0
5, 4896, Note_on_c, 2, 72, 110
5, 4992, Note_on_c, 2, 72, 0
5, 4992, Note_on_c, 2, 74, 110
5, 5088, Note_on_c, 2, 74, 0
5, 5088, Note_on_c, 2, 72, 110
5, 5376, Note_on_c, 2, 72, 0
5, 5424, Note_on_c, 2, 62, 110
5, 5472, Note_on_c, 2, 62, 0
5, 5472, Note_on_c, 2, 70, 110
5, 5568, Note_on_c, 2, 70, 0
5, 5568, Note_on_c, 2, 69, 110
5, 5616, Note_on_c, 2, 69, 0
5, 5616, Note_on_c, 2, 70, 110
5, 5712, Note_on_c, 2, 70, 0
5, 5712, Note_on_c, 2, 69, 110
5, 5760, Note_on_c, 2, 69, 0
5, 5760, Note_on_c, 2, 70, 110
5, 5856, Note_on_c, 2, 70, 0
5, 5856, Note_on_c, 2, 69, 110
5, 5952, Note_on_c, 2, 69, 0
5, 5952, Note_on_c, 2, 70, 110
5, 6048, Note_on_c, 2, 70, 0
5, 6048, Note_on_c, 2, 74, 110
5, 6144, Note_on_c, 2, 74, 0
5, 6144, Note_on_c, 2, 67, 110
5, 6912, Note_on_c, 2, 67, 0
5, 6960, Note_on_c, 2, 67, 110
5, 7008, Note_on_c, 2, 67, 0
5, 7008, Note_on_c, 2, 74, 110
5, 7056, Note_on_c, 2, 74, 0
5, 7056, Note_on_c, 2, 75, 110
5, 7104, Note_on_c, 2, 75, 0
5, 7104, Note_on_c, 2, 77, 110
5, 7200, Note_on_c, 2, 77, 0
5, 7200, Note_on_c, 2, 75, 110
5, 7248, Note_on_c, 2, 75, 0
5, 7248, Note_on_c, 2, 74, 110
5, 7344, Note_on_c, 2, 74, 0
5, 7344, Note_on_c, 2, 72, 110
5, 7440, Note_on_c, 2, 72, 0
5, 7440, Note_on_c, 2, 70, 110
5, 7536, Note_on_c, 2, 70, 0
5, 7536, Note_on_c, 2, 69, 110
5, 7680, Note_on_c, 2, 69, 0
5, 7776, Note_on_c, 2, 70, 110
5, 7824, Note_on_c, 2, 70, 0
5, 7824, Note_on_c, 2, 69, 110
5, 7872, Note_on_c, 2, 69, 0
5, 7872, Note_on_c, 2, 70, 110
5, 7968, Note_on_c, 2, 70, 0
5, 7968, Note_on_c, 2, 69, 110
5, 8016, Note_on_c, 2, 69, 0
5, 8016, Note_on_c, 2, 70, 110
5, 8160, Note_on_c, 2, 70, 0
5, 8160, Note_on_c, 2, 69, 110
5, 8208, Note_on_c, 2, 69, 0
5, 8208, Note_on_c, 2, 70, 110
5, 8304, Note_on_c, 2, 70, 0
5, 8304, Note_on_c, 2, 69, 110
5, 8448, Note_on_c, 2, 69, 0
5, 8496, Note_on_c, 2, 70, 110
5, 8544, Note_on_c, 2, 70, 0
5, 8544, Note_on_c, 2, 72, 110
5, 8592, Note_on_c, 2, 72, 0
5, 8592, Note_on_c, 2, 70, 110
5, 8640, Note_on_c, 2, 70, 0
5, 8640, Note_on_c, 2, 67, 110
5, 8832, Note_on_c, 2, 67, 0
5, 9216, Note_on_c, 2, 74, 110
5, 9312, Note_on_c, 2, 74, 0
5, 9312, Note_on_c, 2, 75, 110
5, 9408, Note_on_c, 2, 75, 0
5, 9408, Note_on_c, 2, 74, 110
5, 9504, Note_on_c, 2, 74, 0
5, 9504, Note_on_c, 2, 72, 110
5, 9600, Note_on_c, 2, 72, 0
5, 9600, Note_on_c, 2, 69, 110
5, 9792, Note_on_c, 2, 69, 0
5, 9792, Note_on_c, 2, 67, 110
5, 9888, Note_on_c, 2, 67, 0
5, 9888, Note_on_c, 2, 67, 110
5, 10368, Note_on_c, 2, 67, 0
5, 11712, Note_on_c, 2, 67, 110
5, 11760, Note_on_c, 2, 67, 0
5, 11760, Note_on_c, 2, 74, 110
5, 11856, Note_on_c, 2, 74, 0
5, 11856, Note_on_c, 2, 74, 110
5, 12288, Note_on_c, 2, 74, 0
5, 12432, Note_on_c, 2, 63, 110
5, 12480, Note_on_c, 2, 63, 0
5, 12480, Note_on_c, 2, 72, 110
5, 12576, Note_on_c, 2, 72, 0
5, 12576, Note_on_c, 2, 74, 110
5, 12672, Note_on_c, 2, 74, 0
5, 12672, Note_on_c, 2, 75, 110
5, 12768, Note_on_c, 2, 75, 0
5, 12768, Note_on_c, 2, 77, 110
5, 12816, Note_on_c, 2, 77, 0
5, 12816, Note_on_c, 2, 75, 110
5, 13056, Note_on_c, 2, 75, 0
5, 13200, Note_on_c, 2, 66, 110
5, 13200, Note_on_c, 2, 75, 110
5, 13248, Note_on_c, 2, 66, 0
5, 13248, Note_on_c, 2, 75, 0
5, 13296, Note_on_c, 2, 74, 110
5, 13344, Note_on_c, 2, 74, 0
5, 13344, Note_on_c, 2, 72, 110
5, 13440, Note_on_c, 2, 72, 0
5, 13440, Note_on_c, 2, 74, 110
5, 13536, Note_on_c, 2, 74, 0
5, 13536, Note_on_c, 2, 72, 110
5, 13824, Note_on_c, 2, 72, 0
5, 13920, Note_on_c, 2, 70, 110
5, 13968, Note_on_c, 2, 70, 0
5, 13968, Note_on_c, 2, 69, 110
5, 14016, Note_on_c, 2, 69, 0
5, 14016, Note_on_c, 2, 70, 110
5, 14112, Note_on_c, 2, 70, 0
5, 14112, Note_on_c, 2, 69, 110
5, 14208, Note_on_c, 2, 69, 0
5, 14208, Note_on_c, 2, 70, 110
5, 14256, Note_on_c, 2, 70, 0
5, 14256, Note_on_c, 2, 69, 110
5, 14352, Note_on_c, 2, 69, 0
5, 14352, Note_on_c, 2, 70, 110
5, 14496, Note_on_c, 2, 70, 0
5, 14496, Note_on_c, 2, 74, 110
5, 14592, Note_on_c, 2, 74, 0
5, 14592, Note_on_c, 2, 67, 110
5, 14688, Note_on_c, 2, 67, 0
5, 14688, Note_on_c, 2, 67, 110
5, 14976, Note_on_c, 2, 67, 0
5, 15456, Note_on_c, 2, 74, 110
5, 15504, Note_on_c, 2, 74, 0
5, 15504, Note_on_c, 2, 75, 110
5, 15552, Note_on_c, 2, 75, 0
5, 15552, Note_on_c, 2, 77, 110
5, 15648, Note_on_c, 2, 77, 0
5, 15648, Note_on_c, 2, 75, 110
5, 15744, Note_on_c, 2, 75, 0
5, 15744, Note_on_c, 2, 74, 110
5, 15840, Note_on_c, 2, 74, 0
5, 15840, Note_on_c, 2, 72, 110
5, 15936, Note_on_c, 2, 72, 0
5, 15936, Note_on_c, 2, 70, 110
5, 16032, Note_on_c, 2, 70, 0
5, 16032, Note_on_c, 2, 69, 110
5, 16128, Note_on_c, 2, 69, 0
5, 16224, Note_on_c, 2, 70, 110
5, 16272, Note_on_c, 2, 70, 0
5, 16272, Note_on_c, 2, 69, 110
5, 16320, Note_on_c, 2, 69, 0
5, 16320, Note_on_c, 2, 70, 110
5, 16416, Note_on_c, 2, 70, 0
5, 16416, Note_on_c, 2, 69, 110
5, 16464, Note_on_c, 2, 69, 0
5, 16464, Note_on_c, 2, 70, 110
5, 16608, Note_on_c, 2, 70, 0
5, 16608, Note_on_c, 2, 69, 110
5, 16656, Note_on_c, 2, 69, 0
5, 16656, Note_on_c, 2, 70, 110
5, 16752, Note_on_c, 2, 70, 0
5, 16752, Note_on_c, 2, 69, 110
5, 16896, Note_on_c, 2, 69, 0
5, 16896, Note_on_c, 2, 70, 110
5, 16944, Note_on_c, 2, 70, 0
5, 16944, Note_on_c, 2, 70, 110
5, 17040, Note_on_c, 2, 70, 0
5, 17040, Note_on_c, 2, 67, 110
5, 17472, Note_on_c, 2, 67, 0
5, 17664, Note_on_c, 2, 74, 110
5, 17760, Note_on_c, 2, 74, 0
5, 17760, Note_on_c, 2, 75, 110
5, 17856, Note_on_c, 2, 75, 0
5, 17856, Note_on_c, 2, 74, 110
5, 17952, Note_on_c, 2, 74, 0
5, 17952, Note_on_c, 2, 72, 110
5, 18048, Note_on_c, 2, 72, 0
5, 18048, Note_on_c, 2, 67, 110
5, 18240, Note_on_c, 2, 67, 0
5, 18336, Note_on_c, 2, 67, 110
5, 18432, Note_on_c, 2, 67, 0
5, 18432, Note_on_c, 2, 67, 110
5, 18816, Note_on_c, 2, 67, 0
5, 20256, Note_on_c, 2, 71, 110
5, 20304, Note_on_c, 2, 71, 0
5, 20304, Note_on_c, 2, 72, 110
5, 20448, Note_on_c, 2, 72, 0
5, 20448, Note_on_c, 2, 72, 110
5, 20496, Note_on_c, 2, 72, 0
5, 20496, Note_on_c, 2, 74, 110
5, 20592, Note_on_c, 2, 74, 0
5, 20592, Note_on_c, 2, 79, 110
5, 20688, Note_on_c, 2, 79, 0
5, 20688, Note_on_c, 2, 76, 110
5, 21024, Note_on_c, 2, 76, 0
5, 21024, Note_on_c, 2, 74, 110
5, 21072, Note_on_c, 2, 74, 0
5, 21072, Note_on_c, 2, 76, 110
5, 21216, Note_on_c, 2, 76, 0
5, 21216, Note_on_c, 2, 77, 110
5, 21312, Note_on_c, 2, 77, 0
5, 21312, Note_on_c, 2, 76, 110
5, 21360, Note_on_c, 2, 76, 0
5, 21360, Note_on_c, 2, 76, 110
5, 21456, Note_on_c, 2, 76, 0
5, 21456, Note_on_c, 2, 74, 110
5, 21504, Note_on_c, 2, 74, 0
5, 21504, Note_on_c, 2, 72, 110
5, 21744, Note_on_c, 2, 72, 0
5, 21744, Note_on_c, 2, 72, 110
5, 21792, Note_on_c, 2, 72, 0
5, 21792, Note_on_c, 2, 71, 110
5, 21840, Note_on_c, 2, 71, 0
5, 21840, Note_on_c, 2, 74, 110
5, 22176, Note_on_c, 2, 74, 0
5, 22176, Note_on_c, 2, 72, 110
5, 22224, Note_on_c, 2, 72, 0
5, 22224, Note_on_c, 2, 71, 110
5, 22320, Note_on_c, 2, 71, 0
5, 22320, Note_on_c, 2, 69, 110
5, 22560, Note_on_c, 2, 69, 0
5, 22560, Note_on_c, 2, 69, 110
5, 22656, Note_on_c, 2, 69, 0
5, 22656, Note_on_c, 2, 78, 110
5, 22704, Note_on_c, 2, 78, 0
5, 22704, Note_on_c, 2, 76, 110
5, 22800, Note_on_c, 2, 76, 0
5, 22800, Note_on_c, 2, 74, 110
5, 22848, Note_on_c, 2, 74, 0
5, 22848, Note_on_c, 2, 69, 110
5, 23040, Note_on_c, 2, 69, 0
5, 23040, Note_on_c, 2, 72, 110
5, 23136, Note_on_c, 2, 72, 0
5, 23136, Note_on_c, 2, 71, 110
5, 23616, Note_on_c, 2, 71, 0
5, 23808, Note_on_c, 2, 71, 110
5, 24192, Note_on_c, 2, 71, 0
5, 24192, Note_on_c, 2, 81, 110
5, 24480, Note_on_c, 2, 81, 0
5, 24480, Note_on_c, 2, 79, 110
5, 24528, Note_on_c, 2, 79, 0
5, 24528, Note_on_c, 2, 79, 110
5, 24576, Note_on_c, 2, 79, 0
5, 24576, Note_on_c, 2, 76, 110
5, 25344, Note_on_c, 2, 76, 0
5, 25344, Note_on_c, 2, 78, 110
5, 25440, Note_on_c, 2, 78, 0
5, 25440, Note_on_c, 2, 76, 110
5, 25536, Note_on_c, 2, 76, 0
5, 25536, Note_on_c, 2, 76, 110
5, 25632, Note_on_c, 2, 76, 0
5, 25632, Note_on_c, 2, 74, 110
5, 25728, Note_on_c, 2, 74, 0
5, 25728, Note_on_c, 2, 74, 110
5, 25920, Note_on_c, 2, 74, 0
5, 25920, Note_on_c, 2, 66, 110
5, 26112, Note_on_c, 2, 66, 0
5, 26112, Note_on_c, 2, 67, 110
5, 26496, Note_on_c, 2, 67, 0
5, 33312, Note_on_c, 2, 71, 127
5, 33360, Note_on_c, 2, 71, 0
5, 33360, Note_on_c, 2, 71, 127
5, 33408, Note_on_c, 2, 71, 0
5, 33504, Note_on_c, 2, 74, 127
5, 33552, Note_on_c, 2, 74, 0
5, 33552, Note_on_c, 2, 74, 127
5, 33648, Note_on_c, 2, 74, 0
5, 33648, Note_on_c, 2, 79, 127
5, 33744, Note_on_c, 2, 79, 0
5, 33744, Note_on_c, 2, 76, 127
5, 34080, Note_on_c, 2, 76, 0
5, 34080, Note_on_c, 2, 74, 127
5, 34128, Note_on_c, 2, 74, 0
5, 34128, Note_on_c, 2, 76, 127
5, 34272, Note_on_c, 2, 76, 0
5, 34272, Note_on_c, 2, 77, 127
5, 34320, Note_on_c, 2, 77, 0
5, 34320, Note_on_c, 2, 76, 127
5, 34416, Note_on_c, 2, 76, 0
5, 34416, Note_on_c, 2, 74, 127
5, 34512, Note_on_c, 2, 74, 0
5, 34512, Note_on_c, 2, 74, 127
5, 34560, Note_on_c, 2, 74, 0
5, 34560, Note_on_c, 2, 72, 127
5, 34608, Note_on_c, 2, 72, 0
5, 34608, Note_on_c, 2, 72, 127
5, 34800, Note_on_c, 2, 72, 0
5, 34800, Note_on_c, 2, 72, 127
5, 34848, Note_on_c, 2, 72, 0
5, 34848, Note_on_c, 2, 71, 127
5, 34896, Note_on_c, 2, 71, 0
5, 34896, Note_on_c, 2, 72, 127
5, 34944, Note_on_c, 2, 72, 0
5, 34944, Note_on_c, 2, 71, 127
5, 34992, Note_on_c, 2, 71, 0
5, 34992, Note_on_c, 2, 74, 127
5, 35040, Note_on_c, 2, 74, 0
5, 35040, Note_on_c, 2, 72, 127
5, 35232, Note_on_c, 2, 72, 0
5, 35232, Note_on_c, 2, 71, 127
5, 35328, Note_on_c, 2, 71, 0
5, 35328, Note_on_c, 2, 69, 127
5, 35340, Note_on_c, 2, 69, 0
5, 35340, Note_on_c, 2, 69, 127
5, 35616, Note_on_c, 2, 69, 0
5, 35616, Note_on_c, 2, 68, 127
5, 35628, Note_on_c, 2, 68, 0
5, 35628, Note_on_c, 2, 69, 127
5, 35664, Note_on_c, 2, 69, 0
5, 35664, Note_on_c, 2, 78, 127
5, 35760, Note_on_c, 2, 78, 0
5, 35760, Note_on_c, 2, 76, 127
5, 35808, Note_on_c, 2, 76, 0
5, 35808, Note_on_c, 2, 74, 127
5, 35904, Note_on_c, 2, 74, 0
5, 35904, Note_on_c, 2, 72, 127
5, 35952, Note_on_c, 2, 72, 0
5, 35952, Note_on_c, 2, 69, 127
5, 36000, Note_on_c, 2, 69, 0
5, 36000, Note_on_c, 2, 72, 127
5, 36048, Note_on_c, 2, 72, 0
5, 36048, Note_on_c, 2, 72, 127
5, 36144, Note_on_c, 2, 72, 0
5, 36144, Note_on_c, 2, 71, 127
5, 36480, Note_on_c, 2, 71, 0
5, 36864, Note_on_c, 2, 71, 127
5, 37152, Note_on_c, 2, 71, 0
5, 37152, Note_on_c, 2, 71, 127
5, 37200, Note_on_c, 2, 71, 0
5, 37200, Note_on_c, 2, 81, 127
5, 37536, Note_on_c, 2, 81, 0
5, 37536, Note_on_c, 2, 79, 127
5, 37548, Note_on_c, 2, 79, 0
5, 37548, Note_on_c, 2, 79, 127
5, 37584, Note_on_c, 2, 79, 0
5, 37584, Note_on_c, 2, 76, 127
5, 38400, Note_on_c, 2, 76, 0
5, 38400, Note_on_c, 2, 78, 127
5, 38496, Note_on_c, 2, 78, 0
5, 38496, Note_on_c, 2, 76, 127
5, 38592, Note_on_c, 2, 76, 0
5, 38592, Note_on_c, 2, 76, 127
5, 38688, Note_on_c, 2, 76, 0
5, 38688, Note_on_c, 2, 74, 127
5, 38784, Note_on_c, 2, 74, 0
5, 38784, Note_on_c, 2, 74, 127
5, 38880, Note_on_c, 2, 74, 0
5, 38880, Note_on_c, 2, 66, 127
5, 38976, Note_on_c, 2, 66, 0
5, 38976, Note_on_c, 2, 66, 127
5, 39024, Note_on_c, 2, 66, 0
5, 39024, Note_on_c, 2, 66, 127
5, 39072, Note_on_c, 2, 66, 0
5, 39072, Note_on_c, 2, 67, 127
5, 39360, Note_on_c, 2, 67, 0
5, 40896, Note_on_c, 2, 67, 75
5, 40992, Note_on_c, 2, 67, 0
5, 40992, Note_on_c, 2, 74, 75
5, 41040, Note_on_c, 2, 74, 0
5, 41040, Note_on_c, 2, 74, 75
5, 41472, Note_on_c, 2, 74, 0
5, 41616, Note_on_c, 2, 67, 75
5, 41664, Note_on_c, 2, 67, 0
5, 41664, Note_on_c, 2, 72, 75
5, 41760, Note_on_c, 2, 72, 0
5, 41760, Note_on_c, 2, 74, 75
5, 41856, Note_on_c, 2, 74, 0
5, 41856, Note_on_c, 2, 75, 75
5, 41952, Note_on_c, 2, 75, 0
5, 41952, Note_on_c, 2, 77, 75
5, 42000, Note_on_c, 2, 77, 0
5, 42000, Note_on_c, 2, 75, 75
5, 42336, Note_on_c, 2, 75, 0
5, 42336, Note_on_c, 2, 75, 75
5, 42348, Note_on_c, 2, 75, 0
5, 42348, Note_on_c, 2, 75, 75
5, 42480, Note_on_c, 2, 75, 0
5, 42480, Note_on_c, 2, 74, 75
5, 42528, Note_on_c, 2, 74, 0
5, 42528, Note_on_c, 2, 72, 75
5, 42624, Note_on_c, 2, 72, 0
5, 42624, Note_on_c, 2, 74, 75
5, 42720, Note_on_c, 2, 74, 0
5, 42720, Note_on_c, 2, 72, 75
5, 43008, Note_on_c, 2, 72, 0
5, 43056, Note_on_c, 2, 69, 75
5, 43104, Note_on_c, 2, 69, 0
5, 43104, Note_on_c, 2, 70, 75
5, 43248, Note_on_c, 2, 70, 0
5, 43248, Note_on_c, 2, 69, 75
5, 43296, Note_on_c, 2, 69, 0
5, 43296, Note_on_c, 2, 70, 75
5, 43344, Note_on_c, 2, 70, 0
5, 43344, Note_on_c, 2, 69, 75
5, 43392, Note_on_c, 2, 69, 0
5, 43392, Note_on_c, 2, 70, 75
5, 43488, Note_on_c, 2, 70, 0
5, 43488, Note_on_c, 2, 69, 75
5, 43584, Note_on_c, 2, 69, 0
5, 43584, Note_on_c, 2, 70, 75
5, 43680, Note_on_c, 2, 70, 0
5, 43680, Note_on_c, 2, 72, 75
5, 43776, Note_on_c, 2, 72, 0
5, 43776, Note_on_c, 2, 67, 75
5, 44352, Note_on_c, 2, 67, 0
5, 44640, Note_on_c, 2, 74, 75
5, 44688, Note_on_c, 2, 74, 0
5, 44688, Note_on_c, 2, 75, 75
5, 44736, Note_on_c, 2, 75, 0
5, 44736, Note_on_c, 2, 77, 75
5, 44832, Note_on_c, 2, 77, 0
5, 44832, Note_on_c, 2, 75, 75
5, 44928, Note_on_c, 2, 75, 0
5, 44928, Note_on_c, 2, 74, 75
5, 45024, Note_on_c, 2, 74, 0
5, 45024, Note_on_c, 2, 72, 75
5, 45120, Note_on_c, 2, 72, 0
5, 45120, Note_on_c, 2, 70, 75
5, 45216, Note_on_c, 2, 70, 0
5, 45216, Note_on_c, 2, 69, 75
5, 45312, Note_on_c, 2, 69, 0
5, 45408, Note_on_c, 2, 70, 75
5, 45456, Note_on_c, 2, 70, 0
5, 45456, Note_on_c, 2, 69, 75
5, 45504, Note_on_c, 2, 69, 0
5, 45504, Note_on_c, 2, 70, 75
5, 45600, Note_on_c, 2, 70, 0
5, 45600, Note_on_c, 2, 69, 75
5, 45648, Note_on_c, 2, 69, 0
5, 45648, Note_on_c, 2, 70, 75
5, 45744, Note_on_c, 2, 70, 0
5, 45744, Note_on_c, 2, 72, 75
5, 45792, Note_on_c, 2, 72, 0
5, 45792, Note_on_c, 2, 74, 75
5, 45888, Note_on_c, 2, 74, 0
5, 45888, Note_on_c, 2, 76, 75
5, 45984, Note_on_c, 2, 76, 0
5, 45984, Note_on_c, 2, 79, 75
5, 46032, Note_on_c, 2, 79, 0
5, 46032, Note_on_c, 2, 82, 75
5, 46080, Note_on_c, 2, 82, 0
5, 46080, Note_on_c, 2, 81, 75
5, 46176, Note_on_c, 2, 81, 0
5, 46176, Note_on_c, 2, 79, 75
5, 46464, Note_on_c, 2, 79, 0
5, 46848, Note_on_c, 2, 84, 75
5, 46944, Note_on_c, 2, 84, 0
5, 46944, Note_on_c, 2, 82, 75
5, 47040, Note_on_c, 2, 82, 0
5, 47040, Note_on_c, 2, 82, 75
5, 47136, Note_on_c, 2, 82, 0
5, 47136, Note_on_c, 2, 81, 75
5, 47232, Note_on_c, 2, 81, 0
5, 47232, Note_on_c, 2, 81, 75
5, 47424, Note_on_c, 2, 81, 0
5, 47520, Note_on_c, 2, 78, 75
5, 47616, Note_on_c, 2, 78, 0
5, 47616, Note_on_c, 2, 79, 75
5, 48000, Note_on_c, 2, 79, 0
5, 48096, Note_on_c, 2, 71, 75
5, 48192, Note_on_c, 2, 71, 0
5, 48192, Note_on_c, 2, 74, 75
5, 48288, Note_on_c, 2, 74, 0
5, 48288, Note_on_c, 2, 78, 75
5, 48384, Note_on_c, 2, 78, 0
5, 48384, Note_on_c, 2, 76, 75
5, 48864, Note_on_c, 2, 76, 0
5, 48864, Note_on_c, 2, 72, 75
5, 48960, Note_on_c, 2, 72, 0
5, 48960, Note_on_c, 2, 76, 75
5, 49056, Note_on_c, 2, 76, 0
5, 49056, Note_on_c, 2, 84, 75
5, 49152, Note_on_c, 2, 84, 0
5, 49152, Note_on_c, 2, 83, 75
5, 49344, Note_on_c, 2, 83, 0
5, 49632, Note_on_c, 2, 74, 75
5, 49728, Note_on_c, 2, 74, 0
5, 49728, Note_on_c, 2, 83, 75
5, 49824, Note_on_c, 2, 83, 0
5, 49824, Note_on_c, 2, 86, 75
5, 49920, Note_on_c, 2, 86, 0
5, 49920, Note_on_c, 2, 84, 75
5, 50208, Note_on_c, 2, 84, 0
5, 50208, Note_on_c, 2, 83, 75
5, 50304, Note_on_c, 2, 83, 0
5, 50304, Note_on_c, 2, 81, 75
5, 50688, Note_on_c, 2, 81, 0
5, 50688, Note_on_c, 2, 83, 75
5, 50784, Note_on_c, 2, 83, 0
5, 50784, Note_on_c, 2, 79, 75
5, 50880, Note_on_c, 2, 79, 0
5, 50880, Note_on_c, 2, 76, 75
5, 50976, Note_on_c, 2, 76, 0
5, 50976, Note_on_c, 2, 72, 75
5, 51072, Note_on_c, 2, 72, 0
5, 51072, Note_on_c, 2, 71, 75
5, 51264, Note_on_c, 2, 71, 0
5, 51264, Note_on_c, 2, 69, 75
5, 51456, Note_on_c, 2, 69, 0
5, 51456, Note_on_c, 2, 67, 75
5, 51840, Note_on_c, 2, 67, 0
5, 51840, End_track
6, 0, Start_track
6, 0, MIDI_port, 0
6, 0, Title_t, "Staff-5"
6, 0, Program_c, 3, 80
6, 0, Control_c, 3, 7, 127
6, 0, Control_c, 3, 10, 64
6, 26112, Note_on_c, 3, 67, 110
6, 26368, Note_on_c, 3, 67, 0
6, 26400, Note_on_c, 3, 70, 110
6, 26494, Note_on_c, 3, 70, 0
6, 26496, Note_on_c, 3, 69, 110
6, 26752, Note_on_c, 3, 69, 0
6, 26784, Note_on_c, 3, 67, 110
6, 26878, Note_on_c, 3, 67, 0
6, 26880, Note_on_c, 3, 60, 110
6, 26880, Note_on_c, 3, 63, 110
6, 26926, Note_on_c, 3, 60, 0
6, 26926, Note_on_c, 3, 63, 0
6, 26928, Note_on_c, 3, 62, 110
6, 26928, Note_on_c, 3, 65, 110
6, 26974, Note_on_c, 3, 62, 0
6, 26974, Note_on_c, 3, 65, 0
6, 26976, Note_on_c, 3, 63, 110
6, 26976, Note_on_c, 3, 67, 110
6, 27070, Note_on_c, 3, 63, 0
6, 27070, Note_on_c, 3, 67, 0
6, 27072, Note_on_c, 3, 72, 110
6, 27072, Note_on_c, 3, 75, 110
6, 27118, Note_on_c, 3, 72, 0
6, 27118, Note_on_c, 3, 75, 0
6, 27120, Note_on_c, 3, 74, 110
6, 27120, Note_on_c, 3, 77, 110
6, 27166, Note_on_c, 3, 74, 0
6, 27166, Note_on_c, 3, 77, 0
6, 27168, Note_on_c, 3, 75, 110
6, 27168, Note_on_c, 3, 79, 110
6, 27262, Note_on_c, 3, 75, 0
6, 27262, Note_on_c, 3, 79, 0
6, 27264, Note_on_c, 3, 67, 110
6, 27264, Note_on_c, 3, 72, 110
6, 27358, Note_on_c, 3, 67, 0
6, 27358, Note_on_c, 3, 72, 0
6, 27360, Note_on_c, 3, 74, 110
6, 27454, Note_on_c, 3, 74, 0
6, 27456, Note_on_c, 3, 74, 110
6, 27550, Note_on_c, 3, 74, 0
6, 27552, Note_on_c, 3, 75, 110
6, 27646, Note_on_c, 3, 75, 0
6, 27648, Note_on_c, 3, 74, 110
6, 27808, Note_on_c, 3, 74, 0
6, 27840, Note_on_c, 3, 65, 110
6, 27886, Note_on_c, 3, 65, 0
6, 27888, Note_on_c, 3, 67, 110
6, 27934, Note_on_c, 3, 67, 0
6, 27936, Note_on_c, 3, 72, 110
6, 27936, Note_on_c, 3, 74, 110
6, 28030, Note_on_c, 3, 72, 0
6, 28030, Note_on_c, 3, 74, 0
6, 28032, Note_on_c, 3, 69, 110
6, 28078, Note_on_c, 3, 69, 0
6, 28080, Note_on_c, 3, 70, 110
6, 28126, Note_on_c, 3, 70, 0
6, 28128, Note_on_c, 3, 72, 110
6, 28222, Note_on_c, 3, 72, 0
6, 28224, Note_on_c, 3, 65, 110
6, 28270, Note_on_c, 3, 65, 0
6, 28272, Note_on_c, 3, 67, 110
6, 28318, Note_on_c, 3, 67, 0
6, 28320, Note_on_c, 3, 69, 110
6, 28414, Note_on_c, 3, 69, 0
6, 28416, Note_on_c, 3, 70, 110
6, 28576, Note_on_c, 3, 70, 0
6, 28608, Note_on_c, 3, 70, 110
6, 28654, Note_on_c, 3, 70, 0
6, 28656, Note_on_c, 3, 69, 110
6, 28702, Note_on_c, 3, 69, 0
6, 28704, Note_on_c, 3, 70, 110
6, 28798, Note_on_c, 3, 70, 0
6, 28896, Note_on_c, 3, 70, 110
6, 28942, Note_on_c, 3, 70, 0
6, 28944, Note_on_c, 3, 69, 110
6, 28990, Note_on_c, 3, 69, 0
6, 28992, Note_on_c, 3, 70, 110
6, 29086, Note_on_c, 3, 70, 0
6, 29088, Note_on_c, 3, 69, 110
6, 29182, Note_on_c, 3, 69, 0
6, 29184, Note_on_c, 3, 67, 110
6, 29278, Note_on_c, 3, 67, 0
6, 29280, Note_on_c, 3, 65, 110
6, 29326, Note_on_c, 3, 65, 0
6, 29328, Note_on_c, 3, 67, 110
6, 29374, Note_on_c, 3, 67, 0
6, 29376, Note_on_c, 3, 63, 110
6, 29712, Note_on_c, 3, 63, 0
6, 29760, Note_on_c, 3, 67, 110
6, 29854, Note_on_c, 3, 67, 0
6, 29856, Note_on_c, 3, 65, 110
6, 29902, Note_on_c, 3, 65, 0
6, 29904, Note_on_c, 3, 67, 110
6, 29950, Note_on_c, 3, 67, 0
6, 29952, Note_on_c, 3, 63, 110
6, 30208, Note_on_c, 3, 63, 0
6, 30240, Note_on_c, 3, 62, 110
6, 30286, Note_on_c, 3, 62, 0
6, 30288, Note_on_c, 3, 63, 110
6, 30334, Note_on_c, 3, 63, 0
6, 30336, Note_on_c, 3, 62, 110
6, 30496, Note_on_c, 3, 62, 0
6, 30528, Note_on_c, 3, 66, 110
6, 30688, Note_on_c, 3, 66, 0
6, 30720, Note_on_c, 3, 67, 110
6, 30976, Note_on_c, 3, 67, 0
6, 31008, Note_on_c, 3, 67, 110
6, 31054, Note_on_c, 3, 67, 0
6, 31056, Note_on_c, 3, 69, 110
6, 31102, Note_on_c, 3, 69, 0
6, 31104, Note_on_c, 3, 70, 110
6, 31150, Note_on_c, 3, 70, 0
6, 31152, Note_on_c, 3, 69, 110
6, 31198, Note_on_c, 3, 69, 0
6, 31200, Note_on_c, 3, 70, 110
6, 31246, Note_on_c, 3, 70, 0
6, 31248, Note_on_c, 3, 69, 110
6, 31294, Note_on_c, 3, 69, 0
6, 31296, Note_on_c, 3, 67, 110
6, 31390, Note_on_c, 3, 67, 0
6, 31392, Note_on_c, 3, 67, 110
6, 31438, Note_on_c, 3, 67, 0
6, 31440, Note_on_c, 3, 69, 110
6, 31486, Note_on_c, 3, 69, 0
6, 31488, Note_on_c, 3, 67, 110
6, 31744, Note_on_c, 3, 67, 0
6, 31776, Note_on_c, 3, 67, 110
6, 31822, Note_on_c, 3, 67, 0
6, 31824, Note_on_c, 3, 69, 110
6, 31870, Note_on_c, 3, 69, 0
6, 31872, Note_on_c, 3, 70, 110
6, 31918, Note_on_c, 3, 70, 0
6, 31920, Note_on_c, 3, 69, 110
6, 31966, Note_on_c, 3, 69, 0
6, 31968, Note_on_c, 3, 70, 110
6, 32014, Note_on_c, 3, 70, 0
6, 32016, Note_on_c, 3, 69, 110
6, 32062, Note_on_c, 3, 69, 0
6, 32064, Note_on_c, 3, 67, 110
6, 32158, Note_on_c, 3, 67, 0
6, 32160, Note_on_c, 3, 67, 110
6, 32206, Note_on_c, 3, 67, 0
6, 32208, Note_on_c, 3, 69, 110
6, 32254, Note_on_c, 3, 69, 0
6, 32256, Note_on_c, 3, 67, 110
6, 32784, Note_on_c, 3, 67, 0
6, 37824, Note_on_c, 3, 60, 127
6, 37824, Note_on_c, 3, 64, 127
6, 37870, Note_on_c, 3, 60, 0
6, 37870, Note_on_c, 3, 64, 0
6, 37872, Note_on_c, 3, 60, 127
6, 37872, Note_on_c, 3, 63, 127
6, 37918, Note_on_c, 3, 60, 0
6, 37918, Note_on_c, 3, 63, 0
6, 37920, Note_on_c, 3, 60, 127
6, 37920, Note_on_c, 3, 64, 127
6, 38014, Note_on_c, 3, 60, 0
6, 38014, Note_on_c, 3, 64, 0
6, 38016, Note_on_c, 3, 61, 127
6, 38016, Note_on_c, 3, 64, 127
6, 38352, Note_on_c, 3, 61, 0
6, 38352, Note_on_c, 3, 64, 0
6, 38352, End_track
7, 0, Start_track
7, 0, MIDI_port, 0
7, 0, Title_t, "Staff-6"
7, 0, Program_c, 4, 6
7, 0, Control_c, 4, 7, 127
7, 0, Control_c, 4, 10, 64
7, 26112, Note_on_c, 4, 67, 110
7, 26368, Note_on_c, 4, 67, 0
7, 26400, Note_on_c, 4, 70, 110
7, 26494, Note_on_c, 4, 70, 0
7, 26496, Note_on_c, 4, 69, 110
7, 26752, Note_on_c, 4, 69, 0
7, 26784, Note_on_c, 4, 67, 110
7, 26878, Note_on_c, 4, 67, 0
7, 26880, Note_on_c, 4, 60, 110
7, 26880, Note_on_c, 4, 63, 110
7, 26926, Note_on_c, 4, 60, 0
7, 26926, Note_on_c, 4, 63, 0
7, 26928, Note_on_c, 4, 62, 110
7, 26928, Note_on_c, 4, 65, 110
7, 26974, Note_on_c, 4, 62, 0
7, 26974, Note_on_c, 4, 65, 0
7, 26976, Note_on_c, 4, 63, 110
7, 26976, Note_on_c, 4, 67, 110
7, 27070, Note_on_c, 4, 63, 0
7, 27070, Note_on_c, 4, 67, 0
7, 27072, Note_on_c, 4, 72, 110
7, 27072, Note_on_c, 4, 75, 110
7, 27118, Note_on_c, 4, 72, 0
7, 27118, Note_on_c, 4, 75, 0
7, 27120, Note_on_c, 4, 74, 110
7, 27120, Note_on_c, 4, 77, 110
7, 27166, Note_on_c, 4, 74, 0
7, 27166, Note_on_c, 4, 77, 0
7, 27168, Note_on_c, 4, 75, 110
7, 27168, Note_on_c, 4, 79, 110
7, 27262, Note_on_c, 4, 75, 0
7, 27262, Note_on_c, 4, 79, 0
7, 27264, Note_on_c, 4, 67, 110
7, 27264, Note_on_c, 4, 72, 110
7, 27358, Note_on_c, 4, 67, 0
7, 27358, Note_on_c, 4, 72, 0
7, 27360, Note_on_c, 4, 74, 110
7, 27454, Note_on_c, 4, 74, 0
7, 27456, Note_on_c, 4, 74, 110
7, 27550, Note_on_c, 4, 74, 0
7, 27552, Note_on_c, 4, 75, 110
7, 27646, Note_on_c, 4, 75, 0
7, 27648, Note_on_c, 4, 74, 110
7, 27808, Note_on_c, 4, 74, 0
7, 27840, Note_on_c, 4, 65, 110
7, 27886, Note_on_c, 4, 65, 0
7, 27888, Note_on_c, 4, 67, 110
7, 27934, Note_on_c, 4, 67, 0
7, 27936, Note_on_c, 4, 72, 110
7, 27936, Note_on_c, 4, 74, 110
7, 28030, Note_on_c, 4, 72, 0
7, 28030, Note_on_c, 4, 74, 0
7, 28032, Note_on_c, 4, 69, 110
7, 28078, Note_on_c, 4, 69, 0
7, 28080, Note_on_c, 4, 70, 110
7, 28126, Note_on_c, 4, 70, 0
7, 28128, Note_on_c, 4, 72, 110
7, 28222, Note_on_c, 4, 72, 0
7, 28224, Note_on_c, 4, 65, 110
7, 28270, Note_on_c, 4, 65, 0
7, 28272, Note_on_c, 4, 67, 110
7, 28318, Note_on_c, 4, 67, 0
7, 28320, Note_on_c, 4, 69, 110
7, 28414, Note_on_c, 4, 69, 0
7, 28416, Note_on_c, 4, 70, 110
7, 28576, Note_on_c, 4, 70, 0
7, 28608, Note_on_c, 4, 70, 110
7, 28654, Note_on_c, 4, 70, 0
7, 28656, Note_on_c, 4, 69, 110
7, 28702, Note_on_c, 4, 69, 0
7, 28704, Note_on_c, 4, 70, 110
7, 28798, Note_on_c, 4, 70, 0
7, 28896, Note_on_c, 4, 70, 110
7, 28942, Note_on_c, 4, 70, 0
7, 28944, Note_on_c, 4, 69, 110
7, 28990, Note_on_c, 4, 69, 0
7, 28992, Note_on_c, 4, 70, 110
7, 29086, Note_on_c, 4, 70, 0
7, 29088, Note_on_c, 4, 69, 110
7, 29182, Note_on_c, 4, 69, 0
7, 29184, Note_on_c, 4, 67, 110
7, 29278, Note_on_c, 4, 67, 0
7, 29280, Note_on_c, 4, 65, 110
7, 29326, Note_on_c, 4, 65, 0
7, 29328, Note_on_c, 4, 67, 110
7, 29374, Note_on_c, 4, 67, 0
7, 29376, Note_on_c, 4, 63, 110
7, 29712, Note_on_c, 4, 63, 0
7, 29760, Note_on_c, 4, 67, 110
7, 29854, Note_on_c, 4, 67, 0
7, 29856, Note_on_c, 4, 65, 110
7, 29902, Note_on_c, 4, 65, 0
7, 29904, Note_on_c, 4, 67, 110
7, 29950, Note_on_c, 4, 67, 0
7, 29952, Note_on_c, 4, 63, 110
7, 30208, Note_on_c, 4, 63, 0
7, 30240, Note_on_c, 4, 62, 110
7, 30286, Note_on_c, 4, 62, 0
7, 30288, Note_on_c, 4, 63, 110
7, 30334, Note_on_c, 4, 63, 0
7, 30336, Note_on_c, 4, 62, 110
7, 30496, Note_on_c, 4, 62, 0
7, 30528, Note_on_c, 4, 66, 110
7, 30688, Note_on_c, 4, 66, 0
7, 30720, Note_on_c, 4, 67, 110
7, 30976, Note_on_c, 4, 67, 0
7, 31008, Note_on_c, 4, 67, 110
7, 31054, Note_on_c, 4, 67, 0
7, 31056, Note_on_c, 4, 69, 110
7, 31102, Note_on_c, 4, 69, 0
7, 31104, Note_on_c, 4, 70, 110
7, 31150, Note_on_c, 4, 70, 0
7, 31152, Note_on_c, 4, 69, 110
7, 31198, Note_on_c, 4, 69, 0
7, 31200, Note_on_c, 4, 70, 110
7, 31246, Note_on_c, 4, 70, 0
7, 31248, Note_on_c, 4, 69, 110
7, 31294, Note_on_c, 4, 69, 0
7, 31296, Note_on_c, 4, 67, 110
7, 31390, Note_on_c, 4, 67, 0
7, 31392, Note_on_c, 4, 67, 110
7, 31438, Note_on_c, 4, 67, 0
7, 31440, Note_on_c, 4, 69, 110
7, 31486, Note_on_c, 4, 69, 0
7, 31488, Note_on_c, 4, 67, 110
7, 31744, Note_on_c, 4, 67, 0
7, 31776, Note_on_c, 4, 67, 110
7, 31822, Note_on_c, 4, 67, 0
7, 31824, Note_on_c, 4, 69, 110
7, 31870, Note_on_c, 4, 69, 0
7, 31872, Note_on_c, 4, 70, 110
7, 31918, Note_on_c, 4, 70, 0
7, 31920, Note_on_c, 4, 69, 110
7, 31966, Note_on_c, 4, 69, 0
7, 31968, Note_on_c, 4, 70, 110
7, 32014, Note_on_c, 4, 70, 0
7, 32016, Note_on_c, 4, 69, 110
7, 32062, Note_on_c, 4, 69, 0
7, 32064, Note_on_c, 4, 67, 110
7, 32158, Note_on_c, 4, 67, 0
7, 32160, Note_on_c, 4, 67, 110
7, 32206, Note_on_c, 4, 67, 0
7, 32208, Note_on_c, 4, 69, 110
7, 32254, Note_on_c, 4, 69, 0
7, 32256, Note_on_c, 4, 67, 110
7, 32784, Note_on_c, 4, 67, 0
7, 37824, Note_on_c, 4, 60, 127
7, 37824, Note_on_c, 4, 64, 127
7, 37870, Note_on_c, 4, 60, 0
7, 37870, Note_on_c, 4, 64, 0
7, 37872, Note_on_c, 4, 60, 127
7, 37872, Note_on_c, 4, 63, 127
7, 37918, Note_on_c, 4, 60, 0
7, 37918, Note_on_c, 4, 63, 0
7, 37920, Note_on_c, 4, 60, 127
7, 37920, Note_on_c, 4, 64, 127
7, 38014, Note_on_c, 4, 60, 0
7, 38014, Note_on_c, 4, 64, 0
7, 38016, Note_on_c, 4, 61, 127
7, 38016, Note_on_c, 4, 64, 127
7, 38352, Note_on_c, 4, 61, 0
7, 38352, Note_on_c, 4, 64, 0
7, 38352, End_track
8, 0, Start_track
8, 0, MIDI_port, 0
8, 0, Title_t, "Staff-7"
8, 0, Program_c, 5, 48
8, 0, Control_c, 5, 7, 102
8, 0, Control_c, 5, 10, 64
8, 33024, Note_on_c, 5, 62, 127
8, 33024, Note_on_c, 5, 67, 127
8, 33024, Note_on_c, 5, 71, 127
8, 33408, Note_on_c, 5, 62, 0
8, 33408, Note_on_c, 5, 67, 0
8, 33408, Note_on_c, 5, 71, 0
8, 33408, Note_on_c, 5, 60, 127
8, 33408, Note_on_c, 5, 62, 127
8, 33408, Note_on_c, 5, 66, 127
8, 33408, Note_on_c, 5, 69, 127
8, 33600, Note_on_c, 5, 60, 0
8, 33600, Note_on_c, 5, 62, 0
8, 33600, Note_on_c, 5, 66, 0
8, 33600, Note_on_c, 5, 69, 0
8, 33600, Note_on_c, 5, 62, 127
8, 33600, Note_on_c, 5, 67, 127
8, 33600, Note_on_c, 5, 71, 127
8, 33792, Note_on_c, 5, 62, 0
8, 33792, Note_on_c, 5, 67, 0
8, 33792, Note_on_c, 5, 71, 0
8, 33792, Note_on_c, 5, 64, 127
8, 33792, Note_on_c, 5, 67, 127
8, 33792, Note_on_c, 5, 76, 127
8, 34176, Note_on_c, 5, 64, 0
8, 34176, Note_on_c, 5, 67, 0
8, 34176, Note_on_c, 5, 76, 0
8, 34176, Note_on_c, 5, 64, 127
8, 34176, Note_on_c, 5, 68, 127
8, 34176, Note_on_c, 5, 76, 127
8, 34560, Note_on_c, 5, 64, 0
8, 34560, Note_on_c, 5, 68, 0
8, 34560, Note_on_c, 5, 76, 0
8, 34560, Note_on_c, 5, 69, 127
8, 34560, Note_on_c, 5, 72, 127
8, 34944, Note_on_c, 5, 69, 0
8, 34944, Note_on_c, 5, 72, 0
8, 34944, Note_on_c, 5, 67, 127
8, 35328, Note_on_c, 5, 67, 0
8, 35328, Note_on_c, 5, 60, 127
8, 35328, Note_on_c, 5, 62, 127
8, 35328, Note_on_c, 5, 66, 127
8, 35328, Note_on_c, 5, 69, 127
8, 36048, Note_on_c, 5, 60, 0
8, 36048, Note_on_c, 5, 62, 0
8, 36048, Note_on_c, 5, 66, 0
8, 36048, Note_on_c, 5, 69, 0
8, 36048, Note_on_c, 5, 60, 127
8, 36048, Note_on_c, 5, 64, 127
8, 36048, Note_on_c, 5, 67, 127
8, 36096, Note_on_c, 5, 60, 0
8, 36096, Note_on_c, 5, 64, 0
8, 36096, Note_on_c, 5, 67, 0
8, 36096, Note_on_c, 5, 59, 127
8, 36096, Note_on_c, 5, 62, 127
8, 36096, Note_on_c, 5, 67, 127
8, 36288, Note_on_c, 5, 59, 0
8, 36288, Note_on_c, 5, 62, 0
8, 36288, Note_on_c, 5, 67, 0
8, 36384, Note_on_c, 5, 60, 127
8, 36384, Note_on_c, 5, 64, 127
8, 36384, Note_on_c, 5, 67, 127
8, 36480, Note_on_c, 5, 60, 0
8, 36480, Note_on_c, 5, 64, 0
8, 36480, Note_on_c, 5, 67, 0
8, 36480, Note_on_c, 5, 59, 127
8, 36480, Note_on_c, 5, 62, 127
8, 36480, Note_on_c, 5, 67, 127
8, 36672, Note_on_c, 5, 59, 0
8, 36672, Note_on_c, 5, 62, 0
8, 36672, Note_on_c, 5, 67, 0
8, 36864, Note_on_c, 5, 59, 127
8, 36864, Note_on_c, 5, 63, 127
8, 36864, Note_on_c, 5, 66, 127
8, 36864, Note_on_c, 5, 71, 127
8, 37584, Note_on_c, 5, 59, 0
8, 37584, Note_on_c, 5, 63, 0
8, 37584, Note_on_c, 5, 66, 0
8, 37584, Note_on_c, 5, 71, 0
8, 37584, Note_on_c, 5, 60, 127
8, 37584, Note_on_c, 5, 64, 127
8, 37584, Note_on_c, 5, 67, 127
8, 38016, Note_on_c, 5, 60, 0
8, 38016, Note_on_c, 5, 64, 0
8, 38016, Note_on_c, 5, 67, 0
8, 38016, Note_on_c, 5, 57, 127
8, 38016, Note_on_c, 5, 61, 127
8, 38016, Note_on_c, 5, 64, 127
8, 38400, Note_on_c, 5, 57, 0
8, 38400, Note_on_c, 5, 61, 0
8, 38400, Note_on_c, 5, 64, 0
8, 38400, Note_on_c, 5, 60, 127
8, 38400, Note_on_c, 5, 62, 127
8, 38400, Note_on_c, 5, 66, 127
8, 38400, Note_on_c, 5, 69, 127
8, 39168, Note_on_c, 5, 60, 0
8, 39168, Note_on_c, 5, 62, 0
8, 39168, Note_on_c, 5, 66, 0
8, 39168, Note_on_c, 5, 69, 0
8, 39168, Note_on_c, 5, 67, 127
8, 39552, Note_on_c, 5, 67, 0
8, 39552, End_track
9, 0, Start_track
9, 0, MIDI_port, 0
9, 0, Title_t, "hey~"
9, 0, Control_c, 9, 7, 127
9, 0, Control_c, 9, 10, 64
9, 0, Note_on_c, 9, 42, 110
9, 160, Note_on_c, 9, 42, 0
9, 192, Note_on_c, 9, 42, 110
9, 352, Note_on_c, 9, 42, 0
9, 384, Note_on_c, 9, 42, 110
9, 544, Note_on_c, 9, 42, 0
9, 576, Note_on_c, 9, 42, 110
9, 736, Note_on_c, 9, 42, 0
9, 33504, Note_on_c, 9, 50, 127
9, 33598, Note_on_c, 9, 50, 0
9, 33648, Note_on_c, 9, 48, 127
9, 33694, Note_on_c, 9, 48, 0
9, 33696, Note_on_c, 9, 45, 127
9, 33742, Note_on_c, 9, 45, 0
9, 33744, Note_on_c, 9, 36, 127
9, 33790, Note_on_c, 9, 36, 0
9, 33792, Note_on_c, 9, 36, 127
9, 33792, Note_on_c, 9, 49, 127
9, 33792, Note_on_c, 9, 51, 127
9, 33886, Note_on_c, 9, 36, 0
9, 33886, Note_on_c, 9, 49, 0
9, 33886, Note_on_c, 9, 51, 0
9, 33888, Note_on_c, 9, 42, 127
9, 33982, Note_on_c, 9, 42, 0
9, 33984, Note_on_c, 9, 38, 127
9, 33984, Note_on_c, 9, 42, 127
9, 33984, Note_on_c, 9, 44, 127
9, 34078, Note_on_c, 9, 38, 0
9, 34078, Note_on_c, 9, 42, 0
9, 34078, Note_on_c, 9, 44, 0
9, 34080, Note_on_c, 9, 42, 127
9, 34126, Note_on_c, 9, 42, 0
9, 34128, Note_on_c, 9, 36, 127
9, 34174, Note_on_c, 9, 36, 0
9, 34176, Note_on_c, 9, 36, 127
9, 34176, Note_on_c, 9, 42, 127
9, 34270, Note_on_c, 9, 36, 0
9, 34270, Note_on_c, 9, 42, 0
9, 34272, Note_on_c, 9, 42, 127
9, 34366, Note_on_c, 9, 42, 0
9, 34368, Note_on_c, 9, 38, 127
9, 34368, Note_on_c, 9, 42, 127
9, 34462, Note_on_c, 9, 38, 0
9, 34462, Note_on_c, 9, 42, 0
9, 34464, Note_on_c, 9, 42, 127
9, 34510, Note_on_c, 9, 42, 0
9, 34512, Note_on_c, 9, 36, 127
9, 34558, Note_on_c, 9, 36, 0
9, 34560, Note_on_c, 9, 36, 127
9, 34560, Note_on_c, 9, 42, 127
9, 34654, Note_on_c, 9, 36, 0
9, 34654, Note_on_c, 9, 42, 0
9, 34656, Note_on_c, 9, 42, 127
9, 34750, Note_on_c, 9, 42, 0
9, 34752, Note_on_c, 9, 38, 127
9, 34752, Note_on_c, 9, 42, 127
9, 34846, Note_on_c, 9, 38, 0
9, 34846, Note_on_c, 9, 42, 0
9, 34848, Note_on_c, 9, 42, 127
9, 34894, Note_on_c, 9, 42, 0
9, 34896, Note_on_c, 9, 36, 127
9, 34942, Note_on_c, 9, 36, 0
9, 34944, Note_on_c, 9, 36, 127
9, 34944, Note_on_c, 9, 42, 127
9, 35038, Note_on_c, 9, 36, 0
9, 35038, Note_on_c, 9, 42, 0
9, 35040, Note_on_c, 9, 42, 127
9, 35134, Note_on_c, 9, 42, 0
9, 35136, Note_on_c, 9, 38, 127
9, 35136, Note_on_c, 9, 42, 127
9, 35230, Note_on_c, 9, 38, 0
9, 35230, Note_on_c, 9, 42, 0
9, 35232, Note_on_c, 9, 42, 127
9, 35278, Note_on_c, 9, 42, 0
9, 35280, Note_on_c, 9, 36, 127
9, 35326, Note_on_c, 9, 36, 0
9, 35328, Note_on_c, 9, 36, 127
9, 35328, Note_on_c, 9, 42, 127
9, 35422, Note_on_c, 9, 36, 0
9, 35422, Note_on_c, 9, 42, 0
9, 35424, Note_on_c, 9, 42, 127
9, 35518, Note_on_c, 9, 42, 0
9, 35520, Note_on_c, 9, 38, 127
9, 35520, Note_on_c, 9, 42, 127
9, 35614, Note_on_c, 9, 38, 0
9, 35614, Note_on_c, 9, 42, 0
9, 35616, Note_on_c, 9, 42, 127
9, 35662, Note_on_c, 9, 42, 0
9, 35664, Note_on_c, 9, 36, 127
9, 35710, Note_on_c, 9, 36, 0
9, 35712, Note_on_c, 9, 36, 127
9, 35712, Note_on_c, 9, 42, 127
9, 35806, Note_on_c, 9, 36, 0
9, 35806, Note_on_c, 9, 42, 0
9, 35808, Note_on_c, 9, 42, 127
9, 35902, Note_on_c, 9, 42, 0
9, 35904, Note_on_c, 9, 38, 127
9, 35904, Note_on_c, 9, 42, 127
9, 35950, Note_on_c, 9, 38, 0
9, 35950, Note_on_c, 9, 42, 0
9, 35952, Note_on_c, 9, 38, 127
9, 35998, Note_on_c, 9, 38, 0
9, 36000, Note_on_c, 9, 42, 127
9, 36094, Note_on_c, 9, 42, 0
9, 36096, Note_on_c, 9, 36, 127
9, 36096, Note_on_c, 9, 38, 127
9, 36096, Note_on_c, 9, 42, 127
9, 36190, Note_on_c, 9, 36, 0
9, 36190, Note_on_c, 9, 38, 0
9, 36190, Note_on_c, 9, 42, 0
9, 36192, Note_on_c, 9, 36, 127
9, 36192, Note_on_c, 9, 38, 127
9, 36192, Note_on_c, 9, 42, 127
9, 36286, Note_on_c, 9, 36, 0
9, 36286, Note_on_c, 9, 38, 0
9, 36286, Note_on_c, 9, 42, 0
9, 36384, Note_on_c, 9, 36, 127
9, 36384, Note_on_c, 9, 38, 127
9, 36478, Note_on_c, 9, 36, 0
9, 36478, Note_on_c, 9, 38, 0
9, 36480, Note_on_c, 9, 36, 127
9, 36480, Note_on_c, 9, 38, 127
9, 36640, Note_on_c, 9, 36, 0
9, 36640, Note_on_c, 9, 38, 0
9, 36720, Note_on_c, 9, 48, 127
9, 36754, Note_on_c, 9, 48, 0
9, 36756, Note_on_c, 9, 38, 127
9, 36756, Note_on_c, 9, 50, 127
9, 36802, Note_on_c, 9, 38, 0
9, 36802, Note_on_c, 9, 50, 0
9, 36804, Note_on_c, 9, 48, 127
9, 36850, Note_on_c, 9, 48, 0
9, 36852, Note_on_c, 9, 45, 127
9, 36862, Note_on_c, 9, 45, 0
9, 36864, Note_on_c, 9, 36, 127
9, 36864, Note_on_c, 9, 49, 127
9, 36864, Note_on_c, 9, 51, 127
9, 36864, Note_on_c, 9, 53, 127
9, 36958, Note_on_c, 9, 36, 0
9, 36958, Note_on_c, 9, 49, 0
9, 36958, Note_on_c, 9, 51, 0
9, 36958, Note_on_c, 9, 53, 0
9, 36960, Note_on_c, 9, 42, 127
9, 37054, Note_on_c, 9, 42, 0
9, 37056, Note_on_c, 9, 39, 127
9, 37056, Note_on_c, 9, 42, 127
9, 37150, Note_on_c, 9, 39, 0
9, 37150, Note_on_c, 9, 42, 0
9, 37152, Note_on_c, 9, 42, 127
9, 37198, Note_on_c, 9, 42, 0
9, 37200, Note_on_c, 9, 37, 127
9, 37246, Note_on_c, 9, 37, 0
9, 37248, Note_on_c, 9, 37, 127
9, 37248, Note_on_c, 9, 42, 127
9, 37342, Note_on_c, 9, 37, 0
9, 37342, Note_on_c, 9, 42, 0
9, 37344, Note_on_c, 9, 37, 127
9, 37344, Note_on_c, 9, 42, 127
9, 37438, Note_on_c, 9, 37, 0
9, 37438, Note_on_c, 9, 42, 0
9, 37440, Note_on_c, 9, 39, 127
9, 37440, Note_on_c, 9, 42, 127
9, 37534, Note_on_c, 9, 39, 0
9, 37534, Note_on_c, 9, 42, 0
9, 37536, Note_on_c, 9, 42, 127
9, 37582, Note_on_c, 9, 42, 0
9, 37584, Note_on_c, 9, 37, 127
9, 37630, Note_on_c, 9, 37, 0
9, 37632, Note_on_c, 9, 36, 127
9, 37632, Note_on_c, 9, 42, 127
9, 37726, Note_on_c, 9, 36, 0
9, 37726, Note_on_c, 9, 42, 0
9, 37728, Note_on_c, 9, 42, 127
9, 37822, Note_on_c, 9, 42, 0
9, 37824, Note_on_c, 9, 38, 127
9, 37824, Note_on_c, 9, 42, 127
9, 37918, Note_on_c, 9, 38, 0
9, 37918, Note_on_c, 9, 42, 0
9, 37920, Note_on_c, 9, 42, 127
9, 37966, Note_on_c, 9, 42, 0
9, 37968, Note_on_c, 9, 36, 127
9, 38014, Note_on_c, 9, 36, 0
9, 38016, Note_on_c, 9, 36, 127
9, 38016, Note_on_c, 9, 42, 127
9, 38110, Note_on_c, 9, 36, 0
9, 38110, Note_on_c, 9, 42, 0
9, 38112, Note_on_c, 9, 42, 127
9, 38206, Note_on_c, 9, 42, 0
9, 38208, Note_on_c, 9, 38, 127
9, 38208, Note_on_c, 9, 42, 127
9, 38302, Note_on_c, 9, 38, 0
9, 38302, Note_on_c, 9, 42, 0
9, 38304, Note_on_c, 9, 42, 127
9, 38350, Note_on_c, 9, 42, 0
9, 38352, Note_on_c, 9, 36, 127
9, 38398, Note_on_c, 9, 36, 0
9, 38400, Note_on_c, 9, 36, 127
9, 38400, Note_on_c, 9, 42, 127
9, 38494, Note_on_c, 9, 36, 0
9, 38494, Note_on_c, 9, 42, 0
9, 38496, Note_on_c, 9, 42, 127
9, 38590, Note_on_c, 9, 42, 0
9, 38592, Note_on_c, 9, 38, 127
9, 38592, Note_on_c, 9, 42, 127
9, 38686, Note_on_c, 9, 38, 0
9, 38686, Note_on_c, 9, 42, 0
9, 38688, Note_on_c, 9, 42, 127
9, 38734, Note_on_c, 9, 42, 0
9, 38736, Note_on_c, 9, 36, 127
9, 38782, Note_on_c, 9, 36, 0
9, 38784, Note_on_c, 9, 36, 127
9, 38784, Note_on_c, 9, 42, 127
9, 38878, Note_on_c, 9, 36, 0
9, 38878, Note_on_c, 9, 42, 0
9, 38880, Note_on_c, 9, 42, 127
9, 38974, Note_on_c, 9, 42, 0
9, 38976, Note_on_c, 9, 38, 127
9, 38976, Note_on_c, 9, 42, 127
9, 39070, Note_on_c, 9, 38, 0
9, 39070, Note_on_c, 9, 42, 0
9, 39072, Note_on_c, 9, 42, 127
9, 39118, Note_on_c, 9, 42, 0
9, 39120, Note_on_c, 9, 36, 127
9, 39166, Note_on_c, 9, 36, 0
9, 39168, Note_on_c, 9, 49, 127
9, 39168, Note_on_c, 9, 51, 127
9, 39328, Note_on_c, 9, 49, 0
9, 39328, Note_on_c, 9, 51, 0
9, 39328, End_track
10, 0, Start_track
10, 0, MIDI_port, 0
10, 0, Title_t, "apringle@hotmail.com"
10, 0, Control_c, 0, 7, 127
10, 0, Control_c, 0, 10, 64
10, 0, End_track
0, 0, End_of_file
