0, 0, Header, 1, 22, 120
1, 0, Start_track
1, 0, MIDI_port, 0
1, 0, System_exclusive, 5, 126, 127, 9, 1, 247
1, 0, MIDI_port, 0
1, 0, Time_signature, 4, 2, 24, 8
1, 0, Key_signature, 0, "major"
1, 0, Tempo, 504202
1, 0, Marker_t, "Midi Sequence Copygiht © 1999 VJ Miele"
1, 0, End_track
2, 0, Start_track
2, 0, MIDI_port, 0
2, 0, Program_c, 0, 34
2, 0, Control_c, 0, 7, 125
2, 0, Control_c, 0, 10, 64
2, 0, Control_c, 0, 7, 110
2, 0, Control_c, 0, 10, 64
2, 0, Pitch_bend_c, 0, 8192
2, 1440, Note_on_c, 0, 41, 120
2, 1640, Note_on_c, 0, 41, 0
2, 1640, Note_on_c, 0, 41, 120
2, 1665, Note_on_c, 0, 41, 0
2, 1680, Note_on_c, 0, 40, 120
2, 1880, Note_on_c, 0, 40, 0
2, 1880, Note_on_c, 0, 38, 120
2, 1910, Note_on_c, 0, 38, 0
2, 1920, Note_on_c, 0, 38, 120
2, 2120, Note_on_c, 0, 38, 0
2, 2120, Note_on_c, 0, 43, 120
2, 2280, Note_on_c, 0, 43, 120
2, 2320, Note_on_c, 0, 43, 0
2, 2400, Note_on_c, 0, 43, 0
2, 2400, Note_on_c, 0, 41, 120
2, 2600, Note_on_c, 0, 41, 0
2, 2600, Note_on_c, 0, 41, 120
2, 2625, Note_on_c, 0, 41, 0
2, 2640, Note_on_c, 0, 40, 120
2, 2840, Note_on_c, 0, 40, 0
2, 2840, Note_on_c, 0, 38, 120
2, 2870, Note_on_c, 0, 38, 0
2, 2880, Note_on_c, 0, 38, 120
2, 3080, Note_on_c, 0, 38, 0
2, 3080, Note_on_c, 0, 43, 120
2, 3240, Note_on_c, 0, 43, 0
2, 3240, Note_on_c, 0, 43, 120
2, 3360, Note_on_c, 0, 43, 0
2, 3360, Note_on_c, 0, 36, 120
2, 3560, Note_on_c, 0, 36, 0
2, 3560, Note_on_c, 0, 36, 120
2, 3585, Note_on_c, 0, 36, 0
2, 3600, Note_on_c, 0, 33, 120
2, 3840, Note_on_c, 0, 33, 0
2, 3840, Note_on_c, 0, 38, 120
2, 4040, Note_on_c, 0, 38, 0
2, 4040, Note_on_c, 0, 31, 120
2, 4160, Note_on_c, 0, 31, 0
2, 4160, Note_on_c, 0, 31, 120
2, 4195, Note_on_c, 0, 31, 0
2, 4200, Note_on_c, 0, 31, 120
2, 4320, Note_on_c, 0, 31, 0
2, 4320, Note_on_c, 0, 36, 120
2, 4520, Note_on_c, 0, 36, 0
2, 4520, Note_on_c, 0, 36, 120
2, 4555, Note_on_c, 0, 36, 0
2, 4560, Note_on_c, 0, 40, 120
2, 4760, Note_on_c, 0, 40, 0
2, 4760, Note_on_c, 0, 40, 120
2, 4795, Note_on_c, 0, 40, 0
2, 4800, Note_on_c, 0, 33, 120
2, 5000, Note_on_c, 0, 33, 0
2, 5000, Note_on_c, 0, 41, 120
2, 5160, Note_on_c, 0, 41, 0
2, 5160, Note_on_c, 0, 41, 120
2, 5280, Note_on_c, 0, 41, 0
2, 5280, Note_on_c, 0, 40, 120
2, 5480, Note_on_c, 0, 40, 0
2, 5480, Note_on_c, 0, 40, 120
2, 5515, Note_on_c, 0, 40, 0
2, 5520, Note_on_c, 0, 40, 120
2, 5720, Note_on_c, 0, 40, 0
2, 5720, Note_on_c, 0, 40, 120
2, 5755, Note_on_c, 0, 40, 0
2, 5760, Note_on_c, 0, 43, 120
2, 5960, Note_on_c, 0, 43, 0
2, 5960, Note_on_c, 0, 36, 120
2, 5995, Note_on_c, 0, 36, 0
2, 6000, Note_on_c, 0, 38, 120
2, 6080, Note_on_c, 0, 38, 0
2, 6080, Note_on_c, 0, 38, 120
2, 6120, Note_on_c, 0, 38, 0
2, 6120, Note_on_c, 0, 40, 120
2, 6200, Note_on_c, 0, 40, 0
2, 6200, Note_on_c, 0, 40, 120
2, 6240, Note_on_c, 0, 40, 0
2, 6240, Note_on_c, 0, 41, 120
2, 6440, Note_on_c, 0, 41, 0
2, 6440, Note_on_c, 0, 41, 120
2, 6465, Note_on_c, 0, 41, 0
2, 6480, Note_on_c, 0, 36, 120
2, 6680, Note_on_c, 0, 36, 0
2, 6680, Note_on_c, 0, 36, 120
2, 6710, Note_on_c, 0, 36, 0
2, 6720, Note_on_c, 0, 41, 120
2, 6920, Note_on_c, 0, 41, 0
2, 6920, Note_on_c, 0, 38, 120
2, 6990, Note_on_c, 0, 38, 0
2, 7040, Note_on_c, 0, 38, 120
2, 7110, Note_on_c, 0, 38, 0
2, 7160, Note_on_c, 0, 38, 120
2, 7200, Note_on_c, 0, 43, 120
2, 7230, Note_on_c, 0, 38, 0
2, 7275, Note_on_c, 0, 43, 0
2, 7280, Note_on_c, 0, 43, 120
2, 7400, Note_on_c, 0, 43, 0
2, 7400, Note_on_c, 0, 43, 120
2, 7440, Note_on_c, 0, 43, 0
2, 7440, Note_on_c, 0, 43, 120
2, 7515, Note_on_c, 0, 43, 0
2, 7520, Note_on_c, 0, 43, 120
2, 7640, Note_on_c, 0, 43, 0
2, 7640, Note_on_c, 0, 43, 120
2, 7680, Note_on_c, 0, 43, 0
2, 7680, Note_on_c, 0, 43, 120
2, 7755, Note_on_c, 0, 43, 0
2, 7760, Note_on_c, 0, 43, 120
2, 7880, Note_on_c, 0, 43, 0
2, 7880, Note_on_c, 0, 43, 120
2, 7920, Note_on_c, 0, 43, 0
2, 7920, Note_on_c, 0, 43, 120
2, 7995, Note_on_c, 0, 43, 0
2, 8000, Note_on_c, 0, 43, 120
2, 8120, Note_on_c, 0, 43, 0
2, 8120, Note_on_c, 0, 43, 120
2, 8160, Note_on_c, 0, 43, 0
2, 8160, Note_on_c, 0, 38, 120
2, 8360, Note_on_c, 0, 38, 0
2, 8360, Note_on_c, 0, 38, 120
2, 8385, Note_on_c, 0, 38, 0
2, 8400, Note_on_c, 0, 38, 120
2, 8600, Note_on_c, 0, 38, 0
2, 8600, Note_on_c, 0, 38, 120
2, 8630, Note_on_c, 0, 38, 0
2, 8640, Note_on_c, 0, 43, 120
2, 8840, Note_on_c, 0, 43, 0
2, 8840, Note_on_c, 0, 43, 120
2, 8960, Note_on_c, 0, 43, 0
2, 8960, Note_on_c, 0, 43, 120
2, 8990, Note_on_c, 0, 43, 0
2, 9000, Note_on_c, 0, 43, 120
2, 9120, Note_on_c, 0, 43, 0
2, 9120, Note_on_c, 0, 40, 120
2, 9320, Note_on_c, 0, 40, 0
2, 9320, Note_on_c, 0, 40, 120
2, 9345, Note_on_c, 0, 40, 0
2, 9360, Note_on_c, 0, 40, 120
2, 9560, Note_on_c, 0, 40, 0
2, 9560, Note_on_c, 0, 40, 120
2, 9590, Note_on_c, 0, 40, 0
2, 9600, Note_on_c, 0, 45, 120
2, 9800, Note_on_c, 0, 45, 0
2, 9800, Note_on_c, 0, 45, 120
2, 9920, Note_on_c, 0, 45, 0
2, 9920, Note_on_c, 0, 45, 120
2, 9960, Note_on_c, 0, 45, 0
2, 9960, Note_on_c, 0, 45, 120
2, 10080, Note_on_c, 0, 45, 0
2, 10080, Note_on_c, 0, 38, 120
2, 10280, Note_on_c, 0, 38, 0
2, 10280, Note_on_c, 0, 38, 120
2, 10305, Note_on_c, 0, 38, 0
2, 10320, Note_on_c, 0, 38, 120
2, 10520, Note_on_c, 0, 38, 0
2, 10520, Note_on_c, 0, 38, 120
2, 10550, Note_on_c, 0, 38, 0
2, 10560, Note_on_c, 0, 43, 120
2, 10760, Note_on_c, 0, 43, 0
2, 10760, Note_on_c, 0, 43, 120
2, 10880, Note_on_c, 0, 43, 0
2, 10880, Note_on_c, 0, 43, 120
2, 10910, Note_on_c, 0, 43, 0
2, 10920, Note_on_c, 0, 43, 120
2, 11040, Note_on_c, 0, 43, 0
2, 11040, Note_on_c, 0, 40, 120
2, 11240, Note_on_c, 0, 40, 0
2, 11240, Note_on_c, 0, 40, 120
2, 11265, Note_on_c, 0, 40, 0
2, 11280, Note_on_c, 0, 40, 120
2, 11480, Note_on_c, 0, 40, 0
2, 11480, Note_on_c, 0, 40, 120
2, 11510, Note_on_c, 0, 40, 0
2, 11520, Note_on_c, 0, 45, 120
2, 11720, Note_on_c, 0, 45, 0
2, 11720, Note_on_c, 0, 45, 120
2, 11840, Note_on_c, 0, 45, 0
2, 11840, Note_on_c, 0, 45, 120
2, 11880, Note_on_c, 0, 45, 0
2, 11880, Note_on_c, 0, 45, 120
2, 12000, Note_on_c, 0, 45, 0
2, 12000, Note_on_c, 0, 38, 120
2, 12200, Note_on_c, 0, 38, 0
2, 12200, Note_on_c, 0, 38, 120
2, 12225, Note_on_c, 0, 38, 0
2, 12240, Note_on_c, 0, 40, 120
2, 12440, Note_on_c, 0, 40, 0
2, 12440, Note_on_c, 0, 40, 120
2, 12470, Note_on_c, 0, 40, 0
2, 12480, Note_on_c, 0, 38, 120
2, 12680, Note_on_c, 0, 38, 0
2, 12680, Note_on_c, 0, 38, 120
2, 12705, Note_on_c, 0, 38, 0
2, 12720, Note_on_c, 0, 40, 120
2, 12920, Note_on_c, 0, 40, 0
2, 12920, Note_on_c, 0, 40, 120
2, 12950, Note_on_c, 0, 40, 0
2, 12960, Note_on_c, 0, 41, 120
2, 13160, Note_on_c, 0, 41, 0
2, 13160, Note_on_c, 0, 41, 120
2, 13185, Note_on_c, 0, 41, 0
2, 13200, Note_on_c, 0, 40, 120
2, 13400, Note_on_c, 0, 40, 0
2, 13400, Note_on_c, 0, 38, 120
2, 13430, Note_on_c, 0, 38, 0
2, 13440, Note_on_c, 0, 38, 120
2, 13640, Note_on_c, 0, 38, 0
2, 13640, Note_on_c, 0, 43, 120
2, 13800, Note_on_c, 0, 43, 0
2, 13800, Note_on_c, 0, 43, 120
2, 13920, Note_on_c, 0, 43, 0
2, 13920, Note_on_c, 0, 36, 120
2, 14120, Note_on_c, 0, 36, 0
2, 14120, Note_on_c, 0, 36, 120
2, 14145, Note_on_c, 0, 36, 0
2, 14160, Note_on_c, 0, 33, 120
2, 14400, Note_on_c, 0, 33, 0
2, 14400, Note_on_c, 0, 38, 120
2, 14600, Note_on_c, 0, 38, 0
2, 14600, Note_on_c, 0, 31, 120
2, 14720, Note_on_c, 0, 31, 0
2, 14720, Note_on_c, 0, 31, 120
2, 14755, Note_on_c, 0, 31, 0
2, 14760, Note_on_c, 0, 31, 120
2, 14880, Note_on_c, 0, 31, 0
2, 14880, Note_on_c, 0, 36, 120
2, 15080, Note_on_c, 0, 36, 0
2, 15080, Note_on_c, 0, 36, 120
2, 15115, Note_on_c, 0, 36, 0
2, 15120, Note_on_c, 0, 40, 120
2, 15320, Note_on_c, 0, 40, 0
2, 15320, Note_on_c, 0, 40, 120
2, 15355, Note_on_c, 0, 40, 0
2, 15360, Note_on_c, 0, 33, 120
2, 15560, Note_on_c, 0, 33, 0
2, 15560, Note_on_c, 0, 41, 120
2, 15720, Note_on_c, 0, 41, 0
2, 15720, Note_on_c, 0, 41, 120
2, 15840, Note_on_c, 0, 41, 0
2, 15840, Note_on_c, 0, 40, 120
2, 16040, Note_on_c, 0, 40, 0
2, 16040, Note_on_c, 0, 40, 120
2, 16075, Note_on_c, 0, 40, 0
2, 16080, Note_on_c, 0, 40, 120
2, 16280, Note_on_c, 0, 40, 0
2, 16280, Note_on_c, 0, 40, 120
2, 16315, Note_on_c, 0, 40, 0
2, 16320, Note_on_c, 0, 43, 120
2, 16520, Note_on_c, 0, 43, 0
2, 16520, Note_on_c, 0, 36, 120
2, 16555, Note_on_c, 0, 36, 0
2, 16560, Note_on_c, 0, 38, 120
2, 16640, Note_on_c, 0, 38, 0
2, 16640, Note_on_c, 0, 38, 120
2, 16680, Note_on_c, 0, 38, 0
2, 16680, Note_on_c, 0, 40, 120
2, 16760, Note_on_c, 0, 40, 0
2, 16760, Note_on_c, 0, 40, 120
2, 16800, Note_on_c, 0, 40, 0
2, 16800, Note_on_c, 0, 41, 120
2, 17000, Note_on_c, 0, 41, 0
2, 17000, Note_on_c, 0, 41, 120
2, 17025, Note_on_c, 0, 41, 0
2, 17040, Note_on_c, 0, 36, 120
2, 17240, Note_on_c, 0, 36, 0
2, 17240, Note_on_c, 0, 36, 120
2, 17270, Note_on_c, 0, 36, 0
2, 17280, Note_on_c, 0, 41, 120
2, 17480, Note_on_c, 0, 41, 0
2, 17480, Note_on_c, 0, 38, 120
2, 17550, Note_on_c, 0, 38, 0
2, 17600, Note_on_c, 0, 38, 120
2, 17670, Note_on_c, 0, 38, 0
2, 17720, Note_on_c, 0, 38, 120
2, 17760, Note_on_c, 0, 43, 120
2, 17790, Note_on_c, 0, 38, 0
2, 17835, Note_on_c, 0, 43, 0
2, 17840, Note_on_c, 0, 43, 120
2, 17960, Note_on_c, 0, 43, 0
2, 17960, Note_on_c, 0, 43, 120
2, 18000, Note_on_c, 0, 43, 0
2, 18000, Note_on_c, 0, 43, 120
2, 18075, Note_on_c, 0, 43, 0
2, 18080, Note_on_c, 0, 43, 120
2, 18200, Note_on_c, 0, 43, 0
2, 18200, Note_on_c, 0, 43, 120
2, 18240, Note_on_c, 0, 43, 0
2, 18240, Note_on_c, 0, 43, 120
2, 18315, Note_on_c, 0, 43, 0
2, 18320, Note_on_c, 0, 43, 120
2, 18440, Note_on_c, 0, 43, 0
2, 18440, Note_on_c, 0, 43, 120
2, 18480, Note_on_c, 0, 43, 0
2, 18480, Note_on_c, 0, 43, 120
2, 18555, Note_on_c, 0, 43, 0
2, 18560, Note_on_c, 0, 43, 120
2, 18680, Note_on_c, 0, 43, 0
2, 18680, Note_on_c, 0, 43, 120
2, 18720, Note_on_c, 0, 43, 0
2, 18720, Note_on_c, 0, 38, 120
2, 18920, Note_on_c, 0, 38, 0
2, 18920, Note_on_c, 0, 38, 120
2, 18945, Note_on_c, 0, 38, 0
2, 18960, Note_on_c, 0, 38, 120
2, 19160, Note_on_c, 0, 38, 0
2, 19160, Note_on_c, 0, 38, 120
2, 19190, Note_on_c, 0, 38, 0
2, 19200, Note_on_c, 0, 43, 120
2, 19400, Note_on_c, 0, 43, 0
2, 19400, Note_on_c, 0, 43, 120
2, 19520, Note_on_c, 0, 43, 0
2, 19520, Note_on_c, 0, 43, 120
2, 19550, Note_on_c, 0, 43, 0
2, 19560, Note_on_c, 0, 43, 120
2, 19680, Note_on_c, 0, 43, 0
2, 19680, Note_on_c, 0, 40, 120
2, 19880, Note_on_c, 0, 40, 0
2, 19880, Note_on_c, 0, 40, 120
2, 19905, Note_on_c, 0, 40, 0
2, 19920, Note_on_c, 0, 40, 120
2, 20120, Note_on_c, 0, 40, 0
2, 20120, Note_on_c, 0, 40, 120
2, 20150, Note_on_c, 0, 40, 0
2, 20160, Note_on_c, 0, 45, 120
2, 20360, Note_on_c, 0, 45, 0
2, 20360, Note_on_c, 0, 45, 120
2, 20480, Note_on_c, 0, 45, 0
2, 20480, Note_on_c, 0, 45, 120
2, 20520, Note_on_c, 0, 45, 0
2, 20520, Note_on_c, 0, 45, 120
2, 20640, Note_on_c, 0, 45, 0
2, 20640, Note_on_c, 0, 38, 120
2, 20840, Note_on_c, 0, 38, 0
2, 20840, Note_on_c, 0, 38, 120
2, 20865, Note_on_c, 0, 38, 0
2, 20880, Note_on_c, 0, 38, 120
2, 21080, Note_on_c, 0, 38, 0
2, 21080, Note_on_c, 0, 38, 120
2, 21110, Note_on_c, 0, 38, 0
2, 21120, Note_on_c, 0, 43, 120
2, 21320, Note_on_c, 0, 43, 0
2, 21320, Note_on_c, 0, 43, 120
2, 21440, Note_on_c, 0, 43, 0
2, 21440, Note_on_c, 0, 43, 120
2, 21470, Note_on_c, 0, 43, 0
2, 21480, Note_on_c, 0, 43, 120
2, 21600, Note_on_c, 0, 43, 0
2, 21600, Note_on_c, 0, 40, 120
2, 21800, Note_on_c, 0, 40, 0
2, 21800, Note_on_c, 0, 40, 120
2, 21825, Note_on_c, 0, 40, 0
2, 21840, Note_on_c, 0, 40, 120
2, 22040, Note_on_c, 0, 40, 0
2, 22040, Note_on_c, 0, 40, 120
2, 22070, Note_on_c, 0, 40, 0
2, 22080, Note_on_c, 0, 45, 120
2, 22280, Note_on_c, 0, 45, 0
2, 22280, Note_on_c, 0, 45, 120
2, 22400, Note_on_c, 0, 45, 0
2, 22400, Note_on_c, 0, 45, 120
2, 22440, Note_on_c, 0, 45, 0
2, 22440, Note_on_c, 0, 45, 120
2, 22560, Note_on_c, 0, 45, 0
2, 22560, Note_on_c, 0, 38, 120
2, 22760, Note_on_c, 0, 38, 0
2, 22760, Note_on_c, 0, 38, 120
2, 22785, Note_on_c, 0, 38, 0
2, 22800, Note_on_c, 0, 40, 120
2, 23000, Note_on_c, 0, 40, 0
2, 23000, Note_on_c, 0, 40, 120
2, 23030, Note_on_c, 0, 40, 0
2, 23040, Note_on_c, 0, 38, 120
2, 23240, Note_on_c, 0, 38, 0
2, 23240, Note_on_c, 0, 38, 120
2, 23265, Note_on_c, 0, 38, 0
2, 23280, Note_on_c, 0, 40, 120
2, 23480, Note_on_c, 0, 40, 0
2, 23480, Note_on_c, 0, 40, 120
2, 23510, Note_on_c, 0, 40, 0
2, 23520, Note_on_c, 0, 41, 120
2, 23720, Note_on_c, 0, 41, 0
2, 23720, Note_on_c, 0, 41, 120
2, 23745, Note_on_c, 0, 41, 0
2, 23760, Note_on_c, 0, 40, 120
2, 23960, Note_on_c, 0, 40, 0
2, 23960, Note_on_c, 0, 38, 120
2, 23990, Note_on_c, 0, 38, 0
2, 24000, Note_on_c, 0, 38, 120
2, 24200, Note_on_c, 0, 38, 0
2, 24200, Note_on_c, 0, 43, 120
2, 24360, Note_on_c, 0, 43, 0
2, 24360, Note_on_c, 0, 43, 120
2, 24480, Note_on_c, 0, 43, 0
2, 24480, Note_on_c, 0, 36, 120
2, 24680, Note_on_c, 0, 36, 0
2, 24680, Note_on_c, 0, 36, 120
2, 24705, Note_on_c, 0, 36, 0
2, 24720, Note_on_c, 0, 33, 120
2, 24960, Note_on_c, 0, 33, 0
2, 24960, Note_on_c, 0, 38, 120
2, 25160, Note_on_c, 0, 38, 0
2, 25160, Note_on_c, 0, 31, 120
2, 25280, Note_on_c, 0, 31, 0
2, 25280, Note_on_c, 0, 31, 120
2, 25315, Note_on_c, 0, 31, 0
2, 25320, Note_on_c, 0, 31, 120
2, 25440, Note_on_c, 0, 31, 0
2, 25440, Note_on_c, 0, 36, 120
2, 25640, Note_on_c, 0, 36, 0
2, 25640, Note_on_c, 0, 36, 120
2, 25675, Note_on_c, 0, 36, 0
2, 25680, Note_on_c, 0, 40, 120
2, 25880, Note_on_c, 0, 40, 0
2, 25880, Note_on_c, 0, 40, 120
2, 25915, Note_on_c, 0, 40, 0
2, 25920, Note_on_c, 0, 33, 120
2, 26120, Note_on_c, 0, 33, 0
2, 26120, Note_on_c, 0, 41, 120
2, 26280, Note_on_c, 0, 41, 0
2, 26280, Note_on_c, 0, 41, 120
2, 26400, Note_on_c, 0, 41, 0
2, 26400, Note_on_c, 0, 40, 120
2, 26600, Note_on_c, 0, 40, 0
2, 26600, Note_on_c, 0, 40, 120
2, 26635, Note_on_c, 0, 40, 0
2, 26640, Note_on_c, 0, 40, 120
2, 26840, Note_on_c, 0, 40, 0
2, 26840, Note_on_c, 0, 40, 120
2, 26875, Note_on_c, 0, 40, 0
2, 26880, Note_on_c, 0, 43, 120
2, 27080, Note_on_c, 0, 43, 0
2, 27080, Note_on_c, 0, 36, 120
2, 27115, Note_on_c, 0, 36, 0
2, 27120, Note_on_c, 0, 38, 120
2, 27200, Note_on_c, 0, 38, 0
2, 27200, Note_on_c, 0, 38, 120
2, 27240, Note_on_c, 0, 38, 0
2, 27240, Note_on_c, 0, 40, 120
2, 27320, Note_on_c, 0, 40, 0
2, 27320, Note_on_c, 0, 40, 120
2, 27360, Note_on_c, 0, 40, 0
2, 27360, Note_on_c, 0, 41, 120
2, 27560, Note_on_c, 0, 41, 0
2, 27560, Note_on_c, 0, 41, 120
2, 27585, Note_on_c, 0, 41, 0
2, 27600, Note_on_c, 0, 36, 120
2, 27800, Note_on_c, 0, 36, 0
2, 27800, Note_on_c, 0, 36, 120
2, 27830, Note_on_c, 0, 36, 0
2, 27840, Note_on_c, 0, 41, 120
2, 28040, Note_on_c, 0, 41, 0
2, 28040, Note_on_c, 0, 38, 120
2, 28110, Note_on_c, 0, 38, 0
2, 28160, Note_on_c, 0, 38, 120
2, 28230, Note_on_c, 0, 38, 0
2, 28280, Note_on_c, 0, 38, 120
2, 28315, Note_on_c, 0, 38, 0
2, 28320, Note_on_c, 0, 31, 120
2, 28520, Note_on_c, 0, 31, 0
2, 28520, Note_on_c, 0, 31, 120
2, 28560, Note_on_c, 0, 31, 0
2, 28560, Note_on_c, 0, 29, 120
2, 28760, Note_on_c, 0, 29, 0
2, 28760, Note_on_c, 0, 29, 120
2, 28800, Note_on_c, 0, 29, 0
2, 28800, Note_on_c, 0, 31, 120
2, 29000, Note_on_c, 0, 31, 0
2, 29000, Note_on_c, 0, 31, 120
2, 29040, Note_on_c, 0, 31, 0
2, 29040, Note_on_c, 0, 29, 120
2, 29240, Note_on_c, 0, 29, 0
2, 29240, Note_on_c, 0, 29, 120
2, 29280, Note_on_c, 0, 29, 0
2, 29280, Note_on_c, 0, 31, 120
2, 29480, Note_on_c, 0, 31, 0
2, 29480, Note_on_c, 0, 31, 120
2, 29520, Note_on_c, 0, 31, 0
2, 29520, Note_on_c, 0, 31, 120
2, 29720, Note_on_c, 0, 31, 0
2, 29720, Note_on_c, 0, 31, 120
2, 29760, Note_on_c, 0, 31, 0
2, 29760, Note_on_c, 0, 31, 120
2, 29960, Note_on_c, 0, 31, 0
2, 29960, Note_on_c, 0, 31, 120
2, 30000, Note_on_c, 0, 31, 0
2, 30000, Note_on_c, 0, 29, 120
2, 30080, Note_on_c, 0, 29, 0
2, 30080, Note_on_c, 0, 29, 120
2, 30110, Note_on_c, 0, 29, 0
2, 30120, Note_on_c, 0, 29, 120
2, 30200, Note_on_c, 0, 29, 0
2, 30200, Note_on_c, 0, 29, 120
2, 30240, Note_on_c, 0, 29, 0
2, 30240, Note_on_c, 0, 31, 120
2, 30440, Note_on_c, 0, 31, 0
2, 30440, Note_on_c, 0, 31, 120
2, 30480, Note_on_c, 0, 31, 0
2, 30480, Note_on_c, 0, 31, 120
2, 30680, Note_on_c, 0, 31, 0
2, 30680, Note_on_c, 0, 31, 120
2, 30720, Note_on_c, 0, 31, 0
2, 30720, Note_on_c, 0, 31, 120
2, 30920, Note_on_c, 0, 31, 0
2, 30920, Note_on_c, 0, 31, 120
2, 30960, Note_on_c, 0, 31, 0
2, 30960, Note_on_c, 0, 31, 120
2, 31040, Note_on_c, 0, 31, 0
2, 31040, Note_on_c, 0, 31, 120
2, 31070, Note_on_c, 0, 31, 0
2, 31080, Note_on_c, 0, 31, 120
2, 31160, Note_on_c, 0, 31, 0
2, 31160, Note_on_c, 0, 31, 120
2, 31200, Note_on_c, 0, 31, 0
2, 31200, Note_on_c, 0, 41, 120
2, 31400, Note_on_c, 0, 41, 0
2, 31400, Note_on_c, 0, 41, 120
2, 31425, Note_on_c, 0, 41, 0
2, 31440, Note_on_c, 0, 40, 120
2, 31640, Note_on_c, 0, 40, 0
2, 31640, Note_on_c, 0, 40, 120
2, 31670, Note_on_c, 0, 40, 0
2, 31680, Note_on_c, 0, 38, 120
2, 31880, Note_on_c, 0, 38, 0
2, 31880, Note_on_c, 0, 43, 120
2, 32000, Note_on_c, 0, 43, 0
2, 32000, Note_on_c, 0, 43, 120
2, 32120, Note_on_c, 0, 43, 0
2, 32120, Note_on_c, 0, 43, 120
2, 32160, Note_on_c, 0, 43, 0
2, 32160, Note_on_c, 0, 41, 120
2, 32360, Note_on_c, 0, 41, 0
2, 32360, Note_on_c, 0, 41, 120
2, 32385, Note_on_c, 0, 41, 0
2, 32400, Note_on_c, 0, 40, 120
2, 32600, Note_on_c, 0, 40, 0
2, 32600, Note_on_c, 0, 40, 120
2, 32630, Note_on_c, 0, 40, 0
2, 32640, Note_on_c, 0, 38, 120
2, 32840, Note_on_c, 0, 38, 0
2, 32840, Note_on_c, 0, 43, 120
2, 32960, Note_on_c, 0, 43, 0
2, 32960, Note_on_c, 0, 43, 120
2, 33080, Note_on_c, 0, 43, 0
2, 33080, Note_on_c, 0, 43, 120
2, 33120, Note_on_c, 0, 43, 0
2, 33120, Note_on_c, 0, 41, 120
2, 33320, Note_on_c, 0, 41, 0
2, 33320, Note_on_c, 0, 41, 120
2, 33345, Note_on_c, 0, 41, 0
2, 33360, Note_on_c, 0, 40, 120
2, 33560, Note_on_c, 0, 40, 0
2, 33560, Note_on_c, 0, 40, 120
2, 33590, Note_on_c, 0, 40, 0
2, 33600, Note_on_c, 0, 38, 120
2, 33800, Note_on_c, 0, 38, 0
2, 33800, Note_on_c, 0, 43, 120
2, 33920, Note_on_c, 0, 43, 0
2, 33920, Note_on_c, 0, 43, 120
2, 34040, Note_on_c, 0, 43, 0
2, 34040, Note_on_c, 0, 43, 120
2, 34080, Note_on_c, 0, 43, 0
2, 34080, Note_on_c, 0, 41, 120
2, 34280, Note_on_c, 0, 41, 0
2, 34280, Note_on_c, 0, 41, 120
2, 34305, Note_on_c, 0, 41, 0
2, 34320, Note_on_c, 0, 40, 120
2, 34520, Note_on_c, 0, 40, 0
2, 34520, Note_on_c, 0, 40, 120
2, 34550, Note_on_c, 0, 40, 0
2, 34560, Note_on_c, 0, 38, 120
2, 34760, Note_on_c, 0, 38, 0
2, 34760, Note_on_c, 0, 43, 120
2, 34880, Note_on_c, 0, 43, 0
2, 34880, Note_on_c, 0, 43, 120
2, 35000, Note_on_c, 0, 43, 0
2, 35000, Note_on_c, 0, 43, 120
2, 35040, Note_on_c, 0, 43, 0
2, 35040, Note_on_c, 0, 41, 120
2, 35240, Note_on_c, 0, 41, 0
2, 35240, Note_on_c, 0, 41, 120
2, 35265, Note_on_c, 0, 41, 0
2, 35280, Note_on_c, 0, 40, 120
2, 35480, Note_on_c, 0, 40, 0
2, 35480, Note_on_c, 0, 40, 120
2, 35510, Note_on_c, 0, 40, 0
2, 35520, Note_on_c, 0, 38, 120
2, 35720, Note_on_c, 0, 38, 0
2, 35720, Note_on_c, 0, 43, 114
2, 35840, Note_on_c, 0, 43, 0
2, 35840, Note_on_c, 0, 43, 109
2, 35960, Note_on_c, 0, 43, 0
2, 35960, Note_on_c, 0, 43, 104
2, 36000, Note_on_c, 0, 43, 0
2, 36000, Note_on_c, 0, 41, 103
2, 36200, Note_on_c, 0, 41, 0
2, 36200, Note_on_c, 0, 41, 96
2, 36225, Note_on_c, 0, 41, 0
2, 36240, Note_on_c, 0, 40, 94
2, 36440, Note_on_c, 0, 40, 0
2, 36440, Note_on_c, 0, 40, 87
2, 36470, Note_on_c, 0, 40, 0
2, 36480, Note_on_c, 0, 38, 86
2, 36680, Note_on_c, 0, 38, 0
2, 36680, Note_on_c, 0, 43, 79
2, 36800, Note_on_c, 0, 43, 0
2, 36800, Note_on_c, 0, 43, 74
2, 36920, Note_on_c, 0, 43, 0
2, 36920, Note_on_c, 0, 43, 70
2, 36960, Note_on_c, 0, 43, 0
2, 36960, Note_on_c, 0, 41, 69
2, 37160, Note_on_c, 0, 41, 0
2, 37160, Note_on_c, 0, 41, 62
2, 37185, Note_on_c, 0, 41, 0
2, 37200, Note_on_c, 0, 40, 60
2, 37400, Note_on_c, 0, 40, 0
2, 37400, Note_on_c, 0, 40, 54
2, 37430, Note_on_c, 0, 40, 0
2, 37440, Note_on_c, 0, 38, 51
2, 37640, Note_on_c, 0, 38, 0
2, 37640, Note_on_c, 0, 43, 44
2, 37760, Note_on_c, 0, 43, 0
2, 37760, Note_on_c, 0, 43, 40
2, 37880, Note_on_c, 0, 43, 0
2, 37880, Note_on_c, 0, 43, 36
2, 37920, Note_on_c, 0, 43, 0
2, 37920, Note_on_c, 0, 41, 34
2, 38120, Note_on_c, 0, 41, 0
2, 38120, Note_on_c, 0, 41, 27
2, 38145, Note_on_c, 0, 41, 0
2, 38160, Note_on_c, 0, 40, 26
2, 38360, Note_on_c, 0, 40, 0
2, 38360, Note_on_c, 0, 40, 19
2, 38390, Note_on_c, 0, 40, 0
2, 38400, Note_on_c, 0, 38, 18
2, 38600, Note_on_c, 0, 38, 0
2, 38600, Note_on_c, 0, 43, 10
2, 38720, Note_on_c, 0, 43, 0
2, 38720, Note_on_c, 0, 43, 6
2, 38840, Note_on_c, 0, 43, 0
2, 38840, Note_on_c, 0, 43, 2
2, 38880, Note_on_c, 0, 43, 0
2, 38880, End_track
3, 0, Start_track
3, 0, MIDI_port, 0
3, 0, Program_c, 1, 0
3, 0, Control_c, 1, 7, 80
3, 0, Control_c, 1, 10, 127
3, 480, Note_on_c, 1, 69, 100
3, 480, Note_on_c, 1, 41, 100
3, 480, Note_on_c, 1, 76, 100
3, 570, Note_on_c, 1, 76, 0
3, 570, Note_on_c, 1, 69, 0
3, 600, Note_on_c, 1, 69, 100
3, 600, Note_on_c, 1, 76, 100
3, 680, Note_on_c, 1, 76, 0
3, 680, Note_on_c, 1, 69, 0
3, 680, Note_on_c, 1, 65, 100
3, 680, Note_on_c, 1, 72, 100
3, 720, Note_on_c, 1, 72, 0
3, 720, Note_on_c, 1, 65, 0
3, 720, Note_on_c, 1, 41, 0
3, 720, Note_on_c, 1, 67, 100
3, 720, Note_on_c, 1, 40, 100
3, 720, Note_on_c, 1, 74, 100
3, 790, Note_on_c, 1, 74, 0
3, 790, Note_on_c, 1, 67, 0
3, 800, Note_on_c, 1, 64, 100
3, 800, Note_on_c, 1, 71, 100
3, 840, Note_on_c, 1, 71, 0
3, 840, Note_on_c, 1, 64, 0
3, 840, Note_on_c, 1, 67, 100
3, 840, Note_on_c, 1, 74, 100
3, 920, Note_on_c, 1, 74, 0
3, 920, Note_on_c, 1, 67, 0
3, 920, Note_on_c, 1, 38, 100
3, 920, Note_on_c, 1, 65, 100
3, 920, Note_on_c, 1, 72, 100
3, 960, Note_on_c, 1, 40, 0
3, 1080, Note_on_c, 1, 72, 0
3, 1080, Note_on_c, 1, 65, 0
3, 1080, Note_on_c, 1, 72, 100
3, 1080, Note_on_c, 1, 65, 100
3, 1160, Note_on_c, 1, 65, 0
3, 1160, Note_on_c, 1, 62, 100
3, 1200, Note_on_c, 1, 62, 0
3, 1200, Note_on_c, 1, 72, 0
3, 1200, Note_on_c, 1, 38, 0
3, 1200, Note_on_c, 1, 74, 100
3, 1200, Note_on_c, 1, 71, 100
3, 1200, Note_on_c, 1, 67, 100
3, 1200, Note_on_c, 1, 43, 100
3, 1270, Note_on_c, 1, 67, 0
3, 1270, Note_on_c, 1, 74, 0
3, 1270, Note_on_c, 1, 71, 0
3, 1280, Note_on_c, 1, 69, 100
3, 1280, Note_on_c, 1, 72, 100
3, 1280, Note_on_c, 1, 65, 100
3, 1320, Note_on_c, 1, 65, 0
3, 1320, Note_on_c, 1, 72, 0
3, 1320, Note_on_c, 1, 69, 0
3, 1320, Note_on_c, 1, 74, 100
3, 1320, Note_on_c, 1, 71, 100
3, 1320, Note_on_c, 1, 67, 100
3, 1390, Note_on_c, 1, 67, 0
3, 1390, Note_on_c, 1, 71, 0
3, 1390, Note_on_c, 1, 74, 0
3, 1440, Note_on_c, 1, 43, 0
3, 1440, Note_on_c, 1, 69, 100
3, 1440, Note_on_c, 1, 41, 100
3, 1440, Note_on_c, 1, 76, 100
3, 1530, Note_on_c, 1, 76, 0
3, 1530, Note_on_c, 1, 69, 0
3, 1560, Note_on_c, 1, 69, 100
3, 1560, Note_on_c, 1, 76, 100
3, 1640, Note_on_c, 1, 76, 0
3, 1640, Note_on_c, 1, 69, 0
3, 1640, Note_on_c, 1, 65, 100
3, 1640, Note_on_c, 1, 72, 100
3, 1680, Note_on_c, 1, 72, 0
3, 1680, Note_on_c, 1, 65, 0
3, 1680, Note_on_c, 1, 41, 0
3, 1680, Note_on_c, 1, 67, 100
3, 1680, Note_on_c, 1, 40, 100
3, 1680, Note_on_c, 1, 74, 100
3, 1750, Note_on_c, 1, 74, 0
3, 1750, Note_on_c, 1, 67, 0
3, 1760, Note_on_c, 1, 64, 100
3, 1760, Note_on_c, 1, 71, 100
3, 1800, Note_on_c, 1, 71, 0
3, 1800, Note_on_c, 1, 64, 0
3, 1800, Note_on_c, 1, 67, 100
3, 1800, Note_on_c, 1, 74, 100
3, 1880, Note_on_c, 1, 74, 0
3, 1880, Note_on_c, 1, 67, 0
3, 1880, Note_on_c, 1, 38, 100
3, 1880, Note_on_c, 1, 65, 100
3, 1880, Note_on_c, 1, 72, 100
3, 1920, Note_on_c, 1, 40, 0
3, 2040, Note_on_c, 1, 72, 0
3, 2040, Note_on_c, 1, 65, 0
3, 2040, Note_on_c, 1, 72, 100
3, 2040, Note_on_c, 1, 65, 100
3, 2120, Note_on_c, 1, 65, 0
3, 2120, Note_on_c, 1, 62, 100
3, 2160, Note_on_c, 1, 62, 0
3, 2160, Note_on_c, 1, 72, 0
3, 2160, Note_on_c, 1, 38, 0
3, 2160, Note_on_c, 1, 74, 100
3, 2160, Note_on_c, 1, 71, 100
3, 2160, Note_on_c, 1, 67, 100
3, 2160, Note_on_c, 1, 43, 100
3, 2230, Note_on_c, 1, 67, 0
3, 2230, Note_on_c, 1, 74, 0
3, 2230, Note_on_c, 1, 71, 0
3, 2240, Note_on_c, 1, 69, 100
3, 2240, Note_on_c, 1, 72, 100
3, 2240, Note_on_c, 1, 65, 100
3, 2280, Note_on_c, 1, 65, 0
3, 2280, Note_on_c, 1, 72, 0
3, 2280, Note_on_c, 1, 69, 0
3, 2280, Note_on_c, 1, 74, 100
3, 2280, Note_on_c, 1, 71, 100
3, 2280, Note_on_c, 1, 67, 100
3, 2350, Note_on_c, 1, 67, 0
3, 2350, Note_on_c, 1, 71, 0
3, 2350, Note_on_c, 1, 74, 0
3, 2400, Note_on_c, 1, 43, 0
3, 2400, Note_on_c, 1, 69, 100
3, 2400, Note_on_c, 1, 41, 100
3, 2400, Note_on_c, 1, 76, 100
3, 2490, Note_on_c, 1, 76, 0
3, 2490, Note_on_c, 1, 69, 0
3, 2520, Note_on_c, 1, 69, 100
3, 2520, Note_on_c, 1, 76, 100
3, 2600, Note_on_c, 1, 76, 0
3, 2600, Note_on_c, 1, 69, 0
3, 2600, Note_on_c, 1, 65, 100
3, 2600, Note_on_c, 1, 72, 100
3, 2640, Note_on_c, 1, 72, 0
3, 2640, Note_on_c, 1, 65, 0
3, 2640, Note_on_c, 1, 41, 0
3, 2640, Note_on_c, 1, 67, 100
3, 2640, Note_on_c, 1, 40, 100
3, 2640, Note_on_c, 1, 74, 100
3, 2710, Note_on_c, 1, 74, 0
3, 2710, Note_on_c, 1, 67, 0
3, 2720, Note_on_c, 1, 64, 100
3, 2720, Note_on_c, 1, 71, 100
3, 2760, Note_on_c, 1, 71, 0
3, 2760, Note_on_c, 1, 64, 0
3, 2760, Note_on_c, 1, 67, 100
3, 2760, Note_on_c, 1, 74, 100
3, 2840, Note_on_c, 1, 74, 0
3, 2840, Note_on_c, 1, 67, 0
3, 2840, Note_on_c, 1, 38, 100
3, 2840, Note_on_c, 1, 65, 100
3, 2840, Note_on_c, 1, 72, 100
3, 2880, Note_on_c, 1, 40, 0
3, 3000, Note_on_c, 1, 72, 0
3, 3000, Note_on_c, 1, 65, 0
3, 3000, Note_on_c, 1, 69, 100
3, 3000, Note_on_c, 1, 72, 100
3, 3000, Note_on_c, 1, 65, 100
3, 3120, Note_on_c, 1, 65, 0
3, 3120, Note_on_c, 1, 38, 0
3, 3120, Note_on_c, 1, 69, 0
3, 3120, Note_on_c, 1, 72, 0
3, 3120, Note_on_c, 1, 69, 100
3, 3120, Note_on_c, 1, 72, 100
3, 3120, Note_on_c, 1, 65, 100
3, 3240, Note_on_c, 1, 65, 0
3, 3240, Note_on_c, 1, 72, 0
3, 3240, Note_on_c, 1, 69, 0
3, 3240, Note_on_c, 1, 69, 100
3, 3240, Note_on_c, 1, 72, 100
3, 3240, Note_on_c, 1, 65, 100
3, 3360, Note_on_c, 1, 65, 0
3, 3360, Note_on_c, 1, 72, 0
3, 3360, Note_on_c, 1, 69, 0
3, 3360, Note_on_c, 1, 55, 100
3, 3360, Note_on_c, 1, 64, 100
3, 3360, Note_on_c, 1, 60, 100
3, 3450, Note_on_c, 1, 60, 0
3, 3450, Note_on_c, 1, 64, 0
3, 3450, Note_on_c, 1, 55, 0
3, 3480, Note_on_c, 1, 55, 100
3, 3480, Note_on_c, 1, 64, 100
3, 3480, Note_on_c, 1, 60, 100
3, 3570, Note_on_c, 1, 60, 0
3, 3570, Note_on_c, 1, 64, 0
3, 3570, Note_on_c, 1, 55, 0
3, 3600, Note_on_c, 1, 57, 100
3, 3600, Note_on_c, 1, 64, 100
3, 3600, Note_on_c, 1, 60, 100
3, 3680, Note_on_c, 1, 57, 100
3, 3690, Note_on_c, 1, 57, 0
3, 3690, Note_on_c, 1, 60, 0
3, 3690, Note_on_c, 1, 64, 0
3, 3720, Note_on_c, 1, 57, 100
3, 3720, Note_on_c, 1, 64, 100
3, 3720, Note_on_c, 1, 60, 100
3, 3770, Note_on_c, 1, 57, 0
3, 3790, Note_on_c, 1, 57, 0
3, 3790, Note_on_c, 1, 64, 0
3, 3790, Note_on_c, 1, 60, 0
3, 3800, Note_on_c, 1, 57, 100
3, 3800, Note_on_c, 1, 65, 100
3, 3800, Note_on_c, 1, 60, 100
3, 3920, Note_on_c, 1, 60, 0
3, 3920, Note_on_c, 1, 65, 0
3, 3920, Note_on_c, 1, 57, 0
3, 3920, Note_on_c, 1, 64, 100
3, 3920, Note_on_c, 1, 57, 100
3, 3955, Note_on_c, 1, 57, 0
3, 3955, Note_on_c, 1, 64, 0
3, 3960, Note_on_c, 1, 65, 100
3, 3960, Note_on_c, 1, 60, 100
3, 3960, Note_on_c, 1, 57, 100
3, 4035, Note_on_c, 1, 57, 0
3, 4035, Note_on_c, 1, 60, 0
3, 4035, Note_on_c, 1, 65, 0
3, 4080, Note_on_c, 1, 65, 100
3, 4080, Note_on_c, 1, 60, 100
3, 4080, Note_on_c, 1, 57, 100
3, 4155, Note_on_c, 1, 57, 0
3, 4155, Note_on_c, 1, 60, 0
3, 4155, Note_on_c, 1, 65, 0
3, 4200, Note_on_c, 1, 65, 100
3, 4200, Note_on_c, 1, 60, 100
3, 4200, Note_on_c, 1, 57, 100
3, 4275, Note_on_c, 1, 57, 0
3, 4275, Note_on_c, 1, 60, 0
3, 4275, Note_on_c, 1, 65, 0
3, 4320, Note_on_c, 1, 60, 100
3, 4320, Note_on_c, 1, 55, 100
3, 4320, Note_on_c, 1, 64, 100
3, 4395, Note_on_c, 1, 64, 0
3, 4395, Note_on_c, 1, 55, 0
3, 4395, Note_on_c, 1, 60, 0
3, 4440, Note_on_c, 1, 60, 100
3, 4440, Note_on_c, 1, 55, 100
3, 4440, Note_on_c, 1, 64, 100
3, 4515, Note_on_c, 1, 64, 0
3, 4515, Note_on_c, 1, 55, 0
3, 4515, Note_on_c, 1, 60, 0
3, 4560, Note_on_c, 1, 62, 100
3, 4560, Note_on_c, 1, 59, 100
3, 4560, Note_on_c, 1, 56, 100
3, 4635, Note_on_c, 1, 56, 0
3, 4635, Note_on_c, 1, 59, 0
3, 4635, Note_on_c, 1, 62, 0
3, 4640, Note_on_c, 1, 52, 100
3, 4680, Note_on_c, 1, 59, 100
3, 4680, Note_on_c, 1, 56, 100
3, 4680, Note_on_c, 1, 62, 100
3, 4730, Note_on_c, 1, 52, 0
3, 4755, Note_on_c, 1, 59, 0
3, 4755, Note_on_c, 1, 56, 0
3, 4755, Note_on_c, 1, 62, 0
3, 4800, Note_on_c, 1, 64, 100
3, 4800, Note_on_c, 1, 57, 100
3, 4800, Note_on_c, 1, 60, 100
3, 4875, Note_on_c, 1, 60, 0
3, 4875, Note_on_c, 1, 57, 0
3, 4875, Note_on_c, 1, 64, 0
3, 4920, Note_on_c, 1, 64, 100
3, 4920, Note_on_c, 1, 57, 100
3, 4920, Note_on_c, 1, 60, 100
3, 4995, Note_on_c, 1, 60, 0
3, 4995, Note_on_c, 1, 57, 0
3, 4995, Note_on_c, 1, 64, 0
3, 5040, Note_on_c, 1, 64, 100
3, 5040, Note_on_c, 1, 57, 100
3, 5040, Note_on_c, 1, 60, 100
3, 5115, Note_on_c, 1, 60, 0
3, 5115, Note_on_c, 1, 57, 0
3, 5115, Note_on_c, 1, 64, 0
3, 5160, Note_on_c, 1, 57, 100
3, 5160, Note_on_c, 1, 64, 100
3, 5160, Note_on_c, 1, 60, 100
3, 5235, Note_on_c, 1, 60, 0
3, 5235, Note_on_c, 1, 64, 0
3, 5235, Note_on_c, 1, 57, 0
3, 5280, Note_on_c, 1, 59, 100
3, 5280, Note_on_c, 1, 55, 100
3, 5280, Note_on_c, 1, 62, 100
3, 5355, Note_on_c, 1, 62, 0
3, 5355, Note_on_c, 1, 55, 0
3, 5355, Note_on_c, 1, 59, 0
3, 5400, Note_on_c, 1, 59, 100
3, 5400, Note_on_c, 1, 55, 100
3, 5400, Note_on_c, 1, 62, 100
3, 5475, Note_on_c, 1, 62, 0
3, 5475, Note_on_c, 1, 55, 0
3, 5475, Note_on_c, 1, 59, 0
3, 5600, Note_on_c, 1, 55, 100
3, 5600, Note_on_c, 1, 59, 100
3, 5600, Note_on_c, 1, 62, 100
3, 5675, Note_on_c, 1, 62, 0
3, 5675, Note_on_c, 1, 59, 0
3, 5675, Note_on_c, 1, 55, 0
3, 5720, Note_on_c, 1, 65, 100
3, 5720, Note_on_c, 1, 62, 100
3, 5720, Note_on_c, 1, 58, 100
3, 5840, Note_on_c, 1, 58, 0
3, 5840, Note_on_c, 1, 62, 0
3, 5840, Note_on_c, 1, 65, 0
3, 5880, Note_on_c, 1, 60, 100
3, 5880, Note_on_c, 1, 64, 100
3, 5880, Note_on_c, 1, 67, 100
3, 6000, Note_on_c, 1, 67, 0
3, 6000, Note_on_c, 1, 64, 0
3, 6000, Note_on_c, 1, 60, 0
3, 6000, Note_on_c, 1, 62, 100
3, 6000, Note_on_c, 1, 65, 100
3, 6000, Note_on_c, 1, 69, 100
3, 6120, Note_on_c, 1, 69, 0
3, 6120, Note_on_c, 1, 65, 0
3, 6120, Note_on_c, 1, 62, 0
3, 6120, Note_on_c, 1, 64, 100
3, 6120, Note_on_c, 1, 67, 100
3, 6240, Note_on_c, 1, 67, 0
3, 6240, Note_on_c, 1, 64, 0
3, 6240, Note_on_c, 1, 60, 100
3, 6240, Note_on_c, 1, 57, 100
3, 6240, Note_on_c, 1, 64, 100
3, 6315, Note_on_c, 1, 64, 0
3, 6315, Note_on_c, 1, 57, 0
3, 6315, Note_on_c, 1, 60, 0
3, 6360, Note_on_c, 1, 60, 100
3, 6360, Note_on_c, 1, 57, 100
3, 6360, Note_on_c, 1, 64, 100
3, 6435, Note_on_c, 1, 64, 0
3, 6435, Note_on_c, 1, 57, 0
3, 6435, Note_on_c, 1, 60, 0
3, 6480, Note_on_c, 1, 65, 100
3, 6480, Note_on_c, 1, 58, 100
3, 6480, Note_on_c, 1, 62, 100
3, 6555, Note_on_c, 1, 62, 0
3, 6555, Note_on_c, 1, 58, 0
3, 6555, Note_on_c, 1, 65, 0
3, 6600, Note_on_c, 1, 65, 100
3, 6600, Note_on_c, 1, 58, 100
3, 6600, Note_on_c, 1, 62, 100
3, 6675, Note_on_c, 1, 62, 0
3, 6675, Note_on_c, 1, 58, 0
3, 6675, Note_on_c, 1, 65, 0
3, 6720, Note_on_c, 1, 60, 100
3, 6720, Note_on_c, 1, 57, 100
3, 6720, Note_on_c, 1, 64, 100
3, 6795, Note_on_c, 1, 64, 0
3, 6795, Note_on_c, 1, 57, 0
3, 6795, Note_on_c, 1, 60, 0
3, 6840, Note_on_c, 1, 60, 100
3, 6840, Note_on_c, 1, 57, 100
3, 6840, Note_on_c, 1, 64, 100
3, 6915, Note_on_c, 1, 64, 0
3, 6915, Note_on_c, 1, 57, 0
3, 6915, Note_on_c, 1, 60, 0
3, 6960, Note_on_c, 1, 65, 100
3, 6960, Note_on_c, 1, 57, 100
3, 6960, Note_on_c, 1, 60, 100
3, 7035, Note_on_c, 1, 60, 0
3, 7035, Note_on_c, 1, 57, 0
3, 7035, Note_on_c, 1, 65, 0
3, 7080, Note_on_c, 1, 65, 100
3, 7080, Note_on_c, 1, 57, 100
3, 7080, Note_on_c, 1, 60, 100
3, 7155, Note_on_c, 1, 60, 0
3, 7155, Note_on_c, 1, 57, 0
3, 7155, Note_on_c, 1, 65, 0
3, 7200, Note_on_c, 1, 55, 100
3, 7200, Note_on_c, 1, 59, 100
3, 7200, Note_on_c, 1, 62, 100
3, 7275, Note_on_c, 1, 62, 0
3, 7275, Note_on_c, 1, 59, 0
3, 7275, Note_on_c, 1, 55, 0
3, 7320, Note_on_c, 1, 62, 100
3, 7320, Note_on_c, 1, 59, 100
3, 7320, Note_on_c, 1, 55, 100
3, 7395, Note_on_c, 1, 55, 0
3, 7395, Note_on_c, 1, 59, 0
3, 7395, Note_on_c, 1, 62, 0
3, 7440, Note_on_c, 1, 65, 100
3, 7440, Note_on_c, 1, 57, 100
3, 7440, Note_on_c, 1, 60, 100
3, 7515, Note_on_c, 1, 60, 0
3, 7515, Note_on_c, 1, 57, 0
3, 7515, Note_on_c, 1, 65, 0
3, 7560, Note_on_c, 1, 65, 100
3, 7560, Note_on_c, 1, 57, 100
3, 7560, Note_on_c, 1, 60, 100
3, 7635, Note_on_c, 1, 60, 0
3, 7635, Note_on_c, 1, 57, 0
3, 7635, Note_on_c, 1, 65, 0
3, 7680, Note_on_c, 1, 55, 100
3, 7680, Note_on_c, 1, 59, 100
3, 7680, Note_on_c, 1, 62, 100
3, 7755, Note_on_c, 1, 62, 0
3, 7755, Note_on_c, 1, 59, 0
3, 7755, Note_on_c, 1, 55, 0
3, 7800, Note_on_c, 1, 62, 100
3, 7800, Note_on_c, 1, 59, 100
3, 7800, Note_on_c, 1, 55, 100
3, 7875, Note_on_c, 1, 55, 0
3, 7875, Note_on_c, 1, 59, 0
3, 7875, Note_on_c, 1, 62, 0
3, 7880, Note_on_c, 1, 65, 100
3, 7880, Note_on_c, 1, 57, 100
3, 7880, Note_on_c, 1, 60, 100
3, 8040, Note_on_c, 1, 60, 0
3, 8040, Note_on_c, 1, 57, 0
3, 8040, Note_on_c, 1, 65, 0
3, 8040, Note_on_c, 1, 67, 100
3, 8040, Note_on_c, 1, 59, 100
3, 8040, Note_on_c, 1, 62, 100
3, 8115, Note_on_c, 1, 62, 0
3, 8115, Note_on_c, 1, 59, 0
3, 8115, Note_on_c, 1, 67, 0
3, 8160, Note_on_c, 1, 57, 100
3, 8160, Note_on_c, 1, 60, 100
3, 8160, Note_on_c, 1, 65, 100
3, 8235, Note_on_c, 1, 65, 0
3, 8235, Note_on_c, 1, 60, 0
3, 8235, Note_on_c, 1, 57, 0
3, 8280, Note_on_c, 1, 57, 100
3, 8280, Note_on_c, 1, 60, 100
3, 8280, Note_on_c, 1, 65, 100
3, 8355, Note_on_c, 1, 65, 0
3, 8355, Note_on_c, 1, 60, 0
3, 8355, Note_on_c, 1, 57, 0
3, 8400, Note_on_c, 1, 57, 100
3, 8400, Note_on_c, 1, 60, 100
3, 8400, Note_on_c, 1, 65, 100
3, 8475, Note_on_c, 1, 65, 0
3, 8475, Note_on_c, 1, 60, 0
3, 8475, Note_on_c, 1, 57, 0
3, 8520, Note_on_c, 1, 57, 100
3, 8520, Note_on_c, 1, 60, 100
3, 8520, Note_on_c, 1, 65, 100
3, 8595, Note_on_c, 1, 65, 0
3, 8595, Note_on_c, 1, 60, 0
3, 8595, Note_on_c, 1, 57, 0
3, 8640, Note_on_c, 1, 57, 100
3, 8640, Note_on_c, 1, 65, 100
3, 8715, Note_on_c, 1, 65, 0
3, 8715, Note_on_c, 1, 57, 0
3, 8760, Note_on_c, 1, 57, 100
3, 8760, Note_on_c, 1, 65, 100
3, 8835, Note_on_c, 1, 65, 0
3, 8835, Note_on_c, 1, 57, 0
3, 8880, Note_on_c, 1, 57, 100
3, 8880, Note_on_c, 1, 65, 100
3, 8955, Note_on_c, 1, 65, 0
3, 8955, Note_on_c, 1, 57, 0
3, 8960, Note_on_c, 1, 57, 100
3, 8960, Note_on_c, 1, 60, 100
3, 8995, Note_on_c, 1, 60, 0
3, 8995, Note_on_c, 1, 57, 0
3, 9000, Note_on_c, 1, 57, 100
3, 9000, Note_on_c, 1, 60, 100
3, 9000, Note_on_c, 1, 65, 100
3, 9075, Note_on_c, 1, 65, 0
3, 9075, Note_on_c, 1, 60, 0
3, 9075, Note_on_c, 1, 57, 0
3, 9120, Note_on_c, 1, 55, 100
3, 9120, Note_on_c, 1, 59, 100
3, 9120, Note_on_c, 1, 62, 100
3, 9195, Note_on_c, 1, 62, 0
3, 9195, Note_on_c, 1, 59, 0
3, 9195, Note_on_c, 1, 55, 0
3, 9240, Note_on_c, 1, 55, 100
3, 9240, Note_on_c, 1, 59, 100
3, 9240, Note_on_c, 1, 62, 100
3, 9315, Note_on_c, 1, 62, 0
3, 9315, Note_on_c, 1, 59, 0
3, 9315, Note_on_c, 1, 55, 0
3, 9360, Note_on_c, 1, 55, 100
3, 9360, Note_on_c, 1, 59, 100
3, 9360, Note_on_c, 1, 62, 100
3, 9420, Note_on_c, 1, 62, 0
3, 9420, Note_on_c, 1, 59, 0
3, 9420, Note_on_c, 1, 55, 0
3, 9440, Note_on_c, 1, 55, 100
3, 9440, Note_on_c, 1, 59, 100
3, 9440, Note_on_c, 1, 62, 100
3, 9600, Note_on_c, 1, 62, 0
3, 9600, Note_on_c, 1, 59, 0
3, 9600, Note_on_c, 1, 55, 0
3, 9600, Note_on_c, 1, 62, 100
3, 9600, Note_on_c, 1, 59, 100
3, 9600, Note_on_c, 1, 67, 100
3, 9720, Note_on_c, 1, 67, 0
3, 9720, Note_on_c, 1, 59, 0
3, 9720, Note_on_c, 1, 62, 0
3, 9720, Note_on_c, 1, 59, 100
3, 9720, Note_on_c, 1, 62, 100
3, 9720, Note_on_c, 1, 67, 100
3, 9800, Note_on_c, 1, 67, 0
3, 9800, Note_on_c, 1, 62, 0
3, 9800, Note_on_c, 1, 59, 0
3, 9800, Note_on_c, 1, 64, 100
3, 9800, Note_on_c, 1, 61, 100
3, 9800, Note_on_c, 1, 69, 100
3, 9920, Note_on_c, 1, 69, 0
3, 9920, Note_on_c, 1, 61, 0
3, 9920, Note_on_c, 1, 64, 0
3, 9920, Note_on_c, 1, 62, 100
3, 9920, Note_on_c, 1, 59, 100
3, 9920, Note_on_c, 1, 67, 100
3, 9960, Note_on_c, 1, 67, 0
3, 9960, Note_on_c, 1, 59, 0
3, 9960, Note_on_c, 1, 62, 0
3, 9960, Note_on_c, 1, 64, 100
3, 9960, Note_on_c, 1, 61, 100
3, 9960, Note_on_c, 1, 69, 100
3, 10080, Note_on_c, 1, 69, 0
3, 10080, Note_on_c, 1, 61, 0
3, 10080, Note_on_c, 1, 64, 0
3, 10080, Note_on_c, 1, 57, 100
3, 10080, Note_on_c, 1, 60, 100
3, 10080, Note_on_c, 1, 65, 100
3, 10155, Note_on_c, 1, 65, 0
3, 10155, Note_on_c, 1, 60, 0
3, 10155, Note_on_c, 1, 57, 0
3, 10200, Note_on_c, 1, 57, 100
3, 10200, Note_on_c, 1, 60, 100
3, 10200, Note_on_c, 1, 65, 100
3, 10275, Note_on_c, 1, 65, 0
3, 10275, Note_on_c, 1, 60, 0
3, 10275, Note_on_c, 1, 57, 0
3, 10320, Note_on_c, 1, 57, 100
3, 10320, Note_on_c, 1, 60, 100
3, 10320, Note_on_c, 1, 65, 100
3, 10395, Note_on_c, 1, 65, 0
3, 10395, Note_on_c, 1, 60, 0
3, 10395, Note_on_c, 1, 57, 0
3, 10440, Note_on_c, 1, 57, 100
3, 10440, Note_on_c, 1, 60, 100
3, 10440, Note_on_c, 1, 65, 100
3, 10515, Note_on_c, 1, 65, 0
3, 10515, Note_on_c, 1, 60, 0
3, 10515, Note_on_c, 1, 57, 0
3, 10560, Note_on_c, 1, 57, 100
3, 10560, Note_on_c, 1, 65, 100
3, 10635, Note_on_c, 1, 65, 0
3, 10635, Note_on_c, 1, 57, 0
3, 10680, Note_on_c, 1, 57, 100
3, 10680, Note_on_c, 1, 65, 100
3, 10755, Note_on_c, 1, 65, 0
3, 10755, Note_on_c, 1, 57, 0
3, 10800, Note_on_c, 1, 57, 100
3, 10800, Note_on_c, 1, 65, 100
3, 10875, Note_on_c, 1, 65, 0
3, 10875, Note_on_c, 1, 57, 0
3, 10880, Note_on_c, 1, 57, 100
3, 10880, Note_on_c, 1, 60, 100
3, 10915, Note_on_c, 1, 60, 0
3, 10915, Note_on_c, 1, 57, 0
3, 10920, Note_on_c, 1, 57, 100
3, 10920, Note_on_c, 1, 60, 100
3, 10920, Note_on_c, 1, 65, 100
3, 10995, Note_on_c, 1, 65, 0
3, 10995, Note_on_c, 1, 60, 0
3, 10995, Note_on_c, 1, 57, 0
3, 11040, Note_on_c, 1, 55, 100
3, 11040, Note_on_c, 1, 59, 100
3, 11040, Note_on_c, 1, 62, 100
3, 11115, Note_on_c, 1, 62, 0
3, 11115, Note_on_c, 1, 59, 0
3, 11115, Note_on_c, 1, 55, 0
3, 11160, Note_on_c, 1, 55, 100
3, 11160, Note_on_c, 1, 59, 100
3, 11160, Note_on_c, 1, 62, 100
3, 11235, Note_on_c, 1, 62, 0
3, 11235, Note_on_c, 1, 59, 0
3, 11235, Note_on_c, 1, 55, 0
3, 11280, Note_on_c, 1, 55, 100
3, 11280, Note_on_c, 1, 59, 100
3, 11280, Note_on_c, 1, 62, 100
3, 11340, Note_on_c, 1, 62, 0
3, 11340, Note_on_c, 1, 59, 0
3, 11340, Note_on_c, 1, 55, 0
3, 11360, Note_on_c, 1, 55, 100
3, 11360, Note_on_c, 1, 59, 100
3, 11360, Note_on_c, 1, 62, 100
3, 11520, Note_on_c, 1, 62, 0
3, 11520, Note_on_c, 1, 59, 0
3, 11520, Note_on_c, 1, 55, 0
3, 11520, Note_on_c, 1, 61, 100
3, 11520, Note_on_c, 1, 57, 100
3, 11520, Note_on_c, 1, 64, 100
3, 11640, Note_on_c, 1, 64, 0
3, 11640, Note_on_c, 1, 57, 0
3, 11640, Note_on_c, 1, 61, 0
3, 11640, Note_on_c, 1, 57, 100
3, 11640, Note_on_c, 1, 61, 100
3, 11640, Note_on_c, 1, 64, 100
3, 11720, Note_on_c, 1, 64, 0
3, 11720, Note_on_c, 1, 61, 0
3, 11720, Note_on_c, 1, 57, 0
3, 11720, Note_on_c, 1, 64, 100
3, 11720, Note_on_c, 1, 61, 100
3, 11720, Note_on_c, 1, 69, 100
3, 11840, Note_on_c, 1, 69, 0
3, 11840, Note_on_c, 1, 61, 0
3, 11840, Note_on_c, 1, 64, 0
3, 11840, Note_on_c, 1, 64, 100
3, 11840, Note_on_c, 1, 57, 100
3, 11840, Note_on_c, 1, 61, 100
3, 11880, Note_on_c, 1, 61, 0
3, 11880, Note_on_c, 1, 57, 0
3, 11880, Note_on_c, 1, 64, 0
3, 11880, Note_on_c, 1, 64, 100
3, 11880, Note_on_c, 1, 61, 100
3, 11880, Note_on_c, 1, 69, 100
3, 12000, Note_on_c, 1, 69, 0
3, 12000, Note_on_c, 1, 61, 0
3, 12000, Note_on_c, 1, 64, 0
3, 12000, Note_on_c, 1, 57, 100
3, 12000, Note_on_c, 1, 60, 100
3, 12000, Note_on_c, 1, 53, 100
3, 12075, Note_on_c, 1, 53, 0
3, 12075, Note_on_c, 1, 60, 0
3, 12075, Note_on_c, 1, 57, 0
3, 12120, Note_on_c, 1, 57, 100
3, 12120, Note_on_c, 1, 60, 100
3, 12120, Note_on_c, 1, 53, 100
3, 12195, Note_on_c, 1, 53, 0
3, 12195, Note_on_c, 1, 60, 0
3, 12195, Note_on_c, 1, 57, 0
3, 12240, Note_on_c, 1, 59, 100
3, 12240, Note_on_c, 1, 62, 100
3, 12240, Note_on_c, 1, 55, 100
3, 12315, Note_on_c, 1, 55, 0
3, 12315, Note_on_c, 1, 62, 0
3, 12315, Note_on_c, 1, 59, 0
3, 12360, Note_on_c, 1, 59, 100
3, 12360, Note_on_c, 1, 62, 100
3, 12360, Note_on_c, 1, 55, 100
3, 12435, Note_on_c, 1, 55, 0
3, 12435, Note_on_c, 1, 62, 0
3, 12435, Note_on_c, 1, 59, 0
3, 12480, Note_on_c, 1, 57, 100
3, 12480, Note_on_c, 1, 60, 100
3, 12480, Note_on_c, 1, 65, 100
3, 12555, Note_on_c, 1, 65, 0
3, 12555, Note_on_c, 1, 60, 0
3, 12555, Note_on_c, 1, 57, 0
3, 12600, Note_on_c, 1, 57, 100
3, 12600, Note_on_c, 1, 60, 100
3, 12600, Note_on_c, 1, 65, 100
3, 12675, Note_on_c, 1, 65, 0
3, 12675, Note_on_c, 1, 60, 0
3, 12675, Note_on_c, 1, 57, 0
3, 12720, Note_on_c, 1, 59, 100
3, 12720, Note_on_c, 1, 62, 100
3, 12720, Note_on_c, 1, 67, 100
3, 12795, Note_on_c, 1, 67, 0
3, 12795, Note_on_c, 1, 62, 0
3, 12795, Note_on_c, 1, 59, 0
3, 12840, Note_on_c, 1, 59, 100
3, 12840, Note_on_c, 1, 62, 100
3, 12840, Note_on_c, 1, 67, 100
3, 12915, Note_on_c, 1, 67, 0
3, 12915, Note_on_c, 1, 62, 0
3, 12915, Note_on_c, 1, 59, 0
3, 12960, Note_on_c, 1, 69, 100
3, 12960, Note_on_c, 1, 41, 100
3, 12960, Note_on_c, 1, 76, 100
3, 13050, Note_on_c, 1, 76, 0
3, 13050, Note_on_c, 1, 69, 0
3, 13080, Note_on_c, 1, 69, 100
3, 13080, Note_on_c, 1, 76, 100
3, 13160, Note_on_c, 1, 76, 0
3, 13160, Note_on_c, 1, 69, 0
3, 13160, Note_on_c, 1, 65, 100
3, 13160, Note_on_c, 1, 72, 100
3, 13200, Note_on_c, 1, 72, 0
3, 13200, Note_on_c, 1, 65, 0
3, 13200, Note_on_c, 1, 41, 0
3, 13200, Note_on_c, 1, 67, 100
3, 13200, Note_on_c, 1, 40, 100
3, 13200, Note_on_c, 1, 74, 100
3, 13270, Note_on_c, 1, 74, 0
3, 13270, Note_on_c, 1, 67, 0
3, 13280, Note_on_c, 1, 64, 100
3, 13280, Note_on_c, 1, 71, 100
3, 13320, Note_on_c, 1, 71, 0
3, 13320, Note_on_c, 1, 64, 0
3, 13320, Note_on_c, 1, 67, 100
3, 13320, Note_on_c, 1, 74, 100
3, 13400, Note_on_c, 1, 74, 0
3, 13400, Note_on_c, 1, 67, 0
3, 13400, Note_on_c, 1, 38, 100
3, 13400, Note_on_c, 1, 65, 100
3, 13400, Note_on_c, 1, 72, 100
3, 13440, Note_on_c, 1, 40, 0
3, 13560, Note_on_c, 1, 72, 0
3, 13560, Note_on_c, 1, 65, 0
3, 13560, Note_on_c, 1, 69, 100
3, 13560, Note_on_c, 1, 72, 100
3, 13560, Note_on_c, 1, 65, 100
3, 13680, Note_on_c, 1, 65, 0
3, 13680, Note_on_c, 1, 38, 0
3, 13680, Note_on_c, 1, 69, 0
3, 13680, Note_on_c, 1, 72, 0
3, 13680, Note_on_c, 1, 69, 100
3, 13680, Note_on_c, 1, 72, 100
3, 13680, Note_on_c, 1, 65, 100
3, 13800, Note_on_c, 1, 65, 0
3, 13800, Note_on_c, 1, 72, 0
3, 13800, Note_on_c, 1, 69, 0
3, 13800, Note_on_c, 1, 69, 100
3, 13800, Note_on_c, 1, 72, 100
3, 13800, Note_on_c, 1, 65, 100
3, 13920, Note_on_c, 1, 65, 0
3, 13920, Note_on_c, 1, 72, 0
3, 13920, Note_on_c, 1, 69, 0
3, 13920, Note_on_c, 1, 55, 100
3, 13920, Note_on_c, 1, 64, 100
3, 13920, Note_on_c, 1, 60, 100
3, 14010, Note_on_c, 1, 60, 0
3, 14010, Note_on_c, 1, 64, 0
3, 14010, Note_on_c, 1, 55, 0
3, 14040, Note_on_c, 1, 55, 100
3, 14040, Note_on_c, 1, 64, 100
3, 14040, Note_on_c, 1, 60, 100
3, 14130, Note_on_c, 1, 60, 0
3, 14130, Note_on_c, 1, 64, 0
3, 14130, Note_on_c, 1, 55, 0
3, 14160, Note_on_c, 1, 57, 100
3, 14160, Note_on_c, 1, 64, 100
3, 14160, Note_on_c, 1, 60, 100
3, 14240, Note_on_c, 1, 57, 100
3, 14250, Note_on_c, 1, 57, 0
3, 14250, Note_on_c, 1, 60, 0
3, 14250, Note_on_c, 1, 64, 0
3, 14280, Note_on_c, 1, 57, 100
3, 14280, Note_on_c, 1, 64, 100
3, 14280, Note_on_c, 1, 60, 100
3, 14330, Note_on_c, 1, 57, 0
3, 14350, Note_on_c, 1, 57, 0
3, 14350, Note_on_c, 1, 64, 0
3, 14350, Note_on_c, 1, 60, 0
3, 14360, Note_on_c, 1, 57, 100
3, 14360, Note_on_c, 1, 65, 100
3, 14360, Note_on_c, 1, 60, 100
3, 14480, Note_on_c, 1, 60, 0
3, 14480, Note_on_c, 1, 65, 0
3, 14480, Note_on_c, 1, 57, 0
3, 14480, Note_on_c, 1, 64, 100
3, 14480, Note_on_c, 1, 57, 100
3, 14515, Note_on_c, 1, 57, 0
3, 14515, Note_on_c, 1, 64, 0
3, 14520, Note_on_c, 1, 65, 100
3, 14520, Note_on_c, 1, 60, 100
3, 14520, Note_on_c, 1, 57, 100
3, 14595, Note_on_c, 1, 57, 0
3, 14595, Note_on_c, 1, 60, 0
3, 14595, Note_on_c, 1, 65, 0
3, 14640, Note_on_c, 1, 65, 100
3, 14640, Note_on_c, 1, 60, 100
3, 14640, Note_on_c, 1, 57, 100
3, 14715, Note_on_c, 1, 57, 0
3, 14715, Note_on_c, 1, 60, 0
3, 14715, Note_on_c, 1, 65, 0
3, 14760, Note_on_c, 1, 65, 100
3, 14760, Note_on_c, 1, 60, 100
3, 14760, Note_on_c, 1, 57, 100
3, 14835, Note_on_c, 1, 57, 0
3, 14835, Note_on_c, 1, 60, 0
3, 14835, Note_on_c, 1, 65, 0
3, 14880, Note_on_c, 1, 60, 100
3, 14880, Note_on_c, 1, 55, 100
3, 14880, Note_on_c, 1, 64, 100
3, 14955, Note_on_c, 1, 64, 0
3, 14955, Note_on_c, 1, 55, 0
3, 14955, Note_on_c, 1, 60, 0
3, 15000, Note_on_c, 1, 60, 100
3, 15000, Note_on_c, 1, 55, 100
3, 15000, Note_on_c, 1, 64, 100
3, 15075, Note_on_c, 1, 64, 0
3, 15075, Note_on_c, 1, 55, 0
3, 15075, Note_on_c, 1, 60, 0
3, 15120, Note_on_c, 1, 62, 100
3, 15120, Note_on_c, 1, 59, 100
3, 15120, Note_on_c, 1, 56, 100
3, 15195, Note_on_c, 1, 56, 0
3, 15195, Note_on_c, 1, 59, 0
3, 15195, Note_on_c, 1, 62, 0
3, 15200, Note_on_c, 1, 52, 100
3, 15240, Note_on_c, 1, 59, 100
3, 15240, Note_on_c, 1, 56, 100
3, 15240, Note_on_c, 1, 62, 100
3, 15290, Note_on_c, 1, 52, 0
3, 15315, Note_on_c, 1, 59, 0
3, 15315, Note_on_c, 1, 56, 0
3, 15315, Note_on_c, 1, 62, 0
3, 15360, Note_on_c, 1, 64, 100
3, 15360, Note_on_c, 1, 57, 100
3, 15360, Note_on_c, 1, 60, 100
3, 15435, Note_on_c, 1, 60, 0
3, 15435, Note_on_c, 1, 57, 0
3, 15435, Note_on_c, 1, 64, 0
3, 15480, Note_on_c, 1, 64, 100
3, 15480, Note_on_c, 1, 57, 100
3, 15480, Note_on_c, 1, 60, 100
3, 15555, Note_on_c, 1, 60, 0
3, 15555, Note_on_c, 1, 57, 0
3, 15555, Note_on_c, 1, 64, 0
3, 15600, Note_on_c, 1, 64, 100
3, 15600, Note_on_c, 1, 57, 100
3, 15600, Note_on_c, 1, 60, 100
3, 15675, Note_on_c, 1, 60, 0
3, 15675, Note_on_c, 1, 57, 0
3, 15675, Note_on_c, 1, 64, 0
3, 15720, Note_on_c, 1, 57, 100
3, 15720, Note_on_c, 1, 64, 100
3, 15720, Note_on_c, 1, 60, 100
3, 15795, Note_on_c, 1, 60, 0
3, 15795, Note_on_c, 1, 64, 0
3, 15795, Note_on_c, 1, 57, 0
3, 15840, Note_on_c, 1, 59, 100
3, 15840, Note_on_c, 1, 55, 100
3, 15840, Note_on_c, 1, 62, 100
3, 15915, Note_on_c, 1, 62, 0
3, 15915, Note_on_c, 1, 55, 0
3, 15915, Note_on_c, 1, 59, 0
3, 15960, Note_on_c, 1, 59, 100
3, 15960, Note_on_c, 1, 55, 100
3, 15960, Note_on_c, 1, 62, 100
3, 16035, Note_on_c, 1, 62, 0
3, 16035, Note_on_c, 1, 55, 0
3, 16035, Note_on_c, 1, 59, 0
3, 16160, Note_on_c, 1, 55, 100
3, 16160, Note_on_c, 1, 59, 100
3, 16160, Note_on_c, 1, 62, 100
3, 16235, Note_on_c, 1, 62, 0
3, 16235, Note_on_c, 1, 59, 0
3, 16235, Note_on_c, 1, 55, 0
3, 16280, Note_on_c, 1, 65, 100
3, 16280, Note_on_c, 1, 62, 100
3, 16280, Note_on_c, 1, 58, 100
3, 16400, Note_on_c, 1, 58, 0
3, 16400, Note_on_c, 1, 62, 0
3, 16400, Note_on_c, 1, 65, 0
3, 16440, Note_on_c, 1, 60, 100
3, 16440, Note_on_c, 1, 64, 100
3, 16440, Note_on_c, 1, 67, 100
3, 16560, Note_on_c, 1, 67, 0
3, 16560, Note_on_c, 1, 64, 0
3, 16560, Note_on_c, 1, 60, 0
3, 16560, Note_on_c, 1, 62, 100
3, 16560, Note_on_c, 1, 65, 100
3, 16560, Note_on_c, 1, 69, 100
3, 16680, Note_on_c, 1, 69, 0
3, 16680, Note_on_c, 1, 65, 0
3, 16680, Note_on_c, 1, 62, 0
3, 16680, Note_on_c, 1, 64, 100
3, 16680, Note_on_c, 1, 67, 100
3, 16800, Note_on_c, 1, 67, 0
3, 16800, Note_on_c, 1, 64, 0
3, 16800, Note_on_c, 1, 60, 100
3, 16800, Note_on_c, 1, 57, 100
3, 16800, Note_on_c, 1, 64, 100
3, 16875, Note_on_c, 1, 64, 0
3, 16875, Note_on_c, 1, 57, 0
3, 16875, Note_on_c, 1, 60, 0
3, 16920, Note_on_c, 1, 60, 100
3, 16920, Note_on_c, 1, 57, 100
3, 16920, Note_on_c, 1, 64, 100
3, 16995, Note_on_c, 1, 64, 0
3, 16995, Note_on_c, 1, 57, 0
3, 16995, Note_on_c, 1, 60, 0
3, 17040, Note_on_c, 1, 65, 100
3, 17040, Note_on_c, 1, 58, 100
3, 17040, Note_on_c, 1, 62, 100
3, 17115, Note_on_c, 1, 62, 0
3, 17115, Note_on_c, 1, 58, 0
3, 17115, Note_on_c, 1, 65, 0
3, 17160, Note_on_c, 1, 65, 100
3, 17160, Note_on_c, 1, 58, 100
3, 17160, Note_on_c, 1, 62, 100
3, 17235, Note_on_c, 1, 62, 0
3, 17235, Note_on_c, 1, 58, 0
3, 17235, Note_on_c, 1, 65, 0
3, 17280, Note_on_c, 1, 60, 100
3, 17280, Note_on_c, 1, 57, 100
3, 17280, Note_on_c, 1, 64, 100
3, 17355, Note_on_c, 1, 64, 0
3, 17355, Note_on_c, 1, 57, 0
3, 17355, Note_on_c, 1, 60, 0
3, 17400, Note_on_c, 1, 60, 100
3, 17400, Note_on_c, 1, 57, 100
3, 17400, Note_on_c, 1, 64, 100
3, 17475, Note_on_c, 1, 64, 0
3, 17475, Note_on_c, 1, 57, 0
3, 17475, Note_on_c, 1, 60, 0
3, 17520, Note_on_c, 1, 65, 100
3, 17520, Note_on_c, 1, 57, 100
3, 17520, Note_on_c, 1, 60, 100
3, 17595, Note_on_c, 1, 60, 0
3, 17595, Note_on_c, 1, 57, 0
3, 17595, Note_on_c, 1, 65, 0
3, 17640, Note_on_c, 1, 65, 100
3, 17640, Note_on_c, 1, 57, 100
3, 17640, Note_on_c, 1, 60, 100
3, 17715, Note_on_c, 1, 60, 0
3, 17715, Note_on_c, 1, 57, 0
3, 17715, Note_on_c, 1, 65, 0
3, 17760, Note_on_c, 1, 55, 100
3, 17760, Note_on_c, 1, 59, 100
3, 17760, Note_on_c, 1, 62, 100
3, 17835, Note_on_c, 1, 62, 0
3, 17835, Note_on_c, 1, 59, 0
3, 17835, Note_on_c, 1, 55, 0
3, 17880, Note_on_c, 1, 62, 100
3, 17880, Note_on_c, 1, 59, 100
3, 17880, Note_on_c, 1, 55, 100
3, 17955, Note_on_c, 1, 55, 0
3, 17955, Note_on_c, 1, 59, 0
3, 17955, Note_on_c, 1, 62, 0
3, 18000, Note_on_c, 1, 65, 100
3, 18000, Note_on_c, 1, 57, 100
3, 18000, Note_on_c, 1, 60, 100
3, 18075, Note_on_c, 1, 60, 0
3, 18075, Note_on_c, 1, 57, 0
3, 18075, Note_on_c, 1, 65, 0
3, 18120, Note_on_c, 1, 65, 100
3, 18120, Note_on_c, 1, 57, 100
3, 18120, Note_on_c, 1, 60, 100
3, 18195, Note_on_c, 1, 60, 0
3, 18195, Note_on_c, 1, 57, 0
3, 18195, Note_on_c, 1, 65, 0
3, 18240, Note_on_c, 1, 55, 100
3, 18240, Note_on_c, 1, 59, 100
3, 18240, Note_on_c, 1, 62, 100
3, 18315, Note_on_c, 1, 62, 0
3, 18315, Note_on_c, 1, 59, 0
3, 18315, Note_on_c, 1, 55, 0
3, 18360, Note_on_c, 1, 62, 100
3, 18360, Note_on_c, 1, 59, 100
3, 18360, Note_on_c, 1, 55, 100
3, 18435, Note_on_c, 1, 55, 0
3, 18435, Note_on_c, 1, 59, 0
3, 18435, Note_on_c, 1, 62, 0
3, 18440, Note_on_c, 1, 65, 100
3, 18440, Note_on_c, 1, 57, 100
3, 18440, Note_on_c, 1, 60, 100
3, 18600, Note_on_c, 1, 60, 0
3, 18600, Note_on_c, 1, 57, 0
3, 18600, Note_on_c, 1, 65, 0
3, 18600, Note_on_c, 1, 67, 100
3, 18600, Note_on_c, 1, 59, 100
3, 18600, Note_on_c, 1, 62, 100
3, 18675, Note_on_c, 1, 62, 0
3, 18675, Note_on_c, 1, 59, 0
3, 18675, Note_on_c, 1, 67, 0
3, 18720, Note_on_c, 1, 57, 100
3, 18720, Note_on_c, 1, 60, 100
3, 18720, Note_on_c, 1, 65, 100
3, 18795, Note_on_c, 1, 65, 0
3, 18795, Note_on_c, 1, 60, 0
3, 18795, Note_on_c, 1, 57, 0
3, 18840, Note_on_c, 1, 57, 100
3, 18840, Note_on_c, 1, 60, 100
3, 18840, Note_on_c, 1, 65, 100
3, 18915, Note_on_c, 1, 65, 0
3, 18915, Note_on_c, 1, 60, 0
3, 18915, Note_on_c, 1, 57, 0
3, 18960, Note_on_c, 1, 57, 100
3, 18960, Note_on_c, 1, 60, 100
3, 18960, Note_on_c, 1, 65, 100
3, 19035, Note_on_c, 1, 65, 0
3, 19035, Note_on_c, 1, 60, 0
3, 19035, Note_on_c, 1, 57, 0
3, 19080, Note_on_c, 1, 57, 100
3, 19080, Note_on_c, 1, 60, 100
3, 19080, Note_on_c, 1, 65, 100
3, 19155, Note_on_c, 1, 65, 0
3, 19155, Note_on_c, 1, 60, 0
3, 19155, Note_on_c, 1, 57, 0
3, 19200, Note_on_c, 1, 57, 100
3, 19200, Note_on_c, 1, 65, 100
3, 19275, Note_on_c, 1, 65, 0
3, 19275, Note_on_c, 1, 57, 0
3, 19320, Note_on_c, 1, 57, 100
3, 19320, Note_on_c, 1, 65, 100
3, 19395, Note_on_c, 1, 65, 0
3, 19395, Note_on_c, 1, 57, 0
3, 19440, Note_on_c, 1, 57, 100
3, 19440, Note_on_c, 1, 65, 100
3, 19515, Note_on_c, 1, 65, 0
3, 19515, Note_on_c, 1, 57, 0
3, 19520, Note_on_c, 1, 57, 100
3, 19520, Note_on_c, 1, 60, 100
3, 19555, Note_on_c, 1, 60, 0
3, 19555, Note_on_c, 1, 57, 0
3, 19560, Note_on_c, 1, 57, 100
3, 19560, Note_on_c, 1, 60, 100
3, 19560, Note_on_c, 1, 65, 100
3, 19635, Note_on_c, 1, 65, 0
3, 19635, Note_on_c, 1, 60, 0
3, 19635, Note_on_c, 1, 57, 0
3, 19680, Note_on_c, 1, 55, 100
3, 19680, Note_on_c, 1, 59, 100
3, 19680, Note_on_c, 1, 62, 100
3, 19755, Note_on_c, 1, 62, 0
3, 19755, Note_on_c, 1, 59, 0
3, 19755, Note_on_c, 1, 55, 0
3, 19800, Note_on_c, 1, 55, 100
3, 19800, Note_on_c, 1, 59, 100
3, 19800, Note_on_c, 1, 62, 100
3, 19875, Note_on_c, 1, 62, 0
3, 19875, Note_on_c, 1, 59, 0
3, 19875, Note_on_c, 1, 55, 0
3, 19920, Note_on_c, 1, 55, 100
3, 19920, Note_on_c, 1, 59, 100
3, 19920, Note_on_c, 1, 62, 100
3, 19980, Note_on_c, 1, 62, 0
3, 19980, Note_on_c, 1, 59, 0
3, 19980, Note_on_c, 1, 55, 0
3, 20000, Note_on_c, 1, 55, 100
3, 20000, Note_on_c, 1, 59, 100
3, 20000, Note_on_c, 1, 62, 100
3, 20160, Note_on_c, 1, 62, 0
3, 20160, Note_on_c, 1, 59, 0
3, 20160, Note_on_c, 1, 55, 0
3, 20160, Note_on_c, 1, 62, 100
3, 20160, Note_on_c, 1, 59, 100
3, 20160, Note_on_c, 1, 67, 100
3, 20280, Note_on_c, 1, 67, 0
3, 20280, Note_on_c, 1, 59, 0
3, 20280, Note_on_c, 1, 62, 0
3, 20280, Note_on_c, 1, 59, 100
3, 20280, Note_on_c, 1, 62, 100
3, 20280, Note_on_c, 1, 67, 100
3, 20360, Note_on_c, 1, 67, 0
3, 20360, Note_on_c, 1, 62, 0
3, 20360, Note_on_c, 1, 59, 0
3, 20360, Note_on_c, 1, 64, 100
3, 20360, Note_on_c, 1, 61, 100
3, 20360, Note_on_c, 1, 69, 100
3, 20480, Note_on_c, 1, 69, 0
3, 20480, Note_on_c, 1, 61, 0
3, 20480, Note_on_c, 1, 64, 0
3, 20480, Note_on_c, 1, 62, 100
3, 20480, Note_on_c, 1, 59, 100
3, 20480, Note_on_c, 1, 67, 100
3, 20520, Note_on_c, 1, 67, 0
3, 20520, Note_on_c, 1, 59, 0
3, 20520, Note_on_c, 1, 62, 0
3, 20520, Note_on_c, 1, 64, 100
3, 20520, Note_on_c, 1, 61, 100
3, 20520, Note_on_c, 1, 69, 100
3, 20640, Note_on_c, 1, 69, 0
3, 20640, Note_on_c, 1, 61, 0
3, 20640, Note_on_c, 1, 64, 0
3, 20640, Note_on_c, 1, 57, 100
3, 20640, Note_on_c, 1, 60, 100
3, 20640, Note_on_c, 1, 65, 100
3, 20715, Note_on_c, 1, 65, 0
3, 20715, Note_on_c, 1, 60, 0
3, 20715, Note_on_c, 1, 57, 0
3, 20760, Note_on_c, 1, 57, 100
3, 20760, Note_on_c, 1, 60, 100
3, 20760, Note_on_c, 1, 65, 100
3, 20835, Note_on_c, 1, 65, 0
3, 20835, Note_on_c, 1, 60, 0
3, 20835, Note_on_c, 1, 57, 0
3, 20880, Note_on_c, 1, 57, 100
3, 20880, Note_on_c, 1, 60, 100
3, 20880, Note_on_c, 1, 65, 100
3, 20955, Note_on_c, 1, 65, 0
3, 20955, Note_on_c, 1, 60, 0
3, 20955, Note_on_c, 1, 57, 0
3, 21000, Note_on_c, 1, 57, 100
3, 21000, Note_on_c, 1, 60, 100
3, 21000, Note_on_c, 1, 65, 100
3, 21075, Note_on_c, 1, 65, 0
3, 21075, Note_on_c, 1, 60, 0
3, 21075, Note_on_c, 1, 57, 0
3, 21120, Note_on_c, 1, 57, 100
3, 21120, Note_on_c, 1, 65, 100
3, 21195, Note_on_c, 1, 65, 0
3, 21195, Note_on_c, 1, 57, 0
3, 21240, Note_on_c, 1, 57, 100
3, 21240, Note_on_c, 1, 65, 100
3, 21315, Note_on_c, 1, 65, 0
3, 21315, Note_on_c, 1, 57, 0
3, 21360, Note_on_c, 1, 57, 100
3, 21360, Note_on_c, 1, 65, 100
3, 21435, Note_on_c, 1, 65, 0
3, 21435, Note_on_c, 1, 57, 0
3, 21440, Note_on_c, 1, 57, 100
3, 21440, Note_on_c, 1, 60, 100
3, 21475, Note_on_c, 1, 60, 0
3, 21475, Note_on_c, 1, 57, 0
3, 21480, Note_on_c, 1, 57, 100
3, 21480, Note_on_c, 1, 60, 100
3, 21480, Note_on_c, 1, 65, 100
3, 21555, Note_on_c, 1, 65, 0
3, 21555, Note_on_c, 1, 60, 0
3, 21555, Note_on_c, 1, 57, 0
3, 21600, Note_on_c, 1, 55, 100
3, 21600, Note_on_c, 1, 59, 100
3, 21600, Note_on_c, 1, 62, 100
3, 21675, Note_on_c, 1, 62, 0
3, 21675, Note_on_c, 1, 59, 0
3, 21675, Note_on_c, 1, 55, 0
3, 21720, Note_on_c, 1, 55, 100
3, 21720, Note_on_c, 1, 59, 100
3, 21720, Note_on_c, 1, 62, 100
3, 21795, Note_on_c, 1, 62, 0
3, 21795, Note_on_c, 1, 59, 0
3, 21795, Note_on_c, 1, 55, 0
3, 21840, Note_on_c, 1, 55, 100
3, 21840, Note_on_c, 1, 59, 100
3, 21840, Note_on_c, 1, 62, 100
3, 21900, Note_on_c, 1, 62, 0
3, 21900, Note_on_c, 1, 59, 0
3, 21900, Note_on_c, 1, 55, 0
3, 21920, Note_on_c, 1, 55, 100
3, 21920, Note_on_c, 1, 59, 100
3, 21920, Note_on_c, 1, 62, 100
3, 22080, Note_on_c, 1, 62, 0
3, 22080, Note_on_c, 1, 59, 0
3, 22080, Note_on_c, 1, 55, 0
3, 22080, Note_on_c, 1, 61, 100
3, 22080, Note_on_c, 1, 57, 100
3, 22080, Note_on_c, 1, 64, 100
3, 22200, Note_on_c, 1, 64, 0
3, 22200, Note_on_c, 1, 57, 0
3, 22200, Note_on_c, 1, 61, 0
3, 22200, Note_on_c, 1, 57, 100
3, 22200, Note_on_c, 1, 61, 100
3, 22200, Note_on_c, 1, 64, 100
3, 22280, Note_on_c, 1, 64, 0
3, 22280, Note_on_c, 1, 61, 0
3, 22280, Note_on_c, 1, 57, 0
3, 22280, Note_on_c, 1, 64, 100
3, 22280, Note_on_c, 1, 61, 100
3, 22280, Note_on_c, 1, 69, 100
3, 22400, Note_on_c, 1, 69, 0
3, 22400, Note_on_c, 1, 61, 0
3, 22400, Note_on_c, 1, 64, 0
3, 22400, Note_on_c, 1, 64, 100
3, 22400, Note_on_c, 1, 57, 100
3, 22400, Note_on_c, 1, 61, 100
3, 22440, Note_on_c, 1, 61, 0
3, 22440, Note_on_c, 1, 57, 0
3, 22440, Note_on_c, 1, 64, 0
3, 22440, Note_on_c, 1, 64, 100
3, 22440, Note_on_c, 1, 61, 100
3, 22440, Note_on_c, 1, 69, 100
3, 22560, Note_on_c, 1, 69, 0
3, 22560, Note_on_c, 1, 61, 0
3, 22560, Note_on_c, 1, 64, 0
3, 22560, Note_on_c, 1, 57, 100
3, 22560, Note_on_c, 1, 60, 100
3, 22560, Note_on_c, 1, 53, 100
3, 22635, Note_on_c, 1, 53, 0
3, 22635, Note_on_c, 1, 60, 0
3, 22635, Note_on_c, 1, 57, 0
3, 22680, Note_on_c, 1, 57, 100
3, 22680, Note_on_c, 1, 60, 100
3, 22680, Note_on_c, 1, 53, 100
3, 22755, Note_on_c, 1, 53, 0
3, 22755, Note_on_c, 1, 60, 0
3, 22755, Note_on_c, 1, 57, 0
3, 22800, Note_on_c, 1, 59, 100
3, 22800, Note_on_c, 1, 62, 100
3, 22800, Note_on_c, 1, 55, 100
3, 22875, Note_on_c, 1, 55, 0
3, 22875, Note_on_c, 1, 62, 0
3, 22875, Note_on_c, 1, 59, 0
3, 22920, Note_on_c, 1, 59, 100
3, 22920, Note_on_c, 1, 62, 100
3, 22920, Note_on_c, 1, 55, 100
3, 22995, Note_on_c, 1, 55, 0
3, 22995, Note_on_c, 1, 62, 0
3, 22995, Note_on_c, 1, 59, 0
3, 23040, Note_on_c, 1, 57, 100
3, 23040, Note_on_c, 1, 60, 100
3, 23040, Note_on_c, 1, 65, 100
3, 23115, Note_on_c, 1, 65, 0
3, 23115, Note_on_c, 1, 60, 0
3, 23115, Note_on_c, 1, 57, 0
3, 23160, Note_on_c, 1, 57, 100
3, 23160, Note_on_c, 1, 60, 100
3, 23160, Note_on_c, 1, 65, 100
3, 23235, Note_on_c, 1, 65, 0
3, 23235, Note_on_c, 1, 60, 0
3, 23235, Note_on_c, 1, 57, 0
3, 23280, Note_on_c, 1, 59, 100
3, 23280, Note_on_c, 1, 62, 100
3, 23280, Note_on_c, 1, 67, 100
3, 23355, Note_on_c, 1, 67, 0
3, 23355, Note_on_c, 1, 62, 0
3, 23355, Note_on_c, 1, 59, 0
3, 23400, Note_on_c, 1, 59, 100
3, 23400, Note_on_c, 1, 62, 100
3, 23400, Note_on_c, 1, 67, 100
3, 23475, Note_on_c, 1, 67, 0
3, 23475, Note_on_c, 1, 62, 0
3, 23475, Note_on_c, 1, 59, 0
3, 23520, Note_on_c, 1, 69, 100
3, 23520, Note_on_c, 1, 41, 100
3, 23520, Note_on_c, 1, 76, 100
3, 23610, Note_on_c, 1, 76, 0
3, 23610, Note_on_c, 1, 69, 0
3, 23640, Note_on_c, 1, 69, 100
3, 23640, Note_on_c, 1, 76, 100
3, 23720, Note_on_c, 1, 76, 0
3, 23720, Note_on_c, 1, 69, 0
3, 23720, Note_on_c, 1, 65, 100
3, 23720, Note_on_c, 1, 72, 100
3, 23760, Note_on_c, 1, 72, 0
3, 23760, Note_on_c, 1, 65, 0
3, 23760, Note_on_c, 1, 41, 0
3, 23760, Note_on_c, 1, 67, 100
3, 23760, Note_on_c, 1, 40, 100
3, 23760, Note_on_c, 1, 74, 100
3, 23830, Note_on_c, 1, 74, 0
3, 23830, Note_on_c, 1, 67, 0
3, 23840, Note_on_c, 1, 64, 100
3, 23840, Note_on_c, 1, 71, 100
3, 23880, Note_on_c, 1, 71, 0
3, 23880, Note_on_c, 1, 64, 0
3, 23880, Note_on_c, 1, 67, 100
3, 23880, Note_on_c, 1, 74, 100
3, 23960, Note_on_c, 1, 74, 0
3, 23960, Note_on_c, 1, 67, 0
3, 23960, Note_on_c, 1, 38, 100
3, 23960, Note_on_c, 1, 65, 100
3, 23960, Note_on_c, 1, 72, 100
3, 24000, Note_on_c, 1, 40, 0
3, 24120, Note_on_c, 1, 72, 0
3, 24120, Note_on_c, 1, 65, 0
3, 24120, Note_on_c, 1, 69, 100
3, 24120, Note_on_c, 1, 72, 100
3, 24120, Note_on_c, 1, 65, 100
3, 24240, Note_on_c, 1, 65, 0
3, 24240, Note_on_c, 1, 38, 0
3, 24240, Note_on_c, 1, 69, 0
3, 24240, Note_on_c, 1, 72, 0
3, 24240, Note_on_c, 1, 69, 100
3, 24240, Note_on_c, 1, 72, 100
3, 24240, Note_on_c, 1, 65, 100
3, 24360, Note_on_c, 1, 65, 0
3, 24360, Note_on_c, 1, 72, 0
3, 24360, Note_on_c, 1, 69, 0
3, 24360, Note_on_c, 1, 69, 100
3, 24360, Note_on_c, 1, 72, 100
3, 24360, Note_on_c, 1, 65, 100
3, 24480, Note_on_c, 1, 65, 0
3, 24480, Note_on_c, 1, 72, 0
3, 24480, Note_on_c, 1, 69, 0
3, 24480, Note_on_c, 1, 55, 100
3, 24480, Note_on_c, 1, 64, 100
3, 24480, Note_on_c, 1, 60, 100
3, 24570, Note_on_c, 1, 60, 0
3, 24570, Note_on_c, 1, 64, 0
3, 24570, Note_on_c, 1, 55, 0
3, 24600, Note_on_c, 1, 55, 100
3, 24600, Note_on_c, 1, 64, 100
3, 24600, Note_on_c, 1, 60, 100
3, 24690, Note_on_c, 1, 60, 0
3, 24690, Note_on_c, 1, 64, 0
3, 24690, Note_on_c, 1, 55, 0
3, 24720, Note_on_c, 1, 57, 100
3, 24720, Note_on_c, 1, 64, 100
3, 24720, Note_on_c, 1, 60, 100
3, 24800, Note_on_c, 1, 57, 100
3, 24810, Note_on_c, 1, 57, 0
3, 24810, Note_on_c, 1, 60, 0
3, 24810, Note_on_c, 1, 64, 0
3, 24840, Note_on_c, 1, 57, 100
3, 24840, Note_on_c, 1, 64, 100
3, 24840, Note_on_c, 1, 60, 100
3, 24890, Note_on_c, 1, 57, 0
3, 24910, Note_on_c, 1, 57, 0
3, 24910, Note_on_c, 1, 64, 0
3, 24910, Note_on_c, 1, 60, 0
3, 24920, Note_on_c, 1, 57, 100
3, 24920, Note_on_c, 1, 65, 100
3, 24920, Note_on_c, 1, 60, 100
3, 25040, Note_on_c, 1, 60, 0
3, 25040, Note_on_c, 1, 65, 0
3, 25040, Note_on_c, 1, 57, 0
3, 25040, Note_on_c, 1, 64, 100
3, 25040, Note_on_c, 1, 57, 100
3, 25075, Note_on_c, 1, 57, 0
3, 25075, Note_on_c, 1, 64, 0
3, 25080, Note_on_c, 1, 65, 100
3, 25080, Note_on_c, 1, 60, 100
3, 25080, Note_on_c, 1, 57, 100
3, 25155, Note_on_c, 1, 57, 0
3, 25155, Note_on_c, 1, 60, 0
3, 25155, Note_on_c, 1, 65, 0
3, 25200, Note_on_c, 1, 65, 100
3, 25200, Note_on_c, 1, 60, 100
3, 25200, Note_on_c, 1, 57, 100
3, 25275, Note_on_c, 1, 57, 0
3, 25275, Note_on_c, 1, 60, 0
3, 25275, Note_on_c, 1, 65, 0
3, 25320, Note_on_c, 1, 65, 100
3, 25320, Note_on_c, 1, 60, 100
3, 25320, Note_on_c, 1, 57, 100
3, 25395, Note_on_c, 1, 57, 0
3, 25395, Note_on_c, 1, 60, 0
3, 25395, Note_on_c, 1, 65, 0
3, 25440, Note_on_c, 1, 60, 100
3, 25440, Note_on_c, 1, 55, 100
3, 25440, Note_on_c, 1, 64, 100
3, 25515, Note_on_c, 1, 64, 0
3, 25515, Note_on_c, 1, 55, 0
3, 25515, Note_on_c, 1, 60, 0
3, 25560, Note_on_c, 1, 60, 100
3, 25560, Note_on_c, 1, 55, 100
3, 25560, Note_on_c, 1, 64, 100
3, 25635, Note_on_c, 1, 64, 0
3, 25635, Note_on_c, 1, 55, 0
3, 25635, Note_on_c, 1, 60, 0
3, 25680, Note_on_c, 1, 62, 100
3, 25680, Note_on_c, 1, 59, 100
3, 25680, Note_on_c, 1, 56, 100
3, 25755, Note_on_c, 1, 56, 0
3, 25755, Note_on_c, 1, 59, 0
3, 25755, Note_on_c, 1, 62, 0
3, 25760, Note_on_c, 1, 52, 100
3, 25800, Note_on_c, 1, 59, 100
3, 25800, Note_on_c, 1, 56, 100
3, 25800, Note_on_c, 1, 62, 100
3, 25850, Note_on_c, 1, 52, 0
3, 25875, Note_on_c, 1, 59, 0
3, 25875, Note_on_c, 1, 56, 0
3, 25875, Note_on_c, 1, 62, 0
3, 25920, Note_on_c, 1, 64, 100
3, 25920, Note_on_c, 1, 57, 100
3, 25920, Note_on_c, 1, 60, 100
3, 25995, Note_on_c, 1, 60, 0
3, 25995, Note_on_c, 1, 57, 0
3, 25995, Note_on_c, 1, 64, 0
3, 26040, Note_on_c, 1, 64, 100
3, 26040, Note_on_c, 1, 57, 100
3, 26040, Note_on_c, 1, 60, 100
3, 26115, Note_on_c, 1, 60, 0
3, 26115, Note_on_c, 1, 57, 0
3, 26115, Note_on_c, 1, 64, 0
3, 26160, Note_on_c, 1, 64, 100
3, 26160, Note_on_c, 1, 57, 100
3, 26160, Note_on_c, 1, 60, 100
3, 26235, Note_on_c, 1, 60, 0
3, 26235, Note_on_c, 1, 57, 0
3, 26235, Note_on_c, 1, 64, 0
3, 26280, Note_on_c, 1, 57, 100
3, 26280, Note_on_c, 1, 64, 100
3, 26280, Note_on_c, 1, 60, 100
3, 26355, Note_on_c, 1, 60, 0
3, 26355, Note_on_c, 1, 64, 0
3, 26355, Note_on_c, 1, 57, 0
3, 26400, Note_on_c, 1, 59, 100
3, 26400, Note_on_c, 1, 55, 100
3, 26400, Note_on_c, 1, 62, 100
3, 26475, Note_on_c, 1, 62, 0
3, 26475, Note_on_c, 1, 55, 0
3, 26475, Note_on_c, 1, 59, 0
3, 26520, Note_on_c, 1, 59, 100
3, 26520, Note_on_c, 1, 55, 100
3, 26520, Note_on_c, 1, 62, 100
3, 26595, Note_on_c, 1, 62, 0
3, 26595, Note_on_c, 1, 55, 0
3, 26595, Note_on_c, 1, 59, 0
3, 26720, Note_on_c, 1, 55, 100
3, 26720, Note_on_c, 1, 59, 100
3, 26720, Note_on_c, 1, 62, 100
3, 26795, Note_on_c, 1, 62, 0
3, 26795, Note_on_c, 1, 59, 0
3, 26795, Note_on_c, 1, 55, 0
3, 26840, Note_on_c, 1, 65, 100
3, 26840, Note_on_c, 1, 62, 100
3, 26840, Note_on_c, 1, 58, 100
3, 26960, Note_on_c, 1, 58, 0
3, 26960, Note_on_c, 1, 62, 0
3, 26960, Note_on_c, 1, 65, 0
3, 27000, Note_on_c, 1, 60, 100
3, 27000, Note_on_c, 1, 64, 100
3, 27000, Note_on_c, 1, 67, 100
3, 27120, Note_on_c, 1, 67, 0
3, 27120, Note_on_c, 1, 64, 0
3, 27120, Note_on_c, 1, 60, 0
3, 27120, Note_on_c, 1, 62, 100
3, 27120, Note_on_c, 1, 65, 100
3, 27120, Note_on_c, 1, 69, 100
3, 27240, Note_on_c, 1, 69, 0
3, 27240, Note_on_c, 1, 65, 0
3, 27240, Note_on_c, 1, 62, 0
3, 27240, Note_on_c, 1, 64, 100
3, 27240, Note_on_c, 1, 67, 100
3, 27360, Note_on_c, 1, 67, 0
3, 27360, Note_on_c, 1, 64, 0
3, 27360, Note_on_c, 1, 60, 100
3, 27360, Note_on_c, 1, 57, 100
3, 27360, Note_on_c, 1, 64, 100
3, 27435, Note_on_c, 1, 64, 0
3, 27435, Note_on_c, 1, 57, 0
3, 27435, Note_on_c, 1, 60, 0
3, 27480, Note_on_c, 1, 60, 100
3, 27480, Note_on_c, 1, 57, 100
3, 27480, Note_on_c, 1, 64, 100
3, 27555, Note_on_c, 1, 64, 0
3, 27555, Note_on_c, 1, 57, 0
3, 27555, Note_on_c, 1, 60, 0
3, 27600, Note_on_c, 1, 65, 100
3, 27600, Note_on_c, 1, 58, 100
3, 27600, Note_on_c, 1, 62, 100
3, 27675, Note_on_c, 1, 62, 0
3, 27675, Note_on_c, 1, 58, 0
3, 27675, Note_on_c, 1, 65, 0
3, 27720, Note_on_c, 1, 65, 100
3, 27720, Note_on_c, 1, 58, 100
3, 27720, Note_on_c, 1, 62, 100
3, 27795, Note_on_c, 1, 62, 0
3, 27795, Note_on_c, 1, 58, 0
3, 27795, Note_on_c, 1, 65, 0
3, 27840, Note_on_c, 1, 60, 100
3, 27840, Note_on_c, 1, 57, 100
3, 27840, Note_on_c, 1, 64, 100
3, 27915, Note_on_c, 1, 64, 0
3, 27915, Note_on_c, 1, 57, 0
3, 27915, Note_on_c, 1, 60, 0
3, 27960, Note_on_c, 1, 60, 100
3, 27960, Note_on_c, 1, 57, 100
3, 27960, Note_on_c, 1, 64, 100
3, 28035, Note_on_c, 1, 64, 0
3, 28035, Note_on_c, 1, 57, 0
3, 28035, Note_on_c, 1, 60, 0
3, 28080, Note_on_c, 1, 65, 100
3, 28080, Note_on_c, 1, 57, 100
3, 28080, Note_on_c, 1, 60, 100
3, 28155, Note_on_c, 1, 60, 0
3, 28155, Note_on_c, 1, 57, 0
3, 28155, Note_on_c, 1, 65, 0
3, 28200, Note_on_c, 1, 65, 100
3, 28200, Note_on_c, 1, 57, 100
3, 28200, Note_on_c, 1, 60, 100
3, 28275, Note_on_c, 1, 60, 0
3, 28275, Note_on_c, 1, 57, 0
3, 28275, Note_on_c, 1, 65, 0
3, 28320, Note_on_c, 1, 55, 100
3, 28320, Note_on_c, 1, 59, 100
3, 28320, Note_on_c, 1, 62, 100
3, 28395, Note_on_c, 1, 62, 0
3, 28395, Note_on_c, 1, 59, 0
3, 28395, Note_on_c, 1, 55, 0
3, 28440, Note_on_c, 1, 62, 100
3, 28440, Note_on_c, 1, 59, 100
3, 28440, Note_on_c, 1, 55, 100
3, 28515, Note_on_c, 1, 55, 0
3, 28515, Note_on_c, 1, 59, 0
3, 28515, Note_on_c, 1, 62, 0
3, 28560, Note_on_c, 1, 53, 100
3, 28560, Note_on_c, 1, 57, 100
3, 28560, Note_on_c, 1, 60, 100
3, 28635, Note_on_c, 1, 60, 0
3, 28635, Note_on_c, 1, 57, 0
3, 28635, Note_on_c, 1, 53, 0
3, 28680, Note_on_c, 1, 53, 100
3, 28680, Note_on_c, 1, 57, 100
3, 28680, Note_on_c, 1, 60, 100
3, 28755, Note_on_c, 1, 60, 0
3, 28755, Note_on_c, 1, 57, 0
3, 28755, Note_on_c, 1, 53, 0
3, 28800, Note_on_c, 1, 55, 100
3, 28800, Note_on_c, 1, 59, 100
3, 28800, Note_on_c, 1, 62, 100
3, 28875, Note_on_c, 1, 62, 0
3, 28875, Note_on_c, 1, 59, 0
3, 28875, Note_on_c, 1, 55, 0
3, 28920, Note_on_c, 1, 62, 100
3, 28920, Note_on_c, 1, 59, 100
3, 28920, Note_on_c, 1, 55, 100
3, 28995, Note_on_c, 1, 55, 0
3, 28995, Note_on_c, 1, 59, 0
3, 28995, Note_on_c, 1, 62, 0
3, 29040, Note_on_c, 1, 53, 100
3, 29040, Note_on_c, 1, 57, 100
3, 29040, Note_on_c, 1, 60, 100
3, 29115, Note_on_c, 1, 60, 0
3, 29115, Note_on_c, 1, 57, 0
3, 29115, Note_on_c, 1, 53, 0
3, 29160, Note_on_c, 1, 53, 100
3, 29160, Note_on_c, 1, 57, 100
3, 29160, Note_on_c, 1, 60, 100
3, 29235, Note_on_c, 1, 60, 0
3, 29235, Note_on_c, 1, 57, 0
3, 29235, Note_on_c, 1, 53, 0
3, 29280, Note_on_c, 1, 55, 100
3, 29280, Note_on_c, 1, 59, 100
3, 29280, Note_on_c, 1, 62, 100
3, 29355, Note_on_c, 1, 62, 0
3, 29355, Note_on_c, 1, 59, 0
3, 29355, Note_on_c, 1, 55, 0
3, 29400, Note_on_c, 1, 62, 100
3, 29400, Note_on_c, 1, 59, 100
3, 29400, Note_on_c, 1, 55, 100
3, 29475, Note_on_c, 1, 55, 0
3, 29475, Note_on_c, 1, 59, 0
3, 29475, Note_on_c, 1, 62, 0
3, 29520, Note_on_c, 1, 55, 100
3, 29520, Note_on_c, 1, 59, 100
3, 29520, Note_on_c, 1, 62, 100
3, 29595, Note_on_c, 1, 62, 0
3, 29595, Note_on_c, 1, 59, 0
3, 29595, Note_on_c, 1, 55, 0
3, 29640, Note_on_c, 1, 55, 100
3, 29640, Note_on_c, 1, 59, 100
3, 29640, Note_on_c, 1, 62, 100
3, 29715, Note_on_c, 1, 62, 0
3, 29715, Note_on_c, 1, 59, 0
3, 29715, Note_on_c, 1, 55, 0
3, 29760, Note_on_c, 1, 55, 100
3, 29760, Note_on_c, 1, 59, 100
3, 29760, Note_on_c, 1, 62, 100
3, 29835, Note_on_c, 1, 62, 0
3, 29835, Note_on_c, 1, 59, 0
3, 29835, Note_on_c, 1, 55, 0
3, 29880, Note_on_c, 1, 62, 100
3, 29880, Note_on_c, 1, 59, 100
3, 29880, Note_on_c, 1, 55, 100
3, 29955, Note_on_c, 1, 55, 0
3, 29955, Note_on_c, 1, 59, 0
3, 29955, Note_on_c, 1, 62, 0
3, 30000, Note_on_c, 1, 53, 100
3, 30000, Note_on_c, 1, 57, 100
3, 30000, Note_on_c, 1, 60, 100
3, 30075, Note_on_c, 1, 60, 0
3, 30075, Note_on_c, 1, 57, 0
3, 30075, Note_on_c, 1, 53, 0
3, 30120, Note_on_c, 1, 53, 100
3, 30120, Note_on_c, 1, 57, 100
3, 30120, Note_on_c, 1, 60, 100
3, 30195, Note_on_c, 1, 60, 0
3, 30195, Note_on_c, 1, 57, 0
3, 30195, Note_on_c, 1, 53, 0
3, 30240, Note_on_c, 1, 55, 100
3, 30240, Note_on_c, 1, 59, 100
3, 30240, Note_on_c, 1, 62, 100
3, 30315, Note_on_c, 1, 62, 0
3, 30315, Note_on_c, 1, 59, 0
3, 30315, Note_on_c, 1, 55, 0
3, 30360, Note_on_c, 1, 62, 100
3, 30360, Note_on_c, 1, 59, 100
3, 30360, Note_on_c, 1, 55, 100
3, 30435, Note_on_c, 1, 55, 0
3, 30435, Note_on_c, 1, 59, 0
3, 30435, Note_on_c, 1, 62, 0
3, 30480, Note_on_c, 1, 55, 100
3, 30480, Note_on_c, 1, 59, 100
3, 30480, Note_on_c, 1, 62, 100
3, 30555, Note_on_c, 1, 62, 0
3, 30555, Note_on_c, 1, 59, 0
3, 30555, Note_on_c, 1, 55, 0
3, 30600, Note_on_c, 1, 55, 100
3, 30600, Note_on_c, 1, 59, 100
3, 30600, Note_on_c, 1, 62, 100
3, 30675, Note_on_c, 1, 62, 0
3, 30675, Note_on_c, 1, 59, 0
3, 30675, Note_on_c, 1, 55, 0
3, 30720, Note_on_c, 1, 43, 100
3, 30720, Note_on_c, 1, 55, 100
3, 30720, Note_on_c, 1, 59, 100
3, 30720, Note_on_c, 1, 62, 100
3, 30795, Note_on_c, 1, 62, 0
3, 30795, Note_on_c, 1, 59, 0
3, 30795, Note_on_c, 1, 55, 0
3, 30840, Note_on_c, 1, 43, 0
3, 30840, Note_on_c, 1, 43, 100
3, 30840, Note_on_c, 1, 62, 100
3, 30840, Note_on_c, 1, 59, 100
3, 30840, Note_on_c, 1, 55, 100
3, 30915, Note_on_c, 1, 55, 0
3, 30915, Note_on_c, 1, 59, 0
3, 30915, Note_on_c, 1, 62, 0
3, 30960, Note_on_c, 1, 43, 0
3, 30960, Note_on_c, 1, 43, 100
3, 30960, Note_on_c, 1, 55, 100
3, 30960, Note_on_c, 1, 59, 100
3, 30960, Note_on_c, 1, 62, 100
3, 31035, Note_on_c, 1, 62, 0
3, 31035, Note_on_c, 1, 59, 0
3, 31035, Note_on_c, 1, 55, 0
3, 31080, Note_on_c, 1, 43, 0
3, 31080, Note_on_c, 1, 43, 100
3, 31080, Note_on_c, 1, 55, 100
3, 31080, Note_on_c, 1, 59, 100
3, 31080, Note_on_c, 1, 62, 100
3, 31155, Note_on_c, 1, 62, 0
3, 31155, Note_on_c, 1, 59, 0
3, 31155, Note_on_c, 1, 55, 0
3, 31200, Note_on_c, 1, 43, 0
3, 31200, Note_on_c, 1, 41, 100
3, 31200, Note_on_c, 1, 48, 100
3, 31200, Note_on_c, 1, 57, 100
3, 31200, Note_on_c, 1, 64, 100
3, 31290, Note_on_c, 1, 64, 0
3, 31290, Note_on_c, 1, 57, 0
3, 31290, Note_on_c, 1, 48, 0
3, 31320, Note_on_c, 1, 48, 100
3, 31320, Note_on_c, 1, 57, 100
3, 31320, Note_on_c, 1, 64, 100
3, 31400, Note_on_c, 1, 64, 0
3, 31400, Note_on_c, 1, 57, 0
3, 31400, Note_on_c, 1, 48, 0
3, 31400, Note_on_c, 1, 60, 100
3, 31440, Note_on_c, 1, 60, 0
3, 31440, Note_on_c, 1, 41, 0
3, 31440, Note_on_c, 1, 40, 100
3, 31440, Note_on_c, 1, 59, 100
3, 31440, Note_on_c, 1, 55, 100
3, 31440, Note_on_c, 1, 62, 100
3, 31510, Note_on_c, 1, 62, 0
3, 31510, Note_on_c, 1, 40, 0
3, 31510, Note_on_c, 1, 59, 0
3, 31510, Note_on_c, 1, 55, 0
3, 31520, Note_on_c, 1, 59, 100
3, 31560, Note_on_c, 1, 59, 0
3, 31560, Note_on_c, 1, 55, 100
3, 31560, Note_on_c, 1, 62, 100
3, 31640, Note_on_c, 1, 62, 0
3, 31640, Note_on_c, 1, 55, 0
3, 31640, Note_on_c, 1, 38, 100
3, 31640, Note_on_c, 1, 57, 100
3, 31640, Note_on_c, 1, 53, 100
3, 31640, Note_on_c, 1, 60, 100
3, 31800, Note_on_c, 1, 60, 0
3, 31800, Note_on_c, 1, 38, 0
3, 31800, Note_on_c, 1, 57, 0
3, 31800, Note_on_c, 1, 53, 0
3, 31800, Note_on_c, 1, 60, 100
3, 31800, Note_on_c, 1, 53, 100
3, 31880, Note_on_c, 1, 53, 0
3, 31880, Note_on_c, 1, 50, 100
3, 31920, Note_on_c, 1, 50, 0
3, 31920, Note_on_c, 1, 60, 0
3, 31920, Note_on_c, 1, 62, 100
3, 31920, Note_on_c, 1, 59, 100
3, 31920, Note_on_c, 1, 43, 100
3, 31920, Note_on_c, 1, 55, 100
3, 31990, Note_on_c, 1, 55, 0
3, 31990, Note_on_c, 1, 62, 0
3, 31990, Note_on_c, 1, 59, 0
3, 31990, Note_on_c, 1, 43, 0
3, 32000, Note_on_c, 1, 57, 100
3, 32000, Note_on_c, 1, 60, 100
3, 32000, Note_on_c, 1, 53, 100
3, 32040, Note_on_c, 1, 53, 0
3, 32040, Note_on_c, 1, 60, 0
3, 32040, Note_on_c, 1, 57, 0
3, 32040, Note_on_c, 1, 62, 100
3, 32040, Note_on_c, 1, 59, 100
3, 32040, Note_on_c, 1, 55, 100
3, 32110, Note_on_c, 1, 55, 0
3, 32110, Note_on_c, 1, 59, 0
3, 32110, Note_on_c, 1, 62, 0
3, 32160, Note_on_c, 1, 41, 100
3, 32160, Note_on_c, 1, 48, 100
3, 32160, Note_on_c, 1, 57, 100
3, 32160, Note_on_c, 1, 64, 100
3, 32250, Note_on_c, 1, 64, 0
3, 32250, Note_on_c, 1, 57, 0
3, 32250, Note_on_c, 1, 48, 0
3, 32280, Note_on_c, 1, 48, 100
3, 32280, Note_on_c, 1, 57, 100
3, 32280, Note_on_c, 1, 64, 100
3, 32360, Note_on_c, 1, 64, 0
3, 32360, Note_on_c, 1, 57, 0
3, 32360, Note_on_c, 1, 48, 0
3, 32360, Note_on_c, 1, 60, 100
3, 32400, Note_on_c, 1, 60, 0
3, 32400, Note_on_c, 1, 41, 0
3, 32400, Note_on_c, 1, 40, 100
3, 32400, Note_on_c, 1, 59, 100
3, 32400, Note_on_c, 1, 55, 100
3, 32400, Note_on_c, 1, 62, 100
3, 32470, Note_on_c, 1, 62, 0
3, 32470, Note_on_c, 1, 40, 0
3, 32470, Note_on_c, 1, 59, 0
3, 32470, Note_on_c, 1, 55, 0
3, 32480, Note_on_c, 1, 59, 100
3, 32520, Note_on_c, 1, 59, 0
3, 32520, Note_on_c, 1, 55, 100
3, 32520, Note_on_c, 1, 62, 100
3, 32600, Note_on_c, 1, 62, 0
3, 32600, Note_on_c, 1, 55, 0
3, 32600, Note_on_c, 1, 38, 100
3, 32600, Note_on_c, 1, 57, 100
3, 32600, Note_on_c, 1, 53, 100
3, 32600, Note_on_c, 1, 60, 100
3, 32760, Note_on_c, 1, 60, 0
3, 32760, Note_on_c, 1, 38, 0
3, 32760, Note_on_c, 1, 57, 0
3, 32760, Note_on_c, 1, 53, 0
3, 32760, Note_on_c, 1, 60, 100
3, 32760, Note_on_c, 1, 53, 100
3, 32840, Note_on_c, 1, 53, 0
3, 32840, Note_on_c, 1, 50, 100
3, 32880, Note_on_c, 1, 50, 0
3, 32880, Note_on_c, 1, 60, 0
3, 32880, Note_on_c, 1, 62, 100
3, 32880, Note_on_c, 1, 59, 100
3, 32880, Note_on_c, 1, 43, 100
3, 32880, Note_on_c, 1, 55, 100
3, 32950, Note_on_c, 1, 55, 0
3, 32950, Note_on_c, 1, 62, 0
3, 32950, Note_on_c, 1, 59, 0
3, 32950, Note_on_c, 1, 43, 0
3, 32960, Note_on_c, 1, 57, 100
3, 32960, Note_on_c, 1, 60, 100
3, 32960, Note_on_c, 1, 53, 100
3, 33000, Note_on_c, 1, 53, 0
3, 33000, Note_on_c, 1, 60, 0
3, 33000, Note_on_c, 1, 57, 0
3, 33000, Note_on_c, 1, 62, 100
3, 33000, Note_on_c, 1, 59, 100
3, 33000, Note_on_c, 1, 55, 100
3, 33070, Note_on_c, 1, 55, 0
3, 33070, Note_on_c, 1, 59, 0
3, 33070, Note_on_c, 1, 62, 0
3, 33120, Note_on_c, 1, 41, 100
3, 33120, Note_on_c, 1, 48, 100
3, 33120, Note_on_c, 1, 57, 100
3, 33120, Note_on_c, 1, 64, 100
3, 33210, Note_on_c, 1, 64, 0
3, 33210, Note_on_c, 1, 57, 0
3, 33210, Note_on_c, 1, 48, 0
3, 33240, Note_on_c, 1, 48, 100
3, 33240, Note_on_c, 1, 57, 100
3, 33240, Note_on_c, 1, 64, 100
3, 33320, Note_on_c, 1, 64, 0
3, 33320, Note_on_c, 1, 57, 0
3, 33320, Note_on_c, 1, 48, 0
3, 33320, Note_on_c, 1, 60, 100
3, 33360, Note_on_c, 1, 60, 0
3, 33360, Note_on_c, 1, 41, 0
3, 33360, Note_on_c, 1, 40, 100
3, 33360, Note_on_c, 1, 59, 100
3, 33360, Note_on_c, 1, 55, 100
3, 33360, Note_on_c, 1, 62, 100
3, 33430, Note_on_c, 1, 62, 0
3, 33430, Note_on_c, 1, 40, 0
3, 33430, Note_on_c, 1, 59, 0
3, 33430, Note_on_c, 1, 55, 0
3, 33440, Note_on_c, 1, 59, 100
3, 33480, Note_on_c, 1, 59, 0
3, 33480, Note_on_c, 1, 55, 100
3, 33480, Note_on_c, 1, 62, 100
3, 33560, Note_on_c, 1, 62, 0
3, 33560, Note_on_c, 1, 55, 0
3, 33560, Note_on_c, 1, 38, 100
3, 33560, Note_on_c, 1, 57, 100
3, 33560, Note_on_c, 1, 53, 100
3, 33560, Note_on_c, 1, 60, 100
3, 33720, Note_on_c, 1, 60, 0
3, 33720, Note_on_c, 1, 38, 0
3, 33720, Note_on_c, 1, 57, 0
3, 33720, Note_on_c, 1, 53, 0
3, 33720, Note_on_c, 1, 60, 100
3, 33720, Note_on_c, 1, 53, 100
3, 33800, Note_on_c, 1, 53, 0
3, 33800, Note_on_c, 1, 50, 100
3, 33840, Note_on_c, 1, 50, 0
3, 33840, Note_on_c, 1, 60, 0
3, 33840, Note_on_c, 1, 62, 100
3, 33840, Note_on_c, 1, 59, 100
3, 33840, Note_on_c, 1, 43, 100
3, 33840, Note_on_c, 1, 55, 100
3, 33910, Note_on_c, 1, 55, 0
3, 33910, Note_on_c, 1, 62, 0
3, 33910, Note_on_c, 1, 59, 0
3, 33910, Note_on_c, 1, 43, 0
3, 33920, Note_on_c, 1, 57, 100
3, 33920, Note_on_c, 1, 60, 100
3, 33920, Note_on_c, 1, 53, 100
3, 33960, Note_on_c, 1, 53, 0
3, 33960, Note_on_c, 1, 60, 0
3, 33960, Note_on_c, 1, 57, 0
3, 33960, Note_on_c, 1, 62, 100
3, 33960, Note_on_c, 1, 59, 100
3, 33960, Note_on_c, 1, 55, 100
3, 34030, Note_on_c, 1, 55, 0
3, 34030, Note_on_c, 1, 59, 0
3, 34030, Note_on_c, 1, 62, 0
3, 34080, Note_on_c, 1, 41, 100
3, 34080, Note_on_c, 1, 48, 100
3, 34080, Note_on_c, 1, 57, 100
3, 34080, Note_on_c, 1, 64, 100
3, 34170, Note_on_c, 1, 64, 0
3, 34170, Note_on_c, 1, 57, 0
3, 34170, Note_on_c, 1, 48, 0
3, 34200, Note_on_c, 1, 48, 100
3, 34200, Note_on_c, 1, 57, 100
3, 34200, Note_on_c, 1, 64, 100
3, 34280, Note_on_c, 1, 64, 0
3, 34280, Note_on_c, 1, 57, 0
3, 34280, Note_on_c, 1, 48, 0
3, 34280, Note_on_c, 1, 60, 100
3, 34320, Note_on_c, 1, 60, 0
3, 34320, Note_on_c, 1, 41, 0
3, 34320, Note_on_c, 1, 40, 100
3, 34320, Note_on_c, 1, 59, 100
3, 34320, Note_on_c, 1, 55, 100
3, 34320, Note_on_c, 1, 62, 100
3, 34390, Note_on_c, 1, 62, 0
3, 34390, Note_on_c, 1, 40, 0
3, 34390, Note_on_c, 1, 59, 0
3, 34390, Note_on_c, 1, 55, 0
3, 34400, Note_on_c, 1, 59, 100
3, 34440, Note_on_c, 1, 59, 0
3, 34440, Note_on_c, 1, 55, 100
3, 34440, Note_on_c, 1, 62, 100
3, 34520, Note_on_c, 1, 62, 0
3, 34520, Note_on_c, 1, 55, 0
3, 34520, Note_on_c, 1, 38, 100
3, 34520, Note_on_c, 1, 57, 100
3, 34520, Note_on_c, 1, 53, 100
3, 34520, Note_on_c, 1, 60, 100
3, 34680, Note_on_c, 1, 60, 0
3, 34680, Note_on_c, 1, 38, 0
3, 34680, Note_on_c, 1, 57, 0
3, 34680, Note_on_c, 1, 53, 0
3, 34680, Note_on_c, 1, 60, 100
3, 34680, Note_on_c, 1, 53, 100
3, 34760, Note_on_c, 1, 53, 0
3, 34760, Note_on_c, 1, 50, 100
3, 34800, Note_on_c, 1, 50, 0
3, 34800, Note_on_c, 1, 60, 0
3, 34800, Note_on_c, 1, 62, 100
3, 34800, Note_on_c, 1, 59, 100
3, 34800, Note_on_c, 1, 43, 100
3, 34800, Note_on_c, 1, 55, 100
3, 34870, Note_on_c, 1, 55, 0
3, 34870, Note_on_c, 1, 62, 0
3, 34870, Note_on_c, 1, 59, 0
3, 34870, Note_on_c, 1, 43, 0
3, 34880, Note_on_c, 1, 57, 100
3, 34880, Note_on_c, 1, 60, 100
3, 34880, Note_on_c, 1, 53, 100
3, 34920, Note_on_c, 1, 53, 0
3, 34920, Note_on_c, 1, 60, 0
3, 34920, Note_on_c, 1, 57, 0
3, 34920, Note_on_c, 1, 62, 100
3, 34920, Note_on_c, 1, 59, 100
3, 34920, Note_on_c, 1, 55, 100
3, 34990, Note_on_c, 1, 55, 0
3, 34990, Note_on_c, 1, 59, 0
3, 34990, Note_on_c, 1, 62, 0
3, 35040, Note_on_c, 1, 41, 100
3, 35040, Note_on_c, 1, 48, 100
3, 35040, Note_on_c, 1, 57, 100
3, 35040, Note_on_c, 1, 64, 100
3, 35130, Note_on_c, 1, 64, 0
3, 35130, Note_on_c, 1, 57, 0
3, 35130, Note_on_c, 1, 48, 0
3, 35160, Note_on_c, 1, 48, 100
3, 35160, Note_on_c, 1, 57, 100
3, 35160, Note_on_c, 1, 64, 100
3, 35240, Note_on_c, 1, 64, 0
3, 35240, Note_on_c, 1, 57, 0
3, 35240, Note_on_c, 1, 48, 0
3, 35240, Note_on_c, 1, 60, 100
3, 35280, Note_on_c, 1, 60, 0
3, 35280, Note_on_c, 1, 41, 0
3, 35280, Note_on_c, 1, 40, 100
3, 35280, Note_on_c, 1, 59, 100
3, 35280, Note_on_c, 1, 55, 100
3, 35280, Note_on_c, 1, 62, 100
3, 35350, Note_on_c, 1, 62, 0
3, 35350, Note_on_c, 1, 40, 0
3, 35350, Note_on_c, 1, 59, 0
3, 35350, Note_on_c, 1, 55, 0
3, 35360, Note_on_c, 1, 59, 100
3, 35400, Note_on_c, 1, 59, 0
3, 35400, Note_on_c, 1, 55, 100
3, 35400, Note_on_c, 1, 62, 100
3, 35480, Note_on_c, 1, 62, 0
3, 35480, Note_on_c, 1, 55, 0
3, 35480, Note_on_c, 1, 38, 100
3, 35480, Note_on_c, 1, 57, 100
3, 35480, Note_on_c, 1, 53, 100
3, 35480, Note_on_c, 1, 60, 100
3, 35640, Note_on_c, 1, 60, 0
3, 35640, Note_on_c, 1, 38, 0
3, 35640, Note_on_c, 1, 57, 0
3, 35640, Note_on_c, 1, 53, 0
3, 35640, Note_on_c, 1, 60, 97
3, 35640, Note_on_c, 1, 53, 97
3, 35720, Note_on_c, 1, 53, 0
3, 35720, Note_on_c, 1, 50, 95
3, 35760, Note_on_c, 1, 50, 0
3, 35760, Note_on_c, 1, 60, 0
3, 35760, Note_on_c, 1, 62, 93
3, 35760, Note_on_c, 1, 59, 93
3, 35760, Note_on_c, 1, 43, 93
3, 35760, Note_on_c, 1, 55, 93
3, 35830, Note_on_c, 1, 55, 0
3, 35830, Note_on_c, 1, 62, 0
3, 35830, Note_on_c, 1, 59, 0
3, 35830, Note_on_c, 1, 43, 0
3, 35840, Note_on_c, 1, 57, 91
3, 35840, Note_on_c, 1, 60, 91
3, 35840, Note_on_c, 1, 53, 91
3, 35880, Note_on_c, 1, 53, 0
3, 35880, Note_on_c, 1, 60, 0
3, 35880, Note_on_c, 1, 57, 0
3, 35880, Note_on_c, 1, 62, 90
3, 35880, Note_on_c, 1, 59, 90
3, 35880, Note_on_c, 1, 55, 90
3, 35950, Note_on_c, 1, 55, 0
3, 35950, Note_on_c, 1, 59, 0
3, 35950, Note_on_c, 1, 62, 0
3, 36000, Note_on_c, 1, 41, 86
3, 36000, Note_on_c, 1, 48, 86
3, 36000, Note_on_c, 1, 57, 86
3, 36000, Note_on_c, 1, 64, 86
3, 36090, Note_on_c, 1, 64, 0
3, 36090, Note_on_c, 1, 57, 0
3, 36090, Note_on_c, 1, 48, 0
3, 36120, Note_on_c, 1, 48, 83
3, 36120, Note_on_c, 1, 57, 83
3, 36120, Note_on_c, 1, 64, 83
3, 36200, Note_on_c, 1, 64, 0
3, 36200, Note_on_c, 1, 57, 0
3, 36200, Note_on_c, 1, 48, 0
3, 36200, Note_on_c, 1, 60, 80
3, 36240, Note_on_c, 1, 60, 0
3, 36240, Note_on_c, 1, 41, 0
3, 36240, Note_on_c, 1, 40, 79
3, 36240, Note_on_c, 1, 59, 79
3, 36240, Note_on_c, 1, 55, 79
3, 36240, Note_on_c, 1, 62, 79
3, 36310, Note_on_c, 1, 62, 0
3, 36310, Note_on_c, 1, 40, 0
3, 36310, Note_on_c, 1, 59, 0
3, 36310, Note_on_c, 1, 55, 0
3, 36320, Note_on_c, 1, 59, 77
3, 36360, Note_on_c, 1, 59, 0
3, 36360, Note_on_c, 1, 55, 75
3, 36360, Note_on_c, 1, 62, 75
3, 36440, Note_on_c, 1, 62, 0
3, 36440, Note_on_c, 1, 55, 0
3, 36440, Note_on_c, 1, 38, 73
3, 36440, Note_on_c, 1, 57, 73
3, 36440, Note_on_c, 1, 53, 73
3, 36440, Note_on_c, 1, 60, 73
3, 36600, Note_on_c, 1, 60, 0
3, 36600, Note_on_c, 1, 38, 0
3, 36600, Note_on_c, 1, 57, 0
3, 36600, Note_on_c, 1, 53, 0
3, 36600, Note_on_c, 1, 60, 68
3, 36600, Note_on_c, 1, 53, 68
3, 36680, Note_on_c, 1, 53, 0
3, 36680, Note_on_c, 1, 50, 66
3, 36720, Note_on_c, 1, 50, 0
3, 36720, Note_on_c, 1, 60, 0
3, 36720, Note_on_c, 1, 62, 65
3, 36720, Note_on_c, 1, 59, 65
3, 36720, Note_on_c, 1, 43, 65
3, 36720, Note_on_c, 1, 55, 65
3, 36790, Note_on_c, 1, 55, 0
3, 36790, Note_on_c, 1, 62, 0
3, 36790, Note_on_c, 1, 59, 0
3, 36790, Note_on_c, 1, 43, 0
3, 36800, Note_on_c, 1, 57, 62
3, 36800, Note_on_c, 1, 60, 62
3, 36800, Note_on_c, 1, 53, 62
3, 36840, Note_on_c, 1, 53, 0
3, 36840, Note_on_c, 1, 60, 0
3, 36840, Note_on_c, 1, 57, 0
3, 36840, Note_on_c, 1, 62, 61
3, 36840, Note_on_c, 1, 59, 61
3, 36840, Note_on_c, 1, 55, 61
3, 36910, Note_on_c, 1, 55, 0
3, 36910, Note_on_c, 1, 59, 0
3, 36910, Note_on_c, 1, 62, 0
3, 36960, Note_on_c, 1, 41, 58
3, 36960, Note_on_c, 1, 48, 58
3, 36960, Note_on_c, 1, 57, 58
3, 36960, Note_on_c, 1, 64, 58
3, 37050, Note_on_c, 1, 64, 0
3, 37050, Note_on_c, 1, 57, 0
3, 37050, Note_on_c, 1, 48, 0
3, 37080, Note_on_c, 1, 48, 54
3, 37080, Note_on_c, 1, 57, 54
3, 37080, Note_on_c, 1, 64, 54
3, 37160, Note_on_c, 1, 64, 0
3, 37160, Note_on_c, 1, 57, 0
3, 37160, Note_on_c, 1, 48, 0
3, 37160, Note_on_c, 1, 60, 52
3, 37200, Note_on_c, 1, 60, 0
3, 37200, Note_on_c, 1, 41, 0
3, 37200, Note_on_c, 1, 40, 50
3, 37200, Note_on_c, 1, 59, 50
3, 37200, Note_on_c, 1, 55, 50
3, 37200, Note_on_c, 1, 62, 50
3, 37270, Note_on_c, 1, 62, 0
3, 37270, Note_on_c, 1, 40, 0
3, 37270, Note_on_c, 1, 59, 0
3, 37270, Note_on_c, 1, 55, 0
3, 37280, Note_on_c, 1, 59, 48
3, 37320, Note_on_c, 1, 59, 0
3, 37320, Note_on_c, 1, 55, 47
3, 37320, Note_on_c, 1, 62, 47
3, 37400, Note_on_c, 1, 62, 0
3, 37400, Note_on_c, 1, 55, 0
3, 37400, Note_on_c, 1, 38, 45
3, 37400, Note_on_c, 1, 57, 45
3, 37400, Note_on_c, 1, 53, 45
3, 37400, Note_on_c, 1, 60, 45
3, 37560, Note_on_c, 1, 60, 0
3, 37560, Note_on_c, 1, 38, 0
3, 37560, Note_on_c, 1, 57, 0
3, 37560, Note_on_c, 1, 53, 0
3, 37560, Note_on_c, 1, 60, 40
3, 37560, Note_on_c, 1, 53, 40
3, 37640, Note_on_c, 1, 53, 0
3, 37640, Note_on_c, 1, 50, 37
3, 37680, Note_on_c, 1, 50, 0
3, 37680, Note_on_c, 1, 60, 0
3, 37680, Note_on_c, 1, 62, 36
3, 37680, Note_on_c, 1, 59, 36
3, 37680, Note_on_c, 1, 43, 36
3, 37680, Note_on_c, 1, 55, 36
3, 37750, Note_on_c, 1, 55, 0
3, 37750, Note_on_c, 1, 62, 0
3, 37750, Note_on_c, 1, 59, 0
3, 37750, Note_on_c, 1, 43, 0
3, 37760, Note_on_c, 1, 57, 34
3, 37760, Note_on_c, 1, 60, 34
3, 37760, Note_on_c, 1, 53, 34
3, 37800, Note_on_c, 1, 53, 0
3, 37800, Note_on_c, 1, 60, 0
3, 37800, Note_on_c, 1, 57, 0
3, 37800, Note_on_c, 1, 62, 33
3, 37800, Note_on_c, 1, 59, 33
3, 37800, Note_on_c, 1, 55, 33
3, 37870, Note_on_c, 1, 55, 0
3, 37870, Note_on_c, 1, 59, 0
3, 37870, Note_on_c, 1, 62, 0
3, 37920, Note_on_c, 1, 41, 29
3, 37920, Note_on_c, 1, 48, 29
3, 37920, Note_on_c, 1, 57, 29
3, 37920, Note_on_c, 1, 64, 29
3, 38010, Note_on_c, 1, 64, 0
3, 38010, Note_on_c, 1, 57, 0
3, 38010, Note_on_c, 1, 48, 0
3, 38040, Note_on_c, 1, 48, 25
3, 38040, Note_on_c, 1, 57, 25
3, 38040, Note_on_c, 1, 64, 25
3, 38120, Note_on_c, 1, 64, 0
3, 38120, Note_on_c, 1, 57, 0
3, 38120, Note_on_c, 1, 48, 0
3, 38120, Note_on_c, 1, 60, 23
3, 38160, Note_on_c, 1, 60, 0
3, 38160, Note_on_c, 1, 41, 0
3, 38160, Note_on_c, 1, 40, 22
3, 38160, Note_on_c, 1, 59, 22
3, 38160, Note_on_c, 1, 55, 22
3, 38160, Note_on_c, 1, 62, 22
3, 38230, Note_on_c, 1, 62, 0
3, 38230, Note_on_c, 1, 40, 0
3, 38230, Note_on_c, 1, 59, 0
3, 38230, Note_on_c, 1, 55, 0
3, 38240, Note_on_c, 1, 59, 20
3, 38280, Note_on_c, 1, 59, 0
3, 38280, Note_on_c, 1, 55, 18
3, 38280, Note_on_c, 1, 62, 18
3, 38360, Note_on_c, 1, 62, 0
3, 38360, Note_on_c, 1, 55, 0
3, 38360, Note_on_c, 1, 38, 16
3, 38360, Note_on_c, 1, 57, 16
3, 38360, Note_on_c, 1, 53, 16
3, 38360, Note_on_c, 1, 60, 16
3, 38520, Note_on_c, 1, 60, 0
3, 38520, Note_on_c, 1, 38, 0
3, 38520, Note_on_c, 1, 57, 0
3, 38520, Note_on_c, 1, 53, 0
3, 38520, Note_on_c, 1, 60, 11
3, 38520, Note_on_c, 1, 53, 11
3, 38600, Note_on_c, 1, 53, 0
3, 38600, Note_on_c, 1, 50, 9
3, 38640, Note_on_c, 1, 50, 0
3, 38640, Note_on_c, 1, 60, 0
3, 38640, Note_on_c, 1, 62, 8
3, 38640, Note_on_c, 1, 59, 8
3, 38640, Note_on_c, 1, 43, 8
3, 38640, Note_on_c, 1, 55, 8
3, 38710, Note_on_c, 1, 55, 0
3, 38710, Note_on_c, 1, 62, 0
3, 38710, Note_on_c, 1, 59, 0
3, 38710, Note_on_c, 1, 43, 0
3, 38720, Note_on_c, 1, 57, 5
3, 38720, Note_on_c, 1, 60, 5
3, 38720, Note_on_c, 1, 53, 5
3, 38760, Note_on_c, 1, 53, 0
3, 38760, Note_on_c, 1, 60, 0
3, 38760, Note_on_c, 1, 57, 0
3, 38760, Note_on_c, 1, 62, 4
3, 38760, Note_on_c, 1, 59, 4
3, 38760, Note_on_c, 1, 55, 4
3, 38830, Note_on_c, 1, 55, 0
3, 38830, Note_on_c, 1, 59, 0
3, 38830, Note_on_c, 1, 62, 0
3, 38830, End_track
4, 0, Start_track
4, 0, MIDI_port, 0
4, 0, Program_c, 2, 3
4, 0, Control_c, 2, 7, 80
4, 0, Control_c, 2, 10, 0
4, 480, Note_on_c, 2, 81, 100
4, 480, Note_on_c, 2, 53, 100
4, 480, Note_on_c, 2, 88, 100
4, 570, Note_on_c, 2, 88, 0
4, 570, Note_on_c, 2, 81, 0
4, 600, Note_on_c, 2, 81, 100
4, 600, Note_on_c, 2, 88, 100
4, 680, Note_on_c, 2, 88, 0
4, 680, Note_on_c, 2, 81, 0
4, 680, Note_on_c, 2, 77, 100
4, 680, Note_on_c, 2, 84, 100
4, 720, Note_on_c, 2, 84, 0
4, 720, Note_on_c, 2, 77, 0
4, 720, Note_on_c, 2, 53, 0
4, 720, Note_on_c, 2, 79, 100
4, 720, Note_on_c, 2, 52, 100
4, 720, Note_on_c, 2, 86, 100
4, 790, Note_on_c, 2, 86, 0
4, 790, Note_on_c, 2, 79, 0
4, 800, Note_on_c, 2, 76, 100
4, 800, Note_on_c, 2, 83, 100
4, 840, Note_on_c, 2, 83, 0
4, 840, Note_on_c, 2, 76, 0
4, 840, Note_on_c, 2, 79, 100
4, 840, Note_on_c, 2, 86, 100
4, 920, Note_on_c, 2, 86, 0
4, 920, Note_on_c, 2, 79, 0
4, 920, Note_on_c, 2, 50, 100
4, 920, Note_on_c, 2, 77, 100
4, 920, Note_on_c, 2, 84, 100
4, 960, Note_on_c, 2, 52, 0
4, 1080, Note_on_c, 2, 84, 0
4, 1080, Note_on_c, 2, 77, 0
4, 1080, Note_on_c, 2, 84, 100
4, 1080, Note_on_c, 2, 77, 100
4, 1160, Note_on_c, 2, 77, 0
4, 1160, Note_on_c, 2, 74, 100
4, 1200, Note_on_c, 2, 74, 0
4, 1200, Note_on_c, 2, 84, 0
4, 1200, Note_on_c, 2, 50, 0
4, 1200, Note_on_c, 2, 86, 100
4, 1200, Note_on_c, 2, 83, 100
4, 1200, Note_on_c, 2, 79, 100
4, 1200, Note_on_c, 2, 55, 100
4, 1270, Note_on_c, 2, 79, 0
4, 1270, Note_on_c, 2, 86, 0
4, 1270, Note_on_c, 2, 83, 0
4, 1280, Note_on_c, 2, 81, 100
4, 1280, Note_on_c, 2, 84, 100
4, 1280, Note_on_c, 2, 77, 100
4, 1320, Note_on_c, 2, 77, 0
4, 1320, Note_on_c, 2, 84, 0
4, 1320, Note_on_c, 2, 81, 0
4, 1320, Note_on_c, 2, 86, 100
4, 1320, Note_on_c, 2, 83, 100
4, 1320, Note_on_c, 2, 79, 100
4, 1390, Note_on_c, 2, 79, 0
4, 1390, Note_on_c, 2, 83, 0
4, 1390, Note_on_c, 2, 86, 0
4, 1440, Note_on_c, 2, 55, 0
4, 1440, Note_on_c, 2, 81, 100
4, 1440, Note_on_c, 2, 53, 100
4, 1440, Note_on_c, 2, 88, 100
4, 1530, Note_on_c, 2, 88, 0
4, 1530, Note_on_c, 2, 81, 0
4, 1560, Note_on_c, 2, 81, 100
4, 1560, Note_on_c, 2, 88, 100
4, 1640, Note_on_c, 2, 88, 0
4, 1640, Note_on_c, 2, 81, 0
4, 1640, Note_on_c, 2, 77, 100
4, 1640, Note_on_c, 2, 84, 100
4, 1680, Note_on_c, 2, 84, 0
4, 1680, Note_on_c, 2, 77, 0
4, 1680, Note_on_c, 2, 53, 0
4, 1680, Note_on_c, 2, 79, 100
4, 1680, Note_on_c, 2, 52, 100
4, 1680, Note_on_c, 2, 86, 100
4, 1750, Note_on_c, 2, 86, 0
4, 1750, Note_on_c, 2, 79, 0
4, 1760, Note_on_c, 2, 76, 100
4, 1760, Note_on_c, 2, 83, 100
4, 1800, Note_on_c, 2, 83, 0
4, 1800, Note_on_c, 2, 76, 0
4, 1800, Note_on_c, 2, 79, 100
4, 1800, Note_on_c, 2, 86, 100
4, 1880, Note_on_c, 2, 86, 0
4, 1880, Note_on_c, 2, 79, 0
4, 1880, Note_on_c, 2, 50, 100
4, 1880, Note_on_c, 2, 77, 100
4, 1880, Note_on_c, 2, 84, 100
4, 1920, Note_on_c, 2, 52, 0
4, 2040, Note_on_c, 2, 84, 0
4, 2040, Note_on_c, 2, 77, 0
4, 2040, Note_on_c, 2, 84, 100
4, 2040, Note_on_c, 2, 77, 100
4, 2120, Note_on_c, 2, 77, 0
4, 2120, Note_on_c, 2, 74, 100
4, 2160, Note_on_c, 2, 74, 0
4, 2160, Note_on_c, 2, 84, 0
4, 2160, Note_on_c, 2, 50, 0
4, 2160, Note_on_c, 2, 86, 100
4, 2160, Note_on_c, 2, 83, 100
4, 2160, Note_on_c, 2, 79, 100
4, 2160, Note_on_c, 2, 55, 100
4, 2230, Note_on_c, 2, 79, 0
4, 2230, Note_on_c, 2, 86, 0
4, 2230, Note_on_c, 2, 83, 0
4, 2240, Note_on_c, 2, 81, 100
4, 2240, Note_on_c, 2, 84, 100
4, 2240, Note_on_c, 2, 77, 100
4, 2280, Note_on_c, 2, 77, 0
4, 2280, Note_on_c, 2, 84, 0
4, 2280, Note_on_c, 2, 81, 0
4, 2280, Note_on_c, 2, 86, 100
4, 2280, Note_on_c, 2, 83, 100
4, 2280, Note_on_c, 2, 79, 100
4, 2350, Note_on_c, 2, 79, 0
4, 2350, Note_on_c, 2, 83, 0
4, 2350, Note_on_c, 2, 86, 0
4, 2391, Note_on_c, 2, 81, 100
4, 2397, Note_on_c, 2, 84, 100
4, 2400, Note_on_c, 2, 55, 0
4, 2400, Note_on_c, 2, 88, 100
4, 2481, Note_on_c, 2, 81, 0
4, 2487, Note_on_c, 2, 84, 0
4, 2490, Note_on_c, 2, 88, 0
4, 2520, Note_on_c, 2, 81, 100
4, 2520, Note_on_c, 2, 88, 100
4, 2600, Note_on_c, 2, 88, 0
4, 2600, Note_on_c, 2, 81, 0
4, 2600, Note_on_c, 2, 77, 100
4, 2600, Note_on_c, 2, 84, 100
4, 2640, Note_on_c, 2, 84, 0
4, 2640, Note_on_c, 2, 77, 0
4, 2640, Note_on_c, 2, 79, 100
4, 2640, Note_on_c, 2, 86, 100
4, 2710, Note_on_c, 2, 86, 0
4, 2710, Note_on_c, 2, 79, 0
4, 2720, Note_on_c, 2, 76, 100
4, 2720, Note_on_c, 2, 83, 100
4, 2760, Note_on_c, 2, 83, 0
4, 2760, Note_on_c, 2, 76, 0
4, 2760, Note_on_c, 2, 79, 100
4, 2760, Note_on_c, 2, 86, 100
4, 2840, Note_on_c, 2, 86, 0
4, 2840, Note_on_c, 2, 79, 0
4, 2840, Note_on_c, 2, 77, 100
4, 2840, Note_on_c, 2, 84, 100
4, 3000, Note_on_c, 2, 84, 0
4, 3000, Note_on_c, 2, 77, 0
4, 3000, Note_on_c, 2, 81, 100
4, 3000, Note_on_c, 2, 84, 100
4, 3000, Note_on_c, 2, 77, 100
4, 3120, Note_on_c, 2, 77, 0
4, 3120, Note_on_c, 2, 84, 0
4, 3120, Note_on_c, 2, 81, 0
4, 3120, Note_on_c, 2, 81, 100
4, 3120, Note_on_c, 2, 84, 100
4, 3120, Note_on_c, 2, 77, 100
4, 3200, Note_on_c, 2, 77, 0
4, 3200, Note_on_c, 2, 84, 0
4, 3200, Note_on_c, 2, 81, 0
4, 3200, Note_on_c, 2, 81, 100
4, 3200, Note_on_c, 2, 84, 100
4, 3200, Note_on_c, 2, 77, 100
4, 3240, Note_on_c, 2, 69, 100
4, 3280, Note_on_c, 2, 69, 0
4, 3280, Note_on_c, 2, 72, 100
4, 3320, Note_on_c, 2, 72, 0
4, 3320, Note_on_c, 2, 77, 0
4, 3320, Note_on_c, 2, 84, 0
4, 3320, Note_on_c, 2, 81, 0
4, 3320, Note_on_c, 2, 69, 100
4, 3360, Note_on_c, 2, 69, 0
4, 3360, Note_on_c, 2, 72, 100
4, 3360, Note_on_c, 2, 75, 100
4, 3365, Note_on_c, 2, 75, 0
4, 3365, Note_on_c, 2, 76, 100
4, 3440, Note_on_c, 2, 79, 100
4, 3455, Note_on_c, 2, 76, 0
4, 3560, Note_on_c, 2, 79, 0
4, 3560, Note_on_c, 2, 75, 100
4, 3565, Note_on_c, 2, 75, 0
4, 3565, Note_on_c, 2, 76, 100
4, 3600, Note_on_c, 2, 72, 0
4, 3600, Note_on_c, 2, 79, 100
4, 3685, Note_on_c, 2, 76, 0
4, 3720, Note_on_c, 2, 79, 0
4, 3720, Note_on_c, 2, 76, 100
4, 3800, Note_on_c, 2, 69, 100
4, 3800, Note_on_c, 2, 72, 100
4, 3840, Note_on_c, 2, 76, 0
4, 4040, Note_on_c, 2, 72, 0
4, 4040, Note_on_c, 2, 69, 0
4, 4080, Note_on_c, 2, 68, 100
4, 4080, Note_on_c, 2, 72, 100
4, 4155, Note_on_c, 2, 72, 0
4, 4155, Note_on_c, 2, 68, 0
4, 4200, Note_on_c, 2, 68, 100
4, 4205, Note_on_c, 2, 68, 0
4, 4205, Note_on_c, 2, 69, 100
4, 4240, Note_on_c, 2, 69, 0
4, 4240, Note_on_c, 2, 72, 100
4, 4275, Note_on_c, 2, 72, 0
4, 4280, Note_on_c, 2, 77, 100
4, 4315, Note_on_c, 2, 77, 0
4, 4320, Note_on_c, 2, 72, 100
4, 4320, Note_on_c, 2, 76, 100
4, 4480, Note_on_c, 2, 76, 0
4, 4480, Note_on_c, 2, 72, 0
4, 4480, Note_on_c, 2, 76, 100
4, 4515, Note_on_c, 2, 76, 0
4, 4520, Note_on_c, 2, 75, 100
4, 4555, Note_on_c, 2, 75, 0
4, 4560, Note_on_c, 2, 68, 100
4, 4560, Note_on_c, 2, 64, 100
4, 4560, Note_on_c, 2, 74, 100
4, 4680, Note_on_c, 2, 74, 0
4, 4680, Note_on_c, 2, 64, 0
4, 4680, Note_on_c, 2, 68, 0
4, 4680, Note_on_c, 2, 76, 100
4, 4760, Note_on_c, 2, 76, 0
4, 4760, Note_on_c, 2, 69, 100
4, 4760, Note_on_c, 2, 72, 100
4, 4840, Note_on_c, 2, 72, 0
4, 4840, Note_on_c, 2, 69, 0
4, 4920, Note_on_c, 2, 69, 100
4, 4920, Note_on_c, 2, 72, 100
4, 5000, Note_on_c, 2, 72, 0
4, 5000, Note_on_c, 2, 69, 0
4, 5040, Note_on_c, 2, 76, 100
4, 5040, Note_on_c, 2, 72, 100
4, 5120, Note_on_c, 2, 72, 0
4, 5120, Note_on_c, 2, 76, 0
4, 5160, Note_on_c, 2, 76, 100
4, 5160, Note_on_c, 2, 72, 100
4, 5240, Note_on_c, 2, 72, 0
4, 5240, Note_on_c, 2, 76, 0
4, 5280, Note_on_c, 2, 71, 100
4, 5280, Note_on_c, 2, 67, 100
4, 5280, Note_on_c, 2, 74, 100
4, 5355, Note_on_c, 2, 74, 0
4, 5355, Note_on_c, 2, 67, 0
4, 5355, Note_on_c, 2, 71, 0
4, 5400, Note_on_c, 2, 71, 100
4, 5400, Note_on_c, 2, 67, 100
4, 5400, Note_on_c, 2, 74, 100
4, 5475, Note_on_c, 2, 74, 0
4, 5475, Note_on_c, 2, 67, 0
4, 5475, Note_on_c, 2, 71, 0
4, 5480, Note_on_c, 2, 71, 100
4, 5520, Note_on_c, 2, 74, 100
4, 5520, Note_on_c, 2, 67, 100
4, 5520, Note_on_c, 2, 71, 100
4, 5555, Note_on_c, 2, 71, 0
4, 5595, Note_on_c, 2, 71, 0
4, 5595, Note_on_c, 2, 74, 0
4, 5595, Note_on_c, 2, 67, 0
4, 5600, Note_on_c, 2, 67, 100
4, 5600, Note_on_c, 2, 71, 100
4, 5600, Note_on_c, 2, 74, 100
4, 5675, Note_on_c, 2, 74, 0
4, 5675, Note_on_c, 2, 71, 0
4, 5675, Note_on_c, 2, 67, 0
4, 5720, Note_on_c, 2, 74, 100
4, 5720, Note_on_c, 2, 70, 100
4, 5840, Note_on_c, 2, 70, 0
4, 5840, Note_on_c, 2, 74, 0
4, 5840, Note_on_c, 2, 74, 100
4, 5840, Note_on_c, 2, 70, 100
4, 5880, Note_on_c, 2, 70, 0
4, 5880, Note_on_c, 2, 74, 0
4, 5880, Note_on_c, 2, 76, 100
4, 5880, Note_on_c, 2, 72, 100
4, 5955, Note_on_c, 2, 72, 0
4, 5955, Note_on_c, 2, 76, 0
4, 6000, Note_on_c, 2, 77, 100
4, 6000, Note_on_c, 2, 74, 100
4, 6075, Note_on_c, 2, 74, 0
4, 6075, Note_on_c, 2, 77, 0
4, 6120, Note_on_c, 2, 79, 100
4, 6120, Note_on_c, 2, 76, 100
4, 6195, Note_on_c, 2, 76, 0
4, 6195, Note_on_c, 2, 79, 0
4, 6240, Note_on_c, 2, 72, 100
4, 6240, Note_on_c, 2, 69, 100
4, 6240, Note_on_c, 2, 76, 100
4, 6315, Note_on_c, 2, 76, 0
4, 6315, Note_on_c, 2, 69, 0
4, 6315, Note_on_c, 2, 72, 0
4, 6360, Note_on_c, 2, 72, 100
4, 6360, Note_on_c, 2, 69, 100
4, 6360, Note_on_c, 2, 76, 100
4, 6435, Note_on_c, 2, 76, 0
4, 6435, Note_on_c, 2, 69, 0
4, 6435, Note_on_c, 2, 72, 0
4, 6480, Note_on_c, 2, 77, 100
4, 6480, Note_on_c, 2, 70, 100
4, 6480, Note_on_c, 2, 74, 100
4, 6555, Note_on_c, 2, 74, 0
4, 6555, Note_on_c, 2, 70, 0
4, 6555, Note_on_c, 2, 77, 0
4, 6560, Note_on_c, 2, 70, 100
4, 6600, Note_on_c, 2, 77, 100
4, 6600, Note_on_c, 2, 70, 100
4, 6600, Note_on_c, 2, 74, 100
4, 6635, Note_on_c, 2, 70, 0
4, 6675, Note_on_c, 2, 70, 0
4, 6675, Note_on_c, 2, 77, 0
4, 6675, Note_on_c, 2, 74, 0
4, 6680, Note_on_c, 2, 72, 100
4, 6680, Note_on_c, 2, 76, 100
4, 6800, Note_on_c, 2, 76, 0
4, 6800, Note_on_c, 2, 72, 0
4, 6800, Note_on_c, 2, 72, 100
4, 6840, Note_on_c, 2, 76, 100
4, 6840, Note_on_c, 2, 72, 100
4, 6880, Note_on_c, 2, 72, 0
4, 6915, Note_on_c, 2, 76, 0
4, 6915, Note_on_c, 2, 72, 0
4, 6960, Note_on_c, 2, 77, 100
4, 6960, Note_on_c, 2, 73, 100
4, 6965, Note_on_c, 2, 73, 0
4, 6965, Note_on_c, 2, 74, 100
4, 7025, Note_on_c, 2, 74, 0
4, 7035, Note_on_c, 2, 77, 0
4, 7080, Note_on_c, 2, 76, 100
4, 7080, Note_on_c, 2, 72, 100
4, 7155, Note_on_c, 2, 72, 0
4, 7155, Note_on_c, 2, 76, 0
4, 7200, Note_on_c, 2, 67, 100
4, 7200, Note_on_c, 2, 71, 100
4, 7200, Note_on_c, 2, 74, 100
4, 7275, Note_on_c, 2, 74, 0
4, 7275, Note_on_c, 2, 71, 0
4, 7275, Note_on_c, 2, 67, 0
4, 7320, Note_on_c, 2, 74, 100
4, 7320, Note_on_c, 2, 71, 100
4, 7320, Note_on_c, 2, 67, 100
4, 7395, Note_on_c, 2, 67, 0
4, 7395, Note_on_c, 2, 71, 0
4, 7395, Note_on_c, 2, 74, 0
4, 7440, Note_on_c, 2, 77, 100
4, 7440, Note_on_c, 2, 69, 100
4, 7440, Note_on_c, 2, 72, 100
4, 7515, Note_on_c, 2, 72, 0
4, 7515, Note_on_c, 2, 69, 0
4, 7515, Note_on_c, 2, 77, 0
4, 7560, Note_on_c, 2, 77, 100
4, 7560, Note_on_c, 2, 69, 100
4, 7560, Note_on_c, 2, 72, 100
4, 7635, Note_on_c, 2, 72, 0
4, 7635, Note_on_c, 2, 69, 0
4, 7635, Note_on_c, 2, 77, 0
4, 7680, Note_on_c, 2, 67, 100
4, 7680, Note_on_c, 2, 71, 100
4, 7680, Note_on_c, 2, 74, 100
4, 7755, Note_on_c, 2, 74, 0
4, 7755, Note_on_c, 2, 71, 0
4, 7755, Note_on_c, 2, 67, 0
4, 7800, Note_on_c, 2, 74, 100
4, 7800, Note_on_c, 2, 71, 100
4, 7800, Note_on_c, 2, 67, 100
4, 7875, Note_on_c, 2, 67, 0
4, 7875, Note_on_c, 2, 71, 0
4, 7875, Note_on_c, 2, 74, 0
4, 7880, Note_on_c, 2, 77, 100
4, 7880, Note_on_c, 2, 69, 100
4, 7880, Note_on_c, 2, 72, 100
4, 7940, Note_on_c, 2, 72, 0
4, 7940, Note_on_c, 2, 69, 0
4, 7940, Note_on_c, 2, 77, 0
4, 7960, Note_on_c, 2, 74, 100
4, 7960, Note_on_c, 2, 71, 100
4, 7960, Note_on_c, 2, 79, 100
4, 8020, Note_on_c, 2, 79, 0
4, 8020, Note_on_c, 2, 71, 0
4, 8020, Note_on_c, 2, 74, 0
4, 8040, Note_on_c, 2, 79, 100
4, 8040, Note_on_c, 2, 71, 100
4, 8040, Note_on_c, 2, 74, 100
4, 8115, Note_on_c, 2, 74, 0
4, 8115, Note_on_c, 2, 71, 0
4, 8115, Note_on_c, 2, 79, 0
4, 8160, Note_on_c, 2, 69, 100
4, 8160, Note_on_c, 2, 72, 100
4, 8160, Note_on_c, 2, 77, 100
4, 8235, Note_on_c, 2, 77, 0
4, 8235, Note_on_c, 2, 72, 0
4, 8235, Note_on_c, 2, 69, 0
4, 8280, Note_on_c, 2, 69, 100
4, 8280, Note_on_c, 2, 72, 100
4, 8280, Note_on_c, 2, 77, 100
4, 8355, Note_on_c, 2, 77, 0
4, 8355, Note_on_c, 2, 72, 0
4, 8355, Note_on_c, 2, 69, 0
4, 8360, Note_on_c, 2, 68, 100
4, 8360, Note_on_c, 2, 71, 100
4, 8390, Note_on_c, 2, 71, 0
4, 8390, Note_on_c, 2, 68, 0
4, 8400, Note_on_c, 2, 69, 100
4, 8400, Note_on_c, 2, 72, 100
4, 8400, Note_on_c, 2, 77, 100
4, 8475, Note_on_c, 2, 77, 0
4, 8475, Note_on_c, 2, 72, 0
4, 8475, Note_on_c, 2, 69, 0
4, 8520, Note_on_c, 2, 69, 100
4, 8520, Note_on_c, 2, 72, 100
4, 8520, Note_on_c, 2, 77, 100
4, 8595, Note_on_c, 2, 77, 0
4, 8595, Note_on_c, 2, 72, 0
4, 8595, Note_on_c, 2, 69, 0
4, 8600, Note_on_c, 2, 68, 100
4, 8600, Note_on_c, 2, 71, 100
4, 8630, Note_on_c, 2, 71, 0
4, 8630, Note_on_c, 2, 68, 0
4, 8640, Note_on_c, 2, 69, 100
4, 8640, Note_on_c, 2, 72, 100
4, 8640, Note_on_c, 2, 77, 100
4, 8715, Note_on_c, 2, 77, 0
4, 8715, Note_on_c, 2, 72, 0
4, 8715, Note_on_c, 2, 69, 0
4, 8760, Note_on_c, 2, 69, 100
4, 8760, Note_on_c, 2, 72, 100
4, 8760, Note_on_c, 2, 77, 100
4, 8835, Note_on_c, 2, 77, 0
4, 8835, Note_on_c, 2, 72, 0
4, 8835, Note_on_c, 2, 69, 0
4, 8840, Note_on_c, 2, 68, 100
4, 8840, Note_on_c, 2, 71, 100
4, 8870, Note_on_c, 2, 71, 0
4, 8870, Note_on_c, 2, 68, 0
4, 8880, Note_on_c, 2, 69, 100
4, 8880, Note_on_c, 2, 65, 100
4, 8955, Note_on_c, 2, 65, 0
4, 8955, Note_on_c, 2, 69, 0
4, 8960, Note_on_c, 2, 64, 100
4, 9000, Note_on_c, 2, 64, 0
4, 9000, Note_on_c, 2, 62, 100
4, 9080, Note_on_c, 2, 62, 0
4, 9080, Note_on_c, 2, 71, 100
4, 9080, Note_on_c, 2, 67, 100
4, 9080, Note_on_c, 2, 62, 100
4, 9200, Note_on_c, 2, 62, 0
4, 9200, Note_on_c, 2, 67, 0
4, 9200, Note_on_c, 2, 71, 0
4, 9200, Note_on_c, 2, 59, 100
4, 9240, Note_on_c, 2, 71, 100
4, 9240, Note_on_c, 2, 76, 100
4, 9240, Note_on_c, 2, 79, 100
4, 9315, Note_on_c, 2, 79, 0
4, 9315, Note_on_c, 2, 76, 0
4, 9315, Note_on_c, 2, 71, 0
4, 9320, Note_on_c, 2, 59, 0
4, 9320, Note_on_c, 2, 76, 100
4, 9350, Note_on_c, 2, 76, 0
4, 9360, Note_on_c, 2, 71, 100
4, 9360, Note_on_c, 2, 76, 100
4, 9360, Note_on_c, 2, 79, 100
4, 9435, Note_on_c, 2, 79, 0
4, 9435, Note_on_c, 2, 76, 0
4, 9435, Note_on_c, 2, 71, 0
4, 9440, Note_on_c, 2, 71, 100
4, 9440, Note_on_c, 2, 76, 100
4, 9440, Note_on_c, 2, 79, 100
4, 9560, Note_on_c, 2, 79, 0
4, 9560, Note_on_c, 2, 76, 0
4, 9560, Note_on_c, 2, 71, 0
4, 9560, Note_on_c, 2, 64, 100
4, 9560, Note_on_c, 2, 71, 100
4, 9560, Note_on_c, 2, 79, 100
4, 9595, Note_on_c, 2, 79, 0
4, 9595, Note_on_c, 2, 71, 0
4, 9595, Note_on_c, 2, 64, 0
4, 9600, Note_on_c, 2, 71, 100
4, 9600, Note_on_c, 2, 74, 100
4, 9600, Note_on_c, 2, 76, 100
4, 9675, Note_on_c, 2, 76, 0
4, 9675, Note_on_c, 2, 74, 0
4, 9675, Note_on_c, 2, 71, 0
4, 9720, Note_on_c, 2, 71, 100
4, 9720, Note_on_c, 2, 76, 100
4, 9720, Note_on_c, 2, 74, 100
4, 9795, Note_on_c, 2, 74, 0
4, 9795, Note_on_c, 2, 76, 0
4, 9795, Note_on_c, 2, 71, 0
4, 9800, Note_on_c, 2, 76, 100
4, 9800, Note_on_c, 2, 73, 100
4, 9920, Note_on_c, 2, 73, 0
4, 9920, Note_on_c, 2, 76, 0
4, 9920, Note_on_c, 2, 76, 100
4, 9955, Note_on_c, 2, 76, 0
4, 9960, Note_on_c, 2, 69, 100
4, 9960, Note_on_c, 2, 73, 100
4, 10080, Note_on_c, 2, 73, 0
4, 10080, Note_on_c, 2, 69, 0
4, 10080, Note_on_c, 2, 69, 100
4, 10080, Note_on_c, 2, 72, 100
4, 10080, Note_on_c, 2, 77, 100
4, 10155, Note_on_c, 2, 77, 0
4, 10155, Note_on_c, 2, 72, 0
4, 10155, Note_on_c, 2, 69, 0
4, 10200, Note_on_c, 2, 69, 100
4, 10200, Note_on_c, 2, 72, 100
4, 10200, Note_on_c, 2, 77, 100
4, 10275, Note_on_c, 2, 77, 0
4, 10275, Note_on_c, 2, 72, 0
4, 10275, Note_on_c, 2, 69, 0
4, 10280, Note_on_c, 2, 68, 100
4, 10280, Note_on_c, 2, 71, 100
4, 10310, Note_on_c, 2, 71, 0
4, 10310, Note_on_c, 2, 68, 0
4, 10320, Note_on_c, 2, 69, 100
4, 10320, Note_on_c, 2, 72, 100
4, 10320, Note_on_c, 2, 77, 100
4, 10395, Note_on_c, 2, 77, 0
4, 10395, Note_on_c, 2, 72, 0
4, 10395, Note_on_c, 2, 69, 0
4, 10440, Note_on_c, 2, 69, 100
4, 10440, Note_on_c, 2, 72, 100
4, 10440, Note_on_c, 2, 77, 100
4, 10515, Note_on_c, 2, 77, 0
4, 10515, Note_on_c, 2, 72, 0
4, 10515, Note_on_c, 2, 69, 0
4, 10520, Note_on_c, 2, 68, 100
4, 10520, Note_on_c, 2, 71, 100
4, 10550, Note_on_c, 2, 71, 0
4, 10550, Note_on_c, 2, 68, 0
4, 10560, Note_on_c, 2, 69, 100
4, 10560, Note_on_c, 2, 72, 100
4, 10560, Note_on_c, 2, 77, 100
4, 10635, Note_on_c, 2, 77, 0
4, 10635, Note_on_c, 2, 72, 0
4, 10635, Note_on_c, 2, 69, 0
4, 10680, Note_on_c, 2, 69, 100
4, 10680, Note_on_c, 2, 72, 100
4, 10680, Note_on_c, 2, 77, 100
4, 10755, Note_on_c, 2, 77, 0
4, 10755, Note_on_c, 2, 72, 0
4, 10755, Note_on_c, 2, 69, 0
4, 10760, Note_on_c, 2, 68, 100
4, 10760, Note_on_c, 2, 71, 100
4, 10790, Note_on_c, 2, 71, 0
4, 10790, Note_on_c, 2, 68, 0
4, 10800, Note_on_c, 2, 69, 100
4, 10800, Note_on_c, 2, 65, 100
4, 10875, Note_on_c, 2, 65, 0
4, 10875, Note_on_c, 2, 69, 0
4, 10880, Note_on_c, 2, 64, 100
4, 10920, Note_on_c, 2, 64, 0
4, 10920, Note_on_c, 2, 62, 100
4, 11000, Note_on_c, 2, 62, 0
4, 11000, Note_on_c, 2, 71, 100
4, 11000, Note_on_c, 2, 67, 100
4, 11000, Note_on_c, 2, 62, 100
4, 11120, Note_on_c, 2, 62, 0
4, 11120, Note_on_c, 2, 67, 0
4, 11120, Note_on_c, 2, 71, 0
4, 11120, Note_on_c, 2, 59, 100
4, 11160, Note_on_c, 2, 71, 100
4, 11160, Note_on_c, 2, 76, 100
4, 11160, Note_on_c, 2, 79, 100
4, 11235, Note_on_c, 2, 79, 0
4, 11235, Note_on_c, 2, 76, 0
4, 11235, Note_on_c, 2, 71, 0
4, 11240, Note_on_c, 2, 59, 0
4, 11240, Note_on_c, 2, 76, 100
4, 11270, Note_on_c, 2, 76, 0
4, 11280, Note_on_c, 2, 71, 100
4, 11280, Note_on_c, 2, 76, 100
4, 11280, Note_on_c, 2, 79, 100
4, 11355, Note_on_c, 2, 79, 0
4, 11355, Note_on_c, 2, 76, 0
4, 11355, Note_on_c, 2, 71, 0
4, 11360, Note_on_c, 2, 71, 100
4, 11360, Note_on_c, 2, 76, 100
4, 11360, Note_on_c, 2, 79, 100
4, 11480, Note_on_c, 2, 79, 0
4, 11480, Note_on_c, 2, 76, 0
4, 11480, Note_on_c, 2, 71, 0
4, 11480, Note_on_c, 2, 64, 100
4, 11480, Note_on_c, 2, 71, 100
4, 11480, Note_on_c, 2, 79, 100
4, 11515, Note_on_c, 2, 79, 0
4, 11515, Note_on_c, 2, 71, 0
4, 11515, Note_on_c, 2, 64, 0
4, 11520, Note_on_c, 2, 69, 100
4, 11520, Note_on_c, 2, 73, 100
4, 11520, Note_on_c, 2, 76, 100
4, 11595, Note_on_c, 2, 76, 0
4, 11595, Note_on_c, 2, 73, 0
4, 11595, Note_on_c, 2, 69, 0
4, 11600, Note_on_c, 2, 69, 100
4, 11600, Note_on_c, 2, 73, 100
4, 11600, Note_on_c, 2, 76, 100
4, 11675, Note_on_c, 2, 76, 0
4, 11675, Note_on_c, 2, 73, 0
4, 11675, Note_on_c, 2, 69, 0
4, 11720, Note_on_c, 2, 76, 100
4, 11720, Note_on_c, 2, 73, 100
4, 11880, Note_on_c, 2, 73, 0
4, 11880, Note_on_c, 2, 76, 0
4, 11880, Note_on_c, 2, 76, 100
4, 11880, Note_on_c, 2, 81, 100
4, 11880, Note_on_c, 2, 73, 100
4, 12000, Note_on_c, 2, 73, 0
4, 12000, Note_on_c, 2, 81, 0
4, 12000, Note_on_c, 2, 76, 0
4, 12000, Note_on_c, 2, 69, 100
4, 12000, Note_on_c, 2, 72, 100
4, 12000, Note_on_c, 2, 65, 100
4, 12075, Note_on_c, 2, 65, 0
4, 12075, Note_on_c, 2, 72, 0
4, 12075, Note_on_c, 2, 69, 0
4, 12120, Note_on_c, 2, 69, 100
4, 12120, Note_on_c, 2, 72, 100
4, 12120, Note_on_c, 2, 65, 100
4, 12195, Note_on_c, 2, 65, 0
4, 12195, Note_on_c, 2, 72, 0
4, 12195, Note_on_c, 2, 69, 0
4, 12240, Note_on_c, 2, 71, 100
4, 12240, Note_on_c, 2, 74, 100
4, 12240, Note_on_c, 2, 67, 100
4, 12315, Note_on_c, 2, 67, 0
4, 12315, Note_on_c, 2, 74, 0
4, 12315, Note_on_c, 2, 71, 0
4, 12360, Note_on_c, 2, 71, 100
4, 12360, Note_on_c, 2, 74, 100
4, 12360, Note_on_c, 2, 67, 100
4, 12435, Note_on_c, 2, 67, 0
4, 12435, Note_on_c, 2, 74, 0
4, 12435, Note_on_c, 2, 71, 0
4, 12480, Note_on_c, 2, 69, 100
4, 12480, Note_on_c, 2, 72, 100
4, 12480, Note_on_c, 2, 77, 100
4, 12555, Note_on_c, 2, 77, 0
4, 12555, Note_on_c, 2, 72, 0
4, 12555, Note_on_c, 2, 69, 0
4, 12600, Note_on_c, 2, 69, 100
4, 12600, Note_on_c, 2, 72, 100
4, 12600, Note_on_c, 2, 77, 100
4, 12675, Note_on_c, 2, 77, 0
4, 12675, Note_on_c, 2, 72, 0
4, 12675, Note_on_c, 2, 69, 0
4, 12720, Note_on_c, 2, 71, 100
4, 12720, Note_on_c, 2, 74, 100
4, 12720, Note_on_c, 2, 79, 100
4, 12795, Note_on_c, 2, 79, 0
4, 12795, Note_on_c, 2, 74, 0
4, 12795, Note_on_c, 2, 71, 0
4, 12840, Note_on_c, 2, 71, 100
4, 12840, Note_on_c, 2, 74, 100
4, 12840, Note_on_c, 2, 79, 100
4, 12915, Note_on_c, 2, 79, 0
4, 12915, Note_on_c, 2, 74, 0
4, 12915, Note_on_c, 2, 71, 0
4, 12960, Note_on_c, 2, 88, 100
4, 13050, Note_on_c, 2, 88, 0
4, 13080, Note_on_c, 2, 81, 100
4, 13080, Note_on_c, 2, 88, 100
4, 13160, Note_on_c, 2, 88, 0
4, 13160, Note_on_c, 2, 81, 0
4, 13160, Note_on_c, 2, 77, 100
4, 13160, Note_on_c, 2, 84, 100
4, 13200, Note_on_c, 2, 84, 0
4, 13200, Note_on_c, 2, 77, 0
4, 13200, Note_on_c, 2, 79, 100
4, 13200, Note_on_c, 2, 86, 100
4, 13270, Note_on_c, 2, 86, 0
4, 13270, Note_on_c, 2, 79, 0
4, 13280, Note_on_c, 2, 76, 100
4, 13280, Note_on_c, 2, 83, 100
4, 13320, Note_on_c, 2, 83, 0
4, 13320, Note_on_c, 2, 76, 0
4, 13320, Note_on_c, 2, 79, 100
4, 13320, Note_on_c, 2, 86, 100
4, 13400, Note_on_c, 2, 86, 0
4, 13400, Note_on_c, 2, 79, 0
4, 13400, Note_on_c, 2, 77, 100
4, 13400, Note_on_c, 2, 84, 100
4, 13560, Note_on_c, 2, 84, 0
4, 13560, Note_on_c, 2, 77, 0
4, 13560, Note_on_c, 2, 81, 100
4, 13560, Note_on_c, 2, 84, 100
4, 13560, Note_on_c, 2, 77, 100
4, 13680, Note_on_c, 2, 77, 0
4, 13680, Note_on_c, 2, 84, 0
4, 13680, Note_on_c, 2, 81, 0
4, 13680, Note_on_c, 2, 81, 100
4, 13680, Note_on_c, 2, 75, 100
4, 13700, Note_on_c, 2, 75, 0
4, 13720, Note_on_c, 2, 74, 100
4, 13740, Note_on_c, 2, 74, 0
4, 13760, Note_on_c, 2, 81, 0
4, 13760, Note_on_c, 2, 72, 100
4, 13780, Note_on_c, 2, 72, 0
4, 13800, Note_on_c, 2, 72, 100
4, 13800, Note_on_c, 2, 65, 100
4, 13800, Note_on_c, 2, 77, 100
4, 13875, Note_on_c, 2, 77, 0
4, 13875, Note_on_c, 2, 65, 0
4, 13875, Note_on_c, 2, 72, 0
4, 13880, Note_on_c, 2, 76, 100
4, 13880, Note_on_c, 2, 72, 100
4, 13920, Note_on_c, 2, 72, 100
4, 13920, Note_on_c, 2, 75, 100
4, 13925, Note_on_c, 2, 75, 0
4, 13925, Note_on_c, 2, 76, 100
4, 13955, Note_on_c, 2, 76, 0
4, 13955, Note_on_c, 2, 72, 0
4, 14000, Note_on_c, 2, 79, 100
4, 14015, Note_on_c, 2, 76, 0
4, 14120, Note_on_c, 2, 79, 0
4, 14120, Note_on_c, 2, 75, 100
4, 14125, Note_on_c, 2, 75, 0
4, 14125, Note_on_c, 2, 76, 100
4, 14160, Note_on_c, 2, 72, 0
4, 14160, Note_on_c, 2, 79, 100
4, 14245, Note_on_c, 2, 76, 0
4, 14280, Note_on_c, 2, 79, 0
4, 14280, Note_on_c, 2, 76, 100
4, 14360, Note_on_c, 2, 69, 100
4, 14360, Note_on_c, 2, 72, 100
4, 14400, Note_on_c, 2, 76, 0
4, 14600, Note_on_c, 2, 72, 0
4, 14600, Note_on_c, 2, 69, 0
4, 14640, Note_on_c, 2, 68, 100
4, 14640, Note_on_c, 2, 72, 100
4, 14715, Note_on_c, 2, 72, 0
4, 14715, Note_on_c, 2, 68, 0
4, 14760, Note_on_c, 2, 68, 100
4, 14765, Note_on_c, 2, 68, 0
4, 14765, Note_on_c, 2, 69, 100
4, 14800, Note_on_c, 2, 69, 0
4, 14800, Note_on_c, 2, 72, 100
4, 14835, Note_on_c, 2, 72, 0
4, 14840, Note_on_c, 2, 77, 100
4, 14875, Note_on_c, 2, 77, 0
4, 14880, Note_on_c, 2, 72, 100
4, 14880, Note_on_c, 2, 76, 100
4, 15040, Note_on_c, 2, 76, 0
4, 15040, Note_on_c, 2, 72, 0
4, 15040, Note_on_c, 2, 76, 100
4, 15075, Note_on_c, 2, 76, 0
4, 15080, Note_on_c, 2, 75, 100
4, 15115, Note_on_c, 2, 75, 0
4, 15120, Note_on_c, 2, 68, 100
4, 15120, Note_on_c, 2, 64, 100
4, 15120, Note_on_c, 2, 74, 100
4, 15240, Note_on_c, 2, 74, 0
4, 15240, Note_on_c, 2, 64, 0
4, 15240, Note_on_c, 2, 68, 0
4, 15240, Note_on_c, 2, 76, 100
4, 15320, Note_on_c, 2, 76, 0
4, 15320, Note_on_c, 2, 69, 100
4, 15320, Note_on_c, 2, 72, 100
4, 15400, Note_on_c, 2, 72, 0
4, 15400, Note_on_c, 2, 69, 0
4, 15480, Note_on_c, 2, 69, 100
4, 15480, Note_on_c, 2, 72, 100
4, 15560, Note_on_c, 2, 72, 0
4, 15560, Note_on_c, 2, 69, 0
4, 15600, Note_on_c, 2, 76, 100
4, 15600, Note_on_c, 2, 72, 100
4, 15680, Note_on_c, 2, 72, 0
4, 15680, Note_on_c, 2, 76, 0
4, 15720, Note_on_c, 2, 76, 100
4, 15720, Note_on_c, 2, 72, 100
4, 15800, Note_on_c, 2, 72, 0
4, 15800, Note_on_c, 2, 76, 0
4, 15840, Note_on_c, 2, 71, 100
4, 15840, Note_on_c, 2, 67, 100
4, 15840, Note_on_c, 2, 74, 100
4, 15915, Note_on_c, 2, 74, 0
4, 15915, Note_on_c, 2, 67, 0
4, 15915, Note_on_c, 2, 71, 0
4, 15960, Note_on_c, 2, 71, 100
4, 15960, Note_on_c, 2, 67, 100
4, 15960, Note_on_c, 2, 74, 100
4, 16035, Note_on_c, 2, 74, 0
4, 16035, Note_on_c, 2, 67, 0
4, 16035, Note_on_c, 2, 71, 0
4, 16040, Note_on_c, 2, 71, 100
4, 16080, Note_on_c, 2, 74, 100
4, 16080, Note_on_c, 2, 67, 100
4, 16080, Note_on_c, 2, 71, 100
4, 16115, Note_on_c, 2, 71, 0
4, 16155, Note_on_c, 2, 71, 0
4, 16155, Note_on_c, 2, 74, 0
4, 16155, Note_on_c, 2, 67, 0
4, 16160, Note_on_c, 2, 67, 100
4, 16160, Note_on_c, 2, 71, 100
4, 16160, Note_on_c, 2, 74, 100
4, 16235, Note_on_c, 2, 74, 0
4, 16235, Note_on_c, 2, 71, 0
4, 16235, Note_on_c, 2, 67, 0
4, 16280, Note_on_c, 2, 74, 100
4, 16280, Note_on_c, 2, 70, 100
4, 16400, Note_on_c, 2, 70, 0
4, 16400, Note_on_c, 2, 74, 0
4, 16400, Note_on_c, 2, 74, 100
4, 16400, Note_on_c, 2, 70, 100
4, 16440, Note_on_c, 2, 70, 0
4, 16440, Note_on_c, 2, 74, 0
4, 16440, Note_on_c, 2, 76, 100
4, 16440, Note_on_c, 2, 72, 100
4, 16515, Note_on_c, 2, 72, 0
4, 16515, Note_on_c, 2, 76, 0
4, 16560, Note_on_c, 2, 77, 100
4, 16560, Note_on_c, 2, 74, 100
4, 16635, Note_on_c, 2, 74, 0
4, 16635, Note_on_c, 2, 77, 0
4, 16680, Note_on_c, 2, 79, 100
4, 16680, Note_on_c, 2, 76, 100
4, 16755, Note_on_c, 2, 76, 0
4, 16755, Note_on_c, 2, 79, 0
4, 16800, Note_on_c, 2, 72, 100
4, 16800, Note_on_c, 2, 69, 100
4, 16800, Note_on_c, 2, 76, 100
4, 16875, Note_on_c, 2, 76, 0
4, 16875, Note_on_c, 2, 69, 0
4, 16875, Note_on_c, 2, 72, 0
4, 16920, Note_on_c, 2, 72, 100
4, 16920, Note_on_c, 2, 69, 100
4, 16920, Note_on_c, 2, 76, 100
4, 16995, Note_on_c, 2, 76, 0
4, 16995, Note_on_c, 2, 69, 0
4, 16995, Note_on_c, 2, 72, 0
4, 17040, Note_on_c, 2, 77, 100
4, 17040, Note_on_c, 2, 70, 100
4, 17040, Note_on_c, 2, 74, 100
4, 17115, Note_on_c, 2, 74, 0
4, 17115, Note_on_c, 2, 70, 0
4, 17115, Note_on_c, 2, 77, 0
4, 17120, Note_on_c, 2, 70, 100
4, 17160, Note_on_c, 2, 77, 100
4, 17160, Note_on_c, 2, 70, 100
4, 17160, Note_on_c, 2, 74, 100
4, 17195, Note_on_c, 2, 70, 0
4, 17235, Note_on_c, 2, 70, 0
4, 17235, Note_on_c, 2, 77, 0
4, 17235, Note_on_c, 2, 74, 0
4, 17240, Note_on_c, 2, 72, 100
4, 17240, Note_on_c, 2, 76, 100
4, 17360, Note_on_c, 2, 76, 0
4, 17360, Note_on_c, 2, 72, 0
4, 17360, Note_on_c, 2, 72, 100
4, 17400, Note_on_c, 2, 76, 100
4, 17400, Note_on_c, 2, 72, 100
4, 17440, Note_on_c, 2, 72, 0
4, 17475, Note_on_c, 2, 76, 0
4, 17475, Note_on_c, 2, 72, 0
4, 17520, Note_on_c, 2, 77, 100
4, 17520, Note_on_c, 2, 73, 100
4, 17525, Note_on_c, 2, 73, 0
4, 17525, Note_on_c, 2, 74, 100
4, 17585, Note_on_c, 2, 74, 0
4, 17595, Note_on_c, 2, 77, 0
4, 17640, Note_on_c, 2, 76, 100
4, 17640, Note_on_c, 2, 72, 100
4, 17715, Note_on_c, 2, 72, 0
4, 17715, Note_on_c, 2, 76, 0
4, 17760, Note_on_c, 2, 67, 100
4, 17760, Note_on_c, 2, 71, 100
4, 17760, Note_on_c, 2, 74, 100
4, 17835, Note_on_c, 2, 74, 0
4, 17835, Note_on_c, 2, 71, 0
4, 17835, Note_on_c, 2, 67, 0
4, 17880, Note_on_c, 2, 74, 100
4, 17880, Note_on_c, 2, 71, 100
4, 17880, Note_on_c, 2, 67, 100
4, 17955, Note_on_c, 2, 67, 0
4, 17955, Note_on_c, 2, 71, 0
4, 17955, Note_on_c, 2, 74, 0
4, 18000, Note_on_c, 2, 77, 100
4, 18000, Note_on_c, 2, 69, 100
4, 18000, Note_on_c, 2, 72, 100
4, 18075, Note_on_c, 2, 72, 0
4, 18075, Note_on_c, 2, 69, 0
4, 18075, Note_on_c, 2, 77, 0
4, 18120, Note_on_c, 2, 77, 100
4, 18120, Note_on_c, 2, 69, 100
4, 18120, Note_on_c, 2, 72, 100
4, 18195, Note_on_c, 2, 72, 0
4, 18195, Note_on_c, 2, 69, 0
4, 18195, Note_on_c, 2, 77, 0
4, 18240, Note_on_c, 2, 67, 100
4, 18240, Note_on_c, 2, 71, 100
4, 18240, Note_on_c, 2, 74, 100
4, 18315, Note_on_c, 2, 74, 0
4, 18315, Note_on_c, 2, 71, 0
4, 18315, Note_on_c, 2, 67, 0
4, 18360, Note_on_c, 2, 74, 100
4, 18360, Note_on_c, 2, 71, 100
4, 18360, Note_on_c, 2, 67, 100
4, 18435, Note_on_c, 2, 67, 0
4, 18435, Note_on_c, 2, 71, 0
4, 18435, Note_on_c, 2, 74, 0
4, 18440, Note_on_c, 2, 77, 100
4, 18440, Note_on_c, 2, 69, 100
4, 18440, Note_on_c, 2, 72, 100
4, 18500, Note_on_c, 2, 72, 0
4, 18500, Note_on_c, 2, 69, 0
4, 18500, Note_on_c, 2, 77, 0
4, 18520, Note_on_c, 2, 74, 100
4, 18520, Note_on_c, 2, 71, 100
4, 18520, Note_on_c, 2, 79, 100
4, 18580, Note_on_c, 2, 79, 0
4, 18580, Note_on_c, 2, 71, 0
4, 18580, Note_on_c, 2, 74, 0
4, 18600, Note_on_c, 2, 79, 100
4, 18600, Note_on_c, 2, 71, 100
4, 18600, Note_on_c, 2, 74, 100
4, 18675, Note_on_c, 2, 74, 0
4, 18675, Note_on_c, 2, 71, 0
4, 18675, Note_on_c, 2, 79, 0
4, 18720, Note_on_c, 2, 69, 100
4, 18720, Note_on_c, 2, 72, 100
4, 18720, Note_on_c, 2, 77, 100
4, 18795, Note_on_c, 2, 77, 0
4, 18795, Note_on_c, 2, 72, 0
4, 18795, Note_on_c, 2, 69, 0
4, 18840, Note_on_c, 2, 69, 100
4, 18840, Note_on_c, 2, 72, 100
4, 18840, Note_on_c, 2, 77, 100
4, 18915, Note_on_c, 2, 77, 0
4, 18915, Note_on_c, 2, 72, 0
4, 18915, Note_on_c, 2, 69, 0
4, 18920, Note_on_c, 2, 68, 100
4, 18920, Note_on_c, 2, 71, 100
4, 18950, Note_on_c, 2, 71, 0
4, 18950, Note_on_c, 2, 68, 0
4, 18960, Note_on_c, 2, 69, 100
4, 18960, Note_on_c, 2, 72, 100
4, 18960, Note_on_c, 2, 77, 100
4, 19035, Note_on_c, 2, 77, 0
4, 19035, Note_on_c, 2, 72, 0
4, 19035, Note_on_c, 2, 69, 0
4, 19080, Note_on_c, 2, 69, 100
4, 19080, Note_on_c, 2, 72, 100
4, 19080, Note_on_c, 2, 77, 100
4, 19155, Note_on_c, 2, 77, 0
4, 19155, Note_on_c, 2, 72, 0
4, 19155, Note_on_c, 2, 69, 0
4, 19160, Note_on_c, 2, 68, 100
4, 19160, Note_on_c, 2, 71, 100
4, 19190, Note_on_c, 2, 71, 0
4, 19190, Note_on_c, 2, 68, 0
4, 19200, Note_on_c, 2, 69, 100
4, 19200, Note_on_c, 2, 72, 100
4, 19200, Note_on_c, 2, 77, 100
4, 19275, Note_on_c, 2, 77, 0
4, 19275, Note_on_c, 2, 72, 0
4, 19275, Note_on_c, 2, 69, 0
4, 19320, Note_on_c, 2, 69, 100
4, 19320, Note_on_c, 2, 72, 100
4, 19320, Note_on_c, 2, 77, 100
4, 19395, Note_on_c, 2, 77, 0
4, 19395, Note_on_c, 2, 72, 0
4, 19395, Note_on_c, 2, 69, 0
4, 19400, Note_on_c, 2, 68, 100
4, 19400, Note_on_c, 2, 71, 100
4, 19430, Note_on_c, 2, 71, 0
4, 19430, Note_on_c, 2, 68, 0
4, 19440, Note_on_c, 2, 69, 100
4, 19440, Note_on_c, 2, 65, 100
4, 19515, Note_on_c, 2, 65, 0
4, 19515, Note_on_c, 2, 69, 0
4, 19520, Note_on_c, 2, 64, 100
4, 19560, Note_on_c, 2, 64, 0
4, 19560, Note_on_c, 2, 62, 100
4, 19640, Note_on_c, 2, 62, 0
4, 19640, Note_on_c, 2, 71, 100
4, 19640, Note_on_c, 2, 67, 100
4, 19640, Note_on_c, 2, 62, 100
4, 19760, Note_on_c, 2, 62, 0
4, 19760, Note_on_c, 2, 67, 0
4, 19760, Note_on_c, 2, 71, 0
4, 19760, Note_on_c, 2, 59, 100
4, 19800, Note_on_c, 2, 71, 100
4, 19800, Note_on_c, 2, 76, 100
4, 19800, Note_on_c, 2, 79, 100
4, 19875, Note_on_c, 2, 79, 0
4, 19875, Note_on_c, 2, 76, 0
4, 19875, Note_on_c, 2, 71, 0
4, 19880, Note_on_c, 2, 59, 0
4, 19880, Note_on_c, 2, 76, 100
4, 19910, Note_on_c, 2, 76, 0
4, 19920, Note_on_c, 2, 71, 100
4, 19920, Note_on_c, 2, 76, 100
4, 19920, Note_on_c, 2, 79, 100
4, 19995, Note_on_c, 2, 79, 0
4, 19995, Note_on_c, 2, 76, 0
4, 19995, Note_on_c, 2, 71, 0
4, 20000, Note_on_c, 2, 71, 100
4, 20000, Note_on_c, 2, 76, 100
4, 20000, Note_on_c, 2, 79, 100
4, 20120, Note_on_c, 2, 79, 0
4, 20120, Note_on_c, 2, 76, 0
4, 20120, Note_on_c, 2, 71, 0
4, 20120, Note_on_c, 2, 64, 100
4, 20120, Note_on_c, 2, 71, 100
4, 20120, Note_on_c, 2, 79, 100
4, 20155, Note_on_c, 2, 79, 0
4, 20155, Note_on_c, 2, 71, 0
4, 20155, Note_on_c, 2, 64, 0
4, 20160, Note_on_c, 2, 71, 100
4, 20160, Note_on_c, 2, 74, 100
4, 20160, Note_on_c, 2, 76, 100
4, 20235, Note_on_c, 2, 76, 0
4, 20235, Note_on_c, 2, 74, 0
4, 20235, Note_on_c, 2, 71, 0
4, 20280, Note_on_c, 2, 71, 100
4, 20280, Note_on_c, 2, 76, 100
4, 20280, Note_on_c, 2, 74, 100
4, 20355, Note_on_c, 2, 74, 0
4, 20355, Note_on_c, 2, 76, 0
4, 20355, Note_on_c, 2, 71, 0
4, 20360, Note_on_c, 2, 76, 100
4, 20360, Note_on_c, 2, 73, 100
4, 20480, Note_on_c, 2, 73, 0
4, 20480, Note_on_c, 2, 76, 0
4, 20480, Note_on_c, 2, 76, 100
4, 20515, Note_on_c, 2, 76, 0
4, 20520, Note_on_c, 2, 69, 100
4, 20520, Note_on_c, 2, 73, 100
4, 20640, Note_on_c, 2, 73, 0
4, 20640, Note_on_c, 2, 69, 0
4, 20640, Note_on_c, 2, 69, 100
4, 20640, Note_on_c, 2, 72, 100
4, 20640, Note_on_c, 2, 77, 100
4, 20715, Note_on_c, 2, 77, 0
4, 20715, Note_on_c, 2, 72, 0
4, 20715, Note_on_c, 2, 69, 0
4, 20760, Note_on_c, 2, 69, 100
4, 20760, Note_on_c, 2, 72, 100
4, 20760, Note_on_c, 2, 77, 100
4, 20835, Note_on_c, 2, 77, 0
4, 20835, Note_on_c, 2, 72, 0
4, 20835, Note_on_c, 2, 69, 0
4, 20840, Note_on_c, 2, 68, 100
4, 20840, Note_on_c, 2, 71, 100
4, 20870, Note_on_c, 2, 71, 0
4, 20870, Note_on_c, 2, 68, 0
4, 20880, Note_on_c, 2, 69, 100
4, 20880, Note_on_c, 2, 72, 100
4, 20880, Note_on_c, 2, 77, 100
4, 20955, Note_on_c, 2, 77, 0
4, 20955, Note_on_c, 2, 72, 0
4, 20955, Note_on_c, 2, 69, 0
4, 21000, Note_on_c, 2, 69, 100
4, 21000, Note_on_c, 2, 72, 100
4, 21000, Note_on_c, 2, 77, 100
4, 21075, Note_on_c, 2, 77, 0
4, 21075, Note_on_c, 2, 72, 0
4, 21075, Note_on_c, 2, 69, 0
4, 21080, Note_on_c, 2, 68, 100
4, 21080, Note_on_c, 2, 71, 100
4, 21110, Note_on_c, 2, 71, 0
4, 21110, Note_on_c, 2, 68, 0
4, 21120, Note_on_c, 2, 69, 100
4, 21120, Note_on_c, 2, 72, 100
4, 21120, Note_on_c, 2, 77, 100
4, 21195, Note_on_c, 2, 77, 0
4, 21195, Note_on_c, 2, 72, 0
4, 21195, Note_on_c, 2, 69, 0
4, 21240, Note_on_c, 2, 69, 100
4, 21240, Note_on_c, 2, 72, 100
4, 21240, Note_on_c, 2, 77, 100
4, 21315, Note_on_c, 2, 77, 0
4, 21315, Note_on_c, 2, 72, 0
4, 21315, Note_on_c, 2, 69, 0
4, 21320, Note_on_c, 2, 68, 100
4, 21320, Note_on_c, 2, 71, 100
4, 21350, Note_on_c, 2, 71, 0
4, 21350, Note_on_c, 2, 68, 0
4, 21360, Note_on_c, 2, 69, 100
4, 21360, Note_on_c, 2, 65, 100
4, 21435, Note_on_c, 2, 65, 0
4, 21435, Note_on_c, 2, 69, 0
4, 21440, Note_on_c, 2, 64, 100
4, 21480, Note_on_c, 2, 64, 0
4, 21480, Note_on_c, 2, 62, 100
4, 21560, Note_on_c, 2, 62, 0
4, 21560, Note_on_c, 2, 71, 100
4, 21560, Note_on_c, 2, 67, 100
4, 21560, Note_on_c, 2, 62, 100
4, 21680, Note_on_c, 2, 62, 0
4, 21680, Note_on_c, 2, 67, 0
4, 21680, Note_on_c, 2, 71, 0
4, 21680, Note_on_c, 2, 59, 100
4, 21720, Note_on_c, 2, 71, 100
4, 21720, Note_on_c, 2, 76, 100
4, 21720, Note_on_c, 2, 79, 100
4, 21795, Note_on_c, 2, 79, 0
4, 21795, Note_on_c, 2, 76, 0
4, 21795, Note_on_c, 2, 71, 0
4, 21800, Note_on_c, 2, 59, 0
4, 21800, Note_on_c, 2, 76, 100
4, 21830, Note_on_c, 2, 76, 0
4, 21840, Note_on_c, 2, 71, 100
4, 21840, Note_on_c, 2, 76, 100
4, 21840, Note_on_c, 2, 79, 100
4, 21915, Note_on_c, 2, 79, 0
4, 21915, Note_on_c, 2, 76, 0
4, 21915, Note_on_c, 2, 71, 0
4, 21920, Note_on_c, 2, 71, 100
4, 21920, Note_on_c, 2, 76, 100
4, 21920, Note_on_c, 2, 79, 100
4, 22040, Note_on_c, 2, 79, 0
4, 22040, Note_on_c, 2, 76, 0
4, 22040, Note_on_c, 2, 71, 0
4, 22040, Note_on_c, 2, 64, 100
4, 22040, Note_on_c, 2, 71, 100
4, 22040, Note_on_c, 2, 79, 100
4, 22075, Note_on_c, 2, 79, 0
4, 22075, Note_on_c, 2, 71, 0
4, 22075, Note_on_c, 2, 64, 0
4, 22080, Note_on_c, 2, 69, 100
4, 22080, Note_on_c, 2, 73, 100
4, 22080, Note_on_c, 2, 76, 100
4, 22155, Note_on_c, 2, 76, 0
4, 22155, Note_on_c, 2, 73, 0
4, 22155, Note_on_c, 2, 69, 0
4, 22160, Note_on_c, 2, 69, 100
4, 22160, Note_on_c, 2, 73, 100
4, 22160, Note_on_c, 2, 76, 100
4, 22235, Note_on_c, 2, 76, 0
4, 22235, Note_on_c, 2, 73, 0
4, 22235, Note_on_c, 2, 69, 0
4, 22280, Note_on_c, 2, 76, 100
4, 22280, Note_on_c, 2, 73, 100
4, 22440, Note_on_c, 2, 73, 0
4, 22440, Note_on_c, 2, 76, 0
4, 22440, Note_on_c, 2, 76, 100
4, 22440, Note_on_c, 2, 81, 100
4, 22440, Note_on_c, 2, 73, 100
4, 22560, Note_on_c, 2, 73, 0
4, 22560, Note_on_c, 2, 81, 0
4, 22560, Note_on_c, 2, 76, 0
4, 22560, Note_on_c, 2, 69, 100
4, 22560, Note_on_c, 2, 72, 100
4, 22560, Note_on_c, 2, 65, 100
4, 22635, Note_on_c, 2, 65, 0
4, 22635, Note_on_c, 2, 72, 0
4, 22635, Note_on_c, 2, 69, 0
4, 22680, Note_on_c, 2, 69, 100
4, 22680, Note_on_c, 2, 72, 100
4, 22680, Note_on_c, 2, 65, 100
4, 22755, Note_on_c, 2, 65, 0
4, 22755, Note_on_c, 2, 72, 0
4, 22755, Note_on_c, 2, 69, 0
4, 22800, Note_on_c, 2, 71, 100
4, 22800, Note_on_c, 2, 74, 100
4, 22800, Note_on_c, 2, 67, 100
4, 22875, Note_on_c, 2, 67, 0
4, 22875, Note_on_c, 2, 74, 0
4, 22875, Note_on_c, 2, 71, 0
4, 22920, Note_on_c, 2, 71, 100
4, 22920, Note_on_c, 2, 74, 100
4, 22920, Note_on_c, 2, 67, 100
4, 22995, Note_on_c, 2, 67, 0
4, 22995, Note_on_c, 2, 74, 0
4, 22995, Note_on_c, 2, 71, 0
4, 23040, Note_on_c, 2, 69, 100
4, 23040, Note_on_c, 2, 72, 100
4, 23040, Note_on_c, 2, 77, 100
4, 23115, Note_on_c, 2, 77, 0
4, 23115, Note_on_c, 2, 72, 0
4, 23115, Note_on_c, 2, 69, 0
4, 23160, Note_on_c, 2, 69, 100
4, 23160, Note_on_c, 2, 72, 100
4, 23160, Note_on_c, 2, 77, 100
4, 23235, Note_on_c, 2, 77, 0
4, 23235, Note_on_c, 2, 72, 0
4, 23235, Note_on_c, 2, 69, 0
4, 23280, Note_on_c, 2, 71, 100
4, 23280, Note_on_c, 2, 74, 100
4, 23280, Note_on_c, 2, 79, 100
4, 23355, Note_on_c, 2, 79, 0
4, 23355, Note_on_c, 2, 74, 0
4, 23355, Note_on_c, 2, 71, 0
4, 23400, Note_on_c, 2, 71, 100
4, 23400, Note_on_c, 2, 74, 100
4, 23400, Note_on_c, 2, 79, 100
4, 23475, Note_on_c, 2, 79, 0
4, 23475, Note_on_c, 2, 74, 0
4, 23475, Note_on_c, 2, 71, 0
4, 23520, Note_on_c, 2, 88, 100
4, 23610, Note_on_c, 2, 88, 0
4, 23640, Note_on_c, 2, 81, 100
4, 23640, Note_on_c, 2, 88, 100
4, 23720, Note_on_c, 2, 88, 0
4, 23720, Note_on_c, 2, 81, 0
4, 23720, Note_on_c, 2, 77, 100
4, 23720, Note_on_c, 2, 84, 100
4, 23760, Note_on_c, 2, 84, 0
4, 23760, Note_on_c, 2, 77, 0
4, 23760, Note_on_c, 2, 79, 100
4, 23760, Note_on_c, 2, 86, 100
4, 23830, Note_on_c, 2, 86, 0
4, 23830, Note_on_c, 2, 79, 0
4, 23840, Note_on_c, 2, 76, 100
4, 23840, Note_on_c, 2, 83, 100
4, 23880, Note_on_c, 2, 83, 0
4, 23880, Note_on_c, 2, 76, 0
4, 23880, Note_on_c, 2, 79, 100
4, 23880, Note_on_c, 2, 86, 100
4, 23960, Note_on_c, 2, 86, 0
4, 23960, Note_on_c, 2, 79, 0
4, 23960, Note_on_c, 2, 77, 100
4, 23960, Note_on_c, 2, 84, 100
4, 24120, Note_on_c, 2, 84, 0
4, 24120, Note_on_c, 2, 77, 0
4, 24120, Note_on_c, 2, 81, 100
4, 24120, Note_on_c, 2, 84, 100
4, 24120, Note_on_c, 2, 77, 100
4, 24240, Note_on_c, 2, 77, 0
4, 24240, Note_on_c, 2, 84, 0
4, 24240, Note_on_c, 2, 81, 0
4, 24240, Note_on_c, 2, 81, 100
4, 24240, Note_on_c, 2, 75, 100
4, 24260, Note_on_c, 2, 75, 0
4, 24280, Note_on_c, 2, 74, 100
4, 24300, Note_on_c, 2, 74, 0
4, 24320, Note_on_c, 2, 81, 0
4, 24320, Note_on_c, 2, 72, 100
4, 24340, Note_on_c, 2, 72, 0
4, 24360, Note_on_c, 2, 72, 100
4, 24360, Note_on_c, 2, 65, 100
4, 24360, Note_on_c, 2, 77, 100
4, 24435, Note_on_c, 2, 77, 0
4, 24435, Note_on_c, 2, 65, 0
4, 24435, Note_on_c, 2, 72, 0
4, 24440, Note_on_c, 2, 76, 100
4, 24440, Note_on_c, 2, 72, 100
4, 24480, Note_on_c, 2, 72, 100
4, 24480, Note_on_c, 2, 75, 100
4, 24485, Note_on_c, 2, 75, 0
4, 24485, Note_on_c, 2, 76, 100
4, 24515, Note_on_c, 2, 76, 0
4, 24515, Note_on_c, 2, 72, 0
4, 24560, Note_on_c, 2, 79, 100
4, 24575, Note_on_c, 2, 76, 0
4, 24680, Note_on_c, 2, 79, 0
4, 24680, Note_on_c, 2, 75, 100
4, 24685, Note_on_c, 2, 75, 0
4, 24685, Note_on_c, 2, 76, 100
4, 24720, Note_on_c, 2, 72, 0
4, 24720, Note_on_c, 2, 79, 100
4, 24805, Note_on_c, 2, 76, 0
4, 24840, Note_on_c, 2, 79, 0
4, 24840, Note_on_c, 2, 76, 100
4, 24920, Note_on_c, 2, 69, 100
4, 24920, Note_on_c, 2, 72, 100
4, 24960, Note_on_c, 2, 76, 0
4, 25160, Note_on_c, 2, 72, 0
4, 25160, Note_on_c, 2, 69, 0
4, 25200, Note_on_c, 2, 68, 100
4, 25200, Note_on_c, 2, 72, 100
4, 25275, Note_on_c, 2, 72, 0
4, 25275, Note_on_c, 2, 68, 0
4, 25320, Note_on_c, 2, 68, 100
4, 25325, Note_on_c, 2, 68, 0
4, 25325, Note_on_c, 2, 69, 100
4, 25360, Note_on_c, 2, 69, 0
4, 25360, Note_on_c, 2, 72, 100
4, 25395, Note_on_c, 2, 72, 0
4, 25400, Note_on_c, 2, 77, 100
4, 25435, Note_on_c, 2, 77, 0
4, 25440, Note_on_c, 2, 72, 100
4, 25440, Note_on_c, 2, 76, 100
4, 25600, Note_on_c, 2, 76, 0
4, 25600, Note_on_c, 2, 72, 0
4, 25600, Note_on_c, 2, 76, 100
4, 25635, Note_on_c, 2, 76, 0
4, 25640, Note_on_c, 2, 75, 100
4, 25675, Note_on_c, 2, 75, 0
4, 25680, Note_on_c, 2, 68, 100
4, 25680, Note_on_c, 2, 64, 100
4, 25680, Note_on_c, 2, 74, 100
4, 25800, Note_on_c, 2, 74, 0
4, 25800, Note_on_c, 2, 64, 0
4, 25800, Note_on_c, 2, 68, 0
4, 25800, Note_on_c, 2, 76, 100
4, 25880, Note_on_c, 2, 76, 0
4, 25880, Note_on_c, 2, 69, 100
4, 25880, Note_on_c, 2, 72, 100
4, 25960, Note_on_c, 2, 72, 0
4, 25960, Note_on_c, 2, 69, 0
4, 26040, Note_on_c, 2, 69, 100
4, 26040, Note_on_c, 2, 72, 100
4, 26120, Note_on_c, 2, 72, 0
4, 26120, Note_on_c, 2, 69, 0
4, 26160, Note_on_c, 2, 76, 100
4, 26160, Note_on_c, 2, 72, 100
4, 26240, Note_on_c, 2, 72, 0
4, 26240, Note_on_c, 2, 76, 0
4, 26280, Note_on_c, 2, 76, 100
4, 26280, Note_on_c, 2, 72, 100
4, 26360, Note_on_c, 2, 72, 0
4, 26360, Note_on_c, 2, 76, 0
4, 26400, Note_on_c, 2, 71, 100
4, 26400, Note_on_c, 2, 67, 100
4, 26400, Note_on_c, 2, 74, 100
4, 26475, Note_on_c, 2, 74, 0
4, 26475, Note_on_c, 2, 67, 0
4, 26475, Note_on_c, 2, 71, 0
4, 26520, Note_on_c, 2, 71, 100
4, 26520, Note_on_c, 2, 67, 100
4, 26520, Note_on_c, 2, 74, 100
4, 26595, Note_on_c, 2, 74, 0
4, 26595, Note_on_c, 2, 67, 0
4, 26595, Note_on_c, 2, 71, 0
4, 26600, Note_on_c, 2, 71, 100
4, 26640, Note_on_c, 2, 74, 100
4, 26640, Note_on_c, 2, 67, 100
4, 26640, Note_on_c, 2, 71, 100
4, 26675, Note_on_c, 2, 71, 0
4, 26715, Note_on_c, 2, 71, 0
4, 26715, Note_on_c, 2, 74, 0
4, 26715, Note_on_c, 2, 67, 0
4, 26720, Note_on_c, 2, 67, 100
4, 26720, Note_on_c, 2, 71, 100
4, 26720, Note_on_c, 2, 74, 100
4, 26795, Note_on_c, 2, 74, 0
4, 26795, Note_on_c, 2, 71, 0
4, 26795, Note_on_c, 2, 67, 0
4, 26840, Note_on_c, 2, 74, 100
4, 26840, Note_on_c, 2, 70, 100
4, 26960, Note_on_c, 2, 70, 0
4, 26960, Note_on_c, 2, 74, 0
4, 26960, Note_on_c, 2, 74, 100
4, 26960, Note_on_c, 2, 70, 100
4, 27000, Note_on_c, 2, 70, 0
4, 27000, Note_on_c, 2, 74, 0
4, 27000, Note_on_c, 2, 76, 100
4, 27000, Note_on_c, 2, 72, 100
4, 27075, Note_on_c, 2, 72, 0
4, 27075, Note_on_c, 2, 76, 0
4, 27120, Note_on_c, 2, 77, 100
4, 27120, Note_on_c, 2, 74, 100
4, 27195, Note_on_c, 2, 74, 0
4, 27195, Note_on_c, 2, 77, 0
4, 27240, Note_on_c, 2, 79, 100
4, 27240, Note_on_c, 2, 76, 100
4, 27315, Note_on_c, 2, 76, 0
4, 27315, Note_on_c, 2, 79, 0
4, 27360, Note_on_c, 2, 72, 100
4, 27360, Note_on_c, 2, 69, 100
4, 27360, Note_on_c, 2, 76, 100
4, 27435, Note_on_c, 2, 76, 0
4, 27435, Note_on_c, 2, 69, 0
4, 27435, Note_on_c, 2, 72, 0
4, 27480, Note_on_c, 2, 72, 100
4, 27480, Note_on_c, 2, 69, 100
4, 27480, Note_on_c, 2, 76, 100
4, 27555, Note_on_c, 2, 76, 0
4, 27555, Note_on_c, 2, 69, 0
4, 27555, Note_on_c, 2, 72, 0
4, 27600, Note_on_c, 2, 77, 100
4, 27600, Note_on_c, 2, 70, 100
4, 27600, Note_on_c, 2, 74, 100
4, 27675, Note_on_c, 2, 74, 0
4, 27675, Note_on_c, 2, 70, 0
4, 27675, Note_on_c, 2, 77, 0
4, 27680, Note_on_c, 2, 70, 100
4, 27720, Note_on_c, 2, 77, 100
4, 27720, Note_on_c, 2, 70, 100
4, 27720, Note_on_c, 2, 74, 100
4, 27755, Note_on_c, 2, 70, 0
4, 27795, Note_on_c, 2, 70, 0
4, 27795, Note_on_c, 2, 77, 0
4, 27795, Note_on_c, 2, 74, 0
4, 27800, Note_on_c, 2, 72, 100
4, 27800, Note_on_c, 2, 76, 100
4, 27920, Note_on_c, 2, 76, 0
4, 27920, Note_on_c, 2, 72, 0
4, 27920, Note_on_c, 2, 72, 100
4, 27960, Note_on_c, 2, 76, 100
4, 27960, Note_on_c, 2, 72, 100
4, 28000, Note_on_c, 2, 72, 0
4, 28035, Note_on_c, 2, 76, 0
4, 28035, Note_on_c, 2, 72, 0
4, 28080, Note_on_c, 2, 77, 100
4, 28080, Note_on_c, 2, 73, 100
4, 28085, Note_on_c, 2, 73, 0
4, 28085, Note_on_c, 2, 74, 100
4, 28145, Note_on_c, 2, 74, 0
4, 28155, Note_on_c, 2, 77, 0
4, 28200, Note_on_c, 2, 76, 100
4, 28200, Note_on_c, 2, 72, 100
4, 28275, Note_on_c, 2, 72, 0
4, 28275, Note_on_c, 2, 76, 0
4, 28320, Note_on_c, 2, 67, 100
4, 28320, Note_on_c, 2, 71, 100
4, 28320, Note_on_c, 2, 74, 100
4, 28395, Note_on_c, 2, 74, 0
4, 28395, Note_on_c, 2, 71, 0
4, 28395, Note_on_c, 2, 67, 0
4, 28440, Note_on_c, 2, 74, 100
4, 28440, Note_on_c, 2, 71, 100
4, 28440, Note_on_c, 2, 67, 100
4, 28515, Note_on_c, 2, 67, 0
4, 28515, Note_on_c, 2, 71, 0
4, 28515, Note_on_c, 2, 74, 0
4, 28560, Note_on_c, 2, 65, 100
4, 28560, Note_on_c, 2, 69, 100
4, 28560, Note_on_c, 2, 72, 100
4, 28635, Note_on_c, 2, 72, 0
4, 28635, Note_on_c, 2, 69, 0
4, 28635, Note_on_c, 2, 65, 0
4, 28680, Note_on_c, 2, 65, 100
4, 28680, Note_on_c, 2, 69, 100
4, 28680, Note_on_c, 2, 72, 100
4, 28755, Note_on_c, 2, 72, 0
4, 28755, Note_on_c, 2, 69, 0
4, 28755, Note_on_c, 2, 65, 0
4, 28800, Note_on_c, 2, 67, 100
4, 28800, Note_on_c, 2, 71, 100
4, 28800, Note_on_c, 2, 74, 100
4, 28875, Note_on_c, 2, 74, 0
4, 28875, Note_on_c, 2, 71, 0
4, 28875, Note_on_c, 2, 67, 0
4, 28920, Note_on_c, 2, 74, 100
4, 28920, Note_on_c, 2, 71, 100
4, 28920, Note_on_c, 2, 67, 100
4, 28995, Note_on_c, 2, 67, 0
4, 28995, Note_on_c, 2, 71, 0
4, 28995, Note_on_c, 2, 74, 0
4, 29040, Note_on_c, 2, 65, 100
4, 29040, Note_on_c, 2, 69, 100
4, 29040, Note_on_c, 2, 72, 100
4, 29115, Note_on_c, 2, 72, 0
4, 29115, Note_on_c, 2, 69, 0
4, 29115, Note_on_c, 2, 65, 0
4, 29160, Note_on_c, 2, 65, 100
4, 29160, Note_on_c, 2, 69, 100
4, 29160, Note_on_c, 2, 72, 100
4, 29235, Note_on_c, 2, 72, 0
4, 29235, Note_on_c, 2, 69, 0
4, 29235, Note_on_c, 2, 65, 0
4, 29280, Note_on_c, 2, 67, 100
4, 29280, Note_on_c, 2, 71, 100
4, 29280, Note_on_c, 2, 74, 100
4, 29355, Note_on_c, 2, 74, 0
4, 29355, Note_on_c, 2, 71, 0
4, 29355, Note_on_c, 2, 67, 0
4, 29400, Note_on_c, 2, 74, 100
4, 29400, Note_on_c, 2, 71, 100
4, 29400, Note_on_c, 2, 67, 100
4, 29475, Note_on_c, 2, 67, 0
4, 29475, Note_on_c, 2, 71, 0
4, 29475, Note_on_c, 2, 74, 0
4, 29520, Note_on_c, 2, 67, 100
4, 29520, Note_on_c, 2, 71, 100
4, 29520, Note_on_c, 2, 74, 100
4, 29595, Note_on_c, 2, 74, 0
4, 29595, Note_on_c, 2, 71, 0
4, 29595, Note_on_c, 2, 67, 0
4, 29640, Note_on_c, 2, 67, 100
4, 29640, Note_on_c, 2, 71, 100
4, 29640, Note_on_c, 2, 74, 100
4, 29715, Note_on_c, 2, 74, 0
4, 29715, Note_on_c, 2, 71, 0
4, 29715, Note_on_c, 2, 67, 0
4, 29760, Note_on_c, 2, 67, 100
4, 29760, Note_on_c, 2, 71, 100
4, 29760, Note_on_c, 2, 74, 100
4, 29835, Note_on_c, 2, 74, 0
4, 29835, Note_on_c, 2, 71, 0
4, 29835, Note_on_c, 2, 67, 0
4, 29880, Note_on_c, 2, 74, 100
4, 29880, Note_on_c, 2, 71, 100
4, 29880, Note_on_c, 2, 67, 100
4, 29955, Note_on_c, 2, 67, 0
4, 29955, Note_on_c, 2, 71, 0
4, 29955, Note_on_c, 2, 74, 0
4, 30000, Note_on_c, 2, 65, 100
4, 30000, Note_on_c, 2, 69, 100
4, 30000, Note_on_c, 2, 72, 100
4, 30075, Note_on_c, 2, 72, 0
4, 30075, Note_on_c, 2, 69, 0
4, 30075, Note_on_c, 2, 65, 0
4, 30120, Note_on_c, 2, 65, 100
4, 30120, Note_on_c, 2, 69, 100
4, 30120, Note_on_c, 2, 72, 100
4, 30195, Note_on_c, 2, 72, 0
4, 30195, Note_on_c, 2, 69, 0
4, 30195, Note_on_c, 2, 65, 0
4, 30240, Note_on_c, 2, 67, 100
4, 30240, Note_on_c, 2, 71, 100
4, 30240, Note_on_c, 2, 74, 100
4, 30315, Note_on_c, 2, 74, 0
4, 30315, Note_on_c, 2, 71, 0
4, 30315, Note_on_c, 2, 67, 0
4, 30360, Note_on_c, 2, 74, 100
4, 30360, Note_on_c, 2, 71, 100
4, 30360, Note_on_c, 2, 67, 100
4, 30435, Note_on_c, 2, 67, 0
4, 30435, Note_on_c, 2, 71, 0
4, 30435, Note_on_c, 2, 74, 0
4, 30480, Note_on_c, 2, 67, 100
4, 30480, Note_on_c, 2, 71, 100
4, 30480, Note_on_c, 2, 74, 100
4, 30555, Note_on_c, 2, 74, 0
4, 30555, Note_on_c, 2, 71, 0
4, 30555, Note_on_c, 2, 67, 0
4, 30600, Note_on_c, 2, 67, 100
4, 30600, Note_on_c, 2, 71, 100
4, 30600, Note_on_c, 2, 74, 100
4, 30675, Note_on_c, 2, 74, 0
4, 30675, Note_on_c, 2, 71, 0
4, 30675, Note_on_c, 2, 67, 0
4, 30720, Note_on_c, 2, 55, 100
4, 30720, Note_on_c, 2, 67, 100
4, 30720, Note_on_c, 2, 71, 100
4, 30720, Note_on_c, 2, 74, 100
4, 30795, Note_on_c, 2, 74, 0
4, 30795, Note_on_c, 2, 71, 0
4, 30795, Note_on_c, 2, 67, 0
4, 30840, Note_on_c, 2, 55, 0
4, 30840, Note_on_c, 2, 55, 100
4, 30840, Note_on_c, 2, 74, 100
4, 30840, Note_on_c, 2, 71, 100
4, 30840, Note_on_c, 2, 67, 100
4, 30915, Note_on_c, 2, 67, 0
4, 30915, Note_on_c, 2, 71, 0
4, 30915, Note_on_c, 2, 74, 0
4, 30960, Note_on_c, 2, 55, 0
4, 30960, Note_on_c, 2, 55, 100
4, 30960, Note_on_c, 2, 67, 100
4, 30960, Note_on_c, 2, 71, 100
4, 30960, Note_on_c, 2, 74, 100
4, 31035, Note_on_c, 2, 74, 0
4, 31035, Note_on_c, 2, 71, 0
4, 31035, Note_on_c, 2, 67, 0
4, 31080, Note_on_c, 2, 55, 0
4, 31080, Note_on_c, 2, 55, 100
4, 31080, Note_on_c, 2, 67, 100
4, 31080, Note_on_c, 2, 71, 100
4, 31080, Note_on_c, 2, 74, 100
4, 31155, Note_on_c, 2, 74, 0
4, 31155, Note_on_c, 2, 71, 0
4, 31155, Note_on_c, 2, 67, 0
4, 31200, Note_on_c, 2, 55, 0
4, 31200, Note_on_c, 2, 65, 100
4, 31200, Note_on_c, 2, 60, 100
4, 31200, Note_on_c, 2, 69, 100
4, 31200, Note_on_c, 2, 76, 100
4, 31290, Note_on_c, 2, 76, 0
4, 31290, Note_on_c, 2, 69, 0
4, 31290, Note_on_c, 2, 60, 0
4, 31320, Note_on_c, 2, 60, 100
4, 31320, Note_on_c, 2, 69, 100
4, 31320, Note_on_c, 2, 76, 100
4, 31400, Note_on_c, 2, 76, 0
4, 31400, Note_on_c, 2, 69, 0
4, 31400, Note_on_c, 2, 60, 0
4, 31400, Note_on_c, 2, 65, 100
4, 31400, Note_on_c, 2, 72, 100
4, 31440, Note_on_c, 2, 72, 0
4, 31440, Note_on_c, 2, 65, 0
4, 31440, Note_on_c, 2, 65, 0
4, 31440, Note_on_c, 2, 64, 100
4, 31440, Note_on_c, 2, 71, 100
4, 31440, Note_on_c, 2, 67, 100
4, 31440, Note_on_c, 2, 74, 100
4, 31510, Note_on_c, 2, 74, 0
4, 31510, Note_on_c, 2, 67, 0
4, 31510, Note_on_c, 2, 71, 0
4, 31520, Note_on_c, 2, 71, 100
4, 31560, Note_on_c, 2, 71, 0
4, 31560, Note_on_c, 2, 67, 100
4, 31560, Note_on_c, 2, 74, 100
4, 31640, Note_on_c, 2, 74, 0
4, 31640, Note_on_c, 2, 67, 0
4, 31640, Note_on_c, 2, 64, 0
4, 31640, Note_on_c, 2, 62, 100
4, 31640, Note_on_c, 2, 69, 100
4, 31640, Note_on_c, 2, 65, 100
4, 31640, Note_on_c, 2, 72, 100
4, 31800, Note_on_c, 2, 72, 0
4, 31800, Note_on_c, 2, 62, 0
4, 31800, Note_on_c, 2, 69, 0
4, 31800, Note_on_c, 2, 65, 0
4, 31800, Note_on_c, 2, 72, 100
4, 31800, Note_on_c, 2, 65, 100
4, 31880, Note_on_c, 2, 65, 0
4, 31920, Note_on_c, 2, 72, 0
4, 31920, Note_on_c, 2, 67, 100
4, 31920, Note_on_c, 2, 74, 100
4, 31990, Note_on_c, 2, 74, 0
4, 32000, Note_on_c, 2, 72, 100
4, 32040, Note_on_c, 2, 72, 0
4, 32040, Note_on_c, 2, 74, 100
4, 32160, Note_on_c, 2, 74, 0
4, 32160, Note_on_c, 2, 67, 0
4, 32160, Note_on_c, 2, 65, 100
4, 32160, Note_on_c, 2, 60, 100
4, 32160, Note_on_c, 2, 69, 100
4, 32160, Note_on_c, 2, 76, 100
4, 32250, Note_on_c, 2, 76, 0
4, 32250, Note_on_c, 2, 69, 0
4, 32250, Note_on_c, 2, 60, 0
4, 32280, Note_on_c, 2, 60, 100
4, 32280, Note_on_c, 2, 69, 100
4, 32280, Note_on_c, 2, 76, 100
4, 32360, Note_on_c, 2, 76, 0
4, 32360, Note_on_c, 2, 69, 0
4, 32360, Note_on_c, 2, 60, 0
4, 32360, Note_on_c, 2, 65, 100
4, 32360, Note_on_c, 2, 72, 100
4, 32400, Note_on_c, 2, 72, 0
4, 32400, Note_on_c, 2, 65, 0
4, 32400, Note_on_c, 2, 65, 0
4, 32400, Note_on_c, 2, 64, 100
4, 32400, Note_on_c, 2, 71, 100
4, 32400, Note_on_c, 2, 67, 100
4, 32400, Note_on_c, 2, 74, 100
4, 32470, Note_on_c, 2, 74, 0
4, 32470, Note_on_c, 2, 67, 0
4, 32470, Note_on_c, 2, 71, 0
4, 32480, Note_on_c, 2, 71, 100
4, 32520, Note_on_c, 2, 71, 0
4, 32520, Note_on_c, 2, 67, 100
4, 32520, Note_on_c, 2, 74, 100
4, 32600, Note_on_c, 2, 74, 0
4, 32600, Note_on_c, 2, 67, 0
4, 32600, Note_on_c, 2, 64, 0
4, 32600, Note_on_c, 2, 62, 100
4, 32600, Note_on_c, 2, 69, 100
4, 32600, Note_on_c, 2, 65, 100
4, 32600, Note_on_c, 2, 72, 100
4, 32760, Note_on_c, 2, 72, 0
4, 32760, Note_on_c, 2, 62, 0
4, 32760, Note_on_c, 2, 69, 0
4, 32760, Note_on_c, 2, 65, 0
4, 32760, Note_on_c, 2, 72, 100
4, 32760, Note_on_c, 2, 65, 100
4, 32840, Note_on_c, 2, 65, 0
4, 32880, Note_on_c, 2, 72, 0
4, 32880, Note_on_c, 2, 67, 100
4, 32880, Note_on_c, 2, 74, 100
4, 32950, Note_on_c, 2, 74, 0
4, 32960, Note_on_c, 2, 72, 100
4, 33000, Note_on_c, 2, 72, 0
4, 33000, Note_on_c, 2, 74, 100
4, 33120, Note_on_c, 2, 74, 0
4, 33120, Note_on_c, 2, 67, 0
4, 33120, Note_on_c, 2, 65, 100
4, 33120, Note_on_c, 2, 60, 100
4, 33120, Note_on_c, 2, 69, 100
4, 33120, Note_on_c, 2, 76, 100
4, 33210, Note_on_c, 2, 76, 0
4, 33210, Note_on_c, 2, 69, 0
4, 33210, Note_on_c, 2, 60, 0
4, 33240, Note_on_c, 2, 60, 100
4, 33240, Note_on_c, 2, 69, 100
4, 33240, Note_on_c, 2, 76, 100
4, 33320, Note_on_c, 2, 76, 0
4, 33320, Note_on_c, 2, 69, 0
4, 33320, Note_on_c, 2, 60, 0
4, 33320, Note_on_c, 2, 65, 100
4, 33320, Note_on_c, 2, 72, 100
4, 33360, Note_on_c, 2, 72, 0
4, 33360, Note_on_c, 2, 65, 0
4, 33360, Note_on_c, 2, 65, 0
4, 33360, Note_on_c, 2, 64, 100
4, 33360, Note_on_c, 2, 71, 100
4, 33360, Note_on_c, 2, 67, 100
4, 33360, Note_on_c, 2, 74, 100
4, 33430, Note_on_c, 2, 74, 0
4, 33430, Note_on_c, 2, 67, 0
4, 33430, Note_on_c, 2, 71, 0
4, 33440, Note_on_c, 2, 71, 100
4, 33480, Note_on_c, 2, 71, 0
4, 33480, Note_on_c, 2, 67, 100
4, 33480, Note_on_c, 2, 74, 100
4, 33560, Note_on_c, 2, 74, 0
4, 33560, Note_on_c, 2, 67, 0
4, 33560, Note_on_c, 2, 64, 0
4, 33560, Note_on_c, 2, 62, 100
4, 33560, Note_on_c, 2, 69, 100
4, 33560, Note_on_c, 2, 65, 100
4, 33560, Note_on_c, 2, 72, 100
4, 33720, Note_on_c, 2, 72, 0
4, 33720, Note_on_c, 2, 62, 0
4, 33720, Note_on_c, 2, 69, 0
4, 33720, Note_on_c, 2, 65, 0
4, 33720, Note_on_c, 2, 72, 100
4, 33720, Note_on_c, 2, 65, 100
4, 33800, Note_on_c, 2, 65, 0
4, 33840, Note_on_c, 2, 72, 0
4, 33840, Note_on_c, 2, 67, 100
4, 33840, Note_on_c, 2, 74, 100
4, 33910, Note_on_c, 2, 74, 0
4, 33920, Note_on_c, 2, 72, 100
4, 33960, Note_on_c, 2, 72, 0
4, 33960, Note_on_c, 2, 74, 100
4, 34080, Note_on_c, 2, 74, 0
4, 34080, Note_on_c, 2, 67, 0
4, 34080, Note_on_c, 2, 65, 100
4, 34080, Note_on_c, 2, 60, 100
4, 34080, Note_on_c, 2, 69, 100
4, 34080, Note_on_c, 2, 76, 100
4, 34170, Note_on_c, 2, 76, 0
4, 34170, Note_on_c, 2, 69, 0
4, 34170, Note_on_c, 2, 60, 0
4, 34200, Note_on_c, 2, 60, 100
4, 34200, Note_on_c, 2, 69, 100
4, 34200, Note_on_c, 2, 76, 100
4, 34280, Note_on_c, 2, 76, 0
4, 34280, Note_on_c, 2, 69, 0
4, 34280, Note_on_c, 2, 60, 0
4, 34280, Note_on_c, 2, 65, 100
4, 34280, Note_on_c, 2, 72, 100
4, 34320, Note_on_c, 2, 72, 0
4, 34320, Note_on_c, 2, 65, 0
4, 34320, Note_on_c, 2, 65, 0
4, 34320, Note_on_c, 2, 64, 100
4, 34320, Note_on_c, 2, 71, 100
4, 34320, Note_on_c, 2, 67, 100
4, 34320, Note_on_c, 2, 74, 100
4, 34390, Note_on_c, 2, 74, 0
4, 34390, Note_on_c, 2, 67, 0
4, 34390, Note_on_c, 2, 71, 0
4, 34400, Note_on_c, 2, 71, 100
4, 34440, Note_on_c, 2, 71, 0
4, 34440, Note_on_c, 2, 67, 100
4, 34440, Note_on_c, 2, 74, 100
4, 34520, Note_on_c, 2, 74, 0
4, 34520, Note_on_c, 2, 67, 0
4, 34520, Note_on_c, 2, 64, 0
4, 34520, Note_on_c, 2, 62, 100
4, 34520, Note_on_c, 2, 69, 100
4, 34520, Note_on_c, 2, 65, 100
4, 34520, Note_on_c, 2, 72, 100
4, 34680, Note_on_c, 2, 72, 0
4, 34680, Note_on_c, 2, 62, 0
4, 34680, Note_on_c, 2, 69, 0
4, 34680, Note_on_c, 2, 65, 0
4, 34680, Note_on_c, 2, 72, 100
4, 34680, Note_on_c, 2, 65, 100
4, 34760, Note_on_c, 2, 65, 0
4, 34800, Note_on_c, 2, 72, 0
4, 34800, Note_on_c, 2, 67, 100
4, 34800, Note_on_c, 2, 74, 100
4, 34870, Note_on_c, 2, 74, 0
4, 34880, Note_on_c, 2, 72, 100
4, 34920, Note_on_c, 2, 72, 0
4, 34920, Note_on_c, 2, 74, 100
4, 35040, Note_on_c, 2, 74, 0
4, 35040, Note_on_c, 2, 67, 0
4, 35040, Note_on_c, 2, 65, 100
4, 35040, Note_on_c, 2, 60, 100
4, 35040, Note_on_c, 2, 69, 100
4, 35040, Note_on_c, 2, 76, 100
4, 35130, Note_on_c, 2, 76, 0
4, 35130, Note_on_c, 2, 69, 0
4, 35130, Note_on_c, 2, 60, 0
4, 35160, Note_on_c, 2, 60, 100
4, 35160, Note_on_c, 2, 69, 100
4, 35160, Note_on_c, 2, 76, 100
4, 35240, Note_on_c, 2, 76, 0
4, 35240, Note_on_c, 2, 69, 0
4, 35240, Note_on_c, 2, 60, 0
4, 35240, Note_on_c, 2, 65, 100
4, 35240, Note_on_c, 2, 72, 100
4, 35280, Note_on_c, 2, 72, 0
4, 35280, Note_on_c, 2, 65, 0
4, 35280, Note_on_c, 2, 65, 0
4, 35280, Note_on_c, 2, 64, 100
4, 35280, Note_on_c, 2, 71, 100
4, 35280, Note_on_c, 2, 67, 100
4, 35280, Note_on_c, 2, 74, 100
4, 35350, Note_on_c, 2, 74, 0
4, 35350, Note_on_c, 2, 67, 0
4, 35350, Note_on_c, 2, 71, 0
4, 35360, Note_on_c, 2, 71, 100
4, 35400, Note_on_c, 2, 71, 0
4, 35400, Note_on_c, 2, 67, 100
4, 35400, Note_on_c, 2, 74, 100
4, 35480, Note_on_c, 2, 74, 0
4, 35480, Note_on_c, 2, 67, 0
4, 35480, Note_on_c, 2, 64, 0
4, 35480, Note_on_c, 2, 62, 100
4, 35480, Note_on_c, 2, 69, 100
4, 35480, Note_on_c, 2, 65, 100
4, 35480, Note_on_c, 2, 72, 100
4, 35640, Note_on_c, 2, 72, 0
4, 35640, Note_on_c, 2, 62, 0
4, 35640, Note_on_c, 2, 69, 0
4, 35640, Note_on_c, 2, 65, 0
4, 35640, Note_on_c, 2, 72, 97
4, 35640, Note_on_c, 2, 65, 97
4, 35720, Note_on_c, 2, 65, 0
4, 35760, Note_on_c, 2, 72, 0
4, 35760, Note_on_c, 2, 67, 93
4, 35760, Note_on_c, 2, 74, 93
4, 35830, Note_on_c, 2, 74, 0
4, 35840, Note_on_c, 2, 72, 91
4, 35880, Note_on_c, 2, 72, 0
4, 35880, Note_on_c, 2, 74, 90
4, 36000, Note_on_c, 2, 74, 0
4, 36000, Note_on_c, 2, 67, 0
4, 36000, Note_on_c, 2, 65, 86
4, 36000, Note_on_c, 2, 60, 86
4, 36000, Note_on_c, 2, 69, 86
4, 36000, Note_on_c, 2, 76, 86
4, 36090, Note_on_c, 2, 76, 0
4, 36090, Note_on_c, 2, 69, 0
4, 36090, Note_on_c, 2, 60, 0
4, 36120, Note_on_c, 2, 60, 83
4, 36120, Note_on_c, 2, 69, 83
4, 36120, Note_on_c, 2, 76, 83
4, 36200, Note_on_c, 2, 76, 0
4, 36200, Note_on_c, 2, 69, 0
4, 36200, Note_on_c, 2, 60, 0
4, 36200, Note_on_c, 2, 65, 80
4, 36200, Note_on_c, 2, 72, 80
4, 36240, Note_on_c, 2, 72, 0
4, 36240, Note_on_c, 2, 65, 0
4, 36240, Note_on_c, 2, 65, 0
4, 36240, Note_on_c, 2, 64, 79
4, 36240, Note_on_c, 2, 71, 79
4, 36240, Note_on_c, 2, 67, 79
4, 36240, Note_on_c, 2, 74, 79
4, 36310, Note_on_c, 2, 74, 0
4, 36310, Note_on_c, 2, 67, 0
4, 36310, Note_on_c, 2, 71, 0
4, 36320, Note_on_c, 2, 71, 77
4, 36360, Note_on_c, 2, 71, 0
4, 36360, Note_on_c, 2, 67, 75
4, 36360, Note_on_c, 2, 74, 75
4, 36440, Note_on_c, 2, 74, 0
4, 36440, Note_on_c, 2, 67, 0
4, 36440, Note_on_c, 2, 64, 0
4, 36440, Note_on_c, 2, 62, 73
4, 36440, Note_on_c, 2, 69, 73
4, 36440, Note_on_c, 2, 65, 73
4, 36440, Note_on_c, 2, 72, 73
4, 36600, Note_on_c, 2, 72, 0
4, 36600, Note_on_c, 2, 62, 0
4, 36600, Note_on_c, 2, 69, 0
4, 36600, Note_on_c, 2, 65, 0
4, 36600, Note_on_c, 2, 72, 68
4, 36600, Note_on_c, 2, 65, 68
4, 36680, Note_on_c, 2, 65, 0
4, 36720, Note_on_c, 2, 72, 0
4, 36720, Note_on_c, 2, 67, 65
4, 36720, Note_on_c, 2, 74, 65
4, 36790, Note_on_c, 2, 74, 0
4, 36800, Note_on_c, 2, 72, 62
4, 36840, Note_on_c, 2, 72, 0
4, 36840, Note_on_c, 2, 74, 61
4, 36960, Note_on_c, 2, 74, 0
4, 36960, Note_on_c, 2, 67, 0
4, 36960, Note_on_c, 2, 65, 58
4, 36960, Note_on_c, 2, 60, 58
4, 36960, Note_on_c, 2, 69, 58
4, 36960, Note_on_c, 2, 76, 58
4, 37050, Note_on_c, 2, 76, 0
4, 37050, Note_on_c, 2, 69, 0
4, 37050, Note_on_c, 2, 60, 0
4, 37080, Note_on_c, 2, 60, 54
4, 37080, Note_on_c, 2, 69, 54
4, 37080, Note_on_c, 2, 76, 54
4, 37160, Note_on_c, 2, 76, 0
4, 37160, Note_on_c, 2, 69, 0
4, 37160, Note_on_c, 2, 60, 0
4, 37160, Note_on_c, 2, 65, 52
4, 37160, Note_on_c, 2, 72, 52
4, 37200, Note_on_c, 2, 72, 0
4, 37200, Note_on_c, 2, 65, 0
4, 37200, Note_on_c, 2, 65, 0
4, 37200, Note_on_c, 2, 64, 50
4, 37200, Note_on_c, 2, 71, 50
4, 37200, Note_on_c, 2, 67, 50
4, 37200, Note_on_c, 2, 74, 50
4, 37270, Note_on_c, 2, 74, 0
4, 37270, Note_on_c, 2, 67, 0
4, 37270, Note_on_c, 2, 71, 0
4, 37280, Note_on_c, 2, 71, 48
4, 37320, Note_on_c, 2, 71, 0
4, 37320, Note_on_c, 2, 67, 47
4, 37320, Note_on_c, 2, 74, 47
4, 37400, Note_on_c, 2, 74, 0
4, 37400, Note_on_c, 2, 67, 0
4, 37400, Note_on_c, 2, 64, 0
4, 37400, Note_on_c, 2, 62, 45
4, 37400, Note_on_c, 2, 69, 45
4, 37400, Note_on_c, 2, 65, 45
4, 37400, Note_on_c, 2, 72, 45
4, 37560, Note_on_c, 2, 72, 0
4, 37560, Note_on_c, 2, 62, 0
4, 37560, Note_on_c, 2, 69, 0
4, 37560, Note_on_c, 2, 65, 0
4, 37560, Note_on_c, 2, 72, 40
4, 37560, Note_on_c, 2, 65, 40
4, 37640, Note_on_c, 2, 65, 0
4, 37680, Note_on_c, 2, 72, 0
4, 37680, Note_on_c, 2, 67, 36
4, 37680, Note_on_c, 2, 74, 36
4, 37750, Note_on_c, 2, 74, 0
4, 37760, Note_on_c, 2, 72, 34
4, 37800, Note_on_c, 2, 72, 0
4, 37800, Note_on_c, 2, 74, 33
4, 37920, Note_on_c, 2, 74, 0
4, 37920, Note_on_c, 2, 67, 0
4, 37920, Note_on_c, 2, 65, 29
4, 37920, Note_on_c, 2, 60, 29
4, 37920, Note_on_c, 2, 69, 29
4, 37920, Note_on_c, 2, 76, 29
4, 38010, Note_on_c, 2, 76, 0
4, 38010, Note_on_c, 2, 69, 0
4, 38010, Note_on_c, 2, 60, 0
4, 38040, Note_on_c, 2, 60, 25
4, 38040, Note_on_c, 2, 69, 25
4, 38040, Note_on_c, 2, 76, 25
4, 38120, Note_on_c, 2, 76, 0
4, 38120, Note_on_c, 2, 69, 0
4, 38120, Note_on_c, 2, 60, 0
4, 38120, Note_on_c, 2, 65, 23
4, 38120, Note_on_c, 2, 72, 23
4, 38160, Note_on_c, 2, 72, 0
4, 38160, Note_on_c, 2, 65, 0
4, 38160, Note_on_c, 2, 65, 0
4, 38160, Note_on_c, 2, 64, 22
4, 38160, Note_on_c, 2, 71, 22
4, 38160, Note_on_c, 2, 67, 22
4, 38160, Note_on_c, 2, 74, 22
4, 38230, Note_on_c, 2, 74, 0
4, 38230, Note_on_c, 2, 67, 0
4, 38230, Note_on_c, 2, 71, 0
4, 38240, Note_on_c, 2, 71, 20
4, 38280, Note_on_c, 2, 71, 0
4, 38280, Note_on_c, 2, 67, 18
4, 38280, Note_on_c, 2, 74, 18
4, 38360, Note_on_c, 2, 74, 0
4, 38360, Note_on_c, 2, 67, 0
4, 38360, Note_on_c, 2, 64, 0
4, 38360, Note_on_c, 2, 62, 16
4, 38360, Note_on_c, 2, 69, 16
4, 38360, Note_on_c, 2, 65, 16
4, 38360, Note_on_c, 2, 72, 16
4, 38520, Note_on_c, 2, 72, 0
4, 38520, Note_on_c, 2, 62, 0
4, 38520, Note_on_c, 2, 69, 0
4, 38520, Note_on_c, 2, 65, 0
4, 38520, Note_on_c, 2, 72, 11
4, 38520, Note_on_c, 2, 65, 11
4, 38600, Note_on_c, 2, 65, 0
4, 38640, Note_on_c, 2, 72, 0
4, 38640, Note_on_c, 2, 67, 8
4, 38640, Note_on_c, 2, 74, 8
4, 38710, Note_on_c, 2, 74, 0
4, 38720, Note_on_c, 2, 72, 5
4, 38760, Note_on_c, 2, 72, 0
4, 38760, Note_on_c, 2, 74, 4
4, 38880, Note_on_c, 2, 74, 0
4, 38880, Note_on_c, 2, 67, 0
4, 38880, End_track
5, 0, Start_track
5, 0, MIDI_port, 0
5, 0, Program_c, 3, 48
5, 0, Control_c, 3, 7, 80
5, 0, Control_c, 3, 10, 0
5, 8160, Note_on_c, 3, 72, 100
5, 9120, Note_on_c, 3, 72, 0
5, 9120, Note_on_c, 3, 74, 100
5, 9600, Note_on_c, 3, 74, 0
5, 9600, Note_on_c, 3, 74, 100
5, 9800, Note_on_c, 3, 74, 0
5, 9800, Note_on_c, 3, 76, 100
5, 10080, Note_on_c, 3, 76, 0
5, 10080, Note_on_c, 3, 72, 100
5, 11040, Note_on_c, 3, 72, 0
5, 11040, Note_on_c, 3, 74, 100
5, 11520, Note_on_c, 3, 74, 0
5, 11520, Note_on_c, 3, 76, 100
5, 12000, Note_on_c, 3, 76, 0
5, 18720, Note_on_c, 3, 72, 100
5, 19680, Note_on_c, 3, 72, 0
5, 19680, Note_on_c, 3, 74, 100
5, 20160, Note_on_c, 3, 74, 0
5, 20160, Note_on_c, 3, 74, 100
5, 20360, Note_on_c, 3, 74, 0
5, 20360, Note_on_c, 3, 76, 100
5, 20640, Note_on_c, 3, 76, 0
5, 20640, Note_on_c, 3, 72, 100
5, 21600, Note_on_c, 3, 72, 0
5, 21600, Note_on_c, 3, 74, 100
5, 22080, Note_on_c, 3, 74, 0
5, 22080, Note_on_c, 3, 76, 100
5, 22560, Note_on_c, 3, 76, 0
5, 29280, Note_on_c, 3, 67, 100
5, 29760, Note_on_c, 3, 67, 0
5, 29760, Note_on_c, 3, 67, 100
5, 29960, Note_on_c, 3, 67, 0
5, 29960, Note_on_c, 3, 65, 100
5, 30240, Note_on_c, 3, 67, 100
5, 30280, Note_on_c, 3, 65, 0
5, 30720, Note_on_c, 3, 67, 0
5, 30720, Note_on_c, 3, 67, 100
5, 31200, Note_on_c, 3, 67, 0
5, 31200, End_track
6, 0, Start_track
6, 0, MIDI_port, 0
6, 0, Program_c, 4, 48
6, 0, Control_c, 4, 7, 80
6, 0, Control_c, 4, 10, 127
6, 8160, Note_on_c, 4, 69, 100
6, 9120, Note_on_c, 4, 69, 0
6, 9120, Note_on_c, 4, 71, 100
6, 9600, Note_on_c, 4, 71, 0
6, 9600, Note_on_c, 4, 71, 100
6, 9800, Note_on_c, 4, 71, 0
6, 9800, Note_on_c, 4, 73, 100
6, 10080, Note_on_c, 4, 73, 0
6, 10080, Note_on_c, 4, 69, 100
6, 11040, Note_on_c, 4, 69, 0
6, 11040, Note_on_c, 4, 71, 100
6, 11520, Note_on_c, 4, 71, 0
6, 11520, Note_on_c, 4, 73, 100
6, 12000, Note_on_c, 4, 73, 0
6, 18720, Note_on_c, 4, 69, 100
6, 19680, Note_on_c, 4, 69, 0
6, 19680, Note_on_c, 4, 71, 100
6, 20160, Note_on_c, 4, 71, 0
6, 20160, Note_on_c, 4, 71, 100
6, 20360, Note_on_c, 4, 71, 0
6, 20360, Note_on_c, 4, 73, 100
6, 20640, Note_on_c, 4, 73, 0
6, 20640, Note_on_c, 4, 69, 100
6, 21600, Note_on_c, 4, 69, 0
6, 21600, Note_on_c, 4, 71, 100
6, 22080, Note_on_c, 4, 71, 0
6, 22080, Note_on_c, 4, 73, 100
6, 22560, Note_on_c, 4, 73, 0
6, 27360, Note_on_c, 4, 69, 100
6, 27600, Note_on_c, 4, 69, 0
6, 27600, Note_on_c, 4, 70, 100
6, 27840, Note_on_c, 4, 70, 0
6, 27840, Note_on_c, 4, 72, 100
6, 28080, Note_on_c, 4, 72, 0
6, 28080, Note_on_c, 4, 81, 100
6, 28320, Note_on_c, 4, 81, 0
6, 28320, Note_on_c, 4, 79, 100
6, 28800, Note_on_c, 4, 79, 0
6, 28800, Note_on_c, 4, 79, 100
6, 29000, Note_on_c, 4, 79, 0
6, 29000, Note_on_c, 4, 77, 100
6, 29280, Note_on_c, 4, 74, 100
6, 29320, Note_on_c, 4, 77, 0
6, 29760, Note_on_c, 4, 74, 0
6, 29760, Note_on_c, 4, 74, 100
6, 29960, Note_on_c, 4, 74, 0
6, 29960, Note_on_c, 4, 72, 100
6, 30240, Note_on_c, 4, 74, 100
6, 30280, Note_on_c, 4, 72, 0
6, 30720, Note_on_c, 4, 74, 0
6, 30720, Note_on_c, 4, 74, 100
6, 31200, Note_on_c, 4, 74, 0
6, 31200, Note_on_c, 4, 76, 110
6, 31440, Note_on_c, 4, 76, 0
6, 31440, Note_on_c, 4, 74, 110
6, 31680, Note_on_c, 4, 74, 0
6, 31680, Note_on_c, 4, 72, 110
6, 31920, Note_on_c, 4, 72, 0
6, 31920, Note_on_c, 4, 74, 110
6, 32160, Note_on_c, 4, 74, 0
6, 32160, Note_on_c, 4, 76, 110
6, 32400, Note_on_c, 4, 76, 0
6, 32400, Note_on_c, 4, 74, 110
6, 32640, Note_on_c, 4, 74, 0
6, 32640, Note_on_c, 4, 72, 110
6, 32880, Note_on_c, 4, 72, 0
6, 32880, Note_on_c, 4, 74, 110
6, 33120, Note_on_c, 4, 74, 0
6, 33120, Note_on_c, 4, 76, 110
6, 33360, Note_on_c, 4, 76, 0
6, 33360, Note_on_c, 4, 74, 110
6, 33600, Note_on_c, 4, 74, 0
6, 33600, Note_on_c, 4, 79, 110
6, 33840, Note_on_c, 4, 79, 0
6, 33840, Note_on_c, 4, 81, 110
6, 34080, Note_on_c, 4, 81, 0
6, 34080, Note_on_c, 4, 81, 110
6, 34320, Note_on_c, 4, 81, 0
6, 34320, Note_on_c, 4, 83, 110
6, 34560, Note_on_c, 4, 83, 0
6, 34560, Note_on_c, 4, 84, 110
6, 34800, Note_on_c, 4, 84, 0
6, 34800, Note_on_c, 4, 86, 110
6, 35040, Note_on_c, 4, 86, 0
6, 35040, Note_on_c, 4, 81, 110
6, 35280, Note_on_c, 4, 81, 0
6, 35280, Note_on_c, 4, 83, 110
6, 35520, Note_on_c, 4, 83, 0
6, 35520, Note_on_c, 4, 84, 110
6, 35760, Note_on_c, 4, 84, 0
6, 35760, Note_on_c, 4, 86, 102
6, 36000, Note_on_c, 4, 86, 0
6, 36000, Note_on_c, 4, 81, 94
6, 36240, Note_on_c, 4, 81, 0
6, 36240, Note_on_c, 4, 83, 86
6, 36480, Note_on_c, 4, 83, 0
6, 36480, Note_on_c, 4, 84, 79
6, 36720, Note_on_c, 4, 84, 0
6, 36720, Note_on_c, 4, 86, 71
6, 36960, Note_on_c, 4, 86, 0
6, 36960, Note_on_c, 4, 88, 63
6, 37200, Note_on_c, 4, 88, 0
6, 37200, Note_on_c, 4, 86, 55
6, 37440, Note_on_c, 4, 86, 0
6, 37440, Note_on_c, 4, 84, 47
6, 37680, Note_on_c, 4, 84, 0
6, 37680, Note_on_c, 4, 86, 39
6, 37920, Note_on_c, 4, 86, 0
6, 37920, Note_on_c, 4, 88, 31
6, 38160, Note_on_c, 4, 88, 0
6, 38160, Note_on_c, 4, 86, 24
6, 38400, Note_on_c, 4, 86, 0
6, 38400, Note_on_c, 4, 84, 16
6, 38640, Note_on_c, 4, 84, 0
6, 38640, Note_on_c, 4, 86, 8
6, 38880, Note_on_c, 4, 86, 0
6, 38880, End_track
7, 0, Start_track
7, 0, MIDI_port, 0
7, 0, Program_c, 6, 66
7, 0, Control_c, 6, 7, 125
7, 0, Control_c, 6, 10, 64
7, 2360, Note_on_c, 6, 72, 125
7, 2600, Note_on_c, 6, 72, 0
7, 2960, Note_on_c, 6, 67, 125
7, 3080, Note_on_c, 6, 67, 0
7, 3120, Note_on_c, 6, 70, 125
7, 3200, Note_on_c, 6, 70, 0
7, 3200, Note_on_c, 6, 70, 125
7, 3320, Note_on_c, 6, 70, 0
7, 3320, Note_on_c, 6, 67, 125
7, 3440, Note_on_c, 6, 67, 0
7, 3560, Note_on_c, 6, 60, 125
7, 3600, Note_on_c, 6, 60, 0
7, 3600, Note_on_c, 6, 62, 125
7, 3675, Note_on_c, 6, 62, 0
7, 3680, Note_on_c, 6, 64, 125
7, 3800, Note_on_c, 6, 64, 0
7, 3800, Note_on_c, 6, 60, 125
7, 3840, Note_on_c, 6, 60, 0
7, 3840, Note_on_c, 6, 57, 125
7, 3960, Note_on_c, 6, 57, 0
7, 4160, Note_on_c, 6, 60, 125
7, 4200, Note_on_c, 6, 60, 0
7, 4200, Note_on_c, 6, 60, 125
7, 4240, Note_on_c, 6, 60, 0
7, 4240, Note_on_c, 6, 62, 125
7, 4280, Note_on_c, 6, 62, 0
7, 4280, Note_on_c, 6, 60, 125
7, 4320, Note_on_c, 6, 60, 0
7, 4320, Note_on_c, 6, 64, 125
7, 4500, Note_on_c, 6, 64, 0
7, 4520, Note_on_c, 6, 64, 125
7, 4640, Note_on_c, 6, 64, 0
7, 4640, Note_on_c, 6, 62, 125
7, 4760, Note_on_c, 6, 62, 0
7, 4760, Note_on_c, 6, 64, 125
7, 4800, Note_on_c, 6, 64, 0
7, 4800, Note_on_c, 6, 60, 125
7, 4875, Note_on_c, 6, 60, 0
7, 4880, Note_on_c, 6, 60, 125
7, 4990, Note_on_c, 6, 60, 0
7, 5000, Note_on_c, 6, 69, 125
7, 5190, Note_on_c, 6, 69, 0
7, 5200, Note_on_c, 6, 67, 125
7, 5240, Note_on_c, 6, 67, 0
7, 5240, Note_on_c, 6, 69, 125
7, 5360, Note_on_c, 6, 69, 0
7, 5360, Note_on_c, 6, 67, 125
7, 5600, Note_on_c, 6, 67, 0
7, 5720, Note_on_c, 6, 67, 125
7, 5960, Note_on_c, 6, 67, 0
7, 5960, Note_on_c, 6, 64, 125
7, 6000, Note_on_c, 6, 64, 0
7, 6000, Note_on_c, 6, 65, 125
7, 6080, Note_on_c, 6, 65, 0
7, 6080, Note_on_c, 6, 67, 125
7, 6120, Note_on_c, 6, 67, 0
7, 6120, Note_on_c, 6, 65, 125
7, 6200, Note_on_c, 6, 65, 0
7, 6200, Note_on_c, 6, 69, 125
7, 6320, Note_on_c, 6, 69, 0
7, 6360, Note_on_c, 6, 69, 125
7, 6440, Note_on_c, 6, 69, 0
7, 6440, Note_on_c, 6, 70, 125
7, 6560, Note_on_c, 6, 70, 0
7, 6600, Note_on_c, 6, 67, 125
7, 6680, Note_on_c, 6, 67, 0
7, 6680, Note_on_c, 6, 69, 125
7, 6800, Note_on_c, 6, 69, 0
7, 6840, Note_on_c, 6, 67, 125
7, 6960, Note_on_c, 6, 67, 0
7, 6960, Note_on_c, 6, 65, 125
7, 7040, Note_on_c, 6, 65, 0
7, 7040, Note_on_c, 6, 64, 125
7, 7080, Note_on_c, 6, 64, 0
7, 7080, Note_on_c, 6, 62, 125
7, 7160, Note_on_c, 6, 62, 0
7, 7160, Note_on_c, 6, 64, 125
7, 7200, Note_on_c, 6, 64, 0
7, 7200, Note_on_c, 6, 62, 125
7, 7320, Note_on_c, 6, 62, 0
7, 8160, Note_on_c, 6, 64, 125
7, 8280, Note_on_c, 6, 64, 0
7, 8280, Note_on_c, 6, 64, 125
7, 8400, Note_on_c, 6, 64, 0
7, 8400, Note_on_c, 6, 64, 125
7, 8475, Note_on_c, 6, 64, 0
7, 8480, Note_on_c, 6, 64, 125
7, 8600, Note_on_c, 6, 64, 0
7, 8600, Note_on_c, 6, 64, 125
7, 8720, Note_on_c, 6, 64, 0
7, 8720, Note_on_c, 6, 60, 125
7, 8795, Note_on_c, 6, 60, 0
7, 8840, Note_on_c, 6, 60, 125
7, 8880, Note_on_c, 6, 60, 0
7, 8880, Note_on_c, 6, 69, 125
7, 8955, Note_on_c, 6, 69, 0
7, 8960, Note_on_c, 6, 67, 125
7, 9000, Note_on_c, 6, 67, 0
7, 9000, Note_on_c, 6, 65, 125
7, 9075, Note_on_c, 6, 65, 0
7, 9080, Note_on_c, 6, 67, 125
7, 9360, Note_on_c, 6, 67, 0
7, 9440, Note_on_c, 6, 69, 125
7, 9480, Note_on_c, 6, 69, 0
7, 9480, Note_on_c, 6, 67, 125
7, 9555, Note_on_c, 6, 67, 0
7, 9560, Note_on_c, 6, 60, 125
7, 9600, Note_on_c, 6, 60, 0
7, 9600, Note_on_c, 6, 64, 125
7, 9640, Pitch_bend_c, 6, 1
7, 9680, Pitch_bend_c, 6, 8192
7, 9840, Note_on_c, 6, 64, 0
7, 10080, Note_on_c, 6, 64, 125
7, 10160, Note_on_c, 6, 64, 0
7, 10160, Note_on_c, 6, 64, 125
7, 10280, Note_on_c, 6, 64, 0
7, 10280, Note_on_c, 6, 64, 125
7, 10315, Note_on_c, 6, 64, 0
7, 10320, Note_on_c, 6, 65, 125
7, 10400, Note_on_c, 6, 65, 0
7, 10400, Note_on_c, 6, 67, 125
7, 10520, Note_on_c, 6, 67, 0
7, 10520, Note_on_c, 6, 64, 125
7, 10640, Note_on_c, 6, 64, 0
7, 10640, Note_on_c, 6, 60, 125
7, 10760, Note_on_c, 6, 60, 0
7, 10800, Note_on_c, 6, 69, 125
7, 10875, Note_on_c, 6, 69, 0
7, 10880, Note_on_c, 6, 67, 125
7, 10955, Note_on_c, 6, 67, 0
7, 10960, Note_on_c, 6, 65, 125
7, 11040, Note_on_c, 6, 65, 0
7, 11040, Note_on_c, 6, 67, 125
7, 11320, Note_on_c, 6, 67, 0
7, 11360, Note_on_c, 6, 64, 125
7, 11400, Note_on_c, 6, 64, 0
7, 11400, Note_on_c, 6, 67, 125
7, 11475, Note_on_c, 6, 67, 0
7, 11480, Note_on_c, 6, 69, 125
7, 11720, Note_on_c, 6, 69, 0
7, 11720, Note_on_c, 6, 69, 125
7, 11755, Note_on_c, 6, 69, 0
7, 11760, Note_on_c, 6, 69, 125
7, 11840, Note_on_c, 6, 69, 0
7, 11840, Note_on_c, 6, 67, 125
7, 11880, Note_on_c, 6, 67, 0
7, 11880, Note_on_c, 6, 64, 125
7, 11960, Note_on_c, 6, 64, 0
7, 11960, Note_on_c, 6, 65, 125
7, 12110, Note_on_c, 6, 65, 0
7, 12120, Note_on_c, 6, 67, 125
7, 12240, Note_on_c, 6, 67, 0
7, 12240, Note_on_c, 6, 64, 125
7, 12360, Note_on_c, 6, 64, 0
7, 12360, Note_on_c, 6, 67, 125
7, 12440, Note_on_c, 6, 67, 0
7, 12440, Note_on_c, 6, 69, 125
7, 12520, Note_on_c, 6, 69, 0
7, 12560, Note_on_c, 6, 69, 125
7, 12640, Note_on_c, 6, 69, 0
7, 12680, Note_on_c, 6, 67, 125
7, 12720, Note_on_c, 6, 67, 0
7, 12720, Note_on_c, 6, 69, 125
7, 12800, Note_on_c, 6, 69, 0
7, 12800, Note_on_c, 6, 72, 125
7, 12840, Note_on_c, 6, 72, 0
7, 12840, Note_on_c, 6, 74, 125
7, 12920, Note_on_c, 6, 74, 0
7, 12920, Note_on_c, 6, 72, 125
7, 13160, Note_on_c, 6, 72, 0
7, 13160, Note_on_c, 6, 69, 125
7, 13280, Note_on_c, 6, 69, 0
7, 13520, Note_on_c, 6, 67, 125
7, 13640, Note_on_c, 6, 67, 0
7, 13680, Note_on_c, 6, 70, 125
7, 13760, Note_on_c, 6, 70, 0
7, 13760, Note_on_c, 6, 70, 125
7, 13880, Note_on_c, 6, 70, 0
7, 13880, Note_on_c, 6, 67, 125
7, 14060, Note_on_c, 6, 67, 0
7, 14120, Note_on_c, 6, 60, 125
7, 14160, Note_on_c, 6, 60, 0
7, 14160, Note_on_c, 6, 62, 125
7, 14235, Note_on_c, 6, 62, 0
7, 14240, Note_on_c, 6, 64, 125
7, 14360, Note_on_c, 6, 64, 0
7, 14360, Note_on_c, 6, 60, 125
7, 14400, Note_on_c, 6, 60, 0
7, 14400, Note_on_c, 6, 57, 125
7, 14520, Note_on_c, 6, 57, 0
7, 14720, Note_on_c, 6, 60, 125
7, 14760, Note_on_c, 6, 60, 0
7, 14760, Note_on_c, 6, 60, 125
7, 14800, Note_on_c, 6, 60, 0
7, 14800, Note_on_c, 6, 62, 125
7, 14840, Note_on_c, 6, 62, 0
7, 14840, Note_on_c, 6, 60, 125
7, 14880, Note_on_c, 6, 60, 0
7, 14880, Note_on_c, 6, 64, 125
7, 15060, Note_on_c, 6, 64, 0
7, 15080, Note_on_c, 6, 64, 125
7, 15200, Note_on_c, 6, 64, 0
7, 15200, Note_on_c, 6, 62, 125
7, 15320, Note_on_c, 6, 62, 0
7, 15320, Note_on_c, 6, 64, 125
7, 15360, Note_on_c, 6, 64, 0
7, 15360, Note_on_c, 6, 60, 125
7, 15435, Note_on_c, 6, 60, 0
7, 15440, Note_on_c, 6, 60, 125
7, 15550, Note_on_c, 6, 60, 0
7, 15560, Note_on_c, 6, 69, 125
7, 15750, Note_on_c, 6, 69, 0
7, 15760, Note_on_c, 6, 67, 125
7, 15800, Note_on_c, 6, 67, 0
7, 15800, Note_on_c, 6, 69, 125
7, 15920, Note_on_c, 6, 69, 0
7, 15920, Note_on_c, 6, 67, 125
7, 16160, Note_on_c, 6, 67, 0
7, 16280, Note_on_c, 6, 67, 125
7, 16520, Note_on_c, 6, 67, 0
7, 16520, Note_on_c, 6, 64, 125
7, 16560, Note_on_c, 6, 64, 0
7, 16560, Note_on_c, 6, 65, 125
7, 16640, Note_on_c, 6, 65, 0
7, 16640, Note_on_c, 6, 67, 125
7, 16680, Note_on_c, 6, 67, 0
7, 16680, Note_on_c, 6, 65, 125
7, 16760, Note_on_c, 6, 65, 0
7, 16760, Note_on_c, 6, 69, 125
7, 16880, Note_on_c, 6, 69, 0
7, 16920, Note_on_c, 6, 69, 125
7, 17000, Note_on_c, 6, 69, 0
7, 17000, Note_on_c, 6, 70, 125
7, 17120, Note_on_c, 6, 70, 0
7, 17160, Note_on_c, 6, 67, 125
7, 17240, Note_on_c, 6, 67, 0
7, 17240, Note_on_c, 6, 69, 125
7, 17360, Note_on_c, 6, 69, 0
7, 17400, Note_on_c, 6, 67, 125
7, 17520, Note_on_c, 6, 67, 0
7, 17520, Note_on_c, 6, 65, 125
7, 17600, Note_on_c, 6, 65, 0
7, 17600, Note_on_c, 6, 64, 125
7, 17640, Note_on_c, 6, 64, 0
7, 17640, Note_on_c, 6, 62, 125
7, 17720, Note_on_c, 6, 62, 0
7, 17720, Note_on_c, 6, 64, 125
7, 17760, Note_on_c, 6, 64, 0
7, 17760, Note_on_c, 6, 62, 125
7, 17880, Note_on_c, 6, 62, 0
7, 18720, Note_on_c, 6, 64, 125
7, 18795, Note_on_c, 6, 64, 0
7, 18800, Note_on_c, 6, 64, 125
7, 18875, Note_on_c, 6, 64, 0
7, 18880, Note_on_c, 6, 64, 125
7, 18955, Note_on_c, 6, 64, 0
7, 18960, Note_on_c, 6, 64, 125
7, 19035, Note_on_c, 6, 64, 0
7, 19040, Note_on_c, 6, 64, 125
7, 19115, Note_on_c, 6, 64, 0
7, 19120, Note_on_c, 6, 64, 125
7, 19195, Note_on_c, 6, 64, 0
7, 19200, Note_on_c, 6, 64, 125
7, 19275, Note_on_c, 6, 64, 0
7, 19280, Note_on_c, 6, 60, 125
7, 19355, Note_on_c, 6, 60, 0
7, 19440, Note_on_c, 6, 69, 125
7, 19515, Note_on_c, 6, 69, 0
7, 19520, Note_on_c, 6, 67, 125
7, 19560, Note_on_c, 6, 67, 0
7, 19560, Note_on_c, 6, 65, 125
7, 19635, Note_on_c, 6, 65, 0
7, 19640, Note_on_c, 6, 67, 125
7, 19920, Note_on_c, 6, 67, 0
7, 20000, Note_on_c, 6, 69, 125
7, 20040, Note_on_c, 6, 69, 0
7, 20040, Note_on_c, 6, 67, 125
7, 20115, Note_on_c, 6, 67, 0
7, 20120, Note_on_c, 6, 60, 125
7, 20160, Note_on_c, 6, 60, 0
7, 20160, Note_on_c, 6, 64, 125
7, 20200, Pitch_bend_c, 6, 1
7, 20240, Pitch_bend_c, 6, 8192
7, 20400, Note_on_c, 6, 64, 0
7, 20640, Note_on_c, 6, 64, 125
7, 20720, Note_on_c, 6, 64, 0
7, 20720, Note_on_c, 6, 64, 125
7, 20795, Note_on_c, 6, 64, 0
7, 20800, Note_on_c, 6, 64, 125
7, 20875, Note_on_c, 6, 64, 0
7, 20880, Note_on_c, 6, 65, 125
7, 20960, Note_on_c, 6, 65, 0
7, 20960, Note_on_c, 6, 67, 125
7, 21080, Note_on_c, 6, 67, 0
7, 21080, Note_on_c, 6, 64, 125
7, 21200, Note_on_c, 6, 64, 0
7, 21200, Note_on_c, 6, 60, 125
7, 21320, Note_on_c, 6, 60, 0
7, 21360, Note_on_c, 6, 69, 125
7, 21435, Note_on_c, 6, 69, 0
7, 21440, Note_on_c, 6, 67, 125
7, 21480, Note_on_c, 6, 67, 0
7, 21480, Note_on_c, 6, 65, 125
7, 21560, Note_on_c, 6, 65, 0
7, 21560, Note_on_c, 6, 67, 125
7, 21840, Note_on_c, 6, 67, 0
7, 21920, Note_on_c, 6, 64, 125
7, 21960, Note_on_c, 6, 64, 0
7, 21960, Note_on_c, 6, 67, 125
7, 22035, Note_on_c, 6, 67, 0
7, 22040, Note_on_c, 6, 69, 125
7, 22240, Note_on_c, 6, 69, 0
7, 22280, Note_on_c, 6, 69, 125
7, 22315, Note_on_c, 6, 69, 0
7, 22320, Note_on_c, 6, 69, 125
7, 22400, Note_on_c, 6, 69, 0
7, 22400, Note_on_c, 6, 67, 125
7, 22440, Note_on_c, 6, 67, 0
7, 22440, Note_on_c, 6, 64, 125
7, 22520, Note_on_c, 6, 64, 0
7, 22520, Note_on_c, 6, 65, 125
7, 22670, Note_on_c, 6, 65, 0
7, 22680, Note_on_c, 6, 67, 125
7, 22800, Note_on_c, 6, 67, 0
7, 22800, Note_on_c, 6, 64, 125
7, 22920, Note_on_c, 6, 64, 0
7, 22920, Note_on_c, 6, 67, 125
7, 23000, Note_on_c, 6, 67, 0
7, 23000, Note_on_c, 6, 69, 125
7, 23080, Note_on_c, 6, 69, 0
7, 23120, Note_on_c, 6, 69, 125
7, 23200, Note_on_c, 6, 69, 0
7, 23240, Note_on_c, 6, 67, 125
7, 23280, Note_on_c, 6, 67, 0
7, 23280, Note_on_c, 6, 69, 125
7, 23360, Note_on_c, 6, 69, 0
7, 23360, Note_on_c, 6, 72, 125
7, 23400, Note_on_c, 6, 72, 0
7, 23400, Note_on_c, 6, 74, 125
7, 23480, Note_on_c, 6, 74, 0
7, 23480, Note_on_c, 6, 72, 125
7, 23720, Note_on_c, 6, 72, 0
7, 23720, Note_on_c, 6, 69, 125
7, 23840, Note_on_c, 6, 69, 0
7, 24080, Note_on_c, 6, 67, 125
7, 24200, Note_on_c, 6, 67, 0
7, 24240, Note_on_c, 6, 70, 125
7, 24320, Note_on_c, 6, 70, 0
7, 24320, Note_on_c, 6, 70, 125
7, 24440, Note_on_c, 6, 70, 0
7, 24440, Note_on_c, 6, 67, 125
7, 24560, Note_on_c, 6, 67, 0
7, 24680, Note_on_c, 6, 60, 125
7, 24720, Note_on_c, 6, 60, 0
7, 24720, Note_on_c, 6, 62, 125
7, 24795, Note_on_c, 6, 62, 0
7, 24800, Note_on_c, 6, 64, 125
7, 24920, Note_on_c, 6, 64, 0
7, 24920, Note_on_c, 6, 60, 125
7, 24960, Note_on_c, 6, 60, 0
7, 24960, Note_on_c, 6, 57, 125
7, 25080, Note_on_c, 6, 57, 0
7, 25280, Note_on_c, 6, 60, 125
7, 25320, Note_on_c, 6, 60, 0
7, 25320, Note_on_c, 6, 60, 125
7, 25360, Note_on_c, 6, 60, 0
7, 25360, Note_on_c, 6, 62, 125
7, 25400, Note_on_c, 6, 62, 0
7, 25400, Note_on_c, 6, 60, 125
7, 25440, Note_on_c, 6, 60, 0
7, 25440, Note_on_c, 6, 64, 125
7, 25620, Note_on_c, 6, 64, 0
7, 25640, Note_on_c, 6, 64, 125
7, 25760, Note_on_c, 6, 64, 0
7, 25760, Note_on_c, 6, 62, 125
7, 25880, Note_on_c, 6, 62, 0
7, 25880, Note_on_c, 6, 64, 125
7, 25920, Note_on_c, 6, 64, 0
7, 25920, Note_on_c, 6, 60, 125
7, 25995, Note_on_c, 6, 60, 0
7, 26000, Note_on_c, 6, 60, 125
7, 26110, Note_on_c, 6, 60, 0
7, 26120, Note_on_c, 6, 69, 125
7, 26310, Note_on_c, 6, 69, 0
7, 26320, Note_on_c, 6, 67, 125
7, 26360, Note_on_c, 6, 67, 0
7, 26360, Note_on_c, 6, 69, 125
7, 26480, Note_on_c, 6, 69, 0
7, 26480, Note_on_c, 6, 67, 125
7, 26720, Note_on_c, 6, 67, 0
7, 26840, Note_on_c, 6, 67, 125
7, 27080, Note_on_c, 6, 67, 0
7, 27080, Note_on_c, 6, 64, 125
7, 27120, Note_on_c, 6, 64, 0
7, 27120, Note_on_c, 6, 65, 125
7, 27200, Note_on_c, 6, 65, 0
7, 27200, Note_on_c, 6, 67, 125
7, 27240, Note_on_c, 6, 67, 0
7, 27240, Note_on_c, 6, 65, 125
7, 27320, Note_on_c, 6, 65, 0
7, 27320, Note_on_c, 6, 69, 125
7, 27440, Note_on_c, 6, 69, 0
7, 27480, Note_on_c, 6, 69, 125
7, 27560, Note_on_c, 6, 69, 0
7, 27560, Note_on_c, 6, 70, 125
7, 27680, Note_on_c, 6, 70, 0
7, 27720, Note_on_c, 6, 67, 125
7, 27800, Note_on_c, 6, 67, 0
7, 27800, Note_on_c, 6, 69, 125
7, 27920, Note_on_c, 6, 69, 0
7, 27960, Note_on_c, 6, 67, 125
7, 28080, Note_on_c, 6, 67, 0
7, 28080, Note_on_c, 6, 65, 125
7, 28160, Note_on_c, 6, 65, 0
7, 28160, Note_on_c, 6, 64, 125
7, 28200, Note_on_c, 6, 64, 0
7, 28200, Note_on_c, 6, 62, 125
7, 28280, Note_on_c, 6, 62, 0
7, 28280, Note_on_c, 6, 64, 125
7, 28320, Note_on_c, 6, 64, 0
7, 28320, Note_on_c, 6, 62, 125
7, 28500, Note_on_c, 6, 62, 0
7, 29120, Note_on_c, 6, 64, 125
7, 29200, Note_on_c, 6, 64, 0
7, 29200, Note_on_c, 6, 64, 125
7, 29240, Note_on_c, 6, 64, 0
7, 29240, Note_on_c, 6, 62, 125
7, 29280, Note_on_c, 6, 62, 0
7, 29280, Note_on_c, 6, 64, 125
7, 29360, Note_on_c, 6, 64, 0
7, 29360, Note_on_c, 6, 62, 125
7, 29540, Note_on_c, 6, 62, 0
7, 29880, Note_on_c, 6, 69, 125
7, 29960, Note_on_c, 6, 69, 0
7, 29960, Note_on_c, 6, 64, 125
7, 30040, Note_on_c, 6, 64, 0
7, 30080, Note_on_c, 6, 70, 125
7, 30160, Note_on_c, 6, 70, 0
7, 30160, Note_on_c, 6, 69, 125
7, 30240, Note_on_c, 6, 69, 0
7, 30240, Note_on_c, 6, 69, 125
7, 30320, Note_on_c, 6, 69, 0
7, 30320, Note_on_c, 6, 67, 125
7, 30440, Note_on_c, 6, 67, 0
7, 30800, Note_on_c, 6, 67, 125
7, 30835, Note_on_c, 6, 67, 0
7, 30840, Note_on_c, 6, 67, 125
7, 30920, Note_on_c, 6, 67, 0
7, 30920, Note_on_c, 6, 67, 125
7, 30960, Note_on_c, 6, 67, 0
7, 30960, Note_on_c, 6, 69, 125
7, 31040, Note_on_c, 6, 69, 0
7, 31040, Note_on_c, 6, 72, 125
7, 31080, Note_on_c, 6, 72, 0
7, 31080, Note_on_c, 6, 74, 125
7, 31160, Note_on_c, 6, 74, 0
7, 31160, Note_on_c, 6, 72, 125
7, 31390, Note_on_c, 6, 72, 0
7, 31400, Note_on_c, 6, 67, 125
7, 31440, Pitch_bend_c, 6, 16383
7, 31520, Note_on_c, 6, 67, 0
7, 31760, Pitch_bend_c, 6, 8192
7, 31760, Note_on_c, 6, 67, 125
7, 31795, Note_on_c, 6, 67, 0
7, 31800, Note_on_c, 6, 67, 125
7, 31880, Note_on_c, 6, 67, 0
7, 31880, Note_on_c, 6, 67, 125
7, 31920, Note_on_c, 6, 67, 0
7, 31920, Note_on_c, 6, 69, 125
7, 32000, Note_on_c, 6, 69, 0
7, 32000, Note_on_c, 6, 72, 125
7, 32040, Note_on_c, 6, 72, 0
7, 32040, Note_on_c, 6, 74, 125
7, 32120, Note_on_c, 6, 74, 0
7, 32120, Note_on_c, 6, 72, 125
7, 32350, Note_on_c, 6, 72, 0
7, 32360, Note_on_c, 6, 67, 125
7, 32400, Pitch_bend_c, 6, 16383
7, 32540, Note_on_c, 6, 67, 0
7, 32720, Pitch_bend_c, 6, 8192
7, 32720, Note_on_c, 6, 67, 125
7, 32880, Note_on_c, 6, 67, 0
7, 32880, Note_on_c, 6, 69, 125
7, 32960, Note_on_c, 6, 69, 0
7, 32960, Note_on_c, 6, 72, 125
7, 33000, Note_on_c, 6, 72, 0
7, 33000, Note_on_c, 6, 74, 125
7, 33080, Note_on_c, 6, 74, 0
7, 33080, Note_on_c, 6, 72, 125
7, 33310, Note_on_c, 6, 72, 0
7, 33320, Note_on_c, 6, 67, 125
7, 33360, Pitch_bend_c, 6, 16383
7, 33480, Pitch_bend_c, 6, 8192
7, 33500, Note_on_c, 6, 67, 0
7, 33680, Note_on_c, 6, 67, 125
7, 33715, Note_on_c, 6, 67, 0
7, 33720, Note_on_c, 6, 67, 125
7, 33800, Note_on_c, 6, 67, 0
7, 33800, Note_on_c, 6, 67, 125
7, 33840, Note_on_c, 6, 67, 0
7, 33840, Note_on_c, 6, 69, 125
7, 33920, Note_on_c, 6, 69, 0
7, 33920, Note_on_c, 6, 72, 125
7, 33960, Note_on_c, 6, 72, 0
7, 33960, Note_on_c, 6, 74, 125
7, 34040, Note_on_c, 6, 74, 0
7, 34040, Note_on_c, 6, 76, 125
7, 34360, Note_on_c, 6, 74, 125
7, 34390, Note_on_c, 6, 76, 0
7, 34400, Pitch_bend_c, 6, 16383
7, 34440, Note_on_c, 6, 74, 0
7, 34480, Pitch_bend_c, 6, 8192
7, 34480, Note_on_c, 6, 76, 125
7, 34560, Note_on_c, 6, 76, 0
7, 34560, Note_on_c, 6, 76, 125
7, 34600, Note_on_c, 6, 76, 0
7, 34600, Note_on_c, 6, 74, 125
7, 34640, Note_on_c, 6, 74, 0
7, 34640, Note_on_c, 6, 72, 125
7, 34760, Note_on_c, 6, 72, 0
7, 34800, Note_on_c, 6, 69, 125
7, 34880, Note_on_c, 6, 69, 0
7, 34880, Note_on_c, 6, 72, 125
7, 34920, Note_on_c, 6, 72, 0
7, 34920, Note_on_c, 6, 74, 125
7, 35000, Note_on_c, 6, 74, 0
7, 35000, Note_on_c, 6, 72, 125
7, 35240, Note_on_c, 6, 67, 125
7, 35280, Pitch_bend_c, 6, 16383
7, 35350, Note_on_c, 6, 72, 0
7, 35360, Note_on_c, 6, 67, 0
7, 35400, Pitch_bend_c, 6, 8192
7, 36120, Note_on_c, 6, 72, 103
7, 36440, Note_on_c, 6, 72, 0
7, 36440, Note_on_c, 6, 72, 91
7, 36680, Note_on_c, 6, 72, 0
7, 36720, Note_on_c, 6, 69, 81
7, 36800, Note_on_c, 6, 69, 0
7, 36800, Note_on_c, 6, 72, 77
7, 36880, Note_on_c, 6, 72, 0
7, 36880, Note_on_c, 6, 74, 75
7, 36960, Note_on_c, 6, 74, 0
7, 36960, Note_on_c, 6, 72, 72
7, 37160, Note_on_c, 6, 72, 0
7, 37160, Note_on_c, 6, 67, 65
7, 37200, Pitch_bend_c, 6, 16383
7, 37280, Note_on_c, 6, 67, 0
7, 37320, Pitch_bend_c, 6, 8192
7, 37520, Note_on_c, 6, 67, 51
7, 37555, Note_on_c, 6, 67, 0
7, 37560, Note_on_c, 6, 67, 50
7, 37640, Note_on_c, 6, 67, 0
7, 37640, Note_on_c, 6, 67, 46
7, 37680, Note_on_c, 6, 67, 0
7, 37680, Note_on_c, 6, 69, 45
7, 37760, Note_on_c, 6, 69, 0
7, 37760, Note_on_c, 6, 72, 42
7, 37800, Note_on_c, 6, 72, 0
7, 37800, Note_on_c, 6, 74, 41
7, 37880, Note_on_c, 6, 74, 0
7, 37880, Note_on_c, 6, 76, 37
7, 38200, Note_on_c, 6, 74, 26
7, 38230, Note_on_c, 6, 76, 0
7, 38240, Pitch_bend_c, 6, 16383
7, 38280, Note_on_c, 6, 74, 0
7, 38320, Pitch_bend_c, 6, 8192
7, 38320, Note_on_c, 6, 76, 21
7, 38400, Note_on_c, 6, 76, 0
7, 38400, Note_on_c, 6, 76, 18
7, 38440, Note_on_c, 6, 76, 0
7, 38440, Note_on_c, 6, 74, 17
7, 38480, Note_on_c, 6, 74, 0
7, 38480, Note_on_c, 6, 72, 15
7, 38600, Note_on_c, 6, 72, 0
7, 38640, Note_on_c, 6, 69, 10
7, 38720, Note_on_c, 6, 69, 0
7, 38720, Note_on_c, 6, 72, 6
7, 38760, Note_on_c, 6, 72, 0
7, 38760, Note_on_c, 6, 74, 5
7, 38840, Note_on_c, 6, 74, 0
7, 38840, End_track
8, 0, Start_track
8, 0, MIDI_port, 0
8, 0, Program_c, 7, 85
8, 0, Control_c, 7, 7, 120
8, 0, Control_c, 7, 10, 0
8, 5520, Note_on_c, 7, 67, 100
8, 5595, Note_on_c, 7, 67, 0
8, 5600, Note_on_c, 7, 64, 100
8, 5720, Note_on_c, 7, 64, 0
8, 5720, Note_on_c, 7, 67, 100
8, 6200, Note_on_c, 7, 67, 0
8, 7440, Note_on_c, 7, 65, 100
8, 7515, Note_on_c, 7, 65, 0
8, 7520, Note_on_c, 7, 64, 100
8, 7555, Note_on_c, 7, 64, 0
8, 7560, Note_on_c, 7, 62, 100
8, 7635, Note_on_c, 7, 62, 0
8, 7640, Note_on_c, 7, 64, 100
8, 7680, Note_on_c, 7, 64, 0
8, 7680, Note_on_c, 7, 62, 100
8, 8160, Note_on_c, 7, 62, 0
8, 9360, Note_on_c, 7, 69, 100
8, 9435, Note_on_c, 7, 69, 0
8, 9440, Note_on_c, 7, 67, 100
8, 9475, Note_on_c, 7, 67, 0
8, 9480, Note_on_c, 7, 62, 100
8, 9555, Note_on_c, 7, 62, 0
8, 9600, Note_on_c, 7, 67, 100
8, 9800, Note_on_c, 7, 67, 0
8, 9800, Note_on_c, 7, 69, 100
8, 10000, Note_on_c, 7, 69, 0
8, 11280, Note_on_c, 7, 69, 100
8, 11355, Note_on_c, 7, 69, 0
8, 11360, Note_on_c, 7, 67, 100
8, 11435, Note_on_c, 7, 67, 0
8, 11440, Note_on_c, 7, 64, 100
8, 11515, Note_on_c, 7, 64, 0
8, 11520, Note_on_c, 7, 67, 100
8, 11720, Note_on_c, 7, 67, 0
8, 11720, Note_on_c, 7, 69, 100
8, 11920, Note_on_c, 7, 69, 0
8, 12000, Note_on_c, 7, 57, 100
8, 12240, Note_on_c, 7, 57, 0
8, 12240, Note_on_c, 7, 59, 100
8, 12480, Note_on_c, 7, 59, 0
8, 12480, Note_on_c, 7, 60, 100
8, 12720, Note_on_c, 7, 60, 0
8, 12720, Note_on_c, 7, 62, 100
8, 12960, Note_on_c, 7, 62, 0
8, 14880, Note_on_c, 7, 55, 100
8, 15120, Note_on_c, 7, 55, 0
8, 15120, Note_on_c, 7, 56, 100
8, 15360, Note_on_c, 7, 56, 0
8, 15360, Note_on_c, 7, 57, 100
8, 15600, Note_on_c, 7, 57, 0
8, 15600, Note_on_c, 7, 57, 100
8, 15840, Note_on_c, 7, 57, 0
8, 15840, Note_on_c, 7, 55, 100
8, 16080, Note_on_c, 7, 55, 0
8, 16080, Note_on_c, 7, 67, 100
8, 16155, Note_on_c, 7, 67, 0
8, 16160, Note_on_c, 7, 64, 100
8, 16280, Note_on_c, 7, 64, 0
8, 16280, Note_on_c, 7, 67, 100
8, 16760, Note_on_c, 7, 67, 0
8, 18000, Note_on_c, 7, 65, 100
8, 18075, Note_on_c, 7, 65, 0
8, 18080, Note_on_c, 7, 64, 100
8, 18115, Note_on_c, 7, 64, 0
8, 18120, Note_on_c, 7, 62, 100
8, 18195, Note_on_c, 7, 62, 0
8, 18200, Note_on_c, 7, 64, 100
8, 18240, Note_on_c, 7, 64, 0
8, 18240, Note_on_c, 7, 62, 100
8, 18720, Note_on_c, 7, 62, 0
8, 19920, Note_on_c, 7, 69, 100
8, 19995, Note_on_c, 7, 69, 0
8, 20000, Note_on_c, 7, 67, 100
8, 20035, Note_on_c, 7, 67, 0
8, 20040, Note_on_c, 7, 62, 100
8, 20115, Note_on_c, 7, 62, 0
8, 20160, Note_on_c, 7, 67, 100
8, 20360, Note_on_c, 7, 67, 0
8, 20360, Note_on_c, 7, 69, 100
8, 20560, Note_on_c, 7, 69, 0
8, 21840, Note_on_c, 7, 69, 100
8, 21915, Note_on_c, 7, 69, 0
8, 21920, Note_on_c, 7, 67, 100
8, 21995, Note_on_c, 7, 67, 0
8, 22000, Note_on_c, 7, 64, 100
8, 22075, Note_on_c, 7, 64, 0
8, 22080, Note_on_c, 7, 67, 100
8, 22280, Note_on_c, 7, 67, 0
8, 22280, Note_on_c, 7, 69, 100
8, 22480, Note_on_c, 7, 69, 0
8, 22560, Note_on_c, 7, 57, 100
8, 22800, Note_on_c, 7, 57, 0
8, 22800, Note_on_c, 7, 59, 100
8, 23040, Note_on_c, 7, 59, 0
8, 23040, Note_on_c, 7, 60, 100
8, 23280, Note_on_c, 7, 60, 0
8, 23280, Note_on_c, 7, 62, 100
8, 23520, Note_on_c, 7, 62, 0
8, 23520, Note_on_c, 7, 60, 100
8, 23720, Note_on_c, 7, 60, 0
8, 23720, Note_on_c, 7, 60, 100
8, 23840, Note_on_c, 7, 60, 0
8, 25440, Note_on_c, 7, 55, 100
8, 25680, Note_on_c, 7, 55, 0
8, 25680, Note_on_c, 7, 56, 100
8, 25920, Note_on_c, 7, 56, 0
8, 25920, Note_on_c, 7, 57, 100
8, 26160, Note_on_c, 7, 57, 0
8, 26160, Note_on_c, 7, 57, 100
8, 26400, Note_on_c, 7, 57, 0
8, 26400, Note_on_c, 7, 55, 100
8, 26640, Note_on_c, 7, 55, 0
8, 26640, Note_on_c, 7, 67, 100
8, 26715, Note_on_c, 7, 67, 0
8, 26720, Note_on_c, 7, 64, 100
8, 26840, Note_on_c, 7, 64, 0
8, 26840, Note_on_c, 7, 67, 100
8, 27320, Note_on_c, 7, 67, 0
8, 28560, Note_on_c, 7, 65, 100
8, 28635, Note_on_c, 7, 65, 0
8, 28640, Note_on_c, 7, 64, 100
8, 28675, Note_on_c, 7, 64, 0
8, 28680, Note_on_c, 7, 62, 100
8, 28755, Note_on_c, 7, 62, 0
8, 28760, Note_on_c, 7, 64, 100
8, 28800, Note_on_c, 7, 64, 0
8, 28800, Note_on_c, 7, 62, 100
8, 29280, Note_on_c, 7, 62, 0
8, 29520, Note_on_c, 7, 64, 100
8, 29595, Note_on_c, 7, 64, 0
8, 29600, Note_on_c, 7, 64, 100
8, 29675, Note_on_c, 7, 64, 0
8, 29720, Note_on_c, 7, 64, 100
8, 29760, Note_on_c, 7, 64, 0
8, 29760, Note_on_c, 7, 62, 100
8, 30240, Note_on_c, 7, 62, 0
8, 30480, Note_on_c, 7, 64, 100
8, 30555, Note_on_c, 7, 64, 0
8, 30560, Note_on_c, 7, 64, 100
8, 30635, Note_on_c, 7, 64, 0
8, 30680, Note_on_c, 7, 64, 100
8, 30720, Note_on_c, 7, 64, 0
8, 30720, Note_on_c, 7, 62, 100
8, 31200, Note_on_c, 7, 62, 0
8, 34160, Note_on_c, 7, 69, 100
8, 34320, Note_on_c, 7, 67, 100
8, 34340, Note_on_c, 7, 69, 0
8, 34560, Note_on_c, 7, 67, 0
8, 34560, Note_on_c, 7, 69, 100
8, 34800, Note_on_c, 7, 69, 0
8, 34800, Note_on_c, 7, 69, 100
8, 35040, Note_on_c, 7, 69, 0
8, 35120, Note_on_c, 7, 69, 100
8, 35280, Note_on_c, 7, 67, 100
8, 35300, Note_on_c, 7, 69, 0
8, 35520, Note_on_c, 7, 67, 0
8, 35520, Note_on_c, 7, 69, 100
8, 35760, Note_on_c, 7, 69, 0
8, 35760, Note_on_c, 7, 69, 93
8, 36000, Note_on_c, 7, 69, 0
8, 36080, Note_on_c, 7, 69, 84
8, 36240, Note_on_c, 7, 67, 79
8, 36260, Note_on_c, 7, 69, 0
8, 36480, Note_on_c, 7, 67, 0
8, 36480, Note_on_c, 7, 69, 72
8, 36720, Note_on_c, 7, 69, 0
8, 36720, Note_on_c, 7, 69, 65
8, 36960, Note_on_c, 7, 69, 0
8, 37040, Note_on_c, 7, 69, 55
8, 37200, Note_on_c, 7, 67, 50
8, 37220, Note_on_c, 7, 69, 0
8, 37440, Note_on_c, 7, 67, 0
8, 37440, Note_on_c, 7, 69, 43
8, 37680, Note_on_c, 7, 69, 0
8, 37680, Note_on_c, 7, 69, 36
8, 37920, Note_on_c, 7, 69, 0
8, 38000, Note_on_c, 7, 69, 27
8, 38160, Note_on_c, 7, 67, 22
8, 38180, Note_on_c, 7, 69, 0
8, 38400, Note_on_c, 7, 67, 0
8, 38400, Note_on_c, 7, 69, 15
8, 38640, Note_on_c, 7, 69, 0
8, 38640, Note_on_c, 7, 69, 8
8, 38880, Note_on_c, 7, 69, 0
8, 38880, End_track
9, 0, Start_track
9, 0, MIDI_port, 0
9, 0, Program_c, 8, 85
9, 0, Control_c, 8, 7, 120
9, 0, Control_c, 8, 10, 127
9, 5520, Note_on_c, 8, 55, 100
9, 5595, Note_on_c, 8, 55, 0
9, 5600, Note_on_c, 8, 52, 100
9, 5720, Note_on_c, 8, 52, 0
9, 5720, Note_on_c, 8, 55, 100
9, 6200, Note_on_c, 8, 55, 0
9, 7440, Note_on_c, 8, 53, 100
9, 7515, Note_on_c, 8, 53, 0
9, 7520, Note_on_c, 8, 52, 100
9, 7555, Note_on_c, 8, 52, 0
9, 7560, Note_on_c, 8, 50, 100
9, 7635, Note_on_c, 8, 50, 0
9, 7640, Note_on_c, 8, 52, 100
9, 7680, Note_on_c, 8, 52, 0
9, 7680, Note_on_c, 8, 50, 100
9, 8160, Note_on_c, 8, 50, 0
9, 9360, Note_on_c, 8, 57, 100
9, 9435, Note_on_c, 8, 57, 0
9, 9440, Note_on_c, 8, 55, 100
9, 9475, Note_on_c, 8, 55, 0
9, 9480, Note_on_c, 8, 50, 100
9, 9555, Note_on_c, 8, 50, 0
9, 9600, Note_on_c, 8, 55, 100
9, 9800, Note_on_c, 8, 55, 0
9, 9800, Note_on_c, 8, 57, 100
9, 10000, Note_on_c, 8, 57, 0
9, 11280, Note_on_c, 8, 57, 100
9, 11355, Note_on_c, 8, 57, 0
9, 11360, Note_on_c, 8, 55, 100
9, 11435, Note_on_c, 8, 55, 0
9, 11440, Note_on_c, 8, 52, 100
9, 11515, Note_on_c, 8, 52, 0
9, 11520, Note_on_c, 8, 55, 100
9, 11720, Note_on_c, 8, 55, 0
9, 11720, Note_on_c, 8, 57, 100
9, 11920, Note_on_c, 8, 57, 0
9, 12000, Note_on_c, 8, 65, 100
9, 12240, Note_on_c, 8, 65, 0
9, 12240, Note_on_c, 8, 64, 100
9, 12480, Note_on_c, 8, 64, 0
9, 12480, Note_on_c, 8, 65, 100
9, 12720, Note_on_c, 8, 65, 0
9, 12720, Note_on_c, 8, 67, 100
9, 12960, Note_on_c, 8, 67, 0
9, 12960, Note_on_c, 8, 69, 100
9, 13160, Note_on_c, 8, 69, 0
9, 13160, Note_on_c, 8, 67, 100
9, 13280, Note_on_c, 8, 67, 0
9, 14880, Note_on_c, 8, 55, 100
9, 15120, Note_on_c, 8, 55, 0
9, 15120, Note_on_c, 8, 56, 100
9, 15360, Note_on_c, 8, 56, 0
9, 15360, Note_on_c, 8, 57, 100
9, 15600, Note_on_c, 8, 57, 0
9, 15600, Note_on_c, 8, 60, 100
9, 15840, Note_on_c, 8, 60, 0
9, 15840, Note_on_c, 8, 62, 100
9, 16560, Note_on_c, 8, 62, 0
9, 18000, Note_on_c, 8, 53, 100
9, 18075, Note_on_c, 8, 53, 0
9, 18080, Note_on_c, 8, 52, 100
9, 18115, Note_on_c, 8, 52, 0
9, 18120, Note_on_c, 8, 50, 100
9, 18195, Note_on_c, 8, 50, 0
9, 18200, Note_on_c, 8, 52, 100
9, 18240, Note_on_c, 8, 52, 0
9, 18240, Note_on_c, 8, 50, 100
9, 18720, Note_on_c, 8, 50, 0
9, 19920, Note_on_c, 8, 57, 100
9, 19995, Note_on_c, 8, 57, 0
9, 20000, Note_on_c, 8, 55, 100
9, 20035, Note_on_c, 8, 55, 0
9, 20040, Note_on_c, 8, 50, 100
9, 20115, Note_on_c, 8, 50, 0
9, 20160, Note_on_c, 8, 55, 100
9, 20360, Note_on_c, 8, 55, 0
9, 20360, Note_on_c, 8, 57, 100
9, 20560, Note_on_c, 8, 57, 0
9, 21840, Note_on_c, 8, 57, 100
9, 21915, Note_on_c, 8, 57, 0
9, 21920, Note_on_c, 8, 55, 100
9, 21995, Note_on_c, 8, 55, 0
9, 22000, Note_on_c, 8, 52, 100
9, 22075, Note_on_c, 8, 52, 0
9, 22080, Note_on_c, 8, 55, 100
9, 22280, Note_on_c, 8, 55, 0
9, 22280, Note_on_c, 8, 57, 100
9, 22480, Note_on_c, 8, 57, 0
9, 22560, Note_on_c, 8, 65, 100
9, 22800, Note_on_c, 8, 65, 0
9, 22800, Note_on_c, 8, 64, 100
9, 23040, Note_on_c, 8, 64, 0
9, 23040, Note_on_c, 8, 65, 100
9, 23280, Note_on_c, 8, 65, 0
9, 23280, Note_on_c, 8, 67, 100
9, 23520, Note_on_c, 8, 67, 0
9, 23520, Note_on_c, 8, 69, 100
9, 23720, Note_on_c, 8, 69, 0
9, 23720, Note_on_c, 8, 67, 100
9, 23840, Note_on_c, 8, 67, 0
9, 25440, Note_on_c, 8, 55, 100
9, 25680, Note_on_c, 8, 55, 0
9, 25680, Note_on_c, 8, 56, 100
9, 25920, Note_on_c, 8, 56, 0
9, 25920, Note_on_c, 8, 57, 100
9, 26160, Note_on_c, 8, 57, 0
9, 26160, Note_on_c, 8, 60, 100
9, 26400, Note_on_c, 8, 60, 0
9, 26400, Note_on_c, 8, 62, 100
9, 27120, Note_on_c, 8, 62, 0
9, 28560, Note_on_c, 8, 53, 100
9, 28635, Note_on_c, 8, 53, 0
9, 28640, Note_on_c, 8, 52, 100
9, 28675, Note_on_c, 8, 52, 0
9, 28680, Note_on_c, 8, 50, 100
9, 28755, Note_on_c, 8, 50, 0
9, 28760, Note_on_c, 8, 52, 100
9, 28800, Note_on_c, 8, 52, 0
9, 28800, Note_on_c, 8, 50, 100
9, 29280, Note_on_c, 8, 50, 0
9, 29520, Note_on_c, 8, 52, 100
9, 29595, Note_on_c, 8, 52, 0
9, 29600, Note_on_c, 8, 52, 100
9, 29675, Note_on_c, 8, 52, 0
9, 29720, Note_on_c, 8, 52, 100
9, 29760, Note_on_c, 8, 52, 0
9, 29760, Note_on_c, 8, 50, 100
9, 30240, Note_on_c, 8, 50, 0
9, 30480, Note_on_c, 8, 52, 100
9, 30555, Note_on_c, 8, 52, 0
9, 30560, Note_on_c, 8, 52, 100
9, 30635, Note_on_c, 8, 52, 0
9, 30680, Note_on_c, 8, 52, 100
9, 30720, Note_on_c, 8, 52, 0
9, 30720, Note_on_c, 8, 50, 100
9, 31080, Note_on_c, 8, 50, 0
9, 31160, Note_on_c, 8, 52, 100
9, 31400, Note_on_c, 8, 52, 0
9, 31400, Note_on_c, 8, 55, 100
9, 31580, Note_on_c, 8, 55, 0
9, 32120, Note_on_c, 8, 57, 100
9, 32360, Note_on_c, 8, 57, 0
9, 32360, Note_on_c, 8, 59, 100
9, 32540, Note_on_c, 8, 59, 0
9, 33080, Note_on_c, 8, 57, 100
9, 33320, Note_on_c, 8, 57, 0
9, 33320, Note_on_c, 8, 59, 100
9, 33500, Note_on_c, 8, 59, 0
9, 34160, Note_on_c, 8, 64, 100
9, 34160, Note_on_c, 8, 57, 100
9, 34320, Note_on_c, 8, 62, 100
9, 34320, Note_on_c, 8, 59, 100
9, 34340, Note_on_c, 8, 57, 0
9, 34340, Note_on_c, 8, 64, 0
9, 34560, Note_on_c, 8, 62, 0
9, 34560, Note_on_c, 8, 59, 0
9, 34560, Note_on_c, 8, 60, 100
9, 34800, Note_on_c, 8, 60, 0
9, 34800, Note_on_c, 8, 62, 100
9, 35040, Note_on_c, 8, 62, 0
9, 35120, Note_on_c, 8, 64, 100
9, 35120, Note_on_c, 8, 57, 100
9, 35280, Note_on_c, 8, 62, 100
9, 35280, Note_on_c, 8, 59, 100
9, 35300, Note_on_c, 8, 57, 0
9, 35300, Note_on_c, 8, 64, 0
9, 35520, Note_on_c, 8, 62, 0
9, 35520, Note_on_c, 8, 59, 0
9, 35520, Note_on_c, 8, 60, 100
9, 35760, Note_on_c, 8, 60, 0
9, 35760, Note_on_c, 8, 62, 93
9, 36000, Note_on_c, 8, 62, 0
9, 36080, Note_on_c, 8, 64, 84
9, 36080, Note_on_c, 8, 57, 84
9, 36240, Note_on_c, 8, 62, 79
9, 36240, Note_on_c, 8, 59, 79
9, 36260, Note_on_c, 8, 57, 0
9, 36260, Note_on_c, 8, 64, 0
9, 36480, Note_on_c, 8, 62, 0
9, 36480, Note_on_c, 8, 59, 0
9, 36480, Note_on_c, 8, 60, 72
9, 36720, Note_on_c, 8, 60, 0
9, 36720, Note_on_c, 8, 62, 65
9, 36960, Note_on_c, 8, 62, 0
9, 37040, Note_on_c, 8, 64, 55
9, 37040, Note_on_c, 8, 57, 55
9, 37200, Note_on_c, 8, 62, 50
9, 37200, Note_on_c, 8, 59, 50
9, 37220, Note_on_c, 8, 57, 0
9, 37220, Note_on_c, 8, 64, 0
9, 37440, Note_on_c, 8, 62, 0
9, 37440, Note_on_c, 8, 59, 0
9, 37440, Note_on_c, 8, 60, 43
9, 37680, Note_on_c, 8, 60, 0
9, 37680, Note_on_c, 8, 62, 36
9, 37920, Note_on_c, 8, 62, 0
9, 38000, Note_on_c, 8, 64, 27
9, 38000, Note_on_c, 8, 57, 27
9, 38160, Note_on_c, 8, 62, 22
9, 38160, Note_on_c, 8, 59, 22
9, 38180, Note_on_c, 8, 57, 0
9, 38180, Note_on_c, 8, 64, 0
9, 38400, Note_on_c, 8, 62, 0
9, 38400, Note_on_c, 8, 59, 0
9, 38400, Note_on_c, 8, 60, 15
9, 38640, Note_on_c, 8, 60, 0
9, 38640, Note_on_c, 8, 62, 8
9, 38880, Note_on_c, 8, 62, 0
9, 38880, End_track
10, 0, Start_track
10, 0, MIDI_port, 0
10, 0, Control_c, 9, 7, 125
10, 0, Control_c, 9, 10, 64
10, 1280, Note_on_c, 9, 40, 125
10, 1320, Note_on_c, 9, 40, 125
10, 1360, Note_on_c, 9, 48, 100
10, 1400, Note_on_c, 9, 40, 0
10, 1400, Note_on_c, 9, 48, 100
10, 1440, Note_on_c, 9, 40, 0
10, 1440, Note_on_c, 9, 36, 120
10, 1440, Note_on_c, 9, 46, 100
10, 1480, Note_on_c, 9, 48, 0
10, 1520, Note_on_c, 9, 48, 0
10, 1560, Note_on_c, 9, 36, 0
10, 1560, Note_on_c, 9, 46, 0
10, 1560, Note_on_c, 9, 40, 125
10, 1560, Note_on_c, 9, 46, 100
10, 1680, Note_on_c, 9, 46, 0
10, 1680, Note_on_c, 9, 40, 0
10, 1680, Note_on_c, 9, 36, 120
10, 1680, Note_on_c, 9, 46, 100
10, 1800, Note_on_c, 9, 46, 0
10, 1800, Note_on_c, 9, 36, 0
10, 1800, Note_on_c, 9, 40, 125
10, 1800, Note_on_c, 9, 46, 100
10, 1880, Note_on_c, 9, 36, 120
10, 1920, Note_on_c, 9, 46, 0
10, 1920, Note_on_c, 9, 40, 0
10, 1920, Note_on_c, 9, 46, 100
10, 2000, Note_on_c, 9, 36, 0
10, 2040, Note_on_c, 9, 46, 0
10, 2040, Note_on_c, 9, 40, 125
10, 2040, Note_on_c, 9, 46, 100
10, 2160, Note_on_c, 9, 46, 0
10, 2160, Note_on_c, 9, 40, 0
10, 2160, Note_on_c, 9, 36, 120
10, 2160, Note_on_c, 9, 46, 100
10, 2240, Note_on_c, 9, 40, 125
10, 2260, Note_on_c, 9, 40, 125
10, 2280, Note_on_c, 9, 46, 0
10, 2280, Note_on_c, 9, 36, 0
10, 2280, Note_on_c, 9, 40, 125
10, 2280, Note_on_c, 9, 46, 100
10, 2360, Note_on_c, 9, 40, 0
10, 2360, Note_on_c, 9, 40, 125
10, 2380, Note_on_c, 9, 40, 0
10, 2380, Note_on_c, 9, 40, 125
10, 2400, Note_on_c, 9, 40, 0
10, 2400, Note_on_c, 9, 46, 0
10, 2400, Note_on_c, 9, 36, 120
10, 2400, Note_on_c, 9, 46, 100
10, 2480, Note_on_c, 9, 40, 0
10, 2500, Note_on_c, 9, 40, 0
10, 2520, Note_on_c, 9, 36, 0
10, 2520, Note_on_c, 9, 46, 0
10, 2520, Note_on_c, 9, 40, 125
10, 2520, Note_on_c, 9, 46, 100
10, 2640, Note_on_c, 9, 46, 0
10, 2640, Note_on_c, 9, 40, 0
10, 2640, Note_on_c, 9, 36, 120
10, 2640, Note_on_c, 9, 46, 100
10, 2760, Note_on_c, 9, 46, 0
10, 2760, Note_on_c, 9, 36, 0
10, 2760, Note_on_c, 9, 40, 125
10, 2760, Note_on_c, 9, 46, 100
10, 2840, Note_on_c, 9, 36, 120
10, 2880, Note_on_c, 9, 46, 0
10, 2880, Note_on_c, 9, 40, 0
10, 2880, Note_on_c, 9, 36, 120
10, 2880, Note_on_c, 9, 46, 100
10, 2960, Note_on_c, 9, 36, 0
10, 3000, Note_on_c, 9, 46, 0
10, 3000, Note_on_c, 9, 36, 0
10, 3000, Note_on_c, 9, 40, 125
10, 3000, Note_on_c, 9, 46, 100
10, 3120, Note_on_c, 9, 46, 0
10, 3120, Note_on_c, 9, 40, 0
10, 3120, Note_on_c, 9, 48, 100
10, 3120, Note_on_c, 9, 46, 100
10, 3160, Note_on_c, 9, 48, 100
10, 3200, Note_on_c, 9, 48, 100
10, 3240, Note_on_c, 9, 48, 0
10, 3240, Note_on_c, 9, 46, 0
10, 3240, Note_on_c, 9, 47, 100
10, 3240, Note_on_c, 9, 46, 100
10, 3280, Note_on_c, 9, 48, 0
10, 3280, Note_on_c, 9, 47, 100
10, 3320, Note_on_c, 9, 48, 0
10, 3320, Note_on_c, 9, 47, 100
10, 3360, Note_on_c, 9, 47, 0
10, 3360, Note_on_c, 9, 46, 0
10, 3360, Note_on_c, 9, 36, 120
10, 3360, Note_on_c, 9, 49, 100
10, 3400, Note_on_c, 9, 47, 0
10, 3440, Note_on_c, 9, 47, 0
10, 3480, Note_on_c, 9, 36, 0
10, 3480, Note_on_c, 9, 49, 0
10, 3480, Note_on_c, 9, 40, 125
10, 3480, Note_on_c, 9, 46, 100
10, 3600, Note_on_c, 9, 46, 0
10, 3600, Note_on_c, 9, 40, 0
10, 3600, Note_on_c, 9, 36, 120
10, 3600, Note_on_c, 9, 46, 100
10, 3720, Note_on_c, 9, 46, 0
10, 3720, Note_on_c, 9, 36, 0
10, 3720, Note_on_c, 9, 40, 125
10, 3720, Note_on_c, 9, 46, 100
10, 3840, Note_on_c, 9, 46, 0
10, 3840, Note_on_c, 9, 40, 0
10, 3840, Note_on_c, 9, 36, 120
10, 3840, Note_on_c, 9, 46, 100
10, 3960, Note_on_c, 9, 46, 0
10, 3960, Note_on_c, 9, 36, 0
10, 3960, Note_on_c, 9, 40, 125
10, 3960, Note_on_c, 9, 46, 100
10, 4040, Note_on_c, 9, 36, 120
10, 4080, Note_on_c, 9, 46, 0
10, 4080, Note_on_c, 9, 40, 0
10, 4080, Note_on_c, 9, 46, 100
10, 4160, Note_on_c, 9, 36, 0
10, 4160, Note_on_c, 9, 36, 120
10, 4200, Note_on_c, 9, 46, 0
10, 4200, Note_on_c, 9, 40, 125
10, 4200, Note_on_c, 9, 46, 100
10, 4280, Note_on_c, 9, 36, 0
10, 4320, Note_on_c, 9, 46, 0
10, 4320, Note_on_c, 9, 40, 0
10, 4320, Note_on_c, 9, 36, 120
10, 4320, Note_on_c, 9, 46, 100
10, 4440, Note_on_c, 9, 46, 0
10, 4440, Note_on_c, 9, 36, 0
10, 4440, Note_on_c, 9, 40, 125
10, 4440, Note_on_c, 9, 46, 100
10, 4520, Note_on_c, 9, 36, 120
10, 4560, Note_on_c, 9, 46, 0
10, 4560, Note_on_c, 9, 40, 0
10, 4560, Note_on_c, 9, 36, 120
10, 4560, Note_on_c, 9, 46, 100
10, 4640, Note_on_c, 9, 36, 0
10, 4680, Note_on_c, 9, 46, 0
10, 4680, Note_on_c, 9, 36, 0
10, 4680, Note_on_c, 9, 40, 125
10, 4680, Note_on_c, 9, 46, 100
10, 4800, Note_on_c, 9, 46, 0
10, 4800, Note_on_c, 9, 40, 0
10, 4800, Note_on_c, 9, 36, 120
10, 4800, Note_on_c, 9, 46, 100
10, 4920, Note_on_c, 9, 46, 0
10, 4920, Note_on_c, 9, 36, 0
10, 4920, Note_on_c, 9, 40, 125
10, 4920, Note_on_c, 9, 46, 100
10, 5000, Note_on_c, 9, 48, 100
10, 5040, Note_on_c, 9, 46, 0
10, 5040, Note_on_c, 9, 40, 0
10, 5040, Note_on_c, 9, 46, 100
10, 5120, Note_on_c, 9, 48, 0
10, 5160, Note_on_c, 9, 46, 0
10, 5160, Note_on_c, 9, 40, 125
10, 5160, Note_on_c, 9, 46, 100
10, 5280, Note_on_c, 9, 46, 0
10, 5280, Note_on_c, 9, 40, 0
10, 5280, Note_on_c, 9, 36, 120
10, 5280, Note_on_c, 9, 46, 100
10, 5400, Note_on_c, 9, 46, 0
10, 5400, Note_on_c, 9, 36, 0
10, 5400, Note_on_c, 9, 40, 125
10, 5400, Note_on_c, 9, 46, 100
10, 5520, Note_on_c, 9, 46, 0
10, 5520, Note_on_c, 9, 40, 0
10, 5520, Note_on_c, 9, 36, 120
10, 5520, Note_on_c, 9, 46, 100
10, 5640, Note_on_c, 9, 46, 0
10, 5640, Note_on_c, 9, 36, 0
10, 5640, Note_on_c, 9, 40, 125
10, 5640, Note_on_c, 9, 46, 100
10, 5760, Note_on_c, 9, 46, 0
10, 5760, Note_on_c, 9, 40, 0
10, 5760, Note_on_c, 9, 36, 120
10, 5760, Note_on_c, 9, 46, 100
10, 5880, Note_on_c, 9, 46, 0
10, 5880, Note_on_c, 9, 36, 0
10, 5880, Note_on_c, 9, 40, 125
10, 5880, Note_on_c, 9, 46, 100
10, 6000, Note_on_c, 9, 46, 0
10, 6000, Note_on_c, 9, 40, 0
10, 6000, Note_on_c, 9, 36, 120
10, 6000, Note_on_c, 9, 40, 100
10, 6040, Note_on_c, 9, 40, 100
10, 6080, Note_on_c, 9, 40, 100
10, 6120, Note_on_c, 9, 40, 0
10, 6120, Note_on_c, 9, 36, 0
10, 6120, Note_on_c, 9, 48, 100
10, 6160, Note_on_c, 9, 40, 0
10, 6160, Note_on_c, 9, 48, 100
10, 6200, Note_on_c, 9, 40, 0
10, 6200, Note_on_c, 9, 48, 100
10, 6240, Note_on_c, 9, 48, 0
10, 6240, Note_on_c, 9, 36, 120
10, 6240, Note_on_c, 9, 49, 100
10, 6280, Note_on_c, 9, 48, 0
10, 6320, Note_on_c, 9, 48, 0
10, 6360, Note_on_c, 9, 36, 0
10, 6360, Note_on_c, 9, 49, 0
10, 6360, Note_on_c, 9, 40, 125
10, 6360, Note_on_c, 9, 46, 100
10, 6480, Note_on_c, 9, 46, 0
10, 6480, Note_on_c, 9, 40, 0
10, 6480, Note_on_c, 9, 36, 120
10, 6480, Note_on_c, 9, 46, 100
10, 6600, Note_on_c, 9, 46, 0
10, 6600, Note_on_c, 9, 36, 0
10, 6600, Note_on_c, 9, 40, 125
10, 6600, Note_on_c, 9, 46, 100
10, 6680, Note_on_c, 9, 36, 120
10, 6720, Note_on_c, 9, 46, 0
10, 6720, Note_on_c, 9, 40, 0
10, 6720, Note_on_c, 9, 46, 100
10, 6800, Note_on_c, 9, 36, 0
10, 6840, Note_on_c, 9, 46, 0
10, 6840, Note_on_c, 9, 40, 125
10, 6840, Note_on_c, 9, 46, 100
10, 6960, Note_on_c, 9, 46, 0
10, 6960, Note_on_c, 9, 40, 0
10, 6960, Note_on_c, 9, 36, 120
10, 6960, Note_on_c, 9, 46, 100
10, 7040, Note_on_c, 9, 40, 100
10, 7060, Note_on_c, 9, 40, 100
10, 7080, Note_on_c, 9, 46, 0
10, 7080, Note_on_c, 9, 36, 0
10, 7080, Note_on_c, 9, 36, 120
10, 7080, Note_on_c, 9, 46, 100
10, 7160, Note_on_c, 9, 40, 0
10, 7160, Note_on_c, 9, 36, 120
10, 7180, Note_on_c, 9, 40, 0
10, 7200, Note_on_c, 9, 46, 0
10, 7200, Note_on_c, 9, 36, 0
10, 7200, Note_on_c, 9, 40, 125
10, 7200, Note_on_c, 9, 46, 100
10, 7280, Note_on_c, 9, 36, 0
10, 7320, Note_on_c, 9, 46, 0
10, 7320, Note_on_c, 9, 40, 0
10, 7320, Note_on_c, 9, 40, 125
10, 7320, Note_on_c, 9, 46, 100
10, 7440, Note_on_c, 9, 46, 0
10, 7440, Note_on_c, 9, 40, 0
10, 7440, Note_on_c, 9, 40, 125
10, 7440, Note_on_c, 9, 46, 100
10, 7520, Note_on_c, 9, 36, 120
10, 7560, Note_on_c, 9, 46, 0
10, 7560, Note_on_c, 9, 40, 0
10, 7560, Note_on_c, 9, 40, 125
10, 7560, Note_on_c, 9, 46, 100
10, 7640, Note_on_c, 9, 36, 0
10, 7640, Note_on_c, 9, 36, 120
10, 7680, Note_on_c, 9, 46, 0
10, 7680, Note_on_c, 9, 40, 0
10, 7680, Note_on_c, 9, 40, 100
10, 7680, Note_on_c, 9, 46, 100
10, 7760, Note_on_c, 9, 36, 0
10, 7800, Note_on_c, 9, 46, 0
10, 7800, Note_on_c, 9, 40, 0
10, 7800, Note_on_c, 9, 40, 125
10, 7800, Note_on_c, 9, 46, 100
10, 7880, Note_on_c, 9, 36, 100
10, 7880, Note_on_c, 9, 49, 100
10, 7920, Note_on_c, 9, 46, 0
10, 7920, Note_on_c, 9, 40, 0
10, 8000, Note_on_c, 9, 36, 0
10, 8000, Note_on_c, 9, 49, 0
10, 8000, Note_on_c, 9, 40, 100
10, 8040, Note_on_c, 9, 48, 100
10, 8080, Note_on_c, 9, 48, 100
10, 8120, Note_on_c, 9, 40, 0
10, 8120, Note_on_c, 9, 48, 100
10, 8160, Note_on_c, 9, 48, 0
10, 8160, Note_on_c, 9, 36, 120
10, 8160, Note_on_c, 9, 49, 100
10, 8200, Note_on_c, 9, 48, 0
10, 8240, Note_on_c, 9, 48, 0
10, 8280, Note_on_c, 9, 36, 0
10, 8280, Note_on_c, 9, 49, 0
10, 8280, Note_on_c, 9, 40, 125
10, 8280, Note_on_c, 9, 46, 100
10, 8360, Note_on_c, 9, 36, 120
10, 8400, Note_on_c, 9, 46, 0
10, 8400, Note_on_c, 9, 40, 0
10, 8400, Note_on_c, 9, 36, 120
10, 8400, Note_on_c, 9, 46, 100
10, 8480, Note_on_c, 9, 36, 0
10, 8520, Note_on_c, 9, 46, 0
10, 8520, Note_on_c, 9, 36, 0
10, 8520, Note_on_c, 9, 40, 125
10, 8520, Note_on_c, 9, 46, 100
10, 8640, Note_on_c, 9, 46, 0
10, 8640, Note_on_c, 9, 40, 0
10, 8640, Note_on_c, 9, 36, 120
10, 8640, Note_on_c, 9, 46, 100
10, 8760, Note_on_c, 9, 46, 0
10, 8760, Note_on_c, 9, 36, 0
10, 8760, Note_on_c, 9, 40, 125
10, 8760, Note_on_c, 9, 46, 100
10, 8840, Note_on_c, 9, 36, 120
10, 8880, Note_on_c, 9, 46, 0
10, 8880, Note_on_c, 9, 40, 0
10, 8880, Note_on_c, 9, 46, 100
10, 8960, Note_on_c, 9, 36, 0
10, 9000, Note_on_c, 9, 46, 0
10, 9000, Note_on_c, 9, 40, 125
10, 9000, Note_on_c, 9, 46, 100
10, 9120, Note_on_c, 9, 46, 0
10, 9120, Note_on_c, 9, 40, 0
10, 9120, Note_on_c, 9, 36, 120
10, 9120, Note_on_c, 9, 46, 100
10, 9240, Note_on_c, 9, 46, 0
10, 9240, Note_on_c, 9, 36, 0
10, 9240, Note_on_c, 9, 40, 125
10, 9240, Note_on_c, 9, 46, 100
10, 9320, Note_on_c, 9, 36, 120
10, 9360, Note_on_c, 9, 46, 0
10, 9360, Note_on_c, 9, 40, 0
10, 9360, Note_on_c, 9, 36, 120
10, 9360, Note_on_c, 9, 46, 100
10, 9440, Note_on_c, 9, 36, 0
10, 9480, Note_on_c, 9, 46, 0
10, 9480, Note_on_c, 9, 36, 0
10, 9480, Note_on_c, 9, 40, 125
10, 9480, Note_on_c, 9, 46, 100
10, 9600, Note_on_c, 9, 46, 0
10, 9600, Note_on_c, 9, 40, 0
10, 9600, Note_on_c, 9, 36, 120
10, 9600, Note_on_c, 9, 46, 100
10, 9720, Note_on_c, 9, 46, 0
10, 9720, Note_on_c, 9, 36, 0
10, 9720, Note_on_c, 9, 40, 125
10, 9720, Note_on_c, 9, 46, 100
10, 9800, Note_on_c, 9, 40, 125
10, 9840, Note_on_c, 9, 40, 0
10, 9840, Note_on_c, 9, 46, 0
10, 9840, Note_on_c, 9, 40, 100
10, 9880, Note_on_c, 9, 40, 100
10, 9920, Note_on_c, 9, 40, 0
10, 9920, Note_on_c, 9, 40, 100
10, 9960, Note_on_c, 9, 40, 0
10, 9960, Note_on_c, 9, 48, 100
10, 10000, Note_on_c, 9, 40, 0
10, 10000, Note_on_c, 9, 48, 100
10, 10040, Note_on_c, 9, 40, 0
10, 10040, Note_on_c, 9, 48, 100
10, 10080, Note_on_c, 9, 48, 0
10, 10080, Note_on_c, 9, 36, 120
10, 10080, Note_on_c, 9, 46, 100
10, 10120, Note_on_c, 9, 48, 0
10, 10160, Note_on_c, 9, 48, 0
10, 10200, Note_on_c, 9, 36, 0
10, 10200, Note_on_c, 9, 46, 0
10, 10200, Note_on_c, 9, 40, 125
10, 10200, Note_on_c, 9, 46, 100
10, 10280, Note_on_c, 9, 36, 120
10, 10320, Note_on_c, 9, 46, 0
10, 10320, Note_on_c, 9, 40, 0
10, 10320, Note_on_c, 9, 36, 120
10, 10320, Note_on_c, 9, 46, 100
10, 10400, Note_on_c, 9, 36, 0
10, 10440, Note_on_c, 9, 46, 0
10, 10440, Note_on_c, 9, 36, 0
10, 10440, Note_on_c, 9, 40, 125
10, 10440, Note_on_c, 9, 46, 100
10, 10560, Note_on_c, 9, 46, 0
10, 10560, Note_on_c, 9, 40, 0
10, 10560, Note_on_c, 9, 36, 120
10, 10560, Note_on_c, 9, 46, 100
10, 10680, Note_on_c, 9, 46, 0
10, 10680, Note_on_c, 9, 36, 0
10, 10680, Note_on_c, 9, 40, 125
10, 10680, Note_on_c, 9, 46, 100
10, 10760, Note_on_c, 9, 36, 120
10, 10800, Note_on_c, 9, 46, 0
10, 10800, Note_on_c, 9, 40, 0
10, 10800, Note_on_c, 9, 46, 100
10, 10880, Note_on_c, 9, 36, 0
10, 10920, Note_on_c, 9, 46, 0
10, 10920, Note_on_c, 9, 40, 125
10, 10920, Note_on_c, 9, 46, 100
10, 11040, Note_on_c, 9, 46, 0
10, 11040, Note_on_c, 9, 40, 0
10, 11040, Note_on_c, 9, 36, 120
10, 11040, Note_on_c, 9, 46, 100
10, 11160, Note_on_c, 9, 46, 0
10, 11160, Note_on_c, 9, 36, 0
10, 11160, Note_on_c, 9, 40, 125
10, 11160, Note_on_c, 9, 46, 100
10, 11240, Note_on_c, 9, 36, 120
10, 11280, Note_on_c, 9, 46, 0
10, 11280, Note_on_c, 9, 40, 0
10, 11280, Note_on_c, 9, 36, 120
10, 11280, Note_on_c, 9, 46, 100
10, 11360, Note_on_c, 9, 36, 0
10, 11400, Note_on_c, 9, 46, 0
10, 11400, Note_on_c, 9, 36, 0
10, 11400, Note_on_c, 9, 40, 125
10, 11400, Note_on_c, 9, 46, 100
10, 11520, Note_on_c, 9, 46, 0
10, 11520, Note_on_c, 9, 40, 0
10, 11520, Note_on_c, 9, 36, 120
10, 11520, Note_on_c, 9, 46, 100
10, 11640, Note_on_c, 9, 46, 0
10, 11640, Note_on_c, 9, 36, 0
10, 11640, Note_on_c, 9, 40, 125
10, 11640, Note_on_c, 9, 46, 100
10, 11720, Note_on_c, 9, 36, 120
10, 11760, Note_on_c, 9, 46, 0
10, 11760, Note_on_c, 9, 40, 0
10, 11760, Note_on_c, 9, 46, 100
10, 11840, Note_on_c, 9, 36, 0
10, 11840, Note_on_c, 9, 40, 100
10, 11880, Note_on_c, 9, 46, 0
10, 11880, Note_on_c, 9, 40, 125
10, 11880, Note_on_c, 9, 46, 100
10, 11960, Note_on_c, 9, 40, 0
10, 12000, Note_on_c, 9, 46, 0
10, 12000, Note_on_c, 9, 40, 0
10, 12000, Note_on_c, 9, 36, 120
10, 12000, Note_on_c, 9, 46, 100
10, 12120, Note_on_c, 9, 46, 0
10, 12120, Note_on_c, 9, 36, 0
10, 12120, Note_on_c, 9, 40, 125
10, 12120, Note_on_c, 9, 46, 100
10, 12200, Note_on_c, 9, 36, 120
10, 12240, Note_on_c, 9, 46, 0
10, 12240, Note_on_c, 9, 40, 0
10, 12240, Note_on_c, 9, 36, 120
10, 12240, Note_on_c, 9, 46, 100
10, 12320, Note_on_c, 9, 36, 0
10, 12360, Note_on_c, 9, 46, 0
10, 12360, Note_on_c, 9, 36, 0
10, 12360, Note_on_c, 9, 40, 125
10, 12360, Note_on_c, 9, 46, 100
10, 12480, Note_on_c, 9, 46, 0
10, 12480, Note_on_c, 9, 40, 0
10, 12480, Note_on_c, 9, 36, 120
10, 12480, Note_on_c, 9, 46, 100
10, 12600, Note_on_c, 9, 46, 0
10, 12600, Note_on_c, 9, 36, 0
10, 12600, Note_on_c, 9, 40, 125
10, 12600, Note_on_c, 9, 46, 100
10, 12680, Note_on_c, 9, 36, 120
10, 12720, Note_on_c, 9, 46, 0
10, 12720, Note_on_c, 9, 40, 0
10, 12720, Note_on_c, 9, 46, 100
10, 12800, Note_on_c, 9, 36, 0
10, 12840, Note_on_c, 9, 46, 0
10, 12840, Note_on_c, 9, 40, 125
10, 12840, Note_on_c, 9, 46, 100
10, 12960, Note_on_c, 9, 46, 0
10, 12960, Note_on_c, 9, 40, 0
10, 12960, Note_on_c, 9, 36, 120
10, 12960, Note_on_c, 9, 46, 100
10, 13080, Note_on_c, 9, 46, 0
10, 13080, Note_on_c, 9, 36, 0
10, 13080, Note_on_c, 9, 40, 125
10, 13080, Note_on_c, 9, 46, 100
10, 13160, Note_on_c, 9, 36, 120
10, 13200, Note_on_c, 9, 46, 0
10, 13200, Note_on_c, 9, 40, 0
10, 13200, Note_on_c, 9, 36, 120
10, 13200, Note_on_c, 9, 46, 100
10, 13280, Note_on_c, 9, 36, 0
10, 13320, Note_on_c, 9, 46, 0
10, 13320, Note_on_c, 9, 36, 0
10, 13320, Note_on_c, 9, 40, 125
10, 13320, Note_on_c, 9, 46, 100
10, 13440, Note_on_c, 9, 46, 0
10, 13440, Note_on_c, 9, 40, 0
10, 13440, Note_on_c, 9, 36, 120
10, 13440, Note_on_c, 9, 46, 100
10, 13560, Note_on_c, 9, 46, 0
10, 13560, Note_on_c, 9, 36, 0
10, 13560, Note_on_c, 9, 40, 125
10, 13560, Note_on_c, 9, 46, 100
10, 13640, Note_on_c, 9, 36, 120
10, 13680, Note_on_c, 9, 46, 0
10, 13680, Note_on_c, 9, 40, 0
10, 13680, Note_on_c, 9, 46, 100
10, 13760, Note_on_c, 9, 36, 0
10, 13800, Note_on_c, 9, 46, 0
10, 13800, Note_on_c, 9, 40, 125
10, 13800, Note_on_c, 9, 46, 100
10, 13920, Note_on_c, 9, 46, 0
10, 13920, Note_on_c, 9, 40, 0
10, 13920, Note_on_c, 9, 36, 120
10, 13920, Note_on_c, 9, 46, 100
10, 14040, Note_on_c, 9, 46, 0
10, 14040, Note_on_c, 9, 36, 0
10, 14040, Note_on_c, 9, 40, 125
10, 14040, Note_on_c, 9, 46, 100
10, 14160, Note_on_c, 9, 46, 0
10, 14160, Note_on_c, 9, 40, 0
10, 14160, Note_on_c, 9, 36, 120
10, 14160, Note_on_c, 9, 46, 100
10, 14280, Note_on_c, 9, 46, 0
10, 14280, Note_on_c, 9, 36, 0
10, 14280, Note_on_c, 9, 40, 125
10, 14280, Note_on_c, 9, 46, 100
10, 14400, Note_on_c, 9, 46, 0
10, 14400, Note_on_c, 9, 40, 0
10, 14400, Note_on_c, 9, 36, 120
10, 14400, Note_on_c, 9, 46, 100
10, 14520, Note_on_c, 9, 46, 0
10, 14520, Note_on_c, 9, 36, 0
10, 14520, Note_on_c, 9, 40, 125
10, 14520, Note_on_c, 9, 46, 100
10, 14600, Note_on_c, 9, 36, 120
10, 14640, Note_on_c, 9, 46, 0
10, 14640, Note_on_c, 9, 40, 0
10, 14640, Note_on_c, 9, 46, 100
10, 14720, Note_on_c, 9, 36, 0
10, 14720, Note_on_c, 9, 36, 120
10, 14760, Note_on_c, 9, 46, 0
10, 14760, Note_on_c, 9, 40, 125
10, 14760, Note_on_c, 9, 46, 100
10, 14840, Note_on_c, 9, 36, 0
10, 14880, Note_on_c, 9, 46, 0
10, 14880, Note_on_c, 9, 40, 0
10, 14880, Note_on_c, 9, 36, 120
10, 14880, Note_on_c, 9, 46, 100
10, 15000, Note_on_c, 9, 46, 0
10, 15000, Note_on_c, 9, 36, 0
10, 15000, Note_on_c, 9, 40, 125
10, 15000, Note_on_c, 9, 46, 100
10, 15080, Note_on_c, 9, 36, 120
10, 15120, Note_on_c, 9, 46, 0
10, 15120, Note_on_c, 9, 40, 0
10, 15120, Note_on_c, 9, 36, 120
10, 15120, Note_on_c, 9, 46, 100
10, 15200, Note_on_c, 9, 36, 0
10, 15240, Note_on_c, 9, 46, 0
10, 15240, Note_on_c, 9, 36, 0
10, 15240, Note_on_c, 9, 40, 125
10, 15240, Note_on_c, 9, 46, 100
10, 15360, Note_on_c, 9, 46, 0
10, 15360, Note_on_c, 9, 40, 0
10, 15360, Note_on_c, 9, 36, 120
10, 15360, Note_on_c, 9, 46, 100
10, 15480, Note_on_c, 9, 46, 0
10, 15480, Note_on_c, 9, 36, 0
10, 15480, Note_on_c, 9, 40, 125
10, 15480, Note_on_c, 9, 46, 100
10, 15560, Note_on_c, 9, 48, 100
10, 15600, Note_on_c, 9, 46, 0
10, 15600, Note_on_c, 9, 40, 0
10, 15600, Note_on_c, 9, 46, 100
10, 15680, Note_on_c, 9, 48, 0
10, 15720, Note_on_c, 9, 46, 0
10, 15720, Note_on_c, 9, 40, 125
10, 15720, Note_on_c, 9, 46, 100
10, 15840, Note_on_c, 9, 46, 0
10, 15840, Note_on_c, 9, 40, 0
10, 15840, Note_on_c, 9, 36, 120
10, 15840, Note_on_c, 9, 46, 100
10, 15960, Note_on_c, 9, 46, 0
10, 15960, Note_on_c, 9, 36, 0
10, 15960, Note_on_c, 9, 40, 125
10, 15960, Note_on_c, 9, 46, 100
10, 16080, Note_on_c, 9, 46, 0
10, 16080, Note_on_c, 9, 40, 0
10, 16080, Note_on_c, 9, 36, 120
10, 16080, Note_on_c, 9, 46, 100
10, 16200, Note_on_c, 9, 46, 0
10, 16200, Note_on_c, 9, 36, 0
10, 16200, Note_on_c, 9, 40, 125
10, 16200, Note_on_c, 9, 46, 100
10, 16320, Note_on_c, 9, 46, 0
10, 16320, Note_on_c, 9, 40, 0
10, 16320, Note_on_c, 9, 36, 120
10, 16320, Note_on_c, 9, 46, 100
10, 16440, Note_on_c, 9, 46, 0
10, 16440, Note_on_c, 9, 36, 0
10, 16440, Note_on_c, 9, 40, 125
10, 16440, Note_on_c, 9, 46, 100
10, 16560, Note_on_c, 9, 46, 0
10, 16560, Note_on_c, 9, 40, 0
10, 16560, Note_on_c, 9, 36, 120
10, 16560, Note_on_c, 9, 40, 100
10, 16600, Note_on_c, 9, 40, 100
10, 16640, Note_on_c, 9, 40, 100
10, 16680, Note_on_c, 9, 40, 0
10, 16680, Note_on_c, 9, 36, 0
10, 16680, Note_on_c, 9, 48, 100
10, 16720, Note_on_c, 9, 40, 0
10, 16720, Note_on_c, 9, 48, 100
10, 16760, Note_on_c, 9, 40, 0
10, 16760, Note_on_c, 9, 48, 100
10, 16800, Note_on_c, 9, 48, 0
10, 16800, Note_on_c, 9, 36, 120
10, 16800, Note_on_c, 9, 49, 100
10, 16840, Note_on_c, 9, 48, 0
10, 16880, Note_on_c, 9, 48, 0
10, 16920, Note_on_c, 9, 36, 0
10, 16920, Note_on_c, 9, 49, 0
10, 16920, Note_on_c, 9, 40, 125
10, 16920, Note_on_c, 9, 46, 100
10, 17040, Note_on_c, 9, 46, 0
10, 17040, Note_on_c, 9, 40, 0
10, 17040, Note_on_c, 9, 36, 120
10, 17040, Note_on_c, 9, 46, 100
10, 17160, Note_on_c, 9, 46, 0
10, 17160, Note_on_c, 9, 36, 0
10, 17160, Note_on_c, 9, 40, 125
10, 17160, Note_on_c, 9, 46, 100
10, 17240, Note_on_c, 9, 36, 120
10, 17280, Note_on_c, 9, 46, 0
10, 17280, Note_on_c, 9, 40, 0
10, 17280, Note_on_c, 9, 46, 100
10, 17360, Note_on_c, 9, 36, 0
10, 17400, Note_on_c, 9, 46, 0
10, 17400, Note_on_c, 9, 40, 125
10, 17400, Note_on_c, 9, 46, 100
10, 17520, Note_on_c, 9, 46, 0
10, 17520, Note_on_c, 9, 40, 0
10, 17520, Note_on_c, 9, 36, 120
10, 17520, Note_on_c, 9, 46, 100
10, 17600, Note_on_c, 9, 40, 100
10, 17620, Note_on_c, 9, 40, 100
10, 17640, Note_on_c, 9, 46, 0
10, 17640, Note_on_c, 9, 36, 0
10, 17640, Note_on_c, 9, 36, 120
10, 17640, Note_on_c, 9, 46, 100
10, 17720, Note_on_c, 9, 40, 0
10, 17720, Note_on_c, 9, 36, 120
10, 17740, Note_on_c, 9, 40, 0
10, 17760, Note_on_c, 9, 46, 0
10, 17760, Note_on_c, 9, 36, 0
10, 17760, Note_on_c, 9, 40, 125
10, 17760, Note_on_c, 9, 46, 100
10, 17840, Note_on_c, 9, 36, 0
10, 17880, Note_on_c, 9, 46, 0
10, 17880, Note_on_c, 9, 40, 0
10, 17880, Note_on_c, 9, 40, 125
10, 17880, Note_on_c, 9, 46, 100
10, 18000, Note_on_c, 9, 46, 0
10, 18000, Note_on_c, 9, 40, 0
10, 18000, Note_on_c, 9, 40, 125
10, 18000, Note_on_c, 9, 46, 100
10, 18080, Note_on_c, 9, 36, 120
10, 18120, Note_on_c, 9, 46, 0
10, 18120, Note_on_c, 9, 40, 0
10, 18120, Note_on_c, 9, 40, 125
10, 18120, Note_on_c, 9, 46, 100
10, 18200, Note_on_c, 9, 36, 0
10, 18200, Note_on_c, 9, 36, 120
10, 18240, Note_on_c, 9, 46, 0
10, 18240, Note_on_c, 9, 40, 0
10, 18240, Note_on_c, 9, 40, 100
10, 18240, Note_on_c, 9, 46, 100
10, 18320, Note_on_c, 9, 36, 0
10, 18360, Note_on_c, 9, 46, 0
10, 18360, Note_on_c, 9, 40, 0
10, 18360, Note_on_c, 9, 40, 125
10, 18360, Note_on_c, 9, 46, 100
10, 18440, Note_on_c, 9, 36, 100
10, 18440, Note_on_c, 9, 49, 100
10, 18480, Note_on_c, 9, 46, 0
10, 18480, Note_on_c, 9, 40, 0
10, 18560, Note_on_c, 9, 36, 0
10, 18560, Note_on_c, 9, 49, 0
10, 18560, Note_on_c, 9, 40, 100
10, 18600, Note_on_c, 9, 48, 100
10, 18640, Note_on_c, 9, 48, 100
10, 18680, Note_on_c, 9, 40, 0
10, 18680, Note_on_c, 9, 48, 100
10, 18720, Note_on_c, 9, 48, 0
10, 18720, Note_on_c, 9, 36, 120
10, 18720, Note_on_c, 9, 49, 100
10, 18760, Note_on_c, 9, 48, 0
10, 18800, Note_on_c, 9, 48, 0
10, 18840, Note_on_c, 9, 36, 0
10, 18840, Note_on_c, 9, 49, 0
10, 18840, Note_on_c, 9, 40, 125
10, 18840, Note_on_c, 9, 46, 100
10, 18920, Note_on_c, 9, 36, 120
10, 18960, Note_on_c, 9, 46, 0
10, 18960, Note_on_c, 9, 40, 0
10, 18960, Note_on_c, 9, 36, 120
10, 18960, Note_on_c, 9, 46, 100
10, 19040, Note_on_c, 9, 36, 0
10, 19080, Note_on_c, 9, 46, 0
10, 19080, Note_on_c, 9, 36, 0
10, 19080, Note_on_c, 9, 40, 125
10, 19080, Note_on_c, 9, 46, 100
10, 19200, Note_on_c, 9, 46, 0
10, 19200, Note_on_c, 9, 40, 0
10, 19200, Note_on_c, 9, 36, 120
10, 19200, Note_on_c, 9, 46, 100
10, 19320, Note_on_c, 9, 46, 0
10, 19320, Note_on_c, 9, 36, 0
10, 19320, Note_on_c, 9, 40, 125
10, 19320, Note_on_c, 9, 46, 100
10, 19400, Note_on_c, 9, 36, 120
10, 19440, Note_on_c, 9, 46, 0
10, 19440, Note_on_c, 9, 40, 0
10, 19440, Note_on_c, 9, 46, 100
10, 19520, Note_on_c, 9, 36, 0
10, 19560, Note_on_c, 9, 46, 0
10, 19560, Note_on_c, 9, 40, 125
10, 19560, Note_on_c, 9, 46, 100
10, 19680, Note_on_c, 9, 46, 0
10, 19680, Note_on_c, 9, 40, 0
10, 19680, Note_on_c, 9, 36, 120
10, 19680, Note_on_c, 9, 46, 100
10, 19800, Note_on_c, 9, 46, 0
10, 19800, Note_on_c, 9, 36, 0
10, 19800, Note_on_c, 9, 40, 125
10, 19800, Note_on_c, 9, 46, 100
10, 19880, Note_on_c, 9, 36, 120
10, 19920, Note_on_c, 9, 46, 0
10, 19920, Note_on_c, 9, 40, 0
10, 19920, Note_on_c, 9, 36, 120
10, 19920, Note_on_c, 9, 46, 100
10, 20000, Note_on_c, 9, 36, 0
10, 20040, Note_on_c, 9, 46, 0
10, 20040, Note_on_c, 9, 36, 0
10, 20040, Note_on_c, 9, 40, 125
10, 20040, Note_on_c, 9, 46, 100
10, 20160, Note_on_c, 9, 46, 0
10, 20160, Note_on_c, 9, 40, 0
10, 20160, Note_on_c, 9, 36, 120
10, 20160, Note_on_c, 9, 46, 100
10, 20280, Note_on_c, 9, 46, 0
10, 20280, Note_on_c, 9, 36, 0
10, 20280, Note_on_c, 9, 40, 125
10, 20280, Note_on_c, 9, 46, 100
10, 20360, Note_on_c, 9, 40, 125
10, 20400, Note_on_c, 9, 40, 0
10, 20400, Note_on_c, 9, 46, 0
10, 20400, Note_on_c, 9, 40, 100
10, 20440, Note_on_c, 9, 40, 100
10, 20480, Note_on_c, 9, 40, 0
10, 20480, Note_on_c, 9, 40, 100
10, 20520, Note_on_c, 9, 40, 0
10, 20520, Note_on_c, 9, 48, 100
10, 20560, Note_on_c, 9, 40, 0
10, 20560, Note_on_c, 9, 48, 100
10, 20600, Note_on_c, 9, 40, 0
10, 20600, Note_on_c, 9, 48, 100
10, 20640, Note_on_c, 9, 48, 0
10, 20640, Note_on_c, 9, 36, 120
10, 20640, Note_on_c, 9, 46, 100
10, 20680, Note_on_c, 9, 48, 0
10, 20720, Note_on_c, 9, 48, 0
10, 20760, Note_on_c, 9, 36, 0
10, 20760, Note_on_c, 9, 46, 0
10, 20760, Note_on_c, 9, 40, 125
10, 20760, Note_on_c, 9, 46, 100
10, 20840, Note_on_c, 9, 36, 120
10, 20880, Note_on_c, 9, 46, 0
10, 20880, Note_on_c, 9, 40, 0
10, 20880, Note_on_c, 9, 36, 120
10, 20880, Note_on_c, 9, 46, 100
10, 20960, Note_on_c, 9, 36, 0
10, 21000, Note_on_c, 9, 46, 0
10, 21000, Note_on_c, 9, 36, 0
10, 21000, Note_on_c, 9, 40, 125
10, 21000, Note_on_c, 9, 46, 100
10, 21120, Note_on_c, 9, 46, 0
10, 21120, Note_on_c, 9, 40, 0
10, 21120, Note_on_c, 9, 36, 120
10, 21120, Note_on_c, 9, 46, 100
10, 21240, Note_on_c, 9, 46, 0
10, 21240, Note_on_c, 9, 36, 0
10, 21240, Note_on_c, 9, 40, 125
10, 21240, Note_on_c, 9, 46, 100
10, 21320, Note_on_c, 9, 36, 120
10, 21360, Note_on_c, 9, 46, 0
10, 21360, Note_on_c, 9, 40, 0
10, 21360, Note_on_c, 9, 46, 100
10, 21440, Note_on_c, 9, 36, 0
10, 21480, Note_on_c, 9, 46, 0
10, 21480, Note_on_c, 9, 40, 125
10, 21480, Note_on_c, 9, 46, 100
10, 21600, Note_on_c, 9, 46, 0
10, 21600, Note_on_c, 9, 40, 0
10, 21600, Note_on_c, 9, 36, 120
10, 21600, Note_on_c, 9, 46, 100
10, 21720, Note_on_c, 9, 46, 0
10, 21720, Note_on_c, 9, 36, 0
10, 21720, Note_on_c, 9, 40, 125
10, 21720, Note_on_c, 9, 46, 100
10, 21800, Note_on_c, 9, 36, 120
10, 21840, Note_on_c, 9, 46, 0
10, 21840, Note_on_c, 9, 40, 0
10, 21840, Note_on_c, 9, 36, 120
10, 21840, Note_on_c, 9, 46, 100
10, 21920, Note_on_c, 9, 36, 0
10, 21960, Note_on_c, 9, 46, 0
10, 21960, Note_on_c, 9, 36, 0
10, 21960, Note_on_c, 9, 40, 125
10, 21960, Note_on_c, 9, 46, 100
10, 22080, Note_on_c, 9, 46, 0
10, 22080, Note_on_c, 9, 40, 0
10, 22080, Note_on_c, 9, 36, 120
10, 22080, Note_on_c, 9, 46, 100
10, 22200, Note_on_c, 9, 46, 0
10, 22200, Note_on_c, 9, 36, 0
10, 22200, Note_on_c, 9, 40, 125
10, 22200, Note_on_c, 9, 46, 100
10, 22280, Note_on_c, 9, 36, 120
10, 22320, Note_on_c, 9, 46, 0
10, 22320, Note_on_c, 9, 40, 0
10, 22320, Note_on_c, 9, 46, 100
10, 22400, Note_on_c, 9, 36, 0
10, 22400, Note_on_c, 9, 40, 100
10, 22440, Note_on_c, 9, 46, 0
10, 22440, Note_on_c, 9, 40, 125
10, 22440, Note_on_c, 9, 46, 100
10, 22520, Note_on_c, 9, 40, 0
10, 22560, Note_on_c, 9, 46, 0
10, 22560, Note_on_c, 9, 40, 0
10, 22560, Note_on_c, 9, 36, 120
10, 22560, Note_on_c, 9, 46, 100
10, 22680, Note_on_c, 9, 46, 0
10, 22680, Note_on_c, 9, 36, 0
10, 22680, Note_on_c, 9, 40, 125
10, 22680, Note_on_c, 9, 46, 100
10, 22760, Note_on_c, 9, 36, 120
10, 22800, Note_on_c, 9, 46, 0
10, 22800, Note_on_c, 9, 40, 0
10, 22800, Note_on_c, 9, 36, 120
10, 22800, Note_on_c, 9, 46, 100
10, 22880, Note_on_c, 9, 36, 0
10, 22920, Note_on_c, 9, 46, 0
10, 22920, Note_on_c, 9, 36, 0
10, 22920, Note_on_c, 9, 40, 125
10, 22920, Note_on_c, 9, 46, 100
10, 23040, Note_on_c, 9, 46, 0
10, 23040, Note_on_c, 9, 40, 0
10, 23040, Note_on_c, 9, 36, 120
10, 23040, Note_on_c, 9, 46, 100
10, 23160, Note_on_c, 9, 46, 0
10, 23160, Note_on_c, 9, 36, 0
10, 23160, Note_on_c, 9, 40, 125
10, 23160, Note_on_c, 9, 46, 100
10, 23240, Note_on_c, 9, 36, 120
10, 23280, Note_on_c, 9, 46, 0
10, 23280, Note_on_c, 9, 40, 0
10, 23280, Note_on_c, 9, 46, 100
10, 23360, Note_on_c, 9, 36, 0
10, 23360, Note_on_c, 9, 40, 100
10, 23400, Note_on_c, 9, 46, 0
10, 23400, Note_on_c, 9, 40, 125
10, 23400, Note_on_c, 9, 46, 100
10, 23480, Note_on_c, 9, 40, 0
10, 23480, Note_on_c, 9, 40, 100
10, 23520, Note_on_c, 9, 40, 0
10, 23520, Note_on_c, 9, 46, 0
10, 23520, Note_on_c, 9, 36, 120
10, 23520, Note_on_c, 9, 49, 100
10, 23600, Note_on_c, 9, 40, 0
10, 23640, Note_on_c, 9, 49, 0
10, 23640, Note_on_c, 9, 36, 0
10, 23640, Note_on_c, 9, 40, 125
10, 23640, Note_on_c, 9, 46, 100
10, 23720, Note_on_c, 9, 36, 120
10, 23760, Note_on_c, 9, 46, 0
10, 23760, Note_on_c, 9, 40, 0
10, 23760, Note_on_c, 9, 36, 120
10, 23760, Note_on_c, 9, 46, 100
10, 23840, Note_on_c, 9, 36, 0
10, 23880, Note_on_c, 9, 46, 0
10, 23880, Note_on_c, 9, 36, 0
10, 23880, Note_on_c, 9, 40, 125
10, 23880, Note_on_c, 9, 46, 100
10, 24000, Note_on_c, 9, 46, 0
10, 24000, Note_on_c, 9, 40, 0
10, 24000, Note_on_c, 9, 36, 120
10, 24000, Note_on_c, 9, 46, 100
10, 24120, Note_on_c, 9, 46, 0
10, 24120, Note_on_c, 9, 36, 0
10, 24120, Note_on_c, 9, 40, 125
10, 24120, Note_on_c, 9, 46, 100
10, 24200, Note_on_c, 9, 36, 120
10, 24240, Note_on_c, 9, 46, 0
10, 24240, Note_on_c, 9, 40, 0
10, 24240, Note_on_c, 9, 46, 100
10, 24320, Note_on_c, 9, 36, 0
10, 24320, Note_on_c, 9, 40, 100
10, 24360, Note_on_c, 9, 46, 0
10, 24360, Note_on_c, 9, 40, 125
10, 24360, Note_on_c, 9, 46, 100
10, 24440, Note_on_c, 9, 40, 0
10, 24480, Note_on_c, 9, 46, 0
10, 24480, Note_on_c, 9, 40, 0
10, 24480, Note_on_c, 9, 36, 120
10, 24480, Note_on_c, 9, 46, 100
10, 24600, Note_on_c, 9, 46, 0
10, 24600, Note_on_c, 9, 36, 0
10, 24600, Note_on_c, 9, 40, 125
10, 24600, Note_on_c, 9, 46, 100
10, 24720, Note_on_c, 9, 46, 0
10, 24720, Note_on_c, 9, 40, 0
10, 24720, Note_on_c, 9, 36, 120
10, 24720, Note_on_c, 9, 46, 100
10, 24840, Note_on_c, 9, 46, 0
10, 24840, Note_on_c, 9, 36, 0
10, 24840, Note_on_c, 9, 40, 125
10, 24840, Note_on_c, 9, 46, 100
10, 24960, Note_on_c, 9, 46, 0
10, 24960, Note_on_c, 9, 40, 0
10, 24960, Note_on_c, 9, 36, 120
10, 24960, Note_on_c, 9, 46, 100
10, 25080, Note_on_c, 9, 46, 0
10, 25080, Note_on_c, 9, 36, 0
10, 25080, Note_on_c, 9, 40, 125
10, 25080, Note_on_c, 9, 46, 100
10, 25160, Note_on_c, 9, 36, 120
10, 25200, Note_on_c, 9, 46, 0
10, 25200, Note_on_c, 9, 40, 0
10, 25200, Note_on_c, 9, 46, 100
10, 25280, Note_on_c, 9, 36, 0
10, 25280, Note_on_c, 9, 36, 120
10, 25320, Note_on_c, 9, 46, 0
10, 25320, Note_on_c, 9, 40, 125
10, 25320, Note_on_c, 9, 46, 100
10, 25400, Note_on_c, 9, 36, 0
10, 25440, Note_on_c, 9, 46, 0
10, 25440, Note_on_c, 9, 40, 0
10, 25440, Note_on_c, 9, 36, 120
10, 25440, Note_on_c, 9, 46, 100
10, 25560, Note_on_c, 9, 46, 0
10, 25560, Note_on_c, 9, 36, 0
10, 25560, Note_on_c, 9, 40, 125
10, 25560, Note_on_c, 9, 46, 100
10, 25640, Note_on_c, 9, 36, 120
10, 25680, Note_on_c, 9, 46, 0
10, 25680, Note_on_c, 9, 40, 0
10, 25680, Note_on_c, 9, 36, 120
10, 25680, Note_on_c, 9, 46, 100
10, 25760, Note_on_c, 9, 36, 0
10, 25800, Note_on_c, 9, 46, 0
10, 25800, Note_on_c, 9, 36, 0
10, 25800, Note_on_c, 9, 40, 125
10, 25800, Note_on_c, 9, 46, 100
10, 25920, Note_on_c, 9, 46, 0
10, 25920, Note_on_c, 9, 40, 0
10, 25920, Note_on_c, 9, 36, 120
10, 25920, Note_on_c, 9, 46, 100
10, 26040, Note_on_c, 9, 46, 0
10, 26040, Note_on_c, 9, 36, 0
10, 26040, Note_on_c, 9, 40, 125
10, 26040, Note_on_c, 9, 46, 100
10, 26120, Note_on_c, 9, 48, 100
10, 26160, Note_on_c, 9, 46, 0
10, 26160, Note_on_c, 9, 40, 0
10, 26160, Note_on_c, 9, 46, 100
10, 26240, Note_on_c, 9, 48, 0
10, 26280, Note_on_c, 9, 46, 0
10, 26280, Note_on_c, 9, 40, 125
10, 26280, Note_on_c, 9, 46, 100
10, 26400, Note_on_c, 9, 46, 0
10, 26400, Note_on_c, 9, 40, 0
10, 26400, Note_on_c, 9, 36, 120
10, 26400, Note_on_c, 9, 46, 100
10, 26520, Note_on_c, 9, 46, 0
10, 26520, Note_on_c, 9, 36, 0
10, 26520, Note_on_c, 9, 40, 125
10, 26520, Note_on_c, 9, 46, 100
10, 26640, Note_on_c, 9, 46, 0
10, 26640, Note_on_c, 9, 40, 0
10, 26640, Note_on_c, 9, 36, 120
10, 26640, Note_on_c, 9, 46, 100
10, 26760, Note_on_c, 9, 46, 0
10, 26760, Note_on_c, 9, 36, 0
10, 26760, Note_on_c, 9, 40, 125
10, 26760, Note_on_c, 9, 46, 100
10, 26880, Note_on_c, 9, 46, 0
10, 26880, Note_on_c, 9, 40, 0
10, 26880, Note_on_c, 9, 36, 120
10, 26880, Note_on_c, 9, 46, 100
10, 27000, Note_on_c, 9, 46, 0
10, 27000, Note_on_c, 9, 36, 0
10, 27000, Note_on_c, 9, 40, 125
10, 27000, Note_on_c, 9, 46, 100
10, 27120, Note_on_c, 9, 46, 0
10, 27120, Note_on_c, 9, 40, 0
10, 27120, Note_on_c, 9, 36, 120
10, 27120, Note_on_c, 9, 40, 100
10, 27160, Note_on_c, 9, 40, 100
10, 27200, Note_on_c, 9, 40, 100
10, 27240, Note_on_c, 9, 40, 0
10, 27240, Note_on_c, 9, 36, 0
10, 27240, Note_on_c, 9, 48, 100
10, 27280, Note_on_c, 9, 40, 0
10, 27280, Note_on_c, 9, 48, 100
10, 27320, Note_on_c, 9, 40, 0
10, 27320, Note_on_c, 9, 48, 100
10, 27360, Note_on_c, 9, 48, 0
10, 27360, Note_on_c, 9, 36, 120
10, 27360, Note_on_c, 9, 49, 100
10, 27400, Note_on_c, 9, 48, 0
10, 27440, Note_on_c, 9, 48, 0
10, 27480, Note_on_c, 9, 36, 0
10, 27480, Note_on_c, 9, 49, 0
10, 27480, Note_on_c, 9, 40, 125
10, 27480, Note_on_c, 9, 46, 100
10, 27600, Note_on_c, 9, 46, 0
10, 27600, Note_on_c, 9, 40, 0
10, 27600, Note_on_c, 9, 36, 120
10, 27600, Note_on_c, 9, 46, 100
10, 27720, Note_on_c, 9, 46, 0
10, 27720, Note_on_c, 9, 36, 0
10, 27720, Note_on_c, 9, 40, 125
10, 27720, Note_on_c, 9, 46, 100
10, 27800, Note_on_c, 9, 36, 120
10, 27840, Note_on_c, 9, 46, 0
10, 27840, Note_on_c, 9, 40, 0
10, 27840, Note_on_c, 9, 46, 100
10, 27920, Note_on_c, 9, 36, 0
10, 27960, Note_on_c, 9, 46, 0
10, 27960, Note_on_c, 9, 40, 125
10, 27960, Note_on_c, 9, 46, 100
10, 28080, Note_on_c, 9, 46, 0
10, 28080, Note_on_c, 9, 40, 0
10, 28080, Note_on_c, 9, 36, 120
10, 28080, Note_on_c, 9, 46, 100
10, 28160, Note_on_c, 9, 40, 100
10, 28180, Note_on_c, 9, 40, 100
10, 28200, Note_on_c, 9, 46, 0
10, 28200, Note_on_c, 9, 36, 0
10, 28200, Note_on_c, 9, 36, 120
10, 28200, Note_on_c, 9, 46, 100
10, 28280, Note_on_c, 9, 40, 0
10, 28280, Note_on_c, 9, 36, 120
10, 28300, Note_on_c, 9, 40, 0
10, 28320, Note_on_c, 9, 46, 0
10, 28320, Note_on_c, 9, 36, 0
10, 28320, Note_on_c, 9, 40, 125
10, 28320, Note_on_c, 9, 46, 100
10, 28400, Note_on_c, 9, 36, 0
10, 28440, Note_on_c, 9, 46, 0
10, 28440, Note_on_c, 9, 40, 0
10, 28440, Note_on_c, 9, 40, 125
10, 28440, Note_on_c, 9, 46, 100
10, 28560, Note_on_c, 9, 46, 0
10, 28560, Note_on_c, 9, 40, 0
10, 28560, Note_on_c, 9, 40, 125
10, 28560, Note_on_c, 9, 46, 100
10, 28640, Note_on_c, 9, 36, 120
10, 28680, Note_on_c, 9, 46, 0
10, 28680, Note_on_c, 9, 40, 0
10, 28680, Note_on_c, 9, 40, 125
10, 28680, Note_on_c, 9, 46, 100
10, 28760, Note_on_c, 9, 36, 0
10, 28760, Note_on_c, 9, 36, 120
10, 28800, Note_on_c, 9, 46, 0
10, 28800, Note_on_c, 9, 40, 0
10, 28800, Note_on_c, 9, 40, 100
10, 28800, Note_on_c, 9, 46, 100
10, 28880, Note_on_c, 9, 36, 0
10, 28920, Note_on_c, 9, 46, 0
10, 28920, Note_on_c, 9, 40, 0
10, 28920, Note_on_c, 9, 40, 125
10, 28920, Note_on_c, 9, 46, 100
10, 29000, Note_on_c, 9, 36, 100
10, 29000, Note_on_c, 9, 46, 100
10, 29040, Note_on_c, 9, 46, 0
10, 29040, Note_on_c, 9, 40, 0
10, 29120, Note_on_c, 9, 36, 0
10, 29120, Note_on_c, 9, 46, 0
10, 29120, Note_on_c, 9, 46, 100
10, 29120, Note_on_c, 9, 36, 100
10, 29240, Note_on_c, 9, 36, 0
10, 29240, Note_on_c, 9, 46, 0
10, 29240, Note_on_c, 9, 40, 125
10, 29280, Note_on_c, 9, 40, 125
10, 29280, Note_on_c, 9, 46, 100
10, 29360, Note_on_c, 9, 40, 0
10, 29400, Note_on_c, 9, 46, 0
10, 29400, Note_on_c, 9, 40, 0
10, 29400, Note_on_c, 9, 40, 125
10, 29400, Note_on_c, 9, 46, 100
10, 29520, Note_on_c, 9, 46, 0
10, 29520, Note_on_c, 9, 40, 0
10, 29520, Note_on_c, 9, 40, 125
10, 29520, Note_on_c, 9, 46, 100
10, 29600, Note_on_c, 9, 36, 120
10, 29640, Note_on_c, 9, 46, 0
10, 29640, Note_on_c, 9, 40, 0
10, 29640, Note_on_c, 9, 40, 125
10, 29640, Note_on_c, 9, 46, 100
10, 29720, Note_on_c, 9, 36, 0
10, 29720, Note_on_c, 9, 36, 120
10, 29760, Note_on_c, 9, 46, 0
10, 29760, Note_on_c, 9, 40, 0
10, 29760, Note_on_c, 9, 40, 100
10, 29760, Note_on_c, 9, 46, 100
10, 29840, Note_on_c, 9, 36, 0
10, 29880, Note_on_c, 9, 46, 0
10, 29880, Note_on_c, 9, 40, 0
10, 29880, Note_on_c, 9, 40, 125
10, 29880, Note_on_c, 9, 46, 100
10, 29960, Note_on_c, 9, 36, 100
10, 29960, Note_on_c, 9, 46, 100
10, 30000, Note_on_c, 9, 46, 0
10, 30000, Note_on_c, 9, 40, 0
10, 30080, Note_on_c, 9, 36, 0
10, 30080, Note_on_c, 9, 46, 0
10, 30080, Note_on_c, 9, 46, 100
10, 30080, Note_on_c, 9, 36, 100
10, 30120, Note_on_c, 9, 48, 100
10, 30160, Note_on_c, 9, 47, 100
10, 30200, Note_on_c, 9, 36, 0
10, 30200, Note_on_c, 9, 46, 0
10, 30200, Note_on_c, 9, 45, 100
10, 30240, Note_on_c, 9, 48, 0
10, 30240, Note_on_c, 9, 40, 125
10, 30240, Note_on_c, 9, 46, 100
10, 30280, Note_on_c, 9, 47, 0
10, 30320, Note_on_c, 9, 45, 0
10, 30360, Note_on_c, 9, 40, 0
10, 30360, Note_on_c, 9, 46, 0
10, 30360, Note_on_c, 9, 40, 125
10, 30360, Note_on_c, 9, 46, 100
10, 30480, Note_on_c, 9, 46, 0
10, 30480, Note_on_c, 9, 40, 0
10, 30480, Note_on_c, 9, 40, 125
10, 30480, Note_on_c, 9, 46, 100
10, 30560, Note_on_c, 9, 36, 120
10, 30600, Note_on_c, 9, 46, 0
10, 30600, Note_on_c, 9, 40, 0
10, 30600, Note_on_c, 9, 40, 125
10, 30600, Note_on_c, 9, 46, 100
10, 30680, Note_on_c, 9, 36, 0
10, 30680, Note_on_c, 9, 36, 120
10, 30720, Note_on_c, 9, 46, 0
10, 30720, Note_on_c, 9, 40, 0
10, 30720, Note_on_c, 9, 40, 125
10, 30720, Note_on_c, 9, 46, 100
10, 30800, Note_on_c, 9, 36, 0
10, 30840, Note_on_c, 9, 46, 0
10, 30840, Note_on_c, 9, 40, 0
10, 30840, Note_on_c, 9, 40, 125
10, 30840, Note_on_c, 9, 46, 100
10, 30960, Note_on_c, 9, 46, 0
10, 30960, Note_on_c, 9, 40, 0
10, 30960, Note_on_c, 9, 40, 125
10, 30960, Note_on_c, 9, 46, 100
10, 31040, Note_on_c, 9, 36, 120
10, 31080, Note_on_c, 9, 46, 0
10, 31080, Note_on_c, 9, 40, 0
10, 31080, Note_on_c, 9, 40, 125
10, 31120, Note_on_c, 9, 40, 100
10, 31160, Note_on_c, 9, 36, 0
10, 31160, Note_on_c, 9, 40, 125
10, 31200, Note_on_c, 9, 40, 0
10, 31200, Note_on_c, 9, 36, 120
10, 31200, Note_on_c, 9, 49, 100
10, 31240, Note_on_c, 9, 40, 0
10, 31280, Note_on_c, 9, 40, 0
10, 31320, Note_on_c, 9, 36, 0
10, 31320, Note_on_c, 9, 49, 0
10, 31320, Note_on_c, 9, 40, 125
10, 31320, Note_on_c, 9, 46, 100
10, 31400, Note_on_c, 9, 36, 120
10, 31440, Note_on_c, 9, 46, 0
10, 31440, Note_on_c, 9, 40, 0
10, 31440, Note_on_c, 9, 36, 120
10, 31440, Note_on_c, 9, 46, 100
10, 31520, Note_on_c, 9, 36, 0
10, 31560, Note_on_c, 9, 46, 0
10, 31560, Note_on_c, 9, 36, 0
10, 31560, Note_on_c, 9, 40, 125
10, 31560, Note_on_c, 9, 46, 100
10, 31680, Note_on_c, 9, 46, 0
10, 31680, Note_on_c, 9, 40, 0
10, 31680, Note_on_c, 9, 36, 120
10, 31680, Note_on_c, 9, 46, 100
10, 31800, Note_on_c, 9, 46, 0
10, 31800, Note_on_c, 9, 36, 0
10, 31800, Note_on_c, 9, 40, 125
10, 31800, Note_on_c, 9, 46, 100
10, 31880, Note_on_c, 9, 36, 120
10, 31920, Note_on_c, 9, 46, 0
10, 31920, Note_on_c, 9, 40, 0
10, 31920, Note_on_c, 9, 46, 100
10, 32000, Note_on_c, 9, 36, 0
10, 32000, Note_on_c, 9, 36, 120
10, 32040, Note_on_c, 9, 46, 0
10, 32040, Note_on_c, 9, 40, 125
10, 32040, Note_on_c, 9, 46, 100
10, 32120, Note_on_c, 9, 36, 0
10, 32160, Note_on_c, 9, 46, 0
10, 32160, Note_on_c, 9, 40, 0
10, 32160, Note_on_c, 9, 36, 120
10, 32160, Note_on_c, 9, 46, 100
10, 32280, Note_on_c, 9, 46, 0
10, 32280, Note_on_c, 9, 36, 0
10, 32280, Note_on_c, 9, 40, 125
10, 32280, Note_on_c, 9, 46, 100
10, 32400, Note_on_c, 9, 46, 0
10, 32400, Note_on_c, 9, 40, 0
10, 32400, Note_on_c, 9, 36, 120
10, 32400, Note_on_c, 9, 46, 100
10, 32520, Note_on_c, 9, 46, 0
10, 32520, Note_on_c, 9, 36, 0
10, 32520, Note_on_c, 9, 40, 125
10, 32520, Note_on_c, 9, 46, 100
10, 32640, Note_on_c, 9, 46, 0
10, 32640, Note_on_c, 9, 40, 0
10, 32640, Note_on_c, 9, 36, 120
10, 32640, Note_on_c, 9, 46, 100
10, 32720, Note_on_c, 9, 40, 125
10, 32760, Note_on_c, 9, 46, 0
10, 32760, Note_on_c, 9, 36, 0
10, 32760, Note_on_c, 9, 40, 125
10, 32760, Note_on_c, 9, 46, 100
10, 32840, Note_on_c, 9, 40, 0
10, 32840, Note_on_c, 9, 36, 120
10, 32880, Note_on_c, 9, 46, 0
10, 32880, Note_on_c, 9, 40, 0
10, 32880, Note_on_c, 9, 40, 125
10, 32880, Note_on_c, 9, 46, 100
10, 32960, Note_on_c, 9, 36, 0
10, 32960, Note_on_c, 9, 40, 100
10, 33000, Note_on_c, 9, 40, 0
10, 33000, Note_on_c, 9, 46, 0
10, 33000, Note_on_c, 9, 48, 100
10, 33040, Note_on_c, 9, 48, 100
10, 33080, Note_on_c, 9, 40, 0
10, 33080, Note_on_c, 9, 45, 100
10, 33120, Note_on_c, 9, 48, 0
10, 33120, Note_on_c, 9, 36, 120
10, 33120, Note_on_c, 9, 46, 100
10, 33160, Note_on_c, 9, 48, 0
10, 33200, Note_on_c, 9, 45, 0
10, 33240, Note_on_c, 9, 36, 0
10, 33240, Note_on_c, 9, 46, 0
10, 33240, Note_on_c, 9, 40, 125
10, 33240, Note_on_c, 9, 46, 100
10, 33360, Note_on_c, 9, 46, 0
10, 33360, Note_on_c, 9, 40, 0
10, 33360, Note_on_c, 9, 36, 120
10, 33360, Note_on_c, 9, 46, 100
10, 33480, Note_on_c, 9, 46, 0
10, 33480, Note_on_c, 9, 36, 0
10, 33480, Note_on_c, 9, 40, 125
10, 33480, Note_on_c, 9, 46, 100
10, 33600, Note_on_c, 9, 46, 0
10, 33600, Note_on_c, 9, 40, 0
10, 33600, Note_on_c, 9, 36, 120
10, 33600, Note_on_c, 9, 46, 100
10, 33680, Note_on_c, 9, 40, 125
10, 33720, Note_on_c, 9, 46, 0
10, 33720, Note_on_c, 9, 36, 0
10, 33720, Note_on_c, 9, 50, 100
10, 33760, Note_on_c, 9, 50, 100
10, 33800, Note_on_c, 9, 40, 0
10, 33800, Note_on_c, 9, 48, 100
10, 33840, Note_on_c, 9, 50, 0
10, 33840, Note_on_c, 9, 40, 125
10, 33880, Note_on_c, 9, 50, 0
10, 33880, Note_on_c, 9, 50, 100
10, 33920, Note_on_c, 9, 48, 0
10, 33920, Note_on_c, 9, 50, 100
10, 33960, Note_on_c, 9, 40, 0
10, 33960, Note_on_c, 9, 40, 125
10, 34000, Note_on_c, 9, 50, 0
10, 34000, Note_on_c, 9, 48, 100
10, 34040, Note_on_c, 9, 50, 0
10, 34040, Note_on_c, 9, 45, 100
10, 34080, Note_on_c, 9, 40, 0
10, 34080, Note_on_c, 9, 36, 120
10, 34080, Note_on_c, 9, 46, 100
10, 34120, Note_on_c, 9, 48, 0
10, 34160, Note_on_c, 9, 45, 0
10, 34200, Note_on_c, 9, 36, 0
10, 34200, Note_on_c, 9, 46, 0
10, 34200, Note_on_c, 9, 40, 125
10, 34200, Note_on_c, 9, 46, 100
10, 34320, Note_on_c, 9, 46, 0
10, 34320, Note_on_c, 9, 40, 0
10, 34320, Note_on_c, 9, 36, 120
10, 34320, Note_on_c, 9, 46, 100
10, 34400, Note_on_c, 9, 40, 100
10, 34440, Note_on_c, 9, 46, 0
10, 34440, Note_on_c, 9, 36, 0
10, 34440, Note_on_c, 9, 46, 100
10, 34520, Note_on_c, 9, 40, 0
10, 34560, Note_on_c, 9, 46, 0
10, 34560, Note_on_c, 9, 36, 120
10, 34560, Note_on_c, 9, 46, 100
10, 34640, Note_on_c, 9, 40, 125
10, 34680, Note_on_c, 9, 46, 0
10, 34680, Note_on_c, 9, 36, 0
10, 34680, Note_on_c, 9, 50, 100
10, 34720, Note_on_c, 9, 50, 100
10, 34760, Note_on_c, 9, 40, 0
10, 34760, Note_on_c, 9, 48, 100
10, 34800, Note_on_c, 9, 50, 0
10, 34800, Note_on_c, 9, 40, 125
10, 34840, Note_on_c, 9, 50, 0
10, 34840, Note_on_c, 9, 50, 100
10, 34880, Note_on_c, 9, 48, 0
10, 34880, Note_on_c, 9, 50, 100
10, 34920, Note_on_c, 9, 40, 0
10, 34920, Note_on_c, 9, 40, 125
10, 34960, Note_on_c, 9, 50, 0
10, 34960, Note_on_c, 9, 48, 100
10, 35000, Note_on_c, 9, 50, 0
10, 35000, Note_on_c, 9, 45, 100
10, 35040, Note_on_c, 9, 40, 0
10, 35040, Note_on_c, 9, 36, 120
10, 35040, Note_on_c, 9, 46, 100
10, 35080, Note_on_c, 9, 48, 0
10, 35120, Note_on_c, 9, 45, 0
10, 35160, Note_on_c, 9, 36, 0
10, 35160, Note_on_c, 9, 46, 0
10, 35160, Note_on_c, 9, 40, 125
10, 35160, Note_on_c, 9, 46, 100
10, 35280, Note_on_c, 9, 46, 0
10, 35280, Note_on_c, 9, 40, 0
10, 35280, Note_on_c, 9, 36, 120
10, 35280, Note_on_c, 9, 46, 100
10, 35360, Note_on_c, 9, 40, 100
10, 35400, Note_on_c, 9, 46, 0
10, 35400, Note_on_c, 9, 36, 0
10, 35400, Note_on_c, 9, 46, 100
10, 35480, Note_on_c, 9, 40, 0
10, 35520, Note_on_c, 9, 46, 0
10, 35520, Note_on_c, 9, 36, 120
10, 35520, Note_on_c, 9, 46, 100
10, 35600, Note_on_c, 9, 40, 122
10, 35640, Note_on_c, 9, 46, 0
10, 35640, Note_on_c, 9, 36, 0
10, 35640, Note_on_c, 9, 50, 97
10, 35680, Note_on_c, 9, 50, 96
10, 35720, Note_on_c, 9, 40, 0
10, 35720, Note_on_c, 9, 48, 95
10, 35760, Note_on_c, 9, 50, 0
10, 35760, Note_on_c, 9, 40, 116
10, 35800, Note_on_c, 9, 50, 0
10, 35800, Note_on_c, 9, 50, 92
10, 35840, Note_on_c, 9, 48, 0
10, 35840, Note_on_c, 9, 50, 91
10, 35880, Note_on_c, 9, 40, 0
10, 35880, Note_on_c, 9, 40, 112
10, 35920, Note_on_c, 9, 50, 0
10, 35920, Note_on_c, 9, 48, 89
10, 35960, Note_on_c, 9, 50, 0
10, 35960, Note_on_c, 9, 45, 87
10, 36000, Note_on_c, 9, 40, 0
10, 36000, Note_on_c, 9, 36, 103
10, 36000, Note_on_c, 9, 46, 86
10, 36040, Note_on_c, 9, 48, 0
10, 36080, Note_on_c, 9, 45, 0
10, 36120, Note_on_c, 9, 36, 0
10, 36120, Note_on_c, 9, 46, 0
10, 36120, Note_on_c, 9, 40, 103
10, 36120, Note_on_c, 9, 46, 83
10, 36240, Note_on_c, 9, 46, 0
10, 36240, Note_on_c, 9, 40, 0
10, 36240, Note_on_c, 9, 36, 94
10, 36240, Note_on_c, 9, 46, 79
10, 36320, Note_on_c, 9, 40, 77
10, 36360, Note_on_c, 9, 46, 0
10, 36360, Note_on_c, 9, 36, 0
10, 36360, Note_on_c, 9, 46, 75
10, 36440, Note_on_c, 9, 40, 0
10, 36480, Note_on_c, 9, 46, 0
10, 36480, Note_on_c, 9, 36, 86
10, 36480, Note_on_c, 9, 46, 72
10, 36560, Note_on_c, 9, 40, 87
10, 36600, Note_on_c, 9, 46, 0
10, 36600, Note_on_c, 9, 36, 0
10, 36600, Note_on_c, 9, 50, 68
10, 36640, Note_on_c, 9, 50, 67
10, 36680, Note_on_c, 9, 40, 0
10, 36680, Note_on_c, 9, 48, 66
10, 36720, Note_on_c, 9, 50, 0
10, 36720, Note_on_c, 9, 40, 81
10, 36760, Note_on_c, 9, 50, 0
10, 36760, Note_on_c, 9, 50, 64
10, 36800, Note_on_c, 9, 48, 0
10, 36800, Note_on_c, 9, 50, 62
10, 36840, Note_on_c, 9, 40, 0
10, 36840, Note_on_c, 9, 40, 76
10, 36880, Note_on_c, 9, 50, 0
10, 36880, Note_on_c, 9, 48, 60
10, 36920, Note_on_c, 9, 50, 0
10, 36920, Note_on_c, 9, 45, 59
10, 36960, Note_on_c, 9, 40, 0
10, 36960, Note_on_c, 9, 36, 69
10, 36960, Note_on_c, 9, 46, 58
10, 37000, Note_on_c, 9, 48, 0
10, 37040, Note_on_c, 9, 45, 0
10, 37080, Note_on_c, 9, 36, 0
10, 37080, Note_on_c, 9, 46, 0
10, 37080, Note_on_c, 9, 40, 67
10, 37080, Note_on_c, 9, 46, 54
10, 37200, Note_on_c, 9, 46, 0
10, 37200, Note_on_c, 9, 40, 0
10, 37200, Note_on_c, 9, 36, 60
10, 37200, Note_on_c, 9, 46, 50
10, 37280, Note_on_c, 9, 40, 48
10, 37320, Note_on_c, 9, 46, 0
10, 37320, Note_on_c, 9, 36, 0
10, 37320, Note_on_c, 9, 46, 47
10, 37400, Note_on_c, 9, 40, 0
10, 37440, Note_on_c, 9, 46, 0
10, 37440, Note_on_c, 9, 36, 51
10, 37440, Note_on_c, 9, 46, 43
10, 37520, Note_on_c, 9, 40, 51
10, 37560, Note_on_c, 9, 46, 0
10, 37560, Note_on_c, 9, 36, 0
10, 37560, Note_on_c, 9, 50, 40
10, 37600, Note_on_c, 9, 50, 39
10, 37640, Note_on_c, 9, 40, 0
10, 37640, Note_on_c, 9, 48, 37
10, 37680, Note_on_c, 9, 50, 0
10, 37680, Note_on_c, 9, 40, 45
10, 37720, Note_on_c, 9, 50, 0
10, 37720, Note_on_c, 9, 50, 35
10, 37760, Note_on_c, 9, 48, 0
10, 37760, Note_on_c, 9, 50, 34
10, 37800, Note_on_c, 9, 40, 0
10, 37800, Note_on_c, 9, 40, 41
10, 37840, Note_on_c, 9, 50, 0
10, 37840, Note_on_c, 9, 48, 31
10, 37880, Note_on_c, 9, 50, 0
10, 37880, Note_on_c, 9, 45, 30
10, 37920, Note_on_c, 9, 40, 0
10, 37920, Note_on_c, 9, 36, 34
10, 37920, Note_on_c, 9, 46, 29
10, 37960, Note_on_c, 9, 48, 0
10, 38000, Note_on_c, 9, 45, 0
10, 38040, Note_on_c, 9, 36, 0
10, 38040, Note_on_c, 9, 46, 0
10, 38040, Note_on_c, 9, 40, 31
10, 38040, Note_on_c, 9, 46, 25
10, 38160, Note_on_c, 9, 46, 0
10, 38160, Note_on_c, 9, 40, 0
10, 38160, Note_on_c, 9, 36, 26
10, 38160, Note_on_c, 9, 46, 22
10, 38240, Note_on_c, 9, 40, 20
10, 38280, Note_on_c, 9, 46, 0
10, 38280, Note_on_c, 9, 36, 0
10, 38280, Note_on_c, 9, 46, 18
10, 38360, Note_on_c, 9, 40, 0
10, 38400, Note_on_c, 9, 46, 0
10, 38400, Note_on_c, 9, 36, 18
10, 38400, Note_on_c, 9, 46, 15
10, 38480, Note_on_c, 9, 40, 15
10, 38520, Note_on_c, 9, 46, 0
10, 38520, Note_on_c, 9, 36, 0
10, 38520, Note_on_c, 9, 50, 11
10, 38560, Note_on_c, 9, 50, 10
10, 38600, Note_on_c, 9, 40, 0
10, 38600, Note_on_c, 9, 48, 9
10, 38640, Note_on_c, 9, 50, 0
10, 38640, Note_on_c, 9, 40, 10
10, 38680, Note_on_c, 9, 50, 0
10, 38680, Note_on_c, 9, 50, 6
10, 38720, Note_on_c, 9, 48, 0
10, 38720, Note_on_c, 9, 50, 5
10, 38760, Note_on_c, 9, 40, 0
10, 38760, Note_on_c, 9, 40, 5
10, 38800, Note_on_c, 9, 50, 0
10, 38800, Note_on_c, 9, 48, 3
10, 38840, Note_on_c, 9, 50, 0
10, 38840, Note_on_c, 9, 45, 2
10, 38880, Note_on_c, 9, 40, 0
10, 38920, Note_on_c, 9, 48, 0
10, 38960, Note_on_c, 9, 45, 0
10, 38960, End_track
11, 0, Start_track
11, 0, MIDI_port, 0
11, 0, Program_c, 10, 57
11, 0, Control_c, 10, 7, 100
11, 0, Control_c, 10, 10, 0
11, 1440, Note_on_c, 10, 76, 100
11, 1520, Note_on_c, 10, 76, 0
11, 1560, Note_on_c, 10, 76, 100
11, 1640, Note_on_c, 10, 76, 0
11, 1640, Note_on_c, 10, 72, 100
11, 1680, Note_on_c, 10, 72, 0
11, 1680, Note_on_c, 10, 74, 100
11, 1750, Note_on_c, 10, 74, 0
11, 1760, Note_on_c, 10, 71, 100
11, 1800, Note_on_c, 10, 71, 0
11, 1800, Note_on_c, 10, 74, 100
11, 1880, Note_on_c, 10, 74, 0
11, 1880, Note_on_c, 10, 72, 100
11, 2040, Note_on_c, 10, 72, 0
11, 2040, Note_on_c, 10, 72, 100
11, 2120, Note_on_c, 10, 72, 0
11, 2120, Note_on_c, 10, 69, 100
11, 2160, Note_on_c, 10, 69, 0
11, 2160, Note_on_c, 10, 74, 100
11, 2230, Note_on_c, 10, 74, 0
11, 2240, Note_on_c, 10, 72, 100
11, 2280, Note_on_c, 10, 72, 0
11, 2280, Note_on_c, 10, 74, 100
11, 2350, Note_on_c, 10, 74, 0
11, 7200, Note_on_c, 10, 67, 100
11, 7200, Note_on_c, 10, 55, 100
11, 7250, Note_on_c, 10, 55, 0
11, 7250, Note_on_c, 10, 67, 0
11, 7320, Note_on_c, 10, 67, 100
11, 7320, Note_on_c, 10, 55, 100
11, 7370, Note_on_c, 10, 55, 0
11, 7370, Note_on_c, 10, 67, 0
11, 7400, Note_on_c, 10, 55, 100
11, 7435, Note_on_c, 10, 55, 0
11, 7440, Note_on_c, 10, 67, 100
11, 7440, Note_on_c, 10, 55, 100
11, 7490, Note_on_c, 10, 55, 0
11, 7490, Note_on_c, 10, 67, 0
11, 7520, Note_on_c, 10, 55, 100
11, 7560, Note_on_c, 10, 67, 100
11, 7570, Note_on_c, 10, 55, 0
11, 7610, Note_on_c, 10, 67, 0
11, 7640, Note_on_c, 10, 55, 100
11, 7675, Note_on_c, 10, 55, 0
11, 7680, Note_on_c, 10, 67, 100
11, 7680, Note_on_c, 10, 55, 100
11, 7730, Note_on_c, 10, 55, 0
11, 7730, Note_on_c, 10, 67, 0
11, 7800, Note_on_c, 10, 64, 100
11, 7800, Note_on_c, 10, 55, 100
11, 7835, Note_on_c, 10, 55, 0
11, 7880, Note_on_c, 10, 64, 0
11, 7880, Note_on_c, 10, 60, 100
11, 7880, Note_on_c, 10, 55, 100
11, 7970, Note_on_c, 10, 55, 0
11, 8000, Note_on_c, 10, 55, 100
11, 8035, Note_on_c, 10, 55, 0
11, 8040, Note_on_c, 10, 60, 0
11, 8040, Note_on_c, 10, 62, 100
11, 8040, Note_on_c, 10, 55, 100
11, 8090, Note_on_c, 10, 62, 0
11, 8160, Note_on_c, 10, 55, 0
11, 12000, Note_on_c, 10, 57, 100
11, 12240, Note_on_c, 10, 57, 0
11, 12240, Note_on_c, 10, 59, 100
11, 12480, Note_on_c, 10, 59, 0
11, 12480, Note_on_c, 10, 60, 100
11, 12720, Note_on_c, 10, 60, 0
11, 12720, Note_on_c, 10, 62, 100
11, 12960, Note_on_c, 10, 62, 0
11, 12960, Note_on_c, 10, 60, 100
11, 13120, Note_on_c, 10, 60, 0
11, 13160, Note_on_c, 10, 60, 100
11, 13220, Note_on_c, 10, 60, 0
11, 17760, Note_on_c, 10, 67, 100
11, 17760, Note_on_c, 10, 55, 100
11, 17810, Note_on_c, 10, 55, 0
11, 17810, Note_on_c, 10, 67, 0
11, 17880, Note_on_c, 10, 67, 100
11, 17880, Note_on_c, 10, 55, 100
11, 17930, Note_on_c, 10, 55, 0
11, 17930, Note_on_c, 10, 67, 0
11, 17960, Note_on_c, 10, 55, 100
11, 17995, Note_on_c, 10, 55, 0
11, 18000, Note_on_c, 10, 67, 100
11, 18000, Note_on_c, 10, 55, 100
11, 18050, Note_on_c, 10, 55, 0
11, 18050, Note_on_c, 10, 67, 0
11, 18080, Note_on_c, 10, 55, 100
11, 18120, Note_on_c, 10, 67, 100
11, 18130, Note_on_c, 10, 55, 0
11, 18170, Note_on_c, 10, 67, 0
11, 18200, Note_on_c, 10, 55, 100
11, 18235, Note_on_c, 10, 55, 0
11, 18240, Note_on_c, 10, 67, 100
11, 18240, Note_on_c, 10, 55, 100
11, 18290, Note_on_c, 10, 55, 0
11, 18290, Note_on_c, 10, 67, 0
11, 18360, Note_on_c, 10, 64, 100
11, 18360, Note_on_c, 10, 55, 100
11, 18395, Note_on_c, 10, 55, 0
11, 18440, Note_on_c, 10, 64, 0
11, 18440, Note_on_c, 10, 60, 100
11, 18440, Note_on_c, 10, 55, 100
11, 18530, Note_on_c, 10, 55, 0
11, 18560, Note_on_c, 10, 55, 100
11, 18595, Note_on_c, 10, 55, 0
11, 18600, Note_on_c, 10, 60, 0
11, 18600, Note_on_c, 10, 62, 100
11, 18600, Note_on_c, 10, 55, 100
11, 18650, Note_on_c, 10, 62, 0
11, 18720, Note_on_c, 10, 55, 0
11, 22560, Note_on_c, 10, 57, 100
11, 22800, Note_on_c, 10, 57, 0
11, 22800, Note_on_c, 10, 59, 100
11, 23040, Note_on_c, 10, 59, 0
11, 23040, Note_on_c, 10, 60, 100
11, 23280, Note_on_c, 10, 60, 0
11, 23280, Note_on_c, 10, 62, 100
11, 23520, Note_on_c, 10, 62, 0
11, 23520, Note_on_c, 10, 60, 100
11, 23680, Note_on_c, 10, 60, 0
11, 23720, Note_on_c, 10, 60, 100
11, 23780, Note_on_c, 10, 60, 0
11, 28320, Note_on_c, 10, 67, 100
11, 28370, Note_on_c, 10, 67, 0
11, 28440, Note_on_c, 10, 67, 100
11, 28490, Note_on_c, 10, 67, 0
11, 28560, Note_on_c, 10, 67, 100
11, 28610, Note_on_c, 10, 67, 0
11, 28680, Note_on_c, 10, 67, 100
11, 28730, Note_on_c, 10, 67, 0
11, 28800, Note_on_c, 10, 67, 100
11, 28850, Note_on_c, 10, 67, 0
11, 28920, Note_on_c, 10, 64, 100
11, 29000, Note_on_c, 10, 64, 0
11, 29000, Note_on_c, 10, 60, 100
11, 29160, Note_on_c, 10, 60, 0
11, 29280, Note_on_c, 10, 55, 100
11, 29330, Note_on_c, 10, 55, 0
11, 29400, Note_on_c, 10, 55, 100
11, 29450, Note_on_c, 10, 55, 0
11, 29520, Note_on_c, 10, 55, 100
11, 29570, Note_on_c, 10, 55, 0
11, 29640, Note_on_c, 10, 55, 100
11, 29690, Note_on_c, 10, 55, 0
11, 29760, Note_on_c, 10, 55, 100
11, 29810, Note_on_c, 10, 55, 0
11, 29880, Note_on_c, 10, 52, 100
11, 29960, Note_on_c, 10, 52, 0
11, 29960, Note_on_c, 10, 48, 100
11, 30120, Note_on_c, 10, 48, 0
11, 30240, Note_on_c, 10, 55, 100
11, 30290, Note_on_c, 10, 55, 0
11, 30360, Note_on_c, 10, 55, 100
11, 30410, Note_on_c, 10, 55, 0
11, 30480, Note_on_c, 10, 55, 100
11, 30530, Note_on_c, 10, 55, 0
11, 30600, Note_on_c, 10, 55, 100
11, 30650, Note_on_c, 10, 55, 0
11, 30720, Note_on_c, 10, 55, 100
11, 30770, Note_on_c, 10, 55, 0
11, 30840, Note_on_c, 10, 55, 100
11, 30920, Note_on_c, 10, 55, 0
11, 30920, Note_on_c, 10, 55, 100
11, 31080, Note_on_c, 10, 55, 0
11, 31320, Note_on_c, 10, 69, 100
11, 31400, Note_on_c, 10, 69, 0
11, 31520, Note_on_c, 10, 69, 100
11, 31600, Note_on_c, 10, 69, 0
11, 31680, Note_on_c, 10, 67, 100
11, 31840, Note_on_c, 10, 67, 0
11, 32280, Note_on_c, 10, 69, 100
11, 32360, Note_on_c, 10, 69, 0
11, 32480, Note_on_c, 10, 69, 100
11, 32560, Note_on_c, 10, 69, 0
11, 32640, Note_on_c, 10, 67, 100
11, 32800, Note_on_c, 10, 67, 0
11, 33240, Note_on_c, 10, 76, 100
11, 33320, Note_on_c, 10, 76, 0
11, 33320, Note_on_c, 10, 72, 100
11, 33360, Note_on_c, 10, 72, 0
11, 33360, Note_on_c, 10, 74, 100
11, 33430, Note_on_c, 10, 74, 0
11, 33440, Note_on_c, 10, 71, 100
11, 33480, Note_on_c, 10, 71, 0
11, 33480, Note_on_c, 10, 74, 100
11, 33560, Note_on_c, 10, 74, 0
11, 33560, Note_on_c, 10, 72, 100
11, 33720, Note_on_c, 10, 72, 0
11, 33720, Note_on_c, 10, 72, 100
11, 33800, Note_on_c, 10, 72, 0
11, 33800, Note_on_c, 10, 69, 100
11, 33840, Note_on_c, 10, 69, 0
11, 33840, Note_on_c, 10, 74, 100
11, 33910, Note_on_c, 10, 74, 0
11, 33920, Note_on_c, 10, 72, 100
11, 33960, Note_on_c, 10, 72, 0
11, 33960, Note_on_c, 10, 74, 100
11, 34030, Note_on_c, 10, 74, 0
11, 34200, Note_on_c, 10, 76, 100
11, 34280, Note_on_c, 10, 76, 0
11, 34280, Note_on_c, 10, 72, 100
11, 34320, Note_on_c, 10, 72, 0
11, 34320, Note_on_c, 10, 74, 100
11, 34390, Note_on_c, 10, 74, 0
11, 34400, Note_on_c, 10, 71, 100
11, 34440, Note_on_c, 10, 71, 0
11, 34440, Note_on_c, 10, 74, 100
11, 34520, Note_on_c, 10, 74, 0
11, 34520, Note_on_c, 10, 72, 100
11, 34680, Note_on_c, 10, 72, 0
11, 34680, Note_on_c, 10, 72, 100
11, 34760, Note_on_c, 10, 72, 0
11, 34760, Note_on_c, 10, 69, 100
11, 34800, Note_on_c, 10, 69, 0
11, 34800, Note_on_c, 10, 74, 100
11, 34870, Note_on_c, 10, 74, 0
11, 34880, Note_on_c, 10, 72, 100
11, 34920, Note_on_c, 10, 72, 0
11, 34920, Note_on_c, 10, 74, 100
11, 34990, Note_on_c, 10, 74, 0
11, 35160, Note_on_c, 10, 76, 100
11, 35240, Note_on_c, 10, 76, 0
11, 35240, Note_on_c, 10, 72, 100
11, 35280, Note_on_c, 10, 72, 0
11, 35280, Note_on_c, 10, 74, 100
11, 35350, Note_on_c, 10, 74, 0
11, 35360, Note_on_c, 10, 71, 100
11, 35400, Note_on_c, 10, 71, 0
11, 35400, Note_on_c, 10, 74, 100
11, 35480, Note_on_c, 10, 74, 0
11, 35480, Note_on_c, 10, 72, 100
11, 35640, Note_on_c, 10, 72, 0
11, 35640, Note_on_c, 10, 72, 97
11, 35720, Note_on_c, 10, 72, 0
11, 35720, Note_on_c, 10, 69, 95
11, 35760, Note_on_c, 10, 69, 0
11, 35760, Note_on_c, 10, 74, 93
11, 35830, Note_on_c, 10, 74, 0
11, 35840, Note_on_c, 10, 72, 91
11, 35880, Note_on_c, 10, 72, 0
11, 35880, Note_on_c, 10, 74, 90
11, 35950, Note_on_c, 10, 74, 0
11, 36120, Note_on_c, 10, 76, 83
11, 36200, Note_on_c, 10, 76, 0
11, 36200, Note_on_c, 10, 72, 80
11, 36240, Note_on_c, 10, 72, 0
11, 36240, Note_on_c, 10, 74, 79
11, 36310, Note_on_c, 10, 74, 0
11, 36320, Note_on_c, 10, 71, 77
11, 36360, Note_on_c, 10, 71, 0
11, 36360, Note_on_c, 10, 74, 75
11, 36440, Note_on_c, 10, 74, 0
11, 36440, Note_on_c, 10, 72, 73
11, 36600, Note_on_c, 10, 72, 0
11, 36600, Note_on_c, 10, 72, 68
11, 36680, Note_on_c, 10, 72, 0
11, 36680, Note_on_c, 10, 69, 66
11, 36720, Note_on_c, 10, 69, 0
11, 36720, Note_on_c, 10, 74, 65
11, 36790, Note_on_c, 10, 74, 0
11, 36800, Note_on_c, 10, 72, 62
11, 36840, Note_on_c, 10, 72, 0
11, 36840, Note_on_c, 10, 74, 61
11, 36910, Note_on_c, 10, 74, 0
11, 37080, Note_on_c, 10, 76, 54
11, 37160, Note_on_c, 10, 76, 0
11, 37160, Note_on_c, 10, 72, 52
11, 37200, Note_on_c, 10, 72, 0
11, 37200, Note_on_c, 10, 74, 50
11, 37270, Note_on_c, 10, 74, 0
11, 37280, Note_on_c, 10, 71, 48
11, 37320, Note_on_c, 10, 71, 0
11, 37320, Note_on_c, 10, 74, 47
11, 37400, Note_on_c, 10, 74, 0
11, 37400, Note_on_c, 10, 72, 45
11, 37560, Note_on_c, 10, 72, 0
11, 37560, Note_on_c, 10, 72, 40
11, 37640, Note_on_c, 10, 72, 0
11, 37640, Note_on_c, 10, 69, 37
11, 37680, Note_on_c, 10, 69, 0
11, 37680, Note_on_c, 10, 74, 36
11, 37750, Note_on_c, 10, 74, 0
11, 37760, Note_on_c, 10, 72, 34
11, 37800, Note_on_c, 10, 72, 0
11, 37800, Note_on_c, 10, 74, 33
11, 37870, Note_on_c, 10, 74, 0
11, 38040, Note_on_c, 10, 76, 25
11, 38120, Note_on_c, 10, 76, 0
11, 38120, Note_on_c, 10, 72, 23
11, 38160, Note_on_c, 10, 72, 0
11, 38160, Note_on_c, 10, 74, 22
11, 38230, Note_on_c, 10, 74, 0
11, 38240, Note_on_c, 10, 71, 20
11, 38280, Note_on_c, 10, 71, 0
11, 38280, Note_on_c, 10, 74, 18
11, 38360, Note_on_c, 10, 74, 0
11, 38360, Note_on_c, 10, 72, 16
11, 38520, Note_on_c, 10, 72, 0
11, 38520, Note_on_c, 10, 72, 11
11, 38600, Note_on_c, 10, 72, 0
11, 38600, Note_on_c, 10, 69, 9
11, 38640, Note_on_c, 10, 69, 0
11, 38640, Note_on_c, 10, 74, 8
11, 38710, Note_on_c, 10, 74, 0
11, 38720, Note_on_c, 10, 72, 5
11, 38760, Note_on_c, 10, 72, 0
11, 38760, Note_on_c, 10, 74, 4
11, 38830, Note_on_c, 10, 74, 0
11, 38830, End_track
12, 0, Start_track
12, 0, MIDI_port, 0
12, 0, Program_c, 11, 56
12, 0, Control_c, 11, 7, 100
12, 0, Control_c, 11, 10, 127
12, 7200, Note_on_c, 11, 67, 100
12, 7250, Note_on_c, 11, 67, 0
12, 7320, Note_on_c, 11, 67, 100
12, 7370, Note_on_c, 11, 67, 0
12, 7440, Note_on_c, 11, 67, 100
12, 7490, Note_on_c, 11, 67, 0
12, 7560, Note_on_c, 11, 67, 100
12, 7610, Note_on_c, 11, 67, 0
12, 7680, Note_on_c, 11, 67, 100
12, 7730, Note_on_c, 11, 67, 0
12, 7800, Note_on_c, 11, 64, 100
12, 7880, Note_on_c, 11, 64, 0
12, 7880, Note_on_c, 11, 60, 100
12, 8040, Note_on_c, 11, 60, 0
12, 8040, Note_on_c, 11, 62, 100
12, 8090, Note_on_c, 11, 62, 0
12, 12000, Note_on_c, 11, 72, 100
12, 12240, Note_on_c, 11, 72, 0
12, 12240, Note_on_c, 11, 71, 100
12, 12480, Note_on_c, 11, 71, 0
12, 12480, Note_on_c, 11, 69, 100
12, 12720, Note_on_c, 11, 69, 0
12, 12720, Note_on_c, 11, 67, 100
12, 12960, Note_on_c, 11, 67, 0
12, 12960, Note_on_c, 11, 69, 100
12, 13120, Note_on_c, 11, 69, 0
12, 17760, Note_on_c, 11, 67, 100
12, 17810, Note_on_c, 11, 67, 0
12, 17880, Note_on_c, 11, 67, 100
12, 17930, Note_on_c, 11, 67, 0
12, 18000, Note_on_c, 11, 67, 100
12, 18050, Note_on_c, 11, 67, 0
12, 18120, Note_on_c, 11, 67, 100
12, 18170, Note_on_c, 11, 67, 0
12, 18240, Note_on_c, 11, 67, 100
12, 18290, Note_on_c, 11, 67, 0
12, 18360, Note_on_c, 11, 64, 100
12, 18440, Note_on_c, 11, 64, 0
12, 18440, Note_on_c, 11, 60, 100
12, 18600, Note_on_c, 11, 60, 0
12, 18600, Note_on_c, 11, 62, 100
12, 18650, Note_on_c, 11, 62, 0
12, 22560, Note_on_c, 11, 72, 100
12, 22800, Note_on_c, 11, 72, 0
12, 22800, Note_on_c, 11, 71, 100
12, 23040, Note_on_c, 11, 71, 0
12, 23040, Note_on_c, 11, 69, 100
12, 23280, Note_on_c, 11, 69, 0
12, 23280, Note_on_c, 11, 67, 100
12, 23520, Note_on_c, 11, 67, 0
12, 23520, Note_on_c, 11, 69, 100
12, 23680, Note_on_c, 11, 69, 0
12, 28320, Note_on_c, 11, 79, 100
12, 28370, Note_on_c, 11, 79, 0
12, 28440, Note_on_c, 11, 79, 100
12, 28490, Note_on_c, 11, 79, 0
12, 28560, Note_on_c, 11, 79, 100
12, 28610, Note_on_c, 11, 79, 0
12, 28680, Note_on_c, 11, 79, 100
12, 28730, Note_on_c, 11, 79, 0
12, 28800, Note_on_c, 11, 79, 100
12, 28850, Note_on_c, 11, 79, 0
12, 28920, Note_on_c, 11, 76, 100
12, 29000, Note_on_c, 11, 76, 0
12, 29000, Note_on_c, 11, 72, 100
12, 29160, Note_on_c, 11, 72, 0
12, 29280, Note_on_c, 11, 67, 100
12, 29330, Note_on_c, 11, 67, 0
12, 29400, Note_on_c, 11, 67, 100
12, 29450, Note_on_c, 11, 67, 0
12, 29520, Note_on_c, 11, 67, 100
12, 29570, Note_on_c, 11, 67, 0
12, 29640, Note_on_c, 11, 67, 100
12, 29690, Note_on_c, 11, 67, 0
12, 29760, Note_on_c, 11, 67, 100
12, 29810, Note_on_c, 11, 67, 0
12, 29880, Note_on_c, 11, 64, 100
12, 29960, Note_on_c, 11, 64, 0
12, 29960, Note_on_c, 11, 60, 100
12, 30120, Note_on_c, 11, 60, 0
12, 30240, Note_on_c, 11, 67, 100
12, 30290, Note_on_c, 11, 67, 0
12, 30360, Note_on_c, 11, 67, 100
12, 30410, Note_on_c, 11, 67, 0
12, 30480, Note_on_c, 11, 67, 100
12, 30530, Note_on_c, 11, 67, 0
12, 30600, Note_on_c, 11, 67, 100
12, 30650, Note_on_c, 11, 67, 0
12, 30720, Note_on_c, 11, 67, 100
12, 30770, Note_on_c, 11, 67, 0
12, 30840, Note_on_c, 11, 67, 100
12, 30920, Note_on_c, 11, 67, 0
12, 30920, Note_on_c, 11, 67, 100
12, 31080, Note_on_c, 11, 67, 0
12, 31320, Note_on_c, 11, 76, 100
12, 31400, Note_on_c, 11, 76, 0
12, 31520, Note_on_c, 11, 74, 100
12, 31600, Note_on_c, 11, 74, 0
12, 31680, Note_on_c, 11, 72, 100
12, 31840, Note_on_c, 11, 72, 0
12, 32280, Note_on_c, 11, 76, 100
12, 32360, Note_on_c, 11, 76, 0
12, 32480, Note_on_c, 11, 74, 100
12, 32560, Note_on_c, 11, 74, 0
12, 32640, Note_on_c, 11, 79, 100
12, 32640, Note_on_c, 11, 72, 100
12, 32800, Note_on_c, 11, 72, 0
12, 32800, Note_on_c, 11, 79, 0
12, 33240, Note_on_c, 11, 76, 100
12, 33320, Note_on_c, 11, 76, 0
12, 33320, Note_on_c, 11, 72, 100
12, 33360, Note_on_c, 11, 72, 0
12, 33360, Note_on_c, 11, 74, 100
12, 33430, Note_on_c, 11, 74, 0
12, 33440, Note_on_c, 11, 71, 100
12, 33480, Note_on_c, 11, 71, 0
12, 33480, Note_on_c, 11, 74, 100
12, 33560, Note_on_c, 11, 74, 0
12, 33560, Note_on_c, 11, 72, 100
12, 33720, Note_on_c, 11, 72, 0
12, 33720, Note_on_c, 11, 72, 100
12, 33800, Note_on_c, 11, 72, 0
12, 33800, Note_on_c, 11, 69, 100
12, 33840, Note_on_c, 11, 69, 0
12, 33840, Note_on_c, 11, 74, 100
12, 33910, Note_on_c, 11, 74, 0
12, 33920, Note_on_c, 11, 72, 100
12, 33960, Note_on_c, 11, 72, 0
12, 33960, Note_on_c, 11, 74, 100
12, 34030, Note_on_c, 11, 74, 0
12, 34200, Note_on_c, 11, 76, 100
12, 34280, Note_on_c, 11, 76, 0
12, 34280, Note_on_c, 11, 72, 100
12, 34320, Note_on_c, 11, 72, 0
12, 34320, Note_on_c, 11, 74, 100
12, 34390, Note_on_c, 11, 74, 0
12, 34400, Note_on_c, 11, 71, 100
12, 34440, Note_on_c, 11, 71, 0
12, 34440, Note_on_c, 11, 74, 100
12, 34520, Note_on_c, 11, 74, 0
12, 34520, Note_on_c, 11, 72, 100
12, 34680, Note_on_c, 11, 72, 0
12, 34680, Note_on_c, 11, 72, 100
12, 34760, Note_on_c, 11, 72, 0
12, 34760, Note_on_c, 11, 69, 100
12, 34800, Note_on_c, 11, 69, 0
12, 34800, Note_on_c, 11, 74, 100
12, 34870, Note_on_c, 11, 74, 0
12, 34880, Note_on_c, 11, 72, 100
12, 34920, Note_on_c, 11, 72, 0
12, 34920, Note_on_c, 11, 74, 100
12, 34990, Note_on_c, 11, 74, 0
12, 35160, Note_on_c, 11, 76, 100
12, 35240, Note_on_c, 11, 76, 0
12, 35240, Note_on_c, 11, 72, 100
12, 35280, Note_on_c, 11, 72, 0
12, 35280, Note_on_c, 11, 74, 100
12, 35350, Note_on_c, 11, 74, 0
12, 35360, Note_on_c, 11, 71, 100
12, 35400, Note_on_c, 11, 71, 0
12, 35400, Note_on_c, 11, 74, 100
12, 35480, Note_on_c, 11, 74, 0
12, 35480, Note_on_c, 11, 72, 100
12, 35640, Note_on_c, 11, 72, 0
12, 35640, Note_on_c, 11, 72, 97
12, 35720, Note_on_c, 11, 72, 0
12, 35720, Note_on_c, 11, 69, 95
12, 35760, Note_on_c, 11, 69, 0
12, 35760, Note_on_c, 11, 74, 93
12, 35830, Note_on_c, 11, 74, 0
12, 35840, Note_on_c, 11, 72, 91
12, 35880, Note_on_c, 11, 72, 0
12, 35880, Note_on_c, 11, 74, 90
12, 35950, Note_on_c, 11, 74, 0
12, 36120, Note_on_c, 11, 76, 83
12, 36200, Note_on_c, 11, 76, 0
12, 36200, Note_on_c, 11, 72, 80
12, 36240, Note_on_c, 11, 72, 0
12, 36240, Note_on_c, 11, 74, 79
12, 36310, Note_on_c, 11, 74, 0
12, 36320, Note_on_c, 11, 71, 77
12, 36360, Note_on_c, 11, 71, 0
12, 36360, Note_on_c, 11, 74, 75
12, 36440, Note_on_c, 11, 74, 0
12, 36440, Note_on_c, 11, 72, 73
12, 36600, Note_on_c, 11, 72, 0
12, 36600, Note_on_c, 11, 72, 68
12, 36680, Note_on_c, 11, 72, 0
12, 36680, Note_on_c, 11, 69, 66
12, 36720, Note_on_c, 11, 69, 0
12, 36720, Note_on_c, 11, 74, 65
12, 36790, Note_on_c, 11, 74, 0
12, 36800, Note_on_c, 11, 72, 62
12, 36840, Note_on_c, 11, 72, 0
12, 36840, Note_on_c, 11, 74, 61
12, 36910, Note_on_c, 11, 74, 0
12, 37080, Note_on_c, 11, 76, 54
12, 37160, Note_on_c, 11, 76, 0
12, 37160, Note_on_c, 11, 72, 52
12, 37200, Note_on_c, 11, 72, 0
12, 37200, Note_on_c, 11, 74, 50
12, 37270, Note_on_c, 11, 74, 0
12, 37280, Note_on_c, 11, 71, 48
12, 37320, Note_on_c, 11, 71, 0
12, 37320, Note_on_c, 11, 74, 47
12, 37400, Note_on_c, 11, 74, 0
12, 37400, Note_on_c, 11, 72, 45
12, 37560, Note_on_c, 11, 72, 0
12, 37560, Note_on_c, 11, 72, 40
12, 37640, Note_on_c, 11, 72, 0
12, 37640, Note_on_c, 11, 69, 37
12, 37680, Note_on_c, 11, 69, 0
12, 37680, Note_on_c, 11, 74, 36
12, 37750, Note_on_c, 11, 74, 0
12, 37760, Note_on_c, 11, 72, 34
12, 37800, Note_on_c, 11, 72, 0
12, 37800, Note_on_c, 11, 74, 33
12, 37870, Note_on_c, 11, 74, 0
12, 38040, Note_on_c, 11, 76, 25
12, 38120, Note_on_c, 11, 76, 0
12, 38120, Note_on_c, 11, 72, 23
12, 38160, Note_on_c, 11, 72, 0
12, 38160, Note_on_c, 11, 74, 22
12, 38230, Note_on_c, 11, 74, 0
12, 38240, Note_on_c, 11, 71, 20
12, 38280, Note_on_c, 11, 71, 0
12, 38280, Note_on_c, 11, 74, 18
12, 38360, Note_on_c, 11, 74, 0
12, 38360, Note_on_c, 11, 72, 16
12, 38520, Note_on_c, 11, 72, 0
12, 38520, Note_on_c, 11, 72, 11
12, 38600, Note_on_c, 11, 72, 0
12, 38600, Note_on_c, 11, 69, 9
12, 38640, Note_on_c, 11, 69, 0
12, 38640, Note_on_c, 11, 74, 8
12, 38710, Note_on_c, 11, 74, 0
12, 38720, Note_on_c, 11, 72, 5
12, 38760, Note_on_c, 11, 72, 0
12, 38760, Note_on_c, 11, 74, 4
12, 38830, Note_on_c, 11, 74, 0
12, 38830, End_track
13, 0, Start_track
13, 0, MIDI_port, 0
13, 0, Program_c, 12, 11
13, 0, Control_c, 12, 7, 75
13, 0, Control_c, 12, 10, 127
13, 1440, Note_on_c, 12, 76, 100
13, 1520, Note_on_c, 12, 76, 0
13, 1560, Note_on_c, 12, 76, 100
13, 1640, Note_on_c, 12, 76, 0
13, 1640, Note_on_c, 12, 72, 100
13, 1680, Note_on_c, 12, 72, 0
13, 1680, Note_on_c, 12, 74, 100
13, 1750, Note_on_c, 12, 74, 0
13, 1760, Note_on_c, 12, 71, 100
13, 1800, Note_on_c, 12, 71, 0
13, 1800, Note_on_c, 12, 74, 100
13, 1880, Note_on_c, 12, 74, 0
13, 1880, Note_on_c, 12, 72, 100
13, 2040, Note_on_c, 12, 72, 0
13, 2040, Note_on_c, 12, 72, 100
13, 2120, Note_on_c, 12, 72, 0
13, 2120, Note_on_c, 12, 69, 100
13, 2160, Note_on_c, 12, 69, 0
13, 2160, Note_on_c, 12, 74, 100
13, 2230, Note_on_c, 12, 74, 0
13, 2240, Note_on_c, 12, 72, 100
13, 2280, Note_on_c, 12, 72, 0
13, 2280, Note_on_c, 12, 74, 100
13, 2350, Note_on_c, 12, 74, 0
13, 2400, Note_on_c, 12, 76, 100
13, 2480, Note_on_c, 12, 76, 0
13, 2520, Note_on_c, 12, 76, 100
13, 2600, Note_on_c, 12, 76, 0
13, 2600, Note_on_c, 12, 72, 100
13, 2640, Note_on_c, 12, 72, 0
13, 2640, Note_on_c, 12, 74, 100
13, 2710, Note_on_c, 12, 74, 0
13, 2720, Note_on_c, 12, 71, 100
13, 2760, Note_on_c, 12, 71, 0
13, 2760, Note_on_c, 12, 74, 100
13, 2840, Note_on_c, 12, 74, 0
13, 2840, Note_on_c, 12, 72, 100
13, 3000, Note_on_c, 12, 72, 0
13, 3000, Note_on_c, 12, 72, 100
13, 3120, Note_on_c, 12, 72, 0
13, 3120, Note_on_c, 12, 72, 100
13, 3240, Note_on_c, 12, 72, 0
13, 3240, Note_on_c, 12, 72, 100
13, 3360, Note_on_c, 12, 72, 0
13, 17760, Note_on_c, 12, 79, 100
13, 17810, Note_on_c, 12, 79, 0
13, 17880, Note_on_c, 12, 79, 100
13, 17930, Note_on_c, 12, 79, 0
13, 18000, Note_on_c, 12, 79, 100
13, 18050, Note_on_c, 12, 79, 0
13, 18120, Note_on_c, 12, 79, 100
13, 18170, Note_on_c, 12, 79, 0
13, 18240, Note_on_c, 12, 79, 100
13, 18290, Note_on_c, 12, 79, 0
13, 18360, Note_on_c, 12, 76, 100
13, 18440, Note_on_c, 12, 76, 0
13, 18440, Note_on_c, 12, 72, 100
13, 18600, Note_on_c, 12, 72, 0
13, 28320, Note_on_c, 12, 79, 100
13, 28800, Note_on_c, 12, 79, 0
13, 29000, Note_on_c, 12, 72, 100
13, 29080, Note_on_c, 12, 72, 0
13, 29160, Note_on_c, 12, 74, 100
13, 29240, Note_on_c, 12, 74, 0
13, 29280, Note_on_c, 12, 79, 100
13, 29330, Note_on_c, 12, 79, 0
13, 29400, Note_on_c, 12, 79, 100
13, 29450, Note_on_c, 12, 79, 0
13, 29520, Note_on_c, 12, 79, 100
13, 29570, Note_on_c, 12, 79, 0
13, 29640, Note_on_c, 12, 79, 100
13, 29690, Note_on_c, 12, 79, 0
13, 29760, Note_on_c, 12, 79, 100
13, 29810, Note_on_c, 12, 79, 0
13, 29880, Note_on_c, 12, 76, 100
13, 29960, Note_on_c, 12, 76, 0
13, 29960, Note_on_c, 12, 72, 100
13, 30120, Note_on_c, 12, 72, 0
13, 30120, Note_on_c, 12, 74, 100
13, 30240, Note_on_c, 12, 74, 0
13, 30240, Note_on_c, 12, 67, 100
13, 30330, Note_on_c, 12, 67, 0
13, 30360, Note_on_c, 12, 67, 100
13, 30450, Note_on_c, 12, 67, 0
13, 30480, Note_on_c, 12, 67, 100
13, 30570, Note_on_c, 12, 67, 0
13, 30600, Note_on_c, 12, 67, 100
13, 30690, Note_on_c, 12, 67, 0
13, 30720, Note_on_c, 12, 67, 100
13, 30810, Note_on_c, 12, 67, 0
13, 30840, Note_on_c, 12, 67, 100
13, 30930, Note_on_c, 12, 67, 0
13, 30960, Note_on_c, 12, 67, 100
13, 31120, Note_on_c, 12, 67, 0
13, 31200, Note_on_c, 12, 76, 100
13, 31290, Note_on_c, 12, 76, 0
13, 31320, Note_on_c, 12, 76, 100
13, 31400, Note_on_c, 12, 76, 0
13, 31400, Note_on_c, 12, 72, 100
13, 31435, Note_on_c, 12, 72, 0
13, 31440, Note_on_c, 12, 74, 100
13, 31510, Note_on_c, 12, 74, 0
13, 31520, Note_on_c, 12, 71, 100
13, 31555, Note_on_c, 12, 71, 0
13, 31560, Note_on_c, 12, 74, 100
13, 31610, Note_on_c, 12, 74, 0
13, 31640, Note_on_c, 12, 72, 100
13, 31760, Note_on_c, 12, 72, 0
13, 31800, Note_on_c, 12, 72, 100
13, 31880, Note_on_c, 12, 72, 0
13, 31920, Note_on_c, 12, 74, 100
13, 32000, Note_on_c, 12, 74, 0
13, 32000, Note_on_c, 12, 72, 100
13, 32040, Note_on_c, 12, 72, 0
13, 32040, Note_on_c, 12, 74, 100
13, 32120, Note_on_c, 12, 74, 0
13, 32160, Note_on_c, 12, 76, 100
13, 32250, Note_on_c, 12, 76, 0
13, 32280, Note_on_c, 12, 76, 100
13, 32360, Note_on_c, 12, 76, 0
13, 32360, Note_on_c, 12, 72, 100
13, 32395, Note_on_c, 12, 72, 0
13, 32400, Note_on_c, 12, 74, 100
13, 32470, Note_on_c, 12, 74, 0
13, 32480, Note_on_c, 12, 71, 100
13, 32515, Note_on_c, 12, 71, 0
13, 32520, Note_on_c, 12, 74, 100
13, 32570, Note_on_c, 12, 74, 0
13, 32600, Note_on_c, 12, 72, 100
13, 32720, Note_on_c, 12, 72, 0
13, 32760, Note_on_c, 12, 72, 100
13, 32840, Note_on_c, 12, 72, 0
13, 32880, Note_on_c, 12, 74, 100
13, 32960, Note_on_c, 12, 74, 0
13, 32960, Note_on_c, 12, 72, 100
13, 33000, Note_on_c, 12, 72, 0
13, 33000, Note_on_c, 12, 74, 100
13, 33080, Note_on_c, 12, 74, 0
13, 33120, Note_on_c, 12, 76, 100
13, 33210, Note_on_c, 12, 76, 0
13, 33240, Note_on_c, 12, 76, 100
13, 33320, Note_on_c, 12, 76, 0
13, 33320, Note_on_c, 12, 72, 100
13, 33355, Note_on_c, 12, 72, 0
13, 33360, Note_on_c, 12, 74, 100
13, 33430, Note_on_c, 12, 74, 0
13, 33440, Note_on_c, 12, 71, 100
13, 33475, Note_on_c, 12, 71, 0
13, 33480, Note_on_c, 12, 74, 100
13, 33530, Note_on_c, 12, 74, 0
13, 33560, Note_on_c, 12, 72, 100
13, 33680, Note_on_c, 12, 72, 0
13, 33720, Note_on_c, 12, 72, 100
13, 33800, Note_on_c, 12, 72, 0
13, 33840, Note_on_c, 12, 74, 100
13, 33920, Note_on_c, 12, 74, 0
13, 33920, Note_on_c, 12, 72, 100
13, 33960, Note_on_c, 12, 72, 0
13, 33960, Note_on_c, 12, 74, 100
13, 34040, Note_on_c, 12, 74, 0
13, 34080, Note_on_c, 12, 76, 100
13, 34170, Note_on_c, 12, 76, 0
13, 34200, Note_on_c, 12, 76, 100
13, 34280, Note_on_c, 12, 76, 0
13, 34280, Note_on_c, 12, 72, 100
13, 34315, Note_on_c, 12, 72, 0
13, 34320, Note_on_c, 12, 74, 100
13, 34390, Note_on_c, 12, 74, 0
13, 34400, Note_on_c, 12, 71, 100
13, 34435, Note_on_c, 12, 71, 0
13, 34440, Note_on_c, 12, 74, 100
13, 34490, Note_on_c, 12, 74, 0
13, 34520, Note_on_c, 12, 72, 100
13, 34640, Note_on_c, 12, 72, 0
13, 34680, Note_on_c, 12, 72, 100
13, 34760, Note_on_c, 12, 72, 0
13, 34800, Note_on_c, 12, 74, 100
13, 34880, Note_on_c, 12, 74, 0
13, 34880, Note_on_c, 12, 72, 100
13, 34920, Note_on_c, 12, 72, 0
13, 34920, Note_on_c, 12, 74, 100
13, 35000, Note_on_c, 12, 74, 0
13, 35040, Note_on_c, 12, 76, 100
13, 35130, Note_on_c, 12, 76, 0
13, 35160, Note_on_c, 12, 76, 100
13, 35240, Note_on_c, 12, 76, 0
13, 35240, Note_on_c, 12, 72, 100
13, 35275, Note_on_c, 12, 72, 0
13, 35280, Note_on_c, 12, 74, 100
13, 35350, Note_on_c, 12, 74, 0
13, 35360, Note_on_c, 12, 71, 100
13, 35395, Note_on_c, 12, 71, 0
13, 35400, Note_on_c, 12, 74, 100
13, 35450, Note_on_c, 12, 74, 0
13, 35480, Note_on_c, 12, 72, 100
13, 35600, Note_on_c, 12, 72, 0
13, 35640, Note_on_c, 12, 72, 97
13, 35720, Note_on_c, 12, 72, 0
13, 35760, Note_on_c, 12, 74, 93
13, 35840, Note_on_c, 12, 74, 0
13, 35840, Note_on_c, 12, 72, 91
13, 35880, Note_on_c, 12, 72, 0
13, 35880, Note_on_c, 12, 74, 90
13, 35960, Note_on_c, 12, 74, 0
13, 36000, Note_on_c, 12, 76, 86
13, 36090, Note_on_c, 12, 76, 0
13, 36120, Note_on_c, 12, 76, 83
13, 36200, Note_on_c, 12, 76, 0
13, 36200, Note_on_c, 12, 72, 80
13, 36235, Note_on_c, 12, 72, 0
13, 36240, Note_on_c, 12, 74, 79
13, 36310, Note_on_c, 12, 74, 0
13, 36320, Note_on_c, 12, 71, 77
13, 36355, Note_on_c, 12, 71, 0
13, 36360, Note_on_c, 12, 74, 75
13, 36410, Note_on_c, 12, 74, 0
13, 36440, Note_on_c, 12, 72, 73
13, 36560, Note_on_c, 12, 72, 0
13, 36600, Note_on_c, 12, 72, 68
13, 36680, Note_on_c, 12, 72, 0
13, 36720, Note_on_c, 12, 74, 65
13, 36800, Note_on_c, 12, 74, 0
13, 36800, Note_on_c, 12, 72, 62
13, 36840, Note_on_c, 12, 72, 0
13, 36840, Note_on_c, 12, 74, 61
13, 36920, Note_on_c, 12, 74, 0
13, 36960, Note_on_c, 12, 76, 58
13, 37050, Note_on_c, 12, 76, 0
13, 37080, Note_on_c, 12, 76, 54
13, 37160, Note_on_c, 12, 76, 0
13, 37160, Note_on_c, 12, 72, 52
13, 37195, Note_on_c, 12, 72, 0
13, 37200, Note_on_c, 12, 74, 50
13, 37270, Note_on_c, 12, 74, 0
13, 37280, Note_on_c, 12, 71, 48
13, 37315, Note_on_c, 12, 71, 0
13, 37320, Note_on_c, 12, 74, 47
13, 37370, Note_on_c, 12, 74, 0
13, 37400, Note_on_c, 12, 72, 45
13, 37520, Note_on_c, 12, 72, 0
13, 37560, Note_on_c, 12, 72, 40
13, 37640, Note_on_c, 12, 72, 0
13, 37680, Note_on_c, 12, 74, 36
13, 37760, Note_on_c, 12, 74, 0
13, 37760, Note_on_c, 12, 72, 34
13, 37800, Note_on_c, 12, 72, 0
13, 37800, Note_on_c, 12, 74, 33
13, 37880, Note_on_c, 12, 74, 0
13, 37920, Note_on_c, 12, 76, 29
13, 38010, Note_on_c, 12, 76, 0
13, 38040, Note_on_c, 12, 76, 25
13, 38120, Note_on_c, 12, 76, 0
13, 38120, Note_on_c, 12, 72, 23
13, 38155, Note_on_c, 12, 72, 0
13, 38160, Note_on_c, 12, 74, 22
13, 38230, Note_on_c, 12, 74, 0
13, 38240, Note_on_c, 12, 71, 20
13, 38275, Note_on_c, 12, 71, 0
13, 38280, Note_on_c, 12, 74, 18
13, 38330, Note_on_c, 12, 74, 0
13, 38360, Note_on_c, 12, 72, 16
13, 38480, Note_on_c, 12, 72, 0
13, 38520, Note_on_c, 12, 72, 11
13, 38600, Note_on_c, 12, 72, 0
13, 38640, Note_on_c, 12, 74, 8
13, 38720, Note_on_c, 12, 74, 0
13, 38720, Note_on_c, 12, 72, 5
13, 38760, Note_on_c, 12, 72, 0
13, 38760, Note_on_c, 12, 74, 4
13, 38840, Note_on_c, 12, 74, 0
13, 38840, End_track
14, 0, Start_track
14, 0, MIDI_port, 0
14, 0, Title_t, "Wedding Bell Blues"
14, 0, End_track
15, 0, Start_track
15, 0, MIDI_port, 0
15, 0, Title_t, "The Fifth Dimension"
15, 0, End_track
16, 0, Start_track
16, 0, MIDI_port, 0
16, 0, Title_t, "Seq Copyright ©  1999 VJ Miele"
16, 0, End_track
17, 0, Start_track
17, 0, MIDI_port, 0
17, 0, Title_t, "the MidiStation"
17, 0, End_track
18, 0, Start_track
18, 0, MIDI_port, 0
18, 0, Title_t, "home of the best & worst of midi"
18, 0, End_track
19, 0, Start_track
19, 0, MIDI_port, 0
19, 0, Title_t, "http://pages.prodigy.net/flash100/index.htm"
19, 0, End_track
20, 0, Start_track
20, 0, MIDI_port, 0
20, 0, Title_t, "flash100@prodigy.net"
20, 0, End_track
21, 0, Start_track
21, 0, MIDI_port, 0
21, 0, Title_t, "Distributed freely provided"
21, 0, End_track
22, 0, Start_track
22, 0, MIDI_port, 0
22, 0, Title_t, "no alterations are made."
22, 0, End_track
0, 0, End_of_file
