0, 0, Header, 1, 7, 960
1, 0, Start_track
1, 0, Control_c, 0, 101, 0
1, 0, Control_c, 0, 100, 0
1, 0, Control_c, 0, 6, 12
1, 0, Control_c, 0, 38, 0
1, 0, Control_c, 1, 101, 0
1, 0, Control_c, 1, 100, 0
1, 0, Control_c, 1, 6, 12
1, 0, Control_c, 1, 38, 0
1, 0, Control_c, 2, 101, 0
1, 0, Control_c, 2, 100, 0
1, 0, Control_c, 2, 6, 12
1, 0, Control_c, 2, 38, 0
1, 0, Control_c, 3, 101, 0
1, 0, Control_c, 3, 100, 0
1, 0, Control_c, 3, 6, 12
1, 0, Control_c, 3, 38, 0
1, 0, Control_c, 4, 101, 0
1, 0, Control_c, 4, 100, 0
1, 0, Control_c, 4, 6, 12
1, 0, Control_c, 4, 38, 0
1, 0, Control_c, 5, 101, 0
1, 0, Control_c, 5, 100, 0
1, 0, Control_c, 5, 6, 12
1, 0, Control_c, 5, 38, 0
1, 0, Control_c, 6, 101, 0
1, 0, Control_c, 6, 100, 0
1, 0, Control_c, 6, 6, 12
1, 0, Control_c, 6, 38, 0
1, 0, Control_c, 7, 101, 0
1, 0, Control_c, 7, 100, 0
1, 0, Control_c, 7, 6, 12
1, 0, Control_c, 7, 38, 0
1, 0, Control_c, 8, 101, 0
1, 0, Control_c, 8, 100, 0
1, 0, Control_c, 8, 6, 12
1, 0, Control_c, 8, 38, 0
1, 0, Control_c, 9, 101, 0
1, 0, Control_c, 9, 100, 0
1, 0, Control_c, 9, 6, 12
1, 0, Control_c, 9, 38, 0
1, 0, Control_c, 10, 101, 0
1, 0, Control_c, 10, 100, 0
1, 0, Control_c, 10, 6, 12
1, 0, Control_c, 10, 38, 0
1, 0, Control_c, 11, 101, 0
1, 0, Control_c, 11, 100, 0
1, 0, Control_c, 11, 6, 12
1, 0, Control_c, 11, 38, 0
1, 0, Control_c, 12, 101, 0
1, 0, Control_c, 12, 100, 0
1, 0, Control_c, 12, 6, 12
1, 0, Control_c, 12, 38, 0
1, 0, Control_c, 13, 101, 0
1, 0, Control_c, 13, 100, 0
1, 0, Control_c, 13, 6, 12
1, 0, Control_c, 13, 38, 0
1, 0, Control_c, 14, 101, 0
1, 0, Control_c, 14, 100, 0
1, 0, Control_c, 14, 6, 12
1, 0, Control_c, 14, 38, 0
1, 0, Control_c, 15, 101, 0
1, 0, Control_c, 15, 100, 0
1, 0, Control_c, 15, 6, 12
1, 0, Control_c, 15, 38, 0
1, 0, Time_signature, 4, 2, 24, 8
1, 0, Tempo, 625000
1, 0, End_track
2, 0, Start_track
2, 0, Pitch_bend_c, 0, 8192
2, 0, Control_c, 0, 7, 95
2, 0, Control_c, 0, 10, 63
2, 0, Control_c, 0, 93, 0
2, 0, Control_c, 0, 91, 0
2, 0, Control_c, 0, 95, 0
2, 0, Control_c, 0, 92, 0
2, 0, Control_c, 0, 11, 127
2, 0, Program_c, 0, 11
2, 0, Control_c, 1, 7, 95
2, 0, Control_c, 1, 10, 63
2, 0, Control_c, 1, 93, 0
2, 0, Control_c, 1, 91, 0
2, 0, Control_c, 1, 95, 0
2, 0, Control_c, 1, 92, 0
2, 0, Control_c, 1, 11, 127
2, 0, Program_c, 1, 11
2, 0, Note_on_c, 0, 64, 95
2, 960, Note_off_c, 0, 64, 95
2, 960, Note_on_c, 0, 64, 95
2, 1680, Note_off_c, 0, 64, 95
2, 1680, Note_on_c, 0, 64, 95
2, 1920, Note_off_c, 0, 64, 95
2, 1920, Note_on_c, 0, 62, 95
2, 2160, Note_off_c, 0, 62, 95
2, 2160, Note_on_c, 0, 59, 95
2, 2400, Note_off_c, 0, 59, 95
2, 2400, Note_on_c, 0, 57, 95
2, 2880, Note_off_c, 0, 57, 95
2, 2880, Note_on_c, 0, 55, 95
2, 3840, Note_off_c, 0, 55, 95
2, 3840, Note_on_c, 0, 57, 95
2, 4080, Note_off_c, 0, 57, 95
2, 4080, Note_on_c, 0, 59, 95
2, 4320, Note_off_c, 0, 59, 95
2, 4320, Note_on_c, 0, 62, 95
2, 4800, Note_off_c, 0, 62, 95
2, 4800, Note_on_c, 0, 57, 95
2, 5520, Note_off_c, 0, 57, 95
2, 5520, Note_on_c, 0, 57, 95
2, 5760, Note_off_c, 0, 57, 95
2, 5760, Note_on_c, 0, 59, 95
2, 6000, Note_off_c, 0, 59, 95
2, 6000, Note_on_c, 0, 57, 95
2, 6240, Note_off_c, 0, 57, 95
2, 6240, Note_on_c, 0, 55, 95
2, 6720, Note_off_c, 0, 55, 95
2, 6720, Note_on_c, 0, 57, 95
2, 6960, Note_off_c, 0, 57, 95
2, 6960, Note_on_c, 0, 59, 95
2, 7200, Note_off_c, 0, 59, 95
2, 7200, Note_on_c, 0, 62, 95
2, 7680, Note_off_c, 0, 62, 95
2, 7680, Note_on_c, 0, 57, 95
2, 9600, Note_off_c, 0, 57, 95
2, 15360, Note_on_c, 0, 64, 95
2, 16320, Note_off_c, 0, 64, 95
2, 16320, Note_on_c, 0, 64, 95
2, 17040, Note_off_c, 0, 64, 95
2, 17040, Note_on_c, 0, 64, 95
2, 17280, Note_off_c, 0, 64, 95
2, 17280, Note_on_c, 0, 62, 95
2, 17520, Note_off_c, 0, 62, 95
2, 17520, Note_on_c, 0, 59, 95
2, 17760, Note_off_c, 0, 59, 95
2, 17760, Note_on_c, 0, 57, 95
2, 18240, Note_off_c, 0, 57, 95
2, 18240, Note_on_c, 0, 55, 95
2, 19200, Note_off_c, 0, 55, 95
2, 19200, Note_on_c, 0, 57, 95
2, 19440, Note_off_c, 0, 57, 95
2, 19440, Note_on_c, 0, 59, 95
2, 19680, Note_off_c, 0, 59, 95
2, 19680, Note_on_c, 0, 62, 95
2, 20160, Note_off_c, 0, 62, 95
2, 20160, Note_on_c, 0, 57, 95
2, 20880, Note_off_c, 0, 57, 95
2, 20880, Note_on_c, 0, 57, 95
2, 21120, Note_off_c, 0, 57, 95
2, 21120, Note_on_c, 0, 59, 95
2, 21360, Note_off_c, 0, 59, 95
2, 21360, Note_on_c, 0, 57, 95
2, 21600, Note_off_c, 0, 57, 95
2, 21600, Note_on_c, 0, 55, 95
2, 22080, Note_off_c, 0, 55, 95
2, 22080, Note_on_c, 0, 57, 95
2, 22320, Note_off_c, 0, 57, 95
2, 22320, Note_on_c, 0, 59, 95
2, 22560, Note_off_c, 0, 59, 95
2, 22560, Note_on_c, 0, 62, 95
2, 23040, Note_off_c, 0, 62, 95
2, 23040, Note_on_c, 0, 57, 95
2, 24960, Note_off_c, 0, 57, 95
2, 30720, Note_on_c, 0, 64, 95
2, 32160, Note_off_c, 0, 64, 95
2, 32160, Note_on_c, 0, 64, 95
2, 32400, Note_off_c, 0, 64, 95
2, 32400, Note_on_c, 0, 64, 95
2, 32640, Note_off_c, 0, 64, 95
2, 32640, Note_on_c, 0, 64, 95
2, 33600, Note_off_c, 0, 64, 95
2, 36000, Note_on_c, 0, 64, 95
2, 36240, Note_off_c, 0, 64, 95
2, 36240, Note_on_c, 0, 64, 95
2, 36480, Note_off_c, 0, 64, 95
2, 36480, Note_on_c, 0, 64, 95
2, 37200, Note_off_c, 0, 64, 95
2, 37200, Note_on_c, 0, 62, 95
2, 37920, Note_off_c, 0, 62, 95
2, 37920, Note_on_c, 0, 61, 95
2, 38400, Note_off_c, 0, 61, 95
2, 38400, Note_on_c, 0, 59, 95
2, 40320, Note_off_c, 0, 59, 95
2, 46080, Note_on_c, 0, 64, 95
2, 47520, Note_off_c, 0, 64, 95
2, 47520, Note_on_c, 0, 64, 95
2, 47760, Note_off_c, 0, 64, 95
2, 47760, Note_on_c, 0, 64, 95
2, 48000, Note_off_c, 0, 64, 95
2, 48000, Note_on_c, 0, 64, 95
2, 48960, Note_off_c, 0, 64, 95
2, 51360, Note_on_c, 0, 64, 95
2, 51600, Note_off_c, 0, 64, 95
2, 51600, Note_on_c, 0, 64, 95
2, 51840, Note_off_c, 0, 64, 95
2, 51840, Note_on_c, 0, 64, 95
2, 52560, Note_off_c, 0, 64, 95
2, 52560, Note_on_c, 0, 62, 95
2, 53280, Note_off_c, 0, 62, 95
2, 53280, Note_on_c, 0, 61, 95
2, 53760, Note_off_c, 0, 61, 95
2, 53760, Note_on_c, 0, 59, 95
2, 55680, Note_off_c, 0, 59, 95
2, 57600, Note_on_c, 0, 57, 95
2, 60480, Note_off_c, 0, 57, 95
2, 60480, Note_on_c, 0, 55, 95
2, 60840, Note_off_c, 0, 55, 95
2, 60960, Note_on_c, 0, 57, 95
2, 61200, Note_off_c, 0, 57, 95
2, 61200, Note_on_c, 0, 55, 95
2, 61440, Note_off_c, 0, 55, 95
2, 61440, Note_on_c, 0, 52, 95
2, 65280, Note_off_c, 0, 52, 95
2, 69120, Note_on_c, 0, 64, 95
2, 70080, Note_off_c, 0, 64, 95
2, 70080, Note_on_c, 0, 64, 95
2, 70800, Note_off_c, 0, 64, 95
2, 70800, Note_on_c, 0, 64, 95
2, 71040, Note_off_c, 0, 64, 95
2, 71040, Note_on_c, 0, 62, 95
2, 71280, Note_off_c, 0, 62, 95
2, 71280, Note_on_c, 0, 59, 95
2, 71520, Note_off_c, 0, 59, 95
2, 71520, Note_on_c, 0, 57, 95
2, 72000, Note_off_c, 0, 57, 95
2, 72000, Note_on_c, 0, 55, 95
2, 72960, Note_off_c, 0, 55, 95
2, 72960, Note_on_c, 0, 57, 95
2, 73200, Note_off_c, 0, 57, 95
2, 73200, Note_on_c, 0, 59, 95
2, 73440, Note_off_c, 0, 59, 95
2, 73440, Note_on_c, 0, 62, 95
2, 73920, Note_off_c, 0, 62, 95
2, 73920, Note_on_c, 0, 57, 95
2, 74640, Note_off_c, 0, 57, 95
2, 74640, Note_on_c, 0, 57, 95
2, 74880, Note_off_c, 0, 57, 95
2, 74880, Note_on_c, 0, 59, 95
2, 75120, Note_off_c, 0, 59, 95
2, 75120, Note_on_c, 0, 57, 95
2, 75360, Note_off_c, 0, 57, 95
2, 75360, Note_on_c, 0, 55, 95
2, 75840, Note_off_c, 0, 55, 95
2, 75840, Note_on_c, 0, 57, 95
2, 76080, Note_off_c, 0, 57, 95
2, 76080, Note_on_c, 0, 59, 95
2, 76320, Note_off_c, 0, 59, 95
2, 76320, Note_on_c, 0, 62, 95
2, 76800, Note_off_c, 0, 62, 95
2, 76800, Note_on_c, 0, 57, 95
2, 78720, Note_off_c, 0, 57, 95
2, 84480, Note_on_c, 0, 64, 95
2, 85440, Note_off_c, 0, 64, 95
2, 85440, Note_on_c, 0, 64, 95
2, 86160, Note_off_c, 0, 64, 95
2, 86160, Note_on_c, 0, 64, 95
2, 86400, Note_off_c, 0, 64, 95
2, 86400, Note_on_c, 0, 62, 95
2, 86640, Note_off_c, 0, 62, 95
2, 86640, Note_on_c, 0, 59, 95
2, 86880, Note_off_c, 0, 59, 95
2, 86880, Note_on_c, 0, 57, 95
2, 87360, Note_off_c, 0, 57, 95
2, 87360, Note_on_c, 0, 55, 95
2, 88320, Note_off_c, 0, 55, 95
2, 88320, Note_on_c, 0, 57, 95
2, 88560, Note_off_c, 0, 57, 95
2, 88560, Note_on_c, 0, 59, 95
2, 88800, Note_off_c, 0, 59, 95
2, 88800, Note_on_c, 0, 62, 95
2, 89280, Note_off_c, 0, 62, 95
2, 89280, Note_on_c, 0, 57, 95
2, 90000, Note_off_c, 0, 57, 95
2, 90000, Note_on_c, 0, 57, 95
2, 90240, Note_off_c, 0, 57, 95
2, 90240, Note_on_c, 0, 59, 95
2, 90480, Note_off_c, 0, 59, 95
2, 90480, Note_on_c, 0, 57, 95
2, 90720, Note_off_c, 0, 57, 95
2, 90720, Note_on_c, 0, 55, 95
2, 91200, Note_off_c, 0, 55, 95
2, 91200, Note_on_c, 0, 57, 95
2, 91440, Note_off_c, 0, 57, 95
2, 91440, Note_on_c, 0, 59, 95
2, 91680, Note_off_c, 0, 59, 95
2, 91680, Note_on_c, 0, 62, 95
2, 92160, Note_off_c, 0, 62, 95
2, 92160, Note_on_c, 0, 57, 95
2, 94080, Note_off_c, 0, 57, 95
2, 99840, Note_on_c, 0, 64, 95
2, 101280, Note_off_c, 0, 64, 95
2, 101280, Note_on_c, 0, 64, 95
2, 101520, Note_off_c, 0, 64, 95
2, 101520, Note_on_c, 0, 64, 95
2, 101760, Note_off_c, 0, 64, 95
2, 101760, Note_on_c, 0, 64, 95
2, 102720, Note_off_c, 0, 64, 95
2, 105120, Note_on_c, 0, 64, 95
2, 105360, Note_off_c, 0, 64, 95
2, 105360, Note_on_c, 0, 64, 95
2, 105600, Note_off_c, 0, 64, 95
2, 105600, Note_on_c, 0, 64, 95
2, 106320, Note_off_c, 0, 64, 95
2, 106320, Note_on_c, 0, 62, 95
2, 107040, Note_off_c, 0, 62, 95
2, 107040, Note_on_c, 0, 61, 95
2, 107520, Note_off_c, 0, 61, 95
2, 107520, Note_on_c, 0, 59, 95
2, 109440, Note_off_c, 0, 59, 95
2, 115200, Note_on_c, 0, 64, 95
2, 116640, Note_off_c, 0, 64, 95
2, 116640, Note_on_c, 0, 64, 95
2, 116880, Note_off_c, 0, 64, 95
2, 116880, Note_on_c, 0, 64, 95
2, 117120, Note_off_c, 0, 64, 95
2, 117120, Note_on_c, 0, 64, 95
2, 118080, Note_off_c, 0, 64, 95
2, 120480, Note_on_c, 0, 64, 95
2, 120720, Note_off_c, 0, 64, 95
2, 120720, Note_on_c, 0, 64, 95
2, 120960, Note_off_c, 0, 64, 95
2, 120960, Note_on_c, 0, 64, 95
2, 121680, Note_off_c, 0, 64, 95
2, 121680, Note_on_c, 0, 62, 95
2, 122400, Note_off_c, 0, 62, 95
2, 122400, Note_on_c, 0, 61, 95
2, 122880, Note_off_c, 0, 61, 95
2, 122880, Note_on_c, 0, 59, 95
2, 124800, Note_off_c, 0, 59, 95
2, 126720, Note_on_c, 0, 57, 95
2, 129240, Note_off_c, 0, 57, 95
2, 129600, Note_on_c, 0, 55, 95
2, 129960, Note_off_c, 0, 55, 95
2, 130080, Note_on_c, 0, 57, 95
2, 130320, Note_off_c, 0, 57, 95
2, 130320, Note_on_c, 0, 55, 95
2, 130560, Note_off_c, 0, 55, 95
2, 130560, Note_on_c, 0, 52, 95
2, 134400, Note_off_c, 0, 52, 95
2, 134400, End_track
3, 0, Start_track
3, 0, Pitch_bend_c, 2, 8192
3, 0, Control_c, 2, 7, 55
3, 0, Control_c, 2, 10, 63
3, 0, Control_c, 2, 93, 55
3, 0, Control_c, 2, 91, 0
3, 0, Control_c, 2, 95, 0
3, 0, Control_c, 2, 92, 15
3, 0, Control_c, 2, 11, 127
3, 0, Program_c, 2, 112
3, 0, Control_c, 3, 7, 55
3, 0, Control_c, 3, 10, 63
3, 0, Control_c, 3, 93, 55
3, 0, Control_c, 3, 91, 0
3, 0, Control_c, 3, 95, 0
3, 0, Control_c, 3, 92, 15
3, 0, Control_c, 3, 11, 127
3, 0, Program_c, 3, 112
3, 0, Note_on_c, 2, 64, 95
3, 960, Note_off_c, 2, 64, 95
3, 960, Note_on_c, 2, 64, 95
3, 1680, Note_off_c, 2, 64, 95
3, 1680, Note_on_c, 2, 64, 95
3, 1920, Note_off_c, 2, 64, 95
3, 1920, Note_on_c, 2, 62, 95
3, 2160, Note_off_c, 2, 62, 95
3, 2160, Note_on_c, 2, 59, 95
3, 2400, Note_off_c, 2, 59, 95
3, 2400, Note_on_c, 2, 57, 95
3, 2880, Note_off_c, 2, 57, 95
3, 2880, Note_on_c, 2, 55, 95
3, 3840, Note_off_c, 2, 55, 95
3, 3840, Note_on_c, 2, 57, 95
3, 4080, Note_off_c, 2, 57, 95
3, 4080, Note_on_c, 2, 59, 95
3, 4320, Note_off_c, 2, 59, 95
3, 4320, Note_on_c, 2, 62, 95
3, 4800, Note_off_c, 2, 62, 95
3, 4800, Note_on_c, 2, 57, 95
3, 5520, Note_off_c, 2, 57, 95
3, 5520, Note_on_c, 2, 57, 95
3, 5760, Note_off_c, 2, 57, 95
3, 5760, Note_on_c, 2, 59, 95
3, 6000, Note_off_c, 2, 59, 95
3, 6000, Note_on_c, 2, 57, 95
3, 6240, Note_off_c, 2, 57, 95
3, 6240, Note_on_c, 2, 55, 95
3, 6720, Note_off_c, 2, 55, 95
3, 6720, Note_on_c, 2, 57, 95
3, 6960, Note_off_c, 2, 57, 95
3, 6960, Note_on_c, 2, 59, 95
3, 7200, Note_off_c, 2, 59, 95
3, 7200, Note_on_c, 2, 62, 95
3, 7680, Note_off_c, 2, 62, 95
3, 7680, Note_on_c, 2, 57, 95
3, 9600, Note_off_c, 2, 57, 95
3, 15360, Note_on_c, 2, 64, 95
3, 16320, Note_off_c, 2, 64, 95
3, 16320, Note_on_c, 2, 64, 95
3, 17040, Note_off_c, 2, 64, 95
3, 17040, Note_on_c, 2, 64, 95
3, 17280, Note_off_c, 2, 64, 95
3, 17280, Note_on_c, 2, 62, 95
3, 17520, Note_off_c, 2, 62, 95
3, 17520, Note_on_c, 2, 59, 95
3, 17760, Note_off_c, 2, 59, 95
3, 17760, Note_on_c, 2, 57, 95
3, 18240, Note_off_c, 2, 57, 95
3, 18240, Note_on_c, 2, 55, 95
3, 19200, Note_off_c, 2, 55, 95
3, 19200, Note_on_c, 2, 57, 95
3, 19440, Note_off_c, 2, 57, 95
3, 19440, Note_on_c, 2, 59, 95
3, 19680, Note_off_c, 2, 59, 95
3, 19680, Note_on_c, 2, 62, 95
3, 20160, Note_off_c, 2, 62, 95
3, 20160, Note_on_c, 2, 57, 95
3, 20880, Note_off_c, 2, 57, 95
3, 20880, Note_on_c, 2, 57, 95
3, 21120, Note_off_c, 2, 57, 95
3, 21120, Note_on_c, 2, 59, 95
3, 21360, Note_off_c, 2, 59, 95
3, 21360, Note_on_c, 2, 57, 95
3, 21600, Note_off_c, 2, 57, 95
3, 21600, Note_on_c, 2, 55, 95
3, 22080, Note_off_c, 2, 55, 95
3, 22080, Note_on_c, 2, 57, 95
3, 22320, Note_off_c, 2, 57, 95
3, 22320, Note_on_c, 2, 59, 95
3, 22560, Note_off_c, 2, 59, 95
3, 22560, Note_on_c, 2, 62, 95
3, 23040, Note_off_c, 2, 62, 95
3, 23040, Note_on_c, 2, 57, 95
3, 24960, Note_off_c, 2, 57, 95
3, 30720, Note_on_c, 2, 64, 95
3, 32160, Note_off_c, 2, 64, 95
3, 32160, Note_on_c, 2, 64, 95
3, 32400, Note_off_c, 2, 64, 95
3, 32400, Note_on_c, 2, 64, 95
3, 32640, Note_off_c, 2, 64, 95
3, 32640, Note_on_c, 2, 64, 95
3, 33600, Note_off_c, 2, 64, 95
3, 36000, Note_on_c, 2, 64, 95
3, 36240, Note_off_c, 2, 64, 95
3, 36240, Note_on_c, 2, 64, 95
3, 36480, Note_off_c, 2, 64, 95
3, 36480, Note_on_c, 2, 64, 95
3, 37200, Note_off_c, 2, 64, 95
3, 37200, Note_on_c, 2, 62, 95
3, 37920, Note_off_c, 2, 62, 95
3, 37920, Note_on_c, 2, 61, 95
3, 38400, Note_off_c, 2, 61, 95
3, 38400, Note_on_c, 2, 59, 95
3, 40320, Note_off_c, 2, 59, 95
3, 46080, Note_on_c, 2, 64, 95
3, 47520, Note_off_c, 2, 64, 95
3, 47520, Note_on_c, 2, 64, 95
3, 47760, Note_off_c, 2, 64, 95
3, 47760, Note_on_c, 2, 64, 95
3, 48000, Note_off_c, 2, 64, 95
3, 48000, Note_on_c, 2, 64, 95
3, 48960, Note_off_c, 2, 64, 95
3, 51360, Note_on_c, 2, 64, 95
3, 51600, Note_off_c, 2, 64, 95
3, 51600, Note_on_c, 2, 64, 95
3, 51840, Note_off_c, 2, 64, 95
3, 51840, Note_on_c, 2, 64, 95
3, 52560, Note_off_c, 2, 64, 95
3, 52560, Note_on_c, 2, 62, 95
3, 53280, Note_off_c, 2, 62, 95
3, 53280, Note_on_c, 2, 61, 95
3, 53760, Note_off_c, 2, 61, 95
3, 53760, Note_on_c, 2, 59, 95
3, 55680, Note_off_c, 2, 59, 95
3, 57600, Note_on_c, 2, 57, 95
3, 60480, Note_off_c, 2, 57, 95
3, 60480, Note_on_c, 2, 55, 95
3, 60840, Note_off_c, 2, 55, 95
3, 60960, Note_on_c, 2, 57, 95
3, 61200, Note_off_c, 2, 57, 95
3, 61200, Note_on_c, 2, 55, 95
3, 61440, Note_off_c, 2, 55, 95
3, 61440, Note_on_c, 2, 52, 95
3, 65280, Note_off_c, 2, 52, 95
3, 69120, Note_on_c, 2, 64, 95
3, 70080, Note_off_c, 2, 64, 95
3, 70080, Note_on_c, 2, 64, 95
3, 70800, Note_off_c, 2, 64, 95
3, 70800, Note_on_c, 2, 64, 95
3, 71040, Note_off_c, 2, 64, 95
3, 71040, Note_on_c, 2, 62, 95
3, 71280, Note_off_c, 2, 62, 95
3, 71280, Note_on_c, 2, 59, 95
3, 71520, Note_off_c, 2, 59, 95
3, 71520, Note_on_c, 2, 57, 95
3, 72000, Note_off_c, 2, 57, 95
3, 72000, Note_on_c, 2, 55, 95
3, 72960, Note_off_c, 2, 55, 95
3, 72960, Note_on_c, 2, 57, 95
3, 73200, Note_off_c, 2, 57, 95
3, 73200, Note_on_c, 2, 59, 95
3, 73440, Note_off_c, 2, 59, 95
3, 73440, Note_on_c, 2, 62, 95
3, 73920, Note_off_c, 2, 62, 95
3, 73920, Note_on_c, 2, 57, 95
3, 74640, Note_off_c, 2, 57, 95
3, 74640, Note_on_c, 2, 57, 95
3, 74880, Note_off_c, 2, 57, 95
3, 74880, Note_on_c, 2, 59, 95
3, 75120, Note_off_c, 2, 59, 95
3, 75120, Note_on_c, 2, 57, 95
3, 75360, Note_off_c, 2, 57, 95
3, 75360, Note_on_c, 2, 55, 95
3, 75840, Note_off_c, 2, 55, 95
3, 75840, Note_on_c, 2, 57, 95
3, 76080, Note_off_c, 2, 57, 95
3, 76080, Note_on_c, 2, 59, 95
3, 76320, Note_off_c, 2, 59, 95
3, 76320, Note_on_c, 2, 62, 95
3, 76800, Note_off_c, 2, 62, 95
3, 76800, Note_on_c, 2, 57, 95
3, 78720, Note_off_c, 2, 57, 95
3, 84480, Note_on_c, 2, 64, 95
3, 85440, Note_off_c, 2, 64, 95
3, 85440, Note_on_c, 2, 64, 95
3, 86160, Note_off_c, 2, 64, 95
3, 86160, Note_on_c, 2, 64, 95
3, 86400, Note_off_c, 2, 64, 95
3, 86400, Note_on_c, 2, 62, 95
3, 86640, Note_off_c, 2, 62, 95
3, 86640, Note_on_c, 2, 59, 95
3, 86880, Note_off_c, 2, 59, 95
3, 86880, Note_on_c, 2, 57, 95
3, 87360, Note_off_c, 2, 57, 95
3, 87360, Note_on_c, 2, 55, 95
3, 88320, Note_off_c, 2, 55, 95
3, 88320, Note_on_c, 2, 57, 95
3, 88560, Note_off_c, 2, 57, 95
3, 88560, Note_on_c, 2, 59, 95
3, 88800, Note_off_c, 2, 59, 95
3, 88800, Note_on_c, 2, 62, 95
3, 89280, Note_off_c, 2, 62, 95
3, 89280, Note_on_c, 2, 57, 95
3, 90000, Note_off_c, 2, 57, 95
3, 90000, Note_on_c, 2, 57, 95
3, 90240, Note_off_c, 2, 57, 95
3, 90240, Note_on_c, 2, 59, 95
3, 90480, Note_off_c, 2, 59, 95
3, 90480, Note_on_c, 2, 57, 95
3, 90720, Note_off_c, 2, 57, 95
3, 90720, Note_on_c, 2, 55, 95
3, 91200, Note_off_c, 2, 55, 95
3, 91200, Note_on_c, 2, 57, 95
3, 91440, Note_off_c, 2, 57, 95
3, 91440, Note_on_c, 2, 59, 95
3, 91680, Note_off_c, 2, 59, 95
3, 91680, Note_on_c, 2, 62, 95
3, 92160, Note_off_c, 2, 62, 95
3, 92160, Note_on_c, 2, 57, 95
3, 94080, Note_off_c, 2, 57, 95
3, 99840, Note_on_c, 2, 64, 95
3, 101280, Note_off_c, 2, 64, 95
3, 101280, Note_on_c, 2, 64, 95
3, 101520, Note_off_c, 2, 64, 95
3, 101520, Note_on_c, 2, 64, 95
3, 101760, Note_off_c, 2, 64, 95
3, 101760, Note_on_c, 2, 64, 95
3, 102720, Note_off_c, 2, 64, 95
3, 105120, Note_on_c, 2, 64, 95
3, 105360, Note_off_c, 2, 64, 95
3, 105360, Note_on_c, 2, 64, 95
3, 105600, Note_off_c, 2, 64, 95
3, 105600, Note_on_c, 2, 64, 95
3, 106320, Note_off_c, 2, 64, 95
3, 106320, Note_on_c, 2, 62, 95
3, 107040, Note_off_c, 2, 62, 95
3, 107040, Note_on_c, 2, 61, 95
3, 107520, Note_off_c, 2, 61, 95
3, 107520, Note_on_c, 2, 59, 95
3, 109440, Note_off_c, 2, 59, 95
3, 115200, Note_on_c, 2, 64, 95
3, 116640, Note_off_c, 2, 64, 95
3, 116640, Note_on_c, 2, 64, 95
3, 116880, Note_off_c, 2, 64, 95
3, 116880, Note_on_c, 2, 64, 95
3, 117120, Note_off_c, 2, 64, 95
3, 117120, Note_on_c, 2, 64, 95
3, 118080, Note_off_c, 2, 64, 95
3, 120480, Note_on_c, 2, 64, 95
3, 120720, Note_off_c, 2, 64, 95
3, 120720, Note_on_c, 2, 64, 95
3, 120960, Note_off_c, 2, 64, 95
3, 120960, Note_on_c, 2, 64, 95
3, 121680, Note_off_c, 2, 64, 95
3, 121680, Note_on_c, 2, 62, 95
3, 122400, Note_off_c, 2, 62, 95
3, 122400, Note_on_c, 2, 61, 95
3, 122880, Note_off_c, 2, 61, 95
3, 122880, Note_on_c, 2, 59, 95
3, 124800, Note_off_c, 2, 59, 95
3, 126720, Note_on_c, 2, 57, 95
3, 129600, Note_off_c, 2, 57, 95
3, 129600, Note_on_c, 2, 55, 95
3, 129960, Note_off_c, 2, 55, 95
3, 130080, Note_on_c, 2, 57, 95
3, 130320, Note_off_c, 2, 57, 95
3, 130320, Note_on_c, 2, 55, 95
3, 130560, Note_off_c, 2, 55, 95
3, 130560, Note_on_c, 2, 52, 95
3, 134400, Note_off_c, 2, 52, 95
3, 134400, End_track
4, 0, Start_track
4, 0, Pitch_bend_c, 4, 8192
4, 0, Control_c, 4, 7, 87
4, 0, Control_c, 4, 10, 63
4, 0, Control_c, 4, 93, 0
4, 0, Control_c, 4, 91, 0
4, 0, Control_c, 4, 95, 0
4, 0, Control_c, 4, 92, 0
4, 0, Control_c, 4, 11, 127
4, 0, Program_c, 4, 32
4, 0, Control_c, 5, 7, 87
4, 0, Control_c, 5, 10, 63
4, 0, Control_c, 5, 93, 0
4, 0, Control_c, 5, 91, 0
4, 0, Control_c, 5, 95, 0
4, 0, Control_c, 5, 92, 0
4, 0, Control_c, 5, 11, 127
4, 0, Program_c, 5, 32
4, 0, Note_on_c, 4, 40, 95
4, 960, Note_off_c, 4, 40, 95
4, 960, Note_on_c, 4, 40, 95
4, 1680, Note_off_c, 4, 40, 95
4, 1680, Note_on_c, 4, 40, 95
4, 1920, Note_off_c, 4, 40, 95
4, 1920, Note_on_c, 4, 38, 95
4, 2160, Note_off_c, 4, 38, 95
4, 2160, Note_on_c, 4, 35, 95
4, 2400, Note_off_c, 4, 35, 95
4, 2400, Note_on_c, 4, 33, 95
4, 2880, Note_off_c, 4, 33, 95
4, 2880, Note_on_c, 4, 31, 95
4, 3840, Note_off_c, 4, 31, 95
4, 3840, Note_on_c, 4, 33, 95
4, 4080, Note_off_c, 4, 33, 95
4, 4080, Note_on_c, 4, 35, 95
4, 4320, Note_off_c, 4, 35, 95
4, 4320, Note_on_c, 4, 38, 95
4, 4800, Note_off_c, 4, 38, 95
4, 4800, Note_on_c, 4, 33, 95
4, 5520, Note_off_c, 4, 33, 95
4, 5520, Note_on_c, 4, 33, 95
4, 5760, Note_off_c, 4, 33, 95
4, 5760, Note_on_c, 4, 35, 95
4, 6000, Note_off_c, 4, 35, 95
4, 6000, Note_on_c, 4, 41, 95
4, 6240, Note_off_c, 4, 41, 95
4, 6240, Note_on_c, 4, 31, 95
4, 6720, Note_off_c, 4, 31, 95
4, 6720, Note_on_c, 4, 33, 95
4, 6960, Note_off_c, 4, 33, 95
4, 6960, Note_on_c, 4, 35, 95
4, 7200, Note_off_c, 4, 35, 95
4, 7200, Note_on_c, 4, 38, 95
4, 7680, Note_off_c, 4, 38, 95
4, 7680, Note_on_c, 4, 33, 95
4, 8160, Note_off_c, 4, 33, 95
4, 8160, Note_on_c, 4, 33, 95
4, 8640, Note_off_c, 4, 33, 95
4, 8640, Note_on_c, 4, 33, 95
4, 9120, Note_off_c, 4, 33, 95
4, 9120, Note_on_c, 4, 33, 95
4, 9600, Note_off_c, 4, 33, 95
4, 9600, Note_on_c, 4, 33, 95
4, 10080, Note_off_c, 4, 33, 95
4, 10080, Note_on_c, 4, 33, 95
4, 10560, Note_off_c, 4, 33, 95
4, 10560, Note_on_c, 4, 33, 95
4, 11040, Note_off_c, 4, 33, 95
4, 11040, Note_on_c, 4, 33, 95
4, 11520, Note_off_c, 4, 33, 95
4, 11520, Note_on_c, 4, 33, 95
4, 12000, Note_off_c, 4, 33, 95
4, 12000, Note_on_c, 4, 33, 95
4, 12480, Note_off_c, 4, 33, 95
4, 12480, Note_on_c, 4, 33, 95
4, 12960, Note_off_c, 4, 33, 95
4, 12960, Note_on_c, 4, 33, 95
4, 13440, Note_off_c, 4, 33, 95
4, 13440, Note_on_c, 4, 33, 95
4, 13920, Note_off_c, 4, 33, 95
4, 13920, Note_on_c, 4, 33, 95
4, 14400, Note_off_c, 4, 33, 95
4, 14400, Note_on_c, 4, 33, 95
4, 14880, Note_off_c, 4, 33, 95
4, 14880, Note_on_c, 4, 33, 95
4, 15360, Note_off_c, 4, 33, 95
4, 15360, Note_on_c, 4, 40, 95
4, 16320, Note_off_c, 4, 40, 95
4, 16320, Note_on_c, 4, 40, 95
4, 17040, Note_off_c, 4, 40, 95
4, 17040, Note_on_c, 4, 40, 95
4, 17280, Note_off_c, 4, 40, 95
4, 17280, Note_on_c, 4, 38, 95
4, 17520, Note_off_c, 4, 38, 95
4, 17520, Note_on_c, 4, 35, 95
4, 17760, Note_off_c, 4, 35, 95
4, 17760, Note_on_c, 4, 33, 95
4, 18240, Note_off_c, 4, 33, 95
4, 18240, Note_on_c, 4, 31, 95
4, 19200, Note_off_c, 4, 31, 95
4, 19200, Note_on_c, 4, 33, 95
4, 19440, Note_off_c, 4, 33, 95
4, 19440, Note_on_c, 4, 35, 95
4, 19680, Note_off_c, 4, 35, 95
4, 19680, Note_on_c, 4, 38, 95
4, 20160, Note_off_c, 4, 38, 95
4, 20160, Note_on_c, 4, 33, 95
4, 20880, Note_off_c, 4, 33, 95
4, 20880, Note_on_c, 4, 33, 95
4, 21120, Note_off_c, 4, 33, 95
4, 21120, Note_on_c, 4, 35, 95
4, 21360, Note_off_c, 4, 35, 95
4, 21360, Note_on_c, 4, 41, 95
4, 21600, Note_off_c, 4, 41, 95
4, 21600, Note_on_c, 4, 31, 95
4, 22080, Note_off_c, 4, 31, 95
4, 22080, Note_on_c, 4, 33, 95
4, 22320, Note_off_c, 4, 33, 95
4, 22320, Note_on_c, 4, 35, 95
4, 22560, Note_off_c, 4, 35, 95
4, 22560, Note_on_c, 4, 38, 95
4, 23040, Note_off_c, 4, 38, 95
4, 23040, Note_on_c, 4, 33, 95
4, 23520, Note_off_c, 4, 33, 95
4, 23520, Note_on_c, 4, 33, 95
4, 24000, Note_off_c, 4, 33, 95
4, 24000, Note_on_c, 4, 33, 95
4, 24480, Note_off_c, 4, 33, 95
4, 24480, Note_on_c, 4, 33, 95
4, 24960, Note_off_c, 4, 33, 95
4, 24960, Note_on_c, 4, 33, 95
4, 25440, Note_off_c, 4, 33, 95
4, 25440, Note_on_c, 4, 33, 95
4, 25920, Note_off_c, 4, 33, 95
4, 25920, Note_on_c, 4, 33, 95
4, 26400, Note_off_c, 4, 33, 95
4, 26400, Note_on_c, 4, 33, 95
4, 26880, Note_off_c, 4, 33, 95
4, 26880, Note_on_c, 4, 33, 95
4, 27360, Note_off_c, 4, 33, 95
4, 27360, Note_on_c, 4, 33, 95
4, 27840, Note_off_c, 4, 33, 95
4, 27840, Note_on_c, 4, 33, 95
4, 28320, Note_off_c, 4, 33, 95
4, 28320, Note_on_c, 4, 33, 95
4, 28800, Note_off_c, 4, 33, 95
4, 28800, Note_on_c, 4, 33, 95
4, 29280, Note_off_c, 4, 33, 95
4, 29280, Note_on_c, 4, 33, 95
4, 29760, Note_off_c, 4, 33, 95
4, 29760, Note_on_c, 4, 33, 95
4, 30240, Note_off_c, 4, 33, 95
4, 30240, Note_on_c, 4, 33, 95
4, 30720, Note_off_c, 4, 33, 95
4, 30720, Note_on_c, 4, 40, 95
4, 31680, Note_off_c, 4, 40, 95
4, 32160, Note_on_c, 4, 40, 95
4, 32400, Note_off_c, 4, 40, 95
4, 32400, Note_on_c, 4, 40, 95
4, 32640, Note_off_c, 4, 40, 95
4, 32640, Note_on_c, 4, 40, 95
4, 34560, Note_off_c, 4, 40, 95
4, 36000, Note_on_c, 4, 40, 95
4, 36240, Note_off_c, 4, 40, 95
4, 36240, Note_on_c, 4, 40, 95
4, 36480, Note_off_c, 4, 40, 95
4, 36480, Note_on_c, 4, 40, 95
4, 37200, Note_off_c, 4, 40, 95
4, 37200, Note_on_c, 4, 38, 95
4, 37920, Note_off_c, 4, 38, 95
4, 37920, Note_on_c, 4, 37, 95
4, 38400, Note_off_c, 4, 37, 95
4, 38400, Note_on_c, 4, 35, 95
4, 38880, Note_off_c, 4, 35, 95
4, 38880, Note_on_c, 4, 35, 95
4, 39360, Note_off_c, 4, 35, 95
4, 39360, Note_on_c, 4, 35, 95
4, 39840, Note_off_c, 4, 35, 95
4, 39840, Note_on_c, 4, 35, 95
4, 40320, Note_off_c, 4, 35, 95
4, 40320, Note_on_c, 4, 35, 95
4, 40800, Note_off_c, 4, 35, 95
4, 40800, Note_on_c, 4, 35, 95
4, 41280, Note_off_c, 4, 35, 95
4, 41280, Note_on_c, 4, 35, 95
4, 41760, Note_off_c, 4, 35, 95
4, 41760, Note_on_c, 4, 35, 95
4, 42240, Note_off_c, 4, 35, 95
4, 42240, Note_on_c, 4, 35, 95
4, 42720, Note_off_c, 4, 35, 95
4, 42720, Note_on_c, 4, 35, 95
4, 43200, Note_off_c, 4, 35, 95
4, 43200, Note_on_c, 4, 35, 95
4, 43680, Note_off_c, 4, 35, 95
4, 43680, Note_on_c, 4, 35, 95
4, 44160, Note_off_c, 4, 35, 95
4, 44160, Note_on_c, 4, 35, 95
4, 44640, Note_off_c, 4, 35, 95
4, 44640, Note_on_c, 4, 35, 95
4, 45120, Note_off_c, 4, 35, 95
4, 45120, Note_on_c, 4, 35, 95
4, 45600, Note_off_c, 4, 35, 95
4, 45600, Note_on_c, 4, 35, 95
4, 46080, Note_off_c, 4, 35, 95
4, 46080, Note_on_c, 4, 40, 95
4, 47040, Note_off_c, 4, 40, 95
4, 47520, Note_on_c, 4, 40, 95
4, 47760, Note_off_c, 4, 40, 95
4, 47760, Note_on_c, 4, 40, 95
4, 48000, Note_off_c, 4, 40, 95
4, 48000, Note_on_c, 4, 40, 95
4, 49920, Note_off_c, 4, 40, 95
4, 51360, Note_on_c, 4, 40, 95
4, 51600, Note_off_c, 4, 40, 95
4, 51600, Note_on_c, 4, 40, 95
4, 51840, Note_off_c, 4, 40, 95
4, 51840, Note_on_c, 4, 40, 95
4, 52560, Note_off_c, 4, 40, 95
4, 52560, Note_on_c, 4, 38, 95
4, 53280, Note_off_c, 4, 38, 95
4, 53280, Note_on_c, 4, 37, 95
4, 53760, Note_off_c, 4, 37, 95
4, 53760, Note_on_c, 4, 35, 95
4, 54240, Note_off_c, 4, 35, 95
4, 54240, Note_on_c, 4, 35, 95
4, 54720, Note_off_c, 4, 35, 95
4, 54720, Note_on_c, 4, 35, 95
4, 55200, Note_off_c, 4, 35, 95
4, 55200, Note_on_c, 4, 35, 95
4, 55680, Note_off_c, 4, 35, 95
4, 55680, Note_on_c, 4, 35, 95
4, 56160, Note_off_c, 4, 35, 95
4, 56160, Note_on_c, 4, 35, 95
4, 56640, Note_off_c, 4, 35, 95
4, 56640, Note_on_c, 4, 35, 95
4, 57120, Note_off_c, 4, 35, 95
4, 57120, Note_on_c, 4, 35, 95
4, 57600, Note_off_c, 4, 35, 95
4, 57600, Note_on_c, 4, 33, 95
4, 58080, Note_off_c, 4, 33, 95
4, 58080, Note_on_c, 4, 33, 95
4, 58560, Note_off_c, 4, 33, 95
4, 58560, Note_on_c, 4, 33, 95
4, 59040, Note_off_c, 4, 33, 95
4, 59040, Note_on_c, 4, 33, 95
4, 59520, Note_off_c, 4, 33, 95
4, 59520, Note_on_c, 4, 33, 95
4, 60000, Note_off_c, 4, 33, 95
4, 60000, Note_on_c, 4, 33, 95
4, 60480, Note_off_c, 4, 33, 95
4, 60480, Note_on_c, 4, 31, 95
4, 60960, Note_off_c, 4, 31, 95
4, 60960, Note_on_c, 4, 33, 95
4, 61200, Note_off_c, 4, 33, 95
4, 61200, Note_on_c, 4, 31, 95
4, 61440, Note_off_c, 4, 31, 95
4, 61440, Note_on_c, 4, 40, 95
4, 61920, Note_off_c, 4, 40, 95
4, 61920, Note_on_c, 4, 40, 95
4, 62400, Note_off_c, 4, 40, 95
4, 62400, Note_on_c, 4, 40, 95
4, 62880, Note_off_c, 4, 40, 95
4, 62880, Note_on_c, 4, 40, 95
4, 63360, Note_off_c, 4, 40, 95
4, 63360, Note_on_c, 4, 40, 95
4, 63840, Note_off_c, 4, 40, 95
4, 63840, Note_on_c, 4, 40, 95
4, 64320, Note_off_c, 4, 40, 95
4, 64320, Note_on_c, 4, 40, 95
4, 64800, Note_off_c, 4, 40, 95
4, 64800, Note_on_c, 4, 40, 95
4, 65280, Note_off_c, 4, 40, 95
4, 65280, Note_on_c, 4, 40, 95
4, 65760, Note_off_c, 4, 40, 95
4, 65760, Note_on_c, 4, 40, 95
4, 66240, Note_off_c, 4, 40, 95
4, 66240, Note_on_c, 4, 40, 95
4, 66720, Note_off_c, 4, 40, 95
4, 66720, Note_on_c, 4, 40, 95
4, 67200, Note_off_c, 4, 40, 95
4, 67200, Note_on_c, 4, 40, 95
4, 67680, Note_off_c, 4, 40, 95
4, 67680, Note_on_c, 4, 40, 95
4, 68160, Note_off_c, 4, 40, 95
4, 68160, Note_on_c, 4, 40, 95
4, 68640, Note_off_c, 4, 40, 95
4, 68640, Note_on_c, 4, 40, 95
4, 69120, Note_off_c, 4, 40, 95
4, 69120, Note_on_c, 4, 40, 95
4, 70080, Note_off_c, 4, 40, 95
4, 70080, Note_on_c, 4, 40, 95
4, 70800, Note_off_c, 4, 40, 95
4, 70800, Note_on_c, 4, 40, 95
4, 71040, Note_off_c, 4, 40, 95
4, 71040, Note_on_c, 4, 38, 95
4, 71280, Note_off_c, 4, 38, 95
4, 71280, Note_on_c, 4, 35, 95
4, 71520, Note_off_c, 4, 35, 95
4, 71520, Note_on_c, 4, 33, 95
4, 72000, Note_off_c, 4, 33, 95
4, 72000, Note_on_c, 4, 31, 95
4, 72960, Note_off_c, 4, 31, 95
4, 72960, Note_on_c, 4, 33, 95
4, 73200, Note_off_c, 4, 33, 95
4, 73200, Note_on_c, 4, 35, 95
4, 73440, Note_off_c, 4, 35, 95
4, 73440, Note_on_c, 4, 38, 95
4, 73920, Note_off_c, 4, 38, 95
4, 73920, Note_on_c, 4, 33, 95
4, 74640, Note_off_c, 4, 33, 95
4, 74640, Note_on_c, 4, 33, 95
4, 74880, Note_off_c, 4, 33, 95
4, 74880, Note_on_c, 4, 35, 95
4, 75120, Note_off_c, 4, 35, 95
4, 75120, Note_on_c, 4, 41, 95
4, 75360, Note_off_c, 4, 41, 95
4, 75360, Note_on_c, 4, 31, 95
4, 75840, Note_off_c, 4, 31, 95
4, 75840, Note_on_c, 4, 33, 95
4, 76080, Note_off_c, 4, 33, 95
4, 76080, Note_on_c, 4, 35, 95
4, 76320, Note_off_c, 4, 35, 95
4, 76320, Note_on_c, 4, 38, 95
4, 76800, Note_off_c, 4, 38, 95
4, 76800, Note_on_c, 4, 33, 95
4, 77280, Note_off_c, 4, 33, 95
4, 77280, Note_on_c, 4, 33, 95
4, 77760, Note_off_c, 4, 33, 95
4, 77760, Note_on_c, 4, 33, 95
4, 78240, Note_off_c, 4, 33, 95
4, 78240, Note_on_c, 4, 33, 95
4, 78720, Note_off_c, 4, 33, 95
4, 78720, Note_on_c, 4, 33, 95
4, 79200, Note_off_c, 4, 33, 95
4, 79200, Note_on_c, 4, 33, 95
4, 79680, Note_off_c, 4, 33, 95
4, 79680, Note_on_c, 4, 33, 95
4, 80160, Note_off_c, 4, 33, 95
4, 80160, Note_on_c, 4, 33, 95
4, 80640, Note_off_c, 4, 33, 95
4, 80640, Note_on_c, 4, 33, 95
4, 81120, Note_off_c, 4, 33, 95
4, 81120, Note_on_c, 4, 33, 95
4, 81600, Note_off_c, 4, 33, 95
4, 81600, Note_on_c, 4, 33, 95
4, 82080, Note_off_c, 4, 33, 95
4, 82080, Note_on_c, 4, 33, 95
4, 82560, Note_off_c, 4, 33, 95
4, 82560, Note_on_c, 4, 33, 95
4, 83040, Note_off_c, 4, 33, 95
4, 83040, Note_on_c, 4, 33, 95
4, 83520, Note_off_c, 4, 33, 95
4, 83520, Note_on_c, 4, 33, 95
4, 84000, Note_off_c, 4, 33, 95
4, 84000, Note_on_c, 4, 33, 95
4, 84480, Note_off_c, 4, 33, 95
4, 84480, Note_on_c, 4, 40, 95
4, 85440, Note_off_c, 4, 40, 95
4, 85440, Note_on_c, 4, 40, 95
4, 86160, Note_off_c, 4, 40, 95
4, 86160, Note_on_c, 4, 40, 95
4, 86400, Note_off_c, 4, 40, 95
4, 86400, Note_on_c, 4, 38, 95
4, 86640, Note_off_c, 4, 38, 95
4, 86640, Note_on_c, 4, 35, 95
4, 86880, Note_off_c, 4, 35, 95
4, 86880, Note_on_c, 4, 33, 95
4, 87360, Note_off_c, 4, 33, 95
4, 87360, Note_on_c, 4, 31, 95
4, 88320, Note_off_c, 4, 31, 95
4, 88320, Note_on_c, 4, 33, 95
4, 88560, Note_off_c, 4, 33, 95
4, 88560, Note_on_c, 4, 35, 95
4, 88800, Note_off_c, 4, 35, 95
4, 88800, Note_on_c, 4, 38, 95
4, 89280, Note_off_c, 4, 38, 95
4, 89280, Note_on_c, 4, 33, 95
4, 90000, Note_off_c, 4, 33, 95
4, 90000, Note_on_c, 4, 33, 95
4, 90240, Note_off_c, 4, 33, 95
4, 90240, Note_on_c, 4, 35, 95
4, 90480, Note_off_c, 4, 35, 95
4, 90480, Note_on_c, 4, 41, 95
4, 90720, Note_off_c, 4, 41, 95
4, 90720, Note_on_c, 4, 31, 95
4, 91200, Note_off_c, 4, 31, 95
4, 91200, Note_on_c, 4, 33, 95
4, 91440, Note_off_c, 4, 33, 95
4, 91440, Note_on_c, 4, 35, 95
4, 91680, Note_off_c, 4, 35, 95
4, 91680, Note_on_c, 4, 38, 95
4, 92160, Note_off_c, 4, 38, 95
4, 92160, Note_on_c, 4, 33, 95
4, 92640, Note_off_c, 4, 33, 95
4, 92640, Note_on_c, 4, 33, 95
4, 93120, Note_off_c, 4, 33, 95
4, 93120, Note_on_c, 4, 33, 95
4, 93600, Note_off_c, 4, 33, 95
4, 93600, Note_on_c, 4, 33, 95
4, 94080, Note_off_c, 4, 33, 95
4, 94080, Note_on_c, 4, 33, 95
4, 94560, Note_off_c, 4, 33, 95
4, 94560, Note_on_c, 4, 33, 95
4, 95040, Note_off_c, 4, 33, 95
4, 95040, Note_on_c, 4, 33, 95
4, 95520, Note_off_c, 4, 33, 95
4, 95520, Note_on_c, 4, 33, 95
4, 96000, Note_off_c, 4, 33, 95
4, 96000, Note_on_c, 4, 33, 95
4, 96480, Note_off_c, 4, 33, 95
4, 96480, Note_on_c, 4, 33, 95
4, 96960, Note_off_c, 4, 33, 95
4, 96960, Note_on_c, 4, 33, 95
4, 97440, Note_off_c, 4, 33, 95
4, 97440, Note_on_c, 4, 33, 95
4, 97920, Note_off_c, 4, 33, 95
4, 97920, Note_on_c, 4, 33, 95
4, 98400, Note_off_c, 4, 33, 95
4, 98400, Note_on_c, 4, 33, 95
4, 98880, Note_off_c, 4, 33, 95
4, 98880, Note_on_c, 4, 33, 95
4, 99360, Note_off_c, 4, 33, 95
4, 99360, Note_on_c, 4, 33, 95
4, 99840, Note_off_c, 4, 33, 95
4, 99840, Note_on_c, 4, 40, 95
4, 100800, Note_off_c, 4, 40, 95
4, 101280, Note_on_c, 4, 40, 95
4, 101520, Note_off_c, 4, 40, 95
4, 101520, Note_on_c, 4, 40, 95
4, 101760, Note_off_c, 4, 40, 95
4, 101760, Note_on_c, 4, 40, 95
4, 103680, Note_off_c, 4, 40, 95
4, 105120, Note_on_c, 4, 40, 95
4, 105360, Note_off_c, 4, 40, 95
4, 105360, Note_on_c, 4, 40, 95
4, 105600, Note_off_c, 4, 40, 95
4, 105600, Note_on_c, 4, 40, 95
4, 106320, Note_off_c, 4, 40, 95
4, 106320, Note_on_c, 4, 38, 95
4, 107040, Note_off_c, 4, 38, 95
4, 107040, Note_on_c, 4, 37, 95
4, 107520, Note_off_c, 4, 37, 95
4, 107520, Note_on_c, 4, 35, 95
4, 108000, Note_off_c, 4, 35, 95
4, 108000, Note_on_c, 4, 35, 95
4, 108480, Note_off_c, 4, 35, 95
4, 108480, Note_on_c, 4, 35, 95
4, 108960, Note_off_c, 4, 35, 95
4, 108960, Note_on_c, 4, 35, 95
4, 109440, Note_off_c, 4, 35, 95
4, 109440, Note_on_c, 4, 35, 95
4, 109920, Note_off_c, 4, 35, 95
4, 109920, Note_on_c, 4, 35, 95
4, 110400, Note_off_c, 4, 35, 95
4, 110400, Note_on_c, 4, 35, 95
4, 110880, Note_off_c, 4, 35, 95
4, 110880, Note_on_c, 4, 35, 95
4, 111360, Note_off_c, 4, 35, 95
4, 111360, Note_on_c, 4, 35, 95
4, 111840, Note_off_c, 4, 35, 95
4, 111840, Note_on_c, 4, 35, 95
4, 112320, Note_off_c, 4, 35, 95
4, 112320, Note_on_c, 4, 35, 95
4, 112800, Note_off_c, 4, 35, 95
4, 112800, Note_on_c, 4, 35, 95
4, 113280, Note_off_c, 4, 35, 95
4, 113280, Note_on_c, 4, 35, 95
4, 113760, Note_off_c, 4, 35, 95
4, 113760, Note_on_c, 4, 35, 95
4, 114240, Note_off_c, 4, 35, 95
4, 114240, Note_on_c, 4, 35, 95
4, 114720, Note_off_c, 4, 35, 95
4, 114720, Note_on_c, 4, 35, 95
4, 115200, Note_off_c, 4, 35, 95
4, 115200, Note_on_c, 4, 40, 95
4, 116160, Note_off_c, 4, 40, 95
4, 116640, Note_on_c, 4, 40, 95
4, 116880, Note_off_c, 4, 40, 95
4, 116880, Note_on_c, 4, 40, 95
4, 117120, Note_off_c, 4, 40, 95
4, 117120, Note_on_c, 4, 40, 95
4, 119040, Note_off_c, 4, 40, 95
4, 120480, Note_on_c, 4, 40, 95
4, 120720, Note_off_c, 4, 40, 95
4, 120720, Note_on_c, 4, 40, 95
4, 120960, Note_off_c, 4, 40, 95
4, 120960, Note_on_c, 4, 40, 95
4, 121680, Note_off_c, 4, 40, 95
4, 121680, Note_on_c, 4, 38, 95
4, 122400, Note_off_c, 4, 38, 95
4, 122400, Note_on_c, 4, 37, 95
4, 122880, Note_off_c, 4, 37, 95
4, 122880, Note_on_c, 4, 35, 95
4, 123360, Note_off_c, 4, 35, 95
4, 123360, Note_on_c, 4, 35, 95
4, 123840, Note_off_c, 4, 35, 95
4, 123840, Note_on_c, 4, 35, 95
4, 124320, Note_off_c, 4, 35, 95
4, 124320, Note_on_c, 4, 35, 95
4, 124800, Note_off_c, 4, 35, 95
4, 124800, Note_on_c, 4, 35, 95
4, 125280, Note_off_c, 4, 35, 95
4, 125280, Note_on_c, 4, 35, 95
4, 125760, Note_off_c, 4, 35, 95
4, 125760, Note_on_c, 4, 35, 95
4, 126240, Note_off_c, 4, 35, 95
4, 126240, Note_on_c, 4, 35, 95
4, 126720, Note_off_c, 4, 35, 95
4, 126720, Note_on_c, 4, 33, 95
4, 127200, Note_off_c, 4, 33, 95
4, 127200, Note_on_c, 4, 33, 95
4, 127680, Note_off_c, 4, 33, 95
4, 127680, Note_on_c, 4, 33, 95
4, 128160, Note_off_c, 4, 33, 95
4, 128160, Note_on_c, 4, 33, 95
4, 128640, Note_off_c, 4, 33, 95
4, 128640, Note_on_c, 4, 33, 95
4, 129120, Note_off_c, 4, 33, 95
4, 129120, Note_on_c, 4, 33, 95
4, 129600, Note_off_c, 4, 33, 95
4, 129600, Note_on_c, 4, 31, 95
4, 130080, Note_off_c, 4, 31, 95
4, 130080, Note_on_c, 4, 33, 95
4, 130320, Note_off_c, 4, 33, 95
4, 130320, Note_on_c, 4, 31, 95
4, 130560, Note_off_c, 4, 31, 95
4, 130560, Note_on_c, 4, 40, 95
4, 131040, Note_off_c, 4, 40, 95
4, 131040, Note_on_c, 4, 40, 95
4, 131520, Note_off_c, 4, 40, 95
4, 131520, Note_on_c, 4, 40, 95
4, 132000, Note_off_c, 4, 40, 95
4, 132000, Note_on_c, 4, 40, 95
4, 132480, Note_off_c, 4, 40, 95
4, 132480, Note_on_c, 4, 40, 95
4, 132960, Note_off_c, 4, 40, 95
4, 132960, Note_on_c, 4, 40, 95
4, 133440, Note_off_c, 4, 40, 95
4, 133440, Note_on_c, 4, 40, 95
4, 133920, Note_off_c, 4, 40, 95
4, 133920, Note_on_c, 4, 40, 95
4, 134400, Note_off_c, 4, 40, 95
4, 134400, Note_on_c, 4, 40, 95
4, 134880, Note_off_c, 4, 40, 95
4, 134880, Note_on_c, 4, 40, 95
4, 135360, Note_off_c, 4, 40, 95
4, 135360, Note_on_c, 4, 40, 95
4, 135840, Note_off_c, 4, 40, 95
4, 135840, Note_on_c, 4, 40, 95
4, 136320, Note_off_c, 4, 40, 95
4, 136320, Note_on_c, 4, 40, 95
4, 136800, Note_off_c, 4, 40, 95
4, 136800, End_track
5, 0, Start_track
5, 0, Pitch_bend_c, 6, 8192
5, 0, Control_c, 6, 7, 63
5, 0, Control_c, 6, 10, 63
5, 0, Control_c, 6, 93, 0
5, 0, Control_c, 6, 91, 0
5, 0, Control_c, 6, 95, 0
5, 0, Control_c, 6, 92, 0
5, 0, Control_c, 6, 11, 127
5, 0, Program_c, 6, 8
5, 0, Control_c, 7, 7, 63
5, 0, Control_c, 7, 10, 63
5, 0, Control_c, 7, 93, 0
5, 0, Control_c, 7, 91, 0
5, 0, Control_c, 7, 95, 0
5, 0, Control_c, 7, 92, 0
5, 0, Control_c, 7, 11, 127
5, 0, Program_c, 7, 8
5, 38400, Note_on_c, 6, 71, 95
5, 38640, Note_off_c, 6, 71, 95
5, 38640, Note_on_c, 6, 63, 95
5, 38880, Note_off_c, 6, 63, 95
5, 38880, Note_on_c, 6, 66, 95
5, 39120, Note_off_c, 6, 66, 95
5, 39120, Note_on_c, 6, 63, 95
5, 39360, Note_off_c, 6, 63, 95
5, 39360, Note_on_c, 6, 59, 95
5, 39600, Note_off_c, 6, 59, 95
5, 39600, Note_on_c, 6, 63, 95
5, 39840, Note_off_c, 6, 63, 95
5, 39840, Note_on_c, 6, 66, 95
5, 40080, Note_off_c, 6, 66, 95
5, 40080, Note_on_c, 6, 63, 95
5, 40320, Note_off_c, 6, 63, 95
5, 40320, Note_on_c, 6, 59, 95
5, 40560, Note_off_c, 6, 59, 95
5, 40560, Note_on_c, 6, 63, 95
5, 40800, Note_off_c, 6, 63, 95
5, 40800, Note_on_c, 6, 66, 95
5, 41040, Note_off_c, 6, 66, 95
5, 41040, Note_on_c, 6, 63, 95
5, 41280, Note_off_c, 6, 63, 95
5, 41280, Note_on_c, 6, 59, 95
5, 41520, Note_off_c, 6, 59, 95
5, 41520, Note_on_c, 6, 63, 95
5, 41760, Note_off_c, 6, 63, 95
5, 41760, Note_on_c, 6, 66, 95
5, 42000, Note_off_c, 6, 66, 95
5, 42000, Note_on_c, 6, 63, 95
5, 42240, Note_off_c, 6, 63, 95
5, 42240, Note_on_c, 6, 59, 95
5, 42480, Note_off_c, 6, 59, 95
5, 42480, Note_on_c, 6, 63, 95
5, 42720, Note_off_c, 6, 63, 95
5, 42720, Note_on_c, 6, 66, 95
5, 42960, Note_off_c, 6, 66, 95
5, 42960, Note_on_c, 6, 63, 95
5, 43200, Note_off_c, 6, 63, 95
5, 43200, Note_on_c, 6, 59, 95
5, 43440, Note_off_c, 6, 59, 95
5, 43440, Note_on_c, 6, 63, 95
5, 43680, Note_off_c, 6, 63, 95
5, 43680, Note_on_c, 6, 66, 95
5, 43920, Note_off_c, 6, 66, 95
5, 43920, Note_on_c, 6, 63, 95
5, 44160, Note_off_c, 6, 63, 95
5, 44160, Note_on_c, 6, 59, 95
5, 44400, Note_off_c, 6, 59, 95
5, 44400, Note_on_c, 6, 63, 95
5, 44640, Note_off_c, 6, 63, 95
5, 44640, Note_on_c, 6, 66, 95
5, 44880, Note_off_c, 6, 66, 95
5, 44880, Note_on_c, 6, 63, 95
5, 45120, Note_off_c, 6, 63, 95
5, 45120, Note_on_c, 6, 59, 95
5, 45360, Note_off_c, 6, 59, 95
5, 45360, Note_on_c, 6, 63, 95
5, 45600, Note_off_c, 6, 63, 95
5, 45600, Note_on_c, 6, 66, 95
5, 45840, Note_off_c, 6, 66, 95
5, 45840, Note_on_c, 6, 63, 95
5, 46080, Note_off_c, 6, 63, 95
5, 61440, Note_on_c, 6, 64, 95
5, 62400, Note_off_c, 6, 64, 95
5, 63360, Note_on_c, 6, 64, 95
5, 64320, Note_off_c, 6, 64, 95
5, 65280, Note_on_c, 6, 64, 95
5, 66240, Note_off_c, 6, 64, 95
5, 67200, Note_on_c, 6, 64, 95
5, 68160, Note_off_c, 6, 64, 95
5, 107520, Note_on_c, 6, 71, 95
5, 107760, Note_off_c, 6, 71, 95
5, 107760, Note_on_c, 6, 63, 95
5, 108000, Note_off_c, 6, 63, 95
5, 108000, Note_on_c, 6, 66, 95
5, 108240, Note_off_c, 6, 66, 95
5, 108240, Note_on_c, 6, 63, 95
5, 108480, Note_off_c, 6, 63, 95
5, 108480, Note_on_c, 6, 59, 95
5, 108720, Note_off_c, 6, 59, 95
5, 108720, Note_on_c, 6, 63, 95
5, 108960, Note_off_c, 6, 63, 95
5, 108960, Note_on_c, 6, 66, 95
5, 109200, Note_off_c, 6, 66, 95
5, 109200, Note_on_c, 6, 63, 95
5, 109440, Note_off_c, 6, 63, 95
5, 109440, Note_on_c, 6, 59, 95
5, 109680, Note_off_c, 6, 59, 95
5, 109680, Note_on_c, 6, 63, 95
5, 109920, Note_off_c, 6, 63, 95
5, 109920, Note_on_c, 6, 66, 95
5, 110160, Note_off_c, 6, 66, 95
5, 110160, Note_on_c, 6, 63, 95
5, 110400, Note_off_c, 6, 63, 95
5, 110400, Note_on_c, 6, 59, 95
5, 110640, Note_off_c, 6, 59, 95
5, 110640, Note_on_c, 6, 63, 95
5, 110880, Note_off_c, 6, 63, 95
5, 110880, Note_on_c, 6, 66, 95
5, 111120, Note_off_c, 6, 66, 95
5, 111120, Note_on_c, 6, 63, 95
5, 111360, Note_off_c, 6, 63, 95
5, 111360, Note_on_c, 6, 59, 95
5, 111600, Note_off_c, 6, 59, 95
5, 111600, Note_on_c, 6, 63, 95
5, 111840, Note_off_c, 6, 63, 95
5, 111840, Note_on_c, 6, 66, 95
5, 112080, Note_off_c, 6, 66, 95
5, 112080, Note_on_c, 6, 63, 95
5, 112320, Note_off_c, 6, 63, 95
5, 112320, Note_on_c, 6, 59, 95
5, 112560, Note_off_c, 6, 59, 95
5, 112560, Note_on_c, 6, 63, 95
5, 112800, Note_off_c, 6, 63, 95
5, 112800, Note_on_c, 6, 66, 95
5, 113040, Note_off_c, 6, 66, 95
5, 113040, Note_on_c, 6, 63, 95
5, 113280, Note_off_c, 6, 63, 95
5, 113280, Note_on_c, 6, 59, 95
5, 113520, Note_off_c, 6, 59, 95
5, 113520, Note_on_c, 6, 63, 95
5, 113760, Note_off_c, 6, 63, 95
5, 113760, Note_on_c, 6, 66, 95
5, 114000, Note_off_c, 6, 66, 95
5, 114000, Note_on_c, 6, 63, 95
5, 114240, Note_off_c, 6, 63, 95
5, 114240, Note_on_c, 6, 59, 95
5, 114480, Note_off_c, 6, 59, 95
5, 114480, Note_on_c, 6, 63, 95
5, 114720, Note_off_c, 6, 63, 95
5, 114720, Note_on_c, 6, 66, 95
5, 114960, Note_off_c, 6, 66, 95
5, 114960, Note_on_c, 6, 63, 95
5, 115200, Note_off_c, 6, 63, 95
5, 115200, End_track
6, 0, Start_track
6, 0, Pitch_bend_c, 8, 8192
6, 0, Control_c, 8, 7, 55
6, 0, Control_c, 8, 10, 63
6, 0, Control_c, 8, 93, 0
6, 0, Control_c, 8, 91, 0
6, 0, Control_c, 8, 95, 0
6, 0, Control_c, 8, 92, 0
6, 0, Control_c, 8, 11, 127
6, 0, Program_c, 8, 12
6, 0, Control_c, 10, 7, 55
6, 0, Control_c, 10, 10, 63
6, 0, Control_c, 10, 93, 0
6, 0, Control_c, 10, 91, 0
6, 0, Control_c, 10, 95, 0
6, 0, Control_c, 10, 92, 0
6, 0, Control_c, 10, 11, 127
6, 0, Program_c, 10, 12
6, 0, Note_on_c, 8, 64, 95
6, 960, Note_off_c, 8, 64, 95
6, 960, Note_on_c, 8, 64, 95
6, 1680, Note_off_c, 8, 64, 95
6, 1680, Note_on_c, 8, 64, 95
6, 1920, Note_off_c, 8, 64, 95
6, 1920, Note_on_c, 8, 62, 95
6, 2160, Note_off_c, 8, 62, 95
6, 2160, Note_on_c, 8, 59, 95
6, 2400, Note_off_c, 8, 59, 95
6, 2400, Note_on_c, 8, 57, 95
6, 2880, Note_off_c, 8, 57, 95
6, 2880, Note_on_c, 8, 55, 95
6, 3840, Note_off_c, 8, 55, 95
6, 3840, Note_on_c, 8, 57, 95
6, 4080, Note_off_c, 8, 57, 95
6, 4080, Note_on_c, 8, 59, 95
6, 4320, Note_off_c, 8, 59, 95
6, 4320, Note_on_c, 8, 62, 95
6, 4800, Note_off_c, 8, 62, 95
6, 4800, Note_on_c, 8, 57, 95
6, 5520, Note_off_c, 8, 57, 95
6, 5520, Note_on_c, 8, 57, 95
6, 5760, Note_off_c, 8, 57, 95
6, 5760, Note_on_c, 8, 59, 95
6, 6000, Note_off_c, 8, 59, 95
6, 6000, Note_on_c, 8, 57, 95
6, 6240, Note_off_c, 8, 57, 95
6, 6240, Note_on_c, 8, 55, 95
6, 6720, Note_off_c, 8, 55, 95
6, 6720, Note_on_c, 8, 57, 95
6, 6960, Note_off_c, 8, 57, 95
6, 6960, Note_on_c, 8, 59, 95
6, 7200, Note_off_c, 8, 59, 95
6, 7200, Note_on_c, 8, 62, 95
6, 7680, Note_off_c, 8, 62, 95
6, 7680, Note_on_c, 8, 57, 95
6, 9600, Note_off_c, 8, 57, 95
6, 15360, Note_on_c, 8, 64, 95
6, 16320, Note_off_c, 8, 64, 95
6, 16320, Note_on_c, 8, 64, 95
6, 17040, Note_off_c, 8, 64, 95
6, 17040, Note_on_c, 8, 64, 95
6, 17280, Note_off_c, 8, 64, 95
6, 17280, Note_on_c, 8, 62, 95
6, 17520, Note_off_c, 8, 62, 95
6, 17520, Note_on_c, 8, 59, 95
6, 17760, Note_off_c, 8, 59, 95
6, 17760, Note_on_c, 8, 57, 95
6, 18240, Note_off_c, 8, 57, 95
6, 18240, Note_on_c, 8, 55, 95
6, 19200, Note_off_c, 8, 55, 95
6, 19200, Note_on_c, 8, 57, 95
6, 19440, Note_off_c, 8, 57, 95
6, 19440, Note_on_c, 8, 59, 95
6, 19680, Note_off_c, 8, 59, 95
6, 19680, Note_on_c, 8, 62, 95
6, 20160, Note_off_c, 8, 62, 95
6, 20160, Note_on_c, 8, 57, 95
6, 20880, Note_off_c, 8, 57, 95
6, 20880, Note_on_c, 8, 57, 95
6, 21120, Note_off_c, 8, 57, 95
6, 21120, Note_on_c, 8, 59, 95
6, 21360, Note_off_c, 8, 59, 95
6, 21360, Note_on_c, 8, 57, 95
6, 21600, Note_off_c, 8, 57, 95
6, 21600, Note_on_c, 8, 55, 95
6, 22080, Note_off_c, 8, 55, 95
6, 22080, Note_on_c, 8, 57, 95
6, 22320, Note_off_c, 8, 57, 95
6, 22320, Note_on_c, 8, 59, 95
6, 22560, Note_off_c, 8, 59, 95
6, 22560, Note_on_c, 8, 62, 95
6, 23040, Note_off_c, 8, 62, 95
6, 23040, Note_on_c, 8, 57, 95
6, 24960, Note_off_c, 8, 57, 95
6, 30720, Note_on_c, 8, 64, 95
6, 32160, Note_off_c, 8, 64, 95
6, 32160, Note_on_c, 8, 64, 95
6, 32400, Note_off_c, 8, 64, 95
6, 32400, Note_on_c, 8, 64, 95
6, 32640, Note_off_c, 8, 64, 95
6, 32640, Note_on_c, 8, 64, 95
6, 33600, Note_off_c, 8, 64, 95
6, 36000, Note_on_c, 8, 64, 95
6, 36240, Note_off_c, 8, 64, 95
6, 36240, Note_on_c, 8, 64, 95
6, 36480, Note_off_c, 8, 64, 95
6, 36480, Note_on_c, 8, 64, 95
6, 37200, Note_off_c, 8, 64, 95
6, 37200, Note_on_c, 8, 62, 95
6, 37920, Note_off_c, 8, 62, 95
6, 37920, Note_on_c, 8, 61, 95
6, 38400, Note_off_c, 8, 61, 95
6, 38400, Note_on_c, 8, 59, 95
6, 40320, Note_off_c, 8, 59, 95
6, 46080, Note_on_c, 8, 64, 95
6, 47520, Note_off_c, 8, 64, 95
6, 47520, Note_on_c, 8, 64, 95
6, 47760, Note_off_c, 8, 64, 95
6, 47760, Note_on_c, 8, 64, 95
6, 48000, Note_off_c, 8, 64, 95
6, 48000, Note_on_c, 8, 64, 95
6, 48960, Note_off_c, 8, 64, 95
6, 51360, Note_on_c, 8, 64, 95
6, 51600, Note_off_c, 8, 64, 95
6, 51600, Note_on_c, 8, 64, 95
6, 51840, Note_off_c, 8, 64, 95
6, 51840, Note_on_c, 8, 64, 95
6, 52560, Note_off_c, 8, 64, 95
6, 52560, Note_on_c, 8, 62, 95
6, 53280, Note_off_c, 8, 62, 95
6, 53280, Note_on_c, 8, 61, 95
6, 53760, Note_off_c, 8, 61, 95
6, 53760, Note_on_c, 8, 59, 95
6, 55680, Note_off_c, 8, 59, 95
6, 57600, Note_on_c, 8, 57, 95
6, 60480, Note_off_c, 8, 57, 95
6, 60480, Note_on_c, 8, 55, 95
6, 60840, Note_off_c, 8, 55, 95
6, 60960, Note_on_c, 8, 57, 95
6, 61200, Note_off_c, 8, 57, 95
6, 61200, Note_on_c, 8, 55, 95
6, 61440, Note_off_c, 8, 55, 95
6, 61440, Note_on_c, 8, 52, 95
6, 65280, Note_off_c, 8, 52, 95
6, 65280, End_track
7, 0, Start_track
7, 0, Pitch_bend_c, 9, 8192
7, 0, Control_c, 9, 7, 103
7, 0, Control_c, 9, 10, 63
7, 0, Control_c, 9, 93, 0
7, 0, Control_c, 9, 91, 0
7, 0, Control_c, 9, 95, 0
7, 0, Control_c, 9, 92, 0
7, 0, Control_c, 9, 11, 127
7, 0, Program_c, 9, 0
7, 0, Note_on_c, 9, 85, 95
7, 480, Note_off_c, 9, 85, 95
7, 960, Note_on_c, 9, 85, 95
7, 1440, Note_off_c, 9, 85, 95
7, 1920, Note_on_c, 9, 85, 95
7, 2400, Note_off_c, 9, 85, 95
7, 2880, Note_on_c, 9, 85, 95
7, 3360, Note_off_c, 9, 85, 95
7, 3840, Note_on_c, 9, 85, 95
7, 4320, Note_off_c, 9, 85, 95
7, 4800, Note_on_c, 9, 85, 95
7, 5280, Note_off_c, 9, 85, 95
7, 5760, Note_on_c, 9, 85, 95
7, 6240, Note_off_c, 9, 85, 95
7, 6720, Note_on_c, 9, 85, 95
7, 7200, Note_off_c, 9, 85, 95
7, 7680, Note_on_c, 9, 85, 95
7, 8160, Note_off_c, 9, 85, 95
7, 8640, Note_on_c, 9, 73, 95
7, 8640, Note_on_c, 9, 85, 95
7, 9120, Note_off_c, 9, 73, 95
7, 9120, Note_off_c, 9, 85, 95
7, 9600, Note_on_c, 9, 76, 95
7, 9600, Note_on_c, 9, 85, 95
7, 10080, Note_off_c, 9, 76, 95
7, 10080, Note_off_c, 9, 85, 95
7, 10560, Note_on_c, 9, 73, 95
7, 11040, Note_off_c, 9, 73, 95
7, 11520, Note_on_c, 9, 85, 95
7, 12000, Note_off_c, 9, 85, 95
7, 12480, Note_on_c, 9, 73, 95
7, 12480, Note_on_c, 9, 85, 95
7, 12960, Note_off_c, 9, 73, 95
7, 12960, Note_off_c, 9, 85, 95
7, 13440, Note_on_c, 9, 76, 95
7, 13440, Note_on_c, 9, 85, 95
7, 13920, Note_off_c, 9, 76, 95
7, 13920, Note_off_c, 9, 85, 95
7, 14400, Note_on_c, 9, 73, 95
7, 14880, Note_off_c, 9, 73, 95
7, 15360, Note_on_c, 9, 85, 95
7, 15840, Note_off_c, 9, 85, 95
7, 16320, Note_on_c, 9, 85, 95
7, 16800, Note_off_c, 9, 85, 95
7, 17280, Note_on_c, 9, 85, 95
7, 17760, Note_off_c, 9, 85, 95
7, 18240, Note_on_c, 9, 85, 95
7, 18720, Note_off_c, 9, 85, 95
7, 19200, Note_on_c, 9, 85, 95
7, 19680, Note_off_c, 9, 85, 95
7, 20160, Note_on_c, 9, 85, 95
7, 20640, Note_off_c, 9, 85, 95
7, 21120, Note_on_c, 9, 85, 95
7, 21600, Note_off_c, 9, 85, 95
7, 22080, Note_on_c, 9, 85, 95
7, 22560, Note_off_c, 9, 85, 95
7, 23040, Note_on_c, 9, 85, 95
7, 23520, Note_off_c, 9, 85, 95
7, 24000, Note_on_c, 9, 73, 95
7, 24000, Note_on_c, 9, 85, 95
7, 24480, Note_off_c, 9, 73, 95
7, 24480, Note_off_c, 9, 85, 95
7, 24960, Note_on_c, 9, 76, 95
7, 24960, Note_on_c, 9, 85, 95
7, 25440, Note_off_c, 9, 76, 95
7, 25440, Note_off_c, 9, 85, 95
7, 25920, Note_on_c, 9, 73, 95
7, 26400, Note_off_c, 9, 73, 95
7, 26880, Note_on_c, 9, 85, 95
7, 27360, Note_off_c, 9, 85, 95
7, 27840, Note_on_c, 9, 73, 95
7, 27840, Note_on_c, 9, 85, 95
7, 28320, Note_off_c, 9, 73, 95
7, 28320, Note_off_c, 9, 85, 95
7, 28800, Note_on_c, 9, 76, 95
7, 28800, Note_on_c, 9, 85, 95
7, 29280, Note_off_c, 9, 76, 95
7, 29280, Note_off_c, 9, 85, 95
7, 29760, Note_on_c, 9, 73, 95
7, 30240, Note_off_c, 9, 73, 95
7, 30720, Note_on_c, 9, 85, 95
7, 31200, Note_off_c, 9, 85, 95
7, 31680, Note_on_c, 9, 85, 95
7, 32160, Note_off_c, 9, 85, 95
7, 32640, Note_on_c, 9, 85, 95
7, 33120, Note_off_c, 9, 85, 95
7, 33600, Note_on_c, 9, 85, 95
7, 34080, Note_off_c, 9, 85, 95
7, 34560, Note_on_c, 9, 85, 95
7, 35040, Note_off_c, 9, 85, 95
7, 35520, Note_on_c, 9, 85, 95
7, 36000, Note_off_c, 9, 85, 95
7, 36480, Note_on_c, 9, 85, 95
7, 36960, Note_off_c, 9, 85, 95
7, 37440, Note_on_c, 9, 85, 95
7, 37920, Note_off_c, 9, 85, 95
7, 38400, Note_on_c, 9, 85, 95
7, 38880, Note_off_c, 9, 85, 95
7, 39360, Note_on_c, 9, 85, 95
7, 39840, Note_off_c, 9, 85, 95
7, 40320, Note_on_c, 9, 85, 95
7, 40800, Note_off_c, 9, 85, 95
7, 41280, Note_on_c, 9, 85, 95
7, 41760, Note_off_c, 9, 85, 95
7, 42240, Note_on_c, 9, 85, 95
7, 42720, Note_off_c, 9, 85, 95
7, 43200, Note_on_c, 9, 85, 95
7, 43680, Note_off_c, 9, 85, 95
7, 44160, Note_on_c, 9, 85, 95
7, 44640, Note_off_c, 9, 85, 95
7, 45120, Note_on_c, 9, 85, 95
7, 45600, Note_off_c, 9, 85, 95
7, 46080, Note_on_c, 9, 85, 95
7, 46560, Note_off_c, 9, 85, 95
7, 47040, Note_on_c, 9, 85, 95
7, 47520, Note_off_c, 9, 85, 95
7, 48000, Note_on_c, 9, 85, 95
7, 48480, Note_off_c, 9, 85, 95
7, 48960, Note_on_c, 9, 85, 95
7, 49440, Note_off_c, 9, 85, 95
7, 49920, Note_on_c, 9, 85, 95
7, 50400, Note_off_c, 9, 85, 95
7, 50880, Note_on_c, 9, 85, 95
7, 51360, Note_off_c, 9, 85, 95
7, 51840, Note_on_c, 9, 85, 95
7, 52320, Note_off_c, 9, 85, 95
7, 52800, Note_on_c, 9, 85, 95
7, 53280, Note_off_c, 9, 85, 95
7, 53760, Note_on_c, 9, 85, 95
7, 54240, Note_off_c, 9, 85, 95
7, 54720, Note_on_c, 9, 85, 95
7, 55200, Note_off_c, 9, 85, 95
7, 55680, Note_on_c, 9, 85, 95
7, 56160, Note_off_c, 9, 85, 95
7, 56640, Note_on_c, 9, 85, 95
7, 57120, Note_off_c, 9, 85, 95
7, 57600, Note_on_c, 9, 85, 95
7, 58080, Note_off_c, 9, 85, 95
7, 58560, Note_on_c, 9, 85, 95
7, 59040, Note_off_c, 9, 85, 95
7, 59520, Note_on_c, 9, 85, 95
7, 60000, Note_off_c, 9, 85, 95
7, 60480, Note_on_c, 9, 85, 95
7, 60960, Note_off_c, 9, 85, 95
7, 61440, Note_on_c, 9, 85, 95
7, 61920, Note_off_c, 9, 85, 95
7, 62400, Note_on_c, 9, 85, 95
7, 62880, Note_off_c, 9, 85, 95
7, 63360, Note_on_c, 9, 85, 95
7, 63840, Note_off_c, 9, 85, 95
7, 64320, Note_on_c, 9, 85, 95
7, 64800, Note_off_c, 9, 85, 95
7, 65280, Note_on_c, 9, 85, 95
7, 65760, Note_off_c, 9, 85, 95
7, 66240, Note_on_c, 9, 85, 95
7, 66720, Note_off_c, 9, 85, 95
7, 67200, Note_on_c, 9, 85, 95
7, 67680, Note_off_c, 9, 85, 95
7, 68160, Note_on_c, 9, 85, 95
7, 68640, Note_off_c, 9, 85, 95
7, 69120, Note_on_c, 9, 85, 95
7, 69600, Note_off_c, 9, 85, 95
7, 70080, Note_on_c, 9, 85, 95
7, 70560, Note_off_c, 9, 85, 95
7, 71040, Note_on_c, 9, 85, 95
7, 71520, Note_off_c, 9, 85, 95
7, 72000, Note_on_c, 9, 85, 95
7, 72480, Note_off_c, 9, 85, 95
7, 72960, Note_on_c, 9, 85, 95
7, 73440, Note_off_c, 9, 85, 95
7, 73920, Note_on_c, 9, 85, 95
7, 74400, Note_off_c, 9, 85, 95
7, 74880, Note_on_c, 9, 85, 95
7, 75360, Note_off_c, 9, 85, 95
7, 75840, Note_on_c, 9, 85, 95
7, 76320, Note_off_c, 9, 85, 95
7, 76800, Note_on_c, 9, 85, 95
7, 77280, Note_off_c, 9, 85, 95
7, 77760, Note_on_c, 9, 85, 95
7, 78240, Note_off_c, 9, 85, 95
7, 78720, Note_on_c, 9, 85, 95
7, 79200, Note_off_c, 9, 85, 95
7, 79680, Note_on_c, 9, 85, 95
7, 80160, Note_off_c, 9, 85, 95
7, 80640, Note_on_c, 9, 85, 95
7, 81120, Note_off_c, 9, 85, 95
7, 81600, Note_on_c, 9, 85, 95
7, 82080, Note_off_c, 9, 85, 95
7, 82560, Note_on_c, 9, 85, 95
7, 83040, Note_off_c, 9, 85, 95
7, 83520, Note_on_c, 9, 85, 95
7, 84000, Note_off_c, 9, 85, 95
7, 84480, Note_on_c, 9, 85, 95
7, 84960, Note_off_c, 9, 85, 95
7, 85440, Note_on_c, 9, 85, 95
7, 85920, Note_off_c, 9, 85, 95
7, 86400, Note_on_c, 9, 85, 95
7, 86880, Note_off_c, 9, 85, 95
7, 87360, Note_on_c, 9, 85, 95
7, 87840, Note_off_c, 9, 85, 95
7, 88320, Note_on_c, 9, 85, 95
7, 88800, Note_off_c, 9, 85, 95
7, 89280, Note_on_c, 9, 85, 95
7, 89760, Note_off_c, 9, 85, 95
7, 90240, Note_on_c, 9, 85, 95
7, 90720, Note_off_c, 9, 85, 95
7, 91200, Note_on_c, 9, 85, 95
7, 91680, Note_off_c, 9, 85, 95
7, 92160, Note_on_c, 9, 85, 95
7, 92640, Note_off_c, 9, 85, 95
7, 93120, Note_on_c, 9, 85, 95
7, 93600, Note_off_c, 9, 85, 95
7, 94080, Note_on_c, 9, 85, 95
7, 94560, Note_off_c, 9, 85, 95
7, 95040, Note_on_c, 9, 85, 95
7, 95520, Note_off_c, 9, 85, 95
7, 96000, Note_on_c, 9, 85, 95
7, 96480, Note_off_c, 9, 85, 95
7, 96960, Note_on_c, 9, 85, 95
7, 97440, Note_off_c, 9, 85, 95
7, 97920, Note_on_c, 9, 85, 95
7, 98400, Note_off_c, 9, 85, 95
7, 98880, Note_on_c, 9, 85, 95
7, 99360, Note_off_c, 9, 85, 95
7, 99840, Note_on_c, 9, 85, 95
7, 100320, Note_off_c, 9, 85, 95
7, 100800, Note_on_c, 9, 85, 95
7, 101280, Note_off_c, 9, 85, 95
7, 101760, Note_on_c, 9, 85, 95
7, 102240, Note_off_c, 9, 85, 95
7, 102720, Note_on_c, 9, 85, 95
7, 103200, Note_off_c, 9, 85, 95
7, 103680, Note_on_c, 9, 85, 95
7, 104160, Note_off_c, 9, 85, 95
7, 104640, Note_on_c, 9, 85, 95
7, 105120, Note_off_c, 9, 85, 95
7, 105600, Note_on_c, 9, 85, 95
7, 106080, Note_off_c, 9, 85, 95
7, 106560, Note_on_c, 9, 85, 95
7, 107040, Note_off_c, 9, 85, 95
7, 107520, Note_on_c, 9, 85, 95
7, 108000, Note_off_c, 9, 85, 95
7, 108480, Note_on_c, 9, 85, 95
7, 108960, Note_off_c, 9, 85, 95
7, 109440, Note_on_c, 9, 85, 95
7, 109920, Note_off_c, 9, 85, 95
7, 110400, Note_on_c, 9, 85, 95
7, 110880, Note_off_c, 9, 85, 95
7, 111360, Note_on_c, 9, 85, 95
7, 111840, Note_off_c, 9, 85, 95
7, 112320, Note_on_c, 9, 85, 95
7, 112800, Note_off_c, 9, 85, 95
7, 113280, Note_on_c, 9, 85, 95
7, 113760, Note_off_c, 9, 85, 95
7, 114240, Note_on_c, 9, 85, 95
7, 114720, Note_off_c, 9, 85, 95
7, 115200, Note_on_c, 9, 85, 95
7, 115680, Note_off_c, 9, 85, 95
7, 116160, Note_on_c, 9, 85, 95
7, 116640, Note_off_c, 9, 85, 95
7, 117120, Note_on_c, 9, 85, 95
7, 117600, Note_off_c, 9, 85, 95
7, 118080, Note_on_c, 9, 85, 95
7, 118560, Note_off_c, 9, 85, 95
7, 119040, Note_on_c, 9, 85, 95
7, 119520, Note_off_c, 9, 85, 95
7, 120000, Note_on_c, 9, 85, 95
7, 120480, Note_off_c, 9, 85, 95
7, 120960, Note_on_c, 9, 85, 95
7, 121440, Note_off_c, 9, 85, 95
7, 121920, Note_on_c, 9, 85, 95
7, 122400, Note_off_c, 9, 85, 95
7, 122880, Note_on_c, 9, 85, 95
7, 123360, Note_off_c, 9, 85, 95
7, 123840, Note_on_c, 9, 85, 95
7, 124320, Note_off_c, 9, 85, 95
7, 124800, Note_on_c, 9, 85, 95
7, 125280, Note_off_c, 9, 85, 95
7, 125760, Note_on_c, 9, 85, 95
7, 126240, Note_off_c, 9, 85, 95
7, 126720, Note_on_c, 9, 85, 95
7, 127200, Note_off_c, 9, 85, 95
7, 127680, Note_on_c, 9, 85, 95
7, 128160, Note_off_c, 9, 85, 95
7, 128640, Note_on_c, 9, 85, 95
7, 129120, Note_off_c, 9, 85, 95
7, 129600, Note_on_c, 9, 85, 95
7, 130080, Note_off_c, 9, 85, 95
7, 130560, Note_on_c, 9, 85, 95
7, 131040, Note_off_c, 9, 85, 95
7, 131520, Note_on_c, 9, 85, 95
7, 132000, Note_off_c, 9, 85, 95
7, 132480, Note_on_c, 9, 85, 95
7, 132960, Note_off_c, 9, 85, 95
7, 133440, Note_on_c, 9, 85, 95
7, 133920, Note_off_c, 9, 85, 95
7, 133920, End_track
0, 0, End_of_file
