0, 0, Header, 1, 5, 960
1, 0, Start_track
1, 0, Control_c, 0, 101, 0
1, 0, Control_c, 0, 100, 0
1, 0, Control_c, 0, 6, 12
1, 0, Control_c, 0, 38, 0
1, 0, Control_c, 1, 101, 0
1, 0, Control_c, 1, 100, 0
1, 0, Control_c, 1, 6, 12
1, 0, Control_c, 1, 38, 0
1, 0, Control_c, 2, 101, 0
1, 0, Control_c, 2, 100, 0
1, 0, Control_c, 2, 6, 12
1, 0, Control_c, 2, 38, 0
1, 0, Control_c, 3, 101, 0
1, 0, Control_c, 3, 100, 0
1, 0, Control_c, 3, 6, 12
1, 0, Control_c, 3, 38, 0
1, 0, Control_c, 4, 101, 0
1, 0, Control_c, 4, 100, 0
1, 0, Control_c, 4, 6, 12
1, 0, Control_c, 4, 38, 0
1, 0, Control_c, 5, 101, 0
1, 0, Control_c, 5, 100, 0
1, 0, Control_c, 5, 6, 12
1, 0, Control_c, 5, 38, 0
1, 0, Control_c, 6, 101, 0
1, 0, Control_c, 6, 100, 0
1, 0, Control_c, 6, 6, 12
1, 0, Control_c, 6, 38, 0
1, 0, Control_c, 7, 101, 0
1, 0, Control_c, 7, 100, 0
1, 0, Control_c, 7, 6, 12
1, 0, Control_c, 7, 38, 0
1, 0, Control_c, 8, 101, 0
1, 0, Control_c, 8, 100, 0
1, 0, Control_c, 8, 6, 12
1, 0, Control_c, 8, 38, 0
1, 0, Control_c, 9, 101, 0
1, 0, Control_c, 9, 100, 0
1, 0, Control_c, 9, 6, 12
1, 0, Control_c, 9, 38, 0
1, 0, Control_c, 10, 101, 0
1, 0, Control_c, 10, 100, 0
1, 0, Control_c, 10, 6, 12
1, 0, Control_c, 10, 38, 0
1, 0, Control_c, 11, 101, 0
1, 0, Control_c, 11, 100, 0
1, 0, Control_c, 11, 6, 12
1, 0, Control_c, 11, 38, 0
1, 0, Control_c, 12, 101, 0
1, 0, Control_c, 12, 100, 0
1, 0, Control_c, 12, 6, 12
1, 0, Control_c, 12, 38, 0
1, 0, Control_c, 13, 101, 0
1, 0, Control_c, 13, 100, 0
1, 0, Control_c, 13, 6, 12
1, 0, Control_c, 13, 38, 0
1, 0, Control_c, 14, 101, 0
1, 0, Control_c, 14, 100, 0
1, 0, Control_c, 14, 6, 12
1, 0, Control_c, 14, 38, 0
1, 0, Control_c, 15, 101, 0
1, 0, Control_c, 15, 100, 0
1, 0, Control_c, 15, 6, 12
1, 0, Control_c, 15, 38, 0
1, 0, Time_signature, 4, 2, 24, 8
1, 0, Tempo, 419580
1, 0, End_track
2, 0, Start_track
2, 0, Pitch_bend_c, 0, 8192
2, 0, Control_c, 0, 7, 103
2, 0, Control_c, 0, 10, 63
2, 0, Control_c, 0, 93, 0
2, 0, Control_c, 0, 91, 0
2, 0, Control_c, 0, 95, 0
2, 0, Control_c, 0, 92, 0
2, 0, Control_c, 0, 11, 127
2, 0, Program_c, 0, 29
2, 0, Control_c, 1, 7, 103
2, 0, Control_c, 1, 10, 63
2, 0, Control_c, 1, 93, 0
2, 0, Control_c, 1, 91, 0
2, 0, Control_c, 1, 95, 0
2, 0, Control_c, 1, 92, 0
2, 0, Control_c, 1, 11, 127
2, 0, Program_c, 1, 29
2, 0, Note_on_c, 0, 50, 95
2, 240, Note_off_c, 0, 50, 95
2, 240, Note_on_c, 0, 47, 95
2, 480, Note_off_c, 0, 47, 95
2, 480, Note_on_c, 0, 50, 95
2, 720, Note_off_c, 0, 50, 95
2, 720, Note_on_c, 0, 47, 95
2, 960, Note_off_c, 0, 47, 95
2, 960, Note_on_c, 0, 55, 95
2, 1200, Note_off_c, 0, 55, 95
2, 1200, Note_on_c, 0, 50, 95
2, 1440, Note_off_c, 0, 50, 95
2, 1440, Note_on_c, 0, 55, 95
2, 1680, Note_off_c, 0, 55, 95
2, 1680, Note_on_c, 0, 50, 95
2, 1920, Note_off_c, 0, 50, 95
2, 1920, Note_on_c, 0, 54, 95
2, 2160, Note_off_c, 0, 54, 95
2, 2160, Note_on_c, 0, 50, 95
2, 2400, Note_off_c, 0, 50, 95
2, 2400, Note_on_c, 0, 54, 95
2, 2640, Note_off_c, 0, 54, 95
2, 2640, Note_on_c, 0, 50, 95
2, 2880, Note_off_c, 0, 50, 95
2, 2880, Note_on_c, 0, 49, 95
2, 3120, Note_off_c, 0, 49, 95
2, 3120, Note_on_c, 0, 45, 95
2, 3360, Note_off_c, 0, 45, 95
2, 3360, Note_on_c, 0, 49, 95
2, 3600, Note_off_c, 0, 49, 95
2, 3600, Note_on_c, 0, 45, 95
2, 3840, Note_off_c, 0, 45, 95
2, 3840, Note_on_c, 0, 45, 95
2, 4320, Note_off_c, 0, 45, 95
2, 4320, Note_on_c, 0, 49, 95
2, 4800, Note_off_c, 0, 49, 95
2, 4800, Note_on_c, 0, 50, 95
2, 5280, Note_off_c, 0, 50, 95
2, 5280, Note_on_c, 0, 50, 95
2, 5280, Note_on_c, 1, 43, 95
2, 5440, Pitch_bend_c, 1, 8192
2, 5600, Pitch_bend_c, 1, 8320
2, 5760, Pitch_bend_c, 1, 8192
2, 5920, Pitch_bend_c, 1, 8320
2, 6080, Pitch_bend_c, 1, 8192
2, 6240, Pitch_bend_c, 1, 8320
2, 6400, Pitch_bend_c, 1, 8192
2, 6560, Pitch_bend_c, 1, 8320
2, 6720, Pitch_bend_c, 1, 8192
2, 6880, Pitch_bend_c, 1, 8320
2, 7040, Pitch_bend_c, 1, 8192
2, 7200, Pitch_bend_c, 1, 8320
2, 7360, Pitch_bend_c, 1, 8192
2, 7520, Pitch_bend_c, 1, 8320
2, 7680, Note_off_c, 0, 50, 95
2, 7680, Pitch_bend_c, 1, 8192
2, 7680, Pitch_bend_c, 1, 8320
2, 7680, Pitch_bend_c, 1, 8192
2, 7680, Note_off_c, 1, 43, 95
2, 7680, Note_on_c, 0, 50, 95
2, 7920, Note_off_c, 0, 50, 95
2, 7920, Note_on_c, 0, 47, 95
2, 8160, Note_off_c, 0, 47, 95
2, 8160, Note_on_c, 0, 50, 95
2, 8400, Note_off_c, 0, 50, 95
2, 8400, Note_on_c, 0, 47, 95
2, 8640, Note_off_c, 0, 47, 95
2, 8640, Note_on_c, 0, 55, 95
2, 8880, Note_off_c, 0, 55, 95
2, 8880, Note_on_c, 0, 50, 95
2, 9120, Note_off_c, 0, 50, 95
2, 9120, Note_on_c, 0, 55, 95
2, 9360, Note_off_c, 0, 55, 95
2, 9360, Note_on_c, 0, 50, 95
2, 9600, Note_off_c, 0, 50, 95
2, 9600, Note_on_c, 0, 54, 95
2, 9840, Note_off_c, 0, 54, 95
2, 9840, Note_on_c, 0, 50, 95
2, 10080, Note_off_c, 0, 50, 95
2, 10080, Note_on_c, 0, 54, 95
2, 10320, Note_off_c, 0, 54, 95
2, 10320, Note_on_c, 0, 50, 95
2, 10560, Note_off_c, 0, 50, 95
2, 10560, Note_on_c, 0, 49, 95
2, 10800, Note_off_c, 0, 49, 95
2, 10800, Note_on_c, 0, 45, 95
2, 11040, Note_off_c, 0, 45, 95
2, 11040, Note_on_c, 0, 49, 95
2, 11280, Note_off_c, 0, 49, 95
2, 11280, Note_on_c, 0, 45, 95
2, 11520, Note_off_c, 0, 45, 95
2, 11520, Note_on_c, 0, 45, 95
2, 12000, Note_off_c, 0, 45, 95
2, 12000, Note_on_c, 0, 49, 95
2, 12480, Note_off_c, 0, 49, 95
2, 12480, Note_on_c, 0, 50, 95
2, 12960, Note_off_c, 0, 50, 95
2, 12960, Note_on_c, 0, 50, 95
2, 12960, Note_on_c, 1, 43, 95
2, 13120, Pitch_bend_c, 1, 8192
2, 13280, Pitch_bend_c, 1, 8320
2, 13440, Pitch_bend_c, 1, 8192
2, 13600, Pitch_bend_c, 1, 8320
2, 13760, Pitch_bend_c, 1, 8192
2, 13920, Pitch_bend_c, 1, 8320
2, 14080, Pitch_bend_c, 1, 8192
2, 14240, Pitch_bend_c, 1, 8320
2, 14400, Pitch_bend_c, 1, 8192
2, 14560, Pitch_bend_c, 1, 8320
2, 14720, Pitch_bend_c, 1, 8192
2, 14880, Pitch_bend_c, 1, 8320
2, 15040, Pitch_bend_c, 1, 8192
2, 15200, Pitch_bend_c, 1, 8320
2, 15360, Note_off_c, 0, 50, 95
2, 15360, Pitch_bend_c, 1, 8192
2, 15360, Pitch_bend_c, 1, 8320
2, 15360, Pitch_bend_c, 1, 8192
2, 15360, Note_off_c, 1, 43, 95
2, 15360, Note_on_c, 0, 50, 95
2, 15600, Note_off_c, 0, 50, 95
2, 15600, Note_on_c, 0, 47, 95
2, 15840, Note_off_c, 0, 47, 95
2, 15840, Note_on_c, 0, 50, 95
2, 16080, Note_off_c, 0, 50, 95
2, 16080, Note_on_c, 0, 47, 95
2, 16320, Note_off_c, 0, 47, 95
2, 16320, Note_on_c, 0, 55, 95
2, 16560, Note_off_c, 0, 55, 95
2, 16560, Note_on_c, 0, 50, 95
2, 16800, Note_off_c, 0, 50, 95
2, 16800, Note_on_c, 0, 55, 95
2, 17040, Note_off_c, 0, 55, 95
2, 17040, Note_on_c, 0, 50, 95
2, 17280, Note_off_c, 0, 50, 95
2, 17280, Note_on_c, 0, 54, 95
2, 17520, Note_off_c, 0, 54, 95
2, 17520, Note_on_c, 0, 50, 95
2, 17760, Note_off_c, 0, 50, 95
2, 17760, Note_on_c, 0, 54, 95
2, 18000, Note_off_c, 0, 54, 95
2, 18000, Note_on_c, 0, 50, 95
2, 18240, Note_off_c, 0, 50, 95
2, 18240, Note_on_c, 0, 49, 95
2, 18480, Note_off_c, 0, 49, 95
2, 18480, Note_on_c, 0, 45, 95
2, 18720, Note_off_c, 0, 45, 95
2, 18720, Note_on_c, 0, 49, 95
2, 18960, Note_off_c, 0, 49, 95
2, 18960, Note_on_c, 0, 45, 95
2, 19200, Note_off_c, 0, 45, 95
2, 19200, Note_on_c, 0, 45, 95
2, 19680, Note_off_c, 0, 45, 95
2, 19680, Note_on_c, 0, 49, 95
2, 20160, Note_off_c, 0, 49, 95
2, 20160, Note_on_c, 0, 50, 95
2, 20640, Note_off_c, 0, 50, 95
2, 20640, Note_on_c, 0, 50, 95
2, 20640, Note_on_c, 1, 43, 95
2, 20800, Pitch_bend_c, 1, 8192
2, 20960, Pitch_bend_c, 1, 8320
2, 21120, Pitch_bend_c, 1, 8192
2, 21280, Pitch_bend_c, 1, 8320
2, 21440, Pitch_bend_c, 1, 8192
2, 21600, Pitch_bend_c, 1, 8320
2, 21760, Pitch_bend_c, 1, 8192
2, 21920, Pitch_bend_c, 1, 8320
2, 22080, Pitch_bend_c, 1, 8192
2, 22240, Pitch_bend_c, 1, 8320
2, 22400, Pitch_bend_c, 1, 8192
2, 22560, Pitch_bend_c, 1, 8320
2, 22720, Pitch_bend_c, 1, 8192
2, 22880, Pitch_bend_c, 1, 8320
2, 23040, Note_off_c, 0, 50, 95
2, 23040, Pitch_bend_c, 1, 8192
2, 23040, Pitch_bend_c, 1, 8320
2, 23040, Pitch_bend_c, 1, 8192
2, 23040, Note_off_c, 1, 43, 95
2, 23040, Note_on_c, 0, 50, 95
2, 23280, Note_off_c, 0, 50, 95
2, 23280, Note_on_c, 0, 47, 95
2, 23520, Note_off_c, 0, 47, 95
2, 23520, Note_on_c, 0, 50, 95
2, 23760, Note_off_c, 0, 50, 95
2, 23760, Note_on_c, 0, 47, 95
2, 24000, Note_off_c, 0, 47, 95
2, 24000, Note_on_c, 0, 55, 95
2, 24240, Note_off_c, 0, 55, 95
2, 24240, Note_on_c, 0, 50, 95
2, 24480, Note_off_c, 0, 50, 95
2, 24480, Note_on_c, 0, 55, 95
2, 24720, Note_off_c, 0, 55, 95
2, 24720, Note_on_c, 0, 50, 95
2, 24960, Note_off_c, 0, 50, 95
2, 24960, Note_on_c, 0, 54, 95
2, 25200, Note_off_c, 0, 54, 95
2, 25200, Note_on_c, 0, 50, 95
2, 25440, Note_off_c, 0, 50, 95
2, 25440, Note_on_c, 0, 54, 95
2, 25680, Note_off_c, 0, 54, 95
2, 25680, Note_on_c, 0, 50, 95
2, 25920, Note_off_c, 0, 50, 95
2, 25920, Note_on_c, 0, 49, 95
2, 26160, Note_off_c, 0, 49, 95
2, 26160, Note_on_c, 0, 45, 95
2, 26400, Note_off_c, 0, 45, 95
2, 26400, Note_on_c, 0, 49, 95
2, 26640, Note_off_c, 0, 49, 95
2, 26640, Note_on_c, 0, 45, 95
2, 26880, Note_off_c, 0, 45, 95
2, 26880, Note_on_c, 0, 45, 95
2, 27360, Note_off_c, 0, 45, 95
2, 27360, Note_on_c, 0, 49, 95
2, 27840, Note_off_c, 0, 49, 95
2, 27840, Note_on_c, 0, 50, 95
2, 28320, Note_off_c, 0, 50, 95
2, 28320, Note_on_c, 0, 50, 95
2, 28320, Note_on_c, 1, 43, 95
2, 28480, Pitch_bend_c, 1, 8192
2, 28640, Pitch_bend_c, 1, 8320
2, 28800, Pitch_bend_c, 1, 8192
2, 28960, Pitch_bend_c, 1, 8320
2, 29120, Pitch_bend_c, 1, 8192
2, 29280, Pitch_bend_c, 1, 8320
2, 29440, Pitch_bend_c, 1, 8192
2, 29600, Pitch_bend_c, 1, 8320
2, 29760, Pitch_bend_c, 1, 8192
2, 29920, Pitch_bend_c, 1, 8320
2, 30080, Pitch_bend_c, 1, 8192
2, 30240, Pitch_bend_c, 1, 8320
2, 30400, Pitch_bend_c, 1, 8192
2, 30560, Pitch_bend_c, 1, 8320
2, 30720, Note_off_c, 0, 50, 95
2, 30720, Pitch_bend_c, 1, 8192
2, 30720, Pitch_bend_c, 1, 8320
2, 30720, Pitch_bend_c, 1, 8192
2, 30720, Note_off_c, 1, 43, 95
2, 30720, Note_on_c, 0, 42, 95
2, 31200, Note_off_c, 0, 42, 95
2, 31200, Note_on_c, 0, 42, 95
2, 31680, Note_off_c, 0, 42, 95
2, 31680, Note_on_c, 0, 49, 95
2, 32160, Note_off_c, 0, 49, 95
2, 32160, Note_on_c, 0, 42, 95
2, 32640, Note_off_c, 0, 42, 95
2, 32640, Note_on_c, 0, 50, 95
2, 33120, Note_off_c, 0, 50, 95
2, 33120, Note_on_c, 0, 42, 95
2, 33600, Note_off_c, 0, 42, 95
2, 33600, Note_on_c, 1, 49, 95
2, 33760, Pitch_bend_c, 1, 8192
2, 33920, Pitch_bend_c, 1, 8320
2, 34080, Pitch_bend_c, 1, 8192
2, 34240, Pitch_bend_c, 1, 8320
2, 34400, Pitch_bend_c, 1, 8192
2, 34560, Pitch_bend_c, 1, 8320
2, 34560, Pitch_bend_c, 1, 8192
2, 34560, Note_off_c, 1, 49, 95
2, 34560, Note_on_c, 0, 50, 95
2, 34560, Note_on_c, 0, 43, 95
2, 35040, Note_off_c, 0, 50, 95
2, 35040, Note_off_c, 0, 43, 95
2, 35040, Note_on_c, 0, 50, 95
2, 35040, Note_on_c, 0, 43, 95
2, 35520, Note_off_c, 0, 50, 95
2, 35520, Note_off_c, 0, 43, 95
2, 35520, Note_on_c, 0, 49, 95
2, 36000, Note_off_c, 0, 49, 95
2, 36000, Note_on_c, 0, 50, 95
2, 36480, Note_off_c, 0, 50, 95
2, 36480, Note_on_c, 0, 43, 95
2, 36720, Note_off_c, 0, 43, 95
2, 36720, Note_on_c, 0, 43, 95
2, 36960, Note_off_c, 0, 43, 95
2, 36960, Note_on_c, 0, 57, 95
2, 37440, Note_off_c, 0, 57, 95
2, 37440, Note_on_c, 0, 43, 95
2, 37680, Note_off_c, 0, 43, 95
2, 37680, Note_on_c, 0, 43, 95
2, 37920, Note_off_c, 0, 43, 95
2, 37920, Note_on_c, 0, 55, 95
2, 38400, Note_off_c, 0, 55, 95
2, 38400, Note_on_c, 0, 42, 95
2, 38880, Note_off_c, 0, 42, 95
2, 38880, Note_on_c, 0, 42, 95
2, 39360, Note_off_c, 0, 42, 95
2, 39360, Note_on_c, 0, 49, 95
2, 39840, Note_off_c, 0, 49, 95
2, 39840, Note_on_c, 0, 42, 95
2, 40320, Note_off_c, 0, 42, 95
2, 40320, Note_on_c, 0, 50, 95
2, 40800, Note_off_c, 0, 50, 95
2, 40800, Note_on_c, 0, 42, 95
2, 41280, Note_off_c, 0, 42, 95
2, 41280, Note_on_c, 1, 49, 95
2, 41440, Pitch_bend_c, 1, 8192
2, 41600, Pitch_bend_c, 1, 8320
2, 41760, Pitch_bend_c, 1, 8192
2, 41920, Pitch_bend_c, 1, 8320
2, 42080, Pitch_bend_c, 1, 8192
2, 42240, Pitch_bend_c, 1, 8320
2, 42240, Pitch_bend_c, 1, 8192
2, 42240, Note_off_c, 1, 49, 95
2, 42240, Note_on_c, 0, 50, 95
2, 42240, Note_on_c, 0, 43, 95
2, 42720, Note_off_c, 0, 50, 95
2, 42720, Note_off_c, 0, 43, 95
2, 42720, Note_on_c, 0, 50, 95
2, 42720, Note_on_c, 0, 43, 95
2, 43200, Note_off_c, 0, 50, 95
2, 43200, Note_off_c, 0, 43, 95
2, 44160, Note_on_c, 0, 62, 95
2, 44320, Note_off_c, 0, 62, 95
2, 44320, Note_on_c, 0, 61, 95
2, 44480, Note_off_c, 0, 61, 95
2, 44480, Note_on_c, 0, 59, 95
2, 44640, Note_off_c, 0, 59, 95
2, 44640, Note_on_c, 0, 57, 95
2, 44800, Note_off_c, 0, 57, 95
2, 44800, Note_on_c, 0, 55, 95
2, 44960, Note_off_c, 0, 55, 95
2, 44960, Note_on_c, 0, 54, 95
2, 45120, Note_off_c, 0, 54, 95
2, 45120, Note_on_c, 0, 52, 95
2, 45280, Note_off_c, 0, 52, 95
2, 45280, Note_on_c, 0, 50, 95
2, 45440, Note_off_c, 0, 50, 95
2, 45440, Note_on_c, 0, 49, 95
2, 45600, Note_off_c, 0, 49, 95
2, 45600, Note_on_c, 0, 47, 95
2, 45760, Note_off_c, 0, 47, 95
2, 45760, Note_on_c, 0, 45, 95
2, 45920, Note_off_c, 0, 45, 95
2, 45920, Note_on_c, 0, 43, 95
2, 46080, Note_off_c, 0, 43, 95
2, 46080, Note_on_c, 0, 42, 95
2, 46560, Note_off_c, 0, 42, 95
2, 46560, Note_on_c, 0, 42, 95
2, 47040, Note_off_c, 0, 42, 95
2, 47040, Note_on_c, 0, 49, 95
2, 47520, Note_off_c, 0, 49, 95
2, 47520, Note_on_c, 0, 42, 95
2, 48000, Note_off_c, 0, 42, 95
2, 48000, Note_on_c, 0, 50, 95
2, 48480, Note_off_c, 0, 50, 95
2, 48480, Note_on_c, 0, 42, 95
2, 48960, Note_off_c, 0, 42, 95
2, 48960, Note_on_c, 1, 49, 95
2, 49120, Pitch_bend_c, 1, 8192
2, 49280, Pitch_bend_c, 1, 8320
2, 49440, Pitch_bend_c, 1, 8192
2, 49600, Pitch_bend_c, 1, 8320
2, 49760, Pitch_bend_c, 1, 8192
2, 49920, Pitch_bend_c, 1, 8320
2, 49920, Pitch_bend_c, 1, 8192
2, 49920, Note_off_c, 1, 49, 95
2, 49920, Note_on_c, 0, 50, 95
2, 49920, Note_on_c, 0, 43, 95
2, 50400, Note_off_c, 0, 50, 95
2, 50400, Note_off_c, 0, 43, 95
2, 50400, Note_on_c, 0, 50, 95
2, 50400, Note_on_c, 0, 43, 95
2, 50880, Note_off_c, 0, 50, 95
2, 50880, Note_off_c, 0, 43, 95
2, 50880, Note_on_c, 0, 49, 95
2, 51360, Note_off_c, 0, 49, 95
2, 51360, Note_on_c, 0, 50, 95
2, 51840, Note_off_c, 0, 50, 95
2, 51840, Note_on_c, 0, 43, 95
2, 52080, Note_off_c, 0, 43, 95
2, 52080, Note_on_c, 0, 43, 95
2, 52320, Note_off_c, 0, 43, 95
2, 52320, Note_on_c, 0, 57, 95
2, 52800, Note_off_c, 0, 57, 95
2, 52800, Note_on_c, 0, 43, 95
2, 53040, Note_off_c, 0, 43, 95
2, 53040, Note_on_c, 0, 43, 95
2, 53280, Note_off_c, 0, 43, 95
2, 53280, Note_on_c, 0, 55, 95
2, 53760, Note_off_c, 0, 55, 95
2, 53760, Note_on_c, 0, 42, 95
2, 54240, Note_off_c, 0, 42, 95
2, 54240, Note_on_c, 0, 42, 95
2, 54720, Note_off_c, 0, 42, 95
2, 54720, Note_on_c, 0, 49, 95
2, 55200, Note_off_c, 0, 49, 95
2, 55200, Note_on_c, 0, 42, 95
2, 55680, Note_off_c, 0, 42, 95
2, 55680, Note_on_c, 0, 50, 95
2, 56160, Note_off_c, 0, 50, 95
2, 56160, Note_on_c, 0, 42, 95
2, 56640, Note_off_c, 0, 42, 95
2, 56640, Note_on_c, 1, 49, 95
2, 56800, Pitch_bend_c, 1, 8192
2, 56960, Pitch_bend_c, 1, 8320
2, 57120, Pitch_bend_c, 1, 8192
2, 57280, Pitch_bend_c, 1, 8320
2, 57440, Pitch_bend_c, 1, 8192
2, 57600, Pitch_bend_c, 1, 8320
2, 57600, Pitch_bend_c, 1, 8192
2, 57600, Note_off_c, 1, 49, 95
2, 57600, Note_on_c, 0, 50, 95
2, 57600, Note_on_c, 0, 43, 95
2, 58080, Note_off_c, 0, 50, 95
2, 58080, Note_off_c, 0, 43, 95
2, 61440, Note_on_c, 0, 49, 95
2, 61440, Note_on_c, 0, 42, 95
2, 61920, Note_off_c, 0, 49, 95
2, 61920, Note_off_c, 0, 42, 95
2, 62880, Note_on_c, 0, 40, 95
2, 63360, Note_off_c, 0, 40, 95
2, 63360, Note_on_c, 0, 49, 95
2, 63360, Note_on_c, 0, 42, 95
2, 63840, Note_off_c, 0, 49, 95
2, 63840, Note_off_c, 0, 42, 95
2, 64800, Note_on_c, 0, 50, 95
2, 64800, Note_on_c, 0, 43, 95
2, 65280, Note_off_c, 0, 50, 95
2, 65280, Note_off_c, 0, 43, 95
2, 65760, Note_on_c, 0, 50, 95
2, 65760, Note_on_c, 0, 43, 95
2, 66240, Note_off_c, 0, 50, 95
2, 66240, Note_off_c, 0, 43, 95
2, 66240, Note_on_c, 0, 40, 95
2, 66720, Note_off_c, 0, 40, 95
2, 66720, Note_on_c, 1, 49, 95
2, 66720, Note_on_c, 1, 42, 95
2, 66880, Pitch_bend_c, 1, 8192
2, 66880, Pitch_bend_c, 1, 8192
2, 67040, Pitch_bend_c, 1, 8320
2, 67040, Pitch_bend_c, 1, 8320
2, 67200, Pitch_bend_c, 1, 8192
2, 67200, Pitch_bend_c, 1, 8192
2, 67360, Pitch_bend_c, 1, 8320
2, 67360, Pitch_bend_c, 1, 8320
2, 67520, Pitch_bend_c, 1, 8192
2, 67520, Pitch_bend_c, 1, 8192
2, 67680, Pitch_bend_c, 1, 8320
2, 67680, Pitch_bend_c, 1, 8320
2, 67840, Pitch_bend_c, 1, 8192
2, 67840, Pitch_bend_c, 1, 8192
2, 68000, Pitch_bend_c, 1, 8320
2, 68000, Pitch_bend_c, 1, 8320
2, 68160, Pitch_bend_c, 1, 8192
2, 68160, Pitch_bend_c, 1, 8320
2, 68160, Pitch_bend_c, 1, 8192
2, 68160, Note_off_c, 1, 49, 95
2, 68160, Pitch_bend_c, 1, 8192
2, 68160, Pitch_bend_c, 1, 8320
2, 68160, Pitch_bend_c, 1, 8192
2, 68160, Note_off_c, 1, 42, 95
2, 68640, Note_on_c, 0, 40, 95
2, 69120, Note_off_c, 0, 40, 95
2, 69120, Note_on_c, 0, 49, 95
2, 69120, Note_on_c, 0, 42, 95
2, 69600, Note_off_c, 0, 49, 95
2, 69600, Note_off_c, 0, 42, 95
2, 70560, Note_on_c, 0, 40, 95
2, 71040, Note_off_c, 0, 40, 95
2, 71040, Note_on_c, 0, 49, 95
2, 71040, Note_on_c, 0, 42, 95
2, 71520, Note_off_c, 0, 49, 95
2, 71520, Note_off_c, 0, 42, 95
2, 72480, Note_on_c, 0, 50, 95
2, 72480, Note_on_c, 0, 43, 95
2, 72960, Note_off_c, 0, 50, 95
2, 72960, Note_off_c, 0, 43, 95
2, 73440, Note_on_c, 0, 50, 95
2, 73440, Note_on_c, 0, 43, 95
2, 73920, Note_off_c, 0, 50, 95
2, 73920, Note_off_c, 0, 43, 95
2, 73920, Note_on_c, 0, 40, 95
2, 74400, Note_off_c, 0, 40, 95
2, 74400, Note_on_c, 1, 49, 95
2, 74400, Note_on_c, 1, 42, 95
2, 74560, Pitch_bend_c, 1, 8192
2, 74560, Pitch_bend_c, 1, 8192
2, 74720, Pitch_bend_c, 1, 8320
2, 74720, Pitch_bend_c, 1, 8320
2, 74880, Pitch_bend_c, 1, 8192
2, 74880, Pitch_bend_c, 1, 8192
2, 75040, Pitch_bend_c, 1, 8320
2, 75040, Pitch_bend_c, 1, 8320
2, 75200, Pitch_bend_c, 1, 8192
2, 75200, Pitch_bend_c, 1, 8192
2, 75360, Pitch_bend_c, 1, 8320
2, 75360, Pitch_bend_c, 1, 8320
2, 75520, Pitch_bend_c, 1, 8192
2, 75520, Pitch_bend_c, 1, 8192
2, 75680, Pitch_bend_c, 1, 8320
2, 75680, Pitch_bend_c, 1, 8320
2, 75840, Pitch_bend_c, 1, 8192
2, 75840, Pitch_bend_c, 1, 8320
2, 75840, Pitch_bend_c, 1, 8192
2, 75840, Note_off_c, 1, 49, 95
2, 75840, Pitch_bend_c, 1, 8192
2, 75840, Pitch_bend_c, 1, 8320
2, 75840, Pitch_bend_c, 1, 8192
2, 75840, Note_off_c, 1, 42, 95
2, 76320, Note_on_c, 0, 40, 95
2, 76800, Note_off_c, 0, 40, 95
2, 76800, Note_on_c, 0, 49, 95
2, 76800, Note_on_c, 0, 42, 95
2, 77280, Note_off_c, 0, 49, 95
2, 77280, Note_off_c, 0, 42, 95
2, 78240, Note_on_c, 0, 40, 95
2, 78720, Note_off_c, 0, 40, 95
2, 78720, Note_on_c, 0, 49, 95
2, 78720, Note_on_c, 0, 42, 95
2, 79200, Note_off_c, 0, 49, 95
2, 79200, Note_off_c, 0, 42, 95
2, 80160, Note_on_c, 0, 50, 95
2, 80160, Note_on_c, 0, 43, 95
2, 80640, Note_off_c, 0, 50, 95
2, 80640, Note_off_c, 0, 43, 95
2, 81120, Note_on_c, 0, 50, 95
2, 81120, Note_on_c, 0, 43, 95
2, 81600, Note_off_c, 0, 50, 95
2, 81600, Note_off_c, 0, 43, 95
2, 81600, Note_on_c, 0, 40, 95
2, 82080, Note_off_c, 0, 40, 95
2, 82080, Note_on_c, 1, 49, 95
2, 82080, Note_on_c, 1, 42, 95
2, 82240, Pitch_bend_c, 1, 8192
2, 82240, Pitch_bend_c, 1, 8192
2, 82400, Pitch_bend_c, 1, 8320
2, 82400, Pitch_bend_c, 1, 8320
2, 82560, Pitch_bend_c, 1, 8192
2, 82560, Pitch_bend_c, 1, 8192
2, 82720, Pitch_bend_c, 1, 8320
2, 82720, Pitch_bend_c, 1, 8320
2, 82880, Pitch_bend_c, 1, 8192
2, 82880, Pitch_bend_c, 1, 8192
2, 83040, Pitch_bend_c, 1, 8320
2, 83040, Pitch_bend_c, 1, 8320
2, 83200, Pitch_bend_c, 1, 8192
2, 83200, Pitch_bend_c, 1, 8192
2, 83360, Pitch_bend_c, 1, 8320
2, 83360, Pitch_bend_c, 1, 8320
2, 83520, Pitch_bend_c, 1, 8192
2, 83520, Pitch_bend_c, 1, 8320
2, 83520, Pitch_bend_c, 1, 8192
2, 83520, Note_off_c, 1, 49, 95
2, 83520, Pitch_bend_c, 1, 8192
2, 83520, Pitch_bend_c, 1, 8320
2, 83520, Pitch_bend_c, 1, 8192
2, 83520, Note_off_c, 1, 42, 95
2, 84000, Note_on_c, 0, 40, 95
2, 84480, Note_off_c, 0, 40, 95
2, 84480, Note_on_c, 0, 49, 95
2, 84480, Note_on_c, 0, 42, 95
2, 84960, Note_off_c, 0, 49, 95
2, 84960, Note_off_c, 0, 42, 95
2, 85920, Note_on_c, 0, 40, 95
2, 86400, Note_off_c, 0, 40, 95
2, 86400, Note_on_c, 0, 49, 95
2, 86400, Note_on_c, 0, 42, 95
2, 86880, Note_off_c, 0, 49, 95
2, 86880, Note_off_c, 0, 42, 95
2, 87840, Note_on_c, 0, 50, 95
2, 87840, Note_on_c, 0, 43, 95
2, 88320, Note_off_c, 0, 50, 95
2, 88320, Note_off_c, 0, 43, 95
2, 88800, Note_on_c, 0, 50, 95
2, 88800, Note_on_c, 0, 43, 95
2, 89280, Note_off_c, 0, 50, 95
2, 89280, Note_off_c, 0, 43, 95
2, 89280, Note_on_c, 0, 40, 95
2, 89760, Note_off_c, 0, 40, 95
2, 89760, Note_on_c, 1, 49, 95
2, 89760, Note_on_c, 1, 42, 95
2, 89920, Pitch_bend_c, 1, 8192
2, 89920, Pitch_bend_c, 1, 8192
2, 90080, Pitch_bend_c, 1, 8320
2, 90080, Pitch_bend_c, 1, 8320
2, 90240, Pitch_bend_c, 1, 8192
2, 90240, Pitch_bend_c, 1, 8192
2, 90400, Pitch_bend_c, 1, 8320
2, 90400, Pitch_bend_c, 1, 8320
2, 90560, Pitch_bend_c, 1, 8192
2, 90560, Pitch_bend_c, 1, 8192
2, 90720, Pitch_bend_c, 1, 8320
2, 90720, Pitch_bend_c, 1, 8320
2, 90880, Pitch_bend_c, 1, 8192
2, 90880, Pitch_bend_c, 1, 8192
2, 91040, Pitch_bend_c, 1, 8320
2, 91040, Pitch_bend_c, 1, 8320
2, 91200, Pitch_bend_c, 1, 8192
2, 91200, Pitch_bend_c, 1, 8320
2, 91200, Pitch_bend_c, 1, 8192
2, 91200, Note_off_c, 1, 49, 95
2, 91200, Pitch_bend_c, 1, 8192
2, 91200, Pitch_bend_c, 1, 8320
2, 91200, Pitch_bend_c, 1, 8192
2, 91200, Note_off_c, 1, 42, 95
2, 91680, Note_on_c, 0, 40, 95
2, 92160, Note_off_c, 0, 40, 95
2, 92160, Note_on_c, 0, 50, 95
2, 92400, Note_off_c, 0, 50, 95
2, 92400, Note_on_c, 0, 47, 95
2, 92640, Note_off_c, 0, 47, 95
2, 92640, Note_on_c, 0, 50, 95
2, 92880, Note_off_c, 0, 50, 95
2, 92880, Note_on_c, 0, 47, 95
2, 93120, Note_off_c, 0, 47, 95
2, 93120, Note_on_c, 0, 55, 95
2, 93360, Note_off_c, 0, 55, 95
2, 93360, Note_on_c, 0, 50, 95
2, 93600, Note_off_c, 0, 50, 95
2, 93600, Note_on_c, 0, 55, 95
2, 93840, Note_off_c, 0, 55, 95
2, 93840, Note_on_c, 0, 50, 95
2, 94080, Note_off_c, 0, 50, 95
2, 94080, Note_on_c, 0, 54, 95
2, 94320, Note_off_c, 0, 54, 95
2, 94320, Note_on_c, 0, 50, 95
2, 94560, Note_off_c, 0, 50, 95
2, 94560, Note_on_c, 0, 54, 95
2, 94800, Note_off_c, 0, 54, 95
2, 94800, Note_on_c, 0, 50, 95
2, 95040, Note_off_c, 0, 50, 95
2, 95040, Note_on_c, 0, 49, 95
2, 95280, Note_off_c, 0, 49, 95
2, 95280, Note_on_c, 0, 45, 95
2, 95520, Note_off_c, 0, 45, 95
2, 95520, Note_on_c, 0, 49, 95
2, 95760, Note_off_c, 0, 49, 95
2, 95760, Note_on_c, 0, 45, 95
2, 96000, Note_off_c, 0, 45, 95
2, 96000, Note_on_c, 0, 45, 95
2, 96480, Note_off_c, 0, 45, 95
2, 96480, Note_on_c, 0, 49, 95
2, 96960, Note_off_c, 0, 49, 95
2, 96960, Note_on_c, 0, 50, 95
2, 97440, Note_off_c, 0, 50, 95
2, 97440, Note_on_c, 0, 50, 95
2, 97440, Note_on_c, 1, 43, 95
2, 97600, Pitch_bend_c, 1, 8192
2, 97760, Pitch_bend_c, 1, 8320
2, 97920, Pitch_bend_c, 1, 8192
2, 98080, Pitch_bend_c, 1, 8320
2, 98240, Pitch_bend_c, 1, 8192
2, 98400, Pitch_bend_c, 1, 8320
2, 98560, Pitch_bend_c, 1, 8192
2, 98720, Pitch_bend_c, 1, 8320
2, 98880, Pitch_bend_c, 1, 8192
2, 99040, Pitch_bend_c, 1, 8320
2, 99200, Pitch_bend_c, 1, 8192
2, 99360, Pitch_bend_c, 1, 8320
2, 99520, Pitch_bend_c, 1, 8192
2, 99680, Pitch_bend_c, 1, 8320
2, 99840, Note_off_c, 0, 50, 95
2, 99840, Pitch_bend_c, 1, 8192
2, 99840, Pitch_bend_c, 1, 8320
2, 99840, Pitch_bend_c, 1, 8192
2, 99840, Note_off_c, 1, 43, 95
2, 99840, Note_on_c, 0, 50, 95
2, 100080, Note_off_c, 0, 50, 95
2, 100080, Note_on_c, 0, 47, 95
2, 100320, Note_off_c, 0, 47, 95
2, 100320, Note_on_c, 0, 50, 95
2, 100560, Note_off_c, 0, 50, 95
2, 100560, Note_on_c, 0, 47, 95
2, 100800, Note_off_c, 0, 47, 95
2, 100800, Note_on_c, 0, 55, 95
2, 101040, Note_off_c, 0, 55, 95
2, 101040, Note_on_c, 0, 50, 95
2, 101280, Note_off_c, 0, 50, 95
2, 101280, Note_on_c, 0, 55, 95
2, 101520, Note_off_c, 0, 55, 95
2, 101520, Note_on_c, 0, 50, 95
2, 101760, Note_off_c, 0, 50, 95
2, 101760, Note_on_c, 0, 54, 95
2, 102000, Note_off_c, 0, 54, 95
2, 102000, Note_on_c, 0, 50, 95
2, 102240, Note_off_c, 0, 50, 95
2, 102240, Note_on_c, 0, 54, 95
2, 102480, Note_off_c, 0, 54, 95
2, 102480, Note_on_c, 0, 50, 95
2, 102720, Note_off_c, 0, 50, 95
2, 102720, Note_on_c, 0, 49, 95
2, 102960, Note_off_c, 0, 49, 95
2, 102960, Note_on_c, 0, 45, 95
2, 103200, Note_off_c, 0, 45, 95
2, 103200, Note_on_c, 0, 49, 95
2, 103440, Note_off_c, 0, 49, 95
2, 103440, Note_on_c, 0, 45, 95
2, 103680, Note_off_c, 0, 45, 95
2, 103680, Note_on_c, 0, 45, 95
2, 104160, Note_off_c, 0, 45, 95
2, 104160, Note_on_c, 0, 49, 95
2, 104640, Note_off_c, 0, 49, 95
2, 104640, Note_on_c, 0, 50, 95
2, 105120, Note_off_c, 0, 50, 95
2, 105120, Note_on_c, 0, 50, 95
2, 105120, Note_on_c, 1, 43, 95
2, 105280, Pitch_bend_c, 1, 8192
2, 105440, Pitch_bend_c, 1, 8320
2, 105600, Pitch_bend_c, 1, 8192
2, 105760, Pitch_bend_c, 1, 8320
2, 105920, Pitch_bend_c, 1, 8192
2, 106080, Pitch_bend_c, 1, 8320
2, 106240, Pitch_bend_c, 1, 8192
2, 106400, Pitch_bend_c, 1, 8320
2, 106560, Pitch_bend_c, 1, 8192
2, 106720, Pitch_bend_c, 1, 8320
2, 106880, Pitch_bend_c, 1, 8192
2, 107040, Pitch_bend_c, 1, 8320
2, 107200, Pitch_bend_c, 1, 8192
2, 107360, Pitch_bend_c, 1, 8320
2, 107520, Note_off_c, 0, 50, 95
2, 107520, Pitch_bend_c, 1, 8192
2, 107520, Pitch_bend_c, 1, 8320
2, 107520, Pitch_bend_c, 1, 8192
2, 107520, Note_off_c, 1, 43, 95
2, 107520, Note_on_c, 0, 50, 95
2, 107760, Note_off_c, 0, 50, 95
2, 107760, Note_on_c, 0, 47, 95
2, 108000, Note_off_c, 0, 47, 95
2, 108000, Note_on_c, 0, 50, 95
2, 108240, Note_off_c, 0, 50, 95
2, 108240, Note_on_c, 0, 47, 95
2, 108480, Note_off_c, 0, 47, 95
2, 108480, Note_on_c, 0, 55, 95
2, 108720, Note_off_c, 0, 55, 95
2, 108720, Note_on_c, 0, 50, 95
2, 108960, Note_off_c, 0, 50, 95
2, 108960, Note_on_c, 0, 55, 95
2, 109200, Note_off_c, 0, 55, 95
2, 109200, Note_on_c, 0, 50, 95
2, 109440, Note_off_c, 0, 50, 95
2, 109440, Note_on_c, 0, 54, 95
2, 109680, Note_off_c, 0, 54, 95
2, 109680, Note_on_c, 0, 50, 95
2, 109920, Note_off_c, 0, 50, 95
2, 109920, Note_on_c, 0, 54, 95
2, 110160, Note_off_c, 0, 54, 95
2, 110160, Note_on_c, 0, 50, 95
2, 110400, Note_off_c, 0, 50, 95
2, 110400, Note_on_c, 0, 49, 95
2, 110640, Note_off_c, 0, 49, 95
2, 110640, Note_on_c, 0, 45, 95
2, 110880, Note_off_c, 0, 45, 95
2, 110880, Note_on_c, 0, 49, 95
2, 111120, Note_off_c, 0, 49, 95
2, 111120, Note_on_c, 0, 45, 95
2, 111360, Note_off_c, 0, 45, 95
2, 111360, Note_on_c, 0, 45, 95
2, 111840, Note_off_c, 0, 45, 95
2, 111840, Note_on_c, 0, 49, 95
2, 112320, Note_off_c, 0, 49, 95
2, 112320, Note_on_c, 0, 50, 95
2, 112800, Note_off_c, 0, 50, 95
2, 112800, Note_on_c, 0, 50, 95
2, 112800, Note_on_c, 1, 43, 95
2, 112960, Pitch_bend_c, 1, 8192
2, 113120, Pitch_bend_c, 1, 8320
2, 113280, Pitch_bend_c, 1, 8192
2, 113440, Pitch_bend_c, 1, 8320
2, 113600, Pitch_bend_c, 1, 8192
2, 113760, Pitch_bend_c, 1, 8320
2, 113920, Pitch_bend_c, 1, 8192
2, 114080, Pitch_bend_c, 1, 8320
2, 114240, Pitch_bend_c, 1, 8192
2, 114400, Pitch_bend_c, 1, 8320
2, 114560, Pitch_bend_c, 1, 8192
2, 114720, Pitch_bend_c, 1, 8320
2, 114880, Pitch_bend_c, 1, 8192
2, 115040, Pitch_bend_c, 1, 8320
2, 115200, Note_off_c, 0, 50, 95
2, 115200, Pitch_bend_c, 1, 8192
2, 115200, Pitch_bend_c, 1, 8320
2, 115200, Pitch_bend_c, 1, 8192
2, 115200, Note_off_c, 1, 43, 95
2, 115200, Note_on_c, 0, 50, 95
2, 115440, Note_off_c, 0, 50, 95
2, 115440, Note_on_c, 0, 47, 95
2, 115680, Note_off_c, 0, 47, 95
2, 115680, Note_on_c, 0, 50, 95
2, 115920, Note_off_c, 0, 50, 95
2, 115920, Note_on_c, 0, 47, 95
2, 116160, Note_off_c, 0, 47, 95
2, 116160, Note_on_c, 0, 55, 95
2, 116400, Note_off_c, 0, 55, 95
2, 116400, Note_on_c, 0, 50, 95
2, 116640, Note_off_c, 0, 50, 95
2, 116640, Note_on_c, 0, 55, 95
2, 116880, Note_off_c, 0, 55, 95
2, 116880, Note_on_c, 0, 50, 95
2, 117120, Note_off_c, 0, 50, 95
2, 117120, Note_on_c, 0, 54, 95
2, 117360, Note_off_c, 0, 54, 95
2, 117360, Note_on_c, 0, 50, 95
2, 117600, Note_off_c, 0, 50, 95
2, 117600, Note_on_c, 0, 54, 95
2, 117840, Note_off_c, 0, 54, 95
2, 117840, Note_on_c, 0, 50, 95
2, 118080, Note_off_c, 0, 50, 95
2, 118080, Note_on_c, 0, 49, 95
2, 118320, Note_off_c, 0, 49, 95
2, 118320, Note_on_c, 0, 45, 95
2, 118560, Note_off_c, 0, 45, 95
2, 118560, Note_on_c, 0, 49, 95
2, 118800, Note_off_c, 0, 49, 95
2, 118800, Note_on_c, 0, 45, 95
2, 119040, Note_off_c, 0, 45, 95
2, 119040, Note_on_c, 0, 45, 95
2, 119520, Note_off_c, 0, 45, 95
2, 119520, Note_on_c, 0, 49, 95
2, 120000, Note_off_c, 0, 49, 95
2, 120000, Note_on_c, 0, 50, 95
2, 120480, Note_off_c, 0, 50, 95
2, 120480, Note_on_c, 0, 50, 95
2, 120480, Note_on_c, 1, 43, 95
2, 120640, Pitch_bend_c, 1, 8192
2, 120800, Pitch_bend_c, 1, 8320
2, 120960, Pitch_bend_c, 1, 8192
2, 121120, Pitch_bend_c, 1, 8320
2, 121280, Pitch_bend_c, 1, 8192
2, 121440, Pitch_bend_c, 1, 8320
2, 121600, Pitch_bend_c, 1, 8192
2, 121760, Pitch_bend_c, 1, 8320
2, 121920, Pitch_bend_c, 1, 8192
2, 122080, Pitch_bend_c, 1, 8320
2, 122240, Pitch_bend_c, 1, 8192
2, 122400, Pitch_bend_c, 1, 8320
2, 122560, Pitch_bend_c, 1, 8192
2, 122720, Pitch_bend_c, 1, 8320
2, 122880, Note_off_c, 0, 50, 95
2, 122880, Pitch_bend_c, 1, 8192
2, 122880, Pitch_bend_c, 1, 8320
2, 122880, Pitch_bend_c, 1, 8192
2, 122880, Note_off_c, 1, 43, 95
2, 122880, Note_on_c, 0, 42, 95
2, 123360, Note_off_c, 0, 42, 95
2, 123360, Note_on_c, 0, 42, 95
2, 123840, Note_off_c, 0, 42, 95
2, 123840, Note_on_c, 0, 49, 95
2, 124320, Note_off_c, 0, 49, 95
2, 124320, Note_on_c, 0, 42, 95
2, 124800, Note_off_c, 0, 42, 95
2, 124800, Note_on_c, 0, 50, 95
2, 125280, Note_off_c, 0, 50, 95
2, 125280, Note_on_c, 0, 42, 95
2, 125760, Note_off_c, 0, 42, 95
2, 125760, Note_on_c, 1, 49, 95
2, 125920, Pitch_bend_c, 1, 8192
2, 126080, Pitch_bend_c, 1, 8320
2, 126240, Pitch_bend_c, 1, 8192
2, 126400, Pitch_bend_c, 1, 8320
2, 126560, Pitch_bend_c, 1, 8192
2, 126720, Pitch_bend_c, 1, 8320
2, 126720, Pitch_bend_c, 1, 8192
2, 126720, Note_off_c, 1, 49, 95
2, 126720, Note_on_c, 0, 50, 95
2, 126720, Note_on_c, 0, 43, 95
2, 127200, Note_off_c, 0, 50, 95
2, 127200, Note_off_c, 0, 43, 95
2, 127200, Note_on_c, 0, 50, 95
2, 127200, Note_on_c, 0, 43, 95
2, 127680, Note_off_c, 0, 50, 95
2, 127680, Note_off_c, 0, 43, 95
2, 127680, Note_on_c, 0, 49, 95
2, 128160, Note_off_c, 0, 49, 95
2, 128160, Note_on_c, 0, 50, 95
2, 128640, Note_off_c, 0, 50, 95
2, 128640, Note_on_c, 0, 43, 95
2, 128880, Note_off_c, 0, 43, 95
2, 128880, Note_on_c, 0, 43, 95
2, 129120, Note_off_c, 0, 43, 95
2, 129120, Note_on_c, 0, 57, 95
2, 129600, Note_off_c, 0, 57, 95
2, 129600, Note_on_c, 0, 43, 95
2, 129840, Note_off_c, 0, 43, 95
2, 129840, Note_on_c, 0, 43, 95
2, 130080, Note_off_c, 0, 43, 95
2, 130080, Note_on_c, 0, 55, 95
2, 130560, Note_off_c, 0, 55, 95
2, 130560, Note_on_c, 0, 42, 95
2, 131040, Note_off_c, 0, 42, 95
2, 131040, Note_on_c, 0, 42, 95
2, 131520, Note_off_c, 0, 42, 95
2, 131520, Note_on_c, 0, 49, 95
2, 132000, Note_off_c, 0, 49, 95
2, 132000, Note_on_c, 0, 42, 95
2, 132480, Note_off_c, 0, 42, 95
2, 132480, Note_on_c, 0, 50, 95
2, 132960, Note_off_c, 0, 50, 95
2, 132960, Note_on_c, 0, 42, 95
2, 133440, Note_off_c, 0, 42, 95
2, 133440, Note_on_c, 1, 49, 95
2, 133600, Pitch_bend_c, 1, 8192
2, 133760, Pitch_bend_c, 1, 8320
2, 133920, Pitch_bend_c, 1, 8192
2, 134080, Pitch_bend_c, 1, 8320
2, 134240, Pitch_bend_c, 1, 8192
2, 134400, Pitch_bend_c, 1, 8320
2, 134400, Pitch_bend_c, 1, 8192
2, 134400, Note_off_c, 1, 49, 95
2, 134400, Note_on_c, 0, 50, 95
2, 134400, Note_on_c, 0, 43, 95
2, 134880, Note_off_c, 0, 50, 95
2, 134880, Note_off_c, 0, 43, 95
2, 134880, Note_on_c, 0, 50, 95
2, 134880, Note_on_c, 0, 43, 95
2, 135360, Note_off_c, 0, 50, 95
2, 135360, Note_off_c, 0, 43, 95
2, 136320, Note_on_c, 0, 62, 95
2, 136480, Note_off_c, 0, 62, 95
2, 136480, Note_on_c, 0, 61, 95
2, 136640, Note_off_c, 0, 61, 95
2, 136640, Note_on_c, 0, 59, 95
2, 136800, Note_off_c, 0, 59, 95
2, 136800, Note_on_c, 0, 57, 95
2, 136960, Note_off_c, 0, 57, 95
2, 136960, Note_on_c, 0, 55, 95
2, 137120, Note_off_c, 0, 55, 95
2, 137120, Note_on_c, 0, 54, 95
2, 137280, Note_off_c, 0, 54, 95
2, 137280, Note_on_c, 0, 52, 95
2, 137440, Note_off_c, 0, 52, 95
2, 137440, Note_on_c, 0, 50, 95
2, 137600, Note_off_c, 0, 50, 95
2, 137600, Note_on_c, 0, 49, 95
2, 137760, Note_off_c, 0, 49, 95
2, 137760, Note_on_c, 0, 47, 95
2, 137920, Note_off_c, 0, 47, 95
2, 137920, Note_on_c, 0, 45, 95
2, 138080, Note_off_c, 0, 45, 95
2, 138080, Note_on_c, 0, 43, 95
2, 138240, Note_off_c, 0, 43, 95
2, 138240, Note_on_c, 0, 42, 95
2, 138720, Note_off_c, 0, 42, 95
2, 138720, Note_on_c, 0, 42, 95
2, 139200, Note_off_c, 0, 42, 95
2, 139200, Note_on_c, 0, 49, 95
2, 139680, Note_off_c, 0, 49, 95
2, 139680, Note_on_c, 0, 42, 95
2, 140160, Note_off_c, 0, 42, 95
2, 140160, Note_on_c, 0, 50, 95
2, 140640, Note_off_c, 0, 50, 95
2, 140640, Note_on_c, 0, 42, 95
2, 141120, Note_off_c, 0, 42, 95
2, 141120, Note_on_c, 1, 49, 95
2, 141280, Pitch_bend_c, 1, 8192
2, 141440, Pitch_bend_c, 1, 8320
2, 141600, Pitch_bend_c, 1, 8192
2, 141760, Pitch_bend_c, 1, 8320
2, 141920, Pitch_bend_c, 1, 8192
2, 142080, Pitch_bend_c, 1, 8320
2, 142080, Pitch_bend_c, 1, 8192
2, 142080, Note_off_c, 1, 49, 95
2, 142080, Note_on_c, 0, 50, 95
2, 142080, Note_on_c, 0, 43, 95
2, 142560, Note_off_c, 0, 50, 95
2, 142560, Note_off_c, 0, 43, 95
2, 142560, Note_on_c, 0, 50, 95
2, 142560, Note_on_c, 0, 43, 95
2, 143040, Note_off_c, 0, 50, 95
2, 143040, Note_off_c, 0, 43, 95
2, 143040, Note_on_c, 0, 49, 95
2, 143520, Note_off_c, 0, 49, 95
2, 143520, Note_on_c, 0, 50, 95
2, 144000, Note_off_c, 0, 50, 95
2, 144000, Note_on_c, 0, 43, 95
2, 144240, Note_off_c, 0, 43, 95
2, 144240, Note_on_c, 0, 43, 95
2, 144480, Note_off_c, 0, 43, 95
2, 144480, Note_on_c, 0, 57, 95
2, 144960, Note_off_c, 0, 57, 95
2, 144960, Note_on_c, 0, 43, 95
2, 145200, Note_off_c, 0, 43, 95
2, 145200, Note_on_c, 0, 43, 95
2, 145440, Note_off_c, 0, 43, 95
2, 145440, Note_on_c, 0, 55, 95
2, 145920, Note_off_c, 0, 55, 95
2, 145920, Note_on_c, 0, 42, 95
2, 146400, Note_off_c, 0, 42, 95
2, 146400, Note_on_c, 0, 42, 95
2, 146880, Note_off_c, 0, 42, 95
2, 146880, Note_on_c, 0, 49, 95
2, 147360, Note_off_c, 0, 49, 95
2, 147360, Note_on_c, 0, 42, 95
2, 147840, Note_off_c, 0, 42, 95
2, 147840, Note_on_c, 0, 50, 95
2, 148320, Note_off_c, 0, 50, 95
2, 148320, Note_on_c, 0, 42, 95
2, 148800, Note_off_c, 0, 42, 95
2, 148800, Note_on_c, 1, 49, 95
2, 148960, Pitch_bend_c, 1, 8192
2, 149120, Pitch_bend_c, 1, 8320
2, 149280, Pitch_bend_c, 1, 8192
2, 149440, Pitch_bend_c, 1, 8320
2, 149600, Pitch_bend_c, 1, 8192
2, 149760, Pitch_bend_c, 1, 8320
2, 149760, Pitch_bend_c, 1, 8192
2, 149760, Note_off_c, 1, 49, 95
2, 149760, Note_on_c, 0, 50, 95
2, 149760, Note_on_c, 0, 43, 95
2, 150240, Note_off_c, 0, 50, 95
2, 150240, Note_off_c, 0, 43, 95
2, 153600, Note_on_c, 0, 49, 95
2, 153600, Note_on_c, 0, 42, 95
2, 154080, Note_off_c, 0, 49, 95
2, 154080, Note_off_c, 0, 42, 95
2, 155040, Note_on_c, 0, 40, 95
2, 155520, Note_off_c, 0, 40, 95
2, 155520, Note_on_c, 0, 49, 95
2, 155520, Note_on_c, 0, 42, 95
2, 156000, Note_off_c, 0, 49, 95
2, 156000, Note_off_c, 0, 42, 95
2, 156960, Note_on_c, 0, 50, 95
2, 156960, Note_on_c, 0, 43, 95
2, 157440, Note_off_c, 0, 50, 95
2, 157440, Note_off_c, 0, 43, 95
2, 157920, Note_on_c, 0, 50, 95
2, 157920, Note_on_c, 0, 43, 95
2, 158400, Note_off_c, 0, 50, 95
2, 158400, Note_off_c, 0, 43, 95
2, 158400, Note_on_c, 0, 40, 95
2, 158880, Note_off_c, 0, 40, 95
2, 158880, Note_on_c, 1, 49, 95
2, 158880, Note_on_c, 1, 42, 95
2, 159040, Pitch_bend_c, 1, 8192
2, 159040, Pitch_bend_c, 1, 8192
2, 159200, Pitch_bend_c, 1, 8320
2, 159200, Pitch_bend_c, 1, 8320
2, 159360, Pitch_bend_c, 1, 8192
2, 159360, Pitch_bend_c, 1, 8192
2, 159520, Pitch_bend_c, 1, 8320
2, 159520, Pitch_bend_c, 1, 8320
2, 159680, Pitch_bend_c, 1, 8192
2, 159680, Pitch_bend_c, 1, 8192
2, 159840, Pitch_bend_c, 1, 8320
2, 159840, Pitch_bend_c, 1, 8320
2, 160000, Pitch_bend_c, 1, 8192
2, 160000, Pitch_bend_c, 1, 8192
2, 160160, Pitch_bend_c, 1, 8320
2, 160160, Pitch_bend_c, 1, 8320
2, 160320, Pitch_bend_c, 1, 8192
2, 160320, Pitch_bend_c, 1, 8320
2, 160320, Pitch_bend_c, 1, 8192
2, 160320, Note_off_c, 1, 49, 95
2, 160320, Pitch_bend_c, 1, 8192
2, 160320, Pitch_bend_c, 1, 8320
2, 160320, Pitch_bend_c, 1, 8192
2, 160320, Note_off_c, 1, 42, 95
2, 160800, Note_on_c, 0, 40, 95
2, 161280, Note_off_c, 0, 40, 95
2, 161280, Note_on_c, 0, 49, 95
2, 161280, Note_on_c, 0, 42, 95
2, 161760, Note_off_c, 0, 49, 95
2, 161760, Note_off_c, 0, 42, 95
2, 162720, Note_on_c, 0, 40, 95
2, 163200, Note_off_c, 0, 40, 95
2, 163200, Note_on_c, 0, 49, 95
2, 163200, Note_on_c, 0, 42, 95
2, 163680, Note_off_c, 0, 49, 95
2, 163680, Note_off_c, 0, 42, 95
2, 164640, Note_on_c, 0, 50, 95
2, 164640, Note_on_c, 0, 43, 95
2, 165120, Note_off_c, 0, 50, 95
2, 165120, Note_off_c, 0, 43, 95
2, 165600, Note_on_c, 0, 50, 95
2, 165600, Note_on_c, 0, 43, 95
2, 166080, Note_off_c, 0, 50, 95
2, 166080, Note_off_c, 0, 43, 95
2, 166080, Note_on_c, 0, 40, 95
2, 166560, Note_off_c, 0, 40, 95
2, 166560, Note_on_c, 1, 49, 95
2, 166560, Note_on_c, 1, 42, 95
2, 166720, Pitch_bend_c, 1, 8192
2, 166720, Pitch_bend_c, 1, 8192
2, 166880, Pitch_bend_c, 1, 8320
2, 166880, Pitch_bend_c, 1, 8320
2, 167040, Pitch_bend_c, 1, 8192
2, 167040, Pitch_bend_c, 1, 8192
2, 167200, Pitch_bend_c, 1, 8320
2, 167200, Pitch_bend_c, 1, 8320
2, 167360, Pitch_bend_c, 1, 8192
2, 167360, Pitch_bend_c, 1, 8192
2, 167520, Pitch_bend_c, 1, 8320
2, 167520, Pitch_bend_c, 1, 8320
2, 167680, Pitch_bend_c, 1, 8192
2, 167680, Pitch_bend_c, 1, 8192
2, 167840, Pitch_bend_c, 1, 8320
2, 167840, Pitch_bend_c, 1, 8320
2, 168000, Pitch_bend_c, 1, 8192
2, 168000, Pitch_bend_c, 1, 8320
2, 168000, Pitch_bend_c, 1, 8192
2, 168000, Note_off_c, 1, 49, 95
2, 168000, Pitch_bend_c, 1, 8192
2, 168000, Pitch_bend_c, 1, 8320
2, 168000, Pitch_bend_c, 1, 8192
2, 168000, Note_off_c, 1, 42, 95
2, 168480, Note_on_c, 0, 40, 95
2, 168960, Note_off_c, 0, 40, 95
2, 168960, Note_on_c, 0, 49, 95
2, 168960, Note_on_c, 0, 42, 95
2, 169440, Note_off_c, 0, 49, 95
2, 169440, Note_off_c, 0, 42, 95
2, 170400, Note_on_c, 0, 40, 95
2, 170880, Note_off_c, 0, 40, 95
2, 170880, Note_on_c, 0, 49, 95
2, 170880, Note_on_c, 0, 42, 95
2, 171360, Note_off_c, 0, 49, 95
2, 171360, Note_off_c, 0, 42, 95
2, 172320, Note_on_c, 0, 50, 95
2, 172320, Note_on_c, 0, 43, 95
2, 172800, Note_off_c, 0, 50, 95
2, 172800, Note_off_c, 0, 43, 95
2, 173280, Note_on_c, 0, 50, 95
2, 173280, Note_on_c, 0, 43, 95
2, 173760, Note_off_c, 0, 50, 95
2, 173760, Note_off_c, 0, 43, 95
2, 173760, Note_on_c, 0, 40, 95
2, 174240, Note_off_c, 0, 40, 95
2, 174240, Note_on_c, 1, 49, 95
2, 174240, Note_on_c, 1, 42, 95
2, 174400, Pitch_bend_c, 1, 8192
2, 174400, Pitch_bend_c, 1, 8192
2, 174560, Pitch_bend_c, 1, 8320
2, 174560, Pitch_bend_c, 1, 8320
2, 174720, Pitch_bend_c, 1, 8192
2, 174720, Pitch_bend_c, 1, 8192
2, 174880, Pitch_bend_c, 1, 8320
2, 174880, Pitch_bend_c, 1, 8320
2, 175040, Pitch_bend_c, 1, 8192
2, 175040, Pitch_bend_c, 1, 8192
2, 175200, Pitch_bend_c, 1, 8320
2, 175200, Pitch_bend_c, 1, 8320
2, 175360, Pitch_bend_c, 1, 8192
2, 175360, Pitch_bend_c, 1, 8192
2, 175520, Pitch_bend_c, 1, 8320
2, 175520, Pitch_bend_c, 1, 8320
2, 175680, Pitch_bend_c, 1, 8192
2, 175680, Pitch_bend_c, 1, 8320
2, 175680, Pitch_bend_c, 1, 8192
2, 175680, Note_off_c, 1, 49, 95
2, 175680, Pitch_bend_c, 1, 8192
2, 175680, Pitch_bend_c, 1, 8320
2, 175680, Pitch_bend_c, 1, 8192
2, 175680, Note_off_c, 1, 42, 95
2, 176160, Note_on_c, 0, 40, 95
2, 176640, Note_off_c, 0, 40, 95
2, 176640, Note_on_c, 0, 49, 95
2, 176640, Note_on_c, 0, 42, 95
2, 177120, Note_off_c, 0, 49, 95
2, 177120, Note_off_c, 0, 42, 95
2, 178080, Note_on_c, 0, 40, 95
2, 178560, Note_off_c, 0, 40, 95
2, 178560, Note_on_c, 0, 49, 95
2, 178560, Note_on_c, 0, 42, 95
2, 179040, Note_off_c, 0, 49, 95
2, 179040, Note_off_c, 0, 42, 95
2, 180000, Note_on_c, 0, 50, 95
2, 180000, Note_on_c, 0, 43, 95
2, 180480, Note_off_c, 0, 50, 95
2, 180480, Note_off_c, 0, 43, 95
2, 180960, Note_on_c, 0, 50, 95
2, 180960, Note_on_c, 0, 43, 95
2, 181440, Note_off_c, 0, 50, 95
2, 181440, Note_off_c, 0, 43, 95
2, 181440, Note_on_c, 0, 40, 95
2, 181920, Note_off_c, 0, 40, 95
2, 181920, Note_on_c, 1, 49, 95
2, 181920, Note_on_c, 1, 42, 95
2, 182080, Pitch_bend_c, 1, 8192
2, 182080, Pitch_bend_c, 1, 8192
2, 182240, Pitch_bend_c, 1, 8320
2, 182240, Pitch_bend_c, 1, 8320
2, 182400, Pitch_bend_c, 1, 8192
2, 182400, Pitch_bend_c, 1, 8192
2, 182560, Pitch_bend_c, 1, 8320
2, 182560, Pitch_bend_c, 1, 8320
2, 182720, Pitch_bend_c, 1, 8192
2, 182720, Pitch_bend_c, 1, 8192
2, 182880, Pitch_bend_c, 1, 8320
2, 182880, Pitch_bend_c, 1, 8320
2, 183040, Pitch_bend_c, 1, 8192
2, 183040, Pitch_bend_c, 1, 8192
2, 183200, Pitch_bend_c, 1, 8320
2, 183200, Pitch_bend_c, 1, 8320
2, 183360, Pitch_bend_c, 1, 8192
2, 183360, Pitch_bend_c, 1, 8320
2, 183360, Pitch_bend_c, 1, 8192
2, 183360, Note_off_c, 1, 49, 95
2, 183360, Pitch_bend_c, 1, 8192
2, 183360, Pitch_bend_c, 1, 8320
2, 183360, Pitch_bend_c, 1, 8192
2, 183360, Note_off_c, 1, 42, 95
2, 183840, Note_on_c, 0, 40, 95
2, 184320, Note_off_c, 0, 40, 95
2, 184320, Note_on_c, 0, 54, 95
2, 184320, Note_on_c, 0, 47, 95
2, 184800, Note_off_c, 0, 54, 95
2, 184800, Note_off_c, 0, 47, 95
2, 184800, Note_on_c, 0, 47, 95
2, 185040, Note_off_c, 0, 47, 95
2, 185040, Note_on_c, 0, 47, 95
2, 185280, Note_off_c, 0, 47, 95
2, 185280, Note_on_c, 0, 47, 95
2, 185520, Note_off_c, 0, 47, 95
2, 185520, Note_on_c, 0, 47, 95
2, 185760, Note_off_c, 0, 47, 95
2, 185760, Note_on_c, 0, 54, 95
2, 185760, Note_on_c, 0, 47, 95
2, 186720, Note_off_c, 0, 54, 95
2, 186720, Note_off_c, 0, 47, 95
2, 186720, Note_on_c, 0, 54, 95
2, 186720, Note_on_c, 0, 47, 95
2, 187680, Note_off_c, 0, 54, 95
2, 187680, Note_off_c, 0, 47, 95
2, 187680, Note_on_c, 0, 54, 95
2, 187680, Note_on_c, 0, 47, 95
2, 188160, Note_off_c, 0, 54, 95
2, 188160, Note_off_c, 0, 47, 95
2, 188160, Note_on_c, 0, 52, 95
2, 188160, Note_on_c, 0, 45, 95
2, 188640, Note_off_c, 0, 52, 95
2, 188640, Note_off_c, 0, 45, 95
2, 188640, Note_on_c, 0, 45, 95
2, 188880, Note_off_c, 0, 45, 95
2, 188880, Note_on_c, 0, 45, 95
2, 189120, Note_off_c, 0, 45, 95
2, 189120, Note_on_c, 0, 45, 95
2, 189360, Note_off_c, 0, 45, 95
2, 189360, Note_on_c, 0, 45, 95
2, 189600, Note_off_c, 0, 45, 95
2, 189600, Note_on_c, 0, 52, 95
2, 189600, Note_on_c, 0, 45, 95
2, 190560, Note_off_c, 0, 52, 95
2, 190560, Note_off_c, 0, 45, 95
2, 190560, Note_on_c, 0, 52, 95
2, 190560, Note_on_c, 0, 45, 95
2, 191520, Note_off_c, 0, 52, 95
2, 191520, Note_off_c, 0, 45, 95
2, 191520, Note_on_c, 0, 52, 95
2, 191520, Note_on_c, 0, 45, 95
2, 192000, Note_off_c, 0, 52, 95
2, 192000, Note_off_c, 0, 45, 95
2, 192000, Note_on_c, 0, 50, 95
2, 192000, Note_on_c, 0, 43, 95
2, 192480, Note_off_c, 0, 50, 95
2, 192480, Note_off_c, 0, 43, 95
2, 192480, Note_on_c, 0, 43, 95
2, 192720, Note_off_c, 0, 43, 95
2, 192720, Note_on_c, 0, 43, 95
2, 192960, Note_off_c, 0, 43, 95
2, 192960, Note_on_c, 0, 43, 95
2, 193200, Note_off_c, 0, 43, 95
2, 193200, Note_on_c, 0, 43, 95
2, 193440, Note_off_c, 0, 43, 95
2, 193440, Note_on_c, 0, 50, 95
2, 193440, Note_on_c, 0, 43, 95
2, 194400, Note_off_c, 0, 50, 95
2, 194400, Note_off_c, 0, 43, 95
2, 194400, Note_on_c, 0, 50, 95
2, 194400, Note_on_c, 0, 43, 95
2, 195360, Note_off_c, 0, 50, 95
2, 195360, Note_off_c, 0, 43, 95
2, 195360, Note_on_c, 0, 50, 95
2, 195360, Note_on_c, 0, 43, 95
2, 195840, Note_off_c, 0, 50, 95
2, 195840, Note_off_c, 0, 43, 95
2, 195840, Note_on_c, 0, 50, 95
2, 195840, Note_on_c, 0, 43, 95
2, 196320, Note_off_c, 0, 50, 95
2, 196320, Note_off_c, 0, 43, 95
2, 196320, Note_on_c, 0, 43, 95
2, 196560, Note_off_c, 0, 43, 95
2, 196560, Note_on_c, 0, 43, 95
2, 196800, Note_off_c, 0, 43, 95
2, 196800, Note_on_c, 0, 43, 95
2, 197040, Note_off_c, 0, 43, 95
2, 197040, Note_on_c, 0, 43, 95
2, 197280, Note_off_c, 0, 43, 95
2, 197280, Note_on_c, 0, 50, 95
2, 197280, Note_on_c, 0, 43, 95
2, 198240, Note_off_c, 0, 50, 95
2, 198240, Note_off_c, 0, 43, 95
2, 198240, Note_on_c, 0, 50, 95
2, 198240, Note_on_c, 0, 43, 95
2, 199200, Note_off_c, 0, 50, 95
2, 199200, Note_off_c, 0, 43, 95
2, 199200, Note_on_c, 0, 52, 95
2, 199200, Note_on_c, 0, 45, 95
2, 199680, Note_off_c, 0, 52, 95
2, 199680, Note_off_c, 0, 45, 95
2, 199680, Note_on_c, 0, 54, 95
2, 199680, Note_on_c, 0, 47, 95
2, 200160, Note_off_c, 0, 54, 95
2, 200160, Note_off_c, 0, 47, 95
2, 200160, Note_on_c, 0, 47, 95
2, 200400, Note_off_c, 0, 47, 95
2, 200400, Note_on_c, 0, 47, 95
2, 200640, Note_off_c, 0, 47, 95
2, 200640, Note_on_c, 0, 47, 95
2, 200880, Note_off_c, 0, 47, 95
2, 200880, Note_on_c, 0, 47, 95
2, 201120, Note_off_c, 0, 47, 95
2, 201120, Note_on_c, 0, 54, 95
2, 201120, Note_on_c, 0, 47, 95
2, 202080, Note_off_c, 0, 54, 95
2, 202080, Note_off_c, 0, 47, 95
2, 202080, Note_on_c, 0, 54, 95
2, 202080, Note_on_c, 0, 47, 95
2, 203040, Note_off_c, 0, 54, 95
2, 203040, Note_off_c, 0, 47, 95
2, 203040, Note_on_c, 0, 54, 95
2, 203040, Note_on_c, 0, 47, 95
2, 203520, Note_off_c, 0, 54, 95
2, 203520, Note_off_c, 0, 47, 95
2, 203520, Note_on_c, 0, 52, 95
2, 203520, Note_on_c, 0, 45, 95
2, 204000, Note_off_c, 0, 52, 95
2, 204000, Note_off_c, 0, 45, 95
2, 204000, Note_on_c, 0, 45, 95
2, 204240, Note_off_c, 0, 45, 95
2, 204240, Note_on_c, 0, 45, 95
2, 204480, Note_off_c, 0, 45, 95
2, 204480, Note_on_c, 0, 45, 95
2, 204720, Note_off_c, 0, 45, 95
2, 204720, Note_on_c, 0, 45, 95
2, 204960, Note_off_c, 0, 45, 95
2, 204960, Note_on_c, 0, 52, 95
2, 204960, Note_on_c, 0, 45, 95
2, 205920, Note_off_c, 0, 52, 95
2, 205920, Note_off_c, 0, 45, 95
2, 205920, Note_on_c, 0, 52, 95
2, 205920, Note_on_c, 0, 45, 95
2, 206880, Note_off_c, 0, 52, 95
2, 206880, Note_off_c, 0, 45, 95
2, 206880, Note_on_c, 0, 52, 95
2, 206880, Note_on_c, 0, 45, 95
2, 207360, Note_off_c, 0, 52, 95
2, 207360, Note_off_c, 0, 45, 95
2, 207360, Note_on_c, 0, 50, 95
2, 207360, Note_on_c, 0, 43, 95
2, 207840, Note_off_c, 0, 50, 95
2, 207840, Note_off_c, 0, 43, 95
2, 207840, Note_on_c, 0, 43, 95
2, 208080, Note_off_c, 0, 43, 95
2, 208080, Note_on_c, 0, 43, 95
2, 208320, Note_off_c, 0, 43, 95
2, 208320, Note_on_c, 0, 43, 95
2, 208560, Note_off_c, 0, 43, 95
2, 208560, Note_on_c, 0, 43, 95
2, 208800, Note_off_c, 0, 43, 95
2, 208800, Note_on_c, 0, 50, 95
2, 208800, Note_on_c, 0, 43, 95
2, 209760, Note_off_c, 0, 50, 95
2, 209760, Note_off_c, 0, 43, 95
2, 209760, Note_on_c, 0, 50, 95
2, 209760, Note_on_c, 0, 43, 95
2, 210720, Note_off_c, 0, 50, 95
2, 210720, Note_off_c, 0, 43, 95
2, 210720, Note_on_c, 0, 50, 95
2, 210720, Note_on_c, 0, 43, 95
2, 211200, Note_off_c, 0, 50, 95
2, 211200, Note_off_c, 0, 43, 95
2, 211200, Note_on_c, 0, 50, 95
2, 211200, Note_on_c, 0, 43, 95
2, 211680, Note_off_c, 0, 50, 95
2, 211680, Note_off_c, 0, 43, 95
2, 211680, Note_on_c, 0, 43, 95
2, 211920, Note_off_c, 0, 43, 95
2, 211920, Note_on_c, 0, 43, 95
2, 212160, Note_off_c, 0, 43, 95
2, 212160, Note_on_c, 0, 43, 95
2, 212400, Note_off_c, 0, 43, 95
2, 212400, Note_on_c, 0, 43, 95
2, 212640, Note_off_c, 0, 43, 95
2, 212640, Note_on_c, 0, 50, 95
2, 212640, Note_on_c, 0, 43, 95
2, 213600, Note_off_c, 0, 50, 95
2, 213600, Note_off_c, 0, 43, 95
2, 213600, Note_on_c, 0, 50, 95
2, 213600, Note_on_c, 0, 43, 95
2, 214560, Note_off_c, 0, 50, 95
2, 214560, Note_off_c, 0, 43, 95
2, 214560, Note_on_c, 0, 52, 95
2, 214560, Note_on_c, 0, 45, 95
2, 215040, Note_off_c, 0, 52, 95
2, 215040, Note_off_c, 0, 45, 95
2, 215040, Note_on_c, 0, 49, 95
2, 215040, Note_on_c, 0, 42, 95
2, 215520, Note_off_c, 0, 49, 95
2, 215520, Note_off_c, 0, 42, 95
2, 216480, Note_on_c, 0, 40, 95
2, 216960, Note_off_c, 0, 40, 95
2, 216960, Note_on_c, 0, 49, 95
2, 216960, Note_on_c, 0, 42, 95
2, 217440, Note_off_c, 0, 49, 95
2, 217440, Note_off_c, 0, 42, 95
2, 218400, Note_on_c, 0, 50, 95
2, 218400, Note_on_c, 0, 43, 95
2, 218880, Note_off_c, 0, 50, 95
2, 218880, Note_off_c, 0, 43, 95
2, 219360, Note_on_c, 0, 50, 95
2, 219360, Note_on_c, 0, 43, 95
2, 219840, Note_off_c, 0, 50, 95
2, 219840, Note_off_c, 0, 43, 95
2, 219840, Note_on_c, 0, 40, 95
2, 220320, Note_off_c, 0, 40, 95
2, 220320, Note_on_c, 1, 49, 95
2, 220320, Note_on_c, 1, 42, 95
2, 220480, Pitch_bend_c, 1, 8192
2, 220480, Pitch_bend_c, 1, 8192
2, 220640, Pitch_bend_c, 1, 8320
2, 220640, Pitch_bend_c, 1, 8320
2, 220800, Pitch_bend_c, 1, 8192
2, 220800, Pitch_bend_c, 1, 8192
2, 220960, Pitch_bend_c, 1, 8320
2, 220960, Pitch_bend_c, 1, 8320
2, 221120, Pitch_bend_c, 1, 8192
2, 221120, Pitch_bend_c, 1, 8192
2, 221280, Pitch_bend_c, 1, 8320
2, 221280, Pitch_bend_c, 1, 8320
2, 221440, Pitch_bend_c, 1, 8192
2, 221440, Pitch_bend_c, 1, 8192
2, 221600, Pitch_bend_c, 1, 8320
2, 221600, Pitch_bend_c, 1, 8320
2, 221760, Pitch_bend_c, 1, 8192
2, 221760, Pitch_bend_c, 1, 8320
2, 221760, Pitch_bend_c, 1, 8192
2, 221760, Note_off_c, 1, 49, 95
2, 221760, Pitch_bend_c, 1, 8192
2, 221760, Pitch_bend_c, 1, 8320
2, 221760, Pitch_bend_c, 1, 8192
2, 221760, Note_off_c, 1, 42, 95
2, 222240, Note_on_c, 0, 40, 95
2, 222720, Note_off_c, 0, 40, 95
2, 222720, Note_on_c, 0, 49, 95
2, 222720, Note_on_c, 0, 42, 95
2, 223200, Note_off_c, 0, 49, 95
2, 223200, Note_off_c, 0, 42, 95
2, 224160, Note_on_c, 0, 40, 95
2, 224640, Note_off_c, 0, 40, 95
2, 224640, Note_on_c, 0, 49, 95
2, 224640, Note_on_c, 0, 42, 95
2, 225120, Note_off_c, 0, 49, 95
2, 225120, Note_off_c, 0, 42, 95
2, 226080, Note_on_c, 0, 50, 95
2, 226080, Note_on_c, 0, 43, 95
2, 226560, Note_off_c, 0, 50, 95
2, 226560, Note_off_c, 0, 43, 95
2, 227040, Note_on_c, 0, 50, 95
2, 227040, Note_on_c, 0, 43, 95
2, 227520, Note_off_c, 0, 50, 95
2, 227520, Note_off_c, 0, 43, 95
2, 227520, Note_on_c, 0, 40, 95
2, 228000, Note_off_c, 0, 40, 95
2, 228000, Note_on_c, 1, 49, 95
2, 228000, Note_on_c, 1, 42, 95
2, 228160, Pitch_bend_c, 1, 8192
2, 228160, Pitch_bend_c, 1, 8192
2, 228320, Pitch_bend_c, 1, 8320
2, 228320, Pitch_bend_c, 1, 8320
2, 228480, Pitch_bend_c, 1, 8192
2, 228480, Pitch_bend_c, 1, 8192
2, 228640, Pitch_bend_c, 1, 8320
2, 228640, Pitch_bend_c, 1, 8320
2, 228800, Pitch_bend_c, 1, 8192
2, 228800, Pitch_bend_c, 1, 8192
2, 228960, Pitch_bend_c, 1, 8320
2, 228960, Pitch_bend_c, 1, 8320
2, 229120, Pitch_bend_c, 1, 8192
2, 229120, Pitch_bend_c, 1, 8192
2, 229280, Pitch_bend_c, 1, 8320
2, 229280, Pitch_bend_c, 1, 8320
2, 229440, Pitch_bend_c, 1, 8192
2, 229440, Pitch_bend_c, 1, 8320
2, 229440, Pitch_bend_c, 1, 8192
2, 229440, Note_off_c, 1, 49, 95
2, 229440, Pitch_bend_c, 1, 8192
2, 229440, Pitch_bend_c, 1, 8320
2, 229440, Pitch_bend_c, 1, 8192
2, 229440, Note_off_c, 1, 42, 95
2, 229920, Note_on_c, 0, 40, 95
2, 230400, Note_off_c, 0, 40, 95
2, 230400, Note_on_c, 0, 49, 95
2, 230400, Note_on_c, 0, 42, 95
2, 230880, Note_off_c, 0, 49, 95
2, 230880, Note_off_c, 0, 42, 95
2, 231840, Note_on_c, 0, 40, 95
2, 232320, Note_off_c, 0, 40, 95
2, 232320, Note_on_c, 0, 49, 95
2, 232320, Note_on_c, 0, 42, 95
2, 232800, Note_off_c, 0, 49, 95
2, 232800, Note_off_c, 0, 42, 95
2, 233760, Note_on_c, 0, 50, 95
2, 233760, Note_on_c, 0, 43, 95
2, 234240, Note_off_c, 0, 50, 95
2, 234240, Note_off_c, 0, 43, 95
2, 234720, Note_on_c, 0, 50, 95
2, 234720, Note_on_c, 0, 43, 95
2, 235200, Note_off_c, 0, 50, 95
2, 235200, Note_off_c, 0, 43, 95
2, 235200, Note_on_c, 0, 40, 95
2, 235680, Note_off_c, 0, 40, 95
2, 235680, Note_on_c, 1, 49, 95
2, 235680, Note_on_c, 1, 42, 95
2, 235840, Pitch_bend_c, 1, 8192
2, 235840, Pitch_bend_c, 1, 8192
2, 236000, Pitch_bend_c, 1, 8320
2, 236000, Pitch_bend_c, 1, 8320
2, 236160, Pitch_bend_c, 1, 8192
2, 236160, Pitch_bend_c, 1, 8192
2, 236320, Pitch_bend_c, 1, 8320
2, 236320, Pitch_bend_c, 1, 8320
2, 236480, Pitch_bend_c, 1, 8192
2, 236480, Pitch_bend_c, 1, 8192
2, 236640, Pitch_bend_c, 1, 8320
2, 236640, Pitch_bend_c, 1, 8320
2, 236800, Pitch_bend_c, 1, 8192
2, 236800, Pitch_bend_c, 1, 8192
2, 236960, Pitch_bend_c, 1, 8320
2, 236960, Pitch_bend_c, 1, 8320
2, 237120, Pitch_bend_c, 1, 8192
2, 237120, Pitch_bend_c, 1, 8320
2, 237120, Pitch_bend_c, 1, 8192
2, 237120, Note_off_c, 1, 49, 95
2, 237120, Pitch_bend_c, 1, 8192
2, 237120, Pitch_bend_c, 1, 8320
2, 237120, Pitch_bend_c, 1, 8192
2, 237120, Note_off_c, 1, 42, 95
2, 237600, Note_on_c, 0, 40, 95
2, 238080, Note_off_c, 0, 40, 95
2, 238080, Note_on_c, 0, 49, 95
2, 238080, Note_on_c, 0, 42, 95
2, 238560, Note_off_c, 0, 49, 95
2, 238560, Note_off_c, 0, 42, 95
2, 239520, Note_on_c, 0, 40, 95
2, 240000, Note_off_c, 0, 40, 95
2, 240000, Note_on_c, 0, 49, 95
2, 240000, Note_on_c, 0, 42, 95
2, 240480, Note_off_c, 0, 49, 95
2, 240480, Note_off_c, 0, 42, 95
2, 241440, Note_on_c, 0, 50, 95
2, 241440, Note_on_c, 0, 43, 95
2, 241920, Note_off_c, 0, 50, 95
2, 241920, Note_off_c, 0, 43, 95
2, 242400, Note_on_c, 0, 50, 95
2, 242400, Note_on_c, 0, 43, 95
2, 242880, Note_off_c, 0, 50, 95
2, 242880, Note_off_c, 0, 43, 95
2, 242880, Note_on_c, 0, 40, 95
2, 243360, Note_off_c, 0, 40, 95
2, 243360, Note_on_c, 1, 49, 95
2, 243360, Note_on_c, 1, 42, 95
2, 243520, Pitch_bend_c, 1, 8192
2, 243520, Pitch_bend_c, 1, 8192
2, 243680, Pitch_bend_c, 1, 8320
2, 243680, Pitch_bend_c, 1, 8320
2, 243840, Pitch_bend_c, 1, 8192
2, 243840, Pitch_bend_c, 1, 8192
2, 244000, Pitch_bend_c, 1, 8320
2, 244000, Pitch_bend_c, 1, 8320
2, 244160, Pitch_bend_c, 1, 8192
2, 244160, Pitch_bend_c, 1, 8192
2, 244320, Pitch_bend_c, 1, 8320
2, 244320, Pitch_bend_c, 1, 8320
2, 244480, Pitch_bend_c, 1, 8192
2, 244480, Pitch_bend_c, 1, 8192
2, 244640, Pitch_bend_c, 1, 8320
2, 244640, Pitch_bend_c, 1, 8320
2, 244800, Pitch_bend_c, 1, 8192
2, 244800, Pitch_bend_c, 1, 8320
2, 244800, Pitch_bend_c, 1, 8192
2, 244800, Note_off_c, 1, 49, 95
2, 244800, Pitch_bend_c, 1, 8192
2, 244800, Pitch_bend_c, 1, 8320
2, 244800, Pitch_bend_c, 1, 8192
2, 244800, Note_off_c, 1, 42, 95
2, 245280, Note_on_c, 0, 40, 95
2, 245760, Note_off_c, 0, 40, 95
2, 245760, Note_on_c, 0, 50, 95
2, 246000, Note_off_c, 0, 50, 95
2, 246000, Note_on_c, 0, 47, 95
2, 246240, Note_off_c, 0, 47, 95
2, 246240, Note_on_c, 0, 50, 95
2, 246480, Note_off_c, 0, 50, 95
2, 246480, Note_on_c, 0, 47, 95
2, 246720, Note_off_c, 0, 47, 95
2, 246720, Note_on_c, 0, 55, 95
2, 246960, Note_off_c, 0, 55, 95
2, 246960, Note_on_c, 0, 50, 95
2, 247200, Note_off_c, 0, 50, 95
2, 247200, Note_on_c, 0, 55, 95
2, 247440, Note_off_c, 0, 55, 95
2, 247440, Note_on_c, 0, 50, 95
2, 247680, Note_off_c, 0, 50, 95
2, 247680, Note_on_c, 0, 54, 95
2, 247920, Note_off_c, 0, 54, 95
2, 247920, Note_on_c, 0, 50, 95
2, 248160, Note_off_c, 0, 50, 95
2, 248160, Note_on_c, 0, 54, 95
2, 248400, Note_off_c, 0, 54, 95
2, 248400, Note_on_c, 0, 50, 95
2, 248640, Note_off_c, 0, 50, 95
2, 248640, Note_on_c, 0, 49, 95
2, 248880, Note_off_c, 0, 49, 95
2, 248880, Note_on_c, 0, 45, 95
2, 249120, Note_off_c, 0, 45, 95
2, 249120, Note_on_c, 0, 49, 95
2, 249360, Note_off_c, 0, 49, 95
2, 249360, Note_on_c, 0, 45, 95
2, 249600, Note_off_c, 0, 45, 95
2, 249600, Note_on_c, 0, 45, 95
2, 250080, Note_off_c, 0, 45, 95
2, 250080, Note_on_c, 0, 49, 95
2, 250560, Note_off_c, 0, 49, 95
2, 250560, Note_on_c, 0, 50, 95
2, 251040, Note_off_c, 0, 50, 95
2, 251040, Note_on_c, 0, 50, 95
2, 251040, Note_on_c, 1, 43, 95
2, 251200, Pitch_bend_c, 1, 8192
2, 251360, Pitch_bend_c, 1, 8320
2, 251520, Pitch_bend_c, 1, 8192
2, 251680, Pitch_bend_c, 1, 8320
2, 251840, Pitch_bend_c, 1, 8192
2, 252000, Pitch_bend_c, 1, 8320
2, 252160, Pitch_bend_c, 1, 8192
2, 252320, Pitch_bend_c, 1, 8320
2, 252480, Pitch_bend_c, 1, 8192
2, 252640, Pitch_bend_c, 1, 8320
2, 252800, Pitch_bend_c, 1, 8192
2, 252960, Pitch_bend_c, 1, 8320
2, 253120, Pitch_bend_c, 1, 8192
2, 253280, Pitch_bend_c, 1, 8320
2, 253440, Note_off_c, 0, 50, 95
2, 253440, Pitch_bend_c, 1, 8192
2, 253440, Pitch_bend_c, 1, 8320
2, 253440, Pitch_bend_c, 1, 8192
2, 253440, Note_off_c, 1, 43, 95
2, 253440, Note_on_c, 0, 50, 95
2, 253680, Note_off_c, 0, 50, 95
2, 253680, Note_on_c, 0, 47, 95
2, 253920, Note_off_c, 0, 47, 95
2, 253920, Note_on_c, 0, 50, 95
2, 254160, Note_off_c, 0, 50, 95
2, 254160, Note_on_c, 0, 47, 95
2, 254400, Note_off_c, 0, 47, 95
2, 254400, Note_on_c, 0, 55, 95
2, 254640, Note_off_c, 0, 55, 95
2, 254640, Note_on_c, 0, 50, 95
2, 254880, Note_off_c, 0, 50, 95
2, 254880, Note_on_c, 0, 55, 95
2, 255120, Note_off_c, 0, 55, 95
2, 255120, Note_on_c, 0, 50, 95
2, 255360, Note_off_c, 0, 50, 95
2, 255360, Note_on_c, 0, 54, 95
2, 255600, Note_off_c, 0, 54, 95
2, 255600, Note_on_c, 0, 50, 95
2, 255840, Note_off_c, 0, 50, 95
2, 255840, Note_on_c, 0, 54, 95
2, 256080, Note_off_c, 0, 54, 95
2, 256080, Note_on_c, 0, 50, 95
2, 256320, Note_off_c, 0, 50, 95
2, 256320, Note_on_c, 0, 49, 95
2, 256560, Note_off_c, 0, 49, 95
2, 256560, Note_on_c, 0, 45, 95
2, 256800, Note_off_c, 0, 45, 95
2, 256800, Note_on_c, 0, 49, 95
2, 257040, Note_off_c, 0, 49, 95
2, 257040, Note_on_c, 0, 45, 95
2, 257280, Note_off_c, 0, 45, 95
2, 257280, Note_on_c, 0, 45, 95
2, 257760, Note_off_c, 0, 45, 95
2, 257760, Note_on_c, 0, 49, 95
2, 258240, Note_off_c, 0, 49, 95
2, 258240, Note_on_c, 0, 50, 95
2, 258720, Note_off_c, 0, 50, 95
2, 258720, Note_on_c, 0, 50, 95
2, 258720, Note_on_c, 1, 43, 95
2, 258880, Pitch_bend_c, 1, 8192
2, 259040, Pitch_bend_c, 1, 8320
2, 259200, Pitch_bend_c, 1, 8192
2, 259360, Pitch_bend_c, 1, 8320
2, 259520, Pitch_bend_c, 1, 8192
2, 259680, Pitch_bend_c, 1, 8320
2, 259840, Pitch_bend_c, 1, 8192
2, 260000, Pitch_bend_c, 1, 8320
2, 260160, Pitch_bend_c, 1, 8192
2, 260320, Pitch_bend_c, 1, 8320
2, 260480, Pitch_bend_c, 1, 8192
2, 260640, Pitch_bend_c, 1, 8320
2, 260800, Pitch_bend_c, 1, 8192
2, 260960, Pitch_bend_c, 1, 8320
2, 261120, Note_off_c, 0, 50, 95
2, 261120, Pitch_bend_c, 1, 8192
2, 261120, Pitch_bend_c, 1, 8320
2, 261120, Pitch_bend_c, 1, 8192
2, 261120, Note_off_c, 1, 43, 95
2, 261120, Note_on_c, 0, 50, 95
2, 261360, Note_off_c, 0, 50, 95
2, 261360, Note_on_c, 0, 47, 95
2, 261600, Note_off_c, 0, 47, 95
2, 261600, Note_on_c, 0, 50, 95
2, 261840, Note_off_c, 0, 50, 95
2, 261840, Note_on_c, 0, 47, 95
2, 262080, Note_off_c, 0, 47, 95
2, 262080, Note_on_c, 0, 55, 95
2, 262320, Note_off_c, 0, 55, 95
2, 262320, Note_on_c, 0, 50, 95
2, 262560, Note_off_c, 0, 50, 95
2, 262560, Note_on_c, 0, 55, 95
2, 262800, Note_off_c, 0, 55, 95
2, 262800, Note_on_c, 0, 50, 95
2, 263040, Note_off_c, 0, 50, 95
2, 263040, Note_on_c, 0, 54, 95
2, 263280, Note_off_c, 0, 54, 95
2, 263280, Note_on_c, 0, 50, 95
2, 263520, Note_off_c, 0, 50, 95
2, 263520, Note_on_c, 0, 54, 95
2, 263760, Note_off_c, 0, 54, 95
2, 263760, Note_on_c, 0, 50, 95
2, 264000, Note_off_c, 0, 50, 95
2, 264000, Note_on_c, 0, 49, 95
2, 264240, Note_off_c, 0, 49, 95
2, 264240, Note_on_c, 0, 45, 95
2, 264480, Note_off_c, 0, 45, 95
2, 264480, Note_on_c, 0, 49, 95
2, 264720, Note_off_c, 0, 49, 95
2, 264720, Note_on_c, 0, 45, 95
2, 264960, Note_off_c, 0, 45, 95
2, 264960, Note_on_c, 0, 45, 95
2, 265440, Note_off_c, 0, 45, 95
2, 265440, Note_on_c, 0, 49, 95
2, 265920, Note_off_c, 0, 49, 95
2, 265920, Note_on_c, 0, 50, 95
2, 266400, Note_off_c, 0, 50, 95
2, 266400, Note_on_c, 0, 50, 95
2, 266400, Note_on_c, 1, 43, 95
2, 266560, Pitch_bend_c, 1, 8192
2, 266720, Pitch_bend_c, 1, 8320
2, 266880, Pitch_bend_c, 1, 8192
2, 267040, Pitch_bend_c, 1, 8320
2, 267200, Pitch_bend_c, 1, 8192
2, 267360, Pitch_bend_c, 1, 8320
2, 267520, Pitch_bend_c, 1, 8192
2, 267680, Pitch_bend_c, 1, 8320
2, 267840, Pitch_bend_c, 1, 8192
2, 268000, Pitch_bend_c, 1, 8320
2, 268160, Pitch_bend_c, 1, 8192
2, 268320, Pitch_bend_c, 1, 8320
2, 268480, Pitch_bend_c, 1, 8192
2, 268640, Pitch_bend_c, 1, 8320
2, 268800, Note_off_c, 0, 50, 95
2, 268800, Pitch_bend_c, 1, 8192
2, 268800, Pitch_bend_c, 1, 8320
2, 268800, Pitch_bend_c, 1, 8192
2, 268800, Note_off_c, 1, 43, 95
2, 268800, Note_on_c, 0, 50, 95
2, 269040, Note_off_c, 0, 50, 95
2, 269040, Note_on_c, 0, 47, 95
2, 269280, Note_off_c, 0, 47, 95
2, 269280, Note_on_c, 0, 50, 95
2, 269520, Note_off_c, 0, 50, 95
2, 269520, Note_on_c, 0, 47, 95
2, 269760, Note_off_c, 0, 47, 95
2, 269760, Note_on_c, 0, 55, 95
2, 270000, Note_off_c, 0, 55, 95
2, 270000, Note_on_c, 0, 50, 95
2, 270240, Note_off_c, 0, 50, 95
2, 270240, Note_on_c, 0, 55, 95
2, 270480, Note_off_c, 0, 55, 95
2, 270480, Note_on_c, 0, 50, 95
2, 270720, Note_off_c, 0, 50, 95
2, 270720, Note_on_c, 0, 54, 95
2, 270960, Note_off_c, 0, 54, 95
2, 270960, Note_on_c, 0, 50, 95
2, 271200, Note_off_c, 0, 50, 95
2, 271200, Note_on_c, 0, 54, 95
2, 271440, Note_off_c, 0, 54, 95
2, 271440, Note_on_c, 0, 50, 95
2, 271680, Note_off_c, 0, 50, 95
2, 271680, Note_on_c, 0, 49, 95
2, 271920, Note_off_c, 0, 49, 95
2, 271920, Note_on_c, 0, 45, 95
2, 272160, Note_off_c, 0, 45, 95
2, 272160, Note_on_c, 0, 49, 95
2, 272400, Note_off_c, 0, 49, 95
2, 272400, Note_on_c, 0, 45, 95
2, 272640, Note_off_c, 0, 45, 95
2, 272640, Note_on_c, 0, 45, 95
2, 273120, Note_off_c, 0, 45, 95
2, 273120, Note_on_c, 0, 49, 95
2, 273600, Note_off_c, 0, 49, 95
2, 273600, Note_on_c, 0, 50, 95
2, 274080, Note_off_c, 0, 50, 95
2, 274080, Note_on_c, 0, 50, 95
2, 274080, Note_on_c, 1, 43, 95
2, 274240, Pitch_bend_c, 1, 8192
2, 274400, Pitch_bend_c, 1, 8320
2, 274560, Pitch_bend_c, 1, 8192
2, 274720, Pitch_bend_c, 1, 8320
2, 274880, Pitch_bend_c, 1, 8192
2, 275040, Pitch_bend_c, 1, 8320
2, 275200, Pitch_bend_c, 1, 8192
2, 275360, Pitch_bend_c, 1, 8320
2, 275520, Pitch_bend_c, 1, 8192
2, 275680, Pitch_bend_c, 1, 8320
2, 275840, Pitch_bend_c, 1, 8192
2, 276000, Pitch_bend_c, 1, 8320
2, 276160, Pitch_bend_c, 1, 8192
2, 276320, Pitch_bend_c, 1, 8320
2, 276480, Note_off_c, 0, 50, 95
2, 276480, Pitch_bend_c, 1, 8192
2, 276480, Pitch_bend_c, 1, 8320
2, 276480, Pitch_bend_c, 1, 8192
2, 276480, Note_off_c, 1, 43, 95
2, 276480, Note_on_c, 0, 42, 95
2, 276960, Note_off_c, 0, 42, 95
2, 276960, Note_on_c, 0, 42, 95
2, 277440, Note_off_c, 0, 42, 95
2, 277440, Note_on_c, 0, 49, 95
2, 277920, Note_off_c, 0, 49, 95
2, 277920, Note_on_c, 0, 42, 95
2, 278400, Note_off_c, 0, 42, 95
2, 278400, Note_on_c, 0, 50, 95
2, 278880, Note_off_c, 0, 50, 95
2, 278880, Note_on_c, 0, 42, 95
2, 279360, Note_off_c, 0, 42, 95
2, 279360, Note_on_c, 1, 49, 95
2, 279520, Pitch_bend_c, 1, 8192
2, 279680, Pitch_bend_c, 1, 8320
2, 279840, Pitch_bend_c, 1, 8192
2, 280000, Pitch_bend_c, 1, 8320
2, 280160, Pitch_bend_c, 1, 8192
2, 280320, Pitch_bend_c, 1, 8320
2, 280320, Pitch_bend_c, 1, 8192
2, 280320, Note_off_c, 1, 49, 95
2, 280320, Note_on_c, 0, 50, 95
2, 280320, Note_on_c, 0, 43, 95
2, 280800, Note_off_c, 0, 50, 95
2, 280800, Note_off_c, 0, 43, 95
2, 280800, Note_on_c, 0, 50, 95
2, 280800, Note_on_c, 0, 43, 95
2, 281280, Note_off_c, 0, 50, 95
2, 281280, Note_off_c, 0, 43, 95
2, 281280, Note_on_c, 0, 49, 95
2, 281760, Note_off_c, 0, 49, 95
2, 281760, Note_on_c, 0, 50, 95
2, 282240, Note_off_c, 0, 50, 95
2, 282240, Note_on_c, 0, 43, 95
2, 282480, Note_off_c, 0, 43, 95
2, 282480, Note_on_c, 0, 43, 95
2, 282720, Note_off_c, 0, 43, 95
2, 282720, Note_on_c, 0, 57, 95
2, 283200, Note_off_c, 0, 57, 95
2, 283200, Note_on_c, 0, 43, 95
2, 283440, Note_off_c, 0, 43, 95
2, 283440, Note_on_c, 0, 43, 95
2, 283680, Note_off_c, 0, 43, 95
2, 283680, Note_on_c, 0, 55, 95
2, 284160, Note_off_c, 0, 55, 95
2, 284160, Note_on_c, 0, 42, 95
2, 284640, Note_off_c, 0, 42, 95
2, 284640, Note_on_c, 0, 42, 95
2, 285120, Note_off_c, 0, 42, 95
2, 285120, Note_on_c, 0, 49, 95
2, 285600, Note_off_c, 0, 49, 95
2, 285600, Note_on_c, 0, 42, 95
2, 286080, Note_off_c, 0, 42, 95
2, 286080, Note_on_c, 0, 50, 95
2, 286560, Note_off_c, 0, 50, 95
2, 286560, Note_on_c, 0, 42, 95
2, 287040, Note_off_c, 0, 42, 95
2, 287040, Note_on_c, 1, 49, 95
2, 287200, Pitch_bend_c, 1, 8192
2, 287360, Pitch_bend_c, 1, 8320
2, 287520, Pitch_bend_c, 1, 8192
2, 287680, Pitch_bend_c, 1, 8320
2, 287840, Pitch_bend_c, 1, 8192
2, 288000, Pitch_bend_c, 1, 8320
2, 288000, Pitch_bend_c, 1, 8192
2, 288000, Note_off_c, 1, 49, 95
2, 288000, Note_on_c, 0, 50, 95
2, 288000, Note_on_c, 0, 43, 95
2, 288480, Note_off_c, 0, 50, 95
2, 288480, Note_off_c, 0, 43, 95
2, 288480, Note_on_c, 0, 50, 95
2, 288480, Note_on_c, 0, 43, 95
2, 288960, Note_off_c, 0, 50, 95
2, 288960, Note_off_c, 0, 43, 95
2, 289920, Note_on_c, 0, 62, 95
2, 290080, Note_off_c, 0, 62, 95
2, 290080, Note_on_c, 0, 61, 95
2, 290240, Note_off_c, 0, 61, 95
2, 290240, Note_on_c, 0, 59, 95
2, 290400, Note_off_c, 0, 59, 95
2, 290400, Note_on_c, 0, 57, 95
2, 290560, Note_off_c, 0, 57, 95
2, 290560, Note_on_c, 0, 55, 95
2, 290720, Note_off_c, 0, 55, 95
2, 290720, Note_on_c, 0, 54, 95
2, 290880, Note_off_c, 0, 54, 95
2, 290880, Note_on_c, 0, 52, 95
2, 291040, Note_off_c, 0, 52, 95
2, 291040, Note_on_c, 0, 50, 95
2, 291200, Note_off_c, 0, 50, 95
2, 291200, Note_on_c, 0, 49, 95
2, 291360, Note_off_c, 0, 49, 95
2, 291360, Note_on_c, 0, 47, 95
2, 291520, Note_off_c, 0, 47, 95
2, 291520, Note_on_c, 0, 45, 95
2, 291680, Note_off_c, 0, 45, 95
2, 291680, Note_on_c, 0, 43, 95
2, 291840, Note_off_c, 0, 43, 95
2, 291840, Note_on_c, 0, 42, 95
2, 292320, Note_off_c, 0, 42, 95
2, 292320, Note_on_c, 0, 42, 95
2, 292800, Note_off_c, 0, 42, 95
2, 292800, Note_on_c, 0, 49, 95
2, 293280, Note_off_c, 0, 49, 95
2, 293280, Note_on_c, 0, 42, 95
2, 293760, Note_off_c, 0, 42, 95
2, 293760, Note_on_c, 0, 50, 95
2, 294240, Note_off_c, 0, 50, 95
2, 294240, Note_on_c, 0, 42, 95
2, 294720, Note_off_c, 0, 42, 95
2, 294720, Note_on_c, 1, 49, 95
2, 294880, Pitch_bend_c, 1, 8192
2, 295040, Pitch_bend_c, 1, 8320
2, 295200, Pitch_bend_c, 1, 8192
2, 295360, Pitch_bend_c, 1, 8320
2, 295520, Pitch_bend_c, 1, 8192
2, 295680, Pitch_bend_c, 1, 8320
2, 295680, Pitch_bend_c, 1, 8192
2, 295680, Note_off_c, 1, 49, 95
2, 295680, Note_on_c, 0, 50, 95
2, 295680, Note_on_c, 0, 43, 95
2, 296160, Note_off_c, 0, 50, 95
2, 296160, Note_off_c, 0, 43, 95
2, 296160, Note_on_c, 0, 50, 95
2, 296160, Note_on_c, 0, 43, 95
2, 296640, Note_off_c, 0, 50, 95
2, 296640, Note_off_c, 0, 43, 95
2, 296640, Note_on_c, 0, 49, 95
2, 297120, Note_off_c, 0, 49, 95
2, 297120, Note_on_c, 0, 50, 95
2, 297600, Note_off_c, 0, 50, 95
2, 297600, Note_on_c, 0, 43, 95
2, 297840, Note_off_c, 0, 43, 95
2, 297840, Note_on_c, 0, 43, 95
2, 298080, Note_off_c, 0, 43, 95
2, 298080, Note_on_c, 0, 57, 95
2, 298560, Note_off_c, 0, 57, 95
2, 298560, Note_on_c, 0, 43, 95
2, 298800, Note_off_c, 0, 43, 95
2, 298800, Note_on_c, 0, 43, 95
2, 299040, Note_off_c, 0, 43, 95
2, 299040, Note_on_c, 0, 55, 95
2, 299520, Note_off_c, 0, 55, 95
2, 299520, Note_on_c, 0, 42, 95
2, 300000, Note_off_c, 0, 42, 95
2, 300000, Note_on_c, 0, 42, 95
2, 300480, Note_off_c, 0, 42, 95
2, 300480, Note_on_c, 0, 49, 95
2, 300960, Note_off_c, 0, 49, 95
2, 300960, Note_on_c, 0, 42, 95
2, 301440, Note_off_c, 0, 42, 95
2, 301440, Note_on_c, 0, 50, 95
2, 301920, Note_off_c, 0, 50, 95
2, 301920, Note_on_c, 0, 42, 95
2, 302400, Note_off_c, 0, 42, 95
2, 302400, Note_on_c, 1, 49, 95
2, 302560, Pitch_bend_c, 1, 8192
2, 302720, Pitch_bend_c, 1, 8320
2, 302880, Pitch_bend_c, 1, 8192
2, 303040, Pitch_bend_c, 1, 8320
2, 303200, Pitch_bend_c, 1, 8192
2, 303360, Pitch_bend_c, 1, 8320
2, 303360, Pitch_bend_c, 1, 8192
2, 303360, Note_off_c, 1, 49, 95
2, 303360, Note_on_c, 0, 50, 95
2, 303360, Note_on_c, 0, 43, 95
2, 303840, Note_off_c, 0, 50, 95
2, 303840, Note_off_c, 0, 43, 95
2, 307200, Note_on_c, 0, 54, 95
2, 307200, Note_on_c, 0, 47, 95
2, 307680, Note_off_c, 0, 54, 95
2, 307680, Note_off_c, 0, 47, 95
2, 307680, Note_on_c, 0, 47, 95
2, 307920, Note_off_c, 0, 47, 95
2, 307920, Note_on_c, 0, 47, 95
2, 308160, Note_off_c, 0, 47, 95
2, 308160, Note_on_c, 0, 47, 95
2, 308400, Note_off_c, 0, 47, 95
2, 308400, Note_on_c, 0, 47, 95
2, 308640, Note_off_c, 0, 47, 95
2, 308640, Note_on_c, 0, 54, 95
2, 308640, Note_on_c, 0, 47, 95
2, 309600, Note_off_c, 0, 54, 95
2, 309600, Note_off_c, 0, 47, 95
2, 309600, Note_on_c, 0, 54, 95
2, 309600, Note_on_c, 0, 47, 95
2, 310560, Note_off_c, 0, 54, 95
2, 310560, Note_off_c, 0, 47, 95
2, 310560, Note_on_c, 0, 54, 95
2, 310560, Note_on_c, 0, 47, 95
2, 311040, Note_off_c, 0, 54, 95
2, 311040, Note_off_c, 0, 47, 95
2, 311040, Note_on_c, 0, 52, 95
2, 311040, Note_on_c, 0, 45, 95
2, 311520, Note_off_c, 0, 52, 95
2, 311520, Note_off_c, 0, 45, 95
2, 311520, Note_on_c, 0, 45, 95
2, 311760, Note_off_c, 0, 45, 95
2, 311760, Note_on_c, 0, 45, 95
2, 312000, Note_off_c, 0, 45, 95
2, 312000, Note_on_c, 0, 45, 95
2, 312240, Note_off_c, 0, 45, 95
2, 312240, Note_on_c, 0, 45, 95
2, 312480, Note_off_c, 0, 45, 95
2, 312480, Note_on_c, 0, 52, 95
2, 312480, Note_on_c, 0, 45, 95
2, 313440, Note_off_c, 0, 52, 95
2, 313440, Note_off_c, 0, 45, 95
2, 313440, Note_on_c, 0, 52, 95
2, 313440, Note_on_c, 0, 45, 95
2, 314400, Note_off_c, 0, 52, 95
2, 314400, Note_off_c, 0, 45, 95
2, 314400, Note_on_c, 0, 52, 95
2, 314400, Note_on_c, 0, 45, 95
2, 314880, Note_off_c, 0, 52, 95
2, 314880, Note_off_c, 0, 45, 95
2, 314880, Note_on_c, 0, 50, 95
2, 314880, Note_on_c, 0, 43, 95
2, 315360, Note_off_c, 0, 50, 95
2, 315360, Note_off_c, 0, 43, 95
2, 315360, Note_on_c, 0, 43, 95
2, 315600, Note_off_c, 0, 43, 95
2, 315600, Note_on_c, 0, 43, 95
2, 315840, Note_off_c, 0, 43, 95
2, 315840, Note_on_c, 0, 43, 95
2, 316080, Note_off_c, 0, 43, 95
2, 316080, Note_on_c, 0, 43, 95
2, 316320, Note_off_c, 0, 43, 95
2, 316320, Note_on_c, 0, 50, 95
2, 316320, Note_on_c, 0, 43, 95
2, 317280, Note_off_c, 0, 50, 95
2, 317280, Note_off_c, 0, 43, 95
2, 317280, Note_on_c, 0, 50, 95
2, 317280, Note_on_c, 0, 43, 95
2, 318240, Note_off_c, 0, 50, 95
2, 318240, Note_off_c, 0, 43, 95
2, 318240, Note_on_c, 0, 50, 95
2, 318240, Note_on_c, 0, 43, 95
2, 318720, Note_off_c, 0, 50, 95
2, 318720, Note_off_c, 0, 43, 95
2, 318720, Note_on_c, 0, 50, 95
2, 318720, Note_on_c, 0, 43, 95
2, 319200, Note_off_c, 0, 50, 95
2, 319200, Note_off_c, 0, 43, 95
2, 319200, Note_on_c, 0, 43, 95
2, 319440, Note_off_c, 0, 43, 95
2, 319440, Note_on_c, 0, 43, 95
2, 319680, Note_off_c, 0, 43, 95
2, 319680, Note_on_c, 0, 43, 95
2, 319920, Note_off_c, 0, 43, 95
2, 319920, Note_on_c, 0, 43, 95
2, 320160, Note_off_c, 0, 43, 95
2, 320160, Note_on_c, 0, 50, 95
2, 320160, Note_on_c, 0, 43, 95
2, 321120, Note_off_c, 0, 50, 95
2, 321120, Note_off_c, 0, 43, 95
2, 321120, Note_on_c, 0, 50, 95
2, 321120, Note_on_c, 0, 43, 95
2, 322080, Note_off_c, 0, 50, 95
2, 322080, Note_off_c, 0, 43, 95
2, 322080, Note_on_c, 0, 52, 95
2, 322080, Note_on_c, 0, 45, 95
2, 322560, Note_off_c, 0, 52, 95
2, 322560, Note_off_c, 0, 45, 95
2, 322560, Note_on_c, 0, 54, 95
2, 322560, Note_on_c, 0, 47, 95
2, 323040, Note_off_c, 0, 54, 95
2, 323040, Note_off_c, 0, 47, 95
2, 323040, Note_on_c, 0, 47, 95
2, 323280, Note_off_c, 0, 47, 95
2, 323280, Note_on_c, 0, 47, 95
2, 323520, Note_off_c, 0, 47, 95
2, 323520, Note_on_c, 0, 47, 95
2, 323760, Note_off_c, 0, 47, 95
2, 323760, Note_on_c, 0, 47, 95
2, 324000, Note_off_c, 0, 47, 95
2, 324000, Note_on_c, 0, 54, 95
2, 324000, Note_on_c, 0, 47, 95
2, 324960, Note_off_c, 0, 54, 95
2, 324960, Note_off_c, 0, 47, 95
2, 324960, Note_on_c, 0, 54, 95
2, 324960, Note_on_c, 0, 47, 95
2, 325920, Note_off_c, 0, 54, 95
2, 325920, Note_off_c, 0, 47, 95
2, 325920, Note_on_c, 0, 54, 95
2, 325920, Note_on_c, 0, 47, 95
2, 326400, Note_off_c, 0, 54, 95
2, 326400, Note_off_c, 0, 47, 95
2, 326400, Note_on_c, 0, 52, 95
2, 326400, Note_on_c, 0, 45, 95
2, 326880, Note_off_c, 0, 52, 95
2, 326880, Note_off_c, 0, 45, 95
2, 326880, Note_on_c, 0, 45, 95
2, 327120, Note_off_c, 0, 45, 95
2, 327120, Note_on_c, 0, 45, 95
2, 327360, Note_off_c, 0, 45, 95
2, 327360, Note_on_c, 0, 45, 95
2, 327600, Note_off_c, 0, 45, 95
2, 327600, Note_on_c, 0, 45, 95
2, 327840, Note_off_c, 0, 45, 95
2, 327840, Note_on_c, 0, 52, 95
2, 327840, Note_on_c, 0, 45, 95
2, 328800, Note_off_c, 0, 52, 95
2, 328800, Note_off_c, 0, 45, 95
2, 328800, Note_on_c, 0, 52, 95
2, 328800, Note_on_c, 0, 45, 95
2, 329760, Note_off_c, 0, 52, 95
2, 329760, Note_off_c, 0, 45, 95
2, 329760, Note_on_c, 0, 52, 95
2, 329760, Note_on_c, 0, 45, 95
2, 330240, Note_off_c, 0, 52, 95
2, 330240, Note_off_c, 0, 45, 95
2, 330240, Note_on_c, 0, 50, 95
2, 330240, Note_on_c, 0, 43, 95
2, 330720, Note_off_c, 0, 50, 95
2, 330720, Note_off_c, 0, 43, 95
2, 330720, Note_on_c, 0, 43, 95
2, 330960, Note_off_c, 0, 43, 95
2, 330960, Note_on_c, 0, 43, 95
2, 331200, Note_off_c, 0, 43, 95
2, 331200, Note_on_c, 0, 43, 95
2, 331440, Note_off_c, 0, 43, 95
2, 331440, Note_on_c, 0, 43, 95
2, 331680, Note_off_c, 0, 43, 95
2, 331680, Note_on_c, 0, 50, 95
2, 331680, Note_on_c, 0, 43, 95
2, 332640, Note_off_c, 0, 50, 95
2, 332640, Note_off_c, 0, 43, 95
2, 332640, Note_on_c, 0, 50, 95
2, 332640, Note_on_c, 0, 43, 95
2, 333600, Note_off_c, 0, 50, 95
2, 333600, Note_off_c, 0, 43, 95
2, 333600, Note_on_c, 0, 50, 95
2, 333600, Note_on_c, 0, 43, 95
2, 334080, Note_off_c, 0, 50, 95
2, 334080, Note_off_c, 0, 43, 95
2, 334080, Note_on_c, 0, 50, 95
2, 334080, Note_on_c, 0, 43, 95
2, 334560, Note_off_c, 0, 50, 95
2, 334560, Note_off_c, 0, 43, 95
2, 334560, Note_on_c, 0, 43, 95
2, 334800, Note_off_c, 0, 43, 95
2, 334800, Note_on_c, 0, 43, 95
2, 335040, Note_off_c, 0, 43, 95
2, 335040, Note_on_c, 0, 43, 95
2, 335280, Note_off_c, 0, 43, 95
2, 335280, Note_on_c, 0, 43, 95
2, 335520, Note_off_c, 0, 43, 95
2, 335520, Note_on_c, 0, 50, 95
2, 335520, Note_on_c, 0, 43, 95
2, 336480, Note_off_c, 0, 50, 95
2, 336480, Note_off_c, 0, 43, 95
2, 336480, Note_on_c, 0, 50, 95
2, 336480, Note_on_c, 0, 43, 95
2, 337440, Note_off_c, 0, 50, 95
2, 337440, Note_off_c, 0, 43, 95
2, 337440, Note_on_c, 0, 52, 95
2, 337440, Note_on_c, 0, 45, 95
2, 337920, Note_off_c, 0, 52, 95
2, 337920, Note_off_c, 0, 45, 95
2, 337920, Note_on_c, 0, 54, 95
2, 337920, Note_on_c, 0, 47, 95
2, 338400, Note_off_c, 0, 54, 95
2, 338400, Note_off_c, 0, 47, 95
2, 338400, Note_on_c, 0, 47, 95
2, 338640, Note_off_c, 0, 47, 95
2, 338640, Note_on_c, 0, 47, 95
2, 338880, Note_off_c, 0, 47, 95
2, 338880, Note_on_c, 0, 47, 95
2, 339120, Note_off_c, 0, 47, 95
2, 339120, Note_on_c, 0, 47, 95
2, 339360, Note_off_c, 0, 47, 95
2, 339360, Note_on_c, 0, 54, 95
2, 339360, Note_on_c, 0, 47, 95
2, 340320, Note_off_c, 0, 54, 95
2, 340320, Note_off_c, 0, 47, 95
2, 340320, Note_on_c, 0, 54, 95
2, 340320, Note_on_c, 0, 47, 95
2, 341280, Note_off_c, 0, 54, 95
2, 341280, Note_off_c, 0, 47, 95
2, 341280, Note_on_c, 0, 54, 95
2, 341280, Note_on_c, 0, 47, 95
2, 341760, Note_off_c, 0, 54, 95
2, 341760, Note_off_c, 0, 47, 95
2, 341760, Note_on_c, 0, 52, 95
2, 341760, Note_on_c, 0, 45, 95
2, 342240, Note_off_c, 0, 52, 95
2, 342240, Note_off_c, 0, 45, 95
2, 342240, Note_on_c, 0, 45, 95
2, 342480, Note_off_c, 0, 45, 95
2, 342480, Note_on_c, 0, 45, 95
2, 342720, Note_off_c, 0, 45, 95
2, 342720, Note_on_c, 0, 45, 95
2, 342960, Note_off_c, 0, 45, 95
2, 342960, Note_on_c, 0, 45, 95
2, 343200, Note_off_c, 0, 45, 95
2, 343200, Note_on_c, 0, 52, 95
2, 343200, Note_on_c, 0, 45, 95
2, 344160, Note_off_c, 0, 52, 95
2, 344160, Note_off_c, 0, 45, 95
2, 344160, Note_on_c, 0, 52, 95
2, 344160, Note_on_c, 0, 45, 95
2, 345120, Note_off_c, 0, 52, 95
2, 345120, Note_off_c, 0, 45, 95
2, 345120, Note_on_c, 0, 52, 95
2, 345120, Note_on_c, 0, 45, 95
2, 345600, Note_off_c, 0, 52, 95
2, 345600, Note_off_c, 0, 45, 95
2, 345600, Note_on_c, 0, 50, 95
2, 345600, Note_on_c, 0, 43, 95
2, 346080, Note_off_c, 0, 50, 95
2, 346080, Note_off_c, 0, 43, 95
2, 346080, Note_on_c, 0, 43, 95
2, 346320, Note_off_c, 0, 43, 95
2, 346320, Note_on_c, 0, 43, 95
2, 346560, Note_off_c, 0, 43, 95
2, 346560, Note_on_c, 0, 43, 95
2, 346800, Note_off_c, 0, 43, 95
2, 346800, Note_on_c, 0, 43, 95
2, 347040, Note_off_c, 0, 43, 95
2, 347040, Note_on_c, 0, 50, 95
2, 347040, Note_on_c, 0, 43, 95
2, 348000, Note_off_c, 0, 50, 95
2, 348000, Note_off_c, 0, 43, 95
2, 348000, Note_on_c, 0, 50, 95
2, 348000, Note_on_c, 0, 43, 95
2, 348960, Note_off_c, 0, 50, 95
2, 348960, Note_off_c, 0, 43, 95
2, 348960, Note_on_c, 0, 50, 95
2, 348960, Note_on_c, 0, 43, 95
2, 349440, Note_off_c, 0, 50, 95
2, 349440, Note_off_c, 0, 43, 95
2, 349440, Note_on_c, 0, 50, 95
2, 349440, Note_on_c, 0, 43, 95
2, 349920, Note_off_c, 0, 50, 95
2, 349920, Note_off_c, 0, 43, 95
2, 349920, Note_on_c, 0, 43, 95
2, 350160, Note_off_c, 0, 43, 95
2, 350160, Note_on_c, 0, 43, 95
2, 350400, Note_off_c, 0, 43, 95
2, 350400, Note_on_c, 0, 43, 95
2, 350640, Note_off_c, 0, 43, 95
2, 350640, Note_on_c, 0, 43, 95
2, 350880, Note_off_c, 0, 43, 95
2, 350880, Note_on_c, 0, 50, 95
2, 350880, Note_on_c, 0, 43, 95
2, 351840, Note_off_c, 0, 50, 95
2, 351840, Note_off_c, 0, 43, 95
2, 351840, Note_on_c, 0, 50, 95
2, 351840, Note_on_c, 0, 43, 95
2, 352800, Note_off_c, 0, 50, 95
2, 352800, Note_off_c, 0, 43, 95
2, 352800, Note_on_c, 0, 52, 95
2, 352800, Note_on_c, 0, 45, 95
2, 353280, Note_off_c, 0, 52, 95
2, 353280, Note_off_c, 0, 45, 95
2, 353280, Note_on_c, 0, 54, 95
2, 353280, Note_on_c, 0, 47, 95
2, 353760, Note_off_c, 0, 54, 95
2, 353760, Note_off_c, 0, 47, 95
2, 353760, Note_on_c, 0, 47, 95
2, 354000, Note_off_c, 0, 47, 95
2, 354000, Note_on_c, 0, 47, 95
2, 354240, Note_off_c, 0, 47, 95
2, 354240, Note_on_c, 0, 47, 95
2, 354480, Note_off_c, 0, 47, 95
2, 354480, Note_on_c, 0, 47, 95
2, 354720, Note_off_c, 0, 47, 95
2, 354720, Note_on_c, 0, 54, 95
2, 354720, Note_on_c, 0, 47, 95
2, 355680, Note_off_c, 0, 54, 95
2, 355680, Note_off_c, 0, 47, 95
2, 355680, Note_on_c, 0, 54, 95
2, 355680, Note_on_c, 0, 47, 95
2, 356640, Note_off_c, 0, 54, 95
2, 356640, Note_off_c, 0, 47, 95
2, 356640, Note_on_c, 0, 54, 95
2, 356640, Note_on_c, 0, 47, 95
2, 357120, Note_off_c, 0, 54, 95
2, 357120, Note_off_c, 0, 47, 95
2, 357120, Note_on_c, 0, 52, 95
2, 357120, Note_on_c, 0, 45, 95
2, 357600, Note_off_c, 0, 52, 95
2, 357600, Note_off_c, 0, 45, 95
2, 357600, Note_on_c, 0, 45, 95
2, 357840, Note_off_c, 0, 45, 95
2, 357840, Note_on_c, 0, 45, 95
2, 358080, Note_off_c, 0, 45, 95
2, 358080, Note_on_c, 0, 45, 95
2, 358320, Note_off_c, 0, 45, 95
2, 358320, Note_on_c, 0, 45, 95
2, 358560, Note_off_c, 0, 45, 95
2, 358560, Note_on_c, 0, 52, 95
2, 358560, Note_on_c, 0, 45, 95
2, 359520, Note_off_c, 0, 52, 95
2, 359520, Note_off_c, 0, 45, 95
2, 359520, Note_on_c, 0, 52, 95
2, 359520, Note_on_c, 0, 45, 95
2, 360480, Note_off_c, 0, 52, 95
2, 360480, Note_off_c, 0, 45, 95
2, 360480, Note_on_c, 0, 52, 95
2, 360480, Note_on_c, 0, 45, 95
2, 360960, Note_off_c, 0, 52, 95
2, 360960, Note_off_c, 0, 45, 95
2, 360960, Note_on_c, 0, 50, 95
2, 360960, Note_on_c, 0, 43, 95
2, 361440, Note_off_c, 0, 50, 95
2, 361440, Note_off_c, 0, 43, 95
2, 361440, Note_on_c, 0, 43, 95
2, 361680, Note_off_c, 0, 43, 95
2, 361680, Note_on_c, 0, 43, 95
2, 361920, Note_off_c, 0, 43, 95
2, 361920, Note_on_c, 0, 43, 95
2, 362160, Note_off_c, 0, 43, 95
2, 362160, Note_on_c, 0, 43, 95
2, 362400, Note_off_c, 0, 43, 95
2, 362400, Note_on_c, 0, 50, 95
2, 362400, Note_on_c, 0, 43, 95
2, 363360, Note_off_c, 0, 50, 95
2, 363360, Note_off_c, 0, 43, 95
2, 363360, Note_on_c, 0, 50, 95
2, 363360, Note_on_c, 0, 43, 95
2, 364320, Note_off_c, 0, 50, 95
2, 364320, Note_off_c, 0, 43, 95
2, 364320, Note_on_c, 0, 50, 95
2, 364320, Note_on_c, 0, 43, 95
2, 364800, Note_off_c, 0, 50, 95
2, 364800, Note_off_c, 0, 43, 95
2, 364800, Note_on_c, 0, 50, 95
2, 364800, Note_on_c, 0, 43, 95
2, 365280, Note_off_c, 0, 50, 95
2, 365280, Note_off_c, 0, 43, 95
2, 365280, Note_on_c, 0, 43, 95
2, 365520, Note_off_c, 0, 43, 95
2, 365520, Note_on_c, 0, 43, 95
2, 365760, Note_off_c, 0, 43, 95
2, 365760, Note_on_c, 0, 43, 95
2, 366000, Note_off_c, 0, 43, 95
2, 366000, Note_on_c, 0, 43, 95
2, 366240, Note_off_c, 0, 43, 95
2, 366240, Note_on_c, 0, 50, 95
2, 366240, Note_on_c, 0, 43, 95
2, 367200, Note_off_c, 0, 50, 95
2, 367200, Note_off_c, 0, 43, 95
2, 367200, Note_on_c, 0, 50, 95
2, 367200, Note_on_c, 0, 43, 95
2, 368160, Note_off_c, 0, 50, 95
2, 368160, Note_off_c, 0, 43, 95
2, 368160, Note_on_c, 0, 52, 95
2, 368160, Note_on_c, 0, 45, 95
2, 368640, Note_off_c, 0, 52, 95
2, 368640, Note_off_c, 0, 45, 95
2, 368640, Note_on_c, 0, 51, 95
2, 368640, Note_on_c, 0, 44, 95
2, 369120, Note_off_c, 0, 51, 95
2, 369120, Note_off_c, 0, 44, 95
2, 369120, Note_on_c, 0, 44, 95
2, 369360, Note_off_c, 0, 44, 95
2, 369360, Note_on_c, 0, 44, 95
2, 369600, Note_off_c, 0, 44, 95
2, 369600, Note_on_c, 0, 51, 95
2, 369600, Note_on_c, 0, 44, 95
2, 370080, Note_off_c, 0, 51, 95
2, 370080, Note_off_c, 0, 44, 95
2, 370080, Note_on_c, 0, 44, 95
2, 370320, Note_off_c, 0, 44, 95
2, 370320, Note_on_c, 0, 44, 95
2, 370560, Note_off_c, 0, 44, 95
2, 370560, Note_on_c, 0, 51, 95
2, 370560, Note_on_c, 0, 44, 95
2, 371040, Note_off_c, 0, 51, 95
2, 371040, Note_off_c, 0, 44, 95
2, 371040, Note_on_c, 0, 44, 95
2, 371280, Note_off_c, 0, 44, 95
2, 371280, Note_on_c, 0, 44, 95
2, 371520, Note_off_c, 0, 44, 95
2, 371520, Note_on_c, 0, 51, 95
2, 371520, Note_on_c, 0, 44, 95
2, 372000, Note_off_c, 0, 51, 95
2, 372000, Note_off_c, 0, 44, 95
2, 372000, Note_on_c, 0, 44, 95
2, 372240, Note_off_c, 0, 44, 95
2, 372240, Note_on_c, 0, 44, 95
2, 372480, Note_off_c, 0, 44, 95
2, 372480, Note_on_c, 0, 49, 95
2, 372480, Note_on_c, 0, 42, 95
2, 372960, Note_off_c, 0, 49, 95
2, 372960, Note_off_c, 0, 42, 95
2, 372960, Note_on_c, 0, 42, 95
2, 373200, Note_off_c, 0, 42, 95
2, 373200, Note_on_c, 0, 42, 95
2, 373440, Note_off_c, 0, 42, 95
2, 373440, Note_on_c, 0, 49, 95
2, 373440, Note_on_c, 0, 42, 95
2, 373920, Note_off_c, 0, 49, 95
2, 373920, Note_off_c, 0, 42, 95
2, 373920, Note_on_c, 0, 42, 95
2, 374160, Note_off_c, 0, 42, 95
2, 374160, Note_on_c, 0, 42, 95
2, 374400, Note_off_c, 0, 42, 95
2, 374400, Note_on_c, 0, 49, 95
2, 374400, Note_on_c, 0, 42, 95
2, 374880, Note_off_c, 0, 49, 95
2, 374880, Note_off_c, 0, 42, 95
2, 374880, Note_on_c, 0, 42, 95
2, 375120, Note_off_c, 0, 42, 95
2, 375120, Note_on_c, 0, 42, 95
2, 375360, Note_off_c, 0, 42, 95
2, 375360, Note_on_c, 0, 49, 95
2, 375360, Note_on_c, 0, 42, 95
2, 375840, Note_off_c, 0, 49, 95
2, 375840, Note_off_c, 0, 42, 95
2, 375840, Note_on_c, 0, 42, 95
2, 376080, Note_off_c, 0, 42, 95
2, 376080, Note_on_c, 0, 42, 95
2, 376320, Note_off_c, 0, 42, 95
2, 376320, Note_on_c, 0, 47, 95
2, 376320, Note_on_c, 0, 40, 95
2, 376800, Note_off_c, 0, 47, 95
2, 376800, Note_off_c, 0, 40, 95
2, 376800, Note_on_c, 0, 40, 95
2, 377040, Note_off_c, 0, 40, 95
2, 377040, Note_on_c, 0, 40, 95
2, 377280, Note_off_c, 0, 40, 95
2, 377280, Note_on_c, 0, 47, 95
2, 377280, Note_on_c, 0, 40, 95
2, 377760, Note_off_c, 0, 47, 95
2, 377760, Note_off_c, 0, 40, 95
2, 377760, Note_on_c, 0, 40, 95
2, 378000, Note_off_c, 0, 40, 95
2, 378000, Note_on_c, 0, 40, 95
2, 378240, Note_off_c, 0, 40, 95
2, 378240, Note_on_c, 0, 47, 95
2, 378240, Note_on_c, 0, 40, 95
2, 378720, Note_off_c, 0, 47, 95
2, 378720, Note_off_c, 0, 40, 95
2, 378720, Note_on_c, 0, 40, 95
2, 378960, Note_off_c, 0, 40, 95
2, 378960, Note_on_c, 0, 40, 95
2, 379200, Note_off_c, 0, 40, 95
2, 379200, Note_on_c, 0, 47, 95
2, 379200, Note_on_c, 0, 40, 95
2, 379680, Note_off_c, 0, 47, 95
2, 379680, Note_off_c, 0, 40, 95
2, 379680, Note_on_c, 0, 40, 95
2, 379920, Note_off_c, 0, 40, 95
2, 379920, Note_on_c, 0, 40, 95
2, 380160, Note_off_c, 0, 40, 95
2, 380160, Note_on_c, 0, 49, 95
2, 380160, Note_on_c, 0, 42, 95
2, 380640, Note_off_c, 0, 49, 95
2, 380640, Note_off_c, 0, 42, 95
2, 380640, Note_on_c, 0, 42, 95
2, 380880, Note_off_c, 0, 42, 95
2, 380880, Note_on_c, 0, 42, 95
2, 381120, Note_off_c, 0, 42, 95
2, 381120, Note_on_c, 0, 49, 95
2, 381120, Note_on_c, 0, 42, 95
2, 381600, Note_off_c, 0, 49, 95
2, 381600, Note_off_c, 0, 42, 95
2, 381600, Note_on_c, 0, 42, 95
2, 381840, Note_off_c, 0, 42, 95
2, 381840, Note_on_c, 0, 42, 95
2, 382080, Note_off_c, 0, 42, 95
2, 382080, Note_on_c, 0, 49, 95
2, 382080, Note_on_c, 0, 42, 95
2, 382560, Note_off_c, 0, 49, 95
2, 382560, Note_off_c, 0, 42, 95
2, 382560, Note_on_c, 0, 42, 95
2, 382800, Note_off_c, 0, 42, 95
2, 382800, Note_on_c, 0, 42, 95
2, 383040, Note_off_c, 0, 42, 95
2, 383040, Note_on_c, 0, 49, 95
2, 383040, Note_on_c, 0, 42, 95
2, 383520, Note_off_c, 0, 49, 95
2, 383520, Note_off_c, 0, 42, 95
2, 383520, Note_on_c, 0, 42, 95
2, 383760, Note_off_c, 0, 42, 95
2, 383760, Note_on_c, 0, 42, 95
2, 384000, Note_off_c, 0, 42, 95
2, 384000, Note_on_c, 0, 51, 95
2, 384000, Note_on_c, 0, 44, 95
2, 384480, Note_off_c, 0, 51, 95
2, 384480, Note_off_c, 0, 44, 95
2, 384480, Note_on_c, 0, 44, 95
2, 384720, Note_off_c, 0, 44, 95
2, 384720, Note_on_c, 0, 44, 95
2, 384960, Note_off_c, 0, 44, 95
2, 384960, Note_on_c, 0, 51, 95
2, 384960, Note_on_c, 0, 44, 95
2, 385440, Note_off_c, 0, 51, 95
2, 385440, Note_off_c, 0, 44, 95
2, 385440, Note_on_c, 0, 44, 95
2, 385680, Note_off_c, 0, 44, 95
2, 385680, Note_on_c, 0, 44, 95
2, 385920, Note_off_c, 0, 44, 95
2, 385920, Note_on_c, 0, 51, 95
2, 385920, Note_on_c, 0, 44, 95
2, 386400, Note_off_c, 0, 51, 95
2, 386400, Note_off_c, 0, 44, 95
2, 386400, Note_on_c, 0, 44, 95
2, 386640, Note_off_c, 0, 44, 95
2, 386640, Note_on_c, 0, 44, 95
2, 386880, Note_off_c, 0, 44, 95
2, 386880, Note_on_c, 0, 51, 95
2, 386880, Note_on_c, 0, 44, 95
2, 387360, Note_off_c, 0, 51, 95
2, 387360, Note_off_c, 0, 44, 95
2, 387360, Note_on_c, 0, 44, 95
2, 387600, Note_off_c, 0, 44, 95
2, 387600, Note_on_c, 0, 44, 95
2, 387840, Note_off_c, 0, 44, 95
2, 387840, Note_on_c, 0, 49, 95
2, 387840, Note_on_c, 0, 42, 95
2, 388320, Note_off_c, 0, 49, 95
2, 388320, Note_off_c, 0, 42, 95
2, 388320, Note_on_c, 0, 42, 95
2, 388560, Note_off_c, 0, 42, 95
2, 388560, Note_on_c, 0, 42, 95
2, 388800, Note_off_c, 0, 42, 95
2, 388800, Note_on_c, 0, 49, 95
2, 388800, Note_on_c, 0, 42, 95
2, 389280, Note_off_c, 0, 49, 95
2, 389280, Note_off_c, 0, 42, 95
2, 389280, Note_on_c, 0, 42, 95
2, 389520, Note_off_c, 0, 42, 95
2, 389520, Note_on_c, 0, 42, 95
2, 389760, Note_off_c, 0, 42, 95
2, 389760, Note_on_c, 0, 49, 95
2, 389760, Note_on_c, 0, 42, 95
2, 390240, Note_off_c, 0, 49, 95
2, 390240, Note_off_c, 0, 42, 95
2, 390240, Note_on_c, 0, 42, 95
2, 390480, Note_off_c, 0, 42, 95
2, 390480, Note_on_c, 0, 42, 95
2, 390720, Note_off_c, 0, 42, 95
2, 390720, Note_on_c, 0, 49, 95
2, 390720, Note_on_c, 0, 42, 95
2, 391200, Note_off_c, 0, 49, 95
2, 391200, Note_off_c, 0, 42, 95
2, 391200, Note_on_c, 0, 42, 95
2, 391440, Note_off_c, 0, 42, 95
2, 391440, Note_on_c, 0, 42, 95
2, 391680, Note_off_c, 0, 42, 95
2, 391680, Note_on_c, 0, 47, 95
2, 391680, Note_on_c, 0, 40, 95
2, 392160, Note_off_c, 0, 47, 95
2, 392160, Note_off_c, 0, 40, 95
2, 392160, Note_on_c, 0, 40, 95
2, 392400, Note_off_c, 0, 40, 95
2, 392400, Note_on_c, 0, 40, 95
2, 392640, Note_off_c, 0, 40, 95
2, 392640, Note_on_c, 0, 47, 95
2, 392640, Note_on_c, 0, 40, 95
2, 393120, Note_off_c, 0, 47, 95
2, 393120, Note_off_c, 0, 40, 95
2, 393120, Note_on_c, 0, 40, 95
2, 393360, Note_off_c, 0, 40, 95
2, 393360, Note_on_c, 0, 40, 95
2, 393600, Note_off_c, 0, 40, 95
2, 393600, Note_on_c, 0, 47, 95
2, 393600, Note_on_c, 0, 40, 95
2, 394080, Note_off_c, 0, 47, 95
2, 394080, Note_off_c, 0, 40, 95
2, 394080, Note_on_c, 0, 40, 95
2, 394320, Note_off_c, 0, 40, 95
2, 394320, Note_on_c, 0, 40, 95
2, 394560, Note_off_c, 0, 40, 95
2, 394560, Note_on_c, 0, 47, 95
2, 394560, Note_on_c, 0, 40, 95
2, 395040, Note_off_c, 0, 47, 95
2, 395040, Note_off_c, 0, 40, 95
2, 395040, Note_on_c, 0, 40, 95
2, 395280, Note_off_c, 0, 40, 95
2, 395280, Note_on_c, 0, 40, 95
2, 395520, Note_off_c, 0, 40, 95
2, 395520, Note_on_c, 0, 49, 95
2, 395520, Note_on_c, 0, 42, 95
2, 396000, Note_off_c, 0, 49, 95
2, 396000, Note_off_c, 0, 42, 95
2, 396000, Note_on_c, 0, 42, 95
2, 396240, Note_off_c, 0, 42, 95
2, 396240, Note_on_c, 0, 42, 95
2, 396480, Note_off_c, 0, 42, 95
2, 396480, Note_on_c, 0, 49, 95
2, 396480, Note_on_c, 0, 42, 95
2, 396960, Note_off_c, 0, 49, 95
2, 396960, Note_off_c, 0, 42, 95
2, 396960, Note_on_c, 0, 42, 95
2, 397200, Note_off_c, 0, 42, 95
2, 397200, Note_on_c, 0, 42, 95
2, 397440, Note_off_c, 0, 42, 95
2, 397440, Note_on_c, 0, 49, 95
2, 397440, Note_on_c, 0, 42, 95
2, 397920, Note_off_c, 0, 49, 95
2, 397920, Note_off_c, 0, 42, 95
2, 397920, Note_on_c, 0, 42, 95
2, 398160, Note_off_c, 0, 42, 95
2, 398160, Note_on_c, 0, 42, 95
2, 398400, Note_off_c, 0, 42, 95
2, 398400, Note_on_c, 0, 49, 95
2, 398400, Note_on_c, 0, 42, 95
2, 398880, Note_off_c, 0, 49, 95
2, 398880, Note_off_c, 0, 42, 95
2, 398880, Note_on_c, 0, 42, 95
2, 399120, Note_off_c, 0, 42, 95
2, 399120, Note_on_c, 0, 42, 95
2, 399360, Note_off_c, 0, 42, 95
2, 399360, Note_on_c, 0, 51, 95
2, 399360, Note_on_c, 0, 44, 95
2, 399840, Note_off_c, 0, 51, 95
2, 399840, Note_off_c, 0, 44, 95
2, 399840, Note_on_c, 0, 44, 95
2, 400080, Note_off_c, 0, 44, 95
2, 400080, Note_on_c, 0, 44, 95
2, 400320, Note_off_c, 0, 44, 95
2, 400320, Note_on_c, 0, 51, 95
2, 400320, Note_on_c, 0, 44, 95
2, 400800, Note_off_c, 0, 51, 95
2, 400800, Note_off_c, 0, 44, 95
2, 400800, Note_on_c, 0, 44, 95
2, 401040, Note_off_c, 0, 44, 95
2, 401040, Note_on_c, 0, 44, 95
2, 401280, Note_off_c, 0, 44, 95
2, 401280, Note_on_c, 0, 51, 95
2, 401280, Note_on_c, 0, 44, 95
2, 401760, Note_off_c, 0, 51, 95
2, 401760, Note_off_c, 0, 44, 95
2, 401760, Note_on_c, 0, 44, 95
2, 402000, Note_off_c, 0, 44, 95
2, 402000, Note_on_c, 0, 44, 95
2, 402240, Note_off_c, 0, 44, 95
2, 402240, Note_on_c, 0, 51, 95
2, 402240, Note_on_c, 0, 44, 95
2, 402720, Note_off_c, 0, 51, 95
2, 402720, Note_off_c, 0, 44, 95
2, 402720, Note_on_c, 0, 44, 95
2, 402960, Note_off_c, 0, 44, 95
2, 402960, Note_on_c, 0, 44, 95
2, 403200, Note_off_c, 0, 44, 95
2, 403200, Note_on_c, 0, 49, 95
2, 403200, Note_on_c, 0, 42, 95
2, 403680, Note_off_c, 0, 49, 95
2, 403680, Note_off_c, 0, 42, 95
2, 403680, Note_on_c, 0, 42, 95
2, 403920, Note_off_c, 0, 42, 95
2, 403920, Note_on_c, 0, 42, 95
2, 404160, Note_off_c, 0, 42, 95
2, 404160, Note_on_c, 0, 49, 95
2, 404160, Note_on_c, 0, 42, 95
2, 404640, Note_off_c, 0, 49, 95
2, 404640, Note_off_c, 0, 42, 95
2, 404640, Note_on_c, 0, 42, 95
2, 404880, Note_off_c, 0, 42, 95
2, 404880, Note_on_c, 0, 42, 95
2, 405120, Note_off_c, 0, 42, 95
2, 405120, Note_on_c, 0, 49, 95
2, 405120, Note_on_c, 0, 42, 95
2, 405600, Note_off_c, 0, 49, 95
2, 405600, Note_off_c, 0, 42, 95
2, 405600, Note_on_c, 0, 42, 95
2, 405840, Note_off_c, 0, 42, 95
2, 405840, Note_on_c, 0, 42, 95
2, 406080, Note_off_c, 0, 42, 95
2, 406080, Note_on_c, 0, 49, 95
2, 406080, Note_on_c, 0, 42, 95
2, 406560, Note_off_c, 0, 49, 95
2, 406560, Note_off_c, 0, 42, 95
2, 406560, Note_on_c, 0, 42, 95
2, 406800, Note_off_c, 0, 42, 95
2, 406800, Note_on_c, 0, 42, 95
2, 407040, Note_off_c, 0, 42, 95
2, 407040, Note_on_c, 0, 47, 95
2, 407040, Note_on_c, 0, 40, 95
2, 407520, Note_off_c, 0, 47, 95
2, 407520, Note_off_c, 0, 40, 95
2, 407520, Note_on_c, 0, 40, 95
2, 407760, Note_off_c, 0, 40, 95
2, 407760, Note_on_c, 0, 40, 95
2, 408000, Note_off_c, 0, 40, 95
2, 408000, Note_on_c, 0, 47, 95
2, 408000, Note_on_c, 0, 40, 95
2, 408480, Note_off_c, 0, 47, 95
2, 408480, Note_off_c, 0, 40, 95
2, 408480, Note_on_c, 0, 40, 95
2, 408720, Note_off_c, 0, 40, 95
2, 408720, Note_on_c, 0, 40, 95
2, 408960, Note_off_c, 0, 40, 95
2, 408960, Note_on_c, 0, 47, 95
2, 408960, Note_on_c, 0, 40, 95
2, 409440, Note_off_c, 0, 47, 95
2, 409440, Note_off_c, 0, 40, 95
2, 409440, Note_on_c, 0, 40, 95
2, 409680, Note_off_c, 0, 40, 95
2, 409680, Note_on_c, 0, 40, 95
2, 409920, Note_off_c, 0, 40, 95
2, 409920, Note_on_c, 0, 47, 95
2, 409920, Note_on_c, 0, 40, 95
2, 410400, Note_off_c, 0, 47, 95
2, 410400, Note_off_c, 0, 40, 95
2, 410400, Note_on_c, 0, 40, 95
2, 410640, Note_off_c, 0, 40, 95
2, 410640, Note_on_c, 0, 40, 95
2, 410880, Note_off_c, 0, 40, 95
2, 410880, Note_on_c, 0, 49, 95
2, 410880, Note_on_c, 0, 42, 95
2, 411360, Note_off_c, 0, 49, 95
2, 411360, Note_off_c, 0, 42, 95
2, 411360, Note_on_c, 0, 42, 95
2, 411600, Note_off_c, 0, 42, 95
2, 411600, Note_on_c, 0, 42, 95
2, 411840, Note_off_c, 0, 42, 95
2, 411840, Note_on_c, 0, 49, 95
2, 411840, Note_on_c, 0, 42, 95
2, 412320, Note_off_c, 0, 49, 95
2, 412320, Note_off_c, 0, 42, 95
2, 412320, Note_on_c, 0, 42, 95
2, 412560, Note_off_c, 0, 42, 95
2, 412560, Note_on_c, 0, 42, 95
2, 412800, Note_off_c, 0, 42, 95
2, 412800, Note_on_c, 0, 49, 95
2, 412800, Note_on_c, 0, 42, 95
2, 413280, Note_off_c, 0, 49, 95
2, 413280, Note_off_c, 0, 42, 95
2, 413280, Note_on_c, 0, 42, 95
2, 413520, Note_off_c, 0, 42, 95
2, 413520, Note_on_c, 0, 42, 95
2, 413760, Note_off_c, 0, 42, 95
2, 413760, Note_on_c, 0, 49, 95
2, 413760, Note_on_c, 0, 42, 95
2, 414240, Note_off_c, 0, 49, 95
2, 414240, Note_off_c, 0, 42, 95
2, 414240, Note_on_c, 0, 42, 95
2, 414480, Note_off_c, 0, 42, 95
2, 414480, Note_on_c, 0, 42, 95
2, 414720, Note_off_c, 0, 42, 95
2, 414720, Note_on_c, 1, 51, 95
2, 414720, Note_on_c, 1, 44, 95
2, 416640, Note_off_c, 1, 51, 95
2, 416640, Note_off_c, 1, 44, 95
2, 416640, End_track
3, 0, Start_track
3, 0, Pitch_bend_c, 4, 8192
3, 0, Control_c, 4, 7, 103
3, 0, Control_c, 4, 10, 63
3, 0, Control_c, 4, 93, 0
3, 0, Control_c, 4, 91, 0
3, 0, Control_c, 4, 95, 0
3, 0, Control_c, 4, 92, 0
3, 0, Control_c, 4, 11, 127
3, 0, Program_c, 4, 29
3, 0, Control_c, 5, 7, 103
3, 0, Control_c, 5, 10, 63
3, 0, Control_c, 5, 93, 0
3, 0, Control_c, 5, 91, 0
3, 0, Control_c, 5, 95, 0
3, 0, Control_c, 5, 92, 0
3, 0, Control_c, 5, 11, 127
3, 0, Program_c, 5, 29
3, 184320, Note_on_c, 5, 71, 95
3, 184480, Pitch_bend_c, 5, 8192
3, 184640, Pitch_bend_c, 5, 8320
3, 184800, Pitch_bend_c, 5, 8192
3, 184960, Pitch_bend_c, 5, 8320
3, 185120, Pitch_bend_c, 5, 8192
3, 185280, Pitch_bend_c, 5, 8320
3, 185440, Pitch_bend_c, 5, 8192
3, 185600, Pitch_bend_c, 5, 8320
3, 185760, Pitch_bend_c, 5, 8192
3, 185920, Pitch_bend_c, 5, 8320
3, 186080, Pitch_bend_c, 5, 8192
3, 186240, Pitch_bend_c, 5, 8320
3, 186400, Pitch_bend_c, 5, 8192
3, 186560, Pitch_bend_c, 5, 8320
3, 186720, Pitch_bend_c, 5, 8192
3, 186880, Pitch_bend_c, 5, 8320
3, 187040, Pitch_bend_c, 5, 8192
3, 187200, Pitch_bend_c, 5, 8320
3, 187360, Pitch_bend_c, 5, 8192
3, 187520, Pitch_bend_c, 5, 8320
3, 187680, Pitch_bend_c, 5, 8192
3, 187680, Pitch_bend_c, 5, 8320
3, 187680, Pitch_bend_c, 5, 8192
3, 187680, Note_off_c, 5, 71, 95
3, 187680, Note_on_c, 4, 73, 95
3, 188160, Note_off_c, 4, 73, 95
3, 188160, Note_on_c, 5, 73, 95
3, 188320, Pitch_bend_c, 5, 8192
3, 188480, Pitch_bend_c, 5, 8320
3, 188640, Pitch_bend_c, 5, 8192
3, 188800, Pitch_bend_c, 5, 8320
3, 188960, Pitch_bend_c, 5, 8192
3, 189120, Pitch_bend_c, 5, 8320
3, 189280, Pitch_bend_c, 5, 8192
3, 189440, Pitch_bend_c, 5, 8320
3, 189600, Pitch_bend_c, 5, 8192
3, 189760, Pitch_bend_c, 5, 8320
3, 189920, Pitch_bend_c, 5, 8192
3, 190080, Pitch_bend_c, 5, 8320
3, 190240, Pitch_bend_c, 5, 8192
3, 190400, Pitch_bend_c, 5, 8320
3, 190560, Pitch_bend_c, 5, 8192
3, 190720, Pitch_bend_c, 5, 8320
3, 190880, Pitch_bend_c, 5, 8192
3, 191040, Pitch_bend_c, 5, 8320
3, 191200, Pitch_bend_c, 5, 8192
3, 191360, Pitch_bend_c, 5, 8320
3, 191520, Pitch_bend_c, 5, 8192
3, 191520, Pitch_bend_c, 5, 8320
3, 191520, Pitch_bend_c, 5, 8192
3, 191520, Note_off_c, 5, 73, 95
3, 191520, Note_on_c, 4, 74, 95
3, 192000, Note_off_c, 4, 74, 95
3, 192000, Note_on_c, 5, 74, 95
3, 192160, Pitch_bend_c, 5, 8192
3, 192320, Pitch_bend_c, 5, 8320
3, 192480, Pitch_bend_c, 5, 8192
3, 192640, Pitch_bend_c, 5, 8320
3, 192800, Pitch_bend_c, 5, 8192
3, 192960, Pitch_bend_c, 5, 8320
3, 193120, Pitch_bend_c, 5, 8192
3, 193280, Pitch_bend_c, 5, 8320
3, 193440, Pitch_bend_c, 5, 8192
3, 193600, Pitch_bend_c, 5, 8320
3, 193760, Pitch_bend_c, 5, 8192
3, 193920, Pitch_bend_c, 5, 8320
3, 194080, Pitch_bend_c, 5, 8192
3, 194240, Pitch_bend_c, 5, 8320
3, 194400, Pitch_bend_c, 5, 8192
3, 194560, Pitch_bend_c, 5, 8320
3, 194720, Pitch_bend_c, 5, 8192
3, 194880, Pitch_bend_c, 5, 8320
3, 195040, Pitch_bend_c, 5, 8192
3, 195200, Pitch_bend_c, 5, 8320
3, 195360, Pitch_bend_c, 5, 8192
3, 195360, Pitch_bend_c, 5, 8320
3, 195360, Pitch_bend_c, 5, 8192
3, 195360, Note_off_c, 5, 74, 95
3, 195360, Note_on_c, 4, 79, 95
3, 195840, Note_off_c, 4, 79, 95
3, 195840, Note_on_c, 4, 79, 95
3, 197280, Note_off_c, 4, 79, 95
3, 197280, Note_on_c, 4, 78, 95
3, 198720, Note_off_c, 4, 78, 95
3, 198720, Note_on_c, 4, 76, 95
3, 199680, Note_off_c, 4, 76, 95
3, 199680, Note_on_c, 5, 71, 95
3, 199840, Pitch_bend_c, 5, 8192
3, 200000, Pitch_bend_c, 5, 8320
3, 200160, Pitch_bend_c, 5, 8192
3, 200320, Pitch_bend_c, 5, 8320
3, 200480, Pitch_bend_c, 5, 8192
3, 200640, Pitch_bend_c, 5, 8320
3, 200800, Pitch_bend_c, 5, 8192
3, 200960, Pitch_bend_c, 5, 8320
3, 201120, Pitch_bend_c, 5, 8192
3, 201280, Pitch_bend_c, 5, 8320
3, 201440, Pitch_bend_c, 5, 8192
3, 201600, Pitch_bend_c, 5, 8320
3, 201760, Pitch_bend_c, 5, 8192
3, 201920, Pitch_bend_c, 5, 8320
3, 202080, Pitch_bend_c, 5, 8192
3, 202240, Pitch_bend_c, 5, 8320
3, 202400, Pitch_bend_c, 5, 8192
3, 202560, Pitch_bend_c, 5, 8320
3, 202720, Pitch_bend_c, 5, 8192
3, 202880, Pitch_bend_c, 5, 8320
3, 203040, Pitch_bend_c, 5, 8192
3, 203040, Pitch_bend_c, 5, 8320
3, 203040, Pitch_bend_c, 5, 8192
3, 203040, Note_off_c, 5, 71, 95
3, 203040, Note_on_c, 4, 73, 95
3, 203520, Note_off_c, 4, 73, 95
3, 203520, Note_on_c, 5, 73, 95
3, 203680, Pitch_bend_c, 5, 8192
3, 203840, Pitch_bend_c, 5, 8320
3, 204000, Pitch_bend_c, 5, 8192
3, 204160, Pitch_bend_c, 5, 8320
3, 204320, Pitch_bend_c, 5, 8192
3, 204480, Pitch_bend_c, 5, 8320
3, 204640, Pitch_bend_c, 5, 8192
3, 204800, Pitch_bend_c, 5, 8320
3, 204960, Pitch_bend_c, 5, 8192
3, 205120, Pitch_bend_c, 5, 8320
3, 205280, Pitch_bend_c, 5, 8192
3, 205440, Pitch_bend_c, 5, 8320
3, 205600, Pitch_bend_c, 5, 8192
3, 205760, Pitch_bend_c, 5, 8320
3, 205920, Pitch_bend_c, 5, 8192
3, 206080, Pitch_bend_c, 5, 8320
3, 206240, Pitch_bend_c, 5, 8192
3, 206400, Pitch_bend_c, 5, 8320
3, 206560, Pitch_bend_c, 5, 8192
3, 206720, Pitch_bend_c, 5, 8320
3, 206880, Pitch_bend_c, 5, 8192
3, 206880, Pitch_bend_c, 5, 8320
3, 206880, Pitch_bend_c, 5, 8192
3, 206880, Note_off_c, 5, 73, 95
3, 206880, Note_on_c, 4, 74, 95
3, 207360, Note_off_c, 4, 74, 95
3, 207360, Note_on_c, 5, 74, 95
3, 207520, Pitch_bend_c, 5, 8192
3, 207680, Pitch_bend_c, 5, 8320
3, 207840, Pitch_bend_c, 5, 8192
3, 208000, Pitch_bend_c, 5, 8320
3, 208160, Pitch_bend_c, 5, 8192
3, 208320, Pitch_bend_c, 5, 8320
3, 208480, Pitch_bend_c, 5, 8192
3, 208640, Pitch_bend_c, 5, 8320
3, 208800, Pitch_bend_c, 5, 8192
3, 208960, Pitch_bend_c, 5, 8320
3, 209120, Pitch_bend_c, 5, 8192
3, 209280, Pitch_bend_c, 5, 8320
3, 209440, Pitch_bend_c, 5, 8192
3, 209600, Pitch_bend_c, 5, 8320
3, 209760, Pitch_bend_c, 5, 8192
3, 209920, Pitch_bend_c, 5, 8320
3, 210080, Pitch_bend_c, 5, 8192
3, 210240, Pitch_bend_c, 5, 8320
3, 210400, Pitch_bend_c, 5, 8192
3, 210560, Pitch_bend_c, 5, 8320
3, 210720, Pitch_bend_c, 5, 8192
3, 210720, Pitch_bend_c, 5, 8320
3, 210720, Pitch_bend_c, 5, 8192
3, 210720, Note_off_c, 5, 74, 95
3, 210720, Note_on_c, 4, 79, 95
3, 211200, Note_off_c, 4, 79, 95
3, 211200, Note_on_c, 4, 79, 95
3, 212640, Note_off_c, 4, 79, 95
3, 212640, Note_on_c, 4, 78, 95
3, 214080, Note_off_c, 4, 78, 95
3, 214080, Note_on_c, 4, 76, 95
3, 215040, Note_off_c, 4, 76, 95
3, 307200, Note_on_c, 5, 71, 95
3, 307360, Pitch_bend_c, 5, 8192
3, 307520, Pitch_bend_c, 5, 8320
3, 307680, Pitch_bend_c, 5, 8192
3, 307840, Pitch_bend_c, 5, 8320
3, 308000, Pitch_bend_c, 5, 8192
3, 308160, Pitch_bend_c, 5, 8320
3, 308320, Pitch_bend_c, 5, 8192
3, 308480, Pitch_bend_c, 5, 8320
3, 308640, Pitch_bend_c, 5, 8192
3, 308800, Pitch_bend_c, 5, 8320
3, 308960, Pitch_bend_c, 5, 8192
3, 309120, Pitch_bend_c, 5, 8320
3, 309280, Pitch_bend_c, 5, 8192
3, 309440, Pitch_bend_c, 5, 8320
3, 309600, Pitch_bend_c, 5, 8192
3, 309760, Pitch_bend_c, 5, 8320
3, 309920, Pitch_bend_c, 5, 8192
3, 310080, Pitch_bend_c, 5, 8320
3, 310240, Pitch_bend_c, 5, 8192
3, 310400, Pitch_bend_c, 5, 8320
3, 310560, Pitch_bend_c, 5, 8192
3, 310560, Pitch_bend_c, 5, 8320
3, 310560, Pitch_bend_c, 5, 8192
3, 310560, Note_off_c, 5, 71, 95
3, 310560, Note_on_c, 4, 73, 95
3, 311040, Note_off_c, 4, 73, 95
3, 311040, Note_on_c, 5, 73, 95
3, 311200, Pitch_bend_c, 5, 8192
3, 311360, Pitch_bend_c, 5, 8320
3, 311520, Pitch_bend_c, 5, 8192
3, 311680, Pitch_bend_c, 5, 8320
3, 311840, Pitch_bend_c, 5, 8192
3, 312000, Pitch_bend_c, 5, 8320
3, 312160, Pitch_bend_c, 5, 8192
3, 312320, Pitch_bend_c, 5, 8320
3, 312480, Pitch_bend_c, 5, 8192
3, 312640, Pitch_bend_c, 5, 8320
3, 312800, Pitch_bend_c, 5, 8192
3, 312960, Pitch_bend_c, 5, 8320
3, 313120, Pitch_bend_c, 5, 8192
3, 313280, Pitch_bend_c, 5, 8320
3, 313440, Pitch_bend_c, 5, 8192
3, 313600, Pitch_bend_c, 5, 8320
3, 313760, Pitch_bend_c, 5, 8192
3, 313920, Pitch_bend_c, 5, 8320
3, 314080, Pitch_bend_c, 5, 8192
3, 314240, Pitch_bend_c, 5, 8320
3, 314400, Pitch_bend_c, 5, 8192
3, 314400, Pitch_bend_c, 5, 8320
3, 314400, Pitch_bend_c, 5, 8192
3, 314400, Note_off_c, 5, 73, 95
3, 314400, Note_on_c, 4, 74, 95
3, 314880, Note_off_c, 4, 74, 95
3, 314880, Note_on_c, 5, 74, 95
3, 315040, Pitch_bend_c, 5, 8192
3, 315200, Pitch_bend_c, 5, 8320
3, 315360, Pitch_bend_c, 5, 8192
3, 315520, Pitch_bend_c, 5, 8320
3, 315680, Pitch_bend_c, 5, 8192
3, 315840, Pitch_bend_c, 5, 8320
3, 316000, Pitch_bend_c, 5, 8192
3, 316160, Pitch_bend_c, 5, 8320
3, 316320, Pitch_bend_c, 5, 8192
3, 316480, Pitch_bend_c, 5, 8320
3, 316640, Pitch_bend_c, 5, 8192
3, 316800, Pitch_bend_c, 5, 8320
3, 316960, Pitch_bend_c, 5, 8192
3, 317120, Pitch_bend_c, 5, 8320
3, 317280, Pitch_bend_c, 5, 8192
3, 317440, Pitch_bend_c, 5, 8320
3, 317600, Pitch_bend_c, 5, 8192
3, 317760, Pitch_bend_c, 5, 8320
3, 317920, Pitch_bend_c, 5, 8192
3, 318080, Pitch_bend_c, 5, 8320
3, 318240, Pitch_bend_c, 5, 8192
3, 318240, Pitch_bend_c, 5, 8320
3, 318240, Pitch_bend_c, 5, 8192
3, 318240, Note_off_c, 5, 74, 95
3, 318240, Note_on_c, 4, 79, 95
3, 318720, Note_off_c, 4, 79, 95
3, 318720, Note_on_c, 4, 79, 95
3, 320160, Note_off_c, 4, 79, 95
3, 320160, Note_on_c, 4, 78, 95
3, 321600, Note_off_c, 4, 78, 95
3, 321600, Note_on_c, 4, 76, 95
3, 322560, Note_off_c, 4, 76, 95
3, 322560, Note_on_c, 5, 71, 95
3, 322720, Pitch_bend_c, 5, 8192
3, 322880, Pitch_bend_c, 5, 8320
3, 323040, Pitch_bend_c, 5, 8192
3, 323200, Pitch_bend_c, 5, 8320
3, 323360, Pitch_bend_c, 5, 8192
3, 323520, Pitch_bend_c, 5, 8320
3, 323680, Pitch_bend_c, 5, 8192
3, 323840, Pitch_bend_c, 5, 8320
3, 324000, Pitch_bend_c, 5, 8192
3, 324160, Pitch_bend_c, 5, 8320
3, 324320, Pitch_bend_c, 5, 8192
3, 324480, Pitch_bend_c, 5, 8320
3, 324640, Pitch_bend_c, 5, 8192
3, 324800, Pitch_bend_c, 5, 8320
3, 324960, Pitch_bend_c, 5, 8192
3, 325120, Pitch_bend_c, 5, 8320
3, 325280, Pitch_bend_c, 5, 8192
3, 325440, Pitch_bend_c, 5, 8320
3, 325600, Pitch_bend_c, 5, 8192
3, 325760, Pitch_bend_c, 5, 8320
3, 325920, Pitch_bend_c, 5, 8192
3, 325920, Pitch_bend_c, 5, 8320
3, 325920, Pitch_bend_c, 5, 8192
3, 325920, Note_off_c, 5, 71, 95
3, 325920, Note_on_c, 4, 73, 95
3, 326400, Note_off_c, 4, 73, 95
3, 326400, Note_on_c, 5, 73, 95
3, 326560, Pitch_bend_c, 5, 8192
3, 326720, Pitch_bend_c, 5, 8320
3, 326880, Pitch_bend_c, 5, 8192
3, 327040, Pitch_bend_c, 5, 8320
3, 327200, Pitch_bend_c, 5, 8192
3, 327360, Pitch_bend_c, 5, 8320
3, 327520, Pitch_bend_c, 5, 8192
3, 327680, Pitch_bend_c, 5, 8320
3, 327840, Pitch_bend_c, 5, 8192
3, 328000, Pitch_bend_c, 5, 8320
3, 328160, Pitch_bend_c, 5, 8192
3, 328320, Pitch_bend_c, 5, 8320
3, 328480, Pitch_bend_c, 5, 8192
3, 328640, Pitch_bend_c, 5, 8320
3, 328800, Pitch_bend_c, 5, 8192
3, 328960, Pitch_bend_c, 5, 8320
3, 329120, Pitch_bend_c, 5, 8192
3, 329280, Pitch_bend_c, 5, 8320
3, 329440, Pitch_bend_c, 5, 8192
3, 329600, Pitch_bend_c, 5, 8320
3, 329760, Pitch_bend_c, 5, 8192
3, 329760, Pitch_bend_c, 5, 8320
3, 329760, Pitch_bend_c, 5, 8192
3, 329760, Note_off_c, 5, 73, 95
3, 329760, Note_on_c, 4, 74, 95
3, 330240, Note_off_c, 4, 74, 95
3, 330240, Note_on_c, 5, 74, 95
3, 330400, Pitch_bend_c, 5, 8192
3, 330560, Pitch_bend_c, 5, 8320
3, 330720, Pitch_bend_c, 5, 8192
3, 330880, Pitch_bend_c, 5, 8320
3, 331040, Pitch_bend_c, 5, 8192
3, 331200, Pitch_bend_c, 5, 8320
3, 331360, Pitch_bend_c, 5, 8192
3, 331520, Pitch_bend_c, 5, 8320
3, 331680, Pitch_bend_c, 5, 8192
3, 331840, Pitch_bend_c, 5, 8320
3, 332000, Pitch_bend_c, 5, 8192
3, 332160, Pitch_bend_c, 5, 8320
3, 332320, Pitch_bend_c, 5, 8192
3, 332480, Pitch_bend_c, 5, 8320
3, 332640, Pitch_bend_c, 5, 8192
3, 332800, Pitch_bend_c, 5, 8320
3, 332960, Pitch_bend_c, 5, 8192
3, 333120, Pitch_bend_c, 5, 8320
3, 333280, Pitch_bend_c, 5, 8192
3, 333440, Pitch_bend_c, 5, 8320
3, 333600, Pitch_bend_c, 5, 8192
3, 333600, Pitch_bend_c, 5, 8320
3, 333600, Pitch_bend_c, 5, 8192
3, 333600, Note_off_c, 5, 74, 95
3, 333600, Note_on_c, 4, 79, 95
3, 334080, Note_off_c, 4, 79, 95
3, 334080, Note_on_c, 4, 79, 95
3, 335520, Note_off_c, 4, 79, 95
3, 335520, Note_on_c, 4, 78, 95
3, 336960, Note_off_c, 4, 78, 95
3, 336960, Note_on_c, 4, 76, 95
3, 337920, Note_off_c, 4, 76, 95
3, 337920, Note_on_c, 4, 78, 95
3, 337920, Pitch_bend_c, 5, 8192
3, 337920, Note_on_c, 5, 73, 95
3, 338016, Pitch_bend_c, 5, 8320
3, 338112, Pitch_bend_c, 5, 8448
3, 338208, Pitch_bend_c, 5, 8576
3, 338304, Pitch_bend_c, 5, 8704
3, 338400, Pitch_bend_c, 5, 8832
3, 338400, Pitch_bend_c, 5, 8832
3, 338880, Note_off_c, 4, 78, 95
3, 338880, Pitch_bend_c, 5, 8832
3, 338880, Pitch_bend_c, 5, 8192
3, 338880, Note_off_c, 5, 73, 95
3, 338880, Note_on_c, 4, 71, 95
3, 339120, Note_off_c, 4, 71, 95
3, 339120, Note_on_c, 4, 69, 95
3, 339360, Note_off_c, 4, 69, 95
3, 339360, Note_on_c, 5, 71, 95
3, 339520, Pitch_bend_c, 5, 8192
3, 339680, Pitch_bend_c, 5, 8320
3, 339840, Pitch_bend_c, 5, 8192
3, 340000, Pitch_bend_c, 5, 8320
3, 340160, Pitch_bend_c, 5, 8192
3, 340320, Pitch_bend_c, 5, 8320
3, 340480, Pitch_bend_c, 5, 8192
3, 340640, Pitch_bend_c, 5, 8320
3, 340800, Pitch_bend_c, 5, 8192
3, 340960, Pitch_bend_c, 5, 8320
3, 341120, Pitch_bend_c, 5, 8192
3, 341280, Pitch_bend_c, 5, 8320
3, 341440, Pitch_bend_c, 5, 8192
3, 341600, Pitch_bend_c, 5, 8320
3, 341760, Pitch_bend_c, 5, 8192
3, 341760, Pitch_bend_c, 5, 8320
3, 341760, Pitch_bend_c, 5, 8192
3, 341760, Note_off_c, 5, 71, 95
3, 341760, Note_on_c, 4, 78, 95
3, 341760, Pitch_bend_c, 5, 8192
3, 341760, Note_on_c, 5, 73, 95
3, 341856, Pitch_bend_c, 5, 8320
3, 341952, Pitch_bend_c, 5, 8448
3, 342048, Pitch_bend_c, 5, 8576
3, 342144, Pitch_bend_c, 5, 8704
3, 342240, Pitch_bend_c, 5, 8832
3, 342240, Pitch_bend_c, 5, 8832
3, 342720, Note_off_c, 4, 78, 95
3, 342720, Pitch_bend_c, 5, 8832
3, 342720, Pitch_bend_c, 5, 8192
3, 342720, Note_off_c, 5, 73, 95
3, 342720, Note_on_c, 4, 71, 95
3, 342960, Note_off_c, 4, 71, 95
3, 342960, Note_on_c, 4, 69, 95
3, 343200, Note_off_c, 4, 69, 95
3, 343200, Note_on_c, 5, 71, 95
3, 343360, Pitch_bend_c, 5, 8192
3, 343520, Pitch_bend_c, 5, 8320
3, 343680, Pitch_bend_c, 5, 8192
3, 343840, Pitch_bend_c, 5, 8320
3, 343920, Pitch_bend_c, 5, 8192
3, 343920, Pitch_bend_c, 5, 8320
3, 343920, Pitch_bend_c, 5, 8192
3, 343920, Note_off_c, 5, 71, 95
3, 343920, Note_on_c, 4, 69, 95
3, 344160, Note_off_c, 4, 69, 95
3, 344160, Note_on_c, 4, 64, 95
3, 345120, Note_off_c, 4, 64, 95
3, 345120, Note_on_c, 5, 62, 95
3, 345280, Pitch_bend_c, 5, 8192
3, 345440, Pitch_bend_c, 5, 8320
3, 345600, Pitch_bend_c, 5, 8192
3, 345600, Pitch_bend_c, 5, 8320
3, 345600, Pitch_bend_c, 5, 8192
3, 345600, Note_off_c, 5, 62, 95
3, 345600, Note_on_c, 4, 78, 95
3, 345600, Pitch_bend_c, 5, 8192
3, 345600, Note_on_c, 5, 73, 95
3, 345696, Pitch_bend_c, 5, 8320
3, 345792, Pitch_bend_c, 5, 8448
3, 345888, Pitch_bend_c, 5, 8576
3, 345984, Pitch_bend_c, 5, 8704
3, 346080, Pitch_bend_c, 5, 8832
3, 346080, Pitch_bend_c, 5, 8832
3, 346560, Note_off_c, 4, 78, 95
3, 346560, Pitch_bend_c, 5, 8832
3, 346560, Pitch_bend_c, 5, 8192
3, 346560, Note_off_c, 5, 73, 95
3, 346560, Note_on_c, 4, 71, 95
3, 346800, Note_off_c, 4, 71, 95
3, 346800, Note_on_c, 4, 69, 95
3, 347040, Note_off_c, 4, 69, 95
3, 347040, Note_on_c, 5, 71, 95
3, 347200, Pitch_bend_c, 5, 8192
3, 347360, Pitch_bend_c, 5, 8320
3, 347520, Pitch_bend_c, 5, 8192
3, 347680, Pitch_bend_c, 5, 8320
3, 347840, Pitch_bend_c, 5, 8192
3, 348000, Pitch_bend_c, 5, 8320
3, 348160, Pitch_bend_c, 5, 8192
3, 348320, Pitch_bend_c, 5, 8320
3, 348480, Pitch_bend_c, 5, 8192
3, 348480, Pitch_bend_c, 5, 8320
3, 348480, Pitch_bend_c, 5, 8192
3, 348480, Note_off_c, 5, 71, 95
3, 348480, Note_on_c, 4, 76, 95
3, 348960, Note_off_c, 4, 76, 95
3, 348960, Pitch_bend_c, 5, 8192
3, 348960, Note_on_c, 5, 76, 95
3, 349003, Pitch_bend_c, 5, 8320
3, 349046, Pitch_bend_c, 5, 8448
3, 349089, Pitch_bend_c, 5, 8576
3, 349132, Pitch_bend_c, 5, 8704
3, 349175, Pitch_bend_c, 5, 8832
3, 349218, Pitch_bend_c, 5, 8960
3, 349261, Pitch_bend_c, 5, 9088
3, 349304, Pitch_bend_c, 5, 9216
3, 349347, Pitch_bend_c, 5, 9344
3, 349390, Pitch_bend_c, 5, 9472
3, 349433, Pitch_bend_c, 5, 9600
3, 349440, Pitch_bend_c, 5, 9600
3, 349920, Pitch_bend_c, 5, 9600
3, 349920, Pitch_bend_c, 5, 8192
3, 349920, Note_off_c, 5, 76, 95
3, 349920, Note_on_c, 4, 81, 95
3, 350400, Note_off_c, 4, 81, 95
3, 350400, Pitch_bend_c, 5, 8192
3, 350400, Note_on_c, 5, 76, 95
3, 350414, Pitch_bend_c, 5, 8320
3, 350428, Pitch_bend_c, 5, 8448
3, 350442, Pitch_bend_c, 5, 8576
3, 350456, Pitch_bend_c, 5, 8704
3, 350470, Pitch_bend_c, 5, 8832
3, 350484, Pitch_bend_c, 5, 8960
3, 350498, Pitch_bend_c, 5, 9088
3, 350512, Pitch_bend_c, 5, 9216
3, 350526, Pitch_bend_c, 5, 9344
3, 350540, Pitch_bend_c, 5, 9472
3, 350554, Pitch_bend_c, 5, 9600
3, 350560, Pitch_bend_c, 5, 9600
3, 350720, Pitch_bend_c, 5, 9600
3, 350734, Pitch_bend_c, 5, 9472
3, 350748, Pitch_bend_c, 5, 9344
3, 350762, Pitch_bend_c, 5, 9216
3, 350776, Pitch_bend_c, 5, 9088
3, 350790, Pitch_bend_c, 5, 8960
3, 350804, Pitch_bend_c, 5, 8832
3, 350818, Pitch_bend_c, 5, 8704
3, 350832, Pitch_bend_c, 5, 8576
3, 350846, Pitch_bend_c, 5, 8448
3, 350860, Pitch_bend_c, 5, 8320
3, 350874, Pitch_bend_c, 5, 8192
3, 350880, Pitch_bend_c, 5, 8192
3, 351040, Pitch_bend_c, 5, 8192
3, 351040, Pitch_bend_c, 5, 8192
3, 351040, Note_off_c, 5, 76, 95
3, 351040, Note_on_c, 4, 74, 95
3, 351360, Note_off_c, 4, 74, 95
3, 351360, Note_on_c, 4, 76, 95
3, 351840, Note_off_c, 4, 76, 95
3, 351840, Note_on_c, 5, 74, 95
3, 352000, Pitch_bend_c, 5, 8192
3, 352160, Pitch_bend_c, 5, 8320
3, 352320, Pitch_bend_c, 5, 8192
3, 352480, Pitch_bend_c, 5, 8320
3, 352640, Pitch_bend_c, 5, 8192
3, 352800, Pitch_bend_c, 5, 8320
3, 352960, Pitch_bend_c, 5, 8192
3, 353120, Pitch_bend_c, 5, 8320
3, 353280, Pitch_bend_c, 5, 8192
3, 353280, Pitch_bend_c, 5, 8320
3, 353280, Pitch_bend_c, 5, 8192
3, 353280, Note_off_c, 5, 74, 95
3, 353280, Note_on_c, 4, 78, 95
3, 353280, Pitch_bend_c, 5, 8192
3, 353280, Note_on_c, 5, 73, 95
3, 353376, Pitch_bend_c, 5, 8320
3, 353472, Pitch_bend_c, 5, 8448
3, 353568, Pitch_bend_c, 5, 8576
3, 353664, Pitch_bend_c, 5, 8704
3, 353760, Pitch_bend_c, 5, 8832
3, 353760, Pitch_bend_c, 5, 8832
3, 354240, Note_off_c, 4, 78, 95
3, 354240, Pitch_bend_c, 5, 8832
3, 354240, Pitch_bend_c, 5, 8192
3, 354240, Note_off_c, 5, 73, 95
3, 354240, Note_on_c, 4, 71, 95
3, 354480, Note_off_c, 4, 71, 95
3, 354480, Note_on_c, 4, 69, 95
3, 354720, Note_off_c, 4, 69, 95
3, 354720, Note_on_c, 5, 71, 95
3, 354880, Pitch_bend_c, 5, 8192
3, 355040, Pitch_bend_c, 5, 8320
3, 355200, Pitch_bend_c, 5, 8192
3, 355360, Pitch_bend_c, 5, 8320
3, 355520, Pitch_bend_c, 5, 8192
3, 355680, Pitch_bend_c, 5, 8320
3, 355840, Pitch_bend_c, 5, 8192
3, 356000, Pitch_bend_c, 5, 8320
3, 356160, Pitch_bend_c, 5, 8192
3, 356320, Pitch_bend_c, 5, 8320
3, 356480, Pitch_bend_c, 5, 8192
3, 356640, Pitch_bend_c, 5, 8320
3, 356800, Pitch_bend_c, 5, 8192
3, 356960, Pitch_bend_c, 5, 8320
3, 357120, Pitch_bend_c, 5, 8192
3, 357120, Pitch_bend_c, 5, 8320
3, 357120, Pitch_bend_c, 5, 8192
3, 357120, Note_off_c, 5, 71, 95
3, 357120, Note_on_c, 4, 78, 95
3, 357120, Pitch_bend_c, 5, 8192
3, 357120, Note_on_c, 5, 73, 95
3, 357216, Pitch_bend_c, 5, 8320
3, 357312, Pitch_bend_c, 5, 8448
3, 357408, Pitch_bend_c, 5, 8576
3, 357504, Pitch_bend_c, 5, 8704
3, 357600, Pitch_bend_c, 5, 8832
3, 357600, Pitch_bend_c, 5, 8832
3, 358080, Note_off_c, 4, 78, 95
3, 358080, Pitch_bend_c, 5, 8832
3, 358080, Pitch_bend_c, 5, 8192
3, 358080, Note_off_c, 5, 73, 95
3, 358080, Note_on_c, 4, 71, 95
3, 358320, Note_off_c, 4, 71, 95
3, 358320, Note_on_c, 4, 69, 95
3, 358560, Note_off_c, 4, 69, 95
3, 358560, Note_on_c, 5, 71, 95
3, 358720, Pitch_bend_c, 5, 8192
3, 358880, Pitch_bend_c, 5, 8320
3, 359040, Pitch_bend_c, 5, 8192
3, 359200, Pitch_bend_c, 5, 8320
3, 359280, Pitch_bend_c, 5, 8192
3, 359280, Pitch_bend_c, 5, 8320
3, 359280, Pitch_bend_c, 5, 8192
3, 359280, Note_off_c, 5, 71, 95
3, 359280, Note_on_c, 4, 69, 95
3, 359520, Note_off_c, 4, 69, 95
3, 359520, Note_on_c, 4, 64, 95
3, 360480, Note_off_c, 4, 64, 95
3, 360480, Note_on_c, 4, 62, 95
3, 360960, Note_off_c, 4, 62, 95
3, 360960, Note_on_c, 4, 78, 95
3, 360960, Pitch_bend_c, 5, 8192
3, 360960, Note_on_c, 5, 73, 95
3, 361056, Pitch_bend_c, 5, 8320
3, 361152, Pitch_bend_c, 5, 8448
3, 361248, Pitch_bend_c, 5, 8576
3, 361344, Pitch_bend_c, 5, 8704
3, 361440, Pitch_bend_c, 5, 8832
3, 361440, Pitch_bend_c, 5, 8832
3, 361920, Note_off_c, 4, 78, 95
3, 361920, Pitch_bend_c, 5, 8832
3, 361920, Pitch_bend_c, 5, 8192
3, 361920, Note_off_c, 5, 73, 95
3, 361920, Note_on_c, 4, 71, 95
3, 362160, Note_off_c, 4, 71, 95
3, 362160, Note_on_c, 4, 69, 95
3, 362400, Note_off_c, 4, 69, 95
3, 362400, Note_on_c, 5, 71, 95
3, 362560, Pitch_bend_c, 5, 8192
3, 362720, Pitch_bend_c, 5, 8320
3, 362880, Pitch_bend_c, 5, 8192
3, 363040, Pitch_bend_c, 5, 8320
3, 363200, Pitch_bend_c, 5, 8192
3, 363360, Pitch_bend_c, 5, 8320
3, 363520, Pitch_bend_c, 5, 8192
3, 363680, Pitch_bend_c, 5, 8320
3, 363840, Pitch_bend_c, 5, 8192
3, 363840, Pitch_bend_c, 5, 8320
3, 363840, Pitch_bend_c, 5, 8192
3, 363840, Note_off_c, 5, 71, 95
3, 363840, Note_on_c, 4, 76, 95
3, 364320, Note_off_c, 4, 76, 95
3, 364320, Pitch_bend_c, 5, 8192
3, 364320, Note_on_c, 5, 76, 95
3, 364363, Pitch_bend_c, 5, 8320
3, 364406, Pitch_bend_c, 5, 8448
3, 364449, Pitch_bend_c, 5, 8576
3, 364492, Pitch_bend_c, 5, 8704
3, 364535, Pitch_bend_c, 5, 8832
3, 364578, Pitch_bend_c, 5, 8960
3, 364621, Pitch_bend_c, 5, 9088
3, 364664, Pitch_bend_c, 5, 9216
3, 364707, Pitch_bend_c, 5, 9344
3, 364750, Pitch_bend_c, 5, 9472
3, 364793, Pitch_bend_c, 5, 9600
3, 364800, Pitch_bend_c, 5, 9600
3, 365280, Pitch_bend_c, 5, 9600
3, 365280, Pitch_bend_c, 5, 8192
3, 365280, Note_off_c, 5, 76, 95
3, 365280, Note_on_c, 4, 81, 95
3, 365760, Note_off_c, 4, 81, 95
3, 365760, Pitch_bend_c, 5, 8192
3, 365760, Note_on_c, 5, 76, 95
3, 365774, Pitch_bend_c, 5, 8320
3, 365788, Pitch_bend_c, 5, 8448
3, 365802, Pitch_bend_c, 5, 8576
3, 365816, Pitch_bend_c, 5, 8704
3, 365830, Pitch_bend_c, 5, 8832
3, 365844, Pitch_bend_c, 5, 8960
3, 365858, Pitch_bend_c, 5, 9088
3, 365872, Pitch_bend_c, 5, 9216
3, 365886, Pitch_bend_c, 5, 9344
3, 365900, Pitch_bend_c, 5, 9472
3, 365914, Pitch_bend_c, 5, 9600
3, 365920, Pitch_bend_c, 5, 9600
3, 366080, Pitch_bend_c, 5, 9600
3, 366094, Pitch_bend_c, 5, 9472
3, 366108, Pitch_bend_c, 5, 9344
3, 366122, Pitch_bend_c, 5, 9216
3, 366136, Pitch_bend_c, 5, 9088
3, 366150, Pitch_bend_c, 5, 8960
3, 366164, Pitch_bend_c, 5, 8832
3, 366178, Pitch_bend_c, 5, 8704
3, 366192, Pitch_bend_c, 5, 8576
3, 366206, Pitch_bend_c, 5, 8448
3, 366220, Pitch_bend_c, 5, 8320
3, 366234, Pitch_bend_c, 5, 8192
3, 366240, Pitch_bend_c, 5, 8192
3, 366400, Pitch_bend_c, 5, 8192
3, 366414, Pitch_bend_c, 5, 8320
3, 366428, Pitch_bend_c, 5, 8448
3, 366442, Pitch_bend_c, 5, 8576
3, 366456, Pitch_bend_c, 5, 8704
3, 366470, Pitch_bend_c, 5, 8832
3, 366484, Pitch_bend_c, 5, 8960
3, 366498, Pitch_bend_c, 5, 9088
3, 366512, Pitch_bend_c, 5, 9216
3, 366526, Pitch_bend_c, 5, 9344
3, 366540, Pitch_bend_c, 5, 9472
3, 366554, Pitch_bend_c, 5, 9600
3, 366560, Pitch_bend_c, 5, 9600
3, 366720, Pitch_bend_c, 5, 9600
3, 366720, Pitch_bend_c, 5, 8192
3, 366720, Note_off_c, 5, 76, 95
3, 366720, Pitch_bend_c, 5, 9600
3, 366720, Note_on_c, 5, 76, 79
3, 368640, Pitch_bend_c, 5, 9600
3, 368640, Pitch_bend_c, 5, 8192
3, 368640, Note_off_c, 5, 76, 79
3, 368640, Pitch_bend_c, 5, 8192
3, 368640, Note_on_c, 5, 78, 95
3, 368669, Pitch_bend_c, 5, 8320
3, 368698, Pitch_bend_c, 5, 8448
3, 368727, Pitch_bend_c, 5, 8576
3, 368756, Pitch_bend_c, 5, 8704
3, 368785, Pitch_bend_c, 5, 8832
3, 368814, Pitch_bend_c, 5, 8960
3, 368843, Pitch_bend_c, 5, 9088
3, 368872, Pitch_bend_c, 5, 9216
3, 368901, Pitch_bend_c, 5, 9344
3, 368930, Pitch_bend_c, 5, 9472
3, 368959, Pitch_bend_c, 5, 9600
3, 368960, Pitch_bend_c, 5, 9600
3, 369280, Pitch_bend_c, 5, 9600
3, 369280, Pitch_bend_c, 5, 8192
3, 369280, Note_off_c, 5, 78, 95
3, 369280, Pitch_bend_c, 5, 8192
3, 369280, Note_on_c, 5, 78, 95
3, 369309, Pitch_bend_c, 5, 8320
3, 369338, Pitch_bend_c, 5, 8448
3, 369367, Pitch_bend_c, 5, 8576
3, 369396, Pitch_bend_c, 5, 8704
3, 369425, Pitch_bend_c, 5, 8832
3, 369454, Pitch_bend_c, 5, 8960
3, 369483, Pitch_bend_c, 5, 9088
3, 369512, Pitch_bend_c, 5, 9216
3, 369541, Pitch_bend_c, 5, 9344
3, 369570, Pitch_bend_c, 5, 9472
3, 369599, Pitch_bend_c, 5, 9600
3, 369600, Pitch_bend_c, 5, 9600
3, 369920, Pitch_bend_c, 5, 9600
3, 369920, Pitch_bend_c, 5, 8192
3, 369920, Note_off_c, 5, 78, 95
3, 369920, Pitch_bend_c, 5, 8192
3, 369920, Note_on_c, 5, 78, 95
3, 369949, Pitch_bend_c, 5, 8320
3, 369978, Pitch_bend_c, 5, 8448
3, 370007, Pitch_bend_c, 5, 8576
3, 370036, Pitch_bend_c, 5, 8704
3, 370065, Pitch_bend_c, 5, 8832
3, 370094, Pitch_bend_c, 5, 8960
3, 370123, Pitch_bend_c, 5, 9088
3, 370152, Pitch_bend_c, 5, 9216
3, 370181, Pitch_bend_c, 5, 9344
3, 370210, Pitch_bend_c, 5, 9472
3, 370239, Pitch_bend_c, 5, 9600
3, 370240, Pitch_bend_c, 5, 9600
3, 370560, Pitch_bend_c, 5, 9600
3, 370560, Pitch_bend_c, 5, 8192
3, 370560, Note_off_c, 5, 78, 95
3, 370560, Pitch_bend_c, 5, 8192
3, 370560, Note_on_c, 5, 78, 95
3, 370589, Pitch_bend_c, 5, 8320
3, 370618, Pitch_bend_c, 5, 8448
3, 370647, Pitch_bend_c, 5, 8576
3, 370676, Pitch_bend_c, 5, 8704
3, 370705, Pitch_bend_c, 5, 8832
3, 370734, Pitch_bend_c, 5, 8960
3, 370763, Pitch_bend_c, 5, 9088
3, 370792, Pitch_bend_c, 5, 9216
3, 370821, Pitch_bend_c, 5, 9344
3, 370850, Pitch_bend_c, 5, 9472
3, 370879, Pitch_bend_c, 5, 9600
3, 370880, Pitch_bend_c, 5, 9600
3, 371200, Pitch_bend_c, 5, 9600
3, 371200, Pitch_bend_c, 5, 8192
3, 371200, Note_off_c, 5, 78, 95
3, 371200, Pitch_bend_c, 5, 8192
3, 371200, Note_on_c, 5, 78, 95
3, 371229, Pitch_bend_c, 5, 8320
3, 371258, Pitch_bend_c, 5, 8448
3, 371287, Pitch_bend_c, 5, 8576
3, 371316, Pitch_bend_c, 5, 8704
3, 371345, Pitch_bend_c, 5, 8832
3, 371374, Pitch_bend_c, 5, 8960
3, 371403, Pitch_bend_c, 5, 9088
3, 371432, Pitch_bend_c, 5, 9216
3, 371461, Pitch_bend_c, 5, 9344
3, 371490, Pitch_bend_c, 5, 9472
3, 371519, Pitch_bend_c, 5, 9600
3, 371520, Pitch_bend_c, 5, 9600
3, 371840, Pitch_bend_c, 5, 9600
3, 371840, Pitch_bend_c, 5, 8192
3, 371840, Note_off_c, 5, 78, 95
3, 371840, Pitch_bend_c, 5, 8192
3, 371840, Note_on_c, 5, 78, 95
3, 371869, Pitch_bend_c, 5, 8320
3, 371898, Pitch_bend_c, 5, 8448
3, 371927, Pitch_bend_c, 5, 8576
3, 371956, Pitch_bend_c, 5, 8704
3, 371985, Pitch_bend_c, 5, 8832
3, 372014, Pitch_bend_c, 5, 8960
3, 372043, Pitch_bend_c, 5, 9088
3, 372072, Pitch_bend_c, 5, 9216
3, 372101, Pitch_bend_c, 5, 9344
3, 372130, Pitch_bend_c, 5, 9472
3, 372159, Pitch_bend_c, 5, 9600
3, 372160, Pitch_bend_c, 5, 9600
3, 372480, Pitch_bend_c, 5, 9600
3, 372480, Pitch_bend_c, 5, 8192
3, 372480, Note_off_c, 5, 78, 95
3, 372480, Pitch_bend_c, 5, 8192
3, 372480, Note_on_c, 5, 78, 95
3, 372509, Pitch_bend_c, 5, 8320
3, 372538, Pitch_bend_c, 5, 8448
3, 372567, Pitch_bend_c, 5, 8576
3, 372596, Pitch_bend_c, 5, 8704
3, 372625, Pitch_bend_c, 5, 8832
3, 372654, Pitch_bend_c, 5, 8960
3, 372683, Pitch_bend_c, 5, 9088
3, 372712, Pitch_bend_c, 5, 9216
3, 372741, Pitch_bend_c, 5, 9344
3, 372770, Pitch_bend_c, 5, 9472
3, 372799, Pitch_bend_c, 5, 9600
3, 372800, Pitch_bend_c, 5, 9600
3, 373120, Pitch_bend_c, 5, 9600
3, 373120, Pitch_bend_c, 5, 8192
3, 373120, Note_off_c, 5, 78, 95
3, 373120, Pitch_bend_c, 5, 8192
3, 373120, Note_on_c, 5, 78, 95
3, 373149, Pitch_bend_c, 5, 8320
3, 373178, Pitch_bend_c, 5, 8448
3, 373207, Pitch_bend_c, 5, 8576
3, 373236, Pitch_bend_c, 5, 8704
3, 373265, Pitch_bend_c, 5, 8832
3, 373294, Pitch_bend_c, 5, 8960
3, 373323, Pitch_bend_c, 5, 9088
3, 373352, Pitch_bend_c, 5, 9216
3, 373381, Pitch_bend_c, 5, 9344
3, 373410, Pitch_bend_c, 5, 9472
3, 373439, Pitch_bend_c, 5, 9600
3, 373440, Pitch_bend_c, 5, 9600
3, 373760, Pitch_bend_c, 5, 9600
3, 373760, Pitch_bend_c, 5, 8192
3, 373760, Note_off_c, 5, 78, 95
3, 373760, Pitch_bend_c, 5, 8192
3, 373760, Note_on_c, 5, 78, 95
3, 373789, Pitch_bend_c, 5, 8320
3, 373818, Pitch_bend_c, 5, 8448
3, 373847, Pitch_bend_c, 5, 8576
3, 373876, Pitch_bend_c, 5, 8704
3, 373905, Pitch_bend_c, 5, 8832
3, 373934, Pitch_bend_c, 5, 8960
3, 373963, Pitch_bend_c, 5, 9088
3, 373992, Pitch_bend_c, 5, 9216
3, 374021, Pitch_bend_c, 5, 9344
3, 374050, Pitch_bend_c, 5, 9472
3, 374079, Pitch_bend_c, 5, 9600
3, 374080, Pitch_bend_c, 5, 9600
3, 374400, Pitch_bend_c, 5, 9600
3, 374400, Pitch_bend_c, 5, 8192
3, 374400, Note_off_c, 5, 78, 95
3, 374400, Pitch_bend_c, 5, 8192
3, 374400, Note_on_c, 5, 78, 95
3, 374429, Pitch_bend_c, 5, 8320
3, 374458, Pitch_bend_c, 5, 8448
3, 374487, Pitch_bend_c, 5, 8576
3, 374516, Pitch_bend_c, 5, 8704
3, 374545, Pitch_bend_c, 5, 8832
3, 374574, Pitch_bend_c, 5, 8960
3, 374603, Pitch_bend_c, 5, 9088
3, 374632, Pitch_bend_c, 5, 9216
3, 374661, Pitch_bend_c, 5, 9344
3, 374690, Pitch_bend_c, 5, 9472
3, 374719, Pitch_bend_c, 5, 9600
3, 374720, Pitch_bend_c, 5, 9600
3, 375040, Pitch_bend_c, 5, 9600
3, 375040, Pitch_bend_c, 5, 8192
3, 375040, Note_off_c, 5, 78, 95
3, 375040, Pitch_bend_c, 5, 8192
3, 375040, Note_on_c, 5, 78, 95
3, 375069, Pitch_bend_c, 5, 8320
3, 375098, Pitch_bend_c, 5, 8448
3, 375127, Pitch_bend_c, 5, 8576
3, 375156, Pitch_bend_c, 5, 8704
3, 375185, Pitch_bend_c, 5, 8832
3, 375214, Pitch_bend_c, 5, 8960
3, 375243, Pitch_bend_c, 5, 9088
3, 375272, Pitch_bend_c, 5, 9216
3, 375301, Pitch_bend_c, 5, 9344
3, 375330, Pitch_bend_c, 5, 9472
3, 375359, Pitch_bend_c, 5, 9600
3, 375360, Pitch_bend_c, 5, 9600
3, 375680, Pitch_bend_c, 5, 9600
3, 375680, Pitch_bend_c, 5, 8192
3, 375680, Note_off_c, 5, 78, 95
3, 375680, Pitch_bend_c, 5, 8192
3, 375680, Note_on_c, 5, 78, 95
3, 375709, Pitch_bend_c, 5, 8320
3, 375738, Pitch_bend_c, 5, 8448
3, 375767, Pitch_bend_c, 5, 8576
3, 375796, Pitch_bend_c, 5, 8704
3, 375825, Pitch_bend_c, 5, 8832
3, 375854, Pitch_bend_c, 5, 8960
3, 375883, Pitch_bend_c, 5, 9088
3, 375912, Pitch_bend_c, 5, 9216
3, 375941, Pitch_bend_c, 5, 9344
3, 375970, Pitch_bend_c, 5, 9472
3, 375999, Pitch_bend_c, 5, 9600
3, 376000, Pitch_bend_c, 5, 9600
3, 376320, Pitch_bend_c, 5, 9600
3, 376320, Pitch_bend_c, 5, 8192
3, 376320, Note_off_c, 5, 78, 95
3, 376320, Pitch_bend_c, 5, 8192
3, 376320, Note_on_c, 5, 78, 95
3, 376349, Pitch_bend_c, 5, 8320
3, 376378, Pitch_bend_c, 5, 8448
3, 376407, Pitch_bend_c, 5, 8576
3, 376436, Pitch_bend_c, 5, 8704
3, 376465, Pitch_bend_c, 5, 8832
3, 376494, Pitch_bend_c, 5, 8960
3, 376523, Pitch_bend_c, 5, 9088
3, 376552, Pitch_bend_c, 5, 9216
3, 376581, Pitch_bend_c, 5, 9344
3, 376610, Pitch_bend_c, 5, 9472
3, 376639, Pitch_bend_c, 5, 9600
3, 376640, Pitch_bend_c, 5, 9600
3, 376960, Pitch_bend_c, 5, 9600
3, 376960, Pitch_bend_c, 5, 8192
3, 376960, Note_off_c, 5, 78, 95
3, 376960, Pitch_bend_c, 5, 8192
3, 376960, Note_on_c, 5, 78, 95
3, 376989, Pitch_bend_c, 5, 8320
3, 377018, Pitch_bend_c, 5, 8448
3, 377047, Pitch_bend_c, 5, 8576
3, 377076, Pitch_bend_c, 5, 8704
3, 377105, Pitch_bend_c, 5, 8832
3, 377134, Pitch_bend_c, 5, 8960
3, 377163, Pitch_bend_c, 5, 9088
3, 377192, Pitch_bend_c, 5, 9216
3, 377221, Pitch_bend_c, 5, 9344
3, 377250, Pitch_bend_c, 5, 9472
3, 377279, Pitch_bend_c, 5, 9600
3, 377280, Pitch_bend_c, 5, 9600
3, 377600, Pitch_bend_c, 5, 9600
3, 377600, Pitch_bend_c, 5, 8192
3, 377600, Note_off_c, 5, 78, 95
3, 377600, Pitch_bend_c, 5, 8192
3, 377600, Note_on_c, 5, 78, 95
3, 377629, Pitch_bend_c, 5, 8320
3, 377658, Pitch_bend_c, 5, 8448
3, 377687, Pitch_bend_c, 5, 8576
3, 377716, Pitch_bend_c, 5, 8704
3, 377745, Pitch_bend_c, 5, 8832
3, 377774, Pitch_bend_c, 5, 8960
3, 377803, Pitch_bend_c, 5, 9088
3, 377832, Pitch_bend_c, 5, 9216
3, 377861, Pitch_bend_c, 5, 9344
3, 377890, Pitch_bend_c, 5, 9472
3, 377919, Pitch_bend_c, 5, 9600
3, 377920, Pitch_bend_c, 5, 9600
3, 378240, Pitch_bend_c, 5, 9600
3, 378240, Pitch_bend_c, 5, 8192
3, 378240, Note_off_c, 5, 78, 95
3, 378240, Pitch_bend_c, 5, 8192
3, 378240, Note_on_c, 5, 78, 95
3, 378269, Pitch_bend_c, 5, 8320
3, 378298, Pitch_bend_c, 5, 8448
3, 378327, Pitch_bend_c, 5, 8576
3, 378356, Pitch_bend_c, 5, 8704
3, 378385, Pitch_bend_c, 5, 8832
3, 378414, Pitch_bend_c, 5, 8960
3, 378443, Pitch_bend_c, 5, 9088
3, 378472, Pitch_bend_c, 5, 9216
3, 378501, Pitch_bend_c, 5, 9344
3, 378530, Pitch_bend_c, 5, 9472
3, 378559, Pitch_bend_c, 5, 9600
3, 378560, Pitch_bend_c, 5, 9600
3, 378880, Pitch_bend_c, 5, 9600
3, 378880, Pitch_bend_c, 5, 8192
3, 378880, Note_off_c, 5, 78, 95
3, 378880, Pitch_bend_c, 5, 8192
3, 378880, Note_on_c, 5, 78, 95
3, 378909, Pitch_bend_c, 5, 8320
3, 378938, Pitch_bend_c, 5, 8448
3, 378967, Pitch_bend_c, 5, 8576
3, 378996, Pitch_bend_c, 5, 8704
3, 379025, Pitch_bend_c, 5, 8832
3, 379054, Pitch_bend_c, 5, 8960
3, 379083, Pitch_bend_c, 5, 9088
3, 379112, Pitch_bend_c, 5, 9216
3, 379141, Pitch_bend_c, 5, 9344
3, 379170, Pitch_bend_c, 5, 9472
3, 379199, Pitch_bend_c, 5, 9600
3, 379200, Pitch_bend_c, 5, 9600
3, 379520, Pitch_bend_c, 5, 9600
3, 379520, Pitch_bend_c, 5, 8192
3, 379520, Note_off_c, 5, 78, 95
3, 379520, Pitch_bend_c, 5, 8192
3, 379520, Note_on_c, 5, 78, 95
3, 379549, Pitch_bend_c, 5, 8320
3, 379578, Pitch_bend_c, 5, 8448
3, 379607, Pitch_bend_c, 5, 8576
3, 379636, Pitch_bend_c, 5, 8704
3, 379665, Pitch_bend_c, 5, 8832
3, 379694, Pitch_bend_c, 5, 8960
3, 379723, Pitch_bend_c, 5, 9088
3, 379752, Pitch_bend_c, 5, 9216
3, 379781, Pitch_bend_c, 5, 9344
3, 379810, Pitch_bend_c, 5, 9472
3, 379839, Pitch_bend_c, 5, 9600
3, 379840, Pitch_bend_c, 5, 9600
3, 380160, Pitch_bend_c, 5, 9600
3, 380160, Pitch_bend_c, 5, 8192
3, 380160, Note_off_c, 5, 78, 95
3, 380160, Pitch_bend_c, 5, 8192
3, 380160, Note_on_c, 5, 78, 95
3, 380189, Pitch_bend_c, 5, 8320
3, 380218, Pitch_bend_c, 5, 8448
3, 380247, Pitch_bend_c, 5, 8576
3, 380276, Pitch_bend_c, 5, 8704
3, 380305, Pitch_bend_c, 5, 8832
3, 380334, Pitch_bend_c, 5, 8960
3, 380363, Pitch_bend_c, 5, 9088
3, 380392, Pitch_bend_c, 5, 9216
3, 380421, Pitch_bend_c, 5, 9344
3, 380450, Pitch_bend_c, 5, 9472
3, 380479, Pitch_bend_c, 5, 9600
3, 380480, Pitch_bend_c, 5, 9600
3, 380800, Pitch_bend_c, 5, 9600
3, 380800, Pitch_bend_c, 5, 8192
3, 380800, Note_off_c, 5, 78, 95
3, 380800, Pitch_bend_c, 5, 8192
3, 380800, Note_on_c, 5, 78, 95
3, 380829, Pitch_bend_c, 5, 8320
3, 380858, Pitch_bend_c, 5, 8448
3, 380887, Pitch_bend_c, 5, 8576
3, 380916, Pitch_bend_c, 5, 8704
3, 380945, Pitch_bend_c, 5, 8832
3, 380974, Pitch_bend_c, 5, 8960
3, 381003, Pitch_bend_c, 5, 9088
3, 381032, Pitch_bend_c, 5, 9216
3, 381061, Pitch_bend_c, 5, 9344
3, 381090, Pitch_bend_c, 5, 9472
3, 381119, Pitch_bend_c, 5, 9600
3, 381120, Pitch_bend_c, 5, 9600
3, 381440, Pitch_bend_c, 5, 9600
3, 381440, Pitch_bend_c, 5, 8192
3, 381440, Note_off_c, 5, 78, 95
3, 381440, Pitch_bend_c, 5, 8192
3, 381440, Note_on_c, 5, 78, 95
3, 381469, Pitch_bend_c, 5, 8320
3, 381498, Pitch_bend_c, 5, 8448
3, 381527, Pitch_bend_c, 5, 8576
3, 381556, Pitch_bend_c, 5, 8704
3, 381585, Pitch_bend_c, 5, 8832
3, 381614, Pitch_bend_c, 5, 8960
3, 381643, Pitch_bend_c, 5, 9088
3, 381672, Pitch_bend_c, 5, 9216
3, 381701, Pitch_bend_c, 5, 9344
3, 381730, Pitch_bend_c, 5, 9472
3, 381759, Pitch_bend_c, 5, 9600
3, 381760, Pitch_bend_c, 5, 9600
3, 382080, Pitch_bend_c, 5, 9600
3, 382080, Pitch_bend_c, 5, 8192
3, 382080, Note_off_c, 5, 78, 95
3, 382080, Pitch_bend_c, 5, 8192
3, 382080, Note_on_c, 5, 78, 95
3, 382123, Pitch_bend_c, 5, 8320
3, 382166, Pitch_bend_c, 5, 8448
3, 382209, Pitch_bend_c, 5, 8576
3, 382252, Pitch_bend_c, 5, 8704
3, 382295, Pitch_bend_c, 5, 8832
3, 382338, Pitch_bend_c, 5, 8960
3, 382381, Pitch_bend_c, 5, 9088
3, 382424, Pitch_bend_c, 5, 9216
3, 382467, Pitch_bend_c, 5, 9344
3, 382510, Pitch_bend_c, 5, 9472
3, 382553, Pitch_bend_c, 5, 9600
3, 382560, Pitch_bend_c, 5, 9600
3, 383040, Pitch_bend_c, 5, 9600
3, 383040, Pitch_bend_c, 5, 8192
3, 383040, Note_off_c, 5, 78, 95
3, 384000, Note_on_c, 4, 80, 95
3, 384160, Note_off_c, 4, 80, 95
3, 384160, Note_on_c, 4, 82, 70
3, 384320, Note_off_c, 4, 82, 70
3, 384320, Note_on_c, 4, 80, 70
3, 384480, Note_off_c, 4, 80, 70
3, 384480, Note_on_c, 4, 78, 95
3, 384640, Note_off_c, 4, 78, 95
3, 384640, Note_on_c, 4, 80, 95
3, 384800, Note_off_c, 4, 80, 95
3, 384800, Note_on_c, 4, 83, 95
3, 384960, Note_off_c, 4, 83, 95
3, 384960, Note_on_c, 4, 82, 95
3, 385120, Note_off_c, 4, 82, 95
3, 385120, Note_on_c, 4, 83, 70
3, 385280, Note_off_c, 4, 83, 70
3, 385280, Note_on_c, 4, 82, 70
3, 385440, Note_off_c, 4, 82, 70
3, 385440, Note_on_c, 4, 80, 95
3, 385600, Note_off_c, 4, 80, 95
3, 385600, Note_on_c, 4, 78, 95
3, 385760, Note_off_c, 4, 78, 95
3, 385760, Note_on_c, 4, 75, 95
3, 385920, Note_off_c, 4, 75, 95
3, 385920, Note_on_c, 4, 80, 95
3, 386080, Note_off_c, 4, 80, 95
3, 386080, Note_on_c, 4, 82, 70
3, 386240, Note_off_c, 4, 82, 70
3, 386240, Note_on_c, 4, 80, 70
3, 386400, Note_off_c, 4, 80, 70
3, 386400, Note_on_c, 4, 78, 95
3, 386560, Note_off_c, 4, 78, 95
3, 386560, Note_on_c, 4, 80, 95
3, 386720, Note_off_c, 4, 80, 95
3, 386720, Note_on_c, 4, 83, 95
3, 386880, Note_off_c, 4, 83, 95
3, 386880, Note_on_c, 4, 82, 95
3, 387040, Note_off_c, 4, 82, 95
3, 387040, Note_on_c, 4, 83, 70
3, 387200, Note_off_c, 4, 83, 70
3, 387200, Note_on_c, 4, 82, 70
3, 387360, Note_off_c, 4, 82, 70
3, 387360, Note_on_c, 4, 80, 95
3, 387520, Note_off_c, 4, 80, 95
3, 387520, Note_on_c, 4, 78, 95
3, 387680, Note_off_c, 4, 78, 95
3, 387680, Note_on_c, 4, 75, 95
3, 387840, Note_off_c, 4, 75, 95
3, 387840, Note_on_c, 4, 80, 95
3, 388000, Note_off_c, 4, 80, 95
3, 388000, Note_on_c, 4, 82, 70
3, 388160, Note_off_c, 4, 82, 70
3, 388160, Note_on_c, 4, 80, 70
3, 388320, Note_off_c, 4, 80, 70
3, 388320, Note_on_c, 4, 78, 95
3, 388480, Note_off_c, 4, 78, 95
3, 388480, Note_on_c, 4, 80, 95
3, 388640, Note_off_c, 4, 80, 95
3, 388640, Note_on_c, 4, 83, 95
3, 388800, Note_off_c, 4, 83, 95
3, 388800, Note_on_c, 4, 82, 95
3, 388960, Note_off_c, 4, 82, 95
3, 388960, Note_on_c, 4, 83, 70
3, 389120, Note_off_c, 4, 83, 70
3, 389120, Note_on_c, 4, 82, 70
3, 389280, Note_off_c, 4, 82, 70
3, 389280, Note_on_c, 4, 80, 95
3, 389440, Note_off_c, 4, 80, 95
3, 389440, Note_on_c, 4, 78, 95
3, 389600, Note_off_c, 4, 78, 95
3, 389600, Note_on_c, 4, 75, 95
3, 389760, Note_off_c, 4, 75, 95
3, 389760, Note_on_c, 4, 80, 95
3, 389920, Note_off_c, 4, 80, 95
3, 389920, Note_on_c, 4, 82, 70
3, 390080, Note_off_c, 4, 82, 70
3, 390080, Note_on_c, 4, 80, 70
3, 390240, Note_off_c, 4, 80, 70
3, 390240, Note_on_c, 4, 78, 95
3, 390400, Note_off_c, 4, 78, 95
3, 390400, Note_on_c, 4, 80, 95
3, 390560, Note_off_c, 4, 80, 95
3, 390560, Note_on_c, 4, 83, 95
3, 390720, Note_off_c, 4, 83, 95
3, 390720, Note_on_c, 4, 82, 95
3, 390880, Note_off_c, 4, 82, 95
3, 390880, Note_on_c, 4, 83, 70
3, 391040, Note_off_c, 4, 83, 70
3, 391040, Note_on_c, 4, 82, 70
3, 391200, Note_off_c, 4, 82, 70
3, 391200, Note_on_c, 4, 80, 95
3, 391360, Note_off_c, 4, 80, 95
3, 391360, Note_on_c, 4, 78, 95
3, 391520, Note_off_c, 4, 78, 95
3, 391520, Note_on_c, 4, 75, 95
3, 391680, Note_off_c, 4, 75, 95
3, 391680, Note_on_c, 4, 80, 95
3, 391840, Note_off_c, 4, 80, 95
3, 391840, Note_on_c, 4, 82, 70
3, 392000, Note_off_c, 4, 82, 70
3, 392000, Note_on_c, 4, 80, 70
3, 392160, Note_off_c, 4, 80, 70
3, 392160, Note_on_c, 4, 78, 95
3, 392320, Note_off_c, 4, 78, 95
3, 392320, Note_on_c, 4, 80, 95
3, 392480, Note_off_c, 4, 80, 95
3, 392480, Note_on_c, 4, 83, 95
3, 392640, Note_off_c, 4, 83, 95
3, 392640, Note_on_c, 4, 82, 95
3, 392800, Note_off_c, 4, 82, 95
3, 392800, Note_on_c, 4, 83, 70
3, 392960, Note_off_c, 4, 83, 70
3, 392960, Note_on_c, 4, 82, 70
3, 393120, Note_off_c, 4, 82, 70
3, 393120, Note_on_c, 4, 80, 95
3, 393280, Note_off_c, 4, 80, 95
3, 393280, Note_on_c, 4, 78, 95
3, 393440, Note_off_c, 4, 78, 95
3, 393440, Note_on_c, 4, 75, 95
3, 393600, Note_off_c, 4, 75, 95
3, 393600, Note_on_c, 4, 80, 95
3, 393760, Note_off_c, 4, 80, 95
3, 393760, Note_on_c, 4, 82, 70
3, 393920, Note_off_c, 4, 82, 70
3, 393920, Note_on_c, 4, 80, 70
3, 394080, Note_off_c, 4, 80, 70
3, 394080, Note_on_c, 4, 78, 95
3, 394240, Note_off_c, 4, 78, 95
3, 394240, Note_on_c, 4, 80, 95
3, 394400, Note_off_c, 4, 80, 95
3, 394400, Note_on_c, 4, 83, 95
3, 394560, Note_off_c, 4, 83, 95
3, 394560, Note_on_c, 4, 82, 95
3, 394720, Note_off_c, 4, 82, 95
3, 394720, Note_on_c, 4, 83, 70
3, 394880, Note_off_c, 4, 83, 70
3, 394880, Note_on_c, 4, 82, 70
3, 395040, Note_off_c, 4, 82, 70
3, 395040, Note_on_c, 4, 80, 95
3, 395200, Note_off_c, 4, 80, 95
3, 395200, Note_on_c, 4, 78, 95
3, 395360, Note_off_c, 4, 78, 95
3, 395360, Note_on_c, 4, 75, 95
3, 395520, Note_off_c, 4, 75, 95
3, 395520, Note_on_c, 4, 80, 95
3, 395680, Note_off_c, 4, 80, 95
3, 395680, Note_on_c, 4, 82, 70
3, 395840, Note_off_c, 4, 82, 70
3, 395840, Note_on_c, 4, 80, 70
3, 396000, Note_off_c, 4, 80, 70
3, 396000, Note_on_c, 4, 78, 95
3, 396160, Note_off_c, 4, 78, 95
3, 396160, Note_on_c, 4, 80, 95
3, 396320, Note_off_c, 4, 80, 95
3, 396320, Note_on_c, 4, 83, 95
3, 396480, Note_off_c, 4, 83, 95
3, 396480, Note_on_c, 4, 82, 95
3, 396640, Note_off_c, 4, 82, 95
3, 396640, Note_on_c, 4, 83, 70
3, 396800, Note_off_c, 4, 83, 70
3, 396800, Note_on_c, 4, 82, 70
3, 396960, Note_off_c, 4, 82, 70
3, 396960, Note_on_c, 4, 80, 95
3, 397120, Note_off_c, 4, 80, 95
3, 397120, Note_on_c, 4, 78, 95
3, 397280, Note_off_c, 4, 78, 95
3, 397280, Note_on_c, 4, 75, 95
3, 397440, Note_off_c, 4, 75, 95
3, 397440, Note_on_c, 4, 80, 95
3, 397600, Note_off_c, 4, 80, 95
3, 397600, Note_on_c, 4, 82, 70
3, 397760, Note_off_c, 4, 82, 70
3, 397760, Note_on_c, 4, 80, 70
3, 397920, Note_off_c, 4, 80, 70
3, 397920, Note_on_c, 4, 78, 95
3, 398080, Note_off_c, 4, 78, 95
3, 398080, Note_on_c, 4, 80, 95
3, 398240, Note_off_c, 4, 80, 95
3, 398240, Note_on_c, 4, 83, 95
3, 398400, Note_off_c, 4, 83, 95
3, 398400, Note_on_c, 4, 82, 95
3, 398560, Note_off_c, 4, 82, 95
3, 398560, Note_on_c, 4, 83, 70
3, 398720, Note_off_c, 4, 83, 70
3, 398720, Note_on_c, 4, 82, 70
3, 398880, Note_off_c, 4, 82, 70
3, 398880, Note_on_c, 4, 80, 95
3, 399040, Note_off_c, 4, 80, 95
3, 399040, Note_on_c, 4, 78, 95
3, 399200, Note_off_c, 4, 78, 95
3, 399200, Note_on_c, 4, 75, 95
3, 399360, Note_off_c, 4, 75, 95
3, 399360, Note_on_c, 4, 85, 95
3, 399520, Note_off_c, 4, 85, 95
3, 399520, Note_on_c, 4, 83, 70
3, 399680, Note_off_c, 4, 83, 70
3, 399680, Note_on_c, 4, 80, 70
3, 399840, Note_off_c, 4, 80, 70
3, 399840, Note_on_c, 4, 78, 95
3, 400000, Note_off_c, 4, 78, 95
3, 400000, Note_on_c, 4, 80, 95
3, 400160, Note_off_c, 4, 80, 95
3, 400160, Note_on_c, 4, 83, 95
3, 400320, Note_off_c, 4, 83, 95
3, 400320, Note_on_c, 4, 85, 95
3, 400480, Note_off_c, 4, 85, 95
3, 400480, Note_on_c, 4, 83, 70
3, 400640, Note_off_c, 4, 83, 70
3, 400640, Note_on_c, 4, 80, 70
3, 400800, Note_off_c, 4, 80, 70
3, 400800, Note_on_c, 4, 78, 95
3, 400960, Note_off_c, 4, 78, 95
3, 400960, Note_on_c, 4, 80, 95
3, 401120, Note_off_c, 4, 80, 95
3, 401120, Note_on_c, 4, 83, 95
3, 401280, Note_off_c, 4, 83, 95
3, 401280, Note_on_c, 4, 85, 95
3, 401440, Note_off_c, 4, 85, 95
3, 401440, Note_on_c, 4, 83, 70
3, 401600, Note_off_c, 4, 83, 70
3, 401600, Note_on_c, 4, 80, 70
3, 401760, Note_off_c, 4, 80, 70
3, 401760, Note_on_c, 4, 78, 95
3, 401920, Note_off_c, 4, 78, 95
3, 401920, Note_on_c, 4, 80, 95
3, 402080, Note_off_c, 4, 80, 95
3, 402080, Note_on_c, 4, 83, 95
3, 402240, Note_off_c, 4, 83, 95
3, 402240, Note_on_c, 4, 85, 95
3, 402400, Note_off_c, 4, 85, 95
3, 402400, Note_on_c, 4, 83, 70
3, 402560, Note_off_c, 4, 83, 70
3, 402560, Note_on_c, 4, 80, 70
3, 402720, Note_off_c, 4, 80, 70
3, 402720, Note_on_c, 4, 78, 95
3, 402880, Note_off_c, 4, 78, 95
3, 402880, Note_on_c, 4, 80, 95
3, 403040, Note_off_c, 4, 80, 95
3, 403040, Note_on_c, 4, 83, 95
3, 403200, Note_off_c, 4, 83, 95
3, 403200, Note_on_c, 4, 85, 95
3, 403360, Note_off_c, 4, 85, 95
3, 403360, Note_on_c, 4, 83, 70
3, 403520, Note_off_c, 4, 83, 70
3, 403520, Note_on_c, 4, 80, 70
3, 403680, Note_off_c, 4, 80, 70
3, 403680, Note_on_c, 4, 78, 95
3, 403840, Note_off_c, 4, 78, 95
3, 403840, Note_on_c, 4, 80, 95
3, 404000, Note_off_c, 4, 80, 95
3, 404000, Note_on_c, 4, 83, 95
3, 404160, Note_off_c, 4, 83, 95
3, 404160, Note_on_c, 4, 85, 95
3, 404320, Note_off_c, 4, 85, 95
3, 404320, Note_on_c, 4, 83, 70
3, 404480, Note_off_c, 4, 83, 70
3, 404480, Note_on_c, 4, 80, 70
3, 404640, Note_off_c, 4, 80, 70
3, 404640, Note_on_c, 4, 78, 95
3, 404800, Note_off_c, 4, 78, 95
3, 404800, Note_on_c, 4, 80, 95
3, 404960, Note_off_c, 4, 80, 95
3, 404960, Note_on_c, 4, 83, 95
3, 405120, Note_off_c, 4, 83, 95
3, 405120, Note_on_c, 4, 85, 95
3, 405280, Note_off_c, 4, 85, 95
3, 405280, Note_on_c, 4, 83, 70
3, 405440, Note_off_c, 4, 83, 70
3, 405440, Note_on_c, 4, 80, 70
3, 405600, Note_off_c, 4, 80, 70
3, 405600, Note_on_c, 4, 78, 95
3, 405760, Note_off_c, 4, 78, 95
3, 405760, Note_on_c, 4, 80, 95
3, 405920, Note_off_c, 4, 80, 95
3, 405920, Note_on_c, 4, 83, 95
3, 406080, Note_off_c, 4, 83, 95
3, 406080, Note_on_c, 4, 85, 95
3, 406240, Note_off_c, 4, 85, 95
3, 406240, Note_on_c, 4, 83, 70
3, 406400, Note_off_c, 4, 83, 70
3, 406400, Note_on_c, 4, 80, 70
3, 406560, Note_off_c, 4, 80, 70
3, 406560, Note_on_c, 4, 78, 95
3, 406720, Note_off_c, 4, 78, 95
3, 406720, Note_on_c, 4, 80, 95
3, 406880, Note_off_c, 4, 80, 95
3, 406880, Note_on_c, 4, 83, 95
3, 407040, Note_off_c, 4, 83, 95
3, 407040, Note_on_c, 4, 85, 95
3, 407200, Note_off_c, 4, 85, 95
3, 407200, Note_on_c, 4, 83, 70
3, 407360, Note_off_c, 4, 83, 70
3, 407360, Note_on_c, 4, 80, 70
3, 407520, Note_off_c, 4, 80, 70
3, 407520, Note_on_c, 4, 78, 95
3, 407680, Note_off_c, 4, 78, 95
3, 407680, Note_on_c, 4, 80, 95
3, 407840, Note_off_c, 4, 80, 95
3, 407840, Note_on_c, 4, 83, 95
3, 408000, Note_off_c, 4, 83, 95
3, 408000, Note_on_c, 4, 85, 95
3, 408160, Note_off_c, 4, 85, 95
3, 408160, Note_on_c, 4, 83, 70
3, 408320, Note_off_c, 4, 83, 70
3, 408320, Note_on_c, 4, 80, 70
3, 408480, Note_off_c, 4, 80, 70
3, 408480, Note_on_c, 4, 78, 95
3, 408640, Note_off_c, 4, 78, 95
3, 408640, Note_on_c, 4, 80, 95
3, 408800, Note_off_c, 4, 80, 95
3, 408800, Note_on_c, 4, 83, 95
3, 408960, Note_off_c, 4, 83, 95
3, 408960, Note_on_c, 4, 85, 95
3, 409120, Note_off_c, 4, 85, 95
3, 409120, Note_on_c, 4, 83, 70
3, 409280, Note_off_c, 4, 83, 70
3, 409280, Note_on_c, 4, 80, 70
3, 409440, Note_off_c, 4, 80, 70
3, 409440, Note_on_c, 4, 78, 95
3, 409600, Note_off_c, 4, 78, 95
3, 409600, Note_on_c, 4, 80, 95
3, 409760, Note_off_c, 4, 80, 95
3, 409760, Note_on_c, 4, 83, 95
3, 409920, Note_off_c, 4, 83, 95
3, 409920, Note_on_c, 4, 85, 95
3, 410080, Note_off_c, 4, 85, 95
3, 410080, Note_on_c, 4, 83, 70
3, 410240, Note_off_c, 4, 83, 70
3, 410240, Note_on_c, 4, 80, 70
3, 410400, Note_off_c, 4, 80, 70
3, 410400, Note_on_c, 4, 78, 95
3, 410560, Note_off_c, 4, 78, 95
3, 410560, Note_on_c, 4, 80, 95
3, 410720, Note_off_c, 4, 80, 95
3, 410720, Note_on_c, 4, 83, 95
3, 410880, Note_off_c, 4, 83, 95
3, 410880, Note_on_c, 4, 85, 95
3, 411040, Note_off_c, 4, 85, 95
3, 411040, Note_on_c, 4, 83, 70
3, 411200, Note_off_c, 4, 83, 70
3, 411200, Note_on_c, 4, 80, 70
3, 411360, Note_off_c, 4, 80, 70
3, 411360, Note_on_c, 4, 78, 95
3, 411520, Note_off_c, 4, 78, 95
3, 411520, Note_on_c, 4, 80, 95
3, 411680, Note_off_c, 4, 80, 95
3, 411680, Note_on_c, 4, 83, 95
3, 411840, Note_off_c, 4, 83, 95
3, 411840, Note_on_c, 4, 85, 95
3, 412000, Note_off_c, 4, 85, 95
3, 412000, Note_on_c, 4, 83, 70
3, 412160, Note_off_c, 4, 83, 70
3, 412160, Note_on_c, 4, 80, 70
3, 412320, Note_off_c, 4, 80, 70
3, 412320, Note_on_c, 4, 78, 95
3, 412480, Note_off_c, 4, 78, 95
3, 412480, Note_on_c, 4, 80, 95
3, 412640, Note_off_c, 4, 80, 95
3, 412640, Note_on_c, 4, 83, 95
3, 412800, Note_off_c, 4, 83, 95
3, 412800, Note_on_c, 4, 85, 95
3, 412960, Note_off_c, 4, 85, 95
3, 412960, Note_on_c, 4, 83, 70
3, 413120, Note_off_c, 4, 83, 70
3, 413120, Note_on_c, 4, 80, 70
3, 413280, Note_off_c, 4, 80, 70
3, 413280, Note_on_c, 4, 78, 95
3, 413440, Note_off_c, 4, 78, 95
3, 413440, Note_on_c, 4, 80, 95
3, 413600, Note_off_c, 4, 80, 95
3, 413600, Note_on_c, 4, 83, 95
3, 413760, Note_off_c, 4, 83, 95
3, 413760, Note_on_c, 4, 85, 95
3, 413920, Note_off_c, 4, 85, 95
3, 413920, Note_on_c, 4, 83, 70
3, 414080, Note_off_c, 4, 83, 70
3, 414080, Note_on_c, 4, 80, 70
3, 414240, Note_off_c, 4, 80, 70
3, 414240, Note_on_c, 4, 78, 95
3, 414400, Note_off_c, 4, 78, 95
3, 414400, Note_on_c, 4, 80, 95
3, 414560, Note_off_c, 4, 80, 95
3, 414560, Note_on_c, 4, 83, 95
3, 414720, Note_off_c, 4, 83, 95
3, 414720, Pitch_bend_c, 5, 8192
3, 414720, Note_on_c, 5, 85, 95
3, 414736, Pitch_bend_c, 5, 8320
3, 414752, Pitch_bend_c, 5, 8448
3, 414768, Pitch_bend_c, 5, 8576
3, 414784, Pitch_bend_c, 5, 8704
3, 414800, Pitch_bend_c, 5, 8832
3, 414816, Pitch_bend_c, 5, 8960
3, 414832, Pitch_bend_c, 5, 9088
3, 414848, Pitch_bend_c, 5, 9216
3, 414864, Pitch_bend_c, 5, 9344
3, 414880, Pitch_bend_c, 5, 9472
3, 414896, Pitch_bend_c, 5, 9600
3, 414900, Pitch_bend_c, 5, 9600
3, 415080, Pitch_bend_c, 5, 9600
3, 415096, Pitch_bend_c, 5, 9472
3, 415112, Pitch_bend_c, 5, 9344
3, 415128, Pitch_bend_c, 5, 9216
3, 415144, Pitch_bend_c, 5, 9088
3, 415160, Pitch_bend_c, 5, 8960
3, 415176, Pitch_bend_c, 5, 8832
3, 415192, Pitch_bend_c, 5, 8704
3, 415208, Pitch_bend_c, 5, 8576
3, 415224, Pitch_bend_c, 5, 8448
3, 415240, Pitch_bend_c, 5, 8320
3, 415256, Pitch_bend_c, 5, 8192
3, 415260, Pitch_bend_c, 5, 8192
3, 415440, Pitch_bend_c, 5, 8192
3, 415440, Pitch_bend_c, 5, 8192
3, 415440, Note_off_c, 5, 85, 95
3, 415440, Note_on_c, 4, 83, 95
3, 415680, Note_off_c, 4, 83, 95
3, 415680, Note_on_c, 5, 80, 95
3, 415840, Pitch_bend_c, 5, 8192
3, 415920, Pitch_bend_c, 5, 8320
3, 415920, Pitch_bend_c, 5, 8192
3, 415920, Note_off_c, 5, 80, 95
3, 415920, End_track
4, 0, Start_track
4, 0, Pitch_bend_c, 2, 8192
4, 0, Control_c, 2, 7, 103
4, 0, Control_c, 2, 10, 63
4, 0, Control_c, 2, 93, 0
4, 0, Control_c, 2, 91, 0
4, 0, Control_c, 2, 95, 0
4, 0, Control_c, 2, 92, 0
4, 0, Control_c, 2, 11, 127
4, 0, Program_c, 2, 24
4, 0, Control_c, 3, 7, 103
4, 0, Control_c, 3, 10, 63
4, 0, Control_c, 3, 93, 0
4, 0, Control_c, 3, 91, 0
4, 0, Control_c, 3, 95, 0
4, 0, Control_c, 3, 92, 0
4, 0, Control_c, 3, 11, 127
4, 0, Program_c, 3, 24
4, 0, Note_on_c, 2, 35, 95
4, 480, Note_off_c, 2, 35, 95
4, 480, Note_on_c, 2, 35, 95
4, 960, Note_off_c, 2, 35, 95
4, 3840, Note_on_c, 2, 33, 95
4, 5280, Note_off_c, 2, 33, 95
4, 5280, Note_on_c, 2, 31, 95
4, 7680, Note_off_c, 2, 31, 95
4, 7680, Note_on_c, 2, 35, 95
4, 8160, Note_off_c, 2, 35, 95
4, 8160, Note_on_c, 2, 35, 95
4, 8640, Note_off_c, 2, 35, 95
4, 11520, Note_on_c, 2, 33, 95
4, 12960, Note_off_c, 2, 33, 95
4, 12960, Note_on_c, 2, 31, 95
4, 15360, Note_off_c, 2, 31, 95
4, 15360, Note_on_c, 2, 35, 95
4, 15840, Note_off_c, 2, 35, 95
4, 15840, Note_on_c, 2, 35, 95
4, 16320, Note_off_c, 2, 35, 95
4, 19200, Note_on_c, 2, 33, 95
4, 20640, Note_off_c, 2, 33, 95
4, 20640, Note_on_c, 2, 31, 95
4, 23040, Note_off_c, 2, 31, 95
4, 23040, Note_on_c, 2, 35, 95
4, 23520, Note_off_c, 2, 35, 95
4, 23520, Note_on_c, 2, 35, 95
4, 24000, Note_off_c, 2, 35, 95
4, 26880, Note_on_c, 2, 33, 95
4, 28320, Note_off_c, 2, 33, 95
4, 28320, Note_on_c, 2, 31, 95
4, 30720, Note_off_c, 2, 31, 95
4, 30720, Note_on_c, 2, 30, 95
4, 31200, Note_off_c, 2, 30, 95
4, 31200, Note_on_c, 2, 30, 95
4, 31680, Note_off_c, 2, 30, 95
4, 34560, Note_on_c, 2, 31, 95
4, 35040, Note_off_c, 2, 31, 95
4, 35040, Note_on_c, 2, 31, 95
4, 35520, Note_off_c, 2, 31, 95
4, 38400, Note_on_c, 2, 30, 95
4, 38880, Note_off_c, 2, 30, 95
4, 38880, Note_on_c, 2, 30, 95
4, 39360, Note_off_c, 2, 30, 95
4, 42240, Note_on_c, 2, 31, 95
4, 42720, Note_off_c, 2, 31, 95
4, 42720, Note_on_c, 2, 31, 95
4, 43200, Note_off_c, 2, 31, 95
4, 46080, Note_on_c, 2, 30, 95
4, 46560, Note_off_c, 2, 30, 95
4, 46560, Note_on_c, 2, 30, 95
4, 47040, Note_off_c, 2, 30, 95
4, 49920, Note_on_c, 2, 31, 95
4, 50400, Note_off_c, 2, 31, 95
4, 50400, Note_on_c, 2, 31, 95
4, 50880, Note_off_c, 2, 31, 95
4, 53760, Note_on_c, 2, 30, 95
4, 54240, Note_off_c, 2, 30, 95
4, 54240, Note_on_c, 2, 30, 95
4, 54720, Note_off_c, 2, 30, 95
4, 57600, Note_on_c, 2, 31, 95
4, 58080, Note_off_c, 2, 31, 95
4, 61440, Note_on_c, 2, 30, 95
4, 61920, Note_off_c, 2, 30, 95
4, 62880, Note_on_c, 2, 28, 95
4, 63360, Note_off_c, 2, 28, 95
4, 63360, Note_on_c, 2, 30, 95
4, 63840, Note_off_c, 2, 30, 95
4, 64800, Note_on_c, 2, 31, 95
4, 65280, Note_off_c, 2, 31, 95
4, 65760, Note_on_c, 2, 31, 95
4, 66240, Note_off_c, 2, 31, 95
4, 66240, Note_on_c, 2, 28, 95
4, 66720, Note_off_c, 2, 28, 95
4, 66720, Note_on_c, 2, 30, 95
4, 68160, Note_off_c, 2, 30, 95
4, 68640, Note_on_c, 2, 28, 95
4, 69120, Note_off_c, 2, 28, 95
4, 69120, Note_on_c, 2, 30, 95
4, 69600, Note_off_c, 2, 30, 95
4, 70560, Note_on_c, 2, 28, 95
4, 71040, Note_off_c, 2, 28, 95
4, 71040, Note_on_c, 2, 30, 95
4, 71520, Note_off_c, 2, 30, 95
4, 72480, Note_on_c, 2, 31, 95
4, 72960, Note_off_c, 2, 31, 95
4, 73440, Note_on_c, 2, 31, 95
4, 73920, Note_off_c, 2, 31, 95
4, 73920, Note_on_c, 2, 28, 95
4, 74400, Note_off_c, 2, 28, 95
4, 74400, Note_on_c, 2, 30, 95
4, 75840, Note_off_c, 2, 30, 95
4, 76320, Note_on_c, 2, 28, 95
4, 76800, Note_off_c, 2, 28, 95
4, 76800, Note_on_c, 2, 30, 95
4, 77280, Note_off_c, 2, 30, 95
4, 78240, Note_on_c, 2, 28, 95
4, 78720, Note_off_c, 2, 28, 95
4, 78720, Note_on_c, 2, 30, 95
4, 79200, Note_off_c, 2, 30, 95
4, 80160, Note_on_c, 2, 31, 95
4, 80640, Note_off_c, 2, 31, 95
4, 81120, Note_on_c, 2, 31, 95
4, 81600, Note_off_c, 2, 31, 95
4, 81600, Note_on_c, 2, 28, 95
4, 82080, Note_off_c, 2, 28, 95
4, 82080, Note_on_c, 2, 30, 95
4, 83520, Note_off_c, 2, 30, 95
4, 84000, Note_on_c, 2, 28, 95
4, 84480, Note_off_c, 2, 28, 95
4, 84480, Note_on_c, 2, 30, 95
4, 84960, Note_off_c, 2, 30, 95
4, 85920, Note_on_c, 2, 28, 95
4, 86400, Note_off_c, 2, 28, 95
4, 86400, Note_on_c, 2, 30, 95
4, 86880, Note_off_c, 2, 30, 95
4, 87840, Note_on_c, 2, 31, 95
4, 88320, Note_off_c, 2, 31, 95
4, 88800, Note_on_c, 2, 31, 95
4, 89280, Note_off_c, 2, 31, 95
4, 89280, Note_on_c, 2, 28, 95
4, 89760, Note_off_c, 2, 28, 95
4, 89760, Note_on_c, 2, 30, 95
4, 91200, Note_off_c, 2, 30, 95
4, 91680, Note_on_c, 2, 28, 95
4, 92160, Note_off_c, 2, 28, 95
4, 92160, Note_on_c, 2, 35, 95
4, 92640, Note_off_c, 2, 35, 95
4, 92640, Note_on_c, 2, 35, 95
4, 93120, Note_off_c, 2, 35, 95
4, 96000, Note_on_c, 2, 33, 95
4, 97440, Note_off_c, 2, 33, 95
4, 97440, Note_on_c, 2, 31, 95
4, 99840, Note_off_c, 2, 31, 95
4, 99840, Note_on_c, 2, 35, 95
4, 100320, Note_off_c, 2, 35, 95
4, 100320, Note_on_c, 2, 35, 95
4, 100800, Note_off_c, 2, 35, 95
4, 103680, Note_on_c, 2, 33, 95
4, 105120, Note_off_c, 2, 33, 95
4, 105120, Note_on_c, 2, 31, 95
4, 107520, Note_off_c, 2, 31, 95
4, 107520, Note_on_c, 2, 35, 95
4, 108000, Note_off_c, 2, 35, 95
4, 108000, Note_on_c, 2, 35, 95
4, 108480, Note_off_c, 2, 35, 95
4, 111360, Note_on_c, 2, 33, 95
4, 112800, Note_off_c, 2, 33, 95
4, 112800, Note_on_c, 2, 31, 95
4, 115200, Note_off_c, 2, 31, 95
4, 115200, Note_on_c, 2, 35, 95
4, 115680, Note_off_c, 2, 35, 95
4, 115680, Note_on_c, 2, 35, 95
4, 116160, Note_off_c, 2, 35, 95
4, 119040, Note_on_c, 2, 33, 95
4, 120480, Note_off_c, 2, 33, 95
4, 120480, Note_on_c, 2, 31, 95
4, 122880, Note_off_c, 2, 31, 95
4, 122880, Note_on_c, 2, 30, 95
4, 123360, Note_off_c, 2, 30, 95
4, 123360, Note_on_c, 2, 30, 95
4, 123840, Note_off_c, 2, 30, 95
4, 126720, Note_on_c, 2, 31, 95
4, 127200, Note_off_c, 2, 31, 95
4, 127200, Note_on_c, 2, 31, 95
4, 127680, Note_off_c, 2, 31, 95
4, 130560, Note_on_c, 2, 30, 95
4, 131040, Note_off_c, 2, 30, 95
4, 131040, Note_on_c, 2, 30, 95
4, 131520, Note_off_c, 2, 30, 95
4, 134400, Note_on_c, 2, 31, 95
4, 134880, Note_off_c, 2, 31, 95
4, 134880, Note_on_c, 2, 31, 95
4, 135360, Note_off_c, 2, 31, 95
4, 138240, Note_on_c, 2, 30, 95
4, 138720, Note_off_c, 2, 30, 95
4, 138720, Note_on_c, 2, 30, 95
4, 139200, Note_off_c, 2, 30, 95
4, 142080, Note_on_c, 2, 31, 95
4, 142560, Note_off_c, 2, 31, 95
4, 142560, Note_on_c, 2, 31, 95
4, 143040, Note_off_c, 2, 31, 95
4, 145920, Note_on_c, 2, 30, 95
4, 146400, Note_off_c, 2, 30, 95
4, 146400, Note_on_c, 2, 30, 95
4, 146880, Note_off_c, 2, 30, 95
4, 149760, Note_on_c, 2, 31, 95
4, 150240, Note_off_c, 2, 31, 95
4, 153600, Note_on_c, 2, 30, 95
4, 154080, Note_off_c, 2, 30, 95
4, 155040, Note_on_c, 2, 28, 95
4, 155520, Note_off_c, 2, 28, 95
4, 155520, Note_on_c, 2, 30, 95
4, 156000, Note_off_c, 2, 30, 95
4, 156960, Note_on_c, 2, 31, 95
4, 157440, Note_off_c, 2, 31, 95
4, 157920, Note_on_c, 2, 31, 95
4, 158400, Note_off_c, 2, 31, 95
4, 158400, Note_on_c, 2, 28, 95
4, 158880, Note_off_c, 2, 28, 95
4, 158880, Note_on_c, 2, 30, 95
4, 160320, Note_off_c, 2, 30, 95
4, 160800, Note_on_c, 2, 28, 95
4, 161280, Note_off_c, 2, 28, 95
4, 161280, Note_on_c, 2, 30, 95
4, 161760, Note_off_c, 2, 30, 95
4, 162720, Note_on_c, 2, 28, 95
4, 163200, Note_off_c, 2, 28, 95
4, 163200, Note_on_c, 2, 30, 95
4, 163680, Note_off_c, 2, 30, 95
4, 164640, Note_on_c, 2, 31, 95
4, 165120, Note_off_c, 2, 31, 95
4, 165600, Note_on_c, 2, 31, 95
4, 166080, Note_off_c, 2, 31, 95
4, 166080, Note_on_c, 2, 28, 95
4, 166560, Note_off_c, 2, 28, 95
4, 166560, Note_on_c, 2, 30, 95
4, 168000, Note_off_c, 2, 30, 95
4, 168480, Note_on_c, 2, 28, 95
4, 168960, Note_off_c, 2, 28, 95
4, 168960, Note_on_c, 2, 30, 95
4, 169440, Note_off_c, 2, 30, 95
4, 170400, Note_on_c, 2, 28, 95
4, 170880, Note_off_c, 2, 28, 95
4, 170880, Note_on_c, 2, 30, 95
4, 171360, Note_off_c, 2, 30, 95
4, 172320, Note_on_c, 2, 31, 95
4, 172800, Note_off_c, 2, 31, 95
4, 173280, Note_on_c, 2, 31, 95
4, 173760, Note_off_c, 2, 31, 95
4, 173760, Note_on_c, 2, 28, 95
4, 174240, Note_off_c, 2, 28, 95
4, 174240, Note_on_c, 2, 30, 95
4, 175680, Note_off_c, 2, 30, 95
4, 176160, Note_on_c, 2, 28, 95
4, 176640, Note_off_c, 2, 28, 95
4, 176640, Note_on_c, 2, 30, 95
4, 177120, Note_off_c, 2, 30, 95
4, 178080, Note_on_c, 2, 28, 95
4, 178560, Note_off_c, 2, 28, 95
4, 178560, Note_on_c, 2, 30, 95
4, 179040, Note_off_c, 2, 30, 95
4, 180000, Note_on_c, 2, 31, 95
4, 180480, Note_off_c, 2, 31, 95
4, 180960, Note_on_c, 2, 31, 95
4, 181440, Note_off_c, 2, 31, 95
4, 181440, Note_on_c, 2, 28, 95
4, 181920, Note_off_c, 2, 28, 95
4, 181920, Note_on_c, 2, 30, 95
4, 183360, Note_off_c, 2, 30, 95
4, 183840, Note_on_c, 2, 28, 95
4, 184320, Note_off_c, 2, 28, 95
4, 184320, Note_on_c, 2, 35, 95
4, 185760, Note_off_c, 2, 35, 95
4, 185760, Note_on_c, 2, 35, 95
4, 186720, Note_off_c, 2, 35, 95
4, 186720, Note_on_c, 2, 35, 95
4, 187680, Note_off_c, 2, 35, 95
4, 187680, Note_on_c, 2, 35, 95
4, 188160, Note_off_c, 2, 35, 95
4, 188160, Note_on_c, 2, 33, 95
4, 189600, Note_off_c, 2, 33, 95
4, 189600, Note_on_c, 2, 33, 95
4, 190560, Note_off_c, 2, 33, 95
4, 190560, Note_on_c, 2, 33, 95
4, 191520, Note_off_c, 2, 33, 95
4, 191520, Note_on_c, 2, 33, 95
4, 192000, Note_off_c, 2, 33, 95
4, 192000, Note_on_c, 2, 31, 95
4, 193440, Note_off_c, 2, 31, 95
4, 193440, Note_on_c, 2, 31, 95
4, 194400, Note_off_c, 2, 31, 95
4, 194400, Note_on_c, 2, 31, 95
4, 195360, Note_off_c, 2, 31, 95
4, 195360, Note_on_c, 2, 31, 95
4, 195840, Note_off_c, 2, 31, 95
4, 195840, Note_on_c, 2, 31, 95
4, 197280, Note_off_c, 2, 31, 95
4, 197280, Note_on_c, 2, 31, 95
4, 198240, Note_off_c, 2, 31, 95
4, 198240, Note_on_c, 2, 31, 95
4, 199200, Note_off_c, 2, 31, 95
4, 199200, Note_on_c, 2, 33, 95
4, 199680, Note_off_c, 2, 33, 95
4, 199680, Note_on_c, 2, 35, 95
4, 201120, Note_off_c, 2, 35, 95
4, 201120, Note_on_c, 2, 35, 95
4, 202080, Note_off_c, 2, 35, 95
4, 202080, Note_on_c, 2, 35, 95
4, 203040, Note_off_c, 2, 35, 95
4, 203040, Note_on_c, 2, 35, 95
4, 203520, Note_off_c, 2, 35, 95
4, 203520, Note_on_c, 2, 33, 95
4, 204960, Note_off_c, 2, 33, 95
4, 204960, Note_on_c, 2, 33, 95
4, 205920, Note_off_c, 2, 33, 95
4, 205920, Note_on_c, 2, 33, 95
4, 206880, Note_off_c, 2, 33, 95
4, 206880, Note_on_c, 2, 33, 95
4, 207360, Note_off_c, 2, 33, 95
4, 207360, Note_on_c, 2, 31, 95
4, 208800, Note_off_c, 2, 31, 95
4, 208800, Note_on_c, 2, 31, 95
4, 209760, Note_off_c, 2, 31, 95
4, 209760, Note_on_c, 2, 31, 95
4, 210720, Note_off_c, 2, 31, 95
4, 210720, Note_on_c, 2, 31, 95
4, 211200, Note_off_c, 2, 31, 95
4, 211200, Note_on_c, 2, 31, 95
4, 212640, Note_off_c, 2, 31, 95
4, 212640, Note_on_c, 2, 31, 95
4, 213600, Note_off_c, 2, 31, 95
4, 213600, Note_on_c, 2, 31, 95
4, 214560, Note_off_c, 2, 31, 95
4, 214560, Note_on_c, 2, 33, 95
4, 215040, Note_off_c, 2, 33, 95
4, 215040, Note_on_c, 2, 30, 95
4, 215520, Note_off_c, 2, 30, 95
4, 216480, Note_on_c, 2, 28, 95
4, 216960, Note_off_c, 2, 28, 95
4, 216960, Note_on_c, 2, 30, 95
4, 217440, Note_off_c, 2, 30, 95
4, 218400, Note_on_c, 2, 31, 95
4, 218880, Note_off_c, 2, 31, 95
4, 219360, Note_on_c, 2, 31, 95
4, 219840, Note_off_c, 2, 31, 95
4, 219840, Note_on_c, 2, 28, 95
4, 220320, Note_off_c, 2, 28, 95
4, 220320, Note_on_c, 2, 30, 95
4, 221760, Note_off_c, 2, 30, 95
4, 222240, Note_on_c, 2, 28, 95
4, 222720, Note_off_c, 2, 28, 95
4, 222720, Note_on_c, 2, 30, 95
4, 223200, Note_off_c, 2, 30, 95
4, 224160, Note_on_c, 2, 28, 95
4, 224640, Note_off_c, 2, 28, 95
4, 224640, Note_on_c, 2, 30, 95
4, 225120, Note_off_c, 2, 30, 95
4, 226080, Note_on_c, 2, 31, 95
4, 226560, Note_off_c, 2, 31, 95
4, 227040, Note_on_c, 2, 31, 95
4, 227520, Note_off_c, 2, 31, 95
4, 227520, Note_on_c, 2, 28, 95
4, 228000, Note_off_c, 2, 28, 95
4, 228000, Note_on_c, 2, 30, 95
4, 229440, Note_off_c, 2, 30, 95
4, 229920, Note_on_c, 2, 28, 95
4, 230400, Note_off_c, 2, 28, 95
4, 230400, Note_on_c, 2, 30, 95
4, 230880, Note_off_c, 2, 30, 95
4, 231840, Note_on_c, 2, 28, 95
4, 232320, Note_off_c, 2, 28, 95
4, 232320, Note_on_c, 2, 30, 95
4, 232800, Note_off_c, 2, 30, 95
4, 233760, Note_on_c, 2, 31, 95
4, 234240, Note_off_c, 2, 31, 95
4, 234720, Note_on_c, 2, 31, 95
4, 235200, Note_off_c, 2, 31, 95
4, 235200, Note_on_c, 2, 28, 95
4, 235680, Note_off_c, 2, 28, 95
4, 235680, Note_on_c, 2, 30, 95
4, 237120, Note_off_c, 2, 30, 95
4, 237600, Note_on_c, 2, 28, 95
4, 238080, Note_off_c, 2, 28, 95
4, 238080, Note_on_c, 2, 30, 95
4, 238560, Note_off_c, 2, 30, 95
4, 239520, Note_on_c, 2, 28, 95
4, 240000, Note_off_c, 2, 28, 95
4, 240000, Note_on_c, 2, 30, 95
4, 240480, Note_off_c, 2, 30, 95
4, 241440, Note_on_c, 2, 31, 95
4, 241920, Note_off_c, 2, 31, 95
4, 242400, Note_on_c, 2, 31, 95
4, 242880, Note_off_c, 2, 31, 95
4, 242880, Note_on_c, 2, 28, 95
4, 243360, Note_off_c, 2, 28, 95
4, 243360, Note_on_c, 2, 30, 95
4, 244800, Note_off_c, 2, 30, 95
4, 245280, Note_on_c, 2, 28, 95
4, 245760, Note_off_c, 2, 28, 95
4, 245760, Note_on_c, 2, 35, 95
4, 246240, Note_off_c, 2, 35, 95
4, 246240, Note_on_c, 2, 35, 95
4, 246720, Note_off_c, 2, 35, 95
4, 249600, Note_on_c, 2, 33, 95
4, 251040, Note_off_c, 2, 33, 95
4, 251040, Note_on_c, 2, 31, 95
4, 253440, Note_off_c, 2, 31, 95
4, 253440, Note_on_c, 2, 35, 95
4, 253920, Note_off_c, 2, 35, 95
4, 253920, Note_on_c, 2, 35, 95
4, 254400, Note_off_c, 2, 35, 95
4, 257280, Note_on_c, 2, 33, 95
4, 258720, Note_off_c, 2, 33, 95
4, 258720, Note_on_c, 2, 31, 95
4, 261120, Note_off_c, 2, 31, 95
4, 261120, Note_on_c, 2, 35, 95
4, 261600, Note_off_c, 2, 35, 95
4, 261600, Note_on_c, 2, 35, 95
4, 262080, Note_off_c, 2, 35, 95
4, 264960, Note_on_c, 2, 33, 95
4, 266400, Note_off_c, 2, 33, 95
4, 266400, Note_on_c, 2, 31, 95
4, 268800, Note_off_c, 2, 31, 95
4, 268800, Note_on_c, 2, 35, 95
4, 269280, Note_off_c, 2, 35, 95
4, 269280, Note_on_c, 2, 35, 95
4, 269760, Note_off_c, 2, 35, 95
4, 272640, Note_on_c, 2, 33, 95
4, 274080, Note_off_c, 2, 33, 95
4, 274080, Note_on_c, 2, 31, 95
4, 276480, Note_off_c, 2, 31, 95
4, 276480, Note_on_c, 2, 30, 95
4, 276960, Note_off_c, 2, 30, 95
4, 276960, Note_on_c, 2, 30, 95
4, 277440, Note_off_c, 2, 30, 95
4, 280320, Note_on_c, 2, 31, 95
4, 280800, Note_off_c, 2, 31, 95
4, 280800, Note_on_c, 2, 31, 95
4, 281280, Note_off_c, 2, 31, 95
4, 284160, Note_on_c, 2, 30, 95
4, 284640, Note_off_c, 2, 30, 95
4, 284640, Note_on_c, 2, 30, 95
4, 285120, Note_off_c, 2, 30, 95
4, 288000, Note_on_c, 2, 31, 95
4, 288480, Note_off_c, 2, 31, 95
4, 288480, Note_on_c, 2, 31, 95
4, 288960, Note_off_c, 2, 31, 95
4, 291840, Note_on_c, 2, 30, 95
4, 292320, Note_off_c, 2, 30, 95
4, 292320, Note_on_c, 2, 30, 95
4, 292800, Note_off_c, 2, 30, 95
4, 295680, Note_on_c, 2, 31, 95
4, 296160, Note_off_c, 2, 31, 95
4, 296160, Note_on_c, 2, 31, 95
4, 296640, Note_off_c, 2, 31, 95
4, 299520, Note_on_c, 2, 30, 95
4, 300000, Note_off_c, 2, 30, 95
4, 300000, Note_on_c, 2, 30, 95
4, 300480, Note_off_c, 2, 30, 95
4, 303360, Note_on_c, 2, 31, 95
4, 303840, Note_off_c, 2, 31, 95
4, 307200, Note_on_c, 2, 35, 95
4, 308640, Note_off_c, 2, 35, 95
4, 308640, Note_on_c, 2, 35, 95
4, 309600, Note_off_c, 2, 35, 95
4, 309600, Note_on_c, 2, 35, 95
4, 310560, Note_off_c, 2, 35, 95
4, 310560, Note_on_c, 2, 35, 95
4, 311040, Note_off_c, 2, 35, 95
4, 311040, Note_on_c, 2, 33, 95
4, 312480, Note_off_c, 2, 33, 95
4, 312480, Note_on_c, 2, 33, 95
4, 313440, Note_off_c, 2, 33, 95
4, 313440, Note_on_c, 2, 33, 95
4, 314400, Note_off_c, 2, 33, 95
4, 314400, Note_on_c, 2, 33, 95
4, 314880, Note_off_c, 2, 33, 95
4, 314880, Note_on_c, 2, 31, 95
4, 316320, Note_off_c, 2, 31, 95
4, 316320, Note_on_c, 2, 31, 95
4, 317280, Note_off_c, 2, 31, 95
4, 317280, Note_on_c, 2, 31, 95
4, 318240, Note_off_c, 2, 31, 95
4, 318240, Note_on_c, 2, 31, 95
4, 318720, Note_off_c, 2, 31, 95
4, 318720, Note_on_c, 2, 31, 95
4, 320160, Note_off_c, 2, 31, 95
4, 320160, Note_on_c, 2, 31, 95
4, 321120, Note_off_c, 2, 31, 95
4, 321120, Note_on_c, 2, 31, 95
4, 322080, Note_off_c, 2, 31, 95
4, 322080, Note_on_c, 2, 33, 95
4, 322560, Note_off_c, 2, 33, 95
4, 322560, Note_on_c, 2, 35, 95
4, 324000, Note_off_c, 2, 35, 95
4, 324000, Note_on_c, 2, 35, 95
4, 324960, Note_off_c, 2, 35, 95
4, 324960, Note_on_c, 2, 35, 95
4, 325920, Note_off_c, 2, 35, 95
4, 325920, Note_on_c, 2, 35, 95
4, 326400, Note_off_c, 2, 35, 95
4, 326400, Note_on_c, 2, 33, 95
4, 327840, Note_off_c, 2, 33, 95
4, 327840, Note_on_c, 2, 33, 95
4, 328800, Note_off_c, 2, 33, 95
4, 328800, Note_on_c, 2, 33, 95
4, 329760, Note_off_c, 2, 33, 95
4, 329760, Note_on_c, 2, 33, 95
4, 330240, Note_off_c, 2, 33, 95
4, 330240, Note_on_c, 2, 31, 95
4, 331680, Note_off_c, 2, 31, 95
4, 331680, Note_on_c, 2, 31, 95
4, 332640, Note_off_c, 2, 31, 95
4, 332640, Note_on_c, 2, 31, 95
4, 333600, Note_off_c, 2, 31, 95
4, 333600, Note_on_c, 2, 31, 95
4, 334080, Note_off_c, 2, 31, 95
4, 334080, Note_on_c, 2, 31, 95
4, 335520, Note_off_c, 2, 31, 95
4, 335520, Note_on_c, 2, 31, 95
4, 336480, Note_off_c, 2, 31, 95
4, 336480, Note_on_c, 2, 31, 95
4, 337440, Note_off_c, 2, 31, 95
4, 337440, Note_on_c, 2, 33, 95
4, 337920, Note_off_c, 2, 33, 95
4, 337920, Note_on_c, 2, 35, 95
4, 339360, Note_off_c, 2, 35, 95
4, 339360, Note_on_c, 2, 35, 95
4, 340320, Note_off_c, 2, 35, 95
4, 340320, Note_on_c, 2, 35, 95
4, 341280, Note_off_c, 2, 35, 95
4, 341280, Note_on_c, 2, 35, 95
4, 341760, Note_off_c, 2, 35, 95
4, 341760, Note_on_c, 2, 33, 95
4, 343200, Note_off_c, 2, 33, 95
4, 343200, Note_on_c, 2, 33, 95
4, 344160, Note_off_c, 2, 33, 95
4, 344160, Note_on_c, 2, 33, 95
4, 345120, Note_off_c, 2, 33, 95
4, 345120, Note_on_c, 2, 33, 95
4, 345600, Note_off_c, 2, 33, 95
4, 345600, Note_on_c, 2, 31, 95
4, 347040, Note_off_c, 2, 31, 95
4, 347040, Note_on_c, 2, 31, 95
4, 348000, Note_off_c, 2, 31, 95
4, 348000, Note_on_c, 2, 31, 95
4, 348960, Note_off_c, 2, 31, 95
4, 348960, Note_on_c, 2, 31, 95
4, 349440, Note_off_c, 2, 31, 95
4, 349440, Note_on_c, 2, 31, 95
4, 350880, Note_off_c, 2, 31, 95
4, 350880, Note_on_c, 2, 31, 95
4, 351840, Note_off_c, 2, 31, 95
4, 351840, Note_on_c, 2, 31, 95
4, 352800, Note_off_c, 2, 31, 95
4, 352800, Note_on_c, 2, 33, 95
4, 353280, Note_off_c, 2, 33, 95
4, 353280, Note_on_c, 2, 35, 95
4, 354720, Note_off_c, 2, 35, 95
4, 354720, Note_on_c, 2, 35, 95
4, 355680, Note_off_c, 2, 35, 95
4, 355680, Note_on_c, 2, 35, 95
4, 356640, Note_off_c, 2, 35, 95
4, 356640, Note_on_c, 2, 35, 95
4, 357120, Note_off_c, 2, 35, 95
4, 357120, Note_on_c, 2, 33, 95
4, 358560, Note_off_c, 2, 33, 95
4, 358560, Note_on_c, 2, 33, 95
4, 359520, Note_off_c, 2, 33, 95
4, 359520, Note_on_c, 2, 33, 95
4, 360480, Note_off_c, 2, 33, 95
4, 360480, Note_on_c, 2, 33, 95
4, 360960, Note_off_c, 2, 33, 95
4, 360960, Note_on_c, 2, 31, 95
4, 362400, Note_off_c, 2, 31, 95
4, 362400, Note_on_c, 2, 31, 95
4, 363360, Note_off_c, 2, 31, 95
4, 363360, Note_on_c, 2, 31, 95
4, 364320, Note_off_c, 2, 31, 95
4, 364320, Note_on_c, 2, 31, 95
4, 364800, Note_off_c, 2, 31, 95
4, 364800, Note_on_c, 2, 31, 95
4, 366240, Note_off_c, 2, 31, 95
4, 366240, Note_on_c, 2, 31, 95
4, 367200, Note_off_c, 2, 31, 95
4, 367200, Note_on_c, 2, 31, 95
4, 368160, Note_off_c, 2, 31, 95
4, 368160, Note_on_c, 2, 33, 95
4, 368640, Note_off_c, 2, 33, 95
4, 368640, Note_on_c, 2, 32, 95
4, 369600, Note_off_c, 2, 32, 95
4, 369600, Note_on_c, 2, 32, 95
4, 370560, Note_off_c, 2, 32, 95
4, 370560, Note_on_c, 2, 32, 95
4, 371520, Note_off_c, 2, 32, 95
4, 371520, Note_on_c, 2, 32, 95
4, 372480, Note_off_c, 2, 32, 95
4, 372480, Note_on_c, 2, 30, 95
4, 373440, Note_off_c, 2, 30, 95
4, 373440, Note_on_c, 2, 30, 95
4, 374400, Note_off_c, 2, 30, 95
4, 374400, Note_on_c, 2, 30, 95
4, 375360, Note_off_c, 2, 30, 95
4, 375360, Note_on_c, 2, 30, 95
4, 376320, Note_off_c, 2, 30, 95
4, 376320, Note_on_c, 2, 28, 95
4, 377280, Note_off_c, 2, 28, 95
4, 377280, Note_on_c, 2, 28, 95
4, 378240, Note_off_c, 2, 28, 95
4, 378240, Note_on_c, 2, 28, 95
4, 379200, Note_off_c, 2, 28, 95
4, 379200, Note_on_c, 2, 28, 95
4, 380160, Note_off_c, 2, 28, 95
4, 380160, Note_on_c, 2, 30, 95
4, 381120, Note_off_c, 2, 30, 95
4, 381120, Note_on_c, 2, 30, 95
4, 382080, Note_off_c, 2, 30, 95
4, 382080, Note_on_c, 2, 30, 95
4, 383040, Note_off_c, 2, 30, 95
4, 383040, Note_on_c, 2, 30, 95
4, 384000, Note_off_c, 2, 30, 95
4, 384000, Note_on_c, 2, 32, 95
4, 384960, Note_off_c, 2, 32, 95
4, 384960, Note_on_c, 2, 32, 95
4, 385920, Note_off_c, 2, 32, 95
4, 385920, Note_on_c, 2, 32, 95
4, 386880, Note_off_c, 2, 32, 95
4, 386880, Note_on_c, 2, 32, 95
4, 387840, Note_off_c, 2, 32, 95
4, 387840, Note_on_c, 2, 30, 95
4, 388800, Note_off_c, 2, 30, 95
4, 388800, Note_on_c, 2, 30, 95
4, 389760, Note_off_c, 2, 30, 95
4, 389760, Note_on_c, 2, 30, 95
4, 390720, Note_off_c, 2, 30, 95
4, 390720, Note_on_c, 2, 30, 95
4, 391680, Note_off_c, 2, 30, 95
4, 391680, Note_on_c, 2, 28, 95
4, 392640, Note_off_c, 2, 28, 95
4, 392640, Note_on_c, 2, 28, 95
4, 393600, Note_off_c, 2, 28, 95
4, 393600, Note_on_c, 2, 28, 95
4, 394560, Note_off_c, 2, 28, 95
4, 394560, Note_on_c, 2, 28, 95
4, 395520, Note_off_c, 2, 28, 95
4, 395520, Note_on_c, 2, 30, 95
4, 396480, Note_off_c, 2, 30, 95
4, 396480, Note_on_c, 2, 30, 95
4, 397440, Note_off_c, 2, 30, 95
4, 397440, Note_on_c, 2, 30, 95
4, 398400, Note_off_c, 2, 30, 95
4, 398400, Note_on_c, 2, 30, 95
4, 399360, Note_off_c, 2, 30, 95
4, 399360, Note_on_c, 2, 32, 95
4, 400320, Note_off_c, 2, 32, 95
4, 400320, Note_on_c, 2, 32, 95
4, 401280, Note_off_c, 2, 32, 95
4, 401280, Note_on_c, 2, 32, 95
4, 402240, Note_off_c, 2, 32, 95
4, 402240, Note_on_c, 2, 32, 95
4, 403200, Note_off_c, 2, 32, 95
4, 403200, Note_on_c, 2, 30, 95
4, 404160, Note_off_c, 2, 30, 95
4, 404160, Note_on_c, 2, 30, 95
4, 405120, Note_off_c, 2, 30, 95
4, 405120, Note_on_c, 2, 30, 95
4, 406080, Note_off_c, 2, 30, 95
4, 406080, Note_on_c, 2, 30, 95
4, 407040, Note_off_c, 2, 30, 95
4, 407040, Note_on_c, 2, 28, 95
4, 408000, Note_off_c, 2, 28, 95
4, 408000, Note_on_c, 2, 28, 95
4, 408960, Note_off_c, 2, 28, 95
4, 408960, Note_on_c, 2, 28, 95
4, 409920, Note_off_c, 2, 28, 95
4, 409920, Note_on_c, 2, 28, 95
4, 410880, Note_off_c, 2, 28, 95
4, 410880, Note_on_c, 2, 30, 95
4, 411840, Note_off_c, 2, 30, 95
4, 411840, Note_on_c, 2, 30, 95
4, 412800, Note_off_c, 2, 30, 95
4, 412800, Note_on_c, 2, 30, 95
4, 413760, Note_off_c, 2, 30, 95
4, 413760, Note_on_c, 2, 30, 95
4, 414720, Note_off_c, 2, 30, 95
4, 414720, Note_on_c, 3, 32, 95
4, 416640, Note_off_c, 3, 32, 95
4, 416640, End_track
5, 0, Start_track
5, 0, Pitch_bend_c, 9, 8192
5, 0, Control_c, 9, 7, 103
5, 0, Control_c, 9, 10, 63
5, 0, Control_c, 9, 93, 0
5, 0, Control_c, 9, 91, 0
5, 0, Control_c, 9, 95, 0
5, 0, Control_c, 9, 92, 0
5, 0, Control_c, 9, 11, 127
5, 0, Program_c, 9, 0
5, 0, Note_on_c, 9, 49, 95
5, 0, Note_on_c, 9, 35, 95
5, 480, Note_off_c, 9, 49, 95
5, 480, Note_off_c, 9, 35, 95
5, 480, Note_on_c, 9, 42, 95
5, 720, Note_off_c, 9, 42, 95
5, 720, Note_on_c, 9, 35, 95
5, 960, Note_off_c, 9, 35, 95
5, 960, Note_on_c, 9, 42, 95
5, 960, Note_on_c, 9, 38, 95
5, 1440, Note_off_c, 9, 42, 95
5, 1440, Note_off_c, 9, 38, 95
5, 1440, Note_on_c, 9, 42, 95
5, 1680, Note_off_c, 9, 42, 95
5, 1680, Note_on_c, 9, 35, 95
5, 1920, Note_off_c, 9, 35, 95
5, 1920, Note_on_c, 9, 42, 95
5, 1920, Note_on_c, 9, 35, 95
5, 2400, Note_off_c, 9, 42, 95
5, 2400, Note_off_c, 9, 35, 95
5, 2400, Note_on_c, 9, 42, 95
5, 2400, Note_on_c, 9, 35, 95
5, 2880, Note_off_c, 9, 42, 95
5, 2880, Note_off_c, 9, 35, 95
5, 2880, Note_on_c, 9, 42, 95
5, 2880, Note_on_c, 9, 38, 95
5, 3360, Note_off_c, 9, 42, 95
5, 3360, Note_off_c, 9, 38, 95
5, 3360, Note_on_c, 9, 42, 95
5, 3600, Note_off_c, 9, 42, 95
5, 3600, Note_on_c, 9, 35, 95
5, 3840, Note_off_c, 9, 35, 95
5, 3840, Note_on_c, 9, 42, 95
5, 3840, Note_on_c, 9, 35, 95
5, 4320, Note_off_c, 9, 42, 95
5, 4320, Note_off_c, 9, 35, 95
5, 4320, Note_on_c, 9, 42, 95
5, 4800, Note_off_c, 9, 42, 95
5, 4800, Note_on_c, 9, 42, 95
5, 4800, Note_on_c, 9, 38, 95
5, 5040, Note_off_c, 9, 42, 95
5, 5040, Note_off_c, 9, 38, 95
5, 5040, Note_on_c, 9, 35, 95
5, 5280, Note_off_c, 9, 35, 95
5, 5280, Note_on_c, 9, 42, 95
5, 5520, Note_off_c, 9, 42, 95
5, 5520, Note_on_c, 9, 35, 95
5, 5760, Note_off_c, 9, 35, 95
5, 5760, Note_on_c, 9, 42, 95
5, 5760, Note_on_c, 9, 35, 95
5, 6240, Note_off_c, 9, 42, 95
5, 6240, Note_off_c, 9, 35, 95
5, 6240, Note_on_c, 9, 42, 95
5, 6480, Note_off_c, 9, 42, 95
5, 6480, Note_on_c, 9, 35, 95
5, 6720, Note_off_c, 9, 35, 95
5, 6720, Note_on_c, 9, 42, 95
5, 6720, Note_on_c, 9, 38, 95
5, 6960, Note_off_c, 9, 42, 95
5, 6960, Note_off_c, 9, 38, 95
5, 6960, Note_on_c, 9, 35, 95
5, 7200, Note_off_c, 9, 35, 95
5, 7200, Note_on_c, 9, 42, 95
5, 7440, Note_off_c, 9, 42, 95
5, 7440, Note_on_c, 9, 35, 95
5, 7680, Note_off_c, 9, 35, 95
5, 7680, Note_on_c, 9, 49, 95
5, 7680, Note_on_c, 9, 35, 95
5, 8160, Note_off_c, 9, 49, 95
5, 8160, Note_off_c, 9, 35, 95
5, 8160, Note_on_c, 9, 42, 95
5, 8400, Note_off_c, 9, 42, 95
5, 8400, Note_on_c, 9, 35, 95
5, 8640, Note_off_c, 9, 35, 95
5, 8640, Note_on_c, 9, 42, 95
5, 8640, Note_on_c, 9, 38, 95
5, 9120, Note_off_c, 9, 42, 95
5, 9120, Note_off_c, 9, 38, 95
5, 9120, Note_on_c, 9, 42, 95
5, 9360, Note_off_c, 9, 42, 95
5, 9360, Note_on_c, 9, 35, 95
5, 9600, Note_off_c, 9, 35, 95
5, 9600, Note_on_c, 9, 42, 95
5, 9600, Note_on_c, 9, 35, 95
5, 10080, Note_off_c, 9, 42, 95
5, 10080, Note_off_c, 9, 35, 95
5, 10080, Note_on_c, 9, 42, 95
5, 10080, Note_on_c, 9, 35, 95
5, 10560, Note_off_c, 9, 42, 95
5, 10560, Note_off_c, 9, 35, 95
5, 10560, Note_on_c, 9, 42, 95
5, 10560, Note_on_c, 9, 38, 95
5, 11040, Note_off_c, 9, 42, 95
5, 11040, Note_off_c, 9, 38, 95
5, 11040, Note_on_c, 9, 42, 95
5, 11280, Note_off_c, 9, 42, 95
5, 11280, Note_on_c, 9, 35, 95
5, 11520, Note_off_c, 9, 35, 95
5, 11520, Note_on_c, 9, 42, 95
5, 11520, Note_on_c, 9, 35, 95
5, 12000, Note_off_c, 9, 42, 95
5, 12000, Note_off_c, 9, 35, 95
5, 12000, Note_on_c, 9, 42, 95
5, 12480, Note_off_c, 9, 42, 95
5, 12480, Note_on_c, 9, 42, 95
5, 12480, Note_on_c, 9, 38, 95
5, 12720, Note_off_c, 9, 42, 95
5, 12720, Note_off_c, 9, 38, 95
5, 12720, Note_on_c, 9, 35, 95
5, 12960, Note_off_c, 9, 35, 95
5, 12960, Note_on_c, 9, 42, 95
5, 13200, Note_off_c, 9, 42, 95
5, 13200, Note_on_c, 9, 35, 95
5, 13440, Note_off_c, 9, 35, 95
5, 13440, Note_on_c, 9, 42, 95
5, 13440, Note_on_c, 9, 35, 95
5, 13920, Note_off_c, 9, 42, 95
5, 13920, Note_off_c, 9, 35, 95
5, 13920, Note_on_c, 9, 42, 95
5, 14160, Note_off_c, 9, 42, 95
5, 14160, Note_on_c, 9, 35, 95
5, 14400, Note_off_c, 9, 35, 95
5, 14400, Note_on_c, 9, 42, 95
5, 14400, Note_on_c, 9, 38, 95
5, 14640, Note_off_c, 9, 42, 95
5, 14640, Note_off_c, 9, 38, 95
5, 14640, Note_on_c, 9, 35, 95
5, 14880, Note_off_c, 9, 35, 95
5, 14880, Note_on_c, 9, 42, 95
5, 14880, Note_on_c, 9, 38, 95
5, 15120, Note_off_c, 9, 42, 95
5, 15120, Note_off_c, 9, 38, 95
5, 15120, Note_on_c, 9, 38, 95
5, 15360, Note_off_c, 9, 38, 95
5, 15360, Note_on_c, 9, 49, 95
5, 15360, Note_on_c, 9, 35, 95
5, 15840, Note_off_c, 9, 49, 95
5, 15840, Note_off_c, 9, 35, 95
5, 15840, Note_on_c, 9, 42, 95
5, 16080, Note_off_c, 9, 42, 95
5, 16080, Note_on_c, 9, 35, 95
5, 16320, Note_off_c, 9, 35, 95
5, 16320, Note_on_c, 9, 42, 95
5, 16320, Note_on_c, 9, 38, 95
5, 16800, Note_off_c, 9, 42, 95
5, 16800, Note_off_c, 9, 38, 95
5, 16800, Note_on_c, 9, 42, 95
5, 17040, Note_off_c, 9, 42, 95
5, 17040, Note_on_c, 9, 35, 95
5, 17280, Note_off_c, 9, 35, 95
5, 17280, Note_on_c, 9, 42, 95
5, 17280, Note_on_c, 9, 35, 95
5, 17760, Note_off_c, 9, 42, 95
5, 17760, Note_off_c, 9, 35, 95
5, 17760, Note_on_c, 9, 42, 95
5, 17760, Note_on_c, 9, 35, 95
5, 18240, Note_off_c, 9, 42, 95
5, 18240, Note_off_c, 9, 35, 95
5, 18240, Note_on_c, 9, 42, 95
5, 18240, Note_on_c, 9, 38, 95
5, 18720, Note_off_c, 9, 42, 95
5, 18720, Note_off_c, 9, 38, 95
5, 18720, Note_on_c, 9, 42, 95
5, 18960, Note_off_c, 9, 42, 95
5, 18960, Note_on_c, 9, 35, 95
5, 19200, Note_off_c, 9, 35, 95
5, 19200, Note_on_c, 9, 42, 95
5, 19200, Note_on_c, 9, 35, 95
5, 19680, Note_off_c, 9, 42, 95
5, 19680, Note_off_c, 9, 35, 95
5, 19680, Note_on_c, 9, 42, 95
5, 20160, Note_off_c, 9, 42, 95
5, 20160, Note_on_c, 9, 42, 95
5, 20160, Note_on_c, 9, 38, 95
5, 20400, Note_off_c, 9, 42, 95
5, 20400, Note_off_c, 9, 38, 95
5, 20400, Note_on_c, 9, 35, 95
5, 20640, Note_off_c, 9, 35, 95
5, 20640, Note_on_c, 9, 42, 95
5, 20880, Note_off_c, 9, 42, 95
5, 20880, Note_on_c, 9, 35, 95
5, 21120, Note_off_c, 9, 35, 95
5, 21120, Note_on_c, 9, 42, 95
5, 21120, Note_on_c, 9, 35, 95
5, 21600, Note_off_c, 9, 42, 95
5, 21600, Note_off_c, 9, 35, 95
5, 21600, Note_on_c, 9, 42, 95
5, 21840, Note_off_c, 9, 42, 95
5, 21840, Note_on_c, 9, 35, 95
5, 22080, Note_off_c, 9, 35, 95
5, 22080, Note_on_c, 9, 42, 95
5, 22080, Note_on_c, 9, 38, 95
5, 22320, Note_off_c, 9, 42, 95
5, 22320, Note_off_c, 9, 38, 95
5, 22320, Note_on_c, 9, 35, 95
5, 22560, Note_off_c, 9, 35, 95
5, 22560, Note_on_c, 9, 42, 95
5, 22800, Note_off_c, 9, 42, 95
5, 22800, Note_on_c, 9, 35, 95
5, 23040, Note_off_c, 9, 35, 95
5, 23040, Note_on_c, 9, 49, 95
5, 23040, Note_on_c, 9, 35, 95
5, 23520, Note_off_c, 9, 49, 95
5, 23520, Note_off_c, 9, 35, 95
5, 23520, Note_on_c, 9, 42, 95
5, 23760, Note_off_c, 9, 42, 95
5, 23760, Note_on_c, 9, 35, 95
5, 24000, Note_off_c, 9, 35, 95
5, 24000, Note_on_c, 9, 42, 95
5, 24000, Note_on_c, 9, 38, 95
5, 24480, Note_off_c, 9, 42, 95
5, 24480, Note_off_c, 9, 38, 95
5, 24480, Note_on_c, 9, 42, 95
5, 24720, Note_off_c, 9, 42, 95
5, 24720, Note_on_c, 9, 35, 95
5, 24960, Note_off_c, 9, 35, 95
5, 24960, Note_on_c, 9, 42, 95
5, 24960, Note_on_c, 9, 35, 95
5, 25440, Note_off_c, 9, 42, 95
5, 25440, Note_off_c, 9, 35, 95
5, 25440, Note_on_c, 9, 42, 95
5, 25440, Note_on_c, 9, 35, 95
5, 25920, Note_off_c, 9, 42, 95
5, 25920, Note_off_c, 9, 35, 95
5, 25920, Note_on_c, 9, 42, 95
5, 25920, Note_on_c, 9, 38, 95
5, 26400, Note_off_c, 9, 42, 95
5, 26400, Note_off_c, 9, 38, 95
5, 26400, Note_on_c, 9, 42, 95
5, 26640, Note_off_c, 9, 42, 95
5, 26640, Note_on_c, 9, 35, 95
5, 26880, Note_off_c, 9, 35, 95
5, 26880, Note_on_c, 9, 42, 95
5, 26880, Note_on_c, 9, 35, 95
5, 27360, Note_off_c, 9, 42, 95
5, 27360, Note_off_c, 9, 35, 95
5, 27360, Note_on_c, 9, 42, 95
5, 27840, Note_off_c, 9, 42, 95
5, 27840, Note_on_c, 9, 42, 95
5, 27840, Note_on_c, 9, 38, 95
5, 28080, Note_off_c, 9, 42, 95
5, 28080, Note_off_c, 9, 38, 95
5, 28080, Note_on_c, 9, 35, 95
5, 28320, Note_off_c, 9, 35, 95
5, 28320, Note_on_c, 9, 42, 95
5, 28560, Note_off_c, 9, 42, 95
5, 28560, Note_on_c, 9, 35, 95
5, 28800, Note_off_c, 9, 35, 95
5, 28800, Note_on_c, 9, 42, 95
5, 28800, Note_on_c, 9, 35, 95
5, 29280, Note_off_c, 9, 42, 95
5, 29280, Note_off_c, 9, 35, 95
5, 29280, Note_on_c, 9, 42, 95
5, 29520, Note_off_c, 9, 42, 95
5, 29520, Note_on_c, 9, 35, 95
5, 29760, Note_off_c, 9, 35, 95
5, 29760, Note_on_c, 9, 42, 95
5, 29760, Note_on_c, 9, 38, 95
5, 30000, Note_off_c, 9, 42, 95
5, 30000, Note_off_c, 9, 38, 95
5, 30000, Note_on_c, 9, 35, 95
5, 30240, Note_off_c, 9, 35, 95
5, 30240, Note_on_c, 9, 42, 95
5, 30240, Note_on_c, 9, 38, 95
5, 30480, Note_off_c, 9, 42, 95
5, 30480, Note_off_c, 9, 38, 95
5, 30480, Note_on_c, 9, 38, 95
5, 30720, Note_off_c, 9, 38, 95
5, 30720, Note_on_c, 9, 49, 95
5, 30720, Note_on_c, 9, 35, 95
5, 31200, Note_off_c, 9, 49, 95
5, 31200, Note_off_c, 9, 35, 95
5, 31200, Note_on_c, 9, 49, 95
5, 31200, Note_on_c, 9, 35, 95
5, 31680, Note_off_c, 9, 49, 95
5, 31680, Note_off_c, 9, 35, 95
5, 34560, Note_on_c, 9, 49, 95
5, 34560, Note_on_c, 9, 35, 95
5, 35040, Note_off_c, 9, 49, 95
5, 35040, Note_off_c, 9, 35, 95
5, 35040, Note_on_c, 9, 49, 95
5, 35040, Note_on_c, 9, 35, 95
5, 35520, Note_off_c, 9, 49, 95
5, 35520, Note_off_c, 9, 35, 95
5, 38400, Note_on_c, 9, 49, 95
5, 38400, Note_on_c, 9, 35, 95
5, 38880, Note_off_c, 9, 49, 95
5, 38880, Note_off_c, 9, 35, 95
5, 38880, Note_on_c, 9, 49, 95
5, 38880, Note_on_c, 9, 35, 95
5, 39360, Note_off_c, 9, 49, 95
5, 39360, Note_off_c, 9, 35, 95
5, 42240, Note_on_c, 9, 49, 95
5, 42240, Note_on_c, 9, 35, 95
5, 42720, Note_off_c, 9, 49, 95
5, 42720, Note_off_c, 9, 35, 95
5, 42720, Note_on_c, 9, 49, 95
5, 42720, Note_on_c, 9, 35, 95
5, 43200, Note_off_c, 9, 49, 95
5, 43200, Note_off_c, 9, 35, 95
5, 46080, Note_on_c, 9, 49, 95
5, 46080, Note_on_c, 9, 35, 95
5, 46560, Note_off_c, 9, 49, 95
5, 46560, Note_off_c, 9, 35, 95
5, 46560, Note_on_c, 9, 49, 95
5, 46560, Note_on_c, 9, 35, 95
5, 47040, Note_off_c, 9, 49, 95
5, 47040, Note_off_c, 9, 35, 95
5, 49920, Note_on_c, 9, 49, 95
5, 49920, Note_on_c, 9, 35, 95
5, 50400, Note_off_c, 9, 49, 95
5, 50400, Note_off_c, 9, 35, 95
5, 50400, Note_on_c, 9, 49, 95
5, 50400, Note_on_c, 9, 35, 95
5, 50880, Note_off_c, 9, 49, 95
5, 50880, Note_off_c, 9, 35, 95
5, 53760, Note_on_c, 9, 49, 95
5, 53760, Note_on_c, 9, 35, 95
5, 54240, Note_off_c, 9, 49, 95
5, 54240, Note_off_c, 9, 35, 95
5, 54240, Note_on_c, 9, 49, 95
5, 54240, Note_on_c, 9, 35, 95
5, 54720, Note_off_c, 9, 49, 95
5, 54720, Note_off_c, 9, 35, 95
5, 57600, Note_on_c, 9, 49, 95
5, 57600, Note_on_c, 9, 35, 95
5, 58080, Note_off_c, 9, 49, 95
5, 58080, Note_off_c, 9, 35, 95
5, 61440, Note_on_c, 9, 49, 95
5, 61440, Note_on_c, 9, 35, 95
5, 61920, Note_off_c, 9, 49, 95
5, 61920, Note_off_c, 9, 35, 95
5, 61920, Note_on_c, 9, 42, 95
5, 62160, Note_off_c, 9, 42, 95
5, 62160, Note_on_c, 9, 35, 95
5, 62400, Note_off_c, 9, 35, 95
5, 62400, Note_on_c, 9, 42, 95
5, 62400, Note_on_c, 9, 38, 95
5, 62880, Note_off_c, 9, 42, 95
5, 62880, Note_off_c, 9, 38, 95
5, 62880, Note_on_c, 9, 42, 95
5, 63120, Note_off_c, 9, 42, 95
5, 63120, Note_on_c, 9, 35, 95
5, 63360, Note_off_c, 9, 35, 95
5, 63360, Note_on_c, 9, 42, 95
5, 63360, Note_on_c, 9, 35, 95
5, 63840, Note_off_c, 9, 42, 95
5, 63840, Note_off_c, 9, 35, 95
5, 63840, Note_on_c, 9, 42, 95
5, 63840, Note_on_c, 9, 35, 95
5, 64320, Note_off_c, 9, 42, 95
5, 64320, Note_off_c, 9, 35, 95
5, 64320, Note_on_c, 9, 42, 95
5, 64320, Note_on_c, 9, 38, 95
5, 64800, Note_off_c, 9, 42, 95
5, 64800, Note_off_c, 9, 38, 95
5, 64800, Note_on_c, 9, 42, 95
5, 65040, Note_off_c, 9, 42, 95
5, 65040, Note_on_c, 9, 35, 95
5, 65280, Note_off_c, 9, 35, 95
5, 65280, Note_on_c, 9, 42, 95
5, 65280, Note_on_c, 9, 35, 95
5, 65760, Note_off_c, 9, 42, 95
5, 65760, Note_off_c, 9, 35, 95
5, 65760, Note_on_c, 9, 42, 95
5, 66240, Note_off_c, 9, 42, 95
5, 66240, Note_on_c, 9, 42, 95
5, 66240, Note_on_c, 9, 38, 95
5, 66480, Note_off_c, 9, 42, 95
5, 66480, Note_off_c, 9, 38, 95
5, 66480, Note_on_c, 9, 35, 95
5, 66720, Note_off_c, 9, 35, 95
5, 66720, Note_on_c, 9, 42, 95
5, 66960, Note_off_c, 9, 42, 95
5, 66960, Note_on_c, 9, 35, 95
5, 67200, Note_off_c, 9, 35, 95
5, 67200, Note_on_c, 9, 42, 95
5, 67200, Note_on_c, 9, 35, 95
5, 67680, Note_off_c, 9, 42, 95
5, 67680, Note_off_c, 9, 35, 95
5, 67680, Note_on_c, 9, 42, 95
5, 67920, Note_off_c, 9, 42, 95
5, 67920, Note_on_c, 9, 35, 95
5, 68160, Note_off_c, 9, 35, 95
5, 68160, Note_on_c, 9, 42, 95
5, 68160, Note_on_c, 9, 38, 95
5, 68400, Note_off_c, 9, 42, 95
5, 68400, Note_off_c, 9, 38, 95
5, 68400, Note_on_c, 9, 35, 95
5, 68640, Note_off_c, 9, 35, 95
5, 68640, Note_on_c, 9, 42, 95
5, 68880, Note_off_c, 9, 42, 95
5, 68880, Note_on_c, 9, 35, 95
5, 69120, Note_off_c, 9, 35, 95
5, 69120, Note_on_c, 9, 49, 95
5, 69120, Note_on_c, 9, 35, 95
5, 69600, Note_off_c, 9, 49, 95
5, 69600, Note_off_c, 9, 35, 95
5, 69600, Note_on_c, 9, 42, 95
5, 69840, Note_off_c, 9, 42, 95
5, 69840, Note_on_c, 9, 35, 95
5, 70080, Note_off_c, 9, 35, 95
5, 70080, Note_on_c, 9, 42, 95
5, 70080, Note_on_c, 9, 38, 95
5, 70560, Note_off_c, 9, 42, 95
5, 70560, Note_off_c, 9, 38, 95
5, 70560, Note_on_c, 9, 42, 95
5, 70800, Note_off_c, 9, 42, 95
5, 70800, Note_on_c, 9, 35, 95
5, 71040, Note_off_c, 9, 35, 95
5, 71040, Note_on_c, 9, 42, 95
5, 71040, Note_on_c, 9, 35, 95
5, 71520, Note_off_c, 9, 42, 95
5, 71520, Note_off_c, 9, 35, 95
5, 71520, Note_on_c, 9, 42, 95
5, 71520, Note_on_c, 9, 35, 95
5, 72000, Note_off_c, 9, 42, 95
5, 72000, Note_off_c, 9, 35, 95
5, 72000, Note_on_c, 9, 42, 95
5, 72000, Note_on_c, 9, 38, 95
5, 72480, Note_off_c, 9, 42, 95
5, 72480, Note_off_c, 9, 38, 95
5, 72480, Note_on_c, 9, 42, 95
5, 72720, Note_off_c, 9, 42, 95
5, 72720, Note_on_c, 9, 35, 95
5, 72960, Note_off_c, 9, 35, 95
5, 72960, Note_on_c, 9, 42, 95
5, 72960, Note_on_c, 9, 35, 95
5, 73440, Note_off_c, 9, 42, 95
5, 73440, Note_off_c, 9, 35, 95
5, 73440, Note_on_c, 9, 42, 95
5, 73920, Note_off_c, 9, 42, 95
5, 73920, Note_on_c, 9, 42, 95
5, 73920, Note_on_c, 9, 38, 95
5, 74160, Note_off_c, 9, 42, 95
5, 74160, Note_off_c, 9, 38, 95
5, 74160, Note_on_c, 9, 35, 95
5, 74400, Note_off_c, 9, 35, 95
5, 74400, Note_on_c, 9, 42, 95
5, 74640, Note_off_c, 9, 42, 95
5, 74640, Note_on_c, 9, 35, 95
5, 74880, Note_off_c, 9, 35, 95
5, 74880, Note_on_c, 9, 42, 95
5, 74880, Note_on_c, 9, 35, 95
5, 75360, Note_off_c, 9, 42, 95
5, 75360, Note_off_c, 9, 35, 95
5, 75360, Note_on_c, 9, 42, 95
5, 75600, Note_off_c, 9, 42, 95
5, 75600, Note_on_c, 9, 35, 95
5, 75840, Note_off_c, 9, 35, 95
5, 75840, Note_on_c, 9, 42, 95
5, 75840, Note_on_c, 9, 38, 95
5, 76080, Note_off_c, 9, 42, 95
5, 76080, Note_off_c, 9, 38, 95
5, 76080, Note_on_c, 9, 35, 95
5, 76320, Note_off_c, 9, 35, 95
5, 76320, Note_on_c, 9, 42, 95
5, 76320, Note_on_c, 9, 38, 95
5, 76560, Note_off_c, 9, 42, 95
5, 76560, Note_off_c, 9, 38, 95
5, 76560, Note_on_c, 9, 38, 95
5, 76800, Note_off_c, 9, 38, 95
5, 76800, Note_on_c, 9, 49, 95
5, 76800, Note_on_c, 9, 35, 95
5, 77280, Note_off_c, 9, 49, 95
5, 77280, Note_off_c, 9, 35, 95
5, 77280, Note_on_c, 9, 42, 95
5, 77520, Note_off_c, 9, 42, 95
5, 77520, Note_on_c, 9, 35, 95
5, 77760, Note_off_c, 9, 35, 95
5, 77760, Note_on_c, 9, 42, 95
5, 77760, Note_on_c, 9, 38, 95
5, 78240, Note_off_c, 9, 42, 95
5, 78240, Note_off_c, 9, 38, 95
5, 78240, Note_on_c, 9, 42, 95
5, 78480, Note_off_c, 9, 42, 95
5, 78480, Note_on_c, 9, 35, 95
5, 78720, Note_off_c, 9, 35, 95
5, 78720, Note_on_c, 9, 42, 95
5, 78720, Note_on_c, 9, 35, 95
5, 79200, Note_off_c, 9, 42, 95
5, 79200, Note_off_c, 9, 35, 95
5, 79200, Note_on_c, 9, 42, 95
5, 79200, Note_on_c, 9, 35, 95
5, 79680, Note_off_c, 9, 42, 95
5, 79680, Note_off_c, 9, 35, 95
5, 79680, Note_on_c, 9, 42, 95
5, 79680, Note_on_c, 9, 38, 95
5, 80160, Note_off_c, 9, 42, 95
5, 80160, Note_off_c, 9, 38, 95
5, 80160, Note_on_c, 9, 42, 95
5, 80400, Note_off_c, 9, 42, 95
5, 80400, Note_on_c, 9, 35, 95
5, 80640, Note_off_c, 9, 35, 95
5, 80640, Note_on_c, 9, 42, 95
5, 80640, Note_on_c, 9, 35, 95
5, 81120, Note_off_c, 9, 42, 95
5, 81120, Note_off_c, 9, 35, 95
5, 81120, Note_on_c, 9, 42, 95
5, 81600, Note_off_c, 9, 42, 95
5, 81600, Note_on_c, 9, 42, 95
5, 81600, Note_on_c, 9, 38, 95
5, 81840, Note_off_c, 9, 42, 95
5, 81840, Note_off_c, 9, 38, 95
5, 81840, Note_on_c, 9, 35, 95
5, 82080, Note_off_c, 9, 35, 95
5, 82080, Note_on_c, 9, 42, 95
5, 82320, Note_off_c, 9, 42, 95
5, 82320, Note_on_c, 9, 35, 95
5, 82560, Note_off_c, 9, 35, 95
5, 82560, Note_on_c, 9, 42, 95
5, 82560, Note_on_c, 9, 35, 95
5, 83040, Note_off_c, 9, 42, 95
5, 83040, Note_off_c, 9, 35, 95
5, 83040, Note_on_c, 9, 42, 95
5, 83280, Note_off_c, 9, 42, 95
5, 83280, Note_on_c, 9, 35, 95
5, 83520, Note_off_c, 9, 35, 95
5, 83520, Note_on_c, 9, 42, 95
5, 83520, Note_on_c, 9, 38, 95
5, 83760, Note_off_c, 9, 42, 95
5, 83760, Note_off_c, 9, 38, 95
5, 83760, Note_on_c, 9, 35, 95
5, 84000, Note_off_c, 9, 35, 95
5, 84000, Note_on_c, 9, 42, 95
5, 84240, Note_off_c, 9, 42, 95
5, 84240, Note_on_c, 9, 35, 95
5, 84480, Note_off_c, 9, 35, 95
5, 84480, Note_on_c, 9, 49, 95
5, 84480, Note_on_c, 9, 35, 95
5, 84960, Note_off_c, 9, 49, 95
5, 84960, Note_off_c, 9, 35, 95
5, 84960, Note_on_c, 9, 42, 95
5, 85200, Note_off_c, 9, 42, 95
5, 85200, Note_on_c, 9, 35, 95
5, 85440, Note_off_c, 9, 35, 95
5, 85440, Note_on_c, 9, 42, 95
5, 85440, Note_on_c, 9, 38, 95
5, 85920, Note_off_c, 9, 42, 95
5, 85920, Note_off_c, 9, 38, 95
5, 85920, Note_on_c, 9, 42, 95
5, 86160, Note_off_c, 9, 42, 95
5, 86160, Note_on_c, 9, 35, 95
5, 86400, Note_off_c, 9, 35, 95
5, 86400, Note_on_c, 9, 42, 95
5, 86400, Note_on_c, 9, 35, 95
5, 86880, Note_off_c, 9, 42, 95
5, 86880, Note_off_c, 9, 35, 95
5, 86880, Note_on_c, 9, 42, 95
5, 86880, Note_on_c, 9, 35, 95
5, 87360, Note_off_c, 9, 42, 95
5, 87360, Note_off_c, 9, 35, 95
5, 87360, Note_on_c, 9, 42, 95
5, 87360, Note_on_c, 9, 38, 95
5, 87840, Note_off_c, 9, 42, 95
5, 87840, Note_off_c, 9, 38, 95
5, 87840, Note_on_c, 9, 42, 95
5, 88080, Note_off_c, 9, 42, 95
5, 88080, Note_on_c, 9, 35, 95
5, 88320, Note_off_c, 9, 35, 95
5, 88320, Note_on_c, 9, 42, 95
5, 88320, Note_on_c, 9, 35, 95
5, 88800, Note_off_c, 9, 42, 95
5, 88800, Note_off_c, 9, 35, 95
5, 88800, Note_on_c, 9, 42, 95
5, 89280, Note_off_c, 9, 42, 95
5, 89280, Note_on_c, 9, 42, 95
5, 89280, Note_on_c, 9, 38, 95
5, 89520, Note_off_c, 9, 42, 95
5, 89520, Note_off_c, 9, 38, 95
5, 89520, Note_on_c, 9, 35, 95
5, 89760, Note_off_c, 9, 35, 95
5, 89760, Note_on_c, 9, 42, 95
5, 90000, Note_off_c, 9, 42, 95
5, 90000, Note_on_c, 9, 35, 95
5, 90240, Note_off_c, 9, 35, 95
5, 90240, Note_on_c, 9, 42, 95
5, 90240, Note_on_c, 9, 35, 95
5, 90720, Note_off_c, 9, 42, 95
5, 90720, Note_off_c, 9, 35, 95
5, 90720, Note_on_c, 9, 42, 95
5, 90960, Note_off_c, 9, 42, 95
5, 90960, Note_on_c, 9, 35, 95
5, 91200, Note_off_c, 9, 35, 95
5, 91200, Note_on_c, 9, 42, 95
5, 91200, Note_on_c, 9, 38, 95
5, 91440, Note_off_c, 9, 42, 95
5, 91440, Note_off_c, 9, 38, 95
5, 91440, Note_on_c, 9, 35, 95
5, 91680, Note_off_c, 9, 35, 95
5, 91680, Note_on_c, 9, 42, 95
5, 91680, Note_on_c, 9, 38, 95
5, 91920, Note_off_c, 9, 42, 95
5, 91920, Note_off_c, 9, 38, 95
5, 91920, Note_on_c, 9, 38, 95
5, 92160, Note_off_c, 9, 38, 95
5, 92160, Note_on_c, 9, 49, 95
5, 92160, Note_on_c, 9, 35, 95
5, 92640, Note_off_c, 9, 49, 95
5, 92640, Note_off_c, 9, 35, 95
5, 92640, Note_on_c, 9, 42, 95
5, 92880, Note_off_c, 9, 42, 95
5, 92880, Note_on_c, 9, 35, 95
5, 93120, Note_off_c, 9, 35, 95
5, 93120, Note_on_c, 9, 42, 95
5, 93120, Note_on_c, 9, 38, 95
5, 93600, Note_off_c, 9, 42, 95
5, 93600, Note_off_c, 9, 38, 95
5, 93600, Note_on_c, 9, 42, 95
5, 93840, Note_off_c, 9, 42, 95
5, 93840, Note_on_c, 9, 35, 95
5, 94080, Note_off_c, 9, 35, 95
5, 94080, Note_on_c, 9, 42, 95
5, 94080, Note_on_c, 9, 35, 95
5, 94560, Note_off_c, 9, 42, 95
5, 94560, Note_off_c, 9, 35, 95
5, 94560, Note_on_c, 9, 42, 95
5, 94560, Note_on_c, 9, 35, 95
5, 95040, Note_off_c, 9, 42, 95
5, 95040, Note_off_c, 9, 35, 95
5, 95040, Note_on_c, 9, 42, 95
5, 95040, Note_on_c, 9, 38, 95
5, 95520, Note_off_c, 9, 42, 95
5, 95520, Note_off_c, 9, 38, 95
5, 95520, Note_on_c, 9, 42, 95
5, 95760, Note_off_c, 9, 42, 95
5, 95760, Note_on_c, 9, 35, 95
5, 96000, Note_off_c, 9, 35, 95
5, 96000, Note_on_c, 9, 42, 95
5, 96000, Note_on_c, 9, 35, 95
5, 96480, Note_off_c, 9, 42, 95
5, 96480, Note_off_c, 9, 35, 95
5, 96480, Note_on_c, 9, 42, 95
5, 96960, Note_off_c, 9, 42, 95
5, 96960, Note_on_c, 9, 42, 95
5, 96960, Note_on_c, 9, 38, 95
5, 97200, Note_off_c, 9, 42, 95
5, 97200, Note_off_c, 9, 38, 95
5, 97200, Note_on_c, 9, 35, 95
5, 97440, Note_off_c, 9, 35, 95
5, 97440, Note_on_c, 9, 42, 95
5, 97680, Note_off_c, 9, 42, 95
5, 97680, Note_on_c, 9, 35, 95
5, 97920, Note_off_c, 9, 35, 95
5, 97920, Note_on_c, 9, 42, 95
5, 97920, Note_on_c, 9, 35, 95
5, 98400, Note_off_c, 9, 42, 95
5, 98400, Note_off_c, 9, 35, 95
5, 98400, Note_on_c, 9, 42, 95
5, 98640, Note_off_c, 9, 42, 95
5, 98640, Note_on_c, 9, 35, 95
5, 98880, Note_off_c, 9, 35, 95
5, 98880, Note_on_c, 9, 42, 95
5, 98880, Note_on_c, 9, 38, 95
5, 99120, Note_off_c, 9, 42, 95
5, 99120, Note_off_c, 9, 38, 95
5, 99120, Note_on_c, 9, 35, 95
5, 99360, Note_off_c, 9, 35, 95
5, 99360, Note_on_c, 9, 42, 95
5, 99600, Note_off_c, 9, 42, 95
5, 99600, Note_on_c, 9, 35, 95
5, 99840, Note_off_c, 9, 35, 95
5, 99840, Note_on_c, 9, 49, 95
5, 99840, Note_on_c, 9, 35, 95
5, 100320, Note_off_c, 9, 49, 95
5, 100320, Note_off_c, 9, 35, 95
5, 100320, Note_on_c, 9, 42, 95
5, 100560, Note_off_c, 9, 42, 95
5, 100560, Note_on_c, 9, 35, 95
5, 100800, Note_off_c, 9, 35, 95
5, 100800, Note_on_c, 9, 42, 95
5, 100800, Note_on_c, 9, 38, 95
5, 101280, Note_off_c, 9, 42, 95
5, 101280, Note_off_c, 9, 38, 95
5, 101280, Note_on_c, 9, 42, 95
5, 101520, Note_off_c, 9, 42, 95
5, 101520, Note_on_c, 9, 35, 95
5, 101760, Note_off_c, 9, 35, 95
5, 101760, Note_on_c, 9, 42, 95
5, 101760, Note_on_c, 9, 35, 95
5, 102240, Note_off_c, 9, 42, 95
5, 102240, Note_off_c, 9, 35, 95
5, 102240, Note_on_c, 9, 42, 95
5, 102240, Note_on_c, 9, 35, 95
5, 102720, Note_off_c, 9, 42, 95
5, 102720, Note_off_c, 9, 35, 95
5, 102720, Note_on_c, 9, 42, 95
5, 102720, Note_on_c, 9, 38, 95
5, 103200, Note_off_c, 9, 42, 95
5, 103200, Note_off_c, 9, 38, 95
5, 103200, Note_on_c, 9, 42, 95
5, 103440, Note_off_c, 9, 42, 95
5, 103440, Note_on_c, 9, 35, 95
5, 103680, Note_off_c, 9, 35, 95
5, 103680, Note_on_c, 9, 42, 95
5, 103680, Note_on_c, 9, 35, 95
5, 104160, Note_off_c, 9, 42, 95
5, 104160, Note_off_c, 9, 35, 95
5, 104160, Note_on_c, 9, 42, 95
5, 104640, Note_off_c, 9, 42, 95
5, 104640, Note_on_c, 9, 42, 95
5, 104640, Note_on_c, 9, 38, 95
5, 104880, Note_off_c, 9, 42, 95
5, 104880, Note_off_c, 9, 38, 95
5, 104880, Note_on_c, 9, 35, 95
5, 105120, Note_off_c, 9, 35, 95
5, 105120, Note_on_c, 9, 42, 95
5, 105360, Note_off_c, 9, 42, 95
5, 105360, Note_on_c, 9, 35, 95
5, 105600, Note_off_c, 9, 35, 95
5, 105600, Note_on_c, 9, 42, 95
5, 105600, Note_on_c, 9, 35, 95
5, 106080, Note_off_c, 9, 42, 95
5, 106080, Note_off_c, 9, 35, 95
5, 106080, Note_on_c, 9, 42, 95
5, 106320, Note_off_c, 9, 42, 95
5, 106320, Note_on_c, 9, 35, 95
5, 106560, Note_off_c, 9, 35, 95
5, 106560, Note_on_c, 9, 42, 95
5, 106560, Note_on_c, 9, 38, 95
5, 106800, Note_off_c, 9, 42, 95
5, 106800, Note_off_c, 9, 38, 95
5, 106800, Note_on_c, 9, 35, 95
5, 107040, Note_off_c, 9, 35, 95
5, 107040, Note_on_c, 9, 42, 95
5, 107040, Note_on_c, 9, 38, 95
5, 107280, Note_off_c, 9, 42, 95
5, 107280, Note_off_c, 9, 38, 95
5, 107280, Note_on_c, 9, 38, 95
5, 107520, Note_off_c, 9, 38, 95
5, 107520, Note_on_c, 9, 49, 95
5, 107520, Note_on_c, 9, 35, 95
5, 108000, Note_off_c, 9, 49, 95
5, 108000, Note_off_c, 9, 35, 95
5, 108000, Note_on_c, 9, 42, 95
5, 108240, Note_off_c, 9, 42, 95
5, 108240, Note_on_c, 9, 35, 95
5, 108480, Note_off_c, 9, 35, 95
5, 108480, Note_on_c, 9, 42, 95
5, 108480, Note_on_c, 9, 38, 95
5, 108960, Note_off_c, 9, 42, 95
5, 108960, Note_off_c, 9, 38, 95
5, 108960, Note_on_c, 9, 42, 95
5, 109200, Note_off_c, 9, 42, 95
5, 109200, Note_on_c, 9, 35, 95
5, 109440, Note_off_c, 9, 35, 95
5, 109440, Note_on_c, 9, 42, 95
5, 109440, Note_on_c, 9, 35, 95
5, 109920, Note_off_c, 9, 42, 95
5, 109920, Note_off_c, 9, 35, 95
5, 109920, Note_on_c, 9, 42, 95
5, 109920, Note_on_c, 9, 35, 95
5, 110400, Note_off_c, 9, 42, 95
5, 110400, Note_off_c, 9, 35, 95
5, 110400, Note_on_c, 9, 42, 95
5, 110400, Note_on_c, 9, 38, 95
5, 110880, Note_off_c, 9, 42, 95
5, 110880, Note_off_c, 9, 38, 95
5, 110880, Note_on_c, 9, 42, 95
5, 111120, Note_off_c, 9, 42, 95
5, 111120, Note_on_c, 9, 35, 95
5, 111360, Note_off_c, 9, 35, 95
5, 111360, Note_on_c, 9, 42, 95
5, 111360, Note_on_c, 9, 35, 95
5, 111840, Note_off_c, 9, 42, 95
5, 111840, Note_off_c, 9, 35, 95
5, 111840, Note_on_c, 9, 42, 95
5, 112320, Note_off_c, 9, 42, 95
5, 112320, Note_on_c, 9, 42, 95
5, 112320, Note_on_c, 9, 38, 95
5, 112560, Note_off_c, 9, 42, 95
5, 112560, Note_off_c, 9, 38, 95
5, 112560, Note_on_c, 9, 35, 95
5, 112800, Note_off_c, 9, 35, 95
5, 112800, Note_on_c, 9, 42, 95
5, 113040, Note_off_c, 9, 42, 95
5, 113040, Note_on_c, 9, 35, 95
5, 113280, Note_off_c, 9, 35, 95
5, 113280, Note_on_c, 9, 42, 95
5, 113280, Note_on_c, 9, 35, 95
5, 113760, Note_off_c, 9, 42, 95
5, 113760, Note_off_c, 9, 35, 95
5, 113760, Note_on_c, 9, 42, 95
5, 114000, Note_off_c, 9, 42, 95
5, 114000, Note_on_c, 9, 35, 95
5, 114240, Note_off_c, 9, 35, 95
5, 114240, Note_on_c, 9, 42, 95
5, 114240, Note_on_c, 9, 38, 95
5, 114480, Note_off_c, 9, 42, 95
5, 114480, Note_off_c, 9, 38, 95
5, 114480, Note_on_c, 9, 35, 95
5, 114720, Note_off_c, 9, 35, 95
5, 114720, Note_on_c, 9, 42, 95
5, 114960, Note_off_c, 9, 42, 95
5, 114960, Note_on_c, 9, 35, 95
5, 115200, Note_off_c, 9, 35, 95
5, 115200, Note_on_c, 9, 49, 95
5, 115200, Note_on_c, 9, 35, 95
5, 115680, Note_off_c, 9, 49, 95
5, 115680, Note_off_c, 9, 35, 95
5, 115680, Note_on_c, 9, 42, 95
5, 115920, Note_off_c, 9, 42, 95
5, 115920, Note_on_c, 9, 35, 95
5, 116160, Note_off_c, 9, 35, 95
5, 116160, Note_on_c, 9, 42, 95
5, 116160, Note_on_c, 9, 38, 95
5, 116640, Note_off_c, 9, 42, 95
5, 116640, Note_off_c, 9, 38, 95
5, 116640, Note_on_c, 9, 42, 95
5, 116880, Note_off_c, 9, 42, 95
5, 116880, Note_on_c, 9, 35, 95
5, 117120, Note_off_c, 9, 35, 95
5, 117120, Note_on_c, 9, 42, 95
5, 117120, Note_on_c, 9, 35, 95
5, 117600, Note_off_c, 9, 42, 95
5, 117600, Note_off_c, 9, 35, 95
5, 117600, Note_on_c, 9, 42, 95
5, 117600, Note_on_c, 9, 35, 95
5, 118080, Note_off_c, 9, 42, 95
5, 118080, Note_off_c, 9, 35, 95
5, 118080, Note_on_c, 9, 42, 95
5, 118080, Note_on_c, 9, 38, 95
5, 118560, Note_off_c, 9, 42, 95
5, 118560, Note_off_c, 9, 38, 95
5, 118560, Note_on_c, 9, 42, 95
5, 118800, Note_off_c, 9, 42, 95
5, 118800, Note_on_c, 9, 35, 95
5, 119040, Note_off_c, 9, 35, 95
5, 119040, Note_on_c, 9, 42, 95
5, 119040, Note_on_c, 9, 35, 95
5, 119520, Note_off_c, 9, 42, 95
5, 119520, Note_off_c, 9, 35, 95
5, 119520, Note_on_c, 9, 42, 95
5, 120000, Note_off_c, 9, 42, 95
5, 120000, Note_on_c, 9, 42, 95
5, 120000, Note_on_c, 9, 38, 95
5, 120240, Note_off_c, 9, 42, 95
5, 120240, Note_off_c, 9, 38, 95
5, 120240, Note_on_c, 9, 35, 95
5, 120480, Note_off_c, 9, 35, 95
5, 120480, Note_on_c, 9, 42, 95
5, 120720, Note_off_c, 9, 42, 95
5, 120720, Note_on_c, 9, 35, 95
5, 120960, Note_off_c, 9, 35, 95
5, 120960, Note_on_c, 9, 42, 95
5, 120960, Note_on_c, 9, 35, 95
5, 121440, Note_off_c, 9, 42, 95
5, 121440, Note_off_c, 9, 35, 95
5, 121440, Note_on_c, 9, 42, 95
5, 121680, Note_off_c, 9, 42, 95
5, 121680, Note_on_c, 9, 35, 95
5, 121920, Note_off_c, 9, 35, 95
5, 121920, Note_on_c, 9, 42, 95
5, 121920, Note_on_c, 9, 38, 95
5, 122160, Note_off_c, 9, 42, 95
5, 122160, Note_off_c, 9, 38, 95
5, 122160, Note_on_c, 9, 35, 95
5, 122400, Note_off_c, 9, 35, 95
5, 122400, Note_on_c, 9, 42, 95
5, 122400, Note_on_c, 9, 38, 95
5, 122640, Note_off_c, 9, 42, 95
5, 122640, Note_off_c, 9, 38, 95
5, 122640, Note_on_c, 9, 38, 95
5, 122880, Note_off_c, 9, 38, 95
5, 122880, Note_on_c, 9, 49, 95
5, 122880, Note_on_c, 9, 35, 95
5, 123360, Note_off_c, 9, 49, 95
5, 123360, Note_off_c, 9, 35, 95
5, 123360, Note_on_c, 9, 49, 95
5, 123360, Note_on_c, 9, 35, 95
5, 123840, Note_off_c, 9, 49, 95
5, 123840, Note_off_c, 9, 35, 95
5, 126720, Note_on_c, 9, 49, 95
5, 126720, Note_on_c, 9, 35, 95
5, 127200, Note_off_c, 9, 49, 95
5, 127200, Note_off_c, 9, 35, 95
5, 127200, Note_on_c, 9, 49, 95
5, 127200, Note_on_c, 9, 35, 95
5, 127680, Note_off_c, 9, 49, 95
5, 127680, Note_off_c, 9, 35, 95
5, 130560, Note_on_c, 9, 49, 95
5, 130560, Note_on_c, 9, 35, 95
5, 131040, Note_off_c, 9, 49, 95
5, 131040, Note_off_c, 9, 35, 95
5, 131040, Note_on_c, 9, 49, 95
5, 131040, Note_on_c, 9, 35, 95
5, 131520, Note_off_c, 9, 49, 95
5, 131520, Note_off_c, 9, 35, 95
5, 134400, Note_on_c, 9, 49, 95
5, 134400, Note_on_c, 9, 35, 95
5, 134880, Note_off_c, 9, 49, 95
5, 134880, Note_off_c, 9, 35, 95
5, 134880, Note_on_c, 9, 49, 95
5, 134880, Note_on_c, 9, 35, 95
5, 135360, Note_off_c, 9, 49, 95
5, 135360, Note_off_c, 9, 35, 95
5, 138240, Note_on_c, 9, 49, 95
5, 138240, Note_on_c, 9, 35, 95
5, 138720, Note_off_c, 9, 49, 95
5, 138720, Note_off_c, 9, 35, 95
5, 138720, Note_on_c, 9, 49, 95
5, 138720, Note_on_c, 9, 35, 95
5, 139200, Note_off_c, 9, 49, 95
5, 139200, Note_off_c, 9, 35, 95
5, 142080, Note_on_c, 9, 49, 95
5, 142080, Note_on_c, 9, 35, 95
5, 142560, Note_off_c, 9, 49, 95
5, 142560, Note_off_c, 9, 35, 95
5, 142560, Note_on_c, 9, 49, 95
5, 142560, Note_on_c, 9, 35, 95
5, 143040, Note_off_c, 9, 49, 95
5, 143040, Note_off_c, 9, 35, 95
5, 145920, Note_on_c, 9, 49, 95
5, 145920, Note_on_c, 9, 35, 95
5, 146400, Note_off_c, 9, 49, 95
5, 146400, Note_off_c, 9, 35, 95
5, 146400, Note_on_c, 9, 49, 95
5, 146400, Note_on_c, 9, 35, 95
5, 146880, Note_off_c, 9, 49, 95
5, 146880, Note_off_c, 9, 35, 95
5, 149760, Note_on_c, 9, 49, 95
5, 149760, Note_on_c, 9, 35, 95
5, 150240, Note_off_c, 9, 49, 95
5, 150240, Note_off_c, 9, 35, 95
5, 153600, Note_on_c, 9, 49, 95
5, 153600, Note_on_c, 9, 35, 95
5, 154080, Note_off_c, 9, 49, 95
5, 154080, Note_off_c, 9, 35, 95
5, 154080, Note_on_c, 9, 42, 95
5, 154320, Note_off_c, 9, 42, 95
5, 154320, Note_on_c, 9, 35, 95
5, 154560, Note_off_c, 9, 35, 95
5, 154560, Note_on_c, 9, 42, 95
5, 154560, Note_on_c, 9, 38, 95
5, 155040, Note_off_c, 9, 42, 95
5, 155040, Note_off_c, 9, 38, 95
5, 155040, Note_on_c, 9, 42, 95
5, 155280, Note_off_c, 9, 42, 95
5, 155280, Note_on_c, 9, 35, 95
5, 155520, Note_off_c, 9, 35, 95
5, 155520, Note_on_c, 9, 42, 95
5, 155520, Note_on_c, 9, 35, 95
5, 156000, Note_off_c, 9, 42, 95
5, 156000, Note_off_c, 9, 35, 95
5, 156000, Note_on_c, 9, 42, 95
5, 156000, Note_on_c, 9, 35, 95
5, 156480, Note_off_c, 9, 42, 95
5, 156480, Note_off_c, 9, 35, 95
5, 156480, Note_on_c, 9, 42, 95
5, 156480, Note_on_c, 9, 38, 95
5, 156960, Note_off_c, 9, 42, 95
5, 156960, Note_off_c, 9, 38, 95
5, 156960, Note_on_c, 9, 42, 95
5, 157200, Note_off_c, 9, 42, 95
5, 157200, Note_on_c, 9, 35, 95
5, 157440, Note_off_c, 9, 35, 95
5, 157440, Note_on_c, 9, 42, 95
5, 157440, Note_on_c, 9, 35, 95
5, 157920, Note_off_c, 9, 42, 95
5, 157920, Note_off_c, 9, 35, 95
5, 157920, Note_on_c, 9, 42, 95
5, 158400, Note_off_c, 9, 42, 95
5, 158400, Note_on_c, 9, 42, 95
5, 158400, Note_on_c, 9, 38, 95
5, 158640, Note_off_c, 9, 42, 95
5, 158640, Note_off_c, 9, 38, 95
5, 158640, Note_on_c, 9, 35, 95
5, 158880, Note_off_c, 9, 35, 95
5, 158880, Note_on_c, 9, 42, 95
5, 159120, Note_off_c, 9, 42, 95
5, 159120, Note_on_c, 9, 35, 95
5, 159360, Note_off_c, 9, 35, 95
5, 159360, Note_on_c, 9, 42, 95
5, 159360, Note_on_c, 9, 35, 95
5, 159840, Note_off_c, 9, 42, 95
5, 159840, Note_off_c, 9, 35, 95
5, 159840, Note_on_c, 9, 42, 95
5, 160080, Note_off_c, 9, 42, 95
5, 160080, Note_on_c, 9, 35, 95
5, 160320, Note_off_c, 9, 35, 95
5, 160320, Note_on_c, 9, 42, 95
5, 160320, Note_on_c, 9, 38, 95
5, 160560, Note_off_c, 9, 42, 95
5, 160560, Note_off_c, 9, 38, 95
5, 160560, Note_on_c, 9, 35, 95
5, 160800, Note_off_c, 9, 35, 95
5, 160800, Note_on_c, 9, 42, 95
5, 161040, Note_off_c, 9, 42, 95
5, 161040, Note_on_c, 9, 35, 95
5, 161280, Note_off_c, 9, 35, 95
5, 161280, Note_on_c, 9, 49, 95
5, 161280, Note_on_c, 9, 35, 95
5, 161760, Note_off_c, 9, 49, 95
5, 161760, Note_off_c, 9, 35, 95
5, 161760, Note_on_c, 9, 42, 95
5, 162000, Note_off_c, 9, 42, 95
5, 162000, Note_on_c, 9, 35, 95
5, 162240, Note_off_c, 9, 35, 95
5, 162240, Note_on_c, 9, 42, 95
5, 162240, Note_on_c, 9, 38, 95
5, 162720, Note_off_c, 9, 42, 95
5, 162720, Note_off_c, 9, 38, 95
5, 162720, Note_on_c, 9, 42, 95
5, 162960, Note_off_c, 9, 42, 95
5, 162960, Note_on_c, 9, 35, 95
5, 163200, Note_off_c, 9, 35, 95
5, 163200, Note_on_c, 9, 42, 95
5, 163200, Note_on_c, 9, 35, 95
5, 163680, Note_off_c, 9, 42, 95
5, 163680, Note_off_c, 9, 35, 95
5, 163680, Note_on_c, 9, 42, 95
5, 163680, Note_on_c, 9, 35, 95
5, 164160, Note_off_c, 9, 42, 95
5, 164160, Note_off_c, 9, 35, 95
5, 164160, Note_on_c, 9, 42, 95
5, 164160, Note_on_c, 9, 38, 95
5, 164640, Note_off_c, 9, 42, 95
5, 164640, Note_off_c, 9, 38, 95
5, 164640, Note_on_c, 9, 42, 95
5, 164880, Note_off_c, 9, 42, 95
5, 164880, Note_on_c, 9, 35, 95
5, 165120, Note_off_c, 9, 35, 95
5, 165120, Note_on_c, 9, 42, 95
5, 165120, Note_on_c, 9, 35, 95
5, 165600, Note_off_c, 9, 42, 95
5, 165600, Note_off_c, 9, 35, 95
5, 165600, Note_on_c, 9, 42, 95
5, 166080, Note_off_c, 9, 42, 95
5, 166080, Note_on_c, 9, 42, 95
5, 166080, Note_on_c, 9, 38, 95
5, 166320, Note_off_c, 9, 42, 95
5, 166320, Note_off_c, 9, 38, 95
5, 166320, Note_on_c, 9, 35, 95
5, 166560, Note_off_c, 9, 35, 95
5, 166560, Note_on_c, 9, 42, 95
5, 166800, Note_off_c, 9, 42, 95
5, 166800, Note_on_c, 9, 35, 95
5, 167040, Note_off_c, 9, 35, 95
5, 167040, Note_on_c, 9, 42, 95
5, 167040, Note_on_c, 9, 35, 95
5, 167520, Note_off_c, 9, 42, 95
5, 167520, Note_off_c, 9, 35, 95
5, 167520, Note_on_c, 9, 42, 95
5, 167760, Note_off_c, 9, 42, 95
5, 167760, Note_on_c, 9, 35, 95
5, 168000, Note_off_c, 9, 35, 95
5, 168000, Note_on_c, 9, 42, 95
5, 168000, Note_on_c, 9, 38, 95
5, 168240, Note_off_c, 9, 42, 95
5, 168240, Note_off_c, 9, 38, 95
5, 168240, Note_on_c, 9, 35, 95
5, 168480, Note_off_c, 9, 35, 95
5, 168480, Note_on_c, 9, 42, 95
5, 168480, Note_on_c, 9, 38, 95
5, 168720, Note_off_c, 9, 42, 95
5, 168720, Note_off_c, 9, 38, 95
5, 168720, Note_on_c, 9, 38, 95
5, 168960, Note_off_c, 9, 38, 95
5, 168960, Note_on_c, 9, 49, 95
5, 168960, Note_on_c, 9, 35, 95
5, 169440, Note_off_c, 9, 49, 95
5, 169440, Note_off_c, 9, 35, 95
5, 169440, Note_on_c, 9, 42, 95
5, 169680, Note_off_c, 9, 42, 95
5, 169680, Note_on_c, 9, 35, 95
5, 169920, Note_off_c, 9, 35, 95
5, 169920, Note_on_c, 9, 42, 95
5, 169920, Note_on_c, 9, 38, 95
5, 170400, Note_off_c, 9, 42, 95
5, 170400, Note_off_c, 9, 38, 95
5, 170400, Note_on_c, 9, 42, 95
5, 170640, Note_off_c, 9, 42, 95
5, 170640, Note_on_c, 9, 35, 95
5, 170880, Note_off_c, 9, 35, 95
5, 170880, Note_on_c, 9, 42, 95
5, 170880, Note_on_c, 9, 35, 95
5, 171360, Note_off_c, 9, 42, 95
5, 171360, Note_off_c, 9, 35, 95
5, 171360, Note_on_c, 9, 42, 95
5, 171360, Note_on_c, 9, 35, 95
5, 171840, Note_off_c, 9, 42, 95
5, 171840, Note_off_c, 9, 35, 95
5, 171840, Note_on_c, 9, 42, 95
5, 171840, Note_on_c, 9, 38, 95
5, 172320, Note_off_c, 9, 42, 95
5, 172320, Note_off_c, 9, 38, 95
5, 172320, Note_on_c, 9, 42, 95
5, 172560, Note_off_c, 9, 42, 95
5, 172560, Note_on_c, 9, 35, 95
5, 172800, Note_off_c, 9, 35, 95
5, 172800, Note_on_c, 9, 42, 95
5, 172800, Note_on_c, 9, 35, 95
5, 173280, Note_off_c, 9, 42, 95
5, 173280, Note_off_c, 9, 35, 95
5, 173280, Note_on_c, 9, 42, 95
5, 173760, Note_off_c, 9, 42, 95
5, 173760, Note_on_c, 9, 42, 95
5, 173760, Note_on_c, 9, 38, 95
5, 174000, Note_off_c, 9, 42, 95
5, 174000, Note_off_c, 9, 38, 95
5, 174000, Note_on_c, 9, 35, 95
5, 174240, Note_off_c, 9, 35, 95
5, 174240, Note_on_c, 9, 42, 95
5, 174480, Note_off_c, 9, 42, 95
5, 174480, Note_on_c, 9, 35, 95
5, 174720, Note_off_c, 9, 35, 95
5, 174720, Note_on_c, 9, 42, 95
5, 174720, Note_on_c, 9, 35, 95
5, 175200, Note_off_c, 9, 42, 95
5, 175200, Note_off_c, 9, 35, 95
5, 175200, Note_on_c, 9, 42, 95
5, 175440, Note_off_c, 9, 42, 95
5, 175440, Note_on_c, 9, 35, 95
5, 175680, Note_off_c, 9, 35, 95
5, 175680, Note_on_c, 9, 42, 95
5, 175680, Note_on_c, 9, 38, 95
5, 175920, Note_off_c, 9, 42, 95
5, 175920, Note_off_c, 9, 38, 95
5, 175920, Note_on_c, 9, 35, 95
5, 176160, Note_off_c, 9, 35, 95
5, 176160, Note_on_c, 9, 42, 95
5, 176400, Note_off_c, 9, 42, 95
5, 176400, Note_on_c, 9, 35, 95
5, 176640, Note_off_c, 9, 35, 95
5, 176640, Note_on_c, 9, 49, 95
5, 176640, Note_on_c, 9, 35, 95
5, 177120, Note_off_c, 9, 49, 95
5, 177120, Note_off_c, 9, 35, 95
5, 177120, Note_on_c, 9, 42, 95
5, 177360, Note_off_c, 9, 42, 95
5, 177360, Note_on_c, 9, 35, 95
5, 177600, Note_off_c, 9, 35, 95
5, 177600, Note_on_c, 9, 42, 95
5, 177600, Note_on_c, 9, 38, 95
5, 178080, Note_off_c, 9, 42, 95
5, 178080, Note_off_c, 9, 38, 95
5, 178080, Note_on_c, 9, 42, 95
5, 178320, Note_off_c, 9, 42, 95
5, 178320, Note_on_c, 9, 35, 95
5, 178560, Note_off_c, 9, 35, 95
5, 178560, Note_on_c, 9, 42, 95
5, 178560, Note_on_c, 9, 35, 95
5, 179040, Note_off_c, 9, 42, 95
5, 179040, Note_off_c, 9, 35, 95
5, 179040, Note_on_c, 9, 42, 95
5, 179040, Note_on_c, 9, 35, 95
5, 179520, Note_off_c, 9, 42, 95
5, 179520, Note_off_c, 9, 35, 95
5, 179520, Note_on_c, 9, 42, 95
5, 179520, Note_on_c, 9, 38, 95
5, 180000, Note_off_c, 9, 42, 95
5, 180000, Note_off_c, 9, 38, 95
5, 180000, Note_on_c, 9, 42, 95
5, 180240, Note_off_c, 9, 42, 95
5, 180240, Note_on_c, 9, 35, 95
5, 180480, Note_off_c, 9, 35, 95
5, 180480, Note_on_c, 9, 42, 95
5, 180480, Note_on_c, 9, 35, 95
5, 180960, Note_off_c, 9, 42, 95
5, 180960, Note_off_c, 9, 35, 95
5, 180960, Note_on_c, 9, 42, 95
5, 181440, Note_off_c, 9, 42, 95
5, 181440, Note_on_c, 9, 42, 95
5, 181440, Note_on_c, 9, 38, 95
5, 181680, Note_off_c, 9, 42, 95
5, 181680, Note_off_c, 9, 38, 95
5, 181680, Note_on_c, 9, 35, 95
5, 181920, Note_off_c, 9, 35, 95
5, 181920, Note_on_c, 9, 42, 95
5, 182160, Note_off_c, 9, 42, 95
5, 182160, Note_on_c, 9, 35, 95
5, 182400, Note_off_c, 9, 35, 95
5, 182400, Note_on_c, 9, 42, 95
5, 182400, Note_on_c, 9, 35, 95
5, 182880, Note_off_c, 9, 42, 95
5, 182880, Note_off_c, 9, 35, 95
5, 182880, Note_on_c, 9, 42, 95
5, 183120, Note_off_c, 9, 42, 95
5, 183120, Note_on_c, 9, 35, 95
5, 183360, Note_off_c, 9, 35, 95
5, 183360, Note_on_c, 9, 42, 95
5, 183360, Note_on_c, 9, 38, 95
5, 183600, Note_off_c, 9, 42, 95
5, 183600, Note_off_c, 9, 38, 95
5, 183600, Note_on_c, 9, 35, 95
5, 183840, Note_off_c, 9, 35, 95
5, 183840, Note_on_c, 9, 42, 95
5, 183840, Note_on_c, 9, 38, 95
5, 184080, Note_off_c, 9, 42, 95
5, 184080, Note_off_c, 9, 38, 95
5, 184080, Note_on_c, 9, 38, 95
5, 184320, Note_off_c, 9, 38, 95
5, 184320, Note_on_c, 9, 49, 95
5, 184320, Note_on_c, 9, 35, 95
5, 184800, Note_off_c, 9, 49, 95
5, 184800, Note_off_c, 9, 35, 95
5, 184800, Note_on_c, 9, 42, 95
5, 185040, Note_off_c, 9, 42, 95
5, 185040, Note_on_c, 9, 35, 95
5, 185280, Note_off_c, 9, 35, 95
5, 185280, Note_on_c, 9, 42, 95
5, 185280, Note_on_c, 9, 38, 95
5, 185760, Note_off_c, 9, 42, 95
5, 185760, Note_off_c, 9, 38, 95
5, 185760, Note_on_c, 9, 42, 95
5, 186000, Note_off_c, 9, 42, 95
5, 186000, Note_on_c, 9, 35, 95
5, 186240, Note_off_c, 9, 35, 95
5, 186240, Note_on_c, 9, 42, 95
5, 186240, Note_on_c, 9, 35, 95
5, 186720, Note_off_c, 9, 42, 95
5, 186720, Note_off_c, 9, 35, 95
5, 186720, Note_on_c, 9, 42, 95
5, 186720, Note_on_c, 9, 35, 95
5, 187200, Note_off_c, 9, 42, 95
5, 187200, Note_off_c, 9, 35, 95
5, 187200, Note_on_c, 9, 42, 95
5, 187200, Note_on_c, 9, 38, 95
5, 187680, Note_off_c, 9, 42, 95
5, 187680, Note_off_c, 9, 38, 95
5, 187680, Note_on_c, 9, 42, 95
5, 187920, Note_off_c, 9, 42, 95
5, 187920, Note_on_c, 9, 35, 95
5, 188160, Note_off_c, 9, 35, 95
5, 188160, Note_on_c, 9, 42, 95
5, 188160, Note_on_c, 9, 35, 95
5, 188640, Note_off_c, 9, 42, 95
5, 188640, Note_off_c, 9, 35, 95
5, 188640, Note_on_c, 9, 42, 95
5, 189120, Note_off_c, 9, 42, 95
5, 189120, Note_on_c, 9, 42, 95
5, 189120, Note_on_c, 9, 38, 95
5, 189360, Note_off_c, 9, 42, 95
5, 189360, Note_off_c, 9, 38, 95
5, 189360, Note_on_c, 9, 35, 95
5, 189600, Note_off_c, 9, 35, 95
5, 189600, Note_on_c, 9, 42, 95
5, 189840, Note_off_c, 9, 42, 95
5, 189840, Note_on_c, 9, 35, 95
5, 190080, Note_off_c, 9, 35, 95
5, 190080, Note_on_c, 9, 42, 95
5, 190080, Note_on_c, 9, 35, 95
5, 190560, Note_off_c, 9, 42, 95
5, 190560, Note_off_c, 9, 35, 95
5, 190560, Note_on_c, 9, 42, 95
5, 190800, Note_off_c, 9, 42, 95
5, 190800, Note_on_c, 9, 35, 95
5, 191040, Note_off_c, 9, 35, 95
5, 191040, Note_on_c, 9, 42, 95
5, 191040, Note_on_c, 9, 38, 95
5, 191280, Note_off_c, 9, 42, 95
5, 191280, Note_off_c, 9, 38, 95
5, 191280, Note_on_c, 9, 35, 95
5, 191520, Note_off_c, 9, 35, 95
5, 191520, Note_on_c, 9, 42, 95
5, 191760, Note_off_c, 9, 42, 95
5, 191760, Note_on_c, 9, 35, 95
5, 192000, Note_off_c, 9, 35, 95
5, 192000, Note_on_c, 9, 49, 95
5, 192000, Note_on_c, 9, 35, 95
5, 192480, Note_off_c, 9, 49, 95
5, 192480, Note_off_c, 9, 35, 95
5, 192480, Note_on_c, 9, 42, 95
5, 192720, Note_off_c, 9, 42, 95
5, 192720, Note_on_c, 9, 35, 95
5, 192960, Note_off_c, 9, 35, 95
5, 192960, Note_on_c, 9, 42, 95
5, 192960, Note_on_c, 9, 38, 95
5, 193440, Note_off_c, 9, 42, 95
5, 193440, Note_off_c, 9, 38, 95
5, 193440, Note_on_c, 9, 42, 95
5, 193680, Note_off_c, 9, 42, 95
5, 193680, Note_on_c, 9, 35, 95
5, 193920, Note_off_c, 9, 35, 95
5, 193920, Note_on_c, 9, 42, 95
5, 193920, Note_on_c, 9, 35, 95
5, 194400, Note_off_c, 9, 42, 95
5, 194400, Note_off_c, 9, 35, 95
5, 194400, Note_on_c, 9, 42, 95
5, 194400, Note_on_c, 9, 35, 95
5, 194880, Note_off_c, 9, 42, 95
5, 194880, Note_off_c, 9, 35, 95
5, 194880, Note_on_c, 9, 42, 95
5, 194880, Note_on_c, 9, 38, 95
5, 195360, Note_off_c, 9, 42, 95
5, 195360, Note_off_c, 9, 38, 95
5, 195360, Note_on_c, 9, 42, 95
5, 195600, Note_off_c, 9, 42, 95
5, 195600, Note_on_c, 9, 35, 95
5, 195840, Note_off_c, 9, 35, 95
5, 195840, Note_on_c, 9, 42, 95
5, 195840, Note_on_c, 9, 35, 95
5, 196320, Note_off_c, 9, 42, 95
5, 196320, Note_off_c, 9, 35, 95
5, 196320, Note_on_c, 9, 42, 95
5, 196800, Note_off_c, 9, 42, 95
5, 196800, Note_on_c, 9, 42, 95
5, 196800, Note_on_c, 9, 38, 95
5, 197040, Note_off_c, 9, 42, 95
5, 197040, Note_off_c, 9, 38, 95
5, 197040, Note_on_c, 9, 35, 95
5, 197280, Note_off_c, 9, 35, 95
5, 197280, Note_on_c, 9, 42, 95
5, 197520, Note_off_c, 9, 42, 95
5, 197520, Note_on_c, 9, 35, 95
5, 197760, Note_off_c, 9, 35, 95
5, 197760, Note_on_c, 9, 42, 95
5, 197760, Note_on_c, 9, 35, 95
5, 198240, Note_off_c, 9, 42, 95
5, 198240, Note_off_c, 9, 35, 95
5, 198240, Note_on_c, 9, 42, 95
5, 198480, Note_off_c, 9, 42, 95
5, 198480, Note_on_c, 9, 35, 95
5, 198720, Note_off_c, 9, 35, 95
5, 198720, Note_on_c, 9, 42, 95
5, 198720, Note_on_c, 9, 38, 95
5, 198960, Note_off_c, 9, 42, 95
5, 198960, Note_off_c, 9, 38, 95
5, 198960, Note_on_c, 9, 35, 95
5, 199200, Note_off_c, 9, 35, 95
5, 199200, Note_on_c, 9, 42, 95
5, 199440, Note_off_c, 9, 42, 95
5, 199440, Note_on_c, 9, 35, 95
5, 199680, Note_off_c, 9, 35, 95
5, 199680, Note_on_c, 9, 49, 95
5, 199680, Note_on_c, 9, 35, 95
5, 200160, Note_off_c, 9, 49, 95
5, 200160, Note_off_c, 9, 35, 95
5, 200160, Note_on_c, 9, 42, 95
5, 200400, Note_off_c, 9, 42, 95
5, 200400, Note_on_c, 9, 35, 95
5, 200640, Note_off_c, 9, 35, 95
5, 200640, Note_on_c, 9, 42, 95
5, 200640, Note_on_c, 9, 38, 95
5, 201120, Note_off_c, 9, 42, 95
5, 201120, Note_off_c, 9, 38, 95
5, 201120, Note_on_c, 9, 42, 95
5, 201360, Note_off_c, 9, 42, 95
5, 201360, Note_on_c, 9, 35, 95
5, 201600, Note_off_c, 9, 35, 95
5, 201600, Note_on_c, 9, 42, 95
5, 201600, Note_on_c, 9, 35, 95
5, 202080, Note_off_c, 9, 42, 95
5, 202080, Note_off_c, 9, 35, 95
5, 202080, Note_on_c, 9, 42, 95
5, 202080, Note_on_c, 9, 35, 95
5, 202560, Note_off_c, 9, 42, 95
5, 202560, Note_off_c, 9, 35, 95
5, 202560, Note_on_c, 9, 42, 95
5, 202560, Note_on_c, 9, 38, 95
5, 203040, Note_off_c, 9, 42, 95
5, 203040, Note_off_c, 9, 38, 95
5, 203040, Note_on_c, 9, 42, 95
5, 203280, Note_off_c, 9, 42, 95
5, 203280, Note_on_c, 9, 35, 95
5, 203520, Note_off_c, 9, 35, 95
5, 203520, Note_on_c, 9, 42, 95
5, 203520, Note_on_c, 9, 35, 95
5, 204000, Note_off_c, 9, 42, 95
5, 204000, Note_off_c, 9, 35, 95
5, 204000, Note_on_c, 9, 42, 95
5, 204480, Note_off_c, 9, 42, 95
5, 204480, Note_on_c, 9, 42, 95
5, 204480, Note_on_c, 9, 38, 95
5, 204720, Note_off_c, 9, 42, 95
5, 204720, Note_off_c, 9, 38, 95
5, 204720, Note_on_c, 9, 35, 95
5, 204960, Note_off_c, 9, 35, 95
5, 204960, Note_on_c, 9, 42, 95
5, 205200, Note_off_c, 9, 42, 95
5, 205200, Note_on_c, 9, 35, 95
5, 205440, Note_off_c, 9, 35, 95
5, 205440, Note_on_c, 9, 42, 95
5, 205440, Note_on_c, 9, 35, 95
5, 205920, Note_off_c, 9, 42, 95
5, 205920, Note_off_c, 9, 35, 95
5, 205920, Note_on_c, 9, 42, 95
5, 206160, Note_off_c, 9, 42, 95
5, 206160, Note_on_c, 9, 35, 95
5, 206400, Note_off_c, 9, 35, 95
5, 206400, Note_on_c, 9, 42, 95
5, 206400, Note_on_c, 9, 38, 95
5, 206640, Note_off_c, 9, 42, 95
5, 206640, Note_off_c, 9, 38, 95
5, 206640, Note_on_c, 9, 35, 95
5, 206880, Note_off_c, 9, 35, 95
5, 206880, Note_on_c, 9, 42, 95
5, 207120, Note_off_c, 9, 42, 95
5, 207120, Note_on_c, 9, 35, 95
5, 207360, Note_off_c, 9, 35, 95
5, 207360, Note_on_c, 9, 49, 95
5, 207360, Note_on_c, 9, 35, 95
5, 207840, Note_off_c, 9, 49, 95
5, 207840, Note_off_c, 9, 35, 95
5, 207840, Note_on_c, 9, 42, 95
5, 208080, Note_off_c, 9, 42, 95
5, 208080, Note_on_c, 9, 35, 95
5, 208320, Note_off_c, 9, 35, 95
5, 208320, Note_on_c, 9, 42, 95
5, 208320, Note_on_c, 9, 38, 95
5, 208800, Note_off_c, 9, 42, 95
5, 208800, Note_off_c, 9, 38, 95
5, 208800, Note_on_c, 9, 42, 95
5, 209040, Note_off_c, 9, 42, 95
5, 209040, Note_on_c, 9, 35, 95
5, 209280, Note_off_c, 9, 35, 95
5, 209280, Note_on_c, 9, 42, 95
5, 209280, Note_on_c, 9, 35, 95
5, 209760, Note_off_c, 9, 42, 95
5, 209760, Note_off_c, 9, 35, 95
5, 209760, Note_on_c, 9, 42, 95
5, 209760, Note_on_c, 9, 35, 95
5, 210240, Note_off_c, 9, 42, 95
5, 210240, Note_off_c, 9, 35, 95
5, 210240, Note_on_c, 9, 42, 95
5, 210240, Note_on_c, 9, 38, 95
5, 210720, Note_off_c, 9, 42, 95
5, 210720, Note_off_c, 9, 38, 95
5, 210720, Note_on_c, 9, 42, 95
5, 210960, Note_off_c, 9, 42, 95
5, 210960, Note_on_c, 9, 35, 95
5, 211200, Note_off_c, 9, 35, 95
5, 211200, Note_on_c, 9, 42, 95
5, 211200, Note_on_c, 9, 35, 95
5, 211680, Note_off_c, 9, 42, 95
5, 211680, Note_off_c, 9, 35, 95
5, 211680, Note_on_c, 9, 42, 95
5, 212160, Note_off_c, 9, 42, 95
5, 212160, Note_on_c, 9, 42, 95
5, 212160, Note_on_c, 9, 38, 95
5, 212400, Note_off_c, 9, 42, 95
5, 212400, Note_off_c, 9, 38, 95
5, 212400, Note_on_c, 9, 35, 95
5, 212640, Note_off_c, 9, 35, 95
5, 212640, Note_on_c, 9, 42, 95
5, 212880, Note_off_c, 9, 42, 95
5, 212880, Note_on_c, 9, 35, 95
5, 213120, Note_off_c, 9, 35, 95
5, 213120, Note_on_c, 9, 42, 95
5, 213120, Note_on_c, 9, 35, 95
5, 213600, Note_off_c, 9, 42, 95
5, 213600, Note_off_c, 9, 35, 95
5, 213600, Note_on_c, 9, 42, 95
5, 213840, Note_off_c, 9, 42, 95
5, 213840, Note_on_c, 9, 35, 95
5, 214080, Note_off_c, 9, 35, 95
5, 214080, Note_on_c, 9, 42, 95
5, 214080, Note_on_c, 9, 38, 95
5, 214320, Note_off_c, 9, 42, 95
5, 214320, Note_off_c, 9, 38, 95
5, 214320, Note_on_c, 9, 35, 95
5, 214560, Note_off_c, 9, 35, 95
5, 214560, Note_on_c, 9, 42, 95
5, 214800, Note_off_c, 9, 42, 95
5, 214800, Note_on_c, 9, 35, 95
5, 215040, Note_off_c, 9, 35, 95
5, 215040, Note_on_c, 9, 49, 95
5, 215040, Note_on_c, 9, 35, 95
5, 215520, Note_off_c, 9, 49, 95
5, 215520, Note_off_c, 9, 35, 95
5, 215520, Note_on_c, 9, 42, 95
5, 215760, Note_off_c, 9, 42, 95
5, 215760, Note_on_c, 9, 35, 95
5, 216000, Note_off_c, 9, 35, 95
5, 216000, Note_on_c, 9, 42, 95
5, 216000, Note_on_c, 9, 38, 95
5, 216480, Note_off_c, 9, 42, 95
5, 216480, Note_off_c, 9, 38, 95
5, 216480, Note_on_c, 9, 42, 95
5, 216720, Note_off_c, 9, 42, 95
5, 216720, Note_on_c, 9, 35, 95
5, 216960, Note_off_c, 9, 35, 95
5, 216960, Note_on_c, 9, 42, 95
5, 216960, Note_on_c, 9, 35, 95
5, 217440, Note_off_c, 9, 42, 95
5, 217440, Note_off_c, 9, 35, 95
5, 217440, Note_on_c, 9, 42, 95
5, 217440, Note_on_c, 9, 35, 95
5, 217920, Note_off_c, 9, 42, 95
5, 217920, Note_off_c, 9, 35, 95
5, 217920, Note_on_c, 9, 42, 95
5, 217920, Note_on_c, 9, 38, 95
5, 218400, Note_off_c, 9, 42, 95
5, 218400, Note_off_c, 9, 38, 95
5, 218400, Note_on_c, 9, 42, 95
5, 218640, Note_off_c, 9, 42, 95
5, 218640, Note_on_c, 9, 35, 95
5, 218880, Note_off_c, 9, 35, 95
5, 218880, Note_on_c, 9, 42, 95
5, 218880, Note_on_c, 9, 35, 95
5, 219360, Note_off_c, 9, 42, 95
5, 219360, Note_off_c, 9, 35, 95
5, 219360, Note_on_c, 9, 42, 95
5, 219840, Note_off_c, 9, 42, 95
5, 219840, Note_on_c, 9, 42, 95
5, 219840, Note_on_c, 9, 38, 95
5, 220080, Note_off_c, 9, 42, 95
5, 220080, Note_off_c, 9, 38, 95
5, 220080, Note_on_c, 9, 35, 95
5, 220320, Note_off_c, 9, 35, 95
5, 220320, Note_on_c, 9, 42, 95
5, 220560, Note_off_c, 9, 42, 95
5, 220560, Note_on_c, 9, 35, 95
5, 220800, Note_off_c, 9, 35, 95
5, 220800, Note_on_c, 9, 42, 95
5, 220800, Note_on_c, 9, 35, 95
5, 221280, Note_off_c, 9, 42, 95
5, 221280, Note_off_c, 9, 35, 95
5, 221280, Note_on_c, 9, 42, 95
5, 221520, Note_off_c, 9, 42, 95
5, 221520, Note_on_c, 9, 35, 95
5, 221760, Note_off_c, 9, 35, 95
5, 221760, Note_on_c, 9, 42, 95
5, 221760, Note_on_c, 9, 38, 95
5, 222000, Note_off_c, 9, 42, 95
5, 222000, Note_off_c, 9, 38, 95
5, 222000, Note_on_c, 9, 35, 95
5, 222240, Note_off_c, 9, 35, 95
5, 222240, Note_on_c, 9, 42, 95
5, 222480, Note_off_c, 9, 42, 95
5, 222480, Note_on_c, 9, 35, 95
5, 222720, Note_off_c, 9, 35, 95
5, 222720, Note_on_c, 9, 49, 95
5, 222720, Note_on_c, 9, 35, 95
5, 223200, Note_off_c, 9, 49, 95
5, 223200, Note_off_c, 9, 35, 95
5, 223200, Note_on_c, 9, 42, 95
5, 223440, Note_off_c, 9, 42, 95
5, 223440, Note_on_c, 9, 35, 95
5, 223680, Note_off_c, 9, 35, 95
5, 223680, Note_on_c, 9, 42, 95
5, 223680, Note_on_c, 9, 38, 95
5, 224160, Note_off_c, 9, 42, 95
5, 224160, Note_off_c, 9, 38, 95
5, 224160, Note_on_c, 9, 42, 95
5, 224400, Note_off_c, 9, 42, 95
5, 224400, Note_on_c, 9, 35, 95
5, 224640, Note_off_c, 9, 35, 95
5, 224640, Note_on_c, 9, 42, 95
5, 224640, Note_on_c, 9, 35, 95
5, 225120, Note_off_c, 9, 42, 95
5, 225120, Note_off_c, 9, 35, 95
5, 225120, Note_on_c, 9, 42, 95
5, 225120, Note_on_c, 9, 35, 95
5, 225600, Note_off_c, 9, 42, 95
5, 225600, Note_off_c, 9, 35, 95
5, 225600, Note_on_c, 9, 42, 95
5, 225600, Note_on_c, 9, 38, 95
5, 226080, Note_off_c, 9, 42, 95
5, 226080, Note_off_c, 9, 38, 95
5, 226080, Note_on_c, 9, 42, 95
5, 226320, Note_off_c, 9, 42, 95
5, 226320, Note_on_c, 9, 35, 95
5, 226560, Note_off_c, 9, 35, 95
5, 226560, Note_on_c, 9, 42, 95
5, 226560, Note_on_c, 9, 35, 95
5, 227040, Note_off_c, 9, 42, 95
5, 227040, Note_off_c, 9, 35, 95
5, 227040, Note_on_c, 9, 42, 95
5, 227520, Note_off_c, 9, 42, 95
5, 227520, Note_on_c, 9, 42, 95
5, 227520, Note_on_c, 9, 38, 95
5, 227760, Note_off_c, 9, 42, 95
5, 227760, Note_off_c, 9, 38, 95
5, 227760, Note_on_c, 9, 35, 95
5, 228000, Note_off_c, 9, 35, 95
5, 228000, Note_on_c, 9, 42, 95
5, 228240, Note_off_c, 9, 42, 95
5, 228240, Note_on_c, 9, 35, 95
5, 228480, Note_off_c, 9, 35, 95
5, 228480, Note_on_c, 9, 42, 95
5, 228480, Note_on_c, 9, 35, 95
5, 228960, Note_off_c, 9, 42, 95
5, 228960, Note_off_c, 9, 35, 95
5, 228960, Note_on_c, 9, 42, 95
5, 229200, Note_off_c, 9, 42, 95
5, 229200, Note_on_c, 9, 35, 95
5, 229440, Note_off_c, 9, 35, 95
5, 229440, Note_on_c, 9, 42, 95
5, 229440, Note_on_c, 9, 38, 95
5, 229680, Note_off_c, 9, 42, 95
5, 229680, Note_off_c, 9, 38, 95
5, 229680, Note_on_c, 9, 35, 95
5, 229920, Note_off_c, 9, 35, 95
5, 229920, Note_on_c, 9, 42, 95
5, 229920, Note_on_c, 9, 38, 95
5, 230160, Note_off_c, 9, 42, 95
5, 230160, Note_off_c, 9, 38, 95
5, 230160, Note_on_c, 9, 38, 95
5, 230400, Note_off_c, 9, 38, 95
5, 230400, Note_on_c, 9, 49, 95
5, 230400, Note_on_c, 9, 35, 95
5, 230880, Note_off_c, 9, 49, 95
5, 230880, Note_off_c, 9, 35, 95
5, 230880, Note_on_c, 9, 42, 95
5, 231120, Note_off_c, 9, 42, 95
5, 231120, Note_on_c, 9, 35, 95
5, 231360, Note_off_c, 9, 35, 95
5, 231360, Note_on_c, 9, 42, 95
5, 231360, Note_on_c, 9, 38, 95
5, 231840, Note_off_c, 9, 42, 95
5, 231840, Note_off_c, 9, 38, 95
5, 231840, Note_on_c, 9, 42, 95
5, 232080, Note_off_c, 9, 42, 95
5, 232080, Note_on_c, 9, 35, 95
5, 232320, Note_off_c, 9, 35, 95
5, 232320, Note_on_c, 9, 42, 95
5, 232320, Note_on_c, 9, 35, 95
5, 232800, Note_off_c, 9, 42, 95
5, 232800, Note_off_c, 9, 35, 95
5, 232800, Note_on_c, 9, 42, 95
5, 232800, Note_on_c, 9, 35, 95
5, 233280, Note_off_c, 9, 42, 95
5, 233280, Note_off_c, 9, 35, 95
5, 233280, Note_on_c, 9, 42, 95
5, 233280, Note_on_c, 9, 38, 95
5, 233760, Note_off_c, 9, 42, 95
5, 233760, Note_off_c, 9, 38, 95
5, 233760, Note_on_c, 9, 42, 95
5, 234000, Note_off_c, 9, 42, 95
5, 234000, Note_on_c, 9, 35, 95
5, 234240, Note_off_c, 9, 35, 95
5, 234240, Note_on_c, 9, 42, 95
5, 234240, Note_on_c, 9, 35, 95
5, 234720, Note_off_c, 9, 42, 95
5, 234720, Note_off_c, 9, 35, 95
5, 234720, Note_on_c, 9, 42, 95
5, 235200, Note_off_c, 9, 42, 95
5, 235200, Note_on_c, 9, 42, 95
5, 235200, Note_on_c, 9, 38, 95
5, 235440, Note_off_c, 9, 42, 95
5, 235440, Note_off_c, 9, 38, 95
5, 235440, Note_on_c, 9, 35, 95
5, 235680, Note_off_c, 9, 35, 95
5, 235680, Note_on_c, 9, 42, 95
5, 235920, Note_off_c, 9, 42, 95
5, 235920, Note_on_c, 9, 35, 95
5, 236160, Note_off_c, 9, 35, 95
5, 236160, Note_on_c, 9, 42, 95
5, 236160, Note_on_c, 9, 35, 95
5, 236640, Note_off_c, 9, 42, 95
5, 236640, Note_off_c, 9, 35, 95
5, 236640, Note_on_c, 9, 42, 95
5, 236880, Note_off_c, 9, 42, 95
5, 236880, Note_on_c, 9, 35, 95
5, 237120, Note_off_c, 9, 35, 95
5, 237120, Note_on_c, 9, 42, 95
5, 237120, Note_on_c, 9, 38, 95
5, 237360, Note_off_c, 9, 42, 95
5, 237360, Note_off_c, 9, 38, 95
5, 237360, Note_on_c, 9, 35, 95
5, 237600, Note_off_c, 9, 35, 95
5, 237600, Note_on_c, 9, 42, 95
5, 237840, Note_off_c, 9, 42, 95
5, 237840, Note_on_c, 9, 35, 95
5, 238080, Note_off_c, 9, 35, 95
5, 238080, Note_on_c, 9, 49, 95
5, 238080, Note_on_c, 9, 35, 95
5, 238560, Note_off_c, 9, 49, 95
5, 238560, Note_off_c, 9, 35, 95
5, 238560, Note_on_c, 9, 42, 95
5, 238800, Note_off_c, 9, 42, 95
5, 238800, Note_on_c, 9, 35, 95
5, 239040, Note_off_c, 9, 35, 95
5, 239040, Note_on_c, 9, 42, 95
5, 239040, Note_on_c, 9, 38, 95
5, 239520, Note_off_c, 9, 42, 95
5, 239520, Note_off_c, 9, 38, 95
5, 239520, Note_on_c, 9, 42, 95
5, 239760, Note_off_c, 9, 42, 95
5, 239760, Note_on_c, 9, 35, 95
5, 240000, Note_off_c, 9, 35, 95
5, 240000, Note_on_c, 9, 42, 95
5, 240000, Note_on_c, 9, 35, 95
5, 240480, Note_off_c, 9, 42, 95
5, 240480, Note_off_c, 9, 35, 95
5, 240480, Note_on_c, 9, 42, 95
5, 240480, Note_on_c, 9, 35, 95
5, 240960, Note_off_c, 9, 42, 95
5, 240960, Note_off_c, 9, 35, 95
5, 240960, Note_on_c, 9, 42, 95
5, 240960, Note_on_c, 9, 38, 95
5, 241440, Note_off_c, 9, 42, 95
5, 241440, Note_off_c, 9, 38, 95
5, 241440, Note_on_c, 9, 42, 95
5, 241680, Note_off_c, 9, 42, 95
5, 241680, Note_on_c, 9, 35, 95
5, 241920, Note_off_c, 9, 35, 95
5, 241920, Note_on_c, 9, 42, 95
5, 241920, Note_on_c, 9, 35, 95
5, 242400, Note_off_c, 9, 42, 95
5, 242400, Note_off_c, 9, 35, 95
5, 242400, Note_on_c, 9, 42, 95
5, 242880, Note_off_c, 9, 42, 95
5, 242880, Note_on_c, 9, 42, 95
5, 242880, Note_on_c, 9, 38, 95
5, 243120, Note_off_c, 9, 42, 95
5, 243120, Note_off_c, 9, 38, 95
5, 243120, Note_on_c, 9, 35, 95
5, 243360, Note_off_c, 9, 35, 95
5, 243360, Note_on_c, 9, 42, 95
5, 243600, Note_off_c, 9, 42, 95
5, 243600, Note_on_c, 9, 35, 95
5, 243840, Note_off_c, 9, 35, 95
5, 243840, Note_on_c, 9, 42, 95
5, 243840, Note_on_c, 9, 35, 95
5, 244320, Note_off_c, 9, 42, 95
5, 244320, Note_off_c, 9, 35, 95
5, 244320, Note_on_c, 9, 42, 95
5, 244560, Note_off_c, 9, 42, 95
5, 244560, Note_on_c, 9, 35, 95
5, 244800, Note_off_c, 9, 35, 95
5, 244800, Note_on_c, 9, 42, 95
5, 244800, Note_on_c, 9, 38, 95
5, 245040, Note_off_c, 9, 42, 95
5, 245040, Note_off_c, 9, 38, 95
5, 245040, Note_on_c, 9, 35, 95
5, 245280, Note_off_c, 9, 35, 95
5, 245280, Note_on_c, 9, 42, 95
5, 245280, Note_on_c, 9, 38, 95
5, 245520, Note_off_c, 9, 42, 95
5, 245520, Note_off_c, 9, 38, 95
5, 245520, Note_on_c, 9, 38, 95
5, 245760, Note_off_c, 9, 38, 95
5, 245760, Note_on_c, 9, 49, 95
5, 245760, Note_on_c, 9, 35, 95
5, 246240, Note_off_c, 9, 49, 95
5, 246240, Note_off_c, 9, 35, 95
5, 246240, Note_on_c, 9, 42, 95
5, 246480, Note_off_c, 9, 42, 95
5, 246480, Note_on_c, 9, 35, 95
5, 246720, Note_off_c, 9, 35, 95
5, 246720, Note_on_c, 9, 42, 95
5, 246720, Note_on_c, 9, 38, 95
5, 247200, Note_off_c, 9, 42, 95
5, 247200, Note_off_c, 9, 38, 95
5, 247200, Note_on_c, 9, 42, 95
5, 247440, Note_off_c, 9, 42, 95
5, 247440, Note_on_c, 9, 35, 95
5, 247680, Note_off_c, 9, 35, 95
5, 247680, Note_on_c, 9, 42, 95
5, 247680, Note_on_c, 9, 35, 95
5, 248160, Note_off_c, 9, 42, 95
5, 248160, Note_off_c, 9, 35, 95
5, 248160, Note_on_c, 9, 42, 95
5, 248160, Note_on_c, 9, 35, 95
5, 248640, Note_off_c, 9, 42, 95
5, 248640, Note_off_c, 9, 35, 95
5, 248640, Note_on_c, 9, 42, 95
5, 248640, Note_on_c, 9, 38, 95
5, 249120, Note_off_c, 9, 42, 95
5, 249120, Note_off_c, 9, 38, 95
5, 249120, Note_on_c, 9, 42, 95
5, 249360, Note_off_c, 9, 42, 95
5, 249360, Note_on_c, 9, 35, 95
5, 249600, Note_off_c, 9, 35, 95
5, 249600, Note_on_c, 9, 42, 95
5, 249600, Note_on_c, 9, 35, 95
5, 250080, Note_off_c, 9, 42, 95
5, 250080, Note_off_c, 9, 35, 95
5, 250080, Note_on_c, 9, 42, 95
5, 250560, Note_off_c, 9, 42, 95
5, 250560, Note_on_c, 9, 42, 95
5, 250560, Note_on_c, 9, 38, 95
5, 250800, Note_off_c, 9, 42, 95
5, 250800, Note_off_c, 9, 38, 95
5, 250800, Note_on_c, 9, 35, 95
5, 251040, Note_off_c, 9, 35, 95
5, 251040, Note_on_c, 9, 42, 95
5, 251280, Note_off_c, 9, 42, 95
5, 251280, Note_on_c, 9, 35, 95
5, 251520, Note_off_c, 9, 35, 95
5, 251520, Note_on_c, 9, 42, 95
5, 251520, Note_on_c, 9, 35, 95
5, 252000, Note_off_c, 9, 42, 95
5, 252000, Note_off_c, 9, 35, 95
5, 252000, Note_on_c, 9, 42, 95
5, 252240, Note_off_c, 9, 42, 95
5, 252240, Note_on_c, 9, 35, 95
5, 252480, Note_off_c, 9, 35, 95
5, 252480, Note_on_c, 9, 42, 95
5, 252480, Note_on_c, 9, 38, 95
5, 252720, Note_off_c, 9, 42, 95
5, 252720, Note_off_c, 9, 38, 95
5, 252720, Note_on_c, 9, 35, 95
5, 252960, Note_off_c, 9, 35, 95
5, 252960, Note_on_c, 9, 42, 95
5, 253200, Note_off_c, 9, 42, 95
5, 253200, Note_on_c, 9, 35, 95
5, 253440, Note_off_c, 9, 35, 95
5, 253440, Note_on_c, 9, 49, 95
5, 253440, Note_on_c, 9, 35, 95
5, 253920, Note_off_c, 9, 49, 95
5, 253920, Note_off_c, 9, 35, 95
5, 253920, Note_on_c, 9, 42, 95
5, 254160, Note_off_c, 9, 42, 95
5, 254160, Note_on_c, 9, 35, 95
5, 254400, Note_off_c, 9, 35, 95
5, 254400, Note_on_c, 9, 42, 95
5, 254400, Note_on_c, 9, 38, 95
5, 254880, Note_off_c, 9, 42, 95
5, 254880, Note_off_c, 9, 38, 95
5, 254880, Note_on_c, 9, 42, 95
5, 255120, Note_off_c, 9, 42, 95
5, 255120, Note_on_c, 9, 35, 95
5, 255360, Note_off_c, 9, 35, 95
5, 255360, Note_on_c, 9, 42, 95
5, 255360, Note_on_c, 9, 35, 95
5, 255840, Note_off_c, 9, 42, 95
5, 255840, Note_off_c, 9, 35, 95
5, 255840, Note_on_c, 9, 42, 95
5, 255840, Note_on_c, 9, 35, 95
5, 256320, Note_off_c, 9, 42, 95
5, 256320, Note_off_c, 9, 35, 95
5, 256320, Note_on_c, 9, 42, 95
5, 256320, Note_on_c, 9, 38, 95
5, 256800, Note_off_c, 9, 42, 95
5, 256800, Note_off_c, 9, 38, 95
5, 256800, Note_on_c, 9, 42, 95
5, 257040, Note_off_c, 9, 42, 95
5, 257040, Note_on_c, 9, 35, 95
5, 257280, Note_off_c, 9, 35, 95
5, 257280, Note_on_c, 9, 42, 95
5, 257280, Note_on_c, 9, 35, 95
5, 257760, Note_off_c, 9, 42, 95
5, 257760, Note_off_c, 9, 35, 95
5, 257760, Note_on_c, 9, 42, 95
5, 258240, Note_off_c, 9, 42, 95
5, 258240, Note_on_c, 9, 42, 95
5, 258240, Note_on_c, 9, 38, 95
5, 258480, Note_off_c, 9, 42, 95
5, 258480, Note_off_c, 9, 38, 95
5, 258480, Note_on_c, 9, 35, 95
5, 258720, Note_off_c, 9, 35, 95
5, 258720, Note_on_c, 9, 42, 95
5, 258960, Note_off_c, 9, 42, 95
5, 258960, Note_on_c, 9, 35, 95
5, 259200, Note_off_c, 9, 35, 95
5, 259200, Note_on_c, 9, 42, 95
5, 259200, Note_on_c, 9, 35, 95
5, 259680, Note_off_c, 9, 42, 95
5, 259680, Note_off_c, 9, 35, 95
5, 259680, Note_on_c, 9, 42, 95
5, 259920, Note_off_c, 9, 42, 95
5, 259920, Note_on_c, 9, 35, 95
5, 260160, Note_off_c, 9, 35, 95
5, 260160, Note_on_c, 9, 42, 95
5, 260160, Note_on_c, 9, 38, 95
5, 260400, Note_off_c, 9, 42, 95
5, 260400, Note_off_c, 9, 38, 95
5, 260400, Note_on_c, 9, 35, 95
5, 260640, Note_off_c, 9, 35, 95
5, 260640, Note_on_c, 9, 42, 95
5, 260640, Note_on_c, 9, 38, 95
5, 260880, Note_off_c, 9, 42, 95
5, 260880, Note_off_c, 9, 38, 95
5, 260880, Note_on_c, 9, 38, 95
5, 261120, Note_off_c, 9, 38, 95
5, 261120, Note_on_c, 9, 49, 95
5, 261120, Note_on_c, 9, 35, 95
5, 261600, Note_off_c, 9, 49, 95
5, 261600, Note_off_c, 9, 35, 95
5, 261600, Note_on_c, 9, 42, 95
5, 261840, Note_off_c, 9, 42, 95
5, 261840, Note_on_c, 9, 35, 95
5, 262080, Note_off_c, 9, 35, 95
5, 262080, Note_on_c, 9, 42, 95
5, 262080, Note_on_c, 9, 38, 95
5, 262560, Note_off_c, 9, 42, 95
5, 262560, Note_off_c, 9, 38, 95
5, 262560, Note_on_c, 9, 42, 95
5, 262800, Note_off_c, 9, 42, 95
5, 262800, Note_on_c, 9, 35, 95
5, 263040, Note_off_c, 9, 35, 95
5, 263040, Note_on_c, 9, 42, 95
5, 263040, Note_on_c, 9, 35, 95
5, 263520, Note_off_c, 9, 42, 95
5, 263520, Note_off_c, 9, 35, 95
5, 263520, Note_on_c, 9, 42, 95
5, 263520, Note_on_c, 9, 35, 95
5, 264000, Note_off_c, 9, 42, 95
5, 264000, Note_off_c, 9, 35, 95
5, 264000, Note_on_c, 9, 42, 95
5, 264000, Note_on_c, 9, 38, 95
5, 264480, Note_off_c, 9, 42, 95
5, 264480, Note_off_c, 9, 38, 95
5, 264480, Note_on_c, 9, 42, 95
5, 264720, Note_off_c, 9, 42, 95
5, 264720, Note_on_c, 9, 35, 95
5, 264960, Note_off_c, 9, 35, 95
5, 264960, Note_on_c, 9, 42, 95
5, 264960, Note_on_c, 9, 35, 95
5, 265440, Note_off_c, 9, 42, 95
5, 265440, Note_off_c, 9, 35, 95
5, 265440, Note_on_c, 9, 42, 95
5, 265920, Note_off_c, 9, 42, 95
5, 265920, Note_on_c, 9, 42, 95
5, 265920, Note_on_c, 9, 38, 95
5, 266160, Note_off_c, 9, 42, 95
5, 266160, Note_off_c, 9, 38, 95
5, 266160, Note_on_c, 9, 35, 95
5, 266400, Note_off_c, 9, 35, 95
5, 266400, Note_on_c, 9, 42, 95
5, 266640, Note_off_c, 9, 42, 95
5, 266640, Note_on_c, 9, 35, 95
5, 266880, Note_off_c, 9, 35, 95
5, 266880, Note_on_c, 9, 42, 95
5, 266880, Note_on_c, 9, 35, 95
5, 267360, Note_off_c, 9, 42, 95
5, 267360, Note_off_c, 9, 35, 95
5, 267360, Note_on_c, 9, 42, 95
5, 267600, Note_off_c, 9, 42, 95
5, 267600, Note_on_c, 9, 35, 95
5, 267840, Note_off_c, 9, 35, 95
5, 267840, Note_on_c, 9, 42, 95
5, 267840, Note_on_c, 9, 38, 95
5, 268080, Note_off_c, 9, 42, 95
5, 268080, Note_off_c, 9, 38, 95
5, 268080, Note_on_c, 9, 35, 95
5, 268320, Note_off_c, 9, 35, 95
5, 268320, Note_on_c, 9, 42, 95
5, 268560, Note_off_c, 9, 42, 95
5, 268560, Note_on_c, 9, 35, 95
5, 268800, Note_off_c, 9, 35, 95
5, 268800, Note_on_c, 9, 49, 95
5, 268800, Note_on_c, 9, 35, 95
5, 269280, Note_off_c, 9, 49, 95
5, 269280, Note_off_c, 9, 35, 95
5, 269280, Note_on_c, 9, 42, 95
5, 269520, Note_off_c, 9, 42, 95
5, 269520, Note_on_c, 9, 35, 95
5, 269760, Note_off_c, 9, 35, 95
5, 269760, Note_on_c, 9, 42, 95
5, 269760, Note_on_c, 9, 38, 95
5, 270240, Note_off_c, 9, 42, 95
5, 270240, Note_off_c, 9, 38, 95
5, 270240, Note_on_c, 9, 42, 95
5, 270480, Note_off_c, 9, 42, 95
5, 270480, Note_on_c, 9, 35, 95
5, 270720, Note_off_c, 9, 35, 95
5, 270720, Note_on_c, 9, 42, 95
5, 270720, Note_on_c, 9, 35, 95
5, 271200, Note_off_c, 9, 42, 95
5, 271200, Note_off_c, 9, 35, 95
5, 271200, Note_on_c, 9, 42, 95
5, 271200, Note_on_c, 9, 35, 95
5, 271680, Note_off_c, 9, 42, 95
5, 271680, Note_off_c, 9, 35, 95
5, 271680, Note_on_c, 9, 42, 95
5, 271680, Note_on_c, 9, 38, 95
5, 272160, Note_off_c, 9, 42, 95
5, 272160, Note_off_c, 9, 38, 95
5, 272160, Note_on_c, 9, 42, 95
5, 272400, Note_off_c, 9, 42, 95
5, 272400, Note_on_c, 9, 35, 95
5, 272640, Note_off_c, 9, 35, 95
5, 272640, Note_on_c, 9, 42, 95
5, 272640, Note_on_c, 9, 35, 95
5, 273120, Note_off_c, 9, 42, 95
5, 273120, Note_off_c, 9, 35, 95
5, 273120, Note_on_c, 9, 42, 95
5, 273600, Note_off_c, 9, 42, 95
5, 273600, Note_on_c, 9, 42, 95
5, 273600, Note_on_c, 9, 38, 95
5, 273840, Note_off_c, 9, 42, 95
5, 273840, Note_off_c, 9, 38, 95
5, 273840, Note_on_c, 9, 35, 95
5, 274080, Note_off_c, 9, 35, 95
5, 274080, Note_on_c, 9, 42, 95
5, 274320, Note_off_c, 9, 42, 95
5, 274320, Note_on_c, 9, 35, 95
5, 274560, Note_off_c, 9, 35, 95
5, 274560, Note_on_c, 9, 42, 95
5, 274560, Note_on_c, 9, 35, 95
5, 275040, Note_off_c, 9, 42, 95
5, 275040, Note_off_c, 9, 35, 95
5, 275040, Note_on_c, 9, 42, 95
5, 275280, Note_off_c, 9, 42, 95
5, 275280, Note_on_c, 9, 35, 95
5, 275520, Note_off_c, 9, 35, 95
5, 275520, Note_on_c, 9, 42, 95
5, 275520, Note_on_c, 9, 38, 95
5, 275760, Note_off_c, 9, 42, 95
5, 275760, Note_off_c, 9, 38, 95
5, 275760, Note_on_c, 9, 35, 95
5, 276000, Note_off_c, 9, 35, 95
5, 276000, Note_on_c, 9, 42, 95
5, 276000, Note_on_c, 9, 38, 95
5, 276240, Note_off_c, 9, 42, 95
5, 276240, Note_off_c, 9, 38, 95
5, 276240, Note_on_c, 9, 38, 95
5, 276480, Note_off_c, 9, 38, 95
5, 276480, Note_on_c, 9, 49, 95
5, 276480, Note_on_c, 9, 35, 95
5, 276960, Note_off_c, 9, 49, 95
5, 276960, Note_off_c, 9, 35, 95
5, 276960, Note_on_c, 9, 49, 95
5, 276960, Note_on_c, 9, 35, 95
5, 277440, Note_off_c, 9, 49, 95
5, 277440, Note_off_c, 9, 35, 95
5, 280320, Note_on_c, 9, 49, 95
5, 280320, Note_on_c, 9, 35, 95
5, 280800, Note_off_c, 9, 49, 95
5, 280800, Note_off_c, 9, 35, 95
5, 280800, Note_on_c, 9, 49, 95
5, 280800, Note_on_c, 9, 35, 95
5, 281280, Note_off_c, 9, 49, 95
5, 281280, Note_off_c, 9, 35, 95
5, 284160, Note_on_c, 9, 49, 95
5, 284160, Note_on_c, 9, 35, 95
5, 284640, Note_off_c, 9, 49, 95
5, 284640, Note_off_c, 9, 35, 95
5, 284640, Note_on_c, 9, 49, 95
5, 284640, Note_on_c, 9, 35, 95
5, 285120, Note_off_c, 9, 49, 95
5, 285120, Note_off_c, 9, 35, 95
5, 288000, Note_on_c, 9, 49, 95
5, 288000, Note_on_c, 9, 35, 95
5, 288480, Note_off_c, 9, 49, 95
5, 288480, Note_off_c, 9, 35, 95
5, 288480, Note_on_c, 9, 49, 95
5, 288480, Note_on_c, 9, 35, 95
5, 288960, Note_off_c, 9, 49, 95
5, 288960, Note_off_c, 9, 35, 95
5, 291840, Note_on_c, 9, 49, 95
5, 291840, Note_on_c, 9, 35, 95
5, 292320, Note_off_c, 9, 49, 95
5, 292320, Note_off_c, 9, 35, 95
5, 292320, Note_on_c, 9, 49, 95
5, 292320, Note_on_c, 9, 35, 95
5, 292800, Note_off_c, 9, 49, 95
5, 292800, Note_off_c, 9, 35, 95
5, 295680, Note_on_c, 9, 49, 95
5, 295680, Note_on_c, 9, 35, 95
5, 296160, Note_off_c, 9, 49, 95
5, 296160, Note_off_c, 9, 35, 95
5, 296160, Note_on_c, 9, 49, 95
5, 296160, Note_on_c, 9, 35, 95
5, 296640, Note_off_c, 9, 49, 95
5, 296640, Note_off_c, 9, 35, 95
5, 299520, Note_on_c, 9, 49, 95
5, 299520, Note_on_c, 9, 35, 95
5, 300000, Note_off_c, 9, 49, 95
5, 300000, Note_off_c, 9, 35, 95
5, 300000, Note_on_c, 9, 49, 95
5, 300000, Note_on_c, 9, 35, 95
5, 300480, Note_off_c, 9, 49, 95
5, 300480, Note_off_c, 9, 35, 95
5, 303360, Note_on_c, 9, 49, 95
5, 303360, Note_on_c, 9, 35, 95
5, 303840, Note_off_c, 9, 49, 95
5, 303840, Note_off_c, 9, 35, 95
5, 307200, Note_on_c, 9, 49, 95
5, 307200, Note_on_c, 9, 35, 95
5, 307680, Note_off_c, 9, 49, 95
5, 307680, Note_off_c, 9, 35, 95
5, 307680, Note_on_c, 9, 42, 95
5, 307920, Note_off_c, 9, 42, 95
5, 307920, Note_on_c, 9, 35, 95
5, 308160, Note_off_c, 9, 35, 95
5, 308160, Note_on_c, 9, 42, 95
5, 308160, Note_on_c, 9, 38, 95
5, 308640, Note_off_c, 9, 42, 95
5, 308640, Note_off_c, 9, 38, 95
5, 308640, Note_on_c, 9, 42, 95
5, 308880, Note_off_c, 9, 42, 95
5, 308880, Note_on_c, 9, 35, 95
5, 309120, Note_off_c, 9, 35, 95
5, 309120, Note_on_c, 9, 42, 95
5, 309120, Note_on_c, 9, 35, 95
5, 309600, Note_off_c, 9, 42, 95
5, 309600, Note_off_c, 9, 35, 95
5, 309600, Note_on_c, 9, 42, 95
5, 309600, Note_on_c, 9, 35, 95
5, 310080, Note_off_c, 9, 42, 95
5, 310080, Note_off_c, 9, 35, 95
5, 310080, Note_on_c, 9, 42, 95
5, 310080, Note_on_c, 9, 38, 95
5, 310560, Note_off_c, 9, 42, 95
5, 310560, Note_off_c, 9, 38, 95
5, 310560, Note_on_c, 9, 42, 95
5, 310800, Note_off_c, 9, 42, 95
5, 310800, Note_on_c, 9, 35, 95
5, 311040, Note_off_c, 9, 35, 95
5, 311040, Note_on_c, 9, 42, 95
5, 311040, Note_on_c, 9, 35, 95
5, 311520, Note_off_c, 9, 42, 95
5, 311520, Note_off_c, 9, 35, 95
5, 311520, Note_on_c, 9, 42, 95
5, 312000, Note_off_c, 9, 42, 95
5, 312000, Note_on_c, 9, 42, 95
5, 312000, Note_on_c, 9, 38, 95
5, 312240, Note_off_c, 9, 42, 95
5, 312240, Note_off_c, 9, 38, 95
5, 312240, Note_on_c, 9, 35, 95
5, 312480, Note_off_c, 9, 35, 95
5, 312480, Note_on_c, 9, 42, 95
5, 312720, Note_off_c, 9, 42, 95
5, 312720, Note_on_c, 9, 35, 95
5, 312960, Note_off_c, 9, 35, 95
5, 312960, Note_on_c, 9, 42, 95
5, 312960, Note_on_c, 9, 35, 95
5, 313440, Note_off_c, 9, 42, 95
5, 313440, Note_off_c, 9, 35, 95
5, 313440, Note_on_c, 9, 42, 95
5, 313680, Note_off_c, 9, 42, 95
5, 313680, Note_on_c, 9, 35, 95
5, 313920, Note_off_c, 9, 35, 95
5, 313920, Note_on_c, 9, 42, 95
5, 313920, Note_on_c, 9, 38, 95
5, 314160, Note_off_c, 9, 42, 95
5, 314160, Note_off_c, 9, 38, 95
5, 314160, Note_on_c, 9, 35, 95
5, 314400, Note_off_c, 9, 35, 95
5, 314400, Note_on_c, 9, 42, 95
5, 314640, Note_off_c, 9, 42, 95
5, 314640, Note_on_c, 9, 35, 95
5, 314880, Note_off_c, 9, 35, 95
5, 314880, Note_on_c, 9, 49, 95
5, 314880, Note_on_c, 9, 35, 95
5, 315360, Note_off_c, 9, 49, 95
5, 315360, Note_off_c, 9, 35, 95
5, 315360, Note_on_c, 9, 42, 95
5, 315600, Note_off_c, 9, 42, 95
5, 315600, Note_on_c, 9, 35, 95
5, 315840, Note_off_c, 9, 35, 95
5, 315840, Note_on_c, 9, 42, 95
5, 315840, Note_on_c, 9, 38, 95
5, 316320, Note_off_c, 9, 42, 95
5, 316320, Note_off_c, 9, 38, 95
5, 316320, Note_on_c, 9, 42, 95
5, 316560, Note_off_c, 9, 42, 95
5, 316560, Note_on_c, 9, 35, 95
5, 316800, Note_off_c, 9, 35, 95
5, 316800, Note_on_c, 9, 42, 95
5, 316800, Note_on_c, 9, 35, 95
5, 317280, Note_off_c, 9, 42, 95
5, 317280, Note_off_c, 9, 35, 95
5, 317280, Note_on_c, 9, 42, 95
5, 317280, Note_on_c, 9, 35, 95
5, 317760, Note_off_c, 9, 42, 95
5, 317760, Note_off_c, 9, 35, 95
5, 317760, Note_on_c, 9, 42, 95
5, 317760, Note_on_c, 9, 38, 95
5, 318240, Note_off_c, 9, 42, 95
5, 318240, Note_off_c, 9, 38, 95
5, 318240, Note_on_c, 9, 42, 95
5, 318480, Note_off_c, 9, 42, 95
5, 318480, Note_on_c, 9, 35, 95
5, 318720, Note_off_c, 9, 35, 95
5, 318720, Note_on_c, 9, 42, 95
5, 318720, Note_on_c, 9, 35, 95
5, 319200, Note_off_c, 9, 42, 95
5, 319200, Note_off_c, 9, 35, 95
5, 319200, Note_on_c, 9, 42, 95
5, 319680, Note_off_c, 9, 42, 95
5, 319680, Note_on_c, 9, 42, 95
5, 319680, Note_on_c, 9, 38, 95
5, 319920, Note_off_c, 9, 42, 95
5, 319920, Note_off_c, 9, 38, 95
5, 319920, Note_on_c, 9, 35, 95
5, 320160, Note_off_c, 9, 35, 95
5, 320160, Note_on_c, 9, 42, 95
5, 320400, Note_off_c, 9, 42, 95
5, 320400, Note_on_c, 9, 35, 95
5, 320640, Note_off_c, 9, 35, 95
5, 320640, Note_on_c, 9, 42, 95
5, 320640, Note_on_c, 9, 35, 95
5, 321120, Note_off_c, 9, 42, 95
5, 321120, Note_off_c, 9, 35, 95
5, 321120, Note_on_c, 9, 42, 95
5, 321360, Note_off_c, 9, 42, 95
5, 321360, Note_on_c, 9, 35, 95
5, 321600, Note_off_c, 9, 35, 95
5, 321600, Note_on_c, 9, 42, 95
5, 321600, Note_on_c, 9, 38, 95
5, 321840, Note_off_c, 9, 42, 95
5, 321840, Note_off_c, 9, 38, 95
5, 321840, Note_on_c, 9, 35, 95
5, 322080, Note_off_c, 9, 35, 95
5, 322080, Note_on_c, 9, 42, 95
5, 322320, Note_off_c, 9, 42, 95
5, 322320, Note_on_c, 9, 35, 95
5, 322560, Note_off_c, 9, 35, 95
5, 322560, Note_on_c, 9, 49, 95
5, 322560, Note_on_c, 9, 35, 95
5, 323040, Note_off_c, 9, 49, 95
5, 323040, Note_off_c, 9, 35, 95
5, 323040, Note_on_c, 9, 42, 95
5, 323280, Note_off_c, 9, 42, 95
5, 323280, Note_on_c, 9, 35, 95
5, 323520, Note_off_c, 9, 35, 95
5, 323520, Note_on_c, 9, 42, 95
5, 323520, Note_on_c, 9, 38, 95
5, 324000, Note_off_c, 9, 42, 95
5, 324000, Note_off_c, 9, 38, 95
5, 324000, Note_on_c, 9, 42, 95
5, 324240, Note_off_c, 9, 42, 95
5, 324240, Note_on_c, 9, 35, 95
5, 324480, Note_off_c, 9, 35, 95
5, 324480, Note_on_c, 9, 42, 95
5, 324480, Note_on_c, 9, 35, 95
5, 324960, Note_off_c, 9, 42, 95
5, 324960, Note_off_c, 9, 35, 95
5, 324960, Note_on_c, 9, 42, 95
5, 324960, Note_on_c, 9, 35, 95
5, 325440, Note_off_c, 9, 42, 95
5, 325440, Note_off_c, 9, 35, 95
5, 325440, Note_on_c, 9, 42, 95
5, 325440, Note_on_c, 9, 38, 95
5, 325920, Note_off_c, 9, 42, 95
5, 325920, Note_off_c, 9, 38, 95
5, 325920, Note_on_c, 9, 42, 95
5, 326160, Note_off_c, 9, 42, 95
5, 326160, Note_on_c, 9, 35, 95
5, 326400, Note_off_c, 9, 35, 95
5, 326400, Note_on_c, 9, 42, 95
5, 326400, Note_on_c, 9, 35, 95
5, 326880, Note_off_c, 9, 42, 95
5, 326880, Note_off_c, 9, 35, 95
5, 326880, Note_on_c, 9, 42, 95
5, 327360, Note_off_c, 9, 42, 95
5, 327360, Note_on_c, 9, 42, 95
5, 327360, Note_on_c, 9, 38, 95
5, 327600, Note_off_c, 9, 42, 95
5, 327600, Note_off_c, 9, 38, 95
5, 327600, Note_on_c, 9, 35, 95
5, 327840, Note_off_c, 9, 35, 95
5, 327840, Note_on_c, 9, 42, 95
5, 328080, Note_off_c, 9, 42, 95
5, 328080, Note_on_c, 9, 35, 95
5, 328320, Note_off_c, 9, 35, 95
5, 328320, Note_on_c, 9, 42, 95
5, 328320, Note_on_c, 9, 35, 95
5, 328800, Note_off_c, 9, 42, 95
5, 328800, Note_off_c, 9, 35, 95
5, 328800, Note_on_c, 9, 42, 95
5, 329040, Note_off_c, 9, 42, 95
5, 329040, Note_on_c, 9, 35, 95
5, 329280, Note_off_c, 9, 35, 95
5, 329280, Note_on_c, 9, 42, 95
5, 329280, Note_on_c, 9, 38, 95
5, 329520, Note_off_c, 9, 42, 95
5, 329520, Note_off_c, 9, 38, 95
5, 329520, Note_on_c, 9, 35, 95
5, 329760, Note_off_c, 9, 35, 95
5, 329760, Note_on_c, 9, 42, 95
5, 330000, Note_off_c, 9, 42, 95
5, 330000, Note_on_c, 9, 35, 95
5, 330240, Note_off_c, 9, 35, 95
5, 330240, Note_on_c, 9, 49, 95
5, 330240, Note_on_c, 9, 35, 95
5, 330720, Note_off_c, 9, 49, 95
5, 330720, Note_off_c, 9, 35, 95
5, 330720, Note_on_c, 9, 42, 95
5, 330960, Note_off_c, 9, 42, 95
5, 330960, Note_on_c, 9, 35, 95
5, 331200, Note_off_c, 9, 35, 95
5, 331200, Note_on_c, 9, 42, 95
5, 331200, Note_on_c, 9, 38, 95
5, 331680, Note_off_c, 9, 42, 95
5, 331680, Note_off_c, 9, 38, 95
5, 331680, Note_on_c, 9, 42, 95
5, 331920, Note_off_c, 9, 42, 95
5, 331920, Note_on_c, 9, 35, 95
5, 332160, Note_off_c, 9, 35, 95
5, 332160, Note_on_c, 9, 42, 95
5, 332160, Note_on_c, 9, 35, 95
5, 332640, Note_off_c, 9, 42, 95
5, 332640, Note_off_c, 9, 35, 95
5, 332640, Note_on_c, 9, 42, 95
5, 332640, Note_on_c, 9, 35, 95
5, 333120, Note_off_c, 9, 42, 95
5, 333120, Note_off_c, 9, 35, 95
5, 333120, Note_on_c, 9, 42, 95
5, 333120, Note_on_c, 9, 38, 95
5, 333600, Note_off_c, 9, 42, 95
5, 333600, Note_off_c, 9, 38, 95
5, 333600, Note_on_c, 9, 42, 95
5, 333840, Note_off_c, 9, 42, 95
5, 333840, Note_on_c, 9, 35, 95
5, 334080, Note_off_c, 9, 35, 95
5, 334080, Note_on_c, 9, 42, 95
5, 334080, Note_on_c, 9, 35, 95
5, 334560, Note_off_c, 9, 42, 95
5, 334560, Note_off_c, 9, 35, 95
5, 334560, Note_on_c, 9, 42, 95
5, 335040, Note_off_c, 9, 42, 95
5, 335040, Note_on_c, 9, 42, 95
5, 335040, Note_on_c, 9, 38, 95
5, 335280, Note_off_c, 9, 42, 95
5, 335280, Note_off_c, 9, 38, 95
5, 335280, Note_on_c, 9, 35, 95
5, 335520, Note_off_c, 9, 35, 95
5, 335520, Note_on_c, 9, 42, 95
5, 335760, Note_off_c, 9, 42, 95
5, 335760, Note_on_c, 9, 35, 95
5, 336000, Note_off_c, 9, 35, 95
5, 336000, Note_on_c, 9, 42, 95
5, 336000, Note_on_c, 9, 35, 95
5, 336480, Note_off_c, 9, 42, 95
5, 336480, Note_off_c, 9, 35, 95
5, 336480, Note_on_c, 9, 42, 95
5, 336720, Note_off_c, 9, 42, 95
5, 336720, Note_on_c, 9, 35, 95
5, 336960, Note_off_c, 9, 35, 95
5, 336960, Note_on_c, 9, 42, 95
5, 336960, Note_on_c, 9, 38, 95
5, 337200, Note_off_c, 9, 42, 95
5, 337200, Note_off_c, 9, 38, 95
5, 337200, Note_on_c, 9, 35, 95
5, 337440, Note_off_c, 9, 35, 95
5, 337440, Note_on_c, 9, 42, 95
5, 337680, Note_off_c, 9, 42, 95
5, 337680, Note_on_c, 9, 35, 95
5, 337920, Note_off_c, 9, 35, 95
5, 337920, Note_on_c, 9, 49, 95
5, 337920, Note_on_c, 9, 35, 95
5, 338400, Note_off_c, 9, 49, 95
5, 338400, Note_off_c, 9, 35, 95
5, 338400, Note_on_c, 9, 42, 95
5, 338640, Note_off_c, 9, 42, 95
5, 338640, Note_on_c, 9, 35, 95
5, 338880, Note_off_c, 9, 35, 95
5, 338880, Note_on_c, 9, 42, 95
5, 338880, Note_on_c, 9, 38, 95
5, 339360, Note_off_c, 9, 42, 95
5, 339360, Note_off_c, 9, 38, 95
5, 339360, Note_on_c, 9, 42, 95
5, 339600, Note_off_c, 9, 42, 95
5, 339600, Note_on_c, 9, 35, 95
5, 339840, Note_off_c, 9, 35, 95
5, 339840, Note_on_c, 9, 42, 95
5, 339840, Note_on_c, 9, 35, 95
5, 340320, Note_off_c, 9, 42, 95
5, 340320, Note_off_c, 9, 35, 95
5, 340320, Note_on_c, 9, 42, 95
5, 340320, Note_on_c, 9, 35, 95
5, 340800, Note_off_c, 9, 42, 95
5, 340800, Note_off_c, 9, 35, 95
5, 340800, Note_on_c, 9, 42, 95
5, 340800, Note_on_c, 9, 38, 95
5, 341280, Note_off_c, 9, 42, 95
5, 341280, Note_off_c, 9, 38, 95
5, 341280, Note_on_c, 9, 42, 95
5, 341520, Note_off_c, 9, 42, 95
5, 341520, Note_on_c, 9, 35, 95
5, 341760, Note_off_c, 9, 35, 95
5, 341760, Note_on_c, 9, 42, 95
5, 341760, Note_on_c, 9, 35, 95
5, 342240, Note_off_c, 9, 42, 95
5, 342240, Note_off_c, 9, 35, 95
5, 342240, Note_on_c, 9, 42, 95
5, 342720, Note_off_c, 9, 42, 95
5, 342720, Note_on_c, 9, 42, 95
5, 342720, Note_on_c, 9, 38, 95
5, 342960, Note_off_c, 9, 42, 95
5, 342960, Note_off_c, 9, 38, 95
5, 342960, Note_on_c, 9, 35, 95
5, 343200, Note_off_c, 9, 35, 95
5, 343200, Note_on_c, 9, 42, 95
5, 343440, Note_off_c, 9, 42, 95
5, 343440, Note_on_c, 9, 35, 95
5, 343680, Note_off_c, 9, 35, 95
5, 343680, Note_on_c, 9, 42, 95
5, 343680, Note_on_c, 9, 35, 95
5, 344160, Note_off_c, 9, 42, 95
5, 344160, Note_off_c, 9, 35, 95
5, 344160, Note_on_c, 9, 42, 95
5, 344400, Note_off_c, 9, 42, 95
5, 344400, Note_on_c, 9, 35, 95
5, 344640, Note_off_c, 9, 35, 95
5, 344640, Note_on_c, 9, 42, 95
5, 344640, Note_on_c, 9, 38, 95
5, 344880, Note_off_c, 9, 42, 95
5, 344880, Note_off_c, 9, 38, 95
5, 344880, Note_on_c, 9, 35, 95
5, 345120, Note_off_c, 9, 35, 95
5, 345120, Note_on_c, 9, 42, 95
5, 345360, Note_off_c, 9, 42, 95
5, 345360, Note_on_c, 9, 35, 95
5, 345600, Note_off_c, 9, 35, 95
5, 345600, Note_on_c, 9, 49, 95
5, 345600, Note_on_c, 9, 35, 95
5, 346080, Note_off_c, 9, 49, 95
5, 346080, Note_off_c, 9, 35, 95
5, 346080, Note_on_c, 9, 42, 95
5, 346320, Note_off_c, 9, 42, 95
5, 346320, Note_on_c, 9, 35, 95
5, 346560, Note_off_c, 9, 35, 95
5, 346560, Note_on_c, 9, 42, 95
5, 346560, Note_on_c, 9, 38, 95
5, 347040, Note_off_c, 9, 42, 95
5, 347040, Note_off_c, 9, 38, 95
5, 347040, Note_on_c, 9, 42, 95
5, 347280, Note_off_c, 9, 42, 95
5, 347280, Note_on_c, 9, 35, 95
5, 347520, Note_off_c, 9, 35, 95
5, 347520, Note_on_c, 9, 42, 95
5, 347520, Note_on_c, 9, 35, 95
5, 348000, Note_off_c, 9, 42, 95
5, 348000, Note_off_c, 9, 35, 95
5, 348000, Note_on_c, 9, 42, 95
5, 348000, Note_on_c, 9, 35, 95
5, 348480, Note_off_c, 9, 42, 95
5, 348480, Note_off_c, 9, 35, 95
5, 348480, Note_on_c, 9, 42, 95
5, 348480, Note_on_c, 9, 38, 95
5, 348960, Note_off_c, 9, 42, 95
5, 348960, Note_off_c, 9, 38, 95
5, 348960, Note_on_c, 9, 42, 95
5, 349200, Note_off_c, 9, 42, 95
5, 349200, Note_on_c, 9, 35, 95
5, 349440, Note_off_c, 9, 35, 95
5, 349440, Note_on_c, 9, 42, 95
5, 349440, Note_on_c, 9, 35, 95
5, 349920, Note_off_c, 9, 42, 95
5, 349920, Note_off_c, 9, 35, 95
5, 349920, Note_on_c, 9, 42, 95
5, 350400, Note_off_c, 9, 42, 95
5, 350400, Note_on_c, 9, 42, 95
5, 350400, Note_on_c, 9, 38, 95
5, 350640, Note_off_c, 9, 42, 95
5, 350640, Note_off_c, 9, 38, 95
5, 350640, Note_on_c, 9, 35, 95
5, 350880, Note_off_c, 9, 35, 95
5, 350880, Note_on_c, 9, 42, 95
5, 351120, Note_off_c, 9, 42, 95
5, 351120, Note_on_c, 9, 35, 95
5, 351360, Note_off_c, 9, 35, 95
5, 351360, Note_on_c, 9, 42, 95
5, 351360, Note_on_c, 9, 35, 95
5, 351840, Note_off_c, 9, 42, 95
5, 351840, Note_off_c, 9, 35, 95
5, 351840, Note_on_c, 9, 42, 95
5, 352080, Note_off_c, 9, 42, 95
5, 352080, Note_on_c, 9, 35, 95
5, 352320, Note_off_c, 9, 35, 95
5, 352320, Note_on_c, 9, 42, 95
5, 352320, Note_on_c, 9, 38, 95
5, 352560, Note_off_c, 9, 42, 95
5, 352560, Note_off_c, 9, 38, 95
5, 352560, Note_on_c, 9, 35, 95
5, 352800, Note_off_c, 9, 35, 95
5, 352800, Note_on_c, 9, 42, 95
5, 353040, Note_off_c, 9, 42, 95
5, 353040, Note_on_c, 9, 35, 95
5, 353280, Note_off_c, 9, 35, 95
5, 353280, Note_on_c, 9, 49, 95
5, 353280, Note_on_c, 9, 35, 95
5, 353760, Note_off_c, 9, 49, 95
5, 353760, Note_off_c, 9, 35, 95
5, 353760, Note_on_c, 9, 42, 95
5, 354000, Note_off_c, 9, 42, 95
5, 354000, Note_on_c, 9, 35, 95
5, 354240, Note_off_c, 9, 35, 95
5, 354240, Note_on_c, 9, 42, 95
5, 354240, Note_on_c, 9, 38, 95
5, 354720, Note_off_c, 9, 42, 95
5, 354720, Note_off_c, 9, 38, 95
5, 354720, Note_on_c, 9, 42, 95
5, 354960, Note_off_c, 9, 42, 95
5, 354960, Note_on_c, 9, 35, 95
5, 355200, Note_off_c, 9, 35, 95
5, 355200, Note_on_c, 9, 42, 95
5, 355200, Note_on_c, 9, 35, 95
5, 355680, Note_off_c, 9, 42, 95
5, 355680, Note_off_c, 9, 35, 95
5, 355680, Note_on_c, 9, 42, 95
5, 355680, Note_on_c, 9, 35, 95
5, 356160, Note_off_c, 9, 42, 95
5, 356160, Note_off_c, 9, 35, 95
5, 356160, Note_on_c, 9, 42, 95
5, 356160, Note_on_c, 9, 38, 95
5, 356640, Note_off_c, 9, 42, 95
5, 356640, Note_off_c, 9, 38, 95
5, 356640, Note_on_c, 9, 42, 95
5, 356880, Note_off_c, 9, 42, 95
5, 356880, Note_on_c, 9, 35, 95
5, 357120, Note_off_c, 9, 35, 95
5, 357120, Note_on_c, 9, 42, 95
5, 357120, Note_on_c, 9, 35, 95
5, 357600, Note_off_c, 9, 42, 95
5, 357600, Note_off_c, 9, 35, 95
5, 357600, Note_on_c, 9, 42, 95
5, 358080, Note_off_c, 9, 42, 95
5, 358080, Note_on_c, 9, 42, 95
5, 358080, Note_on_c, 9, 38, 95
5, 358320, Note_off_c, 9, 42, 95
5, 358320, Note_off_c, 9, 38, 95
5, 358320, Note_on_c, 9, 35, 95
5, 358560, Note_off_c, 9, 35, 95
5, 358560, Note_on_c, 9, 42, 95
5, 358800, Note_off_c, 9, 42, 95
5, 358800, Note_on_c, 9, 35, 95
5, 359040, Note_off_c, 9, 35, 95
5, 359040, Note_on_c, 9, 42, 95
5, 359040, Note_on_c, 9, 35, 95
5, 359520, Note_off_c, 9, 42, 95
5, 359520, Note_off_c, 9, 35, 95
5, 359520, Note_on_c, 9, 42, 95
5, 359760, Note_off_c, 9, 42, 95
5, 359760, Note_on_c, 9, 35, 95
5, 360000, Note_off_c, 9, 35, 95
5, 360000, Note_on_c, 9, 42, 95
5, 360000, Note_on_c, 9, 38, 95
5, 360240, Note_off_c, 9, 42, 95
5, 360240, Note_off_c, 9, 38, 95
5, 360240, Note_on_c, 9, 35, 95
5, 360480, Note_off_c, 9, 35, 95
5, 360480, Note_on_c, 9, 42, 95
5, 360720, Note_off_c, 9, 42, 95
5, 360720, Note_on_c, 9, 35, 95
5, 360960, Note_off_c, 9, 35, 95
5, 360960, Note_on_c, 9, 49, 95
5, 360960, Note_on_c, 9, 35, 95
5, 361440, Note_off_c, 9, 49, 95
5, 361440, Note_off_c, 9, 35, 95
5, 361440, Note_on_c, 9, 42, 95
5, 361680, Note_off_c, 9, 42, 95
5, 361680, Note_on_c, 9, 35, 95
5, 361920, Note_off_c, 9, 35, 95
5, 361920, Note_on_c, 9, 42, 95
5, 361920, Note_on_c, 9, 38, 95
5, 362400, Note_off_c, 9, 42, 95
5, 362400, Note_off_c, 9, 38, 95
5, 362400, Note_on_c, 9, 42, 95
5, 362640, Note_off_c, 9, 42, 95
5, 362640, Note_on_c, 9, 35, 95
5, 362880, Note_off_c, 9, 35, 95
5, 362880, Note_on_c, 9, 42, 95
5, 362880, Note_on_c, 9, 35, 95
5, 363360, Note_off_c, 9, 42, 95
5, 363360, Note_off_c, 9, 35, 95
5, 363360, Note_on_c, 9, 42, 95
5, 363360, Note_on_c, 9, 35, 95
5, 363840, Note_off_c, 9, 42, 95
5, 363840, Note_off_c, 9, 35, 95
5, 363840, Note_on_c, 9, 42, 95
5, 363840, Note_on_c, 9, 38, 95
5, 364320, Note_off_c, 9, 42, 95
5, 364320, Note_off_c, 9, 38, 95
5, 364320, Note_on_c, 9, 42, 95
5, 364560, Note_off_c, 9, 42, 95
5, 364560, Note_on_c, 9, 35, 95
5, 364800, Note_off_c, 9, 35, 95
5, 364800, Note_on_c, 9, 42, 95
5, 364800, Note_on_c, 9, 35, 95
5, 365280, Note_off_c, 9, 42, 95
5, 365280, Note_off_c, 9, 35, 95
5, 365280, Note_on_c, 9, 42, 95
5, 365760, Note_off_c, 9, 42, 95
5, 365760, Note_on_c, 9, 42, 95
5, 365760, Note_on_c, 9, 38, 95
5, 366000, Note_off_c, 9, 42, 95
5, 366000, Note_off_c, 9, 38, 95
5, 366000, Note_on_c, 9, 35, 95
5, 366240, Note_off_c, 9, 35, 95
5, 366240, Note_on_c, 9, 42, 95
5, 366480, Note_off_c, 9, 42, 95
5, 366480, Note_on_c, 9, 35, 95
5, 366720, Note_off_c, 9, 35, 95
5, 366720, Note_on_c, 9, 42, 95
5, 366720, Note_on_c, 9, 35, 95
5, 367200, Note_off_c, 9, 42, 95
5, 367200, Note_off_c, 9, 35, 95
5, 367200, Note_on_c, 9, 42, 95
5, 367440, Note_off_c, 9, 42, 95
5, 367440, Note_on_c, 9, 35, 95
5, 367680, Note_off_c, 9, 35, 95
5, 367680, Note_on_c, 9, 42, 95
5, 367680, Note_on_c, 9, 38, 95
5, 367920, Note_off_c, 9, 42, 95
5, 367920, Note_off_c, 9, 38, 95
5, 367920, Note_on_c, 9, 35, 95
5, 368160, Note_off_c, 9, 35, 95
5, 368160, Note_on_c, 9, 42, 95
5, 368400, Note_off_c, 9, 42, 95
5, 368400, Note_on_c, 9, 35, 95
5, 368640, Note_off_c, 9, 35, 95
5, 368640, Note_on_c, 9, 49, 95
5, 368640, Note_on_c, 9, 35, 95
5, 369120, Note_off_c, 9, 49, 95
5, 369120, Note_off_c, 9, 35, 95
5, 369120, Note_on_c, 9, 42, 95
5, 369360, Note_off_c, 9, 42, 95
5, 369360, Note_on_c, 9, 35, 95
5, 369600, Note_off_c, 9, 35, 95
5, 369600, Note_on_c, 9, 42, 95
5, 369600, Note_on_c, 9, 38, 95
5, 370080, Note_off_c, 9, 42, 95
5, 370080, Note_off_c, 9, 38, 95
5, 370080, Note_on_c, 9, 42, 95
5, 370320, Note_off_c, 9, 42, 95
5, 370320, Note_on_c, 9, 35, 95
5, 370560, Note_off_c, 9, 35, 95
5, 370560, Note_on_c, 9, 42, 95
5, 370560, Note_on_c, 9, 35, 95
5, 371040, Note_off_c, 9, 42, 95
5, 371040, Note_off_c, 9, 35, 95
5, 371040, Note_on_c, 9, 42, 95
5, 371040, Note_on_c, 9, 35, 95
5, 371520, Note_off_c, 9, 42, 95
5, 371520, Note_off_c, 9, 35, 95
5, 371520, Note_on_c, 9, 42, 95
5, 371520, Note_on_c, 9, 38, 95
5, 372000, Note_off_c, 9, 42, 95
5, 372000, Note_off_c, 9, 38, 95
5, 372000, Note_on_c, 9, 42, 95
5, 372240, Note_off_c, 9, 42, 95
5, 372240, Note_on_c, 9, 35, 95
5, 372480, Note_off_c, 9, 35, 95
5, 372480, Note_on_c, 9, 42, 95
5, 372480, Note_on_c, 9, 35, 95
5, 372960, Note_off_c, 9, 42, 95
5, 372960, Note_off_c, 9, 35, 95
5, 372960, Note_on_c, 9, 42, 95
5, 373440, Note_off_c, 9, 42, 95
5, 373440, Note_on_c, 9, 42, 95
5, 373440, Note_on_c, 9, 38, 95
5, 373680, Note_off_c, 9, 42, 95
5, 373680, Note_off_c, 9, 38, 95
5, 373680, Note_on_c, 9, 35, 95
5, 373920, Note_off_c, 9, 35, 95
5, 373920, Note_on_c, 9, 42, 95
5, 374160, Note_off_c, 9, 42, 95
5, 374160, Note_on_c, 9, 35, 95
5, 374400, Note_off_c, 9, 35, 95
5, 374400, Note_on_c, 9, 42, 95
5, 374400, Note_on_c, 9, 35, 95
5, 374880, Note_off_c, 9, 42, 95
5, 374880, Note_off_c, 9, 35, 95
5, 374880, Note_on_c, 9, 42, 95
5, 375120, Note_off_c, 9, 42, 95
5, 375120, Note_on_c, 9, 35, 95
5, 375360, Note_off_c, 9, 35, 95
5, 375360, Note_on_c, 9, 42, 95
5, 375360, Note_on_c, 9, 38, 95
5, 375600, Note_off_c, 9, 42, 95
5, 375600, Note_off_c, 9, 38, 95
5, 375600, Note_on_c, 9, 35, 95
5, 375840, Note_off_c, 9, 35, 95
5, 375840, Note_on_c, 9, 42, 95
5, 376080, Note_off_c, 9, 42, 95
5, 376080, Note_on_c, 9, 35, 95
5, 376320, Note_off_c, 9, 35, 95
5, 376320, Note_on_c, 9, 49, 95
5, 376320, Note_on_c, 9, 35, 95
5, 376800, Note_off_c, 9, 49, 95
5, 376800, Note_off_c, 9, 35, 95
5, 376800, Note_on_c, 9, 42, 95
5, 377040, Note_off_c, 9, 42, 95
5, 377040, Note_on_c, 9, 35, 95
5, 377280, Note_off_c, 9, 35, 95
5, 377280, Note_on_c, 9, 42, 95
5, 377280, Note_on_c, 9, 38, 95
5, 377760, Note_off_c, 9, 42, 95
5, 377760, Note_off_c, 9, 38, 95
5, 377760, Note_on_c, 9, 42, 95
5, 378000, Note_off_c, 9, 42, 95
5, 378000, Note_on_c, 9, 35, 95
5, 378240, Note_off_c, 9, 35, 95
5, 378240, Note_on_c, 9, 42, 95
5, 378240, Note_on_c, 9, 35, 95
5, 378720, Note_off_c, 9, 42, 95
5, 378720, Note_off_c, 9, 35, 95
5, 378720, Note_on_c, 9, 42, 95
5, 378720, Note_on_c, 9, 35, 95
5, 379200, Note_off_c, 9, 42, 95
5, 379200, Note_off_c, 9, 35, 95
5, 379200, Note_on_c, 9, 42, 95
5, 379200, Note_on_c, 9, 38, 95
5, 379680, Note_off_c, 9, 42, 95
5, 379680, Note_off_c, 9, 38, 95
5, 379680, Note_on_c, 9, 42, 95
5, 379920, Note_off_c, 9, 42, 95
5, 379920, Note_on_c, 9, 35, 95
5, 380160, Note_off_c, 9, 35, 95
5, 380160, Note_on_c, 9, 42, 95
5, 380160, Note_on_c, 9, 35, 95
5, 380640, Note_off_c, 9, 42, 95
5, 380640, Note_off_c, 9, 35, 95
5, 380640, Note_on_c, 9, 42, 95
5, 381120, Note_off_c, 9, 42, 95
5, 381120, Note_on_c, 9, 42, 95
5, 381120, Note_on_c, 9, 38, 95
5, 381360, Note_off_c, 9, 42, 95
5, 381360, Note_off_c, 9, 38, 95
5, 381360, Note_on_c, 9, 35, 95
5, 381600, Note_off_c, 9, 35, 95
5, 381600, Note_on_c, 9, 42, 95
5, 381840, Note_off_c, 9, 42, 95
5, 381840, Note_on_c, 9, 35, 95
5, 382080, Note_off_c, 9, 35, 95
5, 382080, Note_on_c, 9, 42, 95
5, 382080, Note_on_c, 9, 35, 95
5, 382560, Note_off_c, 9, 42, 95
5, 382560, Note_off_c, 9, 35, 95
5, 382560, Note_on_c, 9, 42, 95
5, 382800, Note_off_c, 9, 42, 95
5, 382800, Note_on_c, 9, 35, 95
5, 383040, Note_off_c, 9, 35, 95
5, 383040, Note_on_c, 9, 42, 95
5, 383040, Note_on_c, 9, 38, 95
5, 383280, Note_off_c, 9, 42, 95
5, 383280, Note_off_c, 9, 38, 95
5, 383280, Note_on_c, 9, 35, 95
5, 383520, Note_off_c, 9, 35, 95
5, 383520, Note_on_c, 9, 42, 95
5, 383760, Note_off_c, 9, 42, 95
5, 383760, Note_on_c, 9, 35, 95
5, 384000, Note_off_c, 9, 35, 95
5, 384000, Note_on_c, 9, 49, 95
5, 384000, Note_on_c, 9, 35, 95
5, 384480, Note_off_c, 9, 49, 95
5, 384480, Note_off_c, 9, 35, 95
5, 384480, Note_on_c, 9, 42, 95
5, 384720, Note_off_c, 9, 42, 95
5, 384720, Note_on_c, 9, 35, 95
5, 384960, Note_off_c, 9, 35, 95
5, 384960, Note_on_c, 9, 42, 95
5, 384960, Note_on_c, 9, 38, 95
5, 385440, Note_off_c, 9, 42, 95
5, 385440, Note_off_c, 9, 38, 95
5, 385440, Note_on_c, 9, 42, 95
5, 385680, Note_off_c, 9, 42, 95
5, 385680, Note_on_c, 9, 35, 95
5, 385920, Note_off_c, 9, 35, 95
5, 385920, Note_on_c, 9, 42, 95
5, 385920, Note_on_c, 9, 35, 95
5, 386400, Note_off_c, 9, 42, 95
5, 386400, Note_off_c, 9, 35, 95
5, 386400, Note_on_c, 9, 42, 95
5, 386400, Note_on_c, 9, 35, 95
5, 386880, Note_off_c, 9, 42, 95
5, 386880, Note_off_c, 9, 35, 95
5, 386880, Note_on_c, 9, 42, 95
5, 386880, Note_on_c, 9, 38, 95
5, 387360, Note_off_c, 9, 42, 95
5, 387360, Note_off_c, 9, 38, 95
5, 387360, Note_on_c, 9, 42, 95
5, 387600, Note_off_c, 9, 42, 95
5, 387600, Note_on_c, 9, 35, 95
5, 387840, Note_off_c, 9, 35, 95
5, 387840, Note_on_c, 9, 42, 95
5, 387840, Note_on_c, 9, 35, 95
5, 388320, Note_off_c, 9, 42, 95
5, 388320, Note_off_c, 9, 35, 95
5, 388320, Note_on_c, 9, 42, 95
5, 388800, Note_off_c, 9, 42, 95
5, 388800, Note_on_c, 9, 42, 95
5, 388800, Note_on_c, 9, 38, 95
5, 389040, Note_off_c, 9, 42, 95
5, 389040, Note_off_c, 9, 38, 95
5, 389040, Note_on_c, 9, 35, 95
5, 389280, Note_off_c, 9, 35, 95
5, 389280, Note_on_c, 9, 42, 95
5, 389520, Note_off_c, 9, 42, 95
5, 389520, Note_on_c, 9, 35, 95
5, 389760, Note_off_c, 9, 35, 95
5, 389760, Note_on_c, 9, 42, 95
5, 389760, Note_on_c, 9, 35, 95
5, 390240, Note_off_c, 9, 42, 95
5, 390240, Note_off_c, 9, 35, 95
5, 390240, Note_on_c, 9, 42, 95
5, 390480, Note_off_c, 9, 42, 95
5, 390480, Note_on_c, 9, 35, 95
5, 390720, Note_off_c, 9, 35, 95
5, 390720, Note_on_c, 9, 42, 95
5, 390720, Note_on_c, 9, 38, 95
5, 390960, Note_off_c, 9, 42, 95
5, 390960, Note_off_c, 9, 38, 95
5, 390960, Note_on_c, 9, 35, 95
5, 391200, Note_off_c, 9, 35, 95
5, 391200, Note_on_c, 9, 42, 95
5, 391440, Note_off_c, 9, 42, 95
5, 391440, Note_on_c, 9, 35, 95
5, 391680, Note_off_c, 9, 35, 95
5, 391680, Note_on_c, 9, 49, 95
5, 391680, Note_on_c, 9, 35, 95
5, 392160, Note_off_c, 9, 49, 95
5, 392160, Note_off_c, 9, 35, 95
5, 392160, Note_on_c, 9, 42, 95
5, 392400, Note_off_c, 9, 42, 95
5, 392400, Note_on_c, 9, 35, 95
5, 392640, Note_off_c, 9, 35, 95
5, 392640, Note_on_c, 9, 42, 95
5, 392640, Note_on_c, 9, 38, 95
5, 393120, Note_off_c, 9, 42, 95
5, 393120, Note_off_c, 9, 38, 95
5, 393120, Note_on_c, 9, 42, 95
5, 393360, Note_off_c, 9, 42, 95
5, 393360, Note_on_c, 9, 35, 95
5, 393600, Note_off_c, 9, 35, 95
5, 393600, Note_on_c, 9, 42, 95
5, 393600, Note_on_c, 9, 35, 95
5, 394080, Note_off_c, 9, 42, 95
5, 394080, Note_off_c, 9, 35, 95
5, 394080, Note_on_c, 9, 42, 95
5, 394080, Note_on_c, 9, 35, 95
5, 394560, Note_off_c, 9, 42, 95
5, 394560, Note_off_c, 9, 35, 95
5, 394560, Note_on_c, 9, 42, 95
5, 394560, Note_on_c, 9, 38, 95
5, 395040, Note_off_c, 9, 42, 95
5, 395040, Note_off_c, 9, 38, 95
5, 395040, Note_on_c, 9, 42, 95
5, 395280, Note_off_c, 9, 42, 95
5, 395280, Note_on_c, 9, 35, 95
5, 395520, Note_off_c, 9, 35, 95
5, 395520, Note_on_c, 9, 42, 95
5, 395520, Note_on_c, 9, 35, 95
5, 396000, Note_off_c, 9, 42, 95
5, 396000, Note_off_c, 9, 35, 95
5, 396000, Note_on_c, 9, 42, 95
5, 396480, Note_off_c, 9, 42, 95
5, 396480, Note_on_c, 9, 42, 95
5, 396480, Note_on_c, 9, 38, 95
5, 396720, Note_off_c, 9, 42, 95
5, 396720, Note_off_c, 9, 38, 95
5, 396720, Note_on_c, 9, 35, 95
5, 396960, Note_off_c, 9, 35, 95
5, 396960, Note_on_c, 9, 42, 95
5, 397200, Note_off_c, 9, 42, 95
5, 397200, Note_on_c, 9, 35, 95
5, 397440, Note_off_c, 9, 35, 95
5, 397440, Note_on_c, 9, 42, 95
5, 397440, Note_on_c, 9, 35, 95
5, 397920, Note_off_c, 9, 42, 95
5, 397920, Note_off_c, 9, 35, 95
5, 397920, Note_on_c, 9, 42, 95
5, 398160, Note_off_c, 9, 42, 95
5, 398160, Note_on_c, 9, 35, 95
5, 398400, Note_off_c, 9, 35, 95
5, 398400, Note_on_c, 9, 42, 95
5, 398400, Note_on_c, 9, 38, 95
5, 398640, Note_off_c, 9, 42, 95
5, 398640, Note_off_c, 9, 38, 95
5, 398640, Note_on_c, 9, 35, 95
5, 398880, Note_off_c, 9, 35, 95
5, 398880, Note_on_c, 9, 42, 95
5, 399120, Note_off_c, 9, 42, 95
5, 399120, Note_on_c, 9, 35, 95
5, 399360, Note_off_c, 9, 35, 95
5, 399360, Note_on_c, 9, 49, 95
5, 399360, Note_on_c, 9, 35, 95
5, 399840, Note_off_c, 9, 49, 95
5, 399840, Note_off_c, 9, 35, 95
5, 399840, Note_on_c, 9, 42, 95
5, 400080, Note_off_c, 9, 42, 95
5, 400080, Note_on_c, 9, 35, 95
5, 400320, Note_off_c, 9, 35, 95
5, 400320, Note_on_c, 9, 42, 95
5, 400320, Note_on_c, 9, 38, 95
5, 400800, Note_off_c, 9, 42, 95
5, 400800, Note_off_c, 9, 38, 95
5, 400800, Note_on_c, 9, 42, 95
5, 401040, Note_off_c, 9, 42, 95
5, 401040, Note_on_c, 9, 35, 95
5, 401280, Note_off_c, 9, 35, 95
5, 401280, Note_on_c, 9, 42, 95
5, 401280, Note_on_c, 9, 35, 95
5, 401760, Note_off_c, 9, 42, 95
5, 401760, Note_off_c, 9, 35, 95
5, 401760, Note_on_c, 9, 42, 95
5, 401760, Note_on_c, 9, 35, 95
5, 402240, Note_off_c, 9, 42, 95
5, 402240, Note_off_c, 9, 35, 95
5, 402240, Note_on_c, 9, 42, 95
5, 402240, Note_on_c, 9, 38, 95
5, 402720, Note_off_c, 9, 42, 95
5, 402720, Note_off_c, 9, 38, 95
5, 402720, Note_on_c, 9, 42, 95
5, 402960, Note_off_c, 9, 42, 95
5, 402960, Note_on_c, 9, 35, 95
5, 403200, Note_off_c, 9, 35, 95
5, 403200, Note_on_c, 9, 42, 95
5, 403200, Note_on_c, 9, 35, 95
5, 403680, Note_off_c, 9, 42, 95
5, 403680, Note_off_c, 9, 35, 95
5, 403680, Note_on_c, 9, 42, 95
5, 404160, Note_off_c, 9, 42, 95
5, 404160, Note_on_c, 9, 42, 95
5, 404160, Note_on_c, 9, 38, 95
5, 404400, Note_off_c, 9, 42, 95
5, 404400, Note_off_c, 9, 38, 95
5, 404400, Note_on_c, 9, 35, 95
5, 404640, Note_off_c, 9, 35, 95
5, 404640, Note_on_c, 9, 42, 95
5, 404880, Note_off_c, 9, 42, 95
5, 404880, Note_on_c, 9, 35, 95
5, 405120, Note_off_c, 9, 35, 95
5, 405120, Note_on_c, 9, 42, 95
5, 405120, Note_on_c, 9, 35, 95
5, 405600, Note_off_c, 9, 42, 95
5, 405600, Note_off_c, 9, 35, 95
5, 405600, Note_on_c, 9, 42, 95
5, 405840, Note_off_c, 9, 42, 95
5, 405840, Note_on_c, 9, 35, 95
5, 406080, Note_off_c, 9, 35, 95
5, 406080, Note_on_c, 9, 42, 95
5, 406080, Note_on_c, 9, 38, 95
5, 406320, Note_off_c, 9, 42, 95
5, 406320, Note_off_c, 9, 38, 95
5, 406320, Note_on_c, 9, 35, 95
5, 406560, Note_off_c, 9, 35, 95
5, 406560, Note_on_c, 9, 42, 95
5, 406800, Note_off_c, 9, 42, 95
5, 406800, Note_on_c, 9, 35, 95
5, 407040, Note_off_c, 9, 35, 95
5, 407040, Note_on_c, 9, 49, 95
5, 407040, Note_on_c, 9, 35, 95
5, 407520, Note_off_c, 9, 49, 95
5, 407520, Note_off_c, 9, 35, 95
5, 407520, Note_on_c, 9, 42, 95
5, 407760, Note_off_c, 9, 42, 95
5, 407760, Note_on_c, 9, 35, 95
5, 408000, Note_off_c, 9, 35, 95
5, 408000, Note_on_c, 9, 42, 95
5, 408000, Note_on_c, 9, 38, 95
5, 408480, Note_off_c, 9, 42, 95
5, 408480, Note_off_c, 9, 38, 95
5, 408480, Note_on_c, 9, 42, 95
5, 408720, Note_off_c, 9, 42, 95
5, 408720, Note_on_c, 9, 35, 95
5, 408960, Note_off_c, 9, 35, 95
5, 408960, Note_on_c, 9, 42, 95
5, 408960, Note_on_c, 9, 35, 95
5, 409440, Note_off_c, 9, 42, 95
5, 409440, Note_off_c, 9, 35, 95
5, 409440, Note_on_c, 9, 42, 95
5, 409440, Note_on_c, 9, 35, 95
5, 409920, Note_off_c, 9, 42, 95
5, 409920, Note_off_c, 9, 35, 95
5, 409920, Note_on_c, 9, 42, 95
5, 409920, Note_on_c, 9, 38, 95
5, 410400, Note_off_c, 9, 42, 95
5, 410400, Note_off_c, 9, 38, 95
5, 410400, Note_on_c, 9, 42, 95
5, 410640, Note_off_c, 9, 42, 95
5, 410640, Note_on_c, 9, 35, 95
5, 410880, Note_off_c, 9, 35, 95
5, 410880, Note_on_c, 9, 42, 95
5, 410880, Note_on_c, 9, 35, 95
5, 411360, Note_off_c, 9, 42, 95
5, 411360, Note_off_c, 9, 35, 95
5, 411360, Note_on_c, 9, 42, 95
5, 411840, Note_off_c, 9, 42, 95
5, 411840, Note_on_c, 9, 42, 95
5, 411840, Note_on_c, 9, 38, 95
5, 412080, Note_off_c, 9, 42, 95
5, 412080, Note_off_c, 9, 38, 95
5, 412080, Note_on_c, 9, 35, 95
5, 412320, Note_off_c, 9, 35, 95
5, 412320, Note_on_c, 9, 42, 95
5, 412560, Note_off_c, 9, 42, 95
5, 412560, Note_on_c, 9, 35, 95
5, 412800, Note_off_c, 9, 35, 95
5, 412800, Note_on_c, 9, 42, 95
5, 412800, Note_on_c, 9, 35, 95
5, 413280, Note_off_c, 9, 42, 95
5, 413280, Note_off_c, 9, 35, 95
5, 413280, Note_on_c, 9, 42, 95
5, 413520, Note_off_c, 9, 42, 95
5, 413520, Note_on_c, 9, 35, 95
5, 413760, Note_off_c, 9, 35, 95
5, 413760, Note_on_c, 9, 42, 95
5, 413760, Note_on_c, 9, 38, 95
5, 414000, Note_off_c, 9, 42, 95
5, 414000, Note_off_c, 9, 38, 95
5, 414000, Note_on_c, 9, 35, 95
5, 414240, Note_off_c, 9, 35, 95
5, 414240, Note_on_c, 9, 42, 95
5, 414480, Note_off_c, 9, 42, 95
5, 414480, Note_on_c, 9, 35, 95
5, 414720, Note_off_c, 9, 35, 95
5, 414720, Note_on_c, 9, 49, 95
5, 414720, Note_on_c, 9, 35, 95
5, 418560, Note_off_c, 9, 49, 95
5, 418560, Note_off_c, 9, 35, 95
5, 418560, End_track
0, 0, End_of_file
