0, 0, Header, 0, 1, 384
1, 0, Start_track
1, 0, Title_t, "© absdrakt ²°°²"
1, 0, Control_c, 0, 0, 0
1, 0, Program_c, 0, 35
1, 0, Control_c, 1, 0, 0
1, 0, Program_c, 1, 4
1, 0, Control_c, 1, 7, 47
1, 0, Control_c, 1, 10, 54
1, 0, Control_c, 1, 91, 67
1, 0, Control_c, 1, 93, 60
1, 0, Control_c, 2, 0, 0
1, 0, Program_c, 2, 67
1, 0, Control_c, 2, 7, 75
1, 0, Control_c, 2, 10, 74
1, 0, Control_c, 2, 91, 67
1, 0, Control_c, 2, 93, 15
1, 0, Control_c, 3, 0, 0
1, 0, Program_c, 3, 13
1, 0, Control_c, 4, 0, 0
1, 0, Program_c, 4, 90
1, 0, Control_c, 5, 0, 0
1, 0, Program_c, 5, 48
1, 0, Control_c, 6, 0, 0
1, 0, Program_c, 6, 9
1, 0, Time_signature, 4, 2, 96, 8
1, 0, Sequencer_specific, 3, 0, 0, 65
1, 0, Tempo, 408163
1, 0, Note_on_c, 0, 49, 110
1, 0, Note_on_c, 1, 68, 110
1, 0, Note_on_c, 1, 73, 110
1, 0, Note_on_c, 1, 76, 110
1, 0, Note_on_c, 9, 36, 125
1, 92, Note_off_c, 9, 36, 17
1, 192, Note_on_c, 9, 82, 110
1, 284, Note_off_c, 9, 82, 17
1, 384, Note_on_c, 9, 36, 125
1, 384, Note_on_c, 9, 82, 110
1, 476, Note_off_c, 9, 36, 17
1, 476, Note_off_c, 9, 82, 17
1, 576, Note_on_c, 9, 82, 110
1, 668, Note_off_c, 9, 82, 17
1, 768, Note_on_c, 2, 62, 127
1, 768, Note_on_c, 9, 82, 110
1, 860, Note_off_c, 9, 82, 17
1, 956, Note_off_c, 2, 62, 24
1, 960, Note_on_c, 2, 64, 127
1, 960, Note_on_c, 9, 36, 125
1, 960, Note_on_c, 9, 39, 110
1, 1004, Note_off_c, 0, 49, 17
1, 1052, Note_off_c, 9, 36, 17
1, 1052, Note_off_c, 9, 39, 17
1, 1148, Note_off_c, 2, 64, 24
1, 1152, Note_on_c, 0, 42, 110
1, 1152, Note_on_c, 2, 66, 127
1, 1316, Note_off_c, 0, 42, 17
1, 1340, Note_off_c, 2, 66, 24
1, 1344, Note_on_c, 0, 46, 110
1, 1344, Note_on_c, 2, 71, 127
1, 1344, Note_on_c, 9, 39, 110
1, 1436, Note_off_c, 1, 68, 17
1, 1436, Note_off_c, 1, 73, 17
1, 1436, Note_off_c, 1, 76, 17
1, 1436, Note_off_c, 9, 39, 17
1, 1508, Note_off_c, 0, 46, 17
1, 1532, Note_off_c, 2, 71, 24
1, 1536, Note_on_c, 0, 47, 110
1, 1536, Note_on_c, 1, 66, 110
1, 1536, Note_on_c, 1, 71, 110
1, 1536, Note_on_c, 1, 73, 110
1, 1536, Note_on_c, 2, 70, 127
1, 1536, Note_on_c, 9, 36, 125
1, 1628, Note_off_c, 9, 36, 17
1, 1724, Note_off_c, 2, 70, 24
1, 1728, Note_on_c, 2, 71, 127
1, 1728, Note_on_c, 9, 82, 110
1, 1820, Note_off_c, 9, 82, 17
1, 1916, Note_off_c, 2, 71, 24
1, 1920, Note_on_c, 2, 73, 127
1, 1920, Note_on_c, 9, 82, 110
1, 2012, Note_off_c, 9, 82, 17
1, 2108, Note_off_c, 2, 73, 24
1, 2112, Note_on_c, 2, 74, 127
1, 2112, Note_on_c, 9, 36, 125
1, 2112, Note_on_c, 9, 82, 110
1, 2204, Note_off_c, 9, 36, 17
1, 2204, Note_off_c, 9, 82, 17
1, 2300, Note_off_c, 2, 74, 24
1, 2304, Note_on_c, 2, 76, 127
1, 2304, Note_on_c, 9, 40, 110
1, 2304, Note_on_c, 9, 82, 110
1, 2396, Note_off_c, 9, 40, 17
1, 2396, Note_off_c, 9, 82, 17
1, 2492, Note_off_c, 2, 76, 24
1, 2496, Note_on_c, 2, 79, 127
1, 2496, Note_on_c, 9, 36, 125
1, 2496, Note_on_c, 9, 39, 110
1, 2496, Note_on_c, 9, 82, 110
1, 2588, Note_off_c, 9, 36, 17
1, 2588, Note_off_c, 9, 39, 17
1, 2588, Note_off_c, 9, 82, 17
1, 2612, Note_off_c, 1, 66, 17
1, 2612, Note_off_c, 1, 71, 17
1, 2612, Note_off_c, 1, 73, 17
1, 2684, Note_off_c, 2, 79, 24
1, 2688, Note_on_c, 1, 66, 110
1, 2688, Note_on_c, 1, 71, 110
1, 2688, Note_on_c, 1, 73, 110
1, 2688, Note_on_c, 2, 82, 127
1, 2876, Note_off_c, 0, 47, 17
1, 2876, Note_off_c, 2, 82, 24
1, 2880, Note_on_c, 2, 83, 127
1, 2880, Note_on_c, 9, 39, 110
1, 2972, Note_off_c, 9, 39, 17
1, 3036, Note_off_c, 2, 83, 24
1, 3044, Note_off_c, 1, 66, 17
1, 3044, Note_off_c, 1, 71, 17
1, 3044, Note_off_c, 1, 73, 17
1, 3072, Note_on_c, 0, 47, 110
1, 3072, Note_on_c, 1, 66, 110
1, 3072, Note_on_c, 1, 71, 110
1, 3072, Note_on_c, 1, 74, 110
1, 3072, Note_on_c, 9, 36, 125
1, 3164, Note_off_c, 9, 36, 17
1, 3264, Note_on_c, 9, 82, 110
1, 3356, Note_off_c, 9, 82, 17
1, 3456, Note_on_c, 9, 82, 110
1, 3548, Note_off_c, 9, 82, 17
1, 3648, Note_on_c, 9, 36, 125
1, 3648, Note_on_c, 9, 82, 110
1, 3740, Note_off_c, 9, 36, 17
1, 3740, Note_off_c, 9, 82, 17
1, 3840, Note_on_c, 9, 40, 110
1, 3840, Note_on_c, 9, 82, 110
1, 3932, Note_off_c, 9, 40, 17
1, 3932, Note_off_c, 9, 82, 17
1, 4032, Note_on_c, 2, 59, 127
1, 4032, Note_on_c, 9, 36, 125
1, 4032, Note_on_c, 9, 39, 90
1, 4076, Note_off_c, 0, 47, 17
1, 4124, Note_off_c, 9, 36, 17
1, 4124, Note_off_c, 9, 39, 17
1, 4148, Note_off_c, 1, 66, 17
1, 4148, Note_off_c, 1, 71, 17
1, 4148, Note_off_c, 1, 74, 17
1, 4220, Note_off_c, 2, 59, 24
1, 4224, Note_on_c, 0, 47, 110
1, 4224, Note_on_c, 1, 66, 110
1, 4224, Note_on_c, 1, 71, 110
1, 4224, Note_on_c, 1, 74, 110
1, 4224, Note_on_c, 2, 62, 127
1, 4224, Note_on_c, 9, 82, 110
1, 4316, Note_off_c, 2, 62, 24
1, 4316, Note_off_c, 9, 82, 17
1, 4416, Note_on_c, 2, 59, 127
1, 4416, Note_on_c, 9, 39, 110
1, 4508, Note_off_c, 9, 39, 17
1, 4556, Note_off_c, 0, 47, 17
1, 4580, Note_off_c, 1, 66, 17
1, 4580, Note_off_c, 1, 71, 17
1, 4580, Note_off_c, 1, 74, 17
1, 4604, Note_off_c, 2, 59, 24
1, 4608, Note_on_c, 0, 47, 110
1, 4608, Note_on_c, 1, 66, 110
1, 4608, Note_on_c, 1, 71, 110
1, 4608, Note_on_c, 1, 74, 110
1, 4608, Note_on_c, 2, 62, 127
1, 4608, Note_on_c, 9, 36, 125
1, 4700, Note_off_c, 2, 62, 24
1, 4700, Note_off_c, 9, 36, 17
1, 4800, Note_on_c, 9, 82, 110
1, 4892, Note_off_c, 9, 82, 17
1, 4992, Note_on_c, 9, 82, 110
1, 5084, Note_off_c, 9, 82, 17
1, 5184, Note_on_c, 9, 36, 125
1, 5184, Note_on_c, 9, 82, 110
1, 5276, Note_off_c, 9, 36, 17
1, 5276, Note_off_c, 9, 82, 17
1, 5376, Note_on_c, 9, 40, 110
1, 5376, Note_on_c, 9, 82, 110
1, 5444, Note_off_c, 0, 47, 17
1, 5468, Note_off_c, 9, 40, 17
1, 5468, Note_off_c, 9, 82, 17
1, 5568, Note_on_c, 0, 47, 110
1, 5568, Note_on_c, 2, 59, 127
1, 5568, Note_on_c, 9, 36, 125
1, 5568, Note_on_c, 9, 39, 90
1, 5568, Note_on_c, 9, 82, 110
1, 5660, Note_off_c, 9, 36, 17
1, 5660, Note_off_c, 9, 39, 17
1, 5660, Note_off_c, 9, 82, 17
1, 5684, Note_off_c, 1, 66, 17
1, 5684, Note_off_c, 1, 71, 17
1, 5684, Note_off_c, 1, 74, 17
1, 5732, Note_off_c, 0, 47, 17
1, 5756, Note_off_c, 2, 59, 24
1, 5760, Note_on_c, 0, 49, 110
1, 5760, Note_on_c, 1, 68, 110
1, 5760, Note_on_c, 1, 73, 110
1, 5760, Note_on_c, 1, 76, 110
1, 5760, Note_on_c, 2, 62, 127
1, 5852, Note_off_c, 2, 62, 24
1, 5924, Note_off_c, 0, 49, 17
1, 5952, Note_on_c, 0, 47, 110
1, 5952, Note_on_c, 2, 59, 127
1, 5952, Note_on_c, 9, 39, 110
1, 5952, Note_on_c, 9, 82, 110
1, 6044, Note_off_c, 9, 39, 17
1, 6044, Note_off_c, 9, 82, 17
1, 6116, Note_off_c, 0, 47, 17
1, 6116, Note_off_c, 1, 68, 17
1, 6116, Note_off_c, 1, 73, 17
1, 6116, Note_off_c, 1, 76, 17
1, 6140, Note_off_c, 2, 59, 24
1, 6144, Note_on_c, 0, 49, 110
1, 6144, Note_on_c, 1, 68, 110
1, 6144, Note_on_c, 1, 73, 110
1, 6144, Note_on_c, 1, 76, 110
1, 6144, Note_on_c, 9, 36, 125
1, 6236, Note_off_c, 9, 36, 17
1, 6336, Note_on_c, 9, 82, 110
1, 6428, Note_off_c, 9, 82, 17
1, 6528, Note_on_c, 9, 36, 125
1, 6528, Note_on_c, 9, 82, 110
1, 6620, Note_off_c, 9, 36, 17
1, 6620, Note_off_c, 9, 82, 17
1, 6720, Note_on_c, 9, 82, 110
1, 6812, Note_off_c, 9, 82, 17
1, 6912, Note_on_c, 2, 62, 127
1, 6912, Note_on_c, 9, 40, 110
1, 6912, Note_on_c, 9, 82, 110
1, 7004, Note_off_c, 9, 40, 17
1, 7004, Note_off_c, 9, 82, 17
1, 7100, Note_off_c, 2, 62, 24
1, 7104, Note_on_c, 2, 64, 127
1, 7104, Note_on_c, 9, 36, 125
1, 7104, Note_on_c, 9, 39, 110
1, 7148, Note_off_c, 0, 49, 17
1, 7196, Note_off_c, 9, 36, 17
1, 7196, Note_off_c, 9, 39, 17
1, 7292, Note_off_c, 2, 64, 24
1, 7296, Note_on_c, 0, 42, 110
1, 7296, Note_on_c, 2, 66, 127
1, 7460, Note_off_c, 0, 42, 17
1, 7484, Note_off_c, 2, 66, 24
1, 7488, Note_on_c, 0, 46, 110
1, 7488, Note_on_c, 2, 71, 127
1, 7488, Note_on_c, 9, 39, 110
1, 7580, Note_off_c, 1, 68, 17
1, 7580, Note_off_c, 1, 73, 17
1, 7580, Note_off_c, 1, 76, 17
1, 7580, Note_off_c, 9, 39, 17
1, 7652, Note_off_c, 0, 46, 17
1, 7676, Note_off_c, 2, 71, 24
1, 7680, Note_on_c, 0, 47, 110
1, 7680, Note_on_c, 1, 66, 110
1, 7680, Note_on_c, 1, 71, 110
1, 7680, Note_on_c, 1, 73, 110
1, 7680, Note_on_c, 2, 70, 127
1, 7680, Note_on_c, 9, 36, 125
1, 7772, Note_off_c, 9, 36, 17
1, 7868, Note_off_c, 2, 70, 24
1, 7872, Note_on_c, 2, 71, 127
1, 7872, Note_on_c, 9, 82, 110
1, 7964, Note_off_c, 9, 82, 17
1, 8060, Note_off_c, 2, 71, 24
1, 8064, Note_on_c, 2, 73, 127
1, 8064, Note_on_c, 9, 82, 110
1, 8156, Note_off_c, 9, 82, 17
1, 8252, Note_off_c, 2, 73, 24
1, 8256, Note_on_c, 2, 74, 127
1, 8256, Note_on_c, 9, 36, 125
1, 8256, Note_on_c, 9, 82, 110
1, 8348, Note_off_c, 9, 36, 17
1, 8348, Note_off_c, 9, 82, 17
1, 8444, Note_off_c, 2, 74, 24
1, 8448, Note_on_c, 2, 76, 127
1, 8448, Note_on_c, 9, 40, 110
1, 8448, Note_on_c, 9, 82, 110
1, 8540, Note_off_c, 9, 40, 17
1, 8540, Note_off_c, 9, 82, 17
1, 8636, Note_off_c, 2, 76, 24
1, 8640, Note_on_c, 2, 79, 127
1, 8640, Note_on_c, 9, 36, 125
1, 8640, Note_on_c, 9, 39, 110
1, 8640, Note_on_c, 9, 82, 110
1, 8732, Note_off_c, 9, 36, 17
1, 8732, Note_off_c, 9, 39, 17
1, 8732, Note_off_c, 9, 82, 17
1, 8756, Note_off_c, 1, 66, 17
1, 8756, Note_off_c, 1, 71, 17
1, 8756, Note_off_c, 1, 73, 17
1, 8828, Note_off_c, 2, 79, 24
1, 8832, Note_on_c, 1, 66, 110
1, 8832, Note_on_c, 1, 71, 110
1, 8832, Note_on_c, 1, 73, 110
1, 8832, Note_on_c, 2, 82, 127
1, 9020, Note_off_c, 0, 47, 17
1, 9020, Note_off_c, 2, 82, 24
1, 9024, Note_on_c, 2, 83, 127
1, 9024, Note_on_c, 9, 39, 110
1, 9116, Note_off_c, 9, 39, 17
1, 9180, Note_off_c, 2, 83, 24
1, 9188, Note_off_c, 1, 66, 17
1, 9188, Note_off_c, 1, 71, 17
1, 9188, Note_off_c, 1, 73, 17
1, 9216, Note_on_c, 0, 47, 110
1, 9216, Note_on_c, 1, 66, 110
1, 9216, Note_on_c, 1, 71, 110
1, 9216, Note_on_c, 1, 74, 110
1, 9216, Note_on_c, 9, 36, 125
1, 9308, Note_off_c, 9, 36, 17
1, 9408, Note_on_c, 9, 82, 110
1, 9500, Note_off_c, 9, 82, 17
1, 9600, Note_on_c, 2, 59, 127
1, 9600, Note_on_c, 9, 82, 110
1, 9692, Note_off_c, 9, 82, 17
1, 9788, Note_off_c, 2, 59, 24
1, 9792, Note_on_c, 2, 61, 127
1, 9792, Note_on_c, 9, 36, 125
1, 9792, Note_on_c, 9, 82, 110
1, 9884, Note_off_c, 2, 61, 24
1, 9884, Note_off_c, 9, 36, 17
1, 9884, Note_off_c, 9, 82, 17
1, 9984, Note_on_c, 9, 40, 110
1, 9984, Note_on_c, 9, 82, 110
1, 10076, Note_off_c, 9, 40, 17
1, 10076, Note_off_c, 9, 82, 17
1, 10176, Note_on_c, 9, 36, 125
1, 10176, Note_on_c, 9, 39, 90
1, 10220, Note_off_c, 0, 47, 17
1, 10268, Note_off_c, 9, 36, 17
1, 10268, Note_off_c, 9, 39, 17
1, 10292, Note_off_c, 1, 66, 17
1, 10292, Note_off_c, 1, 71, 17
1, 10292, Note_off_c, 1, 74, 17
1, 10368, Note_on_c, 0, 47, 110
1, 10368, Note_on_c, 1, 66, 110
1, 10368, Note_on_c, 1, 71, 110
1, 10368, Note_on_c, 1, 74, 110
1, 10368, Note_on_c, 2, 59, 127
1, 10368, Note_on_c, 9, 82, 110
1, 10460, Note_off_c, 9, 82, 17
1, 10556, Note_off_c, 2, 59, 24
1, 10560, Note_on_c, 9, 39, 110
1, 10652, Note_off_c, 9, 39, 17
1, 10700, Note_off_c, 0, 47, 17
1, 10724, Note_off_c, 1, 66, 17
1, 10724, Note_off_c, 1, 71, 17
1, 10724, Note_off_c, 1, 74, 17
1, 10752, Note_on_c, 0, 47, 110
1, 10752, Note_on_c, 1, 66, 110
1, 10752, Note_on_c, 1, 71, 110
1, 10752, Note_on_c, 1, 74, 110
1, 10752, Note_on_c, 9, 36, 125
1, 10844, Note_off_c, 9, 36, 17
1, 10944, Note_on_c, 9, 82, 110
1, 11036, Note_off_c, 9, 82, 17
1, 11136, Note_on_c, 2, 59, 127
1, 11136, Note_on_c, 9, 82, 110
1, 11228, Note_off_c, 9, 82, 17
1, 11252, Note_off_c, 0, 47, 17
1, 11324, Note_off_c, 2, 59, 24
1, 11328, Note_on_c, 0, 47, 110
1, 11328, Note_on_c, 2, 61, 127
1, 11328, Note_on_c, 9, 36, 125
1, 11328, Note_on_c, 9, 82, 110
1, 11420, Note_off_c, 2, 61, 24
1, 11420, Note_off_c, 9, 36, 17
1, 11420, Note_off_c, 9, 82, 17
1, 11468, Note_off_c, 1, 66, 17
1, 11468, Note_off_c, 1, 71, 17
1, 11468, Note_off_c, 1, 74, 17
1, 11520, Note_on_c, 1, 66, 110
1, 11520, Note_on_c, 1, 71, 110
1, 11520, Note_on_c, 1, 74, 110
1, 11520, Note_on_c, 9, 40, 110
1, 11520, Note_on_c, 9, 82, 110
1, 11612, Note_off_c, 9, 40, 17
1, 11612, Note_off_c, 9, 82, 17
1, 11712, Note_on_c, 9, 36, 125
1, 11712, Note_on_c, 9, 39, 90
1, 11712, Note_on_c, 9, 82, 110
1, 11804, Note_off_c, 9, 36, 17
1, 11804, Note_off_c, 9, 39, 17
1, 11804, Note_off_c, 9, 82, 17
1, 11828, Note_off_c, 0, 47, 17
1, 11904, Note_on_c, 0, 47, 110
1, 11904, Note_on_c, 2, 59, 127
1, 12068, Note_off_c, 0, 47, 17
1, 12092, Note_off_c, 2, 59, 24
1, 12096, Note_on_c, 0, 49, 110
1, 12096, Note_on_c, 9, 39, 110
1, 12096, Note_on_c, 9, 82, 110
1, 12188, Note_off_c, 9, 39, 17
1, 12188, Note_off_c, 9, 82, 17
1, 12236, Note_off_c, 1, 66, 17
1, 12236, Note_off_c, 1, 71, 17
1, 12236, Note_off_c, 1, 74, 17
1, 12260, Note_off_c, 0, 49, 17
1, 12288, Note_on_c, 0, 49, 110
1, 12288, Note_on_c, 1, 68, 110
1, 12288, Note_on_c, 1, 73, 110
1, 12288, Note_on_c, 1, 76, 110
1, 13056, Note_on_c, 2, 62, 127
1, 13244, Note_off_c, 2, 62, 24
1, 13248, Note_on_c, 2, 64, 127
1, 13292, Note_off_c, 0, 49, 17
1, 13436, Note_off_c, 2, 64, 24
1, 13440, Note_on_c, 0, 42, 110
1, 13440, Note_on_c, 2, 66, 127
1, 13604, Note_off_c, 0, 42, 17
1, 13628, Note_off_c, 2, 66, 24
1, 13632, Note_on_c, 0, 46, 110
1, 13632, Note_on_c, 2, 71, 127
1, 13724, Note_off_c, 1, 68, 17
1, 13724, Note_off_c, 1, 73, 17
1, 13724, Note_off_c, 1, 76, 17
1, 13796, Note_off_c, 0, 46, 17
1, 13820, Note_off_c, 2, 71, 24
1, 13824, Note_on_c, 0, 47, 110
1, 13824, Note_on_c, 1, 66, 110
1, 13824, Note_on_c, 1, 71, 110
1, 13824, Note_on_c, 1, 73, 110
1, 13824, Note_on_c, 2, 70, 127
1, 14012, Note_off_c, 2, 70, 24
1, 14016, Note_on_c, 2, 71, 127
1, 14204, Note_off_c, 2, 71, 24
1, 14208, Note_on_c, 2, 73, 127
1, 14396, Note_off_c, 2, 73, 24
1, 14400, Note_on_c, 2, 74, 127
1, 14588, Note_off_c, 2, 74, 24
1, 14592, Note_on_c, 2, 76, 127
1, 14780, Note_off_c, 2, 76, 24
1, 14784, Note_on_c, 2, 79, 127
1, 14900, Note_off_c, 1, 66, 17
1, 14900, Note_off_c, 1, 71, 17
1, 14900, Note_off_c, 1, 73, 17
1, 14972, Note_off_c, 2, 79, 24
1, 14976, Note_on_c, 1, 66, 110
1, 14976, Note_on_c, 1, 71, 110
1, 14976, Note_on_c, 1, 73, 110
1, 14976, Note_on_c, 2, 82, 127
1, 15164, Note_off_c, 0, 47, 17
1, 15164, Note_off_c, 2, 82, 24
1, 15168, Note_on_c, 2, 83, 127
1, 15324, Note_off_c, 2, 83, 24
1, 15332, Note_off_c, 1, 66, 17
1, 15332, Note_off_c, 1, 71, 17
1, 15332, Note_off_c, 1, 73, 17
1, 15360, Note_on_c, 0, 47, 110
1, 15360, Note_on_c, 1, 66, 110
1, 15360, Note_on_c, 1, 71, 110
1, 15360, Note_on_c, 1, 74, 110
1, 15360, Note_on_c, 9, 36, 125
1, 15452, Note_off_c, 9, 36, 17
1, 15552, Note_on_c, 9, 82, 110
1, 15644, Note_off_c, 9, 82, 17
1, 15744, Note_on_c, 2, 59, 127
1, 15744, Note_on_c, 9, 82, 110
1, 15836, Note_off_c, 2, 59, 24
1, 15836, Note_off_c, 9, 82, 17
1, 15936, Note_on_c, 9, 36, 125
1, 15936, Note_on_c, 9, 82, 110
1, 16028, Note_off_c, 9, 36, 17
1, 16028, Note_off_c, 9, 82, 17
1, 16128, Note_on_c, 2, 59, 127
1, 16128, Note_on_c, 9, 40, 110
1, 16128, Note_on_c, 9, 82, 110
1, 16220, Note_off_c, 9, 40, 17
1, 16220, Note_off_c, 9, 82, 17
1, 16316, Note_off_c, 2, 59, 24
1, 16320, Note_on_c, 2, 61, 127
1, 16320, Note_on_c, 9, 36, 125
1, 16320, Note_on_c, 9, 39, 90
1, 16364, Note_off_c, 0, 47, 17
1, 16412, Note_off_c, 2, 61, 24
1, 16412, Note_off_c, 9, 36, 17
1, 16412, Note_off_c, 9, 39, 17
1, 16436, Note_off_c, 1, 66, 17
1, 16436, Note_off_c, 1, 71, 17
1, 16436, Note_off_c, 1, 74, 17
1, 16512, Note_on_c, 0, 47, 110
1, 16512, Note_on_c, 1, 66, 110
1, 16512, Note_on_c, 1, 71, 110
1, 16512, Note_on_c, 1, 74, 110
1, 16512, Note_on_c, 2, 59, 127
1, 16512, Note_on_c, 9, 82, 110
1, 16604, Note_off_c, 9, 82, 17
1, 16700, Note_off_c, 2, 59, 24
1, 16704, Note_on_c, 2, 61, 127
1, 16704, Note_on_c, 9, 39, 110
1, 16796, Note_off_c, 2, 61, 24
1, 16796, Note_off_c, 9, 39, 17
1, 16844, Note_off_c, 0, 47, 17
1, 16868, Note_off_c, 1, 66, 17
1, 16868, Note_off_c, 1, 71, 17
1, 16868, Note_off_c, 1, 74, 17
1, 16896, Note_on_c, 0, 47, 110
1, 16896, Note_on_c, 1, 66, 110
1, 16896, Note_on_c, 1, 71, 110
1, 16896, Note_on_c, 1, 74, 110
1, 16896, Note_on_c, 9, 36, 125
1, 16988, Note_off_c, 9, 36, 17
1, 17088, Note_on_c, 9, 82, 110
1, 17180, Note_off_c, 9, 82, 17
1, 17280, Note_on_c, 2, 59, 127
1, 17280, Note_on_c, 9, 82, 110
1, 17372, Note_off_c, 2, 59, 24
1, 17372, Note_off_c, 9, 82, 17
1, 17472, Note_on_c, 9, 36, 125
1, 17472, Note_on_c, 9, 82, 110
1, 17564, Note_off_c, 9, 36, 17
1, 17564, Note_off_c, 9, 82, 17
1, 17664, Note_on_c, 2, 59, 127
1, 17664, Note_on_c, 9, 40, 110
1, 17664, Note_on_c, 9, 82, 110
1, 17732, Note_off_c, 0, 47, 17
1, 17756, Note_off_c, 9, 40, 17
1, 17756, Note_off_c, 9, 82, 17
1, 17852, Note_off_c, 2, 59, 24
1, 17856, Note_on_c, 0, 47, 110
1, 17856, Note_on_c, 2, 61, 127
1, 17856, Note_on_c, 9, 36, 125
1, 17856, Note_on_c, 9, 39, 90
1, 17856, Note_on_c, 9, 82, 110
1, 17948, Note_off_c, 2, 61, 24
1, 17948, Note_off_c, 9, 36, 17
1, 17948, Note_off_c, 9, 39, 17
1, 17948, Note_off_c, 9, 82, 17
1, 17972, Note_off_c, 1, 66, 17
1, 17972, Note_off_c, 1, 71, 17
1, 17972, Note_off_c, 1, 74, 17
1, 18020, Note_off_c, 0, 47, 17
1, 18048, Note_on_c, 0, 49, 110
1, 18048, Note_on_c, 1, 68, 110
1, 18048, Note_on_c, 1, 73, 110
1, 18048, Note_on_c, 1, 76, 110
1, 18048, Note_on_c, 2, 59, 127
1, 18212, Note_off_c, 0, 49, 17
1, 18236, Note_off_c, 2, 59, 24
1, 18240, Note_on_c, 0, 47, 110
1, 18240, Note_on_c, 2, 61, 127
1, 18240, Note_on_c, 9, 39, 110
1, 18240, Note_on_c, 9, 82, 110
1, 18332, Note_off_c, 2, 61, 24
1, 18332, Note_off_c, 9, 39, 17
1, 18332, Note_off_c, 9, 82, 17
1, 18404, Note_off_c, 0, 47, 17
1, 18404, Note_off_c, 1, 68, 17
1, 18404, Note_off_c, 1, 73, 17
1, 18404, Note_off_c, 1, 76, 17
1, 18432, Note_on_c, 0, 49, 110
1, 18432, Note_on_c, 1, 68, 110
1, 18432, Note_on_c, 1, 73, 110
1, 18432, Note_on_c, 1, 76, 110
1, 18432, Note_on_c, 9, 36, 125
1, 18524, Note_off_c, 9, 36, 17
1, 18624, Note_on_c, 9, 82, 110
1, 18716, Note_off_c, 9, 82, 17
1, 18816, Note_on_c, 9, 82, 110
1, 18908, Note_off_c, 9, 82, 17
1, 19008, Note_on_c, 9, 82, 110
1, 19100, Note_off_c, 9, 82, 17
1, 19200, Note_on_c, 2, 62, 127
1, 19200, Note_on_c, 9, 40, 110
1, 19200, Note_on_c, 9, 82, 110
1, 19292, Note_off_c, 9, 40, 17
1, 19292, Note_off_c, 9, 82, 17
1, 19388, Note_off_c, 2, 62, 24
1, 19392, Note_on_c, 2, 64, 127
1, 19392, Note_on_c, 9, 36, 125
1, 19392, Note_on_c, 9, 39, 110
1, 19436, Note_off_c, 0, 49, 17
1, 19484, Note_off_c, 9, 36, 17
1, 19484, Note_off_c, 9, 39, 17
1, 19580, Note_off_c, 2, 64, 24
1, 19584, Note_on_c, 0, 42, 110
1, 19584, Note_on_c, 2, 66, 127
1, 19748, Note_off_c, 0, 42, 17
1, 19772, Note_off_c, 2, 66, 24
1, 19776, Note_on_c, 0, 46, 110
1, 19776, Note_on_c, 2, 71, 127
1, 19776, Note_on_c, 9, 39, 110
1, 19868, Note_off_c, 1, 68, 17
1, 19868, Note_off_c, 1, 73, 17
1, 19868, Note_off_c, 1, 76, 17
1, 19868, Note_off_c, 9, 39, 17
1, 19940, Note_off_c, 0, 46, 17
1, 19964, Note_off_c, 2, 71, 24
1, 19968, Note_on_c, 0, 47, 110
1, 19968, Note_on_c, 1, 66, 110
1, 19968, Note_on_c, 1, 71, 110
1, 19968, Note_on_c, 1, 73, 110
1, 19968, Note_on_c, 2, 70, 127
1, 19968, Note_on_c, 9, 36, 125
1, 20060, Note_off_c, 9, 36, 17
1, 20156, Note_off_c, 2, 70, 24
1, 20160, Note_on_c, 2, 71, 127
1, 20160, Note_on_c, 9, 36, 125
1, 20160, Note_on_c, 9, 82, 110
1, 20252, Note_off_c, 9, 36, 17
1, 20252, Note_off_c, 9, 82, 17
1, 20348, Note_off_c, 2, 71, 24
1, 20352, Note_on_c, 2, 73, 127
1, 20352, Note_on_c, 9, 36, 125
1, 20352, Note_on_c, 9, 82, 110
1, 20444, Note_off_c, 9, 36, 17
1, 20444, Note_off_c, 9, 82, 17
1, 20540, Note_off_c, 2, 73, 24
1, 20544, Note_on_c, 2, 74, 127
1, 20544, Note_on_c, 9, 82, 110
1, 20636, Note_off_c, 9, 82, 17
1, 20732, Note_off_c, 2, 74, 24
1, 20736, Note_on_c, 2, 76, 127
1, 20736, Note_on_c, 9, 40, 110
1, 20736, Note_on_c, 9, 82, 110
1, 20828, Note_off_c, 9, 40, 17
1, 20828, Note_off_c, 9, 82, 17
1, 20924, Note_off_c, 2, 76, 24
1, 20928, Note_on_c, 2, 79, 127
1, 20928, Note_on_c, 9, 36, 125
1, 20928, Note_on_c, 9, 39, 110
1, 20928, Note_on_c, 9, 82, 110
1, 21020, Note_off_c, 9, 36, 17
1, 21020, Note_off_c, 9, 39, 17
1, 21020, Note_off_c, 9, 82, 17
1, 21044, Note_off_c, 1, 66, 17
1, 21044, Note_off_c, 1, 71, 17
1, 21044, Note_off_c, 1, 73, 17
1, 21116, Note_off_c, 2, 79, 24
1, 21120, Note_on_c, 1, 66, 110
1, 21120, Note_on_c, 1, 71, 110
1, 21120, Note_on_c, 1, 73, 110
1, 21120, Note_on_c, 2, 82, 127
1, 21308, Note_off_c, 0, 47, 17
1, 21308, Note_off_c, 2, 82, 24
1, 21312, Note_on_c, 2, 83, 127
1, 21312, Note_on_c, 9, 39, 110
1, 21404, Note_off_c, 9, 39, 17
1, 21468, Note_off_c, 2, 83, 24
1, 21476, Note_off_c, 1, 66, 17
1, 21476, Note_off_c, 1, 71, 17
1, 21476, Note_off_c, 1, 73, 17
1, 21504, Note_on_c, 0, 47, 110
1, 21504, Note_on_c, 1, 66, 110
1, 21504, Note_on_c, 1, 71, 110
1, 21504, Note_on_c, 1, 74, 110
1, 21696, Note_on_c, 9, 82, 110
1, 21788, Note_off_c, 9, 82, 17
1, 21860, Note_off_c, 1, 66, 17
1, 21860, Note_off_c, 1, 71, 17
1, 21860, Note_off_c, 1, 74, 17
1, 21888, Note_on_c, 2, 59, 127
1, 21888, Note_on_c, 9, 82, 110
1, 21980, Note_off_c, 9, 82, 17
1, 22076, Note_off_c, 2, 59, 24
1, 22080, Note_on_c, 2, 61, 127
1, 22080, Note_on_c, 9, 82, 110
1, 22172, Note_off_c, 2, 61, 24
1, 22172, Note_off_c, 9, 82, 17
1, 22272, Note_on_c, 1, 66, 110
1, 22272, Note_on_c, 1, 71, 110
1, 22272, Note_on_c, 1, 74, 110
1, 22272, Note_on_c, 9, 82, 110
1, 22364, Note_off_c, 9, 82, 17
1, 22508, Note_off_c, 0, 47, 17
1, 22628, Note_off_c, 1, 66, 17
1, 22628, Note_off_c, 1, 71, 17
1, 22628, Note_off_c, 1, 74, 17
1, 22656, Note_on_c, 0, 47, 110
1, 22656, Note_on_c, 2, 59, 127
1, 22656, Note_on_c, 9, 82, 110
1, 22748, Note_off_c, 9, 82, 17
1, 22844, Note_off_c, 2, 59, 24
1, 22848, Note_on_c, 2, 61, 127
1, 22940, Note_off_c, 2, 61, 24
1, 22988, Note_off_c, 0, 47, 17
1, 23040, Note_on_c, 0, 47, 110
1, 23040, Note_on_c, 2, 59, 127
1, 23228, Note_off_c, 2, 59, 24
1, 23232, Note_on_c, 2, 61, 127
1, 23232, Note_on_c, 9, 82, 110
1, 23324, Note_off_c, 2, 61, 24
1, 23324, Note_off_c, 9, 82, 17
1, 23424, Note_on_c, 1, 66, 110
1, 23424, Note_on_c, 1, 71, 110
1, 23424, Note_on_c, 1, 74, 110
1, 23424, Note_on_c, 9, 82, 110
1, 23516, Note_off_c, 9, 82, 17
1, 23540, Note_off_c, 0, 47, 17
1, 23616, Note_on_c, 0, 47, 110
1, 23616, Note_on_c, 9, 82, 110
1, 23688, Note_off_c, 1, 66, 17
1, 23688, Note_off_c, 1, 71, 17
1, 23688, Note_off_c, 1, 74, 17
1, 23708, Note_off_c, 9, 82, 17
1, 23808, Note_on_c, 1, 66, 110
1, 23808, Note_on_c, 1, 71, 110
1, 23808, Note_on_c, 1, 74, 110
1, 23808, Note_on_c, 9, 82, 110
1, 23900, Note_off_c, 9, 82, 17
1, 24000, Note_on_c, 9, 82, 110
1, 24072, Note_off_c, 1, 66, 17
1, 24072, Note_off_c, 1, 71, 17
1, 24072, Note_off_c, 1, 74, 17
1, 24092, Note_off_c, 9, 82, 17
1, 24116, Note_off_c, 0, 47, 17
1, 24192, Note_on_c, 0, 47, 110
1, 24192, Note_on_c, 1, 66, 110
1, 24192, Note_on_c, 1, 71, 110
1, 24192, Note_on_c, 1, 74, 110
1, 24356, Note_off_c, 0, 47, 17
1, 24384, Note_on_c, 0, 49, 110
1, 24384, Note_on_c, 9, 82, 110
1, 24456, Note_off_c, 1, 66, 17
1, 24456, Note_off_c, 1, 71, 17
1, 24456, Note_off_c, 1, 74, 17
1, 24476, Note_off_c, 9, 82, 17
1, 24548, Note_off_c, 0, 49, 17
1, 24576, Note_on_c, 0, 49, 110
1, 24576, Note_on_c, 1, 68, 110
1, 24576, Note_on_c, 1, 73, 110
1, 24576, Note_on_c, 1, 76, 110
1, 24576, Note_on_c, 9, 36, 125
1, 24576, Note_on_c, 9, 42, 110
1, 24668, Note_off_c, 9, 36, 17
1, 24668, Note_off_c, 9, 42, 17
1, 24768, Note_on_c, 9, 82, 110
1, 24860, Note_off_c, 9, 82, 17
1, 24960, Note_on_c, 9, 36, 125
1, 24960, Note_on_c, 9, 42, 110
1, 24960, Note_on_c, 9, 82, 110
1, 25052, Note_off_c, 9, 36, 17
1, 25052, Note_off_c, 9, 42, 17
1, 25052, Note_off_c, 9, 82, 17
1, 25152, Note_on_c, 9, 82, 110
1, 25244, Note_off_c, 9, 82, 17
1, 25344, Note_on_c, 2, 62, 127
1, 25344, Note_on_c, 9, 42, 110
1, 25344, Note_on_c, 9, 82, 110
1, 25436, Note_off_c, 9, 42, 17
1, 25436, Note_off_c, 9, 82, 17
1, 25532, Note_off_c, 2, 62, 24
1, 25536, Note_on_c, 2, 64, 127
1, 25536, Note_on_c, 9, 36, 125
1, 25536, Note_on_c, 9, 39, 110
1, 25580, Note_off_c, 0, 49, 17
1, 25628, Note_off_c, 9, 36, 17
1, 25628, Note_off_c, 9, 39, 17
1, 25724, Note_off_c, 2, 64, 24
1, 25728, Note_on_c, 0, 42, 110
1, 25728, Note_on_c, 2, 66, 127
1, 25728, Note_on_c, 9, 42, 110
1, 25820, Note_off_c, 9, 42, 17
1, 25892, Note_off_c, 0, 42, 17
1, 25916, Note_off_c, 2, 66, 24
1, 25920, Note_on_c, 0, 46, 110
1, 25920, Note_on_c, 2, 71, 127
1, 25920, Note_on_c, 9, 39, 110
1, 26012, Note_off_c, 1, 68, 17
1, 26012, Note_off_c, 1, 73, 17
1, 26012, Note_off_c, 1, 76, 17
1, 26012, Note_off_c, 9, 39, 17
1, 26084, Note_off_c, 0, 46, 17
1, 26108, Note_off_c, 2, 71, 24
1, 26112, Note_on_c, 0, 47, 110
1, 26112, Note_on_c, 1, 66, 110
1, 26112, Note_on_c, 1, 71, 110
1, 26112, Note_on_c, 1, 73, 110
1, 26112, Note_on_c, 2, 70, 127
1, 26112, Note_on_c, 9, 36, 125
1, 26112, Note_on_c, 9, 42, 110
1, 26204, Note_off_c, 9, 36, 17
1, 26204, Note_off_c, 9, 42, 17
1, 26300, Note_off_c, 2, 70, 24
1, 26304, Note_on_c, 2, 71, 127
1, 26304, Note_on_c, 9, 82, 110
1, 26396, Note_off_c, 9, 82, 17
1, 26492, Note_off_c, 2, 71, 24
1, 26496, Note_on_c, 2, 73, 127
1, 26496, Note_on_c, 9, 42, 110
1, 26496, Note_on_c, 9, 82, 110
1, 26588, Note_off_c, 9, 42, 17
1, 26588, Note_off_c, 9, 82, 17
1, 26684, Note_off_c, 2, 73, 24
1, 26688, Note_on_c, 2, 74, 127
1, 26688, Note_on_c, 9, 36, 125
1, 26688, Note_on_c, 9, 82, 110
1, 26780, Note_off_c, 9, 36, 17
1, 26780, Note_off_c, 9, 82, 17
1, 26876, Note_off_c, 2, 74, 24
1, 26880, Note_on_c, 2, 76, 127
1, 26880, Note_on_c, 9, 40, 110
1, 26880, Note_on_c, 9, 42, 110
1, 26880, Note_on_c, 9, 82, 110
1, 26972, Note_off_c, 9, 40, 17
1, 26972, Note_off_c, 9, 42, 17
1, 26972, Note_off_c, 9, 82, 17
1, 27068, Note_off_c, 2, 76, 24
1, 27072, Note_on_c, 2, 79, 127
1, 27072, Note_on_c, 9, 36, 125
1, 27072, Note_on_c, 9, 39, 110
1, 27072, Note_on_c, 9, 82, 110
1, 27164, Note_off_c, 9, 36, 17
1, 27164, Note_off_c, 9, 39, 17
1, 27164, Note_off_c, 9, 82, 17
1, 27188, Note_off_c, 1, 66, 17
1, 27188, Note_off_c, 1, 71, 17
1, 27188, Note_off_c, 1, 73, 17
1, 27260, Note_off_c, 2, 79, 24
1, 27264, Note_on_c, 1, 66, 110
1, 27264, Note_on_c, 1, 71, 110
1, 27264, Note_on_c, 1, 73, 110
1, 27264, Note_on_c, 2, 82, 127
1, 27264, Note_on_c, 9, 42, 110
1, 27356, Note_off_c, 9, 42, 17
1, 27452, Note_off_c, 0, 47, 17
1, 27452, Note_off_c, 2, 82, 24
1, 27456, Note_on_c, 2, 83, 127
1, 27456, Note_on_c, 9, 39, 110
1, 27548, Note_off_c, 9, 39, 17
1, 27612, Note_off_c, 2, 83, 24
1, 27620, Note_off_c, 1, 66, 17
1, 27620, Note_off_c, 1, 71, 17
1, 27620, Note_off_c, 1, 73, 17
1, 27648, Note_on_c, 0, 47, 110
1, 27648, Note_on_c, 1, 66, 110
1, 27648, Note_on_c, 1, 71, 110
1, 27648, Note_on_c, 1, 74, 110
1, 27648, Note_on_c, 9, 36, 125
1, 27648, Note_on_c, 9, 42, 110
1, 27740, Note_off_c, 9, 36, 17
1, 27740, Note_off_c, 9, 42, 17
1, 27840, Note_on_c, 9, 82, 110
1, 27932, Note_off_c, 9, 82, 17
1, 28032, Note_on_c, 9, 42, 110
1, 28032, Note_on_c, 9, 82, 110
1, 28124, Note_off_c, 9, 42, 17
1, 28124, Note_off_c, 9, 82, 17
1, 28224, Note_on_c, 9, 36, 125
1, 28224, Note_on_c, 9, 82, 110
1, 28316, Note_off_c, 9, 36, 17
1, 28316, Note_off_c, 9, 82, 17
1, 28416, Note_on_c, 9, 40, 110
1, 28416, Note_on_c, 9, 42, 110
1, 28416, Note_on_c, 9, 82, 110
1, 28508, Note_off_c, 9, 40, 17
1, 28508, Note_off_c, 9, 42, 17
1, 28508, Note_off_c, 9, 82, 17
1, 28608, Note_on_c, 2, 59, 127
1, 28608, Note_on_c, 9, 36, 125
1, 28608, Note_on_c, 9, 39, 90
1, 28652, Note_off_c, 0, 47, 17
1, 28700, Note_off_c, 9, 36, 17
1, 28700, Note_off_c, 9, 39, 17
1, 28724, Note_off_c, 1, 66, 17
1, 28724, Note_off_c, 1, 71, 17
1, 28724, Note_off_c, 1, 74, 17
1, 28796, Note_off_c, 2, 59, 24
1, 28800, Note_on_c, 0, 47, 110
1, 28800, Note_on_c, 1, 66, 110
1, 28800, Note_on_c, 1, 71, 110
1, 28800, Note_on_c, 1, 74, 110
1, 28800, Note_on_c, 2, 62, 127
1, 28800, Note_on_c, 9, 42, 110
1, 28800, Note_on_c, 9, 82, 110
1, 28892, Note_off_c, 2, 62, 24
1, 28892, Note_off_c, 9, 42, 17
1, 28892, Note_off_c, 9, 82, 17
1, 28992, Note_on_c, 2, 59, 127
1, 28992, Note_on_c, 9, 39, 110
1, 29084, Note_off_c, 9, 39, 17
1, 29132, Note_off_c, 0, 47, 17
1, 29156, Note_off_c, 1, 66, 17
1, 29156, Note_off_c, 1, 71, 17
1, 29156, Note_off_c, 1, 74, 17
1, 29180, Note_off_c, 2, 59, 24
1, 29184, Note_on_c, 0, 47, 110
1, 29184, Note_on_c, 1, 66, 110
1, 29184, Note_on_c, 1, 71, 110
1, 29184, Note_on_c, 1, 74, 110
1, 29184, Note_on_c, 2, 62, 127
1, 29184, Note_on_c, 9, 36, 125
1, 29184, Note_on_c, 9, 42, 110
1, 29276, Note_off_c, 2, 62, 24
1, 29276, Note_off_c, 9, 36, 17
1, 29276, Note_off_c, 9, 42, 17
1, 29376, Note_on_c, 9, 82, 110
1, 29468, Note_off_c, 9, 82, 17
1, 29568, Note_on_c, 9, 42, 110
1, 29568, Note_on_c, 9, 82, 110
1, 29660, Note_off_c, 9, 42, 17
1, 29660, Note_off_c, 9, 82, 17
1, 29760, Note_on_c, 9, 36, 125
1, 29760, Note_on_c, 9, 82, 110
1, 29852, Note_off_c, 9, 36, 17
1, 29852, Note_off_c, 9, 82, 17
1, 29952, Note_on_c, 9, 40, 110
1, 29952, Note_on_c, 9, 42, 110
1, 29952, Note_on_c, 9, 82, 110
1, 30020, Note_off_c, 0, 47, 17
1, 30044, Note_off_c, 9, 40, 17
1, 30044, Note_off_c, 9, 42, 17
1, 30044, Note_off_c, 9, 82, 17
1, 30144, Note_on_c, 0, 47, 110
1, 30144, Note_on_c, 2, 59, 127
1, 30144, Note_on_c, 9, 36, 125
1, 30144, Note_on_c, 9, 39, 90
1, 30144, Note_on_c, 9, 82, 110
1, 30236, Note_off_c, 9, 36, 17
1, 30236, Note_off_c, 9, 39, 17
1, 30236, Note_off_c, 9, 82, 17
1, 30260, Note_off_c, 1, 66, 17
1, 30260, Note_off_c, 1, 71, 17
1, 30260, Note_off_c, 1, 74, 17
1, 30308, Note_off_c, 0, 47, 17
1, 30332, Note_off_c, 2, 59, 24
1, 30336, Note_on_c, 0, 49, 110
1, 30336, Note_on_c, 1, 68, 110
1, 30336, Note_on_c, 1, 73, 110
1, 30336, Note_on_c, 1, 76, 110
1, 30336, Note_on_c, 2, 62, 127
1, 30336, Note_on_c, 9, 42, 110
1, 30428, Note_off_c, 2, 62, 24
1, 30428, Note_off_c, 9, 42, 17
1, 30500, Note_off_c, 0, 49, 17
1, 30528, Note_on_c, 0, 47, 110
1, 30528, Note_on_c, 2, 59, 127
1, 30528, Note_on_c, 9, 39, 110
1, 30528, Note_on_c, 9, 82, 110
1, 30620, Note_off_c, 9, 39, 17
1, 30620, Note_off_c, 9, 82, 17
1, 30692, Note_off_c, 0, 47, 17
1, 30692, Note_off_c, 1, 68, 17
1, 30692, Note_off_c, 1, 73, 17
1, 30692, Note_off_c, 1, 76, 17
1, 30716, Note_off_c, 2, 59, 24
1, 30720, Note_on_c, 0, 49, 110
1, 30720, Note_on_c, 1, 68, 110
1, 30720, Note_on_c, 1, 73, 110
1, 30720, Note_on_c, 1, 76, 110
1, 30720, Note_on_c, 9, 36, 125
1, 30720, Note_on_c, 9, 42, 110
1, 30812, Note_off_c, 9, 36, 17
1, 30812, Note_off_c, 9, 42, 17
1, 30912, Note_on_c, 9, 82, 110
1, 31004, Note_off_c, 9, 82, 17
1, 31104, Note_on_c, 9, 42, 110
1, 31104, Note_on_c, 9, 82, 110
1, 31196, Note_off_c, 9, 42, 17
1, 31196, Note_off_c, 9, 82, 17
1, 31296, Note_on_c, 9, 82, 110
1, 31388, Note_off_c, 9, 82, 17
1, 31488, Note_on_c, 2, 62, 127
1, 31488, Note_on_c, 9, 40, 110
1, 31488, Note_on_c, 9, 42, 110
1, 31488, Note_on_c, 9, 82, 110
1, 31580, Note_off_c, 9, 40, 17
1, 31580, Note_off_c, 9, 42, 17
1, 31580, Note_off_c, 9, 82, 17
1, 31676, Note_off_c, 2, 62, 24
1, 31680, Note_on_c, 2, 64, 127
1, 31680, Note_on_c, 9, 36, 125
1, 31680, Note_on_c, 9, 39, 110
1, 31724, Note_off_c, 0, 49, 17
1, 31772, Note_off_c, 9, 36, 17
1, 31772, Note_off_c, 9, 39, 17
1, 31868, Note_off_c, 2, 64, 24
1, 31872, Note_on_c, 0, 42, 110
1, 31872, Note_on_c, 2, 66, 127
1, 31872, Note_on_c, 9, 42, 110
1, 31964, Note_off_c, 9, 42, 17
1, 32036, Note_off_c, 0, 42, 17
1, 32060, Note_off_c, 2, 66, 24
1, 32064, Note_on_c, 0, 46, 110
1, 32064, Note_on_c, 2, 71, 127
1, 32064, Note_on_c, 9, 39, 110
1, 32156, Note_off_c, 1, 68, 17
1, 32156, Note_off_c, 1, 73, 17
1, 32156, Note_off_c, 1, 76, 17
1, 32156, Note_off_c, 9, 39, 17
1, 32228, Note_off_c, 0, 46, 17
1, 32252, Note_off_c, 2, 71, 24
1, 32256, Note_on_c, 0, 47, 110
1, 32256, Note_on_c, 1, 66, 110
1, 32256, Note_on_c, 1, 71, 110
1, 32256, Note_on_c, 1, 73, 110
1, 32256, Note_on_c, 2, 70, 127
1, 32256, Note_on_c, 9, 36, 125
1, 32256, Note_on_c, 9, 42, 110
1, 32348, Note_off_c, 9, 36, 17
1, 32348, Note_off_c, 9, 42, 17
1, 32444, Note_off_c, 2, 70, 24
1, 32448, Note_on_c, 2, 71, 127
1, 32448, Note_on_c, 9, 82, 110
1, 32540, Note_off_c, 9, 82, 17
1, 32636, Note_off_c, 2, 71, 24
1, 32640, Note_on_c, 2, 73, 127
1, 32640, Note_on_c, 9, 42, 110
1, 32640, Note_on_c, 9, 82, 110
1, 32732, Note_off_c, 9, 42, 17
1, 32732, Note_off_c, 9, 82, 17
1, 32828, Note_off_c, 2, 73, 24
1, 32832, Note_on_c, 2, 74, 127
1, 32832, Note_on_c, 9, 36, 125
1, 32832, Note_on_c, 9, 82, 110
1, 32924, Note_off_c, 9, 36, 17
1, 32924, Note_off_c, 9, 82, 17
1, 33020, Note_off_c, 2, 74, 24
1, 33024, Note_on_c, 2, 76, 127
1, 33024, Note_on_c, 9, 40, 110
1, 33024, Note_on_c, 9, 42, 110
1, 33024, Note_on_c, 9, 82, 110
1, 33116, Note_off_c, 9, 40, 17
1, 33116, Note_off_c, 9, 42, 17
1, 33116, Note_off_c, 9, 82, 17
1, 33212, Note_off_c, 2, 76, 24
1, 33216, Note_on_c, 2, 79, 127
1, 33216, Note_on_c, 9, 36, 125
1, 33216, Note_on_c, 9, 39, 110
1, 33216, Note_on_c, 9, 82, 110
1, 33308, Note_off_c, 9, 36, 17
1, 33308, Note_off_c, 9, 39, 17
1, 33308, Note_off_c, 9, 82, 17
1, 33332, Note_off_c, 1, 66, 17
1, 33332, Note_off_c, 1, 71, 17
1, 33332, Note_off_c, 1, 73, 17
1, 33404, Note_off_c, 2, 79, 24
1, 33408, Note_on_c, 1, 66, 110
1, 33408, Note_on_c, 1, 71, 110
1, 33408, Note_on_c, 1, 73, 110
1, 33408, Note_on_c, 2, 82, 127
1, 33408, Note_on_c, 9, 42, 110
1, 33500, Note_off_c, 9, 42, 17
1, 33596, Note_off_c, 0, 47, 17
1, 33596, Note_off_c, 2, 82, 24
1, 33600, Note_on_c, 2, 83, 127
1, 33600, Note_on_c, 9, 39, 110
1, 33692, Note_off_c, 9, 39, 17
1, 33756, Note_off_c, 2, 83, 24
1, 33764, Note_off_c, 1, 66, 17
1, 33764, Note_off_c, 1, 71, 17
1, 33764, Note_off_c, 1, 73, 17
1, 33792, Note_on_c, 0, 47, 110
1, 33792, Note_on_c, 1, 66, 110
1, 33792, Note_on_c, 1, 71, 110
1, 33792, Note_on_c, 1, 74, 110
1, 33792, Note_on_c, 9, 36, 125
1, 33792, Note_on_c, 9, 42, 110
1, 33884, Note_off_c, 9, 36, 17
1, 33884, Note_off_c, 9, 42, 17
1, 33984, Note_on_c, 9, 82, 110
1, 34076, Note_off_c, 9, 82, 17
1, 34176, Note_on_c, 2, 59, 127
1, 34176, Note_on_c, 9, 42, 110
1, 34176, Note_on_c, 9, 82, 110
1, 34268, Note_off_c, 9, 42, 17
1, 34268, Note_off_c, 9, 82, 17
1, 34364, Note_off_c, 2, 59, 24
1, 34368, Note_on_c, 2, 61, 127
1, 34368, Note_on_c, 9, 36, 125
1, 34368, Note_on_c, 9, 82, 110
1, 34460, Note_off_c, 2, 61, 24
1, 34460, Note_off_c, 9, 36, 17
1, 34460, Note_off_c, 9, 82, 17
1, 34560, Note_on_c, 9, 40, 110
1, 34560, Note_on_c, 9, 42, 110
1, 34560, Note_on_c, 9, 82, 110
1, 34652, Note_off_c, 9, 40, 17
1, 34652, Note_off_c, 9, 42, 17
1, 34652, Note_off_c, 9, 82, 17
1, 34752, Note_on_c, 9, 36, 125
1, 34752, Note_on_c, 9, 39, 90
1, 34796, Note_off_c, 0, 47, 17
1, 34844, Note_off_c, 9, 36, 17
1, 34844, Note_off_c, 9, 39, 17
1, 34868, Note_off_c, 1, 66, 17
1, 34868, Note_off_c, 1, 71, 17
1, 34868, Note_off_c, 1, 74, 17
1, 34944, Note_on_c, 0, 47, 110
1, 34944, Note_on_c, 1, 66, 110
1, 34944, Note_on_c, 1, 71, 110
1, 34944, Note_on_c, 1, 74, 110
1, 34944, Note_on_c, 2, 59, 127
1, 34944, Note_on_c, 9, 42, 110
1, 34944, Note_on_c, 9, 82, 110
1, 35036, Note_off_c, 9, 42, 17
1, 35036, Note_off_c, 9, 82, 17
1, 35132, Note_off_c, 2, 59, 24
1, 35136, Note_on_c, 9, 39, 110
1, 35228, Note_off_c, 9, 39, 17
1, 35276, Note_off_c, 0, 47, 17
1, 35300, Note_off_c, 1, 66, 17
1, 35300, Note_off_c, 1, 71, 17
1, 35300, Note_off_c, 1, 74, 17
1, 35328, Note_on_c, 0, 47, 110
1, 35328, Note_on_c, 1, 66, 110
1, 35328, Note_on_c, 1, 71, 110
1, 35328, Note_on_c, 1, 74, 110
1, 35328, Note_on_c, 9, 36, 125
1, 35328, Note_on_c, 9, 42, 110
1, 35420, Note_off_c, 9, 36, 17
1, 35420, Note_off_c, 9, 42, 17
1, 35520, Note_on_c, 9, 82, 110
1, 35612, Note_off_c, 9, 82, 17
1, 35712, Note_on_c, 2, 59, 127
1, 35712, Note_on_c, 9, 42, 110
1, 35712, Note_on_c, 9, 82, 110
1, 35804, Note_off_c, 9, 42, 17
1, 35804, Note_off_c, 9, 82, 17
1, 35828, Note_off_c, 0, 47, 17
1, 35900, Note_off_c, 2, 59, 24
1, 35904, Note_on_c, 0, 47, 110
1, 35904, Note_on_c, 2, 61, 127
1, 35904, Note_on_c, 9, 36, 125
1, 35904, Note_on_c, 9, 82, 110
1, 35996, Note_off_c, 2, 61, 24
1, 35996, Note_off_c, 9, 36, 17
1, 35996, Note_off_c, 9, 82, 17
1, 36044, Note_off_c, 1, 66, 17
1, 36044, Note_off_c, 1, 71, 17
1, 36044, Note_off_c, 1, 74, 17
1, 36096, Note_on_c, 1, 66, 110
1, 36096, Note_on_c, 1, 71, 110
1, 36096, Note_on_c, 1, 74, 110
1, 36096, Note_on_c, 9, 40, 110
1, 36096, Note_on_c, 9, 42, 110
1, 36096, Note_on_c, 9, 82, 110
1, 36188, Note_off_c, 9, 40, 17
1, 36188, Note_off_c, 9, 42, 17
1, 36188, Note_off_c, 9, 82, 17
1, 36288, Note_on_c, 9, 36, 125
1, 36288, Note_on_c, 9, 39, 90
1, 36288, Note_on_c, 9, 82, 110
1, 36352, Note_off_c, 1, 66, 64
1, 36352, Note_off_c, 1, 71, 64
1, 36352, Note_off_c, 1, 74, 64
1, 36380, Note_off_c, 9, 36, 17
1, 36380, Note_off_c, 9, 39, 17
1, 36380, Note_off_c, 9, 82, 17
1, 36404, Note_off_c, 0, 47, 17
1, 36480, Note_on_c, 0, 47, 110
1, 36480, Note_on_c, 2, 59, 127
1, 36480, Note_on_c, 9, 42, 110
1, 36572, Note_off_c, 9, 42, 17
1, 36644, Note_off_c, 0, 47, 17
1, 36668, Note_off_c, 2, 59, 24
1, 36672, Note_on_c, 0, 49, 110
1, 36672, Note_on_c, 9, 39, 110
1, 36672, Note_on_c, 9, 82, 110
1, 36864, Note_off_c, 0, 49, 64
1, 36864, Note_off_c, 9, 39, 64
1, 36864, Note_off_c, 9, 82, 64
1, 36864, Note_on_c, 0, 49, 110
1, 36864, Note_on_c, 1, 68, 110
1, 36864, Note_on_c, 1, 73, 110
1, 36864, Note_on_c, 1, 76, 110
1, 36864, Note_on_c, 9, 36, 125
1, 36864, Note_on_c, 9, 42, 110
1, 36956, Note_off_c, 9, 36, 17
1, 36956, Note_off_c, 9, 42, 17
1, 37056, Note_on_c, 9, 82, 110
1, 37148, Note_off_c, 9, 82, 17
1, 37248, Note_on_c, 9, 36, 125
1, 37248, Note_on_c, 9, 42, 110
1, 37248, Note_on_c, 9, 82, 110
1, 37340, Note_off_c, 9, 36, 17
1, 37340, Note_off_c, 9, 42, 17
1, 37340, Note_off_c, 9, 82, 17
1, 37440, Note_on_c, 9, 82, 110
1, 37532, Note_off_c, 9, 82, 17
1, 37632, Note_on_c, 2, 62, 127
1, 37632, Note_on_c, 9, 42, 110
1, 37632, Note_on_c, 9, 82, 110
1, 37724, Note_off_c, 9, 42, 17
1, 37724, Note_off_c, 9, 82, 17
1, 37820, Note_off_c, 2, 62, 24
1, 37824, Note_on_c, 2, 64, 127
1, 37824, Note_on_c, 9, 36, 125
1, 37824, Note_on_c, 9, 39, 110
1, 37868, Note_off_c, 0, 49, 17
1, 37916, Note_off_c, 9, 36, 17
1, 37916, Note_off_c, 9, 39, 17
1, 38012, Note_off_c, 2, 64, 24
1, 38016, Note_on_c, 0, 42, 110
1, 38016, Note_on_c, 2, 66, 127
1, 38016, Note_on_c, 9, 42, 110
1, 38108, Note_off_c, 9, 42, 17
1, 38180, Note_off_c, 0, 42, 17
1, 38204, Note_off_c, 2, 66, 24
1, 38208, Note_on_c, 0, 46, 110
1, 38208, Note_on_c, 2, 71, 127
1, 38208, Note_on_c, 9, 39, 110
1, 38300, Note_off_c, 1, 68, 17
1, 38300, Note_off_c, 1, 73, 17
1, 38300, Note_off_c, 1, 76, 17
1, 38300, Note_off_c, 9, 39, 17
1, 38372, Note_off_c, 0, 46, 17
1, 38396, Note_off_c, 2, 71, 24
1, 38400, Note_on_c, 0, 47, 110
1, 38400, Note_on_c, 1, 66, 110
1, 38400, Note_on_c, 1, 71, 110
1, 38400, Note_on_c, 1, 73, 110
1, 38400, Note_on_c, 2, 70, 127
1, 38400, Note_on_c, 9, 36, 125
1, 38400, Note_on_c, 9, 42, 110
1, 38492, Note_off_c, 9, 36, 17
1, 38492, Note_off_c, 9, 42, 17
1, 38588, Note_off_c, 2, 70, 24
1, 38592, Note_on_c, 2, 71, 127
1, 38592, Note_on_c, 9, 82, 110
1, 38684, Note_off_c, 9, 82, 17
1, 38780, Note_off_c, 2, 71, 24
1, 38784, Note_on_c, 2, 73, 127
1, 38784, Note_on_c, 9, 42, 110
1, 38784, Note_on_c, 9, 82, 110
1, 38876, Note_off_c, 9, 42, 17
1, 38876, Note_off_c, 9, 82, 17
1, 38972, Note_off_c, 2, 73, 24
1, 38976, Note_on_c, 2, 74, 127
1, 38976, Note_on_c, 9, 36, 125
1, 38976, Note_on_c, 9, 82, 110
1, 39068, Note_off_c, 9, 36, 17
1, 39068, Note_off_c, 9, 82, 17
1, 39164, Note_off_c, 2, 74, 24
1, 39168, Note_on_c, 2, 76, 127
1, 39168, Note_on_c, 9, 40, 110
1, 39168, Note_on_c, 9, 42, 110
1, 39168, Note_on_c, 9, 82, 110
1, 39260, Note_off_c, 9, 40, 17
1, 39260, Note_off_c, 9, 42, 17
1, 39260, Note_off_c, 9, 82, 17
1, 39356, Note_off_c, 2, 76, 24
1, 39360, Note_on_c, 2, 79, 127
1, 39360, Note_on_c, 9, 36, 125
1, 39360, Note_on_c, 9, 39, 110
1, 39360, Note_on_c, 9, 82, 110
1, 39452, Note_off_c, 9, 36, 17
1, 39452, Note_off_c, 9, 39, 17
1, 39452, Note_off_c, 9, 82, 17
1, 39476, Note_off_c, 1, 66, 17
1, 39476, Note_off_c, 1, 71, 17
1, 39476, Note_off_c, 1, 73, 17
1, 39548, Note_off_c, 2, 79, 24
1, 39552, Note_on_c, 1, 66, 110
1, 39552, Note_on_c, 1, 71, 110
1, 39552, Note_on_c, 1, 73, 110
1, 39552, Note_on_c, 2, 82, 127
1, 39552, Note_on_c, 9, 42, 110
1, 39644, Note_off_c, 9, 42, 17
1, 39740, Note_off_c, 0, 47, 17
1, 39740, Note_off_c, 2, 82, 24
1, 39744, Note_on_c, 2, 83, 127
1, 39744, Note_on_c, 9, 39, 110
1, 39836, Note_off_c, 9, 39, 17
1, 39900, Note_off_c, 2, 83, 24
1, 39908, Note_off_c, 1, 66, 17
1, 39908, Note_off_c, 1, 71, 17
1, 39908, Note_off_c, 1, 73, 17
1, 39936, Note_on_c, 0, 47, 110
1, 39936, Note_on_c, 1, 66, 110
1, 39936, Note_on_c, 1, 71, 110
1, 39936, Note_on_c, 1, 74, 110
1, 39936, Note_on_c, 9, 36, 125
1, 39936, Note_on_c, 9, 42, 110
1, 40028, Note_off_c, 9, 36, 17
1, 40028, Note_off_c, 9, 42, 17
1, 40128, Note_on_c, 9, 82, 110
1, 40220, Note_off_c, 9, 82, 17
1, 40320, Note_on_c, 9, 42, 110
1, 40320, Note_on_c, 9, 82, 110
1, 40412, Note_off_c, 9, 42, 17
1, 40412, Note_off_c, 9, 82, 17
1, 40512, Note_on_c, 9, 36, 125
1, 40512, Note_on_c, 9, 82, 110
1, 40604, Note_off_c, 9, 36, 17
1, 40604, Note_off_c, 9, 82, 17
1, 40704, Note_on_c, 9, 40, 110
1, 40704, Note_on_c, 9, 42, 110
1, 40704, Note_on_c, 9, 82, 110
1, 40796, Note_off_c, 9, 40, 17
1, 40796, Note_off_c, 9, 42, 17
1, 40796, Note_off_c, 9, 82, 17
1, 40896, Note_on_c, 2, 59, 127
1, 40896, Note_on_c, 9, 36, 125
1, 40896, Note_on_c, 9, 39, 90
1, 40940, Note_off_c, 0, 47, 17
1, 40988, Note_off_c, 9, 36, 17
1, 40988, Note_off_c, 9, 39, 17
1, 41012, Note_off_c, 1, 66, 17
1, 41012, Note_off_c, 1, 71, 17
1, 41012, Note_off_c, 1, 74, 17
1, 41084, Note_off_c, 2, 59, 24
1, 41088, Note_on_c, 0, 47, 110
1, 41088, Note_on_c, 1, 66, 110
1, 41088, Note_on_c, 1, 71, 110
1, 41088, Note_on_c, 1, 74, 110
1, 41088, Note_on_c, 2, 62, 127
1, 41088, Note_on_c, 9, 42, 110
1, 41088, Note_on_c, 9, 82, 110
1, 41180, Note_off_c, 2, 62, 24
1, 41180, Note_off_c, 9, 42, 17
1, 41180, Note_off_c, 9, 82, 17
1, 41280, Note_on_c, 2, 59, 127
1, 41280, Note_on_c, 9, 39, 110
1, 41372, Note_off_c, 9, 39, 17
1, 41420, Note_off_c, 0, 47, 17
1, 41444, Note_off_c, 1, 66, 17
1, 41444, Note_off_c, 1, 71, 17
1, 41444, Note_off_c, 1, 74, 17
1, 41468, Note_off_c, 2, 59, 24
1, 41472, Note_on_c, 0, 47, 110
1, 41472, Note_on_c, 1, 66, 110
1, 41472, Note_on_c, 1, 71, 110
1, 41472, Note_on_c, 1, 74, 110
1, 41472, Note_on_c, 2, 62, 127
1, 41472, Note_on_c, 9, 36, 125
1, 41472, Note_on_c, 9, 42, 110
1, 41564, Note_off_c, 2, 62, 24
1, 41564, Note_off_c, 9, 36, 17
1, 41564, Note_off_c, 9, 42, 17
1, 41664, Note_on_c, 9, 82, 110
1, 41756, Note_off_c, 9, 82, 17
1, 41856, Note_on_c, 9, 42, 110
1, 41856, Note_on_c, 9, 82, 110
1, 41948, Note_off_c, 9, 42, 17
1, 41948, Note_off_c, 9, 82, 17
1, 42048, Note_on_c, 9, 36, 125
1, 42048, Note_on_c, 9, 82, 110
1, 42140, Note_off_c, 9, 36, 17
1, 42140, Note_off_c, 9, 82, 17
1, 42240, Note_on_c, 9, 40, 110
1, 42240, Note_on_c, 9, 42, 110
1, 42240, Note_on_c, 9, 82, 110
1, 42308, Note_off_c, 0, 47, 17
1, 42332, Note_off_c, 9, 40, 17
1, 42332, Note_off_c, 9, 42, 17
1, 42332, Note_off_c, 9, 82, 17
1, 42432, Note_on_c, 0, 47, 110
1, 42432, Note_on_c, 2, 59, 127
1, 42432, Note_on_c, 9, 36, 125
1, 42432, Note_on_c, 9, 39, 90
1, 42432, Note_on_c, 9, 82, 110
1, 42524, Note_off_c, 9, 36, 17
1, 42524, Note_off_c, 9, 39, 17
1, 42524, Note_off_c, 9, 82, 17
1, 42548, Note_off_c, 1, 66, 17
1, 42548, Note_off_c, 1, 71, 17
1, 42548, Note_off_c, 1, 74, 17
1, 42596, Note_off_c, 0, 47, 17
1, 42620, Note_off_c, 2, 59, 24
1, 42624, Note_on_c, 0, 49, 110
1, 42624, Note_on_c, 1, 68, 110
1, 42624, Note_on_c, 1, 73, 110
1, 42624, Note_on_c, 1, 76, 110
1, 42624, Note_on_c, 2, 62, 127
1, 42624, Note_on_c, 9, 42, 110
1, 42716, Note_off_c, 2, 62, 24
1, 42716, Note_off_c, 9, 42, 17
1, 42788, Note_off_c, 0, 49, 17
1, 42816, Note_on_c, 0, 47, 110
1, 42816, Note_on_c, 2, 59, 127
1, 42816, Note_on_c, 9, 39, 110
1, 42816, Note_on_c, 9, 82, 110
1, 42908, Note_off_c, 9, 39, 17
1, 42908, Note_off_c, 9, 82, 17
1, 42980, Note_off_c, 0, 47, 17
1, 42980, Note_off_c, 1, 68, 17
1, 42980, Note_off_c, 1, 73, 17
1, 42980, Note_off_c, 1, 76, 17
1, 43004, Note_off_c, 2, 59, 24
1, 43008, Note_on_c, 0, 49, 110
1, 43008, Note_on_c, 1, 68, 110
1, 43008, Note_on_c, 1, 73, 110
1, 43008, Note_on_c, 1, 76, 110
1, 43008, Note_on_c, 9, 36, 125
1, 43008, Note_on_c, 9, 42, 110
1, 43100, Note_off_c, 9, 36, 17
1, 43100, Note_off_c, 9, 42, 17
1, 43200, Note_on_c, 9, 82, 110
1, 43292, Note_off_c, 9, 82, 17
1, 43392, Note_on_c, 9, 42, 110
1, 43392, Note_on_c, 9, 82, 110
1, 43484, Note_off_c, 9, 42, 17
1, 43484, Note_off_c, 9, 82, 17
1, 43584, Note_on_c, 9, 82, 110
1, 43676, Note_off_c, 9, 82, 17
1, 43776, Note_on_c, 2, 62, 127
1, 43776, Note_on_c, 9, 40, 110
1, 43776, Note_on_c, 9, 42, 110
1, 43776, Note_on_c, 9, 82, 110
1, 43868, Note_off_c, 9, 40, 17
1, 43868, Note_off_c, 9, 42, 17
1, 43868, Note_off_c, 9, 82, 17
1, 43964, Note_off_c, 2, 62, 24
1, 43968, Note_on_c, 2, 64, 127
1, 43968, Note_on_c, 9, 36, 125
1, 43968, Note_on_c, 9, 39, 110
1, 44012, Note_off_c, 0, 49, 17
1, 44060, Note_off_c, 9, 36, 17
1, 44060, Note_off_c, 9, 39, 17
1, 44156, Note_off_c, 2, 64, 24
1, 44160, Note_on_c, 0, 42, 110
1, 44160, Note_on_c, 2, 66, 127
1, 44160, Note_on_c, 9, 42, 110
1, 44252, Note_off_c, 9, 42, 17
1, 44324, Note_off_c, 0, 42, 17
1, 44348, Note_off_c, 2, 66, 24
1, 44352, Note_on_c, 0, 46, 110
1, 44352, Note_on_c, 2, 71, 127
1, 44352, Note_on_c, 9, 39, 110
1, 44444, Note_off_c, 1, 68, 17
1, 44444, Note_off_c, 1, 73, 17
1, 44444, Note_off_c, 1, 76, 17
1, 44444, Note_off_c, 9, 39, 17
1, 44516, Note_off_c, 0, 46, 17
1, 44540, Note_off_c, 2, 71, 24
1, 44544, Note_on_c, 0, 47, 110
1, 44544, Note_on_c, 1, 66, 110
1, 44544, Note_on_c, 1, 71, 110
1, 44544, Note_on_c, 1, 73, 110
1, 44544, Note_on_c, 2, 70, 127
1, 44544, Note_on_c, 9, 36, 125
1, 44544, Note_on_c, 9, 42, 110
1, 44544, Note_on_c, 9, 36, 125
1, 44636, Note_off_c, 9, 36, 17
1, 44636, Note_off_c, 9, 42, 17
1, 44636, Note_off_c, 9, 36, 17
1, 44732, Note_off_c, 2, 70, 24
1, 44736, Note_on_c, 2, 71, 127
1, 44736, Note_on_c, 9, 82, 110
1, 44736, Note_on_c, 9, 36, 125
1, 44736, Note_on_c, 9, 36, 125
1, 44828, Note_off_c, 9, 82, 17
1, 44828, Note_off_c, 9, 36, 17
1, 44828, Note_off_c, 9, 36, 17
1, 44924, Note_off_c, 2, 71, 24
1, 44928, Note_on_c, 2, 73, 127
1, 44928, Note_on_c, 9, 42, 110
1, 44928, Note_on_c, 9, 82, 110
1, 44928, Note_on_c, 9, 36, 125
1, 44928, Note_on_c, 9, 36, 125
1, 45020, Note_off_c, 9, 42, 17
1, 45020, Note_off_c, 9, 82, 17
1, 45020, Note_off_c, 9, 36, 17
1, 45020, Note_off_c, 9, 36, 17
1, 45116, Note_off_c, 2, 73, 24
1, 45120, Note_on_c, 2, 74, 127
1, 45120, Note_on_c, 9, 36, 125
1, 45120, Note_on_c, 9, 82, 110
1, 45120, Note_on_c, 9, 36, 125
1, 45212, Note_off_c, 9, 36, 17
1, 45212, Note_off_c, 9, 82, 17
1, 45212, Note_off_c, 9, 36, 17
1, 45308, Note_off_c, 2, 74, 24
1, 45312, Note_on_c, 2, 76, 127
1, 45312, Note_on_c, 9, 40, 110
1, 45312, Note_on_c, 9, 42, 110
1, 45312, Note_on_c, 9, 82, 110
1, 45404, Note_off_c, 9, 40, 17
1, 45404, Note_off_c, 9, 42, 17
1, 45404, Note_off_c, 9, 82, 17
1, 45500, Note_off_c, 2, 76, 24
1, 45504, Note_on_c, 2, 79, 127
1, 45504, Note_on_c, 9, 36, 125
1, 45504, Note_on_c, 9, 39, 110
1, 45504, Note_on_c, 9, 82, 110
1, 45596, Note_off_c, 9, 36, 17
1, 45596, Note_off_c, 9, 39, 17
1, 45596, Note_off_c, 9, 82, 17
1, 45620, Note_off_c, 1, 66, 17
1, 45620, Note_off_c, 1, 71, 17
1, 45620, Note_off_c, 1, 73, 17
1, 45692, Note_off_c, 2, 79, 24
1, 45696, Note_on_c, 1, 66, 110
1, 45696, Note_on_c, 1, 71, 110
1, 45696, Note_on_c, 1, 73, 110
1, 45696, Note_on_c, 2, 82, 127
1, 45696, Note_on_c, 9, 42, 110
1, 45788, Note_off_c, 9, 42, 17
1, 45884, Note_off_c, 0, 47, 17
1, 45884, Note_off_c, 2, 82, 24
1, 45888, Note_on_c, 2, 83, 127
1, 45888, Note_on_c, 9, 39, 110
1, 45980, Note_off_c, 9, 39, 17
1, 46044, Note_off_c, 2, 83, 24
1, 46052, Note_off_c, 1, 66, 17
1, 46052, Note_off_c, 1, 71, 17
1, 46052, Note_off_c, 1, 73, 17
1, 46080, Note_on_c, 0, 47, 110
1, 46080, Note_on_c, 1, 66, 110
1, 46080, Note_on_c, 1, 71, 110
1, 46080, Note_on_c, 1, 74, 110
1, 46080, Note_on_c, 9, 36, 125
1, 46080, Note_on_c, 9, 42, 110
1, 46172, Note_off_c, 9, 36, 17
1, 46172, Note_off_c, 9, 42, 17
1, 46272, Note_on_c, 9, 82, 110
1, 46364, Note_off_c, 9, 82, 17
1, 46464, Note_on_c, 2, 59, 127
1, 46464, Note_on_c, 9, 42, 110
1, 46464, Note_on_c, 9, 82, 110
1, 46556, Note_off_c, 9, 42, 17
1, 46556, Note_off_c, 9, 82, 17
1, 46652, Note_off_c, 2, 59, 24
1, 46656, Note_on_c, 2, 61, 127
1, 46656, Note_on_c, 9, 36, 125
1, 46656, Note_on_c, 9, 82, 110
1, 46748, Note_off_c, 2, 61, 24
1, 46748, Note_off_c, 9, 36, 17
1, 46748, Note_off_c, 9, 82, 17
1, 46848, Note_on_c, 9, 40, 110
1, 46848, Note_on_c, 9, 42, 110
1, 46848, Note_on_c, 9, 82, 110
1, 46940, Note_off_c, 9, 40, 17
1, 46940, Note_off_c, 9, 42, 17
1, 46940, Note_off_c, 9, 82, 17
1, 47040, Note_on_c, 9, 36, 125
1, 47040, Note_on_c, 9, 39, 90
1, 47084, Note_off_c, 0, 47, 17
1, 47132, Note_off_c, 9, 36, 17
1, 47132, Note_off_c, 9, 39, 17
1, 47156, Note_off_c, 1, 66, 17
1, 47156, Note_off_c, 1, 71, 17
1, 47156, Note_off_c, 1, 74, 17
1, 47232, Note_on_c, 0, 47, 110
1, 47232, Note_on_c, 1, 66, 110
1, 47232, Note_on_c, 1, 71, 110
1, 47232, Note_on_c, 1, 74, 110
1, 47232, Note_on_c, 2, 59, 127
1, 47232, Note_on_c, 9, 42, 110
1, 47232, Note_on_c, 9, 82, 110
1, 47324, Note_off_c, 9, 42, 17
1, 47324, Note_off_c, 9, 82, 17
1, 47420, Note_off_c, 2, 59, 24
1, 47424, Note_on_c, 9, 39, 110
1, 47516, Note_off_c, 9, 39, 17
1, 47564, Note_off_c, 0, 47, 17
1, 47588, Note_off_c, 1, 66, 17
1, 47588, Note_off_c, 1, 71, 17
1, 47588, Note_off_c, 1, 74, 17
1, 47616, Note_on_c, 0, 47, 110
1, 47616, Note_on_c, 1, 66, 110
1, 47616, Note_on_c, 1, 71, 110
1, 47616, Note_on_c, 1, 74, 110
1, 47616, Note_on_c, 9, 42, 110
1, 47616, Note_on_c, 9, 36, 125
1, 47708, Note_off_c, 9, 42, 17
1, 47708, Note_off_c, 9, 36, 17
1, 47808, Note_on_c, 9, 82, 110
1, 47808, Note_on_c, 9, 39, 110
1, 47900, Note_off_c, 9, 82, 17
1, 47900, Note_off_c, 9, 39, 17
1, 48000, Note_on_c, 2, 59, 127
1, 48000, Note_on_c, 9, 82, 110
1, 48000, Note_on_c, 9, 42, 110
1, 48000, Note_on_c, 9, 39, 110
1, 48092, Note_off_c, 9, 82, 17
1, 48092, Note_off_c, 9, 42, 17
1, 48092, Note_off_c, 9, 39, 17
1, 48116, Note_off_c, 0, 47, 17
1, 48188, Note_off_c, 2, 59, 24
1, 48192, Note_on_c, 0, 47, 110
1, 48192, Note_on_c, 2, 61, 127
1, 48192, Note_on_c, 9, 82, 110
1, 48192, Note_on_c, 9, 39, 110
1, 48284, Note_off_c, 2, 61, 24
1, 48284, Note_off_c, 9, 82, 17
1, 48284, Note_off_c, 9, 39, 17
1, 48332, Note_off_c, 1, 66, 17
1, 48332, Note_off_c, 1, 71, 17
1, 48332, Note_off_c, 1, 74, 17
1, 48384, Note_on_c, 1, 66, 110
1, 48384, Note_on_c, 1, 71, 110
1, 48384, Note_on_c, 1, 74, 110
1, 48384, Note_on_c, 9, 82, 110
1, 48384, Note_on_c, 9, 42, 110
1, 48384, Note_on_c, 9, 36, 125
1, 48476, Note_off_c, 9, 82, 17
1, 48476, Note_off_c, 9, 42, 17
1, 48476, Note_off_c, 9, 36, 17
1, 48576, Note_on_c, 9, 82, 110
1, 48576, Note_on_c, 9, 39, 110
1, 48640, Note_off_c, 1, 66, 64
1, 48640, Note_off_c, 1, 71, 64
1, 48640, Note_off_c, 1, 74, 64
1, 48668, Note_off_c, 9, 82, 17
1, 48668, Note_off_c, 9, 39, 17
1, 48692, Note_off_c, 0, 47, 17
1, 48768, Note_on_c, 0, 47, 110
1, 48768, Note_on_c, 2, 59, 127
1, 48768, Note_on_c, 9, 42, 110
1, 48768, Note_on_c, 9, 39, 110
1, 48860, Note_off_c, 9, 42, 17
1, 48860, Note_off_c, 9, 39, 17
1, 48932, Note_off_c, 0, 47, 17
1, 48956, Note_off_c, 2, 59, 24
1, 48960, Note_on_c, 0, 49, 110
1, 48960, Note_on_c, 9, 82, 110
1, 48960, Note_on_c, 9, 39, 110
1, 49052, Note_off_c, 9, 39, 17
1, 49152, Note_off_c, 0, 49, 64
1, 49152, Note_off_c, 9, 82, 64
1, 49152, Note_on_c, 0, 49, 110
1, 49152, Note_on_c, 1, 68, 110
1, 49152, Note_on_c, 1, 73, 110
1, 49152, Note_on_c, 1, 76, 110
1, 49152, Note_on_c, 3, 66, 78
1, 49152, Note_on_c, 9, 36, 125
1, 49152, Note_on_c, 9, 42, 110
1, 49244, Note_off_c, 9, 36, 17
1, 49244, Note_off_c, 9, 42, 17
1, 49344, Note_on_c, 9, 82, 110
1, 49408, Note_off_c, 3, 66, 78
1, 49436, Note_off_c, 9, 82, 17
1, 49536, Note_on_c, 9, 82, 110
1, 49536, Note_on_c, 9, 42, 110
1, 49628, Note_off_c, 9, 82, 17
1, 49628, Note_off_c, 9, 42, 17
1, 49728, Note_on_c, 3, 66, 78
1, 49728, Note_on_c, 9, 82, 110
1, 49728, Note_on_c, 9, 36, 125
1, 49820, Note_off_c, 9, 82, 17
1, 49820, Note_off_c, 9, 36, 17
1, 49920, Note_on_c, 2, 62, 127
1, 49920, Note_on_c, 9, 82, 110
1, 49920, Note_on_c, 9, 40, 110
1, 49920, Note_on_c, 9, 42, 110
1, 49984, Note_off_c, 3, 66, 78
1, 50012, Note_off_c, 9, 82, 17
1, 50012, Note_off_c, 9, 40, 17
1, 50012, Note_off_c, 9, 42, 17
1, 50108, Note_off_c, 2, 62, 24
1, 50112, Note_on_c, 2, 64, 127
1, 50112, Note_on_c, 9, 36, 125
1, 50112, Note_on_c, 9, 39, 110
1, 50156, Note_off_c, 0, 49, 17
1, 50204, Note_off_c, 9, 36, 17
1, 50204, Note_off_c, 9, 39, 17
1, 50300, Note_off_c, 2, 64, 24
1, 50304, Note_on_c, 0, 42, 110
1, 50304, Note_on_c, 2, 66, 127
1, 50304, Note_on_c, 9, 42, 110
1, 50396, Note_off_c, 9, 42, 17
1, 50468, Note_off_c, 0, 42, 17
1, 50492, Note_off_c, 2, 66, 24
1, 50496, Note_on_c, 0, 46, 110
1, 50496, Note_on_c, 2, 71, 127
1, 50496, Note_on_c, 9, 39, 110
1, 50588, Note_off_c, 1, 68, 17
1, 50588, Note_off_c, 1, 73, 17
1, 50588, Note_off_c, 1, 76, 17
1, 50588, Note_off_c, 9, 39, 17
1, 50660, Note_off_c, 0, 46, 17
1, 50684, Note_off_c, 2, 71, 24
1, 50688, Note_on_c, 0, 47, 110
1, 50688, Note_on_c, 1, 66, 110
1, 50688, Note_on_c, 1, 71, 110
1, 50688, Note_on_c, 1, 73, 110
1, 50688, Note_on_c, 2, 70, 127
1, 50688, Note_on_c, 9, 36, 125
1, 50688, Note_on_c, 9, 42, 110
1, 50780, Note_off_c, 9, 36, 17
1, 50780, Note_off_c, 9, 42, 17
1, 50876, Note_off_c, 2, 70, 24
1, 50880, Note_on_c, 2, 71, 127
1, 50880, Note_on_c, 9, 82, 110
1, 50972, Note_off_c, 9, 82, 17
1, 51068, Note_off_c, 2, 71, 24
1, 51072, Note_on_c, 2, 73, 127
1, 51072, Note_on_c, 9, 42, 110
1, 51072, Note_on_c, 9, 82, 110
1, 51164, Note_off_c, 9, 42, 17
1, 51164, Note_off_c, 9, 82, 17
1, 51260, Note_off_c, 2, 73, 24
1, 51264, Note_on_c, 2, 74, 127
1, 51264, Note_on_c, 9, 36, 125
1, 51264, Note_on_c, 9, 82, 110
1, 51356, Note_off_c, 9, 36, 17
1, 51356, Note_off_c, 9, 82, 17
1, 51452, Note_off_c, 2, 74, 24
1, 51456, Note_on_c, 2, 76, 127
1, 51456, Note_on_c, 9, 40, 110
1, 51456, Note_on_c, 9, 42, 110
1, 51456, Note_on_c, 9, 82, 110
1, 51548, Note_off_c, 9, 40, 17
1, 51548, Note_off_c, 9, 42, 17
1, 51548, Note_off_c, 9, 82, 17
1, 51644, Note_off_c, 2, 76, 24
1, 51648, Note_on_c, 2, 79, 127
1, 51648, Note_on_c, 9, 36, 125
1, 51648, Note_on_c, 9, 39, 110
1, 51648, Note_on_c, 9, 82, 110
1, 51740, Note_off_c, 9, 36, 17
1, 51740, Note_off_c, 9, 39, 17
1, 51740, Note_off_c, 9, 82, 17
1, 51764, Note_off_c, 1, 66, 17
1, 51764, Note_off_c, 1, 71, 17
1, 51764, Note_off_c, 1, 73, 17
1, 51836, Note_off_c, 2, 79, 24
1, 51840, Note_on_c, 1, 66, 110
1, 51840, Note_on_c, 1, 71, 110
1, 51840, Note_on_c, 1, 73, 110
1, 51840, Note_on_c, 2, 82, 127
1, 51840, Note_on_c, 9, 42, 110
1, 51932, Note_off_c, 9, 42, 17
1, 52028, Note_off_c, 0, 47, 17
1, 52028, Note_off_c, 2, 82, 24
1, 52032, Note_on_c, 2, 83, 127
1, 52032, Note_on_c, 9, 39, 110
1, 52124, Note_off_c, 9, 39, 17
1, 52188, Note_off_c, 2, 83, 24
1, 52196, Note_off_c, 1, 66, 17
1, 52196, Note_off_c, 1, 71, 17
1, 52196, Note_off_c, 1, 73, 17
1, 52224, Note_on_c, 0, 47, 110
1, 52224, Note_on_c, 1, 66, 110
1, 52224, Note_on_c, 1, 71, 110
1, 52224, Note_on_c, 1, 74, 110
1, 52224, Note_on_c, 3, 71, 78
1, 52224, Note_on_c, 9, 36, 125
1, 52224, Note_on_c, 9, 42, 110
1, 52316, Note_off_c, 9, 36, 17
1, 52316, Note_off_c, 9, 42, 17
1, 52416, Note_on_c, 9, 82, 110
1, 52480, Note_off_c, 3, 71, 78
1, 52508, Note_off_c, 9, 82, 17
1, 52608, Note_on_c, 9, 42, 110
1, 52608, Note_on_c, 9, 82, 110
1, 52700, Note_off_c, 9, 42, 17
1, 52700, Note_off_c, 9, 82, 17
1, 52800, Note_on_c, 3, 71, 78
1, 52800, Note_on_c, 9, 36, 125
1, 52800, Note_on_c, 9, 82, 110
1, 52892, Note_off_c, 9, 36, 17
1, 52892, Note_off_c, 9, 82, 17
1, 52992, Note_on_c, 9, 40, 110
1, 52992, Note_on_c, 9, 42, 110
1, 52992, Note_on_c, 9, 82, 110
1, 53056, Note_off_c, 3, 71, 78
1, 53084, Note_off_c, 9, 40, 17
1, 53084, Note_off_c, 9, 42, 17
1, 53084, Note_off_c, 9, 82, 17
1, 53184, Note_on_c, 2, 59, 127
1, 53184, Note_on_c, 9, 36, 125
1, 53184, Note_on_c, 9, 39, 90
1, 53228, Note_off_c, 0, 47, 17
1, 53276, Note_off_c, 9, 36, 17
1, 53276, Note_off_c, 9, 39, 17
1, 53300, Note_off_c, 1, 66, 17
1, 53300, Note_off_c, 1, 71, 17
1, 53300, Note_off_c, 1, 74, 17
1, 53372, Note_off_c, 2, 59, 24
1, 53376, Note_on_c, 0, 47, 110
1, 53376, Note_on_c, 1, 66, 110
1, 53376, Note_on_c, 1, 71, 110
1, 53376, Note_on_c, 1, 74, 110
1, 53376, Note_on_c, 2, 62, 127
1, 53376, Note_on_c, 9, 42, 110
1, 53376, Note_on_c, 9, 82, 110
1, 53468, Note_off_c, 2, 62, 24
1, 53468, Note_off_c, 9, 42, 17
1, 53468, Note_off_c, 9, 82, 17
1, 53568, Note_on_c, 2, 59, 127
1, 53568, Note_on_c, 9, 39, 110
1, 53660, Note_off_c, 9, 39, 17
1, 53708, Note_off_c, 0, 47, 17
1, 53732, Note_off_c, 1, 66, 17
1, 53732, Note_off_c, 1, 71, 17
1, 53732, Note_off_c, 1, 74, 17
1, 53756, Note_off_c, 2, 59, 24
1, 53760, Note_on_c, 0, 47, 110
1, 53760, Note_on_c, 1, 66, 110
1, 53760, Note_on_c, 1, 71, 110
1, 53760, Note_on_c, 1, 74, 110
1, 53760, Note_on_c, 2, 62, 127
1, 53760, Note_on_c, 9, 36, 125
1, 53760, Note_on_c, 9, 42, 110
1, 53852, Note_off_c, 2, 62, 24
1, 53852, Note_off_c, 9, 36, 17
1, 53852, Note_off_c, 9, 42, 17
1, 53952, Note_on_c, 9, 82, 110
1, 54044, Note_off_c, 9, 82, 17
1, 54144, Note_on_c, 9, 42, 110
1, 54144, Note_on_c, 9, 82, 110
1, 54236, Note_off_c, 9, 42, 17
1, 54236, Note_off_c, 9, 82, 17
1, 54336, Note_on_c, 9, 36, 125
1, 54336, Note_on_c, 9, 82, 110
1, 54428, Note_off_c, 9, 36, 17
1, 54428, Note_off_c, 9, 82, 17
1, 54528, Note_on_c, 9, 40, 110
1, 54528, Note_on_c, 9, 42, 110
1, 54528, Note_on_c, 9, 82, 110
1, 54596, Note_off_c, 0, 47, 17
1, 54620, Note_off_c, 9, 40, 17
1, 54620, Note_off_c, 9, 42, 17
1, 54620, Note_off_c, 9, 82, 17
1, 54720, Note_on_c, 0, 47, 110
1, 54720, Note_on_c, 2, 59, 127
1, 54720, Note_on_c, 9, 36, 125
1, 54720, Note_on_c, 9, 39, 90
1, 54720, Note_on_c, 9, 82, 110
1, 54812, Note_off_c, 9, 36, 17
1, 54812, Note_off_c, 9, 39, 17
1, 54812, Note_off_c, 9, 82, 17
1, 54836, Note_off_c, 1, 66, 17
1, 54836, Note_off_c, 1, 71, 17
1, 54836, Note_off_c, 1, 74, 17
1, 54884, Note_off_c, 0, 47, 17
1, 54908, Note_off_c, 2, 59, 24
1, 54912, Note_on_c, 0, 49, 110
1, 54912, Note_on_c, 1, 68, 110
1, 54912, Note_on_c, 1, 73, 110
1, 54912, Note_on_c, 1, 76, 110
1, 54912, Note_on_c, 2, 62, 127
1, 54912, Note_on_c, 9, 42, 110
1, 55004, Note_off_c, 2, 62, 24
1, 55004, Note_off_c, 9, 42, 17
1, 55076, Note_off_c, 0, 49, 17
1, 55104, Note_on_c, 0, 47, 110
1, 55104, Note_on_c, 2, 59, 127
1, 55104, Note_on_c, 9, 39, 110
1, 55104, Note_on_c, 9, 82, 110
1, 55196, Note_off_c, 9, 39, 17
1, 55196, Note_off_c, 9, 82, 17
1, 55268, Note_off_c, 0, 47, 17
1, 55268, Note_off_c, 1, 68, 17
1, 55268, Note_off_c, 1, 73, 17
1, 55268, Note_off_c, 1, 76, 17
1, 55292, Note_off_c, 2, 59, 24
1, 55296, Note_on_c, 0, 49, 110
1, 55296, Note_on_c, 1, 68, 110
1, 55296, Note_on_c, 1, 73, 110
1, 55296, Note_on_c, 1, 76, 110
1, 55296, Note_on_c, 3, 66, 78
1, 55296, Note_on_c, 9, 36, 125
1, 55296, Note_on_c, 9, 42, 110
1, 55388, Note_off_c, 9, 36, 17
1, 55388, Note_off_c, 9, 42, 17
1, 55488, Note_on_c, 9, 82, 110
1, 55552, Note_off_c, 3, 66, 78
1, 55580, Note_off_c, 9, 82, 17
1, 55680, Note_on_c, 9, 42, 110
1, 55680, Note_on_c, 9, 82, 110
1, 55772, Note_off_c, 9, 42, 17
1, 55772, Note_off_c, 9, 82, 17
1, 55872, Note_on_c, 3, 66, 78
1, 55872, Note_on_c, 9, 82, 110
1, 55964, Note_off_c, 9, 82, 17
1, 56064, Note_on_c, 2, 62, 127
1, 56064, Note_on_c, 9, 40, 110
1, 56064, Note_on_c, 9, 42, 110
1, 56064, Note_on_c, 9, 82, 110
1, 56128, Note_off_c, 3, 66, 78
1, 56156, Note_off_c, 9, 40, 17
1, 56156, Note_off_c, 9, 42, 17
1, 56156, Note_off_c, 9, 82, 17
1, 56252, Note_off_c, 2, 62, 24
1, 56256, Note_on_c, 2, 64, 127
1, 56256, Note_on_c, 9, 36, 125
1, 56256, Note_on_c, 9, 39, 110
1, 56300, Note_off_c, 0, 49, 17
1, 56348, Note_off_c, 9, 36, 17
1, 56348, Note_off_c, 9, 39, 17
1, 56444, Note_off_c, 2, 64, 24
1, 56448, Note_on_c, 0, 42, 110
1, 56448, Note_on_c, 2, 66, 127
1, 56448, Note_on_c, 9, 42, 110
1, 56540, Note_off_c, 9, 42, 17
1, 56612, Note_off_c, 0, 42, 17
1, 56636, Note_off_c, 2, 66, 24
1, 56640, Note_on_c, 0, 46, 110
1, 56640, Note_on_c, 2, 71, 127
1, 56640, Note_on_c, 9, 39, 110
1, 56732, Note_off_c, 1, 68, 17
1, 56732, Note_off_c, 1, 73, 17
1, 56732, Note_off_c, 1, 76, 17
1, 56732, Note_off_c, 9, 39, 17
1, 56804, Note_off_c, 0, 46, 17
1, 56828, Note_off_c, 2, 71, 24
1, 56832, Note_on_c, 0, 47, 110
1, 56832, Note_on_c, 1, 66, 110
1, 56832, Note_on_c, 1, 71, 110
1, 56832, Note_on_c, 1, 73, 110
1, 56832, Note_on_c, 2, 70, 127
1, 56832, Note_on_c, 9, 36, 125
1, 56832, Note_on_c, 9, 42, 110
1, 56924, Note_off_c, 9, 36, 17
1, 56924, Note_off_c, 9, 42, 17
1, 57020, Note_off_c, 2, 70, 24
1, 57024, Note_on_c, 2, 71, 127
1, 57024, Note_on_c, 9, 82, 110
1, 57116, Note_off_c, 9, 82, 17
1, 57212, Note_off_c, 2, 71, 24
1, 57216, Note_on_c, 2, 73, 127
1, 57216, Note_on_c, 9, 42, 110
1, 57216, Note_on_c, 9, 82, 110
1, 57308, Note_off_c, 9, 42, 17
1, 57308, Note_off_c, 9, 82, 17
1, 57404, Note_off_c, 2, 73, 24
1, 57408, Note_on_c, 2, 74, 127
1, 57408, Note_on_c, 9, 36, 125
1, 57408, Note_on_c, 9, 82, 110
1, 57500, Note_off_c, 9, 36, 17
1, 57500, Note_off_c, 9, 82, 17
1, 57596, Note_off_c, 2, 74, 24
1, 57600, Note_on_c, 2, 76, 127
1, 57600, Note_on_c, 9, 40, 110
1, 57600, Note_on_c, 9, 42, 110
1, 57600, Note_on_c, 9, 82, 110
1, 57692, Note_off_c, 9, 40, 17
1, 57692, Note_off_c, 9, 42, 17
1, 57692, Note_off_c, 9, 82, 17
1, 57788, Note_off_c, 2, 76, 24
1, 57792, Note_on_c, 2, 79, 127
1, 57792, Note_on_c, 9, 36, 125
1, 57792, Note_on_c, 9, 39, 110
1, 57792, Note_on_c, 9, 82, 110
1, 57884, Note_off_c, 9, 36, 17
1, 57884, Note_off_c, 9, 39, 17
1, 57884, Note_off_c, 9, 82, 17
1, 57908, Note_off_c, 1, 66, 17
1, 57908, Note_off_c, 1, 71, 17
1, 57908, Note_off_c, 1, 73, 17
1, 57980, Note_off_c, 2, 79, 24
1, 57984, Note_on_c, 1, 66, 110
1, 57984, Note_on_c, 1, 71, 110
1, 57984, Note_on_c, 1, 73, 110
1, 57984, Note_on_c, 2, 82, 127
1, 57984, Note_on_c, 9, 42, 110
1, 58076, Note_off_c, 9, 42, 17
1, 58172, Note_off_c, 0, 47, 17
1, 58172, Note_off_c, 2, 82, 24
1, 58176, Note_on_c, 2, 83, 127
1, 58176, Note_on_c, 9, 39, 110
1, 58268, Note_off_c, 9, 39, 17
1, 58332, Note_off_c, 2, 83, 24
1, 58340, Note_off_c, 1, 66, 17
1, 58340, Note_off_c, 1, 71, 17
1, 58340, Note_off_c, 1, 73, 17
1, 58368, Note_on_c, 0, 47, 110
1, 58368, Note_on_c, 1, 66, 110
1, 58368, Note_on_c, 1, 71, 110
1, 58368, Note_on_c, 1, 74, 110
1, 58368, Note_on_c, 3, 71, 78
1, 58368, Note_on_c, 9, 36, 125
1, 58368, Note_on_c, 9, 42, 110
1, 58460, Note_off_c, 9, 36, 17
1, 58460, Note_off_c, 9, 42, 17
1, 58560, Note_on_c, 9, 82, 110
1, 58624, Note_off_c, 3, 71, 78
1, 58652, Note_off_c, 9, 82, 17
1, 58752, Note_on_c, 2, 59, 127
1, 58752, Note_on_c, 9, 42, 110
1, 58752, Note_on_c, 9, 82, 110
1, 58844, Note_off_c, 9, 42, 17
1, 58844, Note_off_c, 9, 82, 17
1, 58940, Note_off_c, 2, 59, 24
1, 58944, Note_on_c, 2, 61, 127
1, 58944, Note_on_c, 3, 71, 78
1, 58944, Note_on_c, 9, 36, 125
1, 58944, Note_on_c, 9, 82, 110
1, 59036, Note_off_c, 2, 61, 24
1, 59036, Note_off_c, 9, 36, 17
1, 59036, Note_off_c, 9, 82, 17
1, 59136, Note_on_c, 9, 40, 110
1, 59136, Note_on_c, 9, 42, 110
1, 59136, Note_on_c, 9, 82, 110
1, 59200, Note_off_c, 3, 71, 78
1, 59228, Note_off_c, 9, 40, 17
1, 59228, Note_off_c, 9, 42, 17
1, 59228, Note_off_c, 9, 82, 17
1, 59328, Note_on_c, 9, 36, 125
1, 59328, Note_on_c, 9, 39, 90
1, 59372, Note_off_c, 0, 47, 17
1, 59420, Note_off_c, 9, 36, 17
1, 59420, Note_off_c, 9, 39, 17
1, 59444, Note_off_c, 1, 66, 17
1, 59444, Note_off_c, 1, 71, 17
1, 59444, Note_off_c, 1, 74, 17
1, 59520, Note_on_c, 0, 47, 110
1, 59520, Note_on_c, 1, 66, 110
1, 59520, Note_on_c, 1, 71, 110
1, 59520, Note_on_c, 1, 74, 110
1, 59520, Note_on_c, 2, 59, 127
1, 59520, Note_on_c, 9, 42, 110
1, 59520, Note_on_c, 9, 82, 110
1, 59612, Note_off_c, 9, 42, 17
1, 59612, Note_off_c, 9, 82, 17
1, 59708, Note_off_c, 2, 59, 24
1, 59712, Note_on_c, 9, 39, 110
1, 59804, Note_off_c, 9, 39, 17
1, 59852, Note_off_c, 0, 47, 17
1, 59876, Note_off_c, 1, 66, 17
1, 59876, Note_off_c, 1, 71, 17
1, 59876, Note_off_c, 1, 74, 17
1, 59904, Note_on_c, 0, 47, 110
1, 59904, Note_on_c, 1, 66, 110
1, 59904, Note_on_c, 1, 71, 110
1, 59904, Note_on_c, 1, 74, 110
1, 59904, Note_on_c, 9, 36, 125
1, 59904, Note_on_c, 9, 42, 110
1, 59996, Note_off_c, 9, 36, 17
1, 59996, Note_off_c, 9, 42, 17
1, 60096, Note_on_c, 9, 82, 110
1, 60188, Note_off_c, 9, 82, 17
1, 60288, Note_on_c, 2, 59, 127
1, 60288, Note_on_c, 9, 42, 110
1, 60288, Note_on_c, 9, 82, 110
1, 60380, Note_off_c, 9, 42, 17
1, 60380, Note_off_c, 9, 82, 17
1, 60404, Note_off_c, 0, 47, 17
1, 60476, Note_off_c, 2, 59, 24
1, 60480, Note_on_c, 0, 47, 110
1, 60480, Note_on_c, 2, 61, 127
1, 60480, Note_on_c, 9, 36, 125
1, 60480, Note_on_c, 9, 82, 110
1, 60572, Note_off_c, 2, 61, 24
1, 60572, Note_off_c, 9, 36, 17
1, 60572, Note_off_c, 9, 82, 17
1, 60620, Note_off_c, 1, 66, 17
1, 60620, Note_off_c, 1, 71, 17
1, 60620, Note_off_c, 1, 74, 17
1, 60672, Note_on_c, 1, 66, 110
1, 60672, Note_on_c, 1, 71, 110
1, 60672, Note_on_c, 1, 74, 110
1, 60672, Note_on_c, 9, 40, 110
1, 60672, Note_on_c, 9, 42, 110
1, 60672, Note_on_c, 9, 82, 110
1, 60764, Note_off_c, 9, 40, 17
1, 60764, Note_off_c, 9, 42, 17
1, 60764, Note_off_c, 9, 82, 17
1, 60864, Note_on_c, 9, 36, 125
1, 60864, Note_on_c, 9, 39, 90
1, 60864, Note_on_c, 9, 82, 110
1, 60928, Note_off_c, 1, 66, 64
1, 60928, Note_off_c, 1, 71, 64
1, 60928, Note_off_c, 1, 74, 64
1, 60956, Note_off_c, 9, 36, 17
1, 60956, Note_off_c, 9, 39, 17
1, 60956, Note_off_c, 9, 82, 17
1, 60980, Note_off_c, 0, 47, 17
1, 61056, Note_on_c, 0, 47, 110
1, 61056, Note_on_c, 2, 59, 127
1, 61056, Note_on_c, 9, 42, 110
1, 61148, Note_off_c, 9, 42, 17
1, 61220, Note_off_c, 0, 47, 17
1, 61244, Note_off_c, 2, 59, 24
1, 61248, Note_on_c, 0, 49, 110
1, 61248, Note_on_c, 9, 39, 110
1, 61248, Note_on_c, 9, 82, 110
1, 61440, Note_off_c, 0, 49, 64
1, 61440, Note_off_c, 9, 39, 64
1, 61440, Note_off_c, 9, 82, 64
1, 61440, Note_on_c, 0, 49, 110
1, 61440, Note_on_c, 1, 68, 110
1, 61440, Note_on_c, 1, 73, 110
1, 61440, Note_on_c, 1, 76, 110
1, 61440, Note_on_c, 3, 66, 78
1, 61440, Note_on_c, 9, 36, 125
1, 61440, Note_on_c, 9, 42, 110
1, 61532, Note_off_c, 9, 36, 17
1, 61532, Note_off_c, 9, 42, 17
1, 61632, Note_on_c, 9, 82, 110
1, 61696, Note_off_c, 3, 66, 78
1, 61724, Note_off_c, 9, 82, 17
1, 61824, Note_on_c, 9, 36, 125
1, 61824, Note_on_c, 9, 42, 110
1, 61824, Note_on_c, 9, 82, 110
1, 61916, Note_off_c, 9, 36, 17
1, 61916, Note_off_c, 9, 42, 17
1, 61916, Note_off_c, 9, 82, 17
1, 62016, Note_on_c, 3, 66, 78
1, 62016, Note_on_c, 9, 82, 110
1, 62108, Note_off_c, 9, 82, 17
1, 62208, Note_on_c, 2, 62, 127
1, 62208, Note_on_c, 9, 42, 110
1, 62208, Note_on_c, 9, 82, 110
1, 62272, Note_off_c, 3, 66, 78
1, 62300, Note_off_c, 9, 42, 17
1, 62300, Note_off_c, 9, 82, 17
1, 62396, Note_off_c, 2, 62, 24
1, 62400, Note_on_c, 2, 64, 127
1, 62400, Note_on_c, 9, 36, 125
1, 62400, Note_on_c, 9, 39, 110
1, 62444, Note_off_c, 0, 49, 17
1, 62492, Note_off_c, 9, 36, 17
1, 62492, Note_off_c, 9, 39, 17
1, 62588, Note_off_c, 2, 64, 24
1, 62592, Note_on_c, 0, 42, 110
1, 62592, Note_on_c, 2, 66, 127
1, 62592, Note_on_c, 9, 42, 110
1, 62684, Note_off_c, 9, 42, 17
1, 62756, Note_off_c, 0, 42, 17
1, 62780, Note_off_c, 2, 66, 24
1, 62784, Note_on_c, 0, 46, 110
1, 62784, Note_on_c, 2, 71, 127
1, 62784, Note_on_c, 9, 39, 110
1, 62876, Note_off_c, 1, 68, 17
1, 62876, Note_off_c, 1, 73, 17
1, 62876, Note_off_c, 1, 76, 17
1, 62876, Note_off_c, 9, 39, 17
1, 62948, Note_off_c, 0, 46, 17
1, 62972, Note_off_c, 2, 71, 24
1, 62976, Note_on_c, 0, 47, 110
1, 62976, Note_on_c, 1, 66, 110
1, 62976, Note_on_c, 1, 71, 110
1, 62976, Note_on_c, 1, 73, 110
1, 62976, Note_on_c, 2, 70, 127
1, 62976, Note_on_c, 9, 36, 125
1, 62976, Note_on_c, 9, 42, 110
1, 63068, Note_off_c, 9, 36, 17
1, 63068, Note_off_c, 9, 42, 17
1, 63164, Note_off_c, 2, 70, 24
1, 63168, Note_on_c, 2, 71, 127
1, 63168, Note_on_c, 9, 82, 110
1, 63260, Note_off_c, 9, 82, 17
1, 63356, Note_off_c, 2, 71, 24
1, 63360, Note_on_c, 2, 73, 127
1, 63360, Note_on_c, 9, 42, 110
1, 63360, Note_on_c, 9, 82, 110
1, 63452, Note_off_c, 9, 42, 17
1, 63452, Note_off_c, 9, 82, 17
1, 63548, Note_off_c, 2, 73, 24
1, 63552, Note_on_c, 2, 74, 127
1, 63552, Note_on_c, 9, 36, 125
1, 63552, Note_on_c, 9, 82, 110
1, 63644, Note_off_c, 9, 36, 17
1, 63644, Note_off_c, 9, 82, 17
1, 63740, Note_off_c, 2, 74, 24
1, 63744, Note_on_c, 2, 76, 127
1, 63744, Note_on_c, 9, 40, 110
1, 63744, Note_on_c, 9, 42, 110
1, 63744, Note_on_c, 9, 82, 110
1, 63836, Note_off_c, 9, 40, 17
1, 63836, Note_off_c, 9, 42, 17
1, 63836, Note_off_c, 9, 82, 17
1, 63932, Note_off_c, 2, 76, 24
1, 63936, Note_on_c, 2, 79, 127
1, 63936, Note_on_c, 9, 36, 125
1, 63936, Note_on_c, 9, 39, 110
1, 63936, Note_on_c, 9, 82, 110
1, 64028, Note_off_c, 9, 36, 17
1, 64028, Note_off_c, 9, 39, 17
1, 64028, Note_off_c, 9, 82, 17
1, 64052, Note_off_c, 1, 66, 17
1, 64052, Note_off_c, 1, 71, 17
1, 64052, Note_off_c, 1, 73, 17
1, 64124, Note_off_c, 2, 79, 24
1, 64128, Note_on_c, 1, 66, 110
1, 64128, Note_on_c, 1, 71, 110
1, 64128, Note_on_c, 1, 73, 110
1, 64128, Note_on_c, 2, 82, 127
1, 64128, Note_on_c, 9, 42, 110
1, 64220, Note_off_c, 9, 42, 17
1, 64316, Note_off_c, 0, 47, 17
1, 64316, Note_off_c, 2, 82, 24
1, 64320, Note_on_c, 2, 83, 127
1, 64320, Note_on_c, 9, 39, 110
1, 64412, Note_off_c, 9, 39, 17
1, 64476, Note_off_c, 2, 83, 24
1, 64484, Note_off_c, 1, 66, 17
1, 64484, Note_off_c, 1, 71, 17
1, 64484, Note_off_c, 1, 73, 17
1, 64512, Note_on_c, 0, 47, 110
1, 64512, Note_on_c, 1, 66, 110
1, 64512, Note_on_c, 1, 71, 110
1, 64512, Note_on_c, 1, 74, 110
1, 64512, Note_on_c, 3, 71, 78
1, 64512, Note_on_c, 9, 36, 125
1, 64512, Note_on_c, 9, 42, 110
1, 64604, Note_off_c, 9, 36, 17
1, 64604, Note_off_c, 9, 42, 17
1, 64704, Note_on_c, 9, 82, 110
1, 64768, Note_off_c, 3, 71, 78
1, 64796, Note_off_c, 9, 82, 17
1, 64896, Note_on_c, 9, 42, 110
1, 64896, Note_on_c, 9, 82, 110
1, 64988, Note_off_c, 9, 42, 17
1, 64988, Note_off_c, 9, 82, 17
1, 65088, Note_on_c, 3, 71, 78
1, 65088, Note_on_c, 9, 36, 125
1, 65088, Note_on_c, 9, 82, 110
1, 65180, Note_off_c, 9, 36, 17
1, 65180, Note_off_c, 9, 82, 17
1, 65280, Note_on_c, 9, 40, 110
1, 65280, Note_on_c, 9, 42, 110
1, 65280, Note_on_c, 9, 82, 110
1, 65344, Note_off_c, 3, 71, 78
1, 65372, Note_off_c, 9, 40, 17
1, 65372, Note_off_c, 9, 42, 17
1, 65372, Note_off_c, 9, 82, 17
1, 65472, Note_on_c, 2, 59, 127
1, 65472, Note_on_c, 9, 36, 125
1, 65472, Note_on_c, 9, 39, 90
1, 65516, Note_off_c, 0, 47, 17
1, 65564, Note_off_c, 9, 36, 17
1, 65564, Note_off_c, 9, 39, 17
1, 65588, Note_off_c, 1, 66, 17
1, 65588, Note_off_c, 1, 71, 17
1, 65588, Note_off_c, 1, 74, 17
1, 65660, Note_off_c, 2, 59, 24
1, 65664, Note_on_c, 0, 47, 110
1, 65664, Note_on_c, 1, 66, 110
1, 65664, Note_on_c, 1, 71, 110
1, 65664, Note_on_c, 1, 74, 110
1, 65664, Note_on_c, 2, 62, 127
1, 65664, Note_on_c, 9, 42, 110
1, 65664, Note_on_c, 9, 82, 110
1, 65756, Note_off_c, 2, 62, 24
1, 65756, Note_off_c, 9, 42, 17
1, 65756, Note_off_c, 9, 82, 17
1, 65856, Note_on_c, 2, 59, 127
1, 65856, Note_on_c, 9, 39, 110
1, 65948, Note_off_c, 9, 39, 17
1, 65996, Note_off_c, 0, 47, 17
1, 66020, Note_off_c, 1, 66, 17
1, 66020, Note_off_c, 1, 71, 17
1, 66020, Note_off_c, 1, 74, 17
1, 66044, Note_off_c, 2, 59, 24
1, 66048, Note_on_c, 0, 47, 110
1, 66048, Note_on_c, 1, 66, 110
1, 66048, Note_on_c, 1, 71, 110
1, 66048, Note_on_c, 1, 74, 110
1, 66048, Note_on_c, 2, 62, 127
1, 66048, Note_on_c, 9, 36, 125
1, 66048, Note_on_c, 9, 42, 110
1, 66140, Note_off_c, 2, 62, 24
1, 66140, Note_off_c, 9, 36, 17
1, 66140, Note_off_c, 9, 42, 17
1, 66240, Note_on_c, 9, 82, 110
1, 66332, Note_off_c, 9, 82, 17
1, 66432, Note_on_c, 9, 42, 110
1, 66432, Note_on_c, 9, 82, 110
1, 66524, Note_off_c, 9, 42, 17
1, 66524, Note_off_c, 9, 82, 17
1, 66624, Note_on_c, 9, 36, 125
1, 66624, Note_on_c, 9, 82, 110
1, 66716, Note_off_c, 9, 36, 17
1, 66716, Note_off_c, 9, 82, 17
1, 66816, Note_on_c, 9, 40, 110
1, 66816, Note_on_c, 9, 42, 110
1, 66816, Note_on_c, 9, 82, 110
1, 66884, Note_off_c, 0, 47, 17
1, 66908, Note_off_c, 9, 40, 17
1, 66908, Note_off_c, 9, 42, 17
1, 66908, Note_off_c, 9, 82, 17
1, 67008, Note_on_c, 0, 47, 110
1, 67008, Note_on_c, 2, 59, 127
1, 67008, Note_on_c, 9, 36, 125
1, 67008, Note_on_c, 9, 39, 90
1, 67008, Note_on_c, 9, 82, 110
1, 67100, Note_off_c, 9, 36, 17
1, 67100, Note_off_c, 9, 39, 17
1, 67100, Note_off_c, 9, 82, 17
1, 67124, Note_off_c, 1, 66, 17
1, 67124, Note_off_c, 1, 71, 17
1, 67124, Note_off_c, 1, 74, 17
1, 67172, Note_off_c, 0, 47, 17
1, 67196, Note_off_c, 2, 59, 24
1, 67200, Note_on_c, 0, 49, 110
1, 67200, Note_on_c, 1, 68, 110
1, 67200, Note_on_c, 1, 73, 110
1, 67200, Note_on_c, 1, 76, 110
1, 67200, Note_on_c, 2, 62, 127
1, 67200, Note_on_c, 9, 42, 110
1, 67292, Note_off_c, 2, 62, 24
1, 67292, Note_off_c, 9, 42, 17
1, 67364, Note_off_c, 0, 49, 17
1, 67392, Note_on_c, 0, 47, 110
1, 67392, Note_on_c, 2, 59, 127
1, 67392, Note_on_c, 9, 39, 110
1, 67392, Note_on_c, 9, 82, 110
1, 67484, Note_off_c, 9, 39, 17
1, 67484, Note_off_c, 9, 82, 17
1, 67556, Note_off_c, 0, 47, 17
1, 67556, Note_off_c, 1, 68, 17
1, 67556, Note_off_c, 1, 73, 17
1, 67556, Note_off_c, 1, 76, 17
1, 67580, Note_off_c, 2, 59, 24
1, 67584, Note_on_c, 0, 49, 110
1, 67584, Note_on_c, 1, 68, 110
1, 67584, Note_on_c, 1, 73, 110
1, 67584, Note_on_c, 1, 76, 110
1, 67584, Note_on_c, 3, 66, 78
1, 67584, Note_on_c, 9, 36, 125
1, 67584, Note_on_c, 9, 42, 110
1, 67676, Note_off_c, 9, 36, 17
1, 67676, Note_off_c, 9, 42, 17
1, 67776, Note_on_c, 9, 82, 110
1, 67840, Note_off_c, 3, 66, 78
1, 67868, Note_off_c, 9, 82, 17
1, 67968, Note_on_c, 9, 42, 110
1, 67968, Note_on_c, 9, 82, 110
1, 68060, Note_off_c, 9, 42, 17
1, 68060, Note_off_c, 9, 82, 17
1, 68160, Note_on_c, 3, 66, 78
1, 68160, Note_on_c, 9, 82, 110
1, 68252, Note_off_c, 9, 82, 17
1, 68352, Note_on_c, 2, 62, 127
1, 68352, Note_on_c, 9, 40, 110
1, 68352, Note_on_c, 9, 42, 110
1, 68352, Note_on_c, 9, 82, 110
1, 68416, Note_off_c, 3, 66, 78
1, 68444, Note_off_c, 9, 40, 17
1, 68444, Note_off_c, 9, 42, 17
1, 68444, Note_off_c, 9, 82, 17
1, 68540, Note_off_c, 2, 62, 24
1, 68544, Note_on_c, 2, 64, 127
1, 68544, Note_on_c, 9, 36, 125
1, 68544, Note_on_c, 9, 39, 110
1, 68588, Note_off_c, 0, 49, 17
1, 68636, Note_off_c, 9, 36, 17
1, 68636, Note_off_c, 9, 39, 17
1, 68732, Note_off_c, 2, 64, 24
1, 68736, Note_on_c, 0, 42, 110
1, 68736, Note_on_c, 2, 66, 127
1, 68736, Note_on_c, 9, 42, 110
1, 68828, Note_off_c, 9, 42, 17
1, 68900, Note_off_c, 0, 42, 17
1, 68924, Note_off_c, 2, 66, 24
1, 68928, Note_on_c, 0, 46, 110
1, 68928, Note_on_c, 2, 71, 127
1, 68928, Note_on_c, 9, 39, 110
1, 69020, Note_off_c, 1, 68, 17
1, 69020, Note_off_c, 1, 73, 17
1, 69020, Note_off_c, 1, 76, 17
1, 69020, Note_off_c, 9, 39, 17
1, 69092, Note_off_c, 0, 46, 17
1, 69116, Note_off_c, 2, 71, 24
1, 69120, Note_on_c, 0, 47, 110
1, 69120, Note_on_c, 1, 66, 110
1, 69120, Note_on_c, 1, 71, 110
1, 69120, Note_on_c, 1, 73, 110
1, 69120, Note_on_c, 2, 70, 127
1, 69120, Note_on_c, 9, 36, 125
1, 69120, Note_on_c, 9, 42, 110
1, 69120, Note_on_c, 9, 36, 125
1, 69212, Note_off_c, 9, 36, 17
1, 69212, Note_off_c, 9, 42, 17
1, 69212, Note_off_c, 9, 36, 17
1, 69308, Note_off_c, 2, 70, 24
1, 69312, Note_on_c, 2, 71, 127
1, 69312, Note_on_c, 9, 82, 110
1, 69312, Note_on_c, 9, 36, 125
1, 69312, Note_on_c, 9, 36, 125
1, 69404, Note_off_c, 9, 82, 17
1, 69404, Note_off_c, 9, 36, 17
1, 69404, Note_off_c, 9, 36, 17
1, 69500, Note_off_c, 2, 71, 24
1, 69504, Note_on_c, 2, 73, 127
1, 69504, Note_on_c, 9, 42, 110
1, 69504, Note_on_c, 9, 82, 110
1, 69504, Note_on_c, 9, 36, 125
1, 69504, Note_on_c, 9, 36, 125
1, 69596, Note_off_c, 9, 42, 17
1, 69596, Note_off_c, 9, 82, 17
1, 69596, Note_off_c, 9, 36, 17
1, 69596, Note_off_c, 9, 36, 17
1, 69692, Note_off_c, 2, 73, 24
1, 69696, Note_on_c, 2, 74, 127
1, 69696, Note_on_c, 9, 36, 125
1, 69696, Note_on_c, 9, 82, 110
1, 69696, Note_on_c, 9, 36, 125
1, 69788, Note_off_c, 9, 36, 17
1, 69788, Note_off_c, 9, 82, 17
1, 69788, Note_off_c, 9, 36, 17
1, 69884, Note_off_c, 2, 74, 24
1, 69888, Note_on_c, 2, 76, 127
1, 69888, Note_on_c, 9, 40, 110
1, 69888, Note_on_c, 9, 42, 110
1, 69888, Note_on_c, 9, 82, 110
1, 69980, Note_off_c, 9, 40, 17
1, 69980, Note_off_c, 9, 42, 17
1, 69980, Note_off_c, 9, 82, 17
1, 70076, Note_off_c, 2, 76, 24
1, 70080, Note_on_c, 2, 79, 127
1, 70080, Note_on_c, 9, 36, 125
1, 70080, Note_on_c, 9, 39, 110
1, 70080, Note_on_c, 9, 82, 110
1, 70172, Note_off_c, 9, 36, 17
1, 70172, Note_off_c, 9, 39, 17
1, 70172, Note_off_c, 9, 82, 17
1, 70196, Note_off_c, 1, 66, 17
1, 70196, Note_off_c, 1, 71, 17
1, 70196, Note_off_c, 1, 73, 17
1, 70268, Note_off_c, 2, 79, 24
1, 70272, Note_on_c, 1, 66, 110
1, 70272, Note_on_c, 1, 71, 110
1, 70272, Note_on_c, 1, 73, 110
1, 70272, Note_on_c, 2, 82, 127
1, 70272, Note_on_c, 9, 42, 110
1, 70364, Note_off_c, 9, 42, 17
1, 70460, Note_off_c, 0, 47, 17
1, 70460, Note_off_c, 2, 82, 24
1, 70464, Note_on_c, 2, 83, 127
1, 70464, Note_on_c, 9, 39, 110
1, 70556, Note_off_c, 9, 39, 17
1, 70620, Note_off_c, 2, 83, 24
1, 70628, Note_off_c, 1, 66, 17
1, 70628, Note_off_c, 1, 71, 17
1, 70628, Note_off_c, 1, 73, 17
1, 70656, Note_on_c, 0, 47, 110
1, 70656, Note_on_c, 1, 66, 110
1, 70656, Note_on_c, 1, 71, 110
1, 70656, Note_on_c, 1, 74, 110
1, 70656, Note_on_c, 3, 71, 78
1, 70656, Note_on_c, 9, 36, 125
1, 70656, Note_on_c, 9, 42, 110
1, 70748, Note_off_c, 9, 36, 17
1, 70748, Note_off_c, 9, 42, 17
1, 70848, Note_on_c, 9, 82, 110
1, 70912, Note_off_c, 3, 71, 78
1, 70940, Note_off_c, 9, 82, 17
1, 71040, Note_on_c, 2, 59, 127
1, 71040, Note_on_c, 9, 42, 110
1, 71040, Note_on_c, 9, 82, 110
1, 71132, Note_off_c, 9, 42, 17
1, 71132, Note_off_c, 9, 82, 17
1, 71228, Note_off_c, 2, 59, 24
1, 71232, Note_on_c, 2, 61, 127
1, 71232, Note_on_c, 3, 71, 78
1, 71232, Note_on_c, 9, 36, 125
1, 71232, Note_on_c, 9, 82, 110
1, 71324, Note_off_c, 2, 61, 24
1, 71324, Note_off_c, 9, 36, 17
1, 71324, Note_off_c, 9, 82, 17
1, 71424, Note_on_c, 9, 40, 110
1, 71424, Note_on_c, 9, 42, 110
1, 71424, Note_on_c, 9, 82, 110
1, 71488, Note_off_c, 3, 71, 78
1, 71516, Note_off_c, 9, 40, 17
1, 71516, Note_off_c, 9, 42, 17
1, 71516, Note_off_c, 9, 82, 17
1, 71616, Note_on_c, 9, 36, 125
1, 71616, Note_on_c, 9, 39, 90
1, 71660, Note_off_c, 0, 47, 17
1, 71708, Note_off_c, 9, 36, 17
1, 71708, Note_off_c, 9, 39, 17
1, 71732, Note_off_c, 1, 66, 17
1, 71732, Note_off_c, 1, 71, 17
1, 71732, Note_off_c, 1, 74, 17
1, 71808, Note_on_c, 0, 47, 110
1, 71808, Note_on_c, 1, 66, 110
1, 71808, Note_on_c, 1, 71, 110
1, 71808, Note_on_c, 1, 74, 110
1, 71808, Note_on_c, 2, 59, 127
1, 71808, Note_on_c, 9, 42, 110
1, 71808, Note_on_c, 9, 82, 110
1, 71900, Note_off_c, 9, 42, 17
1, 71900, Note_off_c, 9, 82, 17
1, 71996, Note_off_c, 2, 59, 24
1, 72000, Note_on_c, 9, 39, 110
1, 72092, Note_off_c, 9, 39, 17
1, 72140, Note_off_c, 0, 47, 17
1, 72164, Note_off_c, 1, 66, 17
1, 72164, Note_off_c, 1, 71, 17
1, 72164, Note_off_c, 1, 74, 17
1, 72192, Note_on_c, 0, 47, 110
1, 72192, Note_on_c, 1, 66, 110
1, 72192, Note_on_c, 1, 71, 110
1, 72192, Note_on_c, 1, 74, 110
1, 72192, Note_on_c, 9, 42, 110
1, 72192, Note_on_c, 9, 36, 125
1, 72284, Note_off_c, 9, 42, 17
1, 72284, Note_off_c, 9, 36, 17
1, 72384, Note_on_c, 9, 82, 110
1, 72384, Note_on_c, 9, 39, 110
1, 72476, Note_off_c, 9, 82, 17
1, 72476, Note_off_c, 9, 39, 17
1, 72576, Note_on_c, 2, 59, 127
1, 72576, Note_on_c, 9, 82, 110
1, 72576, Note_on_c, 9, 42, 110
1, 72576, Note_on_c, 9, 39, 110
1, 72668, Note_off_c, 9, 82, 17
1, 72668, Note_off_c, 9, 42, 17
1, 72668, Note_off_c, 9, 39, 17
1, 72692, Note_off_c, 0, 47, 17
1, 72764, Note_off_c, 2, 59, 24
1, 72768, Note_on_c, 0, 47, 110
1, 72768, Note_on_c, 2, 61, 127
1, 72768, Note_on_c, 9, 82, 110
1, 72768, Note_on_c, 9, 39, 110
1, 72860, Note_off_c, 2, 61, 24
1, 72860, Note_off_c, 9, 82, 17
1, 72860, Note_off_c, 9, 39, 17
1, 72908, Note_off_c, 1, 66, 17
1, 72908, Note_off_c, 1, 71, 17
1, 72908, Note_off_c, 1, 74, 17
1, 72960, Note_on_c, 1, 66, 110
1, 72960, Note_on_c, 1, 71, 110
1, 72960, Note_on_c, 1, 74, 110
1, 72960, Note_on_c, 9, 82, 110
1, 72960, Note_on_c, 9, 42, 110
1, 72960, Note_on_c, 9, 36, 125
1, 73052, Note_off_c, 9, 82, 17
1, 73052, Note_off_c, 9, 42, 17
1, 73052, Note_off_c, 9, 36, 17
1, 73152, Note_on_c, 9, 82, 110
1, 73152, Note_on_c, 9, 39, 110
1, 73216, Note_off_c, 1, 66, 64
1, 73216, Note_off_c, 1, 71, 64
1, 73216, Note_off_c, 1, 74, 64
1, 73244, Note_off_c, 9, 82, 17
1, 73244, Note_off_c, 9, 39, 17
1, 73268, Note_off_c, 0, 47, 17
1, 73344, Note_on_c, 0, 47, 110
1, 73344, Note_on_c, 2, 59, 127
1, 73344, Note_on_c, 9, 42, 110
1, 73344, Note_on_c, 9, 39, 110
1, 73436, Note_off_c, 9, 42, 17
1, 73436, Note_off_c, 9, 39, 17
1, 73508, Note_off_c, 0, 47, 17
1, 73532, Note_off_c, 2, 59, 24
1, 73536, Note_on_c, 0, 49, 110
1, 73536, Note_on_c, 9, 82, 110
1, 73536, Note_on_c, 9, 39, 110
1, 73628, Note_off_c, 9, 39, 17
1, 73728, Note_off_c, 0, 49, 64
1, 73728, Note_off_c, 9, 82, 64
1, 73728, Note_on_c, 3, 66, 78
1, 73728, Note_on_c, 4, 31, 95
1, 73728, Note_on_c, 9, 36, 125
1, 73728, Note_on_c, 9, 42, 110
1, 73820, Note_off_c, 9, 36, 17
1, 73820, Note_off_c, 9, 42, 17
1, 73920, Note_on_c, 9, 82, 110
1, 73984, Note_off_c, 3, 66, 78
1, 74012, Note_off_c, 9, 82, 17
1, 74112, Note_on_c, 9, 82, 110
1, 74112, Note_on_c, 9, 36, 125
1, 74112, Note_on_c, 9, 42, 110
1, 74204, Note_off_c, 9, 82, 17
1, 74204, Note_off_c, 9, 36, 17
1, 74204, Note_off_c, 9, 42, 17
1, 74304, Note_on_c, 3, 66, 78
1, 74304, Note_on_c, 9, 82, 110
1, 74396, Note_off_c, 9, 82, 17
1, 74472, Note_off_c, 4, 31, 95
1, 74496, Note_on_c, 4, 59, 95
1, 74496, Note_on_c, 9, 82, 110
1, 74496, Note_on_c, 9, 42, 110
1, 74560, Note_off_c, 3, 66, 78
1, 74588, Note_off_c, 9, 82, 17
1, 74588, Note_off_c, 9, 42, 17
1, 74688, Note_on_c, 9, 82, 110
1, 74688, Note_on_c, 9, 36, 125
1, 74688, Note_on_c, 9, 39, 110
1, 74780, Note_off_c, 9, 82, 17
1, 74780, Note_off_c, 9, 36, 17
1, 74780, Note_off_c, 9, 39, 17
1, 74880, Note_on_c, 4, 60, 95
1, 74880, Note_on_c, 9, 42, 110
1, 74972, Note_off_c, 9, 42, 17
1, 75060, Note_off_c, 4, 59, 95
1, 75072, Note_on_c, 9, 82, 110
1, 75072, Note_on_c, 9, 39, 110
1, 75164, Note_off_c, 9, 82, 17
1, 75164, Note_off_c, 9, 39, 17
1, 75264, Note_off_c, 4, 60, 95
1, 75264, Note_on_c, 4, 62, 95
1, 75264, Note_on_c, 5, 62, 118
1, 75264, Note_on_c, 9, 36, 125
1, 75264, Note_on_c, 9, 42, 110
1, 75356, Note_off_c, 9, 36, 17
1, 75356, Note_off_c, 9, 42, 17
1, 75456, Note_on_c, 9, 82, 110
1, 75548, Note_off_c, 9, 82, 17
1, 75648, Note_on_c, 4, 60, 95
1, 75648, Note_on_c, 5, 60, 124
1, 75648, Note_on_c, 9, 82, 110
1, 75648, Note_on_c, 9, 42, 110
1, 75740, Note_off_c, 9, 82, 17
1, 75740, Note_off_c, 9, 42, 17
1, 75828, Note_off_c, 4, 62, 95
1, 75828, Note_off_c, 5, 62, 109
1, 75840, Note_on_c, 9, 82, 110
1, 75840, Note_on_c, 9, 36, 125
1, 75932, Note_off_c, 9, 82, 17
1, 75932, Note_off_c, 9, 36, 17
1, 76032, Note_on_c, 4, 63, 95
1, 76032, Note_on_c, 5, 63, 127
1, 76032, Note_on_c, 9, 82, 110
1, 76032, Note_on_c, 9, 40, 110
1, 76032, Note_on_c, 9, 42, 110
1, 76124, Note_off_c, 9, 82, 17
1, 76124, Note_off_c, 9, 40, 17
1, 76124, Note_off_c, 9, 42, 17
1, 76212, Note_off_c, 4, 60, 95
1, 76212, Note_off_c, 5, 60, 109
1, 76224, Note_on_c, 9, 82, 110
1, 76224, Note_on_c, 9, 36, 125
1, 76224, Note_on_c, 9, 39, 110
1, 76316, Note_off_c, 9, 82, 17
1, 76316, Note_off_c, 9, 36, 17
1, 76316, Note_off_c, 9, 39, 17
1, 76416, Note_on_c, 9, 42, 110
1, 76508, Note_off_c, 9, 42, 17
1, 76608, Note_on_c, 9, 82, 110
1, 76608, Note_on_c, 9, 39, 110
1, 76672, Note_off_c, 4, 63, 95
1, 76672, Note_off_c, 5, 63, 127
1, 76700, Note_off_c, 9, 82, 17
1, 76700, Note_off_c, 9, 39, 17
1, 76800, Note_on_c, 4, 36, 95
1, 76800, Note_on_c, 9, 36, 125
1, 76800, Note_on_c, 9, 42, 110
1, 76892, Note_off_c, 9, 36, 17
1, 76892, Note_off_c, 9, 42, 17
1, 76992, Note_on_c, 9, 82, 110
1, 77084, Note_off_c, 9, 82, 17
1, 77184, Note_on_c, 9, 82, 110
1, 77184, Note_on_c, 9, 42, 110
1, 77276, Note_off_c, 9, 82, 17
1, 77276, Note_off_c, 9, 42, 17
1, 77376, Note_on_c, 9, 82, 110
1, 77376, Note_on_c, 9, 36, 125
1, 77468, Note_off_c, 9, 82, 17
1, 77468, Note_off_c, 9, 36, 17
1, 77544, Note_off_c, 4, 36, 95
1, 77568, Note_on_c, 9, 82, 110
1, 77568, Note_on_c, 9, 40, 110
1, 77568, Note_on_c, 9, 42, 110
1, 77660, Note_off_c, 9, 82, 17
1, 77660, Note_off_c, 9, 40, 17
1, 77660, Note_off_c, 9, 42, 17
1, 77760, Note_on_c, 9, 82, 110
1, 77760, Note_on_c, 9, 36, 125
1, 77760, Note_on_c, 9, 39, 90
1, 77852, Note_off_c, 9, 82, 17
1, 77852, Note_off_c, 9, 36, 17
1, 77852, Note_off_c, 9, 39, 17
1, 77952, Note_on_c, 9, 42, 110
1, 78044, Note_off_c, 9, 42, 17
1, 78144, Note_on_c, 9, 82, 110
1, 78144, Note_on_c, 9, 39, 110
1, 78236, Note_off_c, 9, 82, 17
1, 78236, Note_off_c, 9, 39, 17
1, 78336, Note_on_c, 9, 36, 125
1, 78336, Note_on_c, 9, 42, 110
1, 78428, Note_off_c, 9, 36, 17
1, 78428, Note_off_c, 9, 42, 17
1, 78528, Note_on_c, 9, 82, 110
1, 78620, Note_off_c, 9, 82, 17
1, 78720, Note_on_c, 9, 82, 110
1, 78720, Note_on_c, 9, 42, 110
1, 78812, Note_off_c, 9, 82, 17
1, 78812, Note_off_c, 9, 42, 17
1, 78912, Note_on_c, 9, 82, 110
1, 78912, Note_on_c, 9, 36, 125
1, 79004, Note_off_c, 9, 82, 17
1, 79004, Note_off_c, 9, 36, 17
1, 79104, Note_on_c, 9, 82, 110
1, 79104, Note_on_c, 9, 40, 110
1, 79104, Note_on_c, 9, 42, 110
1, 79196, Note_off_c, 9, 82, 17
1, 79196, Note_off_c, 9, 40, 17
1, 79196, Note_off_c, 9, 42, 17
1, 79296, Note_on_c, 9, 82, 110
1, 79296, Note_on_c, 9, 36, 125
1, 79296, Note_on_c, 9, 39, 90
1, 79388, Note_off_c, 9, 82, 17
1, 79388, Note_off_c, 9, 36, 17
1, 79388, Note_off_c, 9, 39, 17
1, 79488, Note_on_c, 9, 42, 110
1, 79580, Note_off_c, 9, 42, 17
1, 79680, Note_on_c, 9, 82, 110
1, 79680, Note_on_c, 9, 39, 110
1, 79772, Note_off_c, 9, 82, 17
1, 79772, Note_off_c, 9, 39, 17
1, 79872, Note_on_c, 3, 66, 78
1, 79872, Note_on_c, 4, 31, 95
1, 79872, Note_on_c, 9, 36, 125
1, 79872, Note_on_c, 9, 42, 110
1, 79964, Note_off_c, 9, 36, 17
1, 79964, Note_off_c, 9, 42, 17
1, 80064, Note_on_c, 9, 82, 110
1, 80128, Note_off_c, 3, 66, 78
1, 80156, Note_off_c, 9, 82, 17
1, 80256, Note_on_c, 9, 42, 110
1, 80256, Note_on_c, 9, 82, 110
1, 80348, Note_off_c, 9, 42, 17
1, 80348, Note_off_c, 9, 82, 17
1, 80448, Note_on_c, 3, 66, 78
1, 80448, Note_on_c, 9, 82, 110
1, 80540, Note_off_c, 9, 82, 17
1, 80616, Note_off_c, 4, 31, 95
1, 80640, Note_on_c, 4, 59, 95
1, 80640, Note_on_c, 9, 40, 110
1, 80640, Note_on_c, 9, 42, 110
1, 80640, Note_on_c, 9, 82, 110
1, 80704, Note_off_c, 3, 66, 78
1, 80732, Note_off_c, 9, 40, 17
1, 80732, Note_off_c, 9, 42, 17
1, 80732, Note_off_c, 9, 82, 17
1, 80832, Note_on_c, 9, 36, 125
1, 80832, Note_on_c, 9, 39, 110
1, 80832, Note_on_c, 9, 82, 110
1, 80924, Note_off_c, 9, 36, 17
1, 80924, Note_off_c, 9, 39, 17
1, 80924, Note_off_c, 9, 82, 17
1, 81024, Note_on_c, 4, 60, 95
1, 81024, Note_on_c, 9, 42, 110
1, 81116, Note_off_c, 9, 42, 17
1, 81204, Note_off_c, 4, 59, 95
1, 81216, Note_on_c, 9, 39, 110
1, 81216, Note_on_c, 9, 82, 110
1, 81308, Note_off_c, 9, 39, 17
1, 81308, Note_off_c, 9, 82, 17
1, 81408, Note_off_c, 4, 60, 95
1, 81408, Note_on_c, 4, 62, 95
1, 81408, Note_on_c, 5, 62, 118
1, 81408, Note_on_c, 9, 36, 125
1, 81408, Note_on_c, 9, 42, 110
1, 81500, Note_off_c, 9, 36, 17
1, 81500, Note_off_c, 9, 42, 17
1, 81600, Note_on_c, 9, 82, 110
1, 81692, Note_off_c, 9, 82, 17
1, 81792, Note_on_c, 4, 60, 95
1, 81792, Note_on_c, 5, 60, 124
1, 81792, Note_on_c, 9, 42, 110
1, 81792, Note_on_c, 9, 82, 110
1, 81884, Note_off_c, 9, 42, 17
1, 81884, Note_off_c, 9, 82, 17
1, 81972, Note_off_c, 4, 62, 95
1, 81972, Note_off_c, 5, 62, 109
1, 81984, Note_on_c, 9, 36, 125
1, 81984, Note_on_c, 9, 82, 110
1, 82076, Note_off_c, 9, 36, 17
1, 82076, Note_off_c, 9, 82, 17
1, 82176, Note_on_c, 4, 63, 95
1, 82176, Note_on_c, 5, 63, 127
1, 82176, Note_on_c, 9, 40, 110
1, 82176, Note_on_c, 9, 42, 110
1, 82176, Note_on_c, 9, 82, 110
1, 82268, Note_off_c, 9, 40, 17
1, 82268, Note_off_c, 9, 42, 17
1, 82268, Note_off_c, 9, 82, 17
1, 82356, Note_off_c, 4, 60, 95
1, 82356, Note_off_c, 5, 60, 109
1, 82368, Note_on_c, 9, 36, 125
1, 82368, Note_on_c, 9, 39, 110
1, 82368, Note_on_c, 9, 82, 110
1, 82460, Note_off_c, 9, 36, 17
1, 82460, Note_off_c, 9, 39, 17
1, 82460, Note_off_c, 9, 82, 17
1, 82560, Note_on_c, 9, 42, 110
1, 82652, Note_off_c, 9, 42, 17
1, 82752, Note_on_c, 9, 39, 110
1, 82752, Note_on_c, 9, 82, 110
1, 82816, Note_off_c, 4, 63, 95
1, 82816, Note_off_c, 5, 63, 127
1, 82844, Note_off_c, 9, 39, 17
1, 82844, Note_off_c, 9, 82, 17
1, 82944, Note_on_c, 4, 36, 95
1, 82944, Note_on_c, 9, 36, 125
1, 82944, Note_on_c, 9, 42, 110
1, 83036, Note_off_c, 9, 36, 17
1, 83036, Note_off_c, 9, 42, 17
1, 83136, Note_on_c, 9, 82, 110
1, 83228, Note_off_c, 9, 82, 17
1, 83328, Note_on_c, 9, 42, 110
1, 83328, Note_on_c, 9, 82, 110
1, 83420, Note_off_c, 9, 42, 17
1, 83420, Note_off_c, 9, 82, 17
1, 83520, Note_on_c, 9, 36, 125
1, 83520, Note_on_c, 9, 82, 110
1, 83612, Note_off_c, 9, 36, 17
1, 83612, Note_off_c, 9, 82, 17
1, 83688, Note_off_c, 4, 36, 95
1, 83712, Note_on_c, 9, 40, 110
1, 83712, Note_on_c, 9, 42, 110
1, 83712, Note_on_c, 9, 82, 110
1, 83804, Note_off_c, 9, 40, 17
1, 83804, Note_off_c, 9, 42, 17
1, 83804, Note_off_c, 9, 82, 17
1, 83904, Note_on_c, 9, 36, 125
1, 83904, Note_on_c, 9, 39, 90
1, 83904, Note_on_c, 9, 82, 110
1, 83996, Note_off_c, 9, 36, 17
1, 83996, Note_off_c, 9, 39, 17
1, 83996, Note_off_c, 9, 82, 17
1, 84096, Note_on_c, 9, 42, 110
1, 84188, Note_off_c, 9, 42, 17
1, 84288, Note_on_c, 9, 39, 110
1, 84288, Note_on_c, 9, 82, 110
1, 84380, Note_off_c, 9, 39, 17
1, 84380, Note_off_c, 9, 82, 17
1, 84480, Note_on_c, 9, 36, 125
1, 84480, Note_on_c, 9, 42, 110
1, 84572, Note_off_c, 9, 36, 17
1, 84572, Note_off_c, 9, 42, 17
1, 84672, Note_on_c, 9, 82, 110
1, 84764, Note_off_c, 9, 82, 17
1, 84864, Note_on_c, 9, 42, 110
1, 84864, Note_on_c, 9, 82, 110
1, 84956, Note_off_c, 9, 42, 17
1, 84956, Note_off_c, 9, 82, 17
1, 85056, Note_on_c, 9, 36, 125
1, 85056, Note_on_c, 9, 82, 110
1, 85148, Note_off_c, 9, 36, 17
1, 85148, Note_off_c, 9, 82, 17
1, 85248, Note_on_c, 9, 40, 110
1, 85248, Note_on_c, 9, 42, 110
1, 85248, Note_on_c, 9, 82, 110
1, 85340, Note_off_c, 9, 40, 17
1, 85340, Note_off_c, 9, 42, 17
1, 85340, Note_off_c, 9, 82, 17
1, 85440, Note_on_c, 9, 36, 125
1, 85440, Note_on_c, 9, 39, 90
1, 85440, Note_on_c, 9, 82, 110
1, 85532, Note_off_c, 9, 36, 17
1, 85532, Note_off_c, 9, 39, 17
1, 85532, Note_off_c, 9, 82, 17
1, 85632, Note_on_c, 9, 42, 110
1, 85724, Note_off_c, 9, 42, 17
1, 85824, Note_on_c, 9, 39, 110
1, 85824, Note_on_c, 9, 82, 110
1, 85916, Note_off_c, 9, 82, 17
1, 86016, Note_off_c, 9, 39, 64
1, 86016, Note_on_c, 3, 66, 78
1, 86016, Note_on_c, 4, 31, 95
1, 86016, Note_on_c, 9, 36, 125
1, 86016, Note_on_c, 9, 42, 110
1, 86108, Note_off_c, 9, 36, 17
1, 86108, Note_off_c, 9, 42, 17
1, 86208, Note_on_c, 9, 82, 110
1, 86272, Note_off_c, 3, 66, 78
1, 86300, Note_off_c, 9, 82, 17
1, 86400, Note_on_c, 6, 90, 127
1, 86400, Note_on_c, 9, 36, 125
1, 86400, Note_on_c, 9, 42, 110
1, 86400, Note_on_c, 9, 82, 110
1, 86492, Note_off_c, 9, 36, 17
1, 86492, Note_off_c, 9, 42, 17
1, 86492, Note_off_c, 9, 82, 17
1, 86592, Note_on_c, 3, 66, 78
1, 86592, Note_on_c, 9, 82, 110
1, 86656, Note_off_c, 6, 90, 127
1, 86684, Note_off_c, 9, 82, 17
1, 86760, Note_off_c, 4, 31, 95
1, 86784, Note_on_c, 4, 59, 95
1, 86784, Note_on_c, 9, 42, 110
1, 86784, Note_on_c, 9, 82, 110
1, 86848, Note_off_c, 3, 66, 78
1, 86876, Note_off_c, 9, 42, 17
1, 86876, Note_off_c, 9, 82, 17
1, 86976, Note_on_c, 9, 36, 125
1, 86976, Note_on_c, 9, 39, 110
1, 86976, Note_on_c, 9, 82, 110
1, 87068, Note_off_c, 9, 36, 17
1, 87068, Note_off_c, 9, 39, 17
1, 87068, Note_off_c, 9, 82, 17
1, 87168, Note_on_c, 4, 60, 95
1, 87168, Note_on_c, 9, 42, 110
1, 87260, Note_off_c, 9, 42, 17
1, 87348, Note_off_c, 4, 59, 95
1, 87360, Note_on_c, 9, 39, 110
1, 87360, Note_on_c, 9, 82, 110
1, 87452, Note_off_c, 9, 39, 17
1, 87452, Note_off_c, 9, 82, 17
1, 87552, Note_off_c, 4, 60, 95
1, 87552, Note_on_c, 4, 62, 95
1, 87552, Note_on_c, 5, 62, 118
1, 87552, Note_on_c, 9, 36, 125
1, 87552, Note_on_c, 9, 42, 110
1, 87644, Note_off_c, 9, 36, 17
1, 87644, Note_off_c, 9, 42, 17
1, 87744, Note_on_c, 6, 90, 127
1, 87744, Note_on_c, 9, 82, 110
1, 87836, Note_off_c, 9, 82, 17
1, 87872, Note_off_c, 6, 90, 127
1, 87936, Note_on_c, 4, 60, 95
1, 87936, Note_on_c, 5, 60, 124
1, 87936, Note_on_c, 6, 90, 127
1, 87936, Note_on_c, 9, 42, 110
1, 87936, Note_on_c, 9, 82, 110
1, 88028, Note_off_c, 9, 42, 17
1, 88028, Note_off_c, 9, 82, 17
1, 88064, Note_off_c, 6, 90, 127
1, 88116, Note_off_c, 4, 62, 95
1, 88116, Note_off_c, 5, 62, 109
1, 88128, Note_on_c, 9, 36, 125
1, 88128, Note_on_c, 9, 82, 110
1, 88220, Note_off_c, 9, 36, 17
1, 88220, Note_off_c, 9, 82, 17
1, 88320, Note_on_c, 4, 63, 95
1, 88320, Note_on_c, 5, 63, 127
1, 88320, Note_on_c, 9, 40, 110
1, 88320, Note_on_c, 9, 42, 110
1, 88320, Note_on_c, 9, 82, 110
1, 88412, Note_off_c, 9, 40, 17
1, 88412, Note_off_c, 9, 42, 17
1, 88412, Note_off_c, 9, 82, 17
1, 88500, Note_off_c, 4, 60, 95
1, 88500, Note_off_c, 5, 60, 109
1, 88512, Note_on_c, 9, 36, 125
1, 88512, Note_on_c, 9, 39, 110
1, 88512, Note_on_c, 9, 82, 110
1, 88604, Note_off_c, 9, 36, 17
1, 88604, Note_off_c, 9, 39, 17
1, 88604, Note_off_c, 9, 82, 17
1, 88704, Note_on_c, 9, 42, 110
1, 88796, Note_off_c, 9, 42, 17
1, 88896, Note_on_c, 9, 39, 110
1, 88896, Note_on_c, 9, 82, 110
1, 88960, Note_off_c, 4, 63, 95
1, 88960, Note_off_c, 5, 63, 127
1, 88988, Note_off_c, 9, 39, 17
1, 88988, Note_off_c, 9, 82, 17
1, 89088, Note_on_c, 4, 36, 95
1, 89088, Note_on_c, 9, 36, 125
1, 89088, Note_on_c, 9, 42, 110
1, 89180, Note_off_c, 9, 36, 17
1, 89180, Note_off_c, 9, 42, 17
1, 89280, Note_on_c, 9, 82, 110
1, 89372, Note_off_c, 9, 82, 17
1, 89472, Note_on_c, 6, 90, 127
1, 89472, Note_on_c, 9, 42, 110
1, 89472, Note_on_c, 9, 82, 110
1, 89564, Note_off_c, 9, 42, 17
1, 89564, Note_off_c, 9, 82, 17
1, 89664, Note_on_c, 9, 36, 125
1, 89664, Note_on_c, 9, 82, 110
1, 89728, Note_off_c, 6, 90, 127
1, 89756, Note_off_c, 9, 36, 17
1, 89756, Note_off_c, 9, 82, 17
1, 89832, Note_off_c, 4, 36, 95
1, 89856, Note_on_c, 9, 40, 110
1, 89856, Note_on_c, 9, 42, 110
1, 89856, Note_on_c, 9, 82, 110
1, 89948, Note_off_c, 9, 40, 17
1, 89948, Note_off_c, 9, 42, 17
1, 89948, Note_off_c, 9, 82, 17
1, 90048, Note_on_c, 9, 36, 125
1, 90048, Note_on_c, 9, 39, 90
1, 90048, Note_on_c, 9, 82, 110
1, 90140, Note_off_c, 9, 36, 17
1, 90140, Note_off_c, 9, 39, 17
1, 90140, Note_off_c, 9, 82, 17
1, 90240, Note_on_c, 9, 42, 110
1, 90332, Note_off_c, 9, 42, 17
1, 90432, Note_on_c, 9, 39, 110
1, 90432, Note_on_c, 9, 82, 110
1, 90524, Note_off_c, 9, 39, 17
1, 90524, Note_off_c, 9, 82, 17
1, 90624, Note_on_c, 9, 36, 125
1, 90624, Note_on_c, 9, 42, 110
1, 90716, Note_off_c, 9, 36, 17
1, 90716, Note_off_c, 9, 42, 17
1, 90816, Note_on_c, 6, 90, 127
1, 90816, Note_on_c, 9, 82, 110
1, 90908, Note_off_c, 9, 82, 17
1, 90944, Note_off_c, 6, 90, 127
1, 91008, Note_on_c, 6, 90, 127
1, 91008, Note_on_c, 9, 42, 110
1, 91008, Note_on_c, 9, 82, 110
1, 91100, Note_off_c, 9, 42, 17
1, 91100, Note_off_c, 9, 82, 17
1, 91136, Note_off_c, 6, 90, 127
1, 91200, Note_on_c, 9, 36, 125
1, 91200, Note_on_c, 9, 82, 110
1, 91292, Note_off_c, 9, 36, 17
1, 91292, Note_off_c, 9, 82, 17
1, 91392, Note_on_c, 9, 40, 110
1, 91392, Note_on_c, 9, 42, 110
1, 91392, Note_on_c, 9, 82, 110
1, 91484, Note_off_c, 9, 40, 17
1, 91484, Note_off_c, 9, 42, 17
1, 91484, Note_off_c, 9, 82, 17
1, 91584, Note_on_c, 9, 36, 125
1, 91584, Note_on_c, 9, 39, 90
1, 91584, Note_on_c, 9, 82, 110
1, 91676, Note_off_c, 9, 36, 17
1, 91676, Note_off_c, 9, 39, 17
1, 91676, Note_off_c, 9, 82, 17
1, 91776, Note_on_c, 9, 42, 110
1, 91868, Note_off_c, 9, 42, 17
1, 91968, Note_on_c, 9, 39, 110
1, 91968, Note_on_c, 9, 82, 110
1, 92060, Note_off_c, 9, 39, 17
1, 92060, Note_off_c, 9, 82, 17
1, 92160, Note_on_c, 3, 66, 78
1, 92160, Note_on_c, 4, 31, 95
1, 92160, Note_on_c, 9, 36, 125
1, 92160, Note_on_c, 9, 42, 110
1, 92252, Note_off_c, 9, 36, 17
1, 92252, Note_off_c, 9, 42, 17
1, 92352, Note_on_c, 9, 82, 110
1, 92416, Note_off_c, 3, 66, 78
1, 92444, Note_off_c, 9, 82, 17
1, 92544, Note_on_c, 6, 90, 127
1, 92544, Note_on_c, 9, 42, 110
1, 92544, Note_on_c, 9, 82, 110
1, 92636, Note_off_c, 9, 42, 17
1, 92636, Note_off_c, 9, 82, 17
1, 92736, Note_on_c, 3, 66, 78
1, 92736, Note_on_c, 9, 82, 110
1, 92800, Note_off_c, 6, 90, 127
1, 92828, Note_off_c, 9, 82, 17
1, 92904, Note_off_c, 4, 31, 95
1, 92928, Note_on_c, 4, 59, 95
1, 92928, Note_on_c, 9, 40, 110
1, 92928, Note_on_c, 9, 42, 110
1, 92928, Note_on_c, 9, 82, 110
1, 92992, Note_off_c, 3, 66, 78
1, 93020, Note_off_c, 9, 40, 17
1, 93020, Note_off_c, 9, 42, 17
1, 93020, Note_off_c, 9, 82, 17
1, 93120, Note_on_c, 9, 36, 125
1, 93120, Note_on_c, 9, 39, 110
1, 93120, Note_on_c, 9, 82, 110
1, 93212, Note_off_c, 9, 36, 17
1, 93212, Note_off_c, 9, 39, 17
1, 93212, Note_off_c, 9, 82, 17
1, 93312, Note_on_c, 4, 60, 95
1, 93312, Note_on_c, 9, 42, 110
1, 93404, Note_off_c, 9, 42, 17
1, 93492, Note_off_c, 4, 59, 95
1, 93504, Note_on_c, 9, 39, 110
1, 93504, Note_on_c, 9, 82, 110
1, 93596, Note_off_c, 9, 39, 17
1, 93596, Note_off_c, 9, 82, 17
1, 93696, Note_off_c, 4, 60, 95
1, 93696, Note_on_c, 4, 62, 95
1, 93696, Note_on_c, 5, 62, 118
1, 93696, Note_on_c, 9, 36, 125
1, 93696, Note_on_c, 9, 42, 110
1, 93696, Note_on_c, 9, 36, 125
1, 93788, Note_off_c, 9, 36, 17
1, 93788, Note_off_c, 9, 42, 17
1, 93788, Note_off_c, 9, 36, 17
1, 93888, Note_on_c, 6, 90, 127
1, 93888, Note_on_c, 9, 36, 125
1, 93888, Note_on_c, 9, 36, 125
1, 93888, Note_on_c, 9, 82, 110
1, 93980, Note_off_c, 9, 36, 17
1, 93980, Note_off_c, 9, 36, 17
1, 93980, Note_off_c, 9, 82, 17
1, 94016, Note_off_c, 6, 90, 127
1, 94080, Note_on_c, 4, 60, 95
1, 94080, Note_on_c, 5, 60, 124
1, 94080, Note_on_c, 6, 90, 127
1, 94080, Note_on_c, 9, 42, 110
1, 94080, Note_on_c, 9, 36, 125
1, 94080, Note_on_c, 9, 36, 125
1, 94080, Note_on_c, 9, 82, 110
1, 94172, Note_off_c, 9, 42, 17
1, 94172, Note_off_c, 9, 36, 17
1, 94172, Note_off_c, 9, 36, 17
1, 94172, Note_off_c, 9, 82, 17
1, 94208, Note_off_c, 6, 90, 127
1, 94260, Note_off_c, 4, 62, 95
1, 94260, Note_off_c, 5, 62, 109
1, 94272, Note_on_c, 9, 36, 125
1, 94272, Note_on_c, 9, 36, 125
1, 94272, Note_on_c, 9, 82, 110
1, 94364, Note_off_c, 9, 36, 17
1, 94364, Note_off_c, 9, 36, 17
1, 94364, Note_off_c, 9, 82, 17
1, 94464, Note_on_c, 4, 63, 95
1, 94464, Note_on_c, 5, 63, 127
1, 94464, Note_on_c, 9, 40, 110
1, 94464, Note_on_c, 9, 42, 110
1, 94464, Note_on_c, 9, 82, 110
1, 94556, Note_off_c, 9, 40, 17
1, 94556, Note_off_c, 9, 42, 17
1, 94556, Note_off_c, 9, 82, 17
1, 94644, Note_off_c, 4, 60, 95
1, 94644, Note_off_c, 5, 60, 109
1, 94656, Note_on_c, 9, 36, 125
1, 94656, Note_on_c, 9, 39, 110
1, 94656, Note_on_c, 9, 82, 110
1, 94748, Note_off_c, 9, 36, 17
1, 94748, Note_off_c, 9, 39, 17
1, 94748, Note_off_c, 9, 82, 17
1, 94848, Note_on_c, 9, 42, 110
1, 94940, Note_off_c, 9, 42, 17
1, 95040, Note_on_c, 9, 39, 110
1, 95040, Note_on_c, 9, 82, 110
1, 95104, Note_off_c, 4, 63, 95
1, 95104, Note_off_c, 5, 63, 127
1, 95132, Note_off_c, 9, 39, 17
1, 95132, Note_off_c, 9, 82, 17
1, 95424, Note_on_c, 9, 82, 110
1, 95516, Note_off_c, 9, 82, 17
1, 95616, Note_on_c, 9, 82, 110
1, 95708, Note_off_c, 9, 82, 17
1, 95808, Note_on_c, 9, 82, 110
1, 95900, Note_off_c, 9, 82, 17
1, 96000, Note_on_c, 9, 82, 110
1, 96092, Note_off_c, 9, 82, 17
1, 96192, Note_on_c, 9, 82, 110
1, 96192, Note_on_c, 9, 39, 110
1, 96284, Note_off_c, 9, 82, 17
1, 96284, Note_off_c, 9, 39, 17
1, 96576, Note_on_c, 9, 82, 110
1, 96576, Note_on_c, 9, 39, 110
1, 96668, Note_off_c, 9, 82, 17
1, 96668, Note_off_c, 9, 39, 17
1, 96960, Note_on_c, 9, 82, 110
1, 97052, Note_off_c, 9, 82, 17
1, 97152, Note_on_c, 9, 82, 110
1, 97244, Note_off_c, 9, 82, 17
1, 97344, Note_on_c, 9, 82, 110
1, 97436, Note_off_c, 9, 82, 17
1, 97536, Note_on_c, 9, 82, 110
1, 97628, Note_off_c, 9, 82, 17
1, 97728, Note_on_c, 9, 82, 110
1, 97728, Note_on_c, 9, 39, 110
1, 97820, Note_off_c, 9, 82, 17
1, 97820, Note_off_c, 9, 39, 17
1, 98112, Note_on_c, 9, 82, 110
1, 98112, Note_on_c, 9, 39, 110
1, 98204, Note_off_c, 9, 82, 17
1, 98204, Note_off_c, 9, 39, 17
1, 98304, Note_on_c, 0, 49, 110
1, 98304, Note_on_c, 1, 68, 110
1, 98304, Note_on_c, 1, 73, 110
1, 98304, Note_on_c, 1, 76, 110
1, 98304, Note_on_c, 3, 66, 78
1, 98304, Note_on_c, 9, 36, 125
1, 98304, Note_on_c, 9, 42, 110
1, 98396, Note_off_c, 9, 36, 17
1, 98396, Note_off_c, 9, 42, 17
1, 98496, Note_on_c, 9, 82, 110
1, 98560, Note_off_c, 3, 66, 78
1, 98588, Note_off_c, 9, 82, 17
1, 98688, Note_on_c, 9, 82, 110
1, 98688, Note_on_c, 9, 42, 110
1, 98780, Note_off_c, 9, 82, 17
1, 98780, Note_off_c, 9, 42, 17
1, 98880, Note_on_c, 3, 66, 78
1, 98880, Note_on_c, 9, 82, 110
1, 98880, Note_on_c, 9, 36, 125
1, 98972, Note_off_c, 9, 82, 17
1, 98972, Note_off_c, 9, 36, 17
1, 99072, Note_on_c, 2, 62, 127
1, 99072, Note_on_c, 9, 82, 110
1, 99072, Note_on_c, 9, 40, 110
1, 99072, Note_on_c, 9, 42, 110
1, 99136, Note_off_c, 3, 66, 78
1, 99164, Note_off_c, 9, 82, 17
1, 99164, Note_off_c, 9, 40, 17
1, 99164, Note_off_c, 9, 42, 17
1, 99260, Note_off_c, 2, 62, 24
1, 99264, Note_on_c, 2, 64, 127
1, 99264, Note_on_c, 9, 36, 125
1, 99264, Note_on_c, 9, 39, 110
1, 99308, Note_off_c, 0, 49, 17
1, 99356, Note_off_c, 9, 36, 17
1, 99356, Note_off_c, 9, 39, 17
1, 99452, Note_off_c, 2, 64, 24
1, 99456, Note_on_c, 0, 42, 110
1, 99456, Note_on_c, 2, 66, 127
1, 99456, Note_on_c, 9, 42, 110
1, 99548, Note_off_c, 9, 42, 17
1, 99620, Note_off_c, 0, 42, 17
1, 99644, Note_off_c, 2, 66, 24
1, 99648, Note_on_c, 0, 46, 110
1, 99648, Note_on_c, 2, 71, 127
1, 99648, Note_on_c, 9, 39, 110
1, 99740, Note_off_c, 1, 68, 17
1, 99740, Note_off_c, 1, 73, 17
1, 99740, Note_off_c, 1, 76, 17
1, 99740, Note_off_c, 9, 39, 17
1, 99812, Note_off_c, 0, 46, 17
1, 99836, Note_off_c, 2, 71, 24
1, 99840, Note_on_c, 0, 47, 110
1, 99840, Note_on_c, 1, 66, 110
1, 99840, Note_on_c, 1, 71, 110
1, 99840, Note_on_c, 1, 73, 110
1, 99840, Note_on_c, 2, 70, 127
1, 99840, Note_on_c, 9, 36, 125
1, 99840, Note_on_c, 9, 42, 110
1, 99932, Note_off_c, 9, 36, 17
1, 99932, Note_off_c, 9, 42, 17
1, 100028, Note_off_c, 2, 70, 24
1, 100032, Note_on_c, 2, 71, 127
1, 100032, Note_on_c, 9, 82, 110
1, 100124, Note_off_c, 9, 82, 17
1, 100220, Note_off_c, 2, 71, 24
1, 100224, Note_on_c, 2, 73, 127
1, 100224, Note_on_c, 9, 42, 110
1, 100224, Note_on_c, 9, 82, 110
1, 100316, Note_off_c, 9, 42, 17
1, 100316, Note_off_c, 9, 82, 17
1, 100412, Note_off_c, 2, 73, 24
1, 100416, Note_on_c, 2, 74, 127
1, 100416, Note_on_c, 9, 36, 125
1, 100416, Note_on_c, 9, 82, 110
1, 100508, Note_off_c, 9, 36, 17
1, 100508, Note_off_c, 9, 82, 17
1, 100604, Note_off_c, 2, 74, 24
1, 100608, Note_on_c, 2, 76, 127
1, 100608, Note_on_c, 9, 40, 110
1, 100608, Note_on_c, 9, 42, 110
1, 100608, Note_on_c, 9, 82, 110
1, 100700, Note_off_c, 9, 40, 17
1, 100700, Note_off_c, 9, 42, 17
1, 100700, Note_off_c, 9, 82, 17
1, 100796, Note_off_c, 2, 76, 24
1, 100800, Note_on_c, 2, 79, 127
1, 100800, Note_on_c, 9, 36, 125
1, 100800, Note_on_c, 9, 39, 110
1, 100800, Note_on_c, 9, 82, 110
1, 100892, Note_off_c, 9, 36, 17
1, 100892, Note_off_c, 9, 39, 17
1, 100892, Note_off_c, 9, 82, 17
1, 100916, Note_off_c, 1, 66, 17
1, 100916, Note_off_c, 1, 71, 17
1, 100916, Note_off_c, 1, 73, 17
1, 100988, Note_off_c, 2, 79, 24
1, 100992, Note_on_c, 1, 66, 110
1, 100992, Note_on_c, 1, 71, 110
1, 100992, Note_on_c, 1, 73, 110
1, 100992, Note_on_c, 2, 82, 127
1, 100992, Note_on_c, 9, 42, 110
1, 101084, Note_off_c, 9, 42, 17
1, 101180, Note_off_c, 0, 47, 17
1, 101180, Note_off_c, 2, 82, 24
1, 101184, Note_on_c, 2, 83, 127
1, 101184, Note_on_c, 9, 39, 110
1, 101276, Note_off_c, 9, 39, 17
1, 101340, Note_off_c, 2, 83, 24
1, 101348, Note_off_c, 1, 66, 17
1, 101348, Note_off_c, 1, 71, 17
1, 101348, Note_off_c, 1, 73, 17
1, 101376, Note_on_c, 0, 47, 110
1, 101376, Note_on_c, 1, 66, 110
1, 101376, Note_on_c, 1, 71, 110
1, 101376, Note_on_c, 1, 74, 110
1, 101376, Note_on_c, 3, 71, 78
1, 101376, Note_on_c, 9, 36, 125
1, 101376, Note_on_c, 9, 42, 110
1, 101468, Note_off_c, 9, 36, 17
1, 101468, Note_off_c, 9, 42, 17
1, 101568, Note_on_c, 9, 82, 110
1, 101632, Note_off_c, 3, 71, 78
1, 101660, Note_off_c, 9, 82, 17
1, 101760, Note_on_c, 9, 42, 110
1, 101760, Note_on_c, 9, 82, 110
1, 101852, Note_off_c, 9, 42, 17
1, 101852, Note_off_c, 9, 82, 17
1, 101952, Note_on_c, 3, 71, 78
1, 101952, Note_on_c, 9, 36, 125
1, 101952, Note_on_c, 9, 82, 110
1, 102044, Note_off_c, 9, 36, 17
1, 102044, Note_off_c, 9, 82, 17
1, 102144, Note_on_c, 9, 40, 110
1, 102144, Note_on_c, 9, 42, 110
1, 102144, Note_on_c, 9, 82, 110
1, 102208, Note_off_c, 3, 71, 78
1, 102236, Note_off_c, 9, 40, 17
1, 102236, Note_off_c, 9, 42, 17
1, 102236, Note_off_c, 9, 82, 17
1, 102336, Note_on_c, 2, 59, 127
1, 102336, Note_on_c, 9, 36, 125
1, 102336, Note_on_c, 9, 39, 90
1, 102380, Note_off_c, 0, 47, 17
1, 102428, Note_off_c, 9, 36, 17
1, 102428, Note_off_c, 9, 39, 17
1, 102452, Note_off_c, 1, 66, 17
1, 102452, Note_off_c, 1, 71, 17
1, 102452, Note_off_c, 1, 74, 17
1, 102524, Note_off_c, 2, 59, 24
1, 102528, Note_on_c, 0, 47, 110
1, 102528, Note_on_c, 1, 66, 110
1, 102528, Note_on_c, 1, 71, 110
1, 102528, Note_on_c, 1, 74, 110
1, 102528, Note_on_c, 2, 62, 127
1, 102528, Note_on_c, 9, 42, 110
1, 102528, Note_on_c, 9, 82, 110
1, 102620, Note_off_c, 2, 62, 24
1, 102620, Note_off_c, 9, 42, 17
1, 102620, Note_off_c, 9, 82, 17
1, 102720, Note_on_c, 2, 59, 127
1, 102720, Note_on_c, 9, 39, 110
1, 102812, Note_off_c, 9, 39, 17
1, 102860, Note_off_c, 0, 47, 17
1, 102884, Note_off_c, 1, 66, 17
1, 102884, Note_off_c, 1, 71, 17
1, 102884, Note_off_c, 1, 74, 17
1, 102908, Note_off_c, 2, 59, 24
1, 102912, Note_on_c, 0, 47, 110
1, 102912, Note_on_c, 1, 66, 110
1, 102912, Note_on_c, 1, 71, 110
1, 102912, Note_on_c, 1, 74, 110
1, 102912, Note_on_c, 2, 62, 127
1, 102912, Note_on_c, 9, 36, 125
1, 102912, Note_on_c, 9, 42, 110
1, 103004, Note_off_c, 2, 62, 24
1, 103004, Note_off_c, 9, 36, 17
1, 103004, Note_off_c, 9, 42, 17
1, 103104, Note_on_c, 9, 82, 110
1, 103196, Note_off_c, 9, 82, 17
1, 103296, Note_on_c, 9, 42, 110
1, 103296, Note_on_c, 9, 82, 110
1, 103388, Note_off_c, 9, 42, 17
1, 103388, Note_off_c, 9, 82, 17
1, 103488, Note_on_c, 9, 36, 125
1, 103488, Note_on_c, 9, 82, 110
1, 103580, Note_off_c, 9, 36, 17
1, 103580, Note_off_c, 9, 82, 17
1, 103680, Note_on_c, 9, 40, 110
1, 103680, Note_on_c, 9, 42, 110
1, 103680, Note_on_c, 9, 82, 110
1, 103748, Note_off_c, 0, 47, 17
1, 103772, Note_off_c, 9, 40, 17
1, 103772, Note_off_c, 9, 42, 17
1, 103772, Note_off_c, 9, 82, 17
1, 103872, Note_on_c, 0, 47, 110
1, 103872, Note_on_c, 2, 59, 127
1, 103872, Note_on_c, 9, 36, 125
1, 103872, Note_on_c, 9, 39, 90
1, 103872, Note_on_c, 9, 82, 110
1, 103964, Note_off_c, 9, 36, 17
1, 103964, Note_off_c, 9, 39, 17
1, 103964, Note_off_c, 9, 82, 17
1, 103988, Note_off_c, 1, 66, 17
1, 103988, Note_off_c, 1, 71, 17
1, 103988, Note_off_c, 1, 74, 17
1, 104036, Note_off_c, 0, 47, 17
1, 104060, Note_off_c, 2, 59, 24
1, 104064, Note_on_c, 0, 49, 110
1, 104064, Note_on_c, 1, 68, 110
1, 104064, Note_on_c, 1, 73, 110
1, 104064, Note_on_c, 1, 76, 110
1, 104064, Note_on_c, 2, 62, 127
1, 104064, Note_on_c, 9, 42, 110
1, 104156, Note_off_c, 2, 62, 24
1, 104156, Note_off_c, 9, 42, 17
1, 104228, Note_off_c, 0, 49, 17
1, 104256, Note_on_c, 0, 47, 110
1, 104256, Note_on_c, 2, 59, 127
1, 104256, Note_on_c, 9, 39, 110
1, 104256, Note_on_c, 9, 82, 110
1, 104348, Note_off_c, 9, 39, 17
1, 104348, Note_off_c, 9, 82, 17
1, 104420, Note_off_c, 0, 47, 17
1, 104420, Note_off_c, 1, 68, 17
1, 104420, Note_off_c, 1, 73, 17
1, 104420, Note_off_c, 1, 76, 17
1, 104444, Note_off_c, 2, 59, 24
1, 104448, Note_on_c, 0, 49, 110
1, 104448, Note_on_c, 1, 68, 110
1, 104448, Note_on_c, 1, 73, 110
1, 104448, Note_on_c, 1, 76, 110
1, 104448, Note_on_c, 3, 66, 78
1, 104448, Note_on_c, 9, 36, 125
1, 104448, Note_on_c, 9, 42, 110
1, 104540, Note_off_c, 9, 36, 17
1, 104540, Note_off_c, 9, 42, 17
1, 104640, Note_on_c, 9, 82, 110
1, 104704, Note_off_c, 3, 66, 78
1, 104732, Note_off_c, 9, 82, 17
1, 104832, Note_on_c, 9, 42, 110
1, 104832, Note_on_c, 9, 82, 110
1, 104924, Note_off_c, 9, 42, 17
1, 104924, Note_off_c, 9, 82, 17
1, 105024, Note_on_c, 3, 66, 78
1, 105024, Note_on_c, 9, 82, 110
1, 105116, Note_off_c, 9, 82, 17
1, 105216, Note_on_c, 2, 62, 127
1, 105216, Note_on_c, 9, 40, 110
1, 105216, Note_on_c, 9, 42, 110
1, 105216, Note_on_c, 9, 82, 110
1, 105280, Note_off_c, 3, 66, 78
1, 105308, Note_off_c, 9, 40, 17
1, 105308, Note_off_c, 9, 42, 17
1, 105308, Note_off_c, 9, 82, 17
1, 105404, Note_off_c, 2, 62, 24
1, 105408, Note_on_c, 2, 64, 127
1, 105408, Note_on_c, 9, 36, 125
1, 105408, Note_on_c, 9, 39, 110
1, 105452, Note_off_c, 0, 49, 17
1, 105500, Note_off_c, 9, 36, 17
1, 105500, Note_off_c, 9, 39, 17
1, 105596, Note_off_c, 2, 64, 24
1, 105600, Note_on_c, 0, 42, 110
1, 105600, Note_on_c, 2, 66, 127
1, 105600, Note_on_c, 9, 42, 110
1, 105692, Note_off_c, 9, 42, 17
1, 105764, Note_off_c, 0, 42, 17
1, 105788, Note_off_c, 2, 66, 24
1, 105792, Note_on_c, 0, 46, 110
1, 105792, Note_on_c, 2, 71, 127
1, 105792, Note_on_c, 9, 39, 110
1, 105884, Note_off_c, 1, 68, 17
1, 105884, Note_off_c, 1, 73, 17
1, 105884, Note_off_c, 1, 76, 17
1, 105884, Note_off_c, 9, 39, 17
1, 105956, Note_off_c, 0, 46, 17
1, 105980, Note_off_c, 2, 71, 24
1, 105984, Note_on_c, 0, 47, 110
1, 105984, Note_on_c, 1, 66, 110
1, 105984, Note_on_c, 1, 71, 110
1, 105984, Note_on_c, 1, 73, 110
1, 105984, Note_on_c, 2, 70, 127
1, 105984, Note_on_c, 9, 36, 125
1, 105984, Note_on_c, 9, 42, 110
1, 106076, Note_off_c, 9, 36, 17
1, 106076, Note_off_c, 9, 42, 17
1, 106172, Note_off_c, 2, 70, 24
1, 106176, Note_on_c, 2, 71, 127
1, 106176, Note_on_c, 9, 82, 110
1, 106268, Note_off_c, 9, 82, 17
1, 106364, Note_off_c, 2, 71, 24
1, 106368, Note_on_c, 2, 73, 127
1, 106368, Note_on_c, 9, 42, 110
1, 106368, Note_on_c, 9, 82, 110
1, 106460, Note_off_c, 9, 42, 17
1, 106460, Note_off_c, 9, 82, 17
1, 106556, Note_off_c, 2, 73, 24
1, 106560, Note_on_c, 2, 74, 127
1, 106560, Note_on_c, 9, 36, 125
1, 106560, Note_on_c, 9, 82, 110
1, 106652, Note_off_c, 9, 36, 17
1, 106652, Note_off_c, 9, 82, 17
1, 106748, Note_off_c, 2, 74, 24
1, 106752, Note_on_c, 2, 76, 127
1, 106752, Note_on_c, 9, 40, 110
1, 106752, Note_on_c, 9, 42, 110
1, 106752, Note_on_c, 9, 82, 110
1, 106844, Note_off_c, 9, 40, 17
1, 106844, Note_off_c, 9, 42, 17
1, 106844, Note_off_c, 9, 82, 17
1, 106940, Note_off_c, 2, 76, 24
1, 106944, Note_on_c, 2, 79, 127
1, 106944, Note_on_c, 9, 36, 125
1, 106944, Note_on_c, 9, 39, 110
1, 106944, Note_on_c, 9, 82, 110
1, 107036, Note_off_c, 9, 36, 17
1, 107036, Note_off_c, 9, 39, 17
1, 107036, Note_off_c, 9, 82, 17
1, 107060, Note_off_c, 1, 66, 17
1, 107060, Note_off_c, 1, 71, 17
1, 107060, Note_off_c, 1, 73, 17
1, 107132, Note_off_c, 2, 79, 24
1, 107136, Note_on_c, 1, 66, 110
1, 107136, Note_on_c, 1, 71, 110
1, 107136, Note_on_c, 1, 73, 110
1, 107136, Note_on_c, 2, 82, 127
1, 107136, Note_on_c, 9, 42, 110
1, 107228, Note_off_c, 9, 42, 17
1, 107324, Note_off_c, 0, 47, 17
1, 107324, Note_off_c, 2, 82, 24
1, 107328, Note_on_c, 2, 83, 127
1, 107328, Note_on_c, 9, 39, 110
1, 107420, Note_off_c, 9, 39, 17
1, 107484, Note_off_c, 2, 83, 24
1, 107492, Note_off_c, 1, 66, 17
1, 107492, Note_off_c, 1, 71, 17
1, 107492, Note_off_c, 1, 73, 17
1, 107520, Note_on_c, 0, 47, 110
1, 107520, Note_on_c, 1, 66, 110
1, 107520, Note_on_c, 1, 71, 110
1, 107520, Note_on_c, 1, 74, 110
1, 107520, Note_on_c, 3, 71, 78
1, 107520, Note_on_c, 9, 36, 125
1, 107520, Note_on_c, 9, 42, 110
1, 107612, Note_off_c, 9, 36, 17
1, 107612, Note_off_c, 9, 42, 17
1, 107712, Note_on_c, 9, 82, 110
1, 107776, Note_off_c, 3, 71, 78
1, 107804, Note_off_c, 9, 82, 17
1, 107904, Note_on_c, 2, 59, 127
1, 107904, Note_on_c, 9, 42, 110
1, 107904, Note_on_c, 9, 82, 110
1, 107996, Note_off_c, 9, 42, 17
1, 107996, Note_off_c, 9, 82, 17
1, 108092, Note_off_c, 2, 59, 24
1, 108096, Note_on_c, 2, 61, 127
1, 108096, Note_on_c, 3, 71, 78
1, 108096, Note_on_c, 9, 36, 125
1, 108096, Note_on_c, 9, 82, 110
1, 108188, Note_off_c, 2, 61, 24
1, 108188, Note_off_c, 9, 36, 17
1, 108188, Note_off_c, 9, 82, 17
1, 108288, Note_on_c, 9, 40, 110
1, 108288, Note_on_c, 9, 42, 110
1, 108288, Note_on_c, 9, 82, 110
1, 108352, Note_off_c, 3, 71, 78
1, 108380, Note_off_c, 9, 40, 17
1, 108380, Note_off_c, 9, 42, 17
1, 108380, Note_off_c, 9, 82, 17
1, 108480, Note_on_c, 9, 36, 125
1, 108480, Note_on_c, 9, 39, 90
1, 108524, Note_off_c, 0, 47, 17
1, 108572, Note_off_c, 9, 36, 17
1, 108572, Note_off_c, 9, 39, 17
1, 108596, Note_off_c, 1, 66, 17
1, 108596, Note_off_c, 1, 71, 17
1, 108596, Note_off_c, 1, 74, 17
1, 108672, Note_on_c, 0, 47, 110
1, 108672, Note_on_c, 1, 66, 110
1, 108672, Note_on_c, 1, 71, 110
1, 108672, Note_on_c, 1, 74, 110
1, 108672, Note_on_c, 2, 59, 127
1, 108672, Note_on_c, 9, 42, 110
1, 108672, Note_on_c, 9, 82, 110
1, 108764, Note_off_c, 9, 42, 17
1, 108764, Note_off_c, 9, 82, 17
1, 108860, Note_off_c, 2, 59, 24
1, 108864, Note_on_c, 9, 39, 110
1, 108956, Note_off_c, 9, 39, 17
1, 109004, Note_off_c, 0, 47, 17
1, 109028, Note_off_c, 1, 66, 17
1, 109028, Note_off_c, 1, 71, 17
1, 109028, Note_off_c, 1, 74, 17
1, 109056, Note_on_c, 0, 47, 110
1, 109056, Note_on_c, 1, 66, 110
1, 109056, Note_on_c, 1, 71, 110
1, 109056, Note_on_c, 1, 74, 110
1, 109056, Note_on_c, 9, 36, 125
1, 109056, Note_on_c, 9, 42, 110
1, 109148, Note_off_c, 9, 36, 17
1, 109148, Note_off_c, 9, 42, 17
1, 109248, Note_on_c, 9, 82, 110
1, 109340, Note_off_c, 9, 82, 17
1, 109440, Note_on_c, 2, 59, 127
1, 109440, Note_on_c, 9, 42, 110
1, 109440, Note_on_c, 9, 82, 110
1, 109532, Note_off_c, 9, 42, 17
1, 109532, Note_off_c, 9, 82, 17
1, 109556, Note_off_c, 0, 47, 17
1, 109628, Note_off_c, 2, 59, 24
1, 109632, Note_on_c, 0, 47, 110
1, 109632, Note_on_c, 2, 61, 127
1, 109632, Note_on_c, 9, 36, 125
1, 109632, Note_on_c, 9, 82, 110
1, 109724, Note_off_c, 2, 61, 24
1, 109724, Note_off_c, 9, 36, 17
1, 109724, Note_off_c, 9, 82, 17
1, 109772, Note_off_c, 1, 66, 17
1, 109772, Note_off_c, 1, 71, 17
1, 109772, Note_off_c, 1, 74, 17
1, 109824, Note_on_c, 1, 66, 110
1, 109824, Note_on_c, 1, 71, 110
1, 109824, Note_on_c, 1, 74, 110
1, 109824, Note_on_c, 9, 40, 110
1, 109824, Note_on_c, 9, 42, 110
1, 109824, Note_on_c, 9, 82, 110
1, 109916, Note_off_c, 9, 40, 17
1, 109916, Note_off_c, 9, 42, 17
1, 109916, Note_off_c, 9, 82, 17
1, 110016, Note_on_c, 9, 36, 125
1, 110016, Note_on_c, 9, 39, 90
1, 110016, Note_on_c, 9, 82, 110
1, 110080, Note_off_c, 1, 66, 64
1, 110080, Note_off_c, 1, 71, 64
1, 110080, Note_off_c, 1, 74, 64
1, 110108, Note_off_c, 9, 36, 17
1, 110108, Note_off_c, 9, 39, 17
1, 110108, Note_off_c, 9, 82, 17
1, 110132, Note_off_c, 0, 47, 17
1, 110208, Note_on_c, 0, 47, 110
1, 110208, Note_on_c, 2, 59, 127
1, 110208, Note_on_c, 9, 42, 110
1, 110300, Note_off_c, 9, 42, 17
1, 110372, Note_off_c, 0, 47, 17
1, 110396, Note_off_c, 2, 59, 24
1, 110400, Note_on_c, 0, 49, 110
1, 110400, Note_on_c, 9, 39, 110
1, 110400, Note_on_c, 9, 82, 110
1, 110592, Note_off_c, 0, 49, 64
1, 110592, Note_off_c, 9, 39, 64
1, 110592, Note_off_c, 9, 82, 64
1, 110592, Note_on_c, 0, 49, 110
1, 110592, Note_on_c, 1, 68, 110
1, 110592, Note_on_c, 1, 73, 110
1, 110592, Note_on_c, 1, 76, 110
1, 110592, Note_on_c, 3, 66, 78
1, 110592, Note_on_c, 9, 36, 125
1, 110592, Note_on_c, 9, 42, 110
1, 110684, Note_off_c, 9, 36, 17
1, 110684, Note_off_c, 9, 42, 17
1, 110784, Note_on_c, 9, 82, 110
1, 110848, Note_off_c, 3, 66, 78
1, 110876, Note_off_c, 9, 82, 17
1, 110976, Note_on_c, 9, 36, 125
1, 110976, Note_on_c, 9, 42, 110
1, 110976, Note_on_c, 9, 82, 110
1, 111068, Note_off_c, 9, 36, 17
1, 111068, Note_off_c, 9, 42, 17
1, 111068, Note_off_c, 9, 82, 17
1, 111168, Note_on_c, 3, 66, 78
1, 111168, Note_on_c, 9, 82, 110
1, 111260, Note_off_c, 9, 82, 17
1, 111360, Note_on_c, 2, 62, 127
1, 111360, Note_on_c, 9, 42, 110
1, 111360, Note_on_c, 9, 82, 110
1, 111424, Note_off_c, 3, 66, 78
1, 111452, Note_off_c, 9, 42, 17
1, 111452, Note_off_c, 9, 82, 17
1, 111548, Note_off_c, 2, 62, 24
1, 111552, Note_on_c, 2, 64, 127
1, 111552, Note_on_c, 9, 36, 125
1, 111552, Note_on_c, 9, 39, 110
1, 111596, Note_off_c, 0, 49, 17
1, 111644, Note_off_c, 9, 36, 17
1, 111644, Note_off_c, 9, 39, 17
1, 111740, Note_off_c, 2, 64, 24
1, 111744, Note_on_c, 0, 42, 110
1, 111744, Note_on_c, 2, 66, 127
1, 111744, Note_on_c, 9, 42, 110
1, 111836, Note_off_c, 9, 42, 17
1, 111908, Note_off_c, 0, 42, 17
1, 111932, Note_off_c, 2, 66, 24
1, 111936, Note_on_c, 0, 46, 110
1, 111936, Note_on_c, 2, 71, 127
1, 111936, Note_on_c, 9, 39, 110
1, 112028, Note_off_c, 1, 68, 17
1, 112028, Note_off_c, 1, 73, 17
1, 112028, Note_off_c, 1, 76, 17
1, 112028, Note_off_c, 9, 39, 17
1, 112100, Note_off_c, 0, 46, 17
1, 112124, Note_off_c, 2, 71, 24
1, 112128, Note_on_c, 0, 47, 110
1, 112128, Note_on_c, 1, 66, 110
1, 112128, Note_on_c, 1, 71, 110
1, 112128, Note_on_c, 1, 73, 110
1, 112128, Note_on_c, 2, 70, 127
1, 112128, Note_on_c, 9, 36, 125
1, 112128, Note_on_c, 9, 42, 110
1, 112220, Note_off_c, 9, 36, 17
1, 112220, Note_off_c, 9, 42, 17
1, 112316, Note_off_c, 2, 70, 24
1, 112320, Note_on_c, 2, 71, 127
1, 112320, Note_on_c, 9, 82, 110
1, 112412, Note_off_c, 9, 82, 17
1, 112508, Note_off_c, 2, 71, 24
1, 112512, Note_on_c, 2, 73, 127
1, 112512, Note_on_c, 9, 42, 110
1, 112512, Note_on_c, 9, 82, 110
1, 112604, Note_off_c, 9, 42, 17
1, 112604, Note_off_c, 9, 82, 17
1, 112700, Note_off_c, 2, 73, 24
1, 112704, Note_on_c, 2, 74, 127
1, 112704, Note_on_c, 9, 36, 125
1, 112704, Note_on_c, 9, 82, 110
1, 112796, Note_off_c, 9, 36, 17
1, 112796, Note_off_c, 9, 82, 17
1, 112892, Note_off_c, 2, 74, 24
1, 112896, Note_on_c, 2, 76, 127
1, 112896, Note_on_c, 9, 40, 110
1, 112896, Note_on_c, 9, 42, 110
1, 112896, Note_on_c, 9, 82, 110
1, 112988, Note_off_c, 9, 40, 17
1, 112988, Note_off_c, 9, 42, 17
1, 112988, Note_off_c, 9, 82, 17
1, 113084, Note_off_c, 2, 76, 24
1, 113088, Note_on_c, 2, 79, 127
1, 113088, Note_on_c, 9, 36, 125
1, 113088, Note_on_c, 9, 39, 110
1, 113088, Note_on_c, 9, 82, 110
1, 113180, Note_off_c, 9, 36, 17
1, 113180, Note_off_c, 9, 39, 17
1, 113180, Note_off_c, 9, 82, 17
1, 113204, Note_off_c, 1, 66, 17
1, 113204, Note_off_c, 1, 71, 17
1, 113204, Note_off_c, 1, 73, 17
1, 113276, Note_off_c, 2, 79, 24
1, 113280, Note_on_c, 1, 66, 110
1, 113280, Note_on_c, 1, 71, 110
1, 113280, Note_on_c, 1, 73, 110
1, 113280, Note_on_c, 2, 82, 127
1, 113280, Note_on_c, 9, 42, 110
1, 113372, Note_off_c, 9, 42, 17
1, 113468, Note_off_c, 0, 47, 17
1, 113468, Note_off_c, 2, 82, 24
1, 113472, Note_on_c, 2, 83, 127
1, 113472, Note_on_c, 9, 39, 110
1, 113564, Note_off_c, 9, 39, 17
1, 113628, Note_off_c, 2, 83, 24
1, 113636, Note_off_c, 1, 66, 17
1, 113636, Note_off_c, 1, 71, 17
1, 113636, Note_off_c, 1, 73, 17
1, 113664, Note_on_c, 0, 47, 110
1, 113664, Note_on_c, 1, 66, 110
1, 113664, Note_on_c, 1, 71, 110
1, 113664, Note_on_c, 1, 74, 110
1, 113664, Note_on_c, 3, 71, 78
1, 113664, Note_on_c, 9, 36, 125
1, 113664, Note_on_c, 9, 42, 110
1, 113756, Note_off_c, 9, 36, 17
1, 113756, Note_off_c, 9, 42, 17
1, 113856, Note_on_c, 9, 82, 110
1, 113920, Note_off_c, 3, 71, 78
1, 113948, Note_off_c, 9, 82, 17
1, 114048, Note_on_c, 9, 42, 110
1, 114048, Note_on_c, 9, 82, 110
1, 114140, Note_off_c, 9, 42, 17
1, 114140, Note_off_c, 9, 82, 17
1, 114240, Note_on_c, 3, 71, 78
1, 114240, Note_on_c, 9, 36, 125
1, 114240, Note_on_c, 9, 82, 110
1, 114332, Note_off_c, 9, 36, 17
1, 114332, Note_off_c, 9, 82, 17
1, 114432, Note_on_c, 9, 40, 110
1, 114432, Note_on_c, 9, 42, 110
1, 114432, Note_on_c, 9, 82, 110
1, 114496, Note_off_c, 3, 71, 78
1, 114524, Note_off_c, 9, 40, 17
1, 114524, Note_off_c, 9, 42, 17
1, 114524, Note_off_c, 9, 82, 17
1, 114624, Note_on_c, 2, 59, 127
1, 114624, Note_on_c, 9, 36, 125
1, 114624, Note_on_c, 9, 39, 90
1, 114668, Note_off_c, 0, 47, 17
1, 114716, Note_off_c, 9, 36, 17
1, 114716, Note_off_c, 9, 39, 17
1, 114740, Note_off_c, 1, 66, 17
1, 114740, Note_off_c, 1, 71, 17
1, 114740, Note_off_c, 1, 74, 17
1, 114812, Note_off_c, 2, 59, 24
1, 114816, Note_on_c, 0, 47, 110
1, 114816, Note_on_c, 1, 66, 110
1, 114816, Note_on_c, 1, 71, 110
1, 114816, Note_on_c, 1, 74, 110
1, 114816, Note_on_c, 2, 62, 127
1, 114816, Note_on_c, 9, 42, 110
1, 114816, Note_on_c, 9, 82, 110
1, 114908, Note_off_c, 2, 62, 24
1, 114908, Note_off_c, 9, 42, 17
1, 114908, Note_off_c, 9, 82, 17
1, 115008, Note_on_c, 2, 59, 127
1, 115008, Note_on_c, 9, 39, 110
1, 115100, Note_off_c, 9, 39, 17
1, 115148, Note_off_c, 0, 47, 17
1, 115172, Note_off_c, 1, 66, 17
1, 115172, Note_off_c, 1, 71, 17
1, 115172, Note_off_c, 1, 74, 17
1, 115196, Tempo, 408163
1, 115196, Note_on_c, 0, 47, 110
1, 115196, Note_on_c, 1, 66, 110
1, 115196, Note_on_c, 1, 71, 110
1, 115196, Note_on_c, 1, 74, 110
1, 115196, Note_off_c, 2, 59, 24
1, 115196, Note_on_c, 2, 62, 127
1, 115196, Note_on_c, 9, 36, 125
1, 115196, Note_on_c, 9, 42, 110
1, 115196, Tempo, 408163
1, 115284, Note_off_c, 2, 62, 77
1, 115284, Note_off_c, 9, 36, 64
1, 115284, Note_off_c, 9, 42, 64
1, 115384, Note_on_c, 9, 82, 110
1, 115476, Note_off_c, 9, 82, 17
1, 115576, Note_on_c, 9, 42, 110
1, 115576, Note_on_c, 9, 82, 110
1, 115668, Note_off_c, 9, 42, 17
1, 115668, Note_off_c, 9, 82, 17
1, 115768, Note_on_c, 9, 36, 125
1, 115768, Note_on_c, 9, 82, 110
1, 115860, Note_off_c, 9, 36, 17
1, 115860, Note_off_c, 9, 82, 17
1, 115960, Note_on_c, 9, 40, 110
1, 115960, Note_on_c, 9, 42, 110
1, 115960, Note_on_c, 9, 82, 110
1, 116028, Note_off_c, 0, 47, 64
1, 116052, Note_off_c, 9, 40, 17
1, 116052, Note_off_c, 9, 42, 17
1, 116052, Note_off_c, 9, 82, 17
1, 116152, Note_on_c, 0, 47, 110
1, 116152, Note_on_c, 2, 59, 127
1, 116152, Note_on_c, 9, 36, 125
1, 116152, Note_on_c, 9, 39, 90
1, 116152, Note_on_c, 9, 82, 110
1, 116244, Note_off_c, 9, 36, 17
1, 116244, Note_off_c, 9, 39, 17
1, 116244, Note_off_c, 9, 82, 17
1, 116268, Note_off_c, 1, 66, 64
1, 116268, Note_off_c, 1, 71, 64
1, 116268, Note_off_c, 1, 74, 64
1, 116316, Note_off_c, 0, 47, 17
1, 116340, Note_off_c, 2, 59, 24
1, 116344, Note_on_c, 0, 49, 110
1, 116344, Note_on_c, 1, 68, 110
1, 116344, Note_on_c, 1, 73, 110
1, 116344, Note_on_c, 1, 76, 110
1, 116344, Note_on_c, 2, 62, 127
1, 116344, Note_on_c, 9, 42, 110
1, 116436, Note_off_c, 2, 62, 24
1, 116436, Note_off_c, 9, 42, 17
1, 116508, Note_off_c, 0, 49, 17
1, 116536, Note_on_c, 0, 47, 110
1, 116536, Note_on_c, 2, 59, 127
1, 116536, Note_on_c, 9, 39, 110
1, 116536, Note_on_c, 9, 82, 110
1, 116628, Note_off_c, 9, 39, 17
1, 116628, Note_off_c, 9, 82, 17
1, 116700, Note_off_c, 0, 47, 17
1, 116700, Note_off_c, 1, 68, 17
1, 116700, Note_off_c, 1, 73, 17
1, 116700, Note_off_c, 1, 76, 17
1, 116724, Note_off_c, 2, 59, 24
1, 116728, Note_on_c, 0, 49, 110
1, 116728, Note_on_c, 1, 68, 110
1, 116728, Note_on_c, 1, 73, 110
1, 116728, Note_on_c, 1, 76, 110
1, 116728, Note_on_c, 3, 66, 78
1, 116728, Note_on_c, 9, 36, 125
1, 116728, Note_on_c, 9, 42, 110
1, 116820, Note_off_c, 9, 36, 64
1, 116820, Note_off_c, 9, 42, 64
1, 116920, Note_on_c, 9, 82, 110
1, 116984, Note_off_c, 3, 66, 39
1, 117012, Note_off_c, 9, 82, 17
1, 117112, Note_on_c, 9, 42, 110
1, 117112, Note_on_c, 9, 82, 110
1, 117204, Note_off_c, 9, 42, 17
1, 117204, Note_off_c, 9, 82, 17
1, 117304, Note_on_c, 3, 66, 78
1, 117304, Note_on_c, 9, 82, 110
1, 117396, Note_off_c, 9, 82, 17
1, 117496, Note_on_c, 2, 62, 127
1, 117496, Note_on_c, 9, 40, 110
1, 117496, Note_on_c, 9, 42, 110
1, 117496, Note_on_c, 9, 82, 110
1, 117560, Note_off_c, 3, 66, 78
1, 117588, Note_off_c, 9, 40, 17
1, 117588, Note_off_c, 9, 42, 17
1, 117588, Note_off_c, 9, 82, 17
1, 117684, Note_off_c, 2, 62, 24
1, 117688, Note_on_c, 2, 64, 127
1, 117688, Note_on_c, 9, 36, 125
1, 117688, Note_on_c, 9, 39, 110
1, 117732, Note_off_c, 0, 49, 64
1, 117780, Note_off_c, 9, 36, 17
1, 117780, Note_off_c, 9, 39, 17
1, 117876, Note_off_c, 2, 64, 24
1, 117880, Note_on_c, 0, 42, 110
1, 117880, Note_on_c, 2, 66, 127
1, 117880, Note_on_c, 9, 42, 110
1, 117972, Note_off_c, 9, 42, 17
1, 118044, Note_off_c, 0, 42, 17
1, 118068, Note_off_c, 2, 66, 24
1, 118072, Note_on_c, 0, 46, 110
1, 118072, Note_on_c, 2, 71, 127
1, 118072, Note_on_c, 9, 39, 110
1, 118164, Note_off_c, 1, 68, 64
1, 118164, Note_off_c, 1, 73, 64
1, 118164, Note_off_c, 1, 76, 64
1, 118164, Note_off_c, 9, 39, 17
1, 118236, Note_off_c, 0, 46, 17
1, 118260, Note_off_c, 2, 71, 24
1, 118264, Note_on_c, 0, 47, 110
1, 118264, Note_on_c, 1, 66, 110
1, 118264, Note_on_c, 1, 71, 110
1, 118264, Note_on_c, 1, 73, 110
1, 118264, Note_on_c, 2, 70, 127
1, 118264, Note_on_c, 9, 36, 125
1, 118264, Note_on_c, 9, 42, 110
1, 118264, Note_on_c, 9, 36, 125
1, 118356, Note_off_c, 9, 36, 64
1, 118356, Note_off_c, 9, 42, 64
1, 118356, Note_off_c, 9, 36, 64
1, 118452, Note_off_c, 2, 70, 77
1, 118456, Note_on_c, 2, 71, 127
1, 118456, Note_on_c, 9, 82, 110
1, 118456, Note_on_c, 9, 36, 125
1, 118456, Note_on_c, 9, 36, 125
1, 118548, Note_off_c, 9, 82, 17
1, 118548, Note_off_c, 9, 36, 17
1, 118548, Note_off_c, 9, 36, 17
1, 118644, Note_off_c, 2, 71, 24
1, 118648, Note_on_c, 2, 73, 127
1, 118648, Note_on_c, 9, 42, 110
1, 118648, Note_on_c, 9, 82, 110
1, 118648, Note_on_c, 9, 36, 125
1, 118648, Note_on_c, 9, 36, 125
1, 118740, Note_off_c, 9, 42, 17
1, 118740, Note_off_c, 9, 82, 17
1, 118740, Note_off_c, 9, 36, 17
1, 118740, Note_off_c, 9, 36, 17
1, 118836, Note_off_c, 2, 73, 24
1, 118840, Note_on_c, 2, 74, 127
1, 118840, Note_on_c, 9, 36, 125
1, 118840, Note_on_c, 9, 82, 110
1, 118840, Note_on_c, 9, 36, 125
1, 118932, Note_off_c, 9, 36, 17
1, 118932, Note_off_c, 9, 82, 17
1, 118932, Note_off_c, 9, 36, 17
1, 119028, Note_off_c, 2, 74, 24
1, 119032, Note_on_c, 2, 76, 127
1, 119032, Note_on_c, 9, 40, 110
1, 119032, Note_on_c, 9, 42, 110
1, 119032, Note_on_c, 9, 82, 110
1, 119124, Note_off_c, 9, 40, 17
1, 119124, Note_off_c, 9, 42, 17
1, 119124, Note_off_c, 9, 82, 17
1, 119220, Note_off_c, 2, 76, 24
1, 119224, Note_on_c, 2, 79, 127
1, 119224, Note_on_c, 9, 36, 125
1, 119224, Note_on_c, 9, 39, 110
1, 119224, Note_on_c, 9, 82, 110
1, 119316, Note_off_c, 9, 36, 17
1, 119316, Note_off_c, 9, 39, 17
1, 119316, Note_off_c, 9, 82, 17
1, 119340, Note_off_c, 1, 66, 64
1, 119340, Note_off_c, 1, 71, 64
1, 119340, Note_off_c, 1, 73, 64
1, 119412, Note_off_c, 2, 79, 24
1, 119416, Note_on_c, 1, 66, 110
1, 119416, Note_on_c, 1, 71, 110
1, 119416, Note_on_c, 1, 73, 110
1, 119416, Note_on_c, 2, 82, 127
1, 119416, Note_on_c, 9, 42, 110
1, 119508, Note_off_c, 9, 42, 17
1, 119604, Note_off_c, 0, 47, 64
1, 119604, Note_off_c, 2, 82, 24
1, 119608, Note_on_c, 2, 83, 127
1, 119608, Note_on_c, 9, 39, 110
1, 119700, Note_off_c, 9, 39, 17
1, 119764, Note_off_c, 2, 83, 24
1, 119772, Note_off_c, 1, 66, 17
1, 119772, Note_off_c, 1, 71, 17
1, 119772, Note_off_c, 1, 73, 17
1, 119800, Note_on_c, 0, 47, 110
1, 119800, Note_on_c, 1, 66, 110
1, 119800, Note_on_c, 1, 71, 110
1, 119800, Note_on_c, 1, 74, 110
1, 119800, Note_on_c, 3, 71, 78
1, 119800, Note_on_c, 9, 36, 125
1, 119800, Note_on_c, 9, 42, 110
1, 119892, Note_off_c, 9, 36, 64
1, 119892, Note_off_c, 9, 42, 64
1, 119992, Note_on_c, 9, 82, 110
1, 120084, Note_off_c, 9, 82, 17
1, 120184, Note_on_c, 2, 59, 127
1, 120184, Note_on_c, 9, 42, 110
1, 120184, Note_on_c, 9, 82, 110
1, 120276, Note_off_c, 9, 42, 17
1, 120276, Note_off_c, 9, 82, 17
1, 120372, Note_off_c, 2, 59, 24
1, 120376, Note_on_c, 2, 61, 127
1, 120376, Note_on_c, 3, 71, 78
1, 120376, Note_on_c, 9, 36, 125
1, 120376, Note_on_c, 9, 82, 110
1, 120468, Note_off_c, 2, 61, 24
1, 120468, Note_off_c, 9, 36, 17
1, 120468, Note_off_c, 9, 82, 17
1, 120568, Note_on_c, 9, 40, 110
1, 120568, Note_on_c, 9, 42, 110
1, 120568, Note_on_c, 9, 82, 110
1, 120632, Note_off_c, 3, 71, 78
1, 120660, Note_off_c, 9, 40, 17
1, 120660, Note_off_c, 9, 42, 17
1, 120660, Note_off_c, 9, 82, 17
1, 120760, Note_on_c, 9, 36, 125
1, 120760, Note_on_c, 9, 39, 90
1, 120804, Note_off_c, 0, 47, 64
1, 120852, Note_off_c, 9, 36, 17
1, 120852, Note_off_c, 9, 39, 17
1, 120876, Note_off_c, 1, 66, 64
1, 120876, Note_off_c, 1, 71, 64
1, 120876, Note_off_c, 1, 74, 64
1, 120876, Note_off_c, 3, 71, 39
1, 120952, Note_on_c, 0, 47, 110
1, 120952, Note_on_c, 1, 66, 110
1, 120952, Note_on_c, 1, 71, 110
1, 120952, Note_on_c, 1, 74, 110
1, 120952, Note_on_c, 2, 59, 127
1, 120952, Note_on_c, 9, 42, 110
1, 120952, Note_on_c, 9, 82, 110
1, 121044, Note_off_c, 9, 42, 17
1, 121044, Note_off_c, 9, 82, 17
1, 121140, Note_off_c, 2, 59, 24
1, 121144, Note_on_c, 9, 39, 110
1, 121236, Note_off_c, 9, 39, 17
1, 121284, Note_off_c, 0, 47, 17
1, 121308, Note_off_c, 1, 66, 17
1, 121308, Note_off_c, 1, 71, 17
1, 121308, Note_off_c, 1, 74, 17
1, 121336, Note_on_c, 0, 47, 110
1, 121336, Note_on_c, 1, 66, 110
1, 121336, Note_on_c, 1, 71, 110
1, 121336, Note_on_c, 1, 74, 110
1, 121336, Note_on_c, 9, 42, 110
1, 121336, Note_on_c, 9, 36, 125
1, 121428, Note_off_c, 9, 42, 64
1, 121428, Note_off_c, 9, 36, 64
1, 121528, Note_on_c, 9, 82, 110
1, 121528, Note_on_c, 9, 39, 110
1, 121620, Note_off_c, 9, 82, 17
1, 121620, Note_off_c, 9, 39, 17
1, 121720, Note_on_c, 2, 59, 127
1, 121720, Note_on_c, 9, 82, 110
1, 121720, Note_on_c, 9, 42, 110
1, 121720, Note_on_c, 9, 39, 110
1, 121812, Note_off_c, 9, 82, 17
1, 121812, Note_off_c, 9, 42, 17
1, 121812, Note_off_c, 9, 39, 17
1, 121836, Note_off_c, 0, 47, 64
1, 121908, Note_off_c, 2, 59, 24
1, 121912, Note_on_c, 0, 47, 110
1, 121912, Note_on_c, 2, 61, 127
1, 121912, Note_on_c, 9, 82, 110
1, 121912, Note_on_c, 9, 39, 110
1, 122004, Note_off_c, 2, 61, 24
1, 122004, Note_off_c, 9, 82, 17
1, 122004, Note_off_c, 9, 39, 17
1, 122052, Note_off_c, 1, 66, 64
1, 122052, Note_off_c, 1, 71, 64
1, 122052, Note_off_c, 1, 74, 64
1, 122104, Note_on_c, 1, 66, 110
1, 122104, Note_on_c, 1, 71, 110
1, 122104, Note_on_c, 1, 74, 110
1, 122104, Note_on_c, 9, 82, 110
1, 122104, Note_on_c, 9, 42, 110
1, 122104, Note_on_c, 9, 36, 125
1, 122196, Note_off_c, 9, 82, 17
1, 122196, Note_off_c, 9, 42, 17
1, 122196, Note_off_c, 9, 36, 17
1, 122296, Note_on_c, 9, 82, 110
1, 122296, Note_on_c, 9, 39, 110
1, 122360, Note_off_c, 1, 66, 64
1, 122360, Note_off_c, 1, 71, 64
1, 122360, Note_off_c, 1, 74, 64
1, 122388, Note_off_c, 9, 82, 17
1, 122388, Note_off_c, 9, 39, 17
1, 122412, Note_off_c, 0, 47, 17
1, 122488, Note_on_c, 0, 47, 110
1, 122488, Note_on_c, 2, 59, 127
1, 122488, Note_on_c, 9, 42, 110
1, 122488, Note_on_c, 9, 39, 110
1, 122580, Note_off_c, 9, 42, 17
1, 122580, Note_off_c, 9, 39, 17
1, 122652, Note_off_c, 0, 47, 17
1, 122676, Note_off_c, 2, 59, 24
1, 122680, Note_on_c, 0, 49, 110
1, 122680, Note_on_c, 9, 82, 110
1, 122680, Note_on_c, 9, 39, 110
1, 122772, Note_off_c, 9, 39, 17
1, 122872, Note_off_c, 0, 49, 64
1, 122872, Note_on_c, 0, 49, 110
1, 122872, Note_on_c, 1, 68, 110
1, 122872, Note_on_c, 1, 73, 110
1, 122872, Note_on_c, 1, 76, 110
1, 122872, Note_on_c, 3, 66, 78
1, 122872, Note_off_c, 9, 82, 64
1, 122872, Note_on_c, 9, 36, 125
1, 122872, Note_on_c, 9, 42, 110
1, 122964, Note_off_c, 9, 36, 64
1, 122964, Note_off_c, 9, 42, 64
1, 123064, Note_on_c, 9, 82, 110
1, 123128, Note_off_c, 3, 66, 39
1, 123156, Note_off_c, 9, 82, 17
1, 123256, Note_on_c, 9, 82, 110
1, 123256, Note_on_c, 9, 42, 110
1, 123348, Note_off_c, 9, 82, 17
1, 123348, Note_off_c, 9, 42, 17
1, 123448, Note_on_c, 3, 66, 78
1, 123448, Note_on_c, 9, 82, 110
1, 123448, Note_on_c, 9, 36, 125
1, 123540, Note_off_c, 9, 82, 17
1, 123540, Note_off_c, 9, 36, 17
1, 123640, Note_on_c, 2, 62, 127
1, 123640, Note_on_c, 9, 82, 110
1, 123640, Note_on_c, 9, 40, 110
1, 123640, Note_on_c, 9, 42, 110
1, 123704, Note_off_c, 3, 66, 78
1, 123732, Note_off_c, 9, 82, 17
1, 123732, Note_off_c, 9, 40, 17
1, 123732, Note_off_c, 9, 42, 17
1, 123828, Note_off_c, 2, 62, 24
1, 123832, Note_on_c, 2, 64, 127
1, 123832, Note_on_c, 9, 36, 125
1, 123832, Note_on_c, 9, 39, 110
1, 123876, Note_off_c, 0, 49, 64
1, 123924, Note_off_c, 9, 36, 17
1, 123924, Note_off_c, 9, 39, 17
1, 124020, Note_off_c, 2, 64, 24
1, 124024, Note_on_c, 0, 42, 110
1, 124024, Note_on_c, 2, 66, 127
1, 124024, Note_on_c, 9, 42, 110
1, 124116, Note_off_c, 9, 42, 17
1, 124188, Note_off_c, 0, 42, 17
1, 124212, Note_off_c, 2, 66, 24
1, 124216, Note_on_c, 0, 46, 110
1, 124216, Note_on_c, 2, 71, 127
1, 124216, Note_on_c, 9, 39, 110
1, 124308, Note_off_c, 1, 68, 64
1, 124308, Note_off_c, 1, 73, 64
1, 124308, Note_off_c, 1, 76, 64
1, 124308, Note_off_c, 9, 39, 17
1, 124380, Note_off_c, 0, 46, 17
1, 124404, Note_off_c, 2, 71, 24
1, 124408, Note_on_c, 0, 47, 110
1, 124408, Note_on_c, 1, 66, 110
1, 124408, Note_on_c, 1, 71, 110
1, 124408, Note_on_c, 1, 73, 110
1, 124408, Note_on_c, 2, 70, 127
1, 124408, Note_on_c, 9, 36, 125
1, 124408, Note_on_c, 9, 42, 110
1, 124500, Note_off_c, 9, 36, 64
1, 124500, Note_off_c, 9, 42, 64
1, 124596, Note_off_c, 2, 70, 77
1, 124600, Note_on_c, 2, 71, 127
1, 124600, Note_on_c, 9, 82, 110
1, 124692, Note_off_c, 9, 82, 17
1, 124788, Note_off_c, 2, 71, 24
1, 124792, Note_on_c, 2, 73, 127
1, 124792, Note_on_c, 9, 42, 110
1, 124792, Note_on_c, 9, 82, 110
1, 124884, Note_off_c, 9, 42, 17
1, 124884, Note_off_c, 9, 82, 17
1, 124980, Note_off_c, 2, 73, 24
1, 124984, Note_on_c, 2, 74, 127
1, 124984, Note_on_c, 9, 36, 125
1, 124984, Note_on_c, 9, 82, 110
1, 125076, Note_off_c, 9, 36, 17
1, 125076, Note_off_c, 9, 82, 17
1, 125172, Note_off_c, 2, 74, 24
1, 125176, Note_on_c, 2, 76, 127
1, 125176, Note_on_c, 9, 40, 110
1, 125176, Note_on_c, 9, 42, 110
1, 125176, Note_on_c, 9, 82, 110
1, 125268, Note_off_c, 9, 40, 17
1, 125268, Note_off_c, 9, 42, 17
1, 125268, Note_off_c, 9, 82, 17
1, 125364, Note_off_c, 2, 76, 24
1, 125368, Note_on_c, 2, 79, 127
1, 125368, Note_on_c, 9, 36, 125
1, 125368, Note_on_c, 9, 39, 110
1, 125368, Note_on_c, 9, 82, 110
1, 125460, Note_off_c, 9, 36, 17
1, 125460, Note_off_c, 9, 39, 17
1, 125460, Note_off_c, 9, 82, 17
1, 125484, Note_off_c, 1, 66, 64
1, 125484, Note_off_c, 1, 71, 64
1, 125484, Note_off_c, 1, 73, 64
1, 125556, Note_off_c, 2, 79, 24
1, 125560, Note_on_c, 1, 66, 110
1, 125560, Note_on_c, 1, 71, 110
1, 125560, Note_on_c, 1, 73, 110
1, 125560, Note_on_c, 2, 82, 127
1, 125560, Note_on_c, 9, 42, 110
1, 125652, Note_off_c, 9, 42, 17
1, 125748, Note_off_c, 0, 47, 64
1, 125748, Note_off_c, 2, 82, 24
1, 125752, Note_on_c, 2, 83, 127
1, 125752, Note_on_c, 9, 39, 110
1, 125844, Note_off_c, 9, 39, 17
1, 125908, Note_off_c, 2, 83, 24
1, 125916, Note_off_c, 1, 66, 17
1, 125916, Note_off_c, 1, 71, 17
1, 125916, Note_off_c, 1, 73, 17
1, 125944, Note_on_c, 0, 47, 110
1, 125944, Note_on_c, 1, 66, 110
1, 125944, Note_on_c, 1, 71, 110
1, 125944, Note_on_c, 1, 74, 110
1, 125944, Note_on_c, 3, 71, 78
1, 125944, Note_on_c, 9, 36, 125
1, 125944, Note_on_c, 9, 42, 110
1, 126036, Note_off_c, 9, 36, 64
1, 126036, Note_off_c, 9, 42, 64
1, 126136, Note_on_c, 9, 82, 110
1, 126228, Note_off_c, 9, 82, 17
1, 126328, Note_on_c, 9, 42, 110
1, 126328, Note_on_c, 9, 82, 110
1, 126420, Note_off_c, 9, 42, 17
1, 126420, Note_off_c, 9, 82, 17
1, 126520, Note_on_c, 3, 71, 78
1, 126520, Note_on_c, 9, 36, 125
1, 126520, Note_on_c, 9, 82, 110
1, 126612, Note_off_c, 9, 36, 17
1, 126612, Note_off_c, 9, 82, 17
1, 126712, Note_on_c, 9, 40, 110
1, 126712, Note_on_c, 9, 42, 110
1, 126712, Note_on_c, 9, 82, 110
1, 126776, Note_off_c, 3, 71, 78
1, 126804, Note_off_c, 9, 40, 17
1, 126804, Note_off_c, 9, 42, 17
1, 126804, Note_off_c, 9, 82, 17
1, 126904, Note_on_c, 2, 59, 127
1, 126904, Note_on_c, 9, 36, 125
1, 126904, Note_on_c, 9, 39, 90
1, 126948, Note_off_c, 0, 47, 64
1, 126996, Note_off_c, 9, 36, 17
1, 126996, Note_off_c, 9, 39, 17
1, 127020, Note_off_c, 1, 66, 64
1, 127020, Note_off_c, 1, 71, 64
1, 127020, Note_off_c, 1, 74, 64
1, 127020, Note_off_c, 3, 71, 39
1, 127092, Note_off_c, 2, 59, 24
1, 127096, Note_on_c, 0, 47, 110
1, 127096, Note_on_c, 1, 66, 110
1, 127096, Note_on_c, 1, 71, 110
1, 127096, Note_on_c, 1, 74, 110
1, 127096, Note_on_c, 2, 62, 127
1, 127096, Note_on_c, 9, 42, 110
1, 127096, Note_on_c, 9, 82, 110
1, 127188, Note_off_c, 2, 62, 24
1, 127188, Note_off_c, 9, 42, 17
1, 127188, Note_off_c, 9, 82, 17
1, 127288, Note_on_c, 2, 59, 127
1, 127288, Note_on_c, 9, 39, 110
1, 127380, Note_off_c, 9, 39, 17
1, 127428, Note_off_c, 0, 47, 17
1, 127452, Note_off_c, 1, 66, 17
1, 127452, Note_off_c, 1, 71, 17
1, 127452, Note_off_c, 1, 74, 17
1, 127476, Note_off_c, 2, 59, 24
1, 127480, Note_on_c, 0, 47, 110
1, 127480, Note_on_c, 1, 66, 110
1, 127480, Note_on_c, 1, 71, 110
1, 127480, Note_on_c, 1, 74, 110
1, 127480, Note_on_c, 2, 62, 127
1, 127480, Note_on_c, 9, 36, 125
1, 127480, Note_on_c, 9, 42, 110
1, 127572, Note_off_c, 2, 62, 77
1, 127572, Note_off_c, 9, 36, 64
1, 127572, Note_off_c, 9, 42, 64
1, 127672, Note_on_c, 9, 82, 110
1, 127764, Note_off_c, 9, 82, 17
1, 127864, Note_on_c, 9, 42, 110
1, 127864, Note_on_c, 9, 82, 110
1, 127956, Note_off_c, 9, 42, 17
1, 127956, Note_off_c, 9, 82, 17
1, 128056, Note_on_c, 9, 36, 125
1, 128056, Note_on_c, 9, 82, 110
1, 128148, Note_off_c, 9, 36, 17
1, 128148, Note_off_c, 9, 82, 17
1, 128248, Note_on_c, 9, 40, 110
1, 128248, Note_on_c, 9, 42, 110
1, 128248, Note_on_c, 9, 82, 110
1, 128316, Note_off_c, 0, 47, 64
1, 128340, Note_off_c, 9, 40, 17
1, 128340, Note_off_c, 9, 42, 17
1, 128340, Note_off_c, 9, 82, 17
1, 128440, Note_on_c, 0, 47, 110
1, 128440, Note_on_c, 2, 59, 127
1, 128440, Note_on_c, 9, 36, 125
1, 128440, Note_on_c, 9, 39, 90
1, 128440, Note_on_c, 9, 82, 110
1, 128532, Note_off_c, 9, 36, 17
1, 128532, Note_off_c, 9, 39, 17
1, 128532, Note_off_c, 9, 82, 17
1, 128556, Note_off_c, 1, 66, 64
1, 128556, Note_off_c, 1, 71, 64
1, 128556, Note_off_c, 1, 74, 64
1, 128604, Note_off_c, 0, 47, 17
1, 128628, Note_off_c, 2, 59, 24
1, 128632, Note_on_c, 0, 49, 110
1, 128632, Note_on_c, 1, 68, 110
1, 128632, Note_on_c, 1, 73, 110
1, 128632, Note_on_c, 1, 76, 110
1, 128632, Note_on_c, 2, 62, 127
1, 128632, Note_on_c, 9, 42, 110
1, 128724, Note_off_c, 2, 62, 24
1, 128724, Note_off_c, 9, 42, 17
1, 128796, Note_off_c, 0, 49, 17
1, 128824, Note_on_c, 0, 47, 110
1, 128824, Note_on_c, 2, 59, 127
1, 128824, Note_on_c, 9, 39, 110
1, 128824, Note_on_c, 9, 82, 110
1, 128916, Note_off_c, 9, 39, 17
1, 128916, Note_off_c, 9, 82, 17
1, 128988, Note_off_c, 0, 47, 17
1, 128988, Note_off_c, 1, 68, 17
1, 128988, Note_off_c, 1, 73, 17
1, 128988, Note_off_c, 1, 76, 17
1, 129012, Note_off_c, 2, 59, 24
1, 129016, Note_on_c, 0, 49, 110
1, 129016, Note_on_c, 1, 68, 110
1, 129016, Note_on_c, 1, 73, 110
1, 129016, Note_on_c, 1, 76, 110
1, 129016, Note_on_c, 3, 66, 78
1, 129016, Note_on_c, 9, 36, 125
1, 129016, Note_on_c, 9, 42, 110
1, 129108, Note_off_c, 9, 36, 64
1, 129108, Note_off_c, 9, 42, 64
1, 129208, Note_on_c, 9, 82, 110
1, 129272, Note_off_c, 3, 66, 39
1, 129300, Note_off_c, 9, 82, 17
1, 129400, Note_on_c, 9, 42, 110
1, 129400, Note_on_c, 9, 82, 110
1, 129492, Note_off_c, 9, 42, 17
1, 129492, Note_off_c, 9, 82, 17
1, 129592, Note_on_c, 3, 66, 78
1, 129592, Note_on_c, 9, 82, 110
1, 129684, Note_off_c, 9, 82, 17
1, 129784, Note_on_c, 2, 62, 127
1, 129784, Note_on_c, 9, 40, 110
1, 129784, Note_on_c, 9, 42, 110
1, 129784, Note_on_c, 9, 82, 110
1, 129848, Note_off_c, 3, 66, 78
1, 129876, Note_off_c, 9, 40, 17
1, 129876, Note_off_c, 9, 42, 17
1, 129876, Note_off_c, 9, 82, 17
1, 129972, Note_off_c, 2, 62, 24
1, 129976, Note_on_c, 2, 64, 127
1, 129976, Note_on_c, 9, 36, 125
1, 129976, Note_on_c, 9, 39, 110
1, 130020, Note_off_c, 0, 49, 64
1, 130068, Note_off_c, 9, 36, 17
1, 130068, Note_off_c, 9, 39, 17
1, 130164, Note_off_c, 2, 64, 24
1, 130168, Note_on_c, 0, 42, 110
1, 130168, Note_on_c, 2, 66, 127
1, 130168, Note_on_c, 9, 42, 110
1, 130260, Note_off_c, 9, 42, 17
1, 130332, Note_off_c, 0, 42, 17
1, 130356, Note_off_c, 2, 66, 24
1, 130360, Note_on_c, 0, 46, 110
1, 130360, Note_on_c, 2, 71, 127
1, 130360, Note_on_c, 9, 39, 110
1, 130452, Note_off_c, 1, 68, 64
1, 130452, Note_off_c, 1, 73, 64
1, 130452, Note_off_c, 1, 76, 64
1, 130452, Note_off_c, 9, 39, 17
1, 130524, Note_off_c, 0, 46, 17
1, 130548, Note_off_c, 2, 71, 24
1, 130552, Note_on_c, 0, 47, 110
1, 130552, Note_on_c, 1, 66, 110
1, 130552, Note_on_c, 1, 71, 110
1, 130552, Note_on_c, 1, 73, 110
1, 130552, Note_on_c, 2, 70, 127
1, 130552, Note_on_c, 9, 36, 125
1, 130552, Note_on_c, 9, 42, 110
1, 130644, Note_off_c, 9, 36, 64
1, 130644, Note_off_c, 9, 42, 64
1, 130740, Note_off_c, 2, 70, 77
1, 130744, Note_on_c, 2, 71, 127
1, 130744, Note_on_c, 9, 82, 110
1, 130836, Note_off_c, 9, 82, 17
1, 130932, Note_off_c, 2, 71, 24
1, 130936, Note_on_c, 2, 73, 127
1, 130936, Note_on_c, 9, 42, 110
1, 130936, Note_on_c, 9, 82, 110
1, 131028, Note_off_c, 9, 42, 17
1, 131028, Note_off_c, 9, 82, 17
1, 131124, Note_off_c, 2, 73, 24
1, 131128, Note_on_c, 2, 74, 127
1, 131128, Note_on_c, 9, 36, 125
1, 131128, Note_on_c, 9, 82, 110
1, 131220, Note_off_c, 9, 36, 17
1, 131220, Note_off_c, 9, 82, 17
1, 131316, Note_off_c, 2, 74, 24
1, 131320, Note_on_c, 2, 76, 127
1, 131320, Note_on_c, 9, 40, 110
1, 131320, Note_on_c, 9, 42, 110
1, 131320, Note_on_c, 9, 82, 110
1, 131412, Note_off_c, 9, 40, 17
1, 131412, Note_off_c, 9, 42, 17
1, 131412, Note_off_c, 9, 82, 17
1, 131508, Note_off_c, 2, 76, 24
1, 131512, Note_on_c, 2, 79, 127
1, 131512, Note_on_c, 9, 36, 125
1, 131512, Note_on_c, 9, 39, 110
1, 131512, Note_on_c, 9, 82, 110
1, 131604, Note_off_c, 9, 36, 17
1, 131604, Note_off_c, 9, 39, 17
1, 131604, Note_off_c, 9, 82, 17
1, 131628, Note_off_c, 1, 66, 64
1, 131628, Note_off_c, 1, 71, 64
1, 131628, Note_off_c, 1, 73, 64
1, 131700, Note_off_c, 2, 79, 24
1, 131704, Note_on_c, 1, 66, 110
1, 131704, Note_on_c, 1, 71, 110
1, 131704, Note_on_c, 1, 73, 110
1, 131704, Note_on_c, 2, 82, 127
1, 131704, Note_on_c, 9, 42, 110
1, 131796, Note_off_c, 9, 42, 17
1, 131892, Note_off_c, 0, 47, 64
1, 131892, Note_off_c, 2, 82, 24
1, 131896, Note_on_c, 2, 83, 127
1, 131896, Note_on_c, 9, 39, 110
1, 131988, Note_off_c, 9, 39, 17
1, 132052, Note_off_c, 2, 83, 24
1, 132060, Note_off_c, 1, 66, 17
1, 132060, Note_off_c, 1, 71, 17
1, 132060, Note_off_c, 1, 73, 17
1, 132088, Note_on_c, 0, 47, 110
1, 132088, Note_on_c, 1, 66, 110
1, 132088, Note_on_c, 1, 71, 110
1, 132088, Note_on_c, 1, 74, 110
1, 132088, Note_on_c, 3, 71, 78
1, 132088, Note_on_c, 9, 36, 125
1, 132088, Note_on_c, 9, 42, 110
1, 132180, Note_off_c, 9, 36, 64
1, 132180, Note_off_c, 9, 42, 64
1, 132280, Note_on_c, 9, 82, 110
1, 132372, Note_off_c, 9, 82, 17
1, 132472, Note_on_c, 2, 59, 127
1, 132472, Note_on_c, 9, 42, 110
1, 132472, Note_on_c, 9, 82, 110
1, 132564, Note_off_c, 9, 42, 17
1, 132564, Note_off_c, 9, 82, 17
1, 132660, Note_off_c, 2, 59, 24
1, 132664, Note_on_c, 2, 61, 127
1, 132664, Note_on_c, 3, 71, 78
1, 132664, Note_on_c, 9, 36, 125
1, 132664, Note_on_c, 9, 82, 110
1, 132756, Note_off_c, 2, 61, 24
1, 132756, Note_off_c, 9, 36, 17
1, 132756, Note_off_c, 9, 82, 17
1, 132856, Note_on_c, 9, 40, 110
1, 132856, Note_on_c, 9, 42, 110
1, 132856, Note_on_c, 9, 82, 110
1, 132920, Note_off_c, 3, 71, 78
1, 132948, Note_off_c, 9, 40, 17
1, 132948, Note_off_c, 9, 42, 17
1, 132948, Note_off_c, 9, 82, 17
1, 133048, Note_on_c, 9, 36, 125
1, 133048, Note_on_c, 9, 39, 90
1, 133092, Note_off_c, 0, 47, 64
1, 133140, Note_off_c, 9, 36, 17
1, 133140, Note_off_c, 9, 39, 17
1, 133164, Note_off_c, 1, 66, 64
1, 133164, Note_off_c, 1, 71, 64
1, 133164, Note_off_c, 1, 74, 64
1, 133164, Note_off_c, 3, 71, 39
1, 133240, Note_on_c, 0, 47, 110
1, 133240, Note_on_c, 1, 66, 110
1, 133240, Note_on_c, 1, 71, 110
1, 133240, Note_on_c, 1, 74, 110
1, 133240, Note_on_c, 2, 59, 127
1, 133240, Note_on_c, 9, 42, 110
1, 133240, Note_on_c, 9, 82, 110
1, 133332, Note_off_c, 9, 42, 17
1, 133332, Note_off_c, 9, 82, 17
1, 133428, Note_off_c, 2, 59, 24
1, 133432, Note_on_c, 9, 39, 110
1, 133524, Note_off_c, 9, 39, 17
1, 133572, Note_off_c, 0, 47, 17
1, 133596, Note_off_c, 1, 66, 17
1, 133596, Note_off_c, 1, 71, 17
1, 133596, Note_off_c, 1, 74, 17
1, 133624, Note_on_c, 0, 47, 110
1, 133624, Note_on_c, 1, 66, 110
1, 133624, Note_on_c, 1, 71, 110
1, 133624, Note_on_c, 1, 74, 110
1, 133624, Note_on_c, 9, 36, 125
1, 133624, Note_on_c, 9, 42, 110
1, 133716, Note_off_c, 9, 36, 64
1, 133716, Note_off_c, 9, 42, 64
1, 133816, Note_on_c, 9, 82, 110
1, 133908, Note_off_c, 9, 82, 17
1, 134008, Note_on_c, 2, 59, 127
1, 134008, Note_on_c, 9, 42, 110
1, 134008, Note_on_c, 9, 82, 110
1, 134100, Note_off_c, 9, 42, 17
1, 134100, Note_off_c, 9, 82, 17
1, 134124, Note_off_c, 0, 47, 64
1, 134196, Note_off_c, 2, 59, 24
1, 134200, Note_on_c, 0, 47, 110
1, 134200, Note_on_c, 2, 61, 127
1, 134200, Note_on_c, 9, 36, 125
1, 134200, Note_on_c, 9, 82, 110
1, 134292, Note_off_c, 2, 61, 24
1, 134292, Note_off_c, 9, 36, 17
1, 134292, Note_off_c, 9, 82, 17
1, 134340, Note_off_c, 1, 66, 64
1, 134340, Note_off_c, 1, 71, 64
1, 134340, Note_off_c, 1, 74, 64
1, 134392, Note_on_c, 1, 66, 110
1, 134392, Note_on_c, 1, 71, 110
1, 134392, Note_on_c, 1, 74, 110
1, 134392, Note_on_c, 9, 40, 110
1, 134392, Note_on_c, 9, 42, 110
1, 134392, Note_on_c, 9, 82, 110
1, 134484, Note_off_c, 9, 40, 17
1, 134484, Note_off_c, 9, 42, 17
1, 134484, Note_off_c, 9, 82, 17
1, 134584, Note_on_c, 9, 36, 125
1, 134584, Note_on_c, 9, 39, 90
1, 134584, Note_on_c, 9, 82, 110
1, 134648, Note_off_c, 1, 66, 64
1, 134648, Note_off_c, 1, 71, 64
1, 134648, Note_off_c, 1, 74, 64
1, 134676, Note_off_c, 9, 36, 17
1, 134676, Note_off_c, 9, 39, 17
1, 134676, Note_off_c, 9, 82, 17
1, 134700, Note_off_c, 0, 47, 17
1, 134776, Note_on_c, 0, 47, 110
1, 134776, Note_on_c, 2, 59, 127
1, 134776, Note_on_c, 9, 42, 110
1, 134868, Note_off_c, 9, 42, 17
1, 134940, Note_off_c, 0, 47, 17
1, 134964, Note_off_c, 2, 59, 24
1, 134968, Note_on_c, 0, 49, 110
1, 134968, Note_on_c, 9, 39, 110
1, 134968, Note_on_c, 9, 82, 110
1, 135160, Note_off_c, 0, 49, 64
1, 135160, Note_on_c, 0, 49, 110
1, 135160, Note_on_c, 1, 68, 110
1, 135160, Note_on_c, 1, 73, 110
1, 135160, Note_on_c, 1, 76, 110
1, 135160, Note_on_c, 3, 66, 78
1, 135160, Note_off_c, 9, 39, 64
1, 135160, Note_off_c, 9, 82, 64
1, 135160, Note_on_c, 9, 36, 125
1, 135160, Note_on_c, 9, 42, 110
1, 135252, Note_off_c, 9, 36, 64
1, 135252, Note_off_c, 9, 42, 64
1, 135352, Note_on_c, 9, 82, 110
1, 135416, Note_off_c, 3, 66, 39
1, 135444, Note_off_c, 9, 82, 17
1, 135544, Note_on_c, 9, 36, 125
1, 135544, Note_on_c, 9, 42, 110
1, 135544, Note_on_c, 9, 82, 110
1, 135636, Note_off_c, 9, 36, 17
1, 135636, Note_off_c, 9, 42, 17
1, 135636, Note_off_c, 9, 82, 17
1, 135736, Note_on_c, 3, 66, 78
1, 135736, Note_on_c, 9, 82, 110
1, 135828, Note_off_c, 9, 82, 17
1, 135928, Note_on_c, 2, 62, 127
1, 135928, Note_on_c, 9, 42, 110
1, 135928, Note_on_c, 9, 82, 110
1, 135992, Note_off_c, 3, 66, 78
1, 136020, Note_off_c, 9, 42, 17
1, 136020, Note_off_c, 9, 82, 17
1, 136116, Note_off_c, 2, 62, 24
1, 136120, Note_on_c, 2, 64, 127
1, 136120, Note_on_c, 9, 36, 125
1, 136120, Note_on_c, 9, 39, 110
1, 136164, Note_off_c, 0, 49, 64
1, 136212, Note_off_c, 9, 36, 17
1, 136212, Note_off_c, 9, 39, 17
1, 136308, Note_off_c, 2, 64, 24
1, 136312, Note_on_c, 0, 42, 110
1, 136312, Note_on_c, 2, 66, 127
1, 136312, Note_on_c, 9, 42, 110
1, 136404, Note_off_c, 9, 42, 17
1, 136476, Note_off_c, 0, 42, 17
1, 136500, Note_off_c, 2, 66, 24
1, 136504, Note_on_c, 0, 46, 110
1, 136504, Note_on_c, 2, 71, 127
1, 136504, Note_on_c, 9, 39, 110
1, 136596, Note_off_c, 1, 68, 64
1, 136596, Note_off_c, 1, 73, 64
1, 136596, Note_off_c, 1, 76, 64
1, 136596, Note_off_c, 9, 39, 17
1, 136668, Note_off_c, 0, 46, 17
1, 136692, Note_off_c, 2, 71, 24
1, 136696, Note_on_c, 0, 47, 110
1, 136696, Note_on_c, 1, 66, 110
1, 136696, Note_on_c, 1, 71, 110
1, 136696, Note_on_c, 1, 73, 110
1, 136696, Note_on_c, 2, 70, 127
1, 136696, Note_on_c, 9, 36, 125
1, 136696, Note_on_c, 9, 42, 110
1, 136788, Note_off_c, 9, 36, 64
1, 136788, Note_off_c, 9, 42, 64
1, 136884, Note_off_c, 2, 70, 77
1, 136888, Note_on_c, 2, 71, 127
1, 136888, Note_on_c, 9, 82, 110
1, 136980, Note_off_c, 9, 82, 17
1, 137076, Note_off_c, 2, 71, 24
1, 137080, Note_on_c, 2, 73, 127
1, 137080, Note_on_c, 9, 42, 110
1, 137080, Note_on_c, 9, 82, 110
1, 137172, Note_off_c, 9, 42, 17
1, 137172, Note_off_c, 9, 82, 17
1, 137268, Note_off_c, 2, 73, 24
1, 137272, Note_on_c, 2, 74, 127
1, 137272, Note_on_c, 9, 36, 125
1, 137272, Note_on_c, 9, 82, 110
1, 137364, Note_off_c, 9, 36, 17
1, 137364, Note_off_c, 9, 82, 17
1, 137460, Note_off_c, 2, 74, 24
1, 137464, Note_on_c, 2, 76, 127
1, 137464, Note_on_c, 9, 40, 110
1, 137464, Note_on_c, 9, 42, 110
1, 137464, Note_on_c, 9, 82, 110
1, 137556, Note_off_c, 9, 40, 17
1, 137556, Note_off_c, 9, 42, 17
1, 137556, Note_off_c, 9, 82, 17
1, 137652, Note_off_c, 2, 76, 24
1, 137656, Note_on_c, 2, 79, 127
1, 137656, Note_on_c, 9, 36, 125
1, 137656, Note_on_c, 9, 39, 110
1, 137656, Note_on_c, 9, 82, 110
1, 137748, Note_off_c, 9, 36, 17
1, 137748, Note_off_c, 9, 39, 17
1, 137748, Note_off_c, 9, 82, 17
1, 137772, Note_off_c, 1, 66, 64
1, 137772, Note_off_c, 1, 71, 64
1, 137772, Note_off_c, 1, 73, 64
1, 137844, Note_off_c, 2, 79, 24
1, 137848, Note_on_c, 1, 66, 110
1, 137848, Note_on_c, 1, 71, 110
1, 137848, Note_on_c, 1, 73, 110
1, 137848, Note_on_c, 2, 82, 127
1, 137848, Note_on_c, 9, 42, 110
1, 137940, Note_off_c, 9, 42, 17
1, 138036, Note_off_c, 0, 47, 64
1, 138036, Note_off_c, 2, 82, 24
1, 138040, Note_on_c, 2, 83, 127
1, 138040, Note_on_c, 9, 39, 110
1, 138132, Note_off_c, 9, 39, 17
1, 138196, Note_off_c, 2, 83, 24
1, 138204, Note_off_c, 1, 66, 17
1, 138204, Note_off_c, 1, 71, 17
1, 138204, Note_off_c, 1, 73, 17
1, 138232, Note_on_c, 0, 47, 110
1, 138232, Note_on_c, 1, 66, 110
1, 138232, Note_on_c, 1, 71, 110
1, 138232, Note_on_c, 1, 74, 110
1, 138232, Note_on_c, 3, 71, 78
1, 138232, Note_on_c, 9, 36, 125
1, 138232, Note_on_c, 9, 42, 110
1, 138324, Note_off_c, 9, 36, 64
1, 138324, Note_off_c, 9, 42, 64
1, 138424, Note_on_c, 9, 82, 110
1, 138516, Note_off_c, 9, 82, 17
1, 138616, Note_on_c, 9, 42, 110
1, 138616, Note_on_c, 9, 82, 110
1, 138708, Note_off_c, 9, 42, 17
1, 138708, Note_off_c, 9, 82, 17
1, 138808, Note_on_c, 3, 71, 78
1, 138808, Note_on_c, 9, 36, 125
1, 138808, Note_on_c, 9, 82, 110
1, 138900, Note_off_c, 9, 36, 17
1, 138900, Note_off_c, 9, 82, 17
1, 139000, Note_on_c, 9, 40, 110
1, 139000, Note_on_c, 9, 42, 110
1, 139000, Note_on_c, 9, 82, 110
1, 139064, Note_off_c, 3, 71, 78
1, 139092, Note_off_c, 9, 40, 17
1, 139092, Note_off_c, 9, 42, 17
1, 139092, Note_off_c, 9, 82, 17
1, 139192, Note_on_c, 2, 59, 127
1, 139192, Note_on_c, 9, 36, 125
1, 139192, Note_on_c, 9, 39, 90
1, 139236, Note_off_c, 0, 47, 64
1, 139284, Note_off_c, 9, 36, 17
1, 139284, Note_off_c, 9, 39, 17
1, 139308, Note_off_c, 1, 66, 64
1, 139308, Note_off_c, 1, 71, 64
1, 139308, Note_off_c, 1, 74, 64
1, 139308, Note_off_c, 3, 71, 39
1, 139380, Note_off_c, 2, 59, 24
1, 139384, Note_on_c, 0, 47, 110
1, 139384, Note_on_c, 1, 66, 110
1, 139384, Note_on_c, 1, 71, 110
1, 139384, Note_on_c, 1, 74, 110
1, 139384, Note_on_c, 2, 62, 127
1, 139384, Note_on_c, 9, 42, 110
1, 139384, Note_on_c, 9, 82, 110
1, 139476, Note_off_c, 2, 62, 24
1, 139476, Note_off_c, 9, 42, 17
1, 139476, Note_off_c, 9, 82, 17
1, 139576, Note_on_c, 2, 59, 127
1, 139576, Note_on_c, 9, 39, 110
1, 139668, Note_off_c, 9, 39, 17
1, 139716, Note_off_c, 0, 47, 17
1, 139740, Note_off_c, 1, 66, 17
1, 139740, Note_off_c, 1, 71, 17
1, 139740, Note_off_c, 1, 74, 17
1, 139764, Note_off_c, 2, 59, 24
1, 139768, Note_on_c, 0, 47, 110
1, 139768, Note_on_c, 1, 66, 110
1, 139768, Note_on_c, 1, 71, 110
1, 139768, Note_on_c, 1, 74, 110
1, 139768, Note_on_c, 2, 62, 127
1, 139768, Note_on_c, 9, 36, 125
1, 139768, Note_on_c, 9, 42, 110
1, 139860, Note_off_c, 2, 62, 77
1, 139860, Note_off_c, 9, 36, 64
1, 139860, Note_off_c, 9, 42, 64
1, 139960, Note_on_c, 9, 82, 110
1, 140052, Note_off_c, 9, 82, 17
1, 140152, Note_on_c, 9, 42, 110
1, 140152, Note_on_c, 9, 82, 110
1, 140244, Note_off_c, 9, 42, 17
1, 140244, Note_off_c, 9, 82, 17
1, 140344, Note_on_c, 9, 36, 125
1, 140344, Note_on_c, 9, 82, 110
1, 140436, Note_off_c, 9, 36, 17
1, 140436, Note_off_c, 9, 82, 17
1, 140536, Note_on_c, 9, 40, 110
1, 140536, Note_on_c, 9, 42, 110
1, 140536, Note_on_c, 9, 82, 110
1, 140604, Note_off_c, 0, 47, 64
1, 140628, Note_off_c, 9, 40, 17
1, 140628, Note_off_c, 9, 42, 17
1, 140628, Note_off_c, 9, 82, 17
1, 140728, Note_on_c, 0, 47, 110
1, 140728, Note_on_c, 2, 59, 127
1, 140728, Note_on_c, 9, 36, 125
1, 140728, Note_on_c, 9, 39, 90
1, 140728, Note_on_c, 9, 82, 110
1, 140820, Note_off_c, 9, 36, 17
1, 140820, Note_off_c, 9, 39, 17
1, 140820, Note_off_c, 9, 82, 17
1, 140844, Note_off_c, 1, 66, 64
1, 140844, Note_off_c, 1, 71, 64
1, 140844, Note_off_c, 1, 74, 64
1, 140892, Note_off_c, 0, 47, 17
1, 140916, Note_off_c, 2, 59, 24
1, 140920, Note_on_c, 0, 49, 110
1, 140920, Note_on_c, 1, 68, 110
1, 140920, Note_on_c, 1, 73, 110
1, 140920, Note_on_c, 1, 76, 110
1, 140920, Note_on_c, 2, 62, 127
1, 140920, Note_on_c, 9, 42, 110
1, 141012, Note_off_c, 2, 62, 24
1, 141012, Note_off_c, 9, 42, 17
1, 141084, Note_off_c, 0, 49, 17
1, 141112, Note_on_c, 0, 47, 110
1, 141112, Note_on_c, 2, 59, 127
1, 141112, Note_on_c, 9, 39, 110
1, 141112, Note_on_c, 9, 82, 110
1, 141204, Note_off_c, 9, 39, 17
1, 141204, Note_off_c, 9, 82, 17
1, 141276, Note_off_c, 0, 47, 17
1, 141276, Note_off_c, 1, 68, 17
1, 141276, Note_off_c, 1, 73, 17
1, 141276, Note_off_c, 1, 76, 17
1, 141300, Note_off_c, 2, 59, 24
1, 141304, Note_on_c, 0, 49, 110
1, 141304, Note_on_c, 1, 68, 110
1, 141304, Note_on_c, 1, 73, 110
1, 141304, Note_on_c, 1, 76, 110
1, 141304, Note_on_c, 3, 66, 78
1, 141304, Note_on_c, 9, 36, 125
1, 141304, Note_on_c, 9, 42, 110
1, 141396, Note_off_c, 9, 36, 64
1, 141396, Note_off_c, 9, 42, 64
1, 141496, Note_on_c, 9, 82, 110
1, 141560, Note_off_c, 3, 66, 39
1, 141588, Note_off_c, 9, 82, 17
1, 141688, Note_on_c, 9, 42, 110
1, 141688, Note_on_c, 9, 82, 110
1, 141780, Note_off_c, 9, 42, 17
1, 141780, Note_off_c, 9, 82, 17
1, 141880, Note_on_c, 3, 66, 78
1, 141880, Note_on_c, 9, 82, 110
1, 141972, Note_off_c, 9, 82, 17
1, 142072, Note_on_c, 2, 62, 127
1, 142072, Note_on_c, 9, 40, 110
1, 142072, Note_on_c, 9, 42, 110
1, 142072, Note_on_c, 9, 82, 110
1, 142136, Note_off_c, 3, 66, 78
1, 142164, Note_off_c, 9, 40, 17
1, 142164, Note_off_c, 9, 42, 17
1, 142164, Note_off_c, 9, 82, 17
1, 142260, Note_off_c, 2, 62, 24
1, 142264, Note_on_c, 2, 64, 127
1, 142264, Note_on_c, 9, 36, 125
1, 142264, Note_on_c, 9, 39, 110
1, 142308, Note_off_c, 0, 49, 64
1, 142356, Note_off_c, 9, 36, 17
1, 142356, Note_off_c, 9, 39, 17
1, 142452, Note_off_c, 2, 64, 24
1, 142456, Note_on_c, 0, 42, 110
1, 142456, Note_on_c, 2, 66, 127
1, 142456, Note_on_c, 9, 42, 110
1, 142548, Note_off_c, 9, 42, 17
1, 142620, Note_off_c, 0, 42, 17
1, 142644, Note_off_c, 2, 66, 24
1, 142648, Note_on_c, 0, 46, 110
1, 142648, Note_on_c, 2, 71, 127
1, 142648, Note_on_c, 9, 39, 110
1, 142740, Note_off_c, 1, 68, 64
1, 142740, Note_off_c, 1, 73, 64
1, 142740, Note_off_c, 1, 76, 64
1, 142740, Note_off_c, 9, 39, 17
1, 142812, Note_off_c, 0, 46, 17
1, 142836, Note_off_c, 2, 71, 24
1, 142840, Note_on_c, 0, 47, 110
1, 142840, Note_on_c, 1, 66, 110
1, 142840, Note_on_c, 1, 71, 110
1, 142840, Note_on_c, 1, 73, 110
1, 142840, Note_on_c, 2, 70, 127
1, 142840, Note_on_c, 9, 36, 125
1, 142840, Note_on_c, 9, 42, 110
1, 142840, Note_on_c, 9, 36, 125
1, 142932, Note_off_c, 9, 36, 64
1, 142932, Note_off_c, 9, 42, 64
1, 142932, Note_off_c, 9, 36, 64
1, 143028, Note_off_c, 2, 70, 77
1, 143032, Note_on_c, 2, 71, 127
1, 143032, Note_on_c, 9, 82, 110
1, 143032, Note_on_c, 9, 36, 125
1, 143032, Note_on_c, 9, 36, 125
1, 143124, Note_off_c, 9, 82, 17
1, 143124, Note_off_c, 9, 36, 17
1, 143124, Note_off_c, 9, 36, 17
1, 143220, Note_off_c, 2, 71, 24
1, 143224, Note_on_c, 2, 73, 127
1, 143224, Note_on_c, 9, 42, 110
1, 143224, Note_on_c, 9, 82, 110
1, 143224, Note_on_c, 9, 36, 125
1, 143224, Note_on_c, 9, 36, 125
1, 143316, Note_off_c, 9, 42, 17
1, 143316, Note_off_c, 9, 82, 17
1, 143316, Note_off_c, 9, 36, 17
1, 143316, Note_off_c, 9, 36, 17
1, 143412, Note_off_c, 2, 73, 24
1, 143416, Note_on_c, 2, 74, 127
1, 143416, Note_on_c, 9, 36, 125
1, 143416, Note_on_c, 9, 82, 110
1, 143416, Note_on_c, 9, 36, 125
1, 143508, Note_off_c, 9, 36, 17
1, 143508, Note_off_c, 9, 82, 17
1, 143508, Note_off_c, 9, 36, 17
1, 143604, Note_off_c, 2, 74, 24
1, 143608, Note_on_c, 2, 76, 127
1, 143608, Note_on_c, 9, 40, 110
1, 143608, Note_on_c, 9, 42, 110
1, 143608, Note_on_c, 9, 82, 110
1, 143700, Note_off_c, 9, 40, 17
1, 143700, Note_off_c, 9, 42, 17
1, 143700, Note_off_c, 9, 82, 17
1, 143796, Note_off_c, 2, 76, 24
1, 143800, Note_on_c, 2, 79, 127
1, 143800, Note_on_c, 9, 36, 125
1, 143800, Note_on_c, 9, 39, 110
1, 143800, Note_on_c, 9, 82, 110
1, 143892, Note_off_c, 9, 36, 17
1, 143892, Note_off_c, 9, 39, 17
1, 143892, Note_off_c, 9, 82, 17
1, 143916, Note_off_c, 1, 66, 64
1, 143916, Note_off_c, 1, 71, 64
1, 143916, Note_off_c, 1, 73, 64
1, 143988, Note_off_c, 2, 79, 24
1, 143992, Note_on_c, 1, 66, 110
1, 143992, Note_on_c, 1, 71, 110
1, 143992, Note_on_c, 1, 73, 110
1, 143992, Note_on_c, 2, 82, 127
1, 143992, Note_on_c, 9, 42, 110
1, 144084, Note_off_c, 9, 42, 17
1, 144180, Note_off_c, 0, 47, 64
1, 144180, Note_off_c, 2, 82, 24
1, 144184, Note_on_c, 2, 83, 127
1, 144184, Note_on_c, 9, 39, 110
1, 144276, Note_off_c, 9, 39, 17
1, 144340, Note_off_c, 2, 83, 24
1, 144348, Note_off_c, 1, 66, 17
1, 144348, Note_off_c, 1, 71, 17
1, 144348, Note_off_c, 1, 73, 17
1, 144376, Note_on_c, 0, 47, 110
1, 144376, Note_on_c, 1, 66, 110
1, 144376, Note_on_c, 1, 71, 110
1, 144376, Note_on_c, 1, 74, 110
1, 144376, Note_on_c, 3, 71, 78
1, 144376, Note_on_c, 9, 36, 125
1, 144376, Note_on_c, 9, 42, 110
1, 144468, Note_off_c, 9, 36, 64
1, 144468, Note_off_c, 9, 42, 64
1, 144568, Note_on_c, 9, 82, 110
1, 144660, Note_off_c, 9, 82, 17
1, 144760, Note_on_c, 2, 59, 127
1, 144760, Note_on_c, 9, 42, 110
1, 144760, Note_on_c, 9, 82, 110
1, 144852, Note_off_c, 9, 42, 17
1, 144852, Note_off_c, 9, 82, 17
1, 144948, Note_off_c, 2, 59, 24
1, 144952, Note_on_c, 2, 61, 127
1, 144952, Note_on_c, 3, 71, 78
1, 144952, Note_on_c, 9, 36, 125
1, 144952, Note_on_c, 9, 82, 110
1, 145044, Note_off_c, 2, 61, 24
1, 145044, Note_off_c, 9, 36, 17
1, 145044, Note_off_c, 9, 82, 17
1, 145144, Note_on_c, 9, 40, 110
1, 145144, Note_on_c, 9, 42, 110
1, 145144, Note_on_c, 9, 82, 110
1, 145208, Note_off_c, 3, 71, 78
1, 145236, Note_off_c, 9, 40, 17
1, 145236, Note_off_c, 9, 42, 17
1, 145236, Note_off_c, 9, 82, 17
1, 145336, Note_on_c, 9, 36, 125
1, 145336, Note_on_c, 9, 39, 90
1, 145380, Note_off_c, 0, 47, 64
1, 145428, Note_off_c, 9, 36, 17
1, 145428, Note_off_c, 9, 39, 17
1, 145452, Note_off_c, 1, 66, 64
1, 145452, Note_off_c, 1, 71, 64
1, 145452, Note_off_c, 1, 74, 64
1, 145452, Note_off_c, 3, 71, 39
1, 145528, Note_on_c, 0, 47, 110
1, 145528, Note_on_c, 1, 66, 110
1, 145528, Note_on_c, 1, 71, 110
1, 145528, Note_on_c, 1, 74, 110
1, 145528, Note_on_c, 2, 59, 127
1, 145528, Note_on_c, 9, 42, 110
1, 145528, Note_on_c, 9, 82, 110
1, 145620, Note_off_c, 9, 42, 17
1, 145620, Note_off_c, 9, 82, 17
1, 145716, Note_off_c, 2, 59, 24
1, 145720, Note_on_c, 9, 39, 110
1, 145812, Note_off_c, 9, 39, 17
1, 145860, Note_off_c, 0, 47, 17
1, 145884, Note_off_c, 1, 66, 17
1, 145884, Note_off_c, 1, 71, 17
1, 145884, Note_off_c, 1, 74, 17
1, 145912, Note_on_c, 0, 47, 110
1, 145912, Note_on_c, 1, 66, 110
1, 145912, Note_on_c, 1, 71, 110
1, 145912, Note_on_c, 1, 74, 110
1, 145912, Note_on_c, 9, 42, 110
1, 145912, Note_on_c, 9, 36, 125
1, 146004, Note_off_c, 9, 42, 64
1, 146004, Note_off_c, 9, 36, 64
1, 146104, Note_on_c, 9, 82, 110
1, 146104, Note_on_c, 9, 39, 110
1, 146196, Note_off_c, 9, 82, 17
1, 146196, Note_off_c, 9, 39, 17
1, 146296, Note_on_c, 2, 59, 127
1, 146296, Note_on_c, 9, 82, 110
1, 146296, Note_on_c, 9, 42, 110
1, 146296, Note_on_c, 9, 39, 110
1, 146388, Note_off_c, 9, 82, 17
1, 146388, Note_off_c, 9, 42, 17
1, 146388, Note_off_c, 9, 39, 17
1, 146412, Note_off_c, 0, 47, 64
1, 146484, Note_off_c, 2, 59, 24
1, 146488, Note_on_c, 0, 47, 110
1, 146488, Note_on_c, 2, 61, 127
1, 146488, Note_on_c, 9, 82, 110
1, 146488, Note_on_c, 9, 39, 110
1, 146580, Note_off_c, 2, 61, 24
1, 146580, Note_off_c, 9, 82, 17
1, 146580, Note_off_c, 9, 39, 17
1, 146628, Note_off_c, 1, 66, 64
1, 146628, Note_off_c, 1, 71, 64
1, 146628, Note_off_c, 1, 74, 64
1, 146680, Note_on_c, 1, 66, 110
1, 146680, Note_on_c, 1, 71, 110
1, 146680, Note_on_c, 1, 74, 110
1, 146680, Note_on_c, 9, 82, 110
1, 146680, Note_on_c, 9, 42, 110
1, 146680, Note_on_c, 9, 36, 125
1, 146772, Note_off_c, 9, 82, 17
1, 146772, Note_off_c, 9, 42, 17
1, 146772, Note_off_c, 9, 36, 17
1, 146872, Note_on_c, 9, 82, 110
1, 146872, Note_on_c, 9, 39, 110
1, 146936, Note_off_c, 1, 66, 64
1, 146936, Note_off_c, 1, 71, 64
1, 146936, Note_off_c, 1, 74, 64
1, 146964, Note_off_c, 9, 82, 17
1, 146964, Note_off_c, 9, 39, 17
1, 146988, Note_off_c, 0, 47, 17
1, 147064, Note_on_c, 0, 47, 110
1, 147064, Note_on_c, 2, 59, 127
1, 147064, Note_on_c, 9, 42, 110
1, 147064, Note_on_c, 9, 39, 110
1, 147156, Note_off_c, 9, 42, 17
1, 147156, Note_off_c, 9, 39, 17
1, 147228, Note_off_c, 0, 47, 17
1, 147252, Note_off_c, 2, 59, 24
1, 147256, Note_on_c, 0, 49, 110
1, 147256, Note_on_c, 9, 82, 110
1, 147256, Note_on_c, 9, 39, 110
1, 147348, Note_off_c, 9, 39, 17
1, 147448, Note_off_c, 0, 49, 64
1, 147448, Note_on_c, 0, 49, 110
1, 147448, Note_on_c, 1, 68, 110
1, 147448, Note_on_c, 1, 73, 110
1, 147448, Note_on_c, 1, 76, 110
1, 147448, Note_on_c, 3, 66, 78
1, 147448, Note_off_c, 9, 82, 64
1, 147448, Note_on_c, 9, 36, 125
1, 147448, Note_on_c, 9, 42, 110
1, 147540, Note_off_c, 9, 36, 64
1, 147540, Note_off_c, 9, 42, 64
1, 147640, Note_on_c, 9, 82, 110
1, 147704, Note_off_c, 3, 66, 39
1, 147732, Note_off_c, 9, 82, 17
1, 147832, Note_on_c, 9, 82, 110
1, 147832, Note_on_c, 9, 42, 110
1, 147924, Note_off_c, 9, 82, 17
1, 147924, Note_off_c, 9, 42, 17
1, 148024, Note_on_c, 3, 66, 78
1, 148024, Note_on_c, 9, 82, 110
1, 148024, Note_on_c, 9, 36, 125
1, 148116, Note_off_c, 9, 82, 17
1, 148116, Note_off_c, 9, 36, 17
1, 148216, Note_on_c, 2, 62, 127
1, 148216, Note_on_c, 9, 82, 110
1, 148216, Note_on_c, 9, 40, 110
1, 148216, Note_on_c, 9, 42, 110
1, 148280, Note_off_c, 3, 66, 78
1, 148308, Note_off_c, 9, 82, 17
1, 148308, Note_off_c, 9, 40, 17
1, 148308, Note_off_c, 9, 42, 17
1, 148404, Note_off_c, 2, 62, 24
1, 148408, Note_on_c, 2, 64, 127
1, 148408, Note_on_c, 9, 36, 125
1, 148408, Note_on_c, 9, 39, 110
1, 148452, Note_off_c, 0, 49, 64
1, 148500, Note_off_c, 9, 36, 17
1, 148500, Note_off_c, 9, 39, 17
1, 148596, Note_off_c, 2, 64, 24
1, 148600, Note_on_c, 0, 42, 110
1, 148600, Note_on_c, 2, 66, 127
1, 148600, Note_on_c, 9, 42, 110
1, 148692, Note_off_c, 9, 42, 17
1, 148764, Note_off_c, 0, 42, 17
1, 148788, Note_off_c, 2, 66, 24
1, 148792, Note_on_c, 0, 46, 110
1, 148792, Note_on_c, 2, 71, 127
1, 148792, Note_on_c, 9, 39, 110
1, 148884, Note_off_c, 1, 68, 64
1, 148884, Note_off_c, 1, 73, 64
1, 148884, Note_off_c, 1, 76, 64
1, 148884, Note_off_c, 9, 39, 17
1, 148956, Note_off_c, 0, 46, 17
1, 148980, Note_off_c, 2, 71, 24
1, 148984, Note_on_c, 0, 47, 110
1, 148984, Note_on_c, 1, 66, 110
1, 148984, Note_on_c, 1, 71, 110
1, 148984, Note_on_c, 1, 73, 110
1, 148984, Note_on_c, 2, 70, 127
1, 148984, Note_on_c, 9, 36, 125
1, 148984, Note_on_c, 9, 42, 110
1, 149076, Note_off_c, 9, 36, 64
1, 149076, Note_off_c, 9, 42, 64
1, 149172, Note_off_c, 2, 70, 77
1, 149176, Note_on_c, 2, 71, 127
1, 149176, Note_on_c, 9, 82, 110
1, 149268, Note_off_c, 9, 82, 17
1, 149364, Note_off_c, 2, 71, 24
1, 149368, Note_on_c, 2, 73, 127
1, 149368, Note_on_c, 9, 42, 110
1, 149368, Note_on_c, 9, 82, 110
1, 149460, Note_off_c, 9, 42, 17
1, 149460, Note_off_c, 9, 82, 17
1, 149556, Note_off_c, 2, 73, 24
1, 149560, Note_on_c, 2, 74, 127
1, 149560, Note_on_c, 9, 36, 125
1, 149560, Note_on_c, 9, 82, 110
1, 149652, Note_off_c, 9, 36, 17
1, 149652, Note_off_c, 9, 82, 17
1, 149748, Note_off_c, 2, 74, 24
1, 149752, Note_on_c, 2, 76, 127
1, 149752, Note_on_c, 9, 40, 110
1, 149752, Note_on_c, 9, 42, 110
1, 149752, Note_on_c, 9, 82, 110
1, 149844, Note_off_c, 9, 40, 17
1, 149844, Note_off_c, 9, 42, 17
1, 149844, Note_off_c, 9, 82, 17
1, 149940, Note_off_c, 2, 76, 24
1, 149944, Note_on_c, 2, 79, 127
1, 149944, Note_on_c, 9, 36, 125
1, 149944, Note_on_c, 9, 39, 110
1, 149944, Note_on_c, 9, 82, 110
1, 150036, Note_off_c, 9, 36, 17
1, 150036, Note_off_c, 9, 39, 17
1, 150036, Note_off_c, 9, 82, 17
1, 150060, Note_off_c, 1, 66, 64
1, 150060, Note_off_c, 1, 71, 64
1, 150060, Note_off_c, 1, 73, 64
1, 150132, Note_off_c, 2, 79, 24
1, 150136, Note_on_c, 1, 66, 110
1, 150136, Note_on_c, 1, 71, 110
1, 150136, Note_on_c, 1, 73, 110
1, 150136, Note_on_c, 2, 82, 127
1, 150136, Note_on_c, 9, 42, 110
1, 150228, Note_off_c, 9, 42, 17
1, 150324, Note_off_c, 0, 47, 64
1, 150324, Note_off_c, 2, 82, 24
1, 150328, Note_on_c, 2, 83, 127
1, 150328, Note_on_c, 9, 39, 110
1, 150420, Note_off_c, 9, 39, 17
1, 150484, Note_off_c, 2, 83, 24
1, 150492, Note_off_c, 1, 66, 17
1, 150492, Note_off_c, 1, 71, 17
1, 150492, Note_off_c, 1, 73, 17
1, 150520, Note_on_c, 0, 47, 110
1, 150520, Note_on_c, 1, 66, 110
1, 150520, Note_on_c, 1, 71, 110
1, 150520, Note_on_c, 1, 74, 110
1, 150520, Note_on_c, 3, 71, 78
1, 150520, Note_on_c, 9, 36, 125
1, 150520, Note_on_c, 9, 42, 110
1, 150612, Note_off_c, 9, 36, 64
1, 150612, Note_off_c, 9, 42, 64
1, 150712, Note_on_c, 9, 82, 110
1, 150804, Note_off_c, 9, 82, 17
1, 150904, Note_on_c, 9, 42, 110
1, 150904, Note_on_c, 9, 82, 110
1, 150996, Note_off_c, 9, 42, 17
1, 150996, Note_off_c, 9, 82, 17
1, 151096, Note_on_c, 3, 71, 78
1, 151096, Note_on_c, 9, 36, 125
1, 151096, Note_on_c, 9, 82, 110
1, 151188, Note_off_c, 9, 36, 17
1, 151188, Note_off_c, 9, 82, 17
1, 151288, Note_on_c, 9, 40, 110
1, 151288, Note_on_c, 9, 42, 110
1, 151288, Note_on_c, 9, 82, 110
1, 151352, Note_off_c, 3, 71, 78
1, 151380, Note_off_c, 9, 40, 17
1, 151380, Note_off_c, 9, 42, 17
1, 151380, Note_off_c, 9, 82, 17
1, 151480, Note_on_c, 2, 59, 127
1, 151480, Note_on_c, 9, 36, 125
1, 151480, Note_on_c, 9, 39, 90
1, 151524, Note_off_c, 0, 47, 64
1, 151572, Note_off_c, 9, 36, 17
1, 151572, Note_off_c, 9, 39, 17
1, 151596, Note_off_c, 1, 66, 64
1, 151596, Note_off_c, 1, 71, 64
1, 151596, Note_off_c, 1, 74, 64
1, 151596, Note_off_c, 3, 71, 39
1, 151668, Note_off_c, 2, 59, 24
1, 151672, Note_on_c, 0, 47, 110
1, 151672, Note_on_c, 1, 66, 110
1, 151672, Note_on_c, 1, 71, 110
1, 151672, Note_on_c, 1, 74, 110
1, 151672, Note_on_c, 2, 62, 127
1, 151672, Note_on_c, 9, 42, 110
1, 151672, Note_on_c, 9, 82, 110
1, 151764, Note_off_c, 2, 62, 24
1, 151764, Note_off_c, 9, 42, 17
1, 151764, Note_off_c, 9, 82, 17
1, 151864, Note_on_c, 2, 59, 127
1, 151864, Note_on_c, 9, 39, 110
1, 151956, Note_off_c, 9, 39, 17
1, 152004, Note_off_c, 0, 47, 17
1, 152028, Note_off_c, 1, 66, 17
1, 152028, Note_off_c, 1, 71, 17
1, 152028, Note_off_c, 1, 74, 17
1, 152052, Note_off_c, 2, 59, 24
1, 152056, Note_on_c, 0, 47, 110
1, 152056, Note_on_c, 1, 66, 110
1, 152056, Note_on_c, 1, 71, 110
1, 152056, Note_on_c, 1, 74, 110
1, 152056, Note_on_c, 2, 62, 127
1, 152056, Note_on_c, 9, 36, 125
1, 152056, Note_on_c, 9, 42, 110
1, 152148, Note_off_c, 2, 62, 77
1, 152148, Note_off_c, 9, 36, 64
1, 152148, Note_off_c, 9, 42, 64
1, 152248, Note_on_c, 9, 82, 110
1, 152340, Note_off_c, 9, 82, 17
1, 152440, Note_on_c, 9, 42, 110
1, 152440, Note_on_c, 9, 82, 110
1, 152532, Note_off_c, 9, 42, 17
1, 152532, Note_off_c, 9, 82, 17
1, 152632, Note_on_c, 9, 36, 125
1, 152632, Note_on_c, 9, 82, 110
1, 152724, Note_off_c, 9, 36, 17
1, 152724, Note_off_c, 9, 82, 17
1, 152824, Note_on_c, 9, 40, 110
1, 152824, Note_on_c, 9, 42, 110
1, 152824, Note_on_c, 9, 82, 110
1, 152892, Note_off_c, 0, 47, 64
1, 152916, Note_off_c, 9, 40, 17
1, 152916, Note_off_c, 9, 42, 17
1, 152916, Note_off_c, 9, 82, 17
1, 153016, Note_on_c, 0, 47, 110
1, 153016, Note_on_c, 2, 59, 127
1, 153016, Note_on_c, 9, 36, 125
1, 153016, Note_on_c, 9, 39, 90
1, 153016, Note_on_c, 9, 82, 110
1, 153108, Note_off_c, 9, 36, 17
1, 153108, Note_off_c, 9, 39, 17
1, 153108, Note_off_c, 9, 82, 17
1, 153132, Note_off_c, 1, 66, 64
1, 153132, Note_off_c, 1, 71, 64
1, 153132, Note_off_c, 1, 74, 64
1, 153180, Note_off_c, 0, 47, 17
1, 153204, Note_off_c, 2, 59, 24
1, 153208, Note_on_c, 0, 49, 110
1, 153208, Note_on_c, 1, 68, 110
1, 153208, Note_on_c, 1, 73, 110
1, 153208, Note_on_c, 1, 76, 110
1, 153208, Note_on_c, 2, 62, 127
1, 153208, Note_on_c, 9, 42, 110
1, 153300, Note_off_c, 2, 62, 24
1, 153300, Note_off_c, 9, 42, 17
1, 153372, Note_off_c, 0, 49, 17
1, 153400, Note_on_c, 0, 47, 110
1, 153400, Note_on_c, 2, 59, 127
1, 153400, Note_on_c, 9, 39, 110
1, 153400, Note_on_c, 9, 82, 110
1, 153492, Note_off_c, 9, 39, 17
1, 153492, Note_off_c, 9, 82, 17
1, 153564, Note_off_c, 0, 47, 17
1, 153564, Note_off_c, 1, 68, 17
1, 153564, Note_off_c, 1, 73, 17
1, 153564, Note_off_c, 1, 76, 17
1, 153588, Note_off_c, 2, 59, 24
1, 153592, Note_on_c, 0, 49, 110
1, 153592, Note_on_c, 1, 68, 110
1, 153592, Note_on_c, 1, 73, 110
1, 153592, Note_on_c, 1, 76, 110
1, 153592, Note_on_c, 3, 66, 78
1, 153592, Note_on_c, 9, 36, 125
1, 153592, Note_on_c, 9, 42, 110
1, 153684, Note_off_c, 9, 36, 64
1, 153684, Note_off_c, 9, 42, 64
1, 153784, Note_on_c, 9, 82, 110
1, 153848, Note_off_c, 3, 66, 39
1, 153876, Note_off_c, 9, 82, 17
1, 153976, Note_on_c, 9, 42, 110
1, 153976, Note_on_c, 9, 82, 110
1, 154068, Note_off_c, 9, 42, 17
1, 154068, Note_off_c, 9, 82, 17
1, 154168, Note_on_c, 3, 66, 78
1, 154168, Note_on_c, 9, 82, 110
1, 154260, Note_off_c, 9, 82, 17
1, 154360, Note_on_c, 2, 62, 127
1, 154360, Note_on_c, 9, 40, 110
1, 154360, Note_on_c, 9, 42, 110
1, 154360, Note_on_c, 9, 82, 110
1, 154424, Note_off_c, 3, 66, 78
1, 154452, Note_off_c, 9, 40, 17
1, 154452, Note_off_c, 9, 42, 17
1, 154452, Note_off_c, 9, 82, 17
1, 154548, Note_off_c, 2, 62, 24
1, 154552, Note_on_c, 2, 64, 127
1, 154552, Note_on_c, 9, 36, 125
1, 154552, Note_on_c, 9, 39, 110
1, 154596, Note_off_c, 0, 49, 64
1, 154644, Note_off_c, 9, 36, 17
1, 154644, Note_off_c, 9, 39, 17
1, 154740, Note_off_c, 2, 64, 24
1, 154744, Note_on_c, 0, 42, 110
1, 154744, Note_on_c, 2, 66, 127
1, 154744, Note_on_c, 9, 42, 110
1, 154836, Note_off_c, 9, 42, 17
1, 154908, Note_off_c, 0, 42, 17
1, 154932, Note_off_c, 2, 66, 24
1, 154936, Note_on_c, 0, 46, 110
1, 154936, Note_on_c, 2, 71, 127
1, 154936, Note_on_c, 9, 39, 110
1, 155028, Note_off_c, 1, 68, 64
1, 155028, Note_off_c, 1, 73, 64
1, 155028, Note_off_c, 1, 76, 64
1, 155028, Note_off_c, 9, 39, 17
1, 155100, Note_off_c, 0, 46, 17
1, 155124, Note_off_c, 2, 71, 24
1, 155128, Note_on_c, 0, 47, 110
1, 155128, Note_on_c, 1, 66, 110
1, 155128, Note_on_c, 1, 71, 110
1, 155128, Note_on_c, 1, 73, 110
1, 155128, Note_on_c, 2, 70, 127
1, 155128, Note_on_c, 9, 36, 125
1, 155128, Note_on_c, 9, 42, 110
1, 155220, Note_off_c, 9, 36, 64
1, 155220, Note_off_c, 9, 42, 64
1, 155316, Note_off_c, 2, 70, 77
1, 155320, Note_on_c, 2, 71, 127
1, 155320, Note_on_c, 9, 82, 110
1, 155412, Note_off_c, 9, 82, 17
1, 155508, Note_off_c, 2, 71, 24
1, 155512, Note_on_c, 2, 73, 127
1, 155512, Note_on_c, 9, 42, 110
1, 155512, Note_on_c, 9, 82, 110
1, 155604, Note_off_c, 9, 42, 17
1, 155604, Note_off_c, 9, 82, 17
1, 155700, Note_off_c, 2, 73, 24
1, 155704, Note_on_c, 2, 74, 127
1, 155704, Note_on_c, 9, 36, 125
1, 155704, Note_on_c, 9, 82, 110
1, 155796, Note_off_c, 9, 36, 17
1, 155796, Note_off_c, 9, 82, 17
1, 155892, Note_off_c, 2, 74, 24
1, 155896, Note_on_c, 2, 76, 127
1, 155896, Note_on_c, 9, 40, 110
1, 155896, Note_on_c, 9, 42, 110
1, 155896, Note_on_c, 9, 82, 110
1, 155988, Note_off_c, 9, 40, 17
1, 155988, Note_off_c, 9, 42, 17
1, 155988, Note_off_c, 9, 82, 17
1, 156084, Note_off_c, 2, 76, 24
1, 156088, Note_on_c, 2, 79, 127
1, 156088, Note_on_c, 9, 36, 125
1, 156088, Note_on_c, 9, 39, 110
1, 156088, Note_on_c, 9, 82, 110
1, 156180, Note_off_c, 9, 36, 17
1, 156180, Note_off_c, 9, 39, 17
1, 156180, Note_off_c, 9, 82, 17
1, 156204, Note_off_c, 1, 66, 64
1, 156204, Note_off_c, 1, 71, 64
1, 156204, Note_off_c, 1, 73, 64
1, 156276, Note_off_c, 2, 79, 24
1, 156280, Note_on_c, 1, 66, 110
1, 156280, Note_on_c, 1, 71, 110
1, 156280, Note_on_c, 1, 73, 110
1, 156280, Note_on_c, 2, 82, 127
1, 156280, Note_on_c, 9, 42, 110
1, 156372, Note_off_c, 9, 42, 17
1, 156468, Note_off_c, 0, 47, 64
1, 156468, Note_off_c, 2, 82, 24
1, 156472, Note_on_c, 2, 83, 127
1, 156472, Note_on_c, 9, 39, 110
1, 156564, Note_off_c, 9, 39, 17
1, 156628, Note_off_c, 2, 83, 24
1, 156636, Note_off_c, 1, 66, 17
1, 156636, Note_off_c, 1, 71, 17
1, 156636, Note_off_c, 1, 73, 17
1, 156664, Note_on_c, 0, 47, 110
1, 156664, Note_on_c, 1, 66, 110
1, 156664, Note_on_c, 1, 71, 110
1, 156664, Note_on_c, 1, 74, 110
1, 156664, Note_on_c, 3, 71, 78
1, 156664, Note_on_c, 9, 36, 125
1, 156664, Note_on_c, 9, 42, 110
1, 156756, Note_off_c, 9, 36, 64
1, 156756, Note_off_c, 9, 42, 64
1, 156856, Note_on_c, 9, 82, 110
1, 156948, Note_off_c, 9, 82, 17
1, 157048, Note_on_c, 2, 59, 127
1, 157048, Note_on_c, 9, 42, 110
1, 157048, Note_on_c, 9, 82, 110
1, 157140, Note_off_c, 9, 42, 17
1, 157140, Note_off_c, 9, 82, 17
1, 157236, Note_off_c, 2, 59, 24
1, 157240, Note_on_c, 2, 61, 127
1, 157240, Note_on_c, 3, 71, 78
1, 157240, Note_on_c, 9, 36, 125
1, 157240, Note_on_c, 9, 82, 110
1, 157332, Note_off_c, 2, 61, 24
1, 157332, Note_off_c, 9, 36, 17
1, 157332, Note_off_c, 9, 82, 17
1, 157432, Note_on_c, 9, 40, 110
1, 157432, Note_on_c, 9, 42, 110
1, 157432, Note_on_c, 9, 82, 110
1, 157496, Note_off_c, 3, 71, 78
1, 157524, Note_off_c, 9, 40, 17
1, 157524, Note_off_c, 9, 42, 17
1, 157524, Note_off_c, 9, 82, 17
1, 157624, Note_on_c, 9, 36, 125
1, 157624, Note_on_c, 9, 39, 90
1, 157668, Note_off_c, 0, 47, 64
1, 157716, Note_off_c, 9, 36, 17
1, 157716, Note_off_c, 9, 39, 17
1, 157740, Note_off_c, 1, 66, 64
1, 157740, Note_off_c, 1, 71, 64
1, 157740, Note_off_c, 1, 74, 64
1, 157740, Note_off_c, 3, 71, 39
1, 157816, Note_on_c, 0, 47, 110
1, 157816, Note_on_c, 1, 66, 110
1, 157816, Note_on_c, 1, 71, 110
1, 157816, Note_on_c, 1, 74, 110
1, 157816, Note_on_c, 2, 59, 127
1, 157816, Note_on_c, 9, 42, 110
1, 157816, Note_on_c, 9, 82, 110
1, 157908, Note_off_c, 9, 42, 17
1, 157908, Note_off_c, 9, 82, 17
1, 158004, Note_off_c, 2, 59, 24
1, 158008, Note_on_c, 9, 39, 110
1, 158100, Note_off_c, 9, 39, 17
1, 158148, Note_off_c, 0, 47, 17
1, 158172, Note_off_c, 1, 66, 17
1, 158172, Note_off_c, 1, 71, 17
1, 158172, Note_off_c, 1, 74, 17
1, 158200, Note_on_c, 0, 47, 110
1, 158200, Note_on_c, 1, 66, 110
1, 158200, Note_on_c, 1, 71, 110
1, 158200, Note_on_c, 1, 74, 110
1, 158200, Note_on_c, 9, 36, 125
1, 158200, Note_on_c, 9, 42, 110
1, 158292, Note_off_c, 9, 36, 64
1, 158292, Note_off_c, 9, 42, 64
1, 158392, Note_on_c, 9, 82, 110
1, 158484, Note_off_c, 9, 82, 17
1, 158584, Note_on_c, 2, 59, 127
1, 158584, Note_on_c, 9, 42, 110
1, 158584, Note_on_c, 9, 82, 110
1, 158676, Note_off_c, 9, 42, 17
1, 158676, Note_off_c, 9, 82, 17
1, 158700, Note_off_c, 0, 47, 64
1, 158772, Note_off_c, 2, 59, 24
1, 158776, Note_on_c, 0, 47, 110
1, 158776, Note_on_c, 2, 61, 127
1, 158776, Note_on_c, 9, 36, 125
1, 158776, Note_on_c, 9, 82, 110
1, 158868, Note_off_c, 2, 61, 24
1, 158868, Note_off_c, 9, 36, 17
1, 158868, Note_off_c, 9, 82, 17
1, 158916, Note_off_c, 1, 66, 64
1, 158916, Note_off_c, 1, 71, 64
1, 158916, Note_off_c, 1, 74, 64
1, 158968, Note_on_c, 1, 66, 110
1, 158968, Note_on_c, 1, 71, 110
1, 158968, Note_on_c, 1, 74, 110
1, 158968, Note_on_c, 9, 40, 110
1, 158968, Note_on_c, 9, 42, 110
1, 158968, Note_on_c, 9, 82, 110
1, 159060, Note_off_c, 9, 40, 17
1, 159060, Note_off_c, 9, 42, 17
1, 159060, Note_off_c, 9, 82, 17
1, 159160, Note_on_c, 9, 36, 125
1, 159160, Note_on_c, 9, 39, 90
1, 159160, Note_on_c, 9, 82, 110
1, 159224, Note_off_c, 1, 66, 64
1, 159224, Note_off_c, 1, 71, 64
1, 159224, Note_off_c, 1, 74, 64
1, 159252, Note_off_c, 9, 36, 17
1, 159252, Note_off_c, 9, 39, 17
1, 159252, Note_off_c, 9, 82, 17
1, 159276, Note_off_c, 0, 47, 17
1, 159352, Note_on_c, 0, 47, 110
1, 159352, Note_on_c, 2, 59, 127
1, 159352, Note_on_c, 9, 42, 110
1, 159444, Note_off_c, 9, 42, 17
1, 159516, Note_off_c, 0, 47, 17
1, 159540, Note_off_c, 2, 59, 24
1, 159544, Note_on_c, 0, 49, 110
1, 159544, Note_on_c, 9, 39, 110
1, 159544, Note_on_c, 9, 82, 110
1, 159736, Note_off_c, 0, 49, 64
1, 159736, Note_off_c, 9, 39, 64
1, 159736, Note_off_c, 9, 82, 64
1, 159928, Note_on_c, 9, 82, 110
1, 160020, Note_off_c, 9, 82, 17
1, 160120, Note_on_c, 9, 82, 110
1, 160212, Note_off_c, 9, 82, 17
1, 160312, Note_on_c, 9, 82, 110
1, 160404, Note_off_c, 9, 82, 17
1, 160504, Note_on_c, 9, 82, 110
1, 160596, Note_off_c, 9, 82, 17
1, 160696, Note_on_c, 9, 39, 110
1, 160788, Note_off_c, 9, 39, 17
1, 161080, Note_on_c, 9, 39, 110
1, 161172, Note_off_c, 9, 39, 17
1, 161464, Note_on_c, 9, 82, 110
1, 161556, Note_off_c, 9, 82, 17
1, 161656, Note_on_c, 9, 82, 110
1, 161748, Note_off_c, 9, 82, 17
1, 161848, Note_on_c, 9, 82, 110
1, 161940, Note_off_c, 9, 82, 17
1, 162040, Note_on_c, 9, 40, 110
1, 162040, Note_on_c, 9, 42, 110
1, 162040, Note_on_c, 9, 82, 110
1, 162132, Note_off_c, 9, 40, 17
1, 162132, Note_off_c, 9, 42, 17
1, 162132, Note_off_c, 9, 82, 17
1, 162232, Note_on_c, 9, 36, 125
1, 162232, Note_on_c, 9, 39, 110
1, 162232, Note_on_c, 9, 82, 110
1, 162324, Note_off_c, 9, 36, 17
1, 162324, Note_off_c, 9, 39, 17
1, 162324, Note_off_c, 9, 82, 17
1, 162424, Note_on_c, 9, 42, 110
1, 162516, Note_off_c, 9, 42, 17
1, 162616, Note_on_c, 9, 39, 110
1, 162708, Note_off_c, 9, 39, 17
1, 162808, Note_on_c, 3, 71, 78
1, 162808, Note_on_c, 9, 36, 125
1, 162808, Note_on_c, 9, 42, 110
1, 162900, Note_off_c, 9, 36, 64
1, 162900, Note_off_c, 9, 42, 64
1, 163000, Note_on_c, 9, 82, 110
1, 163064, Note_off_c, 3, 71, 39
1, 163092, Note_off_c, 9, 82, 17
1, 163192, Note_on_c, 9, 42, 110
1, 163192, Note_on_c, 9, 82, 110
1, 163284, Note_off_c, 9, 42, 17
1, 163284, Note_off_c, 9, 82, 17
1, 163384, Note_on_c, 3, 71, 78
1, 163384, Note_on_c, 9, 36, 125
1, 163384, Note_on_c, 9, 82, 110
1, 163476, Note_off_c, 9, 36, 17
1, 163476, Note_off_c, 9, 82, 17
1, 163576, Note_on_c, 9, 40, 110
1, 163576, Note_on_c, 9, 42, 110
1, 163576, Note_on_c, 9, 82, 110
1, 163640, Note_off_c, 3, 71, 78
1, 163668, Note_off_c, 9, 40, 17
1, 163668, Note_off_c, 9, 42, 17
1, 163668, Note_off_c, 9, 82, 17
1, 163768, Note_on_c, 9, 36, 125
1, 163768, Note_on_c, 9, 39, 90
1, 163768, Note_on_c, 9, 82, 110
1, 163860, Note_off_c, 9, 36, 17
1, 163860, Note_off_c, 9, 39, 17
1, 163860, Note_off_c, 9, 82, 17
1, 163960, Note_on_c, 9, 42, 110
1, 164052, Note_off_c, 9, 42, 17
1, 164152, Note_on_c, 9, 39, 110
1, 164152, Note_on_c, 9, 82, 110
1, 164344, Note_off_c, 9, 39, 64
1, 164344, Note_off_c, 9, 82, 64
1, 164344, Note_on_c, 9, 36, 125
1, 164344, Note_on_c, 9, 42, 110
1, 164436, Note_off_c, 9, 36, 64
1, 164436, Note_off_c, 9, 42, 64
1, 164536, Note_on_c, 9, 82, 110
1, 164628, Note_off_c, 9, 82, 17
1, 164728, Note_on_c, 9, 42, 110
1, 164728, Note_on_c, 9, 82, 110
1, 164820, Note_off_c, 9, 42, 17
1, 164820, Note_off_c, 9, 82, 17
1, 164920, Note_on_c, 9, 36, 125
1, 164920, Note_on_c, 9, 82, 110
1, 165012, Note_off_c, 9, 36, 17
1, 165012, Note_off_c, 9, 82, 17
1, 165112, Note_on_c, 9, 40, 110
1, 165112, Note_on_c, 9, 42, 110
1, 165112, Note_on_c, 9, 82, 110
1, 165204, Note_off_c, 9, 40, 17
1, 165204, Note_off_c, 9, 42, 17
1, 165204, Note_off_c, 9, 82, 17
1, 165304, Note_on_c, 9, 36, 125
1, 165304, Note_on_c, 9, 39, 90
1, 165304, Note_on_c, 9, 82, 110
1, 165396, Note_off_c, 9, 36, 17
1, 165396, Note_off_c, 9, 39, 17
1, 165396, Note_off_c, 9, 82, 17
1, 165496, Note_on_c, 9, 42, 110
1, 165588, Note_off_c, 9, 42, 17
1, 165688, Note_on_c, 9, 39, 110
1, 165688, Note_on_c, 9, 82, 110
1, 165880, Note_on_c, 3, 66, 78
1, 165880, Note_off_c, 9, 39, 64
1, 165880, Note_off_c, 9, 82, 64
1, 165880, Note_on_c, 9, 36, 125
1, 165880, Note_on_c, 9, 42, 110
1, 165972, Note_off_c, 9, 36, 64
1, 165972, Note_off_c, 9, 42, 64
1, 166072, Note_on_c, 9, 82, 110
1, 166136, Note_off_c, 3, 66, 39
1, 166164, Note_off_c, 9, 82, 17
1, 166264, Note_on_c, 9, 42, 110
1, 166264, Note_on_c, 9, 82, 110
1, 166356, Note_off_c, 9, 42, 17
1, 166356, Note_off_c, 9, 82, 17
1, 166456, Note_on_c, 3, 66, 78
1, 166456, Note_on_c, 9, 82, 110
1, 166548, Note_off_c, 9, 82, 17
1, 166648, Note_on_c, 9, 40, 110
1, 166648, Note_on_c, 9, 42, 110
1, 166648, Note_on_c, 9, 82, 110
1, 166712, Note_off_c, 3, 66, 78
1, 166740, Note_off_c, 9, 40, 17
1, 166740, Note_off_c, 9, 42, 17
1, 166740, Note_off_c, 9, 82, 17
1, 166840, Note_on_c, 9, 36, 125
1, 166840, Note_on_c, 9, 39, 110
1, 166932, Note_off_c, 9, 36, 17
1, 166932, Note_off_c, 9, 39, 17
1, 167032, Note_on_c, 9, 42, 110
1, 167124, Note_off_c, 9, 42, 17
1, 167224, Note_on_c, 9, 39, 110
1, 167316, Note_off_c, 9, 39, 17
1, 167416, Note_on_c, 9, 36, 125
1, 167416, Note_on_c, 9, 42, 110
1, 167416, Note_on_c, 9, 36, 125
1, 167508, Note_off_c, 9, 36, 64
1, 167508, Note_off_c, 9, 42, 64
1, 167508, Note_off_c, 9, 36, 64
1, 167608, Note_on_c, 9, 82, 110
1, 167608, Note_on_c, 9, 36, 125
1, 167608, Note_on_c, 9, 36, 125
1, 167700, Note_off_c, 9, 82, 17
1, 167700, Note_off_c, 9, 36, 17
1, 167700, Note_off_c, 9, 36, 17
1, 167800, Note_on_c, 9, 42, 110
1, 167800, Note_on_c, 9, 82, 110
1, 167800, Note_on_c, 9, 36, 125
1, 167800, Note_on_c, 9, 36, 125
1, 167892, Note_off_c, 9, 42, 17
1, 167892, Note_off_c, 9, 82, 17
1, 167892, Note_off_c, 9, 36, 17
1, 167892, Note_off_c, 9, 36, 17
1, 167992, Note_on_c, 9, 36, 125
1, 167992, Note_on_c, 9, 82, 110
1, 167992, Note_on_c, 9, 36, 125
1, 168084, Note_off_c, 9, 36, 17
1, 168084, Note_off_c, 9, 82, 17
1, 168084, Note_off_c, 9, 36, 17
1, 168184, Note_on_c, 9, 40, 110
1, 168184, Note_on_c, 9, 42, 110
1, 168184, Note_on_c, 9, 82, 110
1, 168276, Note_off_c, 9, 40, 17
1, 168276, Note_off_c, 9, 42, 17
1, 168276, Note_off_c, 9, 82, 17
1, 168376, Note_on_c, 9, 36, 125
1, 168376, Note_on_c, 9, 39, 110
1, 168376, Note_on_c, 9, 82, 110
1, 168468, Note_off_c, 9, 36, 17
1, 168468, Note_off_c, 9, 39, 17
1, 168468, Note_off_c, 9, 82, 17
1, 168568, Note_on_c, 9, 42, 110
1, 168660, Note_off_c, 9, 42, 17
1, 168760, Note_on_c, 9, 39, 110
1, 168852, Note_off_c, 9, 39, 17
1, 168952, Note_on_c, 3, 71, 78
1, 168952, Note_on_c, 9, 36, 125
1, 168952, Note_on_c, 9, 42, 110
1, 169044, Note_off_c, 9, 36, 64
1, 169044, Note_off_c, 9, 42, 64
1, 169144, Note_on_c, 9, 82, 110
1, 169208, Note_off_c, 3, 71, 39
1, 169236, Note_off_c, 9, 82, 17
1, 169336, Note_on_c, 9, 42, 110
1, 169336, Note_on_c, 9, 82, 110
1, 169428, Note_off_c, 9, 42, 17
1, 169428, Note_off_c, 9, 82, 17
1, 169528, Note_on_c, 3, 71, 78
1, 169528, Note_on_c, 9, 36, 125
1, 169528, Note_on_c, 9, 82, 110
1, 169620, Note_off_c, 9, 36, 17
1, 169620, Note_off_c, 9, 82, 17
1, 169720, Note_on_c, 9, 40, 110
1, 169720, Note_on_c, 9, 42, 110
1, 169720, Note_on_c, 9, 82, 110
1, 169784, Note_off_c, 3, 71, 78
1, 169812, Note_off_c, 9, 40, 17
1, 169812, Note_off_c, 9, 42, 17
1, 169812, Note_off_c, 9, 82, 17
1, 169912, Note_on_c, 9, 36, 125
1, 169912, Note_on_c, 9, 39, 90
1, 170004, Note_off_c, 9, 36, 17
1, 170004, Note_off_c, 9, 39, 17
1, 170104, Note_on_c, 9, 42, 110
1, 170104, Note_on_c, 9, 82, 110
1, 170196, Note_off_c, 9, 42, 17
1, 170196, Note_off_c, 9, 82, 17
1, 170296, Note_on_c, 9, 39, 110
1, 170388, Note_off_c, 9, 39, 17
1, 170488, Note_on_c, 9, 42, 110
1, 170488, Note_on_c, 9, 36, 125
1, 170580, Note_off_c, 9, 42, 64
1, 170580, Note_off_c, 9, 36, 64
1, 170680, Note_on_c, 9, 82, 110
1, 170680, Note_on_c, 9, 39, 110
1, 170772, Note_off_c, 9, 82, 17
1, 170772, Note_off_c, 9, 39, 17
1, 170872, Note_on_c, 9, 82, 110
1, 170872, Note_on_c, 9, 42, 110
1, 170872, Note_on_c, 9, 39, 110
1, 170964, Note_off_c, 9, 82, 17
1, 170964, Note_off_c, 9, 42, 17
1, 170964, Note_off_c, 9, 39, 17
1, 171064, Note_on_c, 9, 82, 110
1, 171064, Note_on_c, 9, 39, 110
1, 171156, Note_off_c, 9, 82, 17
1, 171156, Note_off_c, 9, 39, 17
1, 171256, Note_on_c, 9, 82, 110
1, 171256, Note_on_c, 9, 42, 110
1, 171256, Note_on_c, 9, 36, 125
1, 171348, Note_off_c, 9, 82, 17
1, 171348, Note_off_c, 9, 42, 17
1, 171348, Note_off_c, 9, 36, 17
1, 171448, Note_on_c, 9, 82, 110
1, 171448, Note_on_c, 9, 39, 110
1, 171540, Note_off_c, 9, 82, 17
1, 171540, Note_off_c, 9, 39, 17
1, 171640, Note_on_c, 9, 42, 110
1, 171640, Note_on_c, 9, 39, 110
1, 171732, Note_off_c, 9, 42, 17
1, 171732, Note_off_c, 9, 39, 17
1, 171832, Note_on_c, 9, 82, 110
1, 171832, Note_on_c, 9, 39, 110
1, 171924, Note_off_c, 9, 39, 17
1, 172024, Note_on_c, 3, 66, 78
1, 172024, Note_off_c, 9, 82, 64
1, 172024, Note_on_c, 9, 36, 125
1, 172024, Note_on_c, 9, 42, 110
1, 172116, Note_off_c, 9, 36, 64
1, 172116, Note_off_c, 9, 42, 64
1, 172216, Note_on_c, 9, 82, 110
1, 172280, Note_off_c, 3, 66, 39
1, 172308, Note_off_c, 9, 82, 17
1, 172408, Note_on_c, 6, 90, 127
1, 172408, Note_on_c, 9, 42, 110
1, 172408, Note_on_c, 9, 82, 110
1, 172500, Note_off_c, 9, 42, 17
1, 172500, Note_off_c, 9, 82, 17
1, 172600, Note_on_c, 3, 66, 78
1, 172600, Note_on_c, 9, 36, 125
1, 172600, Note_on_c, 9, 82, 110
1, 172664, Note_off_c, 6, 90, 127
1, 172692, Note_off_c, 9, 36, 17
1, 172692, Note_off_c, 9, 82, 17
1, 172792, Note_on_c, 9, 40, 110
1, 172792, Note_on_c, 9, 42, 110
1, 172792, Note_on_c, 9, 82, 110
1, 172856, Note_off_c, 3, 66, 78
1, 172884, Note_off_c, 9, 40, 17
1, 172884, Note_off_c, 9, 42, 17
1, 172884, Note_off_c, 9, 82, 17
1, 172984, Note_on_c, 9, 36, 125
1, 172984, Note_on_c, 9, 39, 90
1, 172984, Note_on_c, 9, 82, 110
1, 173076, Note_off_c, 9, 36, 17
1, 173076, Note_off_c, 9, 39, 17
1, 173076, Note_off_c, 9, 82, 17
1, 173176, Note_on_c, 9, 42, 110
1, 173268, Note_off_c, 9, 42, 17
1, 173368, Note_on_c, 9, 39, 110
1, 173368, Note_on_c, 9, 82, 110
1, 173560, Note_off_c, 9, 39, 64
1, 173560, Note_off_c, 9, 82, 64
1, 173560, Note_on_c, 9, 36, 125
1, 173560, Note_on_c, 9, 42, 110
1, 173652, Note_off_c, 9, 36, 64
1, 173652, Note_off_c, 9, 42, 64
1, 173752, Note_on_c, 6, 90, 127
1, 173752, Note_on_c, 9, 82, 110
1, 173844, Note_off_c, 9, 82, 17
1, 173880, Note_off_c, 6, 90, 127
1, 173944, Note_on_c, 6, 90, 127
1, 173944, Note_on_c, 9, 42, 110
1, 173944, Note_on_c, 9, 82, 110
1, 174036, Note_off_c, 9, 42, 17
1, 174036, Note_off_c, 9, 82, 17
1, 174072, Note_off_c, 6, 90, 127
1, 174136, Note_on_c, 9, 36, 125
1, 174136, Note_on_c, 9, 82, 110
1, 174228, Note_off_c, 9, 36, 17
1, 174228, Note_off_c, 9, 82, 17
1, 174328, Note_on_c, 9, 40, 110
1, 174328, Note_on_c, 9, 42, 110
1, 174328, Note_on_c, 9, 82, 110
1, 174420, Note_off_c, 9, 40, 17
1, 174420, Note_off_c, 9, 42, 17
1, 174420, Note_off_c, 9, 82, 17
1, 174520, Note_on_c, 9, 36, 125
1, 174520, Note_on_c, 9, 39, 90
1, 174520, Note_on_c, 9, 82, 110
1, 174612, Note_off_c, 9, 36, 17
1, 174612, Note_off_c, 9, 39, 17
1, 174612, Note_off_c, 9, 82, 17
1, 174712, Note_on_c, 9, 42, 110
1, 174804, Note_off_c, 9, 42, 17
1, 174904, Note_on_c, 9, 39, 110
1, 174904, Note_on_c, 9, 82, 110
1, 175096, Note_on_c, 3, 71, 78
1, 175096, Note_off_c, 9, 39, 64
1, 175096, Note_off_c, 9, 82, 64
1, 175096, Note_on_c, 9, 36, 125
1, 175096, Note_on_c, 9, 42, 110
1, 175188, Note_off_c, 9, 36, 64
1, 175188, Note_off_c, 9, 42, 64
1, 175288, Note_on_c, 9, 82, 110
1, 175352, Note_off_c, 3, 71, 39
1, 175380, Note_off_c, 9, 82, 17
1, 175480, Note_on_c, 6, 90, 127
1, 175480, Note_on_c, 9, 42, 110
1, 175480, Note_on_c, 9, 82, 110
1, 175572, Note_off_c, 9, 42, 17
1, 175572, Note_off_c, 9, 82, 17
1, 175672, Note_on_c, 3, 71, 78
1, 175672, Note_on_c, 9, 36, 125
1, 175672, Note_on_c, 9, 82, 110
1, 175736, Note_off_c, 6, 90, 127
1, 175764, Note_off_c, 9, 36, 17
1, 175764, Note_off_c, 9, 82, 17
1, 175864, Note_on_c, 9, 40, 110
1, 175864, Note_on_c, 9, 42, 110
1, 175864, Note_on_c, 9, 82, 110
1, 175928, Note_off_c, 3, 71, 78
1, 175956, Note_off_c, 9, 40, 17
1, 175956, Note_off_c, 9, 42, 17
1, 175956, Note_off_c, 9, 82, 17
1, 176056, Note_on_c, 9, 36, 125
1, 176056, Note_on_c, 9, 39, 90
1, 176056, Note_on_c, 9, 82, 110
1, 176148, Note_off_c, 9, 36, 17
1, 176148, Note_off_c, 9, 39, 17
1, 176148, Note_off_c, 9, 82, 17
1, 176248, Note_on_c, 9, 42, 110
1, 176340, Note_off_c, 9, 42, 17
1, 176440, Note_on_c, 9, 39, 110
1, 176440, Note_on_c, 9, 82, 110
1, 176632, Note_off_c, 9, 39, 64
1, 176632, Note_off_c, 9, 82, 64
1, 176632, Note_on_c, 9, 36, 125
1, 176632, Note_on_c, 9, 42, 110
1, 176724, Note_off_c, 9, 36, 64
1, 176724, Note_off_c, 9, 42, 64
1, 176824, Note_on_c, 6, 90, 127
1, 176824, Note_on_c, 9, 82, 110
1, 176916, Note_off_c, 9, 82, 17
1, 176952, Note_off_c, 6, 90, 127
1, 177016, Note_on_c, 6, 90, 127
1, 177016, Note_on_c, 9, 42, 110
1, 177016, Note_on_c, 9, 82, 110
1, 177108, Note_off_c, 9, 42, 17
1, 177108, Note_off_c, 9, 82, 17
1, 177144, Note_off_c, 6, 90, 127
1, 177208, Note_on_c, 9, 36, 125
1, 177208, Note_on_c, 9, 82, 110
1, 177300, Note_off_c, 9, 36, 17
1, 177300, Note_off_c, 9, 82, 17
1, 177400, Note_on_c, 9, 40, 110
1, 177400, Note_on_c, 9, 42, 110
1, 177400, Note_on_c, 9, 82, 110
1, 177492, Note_off_c, 9, 40, 17
1, 177492, Note_off_c, 9, 42, 17
1, 177492, Note_off_c, 9, 82, 17
1, 177592, Note_on_c, 9, 36, 125
1, 177592, Note_on_c, 9, 39, 90
1, 177592, Note_on_c, 9, 82, 110
1, 177684, Note_off_c, 9, 36, 17
1, 177684, Note_off_c, 9, 39, 17
1, 177684, Note_off_c, 9, 82, 17
1, 177784, Note_on_c, 9, 42, 110
1, 177876, Note_off_c, 9, 42, 17
1, 177976, Note_on_c, 9, 39, 110
1, 177976, Note_on_c, 9, 82, 110
1, 178168, Note_on_c, 3, 66, 78
1, 178168, Note_off_c, 9, 39, 64
1, 178168, Note_off_c, 9, 82, 64
1, 178168, Note_on_c, 9, 36, 125
1, 178168, Note_on_c, 9, 42, 110
1, 178260, Note_off_c, 9, 36, 64
1, 178260, Note_off_c, 9, 42, 64
1, 178360, Note_on_c, 9, 82, 110
1, 178424, Note_off_c, 3, 66, 39
1, 178452, Note_off_c, 9, 82, 17
1, 178552, Note_on_c, 6, 90, 127
1, 178552, Note_on_c, 9, 42, 110
1, 178552, Note_on_c, 9, 82, 110
1, 178644, Note_off_c, 9, 42, 17
1, 178644, Note_off_c, 9, 82, 17
1, 178744, Note_on_c, 3, 66, 78
1, 178744, Note_on_c, 9, 36, 125
1, 178744, Note_on_c, 9, 82, 110
1, 178808, Note_off_c, 6, 90, 127
1, 178836, Note_off_c, 9, 36, 17
1, 178836, Note_off_c, 9, 82, 17
1, 178936, Note_on_c, 9, 40, 110
1, 178936, Note_on_c, 9, 42, 110
1, 178936, Note_on_c, 9, 82, 110
1, 179000, Note_off_c, 3, 66, 78
1, 179028, Note_off_c, 9, 40, 17
1, 179028, Note_off_c, 9, 42, 17
1, 179028, Note_off_c, 9, 82, 17
1, 179128, Note_on_c, 9, 36, 125
1, 179128, Note_on_c, 9, 39, 90
1, 179128, Note_on_c, 9, 82, 110
1, 179220, Note_off_c, 9, 36, 17
1, 179220, Note_off_c, 9, 39, 17
1, 179220, Note_off_c, 9, 82, 17
1, 179320, Note_on_c, 9, 42, 110
1, 179412, Note_off_c, 9, 42, 17
1, 179512, Note_on_c, 9, 39, 110
1, 179512, Note_on_c, 9, 82, 110
1, 179704, Note_off_c, 9, 39, 64
1, 179704, Note_off_c, 9, 82, 64
1, 179704, Note_on_c, 9, 36, 125
1, 179704, Note_on_c, 9, 42, 110
1, 179796, Note_off_c, 9, 36, 64
1, 179796, Note_off_c, 9, 42, 64
1, 179896, Note_on_c, 6, 90, 127
1, 179896, Note_on_c, 9, 82, 110
1, 179988, Note_off_c, 9, 82, 17
1, 180024, Note_off_c, 6, 90, 127
1, 180088, Note_on_c, 6, 90, 127
1, 180088, Note_on_c, 9, 42, 110
1, 180088, Note_on_c, 9, 82, 110
1, 180180, Note_off_c, 9, 42, 17
1, 180180, Note_off_c, 9, 82, 17
1, 180216, Note_off_c, 6, 90, 127
1, 180280, Note_on_c, 9, 36, 125
1, 180280, Note_on_c, 9, 82, 110
1, 180372, Note_off_c, 9, 36, 17
1, 180372, Note_off_c, 9, 82, 17
1, 180472, Note_on_c, 9, 40, 110
1, 180472, Note_on_c, 9, 42, 110
1, 180472, Note_on_c, 9, 82, 110
1, 180564, Note_off_c, 9, 40, 17
1, 180564, Note_off_c, 9, 42, 17
1, 180564, Note_off_c, 9, 82, 17
1, 180664, Note_on_c, 9, 36, 125
1, 180664, Note_on_c, 9, 39, 90
1, 180664, Note_on_c, 9, 82, 110
1, 180756, Note_off_c, 9, 36, 17
1, 180756, Note_off_c, 9, 39, 17
1, 180756, Note_off_c, 9, 82, 17
1, 180856, Note_on_c, 9, 42, 110
1, 180948, Note_off_c, 9, 42, 17
1, 181048, Note_on_c, 9, 39, 110
1, 181048, Note_on_c, 9, 82, 110
1, 181240, Note_on_c, 3, 71, 78
1, 181240, Note_off_c, 9, 39, 64
1, 181240, Note_off_c, 9, 82, 64
1, 181240, Note_on_c, 9, 36, 125
1, 181240, Note_on_c, 9, 42, 110
1, 181332, Note_off_c, 9, 36, 64
1, 181332, Note_off_c, 9, 42, 64
1, 181432, Note_on_c, 9, 82, 110
1, 181496, Note_off_c, 3, 71, 39
1, 181524, Note_off_c, 9, 82, 17
1, 181624, Note_on_c, 6, 90, 127
1, 181624, Note_on_c, 9, 42, 110
1, 181624, Note_on_c, 9, 82, 110
1, 181716, Note_off_c, 9, 42, 17
1, 181716, Note_off_c, 9, 82, 17
1, 181816, Note_on_c, 3, 71, 78
1, 181816, Note_on_c, 9, 36, 125
1, 181816, Note_on_c, 9, 82, 110
1, 181880, Note_off_c, 6, 90, 127
1, 181908, Note_off_c, 9, 36, 17
1, 181908, Note_off_c, 9, 82, 17
1, 182008, Note_on_c, 9, 40, 110
1, 182008, Note_on_c, 9, 42, 110
1, 182008, Note_on_c, 9, 82, 110
1, 182072, Note_off_c, 3, 71, 78
1, 182100, Note_off_c, 9, 40, 17
1, 182100, Note_off_c, 9, 42, 17
1, 182100, Note_off_c, 9, 82, 17
1, 182200, Note_on_c, 9, 36, 125
1, 182200, Note_on_c, 9, 39, 90
1, 182200, Note_on_c, 9, 82, 110
1, 182292, Note_off_c, 9, 36, 17
1, 182292, Note_off_c, 9, 39, 17
1, 182292, Note_off_c, 9, 82, 17
1, 182392, Note_on_c, 9, 42, 110
1, 182484, Note_off_c, 9, 42, 17
1, 182584, Note_on_c, 9, 39, 110
1, 182584, Note_on_c, 9, 82, 110
1, 182776, Note_off_c, 9, 39, 64
1, 182776, Note_off_c, 9, 82, 64
1, 182776, Note_on_c, 9, 36, 125
1, 182776, Note_on_c, 9, 42, 110
1, 182868, Note_off_c, 9, 36, 64
1, 182868, Note_off_c, 9, 42, 64
1, 182968, Note_on_c, 6, 90, 127
1, 182968, Note_on_c, 9, 82, 110
1, 183060, Note_off_c, 9, 82, 17
1, 183096, Note_off_c, 6, 90, 127
1, 183160, Note_on_c, 6, 90, 127
1, 183160, Note_on_c, 9, 42, 110
1, 183160, Note_on_c, 9, 82, 110
1, 183252, Note_off_c, 9, 42, 17
1, 183252, Note_off_c, 9, 82, 17
1, 183288, Note_off_c, 6, 90, 127
1, 183352, Note_on_c, 9, 36, 125
1, 183352, Note_on_c, 9, 82, 110
1, 183444, Note_off_c, 9, 36, 17
1, 183444, Note_off_c, 9, 82, 17
1, 183544, Note_on_c, 9, 40, 110
1, 183544, Note_on_c, 9, 42, 110
1, 183544, Note_on_c, 9, 82, 110
1, 183636, Note_off_c, 9, 40, 17
1, 183636, Note_off_c, 9, 42, 17
1, 183636, Note_off_c, 9, 82, 17
1, 183736, Note_on_c, 9, 36, 125
1, 183736, Note_on_c, 9, 39, 90
1, 183736, Note_on_c, 9, 82, 110
1, 183828, Note_off_c, 9, 36, 17
1, 183828, Note_off_c, 9, 39, 17
1, 183828, Note_off_c, 9, 82, 17
1, 183928, Note_on_c, 9, 42, 110
1, 184020, Note_off_c, 9, 42, 17
1, 184120, Note_on_c, 9, 39, 110
1, 184120, Note_on_c, 9, 82, 110
1, 184312, Note_on_c, 3, 66, 78
1, 184312, Note_off_c, 9, 39, 64
1, 184312, Note_off_c, 9, 82, 64
1, 184312, Note_on_c, 9, 36, 125
1, 184312, Note_on_c, 9, 42, 110
1, 184404, Note_off_c, 9, 36, 64
1, 184404, Note_off_c, 9, 42, 64
1, 184504, Note_on_c, 9, 82, 110
1, 184568, Note_off_c, 3, 66, 39
1, 184596, Note_off_c, 9, 82, 17
1, 184696, Note_on_c, 6, 90, 127
1, 184696, Note_on_c, 9, 36, 125
1, 184696, Note_on_c, 9, 42, 110
1, 184696, Note_on_c, 9, 82, 110
1, 184788, Note_off_c, 9, 36, 17
1, 184788, Note_off_c, 9, 42, 17
1, 184788, Note_off_c, 9, 82, 17
1, 184888, Note_on_c, 3, 66, 78
1, 184888, Note_on_c, 9, 82, 110
1, 184952, Note_off_c, 6, 90, 127
1, 184980, Note_off_c, 9, 82, 17
1, 185080, Note_on_c, 9, 42, 110
1, 185080, Note_on_c, 9, 82, 110
1, 185144, Note_off_c, 3, 66, 78
1, 185172, Note_off_c, 9, 42, 17
1, 185172, Note_off_c, 9, 82, 17
1, 185272, Note_on_c, 9, 36, 125
1, 185272, Note_on_c, 9, 39, 110
1, 185364, Note_off_c, 9, 36, 17
1, 185364, Note_off_c, 9, 39, 17
1, 185464, Note_on_c, 9, 42, 110
1, 185556, Note_off_c, 9, 42, 17
1, 185656, Note_on_c, 9, 39, 110
1, 185748, Note_off_c, 9, 39, 17
1, 185848, Note_on_c, 9, 36, 125
1, 185848, Note_on_c, 9, 42, 110
1, 185940, Note_off_c, 9, 36, 64
1, 185940, Note_off_c, 9, 42, 64
1, 186040, Note_on_c, 6, 90, 127
1, 186040, Note_on_c, 9, 82, 110
1, 186132, Note_off_c, 9, 82, 17
1, 186168, Note_off_c, 6, 90, 127
1, 186232, Note_on_c, 6, 90, 127
1, 186232, Note_on_c, 9, 42, 110
1, 186232, Note_on_c, 9, 82, 110
1, 186324, Note_off_c, 9, 42, 17
1, 186324, Note_off_c, 9, 82, 17
1, 186360, Note_off_c, 6, 90, 127
1, 186424, Note_on_c, 9, 36, 125
1, 186424, Note_on_c, 9, 82, 110
1, 186516, Note_off_c, 9, 36, 17
1, 186516, Note_off_c, 9, 82, 17
1, 186616, Note_on_c, 9, 40, 110
1, 186616, Note_on_c, 9, 42, 110
1, 186616, Note_on_c, 9, 82, 110
1, 186708, Note_off_c, 9, 40, 17
1, 186708, Note_off_c, 9, 42, 17
1, 186708, Note_off_c, 9, 82, 17
1, 186808, Note_on_c, 9, 36, 125
1, 186808, Note_on_c, 9, 39, 110
1, 186808, Note_on_c, 9, 82, 110
1, 186900, Note_off_c, 9, 36, 17
1, 186900, Note_off_c, 9, 39, 17
1, 186900, Note_off_c, 9, 82, 17
1, 187000, Note_on_c, 9, 42, 110
1, 187092, Note_off_c, 9, 42, 17
1, 187192, Note_on_c, 9, 39, 110
1, 187284, Note_off_c, 9, 39, 17
1, 187384, Note_on_c, 3, 71, 78
1, 187384, Note_on_c, 9, 36, 125
1, 187384, Note_on_c, 9, 42, 110
1, 187476, Note_off_c, 9, 36, 64
1, 187476, Note_off_c, 9, 42, 64
1, 187576, Note_on_c, 9, 82, 110
1, 187640, Note_off_c, 3, 71, 39
1, 187668, Note_off_c, 9, 82, 17
1, 187768, Note_on_c, 6, 90, 127
1, 187768, Note_on_c, 9, 42, 110
1, 187768, Note_on_c, 9, 82, 110
1, 187860, Note_off_c, 9, 42, 17
1, 187860, Note_off_c, 9, 82, 17
1, 187960, Note_on_c, 3, 71, 78
1, 187960, Note_on_c, 9, 36, 125
1, 187960, Note_on_c, 9, 82, 110
1, 188024, Note_off_c, 6, 90, 127
1, 188052, Note_off_c, 9, 36, 17
1, 188052, Note_off_c, 9, 82, 17
1, 188152, Note_on_c, 9, 40, 110
1, 188152, Note_on_c, 9, 42, 110
1, 188152, Note_on_c, 9, 82, 110
1, 188216, Note_off_c, 3, 71, 78
1, 188244, Note_off_c, 9, 40, 17
1, 188244, Note_off_c, 9, 42, 17
1, 188244, Note_off_c, 9, 82, 17
1, 188344, Note_on_c, 9, 36, 125
1, 188344, Note_on_c, 9, 39, 90
1, 188436, Note_off_c, 9, 36, 17
1, 188436, Note_off_c, 9, 39, 17
1, 188536, Note_on_c, 9, 42, 110
1, 188536, Note_on_c, 9, 82, 110
1, 188628, Note_off_c, 9, 42, 17
1, 188628, Note_off_c, 9, 82, 17
1, 188728, Note_on_c, 9, 39, 110
1, 188820, Note_off_c, 9, 39, 17
1, 188920, Note_on_c, 9, 36, 125
1, 188920, Note_on_c, 9, 42, 110
1, 189012, Note_off_c, 9, 36, 64
1, 189012, Note_off_c, 9, 42, 64
1, 189112, Note_on_c, 6, 90, 127
1, 189112, Note_on_c, 9, 82, 110
1, 189204, Note_off_c, 9, 82, 17
1, 189240, Note_off_c, 6, 90, 127
1, 189304, Note_on_c, 6, 90, 127
1, 189304, Note_on_c, 9, 42, 110
1, 189304, Note_on_c, 9, 82, 110
1, 189396, Note_off_c, 9, 42, 17
1, 189396, Note_off_c, 9, 82, 17
1, 189432, Note_off_c, 6, 90, 127
1, 189496, Note_on_c, 9, 36, 125
1, 189496, Note_on_c, 9, 82, 110
1, 189588, Note_off_c, 9, 36, 17
1, 189588, Note_off_c, 9, 82, 17
1, 189688, Note_on_c, 9, 40, 110
1, 189688, Note_on_c, 9, 42, 110
1, 189688, Note_on_c, 9, 82, 110
1, 189780, Note_off_c, 9, 40, 17
1, 189780, Note_off_c, 9, 42, 17
1, 189780, Note_off_c, 9, 82, 17
1, 189880, Note_on_c, 9, 36, 125
1, 189880, Note_on_c, 9, 39, 90
1, 189880, Note_on_c, 9, 82, 110
1, 189972, Note_off_c, 9, 36, 17
1, 189972, Note_off_c, 9, 39, 17
1, 189972, Note_off_c, 9, 82, 17
1, 190072, Note_on_c, 9, 42, 110
1, 190164, Note_off_c, 9, 42, 17
1, 190264, Note_on_c, 9, 39, 110
1, 190264, Note_on_c, 9, 82, 110
1, 190356, Note_off_c, 9, 39, 17
1, 190356, Note_off_c, 9, 82, 17
1, 190456, Note_on_c, 3, 66, 78
1, 190456, Note_on_c, 9, 36, 125
1, 190456, Note_on_c, 9, 42, 110
1, 190548, Note_off_c, 9, 36, 64
1, 190548, Note_off_c, 9, 42, 64
1, 190648, Note_on_c, 9, 82, 110
1, 190712, Note_off_c, 3, 66, 39
1, 190740, Note_off_c, 9, 82, 17
1, 190840, Note_on_c, 6, 90, 127
1, 190840, Note_on_c, 9, 42, 110
1, 190840, Note_on_c, 9, 82, 110
1, 190932, Note_off_c, 9, 42, 17
1, 190932, Note_off_c, 9, 82, 17
1, 191032, Note_on_c, 3, 66, 78
1, 191032, Note_on_c, 9, 82, 110
1, 191096, Note_off_c, 6, 90, 127
1, 191124, Note_off_c, 9, 82, 17
1, 191224, Note_on_c, 9, 40, 110
1, 191224, Note_on_c, 9, 42, 110
1, 191224, Note_on_c, 9, 82, 110
1, 191288, Note_off_c, 3, 66, 78
1, 191316, Note_off_c, 9, 40, 17
1, 191316, Note_off_c, 9, 42, 17
1, 191316, Note_off_c, 9, 82, 17
1, 191416, Note_on_c, 9, 36, 125
1, 191416, Note_on_c, 9, 39, 110
1, 191508, Note_off_c, 9, 36, 17
1, 191508, Note_off_c, 9, 39, 17
1, 191608, Note_on_c, 9, 42, 110
1, 191700, Note_off_c, 9, 42, 17
1, 191800, Note_on_c, 9, 39, 110
1, 191892, Note_off_c, 9, 39, 17
1, 191992, Note_on_c, 9, 36, 125
1, 191992, Note_on_c, 9, 42, 110
1, 191992, Note_on_c, 9, 36, 125
1, 192084, Note_off_c, 9, 36, 64
1, 192084, Note_off_c, 9, 42, 64
1, 192084, Note_off_c, 9, 36, 64
1, 192184, Note_on_c, 6, 90, 127
1, 192184, Note_on_c, 9, 82, 110
1, 192184, Note_on_c, 9, 36, 125
1, 192184, Note_on_c, 9, 36, 125
1, 192276, Note_off_c, 9, 82, 17
1, 192276, Note_off_c, 9, 36, 17
1, 192276, Note_off_c, 9, 36, 17
1, 192312, Note_off_c, 6, 90, 127
1, 192376, Note_on_c, 6, 90, 127
1, 192376, Note_on_c, 9, 42, 110
1, 192376, Note_on_c, 9, 82, 110
1, 192376, Note_on_c, 9, 36, 125
1, 192376, Note_on_c, 9, 36, 125
1, 192468, Note_off_c, 9, 42, 17
1, 192468, Note_off_c, 9, 82, 17
1, 192468, Note_off_c, 9, 36, 17
1, 192468, Note_off_c, 9, 36, 17
1, 192504, Note_off_c, 6, 90, 127
1, 192568, Note_on_c, 9, 36, 125
1, 192568, Note_on_c, 9, 82, 110
1, 192568, Note_on_c, 9, 36, 125
1, 192660, Note_off_c, 9, 36, 17
1, 192660, Note_off_c, 9, 82, 17
1, 192660, Note_off_c, 9, 36, 17
1, 192760, Note_on_c, 9, 40, 110
1, 192760, Note_on_c, 9, 42, 110
1, 192760, Note_on_c, 9, 82, 110
1, 192852, Note_off_c, 9, 40, 17
1, 192852, Note_off_c, 9, 42, 17
1, 192852, Note_off_c, 9, 82, 17
1, 192952, Note_on_c, 9, 36, 125
1, 192952, Note_on_c, 9, 39, 110
1, 192952, Note_on_c, 9, 82, 110
1, 193044, Note_off_c, 9, 36, 17
1, 193044, Note_off_c, 9, 39, 17
1, 193044, Note_off_c, 9, 82, 17
1, 193144, Note_on_c, 9, 42, 110
1, 193236, Note_off_c, 9, 42, 17
1, 193336, Note_on_c, 9, 39, 110
1, 193428, Note_off_c, 9, 39, 17
1, 193528, Note_on_c, 3, 71, 78
1, 193528, Note_on_c, 9, 36, 125
1, 193528, Note_on_c, 9, 42, 110
1, 193620, Note_off_c, 9, 36, 64
1, 193620, Note_off_c, 9, 42, 64
1, 193720, Note_on_c, 9, 82, 110
1, 193784, Note_off_c, 3, 71, 39
1, 193812, Note_off_c, 9, 82, 17
1, 193912, Note_on_c, 6, 90, 127
1, 193912, Note_on_c, 9, 42, 110
1, 193912, Note_on_c, 9, 82, 110
1, 194004, Note_off_c, 9, 42, 17
1, 194004, Note_off_c, 9, 82, 17
1, 194104, Note_on_c, 3, 71, 78
1, 194104, Note_on_c, 9, 36, 125
1, 194104, Note_on_c, 9, 82, 110
1, 194168, Note_off_c, 6, 90, 127
1, 194196, Note_off_c, 9, 36, 17
1, 194196, Note_off_c, 9, 82, 17
1, 194296, Note_on_c, 9, 40, 110
1, 194296, Note_on_c, 9, 42, 110
1, 194296, Note_on_c, 9, 82, 110
1, 194360, Note_off_c, 3, 71, 78
1, 194388, Note_off_c, 9, 40, 17
1, 194388, Note_off_c, 9, 42, 17
1, 194388, Note_off_c, 9, 82, 17
1, 194488, Note_on_c, 9, 36, 125
1, 194488, Note_on_c, 9, 39, 90
1, 194580, Note_off_c, 9, 36, 17
1, 194580, Note_off_c, 9, 39, 17
1, 194680, Note_on_c, 9, 42, 110
1, 194680, Note_on_c, 9, 82, 110
1, 194772, Note_off_c, 9, 42, 17
1, 194772, Note_off_c, 9, 82, 17
1, 194872, Note_on_c, 9, 39, 110
1, 194964, Note_off_c, 9, 39, 17
1, 195064, Note_on_c, 9, 42, 110
1, 195064, Note_on_c, 9, 36, 125
1, 195156, Note_off_c, 9, 42, 64
1, 195156, Note_off_c, 9, 36, 64
1, 195256, Note_on_c, 6, 90, 127
1, 195256, Note_on_c, 9, 82, 110
1, 195256, Note_on_c, 9, 39, 110
1, 195348, Note_off_c, 9, 82, 17
1, 195348, Note_off_c, 9, 39, 17
1, 195384, Note_off_c, 6, 90, 127
1, 195448, Note_on_c, 6, 90, 127
1, 195448, Note_on_c, 9, 82, 110
1, 195448, Note_on_c, 9, 42, 110
1, 195448, Note_on_c, 9, 39, 110
1, 195540, Note_off_c, 9, 82, 17
1, 195540, Note_off_c, 9, 42, 17
1, 195540, Note_off_c, 9, 39, 17
1, 195576, Note_off_c, 6, 90, 127
1, 195640, Note_on_c, 9, 82, 110
1, 195640, Note_on_c, 9, 39, 110
1, 195732, Note_off_c, 9, 82, 17
1, 195732, Note_off_c, 9, 39, 17
1, 195832, Note_on_c, 9, 82, 110
1, 195832, Note_on_c, 9, 42, 110
1, 195832, Note_on_c, 9, 36, 125
1, 195924, Note_off_c, 9, 82, 17
1, 195924, Note_off_c, 9, 42, 17
1, 195924, Note_off_c, 9, 36, 17
1, 196024, Note_on_c, 9, 82, 110
1, 196024, Note_on_c, 9, 39, 110
1, 196116, Note_off_c, 9, 82, 17
1, 196116, Note_off_c, 9, 39, 17
1, 196216, Note_on_c, 9, 42, 110
1, 196216, Note_on_c, 9, 39, 110
1, 196308, Note_off_c, 9, 42, 17
1, 196308, Note_off_c, 9, 39, 17
1, 196408, Note_on_c, 9, 82, 110
1, 196408, Note_on_c, 9, 39, 110
1, 196500, Note_off_c, 9, 39, 17
1, 196600, Note_on_c, 3, 66, 78
1, 196600, Note_on_c, 4, 31, 95
1, 196600, Note_off_c, 9, 82, 64
1, 196600, Note_on_c, 9, 36, 125
1, 196600, Note_on_c, 9, 42, 110
1, 196692, Note_off_c, 9, 36, 64
1, 196692, Note_off_c, 9, 42, 64
1, 196792, Note_on_c, 9, 82, 110
1, 196856, Note_off_c, 3, 66, 39
1, 196884, Note_off_c, 9, 82, 17
1, 196984, Note_on_c, 6, 90, 127
1, 196984, Note_on_c, 9, 82, 110
1, 196984, Note_on_c, 9, 42, 110
1, 197076, Note_off_c, 9, 82, 17
1, 197076, Note_off_c, 9, 42, 17
1, 197176, Note_on_c, 3, 66, 78
1, 197176, Note_on_c, 9, 82, 110
1, 197176, Note_on_c, 9, 36, 125
1, 197240, Note_off_c, 6, 90, 127
1, 197268, Note_off_c, 9, 82, 17
1, 197268, Note_off_c, 9, 36, 17
1, 197344, Note_off_c, 4, 31, 48
1, 197368, Note_on_c, 4, 59, 95
1, 197368, Note_on_c, 9, 82, 110
1, 197368, Note_on_c, 9, 40, 110
1, 197368, Note_on_c, 9, 42, 110
1, 197432, Note_off_c, 3, 66, 78
1, 197460, Note_off_c, 9, 82, 17
1, 197460, Note_off_c, 9, 40, 17
1, 197460, Note_off_c, 9, 42, 17
1, 197560, Note_on_c, 9, 82, 110
1, 197560, Note_on_c, 9, 36, 125
1, 197560, Note_on_c, 9, 39, 110
1, 197652, Note_off_c, 9, 82, 17
1, 197652, Note_off_c, 9, 36, 17
1, 197652, Note_off_c, 9, 39, 17
1, 197752, Note_on_c, 4, 60, 95
1, 197752, Note_on_c, 9, 42, 110
1, 197844, Note_off_c, 9, 42, 17
1, 197932, Note_off_c, 4, 59, 95
1, 197944, Note_on_c, 9, 82, 110
1, 197944, Note_on_c, 9, 39, 110
1, 198036, Note_off_c, 9, 82, 17
1, 198036, Note_off_c, 9, 39, 17
1, 198136, Note_off_c, 4, 60, 95
1, 198136, Note_on_c, 4, 62, 95
1, 198136, Note_on_c, 5, 62, 118
1, 198136, Note_on_c, 9, 36, 125
1, 198136, Note_on_c, 9, 42, 110
1, 198228, Note_off_c, 9, 36, 64
1, 198228, Note_off_c, 9, 42, 64
1, 198328, Note_on_c, 6, 90, 127
1, 198328, Note_on_c, 9, 82, 110
1, 198420, Note_off_c, 9, 82, 17
1, 198456, Note_off_c, 6, 90, 127
1, 198520, Note_on_c, 4, 60, 95
1, 198520, Note_on_c, 5, 60, 124
1, 198520, Note_on_c, 6, 90, 127
1, 198520, Note_on_c, 9, 82, 110
1, 198520, Note_on_c, 9, 42, 110
1, 198612, Note_off_c, 9, 82, 17
1, 198612, Note_off_c, 9, 42, 17
1, 198648, Note_off_c, 6, 90, 127
1, 198700, Note_off_c, 4, 62, 48
1, 198700, Note_off_c, 5, 62, 64
1, 198712, Note_on_c, 9, 82, 110
1, 198712, Note_on_c, 9, 36, 125
1, 198804, Note_off_c, 9, 82, 17
1, 198804, Note_off_c, 9, 36, 17
1, 198904, Note_on_c, 4, 63, 95
1, 198904, Note_on_c, 5, 63, 127
1, 198904, Note_on_c, 9, 82, 110
1, 198904, Note_on_c, 9, 40, 110
1, 198904, Note_on_c, 9, 42, 110
1, 198996, Note_off_c, 9, 82, 17
1, 198996, Note_off_c, 9, 40, 17
1, 198996, Note_off_c, 9, 42, 17
1, 199084, Note_off_c, 4, 60, 95
1, 199084, Note_off_c, 5, 60, 109
1, 199096, Note_on_c, 9, 82, 110
1, 199096, Note_on_c, 9, 36, 125
1, 199096, Note_on_c, 9, 39, 110
1, 199188, Note_off_c, 9, 82, 17
1, 199188, Note_off_c, 9, 36, 17
1, 199188, Note_off_c, 9, 39, 17
1, 199288, Note_on_c, 9, 42, 110
1, 199380, Note_off_c, 9, 42, 17
1, 199480, Note_on_c, 9, 82, 110
1, 199480, Note_on_c, 9, 39, 110
1, 199544, Note_off_c, 4, 63, 95
1, 199544, Note_off_c, 5, 63, 127
1, 199572, Note_off_c, 9, 82, 17
1, 199572, Note_off_c, 9, 39, 17
1, 199672, Note_on_c, 4, 36, 95
1, 199672, Note_on_c, 9, 36, 125
1, 199672, Note_on_c, 9, 42, 110
1, 199764, Note_off_c, 9, 42, 64
1, 199864, Note_on_c, 9, 82, 110
1, 199956, Note_off_c, 9, 82, 17
1, 200056, Note_on_c, 6, 90, 127
1, 200056, Note_on_c, 9, 82, 110
1, 200056, Note_on_c, 9, 42, 110
1, 200148, Note_off_c, 9, 82, 17
1, 200148, Note_off_c, 9, 42, 17
1, 200248, Note_on_c, 9, 82, 110
1, 200248, Note_on_c, 9, 36, 125
1, 200312, Note_off_c, 6, 90, 127
1, 200340, Note_off_c, 9, 82, 17
1, 200340, Note_off_c, 9, 36, 17
1, 200416, Note_off_c, 4, 36, 48
1, 200416, Note_off_c, 9, 36, 64
1, 200440, Note_on_c, 9, 82, 110
1, 200440, Note_on_c, 9, 40, 110
1, 200440, Note_on_c, 9, 42, 110
1, 200532, Note_off_c, 9, 82, 17
1, 200532, Note_off_c, 9, 40, 17
1, 200532, Note_off_c, 9, 42, 17
1, 200632, Note_on_c, 9, 82, 110
1, 200632, Note_on_c, 9, 36, 125
1, 200632, Note_on_c, 9, 39, 90
1, 200724, Note_off_c, 9, 82, 17
1, 200724, Note_off_c, 9, 36, 17
1, 200724, Note_off_c, 9, 39, 17
1, 200824, Note_on_c, 9, 42, 110
1, 200916, Note_off_c, 9, 42, 17
1, 201016, Note_on_c, 9, 82, 110
1, 201016, Note_on_c, 9, 39, 110
1, 201108, Note_off_c, 9, 82, 17
1, 201108, Note_off_c, 9, 39, 17
1, 201208, Note_on_c, 9, 36, 125
1, 201208, Note_on_c, 9, 42, 110
1, 201300, Note_off_c, 9, 36, 64
1, 201300, Note_off_c, 9, 42, 64
1, 201400, Note_on_c, 6, 90, 127
1, 201400, Note_on_c, 9, 82, 110
1, 201492, Note_off_c, 9, 82, 17
1, 201528, Note_off_c, 6, 90, 127
1, 201592, Note_on_c, 6, 90, 127
1, 201592, Note_on_c, 9, 82, 110
1, 201592, Note_on_c, 9, 42, 110
1, 201684, Note_off_c, 9, 82, 17
1, 201684, Note_off_c, 9, 42, 17
1, 201720, Note_off_c, 6, 90, 127
1, 201784, Note_on_c, 9, 82, 110
1, 201784, Note_on_c, 9, 36, 125
1, 201876, Note_off_c, 9, 82, 17
1, 201876, Note_off_c, 9, 36, 17
1, 201976, Note_on_c, 9, 82, 110
1, 201976, Note_on_c, 9, 40, 110
1, 201976, Note_on_c, 9, 42, 110
1, 202068, Note_off_c, 9, 82, 17
1, 202068, Note_off_c, 9, 40, 17
1, 202068, Note_off_c, 9, 42, 17
1, 202168, Note_on_c, 9, 82, 110
1, 202168, Note_on_c, 9, 36, 125
1, 202168, Note_on_c, 9, 39, 90
1, 202260, Note_off_c, 9, 82, 17
1, 202260, Note_off_c, 9, 36, 17
1, 202260, Note_off_c, 9, 39, 17
1, 202360, Note_on_c, 9, 42, 110
1, 202452, Note_off_c, 9, 42, 17
1, 202552, Note_on_c, 9, 82, 110
1, 202552, Note_on_c, 9, 39, 110
1, 202644, Note_off_c, 9, 82, 17
1, 202644, Note_off_c, 9, 39, 17
1, 202744, Note_on_c, 3, 66, 78
1, 202744, Note_on_c, 4, 31, 95
1, 202744, Note_on_c, 9, 36, 125
1, 202744, Note_on_c, 9, 42, 110
1, 202836, Note_off_c, 9, 36, 64
1, 202836, Note_off_c, 9, 42, 64
1, 202936, Note_on_c, 9, 82, 110
1, 203000, Note_off_c, 3, 66, 39
1, 203028, Note_off_c, 9, 82, 17
1, 203128, Note_on_c, 6, 90, 127
1, 203128, Note_on_c, 9, 42, 110
1, 203128, Note_on_c, 9, 82, 110
1, 203220, Note_off_c, 9, 42, 17
1, 203220, Note_off_c, 9, 82, 17
1, 203320, Note_on_c, 3, 66, 78
1, 203320, Note_on_c, 9, 82, 110
1, 203384, Note_off_c, 6, 90, 127
1, 203412, Note_off_c, 9, 82, 17
1, 203488, Note_off_c, 4, 31, 48
1, 203512, Note_on_c, 4, 59, 95
1, 203512, Note_on_c, 9, 40, 110
1, 203512, Note_on_c, 9, 42, 110
1, 203512, Note_on_c, 9, 82, 110
1, 203576, Note_off_c, 3, 66, 78
1, 203604, Note_off_c, 9, 40, 17
1, 203604, Note_off_c, 9, 42, 17
1, 203604, Note_off_c, 9, 82, 17
1, 203704, Note_on_c, 9, 36, 125
1, 203704, Note_on_c, 9, 39, 110
1, 203704, Note_on_c, 9, 82, 110
1, 203796, Note_off_c, 9, 36, 17
1, 203796, Note_off_c, 9, 39, 17
1, 203796, Note_off_c, 9, 82, 17
1, 203896, Note_on_c, 4, 60, 95
1, 203896, Note_on_c, 9, 42, 110
1, 203988, Note_off_c, 9, 42, 17
1, 204076, Note_off_c, 4, 59, 95
1, 204088, Note_on_c, 9, 39, 110
1, 204088, Note_on_c, 9, 82, 110
1, 204180, Note_off_c, 9, 39, 17
1, 204180, Note_off_c, 9, 82, 17
1, 204280, Note_off_c, 4, 60, 95
1, 204280, Note_on_c, 4, 62, 95
1, 204280, Note_on_c, 5, 62, 118
1, 204280, Note_on_c, 9, 36, 125
1, 204280, Note_on_c, 9, 42, 110
1, 204372, Note_off_c, 9, 36, 64
1, 204372, Note_off_c, 9, 42, 64
1, 204472, Note_on_c, 6, 90, 127
1, 204472, Note_on_c, 9, 82, 110
1, 204564, Note_off_c, 9, 82, 17
1, 204600, Note_off_c, 6, 90, 127
1, 204664, Note_on_c, 4, 60, 95
1, 204664, Note_on_c, 5, 60, 124
1, 204664, Note_on_c, 6, 90, 127
1, 204664, Note_on_c, 9, 42, 110
1, 204664, Note_on_c, 9, 82, 110
1, 204756, Note_off_c, 9, 42, 17
1, 204756, Note_off_c, 9, 82, 17
1, 204792, Note_off_c, 6, 90, 127
1, 204844, Note_off_c, 4, 62, 48
1, 204844, Note_off_c, 5, 62, 64
1, 204856, Note_on_c, 9, 36, 125
1, 204856, Note_on_c, 9, 82, 110
1, 204948, Note_off_c, 9, 36, 17
1, 204948, Note_off_c, 9, 82, 17
1, 205048, Note_on_c, 4, 63, 95
1, 205048, Note_on_c, 5, 63, 127
1, 205048, Note_on_c, 9, 40, 110
1, 205048, Note_on_c, 9, 42, 110
1, 205048, Note_on_c, 9, 82, 110
1, 205140, Note_off_c, 9, 40, 17
1, 205140, Note_off_c, 9, 42, 17
1, 205140, Note_off_c, 9, 82, 17
1, 205228, Note_off_c, 4, 60, 95
1, 205228, Note_off_c, 5, 60, 109
1, 205240, Note_on_c, 9, 36, 125
1, 205240, Note_on_c, 9, 39, 110
1, 205240, Note_on_c, 9, 82, 110
1, 205332, Note_off_c, 9, 36, 17
1, 205332, Note_off_c, 9, 39, 17
1, 205332, Note_off_c, 9, 82, 17
1, 205432, Note_on_c, 9, 42, 110
1, 205524, Note_off_c, 9, 42, 17
1, 205624, Note_on_c, 9, 39, 110
1, 205624, Note_on_c, 9, 82, 110
1, 205688, Note_off_c, 4, 63, 95
1, 205688, Note_off_c, 5, 63, 127
1, 205716, Note_off_c, 9, 39, 17
1, 205716, Note_off_c, 9, 82, 17
1, 205816, Note_on_c, 4, 36, 95
1, 205816, Note_on_c, 9, 36, 125
1, 205816, Note_on_c, 9, 42, 110
1, 205908, Note_off_c, 9, 42, 64
1, 206008, Note_on_c, 9, 82, 110
1, 206100, Note_off_c, 9, 82, 17
1, 206200, Note_on_c, 6, 90, 127
1, 206200, Note_on_c, 9, 42, 110
1, 206200, Note_on_c, 9, 82, 110
1, 206292, Note_off_c, 9, 42, 17
1, 206292, Note_off_c, 9, 82, 17
1, 206392, Note_on_c, 9, 36, 125
1, 206392, Note_on_c, 9, 82, 110
1, 206456, Note_off_c, 6, 90, 127
1, 206484, Note_off_c, 9, 36, 17
1, 206484, Note_off_c, 9, 82, 17
1, 206560, Note_off_c, 4, 36, 48
1, 206560, Note_off_c, 9, 36, 64
1, 206584, Note_on_c, 9, 40, 110
1, 206584, Note_on_c, 9, 42, 110
1, 206584, Note_on_c, 9, 82, 110
1, 206676, Note_off_c, 9, 40, 17
1, 206676, Note_off_c, 9, 42, 17
1, 206676, Note_off_c, 9, 82, 17
1, 206776, Note_on_c, 9, 36, 125
1, 206776, Note_on_c, 9, 39, 90
1, 206776, Note_on_c, 9, 82, 110
1, 206868, Note_off_c, 9, 36, 17
1, 206868, Note_off_c, 9, 39, 17
1, 206868, Note_off_c, 9, 82, 17
1, 206968, Note_on_c, 9, 42, 110
1, 207060, Note_off_c, 9, 42, 17
1, 207160, Note_on_c, 9, 39, 110
1, 207160, Note_on_c, 9, 82, 110
1, 207252, Note_off_c, 9, 39, 17
1, 207252, Note_off_c, 9, 82, 17
1, 207352, Note_on_c, 9, 36, 125
1, 207352, Note_on_c, 9, 42, 110
1, 207444, Note_off_c, 9, 36, 64
1, 207444, Note_off_c, 9, 42, 64
1, 207544, Note_on_c, 6, 90, 127
1, 207544, Note_on_c, 9, 82, 110
1, 207636, Note_off_c, 9, 82, 17
1, 207672, Note_off_c, 6, 90, 127
1, 207736, Note_on_c, 6, 90, 127
1, 207736, Note_on_c, 9, 42, 110
1, 207736, Note_on_c, 9, 82, 110
1, 207828, Note_off_c, 9, 42, 17
1, 207828, Note_off_c, 9, 82, 17
1, 207864, Note_off_c, 6, 90, 127
1, 207928, Note_on_c, 9, 36, 125
1, 207928, Note_on_c, 9, 82, 110
1, 208020, Note_off_c, 9, 36, 17
1, 208020, Note_off_c, 9, 82, 17
1, 208120, Note_on_c, 9, 40, 110
1, 208120, Note_on_c, 9, 42, 110
1, 208120, Note_on_c, 9, 82, 110
1, 208212, Note_off_c, 9, 40, 17
1, 208212, Note_off_c, 9, 42, 17
1, 208212, Note_off_c, 9, 82, 17
1, 208312, Note_on_c, 9, 36, 125
1, 208312, Note_on_c, 9, 39, 90
1, 208312, Note_on_c, 9, 82, 110
1, 208404, Note_off_c, 9, 36, 17
1, 208404, Note_off_c, 9, 39, 17
1, 208404, Note_off_c, 9, 82, 17
1, 208504, Note_on_c, 9, 42, 110
1, 208596, Note_off_c, 9, 42, 17
1, 208696, Note_on_c, 9, 39, 110
1, 208696, Note_on_c, 9, 82, 110
1, 208788, Note_off_c, 9, 82, 17
1, 208888, Note_on_c, 3, 66, 78
1, 208888, Note_on_c, 4, 31, 95
1, 208888, Note_off_c, 9, 39, 64
1, 208888, Note_on_c, 9, 36, 125
1, 208888, Note_on_c, 9, 42, 110
1, 208980, Note_off_c, 9, 36, 64
1, 208980, Note_off_c, 9, 42, 64
1, 209080, Note_on_c, 9, 82, 110
1, 209144, Note_off_c, 3, 66, 39
1, 209172, Note_off_c, 9, 82, 17
1, 209272, Note_on_c, 6, 90, 127
1, 209272, Note_on_c, 9, 36, 125
1, 209272, Note_on_c, 9, 42, 110
1, 209272, Note_on_c, 9, 82, 110
1, 209364, Note_off_c, 9, 36, 17
1, 209364, Note_off_c, 9, 42, 17
1, 209364, Note_off_c, 9, 82, 17
1, 209464, Note_on_c, 3, 66, 78
1, 209464, Note_on_c, 9, 82, 110
1, 209528, Note_off_c, 6, 90, 127
1, 209556, Note_off_c, 9, 82, 17
1, 209632, Note_off_c, 4, 31, 48
1, 209656, Note_on_c, 4, 59, 95
1, 209656, Note_on_c, 9, 42, 110
1, 209656, Note_on_c, 9, 82, 110
1, 209720, Note_off_c, 3, 66, 78
1, 209748, Note_off_c, 9, 42, 17
1, 209748, Note_off_c, 9, 82, 17
1, 209848, Note_on_c, 9, 36, 125
1, 209848, Note_on_c, 9, 39, 110
1, 209848, Note_on_c, 9, 82, 110
1, 209940, Note_off_c, 9, 36, 17
1, 209940, Note_off_c, 9, 39, 17
1, 209940, Note_off_c, 9, 82, 17
1, 210040, Note_on_c, 4, 60, 95
1, 210040, Note_on_c, 9, 42, 110
1, 210132, Note_off_c, 9, 42, 17
1, 210220, Note_off_c, 4, 59, 95
1, 210232, Note_on_c, 9, 39, 110
1, 210232, Note_on_c, 9, 82, 110
1, 210324, Note_off_c, 9, 39, 17
1, 210324, Note_off_c, 9, 82, 17
1, 210424, Note_off_c, 4, 60, 95
1, 210424, Note_on_c, 4, 62, 95
1, 210424, Note_on_c, 5, 62, 118
1, 210424, Note_on_c, 9, 36, 125
1, 210424, Note_on_c, 9, 42, 110
1, 210516, Note_off_c, 9, 36, 64
1, 210516, Note_off_c, 9, 42, 64
1, 210616, Note_on_c, 6, 90, 127
1, 210616, Note_on_c, 9, 82, 110
1, 210708, Note_off_c, 9, 82, 17
1, 210744, Note_off_c, 6, 90, 127
1, 210808, Note_on_c, 4, 60, 95
1, 210808, Note_on_c, 5, 60, 124
1, 210808, Note_on_c, 6, 90, 127
1, 210808, Note_on_c, 9, 42, 110
1, 210808, Note_on_c, 9, 82, 110
1, 210900, Note_off_c, 9, 42, 17
1, 210900, Note_off_c, 9, 82, 17
1, 210936, Note_off_c, 6, 90, 127
1, 210988, Note_off_c, 4, 62, 48
1, 210988, Note_off_c, 5, 62, 64
1, 211000, Note_on_c, 9, 36, 125
1, 211000, Note_on_c, 9, 82, 110
1, 211092, Note_off_c, 9, 36, 17
1, 211092, Note_off_c, 9, 82, 17
1, 211192, Note_on_c, 4, 63, 95
1, 211192, Note_on_c, 5, 63, 127
1, 211192, Note_on_c, 9, 40, 110
1, 211192, Note_on_c, 9, 42, 110
1, 211192, Note_on_c, 9, 82, 110
1, 211284, Note_off_c, 9, 40, 17
1, 211284, Note_off_c, 9, 42, 17
1, 211284, Note_off_c, 9, 82, 17
1, 211372, Note_off_c, 4, 60, 95
1, 211372, Note_off_c, 5, 60, 109
1, 211384, Note_on_c, 9, 36, 125
1, 211384, Note_on_c, 9, 39, 110
1, 211384, Note_on_c, 9, 82, 110
1, 211476, Note_off_c, 9, 36, 17
1, 211476, Note_off_c, 9, 39, 17
1, 211476, Note_off_c, 9, 82, 17
1, 211576, Note_on_c, 9, 42, 110
1, 211668, Note_off_c, 9, 42, 17
1, 211768, Note_on_c, 9, 39, 110
1, 211768, Note_on_c, 9, 82, 110
1, 211832, Note_off_c, 4, 63, 95
1, 211832, Note_off_c, 5, 63, 127
1, 211860, Note_off_c, 9, 39, 17
1, 211860, Note_off_c, 9, 82, 17
1, 211960, Note_on_c, 4, 36, 95
1, 211960, Note_on_c, 9, 36, 125
1, 211960, Note_on_c, 9, 42, 110
1, 212052, Note_off_c, 9, 42, 64
1, 212152, Note_on_c, 9, 82, 110
1, 212244, Note_off_c, 9, 82, 17
1, 212344, Note_on_c, 6, 90, 127
1, 212344, Note_on_c, 9, 42, 110
1, 212344, Note_on_c, 9, 82, 110
1, 212436, Note_off_c, 9, 42, 17
1, 212436, Note_off_c, 9, 82, 17
1, 212536, Note_on_c, 9, 36, 125
1, 212536, Note_on_c, 9, 82, 110
1, 212600, Note_off_c, 6, 90, 127
1, 212628, Note_off_c, 9, 36, 17
1, 212628, Note_off_c, 9, 82, 17
1, 212704, Note_off_c, 4, 36, 48
1, 212704, Note_off_c, 9, 36, 64
1, 212728, Note_on_c, 9, 40, 110
1, 212728, Note_on_c, 9, 42, 110
1, 212728, Note_on_c, 9, 82, 110
1, 212820, Note_off_c, 9, 40, 17
1, 212820, Note_off_c, 9, 42, 17
1, 212820, Note_off_c, 9, 82, 17
1, 212920, Note_on_c, 9, 36, 125
1, 212920, Note_on_c, 9, 39, 90
1, 212920, Note_on_c, 9, 82, 110
1, 213012, Note_off_c, 9, 36, 17
1, 213012, Note_off_c, 9, 39, 17
1, 213012, Note_off_c, 9, 82, 17
1, 213112, Note_on_c, 9, 42, 110
1, 213204, Note_off_c, 9, 42, 17
1, 213304, Note_on_c, 9, 39, 110
1, 213304, Note_on_c, 9, 82, 110
1, 213396, Note_off_c, 9, 39, 17
1, 213396, Note_off_c, 9, 82, 17
1, 213496, Note_on_c, 9, 36, 125
1, 213496, Note_on_c, 9, 42, 110
1, 213588, Note_off_c, 9, 36, 64
1, 213588, Note_off_c, 9, 42, 64
1, 213688, Note_on_c, 6, 90, 127
1, 213688, Note_on_c, 9, 82, 110
1, 213780, Note_off_c, 9, 82, 17
1, 213816, Note_off_c, 6, 90, 127
1, 213880, Note_on_c, 6, 90, 127
1, 213880, Note_on_c, 9, 42, 110
1, 213880, Note_on_c, 9, 82, 110
1, 213972, Note_off_c, 9, 42, 17
1, 213972, Note_off_c, 9, 82, 17
1, 214008, Note_off_c, 6, 90, 127
1, 214072, Note_on_c, 9, 36, 125
1, 214072, Note_on_c, 9, 82, 110
1, 214164, Note_off_c, 9, 36, 17
1, 214164, Note_off_c, 9, 82, 17
1, 214264, Note_on_c, 9, 40, 110
1, 214264, Note_on_c, 9, 42, 110
1, 214264, Note_on_c, 9, 82, 110
1, 214356, Note_off_c, 9, 40, 17
1, 214356, Note_off_c, 9, 42, 17
1, 214356, Note_off_c, 9, 82, 17
1, 214456, Note_on_c, 9, 36, 125
1, 214456, Note_on_c, 9, 39, 90
1, 214456, Note_on_c, 9, 82, 110
1, 214548, Note_off_c, 9, 36, 17
1, 214548, Note_off_c, 9, 39, 17
1, 214548, Note_off_c, 9, 82, 17
1, 214648, Note_on_c, 9, 42, 110
1, 214740, Note_off_c, 9, 42, 17
1, 214840, Note_on_c, 9, 39, 110
1, 214840, Note_on_c, 9, 82, 110
1, 214932, Note_off_c, 9, 39, 17
1, 214932, Note_off_c, 9, 82, 17
1, 215032, Note_on_c, 3, 66, 78
1, 215032, Note_on_c, 4, 31, 95
1, 215032, Note_on_c, 9, 36, 125
1, 215032, Note_on_c, 9, 42, 110
1, 215124, Note_off_c, 9, 36, 64
1, 215124, Note_off_c, 9, 42, 64
1, 215224, Note_on_c, 9, 82, 110
1, 215288, Note_off_c, 3, 66, 39
1, 215316, Note_off_c, 9, 82, 17
1, 215416, Note_on_c, 6, 90, 127
1, 215416, Note_on_c, 9, 42, 110
1, 215416, Note_on_c, 9, 82, 110
1, 215508, Note_off_c, 9, 42, 17
1, 215508, Note_off_c, 9, 82, 17
1, 215608, Note_on_c, 3, 66, 78
1, 215608, Note_on_c, 9, 82, 110
1, 215672, Note_off_c, 6, 90, 127
1, 215700, Note_off_c, 9, 82, 17
1, 215776, Note_off_c, 4, 31, 48
1, 215800, Note_on_c, 4, 59, 95
1, 215800, Note_on_c, 9, 40, 110
1, 215800, Note_on_c, 9, 42, 110
1, 215800, Note_on_c, 9, 82, 110
1, 215864, Note_off_c, 3, 66, 78
1, 215892, Note_off_c, 9, 40, 17
1, 215892, Note_off_c, 9, 42, 17
1, 215892, Note_off_c, 9, 82, 17
1, 215992, Note_on_c, 9, 36, 125
1, 215992, Note_on_c, 9, 39, 110
1, 215992, Note_on_c, 9, 82, 110
1, 216084, Note_off_c, 9, 36, 17
1, 216084, Note_off_c, 9, 39, 17
1, 216084, Note_off_c, 9, 82, 17
1, 216184, Note_on_c, 4, 60, 95
1, 216184, Note_on_c, 9, 42, 110
1, 216276, Note_off_c, 9, 42, 17
1, 216364, Note_off_c, 4, 59, 95
1, 216376, Note_on_c, 9, 39, 110
1, 216376, Note_on_c, 9, 82, 110
1, 216468, Note_off_c, 9, 39, 17
1, 216468, Note_off_c, 9, 82, 17
1, 216568, Note_off_c, 4, 60, 95
1, 216568, Note_on_c, 4, 62, 95
1, 216568, Note_on_c, 5, 62, 118
1, 216568, Note_on_c, 9, 36, 125
1, 216568, Note_on_c, 9, 42, 110
1, 216568, Note_on_c, 9, 36, 125
1, 216660, Note_off_c, 9, 36, 64
1, 216660, Note_off_c, 9, 42, 64
1, 216660, Note_off_c, 9, 36, 64
1, 216760, Note_on_c, 6, 90, 127
1, 216760, Note_on_c, 9, 36, 125
1, 216760, Note_on_c, 9, 36, 125
1, 216760, Note_on_c, 9, 82, 110
1, 216852, Note_off_c, 9, 36, 17
1, 216852, Note_off_c, 9, 36, 17
1, 216852, Note_off_c, 9, 82, 17
1, 216888, Note_off_c, 6, 90, 127
1, 216952, Note_on_c, 4, 60, 95
1, 216952, Note_on_c, 5, 60, 124
1, 216952, Note_on_c, 6, 90, 127
1, 216952, Note_on_c, 9, 42, 110
1, 216952, Note_on_c, 9, 36, 125
1, 216952, Note_on_c, 9, 36, 125
1, 216952, Note_on_c, 9, 82, 110
1, 217044, Note_off_c, 9, 42, 17
1, 217044, Note_off_c, 9, 36, 17
1, 217044, Note_off_c, 9, 36, 17
1, 217044, Note_off_c, 9, 82, 17
1, 217080, Note_off_c, 6, 90, 127
1, 217132, Note_off_c, 4, 62, 48
1, 217132, Note_off_c, 5, 62, 64
1, 217144, Note_on_c, 9, 36, 125
1, 217144, Note_on_c, 9, 36, 125
1, 217144, Note_on_c, 9, 82, 110
1, 217236, Note_off_c, 9, 36, 17
1, 217236, Note_off_c, 9, 36, 17
1, 217236, Note_off_c, 9, 82, 17
1, 217336, Note_on_c, 4, 63, 95
1, 217336, Note_on_c, 5, 63, 127
1, 217336, Note_on_c, 9, 40, 110
1, 217336, Note_on_c, 9, 42, 110
1, 217336, Note_on_c, 9, 82, 110
1, 217428, Note_off_c, 9, 40, 17
1, 217428, Note_off_c, 9, 42, 17
1, 217428, Note_off_c, 9, 82, 17
1, 217516, Note_off_c, 4, 60, 95
1, 217516, Note_off_c, 5, 60, 109
1, 217528, Note_on_c, 9, 36, 125
1, 217528, Note_on_c, 9, 39, 110
1, 217528, Note_on_c, 9, 82, 110
1, 217620, Note_off_c, 9, 36, 17
1, 217620, Note_off_c, 9, 39, 17
1, 217620, Note_off_c, 9, 82, 17
1, 217720, Note_on_c, 9, 42, 110
1, 217812, Note_off_c, 9, 42, 17
1, 217912, Note_on_c, 9, 39, 110
1, 217912, Note_on_c, 9, 82, 110
1, 217976, Note_off_c, 4, 63, 95
1, 217976, Note_off_c, 5, 63, 127
1, 218004, Note_off_c, 9, 39, 17
1, 218004, Note_off_c, 9, 82, 17
1, 218296, Note_on_c, 9, 82, 110
1, 218388, Note_off_c, 9, 82, 17
1, 218488, Note_on_c, 9, 82, 110
1, 218580, Note_off_c, 9, 82, 17
1, 218680, Note_on_c, 9, 82, 110
1, 218772, Note_off_c, 9, 82, 17
1, 218872, Note_on_c, 9, 82, 110
1, 218964, Note_off_c, 9, 82, 17
1, 219064, Note_on_c, 9, 39, 110
1, 219156, Note_off_c, 9, 39, 17
1, 219256, Note_on_c, 9, 82, 110
1, 219348, Note_off_c, 9, 82, 17
1, 219448, Note_on_c, 9, 39, 110
1, 219540, Note_off_c, 9, 39, 17
1, 219640, Note_on_c, 9, 36, 125
1, 219732, Note_off_c, 9, 36, 64
1, 219832, Note_on_c, 9, 39, 110
1, 219924, Note_off_c, 9, 39, 17
1, 220024, Note_on_c, 9, 39, 110
1, 220116, Note_off_c, 9, 39, 17
1, 220216, Note_on_c, 9, 39, 110
1, 220308, Note_off_c, 9, 39, 17
1, 220408, Note_on_c, 9, 36, 125
1, 220500, Note_off_c, 9, 36, 17
1, 220600, Note_on_c, 9, 39, 110
1, 220692, Note_off_c, 9, 39, 17
1, 220792, Note_on_c, 9, 39, 110
1, 220884, Note_off_c, 9, 39, 17
1, 220984, Note_on_c, 9, 39, 110
1, 221076, Note_off_c, 9, 39, 17
1, 221176, Note_on_c, 1, 68, 110
1, 221176, Note_on_c, 1, 73, 110
1, 221176, Note_on_c, 1, 76, 110
1, 221944, Note_on_c, 2, 62, 127
1, 222132, Note_off_c, 2, 62, 24
1, 222136, Note_on_c, 2, 64, 127
1, 222324, Note_off_c, 2, 64, 24
1, 222328, Note_on_c, 2, 66, 127
1, 222516, Note_off_c, 2, 66, 24
1, 222520, Note_on_c, 2, 71, 127
1, 222612, Note_off_c, 1, 68, 64
1, 222612, Note_off_c, 1, 73, 64
1, 222612, Note_off_c, 1, 76, 64
1, 222708, Note_off_c, 2, 71, 24
1, 222712, Note_on_c, 1, 66, 110
1, 222712, Note_on_c, 1, 71, 110
1, 222712, Note_on_c, 1, 73, 110
1, 222712, Note_on_c, 2, 70, 127
1, 222900, Note_off_c, 2, 70, 77
1, 222904, Note_on_c, 2, 71, 127
1, 223092, Note_off_c, 2, 71, 24
1, 223096, Note_on_c, 2, 73, 127
1, 223284, Note_off_c, 2, 73, 24
1, 223288, Note_on_c, 2, 74, 127
1, 223476, Note_off_c, 2, 74, 24
1, 223480, Note_on_c, 2, 76, 127
1, 223668, Note_off_c, 2, 76, 24
1, 223672, Note_on_c, 2, 79, 127
1, 223788, Note_off_c, 1, 66, 64
1, 223788, Note_off_c, 1, 71, 64
1, 223788, Note_off_c, 1, 73, 64
1, 223860, Note_off_c, 2, 79, 24
1, 223864, Note_on_c, 1, 66, 110
1, 223864, Note_on_c, 1, 71, 110
1, 223864, Note_on_c, 1, 73, 110
1, 223864, Note_on_c, 2, 82, 127
1, 224052, Note_off_c, 2, 82, 24
1, 224056, Note_on_c, 2, 83, 127
1, 224212, Note_off_c, 2, 83, 24
1, 224220, Note_off_c, 1, 66, 17
1, 224220, Note_off_c, 1, 71, 17
1, 224220, Note_off_c, 1, 73, 17
1, 224248, Note_on_c, 1, 66, 110
1, 224248, Note_on_c, 1, 71, 110
1, 224248, Note_on_c, 1, 74, 110
1, 225324, Note_off_c, 1, 66, 64
1, 225324, Note_off_c, 1, 71, 64
1, 225324, Note_off_c, 1, 74, 64
1, 225784, Note_on_c, 1, 66, 110
1, 225784, Note_on_c, 1, 71, 110
1, 225784, Note_on_c, 1, 74, 110
1, 226860, Note_off_c, 1, 66, 64
1, 226860, Note_off_c, 1, 71, 64
1, 226860, Note_off_c, 1, 74, 64
1, 226860, End_track
0, 0, End_of_file
