0, 0, Header, 0, 1, 192
1, 0, Start_track
1, 0, Sequencer_specific, 13, 5, 15, 28, 50, 48, 48, 50, 46, 48, 54, 46, 48, 51
1, 0, Sequencer_specific, 5, 5, 15, 9, 64, 72
1, 0, Sequencer_specific, 15, 5, 15, 6, 71, 101, 110, 101, 114, 97, 108, 32, 77, 73, 68, 73
1, 0, Sequencer_specific, 8, 5, 15, 18, 0, 0, 127, 127, 0
1, 0, Text_t, "Generated by GNMIDFMT 1.0 demo version during 5 days free testing phase\012"
1, 0, Title_t, "untitled"
1, 0, SMPTE_offset, 96, 0, 3, 0, 0
1, 0, System_exclusive, 5, 126, 127, 9, 1, 247
1, 0, System_exclusive, 10, 65, 16, 66, 18, 64, 0, 127, 0, 65, 247
1, 0, Tempo, 1000000
1, 36, Pitch_bend_c, 0, 8192
1, 36, Pitch_bend_c, 1, 8192
1, 36, Pitch_bend_c, 2, 8192
1, 36, Pitch_bend_c, 3, 8192
1, 36, Pitch_bend_c, 4, 8192
1, 36, Pitch_bend_c, 5, 8192
1, 36, Pitch_bend_c, 6, 8192
1, 36, Pitch_bend_c, 7, 8192
1, 36, Pitch_bend_c, 9, 8192
1, 72, Control_c, 0, 91, 40
1, 72, Control_c, 1, 91, 90
1, 72, Control_c, 2, 91, 70
1, 72, Control_c, 3, 91, 110
1, 72, Control_c, 4, 91, 100
1, 72, Control_c, 5, 91, 70
1, 72, Control_c, 6, 91, 80
1, 72, Control_c, 7, 91, 80
1, 72, Control_c, 9, 91, 70
1, 192, Control_c, 0, 0, 0
1, 193, Control_c, 0, 32, 0
1, 194, Program_c, 0, 35
1, 199, Program_c, 1, 5
1, 202, Control_c, 2, 0, 0
1, 203, Control_c, 2, 32, 0
1, 204, Program_c, 2, 48
1, 207, Control_c, 3, 0, 0
1, 208, Control_c, 3, 32, 0
1, 209, Program_c, 3, 73
1, 212, Control_c, 4, 0, 0
1, 213, Control_c, 4, 32, 0
1, 214, Program_c, 4, 8
1, 217, Control_c, 5, 0, 0
1, 218, Control_c, 5, 32, 0
1, 219, Program_c, 5, 1
1, 222, Control_c, 6, 0, 0
1, 223, Control_c, 6, 32, 0
1, 224, Program_c, 6, 87
1, 227, Control_c, 7, 0, 0
1, 228, Control_c, 7, 32, 0
1, 229, Program_c, 7, 95
1, 237, Control_c, 9, 0, 0
1, 238, Control_c, 9, 32, 0
1, 239, Program_c, 9, 0
1, 1880, Note_on_c, 0, 45, 110
1, 1880, Note_on_c, 2, 57, 66
1, 1880, Note_on_c, 2, 60, 64
1, 1880, Note_on_c, 2, 64, 58
1, 1880, Note_on_c, 5, 60, 89
1, 1880, Note_on_c, 5, 64, 86
1, 1880, Note_on_c, 5, 45, 96
1, 1880, Note_on_c, 6, 60, 96
1, 1880, Note_on_c, 7, 60, 66
1, 1880, Note_on_c, 7, 57, 64
1, 1881, Note_on_c, 4, 84, 76
1, 1881, Note_on_c, 9, 36, 121
1, 1881, Note_on_c, 9, 42, 113
1, 1882, Note_on_c, 1, 45, 61
1, 1882, Note_on_c, 1, 60, 55
1, 1882, Note_on_c, 1, 55, 84
1, 1882, Note_on_c, 1, 64, 89
1, 1882, Note_on_c, 9, 42, 0
1, 1882, Note_on_c, 9, 36, 0
1, 1977, Note_on_c, 9, 42, 73
1, 1977, Note_on_c, 9, 70, 81
1, 1978, Note_on_c, 9, 70, 0
1, 1978, Note_on_c, 9, 42, 0
1, 2023, Note_on_c, 4, 84, 0
1, 2025, Note_on_c, 9, 70, 81
1, 2026, Note_on_c, 9, 70, 0
1, 2037, Note_on_c, 1, 60, 0
1, 2043, Note_on_c, 1, 55, 0
1, 2058, Note_on_c, 1, 64, 0
1, 2067, Note_on_c, 1, 62, 66
1, 2067, Note_on_c, 1, 60, 72
1, 2068, Note_on_c, 1, 55, 79
1, 2068, Note_on_c, 7, 59, 74
1, 2069, Note_on_c, 6, 59, 89
1, 2070, Note_on_c, 4, 83, 69
1, 2070, Note_on_c, 7, 57, 0
1, 2071, Note_on_c, 1, 47, 66
1, 2071, Note_on_c, 2, 62, 74
1, 2071, Note_on_c, 5, 62, 72
1, 2071, Note_on_c, 7, 55, 66
1, 2072, Note_on_c, 0, 35, 110
1, 2072, Note_on_c, 5, 59, 110
1, 2072, Note_on_c, 5, 47, 66
1, 2073, Note_on_c, 9, 38, 97
1, 2073, Note_on_c, 9, 42, 113
1, 2073, Note_on_c, 9, 70, 81
1, 2074, Note_on_c, 1, 45, 0
1, 2074, Note_on_c, 9, 70, 0
1, 2074, Note_on_c, 9, 42, 0
1, 2074, Note_on_c, 9, 38, 0
1, 2076, Note_on_c, 7, 60, 0
1, 2077, Note_on_c, 6, 60, 0
1, 2078, Note_on_c, 2, 60, 0
1, 2079, Note_on_c, 0, 45, 0
1, 2080, Note_on_c, 5, 64, 0
1, 2081, Note_on_c, 5, 60, 0
1, 2082, Note_on_c, 5, 45, 0
1, 2169, Note_on_c, 9, 36, 81
1, 2169, Note_on_c, 9, 42, 73
1, 2170, Note_on_c, 9, 42, 0
1, 2170, Note_on_c, 9, 36, 0
1, 2201, Note_on_c, 4, 83, 0
1, 2243, Note_on_c, 1, 55, 0
1, 2243, Note_on_c, 1, 62, 0
1, 2243, Note_on_c, 5, 62, 0
1, 2247, Note_on_c, 1, 60, 0
1, 2256, Note_on_c, 2, 60, 66
1, 2257, Note_on_c, 2, 55, 66
1, 2257, Note_on_c, 3, 67, 104
1, 2259, Note_on_c, 0, 35, 0
1, 2261, Note_on_c, 1, 50, 58
1, 2261, Note_on_c, 2, 64, 0
1, 2261, Note_on_c, 4, 81, 58
1, 2262, Note_on_c, 1, 55, 69
1, 2263, Note_on_c, 1, 60, 69
1, 2263, Note_on_c, 1, 62, 79
1, 2263, Note_on_c, 5, 62, 84
1, 2263, Note_on_c, 5, 57, 74
1, 2263, Note_on_c, 5, 50, 77
1, 2264, Note_on_c, 0, 38, 110
1, 2264, Note_on_c, 9, 36, 121
1, 2264, Note_on_c, 9, 42, 113
1, 2265, Note_on_c, 1, 47, 0
1, 2265, Note_on_c, 9, 42, 0
1, 2265, Note_on_c, 9, 36, 0
1, 2266, Note_on_c, 2, 57, 0
1, 2266, Note_on_c, 6, 62, 69
1, 2268, Note_on_c, 5, 59, 0
1, 2268, Note_on_c, 5, 47, 0
1, 2269, Note_on_c, 7, 57, 72
1, 2270, Note_on_c, 7, 55, 0
1, 2271, Note_on_c, 7, 50, 89
1, 2279, Note_on_c, 7, 59, 0
1, 2287, Note_on_c, 6, 59, 0
1, 2353, Note_on_c, 3, 66, 104
1, 2359, Note_on_c, 3, 67, 0
1, 2360, Note_on_c, 9, 46, 57
1, 2360, Note_on_c, 9, 70, 81
1, 2361, Note_on_c, 9, 70, 0
1, 2361, Note_on_c, 9, 46, 0
1, 2409, Note_on_c, 9, 70, 81
1, 2410, Note_on_c, 9, 70, 0
1, 2419, Note_on_c, 4, 81, 0
1, 2453, Note_on_c, 3, 64, 104
1, 2455, Note_on_c, 5, 38, 81
1, 2457, Note_on_c, 9, 38, 97
1, 2457, Note_on_c, 9, 42, 113
1, 2457, Note_on_c, 9, 70, 81
1, 2458, Note_on_c, 9, 70, 0
1, 2458, Note_on_c, 9, 42, 0
1, 2458, Note_on_c, 9, 38, 0
1, 2459, Note_on_c, 3, 66, 0
1, 2480, Note_on_c, 5, 50, 0
1, 2552, Note_on_c, 0, 33, 110
1, 2552, Note_on_c, 3, 62, 103
1, 2553, Note_on_c, 9, 42, 73
1, 2554, Note_on_c, 9, 42, 0
1, 2560, Note_on_c, 0, 38, 0
1, 2561, Note_on_c, 3, 64, 0
1, 2600, Note_on_c, 0, 35, 108
1, 2608, Note_on_c, 0, 33, 0
1, 2648, Note_on_c, 0, 35, 0
1, 2648, Note_on_c, 0, 36, 110
1, 2648, Note_on_c, 1, 60, 0
1, 2648, Note_on_c, 1, 50, 0
1, 2648, Note_on_c, 1, 55, 0
1, 2648, Note_on_c, 1, 62, 0
1, 2648, Note_on_c, 1, 64, 84
1, 2648, Note_on_c, 1, 59, 102
1, 2648, Note_on_c, 1, 55, 79
1, 2648, Note_on_c, 1, 36, 79
1, 2648, Note_on_c, 2, 60, 0
1, 2648, Note_on_c, 2, 62, 0
1, 2648, Note_on_c, 2, 55, 0
1, 2648, Note_on_c, 2, 55, 96
1, 2648, Note_on_c, 2, 64, 66
1, 2648, Note_on_c, 2, 59, 96
1, 2648, Note_on_c, 3, 62, 0
1, 2648, Note_on_c, 3, 59, 97
1, 2648, Note_on_c, 4, 88, 64
1, 2648, Note_on_c, 5, 57, 0
1, 2648, Note_on_c, 5, 62, 0
1, 2648, Note_on_c, 5, 38, 0
1, 2648, Note_on_c, 5, 64, 81
1, 2648, Note_on_c, 5, 59, 96
1, 2648, Note_on_c, 5, 36, 110
1, 2648, Note_on_c, 6, 62, 0
1, 2648, Note_on_c, 6, 64, 74
1, 2648, Note_on_c, 7, 50, 0
1, 2648, Note_on_c, 7, 57, 0
1, 2648, Note_on_c, 7, 59, 66
1, 2648, Note_on_c, 7, 52, 77
1, 2649, Note_on_c, 9, 36, 121
1, 2649, Note_on_c, 9, 42, 113
1, 2649, Note_on_c, 9, 49, 82
1, 2650, Note_on_c, 9, 49, 0
1, 2650, Note_on_c, 9, 42, 0
1, 2650, Note_on_c, 9, 36, 0
1, 2731, Note_on_c, 4, 88, 0
1, 2745, Note_on_c, 9, 42, 73
1, 2745, Note_on_c, 9, 70, 81
1, 2746, Note_on_c, 9, 70, 0
1, 2746, Note_on_c, 9, 42, 0
1, 2791, Note_on_c, 5, 48, 58
1, 2793, Note_on_c, 9, 70, 81
1, 2794, Note_on_c, 9, 70, 0
1, 2808, Note_on_c, 5, 36, 0
1, 2811, Note_on_c, 1, 64, 0
1, 2812, Note_on_c, 1, 59, 0
1, 2834, Note_on_c, 2, 62, 74
1, 2834, Note_on_c, 5, 48, 0
1, 2836, Note_on_c, 6, 62, 96
1, 2837, Note_on_c, 1, 38, 66
1, 2838, Note_on_c, 0, 36, 0
1, 2838, Note_on_c, 1, 62, 72
1, 2838, Note_on_c, 1, 57, 74
1, 2838, Note_on_c, 2, 54, 51
1, 2838, Note_on_c, 2, 57, 69
1, 2839, Note_on_c, 1, 55, 0
1, 2839, Note_on_c, 1, 54, 72
1, 2839, Note_on_c, 3, 57, 93
1, 2839, Note_on_c, 5, 38, 89
1, 2839, Note_on_c, 7, 50, 58
1, 2840, Note_on_c, 0, 38, 110
1, 2841, Note_on_c, 9, 38, 97
1, 2841, Note_on_c, 9, 42, 113
1, 2841, Note_on_c, 9, 70, 81
1, 2842, Note_on_c, 2, 59, 0
1, 2842, Note_on_c, 4, 86, 61
1, 2842, Note_on_c, 7, 57, 64
1, 2842, Note_on_c, 9, 70, 0
1, 2842, Note_on_c, 9, 42, 0
1, 2842, Note_on_c, 9, 38, 0
1, 2843, Note_on_c, 6, 64, 0
1, 2843, Note_on_c, 7, 52, 0
1, 2845, Note_on_c, 2, 55, 0
1, 2846, Note_on_c, 1, 36, 0
1, 2846, Note_on_c, 2, 64, 0
1, 2847, Note_on_c, 5, 64, 0
1, 2850, Note_on_c, 5, 59, 0
1, 2851, Note_on_c, 3, 59, 0
1, 2851, Note_on_c, 7, 59, 0
1, 2887, Note_on_c, 5, 57, 96
1, 2888, Note_on_c, 5, 62, 84
1, 2888, Note_on_c, 5, 50, 66
1, 2917, Note_on_c, 4, 86, 0
1, 2936, Note_on_c, 0, 26, 110
1, 2937, Note_on_c, 4, 88, 64
1, 2937, Note_on_c, 9, 36, 81
1, 2937, Note_on_c, 9, 42, 73
1, 2938, Note_on_c, 9, 42, 0
1, 2938, Note_on_c, 9, 36, 0
1, 2941, Note_on_c, 0, 38, 0
1, 2969, Note_on_c, 5, 38, 0
1, 2980, Note_on_c, 5, 50, 0
1, 2983, Note_on_c, 5, 38, 110
1, 3012, Note_on_c, 1, 62, 0
1, 3015, Note_on_c, 1, 54, 0
1, 3016, Note_on_c, 1, 57, 0
1, 3017, Note_on_c, 5, 62, 0
1, 3022, Note_on_c, 5, 38, 0
1, 3025, Note_on_c, 2, 59, 72
1, 3025, Note_on_c, 4, 88, 0
1, 3028, Note_on_c, 2, 55, 66
1, 3028, Note_on_c, 2, 64, 74
1, 3029, Note_on_c, 4, 83, 66
1, 3030, Note_on_c, 3, 59, 85
1, 3030, Note_on_c, 5, 64, 64
1, 3030, Note_on_c, 7, 59, 58
1, 3031, Note_on_c, 5, 59, 89
1, 3031, Note_on_c, 5, 40, 84
1, 3032, Note_on_c, 0, 40, 110
1, 3032, Note_on_c, 1, 40, 64
1, 3032, Note_on_c, 1, 55, 72
1, 3032, Note_on_c, 1, 59, 72
1, 3032, Note_on_c, 7, 52, 66
1, 3032, Note_on_c, 9, 36, 121
1, 3032, Note_on_c, 9, 42, 113
1, 3033, Note_on_c, 1, 64, 84
1, 3033, Note_on_c, 9, 42, 0
1, 3033, Note_on_c, 9, 36, 0
1, 3034, Note_on_c, 6, 64, 72
1, 3035, Note_on_c, 5, 57, 0
1, 3036, Note_on_c, 2, 54, 0
1, 3037, Note_on_c, 2, 62, 0
1, 3037, Note_on_c, 2, 57, 0
1, 3037, Note_on_c, 3, 57, 0
1, 3040, Note_on_c, 1, 38, 0
1, 3040, Note_on_c, 7, 50, 0
1, 3040, Note_on_c, 7, 57, 0
1, 3041, Note_on_c, 0, 26, 0
1, 3043, Note_on_c, 6, 62, 0
1, 3129, Note_on_c, 9, 46, 57
1, 3129, Note_on_c, 9, 70, 81
1, 3130, Note_on_c, 9, 70, 0
1, 3130, Note_on_c, 9, 46, 0
1, 3160, Note_on_c, 5, 40, 0
1, 3175, Note_on_c, 5, 40, 69
1, 3177, Note_on_c, 9, 70, 81
1, 3178, Note_on_c, 9, 70, 0
1, 3214, Note_on_c, 0, 40, 0
1, 3215, Note_on_c, 3, 59, 0
1, 3220, Note_on_c, 3, 67, 104
1, 3224, Note_on_c, 0, 40, 110
1, 3224, Note_on_c, 5, 52, 79
1, 3224, Note_on_c, 6, 64, 0
1, 3224, Note_on_c, 6, 67, 89
1, 3225, Note_on_c, 9, 38, 97
1, 3225, Note_on_c, 9, 42, 113
1, 3225, Note_on_c, 9, 70, 81
1, 3226, Note_on_c, 9, 70, 0
1, 3226, Note_on_c, 9, 42, 0
1, 3226, Note_on_c, 9, 38, 0
1, 3229, Note_on_c, 4, 83, 0
1, 3231, Note_on_c, 5, 64, 0
1, 3236, Note_on_c, 5, 59, 0
1, 3267, Note_on_c, 3, 66, 104
1, 3267, Note_on_c, 6, 66, 69
1, 3270, Note_on_c, 3, 67, 0
1, 3271, Note_on_c, 5, 59, 66
1, 3271, Note_on_c, 5, 64, 74
1, 3272, Note_on_c, 0, 35, 84
1, 3275, Note_on_c, 6, 67, 0
1, 3277, Note_on_c, 0, 40, 0
1, 3291, Note_on_c, 5, 52, 0
1, 3314, Note_on_c, 3, 64, 100
1, 3315, Note_on_c, 3, 66, 0
1, 3316, Note_on_c, 6, 64, 39
1, 3320, Note_on_c, 0, 40, 110
1, 3321, Note_on_c, 9, 42, 73
1, 3322, Note_on_c, 9, 42, 0
1, 3323, Note_on_c, 0, 35, 0
1, 3324, Note_on_c, 6, 66, 0
1, 3351, Note_on_c, 5, 40, 0
1, 3363, Note_on_c, 3, 62, 81
1, 3365, Note_on_c, 6, 62, 74
1, 3368, Note_on_c, 0, 38, 89
1, 3368, Note_on_c, 5, 40, 96
1, 3368, Note_on_c, 6, 64, 0
1, 3373, Note_on_c, 0, 40, 0
1, 3373, Note_on_c, 3, 64, 0
1, 3383, Note_on_c, 5, 64, 0
1, 3385, Note_on_c, 1, 64, 0
1, 3387, Note_on_c, 5, 59, 0
1, 3391, Note_on_c, 1, 55, 0
1, 3393, Note_on_c, 1, 59, 0
1, 3394, Note_on_c, 2, 64, 0
1, 3395, Note_on_c, 2, 59, 0
1, 3399, Note_on_c, 2, 55, 0
1, 3401, Note_on_c, 7, 59, 0
1, 3404, Note_on_c, 7, 52, 0
1, 3406, Note_on_c, 5, 40, 0
1, 3411, Note_on_c, 2, 55, 61
1, 3412, Note_on_c, 1, 40, 0
1, 3412, Note_on_c, 2, 64, 66
1, 3412, Note_on_c, 2, 59, 55
1, 3413, Note_on_c, 6, 64, 79
1, 3414, Note_on_c, 1, 55, 72
1, 3414, Note_on_c, 1, 59, 77
1, 3414, Note_on_c, 1, 64, 93
1, 3414, Note_on_c, 3, 59, 100
1, 3414, Note_on_c, 4, 88, 69
1, 3415, Note_on_c, 1, 36, 69
1, 3415, Note_on_c, 5, 36, 89
1, 3415, Note_on_c, 5, 59, 74
1, 3415, Note_on_c, 5, 64, 89
1, 3415, Note_on_c, 7, 59, 69
1, 3416, Note_on_c, 0, 36, 77
1, 3416, Note_on_c, 7, 52, 66
1, 3416, Note_on_c, 9, 36, 121
1, 3416, Note_on_c, 9, 42, 113
1, 3417, Note_on_c, 9, 42, 0
1, 3417, Note_on_c, 9, 36, 0
1, 3420, Note_on_c, 6, 62, 0
1, 3421, Note_on_c, 3, 62, 0
1, 3424, Note_on_c, 0, 38, 0
1, 3513, Note_on_c, 9, 42, 73
1, 3513, Note_on_c, 9, 70, 81
1, 3514, Note_on_c, 9, 70, 0
1, 3514, Note_on_c, 9, 42, 0
1, 3556, Note_on_c, 4, 88, 0
1, 3559, Note_on_c, 5, 48, 58
1, 3561, Note_on_c, 9, 70, 81
1, 3562, Note_on_c, 9, 70, 0
1, 3569, Note_on_c, 5, 36, 0
1, 3577, Note_on_c, 1, 64, 0
1, 3584, Note_on_c, 1, 59, 0
1, 3598, Note_on_c, 5, 48, 0
1, 3602, Note_on_c, 1, 55, 0
1, 3602, Note_on_c, 2, 62, 79
1, 3602, Note_on_c, 2, 54, 66
1, 3603, Note_on_c, 1, 38, 74
1, 3603, Note_on_c, 2, 57, 74
1, 3603, Note_on_c, 5, 64, 0
1, 3604, Note_on_c, 1, 57, 84
1, 3604, Note_on_c, 1, 62, 96
1, 3604, Note_on_c, 3, 57, 104
1, 3604, Note_on_c, 4, 86, 55
1, 3604, Note_on_c, 7, 57, 69
1, 3605, Note_on_c, 1, 54, 89
1, 3605, Note_on_c, 6, 62, 84
1, 3605, Note_on_c, 7, 50, 64
1, 3606, Note_on_c, 5, 38, 84
1, 3608, Note_on_c, 0, 38, 110
1, 3608, Note_on_c, 1, 36, 0
1, 3608, Note_on_c, 2, 55, 0
1, 3609, Note_on_c, 3, 59, 0
1, 3609, Note_on_c, 7, 52, 0
1, 3609, Note_on_c, 9, 38, 97
1, 3609, Note_on_c, 9, 42, 113
1, 3609, Note_on_c, 9, 70, 81
1, 3610, Note_on_c, 9, 70, 0
1, 3610, Note_on_c, 9, 42, 0
1, 3610, Note_on_c, 9, 38, 0
1, 3611, Note_on_c, 5, 59, 0
1, 3612, Note_on_c, 2, 64, 0
1, 3612, Note_on_c, 6, 64, 0
1, 3614, Note_on_c, 0, 36, 0
1, 3614, Note_on_c, 7, 59, 0
1, 3616, Note_on_c, 2, 59, 0
1, 3655, Note_on_c, 5, 62, 69
1, 3655, Note_on_c, 5, 57, 79
1, 3655, Note_on_c, 5, 50, 77
1, 3694, Note_on_c, 4, 86, 0
1, 3701, Note_on_c, 4, 88, 61
1, 3704, Note_on_c, 9, 36, 81
1, 3704, Note_on_c, 9, 42, 73
1, 3705, Note_on_c, 9, 42, 0
1, 3705, Note_on_c, 9, 36, 0
1, 3737, Note_on_c, 5, 38, 0
1, 3751, Note_on_c, 5, 38, 81
1, 3753, Note_on_c, 5, 50, 0
1, 3784, Note_on_c, 5, 62, 0
1, 3785, Note_on_c, 1, 62, 0
1, 3788, Note_on_c, 1, 54, 0
1, 3788, Note_on_c, 1, 57, 0
1, 3795, Note_on_c, 2, 55, 84
1, 3795, Note_on_c, 2, 64, 69
1, 3795, Note_on_c, 2, 59, 69
1, 3795, Note_on_c, 5, 38, 0
1, 3795, Note_on_c, 7, 59, 61
1, 3797, Note_on_c, 7, 52, 66
1, 3798, Note_on_c, 5, 64, 69
1, 3799, Note_on_c, 5, 59, 84
1, 3799, Note_on_c, 5, 40, 84
1, 3799, Note_on_c, 6, 64, 89
1, 3800, Note_on_c, 0, 40, 99
1, 3800, Note_on_c, 3, 59, 88
1, 3801, Note_on_c, 9, 36, 121
1, 3802, Note_on_c, 0, 38, 0
1, 3802, Note_on_c, 1, 40, 74
1, 3802, Note_on_c, 4, 83, 55
1, 3802, Note_on_c, 9, 36, 0
1, 3802, Note_on_c, 9, 42, 113
1, 3803, Note_on_c, 9, 42, 0
1, 3804, Note_on_c, 1, 59, 72
1, 3804, Note_on_c, 1, 55, 74
1, 3804, Note_on_c, 2, 54, 0
1, 3804, Note_on_c, 5, 57, 0
1, 3805, Note_on_c, 2, 62, 0
1, 3806, Note_on_c, 1, 64, 86
1, 3806, Note_on_c, 2, 57, 0
1, 3807, Note_on_c, 4, 88, 0
1, 3807, Note_on_c, 6, 62, 0
1, 3807, Note_on_c, 7, 57, 0
1, 3807, Note_on_c, 7, 50, 0
1, 3810, Note_on_c, 3, 57, 0
1, 3811, Note_on_c, 1, 38, 0
1, 3897, Note_on_c, 9, 46, 57
1, 3897, Note_on_c, 9, 70, 81
1, 3898, Note_on_c, 9, 70, 0
1, 3898, Note_on_c, 9, 46, 0
1, 3927, Note_on_c, 5, 40, 0
1, 3943, Note_on_c, 5, 40, 84
1, 3945, Note_on_c, 9, 70, 81
1, 3946, Note_on_c, 9, 70, 0
1, 3951, Note_on_c, 4, 83, 0
1, 3983, Note_on_c, 3, 59, 0
1, 3988, Note_on_c, 6, 67, 84
1, 3990, Note_on_c, 3, 67, 104
1, 3991, Note_on_c, 5, 64, 0
1, 3991, Note_on_c, 5, 52, 110
1, 3992, Note_on_c, 6, 64, 0
1, 3993, Note_on_c, 9, 38, 97
1, 3993, Note_on_c, 9, 42, 113
1, 3993, Note_on_c, 9, 70, 81
1, 3994, Note_on_c, 9, 70, 0
1, 3994, Note_on_c, 9, 42, 0
1, 3994, Note_on_c, 9, 38, 0
1, 3996, Note_on_c, 5, 59, 0
1, 4035, Note_on_c, 6, 66, 66
1, 4037, Note_on_c, 3, 66, 104
1, 4039, Note_on_c, 5, 59, 89
1, 4039, Note_on_c, 5, 64, 89
1, 4040, Note_on_c, 0, 28, 102
1, 4043, Note_on_c, 3, 67, 0
1, 4045, Note_on_c, 0, 40, 0
1, 4046, Note_on_c, 6, 67, 0
1, 4061, Note_on_c, 5, 52, 0
1, 4082, Note_on_c, 3, 66, 0
1, 4082, Note_on_c, 3, 64, 97
1, 4084, Note_on_c, 6, 64, 58
1, 4088, Note_on_c, 0, 40, 105
1, 4089, Note_on_c, 9, 42, 73
1, 4090, Note_on_c, 9, 42, 0
1, 4092, Note_on_c, 6, 66, 0
1, 4098, Note_on_c, 0, 28, 0
1, 4118, Note_on_c, 5, 40, 0
1, 4130, Note_on_c, 3, 62, 104
1, 4132, Note_on_c, 6, 62, 69
1, 4135, Note_on_c, 5, 40, 89
1, 4135, Note_on_c, 6, 64, 0
1, 4136, Note_on_c, 0, 38, 74
1, 4141, Note_on_c, 0, 40, 0
1, 4141, Note_on_c, 3, 64, 0
1, 4150, Note_on_c, 1, 64, 0
1, 4154, Note_on_c, 5, 64, 0
1, 4157, Note_on_c, 1, 59, 0
1, 4158, Note_on_c, 1, 55, 0
1, 4159, Note_on_c, 5, 59, 0
1, 4165, Note_on_c, 2, 59, 0
1, 4165, Note_on_c, 2, 64, 0
1, 4166, Note_on_c, 7, 59, 0
1, 4169, Note_on_c, 2, 55, 0
1, 4171, Note_on_c, 7, 52, 0
1, 4176, Note_on_c, 5, 40, 0
1, 4180, Note_on_c, 1, 59, 79
1, 4180, Note_on_c, 1, 55, 84
1, 4180, Note_on_c, 1, 64, 102
1, 4180, Note_on_c, 1, 36, 72
1, 4180, Note_on_c, 3, 59, 98
1, 4180, Note_on_c, 6, 64, 79
1, 4181, Note_on_c, 2, 59, 64
1, 4181, Note_on_c, 2, 55, 69
1, 4182, Note_on_c, 2, 64, 69
1, 4183, Note_on_c, 4, 88, 55
1, 4183, Note_on_c, 5, 36, 79
1, 4183, Note_on_c, 5, 64, 84
1, 4183, Note_on_c, 5, 59, 72
1, 4183, Note_on_c, 7, 59, 79
1, 4183, Note_on_c, 7, 52, 64
1, 4184, Note_on_c, 0, 36, 110
1, 4185, Note_on_c, 1, 40, 0
1, 4185, Note_on_c, 9, 36, 121
1, 4185, Note_on_c, 9, 42, 113
1, 4186, Note_on_c, 3, 62, 0
1, 4186, Note_on_c, 9, 42, 0
1, 4186, Note_on_c, 9, 36, 0
1, 4187, Note_on_c, 6, 62, 0
1, 4193, Note_on_c, 0, 38, 0
1, 4281, Note_on_c, 9, 42, 73
1, 4281, Note_on_c, 9, 70, 81
1, 4282, Note_on_c, 9, 70, 0
1, 4282, Note_on_c, 9, 42, 0
1, 4327, Note_on_c, 5, 48, 74
1, 4329, Note_on_c, 9, 70, 81
1, 4330, Note_on_c, 9, 70, 0
1, 4341, Note_on_c, 5, 36, 0
1, 4342, Note_on_c, 1, 64, 0
1, 4348, Note_on_c, 4, 88, 0
1, 4353, Note_on_c, 1, 59, 0
1, 4365, Note_on_c, 5, 48, 0
1, 4367, Note_on_c, 3, 57, 98
1, 4368, Note_on_c, 7, 50, 64
1, 4369, Note_on_c, 2, 62, 72
1, 4369, Note_on_c, 7, 57, 64
1, 4370, Note_on_c, 2, 54, 66
1, 4370, Note_on_c, 3, 59, 0
1, 4371, Note_on_c, 1, 38, 79
1, 4371, Note_on_c, 7, 52, 0
1, 4372, Note_on_c, 2, 57, 64
1, 4373, Note_on_c, 1, 57, 79
1, 4373, Note_on_c, 4, 86, 61
1, 4373, Note_on_c, 5, 64, 0
1, 4373, Note_on_c, 6, 62, 74
1, 4374, Note_on_c, 1, 55, 0
1, 4374, Note_on_c, 1, 54, 96
1, 4374, Note_on_c, 1, 62, 66
1, 4375, Note_on_c, 2, 55, 0
1, 4375, Note_on_c, 5, 38, 79
1, 4375, Note_on_c, 6, 64, 0
1, 4376, Note_on_c, 0, 38, 108
1, 4376, Note_on_c, 9, 38, 97
1, 4376, Note_on_c, 9, 42, 113
1, 4376, Note_on_c, 9, 70, 81
1, 4377, Note_on_c, 1, 36, 0
1, 4377, Note_on_c, 7, 59, 0
1, 4377, Note_on_c, 9, 70, 0
1, 4377, Note_on_c, 9, 42, 0
1, 4377, Note_on_c, 9, 38, 0
1, 4378, Note_on_c, 5, 59, 0
1, 4379, Note_on_c, 2, 59, 0
1, 4380, Note_on_c, 2, 64, 0
1, 4382, Note_on_c, 0, 36, 0
1, 4423, Note_on_c, 5, 62, 79
1, 4423, Note_on_c, 5, 57, 79
1, 4424, Note_on_c, 5, 50, 77
1, 4456, Note_on_c, 4, 86, 0
1, 4469, Note_on_c, 4, 88, 61
1, 4473, Note_on_c, 9, 36, 81
1, 4473, Note_on_c, 9, 42, 73
1, 4474, Note_on_c, 9, 42, 0
1, 4474, Note_on_c, 9, 36, 0
1, 4499, Note_on_c, 5, 50, 0
1, 4519, Note_on_c, 5, 50, 102
1, 4536, Note_on_c, 5, 38, 0
1, 4544, Note_on_c, 1, 62, 0
1, 4547, Note_on_c, 1, 57, 0
1, 4548, Note_on_c, 1, 54, 0
1, 4560, Note_on_c, 5, 50, 0
1, 4562, Note_on_c, 2, 57, 0
1, 4562, Note_on_c, 2, 64, 66
1, 4562, Note_on_c, 5, 62, 0
1, 4563, Note_on_c, 2, 59, 84
1, 4563, Note_on_c, 7, 59, 58
1, 4564, Note_on_c, 7, 52, 74
1, 4565, Note_on_c, 3, 59, 98
1, 4566, Note_on_c, 1, 59, 66
1, 4566, Note_on_c, 1, 40, 69
1, 4566, Note_on_c, 1, 55, 66
1, 4566, Note_on_c, 1, 64, 99
1, 4566, Note_on_c, 2, 55, 64
1, 4566, Note_on_c, 4, 88, 0
1, 4566, Note_on_c, 6, 64, 74
1, 4567, Note_on_c, 5, 64, 77
1, 4567, Note_on_c, 5, 59, 84
1, 4567, Note_on_c, 5, 40, 66
1, 4568, Note_on_c, 0, 40, 110
1, 4568, Note_on_c, 4, 83, 64
1, 4569, Note_on_c, 9, 36, 121
1, 4569, Note_on_c, 9, 42, 113
1, 4570, Note_on_c, 9, 42, 0
1, 4570, Note_on_c, 9, 36, 0
1, 4571, Note_on_c, 3, 57, 0
1, 4572, Note_on_c, 7, 50, 0
1, 4572, Note_on_c, 7, 57, 0
1, 4573, Note_on_c, 0, 38, 0
1, 4573, Note_on_c, 2, 62, 0
1, 4574, Note_on_c, 2, 54, 0
1, 4575, Note_on_c, 1, 38, 0
1, 4575, Note_on_c, 5, 57, 0
1, 4577, Note_on_c, 6, 62, 0
1, 4665, Note_on_c, 9, 46, 57
1, 4665, Note_on_c, 9, 70, 81
1, 4666, Note_on_c, 9, 70, 0
1, 4666, Note_on_c, 9, 46, 0
1, 4711, Note_on_c, 5, 52, 102
1, 4712, Note_on_c, 5, 59, 0
1, 4713, Note_on_c, 9, 70, 81
1, 4714, Note_on_c, 9, 70, 0
1, 4728, Note_on_c, 5, 64, 0
1, 4732, Note_on_c, 1, 64, 0
1, 4742, Note_on_c, 1, 59, 0
1, 4744, Note_on_c, 4, 83, 0
1, 4744, Note_on_c, 7, 59, 0
1, 4751, Note_on_c, 1, 55, 0
1, 4753, Note_on_c, 2, 56, 84
1, 4753, Note_on_c, 6, 64, 0
1, 4754, Note_on_c, 5, 52, 0
1, 4757, Note_on_c, 5, 40, 0
1, 4757, Note_on_c, 7, 56, 61
1, 4758, Note_on_c, 1, 44, 66
1, 4758, Note_on_c, 7, 59, 74
1, 4759, Note_on_c, 1, 59, 77
1, 4759, Note_on_c, 1, 56, 89
1, 4760, Note_on_c, 0, 44, 110
1, 4760, Note_on_c, 1, 64, 84
1, 4760, Note_on_c, 5, 44, 84
1, 4760, Note_on_c, 5, 56, 110
1, 4760, Note_on_c, 5, 64, 102
1, 4761, Note_on_c, 6, 64, 74
1, 4761, Note_on_c, 7, 52, 0
1, 4761, Note_on_c, 9, 38, 97
1, 4761, Note_on_c, 9, 42, 113
1, 4761, Note_on_c, 9, 70, 81
1, 4762, Note_on_c, 1, 40, 0
1, 4762, Note_on_c, 2, 55, 0
1, 4762, Note_on_c, 4, 88, 66
1, 4762, Note_on_c, 9, 70, 0
1, 4762, Note_on_c, 9, 42, 0
1, 4762, Note_on_c, 9, 38, 0
1, 4768, Note_on_c, 0, 40, 0
1, 4814, Note_on_c, 3, 59, 0
1, 4851, Note_on_c, 3, 57, 93
1, 4857, Note_on_c, 9, 42, 73
1, 4858, Note_on_c, 9, 42, 0
1, 4892, Note_on_c, 5, 44, 0
1, 4897, Note_on_c, 3, 59, 88
1, 4901, Note_on_c, 4, 88, 0
1, 4904, Note_on_c, 3, 57, 0
1, 4904, Note_on_c, 5, 44, 81
1, 4927, Note_on_c, 5, 64, 0
1, 4930, Note_on_c, 1, 64, 0
1, 4933, Note_on_c, 5, 56, 0
1, 4941, Note_on_c, 1, 56, 0
1, 4942, Note_on_c, 1, 59, 0
1, 4946, Note_on_c, 3, 59, 0
1, 4947, Note_on_c, 5, 44, 0
1, 4948, Note_on_c, 2, 60, 74
1, 4948, Note_on_c, 2, 57, 69
1, 4949, Note_on_c, 7, 57, 64
1, 4950, Note_on_c, 6, 60, 99
1, 4950, Note_on_c, 7, 60, 66
1, 4951, Note_on_c, 7, 56, 0
1, 4952, Note_on_c, 0, 45, 93
1, 4952, Note_on_c, 5, 60, 89
1, 4952, Note_on_c, 5, 45, 69
1, 4952, Note_on_c, 5, 64, 77
1, 4952, Note_on_c, 6, 64, 0
1, 4953, Note_on_c, 4, 84, 76
1, 4953, Note_on_c, 7, 59, 0
1, 4953, Note_on_c, 9, 36, 121
1, 4954, Note_on_c, 1, 45, 61
1, 4954, Note_on_c, 1, 60, 55
1, 4954, Note_on_c, 1, 55, 84
1, 4954, Note_on_c, 1, 64, 89
1, 4954, Note_on_c, 2, 59, 0
1, 4954, Note_on_c, 3, 60, 104
1, 4954, Note_on_c, 9, 36, 0
1, 4954, Note_on_c, 9, 42, 113
1, 4955, Note_on_c, 9, 42, 0
1, 4956, Note_on_c, 2, 56, 0
1, 4962, Note_on_c, 0, 44, 0
1, 4963, Note_on_c, 1, 44, 0
1, 5044, Note_on_c, 3, 62, 104
1, 5046, Note_on_c, 3, 60, 0
1, 5048, Note_on_c, 9, 42, 73
1, 5048, Note_on_c, 9, 70, 81
1, 5049, Note_on_c, 9, 70, 0
1, 5049, Note_on_c, 9, 42, 0
1, 5095, Note_on_c, 4, 84, 0
1, 5096, Note_on_c, 3, 60, 104
1, 5097, Note_on_c, 9, 70, 81
1, 5098, Note_on_c, 9, 70, 0
1, 5103, Note_on_c, 3, 62, 0
1, 5109, Note_on_c, 1, 60, 0
1, 5115, Note_on_c, 1, 55, 0
1, 5130, Note_on_c, 1, 64, 0
1, 5139, Note_on_c, 1, 62, 66
1, 5139, Note_on_c, 1, 60, 72
1, 5139, Note_on_c, 2, 62, 64
1, 5140, Note_on_c, 1, 55, 79
1, 5140, Note_on_c, 7, 59, 74
1, 5142, Note_on_c, 4, 83, 69
1, 5142, Note_on_c, 6, 59, 84
1, 5142, Note_on_c, 7, 57, 0
1, 5143, Note_on_c, 1, 47, 66
1, 5143, Note_on_c, 5, 62, 72
1, 5143, Note_on_c, 5, 59, 110
1, 5143, Note_on_c, 7, 55, 66
1, 5144, Note_on_c, 0, 35, 110
1, 5144, Note_on_c, 2, 60, 0
1, 5144, Note_on_c, 2, 59, 74
1, 5144, Note_on_c, 5, 47, 72
1, 5145, Note_on_c, 9, 38, 97
1, 5145, Note_on_c, 9, 42, 113
1, 5145, Note_on_c, 9, 70, 81
1, 5146, Note_on_c, 1, 45, 0
1, 5146, Note_on_c, 5, 64, 0
1, 5146, Note_on_c, 9, 70, 0
1, 5146, Note_on_c, 9, 42, 0
1, 5146, Note_on_c, 9, 38, 0
1, 5148, Note_on_c, 6, 60, 0
1, 5148, Note_on_c, 7, 60, 0
1, 5150, Note_on_c, 2, 64, 0
1, 5150, Note_on_c, 5, 60, 0
1, 5151, Note_on_c, 5, 45, 0
1, 5155, Note_on_c, 0, 45, 0
1, 5239, Note_on_c, 3, 59, 100
1, 5241, Note_on_c, 9, 36, 81
1, 5242, Note_on_c, 9, 36, 0
1, 5242, Note_on_c, 9, 42, 73
1, 5243, Note_on_c, 9, 42, 0
1, 5244, Note_on_c, 3, 60, 0
1, 5273, Note_on_c, 4, 83, 0
1, 5291, Note_on_c, 3, 57, 101
1, 5297, Note_on_c, 3, 59, 0
1, 5315, Note_on_c, 1, 55, 0
1, 5315, Note_on_c, 1, 62, 0
1, 5319, Note_on_c, 1, 60, 0
1, 5321, Note_on_c, 5, 62, 0
1, 5333, Note_on_c, 1, 50, 58
1, 5333, Note_on_c, 4, 81, 58
1, 5334, Note_on_c, 1, 55, 69
1, 5335, Note_on_c, 1, 60, 69
1, 5335, Note_on_c, 1, 62, 79
1, 5336, Note_on_c, 0, 38, 110
1, 5336, Note_on_c, 2, 59, 0
1, 5336, Note_on_c, 5, 62, 66
1, 5336, Note_on_c, 5, 57, 89
1, 5336, Note_on_c, 5, 50, 89
1, 5336, Note_on_c, 6, 62, 66
1, 5336, Note_on_c, 9, 36, 121
1, 5336, Note_on_c, 9, 42, 113
1, 5337, Note_on_c, 0, 35, 0
1, 5337, Note_on_c, 1, 47, 0
1, 5337, Note_on_c, 2, 55, 74
1, 5337, Note_on_c, 9, 42, 0
1, 5337, Note_on_c, 9, 36, 0
1, 5341, Note_on_c, 7, 57, 72
1, 5342, Note_on_c, 7, 55, 0
1, 5343, Note_on_c, 5, 59, 0
1, 5343, Note_on_c, 7, 50, 89
1, 5344, Note_on_c, 5, 47, 0
1, 5345, Note_on_c, 2, 57, 0
1, 5350, Note_on_c, 6, 59, 0
1, 5351, Note_on_c, 7, 59, 0
1, 5432, Note_on_c, 9, 46, 57
1, 5433, Note_on_c, 9, 46, 0
1, 5433, Note_on_c, 9, 70, 81
1, 5434, Note_on_c, 9, 70, 0
1, 5477, Note_on_c, 3, 57, 0
1, 5482, Note_on_c, 9, 70, 81
1, 5483, Note_on_c, 9, 70, 0
1, 5491, Note_on_c, 4, 81, 0
1, 5525, Note_on_c, 3, 67, 104
1, 5525, Note_on_c, 6, 62, 0
1, 5526, Note_on_c, 5, 50, 0
1, 5527, Note_on_c, 5, 38, 110
1, 5529, Note_on_c, 6, 67, 89
1, 5529, Note_on_c, 9, 38, 97
1, 5529, Note_on_c, 9, 42, 113
1, 5529, Note_on_c, 9, 70, 81
1, 5530, Note_on_c, 9, 70, 0
1, 5530, Note_on_c, 9, 42, 0
1, 5530, Note_on_c, 9, 38, 0
1, 5571, Note_on_c, 3, 66, 104
1, 5575, Note_on_c, 3, 67, 0
1, 5576, Note_on_c, 0, 38, 0
1, 5576, Note_on_c, 0, 33, 105
1, 5576, Note_on_c, 6, 66, 77
1, 5587, Note_on_c, 6, 67, 0
1, 5618, Note_on_c, 3, 64, 87
1, 5619, Note_on_c, 3, 66, 0
1, 5622, Note_on_c, 6, 64, 66
1, 5624, Note_on_c, 0, 38, 99
1, 5625, Note_on_c, 9, 42, 73
1, 5626, Note_on_c, 9, 42, 0
1, 5631, Note_on_c, 6, 66, 0
1, 5633, Note_on_c, 0, 33, 0
1, 5665, Note_on_c, 3, 62, 85
1, 5671, Note_on_c, 6, 62, 77
1, 5674, Note_on_c, 3, 64, 0
1, 5674, Note_on_c, 6, 64, 0
1, 5699, Note_on_c, 1, 55, 0
1, 5699, Note_on_c, 5, 62, 0
1, 5703, Note_on_c, 1, 62, 0
1, 5706, Note_on_c, 2, 55, 0
1, 5707, Note_on_c, 1, 60, 0
1, 5709, Note_on_c, 1, 50, 0
1, 5711, Note_on_c, 5, 57, 0
1, 5713, Note_on_c, 2, 64, 64
1, 5714, Note_on_c, 2, 59, 66
1, 5714, Note_on_c, 5, 38, 0
1, 5715, Note_on_c, 2, 55, 89
1, 5716, Note_on_c, 3, 59, 93
1, 5720, Note_on_c, 0, 36, 110
1, 5720, Note_on_c, 1, 64, 84
1, 5720, Note_on_c, 1, 59, 102
1, 5720, Note_on_c, 1, 55, 79
1, 5720, Note_on_c, 1, 36, 79
1, 5720, Note_on_c, 4, 88, 64
1, 5720, Note_on_c, 5, 59, 81
1, 5720, Note_on_c, 5, 64, 89
1, 5720, Note_on_c, 5, 36, 77
1, 5720, Note_on_c, 6, 64, 89
1, 5720, Note_on_c, 7, 50, 0
1, 5720, Note_on_c, 7, 57, 0
1, 5720, Note_on_c, 7, 59, 66
1, 5720, Note_on_c, 7, 52, 77
1, 5721, Note_on_c, 3, 62, 0
1, 5722, Note_on_c, 2, 62, 0
1, 5722, Note_on_c, 9, 36, 121
1, 5722, Note_on_c, 9, 42, 113
1, 5722, Note_on_c, 9, 49, 82
1, 5723, Note_on_c, 0, 38, 0
1, 5723, Note_on_c, 9, 49, 0
1, 5723, Note_on_c, 9, 42, 0
1, 5723, Note_on_c, 9, 36, 0
1, 5727, Note_on_c, 6, 62, 0
1, 5803, Note_on_c, 4, 88, 0
1, 5817, Note_on_c, 9, 42, 73
1, 5817, Note_on_c, 9, 70, 81
1, 5818, Note_on_c, 9, 70, 0
1, 5818, Note_on_c, 9, 42, 0
1, 5864, Note_on_c, 5, 48, 64
1, 5865, Note_on_c, 9, 70, 81
1, 5866, Note_on_c, 9, 70, 0
1, 5883, Note_on_c, 1, 64, 0
1, 5884, Note_on_c, 1, 59, 0
1, 5886, Note_on_c, 5, 36, 0
1, 5905, Note_on_c, 5, 48, 0
1, 5906, Note_on_c, 2, 54, 72
1, 5907, Note_on_c, 2, 57, 79
1, 5908, Note_on_c, 2, 62, 58
1, 5909, Note_on_c, 1, 38, 66
1, 5909, Note_on_c, 3, 57, 90
1, 5910, Note_on_c, 1, 62, 72
1, 5910, Note_on_c, 1, 57, 74
1, 5910, Note_on_c, 6, 62, 66
1, 5911, Note_on_c, 1, 55, 0
1, 5911, Note_on_c, 1, 54, 72
1, 5911, Note_on_c, 7, 50, 58
1, 5912, Note_on_c, 0, 38, 110
1, 5912, Note_on_c, 5, 38, 89
1, 5913, Note_on_c, 9, 38, 97
1, 5913, Note_on_c, 9, 42, 113
1, 5913, Note_on_c, 9, 70, 81
1, 5914, Note_on_c, 2, 55, 0
1, 5914, Note_on_c, 3, 59, 0
1, 5914, Note_on_c, 4, 86, 61
1, 5914, Note_on_c, 7, 57, 64
1, 5914, Note_on_c, 9, 70, 0
1, 5914, Note_on_c, 9, 42, 0
1, 5914, Note_on_c, 9, 38, 0
1, 5915, Note_on_c, 7, 52, 0
1, 5916, Note_on_c, 6, 64, 0
1, 5918, Note_on_c, 1, 36, 0
1, 5918, Note_on_c, 2, 59, 0
1, 5919, Note_on_c, 0, 36, 0
1, 5920, Note_on_c, 2, 64, 0
1, 5922, Note_on_c, 5, 59, 0
1, 5923, Note_on_c, 5, 64, 0
1, 5923, Note_on_c, 7, 59, 0
1, 5960, Note_on_c, 5, 57, 69
1, 5960, Note_on_c, 5, 62, 77
1, 5989, Note_on_c, 4, 86, 0
1, 6008, Note_on_c, 0, 26, 110
1, 6009, Note_on_c, 4, 88, 64
1, 6009, Note_on_c, 9, 36, 81
1, 6009, Note_on_c, 9, 42, 73
1, 6010, Note_on_c, 9, 42, 0
1, 6010, Note_on_c, 9, 36, 0
1, 6021, Note_on_c, 0, 38, 0
1, 6054, Note_on_c, 5, 50, 81
1, 6082, Note_on_c, 5, 38, 0
1, 6084, Note_on_c, 1, 62, 0
1, 6087, Note_on_c, 1, 54, 0
1, 6088, Note_on_c, 1, 57, 0
1, 6097, Note_on_c, 4, 88, 0
1, 6098, Note_on_c, 2, 59, 51
1, 6099, Note_on_c, 2, 64, 72
1, 6100, Note_on_c, 2, 55, 84
1, 6100, Note_on_c, 3, 59, 100
1, 6101, Note_on_c, 4, 83, 66
1, 6101, Note_on_c, 5, 50, 0
1, 6101, Note_on_c, 6, 64, 84
1, 6102, Note_on_c, 5, 62, 0
1, 6102, Note_on_c, 7, 59, 58
1, 6103, Note_on_c, 5, 64, 66
1, 6103, Note_on_c, 5, 59, 77
1, 6103, Note_on_c, 5, 40, 102
1, 6104, Note_on_c, 0, 40, 102
1, 6104, Note_on_c, 1, 40, 64
1, 6104, Note_on_c, 1, 55, 72
1, 6104, Note_on_c, 1, 59, 72
1, 6104, Note_on_c, 7, 52, 66
1, 6104, Note_on_c, 9, 36, 121
1, 6104, Note_on_c, 9, 42, 113
1, 6105, Note_on_c, 1, 64, 84
1, 6105, Note_on_c, 9, 42, 0
1, 6105, Note_on_c, 9, 36, 0
1, 6107, Note_on_c, 2, 57, 0
1, 6108, Note_on_c, 2, 54, 0
1, 6108, Note_on_c, 5, 57, 0
1, 6109, Note_on_c, 2, 62, 0
1, 6110, Note_on_c, 3, 57, 0
1, 6110, Note_on_c, 6, 62, 0
1, 6112, Note_on_c, 1, 38, 0
1, 6112, Note_on_c, 7, 50, 0
1, 6112, Note_on_c, 7, 57, 0
1, 6118, Note_on_c, 0, 26, 0
1, 6201, Note_on_c, 9, 46, 57
1, 6201, Note_on_c, 9, 70, 81
1, 6202, Note_on_c, 9, 70, 0
1, 6202, Note_on_c, 9, 46, 0
1, 6219, Note_on_c, 5, 40, 0
1, 6247, Note_on_c, 5, 40, 72
1, 6249, Note_on_c, 9, 70, 81
1, 6250, Note_on_c, 9, 70, 0
1, 6259, Note_on_c, 3, 59, 0
1, 6278, Note_on_c, 0, 40, 0
1, 6289, Note_on_c, 3, 67, 104
1, 6292, Note_on_c, 6, 67, 84
1, 6296, Note_on_c, 0, 40, 110
1, 6296, Note_on_c, 5, 52, 84
1, 6296, Note_on_c, 6, 64, 0
1, 6297, Note_on_c, 9, 38, 97
1, 6297, Note_on_c, 9, 42, 113
1, 6297, Note_on_c, 9, 70, 81
1, 6298, Note_on_c, 9, 70, 0
1, 6298, Note_on_c, 9, 42, 0
1, 6298, Note_on_c, 9, 38, 0
1, 6301, Note_on_c, 4, 83, 0
1, 6301, Note_on_c, 5, 64, 0
1, 6305, Note_on_c, 5, 59, 0
1, 6338, Note_on_c, 3, 66, 98
1, 6339, Note_on_c, 3, 67, 0
1, 6341, Note_on_c, 6, 66, 89
1, 6343, Note_on_c, 0, 40, 0
1, 6343, Note_on_c, 5, 59, 79
1, 6343, Note_on_c, 5, 64, 69
1, 6344, Note_on_c, 0, 35, 84
1, 6349, Note_on_c, 6, 67, 0
1, 6369, Note_on_c, 5, 52, 0
1, 6384, Note_on_c, 3, 66, 0
1, 6384, Note_on_c, 3, 64, 87
1, 6389, Note_on_c, 6, 64, 72
1, 6392, Note_on_c, 0, 40, 110
1, 6393, Note_on_c, 9, 42, 73
1, 6394, Note_on_c, 9, 42, 0
1, 6396, Note_on_c, 0, 35, 0
1, 6399, Note_on_c, 6, 66, 0
1, 6427, Note_on_c, 5, 40, 0
1, 6432, Note_on_c, 3, 62, 91
1, 6434, Note_on_c, 6, 62, 64
1, 6439, Note_on_c, 5, 40, 84
1, 6440, Note_on_c, 0, 38, 89
1, 6442, Note_on_c, 3, 64, 0
1, 6443, Note_on_c, 6, 64, 0
1, 6444, Note_on_c, 0, 40, 0
1, 6457, Note_on_c, 1, 64, 0
1, 6462, Note_on_c, 5, 64, 0
1, 6463, Note_on_c, 1, 55, 0
1, 6465, Note_on_c, 1, 59, 0
1, 6465, Note_on_c, 2, 59, 0
1, 6465, Note_on_c, 2, 64, 0
1, 6466, Note_on_c, 2, 55, 0
1, 6469, Note_on_c, 5, 59, 0
1, 6473, Note_on_c, 7, 59, 0
1, 6476, Note_on_c, 7, 52, 0
1, 6478, Note_on_c, 2, 64, 55
1, 6478, Note_on_c, 2, 59, 58
1, 6480, Note_on_c, 2, 55, 66
1, 6482, Note_on_c, 5, 40, 0
1, 6483, Note_on_c, 3, 59, 100
1, 6484, Note_on_c, 1, 40, 0
1, 6485, Note_on_c, 6, 64, 79
1, 6486, Note_on_c, 1, 55, 72
1, 6486, Note_on_c, 1, 59, 77
1, 6486, Note_on_c, 1, 64, 93
1, 6486, Note_on_c, 4, 88, 69
1, 6487, Note_on_c, 1, 36, 69
1, 6487, Note_on_c, 5, 36, 81
1, 6487, Note_on_c, 5, 59, 79
1, 6487, Note_on_c, 5, 64, 72
1, 6487, Note_on_c, 7, 59, 69
1, 6488, Note_on_c, 0, 36, 99
1, 6488, Note_on_c, 7, 52, 66
1, 6489, Note_on_c, 3, 62, 0
1, 6489, Note_on_c, 9, 36, 121
1, 6489, Note_on_c, 9, 42, 113
1, 6490, Note_on_c, 6, 62, 0
1, 6490, Note_on_c, 9, 42, 0
1, 6490, Note_on_c, 9, 36, 0
1, 6496, Note_on_c, 0, 38, 0
1, 6585, Note_on_c, 9, 42, 73
1, 6585, Note_on_c, 9, 70, 81
1, 6586, Note_on_c, 9, 70, 0
1, 6586, Note_on_c, 9, 42, 0
1, 6628, Note_on_c, 4, 88, 0
1, 6630, Note_on_c, 5, 48, 84
1, 6632, Note_on_c, 5, 36, 0
1, 6633, Note_on_c, 9, 70, 81
1, 6634, Note_on_c, 9, 70, 0
1, 6649, Note_on_c, 1, 64, 0
1, 6656, Note_on_c, 1, 59, 0
1, 6671, Note_on_c, 5, 48, 0
1, 6673, Note_on_c, 3, 57, 97
1, 6674, Note_on_c, 1, 55, 0
1, 6675, Note_on_c, 1, 38, 74
1, 6675, Note_on_c, 2, 62, 69
1, 6676, Note_on_c, 1, 57, 84
1, 6676, Note_on_c, 1, 62, 96
1, 6676, Note_on_c, 2, 54, 58
1, 6676, Note_on_c, 3, 59, 0
1, 6676, Note_on_c, 4, 86, 55
1, 6676, Note_on_c, 7, 57, 69
1, 6677, Note_on_c, 1, 54, 89
1, 6677, Note_on_c, 2, 57, 69
1, 6677, Note_on_c, 6, 62, 74
1, 6677, Note_on_c, 7, 50, 64
1, 6679, Note_on_c, 5, 38, 79
1, 6680, Note_on_c, 0, 38, 110
1, 6680, Note_on_c, 1, 36, 0
1, 6680, Note_on_c, 5, 64, 0
1, 6681, Note_on_c, 7, 52, 0
1, 6681, Note_on_c, 9, 38, 97
1, 6681, Note_on_c, 9, 42, 113
1, 6681, Note_on_c, 9, 70, 81
1, 6682, Note_on_c, 9, 70, 0
1, 6682, Note_on_c, 9, 42, 0
1, 6682, Note_on_c, 9, 38, 0
1, 6683, Note_on_c, 2, 55, 0
1, 6684, Note_on_c, 0, 36, 0
1, 6684, Note_on_c, 5, 59, 0
1, 6685, Note_on_c, 6, 64, 0
1, 6686, Note_on_c, 2, 59, 0
1, 6686, Note_on_c, 7, 59, 0
1, 6687, Note_on_c, 2, 64, 0
1, 6728, Note_on_c, 5, 62, 74
1, 6728, Note_on_c, 5, 57, 84
1, 6728, Note_on_c, 5, 50, 89
1, 6766, Note_on_c, 4, 86, 0
1, 6773, Note_on_c, 4, 88, 61
1, 6777, Note_on_c, 9, 36, 81
1, 6777, Note_on_c, 9, 42, 73
1, 6778, Note_on_c, 9, 42, 0
1, 6778, Note_on_c, 9, 36, 0
1, 6805, Note_on_c, 5, 50, 0
1, 6823, Note_on_c, 5, 50, 89
1, 6857, Note_on_c, 1, 62, 0
1, 6860, Note_on_c, 1, 54, 0
1, 6860, Note_on_c, 1, 57, 0
1, 6863, Note_on_c, 5, 38, 0
1, 6867, Note_on_c, 7, 59, 61
1, 6869, Note_on_c, 6, 64, 74
1, 6869, Note_on_c, 7, 52, 66
1, 6871, Note_on_c, 2, 55, 64
1, 6871, Note_on_c, 3, 59, 97
1, 6871, Note_on_c, 5, 64, 77
1, 6871, Note_on_c, 5, 59, 79
1, 6872, Note_on_c, 0, 40, 110
1, 6872, Note_on_c, 2, 64, 74
1, 6872, Note_on_c, 5, 62, 0
1, 6872, Note_on_c, 5, 40, 96
1, 6873, Note_on_c, 2, 59, 69
1, 6873, Note_on_c, 9, 36, 121
1, 6873, Note_on_c, 9, 42, 113
1, 6874, Note_on_c, 1, 40, 74
1, 6874, Note_on_c, 4, 83, 55
1, 6874, Note_on_c, 9, 42, 0
1, 6874, Note_on_c, 9, 36, 0
1, 6875, Note_on_c, 5, 50, 0
1, 6876, Note_on_c, 0, 38, 0
1, 6876, Note_on_c, 1, 59, 72
1, 6876, Note_on_c, 1, 55, 74
1, 6876, Note_on_c, 2, 54, 0
1, 6878, Note_on_c, 1, 64, 86
1, 6879, Note_on_c, 2, 57, 0
1, 6879, Note_on_c, 4, 88, 0
1, 6879, Note_on_c, 7, 57, 0
1, 6879, Note_on_c, 7, 50, 0
1, 6881, Note_on_c, 2, 62, 0
1, 6881, Note_on_c, 5, 57, 0
1, 6882, Note_on_c, 3, 57, 0
1, 6882, Note_on_c, 6, 62, 0
1, 6883, Note_on_c, 1, 38, 0
1, 6969, Note_on_c, 9, 46, 57
1, 6969, Note_on_c, 9, 70, 81
1, 6970, Note_on_c, 9, 70, 0
1, 6970, Note_on_c, 9, 46, 0
1, 6993, Note_on_c, 5, 40, 0
1, 7015, Note_on_c, 5, 40, 84
1, 7017, Note_on_c, 9, 70, 81
1, 7018, Note_on_c, 9, 70, 0
1, 7023, Note_on_c, 4, 83, 0
1, 7049, Note_on_c, 3, 59, 0
1, 7060, Note_on_c, 6, 64, 0
1, 7060, Note_on_c, 6, 67, 69
1, 7061, Note_on_c, 3, 67, 104
1, 7064, Note_on_c, 5, 52, 74
1, 7065, Note_on_c, 9, 38, 97
1, 7065, Note_on_c, 9, 42, 113
1, 7065, Note_on_c, 9, 70, 81
1, 7066, Note_on_c, 9, 70, 0
1, 7066, Note_on_c, 9, 42, 0
1, 7066, Note_on_c, 9, 38, 0
1, 7108, Note_on_c, 3, 66, 103
1, 7108, Note_on_c, 6, 66, 77
1, 7112, Note_on_c, 0, 35, 96
1, 7113, Note_on_c, 3, 67, 0
1, 7117, Note_on_c, 6, 67, 0
1, 7118, Note_on_c, 0, 40, 0
1, 7135, Note_on_c, 5, 52, 0
1, 7153, Note_on_c, 3, 66, 0
1, 7154, Note_on_c, 3, 64, 97
1, 7156, Note_on_c, 6, 64, 74
1, 7160, Note_on_c, 0, 40, 110
1, 7161, Note_on_c, 9, 42, 73
1, 7162, Note_on_c, 0, 35, 0
1, 7162, Note_on_c, 9, 42, 0
1, 7166, Note_on_c, 6, 66, 0
1, 7183, Note_on_c, 5, 40, 0
1, 7201, Note_on_c, 3, 62, 97
1, 7205, Note_on_c, 6, 62, 66
1, 7206, Note_on_c, 5, 40, 74
1, 7208, Note_on_c, 0, 38, 96
1, 7212, Note_on_c, 0, 40, 0
1, 7212, Note_on_c, 3, 64, 0
1, 7213, Note_on_c, 6, 64, 0
1, 7222, Note_on_c, 1, 64, 0
1, 7222, Note_on_c, 5, 64, 0
1, 7229, Note_on_c, 1, 59, 0
1, 7230, Note_on_c, 1, 55, 0
1, 7231, Note_on_c, 5, 59, 0
1, 7234, Note_on_c, 2, 59, 0
1, 7236, Note_on_c, 2, 64, 0
1, 7238, Note_on_c, 7, 59, 0
1, 7239, Note_on_c, 2, 55, 0
1, 7243, Note_on_c, 7, 52, 0
1, 7250, Note_on_c, 2, 59, 66
1, 7250, Note_on_c, 2, 64, 72
1, 7251, Note_on_c, 2, 55, 66
1, 7251, Note_on_c, 5, 40, 0
1, 7252, Note_on_c, 1, 59, 79
1, 7252, Note_on_c, 1, 55, 84
1, 7252, Note_on_c, 1, 64, 102
1, 7252, Note_on_c, 1, 36, 72
1, 7252, Note_on_c, 3, 59, 87
1, 7252, Note_on_c, 6, 64, 79
1, 7255, Note_on_c, 4, 88, 55
1, 7255, Note_on_c, 5, 36, 84
1, 7255, Note_on_c, 5, 59, 77
1, 7255, Note_on_c, 5, 64, 84
1, 7255, Note_on_c, 7, 59, 79
1, 7255, Note_on_c, 7, 52, 64
1, 7256, Note_on_c, 0, 36, 93
1, 7257, Note_on_c, 1, 40, 0
1, 7257, Note_on_c, 9, 36, 121
1, 7257, Note_on_c, 9, 42, 113
1, 7258, Note_on_c, 3, 62, 0
1, 7258, Note_on_c, 9, 42, 0
1, 7258, Note_on_c, 9, 36, 0
1, 7264, Note_on_c, 6, 62, 0
1, 7267, Note_on_c, 0, 38, 0
1, 7353, Note_on_c, 9, 42, 73
1, 7353, Note_on_c, 9, 70, 81
1, 7354, Note_on_c, 9, 70, 0
1, 7354, Note_on_c, 9, 42, 0
1, 7398, Note_on_c, 5, 48, 61
1, 7401, Note_on_c, 9, 70, 81
1, 7402, Note_on_c, 9, 70, 0
1, 7410, Note_on_c, 5, 36, 0
1, 7414, Note_on_c, 1, 64, 0
1, 7420, Note_on_c, 4, 88, 0
1, 7425, Note_on_c, 1, 59, 0
1, 7439, Note_on_c, 2, 54, 55
1, 7439, Note_on_c, 2, 62, 84
1, 7440, Note_on_c, 7, 50, 64
1, 7441, Note_on_c, 2, 57, 58
1, 7441, Note_on_c, 3, 57, 100
1, 7441, Note_on_c, 7, 57, 64
1, 7442, Note_on_c, 3, 59, 0
1, 7443, Note_on_c, 1, 38, 79
1, 7443, Note_on_c, 5, 48, 0
1, 7443, Note_on_c, 7, 52, 0
1, 7444, Note_on_c, 6, 62, 74
1, 7445, Note_on_c, 1, 57, 79
1, 7445, Note_on_c, 4, 86, 61
1, 7445, Note_on_c, 5, 59, 0
1, 7446, Note_on_c, 1, 55, 0
1, 7446, Note_on_c, 1, 54, 96
1, 7446, Note_on_c, 1, 62, 66
1, 7447, Note_on_c, 5, 62, 89
1, 7447, Note_on_c, 5, 38, 84
1, 7447, Note_on_c, 5, 57, 86
1, 7448, Note_on_c, 0, 38, 110
1, 7448, Note_on_c, 2, 55, 0
1, 7449, Note_on_c, 1, 36, 0
1, 7449, Note_on_c, 7, 59, 0
1, 7450, Note_on_c, 6, 64, 0
1, 7450, Note_on_c, 9, 38, 97
1, 7450, Note_on_c, 9, 42, 113
1, 7450, Note_on_c, 9, 70, 81
1, 7451, Note_on_c, 0, 36, 0
1, 7451, Note_on_c, 2, 59, 0
1, 7451, Note_on_c, 2, 64, 0
1, 7451, Note_on_c, 9, 70, 0
1, 7451, Note_on_c, 9, 42, 0
1, 7451, Note_on_c, 9, 38, 0
1, 7453, Note_on_c, 5, 64, 0
1, 7495, Note_on_c, 5, 50, 84
1, 7528, Note_on_c, 4, 86, 0
1, 7541, Note_on_c, 4, 88, 61
1, 7545, Note_on_c, 9, 36, 81
1, 7545, Note_on_c, 9, 42, 73
1, 7546, Note_on_c, 9, 42, 0
1, 7546, Note_on_c, 9, 36, 0
1, 7578, Note_on_c, 5, 50, 0
1, 7592, Note_on_c, 5, 50, 79
1, 7605, Note_on_c, 5, 38, 0
1, 7616, Note_on_c, 1, 62, 0
1, 7619, Note_on_c, 1, 57, 0
1, 7620, Note_on_c, 1, 54, 0
1, 7632, Note_on_c, 2, 55, 66
1, 7632, Note_on_c, 2, 64, 58
1, 7633, Note_on_c, 2, 59, 74
1, 7635, Note_on_c, 7, 59, 58
1, 7636, Note_on_c, 5, 50, 0
1, 7636, Note_on_c, 7, 52, 74
1, 7637, Note_on_c, 2, 57, 0
1, 7638, Note_on_c, 1, 59, 66
1, 7638, Note_on_c, 1, 40, 69
1, 7638, Note_on_c, 1, 55, 66
1, 7638, Note_on_c, 1, 64, 99
1, 7638, Note_on_c, 3, 59, 84
1, 7638, Note_on_c, 4, 88, 0
1, 7639, Note_on_c, 2, 54, 0
1, 7639, Note_on_c, 5, 64, 77
1, 7639, Note_on_c, 5, 59, 102
1, 7640, Note_on_c, 0, 40, 110
1, 7640, Note_on_c, 4, 83, 64
1, 7640, Note_on_c, 5, 62, 0
1, 7640, Note_on_c, 5, 40, 79
1, 7641, Note_on_c, 6, 64, 74
1, 7641, Note_on_c, 9, 36, 121
1, 7642, Note_on_c, 9, 36, 0
1, 7642, Note_on_c, 9, 42, 113
1, 7643, Note_on_c, 0, 38, 0
1, 7643, Note_on_c, 2, 62, 0
1, 7643, Note_on_c, 9, 42, 0
1, 7644, Note_on_c, 7, 50, 0
1, 7644, Note_on_c, 7, 57, 0
1, 7646, Note_on_c, 3, 57, 0
1, 7647, Note_on_c, 1, 38, 0
1, 7648, Note_on_c, 5, 57, 0
1, 7651, Note_on_c, 6, 62, 0
1, 7737, Note_on_c, 9, 46, 57
1, 7738, Note_on_c, 9, 46, 0
1, 7738, Note_on_c, 9, 70, 81
1, 7739, Note_on_c, 9, 70, 0
1, 7783, Note_on_c, 5, 52, 96
1, 7785, Note_on_c, 9, 70, 81
1, 7786, Note_on_c, 9, 70, 0
1, 7789, Note_on_c, 5, 59, 0
1, 7795, Note_on_c, 5, 64, 0
1, 7804, Note_on_c, 1, 64, 0
1, 7814, Note_on_c, 1, 59, 0
1, 7816, Note_on_c, 4, 83, 0
1, 7816, Note_on_c, 7, 59, 0
1, 7822, Note_on_c, 6, 64, 0
1, 7823, Note_on_c, 1, 55, 0
1, 7826, Note_on_c, 2, 56, 72
1, 7829, Note_on_c, 7, 56, 61
1, 7830, Note_on_c, 1, 44, 66
1, 7830, Note_on_c, 7, 59, 74
1, 7831, Note_on_c, 1, 59, 77
1, 7831, Note_on_c, 1, 56, 89
1, 7832, Note_on_c, 0, 44, 110
1, 7832, Note_on_c, 1, 64, 84
1, 7832, Note_on_c, 5, 52, 0
1, 7832, Note_on_c, 5, 44, 77
1, 7832, Note_on_c, 5, 56, 77
1, 7832, Note_on_c, 5, 64, 96
1, 7833, Note_on_c, 7, 52, 0
1, 7833, Note_on_c, 9, 38, 97
1, 7833, Note_on_c, 9, 42, 113
1, 7833, Note_on_c, 9, 70, 81
1, 7834, Note_on_c, 1, 40, 0
1, 7834, Note_on_c, 4, 88, 66
1, 7834, Note_on_c, 5, 40, 0
1, 7834, Note_on_c, 6, 64, 79
1, 7834, Note_on_c, 9, 70, 0
1, 7834, Note_on_c, 9, 42, 0
1, 7834, Note_on_c, 9, 38, 0
1, 7837, Note_on_c, 2, 55, 0
1, 7840, Note_on_c, 0, 40, 0
1, 7892, Note_on_c, 3, 59, 0
1, 7923, Note_on_c, 3, 57, 104
1, 7929, Note_on_c, 9, 42, 73
1, 7930, Note_on_c, 9, 42, 0
1, 7963, Note_on_c, 5, 44, 0
1, 7972, Note_on_c, 3, 59, 90
1, 7973, Note_on_c, 4, 88, 0
1, 7976, Note_on_c, 5, 44, 81
1, 7978, Note_on_c, 3, 57, 0
1, 8002, Note_on_c, 1, 64, 0
1, 8003, Note_on_c, 5, 64, 0
1, 8009, Note_on_c, 5, 56, 0
1, 8013, Note_on_c, 1, 56, 0
1, 8014, Note_on_c, 1, 59, 0
1, 8018, Note_on_c, 2, 60, 64
1, 8018, Note_on_c, 2, 57, 66
1, 8020, Note_on_c, 3, 60, 97
1, 8021, Note_on_c, 6, 60, 96
1, 8021, Note_on_c, 7, 57, 64
1, 8022, Note_on_c, 3, 59, 0
1, 8022, Note_on_c, 7, 60, 66
1, 8023, Note_on_c, 5, 44, 0
1, 8023, Note_on_c, 7, 56, 0
1, 8024, Note_on_c, 0, 45, 110
1, 8024, Note_on_c, 5, 60, 89
1, 8024, Note_on_c, 5, 64, 86
1, 8024, Note_on_c, 5, 45, 96
1, 8025, Note_on_c, 2, 56, 0
1, 8025, Note_on_c, 4, 84, 76
1, 8025, Note_on_c, 7, 59, 0
1, 8025, Note_on_c, 9, 36, 121
1, 8025, Note_on_c, 9, 42, 113
1, 8026, Note_on_c, 1, 45, 61
1, 8026, Note_on_c, 1, 60, 55
1, 8026, Note_on_c, 1, 55, 84
1, 8026, Note_on_c, 1, 64, 89
1, 8026, Note_on_c, 2, 59, 0
1, 8026, Note_on_c, 6, 64, 0
1, 8026, Note_on_c, 9, 42, 0
1, 8026, Note_on_c, 9, 36, 0
1, 8033, Note_on_c, 0, 44, 0
1, 8035, Note_on_c, 1, 44, 0
1, 8114, Note_on_c, 3, 60, 0
1, 8114, Note_on_c, 3, 62, 97
1, 8121, Note_on_c, 9, 42, 73
1, 8121, Note_on_c, 9, 70, 81
1, 8122, Note_on_c, 9, 70, 0
1, 8122, Note_on_c, 9, 42, 0
1, 8167, Note_on_c, 4, 84, 0
1, 8168, Note_on_c, 3, 60, 95
1, 8169, Note_on_c, 9, 70, 81
1, 8170, Note_on_c, 9, 70, 0
1, 8176, Note_on_c, 3, 62, 0
1, 8181, Note_on_c, 1, 60, 0
1, 8187, Note_on_c, 1, 55, 0
1, 8202, Note_on_c, 1, 64, 0
1, 8211, Note_on_c, 1, 62, 66
1, 8211, Note_on_c, 1, 60, 72
1, 8212, Note_on_c, 1, 55, 79
1, 8212, Note_on_c, 7, 59, 74
1, 8213, Note_on_c, 6, 59, 89
1, 8214, Note_on_c, 4, 83, 69
1, 8214, Note_on_c, 7, 57, 0
1, 8215, Note_on_c, 1, 47, 66
1, 8215, Note_on_c, 2, 62, 74
1, 8215, Note_on_c, 5, 62, 72
1, 8215, Note_on_c, 7, 55, 66
1, 8216, Note_on_c, 0, 35, 110
1, 8216, Note_on_c, 5, 59, 110
1, 8216, Note_on_c, 5, 47, 66
1, 8217, Note_on_c, 9, 38, 97
1, 8217, Note_on_c, 9, 42, 113
1, 8217, Note_on_c, 9, 70, 81
1, 8218, Note_on_c, 1, 45, 0
1, 8218, Note_on_c, 9, 70, 0
1, 8218, Note_on_c, 9, 42, 0
1, 8218, Note_on_c, 9, 38, 0
1, 8220, Note_on_c, 7, 60, 0
1, 8221, Note_on_c, 6, 60, 0
1, 8222, Note_on_c, 2, 60, 0
1, 8223, Note_on_c, 0, 45, 0
1, 8224, Note_on_c, 5, 64, 0
1, 8225, Note_on_c, 5, 60, 0
1, 8226, Note_on_c, 5, 45, 0
1, 8310, Note_on_c, 3, 59, 87
1, 8313, Note_on_c, 9, 36, 81
1, 8313, Note_on_c, 9, 42, 73
1, 8314, Note_on_c, 9, 42, 0
1, 8314, Note_on_c, 9, 36, 0
1, 8317, Note_on_c, 3, 60, 0
1, 8345, Note_on_c, 4, 83, 0
1, 8359, Note_on_c, 3, 57, 100
1, 8365, Note_on_c, 3, 59, 0
1, 8387, Note_on_c, 1, 55, 0
1, 8387, Note_on_c, 1, 62, 0
1, 8387, Note_on_c, 5, 62, 0
1, 8391, Note_on_c, 1, 60, 0
1, 8400, Note_on_c, 2, 60, 66
1, 8401, Note_on_c, 2, 55, 66
1, 8403, Note_on_c, 0, 35, 0
1, 8405, Note_on_c, 1, 50, 58
1, 8405, Note_on_c, 2, 64, 0
1, 8405, Note_on_c, 4, 81, 58
1, 8406, Note_on_c, 1, 55, 69
1, 8407, Note_on_c, 1, 60, 69
1, 8407, Note_on_c, 1, 62, 79
1, 8407, Note_on_c, 5, 62, 84
1, 8407, Note_on_c, 5, 57, 74
1, 8407, Note_on_c, 5, 50, 77
1, 8408, Note_on_c, 0, 38, 110
1, 8408, Note_on_c, 9, 36, 121
1, 8408, Note_on_c, 9, 42, 113
1, 8409, Note_on_c, 1, 47, 0
1, 8409, Note_on_c, 9, 42, 0
1, 8409, Note_on_c, 9, 36, 0
1, 8410, Note_on_c, 2, 57, 0
1, 8410, Note_on_c, 6, 62, 69
1, 8412, Note_on_c, 5, 59, 0
1, 8412, Note_on_c, 5, 47, 0
1, 8413, Note_on_c, 7, 57, 72
1, 8414, Note_on_c, 7, 55, 0
1, 8415, Note_on_c, 7, 50, 89
1, 8423, Note_on_c, 7, 59, 0
1, 8431, Note_on_c, 6, 59, 0
1, 8505, Note_on_c, 9, 46, 57
1, 8505, Note_on_c, 9, 70, 81
1, 8506, Note_on_c, 9, 70, 0
1, 8506, Note_on_c, 9, 46, 0
1, 8553, Note_on_c, 9, 70, 81
1, 8554, Note_on_c, 9, 70, 0
1, 8563, Note_on_c, 4, 81, 0
1, 8599, Note_on_c, 5, 38, 81
1, 8601, Note_on_c, 9, 38, 97
1, 8601, Note_on_c, 9, 42, 113
1, 8601, Note_on_c, 9, 70, 81
1, 8602, Note_on_c, 9, 70, 0
1, 8602, Note_on_c, 9, 42, 0
1, 8602, Note_on_c, 9, 38, 0
1, 8624, Note_on_c, 5, 50, 0
1, 8624, Note_on_c, 3, 57, 0
1, 8624, Note_on_c, 0, 38, 0
1, 8624, Note_on_c, 1, 60, 0
1, 8624, Note_on_c, 1, 50, 0
1, 8624, Note_on_c, 1, 55, 0
1, 8624, Note_on_c, 1, 62, 0
1, 8624, Note_on_c, 2, 60, 0
1, 8624, Note_on_c, 2, 62, 0
1, 8624, Note_on_c, 2, 55, 0
1, 8624, Note_on_c, 5, 57, 0
1, 8624, Note_on_c, 5, 62, 0
1, 8624, Note_on_c, 5, 38, 0
1, 8624, Note_on_c, 6, 62, 0
1, 8624, Note_on_c, 7, 50, 0
1, 8624, Note_on_c, 7, 57, 0
1, 8624, Note_on_c, 5, 38, 0
1, 8624, Note_on_c, 5, 36, 0
1, 8624, Note_on_c, 0, 36, 0
1, 8624, Note_on_c, 2, 59, 0
1, 8624, Note_on_c, 6, 64, 0
1, 8624, Note_on_c, 2, 55, 0
1, 8624, Note_on_c, 1, 36, 0
1, 8624, Note_on_c, 2, 64, 0
1, 8624, Note_on_c, 5, 64, 0
1, 8624, Note_on_c, 5, 59, 0
1, 8624, Note_on_c, 3, 59, 0
1, 8624, Note_on_c, 7, 59, 0
1, 8624, Note_on_c, 0, 38, 0
1, 8624, Note_on_c, 5, 38, 0
1, 8624, Note_on_c, 5, 62, 0
1, 8624, Note_on_c, 5, 57, 0
1, 8624, Note_on_c, 2, 54, 0
1, 8624, Note_on_c, 2, 62, 0
1, 8624, Note_on_c, 2, 57, 0
1, 8624, Note_on_c, 3, 57, 0
1, 8624, Note_on_c, 1, 38, 0
1, 8624, Note_on_c, 7, 50, 0
1, 8624, Note_on_c, 7, 57, 0
1, 8624, Note_on_c, 6, 62, 0
1, 8624, End_track
0, 0, End_of_file
