0, 0, Header, 1, 5, 120
1, 0, Start_track
1, 0, SMPTE_offset, 96, 0, 3, 0, 0
1, 0, Time_signature, 4, 2, 24, 8
1, 0, Key_signature, 0, "major"
1, 0, Tempo, 491803
1, 0, End_track
2, 0, Start_track
2, 0, MIDI_port, 0
2, 0, Title_t, "GUITAR"
2, 0, Program_c, 0, 27
2, 0, Control_c, 0, 7, 104
2, 0, Control_c, 0, 10, 64
2, 5760, Pitch_bend_c, 0, 8192
2, 5760, Control_c, 0, 1, 0
2, 5760, Control_c, 0, 91, 45
2, 6480, Note_on_c, 0, 45, 123
2, 6480, Note_on_c, 0, 52, 123
2, 6540, Pitch_bend_c, 0, 8442
2, 6542, Pitch_bend_c, 0, 8692
2, 6544, Pitch_bend_c, 0, 9192
2, 6546, Pitch_bend_c, 0, 9692
2, 6548, Pitch_bend_c, 0, 10192
2, 6550, Pitch_bend_c, 0, 10692
2, 6555, Pitch_bend_c, 0, 11192
2, 6560, Pitch_bend_c, 0, 11692
2, 6565, Pitch_bend_c, 0, 12192
2, 6570, Pitch_bend_c, 0, 12692
2, 6589, Note_on_c, 0, 52, 0
2, 6589, Note_on_c, 0, 45, 0
2, 6600, Pitch_bend_c, 0, 8192
2, 6600, Note_on_c, 0, 46, 123
2, 6600, Note_on_c, 0, 53, 123
2, 6709, Note_on_c, 0, 53, 0
2, 6709, Note_on_c, 0, 46, 0
2, 6720, Note_on_c, 0, 48, 123
2, 6720, Note_on_c, 0, 55, 123
2, 7199, Note_on_c, 0, 55, 0
2, 7199, Note_on_c, 0, 48, 0
2, 7440, Note_on_c, 0, 45, 123
2, 7440, Note_on_c, 0, 52, 123
2, 7500, Pitch_bend_c, 0, 8442
2, 7502, Pitch_bend_c, 0, 8692
2, 7504, Pitch_bend_c, 0, 9192
2, 7506, Pitch_bend_c, 0, 9692
2, 7508, Pitch_bend_c, 0, 10192
2, 7510, Pitch_bend_c, 0, 10692
2, 7515, Pitch_bend_c, 0, 11192
2, 7520, Pitch_bend_c, 0, 11692
2, 7525, Pitch_bend_c, 0, 12192
2, 7530, Pitch_bend_c, 0, 12692
2, 7549, Note_on_c, 0, 52, 0
2, 7549, Note_on_c, 0, 45, 0
2, 7560, Pitch_bend_c, 0, 8192
2, 7560, Note_on_c, 0, 46, 123
2, 7560, Note_on_c, 0, 53, 123
2, 7669, Note_on_c, 0, 53, 0
2, 7669, Note_on_c, 0, 46, 0
2, 7680, Note_on_c, 0, 48, 123
2, 7680, Note_on_c, 0, 55, 123
2, 8159, Note_on_c, 0, 55, 0
2, 8159, Note_on_c, 0, 48, 0
2, 8400, Note_on_c, 0, 45, 123
2, 8400, Note_on_c, 0, 52, 123
2, 8460, Pitch_bend_c, 0, 8442
2, 8462, Pitch_bend_c, 0, 8692
2, 8464, Pitch_bend_c, 0, 9192
2, 8466, Pitch_bend_c, 0, 9692
2, 8468, Pitch_bend_c, 0, 10192
2, 8470, Pitch_bend_c, 0, 10692
2, 8475, Pitch_bend_c, 0, 11192
2, 8480, Pitch_bend_c, 0, 11692
2, 8485, Pitch_bend_c, 0, 12192
2, 8490, Pitch_bend_c, 0, 12692
2, 8509, Note_on_c, 0, 52, 0
2, 8509, Note_on_c, 0, 45, 0
2, 8520, Pitch_bend_c, 0, 8192
2, 8520, Note_on_c, 0, 46, 123
2, 8520, Note_on_c, 0, 53, 123
2, 8629, Note_on_c, 0, 53, 0
2, 8629, Note_on_c, 0, 46, 0
2, 8640, Note_on_c, 0, 48, 123
2, 8640, Note_on_c, 0, 55, 123
2, 9119, Note_on_c, 0, 55, 0
2, 9119, Note_on_c, 0, 48, 0
2, 9360, Note_on_c, 0, 45, 123
2, 9360, Note_on_c, 0, 52, 123
2, 9420, Pitch_bend_c, 0, 8442
2, 9422, Pitch_bend_c, 0, 8692
2, 9424, Pitch_bend_c, 0, 9192
2, 9426, Pitch_bend_c, 0, 9692
2, 9428, Pitch_bend_c, 0, 10192
2, 9430, Pitch_bend_c, 0, 10692
2, 9435, Pitch_bend_c, 0, 11192
2, 9440, Pitch_bend_c, 0, 11692
2, 9445, Pitch_bend_c, 0, 12192
2, 9450, Pitch_bend_c, 0, 12692
2, 9469, Note_on_c, 0, 52, 0
2, 9469, Note_on_c, 0, 45, 0
2, 9480, Pitch_bend_c, 0, 8192
2, 9480, Note_on_c, 0, 46, 123
2, 9480, Note_on_c, 0, 53, 123
2, 9589, Note_on_c, 0, 53, 0
2, 9589, Note_on_c, 0, 46, 0
2, 9600, Note_on_c, 0, 48, 123
2, 9600, Note_on_c, 0, 55, 123
2, 10079, Note_on_c, 0, 55, 0
2, 10079, Note_on_c, 0, 48, 0
2, 10320, Control_c, 0, 7, 90
2, 10320, Note_on_c, 0, 57, 123
2, 10320, Note_on_c, 0, 60, 123
2, 10320, Note_on_c, 0, 65, 123
2, 10320, Note_on_c, 0, 69, 123
2, 10409, Note_on_c, 0, 69, 0
2, 10409, Note_on_c, 0, 57, 0
2, 10409, Note_on_c, 0, 60, 0
2, 10409, Note_on_c, 0, 65, 0
2, 10440, Note_on_c, 0, 58, 123
2, 10440, Note_on_c, 0, 62, 123
2, 10440, Note_on_c, 0, 65, 123
2, 10440, Note_on_c, 0, 70, 123
2, 10529, Note_on_c, 0, 70, 0
2, 10529, Note_on_c, 0, 58, 0
2, 10529, Note_on_c, 0, 62, 0
2, 10529, Note_on_c, 0, 65, 0
2, 10560, Note_on_c, 0, 55, 123
2, 10560, Note_on_c, 0, 60, 123
2, 10560, Note_on_c, 0, 64, 123
2, 10560, Note_on_c, 0, 67, 123
2, 10560, Note_on_c, 0, 72, 123
2, 11039, Note_on_c, 0, 72, 0
2, 11039, Note_on_c, 0, 64, 0
2, 11039, Note_on_c, 0, 55, 0
2, 11039, Note_on_c, 0, 60, 0
2, 11039, Note_on_c, 0, 67, 0
2, 11280, Note_on_c, 0, 57, 123
2, 11280, Note_on_c, 0, 60, 123
2, 11280, Note_on_c, 0, 65, 123
2, 11280, Note_on_c, 0, 69, 123
2, 11369, Note_on_c, 0, 69, 0
2, 11369, Note_on_c, 0, 57, 0
2, 11369, Note_on_c, 0, 60, 0
2, 11369, Note_on_c, 0, 65, 0
2, 11400, Note_on_c, 0, 58, 123
2, 11400, Note_on_c, 0, 62, 123
2, 11400, Note_on_c, 0, 65, 123
2, 11400, Note_on_c, 0, 70, 123
2, 11489, Note_on_c, 0, 70, 0
2, 11489, Note_on_c, 0, 58, 0
2, 11489, Note_on_c, 0, 62, 0
2, 11489, Note_on_c, 0, 65, 0
2, 11520, Note_on_c, 0, 55, 123
2, 11520, Note_on_c, 0, 60, 123
2, 11520, Note_on_c, 0, 64, 123
2, 11520, Note_on_c, 0, 67, 123
2, 11520, Note_on_c, 0, 72, 123
2, 11999, Note_on_c, 0, 72, 0
2, 11999, Note_on_c, 0, 64, 0
2, 11999, Note_on_c, 0, 55, 0
2, 11999, Note_on_c, 0, 60, 0
2, 11999, Note_on_c, 0, 67, 0
2, 12240, Note_on_c, 0, 57, 123
2, 12240, Note_on_c, 0, 60, 123
2, 12240, Note_on_c, 0, 65, 123
2, 12240, Note_on_c, 0, 69, 123
2, 12329, Note_on_c, 0, 69, 0
2, 12329, Note_on_c, 0, 57, 0
2, 12329, Note_on_c, 0, 60, 0
2, 12329, Note_on_c, 0, 65, 0
2, 12360, Note_on_c, 0, 58, 123
2, 12360, Note_on_c, 0, 62, 123
2, 12360, Note_on_c, 0, 65, 123
2, 12360, Note_on_c, 0, 70, 123
2, 12449, Note_on_c, 0, 70, 0
2, 12449, Note_on_c, 0, 58, 0
2, 12449, Note_on_c, 0, 62, 0
2, 12449, Note_on_c, 0, 65, 0
2, 12480, Note_on_c, 0, 55, 123
2, 12480, Note_on_c, 0, 60, 123
2, 12480, Note_on_c, 0, 64, 123
2, 12480, Note_on_c, 0, 67, 123
2, 12480, Note_on_c, 0, 72, 123
2, 12959, Note_on_c, 0, 72, 0
2, 12959, Note_on_c, 0, 64, 0
2, 12959, Note_on_c, 0, 55, 0
2, 12959, Note_on_c, 0, 60, 0
2, 12959, Note_on_c, 0, 67, 0
2, 13200, Note_on_c, 0, 57, 123
2, 13200, Note_on_c, 0, 60, 123
2, 13200, Note_on_c, 0, 65, 123
2, 13200, Note_on_c, 0, 69, 123
2, 13289, Note_on_c, 0, 69, 0
2, 13289, Note_on_c, 0, 57, 0
2, 13289, Note_on_c, 0, 60, 0
2, 13289, Note_on_c, 0, 65, 0
2, 13320, Note_on_c, 0, 58, 123
2, 13320, Note_on_c, 0, 62, 123
2, 13320, Note_on_c, 0, 65, 123
2, 13320, Note_on_c, 0, 70, 123
2, 13409, Note_on_c, 0, 70, 0
2, 13409, Note_on_c, 0, 58, 0
2, 13409, Note_on_c, 0, 62, 0
2, 13409, Note_on_c, 0, 65, 0
2, 13440, Note_on_c, 0, 55, 123
2, 13440, Note_on_c, 0, 60, 123
2, 13440, Note_on_c, 0, 64, 123
2, 13440, Note_on_c, 0, 67, 123
2, 13440, Note_on_c, 0, 72, 123
2, 13919, Note_on_c, 0, 72, 0
2, 13919, Note_on_c, 0, 64, 0
2, 13919, Note_on_c, 0, 55, 0
2, 13919, Note_on_c, 0, 60, 0
2, 13919, Note_on_c, 0, 67, 0
2, 14160, Control_c, 0, 7, 95
2, 14160, Note_on_c, 0, 58, 123
2, 14160, Note_on_c, 0, 62, 123
2, 14160, Note_on_c, 0, 65, 123
2, 14160, Note_on_c, 0, 70, 123
2, 14249, Note_on_c, 0, 70, 0
2, 14249, Note_on_c, 0, 58, 0
2, 14249, Note_on_c, 0, 62, 0
2, 14249, Note_on_c, 0, 65, 0
2, 14280, Note_on_c, 0, 57, 123
2, 14280, Note_on_c, 0, 60, 123
2, 14280, Note_on_c, 0, 65, 123
2, 14280, Note_on_c, 0, 69, 123
2, 14369, Note_on_c, 0, 69, 0
2, 14369, Note_on_c, 0, 57, 0
2, 14369, Note_on_c, 0, 60, 0
2, 14369, Note_on_c, 0, 65, 0
2, 14400, Note_on_c, 0, 55, 123
2, 14400, Note_on_c, 0, 60, 123
2, 14400, Note_on_c, 0, 64, 123
2, 14400, Note_on_c, 0, 67, 123
2, 14879, Note_on_c, 0, 67, 0
2, 14879, Note_on_c, 0, 55, 0
2, 14879, Note_on_c, 0, 60, 0
2, 14879, Note_on_c, 0, 64, 0
2, 15120, Note_on_c, 0, 70, 123
2, 15120, Note_on_c, 0, 65, 123
2, 15120, Note_on_c, 0, 62, 123
2, 15120, Note_on_c, 0, 58, 123
2, 15209, Note_on_c, 0, 58, 0
2, 15209, Note_on_c, 0, 70, 0
2, 15209, Note_on_c, 0, 65, 0
2, 15209, Note_on_c, 0, 62, 0
2, 15240, Note_on_c, 0, 69, 123
2, 15240, Note_on_c, 0, 65, 123
2, 15240, Note_on_c, 0, 60, 123
2, 15240, Note_on_c, 0, 57, 123
2, 15329, Note_on_c, 0, 57, 0
2, 15329, Note_on_c, 0, 69, 0
2, 15329, Note_on_c, 0, 65, 0
2, 15329, Note_on_c, 0, 60, 0
2, 15360, Note_on_c, 0, 67, 123
2, 15360, Note_on_c, 0, 64, 123
2, 15360, Note_on_c, 0, 60, 123
2, 15360, Note_on_c, 0, 55, 123
2, 15839, Note_on_c, 0, 55, 0
2, 15839, Note_on_c, 0, 67, 0
2, 15839, Note_on_c, 0, 64, 0
2, 15839, Note_on_c, 0, 60, 0
2, 16080, Note_on_c, 0, 58, 123
2, 16080, Note_on_c, 0, 62, 123
2, 16080, Note_on_c, 0, 65, 123
2, 16080, Note_on_c, 0, 70, 123
2, 16169, Note_on_c, 0, 70, 0
2, 16169, Note_on_c, 0, 58, 0
2, 16169, Note_on_c, 0, 62, 0
2, 16169, Note_on_c, 0, 65, 0
2, 16200, Note_on_c, 0, 57, 123
2, 16200, Note_on_c, 0, 60, 123
2, 16200, Note_on_c, 0, 65, 123
2, 16200, Note_on_c, 0, 69, 123
2, 16289, Note_on_c, 0, 69, 0
2, 16289, Note_on_c, 0, 57, 0
2, 16289, Note_on_c, 0, 60, 0
2, 16289, Note_on_c, 0, 65, 0
2, 16320, Note_on_c, 0, 55, 123
2, 16320, Note_on_c, 0, 60, 123
2, 16320, Note_on_c, 0, 64, 123
2, 16320, Note_on_c, 0, 67, 123
2, 16799, Note_on_c, 0, 67, 0
2, 16799, Note_on_c, 0, 55, 0
2, 16799, Note_on_c, 0, 60, 0
2, 16799, Note_on_c, 0, 64, 0
2, 17040, Note_on_c, 0, 70, 123
2, 17040, Note_on_c, 0, 65, 123
2, 17040, Note_on_c, 0, 62, 123
2, 17040, Note_on_c, 0, 58, 123
2, 17129, Note_on_c, 0, 58, 0
2, 17129, Note_on_c, 0, 70, 0
2, 17129, Note_on_c, 0, 65, 0
2, 17129, Note_on_c, 0, 62, 0
2, 17160, Note_on_c, 0, 69, 123
2, 17160, Note_on_c, 0, 65, 123
2, 17160, Note_on_c, 0, 60, 123
2, 17160, Note_on_c, 0, 57, 123
2, 17249, Note_on_c, 0, 57, 0
2, 17249, Note_on_c, 0, 69, 0
2, 17249, Note_on_c, 0, 65, 0
2, 17249, Note_on_c, 0, 60, 0
2, 17280, Note_on_c, 0, 67, 123
2, 17280, Note_on_c, 0, 64, 123
2, 17280, Note_on_c, 0, 60, 123
2, 17280, Note_on_c, 0, 55, 123
2, 17519, Note_on_c, 0, 55, 0
2, 17519, Note_on_c, 0, 67, 0
2, 17519, Note_on_c, 0, 64, 0
2, 17519, Note_on_c, 0, 60, 0
2, 17520, Note_on_c, 0, 67, 123
2, 17520, Note_on_c, 0, 64, 123
2, 17520, Note_on_c, 0, 60, 123
2, 17520, Note_on_c, 0, 55, 123
2, 17759, Note_on_c, 0, 55, 0
2, 17759, Note_on_c, 0, 67, 0
2, 17759, Note_on_c, 0, 64, 0
2, 17759, Note_on_c, 0, 60, 0
2, 17760, Note_on_c, 0, 67, 123
2, 17760, Note_on_c, 0, 64, 123
2, 17760, Note_on_c, 0, 60, 123
2, 17760, Note_on_c, 0, 55, 123
2, 17999, Note_on_c, 0, 55, 0
2, 17999, Note_on_c, 0, 67, 0
2, 17999, Note_on_c, 0, 64, 0
2, 17999, Note_on_c, 0, 60, 0
2, 18000, Note_on_c, 0, 67, 123
2, 18000, Note_on_c, 0, 64, 123
2, 18000, Note_on_c, 0, 60, 123
2, 18000, Note_on_c, 0, 55, 123
2, 18239, Note_on_c, 0, 55, 0
2, 18239, Note_on_c, 0, 67, 0
2, 18239, Note_on_c, 0, 64, 0
2, 18239, Note_on_c, 0, 60, 0
2, 18240, Control_c, 0, 7, 95
2, 18240, Note_on_c, 0, 41, 123
2, 18240, Note_on_c, 0, 48, 123
2, 18240, Note_on_c, 0, 53, 123
2, 18419, Note_on_c, 0, 53, 0
2, 18419, Note_on_c, 0, 48, 0
2, 18419, Note_on_c, 0, 41, 0
2, 18420, Note_on_c, 0, 41, 123
2, 18420, Note_on_c, 0, 48, 123
2, 18420, Note_on_c, 0, 53, 123
2, 18539, Note_on_c, 0, 53, 0
2, 18539, Note_on_c, 0, 48, 0
2, 18539, Note_on_c, 0, 41, 0
2, 18540, Note_on_c, 0, 41, 123
2, 18540, Note_on_c, 0, 48, 123
2, 18540, Note_on_c, 0, 53, 123
2, 18599, Note_on_c, 0, 53, 0
2, 18599, Note_on_c, 0, 48, 0
2, 18599, Note_on_c, 0, 41, 0
2, 18600, Note_on_c, 0, 41, 123
2, 18600, Note_on_c, 0, 48, 123
2, 18600, Note_on_c, 0, 53, 123
2, 18659, Note_on_c, 0, 53, 0
2, 18659, Note_on_c, 0, 48, 0
2, 18659, Note_on_c, 0, 41, 0
2, 18660, Note_on_c, 0, 46, 123
2, 18660, Note_on_c, 0, 53, 123
2, 18660, Note_on_c, 0, 58, 123
2, 18779, Note_on_c, 0, 58, 0
2, 18779, Note_on_c, 0, 53, 0
2, 18779, Note_on_c, 0, 46, 0
2, 18780, Note_on_c, 0, 46, 123
2, 18780, Note_on_c, 0, 53, 123
2, 18780, Note_on_c, 0, 58, 123
2, 18839, Note_on_c, 0, 58, 0
2, 18839, Note_on_c, 0, 53, 0
2, 18839, Note_on_c, 0, 46, 0
2, 18840, Note_on_c, 0, 53, 123
2, 18840, Note_on_c, 0, 58, 123
2, 18840, Note_on_c, 0, 46, 123
2, 18899, Note_on_c, 0, 46, 0
2, 18899, Note_on_c, 0, 58, 0
2, 18899, Note_on_c, 0, 53, 0
2, 18900, Note_on_c, 0, 55, 123
2, 18900, Note_on_c, 0, 60, 123
2, 18900, Note_on_c, 0, 48, 123
2, 19019, Note_on_c, 0, 48, 0
2, 19019, Note_on_c, 0, 60, 0
2, 19019, Note_on_c, 0, 55, 0
2, 19020, Note_on_c, 0, 48, 123
2, 19020, Note_on_c, 0, 55, 123
2, 19020, Note_on_c, 0, 60, 123
2, 19079, Note_on_c, 0, 60, 0
2, 19079, Note_on_c, 0, 55, 0
2, 19079, Note_on_c, 0, 48, 0
2, 19080, Note_on_c, 0, 55, 123
2, 19080, Note_on_c, 0, 60, 123
2, 19080, Note_on_c, 0, 64, 123
2, 19139, Note_on_c, 0, 64, 0
2, 19139, Note_on_c, 0, 60, 0
2, 19139, Note_on_c, 0, 55, 0
2, 19140, Note_on_c, 0, 48, 123
2, 19140, Note_on_c, 0, 60, 123
2, 19140, Note_on_c, 0, 55, 123
2, 19199, Note_on_c, 0, 55, 0
2, 19199, Note_on_c, 0, 60, 0
2, 19199, Note_on_c, 0, 48, 0
2, 19200, Note_on_c, 0, 41, 123
2, 19200, Note_on_c, 0, 48, 123
2, 19200, Note_on_c, 0, 53, 123
2, 19319, Note_on_c, 0, 53, 0
2, 19319, Note_on_c, 0, 48, 0
2, 19319, Note_on_c, 0, 41, 0
2, 19320, Note_on_c, 0, 41, 123
2, 19320, Note_on_c, 0, 48, 123
2, 19320, Note_on_c, 0, 53, 123
2, 19499, Note_on_c, 0, 53, 0
2, 19499, Note_on_c, 0, 48, 0
2, 19499, Note_on_c, 0, 41, 0
2, 19500, Note_on_c, 0, 41, 123
2, 19500, Note_on_c, 0, 48, 123
2, 19500, Note_on_c, 0, 53, 123
2, 19559, Note_on_c, 0, 53, 0
2, 19559, Note_on_c, 0, 48, 0
2, 19559, Note_on_c, 0, 41, 0
2, 19560, Note_on_c, 0, 41, 123
2, 19560, Note_on_c, 0, 48, 123
2, 19560, Note_on_c, 0, 53, 123
2, 19619, Note_on_c, 0, 53, 0
2, 19619, Note_on_c, 0, 48, 0
2, 19619, Note_on_c, 0, 41, 0
2, 19620, Note_on_c, 0, 41, 123
2, 19620, Note_on_c, 0, 48, 123
2, 19620, Note_on_c, 0, 53, 123
2, 19679, Note_on_c, 0, 53, 0
2, 19679, Note_on_c, 0, 48, 0
2, 19679, Note_on_c, 0, 41, 0
2, 19680, Note_on_c, 0, 43, 123
2, 19680, Note_on_c, 0, 50, 123
2, 19680, Note_on_c, 0, 55, 123
2, 19739, Note_on_c, 0, 55, 0
2, 19739, Note_on_c, 0, 50, 0
2, 19739, Note_on_c, 0, 43, 0
2, 19740, Note_on_c, 0, 43, 123
2, 19740, Note_on_c, 0, 50, 123
2, 19740, Note_on_c, 0, 55, 123
2, 19799, Note_on_c, 0, 55, 0
2, 19799, Note_on_c, 0, 50, 0
2, 19799, Note_on_c, 0, 43, 0
2, 19800, Note_on_c, 0, 43, 123
2, 19800, Note_on_c, 0, 55, 123
2, 19800, Note_on_c, 0, 50, 123
2, 19859, Note_on_c, 0, 50, 0
2, 19859, Note_on_c, 0, 55, 0
2, 19859, Note_on_c, 0, 43, 0
2, 19860, Note_on_c, 0, 48, 123
2, 19860, Note_on_c, 0, 55, 123
2, 19860, Note_on_c, 0, 60, 123
2, 19979, Note_on_c, 0, 60, 0
2, 19979, Note_on_c, 0, 55, 0
2, 19979, Note_on_c, 0, 48, 0
2, 19980, Note_on_c, 0, 48, 123
2, 19980, Note_on_c, 0, 55, 123
2, 19980, Note_on_c, 0, 60, 123
2, 20039, Note_on_c, 0, 60, 0
2, 20039, Note_on_c, 0, 55, 0
2, 20039, Note_on_c, 0, 48, 0
2, 20040, Note_on_c, 0, 48, 123
2, 20040, Note_on_c, 0, 55, 123
2, 20040, Note_on_c, 0, 60, 123
2, 20099, Note_on_c, 0, 60, 0
2, 20099, Note_on_c, 0, 55, 0
2, 20099, Note_on_c, 0, 48, 0
2, 20100, Note_on_c, 0, 48, 123
2, 20100, Note_on_c, 0, 55, 123
2, 20100, Note_on_c, 0, 60, 123
2, 20159, Note_on_c, 0, 60, 0
2, 20159, Note_on_c, 0, 55, 0
2, 20159, Note_on_c, 0, 48, 0
2, 20160, Note_on_c, 0, 41, 123
2, 20160, Note_on_c, 0, 48, 123
2, 20160, Note_on_c, 0, 53, 123
2, 20279, Note_on_c, 0, 53, 0
2, 20279, Note_on_c, 0, 48, 0
2, 20279, Note_on_c, 0, 41, 0
2, 20280, Note_on_c, 0, 41, 123
2, 20280, Note_on_c, 0, 48, 123
2, 20280, Note_on_c, 0, 53, 123
2, 20339, Note_on_c, 0, 53, 0
2, 20339, Note_on_c, 0, 48, 0
2, 20339, Note_on_c, 0, 41, 0
2, 20340, Note_on_c, 0, 41, 123
2, 20340, Note_on_c, 0, 48, 123
2, 20340, Note_on_c, 0, 53, 123
2, 20459, Note_on_c, 0, 53, 0
2, 20459, Note_on_c, 0, 48, 0
2, 20459, Note_on_c, 0, 41, 0
2, 20460, Note_on_c, 0, 41, 123
2, 20460, Note_on_c, 0, 48, 123
2, 20460, Note_on_c, 0, 53, 123
2, 20519, Note_on_c, 0, 53, 0
2, 20519, Note_on_c, 0, 48, 0
2, 20519, Note_on_c, 0, 41, 0
2, 20520, Note_on_c, 0, 41, 123
2, 20520, Note_on_c, 0, 48, 123
2, 20520, Note_on_c, 0, 53, 123
2, 20579, Note_on_c, 0, 53, 0
2, 20579, Note_on_c, 0, 48, 0
2, 20579, Note_on_c, 0, 41, 0
2, 20580, Note_on_c, 0, 46, 123
2, 20580, Note_on_c, 0, 53, 123
2, 20580, Note_on_c, 0, 58, 123
2, 20699, Note_on_c, 0, 58, 0
2, 20699, Note_on_c, 0, 53, 0
2, 20699, Note_on_c, 0, 46, 0
2, 20700, Note_on_c, 0, 46, 123
2, 20700, Note_on_c, 0, 53, 123
2, 20700, Note_on_c, 0, 58, 123
2, 20759, Note_on_c, 0, 58, 0
2, 20759, Note_on_c, 0, 53, 0
2, 20759, Note_on_c, 0, 46, 0
2, 20760, Note_on_c, 0, 53, 123
2, 20760, Note_on_c, 0, 58, 123
2, 20760, Note_on_c, 0, 46, 123
2, 20819, Note_on_c, 0, 46, 0
2, 20819, Note_on_c, 0, 58, 0
2, 20819, Note_on_c, 0, 53, 0
2, 20820, Note_on_c, 0, 55, 123
2, 20820, Note_on_c, 0, 60, 123
2, 20820, Note_on_c, 0, 48, 123
2, 20939, Note_on_c, 0, 48, 0
2, 20939, Note_on_c, 0, 60, 0
2, 20939, Note_on_c, 0, 55, 0
2, 20940, Note_on_c, 0, 48, 123
2, 20940, Note_on_c, 0, 55, 123
2, 20940, Note_on_c, 0, 60, 123
2, 20999, Note_on_c, 0, 60, 0
2, 20999, Note_on_c, 0, 55, 0
2, 20999, Note_on_c, 0, 48, 0
2, 21000, Note_on_c, 0, 48, 123
2, 21000, Note_on_c, 0, 55, 123
2, 21000, Note_on_c, 0, 60, 123
2, 21089, Note_on_c, 0, 60, 0
2, 21089, Note_on_c, 0, 55, 0
2, 21089, Note_on_c, 0, 48, 0
2, 21090, Control_c, 0, 7, 99
2, 21090, Note_on_c, 0, 50, 123
2, 21105, Note_on_c, 0, 53, 123
2, 21120, Note_on_c, 0, 57, 123
2, 21125, Note_on_c, 0, 62, 123
2, 21135, Note_on_c, 0, 69, 123
2, 22049, Note_on_c, 0, 50, 0
2, 22064, Note_on_c, 0, 53, 0
2, 22079, Note_on_c, 0, 62, 0
2, 22079, Note_on_c, 0, 57, 0
2, 22079, Note_on_c, 0, 69, 0
2, 22080, Control_c, 0, 7, 90
2, 22080, Note_on_c, 0, 53, 123
2, 22080, Note_on_c, 0, 60, 123
2, 22080, Note_on_c, 0, 65, 123
2, 22259, Note_on_c, 0, 65, 0
2, 22259, Note_on_c, 0, 60, 0
2, 22259, Note_on_c, 0, 53, 0
2, 22260, Note_on_c, 0, 51, 123
2, 22260, Note_on_c, 0, 58, 123
2, 22260, Note_on_c, 0, 63, 123
2, 22559, Note_on_c, 0, 63, 0
2, 22559, Note_on_c, 0, 58, 0
2, 22559, Note_on_c, 0, 51, 0
2, 22560, Note_on_c, 0, 46, 123
2, 22560, Note_on_c, 0, 53, 123
2, 22560, Note_on_c, 0, 58, 123
2, 22739, Note_on_c, 0, 58, 0
2, 22739, Note_on_c, 0, 53, 0
2, 22739, Note_on_c, 0, 46, 0
2, 22740, Note_on_c, 0, 48, 123
2, 22740, Note_on_c, 0, 55, 123
2, 22740, Note_on_c, 0, 60, 123
2, 23039, Note_on_c, 0, 60, 0
2, 23039, Note_on_c, 0, 55, 0
2, 23039, Note_on_c, 0, 48, 0
2, 23040, Note_on_c, 0, 53, 123
2, 23040, Note_on_c, 0, 60, 123
2, 23040, Note_on_c, 0, 65, 123
2, 23219, Note_on_c, 0, 65, 0
2, 23219, Note_on_c, 0, 60, 0
2, 23219, Note_on_c, 0, 53, 0
2, 23220, Note_on_c, 0, 51, 123
2, 23220, Note_on_c, 0, 58, 123
2, 23220, Note_on_c, 0, 63, 123
2, 23519, Note_on_c, 0, 63, 0
2, 23519, Note_on_c, 0, 58, 0
2, 23519, Note_on_c, 0, 51, 0
2, 23520, Note_on_c, 0, 46, 123
2, 23520, Note_on_c, 0, 53, 123
2, 23520, Note_on_c, 0, 58, 123
2, 23699, Note_on_c, 0, 58, 0
2, 23699, Note_on_c, 0, 53, 0
2, 23699, Note_on_c, 0, 46, 0
2, 23700, Note_on_c, 0, 48, 123
2, 23700, Note_on_c, 0, 55, 123
2, 23700, Note_on_c, 0, 60, 123
2, 23999, Note_on_c, 0, 60, 0
2, 23999, Note_on_c, 0, 55, 0
2, 23999, Note_on_c, 0, 48, 0
2, 24000, Control_c, 0, 7, 104
2, 24000, Note_on_c, 0, 48, 123
2, 24000, Note_on_c, 0, 55, 123
2, 24479, Note_on_c, 0, 55, 0
2, 24479, Note_on_c, 0, 48, 0
2, 24720, Note_on_c, 0, 45, 123
2, 24720, Note_on_c, 0, 52, 123
2, 24780, Pitch_bend_c, 0, 8442
2, 24782, Pitch_bend_c, 0, 8692
2, 24784, Pitch_bend_c, 0, 9192
2, 24786, Pitch_bend_c, 0, 9692
2, 24788, Pitch_bend_c, 0, 10192
2, 24790, Pitch_bend_c, 0, 10692
2, 24795, Pitch_bend_c, 0, 11192
2, 24800, Pitch_bend_c, 0, 11692
2, 24805, Pitch_bend_c, 0, 12192
2, 24810, Pitch_bend_c, 0, 12692
2, 24829, Note_on_c, 0, 52, 0
2, 24829, Note_on_c, 0, 45, 0
2, 24840, Pitch_bend_c, 0, 8192
2, 24840, Note_on_c, 0, 46, 123
2, 24840, Note_on_c, 0, 53, 123
2, 24949, Note_on_c, 0, 53, 0
2, 24949, Note_on_c, 0, 46, 0
2, 24960, Note_on_c, 0, 48, 123
2, 24960, Note_on_c, 0, 55, 123
2, 25439, Note_on_c, 0, 55, 0
2, 25439, Note_on_c, 0, 48, 0
2, 25680, Note_on_c, 0, 45, 123
2, 25680, Note_on_c, 0, 52, 123
2, 25740, Pitch_bend_c, 0, 8442
2, 25742, Pitch_bend_c, 0, 8692
2, 25744, Pitch_bend_c, 0, 9192
2, 25746, Pitch_bend_c, 0, 9692
2, 25748, Pitch_bend_c, 0, 10192
2, 25750, Pitch_bend_c, 0, 10692
2, 25755, Pitch_bend_c, 0, 11192
2, 25760, Pitch_bend_c, 0, 11692
2, 25765, Pitch_bend_c, 0, 12192
2, 25770, Pitch_bend_c, 0, 12692
2, 25789, Note_on_c, 0, 52, 0
2, 25789, Note_on_c, 0, 45, 0
2, 25800, Pitch_bend_c, 0, 8192
2, 25800, Note_on_c, 0, 46, 123
2, 25800, Note_on_c, 0, 53, 123
2, 25909, Note_on_c, 0, 53, 0
2, 25909, Note_on_c, 0, 46, 0
2, 25920, Note_on_c, 0, 48, 123
2, 25920, Note_on_c, 0, 55, 123
2, 26399, Note_on_c, 0, 55, 0
2, 26399, Note_on_c, 0, 48, 0
2, 26640, Note_on_c, 0, 45, 123
2, 26640, Note_on_c, 0, 52, 123
2, 26700, Pitch_bend_c, 0, 8442
2, 26702, Pitch_bend_c, 0, 8692
2, 26704, Pitch_bend_c, 0, 9192
2, 26706, Pitch_bend_c, 0, 9692
2, 26708, Pitch_bend_c, 0, 10192
2, 26710, Pitch_bend_c, 0, 10692
2, 26715, Pitch_bend_c, 0, 11192
2, 26720, Pitch_bend_c, 0, 11692
2, 26725, Pitch_bend_c, 0, 12192
2, 26730, Pitch_bend_c, 0, 12692
2, 26749, Note_on_c, 0, 52, 0
2, 26749, Note_on_c, 0, 45, 0
2, 26760, Pitch_bend_c, 0, 8192
2, 26760, Note_on_c, 0, 46, 123
2, 26760, Note_on_c, 0, 53, 123
2, 26869, Note_on_c, 0, 53, 0
2, 26869, Note_on_c, 0, 46, 0
2, 26880, Note_on_c, 0, 48, 123
2, 26880, Note_on_c, 0, 55, 123
2, 27359, Note_on_c, 0, 55, 0
2, 27359, Note_on_c, 0, 48, 0
2, 27600, Note_on_c, 0, 57, 123
2, 27600, Note_on_c, 0, 60, 123
2, 27600, Note_on_c, 0, 65, 123
2, 27600, Note_on_c, 0, 69, 123
2, 27689, Note_on_c, 0, 69, 0
2, 27689, Note_on_c, 0, 57, 0
2, 27689, Note_on_c, 0, 60, 0
2, 27689, Note_on_c, 0, 65, 0
2, 27720, Note_on_c, 0, 58, 123
2, 27720, Note_on_c, 0, 62, 123
2, 27720, Note_on_c, 0, 65, 123
2, 27720, Note_on_c, 0, 70, 123
2, 27809, Note_on_c, 0, 70, 0
2, 27809, Note_on_c, 0, 58, 0
2, 27809, Note_on_c, 0, 62, 0
2, 27809, Note_on_c, 0, 65, 0
2, 27840, Note_on_c, 0, 55, 123
2, 27840, Note_on_c, 0, 60, 123
2, 27840, Note_on_c, 0, 64, 123
2, 27840, Note_on_c, 0, 67, 123
2, 27840, Note_on_c, 0, 72, 123
2, 28319, Note_on_c, 0, 72, 0
2, 28319, Note_on_c, 0, 64, 0
2, 28319, Note_on_c, 0, 55, 0
2, 28319, Note_on_c, 0, 60, 0
2, 28319, Note_on_c, 0, 67, 0
2, 28560, Note_on_c, 0, 57, 123
2, 28560, Note_on_c, 0, 60, 123
2, 28560, Note_on_c, 0, 65, 123
2, 28560, Note_on_c, 0, 69, 123
2, 28649, Note_on_c, 0, 69, 0
2, 28649, Note_on_c, 0, 57, 0
2, 28649, Note_on_c, 0, 60, 0
2, 28649, Note_on_c, 0, 65, 0
2, 28680, Note_on_c, 0, 58, 123
2, 28680, Note_on_c, 0, 62, 123
2, 28680, Note_on_c, 0, 65, 123
2, 28680, Note_on_c, 0, 70, 123
2, 28769, Note_on_c, 0, 70, 0
2, 28769, Note_on_c, 0, 58, 0
2, 28769, Note_on_c, 0, 62, 0
2, 28769, Note_on_c, 0, 65, 0
2, 28800, Note_on_c, 0, 55, 123
2, 28800, Note_on_c, 0, 60, 123
2, 28800, Note_on_c, 0, 64, 123
2, 28800, Note_on_c, 0, 67, 123
2, 28800, Note_on_c, 0, 72, 123
2, 29279, Note_on_c, 0, 72, 0
2, 29279, Note_on_c, 0, 64, 0
2, 29279, Note_on_c, 0, 55, 0
2, 29279, Note_on_c, 0, 60, 0
2, 29279, Note_on_c, 0, 67, 0
2, 29520, Note_on_c, 0, 57, 123
2, 29520, Note_on_c, 0, 60, 123
2, 29520, Note_on_c, 0, 65, 123
2, 29520, Note_on_c, 0, 69, 123
2, 29609, Note_on_c, 0, 69, 0
2, 29609, Note_on_c, 0, 57, 0
2, 29609, Note_on_c, 0, 60, 0
2, 29609, Note_on_c, 0, 65, 0
2, 29640, Note_on_c, 0, 58, 123
2, 29640, Note_on_c, 0, 62, 123
2, 29640, Note_on_c, 0, 65, 123
2, 29640, Note_on_c, 0, 70, 123
2, 29729, Note_on_c, 0, 70, 0
2, 29729, Note_on_c, 0, 58, 0
2, 29729, Note_on_c, 0, 62, 0
2, 29729, Note_on_c, 0, 65, 0
2, 29760, Note_on_c, 0, 55, 123
2, 29760, Note_on_c, 0, 60, 123
2, 29760, Note_on_c, 0, 64, 123
2, 29760, Note_on_c, 0, 67, 123
2, 29760, Note_on_c, 0, 72, 123
2, 30239, Note_on_c, 0, 72, 0
2, 30239, Note_on_c, 0, 64, 0
2, 30239, Note_on_c, 0, 55, 0
2, 30239, Note_on_c, 0, 60, 0
2, 30239, Note_on_c, 0, 67, 0
2, 30480, Note_on_c, 0, 57, 123
2, 30480, Note_on_c, 0, 60, 123
2, 30480, Note_on_c, 0, 65, 123
2, 30480, Note_on_c, 0, 69, 123
2, 30569, Note_on_c, 0, 69, 0
2, 30569, Note_on_c, 0, 57, 0
2, 30569, Note_on_c, 0, 60, 0
2, 30569, Note_on_c, 0, 65, 0
2, 30600, Note_on_c, 0, 58, 123
2, 30600, Note_on_c, 0, 62, 123
2, 30600, Note_on_c, 0, 65, 123
2, 30600, Note_on_c, 0, 70, 123
2, 30689, Note_on_c, 0, 70, 0
2, 30689, Note_on_c, 0, 58, 0
2, 30689, Note_on_c, 0, 62, 0
2, 30689, Note_on_c, 0, 65, 0
2, 30720, Note_on_c, 0, 55, 123
2, 30720, Note_on_c, 0, 60, 123
2, 30720, Note_on_c, 0, 64, 123
2, 30720, Note_on_c, 0, 67, 123
2, 30720, Note_on_c, 0, 72, 123
2, 31199, Note_on_c, 0, 72, 0
2, 31199, Note_on_c, 0, 64, 0
2, 31199, Note_on_c, 0, 55, 0
2, 31199, Note_on_c, 0, 60, 0
2, 31199, Note_on_c, 0, 67, 0
2, 31440, Note_on_c, 0, 58, 123
2, 31440, Note_on_c, 0, 62, 123
2, 31440, Note_on_c, 0, 65, 123
2, 31440, Note_on_c, 0, 70, 123
2, 31529, Note_on_c, 0, 70, 0
2, 31529, Note_on_c, 0, 58, 0
2, 31529, Note_on_c, 0, 62, 0
2, 31529, Note_on_c, 0, 65, 0
2, 31560, Note_on_c, 0, 57, 123
2, 31560, Note_on_c, 0, 60, 123
2, 31560, Note_on_c, 0, 65, 123
2, 31560, Note_on_c, 0, 69, 123
2, 31649, Note_on_c, 0, 69, 0
2, 31649, Note_on_c, 0, 57, 0
2, 31649, Note_on_c, 0, 60, 0
2, 31649, Note_on_c, 0, 65, 0
2, 31680, Note_on_c, 0, 55, 123
2, 31680, Note_on_c, 0, 60, 123
2, 31680, Note_on_c, 0, 64, 123
2, 31680, Note_on_c, 0, 67, 123
2, 32159, Note_on_c, 0, 67, 0
2, 32159, Note_on_c, 0, 55, 0
2, 32159, Note_on_c, 0, 60, 0
2, 32159, Note_on_c, 0, 64, 0
2, 32400, Note_on_c, 0, 70, 123
2, 32400, Note_on_c, 0, 65, 123
2, 32400, Note_on_c, 0, 62, 123
2, 32400, Note_on_c, 0, 58, 123
2, 32489, Note_on_c, 0, 58, 0
2, 32489, Note_on_c, 0, 70, 0
2, 32489, Note_on_c, 0, 65, 0
2, 32489, Note_on_c, 0, 62, 0
2, 32520, Note_on_c, 0, 69, 123
2, 32520, Note_on_c, 0, 65, 123
2, 32520, Note_on_c, 0, 60, 123
2, 32520, Note_on_c, 0, 57, 123
2, 32609, Note_on_c, 0, 57, 0
2, 32609, Note_on_c, 0, 69, 0
2, 32609, Note_on_c, 0, 65, 0
2, 32609, Note_on_c, 0, 60, 0
2, 32640, Note_on_c, 0, 67, 123
2, 32640, Note_on_c, 0, 64, 123
2, 32640, Note_on_c, 0, 60, 123
2, 32640, Note_on_c, 0, 55, 123
2, 33119, Note_on_c, 0, 55, 0
2, 33119, Note_on_c, 0, 67, 0
2, 33119, Note_on_c, 0, 64, 0
2, 33119, Note_on_c, 0, 60, 0
2, 33360, Note_on_c, 0, 58, 123
2, 33360, Note_on_c, 0, 62, 123
2, 33360, Note_on_c, 0, 65, 123
2, 33360, Note_on_c, 0, 70, 123
2, 33449, Note_on_c, 0, 70, 0
2, 33449, Note_on_c, 0, 58, 0
2, 33449, Note_on_c, 0, 62, 0
2, 33449, Note_on_c, 0, 65, 0
2, 33480, Note_on_c, 0, 57, 123
2, 33480, Note_on_c, 0, 60, 123
2, 33480, Note_on_c, 0, 65, 123
2, 33480, Note_on_c, 0, 69, 123
2, 33569, Note_on_c, 0, 69, 0
2, 33569, Note_on_c, 0, 57, 0
2, 33569, Note_on_c, 0, 60, 0
2, 33569, Note_on_c, 0, 65, 0
2, 33600, Note_on_c, 0, 55, 123
2, 33600, Note_on_c, 0, 60, 123
2, 33600, Note_on_c, 0, 64, 123
2, 33600, Note_on_c, 0, 67, 123
2, 34079, Note_on_c, 0, 67, 0
2, 34079, Note_on_c, 0, 55, 0
2, 34079, Note_on_c, 0, 60, 0
2, 34079, Note_on_c, 0, 64, 0
2, 34320, Note_on_c, 0, 70, 123
2, 34320, Note_on_c, 0, 65, 123
2, 34320, Note_on_c, 0, 62, 123
2, 34320, Note_on_c, 0, 58, 123
2, 34409, Note_on_c, 0, 58, 0
2, 34409, Note_on_c, 0, 70, 0
2, 34409, Note_on_c, 0, 65, 0
2, 34409, Note_on_c, 0, 62, 0
2, 34440, Note_on_c, 0, 69, 123
2, 34440, Note_on_c, 0, 65, 123
2, 34440, Note_on_c, 0, 60, 123
2, 34440, Note_on_c, 0, 57, 123
2, 34529, Note_on_c, 0, 57, 0
2, 34529, Note_on_c, 0, 69, 0
2, 34529, Note_on_c, 0, 65, 0
2, 34529, Note_on_c, 0, 60, 0
2, 34560, Note_on_c, 0, 67, 123
2, 34560, Note_on_c, 0, 64, 123
2, 34560, Note_on_c, 0, 60, 123
2, 34560, Note_on_c, 0, 55, 123
2, 34799, Note_on_c, 0, 55, 0
2, 34799, Note_on_c, 0, 67, 0
2, 34799, Note_on_c, 0, 64, 0
2, 34799, Note_on_c, 0, 60, 0
2, 34800, Note_on_c, 0, 67, 123
2, 34800, Note_on_c, 0, 64, 123
2, 34800, Note_on_c, 0, 60, 123
2, 34800, Note_on_c, 0, 55, 123
2, 35039, Note_on_c, 0, 55, 0
2, 35039, Note_on_c, 0, 67, 0
2, 35039, Note_on_c, 0, 64, 0
2, 35039, Note_on_c, 0, 60, 0
2, 35040, Note_on_c, 0, 67, 123
2, 35040, Note_on_c, 0, 64, 123
2, 35040, Note_on_c, 0, 60, 123
2, 35040, Note_on_c, 0, 55, 123
2, 35279, Note_on_c, 0, 55, 0
2, 35279, Note_on_c, 0, 67, 0
2, 35279, Note_on_c, 0, 64, 0
2, 35279, Note_on_c, 0, 60, 0
2, 35280, Note_on_c, 0, 67, 123
2, 35280, Note_on_c, 0, 64, 123
2, 35280, Note_on_c, 0, 60, 123
2, 35280, Note_on_c, 0, 55, 123
2, 35399, Note_on_c, 0, 55, 0
2, 35399, Note_on_c, 0, 67, 0
2, 35399, Note_on_c, 0, 64, 0
2, 35399, Note_on_c, 0, 60, 0
2, 35400, Note_on_c, 0, 67, 123
2, 35400, Note_on_c, 0, 64, 123
2, 35400, Note_on_c, 0, 60, 123
2, 35400, Note_on_c, 0, 55, 123
2, 35519, Note_on_c, 0, 55, 0
2, 35519, Note_on_c, 0, 67, 0
2, 35519, Note_on_c, 0, 64, 0
2, 35519, Note_on_c, 0, 60, 0
2, 35520, Note_on_c, 0, 41, 123
2, 35520, Note_on_c, 0, 48, 123
2, 35520, Note_on_c, 0, 53, 123
2, 35699, Note_on_c, 0, 53, 0
2, 35699, Note_on_c, 0, 48, 0
2, 35699, Note_on_c, 0, 41, 0
2, 35700, Note_on_c, 0, 41, 123
2, 35700, Note_on_c, 0, 48, 123
2, 35700, Note_on_c, 0, 53, 123
2, 35819, Note_on_c, 0, 53, 0
2, 35819, Note_on_c, 0, 48, 0
2, 35819, Note_on_c, 0, 41, 0
2, 35820, Note_on_c, 0, 41, 123
2, 35820, Note_on_c, 0, 48, 123
2, 35820, Note_on_c, 0, 53, 123
2, 35879, Note_on_c, 0, 53, 0
2, 35879, Note_on_c, 0, 48, 0
2, 35879, Note_on_c, 0, 41, 0
2, 35880, Note_on_c, 0, 41, 123
2, 35880, Note_on_c, 0, 48, 123
2, 35880, Note_on_c, 0, 53, 123
2, 35939, Note_on_c, 0, 53, 0
2, 35939, Note_on_c, 0, 48, 0
2, 35939, Note_on_c, 0, 41, 0
2, 35940, Note_on_c, 0, 46, 123
2, 35940, Note_on_c, 0, 53, 123
2, 35940, Note_on_c, 0, 58, 123
2, 36059, Note_on_c, 0, 58, 0
2, 36059, Note_on_c, 0, 53, 0
2, 36059, Note_on_c, 0, 46, 0
2, 36060, Note_on_c, 0, 46, 123
2, 36060, Note_on_c, 0, 53, 123
2, 36060, Note_on_c, 0, 58, 123
2, 36119, Note_on_c, 0, 58, 0
2, 36119, Note_on_c, 0, 53, 0
2, 36119, Note_on_c, 0, 46, 0
2, 36120, Note_on_c, 0, 53, 123
2, 36120, Note_on_c, 0, 58, 123
2, 36120, Note_on_c, 0, 46, 123
2, 36179, Note_on_c, 0, 46, 0
2, 36179, Note_on_c, 0, 58, 0
2, 36179, Note_on_c, 0, 53, 0
2, 36180, Note_on_c, 0, 55, 123
2, 36180, Note_on_c, 0, 60, 123
2, 36180, Note_on_c, 0, 48, 123
2, 36299, Note_on_c, 0, 48, 0
2, 36299, Note_on_c, 0, 60, 0
2, 36299, Note_on_c, 0, 55, 0
2, 36300, Note_on_c, 0, 48, 123
2, 36300, Note_on_c, 0, 55, 123
2, 36300, Note_on_c, 0, 60, 123
2, 36359, Note_on_c, 0, 60, 0
2, 36359, Note_on_c, 0, 55, 0
2, 36359, Note_on_c, 0, 48, 0
2, 36360, Note_on_c, 0, 55, 123
2, 36360, Note_on_c, 0, 60, 123
2, 36360, Note_on_c, 0, 64, 123
2, 36419, Note_on_c, 0, 64, 0
2, 36419, Note_on_c, 0, 60, 0
2, 36419, Note_on_c, 0, 55, 0
2, 36420, Note_on_c, 0, 48, 123
2, 36420, Note_on_c, 0, 60, 123
2, 36420, Note_on_c, 0, 55, 123
2, 36479, Note_on_c, 0, 55, 0
2, 36479, Note_on_c, 0, 60, 0
2, 36479, Note_on_c, 0, 48, 0
2, 36480, Note_on_c, 0, 41, 123
2, 36480, Note_on_c, 0, 48, 123
2, 36480, Note_on_c, 0, 53, 123
2, 36599, Note_on_c, 0, 53, 0
2, 36599, Note_on_c, 0, 48, 0
2, 36599, Note_on_c, 0, 41, 0
2, 36600, Note_on_c, 0, 41, 123
2, 36600, Note_on_c, 0, 48, 123
2, 36600, Note_on_c, 0, 53, 123
2, 36779, Note_on_c, 0, 53, 0
2, 36779, Note_on_c, 0, 48, 0
2, 36779, Note_on_c, 0, 41, 0
2, 36780, Note_on_c, 0, 41, 123
2, 36780, Note_on_c, 0, 48, 123
2, 36780, Note_on_c, 0, 53, 123
2, 36839, Note_on_c, 0, 53, 0
2, 36839, Note_on_c, 0, 48, 0
2, 36839, Note_on_c, 0, 41, 0
2, 36840, Note_on_c, 0, 41, 123
2, 36840, Note_on_c, 0, 48, 123
2, 36840, Note_on_c, 0, 53, 123
2, 36899, Note_on_c, 0, 53, 0
2, 36899, Note_on_c, 0, 48, 0
2, 36899, Note_on_c, 0, 41, 0
2, 36900, Note_on_c, 0, 41, 123
2, 36900, Note_on_c, 0, 48, 123
2, 36900, Note_on_c, 0, 53, 123
2, 36959, Note_on_c, 0, 53, 0
2, 36959, Note_on_c, 0, 48, 0
2, 36959, Note_on_c, 0, 41, 0
2, 36960, Note_on_c, 0, 43, 123
2, 36960, Note_on_c, 0, 50, 123
2, 36960, Note_on_c, 0, 55, 123
2, 37019, Note_on_c, 0, 55, 0
2, 37019, Note_on_c, 0, 50, 0
2, 37019, Note_on_c, 0, 43, 0
2, 37020, Note_on_c, 0, 43, 123
2, 37020, Note_on_c, 0, 50, 123
2, 37020, Note_on_c, 0, 55, 123
2, 37079, Note_on_c, 0, 55, 0
2, 37079, Note_on_c, 0, 50, 0
2, 37079, Note_on_c, 0, 43, 0
2, 37080, Note_on_c, 0, 43, 123
2, 37080, Note_on_c, 0, 55, 123
2, 37080, Note_on_c, 0, 50, 123
2, 37139, Note_on_c, 0, 50, 0
2, 37139, Note_on_c, 0, 55, 0
2, 37139, Note_on_c, 0, 43, 0
2, 37140, Note_on_c, 0, 48, 123
2, 37140, Note_on_c, 0, 55, 123
2, 37140, Note_on_c, 0, 60, 123
2, 37259, Note_on_c, 0, 60, 0
2, 37259, Note_on_c, 0, 55, 0
2, 37259, Note_on_c, 0, 48, 0
2, 37260, Note_on_c, 0, 48, 123
2, 37260, Note_on_c, 0, 55, 123
2, 37260, Note_on_c, 0, 60, 123
2, 37319, Note_on_c, 0, 60, 0
2, 37319, Note_on_c, 0, 55, 0
2, 37319, Note_on_c, 0, 48, 0
2, 37320, Note_on_c, 0, 48, 123
2, 37320, Note_on_c, 0, 55, 123
2, 37320, Note_on_c, 0, 60, 123
2, 37379, Note_on_c, 0, 60, 0
2, 37379, Note_on_c, 0, 55, 0
2, 37379, Note_on_c, 0, 48, 0
2, 37380, Note_on_c, 0, 48, 123
2, 37380, Note_on_c, 0, 55, 123
2, 37380, Note_on_c, 0, 60, 123
2, 37439, Note_on_c, 0, 60, 0
2, 37439, Note_on_c, 0, 55, 0
2, 37439, Note_on_c, 0, 48, 0
2, 37440, Note_on_c, 0, 41, 123
2, 37440, Note_on_c, 0, 48, 123
2, 37440, Note_on_c, 0, 53, 123
2, 37559, Note_on_c, 0, 53, 0
2, 37559, Note_on_c, 0, 48, 0
2, 37559, Note_on_c, 0, 41, 0
2, 37560, Note_on_c, 0, 41, 123
2, 37560, Note_on_c, 0, 48, 123
2, 37560, Note_on_c, 0, 53, 123
2, 37619, Note_on_c, 0, 53, 0
2, 37619, Note_on_c, 0, 48, 0
2, 37619, Note_on_c, 0, 41, 0
2, 37620, Note_on_c, 0, 41, 123
2, 37620, Note_on_c, 0, 48, 123
2, 37620, Note_on_c, 0, 53, 123
2, 37739, Note_on_c, 0, 53, 0
2, 37739, Note_on_c, 0, 48, 0
2, 37739, Note_on_c, 0, 41, 0
2, 37740, Note_on_c, 0, 41, 123
2, 37740, Note_on_c, 0, 48, 123
2, 37740, Note_on_c, 0, 53, 123
2, 37799, Note_on_c, 0, 53, 0
2, 37799, Note_on_c, 0, 48, 0
2, 37799, Note_on_c, 0, 41, 0
2, 37800, Note_on_c, 0, 41, 123
2, 37800, Note_on_c, 0, 48, 123
2, 37800, Note_on_c, 0, 53, 123
2, 37859, Note_on_c, 0, 53, 0
2, 37859, Note_on_c, 0, 48, 0
2, 37859, Note_on_c, 0, 41, 0
2, 37860, Note_on_c, 0, 46, 123
2, 37860, Note_on_c, 0, 53, 123
2, 37860, Note_on_c, 0, 58, 123
2, 37979, Note_on_c, 0, 58, 0
2, 37979, Note_on_c, 0, 53, 0
2, 37979, Note_on_c, 0, 46, 0
2, 37980, Note_on_c, 0, 46, 123
2, 37980, Note_on_c, 0, 53, 123
2, 37980, Note_on_c, 0, 58, 123
2, 38039, Note_on_c, 0, 58, 0
2, 38039, Note_on_c, 0, 53, 0
2, 38039, Note_on_c, 0, 46, 0
2, 38040, Note_on_c, 0, 53, 123
2, 38040, Note_on_c, 0, 58, 123
2, 38040, Note_on_c, 0, 46, 123
2, 38099, Note_on_c, 0, 46, 0
2, 38099, Note_on_c, 0, 58, 0
2, 38099, Note_on_c, 0, 53, 0
2, 38100, Note_on_c, 0, 55, 123
2, 38100, Note_on_c, 0, 60, 123
2, 38100, Note_on_c, 0, 48, 123
2, 38219, Note_on_c, 0, 48, 0
2, 38219, Note_on_c, 0, 60, 0
2, 38219, Note_on_c, 0, 55, 0
2, 38220, Note_on_c, 0, 48, 123
2, 38220, Note_on_c, 0, 55, 123
2, 38220, Note_on_c, 0, 60, 123
2, 38279, Note_on_c, 0, 60, 0
2, 38279, Note_on_c, 0, 55, 0
2, 38279, Note_on_c, 0, 48, 0
2, 38280, Note_on_c, 0, 48, 123
2, 38280, Note_on_c, 0, 55, 123
2, 38280, Note_on_c, 0, 60, 123
2, 38369, Note_on_c, 0, 60, 0
2, 38369, Note_on_c, 0, 55, 0
2, 38369, Note_on_c, 0, 48, 0
2, 38370, Note_on_c, 0, 50, 123
2, 38385, Note_on_c, 0, 53, 123
2, 38400, Note_on_c, 0, 57, 123
2, 38405, Note_on_c, 0, 62, 123
2, 38415, Note_on_c, 0, 69, 123
2, 39329, Note_on_c, 0, 50, 0
2, 39344, Note_on_c, 0, 53, 0
2, 39359, Note_on_c, 0, 62, 0
2, 39359, Note_on_c, 0, 57, 0
2, 39359, Note_on_c, 0, 69, 0
2, 39360, Note_on_c, 0, 53, 123
2, 39360, Note_on_c, 0, 60, 123
2, 39360, Note_on_c, 0, 65, 123
2, 39539, Note_on_c, 0, 65, 0
2, 39539, Note_on_c, 0, 60, 0
2, 39539, Note_on_c, 0, 53, 0
2, 39540, Note_on_c, 0, 51, 123
2, 39540, Note_on_c, 0, 58, 123
2, 39540, Note_on_c, 0, 63, 123
2, 39839, Note_on_c, 0, 63, 0
2, 39839, Note_on_c, 0, 58, 0
2, 39839, Note_on_c, 0, 51, 0
2, 39840, Note_on_c, 0, 46, 123
2, 39840, Note_on_c, 0, 53, 123
2, 39840, Note_on_c, 0, 58, 123
2, 40019, Note_on_c, 0, 58, 0
2, 40019, Note_on_c, 0, 53, 0
2, 40019, Note_on_c, 0, 46, 0
2, 40020, Note_on_c, 0, 48, 123
2, 40020, Note_on_c, 0, 55, 123
2, 40020, Note_on_c, 0, 60, 123
2, 40319, Note_on_c, 0, 60, 0
2, 40319, Note_on_c, 0, 55, 0
2, 40319, Note_on_c, 0, 48, 0
2, 40320, Note_on_c, 0, 53, 123
2, 40320, Note_on_c, 0, 60, 123
2, 40320, Note_on_c, 0, 65, 123
2, 40499, Note_on_c, 0, 65, 0
2, 40499, Note_on_c, 0, 60, 0
2, 40499, Note_on_c, 0, 53, 0
2, 40500, Note_on_c, 0, 51, 123
2, 40500, Note_on_c, 0, 58, 123
2, 40500, Note_on_c, 0, 63, 123
2, 40799, Note_on_c, 0, 63, 0
2, 40799, Note_on_c, 0, 58, 0
2, 40799, Note_on_c, 0, 51, 0
2, 40800, Note_on_c, 0, 46, 123
2, 40800, Note_on_c, 0, 53, 123
2, 40800, Note_on_c, 0, 58, 123
2, 40979, Note_on_c, 0, 58, 0
2, 40979, Note_on_c, 0, 53, 0
2, 40979, Note_on_c, 0, 46, 0
2, 40980, Note_on_c, 0, 55, 123
2, 40980, Note_on_c, 0, 60, 123
2, 40980, Note_on_c, 0, 48, 123
2, 41099, Note_on_c, 0, 48, 0
2, 41099, Note_on_c, 0, 60, 0
2, 41099, Note_on_c, 0, 55, 0
2, 41100, Control_c, 0, 7, 111
2, 41100, Note_on_c, 0, 48, 123
2, 41100, Note_on_c, 0, 55, 123
2, 41100, Note_on_c, 0, 60, 123
2, 41159, Note_on_c, 0, 60, 0
2, 41159, Note_on_c, 0, 55, 0
2, 41159, Note_on_c, 0, 48, 0
2, 41160, Note_on_c, 0, 48, 123
2, 41160, Note_on_c, 0, 60, 123
2, 41160, Note_on_c, 0, 55, 123
2, 41219, Note_on_c, 0, 55, 0
2, 41219, Note_on_c, 0, 60, 0
2, 41219, Note_on_c, 0, 48, 0
2, 41220, Note_on_c, 0, 48, 123
2, 41220, Note_on_c, 0, 55, 123
2, 41220, Note_on_c, 0, 60, 123
2, 41279, Note_on_c, 0, 60, 0
2, 41279, Note_on_c, 0, 55, 0
2, 41279, Note_on_c, 0, 48, 0
2, 41280, Control_c, 0, 7, 104
2, 41280, Note_on_c, 0, 41, 123
2, 41280, Note_on_c, 0, 48, 123
2, 41280, Note_on_c, 0, 53, 123
2, 41459, Note_on_c, 0, 53, 0
2, 41459, Note_on_c, 0, 48, 0
2, 41459, Note_on_c, 0, 41, 0
2, 41460, Note_on_c, 0, 41, 123
2, 41460, Note_on_c, 0, 48, 123
2, 41460, Note_on_c, 0, 53, 123
2, 41579, Note_on_c, 0, 53, 0
2, 41579, Note_on_c, 0, 48, 0
2, 41579, Note_on_c, 0, 41, 0
2, 41580, Note_on_c, 0, 41, 123
2, 41580, Note_on_c, 0, 48, 123
2, 41580, Note_on_c, 0, 53, 123
2, 41639, Note_on_c, 0, 53, 0
2, 41639, Note_on_c, 0, 48, 0
2, 41639, Note_on_c, 0, 41, 0
2, 41640, Note_on_c, 0, 41, 123
2, 41640, Note_on_c, 0, 48, 123
2, 41640, Note_on_c, 0, 53, 123
2, 41699, Note_on_c, 0, 53, 0
2, 41699, Note_on_c, 0, 48, 0
2, 41699, Note_on_c, 0, 41, 0
2, 41700, Note_on_c, 0, 46, 123
2, 41700, Note_on_c, 0, 53, 123
2, 41700, Note_on_c, 0, 58, 123
2, 41819, Note_on_c, 0, 58, 0
2, 41819, Note_on_c, 0, 53, 0
2, 41819, Note_on_c, 0, 46, 0
2, 41820, Note_on_c, 0, 46, 123
2, 41820, Note_on_c, 0, 53, 123
2, 41820, Note_on_c, 0, 58, 123
2, 41879, Note_on_c, 0, 58, 0
2, 41879, Note_on_c, 0, 53, 0
2, 41879, Note_on_c, 0, 46, 0
2, 41880, Note_on_c, 0, 53, 123
2, 41880, Note_on_c, 0, 58, 123
2, 41880, Note_on_c, 0, 46, 123
2, 41939, Note_on_c, 0, 46, 0
2, 41939, Note_on_c, 0, 58, 0
2, 41939, Note_on_c, 0, 53, 0
2, 41940, Note_on_c, 0, 55, 123
2, 41940, Note_on_c, 0, 60, 123
2, 41940, Note_on_c, 0, 48, 123
2, 42059, Note_on_c, 0, 48, 0
2, 42059, Note_on_c, 0, 60, 0
2, 42059, Note_on_c, 0, 55, 0
2, 42060, Note_on_c, 0, 48, 123
2, 42060, Note_on_c, 0, 55, 123
2, 42060, Note_on_c, 0, 60, 123
2, 42119, Note_on_c, 0, 60, 0
2, 42119, Note_on_c, 0, 55, 0
2, 42119, Note_on_c, 0, 48, 0
2, 42120, Note_on_c, 0, 55, 123
2, 42120, Note_on_c, 0, 60, 123
2, 42120, Note_on_c, 0, 64, 123
2, 42179, Note_on_c, 0, 64, 0
2, 42179, Note_on_c, 0, 60, 0
2, 42179, Note_on_c, 0, 55, 0
2, 42180, Note_on_c, 0, 48, 123
2, 42180, Note_on_c, 0, 60, 123
2, 42180, Note_on_c, 0, 55, 123
2, 42239, Note_on_c, 0, 55, 0
2, 42239, Note_on_c, 0, 60, 0
2, 42239, Note_on_c, 0, 48, 0
2, 42240, Note_on_c, 0, 41, 123
2, 42240, Note_on_c, 0, 48, 123
2, 42240, Note_on_c, 0, 53, 123
2, 42359, Note_on_c, 0, 53, 0
2, 42359, Note_on_c, 0, 48, 0
2, 42359, Note_on_c, 0, 41, 0
2, 42360, Note_on_c, 0, 41, 123
2, 42360, Note_on_c, 0, 48, 123
2, 42360, Note_on_c, 0, 53, 123
2, 42539, Note_on_c, 0, 53, 0
2, 42539, Note_on_c, 0, 48, 0
2, 42539, Note_on_c, 0, 41, 0
2, 42540, Note_on_c, 0, 41, 123
2, 42540, Note_on_c, 0, 48, 123
2, 42540, Note_on_c, 0, 53, 123
2, 42599, Note_on_c, 0, 53, 0
2, 42599, Note_on_c, 0, 48, 0
2, 42599, Note_on_c, 0, 41, 0
2, 42600, Note_on_c, 0, 41, 123
2, 42600, Note_on_c, 0, 48, 123
2, 42600, Note_on_c, 0, 53, 123
2, 42659, Note_on_c, 0, 53, 0
2, 42659, Note_on_c, 0, 48, 0
2, 42659, Note_on_c, 0, 41, 0
2, 42660, Note_on_c, 0, 41, 123
2, 42660, Note_on_c, 0, 48, 123
2, 42660, Note_on_c, 0, 53, 123
2, 42719, Note_on_c, 0, 53, 0
2, 42719, Note_on_c, 0, 48, 0
2, 42719, Note_on_c, 0, 41, 0
2, 42720, Note_on_c, 0, 43, 123
2, 42720, Note_on_c, 0, 50, 123
2, 42720, Note_on_c, 0, 55, 123
2, 42779, Note_on_c, 0, 55, 0
2, 42779, Note_on_c, 0, 50, 0
2, 42779, Note_on_c, 0, 43, 0
2, 42780, Note_on_c, 0, 43, 123
2, 42780, Note_on_c, 0, 50, 123
2, 42780, Note_on_c, 0, 55, 123
2, 42839, Note_on_c, 0, 55, 0
2, 42839, Note_on_c, 0, 50, 0
2, 42839, Note_on_c, 0, 43, 0
2, 42840, Note_on_c, 0, 43, 123
2, 42840, Note_on_c, 0, 55, 123
2, 42840, Note_on_c, 0, 50, 123
2, 42899, Note_on_c, 0, 50, 0
2, 42899, Note_on_c, 0, 55, 0
2, 42899, Note_on_c, 0, 43, 0
2, 42900, Note_on_c, 0, 48, 123
2, 42900, Note_on_c, 0, 55, 123
2, 42900, Note_on_c, 0, 60, 123
2, 43019, Note_on_c, 0, 60, 0
2, 43019, Note_on_c, 0, 55, 0
2, 43019, Note_on_c, 0, 48, 0
2, 43020, Note_on_c, 0, 48, 123
2, 43020, Note_on_c, 0, 55, 123
2, 43020, Note_on_c, 0, 60, 123
2, 43079, Note_on_c, 0, 60, 0
2, 43079, Note_on_c, 0, 55, 0
2, 43079, Note_on_c, 0, 48, 0
2, 43080, Note_on_c, 0, 48, 123
2, 43080, Note_on_c, 0, 55, 123
2, 43080, Note_on_c, 0, 60, 123
2, 43139, Note_on_c, 0, 60, 0
2, 43139, Note_on_c, 0, 55, 0
2, 43139, Note_on_c, 0, 48, 0
2, 43140, Note_on_c, 0, 48, 123
2, 43140, Note_on_c, 0, 55, 123
2, 43140, Note_on_c, 0, 60, 123
2, 43199, Note_on_c, 0, 60, 0
2, 43199, Note_on_c, 0, 55, 0
2, 43199, Note_on_c, 0, 48, 0
2, 43200, Note_on_c, 0, 41, 123
2, 43200, Note_on_c, 0, 48, 123
2, 43200, Note_on_c, 0, 53, 123
2, 43319, Note_on_c, 0, 53, 0
2, 43319, Note_on_c, 0, 48, 0
2, 43319, Note_on_c, 0, 41, 0
2, 43320, Note_on_c, 0, 41, 123
2, 43320, Note_on_c, 0, 48, 123
2, 43320, Note_on_c, 0, 53, 123
2, 43379, Note_on_c, 0, 53, 0
2, 43379, Note_on_c, 0, 48, 0
2, 43379, Note_on_c, 0, 41, 0
2, 43380, Note_on_c, 0, 41, 123
2, 43380, Note_on_c, 0, 48, 123
2, 43380, Note_on_c, 0, 53, 123
2, 43499, Note_on_c, 0, 53, 0
2, 43499, Note_on_c, 0, 48, 0
2, 43499, Note_on_c, 0, 41, 0
2, 43500, Note_on_c, 0, 41, 123
2, 43500, Note_on_c, 0, 48, 123
2, 43500, Note_on_c, 0, 53, 123
2, 43559, Note_on_c, 0, 53, 0
2, 43559, Note_on_c, 0, 48, 0
2, 43559, Note_on_c, 0, 41, 0
2, 43560, Note_on_c, 0, 41, 123
2, 43560, Note_on_c, 0, 48, 123
2, 43560, Note_on_c, 0, 53, 123
2, 43619, Note_on_c, 0, 53, 0
2, 43619, Note_on_c, 0, 48, 0
2, 43619, Note_on_c, 0, 41, 0
2, 43620, Note_on_c, 0, 46, 123
2, 43620, Note_on_c, 0, 53, 123
2, 43620, Note_on_c, 0, 58, 123
2, 43739, Note_on_c, 0, 58, 0
2, 43739, Note_on_c, 0, 53, 0
2, 43739, Note_on_c, 0, 46, 0
2, 43740, Note_on_c, 0, 46, 123
2, 43740, Note_on_c, 0, 53, 123
2, 43740, Note_on_c, 0, 58, 123
2, 43799, Note_on_c, 0, 58, 0
2, 43799, Note_on_c, 0, 53, 0
2, 43799, Note_on_c, 0, 46, 0
2, 43800, Note_on_c, 0, 53, 123
2, 43800, Note_on_c, 0, 58, 123
2, 43800, Note_on_c, 0, 46, 123
2, 43859, Note_on_c, 0, 46, 0
2, 43859, Note_on_c, 0, 58, 0
2, 43859, Note_on_c, 0, 53, 0
2, 43860, Note_on_c, 0, 55, 123
2, 43860, Note_on_c, 0, 60, 123
2, 43860, Note_on_c, 0, 48, 123
2, 43979, Note_on_c, 0, 48, 0
2, 43979, Note_on_c, 0, 60, 0
2, 43979, Note_on_c, 0, 55, 0
2, 43980, Note_on_c, 0, 48, 123
2, 43980, Note_on_c, 0, 55, 123
2, 43980, Note_on_c, 0, 60, 123
2, 44039, Note_on_c, 0, 60, 0
2, 44039, Note_on_c, 0, 55, 0
2, 44039, Note_on_c, 0, 48, 0
2, 44040, Note_on_c, 0, 48, 123
2, 44040, Note_on_c, 0, 55, 123
2, 44040, Note_on_c, 0, 60, 123
2, 44129, Note_on_c, 0, 60, 0
2, 44129, Note_on_c, 0, 55, 0
2, 44129, Note_on_c, 0, 48, 0
2, 44130, Note_on_c, 0, 50, 123
2, 44145, Note_on_c, 0, 53, 123
2, 44160, Note_on_c, 0, 57, 123
2, 44165, Note_on_c, 0, 62, 123
2, 44175, Note_on_c, 0, 69, 123
2, 45089, Note_on_c, 0, 50, 0
2, 45104, Note_on_c, 0, 53, 0
2, 45119, Note_on_c, 0, 62, 0
2, 45119, Note_on_c, 0, 57, 0
2, 45119, Note_on_c, 0, 69, 0
2, 45120, Note_on_c, 0, 53, 123
2, 45120, Note_on_c, 0, 60, 123
2, 45120, Note_on_c, 0, 65, 123
2, 45299, Note_on_c, 0, 65, 0
2, 45299, Note_on_c, 0, 60, 0
2, 45299, Note_on_c, 0, 53, 0
2, 45300, Note_on_c, 0, 51, 123
2, 45300, Note_on_c, 0, 58, 123
2, 45300, Note_on_c, 0, 63, 123
2, 45599, Note_on_c, 0, 63, 0
2, 45599, Note_on_c, 0, 58, 0
2, 45599, Note_on_c, 0, 51, 0
2, 45600, Note_on_c, 0, 46, 123
2, 45600, Note_on_c, 0, 53, 123
2, 45600, Note_on_c, 0, 58, 123
2, 45779, Note_on_c, 0, 58, 0
2, 45779, Note_on_c, 0, 53, 0
2, 45779, Note_on_c, 0, 46, 0
2, 45780, Note_on_c, 0, 48, 123
2, 45780, Note_on_c, 0, 55, 123
2, 45780, Note_on_c, 0, 60, 123
2, 46079, Note_on_c, 0, 60, 0
2, 46079, Note_on_c, 0, 55, 0
2, 46079, Note_on_c, 0, 48, 0
2, 46080, Note_on_c, 0, 53, 123
2, 46080, Note_on_c, 0, 60, 123
2, 46080, Note_on_c, 0, 65, 123
2, 46259, Note_on_c, 0, 65, 0
2, 46259, Note_on_c, 0, 60, 0
2, 46259, Note_on_c, 0, 53, 0
2, 46260, Note_on_c, 0, 51, 123
2, 46260, Note_on_c, 0, 58, 123
2, 46260, Note_on_c, 0, 63, 123
2, 46559, Note_on_c, 0, 63, 0
2, 46559, Note_on_c, 0, 58, 0
2, 46559, Note_on_c, 0, 51, 0
2, 46560, Note_on_c, 0, 46, 123
2, 46560, Note_on_c, 0, 53, 123
2, 46560, Note_on_c, 0, 58, 123
2, 46739, Note_on_c, 0, 58, 0
2, 46739, Note_on_c, 0, 53, 0
2, 46739, Note_on_c, 0, 46, 0
2, 46740, Note_on_c, 0, 48, 123
2, 46740, Note_on_c, 0, 55, 123
2, 46740, Note_on_c, 0, 60, 123
2, 47039, Note_on_c, 0, 60, 0
2, 47039, Note_on_c, 0, 55, 0
2, 47039, Note_on_c, 0, 48, 0
2, 47040, Note_on_c, 0, 53, 123
2, 47040, Note_on_c, 0, 60, 123
2, 47040, Note_on_c, 0, 65, 123
2, 47219, Note_on_c, 0, 65, 0
2, 47219, Note_on_c, 0, 60, 0
2, 47219, Note_on_c, 0, 53, 0
2, 47220, Note_on_c, 0, 51, 123
2, 47220, Note_on_c, 0, 58, 123
2, 47220, Note_on_c, 0, 63, 123
2, 47519, Note_on_c, 0, 63, 0
2, 47519, Note_on_c, 0, 58, 0
2, 47519, Note_on_c, 0, 51, 0
2, 47520, Note_on_c, 0, 46, 123
2, 47520, Note_on_c, 0, 53, 123
2, 47520, Note_on_c, 0, 58, 123
2, 47699, Note_on_c, 0, 58, 0
2, 47699, Note_on_c, 0, 53, 0
2, 47699, Note_on_c, 0, 46, 0
2, 47700, Note_on_c, 0, 48, 123
2, 47700, Note_on_c, 0, 55, 123
2, 47700, Note_on_c, 0, 60, 123
2, 49439, Note_on_c, 0, 60, 0
2, 49439, Note_on_c, 0, 55, 0
2, 49439, Note_on_c, 0, 48, 0
2, 49439, End_track
3, 0, Start_track
3, 0, MIDI_port, 0
3, 0, Title_t, "ORGAN"
3, 0, Program_c, 1, 16
3, 0, Control_c, 1, 7, 55
3, 0, Control_c, 1, 10, 64
3, 6483, Note_on_c, 1, 64, 90
3, 6602, Note_on_c, 1, 64, 0
3, 6603, Note_on_c, 1, 65, 90
3, 6722, Note_on_c, 1, 65, 0
3, 6723, Note_on_c, 1, 60, 90
3, 6723, Note_on_c, 1, 67, 90
3, 7442, Note_on_c, 1, 67, 0
3, 7442, Note_on_c, 1, 60, 0
3, 7443, Note_on_c, 1, 64, 90
3, 7562, Note_on_c, 1, 64, 0
3, 7563, Note_on_c, 1, 65, 90
3, 7682, Note_on_c, 1, 65, 0
3, 7683, Note_on_c, 1, 60, 90
3, 7683, Note_on_c, 1, 67, 90
3, 8402, Note_on_c, 1, 67, 0
3, 8402, Note_on_c, 1, 60, 0
3, 8403, Note_on_c, 1, 64, 90
3, 8522, Note_on_c, 1, 64, 0
3, 8523, Note_on_c, 1, 65, 90
3, 8642, Note_on_c, 1, 65, 0
3, 8643, Note_on_c, 1, 67, 90
3, 8643, Note_on_c, 1, 60, 90
3, 9362, Note_on_c, 1, 60, 0
3, 9362, Note_on_c, 1, 67, 0
3, 9363, Note_on_c, 1, 64, 90
3, 9482, Note_on_c, 1, 64, 0
3, 9483, Note_on_c, 1, 65, 90
3, 9602, Note_on_c, 1, 65, 0
3, 9603, Note_on_c, 1, 60, 90
3, 9603, Note_on_c, 1, 67, 90
3, 9722, Note_on_c, 1, 67, 0
3, 9722, Note_on_c, 1, 60, 0
3, 9723, Note_on_c, 1, 60, 90
3, 9723, Note_on_c, 1, 67, 90
3, 9723, Control_c, 1, 7, 70
3, 9723, Note_on_c, 1, 70, 123
3, 9723, Note_on_c, 1, 74, 123
3, 9842, Note_on_c, 1, 74, 0
3, 9842, Note_on_c, 1, 70, 0
3, 9843, Note_on_c, 1, 72, 123
3, 9843, Note_on_c, 1, 76, 123
3, 9962, Note_on_c, 1, 76, 0
3, 9962, Note_on_c, 1, 72, 0
3, 9963, Note_on_c, 1, 72, 123
3, 9963, Note_on_c, 1, 77, 123
3, 10082, Note_on_c, 1, 77, 0
3, 10082, Note_on_c, 1, 72, 0
3, 10083, Note_on_c, 1, 81, 123
3, 10083, Note_on_c, 1, 76, 123
3, 10083, Note_on_c, 1, 72, 123
3, 10172, Note_on_c, 1, 81, 0
3, 10173, Note_on_c, 1, 79, 123
3, 10242, Note_on_c, 1, 79, 0
3, 10242, Note_on_c, 1, 72, 0
3, 10243, Note_on_c, 1, 77, 123
3, 10243, Note_on_c, 1, 72, 123
3, 10262, Note_on_c, 1, 76, 0
3, 10322, Note_on_c, 1, 77, 0
3, 10322, Note_on_c, 1, 60, 0
3, 10322, Note_on_c, 1, 67, 0
3, 10322, Note_on_c, 1, 72, 0
3, 10323, Note_on_c, 1, 72, 123
3, 10323, Note_on_c, 1, 76, 123
3, 10323, Note_on_c, 1, 79, 123
3, 10562, Note_on_c, 1, 79, 0
3, 10562, Note_on_c, 1, 76, 0
3, 10562, Note_on_c, 1, 72, 0
3, 10563, Control_c, 1, 7, 60
3, 10563, Note_on_c, 1, 60, 127
3, 10563, Note_on_c, 1, 72, 101
3, 10622, Note_on_c, 1, 72, 0
3, 10623, Note_on_c, 1, 67, 101
3, 10682, Note_on_c, 1, 67, 0
3, 10683, Note_on_c, 1, 75, 101
3, 10742, Note_on_c, 1, 75, 0
3, 10743, Note_on_c, 1, 76, 101
3, 10802, Note_on_c, 1, 76, 0
3, 10803, Note_on_c, 1, 72, 101
3, 10832, Note_on_c, 1, 72, 0
3, 10863, Note_on_c, 1, 72, 101
3, 10922, Note_on_c, 1, 72, 0
3, 10923, Note_on_c, 1, 75, 101
3, 10982, Note_on_c, 1, 75, 0
3, 10983, Note_on_c, 1, 76, 101
3, 11042, Note_on_c, 1, 76, 0
3, 11043, Note_on_c, 1, 72, 101
3, 11072, Note_on_c, 1, 72, 0
3, 11103, Note_on_c, 1, 72, 101
3, 11162, Note_on_c, 1, 72, 0
3, 11163, Note_on_c, 1, 75, 101
3, 11222, Note_on_c, 1, 75, 0
3, 11223, Note_on_c, 1, 77, 101
3, 11268, Note_on_c, 1, 78, 101
3, 11282, Note_on_c, 1, 78, 0
3, 11282, Note_on_c, 1, 77, 0
3, 11283, Note_on_c, 1, 79, 123
3, 11312, Note_on_c, 1, 79, 0
3, 11328, Note_on_c, 1, 78, 101
3, 11342, Note_on_c, 1, 78, 0
3, 11343, Note_on_c, 1, 79, 123
3, 11402, Note_on_c, 1, 79, 0
3, 11403, Note_on_c, 1, 77, 101
3, 11432, Note_on_c, 1, 77, 0
3, 11433, Note_on_c, 1, 75, 101
3, 11463, Note_on_c, 1, 72, 101
3, 11492, Note_on_c, 1, 72, 0
3, 11492, Note_on_c, 1, 75, 0
3, 11522, Note_on_c, 1, 60, 0
3, 11523, Note_on_c, 1, 79, 123
3, 11523, Note_on_c, 1, 84, 101
3, 11523, Note_on_c, 1, 72, 101
3, 11582, Note_on_c, 1, 72, 0
3, 11583, Note_on_c, 1, 67, 101
3, 11642, Note_on_c, 1, 67, 0
3, 11643, Note_on_c, 1, 75, 101
3, 11702, Note_on_c, 1, 75, 0
3, 11703, Note_on_c, 1, 76, 101
3, 11762, Note_on_c, 1, 76, 0
3, 11763, Note_on_c, 1, 72, 101
3, 11792, Note_on_c, 1, 72, 0
3, 11823, Note_on_c, 1, 72, 101
3, 11882, Note_on_c, 1, 72, 0
3, 11883, Note_on_c, 1, 75, 101
3, 11942, Note_on_c, 1, 75, 0
3, 11943, Note_on_c, 1, 76, 101
3, 12002, Note_on_c, 1, 76, 0
3, 12003, Note_on_c, 1, 72, 101
3, 12032, Note_on_c, 1, 72, 0
3, 12063, Note_on_c, 1, 72, 101
3, 12122, Note_on_c, 1, 72, 0
3, 12123, Note_on_c, 1, 75, 101
3, 12182, Note_on_c, 1, 75, 0
3, 12183, Note_on_c, 1, 77, 101
3, 12228, Note_on_c, 1, 78, 101
3, 12242, Note_on_c, 1, 78, 0
3, 12242, Note_on_c, 1, 77, 0
3, 12243, Note_on_c, 1, 79, 123
3, 12272, Note_on_c, 1, 79, 0
3, 12272, Note_on_c, 1, 79, 0
3, 12288, Note_on_c, 1, 78, 101
3, 12302, Note_on_c, 1, 78, 0
3, 12303, Note_on_c, 1, 79, 123
3, 12363, Note_on_c, 1, 77, 101
3, 12392, Note_on_c, 1, 77, 0
3, 12393, Note_on_c, 1, 75, 101
3, 12423, Note_on_c, 1, 72, 101
3, 12452, Note_on_c, 1, 72, 0
3, 12452, Note_on_c, 1, 75, 0
3, 12483, Note_on_c, 1, 72, 101
3, 12542, Note_on_c, 1, 72, 0
3, 12543, Note_on_c, 1, 67, 101
3, 12602, Note_on_c, 1, 67, 0
3, 12603, Note_on_c, 1, 75, 101
3, 12662, Note_on_c, 1, 75, 0
3, 12663, Note_on_c, 1, 76, 101
3, 12722, Note_on_c, 1, 76, 0
3, 12723, Note_on_c, 1, 72, 101
3, 12752, Note_on_c, 1, 72, 0
3, 12783, Note_on_c, 1, 72, 101
3, 12842, Note_on_c, 1, 72, 0
3, 12843, Note_on_c, 1, 75, 101
3, 12902, Note_on_c, 1, 75, 0
3, 12903, Note_on_c, 1, 76, 101
3, 12962, Note_on_c, 1, 76, 0
3, 12963, Note_on_c, 1, 72, 101
3, 12992, Note_on_c, 1, 72, 0
3, 13023, Note_on_c, 1, 72, 101
3, 13082, Note_on_c, 1, 72, 0
3, 13083, Note_on_c, 1, 75, 101
3, 13142, Note_on_c, 1, 75, 0
3, 13143, Note_on_c, 1, 77, 101
3, 13188, Note_on_c, 1, 78, 101
3, 13202, Note_on_c, 1, 78, 0
3, 13202, Note_on_c, 1, 77, 0
3, 13203, Note_on_c, 1, 79, 123
3, 13232, Note_on_c, 1, 79, 0
3, 13232, Note_on_c, 1, 79, 0
3, 13248, Note_on_c, 1, 78, 101
3, 13262, Note_on_c, 1, 78, 0
3, 13263, Note_on_c, 1, 79, 127
3, 13323, Note_on_c, 1, 77, 101
3, 13352, Note_on_c, 1, 77, 0
3, 13353, Note_on_c, 1, 75, 101
3, 13383, Note_on_c, 1, 72, 101
3, 13412, Note_on_c, 1, 72, 0
3, 13412, Note_on_c, 1, 75, 0
3, 13443, Note_on_c, 1, 67, 101
3, 13563, Note_on_c, 1, 72, 101
3, 13683, Note_on_c, 1, 76, 101
3, 13802, Note_on_c, 1, 76, 0
3, 13803, Note_on_c, 1, 77, 101
3, 13862, Note_on_c, 1, 77, 0
3, 13863, Note_on_c, 1, 76, 101
3, 13892, Note_on_c, 1, 72, 0
3, 13922, Note_on_c, 1, 76, 0
3, 13923, Note_on_c, 1, 72, 101
3, 14162, Note_on_c, 1, 84, 0
3, 14162, Note_on_c, 1, 67, 0
3, 14162, Note_on_c, 1, 79, 0
3, 14163, Control_c, 1, 7, 85
3, 14163, Note_on_c, 1, 74, 123
3, 14163, Note_on_c, 1, 77, 123
3, 14163, Note_on_c, 1, 82, 123
3, 14252, Note_on_c, 1, 82, 0
3, 14252, Note_on_c, 1, 77, 0
3, 14252, Note_on_c, 1, 74, 0
3, 14282, Note_on_c, 1, 72, 0
3, 14283, Note_on_c, 1, 81, 123
3, 14283, Note_on_c, 1, 77, 123
3, 14283, Note_on_c, 1, 72, 123
3, 14402, Note_on_c, 1, 72, 0
3, 14402, Note_on_c, 1, 77, 0
3, 14402, Note_on_c, 1, 81, 0
3, 14403, Note_on_c, 1, 67, 90
3, 14403, Note_on_c, 1, 76, 90
3, 14403, Note_on_c, 1, 72, 90
3, 14492, Note_on_c, 1, 72, 0
3, 14492, Note_on_c, 1, 76, 0
3, 14492, Note_on_c, 1, 67, 0
3, 14523, Note_on_c, 1, 76, 90
3, 14523, Note_on_c, 1, 67, 90
3, 14523, Note_on_c, 1, 72, 90
3, 14702, Note_on_c, 1, 72, 0
3, 14702, Note_on_c, 1, 76, 0
3, 14703, Note_on_c, 1, 72, 90
3, 14762, Note_on_c, 1, 72, 0
3, 14763, Note_on_c, 1, 77, 90
3, 14822, Note_on_c, 1, 77, 0
3, 14823, Note_on_c, 1, 76, 90
3, 14882, Note_on_c, 1, 67, 0
3, 14883, Note_on_c, 1, 58, 90
3, 14883, Note_on_c, 1, 60, 90
3, 14972, Note_on_c, 1, 60, 0
3, 14972, Note_on_c, 1, 58, 0
3, 15003, Note_on_c, 1, 58, 90
3, 15003, Note_on_c, 1, 60, 90
3, 15122, Note_on_c, 1, 60, 0
3, 15122, Note_on_c, 1, 58, 0
3, 15122, Note_on_c, 1, 76, 0
3, 15123, Note_on_c, 1, 82, 123
3, 15123, Note_on_c, 1, 77, 123
3, 15123, Note_on_c, 1, 74, 123
3, 15212, Note_on_c, 1, 74, 0
3, 15212, Note_on_c, 1, 77, 0
3, 15212, Note_on_c, 1, 82, 0
3, 15243, Note_on_c, 1, 81, 123
3, 15243, Note_on_c, 1, 77, 123
3, 15243, Note_on_c, 1, 72, 123
3, 15362, Note_on_c, 1, 72, 0
3, 15362, Note_on_c, 1, 77, 0
3, 15362, Note_on_c, 1, 81, 0
3, 15363, Note_on_c, 1, 67, 90
3, 15363, Note_on_c, 1, 76, 90
3, 15363, Note_on_c, 1, 72, 90
3, 15452, Note_on_c, 1, 72, 0
3, 15452, Note_on_c, 1, 76, 0
3, 15452, Note_on_c, 1, 67, 0
3, 15483, Note_on_c, 1, 67, 90
3, 15483, Note_on_c, 1, 72, 90
3, 15483, Note_on_c, 1, 76, 90
3, 15662, Note_on_c, 1, 76, 0
3, 15662, Note_on_c, 1, 72, 0
3, 15663, Note_on_c, 1, 72, 90
3, 15722, Note_on_c, 1, 72, 0
3, 15723, Note_on_c, 1, 77, 90
3, 15782, Note_on_c, 1, 77, 0
3, 15783, Note_on_c, 1, 76, 90
3, 15842, Note_on_c, 1, 67, 0
3, 15843, Note_on_c, 1, 58, 90
3, 15843, Note_on_c, 1, 60, 90
3, 15932, Note_on_c, 1, 60, 0
3, 15932, Note_on_c, 1, 58, 0
3, 15963, Note_on_c, 1, 58, 90
3, 15963, Note_on_c, 1, 60, 90
3, 16082, Note_on_c, 1, 60, 0
3, 16082, Note_on_c, 1, 58, 0
3, 16082, Note_on_c, 1, 76, 0
3, 16083, Note_on_c, 1, 82, 123
3, 16083, Note_on_c, 1, 77, 123
3, 16083, Note_on_c, 1, 74, 123
3, 16172, Note_on_c, 1, 74, 0
3, 16172, Note_on_c, 1, 77, 0
3, 16172, Note_on_c, 1, 82, 0
3, 16203, Note_on_c, 1, 81, 123
3, 16203, Note_on_c, 1, 77, 123
3, 16203, Note_on_c, 1, 72, 123
3, 16322, Note_on_c, 1, 72, 0
3, 16322, Note_on_c, 1, 77, 0
3, 16322, Note_on_c, 1, 81, 0
3, 16323, Note_on_c, 1, 67, 90
3, 16323, Note_on_c, 1, 76, 90
3, 16323, Note_on_c, 1, 72, 90
3, 16412, Note_on_c, 1, 72, 0
3, 16412, Note_on_c, 1, 76, 0
3, 16412, Note_on_c, 1, 67, 0
3, 16443, Note_on_c, 1, 67, 90
3, 16443, Note_on_c, 1, 72, 90
3, 16443, Note_on_c, 1, 76, 90
3, 16622, Note_on_c, 1, 76, 0
3, 16622, Note_on_c, 1, 72, 0
3, 16623, Note_on_c, 1, 72, 90
3, 16682, Note_on_c, 1, 72, 0
3, 16683, Note_on_c, 1, 77, 90
3, 16742, Note_on_c, 1, 77, 0
3, 16743, Note_on_c, 1, 76, 90
3, 16802, Note_on_c, 1, 67, 0
3, 16803, Note_on_c, 1, 58, 90
3, 16803, Note_on_c, 1, 60, 90
3, 16892, Note_on_c, 1, 60, 0
3, 16892, Note_on_c, 1, 58, 0
3, 16923, Note_on_c, 1, 58, 90
3, 16923, Note_on_c, 1, 60, 90
3, 17042, Note_on_c, 1, 60, 0
3, 17042, Note_on_c, 1, 58, 0
3, 17042, Note_on_c, 1, 76, 0
3, 17043, Note_on_c, 1, 82, 123
3, 17043, Note_on_c, 1, 77, 123
3, 17043, Note_on_c, 1, 74, 123
3, 17132, Note_on_c, 1, 74, 0
3, 17132, Note_on_c, 1, 77, 0
3, 17132, Note_on_c, 1, 82, 0
3, 17163, Note_on_c, 1, 81, 123
3, 17163, Note_on_c, 1, 77, 123
3, 17163, Note_on_c, 1, 72, 123
3, 17282, Note_on_c, 1, 72, 0
3, 17282, Note_on_c, 1, 77, 0
3, 17282, Note_on_c, 1, 81, 0
3, 17283, Control_c, 1, 7, 75
3, 17283, Note_on_c, 1, 76, 111
3, 17283, Note_on_c, 1, 79, 111
3, 17283, Note_on_c, 1, 82, 111
3, 17283, Note_on_c, 1, 72, 111
3, 17522, Note_on_c, 1, 72, 0
3, 17522, Note_on_c, 1, 76, 0
3, 17522, Note_on_c, 1, 79, 0
3, 17522, Note_on_c, 1, 82, 0
3, 17523, Note_on_c, 1, 79, 111
3, 17523, Note_on_c, 1, 82, 111
3, 17523, Note_on_c, 1, 76, 111
3, 17523, Note_on_c, 1, 72, 111
3, 17732, Note_on_c, 1, 72, 0
3, 17732, Note_on_c, 1, 79, 0
3, 17732, Note_on_c, 1, 82, 0
3, 17732, Note_on_c, 1, 76, 0
3, 17763, Note_on_c, 1, 76, 111
3, 17763, Note_on_c, 1, 79, 111
3, 17763, Note_on_c, 1, 82, 111
3, 17763, Note_on_c, 1, 72, 111
3, 17852, Note_on_c, 1, 72, 0
3, 17852, Note_on_c, 1, 76, 0
3, 17852, Note_on_c, 1, 79, 0
3, 17852, Note_on_c, 1, 82, 0
3, 17883, Note_on_c, 1, 82, 111
3, 17883, Note_on_c, 1, 79, 111
3, 17883, Note_on_c, 1, 76, 111
3, 17883, Note_on_c, 1, 72, 111
3, 17972, Note_on_c, 1, 72, 0
3, 17972, Note_on_c, 1, 82, 0
3, 17972, Note_on_c, 1, 79, 0
3, 17972, Note_on_c, 1, 76, 0
3, 18003, Note_on_c, 1, 76, 111
3, 18003, Note_on_c, 1, 72, 111
3, 18003, Note_on_c, 1, 82, 111
3, 18003, Note_on_c, 1, 79, 111
3, 18092, Note_on_c, 1, 79, 0
3, 18092, Note_on_c, 1, 76, 0
3, 18092, Note_on_c, 1, 72, 0
3, 18092, Note_on_c, 1, 82, 0
3, 18123, Note_on_c, 1, 82, 111
3, 18123, Note_on_c, 1, 79, 111
3, 18123, Note_on_c, 1, 76, 111
3, 18123, Note_on_c, 1, 72, 111
3, 18242, Note_on_c, 1, 72, 0
3, 18242, Note_on_c, 1, 82, 0
3, 18242, Note_on_c, 1, 79, 0
3, 18242, Note_on_c, 1, 76, 0
3, 18243, Control_c, 1, 7, 90
3, 18243, Note_on_c, 1, 60, 90
3, 18243, Note_on_c, 1, 65, 90
3, 18243, Note_on_c, 1, 69, 90
3, 18662, Note_on_c, 1, 69, 0
3, 18662, Note_on_c, 1, 65, 0
3, 18662, Note_on_c, 1, 60, 0
3, 18663, Note_on_c, 1, 62, 90
3, 18663, Note_on_c, 1, 65, 90
3, 18663, Note_on_c, 1, 70, 90
3, 18902, Note_on_c, 1, 70, 0
3, 18902, Note_on_c, 1, 65, 0
3, 18902, Note_on_c, 1, 62, 0
3, 18903, Note_on_c, 1, 64, 90
3, 18903, Note_on_c, 1, 67, 90
3, 18903, Note_on_c, 1, 72, 90
3, 19022, Note_on_c, 1, 72, 0
3, 19022, Note_on_c, 1, 67, 0
3, 19022, Note_on_c, 1, 64, 0
3, 19023, Note_on_c, 1, 72, 123
3, 19052, Note_on_c, 1, 72, 0
3, 19068, Note_on_c, 1, 75, 123
3, 19082, Note_on_c, 1, 75, 0
3, 19083, Note_on_c, 1, 76, 123
3, 19142, Note_on_c, 1, 76, 0
3, 19143, Note_on_c, 1, 72, 123
3, 19202, Note_on_c, 1, 72, 0
3, 19203, Note_on_c, 1, 69, 90
3, 19203, Note_on_c, 1, 72, 90
3, 19203, Note_on_c, 1, 65, 90
3, 19652, Note_on_c, 1, 65, 0
3, 19652, Note_on_c, 1, 72, 0
3, 19652, Note_on_c, 1, 69, 0
3, 19683, Note_on_c, 1, 74, 90
3, 19683, Note_on_c, 1, 67, 90
3, 19683, Note_on_c, 1, 71, 90
3, 19832, Note_on_c, 1, 71, 0
3, 19862, Note_on_c, 1, 67, 0
3, 19862, Note_on_c, 1, 74, 0
3, 19863, Note_on_c, 1, 67, 90
3, 19863, Note_on_c, 1, 76, 90
3, 19863, Note_on_c, 1, 72, 90
3, 19982, Note_on_c, 1, 72, 0
3, 19982, Note_on_c, 1, 76, 0
3, 19982, Note_on_c, 1, 67, 0
3, 19983, Note_on_c, 1, 72, 123
3, 20012, Note_on_c, 1, 72, 0
3, 20028, Note_on_c, 1, 75, 123
3, 20042, Note_on_c, 1, 75, 0
3, 20043, Note_on_c, 1, 76, 123
3, 20102, Note_on_c, 1, 76, 0
3, 20103, Note_on_c, 1, 72, 123
3, 20162, Note_on_c, 1, 72, 0
3, 20163, Note_on_c, 1, 65, 99
3, 20163, Note_on_c, 1, 72, 99
3, 20163, Note_on_c, 1, 69, 99
3, 20582, Note_on_c, 1, 69, 0
3, 20582, Note_on_c, 1, 72, 0
3, 20583, Note_on_c, 1, 70, 99
3, 20583, Note_on_c, 1, 74, 99
3, 20792, Note_on_c, 1, 74, 0
3, 20792, Note_on_c, 1, 70, 0
3, 20822, Note_on_c, 1, 65, 0
3, 20823, Note_on_c, 1, 72, 99
3, 20823, Note_on_c, 1, 76, 99
3, 20823, Note_on_c, 1, 67, 99
3, 20942, Note_on_c, 1, 67, 0
3, 20942, Note_on_c, 1, 76, 0
3, 20942, Note_on_c, 1, 72, 0
3, 20943, Note_on_c, 1, 67, 111
3, 20943, Note_on_c, 1, 72, 111
3, 20943, Note_on_c, 1, 76, 111
3, 21002, Note_on_c, 1, 76, 0
3, 21002, Note_on_c, 1, 72, 0
3, 21002, Note_on_c, 1, 67, 0
3, 21003, Note_on_c, 1, 72, 111
3, 21003, Note_on_c, 1, 76, 111
3, 21003, Note_on_c, 1, 67, 111
3, 21062, Note_on_c, 1, 67, 0
3, 21062, Note_on_c, 1, 76, 0
3, 21062, Note_on_c, 1, 72, 0
3, 21063, Note_on_c, 1, 76, 111
3, 21063, Note_on_c, 1, 67, 111
3, 21063, Note_on_c, 1, 72, 111
3, 21122, Note_on_c, 1, 72, 0
3, 21122, Note_on_c, 1, 67, 0
3, 21122, Note_on_c, 1, 76, 0
3, 21123, Note_on_c, 1, 69, 111
3, 21123, Note_on_c, 1, 74, 111
3, 21123, Note_on_c, 1, 65, 111
3, 21157, Control_c, 1, 7, 89
3, 21207, Control_c, 1, 7, 88
3, 21232, Control_c, 1, 7, 86
3, 21242, Control_c, 1, 7, 84
3, 21257, Control_c, 1, 7, 83
3, 21262, Control_c, 1, 7, 82
3, 21267, Control_c, 1, 7, 81
3, 21282, Control_c, 1, 7, 79
3, 21292, Control_c, 1, 7, 77
3, 21302, Control_c, 1, 7, 76
3, 21307, Control_c, 1, 7, 74
3, 21317, Control_c, 1, 7, 72
3, 21322, Control_c, 1, 7, 70
3, 21327, Control_c, 1, 7, 69
3, 21337, Control_c, 1, 7, 67
3, 21342, Control_c, 1, 7, 66
3, 21352, Control_c, 1, 7, 64
3, 21357, Control_c, 1, 7, 63
3, 21372, Control_c, 1, 7, 62
3, 21377, Control_c, 1, 7, 61
3, 21387, Control_c, 1, 7, 60
3, 21402, Control_c, 1, 7, 59
3, 21407, Control_c, 1, 7, 57
3, 21422, Control_c, 1, 7, 56
3, 21437, Control_c, 1, 7, 55
3, 21442, Control_c, 1, 7, 53
3, 21452, Control_c, 1, 7, 52
3, 21462, Control_c, 1, 7, 50
3, 21472, Control_c, 1, 7, 49
3, 21477, Control_c, 1, 7, 47
3, 21487, Control_c, 1, 7, 46
3, 21492, Control_c, 1, 7, 44
3, 21502, Control_c, 1, 7, 43
3, 21517, Control_c, 1, 7, 41
3, 21527, Control_c, 1, 7, 39
3, 21537, Control_c, 1, 7, 38
3, 21547, Control_c, 1, 7, 36
3, 21567, Control_c, 1, 7, 35
3, 21577, Control_c, 1, 7, 33
3, 21587, Control_c, 1, 7, 32
3, 21592, Control_c, 1, 7, 30
3, 21602, Control_c, 1, 7, 29
3, 21617, Control_c, 1, 7, 27
3, 21627, Control_c, 1, 7, 26
3, 21642, Control_c, 1, 7, 24
3, 21652, Control_c, 1, 7, 22
3, 21657, Control_c, 1, 7, 21
3, 21667, Control_c, 1, 7, 19
3, 21682, Control_c, 1, 7, 18
3, 21687, Control_c, 1, 7, 15
3, 21692, Control_c, 1, 7, 14
3, 21697, Control_c, 1, 7, 13
3, 21707, Control_c, 1, 7, 12
3, 21717, Control_c, 1, 7, 10
3, 21722, Control_c, 1, 7, 9
3, 21742, Control_c, 1, 7, 7
3, 21752, Note_on_c, 1, 65, 0
3, 21752, Note_on_c, 1, 74, 0
3, 21752, Note_on_c, 1, 69, 0
3, 21752, Control_c, 1, 7, 5
3, 21757, Control_c, 1, 7, 4
3, 21772, Control_c, 1, 7, 2
3, 21782, Control_c, 1, 7, 1
3, 21807, Control_c, 1, 7, 0
3, 22083, Control_c, 1, 7, 85
3, 22083, Note_on_c, 1, 60, 90
3, 22083, Note_on_c, 1, 65, 123
3, 22262, Note_on_c, 1, 65, 0
3, 22262, Note_on_c, 1, 60, 0
3, 22263, Note_on_c, 1, 58, 90
3, 22263, Note_on_c, 1, 63, 123
3, 22562, Note_on_c, 1, 63, 0
3, 22562, Note_on_c, 1, 58, 0
3, 22563, Note_on_c, 1, 53, 90
3, 22563, Note_on_c, 1, 58, 123
3, 22742, Note_on_c, 1, 58, 0
3, 22742, Note_on_c, 1, 53, 0
3, 22743, Note_on_c, 1, 55, 90
3, 22743, Note_on_c, 1, 60, 123
3, 23042, Note_on_c, 1, 60, 0
3, 23042, Note_on_c, 1, 55, 0
3, 23043, Note_on_c, 1, 60, 90
3, 23043, Note_on_c, 1, 65, 123
3, 23222, Note_on_c, 1, 65, 0
3, 23222, Note_on_c, 1, 60, 0
3, 23223, Note_on_c, 1, 58, 90
3, 23223, Note_on_c, 1, 63, 123
3, 23522, Note_on_c, 1, 63, 0
3, 23522, Note_on_c, 1, 58, 0
3, 23523, Note_on_c, 1, 53, 90
3, 23523, Note_on_c, 1, 58, 123
3, 23702, Note_on_c, 1, 58, 0
3, 23702, Note_on_c, 1, 53, 0
3, 23703, Note_on_c, 1, 55, 90
3, 23703, Note_on_c, 1, 60, 123
3, 24002, Note_on_c, 1, 60, 0
3, 24002, Note_on_c, 1, 55, 0
3, 24003, Control_c, 1, 7, 80
3, 24003, Note_on_c, 1, 58, 123
3, 24003, Note_on_c, 1, 60, 123
3, 24062, Note_on_c, 1, 60, 0
3, 24062, Note_on_c, 1, 58, 0
3, 24063, Note_on_c, 1, 58, 123
3, 24063, Note_on_c, 1, 60, 123
3, 24092, Note_on_c, 1, 60, 0
3, 24092, Note_on_c, 1, 58, 0
3, 24723, Note_on_c, 1, 64, 90
3, 24842, Note_on_c, 1, 64, 0
3, 24843, Note_on_c, 1, 65, 90
3, 24962, Note_on_c, 1, 65, 0
3, 24963, Note_on_c, 1, 60, 90
3, 24963, Note_on_c, 1, 67, 90
3, 25082, Note_on_c, 1, 60, 0
3, 25083, Note_on_c, 1, 62, 90
3, 25202, Note_on_c, 1, 62, 0
3, 25203, Note_on_c, 1, 64, 90
3, 25322, Note_on_c, 1, 64, 0
3, 25323, Note_on_c, 1, 65, 90
3, 25382, Note_on_c, 1, 65, 0
3, 25383, Note_on_c, 1, 64, 90
3, 25442, Note_on_c, 1, 64, 0
3, 25443, Note_on_c, 1, 60, 90
3, 25682, Note_on_c, 1, 67, 0
3, 25683, Note_on_c, 1, 64, 90
3, 25802, Note_on_c, 1, 64, 0
3, 25803, Note_on_c, 1, 65, 90
3, 25922, Note_on_c, 1, 65, 0
3, 25922, Note_on_c, 1, 60, 0
3, 25923, Note_on_c, 1, 67, 90
3, 25923, Note_on_c, 1, 60, 90
3, 26042, Note_on_c, 1, 60, 0
3, 26043, Note_on_c, 1, 62, 90
3, 26162, Note_on_c, 1, 62, 0
3, 26163, Note_on_c, 1, 64, 90
3, 26282, Note_on_c, 1, 64, 0
3, 26283, Note_on_c, 1, 65, 90
3, 26342, Note_on_c, 1, 65, 0
3, 26343, Note_on_c, 1, 64, 90
3, 26462, Note_on_c, 1, 64, 0
3, 26463, Note_on_c, 1, 60, 90
3, 26642, Note_on_c, 1, 67, 0
3, 26643, Note_on_c, 1, 64, 90
3, 26762, Note_on_c, 1, 64, 0
3, 26763, Note_on_c, 1, 65, 90
3, 26882, Note_on_c, 1, 65, 0
3, 26882, Note_on_c, 1, 60, 0
3, 26883, Note_on_c, 1, 60, 123
3, 27002, Note_on_c, 1, 60, 0
3, 27003, Note_on_c, 1, 62, 123
3, 27122, Note_on_c, 1, 62, 0
3, 27123, Note_on_c, 1, 64, 123
3, 27123, Note_on_c, 1, 60, 123
3, 27242, Note_on_c, 1, 64, 0
3, 27243, Note_on_c, 1, 65, 123
3, 27362, Note_on_c, 1, 65, 0
3, 27363, Note_on_c, 1, 69, 123
3, 27452, Note_on_c, 1, 69, 0
3, 27453, Note_on_c, 1, 67, 123
3, 27522, Note_on_c, 1, 67, 0
3, 27523, Note_on_c, 1, 65, 123
3, 27603, Note_on_c, 1, 67, 123
3, 27612, Note_on_c, 1, 65, 0
3, 27842, Note_on_c, 1, 67, 0
3, 27842, Note_on_c, 1, 60, 0
3, 27843, Note_on_c, 1, 60, 127
3, 27843, Note_on_c, 1, 72, 101
3, 27902, Note_on_c, 1, 72, 0
3, 27903, Note_on_c, 1, 67, 101
3, 27962, Note_on_c, 1, 67, 0
3, 27963, Note_on_c, 1, 75, 101
3, 28022, Note_on_c, 1, 75, 0
3, 28023, Note_on_c, 1, 76, 101
3, 28082, Note_on_c, 1, 76, 0
3, 28083, Note_on_c, 1, 72, 101
3, 28112, Note_on_c, 1, 72, 0
3, 28143, Note_on_c, 1, 72, 101
3, 28202, Note_on_c, 1, 72, 0
3, 28203, Note_on_c, 1, 75, 101
3, 28262, Note_on_c, 1, 75, 0
3, 28263, Note_on_c, 1, 76, 101
3, 28322, Note_on_c, 1, 76, 0
3, 28323, Note_on_c, 1, 72, 101
3, 28352, Note_on_c, 1, 72, 0
3, 28383, Note_on_c, 1, 72, 101
3, 28442, Note_on_c, 1, 72, 0
3, 28443, Note_on_c, 1, 75, 101
3, 28502, Note_on_c, 1, 75, 0
3, 28503, Note_on_c, 1, 77, 101
3, 28548, Note_on_c, 1, 78, 101
3, 28562, Note_on_c, 1, 78, 0
3, 28562, Note_on_c, 1, 77, 0
3, 28563, Note_on_c, 1, 79, 123
3, 28592, Note_on_c, 1, 79, 0
3, 28608, Note_on_c, 1, 78, 101
3, 28622, Note_on_c, 1, 78, 0
3, 28623, Note_on_c, 1, 79, 123
3, 28682, Note_on_c, 1, 79, 0
3, 28683, Note_on_c, 1, 77, 101
3, 28712, Note_on_c, 1, 77, 0
3, 28713, Note_on_c, 1, 75, 101
3, 28743, Note_on_c, 1, 72, 101
3, 28772, Note_on_c, 1, 72, 0
3, 28772, Note_on_c, 1, 75, 0
3, 28802, Note_on_c, 1, 60, 0
3, 28803, Note_on_c, 1, 79, 123
3, 28803, Note_on_c, 1, 84, 101
3, 28803, Note_on_c, 1, 72, 101
3, 28862, Note_on_c, 1, 72, 0
3, 28863, Note_on_c, 1, 67, 101
3, 28922, Note_on_c, 1, 67, 0
3, 28923, Note_on_c, 1, 75, 101
3, 28982, Note_on_c, 1, 75, 0
3, 28983, Note_on_c, 1, 76, 101
3, 29042, Note_on_c, 1, 76, 0
3, 29043, Note_on_c, 1, 72, 101
3, 29072, Note_on_c, 1, 72, 0
3, 29103, Note_on_c, 1, 72, 101
3, 29162, Note_on_c, 1, 72, 0
3, 29163, Note_on_c, 1, 75, 101
3, 29222, Note_on_c, 1, 75, 0
3, 29223, Note_on_c, 1, 76, 101
3, 29282, Note_on_c, 1, 76, 0
3, 29283, Note_on_c, 1, 72, 101
3, 29312, Note_on_c, 1, 72, 0
3, 29343, Note_on_c, 1, 72, 101
3, 29402, Note_on_c, 1, 72, 0
3, 29403, Note_on_c, 1, 75, 101
3, 29462, Note_on_c, 1, 75, 0
3, 29463, Note_on_c, 1, 77, 101
3, 29508, Note_on_c, 1, 78, 101
3, 29522, Note_on_c, 1, 78, 0
3, 29522, Note_on_c, 1, 77, 0
3, 29523, Note_on_c, 1, 79, 123
3, 29552, Note_on_c, 1, 79, 0
3, 29552, Note_on_c, 1, 79, 0
3, 29568, Note_on_c, 1, 78, 101
3, 29582, Note_on_c, 1, 78, 0
3, 29583, Note_on_c, 1, 79, 123
3, 29643, Note_on_c, 1, 77, 101
3, 29672, Note_on_c, 1, 77, 0
3, 29673, Note_on_c, 1, 75, 101
3, 29703, Note_on_c, 1, 72, 101
3, 29732, Note_on_c, 1, 72, 0
3, 29732, Note_on_c, 1, 75, 0
3, 29763, Note_on_c, 1, 72, 101
3, 29822, Note_on_c, 1, 72, 0
3, 29823, Note_on_c, 1, 67, 101
3, 29882, Note_on_c, 1, 67, 0
3, 29883, Note_on_c, 1, 75, 101
3, 29942, Note_on_c, 1, 75, 0
3, 29943, Note_on_c, 1, 76, 101
3, 30002, Note_on_c, 1, 76, 0
3, 30003, Note_on_c, 1, 72, 101
3, 30032, Note_on_c, 1, 72, 0
3, 30063, Note_on_c, 1, 72, 101
3, 30122, Note_on_c, 1, 72, 0
3, 30123, Note_on_c, 1, 75, 101
3, 30182, Note_on_c, 1, 75, 0
3, 30183, Note_on_c, 1, 76, 101
3, 30242, Note_on_c, 1, 76, 0
3, 30243, Note_on_c, 1, 72, 101
3, 30272, Note_on_c, 1, 72, 0
3, 30303, Note_on_c, 1, 72, 101
3, 30362, Note_on_c, 1, 72, 0
3, 30363, Note_on_c, 1, 75, 101
3, 30422, Note_on_c, 1, 75, 0
3, 30423, Note_on_c, 1, 77, 101
3, 30468, Note_on_c, 1, 78, 101
3, 30482, Note_on_c, 1, 78, 0
3, 30482, Note_on_c, 1, 77, 0
3, 30483, Note_on_c, 1, 79, 123
3, 30512, Note_on_c, 1, 79, 0
3, 30512, Note_on_c, 1, 79, 0
3, 30528, Note_on_c, 1, 78, 101
3, 30542, Note_on_c, 1, 78, 0
3, 30543, Note_on_c, 1, 79, 127
3, 30603, Note_on_c, 1, 77, 101
3, 30632, Note_on_c, 1, 77, 0
3, 30633, Note_on_c, 1, 75, 101
3, 30663, Note_on_c, 1, 72, 101
3, 30692, Note_on_c, 1, 72, 0
3, 30692, Note_on_c, 1, 75, 0
3, 30723, Note_on_c, 1, 67, 101
3, 30843, Note_on_c, 1, 72, 101
3, 30963, Note_on_c, 1, 76, 101
3, 31082, Note_on_c, 1, 76, 0
3, 31083, Note_on_c, 1, 77, 101
3, 31142, Note_on_c, 1, 77, 0
3, 31143, Note_on_c, 1, 76, 101
3, 31172, Note_on_c, 1, 72, 0
3, 31202, Note_on_c, 1, 76, 0
3, 31203, Note_on_c, 1, 72, 101
3, 31442, Note_on_c, 1, 84, 0
3, 31442, Note_on_c, 1, 67, 0
3, 31442, Note_on_c, 1, 79, 0
3, 31443, Note_on_c, 1, 74, 123
3, 31443, Note_on_c, 1, 77, 123
3, 31443, Note_on_c, 1, 82, 123
3, 31532, Note_on_c, 1, 82, 0
3, 31532, Note_on_c, 1, 77, 0
3, 31532, Note_on_c, 1, 74, 0
3, 31562, Note_on_c, 1, 72, 0
3, 31563, Note_on_c, 1, 81, 123
3, 31563, Note_on_c, 1, 77, 123
3, 31563, Note_on_c, 1, 72, 123
3, 31682, Note_on_c, 1, 72, 0
3, 31682, Note_on_c, 1, 77, 0
3, 31682, Note_on_c, 1, 81, 0
3, 31683, Note_on_c, 1, 67, 111
3, 31683, Note_on_c, 1, 76, 111
3, 31683, Note_on_c, 1, 72, 111
3, 31772, Note_on_c, 1, 72, 0
3, 31772, Note_on_c, 1, 76, 0
3, 31772, Note_on_c, 1, 67, 0
3, 31803, Note_on_c, 1, 67, 111
3, 31803, Note_on_c, 1, 72, 111
3, 31803, Note_on_c, 1, 76, 111
3, 31982, Note_on_c, 1, 76, 0
3, 31982, Note_on_c, 1, 72, 0
3, 31983, Note_on_c, 1, 72, 111
3, 32042, Note_on_c, 1, 72, 0
3, 32043, Note_on_c, 1, 77, 111
3, 32102, Note_on_c, 1, 77, 0
3, 32103, Note_on_c, 1, 76, 111
3, 32162, Note_on_c, 1, 67, 0
3, 32163, Note_on_c, 1, 60, 111
3, 32163, Note_on_c, 1, 64, 111
3, 32163, Note_on_c, 1, 70, 111
3, 32252, Note_on_c, 1, 70, 0
3, 32252, Note_on_c, 1, 64, 0
3, 32252, Note_on_c, 1, 60, 0
3, 32283, Note_on_c, 1, 60, 111
3, 32283, Note_on_c, 1, 64, 111
3, 32283, Note_on_c, 1, 70, 111
3, 32402, Note_on_c, 1, 70, 0
3, 32402, Note_on_c, 1, 76, 0
3, 32402, Note_on_c, 1, 60, 0
3, 32402, Note_on_c, 1, 64, 0
3, 32403, Note_on_c, 1, 82, 123
3, 32403, Note_on_c, 1, 77, 123
3, 32403, Note_on_c, 1, 74, 123
3, 32492, Note_on_c, 1, 74, 0
3, 32492, Note_on_c, 1, 77, 0
3, 32492, Note_on_c, 1, 82, 0
3, 32523, Note_on_c, 1, 81, 123
3, 32523, Note_on_c, 1, 77, 123
3, 32523, Note_on_c, 1, 72, 123
3, 32642, Note_on_c, 1, 72, 0
3, 32642, Note_on_c, 1, 77, 0
3, 32642, Note_on_c, 1, 81, 0
3, 32643, Note_on_c, 1, 67, 111
3, 32643, Note_on_c, 1, 76, 111
3, 32643, Note_on_c, 1, 72, 111
3, 32732, Note_on_c, 1, 72, 0
3, 32732, Note_on_c, 1, 76, 0
3, 32732, Note_on_c, 1, 67, 0
3, 32763, Note_on_c, 1, 67, 111
3, 32763, Note_on_c, 1, 72, 111
3, 32763, Note_on_c, 1, 76, 111
3, 32942, Note_on_c, 1, 76, 0
3, 32942, Note_on_c, 1, 72, 0
3, 32943, Note_on_c, 1, 72, 111
3, 33002, Note_on_c, 1, 72, 0
3, 33003, Note_on_c, 1, 77, 111
3, 33062, Note_on_c, 1, 77, 0
3, 33063, Note_on_c, 1, 76, 111
3, 33122, Note_on_c, 1, 67, 0
3, 33123, Note_on_c, 1, 60, 111
3, 33123, Note_on_c, 1, 64, 111
3, 33123, Note_on_c, 1, 70, 111
3, 33212, Note_on_c, 1, 70, 0
3, 33212, Note_on_c, 1, 64, 0
3, 33212, Note_on_c, 1, 60, 0
3, 33243, Note_on_c, 1, 60, 111
3, 33243, Note_on_c, 1, 64, 111
3, 33243, Note_on_c, 1, 70, 111
3, 33362, Note_on_c, 1, 70, 0
3, 33362, Note_on_c, 1, 76, 0
3, 33362, Note_on_c, 1, 60, 0
3, 33362, Note_on_c, 1, 64, 0
3, 33363, Note_on_c, 1, 82, 123
3, 33363, Note_on_c, 1, 77, 123
3, 33363, Note_on_c, 1, 74, 123
3, 33452, Note_on_c, 1, 74, 0
3, 33452, Note_on_c, 1, 77, 0
3, 33452, Note_on_c, 1, 82, 0
3, 33483, Note_on_c, 1, 81, 123
3, 33483, Note_on_c, 1, 77, 123
3, 33483, Note_on_c, 1, 72, 123
3, 33602, Note_on_c, 1, 72, 0
3, 33602, Note_on_c, 1, 77, 0
3, 33602, Note_on_c, 1, 81, 0
3, 33603, Note_on_c, 1, 67, 111
3, 33603, Note_on_c, 1, 76, 111
3, 33603, Note_on_c, 1, 72, 111
3, 33692, Note_on_c, 1, 72, 0
3, 33692, Note_on_c, 1, 76, 0
3, 33692, Note_on_c, 1, 67, 0
3, 33723, Note_on_c, 1, 67, 111
3, 33723, Note_on_c, 1, 72, 111
3, 33723, Note_on_c, 1, 76, 111
3, 33902, Note_on_c, 1, 76, 0
3, 33902, Note_on_c, 1, 72, 0
3, 33903, Note_on_c, 1, 72, 111
3, 33962, Note_on_c, 1, 72, 0
3, 33963, Note_on_c, 1, 77, 111
3, 34022, Note_on_c, 1, 77, 0
3, 34023, Note_on_c, 1, 76, 111
3, 34082, Note_on_c, 1, 67, 0
3, 34083, Note_on_c, 1, 60, 111
3, 34083, Note_on_c, 1, 64, 111
3, 34083, Note_on_c, 1, 70, 111
3, 34172, Note_on_c, 1, 70, 0
3, 34172, Note_on_c, 1, 64, 0
3, 34172, Note_on_c, 1, 60, 0
3, 34203, Note_on_c, 1, 60, 111
3, 34203, Note_on_c, 1, 64, 111
3, 34203, Note_on_c, 1, 70, 111
3, 34322, Note_on_c, 1, 70, 0
3, 34322, Note_on_c, 1, 76, 0
3, 34322, Note_on_c, 1, 60, 0
3, 34322, Note_on_c, 1, 64, 0
3, 34323, Note_on_c, 1, 82, 123
3, 34323, Note_on_c, 1, 77, 123
3, 34323, Note_on_c, 1, 74, 123
3, 34412, Note_on_c, 1, 74, 0
3, 34412, Note_on_c, 1, 77, 0
3, 34412, Note_on_c, 1, 82, 0
3, 34443, Note_on_c, 1, 81, 123
3, 34443, Note_on_c, 1, 77, 123
3, 34443, Note_on_c, 1, 72, 123
3, 34562, Note_on_c, 1, 72, 0
3, 34562, Note_on_c, 1, 77, 0
3, 34562, Note_on_c, 1, 81, 0
3, 34563, Note_on_c, 1, 76, 111
3, 34563, Note_on_c, 1, 79, 111
3, 34563, Note_on_c, 1, 82, 111
3, 34563, Note_on_c, 1, 72, 111
3, 34802, Note_on_c, 1, 72, 0
3, 34802, Note_on_c, 1, 76, 0
3, 34802, Note_on_c, 1, 79, 0
3, 34802, Note_on_c, 1, 82, 0
3, 34803, Note_on_c, 1, 79, 111
3, 34803, Note_on_c, 1, 82, 111
3, 34803, Note_on_c, 1, 76, 111
3, 34803, Note_on_c, 1, 72, 111
3, 35012, Note_on_c, 1, 72, 0
3, 35012, Note_on_c, 1, 79, 0
3, 35012, Note_on_c, 1, 82, 0
3, 35012, Note_on_c, 1, 76, 0
3, 35043, Note_on_c, 1, 76, 111
3, 35043, Note_on_c, 1, 79, 111
3, 35043, Note_on_c, 1, 82, 111
3, 35043, Note_on_c, 1, 72, 111
3, 35132, Note_on_c, 1, 72, 0
3, 35132, Note_on_c, 1, 76, 0
3, 35132, Note_on_c, 1, 79, 0
3, 35132, Note_on_c, 1, 82, 0
3, 35163, Note_on_c, 1, 82, 111
3, 35163, Note_on_c, 1, 79, 111
3, 35163, Note_on_c, 1, 76, 111
3, 35163, Note_on_c, 1, 72, 111
3, 35252, Note_on_c, 1, 72, 0
3, 35252, Note_on_c, 1, 82, 0
3, 35252, Note_on_c, 1, 79, 0
3, 35252, Note_on_c, 1, 76, 0
3, 35283, Note_on_c, 1, 76, 111
3, 35283, Note_on_c, 1, 72, 111
3, 35283, Note_on_c, 1, 82, 111
3, 35283, Note_on_c, 1, 79, 111
3, 35372, Note_on_c, 1, 79, 0
3, 35372, Note_on_c, 1, 76, 0
3, 35372, Note_on_c, 1, 72, 0
3, 35372, Note_on_c, 1, 82, 0
3, 35403, Note_on_c, 1, 82, 111
3, 35403, Note_on_c, 1, 79, 111
3, 35403, Note_on_c, 1, 76, 111
3, 35403, Note_on_c, 1, 72, 111
3, 35522, Note_on_c, 1, 72, 0
3, 35522, Note_on_c, 1, 82, 0
3, 35522, Note_on_c, 1, 79, 0
3, 35522, Note_on_c, 1, 76, 0
3, 35523, Note_on_c, 1, 60, 111
3, 35523, Note_on_c, 1, 65, 111
3, 35523, Note_on_c, 1, 69, 111
3, 35942, Note_on_c, 1, 69, 0
3, 35942, Note_on_c, 1, 65, 0
3, 35942, Note_on_c, 1, 60, 0
3, 35943, Note_on_c, 1, 62, 111
3, 35943, Note_on_c, 1, 65, 111
3, 35943, Note_on_c, 1, 70, 111
3, 36182, Note_on_c, 1, 70, 0
3, 36182, Note_on_c, 1, 65, 0
3, 36182, Note_on_c, 1, 62, 0
3, 36183, Note_on_c, 1, 64, 111
3, 36183, Note_on_c, 1, 67, 111
3, 36183, Note_on_c, 1, 72, 111
3, 36302, Note_on_c, 1, 72, 0
3, 36302, Note_on_c, 1, 67, 0
3, 36302, Note_on_c, 1, 64, 0
3, 36303, Note_on_c, 1, 72, 123
3, 36332, Note_on_c, 1, 72, 0
3, 36348, Note_on_c, 1, 75, 123
3, 36362, Note_on_c, 1, 75, 0
3, 36363, Note_on_c, 1, 76, 123
3, 36422, Note_on_c, 1, 76, 0
3, 36423, Note_on_c, 1, 72, 123
3, 36482, Note_on_c, 1, 72, 0
3, 36483, Note_on_c, 1, 69, 111
3, 36483, Note_on_c, 1, 72, 111
3, 36483, Note_on_c, 1, 65, 111
3, 36932, Note_on_c, 1, 65, 0
3, 36932, Note_on_c, 1, 72, 0
3, 36932, Note_on_c, 1, 69, 0
3, 36963, Note_on_c, 1, 74, 111
3, 36963, Note_on_c, 1, 67, 111
3, 36963, Note_on_c, 1, 71, 111
3, 37112, Note_on_c, 1, 71, 0
3, 37142, Note_on_c, 1, 67, 0
3, 37142, Note_on_c, 1, 74, 0
3, 37143, Note_on_c, 1, 67, 111
3, 37143, Note_on_c, 1, 76, 111
3, 37143, Note_on_c, 1, 72, 111
3, 37262, Note_on_c, 1, 72, 0
3, 37262, Note_on_c, 1, 76, 0
3, 37262, Note_on_c, 1, 67, 0
3, 37263, Note_on_c, 1, 72, 123
3, 37292, Note_on_c, 1, 72, 0
3, 37308, Note_on_c, 1, 75, 123
3, 37322, Note_on_c, 1, 75, 0
3, 37323, Note_on_c, 1, 76, 123
3, 37382, Note_on_c, 1, 76, 0
3, 37383, Note_on_c, 1, 72, 123
3, 37442, Note_on_c, 1, 72, 0
3, 37443, Note_on_c, 1, 65, 99
3, 37443, Note_on_c, 1, 72, 99
3, 37443, Note_on_c, 1, 69, 99
3, 37862, Note_on_c, 1, 69, 0
3, 37862, Note_on_c, 1, 72, 0
3, 37863, Note_on_c, 1, 70, 99
3, 37863, Note_on_c, 1, 74, 99
3, 38072, Note_on_c, 1, 74, 0
3, 38072, Note_on_c, 1, 70, 0
3, 38102, Note_on_c, 1, 65, 0
3, 38103, Note_on_c, 1, 72, 99
3, 38103, Note_on_c, 1, 76, 99
3, 38103, Note_on_c, 1, 67, 99
3, 38222, Note_on_c, 1, 67, 0
3, 38222, Note_on_c, 1, 76, 0
3, 38222, Note_on_c, 1, 72, 0
3, 38223, Note_on_c, 1, 67, 111
3, 38223, Note_on_c, 1, 72, 111
3, 38223, Note_on_c, 1, 76, 111
3, 38282, Note_on_c, 1, 76, 0
3, 38282, Note_on_c, 1, 72, 0
3, 38282, Note_on_c, 1, 67, 0
3, 38283, Note_on_c, 1, 72, 111
3, 38283, Note_on_c, 1, 76, 111
3, 38283, Note_on_c, 1, 67, 111
3, 38342, Note_on_c, 1, 67, 0
3, 38342, Note_on_c, 1, 76, 0
3, 38342, Note_on_c, 1, 72, 0
3, 38343, Note_on_c, 1, 76, 111
3, 38343, Note_on_c, 1, 67, 111
3, 38343, Note_on_c, 1, 72, 111
3, 38402, Note_on_c, 1, 72, 0
3, 38402, Note_on_c, 1, 67, 0
3, 38402, Note_on_c, 1, 76, 0
3, 38403, Note_on_c, 1, 69, 111
3, 38403, Note_on_c, 1, 74, 111
3, 38403, Note_on_c, 1, 65, 111
3, 38437, Control_c, 1, 7, 89
3, 38487, Control_c, 1, 7, 88
3, 38512, Control_c, 1, 7, 86
3, 38522, Control_c, 1, 7, 84
3, 38537, Control_c, 1, 7, 83
3, 38542, Control_c, 1, 7, 82
3, 38547, Control_c, 1, 7, 81
3, 38562, Control_c, 1, 7, 79
3, 38572, Control_c, 1, 7, 77
3, 38582, Control_c, 1, 7, 76
3, 38587, Control_c, 1, 7, 74
3, 38597, Control_c, 1, 7, 72
3, 38602, Control_c, 1, 7, 70
3, 38607, Control_c, 1, 7, 69
3, 38617, Control_c, 1, 7, 67
3, 38622, Control_c, 1, 7, 66
3, 38632, Control_c, 1, 7, 64
3, 38637, Control_c, 1, 7, 63
3, 38652, Control_c, 1, 7, 62
3, 38657, Control_c, 1, 7, 61
3, 38667, Control_c, 1, 7, 60
3, 38682, Control_c, 1, 7, 59
3, 38687, Control_c, 1, 7, 57
3, 38702, Control_c, 1, 7, 56
3, 38717, Control_c, 1, 7, 55
3, 38722, Control_c, 1, 7, 53
3, 38732, Control_c, 1, 7, 52
3, 38742, Control_c, 1, 7, 50
3, 38752, Control_c, 1, 7, 49
3, 38757, Control_c, 1, 7, 47
3, 38767, Control_c, 1, 7, 46
3, 38772, Control_c, 1, 7, 44
3, 38782, Control_c, 1, 7, 43
3, 38797, Control_c, 1, 7, 41
3, 38807, Control_c, 1, 7, 39
3, 38817, Control_c, 1, 7, 38
3, 38827, Control_c, 1, 7, 36
3, 38847, Control_c, 1, 7, 35
3, 38857, Control_c, 1, 7, 33
3, 38867, Control_c, 1, 7, 32
3, 38872, Control_c, 1, 7, 30
3, 38882, Control_c, 1, 7, 29
3, 38897, Control_c, 1, 7, 27
3, 38907, Control_c, 1, 7, 26
3, 38922, Control_c, 1, 7, 24
3, 38932, Control_c, 1, 7, 22
3, 38937, Control_c, 1, 7, 21
3, 38947, Control_c, 1, 7, 19
3, 38962, Control_c, 1, 7, 18
3, 38967, Control_c, 1, 7, 15
3, 38972, Control_c, 1, 7, 14
3, 38977, Control_c, 1, 7, 13
3, 38987, Control_c, 1, 7, 12
3, 38997, Control_c, 1, 7, 10
3, 39002, Control_c, 1, 7, 9
3, 39022, Control_c, 1, 7, 7
3, 39032, Note_on_c, 1, 65, 0
3, 39032, Note_on_c, 1, 74, 0
3, 39032, Note_on_c, 1, 69, 0
3, 39032, Control_c, 1, 7, 5
3, 39037, Control_c, 1, 7, 4
3, 39052, Control_c, 1, 7, 2
3, 39062, Control_c, 1, 7, 1
3, 39087, Control_c, 1, 7, 0
3, 39363, Control_c, 1, 7, 95
3, 39363, Note_on_c, 1, 60, 90
3, 39363, Note_on_c, 1, 65, 123
3, 39542, Note_on_c, 1, 65, 0
3, 39542, Note_on_c, 1, 60, 0
3, 39543, Note_on_c, 1, 58, 90
3, 39543, Note_on_c, 1, 63, 123
3, 39842, Note_on_c, 1, 63, 0
3, 39842, Note_on_c, 1, 58, 0
3, 39843, Note_on_c, 1, 53, 90
3, 39843, Note_on_c, 1, 58, 123
3, 40022, Note_on_c, 1, 58, 0
3, 40022, Note_on_c, 1, 53, 0
3, 40023, Note_on_c, 1, 55, 90
3, 40023, Note_on_c, 1, 60, 123
3, 40322, Note_on_c, 1, 60, 0
3, 40322, Note_on_c, 1, 55, 0
3, 40323, Note_on_c, 1, 60, 90
3, 40323, Note_on_c, 1, 65, 123
3, 40502, Note_on_c, 1, 65, 0
3, 40502, Note_on_c, 1, 60, 0
3, 40503, Note_on_c, 1, 58, 90
3, 40503, Note_on_c, 1, 63, 123
3, 40802, Note_on_c, 1, 63, 0
3, 40802, Note_on_c, 1, 58, 0
3, 40803, Note_on_c, 1, 53, 90
3, 40803, Note_on_c, 1, 58, 123
3, 40982, Note_on_c, 1, 58, 0
3, 40982, Note_on_c, 1, 53, 0
3, 40983, Note_on_c, 1, 55, 90
3, 40983, Note_on_c, 1, 60, 123
3, 41282, Note_on_c, 1, 60, 0
3, 41282, Note_on_c, 1, 55, 0
3, 41283, Control_c, 1, 7, 85
3, 41283, Note_on_c, 1, 60, 111
3, 41283, Note_on_c, 1, 65, 111
3, 41283, Note_on_c, 1, 69, 111
3, 41702, Note_on_c, 1, 69, 0
3, 41702, Note_on_c, 1, 65, 0
3, 41702, Note_on_c, 1, 60, 0
3, 41703, Note_on_c, 1, 62, 111
3, 41703, Note_on_c, 1, 65, 111
3, 41703, Note_on_c, 1, 70, 111
3, 41942, Note_on_c, 1, 70, 0
3, 41942, Note_on_c, 1, 65, 0
3, 41942, Note_on_c, 1, 62, 0
3, 41943, Note_on_c, 1, 64, 111
3, 41943, Note_on_c, 1, 67, 111
3, 41943, Note_on_c, 1, 72, 111
3, 42062, Note_on_c, 1, 72, 0
3, 42062, Note_on_c, 1, 67, 0
3, 42062, Note_on_c, 1, 64, 0
3, 42063, Note_on_c, 1, 72, 123
3, 42092, Note_on_c, 1, 72, 0
3, 42108, Note_on_c, 1, 75, 123
3, 42122, Note_on_c, 1, 75, 0
3, 42123, Note_on_c, 1, 76, 123
3, 42182, Note_on_c, 1, 76, 0
3, 42183, Note_on_c, 1, 72, 123
3, 42242, Note_on_c, 1, 72, 0
3, 42243, Note_on_c, 1, 69, 111
3, 42243, Note_on_c, 1, 72, 111
3, 42243, Note_on_c, 1, 65, 111
3, 42692, Note_on_c, 1, 65, 0
3, 42692, Note_on_c, 1, 72, 0
3, 42692, Note_on_c, 1, 69, 0
3, 42723, Note_on_c, 1, 74, 111
3, 42723, Note_on_c, 1, 67, 111
3, 42723, Note_on_c, 1, 71, 111
3, 42872, Note_on_c, 1, 71, 0
3, 42902, Note_on_c, 1, 67, 0
3, 42902, Note_on_c, 1, 74, 0
3, 42903, Note_on_c, 1, 67, 111
3, 42903, Note_on_c, 1, 76, 111
3, 42903, Note_on_c, 1, 72, 111
3, 43022, Note_on_c, 1, 72, 0
3, 43022, Note_on_c, 1, 76, 0
3, 43022, Note_on_c, 1, 67, 0
3, 43023, Note_on_c, 1, 72, 123
3, 43052, Note_on_c, 1, 72, 0
3, 43068, Note_on_c, 1, 75, 123
3, 43082, Note_on_c, 1, 75, 0
3, 43083, Note_on_c, 1, 76, 123
3, 43142, Note_on_c, 1, 76, 0
3, 43143, Note_on_c, 1, 72, 123
3, 43202, Note_on_c, 1, 72, 0
3, 43203, Note_on_c, 1, 65, 99
3, 43203, Note_on_c, 1, 72, 99
3, 43203, Note_on_c, 1, 69, 99
3, 43622, Note_on_c, 1, 69, 0
3, 43622, Note_on_c, 1, 72, 0
3, 43623, Note_on_c, 1, 70, 99
3, 43623, Note_on_c, 1, 74, 99
3, 43832, Note_on_c, 1, 74, 0
3, 43832, Note_on_c, 1, 70, 0
3, 43862, Note_on_c, 1, 65, 0
3, 43863, Note_on_c, 1, 72, 99
3, 43863, Note_on_c, 1, 76, 99
3, 43863, Note_on_c, 1, 67, 99
3, 43982, Note_on_c, 1, 67, 0
3, 43982, Note_on_c, 1, 76, 0
3, 43982, Note_on_c, 1, 72, 0
3, 43983, Note_on_c, 1, 67, 111
3, 43983, Note_on_c, 1, 72, 111
3, 43983, Note_on_c, 1, 76, 111
3, 44042, Note_on_c, 1, 76, 0
3, 44042, Note_on_c, 1, 72, 0
3, 44042, Note_on_c, 1, 67, 0
3, 44043, Note_on_c, 1, 72, 111
3, 44043, Note_on_c, 1, 76, 111
3, 44043, Note_on_c, 1, 67, 111
3, 44102, Note_on_c, 1, 67, 0
3, 44102, Note_on_c, 1, 76, 0
3, 44102, Note_on_c, 1, 72, 0
3, 44103, Note_on_c, 1, 76, 111
3, 44103, Note_on_c, 1, 67, 111
3, 44103, Note_on_c, 1, 72, 111
3, 44162, Note_on_c, 1, 72, 0
3, 44162, Note_on_c, 1, 67, 0
3, 44162, Note_on_c, 1, 76, 0
3, 44163, Note_on_c, 1, 69, 111
3, 44163, Note_on_c, 1, 74, 111
3, 44163, Note_on_c, 1, 65, 111
3, 44197, Control_c, 1, 7, 89
3, 44247, Control_c, 1, 7, 88
3, 44272, Control_c, 1, 7, 86
3, 44282, Control_c, 1, 7, 84
3, 44297, Control_c, 1, 7, 83
3, 44302, Control_c, 1, 7, 82
3, 44307, Control_c, 1, 7, 81
3, 44322, Control_c, 1, 7, 79
3, 44332, Control_c, 1, 7, 77
3, 44342, Control_c, 1, 7, 76
3, 44347, Control_c, 1, 7, 74
3, 44357, Control_c, 1, 7, 72
3, 44362, Control_c, 1, 7, 70
3, 44367, Control_c, 1, 7, 69
3, 44377, Control_c, 1, 7, 67
3, 44382, Control_c, 1, 7, 66
3, 44392, Control_c, 1, 7, 64
3, 44397, Control_c, 1, 7, 63
3, 44412, Control_c, 1, 7, 62
3, 44417, Control_c, 1, 7, 61
3, 44427, Control_c, 1, 7, 60
3, 44442, Control_c, 1, 7, 59
3, 44447, Control_c, 1, 7, 57
3, 44462, Control_c, 1, 7, 56
3, 44477, Control_c, 1, 7, 55
3, 44482, Control_c, 1, 7, 53
3, 44492, Control_c, 1, 7, 52
3, 44502, Control_c, 1, 7, 50
3, 44512, Control_c, 1, 7, 49
3, 44517, Control_c, 1, 7, 47
3, 44527, Control_c, 1, 7, 46
3, 44532, Control_c, 1, 7, 44
3, 44542, Control_c, 1, 7, 43
3, 44557, Control_c, 1, 7, 41
3, 44567, Control_c, 1, 7, 39
3, 44577, Control_c, 1, 7, 38
3, 44587, Control_c, 1, 7, 36
3, 44607, Control_c, 1, 7, 35
3, 44617, Control_c, 1, 7, 33
3, 44627, Control_c, 1, 7, 32
3, 44632, Control_c, 1, 7, 30
3, 44642, Control_c, 1, 7, 29
3, 44657, Control_c, 1, 7, 27
3, 44667, Control_c, 1, 7, 26
3, 44682, Control_c, 1, 7, 24
3, 44692, Control_c, 1, 7, 22
3, 44697, Control_c, 1, 7, 21
3, 44707, Control_c, 1, 7, 19
3, 44722, Control_c, 1, 7, 18
3, 44727, Control_c, 1, 7, 15
3, 44732, Control_c, 1, 7, 14
3, 44737, Control_c, 1, 7, 13
3, 44747, Control_c, 1, 7, 12
3, 44757, Control_c, 1, 7, 10
3, 44762, Control_c, 1, 7, 9
3, 44782, Control_c, 1, 7, 7
3, 44792, Note_on_c, 1, 65, 0
3, 44792, Note_on_c, 1, 74, 0
3, 44792, Note_on_c, 1, 69, 0
3, 44792, Control_c, 1, 7, 5
3, 44797, Control_c, 1, 7, 4
3, 44812, Control_c, 1, 7, 2
3, 44822, Control_c, 1, 7, 1
3, 44847, Control_c, 1, 7, 0
3, 45123, Control_c, 1, 7, 95
3, 45123, Note_on_c, 1, 60, 90
3, 45123, Note_on_c, 1, 65, 123
3, 45302, Note_on_c, 1, 65, 0
3, 45302, Note_on_c, 1, 60, 0
3, 45303, Note_on_c, 1, 58, 90
3, 45303, Note_on_c, 1, 63, 123
3, 45602, Note_on_c, 1, 63, 0
3, 45602, Note_on_c, 1, 58, 0
3, 45603, Note_on_c, 1, 53, 90
3, 45603, Note_on_c, 1, 58, 123
3, 45782, Note_on_c, 1, 58, 0
3, 45782, Note_on_c, 1, 53, 0
3, 45783, Note_on_c, 1, 55, 90
3, 45783, Note_on_c, 1, 60, 123
3, 46082, Note_on_c, 1, 60, 0
3, 46082, Note_on_c, 1, 55, 0
3, 46083, Note_on_c, 1, 60, 90
3, 46083, Note_on_c, 1, 65, 123
3, 46262, Note_on_c, 1, 65, 0
3, 46262, Note_on_c, 1, 60, 0
3, 46263, Note_on_c, 1, 58, 90
3, 46263, Note_on_c, 1, 63, 123
3, 46562, Note_on_c, 1, 63, 0
3, 46562, Note_on_c, 1, 58, 0
3, 46563, Note_on_c, 1, 53, 90
3, 46563, Note_on_c, 1, 58, 123
3, 46742, Note_on_c, 1, 58, 0
3, 46742, Note_on_c, 1, 53, 0
3, 46743, Note_on_c, 1, 55, 90
3, 46743, Note_on_c, 1, 60, 123
3, 47042, Note_on_c, 1, 60, 0
3, 47042, Note_on_c, 1, 55, 0
3, 47043, Note_on_c, 1, 60, 90
3, 47043, Note_on_c, 1, 65, 123
3, 47222, Note_on_c, 1, 65, 0
3, 47222, Note_on_c, 1, 60, 0
3, 47223, Note_on_c, 1, 58, 90
3, 47223, Note_on_c, 1, 63, 123
3, 47522, Note_on_c, 1, 63, 0
3, 47522, Note_on_c, 1, 58, 0
3, 47523, Note_on_c, 1, 53, 90
3, 47523, Note_on_c, 1, 58, 123
3, 47702, Note_on_c, 1, 58, 0
3, 47702, Note_on_c, 1, 53, 0
3, 47703, Note_on_c, 1, 55, 90
3, 47703, Note_on_c, 1, 60, 123
3, 47852, Control_c, 1, 7, 89
3, 47857, Control_c, 1, 7, 88
3, 47882, Control_c, 1, 7, 87
3, 47922, Control_c, 1, 7, 86
3, 47932, Control_c, 1, 7, 85
3, 47967, Control_c, 1, 7, 84
3, 47982, Control_c, 1, 7, 82
3, 47992, Control_c, 1, 7, 81
3, 48047, Control_c, 1, 7, 80
3, 48052, Control_c, 1, 7, 79
3, 48062, Control_c, 1, 7, 78
3, 48072, Control_c, 1, 7, 77
3, 48087, Control_c, 1, 7, 76
3, 48092, Control_c, 1, 7, 75
3, 48102, Control_c, 1, 7, 74
3, 48107, Control_c, 1, 7, 73
3, 48117, Control_c, 1, 7, 71
3, 48122, Control_c, 1, 7, 70
3, 48132, Control_c, 1, 7, 68
3, 48142, Control_c, 1, 7, 67
3, 48172, Control_c, 1, 7, 66
3, 48182, Control_c, 1, 7, 65
3, 48192, Control_c, 1, 7, 64
3, 48207, Control_c, 1, 7, 63
3, 48222, Control_c, 1, 7, 62
3, 48237, Control_c, 1, 7, 61
3, 48262, Control_c, 1, 7, 60
3, 48297, Control_c, 1, 7, 59
3, 48312, Control_c, 1, 7, 58
3, 48327, Control_c, 1, 7, 57
3, 48352, Control_c, 1, 7, 56
3, 48357, Control_c, 1, 7, 55
3, 48367, Control_c, 1, 7, 54
3, 48377, Control_c, 1, 7, 53
3, 48412, Control_c, 1, 7, 52
3, 48427, Control_c, 1, 7, 51
3, 48437, Control_c, 1, 7, 50
3, 48447, Control_c, 1, 7, 49
3, 48457, Control_c, 1, 7, 48
3, 48467, Control_c, 1, 7, 47
3, 48482, Control_c, 1, 7, 46
3, 48517, Control_c, 1, 7, 44
3, 48532, Control_c, 1, 7, 43
3, 48567, Control_c, 1, 7, 42
3, 48582, Control_c, 1, 7, 41
3, 48592, Control_c, 1, 7, 40
3, 48602, Control_c, 1, 7, 39
3, 48627, Control_c, 1, 7, 38
3, 48642, Control_c, 1, 7, 37
3, 48667, Control_c, 1, 7, 36
3, 48697, Control_c, 1, 7, 35
3, 48722, Control_c, 1, 7, 34
3, 48737, Control_c, 1, 7, 33
3, 48767, Control_c, 1, 7, 32
3, 48782, Control_c, 1, 7, 31
3, 48792, Control_c, 1, 7, 30
3, 48807, Control_c, 1, 7, 29
3, 48837, Control_c, 1, 7, 28
3, 48862, Control_c, 1, 7, 27
3, 48877, Control_c, 1, 7, 26
3, 48902, Control_c, 1, 7, 25
3, 48912, Control_c, 1, 7, 24
3, 48927, Control_c, 1, 7, 23
3, 48932, Control_c, 1, 7, 22
3, 48952, Control_c, 1, 7, 21
3, 48957, Control_c, 1, 7, 19
3, 48977, Control_c, 1, 7, 18
3, 48992, Control_c, 1, 7, 17
3, 49002, Control_c, 1, 7, 16
3, 49027, Control_c, 1, 7, 15
3, 49047, Control_c, 1, 7, 14
3, 49052, Control_c, 1, 7, 13
3, 49077, Control_c, 1, 7, 12
3, 49107, Control_c, 1, 7, 11
3, 49117, Control_c, 1, 7, 10
3, 49132, Control_c, 1, 7, 9
3, 49167, Control_c, 1, 7, 8
3, 49177, Control_c, 1, 7, 7
3, 49212, Control_c, 1, 7, 6
3, 49222, Control_c, 1, 7, 5
3, 49247, Control_c, 1, 7, 4
3, 49277, Control_c, 1, 7, 3
3, 49287, Control_c, 1, 7, 2
3, 49312, Control_c, 1, 7, 1
3, 49322, Control_c, 1, 7, 0
3, 49442, Note_on_c, 1, 60, 0
3, 49442, Note_on_c, 1, 55, 0
3, 49442, End_track
4, 0, Start_track
4, 0, MIDI_port, 0
4, 0, Title_t, "BASS"
4, 0, Program_c, 8, 33
4, 0, Control_c, 8, 7, 114
4, 0, Control_c, 8, 10, 64
4, 960, Control_c, 8, 7, 114
4, 960, Control_c, 8, 91, 0
4, 960, Note_on_c, 8, 36, 127
4, 1079, Note_on_c, 8, 36, 0
4, 1080, Note_on_c, 8, 43, 127
4, 1139, Note_on_c, 8, 43, 0
4, 1140, Note_on_c, 8, 36, 127
4, 1199, Note_on_c, 8, 36, 0
4, 1200, Note_on_c, 8, 46, 127
4, 1259, Note_on_c, 8, 46, 0
4, 1260, Note_on_c, 8, 45, 127
4, 1319, Note_on_c, 8, 45, 0
4, 1320, Note_on_c, 8, 43, 127
4, 1379, Note_on_c, 8, 43, 0
4, 1380, Note_on_c, 8, 41, 127
4, 1439, Note_on_c, 8, 41, 0
4, 1440, Note_on_c, 8, 36, 127
4, 1559, Note_on_c, 8, 36, 0
4, 1560, Note_on_c, 8, 43, 127
4, 1619, Note_on_c, 8, 43, 0
4, 1620, Note_on_c, 8, 36, 127
4, 1679, Note_on_c, 8, 36, 0
4, 1680, Note_on_c, 8, 46, 127
4, 1739, Note_on_c, 8, 46, 0
4, 1740, Note_on_c, 8, 45, 127
4, 1799, Note_on_c, 8, 45, 0
4, 1800, Note_on_c, 8, 43, 127
4, 1859, Note_on_c, 8, 43, 0
4, 1860, Note_on_c, 8, 41, 127
4, 1919, Note_on_c, 8, 41, 0
4, 1920, Note_on_c, 8, 36, 127
4, 2039, Note_on_c, 8, 36, 0
4, 2040, Note_on_c, 8, 43, 127
4, 2099, Note_on_c, 8, 43, 0
4, 2100, Note_on_c, 8, 36, 127
4, 2159, Note_on_c, 8, 36, 0
4, 2160, Note_on_c, 8, 46, 127
4, 2219, Note_on_c, 8, 46, 0
4, 2220, Note_on_c, 8, 45, 127
4, 2279, Note_on_c, 8, 45, 0
4, 2280, Note_on_c, 8, 43, 127
4, 2339, Note_on_c, 8, 43, 0
4, 2340, Note_on_c, 8, 41, 127
4, 2399, Note_on_c, 8, 41, 0
4, 2400, Note_on_c, 8, 36, 127
4, 2519, Note_on_c, 8, 36, 0
4, 2520, Note_on_c, 8, 43, 127
4, 2579, Note_on_c, 8, 43, 0
4, 2580, Note_on_c, 8, 36, 127
4, 2639, Note_on_c, 8, 36, 0
4, 2640, Note_on_c, 8, 46, 127
4, 2699, Note_on_c, 8, 46, 0
4, 2700, Note_on_c, 8, 45, 127
4, 2759, Note_on_c, 8, 45, 0
4, 2760, Note_on_c, 8, 43, 127
4, 2819, Note_on_c, 8, 43, 0
4, 2820, Note_on_c, 8, 41, 127
4, 2879, Note_on_c, 8, 41, 0
4, 2880, Note_on_c, 8, 36, 127
4, 2999, Note_on_c, 8, 36, 0
4, 3000, Note_on_c, 8, 43, 127
4, 3059, Note_on_c, 8, 43, 0
4, 3060, Note_on_c, 8, 36, 127
4, 3119, Note_on_c, 8, 36, 0
4, 3120, Note_on_c, 8, 46, 127
4, 3179, Note_on_c, 8, 46, 0
4, 3180, Note_on_c, 8, 45, 127
4, 3239, Note_on_c, 8, 45, 0
4, 3240, Note_on_c, 8, 43, 127
4, 3299, Note_on_c, 8, 43, 0
4, 3300, Note_on_c, 8, 41, 127
4, 3359, Note_on_c, 8, 41, 0
4, 3360, Note_on_c, 8, 36, 127
4, 3479, Note_on_c, 8, 36, 0
4, 3480, Note_on_c, 8, 43, 127
4, 3539, Note_on_c, 8, 43, 0
4, 3540, Note_on_c, 8, 36, 127
4, 3599, Note_on_c, 8, 36, 0
4, 3600, Note_on_c, 8, 46, 127
4, 3659, Note_on_c, 8, 46, 0
4, 3660, Note_on_c, 8, 45, 127
4, 3719, Note_on_c, 8, 45, 0
4, 3720, Note_on_c, 8, 43, 127
4, 3779, Note_on_c, 8, 43, 0
4, 3780, Note_on_c, 8, 41, 127
4, 3839, Note_on_c, 8, 41, 0
4, 3840, Note_on_c, 8, 36, 127
4, 3959, Note_on_c, 8, 36, 0
4, 3960, Note_on_c, 8, 43, 127
4, 4019, Note_on_c, 8, 43, 0
4, 4020, Note_on_c, 8, 36, 127
4, 4079, Note_on_c, 8, 36, 0
4, 4080, Note_on_c, 8, 46, 127
4, 4139, Note_on_c, 8, 46, 0
4, 4140, Note_on_c, 8, 45, 127
4, 4199, Note_on_c, 8, 45, 0
4, 4200, Note_on_c, 8, 43, 127
4, 4259, Note_on_c, 8, 43, 0
4, 4260, Note_on_c, 8, 41, 127
4, 4319, Note_on_c, 8, 41, 0
4, 4320, Note_on_c, 8, 36, 127
4, 4439, Note_on_c, 8, 36, 0
4, 4440, Note_on_c, 8, 43, 127
4, 4499, Note_on_c, 8, 43, 0
4, 4500, Note_on_c, 8, 36, 127
4, 4559, Note_on_c, 8, 36, 0
4, 4560, Note_on_c, 8, 46, 127
4, 4619, Note_on_c, 8, 46, 0
4, 4620, Note_on_c, 8, 45, 127
4, 4679, Note_on_c, 8, 45, 0
4, 4680, Note_on_c, 8, 43, 127
4, 4739, Note_on_c, 8, 43, 0
4, 4740, Note_on_c, 8, 41, 127
4, 4799, Note_on_c, 8, 41, 0
4, 4800, Note_on_c, 8, 36, 127
4, 4919, Note_on_c, 8, 36, 0
4, 4920, Note_on_c, 8, 43, 127
4, 4979, Note_on_c, 8, 43, 0
4, 4980, Note_on_c, 8, 36, 127
4, 5039, Note_on_c, 8, 36, 0
4, 5040, Note_on_c, 8, 46, 127
4, 5099, Note_on_c, 8, 46, 0
4, 5100, Note_on_c, 8, 45, 127
4, 5159, Note_on_c, 8, 45, 0
4, 5160, Note_on_c, 8, 43, 127
4, 5219, Note_on_c, 8, 43, 0
4, 5220, Note_on_c, 8, 41, 127
4, 5279, Note_on_c, 8, 41, 0
4, 5280, Note_on_c, 8, 36, 127
4, 5399, Note_on_c, 8, 36, 0
4, 5400, Note_on_c, 8, 43, 127
4, 5459, Note_on_c, 8, 43, 0
4, 5460, Note_on_c, 8, 36, 127
4, 5519, Note_on_c, 8, 36, 0
4, 5520, Note_on_c, 8, 46, 127
4, 5579, Note_on_c, 8, 46, 0
4, 5580, Note_on_c, 8, 45, 127
4, 5639, Note_on_c, 8, 45, 0
4, 5640, Note_on_c, 8, 43, 127
4, 5699, Note_on_c, 8, 43, 0
4, 5700, Note_on_c, 8, 41, 127
4, 5759, Note_on_c, 8, 41, 0
4, 5760, Note_on_c, 8, 36, 127
4, 5879, Note_on_c, 8, 36, 0
4, 5880, Note_on_c, 8, 43, 127
4, 5939, Note_on_c, 8, 43, 0
4, 5940, Note_on_c, 8, 36, 127
4, 5999, Note_on_c, 8, 36, 0
4, 6000, Note_on_c, 8, 46, 127
4, 6059, Note_on_c, 8, 46, 0
4, 6060, Note_on_c, 8, 45, 127
4, 6119, Note_on_c, 8, 45, 0
4, 6120, Note_on_c, 8, 43, 127
4, 6179, Note_on_c, 8, 43, 0
4, 6180, Note_on_c, 8, 41, 127
4, 6239, Note_on_c, 8, 41, 0
4, 6240, Note_on_c, 8, 36, 127
4, 6359, Note_on_c, 8, 36, 0
4, 6360, Note_on_c, 8, 43, 127
4, 6419, Note_on_c, 8, 43, 0
4, 6420, Note_on_c, 8, 36, 127
4, 6479, Note_on_c, 8, 36, 0
4, 6480, Note_on_c, 8, 46, 127
4, 6539, Note_on_c, 8, 46, 0
4, 6540, Note_on_c, 8, 45, 127
4, 6599, Note_on_c, 8, 45, 0
4, 6600, Note_on_c, 8, 43, 127
4, 6659, Note_on_c, 8, 43, 0
4, 6660, Note_on_c, 8, 41, 127
4, 6719, Note_on_c, 8, 41, 0
4, 6720, Note_on_c, 8, 36, 127
4, 6839, Note_on_c, 8, 36, 0
4, 6840, Note_on_c, 8, 43, 127
4, 6899, Note_on_c, 8, 43, 0
4, 6900, Note_on_c, 8, 36, 127
4, 6959, Note_on_c, 8, 36, 0
4, 6960, Note_on_c, 8, 46, 127
4, 7019, Note_on_c, 8, 46, 0
4, 7020, Note_on_c, 8, 45, 127
4, 7079, Note_on_c, 8, 45, 0
4, 7080, Note_on_c, 8, 43, 127
4, 7139, Note_on_c, 8, 43, 0
4, 7140, Note_on_c, 8, 41, 127
4, 7199, Note_on_c, 8, 41, 0
4, 7200, Note_on_c, 8, 36, 127
4, 7319, Note_on_c, 8, 36, 0
4, 7320, Note_on_c, 8, 43, 127
4, 7379, Note_on_c, 8, 43, 0
4, 7380, Note_on_c, 8, 36, 127
4, 7439, Note_on_c, 8, 36, 0
4, 7440, Note_on_c, 8, 46, 127
4, 7499, Note_on_c, 8, 46, 0
4, 7500, Note_on_c, 8, 45, 127
4, 7559, Note_on_c, 8, 45, 0
4, 7560, Note_on_c, 8, 43, 127
4, 7619, Note_on_c, 8, 43, 0
4, 7620, Note_on_c, 8, 41, 127
4, 7679, Note_on_c, 8, 41, 0
4, 7680, Note_on_c, 8, 36, 127
4, 7799, Note_on_c, 8, 36, 0
4, 7800, Note_on_c, 8, 43, 127
4, 7859, Note_on_c, 8, 43, 0
4, 7860, Note_on_c, 8, 36, 127
4, 7919, Note_on_c, 8, 36, 0
4, 7920, Note_on_c, 8, 46, 127
4, 7979, Note_on_c, 8, 46, 0
4, 7980, Note_on_c, 8, 45, 127
4, 8039, Note_on_c, 8, 45, 0
4, 8040, Note_on_c, 8, 43, 127
4, 8099, Note_on_c, 8, 43, 0
4, 8100, Note_on_c, 8, 41, 127
4, 8159, Note_on_c, 8, 41, 0
4, 8160, Note_on_c, 8, 36, 127
4, 8279, Note_on_c, 8, 36, 0
4, 8280, Note_on_c, 8, 43, 127
4, 8339, Note_on_c, 8, 43, 0
4, 8340, Note_on_c, 8, 36, 127
4, 8399, Note_on_c, 8, 36, 0
4, 8400, Note_on_c, 8, 46, 127
4, 8459, Note_on_c, 8, 46, 0
4, 8460, Note_on_c, 8, 45, 127
4, 8519, Note_on_c, 8, 45, 0
4, 8520, Note_on_c, 8, 43, 127
4, 8579, Note_on_c, 8, 43, 0
4, 8580, Note_on_c, 8, 41, 127
4, 8639, Note_on_c, 8, 41, 0
4, 8640, Note_on_c, 8, 36, 127
4, 8759, Note_on_c, 8, 36, 0
4, 8760, Note_on_c, 8, 43, 127
4, 8819, Note_on_c, 8, 43, 0
4, 8820, Note_on_c, 8, 36, 127
4, 8879, Note_on_c, 8, 36, 0
4, 8880, Note_on_c, 8, 46, 127
4, 8939, Note_on_c, 8, 46, 0
4, 8940, Note_on_c, 8, 45, 127
4, 8999, Note_on_c, 8, 45, 0
4, 9000, Note_on_c, 8, 43, 127
4, 9059, Note_on_c, 8, 43, 0
4, 9060, Note_on_c, 8, 41, 127
4, 9119, Note_on_c, 8, 41, 0
4, 9120, Note_on_c, 8, 36, 127
4, 9239, Note_on_c, 8, 36, 0
4, 9240, Note_on_c, 8, 43, 127
4, 9299, Note_on_c, 8, 43, 0
4, 9300, Note_on_c, 8, 36, 127
4, 9359, Note_on_c, 8, 36, 0
4, 9360, Note_on_c, 8, 46, 127
4, 9419, Note_on_c, 8, 46, 0
4, 9420, Note_on_c, 8, 45, 127
4, 9479, Note_on_c, 8, 45, 0
4, 9480, Note_on_c, 8, 43, 127
4, 9539, Note_on_c, 8, 43, 0
4, 9540, Note_on_c, 8, 41, 127
4, 9599, Note_on_c, 8, 41, 0
4, 9600, Note_on_c, 8, 36, 127
4, 9719, Note_on_c, 8, 36, 0
4, 9720, Note_on_c, 8, 43, 127
4, 9779, Note_on_c, 8, 43, 0
4, 9780, Note_on_c, 8, 36, 127
4, 9839, Note_on_c, 8, 36, 0
4, 9840, Note_on_c, 8, 46, 127
4, 9899, Note_on_c, 8, 46, 0
4, 9900, Note_on_c, 8, 45, 127
4, 9959, Note_on_c, 8, 45, 0
4, 9960, Note_on_c, 8, 43, 127
4, 10019, Note_on_c, 8, 43, 0
4, 10020, Note_on_c, 8, 41, 127
4, 10079, Note_on_c, 8, 41, 0
4, 10080, Note_on_c, 8, 36, 127
4, 10199, Note_on_c, 8, 36, 0
4, 10200, Note_on_c, 8, 43, 127
4, 10259, Note_on_c, 8, 43, 0
4, 10260, Note_on_c, 8, 36, 127
4, 10319, Note_on_c, 8, 36, 0
4, 10320, Note_on_c, 8, 46, 127
4, 10379, Note_on_c, 8, 46, 0
4, 10380, Note_on_c, 8, 45, 127
4, 10439, Note_on_c, 8, 45, 0
4, 10440, Note_on_c, 8, 43, 127
4, 10499, Note_on_c, 8, 43, 0
4, 10500, Note_on_c, 8, 41, 127
4, 10559, Note_on_c, 8, 41, 0
4, 10560, Note_on_c, 8, 36, 127
4, 10679, Note_on_c, 8, 36, 0
4, 10680, Note_on_c, 8, 43, 127
4, 10739, Note_on_c, 8, 43, 0
4, 10740, Note_on_c, 8, 36, 127
4, 10799, Note_on_c, 8, 36, 0
4, 10800, Note_on_c, 8, 46, 127
4, 10859, Note_on_c, 8, 46, 0
4, 10860, Note_on_c, 8, 45, 127
4, 10919, Note_on_c, 8, 45, 0
4, 10920, Note_on_c, 8, 43, 127
4, 10979, Note_on_c, 8, 43, 0
4, 10980, Note_on_c, 8, 41, 127
4, 11039, Note_on_c, 8, 41, 0
4, 11040, Note_on_c, 8, 36, 127
4, 11159, Note_on_c, 8, 36, 0
4, 11160, Note_on_c, 8, 43, 127
4, 11219, Note_on_c, 8, 43, 0
4, 11220, Note_on_c, 8, 36, 127
4, 11279, Note_on_c, 8, 36, 0
4, 11280, Note_on_c, 8, 46, 127
4, 11339, Note_on_c, 8, 46, 0
4, 11340, Note_on_c, 8, 45, 127
4, 11399, Note_on_c, 8, 45, 0
4, 11400, Note_on_c, 8, 43, 127
4, 11459, Note_on_c, 8, 43, 0
4, 11460, Note_on_c, 8, 41, 127
4, 11519, Note_on_c, 8, 41, 0
4, 11520, Note_on_c, 8, 36, 127
4, 11639, Note_on_c, 8, 36, 0
4, 11640, Note_on_c, 8, 43, 127
4, 11699, Note_on_c, 8, 43, 0
4, 11700, Note_on_c, 8, 36, 127
4, 11759, Note_on_c, 8, 36, 0
4, 11760, Note_on_c, 8, 46, 127
4, 11819, Note_on_c, 8, 46, 0
4, 11820, Note_on_c, 8, 45, 127
4, 11879, Note_on_c, 8, 45, 0
4, 11880, Note_on_c, 8, 43, 127
4, 11939, Note_on_c, 8, 43, 0
4, 11940, Note_on_c, 8, 41, 127
4, 11999, Note_on_c, 8, 41, 0
4, 12000, Note_on_c, 8, 36, 127
4, 12119, Note_on_c, 8, 36, 0
4, 12120, Note_on_c, 8, 43, 127
4, 12179, Note_on_c, 8, 43, 0
4, 12180, Note_on_c, 8, 36, 127
4, 12239, Note_on_c, 8, 36, 0
4, 12240, Note_on_c, 8, 46, 127
4, 12299, Note_on_c, 8, 46, 0
4, 12300, Note_on_c, 8, 45, 127
4, 12359, Note_on_c, 8, 45, 0
4, 12360, Note_on_c, 8, 43, 127
4, 12419, Note_on_c, 8, 43, 0
4, 12420, Note_on_c, 8, 41, 127
4, 12479, Note_on_c, 8, 41, 0
4, 12480, Note_on_c, 8, 36, 127
4, 12599, Note_on_c, 8, 36, 0
4, 12600, Note_on_c, 8, 43, 127
4, 12659, Note_on_c, 8, 43, 0
4, 12660, Note_on_c, 8, 36, 127
4, 12719, Note_on_c, 8, 36, 0
4, 12720, Note_on_c, 8, 46, 127
4, 12779, Note_on_c, 8, 46, 0
4, 12780, Note_on_c, 8, 45, 127
4, 12839, Note_on_c, 8, 45, 0
4, 12840, Note_on_c, 8, 43, 127
4, 12899, Note_on_c, 8, 43, 0
4, 12900, Note_on_c, 8, 41, 127
4, 12959, Note_on_c, 8, 41, 0
4, 12960, Note_on_c, 8, 36, 127
4, 13079, Note_on_c, 8, 36, 0
4, 13080, Note_on_c, 8, 43, 127
4, 13139, Note_on_c, 8, 43, 0
4, 13140, Note_on_c, 8, 36, 127
4, 13199, Note_on_c, 8, 36, 0
4, 13200, Note_on_c, 8, 46, 127
4, 13259, Note_on_c, 8, 46, 0
4, 13260, Note_on_c, 8, 45, 127
4, 13319, Note_on_c, 8, 45, 0
4, 13320, Note_on_c, 8, 43, 127
4, 13379, Note_on_c, 8, 43, 0
4, 13380, Note_on_c, 8, 41, 127
4, 13439, Note_on_c, 8, 41, 0
4, 13440, Note_on_c, 8, 36, 127
4, 13559, Note_on_c, 8, 36, 0
4, 13560, Note_on_c, 8, 43, 127
4, 13619, Note_on_c, 8, 43, 0
4, 13620, Note_on_c, 8, 36, 127
4, 13679, Note_on_c, 8, 36, 0
4, 13680, Note_on_c, 8, 46, 127
4, 13739, Note_on_c, 8, 46, 0
4, 13740, Note_on_c, 8, 45, 127
4, 13799, Note_on_c, 8, 45, 0
4, 13800, Note_on_c, 8, 43, 127
4, 13859, Note_on_c, 8, 43, 0
4, 13860, Note_on_c, 8, 41, 127
4, 13919, Note_on_c, 8, 41, 0
4, 13920, Note_on_c, 8, 36, 127
4, 14039, Note_on_c, 8, 36, 0
4, 14040, Note_on_c, 8, 43, 127
4, 14099, Note_on_c, 8, 43, 0
4, 14100, Note_on_c, 8, 36, 127
4, 14159, Note_on_c, 8, 36, 0
4, 14160, Note_on_c, 8, 46, 127
4, 14219, Note_on_c, 8, 46, 0
4, 14220, Note_on_c, 8, 45, 127
4, 14279, Note_on_c, 8, 45, 0
4, 14280, Note_on_c, 8, 43, 127
4, 14339, Note_on_c, 8, 43, 0
4, 14340, Note_on_c, 8, 41, 127
4, 14399, Note_on_c, 8, 41, 0
4, 14400, Note_on_c, 8, 36, 127
4, 14519, Note_on_c, 8, 36, 0
4, 14520, Note_on_c, 8, 43, 127
4, 14579, Note_on_c, 8, 43, 0
4, 14580, Note_on_c, 8, 36, 127
4, 14639, Note_on_c, 8, 36, 0
4, 14640, Note_on_c, 8, 46, 127
4, 14699, Note_on_c, 8, 46, 0
4, 14700, Note_on_c, 8, 45, 127
4, 14759, Note_on_c, 8, 45, 0
4, 14760, Note_on_c, 8, 43, 127
4, 14819, Note_on_c, 8, 43, 0
4, 14820, Note_on_c, 8, 41, 127
4, 14879, Note_on_c, 8, 41, 0
4, 14880, Note_on_c, 8, 36, 127
4, 14999, Note_on_c, 8, 36, 0
4, 15000, Note_on_c, 8, 43, 127
4, 15059, Note_on_c, 8, 43, 0
4, 15060, Note_on_c, 8, 36, 127
4, 15119, Note_on_c, 8, 36, 0
4, 15120, Note_on_c, 8, 46, 127
4, 15179, Note_on_c, 8, 46, 0
4, 15180, Note_on_c, 8, 45, 127
4, 15239, Note_on_c, 8, 45, 0
4, 15240, Note_on_c, 8, 43, 127
4, 15299, Note_on_c, 8, 43, 0
4, 15300, Note_on_c, 8, 41, 127
4, 15359, Note_on_c, 8, 41, 0
4, 15360, Note_on_c, 8, 36, 127
4, 15479, Note_on_c, 8, 36, 0
4, 15480, Note_on_c, 8, 43, 127
4, 15539, Note_on_c, 8, 43, 0
4, 15540, Note_on_c, 8, 36, 127
4, 15599, Note_on_c, 8, 36, 0
4, 15600, Note_on_c, 8, 46, 127
4, 15659, Note_on_c, 8, 46, 0
4, 15660, Note_on_c, 8, 45, 127
4, 15719, Note_on_c, 8, 45, 0
4, 15720, Note_on_c, 8, 43, 127
4, 15779, Note_on_c, 8, 43, 0
4, 15780, Note_on_c, 8, 41, 127
4, 15839, Note_on_c, 8, 41, 0
4, 15840, Note_on_c, 8, 36, 127
4, 15959, Note_on_c, 8, 36, 0
4, 15960, Note_on_c, 8, 43, 127
4, 16019, Note_on_c, 8, 43, 0
4, 16020, Note_on_c, 8, 36, 127
4, 16079, Note_on_c, 8, 36, 0
4, 16080, Note_on_c, 8, 46, 127
4, 16139, Note_on_c, 8, 46, 0
4, 16140, Note_on_c, 8, 45, 127
4, 16199, Note_on_c, 8, 45, 0
4, 16200, Note_on_c, 8, 43, 127
4, 16259, Note_on_c, 8, 43, 0
4, 16260, Note_on_c, 8, 41, 127
4, 16319, Note_on_c, 8, 41, 0
4, 16320, Note_on_c, 8, 36, 127
4, 16439, Note_on_c, 8, 36, 0
4, 16440, Note_on_c, 8, 43, 127
4, 16499, Note_on_c, 8, 43, 0
4, 16500, Note_on_c, 8, 36, 127
4, 16559, Note_on_c, 8, 36, 0
4, 16560, Note_on_c, 8, 46, 127
4, 16619, Note_on_c, 8, 46, 0
4, 16620, Note_on_c, 8, 45, 127
4, 16679, Note_on_c, 8, 45, 0
4, 16680, Note_on_c, 8, 43, 127
4, 16739, Note_on_c, 8, 43, 0
4, 16740, Note_on_c, 8, 41, 127
4, 16799, Note_on_c, 8, 41, 0
4, 16800, Note_on_c, 8, 36, 127
4, 16919, Note_on_c, 8, 36, 0
4, 16920, Note_on_c, 8, 43, 127
4, 16979, Note_on_c, 8, 43, 0
4, 16980, Note_on_c, 8, 36, 127
4, 17039, Note_on_c, 8, 36, 0
4, 17040, Note_on_c, 8, 46, 127
4, 17099, Note_on_c, 8, 46, 0
4, 17100, Note_on_c, 8, 45, 127
4, 17159, Note_on_c, 8, 45, 0
4, 17160, Note_on_c, 8, 43, 127
4, 17219, Note_on_c, 8, 43, 0
4, 17220, Note_on_c, 8, 41, 127
4, 17279, Note_on_c, 8, 41, 0
4, 17280, Note_on_c, 8, 36, 127
4, 17399, Note_on_c, 8, 36, 0
4, 17400, Note_on_c, 8, 43, 127
4, 17459, Note_on_c, 8, 43, 0
4, 17460, Note_on_c, 8, 36, 127
4, 17519, Note_on_c, 8, 36, 0
4, 17520, Note_on_c, 8, 46, 127
4, 17579, Note_on_c, 8, 46, 0
4, 17580, Note_on_c, 8, 45, 127
4, 17639, Note_on_c, 8, 45, 0
4, 17640, Note_on_c, 8, 43, 127
4, 17699, Note_on_c, 8, 43, 0
4, 17700, Note_on_c, 8, 41, 127
4, 17759, Note_on_c, 8, 41, 0
4, 17760, Note_on_c, 8, 36, 127
4, 17879, Note_on_c, 8, 36, 0
4, 17880, Note_on_c, 8, 43, 127
4, 17939, Note_on_c, 8, 43, 0
4, 17940, Note_on_c, 8, 36, 127
4, 17999, Note_on_c, 8, 36, 0
4, 18000, Note_on_c, 8, 46, 127
4, 18059, Note_on_c, 8, 46, 0
4, 18060, Note_on_c, 8, 45, 127
4, 18119, Note_on_c, 8, 45, 0
4, 18120, Note_on_c, 8, 43, 127
4, 18179, Note_on_c, 8, 43, 0
4, 18180, Note_on_c, 8, 40, 127
4, 18239, Note_on_c, 8, 40, 0
4, 18240, Control_c, 8, 7, 123
4, 18240, Note_on_c, 8, 41, 127
4, 18359, Note_on_c, 8, 41, 0
4, 18360, Note_on_c, 8, 41, 127
4, 18419, Note_on_c, 8, 41, 0
4, 18420, Note_on_c, 8, 41, 127
4, 18479, Note_on_c, 8, 41, 0
4, 18480, Note_on_c, 8, 41, 127
4, 18539, Note_on_c, 8, 41, 0
4, 18540, Note_on_c, 8, 41, 127
4, 18599, Note_on_c, 8, 41, 0
4, 18600, Note_on_c, 8, 41, 127
4, 18659, Note_on_c, 8, 41, 0
4, 18660, Note_on_c, 8, 46, 127
4, 18719, Note_on_c, 8, 46, 0
4, 18720, Note_on_c, 8, 46, 127
4, 18779, Note_on_c, 8, 46, 0
4, 18780, Note_on_c, 8, 46, 127
4, 18839, Note_on_c, 8, 46, 0
4, 18840, Note_on_c, 8, 46, 127
4, 18899, Note_on_c, 8, 46, 0
4, 18900, Note_on_c, 8, 48, 127
4, 18959, Note_on_c, 8, 48, 0
4, 18960, Note_on_c, 8, 48, 127
4, 19019, Note_on_c, 8, 48, 0
4, 19020, Note_on_c, 8, 48, 127
4, 19079, Note_on_c, 8, 48, 0
4, 19080, Note_on_c, 8, 48, 127
4, 19139, Note_on_c, 8, 48, 0
4, 19140, Note_on_c, 8, 48, 127
4, 19199, Note_on_c, 8, 48, 0
4, 19200, Note_on_c, 8, 41, 127
4, 19259, Note_on_c, 8, 41, 0
4, 19260, Note_on_c, 8, 41, 127
4, 19319, Note_on_c, 8, 41, 0
4, 19320, Note_on_c, 8, 41, 127
4, 19379, Note_on_c, 8, 41, 0
4, 19380, Note_on_c, 8, 41, 127
4, 19439, Note_on_c, 8, 41, 0
4, 19440, Note_on_c, 8, 41, 127
4, 19499, Note_on_c, 8, 41, 0
4, 19500, Note_on_c, 8, 41, 127
4, 19559, Note_on_c, 8, 41, 0
4, 19560, Note_on_c, 8, 41, 127
4, 19619, Note_on_c, 8, 41, 0
4, 19620, Note_on_c, 8, 41, 127
4, 19679, Note_on_c, 8, 41, 0
4, 19680, Note_on_c, 8, 43, 127
4, 19739, Note_on_c, 8, 43, 0
4, 19740, Note_on_c, 8, 43, 127
4, 19799, Note_on_c, 8, 43, 0
4, 19800, Note_on_c, 8, 43, 127
4, 19859, Note_on_c, 8, 43, 0
4, 19860, Note_on_c, 8, 48, 127
4, 19919, Note_on_c, 8, 48, 0
4, 19920, Note_on_c, 8, 48, 127
4, 19979, Note_on_c, 8, 48, 0
4, 19980, Note_on_c, 8, 48, 127
4, 20039, Note_on_c, 8, 48, 0
4, 20040, Note_on_c, 8, 48, 127
4, 20099, Note_on_c, 8, 48, 0
4, 20100, Note_on_c, 8, 48, 127
4, 20159, Note_on_c, 8, 48, 0
4, 20160, Note_on_c, 8, 41, 127
4, 20219, Note_on_c, 8, 41, 0
4, 20220, Note_on_c, 8, 41, 127
4, 20279, Note_on_c, 8, 41, 0
4, 20280, Note_on_c, 8, 41, 127
4, 20339, Note_on_c, 8, 41, 0
4, 20340, Note_on_c, 8, 41, 127
4, 20399, Note_on_c, 8, 41, 0
4, 20400, Note_on_c, 8, 41, 127
4, 20459, Note_on_c, 8, 41, 0
4, 20460, Note_on_c, 8, 41, 127
4, 20519, Note_on_c, 8, 41, 0
4, 20520, Note_on_c, 8, 41, 127
4, 20579, Note_on_c, 8, 41, 0
4, 20580, Note_on_c, 8, 46, 127
4, 20639, Note_on_c, 8, 46, 0
4, 20640, Note_on_c, 8, 46, 127
4, 20699, Note_on_c, 8, 46, 0
4, 20700, Note_on_c, 8, 46, 127
4, 20759, Note_on_c, 8, 46, 0
4, 20760, Note_on_c, 8, 46, 127
4, 20819, Note_on_c, 8, 46, 0
4, 20820, Note_on_c, 8, 48, 127
4, 20879, Note_on_c, 8, 48, 0
4, 20880, Note_on_c, 8, 48, 127
4, 20939, Note_on_c, 8, 48, 0
4, 20940, Note_on_c, 8, 48, 127
4, 20999, Note_on_c, 8, 48, 0
4, 21000, Note_on_c, 8, 48, 127
4, 21059, Note_on_c, 8, 48, 0
4, 21060, Note_on_c, 8, 48, 127
4, 21119, Note_on_c, 8, 48, 0
4, 21120, Note_on_c, 8, 50, 127
4, 22079, Note_on_c, 8, 50, 0
4, 22080, Note_on_c, 8, 41, 127
4, 22259, Note_on_c, 8, 41, 0
4, 22260, Note_on_c, 8, 39, 127
4, 22559, Note_on_c, 8, 39, 0
4, 22560, Note_on_c, 8, 34, 127
4, 22739, Note_on_c, 8, 34, 0
4, 22740, Note_on_c, 8, 36, 127
4, 23039, Note_on_c, 8, 36, 0
4, 23040, Note_on_c, 8, 41, 127
4, 23219, Note_on_c, 8, 41, 0
4, 23220, Note_on_c, 8, 39, 127
4, 23519, Note_on_c, 8, 39, 0
4, 23520, Note_on_c, 8, 34, 127
4, 23699, Note_on_c, 8, 34, 0
4, 23700, Note_on_c, 8, 36, 127
4, 23999, Note_on_c, 8, 36, 0
4, 24000, Control_c, 8, 7, 117
4, 24000, Note_on_c, 8, 36, 127
4, 24119, Note_on_c, 8, 36, 0
4, 24120, Note_on_c, 8, 43, 127
4, 24179, Note_on_c, 8, 43, 0
4, 24180, Note_on_c, 8, 36, 127
4, 24239, Note_on_c, 8, 36, 0
4, 24240, Note_on_c, 8, 46, 127
4, 24299, Note_on_c, 8, 46, 0
4, 24300, Note_on_c, 8, 45, 127
4, 24359, Note_on_c, 8, 45, 0
4, 24360, Note_on_c, 8, 43, 127
4, 24419, Note_on_c, 8, 43, 0
4, 24420, Note_on_c, 8, 41, 127
4, 24479, Note_on_c, 8, 41, 0
4, 24480, Note_on_c, 8, 36, 127
4, 24599, Note_on_c, 8, 36, 0
4, 24600, Note_on_c, 8, 43, 127
4, 24659, Note_on_c, 8, 43, 0
4, 24660, Note_on_c, 8, 36, 127
4, 24719, Note_on_c, 8, 36, 0
4, 24720, Note_on_c, 8, 46, 127
4, 24779, Note_on_c, 8, 46, 0
4, 24780, Note_on_c, 8, 45, 127
4, 24839, Note_on_c, 8, 45, 0
4, 24840, Note_on_c, 8, 43, 127
4, 24899, Note_on_c, 8, 43, 0
4, 24900, Note_on_c, 8, 41, 127
4, 24959, Note_on_c, 8, 41, 0
4, 24960, Note_on_c, 8, 36, 127
4, 25079, Note_on_c, 8, 36, 0
4, 25080, Note_on_c, 8, 43, 127
4, 25139, Note_on_c, 8, 43, 0
4, 25140, Note_on_c, 8, 36, 127
4, 25199, Note_on_c, 8, 36, 0
4, 25200, Note_on_c, 8, 46, 127
4, 25259, Note_on_c, 8, 46, 0
4, 25260, Note_on_c, 8, 45, 127
4, 25319, Note_on_c, 8, 45, 0
4, 25320, Note_on_c, 8, 43, 127
4, 25379, Note_on_c, 8, 43, 0
4, 25380, Note_on_c, 8, 41, 127
4, 25439, Note_on_c, 8, 41, 0
4, 25440, Note_on_c, 8, 36, 127
4, 25559, Note_on_c, 8, 36, 0
4, 25560, Note_on_c, 8, 43, 127
4, 25619, Note_on_c, 8, 43, 0
4, 25620, Note_on_c, 8, 36, 127
4, 25679, Note_on_c, 8, 36, 0
4, 25680, Note_on_c, 8, 46, 127
4, 25739, Note_on_c, 8, 46, 0
4, 25740, Note_on_c, 8, 45, 127
4, 25799, Note_on_c, 8, 45, 0
4, 25800, Note_on_c, 8, 43, 127
4, 25859, Note_on_c, 8, 43, 0
4, 25860, Note_on_c, 8, 41, 127
4, 25919, Note_on_c, 8, 41, 0
4, 25920, Note_on_c, 8, 36, 127
4, 26039, Note_on_c, 8, 36, 0
4, 26040, Note_on_c, 8, 43, 127
4, 26099, Note_on_c, 8, 43, 0
4, 26100, Note_on_c, 8, 36, 127
4, 26159, Note_on_c, 8, 36, 0
4, 26160, Note_on_c, 8, 46, 127
4, 26219, Note_on_c, 8, 46, 0
4, 26220, Note_on_c, 8, 45, 127
4, 26279, Note_on_c, 8, 45, 0
4, 26280, Note_on_c, 8, 43, 127
4, 26339, Note_on_c, 8, 43, 0
4, 26340, Note_on_c, 8, 41, 127
4, 26399, Note_on_c, 8, 41, 0
4, 26400, Note_on_c, 8, 36, 127
4, 26519, Note_on_c, 8, 36, 0
4, 26520, Note_on_c, 8, 43, 127
4, 26579, Note_on_c, 8, 43, 0
4, 26580, Note_on_c, 8, 36, 127
4, 26639, Note_on_c, 8, 36, 0
4, 26640, Note_on_c, 8, 46, 127
4, 26699, Note_on_c, 8, 46, 0
4, 26700, Note_on_c, 8, 45, 127
4, 26759, Note_on_c, 8, 45, 0
4, 26760, Note_on_c, 8, 43, 127
4, 26819, Note_on_c, 8, 43, 0
4, 26820, Note_on_c, 8, 41, 127
4, 26879, Note_on_c, 8, 41, 0
4, 26880, Note_on_c, 8, 36, 127
4, 26999, Note_on_c, 8, 36, 0
4, 27000, Note_on_c, 8, 43, 127
4, 27059, Note_on_c, 8, 43, 0
4, 27060, Note_on_c, 8, 36, 127
4, 27119, Note_on_c, 8, 36, 0
4, 27120, Note_on_c, 8, 46, 127
4, 27179, Note_on_c, 8, 46, 0
4, 27180, Note_on_c, 8, 45, 127
4, 27239, Note_on_c, 8, 45, 0
4, 27240, Note_on_c, 8, 43, 127
4, 27299, Note_on_c, 8, 43, 0
4, 27300, Note_on_c, 8, 41, 127
4, 27359, Note_on_c, 8, 41, 0
4, 27360, Note_on_c, 8, 36, 127
4, 27479, Note_on_c, 8, 36, 0
4, 27480, Note_on_c, 8, 43, 127
4, 27539, Note_on_c, 8, 43, 0
4, 27540, Note_on_c, 8, 36, 127
4, 27599, Note_on_c, 8, 36, 0
4, 27600, Note_on_c, 8, 46, 127
4, 27659, Note_on_c, 8, 46, 0
4, 27660, Note_on_c, 8, 45, 127
4, 27719, Note_on_c, 8, 45, 0
4, 27720, Note_on_c, 8, 43, 127
4, 27779, Note_on_c, 8, 43, 0
4, 27780, Note_on_c, 8, 41, 127
4, 27839, Note_on_c, 8, 41, 0
4, 27840, Note_on_c, 8, 36, 127
4, 27959, Note_on_c, 8, 36, 0
4, 27960, Note_on_c, 8, 43, 127
4, 28019, Note_on_c, 8, 43, 0
4, 28020, Note_on_c, 8, 36, 127
4, 28079, Note_on_c, 8, 36, 0
4, 28080, Note_on_c, 8, 46, 127
4, 28139, Note_on_c, 8, 46, 0
4, 28140, Note_on_c, 8, 45, 127
4, 28199, Note_on_c, 8, 45, 0
4, 28200, Note_on_c, 8, 43, 127
4, 28259, Note_on_c, 8, 43, 0
4, 28260, Note_on_c, 8, 41, 127
4, 28319, Note_on_c, 8, 41, 0
4, 28320, Note_on_c, 8, 36, 127
4, 28439, Note_on_c, 8, 36, 0
4, 28440, Note_on_c, 8, 43, 127
4, 28499, Note_on_c, 8, 43, 0
4, 28500, Note_on_c, 8, 36, 127
4, 28559, Note_on_c, 8, 36, 0
4, 28560, Note_on_c, 8, 46, 127
4, 28619, Note_on_c, 8, 46, 0
4, 28620, Note_on_c, 8, 45, 127
4, 28679, Note_on_c, 8, 45, 0
4, 28680, Note_on_c, 8, 43, 127
4, 28739, Note_on_c, 8, 43, 0
4, 28740, Note_on_c, 8, 41, 127
4, 28799, Note_on_c, 8, 41, 0
4, 28800, Note_on_c, 8, 36, 127
4, 28919, Note_on_c, 8, 36, 0
4, 28920, Note_on_c, 8, 43, 127
4, 28979, Note_on_c, 8, 43, 0
4, 28980, Note_on_c, 8, 36, 127
4, 29039, Note_on_c, 8, 36, 0
4, 29040, Note_on_c, 8, 46, 127
4, 29099, Note_on_c, 8, 46, 0
4, 29100, Note_on_c, 8, 45, 127
4, 29159, Note_on_c, 8, 45, 0
4, 29160, Note_on_c, 8, 43, 127
4, 29219, Note_on_c, 8, 43, 0
4, 29220, Note_on_c, 8, 41, 127
4, 29279, Note_on_c, 8, 41, 0
4, 29280, Note_on_c, 8, 36, 127
4, 29399, Note_on_c, 8, 36, 0
4, 29400, Note_on_c, 8, 43, 127
4, 29459, Note_on_c, 8, 43, 0
4, 29460, Note_on_c, 8, 36, 127
4, 29519, Note_on_c, 8, 36, 0
4, 29520, Note_on_c, 8, 46, 127
4, 29579, Note_on_c, 8, 46, 0
4, 29580, Note_on_c, 8, 45, 127
4, 29639, Note_on_c, 8, 45, 0
4, 29640, Note_on_c, 8, 43, 127
4, 29699, Note_on_c, 8, 43, 0
4, 29700, Note_on_c, 8, 41, 127
4, 29759, Note_on_c, 8, 41, 0
4, 29760, Note_on_c, 8, 36, 127
4, 29879, Note_on_c, 8, 36, 0
4, 29880, Note_on_c, 8, 43, 127
4, 29939, Note_on_c, 8, 43, 0
4, 29940, Note_on_c, 8, 36, 127
4, 29999, Note_on_c, 8, 36, 0
4, 30000, Note_on_c, 8, 46, 127
4, 30059, Note_on_c, 8, 46, 0
4, 30060, Note_on_c, 8, 45, 127
4, 30119, Note_on_c, 8, 45, 0
4, 30120, Note_on_c, 8, 43, 127
4, 30179, Note_on_c, 8, 43, 0
4, 30180, Note_on_c, 8, 41, 127
4, 30239, Note_on_c, 8, 41, 0
4, 30240, Note_on_c, 8, 36, 127
4, 30359, Note_on_c, 8, 36, 0
4, 30360, Note_on_c, 8, 43, 127
4, 30419, Note_on_c, 8, 43, 0
4, 30420, Note_on_c, 8, 36, 127
4, 30479, Note_on_c, 8, 36, 0
4, 30480, Note_on_c, 8, 46, 127
4, 30539, Note_on_c, 8, 46, 0
4, 30540, Note_on_c, 8, 45, 127
4, 30599, Note_on_c, 8, 45, 0
4, 30600, Note_on_c, 8, 43, 127
4, 30659, Note_on_c, 8, 43, 0
4, 30660, Note_on_c, 8, 41, 127
4, 30719, Note_on_c, 8, 41, 0
4, 30720, Note_on_c, 8, 36, 127
4, 30839, Note_on_c, 8, 36, 0
4, 30840, Note_on_c, 8, 43, 127
4, 30899, Note_on_c, 8, 43, 0
4, 30900, Note_on_c, 8, 36, 127
4, 30959, Note_on_c, 8, 36, 0
4, 30960, Note_on_c, 8, 46, 127
4, 31019, Note_on_c, 8, 46, 0
4, 31020, Note_on_c, 8, 45, 127
4, 31079, Note_on_c, 8, 45, 0
4, 31080, Note_on_c, 8, 43, 127
4, 31139, Note_on_c, 8, 43, 0
4, 31140, Note_on_c, 8, 41, 127
4, 31199, Note_on_c, 8, 41, 0
4, 31200, Note_on_c, 8, 36, 127
4, 31319, Note_on_c, 8, 36, 0
4, 31320, Note_on_c, 8, 43, 127
4, 31379, Note_on_c, 8, 43, 0
4, 31380, Note_on_c, 8, 36, 127
4, 31439, Note_on_c, 8, 36, 0
4, 31440, Note_on_c, 8, 46, 127
4, 31499, Note_on_c, 8, 46, 0
4, 31500, Note_on_c, 8, 45, 127
4, 31559, Note_on_c, 8, 45, 0
4, 31560, Note_on_c, 8, 43, 127
4, 31619, Note_on_c, 8, 43, 0
4, 31620, Note_on_c, 8, 41, 127
4, 31679, Note_on_c, 8, 41, 0
4, 31680, Note_on_c, 8, 36, 127
4, 31799, Note_on_c, 8, 36, 0
4, 31800, Note_on_c, 8, 43, 127
4, 31859, Note_on_c, 8, 43, 0
4, 31860, Note_on_c, 8, 36, 127
4, 31919, Note_on_c, 8, 36, 0
4, 31920, Note_on_c, 8, 46, 127
4, 31979, Note_on_c, 8, 46, 0
4, 31980, Note_on_c, 8, 45, 127
4, 32039, Note_on_c, 8, 45, 0
4, 32040, Note_on_c, 8, 43, 127
4, 32099, Note_on_c, 8, 43, 0
4, 32100, Note_on_c, 8, 41, 127
4, 32159, Note_on_c, 8, 41, 0
4, 32160, Note_on_c, 8, 36, 127
4, 32279, Note_on_c, 8, 36, 0
4, 32280, Note_on_c, 8, 43, 127
4, 32339, Note_on_c, 8, 43, 0
4, 32340, Note_on_c, 8, 36, 127
4, 32399, Note_on_c, 8, 36, 0
4, 32400, Note_on_c, 8, 46, 127
4, 32459, Note_on_c, 8, 46, 0
4, 32460, Note_on_c, 8, 45, 127
4, 32519, Note_on_c, 8, 45, 0
4, 32520, Note_on_c, 8, 43, 127
4, 32579, Note_on_c, 8, 43, 0
4, 32580, Note_on_c, 8, 41, 127
4, 32639, Note_on_c, 8, 41, 0
4, 32640, Note_on_c, 8, 36, 127
4, 32759, Note_on_c, 8, 36, 0
4, 32760, Note_on_c, 8, 43, 127
4, 32819, Note_on_c, 8, 43, 0
4, 32820, Note_on_c, 8, 36, 127
4, 32879, Note_on_c, 8, 36, 0
4, 32880, Note_on_c, 8, 46, 127
4, 32939, Note_on_c, 8, 46, 0
4, 32940, Note_on_c, 8, 45, 127
4, 32999, Note_on_c, 8, 45, 0
4, 33000, Note_on_c, 8, 43, 127
4, 33059, Note_on_c, 8, 43, 0
4, 33060, Note_on_c, 8, 41, 127
4, 33119, Note_on_c, 8, 41, 0
4, 33120, Note_on_c, 8, 36, 127
4, 33239, Note_on_c, 8, 36, 0
4, 33240, Note_on_c, 8, 43, 127
4, 33299, Note_on_c, 8, 43, 0
4, 33300, Note_on_c, 8, 36, 127
4, 33359, Note_on_c, 8, 36, 0
4, 33360, Note_on_c, 8, 46, 127
4, 33419, Note_on_c, 8, 46, 0
4, 33420, Note_on_c, 8, 45, 127
4, 33479, Note_on_c, 8, 45, 0
4, 33480, Note_on_c, 8, 43, 127
4, 33539, Note_on_c, 8, 43, 0
4, 33540, Note_on_c, 8, 41, 127
4, 33599, Note_on_c, 8, 41, 0
4, 33600, Note_on_c, 8, 36, 127
4, 33719, Note_on_c, 8, 36, 0
4, 33720, Note_on_c, 8, 43, 127
4, 33779, Note_on_c, 8, 43, 0
4, 33780, Note_on_c, 8, 36, 127
4, 33839, Note_on_c, 8, 36, 0
4, 33840, Note_on_c, 8, 46, 127
4, 33899, Note_on_c, 8, 46, 0
4, 33900, Note_on_c, 8, 45, 127
4, 33959, Note_on_c, 8, 45, 0
4, 33960, Note_on_c, 8, 43, 127
4, 34019, Note_on_c, 8, 43, 0
4, 34020, Note_on_c, 8, 41, 127
4, 34079, Note_on_c, 8, 41, 0
4, 34080, Note_on_c, 8, 36, 127
4, 34199, Note_on_c, 8, 36, 0
4, 34200, Note_on_c, 8, 43, 127
4, 34259, Note_on_c, 8, 43, 0
4, 34260, Note_on_c, 8, 36, 127
4, 34319, Note_on_c, 8, 36, 0
4, 34320, Note_on_c, 8, 46, 127
4, 34379, Note_on_c, 8, 46, 0
4, 34380, Note_on_c, 8, 45, 127
4, 34439, Note_on_c, 8, 45, 0
4, 34440, Note_on_c, 8, 43, 127
4, 34499, Note_on_c, 8, 43, 0
4, 34500, Note_on_c, 8, 41, 127
4, 34559, Note_on_c, 8, 41, 0
4, 34560, Note_on_c, 8, 36, 127
4, 34679, Note_on_c, 8, 36, 0
4, 34680, Note_on_c, 8, 43, 127
4, 34739, Note_on_c, 8, 43, 0
4, 34740, Note_on_c, 8, 36, 127
4, 34799, Note_on_c, 8, 36, 0
4, 34800, Note_on_c, 8, 46, 127
4, 34859, Note_on_c, 8, 46, 0
4, 34860, Note_on_c, 8, 45, 127
4, 34919, Note_on_c, 8, 45, 0
4, 34920, Note_on_c, 8, 43, 127
4, 34979, Note_on_c, 8, 43, 0
4, 34980, Note_on_c, 8, 41, 127
4, 35039, Note_on_c, 8, 41, 0
4, 35040, Note_on_c, 8, 36, 127
4, 35159, Note_on_c, 8, 36, 0
4, 35160, Note_on_c, 8, 43, 127
4, 35219, Note_on_c, 8, 43, 0
4, 35220, Note_on_c, 8, 36, 127
4, 35279, Note_on_c, 8, 36, 0
4, 35280, Note_on_c, 8, 46, 127
4, 35339, Note_on_c, 8, 46, 0
4, 35340, Note_on_c, 8, 45, 127
4, 35399, Note_on_c, 8, 45, 0
4, 35400, Note_on_c, 8, 43, 127
4, 35459, Note_on_c, 8, 43, 0
4, 35460, Note_on_c, 8, 40, 127
4, 35519, Note_on_c, 8, 40, 0
4, 35520, Control_c, 8, 7, 123
4, 35520, Note_on_c, 8, 41, 127
4, 35639, Note_on_c, 8, 41, 0
4, 35640, Note_on_c, 8, 41, 127
4, 35699, Note_on_c, 8, 41, 0
4, 35700, Note_on_c, 8, 41, 127
4, 35759, Note_on_c, 8, 41, 0
4, 35760, Note_on_c, 8, 41, 127
4, 35819, Note_on_c, 8, 41, 0
4, 35820, Note_on_c, 8, 41, 127
4, 35879, Note_on_c, 8, 41, 0
4, 35880, Note_on_c, 8, 41, 127
4, 35939, Note_on_c, 8, 41, 0
4, 35940, Note_on_c, 8, 46, 127
4, 35999, Note_on_c, 8, 46, 0
4, 36000, Note_on_c, 8, 46, 127
4, 36059, Note_on_c, 8, 46, 0
4, 36060, Note_on_c, 8, 46, 127
4, 36119, Note_on_c, 8, 46, 0
4, 36120, Note_on_c, 8, 46, 127
4, 36179, Note_on_c, 8, 46, 0
4, 36180, Note_on_c, 8, 48, 127
4, 36239, Note_on_c, 8, 48, 0
4, 36240, Note_on_c, 8, 48, 127
4, 36299, Note_on_c, 8, 48, 0
4, 36300, Note_on_c, 8, 48, 127
4, 36359, Note_on_c, 8, 48, 0
4, 36360, Note_on_c, 8, 48, 127
4, 36419, Note_on_c, 8, 48, 0
4, 36420, Note_on_c, 8, 48, 127
4, 36479, Note_on_c, 8, 48, 0
4, 36480, Note_on_c, 8, 41, 127
4, 36539, Note_on_c, 8, 41, 0
4, 36540, Note_on_c, 8, 41, 127
4, 36599, Note_on_c, 8, 41, 0
4, 36600, Note_on_c, 8, 41, 127
4, 36659, Note_on_c, 8, 41, 0
4, 36660, Note_on_c, 8, 41, 127
4, 36719, Note_on_c, 8, 41, 0
4, 36720, Note_on_c, 8, 41, 127
4, 36779, Note_on_c, 8, 41, 0
4, 36780, Note_on_c, 8, 41, 127
4, 36839, Note_on_c, 8, 41, 0
4, 36840, Note_on_c, 8, 41, 127
4, 36899, Note_on_c, 8, 41, 0
4, 36900, Note_on_c, 8, 41, 127
4, 36959, Note_on_c, 8, 41, 0
4, 36960, Note_on_c, 8, 43, 127
4, 37019, Note_on_c, 8, 43, 0
4, 37020, Note_on_c, 8, 43, 127
4, 37079, Note_on_c, 8, 43, 0
4, 37080, Note_on_c, 8, 43, 127
4, 37139, Note_on_c, 8, 43, 0
4, 37140, Note_on_c, 8, 48, 127
4, 37199, Note_on_c, 8, 48, 0
4, 37200, Note_on_c, 8, 48, 127
4, 37259, Note_on_c, 8, 48, 0
4, 37260, Note_on_c, 8, 48, 127
4, 37319, Note_on_c, 8, 48, 0
4, 37320, Note_on_c, 8, 48, 127
4, 37379, Note_on_c, 8, 48, 0
4, 37380, Note_on_c, 8, 48, 127
4, 37439, Note_on_c, 8, 48, 0
4, 37440, Note_on_c, 8, 41, 127
4, 37499, Note_on_c, 8, 41, 0
4, 37500, Note_on_c, 8, 41, 127
4, 37559, Note_on_c, 8, 41, 0
4, 37560, Note_on_c, 8, 41, 127
4, 37619, Note_on_c, 8, 41, 0
4, 37620, Note_on_c, 8, 41, 127
4, 37679, Note_on_c, 8, 41, 0
4, 37680, Note_on_c, 8, 41, 127
4, 37739, Note_on_c, 8, 41, 0
4, 37740, Note_on_c, 8, 41, 127
4, 37799, Note_on_c, 8, 41, 0
4, 37800, Note_on_c, 8, 41, 127
4, 37859, Note_on_c, 8, 41, 0
4, 37860, Note_on_c, 8, 46, 127
4, 37919, Note_on_c, 8, 46, 0
4, 37920, Note_on_c, 8, 46, 127
4, 37979, Note_on_c, 8, 46, 0
4, 37980, Note_on_c, 8, 46, 127
4, 38039, Note_on_c, 8, 46, 0
4, 38040, Note_on_c, 8, 46, 127
4, 38099, Note_on_c, 8, 46, 0
4, 38100, Note_on_c, 8, 48, 127
4, 38159, Note_on_c, 8, 48, 0
4, 38160, Note_on_c, 8, 48, 127
4, 38219, Note_on_c, 8, 48, 0
4, 38220, Note_on_c, 8, 48, 127
4, 38279, Note_on_c, 8, 48, 0
4, 38280, Note_on_c, 8, 48, 127
4, 38339, Note_on_c, 8, 48, 0
4, 38340, Note_on_c, 8, 48, 127
4, 38399, Note_on_c, 8, 48, 0
4, 38400, Note_on_c, 8, 50, 127
4, 39359, Note_on_c, 8, 50, 0
4, 39360, Note_on_c, 8, 41, 127
4, 39539, Note_on_c, 8, 41, 0
4, 39540, Note_on_c, 8, 39, 127
4, 39839, Note_on_c, 8, 39, 0
4, 39840, Note_on_c, 8, 34, 127
4, 40019, Note_on_c, 8, 34, 0
4, 40020, Note_on_c, 8, 36, 127
4, 40319, Note_on_c, 8, 36, 0
4, 40320, Note_on_c, 8, 41, 127
4, 40499, Note_on_c, 8, 41, 0
4, 40500, Note_on_c, 8, 39, 127
4, 40799, Note_on_c, 8, 39, 0
4, 40800, Note_on_c, 8, 34, 127
4, 40979, Note_on_c, 8, 34, 0
4, 40980, Note_on_c, 8, 36, 127
4, 41279, Note_on_c, 8, 36, 0
4, 41280, Note_on_c, 8, 41, 127
4, 41399, Note_on_c, 8, 41, 0
4, 41400, Note_on_c, 8, 41, 127
4, 41459, Note_on_c, 8, 41, 0
4, 41460, Note_on_c, 8, 41, 127
4, 41519, Note_on_c, 8, 41, 0
4, 41520, Note_on_c, 8, 41, 127
4, 41579, Note_on_c, 8, 41, 0
4, 41580, Note_on_c, 8, 41, 127
4, 41639, Note_on_c, 8, 41, 0
4, 41640, Note_on_c, 8, 41, 127
4, 41699, Note_on_c, 8, 41, 0
4, 41700, Note_on_c, 8, 46, 127
4, 41759, Note_on_c, 8, 46, 0
4, 41760, Note_on_c, 8, 46, 127
4, 41819, Note_on_c, 8, 46, 0
4, 41820, Note_on_c, 8, 46, 127
4, 41879, Note_on_c, 8, 46, 0
4, 41880, Note_on_c, 8, 46, 127
4, 41939, Note_on_c, 8, 46, 0
4, 41940, Note_on_c, 8, 48, 127
4, 41999, Note_on_c, 8, 48, 0
4, 42000, Note_on_c, 8, 48, 127
4, 42059, Note_on_c, 8, 48, 0
4, 42060, Note_on_c, 8, 48, 127
4, 42119, Note_on_c, 8, 48, 0
4, 42120, Note_on_c, 8, 48, 127
4, 42179, Note_on_c, 8, 48, 0
4, 42180, Note_on_c, 8, 48, 127
4, 42239, Note_on_c, 8, 48, 0
4, 42240, Note_on_c, 8, 41, 127
4, 42299, Note_on_c, 8, 41, 0
4, 42300, Note_on_c, 8, 41, 127
4, 42359, Note_on_c, 8, 41, 0
4, 42360, Note_on_c, 8, 41, 127
4, 42419, Note_on_c, 8, 41, 0
4, 42420, Note_on_c, 8, 41, 127
4, 42479, Note_on_c, 8, 41, 0
4, 42480, Note_on_c, 8, 41, 127
4, 42539, Note_on_c, 8, 41, 0
4, 42540, Note_on_c, 8, 41, 127
4, 42599, Note_on_c, 8, 41, 0
4, 42600, Note_on_c, 8, 41, 127
4, 42659, Note_on_c, 8, 41, 0
4, 42660, Note_on_c, 8, 41, 127
4, 42719, Note_on_c, 8, 41, 0
4, 42720, Note_on_c, 8, 43, 127
4, 42779, Note_on_c, 8, 43, 0
4, 42780, Note_on_c, 8, 43, 127
4, 42839, Note_on_c, 8, 43, 0
4, 42840, Note_on_c, 8, 43, 127
4, 42899, Note_on_c, 8, 43, 0
4, 42900, Note_on_c, 8, 48, 127
4, 42959, Note_on_c, 8, 48, 0
4, 42960, Note_on_c, 8, 48, 127
4, 43019, Note_on_c, 8, 48, 0
4, 43020, Note_on_c, 8, 48, 127
4, 43079, Note_on_c, 8, 48, 0
4, 43080, Note_on_c, 8, 48, 127
4, 43139, Note_on_c, 8, 48, 0
4, 43140, Note_on_c, 8, 48, 127
4, 43199, Note_on_c, 8, 48, 0
4, 43200, Note_on_c, 8, 41, 127
4, 43259, Note_on_c, 8, 41, 0
4, 43260, Note_on_c, 8, 41, 127
4, 43319, Note_on_c, 8, 41, 0
4, 43320, Note_on_c, 8, 41, 127
4, 43379, Note_on_c, 8, 41, 0
4, 43380, Note_on_c, 8, 41, 127
4, 43439, Note_on_c, 8, 41, 0
4, 43440, Note_on_c, 8, 41, 127
4, 43499, Note_on_c, 8, 41, 0
4, 43500, Note_on_c, 8, 41, 127
4, 43559, Note_on_c, 8, 41, 0
4, 43560, Note_on_c, 8, 41, 127
4, 43619, Note_on_c, 8, 41, 0
4, 43620, Note_on_c, 8, 46, 127
4, 43679, Note_on_c, 8, 46, 0
4, 43680, Note_on_c, 8, 46, 127
4, 43739, Note_on_c, 8, 46, 0
4, 43740, Note_on_c, 8, 46, 127
4, 43799, Note_on_c, 8, 46, 0
4, 43800, Note_on_c, 8, 46, 127
4, 43859, Note_on_c, 8, 46, 0
4, 43860, Note_on_c, 8, 48, 127
4, 43919, Note_on_c, 8, 48, 0
4, 43920, Note_on_c, 8, 48, 127
4, 43979, Note_on_c, 8, 48, 0
4, 43980, Note_on_c, 8, 48, 127
4, 44039, Note_on_c, 8, 48, 0
4, 44040, Note_on_c, 8, 48, 127
4, 44099, Note_on_c, 8, 48, 0
4, 44100, Note_on_c, 8, 48, 127
4, 44159, Note_on_c, 8, 48, 0
4, 44160, Note_on_c, 8, 50, 127
4, 45119, Note_on_c, 8, 50, 0
4, 45120, Note_on_c, 8, 41, 127
4, 45299, Note_on_c, 8, 41, 0
4, 45300, Note_on_c, 8, 39, 127
4, 45599, Note_on_c, 8, 39, 0
4, 45600, Note_on_c, 8, 34, 127
4, 45779, Note_on_c, 8, 34, 0
4, 45780, Note_on_c, 8, 36, 127
4, 46079, Note_on_c, 8, 36, 0
4, 46080, Note_on_c, 8, 41, 127
4, 46259, Note_on_c, 8, 41, 0
4, 46260, Note_on_c, 8, 39, 127
4, 46559, Note_on_c, 8, 39, 0
4, 46560, Note_on_c, 8, 34, 127
4, 46739, Note_on_c, 8, 34, 0
4, 46740, Note_on_c, 8, 36, 127
4, 47039, Note_on_c, 8, 36, 0
4, 47040, Note_on_c, 8, 41, 127
4, 47219, Note_on_c, 8, 41, 0
4, 47220, Note_on_c, 8, 39, 127
4, 47519, Note_on_c, 8, 39, 0
4, 47520, Note_on_c, 8, 34, 127
4, 47699, Note_on_c, 8, 34, 0
4, 47700, Note_on_c, 8, 36, 127
4, 49439, Note_on_c, 8, 36, 0
4, 49439, End_track
5, 0, Start_track
5, 0, MIDI_port, 0
5, 0, Title_t, "DRUMS"
5, 0, Program_c, 9, 0
5, 0, Control_c, 9, 7, 127
5, 0, Control_c, 9, 10, 64
5, 0, Note_on_c, 9, 42, 99
5, 29, Note_on_c, 9, 42, 0
5, 240, Note_on_c, 9, 42, 99
5, 269, Note_on_c, 9, 42, 0
5, 480, Note_on_c, 9, 42, 99
5, 509, Note_on_c, 9, 42, 0
5, 600, Note_on_c, 9, 42, 99
5, 629, Note_on_c, 9, 42, 0
5, 720, Note_on_c, 9, 42, 99
5, 749, Note_on_c, 9, 42, 0
5, 840, Note_on_c, 9, 42, 99
5, 869, Note_on_c, 9, 42, 0
5, 1920, Note_on_c, 9, 51, 111
5, 1920, Note_on_c, 9, 53, 123
5, 1949, Note_on_c, 9, 53, 0
5, 1949, Note_on_c, 9, 51, 0
5, 2400, Note_on_c, 9, 51, 111
5, 2400, Note_on_c, 9, 53, 123
5, 2429, Note_on_c, 9, 53, 0
5, 2429, Note_on_c, 9, 51, 0
5, 2880, Note_on_c, 9, 53, 111
5, 2909, Note_on_c, 9, 53, 0
5, 3120, Note_on_c, 9, 53, 111
5, 3149, Note_on_c, 9, 53, 0
5, 3240, Note_on_c, 9, 53, 111
5, 3269, Note_on_c, 9, 53, 0
5, 3360, Note_on_c, 9, 53, 111
5, 3389, Note_on_c, 9, 53, 0
5, 3600, Note_on_c, 9, 53, 111
5, 3629, Note_on_c, 9, 53, 0
5, 3720, Note_on_c, 9, 53, 111
5, 3749, Note_on_c, 9, 53, 0
5, 3840, Note_on_c, 9, 53, 111
5, 3869, Note_on_c, 9, 53, 0
5, 4080, Note_on_c, 9, 53, 111
5, 4109, Note_on_c, 9, 53, 0
5, 4200, Note_on_c, 9, 53, 111
5, 4229, Note_on_c, 9, 53, 0
5, 4320, Note_on_c, 9, 53, 111
5, 4349, Note_on_c, 9, 53, 0
5, 4560, Note_on_c, 9, 53, 111
5, 4589, Note_on_c, 9, 53, 0
5, 4680, Note_on_c, 9, 53, 111
5, 4709, Note_on_c, 9, 53, 0
5, 4800, Note_on_c, 9, 53, 111
5, 4829, Note_on_c, 9, 53, 0
5, 4920, Note_on_c, 9, 42, 99
5, 4949, Note_on_c, 9, 42, 0
5, 5040, Note_on_c, 9, 53, 111
5, 5069, Note_on_c, 9, 53, 0
5, 5160, Note_on_c, 9, 53, 111
5, 5189, Note_on_c, 9, 53, 0
5, 5280, Note_on_c, 9, 53, 111
5, 5309, Note_on_c, 9, 53, 0
5, 5400, Note_on_c, 9, 42, 99
5, 5429, Note_on_c, 9, 42, 0
5, 5520, Note_on_c, 9, 53, 111
5, 5549, Note_on_c, 9, 53, 0
5, 5640, Note_on_c, 9, 53, 111
5, 5669, Note_on_c, 9, 53, 0
5, 5760, Note_on_c, 9, 53, 111
5, 5789, Note_on_c, 9, 53, 0
5, 5880, Note_on_c, 9, 42, 99
5, 5909, Note_on_c, 9, 42, 0
5, 6000, Note_on_c, 9, 53, 111
5, 6029, Note_on_c, 9, 53, 0
5, 6120, Note_on_c, 9, 53, 111
5, 6149, Note_on_c, 9, 53, 0
5, 6240, Note_on_c, 9, 53, 111
5, 6269, Note_on_c, 9, 53, 0
5, 6360, Note_on_c, 9, 42, 111
5, 6389, Note_on_c, 9, 42, 0
5, 6480, Note_on_c, 9, 53, 111
5, 6509, Note_on_c, 9, 53, 0
5, 6600, Note_on_c, 9, 53, 111
5, 6629, Note_on_c, 9, 53, 0
5, 6720, Note_on_c, 9, 53, 111
5, 6720, Note_on_c, 9, 38, 123
5, 6720, Note_on_c, 9, 51, 111
5, 6749, Note_on_c, 9, 51, 0
5, 6749, Note_on_c, 9, 38, 0
5, 6749, Note_on_c, 9, 53, 0
5, 6780, Note_on_c, 9, 51, 111
5, 6809, Note_on_c, 9, 51, 0
5, 6840, Note_on_c, 9, 38, 123
5, 6840, Note_on_c, 9, 51, 111
5, 6869, Note_on_c, 9, 51, 0
5, 6869, Note_on_c, 9, 38, 0
5, 6900, Note_on_c, 9, 36, 123
5, 6900, Note_on_c, 9, 51, 111
5, 6929, Note_on_c, 9, 51, 0
5, 6929, Note_on_c, 9, 36, 0
5, 6960, Note_on_c, 9, 38, 123
5, 6960, Note_on_c, 9, 51, 111
5, 6989, Note_on_c, 9, 51, 0
5, 6989, Note_on_c, 9, 38, 0
5, 7020, Note_on_c, 9, 36, 123
5, 7020, Note_on_c, 9, 51, 111
5, 7049, Note_on_c, 9, 51, 0
5, 7049, Note_on_c, 9, 36, 0
5, 7080, Note_on_c, 9, 38, 123
5, 7080, Note_on_c, 9, 51, 111
5, 7109, Note_on_c, 9, 51, 0
5, 7109, Note_on_c, 9, 38, 0
5, 7140, Note_on_c, 9, 36, 123
5, 7140, Note_on_c, 9, 51, 111
5, 7169, Note_on_c, 9, 51, 0
5, 7169, Note_on_c, 9, 36, 0
5, 7200, Note_on_c, 9, 38, 123
5, 7200, Note_on_c, 9, 51, 111
5, 7229, Note_on_c, 9, 51, 0
5, 7229, Note_on_c, 9, 38, 0
5, 7260, Note_on_c, 9, 51, 111
5, 7289, Note_on_c, 9, 51, 0
5, 7320, Note_on_c, 9, 38, 123
5, 7320, Note_on_c, 9, 51, 111
5, 7349, Note_on_c, 9, 51, 0
5, 7349, Note_on_c, 9, 38, 0
5, 7380, Note_on_c, 9, 36, 123
5, 7380, Note_on_c, 9, 51, 111
5, 7409, Note_on_c, 9, 51, 0
5, 7409, Note_on_c, 9, 36, 0
5, 7440, Note_on_c, 9, 38, 123
5, 7440, Note_on_c, 9, 51, 111
5, 7469, Note_on_c, 9, 51, 0
5, 7469, Note_on_c, 9, 38, 0
5, 7500, Note_on_c, 9, 36, 123
5, 7500, Note_on_c, 9, 51, 111
5, 7529, Note_on_c, 9, 51, 0
5, 7529, Note_on_c, 9, 36, 0
5, 7560, Note_on_c, 9, 38, 123
5, 7560, Note_on_c, 9, 51, 111
5, 7589, Note_on_c, 9, 51, 0
5, 7589, Note_on_c, 9, 38, 0
5, 7620, Note_on_c, 9, 36, 123
5, 7620, Note_on_c, 9, 51, 111
5, 7649, Note_on_c, 9, 51, 0
5, 7649, Note_on_c, 9, 36, 0
5, 7680, Note_on_c, 9, 38, 123
5, 7680, Note_on_c, 9, 51, 111
5, 7709, Note_on_c, 9, 51, 0
5, 7709, Note_on_c, 9, 38, 0
5, 7740, Note_on_c, 9, 51, 111
5, 7769, Note_on_c, 9, 51, 0
5, 7800, Note_on_c, 9, 38, 123
5, 7800, Note_on_c, 9, 51, 111
5, 7829, Note_on_c, 9, 51, 0
5, 7829, Note_on_c, 9, 38, 0
5, 7860, Note_on_c, 9, 36, 123
5, 7860, Note_on_c, 9, 51, 111
5, 7889, Note_on_c, 9, 51, 0
5, 7889, Note_on_c, 9, 36, 0
5, 7920, Note_on_c, 9, 38, 123
5, 7920, Note_on_c, 9, 51, 111
5, 7949, Note_on_c, 9, 51, 0
5, 7949, Note_on_c, 9, 38, 0
5, 7980, Note_on_c, 9, 36, 123
5, 7980, Note_on_c, 9, 51, 111
5, 8009, Note_on_c, 9, 51, 0
5, 8009, Note_on_c, 9, 36, 0
5, 8040, Note_on_c, 9, 38, 123
5, 8040, Note_on_c, 9, 51, 111
5, 8069, Note_on_c, 9, 51, 0
5, 8069, Note_on_c, 9, 38, 0
5, 8100, Note_on_c, 9, 36, 123
5, 8100, Note_on_c, 9, 51, 111
5, 8129, Note_on_c, 9, 51, 0
5, 8129, Note_on_c, 9, 36, 0
5, 8160, Note_on_c, 9, 38, 123
5, 8160, Note_on_c, 9, 51, 111
5, 8189, Note_on_c, 9, 51, 0
5, 8189, Note_on_c, 9, 38, 0
5, 8220, Note_on_c, 9, 51, 111
5, 8249, Note_on_c, 9, 51, 0
5, 8280, Note_on_c, 9, 38, 123
5, 8280, Note_on_c, 9, 51, 111
5, 8309, Note_on_c, 9, 51, 0
5, 8309, Note_on_c, 9, 38, 0
5, 8340, Note_on_c, 9, 36, 123
5, 8340, Note_on_c, 9, 51, 111
5, 8369, Note_on_c, 9, 51, 0
5, 8369, Note_on_c, 9, 36, 0
5, 8400, Note_on_c, 9, 38, 123
5, 8400, Note_on_c, 9, 51, 111
5, 8429, Note_on_c, 9, 51, 0
5, 8429, Note_on_c, 9, 38, 0
5, 8460, Note_on_c, 9, 36, 123
5, 8460, Note_on_c, 9, 51, 111
5, 8489, Note_on_c, 9, 51, 0
5, 8489, Note_on_c, 9, 36, 0
5, 8520, Note_on_c, 9, 38, 123
5, 8520, Note_on_c, 9, 51, 111
5, 8549, Note_on_c, 9, 51, 0
5, 8549, Note_on_c, 9, 38, 0
5, 8580, Note_on_c, 9, 36, 123
5, 8580, Note_on_c, 9, 51, 111
5, 8609, Note_on_c, 9, 51, 0
5, 8609, Note_on_c, 9, 36, 0
5, 8640, Note_on_c, 9, 38, 123
5, 8640, Note_on_c, 9, 51, 111
5, 8669, Note_on_c, 9, 51, 0
5, 8669, Note_on_c, 9, 38, 0
5, 8700, Note_on_c, 9, 51, 111
5, 8729, Note_on_c, 9, 51, 0
5, 8760, Note_on_c, 9, 38, 123
5, 8760, Note_on_c, 9, 51, 111
5, 8789, Note_on_c, 9, 51, 0
5, 8789, Note_on_c, 9, 38, 0
5, 8820, Note_on_c, 9, 36, 123
5, 8820, Note_on_c, 9, 51, 111
5, 8849, Note_on_c, 9, 51, 0
5, 8849, Note_on_c, 9, 36, 0
5, 8880, Note_on_c, 9, 38, 123
5, 8880, Note_on_c, 9, 51, 111
5, 8909, Note_on_c, 9, 51, 0
5, 8909, Note_on_c, 9, 38, 0
5, 8940, Note_on_c, 9, 36, 123
5, 8940, Note_on_c, 9, 51, 111
5, 8969, Note_on_c, 9, 51, 0
5, 8969, Note_on_c, 9, 36, 0
5, 9000, Note_on_c, 9, 38, 123
5, 9000, Note_on_c, 9, 51, 111
5, 9029, Note_on_c, 9, 51, 0
5, 9029, Note_on_c, 9, 38, 0
5, 9060, Note_on_c, 9, 36, 123
5, 9060, Note_on_c, 9, 51, 111
5, 9089, Note_on_c, 9, 51, 0
5, 9089, Note_on_c, 9, 36, 0
5, 9120, Note_on_c, 9, 38, 123
5, 9120, Note_on_c, 9, 51, 111
5, 9149, Note_on_c, 9, 51, 0
5, 9149, Note_on_c, 9, 38, 0
5, 9180, Note_on_c, 9, 51, 111
5, 9209, Note_on_c, 9, 51, 0
5, 9240, Note_on_c, 9, 38, 123
5, 9240, Note_on_c, 9, 51, 111
5, 9269, Note_on_c, 9, 51, 0
5, 9269, Note_on_c, 9, 38, 0
5, 9300, Note_on_c, 9, 36, 123
5, 9300, Note_on_c, 9, 51, 111
5, 9329, Note_on_c, 9, 51, 0
5, 9329, Note_on_c, 9, 36, 0
5, 9360, Note_on_c, 9, 38, 123
5, 9360, Note_on_c, 9, 51, 111
5, 9389, Note_on_c, 9, 51, 0
5, 9389, Note_on_c, 9, 38, 0
5, 9420, Note_on_c, 9, 36, 123
5, 9420, Note_on_c, 9, 51, 111
5, 9449, Note_on_c, 9, 51, 0
5, 9449, Note_on_c, 9, 36, 0
5, 9480, Note_on_c, 9, 38, 123
5, 9480, Note_on_c, 9, 51, 111
5, 9509, Note_on_c, 9, 51, 0
5, 9509, Note_on_c, 9, 38, 0
5, 9540, Note_on_c, 9, 36, 123
5, 9540, Note_on_c, 9, 51, 111
5, 9569, Note_on_c, 9, 51, 0
5, 9569, Note_on_c, 9, 36, 0
5, 9600, Note_on_c, 9, 38, 123
5, 9600, Note_on_c, 9, 51, 111
5, 9629, Note_on_c, 9, 51, 0
5, 9629, Note_on_c, 9, 38, 0
5, 9660, Note_on_c, 9, 51, 111
5, 9689, Note_on_c, 9, 51, 0
5, 9720, Note_on_c, 9, 38, 123
5, 9720, Note_on_c, 9, 51, 111
5, 9749, Note_on_c, 9, 51, 0
5, 9749, Note_on_c, 9, 38, 0
5, 9780, Note_on_c, 9, 36, 123
5, 9780, Note_on_c, 9, 51, 111
5, 9809, Note_on_c, 9, 51, 0
5, 9809, Note_on_c, 9, 36, 0
5, 9840, Note_on_c, 9, 38, 123
5, 9840, Note_on_c, 9, 51, 111
5, 9869, Note_on_c, 9, 51, 0
5, 9869, Note_on_c, 9, 38, 0
5, 9900, Note_on_c, 9, 36, 123
5, 9900, Note_on_c, 9, 51, 111
5, 9929, Note_on_c, 9, 51, 0
5, 9929, Note_on_c, 9, 36, 0
5, 9960, Note_on_c, 9, 38, 123
5, 9960, Note_on_c, 9, 51, 111
5, 9989, Note_on_c, 9, 51, 0
5, 9989, Note_on_c, 9, 38, 0
5, 10020, Note_on_c, 9, 36, 123
5, 10020, Note_on_c, 9, 51, 111
5, 10049, Note_on_c, 9, 51, 0
5, 10049, Note_on_c, 9, 36, 0
5, 10080, Note_on_c, 9, 38, 123
5, 10080, Note_on_c, 9, 51, 111
5, 10109, Note_on_c, 9, 51, 0
5, 10109, Note_on_c, 9, 38, 0
5, 10140, Note_on_c, 9, 51, 111
5, 10169, Note_on_c, 9, 51, 0
5, 10200, Note_on_c, 9, 38, 123
5, 10200, Note_on_c, 9, 57, 114
5, 10229, Note_on_c, 9, 38, 0
5, 10319, Note_on_c, 9, 57, 0
5, 10320, Note_on_c, 9, 36, 111
5, 10320, Note_on_c, 9, 47, 123
5, 10349, Note_on_c, 9, 47, 0
5, 10349, Note_on_c, 9, 36, 0
5, 10350, Note_on_c, 9, 38, 111
5, 10379, Note_on_c, 9, 38, 0
5, 10380, Note_on_c, 9, 38, 111
5, 10409, Note_on_c, 9, 38, 0
5, 10410, Note_on_c, 9, 38, 111
5, 10439, Note_on_c, 9, 38, 0
5, 10440, Note_on_c, 9, 36, 123
5, 10440, Note_on_c, 9, 38, 123
5, 10469, Note_on_c, 9, 38, 0
5, 10469, Note_on_c, 9, 36, 0
5, 10470, Note_on_c, 9, 38, 111
5, 10499, Note_on_c, 9, 38, 0
5, 10500, Note_on_c, 9, 38, 111
5, 10529, Note_on_c, 9, 38, 0
5, 10530, Note_on_c, 9, 38, 111
5, 10559, Note_on_c, 9, 38, 0
5, 10560, Note_on_c, 9, 36, 123
5, 10560, Note_on_c, 9, 57, 114
5, 10589, Note_on_c, 9, 36, 0
5, 10620, Note_on_c, 9, 51, 111
5, 10649, Note_on_c, 9, 51, 0
5, 10679, Note_on_c, 9, 57, 0
5, 10680, Note_on_c, 9, 36, 111
5, 10680, Note_on_c, 9, 38, 111
5, 10680, Note_on_c, 9, 51, 111
5, 10709, Note_on_c, 9, 51, 0
5, 10709, Note_on_c, 9, 38, 0
5, 10709, Note_on_c, 9, 36, 0
5, 10740, Note_on_c, 9, 51, 111
5, 10769, Note_on_c, 9, 51, 0
5, 10800, Note_on_c, 9, 36, 111
5, 10800, Note_on_c, 9, 38, 111
5, 10800, Note_on_c, 9, 51, 111
5, 10829, Note_on_c, 9, 51, 0
5, 10829, Note_on_c, 9, 38, 0
5, 10829, Note_on_c, 9, 36, 0
5, 10860, Note_on_c, 9, 51, 111
5, 10889, Note_on_c, 9, 51, 0
5, 10920, Note_on_c, 9, 36, 111
5, 10920, Note_on_c, 9, 38, 111
5, 10920, Note_on_c, 9, 51, 111
5, 10949, Note_on_c, 9, 51, 0
5, 10949, Note_on_c, 9, 38, 0
5, 10949, Note_on_c, 9, 36, 0
5, 10980, Note_on_c, 9, 51, 111
5, 11009, Note_on_c, 9, 51, 0
5, 11040, Note_on_c, 9, 36, 111
5, 11040, Note_on_c, 9, 38, 111
5, 11040, Note_on_c, 9, 51, 111
5, 11069, Note_on_c, 9, 51, 0
5, 11069, Note_on_c, 9, 38, 0
5, 11069, Note_on_c, 9, 36, 0
5, 11100, Note_on_c, 9, 51, 111
5, 11129, Note_on_c, 9, 51, 0
5, 11160, Note_on_c, 9, 51, 111
5, 11160, Note_on_c, 9, 36, 111
5, 11160, Note_on_c, 9, 38, 111
5, 11160, Note_on_c, 9, 57, 111
5, 11189, Note_on_c, 9, 38, 0
5, 11189, Note_on_c, 9, 51, 0
5, 11189, Note_on_c, 9, 36, 0
5, 11279, Note_on_c, 9, 57, 0
5, 11280, Note_on_c, 9, 36, 123
5, 11280, Note_on_c, 9, 47, 123
5, 11309, Note_on_c, 9, 47, 0
5, 11309, Note_on_c, 9, 36, 0
5, 11310, Note_on_c, 9, 38, 111
5, 11339, Note_on_c, 9, 38, 0
5, 11340, Note_on_c, 9, 38, 111
5, 11369, Note_on_c, 9, 38, 0
5, 11370, Note_on_c, 9, 38, 111
5, 11399, Note_on_c, 9, 38, 0
5, 11400, Note_on_c, 9, 36, 123
5, 11400, Note_on_c, 9, 38, 123
5, 11429, Note_on_c, 9, 38, 0
5, 11429, Note_on_c, 9, 36, 0
5, 11430, Note_on_c, 9, 38, 111
5, 11459, Note_on_c, 9, 38, 0
5, 11460, Note_on_c, 9, 38, 111
5, 11489, Note_on_c, 9, 38, 0
5, 11490, Note_on_c, 9, 38, 111
5, 11519, Note_on_c, 9, 38, 0
5, 11520, Note_on_c, 9, 36, 123
5, 11520, Note_on_c, 9, 57, 114
5, 11549, Note_on_c, 9, 36, 0
5, 11580, Note_on_c, 9, 51, 111
5, 11609, Note_on_c, 9, 51, 0
5, 11639, Note_on_c, 9, 57, 0
5, 11640, Note_on_c, 9, 36, 111
5, 11640, Note_on_c, 9, 38, 111
5, 11640, Note_on_c, 9, 51, 111
5, 11669, Note_on_c, 9, 51, 0
5, 11669, Note_on_c, 9, 38, 0
5, 11669, Note_on_c, 9, 36, 0
5, 11700, Note_on_c, 9, 51, 111
5, 11729, Note_on_c, 9, 51, 0
5, 11760, Note_on_c, 9, 36, 111
5, 11760, Note_on_c, 9, 38, 111
5, 11760, Note_on_c, 9, 51, 111
5, 11789, Note_on_c, 9, 51, 0
5, 11789, Note_on_c, 9, 38, 0
5, 11789, Note_on_c, 9, 36, 0
5, 11820, Note_on_c, 9, 51, 111
5, 11849, Note_on_c, 9, 51, 0
5, 11880, Note_on_c, 9, 36, 111
5, 11880, Note_on_c, 9, 38, 111
5, 11880, Note_on_c, 9, 51, 111
5, 11909, Note_on_c, 9, 51, 0
5, 11909, Note_on_c, 9, 38, 0
5, 11909, Note_on_c, 9, 36, 0
5, 11940, Note_on_c, 9, 51, 111
5, 11969, Note_on_c, 9, 51, 0
5, 12000, Note_on_c, 9, 36, 111
5, 12000, Note_on_c, 9, 38, 111
5, 12000, Note_on_c, 9, 51, 111
5, 12029, Note_on_c, 9, 51, 0
5, 12029, Note_on_c, 9, 38, 0
5, 12029, Note_on_c, 9, 36, 0
5, 12060, Note_on_c, 9, 51, 111
5, 12089, Note_on_c, 9, 51, 0
5, 12120, Note_on_c, 9, 36, 111
5, 12120, Note_on_c, 9, 38, 111
5, 12120, Note_on_c, 9, 57, 111
5, 12149, Note_on_c, 9, 38, 0
5, 12149, Note_on_c, 9, 36, 0
5, 12239, Note_on_c, 9, 57, 0
5, 12240, Note_on_c, 9, 36, 123
5, 12240, Note_on_c, 9, 47, 123
5, 12269, Note_on_c, 9, 47, 0
5, 12269, Note_on_c, 9, 36, 0
5, 12270, Note_on_c, 9, 38, 111
5, 12299, Note_on_c, 9, 38, 0
5, 12300, Note_on_c, 9, 38, 111
5, 12329, Note_on_c, 9, 38, 0
5, 12330, Note_on_c, 9, 38, 111
5, 12359, Note_on_c, 9, 38, 0
5, 12360, Note_on_c, 9, 36, 123
5, 12360, Note_on_c, 9, 38, 123
5, 12389, Note_on_c, 9, 38, 0
5, 12389, Note_on_c, 9, 36, 0
5, 12390, Note_on_c, 9, 38, 111
5, 12419, Note_on_c, 9, 38, 0
5, 12420, Note_on_c, 9, 38, 111
5, 12449, Note_on_c, 9, 38, 0
5, 12450, Note_on_c, 9, 38, 111
5, 12479, Note_on_c, 9, 38, 0
5, 12480, Note_on_c, 9, 36, 123
5, 12480, Note_on_c, 9, 57, 114
5, 12509, Note_on_c, 9, 36, 0
5, 12540, Note_on_c, 9, 51, 111
5, 12569, Note_on_c, 9, 51, 0
5, 12599, Note_on_c, 9, 57, 0
5, 12600, Note_on_c, 9, 36, 111
5, 12600, Note_on_c, 9, 38, 111
5, 12600, Note_on_c, 9, 51, 111
5, 12629, Note_on_c, 9, 51, 0
5, 12629, Note_on_c, 9, 38, 0
5, 12629, Note_on_c, 9, 36, 0
5, 12660, Note_on_c, 9, 51, 111
5, 12689, Note_on_c, 9, 51, 0
5, 12720, Note_on_c, 9, 36, 111
5, 12720, Note_on_c, 9, 38, 111
5, 12720, Note_on_c, 9, 51, 111
5, 12749, Note_on_c, 9, 51, 0
5, 12749, Note_on_c, 9, 38, 0
5, 12749, Note_on_c, 9, 36, 0
5, 12780, Note_on_c, 9, 51, 111
5, 12809, Note_on_c, 9, 51, 0
5, 12840, Note_on_c, 9, 36, 111
5, 12840, Note_on_c, 9, 38, 111
5, 12840, Note_on_c, 9, 51, 111
5, 12869, Note_on_c, 9, 51, 0
5, 12869, Note_on_c, 9, 38, 0
5, 12869, Note_on_c, 9, 36, 0
5, 12900, Note_on_c, 9, 51, 111
5, 12929, Note_on_c, 9, 51, 0
5, 12960, Note_on_c, 9, 36, 111
5, 12960, Note_on_c, 9, 38, 111
5, 12960, Note_on_c, 9, 51, 111
5, 12989, Note_on_c, 9, 51, 0
5, 12989, Note_on_c, 9, 38, 0
5, 12989, Note_on_c, 9, 36, 0
5, 13020, Note_on_c, 9, 51, 111
5, 13049, Note_on_c, 9, 51, 0
5, 13080, Note_on_c, 9, 51, 111
5, 13080, Note_on_c, 9, 36, 111
5, 13080, Note_on_c, 9, 38, 111
5, 13080, Note_on_c, 9, 57, 111
5, 13109, Note_on_c, 9, 38, 0
5, 13109, Note_on_c, 9, 51, 0
5, 13109, Note_on_c, 9, 36, 0
5, 13199, Note_on_c, 9, 57, 0
5, 13200, Note_on_c, 9, 36, 123
5, 13200, Note_on_c, 9, 47, 123
5, 13229, Note_on_c, 9, 47, 0
5, 13229, Note_on_c, 9, 36, 0
5, 13230, Note_on_c, 9, 38, 111
5, 13259, Note_on_c, 9, 38, 0
5, 13260, Note_on_c, 9, 38, 111
5, 13289, Note_on_c, 9, 38, 0
5, 13290, Note_on_c, 9, 38, 111
5, 13319, Note_on_c, 9, 38, 0
5, 13320, Note_on_c, 9, 36, 123
5, 13320, Note_on_c, 9, 38, 123
5, 13349, Note_on_c, 9, 38, 0
5, 13349, Note_on_c, 9, 36, 0
5, 13350, Note_on_c, 9, 38, 111
5, 13379, Note_on_c, 9, 38, 0
5, 13380, Note_on_c, 9, 38, 111
5, 13409, Note_on_c, 9, 38, 0
5, 13410, Note_on_c, 9, 38, 111
5, 13439, Note_on_c, 9, 38, 0
5, 13440, Note_on_c, 9, 36, 123
5, 13440, Note_on_c, 9, 57, 114
5, 13469, Note_on_c, 9, 36, 0
5, 13500, Note_on_c, 9, 51, 111
5, 13529, Note_on_c, 9, 51, 0
5, 13559, Note_on_c, 9, 57, 0
5, 13560, Note_on_c, 9, 36, 111
5, 13560, Note_on_c, 9, 38, 111
5, 13560, Note_on_c, 9, 51, 111
5, 13589, Note_on_c, 9, 51, 0
5, 13589, Note_on_c, 9, 38, 0
5, 13589, Note_on_c, 9, 36, 0
5, 13620, Note_on_c, 9, 51, 111
5, 13649, Note_on_c, 9, 51, 0
5, 13680, Note_on_c, 9, 36, 111
5, 13680, Note_on_c, 9, 38, 111
5, 13680, Note_on_c, 9, 51, 111
5, 13709, Note_on_c, 9, 51, 0
5, 13709, Note_on_c, 9, 38, 0
5, 13709, Note_on_c, 9, 36, 0
5, 13740, Note_on_c, 9, 51, 111
5, 13769, Note_on_c, 9, 51, 0
5, 13800, Note_on_c, 9, 36, 111
5, 13800, Note_on_c, 9, 38, 111
5, 13800, Note_on_c, 9, 51, 111
5, 13829, Note_on_c, 9, 51, 0
5, 13829, Note_on_c, 9, 38, 0
5, 13829, Note_on_c, 9, 36, 0
5, 13860, Note_on_c, 9, 51, 111
5, 13889, Note_on_c, 9, 51, 0
5, 13920, Note_on_c, 9, 36, 111
5, 13920, Note_on_c, 9, 38, 111
5, 13920, Note_on_c, 9, 49, 111
5, 13949, Note_on_c, 9, 38, 0
5, 13949, Note_on_c, 9, 36, 0
5, 13980, Note_on_c, 9, 51, 111
5, 14009, Note_on_c, 9, 51, 0
5, 14039, Note_on_c, 9, 49, 0
5, 14040, Note_on_c, 9, 36, 111
5, 14040, Note_on_c, 9, 38, 111
5, 14040, Note_on_c, 9, 57, 111
5, 14069, Note_on_c, 9, 38, 0
5, 14069, Note_on_c, 9, 36, 0
5, 14159, Note_on_c, 9, 57, 0
5, 14160, Note_on_c, 9, 36, 123
5, 14160, Note_on_c, 9, 47, 123
5, 14189, Note_on_c, 9, 47, 0
5, 14189, Note_on_c, 9, 36, 0
5, 14190, Note_on_c, 9, 38, 111
5, 14219, Note_on_c, 9, 38, 0
5, 14220, Note_on_c, 9, 38, 111
5, 14249, Note_on_c, 9, 38, 0
5, 14250, Note_on_c, 9, 38, 111
5, 14279, Note_on_c, 9, 38, 0
5, 14280, Note_on_c, 9, 36, 123
5, 14280, Note_on_c, 9, 38, 123
5, 14309, Note_on_c, 9, 38, 0
5, 14309, Note_on_c, 9, 36, 0
5, 14310, Note_on_c, 9, 38, 111
5, 14339, Note_on_c, 9, 38, 0
5, 14340, Note_on_c, 9, 38, 111
5, 14369, Note_on_c, 9, 38, 0
5, 14370, Note_on_c, 9, 38, 111
5, 14399, Note_on_c, 9, 38, 0
5, 14400, Note_on_c, 9, 38, 111
5, 14400, Note_on_c, 9, 36, 111
5, 14400, Note_on_c, 9, 57, 114
5, 14429, Note_on_c, 9, 36, 0
5, 14429, Note_on_c, 9, 38, 0
5, 14460, Note_on_c, 9, 51, 111
5, 14489, Note_on_c, 9, 51, 0
5, 14519, Note_on_c, 9, 57, 0
5, 14520, Note_on_c, 9, 36, 111
5, 14520, Note_on_c, 9, 38, 111
5, 14520, Note_on_c, 9, 51, 111
5, 14549, Note_on_c, 9, 51, 0
5, 14549, Note_on_c, 9, 38, 0
5, 14549, Note_on_c, 9, 36, 0
5, 14580, Note_on_c, 9, 51, 111
5, 14609, Note_on_c, 9, 51, 0
5, 14640, Note_on_c, 9, 36, 111
5, 14640, Note_on_c, 9, 38, 111
5, 14640, Note_on_c, 9, 51, 111
5, 14669, Note_on_c, 9, 51, 0
5, 14669, Note_on_c, 9, 38, 0
5, 14669, Note_on_c, 9, 36, 0
5, 14700, Note_on_c, 9, 51, 111
5, 14729, Note_on_c, 9, 51, 0
5, 14760, Note_on_c, 9, 36, 111
5, 14760, Note_on_c, 9, 38, 111
5, 14760, Note_on_c, 9, 51, 111
5, 14789, Note_on_c, 9, 51, 0
5, 14789, Note_on_c, 9, 38, 0
5, 14789, Note_on_c, 9, 36, 0
5, 14820, Note_on_c, 9, 51, 111
5, 14849, Note_on_c, 9, 51, 0
5, 14880, Note_on_c, 9, 36, 111
5, 14880, Note_on_c, 9, 38, 111
5, 14880, Note_on_c, 9, 51, 111
5, 14909, Note_on_c, 9, 51, 0
5, 14909, Note_on_c, 9, 38, 0
5, 14909, Note_on_c, 9, 36, 0
5, 14940, Note_on_c, 9, 51, 111
5, 14969, Note_on_c, 9, 51, 0
5, 15000, Note_on_c, 9, 51, 111
5, 15000, Note_on_c, 9, 36, 111
5, 15000, Note_on_c, 9, 51, 111
5, 15000, Note_on_c, 9, 38, 111
5, 15029, Note_on_c, 9, 38, 0
5, 15029, Note_on_c, 9, 51, 0
5, 15029, Note_on_c, 9, 36, 0
5, 15029, Note_on_c, 9, 51, 0
5, 15060, Note_on_c, 9, 51, 111
5, 15089, Note_on_c, 9, 51, 0
5, 15120, Note_on_c, 9, 36, 123
5, 15120, Note_on_c, 9, 47, 123
5, 15149, Note_on_c, 9, 47, 0
5, 15149, Note_on_c, 9, 36, 0
5, 15150, Note_on_c, 9, 47, 111
5, 15179, Note_on_c, 9, 47, 0
5, 15180, Note_on_c, 9, 47, 111
5, 15209, Note_on_c, 9, 47, 0
5, 15210, Note_on_c, 9, 47, 111
5, 15239, Note_on_c, 9, 47, 0
5, 15240, Note_on_c, 9, 36, 123
5, 15240, Note_on_c, 9, 41, 123
5, 15269, Note_on_c, 9, 41, 0
5, 15269, Note_on_c, 9, 36, 0
5, 15270, Note_on_c, 9, 41, 111
5, 15299, Note_on_c, 9, 41, 0
5, 15300, Note_on_c, 9, 41, 111
5, 15329, Note_on_c, 9, 41, 0
5, 15330, Note_on_c, 9, 41, 111
5, 15359, Note_on_c, 9, 41, 0
5, 15360, Note_on_c, 9, 38, 111
5, 15360, Note_on_c, 9, 36, 111
5, 15360, Note_on_c, 9, 57, 114
5, 15389, Note_on_c, 9, 36, 0
5, 15389, Note_on_c, 9, 38, 0
5, 15420, Note_on_c, 9, 51, 111
5, 15449, Note_on_c, 9, 51, 0
5, 15479, Note_on_c, 9, 57, 0
5, 15480, Note_on_c, 9, 36, 111
5, 15480, Note_on_c, 9, 38, 111
5, 15480, Note_on_c, 9, 51, 111
5, 15509, Note_on_c, 9, 51, 0
5, 15509, Note_on_c, 9, 38, 0
5, 15509, Note_on_c, 9, 36, 0
5, 15540, Note_on_c, 9, 51, 111
5, 15569, Note_on_c, 9, 51, 0
5, 15600, Note_on_c, 9, 36, 111
5, 15600, Note_on_c, 9, 38, 111
5, 15600, Note_on_c, 9, 51, 111
5, 15629, Note_on_c, 9, 51, 0
5, 15629, Note_on_c, 9, 38, 0
5, 15629, Note_on_c, 9, 36, 0
5, 15660, Note_on_c, 9, 51, 111
5, 15689, Note_on_c, 9, 51, 0
5, 15720, Note_on_c, 9, 36, 111
5, 15720, Note_on_c, 9, 38, 111
5, 15720, Note_on_c, 9, 51, 111
5, 15749, Note_on_c, 9, 51, 0
5, 15749, Note_on_c, 9, 38, 0
5, 15749, Note_on_c, 9, 36, 0
5, 15780, Note_on_c, 9, 51, 111
5, 15809, Note_on_c, 9, 51, 0
5, 15840, Note_on_c, 9, 36, 111
5, 15840, Note_on_c, 9, 38, 111
5, 15840, Note_on_c, 9, 51, 111
5, 15869, Note_on_c, 9, 51, 0
5, 15869, Note_on_c, 9, 38, 0
5, 15869, Note_on_c, 9, 36, 0
5, 15900, Note_on_c, 9, 51, 111
5, 15929, Note_on_c, 9, 51, 0
5, 15960, Note_on_c, 9, 51, 111
5, 15960, Note_on_c, 9, 36, 111
5, 15960, Note_on_c, 9, 51, 111
5, 15960, Note_on_c, 9, 38, 111
5, 15989, Note_on_c, 9, 38, 0
5, 15989, Note_on_c, 9, 51, 0
5, 15989, Note_on_c, 9, 36, 0
5, 15989, Note_on_c, 9, 51, 0
5, 16020, Note_on_c, 9, 51, 111
5, 16049, Note_on_c, 9, 51, 0
5, 16080, Note_on_c, 9, 36, 123
5, 16080, Note_on_c, 9, 47, 123
5, 16109, Note_on_c, 9, 47, 0
5, 16109, Note_on_c, 9, 36, 0
5, 16110, Note_on_c, 9, 47, 111
5, 16139, Note_on_c, 9, 47, 0
5, 16140, Note_on_c, 9, 47, 111
5, 16169, Note_on_c, 9, 47, 0
5, 16170, Note_on_c, 9, 47, 111
5, 16199, Note_on_c, 9, 47, 0
5, 16200, Note_on_c, 9, 36, 123
5, 16200, Note_on_c, 9, 41, 123
5, 16229, Note_on_c, 9, 41, 0
5, 16229, Note_on_c, 9, 36, 0
5, 16230, Note_on_c, 9, 41, 111
5, 16259, Note_on_c, 9, 41, 0
5, 16260, Note_on_c, 9, 41, 111
5, 16289, Note_on_c, 9, 41, 0
5, 16290, Note_on_c, 9, 41, 111
5, 16319, Note_on_c, 9, 41, 0
5, 16320, Note_on_c, 9, 38, 111
5, 16320, Note_on_c, 9, 36, 111
5, 16320, Note_on_c, 9, 57, 114
5, 16349, Note_on_c, 9, 36, 0
5, 16349, Note_on_c, 9, 38, 0
5, 16380, Note_on_c, 9, 51, 111
5, 16409, Note_on_c, 9, 51, 0
5, 16439, Note_on_c, 9, 57, 0
5, 16440, Note_on_c, 9, 36, 111
5, 16440, Note_on_c, 9, 38, 111
5, 16440, Note_on_c, 9, 51, 111
5, 16469, Note_on_c, 9, 51, 0
5, 16469, Note_on_c, 9, 38, 0
5, 16469, Note_on_c, 9, 36, 0
5, 16500, Note_on_c, 9, 51, 111
5, 16529, Note_on_c, 9, 51, 0
5, 16560, Note_on_c, 9, 36, 111
5, 16560, Note_on_c, 9, 38, 111
5, 16560, Note_on_c, 9, 51, 111
5, 16589, Note_on_c, 9, 51, 0
5, 16589, Note_on_c, 9, 38, 0
5, 16589, Note_on_c, 9, 36, 0
5, 16620, Note_on_c, 9, 51, 111
5, 16649, Note_on_c, 9, 51, 0
5, 16680, Note_on_c, 9, 36, 111
5, 16680, Note_on_c, 9, 38, 111
5, 16680, Note_on_c, 9, 51, 111
5, 16709, Note_on_c, 9, 51, 0
5, 16709, Note_on_c, 9, 38, 0
5, 16709, Note_on_c, 9, 36, 0
5, 16740, Note_on_c, 9, 51, 111
5, 16769, Note_on_c, 9, 51, 0
5, 16800, Note_on_c, 9, 36, 111
5, 16800, Note_on_c, 9, 38, 111
5, 16800, Note_on_c, 9, 51, 111
5, 16829, Note_on_c, 9, 51, 0
5, 16829, Note_on_c, 9, 38, 0
5, 16829, Note_on_c, 9, 36, 0
5, 16860, Note_on_c, 9, 51, 111
5, 16889, Note_on_c, 9, 51, 0
5, 16920, Note_on_c, 9, 51, 111
5, 16920, Note_on_c, 9, 36, 111
5, 16920, Note_on_c, 9, 51, 111
5, 16920, Note_on_c, 9, 38, 111
5, 16949, Note_on_c, 9, 38, 0
5, 16949, Note_on_c, 9, 51, 0
5, 16949, Note_on_c, 9, 36, 0
5, 16949, Note_on_c, 9, 51, 0
5, 16980, Note_on_c, 9, 51, 111
5, 17009, Note_on_c, 9, 51, 0
5, 17040, Note_on_c, 9, 36, 123
5, 17040, Note_on_c, 9, 47, 123
5, 17069, Note_on_c, 9, 47, 0
5, 17069, Note_on_c, 9, 36, 0
5, 17070, Note_on_c, 9, 47, 111
5, 17099, Note_on_c, 9, 47, 0
5, 17100, Note_on_c, 9, 47, 111
5, 17129, Note_on_c, 9, 47, 0
5, 17130, Note_on_c, 9, 47, 111
5, 17159, Note_on_c, 9, 47, 0
5, 17160, Note_on_c, 9, 36, 123
5, 17160, Note_on_c, 9, 41, 123
5, 17189, Note_on_c, 9, 41, 0
5, 17189, Note_on_c, 9, 36, 0
5, 17190, Note_on_c, 9, 41, 111
5, 17219, Note_on_c, 9, 41, 0
5, 17220, Note_on_c, 9, 41, 111
5, 17249, Note_on_c, 9, 41, 0
5, 17250, Note_on_c, 9, 41, 111
5, 17279, Note_on_c, 9, 41, 0
5, 17280, Note_on_c, 9, 38, 111
5, 17280, Note_on_c, 9, 36, 111
5, 17280, Note_on_c, 9, 57, 114
5, 17309, Note_on_c, 9, 36, 0
5, 17309, Note_on_c, 9, 38, 0
5, 17340, Note_on_c, 9, 51, 111
5, 17369, Note_on_c, 9, 51, 0
5, 17399, Note_on_c, 9, 57, 0
5, 17400, Note_on_c, 9, 36, 111
5, 17400, Note_on_c, 9, 38, 111
5, 17400, Note_on_c, 9, 51, 111
5, 17429, Note_on_c, 9, 51, 0
5, 17429, Note_on_c, 9, 38, 0
5, 17429, Note_on_c, 9, 36, 0
5, 17460, Note_on_c, 9, 51, 111
5, 17489, Note_on_c, 9, 51, 0
5, 17520, Note_on_c, 9, 36, 111
5, 17520, Note_on_c, 9, 38, 111
5, 17520, Note_on_c, 9, 51, 111
5, 17549, Note_on_c, 9, 51, 0
5, 17549, Note_on_c, 9, 38, 0
5, 17549, Note_on_c, 9, 36, 0
5, 17580, Note_on_c, 9, 51, 111
5, 17609, Note_on_c, 9, 51, 0
5, 17640, Note_on_c, 9, 36, 111
5, 17640, Note_on_c, 9, 38, 111
5, 17640, Note_on_c, 9, 51, 111
5, 17669, Note_on_c, 9, 51, 0
5, 17669, Note_on_c, 9, 38, 0
5, 17669, Note_on_c, 9, 36, 0
5, 17700, Note_on_c, 9, 51, 111
5, 17729, Note_on_c, 9, 51, 0
5, 17760, Note_on_c, 9, 36, 123
5, 17760, Note_on_c, 9, 57, 114
5, 17789, Note_on_c, 9, 36, 0
5, 17820, Note_on_c, 9, 51, 111
5, 17849, Note_on_c, 9, 51, 0
5, 17879, Note_on_c, 9, 57, 0
5, 17880, Note_on_c, 9, 36, 111
5, 17880, Note_on_c, 9, 38, 111
5, 17880, Note_on_c, 9, 51, 111
5, 17909, Note_on_c, 9, 51, 0
5, 17909, Note_on_c, 9, 38, 0
5, 17909, Note_on_c, 9, 36, 0
5, 17940, Note_on_c, 9, 51, 111
5, 17969, Note_on_c, 9, 51, 0
5, 18000, Note_on_c, 9, 36, 111
5, 18000, Note_on_c, 9, 38, 111
5, 18000, Note_on_c, 9, 51, 111
5, 18029, Note_on_c, 9, 51, 0
5, 18029, Note_on_c, 9, 38, 0
5, 18029, Note_on_c, 9, 36, 0
5, 18060, Note_on_c, 9, 51, 111
5, 18089, Note_on_c, 9, 51, 0
5, 18120, Note_on_c, 9, 36, 111
5, 18120, Note_on_c, 9, 38, 111
5, 18149, Note_on_c, 9, 38, 0
5, 18149, Note_on_c, 9, 36, 0
5, 18150, Note_on_c, 9, 38, 123
5, 18179, Note_on_c, 9, 38, 0
5, 18180, Note_on_c, 9, 38, 123
5, 18209, Note_on_c, 9, 38, 0
5, 18210, Note_on_c, 9, 38, 123
5, 18239, Note_on_c, 9, 38, 0
5, 18240, Note_on_c, 9, 36, 123
5, 18240, Note_on_c, 9, 57, 114
5, 18269, Note_on_c, 9, 36, 0
5, 18300, Note_on_c, 9, 51, 111
5, 18329, Note_on_c, 9, 51, 0
5, 18359, Note_on_c, 9, 57, 0
5, 18360, Note_on_c, 9, 38, 123
5, 18360, Note_on_c, 9, 51, 111
5, 18389, Note_on_c, 9, 51, 0
5, 18389, Note_on_c, 9, 38, 0
5, 18420, Note_on_c, 9, 36, 123
5, 18420, Note_on_c, 9, 51, 111
5, 18449, Note_on_c, 9, 51, 0
5, 18449, Note_on_c, 9, 36, 0
5, 18480, Note_on_c, 9, 36, 123
5, 18480, Note_on_c, 9, 51, 111
5, 18509, Note_on_c, 9, 51, 0
5, 18509, Note_on_c, 9, 36, 0
5, 18540, Note_on_c, 9, 51, 111
5, 18540, Note_on_c, 9, 36, 123
5, 18569, Note_on_c, 9, 36, 0
5, 18569, Note_on_c, 9, 51, 0
5, 18600, Note_on_c, 9, 38, 123
5, 18600, Note_on_c, 9, 51, 111
5, 18629, Note_on_c, 9, 51, 0
5, 18629, Note_on_c, 9, 38, 0
5, 18660, Note_on_c, 9, 36, 123
5, 18660, Note_on_c, 9, 51, 111
5, 18689, Note_on_c, 9, 51, 0
5, 18689, Note_on_c, 9, 36, 0
5, 18720, Note_on_c, 9, 36, 123
5, 18720, Note_on_c, 9, 51, 111
5, 18749, Note_on_c, 9, 51, 0
5, 18749, Note_on_c, 9, 36, 0
5, 18780, Note_on_c, 9, 51, 111
5, 18780, Note_on_c, 9, 36, 123
5, 18809, Note_on_c, 9, 36, 0
5, 18809, Note_on_c, 9, 51, 0
5, 18840, Note_on_c, 9, 38, 123
5, 18840, Note_on_c, 9, 51, 111
5, 18869, Note_on_c, 9, 51, 0
5, 18869, Note_on_c, 9, 38, 0
5, 18900, Note_on_c, 9, 36, 123
5, 18900, Note_on_c, 9, 51, 111
5, 18929, Note_on_c, 9, 51, 0
5, 18929, Note_on_c, 9, 36, 0
5, 18960, Note_on_c, 9, 51, 111
5, 18960, Note_on_c, 9, 36, 123
5, 18989, Note_on_c, 9, 36, 0
5, 18989, Note_on_c, 9, 51, 0
5, 19020, Note_on_c, 9, 51, 111
5, 19020, Note_on_c, 9, 36, 123
5, 19049, Note_on_c, 9, 36, 0
5, 19049, Note_on_c, 9, 51, 0
5, 19080, Note_on_c, 9, 38, 123
5, 19080, Note_on_c, 9, 51, 111
5, 19109, Note_on_c, 9, 51, 0
5, 19109, Note_on_c, 9, 38, 0
5, 19140, Note_on_c, 9, 36, 123
5, 19140, Note_on_c, 9, 51, 111
5, 19169, Note_on_c, 9, 51, 0
5, 19169, Note_on_c, 9, 36, 0
5, 19200, Note_on_c, 9, 36, 123
5, 19200, Note_on_c, 9, 51, 111
5, 19229, Note_on_c, 9, 51, 0
5, 19229, Note_on_c, 9, 36, 0
5, 19260, Note_on_c, 9, 36, 123
5, 19260, Note_on_c, 9, 51, 111
5, 19289, Note_on_c, 9, 51, 0
5, 19289, Note_on_c, 9, 36, 0
5, 19320, Note_on_c, 9, 38, 123
5, 19320, Note_on_c, 9, 51, 111
5, 19349, Note_on_c, 9, 51, 0
5, 19349, Note_on_c, 9, 38, 0
5, 19380, Note_on_c, 9, 36, 123
5, 19380, Note_on_c, 9, 51, 111
5, 19409, Note_on_c, 9, 51, 0
5, 19409, Note_on_c, 9, 36, 0
5, 19440, Note_on_c, 9, 36, 123
5, 19440, Note_on_c, 9, 51, 111
5, 19469, Note_on_c, 9, 51, 0
5, 19469, Note_on_c, 9, 36, 0
5, 19500, Note_on_c, 9, 51, 111
5, 19500, Note_on_c, 9, 36, 123
5, 19529, Note_on_c, 9, 36, 0
5, 19529, Note_on_c, 9, 51, 0
5, 19560, Note_on_c, 9, 38, 123
5, 19560, Note_on_c, 9, 51, 111
5, 19589, Note_on_c, 9, 51, 0
5, 19589, Note_on_c, 9, 38, 0
5, 19620, Note_on_c, 9, 36, 123
5, 19620, Note_on_c, 9, 51, 111
5, 19649, Note_on_c, 9, 51, 0
5, 19649, Note_on_c, 9, 36, 0
5, 19680, Note_on_c, 9, 36, 123
5, 19680, Note_on_c, 9, 51, 111
5, 19709, Note_on_c, 9, 51, 0
5, 19709, Note_on_c, 9, 36, 0
5, 19740, Note_on_c, 9, 51, 111
5, 19740, Note_on_c, 9, 36, 123
5, 19769, Note_on_c, 9, 36, 0
5, 19769, Note_on_c, 9, 51, 0
5, 19800, Note_on_c, 9, 38, 123
5, 19800, Note_on_c, 9, 51, 111
5, 19829, Note_on_c, 9, 51, 0
5, 19829, Note_on_c, 9, 38, 0
5, 19860, Note_on_c, 9, 36, 123
5, 19860, Note_on_c, 9, 51, 111
5, 19889, Note_on_c, 9, 51, 0
5, 19889, Note_on_c, 9, 36, 0
5, 19920, Note_on_c, 9, 51, 111
5, 19920, Note_on_c, 9, 36, 123
5, 19949, Note_on_c, 9, 36, 0
5, 19949, Note_on_c, 9, 51, 0
5, 19980, Note_on_c, 9, 51, 111
5, 19980, Note_on_c, 9, 36, 123
5, 20009, Note_on_c, 9, 36, 0
5, 20009, Note_on_c, 9, 51, 0
5, 20040, Note_on_c, 9, 38, 123
5, 20040, Note_on_c, 9, 51, 111
5, 20069, Note_on_c, 9, 51, 0
5, 20069, Note_on_c, 9, 38, 0
5, 20100, Note_on_c, 9, 36, 123
5, 20100, Note_on_c, 9, 51, 111
5, 20129, Note_on_c, 9, 51, 0
5, 20129, Note_on_c, 9, 36, 0
5, 20160, Note_on_c, 9, 36, 123
5, 20160, Note_on_c, 9, 51, 111
5, 20189, Note_on_c, 9, 51, 0
5, 20189, Note_on_c, 9, 36, 0
5, 20220, Note_on_c, 9, 36, 123
5, 20220, Note_on_c, 9, 51, 111
5, 20249, Note_on_c, 9, 51, 0
5, 20249, Note_on_c, 9, 36, 0
5, 20280, Note_on_c, 9, 38, 123
5, 20280, Note_on_c, 9, 51, 111
5, 20309, Note_on_c, 9, 51, 0
5, 20309, Note_on_c, 9, 38, 0
5, 20340, Note_on_c, 9, 36, 123
5, 20340, Note_on_c, 9, 51, 111
5, 20369, Note_on_c, 9, 51, 0
5, 20369, Note_on_c, 9, 36, 0
5, 20400, Note_on_c, 9, 36, 123
5, 20400, Note_on_c, 9, 51, 111
5, 20429, Note_on_c, 9, 51, 0
5, 20429, Note_on_c, 9, 36, 0
5, 20460, Note_on_c, 9, 51, 111
5, 20460, Note_on_c, 9, 36, 123
5, 20489, Note_on_c, 9, 36, 0
5, 20489, Note_on_c, 9, 51, 0
5, 20520, Note_on_c, 9, 38, 123
5, 20520, Note_on_c, 9, 51, 111
5, 20549, Note_on_c, 9, 51, 0
5, 20549, Note_on_c, 9, 38, 0
5, 20580, Note_on_c, 9, 36, 123
5, 20580, Note_on_c, 9, 51, 111
5, 20609, Note_on_c, 9, 51, 0
5, 20609, Note_on_c, 9, 36, 0
5, 20640, Note_on_c, 9, 36, 123
5, 20640, Note_on_c, 9, 51, 111
5, 20669, Note_on_c, 9, 51, 0
5, 20669, Note_on_c, 9, 36, 0
5, 20700, Note_on_c, 9, 51, 111
5, 20700, Note_on_c, 9, 36, 123
5, 20729, Note_on_c, 9, 36, 0
5, 20729, Note_on_c, 9, 51, 0
5, 20760, Note_on_c, 9, 38, 123
5, 20760, Note_on_c, 9, 51, 111
5, 20789, Note_on_c, 9, 51, 0
5, 20789, Note_on_c, 9, 38, 0
5, 20820, Note_on_c, 9, 36, 123
5, 20820, Note_on_c, 9, 51, 111
5, 20849, Note_on_c, 9, 51, 0
5, 20849, Note_on_c, 9, 36, 0
5, 20880, Note_on_c, 9, 51, 111
5, 20880, Note_on_c, 9, 36, 123
5, 20909, Note_on_c, 9, 36, 0
5, 20909, Note_on_c, 9, 51, 0
5, 20940, Note_on_c, 9, 51, 111
5, 20940, Note_on_c, 9, 36, 123
5, 20969, Note_on_c, 9, 36, 0
5, 20969, Note_on_c, 9, 51, 0
5, 21000, Note_on_c, 9, 38, 123
5, 21000, Note_on_c, 9, 51, 111
5, 21029, Note_on_c, 9, 51, 0
5, 21029, Note_on_c, 9, 38, 0
5, 21060, Note_on_c, 9, 36, 123
5, 21060, Note_on_c, 9, 51, 111
5, 21089, Note_on_c, 9, 51, 0
5, 21089, Note_on_c, 9, 36, 0
5, 21120, Note_on_c, 9, 57, 114
5, 21120, Note_on_c, 9, 36, 123
5, 21149, Note_on_c, 9, 36, 0
5, 21239, Note_on_c, 9, 57, 0
5, 22080, Note_on_c, 9, 36, 111
5, 22080, Note_on_c, 9, 38, 111
5, 22080, Note_on_c, 9, 42, 99
5, 22080, Note_on_c, 9, 48, 111
5, 22109, Note_on_c, 9, 48, 0
5, 22109, Note_on_c, 9, 36, 0
5, 22109, Note_on_c, 9, 38, 0
5, 22109, Note_on_c, 9, 42, 0
5, 22140, Note_on_c, 9, 48, 93
5, 22169, Note_on_c, 9, 48, 0
5, 22200, Note_on_c, 9, 42, 99
5, 22200, Note_on_c, 9, 48, 93
5, 22229, Note_on_c, 9, 48, 0
5, 22229, Note_on_c, 9, 42, 0
5, 22260, Note_on_c, 9, 48, 111
5, 22260, Note_on_c, 9, 36, 111
5, 22260, Note_on_c, 9, 38, 111
5, 22289, Note_on_c, 9, 38, 0
5, 22289, Note_on_c, 9, 36, 0
5, 22289, Note_on_c, 9, 48, 0
5, 22320, Note_on_c, 9, 42, 99
5, 22320, Note_on_c, 9, 48, 93
5, 22320, Note_on_c, 9, 36, 127
5, 22349, Note_on_c, 9, 36, 0
5, 22349, Note_on_c, 9, 48, 0
5, 22349, Note_on_c, 9, 42, 0
5, 22380, Note_on_c, 9, 48, 93
5, 22409, Note_on_c, 9, 48, 0
5, 22440, Note_on_c, 9, 42, 99
5, 22440, Note_on_c, 9, 48, 93
5, 22469, Note_on_c, 9, 48, 0
5, 22469, Note_on_c, 9, 42, 0
5, 22500, Note_on_c, 9, 48, 93
5, 22529, Note_on_c, 9, 48, 0
5, 22560, Note_on_c, 9, 36, 111
5, 22560, Note_on_c, 9, 38, 111
5, 22560, Note_on_c, 9, 42, 99
5, 22560, Note_on_c, 9, 48, 111
5, 22589, Note_on_c, 9, 48, 0
5, 22589, Note_on_c, 9, 36, 0
5, 22589, Note_on_c, 9, 38, 0
5, 22589, Note_on_c, 9, 42, 0
5, 22620, Note_on_c, 9, 48, 93
5, 22649, Note_on_c, 9, 48, 0
5, 22680, Note_on_c, 9, 42, 99
5, 22680, Note_on_c, 9, 48, 93
5, 22709, Note_on_c, 9, 48, 0
5, 22709, Note_on_c, 9, 42, 0
5, 22740, Note_on_c, 9, 36, 114
5, 22740, Note_on_c, 9, 38, 114
5, 22740, Note_on_c, 9, 48, 111
5, 22769, Note_on_c, 9, 48, 0
5, 22769, Note_on_c, 9, 38, 0
5, 22769, Note_on_c, 9, 36, 0
5, 22800, Note_on_c, 9, 36, 127
5, 22800, Note_on_c, 9, 42, 99
5, 22800, Note_on_c, 9, 48, 93
5, 22829, Note_on_c, 9, 48, 0
5, 22829, Note_on_c, 9, 42, 0
5, 22829, Note_on_c, 9, 36, 0
5, 22860, Note_on_c, 9, 48, 93
5, 22889, Note_on_c, 9, 48, 0
5, 22920, Note_on_c, 9, 42, 99
5, 22920, Note_on_c, 9, 48, 93
5, 22949, Note_on_c, 9, 48, 0
5, 22949, Note_on_c, 9, 42, 0
5, 22980, Note_on_c, 9, 48, 93
5, 23009, Note_on_c, 9, 48, 0
5, 23040, Note_on_c, 9, 36, 111
5, 23040, Note_on_c, 9, 38, 111
5, 23040, Note_on_c, 9, 42, 99
5, 23040, Note_on_c, 9, 48, 111
5, 23069, Note_on_c, 9, 48, 0
5, 23069, Note_on_c, 9, 36, 0
5, 23069, Note_on_c, 9, 38, 0
5, 23069, Note_on_c, 9, 42, 0
5, 23100, Note_on_c, 9, 48, 93
5, 23129, Note_on_c, 9, 48, 0
5, 23160, Note_on_c, 9, 42, 99
5, 23160, Note_on_c, 9, 48, 93
5, 23189, Note_on_c, 9, 48, 0
5, 23189, Note_on_c, 9, 42, 0
5, 23220, Note_on_c, 9, 48, 111
5, 23220, Note_on_c, 9, 36, 111
5, 23220, Note_on_c, 9, 38, 111
5, 23249, Note_on_c, 9, 38, 0
5, 23249, Note_on_c, 9, 36, 0
5, 23249, Note_on_c, 9, 48, 0
5, 23280, Note_on_c, 9, 42, 99
5, 23280, Note_on_c, 9, 48, 93
5, 23280, Note_on_c, 9, 36, 127
5, 23309, Note_on_c, 9, 36, 0
5, 23309, Note_on_c, 9, 48, 0
5, 23309, Note_on_c, 9, 42, 0
5, 23340, Note_on_c, 9, 48, 93
5, 23369, Note_on_c, 9, 48, 0
5, 23400, Note_on_c, 9, 42, 99
5, 23400, Note_on_c, 9, 48, 93
5, 23429, Note_on_c, 9, 48, 0
5, 23429, Note_on_c, 9, 42, 0
5, 23460, Note_on_c, 9, 48, 93
5, 23489, Note_on_c, 9, 48, 0
5, 23520, Note_on_c, 9, 36, 111
5, 23520, Note_on_c, 9, 38, 111
5, 23520, Note_on_c, 9, 42, 99
5, 23520, Note_on_c, 9, 48, 111
5, 23549, Note_on_c, 9, 48, 0
5, 23549, Note_on_c, 9, 36, 0
5, 23549, Note_on_c, 9, 38, 0
5, 23549, Note_on_c, 9, 42, 0
5, 23580, Note_on_c, 9, 48, 93
5, 23609, Note_on_c, 9, 48, 0
5, 23640, Note_on_c, 9, 42, 99
5, 23640, Note_on_c, 9, 48, 93
5, 23669, Note_on_c, 9, 48, 0
5, 23669, Note_on_c, 9, 42, 0
5, 23700, Note_on_c, 9, 36, 114
5, 23700, Note_on_c, 9, 38, 114
5, 23700, Note_on_c, 9, 48, 111
5, 23729, Note_on_c, 9, 48, 0
5, 23729, Note_on_c, 9, 38, 0
5, 23729, Note_on_c, 9, 36, 0
5, 23760, Note_on_c, 9, 36, 127
5, 23760, Note_on_c, 9, 42, 99
5, 23760, Note_on_c, 9, 48, 93
5, 23789, Note_on_c, 9, 48, 0
5, 23789, Note_on_c, 9, 42, 0
5, 23789, Note_on_c, 9, 36, 0
5, 23820, Note_on_c, 9, 48, 93
5, 23849, Note_on_c, 9, 48, 0
5, 23880, Note_on_c, 9, 42, 99
5, 23880, Note_on_c, 9, 48, 93
5, 23909, Note_on_c, 9, 48, 0
5, 23909, Note_on_c, 9, 42, 0
5, 23940, Note_on_c, 9, 48, 93
5, 23969, Note_on_c, 9, 48, 0
5, 24000, Note_on_c, 9, 51, 111
5, 24000, Note_on_c, 9, 38, 123
5, 24000, Note_on_c, 9, 51, 111
5, 24029, Note_on_c, 9, 51, 0
5, 24029, Note_on_c, 9, 38, 0
5, 24029, Note_on_c, 9, 51, 0
5, 24060, Note_on_c, 9, 51, 111
5, 24089, Note_on_c, 9, 51, 0
5, 24120, Note_on_c, 9, 38, 123
5, 24120, Note_on_c, 9, 51, 111
5, 24149, Note_on_c, 9, 51, 0
5, 24149, Note_on_c, 9, 38, 0
5, 24180, Note_on_c, 9, 36, 123
5, 24180, Note_on_c, 9, 51, 111
5, 24209, Note_on_c, 9, 51, 0
5, 24209, Note_on_c, 9, 36, 0
5, 24240, Note_on_c, 9, 38, 123
5, 24240, Note_on_c, 9, 51, 111
5, 24269, Note_on_c, 9, 51, 0
5, 24269, Note_on_c, 9, 38, 0
5, 24300, Note_on_c, 9, 36, 123
5, 24300, Note_on_c, 9, 51, 111
5, 24329, Note_on_c, 9, 51, 0
5, 24329, Note_on_c, 9, 36, 0
5, 24360, Note_on_c, 9, 38, 123
5, 24360, Note_on_c, 9, 51, 111
5, 24389, Note_on_c, 9, 51, 0
5, 24389, Note_on_c, 9, 38, 0
5, 24420, Note_on_c, 9, 36, 123
5, 24420, Note_on_c, 9, 51, 111
5, 24449, Note_on_c, 9, 51, 0
5, 24449, Note_on_c, 9, 36, 0
5, 24480, Note_on_c, 9, 38, 123
5, 24480, Note_on_c, 9, 51, 111
5, 24509, Note_on_c, 9, 51, 0
5, 24509, Note_on_c, 9, 38, 0
5, 24540, Note_on_c, 9, 51, 111
5, 24569, Note_on_c, 9, 51, 0
5, 24600, Note_on_c, 9, 38, 123
5, 24600, Note_on_c, 9, 51, 111
5, 24629, Note_on_c, 9, 51, 0
5, 24629, Note_on_c, 9, 38, 0
5, 24660, Note_on_c, 9, 36, 123
5, 24660, Note_on_c, 9, 51, 111
5, 24689, Note_on_c, 9, 51, 0
5, 24689, Note_on_c, 9, 36, 0
5, 24720, Note_on_c, 9, 38, 123
5, 24720, Note_on_c, 9, 51, 111
5, 24749, Note_on_c, 9, 51, 0
5, 24749, Note_on_c, 9, 38, 0
5, 24780, Note_on_c, 9, 36, 123
5, 24780, Note_on_c, 9, 51, 111
5, 24809, Note_on_c, 9, 51, 0
5, 24809, Note_on_c, 9, 36, 0
5, 24840, Note_on_c, 9, 38, 123
5, 24840, Note_on_c, 9, 51, 111
5, 24869, Note_on_c, 9, 51, 0
5, 24869, Note_on_c, 9, 38, 0
5, 24900, Note_on_c, 9, 36, 123
5, 24900, Note_on_c, 9, 51, 111
5, 24929, Note_on_c, 9, 51, 0
5, 24929, Note_on_c, 9, 36, 0
5, 24960, Note_on_c, 9, 38, 123
5, 24960, Note_on_c, 9, 51, 111
5, 24989, Note_on_c, 9, 51, 0
5, 24989, Note_on_c, 9, 38, 0
5, 25020, Note_on_c, 9, 51, 111
5, 25049, Note_on_c, 9, 51, 0
5, 25080, Note_on_c, 9, 38, 123
5, 25080, Note_on_c, 9, 51, 111
5, 25109, Note_on_c, 9, 51, 0
5, 25109, Note_on_c, 9, 38, 0
5, 25140, Note_on_c, 9, 36, 123
5, 25140, Note_on_c, 9, 51, 111
5, 25169, Note_on_c, 9, 51, 0
5, 25169, Note_on_c, 9, 36, 0
5, 25200, Note_on_c, 9, 38, 123
5, 25200, Note_on_c, 9, 51, 111
5, 25229, Note_on_c, 9, 51, 0
5, 25229, Note_on_c, 9, 38, 0
5, 25260, Note_on_c, 9, 36, 123
5, 25260, Note_on_c, 9, 51, 111
5, 25289, Note_on_c, 9, 51, 0
5, 25289, Note_on_c, 9, 36, 0
5, 25320, Note_on_c, 9, 38, 123
5, 25320, Note_on_c, 9, 51, 111
5, 25349, Note_on_c, 9, 51, 0
5, 25349, Note_on_c, 9, 38, 0
5, 25380, Note_on_c, 9, 36, 123
5, 25380, Note_on_c, 9, 51, 111
5, 25409, Note_on_c, 9, 51, 0
5, 25409, Note_on_c, 9, 36, 0
5, 25440, Note_on_c, 9, 38, 123
5, 25440, Note_on_c, 9, 51, 111
5, 25469, Note_on_c, 9, 51, 0
5, 25469, Note_on_c, 9, 38, 0
5, 25500, Note_on_c, 9, 51, 111
5, 25529, Note_on_c, 9, 51, 0
5, 25560, Note_on_c, 9, 38, 123
5, 25560, Note_on_c, 9, 51, 111
5, 25589, Note_on_c, 9, 51, 0
5, 25589, Note_on_c, 9, 38, 0
5, 25620, Note_on_c, 9, 36, 123
5, 25620, Note_on_c, 9, 51, 111
5, 25649, Note_on_c, 9, 51, 0
5, 25649, Note_on_c, 9, 36, 0
5, 25680, Note_on_c, 9, 38, 123
5, 25680, Note_on_c, 9, 51, 111
5, 25709, Note_on_c, 9, 51, 0
5, 25709, Note_on_c, 9, 38, 0
5, 25740, Note_on_c, 9, 36, 123
5, 25740, Note_on_c, 9, 51, 111
5, 25769, Note_on_c, 9, 51, 0
5, 25769, Note_on_c, 9, 36, 0
5, 25800, Note_on_c, 9, 38, 123
5, 25800, Note_on_c, 9, 51, 111
5, 25829, Note_on_c, 9, 51, 0
5, 25829, Note_on_c, 9, 38, 0
5, 25860, Note_on_c, 9, 36, 123
5, 25860, Note_on_c, 9, 51, 111
5, 25889, Note_on_c, 9, 51, 0
5, 25889, Note_on_c, 9, 36, 0
5, 25920, Note_on_c, 9, 38, 123
5, 25920, Note_on_c, 9, 51, 111
5, 25949, Note_on_c, 9, 51, 0
5, 25949, Note_on_c, 9, 38, 0
5, 25980, Note_on_c, 9, 51, 111
5, 26009, Note_on_c, 9, 51, 0
5, 26040, Note_on_c, 9, 38, 123
5, 26040, Note_on_c, 9, 51, 111
5, 26069, Note_on_c, 9, 51, 0
5, 26069, Note_on_c, 9, 38, 0
5, 26100, Note_on_c, 9, 36, 123
5, 26100, Note_on_c, 9, 51, 111
5, 26129, Note_on_c, 9, 51, 0
5, 26129, Note_on_c, 9, 36, 0
5, 26160, Note_on_c, 9, 38, 123
5, 26160, Note_on_c, 9, 51, 111
5, 26189, Note_on_c, 9, 51, 0
5, 26189, Note_on_c, 9, 38, 0
5, 26220, Note_on_c, 9, 36, 123
5, 26220, Note_on_c, 9, 51, 111
5, 26249, Note_on_c, 9, 51, 0
5, 26249, Note_on_c, 9, 36, 0
5, 26280, Note_on_c, 9, 38, 123
5, 26280, Note_on_c, 9, 51, 111
5, 26309, Note_on_c, 9, 51, 0
5, 26309, Note_on_c, 9, 38, 0
5, 26340, Note_on_c, 9, 36, 123
5, 26340, Note_on_c, 9, 51, 111
5, 26369, Note_on_c, 9, 51, 0
5, 26369, Note_on_c, 9, 36, 0
5, 26400, Note_on_c, 9, 38, 123
5, 26400, Note_on_c, 9, 51, 111
5, 26429, Note_on_c, 9, 51, 0
5, 26429, Note_on_c, 9, 38, 0
5, 26460, Note_on_c, 9, 51, 111
5, 26489, Note_on_c, 9, 51, 0
5, 26520, Note_on_c, 9, 38, 123
5, 26520, Note_on_c, 9, 51, 111
5, 26549, Note_on_c, 9, 51, 0
5, 26549, Note_on_c, 9, 38, 0
5, 26580, Note_on_c, 9, 36, 123
5, 26580, Note_on_c, 9, 51, 111
5, 26609, Note_on_c, 9, 51, 0
5, 26609, Note_on_c, 9, 36, 0
5, 26640, Note_on_c, 9, 38, 123
5, 26640, Note_on_c, 9, 51, 111
5, 26669, Note_on_c, 9, 51, 0
5, 26669, Note_on_c, 9, 38, 0
5, 26700, Note_on_c, 9, 36, 123
5, 26700, Note_on_c, 9, 51, 111
5, 26729, Note_on_c, 9, 51, 0
5, 26729, Note_on_c, 9, 36, 0
5, 26760, Note_on_c, 9, 38, 123
5, 26760, Note_on_c, 9, 51, 111
5, 26789, Note_on_c, 9, 51, 0
5, 26789, Note_on_c, 9, 38, 0
5, 26820, Note_on_c, 9, 36, 123
5, 26820, Note_on_c, 9, 51, 111
5, 26849, Note_on_c, 9, 51, 0
5, 26849, Note_on_c, 9, 36, 0
5, 26880, Note_on_c, 9, 38, 123
5, 26880, Note_on_c, 9, 51, 111
5, 26909, Note_on_c, 9, 51, 0
5, 26909, Note_on_c, 9, 38, 0
5, 26940, Note_on_c, 9, 51, 111
5, 26969, Note_on_c, 9, 51, 0
5, 27000, Note_on_c, 9, 38, 123
5, 27000, Note_on_c, 9, 51, 111
5, 27029, Note_on_c, 9, 51, 0
5, 27029, Note_on_c, 9, 38, 0
5, 27060, Note_on_c, 9, 36, 123
5, 27060, Note_on_c, 9, 51, 111
5, 27089, Note_on_c, 9, 51, 0
5, 27089, Note_on_c, 9, 36, 0
5, 27120, Note_on_c, 9, 38, 123
5, 27120, Note_on_c, 9, 51, 111
5, 27149, Note_on_c, 9, 51, 0
5, 27149, Note_on_c, 9, 38, 0
5, 27180, Note_on_c, 9, 36, 123
5, 27180, Note_on_c, 9, 51, 111
5, 27209, Note_on_c, 9, 51, 0
5, 27209, Note_on_c, 9, 36, 0
5, 27240, Note_on_c, 9, 38, 123
5, 27240, Note_on_c, 9, 51, 111
5, 27269, Note_on_c, 9, 51, 0
5, 27269, Note_on_c, 9, 38, 0
5, 27300, Note_on_c, 9, 36, 123
5, 27300, Note_on_c, 9, 51, 111
5, 27329, Note_on_c, 9, 51, 0
5, 27329, Note_on_c, 9, 36, 0
5, 27360, Note_on_c, 9, 38, 123
5, 27360, Note_on_c, 9, 51, 111
5, 27389, Note_on_c, 9, 51, 0
5, 27389, Note_on_c, 9, 38, 0
5, 27420, Note_on_c, 9, 51, 111
5, 27449, Note_on_c, 9, 51, 0
5, 27480, Note_on_c, 9, 38, 123
5, 27480, Note_on_c, 9, 57, 114
5, 27509, Note_on_c, 9, 38, 0
5, 27599, Note_on_c, 9, 57, 0
5, 27600, Note_on_c, 9, 36, 123
5, 27600, Note_on_c, 9, 47, 123
5, 27629, Note_on_c, 9, 47, 0
5, 27629, Note_on_c, 9, 36, 0
5, 27630, Note_on_c, 9, 38, 111
5, 27659, Note_on_c, 9, 38, 0
5, 27660, Note_on_c, 9, 38, 111
5, 27689, Note_on_c, 9, 38, 0
5, 27690, Note_on_c, 9, 38, 111
5, 27719, Note_on_c, 9, 38, 0
5, 27720, Note_on_c, 9, 36, 123
5, 27720, Note_on_c, 9, 38, 123
5, 27749, Note_on_c, 9, 38, 0
5, 27749, Note_on_c, 9, 36, 0
5, 27750, Note_on_c, 9, 38, 111
5, 27779, Note_on_c, 9, 38, 0
5, 27780, Note_on_c, 9, 38, 111
5, 27809, Note_on_c, 9, 38, 0
5, 27810, Note_on_c, 9, 38, 111
5, 27839, Note_on_c, 9, 38, 0
5, 27840, Note_on_c, 9, 38, 111
5, 27840, Note_on_c, 9, 36, 111
5, 27840, Note_on_c, 9, 57, 114
5, 27869, Note_on_c, 9, 36, 0
5, 27869, Note_on_c, 9, 38, 0
5, 27900, Note_on_c, 9, 51, 111
5, 27929, Note_on_c, 9, 51, 0
5, 27959, Note_on_c, 9, 57, 0
5, 27960, Note_on_c, 9, 36, 111
5, 27960, Note_on_c, 9, 38, 111
5, 27960, Note_on_c, 9, 51, 111
5, 27989, Note_on_c, 9, 51, 0
5, 27989, Note_on_c, 9, 38, 0
5, 27989, Note_on_c, 9, 36, 0
5, 28020, Note_on_c, 9, 51, 111
5, 28049, Note_on_c, 9, 51, 0
5, 28080, Note_on_c, 9, 36, 111
5, 28080, Note_on_c, 9, 38, 111
5, 28080, Note_on_c, 9, 51, 111
5, 28109, Note_on_c, 9, 51, 0
5, 28109, Note_on_c, 9, 38, 0
5, 28109, Note_on_c, 9, 36, 0
5, 28140, Note_on_c, 9, 51, 111
5, 28169, Note_on_c, 9, 51, 0
5, 28200, Note_on_c, 9, 36, 111
5, 28200, Note_on_c, 9, 38, 111
5, 28200, Note_on_c, 9, 51, 111
5, 28229, Note_on_c, 9, 51, 0
5, 28229, Note_on_c, 9, 38, 0
5, 28229, Note_on_c, 9, 36, 0
5, 28260, Note_on_c, 9, 51, 111
5, 28289, Note_on_c, 9, 51, 0
5, 28320, Note_on_c, 9, 36, 111
5, 28320, Note_on_c, 9, 38, 111
5, 28320, Note_on_c, 9, 51, 111
5, 28349, Note_on_c, 9, 51, 0
5, 28349, Note_on_c, 9, 38, 0
5, 28349, Note_on_c, 9, 36, 0
5, 28380, Note_on_c, 9, 51, 111
5, 28409, Note_on_c, 9, 51, 0
5, 28440, Note_on_c, 9, 51, 111
5, 28440, Note_on_c, 9, 36, 111
5, 28440, Note_on_c, 9, 38, 111
5, 28440, Note_on_c, 9, 57, 111
5, 28469, Note_on_c, 9, 38, 0
5, 28469, Note_on_c, 9, 51, 0
5, 28469, Note_on_c, 9, 36, 0
5, 28559, Note_on_c, 9, 57, 0
5, 28560, Note_on_c, 9, 36, 123
5, 28560, Note_on_c, 9, 47, 123
5, 28589, Note_on_c, 9, 47, 0
5, 28589, Note_on_c, 9, 36, 0
5, 28590, Note_on_c, 9, 38, 111
5, 28619, Note_on_c, 9, 38, 0
5, 28620, Note_on_c, 9, 38, 111
5, 28649, Note_on_c, 9, 38, 0
5, 28650, Note_on_c, 9, 38, 111
5, 28679, Note_on_c, 9, 38, 0
5, 28680, Note_on_c, 9, 36, 123
5, 28680, Note_on_c, 9, 38, 123
5, 28709, Note_on_c, 9, 38, 0
5, 28709, Note_on_c, 9, 36, 0
5, 28710, Note_on_c, 9, 38, 111
5, 28739, Note_on_c, 9, 38, 0
5, 28740, Note_on_c, 9, 38, 111
5, 28769, Note_on_c, 9, 38, 0
5, 28770, Note_on_c, 9, 38, 111
5, 28799, Note_on_c, 9, 38, 0
5, 28800, Note_on_c, 9, 38, 111
5, 28800, Note_on_c, 9, 36, 111
5, 28800, Note_on_c, 9, 57, 114
5, 28829, Note_on_c, 9, 36, 0
5, 28829, Note_on_c, 9, 38, 0
5, 28860, Note_on_c, 9, 51, 111
5, 28889, Note_on_c, 9, 51, 0
5, 28919, Note_on_c, 9, 57, 0
5, 28920, Note_on_c, 9, 36, 111
5, 28920, Note_on_c, 9, 38, 111
5, 28920, Note_on_c, 9, 51, 111
5, 28949, Note_on_c, 9, 51, 0
5, 28949, Note_on_c, 9, 38, 0
5, 28949, Note_on_c, 9, 36, 0
5, 28980, Note_on_c, 9, 51, 111
5, 29009, Note_on_c, 9, 51, 0
5, 29040, Note_on_c, 9, 36, 111
5, 29040, Note_on_c, 9, 38, 111
5, 29040, Note_on_c, 9, 51, 111
5, 29069, Note_on_c, 9, 51, 0
5, 29069, Note_on_c, 9, 38, 0
5, 29069, Note_on_c, 9, 36, 0
5, 29100, Note_on_c, 9, 51, 111
5, 29129, Note_on_c, 9, 51, 0
5, 29160, Note_on_c, 9, 36, 111
5, 29160, Note_on_c, 9, 38, 111
5, 29160, Note_on_c, 9, 51, 111
5, 29189, Note_on_c, 9, 51, 0
5, 29189, Note_on_c, 9, 38, 0
5, 29189, Note_on_c, 9, 36, 0
5, 29220, Note_on_c, 9, 51, 111
5, 29249, Note_on_c, 9, 51, 0
5, 29280, Note_on_c, 9, 36, 111
5, 29280, Note_on_c, 9, 38, 111
5, 29280, Note_on_c, 9, 51, 111
5, 29309, Note_on_c, 9, 51, 0
5, 29309, Note_on_c, 9, 38, 0
5, 29309, Note_on_c, 9, 36, 0
5, 29340, Note_on_c, 9, 51, 111
5, 29369, Note_on_c, 9, 51, 0
5, 29400, Note_on_c, 9, 36, 111
5, 29400, Note_on_c, 9, 38, 111
5, 29400, Note_on_c, 9, 57, 111
5, 29429, Note_on_c, 9, 38, 0
5, 29429, Note_on_c, 9, 36, 0
5, 29519, Note_on_c, 9, 57, 0
5, 29520, Note_on_c, 9, 36, 123
5, 29520, Note_on_c, 9, 47, 123
5, 29549, Note_on_c, 9, 47, 0
5, 29549, Note_on_c, 9, 36, 0
5, 29550, Note_on_c, 9, 38, 111
5, 29579, Note_on_c, 9, 38, 0
5, 29580, Note_on_c, 9, 38, 111
5, 29609, Note_on_c, 9, 38, 0
5, 29610, Note_on_c, 9, 38, 111
5, 29639, Note_on_c, 9, 38, 0
5, 29640, Note_on_c, 9, 36, 123
5, 29640, Note_on_c, 9, 38, 123
5, 29669, Note_on_c, 9, 38, 0
5, 29669, Note_on_c, 9, 36, 0
5, 29670, Note_on_c, 9, 38, 111
5, 29699, Note_on_c, 9, 38, 0
5, 29700, Note_on_c, 9, 38, 111
5, 29729, Note_on_c, 9, 38, 0
5, 29730, Note_on_c, 9, 38, 111
5, 29759, Note_on_c, 9, 38, 0
5, 29760, Note_on_c, 9, 38, 111
5, 29760, Note_on_c, 9, 36, 111
5, 29760, Note_on_c, 9, 57, 114
5, 29789, Note_on_c, 9, 36, 0
5, 29789, Note_on_c, 9, 38, 0
5, 29820, Note_on_c, 9, 51, 111
5, 29849, Note_on_c, 9, 51, 0
5, 29879, Note_on_c, 9, 57, 0
5, 29880, Note_on_c, 9, 36, 111
5, 29880, Note_on_c, 9, 38, 111
5, 29880, Note_on_c, 9, 51, 111
5, 29909, Note_on_c, 9, 51, 0
5, 29909, Note_on_c, 9, 38, 0
5, 29909, Note_on_c, 9, 36, 0
5, 29940, Note_on_c, 9, 51, 111
5, 29969, Note_on_c, 9, 51, 0
5, 30000, Note_on_c, 9, 36, 111
5, 30000, Note_on_c, 9, 38, 111
5, 30000, Note_on_c, 9, 51, 111
5, 30029, Note_on_c, 9, 51, 0
5, 30029, Note_on_c, 9, 38, 0
5, 30029, Note_on_c, 9, 36, 0
5, 30060, Note_on_c, 9, 51, 111
5, 30089, Note_on_c, 9, 51, 0
5, 30120, Note_on_c, 9, 36, 111
5, 30120, Note_on_c, 9, 38, 111
5, 30120, Note_on_c, 9, 51, 111
5, 30149, Note_on_c, 9, 51, 0
5, 30149, Note_on_c, 9, 38, 0
5, 30149, Note_on_c, 9, 36, 0
5, 30180, Note_on_c, 9, 51, 111
5, 30209, Note_on_c, 9, 51, 0
5, 30240, Note_on_c, 9, 36, 111
5, 30240, Note_on_c, 9, 38, 111
5, 30240, Note_on_c, 9, 51, 111
5, 30269, Note_on_c, 9, 51, 0
5, 30269, Note_on_c, 9, 38, 0
5, 30269, Note_on_c, 9, 36, 0
5, 30300, Note_on_c, 9, 51, 111
5, 30329, Note_on_c, 9, 51, 0
5, 30360, Note_on_c, 9, 51, 111
5, 30360, Note_on_c, 9, 36, 111
5, 30360, Note_on_c, 9, 38, 111
5, 30360, Note_on_c, 9, 57, 111
5, 30389, Note_on_c, 9, 38, 0
5, 30389, Note_on_c, 9, 51, 0
5, 30389, Note_on_c, 9, 36, 0
5, 30479, Note_on_c, 9, 57, 0
5, 30480, Note_on_c, 9, 36, 123
5, 30480, Note_on_c, 9, 47, 123
5, 30509, Note_on_c, 9, 47, 0
5, 30509, Note_on_c, 9, 36, 0
5, 30510, Note_on_c, 9, 38, 111
5, 30539, Note_on_c, 9, 38, 0
5, 30540, Note_on_c, 9, 38, 111
5, 30569, Note_on_c, 9, 38, 0
5, 30570, Note_on_c, 9, 38, 111
5, 30599, Note_on_c, 9, 38, 0
5, 30600, Note_on_c, 9, 36, 123
5, 30600, Note_on_c, 9, 38, 123
5, 30629, Note_on_c, 9, 38, 0
5, 30629, Note_on_c, 9, 36, 0
5, 30630, Note_on_c, 9, 38, 111
5, 30659, Note_on_c, 9, 38, 0
5, 30660, Note_on_c, 9, 38, 111
5, 30689, Note_on_c, 9, 38, 0
5, 30690, Note_on_c, 9, 38, 111
5, 30719, Note_on_c, 9, 38, 0
5, 30720, Note_on_c, 9, 38, 111
5, 30720, Note_on_c, 9, 36, 111
5, 30720, Note_on_c, 9, 57, 114
5, 30749, Note_on_c, 9, 36, 0
5, 30749, Note_on_c, 9, 38, 0
5, 30780, Note_on_c, 9, 51, 111
5, 30809, Note_on_c, 9, 51, 0
5, 30839, Note_on_c, 9, 57, 0
5, 30840, Note_on_c, 9, 36, 111
5, 30840, Note_on_c, 9, 38, 111
5, 30840, Note_on_c, 9, 51, 111
5, 30869, Note_on_c, 9, 51, 0
5, 30869, Note_on_c, 9, 38, 0
5, 30869, Note_on_c, 9, 36, 0
5, 30900, Note_on_c, 9, 51, 111
5, 30929, Note_on_c, 9, 51, 0
5, 30960, Note_on_c, 9, 36, 111
5, 30960, Note_on_c, 9, 38, 111
5, 30960, Note_on_c, 9, 51, 111
5, 30989, Note_on_c, 9, 51, 0
5, 30989, Note_on_c, 9, 38, 0
5, 30989, Note_on_c, 9, 36, 0
5, 31020, Note_on_c, 9, 51, 111
5, 31049, Note_on_c, 9, 51, 0
5, 31080, Note_on_c, 9, 36, 111
5, 31080, Note_on_c, 9, 38, 111
5, 31080, Note_on_c, 9, 51, 111
5, 31109, Note_on_c, 9, 51, 0
5, 31109, Note_on_c, 9, 38, 0
5, 31109, Note_on_c, 9, 36, 0
5, 31140, Note_on_c, 9, 51, 111
5, 31169, Note_on_c, 9, 51, 0
5, 31200, Note_on_c, 9, 36, 111
5, 31200, Note_on_c, 9, 38, 111
5, 31200, Note_on_c, 9, 51, 111
5, 31229, Note_on_c, 9, 51, 0
5, 31229, Note_on_c, 9, 38, 0
5, 31229, Note_on_c, 9, 36, 0
5, 31260, Note_on_c, 9, 51, 111
5, 31289, Note_on_c, 9, 51, 0
5, 31320, Note_on_c, 9, 51, 111
5, 31320, Note_on_c, 9, 36, 111
5, 31320, Note_on_c, 9, 57, 114
5, 31320, Note_on_c, 9, 38, 111
5, 31349, Note_on_c, 9, 38, 0
5, 31349, Note_on_c, 9, 51, 0
5, 31349, Note_on_c, 9, 36, 0
5, 31380, Note_on_c, 9, 51, 111
5, 31409, Note_on_c, 9, 51, 0
5, 31439, Note_on_c, 9, 57, 0
5, 31440, Note_on_c, 9, 36, 123
5, 31440, Note_on_c, 9, 47, 123
5, 31469, Note_on_c, 9, 47, 0
5, 31469, Note_on_c, 9, 36, 0
5, 31470, Note_on_c, 9, 47, 111
5, 31499, Note_on_c, 9, 47, 0
5, 31500, Note_on_c, 9, 47, 111
5, 31529, Note_on_c, 9, 47, 0
5, 31530, Note_on_c, 9, 47, 111
5, 31559, Note_on_c, 9, 47, 0
5, 31560, Note_on_c, 9, 36, 123
5, 31560, Note_on_c, 9, 41, 123
5, 31589, Note_on_c, 9, 41, 0
5, 31589, Note_on_c, 9, 36, 0
5, 31590, Note_on_c, 9, 41, 111
5, 31619, Note_on_c, 9, 41, 0
5, 31620, Note_on_c, 9, 41, 111
5, 31649, Note_on_c, 9, 41, 0
5, 31650, Note_on_c, 9, 41, 111
5, 31679, Note_on_c, 9, 41, 0
5, 31680, Note_on_c, 9, 38, 111
5, 31680, Note_on_c, 9, 36, 111
5, 31680, Note_on_c, 9, 57, 114
5, 31709, Note_on_c, 9, 36, 0
5, 31709, Note_on_c, 9, 38, 0
5, 31740, Note_on_c, 9, 51, 111
5, 31769, Note_on_c, 9, 51, 0
5, 31799, Note_on_c, 9, 57, 0
5, 31800, Note_on_c, 9, 36, 111
5, 31800, Note_on_c, 9, 38, 111
5, 31800, Note_on_c, 9, 51, 111
5, 31829, Note_on_c, 9, 51, 0
5, 31829, Note_on_c, 9, 38, 0
5, 31829, Note_on_c, 9, 36, 0
5, 31860, Note_on_c, 9, 51, 111
5, 31889, Note_on_c, 9, 51, 0
5, 31920, Note_on_c, 9, 36, 111
5, 31920, Note_on_c, 9, 38, 111
5, 31920, Note_on_c, 9, 51, 111
5, 31949, Note_on_c, 9, 51, 0
5, 31949, Note_on_c, 9, 38, 0
5, 31949, Note_on_c, 9, 36, 0
5, 31980, Note_on_c, 9, 51, 111
5, 32009, Note_on_c, 9, 51, 0
5, 32040, Note_on_c, 9, 36, 111
5, 32040, Note_on_c, 9, 38, 111
5, 32040, Note_on_c, 9, 51, 111
5, 32069, Note_on_c, 9, 51, 0
5, 32069, Note_on_c, 9, 38, 0
5, 32069, Note_on_c, 9, 36, 0
5, 32100, Note_on_c, 9, 51, 111
5, 32129, Note_on_c, 9, 51, 0
5, 32160, Note_on_c, 9, 36, 111
5, 32160, Note_on_c, 9, 38, 111
5, 32160, Note_on_c, 9, 51, 111
5, 32189, Note_on_c, 9, 51, 0
5, 32189, Note_on_c, 9, 38, 0
5, 32189, Note_on_c, 9, 36, 0
5, 32220, Note_on_c, 9, 51, 111
5, 32249, Note_on_c, 9, 51, 0
5, 32280, Note_on_c, 9, 51, 111
5, 32280, Note_on_c, 9, 36, 111
5, 32280, Note_on_c, 9, 57, 114
5, 32280, Note_on_c, 9, 38, 111
5, 32309, Note_on_c, 9, 38, 0
5, 32309, Note_on_c, 9, 51, 0
5, 32309, Note_on_c, 9, 36, 0
5, 32340, Note_on_c, 9, 51, 111
5, 32369, Note_on_c, 9, 51, 0
5, 32399, Note_on_c, 9, 57, 0
5, 32400, Note_on_c, 9, 36, 123
5, 32400, Note_on_c, 9, 47, 123
5, 32429, Note_on_c, 9, 47, 0
5, 32429, Note_on_c, 9, 36, 0
5, 32430, Note_on_c, 9, 47, 111
5, 32459, Note_on_c, 9, 47, 0
5, 32460, Note_on_c, 9, 47, 111
5, 32489, Note_on_c, 9, 47, 0
5, 32490, Note_on_c, 9, 47, 111
5, 32519, Note_on_c, 9, 47, 0
5, 32520, Note_on_c, 9, 36, 123
5, 32520, Note_on_c, 9, 41, 123
5, 32549, Note_on_c, 9, 41, 0
5, 32549, Note_on_c, 9, 36, 0
5, 32550, Note_on_c, 9, 41, 111
5, 32579, Note_on_c, 9, 41, 0
5, 32580, Note_on_c, 9, 41, 111
5, 32609, Note_on_c, 9, 41, 0
5, 32610, Note_on_c, 9, 41, 111
5, 32639, Note_on_c, 9, 41, 0
5, 32640, Note_on_c, 9, 38, 111
5, 32640, Note_on_c, 9, 36, 111
5, 32640, Note_on_c, 9, 57, 114
5, 32669, Note_on_c, 9, 36, 0
5, 32669, Note_on_c, 9, 38, 0
5, 32700, Note_on_c, 9, 51, 111
5, 32729, Note_on_c, 9, 51, 0
5, 32759, Note_on_c, 9, 57, 0
5, 32760, Note_on_c, 9, 36, 111
5, 32760, Note_on_c, 9, 38, 111
5, 32760, Note_on_c, 9, 51, 111
5, 32789, Note_on_c, 9, 51, 0
5, 32789, Note_on_c, 9, 38, 0
5, 32789, Note_on_c, 9, 36, 0
5, 32820, Note_on_c, 9, 51, 111
5, 32849, Note_on_c, 9, 51, 0
5, 32880, Note_on_c, 9, 36, 111
5, 32880, Note_on_c, 9, 38, 111
5, 32880, Note_on_c, 9, 51, 111
5, 32909, Note_on_c, 9, 51, 0
5, 32909, Note_on_c, 9, 38, 0
5, 32909, Note_on_c, 9, 36, 0
5, 32940, Note_on_c, 9, 51, 111
5, 32969, Note_on_c, 9, 51, 0
5, 33000, Note_on_c, 9, 36, 111
5, 33000, Note_on_c, 9, 38, 111
5, 33000, Note_on_c, 9, 51, 111
5, 33029, Note_on_c, 9, 51, 0
5, 33029, Note_on_c, 9, 38, 0
5, 33029, Note_on_c, 9, 36, 0
5, 33060, Note_on_c, 9, 51, 111
5, 33089, Note_on_c, 9, 51, 0
5, 33120, Note_on_c, 9, 36, 111
5, 33120, Note_on_c, 9, 38, 111
5, 33120, Note_on_c, 9, 51, 111
5, 33149, Note_on_c, 9, 51, 0
5, 33149, Note_on_c, 9, 38, 0
5, 33149, Note_on_c, 9, 36, 0
5, 33180, Note_on_c, 9, 51, 111
5, 33209, Note_on_c, 9, 51, 0
5, 33240, Note_on_c, 9, 51, 111
5, 33240, Note_on_c, 9, 36, 111
5, 33240, Note_on_c, 9, 57, 114
5, 33240, Note_on_c, 9, 38, 111
5, 33269, Note_on_c, 9, 38, 0
5, 33269, Note_on_c, 9, 51, 0
5, 33269, Note_on_c, 9, 36, 0
5, 33300, Note_on_c, 9, 51, 111
5, 33329, Note_on_c, 9, 51, 0
5, 33359, Note_on_c, 9, 57, 0
5, 33360, Note_on_c, 9, 36, 123
5, 33360, Note_on_c, 9, 47, 123
5, 33389, Note_on_c, 9, 47, 0
5, 33389, Note_on_c, 9, 36, 0
5, 33390, Note_on_c, 9, 47, 111
5, 33419, Note_on_c, 9, 47, 0
5, 33420, Note_on_c, 9, 47, 111
5, 33449, Note_on_c, 9, 47, 0
5, 33450, Note_on_c, 9, 47, 111
5, 33479, Note_on_c, 9, 47, 0
5, 33480, Note_on_c, 9, 36, 123
5, 33480, Note_on_c, 9, 41, 123
5, 33509, Note_on_c, 9, 41, 0
5, 33509, Note_on_c, 9, 36, 0
5, 33510, Note_on_c, 9, 41, 111
5, 33539, Note_on_c, 9, 41, 0
5, 33540, Note_on_c, 9, 41, 111
5, 33569, Note_on_c, 9, 41, 0
5, 33570, Note_on_c, 9, 41, 111
5, 33599, Note_on_c, 9, 41, 0
5, 33600, Note_on_c, 9, 38, 111
5, 33600, Note_on_c, 9, 36, 111
5, 33600, Note_on_c, 9, 57, 114
5, 33629, Note_on_c, 9, 36, 0
5, 33629, Note_on_c, 9, 38, 0
5, 33660, Note_on_c, 9, 51, 111
5, 33689, Note_on_c, 9, 51, 0
5, 33719, Note_on_c, 9, 57, 0
5, 33720, Note_on_c, 9, 36, 111
5, 33720, Note_on_c, 9, 38, 111
5, 33720, Note_on_c, 9, 51, 111
5, 33749, Note_on_c, 9, 51, 0
5, 33749, Note_on_c, 9, 38, 0
5, 33749, Note_on_c, 9, 36, 0
5, 33780, Note_on_c, 9, 51, 111
5, 33809, Note_on_c, 9, 51, 0
5, 33840, Note_on_c, 9, 36, 111
5, 33840, Note_on_c, 9, 38, 111
5, 33840, Note_on_c, 9, 51, 111
5, 33869, Note_on_c, 9, 51, 0
5, 33869, Note_on_c, 9, 38, 0
5, 33869, Note_on_c, 9, 36, 0
5, 33900, Note_on_c, 9, 51, 111
5, 33929, Note_on_c, 9, 51, 0
5, 33960, Note_on_c, 9, 36, 111
5, 33960, Note_on_c, 9, 38, 111
5, 33960, Note_on_c, 9, 51, 111
5, 33989, Note_on_c, 9, 51, 0
5, 33989, Note_on_c, 9, 38, 0
5, 33989, Note_on_c, 9, 36, 0
5, 34020, Note_on_c, 9, 51, 111
5, 34049, Note_on_c, 9, 51, 0
5, 34080, Note_on_c, 9, 36, 111
5, 34080, Note_on_c, 9, 38, 111
5, 34080, Note_on_c, 9, 51, 111
5, 34109, Note_on_c, 9, 51, 0
5, 34109, Note_on_c, 9, 38, 0
5, 34109, Note_on_c, 9, 36, 0
5, 34140, Note_on_c, 9, 51, 111
5, 34169, Note_on_c, 9, 51, 0
5, 34200, Note_on_c, 9, 57, 114
5, 34200, Note_on_c, 9, 36, 111
5, 34200, Note_on_c, 9, 51, 111
5, 34200, Note_on_c, 9, 38, 111
5, 34229, Note_on_c, 9, 38, 0
5, 34229, Note_on_c, 9, 51, 0
5, 34229, Note_on_c, 9, 36, 0
5, 34260, Note_on_c, 9, 51, 111
5, 34289, Note_on_c, 9, 51, 0
5, 34319, Note_on_c, 9, 57, 0
5, 34320, Note_on_c, 9, 36, 123
5, 34320, Note_on_c, 9, 47, 123
5, 34349, Note_on_c, 9, 47, 0
5, 34349, Note_on_c, 9, 36, 0
5, 34350, Note_on_c, 9, 47, 111
5, 34379, Note_on_c, 9, 47, 0
5, 34380, Note_on_c, 9, 47, 111
5, 34409, Note_on_c, 9, 47, 0
5, 34410, Note_on_c, 9, 47, 111
5, 34439, Note_on_c, 9, 47, 0
5, 34440, Note_on_c, 9, 36, 123
5, 34440, Note_on_c, 9, 41, 123
5, 34469, Note_on_c, 9, 41, 0
5, 34469, Note_on_c, 9, 36, 0
5, 34470, Note_on_c, 9, 41, 111
5, 34499, Note_on_c, 9, 41, 0
5, 34500, Note_on_c, 9, 41, 111
5, 34529, Note_on_c, 9, 41, 0
5, 34530, Note_on_c, 9, 41, 111
5, 34559, Note_on_c, 9, 41, 0
5, 34560, Note_on_c, 9, 36, 123
5, 34560, Note_on_c, 9, 38, 111
5, 34560, Note_on_c, 9, 57, 114
5, 34589, Note_on_c, 9, 36, 0
5, 34620, Note_on_c, 9, 51, 111
5, 34649, Note_on_c, 9, 51, 0
5, 34679, Note_on_c, 9, 57, 0
5, 34679, Note_on_c, 9, 38, 0
5, 34680, Note_on_c, 9, 36, 111
5, 34680, Note_on_c, 9, 38, 111
5, 34680, Note_on_c, 9, 51, 111
5, 34709, Note_on_c, 9, 51, 0
5, 34709, Note_on_c, 9, 38, 0
5, 34709, Note_on_c, 9, 36, 0
5, 34740, Note_on_c, 9, 51, 111
5, 34769, Note_on_c, 9, 51, 0
5, 34800, Note_on_c, 9, 36, 111
5, 34800, Note_on_c, 9, 38, 111
5, 34800, Note_on_c, 9, 57, 114
5, 34829, Note_on_c, 9, 38, 0
5, 34829, Note_on_c, 9, 36, 0
5, 34860, Note_on_c, 9, 51, 111
5, 34889, Note_on_c, 9, 51, 0
5, 34919, Note_on_c, 9, 57, 0
5, 34920, Note_on_c, 9, 36, 111
5, 34920, Note_on_c, 9, 38, 111
5, 34920, Note_on_c, 9, 51, 111
5, 34949, Note_on_c, 9, 51, 0
5, 34949, Note_on_c, 9, 38, 0
5, 34949, Note_on_c, 9, 36, 0
5, 34980, Note_on_c, 9, 51, 111
5, 35009, Note_on_c, 9, 51, 0
5, 35040, Note_on_c, 9, 38, 111
5, 35040, Note_on_c, 9, 36, 111
5, 35040, Note_on_c, 9, 57, 114
5, 35069, Note_on_c, 9, 36, 0
5, 35069, Note_on_c, 9, 38, 0
5, 35100, Note_on_c, 9, 51, 111
5, 35129, Note_on_c, 9, 51, 0
5, 35159, Note_on_c, 9, 57, 0
5, 35160, Note_on_c, 9, 36, 111
5, 35160, Note_on_c, 9, 38, 111
5, 35160, Note_on_c, 9, 51, 111
5, 35189, Note_on_c, 9, 51, 0
5, 35189, Note_on_c, 9, 38, 0
5, 35189, Note_on_c, 9, 36, 0
5, 35220, Note_on_c, 9, 51, 111
5, 35249, Note_on_c, 9, 51, 0
5, 35280, Note_on_c, 9, 36, 111
5, 35280, Note_on_c, 9, 38, 111
5, 35280, Note_on_c, 9, 57, 111
5, 35309, Note_on_c, 9, 57, 0
5, 35309, Note_on_c, 9, 38, 0
5, 35309, Note_on_c, 9, 36, 0
5, 35340, Note_on_c, 9, 51, 111
5, 35369, Note_on_c, 9, 51, 0
5, 35400, Note_on_c, 9, 49, 111
5, 35400, Note_on_c, 9, 36, 111
5, 35400, Note_on_c, 9, 38, 111
5, 35429, Note_on_c, 9, 38, 0
5, 35429, Note_on_c, 9, 36, 0
5, 35430, Note_on_c, 9, 38, 123
5, 35459, Note_on_c, 9, 38, 0
5, 35460, Note_on_c, 9, 38, 123
5, 35489, Note_on_c, 9, 38, 0
5, 35490, Note_on_c, 9, 38, 123
5, 35519, Note_on_c, 9, 38, 0
5, 35519, Note_on_c, 9, 49, 0
5, 35520, Note_on_c, 9, 36, 123
5, 35520, Note_on_c, 9, 57, 114
5, 35549, Note_on_c, 9, 36, 0
5, 35580, Note_on_c, 9, 51, 111
5, 35609, Note_on_c, 9, 51, 0
5, 35639, Note_on_c, 9, 57, 0
5, 35640, Note_on_c, 9, 38, 123
5, 35640, Note_on_c, 9, 51, 111
5, 35669, Note_on_c, 9, 51, 0
5, 35669, Note_on_c, 9, 38, 0
5, 35700, Note_on_c, 9, 36, 123
5, 35700, Note_on_c, 9, 51, 111
5, 35729, Note_on_c, 9, 51, 0
5, 35729, Note_on_c, 9, 36, 0
5, 35760, Note_on_c, 9, 36, 123
5, 35760, Note_on_c, 9, 51, 111
5, 35789, Note_on_c, 9, 51, 0
5, 35789, Note_on_c, 9, 36, 0
5, 35820, Note_on_c, 9, 51, 111
5, 35820, Note_on_c, 9, 36, 123
5, 35849, Note_on_c, 9, 36, 0
5, 35849, Note_on_c, 9, 51, 0
5, 35880, Note_on_c, 9, 38, 123
5, 35880, Note_on_c, 9, 51, 111
5, 35909, Note_on_c, 9, 51, 0
5, 35909, Note_on_c, 9, 38, 0
5, 35940, Note_on_c, 9, 36, 123
5, 35940, Note_on_c, 9, 51, 111
5, 35969, Note_on_c, 9, 51, 0
5, 35969, Note_on_c, 9, 36, 0
5, 36000, Note_on_c, 9, 36, 123
5, 36000, Note_on_c, 9, 51, 111
5, 36029, Note_on_c, 9, 51, 0
5, 36029, Note_on_c, 9, 36, 0
5, 36060, Note_on_c, 9, 51, 111
5, 36060, Note_on_c, 9, 36, 123
5, 36089, Note_on_c, 9, 36, 0
5, 36089, Note_on_c, 9, 51, 0
5, 36120, Note_on_c, 9, 38, 123
5, 36120, Note_on_c, 9, 51, 111
5, 36149, Note_on_c, 9, 51, 0
5, 36149, Note_on_c, 9, 38, 0
5, 36180, Note_on_c, 9, 36, 123
5, 36180, Note_on_c, 9, 51, 111
5, 36209, Note_on_c, 9, 51, 0
5, 36209, Note_on_c, 9, 36, 0
5, 36240, Note_on_c, 9, 51, 111
5, 36240, Note_on_c, 9, 36, 123
5, 36269, Note_on_c, 9, 36, 0
5, 36269, Note_on_c, 9, 51, 0
5, 36300, Note_on_c, 9, 51, 111
5, 36300, Note_on_c, 9, 36, 123
5, 36329, Note_on_c, 9, 36, 0
5, 36329, Note_on_c, 9, 51, 0
5, 36360, Note_on_c, 9, 38, 123
5, 36360, Note_on_c, 9, 51, 111
5, 36389, Note_on_c, 9, 51, 0
5, 36389, Note_on_c, 9, 38, 0
5, 36420, Note_on_c, 9, 36, 123
5, 36420, Note_on_c, 9, 51, 111
5, 36449, Note_on_c, 9, 51, 0
5, 36449, Note_on_c, 9, 36, 0
5, 36480, Note_on_c, 9, 36, 123
5, 36480, Note_on_c, 9, 51, 111
5, 36509, Note_on_c, 9, 51, 0
5, 36509, Note_on_c, 9, 36, 0
5, 36540, Note_on_c, 9, 36, 123
5, 36540, Note_on_c, 9, 51, 111
5, 36569, Note_on_c, 9, 51, 0
5, 36569, Note_on_c, 9, 36, 0
5, 36600, Note_on_c, 9, 38, 123
5, 36600, Note_on_c, 9, 51, 111
5, 36629, Note_on_c, 9, 51, 0
5, 36629, Note_on_c, 9, 38, 0
5, 36660, Note_on_c, 9, 36, 123
5, 36660, Note_on_c, 9, 51, 111
5, 36689, Note_on_c, 9, 51, 0
5, 36689, Note_on_c, 9, 36, 0
5, 36720, Note_on_c, 9, 36, 123
5, 36720, Note_on_c, 9, 51, 111
5, 36749, Note_on_c, 9, 51, 0
5, 36749, Note_on_c, 9, 36, 0
5, 36780, Note_on_c, 9, 51, 111
5, 36780, Note_on_c, 9, 36, 123
5, 36809, Note_on_c, 9, 36, 0
5, 36809, Note_on_c, 9, 51, 0
5, 36840, Note_on_c, 9, 38, 123
5, 36840, Note_on_c, 9, 51, 111
5, 36869, Note_on_c, 9, 51, 0
5, 36869, Note_on_c, 9, 38, 0
5, 36900, Note_on_c, 9, 36, 123
5, 36900, Note_on_c, 9, 51, 111
5, 36929, Note_on_c, 9, 51, 0
5, 36929, Note_on_c, 9, 36, 0
5, 36960, Note_on_c, 9, 36, 123
5, 36960, Note_on_c, 9, 51, 111
5, 36989, Note_on_c, 9, 51, 0
5, 36989, Note_on_c, 9, 36, 0
5, 37020, Note_on_c, 9, 51, 111
5, 37020, Note_on_c, 9, 36, 123
5, 37049, Note_on_c, 9, 36, 0
5, 37049, Note_on_c, 9, 51, 0
5, 37080, Note_on_c, 9, 38, 123
5, 37080, Note_on_c, 9, 51, 111
5, 37109, Note_on_c, 9, 51, 0
5, 37109, Note_on_c, 9, 38, 0
5, 37140, Note_on_c, 9, 36, 123
5, 37140, Note_on_c, 9, 51, 111
5, 37169, Note_on_c, 9, 51, 0
5, 37169, Note_on_c, 9, 36, 0
5, 37200, Note_on_c, 9, 51, 111
5, 37200, Note_on_c, 9, 36, 123
5, 37229, Note_on_c, 9, 36, 0
5, 37229, Note_on_c, 9, 51, 0
5, 37260, Note_on_c, 9, 51, 111
5, 37260, Note_on_c, 9, 36, 123
5, 37289, Note_on_c, 9, 36, 0
5, 37289, Note_on_c, 9, 51, 0
5, 37320, Note_on_c, 9, 38, 123
5, 37320, Note_on_c, 9, 51, 111
5, 37349, Note_on_c, 9, 51, 0
5, 37349, Note_on_c, 9, 38, 0
5, 37380, Note_on_c, 9, 36, 123
5, 37380, Note_on_c, 9, 51, 111
5, 37409, Note_on_c, 9, 51, 0
5, 37409, Note_on_c, 9, 36, 0
5, 37440, Note_on_c, 9, 36, 123
5, 37440, Note_on_c, 9, 51, 111
5, 37469, Note_on_c, 9, 51, 0
5, 37469, Note_on_c, 9, 36, 0
5, 37500, Note_on_c, 9, 36, 123
5, 37500, Note_on_c, 9, 51, 111
5, 37529, Note_on_c, 9, 51, 0
5, 37529, Note_on_c, 9, 36, 0
5, 37560, Note_on_c, 9, 38, 123
5, 37560, Note_on_c, 9, 51, 111
5, 37589, Note_on_c, 9, 51, 0
5, 37589, Note_on_c, 9, 38, 0
5, 37620, Note_on_c, 9, 36, 123
5, 37620, Note_on_c, 9, 51, 111
5, 37649, Note_on_c, 9, 51, 0
5, 37649, Note_on_c, 9, 36, 0
5, 37680, Note_on_c, 9, 36, 123
5, 37680, Note_on_c, 9, 51, 111
5, 37709, Note_on_c, 9, 51, 0
5, 37709, Note_on_c, 9, 36, 0
5, 37740, Note_on_c, 9, 51, 111
5, 37740, Note_on_c, 9, 36, 123
5, 37769, Note_on_c, 9, 36, 0
5, 37769, Note_on_c, 9, 51, 0
5, 37800, Note_on_c, 9, 38, 123
5, 37800, Note_on_c, 9, 51, 111
5, 37829, Note_on_c, 9, 51, 0
5, 37829, Note_on_c, 9, 38, 0
5, 37860, Note_on_c, 9, 36, 123
5, 37860, Note_on_c, 9, 51, 111
5, 37889, Note_on_c, 9, 51, 0
5, 37889, Note_on_c, 9, 36, 0
5, 37920, Note_on_c, 9, 36, 123
5, 37920, Note_on_c, 9, 51, 111
5, 37949, Note_on_c, 9, 51, 0
5, 37949, Note_on_c, 9, 36, 0
5, 37980, Note_on_c, 9, 51, 111
5, 37980, Note_on_c, 9, 36, 123
5, 38009, Note_on_c, 9, 36, 0
5, 38009, Note_on_c, 9, 51, 0
5, 38040, Note_on_c, 9, 38, 123
5, 38040, Note_on_c, 9, 51, 111
5, 38069, Note_on_c, 9, 51, 0
5, 38069, Note_on_c, 9, 38, 0
5, 38100, Note_on_c, 9, 36, 123
5, 38100, Note_on_c, 9, 51, 111
5, 38129, Note_on_c, 9, 51, 0
5, 38129, Note_on_c, 9, 36, 0
5, 38160, Note_on_c, 9, 51, 111
5, 38160, Note_on_c, 9, 36, 123
5, 38189, Note_on_c, 9, 36, 0
5, 38189, Note_on_c, 9, 51, 0
5, 38220, Note_on_c, 9, 51, 111
5, 38220, Note_on_c, 9, 36, 123
5, 38249, Note_on_c, 9, 36, 0
5, 38249, Note_on_c, 9, 51, 0
5, 38280, Note_on_c, 9, 38, 123
5, 38280, Note_on_c, 9, 51, 111
5, 38309, Note_on_c, 9, 51, 0
5, 38309, Note_on_c, 9, 38, 0
5, 38340, Note_on_c, 9, 36, 123
5, 38340, Note_on_c, 9, 51, 111
5, 38369, Note_on_c, 9, 51, 0
5, 38369, Note_on_c, 9, 36, 0
5, 38400, Note_on_c, 9, 57, 114
5, 38400, Note_on_c, 9, 36, 123
5, 38429, Note_on_c, 9, 36, 0
5, 38519, Note_on_c, 9, 57, 0
5, 39360, Note_on_c, 9, 36, 111
5, 39360, Note_on_c, 9, 38, 111
5, 39360, Note_on_c, 9, 42, 99
5, 39360, Note_on_c, 9, 48, 111
5, 39389, Note_on_c, 9, 48, 0
5, 39389, Note_on_c, 9, 36, 0
5, 39389, Note_on_c, 9, 38, 0
5, 39389, Note_on_c, 9, 42, 0
5, 39420, Note_on_c, 9, 48, 93
5, 39449, Note_on_c, 9, 48, 0
5, 39480, Note_on_c, 9, 42, 99
5, 39480, Note_on_c, 9, 48, 93
5, 39509, Note_on_c, 9, 48, 0
5, 39509, Note_on_c, 9, 42, 0
5, 39540, Note_on_c, 9, 48, 111
5, 39540, Note_on_c, 9, 36, 111
5, 39540, Note_on_c, 9, 38, 111
5, 39569, Note_on_c, 9, 38, 0
5, 39569, Note_on_c, 9, 36, 0
5, 39569, Note_on_c, 9, 48, 0
5, 39600, Note_on_c, 9, 42, 99
5, 39600, Note_on_c, 9, 48, 93
5, 39600, Note_on_c, 9, 36, 127
5, 39629, Note_on_c, 9, 36, 0
5, 39629, Note_on_c, 9, 48, 0
5, 39629, Note_on_c, 9, 42, 0
5, 39660, Note_on_c, 9, 48, 93
5, 39689, Note_on_c, 9, 48, 0
5, 39720, Note_on_c, 9, 42, 99
5, 39720, Note_on_c, 9, 48, 93
5, 39749, Note_on_c, 9, 48, 0
5, 39749, Note_on_c, 9, 42, 0
5, 39780, Note_on_c, 9, 48, 93
5, 39809, Note_on_c, 9, 48, 0
5, 39840, Note_on_c, 9, 36, 111
5, 39840, Note_on_c, 9, 38, 111
5, 39840, Note_on_c, 9, 42, 99
5, 39840, Note_on_c, 9, 48, 111
5, 39869, Note_on_c, 9, 48, 0
5, 39869, Note_on_c, 9, 36, 0
5, 39869, Note_on_c, 9, 38, 0
5, 39869, Note_on_c, 9, 42, 0
5, 39900, Note_on_c, 9, 48, 93
5, 39929, Note_on_c, 9, 48, 0
5, 39960, Note_on_c, 9, 42, 99
5, 39960, Note_on_c, 9, 48, 93
5, 39989, Note_on_c, 9, 48, 0
5, 39989, Note_on_c, 9, 42, 0
5, 40020, Note_on_c, 9, 36, 114
5, 40020, Note_on_c, 9, 38, 114
5, 40020, Note_on_c, 9, 48, 111
5, 40049, Note_on_c, 9, 48, 0
5, 40049, Note_on_c, 9, 38, 0
5, 40049, Note_on_c, 9, 36, 0
5, 40080, Note_on_c, 9, 36, 127
5, 40080, Note_on_c, 9, 42, 99
5, 40080, Note_on_c, 9, 48, 93
5, 40109, Note_on_c, 9, 48, 0
5, 40109, Note_on_c, 9, 42, 0
5, 40109, Note_on_c, 9, 36, 0
5, 40140, Note_on_c, 9, 48, 93
5, 40169, Note_on_c, 9, 48, 0
5, 40200, Note_on_c, 9, 42, 99
5, 40200, Note_on_c, 9, 48, 93
5, 40229, Note_on_c, 9, 48, 0
5, 40229, Note_on_c, 9, 42, 0
5, 40260, Note_on_c, 9, 48, 93
5, 40289, Note_on_c, 9, 48, 0
5, 40320, Note_on_c, 9, 36, 111
5, 40320, Note_on_c, 9, 38, 111
5, 40320, Note_on_c, 9, 42, 99
5, 40320, Note_on_c, 9, 48, 111
5, 40349, Note_on_c, 9, 48, 0
5, 40349, Note_on_c, 9, 36, 0
5, 40349, Note_on_c, 9, 38, 0
5, 40349, Note_on_c, 9, 42, 0
5, 40380, Note_on_c, 9, 48, 93
5, 40409, Note_on_c, 9, 48, 0
5, 40440, Note_on_c, 9, 42, 99
5, 40440, Note_on_c, 9, 48, 93
5, 40469, Note_on_c, 9, 48, 0
5, 40469, Note_on_c, 9, 42, 0
5, 40500, Note_on_c, 9, 48, 111
5, 40500, Note_on_c, 9, 36, 111
5, 40500, Note_on_c, 9, 38, 111
5, 40529, Note_on_c, 9, 38, 0
5, 40529, Note_on_c, 9, 36, 0
5, 40529, Note_on_c, 9, 48, 0
5, 40560, Note_on_c, 9, 42, 99
5, 40560, Note_on_c, 9, 48, 93
5, 40560, Note_on_c, 9, 36, 127
5, 40589, Note_on_c, 9, 36, 0
5, 40589, Note_on_c, 9, 48, 0
5, 40589, Note_on_c, 9, 42, 0
5, 40620, Note_on_c, 9, 48, 93
5, 40649, Note_on_c, 9, 48, 0
5, 40680, Note_on_c, 9, 42, 99
5, 40680, Note_on_c, 9, 48, 93
5, 40709, Note_on_c, 9, 48, 0
5, 40709, Note_on_c, 9, 42, 0
5, 40740, Note_on_c, 9, 48, 93
5, 40769, Note_on_c, 9, 48, 0
5, 40800, Note_on_c, 9, 36, 111
5, 40800, Note_on_c, 9, 38, 111
5, 40800, Note_on_c, 9, 42, 99
5, 40800, Note_on_c, 9, 48, 111
5, 40829, Note_on_c, 9, 48, 0
5, 40829, Note_on_c, 9, 36, 0
5, 40829, Note_on_c, 9, 38, 0
5, 40829, Note_on_c, 9, 42, 0
5, 40860, Note_on_c, 9, 48, 93
5, 40889, Note_on_c, 9, 48, 0
5, 40920, Note_on_c, 9, 42, 99
5, 40920, Note_on_c, 9, 48, 93
5, 40949, Note_on_c, 9, 48, 0
5, 40949, Note_on_c, 9, 42, 0
5, 40980, Note_on_c, 9, 36, 114
5, 40980, Note_on_c, 9, 38, 114
5, 40980, Note_on_c, 9, 48, 111
5, 41009, Note_on_c, 9, 48, 0
5, 41009, Note_on_c, 9, 38, 0
5, 41009, Note_on_c, 9, 36, 0
5, 41040, Note_on_c, 9, 48, 93
5, 41040, Note_on_c, 9, 36, 123
5, 41069, Note_on_c, 9, 36, 0
5, 41069, Note_on_c, 9, 48, 0
5, 41100, Note_on_c, 9, 38, 123
5, 41129, Note_on_c, 9, 38, 0
5, 41130, Note_on_c, 9, 38, 123
5, 41159, Note_on_c, 9, 38, 0
5, 41160, Note_on_c, 9, 38, 90
5, 41189, Note_on_c, 9, 38, 0
5, 41190, Note_on_c, 9, 38, 90
5, 41219, Note_on_c, 9, 38, 0
5, 41220, Note_on_c, 9, 38, 123
5, 41249, Note_on_c, 9, 38, 0
5, 41250, Note_on_c, 9, 38, 123
5, 41279, Note_on_c, 9, 38, 0
5, 41280, Note_on_c, 9, 36, 123
5, 41280, Note_on_c, 9, 57, 114
5, 41309, Note_on_c, 9, 36, 0
5, 41340, Note_on_c, 9, 51, 111
5, 41369, Note_on_c, 9, 51, 0
5, 41399, Note_on_c, 9, 57, 0
5, 41400, Note_on_c, 9, 38, 123
5, 41400, Note_on_c, 9, 51, 111
5, 41429, Note_on_c, 9, 51, 0
5, 41429, Note_on_c, 9, 38, 0
5, 41460, Note_on_c, 9, 36, 123
5, 41460, Note_on_c, 9, 51, 111
5, 41489, Note_on_c, 9, 51, 0
5, 41489, Note_on_c, 9, 36, 0
5, 41520, Note_on_c, 9, 36, 123
5, 41520, Note_on_c, 9, 51, 111
5, 41549, Note_on_c, 9, 51, 0
5, 41549, Note_on_c, 9, 36, 0
5, 41580, Note_on_c, 9, 51, 111
5, 41580, Note_on_c, 9, 36, 123
5, 41609, Note_on_c, 9, 36, 0
5, 41609, Note_on_c, 9, 51, 0
5, 41640, Note_on_c, 9, 38, 123
5, 41640, Note_on_c, 9, 51, 111
5, 41669, Note_on_c, 9, 51, 0
5, 41669, Note_on_c, 9, 38, 0
5, 41700, Note_on_c, 9, 36, 123
5, 41700, Note_on_c, 9, 51, 111
5, 41729, Note_on_c, 9, 51, 0
5, 41729, Note_on_c, 9, 36, 0
5, 41760, Note_on_c, 9, 36, 123
5, 41760, Note_on_c, 9, 51, 111
5, 41789, Note_on_c, 9, 51, 0
5, 41789, Note_on_c, 9, 36, 0
5, 41820, Note_on_c, 9, 51, 111
5, 41820, Note_on_c, 9, 36, 123
5, 41849, Note_on_c, 9, 36, 0
5, 41849, Note_on_c, 9, 51, 0
5, 41880, Note_on_c, 9, 38, 123
5, 41880, Note_on_c, 9, 51, 111
5, 41909, Note_on_c, 9, 51, 0
5, 41909, Note_on_c, 9, 38, 0
5, 41940, Note_on_c, 9, 36, 123
5, 41940, Note_on_c, 9, 51, 111
5, 41969, Note_on_c, 9, 51, 0
5, 41969, Note_on_c, 9, 36, 0
5, 42000, Note_on_c, 9, 51, 111
5, 42000, Note_on_c, 9, 36, 123
5, 42029, Note_on_c, 9, 36, 0
5, 42029, Note_on_c, 9, 51, 0
5, 42060, Note_on_c, 9, 51, 111
5, 42060, Note_on_c, 9, 36, 123
5, 42089, Note_on_c, 9, 36, 0
5, 42089, Note_on_c, 9, 51, 0
5, 42120, Note_on_c, 9, 38, 123
5, 42120, Note_on_c, 9, 51, 111
5, 42149, Note_on_c, 9, 51, 0
5, 42149, Note_on_c, 9, 38, 0
5, 42180, Note_on_c, 9, 36, 123
5, 42180, Note_on_c, 9, 51, 111
5, 42209, Note_on_c, 9, 51, 0
5, 42209, Note_on_c, 9, 36, 0
5, 42240, Note_on_c, 9, 36, 123
5, 42240, Note_on_c, 9, 51, 111
5, 42269, Note_on_c, 9, 51, 0
5, 42269, Note_on_c, 9, 36, 0
5, 42300, Note_on_c, 9, 36, 123
5, 42300, Note_on_c, 9, 51, 111
5, 42329, Note_on_c, 9, 51, 0
5, 42329, Note_on_c, 9, 36, 0
5, 42360, Note_on_c, 9, 38, 123
5, 42360, Note_on_c, 9, 51, 111
5, 42389, Note_on_c, 9, 51, 0
5, 42389, Note_on_c, 9, 38, 0
5, 42420, Note_on_c, 9, 36, 123
5, 42420, Note_on_c, 9, 51, 111
5, 42449, Note_on_c, 9, 51, 0
5, 42449, Note_on_c, 9, 36, 0
5, 42480, Note_on_c, 9, 36, 123
5, 42480, Note_on_c, 9, 51, 111
5, 42509, Note_on_c, 9, 51, 0
5, 42509, Note_on_c, 9, 36, 0
5, 42540, Note_on_c, 9, 51, 111
5, 42540, Note_on_c, 9, 36, 123
5, 42569, Note_on_c, 9, 36, 0
5, 42569, Note_on_c, 9, 51, 0
5, 42600, Note_on_c, 9, 38, 123
5, 42600, Note_on_c, 9, 51, 111
5, 42629, Note_on_c, 9, 51, 0
5, 42629, Note_on_c, 9, 38, 0
5, 42660, Note_on_c, 9, 36, 123
5, 42660, Note_on_c, 9, 51, 111
5, 42689, Note_on_c, 9, 51, 0
5, 42689, Note_on_c, 9, 36, 0
5, 42720, Note_on_c, 9, 36, 123
5, 42720, Note_on_c, 9, 51, 111
5, 42749, Note_on_c, 9, 51, 0
5, 42749, Note_on_c, 9, 36, 0
5, 42780, Note_on_c, 9, 51, 111
5, 42780, Note_on_c, 9, 36, 123
5, 42809, Note_on_c, 9, 36, 0
5, 42809, Note_on_c, 9, 51, 0
5, 42840, Note_on_c, 9, 38, 123
5, 42840, Note_on_c, 9, 51, 111
5, 42869, Note_on_c, 9, 51, 0
5, 42869, Note_on_c, 9, 38, 0
5, 42900, Note_on_c, 9, 36, 123
5, 42900, Note_on_c, 9, 51, 111
5, 42929, Note_on_c, 9, 51, 0
5, 42929, Note_on_c, 9, 36, 0
5, 42960, Note_on_c, 9, 51, 111
5, 42960, Note_on_c, 9, 36, 123
5, 42989, Note_on_c, 9, 36, 0
5, 42989, Note_on_c, 9, 51, 0
5, 43020, Note_on_c, 9, 51, 111
5, 43020, Note_on_c, 9, 36, 123
5, 43049, Note_on_c, 9, 36, 0
5, 43049, Note_on_c, 9, 51, 0
5, 43080, Note_on_c, 9, 38, 123
5, 43080, Note_on_c, 9, 51, 111
5, 43109, Note_on_c, 9, 51, 0
5, 43109, Note_on_c, 9, 38, 0
5, 43140, Note_on_c, 9, 36, 123
5, 43140, Note_on_c, 9, 51, 111
5, 43169, Note_on_c, 9, 51, 0
5, 43169, Note_on_c, 9, 36, 0
5, 43200, Note_on_c, 9, 36, 123
5, 43200, Note_on_c, 9, 51, 111
5, 43229, Note_on_c, 9, 51, 0
5, 43229, Note_on_c, 9, 36, 0
5, 43260, Note_on_c, 9, 36, 123
5, 43260, Note_on_c, 9, 51, 111
5, 43289, Note_on_c, 9, 51, 0
5, 43289, Note_on_c, 9, 36, 0
5, 43320, Note_on_c, 9, 38, 123
5, 43320, Note_on_c, 9, 51, 111
5, 43349, Note_on_c, 9, 51, 0
5, 43349, Note_on_c, 9, 38, 0
5, 43380, Note_on_c, 9, 36, 123
5, 43380, Note_on_c, 9, 51, 111
5, 43409, Note_on_c, 9, 51, 0
5, 43409, Note_on_c, 9, 36, 0
5, 43440, Note_on_c, 9, 36, 123
5, 43440, Note_on_c, 9, 51, 111
5, 43469, Note_on_c, 9, 51, 0
5, 43469, Note_on_c, 9, 36, 0
5, 43500, Note_on_c, 9, 51, 111
5, 43500, Note_on_c, 9, 36, 123
5, 43529, Note_on_c, 9, 36, 0
5, 43529, Note_on_c, 9, 51, 0
5, 43560, Note_on_c, 9, 38, 123
5, 43560, Note_on_c, 9, 51, 111
5, 43589, Note_on_c, 9, 51, 0
5, 43589, Note_on_c, 9, 38, 0
5, 43620, Note_on_c, 9, 36, 123
5, 43620, Note_on_c, 9, 51, 111
5, 43649, Note_on_c, 9, 51, 0
5, 43649, Note_on_c, 9, 36, 0
5, 43680, Note_on_c, 9, 36, 123
5, 43680, Note_on_c, 9, 51, 111
5, 43709, Note_on_c, 9, 51, 0
5, 43709, Note_on_c, 9, 36, 0
5, 43740, Note_on_c, 9, 51, 111
5, 43740, Note_on_c, 9, 36, 123
5, 43769, Note_on_c, 9, 36, 0
5, 43769, Note_on_c, 9, 51, 0
5, 43800, Note_on_c, 9, 38, 123
5, 43800, Note_on_c, 9, 51, 111
5, 43829, Note_on_c, 9, 51, 0
5, 43829, Note_on_c, 9, 38, 0
5, 43860, Note_on_c, 9, 36, 123
5, 43860, Note_on_c, 9, 51, 111
5, 43889, Note_on_c, 9, 51, 0
5, 43889, Note_on_c, 9, 36, 0
5, 43920, Note_on_c, 9, 51, 111
5, 43920, Note_on_c, 9, 36, 123
5, 43949, Note_on_c, 9, 36, 0
5, 43949, Note_on_c, 9, 51, 0
5, 43980, Note_on_c, 9, 51, 111
5, 43980, Note_on_c, 9, 36, 123
5, 44009, Note_on_c, 9, 36, 0
5, 44009, Note_on_c, 9, 51, 0
5, 44040, Note_on_c, 9, 38, 123
5, 44040, Note_on_c, 9, 51, 111
5, 44069, Note_on_c, 9, 51, 0
5, 44069, Note_on_c, 9, 38, 0
5, 44100, Note_on_c, 9, 36, 123
5, 44100, Note_on_c, 9, 51, 111
5, 44129, Note_on_c, 9, 51, 0
5, 44129, Note_on_c, 9, 36, 0
5, 44160, Note_on_c, 9, 36, 111
5, 44160, Note_on_c, 9, 38, 111
5, 44160, Note_on_c, 9, 57, 114
5, 44189, Note_on_c, 9, 38, 0
5, 44189, Note_on_c, 9, 36, 0
5, 44279, Note_on_c, 9, 57, 0
5, 45120, Note_on_c, 9, 36, 111
5, 45120, Note_on_c, 9, 38, 111
5, 45120, Note_on_c, 9, 42, 99
5, 45120, Note_on_c, 9, 51, 111
5, 45149, Note_on_c, 9, 51, 0
5, 45149, Note_on_c, 9, 36, 0
5, 45149, Note_on_c, 9, 38, 0
5, 45149, Note_on_c, 9, 42, 0
5, 45180, Note_on_c, 9, 51, 111
5, 45209, Note_on_c, 9, 51, 0
5, 45240, Note_on_c, 9, 42, 99
5, 45240, Note_on_c, 9, 51, 111
5, 45269, Note_on_c, 9, 51, 0
5, 45269, Note_on_c, 9, 42, 0
5, 45300, Note_on_c, 9, 51, 111
5, 45300, Note_on_c, 9, 38, 123
5, 45329, Note_on_c, 9, 38, 0
5, 45329, Note_on_c, 9, 51, 0
5, 45360, Note_on_c, 9, 42, 99
5, 45360, Note_on_c, 9, 51, 111
5, 45360, Note_on_c, 9, 36, 127
5, 45389, Note_on_c, 9, 36, 0
5, 45389, Note_on_c, 9, 51, 0
5, 45389, Note_on_c, 9, 42, 0
5, 45420, Note_on_c, 9, 51, 111
5, 45449, Note_on_c, 9, 51, 0
5, 45480, Note_on_c, 9, 42, 99
5, 45480, Note_on_c, 9, 51, 111
5, 45509, Note_on_c, 9, 51, 0
5, 45509, Note_on_c, 9, 42, 0
5, 45540, Note_on_c, 9, 51, 111
5, 45569, Note_on_c, 9, 51, 0
5, 45600, Note_on_c, 9, 36, 123
5, 45600, Note_on_c, 9, 42, 99
5, 45600, Note_on_c, 9, 51, 111
5, 45629, Note_on_c, 9, 51, 0
5, 45629, Note_on_c, 9, 42, 0
5, 45629, Note_on_c, 9, 36, 0
5, 45660, Note_on_c, 9, 51, 111
5, 45689, Note_on_c, 9, 51, 0
5, 45720, Note_on_c, 9, 42, 99
5, 45720, Note_on_c, 9, 51, 111
5, 45749, Note_on_c, 9, 51, 0
5, 45749, Note_on_c, 9, 42, 0
5, 45780, Note_on_c, 9, 36, 123
5, 45780, Note_on_c, 9, 51, 111
5, 45809, Note_on_c, 9, 51, 0
5, 45809, Note_on_c, 9, 36, 0
5, 45840, Note_on_c, 9, 42, 99
5, 45840, Note_on_c, 9, 51, 111
5, 45869, Note_on_c, 9, 51, 0
5, 45869, Note_on_c, 9, 42, 0
5, 45900, Note_on_c, 9, 51, 111
5, 45929, Note_on_c, 9, 51, 0
5, 45960, Note_on_c, 9, 42, 99
5, 45960, Note_on_c, 9, 51, 111
5, 45989, Note_on_c, 9, 51, 0
5, 45989, Note_on_c, 9, 42, 0
5, 46020, Note_on_c, 9, 51, 111
5, 46049, Note_on_c, 9, 51, 0
5, 46080, Note_on_c, 9, 36, 111
5, 46080, Note_on_c, 9, 38, 111
5, 46080, Note_on_c, 9, 42, 99
5, 46080, Note_on_c, 9, 51, 111
5, 46109, Note_on_c, 9, 51, 0
5, 46109, Note_on_c, 9, 36, 0
5, 46109, Note_on_c, 9, 38, 0
5, 46109, Note_on_c, 9, 42, 0
5, 46140, Note_on_c, 9, 51, 111
5, 46169, Note_on_c, 9, 51, 0
5, 46200, Note_on_c, 9, 42, 99
5, 46200, Note_on_c, 9, 51, 111
5, 46229, Note_on_c, 9, 51, 0
5, 46229, Note_on_c, 9, 42, 0
5, 46260, Note_on_c, 9, 36, 111
5, 46260, Note_on_c, 9, 51, 111
5, 46260, Note_on_c, 9, 38, 111
5, 46289, Note_on_c, 9, 38, 0
5, 46289, Note_on_c, 9, 51, 0
5, 46289, Note_on_c, 9, 36, 0
5, 46320, Note_on_c, 9, 42, 99
5, 46320, Note_on_c, 9, 51, 111
5, 46349, Note_on_c, 9, 51, 0
5, 46349, Note_on_c, 9, 42, 0
5, 46380, Note_on_c, 9, 51, 111
5, 46409, Note_on_c, 9, 51, 0
5, 46440, Note_on_c, 9, 42, 99
5, 46440, Note_on_c, 9, 51, 111
5, 46469, Note_on_c, 9, 51, 0
5, 46469, Note_on_c, 9, 42, 0
5, 46500, Note_on_c, 9, 51, 111
5, 46529, Note_on_c, 9, 51, 0
5, 46560, Note_on_c, 9, 38, 111
5, 46560, Note_on_c, 9, 36, 111
5, 46560, Note_on_c, 9, 42, 99
5, 46560, Note_on_c, 9, 51, 111
5, 46589, Note_on_c, 9, 51, 0
5, 46589, Note_on_c, 9, 38, 0
5, 46589, Note_on_c, 9, 36, 0
5, 46589, Note_on_c, 9, 42, 0
5, 46620, Note_on_c, 9, 51, 111
5, 46649, Note_on_c, 9, 51, 0
5, 46680, Note_on_c, 9, 42, 99
5, 46680, Note_on_c, 9, 51, 111
5, 46709, Note_on_c, 9, 51, 0
5, 46709, Note_on_c, 9, 42, 0
5, 46740, Note_on_c, 9, 38, 111
5, 46740, Note_on_c, 9, 36, 111
5, 46740, Note_on_c, 9, 51, 111
5, 46769, Note_on_c, 9, 51, 0
5, 46769, Note_on_c, 9, 36, 0
5, 46769, Note_on_c, 9, 38, 0
5, 46800, Note_on_c, 9, 42, 99
5, 46800, Note_on_c, 9, 51, 111
5, 46829, Note_on_c, 9, 51, 0
5, 46829, Note_on_c, 9, 42, 0
5, 46860, Note_on_c, 9, 51, 111
5, 46889, Note_on_c, 9, 51, 0
5, 46920, Note_on_c, 9, 42, 99
5, 46920, Note_on_c, 9, 51, 111
5, 46949, Note_on_c, 9, 51, 0
5, 46949, Note_on_c, 9, 42, 0
5, 46980, Note_on_c, 9, 51, 111
5, 47009, Note_on_c, 9, 51, 0
5, 47040, Note_on_c, 9, 36, 111
5, 47040, Note_on_c, 9, 38, 111
5, 47040, Note_on_c, 9, 42, 99
5, 47040, Note_on_c, 9, 51, 111
5, 47069, Note_on_c, 9, 51, 0
5, 47069, Note_on_c, 9, 36, 0
5, 47069, Note_on_c, 9, 38, 0
5, 47069, Note_on_c, 9, 42, 0
5, 47100, Note_on_c, 9, 51, 111
5, 47129, Note_on_c, 9, 51, 0
5, 47160, Note_on_c, 9, 42, 99
5, 47160, Note_on_c, 9, 51, 111
5, 47189, Note_on_c, 9, 51, 0
5, 47189, Note_on_c, 9, 42, 0
5, 47220, Note_on_c, 9, 36, 127
5, 47220, Note_on_c, 9, 51, 111
5, 47220, Note_on_c, 9, 38, 123
5, 47249, Note_on_c, 9, 38, 0
5, 47249, Note_on_c, 9, 51, 0
5, 47249, Note_on_c, 9, 36, 0
5, 47280, Note_on_c, 9, 42, 99
5, 47280, Note_on_c, 9, 51, 111
5, 47309, Note_on_c, 9, 51, 0
5, 47309, Note_on_c, 9, 42, 0
5, 47340, Note_on_c, 9, 51, 111
5, 47369, Note_on_c, 9, 51, 0
5, 47400, Note_on_c, 9, 42, 99
5, 47400, Note_on_c, 9, 51, 111
5, 47429, Note_on_c, 9, 51, 0
5, 47429, Note_on_c, 9, 42, 0
5, 47460, Note_on_c, 9, 51, 111
5, 47489, Note_on_c, 9, 51, 0
5, 47520, Note_on_c, 9, 38, 111
5, 47520, Note_on_c, 9, 36, 111
5, 47520, Note_on_c, 9, 42, 99
5, 47520, Note_on_c, 9, 51, 111
5, 47549, Note_on_c, 9, 51, 0
5, 47549, Note_on_c, 9, 38, 0
5, 47549, Note_on_c, 9, 36, 0
5, 47549, Note_on_c, 9, 42, 0
5, 47580, Note_on_c, 9, 51, 111
5, 47609, Note_on_c, 9, 51, 0
5, 47640, Note_on_c, 9, 42, 99
5, 47640, Note_on_c, 9, 51, 111
5, 47669, Note_on_c, 9, 51, 0
5, 47669, Note_on_c, 9, 42, 0
5, 47700, Note_on_c, 9, 49, 114
5, 47700, Note_on_c, 9, 57, 114
5, 47700, Note_on_c, 9, 38, 111
5, 47700, Note_on_c, 9, 36, 111
5, 47729, Note_on_c, 9, 36, 0
5, 47729, Note_on_c, 9, 38, 0
5, 47819, Note_on_c, 9, 57, 0
5, 47819, Note_on_c, 9, 49, 0
5, 47819, End_track
0, 0, End_of_file
