0, 0, Header, 1, 5, 960
1, 0, Start_track
1, 0, Control_c, 0, 101, 0
1, 0, Control_c, 0, 100, 0
1, 0, Control_c, 0, 6, 12
1, 0, Control_c, 0, 38, 0
1, 0, Control_c, 1, 101, 0
1, 0, Control_c, 1, 100, 0
1, 0, Control_c, 1, 6, 12
1, 0, Control_c, 1, 38, 0
1, 0, Control_c, 2, 101, 0
1, 0, Control_c, 2, 100, 0
1, 0, Control_c, 2, 6, 12
1, 0, Control_c, 2, 38, 0
1, 0, Control_c, 3, 101, 0
1, 0, Control_c, 3, 100, 0
1, 0, Control_c, 3, 6, 12
1, 0, Control_c, 3, 38, 0
1, 0, Control_c, 4, 101, 0
1, 0, Control_c, 4, 100, 0
1, 0, Control_c, 4, 6, 12
1, 0, Control_c, 4, 38, 0
1, 0, Control_c, 5, 101, 0
1, 0, Control_c, 5, 100, 0
1, 0, Control_c, 5, 6, 12
1, 0, Control_c, 5, 38, 0
1, 0, Control_c, 6, 101, 0
1, 0, Control_c, 6, 100, 0
1, 0, Control_c, 6, 6, 12
1, 0, Control_c, 6, 38, 0
1, 0, Control_c, 7, 101, 0
1, 0, Control_c, 7, 100, 0
1, 0, Control_c, 7, 6, 12
1, 0, Control_c, 7, 38, 0
1, 0, Control_c, 8, 101, 0
1, 0, Control_c, 8, 100, 0
1, 0, Control_c, 8, 6, 12
1, 0, Control_c, 8, 38, 0
1, 0, Control_c, 9, 101, 0
1, 0, Control_c, 9, 100, 0
1, 0, Control_c, 9, 6, 12
1, 0, Control_c, 9, 38, 0
1, 0, Control_c, 10, 101, 0
1, 0, Control_c, 10, 100, 0
1, 0, Control_c, 10, 6, 12
1, 0, Control_c, 10, 38, 0
1, 0, Control_c, 11, 101, 0
1, 0, Control_c, 11, 100, 0
1, 0, Control_c, 11, 6, 12
1, 0, Control_c, 11, 38, 0
1, 0, Control_c, 12, 101, 0
1, 0, Control_c, 12, 100, 0
1, 0, Control_c, 12, 6, 12
1, 0, Control_c, 12, 38, 0
1, 0, Control_c, 13, 101, 0
1, 0, Control_c, 13, 100, 0
1, 0, Control_c, 13, 6, 12
1, 0, Control_c, 13, 38, 0
1, 0, Control_c, 14, 101, 0
1, 0, Control_c, 14, 100, 0
1, 0, Control_c, 14, 6, 12
1, 0, Control_c, 14, 38, 0
1, 0, Control_c, 15, 101, 0
1, 0, Control_c, 15, 100, 0
1, 0, Control_c, 15, 6, 12
1, 0, Control_c, 15, 38, 0
1, 0, Time_signature, 4, 2, 24, 8
1, 0, Tempo, 487804
1, 0, End_track
2, 0, Start_track
2, 0, Pitch_bend_c, 0, 8192
2, 0, Control_c, 0, 7, 87
2, 0, Control_c, 0, 10, 63
2, 0, Control_c, 0, 93, 0
2, 0, Control_c, 0, 91, 0
2, 0, Control_c, 0, 95, 0
2, 0, Control_c, 0, 92, 0
2, 0, Control_c, 0, 11, 127
2, 0, Program_c, 0, 65
2, 0, Control_c, 1, 7, 87
2, 0, Control_c, 1, 10, 63
2, 0, Control_c, 1, 93, 0
2, 0, Control_c, 1, 91, 0
2, 0, Control_c, 1, 95, 0
2, 0, Control_c, 1, 92, 0
2, 0, Control_c, 1, 11, 127
2, 0, Program_c, 1, 65
2, 960, Note_on_c, 0, 59, 95
2, 1440, Note_off_c, 0, 59, 95
2, 1440, Note_on_c, 0, 62, 95
2, 1920, Note_off_c, 0, 62, 95
2, 1920, Note_on_c, 0, 64, 95
2, 2400, Note_off_c, 0, 64, 95
2, 4320, Note_on_c, 0, 59, 95
2, 4800, Note_off_c, 0, 59, 95
2, 4800, Note_on_c, 0, 62, 95
2, 5160, Note_on_c, 1, 64, 95
2, 5280, Note_off_c, 0, 62, 95
2, 5280, Note_off_c, 1, 64, 95
2, 5280, Note_on_c, 1, 71, 95
2, 5440, Pitch_bend_c, 1, 8192
2, 5600, Pitch_bend_c, 1, 8320
2, 5760, Pitch_bend_c, 1, 8192
2, 5920, Pitch_bend_c, 1, 8320
2, 6080, Pitch_bend_c, 1, 8192
2, 6240, Pitch_bend_c, 1, 8320
2, 6240, Pitch_bend_c, 1, 8192
2, 6240, Note_off_c, 1, 71, 95
2, 6720, Note_on_c, 0, 69, 95
2, 7200, Note_off_c, 0, 69, 95
2, 7200, Note_on_c, 1, 67, 95
2, 7680, Note_off_c, 1, 67, 95
2, 8640, Note_on_c, 0, 59, 95
2, 9120, Note_off_c, 0, 59, 95
2, 9120, Note_on_c, 0, 62, 47
2, 9600, Note_off_c, 0, 62, 47
2, 9600, Note_on_c, 1, 64, 95
2, 10080, Note_off_c, 1, 64, 95
2, 12480, Note_on_c, 0, 63, 95
2, 12720, Note_off_c, 0, 63, 95
2, 12720, Note_on_c, 0, 64, 95
2, 12960, Note_off_c, 0, 64, 95
2, 13920, Note_on_c, 0, 64, 95
2, 14160, Note_off_c, 0, 64, 95
2, 14160, Note_on_c, 0, 67, 95
2, 14280, Note_off_c, 0, 67, 95
2, 15360, Note_on_c, 0, 67, 95
2, 15600, Note_off_c, 0, 67, 95
2, 15600, Note_on_c, 0, 69, 95
2, 15720, Note_off_c, 0, 69, 95
2, 16800, Note_on_c, 0, 69, 95
2, 17040, Note_off_c, 0, 69, 95
2, 17040, Note_on_c, 0, 71, 95
2, 17160, Note_off_c, 0, 71, 95
2, 18960, Note_on_c, 0, 70, 95
2, 19200, Note_off_c, 0, 70, 95
2, 19440, Note_on_c, 0, 70, 95
2, 19680, Note_off_c, 0, 70, 95
2, 19680, Note_on_c, 0, 69, 95
2, 19920, Note_off_c, 0, 69, 95
2, 19920, Note_on_c, 0, 69, 95
2, 20160, Note_off_c, 0, 69, 95
2, 20160, Note_on_c, 0, 67, 95
2, 20400, Note_off_c, 0, 67, 95
2, 20400, Note_on_c, 0, 67, 95
2, 20640, Note_off_c, 0, 67, 95
2, 20640, Note_on_c, 0, 64, 95
2, 20880, Note_off_c, 0, 64, 95
2, 21120, Note_on_c, 0, 67, 95
2, 21600, Note_off_c, 0, 67, 95
2, 21600, Note_on_c, 0, 69, 95
2, 21840, Note_off_c, 0, 69, 95
2, 24480, Note_on_c, 1, 57, 95
2, 24600, Pitch_bend_c, 1, 8448
2, 24720, Pitch_bend_c, 1, 8832
2, 24840, Pitch_bend_c, 1, 9216
2, 24960, Pitch_bend_c, 1, 9600
2, 24960, Pitch_bend_c, 1, 8192
2, 24960, Note_off_c, 1, 57, 95
2, 24960, Note_on_c, 0, 59, 95
2, 25680, Note_off_c, 0, 59, 95
2, 25680, Note_on_c, 0, 62, 95
2, 25920, Note_off_c, 0, 62, 95
2, 25920, Note_on_c, 0, 59, 95
2, 26160, Note_off_c, 0, 59, 95
2, 26160, Note_on_c, 0, 62, 95
2, 26400, Note_off_c, 0, 62, 95
2, 26400, Note_on_c, 0, 59, 95
2, 26640, Note_off_c, 0, 59, 95
2, 26640, Note_on_c, 0, 57, 95
2, 26880, Note_off_c, 0, 57, 95
2, 26880, Note_on_c, 0, 55, 95
2, 27120, Note_off_c, 0, 55, 95
2, 27120, Note_on_c, 0, 57, 95
2, 28560, Note_off_c, 0, 57, 95
2, 28560, Note_on_c, 0, 55, 95
2, 28800, Note_off_c, 0, 55, 95
2, 28800, Note_on_c, 0, 57, 95
2, 29040, Note_off_c, 0, 57, 95
2, 29040, Note_on_c, 0, 59, 95
2, 29280, Note_off_c, 0, 59, 95
2, 29280, Note_on_c, 0, 52, 95
2, 30240, Note_off_c, 0, 52, 95
2, 30240, Note_on_c, 0, 55, 95
2, 31200, Note_off_c, 0, 55, 95
2, 31200, Note_on_c, 0, 59, 95
2, 32160, Note_off_c, 0, 59, 95
2, 32160, Note_on_c, 1, 64, 95
2, 32640, Note_off_c, 1, 64, 95
2, 34240, Note_on_c, 0, 69, 95
2, 34560, Note_off_c, 0, 69, 95
2, 34560, Note_on_c, 0, 71, 95
2, 34880, Note_off_c, 0, 71, 95
2, 34880, Note_on_c, 0, 71, 95
2, 35200, Note_off_c, 0, 71, 95
2, 35200, Note_on_c, 0, 66, 95
2, 35520, Note_off_c, 0, 66, 95
2, 35520, Note_on_c, 1, 67, 95
2, 36000, Note_off_c, 1, 67, 95
2, 38720, Note_on_c, 0, 67, 95
2, 39040, Note_off_c, 0, 67, 95
2, 39040, Note_on_c, 0, 69, 95
2, 39200, Note_off_c, 0, 69, 95
2, 39360, Note_on_c, 0, 69, 95
2, 39680, Note_off_c, 0, 69, 95
2, 39680, Note_on_c, 0, 67, 95
2, 40000, Note_off_c, 0, 67, 95
2, 40000, Note_on_c, 1, 58, 95
2, 40160, Pitch_bend_c, 1, 8192
2, 40320, Pitch_bend_c, 1, 8192
2, 40320, Pitch_bend_c, 1, 8192
2, 40800, Note_off_c, 1, 58, 95
2, 43680, Note_on_c, 0, 65, 95
2, 43800, Note_off_c, 0, 65, 95
2, 43800, Note_on_c, 0, 67, 70
2, 43920, Note_off_c, 0, 67, 70
2, 43920, Note_on_c, 0, 68, 70
2, 44400, Note_off_c, 0, 68, 70
2, 44400, Note_on_c, 0, 68, 95
2, 44880, Note_off_c, 0, 68, 95
2, 44880, Note_on_c, 0, 63, 95
2, 45360, Note_off_c, 0, 63, 95
2, 45360, Note_on_c, 0, 58, 95
2, 46080, Note_off_c, 0, 58, 95
2, 46080, Note_on_c, 0, 57, 95
2, 47040, Note_off_c, 0, 57, 95
2, 47040, Note_on_c, 0, 57, 95
2, 47360, Note_off_c, 0, 57, 95
2, 47360, Note_on_c, 0, 55, 95
2, 47680, Note_off_c, 0, 55, 95
2, 47680, Note_on_c, 0, 57, 95
2, 48000, Note_off_c, 0, 57, 95
2, 48000, Note_on_c, 0, 59, 95
2, 48240, Note_off_c, 0, 59, 95
2, 48240, Note_on_c, 0, 55, 95
2, 48480, Note_off_c, 0, 55, 95
2, 48480, Note_on_c, 0, 57, 95
2, 48720, Note_off_c, 0, 57, 95
2, 48720, Note_on_c, 0, 52, 95
2, 49920, Note_off_c, 0, 52, 95
2, 49920, Note_on_c, 0, 52, 95
2, 50160, Note_off_c, 0, 52, 95
2, 50160, Note_on_c, 0, 51, 95
2, 50400, Note_off_c, 0, 51, 95
2, 50400, Note_on_c, 0, 52, 95
2, 51840, Note_off_c, 0, 52, 95
2, 51840, Note_on_c, 0, 55, 95
2, 52480, Note_off_c, 0, 55, 95
2, 52480, Note_on_c, 0, 51, 95
2, 53120, Note_off_c, 0, 51, 95
2, 53120, Note_on_c, 0, 52, 95
2, 53920, Note_off_c, 0, 52, 95
2, 53920, Note_on_c, 0, 55, 95
2, 54080, Note_off_c, 0, 55, 95
2, 54080, Note_on_c, 0, 52, 95
2, 54240, Note_off_c, 0, 52, 95
2, 54240, Note_on_c, 0, 53, 95
2, 54400, Note_off_c, 0, 53, 95
2, 54400, Note_on_c, 0, 57, 95
2, 54560, Note_off_c, 0, 57, 95
2, 54560, Note_on_c, 0, 55, 95
2, 54960, Note_off_c, 0, 55, 95
2, 54960, Note_on_c, 0, 57, 95
2, 55200, Note_off_c, 0, 57, 95
2, 55200, Note_on_c, 0, 59, 95
2, 55440, Note_off_c, 0, 59, 95
2, 55440, Note_on_c, 0, 63, 95
2, 55680, Note_off_c, 0, 63, 95
2, 57120, Note_on_c, 0, 64, 95
2, 57360, Note_off_c, 0, 64, 95
2, 57360, Note_on_c, 0, 63, 95
2, 57600, Note_off_c, 0, 63, 95
2, 57600, Note_on_c, 0, 64, 95
2, 58320, Note_off_c, 0, 64, 95
2, 58320, Note_on_c, 0, 66, 95
2, 58560, Note_off_c, 0, 66, 95
2, 58560, Note_on_c, 0, 64, 95
2, 58800, Note_off_c, 0, 64, 95
2, 58800, Note_on_c, 0, 66, 95
2, 59280, Note_off_c, 0, 66, 95
2, 59520, Note_on_c, 0, 67, 95
2, 59760, Note_off_c, 0, 67, 95
2, 59760, Note_on_c, 0, 66, 95
2, 60000, Note_off_c, 0, 66, 95
2, 60000, Note_on_c, 0, 67, 95
2, 60240, Note_off_c, 0, 67, 95
2, 60240, Note_on_c, 0, 69, 95
2, 60720, Note_off_c, 0, 69, 95
2, 60720, Note_on_c, 0, 68, 95
2, 60840, Note_off_c, 0, 68, 95
2, 60840, Note_on_c, 0, 67, 95
2, 60960, Note_off_c, 0, 67, 95
2, 60960, Note_on_c, 0, 66, 95
2, 61080, Note_off_c, 0, 66, 95
2, 61080, Note_on_c, 1, 65, 95
2, 61200, Pitch_bend_c, 1, 7552
2, 61200, Pitch_bend_c, 1, 8192
2, 61200, Note_off_c, 1, 65, 95
2, 61200, Note_on_c, 0, 64, 95
2, 61440, Note_off_c, 0, 64, 95
2, 61440, Note_on_c, 0, 66, 95
2, 61600, Note_off_c, 0, 66, 95
2, 61600, Note_on_c, 0, 62, 95
2, 61760, Note_off_c, 0, 62, 95
2, 61760, Note_on_c, 0, 59, 95
2, 61920, Note_off_c, 0, 59, 95
2, 61920, Note_on_c, 0, 64, 95
2, 62080, Note_off_c, 0, 64, 95
2, 62080, Note_on_c, 0, 61, 95
2, 62240, Note_off_c, 0, 61, 95
2, 62240, Note_on_c, 0, 56, 95
2, 62400, Note_off_c, 0, 56, 95
2, 62400, Note_on_c, 0, 53, 95
2, 62520, Note_off_c, 0, 53, 95
2, 62520, Note_on_c, 0, 50, 95
2, 62640, Note_off_c, 0, 50, 95
2, 62640, Note_on_c, 0, 48, 95
2, 62760, Note_off_c, 0, 48, 95
2, 62760, Note_on_c, 0, 47, 95
2, 62880, Note_off_c, 0, 47, 95
2, 64320, Note_on_c, 0, 47, 95
2, 64480, Note_off_c, 0, 47, 95
2, 64480, Note_on_c, 0, 50, 95
2, 64640, Note_off_c, 0, 50, 95
2, 64640, Note_on_c, 0, 52, 95
2, 64800, Note_off_c, 0, 52, 95
2, 64800, Note_on_c, 0, 57, 95
2, 64880, Note_off_c, 0, 57, 95
2, 64880, Note_on_c, 0, 58, 95
2, 64960, Note_off_c, 0, 58, 95
2, 64960, Note_on_c, 0, 62, 95
2, 65120, Note_off_c, 0, 62, 95
2, 65120, Note_on_c, 0, 66, 95
2, 65280, Note_off_c, 0, 66, 95
2, 65280, Note_on_c, 0, 69, 95
2, 65440, Note_off_c, 0, 69, 95
2, 65440, Note_on_c, 0, 73, 95
2, 65600, Note_off_c, 0, 73, 95
2, 65600, Note_on_c, 0, 71, 95
2, 65760, Note_off_c, 0, 71, 95
2, 65760, Note_on_c, 0, 69, 95
2, 65920, Note_off_c, 0, 69, 95
2, 65920, Note_on_c, 0, 66, 95
2, 66080, Note_off_c, 0, 66, 95
2, 66080, Note_on_c, 0, 62, 95
2, 66240, Note_off_c, 0, 62, 95
2, 66240, Note_on_c, 0, 64, 95
2, 66960, Note_off_c, 0, 64, 95
2, 66960, Note_on_c, 0, 62, 95
2, 67200, Note_off_c, 0, 62, 95
2, 67200, Note_on_c, 0, 64, 95
2, 67440, Note_off_c, 0, 64, 95
2, 67440, Note_on_c, 0, 62, 95
2, 67680, Note_off_c, 0, 62, 95
2, 67680, Note_on_c, 0, 58, 95
2, 67920, Note_off_c, 0, 58, 95
2, 67920, Note_on_c, 0, 57, 95
2, 68160, Note_off_c, 0, 57, 95
2, 68160, Note_on_c, 0, 55, 95
2, 68400, Note_off_c, 0, 55, 95
2, 68400, Note_on_c, 0, 52, 95
2, 68640, Note_off_c, 0, 52, 95
2, 68640, Note_on_c, 0, 50, 95
2, 68880, Note_off_c, 0, 50, 95
2, 68880, Note_on_c, 0, 52, 95
2, 69120, Note_off_c, 0, 52, 95
2, 69120, Note_on_c, 0, 55, 95
2, 69360, Note_off_c, 0, 55, 95
2, 69360, Note_on_c, 0, 57, 95
2, 69600, Note_off_c, 0, 57, 95
2, 69600, Note_on_c, 0, 59, 95
2, 69840, Note_off_c, 0, 59, 95
2, 69840, Note_on_c, 0, 55, 95
2, 70080, Note_off_c, 0, 55, 95
2, 70080, Note_on_c, 0, 57, 95
2, 70560, Note_off_c, 0, 57, 95
2, 71280, Note_on_c, 0, 57, 95
2, 71520, Note_off_c, 0, 57, 95
2, 71520, Note_on_c, 0, 54, 95
2, 71760, Note_off_c, 0, 54, 95
2, 71760, Note_on_c, 0, 59, 95
2, 72000, Note_off_c, 0, 59, 95
2, 72000, Note_on_c, 0, 58, 95
2, 72240, Note_off_c, 0, 58, 95
2, 72240, Note_on_c, 0, 57, 95
2, 72480, Note_off_c, 0, 57, 95
2, 72480, Note_on_c, 0, 56, 95
2, 72720, Note_off_c, 0, 56, 95
2, 72720, Note_on_c, 0, 55, 95
2, 72960, Note_off_c, 0, 55, 95
2, 72960, Note_on_c, 0, 54, 95
2, 73200, Note_off_c, 0, 54, 95
2, 73200, Note_on_c, 0, 53, 95
2, 73440, Note_off_c, 0, 53, 95
2, 73440, Note_on_c, 0, 52, 95
2, 73680, Note_off_c, 0, 52, 95
2, 73680, Note_on_c, 0, 55, 95
2, 73920, Note_off_c, 0, 55, 95
2, 73920, Note_on_c, 0, 51, 95
2, 74160, Note_off_c, 0, 51, 95
2, 74160, Note_on_c, 0, 49, 95
2, 74400, Note_off_c, 0, 49, 95
2, 74400, Note_on_c, 0, 51, 95
2, 74640, Note_off_c, 0, 51, 95
2, 74640, Note_on_c, 0, 54, 95
2, 74880, Note_off_c, 0, 54, 95
2, 74880, Note_on_c, 0, 57, 95
2, 75120, Note_off_c, 0, 57, 95
2, 75120, Note_on_c, 0, 54, 95
2, 75360, Note_off_c, 0, 54, 95
2, 75360, Note_on_c, 0, 55, 95
2, 75600, Note_off_c, 0, 55, 95
2, 75600, Note_on_c, 0, 58, 95
2, 75840, Note_off_c, 0, 58, 95
2, 75840, Note_on_c, 0, 59, 95
2, 76080, Note_off_c, 0, 59, 95
2, 76080, Note_on_c, 0, 62, 95
2, 76320, Note_off_c, 0, 62, 95
2, 76320, Note_on_c, 0, 61, 95
2, 76560, Note_off_c, 0, 61, 95
2, 76560, Note_on_c, 0, 68, 95
2, 76800, Note_off_c, 0, 68, 95
2, 76800, Note_on_c, 0, 65, 95
2, 77520, Note_off_c, 0, 65, 95
2, 77520, Note_on_c, 0, 60, 95
2, 77680, Note_off_c, 0, 60, 95
2, 77680, Note_on_c, 0, 65, 95
2, 77840, Note_off_c, 0, 65, 95
2, 77840, Note_on_c, 0, 62, 95
2, 78000, Note_off_c, 0, 62, 95
2, 78000, Note_on_c, 0, 58, 95
2, 78160, Note_off_c, 0, 58, 95
2, 78160, Note_on_c, 0, 55, 95
2, 78320, Note_off_c, 0, 55, 95
2, 78320, Note_on_c, 0, 60, 95
2, 78480, Note_off_c, 0, 60, 95
2, 78480, Note_on_c, 0, 57, 95
2, 78640, Note_off_c, 0, 57, 95
2, 78640, Note_on_c, 0, 54, 95
2, 78800, Note_off_c, 0, 54, 95
2, 78800, Note_on_c, 0, 55, 95
2, 78960, Note_off_c, 0, 55, 95
2, 78960, Note_on_c, 0, 61, 95
2, 79120, Note_off_c, 0, 61, 95
2, 79120, Note_on_c, 0, 56, 95
2, 79280, Note_off_c, 0, 56, 95
2, 79280, Note_on_c, 1, 52, 95
2, 79360, Pitch_bend_c, 1, 8192
2, 79360, Note_off_c, 1, 52, 95
2, 79360, Note_on_c, 0, 51, 95
2, 79440, Note_off_c, 0, 51, 95
2, 79440, Note_on_c, 0, 49, 95
2, 79560, Note_off_c, 0, 49, 95
2, 79560, Note_on_c, 0, 48, 95
2, 79680, Note_off_c, 0, 48, 95
2, 79680, Note_on_c, 0, 47, 95
2, 79800, Note_off_c, 0, 47, 95
2, 80640, Note_on_c, 0, 47, 95
2, 80760, Note_off_c, 0, 47, 95
2, 80760, Note_on_c, 0, 50, 95
2, 80880, Note_off_c, 0, 50, 95
2, 80880, Note_on_c, 0, 52, 95
2, 81000, Note_off_c, 0, 52, 95
2, 81000, Note_on_c, 0, 54, 95
2, 81120, Note_off_c, 0, 54, 95
2, 81120, Note_on_c, 0, 56, 95
2, 81240, Note_off_c, 0, 56, 95
2, 81240, Note_on_c, 0, 54, 95
2, 81360, Note_off_c, 0, 54, 95
2, 81360, Note_on_c, 0, 55, 95
2, 81480, Note_off_c, 0, 55, 95
2, 81480, Note_on_c, 0, 58, 95
2, 81600, Note_off_c, 0, 58, 95
2, 81600, Note_on_c, 0, 64, 95
2, 81720, Note_off_c, 0, 64, 95
2, 81720, Note_on_c, 0, 58, 95
2, 81840, Note_off_c, 0, 58, 95
2, 81840, Note_on_c, 0, 61, 95
2, 81960, Note_off_c, 0, 61, 95
2, 81960, Note_on_c, 0, 58, 95
2, 82080, Note_off_c, 0, 58, 95
2, 82080, Note_on_c, 0, 62, 95
2, 82200, Note_off_c, 0, 62, 95
2, 82200, Note_on_c, 0, 59, 95
2, 82320, Note_off_c, 0, 59, 95
2, 82320, Note_on_c, 0, 56, 95
2, 82440, Note_off_c, 0, 56, 95
2, 82440, Note_on_c, 0, 54, 95
2, 82560, Note_off_c, 0, 54, 95
2, 82560, Note_on_c, 0, 55, 95
2, 82680, Note_off_c, 0, 55, 95
2, 82680, Note_on_c, 1, 61, 95
2, 82800, Pitch_bend_c, 1, 8832
2, 82800, Pitch_bend_c, 1, 8192
2, 82800, Note_off_c, 1, 61, 95
2, 82800, Note_on_c, 0, 62, 95
2, 82920, Note_off_c, 0, 62, 95
2, 82920, Note_on_c, 0, 68, 95
2, 83040, Note_off_c, 0, 68, 95
2, 83040, Note_on_c, 0, 71, 95
2, 83160, Note_off_c, 0, 71, 95
2, 83160, Note_on_c, 0, 80, 95
2, 83280, Note_off_c, 0, 80, 95
2, 83280, Note_on_c, 0, 81, 95
2, 83520, Note_off_c, 0, 81, 95
2, 83520, Note_on_c, 0, 82, 95
2, 83760, Note_off_c, 0, 82, 95
2, 85920, Note_on_c, 0, 76, 95
2, 86160, Note_off_c, 0, 76, 95
2, 86160, Note_on_c, 0, 71, 95
2, 86400, Note_off_c, 0, 71, 95
2, 86400, Note_on_c, 0, 69, 70
2, 86640, Note_off_c, 0, 69, 70
2, 86640, Note_on_c, 0, 64, 95
2, 86880, Note_off_c, 0, 64, 95
2, 86880, Note_on_c, 0, 67, 95
2, 87120, Note_off_c, 0, 67, 95
2, 87120, Note_on_c, 0, 69, 95
2, 87360, Note_off_c, 0, 69, 95
2, 87360, Note_on_c, 0, 67, 95
2, 87680, Note_off_c, 0, 67, 95
2, 87680, Note_on_c, 0, 64, 95
2, 88000, Note_off_c, 0, 64, 95
2, 88000, Note_on_c, 0, 67, 95
2, 88320, Note_off_c, 0, 67, 95
2, 88320, Note_on_c, 0, 64, 47
2, 88640, Note_off_c, 0, 64, 47
2, 88640, Note_on_c, 0, 67, 95
2, 90720, Note_off_c, 0, 67, 95
2, 90720, Note_on_c, 0, 64, 95
2, 91040, Note_off_c, 0, 64, 95
2, 91040, Note_on_c, 0, 67, 95
2, 91360, Note_off_c, 0, 67, 95
2, 91360, Note_on_c, 0, 64, 95
2, 91680, Note_off_c, 0, 64, 95
2, 91680, Note_on_c, 0, 67, 95
2, 91920, Note_off_c, 0, 67, 95
2, 91920, Note_on_c, 0, 69, 95
2, 92160, Note_off_c, 0, 69, 95
2, 92400, Note_on_c, 0, 71, 95
2, 92640, Note_off_c, 0, 71, 95
2, 92640, Note_on_c, 0, 67, 95
2, 92880, Note_off_c, 0, 67, 95
2, 92880, Note_on_c, 0, 69, 95
2, 93360, Note_off_c, 0, 69, 95
2, 94080, Note_on_c, 0, 69, 95
2, 94200, Note_off_c, 0, 69, 95
2, 94200, Note_on_c, 0, 71, 95
2, 94320, Note_off_c, 0, 71, 95
2, 94320, Note_on_c, 0, 71, 95
2, 94440, Note_off_c, 0, 71, 95
2, 94440, Note_on_c, 0, 70, 95
2, 94560, Note_off_c, 0, 70, 95
2, 94560, Note_on_c, 0, 69, 95
2, 94680, Note_off_c, 0, 69, 95
2, 94680, Note_on_c, 1, 68, 95
2, 94800, Pitch_bend_c, 1, 7552
2, 94800, Pitch_bend_c, 1, 8192
2, 94800, Note_off_c, 1, 68, 95
2, 94800, Note_on_c, 0, 67, 95
2, 94920, Note_off_c, 0, 67, 95
2, 94920, Note_on_c, 0, 66, 95
2, 95040, Note_off_c, 0, 66, 95
2, 95040, Note_on_c, 0, 67, 95
2, 95160, Note_off_c, 0, 67, 95
2, 95160, Note_on_c, 0, 65, 95
2, 95280, Note_off_c, 0, 65, 95
2, 95280, Note_on_c, 0, 61, 95
2, 95400, Note_off_c, 0, 61, 95
2, 95400, Note_on_c, 0, 60, 95
2, 95520, Note_off_c, 0, 60, 95
2, 95520, Note_on_c, 0, 59, 95
2, 95640, Note_off_c, 0, 59, 95
2, 95640, Note_on_c, 0, 58, 95
2, 95760, Note_off_c, 0, 58, 95
2, 95760, Note_on_c, 0, 63, 95
2, 95880, Note_off_c, 0, 63, 95
2, 95880, Note_on_c, 0, 60, 95
2, 96000, Note_off_c, 0, 60, 95
2, 96000, Note_on_c, 0, 56, 95
2, 96120, Note_off_c, 0, 56, 95
2, 96120, Note_on_c, 0, 54, 95
2, 96240, Note_off_c, 0, 54, 95
2, 96240, Note_on_c, 0, 55, 95
2, 96360, Note_off_c, 0, 55, 95
2, 96360, Note_on_c, 0, 63, 95
2, 96480, Note_off_c, 0, 63, 95
2, 96480, Note_on_c, 0, 60, 95
2, 96600, Note_off_c, 0, 60, 95
2, 96600, Note_on_c, 0, 56, 95
2, 96720, Note_off_c, 0, 56, 95
2, 96720, Note_on_c, 0, 54, 95
2, 96840, Note_off_c, 0, 54, 95
2, 96840, Note_on_c, 0, 49, 95
2, 96960, Note_off_c, 0, 49, 95
2, 96960, Note_on_c, 0, 51, 95
2, 97080, Note_off_c, 0, 51, 95
2, 97080, Note_on_c, 0, 54, 95
2, 97200, Note_off_c, 0, 54, 95
2, 97200, Note_on_c, 0, 56, 95
2, 97320, Note_off_c, 0, 56, 95
2, 97320, Note_on_c, 0, 54, 95
2, 97560, Note_off_c, 0, 54, 95
2, 97560, Note_on_c, 0, 55, 95
2, 97680, Note_off_c, 0, 55, 95
2, 97680, Note_on_c, 0, 58, 95
2, 97800, Note_off_c, 0, 58, 95
2, 97800, Note_on_c, 0, 62, 95
2, 97860, Note_off_c, 0, 62, 95
2, 97860, Note_on_c, 0, 65, 95
2, 97920, Note_off_c, 0, 65, 95
2, 97920, Note_on_c, 0, 64, 95
2, 98040, Note_off_c, 0, 64, 95
2, 98040, Note_on_c, 0, 61, 95
2, 98160, Note_off_c, 0, 61, 95
2, 98160, Note_on_c, 0, 58, 95
2, 98280, Note_off_c, 0, 58, 95
2, 98280, Note_on_c, 0, 63, 95
2, 98400, Note_off_c, 0, 63, 95
2, 98400, Note_on_c, 0, 60, 95
2, 98520, Note_off_c, 0, 60, 95
2, 98520, Note_on_c, 0, 57, 95
2, 98640, Note_off_c, 0, 57, 95
2, 98640, Note_on_c, 0, 54, 95
2, 98760, Note_off_c, 0, 54, 95
2, 98760, Note_on_c, 0, 55, 95
2, 99000, Note_off_c, 0, 55, 95
2, 99000, Note_on_c, 0, 61, 95
2, 99120, Note_off_c, 0, 61, 95
2, 99120, Note_on_c, 0, 63, 95
2, 99240, Note_off_c, 0, 63, 95
2, 99240, Note_on_c, 0, 67, 95
2, 99360, Note_off_c, 0, 67, 95
2, 99360, Note_on_c, 0, 69, 95
2, 99480, Note_off_c, 0, 69, 95
2, 99480, Note_on_c, 0, 73, 95
2, 99540, Note_off_c, 0, 73, 95
2, 99540, Note_on_c, 0, 72, 95
2, 99600, Note_off_c, 0, 72, 95
2, 99600, Note_on_c, 0, 71, 95
2, 99660, Note_off_c, 0, 71, 95
2, 99660, Note_on_c, 0, 69, 95
2, 99720, Note_off_c, 0, 69, 95
2, 99720, Note_on_c, 0, 67, 95
2, 99780, Note_off_c, 0, 67, 95
2, 99780, Note_on_c, 0, 64, 95
2, 99960, Note_off_c, 0, 64, 95
2, 99960, Note_on_c, 0, 61, 95
2, 100080, Note_off_c, 0, 61, 95
2, 100080, Note_on_c, 0, 58, 95
2, 100200, Note_off_c, 0, 58, 95
2, 100200, Note_on_c, 0, 63, 95
2, 100320, Note_off_c, 0, 63, 95
2, 100320, Note_on_c, 0, 60, 95
2, 100560, Note_off_c, 0, 60, 95
2, 100560, Note_on_c, 0, 53, 95
2, 100680, Note_off_c, 0, 53, 95
2, 100680, Note_on_c, 0, 51, 95
2, 100800, Note_off_c, 0, 51, 95
2, 100800, Note_on_c, 0, 50, 95
2, 101040, Note_off_c, 0, 50, 95
2, 101040, Note_on_c, 0, 54, 95
2, 101160, Note_off_c, 0, 54, 95
2, 101160, Note_on_c, 0, 56, 95
2, 101280, Note_off_c, 0, 56, 95
2, 101280, Note_on_c, 0, 58, 95
2, 101400, Note_off_c, 0, 58, 95
2, 101400, Note_on_c, 0, 60, 95
2, 101520, Note_off_c, 0, 60, 95
2, 101520, Note_on_c, 0, 63, 95
2, 101640, Note_off_c, 0, 63, 95
2, 101640, Note_on_c, 0, 75, 95
2, 101700, Note_off_c, 0, 75, 95
2, 101700, Note_on_c, 0, 76, 95
2, 101760, Note_off_c, 0, 76, 95
2, 101760, Note_on_c, 0, 77, 95
2, 101820, Note_off_c, 0, 77, 95
2, 101820, Note_on_c, 0, 78, 95
2, 101880, Note_off_c, 0, 78, 95
2, 101880, Note_on_c, 0, 79, 95
2, 101940, Note_off_c, 0, 79, 95
2, 101940, Note_on_c, 0, 80, 95
2, 102000, Note_off_c, 0, 80, 95
2, 102000, Note_on_c, 0, 81, 95
2, 102060, Note_off_c, 0, 81, 95
2, 102060, Note_on_c, 0, 82, 95
2, 102120, Note_off_c, 0, 82, 95
2, 102120, Note_on_c, 0, 83, 95
2, 102180, Note_off_c, 0, 83, 95
2, 102180, Note_on_c, 0, 84, 95
2, 102420, Note_off_c, 0, 84, 95
2, 102660, Note_on_c, 0, 84, 95
2, 102720, Note_off_c, 0, 84, 95
2, 102720, Note_on_c, 0, 83, 95
2, 102780, Note_off_c, 0, 83, 95
2, 102780, Note_on_c, 0, 81, 95
2, 102840, Note_off_c, 0, 81, 95
2, 102840, Note_on_c, 0, 80, 95
2, 102900, Note_off_c, 0, 80, 95
2, 102900, Note_on_c, 0, 79, 95
2, 102960, Note_off_c, 0, 79, 95
2, 102960, Note_on_c, 0, 76, 95
2, 103020, Note_off_c, 0, 76, 95
2, 103020, Note_on_c, 0, 76, 95
2, 103080, Note_off_c, 0, 76, 95
2, 103080, Note_on_c, 0, 76, 95
2, 103140, Note_off_c, 0, 76, 95
2, 103140, Note_on_c, 0, 76, 95
2, 103200, Note_off_c, 0, 76, 95
2, 103200, Note_on_c, 0, 76, 95
2, 103260, Note_off_c, 0, 76, 95
2, 103260, Note_on_c, 0, 80, 95
2, 103320, Note_off_c, 0, 80, 95
2, 103320, Note_on_c, 0, 81, 95
2, 103380, Note_off_c, 0, 81, 95
2, 103380, Note_on_c, 0, 81, 95
2, 103440, Note_off_c, 0, 81, 95
2, 103440, Note_on_c, 0, 81, 95
2, 103500, Note_off_c, 0, 81, 95
2, 103500, Note_on_c, 0, 76, 95
2, 103560, Note_off_c, 0, 76, 95
2, 103560, Note_on_c, 0, 76, 95
2, 103620, Note_off_c, 0, 76, 95
2, 103620, Note_on_c, 0, 76, 95
2, 103680, Note_off_c, 0, 76, 95
2, 103680, Note_on_c, 0, 81, 95
2, 103800, Note_off_c, 0, 81, 95
2, 103800, Note_on_c, 0, 81, 95
2, 103920, Note_off_c, 0, 81, 95
2, 103920, Note_on_c, 0, 81, 95
2, 104040, Note_off_c, 0, 81, 95
2, 104040, Note_on_c, 0, 81, 95
2, 104160, Note_off_c, 0, 81, 95
2, 104160, Note_on_c, 0, 76, 95
2, 104280, Note_off_c, 0, 76, 95
2, 104280, Note_on_c, 0, 76, 95
2, 104400, Note_off_c, 0, 76, 95
2, 104400, Note_on_c, 0, 81, 95
2, 104520, Note_off_c, 0, 81, 95
2, 104520, Note_on_c, 0, 81, 95
2, 104640, Note_off_c, 0, 81, 95
2, 104640, Note_on_c, 0, 81, 95
2, 104760, Note_off_c, 0, 81, 95
2, 104760, Note_on_c, 0, 81, 95
2, 104880, Note_off_c, 0, 81, 95
2, 104880, Note_on_c, 0, 81, 95
2, 105000, Note_off_c, 0, 81, 95
2, 105000, Note_on_c, 0, 76, 95
2, 105120, Note_off_c, 0, 76, 95
2, 105120, Note_on_c, 0, 76, 95
2, 105240, Note_off_c, 0, 76, 95
2, 105240, Note_on_c, 0, 76, 95
2, 105360, Note_off_c, 0, 76, 95
2, 105360, Note_on_c, 0, 81, 95
2, 105480, Note_off_c, 0, 81, 95
2, 105480, Note_on_c, 0, 81, 95
2, 105600, Note_off_c, 0, 81, 95
2, 105600, Note_on_c, 0, 81, 95
2, 107040, Note_off_c, 0, 81, 95
2, 107040, Note_on_c, 0, 79, 95
2, 107400, Note_on_c, 1, 74, 95
2, 107520, Note_off_c, 0, 79, 95
2, 107520, Note_off_c, 1, 74, 95
2, 107520, Note_on_c, 1, 76, 95
2, 108480, Note_off_c, 1, 76, 95
2, 108480, Note_on_c, 0, 70, 95
2, 108720, Note_off_c, 0, 70, 95
2, 108720, Note_on_c, 0, 69, 95
2, 108960, Note_off_c, 0, 69, 95
2, 108960, Note_on_c, 0, 67, 95
2, 109200, Note_off_c, 0, 67, 95
2, 109920, Note_on_c, 0, 76, 95
2, 110080, Note_off_c, 0, 76, 95
2, 110080, Note_on_c, 0, 79, 95
2, 110240, Note_off_c, 0, 79, 95
2, 110240, Note_on_c, 0, 70, 95
2, 110400, Note_off_c, 0, 70, 95
2, 110400, Note_on_c, 0, 69, 95
2, 110640, Note_off_c, 0, 69, 95
2, 110880, Note_on_c, 0, 76, 95
2, 111120, Note_off_c, 0, 76, 95
2, 111360, Note_on_c, 0, 76, 95
2, 111600, Note_off_c, 0, 76, 95
2, 111600, Note_on_c, 0, 70, 95
2, 111840, Note_off_c, 0, 70, 95
2, 111840, Note_on_c, 0, 69, 95
2, 112080, Note_off_c, 0, 69, 95
2, 112320, Note_on_c, 0, 76, 95
2, 112560, Note_off_c, 0, 76, 95
2, 112560, Note_on_c, 0, 70, 95
2, 112800, Note_off_c, 0, 70, 95
2, 112800, Note_on_c, 0, 69, 95
2, 113040, Note_off_c, 0, 69, 95
2, 113280, Note_on_c, 0, 76, 95
2, 113520, Note_off_c, 0, 76, 95
2, 113520, Note_on_c, 0, 70, 95
2, 113760, Note_off_c, 0, 70, 95
2, 113760, Note_on_c, 0, 69, 95
2, 114000, Note_off_c, 0, 69, 95
2, 114240, Note_on_c, 0, 71, 95
2, 114480, Note_off_c, 0, 71, 95
2, 114480, Note_on_c, 0, 69, 95
2, 114720, Note_off_c, 0, 69, 95
2, 114720, Note_on_c, 0, 65, 95
2, 115200, Note_off_c, 0, 65, 95
2, 115200, Note_on_c, 0, 67, 95
2, 115440, Note_off_c, 0, 67, 95
2, 115440, Note_on_c, 0, 65, 95
2, 115680, Note_off_c, 0, 65, 95
2, 115680, Note_on_c, 0, 67, 95
2, 115920, Note_off_c, 0, 67, 95
2, 115920, Note_on_c, 0, 69, 95
2, 116160, Note_off_c, 0, 69, 95
2, 116160, Note_on_c, 0, 65, 95
2, 116400, Note_off_c, 0, 65, 95
2, 116400, Note_on_c, 0, 61, 95
2, 116640, Note_off_c, 0, 61, 95
2, 116640, Note_on_c, 0, 55, 95
2, 116880, Note_off_c, 0, 55, 95
2, 116880, Note_on_c, 0, 56, 95
2, 117120, Note_off_c, 0, 56, 95
2, 117120, Note_on_c, 0, 65, 95
2, 117600, Note_off_c, 0, 65, 95
2, 117600, Note_on_c, 0, 61, 47
2, 117840, Note_off_c, 0, 61, 47
2, 117840, Note_on_c, 0, 57, 47
2, 118080, Note_off_c, 0, 57, 47
2, 118080, Note_on_c, 0, 55, 79
2, 118560, Note_off_c, 0, 55, 79
2, 119280, Note_on_c, 0, 54, 95
2, 119520, Note_off_c, 0, 54, 95
2, 119520, Note_on_c, 0, 50, 95
2, 119760, Note_off_c, 0, 50, 95
2, 119760, Note_on_c, 0, 52, 95
2, 120000, Note_off_c, 0, 52, 95
2, 120000, Note_on_c, 0, 54, 95
2, 120240, Note_off_c, 0, 54, 95
2, 120240, Note_on_c, 0, 57, 95
2, 120480, Note_off_c, 0, 57, 95
2, 120480, Note_on_c, 0, 59, 95
2, 120720, Note_off_c, 0, 59, 95
2, 120720, Note_on_c, 0, 63, 95
2, 120960, Note_off_c, 0, 63, 95
2, 120960, Note_on_c, 0, 59, 95
2, 121200, Note_off_c, 0, 59, 95
2, 121200, Note_on_c, 0, 61, 95
2, 121440, Note_off_c, 0, 61, 95
2, 121440, Note_on_c, 0, 63, 95
2, 121680, Note_off_c, 0, 63, 95
2, 121680, Note_on_c, 0, 65, 95
2, 121920, Note_off_c, 0, 65, 95
2, 121920, Note_on_c, 0, 67, 95
2, 122160, Note_off_c, 0, 67, 95
2, 122160, Note_on_c, 0, 69, 95
2, 122400, Note_off_c, 0, 69, 95
2, 122400, Note_on_c, 0, 71, 95
2, 122640, Note_off_c, 0, 71, 95
2, 122640, Note_on_c, 0, 67, 95
2, 122880, Note_off_c, 0, 67, 95
2, 122880, Note_on_c, 0, 69, 95
2, 123120, Note_off_c, 0, 69, 95
2, 123120, Note_on_c, 0, 69, 95
2, 123200, Note_off_c, 0, 69, 95
2, 123200, Note_on_c, 0, 68, 95
2, 123280, Note_off_c, 0, 68, 95
2, 123280, Note_on_c, 0, 67, 95
2, 123360, Note_off_c, 0, 67, 95
2, 123360, Note_on_c, 0, 64, 95
2, 123680, Note_off_c, 0, 64, 95
2, 123680, Note_on_c, 0, 64, 95
2, 124000, Note_off_c, 0, 64, 95
2, 124000, Note_on_c, 0, 67, 95
2, 124320, Note_off_c, 0, 67, 95
2, 124320, Note_on_c, 0, 67, 95
2, 124640, Note_off_c, 0, 67, 95
2, 124640, Note_on_c, 0, 69, 95
2, 124960, Note_off_c, 0, 69, 95
2, 124960, Note_on_c, 0, 69, 95
2, 125280, Note_off_c, 0, 69, 95
2, 125280, Note_on_c, 0, 71, 95
2, 125600, Note_off_c, 0, 71, 95
2, 125600, Note_on_c, 1, 71, 95
2, 125920, Note_off_c, 1, 71, 95
2, 126480, Note_on_c, 0, 71, 95
2, 126720, Note_off_c, 0, 71, 95
2, 126720, Note_on_c, 0, 72, 95
2, 126960, Note_off_c, 0, 72, 95
2, 127200, Note_on_c, 0, 72, 95
2, 127440, Note_off_c, 0, 72, 95
2, 127440, Note_on_c, 0, 74, 95
2, 127920, Note_off_c, 0, 74, 95
2, 127920, Note_on_c, 0, 74, 95
2, 128160, Note_off_c, 0, 74, 95
2, 128160, Note_on_c, 0, 76, 95
2, 128640, Note_off_c, 0, 76, 95
2, 128640, Note_on_c, 0, 76, 95
2, 128880, Note_off_c, 0, 76, 95
2, 128880, Note_on_c, 0, 78, 95
2, 129360, Note_off_c, 0, 78, 95
2, 129360, Note_on_c, 0, 79, 95
2, 129600, Note_off_c, 0, 79, 95
2, 129840, Note_on_c, 0, 79, 95
2, 130080, Note_off_c, 0, 79, 95
2, 130080, Note_on_c, 0, 81, 95
2, 130320, Note_off_c, 0, 81, 95
2, 131040, Note_on_c, 0, 81, 95
2, 131280, Note_off_c, 0, 81, 95
2, 131280, Note_on_c, 0, 83, 95
2, 131520, Note_off_c, 0, 83, 95
2, 131760, Note_on_c, 0, 83, 95
2, 132000, Note_off_c, 0, 83, 95
2, 132000, Note_on_c, 0, 85, 95
2, 132240, Note_off_c, 0, 85, 95
2, 132240, Note_on_c, 0, 86, 95
2, 132560, Note_off_c, 0, 86, 95
2, 132560, Note_on_c, 0, 86, 95
2, 133680, Note_off_c, 0, 86, 95
2, 133920, Note_on_c, 0, 82, 95
2, 134160, Note_off_c, 0, 82, 95
2, 134160, Note_on_c, 0, 81, 95
2, 134400, Note_off_c, 0, 81, 95
2, 134400, Note_on_c, 0, 79, 95
2, 134760, Note_off_c, 0, 79, 95
2, 134760, Note_on_c, 0, 76, 95
2, 135000, Note_off_c, 0, 76, 95
2, 135000, Note_on_c, 0, 74, 95
2, 135240, Note_off_c, 0, 74, 95
2, 135240, Note_on_c, 0, 71, 95
2, 135480, Note_off_c, 0, 71, 95
2, 135480, Note_on_c, 0, 69, 95
2, 135720, Note_off_c, 0, 69, 95
2, 135720, Note_on_c, 0, 69, 95
2, 135960, Note_off_c, 0, 69, 95
2, 135960, Note_on_c, 0, 71, 95
2, 136200, Note_off_c, 0, 71, 95
2, 136200, Note_on_c, 0, 71, 95
2, 136320, Note_off_c, 0, 71, 95
2, 136320, Note_on_c, 0, 69, 95
2, 136560, Note_off_c, 0, 69, 95
2, 136560, Note_on_c, 0, 64, 95
2, 136920, Note_off_c, 0, 64, 95
2, 136920, Note_on_c, 0, 69, 95
2, 137040, Note_off_c, 0, 69, 95
2, 137040, Note_on_c, 0, 71, 95
2, 137160, Note_off_c, 0, 71, 95
2, 137160, Note_on_c, 0, 67, 95
2, 137520, Note_off_c, 0, 67, 95
2, 137520, Note_on_c, 0, 64, 95
2, 137760, Note_off_c, 0, 64, 95
2, 137760, Note_on_c, 0, 62, 95
2, 138000, Note_off_c, 0, 62, 95
2, 138000, Note_on_c, 0, 58, 95
2, 138240, Note_off_c, 0, 58, 95
2, 138240, Note_on_c, 0, 57, 95
2, 142080, Note_off_c, 0, 57, 95
2, 142080, End_track
3, 0, Start_track
3, 0, Pitch_bend_c, 2, 8192
3, 0, Control_c, 2, 7, 87
3, 0, Control_c, 2, 10, 0
3, 0, Control_c, 2, 93, 0
3, 0, Control_c, 2, 91, 0
3, 0, Control_c, 2, 95, 0
3, 0, Control_c, 2, 92, 0
3, 0, Control_c, 2, 11, 127
3, 0, Program_c, 2, 26
3, 0, Control_c, 3, 7, 87
3, 0, Control_c, 3, 10, 0
3, 0, Control_c, 3, 93, 0
3, 0, Control_c, 3, 91, 0
3, 0, Control_c, 3, 95, 0
3, 0, Control_c, 3, 92, 0
3, 0, Control_c, 3, 11, 127
3, 0, Program_c, 3, 26
3, 0, Note_on_c, 2, 71, 79
3, 0, Note_on_c, 2, 66, 79
3, 0, Note_on_c, 2, 62, 79
3, 960, Note_off_c, 2, 71, 79
3, 960, Note_off_c, 2, 66, 79
3, 960, Note_off_c, 2, 62, 79
3, 1440, Note_on_c, 2, 71, 95
3, 1440, Note_on_c, 2, 66, 95
3, 1440, Note_on_c, 2, 62, 95
3, 1680, Note_off_c, 2, 71, 95
3, 1680, Note_off_c, 2, 66, 95
3, 1680, Note_off_c, 2, 62, 95
3, 2880, Note_on_c, 2, 71, 95
3, 2880, Note_on_c, 2, 66, 95
3, 2880, Note_on_c, 2, 62, 95
3, 3600, Note_off_c, 2, 71, 95
3, 3600, Note_off_c, 2, 66, 95
3, 3600, Note_off_c, 2, 62, 95
3, 3840, Note_on_c, 2, 71, 95
3, 3840, Note_on_c, 2, 66, 95
3, 3840, Note_on_c, 2, 62, 95
3, 4800, Note_off_c, 2, 71, 95
3, 4800, Note_off_c, 2, 66, 95
3, 4800, Note_off_c, 2, 62, 95
3, 4800, Note_on_c, 2, 71, 79
3, 4800, Note_on_c, 2, 66, 79
3, 4800, Note_on_c, 2, 62, 79
3, 5760, Note_off_c, 2, 71, 79
3, 5760, Note_off_c, 2, 66, 79
3, 5760, Note_off_c, 2, 62, 79
3, 5760, Note_on_c, 2, 71, 63
3, 5760, Note_on_c, 2, 66, 63
3, 5760, Note_on_c, 2, 62, 63
3, 6720, Note_off_c, 2, 71, 63
3, 6720, Note_off_c, 2, 66, 63
3, 6720, Note_off_c, 2, 62, 63
3, 6720, Note_on_c, 2, 71, 47
3, 6720, Note_on_c, 2, 66, 47
3, 6720, Note_on_c, 2, 62, 47
3, 7680, Note_off_c, 2, 71, 47
3, 7680, Note_off_c, 2, 66, 47
3, 7680, Note_off_c, 2, 62, 47
3, 7680, Note_on_c, 2, 69, 79
3, 7680, Note_on_c, 2, 64, 79
3, 7680, Note_on_c, 2, 60, 79
3, 8640, Note_off_c, 2, 69, 79
3, 8640, Note_off_c, 2, 64, 79
3, 8640, Note_off_c, 2, 60, 79
3, 9120, Note_on_c, 2, 69, 95
3, 9120, Note_on_c, 2, 64, 95
3, 9120, Note_on_c, 2, 60, 95
3, 9360, Note_off_c, 2, 69, 95
3, 9360, Note_off_c, 2, 64, 95
3, 9360, Note_off_c, 2, 60, 95
3, 10560, Note_on_c, 2, 69, 95
3, 10560, Note_on_c, 2, 64, 95
3, 10560, Note_on_c, 2, 60, 95
3, 11280, Note_off_c, 2, 69, 95
3, 11280, Note_off_c, 2, 64, 95
3, 11280, Note_off_c, 2, 60, 95
3, 11520, Note_on_c, 2, 69, 95
3, 11520, Note_on_c, 2, 64, 95
3, 11520, Note_on_c, 2, 60, 95
3, 12480, Note_off_c, 2, 69, 95
3, 12480, Note_off_c, 2, 64, 95
3, 12480, Note_off_c, 2, 60, 95
3, 12480, Note_on_c, 2, 69, 79
3, 12480, Note_on_c, 2, 64, 79
3, 12480, Note_on_c, 2, 60, 79
3, 13440, Note_off_c, 2, 69, 79
3, 13440, Note_off_c, 2, 64, 79
3, 13440, Note_off_c, 2, 60, 79
3, 13440, Note_on_c, 2, 69, 63
3, 13440, Note_on_c, 2, 64, 63
3, 13440, Note_on_c, 2, 60, 63
3, 14400, Note_off_c, 2, 69, 63
3, 14400, Note_off_c, 2, 64, 63
3, 14400, Note_off_c, 2, 60, 63
3, 14400, Note_on_c, 2, 69, 47
3, 14400, Note_on_c, 2, 64, 47
3, 14400, Note_on_c, 2, 60, 47
3, 15360, Note_off_c, 2, 69, 47
3, 15360, Note_off_c, 2, 64, 47
3, 15360, Note_off_c, 2, 60, 47
3, 15360, Note_on_c, 2, 71, 79
3, 15360, Note_on_c, 2, 66, 79
3, 15360, Note_on_c, 2, 62, 79
3, 16320, Note_off_c, 2, 71, 79
3, 16320, Note_off_c, 2, 66, 79
3, 16320, Note_off_c, 2, 62, 79
3, 16800, Note_on_c, 2, 71, 95
3, 16800, Note_on_c, 2, 66, 95
3, 16800, Note_on_c, 2, 62, 95
3, 17040, Note_off_c, 2, 71, 95
3, 17040, Note_off_c, 2, 66, 95
3, 17040, Note_off_c, 2, 62, 95
3, 18240, Note_on_c, 2, 71, 95
3, 18240, Note_on_c, 2, 66, 95
3, 18240, Note_on_c, 2, 62, 95
3, 18960, Note_off_c, 2, 71, 95
3, 18960, Note_off_c, 2, 66, 95
3, 18960, Note_off_c, 2, 62, 95
3, 19200, Note_on_c, 2, 71, 95
3, 19200, Note_on_c, 2, 66, 95
3, 19200, Note_on_c, 2, 62, 95
3, 20160, Note_off_c, 2, 71, 95
3, 20160, Note_off_c, 2, 66, 95
3, 20160, Note_off_c, 2, 62, 95
3, 20160, Note_on_c, 2, 71, 79
3, 20160, Note_on_c, 2, 66, 79
3, 20160, Note_on_c, 2, 62, 79
3, 21120, Note_off_c, 2, 71, 79
3, 21120, Note_off_c, 2, 66, 79
3, 21120, Note_off_c, 2, 62, 79
3, 21120, Note_on_c, 2, 71, 63
3, 21120, Note_on_c, 2, 66, 63
3, 21120, Note_on_c, 2, 62, 63
3, 22080, Note_off_c, 2, 71, 63
3, 22080, Note_off_c, 2, 66, 63
3, 22080, Note_off_c, 2, 62, 63
3, 22080, Note_on_c, 2, 71, 47
3, 22080, Note_on_c, 2, 66, 47
3, 22080, Note_on_c, 2, 62, 47
3, 23040, Note_off_c, 2, 71, 47
3, 23040, Note_off_c, 2, 66, 47
3, 23040, Note_off_c, 2, 62, 47
3, 23040, Note_on_c, 2, 69, 79
3, 23040, Note_on_c, 2, 64, 79
3, 23040, Note_on_c, 2, 60, 79
3, 24000, Note_off_c, 2, 69, 79
3, 24000, Note_off_c, 2, 64, 79
3, 24000, Note_off_c, 2, 60, 79
3, 24480, Note_on_c, 2, 69, 95
3, 24480, Note_on_c, 2, 64, 95
3, 24480, Note_on_c, 2, 60, 95
3, 24720, Note_off_c, 2, 69, 95
3, 24720, Note_off_c, 2, 64, 95
3, 24720, Note_off_c, 2, 60, 95
3, 25920, Note_on_c, 2, 69, 95
3, 25920, Note_on_c, 2, 64, 95
3, 25920, Note_on_c, 2, 60, 95
3, 26640, Note_off_c, 2, 69, 95
3, 26640, Note_off_c, 2, 64, 95
3, 26640, Note_off_c, 2, 60, 95
3, 26880, Note_on_c, 2, 69, 95
3, 26880, Note_on_c, 2, 64, 95
3, 26880, Note_on_c, 2, 60, 95
3, 27840, Note_off_c, 2, 69, 95
3, 27840, Note_off_c, 2, 64, 95
3, 27840, Note_off_c, 2, 60, 95
3, 27840, Note_on_c, 2, 69, 79
3, 27840, Note_on_c, 2, 64, 79
3, 27840, Note_on_c, 2, 60, 79
3, 28800, Note_off_c, 2, 69, 79
3, 28800, Note_off_c, 2, 64, 79
3, 28800, Note_off_c, 2, 60, 79
3, 28800, Note_on_c, 2, 69, 63
3, 28800, Note_on_c, 2, 64, 63
3, 28800, Note_on_c, 2, 60, 63
3, 29760, Note_off_c, 2, 69, 63
3, 29760, Note_off_c, 2, 64, 63
3, 29760, Note_off_c, 2, 60, 63
3, 29760, Note_on_c, 2, 69, 47
3, 29760, Note_on_c, 2, 64, 47
3, 29760, Note_on_c, 2, 60, 47
3, 30720, Note_off_c, 2, 69, 47
3, 30720, Note_off_c, 2, 64, 47
3, 30720, Note_off_c, 2, 60, 47
3, 30720, Note_on_c, 2, 71, 79
3, 30720, Note_on_c, 2, 66, 79
3, 30720, Note_on_c, 2, 62, 79
3, 31680, Note_off_c, 2, 71, 79
3, 31680, Note_off_c, 2, 66, 79
3, 31680, Note_off_c, 2, 62, 79
3, 32160, Note_on_c, 2, 71, 95
3, 32160, Note_on_c, 2, 66, 95
3, 32160, Note_on_c, 2, 62, 95
3, 32400, Note_off_c, 2, 71, 95
3, 32400, Note_off_c, 2, 66, 95
3, 32400, Note_off_c, 2, 62, 95
3, 33600, Note_on_c, 2, 71, 95
3, 33600, Note_on_c, 2, 66, 95
3, 33600, Note_on_c, 2, 62, 95
3, 34320, Note_off_c, 2, 71, 95
3, 34320, Note_off_c, 2, 66, 95
3, 34320, Note_off_c, 2, 62, 95
3, 34560, Note_on_c, 2, 71, 95
3, 34560, Note_on_c, 2, 66, 95
3, 34560, Note_on_c, 2, 62, 95
3, 35520, Note_off_c, 2, 71, 95
3, 35520, Note_off_c, 2, 66, 95
3, 35520, Note_off_c, 2, 62, 95
3, 35520, Note_on_c, 2, 71, 79
3, 35520, Note_on_c, 2, 66, 79
3, 35520, Note_on_c, 2, 62, 79
3, 36480, Note_off_c, 2, 71, 79
3, 36480, Note_off_c, 2, 66, 79
3, 36480, Note_off_c, 2, 62, 79
3, 36480, Note_on_c, 2, 71, 63
3, 36480, Note_on_c, 2, 66, 63
3, 36480, Note_on_c, 2, 62, 63
3, 37440, Note_off_c, 2, 71, 63
3, 37440, Note_off_c, 2, 66, 63
3, 37440, Note_off_c, 2, 62, 63
3, 37440, Note_on_c, 2, 71, 47
3, 37440, Note_on_c, 2, 66, 47
3, 37440, Note_on_c, 2, 62, 47
3, 38400, Note_off_c, 2, 71, 47
3, 38400, Note_off_c, 2, 66, 47
3, 38400, Note_off_c, 2, 62, 47
3, 38400, Note_on_c, 2, 69, 79
3, 38400, Note_on_c, 2, 64, 79
3, 38400, Note_on_c, 2, 60, 79
3, 39360, Note_off_c, 2, 69, 79
3, 39360, Note_off_c, 2, 64, 79
3, 39360, Note_off_c, 2, 60, 79
3, 39840, Note_on_c, 2, 69, 95
3, 39840, Note_on_c, 2, 64, 95
3, 39840, Note_on_c, 2, 60, 95
3, 40080, Note_off_c, 2, 69, 95
3, 40080, Note_off_c, 2, 64, 95
3, 40080, Note_off_c, 2, 60, 95
3, 41280, Note_on_c, 2, 69, 95
3, 41280, Note_on_c, 2, 64, 95
3, 41280, Note_on_c, 2, 60, 95
3, 42000, Note_off_c, 2, 69, 95
3, 42000, Note_off_c, 2, 64, 95
3, 42000, Note_off_c, 2, 60, 95
3, 42240, Note_on_c, 2, 69, 95
3, 42240, Note_on_c, 2, 64, 95
3, 42240, Note_on_c, 2, 60, 95
3, 43200, Note_off_c, 2, 69, 95
3, 43200, Note_off_c, 2, 64, 95
3, 43200, Note_off_c, 2, 60, 95
3, 43200, Note_on_c, 2, 69, 79
3, 43200, Note_on_c, 2, 64, 79
3, 43200, Note_on_c, 2, 60, 79
3, 44160, Note_off_c, 2, 69, 79
3, 44160, Note_off_c, 2, 64, 79
3, 44160, Note_off_c, 2, 60, 79
3, 44160, Note_on_c, 2, 69, 63
3, 44160, Note_on_c, 2, 64, 63
3, 44160, Note_on_c, 2, 60, 63
3, 45120, Note_off_c, 2, 69, 63
3, 45120, Note_off_c, 2, 64, 63
3, 45120, Note_off_c, 2, 60, 63
3, 45120, Note_on_c, 2, 69, 47
3, 45120, Note_on_c, 2, 64, 47
3, 45120, Note_on_c, 2, 60, 47
3, 46080, Note_off_c, 2, 69, 47
3, 46080, Note_off_c, 2, 64, 47
3, 46080, Note_off_c, 2, 60, 47
3, 46080, Note_on_c, 2, 71, 79
3, 46080, Note_on_c, 2, 66, 79
3, 46080, Note_on_c, 2, 62, 79
3, 47040, Note_off_c, 2, 71, 79
3, 47040, Note_off_c, 2, 66, 79
3, 47040, Note_off_c, 2, 62, 79
3, 47520, Note_on_c, 2, 71, 95
3, 47520, Note_on_c, 2, 66, 95
3, 47520, Note_on_c, 2, 62, 95
3, 47760, Note_off_c, 2, 71, 95
3, 47760, Note_off_c, 2, 66, 95
3, 47760, Note_off_c, 2, 62, 95
3, 48960, Note_on_c, 2, 71, 95
3, 48960, Note_on_c, 2, 66, 95
3, 48960, Note_on_c, 2, 62, 95
3, 49680, Note_off_c, 2, 71, 95
3, 49680, Note_off_c, 2, 66, 95
3, 49680, Note_off_c, 2, 62, 95
3, 49920, Note_on_c, 2, 71, 95
3, 49920, Note_on_c, 2, 66, 95
3, 49920, Note_on_c, 2, 62, 95
3, 50880, Note_off_c, 2, 71, 95
3, 50880, Note_off_c, 2, 66, 95
3, 50880, Note_off_c, 2, 62, 95
3, 50880, Note_on_c, 2, 71, 79
3, 50880, Note_on_c, 2, 66, 79
3, 50880, Note_on_c, 2, 62, 79
3, 51840, Note_off_c, 2, 71, 79
3, 51840, Note_off_c, 2, 66, 79
3, 51840, Note_off_c, 2, 62, 79
3, 51840, Note_on_c, 2, 71, 63
3, 51840, Note_on_c, 2, 66, 63
3, 51840, Note_on_c, 2, 62, 63
3, 52800, Note_off_c, 2, 71, 63
3, 52800, Note_off_c, 2, 66, 63
3, 52800, Note_off_c, 2, 62, 63
3, 52800, Note_on_c, 2, 71, 47
3, 52800, Note_on_c, 2, 66, 47
3, 52800, Note_on_c, 2, 62, 47
3, 53760, Note_off_c, 2, 71, 47
3, 53760, Note_off_c, 2, 66, 47
3, 53760, Note_off_c, 2, 62, 47
3, 53760, Note_on_c, 2, 69, 79
3, 53760, Note_on_c, 2, 64, 79
3, 53760, Note_on_c, 2, 60, 79
3, 54720, Note_off_c, 2, 69, 79
3, 54720, Note_off_c, 2, 64, 79
3, 54720, Note_off_c, 2, 60, 79
3, 55200, Note_on_c, 2, 69, 95
3, 55200, Note_on_c, 2, 64, 95
3, 55200, Note_on_c, 2, 60, 95
3, 55440, Note_off_c, 2, 69, 95
3, 55440, Note_off_c, 2, 64, 95
3, 55440, Note_off_c, 2, 60, 95
3, 56640, Note_on_c, 2, 69, 95
3, 56640, Note_on_c, 2, 64, 95
3, 56640, Note_on_c, 2, 60, 95
3, 57360, Note_off_c, 2, 69, 95
3, 57360, Note_off_c, 2, 64, 95
3, 57360, Note_off_c, 2, 60, 95
3, 57600, Note_on_c, 2, 69, 95
3, 57600, Note_on_c, 2, 64, 95
3, 57600, Note_on_c, 2, 60, 95
3, 58560, Note_off_c, 2, 69, 95
3, 58560, Note_off_c, 2, 64, 95
3, 58560, Note_off_c, 2, 60, 95
3, 58560, Note_on_c, 2, 69, 79
3, 58560, Note_on_c, 2, 64, 79
3, 58560, Note_on_c, 2, 60, 79
3, 59520, Note_off_c, 2, 69, 79
3, 59520, Note_off_c, 2, 64, 79
3, 59520, Note_off_c, 2, 60, 79
3, 59520, Note_on_c, 2, 69, 63
3, 59520, Note_on_c, 2, 64, 63
3, 59520, Note_on_c, 2, 60, 63
3, 60480, Note_off_c, 2, 69, 63
3, 60480, Note_off_c, 2, 64, 63
3, 60480, Note_off_c, 2, 60, 63
3, 60480, Note_on_c, 2, 69, 47
3, 60480, Note_on_c, 2, 64, 47
3, 60480, Note_on_c, 2, 60, 47
3, 61440, Note_off_c, 2, 69, 47
3, 61440, Note_off_c, 2, 64, 47
3, 61440, Note_off_c, 2, 60, 47
3, 61440, Note_on_c, 2, 71, 79
3, 61440, Note_on_c, 2, 66, 79
3, 61440, Note_on_c, 2, 62, 79
3, 62400, Note_off_c, 2, 71, 79
3, 62400, Note_off_c, 2, 66, 79
3, 62400, Note_off_c, 2, 62, 79
3, 62880, Note_on_c, 2, 71, 95
3, 62880, Note_on_c, 2, 66, 95
3, 62880, Note_on_c, 2, 62, 95
3, 63120, Note_off_c, 2, 71, 95
3, 63120, Note_off_c, 2, 66, 95
3, 63120, Note_off_c, 2, 62, 95
3, 64320, Note_on_c, 2, 71, 95
3, 64320, Note_on_c, 2, 66, 95
3, 64320, Note_on_c, 2, 62, 95
3, 65040, Note_off_c, 2, 71, 95
3, 65040, Note_off_c, 2, 66, 95
3, 65040, Note_off_c, 2, 62, 95
3, 65280, Note_on_c, 2, 71, 95
3, 65280, Note_on_c, 2, 66, 95
3, 65280, Note_on_c, 2, 62, 95
3, 66240, Note_off_c, 2, 71, 95
3, 66240, Note_off_c, 2, 66, 95
3, 66240, Note_off_c, 2, 62, 95
3, 66240, Note_on_c, 2, 71, 79
3, 66240, Note_on_c, 2, 66, 79
3, 66240, Note_on_c, 2, 62, 79
3, 67200, Note_off_c, 2, 71, 79
3, 67200, Note_off_c, 2, 66, 79
3, 67200, Note_off_c, 2, 62, 79
3, 67200, Note_on_c, 2, 71, 63
3, 67200, Note_on_c, 2, 66, 63
3, 67200, Note_on_c, 2, 62, 63
3, 68160, Note_off_c, 2, 71, 63
3, 68160, Note_off_c, 2, 66, 63
3, 68160, Note_off_c, 2, 62, 63
3, 68160, Note_on_c, 2, 71, 47
3, 68160, Note_on_c, 2, 66, 47
3, 68160, Note_on_c, 2, 62, 47
3, 69120, Note_off_c, 2, 71, 47
3, 69120, Note_off_c, 2, 66, 47
3, 69120, Note_off_c, 2, 62, 47
3, 69120, Note_on_c, 2, 69, 79
3, 69120, Note_on_c, 2, 64, 79
3, 69120, Note_on_c, 2, 60, 79
3, 70080, Note_off_c, 2, 69, 79
3, 70080, Note_off_c, 2, 64, 79
3, 70080, Note_off_c, 2, 60, 79
3, 70560, Note_on_c, 2, 69, 95
3, 70560, Note_on_c, 2, 64, 95
3, 70560, Note_on_c, 2, 60, 95
3, 70800, Note_off_c, 2, 69, 95
3, 70800, Note_off_c, 2, 64, 95
3, 70800, Note_off_c, 2, 60, 95
3, 72000, Note_on_c, 2, 69, 95
3, 72000, Note_on_c, 2, 64, 95
3, 72000, Note_on_c, 2, 60, 95
3, 72720, Note_off_c, 2, 69, 95
3, 72720, Note_off_c, 2, 64, 95
3, 72720, Note_off_c, 2, 60, 95
3, 72960, Note_on_c, 2, 69, 95
3, 72960, Note_on_c, 2, 64, 95
3, 72960, Note_on_c, 2, 60, 95
3, 73920, Note_off_c, 2, 69, 95
3, 73920, Note_off_c, 2, 64, 95
3, 73920, Note_off_c, 2, 60, 95
3, 73920, Note_on_c, 2, 69, 79
3, 73920, Note_on_c, 2, 64, 79
3, 73920, Note_on_c, 2, 60, 79
3, 74880, Note_off_c, 2, 69, 79
3, 74880, Note_off_c, 2, 64, 79
3, 74880, Note_off_c, 2, 60, 79
3, 74880, Note_on_c, 2, 69, 63
3, 74880, Note_on_c, 2, 64, 63
3, 74880, Note_on_c, 2, 60, 63
3, 75840, Note_off_c, 2, 69, 63
3, 75840, Note_off_c, 2, 64, 63
3, 75840, Note_off_c, 2, 60, 63
3, 75840, Note_on_c, 2, 69, 47
3, 75840, Note_on_c, 2, 64, 47
3, 75840, Note_on_c, 2, 60, 47
3, 76800, Note_off_c, 2, 69, 47
3, 76800, Note_off_c, 2, 64, 47
3, 76800, Note_off_c, 2, 60, 47
3, 76800, Note_on_c, 2, 71, 79
3, 76800, Note_on_c, 2, 66, 79
3, 76800, Note_on_c, 2, 62, 79
3, 77760, Note_off_c, 2, 71, 79
3, 77760, Note_off_c, 2, 66, 79
3, 77760, Note_off_c, 2, 62, 79
3, 78240, Note_on_c, 2, 71, 95
3, 78240, Note_on_c, 2, 66, 95
3, 78240, Note_on_c, 2, 62, 95
3, 78480, Note_off_c, 2, 71, 95
3, 78480, Note_off_c, 2, 66, 95
3, 78480, Note_off_c, 2, 62, 95
3, 79680, Note_on_c, 2, 71, 95
3, 79680, Note_on_c, 2, 66, 95
3, 79680, Note_on_c, 2, 62, 95
3, 80400, Note_off_c, 2, 71, 95
3, 80400, Note_off_c, 2, 66, 95
3, 80400, Note_off_c, 2, 62, 95
3, 80640, Note_on_c, 2, 71, 95
3, 80640, Note_on_c, 2, 66, 95
3, 80640, Note_on_c, 2, 62, 95
3, 81600, Note_off_c, 2, 71, 95
3, 81600, Note_off_c, 2, 66, 95
3, 81600, Note_off_c, 2, 62, 95
3, 81600, Note_on_c, 2, 71, 79
3, 81600, Note_on_c, 2, 66, 79
3, 81600, Note_on_c, 2, 62, 79
3, 82560, Note_off_c, 2, 71, 79
3, 82560, Note_off_c, 2, 66, 79
3, 82560, Note_off_c, 2, 62, 79
3, 82560, Note_on_c, 2, 71, 63
3, 82560, Note_on_c, 2, 66, 63
3, 82560, Note_on_c, 2, 62, 63
3, 83520, Note_off_c, 2, 71, 63
3, 83520, Note_off_c, 2, 66, 63
3, 83520, Note_off_c, 2, 62, 63
3, 83520, Note_on_c, 2, 71, 47
3, 83520, Note_on_c, 2, 66, 47
3, 83520, Note_on_c, 2, 62, 47
3, 84480, Note_off_c, 2, 71, 47
3, 84480, Note_off_c, 2, 66, 47
3, 84480, Note_off_c, 2, 62, 47
3, 84480, Note_on_c, 2, 69, 79
3, 84480, Note_on_c, 2, 64, 79
3, 84480, Note_on_c, 2, 60, 79
3, 85440, Note_off_c, 2, 69, 79
3, 85440, Note_off_c, 2, 64, 79
3, 85440, Note_off_c, 2, 60, 79
3, 85920, Note_on_c, 2, 69, 95
3, 85920, Note_on_c, 2, 64, 95
3, 85920, Note_on_c, 2, 60, 95
3, 86160, Note_off_c, 2, 69, 95
3, 86160, Note_off_c, 2, 64, 95
3, 86160, Note_off_c, 2, 60, 95
3, 87360, Note_on_c, 2, 69, 95
3, 87360, Note_on_c, 2, 64, 95
3, 87360, Note_on_c, 2, 60, 95
3, 88080, Note_off_c, 2, 69, 95
3, 88080, Note_off_c, 2, 64, 95
3, 88080, Note_off_c, 2, 60, 95
3, 88320, Note_on_c, 2, 69, 95
3, 88320, Note_on_c, 2, 64, 95
3, 88320, Note_on_c, 2, 60, 95
3, 89280, Note_off_c, 2, 69, 95
3, 89280, Note_off_c, 2, 64, 95
3, 89280, Note_off_c, 2, 60, 95
3, 89280, Note_on_c, 2, 69, 79
3, 89280, Note_on_c, 2, 64, 79
3, 89280, Note_on_c, 2, 60, 79
3, 90240, Note_off_c, 2, 69, 79
3, 90240, Note_off_c, 2, 64, 79
3, 90240, Note_off_c, 2, 60, 79
3, 90240, Note_on_c, 2, 69, 63
3, 90240, Note_on_c, 2, 64, 63
3, 90240, Note_on_c, 2, 60, 63
3, 91200, Note_off_c, 2, 69, 63
3, 91200, Note_off_c, 2, 64, 63
3, 91200, Note_off_c, 2, 60, 63
3, 91200, Note_on_c, 2, 69, 47
3, 91200, Note_on_c, 2, 64, 47
3, 91200, Note_on_c, 2, 60, 47
3, 92160, Note_off_c, 2, 69, 47
3, 92160, Note_off_c, 2, 64, 47
3, 92160, Note_off_c, 2, 60, 47
3, 92160, Note_on_c, 2, 71, 79
3, 92160, Note_on_c, 2, 66, 79
3, 92160, Note_on_c, 2, 62, 79
3, 93120, Note_off_c, 2, 71, 79
3, 93120, Note_off_c, 2, 66, 79
3, 93120, Note_off_c, 2, 62, 79
3, 93600, Note_on_c, 2, 71, 95
3, 93600, Note_on_c, 2, 66, 95
3, 93600, Note_on_c, 2, 62, 95
3, 93840, Note_off_c, 2, 71, 95
3, 93840, Note_off_c, 2, 66, 95
3, 93840, Note_off_c, 2, 62, 95
3, 95040, Note_on_c, 2, 71, 95
3, 95040, Note_on_c, 2, 66, 95
3, 95040, Note_on_c, 2, 62, 95
3, 95760, Note_off_c, 2, 71, 95
3, 95760, Note_off_c, 2, 66, 95
3, 95760, Note_off_c, 2, 62, 95
3, 96000, Note_on_c, 2, 71, 95
3, 96000, Note_on_c, 2, 66, 95
3, 96000, Note_on_c, 2, 62, 95
3, 96960, Note_off_c, 2, 71, 95
3, 96960, Note_off_c, 2, 66, 95
3, 96960, Note_off_c, 2, 62, 95
3, 96960, Note_on_c, 2, 71, 79
3, 96960, Note_on_c, 2, 66, 79
3, 96960, Note_on_c, 2, 62, 79
3, 97920, Note_off_c, 2, 71, 79
3, 97920, Note_off_c, 2, 66, 79
3, 97920, Note_off_c, 2, 62, 79
3, 97920, Note_on_c, 2, 71, 63
3, 97920, Note_on_c, 2, 66, 63
3, 97920, Note_on_c, 2, 62, 63
3, 98880, Note_off_c, 2, 71, 63
3, 98880, Note_off_c, 2, 66, 63
3, 98880, Note_off_c, 2, 62, 63
3, 98880, Note_on_c, 2, 71, 47
3, 98880, Note_on_c, 2, 66, 47
3, 98880, Note_on_c, 2, 62, 47
3, 99840, Note_off_c, 2, 71, 47
3, 99840, Note_off_c, 2, 66, 47
3, 99840, Note_off_c, 2, 62, 47
3, 99840, Note_on_c, 2, 69, 79
3, 99840, Note_on_c, 2, 64, 79
3, 99840, Note_on_c, 2, 60, 79
3, 100800, Note_off_c, 2, 69, 79
3, 100800, Note_off_c, 2, 64, 79
3, 100800, Note_off_c, 2, 60, 79
3, 101280, Note_on_c, 2, 69, 95
3, 101280, Note_on_c, 2, 64, 95
3, 101280, Note_on_c, 2, 60, 95
3, 101520, Note_off_c, 2, 69, 95
3, 101520, Note_off_c, 2, 64, 95
3, 101520, Note_off_c, 2, 60, 95
3, 102720, Note_on_c, 2, 69, 95
3, 102720, Note_on_c, 2, 64, 95
3, 102720, Note_on_c, 2, 60, 95
3, 103440, Note_off_c, 2, 69, 95
3, 103440, Note_off_c, 2, 64, 95
3, 103440, Note_off_c, 2, 60, 95
3, 103680, Note_on_c, 2, 69, 95
3, 103680, Note_on_c, 2, 64, 95
3, 103680, Note_on_c, 2, 60, 95
3, 104640, Note_off_c, 2, 69, 95
3, 104640, Note_off_c, 2, 64, 95
3, 104640, Note_off_c, 2, 60, 95
3, 104640, Note_on_c, 2, 69, 79
3, 104640, Note_on_c, 2, 64, 79
3, 104640, Note_on_c, 2, 60, 79
3, 105600, Note_off_c, 2, 69, 79
3, 105600, Note_off_c, 2, 64, 79
3, 105600, Note_off_c, 2, 60, 79
3, 105600, Note_on_c, 2, 69, 63
3, 105600, Note_on_c, 2, 64, 63
3, 105600, Note_on_c, 2, 60, 63
3, 106560, Note_off_c, 2, 69, 63
3, 106560, Note_off_c, 2, 64, 63
3, 106560, Note_off_c, 2, 60, 63
3, 106560, Note_on_c, 2, 69, 47
3, 106560, Note_on_c, 2, 64, 47
3, 106560, Note_on_c, 2, 60, 47
3, 107520, Note_off_c, 2, 69, 47
3, 107520, Note_off_c, 2, 64, 47
3, 107520, Note_off_c, 2, 60, 47
3, 107520, Note_on_c, 2, 71, 79
3, 107520, Note_on_c, 2, 66, 79
3, 107520, Note_on_c, 2, 62, 79
3, 108480, Note_off_c, 2, 71, 79
3, 108480, Note_off_c, 2, 66, 79
3, 108480, Note_off_c, 2, 62, 79
3, 108960, Note_on_c, 2, 71, 95
3, 108960, Note_on_c, 2, 66, 95
3, 108960, Note_on_c, 2, 62, 95
3, 109200, Note_off_c, 2, 71, 95
3, 109200, Note_off_c, 2, 66, 95
3, 109200, Note_off_c, 2, 62, 95
3, 110400, Note_on_c, 2, 71, 95
3, 110400, Note_on_c, 2, 66, 95
3, 110400, Note_on_c, 2, 62, 95
3, 111120, Note_off_c, 2, 71, 95
3, 111120, Note_off_c, 2, 66, 95
3, 111120, Note_off_c, 2, 62, 95
3, 111360, Note_on_c, 2, 71, 95
3, 111360, Note_on_c, 2, 66, 95
3, 111360, Note_on_c, 2, 62, 95
3, 112320, Note_off_c, 2, 71, 95
3, 112320, Note_off_c, 2, 66, 95
3, 112320, Note_off_c, 2, 62, 95
3, 112320, Note_on_c, 2, 71, 79
3, 112320, Note_on_c, 2, 66, 79
3, 112320, Note_on_c, 2, 62, 79
3, 113280, Note_off_c, 2, 71, 79
3, 113280, Note_off_c, 2, 66, 79
3, 113280, Note_off_c, 2, 62, 79
3, 113280, Note_on_c, 2, 71, 63
3, 113280, Note_on_c, 2, 66, 63
3, 113280, Note_on_c, 2, 62, 63
3, 114240, Note_off_c, 2, 71, 63
3, 114240, Note_off_c, 2, 66, 63
3, 114240, Note_off_c, 2, 62, 63
3, 114240, Note_on_c, 2, 71, 47
3, 114240, Note_on_c, 2, 66, 47
3, 114240, Note_on_c, 2, 62, 47
3, 115200, Note_off_c, 2, 71, 47
3, 115200, Note_off_c, 2, 66, 47
3, 115200, Note_off_c, 2, 62, 47
3, 115200, Note_on_c, 2, 69, 79
3, 115200, Note_on_c, 2, 64, 79
3, 115200, Note_on_c, 2, 60, 79
3, 116160, Note_off_c, 2, 69, 79
3, 116160, Note_off_c, 2, 64, 79
3, 116160, Note_off_c, 2, 60, 79
3, 116640, Note_on_c, 2, 69, 95
3, 116640, Note_on_c, 2, 64, 95
3, 116640, Note_on_c, 2, 60, 95
3, 116880, Note_off_c, 2, 69, 95
3, 116880, Note_off_c, 2, 64, 95
3, 116880, Note_off_c, 2, 60, 95
3, 118080, Note_on_c, 2, 69, 95
3, 118080, Note_on_c, 2, 64, 95
3, 118080, Note_on_c, 2, 60, 95
3, 118800, Note_off_c, 2, 69, 95
3, 118800, Note_off_c, 2, 64, 95
3, 118800, Note_off_c, 2, 60, 95
3, 119040, Note_on_c, 2, 69, 95
3, 119040, Note_on_c, 2, 64, 95
3, 119040, Note_on_c, 2, 60, 95
3, 120000, Note_off_c, 2, 69, 95
3, 120000, Note_off_c, 2, 64, 95
3, 120000, Note_off_c, 2, 60, 95
3, 120000, Note_on_c, 2, 69, 79
3, 120000, Note_on_c, 2, 64, 79
3, 120000, Note_on_c, 2, 60, 79
3, 120960, Note_off_c, 2, 69, 79
3, 120960, Note_off_c, 2, 64, 79
3, 120960, Note_off_c, 2, 60, 79
3, 120960, Note_on_c, 2, 69, 63
3, 120960, Note_on_c, 2, 64, 63
3, 120960, Note_on_c, 2, 60, 63
3, 121920, Note_off_c, 2, 69, 63
3, 121920, Note_off_c, 2, 64, 63
3, 121920, Note_off_c, 2, 60, 63
3, 121920, Note_on_c, 2, 69, 47
3, 121920, Note_on_c, 2, 64, 47
3, 121920, Note_on_c, 2, 60, 47
3, 122880, Note_off_c, 2, 69, 47
3, 122880, Note_off_c, 2, 64, 47
3, 122880, Note_off_c, 2, 60, 47
3, 122880, Note_on_c, 2, 71, 79
3, 122880, Note_on_c, 2, 66, 79
3, 122880, Note_on_c, 2, 62, 79
3, 123840, Note_off_c, 2, 71, 79
3, 123840, Note_off_c, 2, 66, 79
3, 123840, Note_off_c, 2, 62, 79
3, 124320, Note_on_c, 2, 71, 95
3, 124320, Note_on_c, 2, 66, 95
3, 124320, Note_on_c, 2, 62, 95
3, 124560, Note_off_c, 2, 71, 95
3, 124560, Note_off_c, 2, 66, 95
3, 124560, Note_off_c, 2, 62, 95
3, 125760, Note_on_c, 2, 71, 95
3, 125760, Note_on_c, 2, 66, 95
3, 125760, Note_on_c, 2, 62, 95
3, 126480, Note_off_c, 2, 71, 95
3, 126480, Note_off_c, 2, 66, 95
3, 126480, Note_off_c, 2, 62, 95
3, 126720, Note_on_c, 2, 71, 95
3, 126720, Note_on_c, 2, 66, 95
3, 126720, Note_on_c, 2, 62, 95
3, 127680, Note_off_c, 2, 71, 95
3, 127680, Note_off_c, 2, 66, 95
3, 127680, Note_off_c, 2, 62, 95
3, 127680, Note_on_c, 2, 71, 79
3, 127680, Note_on_c, 2, 66, 79
3, 127680, Note_on_c, 2, 62, 79
3, 128640, Note_off_c, 2, 71, 79
3, 128640, Note_off_c, 2, 66, 79
3, 128640, Note_off_c, 2, 62, 79
3, 128640, Note_on_c, 2, 71, 63
3, 128640, Note_on_c, 2, 66, 63
3, 128640, Note_on_c, 2, 62, 63
3, 129600, Note_off_c, 2, 71, 63
3, 129600, Note_off_c, 2, 66, 63
3, 129600, Note_off_c, 2, 62, 63
3, 129600, Note_on_c, 2, 71, 47
3, 129600, Note_on_c, 2, 66, 47
3, 129600, Note_on_c, 2, 62, 47
3, 130560, Note_off_c, 2, 71, 47
3, 130560, Note_off_c, 2, 66, 47
3, 130560, Note_off_c, 2, 62, 47
3, 130560, Note_on_c, 2, 69, 79
3, 130560, Note_on_c, 2, 64, 79
3, 130560, Note_on_c, 2, 60, 79
3, 131520, Note_off_c, 2, 69, 79
3, 131520, Note_off_c, 2, 64, 79
3, 131520, Note_off_c, 2, 60, 79
3, 132000, Note_on_c, 2, 69, 95
3, 132000, Note_on_c, 2, 64, 95
3, 132000, Note_on_c, 2, 60, 95
3, 132240, Note_off_c, 2, 69, 95
3, 132240, Note_off_c, 2, 64, 95
3, 132240, Note_off_c, 2, 60, 95
3, 133440, Note_on_c, 2, 69, 95
3, 133440, Note_on_c, 2, 64, 95
3, 133440, Note_on_c, 2, 60, 95
3, 134160, Note_off_c, 2, 69, 95
3, 134160, Note_off_c, 2, 64, 95
3, 134160, Note_off_c, 2, 60, 95
3, 134400, Note_on_c, 2, 69, 95
3, 134400, Note_on_c, 2, 64, 95
3, 134400, Note_on_c, 2, 60, 95
3, 135360, Note_off_c, 2, 69, 95
3, 135360, Note_off_c, 2, 64, 95
3, 135360, Note_off_c, 2, 60, 95
3, 135360, Note_on_c, 2, 69, 79
3, 135360, Note_on_c, 2, 64, 79
3, 135360, Note_on_c, 2, 60, 79
3, 136320, Note_off_c, 2, 69, 79
3, 136320, Note_off_c, 2, 64, 79
3, 136320, Note_off_c, 2, 60, 79
3, 136320, Note_on_c, 2, 69, 63
3, 136320, Note_on_c, 2, 64, 63
3, 136320, Note_on_c, 2, 60, 63
3, 137280, Note_off_c, 2, 69, 63
3, 137280, Note_off_c, 2, 64, 63
3, 137280, Note_off_c, 2, 60, 63
3, 137280, Note_on_c, 2, 69, 47
3, 137280, Note_on_c, 2, 64, 47
3, 137280, Note_on_c, 2, 60, 47
3, 138240, Note_off_c, 2, 69, 47
3, 138240, Note_off_c, 2, 64, 47
3, 138240, Note_off_c, 2, 60, 47
3, 138240, Note_on_c, 2, 71, 79
3, 138240, Note_on_c, 2, 66, 79
3, 138240, Note_on_c, 2, 62, 79
3, 139200, Note_off_c, 2, 71, 79
3, 139200, Note_off_c, 2, 66, 79
3, 139200, Note_off_c, 2, 62, 79
3, 139680, Note_on_c, 2, 71, 95
3, 139680, Note_on_c, 2, 66, 95
3, 139680, Note_on_c, 2, 62, 95
3, 139920, Note_off_c, 2, 71, 95
3, 139920, Note_off_c, 2, 66, 95
3, 139920, Note_off_c, 2, 62, 95
3, 141120, Note_on_c, 2, 71, 95
3, 141120, Note_on_c, 2, 66, 95
3, 141120, Note_on_c, 2, 62, 95
3, 141840, Note_off_c, 2, 71, 95
3, 141840, Note_off_c, 2, 66, 95
3, 141840, Note_off_c, 2, 62, 95
3, 142080, Note_on_c, 2, 71, 95
3, 142080, Note_on_c, 2, 66, 95
3, 142080, Note_on_c, 2, 62, 95
3, 143040, Note_off_c, 2, 71, 95
3, 143040, Note_off_c, 2, 66, 95
3, 143040, Note_off_c, 2, 62, 95
3, 143040, Note_on_c, 2, 71, 79
3, 143040, Note_on_c, 2, 66, 79
3, 143040, Note_on_c, 2, 62, 79
3, 144000, Note_off_c, 2, 71, 79
3, 144000, Note_off_c, 2, 66, 79
3, 144000, Note_off_c, 2, 62, 79
3, 144000, Note_on_c, 2, 71, 63
3, 144000, Note_on_c, 2, 66, 63
3, 144000, Note_on_c, 2, 62, 63
3, 144960, Note_off_c, 2, 71, 63
3, 144960, Note_off_c, 2, 66, 63
3, 144960, Note_off_c, 2, 62, 63
3, 144960, Note_on_c, 2, 71, 47
3, 144960, Note_on_c, 2, 66, 47
3, 144960, Note_on_c, 2, 62, 47
3, 145920, Note_off_c, 2, 71, 47
3, 145920, Note_off_c, 2, 66, 47
3, 145920, Note_off_c, 2, 62, 47
3, 145920, Note_on_c, 2, 69, 79
3, 145920, Note_on_c, 2, 64, 79
3, 145920, Note_on_c, 2, 60, 79
3, 146880, Note_off_c, 2, 69, 79
3, 146880, Note_off_c, 2, 64, 79
3, 146880, Note_off_c, 2, 60, 79
3, 147360, Note_on_c, 2, 69, 95
3, 147360, Note_on_c, 2, 64, 95
3, 147360, Note_on_c, 2, 60, 95
3, 147600, Note_off_c, 2, 69, 95
3, 147600, Note_off_c, 2, 64, 95
3, 147600, Note_off_c, 2, 60, 95
3, 148800, Note_on_c, 2, 69, 95
3, 148800, Note_on_c, 2, 64, 95
3, 148800, Note_on_c, 2, 60, 95
3, 149520, Note_off_c, 2, 69, 95
3, 149520, Note_off_c, 2, 64, 95
3, 149520, Note_off_c, 2, 60, 95
3, 149760, Note_on_c, 2, 69, 95
3, 149760, Note_on_c, 2, 64, 95
3, 149760, Note_on_c, 2, 60, 95
3, 150720, Note_off_c, 2, 69, 95
3, 150720, Note_off_c, 2, 64, 95
3, 150720, Note_off_c, 2, 60, 95
3, 150720, Note_on_c, 2, 69, 79
3, 150720, Note_on_c, 2, 64, 79
3, 150720, Note_on_c, 2, 60, 79
3, 151680, Note_off_c, 2, 69, 79
3, 151680, Note_off_c, 2, 64, 79
3, 151680, Note_off_c, 2, 60, 79
3, 151680, Note_on_c, 2, 69, 63
3, 151680, Note_on_c, 2, 64, 63
3, 151680, Note_on_c, 2, 60, 63
3, 152640, Note_off_c, 2, 69, 63
3, 152640, Note_off_c, 2, 64, 63
3, 152640, Note_off_c, 2, 60, 63
3, 152640, Note_on_c, 2, 69, 47
3, 152640, Note_on_c, 2, 64, 47
3, 152640, Note_on_c, 2, 60, 47
3, 153600, Note_off_c, 2, 69, 47
3, 153600, Note_off_c, 2, 64, 47
3, 153600, Note_off_c, 2, 60, 47
3, 153600, Note_on_c, 2, 71, 79
3, 153600, Note_on_c, 2, 66, 79
3, 153600, Note_on_c, 2, 62, 79
3, 154560, Note_off_c, 2, 71, 79
3, 154560, Note_off_c, 2, 66, 79
3, 154560, Note_off_c, 2, 62, 79
3, 155040, Note_on_c, 2, 71, 95
3, 155040, Note_on_c, 2, 66, 95
3, 155040, Note_on_c, 2, 62, 95
3, 155280, Note_off_c, 2, 71, 95
3, 155280, Note_off_c, 2, 66, 95
3, 155280, Note_off_c, 2, 62, 95
3, 156480, Note_on_c, 2, 71, 95
3, 156480, Note_on_c, 2, 66, 95
3, 156480, Note_on_c, 2, 62, 95
3, 157200, Note_off_c, 2, 71, 95
3, 157200, Note_off_c, 2, 66, 95
3, 157200, Note_off_c, 2, 62, 95
3, 157440, Note_on_c, 2, 71, 95
3, 157440, Note_on_c, 2, 66, 95
3, 157440, Note_on_c, 2, 62, 95
3, 158400, Note_off_c, 2, 71, 95
3, 158400, Note_off_c, 2, 66, 95
3, 158400, Note_off_c, 2, 62, 95
3, 158400, Note_on_c, 2, 71, 79
3, 158400, Note_on_c, 2, 66, 79
3, 158400, Note_on_c, 2, 62, 79
3, 159360, Note_off_c, 2, 71, 79
3, 159360, Note_off_c, 2, 66, 79
3, 159360, Note_off_c, 2, 62, 79
3, 159360, Note_on_c, 2, 71, 63
3, 159360, Note_on_c, 2, 66, 63
3, 159360, Note_on_c, 2, 62, 63
3, 160320, Note_off_c, 2, 71, 63
3, 160320, Note_off_c, 2, 66, 63
3, 160320, Note_off_c, 2, 62, 63
3, 160320, Note_on_c, 2, 71, 47
3, 160320, Note_on_c, 2, 66, 47
3, 160320, Note_on_c, 2, 62, 47
3, 161280, Note_off_c, 2, 71, 47
3, 161280, Note_off_c, 2, 66, 47
3, 161280, Note_off_c, 2, 62, 47
3, 161280, Note_on_c, 2, 69, 79
3, 161280, Note_on_c, 2, 64, 79
3, 161280, Note_on_c, 2, 60, 79
3, 162240, Note_off_c, 2, 69, 79
3, 162240, Note_off_c, 2, 64, 79
3, 162240, Note_off_c, 2, 60, 79
3, 162720, Note_on_c, 2, 69, 95
3, 162720, Note_on_c, 2, 64, 95
3, 162720, Note_on_c, 2, 60, 95
3, 162960, Note_off_c, 2, 69, 95
3, 162960, Note_off_c, 2, 64, 95
3, 162960, Note_off_c, 2, 60, 95
3, 164160, Note_on_c, 2, 69, 95
3, 164160, Note_on_c, 2, 64, 95
3, 164160, Note_on_c, 2, 60, 95
3, 164880, Note_off_c, 2, 69, 95
3, 164880, Note_off_c, 2, 64, 95
3, 164880, Note_off_c, 2, 60, 95
3, 165120, Note_on_c, 2, 69, 95
3, 165120, Note_on_c, 2, 64, 95
3, 165120, Note_on_c, 2, 60, 95
3, 166080, Note_off_c, 2, 69, 95
3, 166080, Note_off_c, 2, 64, 95
3, 166080, Note_off_c, 2, 60, 95
3, 166080, Note_on_c, 2, 69, 79
3, 166080, Note_on_c, 2, 64, 79
3, 166080, Note_on_c, 2, 60, 79
3, 167040, Note_off_c, 2, 69, 79
3, 167040, Note_off_c, 2, 64, 79
3, 167040, Note_off_c, 2, 60, 79
3, 167040, Note_on_c, 2, 69, 63
3, 167040, Note_on_c, 2, 64, 63
3, 167040, Note_on_c, 2, 60, 63
3, 168000, Note_off_c, 2, 69, 63
3, 168000, Note_off_c, 2, 64, 63
3, 168000, Note_off_c, 2, 60, 63
3, 168000, Note_on_c, 2, 69, 47
3, 168000, Note_on_c, 2, 64, 47
3, 168000, Note_on_c, 2, 60, 47
3, 168960, Note_off_c, 2, 69, 47
3, 168960, Note_off_c, 2, 64, 47
3, 168960, Note_off_c, 2, 60, 47
3, 168960, Note_on_c, 2, 71, 79
3, 168960, Note_on_c, 2, 66, 79
3, 168960, Note_on_c, 2, 62, 79
3, 169920, Note_off_c, 2, 71, 79
3, 169920, Note_off_c, 2, 66, 79
3, 169920, Note_off_c, 2, 62, 79
3, 170400, Note_on_c, 2, 71, 95
3, 170400, Note_on_c, 2, 66, 95
3, 170400, Note_on_c, 2, 62, 95
3, 170640, Note_off_c, 2, 71, 95
3, 170640, Note_off_c, 2, 66, 95
3, 170640, Note_off_c, 2, 62, 95
3, 171840, Note_on_c, 2, 71, 95
3, 171840, Note_on_c, 2, 66, 95
3, 171840, Note_on_c, 2, 62, 95
3, 172560, Note_off_c, 2, 71, 95
3, 172560, Note_off_c, 2, 66, 95
3, 172560, Note_off_c, 2, 62, 95
3, 172560, End_track
4, 0, Start_track
4, 0, Pitch_bend_c, 4, 8192
4, 0, Control_c, 4, 7, 95
4, 0, Control_c, 4, 10, 63
4, 0, Control_c, 4, 93, 0
4, 0, Control_c, 4, 91, 0
4, 0, Control_c, 4, 95, 0
4, 0, Control_c, 4, 92, 0
4, 0, Control_c, 4, 11, 127
4, 0, Program_c, 4, 33
4, 0, Control_c, 5, 7, 95
4, 0, Control_c, 5, 10, 63
4, 0, Control_c, 5, 93, 0
4, 0, Control_c, 5, 91, 0
4, 0, Control_c, 5, 95, 0
4, 0, Control_c, 5, 92, 0
4, 0, Control_c, 5, 11, 127
4, 0, Program_c, 5, 33
4, 0, Note_on_c, 4, 40, 95
4, 960, Note_off_c, 4, 40, 95
4, 1440, Note_on_c, 4, 44, 95
4, 1920, Note_off_c, 4, 44, 95
4, 2400, Note_on_c, 4, 47, 95
4, 2880, Note_off_c, 4, 47, 95
4, 2880, Note_on_c, 4, 52, 95
4, 5280, Note_off_c, 4, 52, 95
4, 5280, Note_on_c, 4, 40, 95
4, 5760, Note_off_c, 4, 40, 95
4, 5760, Note_on_c, 4, 52, 95
4, 6240, Note_off_c, 4, 52, 95
4, 6240, Note_on_c, 4, 40, 95
4, 6720, Note_off_c, 4, 40, 95
4, 6720, Note_on_c, 4, 39, 95
4, 7200, Note_off_c, 4, 39, 95
4, 7200, Note_on_c, 4, 39, 95
4, 7680, Note_off_c, 4, 39, 95
4, 7680, Note_on_c, 4, 38, 95
4, 8640, Note_off_c, 4, 38, 95
4, 9120, Note_on_c, 4, 42, 95
4, 9600, Note_off_c, 4, 42, 95
4, 10080, Note_on_c, 4, 45, 95
4, 10560, Note_off_c, 4, 45, 95
4, 10560, Note_on_c, 4, 50, 95
4, 12960, Note_off_c, 4, 50, 95
4, 12960, Note_on_c, 4, 38, 95
4, 13440, Note_off_c, 4, 38, 95
4, 13440, Note_on_c, 4, 50, 95
4, 13920, Note_off_c, 4, 50, 95
4, 13920, Note_on_c, 4, 38, 95
4, 14400, Note_off_c, 4, 38, 95
4, 14400, Note_on_c, 4, 39, 95
4, 14880, Note_off_c, 4, 39, 95
4, 14880, Note_on_c, 4, 39, 95
4, 15360, Note_off_c, 4, 39, 95
4, 15360, Note_on_c, 4, 40, 95
4, 16320, Note_off_c, 4, 40, 95
4, 16800, Note_on_c, 4, 44, 95
4, 17280, Note_off_c, 4, 44, 95
4, 17760, Note_on_c, 4, 47, 95
4, 18240, Note_off_c, 4, 47, 95
4, 18240, Note_on_c, 4, 52, 95
4, 20640, Note_off_c, 4, 52, 95
4, 20640, Note_on_c, 4, 40, 95
4, 21120, Note_off_c, 4, 40, 95
4, 21120, Note_on_c, 4, 52, 95
4, 21600, Note_off_c, 4, 52, 95
4, 21600, Note_on_c, 4, 40, 95
4, 22080, Note_off_c, 4, 40, 95
4, 22080, Note_on_c, 4, 39, 95
4, 22560, Note_off_c, 4, 39, 95
4, 22560, Note_on_c, 4, 39, 95
4, 23040, Note_off_c, 4, 39, 95
4, 23040, Note_on_c, 4, 38, 95
4, 24000, Note_off_c, 4, 38, 95
4, 24480, Note_on_c, 4, 42, 95
4, 24960, Note_off_c, 4, 42, 95
4, 25440, Note_on_c, 4, 45, 95
4, 25920, Note_off_c, 4, 45, 95
4, 25920, Note_on_c, 4, 50, 95
4, 28320, Note_off_c, 4, 50, 95
4, 28320, Note_on_c, 4, 38, 95
4, 28800, Note_off_c, 4, 38, 95
4, 28800, Note_on_c, 4, 50, 95
4, 29280, Note_off_c, 4, 50, 95
4, 29280, Note_on_c, 4, 38, 95
4, 29760, Note_off_c, 4, 38, 95
4, 29760, Note_on_c, 4, 39, 95
4, 30240, Note_off_c, 4, 39, 95
4, 30240, Note_on_c, 4, 39, 95
4, 30720, Note_off_c, 4, 39, 95
4, 30720, Note_on_c, 4, 40, 95
4, 31680, Note_off_c, 4, 40, 95
4, 32160, Note_on_c, 4, 44, 95
4, 32640, Note_off_c, 4, 44, 95
4, 33120, Note_on_c, 4, 47, 95
4, 33600, Note_off_c, 4, 47, 95
4, 33600, Note_on_c, 4, 52, 95
4, 36000, Note_off_c, 4, 52, 95
4, 36000, Note_on_c, 4, 40, 95
4, 36480, Note_off_c, 4, 40, 95
4, 36480, Note_on_c, 4, 52, 95
4, 36960, Note_off_c, 4, 52, 95
4, 36960, Note_on_c, 4, 40, 95
4, 37440, Note_off_c, 4, 40, 95
4, 37440, Note_on_c, 4, 39, 95
4, 37920, Note_off_c, 4, 39, 95
4, 37920, Note_on_c, 4, 39, 95
4, 38400, Note_off_c, 4, 39, 95
4, 38400, Note_on_c, 4, 38, 95
4, 39360, Note_off_c, 4, 38, 95
4, 39840, Note_on_c, 4, 42, 95
4, 40320, Note_off_c, 4, 42, 95
4, 40800, Note_on_c, 4, 45, 95
4, 41280, Note_off_c, 4, 45, 95
4, 41280, Note_on_c, 4, 50, 95
4, 43680, Note_off_c, 4, 50, 95
4, 43680, Note_on_c, 4, 38, 95
4, 44160, Note_off_c, 4, 38, 95
4, 44160, Note_on_c, 4, 50, 95
4, 44640, Note_off_c, 4, 50, 95
4, 44640, Note_on_c, 4, 38, 95
4, 45120, Note_off_c, 4, 38, 95
4, 45120, Note_on_c, 4, 39, 95
4, 45600, Note_off_c, 4, 39, 95
4, 45600, Note_on_c, 4, 39, 95
4, 46080, Note_off_c, 4, 39, 95
4, 46080, Note_on_c, 4, 40, 95
4, 47040, Note_off_c, 4, 40, 95
4, 47520, Note_on_c, 4, 44, 95
4, 48000, Note_off_c, 4, 44, 95
4, 48480, Note_on_c, 4, 47, 95
4, 48960, Note_off_c, 4, 47, 95
4, 48960, Note_on_c, 4, 52, 95
4, 51360, Note_off_c, 4, 52, 95
4, 51360, Note_on_c, 4, 40, 95
4, 51840, Note_off_c, 4, 40, 95
4, 51840, Note_on_c, 4, 52, 95
4, 52320, Note_off_c, 4, 52, 95
4, 52320, Note_on_c, 4, 40, 95
4, 52800, Note_off_c, 4, 40, 95
4, 52800, Note_on_c, 4, 39, 95
4, 53280, Note_off_c, 4, 39, 95
4, 53280, Note_on_c, 4, 39, 95
4, 53760, Note_off_c, 4, 39, 95
4, 53760, Note_on_c, 4, 38, 95
4, 54720, Note_off_c, 4, 38, 95
4, 55200, Note_on_c, 4, 42, 95
4, 55680, Note_off_c, 4, 42, 95
4, 56160, Note_on_c, 4, 45, 95
4, 56640, Note_off_c, 4, 45, 95
4, 56640, Note_on_c, 4, 50, 95
4, 59040, Note_off_c, 4, 50, 95
4, 59040, Note_on_c, 4, 38, 95
4, 59520, Note_off_c, 4, 38, 95
4, 59520, Note_on_c, 4, 50, 95
4, 60000, Note_off_c, 4, 50, 95
4, 60000, Note_on_c, 4, 38, 95
4, 60480, Note_off_c, 4, 38, 95
4, 60480, Note_on_c, 4, 39, 95
4, 60960, Note_off_c, 4, 39, 95
4, 60960, Note_on_c, 4, 39, 95
4, 61440, Note_off_c, 4, 39, 95
4, 61440, Note_on_c, 4, 40, 95
4, 62400, Note_off_c, 4, 40, 95
4, 62880, Note_on_c, 4, 44, 95
4, 63360, Note_off_c, 4, 44, 95
4, 63840, Note_on_c, 4, 47, 95
4, 64320, Note_off_c, 4, 47, 95
4, 64320, Note_on_c, 4, 52, 95
4, 66720, Note_off_c, 4, 52, 95
4, 66720, Note_on_c, 4, 40, 95
4, 67200, Note_off_c, 4, 40, 95
4, 67200, Note_on_c, 4, 52, 95
4, 67680, Note_off_c, 4, 52, 95
4, 67680, Note_on_c, 4, 40, 95
4, 68160, Note_off_c, 4, 40, 95
4, 68160, Note_on_c, 4, 39, 95
4, 68640, Note_off_c, 4, 39, 95
4, 68640, Note_on_c, 4, 39, 95
4, 69120, Note_off_c, 4, 39, 95
4, 69120, Note_on_c, 4, 38, 95
4, 70080, Note_off_c, 4, 38, 95
4, 70560, Note_on_c, 4, 42, 95
4, 71040, Note_off_c, 4, 42, 95
4, 71520, Note_on_c, 4, 45, 95
4, 72000, Note_off_c, 4, 45, 95
4, 72000, Note_on_c, 4, 50, 95
4, 74400, Note_off_c, 4, 50, 95
4, 74400, Note_on_c, 4, 38, 95
4, 74880, Note_off_c, 4, 38, 95
4, 74880, Note_on_c, 4, 50, 95
4, 75360, Note_off_c, 4, 50, 95
4, 75360, Note_on_c, 4, 38, 95
4, 75840, Note_off_c, 4, 38, 95
4, 75840, Note_on_c, 4, 39, 95
4, 76320, Note_off_c, 4, 39, 95
4, 76320, Note_on_c, 4, 39, 95
4, 76800, Note_off_c, 4, 39, 95
4, 76800, Note_on_c, 4, 40, 95
4, 77760, Note_off_c, 4, 40, 95
4, 78240, Note_on_c, 4, 44, 95
4, 78720, Note_off_c, 4, 44, 95
4, 79200, Note_on_c, 4, 47, 95
4, 79680, Note_off_c, 4, 47, 95
4, 79680, Note_on_c, 4, 52, 95
4, 82080, Note_off_c, 4, 52, 95
4, 82080, Note_on_c, 4, 40, 95
4, 82560, Note_off_c, 4, 40, 95
4, 82560, Note_on_c, 4, 52, 95
4, 83040, Note_off_c, 4, 52, 95
4, 83040, Note_on_c, 4, 40, 95
4, 83520, Note_off_c, 4, 40, 95
4, 83520, Note_on_c, 4, 39, 95
4, 84000, Note_off_c, 4, 39, 95
4, 84000, Note_on_c, 4, 39, 95
4, 84480, Note_off_c, 4, 39, 95
4, 84480, Note_on_c, 4, 38, 95
4, 85440, Note_off_c, 4, 38, 95
4, 85920, Note_on_c, 4, 42, 95
4, 86400, Note_off_c, 4, 42, 95
4, 86880, Note_on_c, 4, 45, 95
4, 87360, Note_off_c, 4, 45, 95
4, 87360, Note_on_c, 4, 50, 95
4, 89760, Note_off_c, 4, 50, 95
4, 89760, Note_on_c, 4, 38, 95
4, 90240, Note_off_c, 4, 38, 95
4, 90240, Note_on_c, 4, 50, 95
4, 90720, Note_off_c, 4, 50, 95
4, 90720, Note_on_c, 4, 38, 95
4, 91200, Note_off_c, 4, 38, 95
4, 91200, Note_on_c, 4, 39, 95
4, 91680, Note_off_c, 4, 39, 95
4, 91680, Note_on_c, 4, 39, 95
4, 92160, Note_off_c, 4, 39, 95
4, 92160, Note_on_c, 4, 40, 95
4, 93120, Note_off_c, 4, 40, 95
4, 93600, Note_on_c, 4, 44, 95
4, 94080, Note_off_c, 4, 44, 95
4, 94560, Note_on_c, 4, 47, 95
4, 95040, Note_off_c, 4, 47, 95
4, 95040, Note_on_c, 4, 52, 95
4, 97440, Note_off_c, 4, 52, 95
4, 97440, Note_on_c, 4, 40, 95
4, 97920, Note_off_c, 4, 40, 95
4, 97920, Note_on_c, 4, 52, 95
4, 98400, Note_off_c, 4, 52, 95
4, 98400, Note_on_c, 4, 40, 95
4, 98880, Note_off_c, 4, 40, 95
4, 98880, Note_on_c, 4, 39, 95
4, 99360, Note_off_c, 4, 39, 95
4, 99360, Note_on_c, 4, 39, 95
4, 99840, Note_off_c, 4, 39, 95
4, 99840, Note_on_c, 4, 38, 95
4, 100800, Note_off_c, 4, 38, 95
4, 101280, Note_on_c, 4, 42, 95
4, 101760, Note_off_c, 4, 42, 95
4, 102240, Note_on_c, 4, 45, 95
4, 102720, Note_off_c, 4, 45, 95
4, 102720, Note_on_c, 4, 50, 95
4, 105120, Note_off_c, 4, 50, 95
4, 105120, Note_on_c, 4, 38, 95
4, 105600, Note_off_c, 4, 38, 95
4, 105600, Note_on_c, 4, 50, 95
4, 106080, Note_off_c, 4, 50, 95
4, 106080, Note_on_c, 4, 38, 95
4, 106560, Note_off_c, 4, 38, 95
4, 106560, Note_on_c, 4, 39, 95
4, 107040, Note_off_c, 4, 39, 95
4, 107040, Note_on_c, 4, 39, 95
4, 107520, Note_off_c, 4, 39, 95
4, 107520, Note_on_c, 4, 40, 95
4, 108480, Note_off_c, 4, 40, 95
4, 108960, Note_on_c, 4, 44, 95
4, 109440, Note_off_c, 4, 44, 95
4, 109920, Note_on_c, 4, 47, 95
4, 110400, Note_off_c, 4, 47, 95
4, 110400, Note_on_c, 4, 52, 95
4, 112800, Note_off_c, 4, 52, 95
4, 112800, Note_on_c, 4, 40, 95
4, 113280, Note_off_c, 4, 40, 95
4, 113280, Note_on_c, 4, 52, 95
4, 113760, Note_off_c, 4, 52, 95
4, 113760, Note_on_c, 4, 40, 95
4, 114240, Note_off_c, 4, 40, 95
4, 114240, Note_on_c, 4, 39, 95
4, 114720, Note_off_c, 4, 39, 95
4, 114720, Note_on_c, 4, 39, 95
4, 115200, Note_off_c, 4, 39, 95
4, 115200, Note_on_c, 4, 38, 95
4, 116160, Note_off_c, 4, 38, 95
4, 116640, Note_on_c, 4, 42, 95
4, 117120, Note_off_c, 4, 42, 95
4, 117600, Note_on_c, 4, 45, 95
4, 118080, Note_off_c, 4, 45, 95
4, 118080, Note_on_c, 4, 50, 95
4, 120480, Note_off_c, 4, 50, 95
4, 120480, Note_on_c, 4, 38, 95
4, 120960, Note_off_c, 4, 38, 95
4, 120960, Note_on_c, 4, 50, 95
4, 121440, Note_off_c, 4, 50, 95
4, 121440, Note_on_c, 4, 38, 95
4, 121920, Note_off_c, 4, 38, 95
4, 121920, Note_on_c, 4, 39, 95
4, 122400, Note_off_c, 4, 39, 95
4, 122400, Note_on_c, 4, 39, 95
4, 122880, Note_off_c, 4, 39, 95
4, 122880, Note_on_c, 4, 40, 95
4, 123840, Note_off_c, 4, 40, 95
4, 124320, Note_on_c, 4, 44, 95
4, 124800, Note_off_c, 4, 44, 95
4, 125280, Note_on_c, 4, 47, 95
4, 125760, Note_off_c, 4, 47, 95
4, 125760, Note_on_c, 4, 52, 95
4, 128160, Note_off_c, 4, 52, 95
4, 128160, Note_on_c, 4, 40, 95
4, 128640, Note_off_c, 4, 40, 95
4, 128640, Note_on_c, 4, 52, 95
4, 129120, Note_off_c, 4, 52, 95
4, 129120, Note_on_c, 4, 40, 95
4, 129600, Note_off_c, 4, 40, 95
4, 129600, Note_on_c, 4, 39, 95
4, 130080, Note_off_c, 4, 39, 95
4, 130080, Note_on_c, 4, 39, 95
4, 130560, Note_off_c, 4, 39, 95
4, 130560, Note_on_c, 4, 38, 95
4, 131520, Note_off_c, 4, 38, 95
4, 132000, Note_on_c, 4, 42, 95
4, 132480, Note_off_c, 4, 42, 95
4, 132960, Note_on_c, 4, 45, 95
4, 133440, Note_off_c, 4, 45, 95
4, 133440, Note_on_c, 4, 50, 95
4, 135840, Note_off_c, 4, 50, 95
4, 135840, Note_on_c, 4, 38, 95
4, 136320, Note_off_c, 4, 38, 95
4, 136320, Note_on_c, 4, 50, 95
4, 136800, Note_off_c, 4, 50, 95
4, 136800, Note_on_c, 4, 38, 95
4, 137280, Note_off_c, 4, 38, 95
4, 137280, Note_on_c, 4, 39, 95
4, 137760, Note_off_c, 4, 39, 95
4, 137760, Note_on_c, 4, 39, 95
4, 138240, Note_off_c, 4, 39, 95
4, 138240, Note_on_c, 4, 40, 95
4, 139200, Note_off_c, 4, 40, 95
4, 139680, Note_on_c, 4, 44, 95
4, 140160, Note_off_c, 4, 44, 95
4, 140640, Note_on_c, 4, 47, 95
4, 141120, Note_off_c, 4, 47, 95
4, 141120, Note_on_c, 4, 52, 95
4, 143520, Note_off_c, 4, 52, 95
4, 143520, Note_on_c, 4, 40, 95
4, 144000, Note_off_c, 4, 40, 95
4, 144000, Note_on_c, 4, 52, 95
4, 144480, Note_off_c, 4, 52, 95
4, 144480, Note_on_c, 4, 40, 95
4, 144960, Note_off_c, 4, 40, 95
4, 144960, Note_on_c, 4, 39, 95
4, 145440, Note_off_c, 4, 39, 95
4, 145440, Note_on_c, 4, 39, 95
4, 145920, Note_off_c, 4, 39, 95
4, 145920, Note_on_c, 4, 38, 95
4, 146880, Note_off_c, 4, 38, 95
4, 147360, Note_on_c, 4, 42, 95
4, 147840, Note_off_c, 4, 42, 95
4, 148320, Note_on_c, 4, 45, 95
4, 148800, Note_off_c, 4, 45, 95
4, 148800, Note_on_c, 4, 50, 95
4, 151200, Note_off_c, 4, 50, 95
4, 151200, Note_on_c, 4, 38, 95
4, 151680, Note_off_c, 4, 38, 95
4, 151680, Note_on_c, 4, 50, 95
4, 152160, Note_off_c, 4, 50, 95
4, 152160, Note_on_c, 4, 38, 95
4, 152640, Note_off_c, 4, 38, 95
4, 152640, Note_on_c, 4, 39, 95
4, 153120, Note_off_c, 4, 39, 95
4, 153120, Note_on_c, 4, 39, 95
4, 153600, Note_off_c, 4, 39, 95
4, 153600, Note_on_c, 4, 40, 95
4, 154560, Note_off_c, 4, 40, 95
4, 155040, Note_on_c, 4, 44, 95
4, 155520, Note_off_c, 4, 44, 95
4, 156000, Note_on_c, 4, 47, 95
4, 156480, Note_off_c, 4, 47, 95
4, 156480, Note_on_c, 4, 52, 95
4, 158880, Note_off_c, 4, 52, 95
4, 158880, Note_on_c, 4, 40, 95
4, 159360, Note_off_c, 4, 40, 95
4, 159360, Note_on_c, 4, 52, 95
4, 159840, Note_off_c, 4, 52, 95
4, 159840, Note_on_c, 4, 40, 95
4, 160320, Note_off_c, 4, 40, 95
4, 160320, Note_on_c, 4, 39, 95
4, 160800, Note_off_c, 4, 39, 95
4, 160800, Note_on_c, 4, 39, 95
4, 161280, Note_off_c, 4, 39, 95
4, 161280, Note_on_c, 4, 38, 95
4, 162240, Note_off_c, 4, 38, 95
4, 162720, Note_on_c, 4, 42, 95
4, 163200, Note_off_c, 4, 42, 95
4, 163680, Note_on_c, 4, 45, 95
4, 164160, Note_off_c, 4, 45, 95
4, 164160, Note_on_c, 4, 50, 95
4, 166560, Note_off_c, 4, 50, 95
4, 166560, Note_on_c, 4, 38, 95
4, 167040, Note_off_c, 4, 38, 95
4, 167040, Note_on_c, 4, 50, 95
4, 167520, Note_off_c, 4, 50, 95
4, 167520, Note_on_c, 4, 38, 95
4, 168000, Note_off_c, 4, 38, 95
4, 168000, Note_on_c, 4, 39, 95
4, 168480, Note_off_c, 4, 39, 95
4, 168480, Note_on_c, 4, 39, 95
4, 168960, Note_off_c, 4, 39, 95
4, 168960, Note_on_c, 4, 40, 95
4, 169920, Note_off_c, 4, 40, 95
4, 170400, Note_on_c, 4, 44, 95
4, 170880, Note_off_c, 4, 44, 95
4, 171360, Note_on_c, 4, 47, 95
4, 171840, Note_off_c, 4, 47, 95
4, 171840, Note_on_c, 4, 52, 95
4, 172800, Note_off_c, 4, 52, 95
4, 172800, End_track
5, 0, Start_track
5, 0, Pitch_bend_c, 9, 8192
5, 0, Control_c, 9, 7, 103
5, 0, Control_c, 9, 10, 63
5, 0, Control_c, 9, 93, 0
5, 0, Control_c, 9, 91, 0
5, 0, Control_c, 9, 95, 0
5, 0, Control_c, 9, 92, 0
5, 0, Control_c, 9, 11, 127
5, 0, Program_c, 9, 0
5, 0, Note_on_c, 9, 42, 95
5, 0, Note_on_c, 9, 82, 47
5, 0, Note_on_c, 9, 37, 95
5, 0, Note_on_c, 9, 36, 95
5, 480, Note_off_c, 9, 42, 95
5, 480, Note_off_c, 9, 82, 47
5, 480, Note_off_c, 9, 37, 95
5, 480, Note_off_c, 9, 36, 95
5, 480, Note_on_c, 9, 42, 95
5, 480, Note_on_c, 9, 82, 47
5, 720, Note_off_c, 9, 42, 95
5, 720, Note_off_c, 9, 82, 47
5, 720, Note_on_c, 9, 82, 47
5, 960, Note_off_c, 9, 82, 47
5, 960, Note_on_c, 9, 42, 95
5, 960, Note_on_c, 9, 82, 47
5, 960, Note_on_c, 9, 37, 95
5, 1440, Note_off_c, 9, 42, 95
5, 1440, Note_off_c, 9, 82, 47
5, 1440, Note_off_c, 9, 37, 95
5, 1440, Note_on_c, 9, 42, 95
5, 1440, Note_on_c, 9, 82, 47
5, 1440, Note_on_c, 9, 36, 95
5, 1680, Note_off_c, 9, 42, 95
5, 1680, Note_off_c, 9, 82, 47
5, 1680, Note_off_c, 9, 36, 95
5, 1680, Note_on_c, 9, 82, 47
5, 1920, Note_off_c, 9, 82, 47
5, 1920, Note_on_c, 9, 42, 95
5, 1920, Note_on_c, 9, 82, 47
5, 1920, Note_on_c, 9, 37, 95
5, 2400, Note_off_c, 9, 42, 95
5, 2400, Note_off_c, 9, 82, 47
5, 2400, Note_off_c, 9, 37, 95
5, 2400, Note_on_c, 9, 42, 95
5, 2400, Note_on_c, 9, 82, 47
5, 2640, Note_off_c, 9, 42, 95
5, 2640, Note_off_c, 9, 82, 47
5, 2640, Note_on_c, 9, 82, 47
5, 2880, Note_off_c, 9, 82, 47
5, 2880, Note_on_c, 9, 42, 95
5, 2880, Note_on_c, 9, 82, 47
5, 2880, Note_on_c, 9, 37, 95
5, 2880, Note_on_c, 9, 36, 95
5, 3360, Note_off_c, 9, 42, 95
5, 3360, Note_off_c, 9, 82, 47
5, 3360, Note_off_c, 9, 37, 95
5, 3360, Note_off_c, 9, 36, 95
5, 3360, Note_on_c, 9, 42, 95
5, 3360, Note_on_c, 9, 82, 47
5, 3600, Note_off_c, 9, 42, 95
5, 3600, Note_off_c, 9, 82, 47
5, 3600, Note_on_c, 9, 82, 47
5, 3840, Note_off_c, 9, 82, 47
5, 3840, Note_on_c, 9, 42, 95
5, 3840, Note_on_c, 9, 82, 47
5, 3840, Note_on_c, 9, 37, 95
5, 4320, Note_off_c, 9, 42, 95
5, 4320, Note_off_c, 9, 82, 47
5, 4320, Note_off_c, 9, 37, 95
5, 4320, Note_on_c, 9, 42, 95
5, 4320, Note_on_c, 9, 82, 47
5, 4560, Note_off_c, 9, 42, 95
5, 4560, Note_off_c, 9, 82, 47
5, 4560, Note_on_c, 9, 82, 47
5, 4800, Note_off_c, 9, 82, 47
5, 4800, Note_on_c, 9, 42, 95
5, 4800, Note_on_c, 9, 82, 47
5, 4800, Note_on_c, 9, 37, 95
5, 5280, Note_off_c, 9, 42, 95
5, 5280, Note_off_c, 9, 82, 47
5, 5280, Note_off_c, 9, 37, 95
5, 5280, Note_on_c, 9, 42, 95
5, 5280, Note_on_c, 9, 82, 47
5, 5280, Note_on_c, 9, 36, 95
5, 5520, Note_off_c, 9, 42, 95
5, 5520, Note_off_c, 9, 82, 47
5, 5520, Note_off_c, 9, 36, 95
5, 5520, Note_on_c, 9, 82, 47
5, 5760, Note_off_c, 9, 82, 47
5, 5760, Note_on_c, 9, 42, 95
5, 5760, Note_on_c, 9, 82, 47
5, 5760, Note_on_c, 9, 37, 95
5, 5760, Note_on_c, 9, 36, 95
5, 6240, Note_off_c, 9, 42, 95
5, 6240, Note_off_c, 9, 82, 47
5, 6240, Note_off_c, 9, 37, 95
5, 6240, Note_off_c, 9, 36, 95
5, 6240, Note_on_c, 9, 42, 95
5, 6240, Note_on_c, 9, 82, 47
5, 6480, Note_off_c, 9, 42, 95
5, 6480, Note_off_c, 9, 82, 47
5, 6480, Note_on_c, 9, 82, 47
5, 6720, Note_off_c, 9, 82, 47
5, 6720, Note_on_c, 9, 42, 95
5, 6720, Note_on_c, 9, 82, 47
5, 6720, Note_on_c, 9, 37, 95
5, 6720, Note_on_c, 9, 36, 95
5, 7200, Note_off_c, 9, 42, 95
5, 7200, Note_off_c, 9, 82, 47
5, 7200, Note_off_c, 9, 37, 95
5, 7200, Note_off_c, 9, 36, 95
5, 7200, Note_on_c, 9, 42, 95
5, 7200, Note_on_c, 9, 82, 47
5, 7200, Note_on_c, 9, 36, 95
5, 7440, Note_off_c, 9, 42, 95
5, 7440, Note_off_c, 9, 82, 47
5, 7440, Note_off_c, 9, 36, 95
5, 7440, Note_on_c, 9, 82, 47
5, 7680, Note_off_c, 9, 82, 47
5, 7680, Note_on_c, 9, 42, 95
5, 7680, Note_on_c, 9, 82, 47
5, 7680, Note_on_c, 9, 37, 95
5, 7680, Note_on_c, 9, 36, 95
5, 8160, Note_off_c, 9, 42, 95
5, 8160, Note_off_c, 9, 82, 47
5, 8160, Note_off_c, 9, 37, 95
5, 8160, Note_off_c, 9, 36, 95
5, 8160, Note_on_c, 9, 42, 95
5, 8160, Note_on_c, 9, 82, 47
5, 8400, Note_off_c, 9, 42, 95
5, 8400, Note_off_c, 9, 82, 47
5, 8400, Note_on_c, 9, 82, 47
5, 8640, Note_off_c, 9, 82, 47
5, 8640, Note_on_c, 9, 42, 95
5, 8640, Note_on_c, 9, 82, 47
5, 8640, Note_on_c, 9, 37, 95
5, 9120, Note_off_c, 9, 42, 95
5, 9120, Note_off_c, 9, 82, 47
5, 9120, Note_off_c, 9, 37, 95
5, 9120, Note_on_c, 9, 42, 95
5, 9120, Note_on_c, 9, 82, 47
5, 9120, Note_on_c, 9, 36, 95
5, 9360, Note_off_c, 9, 42, 95
5, 9360, Note_off_c, 9, 82, 47
5, 9360, Note_off_c, 9, 36, 95
5, 9360, Note_on_c, 9, 82, 47
5, 9600, Note_off_c, 9, 82, 47
5, 9600, Note_on_c, 9, 42, 95
5, 9600, Note_on_c, 9, 82, 47
5, 9600, Note_on_c, 9, 37, 95
5, 10080, Note_off_c, 9, 42, 95
5, 10080, Note_off_c, 9, 82, 47
5, 10080, Note_off_c, 9, 37, 95
5, 10080, Note_on_c, 9, 42, 95
5, 10080, Note_on_c, 9, 82, 47
5, 10320, Note_off_c, 9, 42, 95
5, 10320, Note_off_c, 9, 82, 47
5, 10320, Note_on_c, 9, 82, 47
5, 10560, Note_off_c, 9, 82, 47
5, 10560, Note_on_c, 9, 42, 95
5, 10560, Note_on_c, 9, 82, 47
5, 10560, Note_on_c, 9, 37, 95
5, 10560, Note_on_c, 9, 36, 95
5, 11040, Note_off_c, 9, 42, 95
5, 11040, Note_off_c, 9, 82, 47
5, 11040, Note_off_c, 9, 37, 95
5, 11040, Note_off_c, 9, 36, 95
5, 11040, Note_on_c, 9, 42, 95
5, 11040, Note_on_c, 9, 82, 47
5, 11280, Note_off_c, 9, 42, 95
5, 11280, Note_off_c, 9, 82, 47
5, 11280, Note_on_c, 9, 82, 47
5, 11520, Note_off_c, 9, 82, 47
5, 11520, Note_on_c, 9, 42, 95
5, 11520, Note_on_c, 9, 82, 47
5, 11520, Note_on_c, 9, 37, 95
5, 12000, Note_off_c, 9, 42, 95
5, 12000, Note_off_c, 9, 82, 47
5, 12000, Note_off_c, 9, 37, 95
5, 12000, Note_on_c, 9, 42, 95
5, 12000, Note_on_c, 9, 82, 47
5, 12240, Note_off_c, 9, 42, 95
5, 12240, Note_off_c, 9, 82, 47
5, 12240, Note_on_c, 9, 82, 47
5, 12480, Note_off_c, 9, 82, 47
5, 12480, Note_on_c, 9, 42, 95
5, 12480, Note_on_c, 9, 82, 47
5, 12480, Note_on_c, 9, 37, 95
5, 12960, Note_off_c, 9, 42, 95
5, 12960, Note_off_c, 9, 82, 47
5, 12960, Note_off_c, 9, 37, 95
5, 12960, Note_on_c, 9, 42, 95
5, 12960, Note_on_c, 9, 82, 47
5, 12960, Note_on_c, 9, 36, 95
5, 13200, Note_off_c, 9, 42, 95
5, 13200, Note_off_c, 9, 82, 47
5, 13200, Note_off_c, 9, 36, 95
5, 13200, Note_on_c, 9, 82, 47
5, 13440, Note_off_c, 9, 82, 47
5, 13440, Note_on_c, 9, 42, 95
5, 13440, Note_on_c, 9, 82, 47
5, 13440, Note_on_c, 9, 37, 95
5, 13440, Note_on_c, 9, 36, 95
5, 13920, Note_off_c, 9, 42, 95
5, 13920, Note_off_c, 9, 82, 47
5, 13920, Note_off_c, 9, 37, 95
5, 13920, Note_off_c, 9, 36, 95
5, 13920, Note_on_c, 9, 42, 95
5, 13920, Note_on_c, 9, 82, 47
5, 14160, Note_off_c, 9, 42, 95
5, 14160, Note_off_c, 9, 82, 47
5, 14160, Note_on_c, 9, 82, 47
5, 14400, Note_off_c, 9, 82, 47
5, 14400, Note_on_c, 9, 42, 95
5, 14400, Note_on_c, 9, 82, 47
5, 14400, Note_on_c, 9, 37, 95
5, 14400, Note_on_c, 9, 36, 95
5, 14880, Note_off_c, 9, 42, 95
5, 14880, Note_off_c, 9, 82, 47
5, 14880, Note_off_c, 9, 37, 95
5, 14880, Note_off_c, 9, 36, 95
5, 14880, Note_on_c, 9, 46, 95
5, 14880, Note_on_c, 9, 82, 47
5, 14880, Note_on_c, 9, 36, 95
5, 15120, Note_off_c, 9, 46, 95
5, 15120, Note_off_c, 9, 82, 47
5, 15120, Note_off_c, 9, 36, 95
5, 15120, Note_on_c, 9, 82, 47
5, 15360, Note_off_c, 9, 82, 47
5, 15360, Note_on_c, 9, 42, 95
5, 15360, Note_on_c, 9, 82, 47
5, 15360, Note_on_c, 9, 37, 95
5, 15360, Note_on_c, 9, 36, 95
5, 15840, Note_off_c, 9, 42, 95
5, 15840, Note_off_c, 9, 82, 47
5, 15840, Note_off_c, 9, 37, 95
5, 15840, Note_off_c, 9, 36, 95
5, 15840, Note_on_c, 9, 42, 95
5, 15840, Note_on_c, 9, 82, 47
5, 16080, Note_off_c, 9, 42, 95
5, 16080, Note_off_c, 9, 82, 47
5, 16080, Note_on_c, 9, 82, 47
5, 16320, Note_off_c, 9, 82, 47
5, 16320, Note_on_c, 9, 42, 95
5, 16320, Note_on_c, 9, 82, 47
5, 16320, Note_on_c, 9, 37, 95
5, 16800, Note_off_c, 9, 42, 95
5, 16800, Note_off_c, 9, 82, 47
5, 16800, Note_off_c, 9, 37, 95
5, 16800, Note_on_c, 9, 42, 95
5, 16800, Note_on_c, 9, 82, 47
5, 16800, Note_on_c, 9, 36, 95
5, 17040, Note_off_c, 9, 42, 95
5, 17040, Note_off_c, 9, 82, 47
5, 17040, Note_off_c, 9, 36, 95
5, 17040, Note_on_c, 9, 82, 47
5, 17280, Note_off_c, 9, 82, 47
5, 17280, Note_on_c, 9, 42, 95
5, 17280, Note_on_c, 9, 82, 47
5, 17280, Note_on_c, 9, 37, 95
5, 17760, Note_off_c, 9, 42, 95
5, 17760, Note_off_c, 9, 82, 47
5, 17760, Note_off_c, 9, 37, 95
5, 17760, Note_on_c, 9, 42, 95
5, 17760, Note_on_c, 9, 82, 47
5, 18000, Note_off_c, 9, 42, 95
5, 18000, Note_off_c, 9, 82, 47
5, 18000, Note_on_c, 9, 82, 47
5, 18240, Note_off_c, 9, 82, 47
5, 18240, Note_on_c, 9, 42, 95
5, 18240, Note_on_c, 9, 82, 47
5, 18240, Note_on_c, 9, 37, 95
5, 18240, Note_on_c, 9, 36, 95
5, 18720, Note_off_c, 9, 42, 95
5, 18720, Note_off_c, 9, 82, 47
5, 18720, Note_off_c, 9, 37, 95
5, 18720, Note_off_c, 9, 36, 95
5, 18720, Note_on_c, 9, 42, 95
5, 18720, Note_on_c, 9, 82, 47
5, 18960, Note_off_c, 9, 42, 95
5, 18960, Note_off_c, 9, 82, 47
5, 18960, Note_on_c, 9, 82, 47
5, 19200, Note_off_c, 9, 82, 47
5, 19200, Note_on_c, 9, 42, 95
5, 19200, Note_on_c, 9, 82, 47
5, 19200, Note_on_c, 9, 37, 95
5, 19680, Note_off_c, 9, 42, 95
5, 19680, Note_off_c, 9, 82, 47
5, 19680, Note_off_c, 9, 37, 95
5, 19680, Note_on_c, 9, 42, 95
5, 19680, Note_on_c, 9, 82, 47
5, 19920, Note_off_c, 9, 42, 95
5, 19920, Note_off_c, 9, 82, 47
5, 19920, Note_on_c, 9, 82, 47
5, 20160, Note_off_c, 9, 82, 47
5, 20160, Note_on_c, 9, 42, 95
5, 20160, Note_on_c, 9, 82, 47
5, 20160, Note_on_c, 9, 37, 95
5, 20640, Note_off_c, 9, 42, 95
5, 20640, Note_off_c, 9, 82, 47
5, 20640, Note_off_c, 9, 37, 95
5, 20640, Note_on_c, 9, 42, 95
5, 20640, Note_on_c, 9, 82, 47
5, 20640, Note_on_c, 9, 36, 95
5, 20880, Note_off_c, 9, 42, 95
5, 20880, Note_off_c, 9, 82, 47
5, 20880, Note_off_c, 9, 36, 95
5, 20880, Note_on_c, 9, 82, 47
5, 21120, Note_off_c, 9, 82, 47
5, 21120, Note_on_c, 9, 42, 95
5, 21120, Note_on_c, 9, 82, 47
5, 21120, Note_on_c, 9, 37, 95
5, 21120, Note_on_c, 9, 36, 95
5, 21600, Note_off_c, 9, 42, 95
5, 21600, Note_off_c, 9, 82, 47
5, 21600, Note_off_c, 9, 37, 95
5, 21600, Note_off_c, 9, 36, 95
5, 21600, Note_on_c, 9, 42, 95
5, 21600, Note_on_c, 9, 82, 47
5, 21840, Note_off_c, 9, 42, 95
5, 21840, Note_off_c, 9, 82, 47
5, 21840, Note_on_c, 9, 82, 47
5, 22080, Note_off_c, 9, 82, 47
5, 22080, Note_on_c, 9, 42, 95
5, 22080, Note_on_c, 9, 82, 47
5, 22080, Note_on_c, 9, 37, 95
5, 22080, Note_on_c, 9, 36, 95
5, 22560, Note_off_c, 9, 42, 95
5, 22560, Note_off_c, 9, 82, 47
5, 22560, Note_off_c, 9, 37, 95
5, 22560, Note_off_c, 9, 36, 95
5, 22560, Note_on_c, 9, 42, 95
5, 22560, Note_on_c, 9, 82, 47
5, 22560, Note_on_c, 9, 36, 95
5, 22800, Note_off_c, 9, 42, 95
5, 22800, Note_off_c, 9, 82, 47
5, 22800, Note_off_c, 9, 36, 95
5, 22800, Note_on_c, 9, 82, 47
5, 23040, Note_off_c, 9, 82, 47
5, 23040, Note_on_c, 9, 42, 95
5, 23040, Note_on_c, 9, 82, 47
5, 23040, Note_on_c, 9, 37, 95
5, 23040, Note_on_c, 9, 36, 95
5, 23520, Note_off_c, 9, 42, 95
5, 23520, Note_off_c, 9, 82, 47
5, 23520, Note_off_c, 9, 37, 95
5, 23520, Note_off_c, 9, 36, 95
5, 23520, Note_on_c, 9, 42, 95
5, 23520, Note_on_c, 9, 82, 47
5, 23760, Note_off_c, 9, 42, 95
5, 23760, Note_off_c, 9, 82, 47
5, 23760, Note_on_c, 9, 82, 47
5, 24000, Note_off_c, 9, 82, 47
5, 24000, Note_on_c, 9, 42, 95
5, 24000, Note_on_c, 9, 82, 47
5, 24000, Note_on_c, 9, 37, 95
5, 24480, Note_off_c, 9, 42, 95
5, 24480, Note_off_c, 9, 82, 47
5, 24480, Note_off_c, 9, 37, 95
5, 24480, Note_on_c, 9, 42, 95
5, 24480, Note_on_c, 9, 82, 47
5, 24480, Note_on_c, 9, 36, 95
5, 24720, Note_off_c, 9, 42, 95
5, 24720, Note_off_c, 9, 82, 47
5, 24720, Note_off_c, 9, 36, 95
5, 24720, Note_on_c, 9, 82, 47
5, 24960, Note_off_c, 9, 82, 47
5, 24960, Note_on_c, 9, 42, 95
5, 24960, Note_on_c, 9, 82, 47
5, 24960, Note_on_c, 9, 37, 95
5, 25440, Note_off_c, 9, 42, 95
5, 25440, Note_off_c, 9, 82, 47
5, 25440, Note_off_c, 9, 37, 95
5, 25440, Note_on_c, 9, 42, 95
5, 25440, Note_on_c, 9, 82, 47
5, 25680, Note_off_c, 9, 42, 95
5, 25680, Note_off_c, 9, 82, 47
5, 25680, Note_on_c, 9, 82, 47
5, 25920, Note_off_c, 9, 82, 47
5, 25920, Note_on_c, 9, 42, 95
5, 25920, Note_on_c, 9, 82, 47
5, 25920, Note_on_c, 9, 37, 95
5, 25920, Note_on_c, 9, 36, 95
5, 26400, Note_off_c, 9, 42, 95
5, 26400, Note_off_c, 9, 82, 47
5, 26400, Note_off_c, 9, 37, 95
5, 26400, Note_off_c, 9, 36, 95
5, 26400, Note_on_c, 9, 42, 95
5, 26400, Note_on_c, 9, 82, 47
5, 26640, Note_off_c, 9, 42, 95
5, 26640, Note_off_c, 9, 82, 47
5, 26640, Note_on_c, 9, 82, 47
5, 26880, Note_off_c, 9, 82, 47
5, 26880, Note_on_c, 9, 42, 95
5, 26880, Note_on_c, 9, 82, 47
5, 26880, Note_on_c, 9, 37, 95
5, 27360, Note_off_c, 9, 42, 95
5, 27360, Note_off_c, 9, 82, 47
5, 27360, Note_off_c, 9, 37, 95
5, 27360, Note_on_c, 9, 42, 95
5, 27360, Note_on_c, 9, 82, 47
5, 27600, Note_off_c, 9, 42, 95
5, 27600, Note_off_c, 9, 82, 47
5, 27600, Note_on_c, 9, 82, 47
5, 27840, Note_off_c, 9, 82, 47
5, 27840, Note_on_c, 9, 42, 95
5, 27840, Note_on_c, 9, 82, 47
5, 27840, Note_on_c, 9, 37, 95
5, 28320, Note_off_c, 9, 42, 95
5, 28320, Note_off_c, 9, 82, 47
5, 28320, Note_off_c, 9, 37, 95
5, 28320, Note_on_c, 9, 42, 95
5, 28320, Note_on_c, 9, 82, 47
5, 28320, Note_on_c, 9, 36, 95
5, 28560, Note_off_c, 9, 42, 95
5, 28560, Note_off_c, 9, 82, 47
5, 28560, Note_off_c, 9, 36, 95
5, 28560, Note_on_c, 9, 82, 47
5, 28800, Note_off_c, 9, 82, 47
5, 28800, Note_on_c, 9, 42, 95
5, 28800, Note_on_c, 9, 82, 47
5, 28800, Note_on_c, 9, 37, 95
5, 28800, Note_on_c, 9, 36, 95
5, 29280, Note_off_c, 9, 42, 95
5, 29280, Note_off_c, 9, 82, 47
5, 29280, Note_off_c, 9, 37, 95
5, 29280, Note_off_c, 9, 36, 95
5, 29280, Note_on_c, 9, 42, 95
5, 29280, Note_on_c, 9, 82, 47
5, 29520, Note_off_c, 9, 42, 95
5, 29520, Note_off_c, 9, 82, 47
5, 29520, Note_on_c, 9, 82, 47
5, 29760, Note_off_c, 9, 82, 47
5, 29760, Note_on_c, 9, 42, 95
5, 29760, Note_on_c, 9, 82, 47
5, 29760, Note_on_c, 9, 37, 95
5, 29760, Note_on_c, 9, 36, 95
5, 30240, Note_off_c, 9, 42, 95
5, 30240, Note_off_c, 9, 82, 47
5, 30240, Note_off_c, 9, 37, 95
5, 30240, Note_off_c, 9, 36, 95
5, 30240, Note_on_c, 9, 46, 95
5, 30240, Note_on_c, 9, 82, 47
5, 30240, Note_on_c, 9, 36, 95
5, 30480, Note_off_c, 9, 46, 95
5, 30480, Note_off_c, 9, 82, 47
5, 30480, Note_off_c, 9, 36, 95
5, 30480, Note_on_c, 9, 82, 47
5, 30720, Note_off_c, 9, 82, 47
5, 30720, Note_on_c, 9, 42, 95
5, 30720, Note_on_c, 9, 82, 47
5, 30720, Note_on_c, 9, 37, 95
5, 30720, Note_on_c, 9, 36, 95
5, 31200, Note_off_c, 9, 42, 95
5, 31200, Note_off_c, 9, 82, 47
5, 31200, Note_off_c, 9, 37, 95
5, 31200, Note_off_c, 9, 36, 95
5, 31200, Note_on_c, 9, 42, 95
5, 31200, Note_on_c, 9, 82, 47
5, 31440, Note_off_c, 9, 42, 95
5, 31440, Note_off_c, 9, 82, 47
5, 31440, Note_on_c, 9, 82, 47
5, 31680, Note_off_c, 9, 82, 47
5, 31680, Note_on_c, 9, 42, 95
5, 31680, Note_on_c, 9, 82, 47
5, 31680, Note_on_c, 9, 37, 95
5, 32160, Note_off_c, 9, 42, 95
5, 32160, Note_off_c, 9, 82, 47
5, 32160, Note_off_c, 9, 37, 95
5, 32160, Note_on_c, 9, 42, 95
5, 32160, Note_on_c, 9, 82, 47
5, 32160, Note_on_c, 9, 36, 95
5, 32400, Note_off_c, 9, 42, 95
5, 32400, Note_off_c, 9, 82, 47
5, 32400, Note_off_c, 9, 36, 95
5, 32400, Note_on_c, 9, 82, 47
5, 32640, Note_off_c, 9, 82, 47
5, 32640, Note_on_c, 9, 42, 95
5, 32640, Note_on_c, 9, 82, 47
5, 32640, Note_on_c, 9, 37, 95
5, 33120, Note_off_c, 9, 42, 95
5, 33120, Note_off_c, 9, 82, 47
5, 33120, Note_off_c, 9, 37, 95
5, 33120, Note_on_c, 9, 42, 95
5, 33120, Note_on_c, 9, 82, 47
5, 33360, Note_off_c, 9, 42, 95
5, 33360, Note_off_c, 9, 82, 47
5, 33360, Note_on_c, 9, 82, 47
5, 33600, Note_off_c, 9, 82, 47
5, 33600, Note_on_c, 9, 42, 95
5, 33600, Note_on_c, 9, 82, 47
5, 33600, Note_on_c, 9, 37, 95
5, 33600, Note_on_c, 9, 36, 95
5, 34080, Note_off_c, 9, 42, 95
5, 34080, Note_off_c, 9, 82, 47
5, 34080, Note_off_c, 9, 37, 95
5, 34080, Note_off_c, 9, 36, 95
5, 34080, Note_on_c, 9, 42, 95
5, 34080, Note_on_c, 9, 82, 47
5, 34320, Note_off_c, 9, 42, 95
5, 34320, Note_off_c, 9, 82, 47
5, 34320, Note_on_c, 9, 82, 47
5, 34560, Note_off_c, 9, 82, 47
5, 34560, Note_on_c, 9, 42, 95
5, 34560, Note_on_c, 9, 82, 47
5, 34560, Note_on_c, 9, 37, 95
5, 35040, Note_off_c, 9, 42, 95
5, 35040, Note_off_c, 9, 82, 47
5, 35040, Note_off_c, 9, 37, 95
5, 35040, Note_on_c, 9, 42, 95
5, 35040, Note_on_c, 9, 82, 47
5, 35280, Note_off_c, 9, 42, 95
5, 35280, Note_off_c, 9, 82, 47
5, 35280, Note_on_c, 9, 82, 47
5, 35520, Note_off_c, 9, 82, 47
5, 35520, Note_on_c, 9, 42, 95
5, 35520, Note_on_c, 9, 82, 47
5, 35520, Note_on_c, 9, 37, 95
5, 36000, Note_off_c, 9, 42, 95
5, 36000, Note_off_c, 9, 82, 47
5, 36000, Note_off_c, 9, 37, 95
5, 36000, Note_on_c, 9, 42, 95
5, 36000, Note_on_c, 9, 82, 47
5, 36000, Note_on_c, 9, 36, 95
5, 36240, Note_off_c, 9, 42, 95
5, 36240, Note_off_c, 9, 82, 47
5, 36240, Note_off_c, 9, 36, 95
5, 36240, Note_on_c, 9, 82, 47
5, 36480, Note_off_c, 9, 82, 47
5, 36480, Note_on_c, 9, 42, 95
5, 36480, Note_on_c, 9, 82, 47
5, 36480, Note_on_c, 9, 37, 95
5, 36480, Note_on_c, 9, 36, 95
5, 36960, Note_off_c, 9, 42, 95
5, 36960, Note_off_c, 9, 82, 47
5, 36960, Note_off_c, 9, 37, 95
5, 36960, Note_off_c, 9, 36, 95
5, 36960, Note_on_c, 9, 42, 95
5, 36960, Note_on_c, 9, 82, 47
5, 37200, Note_off_c, 9, 42, 95
5, 37200, Note_off_c, 9, 82, 47
5, 37200, Note_on_c, 9, 82, 47
5, 37440, Note_off_c, 9, 82, 47
5, 37440, Note_on_c, 9, 42, 95
5, 37440, Note_on_c, 9, 82, 47
5, 37440, Note_on_c, 9, 37, 95
5, 37440, Note_on_c, 9, 36, 95
5, 37920, Note_off_c, 9, 42, 95
5, 37920, Note_off_c, 9, 82, 47
5, 37920, Note_off_c, 9, 37, 95
5, 37920, Note_off_c, 9, 36, 95
5, 37920, Note_on_c, 9, 42, 95
5, 37920, Note_on_c, 9, 82, 47
5, 37920, Note_on_c, 9, 36, 95
5, 38160, Note_off_c, 9, 42, 95
5, 38160, Note_off_c, 9, 82, 47
5, 38160, Note_off_c, 9, 36, 95
5, 38160, Note_on_c, 9, 82, 47
5, 38400, Note_off_c, 9, 82, 47
5, 38400, Note_on_c, 9, 42, 95
5, 38400, Note_on_c, 9, 82, 47
5, 38400, Note_on_c, 9, 37, 95
5, 38400, Note_on_c, 9, 36, 95
5, 38880, Note_off_c, 9, 42, 95
5, 38880, Note_off_c, 9, 82, 47
5, 38880, Note_off_c, 9, 37, 95
5, 38880, Note_off_c, 9, 36, 95
5, 38880, Note_on_c, 9, 42, 95
5, 38880, Note_on_c, 9, 82, 47
5, 39120, Note_off_c, 9, 42, 95
5, 39120, Note_off_c, 9, 82, 47
5, 39120, Note_on_c, 9, 82, 47
5, 39360, Note_off_c, 9, 82, 47
5, 39360, Note_on_c, 9, 42, 95
5, 39360, Note_on_c, 9, 82, 47
5, 39360, Note_on_c, 9, 37, 95
5, 39840, Note_off_c, 9, 42, 95
5, 39840, Note_off_c, 9, 82, 47
5, 39840, Note_off_c, 9, 37, 95
5, 39840, Note_on_c, 9, 42, 95
5, 39840, Note_on_c, 9, 82, 47
5, 39840, Note_on_c, 9, 36, 95
5, 40080, Note_off_c, 9, 42, 95
5, 40080, Note_off_c, 9, 82, 47
5, 40080, Note_off_c, 9, 36, 95
5, 40080, Note_on_c, 9, 82, 47
5, 40320, Note_off_c, 9, 82, 47
5, 40320, Note_on_c, 9, 42, 95
5, 40320, Note_on_c, 9, 82, 47
5, 40320, Note_on_c, 9, 37, 95
5, 40800, Note_off_c, 9, 42, 95
5, 40800, Note_off_c, 9, 82, 47
5, 40800, Note_off_c, 9, 37, 95
5, 40800, Note_on_c, 9, 42, 95
5, 40800, Note_on_c, 9, 82, 47
5, 41040, Note_off_c, 9, 42, 95
5, 41040, Note_off_c, 9, 82, 47
5, 41040, Note_on_c, 9, 82, 47
5, 41280, Note_off_c, 9, 82, 47
5, 41280, Note_on_c, 9, 42, 95
5, 41280, Note_on_c, 9, 82, 47
5, 41280, Note_on_c, 9, 37, 95
5, 41280, Note_on_c, 9, 36, 95
5, 41760, Note_off_c, 9, 42, 95
5, 41760, Note_off_c, 9, 82, 47
5, 41760, Note_off_c, 9, 37, 95
5, 41760, Note_off_c, 9, 36, 95
5, 41760, Note_on_c, 9, 42, 95
5, 41760, Note_on_c, 9, 82, 47
5, 42000, Note_off_c, 9, 42, 95
5, 42000, Note_off_c, 9, 82, 47
5, 42000, Note_on_c, 9, 82, 47
5, 42240, Note_off_c, 9, 82, 47
5, 42240, Note_on_c, 9, 42, 95
5, 42240, Note_on_c, 9, 82, 47
5, 42240, Note_on_c, 9, 37, 95
5, 42720, Note_off_c, 9, 42, 95
5, 42720, Note_off_c, 9, 82, 47
5, 42720, Note_off_c, 9, 37, 95
5, 42720, Note_on_c, 9, 42, 95
5, 42720, Note_on_c, 9, 82, 47
5, 42960, Note_off_c, 9, 42, 95
5, 42960, Note_off_c, 9, 82, 47
5, 42960, Note_on_c, 9, 82, 47
5, 43200, Note_off_c, 9, 82, 47
5, 43200, Note_on_c, 9, 42, 95
5, 43200, Note_on_c, 9, 82, 47
5, 43200, Note_on_c, 9, 37, 95
5, 43680, Note_off_c, 9, 42, 95
5, 43680, Note_off_c, 9, 82, 47
5, 43680, Note_off_c, 9, 37, 95
5, 43680, Note_on_c, 9, 42, 95
5, 43680, Note_on_c, 9, 82, 47
5, 43680, Note_on_c, 9, 36, 95
5, 43920, Note_off_c, 9, 42, 95
5, 43920, Note_off_c, 9, 82, 47
5, 43920, Note_off_c, 9, 36, 95
5, 43920, Note_on_c, 9, 82, 47
5, 44160, Note_off_c, 9, 82, 47
5, 44160, Note_on_c, 9, 42, 95
5, 44160, Note_on_c, 9, 82, 47
5, 44160, Note_on_c, 9, 37, 95
5, 44160, Note_on_c, 9, 36, 95
5, 44640, Note_off_c, 9, 42, 95
5, 44640, Note_off_c, 9, 82, 47
5, 44640, Note_off_c, 9, 37, 95
5, 44640, Note_off_c, 9, 36, 95
5, 44640, Note_on_c, 9, 42, 95
5, 44640, Note_on_c, 9, 82, 47
5, 44880, Note_off_c, 9, 42, 95
5, 44880, Note_off_c, 9, 82, 47
5, 44880, Note_on_c, 9, 82, 47
5, 45120, Note_off_c, 9, 82, 47
5, 45120, Note_on_c, 9, 42, 95
5, 45120, Note_on_c, 9, 82, 47
5, 45120, Note_on_c, 9, 37, 95
5, 45120, Note_on_c, 9, 36, 95
5, 45600, Note_off_c, 9, 42, 95
5, 45600, Note_off_c, 9, 82, 47
5, 45600, Note_off_c, 9, 37, 95
5, 45600, Note_off_c, 9, 36, 95
5, 45600, Note_on_c, 9, 46, 95
5, 45600, Note_on_c, 9, 82, 47
5, 45600, Note_on_c, 9, 36, 95
5, 45840, Note_off_c, 9, 46, 95
5, 45840, Note_off_c, 9, 82, 47
5, 45840, Note_off_c, 9, 36, 95
5, 45840, Note_on_c, 9, 82, 47
5, 46080, Note_off_c, 9, 82, 47
5, 46080, Note_on_c, 9, 42, 95
5, 46080, Note_on_c, 9, 82, 47
5, 46080, Note_on_c, 9, 37, 95
5, 46080, Note_on_c, 9, 36, 95
5, 46560, Note_off_c, 9, 42, 95
5, 46560, Note_off_c, 9, 82, 47
5, 46560, Note_off_c, 9, 37, 95
5, 46560, Note_off_c, 9, 36, 95
5, 46560, Note_on_c, 9, 42, 95
5, 46560, Note_on_c, 9, 82, 47
5, 46800, Note_off_c, 9, 42, 95
5, 46800, Note_off_c, 9, 82, 47
5, 46800, Note_on_c, 9, 82, 47
5, 47040, Note_off_c, 9, 82, 47
5, 47040, Note_on_c, 9, 42, 95
5, 47040, Note_on_c, 9, 82, 47
5, 47040, Note_on_c, 9, 37, 95
5, 47520, Note_off_c, 9, 42, 95
5, 47520, Note_off_c, 9, 82, 47
5, 47520, Note_off_c, 9, 37, 95
5, 47520, Note_on_c, 9, 42, 95
5, 47520, Note_on_c, 9, 82, 47
5, 47520, Note_on_c, 9, 36, 95
5, 47760, Note_off_c, 9, 42, 95
5, 47760, Note_off_c, 9, 82, 47
5, 47760, Note_off_c, 9, 36, 95
5, 47760, Note_on_c, 9, 82, 47
5, 48000, Note_off_c, 9, 82, 47
5, 48000, Note_on_c, 9, 42, 95
5, 48000, Note_on_c, 9, 82, 47
5, 48000, Note_on_c, 9, 37, 95
5, 48480, Note_off_c, 9, 42, 95
5, 48480, Note_off_c, 9, 82, 47
5, 48480, Note_off_c, 9, 37, 95
5, 48480, Note_on_c, 9, 42, 95
5, 48480, Note_on_c, 9, 82, 47
5, 48720, Note_off_c, 9, 42, 95
5, 48720, Note_off_c, 9, 82, 47
5, 48720, Note_on_c, 9, 82, 47
5, 48960, Note_off_c, 9, 82, 47
5, 48960, Note_on_c, 9, 42, 95
5, 48960, Note_on_c, 9, 82, 47
5, 48960, Note_on_c, 9, 37, 95
5, 48960, Note_on_c, 9, 36, 95
5, 49440, Note_off_c, 9, 42, 95
5, 49440, Note_off_c, 9, 82, 47
5, 49440, Note_off_c, 9, 37, 95
5, 49440, Note_off_c, 9, 36, 95
5, 49440, Note_on_c, 9, 42, 95
5, 49440, Note_on_c, 9, 82, 47
5, 49680, Note_off_c, 9, 42, 95
5, 49680, Note_off_c, 9, 82, 47
5, 49680, Note_on_c, 9, 82, 47
5, 49920, Note_off_c, 9, 82, 47
5, 49920, Note_on_c, 9, 42, 95
5, 49920, Note_on_c, 9, 82, 47
5, 49920, Note_on_c, 9, 37, 95
5, 50400, Note_off_c, 9, 42, 95
5, 50400, Note_off_c, 9, 82, 47
5, 50400, Note_off_c, 9, 37, 95
5, 50400, Note_on_c, 9, 42, 95
5, 50400, Note_on_c, 9, 82, 47
5, 50640, Note_off_c, 9, 42, 95
5, 50640, Note_off_c, 9, 82, 47
5, 50640, Note_on_c, 9, 82, 47
5, 50880, Note_off_c, 9, 82, 47
5, 50880, Note_on_c, 9, 42, 95
5, 50880, Note_on_c, 9, 82, 47
5, 50880, Note_on_c, 9, 37, 95
5, 51360, Note_off_c, 9, 42, 95
5, 51360, Note_off_c, 9, 82, 47
5, 51360, Note_off_c, 9, 37, 95
5, 51360, Note_on_c, 9, 42, 95
5, 51360, Note_on_c, 9, 82, 47
5, 51360, Note_on_c, 9, 36, 95
5, 51600, Note_off_c, 9, 42, 95
5, 51600, Note_off_c, 9, 82, 47
5, 51600, Note_off_c, 9, 36, 95
5, 51600, Note_on_c, 9, 82, 47
5, 51840, Note_off_c, 9, 82, 47
5, 51840, Note_on_c, 9, 42, 95
5, 51840, Note_on_c, 9, 82, 47
5, 51840, Note_on_c, 9, 37, 95
5, 51840, Note_on_c, 9, 36, 95
5, 52320, Note_off_c, 9, 42, 95
5, 52320, Note_off_c, 9, 82, 47
5, 52320, Note_off_c, 9, 37, 95
5, 52320, Note_off_c, 9, 36, 95
5, 52320, Note_on_c, 9, 42, 95
5, 52320, Note_on_c, 9, 82, 47
5, 52560, Note_off_c, 9, 42, 95
5, 52560, Note_off_c, 9, 82, 47
5, 52560, Note_on_c, 9, 82, 47
5, 52800, Note_off_c, 9, 82, 47
5, 52800, Note_on_c, 9, 42, 95
5, 52800, Note_on_c, 9, 82, 47
5, 52800, Note_on_c, 9, 37, 95
5, 52800, Note_on_c, 9, 36, 95
5, 53280, Note_off_c, 9, 42, 95
5, 53280, Note_off_c, 9, 82, 47
5, 53280, Note_off_c, 9, 37, 95
5, 53280, Note_off_c, 9, 36, 95
5, 53280, Note_on_c, 9, 42, 95
5, 53280, Note_on_c, 9, 82, 47
5, 53280, Note_on_c, 9, 36, 95
5, 53520, Note_off_c, 9, 42, 95
5, 53520, Note_off_c, 9, 82, 47
5, 53520, Note_off_c, 9, 36, 95
5, 53520, Note_on_c, 9, 82, 47
5, 53760, Note_off_c, 9, 82, 47
5, 53760, Note_on_c, 9, 42, 95
5, 53760, Note_on_c, 9, 82, 47
5, 53760, Note_on_c, 9, 37, 95
5, 53760, Note_on_c, 9, 36, 95
5, 54240, Note_off_c, 9, 42, 95
5, 54240, Note_off_c, 9, 82, 47
5, 54240, Note_off_c, 9, 37, 95
5, 54240, Note_off_c, 9, 36, 95
5, 54240, Note_on_c, 9, 42, 95
5, 54240, Note_on_c, 9, 82, 47
5, 54480, Note_off_c, 9, 42, 95
5, 54480, Note_off_c, 9, 82, 47
5, 54480, Note_on_c, 9, 82, 47
5, 54720, Note_off_c, 9, 82, 47
5, 54720, Note_on_c, 9, 42, 95
5, 54720, Note_on_c, 9, 82, 47
5, 54720, Note_on_c, 9, 37, 95
5, 55200, Note_off_c, 9, 42, 95
5, 55200, Note_off_c, 9, 82, 47
5, 55200, Note_off_c, 9, 37, 95
5, 55200, Note_on_c, 9, 42, 95
5, 55200, Note_on_c, 9, 82, 47
5, 55200, Note_on_c, 9, 36, 95
5, 55440, Note_off_c, 9, 42, 95
5, 55440, Note_off_c, 9, 82, 47
5, 55440, Note_off_c, 9, 36, 95
5, 55440, Note_on_c, 9, 82, 47
5, 55680, Note_off_c, 9, 82, 47
5, 55680, Note_on_c, 9, 42, 95
5, 55680, Note_on_c, 9, 82, 47
5, 55680, Note_on_c, 9, 37, 95
5, 56160, Note_off_c, 9, 42, 95
5, 56160, Note_off_c, 9, 82, 47
5, 56160, Note_off_c, 9, 37, 95
5, 56160, Note_on_c, 9, 42, 95
5, 56160, Note_on_c, 9, 82, 47
5, 56400, Note_off_c, 9, 42, 95
5, 56400, Note_off_c, 9, 82, 47
5, 56400, Note_on_c, 9, 82, 47
5, 56640, Note_off_c, 9, 82, 47
5, 56640, Note_on_c, 9, 42, 95
5, 56640, Note_on_c, 9, 82, 47
5, 56640, Note_on_c, 9, 37, 95
5, 56640, Note_on_c, 9, 36, 95
5, 57120, Note_off_c, 9, 42, 95
5, 57120, Note_off_c, 9, 82, 47
5, 57120, Note_off_c, 9, 37, 95
5, 57120, Note_off_c, 9, 36, 95
5, 57120, Note_on_c, 9, 42, 95
5, 57120, Note_on_c, 9, 82, 47
5, 57360, Note_off_c, 9, 42, 95
5, 57360, Note_off_c, 9, 82, 47
5, 57360, Note_on_c, 9, 82, 47
5, 57600, Note_off_c, 9, 82, 47
5, 57600, Note_on_c, 9, 42, 95
5, 57600, Note_on_c, 9, 82, 47
5, 57600, Note_on_c, 9, 37, 95
5, 58080, Note_off_c, 9, 42, 95
5, 58080, Note_off_c, 9, 82, 47
5, 58080, Note_off_c, 9, 37, 95
5, 58080, Note_on_c, 9, 42, 95
5, 58080, Note_on_c, 9, 82, 47
5, 58320, Note_off_c, 9, 42, 95
5, 58320, Note_off_c, 9, 82, 47
5, 58320, Note_on_c, 9, 82, 47
5, 58560, Note_off_c, 9, 82, 47
5, 58560, Note_on_c, 9, 42, 95
5, 58560, Note_on_c, 9, 82, 47
5, 58560, Note_on_c, 9, 37, 95
5, 59040, Note_off_c, 9, 42, 95
5, 59040, Note_off_c, 9, 82, 47
5, 59040, Note_off_c, 9, 37, 95
5, 59040, Note_on_c, 9, 42, 95
5, 59040, Note_on_c, 9, 82, 47
5, 59040, Note_on_c, 9, 36, 95
5, 59280, Note_off_c, 9, 42, 95
5, 59280, Note_off_c, 9, 82, 47
5, 59280, Note_off_c, 9, 36, 95
5, 59280, Note_on_c, 9, 82, 47
5, 59520, Note_off_c, 9, 82, 47
5, 59520, Note_on_c, 9, 42, 95
5, 59520, Note_on_c, 9, 82, 47
5, 59520, Note_on_c, 9, 37, 95
5, 59520, Note_on_c, 9, 36, 95
5, 60000, Note_off_c, 9, 42, 95
5, 60000, Note_off_c, 9, 82, 47
5, 60000, Note_off_c, 9, 37, 95
5, 60000, Note_off_c, 9, 36, 95
5, 60000, Note_on_c, 9, 42, 95
5, 60000, Note_on_c, 9, 82, 47
5, 60240, Note_off_c, 9, 42, 95
5, 60240, Note_off_c, 9, 82, 47
5, 60240, Note_on_c, 9, 82, 47
5, 60480, Note_off_c, 9, 82, 47
5, 60480, Note_on_c, 9, 42, 95
5, 60480, Note_on_c, 9, 82, 47
5, 60480, Note_on_c, 9, 37, 95
5, 60480, Note_on_c, 9, 36, 95
5, 60960, Note_off_c, 9, 42, 95
5, 60960, Note_off_c, 9, 82, 47
5, 60960, Note_off_c, 9, 37, 95
5, 60960, Note_off_c, 9, 36, 95
5, 60960, Note_on_c, 9, 46, 95
5, 60960, Note_on_c, 9, 82, 47
5, 60960, Note_on_c, 9, 36, 95
5, 61200, Note_off_c, 9, 46, 95
5, 61200, Note_off_c, 9, 82, 47
5, 61200, Note_off_c, 9, 36, 95
5, 61200, Note_on_c, 9, 82, 47
5, 61440, Note_off_c, 9, 82, 47
5, 61440, Note_on_c, 9, 42, 95
5, 61440, Note_on_c, 9, 82, 47
5, 61440, Note_on_c, 9, 37, 95
5, 61440, Note_on_c, 9, 36, 95
5, 61920, Note_off_c, 9, 42, 95
5, 61920, Note_off_c, 9, 82, 47
5, 61920, Note_off_c, 9, 37, 95
5, 61920, Note_off_c, 9, 36, 95
5, 61920, Note_on_c, 9, 42, 95
5, 61920, Note_on_c, 9, 82, 47
5, 62160, Note_off_c, 9, 42, 95
5, 62160, Note_off_c, 9, 82, 47
5, 62160, Note_on_c, 9, 82, 47
5, 62400, Note_off_c, 9, 82, 47
5, 62400, Note_on_c, 9, 42, 95
5, 62400, Note_on_c, 9, 82, 47
5, 62400, Note_on_c, 9, 37, 95
5, 62880, Note_off_c, 9, 42, 95
5, 62880, Note_off_c, 9, 82, 47
5, 62880, Note_off_c, 9, 37, 95
5, 62880, Note_on_c, 9, 42, 95
5, 62880, Note_on_c, 9, 82, 47
5, 62880, Note_on_c, 9, 36, 95
5, 63120, Note_off_c, 9, 42, 95
5, 63120, Note_off_c, 9, 82, 47
5, 63120, Note_off_c, 9, 36, 95
5, 63120, Note_on_c, 9, 82, 47
5, 63360, Note_off_c, 9, 82, 47
5, 63360, Note_on_c, 9, 42, 95
5, 63360, Note_on_c, 9, 82, 47
5, 63360, Note_on_c, 9, 37, 95
5, 63840, Note_off_c, 9, 42, 95
5, 63840, Note_off_c, 9, 82, 47
5, 63840, Note_off_c, 9, 37, 95
5, 63840, Note_on_c, 9, 42, 95
5, 63840, Note_on_c, 9, 82, 47
5, 64080, Note_off_c, 9, 42, 95
5, 64080, Note_off_c, 9, 82, 47
5, 64080, Note_on_c, 9, 82, 47
5, 64320, Note_off_c, 9, 82, 47
5, 64320, Note_on_c, 9, 42, 95
5, 64320, Note_on_c, 9, 82, 47
5, 64320, Note_on_c, 9, 37, 95
5, 64320, Note_on_c, 9, 36, 95
5, 64800, Note_off_c, 9, 42, 95
5, 64800, Note_off_c, 9, 82, 47
5, 64800, Note_off_c, 9, 37, 95
5, 64800, Note_off_c, 9, 36, 95
5, 64800, Note_on_c, 9, 42, 95
5, 64800, Note_on_c, 9, 82, 47
5, 65040, Note_off_c, 9, 42, 95
5, 65040, Note_off_c, 9, 82, 47
5, 65040, Note_on_c, 9, 82, 47
5, 65280, Note_off_c, 9, 82, 47
5, 65280, Note_on_c, 9, 42, 95
5, 65280, Note_on_c, 9, 82, 47
5, 65280, Note_on_c, 9, 37, 95
5, 65760, Note_off_c, 9, 42, 95
5, 65760, Note_off_c, 9, 82, 47
5, 65760, Note_off_c, 9, 37, 95
5, 65760, Note_on_c, 9, 42, 95
5, 65760, Note_on_c, 9, 82, 47
5, 66000, Note_off_c, 9, 42, 95
5, 66000, Note_off_c, 9, 82, 47
5, 66000, Note_on_c, 9, 82, 47
5, 66240, Note_off_c, 9, 82, 47
5, 66240, Note_on_c, 9, 42, 95
5, 66240, Note_on_c, 9, 82, 47
5, 66240, Note_on_c, 9, 37, 95
5, 66720, Note_off_c, 9, 42, 95
5, 66720, Note_off_c, 9, 82, 47
5, 66720, Note_off_c, 9, 37, 95
5, 66720, Note_on_c, 9, 42, 95
5, 66720, Note_on_c, 9, 82, 47
5, 66720, Note_on_c, 9, 36, 95
5, 66960, Note_off_c, 9, 42, 95
5, 66960, Note_off_c, 9, 82, 47
5, 66960, Note_off_c, 9, 36, 95
5, 66960, Note_on_c, 9, 82, 47
5, 67200, Note_off_c, 9, 82, 47
5, 67200, Note_on_c, 9, 42, 95
5, 67200, Note_on_c, 9, 82, 47
5, 67200, Note_on_c, 9, 37, 95
5, 67200, Note_on_c, 9, 36, 95
5, 67680, Note_off_c, 9, 42, 95
5, 67680, Note_off_c, 9, 82, 47
5, 67680, Note_off_c, 9, 37, 95
5, 67680, Note_off_c, 9, 36, 95
5, 67680, Note_on_c, 9, 42, 95
5, 67680, Note_on_c, 9, 82, 47
5, 67920, Note_off_c, 9, 42, 95
5, 67920, Note_off_c, 9, 82, 47
5, 67920, Note_on_c, 9, 82, 47
5, 68160, Note_off_c, 9, 82, 47
5, 68160, Note_on_c, 9, 42, 95
5, 68160, Note_on_c, 9, 82, 47
5, 68160, Note_on_c, 9, 37, 95
5, 68160, Note_on_c, 9, 36, 95
5, 68640, Note_off_c, 9, 42, 95
5, 68640, Note_off_c, 9, 82, 47
5, 68640, Note_off_c, 9, 37, 95
5, 68640, Note_off_c, 9, 36, 95
5, 68640, Note_on_c, 9, 42, 95
5, 68640, Note_on_c, 9, 82, 47
5, 68640, Note_on_c, 9, 36, 95
5, 68880, Note_off_c, 9, 42, 95
5, 68880, Note_off_c, 9, 82, 47
5, 68880, Note_off_c, 9, 36, 95
5, 68880, Note_on_c, 9, 82, 47
5, 69120, Note_off_c, 9, 82, 47
5, 69120, Note_on_c, 9, 42, 95
5, 69120, Note_on_c, 9, 82, 47
5, 69120, Note_on_c, 9, 37, 95
5, 69120, Note_on_c, 9, 36, 95
5, 69600, Note_off_c, 9, 42, 95
5, 69600, Note_off_c, 9, 82, 47
5, 69600, Note_off_c, 9, 37, 95
5, 69600, Note_off_c, 9, 36, 95
5, 69600, Note_on_c, 9, 42, 95
5, 69600, Note_on_c, 9, 82, 47
5, 69840, Note_off_c, 9, 42, 95
5, 69840, Note_off_c, 9, 82, 47
5, 69840, Note_on_c, 9, 82, 47
5, 70080, Note_off_c, 9, 82, 47
5, 70080, Note_on_c, 9, 42, 95
5, 70080, Note_on_c, 9, 82, 47
5, 70080, Note_on_c, 9, 37, 95
5, 70560, Note_off_c, 9, 42, 95
5, 70560, Note_off_c, 9, 82, 47
5, 70560, Note_off_c, 9, 37, 95
5, 70560, Note_on_c, 9, 42, 95
5, 70560, Note_on_c, 9, 82, 47
5, 70560, Note_on_c, 9, 36, 95
5, 70800, Note_off_c, 9, 42, 95
5, 70800, Note_off_c, 9, 82, 47
5, 70800, Note_off_c, 9, 36, 95
5, 70800, Note_on_c, 9, 82, 47
5, 71040, Note_off_c, 9, 82, 47
5, 71040, Note_on_c, 9, 42, 95
5, 71040, Note_on_c, 9, 82, 47
5, 71040, Note_on_c, 9, 37, 95
5, 71520, Note_off_c, 9, 42, 95
5, 71520, Note_off_c, 9, 82, 47
5, 71520, Note_off_c, 9, 37, 95
5, 71520, Note_on_c, 9, 42, 95
5, 71520, Note_on_c, 9, 82, 47
5, 71760, Note_off_c, 9, 42, 95
5, 71760, Note_off_c, 9, 82, 47
5, 71760, Note_on_c, 9, 82, 47
5, 72000, Note_off_c, 9, 82, 47
5, 72000, Note_on_c, 9, 42, 95
5, 72000, Note_on_c, 9, 82, 47
5, 72000, Note_on_c, 9, 37, 95
5, 72000, Note_on_c, 9, 36, 95
5, 72480, Note_off_c, 9, 42, 95
5, 72480, Note_off_c, 9, 82, 47
5, 72480, Note_off_c, 9, 37, 95
5, 72480, Note_off_c, 9, 36, 95
5, 72480, Note_on_c, 9, 42, 95
5, 72480, Note_on_c, 9, 82, 47
5, 72720, Note_off_c, 9, 42, 95
5, 72720, Note_off_c, 9, 82, 47
5, 72720, Note_on_c, 9, 82, 47
5, 72960, Note_off_c, 9, 82, 47
5, 72960, Note_on_c, 9, 42, 95
5, 72960, Note_on_c, 9, 82, 47
5, 72960, Note_on_c, 9, 37, 95
5, 73440, Note_off_c, 9, 42, 95
5, 73440, Note_off_c, 9, 82, 47
5, 73440, Note_off_c, 9, 37, 95
5, 73440, Note_on_c, 9, 42, 95
5, 73440, Note_on_c, 9, 82, 47
5, 73680, Note_off_c, 9, 42, 95
5, 73680, Note_off_c, 9, 82, 47
5, 73680, Note_on_c, 9, 82, 47
5, 73920, Note_off_c, 9, 82, 47
5, 73920, Note_on_c, 9, 42, 95
5, 73920, Note_on_c, 9, 82, 47
5, 73920, Note_on_c, 9, 37, 95
5, 74400, Note_off_c, 9, 42, 95
5, 74400, Note_off_c, 9, 82, 47
5, 74400, Note_off_c, 9, 37, 95
5, 74400, Note_on_c, 9, 42, 95
5, 74400, Note_on_c, 9, 82, 47
5, 74400, Note_on_c, 9, 36, 95
5, 74640, Note_off_c, 9, 42, 95
5, 74640, Note_off_c, 9, 82, 47
5, 74640, Note_off_c, 9, 36, 95
5, 74640, Note_on_c, 9, 82, 47
5, 74880, Note_off_c, 9, 82, 47
5, 74880, Note_on_c, 9, 42, 95
5, 74880, Note_on_c, 9, 82, 47
5, 74880, Note_on_c, 9, 37, 95
5, 74880, Note_on_c, 9, 36, 95
5, 75360, Note_off_c, 9, 42, 95
5, 75360, Note_off_c, 9, 82, 47
5, 75360, Note_off_c, 9, 37, 95
5, 75360, Note_off_c, 9, 36, 95
5, 75360, Note_on_c, 9, 42, 95
5, 75360, Note_on_c, 9, 82, 47
5, 75600, Note_off_c, 9, 42, 95
5, 75600, Note_off_c, 9, 82, 47
5, 75600, Note_on_c, 9, 82, 47
5, 75840, Note_off_c, 9, 82, 47
5, 75840, Note_on_c, 9, 42, 95
5, 75840, Note_on_c, 9, 82, 47
5, 75840, Note_on_c, 9, 37, 95
5, 75840, Note_on_c, 9, 36, 95
5, 76320, Note_off_c, 9, 42, 95
5, 76320, Note_off_c, 9, 82, 47
5, 76320, Note_off_c, 9, 37, 95
5, 76320, Note_off_c, 9, 36, 95
5, 76320, Note_on_c, 9, 46, 95
5, 76320, Note_on_c, 9, 82, 47
5, 76320, Note_on_c, 9, 36, 95
5, 76560, Note_off_c, 9, 46, 95
5, 76560, Note_off_c, 9, 82, 47
5, 76560, Note_off_c, 9, 36, 95
5, 76560, Note_on_c, 9, 82, 47
5, 76800, Note_off_c, 9, 82, 47
5, 76800, Note_on_c, 9, 42, 95
5, 76800, Note_on_c, 9, 82, 47
5, 76800, Note_on_c, 9, 37, 95
5, 76800, Note_on_c, 9, 36, 95
5, 77280, Note_off_c, 9, 42, 95
5, 77280, Note_off_c, 9, 82, 47
5, 77280, Note_off_c, 9, 37, 95
5, 77280, Note_off_c, 9, 36, 95
5, 77280, Note_on_c, 9, 42, 95
5, 77280, Note_on_c, 9, 82, 47
5, 77520, Note_off_c, 9, 42, 95
5, 77520, Note_off_c, 9, 82, 47
5, 77520, Note_on_c, 9, 82, 47
5, 77760, Note_off_c, 9, 82, 47
5, 77760, Note_on_c, 9, 42, 95
5, 77760, Note_on_c, 9, 82, 47
5, 77760, Note_on_c, 9, 37, 95
5, 78240, Note_off_c, 9, 42, 95
5, 78240, Note_off_c, 9, 82, 47
5, 78240, Note_off_c, 9, 37, 95
5, 78240, Note_on_c, 9, 42, 95
5, 78240, Note_on_c, 9, 82, 47
5, 78240, Note_on_c, 9, 36, 95
5, 78480, Note_off_c, 9, 42, 95
5, 78480, Note_off_c, 9, 82, 47
5, 78480, Note_off_c, 9, 36, 95
5, 78480, Note_on_c, 9, 82, 47
5, 78720, Note_off_c, 9, 82, 47
5, 78720, Note_on_c, 9, 42, 95
5, 78720, Note_on_c, 9, 82, 47
5, 78720, Note_on_c, 9, 37, 95
5, 79200, Note_off_c, 9, 42, 95
5, 79200, Note_off_c, 9, 82, 47
5, 79200, Note_off_c, 9, 37, 95
5, 79200, Note_on_c, 9, 42, 95
5, 79200, Note_on_c, 9, 82, 47
5, 79440, Note_off_c, 9, 42, 95
5, 79440, Note_off_c, 9, 82, 47
5, 79440, Note_on_c, 9, 82, 47
5, 79680, Note_off_c, 9, 82, 47
5, 79680, Note_on_c, 9, 42, 95
5, 79680, Note_on_c, 9, 82, 47
5, 79680, Note_on_c, 9, 37, 95
5, 79680, Note_on_c, 9, 36, 95
5, 80160, Note_off_c, 9, 42, 95
5, 80160, Note_off_c, 9, 82, 47
5, 80160, Note_off_c, 9, 37, 95
5, 80160, Note_off_c, 9, 36, 95
5, 80160, Note_on_c, 9, 42, 95
5, 80160, Note_on_c, 9, 82, 47
5, 80400, Note_off_c, 9, 42, 95
5, 80400, Note_off_c, 9, 82, 47
5, 80400, Note_on_c, 9, 82, 47
5, 80640, Note_off_c, 9, 82, 47
5, 80640, Note_on_c, 9, 42, 95
5, 80640, Note_on_c, 9, 82, 47
5, 80640, Note_on_c, 9, 37, 95
5, 81120, Note_off_c, 9, 42, 95
5, 81120, Note_off_c, 9, 82, 47
5, 81120, Note_off_c, 9, 37, 95
5, 81120, Note_on_c, 9, 42, 95
5, 81120, Note_on_c, 9, 82, 47
5, 81360, Note_off_c, 9, 42, 95
5, 81360, Note_off_c, 9, 82, 47
5, 81360, Note_on_c, 9, 82, 47
5, 81600, Note_off_c, 9, 82, 47
5, 81600, Note_on_c, 9, 42, 95
5, 81600, Note_on_c, 9, 82, 47
5, 81600, Note_on_c, 9, 37, 95
5, 82080, Note_off_c, 9, 42, 95
5, 82080, Note_off_c, 9, 82, 47
5, 82080, Note_off_c, 9, 37, 95
5, 82080, Note_on_c, 9, 42, 95
5, 82080, Note_on_c, 9, 82, 47
5, 82080, Note_on_c, 9, 36, 95
5, 82320, Note_off_c, 9, 42, 95
5, 82320, Note_off_c, 9, 82, 47
5, 82320, Note_off_c, 9, 36, 95
5, 82320, Note_on_c, 9, 82, 47
5, 82560, Note_off_c, 9, 82, 47
5, 82560, Note_on_c, 9, 42, 95
5, 82560, Note_on_c, 9, 82, 47
5, 82560, Note_on_c, 9, 37, 95
5, 82560, Note_on_c, 9, 36, 95
5, 83040, Note_off_c, 9, 42, 95
5, 83040, Note_off_c, 9, 82, 47
5, 83040, Note_off_c, 9, 37, 95
5, 83040, Note_off_c, 9, 36, 95
5, 83040, Note_on_c, 9, 42, 95
5, 83040, Note_on_c, 9, 82, 47
5, 83280, Note_off_c, 9, 42, 95
5, 83280, Note_off_c, 9, 82, 47
5, 83280, Note_on_c, 9, 82, 47
5, 83520, Note_off_c, 9, 82, 47
5, 83520, Note_on_c, 9, 42, 95
5, 83520, Note_on_c, 9, 82, 47
5, 83520, Note_on_c, 9, 37, 95
5, 83520, Note_on_c, 9, 36, 95
5, 84000, Note_off_c, 9, 42, 95
5, 84000, Note_off_c, 9, 82, 47
5, 84000, Note_off_c, 9, 37, 95
5, 84000, Note_off_c, 9, 36, 95
5, 84000, Note_on_c, 9, 42, 95
5, 84000, Note_on_c, 9, 82, 47
5, 84000, Note_on_c, 9, 36, 95
5, 84240, Note_off_c, 9, 42, 95
5, 84240, Note_off_c, 9, 82, 47
5, 84240, Note_off_c, 9, 36, 95
5, 84240, Note_on_c, 9, 82, 47
5, 84480, Note_off_c, 9, 82, 47
5, 84480, Note_on_c, 9, 42, 95
5, 84480, Note_on_c, 9, 82, 47
5, 84480, Note_on_c, 9, 37, 95
5, 84480, Note_on_c, 9, 36, 95
5, 84960, Note_off_c, 9, 42, 95
5, 84960, Note_off_c, 9, 82, 47
5, 84960, Note_off_c, 9, 37, 95
5, 84960, Note_off_c, 9, 36, 95
5, 84960, Note_on_c, 9, 42, 95
5, 84960, Note_on_c, 9, 82, 47
5, 85200, Note_off_c, 9, 42, 95
5, 85200, Note_off_c, 9, 82, 47
5, 85200, Note_on_c, 9, 82, 47
5, 85440, Note_off_c, 9, 82, 47
5, 85440, Note_on_c, 9, 42, 95
5, 85440, Note_on_c, 9, 82, 47
5, 85440, Note_on_c, 9, 37, 95
5, 85920, Note_off_c, 9, 42, 95
5, 85920, Note_off_c, 9, 82, 47
5, 85920, Note_off_c, 9, 37, 95
5, 85920, Note_on_c, 9, 42, 95
5, 85920, Note_on_c, 9, 82, 47
5, 85920, Note_on_c, 9, 36, 95
5, 86160, Note_off_c, 9, 42, 95
5, 86160, Note_off_c, 9, 82, 47
5, 86160, Note_off_c, 9, 36, 95
5, 86160, Note_on_c, 9, 82, 47
5, 86400, Note_off_c, 9, 82, 47
5, 86400, Note_on_c, 9, 42, 95
5, 86400, Note_on_c, 9, 82, 47
5, 86400, Note_on_c, 9, 37, 95
5, 86880, Note_off_c, 9, 42, 95
5, 86880, Note_off_c, 9, 82, 47
5, 86880, Note_off_c, 9, 37, 95
5, 86880, Note_on_c, 9, 42, 95
5, 86880, Note_on_c, 9, 82, 47
5, 87120, Note_off_c, 9, 42, 95
5, 87120, Note_off_c, 9, 82, 47
5, 87120, Note_on_c, 9, 82, 47
5, 87360, Note_off_c, 9, 82, 47
5, 87360, Note_on_c, 9, 42, 95
5, 87360, Note_on_c, 9, 82, 47
5, 87360, Note_on_c, 9, 37, 95
5, 87360, Note_on_c, 9, 36, 95
5, 87840, Note_off_c, 9, 42, 95
5, 87840, Note_off_c, 9, 82, 47
5, 87840, Note_off_c, 9, 37, 95
5, 87840, Note_off_c, 9, 36, 95
5, 87840, Note_on_c, 9, 42, 95
5, 87840, Note_on_c, 9, 82, 47
5, 88080, Note_off_c, 9, 42, 95
5, 88080, Note_off_c, 9, 82, 47
5, 88080, Note_on_c, 9, 82, 47
5, 88320, Note_off_c, 9, 82, 47
5, 88320, Note_on_c, 9, 42, 95
5, 88320, Note_on_c, 9, 82, 47
5, 88320, Note_on_c, 9, 37, 95
5, 88800, Note_off_c, 9, 42, 95
5, 88800, Note_off_c, 9, 82, 47
5, 88800, Note_off_c, 9, 37, 95
5, 88800, Note_on_c, 9, 42, 95
5, 88800, Note_on_c, 9, 82, 47
5, 89040, Note_off_c, 9, 42, 95
5, 89040, Note_off_c, 9, 82, 47
5, 89040, Note_on_c, 9, 82, 47
5, 89280, Note_off_c, 9, 82, 47
5, 89280, Note_on_c, 9, 42, 95
5, 89280, Note_on_c, 9, 82, 47
5, 89280, Note_on_c, 9, 37, 95
5, 89760, Note_off_c, 9, 42, 95
5, 89760, Note_off_c, 9, 82, 47
5, 89760, Note_off_c, 9, 37, 95
5, 89760, Note_on_c, 9, 42, 95
5, 89760, Note_on_c, 9, 82, 47
5, 89760, Note_on_c, 9, 36, 95
5, 90000, Note_off_c, 9, 42, 95
5, 90000, Note_off_c, 9, 82, 47
5, 90000, Note_off_c, 9, 36, 95
5, 90000, Note_on_c, 9, 82, 47
5, 90240, Note_off_c, 9, 82, 47
5, 90240, Note_on_c, 9, 42, 95
5, 90240, Note_on_c, 9, 82, 47
5, 90240, Note_on_c, 9, 37, 95
5, 90240, Note_on_c, 9, 36, 95
5, 90720, Note_off_c, 9, 42, 95
5, 90720, Note_off_c, 9, 82, 47
5, 90720, Note_off_c, 9, 37, 95
5, 90720, Note_off_c, 9, 36, 95
5, 90720, Note_on_c, 9, 42, 95
5, 90720, Note_on_c, 9, 82, 47
5, 90960, Note_off_c, 9, 42, 95
5, 90960, Note_off_c, 9, 82, 47
5, 90960, Note_on_c, 9, 82, 47
5, 91200, Note_off_c, 9, 82, 47
5, 91200, Note_on_c, 9, 42, 95
5, 91200, Note_on_c, 9, 82, 47
5, 91200, Note_on_c, 9, 37, 95
5, 91200, Note_on_c, 9, 36, 95
5, 91680, Note_off_c, 9, 42, 95
5, 91680, Note_off_c, 9, 82, 47
5, 91680, Note_off_c, 9, 37, 95
5, 91680, Note_off_c, 9, 36, 95
5, 91680, Note_on_c, 9, 46, 95
5, 91680, Note_on_c, 9, 82, 47
5, 91680, Note_on_c, 9, 36, 95
5, 91920, Note_off_c, 9, 46, 95
5, 91920, Note_off_c, 9, 82, 47
5, 91920, Note_off_c, 9, 36, 95
5, 91920, Note_on_c, 9, 82, 47
5, 92160, Note_off_c, 9, 82, 47
5, 92160, Note_on_c, 9, 42, 95
5, 92160, Note_on_c, 9, 82, 47
5, 92160, Note_on_c, 9, 37, 95
5, 92160, Note_on_c, 9, 36, 95
5, 92640, Note_off_c, 9, 42, 95
5, 92640, Note_off_c, 9, 82, 47
5, 92640, Note_off_c, 9, 37, 95
5, 92640, Note_off_c, 9, 36, 95
5, 92640, Note_on_c, 9, 42, 95
5, 92640, Note_on_c, 9, 82, 47
5, 92880, Note_off_c, 9, 42, 95
5, 92880, Note_off_c, 9, 82, 47
5, 92880, Note_on_c, 9, 82, 47
5, 93120, Note_off_c, 9, 82, 47
5, 93120, Note_on_c, 9, 42, 95
5, 93120, Note_on_c, 9, 82, 47
5, 93120, Note_on_c, 9, 37, 95
5, 93600, Note_off_c, 9, 42, 95
5, 93600, Note_off_c, 9, 82, 47
5, 93600, Note_off_c, 9, 37, 95
5, 93600, Note_on_c, 9, 42, 95
5, 93600, Note_on_c, 9, 82, 47
5, 93600, Note_on_c, 9, 36, 95
5, 93840, Note_off_c, 9, 42, 95
5, 93840, Note_off_c, 9, 82, 47
5, 93840, Note_off_c, 9, 36, 95
5, 93840, Note_on_c, 9, 82, 47
5, 94080, Note_off_c, 9, 82, 47
5, 94080, Note_on_c, 9, 42, 95
5, 94080, Note_on_c, 9, 82, 47
5, 94080, Note_on_c, 9, 37, 95
5, 94560, Note_off_c, 9, 42, 95
5, 94560, Note_off_c, 9, 82, 47
5, 94560, Note_off_c, 9, 37, 95
5, 94560, Note_on_c, 9, 42, 95
5, 94560, Note_on_c, 9, 82, 47
5, 94800, Note_off_c, 9, 42, 95
5, 94800, Note_off_c, 9, 82, 47
5, 94800, Note_on_c, 9, 82, 47
5, 95040, Note_off_c, 9, 82, 47
5, 95040, Note_on_c, 9, 42, 95
5, 95040, Note_on_c, 9, 82, 47
5, 95040, Note_on_c, 9, 37, 95
5, 95040, Note_on_c, 9, 36, 95
5, 95520, Note_off_c, 9, 42, 95
5, 95520, Note_off_c, 9, 82, 47
5, 95520, Note_off_c, 9, 37, 95
5, 95520, Note_off_c, 9, 36, 95
5, 95520, Note_on_c, 9, 42, 95
5, 95520, Note_on_c, 9, 82, 47
5, 95760, Note_off_c, 9, 42, 95
5, 95760, Note_off_c, 9, 82, 47
5, 95760, Note_on_c, 9, 82, 47
5, 96000, Note_off_c, 9, 82, 47
5, 96000, Note_on_c, 9, 42, 95
5, 96000, Note_on_c, 9, 82, 47
5, 96000, Note_on_c, 9, 37, 95
5, 96480, Note_off_c, 9, 42, 95
5, 96480, Note_off_c, 9, 82, 47
5, 96480, Note_off_c, 9, 37, 95
5, 96480, Note_on_c, 9, 42, 95
5, 96480, Note_on_c, 9, 82, 47
5, 96720, Note_off_c, 9, 42, 95
5, 96720, Note_off_c, 9, 82, 47
5, 96720, Note_on_c, 9, 82, 47
5, 96960, Note_off_c, 9, 82, 47
5, 96960, Note_on_c, 9, 42, 95
5, 96960, Note_on_c, 9, 82, 47
5, 96960, Note_on_c, 9, 37, 95
5, 97440, Note_off_c, 9, 42, 95
5, 97440, Note_off_c, 9, 82, 47
5, 97440, Note_off_c, 9, 37, 95
5, 97440, Note_on_c, 9, 42, 95
5, 97440, Note_on_c, 9, 82, 47
5, 97440, Note_on_c, 9, 36, 95
5, 97680, Note_off_c, 9, 42, 95
5, 97680, Note_off_c, 9, 82, 47
5, 97680, Note_off_c, 9, 36, 95
5, 97680, Note_on_c, 9, 82, 47
5, 97920, Note_off_c, 9, 82, 47
5, 97920, Note_on_c, 9, 42, 95
5, 97920, Note_on_c, 9, 82, 47
5, 97920, Note_on_c, 9, 37, 95
5, 97920, Note_on_c, 9, 36, 95
5, 98400, Note_off_c, 9, 42, 95
5, 98400, Note_off_c, 9, 82, 47
5, 98400, Note_off_c, 9, 37, 95
5, 98400, Note_off_c, 9, 36, 95
5, 98400, Note_on_c, 9, 42, 95
5, 98400, Note_on_c, 9, 82, 47
5, 98640, Note_off_c, 9, 42, 95
5, 98640, Note_off_c, 9, 82, 47
5, 98640, Note_on_c, 9, 82, 47
5, 98880, Note_off_c, 9, 82, 47
5, 98880, Note_on_c, 9, 42, 95
5, 98880, Note_on_c, 9, 82, 47
5, 98880, Note_on_c, 9, 37, 95
5, 98880, Note_on_c, 9, 36, 95
5, 99360, Note_off_c, 9, 42, 95
5, 99360, Note_off_c, 9, 82, 47
5, 99360, Note_off_c, 9, 37, 95
5, 99360, Note_off_c, 9, 36, 95
5, 99360, Note_on_c, 9, 42, 95
5, 99360, Note_on_c, 9, 82, 47
5, 99360, Note_on_c, 9, 36, 95
5, 99600, Note_off_c, 9, 42, 95
5, 99600, Note_off_c, 9, 82, 47
5, 99600, Note_off_c, 9, 36, 95
5, 99600, Note_on_c, 9, 82, 47
5, 99840, Note_off_c, 9, 82, 47
5, 99840, Note_on_c, 9, 42, 95
5, 99840, Note_on_c, 9, 82, 47
5, 99840, Note_on_c, 9, 37, 95
5, 99840, Note_on_c, 9, 36, 95
5, 100320, Note_off_c, 9, 42, 95
5, 100320, Note_off_c, 9, 82, 47
5, 100320, Note_off_c, 9, 37, 95
5, 100320, Note_off_c, 9, 36, 95
5, 100320, Note_on_c, 9, 42, 95
5, 100320, Note_on_c, 9, 82, 47
5, 100560, Note_off_c, 9, 42, 95
5, 100560, Note_off_c, 9, 82, 47
5, 100560, Note_on_c, 9, 82, 47
5, 100800, Note_off_c, 9, 82, 47
5, 100800, Note_on_c, 9, 42, 95
5, 100800, Note_on_c, 9, 82, 47
5, 100800, Note_on_c, 9, 37, 95
5, 101280, Note_off_c, 9, 42, 95
5, 101280, Note_off_c, 9, 82, 47
5, 101280, Note_off_c, 9, 37, 95
5, 101280, Note_on_c, 9, 42, 95
5, 101280, Note_on_c, 9, 82, 47
5, 101280, Note_on_c, 9, 36, 95
5, 101520, Note_off_c, 9, 42, 95
5, 101520, Note_off_c, 9, 82, 47
5, 101520, Note_off_c, 9, 36, 95
5, 101520, Note_on_c, 9, 82, 47
5, 101760, Note_off_c, 9, 82, 47
5, 101760, Note_on_c, 9, 42, 95
5, 101760, Note_on_c, 9, 82, 47
5, 101760, Note_on_c, 9, 37, 95
5, 102240, Note_off_c, 9, 42, 95
5, 102240, Note_off_c, 9, 82, 47
5, 102240, Note_off_c, 9, 37, 95
5, 102240, Note_on_c, 9, 42, 95
5, 102240, Note_on_c, 9, 82, 47
5, 102480, Note_off_c, 9, 42, 95
5, 102480, Note_off_c, 9, 82, 47
5, 102480, Note_on_c, 9, 82, 47
5, 102720, Note_off_c, 9, 82, 47
5, 102720, Note_on_c, 9, 42, 95
5, 102720, Note_on_c, 9, 82, 47
5, 102720, Note_on_c, 9, 37, 95
5, 102720, Note_on_c, 9, 36, 95
5, 103200, Note_off_c, 9, 42, 95
5, 103200, Note_off_c, 9, 82, 47
5, 103200, Note_off_c, 9, 37, 95
5, 103200, Note_off_c, 9, 36, 95
5, 103200, Note_on_c, 9, 42, 95
5, 103200, Note_on_c, 9, 82, 47
5, 103440, Note_off_c, 9, 42, 95
5, 103440, Note_off_c, 9, 82, 47
5, 103440, Note_on_c, 9, 82, 47
5, 103680, Note_off_c, 9, 82, 47
5, 103680, Note_on_c, 9, 42, 95
5, 103680, Note_on_c, 9, 82, 47
5, 103680, Note_on_c, 9, 37, 95
5, 104160, Note_off_c, 9, 42, 95
5, 104160, Note_off_c, 9, 82, 47
5, 104160, Note_off_c, 9, 37, 95
5, 104160, Note_on_c, 9, 42, 95
5, 104160, Note_on_c, 9, 82, 47
5, 104400, Note_off_c, 9, 42, 95
5, 104400, Note_off_c, 9, 82, 47
5, 104400, Note_on_c, 9, 82, 47
5, 104640, Note_off_c, 9, 82, 47
5, 104640, Note_on_c, 9, 42, 95
5, 104640, Note_on_c, 9, 82, 47
5, 104640, Note_on_c, 9, 37, 95
5, 105120, Note_off_c, 9, 42, 95
5, 105120, Note_off_c, 9, 82, 47
5, 105120, Note_off_c, 9, 37, 95
5, 105120, Note_on_c, 9, 42, 95
5, 105120, Note_on_c, 9, 82, 47
5, 105120, Note_on_c, 9, 36, 95
5, 105360, Note_off_c, 9, 42, 95
5, 105360, Note_off_c, 9, 82, 47
5, 105360, Note_off_c, 9, 36, 95
5, 105360, Note_on_c, 9, 82, 47
5, 105600, Note_off_c, 9, 82, 47
5, 105600, Note_on_c, 9, 42, 95
5, 105600, Note_on_c, 9, 82, 47
5, 105600, Note_on_c, 9, 37, 95
5, 105600, Note_on_c, 9, 36, 95
5, 106080, Note_off_c, 9, 42, 95
5, 106080, Note_off_c, 9, 82, 47
5, 106080, Note_off_c, 9, 37, 95
5, 106080, Note_off_c, 9, 36, 95
5, 106080, Note_on_c, 9, 42, 95
5, 106080, Note_on_c, 9, 82, 47
5, 106320, Note_off_c, 9, 42, 95
5, 106320, Note_off_c, 9, 82, 47
5, 106320, Note_on_c, 9, 82, 47
5, 106560, Note_off_c, 9, 82, 47
5, 106560, Note_on_c, 9, 42, 95
5, 106560, Note_on_c, 9, 82, 47
5, 106560, Note_on_c, 9, 37, 95
5, 106560, Note_on_c, 9, 36, 95
5, 107040, Note_off_c, 9, 42, 95
5, 107040, Note_off_c, 9, 82, 47
5, 107040, Note_off_c, 9, 37, 95
5, 107040, Note_off_c, 9, 36, 95
5, 107040, Note_on_c, 9, 46, 95
5, 107040, Note_on_c, 9, 82, 47
5, 107040, Note_on_c, 9, 36, 95
5, 107280, Note_off_c, 9, 46, 95
5, 107280, Note_off_c, 9, 82, 47
5, 107280, Note_off_c, 9, 36, 95
5, 107280, Note_on_c, 9, 82, 47
5, 107520, Note_off_c, 9, 82, 47
5, 107520, Note_on_c, 9, 42, 95
5, 107520, Note_on_c, 9, 82, 47
5, 107520, Note_on_c, 9, 37, 95
5, 107520, Note_on_c, 9, 36, 95
5, 108000, Note_off_c, 9, 42, 95
5, 108000, Note_off_c, 9, 82, 47
5, 108000, Note_off_c, 9, 37, 95
5, 108000, Note_off_c, 9, 36, 95
5, 108000, Note_on_c, 9, 42, 95
5, 108000, Note_on_c, 9, 82, 47
5, 108240, Note_off_c, 9, 42, 95
5, 108240, Note_off_c, 9, 82, 47
5, 108240, Note_on_c, 9, 82, 47
5, 108480, Note_off_c, 9, 82, 47
5, 108480, Note_on_c, 9, 42, 95
5, 108480, Note_on_c, 9, 82, 47
5, 108480, Note_on_c, 9, 37, 95
5, 108960, Note_off_c, 9, 42, 95
5, 108960, Note_off_c, 9, 82, 47
5, 108960, Note_off_c, 9, 37, 95
5, 108960, Note_on_c, 9, 42, 95
5, 108960, Note_on_c, 9, 82, 47
5, 108960, Note_on_c, 9, 36, 95
5, 109200, Note_off_c, 9, 42, 95
5, 109200, Note_off_c, 9, 82, 47
5, 109200, Note_off_c, 9, 36, 95
5, 109200, Note_on_c, 9, 82, 47
5, 109440, Note_off_c, 9, 82, 47
5, 109440, Note_on_c, 9, 42, 95
5, 109440, Note_on_c, 9, 82, 47
5, 109440, Note_on_c, 9, 37, 95
5, 109920, Note_off_c, 9, 42, 95
5, 109920, Note_off_c, 9, 82, 47
5, 109920, Note_off_c, 9, 37, 95
5, 109920, Note_on_c, 9, 42, 95
5, 109920, Note_on_c, 9, 82, 47
5, 110160, Note_off_c, 9, 42, 95
5, 110160, Note_off_c, 9, 82, 47
5, 110160, Note_on_c, 9, 82, 47
5, 110400, Note_off_c, 9, 82, 47
5, 110400, Note_on_c, 9, 42, 95
5, 110400, Note_on_c, 9, 82, 47
5, 110400, Note_on_c, 9, 37, 95
5, 110400, Note_on_c, 9, 36, 95
5, 110880, Note_off_c, 9, 42, 95
5, 110880, Note_off_c, 9, 82, 47
5, 110880, Note_off_c, 9, 37, 95
5, 110880, Note_off_c, 9, 36, 95
5, 110880, Note_on_c, 9, 42, 95
5, 110880, Note_on_c, 9, 82, 47
5, 111120, Note_off_c, 9, 42, 95
5, 111120, Note_off_c, 9, 82, 47
5, 111120, Note_on_c, 9, 82, 47
5, 111360, Note_off_c, 9, 82, 47
5, 111360, Note_on_c, 9, 42, 95
5, 111360, Note_on_c, 9, 82, 47
5, 111360, Note_on_c, 9, 37, 95
5, 111840, Note_off_c, 9, 42, 95
5, 111840, Note_off_c, 9, 82, 47
5, 111840, Note_off_c, 9, 37, 95
5, 111840, Note_on_c, 9, 42, 95
5, 111840, Note_on_c, 9, 82, 47
5, 112080, Note_off_c, 9, 42, 95
5, 112080, Note_off_c, 9, 82, 47
5, 112080, Note_on_c, 9, 82, 47
5, 112320, Note_off_c, 9, 82, 47
5, 112320, Note_on_c, 9, 42, 95
5, 112320, Note_on_c, 9, 82, 47
5, 112320, Note_on_c, 9, 37, 95
5, 112800, Note_off_c, 9, 42, 95
5, 112800, Note_off_c, 9, 82, 47
5, 112800, Note_off_c, 9, 37, 95
5, 112800, Note_on_c, 9, 42, 95
5, 112800, Note_on_c, 9, 82, 47
5, 112800, Note_on_c, 9, 36, 95
5, 113040, Note_off_c, 9, 42, 95
5, 113040, Note_off_c, 9, 82, 47
5, 113040, Note_off_c, 9, 36, 95
5, 113040, Note_on_c, 9, 82, 47
5, 113280, Note_off_c, 9, 82, 47
5, 113280, Note_on_c, 9, 42, 95
5, 113280, Note_on_c, 9, 82, 47
5, 113280, Note_on_c, 9, 37, 95
5, 113280, Note_on_c, 9, 36, 95
5, 113760, Note_off_c, 9, 42, 95
5, 113760, Note_off_c, 9, 82, 47
5, 113760, Note_off_c, 9, 37, 95
5, 113760, Note_off_c, 9, 36, 95
5, 113760, Note_on_c, 9, 42, 95
5, 113760, Note_on_c, 9, 82, 47
5, 114000, Note_off_c, 9, 42, 95
5, 114000, Note_off_c, 9, 82, 47
5, 114000, Note_on_c, 9, 82, 47
5, 114240, Note_off_c, 9, 82, 47
5, 114240, Note_on_c, 9, 42, 95
5, 114240, Note_on_c, 9, 82, 47
5, 114240, Note_on_c, 9, 37, 95
5, 114240, Note_on_c, 9, 36, 95
5, 114720, Note_off_c, 9, 42, 95
5, 114720, Note_off_c, 9, 82, 47
5, 114720, Note_off_c, 9, 37, 95
5, 114720, Note_off_c, 9, 36, 95
5, 114720, Note_on_c, 9, 42, 95
5, 114720, Note_on_c, 9, 82, 47
5, 114720, Note_on_c, 9, 36, 95
5, 114960, Note_off_c, 9, 42, 95
5, 114960, Note_off_c, 9, 82, 47
5, 114960, Note_off_c, 9, 36, 95
5, 114960, Note_on_c, 9, 82, 47
5, 115200, Note_off_c, 9, 82, 47
5, 115200, Note_on_c, 9, 42, 95
5, 115200, Note_on_c, 9, 82, 47
5, 115200, Note_on_c, 9, 37, 95
5, 115200, Note_on_c, 9, 36, 95
5, 115680, Note_off_c, 9, 42, 95
5, 115680, Note_off_c, 9, 82, 47
5, 115680, Note_off_c, 9, 37, 95
5, 115680, Note_off_c, 9, 36, 95
5, 115680, Note_on_c, 9, 42, 95
5, 115680, Note_on_c, 9, 82, 47
5, 115920, Note_off_c, 9, 42, 95
5, 115920, Note_off_c, 9, 82, 47
5, 115920, Note_on_c, 9, 82, 47
5, 116160, Note_off_c, 9, 82, 47
5, 116160, Note_on_c, 9, 42, 95
5, 116160, Note_on_c, 9, 82, 47
5, 116160, Note_on_c, 9, 37, 95
5, 116640, Note_off_c, 9, 42, 95
5, 116640, Note_off_c, 9, 82, 47
5, 116640, Note_off_c, 9, 37, 95
5, 116640, Note_on_c, 9, 42, 95
5, 116640, Note_on_c, 9, 82, 47
5, 116640, Note_on_c, 9, 36, 95
5, 116880, Note_off_c, 9, 42, 95
5, 116880, Note_off_c, 9, 82, 47
5, 116880, Note_off_c, 9, 36, 95
5, 116880, Note_on_c, 9, 82, 47
5, 117120, Note_off_c, 9, 82, 47
5, 117120, Note_on_c, 9, 42, 95
5, 117120, Note_on_c, 9, 82, 47
5, 117120, Note_on_c, 9, 37, 95
5, 117600, Note_off_c, 9, 42, 95
5, 117600, Note_off_c, 9, 82, 47
5, 117600, Note_off_c, 9, 37, 95
5, 117600, Note_on_c, 9, 42, 95
5, 117600, Note_on_c, 9, 82, 47
5, 117840, Note_off_c, 9, 42, 95
5, 117840, Note_off_c, 9, 82, 47
5, 117840, Note_on_c, 9, 82, 47
5, 118080, Note_off_c, 9, 82, 47
5, 118080, Note_on_c, 9, 42, 95
5, 118080, Note_on_c, 9, 82, 47
5, 118080, Note_on_c, 9, 37, 95
5, 118080, Note_on_c, 9, 36, 95
5, 118560, Note_off_c, 9, 42, 95
5, 118560, Note_off_c, 9, 82, 47
5, 118560, Note_off_c, 9, 37, 95
5, 118560, Note_off_c, 9, 36, 95
5, 118560, Note_on_c, 9, 42, 95
5, 118560, Note_on_c, 9, 82, 47
5, 118800, Note_off_c, 9, 42, 95
5, 118800, Note_off_c, 9, 82, 47
5, 118800, Note_on_c, 9, 82, 47
5, 119040, Note_off_c, 9, 82, 47
5, 119040, Note_on_c, 9, 42, 95
5, 119040, Note_on_c, 9, 82, 47
5, 119040, Note_on_c, 9, 37, 95
5, 119520, Note_off_c, 9, 42, 95
5, 119520, Note_off_c, 9, 82, 47
5, 119520, Note_off_c, 9, 37, 95
5, 119520, Note_on_c, 9, 42, 95
5, 119520, Note_on_c, 9, 82, 47
5, 119760, Note_off_c, 9, 42, 95
5, 119760, Note_off_c, 9, 82, 47
5, 119760, Note_on_c, 9, 82, 47
5, 120000, Note_off_c, 9, 82, 47
5, 120000, Note_on_c, 9, 42, 95
5, 120000, Note_on_c, 9, 82, 47
5, 120000, Note_on_c, 9, 37, 95
5, 120480, Note_off_c, 9, 42, 95
5, 120480, Note_off_c, 9, 82, 47
5, 120480, Note_off_c, 9, 37, 95
5, 120480, Note_on_c, 9, 42, 95
5, 120480, Note_on_c, 9, 82, 47
5, 120480, Note_on_c, 9, 36, 95
5, 120720, Note_off_c, 9, 42, 95
5, 120720, Note_off_c, 9, 82, 47
5, 120720, Note_off_c, 9, 36, 95
5, 120720, Note_on_c, 9, 82, 47
5, 120960, Note_off_c, 9, 82, 47
5, 120960, Note_on_c, 9, 42, 95
5, 120960, Note_on_c, 9, 82, 47
5, 120960, Note_on_c, 9, 37, 95
5, 120960, Note_on_c, 9, 36, 95
5, 121440, Note_off_c, 9, 42, 95
5, 121440, Note_off_c, 9, 82, 47
5, 121440, Note_off_c, 9, 37, 95
5, 121440, Note_off_c, 9, 36, 95
5, 121440, Note_on_c, 9, 42, 95
5, 121440, Note_on_c, 9, 82, 47
5, 121680, Note_off_c, 9, 42, 95
5, 121680, Note_off_c, 9, 82, 47
5, 121680, Note_on_c, 9, 82, 47
5, 121920, Note_off_c, 9, 82, 47
5, 121920, Note_on_c, 9, 42, 95
5, 121920, Note_on_c, 9, 82, 47
5, 121920, Note_on_c, 9, 37, 95
5, 121920, Note_on_c, 9, 36, 95
5, 122400, Note_off_c, 9, 42, 95
5, 122400, Note_off_c, 9, 82, 47
5, 122400, Note_off_c, 9, 37, 95
5, 122400, Note_off_c, 9, 36, 95
5, 122400, Note_on_c, 9, 46, 95
5, 122400, Note_on_c, 9, 82, 47
5, 122400, Note_on_c, 9, 36, 95
5, 122640, Note_off_c, 9, 46, 95
5, 122640, Note_off_c, 9, 82, 47
5, 122640, Note_off_c, 9, 36, 95
5, 122640, Note_on_c, 9, 82, 47
5, 122880, Note_off_c, 9, 82, 47
5, 122880, Note_on_c, 9, 42, 95
5, 122880, Note_on_c, 9, 82, 47
5, 122880, Note_on_c, 9, 37, 95
5, 122880, Note_on_c, 9, 36, 95
5, 123360, Note_off_c, 9, 42, 95
5, 123360, Note_off_c, 9, 82, 47
5, 123360, Note_off_c, 9, 37, 95
5, 123360, Note_off_c, 9, 36, 95
5, 123360, Note_on_c, 9, 42, 95
5, 123360, Note_on_c, 9, 82, 47
5, 123600, Note_off_c, 9, 42, 95
5, 123600, Note_off_c, 9, 82, 47
5, 123600, Note_on_c, 9, 82, 47
5, 123840, Note_off_c, 9, 82, 47
5, 123840, Note_on_c, 9, 42, 95
5, 123840, Note_on_c, 9, 82, 47
5, 123840, Note_on_c, 9, 37, 95
5, 124320, Note_off_c, 9, 42, 95
5, 124320, Note_off_c, 9, 82, 47
5, 124320, Note_off_c, 9, 37, 95
5, 124320, Note_on_c, 9, 42, 95
5, 124320, Note_on_c, 9, 82, 47
5, 124320, Note_on_c, 9, 36, 95
5, 124560, Note_off_c, 9, 42, 95
5, 124560, Note_off_c, 9, 82, 47
5, 124560, Note_off_c, 9, 36, 95
5, 124560, Note_on_c, 9, 82, 47
5, 124800, Note_off_c, 9, 82, 47
5, 124800, Note_on_c, 9, 42, 95
5, 124800, Note_on_c, 9, 82, 47
5, 124800, Note_on_c, 9, 37, 95
5, 125280, Note_off_c, 9, 42, 95
5, 125280, Note_off_c, 9, 82, 47
5, 125280, Note_off_c, 9, 37, 95
5, 125280, Note_on_c, 9, 42, 95
5, 125280, Note_on_c, 9, 82, 47
5, 125520, Note_off_c, 9, 42, 95
5, 125520, Note_off_c, 9, 82, 47
5, 125520, Note_on_c, 9, 82, 47
5, 125760, Note_off_c, 9, 82, 47
5, 125760, Note_on_c, 9, 42, 95
5, 125760, Note_on_c, 9, 82, 47
5, 125760, Note_on_c, 9, 37, 95
5, 125760, Note_on_c, 9, 36, 95
5, 126240, Note_off_c, 9, 42, 95
5, 126240, Note_off_c, 9, 82, 47
5, 126240, Note_off_c, 9, 37, 95
5, 126240, Note_off_c, 9, 36, 95
5, 126240, Note_on_c, 9, 42, 95
5, 126240, Note_on_c, 9, 82, 47
5, 126480, Note_off_c, 9, 42, 95
5, 126480, Note_off_c, 9, 82, 47
5, 126480, Note_on_c, 9, 82, 47
5, 126720, Note_off_c, 9, 82, 47
5, 126720, Note_on_c, 9, 42, 95
5, 126720, Note_on_c, 9, 82, 47
5, 126720, Note_on_c, 9, 37, 95
5, 127200, Note_off_c, 9, 42, 95
5, 127200, Note_off_c, 9, 82, 47
5, 127200, Note_off_c, 9, 37, 95
5, 127200, Note_on_c, 9, 42, 95
5, 127200, Note_on_c, 9, 82, 47
5, 127440, Note_off_c, 9, 42, 95
5, 127440, Note_off_c, 9, 82, 47
5, 127440, Note_on_c, 9, 82, 47
5, 127680, Note_off_c, 9, 82, 47
5, 127680, Note_on_c, 9, 42, 95
5, 127680, Note_on_c, 9, 82, 47
5, 127680, Note_on_c, 9, 37, 95
5, 128160, Note_off_c, 9, 42, 95
5, 128160, Note_off_c, 9, 82, 47
5, 128160, Note_off_c, 9, 37, 95
5, 128160, Note_on_c, 9, 42, 95
5, 128160, Note_on_c, 9, 82, 47
5, 128160, Note_on_c, 9, 36, 95
5, 128400, Note_off_c, 9, 42, 95
5, 128400, Note_off_c, 9, 82, 47
5, 128400, Note_off_c, 9, 36, 95
5, 128400, Note_on_c, 9, 82, 47
5, 128640, Note_off_c, 9, 82, 47
5, 128640, Note_on_c, 9, 42, 95
5, 128640, Note_on_c, 9, 82, 47
5, 128640, Note_on_c, 9, 37, 95
5, 128640, Note_on_c, 9, 36, 95
5, 129120, Note_off_c, 9, 42, 95
5, 129120, Note_off_c, 9, 82, 47
5, 129120, Note_off_c, 9, 37, 95
5, 129120, Note_off_c, 9, 36, 95
5, 129120, Note_on_c, 9, 42, 95
5, 129120, Note_on_c, 9, 82, 47
5, 129360, Note_off_c, 9, 42, 95
5, 129360, Note_off_c, 9, 82, 47
5, 129360, Note_on_c, 9, 82, 47
5, 129600, Note_off_c, 9, 82, 47
5, 129600, Note_on_c, 9, 42, 95
5, 129600, Note_on_c, 9, 82, 47
5, 129600, Note_on_c, 9, 37, 95
5, 129600, Note_on_c, 9, 36, 95
5, 130080, Note_off_c, 9, 42, 95
5, 130080, Note_off_c, 9, 82, 47
5, 130080, Note_off_c, 9, 37, 95
5, 130080, Note_off_c, 9, 36, 95
5, 130080, Note_on_c, 9, 42, 95
5, 130080, Note_on_c, 9, 82, 47
5, 130080, Note_on_c, 9, 36, 95
5, 130320, Note_off_c, 9, 42, 95
5, 130320, Note_off_c, 9, 82, 47
5, 130320, Note_off_c, 9, 36, 95
5, 130320, Note_on_c, 9, 82, 47
5, 130560, Note_off_c, 9, 82, 47
5, 130560, Note_on_c, 9, 42, 95
5, 130560, Note_on_c, 9, 82, 47
5, 130560, Note_on_c, 9, 37, 95
5, 130560, Note_on_c, 9, 36, 95
5, 131040, Note_off_c, 9, 42, 95
5, 131040, Note_off_c, 9, 82, 47
5, 131040, Note_off_c, 9, 37, 95
5, 131040, Note_off_c, 9, 36, 95
5, 131040, Note_on_c, 9, 42, 95
5, 131040, Note_on_c, 9, 82, 47
5, 131280, Note_off_c, 9, 42, 95
5, 131280, Note_off_c, 9, 82, 47
5, 131280, Note_on_c, 9, 82, 47
5, 131520, Note_off_c, 9, 82, 47
5, 131520, Note_on_c, 9, 42, 95
5, 131520, Note_on_c, 9, 82, 47
5, 131520, Note_on_c, 9, 37, 95
5, 132000, Note_off_c, 9, 42, 95
5, 132000, Note_off_c, 9, 82, 47
5, 132000, Note_off_c, 9, 37, 95
5, 132000, Note_on_c, 9, 42, 95
5, 132000, Note_on_c, 9, 82, 47
5, 132000, Note_on_c, 9, 36, 95
5, 132240, Note_off_c, 9, 42, 95
5, 132240, Note_off_c, 9, 82, 47
5, 132240, Note_off_c, 9, 36, 95
5, 132240, Note_on_c, 9, 82, 47
5, 132480, Note_off_c, 9, 82, 47
5, 132480, Note_on_c, 9, 42, 95
5, 132480, Note_on_c, 9, 82, 47
5, 132480, Note_on_c, 9, 37, 95
5, 132960, Note_off_c, 9, 42, 95
5, 132960, Note_off_c, 9, 82, 47
5, 132960, Note_off_c, 9, 37, 95
5, 132960, Note_on_c, 9, 42, 95
5, 132960, Note_on_c, 9, 82, 47
5, 133200, Note_off_c, 9, 42, 95
5, 133200, Note_off_c, 9, 82, 47
5, 133200, Note_on_c, 9, 82, 47
5, 133440, Note_off_c, 9, 82, 47
5, 133440, Note_on_c, 9, 42, 95
5, 133440, Note_on_c, 9, 82, 47
5, 133440, Note_on_c, 9, 37, 95
5, 133440, Note_on_c, 9, 36, 95
5, 133920, Note_off_c, 9, 42, 95
5, 133920, Note_off_c, 9, 82, 47
5, 133920, Note_off_c, 9, 37, 95
5, 133920, Note_off_c, 9, 36, 95
5, 133920, Note_on_c, 9, 42, 95
5, 133920, Note_on_c, 9, 82, 47
5, 134160, Note_off_c, 9, 42, 95
5, 134160, Note_off_c, 9, 82, 47
5, 134160, Note_on_c, 9, 82, 47
5, 134400, Note_off_c, 9, 82, 47
5, 134400, Note_on_c, 9, 42, 95
5, 134400, Note_on_c, 9, 82, 47
5, 134400, Note_on_c, 9, 37, 95
5, 134880, Note_off_c, 9, 42, 95
5, 134880, Note_off_c, 9, 82, 47
5, 134880, Note_off_c, 9, 37, 95
5, 134880, Note_on_c, 9, 42, 95
5, 134880, Note_on_c, 9, 82, 47
5, 135120, Note_off_c, 9, 42, 95
5, 135120, Note_off_c, 9, 82, 47
5, 135120, Note_on_c, 9, 82, 47
5, 135360, Note_off_c, 9, 82, 47
5, 135360, Note_on_c, 9, 42, 95
5, 135360, Note_on_c, 9, 82, 47
5, 135360, Note_on_c, 9, 37, 95
5, 135840, Note_off_c, 9, 42, 95
5, 135840, Note_off_c, 9, 82, 47
5, 135840, Note_off_c, 9, 37, 95
5, 135840, Note_on_c, 9, 42, 95
5, 135840, Note_on_c, 9, 82, 47
5, 135840, Note_on_c, 9, 36, 95
5, 136080, Note_off_c, 9, 42, 95
5, 136080, Note_off_c, 9, 82, 47
5, 136080, Note_off_c, 9, 36, 95
5, 136080, Note_on_c, 9, 82, 47
5, 136320, Note_off_c, 9, 82, 47
5, 136320, Note_on_c, 9, 42, 95
5, 136320, Note_on_c, 9, 82, 47
5, 136320, Note_on_c, 9, 37, 95
5, 136320, Note_on_c, 9, 36, 95
5, 136800, Note_off_c, 9, 42, 95
5, 136800, Note_off_c, 9, 82, 47
5, 136800, Note_off_c, 9, 37, 95
5, 136800, Note_off_c, 9, 36, 95
5, 136800, Note_on_c, 9, 42, 95
5, 136800, Note_on_c, 9, 82, 47
5, 137040, Note_off_c, 9, 42, 95
5, 137040, Note_off_c, 9, 82, 47
5, 137040, Note_on_c, 9, 82, 47
5, 137280, Note_off_c, 9, 82, 47
5, 137280, Note_on_c, 9, 42, 95
5, 137280, Note_on_c, 9, 82, 47
5, 137280, Note_on_c, 9, 37, 95
5, 137280, Note_on_c, 9, 36, 95
5, 137760, Note_off_c, 9, 42, 95
5, 137760, Note_off_c, 9, 82, 47
5, 137760, Note_off_c, 9, 37, 95
5, 137760, Note_off_c, 9, 36, 95
5, 137760, Note_on_c, 9, 46, 95
5, 137760, Note_on_c, 9, 82, 47
5, 137760, Note_on_c, 9, 36, 95
5, 138000, Note_off_c, 9, 46, 95
5, 138000, Note_off_c, 9, 82, 47
5, 138000, Note_off_c, 9, 36, 95
5, 138000, Note_on_c, 9, 82, 47
5, 138240, Note_off_c, 9, 82, 47
5, 138240, Note_on_c, 9, 42, 95
5, 138240, Note_on_c, 9, 82, 47
5, 138240, Note_on_c, 9, 37, 95
5, 138240, Note_on_c, 9, 36, 95
5, 138720, Note_off_c, 9, 42, 95
5, 138720, Note_off_c, 9, 82, 47
5, 138720, Note_off_c, 9, 37, 95
5, 138720, Note_off_c, 9, 36, 95
5, 138720, Note_on_c, 9, 42, 95
5, 138720, Note_on_c, 9, 82, 47
5, 138960, Note_off_c, 9, 42, 95
5, 138960, Note_off_c, 9, 82, 47
5, 138960, Note_on_c, 9, 82, 47
5, 139200, Note_off_c, 9, 82, 47
5, 139200, Note_on_c, 9, 42, 95
5, 139200, Note_on_c, 9, 82, 47
5, 139200, Note_on_c, 9, 37, 95
5, 139680, Note_off_c, 9, 42, 95
5, 139680, Note_off_c, 9, 82, 47
5, 139680, Note_off_c, 9, 37, 95
5, 139680, Note_on_c, 9, 42, 95
5, 139680, Note_on_c, 9, 82, 47
5, 139680, Note_on_c, 9, 36, 95
5, 139920, Note_off_c, 9, 42, 95
5, 139920, Note_off_c, 9, 82, 47
5, 139920, Note_off_c, 9, 36, 95
5, 139920, Note_on_c, 9, 82, 47
5, 140160, Note_off_c, 9, 82, 47
5, 140160, Note_on_c, 9, 42, 95
5, 140160, Note_on_c, 9, 82, 47
5, 140160, Note_on_c, 9, 37, 95
5, 140640, Note_off_c, 9, 42, 95
5, 140640, Note_off_c, 9, 82, 47
5, 140640, Note_off_c, 9, 37, 95
5, 140640, Note_on_c, 9, 42, 95
5, 140640, Note_on_c, 9, 82, 47
5, 140880, Note_off_c, 9, 42, 95
5, 140880, Note_off_c, 9, 82, 47
5, 140880, Note_on_c, 9, 82, 47
5, 141120, Note_off_c, 9, 82, 47
5, 141120, Note_on_c, 9, 42, 95
5, 141120, Note_on_c, 9, 82, 47
5, 141120, Note_on_c, 9, 37, 95
5, 141120, Note_on_c, 9, 36, 95
5, 141600, Note_off_c, 9, 42, 95
5, 141600, Note_off_c, 9, 82, 47
5, 141600, Note_off_c, 9, 37, 95
5, 141600, Note_off_c, 9, 36, 95
5, 141600, Note_on_c, 9, 42, 95
5, 141600, Note_on_c, 9, 82, 47
5, 141840, Note_off_c, 9, 42, 95
5, 141840, Note_off_c, 9, 82, 47
5, 141840, Note_on_c, 9, 82, 47
5, 142080, Note_off_c, 9, 82, 47
5, 142080, Note_on_c, 9, 42, 95
5, 142080, Note_on_c, 9, 82, 47
5, 142080, Note_on_c, 9, 37, 95
5, 142560, Note_off_c, 9, 42, 95
5, 142560, Note_off_c, 9, 82, 47
5, 142560, Note_off_c, 9, 37, 95
5, 142560, Note_on_c, 9, 42, 95
5, 142560, Note_on_c, 9, 82, 47
5, 142800, Note_off_c, 9, 42, 95
5, 142800, Note_off_c, 9, 82, 47
5, 142800, Note_on_c, 9, 82, 47
5, 143040, Note_off_c, 9, 82, 47
5, 143040, Note_on_c, 9, 42, 95
5, 143040, Note_on_c, 9, 82, 47
5, 143040, Note_on_c, 9, 37, 95
5, 143520, Note_off_c, 9, 42, 95
5, 143520, Note_off_c, 9, 82, 47
5, 143520, Note_off_c, 9, 37, 95
5, 143520, Note_on_c, 9, 42, 95
5, 143520, Note_on_c, 9, 82, 47
5, 143520, Note_on_c, 9, 36, 95
5, 143760, Note_off_c, 9, 42, 95
5, 143760, Note_off_c, 9, 82, 47
5, 143760, Note_off_c, 9, 36, 95
5, 143760, Note_on_c, 9, 82, 47
5, 144000, Note_off_c, 9, 82, 47
5, 144000, Note_on_c, 9, 42, 95
5, 144000, Note_on_c, 9, 82, 47
5, 144000, Note_on_c, 9, 37, 95
5, 144000, Note_on_c, 9, 36, 95
5, 144480, Note_off_c, 9, 42, 95
5, 144480, Note_off_c, 9, 82, 47
5, 144480, Note_off_c, 9, 37, 95
5, 144480, Note_off_c, 9, 36, 95
5, 144480, Note_on_c, 9, 42, 95
5, 144480, Note_on_c, 9, 82, 47
5, 144720, Note_off_c, 9, 42, 95
5, 144720, Note_off_c, 9, 82, 47
5, 144720, Note_on_c, 9, 82, 47
5, 144960, Note_off_c, 9, 82, 47
5, 144960, Note_on_c, 9, 42, 95
5, 144960, Note_on_c, 9, 82, 47
5, 144960, Note_on_c, 9, 37, 95
5, 144960, Note_on_c, 9, 36, 95
5, 145440, Note_off_c, 9, 42, 95
5, 145440, Note_off_c, 9, 82, 47
5, 145440, Note_off_c, 9, 37, 95
5, 145440, Note_off_c, 9, 36, 95
5, 145440, Note_on_c, 9, 42, 95
5, 145440, Note_on_c, 9, 82, 47
5, 145440, Note_on_c, 9, 36, 95
5, 145680, Note_off_c, 9, 42, 95
5, 145680, Note_off_c, 9, 82, 47
5, 145680, Note_off_c, 9, 36, 95
5, 145680, Note_on_c, 9, 82, 47
5, 145920, Note_off_c, 9, 82, 47
5, 145920, Note_on_c, 9, 42, 95
5, 145920, Note_on_c, 9, 82, 47
5, 145920, Note_on_c, 9, 37, 95
5, 145920, Note_on_c, 9, 36, 95
5, 146400, Note_off_c, 9, 42, 95
5, 146400, Note_off_c, 9, 82, 47
5, 146400, Note_off_c, 9, 37, 95
5, 146400, Note_off_c, 9, 36, 95
5, 146400, Note_on_c, 9, 42, 95
5, 146400, Note_on_c, 9, 82, 47
5, 146640, Note_off_c, 9, 42, 95
5, 146640, Note_off_c, 9, 82, 47
5, 146640, Note_on_c, 9, 82, 47
5, 146880, Note_off_c, 9, 82, 47
5, 146880, Note_on_c, 9, 42, 95
5, 146880, Note_on_c, 9, 82, 47
5, 146880, Note_on_c, 9, 37, 95
5, 147360, Note_off_c, 9, 42, 95
5, 147360, Note_off_c, 9, 82, 47
5, 147360, Note_off_c, 9, 37, 95
5, 147360, Note_on_c, 9, 42, 95
5, 147360, Note_on_c, 9, 82, 47
5, 147360, Note_on_c, 9, 36, 95
5, 147600, Note_off_c, 9, 42, 95
5, 147600, Note_off_c, 9, 82, 47
5, 147600, Note_off_c, 9, 36, 95
5, 147600, Note_on_c, 9, 82, 47
5, 147840, Note_off_c, 9, 82, 47
5, 147840, Note_on_c, 9, 42, 95
5, 147840, Note_on_c, 9, 82, 47
5, 147840, Note_on_c, 9, 37, 95
5, 148320, Note_off_c, 9, 42, 95
5, 148320, Note_off_c, 9, 82, 47
5, 148320, Note_off_c, 9, 37, 95
5, 148320, Note_on_c, 9, 42, 95
5, 148320, Note_on_c, 9, 82, 47
5, 148560, Note_off_c, 9, 42, 95
5, 148560, Note_off_c, 9, 82, 47
5, 148560, Note_on_c, 9, 82, 47
5, 148800, Note_off_c, 9, 82, 47
5, 148800, Note_on_c, 9, 42, 95
5, 148800, Note_on_c, 9, 82, 47
5, 148800, Note_on_c, 9, 37, 95
5, 148800, Note_on_c, 9, 36, 95
5, 149280, Note_off_c, 9, 42, 95
5, 149280, Note_off_c, 9, 82, 47
5, 149280, Note_off_c, 9, 37, 95
5, 149280, Note_off_c, 9, 36, 95
5, 149280, Note_on_c, 9, 42, 95
5, 149280, Note_on_c, 9, 82, 47
5, 149520, Note_off_c, 9, 42, 95
5, 149520, Note_off_c, 9, 82, 47
5, 149520, Note_on_c, 9, 82, 47
5, 149760, Note_off_c, 9, 82, 47
5, 149760, Note_on_c, 9, 42, 95
5, 149760, Note_on_c, 9, 82, 47
5, 149760, Note_on_c, 9, 37, 95
5, 150240, Note_off_c, 9, 42, 95
5, 150240, Note_off_c, 9, 82, 47
5, 150240, Note_off_c, 9, 37, 95
5, 150240, Note_on_c, 9, 42, 95
5, 150240, Note_on_c, 9, 82, 47
5, 150480, Note_off_c, 9, 42, 95
5, 150480, Note_off_c, 9, 82, 47
5, 150480, Note_on_c, 9, 82, 47
5, 150720, Note_off_c, 9, 82, 47
5, 150720, Note_on_c, 9, 42, 95
5, 150720, Note_on_c, 9, 82, 47
5, 150720, Note_on_c, 9, 37, 95
5, 151200, Note_off_c, 9, 42, 95
5, 151200, Note_off_c, 9, 82, 47
5, 151200, Note_off_c, 9, 37, 95
5, 151200, Note_on_c, 9, 42, 95
5, 151200, Note_on_c, 9, 82, 47
5, 151200, Note_on_c, 9, 36, 95
5, 151440, Note_off_c, 9, 42, 95
5, 151440, Note_off_c, 9, 82, 47
5, 151440, Note_off_c, 9, 36, 95
5, 151440, Note_on_c, 9, 82, 47
5, 151680, Note_off_c, 9, 82, 47
5, 151680, Note_on_c, 9, 42, 95
5, 151680, Note_on_c, 9, 82, 47
5, 151680, Note_on_c, 9, 37, 95
5, 151680, Note_on_c, 9, 36, 95
5, 152160, Note_off_c, 9, 42, 95
5, 152160, Note_off_c, 9, 82, 47
5, 152160, Note_off_c, 9, 37, 95
5, 152160, Note_off_c, 9, 36, 95
5, 152160, Note_on_c, 9, 42, 95
5, 152160, Note_on_c, 9, 82, 47
5, 152400, Note_off_c, 9, 42, 95
5, 152400, Note_off_c, 9, 82, 47
5, 152400, Note_on_c, 9, 82, 47
5, 152640, Note_off_c, 9, 82, 47
5, 152640, Note_on_c, 9, 42, 95
5, 152640, Note_on_c, 9, 82, 47
5, 152640, Note_on_c, 9, 37, 95
5, 152640, Note_on_c, 9, 36, 95
5, 153120, Note_off_c, 9, 42, 95
5, 153120, Note_off_c, 9, 82, 47
5, 153120, Note_off_c, 9, 37, 95
5, 153120, Note_off_c, 9, 36, 95
5, 153120, Note_on_c, 9, 46, 95
5, 153120, Note_on_c, 9, 82, 47
5, 153120, Note_on_c, 9, 36, 95
5, 153360, Note_off_c, 9, 46, 95
5, 153360, Note_off_c, 9, 82, 47
5, 153360, Note_off_c, 9, 36, 95
5, 153360, Note_on_c, 9, 82, 47
5, 153600, Note_off_c, 9, 82, 47
5, 153600, Note_on_c, 9, 42, 95
5, 153600, Note_on_c, 9, 82, 47
5, 153600, Note_on_c, 9, 37, 95
5, 153600, Note_on_c, 9, 36, 95
5, 154080, Note_off_c, 9, 42, 95
5, 154080, Note_off_c, 9, 82, 47
5, 154080, Note_off_c, 9, 37, 95
5, 154080, Note_off_c, 9, 36, 95
5, 154080, Note_on_c, 9, 42, 95
5, 154080, Note_on_c, 9, 82, 47
5, 154320, Note_off_c, 9, 42, 95
5, 154320, Note_off_c, 9, 82, 47
5, 154320, Note_on_c, 9, 82, 47
5, 154560, Note_off_c, 9, 82, 47
5, 154560, Note_on_c, 9, 42, 95
5, 154560, Note_on_c, 9, 82, 47
5, 154560, Note_on_c, 9, 37, 95
5, 155040, Note_off_c, 9, 42, 95
5, 155040, Note_off_c, 9, 82, 47
5, 155040, Note_off_c, 9, 37, 95
5, 155040, Note_on_c, 9, 42, 95
5, 155040, Note_on_c, 9, 82, 47
5, 155040, Note_on_c, 9, 36, 95
5, 155280, Note_off_c, 9, 42, 95
5, 155280, Note_off_c, 9, 82, 47
5, 155280, Note_off_c, 9, 36, 95
5, 155280, Note_on_c, 9, 82, 47
5, 155520, Note_off_c, 9, 82, 47
5, 155520, Note_on_c, 9, 42, 95
5, 155520, Note_on_c, 9, 82, 47
5, 155520, Note_on_c, 9, 37, 95
5, 156000, Note_off_c, 9, 42, 95
5, 156000, Note_off_c, 9, 82, 47
5, 156000, Note_off_c, 9, 37, 95
5, 156000, Note_on_c, 9, 42, 95
5, 156000, Note_on_c, 9, 82, 47
5, 156240, Note_off_c, 9, 42, 95
5, 156240, Note_off_c, 9, 82, 47
5, 156240, Note_on_c, 9, 82, 47
5, 156480, Note_off_c, 9, 82, 47
5, 156480, Note_on_c, 9, 42, 95
5, 156480, Note_on_c, 9, 82, 47
5, 156480, Note_on_c, 9, 37, 95
5, 156480, Note_on_c, 9, 36, 95
5, 156960, Note_off_c, 9, 42, 95
5, 156960, Note_off_c, 9, 82, 47
5, 156960, Note_off_c, 9, 37, 95
5, 156960, Note_off_c, 9, 36, 95
5, 156960, Note_on_c, 9, 42, 95
5, 156960, Note_on_c, 9, 82, 47
5, 157200, Note_off_c, 9, 42, 95
5, 157200, Note_off_c, 9, 82, 47
5, 157200, Note_on_c, 9, 82, 47
5, 157440, Note_off_c, 9, 82, 47
5, 157440, Note_on_c, 9, 42, 95
5, 157440, Note_on_c, 9, 82, 47
5, 157440, Note_on_c, 9, 37, 95
5, 157920, Note_off_c, 9, 42, 95
5, 157920, Note_off_c, 9, 82, 47
5, 157920, Note_off_c, 9, 37, 95
5, 157920, Note_on_c, 9, 42, 95
5, 157920, Note_on_c, 9, 82, 47
5, 158160, Note_off_c, 9, 42, 95
5, 158160, Note_off_c, 9, 82, 47
5, 158160, Note_on_c, 9, 82, 47
5, 158400, Note_off_c, 9, 82, 47
5, 158400, Note_on_c, 9, 42, 95
5, 158400, Note_on_c, 9, 82, 47
5, 158400, Note_on_c, 9, 37, 95
5, 158880, Note_off_c, 9, 42, 95
5, 158880, Note_off_c, 9, 82, 47
5, 158880, Note_off_c, 9, 37, 95
5, 158880, Note_on_c, 9, 42, 95
5, 158880, Note_on_c, 9, 82, 47
5, 158880, Note_on_c, 9, 36, 95
5, 159120, Note_off_c, 9, 42, 95
5, 159120, Note_off_c, 9, 82, 47
5, 159120, Note_off_c, 9, 36, 95
5, 159120, Note_on_c, 9, 82, 47
5, 159360, Note_off_c, 9, 82, 47
5, 159360, Note_on_c, 9, 42, 95
5, 159360, Note_on_c, 9, 82, 47
5, 159360, Note_on_c, 9, 37, 95
5, 159360, Note_on_c, 9, 36, 95
5, 159840, Note_off_c, 9, 42, 95
5, 159840, Note_off_c, 9, 82, 47
5, 159840, Note_off_c, 9, 37, 95
5, 159840, Note_off_c, 9, 36, 95
5, 159840, Note_on_c, 9, 42, 95
5, 159840, Note_on_c, 9, 82, 47
5, 160080, Note_off_c, 9, 42, 95
5, 160080, Note_off_c, 9, 82, 47
5, 160080, Note_on_c, 9, 82, 47
5, 160320, Note_off_c, 9, 82, 47
5, 160320, Note_on_c, 9, 42, 95
5, 160320, Note_on_c, 9, 82, 47
5, 160320, Note_on_c, 9, 37, 95
5, 160320, Note_on_c, 9, 36, 95
5, 160800, Note_off_c, 9, 42, 95
5, 160800, Note_off_c, 9, 82, 47
5, 160800, Note_off_c, 9, 37, 95
5, 160800, Note_off_c, 9, 36, 95
5, 160800, Note_on_c, 9, 42, 95
5, 160800, Note_on_c, 9, 82, 47
5, 160800, Note_on_c, 9, 36, 95
5, 161040, Note_off_c, 9, 42, 95
5, 161040, Note_off_c, 9, 82, 47
5, 161040, Note_off_c, 9, 36, 95
5, 161040, Note_on_c, 9, 82, 47
5, 161280, Note_off_c, 9, 82, 47
5, 161280, Note_on_c, 9, 42, 95
5, 161280, Note_on_c, 9, 82, 47
5, 161280, Note_on_c, 9, 37, 95
5, 161280, Note_on_c, 9, 36, 95
5, 161760, Note_off_c, 9, 42, 95
5, 161760, Note_off_c, 9, 82, 47
5, 161760, Note_off_c, 9, 37, 95
5, 161760, Note_off_c, 9, 36, 95
5, 161760, Note_on_c, 9, 42, 95
5, 161760, Note_on_c, 9, 82, 47
5, 162000, Note_off_c, 9, 42, 95
5, 162000, Note_off_c, 9, 82, 47
5, 162000, Note_on_c, 9, 82, 47
5, 162240, Note_off_c, 9, 82, 47
5, 162240, Note_on_c, 9, 42, 95
5, 162240, Note_on_c, 9, 82, 47
5, 162240, Note_on_c, 9, 37, 95
5, 162720, Note_off_c, 9, 42, 95
5, 162720, Note_off_c, 9, 82, 47
5, 162720, Note_off_c, 9, 37, 95
5, 162720, Note_on_c, 9, 42, 95
5, 162720, Note_on_c, 9, 82, 47
5, 162720, Note_on_c, 9, 36, 95
5, 162960, Note_off_c, 9, 42, 95
5, 162960, Note_off_c, 9, 82, 47
5, 162960, Note_off_c, 9, 36, 95
5, 162960, Note_on_c, 9, 82, 47
5, 163200, Note_off_c, 9, 82, 47
5, 163200, Note_on_c, 9, 42, 95
5, 163200, Note_on_c, 9, 82, 47
5, 163200, Note_on_c, 9, 37, 95
5, 163680, Note_off_c, 9, 42, 95
5, 163680, Note_off_c, 9, 82, 47
5, 163680, Note_off_c, 9, 37, 95
5, 163680, Note_on_c, 9, 42, 95
5, 163680, Note_on_c, 9, 82, 47
5, 163920, Note_off_c, 9, 42, 95
5, 163920, Note_off_c, 9, 82, 47
5, 163920, Note_on_c, 9, 82, 47
5, 164160, Note_off_c, 9, 82, 47
5, 164160, Note_on_c, 9, 42, 95
5, 164160, Note_on_c, 9, 82, 47
5, 164160, Note_on_c, 9, 37, 95
5, 164160, Note_on_c, 9, 36, 95
5, 164640, Note_off_c, 9, 42, 95
5, 164640, Note_off_c, 9, 82, 47
5, 164640, Note_off_c, 9, 37, 95
5, 164640, Note_off_c, 9, 36, 95
5, 164640, Note_on_c, 9, 42, 95
5, 164640, Note_on_c, 9, 82, 47
5, 164880, Note_off_c, 9, 42, 95
5, 164880, Note_off_c, 9, 82, 47
5, 164880, Note_on_c, 9, 82, 47
5, 165120, Note_off_c, 9, 82, 47
5, 165120, Note_on_c, 9, 42, 95
5, 165120, Note_on_c, 9, 82, 47
5, 165120, Note_on_c, 9, 37, 95
5, 165600, Note_off_c, 9, 42, 95
5, 165600, Note_off_c, 9, 82, 47
5, 165600, Note_off_c, 9, 37, 95
5, 165600, Note_on_c, 9, 42, 95
5, 165600, Note_on_c, 9, 82, 47
5, 165840, Note_off_c, 9, 42, 95
5, 165840, Note_off_c, 9, 82, 47
5, 165840, Note_on_c, 9, 82, 47
5, 166080, Note_off_c, 9, 82, 47
5, 166080, Note_on_c, 9, 42, 95
5, 166080, Note_on_c, 9, 82, 47
5, 166080, Note_on_c, 9, 37, 95
5, 166560, Note_off_c, 9, 42, 95
5, 166560, Note_off_c, 9, 82, 47
5, 166560, Note_off_c, 9, 37, 95
5, 166560, Note_on_c, 9, 42, 95
5, 166560, Note_on_c, 9, 82, 47
5, 166560, Note_on_c, 9, 36, 95
5, 166800, Note_off_c, 9, 42, 95
5, 166800, Note_off_c, 9, 82, 47
5, 166800, Note_off_c, 9, 36, 95
5, 166800, Note_on_c, 9, 82, 47
5, 167040, Note_off_c, 9, 82, 47
5, 167040, Note_on_c, 9, 42, 95
5, 167040, Note_on_c, 9, 82, 47
5, 167040, Note_on_c, 9, 37, 95
5, 167040, Note_on_c, 9, 36, 95
5, 167520, Note_off_c, 9, 42, 95
5, 167520, Note_off_c, 9, 82, 47
5, 167520, Note_off_c, 9, 37, 95
5, 167520, Note_off_c, 9, 36, 95
5, 167520, Note_on_c, 9, 42, 95
5, 167520, Note_on_c, 9, 82, 47
5, 167760, Note_off_c, 9, 42, 95
5, 167760, Note_off_c, 9, 82, 47
5, 167760, Note_on_c, 9, 82, 47
5, 168000, Note_off_c, 9, 82, 47
5, 168000, Note_on_c, 9, 42, 95
5, 168000, Note_on_c, 9, 82, 47
5, 168000, Note_on_c, 9, 37, 95
5, 168000, Note_on_c, 9, 36, 95
5, 168480, Note_off_c, 9, 42, 95
5, 168480, Note_off_c, 9, 82, 47
5, 168480, Note_off_c, 9, 37, 95
5, 168480, Note_off_c, 9, 36, 95
5, 168480, Note_on_c, 9, 46, 95
5, 168480, Note_on_c, 9, 82, 47
5, 168480, Note_on_c, 9, 36, 95
5, 168720, Note_off_c, 9, 46, 95
5, 168720, Note_off_c, 9, 82, 47
5, 168720, Note_off_c, 9, 36, 95
5, 168720, Note_on_c, 9, 82, 47
5, 168960, Note_off_c, 9, 82, 47
5, 168960, Note_on_c, 9, 42, 95
5, 168960, Note_on_c, 9, 82, 47
5, 168960, Note_on_c, 9, 37, 95
5, 168960, Note_on_c, 9, 36, 95
5, 169440, Note_off_c, 9, 42, 95
5, 169440, Note_off_c, 9, 82, 47
5, 169440, Note_off_c, 9, 37, 95
5, 169440, Note_off_c, 9, 36, 95
5, 169440, Note_on_c, 9, 42, 95
5, 169440, Note_on_c, 9, 82, 47
5, 169680, Note_off_c, 9, 42, 95
5, 169680, Note_off_c, 9, 82, 47
5, 169680, Note_on_c, 9, 82, 47
5, 169920, Note_off_c, 9, 82, 47
5, 169920, Note_on_c, 9, 42, 95
5, 169920, Note_on_c, 9, 82, 47
5, 169920, Note_on_c, 9, 37, 95
5, 170400, Note_off_c, 9, 42, 95
5, 170400, Note_off_c, 9, 82, 47
5, 170400, Note_off_c, 9, 37, 95
5, 170400, Note_on_c, 9, 42, 95
5, 170400, Note_on_c, 9, 82, 47
5, 170400, Note_on_c, 9, 36, 95
5, 170640, Note_off_c, 9, 42, 95
5, 170640, Note_off_c, 9, 82, 47
5, 170640, Note_off_c, 9, 36, 95
5, 170640, Note_on_c, 9, 82, 47
5, 170880, Note_off_c, 9, 82, 47
5, 170880, Note_on_c, 9, 42, 95
5, 170880, Note_on_c, 9, 82, 47
5, 170880, Note_on_c, 9, 37, 95
5, 171360, Note_off_c, 9, 42, 95
5, 171360, Note_off_c, 9, 82, 47
5, 171360, Note_off_c, 9, 37, 95
5, 171360, Note_on_c, 9, 42, 95
5, 171360, Note_on_c, 9, 82, 47
5, 171600, Note_off_c, 9, 42, 95
5, 171600, Note_off_c, 9, 82, 47
5, 171600, Note_on_c, 9, 82, 47
5, 171840, Note_off_c, 9, 82, 47
5, 171840, Note_on_c, 9, 42, 95
5, 171840, Note_on_c, 9, 82, 47
5, 171840, Note_on_c, 9, 37, 95
5, 171840, Note_on_c, 9, 36, 95
5, 172320, Note_off_c, 9, 42, 95
5, 172320, Note_off_c, 9, 82, 47
5, 172320, Note_off_c, 9, 37, 95
5, 172320, Note_off_c, 9, 36, 95
5, 172320, Note_on_c, 9, 42, 95
5, 172320, Note_on_c, 9, 82, 47
5, 172560, Note_off_c, 9, 42, 95
5, 172560, Note_off_c, 9, 82, 47
5, 172560, Note_on_c, 9, 82, 47
5, 172800, Note_off_c, 9, 82, 47
5, 172800, End_track
0, 0, End_of_file
