0, 0, Header, 0, 1, 96
1, 0, Start_track
1, 0, Title_t, "WHAT KIND OF FOOL               ;Barry Gibb / Albhy Galuten"
1, 0, Copyright_t, "(C) 1994 Tune 1000 Corporation  ;1980 Gibb Bros. Music (BMI). Int'l Rights Secured."
1, 0, Time_signature, 4, 2, 24, 8
1, 0, Tempo, 769231
1, 0, Key_signature, 2, "major"
1, 0, System_exclusive, 5, 126, 127, 9, 1, 247
1, 0, Text_t, "Back Vocal"
1, 0, Lyric_t, "ALL rights reserved. Not for broadcast or "
1, 0, Lyric_t, "\015"
1, 0, Lyric_t, "transmission of any kind. "
1, 0, Lyric_t, "\015"
1, 0, Lyric_t, "DO NOT DUPLICATE. NOT FOR RENTAL. "
1, 0, Lyric_t, "\015"
1, 98, Program_c, 0, 4
1, 99, Control_c, 0, 7, 105
1, 99, Control_c, 0, 10, 64
1, 99, Control_c, 0, 11, 127
1, 100, Control_c, 0, 91, 60
1, 100, Control_c, 0, 93, 64
1, 103, Program_c, 1, 35
1, 104, Control_c, 1, 7, 105
1, 104, Control_c, 1, 10, 62
1, 104, Control_c, 1, 11, 127
1, 105, Control_c, 1, 91, 20
1, 105, Control_c, 1, 93, 10
1, 108, Program_c, 2, 25
1, 109, Control_c, 2, 7, 105
1, 109, Control_c, 2, 10, 43
1, 109, Control_c, 2, 11, 127
1, 110, Control_c, 2, 91, 69
1, 110, Control_c, 2, 93, 0
1, 113, Program_c, 3, 24
1, 114, Control_c, 3, 7, 100
1, 114, Control_c, 3, 10, 68
1, 114, Control_c, 3, 11, 127
1, 115, Control_c, 3, 91, 80
1, 115, Control_c, 3, 93, 0
1, 118, Program_c, 4, 25
1, 119, Control_c, 4, 7, 85
1, 119, Control_c, 4, 10, 57
1, 119, Control_c, 4, 11, 127
1, 120, Control_c, 4, 91, 80
1, 120, Control_c, 4, 93, 20
1, 123, Program_c, 5, 26
1, 124, Control_c, 5, 7, 75
1, 124, Control_c, 5, 10, 95
1, 124, Control_c, 5, 11, 127
1, 125, Control_c, 5, 91, 60
1, 125, Control_c, 5, 93, 30
1, 128, Program_c, 6, 49
1, 129, Control_c, 6, 7, 105
1, 129, Control_c, 6, 10, 60
1, 129, Control_c, 6, 11, 127
1, 130, Control_c, 6, 91, 70
1, 130, Control_c, 6, 93, 20
1, 133, Program_c, 7, 56
1, 134, Control_c, 7, 7, 90
1, 134, Control_c, 7, 10, 64
1, 134, Control_c, 7, 11, 127
1, 135, Control_c, 7, 91, 70
1, 135, Control_c, 7, 93, 0
1, 139, Control_c, 9, 7, 105
1, 139, Control_c, 9, 11, 127
1, 140, Control_c, 9, 91, 68
1, 140, Control_c, 9, 93, 0
1, 143, Program_c, 10, 11
1, 144, Control_c, 10, 7, 105
1, 144, Control_c, 10, 10, 95
1, 144, Control_c, 10, 11, 127
1, 145, Control_c, 10, 91, 70
1, 145, Control_c, 10, 93, 40
1, 384, Time_signature, 4, 2, 24, 8
1, 384, Note_on_c, 0, 66, 79
1, 384, Note_on_c, 0, 69, 83
1, 384, Note_on_c, 0, 64, 77
1, 384, Note_on_c, 0, 38, 75
1, 385, Control_c, 0, 1, 0
1, 385, Pitch_bend_c, 0, 8192
1, 431, Note_on_c, 0, 62, 65
1, 479, Note_on_c, 0, 57, 74
1, 527, Note_on_c, 0, 54, 73
1, 622, Note_off_c, 0, 57, 64
1, 623, Note_on_c, 0, 57, 70
1, 720, Note_off_c, 0, 57, 64
1, 721, Note_on_c, 0, 57, 64
1, 767, Note_off_c, 0, 57, 64
1, 767, Note_off_c, 0, 62, 64
1, 767, Note_off_c, 0, 69, 64
1, 767, Note_off_c, 0, 64, 64
1, 767, Note_off_c, 0, 66, 64
1, 767, Note_off_c, 0, 54, 64
1, 767, Note_off_c, 0, 38, 64
1, 769, Note_on_c, 0, 31, 72
1, 769, Note_on_c, 0, 59, 88
1, 817, Note_on_c, 0, 62, 79
1, 865, Note_on_c, 0, 54, 60
1, 912, Note_off_c, 0, 59, 64
1, 913, Note_on_c, 0, 59, 78
1, 1008, Note_off_c, 0, 62, 64
1, 1009, Note_on_c, 0, 62, 63
1, 1057, Note_on_c, 0, 71, 92
1, 1103, Note_on_c, 0, 66, 67
1, 1140, Note_off_c, 0, 66, 64
1, 1140, Note_off_c, 0, 31, 64
1, 1140, Note_off_c, 0, 54, 64
1, 1140, Note_off_c, 0, 59, 64
1, 1140, Note_off_c, 0, 71, 64
1, 1140, Note_off_c, 0, 62, 64
1, 1151, Note_on_c, 0, 38, 71
1, 1151, Note_on_c, 0, 69, 88
1, 1199, Note_on_c, 0, 64, 75
1, 1247, Note_on_c, 0, 66, 70
1, 1295, Note_on_c, 0, 62, 83
1, 1488, Note_off_c, 0, 62, 64
1, 1489, Note_on_c, 0, 62, 91
1, 1533, Note_off_c, 0, 64, 64
1, 1533, Note_off_c, 0, 66, 64
1, 1533, Note_off_c, 0, 38, 64
1, 1533, Note_off_c, 0, 69, 64
1, 1535, Note_on_c, 0, 31, 75
1, 1537, Note_on_c, 0, 66, 73
1, 1583, Note_on_c, 0, 59, 79
1, 1631, Note_on_c, 0, 54, 75
1, 1678, Note_off_c, 0, 59, 64
1, 1679, Note_on_c, 0, 59, 84
1, 1822, Note_off_c, 0, 62, 64
1, 1823, Note_on_c, 0, 62, 98
1, 1847, Note_on_c, 0, 64, 95
1, 1870, Note_off_c, 0, 66, 64
1, 1871, Note_on_c, 0, 66, 113
1, 1914, Note_off_c, 0, 66, 64
1, 1914, Note_off_c, 0, 64, 64
1, 1914, Note_off_c, 0, 59, 64
1, 1914, Note_off_c, 0, 31, 64
1, 1914, Note_off_c, 0, 54, 64
1, 1914, Note_off_c, 0, 62, 64
1, 1920, Note_on_c, 0, 36, 76
1, 1920, Note_on_c, 0, 62, 86
1, 1920, Note_on_c, 0, 67, 85
1, 1967, Note_on_c, 0, 64, 71
1, 2015, Note_on_c, 0, 60, 74
1, 2065, Note_on_c, 0, 55, 81
1, 2207, Note_off_c, 0, 60, 64
1, 2208, Note_on_c, 0, 60, 98
1, 2255, Note_off_c, 0, 64, 64
1, 2256, Note_on_c, 0, 64, 67
1, 2300, Note_off_c, 0, 64, 64
1, 2300, Note_off_c, 0, 60, 64
1, 2300, Note_off_c, 0, 67, 64
1, 2300, Note_off_c, 0, 36, 64
1, 2300, Note_off_c, 0, 55, 64
1, 2300, Note_off_c, 0, 62, 64
1, 2304, Note_on_c, 0, 66, 82
1, 2304, Note_on_c, 0, 57, 75
1, 2304, Note_on_c, 0, 62, 91
1, 2308, Note_on_c, 0, 35, 76
1, 2451, Note_on_c, 0, 60, 78
1, 2452, Note_on_c, 0, 59, 73
1, 2452, Note_on_c, 0, 64, 77
1, 2452, Note_on_c, 0, 55, 79
1, 2453, Note_on_c, 0, 33, 69
1, 2454, Note_off_c, 0, 35, 64
1, 2454, Note_off_c, 0, 62, 64
1, 2454, Note_off_c, 0, 66, 64
1, 2454, Note_off_c, 0, 57, 64
1, 2589, Note_off_c, 0, 59, 64
1, 2589, Note_off_c, 0, 60, 64
1, 2589, Note_off_c, 0, 33, 64
1, 2589, Note_off_c, 0, 64, 64
1, 2589, Note_off_c, 0, 55, 64
1, 2596, Note_on_c, 0, 54, 72
1, 2596, Note_on_c, 0, 59, 72
1, 2597, Note_on_c, 0, 57, 72
1, 2597, Note_on_c, 0, 62, 77
1, 2598, Note_on_c, 0, 31, 70
1, 2802, Lyric_t, "\012"
1, 3051, Lyric_t, "(Boy and Girl) "
1, 3051, Lyric_t, "\015"
1, 3058, Note_off_c, 0, 57, 64
1, 3058, Note_off_c, 0, 54, 64
1, 3058, Note_off_c, 0, 59, 64
1, 3063, Note_off_c, 0, 62, 64
1, 3065, Note_off_c, 0, 31, 64
1, 3072, Note_on_c, 0, 38, 73
1, 3072, Note_on_c, 0, 66, 78
1, 3072, Note_on_c, 0, 69, 80
1, 3072, Note_on_c, 0, 64, 80
1, 3119, Note_on_c, 0, 62, 64
1, 3120, Note_on_c, 4, 54, 33
1, 3121, Pitch_bend_c, 4, 8192
1, 3121, Control_c, 4, 1, 0
1, 3122, Lyric_t, "\226 There "
1, 3122, Note_on_c, 3, 66, 61
1, 3123, Control_c, 3, 1, 0
1, 3123, Pitch_bend_c, 3, 8192
1, 3162, Note_off_c, 3, 66, 64
1, 3167, Note_on_c, 0, 45, 61
1, 3167, Note_on_c, 0, 57, 77
1, 3168, Note_off_c, 4, 54, 64
1, 3169, Lyric_t, "was "
1, 3169, Note_on_c, 3, 66, 69
1, 3169, Note_on_c, 4, 54, 54
1, 3207, Note_off_c, 3, 66, 64
1, 3214, Note_on_c, 0, 54, 78
1, 3215, Note_off_c, 4, 54, 64
1, 3216, Note_on_c, 4, 54, 68
1, 3217, Lyric_t, "a "
1, 3217, Note_on_c, 3, 66, 59
1, 3256, Note_off_c, 3, 66, 64
1, 3261, Note_off_c, 4, 54, 64
1, 3262, Note_on_c, 4, 54, 65
1, 3263, Lyric_t, "time "
1, 3263, Lyric_t, "\015"
1, 3263, Note_on_c, 3, 66, 69
1, 3306, Note_off_c, 3, 66, 64
1, 3309, Note_off_c, 4, 54, 64
1, 3310, Note_on_c, 4, 54, 73
1, 3313, Lyric_t, "when "
1, 3313, Note_on_c, 3, 66, 66
1, 3348, Note_off_c, 3, 66, 64
1, 3358, Note_off_c, 0, 57, 64
1, 3359, Note_on_c, 0, 57, 66
1, 3360, Note_off_c, 4, 54, 64
1, 3361, Lyric_t, "we "
1, 3361, Note_on_c, 3, 66, 71
1, 3361, Note_on_c, 4, 54, 70
1, 3402, Note_off_c, 3, 66, 64
1, 3406, Note_off_c, 0, 57, 64
1, 3407, Note_on_c, 0, 57, 43
1, 3409, Lyric_t, "were "
1, 3409, Note_on_c, 3, 66, 66
1, 3409, Note_off_c, 4, 54, 64
1, 3410, Note_on_c, 4, 54, 67
1, 3440, Note_off_c, 0, 57, 64
1, 3440, Note_off_c, 0, 54, 64
1, 3440, Note_off_c, 0, 62, 64
1, 3440, Note_off_c, 0, 66, 64
1, 3440, Note_off_c, 0, 69, 64
1, 3440, Note_off_c, 0, 38, 64
1, 3440, Note_off_c, 0, 45, 64
1, 3440, Note_off_c, 0, 64, 64
1, 3441, Note_off_c, 3, 66, 64
1, 3455, Note_off_c, 4, 54, 64
1, 3455, Note_on_c, 0, 31, 72
1, 3455, Note_on_c, 0, 59, 98
1, 3456, Note_on_c, 4, 54, 66
1, 3457, Lyric_t, "down "
1, 3457, Note_on_c, 3, 66, 62
1, 3502, Note_on_c, 0, 62, 86
1, 3542, Note_off_c, 3, 66, 64
1, 3550, Note_off_c, 4, 54, 64
1, 3551, Lyric_t, "and "
1, 3551, Note_on_c, 3, 66, 59
1, 3551, Note_on_c, 4, 54, 60
1, 3552, Note_on_c, 0, 54, 62
1, 3586, Note_off_c, 3, 66, 64
1, 3599, Lyric_t, "out. "
1, 3599, Lyric_t, "\015"
1, 3599, Note_on_c, 3, 66, 64
1, 3599, Note_off_c, 0, 59, 64
1, 3600, Note_off_c, 4, 54, 64
1, 3600, Note_on_c, 0, 59, 86
1, 3601, Note_on_c, 4, 54, 54
1, 3696, Lyric_t, "\012"
1, 3743, Note_on_c, 0, 66, 97
1, 3767, Note_on_c, 0, 64, 73
1, 3790, Note_off_c, 0, 62, 64
1, 3791, Note_on_c, 0, 62, 71
1, 3805, Note_off_c, 4, 54, 64
1, 3818, Note_off_c, 3, 66, 64
1, 3836, Note_off_c, 0, 62, 64
1, 3836, Note_off_c, 0, 64, 64
1, 3836, Note_off_c, 0, 59, 64
1, 3836, Note_off_c, 0, 54, 64
1, 3836, Note_off_c, 0, 31, 64
1, 3836, Note_off_c, 0, 66, 64
1, 3840, Note_on_c, 0, 38, 78
1, 3840, Note_on_c, 0, 64, 87
1, 3840, Note_on_c, 0, 69, 91
1, 3887, Note_on_c, 0, 66, 75
1, 3888, Lyric_t, "There "
1, 3888, Note_on_c, 3, 66, 55
1, 3889, Note_on_c, 0, 45, 66
1, 3891, Note_on_c, 4, 54, 45
1, 3931, Note_off_c, 3, 66, 64
1, 3934, Note_off_c, 4, 54, 64
1, 3935, Lyric_t, "was "
1, 3935, Note_on_c, 3, 66, 67
1, 3935, Note_on_c, 4, 54, 55
1, 3935, Note_on_c, 0, 62, 74
1, 3935, Note_on_c, 0, 50, 66
1, 3978, Note_off_c, 3, 66, 64
1, 3983, Lyric_t, "a "
1, 3983, Note_on_c, 3, 66, 73
1, 3983, Note_on_c, 0, 57, 80
1, 3984, Note_off_c, 4, 54, 64
1, 3985, Note_on_c, 4, 54, 64
1, 4023, Note_off_c, 3, 66, 64
1, 4029, Note_off_c, 4, 54, 64
1, 4030, Note_on_c, 4, 54, 67
1, 4031, Lyric_t, "place "
1, 4031, Lyric_t, "\015"
1, 4031, Note_on_c, 3, 66, 78
1, 4074, Note_off_c, 3, 66, 64
1, 4078, Note_off_c, 4, 54, 64
1, 4078, Note_off_c, 0, 62, 64
1, 4079, Lyric_t, "when "
1, 4079, Note_on_c, 3, 66, 83
1, 4079, Note_on_c, 4, 54, 78
1, 4079, Note_on_c, 0, 62, 86
1, 4120, Note_off_c, 3, 66, 64
1, 4124, Note_off_c, 4, 54, 64
1, 4125, Note_on_c, 4, 54, 77
1, 4126, Note_off_c, 0, 57, 64
1, 4127, Lyric_t, "we "
1, 4127, Note_on_c, 3, 66, 82
1, 4127, Note_on_c, 0, 57, 81
1, 4168, Note_off_c, 3, 66, 64
1, 4175, Lyric_t, "were "
1, 4175, Note_on_c, 3, 66, 75
1, 4175, Note_off_c, 4, 54, 64
1, 4175, Note_on_c, 0, 54, 64
1, 4176, Note_on_c, 4, 54, 72
1, 4204, Note_off_c, 0, 54, 64
1, 4204, Note_off_c, 0, 62, 64
1, 4204, Note_off_c, 0, 38, 64
1, 4204, Note_off_c, 0, 45, 64
1, 4204, Note_off_c, 0, 64, 64
1, 4204, Note_off_c, 0, 69, 64
1, 4204, Note_off_c, 0, 66, 64
1, 4204, Note_off_c, 0, 50, 64
1, 4204, Note_off_c, 0, 57, 64
1, 4222, Note_off_c, 3, 66, 64
1, 4222, Note_on_c, 0, 31, 73
1, 4223, Note_on_c, 0, 54, 101
1, 4223, Note_on_c, 0, 59, 95
1, 4224, Lyric_t, "start"
1, 4224, Note_on_c, 3, 71, 78
1, 4225, Note_off_c, 4, 54, 64
1, 4225, Note_on_c, 4, 59, 73
1, 4272, Note_on_c, 0, 43, 72
1, 4317, Note_off_c, 3, 71, 64
1, 4318, Note_off_c, 4, 59, 64
1, 4318, Note_on_c, 4, 57, 72
1, 4320, Lyric_t, "ing "
1, 4320, Note_on_c, 3, 69, 78
1, 4320, Note_on_c, 0, 62, 76
1, 4413, Note_off_c, 3, 69, 64
1, 4414, Note_off_c, 4, 57, 64
1, 4414, Note_on_c, 4, 54, 64
1, 4414, Note_on_c, 0, 66, 79
1, 4417, Lyric_t, "o"
1, 4417, Note_on_c, 3, 66, 67
1, 4501, Note_off_c, 3, 66, 64
1, 4509, Note_off_c, 0, 66, 64
1, 4510, Note_on_c, 0, 66, 67
1, 4511, Lyric_t, "ver. "
1, 4511, Lyric_t, "\015"
1, 4511, Note_on_c, 3, 64, 67
1, 4511, Note_off_c, 4, 54, 64
1, 4511, Note_on_c, 4, 52, 68
1, 4534, Note_off_c, 3, 64, 64
1, 4535, Note_on_c, 3, 62, 55
1, 4537, Note_off_c, 4, 52, 64
1, 4537, Note_on_c, 4, 50, 61
1, 4560, Lyric_t, "\012"
1, 4605, Note_off_c, 0, 66, 64
1, 4605, Note_off_c, 0, 62, 64
1, 4605, Note_off_c, 0, 59, 64
1, 4605, Note_off_c, 0, 31, 64
1, 4605, Note_off_c, 0, 54, 64
1, 4605, Note_off_c, 0, 43, 64
1, 4608, Note_on_c, 0, 36, 68
1, 4608, Note_on_c, 0, 62, 76
1, 4608, Note_on_c, 0, 64, 71
1, 4608, Note_on_c, 0, 67, 77
1, 4623, Note_off_c, 4, 50, 64
1, 4626, Note_off_c, 3, 62, 64
1, 4656, Note_on_c, 4, 52, 51
1, 4656, Note_on_c, 0, 43, 64
1, 4657, Lyric_t, "We "
1, 4657, Note_on_c, 3, 64, 51
1, 4702, Note_off_c, 3, 64, 64
1, 4703, Note_off_c, 4, 52, 64
1, 4703, Note_on_c, 0, 60, 81
1, 4704, Note_on_c, 4, 52, 70
1, 4704, Note_on_c, 0, 48, 59
1, 4706, Lyric_t, "let "
1, 4706, Note_on_c, 3, 64, 72
1, 4748, Note_off_c, 3, 64, 64
1, 4752, Note_off_c, 4, 52, 64
1, 4753, Lyric_t, "the "
1, 4753, Note_on_c, 3, 64, 65
1, 4753, Note_on_c, 4, 52, 75
1, 4797, Note_off_c, 3, 64, 64
1, 4799, Note_on_c, 0, 55, 60
1, 4801, Lyric_t, "bound "
1, 4801, Note_on_c, 3, 64, 66
1, 4801, Note_off_c, 4, 52, 64
1, 4802, Note_on_c, 4, 52, 70
1, 4892, Note_off_c, 3, 64, 64
1, 4894, Note_off_c, 0, 60, 64
1, 4896, Note_on_c, 0, 60, 64
1, 4897, Lyric_t, "break, "
1, 4897, Note_on_c, 3, 66, 58
1, 4898, Note_off_c, 4, 52, 64
1, 4898, Note_on_c, 4, 54, 57
1, 4986, Note_off_c, 3, 66, 64
1, 4991, Note_off_c, 0, 64, 64
1, 4991, Note_off_c, 0, 36, 64
1, 4991, Note_off_c, 0, 67, 64
1, 4991, Note_off_c, 0, 62, 64
1, 4991, Note_off_c, 0, 48, 64
1, 4993, Note_off_c, 0, 43, 64
1, 4993, Note_on_c, 0, 62, 81
1, 4993, Note_on_c, 0, 35, 66
1, 4993, Note_on_c, 0, 57, 77
1, 4993, Note_on_c, 0, 66, 75
1, 4994, Note_off_c, 0, 60, 64
1, 4996, Note_off_c, 0, 55, 64
1, 5000, Note_off_c, 4, 54, 64
1, 5040, Note_off_c, 0, 62, 64
1, 5041, Lyric_t, "we "
1, 5041, Note_on_c, 3, 62, 59
1, 5041, Note_on_c, 0, 62, 69
1, 5044, Note_on_c, 4, 50, 37
1, 5084, Note_off_c, 3, 62, 64
1, 5087, Note_off_c, 4, 50, 64
1, 5088, Note_on_c, 4, 50, 68
1, 5088, Note_off_c, 0, 57, 64
1, 5089, Lyric_t, "let "
1, 5089, Note_on_c, 3, 62, 65
1, 5089, Note_on_c, 0, 57, 62
1, 5133, Note_off_c, 3, 62, 64
1, 5136, Note_off_c, 4, 50, 64
1, 5137, Lyric_t, "the "
1, 5137, Note_on_c, 3, 62, 73
1, 5137, Note_on_c, 4, 50, 78
1, 5180, Note_off_c, 3, 62, 64
1, 5183, Note_off_c, 4, 50, 64
1, 5183, Note_off_c, 0, 62, 64
1, 5184, Note_on_c, 4, 50, 75
1, 5184, Note_on_c, 0, 62, 62
1, 5184, Note_on_c, 0, 71, 68
1, 5185, Lyric_t, "heart"
1, 5185, Note_on_c, 3, 62, 66
1, 5273, Note_off_c, 3, 62, 64
1, 5279, Note_off_c, 0, 57, 64
1, 5279, Note_off_c, 0, 66, 64
1, 5280, Lyric_t, "ache "
1, 5280, Note_on_c, 3, 64, 63
1, 5280, Note_off_c, 4, 50, 64
1, 5280, Note_on_c, 4, 52, 60
1, 5280, Note_on_c, 0, 57, 49
1, 5280, Note_on_c, 0, 66, 68
1, 5328, Lyric_t, "in. "
1, 5328, Lyric_t, "\015"
1, 5328, Note_on_c, 3, 60, 62
1, 5328, Note_off_c, 4, 52, 64
1, 5328, Note_on_c, 4, 48, 60
1, 5331, Note_off_c, 3, 64, 64
1, 5374, Note_off_c, 0, 66, 64
1, 5374, Note_off_c, 0, 35, 64
1, 5374, Note_off_c, 0, 71, 64
1, 5374, Note_off_c, 0, 62, 64
1, 5374, Note_off_c, 0, 57, 64
1, 5377, Note_on_c, 0, 64, 65
1, 5377, Note_on_c, 0, 55, 66
1, 5377, Note_on_c, 0, 60, 68
1, 5377, Note_on_c, 0, 33, 68
1, 5425, Note_on_c, 0, 45, 59
1, 5472, Note_off_c, 0, 55, 64
1, 5473, Note_on_c, 0, 55, 66
1, 5480, Note_off_c, 3, 60, 64
1, 5495, Note_off_c, 4, 48, 64
1, 5520, Lyric_t, "Who's "
1, 5520, Note_on_c, 3, 60, 67
1, 5521, Note_on_c, 0, 67, 68
1, 5522, Note_on_c, 4, 48, 68
1, 5563, Note_off_c, 3, 60, 64
1, 5566, Note_off_c, 4, 48, 64
1, 5566, Note_on_c, 4, 52, 70
1, 5568, Lyric_t, "sor"
1, 5568, Note_on_c, 3, 64, 64
1, 5658, Note_off_c, 3, 64, 64
1, 5661, Note_off_c, 4, 52, 64
1, 5661, Note_on_c, 4, 50, 70
1, 5663, Lyric_t, "ry "
1, 5663, Note_on_c, 3, 62, 72
1, 5664, Note_off_c, 0, 64, 64
1, 5665, Note_off_c, 0, 55, 64
1, 5665, Note_on_c, 0, 64, 58
1, 5666, Note_on_c, 0, 55, 59
1, 5710, Note_off_c, 3, 62, 64
1, 5711, Lyric_t, "now? "
1, 5711, Lyric_t, "\015"
1, 5711, Note_on_c, 3, 59, 60
1, 5711, Note_off_c, 4, 50, 64
1, 5711, Note_on_c, 4, 47, 63
1, 5738, Note_off_c, 0, 45, 64
1, 5738, Note_off_c, 0, 60, 64
1, 5738, Note_off_c, 0, 33, 64
1, 5738, Note_off_c, 0, 67, 64
1, 5758, Note_off_c, 0, 64, 64
1, 5759, Note_off_c, 0, 55, 64
1, 5760, Note_on_c, 0, 71, 59
1, 5760, Note_on_c, 0, 66, 61
1, 5760, Note_on_c, 0, 62, 69
1, 5760, Note_on_c, 0, 59, 65
1, 5760, Note_on_c, 0, 54, 54
1, 5760, Note_on_c, 0, 43, 79
1, 5760, Note_on_c, 0, 31, 70
1, 5895, Lyric_t, "\012"
1, 6012, Note_off_c, 4, 47, 64
1, 6083, Note_off_c, 3, 59, 64
1, 6114, Note_off_c, 0, 43, 64
1, 6116, Note_off_c, 0, 54, 64
1, 6116, Note_off_c, 0, 66, 64
1, 6116, Note_off_c, 0, 62, 64
1, 6116, Note_off_c, 0, 59, 64
1, 6116, Note_off_c, 0, 31, 64
1, 6121, Note_off_c, 0, 71, 64
1, 6144, Lyric_t, "(Girl) "
1, 6144, Lyric_t, "\015"
1, 6144, Note_on_c, 1, 38, 106
1, 6144, Note_on_c, 0, 66, 72
1, 6144, Note_on_c, 0, 69, 80
1, 6144, Note_on_c, 0, 74, 78
1, 6144, Note_on_c, 0, 64, 72
1, 6144, Note_on_c, 2, 66, 59
1, 6145, Control_c, 1, 1, 0
1, 6145, Pitch_bend_c, 1, 8192
1, 6145, Control_c, 2, 1, 0
1, 6145, Pitch_bend_c, 2, 8192
1, 6193, Note_on_c, 2, 57, 65
1, 6194, Lyric_t, "\226 There "
1, 6194, Note_on_c, 3, 66, 66
1, 6234, Note_off_c, 3, 66, 64
1, 6241, Lyric_t, "was "
1, 6241, Note_on_c, 3, 66, 75
1, 6241, Note_on_c, 2, 62, 73
1, 6285, Note_off_c, 3, 66, 64
1, 6288, Note_off_c, 2, 66, 64
1, 6289, Lyric_t, "a "
1, 6289, Note_on_c, 3, 66, 71
1, 6289, Note_on_c, 2, 66, 58
1, 6331, Note_off_c, 3, 66, 64
1, 6335, Lyric_t, "world "
1, 6335, Note_on_c, 3, 66, 79
1, 6378, Note_off_c, 3, 66, 64
1, 6385, Lyric_t, "when "
1, 6385, Note_on_c, 3, 66, 84
1, 6429, Note_off_c, 3, 66, 64
1, 6432, Note_off_c, 2, 66, 64
1, 6433, Lyric_t, "we "
1, 6433, Note_on_c, 3, 66, 84
1, 6433, Note_on_c, 2, 66, 65
1, 6456, Note_off_c, 2, 57, 64
1, 6457, Note_on_c, 2, 57, 63
1, 6474, Note_off_c, 3, 66, 64
1, 6480, Note_off_c, 2, 62, 64
1, 6481, Lyric_t, "were "
1, 6481, Note_on_c, 3, 66, 76
1, 6481, Note_on_c, 2, 62, 60
1, 6521, Note_off_c, 1, 38, 64
1, 6526, Note_off_c, 3, 66, 64
1, 6528, Note_off_c, 0, 64, 64
1, 6528, Note_off_c, 0, 66, 64
1, 6528, Note_off_c, 0, 69, 64
1, 6528, Note_off_c, 0, 74, 64
1, 6528, Note_off_c, 2, 66, 64
1, 6529, Lyric_t, "stand"
1, 6529, Note_on_c, 3, 66, 75
1, 6529, Note_on_c, 1, 31, 94
1, 6529, Note_on_c, 0, 71, 66
1, 6529, Note_on_c, 0, 66, 67
1, 6529, Note_on_c, 0, 62, 70
1, 6529, Note_on_c, 2, 66, 60
1, 6538, Note_off_c, 2, 62, 64
1, 6538, Note_off_c, 2, 57, 64
1, 6600, Note_on_c, 2, 55, 62
1, 6614, Note_off_c, 3, 66, 64
1, 6623, Lyric_t, "ing "
1, 6623, Note_on_c, 3, 66, 75
1, 6625, Note_on_c, 2, 62, 66
1, 6658, Note_off_c, 3, 66, 64
1, 6671, Lyric_t, "still, "
1, 6671, Lyric_t, "\015"
1, 6671, Note_on_c, 3, 66, 69
1, 6672, Note_off_c, 2, 66, 64
1, 6673, Note_on_c, 2, 66, 63
1, 6792, Note_off_c, 2, 62, 64
1, 6793, Note_on_c, 2, 62, 50
1, 6816, Note_off_c, 2, 66, 64
1, 6817, Note_on_c, 0, 78, 82
1, 6817, Note_on_c, 2, 66, 61
1, 6838, Note_off_c, 2, 62, 64
1, 6841, Note_on_c, 0, 76, 66
1, 6865, Note_on_c, 0, 74, 71
1, 6865, Note_on_c, 2, 62, 70
1, 6890, Note_off_c, 3, 66, 64
1, 6910, Note_off_c, 0, 76, 64
1, 6910, Note_off_c, 0, 78, 64
1, 6910, Note_off_c, 2, 62, 64
1, 6910, Note_off_c, 2, 66, 64
1, 6911, Note_off_c, 1, 31, 64
1, 6911, Note_on_c, 0, 78, 67
1, 6911, Note_on_c, 0, 76, 71
1, 6911, Note_on_c, 0, 81, 68
1, 6911, Note_off_c, 2, 55, 64
1, 6913, Note_on_c, 1, 38, 87
1, 6922, Note_off_c, 0, 62, 64
1, 6922, Note_off_c, 0, 66, 64
1, 6922, Note_off_c, 0, 71, 64
1, 6922, Note_off_c, 0, 74, 64
1, 6935, Note_on_c, 2, 62, 62
1, 6959, Note_on_c, 0, 74, 64
1, 6960, Lyric_t, "and "
1, 6960, Note_on_c, 3, 66, 59
1, 6960, Note_on_c, 2, 66, 56
1, 6985, Note_on_c, 2, 57, 55
1, 7005, Note_off_c, 3, 66, 64
1, 7007, Lyric_t, "for "
1, 7007, Note_on_c, 3, 66, 72
1, 7008, Note_off_c, 2, 62, 64
1, 7009, Note_on_c, 2, 62, 68
1, 7052, Note_off_c, 3, 66, 64
1, 7055, Lyric_t, "a "
1, 7055, Note_on_c, 3, 66, 79
1, 7055, Note_on_c, 0, 69, 60
1, 7056, Note_off_c, 2, 66, 64
1, 7057, Note_on_c, 2, 66, 59
1, 7100, Note_off_c, 3, 66, 64
1, 7103, Lyric_t, "mo"
1, 7103, Note_on_c, 3, 66, 85
1, 7148, Note_off_c, 3, 66, 64
1, 7151, Lyric_t, "ment, "
1, 7151, Note_on_c, 3, 66, 90
1, 7176, Note_off_c, 2, 57, 64
1, 7177, Note_on_c, 2, 57, 45
1, 7196, Note_off_c, 3, 66, 64
1, 7199, Lyric_t, "we "
1, 7199, Note_on_c, 3, 66, 89
1, 7200, Note_off_c, 2, 62, 64
1, 7201, Note_on_c, 2, 62, 59
1, 7224, Note_off_c, 2, 57, 64
1, 7225, Note_on_c, 2, 57, 41
1, 7244, Note_off_c, 3, 66, 64
1, 7247, Lyric_t, "were "
1, 7247, Note_on_c, 3, 66, 81
1, 7247, Note_off_c, 2, 62, 64
1, 7248, Note_on_c, 2, 62, 47
1, 7292, Note_off_c, 3, 66, 64
1, 7294, Note_off_c, 1, 38, 64
1, 7294, Note_off_c, 0, 69, 64
1, 7294, Note_off_c, 0, 81, 64
1, 7294, Note_off_c, 0, 76, 64
1, 7294, Note_off_c, 0, 78, 64
1, 7294, Note_off_c, 0, 74, 64
1, 7295, Note_off_c, 2, 62, 64
1, 7296, Lyric_t, "sep"
1, 7296, Note_on_c, 3, 71, 85
1, 7296, Note_off_c, 2, 57, 64
1, 7296, Note_off_c, 2, 66, 64
1, 7297, Note_on_c, 1, 31, 91
1, 7297, Note_on_c, 0, 71, 74
1, 7297, Note_on_c, 0, 62, 66
1, 7297, Note_on_c, 0, 66, 60
1, 7343, Note_on_c, 2, 66, 63
1, 7389, Note_off_c, 3, 71, 64
1, 7391, Note_on_c, 2, 62, 68
1, 7392, Lyric_t, "a"
1, 7392, Note_on_c, 3, 69, 85
1, 7394, Note_on_c, 0, 74, 62
1, 7438, Note_off_c, 2, 66, 64
1, 7439, Note_on_c, 2, 66, 61
1, 7485, Note_off_c, 3, 69, 64
1, 7489, Lyric_t, "rat"
1, 7489, Note_on_c, 3, 66, 72
1, 7489, Note_on_c, 2, 59, 58
1, 7536, Note_off_c, 2, 62, 64
1, 7537, Note_on_c, 2, 62, 46
1, 7573, Note_off_c, 3, 66, 64
1, 7583, Lyric_t, "ed. "
1, 7583, Lyric_t, "\015"
1, 7583, Note_on_c, 3, 64, 64
1, 7584, Note_off_c, 2, 66, 64
1, 7585, Note_on_c, 2, 66, 64
1, 7606, Note_off_c, 3, 64, 64
1, 7607, Note_on_c, 3, 62, 59
1, 7609, Note_on_c, 2, 55, 37
1, 7632, Lyric_t, "\012"
1, 7632, Note_off_c, 2, 62, 64
1, 7633, Note_on_c, 2, 62, 50
1, 7655, Note_off_c, 0, 66, 64
1, 7657, Note_off_c, 0, 74, 64
1, 7658, Note_off_c, 0, 62, 64
1, 7662, Note_off_c, 0, 71, 64
1, 7677, Note_off_c, 1, 31, 64
1, 7677, Note_off_c, 2, 62, 64
1, 7677, Note_off_c, 2, 55, 64
1, 7677, Note_off_c, 2, 66, 64
1, 7677, Note_off_c, 2, 59, 64
1, 7680, Note_on_c, 0, 67, 71
1, 7680, Note_on_c, 0, 62, 70
1, 7680, Note_on_c, 0, 64, 71
1, 7680, Note_on_c, 0, 60, 73
1, 7680, Note_on_c, 2, 52, 61
1, 7681, Note_on_c, 1, 36, 87
1, 7698, Note_off_c, 3, 62, 64
1, 7704, Note_on_c, 2, 55, 53
1, 7729, Lyric_t, "And "
1, 7729, Note_on_c, 3, 64, 55
1, 7729, Note_on_c, 2, 64, 64
1, 7748, Note_off_c, 2, 55, 64
1, 7752, Note_on_c, 2, 57, 57
1, 7774, Note_off_c, 3, 64, 64
1, 7777, Note_on_c, 2, 60, 69
1, 7778, Lyric_t, "then "
1, 7778, Note_on_c, 3, 64, 78
1, 7820, Note_off_c, 3, 64, 64
1, 7824, Note_off_c, 2, 64, 64
1, 7825, Lyric_t, "you "
1, 7825, Note_on_c, 3, 64, 70
1, 7825, Note_on_c, 2, 64, 54
1, 7869, Note_off_c, 3, 64, 64
1, 7873, Lyric_t, "found "
1, 7873, Note_on_c, 3, 64, 71
1, 7874, Note_on_c, 2, 55, 65
1, 7919, Note_off_c, 2, 52, 64
1, 7920, Note_on_c, 2, 52, 56
1, 7943, Note_off_c, 2, 60, 64
1, 7944, Note_on_c, 2, 60, 63
1, 7964, Note_off_c, 3, 64, 64
1, 7967, Note_off_c, 2, 64, 64
1, 7968, Note_on_c, 2, 64, 70
1, 7969, Lyric_t, "her, "
1, 7969, Note_on_c, 3, 66, 63
1, 7991, Note_off_c, 2, 57, 64
1, 7992, Note_on_c, 2, 57, 45
1, 8015, Note_off_c, 2, 60, 64
1, 8016, Note_on_c, 2, 60, 56
1, 8027, Note_off_c, 2, 64, 64
1, 8027, Note_off_c, 2, 55, 64
1, 8040, Note_on_c, 2, 64, 65
1, 8043, Note_off_c, 0, 60, 64
1, 8043, Note_off_c, 0, 67, 64
1, 8043, Note_off_c, 0, 62, 64
1, 8043, Note_off_c, 0, 64, 64
1, 8051, Note_off_c, 1, 36, 64
1, 8058, Note_off_c, 3, 66, 64
1, 8063, Note_on_c, 1, 35, 85
1, 8063, Note_on_c, 0, 62, 77
1, 8063, Note_on_c, 0, 66, 68
1, 8063, Note_on_c, 0, 57, 68
1, 8063, Note_off_c, 2, 52, 64
1, 8063, Note_off_c, 2, 60, 64
1, 8063, Note_off_c, 2, 57, 64
1, 8064, Note_on_c, 2, 54, 61
1, 8067, Note_off_c, 2, 64, 64
1, 8088, Note_on_c, 2, 57, 53
1, 8113, Lyric_t, "you "
1, 8113, Note_on_c, 3, 62, 64
1, 8113, Note_on_c, 2, 66, 64
1, 8132, Note_off_c, 2, 57, 64
1, 8136, Note_on_c, 2, 59, 57
1, 8156, Note_off_c, 3, 62, 64
1, 8159, Note_on_c, 0, 71, 66
1, 8161, Lyric_t, "let "
1, 8161, Note_on_c, 3, 62, 70
1, 8161, Note_on_c, 2, 62, 69
1, 8205, Note_off_c, 3, 62, 64
1, 8208, Note_off_c, 2, 66, 64
1, 8209, Lyric_t, "the "
1, 8209, Note_on_c, 3, 62, 79
1, 8209, Note_on_c, 2, 66, 54
1, 8252, Note_off_c, 3, 62, 64
1, 8257, Lyric_t, "strang"
1, 8257, Note_on_c, 3, 62, 71
1, 8257, Note_on_c, 0, 74, 62
1, 8258, Note_on_c, 2, 57, 65
1, 8303, Note_off_c, 2, 54, 64
1, 8304, Note_on_c, 2, 54, 56
1, 8327, Note_off_c, 2, 62, 64
1, 8328, Note_on_c, 2, 62, 63
1, 8345, Note_off_c, 3, 62, 64
1, 8351, Note_off_c, 2, 66, 64
1, 8352, Lyric_t, "er "
1, 8352, Note_on_c, 3, 64, 68
1, 8352, Note_on_c, 2, 66, 70
1, 8375, Note_off_c, 2, 59, 64
1, 8376, Note_on_c, 2, 59, 45
1, 8399, Note_off_c, 2, 62, 64
1, 8400, Note_on_c, 2, 62, 56
1, 8401, Lyric_t, "in. "
1, 8401, Lyric_t, "\015"
1, 8401, Note_on_c, 3, 60, 67
1, 8403, Note_off_c, 3, 64, 64
1, 8411, Note_off_c, 2, 66, 64
1, 8411, Note_off_c, 2, 57, 64
1, 8424, Note_on_c, 2, 66, 65
1, 8444, Note_off_c, 1, 35, 64
1, 8447, Note_on_c, 0, 67, 59
1, 8447, Note_off_c, 2, 54, 64
1, 8447, Note_off_c, 2, 62, 64
1, 8447, Note_off_c, 2, 59, 64
1, 8448, Note_on_c, 0, 60, 67
1, 8448, Note_on_c, 0, 64, 61
1, 8448, Note_on_c, 2, 52, 61
1, 8449, Note_on_c, 1, 33, 87
1, 8449, Note_on_c, 0, 55, 60
1, 8451, Note_off_c, 2, 66, 64
1, 8452, Note_off_c, 0, 74, 64
1, 8452, Note_off_c, 0, 71, 64
1, 8452, Note_off_c, 0, 62, 64
1, 8452, Note_off_c, 0, 57, 64
1, 8452, Note_off_c, 0, 66, 64
1, 8472, Note_on_c, 2, 55, 53
1, 8497, Note_on_c, 2, 64, 64
1, 8516, Note_off_c, 2, 55, 64
1, 8520, Note_on_c, 2, 57, 57
1, 8543, Lyric_t, "(Both) "
1, 8545, Note_on_c, 2, 60, 59
1, 8553, Note_off_c, 3, 60, 64
1, 8589, Note_on_c, 4, 52, 58
1, 8592, Lyric_t, "\226 Who's "
1, 8592, Note_on_c, 3, 60, 72
1, 8592, Note_off_c, 2, 64, 64
1, 8593, Note_on_c, 2, 64, 54
1, 8635, Note_off_c, 3, 60, 64
1, 8640, Lyric_t, "sor"
1, 8640, Note_on_c, 3, 64, 69
1, 8642, Note_off_c, 4, 52, 64
1, 8642, Note_on_c, 4, 55, 80
1, 8642, Note_on_c, 2, 55, 65
1, 8687, Note_off_c, 2, 52, 64
1, 8688, Note_on_c, 2, 52, 56
1, 8711, Note_off_c, 2, 60, 64
1, 8712, Note_on_c, 2, 60, 63
1, 8730, Note_off_c, 3, 64, 64
1, 8735, Lyric_t, "ry "
1, 8735, Note_on_c, 3, 62, 64
1, 8735, Note_off_c, 4, 55, 64
1, 8735, Note_on_c, 4, 54, 67
1, 8735, Note_off_c, 2, 64, 64
1, 8736, Note_on_c, 2, 64, 70
1, 8759, Note_off_c, 2, 57, 64
1, 8760, Note_on_c, 2, 57, 45
1, 8782, Note_off_c, 3, 62, 64
1, 8783, Lyric_t, "now? "
1, 8783, Lyric_t, "\015"
1, 8783, Note_on_c, 3, 59, 58
1, 8783, Note_off_c, 2, 60, 64
1, 8784, Note_off_c, 4, 54, 64
1, 8784, Note_on_c, 4, 50, 58
1, 8784, Note_on_c, 2, 60, 56
1, 8795, Note_off_c, 2, 64, 64
1, 8795, Note_off_c, 2, 55, 64
1, 8812, Note_off_c, 0, 64, 64
1, 8812, Note_off_c, 0, 55, 64
1, 8812, Note_off_c, 0, 67, 64
1, 8812, Note_off_c, 0, 60, 64
1, 8821, Note_off_c, 1, 33, 64
1, 8831, Note_on_c, 0, 66, 65
1, 8831, Note_on_c, 0, 62, 62
1, 8831, Note_on_c, 0, 59, 60
1, 8831, Note_on_c, 0, 57, 59
1, 8831, Note_off_c, 2, 52, 64
1, 8831, Note_off_c, 2, 57, 64
1, 8831, Note_off_c, 2, 60, 64
1, 8832, Note_on_c, 1, 31, 87
1, 8857, Note_on_c, 2, 62, 66
1, 8879, Note_off_c, 0, 62, 64
1, 8880, Note_on_c, 0, 62, 60
1, 8880, Note_on_c, 0, 71, 54
1, 8881, Note_on_c, 2, 66, 55
1, 8905, Note_on_c, 2, 55, 62
1, 8928, Note_off_c, 2, 62, 64
1, 8929, Note_on_c, 2, 62, 60
1, 8975, Note_off_c, 0, 66, 64
1, 8976, Note_on_c, 0, 66, 53
1, 8976, Note_on_c, 0, 74, 59
1, 8976, Note_off_c, 2, 66, 64
1, 8977, Note_on_c, 2, 66, 64
1, 9072, Note_off_c, 2, 55, 64
1, 9073, Note_on_c, 2, 55, 54
1, 9096, Note_off_c, 2, 62, 64
1, 9097, Note_on_c, 2, 62, 61
1, 9119, Note_off_c, 1, 31, 64
1, 9119, Note_off_c, 2, 66, 64
1, 9120, Note_on_c, 2, 66, 68
1, 9143, Note_off_c, 2, 55, 64
1, 9144, Note_on_c, 2, 55, 54
1, 9152, Note_off_c, 4, 50, 64
1, 9155, Note_off_c, 3, 59, 64
1, 9168, Note_on_c, 1, 31, 77
1, 9168, Note_off_c, 2, 62, 64
1, 9169, Note_on_c, 2, 62, 58
1, 9187, Note_off_c, 0, 74, 64
1, 9187, Note_off_c, 0, 59, 64
1, 9187, Note_off_c, 0, 71, 64
1, 9187, Note_off_c, 0, 57, 64
1, 9187, Note_off_c, 0, 66, 64
1, 9187, Note_off_c, 0, 62, 64
1, 9193, Note_on_c, 2, 64, 60
1, 9209, Note_off_c, 1, 31, 64
1, 9213, Note_off_c, 2, 64, 64
1, 9213, Note_off_c, 2, 66, 64
1, 9213, Note_off_c, 2, 55, 64
1, 9213, Note_off_c, 2, 62, 64
1, 9216, Lyric_t, "(Girl) "
1, 9216, Note_on_c, 1, 30, 87
1, 9216, Note_on_c, 0, 66, 62
1, 9216, Note_on_c, 0, 73, 67
1, 9216, Note_on_c, 0, 69, 71
1, 9216, Note_on_c, 0, 64, 61
1, 9216, Note_on_c, 2, 54, 56
1, 9241, Note_on_c, 2, 61, 54
1, 9265, Note_on_c, 2, 66, 58
1, 9289, Note_on_c, 2, 57, 63
1, 9310, Lyric_t, "\226 Who's "
1, 9310, Note_on_c, 3, 61, 64
1, 9312, Note_off_c, 2, 61, 64
1, 9313, Note_on_c, 2, 61, 56
1, 9351, Note_off_c, 3, 61, 64
1, 9353, Lyric_t, "sor"
1, 9353, Note_on_c, 3, 64, 73
1, 9360, Note_off_c, 2, 66, 64
1, 9361, Note_on_c, 2, 66, 58
1, 9406, Note_off_c, 2, 61, 64
1, 9407, Note_on_c, 2, 61, 60
1, 9408, Note_off_c, 0, 69, 64
1, 9409, Note_off_c, 0, 64, 64
1, 9409, Note_off_c, 0, 66, 64
1, 9409, Note_on_c, 0, 69, 68
1, 9410, Note_on_c, 0, 61, 53
1, 9410, Note_on_c, 0, 64, 68
1, 9410, Note_on_c, 0, 66, 61
1, 9427, Note_off_c, 0, 73, 64
1, 9456, Note_off_c, 2, 54, 64
1, 9457, Note_on_c, 2, 54, 58
1, 9478, Note_off_c, 2, 61, 64
1, 9479, Note_on_c, 2, 61, 53
1, 9503, Note_off_c, 2, 66, 64
1, 9504, Note_on_c, 2, 66, 60
1, 9505, Note_off_c, 3, 64, 64
1, 9506, Lyric_t, "ry "
1, 9506, Note_on_c, 3, 66, 81
1, 9528, Note_off_c, 2, 57, 64
1, 9529, Note_on_c, 2, 57, 56
1, 9547, Note_off_c, 3, 66, 64
1, 9548, Lyric_t, "now? "
1, 9548, Lyric_t, "\015"
1, 9548, Note_on_c, 3, 64, 74
1, 9550, Note_off_c, 2, 61, 64
1, 9551, Note_on_c, 2, 61, 58
1, 9574, Note_off_c, 2, 66, 64
1, 9575, Note_on_c, 2, 66, 58
1, 9591, Note_off_c, 1, 30, 64
1, 9597, Note_off_c, 2, 66, 64
1, 9597, Note_off_c, 2, 61, 64
1, 9597, Note_off_c, 2, 54, 64
1, 9597, Note_off_c, 2, 57, 64
1, 9600, Note_on_c, 1, 28, 94
1, 9600, Note_off_c, 0, 66, 64
1, 9601, Note_off_c, 0, 69, 64
1, 9601, Note_off_c, 0, 61, 64
1, 9601, Note_off_c, 0, 64, 64
1, 9601, Note_on_c, 0, 71, 68
1, 9601, Note_on_c, 0, 66, 66
1, 9601, Note_on_c, 0, 63, 58
1, 9601, Note_on_c, 0, 68, 67
1, 9624, Note_off_c, 3, 64, 64
1, 9624, Note_on_c, 3, 61, 61
1, 9647, Note_off_c, 3, 61, 64
1, 9648, Note_on_c, 3, 59, 63
1, 9648, Note_on_c, 2, 63, 46
1, 9650, Note_on_c, 2, 68, 65
1, 9697, Note_on_c, 2, 66, 62
1, 9697, Note_on_c, 2, 75, 54
1, 9735, Lyric_t, "\012"
1, 9743, Note_off_c, 2, 63, 64
1, 9744, Note_on_c, 2, 63, 47
1, 9745, Note_off_c, 2, 68, 64
1, 9746, Note_on_c, 2, 68, 56
1, 9793, Note_on_c, 0, 75, 43
1, 9793, Note_on_c, 0, 78, 49
1, 9793, Note_on_c, 0, 80, 50
1, 9793, Note_on_c, 0, 83, 51
1, 9886, Note_off_c, 0, 71, 64
1, 9887, Note_on_c, 0, 71, 75
1, 9935, Note_on_c, 0, 73, 72
1, 9957, Note_off_c, 1, 28, 64
1, 9957, Note_off_c, 2, 68, 64
1, 9957, Note_off_c, 2, 63, 64
1, 9957, Note_off_c, 2, 66, 64
1, 9957, Note_off_c, 2, 75, 64
1, 9959, Note_off_c, 3, 59, 64
1, 9981, Note_off_c, 0, 73, 64
1, 9981, Note_off_c, 0, 83, 64
1, 9981, Note_off_c, 0, 75, 64
1, 9981, Note_off_c, 0, 78, 64
1, 9981, Note_off_c, 0, 63, 64
1, 9981, Note_off_c, 0, 68, 64
1, 9981, Note_off_c, 0, 66, 64
1, 9981, Note_off_c, 0, 80, 64
1, 9981, Note_off_c, 0, 71, 64
1, 9984, Lyric_t, "What, "
1, 9984, Note_on_c, 3, 68, 101
1, 9984, Note_on_c, 9, 42, 63
1, 9984, Note_on_c, 9, 35, 76
1, 9984, Note_on_c, 1, 33, 97
1, 9984, Note_on_c, 0, 76, 66
1, 9984, Note_on_c, 0, 73, 61
1, 9984, Note_on_c, 0, 68, 58
1, 9984, Note_on_c, 0, 71, 69
1, 9984, Note_on_c, 6, 61, 51
1, 9984, Note_on_c, 6, 59, 51
1, 9984, Note_on_c, 6, 64, 53
1, 9984, Note_on_c, 6, 68, 55
1, 9985, Note_off_c, 9, 35, 64
1, 9985, Note_off_c, 9, 42, 64
1, 9985, Control_c, 9, 1, 0
1, 9985, Pitch_bend_c, 9, 8192
1, 9985, Control_c, 6, 1, 0
1, 9985, Pitch_bend_c, 6, 8192
1, 10033, Note_on_c, 9, 42, 36
1, 10034, Note_off_c, 9, 42, 64
1, 10080, Note_on_c, 9, 38, 62
1, 10080, Note_on_c, 9, 42, 75
1, 10081, Note_off_c, 9, 42, 64
1, 10081, Note_off_c, 9, 38, 64
1, 10110, Note_off_c, 1, 33, 64
1, 10127, Note_on_c, 1, 33, 102
1, 10129, Note_on_c, 9, 42, 42
1, 10130, Note_off_c, 9, 42, 64
1, 10138, Note_off_c, 3, 68, 64
1, 10160, Note_off_c, 1, 33, 64
1, 10174, Lyric_t, "what "
1, 10174, Note_on_c, 3, 68, 92
1, 10175, Note_on_c, 1, 28, 95
1, 10175, Note_off_c, 0, 73, 64
1, 10176, Note_on_c, 9, 35, 74
1, 10176, Note_on_c, 9, 42, 59
1, 10176, Note_off_c, 0, 68, 64
1, 10176, Note_on_c, 0, 73, 59
1, 10177, Note_off_c, 9, 42, 64
1, 10177, Note_off_c, 9, 35, 64
1, 10177, Note_on_c, 0, 68, 61
1, 10177, Note_on_c, 0, 64, 59
1, 10183, Note_off_c, 0, 76, 64
1, 10183, Note_off_c, 0, 71, 64
1, 10224, Note_on_c, 9, 42, 36
1, 10225, Note_off_c, 9, 42, 64
1, 10239, Note_off_c, 3, 68, 64
1, 10242, Lyric_t, "kind "
1, 10242, Note_on_c, 3, 73, 99
1, 10261, Note_off_c, 1, 28, 64
1, 10271, Note_on_c, 9, 42, 72
1, 10271, Note_on_c, 1, 33, 103
1, 10272, Note_off_c, 9, 42, 64
1, 10272, Note_on_c, 9, 38, 64
1, 10273, Note_off_c, 9, 38, 64
1, 10297, Note_off_c, 3, 73, 64
1, 10300, Lyric_t, "of "
1, 10300, Note_on_c, 3, 68, 93
1, 10319, Note_on_c, 9, 42, 26
1, 10320, Note_off_c, 9, 42, 64
1, 10357, Note_off_c, 3, 68, 64
1, 10358, Note_off_c, 1, 33, 64
1, 10359, Note_off_c, 6, 64, 64
1, 10361, Note_off_c, 6, 61, 64
1, 10362, Note_off_c, 6, 59, 64
1, 10362, Note_off_c, 6, 68, 64
1, 10362, Note_on_c, 6, 66, 46
1, 10362, Note_on_c, 6, 63, 42
1, 10364, Lyric_t, "fool "
1, 10364, Note_on_c, 3, 66, 92
1, 10364, Note_on_c, 6, 59, 60
1, 10367, Note_on_c, 1, 32, 101
1, 10368, Note_on_c, 9, 35, 66
1, 10368, Note_on_c, 9, 42, 67
1, 10369, Note_off_c, 9, 42, 64
1, 10369, Note_off_c, 9, 35, 64
1, 10369, Note_off_c, 0, 68, 64
1, 10369, Note_off_c, 0, 73, 64
1, 10369, Note_off_c, 0, 64, 64
1, 10369, Note_on_c, 0, 63, 62
1, 10369, Note_on_c, 0, 66, 67
1, 10369, Note_on_c, 0, 59, 58
1, 10415, Note_on_c, 9, 42, 36
1, 10416, Note_off_c, 9, 42, 64
1, 10464, Note_on_c, 9, 38, 71
1, 10464, Note_on_c, 9, 42, 74
1, 10465, Note_off_c, 9, 42, 64
1, 10465, Note_off_c, 9, 38, 64
1, 10493, Note_off_c, 1, 32, 64
1, 10511, Note_on_c, 9, 42, 41
1, 10511, Note_on_c, 1, 39, 89
1, 10512, Note_off_c, 9, 42, 64
1, 10512, Note_on_c, 9, 35, 57
1, 10513, Note_off_c, 9, 35, 64
1, 10559, Note_on_c, 9, 42, 70
1, 10560, Note_off_c, 9, 42, 64
1, 10560, Note_on_c, 9, 35, 81
1, 10561, Note_off_c, 9, 35, 64
1, 10579, Note_off_c, 3, 66, 64
1, 10597, Note_off_c, 1, 39, 64
1, 10608, Lyric_t, "tears "
1, 10608, Note_on_c, 3, 63, 88
1, 10609, Note_on_c, 9, 42, 26
1, 10609, Note_on_c, 1, 32, 104
1, 10610, Note_off_c, 9, 42, 64
1, 10656, Note_on_c, 9, 38, 64
1, 10656, Note_on_c, 9, 42, 78
1, 10657, Note_off_c, 9, 42, 64
1, 10657, Note_off_c, 9, 38, 64
1, 10679, Note_off_c, 3, 63, 64
1, 10680, Note_off_c, 1, 32, 64
1, 10684, Lyric_t, "it "
1, 10684, Note_on_c, 3, 64, 83
1, 10703, Note_on_c, 9, 42, 34
1, 10704, Note_off_c, 9, 42, 64
1, 10705, Note_on_c, 1, 39, 89
1, 10722, Lyric_t, "a"
1, 10722, Note_on_c, 3, 66, 79
1, 10730, Note_off_c, 3, 64, 64
1, 10747, Note_off_c, 1, 39, 64
1, 10751, Note_on_c, 9, 42, 77
1, 10751, Note_on_c, 0, 75, 61
1, 10751, Note_on_c, 0, 78, 57
1, 10752, Note_off_c, 9, 42, 64
1, 10752, Note_on_c, 9, 35, 71
1, 10753, Note_off_c, 9, 35, 64
1, 10753, Note_on_c, 1, 32, 91
1, 10755, Note_off_c, 3, 66, 64
1, 10757, Lyric_t, "part, "
1, 10757, Lyric_t, "\015"
1, 10757, Note_on_c, 3, 66, 86
1, 10764, Note_off_c, 0, 59, 64
1, 10764, Note_off_c, 0, 63, 64
1, 10764, Note_off_c, 0, 66, 64
1, 10799, Note_on_c, 0, 71, 58
1, 10800, Note_on_c, 9, 42, 39
1, 10801, Note_off_c, 9, 42, 64
1, 10847, Note_on_c, 9, 42, 76
1, 10848, Note_off_c, 9, 42, 64
1, 10848, Note_on_c, 9, 38, 79
1, 10849, Note_off_c, 9, 38, 64
1, 10872, Note_off_c, 1, 32, 64
1, 10895, Note_on_c, 9, 42, 37
1, 10896, Note_off_c, 9, 42, 64
1, 10896, Note_on_c, 1, 32, 91
1, 10943, Note_off_c, 1, 32, 64
1, 10944, Note_on_c, 9, 35, 72
1, 10944, Note_on_c, 9, 42, 80
1, 10945, Note_off_c, 9, 42, 64
1, 10945, Note_off_c, 9, 35, 64
1, 10945, Note_on_c, 1, 39, 81
1, 10972, Note_off_c, 3, 66, 64
1, 10992, Lyric_t, "leav"
1, 10992, Note_on_c, 3, 63, 90
1, 10993, Note_on_c, 9, 42, 46
1, 10994, Note_off_c, 9, 42, 64
1, 11031, Note_off_c, 1, 39, 64
1, 11038, Lyric_t, "ing "
1, 11038, Note_off_c, 3, 63, 64
1, 11038, Note_on_c, 3, 64, 92
1, 11039, Note_on_c, 9, 42, 75
1, 11039, Note_on_c, 1, 32, 91
1, 11040, Note_off_c, 9, 42, 64
1, 11040, Note_on_c, 9, 38, 75
1, 11041, Note_off_c, 9, 38, 64
1, 11083, Note_off_c, 3, 64, 64
1, 11087, Note_on_c, 9, 42, 39
1, 11088, Lyric_t, "me "
1, 11088, Note_on_c, 3, 66, 85
1, 11088, Note_off_c, 9, 42, 64
1, 11118, Note_off_c, 1, 32, 64
1, 11126, Note_off_c, 0, 71, 64
1, 11126, Note_off_c, 0, 75, 64
1, 11126, Note_off_c, 0, 78, 64
1, 11127, Note_off_c, 3, 66, 64
1, 11129, Note_off_c, 6, 63, 64
1, 11129, Note_off_c, 6, 66, 64
1, 11131, Note_off_c, 6, 59, 64
1, 11132, Note_on_c, 6, 61, 42
1, 11132, Note_on_c, 6, 65, 47
1, 11133, Note_on_c, 6, 59, 52
1, 11134, Note_on_c, 6, 68, 40
1, 11135, Note_on_c, 0, 63, 68
1, 11135, Note_on_c, 0, 59, 68
1, 11135, Note_on_c, 0, 65, 66
1, 11136, Note_on_c, 9, 35, 70
1, 11136, Note_on_c, 9, 42, 72
1, 11137, Note_off_c, 9, 42, 64
1, 11137, Note_off_c, 9, 35, 64
1, 11137, Note_on_c, 1, 37, 107
1, 11138, Lyric_t, "pain "
1, 11138, Note_on_c, 3, 65, 95
1, 11185, Note_on_c, 9, 42, 46
1, 11185, Note_on_c, 0, 68, 59
1, 11186, Note_off_c, 9, 42, 64
1, 11232, Note_on_c, 9, 38, 69
1, 11233, Note_off_c, 9, 38, 64
1, 11233, Note_on_c, 9, 42, 72
1, 11234, Note_off_c, 9, 42, 64
1, 11257, Note_off_c, 3, 65, 64
1, 11278, Lyric_t, "and "
1, 11278, Note_on_c, 3, 65, 88
1, 11279, Note_on_c, 9, 42, 39
1, 11280, Note_off_c, 9, 42, 64
1, 11280, Note_on_c, 0, 71, 60
1, 11292, Note_off_c, 1, 37, 64
1, 11304, Note_on_c, 9, 35, 50
1, 11305, Note_off_c, 9, 35, 64
1, 11305, Note_on_c, 1, 37, 47
1, 11313, Note_off_c, 1, 37, 64
1, 11317, Note_off_c, 3, 65, 64
1, 11322, Lyric_t, "sor"
1, 11322, Note_on_c, 3, 66, 99
1, 11327, Note_on_c, 9, 42, 76
1, 11328, Note_off_c, 9, 42, 64
1, 11328, Note_on_c, 9, 35, 64
1, 11329, Note_off_c, 9, 35, 64
1, 11329, Note_on_c, 1, 37, 87
1, 11333, Note_off_c, 1, 37, 64
1, 11369, Note_off_c, 3, 66, 64
1, 11371, Lyric_t, "row? "
1, 11371, Lyric_t, "\015"
1, 11371, Note_on_c, 3, 68, 92
1, 11376, Note_on_c, 9, 42, 52
1, 11377, Note_off_c, 9, 42, 64
1, 11377, Note_on_c, 1, 37, 107
1, 11377, Note_on_c, 0, 73, 50
1, 11421, Lyric_t, "\012"
1, 11424, Note_on_c, 9, 38, 73
1, 11424, Note_on_c, 9, 42, 77
1, 11425, Note_off_c, 9, 42, 64
1, 11425, Note_off_c, 9, 38, 64
1, 11453, Note_off_c, 1, 37, 64
1, 11473, Note_on_c, 9, 42, 39
1, 11473, Note_on_c, 1, 37, 91
1, 11474, Note_off_c, 9, 42, 64
1, 11488, Note_off_c, 3, 68, 64
1, 11491, Note_off_c, 1, 37, 64
1, 11497, Note_on_c, 1, 35, 100
1, 11512, Note_off_c, 6, 61, 64
1, 11513, Note_off_c, 1, 35, 64
1, 11513, Note_off_c, 6, 59, 64
1, 11514, Note_off_c, 6, 68, 64
1, 11515, Note_off_c, 6, 65, 64
1, 11517, Note_off_c, 0, 73, 64
1, 11517, Note_off_c, 0, 59, 64
1, 11517, Note_off_c, 0, 65, 64
1, 11517, Note_off_c, 0, 63, 64
1, 11517, Note_off_c, 0, 71, 64
1, 11517, Note_off_c, 0, 68, 64
1, 11517, Note_on_c, 6, 59, 52
1, 11517, Note_on_c, 6, 64, 60
1, 11517, Note_on_c, 6, 68, 56
1, 11520, Lyric_t, "(Boy) "
1, 11520, Note_on_c, 9, 35, 76
1, 11520, Note_on_c, 0, 68, 51
1, 11520, Note_on_c, 0, 76, 72
1, 11520, Note_on_c, 0, 73, 60
1, 11521, Note_off_c, 9, 35, 64
1, 11521, Note_on_c, 9, 49, 50
1, 11521, Note_on_c, 1, 33, 84
1, 11522, Note_off_c, 9, 49, 64
1, 11568, Note_on_c, 0, 80, 61
1, 11569, Note_on_c, 9, 42, 54
1, 11570, Note_off_c, 9, 42, 64
1, 11616, Note_on_c, 9, 38, 76
1, 11616, Note_on_c, 9, 42, 86
1, 11617, Note_off_c, 9, 42, 64
1, 11617, Note_off_c, 9, 38, 64
1, 11641, Note_off_c, 1, 33, 64
1, 11663, Note_on_c, 9, 42, 47
1, 11664, Note_off_c, 9, 42, 64
1, 11664, Note_on_c, 1, 33, 102
1, 11687, Note_off_c, 1, 33, 64
1, 11711, Note_off_c, 0, 73, 64
1, 11711, Note_off_c, 0, 76, 64
1, 11712, Note_on_c, 9, 35, 74
1, 11712, Note_on_c, 9, 42, 75
1, 11712, Note_on_c, 0, 76, 66
1, 11712, Note_on_c, 0, 73, 57
1, 11713, Note_off_c, 9, 42, 64
1, 11713, Note_off_c, 9, 35, 64
1, 11713, Note_on_c, 1, 28, 100
1, 11759, Lyric_t, "\226 Los"
1, 11759, Note_on_c, 3, 61, 93
1, 11759, Note_on_c, 9, 42, 38
1, 11760, Note_off_c, 9, 42, 64
1, 11800, Note_off_c, 3, 61, 64
1, 11801, Note_off_c, 1, 28, 64
1, 11806, Note_off_c, 0, 73, 64
1, 11806, Note_off_c, 0, 68, 64
1, 11807, Note_on_c, 1, 33, 104
1, 11807, Note_on_c, 0, 68, 62
1, 11807, Note_on_c, 0, 73, 60
1, 11808, Lyric_t, "ing "
1, 11808, Note_on_c, 3, 61, 97
1, 11808, Note_on_c, 9, 38, 70
1, 11808, Note_on_c, 9, 42, 77
1, 11809, Note_off_c, 9, 42, 64
1, 11809, Note_off_c, 9, 38, 64
1, 11855, Note_on_c, 9, 42, 50
1, 11856, Note_off_c, 9, 42, 64
1, 11874, Note_off_c, 3, 61, 64
1, 11878, Lyric_t, "you "
1, 11878, Note_on_c, 3, 59, 92
1, 11886, Note_off_c, 1, 33, 64
1, 11897, Note_off_c, 6, 59, 64
1, 11900, Note_off_c, 6, 64, 64
1, 11900, Note_on_c, 6, 59, 59
1, 11901, Note_off_c, 3, 59, 64
1, 11901, Note_on_c, 6, 66, 59
1, 11902, Note_on_c, 6, 63, 59
1, 11903, Note_on_c, 9, 42, 78
1, 11903, Note_on_c, 0, 75, 56
1, 11903, Note_on_c, 0, 66, 60
1, 11903, Note_on_c, 0, 71, 59
1, 11903, Note_off_c, 6, 68, 64
1, 11903, Note_on_c, 6, 56, 59
1, 11904, Note_off_c, 9, 42, 64
1, 11904, Note_on_c, 9, 35, 66
1, 11905, Note_off_c, 9, 35, 64
1, 11905, Note_on_c, 1, 32, 107
1, 11907, Lyric_t, "now, "
1, 11907, Note_on_c, 3, 59, 86
1, 11909, Note_off_c, 0, 73, 64
1, 11909, Note_off_c, 0, 68, 64
1, 11909, Note_off_c, 0, 80, 64
1, 11909, Note_off_c, 0, 76, 64
1, 11952, Note_on_c, 9, 42, 43
1, 11953, Note_off_c, 9, 42, 64
1, 11999, Note_on_c, 9, 42, 79
1, 12000, Note_off_c, 9, 42, 64
1, 12000, Note_on_c, 9, 38, 70
1, 12001, Note_off_c, 9, 38, 64
1, 12028, Note_off_c, 1, 32, 64
1, 12047, Note_on_c, 9, 42, 46
1, 12048, Note_off_c, 9, 42, 64
1, 12048, Note_on_c, 9, 35, 57
1, 12049, Note_off_c, 9, 35, 64
1, 12049, Note_on_c, 1, 39, 87
1, 12095, Note_on_c, 9, 42, 72
1, 12096, Note_off_c, 9, 42, 64
1, 12096, Note_on_c, 9, 35, 81
1, 12097, Note_off_c, 9, 35, 64
1, 12098, Note_off_c, 3, 59, 64
1, 12124, Note_off_c, 1, 39, 64
1, 12143, Note_on_c, 9, 42, 41
1, 12144, Note_off_c, 9, 42, 64
1, 12145, Note_on_c, 1, 32, 93
1, 12191, Note_on_c, 9, 42, 75
1, 12192, Lyric_t, "won"
1, 12192, Note_on_c, 3, 61, 91
1, 12192, Note_off_c, 9, 42, 64
1, 12192, Note_on_c, 9, 38, 74
1, 12193, Note_off_c, 9, 38, 64
1, 12213, Note_off_c, 1, 32, 64
1, 12240, Lyric_t, "der"
1, 12240, Note_off_c, 3, 61, 64
1, 12240, Note_on_c, 3, 59, 69
1, 12240, Note_on_c, 9, 42, 31
1, 12241, Note_off_c, 9, 42, 64
1, 12241, Note_on_c, 1, 39, 89
1, 12265, Note_off_c, 3, 59, 64
1, 12266, Lyric_t, "ing "
1, 12266, Note_on_c, 3, 56, 56
1, 12277, Note_off_c, 6, 66, 64
1, 12279, Note_off_c, 6, 63, 64
1, 12280, Note_off_c, 3, 56, 64
1, 12281, Note_off_c, 6, 56, 64
1, 12282, Note_off_c, 6, 59, 64
1, 12282, Note_on_c, 6, 66, 62
1, 12284, Note_on_c, 6, 63, 64
1, 12284, Note_on_c, 6, 59, 59
1, 12285, Note_on_c, 6, 56, 59
1, 12286, Note_off_c, 0, 71, 64
1, 12286, Note_off_c, 0, 75, 64
1, 12286, Note_off_c, 0, 66, 64
1, 12288, Note_on_c, 9, 35, 71
1, 12288, Note_on_c, 9, 42, 73
1, 12288, Note_off_c, 1, 39, 64
1, 12289, Lyric_t, "why, "
1, 12289, Lyric_t, "\015"
1, 12289, Note_on_c, 3, 61, 93
1, 12289, Note_off_c, 9, 42, 64
1, 12289, Note_off_c, 9, 35, 64
1, 12289, Note_on_c, 1, 32, 81
1, 12289, Note_on_c, 0, 63, 67
1, 12289, Note_on_c, 0, 66, 81
1, 12318, Note_on_c, 3, 59, 75
1, 12323, Note_off_c, 3, 61, 64
1, 12337, Note_on_c, 9, 42, 31
1, 12337, Note_on_c, 0, 71, 80
1, 12338, Note_off_c, 9, 42, 64
1, 12384, Note_on_c, 9, 38, 67
1, 12385, Note_off_c, 9, 38, 64
1, 12385, Note_on_c, 9, 42, 72
1, 12386, Note_off_c, 9, 42, 64
1, 12410, Note_off_c, 1, 32, 64
1, 12432, Note_on_c, 9, 42, 34
1, 12432, Note_on_c, 0, 75, 70
1, 12433, Note_off_c, 9, 42, 64
1, 12433, Note_on_c, 1, 32, 99
1, 12446, Note_off_c, 3, 59, 64
1, 12463, Note_off_c, 1, 32, 64
1, 12479, Note_on_c, 9, 42, 66
1, 12480, Note_off_c, 9, 42, 64
1, 12480, Note_on_c, 9, 35, 72
1, 12480, Note_off_c, 0, 71, 64
1, 12481, Note_off_c, 9, 35, 64
1, 12481, Note_on_c, 1, 39, 84
1, 12481, Note_on_c, 0, 71, 74
1, 12527, Note_on_c, 9, 42, 41
1, 12528, Note_off_c, 9, 42, 64
1, 12569, Note_off_c, 1, 39, 64
1, 12575, Note_on_c, 9, 42, 72
1, 12576, Note_off_c, 9, 42, 64
1, 12576, Note_on_c, 9, 38, 68
1, 12577, Note_off_c, 9, 38, 64
1, 12577, Note_on_c, 1, 32, 101
1, 12606, Lyric_t, "where "
1, 12606, Note_on_c, 3, 56, 93
1, 12623, Note_on_c, 9, 42, 47
1, 12624, Note_off_c, 9, 42, 64
1, 12639, Note_off_c, 3, 56, 64
1, 12643, Lyric_t, "will "
1, 12643, Note_on_c, 3, 59, 94
1, 12649, Note_off_c, 1, 32, 64
1, 12658, Note_off_c, 0, 71, 64
1, 12658, Note_off_c, 0, 75, 64
1, 12658, Note_off_c, 0, 66, 64
1, 12658, Note_off_c, 0, 63, 64
1, 12665, Note_off_c, 6, 66, 64
1, 12667, Note_off_c, 6, 63, 64
1, 12667, Note_off_c, 6, 59, 64
1, 12668, Note_off_c, 6, 56, 64
1, 12669, Note_on_c, 6, 61, 55
1, 12669, Note_on_c, 6, 68, 65
1, 12669, Note_on_c, 6, 65, 68
1, 12669, Note_on_c, 6, 59, 49
1, 12671, Note_on_c, 9, 42, 66
1, 12672, Note_off_c, 9, 42, 64
1, 12672, Note_on_c, 9, 35, 70
1, 12672, Note_on_c, 1, 37, 107
1, 12673, Note_off_c, 9, 35, 64
1, 12675, Note_off_c, 3, 59, 64
1, 12682, Lyric_t, "I "
1, 12682, Note_on_c, 3, 61, 91
1, 12719, Note_on_c, 9, 42, 42
1, 12719, Note_on_c, 0, 65, 80
1, 12720, Note_off_c, 9, 42, 64
1, 12724, Note_off_c, 3, 61, 64
1, 12729, Lyric_t, "be "
1, 12729, Note_on_c, 3, 61, 89
1, 12767, Note_on_c, 9, 42, 69
1, 12767, Note_on_c, 0, 68, 82
1, 12768, Note_off_c, 9, 42, 64
1, 12768, Note_on_c, 9, 38, 72
1, 12769, Note_off_c, 9, 38, 64
1, 12815, Note_on_c, 0, 71, 80
1, 12816, Note_on_c, 9, 42, 41
1, 12816, Note_off_c, 1, 37, 64
1, 12817, Note_off_c, 9, 42, 64
1, 12824, Note_off_c, 3, 61, 64
1, 12839, Note_on_c, 1, 37, 70
1, 12840, Note_on_c, 9, 35, 50
1, 12841, Note_off_c, 9, 35, 64
1, 12843, Lyric_t, "to"
1, 12843, Note_on_c, 3, 61, 91
1, 12856, Note_off_c, 1, 37, 64
1, 12863, Note_on_c, 9, 42, 72
1, 12863, Note_on_c, 0, 73, 73
1, 12864, Note_off_c, 9, 42, 64
1, 12864, Note_on_c, 9, 35, 64
1, 12864, Note_on_c, 1, 37, 89
1, 12865, Note_off_c, 9, 35, 64
1, 12869, Note_off_c, 1, 37, 64
1, 12870, Lyric_t, "mor"
1, 12870, Note_on_c, 3, 63, 89
1, 12872, Note_off_c, 3, 61, 64
1, 12911, Note_on_c, 9, 42, 53
1, 12912, Note_off_c, 9, 42, 64
1, 12913, Note_on_c, 1, 37, 104
1, 12920, Lyric_t, "row. "
1, 12920, Lyric_t, "\015"
1, 12920, Note_on_c, 3, 65, 104
1, 12923, Note_off_c, 3, 63, 64
1, 12960, Note_on_c, 9, 38, 75
1, 12960, Note_on_c, 9, 42, 63
1, 12961, Note_off_c, 9, 42, 64
1, 12961, Note_off_c, 9, 38, 64
1, 12982, Lyric_t, "\012"
1, 12985, Note_off_c, 1, 37, 64
1, 13007, Note_on_c, 1, 37, 101
1, 13009, Note_on_c, 9, 43, 72
1, 13009, Note_on_c, 9, 42, 54
1, 13009, Note_on_c, 0, 77, 67
1, 13010, Note_off_c, 9, 42, 64
1, 13010, Note_off_c, 9, 43, 64
1, 13027, Note_off_c, 1, 37, 64
1, 13031, Note_on_c, 1, 35, 94
1, 13039, Note_off_c, 3, 65, 64
1, 13049, Note_off_c, 6, 68, 64
1, 13051, Note_off_c, 6, 65, 64
1, 13052, Note_off_c, 1, 35, 64
1, 13052, Note_on_c, 6, 68, 76
1, 13052, Note_on_c, 6, 80, 71
1, 13053, Note_off_c, 0, 77, 64
1, 13053, Note_off_c, 0, 71, 64
1, 13053, Note_off_c, 0, 65, 64
1, 13053, Note_off_c, 0, 68, 64
1, 13053, Note_off_c, 0, 73, 64
1, 13053, Note_off_c, 6, 59, 64
1, 13054, Note_off_c, 6, 61, 64
1, 13056, Note_on_c, 9, 35, 76
1, 13056, Note_on_c, 1, 33, 112
1, 13057, Note_off_c, 9, 35, 64
1, 13057, Note_on_c, 9, 49, 50
1, 13057, Note_on_c, 0, 78, 73
1, 13058, Note_off_c, 9, 49, 64
1, 13105, Note_on_c, 9, 42, 54
1, 13105, Note_on_c, 0, 76, 76
1, 13106, Lyric_t, "For"
1, 13106, Note_on_c, 3, 68, 78
1, 13106, Note_on_c, 4, 68, 78
1, 13106, Note_off_c, 9, 42, 64
1, 13144, Note_off_c, 3, 68, 64
1, 13151, Note_off_c, 4, 68, 64
1, 13152, Lyric_t, "ev"
1, 13152, Note_on_c, 3, 68, 82
1, 13152, Note_on_c, 4, 68, 82
1, 13152, Note_on_c, 9, 38, 76
1, 13152, Note_on_c, 9, 42, 86
1, 13153, Note_off_c, 9, 42, 64
1, 13153, Note_off_c, 9, 38, 64
1, 13177, Note_off_c, 1, 33, 64
1, 13191, Note_off_c, 3, 68, 64
1, 13199, Note_on_c, 9, 42, 47
1, 13199, Note_on_c, 1, 33, 108
1, 13200, Note_off_c, 4, 68, 64
1, 13200, Note_off_c, 9, 42, 64
1, 13200, Note_on_c, 0, 73, 67
1, 13201, Lyric_t, "er "
1, 13201, Note_on_c, 3, 68, 84
1, 13201, Note_on_c, 4, 68, 84
1, 13238, Note_off_c, 3, 68, 64
1, 13238, Note_off_c, 1, 33, 64
1, 13247, Lyric_t, "liv"
1, 13247, Note_on_c, 3, 73, 93
1, 13247, Note_off_c, 4, 68, 64
1, 13247, Note_on_c, 4, 73, 93
1, 13247, Note_on_c, 1, 28, 106
1, 13248, Note_on_c, 9, 35, 74
1, 13248, Note_on_c, 9, 42, 75
1, 13249, Note_off_c, 9, 42, 64
1, 13249, Note_off_c, 9, 35, 64
1, 13249, Note_on_c, 0, 68, 56
1, 13287, Note_off_c, 6, 80, 64
1, 13292, Note_on_c, 6, 76, 79
1, 13294, Note_on_c, 6, 64, 79
1, 13295, Note_on_c, 9, 42, 38
1, 13296, Note_off_c, 9, 42, 64
1, 13299, Note_off_c, 6, 68, 64
1, 13330, Note_off_c, 3, 73, 64
1, 13333, Note_off_c, 1, 28, 64
1, 13338, Note_on_c, 6, 73, 82
1, 13340, Note_off_c, 6, 64, 64
1, 13341, Note_off_c, 6, 76, 64
1, 13342, Note_on_c, 6, 61, 82
1, 13343, Lyric_t, "ing "
1, 13343, Note_on_c, 3, 68, 93
1, 13343, Note_off_c, 4, 73, 64
1, 13343, Note_on_c, 4, 68, 93
1, 13343, Note_on_c, 1, 33, 102
1, 13344, Note_on_c, 9, 38, 70
1, 13344, Note_on_c, 9, 42, 77
1, 13345, Note_off_c, 9, 42, 64
1, 13345, Note_off_c, 9, 38, 64
1, 13385, Note_off_c, 3, 68, 64
1, 13387, Note_off_c, 6, 73, 64
1, 13387, Note_on_c, 6, 71, 81
1, 13390, Lyric_t, "what "
1, 13390, Note_on_c, 3, 66, 97
1, 13390, Note_off_c, 4, 68, 64
1, 13390, Note_on_c, 4, 66, 97
1, 13390, Note_off_c, 6, 61, 64
1, 13391, Note_on_c, 9, 42, 50
1, 13392, Note_off_c, 9, 42, 64
1, 13392, Note_on_c, 6, 59, 78
1, 13429, Note_off_c, 3, 66, 64
1, 13431, Note_off_c, 1, 33, 64
1, 13436, Lyric_t, "we "
1, 13436, Note_on_c, 3, 68, 87
1, 13436, Note_off_c, 4, 66, 64
1, 13436, Note_on_c, 4, 68, 87
1, 13436, Note_off_c, 6, 71, 64
1, 13436, Note_on_c, 6, 75, 77
1, 13439, Note_on_c, 9, 42, 78
1, 13439, Note_on_c, 1, 32, 104
1, 13439, Note_off_c, 0, 68, 64
1, 13439, Note_off_c, 0, 78, 64
1, 13439, Note_off_c, 0, 76, 64
1, 13439, Note_off_c, 0, 73, 64
1, 13439, Note_off_c, 6, 59, 64
1, 13440, Note_off_c, 9, 42, 64
1, 13440, Note_on_c, 9, 35, 66
1, 13440, Note_on_c, 6, 63, 80
1, 13441, Note_off_c, 9, 35, 64
1, 13441, Note_on_c, 0, 71, 73
1, 13441, Note_on_c, 0, 66, 70
1, 13441, Note_on_c, 0, 63, 62
1, 13476, Note_off_c, 3, 68, 64
1, 13480, Note_off_c, 6, 75, 64
1, 13480, Note_on_c, 6, 76, 78
1, 13483, Note_off_c, 4, 68, 64
1, 13484, Lyric_t, "are "
1, 13484, Lyric_t, "\015"
1, 13484, Note_on_c, 3, 68, 84
1, 13484, Note_on_c, 4, 68, 84
1, 13485, Note_off_c, 6, 63, 64
1, 13485, Note_on_c, 6, 64, 71
1, 13488, Note_on_c, 9, 42, 43
1, 13489, Note_off_c, 9, 42, 64
1, 13535, Note_on_c, 9, 42, 79
1, 13536, Note_off_c, 9, 42, 64
1, 13536, Note_on_c, 9, 38, 70
1, 13537, Note_off_c, 9, 38, 64
1, 13583, Note_on_c, 9, 42, 46
1, 13584, Note_off_c, 9, 42, 64
1, 13620, Note_off_c, 1, 32, 64
1, 13628, Note_off_c, 0, 63, 64
1, 13628, Note_off_c, 0, 66, 64
1, 13628, Note_off_c, 0, 71, 64
1, 13630, Note_off_c, 3, 68, 64
1, 13630, Note_off_c, 4, 68, 64
1, 13631, Note_on_c, 9, 42, 72
1, 13631, Note_on_c, 1, 37, 99
1, 13632, Note_off_c, 9, 42, 64
1, 13632, Note_on_c, 9, 35, 81
1, 13632, Note_on_c, 0, 73, 71
1, 13632, Note_on_c, 0, 68, 70
1, 13632, Note_on_c, 0, 64, 70
1, 13633, Note_off_c, 9, 35, 64
1, 13679, Note_on_c, 9, 42, 41
1, 13680, Note_off_c, 9, 42, 64
1, 13683, Lyric_t, "to "
1, 13683, Note_on_c, 3, 66, 81
1, 13683, Note_on_c, 4, 66, 81
1, 13715, Note_off_c, 3, 66, 64
1, 13717, Note_off_c, 1, 37, 64
1, 13723, Note_on_c, 6, 56, 97
1, 13724, Lyric_t, "be "
1, 13724, Note_on_c, 3, 64, 81
1, 13724, Note_off_c, 4, 66, 64
1, 13724, Note_on_c, 4, 64, 81
1, 13724, Note_on_c, 6, 68, 77
1, 13726, Note_off_c, 6, 76, 64
1, 13727, Note_on_c, 9, 42, 75
1, 13728, Note_off_c, 9, 42, 64
1, 13728, Note_on_c, 9, 38, 74
1, 13729, Note_off_c, 9, 38, 64
1, 13729, Note_on_c, 1, 37, 101
1, 13730, Note_off_c, 6, 64, 64
1, 13768, Note_off_c, 6, 68, 64
1, 13769, Note_on_c, 6, 69, 78
1, 13774, Note_on_c, 6, 57, 72
1, 13775, Note_off_c, 6, 56, 64
1, 13776, Note_on_c, 9, 42, 31
1, 13777, Note_off_c, 9, 42, 64
1, 13807, Note_off_c, 1, 37, 64
1, 13819, Note_off_c, 0, 64, 64
1, 13819, Note_off_c, 0, 68, 64
1, 13819, Note_off_c, 0, 73, 64
1, 13823, Note_on_c, 1, 38, 102
1, 13824, Note_on_c, 9, 35, 71
1, 13824, Note_on_c, 9, 42, 73
1, 13824, Note_on_c, 0, 69, 77
1, 13825, Note_off_c, 9, 42, 64
1, 13825, Note_off_c, 9, 35, 64
1, 13825, Note_on_c, 0, 61, 63
1, 13825, Note_on_c, 0, 64, 76
1, 13825, Note_on_c, 0, 66, 75
1, 13833, Note_off_c, 3, 64, 64
1, 13833, Note_off_c, 4, 64, 64
1, 13863, Note_on_c, 6, 64, 59
1, 13867, Note_off_c, 6, 57, 64
1, 13867, Note_on_c, 6, 76, 65
1, 13870, Note_off_c, 6, 69, 64
1, 13872, Lyric_t, "with"
1, 13872, Note_on_c, 3, 64, 85
1, 13872, Note_on_c, 4, 64, 85
1, 13873, Note_on_c, 9, 42, 31
1, 13874, Note_off_c, 9, 42, 64
1, 13913, Note_off_c, 3, 64, 64
1, 13919, Note_off_c, 4, 64, 64
1, 13920, Lyric_t, "out "
1, 13920, Note_on_c, 3, 64, 92
1, 13920, Note_on_c, 4, 64, 92
1, 13920, Note_on_c, 9, 38, 67
1, 13921, Note_off_c, 9, 38, 64
1, 13921, Note_on_c, 9, 42, 72
1, 13922, Note_off_c, 9, 42, 64
1, 13957, Note_off_c, 1, 38, 64
1, 13966, Lyric_t, "each "
1, 13966, Note_on_c, 3, 61, 61
1, 13966, Note_off_c, 4, 64, 64
1, 13966, Note_on_c, 4, 61, 61
1, 13967, Note_off_c, 3, 64, 64
1, 13967, Note_on_c, 1, 38, 102
1, 13968, Note_on_c, 9, 42, 34
1, 13969, Note_off_c, 9, 42, 64
1, 13998, Note_off_c, 3, 61, 64
1, 14007, Note_off_c, 1, 38, 64
1, 14012, Lyric_t, "oth"
1, 14012, Note_on_c, 3, 66, 97
1, 14012, Note_off_c, 4, 61, 64
1, 14012, Note_on_c, 4, 66, 97
1, 14014, Note_off_c, 0, 66, 64
1, 14014, Note_off_c, 0, 64, 64
1, 14015, Note_on_c, 9, 42, 66
1, 14015, Note_on_c, 1, 28, 106
1, 14015, Note_on_c, 0, 64, 66
1, 14015, Note_on_c, 0, 66, 67
1, 14015, Note_on_c, 0, 68, 68
1, 14016, Note_off_c, 9, 42, 64
1, 14016, Note_on_c, 9, 35, 72
1, 14016, Note_on_c, 0, 59, 70
1, 14017, Note_off_c, 9, 35, 64
1, 14018, Note_off_c, 0, 61, 64
1, 14018, Note_off_c, 0, 69, 64
1, 14063, Note_on_c, 9, 42, 41
1, 14064, Note_off_c, 9, 42, 64
1, 14086, Note_off_c, 1, 28, 64
1, 14099, Note_on_c, 6, 59, 71
1, 14105, Note_off_c, 6, 76, 64
1, 14105, Note_on_c, 6, 71, 71
1, 14106, Note_off_c, 6, 64, 64
1, 14107, Note_off_c, 3, 66, 64
1, 14111, Note_on_c, 9, 42, 72
1, 14112, Lyric_t, "er. "
1, 14112, Lyric_t, "\015"
1, 14112, Note_on_c, 3, 64, 80
1, 14112, Note_off_c, 4, 66, 64
1, 14112, Note_on_c, 4, 64, 80
1, 14112, Note_off_c, 9, 42, 64
1, 14112, Note_on_c, 9, 38, 68
1, 14112, Note_on_c, 1, 28, 106
1, 14113, Note_off_c, 9, 38, 64
1, 14149, Note_on_c, 6, 61, 66
1, 14152, Note_on_c, 6, 73, 65
1, 14154, Note_off_c, 6, 71, 64
1, 14156, Note_off_c, 6, 59, 64
1, 14159, Note_on_c, 9, 42, 47
1, 14160, Note_off_c, 9, 42, 64
1, 14183, Note_off_c, 1, 28, 64
1, 14196, Note_off_c, 0, 68, 64
1, 14196, Note_off_c, 0, 66, 64
1, 14196, Note_off_c, 0, 59, 64
1, 14196, Note_off_c, 0, 64, 64
1, 14207, Note_off_c, 3, 64, 64
1, 14207, Note_off_c, 4, 64, 64
1, 14207, Note_on_c, 9, 42, 66
1, 14207, Note_on_c, 0, 61, 58
1, 14207, Note_on_c, 0, 64, 77
1, 14207, Note_on_c, 0, 66, 75
1, 14207, Note_on_c, 0, 57, 73
1, 14208, Note_off_c, 9, 42, 64
1, 14208, Note_on_c, 9, 35, 70
1, 14209, Note_off_c, 9, 35, 64
1, 14209, Note_on_c, 1, 30, 107
1, 14250, Note_on_c, 6, 80, 65
1, 14253, Note_off_c, 6, 73, 64
1, 14255, Note_on_c, 9, 42, 42
1, 14256, Note_off_c, 9, 42, 64
1, 14256, Note_off_c, 6, 61, 64
1, 14256, Note_on_c, 6, 68, 65
1, 14257, Lyric_t, "We'll "
1, 14257, Note_on_c, 3, 68, 81
1, 14257, Note_on_c, 4, 68, 81
1, 14297, Note_off_c, 3, 68, 64
1, 14300, Note_off_c, 4, 68, 64
1, 14301, Lyric_t, "be "
1, 14301, Note_on_c, 3, 68, 79
1, 14301, Note_on_c, 4, 68, 79
1, 14303, Note_on_c, 9, 42, 69
1, 14304, Note_off_c, 9, 42, 64
1, 14304, Note_on_c, 9, 38, 72
1, 14305, Note_off_c, 9, 38, 64
1, 14328, Note_off_c, 1, 30, 64
1, 14344, Note_off_c, 3, 68, 64
1, 14350, Note_off_c, 4, 68, 64
1, 14351, Lyric_t, "re"
1, 14351, Note_on_c, 3, 68, 79
1, 14351, Note_on_c, 4, 68, 79
1, 14352, Note_on_c, 9, 35, 50
1, 14352, Note_on_c, 9, 42, 41
1, 14353, Note_off_c, 9, 42, 64
1, 14353, Note_off_c, 9, 35, 64
1, 14353, Note_on_c, 1, 30, 107
1, 14373, Note_on_c, 3, 69, 59
1, 14373, Note_off_c, 4, 68, 64
1, 14373, Note_on_c, 4, 69, 59
1, 14374, Note_off_c, 3, 68, 64
1, 14389, Note_off_c, 1, 30, 64
1, 14395, Lyric_t, "mem"
1, 14395, Note_off_c, 3, 69, 64
1, 14395, Note_on_c, 3, 68, 97
1, 14395, Note_off_c, 4, 69, 64
1, 14395, Note_on_c, 4, 68, 97
1, 14399, Note_on_c, 9, 42, 72
1, 14399, Note_off_c, 0, 57, 64
1, 14399, Note_off_c, 0, 61, 64
1, 14399, Note_off_c, 0, 64, 64
1, 14399, Note_off_c, 0, 66, 64
1, 14400, Note_off_c, 9, 42, 64
1, 14400, Note_on_c, 9, 35, 64
1, 14400, Note_on_c, 0, 61, 65
1, 14400, Note_on_c, 0, 68, 77
1, 14400, Note_on_c, 0, 59, 69
1, 14400, Note_on_c, 0, 64, 80
1, 14401, Note_off_c, 9, 35, 64
1, 14401, Note_on_c, 1, 37, 113
1, 14443, Note_off_c, 3, 68, 64
1, 14446, Lyric_t, "ber"
1, 14446, Note_on_c, 3, 64, 86
1, 14446, Note_off_c, 4, 68, 64
1, 14446, Note_on_c, 4, 64, 86
1, 14447, Note_on_c, 9, 42, 53
1, 14448, Note_off_c, 9, 42, 64
1, 14471, Note_on_c, 9, 43, 57
1, 14472, Note_off_c, 9, 43, 64
1, 14487, Note_off_c, 3, 64, 64
1, 14491, Note_off_c, 6, 80, 64
1, 14491, Note_on_c, 6, 73, 68
1, 14492, Note_off_c, 6, 68, 64
1, 14492, Note_on_c, 6, 61, 80
1, 14493, Lyric_t, "ing "
1, 14493, Note_on_c, 3, 61, 73
1, 14493, Note_off_c, 4, 64, 64
1, 14493, Note_on_c, 4, 61, 73
1, 14496, Note_on_c, 9, 45, 100
1, 14496, Note_on_c, 9, 42, 63
1, 14497, Note_off_c, 9, 42, 64
1, 14497, Note_off_c, 9, 45, 64
1, 14530, Note_off_c, 3, 61, 64
1, 14536, Note_off_c, 6, 61, 64
1, 14536, Note_off_c, 6, 73, 64
1, 14537, Note_on_c, 6, 62, 76
1, 14537, Note_on_c, 6, 74, 72
1, 14541, Lyric_t, "when. "
1, 14541, Lyric_t, "\015"
1, 14541, Note_on_c, 3, 62, 86
1, 14541, Note_off_c, 4, 61, 64
1, 14541, Note_on_c, 4, 62, 86
1, 14544, Note_on_c, 9, 41, 64
1, 14545, Note_off_c, 9, 41, 64
1, 14545, Note_on_c, 9, 42, 54
1, 14546, Note_off_c, 9, 42, 64
1, 14558, Lyric_t, "\012"
1, 14568, Note_off_c, 1, 37, 64
1, 14576, Note_off_c, 0, 64, 64
1, 14576, Note_off_c, 0, 61, 64
1, 14577, Note_off_c, 0, 59, 64
1, 14581, Note_off_c, 0, 68, 64
1, 14592, Lyric_t, "(Both) "
1, 14592, Note_on_c, 9, 35, 76
1, 14592, Note_on_c, 1, 38, 106
1, 14592, Note_on_c, 0, 69, 78
1, 14592, Note_on_c, 0, 66, 62
1, 14592, Note_on_c, 0, 62, 70
1, 14592, Note_on_c, 0, 64, 70
1, 14592, Note_on_c, 2, 66, 74
1, 14592, Note_on_c, 6, 57, 59
1, 14592, Note_on_c, 6, 66, 63
1, 14592, Note_on_c, 6, 81, 64
1, 14593, Note_off_c, 9, 35, 64
1, 14593, Note_on_c, 9, 49, 50
1, 14594, Note_off_c, 9, 49, 64
1, 14626, Note_off_c, 3, 62, 64
1, 14641, Lyric_t, "\226 There "
1, 14641, Note_on_c, 3, 66, 82
1, 14641, Note_on_c, 9, 42, 54
1, 14641, Note_on_c, 2, 57, 82
1, 14642, Note_off_c, 4, 62, 64
1, 14642, Note_on_c, 4, 57, 68
1, 14642, Note_off_c, 9, 42, 64
1, 14682, Note_off_c, 3, 66, 64
1, 14688, Lyric_t, "was "
1, 14688, Note_on_c, 3, 66, 107
1, 14688, Note_on_c, 9, 38, 76
1, 14688, Note_on_c, 9, 42, 86
1, 14689, Note_off_c, 9, 42, 64
1, 14689, Note_off_c, 9, 38, 64
1, 14689, Note_on_c, 2, 62, 91
1, 14690, Note_off_c, 4, 57, 64
1, 14691, Note_on_c, 4, 57, 76
1, 14734, Note_off_c, 3, 66, 64
1, 14734, Note_off_c, 4, 57, 64
1, 14735, Note_on_c, 4, 57, 92
1, 14735, Note_on_c, 9, 42, 47
1, 14736, Note_off_c, 9, 42, 64
1, 14736, Note_off_c, 0, 62, 64
1, 14736, Note_off_c, 2, 66, 64
1, 14737, Note_on_c, 0, 62, 73
1, 14737, Note_on_c, 2, 66, 73
1, 14740, Lyric_t, "a "
1, 14740, Note_on_c, 3, 66, 83
1, 14778, Note_off_c, 3, 66, 64
1, 14784, Note_off_c, 4, 57, 64
1, 14784, Note_on_c, 9, 35, 74
1, 14784, Note_on_c, 9, 42, 75
1, 14784, Note_off_c, 0, 69, 64
1, 14785, Note_on_c, 4, 57, 84
1, 14785, Note_off_c, 9, 42, 64
1, 14785, Note_off_c, 9, 35, 64
1, 14785, Note_on_c, 0, 69, 65
1, 14787, Lyric_t, "time "
1, 14787, Lyric_t, "\015"
1, 14787, Note_on_c, 3, 66, 99
1, 14827, Note_off_c, 3, 66, 64
1, 14830, Note_off_c, 4, 57, 64
1, 14831, Note_on_c, 4, 57, 98
1, 14831, Note_on_c, 9, 42, 38
1, 14832, Note_off_c, 9, 42, 64
1, 14833, Note_on_c, 0, 74, 60
1, 14834, Lyric_t, "when "
1, 14834, Note_on_c, 3, 66, 103
1, 14873, Note_off_c, 3, 66, 64
1, 14880, Lyric_t, "we "
1, 14880, Note_on_c, 3, 66, 97
1, 14880, Note_on_c, 9, 38, 70
1, 14880, Note_on_c, 9, 42, 77
1, 14880, Note_off_c, 2, 66, 64
1, 14881, Note_off_c, 4, 57, 64
1, 14881, Note_off_c, 9, 42, 64
1, 14881, Note_off_c, 9, 38, 64
1, 14881, Note_on_c, 2, 66, 82
1, 14882, Note_on_c, 4, 57, 87
1, 14904, Note_off_c, 2, 57, 64
1, 14905, Note_on_c, 2, 57, 78
1, 14913, Note_off_c, 1, 38, 64
1, 14922, Note_off_c, 3, 66, 64
1, 14927, Note_off_c, 4, 57, 64
1, 14927, Note_on_c, 9, 42, 50
1, 14928, Lyric_t, "were "
1, 14928, Note_on_c, 3, 66, 99
1, 14928, Note_on_c, 4, 57, 102
1, 14928, Note_off_c, 9, 42, 64
1, 14928, Note_on_c, 9, 35, 58
1, 14928, Note_on_c, 1, 38, 106
1, 14928, Note_off_c, 2, 62, 64
1, 14929, Note_off_c, 9, 35, 64
1, 14929, Note_on_c, 2, 62, 75
1, 14965, Note_off_c, 3, 66, 64
1, 14966, Note_off_c, 0, 74, 64
1, 14966, Note_off_c, 0, 64, 64
1, 14966, Note_off_c, 0, 62, 64
1, 14966, Note_off_c, 0, 66, 64
1, 14966, Note_off_c, 0, 69, 64
1, 14968, Note_off_c, 6, 74, 64
1, 14968, Note_off_c, 6, 62, 64
1, 14970, Note_off_c, 6, 66, 64
1, 14972, Note_off_c, 6, 81, 64
1, 14972, Note_on_c, 6, 66, 71
1, 14972, Note_on_c, 6, 74, 61
1, 14973, Note_off_c, 1, 38, 64
1, 14973, Note_on_c, 6, 83, 66
1, 14975, Lyric_t, "down "
1, 14975, Note_on_c, 3, 66, 107
1, 14975, Note_on_c, 9, 42, 78
1, 14975, Note_on_c, 0, 66, 67
1, 14975, Note_on_c, 0, 71, 73
1, 14975, Note_on_c, 0, 62, 68
1, 14975, Note_off_c, 6, 57, 64
1, 14976, Note_off_c, 9, 42, 64
1, 14976, Note_on_c, 9, 35, 74
1, 14976, Note_on_c, 1, 31, 106
1, 14976, Note_off_c, 2, 66, 64
1, 14976, Note_on_c, 6, 55, 66
1, 14977, Note_off_c, 4, 57, 64
1, 14977, Note_on_c, 4, 59, 92
1, 14977, Note_off_c, 9, 35, 64
1, 14977, Note_on_c, 2, 66, 75
1, 14986, Note_off_c, 2, 62, 64
1, 14986, Note_off_c, 2, 57, 64
1, 15024, Note_on_c, 9, 42, 43
1, 15025, Note_off_c, 9, 42, 64
1, 15048, Note_on_c, 2, 55, 77
1, 15071, Note_off_c, 3, 66, 64
1, 15071, Note_on_c, 9, 42, 79
1, 15072, Note_off_c, 9, 42, 64
1, 15072, Note_on_c, 9, 38, 70
1, 15073, Lyric_t, "and "
1, 15073, Note_on_c, 3, 69, 103
1, 15073, Note_off_c, 4, 59, 64
1, 15073, Note_off_c, 9, 38, 64
1, 15073, Note_on_c, 2, 62, 83
1, 15074, Note_on_c, 4, 59, 80
1, 15114, Note_off_c, 3, 69, 64
1, 15119, Note_off_c, 4, 59, 64
1, 15119, Note_on_c, 9, 42, 46
1, 15120, Note_on_c, 4, 59, 102
1, 15120, Note_off_c, 9, 42, 64
1, 15120, Note_off_c, 2, 66, 64
1, 15121, Lyric_t, "out. "
1, 15121, Lyric_t, "\015"
1, 15121, Note_on_c, 3, 66, 103
1, 15121, Note_on_c, 2, 66, 78
1, 15167, Note_on_c, 9, 42, 72
1, 15168, Note_off_c, 9, 42, 64
1, 15168, Note_on_c, 9, 35, 81
1, 15169, Note_off_c, 9, 35, 64
1, 15188, Note_off_c, 3, 66, 64
1, 15189, Note_on_c, 3, 64, 94
1, 15192, Note_off_c, 4, 59, 64
1, 15192, Note_on_c, 4, 57, 78
1, 15212, Note_off_c, 3, 64, 64
1, 15214, Note_on_c, 3, 62, 88
1, 15215, Note_on_c, 9, 42, 41
1, 15216, Note_off_c, 9, 42, 64
1, 15217, Note_off_c, 4, 57, 64
1, 15217, Note_on_c, 4, 55, 80
1, 15240, Note_off_c, 2, 62, 64
1, 15241, Note_on_c, 2, 62, 62
1, 15260, Note_off_c, 3, 62, 64
1, 15261, Note_on_c, 3, 62, 95
1, 15262, Note_off_c, 0, 71, 64
1, 15263, Note_on_c, 9, 42, 75
1, 15263, Note_on_c, 0, 71, 72
1, 15264, Note_off_c, 9, 42, 64
1, 15264, Note_on_c, 9, 38, 74
1, 15264, Note_off_c, 2, 66, 64
1, 15265, Note_off_c, 9, 38, 64
1, 15265, Note_on_c, 2, 66, 76
1, 15286, Note_off_c, 2, 62, 64
1, 15311, Note_on_c, 3, 57, 95
1, 15311, Note_on_c, 0, 76, 57
1, 15312, Note_on_c, 9, 42, 31
1, 15313, Note_off_c, 9, 42, 64
1, 15313, Note_on_c, 2, 62, 88
1, 15340, Note_off_c, 3, 62, 64
1, 15345, Note_off_c, 6, 74, 64
1, 15347, Note_off_c, 1, 31, 64
1, 15350, Note_off_c, 6, 83, 64
1, 15355, Note_off_c, 6, 66, 64
1, 15356, Note_on_c, 6, 66, 57
1, 15356, Note_on_c, 6, 74, 61
1, 15358, Note_off_c, 2, 62, 64
1, 15358, Note_off_c, 2, 66, 64
1, 15358, Note_on_c, 6, 81, 66
1, 15359, Note_off_c, 0, 76, 64
1, 15359, Note_off_c, 2, 55, 64
1, 15359, Note_off_c, 6, 55, 64
1, 15360, Note_off_c, 4, 55, 64
1, 15360, Note_on_c, 9, 35, 71
1, 15360, Note_on_c, 9, 42, 73
1, 15360, Note_on_c, 0, 76, 66
1, 15360, Note_on_c, 0, 81, 66
1, 15360, Note_on_c, 6, 62, 57
1, 15360, Note_on_c, 6, 57, 66
1, 15361, Note_off_c, 9, 42, 64
1, 15361, Note_off_c, 9, 35, 64
1, 15361, Note_off_c, 0, 66, 64
1, 15361, Note_off_c, 0, 71, 64
1, 15361, Note_off_c, 0, 62, 64
1, 15361, Note_on_c, 0, 78, 56
1, 15362, Note_on_c, 1, 38, 97
1, 15383, Note_on_c, 2, 62, 77
1, 15406, Lyric_t, "There "
1, 15406, Note_on_c, 3, 66, 101
1, 15408, Note_on_c, 2, 66, 69
1, 15409, Note_on_c, 9, 42, 31
1, 15410, Note_off_c, 3, 57, 64
1, 15410, Note_off_c, 9, 42, 64
1, 15414, Note_on_c, 4, 57, 70
1, 15433, Note_on_c, 2, 57, 68
1, 15449, Note_off_c, 3, 66, 64
1, 15454, Note_off_c, 4, 57, 64
1, 15454, Note_off_c, 0, 76, 64
1, 15455, Lyric_t, "was "
1, 15455, Note_on_c, 3, 66, 108
1, 15455, Note_on_c, 4, 57, 84
1, 15455, Note_on_c, 0, 76, 57
1, 15456, Note_on_c, 9, 38, 67
1, 15456, Note_off_c, 2, 62, 64
1, 15457, Note_off_c, 9, 38, 64
1, 15457, Note_on_c, 9, 42, 72
1, 15457, Note_on_c, 2, 62, 85
1, 15458, Note_off_c, 9, 42, 64
1, 15497, Note_off_c, 3, 66, 64
1, 15501, Lyric_t, "a "
1, 15501, Note_on_c, 3, 66, 111
1, 15503, Note_on_c, 0, 74, 67
1, 15504, Note_on_c, 9, 42, 34
1, 15504, Note_off_c, 2, 66, 64
1, 15505, Note_off_c, 4, 57, 64
1, 15505, Note_off_c, 9, 42, 64
1, 15505, Note_on_c, 2, 66, 74
1, 15506, Note_on_c, 4, 57, 95
1, 15545, Note_off_c, 3, 66, 64
1, 15548, Lyric_t, "place "
1, 15548, Note_on_c, 3, 66, 115
1, 15551, Note_off_c, 4, 57, 64
1, 15551, Note_on_c, 9, 42, 66
1, 15552, Note_on_c, 4, 57, 91
1, 15552, Note_off_c, 9, 42, 64
1, 15552, Note_on_c, 9, 35, 72
1, 15553, Note_off_c, 9, 35, 64
1, 15577, Note_off_c, 1, 38, 64
1, 15594, Note_off_c, 3, 66, 64
1, 15597, Note_off_c, 4, 57, 64
1, 15598, Note_on_c, 4, 57, 100
1, 15599, Lyric_t, "when "
1, 15599, Note_on_c, 3, 66, 118
1, 15599, Note_on_c, 9, 42, 41
1, 15600, Note_off_c, 9, 42, 64
1, 15600, Note_on_c, 9, 35, 58
1, 15600, Note_on_c, 1, 38, 98
1, 15601, Note_off_c, 9, 35, 64
1, 15624, Note_off_c, 2, 57, 64
1, 15625, Note_on_c, 2, 57, 55
1, 15637, Note_off_c, 3, 66, 64
1, 15644, Lyric_t, "we "
1, 15644, Note_on_c, 3, 66, 119
1, 15646, Note_off_c, 4, 57, 64
1, 15647, Note_on_c, 4, 57, 92
1, 15647, Note_on_c, 9, 42, 72
1, 15648, Note_off_c, 9, 42, 64
1, 15648, Note_on_c, 9, 38, 68
1, 15648, Note_off_c, 0, 76, 64
1, 15648, Note_off_c, 2, 62, 64
1, 15649, Note_off_c, 9, 38, 64
1, 15649, Note_on_c, 0, 76, 61
1, 15649, Note_on_c, 2, 62, 74
1, 15672, Note_off_c, 2, 57, 64
1, 15673, Note_on_c, 2, 57, 51
1, 15681, Note_off_c, 1, 38, 64
1, 15685, Note_off_c, 3, 66, 64
1, 15690, Note_off_c, 4, 57, 64
1, 15691, Note_on_c, 4, 57, 104
1, 15692, Lyric_t, "were "
1, 15692, Note_on_c, 3, 66, 120
1, 15695, Note_on_c, 9, 42, 47
1, 15695, Note_off_c, 0, 74, 64
1, 15695, Note_off_c, 2, 62, 64
1, 15696, Note_off_c, 9, 42, 64
1, 15696, Note_on_c, 1, 38, 88
1, 15696, Note_on_c, 0, 74, 67
1, 15696, Note_on_c, 2, 62, 58
1, 15733, Note_off_c, 3, 66, 64
1, 15739, Note_off_c, 6, 66, 64
1, 15739, Note_off_c, 6, 74, 64
1, 15741, Lyric_t, "start"
1, 15741, Note_on_c, 3, 71, 122
1, 15741, Note_on_c, 6, 78, 58
1, 15741, Note_on_c, 6, 74, 63
1, 15741, Note_on_c, 6, 66, 62
1, 15743, Note_off_c, 4, 57, 64
1, 15743, Note_on_c, 4, 62, 102
1, 15743, Note_on_c, 9, 42, 66
1, 15743, Note_on_c, 0, 71, 44
1, 15743, Note_off_c, 2, 62, 64
1, 15743, Note_off_c, 6, 81, 64
1, 15743, Note_off_c, 6, 57, 64
1, 15743, Note_off_c, 6, 62, 64
1, 15744, Note_off_c, 9, 42, 64
1, 15744, Note_on_c, 9, 35, 70
1, 15744, Note_off_c, 1, 38, 64
1, 15744, Note_on_c, 1, 31, 95
1, 15744, Note_on_c, 0, 66, 58
1, 15744, Note_off_c, 2, 57, 64
1, 15744, Note_off_c, 2, 66, 64
1, 15744, Note_on_c, 6, 55, 66
1, 15744, Note_on_c, 6, 59, 66
1, 15745, Note_off_c, 9, 35, 64
1, 15745, Note_off_c, 0, 74, 64
1, 15745, Note_off_c, 0, 81, 64
1, 15745, Note_off_c, 0, 76, 64
1, 15745, Note_off_c, 0, 78, 64
1, 15745, Note_on_c, 0, 62, 45
1, 15791, Note_on_c, 9, 42, 42
1, 15791, Note_off_c, 0, 71, 64
1, 15791, Note_on_c, 2, 66, 78
1, 15792, Note_off_c, 9, 42, 64
1, 15792, Note_on_c, 0, 71, 59
1, 15835, Note_off_c, 3, 71, 64
1, 15836, Note_off_c, 4, 62, 64
1, 15836, Note_on_c, 4, 61, 102
1, 15839, Note_on_c, 9, 42, 69
1, 15839, Note_on_c, 2, 62, 85
1, 15840, Note_off_c, 9, 42, 64
1, 15840, Note_on_c, 9, 38, 72
1, 15840, Note_on_c, 0, 74, 70
1, 15841, Note_off_c, 9, 38, 64
1, 15842, Lyric_t, "ing "
1, 15842, Note_on_c, 3, 69, 110
1, 15886, Note_off_c, 2, 66, 64
1, 15887, Note_on_c, 2, 66, 76
1, 15888, Note_on_c, 9, 42, 41
1, 15888, Note_on_c, 0, 78, 81
1, 15889, Note_off_c, 9, 42, 64
1, 15932, Note_off_c, 3, 69, 64
1, 15934, Lyric_t, "o"
1, 15934, Note_on_c, 3, 66, 109
1, 15936, Note_on_c, 9, 35, 64
1, 15936, Note_on_c, 9, 42, 72
1, 15937, Note_off_c, 4, 61, 64
1, 15937, Note_on_c, 4, 57, 97
1, 15937, Note_off_c, 9, 42, 64
1, 15937, Note_off_c, 9, 35, 64
1, 15937, Note_on_c, 2, 59, 73
1, 15983, Note_on_c, 9, 42, 53
1, 15984, Note_off_c, 9, 42, 64
1, 15984, Note_off_c, 2, 62, 64
1, 15985, Note_on_c, 2, 62, 56
1, 16023, Note_off_c, 3, 66, 64
1, 16028, Lyric_t, "ver. "
1, 16028, Lyric_t, "\015"
1, 16028, Note_on_c, 3, 64, 112
1, 16031, Note_off_c, 4, 57, 64
1, 16031, Note_on_c, 4, 55, 90
1, 16032, Note_on_c, 9, 38, 72
1, 16032, Note_on_c, 9, 42, 63
1, 16032, Note_off_c, 2, 66, 64
1, 16033, Note_off_c, 9, 42, 64
1, 16033, Note_off_c, 9, 38, 64
1, 16033, Note_on_c, 2, 66, 80
1, 16053, Note_on_c, 3, 62, 100
1, 16054, Note_off_c, 3, 64, 64
1, 16057, Note_off_c, 4, 55, 64
1, 16057, Note_on_c, 4, 54, 62
1, 16057, Note_on_c, 2, 55, 45
1, 16078, Lyric_t, "\012"
1, 16080, Note_off_c, 2, 62, 64
1, 16081, Note_on_c, 9, 42, 54
1, 16081, Note_on_c, 2, 62, 62
1, 16082, Note_off_c, 9, 42, 64
1, 16103, Note_off_c, 1, 31, 64
1, 16104, Note_off_c, 0, 78, 64
1, 16104, Note_off_c, 0, 71, 64
1, 16104, Note_off_c, 0, 66, 64
1, 16104, Note_off_c, 0, 62, 64
1, 16104, Note_off_c, 0, 74, 64
1, 16125, Note_off_c, 2, 62, 64
1, 16125, Note_off_c, 2, 55, 64
1, 16125, Note_off_c, 2, 66, 64
1, 16125, Note_off_c, 2, 59, 64
1, 16125, Note_off_c, 6, 66, 64
1, 16125, Note_off_c, 6, 74, 64
1, 16126, Note_off_c, 6, 78, 64
1, 16127, Note_off_c, 6, 59, 64
1, 16127, Note_off_c, 6, 55, 64
1, 16128, Note_on_c, 9, 35, 76
1, 16128, Note_on_c, 0, 74, 65
1, 16128, Note_on_c, 0, 76, 65
1, 16128, Note_on_c, 0, 79, 68
1, 16128, Note_on_c, 2, 52, 76
1, 16128, Note_on_c, 6, 64, 62
1, 16128, Note_on_c, 6, 67, 63
1, 16128, Note_on_c, 6, 60, 64
1, 16129, Note_off_c, 9, 35, 64
1, 16129, Note_on_c, 9, 42, 69
1, 16129, Note_on_c, 1, 36, 108
1, 16130, Note_off_c, 9, 42, 64
1, 16133, Note_off_c, 3, 62, 64
1, 16133, Note_off_c, 4, 54, 64
1, 16152, Note_on_c, 2, 55, 66
1, 16176, Note_on_c, 0, 72, 68
1, 16177, Lyric_t, "We "
1, 16177, Note_on_c, 3, 64, 95
1, 16177, Note_on_c, 4, 55, 64
1, 16177, Note_on_c, 9, 42, 54
1, 16177, Note_on_c, 2, 64, 80
1, 16178, Note_off_c, 9, 42, 64
1, 16196, Note_off_c, 2, 55, 64
1, 16200, Note_on_c, 2, 57, 71
1, 16219, Note_off_c, 3, 64, 64
1, 16224, Note_off_c, 4, 55, 64
1, 16224, Note_on_c, 9, 38, 76
1, 16224, Note_on_c, 9, 42, 86
1, 16225, Lyric_t, "let "
1, 16225, Note_on_c, 3, 64, 98
1, 16225, Note_on_c, 4, 55, 86
1, 16225, Note_off_c, 9, 42, 64
1, 16225, Note_off_c, 9, 38, 64
1, 16225, Note_on_c, 0, 67, 68
1, 16225, Note_on_c, 2, 60, 86
1, 16261, Note_off_c, 3, 64, 64
1, 16267, Lyric_t, "the "
1, 16267, Note_on_c, 3, 64, 107
1, 16271, Note_on_c, 9, 42, 47
1, 16272, Note_off_c, 4, 55, 64
1, 16272, Note_off_c, 9, 42, 64
1, 16272, Note_off_c, 2, 64, 64
1, 16273, Note_on_c, 4, 55, 95
1, 16273, Note_on_c, 2, 64, 67
1, 16307, Note_off_c, 3, 64, 64
1, 16314, Lyric_t, "bound "
1, 16314, Note_on_c, 3, 64, 110
1, 16319, Note_off_c, 4, 55, 64
1, 16320, Note_on_c, 4, 55, 100
1, 16320, Note_on_c, 9, 35, 74
1, 16320, Note_on_c, 9, 42, 75
1, 16321, Note_off_c, 9, 42, 64
1, 16321, Note_off_c, 9, 35, 64
1, 16322, Note_on_c, 2, 55, 82
1, 16367, Note_on_c, 9, 42, 38
1, 16367, Note_off_c, 2, 52, 64
1, 16368, Note_off_c, 9, 42, 64
1, 16368, Note_on_c, 2, 52, 69
1, 16391, Note_off_c, 2, 60, 64
1, 16392, Note_on_c, 2, 60, 78
1, 16410, Note_off_c, 4, 55, 64
1, 16410, Note_on_c, 4, 57, 100
1, 16413, Lyric_t, "break, "
1, 16413, Note_on_c, 3, 66, 103
1, 16415, Note_off_c, 2, 64, 64
1, 16416, Note_off_c, 3, 64, 64
1, 16416, Note_on_c, 9, 38, 70
1, 16416, Note_on_c, 9, 42, 77
1, 16416, Note_on_c, 2, 64, 88
1, 16417, Note_off_c, 9, 42, 64
1, 16417, Note_off_c, 9, 38, 64
1, 16439, Note_off_c, 2, 57, 64
1, 16440, Note_off_c, 1, 36, 64
1, 16440, Note_on_c, 2, 57, 55
1, 16463, Note_off_c, 2, 60, 64
1, 16464, Note_on_c, 9, 35, 49
1, 16464, Note_on_c, 9, 42, 50
1, 16464, Note_on_c, 1, 36, 88
1, 16464, Note_on_c, 2, 60, 69
1, 16465, Note_off_c, 9, 42, 64
1, 16465, Note_off_c, 9, 35, 64
1, 16475, Note_off_c, 2, 64, 64
1, 16475, Note_off_c, 2, 55, 64
1, 16487, Note_off_c, 1, 36, 64
1, 16488, Note_on_c, 2, 64, 82
1, 16500, Note_off_c, 3, 66, 64
1, 16508, Note_off_c, 0, 74, 64
1, 16508, Note_on_c, 6, 66, 65
1, 16509, Note_on_c, 0, 78, 63
1, 16509, Note_on_c, 0, 74, 68
1, 16509, Note_on_c, 0, 69, 61
1, 16509, Note_off_c, 6, 67, 64
1, 16510, Note_on_c, 6, 57, 62
1, 16510, Note_on_c, 6, 62, 64
1, 16511, Note_off_c, 2, 52, 64
1, 16511, Note_off_c, 2, 60, 64
1, 16511, Note_off_c, 2, 57, 64
1, 16511, Note_off_c, 6, 64, 64
1, 16511, Note_off_c, 6, 60, 64
1, 16512, Note_on_c, 9, 35, 66
1, 16512, Note_on_c, 9, 42, 78
1, 16512, Note_on_c, 2, 54, 76
1, 16513, Note_off_c, 9, 42, 64
1, 16513, Note_off_c, 9, 35, 64
1, 16513, Note_on_c, 1, 35, 97
1, 16515, Note_off_c, 2, 64, 64
1, 16516, Note_off_c, 4, 57, 64
1, 16520, Note_off_c, 0, 72, 64
1, 16520, Note_off_c, 0, 67, 64
1, 16520, Note_off_c, 0, 76, 64
1, 16520, Note_off_c, 0, 79, 64
1, 16536, Note_on_c, 2, 57, 66
1, 16557, Lyric_t, "we "
1, 16557, Note_on_c, 3, 62, 88
1, 16560, Note_on_c, 9, 42, 43
1, 16561, Note_off_c, 9, 42, 64
1, 16561, Note_on_c, 2, 66, 80
1, 16562, Note_on_c, 4, 54, 67
1, 16580, Note_off_c, 2, 57, 64
1, 16584, Note_on_c, 2, 59, 71
1, 16597, Note_off_c, 3, 62, 64
1, 16603, Note_off_c, 4, 54, 64
1, 16604, Note_on_c, 4, 54, 81
1, 16608, Lyric_t, "let "
1, 16608, Note_on_c, 3, 62, 100
1, 16608, Note_on_c, 9, 38, 70
1, 16608, Note_on_c, 9, 42, 79
1, 16609, Note_off_c, 9, 42, 64
1, 16609, Note_off_c, 9, 38, 64
1, 16609, Note_on_c, 2, 62, 86
1, 16651, Note_off_c, 3, 62, 64
1, 16652, Note_off_c, 4, 54, 64
1, 16653, Lyric_t, "the "
1, 16653, Note_on_c, 3, 62, 105
1, 16653, Note_on_c, 4, 54, 89
1, 16655, Note_on_c, 9, 42, 46
1, 16656, Note_off_c, 9, 42, 64
1, 16656, Note_off_c, 2, 66, 64
1, 16657, Note_on_c, 2, 66, 67
1, 16697, Note_off_c, 3, 62, 64
1, 16697, Note_off_c, 4, 54, 64
1, 16698, Lyric_t, "heart"
1, 16698, Note_on_c, 3, 62, 118
1, 16698, Note_on_c, 4, 54, 85
1, 16703, Note_on_c, 9, 42, 72
1, 16704, Note_off_c, 9, 42, 64
1, 16704, Note_on_c, 9, 35, 81
1, 16705, Note_off_c, 9, 35, 64
1, 16706, Note_on_c, 2, 57, 82
1, 16728, Note_off_c, 1, 35, 64
1, 16751, Note_on_c, 9, 42, 41
1, 16751, Note_off_c, 2, 54, 64
1, 16752, Note_off_c, 9, 42, 64
1, 16752, Note_on_c, 1, 35, 97
1, 16752, Note_on_c, 2, 54, 69
1, 16775, Note_off_c, 2, 62, 64
1, 16776, Note_on_c, 2, 62, 78
1, 16798, Lyric_t, "ache "
1, 16798, Note_off_c, 3, 62, 64
1, 16798, Note_on_c, 3, 64, 103
1, 16799, Note_off_c, 2, 66, 64
1, 16800, Note_on_c, 9, 38, 74
1, 16800, Note_on_c, 9, 42, 75
1, 16800, Note_on_c, 2, 66, 88
1, 16801, Note_off_c, 4, 54, 64
1, 16801, Note_on_c, 4, 55, 94
1, 16801, Note_off_c, 9, 42, 64
1, 16801, Note_off_c, 9, 38, 64
1, 16823, Note_off_c, 2, 59, 64
1, 16824, Note_on_c, 2, 59, 55
1, 16845, Note_off_c, 3, 64, 64
1, 16846, Lyric_t, "in. "
1, 16846, Lyric_t, "\015"
1, 16846, Note_on_c, 3, 60, 105
1, 16846, Note_off_c, 4, 55, 64
1, 16846, Note_on_c, 4, 52, 86
1, 16847, Note_off_c, 2, 62, 64
1, 16848, Note_on_c, 9, 42, 31
1, 16848, Note_on_c, 2, 62, 69
1, 16849, Note_off_c, 9, 42, 64
1, 16859, Note_off_c, 2, 66, 64
1, 16859, Note_off_c, 2, 57, 64
1, 16871, Note_off_c, 1, 35, 64
1, 16872, Note_on_c, 2, 66, 82
1, 16891, Note_off_c, 6, 62, 64
1, 16891, Note_on_c, 6, 60, 59
1, 16892, Note_off_c, 0, 69, 64
1, 16892, Note_off_c, 0, 78, 64
1, 16892, Note_off_c, 0, 74, 64
1, 16893, Note_on_c, 6, 64, 64
1, 16893, Note_on_c, 6, 55, 60
1, 16895, Note_on_c, 1, 33, 104
1, 16895, Note_on_c, 0, 67, 59
1, 16895, Note_on_c, 0, 76, 57
1, 16895, Note_on_c, 0, 72, 62
1, 16895, Note_off_c, 2, 54, 64
1, 16895, Note_off_c, 2, 62, 64
1, 16895, Note_off_c, 2, 59, 64
1, 16896, Note_on_c, 9, 35, 71
1, 16896, Note_on_c, 9, 42, 73
1, 16896, Note_on_c, 2, 52, 76
1, 16896, Note_off_c, 6, 57, 64
1, 16897, Note_off_c, 9, 42, 64
1, 16897, Note_off_c, 9, 35, 64
1, 16898, Note_off_c, 6, 66, 64
1, 16899, Note_off_c, 2, 66, 64
1, 16920, Note_on_c, 2, 55, 66
1, 16945, Note_on_c, 9, 42, 31
1, 16945, Note_on_c, 2, 64, 80
1, 16946, Note_off_c, 9, 42, 64
1, 16962, Note_off_c, 3, 60, 64
1, 16964, Note_off_c, 2, 55, 64
1, 16968, Note_on_c, 2, 57, 71
1, 16992, Lyric_t, "Who's "
1, 16992, Note_on_c, 3, 60, 95
1, 16992, Note_on_c, 9, 38, 67
1, 16993, Note_off_c, 4, 52, 64
1, 16993, Note_off_c, 9, 38, 64
1, 16993, Note_on_c, 9, 42, 72
1, 16993, Note_on_c, 2, 60, 74
1, 16994, Note_on_c, 4, 52, 83
1, 16994, Note_off_c, 9, 42, 64
1, 17034, Note_off_c, 3, 60, 64
1, 17040, Lyric_t, "sor"
1, 17040, Note_on_c, 3, 64, 116
1, 17040, Note_off_c, 4, 52, 64
1, 17040, Note_on_c, 4, 55, 91
1, 17040, Note_on_c, 9, 42, 34
1, 17040, Note_off_c, 2, 64, 64
1, 17041, Note_off_c, 9, 42, 64
1, 17041, Note_on_c, 2, 64, 67
1, 17087, Note_on_c, 9, 42, 66
1, 17088, Note_off_c, 9, 42, 64
1, 17088, Note_on_c, 9, 35, 72
1, 17089, Note_off_c, 9, 35, 64
1, 17090, Note_on_c, 2, 55, 82
1, 17135, Note_on_c, 9, 42, 41
1, 17135, Note_off_c, 2, 52, 64
1, 17136, Note_off_c, 9, 42, 64
1, 17136, Note_on_c, 2, 52, 69
1, 17159, Note_off_c, 2, 60, 64
1, 17160, Note_on_c, 2, 60, 78
1, 17178, Lyric_t, "ry "
1, 17178, Note_on_c, 3, 62, 110
1, 17183, Note_off_c, 3, 64, 64
1, 17183, Note_on_c, 9, 42, 72
1, 17183, Note_off_c, 2, 64, 64
1, 17184, Note_off_c, 9, 42, 64
1, 17184, Note_on_c, 9, 38, 68
1, 17184, Note_on_c, 2, 64, 88
1, 17185, Note_off_c, 9, 38, 64
1, 17187, Note_off_c, 4, 55, 64
1, 17187, Note_on_c, 4, 54, 85
1, 17207, Note_off_c, 2, 57, 64
1, 17208, Note_on_c, 2, 57, 55
1, 17227, Lyric_t, "now? "
1, 17227, Lyric_t, "\015"
1, 17227, Note_off_c, 3, 62, 64
1, 17227, Note_on_c, 3, 59, 108
1, 17231, Note_off_c, 4, 54, 64
1, 17231, Note_on_c, 9, 42, 47
1, 17231, Note_off_c, 2, 60, 64
1, 17232, Note_on_c, 4, 54, 84
1, 17232, Note_off_c, 9, 42, 64
1, 17232, Note_on_c, 2, 60, 69
1, 17243, Note_off_c, 2, 64, 64
1, 17243, Note_off_c, 2, 55, 64
1, 17253, Note_off_c, 4, 54, 64
1, 17253, Note_on_c, 4, 52, 66
1, 17269, Note_off_c, 1, 33, 64
1, 17273, Note_on_c, 6, 66, 52
1, 17274, Note_off_c, 6, 60, 64
1, 17274, Note_on_c, 6, 62, 60
1, 17275, Note_off_c, 6, 55, 64
1, 17276, Note_off_c, 6, 64, 64
1, 17276, Note_on_c, 6, 55, 54
1, 17277, Note_off_c, 4, 52, 64
1, 17277, Note_on_c, 4, 50, 70
1, 17277, Note_on_c, 6, 59, 51
1, 17279, Note_on_c, 9, 42, 66
1, 17279, Note_off_c, 2, 52, 64
1, 17279, Note_off_c, 2, 57, 64
1, 17279, Note_off_c, 2, 60, 64
1, 17279, Note_on_c, 5, 78, 91
1, 17280, Note_off_c, 9, 42, 64
1, 17280, Note_on_c, 9, 35, 70
1, 17280, Note_on_c, 0, 71, 62
1, 17280, Control_c, 5, 1, 0
1, 17280, Pitch_bend_c, 5, 8192
1, 17280, Note_on_c, 5, 74, 96
1, 17281, Note_off_c, 9, 35, 64
1, 17281, Note_on_c, 1, 31, 92
1, 17281, Note_on_c, 0, 74, 68
1, 17281, Note_on_c, 0, 66, 67
1, 17289, Note_off_c, 0, 72, 64
1, 17289, Note_off_c, 0, 67, 64
1, 17289, Note_off_c, 0, 76, 64
1, 17305, Note_on_c, 2, 62, 83
1, 17327, Note_on_c, 9, 42, 42
1, 17328, Note_off_c, 9, 42, 64
1, 17329, Note_on_c, 2, 66, 68
1, 17338, Pitch_bend_c, 5, 8074
1, 17340, Pitch_bend_c, 5, 7723
1, 17342, Pitch_bend_c, 5, 7489
1, 17344, Pitch_bend_c, 5, 7138
1, 17347, Pitch_bend_c, 5, 6670
1, 17348, Pitch_bend_c, 5, 6202
1, 17350, Pitch_bend_c, 5, 5734
1, 17353, Note_on_c, 2, 55, 77
1, 17353, Pitch_bend_c, 5, 5383
1, 17354, Pitch_bend_c, 5, 4915
1, 17355, Pitch_bend_c, 5, 4564
1, 17359, Pitch_bend_c, 5, 4330
1, 17367, Pitch_bend_c, 5, 4681
1, 17368, Pitch_bend_c, 5, 5500
1, 17370, Note_off_c, 5, 78, 64
1, 17370, Pitch_bend_c, 5, 6670
1, 17372, Note_off_c, 5, 74, 64
1, 17372, Pitch_bend_c, 5, 8074
1, 17375, Note_on_c, 9, 42, 69
1, 17375, Pitch_bend_c, 5, 8192
1, 17376, Note_off_c, 9, 42, 64
1, 17376, Note_on_c, 9, 38, 72
1, 17376, Note_off_c, 2, 62, 64
1, 17377, Note_off_c, 9, 38, 64
1, 17377, Note_on_c, 2, 62, 75
1, 17421, Note_on_c, 5, 66, 92
1, 17424, Note_on_c, 9, 35, 50
1, 17424, Note_on_c, 9, 42, 41
1, 17424, Note_off_c, 2, 66, 64
1, 17425, Note_off_c, 9, 42, 64
1, 17425, Note_off_c, 9, 35, 64
1, 17425, Note_on_c, 2, 66, 80
1, 17427, Note_on_c, 5, 71, 90
1, 17466, Note_off_c, 3, 59, 64
1, 17471, Note_on_c, 9, 42, 72
1, 17472, Note_off_c, 4, 50, 64
1, 17472, Note_off_c, 9, 42, 64
1, 17472, Note_on_c, 9, 35, 64
1, 17473, Note_off_c, 9, 35, 64
1, 17519, Note_on_c, 9, 42, 53
1, 17520, Note_off_c, 9, 42, 64
1, 17520, Note_off_c, 2, 55, 64
1, 17521, Note_on_c, 2, 55, 67
1, 17544, Note_off_c, 2, 62, 64
1, 17545, Note_on_c, 2, 62, 76
1, 17548, Note_off_c, 5, 66, 64
1, 17552, Note_off_c, 5, 71, 64
1, 17567, Note_off_c, 2, 66, 64
1, 17567, Note_on_c, 5, 66, 98
1, 17568, Note_on_c, 9, 38, 72
1, 17568, Note_on_c, 9, 42, 63
1, 17568, Note_on_c, 2, 66, 85
1, 17569, Note_off_c, 9, 42, 64
1, 17569, Note_off_c, 9, 38, 64
1, 17569, Note_on_c, 5, 62, 96
1, 17591, Note_off_c, 2, 55, 64
1, 17592, Note_on_c, 2, 55, 67
1, 17616, Note_off_c, 2, 62, 64
1, 17617, Note_on_c, 9, 42, 54
1, 17617, Note_on_c, 2, 62, 73
1, 17618, Note_off_c, 9, 42, 64
1, 17639, Note_off_c, 5, 66, 64
1, 17641, Note_on_c, 2, 64, 75
1, 17645, Note_off_c, 1, 31, 64
1, 17647, Note_off_c, 5, 62, 64
1, 17656, Note_off_c, 6, 66, 64
1, 17657, Note_off_c, 6, 62, 64
1, 17658, Note_on_c, 6, 64, 56
1, 17659, Note_off_c, 6, 55, 64
1, 17659, Note_on_c, 6, 69, 57
1, 17660, Note_on_c, 5, 64, 95
1, 17660, Note_off_c, 6, 59, 64
1, 17660, Note_on_c, 6, 61, 54
1, 17661, Note_off_c, 2, 64, 64
1, 17661, Note_off_c, 2, 66, 64
1, 17661, Note_off_c, 2, 55, 64
1, 17661, Note_off_c, 2, 62, 64
1, 17663, Note_on_c, 1, 30, 101
1, 17664, Note_on_c, 9, 35, 71
1, 17664, Note_on_c, 9, 42, 73
1, 17664, Note_on_c, 0, 64, 59
1, 17664, Note_on_c, 0, 73, 64
1, 17664, Note_on_c, 0, 69, 70
1, 17664, Note_on_c, 2, 54, 69
1, 17665, Note_off_c, 9, 42, 64
1, 17665, Note_off_c, 9, 35, 64
1, 17666, Note_on_c, 5, 69, 95
1, 17668, Note_off_c, 0, 71, 64
1, 17668, Note_off_c, 0, 66, 64
1, 17668, Note_off_c, 0, 74, 64
1, 17689, Note_on_c, 2, 61, 67
1, 17711, Lyric_t, "Who's "
1, 17711, Note_on_c, 3, 61, 95
1, 17713, Note_on_c, 9, 42, 31
1, 17713, Note_on_c, 2, 66, 73
1, 17714, Note_off_c, 9, 42, 64
1, 17715, Note_on_c, 4, 49, 84
1, 17737, Note_on_c, 2, 57, 78
1, 17760, Note_on_c, 9, 38, 67
1, 17760, Note_off_c, 2, 61, 64
1, 17761, Note_off_c, 9, 38, 64
1, 17761, Note_on_c, 9, 42, 72
1, 17761, Note_on_c, 2, 61, 69
1, 17762, Note_off_c, 9, 42, 64
1, 17806, Lyric_t, "sor"
1, 17806, Note_off_c, 3, 61, 64
1, 17806, Note_on_c, 3, 64, 106
1, 17808, Note_on_c, 9, 42, 34
1, 17808, Note_off_c, 2, 66, 64
1, 17809, Note_off_c, 9, 42, 64
1, 17809, Note_on_c, 2, 66, 73
1, 17811, Note_off_c, 4, 49, 64
1, 17811, Note_on_c, 4, 52, 85
1, 17854, Note_off_c, 2, 61, 64
1, 17855, Note_on_c, 9, 42, 66
1, 17855, Note_on_c, 2, 61, 75
1, 17856, Note_off_c, 9, 42, 64
1, 17856, Note_on_c, 9, 35, 72
1, 17857, Note_off_c, 9, 35, 64
1, 17870, Note_off_c, 1, 30, 64
1, 17886, Note_off_c, 5, 64, 64
1, 17893, Note_off_c, 5, 69, 64
1, 17896, Lyric_t, "ry "
1, 17896, Note_off_c, 3, 64, 64
1, 17896, Note_on_c, 3, 66, 103
1, 17903, Note_off_c, 4, 52, 64
1, 17903, Note_on_c, 4, 54, 78
1, 17903, Note_on_c, 9, 42, 41
1, 17903, Note_on_c, 1, 30, 99
1, 17904, Note_off_c, 9, 42, 64
1, 17904, Note_off_c, 2, 54, 64
1, 17905, Note_on_c, 2, 54, 73
1, 17926, Note_off_c, 2, 61, 64
1, 17927, Note_on_c, 2, 61, 66
1, 17951, Note_on_c, 9, 42, 72
1, 17951, Note_off_c, 2, 66, 64
1, 17952, Note_off_c, 9, 42, 64
1, 17952, Note_on_c, 9, 38, 68
1, 17952, Note_on_c, 2, 66, 75
1, 17953, Note_off_c, 9, 38, 64
1, 17976, Note_off_c, 2, 57, 64
1, 17977, Note_on_c, 2, 57, 69
1, 17979, Note_off_c, 1, 30, 64
1, 17989, Note_off_c, 3, 66, 64
1, 17992, Lyric_t, "now? "
1, 17992, Lyric_t, "\015"
1, 17992, Note_on_c, 3, 64, 102
1, 17998, Note_off_c, 2, 61, 64
1, 17999, Note_on_c, 9, 42, 47
1, 17999, Note_on_c, 1, 30, 97
1, 17999, Note_on_c, 2, 61, 73
1, 18000, Note_off_c, 4, 54, 64
1, 18000, Note_on_c, 4, 52, 69
1, 18000, Note_off_c, 9, 42, 64
1, 18022, Note_off_c, 2, 66, 64
1, 18023, Note_on_c, 2, 66, 73
1, 18034, Note_off_c, 1, 30, 64
1, 18041, Note_off_c, 6, 64, 64
1, 18042, Note_off_c, 0, 64, 64
1, 18042, Note_off_c, 0, 73, 64
1, 18042, Note_off_c, 0, 69, 64
1, 18042, Note_off_c, 6, 69, 64
1, 18043, Note_off_c, 6, 61, 64
1, 18043, Note_on_c, 6, 59, 50
1, 18044, Note_on_c, 6, 66, 62
1, 18045, Note_off_c, 2, 66, 64
1, 18045, Note_off_c, 2, 61, 64
1, 18045, Note_off_c, 2, 54, 64
1, 18045, Note_off_c, 2, 57, 64
1, 18045, Note_on_c, 6, 68, 55
1, 18046, Note_on_c, 6, 56, 56
1, 18047, Note_on_c, 9, 42, 66
1, 18047, Note_on_c, 1, 28, 97
1, 18047, Note_on_c, 0, 63, 58
1, 18048, Note_off_c, 9, 42, 64
1, 18048, Note_on_c, 9, 35, 70
1, 18048, Note_on_c, 5, 68, 91
1, 18048, Note_on_c, 5, 71, 102
1, 18048, Note_on_c, 6, 63, 50
1, 18049, Note_off_c, 9, 35, 64
1, 18049, Note_on_c, 0, 68, 63
1, 18049, Note_on_c, 0, 71, 70
1, 18068, Note_on_c, 3, 61, 87
1, 18068, Note_off_c, 4, 52, 64
1, 18068, Note_on_c, 4, 49, 76
1, 18070, Note_on_c, 5, 73, 77
1, 18072, Note_off_c, 3, 64, 64
1, 18073, Note_off_c, 5, 71, 64
1, 18074, Note_off_c, 5, 68, 64
1, 18074, Note_on_c, 5, 69, 91
1, 18090, Note_off_c, 3, 61, 64
1, 18092, Note_on_c, 3, 59, 88
1, 18094, Note_on_c, 5, 71, 89
1, 18095, Note_on_c, 9, 42, 42
1, 18095, Note_on_c, 5, 68, 84
1, 18096, Note_off_c, 9, 42, 64
1, 18096, Note_on_c, 9, 43, 83
1, 18096, Note_on_c, 2, 63, 56
1, 18096, Note_off_c, 5, 69, 64
1, 18097, Note_off_c, 9, 43, 64
1, 18098, Note_off_c, 4, 49, 64
1, 18098, Note_on_c, 4, 47, 79
1, 18098, Note_on_c, 2, 68, 82
1, 18100, Note_off_c, 5, 73, 64
1, 18107, Lyric_t, "\012"
1, 18140, Note_off_c, 5, 68, 64
1, 18143, Note_on_c, 9, 42, 69
1, 18144, Note_off_c, 9, 42, 64
1, 18144, Note_on_c, 9, 38, 72
1, 18145, Note_off_c, 9, 38, 64
1, 18145, Note_on_c, 2, 66, 77
1, 18145, Note_on_c, 2, 75, 67
1, 18145, Note_off_c, 5, 71, 64
1, 18145, Note_on_c, 5, 68, 73
1, 18145, Note_on_c, 5, 63, 70
1, 18166, Note_off_c, 5, 63, 64
1, 18170, Note_on_c, 9, 45, 89
1, 18171, Note_off_c, 9, 45, 64
1, 18172, Note_off_c, 5, 68, 64
1, 18191, Note_off_c, 2, 63, 64
1, 18192, Note_on_c, 9, 42, 41
1, 18192, Note_on_c, 2, 63, 58
1, 18192, Note_on_c, 5, 68, 91
1, 18193, Note_off_c, 9, 42, 64
1, 18193, Note_off_c, 2, 68, 64
1, 18194, Note_on_c, 2, 68, 69
1, 18194, Note_on_c, 5, 71, 105
1, 18215, Note_off_c, 5, 68, 64
1, 18215, Note_on_c, 5, 69, 80
1, 18216, Note_on_c, 5, 73, 85
1, 18217, Note_off_c, 5, 71, 64
1, 18239, Note_on_c, 9, 42, 72
1, 18240, Note_off_c, 9, 42, 64
1, 18240, Note_on_c, 9, 35, 64
1, 18240, Note_on_c, 9, 47, 91
1, 18240, Note_on_c, 5, 71, 87
1, 18241, Note_off_c, 9, 47, 64
1, 18241, Note_off_c, 9, 35, 64
1, 18241, Note_off_c, 5, 69, 64
1, 18241, Note_on_c, 5, 68, 83
1, 18246, Note_off_c, 5, 73, 64
1, 18260, Note_off_c, 3, 59, 64
1, 18268, Note_off_c, 4, 47, 64
1, 18280, Note_off_c, 5, 68, 64
1, 18286, Note_off_c, 5, 71, 64
1, 18287, Note_on_c, 9, 42, 53
1, 18288, Note_off_c, 9, 42, 64
1, 18289, Note_on_c, 5, 68, 88
1, 18290, Note_on_c, 5, 63, 77
1, 18307, Note_off_c, 1, 28, 64
1, 18310, Note_on_c, 9, 41, 72
1, 18311, Note_off_c, 9, 41, 64
1, 18311, Note_on_c, 1, 45, 85
1, 18321, Note_off_c, 5, 68, 64
1, 18324, Note_off_c, 5, 63, 64
1, 18333, Note_off_c, 1, 45, 64
1, 18335, Note_on_c, 1, 44, 67
1, 18335, Note_on_c, 0, 73, 84
1, 18336, Note_on_c, 9, 38, 72
1, 18336, Note_on_c, 9, 42, 63
1, 18337, Lyric_t, "(Girl) "
1, 18337, Note_off_c, 9, 42, 64
1, 18337, Note_off_c, 9, 38, 64
1, 18380, Note_off_c, 1, 44, 64
1, 18384, Note_on_c, 9, 35, 50
1, 18385, Note_off_c, 9, 35, 64
1, 18385, Note_on_c, 9, 42, 54
1, 18385, Note_on_c, 1, 28, 108
1, 18385, Note_on_c, 0, 76, 73
1, 18386, Note_off_c, 9, 42, 64
1, 18405, Note_off_c, 2, 68, 64
1, 18405, Note_off_c, 2, 63, 64
1, 18405, Note_off_c, 2, 66, 64
1, 18405, Note_off_c, 2, 75, 64
1, 18423, Note_off_c, 1, 28, 64
1, 18429, Note_off_c, 0, 76, 64
1, 18429, Note_off_c, 0, 71, 64
1, 18429, Note_off_c, 0, 63, 64
1, 18429, Note_off_c, 0, 68, 64
1, 18429, Note_off_c, 0, 73, 64
1, 18430, Note_off_c, 6, 56, 64
1, 18430, Note_off_c, 6, 59, 64
1, 18431, Note_off_c, 6, 66, 64
1, 18431, Note_off_c, 6, 68, 64
1, 18432, Note_on_c, 9, 35, 76
1, 18432, Note_on_c, 1, 33, 97
1, 18432, Note_on_c, 0, 80, 73
1, 18432, Note_on_c, 6, 68, 65
1, 18432, Note_on_c, 6, 64, 68
1, 18433, Lyric_t, "\226 What, "
1, 18433, Note_on_c, 3, 68, 127
1, 18433, Note_off_c, 9, 35, 64
1, 18433, Note_on_c, 9, 49, 63
1, 18434, Note_off_c, 9, 49, 64
1, 18435, Note_off_c, 6, 63, 64
1, 18479, Note_on_c, 0, 76, 70
1, 18481, Note_on_c, 9, 42, 36
1, 18482, Note_off_c, 9, 42, 64
1, 18524, Note_on_c, 6, 73, 76
1, 18526, Note_off_c, 3, 68, 64
1, 18526, Note_on_c, 6, 85, 72
1, 18527, Note_on_c, 0, 73, 70
1, 18528, Note_on_c, 9, 38, 62
1, 18528, Note_on_c, 9, 42, 75
1, 18529, Note_off_c, 9, 42, 64
1, 18529, Note_off_c, 9, 38, 64
1, 18558, Note_off_c, 1, 33, 64
1, 18575, Note_on_c, 1, 33, 102
1, 18575, Note_on_c, 0, 68, 56
1, 18577, Note_on_c, 9, 42, 42
1, 18578, Note_off_c, 9, 42, 64
1, 18608, Note_off_c, 1, 33, 64
1, 18622, Lyric_t, "what "
1, 18622, Note_on_c, 3, 68, 127
1, 18623, Note_on_c, 1, 28, 95
1, 18624, Note_on_c, 9, 35, 74
1, 18624, Note_on_c, 9, 42, 59
1, 18625, Note_off_c, 9, 42, 64
1, 18625, Note_off_c, 9, 35, 64
1, 18664, Note_off_c, 3, 68, 64
1, 18672, Note_on_c, 9, 42, 36
1, 18673, Note_off_c, 9, 42, 64
1, 18674, Lyric_t, "kind "
1, 18674, Note_on_c, 3, 73, 127
1, 18709, Note_off_c, 1, 28, 64
1, 18719, Note_on_c, 9, 42, 72
1, 18719, Note_on_c, 1, 33, 102
1, 18720, Note_off_c, 9, 42, 64
1, 18720, Note_on_c, 9, 38, 64
1, 18721, Note_off_c, 9, 38, 64
1, 18758, Note_off_c, 3, 73, 64
1, 18761, Lyric_t, "of "
1, 18761, Note_on_c, 3, 68, 121
1, 18767, Note_on_c, 9, 42, 26
1, 18768, Note_off_c, 9, 42, 64
1, 18806, Note_off_c, 1, 33, 64
1, 18810, Note_on_c, 6, 66, 65
1, 18811, Note_off_c, 3, 68, 64
1, 18811, Note_on_c, 6, 63, 68
1, 18815, Note_on_c, 1, 32, 101
1, 18815, Note_off_c, 0, 68, 64
1, 18815, Note_off_c, 0, 80, 64
1, 18815, Note_off_c, 0, 76, 64
1, 18815, Note_off_c, 0, 73, 64
1, 18815, Note_on_c, 0, 78, 67
1, 18815, Note_off_c, 6, 64, 64
1, 18815, Note_off_c, 6, 68, 64
1, 18816, Note_on_c, 9, 35, 66
1, 18816, Note_on_c, 9, 42, 67
1, 18817, Lyric_t, "fool "
1, 18817, Note_on_c, 3, 66, 118
1, 18817, Note_off_c, 9, 42, 64
1, 18817, Note_off_c, 9, 35, 64
1, 18844, Note_on_c, 3, 61, 68
1, 18863, Note_on_c, 9, 42, 36
1, 18864, Note_off_c, 9, 42, 64
1, 18864, Note_on_c, 0, 75, 59
1, 18871, Note_off_c, 3, 61, 64
1, 18887, Note_on_c, 3, 61, 88
1, 18908, Note_on_c, 6, 75, 65
1, 18908, Note_on_c, 6, 87, 70
1, 18910, Note_off_c, 6, 73, 64
1, 18911, Note_on_c, 0, 71, 64
1, 18911, Note_on_c, 0, 66, 53
1, 18912, Note_on_c, 9, 38, 71
1, 18912, Note_on_c, 9, 42, 74
1, 18912, Note_off_c, 6, 85, 64
1, 18913, Note_off_c, 9, 42, 64
1, 18913, Note_off_c, 9, 38, 64
1, 18941, Note_off_c, 1, 32, 64
1, 18959, Note_on_c, 9, 42, 41
1, 18959, Note_on_c, 1, 39, 89
1, 18960, Note_off_c, 9, 42, 64
1, 18960, Note_on_c, 9, 35, 57
1, 18961, Note_off_c, 9, 35, 64
1, 18978, Note_off_c, 3, 61, 64
1, 18980, Note_on_c, 3, 59, 68
1, 18998, Note_off_c, 3, 59, 64
1, 19005, Note_on_c, 6, 71, 72
1, 19005, Note_on_c, 6, 83, 68
1, 19006, Note_on_c, 3, 59, 88
1, 19007, Note_on_c, 9, 42, 70
1, 19007, Note_off_c, 6, 75, 64
1, 19008, Note_off_c, 9, 42, 64
1, 19008, Note_on_c, 9, 35, 81
1, 19009, Note_off_c, 9, 35, 64
1, 19012, Note_off_c, 3, 66, 64
1, 19013, Note_off_c, 6, 87, 64
1, 19045, Note_off_c, 1, 39, 64
1, 19055, Note_on_c, 0, 63, 39
1, 19057, Lyric_t, "tears "
1, 19057, Note_on_c, 3, 63, 107
1, 19057, Note_on_c, 9, 42, 26
1, 19057, Note_on_c, 1, 32, 104
1, 19058, Note_off_c, 9, 42, 64
1, 19103, Note_off_c, 0, 71, 64
1, 19104, Note_on_c, 9, 38, 64
1, 19104, Note_on_c, 9, 42, 78
1, 19104, Note_on_c, 0, 71, 77
1, 19105, Note_off_c, 9, 42, 64
1, 19105, Note_off_c, 9, 38, 64
1, 19120, Note_off_c, 3, 63, 64
1, 19125, Note_off_c, 3, 59, 64
1, 19128, Lyric_t, "it "
1, 19128, Note_on_c, 3, 64, 120
1, 19128, Note_off_c, 1, 32, 64
1, 19151, Note_on_c, 9, 42, 34
1, 19152, Note_off_c, 9, 42, 64
1, 19152, Note_on_c, 9, 35, 57
1, 19153, Note_off_c, 9, 35, 64
1, 19153, Note_on_c, 1, 39, 89
1, 19166, Note_off_c, 3, 64, 64
1, 19171, Lyric_t, "a"
1, 19171, Note_on_c, 3, 66, 116
1, 19195, Note_off_c, 1, 39, 64
1, 19198, Note_off_c, 0, 78, 64
1, 19199, Note_on_c, 9, 42, 77
1, 19199, Note_on_c, 0, 78, 65
1, 19200, Note_off_c, 9, 42, 64
1, 19200, Note_on_c, 9, 35, 71
1, 19201, Note_off_c, 9, 35, 64
1, 19201, Note_on_c, 1, 32, 91
1, 19204, Note_off_c, 3, 66, 64
1, 19206, Note_off_c, 0, 63, 64
1, 19206, Note_off_c, 0, 71, 64
1, 19206, Note_off_c, 0, 75, 64
1, 19206, Note_off_c, 0, 66, 64
1, 19210, Lyric_t, "part, "
1, 19210, Lyric_t, "\015"
1, 19210, Note_on_c, 3, 66, 112
1, 19248, Note_on_c, 9, 42, 39
1, 19249, Note_off_c, 9, 42, 64
1, 19249, Note_on_c, 0, 75, 60
1, 19250, Note_on_c, 3, 61, 95
1, 19291, Note_off_c, 3, 61, 64
1, 19295, Note_on_c, 9, 42, 76
1, 19295, Note_on_c, 0, 71, 70
1, 19296, Note_off_c, 9, 42, 64
1, 19296, Note_on_c, 9, 38, 79
1, 19297, Note_on_c, 3, 59, 73
1, 19297, Note_off_c, 9, 38, 64
1, 19318, Note_off_c, 3, 59, 64
1, 19320, Note_off_c, 1, 32, 64
1, 19321, Note_on_c, 3, 56, 84
1, 19343, Note_on_c, 9, 42, 37
1, 19343, Note_on_c, 0, 66, 60
1, 19344, Note_off_c, 3, 56, 64
1, 19344, Note_off_c, 9, 42, 64
1, 19344, Note_on_c, 1, 32, 91
1, 19349, Note_on_c, 3, 61, 98
1, 19377, Note_off_c, 3, 66, 64
1, 19391, Note_off_c, 1, 32, 64
1, 19392, Note_on_c, 9, 35, 72
1, 19392, Note_on_c, 9, 42, 80
1, 19393, Note_off_c, 9, 42, 64
1, 19393, Note_off_c, 9, 35, 64
1, 19393, Note_on_c, 1, 39, 81
1, 19422, Lyric_t, "leav"
1, 19422, Note_on_c, 3, 63, 99
1, 19441, Note_on_c, 9, 42, 46
1, 19442, Note_off_c, 9, 42, 64
1, 19444, Note_off_c, 3, 61, 64
1, 19449, Note_off_c, 3, 63, 64
1, 19453, Lyric_t, "ing "
1, 19453, Note_on_c, 3, 64, 107
1, 19479, Note_off_c, 1, 39, 64
1, 19482, Note_off_c, 3, 64, 64
1, 19487, Note_on_c, 9, 42, 75
1, 19487, Note_on_c, 1, 32, 91
1, 19488, Note_off_c, 9, 42, 64
1, 19488, Note_on_c, 9, 38, 75
1, 19489, Note_off_c, 9, 38, 64
1, 19490, Lyric_t, "me "
1, 19490, Note_on_c, 3, 66, 127
1, 19535, Note_on_c, 9, 42, 39
1, 19536, Note_off_c, 9, 42, 64
1, 19566, Note_off_c, 1, 32, 64
1, 19572, Note_off_c, 3, 66, 64
1, 19578, Note_off_c, 6, 63, 64
1, 19580, Note_off_c, 6, 66, 64
1, 19581, Note_on_c, 6, 61, 55
1, 19581, Note_on_c, 6, 65, 64
1, 19581, Note_on_c, 6, 68, 66
1, 19583, Lyric_t, "pain "
1, 19583, Note_on_c, 3, 65, 125
1, 19583, Note_off_c, 0, 66, 64
1, 19583, Note_off_c, 0, 78, 64
1, 19583, Note_off_c, 0, 75, 64
1, 19583, Note_off_c, 0, 71, 64
1, 19584, Note_on_c, 9, 35, 70
1, 19584, Note_on_c, 9, 42, 72
1, 19584, Note_on_c, 1, 37, 107
1, 19584, Note_on_c, 0, 73, 64
1, 19585, Note_off_c, 9, 42, 64
1, 19585, Note_off_c, 9, 35, 64
1, 19631, Note_on_c, 0, 65, 69
1, 19632, Note_on_c, 3, 61, 96
1, 19633, Note_on_c, 9, 42, 46
1, 19634, Note_off_c, 9, 42, 64
1, 19676, Note_on_c, 6, 85, 65
1, 19679, Note_on_c, 0, 68, 72
1, 19680, Note_on_c, 9, 38, 69
1, 19680, Note_on_c, 6, 73, 51
1, 19681, Note_off_c, 9, 38, 64
1, 19681, Note_on_c, 9, 42, 72
1, 19682, Note_off_c, 9, 42, 64
1, 19682, Note_off_c, 6, 71, 64
1, 19683, Note_off_c, 6, 83, 64
1, 19693, Note_off_c, 0, 73, 64
1, 19718, Note_off_c, 3, 65, 64
1, 19727, Lyric_t, "and "
1, 19727, Note_on_c, 3, 65, 122
1, 19727, Note_on_c, 9, 42, 39
1, 19728, Note_off_c, 9, 42, 64
1, 19729, Note_on_c, 0, 71, 80
1, 19752, Note_on_c, 9, 35, 50
1, 19753, Note_off_c, 9, 35, 64
1, 19755, Note_off_c, 1, 37, 64
1, 19769, Note_off_c, 3, 65, 64
1, 19774, Lyric_t, "sor"
1, 19774, Note_on_c, 3, 66, 127
1, 19775, Note_on_c, 9, 42, 76
1, 19776, Note_off_c, 9, 42, 64
1, 19776, Note_on_c, 9, 35, 64
1, 19777, Note_off_c, 9, 35, 64
1, 19777, Note_on_c, 1, 37, 87
1, 19777, Note_on_c, 0, 73, 78
1, 19781, Note_off_c, 1, 37, 64
1, 19812, Note_off_c, 3, 66, 64
1, 19820, Lyric_t, "row? "
1, 19820, Lyric_t, "\015"
1, 19820, Note_on_c, 3, 68, 121
1, 19824, Note_on_c, 9, 42, 52
1, 19825, Note_off_c, 9, 42, 64
1, 19825, Note_on_c, 1, 37, 107
1, 19854, Lyric_t, "\012"
1, 19872, Note_on_c, 9, 38, 73
1, 19872, Note_on_c, 9, 42, 77
1, 19873, Note_off_c, 9, 42, 64
1, 19873, Note_off_c, 9, 38, 64
1, 19901, Note_off_c, 1, 37, 64
1, 19920, Note_on_c, 9, 35, 57
1, 19921, Note_off_c, 9, 35, 64
1, 19921, Note_on_c, 9, 42, 39
1, 19921, Note_on_c, 1, 37, 91
1, 19922, Lyric_t, "(Boy) "
1, 19922, Note_off_c, 9, 42, 64
1, 19939, Note_off_c, 1, 37, 64
1, 19945, Note_on_c, 1, 35, 100
1, 19950, Note_off_c, 0, 73, 64
1, 19952, Note_off_c, 0, 71, 64
1, 19952, Note_off_c, 0, 68, 64
1, 19953, Note_off_c, 0, 65, 64
1, 19961, Note_off_c, 1, 35, 64
1, 19961, Note_off_c, 6, 68, 64
1, 19963, Note_off_c, 6, 85, 64
1, 19964, Note_off_c, 6, 65, 64
1, 19964, Note_off_c, 6, 61, 64
1, 19965, Note_on_c, 6, 64, 64
1, 19965, Note_on_c, 6, 68, 64
1, 19965, Note_on_c, 6, 80, 77
1, 19967, Note_off_c, 3, 61, 64
1, 19967, Note_off_c, 6, 73, 64
1, 19968, Lyric_t, "\226 Ah, "
1, 19968, Note_on_c, 3, 61, 116
1, 19968, Note_on_c, 9, 35, 76
1, 19968, Note_on_c, 1, 33, 84
1, 19968, Note_on_c, 6, 61, 44
1, 19969, Note_off_c, 9, 35, 64
1, 19969, Note_on_c, 9, 49, 50
1, 19969, Note_on_c, 0, 73, 58
1, 19969, Note_on_c, 0, 80, 61
1, 19969, Note_on_c, 0, 76, 66
1, 19969, Note_on_c, 0, 71, 61
1, 19970, Note_off_c, 9, 49, 64
1, 20011, Note_off_c, 3, 68, 64
1, 20017, Note_on_c, 9, 42, 54
1, 20018, Note_off_c, 9, 42, 64
1, 20064, Note_on_c, 9, 38, 76
1, 20064, Note_on_c, 9, 42, 86
1, 20065, Note_off_c, 9, 42, 64
1, 20065, Note_off_c, 9, 38, 64
1, 20067, Note_on_c, 5, 73, 91
1, 20068, Note_on_c, 5, 76, 100
1, 20088, Note_off_c, 1, 33, 64
1, 20088, Note_off_c, 5, 76, 64
1, 20088, Note_off_c, 5, 73, 64
1, 20109, Note_on_c, 5, 73, 97
1, 20109, Note_on_c, 5, 67, 97
1, 20111, Note_on_c, 9, 42, 47
1, 20112, Note_off_c, 9, 42, 64
1, 20112, Note_on_c, 1, 33, 102
1, 20112, Note_off_c, 0, 71, 64
1, 20113, Note_on_c, 0, 71, 41
1, 20125, Note_on_c, 5, 68, 80
1, 20132, Note_off_c, 5, 67, 64
1, 20135, Note_off_c, 1, 33, 64
1, 20160, Note_on_c, 9, 35, 74
1, 20160, Note_on_c, 9, 42, 75
1, 20161, Note_off_c, 9, 42, 64
1, 20161, Note_off_c, 9, 35, 64
1, 20161, Note_on_c, 1, 28, 100
1, 20198, Note_off_c, 3, 61, 64
1, 20207, Lyric_t, "los"
1, 20207, Note_on_c, 3, 61, 104
1, 20207, Note_on_c, 9, 42, 38
1, 20207, Note_off_c, 0, 76, 64
1, 20208, Note_off_c, 9, 42, 64
1, 20208, Note_on_c, 0, 76, 54
1, 20246, Note_off_c, 3, 61, 64
1, 20249, Note_off_c, 1, 28, 64
1, 20255, Note_on_c, 1, 33, 104
1, 20256, Lyric_t, "ing "
1, 20256, Note_on_c, 3, 61, 119
1, 20256, Note_on_c, 9, 38, 76
1, 20256, Note_on_c, 9, 42, 77
1, 20257, Note_off_c, 9, 42, 64
1, 20257, Note_off_c, 9, 38, 64
1, 20260, Note_off_c, 5, 68, 64
1, 20273, Note_off_c, 5, 73, 64
1, 20303, Note_on_c, 9, 42, 50
1, 20304, Note_off_c, 9, 42, 64
1, 20319, Note_off_c, 3, 61, 64
1, 20327, Lyric_t, "you "
1, 20327, Note_on_c, 3, 59, 112
1, 20334, Note_off_c, 1, 33, 64
1, 20338, Note_off_c, 0, 76, 64
1, 20338, Note_off_c, 0, 71, 64
1, 20338, Note_off_c, 0, 80, 64
1, 20338, Note_off_c, 0, 73, 64
1, 20347, Note_off_c, 3, 59, 64
1, 20347, Note_on_c, 6, 63, 65
1, 20347, Note_on_c, 6, 66, 65
1, 20348, Note_off_c, 6, 64, 64
1, 20348, Note_off_c, 6, 68, 64
1, 20349, Note_off_c, 6, 80, 64
1, 20349, Note_on_c, 6, 59, 65
1, 20350, Note_on_c, 6, 78, 64
1, 20351, Note_on_c, 0, 71, 78
1, 20351, Note_on_c, 0, 63, 67
1, 20351, Note_off_c, 6, 61, 64
1, 20352, Note_on_c, 9, 42, 78
1, 20352, Note_on_c, 9, 35, 66
1, 20352, Note_on_c, 1, 32, 107
1, 20352, Note_on_c, 0, 66, 72
1, 20353, Note_off_c, 9, 35, 64
1, 20353, Note_off_c, 9, 42, 64
1, 20358, Lyric_t, "now, "
1, 20358, Note_on_c, 3, 59, 108
1, 20400, Note_on_c, 9, 42, 43
1, 20401, Note_off_c, 9, 42, 64
1, 20444, Note_on_c, 6, 83, 74
1, 20446, Note_off_c, 6, 78, 64
1, 20447, Note_on_c, 9, 42, 79
1, 20448, Note_off_c, 9, 42, 64
1, 20448, Note_on_c, 9, 38, 76
1, 20449, Note_off_c, 9, 38, 64
1, 20475, Note_off_c, 1, 32, 64
1, 20477, Note_off_c, 3, 59, 64
1, 20495, Note_on_c, 9, 42, 46
1, 20496, Note_off_c, 9, 42, 64
1, 20496, Note_on_c, 9, 35, 57
1, 20497, Note_off_c, 9, 35, 64
1, 20497, Note_on_c, 1, 39, 87
1, 20542, Lyric_t, "how "
1, 20542, Note_on_c, 3, 56, 119
1, 20542, Note_off_c, 0, 71, 64
1, 20543, Note_on_c, 9, 42, 72
1, 20543, Note_on_c, 0, 71, 57
1, 20544, Note_off_c, 9, 42, 64
1, 20544, Note_on_c, 9, 35, 81
1, 20545, Note_off_c, 9, 35, 64
1, 20572, Note_off_c, 1, 39, 64
1, 20587, Note_off_c, 3, 56, 64
1, 20589, Lyric_t, "can "
1, 20589, Note_on_c, 3, 59, 112
1, 20590, Note_off_c, 0, 63, 64
1, 20591, Note_on_c, 9, 42, 41
1, 20591, Note_on_c, 0, 63, 44
1, 20592, Note_off_c, 9, 42, 64
1, 20593, Note_on_c, 1, 32, 93
1, 20636, Note_off_c, 3, 59, 64
1, 20639, Lyric_t, "I "
1, 20639, Note_on_c, 3, 61, 116
1, 20639, Note_on_c, 9, 42, 75
1, 20640, Note_off_c, 9, 42, 64
1, 20640, Note_on_c, 9, 38, 77
1, 20640, Note_off_c, 0, 66, 64
1, 20641, Note_off_c, 9, 38, 64
1, 20641, Note_on_c, 0, 66, 54
1, 20661, Note_off_c, 1, 32, 64
1, 20671, Note_off_c, 3, 61, 64
1, 20688, Note_on_c, 9, 35, 57
1, 20688, Note_on_c, 9, 42, 31
1, 20689, Lyric_t, "win? "
1, 20689, Lyric_t, "\015"
1, 20689, Note_on_c, 3, 61, 119
1, 20689, Note_off_c, 9, 42, 64
1, 20689, Note_off_c, 9, 35, 64
1, 20689, Note_on_c, 1, 39, 89
1, 20718, Note_off_c, 0, 66, 64
1, 20718, Note_off_c, 0, 63, 64
1, 20718, Note_off_c, 0, 71, 64
1, 20730, Note_off_c, 6, 63, 64
1, 20730, Note_off_c, 6, 66, 64
1, 20731, Note_on_c, 6, 63, 70
1, 20732, Note_off_c, 6, 59, 64
1, 20732, Note_on_c, 6, 66, 72
1, 20734, Note_on_c, 6, 59, 44
1, 20736, Note_on_c, 9, 35, 71
1, 20736, Note_on_c, 9, 42, 73
1, 20736, Note_off_c, 1, 39, 64
1, 20737, Note_off_c, 9, 42, 64
1, 20737, Note_off_c, 9, 35, 64
1, 20737, Note_on_c, 1, 32, 81
1, 20737, Note_on_c, 0, 63, 56
1, 20737, Note_on_c, 0, 66, 61
1, 20737, Note_on_c, 0, 68, 75
1, 20737, Note_on_c, 0, 59, 68
1, 20738, Note_on_c, 3, 59, 92
1, 20739, Note_off_c, 3, 61, 64
1, 20785, Note_on_c, 9, 42, 31
1, 20786, Note_off_c, 9, 42, 64
1, 20832, Note_on_c, 9, 38, 77
1, 20833, Note_off_c, 9, 38, 64
1, 20833, Note_on_c, 9, 42, 72
1, 20834, Note_off_c, 9, 42, 64
1, 20858, Note_off_c, 1, 32, 64
1, 20878, Note_off_c, 0, 63, 64
1, 20879, Note_on_c, 0, 63, 58
1, 20880, Note_on_c, 3, 61, 86
1, 20880, Note_on_c, 9, 42, 34
1, 20881, Note_off_c, 3, 59, 64
1, 20881, Note_off_c, 9, 42, 64
1, 20881, Note_on_c, 1, 32, 99
1, 20911, Note_off_c, 1, 32, 64
1, 20927, Note_off_c, 3, 61, 64
1, 20927, Note_on_c, 9, 42, 66
1, 20928, Note_off_c, 9, 42, 64
1, 20928, Note_on_c, 9, 35, 72
1, 20929, Note_off_c, 9, 35, 64
1, 20929, Note_on_c, 1, 39, 84
1, 20974, Note_off_c, 0, 68, 64
1, 20975, Note_on_c, 9, 42, 41
1, 20975, Note_on_c, 0, 68, 61
1, 20976, Note_off_c, 9, 42, 64
1, 21006, Lyric_t, "Where "
1, 21006, Note_on_c, 3, 56, 110
1, 21017, Note_off_c, 1, 39, 64
1, 21023, Note_on_c, 9, 42, 72
1, 21024, Note_off_c, 9, 42, 64
1, 21024, Note_on_c, 9, 38, 82
1, 21025, Note_off_c, 9, 38, 64
1, 21025, Note_on_c, 1, 32, 101
1, 21041, Lyric_t, "will "
1, 21041, Note_on_c, 3, 59, 95
1, 21042, Note_off_c, 3, 56, 64
1, 21071, Note_on_c, 9, 42, 47
1, 21072, Note_off_c, 9, 42, 64
1, 21080, Lyric_t, "I "
1, 21080, Note_on_c, 3, 61, 113
1, 21081, Note_off_c, 3, 59, 64
1, 21097, Note_off_c, 1, 32, 64
1, 21110, Note_off_c, 0, 68, 64
1, 21110, Note_off_c, 0, 63, 64
1, 21110, Note_off_c, 0, 66, 64
1, 21110, Note_off_c, 0, 59, 64
1, 21112, Note_off_c, 6, 66, 64
1, 21114, Note_off_c, 6, 63, 64
1, 21115, Note_on_c, 6, 65, 71
1, 21115, Note_on_c, 6, 68, 65
1, 21117, Note_off_c, 6, 59, 64
1, 21119, Note_on_c, 0, 63, 56
1, 21119, Note_on_c, 0, 59, 61
1, 21119, Note_on_c, 0, 65, 68
1, 21120, Note_on_c, 9, 42, 66
1, 21120, Note_on_c, 9, 35, 70
1, 21120, Note_on_c, 1, 37, 107
1, 21120, Note_on_c, 6, 59, 71
1, 21121, Note_off_c, 9, 35, 64
1, 21121, Note_off_c, 9, 42, 64
1, 21127, Note_off_c, 3, 61, 64
1, 21134, Lyric_t, "be "
1, 21134, Note_on_c, 3, 61, 101
1, 21167, Note_on_c, 9, 42, 42
1, 21168, Note_off_c, 9, 42, 64
1, 21211, Note_off_c, 6, 83, 64
1, 21215, Note_on_c, 9, 42, 69
1, 21216, Note_off_c, 9, 42, 64
1, 21216, Note_on_c, 9, 38, 90
1, 21216, Note_on_c, 6, 85, 72
1, 21217, Note_off_c, 9, 38, 64
1, 21253, Note_off_c, 3, 61, 64
1, 21262, Note_off_c, 0, 65, 64
1, 21263, Note_on_c, 0, 65, 68
1, 21264, Note_on_c, 3, 59, 101
1, 21264, Note_on_c, 9, 42, 41
1, 21265, Note_off_c, 9, 42, 64
1, 21287, Note_off_c, 3, 59, 64
1, 21287, Note_off_c, 1, 37, 64
1, 21288, Note_on_c, 9, 35, 50
1, 21289, Note_off_c, 9, 35, 64
1, 21290, Lyric_t, "to"
1, 21290, Note_on_c, 3, 56, 87
1, 21311, Lyric_t, "mor"
1, 21311, Note_on_c, 3, 59, 78
1, 21311, Note_on_c, 9, 42, 72
1, 21312, Note_off_c, 3, 56, 64
1, 21312, Note_off_c, 9, 42, 64
1, 21312, Note_on_c, 9, 35, 64
1, 21312, Note_on_c, 1, 37, 89
1, 21313, Note_off_c, 9, 35, 64
1, 21317, Note_off_c, 1, 37, 64
1, 21335, Note_off_c, 3, 59, 64
1, 21339, Lyric_t, "row? "
1, 21339, Lyric_t, "\015"
1, 21339, Note_on_c, 3, 61, 113
1, 21359, Note_on_c, 9, 42, 53
1, 21359, Note_on_c, 0, 68, 52
1, 21360, Note_off_c, 9, 42, 64
1, 21361, Note_on_c, 1, 37, 104
1, 21394, Lyric_t, "\012"
1, 21407, Note_on_c, 0, 71, 75
1, 21408, Note_on_c, 9, 38, 104
1, 21408, Note_on_c, 9, 42, 63
1, 21409, Note_off_c, 9, 42, 64
1, 21409, Note_off_c, 9, 38, 64
1, 21431, Note_off_c, 3, 61, 64
1, 21432, Note_on_c, 3, 59, 80
1, 21433, Note_off_c, 1, 37, 64
1, 21455, Note_on_c, 1, 37, 101
1, 21456, Note_off_c, 3, 59, 64
1, 21456, Note_on_c, 3, 56, 63
1, 21457, Note_on_c, 9, 42, 54
1, 21458, Note_off_c, 9, 42, 64
1, 21475, Note_off_c, 1, 37, 64
1, 21487, Note_off_c, 3, 56, 64
1, 21498, Note_off_c, 6, 68, 64
1, 21498, Note_off_c, 6, 65, 64
1, 21501, Note_off_c, 6, 59, 64
1, 21501, Note_off_c, 6, 85, 64
1, 21501, Note_on_c, 6, 61, 57
1, 21501, Note_on_c, 6, 69, 70
1, 21502, Note_off_c, 0, 71, 64
1, 21502, Note_off_c, 0, 65, 64
1, 21502, Note_off_c, 0, 63, 64
1, 21502, Note_off_c, 0, 59, 64
1, 21502, Note_off_c, 0, 68, 64
1, 21502, Note_on_c, 6, 78, 54
1, 21502, Note_on_c, 6, 66, 61
1, 21504, Lyric_t, "(Girl) "
1, 21504, Note_on_c, 9, 35, 95
1, 21504, Note_on_c, 0, 66, 81
1, 21504, Note_on_c, 0, 73, 82
1, 21504, Note_on_c, 0, 69, 76
1, 21505, Note_off_c, 9, 35, 64
1, 21505, Note_on_c, 9, 49, 81
1, 21505, Note_on_c, 1, 38, 110
1, 21506, Note_off_c, 9, 49, 64
1, 21552, Lyric_t, "\226 Was "
1, 21552, Note_on_c, 3, 66, 112
1, 21553, Note_on_c, 9, 42, 53
1, 21554, Note_off_c, 9, 42, 64
1, 21595, Note_off_c, 3, 66, 64
1, 21600, Note_on_c, 9, 38, 113
1, 21601, Lyric_t, "there "
1, 21601, Note_on_c, 3, 66, 124
1, 21601, Note_off_c, 9, 38, 64
1, 21601, Note_on_c, 9, 42, 112
1, 21602, Note_off_c, 9, 42, 64
1, 21639, Note_off_c, 3, 66, 64
1, 21646, Lyric_t, "a "
1, 21646, Note_on_c, 3, 66, 107
1, 21649, Note_on_c, 9, 42, 55
1, 21650, Note_off_c, 9, 42, 64
1, 21669, Note_off_c, 1, 38, 64
1, 21671, Lyric_t, "mo"
1, 21671, Note_on_c, 3, 68, 124
1, 21672, Note_off_c, 3, 66, 64
1, 21686, Note_off_c, 0, 69, 64
1, 21687, Note_off_c, 0, 73, 64
1, 21687, Note_off_c, 0, 66, 64
1, 21688, Note_off_c, 6, 61, 64
1, 21689, Note_off_c, 6, 66, 64
1, 21693, Note_off_c, 6, 78, 64
1, 21693, Note_off_c, 6, 69, 64
1, 21693, Note_on_c, 6, 64, 75
1, 21694, Note_on_c, 6, 76, 59
1, 21694, Note_on_c, 6, 68, 72
1, 21694, Note_on_c, 6, 59, 72
1, 21695, Note_on_c, 1, 38, 108
1, 21696, Note_on_c, 9, 35, 90
1, 21696, Note_on_c, 0, 64, 73
1, 21696, Note_on_c, 0, 71, 80
1, 21696, Note_on_c, 0, 68, 73
1, 21697, Note_off_c, 9, 35, 64
1, 21697, Note_on_c, 9, 42, 102
1, 21698, Note_off_c, 9, 42, 64
1, 21714, Note_off_c, 1, 38, 64
1, 21739, Note_off_c, 3, 68, 64
1, 21743, Lyric_t, "ment "
1, 21743, Lyric_t, "\015"
1, 21743, Note_on_c, 3, 68, 115
1, 21743, Note_on_c, 1, 38, 102
1, 21745, Note_on_c, 9, 42, 59
1, 21746, Note_off_c, 9, 42, 64
1, 21782, Note_off_c, 3, 68, 64
1, 21789, Lyric_t, "when "
1, 21789, Note_on_c, 3, 68, 121
1, 21791, Note_on_c, 9, 42, 100
1, 21792, Note_off_c, 9, 42, 64
1, 21792, Note_on_c, 9, 38, 114
1, 21793, Note_off_c, 9, 38, 64
1, 21823, Note_off_c, 1, 38, 64
1, 21834, Note_off_c, 3, 68, 64
1, 21839, Note_on_c, 9, 42, 49
1, 21839, Note_on_c, 1, 38, 112
1, 21840, Lyric_t, "I "
1, 21840, Note_on_c, 3, 68, 118
1, 21840, Note_off_c, 9, 42, 64
1, 21868, Note_off_c, 1, 38, 64
1, 21874, Note_off_c, 3, 68, 64
1, 21874, Note_off_c, 6, 68, 64
1, 21879, Note_off_c, 0, 64, 64
1, 21880, Note_off_c, 0, 68, 64
1, 21880, Note_off_c, 0, 71, 64
1, 21880, Note_on_c, 6, 78, 59
1, 21882, Note_off_c, 6, 59, 64
1, 21882, Note_on_c, 6, 66, 65
1, 21883, Note_off_c, 6, 64, 64
1, 21884, Lyric_t, "cut "
1, 21884, Note_on_c, 3, 68, 124
1, 21884, Note_on_c, 6, 69, 73
1, 21884, Note_on_c, 6, 61, 68
1, 21885, Note_off_c, 6, 76, 64
1, 21887, Note_on_c, 9, 42, 92
1, 21887, Note_on_c, 1, 30, 110
1, 21888, Time_signature, 2, 2, 24, 8
1, 21888, Note_off_c, 9, 42, 64
1, 21888, Note_on_c, 9, 35, 95
1, 21888, Note_on_c, 0, 69, 88
1, 21888, Note_on_c, 0, 73, 81
1, 21888, Note_on_c, 0, 66, 70
1, 21889, Note_off_c, 9, 35, 64
1, 21928, Note_off_c, 3, 68, 64
1, 21934, Lyric_t, "you "
1, 21934, Note_on_c, 3, 69, 116
1, 21937, Note_on_c, 9, 42, 61
1, 21938, Note_off_c, 9, 42, 64
1, 21970, Note_off_c, 3, 69, 64
1, 21983, Note_on_c, 9, 42, 73
1, 21984, Lyric_t, "down, "
1, 21984, Note_on_c, 3, 69, 127
1, 21984, Note_off_c, 9, 42, 64
1, 21984, Note_on_c, 9, 38, 115
1, 21985, Note_off_c, 9, 38, 64
1, 21995, Note_off_c, 0, 69, 64
1, 21997, Note_off_c, 0, 73, 64
1, 22000, Note_off_c, 0, 66, 64
1, 22004, Note_off_c, 6, 78, 64
1, 22008, Note_off_c, 1, 30, 64
1, 22010, Note_off_c, 6, 69, 64
1, 22011, Note_off_c, 6, 66, 64
1, 22018, Note_off_c, 6, 61, 64
1, 22029, Note_on_c, 6, 59, 102
1, 22029, Note_on_c, 6, 68, 116
1, 22029, Note_on_c, 6, 64, 102
1, 22031, Note_on_c, 9, 57, 82
1, 22031, Note_on_c, 1, 40, 111
1, 22032, Note_off_c, 9, 57, 64
1, 22032, Note_on_c, 9, 35, 114
1, 22032, Note_on_c, 0, 68, 93
1, 22032, Note_on_c, 0, 59, 95
1, 22032, Note_on_c, 0, 64, 97
1, 22032, Note_on_c, 0, 47, 104
1, 22032, Note_on_c, 6, 76, 117
1, 22032, Note_on_c, 7, 76, 91
1, 22033, Note_off_c, 9, 35, 64
1, 22033, Control_c, 7, 1, 0
1, 22033, Pitch_bend_c, 7, 8192
1, 22049, Note_off_c, 6, 64, 64
1, 22049, Note_off_c, 6, 68, 64
1, 22049, Note_off_c, 7, 76, 64
1, 22050, Note_off_c, 0, 47, 64
1, 22050, Note_off_c, 6, 59, 64
1, 22053, Note_off_c, 0, 64, 64
1, 22055, Note_off_c, 3, 69, 64
1, 22055, Note_off_c, 0, 59, 64
1, 22055, Note_off_c, 0, 68, 64
1, 22055, Note_off_c, 6, 76, 64
1, 22060, Note_off_c, 1, 40, 64
1, 22076, Note_on_c, 6, 74, 99
1, 22077, Note_on_c, 6, 66, 88
1, 22077, Note_on_c, 6, 57, 88
1, 22077, Note_on_c, 6, 62, 88
1, 22080, Time_signature, 5, 3, 12, 8
1, 22080, Note_on_c, 9, 35, 114
1, 22080, Note_on_c, 9, 49, 87
1, 22080, Note_on_c, 1, 38, 117
1, 22080, Note_on_c, 0, 57, 91
1, 22080, Note_on_c, 0, 66, 93
1, 22080, Note_on_c, 0, 62, 104
1, 22080, Note_on_c, 7, 74, 86
1, 22081, Note_off_c, 9, 49, 64
1, 22081, Note_off_c, 9, 35, 64
1, 22083, Note_on_c, 0, 45, 95
1, 22129, Lyric_t, "clean "
1, 22129, Note_on_c, 3, 68, 127
1, 22129, Note_on_c, 9, 42, 46
1, 22130, Note_off_c, 9, 42, 64
1, 22167, Note_off_c, 3, 68, 64
1, 22176, Lyric_t, "a"
1, 22176, Note_on_c, 3, 69, 122
1, 22176, Note_on_c, 9, 38, 110
1, 22177, Note_off_c, 9, 38, 64
1, 22177, Note_on_c, 9, 42, 104
1, 22178, Note_off_c, 9, 42, 64
1, 22213, Note_off_c, 3, 69, 64
1, 22221, Lyric_t, "round? "
1, 22221, Lyric_t, "\015"
1, 22221, Note_on_c, 3, 69, 127
1, 22223, Note_on_c, 9, 42, 53
1, 22224, Note_off_c, 9, 42, 64
1, 22247, Note_off_c, 1, 38, 64
1, 22247, Note_off_c, 0, 62, 64
1, 22247, Note_off_c, 0, 57, 64
1, 22247, Note_off_c, 0, 66, 64
1, 22253, Note_off_c, 7, 74, 64
1, 22258, Note_off_c, 0, 45, 64
1, 22261, Note_off_c, 6, 74, 64
1, 22268, Note_off_c, 6, 66, 64
1, 22268, Note_off_c, 6, 57, 64
1, 22268, Note_off_c, 6, 62, 64
1, 22268, Note_on_c, 6, 73, 108
1, 22269, Note_on_c, 6, 64, 104
1, 22269, Note_on_c, 6, 61, 102
1, 22270, Note_on_c, 0, 44, 97
1, 22272, Note_on_c, 1, 37, 119
1, 22272, Note_on_c, 0, 56, 110
1, 22272, Note_on_c, 0, 59, 94
1, 22272, Note_on_c, 0, 64, 88
1, 22272, Note_on_c, 6, 56, 111
1, 22272, Note_on_c, 7, 73, 101
1, 22273, Note_on_c, 9, 42, 92
1, 22274, Note_off_c, 9, 42, 64
1, 22283, Note_off_c, 0, 44, 64
1, 22286, Note_off_c, 7, 73, 64
1, 22290, Note_off_c, 6, 56, 64
1, 22290, Note_off_c, 6, 61, 64
1, 22290, Note_off_c, 6, 64, 64
1, 22291, Note_off_c, 6, 73, 64
1, 22296, Note_off_c, 0, 56, 64
1, 22297, Note_off_c, 1, 37, 64
1, 22299, Note_off_c, 0, 59, 64
1, 22299, Note_off_c, 0, 64, 64
1, 22316, Note_off_c, 3, 69, 64
1, 22316, Note_on_c, 6, 71, 95
1, 22316, Note_on_c, 6, 54, 85
1, 22317, Note_on_c, 6, 59, 88
1, 22317, Note_on_c, 6, 62, 89
1, 22319, Note_on_c, 0, 42, 91
1, 22320, Time_signature, 4, 2, 24, 8
1, 22320, Note_on_c, 9, 35, 96
1, 22320, Note_on_c, 9, 49, 76
1, 22320, Note_on_c, 1, 35, 114
1, 22320, Note_on_c, 0, 54, 74
1, 22320, Note_on_c, 0, 57, 77
1, 22320, Note_on_c, 0, 62, 81
1, 22320, Note_on_c, 7, 71, 95
1, 22321, Note_off_c, 9, 49, 64
1, 22321, Note_off_c, 9, 35, 64
1, 22366, Lyric_t, "What "
1, 22366, Note_on_c, 3, 68, 127
1, 22369, Note_on_c, 9, 42, 56
1, 22370, Note_off_c, 9, 42, 64
1, 22409, Note_off_c, 3, 68, 64
1, 22416, Note_on_c, 9, 38, 113
1, 22417, Lyric_t, "have "
1, 22417, Note_on_c, 3, 68, 127
1, 22417, Note_off_c, 9, 38, 64
1, 22417, Note_on_c, 9, 42, 86
1, 22418, Note_off_c, 9, 42, 64
1, 22446, Lyric_t, "I "
1, 22446, Note_off_c, 3, 68, 64
1, 22446, Note_on_c, 3, 69, 118
1, 22464, Note_on_c, 9, 42, 41
1, 22465, Note_off_c, 9, 42, 64
1, 22493, Note_off_c, 3, 69, 64
1, 22510, Lyric_t, "done? "
1, 22510, Lyric_t, "\015"
1, 22510, Note_on_c, 3, 69, 127
1, 22511, Note_on_c, 9, 42, 92
1, 22512, Note_off_c, 9, 42, 64
1, 22512, Note_on_c, 9, 35, 95
1, 22513, Note_off_c, 9, 35, 64
1, 22513, Note_on_c, 0, 66, 53
1, 22559, Lyric_t, "\012"
1, 22559, Note_on_c, 9, 42, 49
1, 22560, Note_off_c, 9, 42, 64
1, 22607, Note_on_c, 9, 42, 76
1, 22608, Note_off_c, 9, 42, 64
1, 22608, Note_on_c, 9, 38, 110
1, 22608, Note_off_c, 0, 66, 64
1, 22608, Note_on_c, 0, 69, 79
1, 22609, Note_off_c, 9, 38, 64
1, 22620, Note_off_c, 3, 69, 64
1, 22631, Note_off_c, 1, 35, 64
1, 22655, Lyric_t, "I "
1, 22655, Note_on_c, 3, 69, 122
1, 22655, Note_on_c, 9, 42, 51
1, 22656, Note_off_c, 9, 42, 64
1, 22656, Note_on_c, 1, 35, 92
1, 22673, Note_off_c, 1, 35, 64
1, 22680, Note_on_c, 1, 36, 97
1, 22688, Note_off_c, 0, 69, 64
1, 22693, Note_off_c, 3, 69, 64
1, 22697, Note_off_c, 1, 36, 64
1, 22699, Note_off_c, 6, 54, 64
1, 22700, Note_off_c, 6, 62, 64
1, 22700, Note_off_c, 6, 59, 64
1, 22701, Lyric_t, "on"
1, 22701, Note_on_c, 3, 68, 124
1, 22701, Note_off_c, 6, 71, 64
1, 22701, Note_on_c, 6, 59, 63
1, 22701, Note_on_c, 6, 65, 73
1, 22701, Note_on_c, 6, 68, 63
1, 22701, Note_on_c, 6, 73, 70
1, 22702, Note_off_c, 0, 42, 64
1, 22703, Note_off_c, 0, 54, 64
1, 22703, Note_off_c, 0, 57, 64
1, 22703, Note_off_c, 0, 62, 64
1, 22703, Note_off_c, 7, 71, 64
1, 22704, Note_on_c, 9, 35, 93
1, 22704, Note_on_c, 0, 73, 60
1, 22704, Note_on_c, 0, 71, 70
1, 22704, Note_on_c, 0, 68, 68
1, 22704, Note_on_c, 0, 65, 69
1, 22705, Note_off_c, 9, 35, 64
1, 22705, Note_on_c, 9, 42, 100
1, 22705, Note_on_c, 1, 37, 104
1, 22706, Note_off_c, 9, 42, 64
1, 22743, Note_off_c, 3, 68, 64
1, 22747, Lyric_t, "ly "
1, 22747, Note_on_c, 3, 68, 121
1, 22751, Note_on_c, 9, 42, 47
1, 22752, Note_off_c, 9, 42, 64
1, 22787, Note_off_c, 3, 68, 64
1, 22794, Lyric_t, "a"
1, 22794, Note_on_c, 3, 68, 124
1, 22799, Note_on_c, 9, 42, 96
1, 22800, Note_off_c, 9, 42, 64
1, 22800, Note_on_c, 9, 38, 111
1, 22801, Note_off_c, 9, 38, 64
1, 22804, Note_on_c, 0, 77, 59
1, 22829, Note_off_c, 1, 37, 64
1, 22833, Note_off_c, 3, 68, 64
1, 22844, Lyric_t, "pol"
1, 22844, Note_on_c, 3, 73, 118
1, 22847, Note_on_c, 9, 42, 51
1, 22847, Note_on_c, 1, 37, 99
1, 22848, Note_off_c, 9, 42, 64
1, 22882, Note_off_c, 1, 37, 64
1, 22895, Note_on_c, 9, 42, 100
1, 22895, Note_on_c, 1, 32, 107
1, 22895, Note_on_c, 0, 80, 66
1, 22896, Note_off_c, 9, 42, 64
1, 22896, Note_on_c, 9, 35, 95
1, 22896, Note_on_c, 9, 38, 96
1, 22897, Note_off_c, 9, 38, 64
1, 22897, Note_off_c, 9, 35, 64
1, 22923, Note_off_c, 1, 32, 64
1, 22938, Note_off_c, 3, 73, 64
1, 22939, Lyric_t, "o"
1, 22939, Note_on_c, 3, 71, 120
1, 22943, Note_on_c, 9, 42, 48
1, 22943, Note_on_c, 1, 37, 93
1, 22944, Note_off_c, 9, 42, 64
1, 22944, Note_on_c, 9, 38, 68
1, 22945, Note_off_c, 9, 38, 64
1, 22968, Note_on_c, 9, 38, 80
1, 22969, Note_off_c, 9, 38, 64
1, 22991, Note_on_c, 9, 42, 89
1, 22992, Note_off_c, 9, 42, 64
1, 22992, Note_on_c, 9, 38, 122
1, 22993, Note_off_c, 9, 38, 64
1, 22993, Note_on_c, 0, 83, 55
1, 23022, Note_off_c, 1, 37, 64
1, 23034, Note_off_c, 3, 71, 64
1, 23037, Lyric_t, "gize "
1, 23037, Note_on_c, 3, 69, 118
1, 23039, Note_on_c, 9, 42, 59
1, 23039, Note_on_c, 1, 37, 93
1, 23040, Note_off_c, 9, 42, 64
1, 23040, Note_on_c, 9, 38, 79
1, 23041, Note_off_c, 9, 38, 64
1, 23064, Note_off_c, 1, 37, 64
1, 23084, Note_off_c, 6, 73, 64
1, 23085, Note_off_c, 0, 83, 64
1, 23085, Note_on_c, 6, 61, 70
1, 23085, Note_on_c, 6, 66, 70
1, 23085, Note_on_c, 6, 69, 70
1, 23085, Note_on_c, 6, 78, 69
1, 23087, Note_on_c, 1, 38, 104
1, 23087, Note_off_c, 0, 71, 64
1, 23087, Note_off_c, 0, 68, 64
1, 23087, Note_off_c, 0, 73, 64
1, 23087, Note_off_c, 0, 65, 64
1, 23087, Note_off_c, 6, 59, 64
1, 23087, Note_off_c, 6, 68, 64
1, 23087, Note_off_c, 6, 65, 64
1, 23088, Note_on_c, 9, 35, 102
1, 23088, Note_on_c, 9, 49, 76
1, 23088, Note_off_c, 0, 80, 64
1, 23088, Note_on_c, 0, 78, 65
1, 23088, Note_on_c, 0, 85, 62
1, 23088, Note_on_c, 0, 81, 68
1, 23089, Note_off_c, 9, 49, 64
1, 23089, Note_off_c, 9, 35, 64
1, 23090, Note_off_c, 0, 77, 64
1, 23132, Note_off_c, 3, 69, 64
1, 23135, Lyric_t, "for "
1, 23135, Note_on_c, 3, 66, 115
1, 23137, Note_on_c, 9, 42, 41
1, 23138, Note_off_c, 9, 42, 64
1, 23177, Note_off_c, 3, 66, 64
1, 23184, Note_on_c, 9, 38, 110
1, 23185, Note_off_c, 9, 38, 64
1, 23185, Note_on_c, 9, 42, 100
1, 23186, Lyric_t, "being "
1, 23186, Note_on_c, 3, 66, 124
1, 23186, Note_off_c, 9, 42, 64
1, 23233, Note_on_c, 9, 42, 45
1, 23234, Note_off_c, 9, 42, 64
1, 23263, Note_off_c, 1, 38, 64
1, 23266, Note_off_c, 3, 66, 64
1, 23268, Lyric_t, "as "
1, 23268, Note_on_c, 3, 68, 115
1, 23276, Note_off_c, 6, 66, 64
1, 23276, Note_off_c, 6, 61, 64
1, 23276, Note_off_c, 6, 69, 64
1, 23276, Note_off_c, 6, 78, 64
1, 23277, Note_off_c, 0, 78, 64
1, 23277, Note_off_c, 0, 85, 64
1, 23277, Note_off_c, 0, 81, 64
1, 23277, Note_on_c, 6, 64, 75
1, 23278, Note_on_c, 6, 76, 59
1, 23278, Note_on_c, 6, 68, 72
1, 23278, Note_on_c, 6, 59, 72
1, 23279, Note_on_c, 1, 38, 104
1, 23280, Note_on_c, 9, 35, 92
1, 23280, Note_on_c, 9, 42, 96
1, 23280, Note_on_c, 0, 80, 64
1, 23280, Note_on_c, 0, 76, 62
1, 23280, Note_on_c, 0, 83, 65
1, 23281, Note_off_c, 9, 42, 64
1, 23281, Note_off_c, 9, 35, 64
1, 23300, Note_off_c, 1, 38, 64
1, 23323, Note_off_c, 3, 68, 64
1, 23326, Lyric_t, "they "
1, 23326, Note_on_c, 3, 68, 118
1, 23327, Note_on_c, 9, 42, 54
1, 23327, Note_on_c, 1, 38, 102
1, 23328, Note_off_c, 9, 42, 64
1, 23372, Note_off_c, 3, 68, 64
1, 23375, Note_on_c, 9, 42, 100
1, 23376, Note_off_c, 9, 42, 64
1, 23376, Note_on_c, 9, 38, 110
1, 23377, Note_off_c, 9, 38, 64
1, 23378, Lyric_t, "say "
1, 23378, Lyric_t, "\015"
1, 23378, Note_on_c, 3, 68, 127
1, 23405, Note_off_c, 1, 38, 64
1, 23423, Note_on_c, 9, 42, 49
1, 23423, Note_on_c, 1, 38, 100
1, 23424, Note_off_c, 9, 42, 64
1, 23447, Note_off_c, 1, 38, 64
1, 23448, Lyric_t, "the "
1, 23448, Note_on_c, 3, 66, 127
1, 23449, Note_off_c, 3, 68, 64
1, 23458, Note_off_c, 6, 68, 64
1, 23461, Note_off_c, 3, 66, 64
1, 23464, Note_on_c, 6, 78, 59
1, 23466, Note_off_c, 6, 59, 64
1, 23466, Note_on_c, 6, 66, 65
1, 23467, Note_off_c, 6, 64, 64
1, 23468, Note_on_c, 6, 69, 73
1, 23468, Note_on_c, 6, 61, 68
1, 23469, Note_off_c, 6, 76, 64
1, 23470, Lyric_t, "last "
1, 23470, Note_on_c, 3, 68, 127
1, 23471, Note_on_c, 1, 30, 87
1, 23472, Time_signature, 2, 2, 24, 8
1, 23472, Note_on_c, 9, 35, 96
1, 23472, Note_on_c, 0, 73, 71
1, 23472, Note_on_c, 0, 78, 68
1, 23472, Note_on_c, 0, 69, 64
1, 23473, Note_off_c, 9, 35, 64
1, 23473, Note_on_c, 9, 42, 84
1, 23474, Note_off_c, 9, 42, 64
1, 23478, Note_off_c, 0, 83, 64
1, 23478, Note_off_c, 0, 80, 64
1, 23478, Note_off_c, 0, 76, 64
1, 23514, Note_off_c, 3, 68, 64
1, 23519, Note_on_c, 9, 42, 59
1, 23520, Note_off_c, 9, 42, 64
1, 23522, Lyric_t, "to "
1, 23522, Note_on_c, 3, 69, 125
1, 23555, Note_off_c, 3, 69, 64
1, 23568, Note_on_c, 9, 38, 116
1, 23569, Note_off_c, 9, 38, 64
1, 23569, Note_on_c, 9, 42, 67
1, 23570, Lyric_t, "know. "
1, 23570, Lyric_t, "\015"
1, 23570, Note_on_c, 3, 69, 127
1, 23570, Note_off_c, 9, 42, 64
1, 23588, Note_off_c, 6, 78, 64
1, 23594, Note_off_c, 6, 69, 64
1, 23595, Note_off_c, 6, 66, 64
1, 23602, Note_off_c, 6, 61, 64
1, 23607, Note_off_c, 1, 30, 64
1, 23613, Note_on_c, 6, 59, 102
1, 23613, Note_on_c, 6, 68, 116
1, 23613, Note_on_c, 6, 64, 102
1, 23614, Note_on_c, 0, 47, 108
1, 23615, Note_on_c, 1, 40, 106
1, 23616, Note_on_c, 9, 35, 107
1, 23616, Note_on_c, 0, 68, 67
1, 23616, Note_on_c, 0, 71, 80
1, 23616, Note_on_c, 0, 76, 73
1, 23616, Note_on_c, 6, 76, 117
1, 23617, Note_off_c, 9, 35, 64
1, 23617, Note_on_c, 9, 57, 74
1, 23618, Note_off_c, 9, 57, 64
1, 23618, Note_on_c, 7, 76, 97
1, 23621, Note_off_c, 0, 73, 64
1, 23621, Note_off_c, 0, 69, 64
1, 23621, Note_off_c, 0, 78, 64
1, 23631, Note_off_c, 7, 76, 64
1, 23632, Note_off_c, 0, 47, 64
1, 23633, Note_off_c, 6, 64, 64
1, 23633, Note_off_c, 6, 68, 64
1, 23634, Note_off_c, 0, 76, 64
1, 23634, Note_off_c, 6, 59, 64
1, 23636, Note_off_c, 0, 71, 64
1, 23636, Note_off_c, 0, 68, 64
1, 23639, Note_off_c, 6, 76, 64
1, 23641, Note_off_c, 1, 40, 64
1, 23642, Note_off_c, 3, 69, 64
1, 23660, Note_on_c, 6, 74, 99
1, 23661, Note_on_c, 6, 66, 88
1, 23661, Note_on_c, 6, 57, 88
1, 23661, Note_on_c, 6, 62, 88
1, 23664, Time_signature, 4, 2, 24, 8
1, 23664, Note_on_c, 9, 35, 110
1, 23664, Note_on_c, 1, 38, 104
1, 23664, Note_on_c, 0, 66, 82
1, 23664, Note_on_c, 0, 69, 90
1, 23664, Note_on_c, 0, 74, 83
1, 23664, Note_on_c, 0, 45, 100
1, 23664, Note_on_c, 7, 74, 88
1, 23665, Note_off_c, 9, 35, 64
1, 23665, Note_on_c, 9, 49, 92
1, 23666, Note_off_c, 9, 49, 64
1, 23715, Lyric_t, "It "
1, 23715, Note_on_c, 3, 69, 122
1, 23750, Note_off_c, 3, 69, 64
1, 23753, Note_off_c, 1, 38, 64
1, 23759, Lyric_t, "has "
1, 23759, Note_on_c, 3, 68, 127
1, 23760, Note_on_c, 9, 38, 120
1, 23760, Note_on_c, 1, 33, 102
1, 23761, Note_off_c, 9, 38, 64
1, 23761, Note_on_c, 9, 42, 80
1, 23762, Note_off_c, 9, 42, 64
1, 23800, Note_off_c, 3, 68, 64
1, 23805, Lyric_t, "to "
1, 23805, Note_on_c, 3, 69, 118
1, 23846, Note_off_c, 3, 69, 64
1, 23846, Note_off_c, 1, 33, 64
1, 23855, Note_on_c, 9, 42, 98
1, 23856, Note_off_c, 9, 42, 64
1, 23856, Note_on_c, 9, 35, 81
1, 23856, Note_on_c, 1, 38, 95
1, 23857, Note_off_c, 9, 35, 64
1, 23858, Lyric_t, "show "
1, 23858, Note_on_c, 3, 69, 114
1, 23871, Note_off_c, 7, 74, 64
1, 23875, Note_off_c, 6, 74, 64
1, 23876, Note_off_c, 6, 66, 64
1, 23876, Note_off_c, 6, 57, 64
1, 23876, Note_off_c, 6, 62, 64
1, 23886, Note_off_c, 1, 38, 64
1, 23889, Note_off_c, 0, 45, 64
1, 23889, Note_off_c, 0, 66, 64
1, 23889, Note_off_c, 0, 69, 64
1, 23889, Note_off_c, 0, 74, 64
1, 23901, Note_on_c, 6, 56, 111
1, 23901, Note_on_c, 6, 61, 102
1, 23901, Note_on_c, 6, 73, 108
1, 23901, Note_on_c, 6, 64, 104
1, 23903, Note_on_c, 9, 57, 83
1, 23903, Note_on_c, 1, 37, 95
1, 23903, Note_on_c, 0, 44, 104
1, 23903, Note_on_c, 7, 73, 94
1, 23904, Note_off_c, 9, 57, 64
1, 23904, Note_on_c, 9, 35, 112
1, 23904, Note_on_c, 0, 68, 80
1, 23904, Note_on_c, 0, 73, 74
1, 23904, Note_on_c, 0, 64, 71
1, 23905, Note_off_c, 9, 35, 64
1, 23916, Note_off_c, 0, 44, 64
1, 23916, Note_off_c, 7, 73, 64
1, 23919, Note_off_c, 6, 56, 64
1, 23920, Note_off_c, 0, 68, 64
1, 23921, Note_off_c, 0, 73, 64
1, 23922, Note_off_c, 6, 61, 64
1, 23922, Note_off_c, 6, 64, 64
1, 23923, Note_off_c, 0, 64, 64
1, 23924, Note_off_c, 6, 73, 64
1, 23927, Note_off_c, 1, 37, 64
1, 23949, Note_on_c, 6, 59, 88
1, 23949, Note_on_c, 6, 62, 89
1, 23949, Note_on_c, 6, 71, 95
1, 23951, Note_on_c, 9, 49, 90
1, 23951, Note_on_c, 1, 35, 102
1, 23952, Note_off_c, 9, 49, 64
1, 23952, Note_on_c, 9, 35, 110
1, 23952, Note_on_c, 0, 42, 82
1, 23952, Note_on_c, 0, 71, 74
1, 23952, Note_on_c, 0, 62, 73
1, 23952, Note_on_c, 0, 66, 78
1, 23952, Note_on_c, 6, 54, 85
1, 23952, Note_on_c, 7, 71, 90
1, 23953, Note_off_c, 9, 35, 64
1, 23985, Note_off_c, 3, 69, 64
1, 24001, Lyric_t, "when "
1, 24001, Note_on_c, 3, 69, 120
1, 24031, Note_off_c, 1, 35, 64
1, 24039, Note_off_c, 3, 69, 64
1, 24042, Note_off_c, 6, 71, 64
1, 24044, Note_off_c, 0, 62, 64
1, 24044, Note_off_c, 0, 71, 64
1, 24044, Note_off_c, 6, 59, 64
1, 24044, Note_off_c, 6, 62, 64
1, 24045, Note_off_c, 0, 66, 64
1, 24045, Note_on_c, 6, 71, 73
1, 24045, Note_on_c, 6, 77, 70
1, 24046, Note_on_c, 6, 61, 63
1, 24047, Note_on_c, 1, 37, 104
1, 24047, Note_off_c, 0, 42, 64
1, 24047, Note_off_c, 6, 54, 64
1, 24047, Note_on_c, 6, 68, 63
1, 24047, Note_off_c, 7, 71, 64
1, 24048, Lyric_t, "some"
1, 24048, Note_on_c, 3, 68, 109
1, 24048, Note_on_c, 9, 35, 95
1, 24048, Note_on_c, 0, 44, 82
1, 24048, Note_on_c, 0, 65, 62
1, 24048, Note_on_c, 0, 73, 68
1, 24048, Note_on_c, 0, 68, 73
1, 24048, Note_on_c, 0, 71, 74
1, 24048, Note_on_c, 6, 65, 63
1, 24049, Note_off_c, 9, 35, 64
1, 24049, Note_on_c, 9, 57, 82
1, 24050, Note_off_c, 9, 57, 64
1, 24054, Note_on_c, 7, 73, 65
1, 24054, Note_on_c, 7, 68, 64
1, 24091, Note_off_c, 3, 68, 64
1, 24093, Lyric_t, "one "
1, 24093, Note_on_c, 3, 68, 118
1, 24096, Note_on_c, 9, 42, 42
1, 24097, Note_off_c, 9, 42, 64
1, 24133, Note_off_c, 3, 68, 64
1, 24140, Lyric_t, "is "
1, 24140, Note_on_c, 3, 68, 121
1, 24144, Note_on_c, 9, 38, 110
1, 24144, Note_on_c, 9, 42, 82
1, 24145, Note_off_c, 9, 42, 64
1, 24145, Note_off_c, 9, 38, 64
1, 24180, Note_off_c, 3, 68, 64
1, 24189, Lyric_t, "in "
1, 24189, Note_on_c, 3, 69, 125
1, 24191, Note_on_c, 9, 42, 42
1, 24192, Note_off_c, 9, 42, 64
1, 24192, Note_on_c, 9, 35, 83
1, 24193, Note_off_c, 9, 35, 64
1, 24232, Note_off_c, 1, 37, 64
1, 24239, Note_on_c, 1, 32, 95
1, 24240, Note_on_c, 9, 35, 91
1, 24240, Note_on_c, 9, 42, 89
1, 24241, Note_off_c, 9, 42, 64
1, 24241, Note_off_c, 9, 35, 64
1, 24263, Note_off_c, 1, 32, 64
1, 24276, Note_off_c, 3, 69, 64
1, 24283, Lyric_t, "your "
1, 24283, Note_on_c, 3, 71, 122
1, 24287, Note_on_c, 1, 37, 97
1, 24288, Note_on_c, 9, 42, 47
1, 24289, Note_off_c, 9, 42, 64
1, 24336, Note_on_c, 9, 38, 112
1, 24337, Note_off_c, 9, 38, 64
1, 24337, Note_on_c, 9, 42, 78
1, 24338, Note_off_c, 9, 42, 64
1, 24365, Note_off_c, 1, 37, 64
1, 24377, Note_off_c, 3, 71, 64
1, 24383, Lyric_t, "eyes. "
1, 24383, Lyric_t, "\015"
1, 24383, Note_on_c, 3, 73, 116
1, 24384, Note_on_c, 1, 37, 101
1, 24385, Note_on_c, 9, 42, 42
1, 24386, Note_off_c, 9, 42, 64
1, 24408, Note_off_c, 1, 37, 64
1, 24417, Note_off_c, 0, 65, 64
1, 24418, Note_off_c, 0, 68, 64
1, 24421, Note_off_c, 0, 71, 64
1, 24421, Note_off_c, 7, 68, 64
1, 24421, Note_off_c, 7, 73, 64
1, 24422, Note_off_c, 6, 77, 64
1, 24423, Note_off_c, 0, 73, 64
1, 24428, Note_off_c, 6, 61, 64
1, 24429, Note_off_c, 6, 68, 64
1, 24430, Note_off_c, 6, 65, 64
1, 24431, Note_off_c, 0, 44, 64
1, 24431, Note_off_c, 6, 71, 64
1, 24432, Note_on_c, 9, 35, 100
1, 24432, Note_on_c, 9, 49, 76
1, 24432, Note_on_c, 1, 38, 92
1, 24432, Note_on_c, 0, 81, 84
1, 24432, Note_on_c, 6, 66, 73
1, 24432, Note_on_c, 6, 61, 73
1, 24432, Note_on_c, 6, 69, 73
1, 24433, Note_off_c, 9, 49, 64
1, 24433, Note_off_c, 9, 35, 64
1, 24440, Control_c, 6, 11, 126
1, 24444, Control_c, 6, 11, 125
1, 24452, Control_c, 6, 11, 124
1, 24456, Control_c, 6, 11, 123
1, 24464, Control_c, 6, 11, 122
1, 24467, Note_on_c, 0, 83, 67
1, 24468, Control_c, 6, 11, 121
1, 24472, Control_c, 6, 11, 120
1, 24480, Control_c, 6, 11, 119
1, 24484, Control_c, 6, 11, 118
1, 24492, Control_c, 6, 11, 117
1, 24496, Control_c, 6, 11, 116
1, 24499, Note_on_c, 0, 78, 73
1, 24504, Control_c, 6, 11, 115
1, 24508, Control_c, 6, 11, 114
1, 24512, Control_c, 6, 11, 113
1, 24520, Control_c, 6, 11, 112
1, 24524, Control_c, 6, 11, 111
1, 24532, Note_off_c, 0, 81, 64
1, 24532, Control_c, 6, 11, 110
1, 24533, Note_on_c, 0, 81, 69
1, 24536, Control_c, 6, 11, 109
1, 24544, Control_c, 6, 11, 108
1, 24548, Control_c, 6, 11, 107
1, 24552, Control_c, 6, 11, 106
1, 24560, Control_c, 6, 11, 105
1, 24564, Note_on_c, 0, 76, 57
1, 24564, Control_c, 6, 11, 104
1, 24572, Control_c, 6, 11, 103
1, 24576, Control_c, 6, 11, 102
1, 24584, Control_c, 6, 11, 101
1, 24588, Control_c, 6, 11, 100
1, 24592, Control_c, 6, 11, 99
1, 24594, Note_off_c, 0, 78, 64
1, 24595, Note_on_c, 0, 78, 67
1, 24600, Control_c, 6, 11, 98
1, 24604, Control_c, 6, 11, 97
1, 24612, Control_c, 6, 11, 96
1, 24616, Control_c, 6, 11, 95
1, 24620, Control_c, 6, 11, 94
1, 24627, Note_on_c, 0, 73, 69
1, 24628, Control_c, 6, 11, 93
1, 24632, Control_c, 6, 11, 92
1, 24640, Control_c, 6, 11, 91
1, 24644, Control_c, 6, 11, 90
1, 24652, Control_c, 6, 11, 89
1, 24656, Note_off_c, 0, 76, 64
1, 24656, Control_c, 6, 11, 88
1, 24657, Note_on_c, 0, 76, 69
1, 24660, Control_c, 6, 11, 87
1, 24668, Control_c, 6, 11, 86
1, 24672, Control_c, 6, 11, 85
1, 24680, Control_c, 6, 11, 84
1, 24684, Control_c, 6, 11, 83
1, 24692, Note_on_c, 0, 71, 42
1, 24692, Control_c, 6, 11, 82
1, 24696, Control_c, 6, 11, 81
1, 24700, Control_c, 6, 11, 80
1, 24708, Control_c, 6, 11, 79
1, 24712, Control_c, 6, 11, 78
1, 24719, Note_off_c, 0, 73, 64
1, 24720, Note_on_c, 0, 73, 69
1, 24720, Control_c, 6, 11, 77
1, 24724, Control_c, 6, 11, 76
1, 24732, Control_c, 6, 11, 75
1, 24736, Control_c, 6, 11, 74
1, 24740, Control_c, 6, 11, 73
1, 24748, Control_c, 6, 11, 72
1, 24752, Control_c, 6, 11, 71
1, 24755, Note_on_c, 0, 69, 62
1, 24760, Control_c, 6, 11, 70
1, 24764, Control_c, 6, 11, 69
1, 24772, Control_c, 6, 11, 68
1, 24776, Control_c, 6, 11, 67
1, 24780, Control_c, 6, 11, 66
1, 24787, Note_off_c, 0, 71, 64
1, 24788, Note_on_c, 0, 71, 61
1, 24788, Control_c, 6, 11, 65
1, 24792, Control_c, 6, 11, 64
1, 24800, Control_c, 6, 11, 63
1, 24804, Control_c, 6, 11, 62
1, 24808, Control_c, 6, 11, 61
1, 24810, Note_on_c, 9, 41, 55
1, 24811, Note_off_c, 9, 41, 64
1, 24812, Lyric_t, "\012"
1, 24816, Time_signature, 2, 2, 24, 8
1, 24816, Note_on_c, 9, 43, 95
1, 24816, Control_c, 6, 11, 60
1, 24817, Note_off_c, 9, 43, 64
1, 24818, Note_on_c, 0, 66, 63
1, 24820, Control_c, 6, 11, 59
1, 24828, Control_c, 6, 11, 58
1, 24832, Control_c, 6, 11, 57
1, 24840, Control_c, 6, 11, 56
1, 24844, Control_c, 6, 11, 55
1, 24845, Note_off_c, 0, 69, 64
1, 24846, Note_on_c, 0, 69, 68
1, 24848, Control_c, 6, 11, 54
1, 24856, Control_c, 6, 11, 53
1, 24860, Control_c, 6, 11, 52
1, 24868, Control_c, 6, 11, 51
1, 24872, Control_c, 6, 11, 50
1, 24880, Note_on_c, 0, 64, 66
1, 24880, Control_c, 6, 11, 49
1, 24884, Control_c, 6, 11, 48
1, 24887, Note_on_c, 9, 45, 82
1, 24888, Note_off_c, 9, 45, 64
1, 24888, Control_c, 6, 11, 47
1, 24896, Control_c, 6, 11, 46
1, 24900, Control_c, 6, 11, 45
1, 24908, Control_c, 6, 11, 44
1, 24910, Note_off_c, 0, 66, 64
1, 24911, Note_on_c, 0, 66, 69
1, 24912, Note_on_c, 9, 47, 127
1, 24912, Control_c, 6, 11, 43
1, 24913, Note_off_c, 9, 47, 64
1, 24920, Control_c, 6, 11, 42
1, 24924, Control_c, 6, 11, 41
1, 24928, Control_c, 6, 11, 40
1, 24936, Control_c, 6, 11, 39
1, 24940, Control_c, 6, 11, 38
1, 24943, Note_on_c, 0, 61, 61
1, 24948, Control_c, 6, 11, 37
1, 24952, Control_c, 6, 11, 36
1, 24960, Note_on_c, 9, 41, 55
1, 24960, Control_c, 6, 11, 35
1, 24961, Note_off_c, 9, 41, 64
1, 24964, Control_c, 6, 11, 34
1, 24968, Control_c, 6, 11, 33
1, 24974, Note_on_c, 0, 59, 79
1, 24976, Note_off_c, 1, 38, 64
1, 24976, Control_c, 6, 11, 32
1, 24980, Control_c, 6, 11, 31
1, 24982, Note_off_c, 3, 73, 64
1, 24983, Note_off_c, 6, 69, 64
1, 24988, Note_off_c, 6, 66, 64
1, 24988, Control_c, 6, 11, 30
1, 24992, Control_c, 6, 11, 29
1, 24994, Note_off_c, 6, 61, 64
1, 24996, Control_c, 6, 11, 28
1, 25006, Note_off_c, 0, 59, 64
1, 25006, Note_off_c, 0, 83, 64
1, 25006, Note_off_c, 0, 78, 64
1, 25006, Note_off_c, 0, 69, 64
1, 25006, Note_off_c, 0, 76, 64
1, 25006, Note_off_c, 0, 73, 64
1, 25006, Note_off_c, 0, 81, 64
1, 25006, Note_off_c, 0, 66, 64
1, 25006, Note_off_c, 0, 64, 64
1, 25006, Note_off_c, 0, 71, 64
1, 25006, Note_off_c, 0, 61, 64
1, 25006, Control_c, 6, 11, 126
1, 25008, Time_signature, 4, 2, 24, 8
1, 25008, Tempo, 740741
1, 25008, Note_on_c, 9, 35, 91
1, 25008, Note_on_c, 1, 38, 95
1, 25008, Note_on_c, 0, 61, 120
1, 25008, Note_on_c, 0, 54, 71
1, 25008, Note_on_c, 0, 57, 74
1, 25008, Note_on_c, 10, 73, 75
1, 25008, Note_on_c, 6, 73, 60
1, 25008, Note_on_c, 6, 78, 59
1, 25008, Note_on_c, 6, 69, 60
1, 25009, Note_off_c, 9, 35, 64
1, 25009, Note_on_c, 9, 49, 77
1, 25009, Control_c, 10, 1, 0
1, 25009, Pitch_bend_c, 10, 8192
1, 25010, Note_off_c, 9, 49, 64
1, 25056, Note_on_c, 4, 61, 79
1, 25056, Note_on_c, 4, 66, 79
1, 25056, Note_on_c, 4, 69, 84
1, 25057, Note_on_c, 9, 42, 58
1, 25058, Note_off_c, 9, 42, 64
1, 25061, Lyric_t, "What, "
1, 25061, Note_on_c, 3, 73, 118
1, 25104, Note_on_c, 9, 38, 89
1, 25104, Note_on_c, 9, 42, 94
1, 25105, Note_off_c, 9, 42, 64
1, 25105, Note_off_c, 9, 38, 64
1, 25108, Note_off_c, 3, 73, 64
1, 25151, Note_on_c, 9, 42, 51
1, 25152, Note_off_c, 9, 42, 64
1, 25185, Note_off_c, 1, 38, 64
1, 25199, Note_off_c, 4, 69, 64
1, 25199, Note_off_c, 4, 66, 64
1, 25199, Note_off_c, 4, 61, 64
1, 25200, Note_on_c, 4, 69, 92
1, 25200, Note_on_c, 4, 61, 84
1, 25200, Note_on_c, 4, 66, 99
1, 25200, Note_on_c, 9, 35, 90
1, 25200, Note_on_c, 9, 42, 82
1, 25201, Note_off_c, 9, 42, 64
1, 25201, Note_off_c, 9, 35, 64
1, 25203, Lyric_t, "what "
1, 25203, Note_on_c, 3, 73, 127
1, 25226, Note_off_c, 10, 73, 64
1, 25245, Note_off_c, 3, 73, 64
1, 25247, Note_off_c, 4, 66, 64
1, 25247, Note_off_c, 4, 61, 64
1, 25247, Note_off_c, 4, 69, 64
1, 25247, Note_on_c, 9, 42, 41
1, 25248, Note_on_c, 4, 69, 87
1, 25248, Note_on_c, 4, 66, 91
1, 25248, Note_on_c, 4, 61, 87
1, 25248, Note_off_c, 9, 42, 64
1, 25248, Note_on_c, 1, 38, 85
1, 25249, Lyric_t, "kind "
1, 25249, Note_on_c, 3, 73, 124
1, 25250, Note_on_c, 10, 73, 75
1, 25293, Note_off_c, 10, 73, 64
1, 25294, Lyric_t, "of "
1, 25294, Note_off_c, 3, 73, 64
1, 25294, Note_on_c, 3, 71, 116
1, 25296, Note_off_c, 4, 61, 64
1, 25296, Note_off_c, 4, 66, 64
1, 25296, Note_off_c, 4, 69, 64
1, 25296, Note_on_c, 4, 64, 85
1, 25296, Note_on_c, 4, 68, 95
1, 25296, Note_on_c, 4, 59, 83
1, 25296, Note_on_c, 9, 38, 91
1, 25296, Note_on_c, 9, 42, 84
1, 25297, Note_off_c, 9, 42, 64
1, 25297, Note_off_c, 9, 38, 64
1, 25304, Note_on_c, 10, 71, 80
1, 25315, Note_off_c, 1, 38, 64
1, 25340, Note_off_c, 3, 71, 64
1, 25343, Note_off_c, 4, 59, 64
1, 25343, Note_off_c, 4, 68, 64
1, 25343, Note_off_c, 4, 64, 64
1, 25343, Note_on_c, 9, 42, 54
1, 25344, Note_on_c, 4, 64, 90
1, 25344, Note_on_c, 4, 68, 104
1, 25344, Note_on_c, 4, 59, 80
1, 25344, Note_off_c, 9, 42, 64
1, 25344, Note_on_c, 1, 38, 90
1, 25346, Lyric_t, "fool "
1, 25346, Note_on_c, 3, 71, 116
1, 25363, Note_off_c, 10, 71, 64
1, 25368, Note_on_c, 10, 69, 70
1, 25385, Note_on_c, 6, 76, 63
1, 25385, Note_on_c, 6, 68, 65
1, 25386, Note_off_c, 6, 78, 64
1, 25388, Note_off_c, 1, 38, 64
1, 25388, Note_off_c, 0, 57, 64
1, 25388, Note_off_c, 0, 54, 64
1, 25388, Note_off_c, 0, 61, 64
1, 25388, Note_off_c, 6, 73, 64
1, 25388, Note_on_c, 6, 71, 65
1, 25389, Note_off_c, 10, 69, 64
1, 25389, Note_off_c, 6, 69, 64
1, 25391, Note_on_c, 0, 59, 74
1, 25391, Note_on_c, 0, 68, 74
1, 25391, Note_on_c, 0, 64, 80
1, 25392, Note_on_c, 9, 35, 90
1, 25392, Note_on_c, 9, 42, 85
1, 25392, Note_on_c, 1, 37, 95
1, 25393, Note_off_c, 9, 42, 64
1, 25393, Note_off_c, 9, 35, 64
1, 25399, Note_on_c, 10, 71, 79
1, 25440, Note_on_c, 9, 42, 46
1, 25441, Note_off_c, 9, 42, 64
1, 25461, Note_off_c, 10, 71, 64
1, 25464, Note_on_c, 10, 69, 62
1, 25484, Note_off_c, 10, 69, 64
1, 25487, Note_on_c, 9, 42, 86
1, 25488, Note_off_c, 9, 42, 64
1, 25488, Note_on_c, 9, 38, 93
1, 25489, Note_off_c, 9, 38, 64
1, 25489, Note_on_c, 10, 68, 69
1, 25514, Note_off_c, 10, 68, 64
1, 25514, Note_on_c, 10, 66, 68
1, 25521, Note_off_c, 1, 37, 64
1, 25535, Note_on_c, 9, 42, 50
1, 25536, Note_off_c, 9, 42, 64
1, 25536, Note_on_c, 1, 32, 95
1, 25536, Note_on_c, 0, 83, 70
1, 25536, Note_on_c, 0, 76, 59
1, 25537, Note_on_c, 0, 80, 60
1, 25537, Note_off_c, 10, 66, 64
1, 25543, Note_on_c, 10, 64, 69
1, 25554, Note_off_c, 3, 71, 64
1, 25560, Note_off_c, 4, 59, 64
1, 25560, Note_off_c, 4, 68, 64
1, 25560, Note_off_c, 4, 64, 64
1, 25582, Lyric_t, "tears "
1, 25582, Note_on_c, 3, 68, 127
1, 25584, Note_on_c, 4, 56, 85
1, 25584, Note_on_c, 4, 64, 100
1, 25584, Note_on_c, 4, 61, 97
1, 25584, Note_on_c, 9, 35, 97
1, 25584, Note_on_c, 9, 42, 78
1, 25585, Note_off_c, 9, 42, 64
1, 25585, Note_off_c, 9, 35, 64
1, 25625, Note_off_c, 1, 32, 64
1, 25629, Note_off_c, 3, 68, 64
1, 25631, Note_on_c, 9, 42, 44
1, 25632, Lyric_t, "it "
1, 25632, Note_on_c, 3, 69, 114
1, 25632, Note_off_c, 4, 61, 64
1, 25632, Note_off_c, 4, 64, 64
1, 25632, Note_off_c, 4, 56, 64
1, 25632, Note_on_c, 4, 66, 99
1, 25632, Note_on_c, 4, 62, 102
1, 25632, Note_on_c, 4, 57, 91
1, 25632, Note_off_c, 9, 42, 64
1, 25632, Note_on_c, 1, 37, 82
1, 25637, Note_off_c, 10, 64, 64
1, 25679, Note_off_c, 3, 69, 64
1, 25679, Note_on_c, 9, 42, 82
1, 25680, Note_off_c, 4, 57, 64
1, 25680, Note_off_c, 4, 62, 64
1, 25680, Note_off_c, 4, 66, 64
1, 25680, Note_on_c, 4, 59, 86
1, 25680, Note_on_c, 4, 68, 107
1, 25680, Note_on_c, 4, 64, 97
1, 25680, Note_off_c, 9, 42, 64
1, 25680, Note_on_c, 9, 38, 91
1, 25681, Note_off_c, 9, 38, 64
1, 25682, Lyric_t, "a"
1, 25682, Note_on_c, 3, 71, 118
1, 25724, Note_off_c, 3, 71, 64
1, 25727, Note_off_c, 4, 64, 64
1, 25727, Note_off_c, 4, 68, 64
1, 25727, Note_off_c, 4, 59, 64
1, 25728, Note_on_c, 4, 68, 107
1, 25728, Note_on_c, 4, 64, 100
1, 25728, Note_on_c, 4, 59, 90
1, 25728, Note_on_c, 9, 35, 59
1, 25728, Note_on_c, 9, 42, 33
1, 25728, Note_on_c, 1, 44, 74
1, 25729, Note_off_c, 9, 42, 64
1, 25729, Note_off_c, 9, 35, 64
1, 25729, Note_off_c, 1, 37, 64
1, 25732, Lyric_t, "part, "
1, 25732, Lyric_t, "\015"
1, 25732, Note_on_c, 3, 71, 125
1, 25758, Note_on_c, 10, 68, 75
1, 25768, Note_off_c, 6, 68, 64
1, 25768, Note_off_c, 6, 76, 64
1, 25771, Note_off_c, 6, 71, 64
1, 25771, Note_on_c, 6, 76, 62
1, 25772, Note_on_c, 6, 68, 51
1, 25773, Note_on_c, 6, 71, 58
1, 25774, Note_off_c, 0, 64, 64
1, 25774, Note_off_c, 0, 59, 64
1, 25774, Note_off_c, 0, 68, 64
1, 25775, Note_on_c, 0, 61, 78
1, 25775, Note_on_c, 0, 59, 76
1, 25775, Note_on_c, 0, 68, 74
1, 25775, Note_on_c, 0, 64, 78
1, 25776, Note_on_c, 9, 35, 93
1, 25776, Note_on_c, 9, 42, 79
1, 25777, Note_off_c, 9, 42, 64
1, 25777, Note_off_c, 9, 35, 64
1, 25779, Note_off_c, 0, 83, 64
1, 25779, Note_off_c, 0, 80, 64
1, 25779, Note_off_c, 0, 76, 64
1, 25803, Note_off_c, 10, 68, 64
1, 25811, Note_on_c, 10, 69, 72
1, 25822, Note_off_c, 1, 44, 64
1, 25824, Note_on_c, 1, 49, 79
1, 25825, Note_on_c, 9, 47, 81
1, 25825, Note_on_c, 9, 42, 33
1, 25826, Note_off_c, 9, 42, 64
1, 25826, Note_off_c, 9, 47, 64
1, 25842, Note_off_c, 10, 69, 64
1, 25849, Note_on_c, 10, 71, 81
1, 25872, Note_on_c, 9, 38, 91
1, 25873, Note_off_c, 9, 38, 64
1, 25873, Note_on_c, 9, 42, 78
1, 25874, Note_off_c, 9, 42, 64
1, 25883, Note_off_c, 10, 71, 64
1, 25889, Note_on_c, 10, 71, 69
1, 25920, Note_on_c, 9, 42, 36
1, 25920, Note_on_c, 1, 44, 73
1, 25921, Note_off_c, 9, 42, 64
1, 25922, Note_off_c, 1, 49, 64
1, 25944, Note_off_c, 3, 71, 64
1, 25944, Note_off_c, 4, 59, 64
1, 25944, Note_off_c, 4, 64, 64
1, 25944, Note_off_c, 4, 68, 64
1, 25968, Lyric_t, "leav"
1, 25968, Note_on_c, 3, 68, 124
1, 25968, Note_on_c, 4, 64, 98
1, 25968, Note_on_c, 4, 56, 91
1, 25968, Note_on_c, 4, 61, 104
1, 25968, Note_on_c, 9, 35, 80
1, 25968, Note_on_c, 9, 42, 72
1, 25969, Note_off_c, 9, 42, 64
1, 25969, Note_off_c, 9, 35, 64
1, 26003, Note_off_c, 10, 71, 64
1, 26010, Note_off_c, 1, 44, 64
1, 26015, Note_on_c, 9, 42, 44
1, 26016, Note_off_c, 3, 68, 64
1, 26016, Note_off_c, 4, 61, 64
1, 26016, Note_off_c, 4, 56, 64
1, 26016, Note_off_c, 4, 64, 64
1, 26016, Note_on_c, 4, 62, 100
1, 26016, Note_on_c, 4, 57, 94
1, 26016, Note_on_c, 4, 66, 99
1, 26016, Note_off_c, 9, 42, 64
1, 26016, Note_on_c, 9, 35, 82
1, 26016, Note_on_c, 1, 37, 91
1, 26017, Note_off_c, 9, 35, 64
1, 26018, Lyric_t, "ing "
1, 26018, Note_on_c, 3, 69, 114
1, 26038, Note_on_c, 10, 68, 66
1, 26063, Note_on_c, 9, 42, 78
1, 26064, Lyric_t, "me "
1, 26064, Note_on_c, 3, 71, 93
1, 26064, Note_off_c, 4, 66, 64
1, 26064, Note_off_c, 4, 57, 64
1, 26064, Note_off_c, 4, 62, 64
1, 26064, Note_on_c, 4, 59, 94
1, 26064, Note_on_c, 4, 68, 107
1, 26064, Note_on_c, 4, 64, 94
1, 26064, Note_off_c, 9, 42, 64
1, 26064, Note_on_c, 9, 38, 97
1, 26065, Note_off_c, 9, 38, 64
1, 26069, Note_off_c, 3, 69, 64
1, 26069, Note_off_c, 10, 68, 64
1, 26074, Note_on_c, 10, 69, 45
1, 26106, Note_off_c, 3, 71, 64
1, 26107, Note_off_c, 10, 69, 64
1, 26110, Note_on_c, 10, 71, 79
1, 26112, Lyric_t, "pain "
1, 26112, Note_on_c, 3, 70, 104
1, 26112, Note_off_c, 4, 64, 64
1, 26112, Note_off_c, 4, 68, 64
1, 26112, Note_off_c, 4, 59, 64
1, 26112, Note_on_c, 4, 58, 84
1, 26112, Note_on_c, 4, 61, 93
1, 26112, Note_on_c, 4, 66, 97
1, 26112, Note_on_c, 9, 35, 59
1, 26112, Note_on_c, 9, 42, 51
1, 26113, Note_off_c, 9, 42, 64
1, 26113, Note_off_c, 9, 35, 64
1, 26152, Note_off_c, 1, 37, 64
1, 26154, Note_off_c, 6, 76, 64
1, 26155, Note_off_c, 6, 68, 64
1, 26156, Note_off_c, 6, 71, 64
1, 26156, Note_on_c, 6, 78, 54
1, 26157, Note_off_c, 10, 71, 64
1, 26157, Note_on_c, 6, 76, 54
1, 26157, Note_on_c, 6, 70, 47
1, 26157, Note_on_c, 6, 73, 47
1, 26158, Note_off_c, 0, 59, 64
1, 26158, Note_off_c, 0, 61, 64
1, 26158, Note_off_c, 0, 68, 64
1, 26158, Note_off_c, 0, 64, 64
1, 26160, Note_on_c, 9, 35, 90
1, 26160, Note_on_c, 9, 42, 72
1, 26160, Note_on_c, 1, 30, 87
1, 26161, Note_off_c, 9, 42, 64
1, 26161, Note_off_c, 9, 35, 64
1, 26163, Note_on_c, 0, 66, 82
1, 26163, Note_on_c, 0, 58, 81
1, 26163, Note_on_c, 0, 61, 67
1, 26163, Note_on_c, 0, 64, 77
1, 26165, Note_on_c, 10, 70, 70
1, 26207, Note_on_c, 9, 42, 45
1, 26208, Note_off_c, 9, 42, 64
1, 26209, Note_on_c, 9, 47, 77
1, 26210, Note_off_c, 9, 47, 64
1, 26231, Note_off_c, 3, 70, 64
1, 26245, Note_off_c, 1, 30, 64
1, 26249, Note_off_c, 10, 70, 64
1, 26255, Note_off_c, 4, 66, 64
1, 26255, Note_off_c, 4, 61, 64
1, 26255, Note_off_c, 4, 58, 64
1, 26255, Note_on_c, 9, 42, 75
1, 26256, Lyric_t, "and "
1, 26256, Note_on_c, 3, 70, 124
1, 26256, Note_on_c, 4, 61, 93
1, 26256, Note_on_c, 4, 66, 97
1, 26256, Note_on_c, 4, 58, 81
1, 26256, Note_off_c, 9, 42, 64
1, 26256, Note_on_c, 1, 30, 82
1, 26257, Note_on_c, 9, 43, 87
1, 26258, Note_off_c, 9, 43, 64
1, 26260, Note_on_c, 10, 70, 50
1, 26296, Note_off_c, 10, 70, 64
1, 26302, Lyric_t, "sor"
1, 26302, Note_on_c, 3, 71, 123
1, 26303, Note_off_c, 3, 70, 64
1, 26304, Note_off_c, 4, 58, 64
1, 26304, Note_off_c, 4, 66, 64
1, 26304, Note_off_c, 4, 61, 64
1, 26304, Note_on_c, 4, 68, 99
1, 26304, Note_on_c, 4, 64, 100
1, 26304, Note_on_c, 4, 59, 86
1, 26304, Note_on_c, 9, 35, 55
1, 26304, Note_on_c, 9, 44, 63
1, 26305, Note_off_c, 9, 44, 64
1, 26305, Note_off_c, 9, 35, 64
1, 26305, Note_on_c, 10, 71, 81
1, 26329, Note_on_c, 9, 47, 78
1, 26330, Note_off_c, 9, 47, 64
1, 26331, Note_off_c, 1, 30, 64
1, 26352, Note_on_c, 9, 35, 87
1, 26352, Note_on_c, 9, 44, 78
1, 26352, Note_on_c, 1, 30, 89
1, 26353, Note_off_c, 9, 44, 64
1, 26353, Note_off_c, 9, 35, 64
1, 26353, Note_on_c, 9, 47, 111
1, 26354, Note_off_c, 9, 47, 64
1, 26362, Note_off_c, 1, 30, 64
1, 26391, Note_off_c, 3, 71, 64
1, 26392, Note_off_c, 10, 71, 64
1, 26393, Lyric_t, "row? "
1, 26393, Lyric_t, "\015"
1, 26393, Note_on_c, 3, 73, 121
1, 26399, Note_on_c, 9, 43, 72
1, 26400, Note_off_c, 4, 59, 64
1, 26400, Note_off_c, 4, 64, 64
1, 26400, Note_off_c, 4, 68, 64
1, 26400, Note_on_c, 4, 70, 101
1, 26400, Note_on_c, 4, 66, 89
1, 26400, Note_on_c, 4, 61, 89
1, 26400, Note_off_c, 9, 43, 64
1, 26400, Note_on_c, 1, 30, 93
1, 26401, Note_on_c, 10, 73, 79
1, 26442, Lyric_t, "\012"
1, 26447, Note_on_c, 9, 45, 107
1, 26448, Note_off_c, 9, 45, 64
1, 26448, Note_on_c, 9, 44, 88
1, 26449, Note_off_c, 9, 44, 64
1, 26465, Note_off_c, 1, 30, 64
1, 26471, Note_on_c, 9, 45, 79
1, 26472, Note_off_c, 9, 45, 64
1, 26495, Note_on_c, 9, 41, 68
1, 26496, Note_off_c, 9, 41, 64
1, 26496, Note_on_c, 9, 44, 79
1, 26496, Note_on_c, 1, 42, 101
1, 26497, Note_off_c, 9, 44, 64
1, 26518, Note_off_c, 1, 42, 64
1, 26518, Note_off_c, 10, 73, 64
1, 26520, Note_on_c, 1, 40, 88
1, 26527, Note_off_c, 0, 61, 64
1, 26528, Note_off_c, 0, 64, 64
1, 26531, Note_off_c, 0, 58, 64
1, 26533, Note_off_c, 0, 66, 64
1, 26535, Note_off_c, 3, 73, 64
1, 26536, Note_off_c, 1, 40, 64
1, 26537, Note_off_c, 6, 73, 64
1, 26539, Note_off_c, 6, 78, 64
1, 26540, Lyric_t, "(Boy) "
1, 26540, Note_off_c, 6, 70, 64
1, 26540, Note_off_c, 6, 76, 64
1, 26540, Note_on_c, 6, 69, 60
1, 26541, Note_on_c, 6, 73, 60
1, 26541, Note_on_c, 6, 78, 59
1, 26544, Note_off_c, 4, 61, 64
1, 26544, Note_off_c, 4, 66, 64
1, 26544, Note_off_c, 4, 70, 64
1, 26544, Note_on_c, 9, 35, 97
1, 26544, Note_on_c, 1, 38, 98
1, 26545, Note_off_c, 9, 35, 64
1, 26545, Note_on_c, 9, 49, 54
1, 26546, Note_off_c, 9, 49, 64
1, 26548, Note_on_c, 0, 78, 67
1, 26548, Note_on_c, 0, 76, 73
1, 26548, Note_on_c, 0, 73, 67
1, 26548, Note_on_c, 0, 69, 62
1, 26549, Note_on_c, 10, 73, 75
1, 26592, Note_on_c, 4, 61, 84
1, 26592, Note_on_c, 4, 66, 87
1, 26592, Note_on_c, 4, 69, 98
1, 26593, Note_on_c, 9, 42, 58
1, 26594, Note_off_c, 9, 42, 64
1, 26597, Lyric_t, "\226 Ah, "
1, 26597, Note_on_c, 3, 73, 118
1, 26640, Note_on_c, 9, 38, 96
1, 26640, Note_on_c, 9, 42, 94
1, 26641, Note_off_c, 9, 42, 64
1, 26641, Note_off_c, 9, 38, 64
1, 26644, Note_off_c, 3, 73, 64
1, 26687, Note_on_c, 9, 42, 51
1, 26688, Note_off_c, 9, 42, 64
1, 26735, Note_off_c, 4, 69, 64
1, 26735, Note_off_c, 4, 66, 64
1, 26735, Note_off_c, 4, 61, 64
1, 26736, Note_on_c, 4, 66, 97
1, 26736, Note_on_c, 4, 69, 88
1, 26736, Note_on_c, 4, 61, 91
1, 26736, Note_on_c, 9, 35, 91
1, 26736, Note_on_c, 9, 42, 82
1, 26737, Note_off_c, 9, 42, 64
1, 26737, Note_off_c, 9, 35, 64
1, 26739, Lyric_t, "los"
1, 26739, Note_on_c, 3, 73, 125
1, 26746, Note_off_c, 10, 73, 64
1, 26759, Note_off_c, 1, 38, 64
1, 26768, Note_on_c, 10, 73, 73
1, 26781, Note_off_c, 3, 73, 64
1, 26783, Note_off_c, 4, 61, 64
1, 26783, Note_off_c, 4, 69, 64
1, 26783, Note_off_c, 4, 66, 64
1, 26783, Note_on_c, 9, 42, 41
1, 26784, Note_on_c, 4, 69, 90
1, 26784, Note_on_c, 4, 66, 85
1, 26784, Note_on_c, 4, 61, 89
1, 26784, Note_off_c, 9, 42, 64
1, 26784, Note_on_c, 1, 38, 83
1, 26785, Lyric_t, "ing "
1, 26785, Note_on_c, 3, 73, 124
1, 26796, Note_off_c, 10, 73, 64
1, 26798, Pitch_bend_c, 10, 8894
1, 26800, Pitch_bend_c, 10, 9830
1, 26802, Pitch_bend_c, 10, 10532
1, 26805, Pitch_bend_c, 10, 11234
1, 26806, Pitch_bend_c, 10, 11819
1, 26808, Pitch_bend_c, 10, 12170
1, 26810, Pitch_bend_c, 10, 12521
1, 26812, Note_on_c, 10, 73, 82
1, 26813, Pitch_bend_c, 10, 12755
1, 26814, Pitch_bend_c, 10, 12989
1, 26831, Pitch_bend_c, 10, 12755
1, 26832, Note_on_c, 9, 38, 95
1, 26832, Note_on_c, 9, 42, 84
1, 26832, Pitch_bend_c, 10, 12521
1, 26833, Note_off_c, 9, 42, 64
1, 26833, Note_off_c, 9, 38, 64
1, 26836, Pitch_bend_c, 10, 12170
1, 26837, Pitch_bend_c, 10, 11702
1, 26839, Pitch_bend_c, 10, 11234
1, 26841, Pitch_bend_c, 10, 10766
1, 26843, Pitch_bend_c, 10, 10415
1, 26846, Pitch_bend_c, 10, 9830
1, 26848, Pitch_bend_c, 10, 9245
1, 26849, Pitch_bend_c, 10, 8660
1, 26852, Pitch_bend_c, 10, 8192
1, 26856, Note_off_c, 3, 73, 64
1, 26863, Note_off_c, 1, 38, 64
1, 26879, Note_on_c, 9, 42, 54
1, 26880, Note_off_c, 4, 61, 64
1, 26880, Note_off_c, 4, 66, 64
1, 26880, Note_off_c, 4, 69, 64
1, 26880, Note_on_c, 4, 68, 85
1, 26880, Note_on_c, 4, 64, 91
1, 26880, Note_on_c, 4, 59, 85
1, 26880, Note_off_c, 9, 42, 64
1, 26880, Note_on_c, 1, 38, 76
1, 26882, Lyric_t, "you "
1, 26882, Note_on_c, 3, 71, 116
1, 26905, Note_off_c, 10, 73, 64
1, 26905, Note_on_c, 10, 71, 70
1, 26918, Note_off_c, 1, 38, 64
1, 26921, Note_off_c, 6, 73, 64
1, 26921, Note_off_c, 6, 69, 64
1, 26921, Note_on_c, 6, 68, 65
1, 26924, Note_on_c, 6, 71, 65
1, 26927, Note_off_c, 3, 71, 64
1, 26928, Note_on_c, 9, 35, 93
1, 26928, Note_on_c, 9, 42, 85
1, 26928, Note_on_c, 1, 37, 87
1, 26929, Note_off_c, 9, 42, 64
1, 26929, Note_off_c, 9, 35, 64
1, 26930, Lyric_t, "now, "
1, 26930, Note_on_c, 3, 71, 116
1, 26930, Note_off_c, 0, 73, 64
1, 26931, Note_on_c, 0, 68, 64
1, 26931, Note_on_c, 0, 73, 59
1, 26932, Note_off_c, 0, 76, 64
1, 26933, Note_on_c, 0, 71, 70
1, 26933, Note_on_c, 0, 76, 70
1, 26937, Note_off_c, 0, 69, 64
1, 26937, Note_off_c, 0, 78, 64
1, 26944, Note_off_c, 10, 71, 64
1, 26958, Note_on_c, 10, 71, 72
1, 26976, Note_on_c, 9, 42, 46
1, 26977, Note_off_c, 9, 42, 64
1, 27020, Note_off_c, 6, 78, 64
1, 27023, Note_on_c, 9, 42, 86
1, 27024, Note_off_c, 9, 42, 64
1, 27024, Note_on_c, 9, 38, 95
1, 27024, Note_on_c, 6, 80, 63
1, 27025, Note_off_c, 9, 38, 64
1, 27042, Note_off_c, 3, 71, 64
1, 27071, Note_on_c, 9, 42, 50
1, 27072, Note_off_c, 9, 42, 64
1, 27096, Note_off_c, 4, 59, 64
1, 27096, Note_off_c, 4, 64, 64
1, 27096, Note_off_c, 4, 68, 64
1, 27116, Note_on_c, 6, 76, 63
1, 27118, Lyric_t, "won"
1, 27118, Note_on_c, 3, 68, 127
1, 27119, Note_off_c, 6, 80, 64
1, 27120, Note_on_c, 4, 56, 79
1, 27120, Note_on_c, 4, 61, 97
1, 27120, Note_on_c, 4, 64, 85
1, 27120, Note_on_c, 9, 35, 101
1, 27120, Note_on_c, 9, 42, 78
1, 27121, Note_off_c, 9, 42, 64
1, 27121, Note_off_c, 9, 35, 64
1, 27123, Note_off_c, 10, 71, 64
1, 27143, Note_off_c, 1, 37, 64
1, 27165, Note_off_c, 3, 68, 64
1, 27167, Note_on_c, 9, 42, 44
1, 27168, Lyric_t, "der"
1, 27168, Note_on_c, 3, 69, 114
1, 27168, Note_off_c, 4, 64, 64
1, 27168, Note_off_c, 4, 61, 64
1, 27168, Note_off_c, 4, 56, 64
1, 27168, Note_on_c, 4, 66, 93
1, 27168, Note_on_c, 4, 62, 97
1, 27168, Note_on_c, 4, 57, 88
1, 27168, Note_off_c, 9, 42, 64
1, 27168, Note_on_c, 1, 32, 93
1, 27215, Note_off_c, 3, 69, 64
1, 27215, Note_on_c, 9, 42, 82
1, 27216, Note_off_c, 4, 57, 64
1, 27216, Note_off_c, 4, 62, 64
1, 27216, Note_off_c, 4, 66, 64
1, 27216, Note_on_c, 4, 64, 88
1, 27216, Note_on_c, 4, 59, 81
1, 27216, Note_on_c, 4, 68, 99
1, 27216, Note_off_c, 9, 42, 64
1, 27216, Note_on_c, 9, 38, 90
1, 27217, Note_off_c, 9, 38, 64
1, 27218, Lyric_t, "ing "
1, 27218, Note_on_c, 3, 71, 118
1, 27253, Note_off_c, 1, 32, 64
1, 27260, Note_off_c, 3, 71, 64
1, 27263, Note_off_c, 4, 68, 64
1, 27263, Note_off_c, 4, 59, 64
1, 27263, Note_off_c, 4, 64, 64
1, 27264, Note_on_c, 4, 64, 83
1, 27264, Note_on_c, 4, 59, 88
1, 27264, Note_on_c, 4, 68, 97
1, 27264, Note_on_c, 9, 42, 33
1, 27264, Note_on_c, 1, 37, 84
1, 27265, Note_off_c, 9, 42, 64
1, 27268, Lyric_t, "why, "
1, 27268, Lyric_t, "\015"
1, 27268, Note_on_c, 3, 71, 125
1, 27302, Note_off_c, 6, 76, 64
1, 27304, Note_off_c, 6, 68, 64
1, 27307, Note_off_c, 6, 71, 64
1, 27307, Note_on_c, 6, 76, 62
1, 27308, Note_on_c, 6, 68, 51
1, 27309, Note_on_c, 6, 71, 58
1, 27312, Note_on_c, 9, 35, 105
1, 27312, Note_on_c, 9, 42, 79
1, 27313, Note_off_c, 9, 42, 64
1, 27313, Note_off_c, 9, 35, 64
1, 27315, Note_off_c, 0, 73, 64
1, 27315, Note_off_c, 0, 76, 64
1, 27315, Note_on_c, 0, 80, 73
1, 27316, Note_on_c, 0, 73, 67
1, 27316, Note_on_c, 0, 83, 68
1, 27316, Note_on_c, 0, 76, 73
1, 27327, Note_off_c, 0, 68, 64
1, 27327, Note_off_c, 0, 71, 64
1, 27351, Note_off_c, 1, 37, 64
1, 27360, Note_on_c, 1, 44, 73
1, 27361, Note_on_c, 9, 42, 33
1, 27362, Note_off_c, 9, 42, 64
1, 27384, Note_on_c, 9, 38, 64
1, 27385, Note_off_c, 9, 38, 64
1, 27408, Note_on_c, 9, 38, 96
1, 27409, Note_off_c, 9, 38, 64
1, 27409, Note_on_c, 9, 42, 58
1, 27410, Note_off_c, 9, 42, 64
1, 27448, Note_off_c, 1, 44, 64
1, 27455, Note_on_c, 9, 47, 85
1, 27456, Note_off_c, 9, 47, 64
1, 27456, Note_on_c, 9, 42, 36
1, 27456, Note_on_c, 1, 49, 72
1, 27457, Note_off_c, 9, 42, 64
1, 27480, Note_off_c, 3, 71, 64
1, 27480, Note_off_c, 4, 68, 64
1, 27480, Note_off_c, 4, 59, 64
1, 27480, Note_off_c, 4, 64, 64
1, 27501, Note_on_c, 10, 68, 73
1, 27504, Lyric_t, "where "
1, 27504, Note_on_c, 3, 68, 124
1, 27504, Note_on_c, 4, 61, 104
1, 27504, Note_on_c, 4, 64, 95
1, 27504, Note_on_c, 4, 56, 84
1, 27504, Note_on_c, 9, 35, 100
1, 27504, Note_on_c, 9, 42, 72
1, 27505, Note_off_c, 9, 42, 64
1, 27505, Note_off_c, 9, 35, 64
1, 27548, Note_off_c, 1, 49, 64
1, 27549, Note_off_c, 10, 68, 64
1, 27551, Note_on_c, 9, 42, 44
1, 27552, Note_off_c, 3, 68, 64
1, 27552, Note_off_c, 4, 56, 64
1, 27552, Note_off_c, 4, 64, 64
1, 27552, Note_off_c, 4, 61, 64
1, 27552, Note_on_c, 4, 57, 88
1, 27552, Note_on_c, 4, 66, 95
1, 27552, Note_on_c, 4, 62, 94
1, 27552, Note_off_c, 9, 42, 64
1, 27552, Note_on_c, 1, 44, 84
1, 27554, Lyric_t, "will "
1, 27554, Note_on_c, 3, 69, 114
1, 27555, Note_on_c, 10, 69, 78
1, 27598, Note_off_c, 10, 69, 64
1, 27599, Note_on_c, 9, 42, 78
1, 27600, Lyric_t, "I "
1, 27600, Note_on_c, 3, 71, 93
1, 27600, Note_off_c, 4, 62, 64
1, 27600, Note_off_c, 4, 66, 64
1, 27600, Note_off_c, 4, 57, 64
1, 27600, Note_on_c, 4, 59, 90
1, 27600, Note_on_c, 4, 64, 88
1, 27600, Note_on_c, 4, 68, 89
1, 27600, Note_off_c, 9, 42, 64
1, 27600, Note_on_c, 9, 38, 94
1, 27601, Note_off_c, 9, 38, 64
1, 27602, Note_on_c, 10, 71, 75
1, 27605, Note_off_c, 3, 69, 64
1, 27619, Note_off_c, 1, 44, 64
1, 27642, Note_off_c, 3, 71, 64
1, 27645, Note_off_c, 10, 71, 64
1, 27647, Note_on_c, 9, 42, 51
1, 27648, Lyric_t, "be "
1, 27648, Note_on_c, 3, 70, 104
1, 27648, Note_off_c, 4, 68, 64
1, 27648, Note_off_c, 4, 64, 64
1, 27648, Note_off_c, 4, 59, 64
1, 27648, Note_on_c, 4, 58, 75
1, 27648, Note_on_c, 4, 66, 89
1, 27648, Note_on_c, 4, 61, 91
1, 27648, Note_off_c, 9, 42, 64
1, 27648, Note_on_c, 1, 37, 70
1, 27650, Note_on_c, 10, 70, 72
1, 27686, Note_off_c, 1, 37, 64
1, 27690, Note_off_c, 6, 76, 64
1, 27691, Note_off_c, 6, 68, 64
1, 27692, Note_off_c, 6, 71, 64
1, 27693, Note_on_c, 6, 78, 63
1, 27693, Note_on_c, 6, 70, 47
1, 27693, Note_on_c, 6, 73, 47
1, 27693, Note_on_c, 6, 76, 54
1, 27695, Note_on_c, 9, 42, 72
1, 27696, Note_off_c, 9, 42, 64
1, 27696, Note_on_c, 9, 35, 102
1, 27696, Note_on_c, 1, 30, 96
1, 27697, Note_off_c, 9, 35, 64
1, 27698, Note_off_c, 0, 73, 64
1, 27699, Note_off_c, 0, 76, 64
1, 27699, Note_on_c, 0, 70, 58
1, 27699, Note_on_c, 0, 78, 62
1, 27699, Note_on_c, 0, 73, 65
1, 27700, Note_on_c, 0, 76, 77
1, 27718, Note_off_c, 0, 80, 64
1, 27718, Note_off_c, 0, 83, 64
1, 27719, Note_on_c, 9, 48, 75
1, 27720, Note_off_c, 9, 48, 64
1, 27743, Note_on_c, 9, 48, 114
1, 27744, Note_off_c, 9, 48, 64
1, 27767, Note_off_c, 3, 70, 64
1, 27774, Note_off_c, 10, 70, 64
1, 27789, Note_on_c, 10, 70, 70
1, 27791, Note_off_c, 4, 61, 64
1, 27791, Note_off_c, 4, 66, 64
1, 27791, Note_off_c, 4, 58, 64
1, 27791, Note_on_c, 9, 47, 62
1, 27792, Lyric_t, "to"
1, 27792, Note_on_c, 3, 70, 124
1, 27792, Note_on_c, 4, 66, 97
1, 27792, Note_on_c, 4, 58, 77
1, 27792, Note_on_c, 4, 61, 91
1, 27792, Note_off_c, 9, 47, 64
1, 27792, Note_on_c, 9, 44, 82
1, 27793, Note_off_c, 9, 44, 64
1, 27815, Note_on_c, 9, 47, 77
1, 27816, Note_off_c, 9, 47, 64
1, 27835, Note_off_c, 10, 70, 64
1, 27838, Lyric_t, "mor"
1, 27838, Note_on_c, 3, 71, 123
1, 27839, Note_off_c, 3, 70, 64
1, 27839, Note_on_c, 10, 71, 80
1, 27840, Note_off_c, 4, 61, 64
1, 27840, Note_off_c, 4, 58, 64
1, 27840, Note_off_c, 4, 66, 64
1, 27840, Note_on_c, 4, 59, 83
1, 27840, Note_on_c, 4, 68, 95
1, 27840, Note_on_c, 4, 64, 97
1, 27841, Note_on_c, 9, 47, 113
1, 27842, Note_off_c, 9, 47, 64
1, 27856, Note_off_c, 1, 30, 64
1, 27887, Note_on_c, 9, 44, 84
1, 27888, Note_off_c, 9, 44, 64
1, 27888, Note_on_c, 1, 30, 97
1, 27904, Note_off_c, 1, 30, 64
1, 27911, Note_on_c, 9, 43, 50
1, 27912, Note_off_c, 9, 43, 64
1, 27912, Note_on_c, 9, 45, 50
1, 27912, Note_on_c, 1, 30, 84
1, 27913, Note_off_c, 9, 45, 64
1, 27925, Note_off_c, 1, 30, 64
1, 27927, Note_off_c, 3, 71, 64
1, 27929, Lyric_t, "row. "
1, 27929, Lyric_t, "\015"
1, 27929, Note_on_c, 3, 73, 121
1, 27933, Note_off_c, 10, 71, 64
1, 27936, Note_off_c, 4, 64, 64
1, 27936, Note_off_c, 4, 68, 64
1, 27936, Note_off_c, 4, 59, 64
1, 27936, Note_on_c, 4, 61, 84
1, 27936, Note_on_c, 4, 70, 104
1, 27936, Note_on_c, 4, 66, 99
1, 27936, Note_on_c, 1, 30, 106
1, 27937, Note_on_c, 9, 43, 75
1, 27937, Note_on_c, 9, 45, 71
1, 27938, Note_off_c, 9, 45, 64
1, 27938, Note_off_c, 9, 43, 64
1, 27939, Note_on_c, 10, 73, 79
1, 27959, Note_on_c, 9, 43, 85
1, 27960, Note_off_c, 9, 43, 64
1, 27961, Note_on_c, 9, 45, 80
1, 27962, Note_off_c, 9, 45, 64
1, 27984, Note_on_c, 9, 44, 83
1, 27985, Note_off_c, 9, 44, 64
1, 27985, Note_on_c, 9, 45, 112
1, 27985, Note_on_c, 9, 43, 122
1, 27986, Note_off_c, 9, 43, 64
1, 27986, Note_off_c, 9, 45, 64
1, 27997, Lyric_t, "\012"
1, 27998, Note_off_c, 1, 30, 64
1, 28031, Note_on_c, 9, 43, 93
1, 28031, Note_on_c, 9, 41, 93
1, 28032, Note_off_c, 9, 41, 64
1, 28032, Note_off_c, 9, 43, 64
1, 28032, Note_on_c, 1, 42, 99
1, 28050, Note_off_c, 1, 42, 64
1, 28056, Note_on_c, 1, 40, 98
1, 28071, Note_off_c, 3, 73, 64
1, 28072, Note_off_c, 6, 76, 64
1, 28072, Note_off_c, 6, 78, 64
1, 28072, Note_off_c, 6, 70, 64
1, 28072, Note_off_c, 6, 73, 64
1, 28073, Note_off_c, 0, 76, 64
1, 28074, Note_off_c, 0, 73, 64
1, 28077, Note_on_c, 6, 69, 60
1, 28077, Note_on_c, 6, 73, 60
1, 28077, Note_on_c, 6, 78, 59
1, 28079, Note_off_c, 0, 70, 64
1, 28079, Note_off_c, 0, 78, 64
1, 28080, Note_off_c, 4, 66, 64
1, 28080, Note_off_c, 4, 70, 64
1, 28080, Note_off_c, 4, 61, 64
1, 28080, Note_on_c, 9, 35, 104
1, 28080, Note_on_c, 1, 38, 102
1, 28081, Note_off_c, 9, 35, 64
1, 28081, Note_on_c, 9, 49, 77
1, 28081, Note_off_c, 1, 40, 64
1, 28082, Note_off_c, 9, 49, 64
1, 28084, Note_on_c, 0, 78, 67
1, 28084, Note_on_c, 0, 73, 67
1, 28084, Note_on_c, 0, 81, 68
1, 28084, Note_on_c, 0, 76, 68
1, 28128, Note_on_c, 4, 61, 99
1, 28128, Note_on_c, 4, 66, 99
1, 28128, Note_on_c, 4, 69, 98
1, 28129, Note_on_c, 9, 42, 58
1, 28130, Note_off_c, 9, 42, 64
1, 28133, Lyric_t, "What, "
1, 28133, Note_on_c, 3, 73, 118
1, 28176, Note_on_c, 9, 38, 96
1, 28176, Note_on_c, 9, 42, 94
1, 28177, Note_off_c, 9, 42, 64
1, 28177, Note_off_c, 9, 38, 64
1, 28180, Note_off_c, 3, 73, 64
1, 28223, Note_on_c, 9, 42, 51
1, 28224, Note_off_c, 9, 42, 64
1, 28271, Note_off_c, 4, 69, 64
1, 28271, Note_off_c, 4, 66, 64
1, 28271, Note_off_c, 4, 61, 64
1, 28272, Note_on_c, 4, 69, 92
1, 28272, Note_on_c, 4, 61, 84
1, 28272, Note_on_c, 4, 66, 99
1, 28272, Note_on_c, 9, 35, 102
1, 28272, Note_on_c, 9, 42, 82
1, 28273, Note_off_c, 9, 42, 64
1, 28273, Note_off_c, 9, 35, 64
1, 28274, Note_off_c, 10, 73, 64
1, 28275, Lyric_t, "what "
1, 28275, Note_on_c, 3, 73, 127
1, 28283, Note_off_c, 1, 38, 64
1, 28308, Note_on_c, 10, 73, 79
1, 28317, Note_off_c, 3, 73, 64
1, 28319, Note_off_c, 4, 66, 64
1, 28319, Note_off_c, 4, 61, 64
1, 28319, Note_off_c, 4, 69, 64
1, 28319, Note_on_c, 9, 42, 41
1, 28320, Note_on_c, 4, 69, 87
1, 28320, Note_on_c, 4, 61, 87
1, 28320, Note_on_c, 4, 66, 91
1, 28320, Note_off_c, 9, 42, 64
1, 28320, Note_on_c, 1, 38, 95
1, 28321, Lyric_t, "kind "
1, 28321, Note_on_c, 3, 73, 124
1, 28324, Note_off_c, 0, 78, 64
1, 28325, Note_on_c, 0, 78, 73
1, 28342, Note_off_c, 10, 73, 64
1, 28346, Pitch_bend_c, 10, 8660
1, 28348, Pitch_bend_c, 10, 9362
1, 28350, Pitch_bend_c, 10, 10298
1, 28352, Pitch_bend_c, 10, 11234
1, 28355, Pitch_bend_c, 10, 11936
1, 28356, Pitch_bend_c, 10, 12287
1, 28359, Pitch_bend_c, 10, 12638
1, 28361, Pitch_bend_c, 10, 12755
1, 28366, Lyric_t, "of "
1, 28366, Note_off_c, 3, 73, 64
1, 28366, Note_on_c, 3, 71, 116
1, 28367, Note_on_c, 10, 73, 79
1, 28368, Note_off_c, 4, 66, 64
1, 28368, Note_off_c, 4, 61, 64
1, 28368, Note_off_c, 4, 69, 64
1, 28368, Note_on_c, 4, 64, 85
1, 28368, Note_on_c, 4, 68, 95
1, 28368, Note_on_c, 4, 59, 83
1, 28368, Note_on_c, 9, 38, 90
1, 28368, Note_on_c, 9, 42, 84
1, 28369, Note_off_c, 9, 42, 64
1, 28369, Note_off_c, 9, 38, 64
1, 28371, Note_off_c, 0, 73, 64
1, 28372, Note_on_c, 0, 73, 74
1, 28377, Pitch_bend_c, 10, 12521
1, 28381, Pitch_bend_c, 10, 12287
1, 28383, Pitch_bend_c, 10, 12053
1, 28385, Pitch_bend_c, 10, 11702
1, 28388, Pitch_bend_c, 10, 11117
1, 28389, Pitch_bend_c, 10, 10532
1, 28392, Note_off_c, 1, 38, 64
1, 28392, Pitch_bend_c, 10, 10181
1, 28394, Pitch_bend_c, 10, 9830
1, 28402, Pitch_bend_c, 10, 9596
1, 28404, Pitch_bend_c, 10, 9362
1, 28407, Pitch_bend_c, 10, 9011
1, 28409, Pitch_bend_c, 10, 8192
1, 28412, Note_off_c, 3, 71, 64
1, 28415, Note_off_c, 4, 59, 64
1, 28415, Note_off_c, 4, 68, 64
1, 28415, Note_off_c, 4, 64, 64
1, 28415, Note_on_c, 1, 38, 90
1, 28416, Note_on_c, 4, 64, 90
1, 28416, Note_on_c, 4, 68, 104
1, 28416, Note_on_c, 4, 59, 80
1, 28416, Note_on_c, 9, 35, 76
1, 28416, Note_on_c, 9, 42, 54
1, 28417, Note_off_c, 9, 42, 64
1, 28417, Note_off_c, 9, 35, 64
1, 28418, Lyric_t, "fool "
1, 28418, Note_on_c, 3, 71, 116
1, 28447, Note_off_c, 10, 73, 64
1, 28450, Note_on_c, 10, 71, 66
1, 28455, Note_off_c, 6, 78, 64
1, 28457, Note_off_c, 1, 38, 64
1, 28457, Note_off_c, 6, 73, 64
1, 28457, Note_on_c, 6, 76, 63
1, 28457, Note_on_c, 6, 68, 65
1, 28458, Note_off_c, 6, 69, 64
1, 28460, Note_on_c, 6, 71, 65
1, 28464, Note_on_c, 9, 35, 101
1, 28464, Note_on_c, 9, 42, 85
1, 28464, Note_on_c, 1, 37, 97
1, 28465, Note_off_c, 9, 42, 64
1, 28465, Note_off_c, 9, 35, 64
1, 28467, Note_on_c, 0, 68, 68
1, 28467, Note_on_c, 0, 61, 63
1, 28467, Note_on_c, 0, 71, 73
1, 28467, Note_on_c, 0, 64, 73
1, 28469, Note_off_c, 0, 73, 64
1, 28469, Note_off_c, 0, 76, 64
1, 28469, Note_off_c, 0, 78, 64
1, 28469, Note_off_c, 0, 81, 64
1, 28485, Note_off_c, 10, 71, 64
1, 28502, Note_on_c, 10, 71, 69
1, 28512, Note_on_c, 9, 42, 46
1, 28513, Note_off_c, 9, 42, 64
1, 28559, Note_on_c, 9, 42, 86
1, 28560, Note_off_c, 9, 42, 64
1, 28560, Note_on_c, 9, 38, 95
1, 28561, Note_off_c, 9, 38, 64
1, 28607, Note_on_c, 9, 42, 50
1, 28608, Note_off_c, 9, 42, 64
1, 28621, Note_off_c, 10, 71, 64
1, 28624, Note_off_c, 1, 37, 64
1, 28626, Note_off_c, 3, 71, 64
1, 28632, Note_off_c, 4, 59, 64
1, 28632, Note_off_c, 4, 68, 64
1, 28632, Note_off_c, 4, 64, 64
1, 28654, Lyric_t, "tears "
1, 28654, Note_on_c, 3, 68, 127
1, 28655, Note_on_c, 1, 32, 82
1, 28656, Note_on_c, 4, 56, 85
1, 28656, Note_on_c, 4, 64, 100
1, 28656, Note_on_c, 4, 61, 97
1, 28656, Note_on_c, 9, 35, 94
1, 28656, Note_on_c, 9, 42, 78
1, 28657, Note_off_c, 9, 42, 64
1, 28657, Note_off_c, 9, 35, 64
1, 28680, Note_off_c, 1, 32, 64
1, 28700, Note_on_c, 10, 76, 74
1, 28701, Note_off_c, 3, 68, 64
1, 28703, Note_on_c, 9, 42, 44
1, 28703, Note_on_c, 1, 37, 77
1, 28704, Lyric_t, "it "
1, 28704, Note_on_c, 3, 69, 114
1, 28704, Note_off_c, 4, 61, 64
1, 28704, Note_off_c, 4, 64, 64
1, 28704, Note_off_c, 4, 56, 64
1, 28704, Note_on_c, 4, 66, 99
1, 28704, Note_on_c, 4, 62, 102
1, 28704, Note_on_c, 4, 57, 91
1, 28704, Note_off_c, 9, 42, 64
1, 28751, Note_off_c, 3, 69, 64
1, 28751, Note_on_c, 9, 42, 82
1, 28752, Note_off_c, 4, 57, 64
1, 28752, Note_off_c, 4, 62, 64
1, 28752, Note_off_c, 4, 66, 64
1, 28752, Note_on_c, 4, 59, 86
1, 28752, Note_on_c, 4, 68, 107
1, 28752, Note_on_c, 4, 64, 97
1, 28752, Note_off_c, 9, 42, 64
1, 28752, Note_on_c, 9, 38, 90
1, 28753, Note_off_c, 9, 38, 64
1, 28754, Lyric_t, "a"
1, 28754, Note_on_c, 3, 71, 118
1, 28764, Note_off_c, 10, 76, 64
1, 28776, Note_on_c, 10, 73, 73
1, 28788, Note_off_c, 1, 37, 64
1, 28796, Note_off_c, 3, 71, 64
1, 28799, Note_off_c, 4, 64, 64
1, 28799, Note_off_c, 4, 68, 64
1, 28799, Note_off_c, 4, 59, 64
1, 28799, Note_on_c, 1, 44, 79
1, 28800, Note_on_c, 4, 68, 107
1, 28800, Note_on_c, 4, 64, 100
1, 28800, Note_on_c, 4, 59, 90
1, 28800, Note_on_c, 9, 35, 71
1, 28800, Note_on_c, 9, 42, 33
1, 28801, Note_off_c, 9, 42, 64
1, 28801, Note_off_c, 9, 35, 64
1, 28804, Lyric_t, "part, "
1, 28804, Lyric_t, "\015"
1, 28804, Note_on_c, 3, 71, 125
1, 28816, Note_off_c, 10, 73, 64
1, 28822, Note_on_c, 10, 71, 78
1, 28823, Note_off_c, 0, 64, 64
1, 28823, Note_off_c, 0, 61, 64
1, 28825, Note_off_c, 0, 68, 64
1, 28828, Note_off_c, 0, 71, 64
1, 28840, Note_off_c, 6, 68, 64
1, 28840, Note_off_c, 6, 76, 64
1, 28843, Note_off_c, 6, 71, 64
1, 28843, Note_on_c, 6, 76, 62
1, 28844, Note_on_c, 6, 68, 51
1, 28845, Note_on_c, 6, 71, 58
1, 28848, Note_on_c, 9, 35, 96
1, 28848, Note_on_c, 9, 42, 79
1, 28849, Note_off_c, 9, 42, 64
1, 28849, Note_off_c, 9, 35, 64
1, 28853, Note_on_c, 0, 71, 69
1, 28853, Note_on_c, 0, 68, 58
1, 28853, Note_on_c, 0, 73, 53
1, 28853, Note_on_c, 0, 76, 65
1, 28861, Note_off_c, 10, 71, 64
1, 28879, Note_on_c, 10, 73, 70
1, 28889, Note_off_c, 1, 44, 64
1, 28897, Note_on_c, 9, 42, 33
1, 28897, Note_on_c, 1, 49, 79
1, 28898, Note_off_c, 9, 42, 64
1, 28944, Note_on_c, 9, 38, 95
1, 28945, Note_off_c, 9, 38, 64
1, 28945, Note_on_c, 9, 42, 78
1, 28946, Note_off_c, 9, 42, 64
1, 28985, Note_off_c, 1, 49, 64
1, 28992, Note_on_c, 9, 35, 66
1, 28992, Note_on_c, 9, 42, 36
1, 28992, Note_off_c, 10, 73, 64
1, 28993, Note_off_c, 9, 42, 64
1, 28993, Note_off_c, 9, 35, 64
1, 28993, Note_on_c, 1, 44, 78
1, 29016, Note_off_c, 3, 71, 64
1, 29016, Note_off_c, 4, 59, 64
1, 29016, Note_off_c, 4, 64, 64
1, 29016, Note_off_c, 4, 68, 64
1, 29033, Note_off_c, 0, 76, 64
1, 29033, Note_off_c, 0, 68, 64
1, 29035, Note_off_c, 0, 73, 64
1, 29035, Note_off_c, 0, 71, 64
1, 29040, Lyric_t, "leav"
1, 29040, Note_on_c, 3, 68, 124
1, 29040, Note_on_c, 4, 64, 98
1, 29040, Note_on_c, 4, 56, 91
1, 29040, Note_on_c, 4, 61, 104
1, 29040, Note_on_c, 9, 35, 89
1, 29040, Note_on_c, 9, 42, 72
1, 29041, Note_off_c, 9, 42, 64
1, 29041, Note_off_c, 9, 35, 64
1, 29044, Note_on_c, 0, 73, 56
1, 29044, Note_on_c, 0, 68, 56
1, 29045, Note_on_c, 0, 71, 56
1, 29045, Note_on_c, 0, 64, 56
1, 29069, Note_off_c, 1, 44, 64
1, 29087, Note_on_c, 9, 42, 44
1, 29087, Note_on_c, 1, 44, 66
1, 29088, Note_off_c, 3, 68, 64
1, 29088, Note_off_c, 4, 61, 64
1, 29088, Note_off_c, 4, 56, 64
1, 29088, Note_off_c, 4, 64, 64
1, 29088, Note_on_c, 4, 57, 94
1, 29088, Note_on_c, 4, 62, 100
1, 29088, Note_on_c, 4, 66, 99
1, 29088, Note_off_c, 9, 42, 64
1, 29090, Lyric_t, "ing "
1, 29090, Note_on_c, 3, 69, 114
1, 29120, Note_on_c, 10, 71, 81
1, 29129, Note_off_c, 1, 44, 64
1, 29136, Lyric_t, "me "
1, 29136, Note_on_c, 3, 71, 93
1, 29136, Note_off_c, 4, 66, 64
1, 29136, Note_off_c, 4, 62, 64
1, 29136, Note_off_c, 4, 57, 64
1, 29136, Note_on_c, 4, 59, 94
1, 29136, Note_on_c, 4, 68, 107
1, 29136, Note_on_c, 4, 64, 94
1, 29136, Note_on_c, 9, 38, 96
1, 29136, Note_on_c, 9, 42, 78
1, 29137, Note_off_c, 9, 42, 64
1, 29137, Note_off_c, 9, 38, 64
1, 29137, Note_on_c, 1, 37, 91
1, 29139, Note_off_c, 0, 64, 64
1, 29139, Note_off_c, 0, 73, 64
1, 29139, Note_off_c, 0, 68, 64
1, 29139, Note_off_c, 0, 71, 64
1, 29140, Note_on_c, 0, 64, 68
1, 29140, Note_on_c, 0, 68, 67
1, 29140, Note_on_c, 0, 71, 77
1, 29141, Note_off_c, 3, 69, 64
1, 29160, Note_off_c, 10, 71, 64
1, 29166, Note_on_c, 10, 73, 73
1, 29178, Note_off_c, 3, 71, 64
1, 29184, Lyric_t, "pain "
1, 29184, Note_on_c, 3, 70, 104
1, 29184, Note_off_c, 4, 64, 64
1, 29184, Note_off_c, 4, 68, 64
1, 29184, Note_off_c, 4, 59, 64
1, 29184, Note_on_c, 4, 58, 84
1, 29184, Note_on_c, 4, 61, 93
1, 29184, Note_on_c, 4, 66, 97
1, 29184, Note_on_c, 9, 35, 70
1, 29184, Note_on_c, 9, 42, 51
1, 29185, Note_off_c, 9, 42, 64
1, 29185, Note_off_c, 9, 35, 64
1, 29203, Note_off_c, 10, 73, 64
1, 29212, Note_on_c, 10, 76, 79
1, 29218, Note_off_c, 0, 64, 64
1, 29220, Note_off_c, 0, 68, 64
1, 29223, Note_off_c, 0, 71, 64
1, 29226, Note_off_c, 6, 76, 64
1, 29227, Note_off_c, 1, 37, 64
1, 29227, Note_off_c, 6, 68, 64
1, 29228, Note_off_c, 6, 71, 64
1, 29228, Note_on_c, 6, 78, 54
1, 29229, Note_on_c, 6, 76, 54
1, 29229, Note_on_c, 6, 70, 47
1, 29229, Note_on_c, 6, 73, 47
1, 29232, Note_on_c, 9, 35, 95
1, 29232, Note_on_c, 9, 42, 72
1, 29233, Note_off_c, 9, 42, 64
1, 29233, Note_off_c, 9, 35, 64
1, 29233, Note_on_c, 1, 30, 95
1, 29236, Note_on_c, 0, 61, 56
1, 29236, Note_on_c, 0, 64, 66
1, 29236, Note_on_c, 0, 66, 61
1, 29236, Note_on_c, 0, 70, 51
1, 29259, Note_off_c, 10, 76, 64
1, 29264, Note_on_c, 10, 73, 69
1, 29266, Note_off_c, 1, 30, 64
1, 29279, Note_on_c, 9, 42, 45
1, 29280, Note_off_c, 9, 42, 64
1, 29281, Note_on_c, 1, 30, 82
1, 29303, Note_off_c, 3, 70, 64
1, 29313, Note_off_c, 1, 30, 64
1, 29313, Note_off_c, 10, 73, 64
1, 29313, Note_on_c, 10, 71, 70
1, 29327, Note_off_c, 4, 66, 64
1, 29327, Note_off_c, 4, 61, 64
1, 29327, Note_off_c, 4, 58, 64
1, 29328, Lyric_t, "and "
1, 29328, Note_on_c, 3, 70, 124
1, 29328, Note_on_c, 4, 66, 97
1, 29328, Note_on_c, 4, 61, 93
1, 29328, Note_on_c, 4, 58, 81
1, 29328, Note_on_c, 9, 38, 97
1, 29328, Note_on_c, 9, 42, 75
1, 29329, Note_off_c, 9, 42, 64
1, 29329, Note_off_c, 9, 38, 64
1, 29329, Note_on_c, 1, 30, 94
1, 29337, Note_off_c, 10, 71, 64
1, 29341, Note_on_c, 10, 70, 60
1, 29364, Note_off_c, 1, 30, 64
1, 29374, Lyric_t, "sor"
1, 29374, Note_on_c, 3, 71, 123
1, 29375, Note_off_c, 3, 70, 64
1, 29376, Note_off_c, 4, 58, 64
1, 29376, Note_off_c, 4, 61, 64
1, 29376, Note_off_c, 4, 66, 64
1, 29376, Note_on_c, 4, 64, 100
1, 29376, Note_on_c, 4, 68, 99
1, 29376, Note_on_c, 4, 59, 86
1, 29376, Note_on_c, 9, 42, 45
1, 29377, Note_off_c, 9, 42, 64
1, 29377, Note_on_c, 1, 30, 96
1, 29388, Note_off_c, 10, 70, 64
1, 29398, Note_on_c, 9, 42, 59
1, 29399, Note_off_c, 9, 42, 64
1, 29411, Note_on_c, 9, 42, 74
1, 29412, Note_off_c, 9, 42, 64
1, 29413, Note_off_c, 1, 30, 64
1, 29424, Note_on_c, 9, 42, 61
1, 29424, Note_on_c, 9, 35, 100
1, 29424, Note_on_c, 10, 73, 80
1, 29425, Note_off_c, 9, 35, 64
1, 29425, Note_off_c, 9, 42, 64
1, 29425, Note_on_c, 1, 30, 104
1, 29446, Note_on_c, 9, 42, 57
1, 29447, Note_off_c, 9, 42, 64
1, 29459, Note_on_c, 9, 42, 65
1, 29460, Note_off_c, 9, 42, 64
1, 29463, Note_off_c, 3, 71, 64
1, 29463, Note_off_c, 1, 30, 64
1, 29465, Lyric_t, "row? "
1, 29465, Lyric_t, "\015"
1, 29465, Note_on_c, 3, 73, 121
1, 29472, Note_off_c, 4, 59, 64
1, 29472, Note_off_c, 4, 68, 64
1, 29472, Note_off_c, 4, 64, 64
1, 29472, Note_on_c, 4, 70, 101
1, 29472, Note_on_c, 4, 61, 89
1, 29472, Note_on_c, 4, 66, 89
1, 29472, Note_on_c, 9, 42, 52
1, 29473, Note_off_c, 9, 42, 64
1, 29473, Note_on_c, 1, 30, 108
1, 29495, Note_off_c, 10, 73, 64
1, 29495, Note_on_c, 10, 71, 69
1, 29501, Lyric_t, "\012"
1, 29506, Note_off_c, 1, 30, 64
1, 29520, Note_on_c, 9, 42, 97
1, 29520, Note_on_c, 9, 38, 96
1, 29521, Note_off_c, 9, 38, 64
1, 29521, Note_off_c, 9, 42, 64
1, 29523, Note_off_c, 10, 71, 64
1, 29523, Note_on_c, 10, 70, 62
1, 29535, Note_on_c, 9, 42, 87
1, 29536, Note_off_c, 9, 42, 64
1, 29544, Note_on_c, 9, 42, 71
1, 29544, Note_on_c, 1, 30, 77
1, 29545, Note_off_c, 9, 42, 64
1, 29561, Note_off_c, 1, 30, 64
1, 29567, Note_on_c, 9, 46, 98
1, 29568, Note_off_c, 9, 46, 64
1, 29569, Note_on_c, 9, 43, 95
1, 29569, Note_on_c, 1, 42, 117
1, 29570, Note_off_c, 9, 43, 64
1, 29573, Lyric_t, "(Girl) "
1, 29589, Note_off_c, 1, 42, 64
1, 29593, Note_on_c, 1, 40, 105
1, 29594, Note_off_c, 10, 70, 64
1, 29607, Note_off_c, 3, 73, 64
1, 29609, Note_off_c, 6, 73, 64
1, 29611, Note_off_c, 1, 40, 64
1, 29611, Note_off_c, 6, 78, 64
1, 29612, Note_off_c, 6, 70, 64
1, 29612, Note_off_c, 6, 76, 64
1, 29612, Note_on_c, 6, 69, 60
1, 29613, Note_on_c, 6, 73, 60
1, 29613, Note_on_c, 6, 78, 59
1, 29616, Note_off_c, 4, 66, 64
1, 29616, Note_off_c, 4, 61, 64
1, 29616, Note_off_c, 4, 70, 64
1, 29616, Note_on_c, 9, 35, 102
1, 29617, Note_off_c, 9, 35, 64
1, 29617, Note_on_c, 9, 49, 54
1, 29617, Note_on_c, 1, 38, 103
1, 29618, Note_off_c, 9, 49, 64
1, 29619, Note_off_c, 0, 70, 64
1, 29619, Note_off_c, 0, 61, 64
1, 29619, Note_off_c, 0, 64, 64
1, 29619, Note_off_c, 0, 66, 64
1, 29620, Note_on_c, 0, 64, 70
1, 29620, Note_on_c, 0, 66, 78
1, 29620, Note_on_c, 0, 69, 78
1, 29620, Note_on_c, 0, 73, 73
1, 29661, Note_on_c, 10, 73, 79
1, 29664, Note_on_c, 4, 66, 87
1, 29664, Note_on_c, 4, 61, 84
1, 29664, Note_on_c, 4, 69, 98
1, 29665, Note_on_c, 9, 42, 58
1, 29666, Note_off_c, 9, 42, 64
1, 29669, Lyric_t, "\226 Los"
1, 29669, Note_on_c, 3, 73, 118
1, 29676, Pitch_bend_c, 10, 8894
1, 29678, Pitch_bend_c, 10, 9596
1, 29680, Pitch_bend_c, 10, 10181
1, 29683, Pitch_bend_c, 10, 10766
1, 29684, Pitch_bend_c, 10, 11117
1, 29686, Pitch_bend_c, 10, 11468
1, 29689, Pitch_bend_c, 10, 11702
1, 29690, Pitch_bend_c, 10, 11936
1, 29693, Pitch_bend_c, 10, 12053
1, 29694, Pitch_bend_c, 10, 12287
1, 29705, Pitch_bend_c, 10, 12053
1, 29708, Pitch_bend_c, 10, 11819
1, 29709, Pitch_bend_c, 10, 11351
1, 29711, Pitch_bend_c, 10, 10649
1, 29712, Note_on_c, 9, 38, 93
1, 29712, Note_on_c, 9, 42, 94
1, 29712, Pitch_bend_c, 10, 10064
1, 29713, Note_off_c, 9, 42, 64
1, 29713, Note_off_c, 9, 38, 64
1, 29715, Pitch_bend_c, 10, 9479
1, 29716, Note_off_c, 3, 73, 64
1, 29718, Pitch_bend_c, 10, 9245
1, 29720, Pitch_bend_c, 10, 8894
1, 29721, Pitch_bend_c, 10, 8660
1, 29723, Pitch_bend_c, 10, 8426
1, 29726, Pitch_bend_c, 10, 8192
1, 29759, Note_on_c, 9, 42, 51
1, 29760, Note_off_c, 9, 42, 64
1, 29807, Note_off_c, 4, 69, 64
1, 29807, Note_off_c, 4, 61, 64
1, 29807, Note_off_c, 4, 66, 64
1, 29808, Note_on_c, 4, 66, 97
1, 29808, Note_on_c, 4, 69, 88
1, 29808, Note_on_c, 4, 61, 91
1, 29808, Note_on_c, 9, 35, 93
1, 29808, Note_on_c, 9, 42, 82
1, 29809, Note_off_c, 9, 42, 64
1, 29809, Note_off_c, 9, 35, 64
1, 29811, Lyric_t, "ing "
1, 29811, Note_on_c, 3, 73, 125
1, 29814, Note_off_c, 10, 73, 64
1, 29815, Note_on_c, 10, 71, 80
1, 29819, Note_off_c, 1, 38, 64
1, 29853, Note_off_c, 3, 73, 64
1, 29855, Note_off_c, 4, 61, 64
1, 29855, Note_off_c, 4, 69, 64
1, 29855, Note_off_c, 4, 66, 64
1, 29855, Note_on_c, 9, 42, 41
1, 29856, Note_on_c, 4, 66, 85
1, 29856, Note_on_c, 4, 69, 90
1, 29856, Note_on_c, 4, 61, 89
1, 29856, Note_off_c, 9, 42, 64
1, 29857, Lyric_t, "you "
1, 29857, Note_on_c, 3, 73, 124
1, 29857, Note_on_c, 1, 38, 90
1, 29863, Note_on_c, 10, 73, 79
1, 29865, Note_off_c, 10, 71, 64
1, 29904, Note_on_c, 9, 38, 93
1, 29904, Note_on_c, 9, 42, 84
1, 29905, Note_off_c, 9, 42, 64
1, 29905, Note_off_c, 9, 38, 64
1, 29928, Note_off_c, 3, 73, 64
1, 29936, Note_off_c, 1, 38, 64
1, 29949, Note_on_c, 10, 71, 83
1, 29951, Note_on_c, 9, 42, 54
1, 29952, Note_off_c, 4, 61, 64
1, 29952, Note_off_c, 4, 69, 64
1, 29952, Note_off_c, 4, 66, 64
1, 29952, Note_on_c, 4, 68, 85
1, 29952, Note_on_c, 4, 64, 91
1, 29952, Note_on_c, 4, 59, 85
1, 29952, Note_off_c, 9, 42, 64
1, 29952, Note_off_c, 10, 73, 64
1, 29953, Note_on_c, 1, 38, 87
1, 29954, Lyric_t, "now, "
1, 29954, Note_on_c, 3, 71, 116
1, 29992, Note_off_c, 1, 38, 64
1, 29993, Note_off_c, 6, 73, 64
1, 29993, Note_off_c, 6, 69, 64
1, 29993, Note_on_c, 6, 68, 65
1, 29996, Note_on_c, 6, 71, 65
1, 29999, Note_on_c, 1, 37, 89
1, 30000, Note_on_c, 9, 35, 101
1, 30000, Note_on_c, 9, 42, 85
1, 30001, Note_off_c, 9, 42, 64
1, 30001, Note_off_c, 9, 35, 64
1, 30003, Note_off_c, 0, 64, 64
1, 30004, Note_on_c, 0, 68, 77
1, 30004, Note_on_c, 0, 61, 62
1, 30004, Note_on_c, 0, 64, 80
1, 30004, Note_on_c, 0, 71, 80
1, 30015, Note_off_c, 0, 66, 64
1, 30015, Note_off_c, 0, 73, 64
1, 30015, Note_off_c, 0, 69, 64
1, 30048, Note_on_c, 9, 42, 46
1, 30049, Note_off_c, 9, 42, 64
1, 30050, Note_on_c, 10, 64, 69
1, 30055, Note_off_c, 10, 71, 64
1, 30092, Note_off_c, 6, 78, 64
1, 30095, Note_on_c, 9, 42, 86
1, 30096, Note_off_c, 9, 42, 64
1, 30096, Note_on_c, 9, 38, 90
1, 30096, Note_on_c, 6, 80, 63
1, 30097, Note_off_c, 9, 38, 64
1, 30143, Note_on_c, 9, 42, 50
1, 30144, Note_off_c, 9, 42, 64
1, 30162, Note_off_c, 3, 71, 64
1, 30168, Note_off_c, 4, 59, 64
1, 30168, Note_off_c, 4, 64, 64
1, 30168, Note_off_c, 4, 68, 64
1, 30174, Note_off_c, 10, 64, 64
1, 30188, Note_on_c, 6, 76, 63
1, 30190, Lyric_t, "how "
1, 30190, Note_on_c, 3, 68, 127
1, 30191, Note_off_c, 6, 80, 64
1, 30192, Note_on_c, 4, 56, 79
1, 30192, Note_on_c, 4, 61, 97
1, 30192, Note_on_c, 4, 64, 85
1, 30192, Note_on_c, 9, 35, 98
1, 30192, Note_on_c, 9, 42, 78
1, 30192, Note_on_c, 10, 68, 66
1, 30193, Note_off_c, 9, 42, 64
1, 30193, Note_off_c, 9, 35, 64
1, 30224, Note_off_c, 1, 37, 64
1, 30235, Note_off_c, 10, 68, 64
1, 30237, Note_off_c, 3, 68, 64
1, 30239, Note_on_c, 9, 42, 44
1, 30239, Note_on_c, 1, 32, 82
1, 30240, Lyric_t, "can "
1, 30240, Note_on_c, 3, 69, 114
1, 30240, Note_off_c, 4, 64, 64
1, 30240, Note_off_c, 4, 61, 64
1, 30240, Note_off_c, 4, 56, 64
1, 30240, Note_on_c, 4, 62, 97
1, 30240, Note_on_c, 4, 66, 93
1, 30240, Note_on_c, 4, 57, 88
1, 30240, Note_off_c, 9, 42, 64
1, 30242, Note_on_c, 10, 69, 72
1, 30282, Note_off_c, 10, 69, 64
1, 30287, Note_off_c, 3, 69, 64
1, 30287, Note_on_c, 9, 42, 82
1, 30288, Note_off_c, 4, 57, 64
1, 30288, Note_off_c, 4, 66, 64
1, 30288, Note_off_c, 4, 62, 64
1, 30288, Note_on_c, 4, 64, 88
1, 30288, Note_on_c, 4, 68, 99
1, 30288, Note_on_c, 4, 59, 81
1, 30288, Note_off_c, 9, 42, 64
1, 30288, Note_on_c, 9, 38, 96
1, 30288, Note_on_c, 10, 71, 74
1, 30289, Note_off_c, 9, 38, 64
1, 30290, Lyric_t, "I "
1, 30290, Note_on_c, 3, 71, 118
1, 30324, Note_off_c, 1, 32, 64
1, 30329, Note_off_c, 10, 71, 64
1, 30332, Note_off_c, 3, 71, 64
1, 30335, Note_off_c, 4, 59, 64
1, 30335, Note_off_c, 4, 68, 64
1, 30335, Note_off_c, 4, 64, 64
1, 30335, Note_on_c, 1, 37, 81
1, 30336, Note_on_c, 4, 59, 88
1, 30336, Note_on_c, 4, 68, 97
1, 30336, Note_on_c, 4, 64, 83
1, 30336, Note_on_c, 9, 42, 33
1, 30337, Note_off_c, 9, 42, 64
1, 30340, Lyric_t, "win? "
1, 30340, Lyric_t, "\015"
1, 30340, Note_on_c, 3, 71, 125
1, 30340, Note_on_c, 10, 71, 74
1, 30374, Note_off_c, 6, 76, 64
1, 30376, Note_off_c, 6, 68, 64
1, 30379, Note_off_c, 6, 71, 64
1, 30379, Note_on_c, 6, 76, 62
1, 30380, Note_on_c, 6, 68, 51
1, 30381, Note_on_c, 6, 71, 58
1, 30384, Note_on_c, 9, 35, 100
1, 30384, Note_on_c, 9, 42, 79
1, 30385, Note_off_c, 9, 42, 64
1, 30385, Note_off_c, 9, 35, 64
1, 30386, Note_off_c, 0, 71, 64
1, 30386, Note_on_c, 0, 73, 60
1, 30387, Note_on_c, 0, 76, 74
1, 30387, Note_on_c, 0, 71, 66
1, 30388, Note_on_c, 0, 80, 61
1, 30392, Note_off_c, 0, 68, 64
1, 30392, Note_off_c, 0, 61, 64
1, 30392, Note_off_c, 0, 64, 64
1, 30421, Note_off_c, 1, 37, 64
1, 30431, Note_on_c, 1, 44, 84
1, 30433, Note_on_c, 9, 42, 33
1, 30434, Note_off_c, 9, 42, 64
1, 30480, Note_on_c, 9, 38, 96
1, 30481, Note_off_c, 9, 38, 64
1, 30481, Note_on_c, 9, 42, 78
1, 30482, Note_off_c, 9, 42, 64
1, 30516, Note_off_c, 1, 44, 64
1, 30527, Note_on_c, 1, 49, 81
1, 30528, Note_on_c, 9, 42, 36
1, 30529, Note_off_c, 9, 42, 64
1, 30543, Note_off_c, 10, 71, 64
1, 30552, Note_off_c, 3, 71, 64
1, 30552, Note_off_c, 4, 64, 64
1, 30552, Note_off_c, 4, 68, 64
1, 30552, Note_off_c, 4, 59, 64
1, 30574, Note_on_c, 10, 68, 70
1, 30576, Lyric_t, "Where "
1, 30576, Note_on_c, 3, 68, 124
1, 30576, Note_on_c, 4, 64, 95
1, 30576, Note_on_c, 4, 61, 104
1, 30576, Note_on_c, 4, 56, 84
1, 30576, Note_on_c, 9, 35, 100
1, 30576, Note_on_c, 9, 42, 72
1, 30577, Note_off_c, 9, 42, 64
1, 30577, Note_off_c, 9, 35, 64
1, 30620, Note_off_c, 10, 68, 64
1, 30621, Note_off_c, 1, 49, 64
1, 30623, Note_on_c, 9, 42, 44
1, 30623, Note_on_c, 1, 44, 86
1, 30624, Note_off_c, 3, 68, 64
1, 30624, Note_off_c, 4, 56, 64
1, 30624, Note_off_c, 4, 61, 64
1, 30624, Note_off_c, 4, 64, 64
1, 30624, Note_on_c, 4, 62, 94
1, 30624, Note_on_c, 4, 57, 88
1, 30624, Note_on_c, 4, 66, 95
1, 30624, Note_off_c, 9, 42, 64
1, 30625, Note_on_c, 10, 69, 75
1, 30626, Lyric_t, "will "
1, 30626, Note_on_c, 3, 69, 114
1, 30667, Note_off_c, 10, 69, 64
1, 30671, Note_on_c, 9, 42, 78
1, 30671, Note_on_c, 10, 71, 79
1, 30672, Lyric_t, "I "
1, 30672, Note_on_c, 3, 71, 93
1, 30672, Note_off_c, 4, 66, 64
1, 30672, Note_off_c, 4, 57, 64
1, 30672, Note_off_c, 4, 62, 64
1, 30672, Note_on_c, 4, 59, 90
1, 30672, Note_on_c, 4, 68, 89
1, 30672, Note_on_c, 4, 64, 88
1, 30672, Note_off_c, 9, 42, 64
1, 30672, Note_on_c, 9, 38, 96
1, 30673, Note_off_c, 9, 38, 64
1, 30677, Note_off_c, 3, 69, 64
1, 30712, Note_off_c, 1, 44, 64
1, 30714, Note_off_c, 3, 71, 64
1, 30716, Note_off_c, 10, 71, 64
1, 30719, Note_on_c, 9, 42, 51
1, 30719, Note_on_c, 1, 37, 84
1, 30720, Lyric_t, "be "
1, 30720, Note_on_c, 3, 70, 104
1, 30720, Note_off_c, 4, 64, 64
1, 30720, Note_off_c, 4, 68, 64
1, 30720, Note_off_c, 4, 59, 64
1, 30720, Note_on_c, 4, 58, 75
1, 30720, Note_on_c, 4, 66, 89
1, 30720, Note_on_c, 4, 61, 91
1, 30720, Note_off_c, 9, 42, 64
1, 30725, Note_on_c, 10, 70, 79
1, 30761, Note_off_c, 1, 37, 64
1, 30762, Note_off_c, 6, 76, 64
1, 30763, Note_off_c, 6, 68, 64
1, 30764, Note_off_c, 6, 71, 64
1, 30765, Note_on_c, 6, 78, 63
1, 30765, Note_on_c, 6, 70, 47
1, 30765, Note_on_c, 6, 73, 47
1, 30765, Note_on_c, 6, 76, 54
1, 30768, Note_on_c, 9, 35, 102
1, 30768, Note_on_c, 1, 30, 116
1, 30769, Note_off_c, 9, 35, 64
1, 30770, Note_off_c, 0, 73, 64
1, 30771, Note_off_c, 0, 76, 64
1, 30771, Note_on_c, 0, 73, 65
1, 30772, Note_on_c, 0, 78, 53
1, 30772, Note_on_c, 0, 70, 56
1, 30772, Note_on_c, 0, 76, 77
1, 30784, Note_off_c, 0, 71, 64
1, 30784, Note_off_c, 0, 80, 64
1, 30810, Note_off_c, 1, 30, 64
1, 30811, Note_on_c, 9, 59, 78
1, 30812, Note_off_c, 9, 59, 64
1, 30813, Note_off_c, 10, 70, 64
1, 30815, Note_on_c, 9, 51, 63
1, 30815, Note_on_c, 1, 30, 107
1, 30816, Note_off_c, 9, 51, 64
1, 30819, Note_on_c, 10, 66, 72
1, 30839, Note_off_c, 3, 70, 64
1, 30863, Note_off_c, 4, 61, 64
1, 30863, Note_off_c, 4, 66, 64
1, 30863, Note_off_c, 4, 58, 64
1, 30864, Lyric_t, "to"
1, 30864, Note_on_c, 3, 70, 124
1, 30864, Note_on_c, 4, 66, 97
1, 30864, Note_on_c, 4, 58, 77
1, 30864, Note_on_c, 4, 61, 91
1, 30888, Note_off_c, 1, 30, 64
1, 30906, Note_on_c, 9, 59, 77
1, 30907, Note_off_c, 9, 59, 64
1, 30909, Note_on_c, 9, 51, 66
1, 30910, Lyric_t, "mor"
1, 30910, Note_on_c, 3, 71, 122
1, 30910, Note_off_c, 9, 51, 64
1, 30910, Note_on_c, 1, 30, 119
1, 30911, Note_off_c, 3, 70, 64
1, 30912, Note_off_c, 4, 61, 64
1, 30912, Note_off_c, 4, 58, 64
1, 30912, Note_off_c, 4, 66, 64
1, 30912, Note_on_c, 4, 59, 83
1, 30912, Note_on_c, 4, 68, 95
1, 30912, Note_on_c, 4, 64, 97
1, 30995, Note_off_c, 1, 30, 64
1, 30999, Note_off_c, 3, 71, 64
1, 31001, Lyric_t, "row? "
1, 31001, Note_on_c, 3, 73, 116
1, 31002, Note_on_c, 9, 59, 79
1, 31003, Note_off_c, 9, 59, 64
1, 31004, Note_on_c, 1, 30, 113
1, 31005, Note_on_c, 9, 51, 71
1, 31006, Note_off_c, 9, 51, 64
1, 31008, Note_off_c, 4, 64, 64
1, 31008, Note_off_c, 4, 68, 64
1, 31008, Note_off_c, 4, 59, 64
1, 31008, Note_on_c, 4, 61, 84
1, 31008, Note_on_c, 4, 66, 99
1, 31008, Note_on_c, 4, 70, 104
1, 31099, Note_off_c, 1, 30, 64
1, 31108, Note_on_c, 1, 30, 110
1, 31120, Note_off_c, 10, 66, 64
1, 31128, Note_off_c, 1, 30, 64
1, 31132, Note_on_c, 1, 28, 106
1, 31144, Note_off_c, 3, 73, 64
1, 31148, Note_off_c, 6, 76, 64
1, 31148, Note_off_c, 6, 78, 64
1, 31148, Note_off_c, 6, 70, 64
1, 31148, Note_off_c, 6, 73, 64
1, 31150, Note_off_c, 1, 28, 64
1, 31150, Note_on_c, 6, 61, 56
1, 31150, Note_on_c, 6, 64, 56
1, 31150, Note_on_c, 6, 66, 43
1, 31150, Note_on_c, 6, 69, 60
1, 31151, Note_off_c, 4, 66, 64
1, 31151, Note_off_c, 4, 61, 64
1, 31152, Lyric_t, "Oh\205 "
1, 31152, Lyric_t, "\015"
1, 31152, Note_on_c, 3, 73, 101
1, 31152, Note_off_c, 4, 70, 64
1, 31152, Note_on_c, 4, 64, 70
1, 31152, Note_on_c, 4, 61, 67
1, 31152, Note_on_c, 4, 66, 70
1, 31152, Note_on_c, 4, 69, 80
1, 31155, Note_off_c, 0, 70, 64
1, 31155, Note_off_c, 0, 78, 64
1, 31155, Note_off_c, 0, 76, 64
1, 31155, Note_off_c, 0, 73, 64
1, 31156, Note_on_c, 9, 59, 75
1, 31157, Note_off_c, 9, 59, 64
1, 31159, Note_on_c, 1, 26, 102
1, 31161, Note_on_c, 9, 51, 67
1, 31162, Note_off_c, 9, 51, 64
1, 31202, Note_on_c, 10, 83, 65
1, 31203, Note_on_c, 10, 88, 65
1, 31222, Note_on_c, 10, 85, 58
1, 31252, Note_off_c, 10, 88, 64
1, 31252, Note_off_c, 10, 83, 64
1, 31257, Note_on_c, 10, 83, 55
1, 31293, Note_on_c, 10, 81, 52
1, 31329, Note_off_c, 10, 81, 64
1, 31330, Note_on_c, 10, 81, 63
1, 31331, Note_on_c, 10, 76, 59
1, 31345, Note_on_c, 10, 78, 57
1, 31377, Note_off_c, 10, 76, 64
1, 31378, Note_on_c, 10, 76, 62
1, 31389, Note_off_c, 10, 85, 64
1, 31400, Note_off_c, 10, 83, 64
1, 31422, Note_on_c, 10, 74, 47
1, 31456, Note_off_c, 10, 76, 64
1, 31457, Note_on_c, 10, 76, 57
1, 31457, Note_on_c, 10, 71, 57
1, 31470, Note_on_c, 10, 73, 49
1, 31504, Note_off_c, 10, 71, 64
1, 31505, Note_on_c, 10, 71, 57
1, 31536, Note_off_c, 10, 78, 64
1, 31545, Note_off_c, 10, 81, 64
1, 31551, Note_on_c, 10, 69, 50
1, 31601, Note_off_c, 10, 69, 64
1, 31602, Note_on_c, 10, 69, 56
1, 31603, Note_on_c, 10, 64, 56
1, 31621, Note_on_c, 10, 66, 48
1, 31624, Note_off_c, 10, 76, 64
1, 31637, Note_off_c, 10, 73, 64
1, 31637, Note_off_c, 10, 74, 64
1, 31658, Note_off_c, 10, 64, 64
1, 31659, Note_on_c, 10, 64, 59
1, 31711, Note_on_c, 10, 62, 54
1, 31720, Note_off_c, 10, 71, 64
1, 31721, Note_off_c, 10, 69, 64
1, 31764, Note_off_c, 10, 66, 64
1, 31768, Note_off_c, 10, 64, 64
1, 31769, Note_on_c, 10, 59, 52
1, 31782, Note_off_c, 10, 62, 64
1, 31787, Note_on_c, 10, 61, 51
1, 31842, Note_off_c, 10, 59, 64
1, 31848, Note_on_c, 10, 59, 52
1, 31919, Note_off_c, 3, 73, 64
1, 31920, Note_off_c, 4, 69, 64
1, 31920, Note_off_c, 4, 64, 64
1, 31920, Note_off_c, 4, 61, 64
1, 31920, Note_off_c, 4, 66, 64
1, 31921, Note_on_c, 10, 57, 39
1, 32279, Note_off_c, 10, 59, 64
1, 32280, Note_off_c, 10, 57, 64
1, 32290, Note_off_c, 10, 61, 64
1, 32301, Note_off_c, 1, 26, 64
1, 32301, Note_off_c, 6, 69, 64
1, 32301, Note_off_c, 6, 61, 64
1, 32301, Note_off_c, 6, 64, 64
1, 32301, Note_off_c, 6, 66, 64
1, 32309, End_track
0, 0, End_of_file
