0, 0, Header, 1, 11, 192
1, 0, Start_track
1, 0, SMPTE_offset, 96, 0, 3, 0, 0
1, 0, Time_signature, 3, 2, 24, 8
1, 0, Key_signature, 3, "major"
1, 0, Tempo, 329670
1, 0, End_track
2, 0, Start_track
2, 0, MIDI_port, 0
2, 0, Title_t, "  "
2, 0, Program_c, 0, 25
2, 0, Control_c, 0, 7, 105
2, 0, Control_c, 0, 10, 80
2, 198, Control_c, 0, 11, 127
2, 200, Control_c, 0, 91, 55
2, 200, Control_c, 0, 93, 16
2, 648, Control_c, 0, 64, 127
2, 768, Note_on_c, 0, 57, 96
2, 768, Note_on_c, 0, 54, 96
2, 768, Note_on_c, 0, 62, 96
2, 770, Control_c, 0, 1, 0
2, 770, Pitch_bend_c, 0, 8192
2, 878, Note_on_c, 0, 62, 0
2, 910, Note_on_c, 0, 57, 0
2, 912, Note_on_c, 0, 54, 0
2, 960, Note_on_c, 0, 62, 91
2, 962, Note_on_c, 0, 57, 91
2, 962, Note_on_c, 0, 54, 91
2, 1112, Control_c, 0, 64, 0
2, 1152, Note_on_c, 0, 62, 0
2, 1154, Note_on_c, 0, 54, 0
2, 1154, Note_on_c, 0, 57, 0
2, 1344, Note_on_c, 0, 55, 76
2, 1346, Note_on_c, 0, 64, 103
2, 1346, Note_on_c, 0, 59, 101
2, 1352, Control_c, 0, 64, 127
2, 1488, Note_on_c, 0, 55, 0
2, 1494, Note_on_c, 0, 59, 0
2, 1500, Note_on_c, 0, 64, 0
2, 1536, Note_on_c, 0, 55, 74
2, 1538, Note_on_c, 0, 59, 93
2, 1538, Note_on_c, 0, 64, 91
2, 1696, Note_on_c, 0, 59, 0
2, 1698, Control_c, 0, 64, 0
2, 1712, Note_on_c, 0, 64, 0
2, 1728, Note_on_c, 0, 55, 0
2, 1922, Note_on_c, 0, 66, 106
2, 1924, Note_on_c, 0, 61, 101
2, 1924, Note_on_c, 0, 57, 86
2, 1948, Control_c, 0, 64, 127
2, 1990, Note_on_c, 0, 57, 0
2, 2018, Note_on_c, 0, 57, 70
2, 2060, Note_on_c, 0, 61, 0
2, 2062, Note_on_c, 0, 66, 0
2, 2108, Note_on_c, 0, 57, 0
2, 2112, Note_on_c, 0, 57, 88
2, 2114, Note_on_c, 0, 66, 91
2, 2116, Note_on_c, 0, 61, 81
2, 2288, Note_on_c, 0, 57, 0
2, 2300, Control_c, 0, 64, 0
2, 2306, Note_on_c, 0, 66, 0
2, 2308, Note_on_c, 0, 61, 0
2, 2500, Note_on_c, 0, 57, 88
2, 2500, Note_on_c, 0, 66, 106
2, 2500, Note_on_c, 0, 61, 101
2, 2688, Note_on_c, 0, 55, 93
2, 2692, Note_on_c, 0, 61, 0
2, 2692, Note_on_c, 0, 57, 0
2, 2692, Note_on_c, 0, 66, 0
2, 2692, Note_on_c, 0, 59, 86
2, 2692, Note_on_c, 0, 64, 93
2, 2880, Note_on_c, 0, 55, 0
2, 2884, Note_on_c, 0, 64, 0
2, 2884, Note_on_c, 0, 59, 0
2, 2952, Control_c, 0, 64, 127
2, 3072, Note_on_c, 0, 62, 96
2, 3072, Note_on_c, 0, 57, 96
2, 3072, Note_on_c, 0, 54, 96
2, 3182, Note_on_c, 0, 62, 0
2, 3214, Note_on_c, 0, 57, 0
2, 3216, Note_on_c, 0, 54, 0
2, 3264, Note_on_c, 0, 62, 91
2, 3266, Note_on_c, 0, 57, 91
2, 3266, Note_on_c, 0, 54, 91
2, 3416, Control_c, 0, 64, 0
2, 3456, Note_on_c, 0, 62, 0
2, 3458, Note_on_c, 0, 54, 0
2, 3458, Note_on_c, 0, 57, 0
2, 3648, Note_on_c, 0, 55, 76
2, 3650, Note_on_c, 0, 59, 101
2, 3650, Note_on_c, 0, 64, 103
2, 3656, Control_c, 0, 64, 127
2, 3792, Note_on_c, 0, 55, 0
2, 3798, Note_on_c, 0, 59, 0
2, 3804, Note_on_c, 0, 64, 0
2, 3840, Note_on_c, 0, 55, 74
2, 3842, Note_on_c, 0, 64, 91
2, 3842, Note_on_c, 0, 59, 93
2, 4000, Note_on_c, 0, 59, 0
2, 4002, Control_c, 0, 64, 0
2, 4016, Note_on_c, 0, 64, 0
2, 4032, Note_on_c, 0, 55, 0
2, 4226, Note_on_c, 0, 66, 106
2, 4228, Note_on_c, 0, 57, 86
2, 4228, Note_on_c, 0, 61, 101
2, 4252, Control_c, 0, 64, 127
2, 4414, Note_on_c, 0, 61, 0
2, 4414, Note_on_c, 0, 57, 0
2, 4414, Note_on_c, 0, 66, 0
2, 4416, Note_on_c, 0, 66, 91
2, 4416, Note_on_c, 0, 61, 81
2, 4416, Note_on_c, 0, 57, 88
2, 4592, Note_on_c, 0, 57, 0
2, 4604, Control_c, 0, 64, 0
2, 4608, Note_on_c, 0, 61, 0
2, 4608, Note_on_c, 0, 66, 0
2, 4804, Note_on_c, 0, 61, 101
2, 4804, Note_on_c, 0, 57, 88
2, 4804, Note_on_c, 0, 66, 106
2, 4992, Note_on_c, 0, 55, 93
2, 4996, Note_on_c, 0, 66, 0
2, 4996, Note_on_c, 0, 61, 0
2, 4996, Note_on_c, 0, 57, 0
2, 4996, Note_on_c, 0, 59, 86
2, 4996, Note_on_c, 0, 64, 93
2, 5184, Note_on_c, 0, 55, 0
2, 5188, Note_on_c, 0, 64, 0
2, 5188, Note_on_c, 0, 59, 0
2, 5256, Control_c, 0, 64, 127
2, 5376, Note_on_c, 0, 57, 96
2, 5376, Note_on_c, 0, 54, 96
2, 5376, Note_on_c, 0, 62, 96
2, 5486, Note_on_c, 0, 62, 0
2, 5518, Note_on_c, 0, 57, 0
2, 5520, Note_on_c, 0, 54, 0
2, 5568, Note_on_c, 0, 62, 91
2, 5570, Note_on_c, 0, 54, 91
2, 5570, Note_on_c, 0, 57, 91
2, 5720, Control_c, 0, 64, 0
2, 5760, Note_on_c, 0, 62, 0
2, 5762, Note_on_c, 0, 57, 0
2, 5762, Note_on_c, 0, 54, 0
2, 5832, Control_c, 0, 64, 127
2, 5952, Note_on_c, 0, 57, 96
2, 5952, Note_on_c, 0, 62, 96
2, 5952, Note_on_c, 0, 54, 96
2, 6062, Note_on_c, 0, 62, 0
2, 6094, Note_on_c, 0, 57, 0
2, 6096, Note_on_c, 0, 54, 0
2, 6144, Note_on_c, 0, 62, 91
2, 6146, Note_on_c, 0, 57, 91
2, 6146, Note_on_c, 0, 54, 91
2, 6296, Control_c, 0, 64, 0
2, 6336, Note_on_c, 0, 62, 0
2, 6338, Note_on_c, 0, 54, 0
2, 6338, Note_on_c, 0, 57, 0
2, 6528, Note_on_c, 0, 56, 84
2, 6532, Note_on_c, 0, 62, 98
2, 6532, Note_on_c, 0, 64, 101
2, 6594, Control_c, 0, 64, 127
2, 6626, Note_on_c, 0, 56, 0
2, 6672, Note_on_c, 0, 64, 0
2, 6672, Note_on_c, 0, 62, 0
2, 6720, Note_on_c, 0, 62, 74
2, 6726, Note_on_c, 0, 64, 93
2, 6726, Note_on_c, 0, 56, 98
2, 6816, Note_on_c, 0, 56, 0
2, 6818, Note_on_c, 0, 64, 0
2, 6884, Note_on_c, 0, 62, 0
2, 7108, Note_on_c, 0, 64, 91
2, 7108, Note_on_c, 0, 62, 106
2, 7108, Note_on_c, 0, 56, 98
2, 7192, Note_on_c, 0, 64, 0
2, 7208, Note_on_c, 0, 56, 0
2, 7212, Note_on_c, 0, 62, 0
2, 7298, Note_on_c, 0, 64, 68
2, 7300, Note_on_c, 0, 62, 84
2, 7300, Note_on_c, 0, 56, 94
2, 7370, Control_c, 0, 64, 0
2, 7428, Note_on_c, 0, 64, 0
2, 7468, Note_on_c, 0, 56, 0
2, 7470, Note_on_c, 0, 62, 0
2, 7526, Control_c, 0, 64, 127
2, 7680, Note_on_c, 0, 57, 68
2, 7682, Note_on_c, 0, 64, 68
2, 7684, Note_on_c, 0, 61, 68
2, 7806, Note_on_c, 0, 57, 0
2, 7814, Note_on_c, 0, 64, 0
2, 7826, Note_on_c, 0, 61, 0
2, 7872, Note_on_c, 0, 57, 59
2, 7876, Note_on_c, 0, 61, 59
2, 7876, Note_on_c, 0, 64, 59
2, 8008, Note_on_c, 0, 64, 0
2, 8030, Note_on_c, 0, 61, 0
2, 8036, Note_on_c, 0, 57, 0
2, 8256, Note_on_c, 0, 57, 70
2, 8260, Note_on_c, 0, 64, 70
2, 8260, Note_on_c, 0, 61, 70
2, 8374, Note_on_c, 0, 57, 0
2, 8382, Note_on_c, 0, 64, 0
2, 8402, Note_on_c, 0, 61, 0
2, 8448, Note_on_c, 0, 57, 60
2, 8452, Note_on_c, 0, 61, 60
2, 8452, Note_on_c, 0, 64, 60
2, 8532, Note_on_c, 0, 57, 0
2, 8612, Note_on_c, 0, 64, 0
2, 8622, Note_on_c, 0, 61, 0
2, 8628, Control_c, 0, 64, 0
2, 8814, Control_c, 0, 64, 127
2, 8832, Note_on_c, 0, 59, 55
2, 8838, Note_on_c, 0, 64, 62
2, 8838, Note_on_c, 0, 55, 62
2, 8950, Note_on_c, 0, 59, 0
2, 8960, Note_on_c, 0, 55, 0
2, 8980, Note_on_c, 0, 64, 0
2, 9024, Note_on_c, 0, 59, 66
2, 9028, Note_on_c, 0, 55, 60
2, 9028, Note_on_c, 0, 64, 62
2, 9168, Note_on_c, 0, 55, 0
2, 9196, Note_on_c, 0, 59, 0
2, 9198, Note_on_c, 0, 64, 0
2, 9408, Note_on_c, 0, 59, 49
2, 9410, Note_on_c, 0, 64, 67
2, 9410, Note_on_c, 0, 55, 65
2, 9532, Note_on_c, 0, 59, 0
2, 9536, Note_on_c, 0, 55, 0
2, 9550, Note_on_c, 0, 64, 0
2, 9600, Note_on_c, 0, 59, 72
2, 9602, Note_on_c, 0, 64, 58
2, 9602, Note_on_c, 0, 55, 62
2, 9736, Note_on_c, 0, 55, 0
2, 9788, Note_on_c, 0, 59, 0
2, 9798, Note_on_c, 0, 64, 0
2, 9984, Note_on_c, 0, 59, 61
2, 9988, Note_on_c, 0, 64, 60
2, 9988, Note_on_c, 0, 55, 67
2, 10102, Note_on_c, 0, 59, 0
2, 10118, Note_on_c, 0, 55, 0
2, 10134, Note_on_c, 0, 64, 0
2, 10176, Note_on_c, 0, 59, 59
2, 10178, Note_on_c, 0, 55, 60
2, 10178, Note_on_c, 0, 64, 65
2, 10322, Note_on_c, 0, 55, 0
2, 10352, Note_on_c, 0, 64, 0
2, 10354, Note_on_c, 0, 59, 0
2, 10560, Note_on_c, 0, 59, 55
2, 10564, Note_on_c, 0, 55, 65
2, 10564, Note_on_c, 0, 64, 62
2, 10688, Note_on_c, 0, 55, 0
2, 10694, Note_on_c, 0, 59, 0
2, 10700, Note_on_c, 0, 64, 0
2, 10752, Note_on_c, 0, 59, 59
2, 10756, Note_on_c, 0, 55, 60
2, 10756, Note_on_c, 0, 64, 65
2, 10872, Note_on_c, 0, 59, 0
2, 10902, Control_c, 0, 64, 0
2, 10904, Note_on_c, 0, 55, 0
2, 10916, Note_on_c, 0, 64, 0
2, 11136, Note_on_c, 0, 53, 55
2, 11136, Note_on_c, 0, 58, 43
2, 11142, Note_on_c, 0, 62, 65
2, 11142, Note_on_c, 0, 65, 59
2, 11152, Control_c, 0, 64, 127
2, 11270, Note_on_c, 0, 65, 0
2, 11280, Note_on_c, 0, 53, 0
2, 11280, Note_on_c, 0, 58, 0
2, 11284, Note_on_c, 0, 62, 0
2, 11328, Note_on_c, 0, 58, 43
2, 11328, Note_on_c, 0, 53, 55
2, 11334, Note_on_c, 0, 65, 66
2, 11334, Note_on_c, 0, 62, 70
2, 11458, Note_on_c, 0, 62, 0
2, 11466, Note_on_c, 0, 65, 0
2, 11472, Note_on_c, 0, 53, 0
2, 11472, Note_on_c, 0, 58, 0
2, 11712, Note_on_c, 0, 58, 43
2, 11712, Note_on_c, 0, 53, 55
2, 11718, Note_on_c, 0, 62, 65
2, 11718, Note_on_c, 0, 65, 59
2, 11846, Note_on_c, 0, 65, 0
2, 11856, Note_on_c, 0, 58, 0
2, 11856, Note_on_c, 0, 53, 0
2, 11860, Note_on_c, 0, 62, 0
2, 11904, Note_on_c, 0, 58, 43
2, 11904, Note_on_c, 0, 53, 55
2, 11910, Note_on_c, 0, 62, 70
2, 11910, Note_on_c, 0, 65, 66
2, 12034, Note_on_c, 0, 62, 0
2, 12042, Note_on_c, 0, 65, 0
2, 12048, Note_on_c, 0, 53, 0
2, 12048, Note_on_c, 0, 58, 0
2, 12288, Note_on_c, 0, 58, 43
2, 12288, Note_on_c, 0, 53, 55
2, 12294, Note_on_c, 0, 62, 65
2, 12294, Note_on_c, 0, 65, 59
2, 12422, Note_on_c, 0, 65, 0
2, 12432, Note_on_c, 0, 58, 0
2, 12432, Note_on_c, 0, 53, 0
2, 12436, Note_on_c, 0, 62, 0
2, 12480, Note_on_c, 0, 53, 55
2, 12480, Note_on_c, 0, 58, 43
2, 12486, Note_on_c, 0, 62, 70
2, 12486, Note_on_c, 0, 65, 66
2, 12610, Note_on_c, 0, 62, 0
2, 12618, Note_on_c, 0, 65, 0
2, 12624, Note_on_c, 0, 58, 0
2, 12624, Note_on_c, 0, 53, 0
2, 12864, Note_on_c, 0, 53, 55
2, 12864, Note_on_c, 0, 58, 43
2, 12870, Note_on_c, 0, 62, 65
2, 12870, Note_on_c, 0, 65, 59
2, 12998, Note_on_c, 0, 65, 0
2, 13008, Note_on_c, 0, 53, 0
2, 13008, Note_on_c, 0, 58, 0
2, 13012, Note_on_c, 0, 62, 0
2, 13056, Note_on_c, 0, 58, 43
2, 13056, Note_on_c, 0, 53, 55
2, 13062, Note_on_c, 0, 65, 66
2, 13062, Note_on_c, 0, 62, 70
2, 13186, Note_on_c, 0, 62, 0
2, 13194, Note_on_c, 0, 65, 0
2, 13200, Note_on_c, 0, 53, 0
2, 13200, Note_on_c, 0, 58, 0
2, 13440, Note_on_c, 0, 58, 43
2, 13440, Note_on_c, 0, 53, 55
2, 13446, Note_on_c, 0, 62, 65
2, 13446, Note_on_c, 0, 65, 59
2, 13574, Note_on_c, 0, 65, 0
2, 13584, Note_on_c, 0, 58, 0
2, 13584, Note_on_c, 0, 53, 0
2, 13588, Note_on_c, 0, 62, 0
2, 13632, Note_on_c, 0, 58, 43
2, 13632, Note_on_c, 0, 53, 55
2, 13638, Note_on_c, 0, 62, 70
2, 13638, Note_on_c, 0, 65, 66
2, 13762, Note_on_c, 0, 62, 0
2, 13770, Note_on_c, 0, 65, 0
2, 13776, Note_on_c, 0, 53, 0
2, 13776, Note_on_c, 0, 58, 0
2, 14016, Note_on_c, 0, 58, 43
2, 14016, Note_on_c, 0, 53, 55
2, 14022, Note_on_c, 0, 62, 65
2, 14022, Note_on_c, 0, 65, 59
2, 14150, Note_on_c, 0, 65, 0
2, 14160, Note_on_c, 0, 58, 0
2, 14160, Note_on_c, 0, 53, 0
2, 14164, Note_on_c, 0, 62, 0
2, 14208, Note_on_c, 0, 53, 55
2, 14208, Note_on_c, 0, 58, 43
2, 14214, Note_on_c, 0, 62, 70
2, 14214, Note_on_c, 0, 65, 66
2, 14338, Note_on_c, 0, 62, 0
2, 14346, Note_on_c, 0, 65, 0
2, 14352, Note_on_c, 0, 58, 0
2, 14352, Note_on_c, 0, 53, 0
2, 14592, Note_on_c, 0, 53, 55
2, 14592, Note_on_c, 0, 58, 43
2, 14598, Note_on_c, 0, 62, 65
2, 14598, Note_on_c, 0, 65, 59
2, 14726, Note_on_c, 0, 65, 0
2, 14736, Note_on_c, 0, 53, 0
2, 14736, Note_on_c, 0, 58, 0
2, 14740, Note_on_c, 0, 62, 0
2, 14784, Note_on_c, 0, 53, 55
2, 14784, Note_on_c, 0, 58, 43
2, 14790, Note_on_c, 0, 65, 66
2, 14790, Note_on_c, 0, 62, 70
2, 14914, Note_on_c, 0, 62, 0
2, 14922, Note_on_c, 0, 65, 0
2, 14928, Note_on_c, 0, 58, 0
2, 14928, Note_on_c, 0, 53, 0
2, 15168, Note_on_c, 0, 58, 43
2, 15168, Note_on_c, 0, 53, 55
2, 15174, Note_on_c, 0, 65, 59
2, 15174, Note_on_c, 0, 62, 65
2, 15302, Note_on_c, 0, 65, 0
2, 15312, Note_on_c, 0, 58, 0
2, 15312, Note_on_c, 0, 53, 0
2, 15316, Note_on_c, 0, 62, 0
2, 15360, Note_on_c, 0, 58, 43
2, 15360, Note_on_c, 0, 53, 55
2, 15366, Note_on_c, 0, 65, 66
2, 15366, Note_on_c, 0, 62, 70
2, 15490, Note_on_c, 0, 62, 0
2, 15498, Note_on_c, 0, 65, 0
2, 15504, Note_on_c, 0, 53, 0
2, 15504, Note_on_c, 0, 58, 0
2, 15744, Note_on_c, 0, 57, 50
2, 15746, Note_on_c, 0, 61, 75
2, 15746, Note_on_c, 0, 64, 72
2, 15854, Note_on_c, 0, 64, 0
2, 15862, Note_on_c, 0, 57, 0
2, 15876, Note_on_c, 0, 61, 0
2, 15936, Note_on_c, 0, 57, 33
2, 15938, Note_on_c, 0, 64, 50
2, 15938, Note_on_c, 0, 61, 50
2, 16040, Note_on_c, 0, 61, 0
2, 16050, Note_on_c, 0, 64, 0
2, 16104, Note_on_c, 0, 57, 0
2, 16320, Note_on_c, 0, 57, 60
2, 16322, Note_on_c, 0, 61, 75
2, 16322, Note_on_c, 0, 64, 75
2, 16430, Note_on_c, 0, 57, 0
2, 16434, Note_on_c, 0, 64, 0
2, 16446, Note_on_c, 0, 61, 0
2, 16512, Note_on_c, 0, 57, 52
2, 16514, Note_on_c, 0, 64, 44
2, 16514, Note_on_c, 0, 61, 48
2, 16600, Note_on_c, 0, 57, 0
2, 16642, Note_on_c, 0, 64, 0
2, 16654, Control_c, 0, 64, 0
2, 16660, Note_on_c, 0, 61, 0
2, 16844, Control_c, 0, 64, 127
2, 16896, Note_on_c, 0, 61, 52
2, 16898, Note_on_c, 0, 66, 70
2, 16898, Note_on_c, 0, 57, 65
2, 17016, Note_on_c, 0, 61, 0
2, 17020, Note_on_c, 0, 57, 0
2, 17036, Note_on_c, 0, 66, 0
2, 17088, Note_on_c, 0, 61, 42
2, 17090, Note_on_c, 0, 57, 37
2, 17090, Note_on_c, 0, 66, 50
2, 17184, Note_on_c, 0, 61, 0
2, 17210, Note_on_c, 0, 57, 0
2, 17212, Control_c, 0, 64, 0
2, 17238, Note_on_c, 0, 66, 0
2, 17410, Control_c, 0, 64, 127
2, 17472, Note_on_c, 0, 56, 42
2, 17474, Note_on_c, 0, 59, 67
2, 17474, Note_on_c, 0, 64, 80
2, 17582, Note_on_c, 0, 64, 0
2, 17590, Note_on_c, 0, 59, 0
2, 17600, Note_on_c, 0, 56, 0
2, 17664, Note_on_c, 0, 56, 50
2, 17666, Note_on_c, 0, 59, 66
2, 17666, Note_on_c, 0, 64, 52
2, 17762, Note_on_c, 0, 56, 0
2, 17782, Note_on_c, 0, 59, 0
2, 17794, Note_on_c, 0, 64, 0
2, 17816, Control_c, 0, 64, 0
2, 17992, Control_c, 0, 64, 127
2, 18048, Note_on_c, 0, 54, 60
2, 18052, Note_on_c, 0, 57, 67
2, 18052, Note_on_c, 0, 62, 72
2, 18168, Note_on_c, 0, 62, 0
2, 18168, Note_on_c, 0, 54, 0
2, 18186, Note_on_c, 0, 57, 0
2, 18240, Note_on_c, 0, 54, 60
2, 18244, Note_on_c, 0, 62, 50
2, 18244, Note_on_c, 0, 57, 60
2, 18354, Note_on_c, 0, 62, 0
2, 18368, Note_on_c, 0, 57, 0
2, 18376, Control_c, 0, 64, 0
2, 18394, Note_on_c, 0, 54, 0
2, 18618, Control_c, 0, 64, 127
2, 18624, Note_on_c, 0, 56, 58
2, 18626, Note_on_c, 0, 61, 67
2, 18626, Note_on_c, 0, 64, 72
2, 18732, Note_on_c, 0, 56, 0
2, 18742, Note_on_c, 0, 64, 0
2, 18752, Note_on_c, 0, 61, 0
2, 18816, Note_on_c, 0, 54, 58
2, 18818, Note_on_c, 0, 62, 55
2, 18818, Note_on_c, 0, 59, 58
2, 18924, Note_on_c, 0, 54, 0
2, 18932, Note_on_c, 0, 62, 0
2, 18938, Control_c, 0, 64, 0
2, 18946, Note_on_c, 0, 59, 0
2, 19132, Control_c, 0, 64, 127
2, 19200, Note_on_c, 0, 59, 76
2, 19200, Note_on_c, 0, 56, 37
2, 19204, Note_on_c, 0, 64, 67
2, 19300, Note_on_c, 0, 59, 0
2, 19316, Note_on_c, 0, 56, 0
2, 19320, Note_on_c, 0, 64, 0
2, 19392, Note_on_c, 0, 56, 52
2, 19394, Note_on_c, 0, 64, 50
2, 19394, Note_on_c, 0, 59, 59
2, 19576, Control_c, 0, 64, 0
2, 19584, Note_on_c, 0, 56, 0
2, 19586, Note_on_c, 0, 59, 0
2, 19586, Note_on_c, 0, 64, 0
2, 19748, Control_c, 0, 64, 127
2, 19776, Note_on_c, 0, 57, 58
2, 19778, Note_on_c, 0, 64, 75
2, 19780, Note_on_c, 0, 61, 65
2, 19894, Note_on_c, 0, 61, 0
2, 19900, Note_on_c, 0, 64, 0
2, 19900, Note_on_c, 0, 57, 0
2, 19968, Note_on_c, 0, 57, 62
2, 19972, Note_on_c, 0, 61, 58
2, 19972, Note_on_c, 0, 64, 65
2, 20068, Note_on_c, 0, 57, 0
2, 20098, Note_on_c, 0, 61, 0
2, 20104, Control_c, 0, 64, 0
2, 20122, Note_on_c, 0, 64, 0
2, 20338, Control_c, 0, 64, 127
2, 20352, Note_on_c, 0, 54, 58
2, 20358, Note_on_c, 0, 62, 75
2, 20358, Note_on_c, 0, 57, 77
2, 20468, Note_on_c, 0, 54, 0
2, 20470, Note_on_c, 0, 57, 0
2, 20486, Note_on_c, 0, 62, 0
2, 20544, Note_on_c, 0, 54, 60
2, 20548, Note_on_c, 0, 57, 60
2, 20548, Note_on_c, 0, 62, 58
2, 20654, Note_on_c, 0, 54, 0
2, 20676, Note_on_c, 0, 57, 0
2, 20678, Control_c, 0, 64, 0
2, 20686, Note_on_c, 0, 62, 0
2, 20884, Control_c, 0, 64, 127
2, 20928, Note_on_c, 0, 56, 38
2, 20932, Note_on_c, 0, 64, 72
2, 20932, Note_on_c, 0, 62, 80
2, 20988, Note_on_c, 0, 56, 0
2, 21026, Note_on_c, 0, 64, 0
2, 21028, Note_on_c, 0, 56, 58
2, 21032, Note_on_c, 0, 62, 0
2, 21114, Note_on_c, 0, 56, 0
2, 21120, Note_on_c, 0, 56, 46
2, 21124, Note_on_c, 0, 64, 60
2, 21124, Note_on_c, 0, 62, 66
2, 21204, Note_on_c, 0, 56, 0
2, 21236, Note_on_c, 0, 62, 0
2, 21236, Control_c, 0, 64, 0
2, 21246, Note_on_c, 0, 64, 0
2, 21504, Note_on_c, 0, 57, 48
2, 21506, Note_on_c, 0, 64, 65
2, 21506, Note_on_c, 0, 61, 70
2, 21532, Control_c, 0, 64, 127
2, 21686, Note_on_c, 0, 61, 0
2, 21686, Note_on_c, 0, 57, 0
2, 21688, Note_on_c, 0, 64, 0
2, 21696, Note_on_c, 0, 57, 58
2, 21698, Note_on_c, 0, 61, 52
2, 21698, Note_on_c, 0, 64, 60
2, 21802, Control_c, 0, 64, 0
2, 21888, Note_on_c, 0, 57, 0
2, 21890, Note_on_c, 0, 64, 0
2, 21890, Note_on_c, 0, 61, 0
2, 22080, Note_on_c, 0, 57, 48
2, 22082, Note_on_c, 0, 64, 75
2, 22082, Note_on_c, 0, 61, 70
2, 22270, Note_on_c, 0, 57, 0
2, 22272, Note_on_c, 0, 61, 0
2, 22272, Note_on_c, 0, 64, 0
2, 22272, Note_on_c, 0, 57, 42
2, 22274, Note_on_c, 0, 64, 62
2, 22274, Note_on_c, 0, 61, 58
2, 22436, Note_on_c, 0, 61, 0
2, 22464, Note_on_c, 0, 57, 0
2, 22466, Note_on_c, 0, 64, 0
2, 22536, Control_c, 0, 64, 127
2, 22656, Note_on_c, 0, 54, 96
2, 22656, Note_on_c, 0, 57, 96
2, 22656, Note_on_c, 0, 62, 96
2, 22766, Note_on_c, 0, 62, 0
2, 22798, Note_on_c, 0, 57, 0
2, 22800, Note_on_c, 0, 54, 0
2, 22848, Note_on_c, 0, 62, 91
2, 22850, Note_on_c, 0, 57, 91
2, 22850, Note_on_c, 0, 54, 91
2, 23000, Control_c, 0, 64, 0
2, 23040, Note_on_c, 0, 62, 0
2, 23042, Note_on_c, 0, 54, 0
2, 23042, Note_on_c, 0, 57, 0
2, 23232, Note_on_c, 0, 55, 76
2, 23234, Note_on_c, 0, 64, 103
2, 23234, Note_on_c, 0, 59, 101
2, 23240, Control_c, 0, 64, 127
2, 23376, Note_on_c, 0, 55, 0
2, 23382, Note_on_c, 0, 59, 0
2, 23388, Note_on_c, 0, 64, 0
2, 23424, Note_on_c, 0, 55, 74
2, 23426, Note_on_c, 0, 59, 93
2, 23426, Note_on_c, 0, 64, 91
2, 23584, Note_on_c, 0, 59, 0
2, 23586, Control_c, 0, 64, 0
2, 23600, Note_on_c, 0, 64, 0
2, 23616, Note_on_c, 0, 55, 0
2, 23810, Note_on_c, 0, 66, 106
2, 23812, Note_on_c, 0, 57, 86
2, 23812, Note_on_c, 0, 61, 101
2, 23836, Control_c, 0, 64, 127
2, 23878, Note_on_c, 0, 57, 0
2, 23906, Note_on_c, 0, 57, 70
2, 23948, Note_on_c, 0, 61, 0
2, 23950, Note_on_c, 0, 66, 0
2, 23996, Note_on_c, 0, 57, 0
2, 24000, Note_on_c, 0, 57, 88
2, 24002, Note_on_c, 0, 66, 91
2, 24004, Note_on_c, 0, 61, 81
2, 24176, Note_on_c, 0, 57, 0
2, 24188, Control_c, 0, 64, 0
2, 24194, Note_on_c, 0, 66, 0
2, 24196, Note_on_c, 0, 61, 0
2, 24388, Note_on_c, 0, 57, 88
2, 24388, Note_on_c, 0, 61, 101
2, 24388, Note_on_c, 0, 66, 106
2, 24576, Note_on_c, 0, 55, 93
2, 24580, Note_on_c, 0, 66, 0
2, 24580, Note_on_c, 0, 57, 0
2, 24580, Note_on_c, 0, 61, 0
2, 24580, Note_on_c, 0, 64, 93
2, 24580, Note_on_c, 0, 59, 86
2, 24768, Note_on_c, 0, 55, 0
2, 24772, Note_on_c, 0, 59, 0
2, 24772, Note_on_c, 0, 64, 0
2, 24840, Control_c, 0, 64, 127
2, 24960, Note_on_c, 0, 62, 96
2, 24960, Note_on_c, 0, 57, 96
2, 24960, Note_on_c, 0, 54, 96
2, 25070, Note_on_c, 0, 62, 0
2, 25102, Note_on_c, 0, 57, 0
2, 25104, Note_on_c, 0, 54, 0
2, 25152, Note_on_c, 0, 62, 91
2, 25154, Note_on_c, 0, 54, 91
2, 25154, Note_on_c, 0, 57, 91
2, 25304, Control_c, 0, 64, 0
2, 25344, Note_on_c, 0, 62, 0
2, 25346, Note_on_c, 0, 57, 0
2, 25346, Note_on_c, 0, 54, 0
2, 25536, Note_on_c, 0, 55, 76
2, 25538, Note_on_c, 0, 64, 103
2, 25538, Note_on_c, 0, 59, 101
2, 25544, Control_c, 0, 64, 127
2, 25680, Note_on_c, 0, 55, 0
2, 25686, Note_on_c, 0, 59, 0
2, 25692, Note_on_c, 0, 64, 0
2, 25728, Note_on_c, 0, 55, 74
2, 25730, Note_on_c, 0, 64, 91
2, 25730, Note_on_c, 0, 59, 93
2, 25888, Note_on_c, 0, 59, 0
2, 25890, Control_c, 0, 64, 0
2, 25904, Note_on_c, 0, 64, 0
2, 25920, Note_on_c, 0, 55, 0
2, 26114, Note_on_c, 0, 66, 106
2, 26116, Note_on_c, 0, 57, 86
2, 26116, Note_on_c, 0, 61, 101
2, 26140, Control_c, 0, 64, 127
2, 26302, Note_on_c, 0, 61, 0
2, 26302, Note_on_c, 0, 57, 0
2, 26302, Note_on_c, 0, 66, 0
2, 26304, Note_on_c, 0, 57, 88
2, 26304, Note_on_c, 0, 61, 81
2, 26304, Note_on_c, 0, 66, 91
2, 26480, Note_on_c, 0, 57, 0
2, 26492, Control_c, 0, 64, 0
2, 26496, Note_on_c, 0, 66, 0
2, 26496, Note_on_c, 0, 61, 0
2, 26692, Note_on_c, 0, 57, 88
2, 26692, Note_on_c, 0, 61, 101
2, 26692, Note_on_c, 0, 66, 106
2, 26880, Note_on_c, 0, 55, 93
2, 26884, Note_on_c, 0, 66, 0
2, 26884, Note_on_c, 0, 57, 0
2, 26884, Note_on_c, 0, 61, 0
2, 26884, Note_on_c, 0, 64, 93
2, 26884, Note_on_c, 0, 59, 86
2, 27072, Note_on_c, 0, 55, 0
2, 27076, Note_on_c, 0, 59, 0
2, 27076, Note_on_c, 0, 64, 0
2, 27144, Control_c, 0, 64, 127
2, 27264, Note_on_c, 0, 54, 96
2, 27264, Note_on_c, 0, 57, 96
2, 27264, Note_on_c, 0, 62, 96
2, 27374, Note_on_c, 0, 62, 0
2, 27406, Note_on_c, 0, 57, 0
2, 27408, Note_on_c, 0, 54, 0
2, 27456, Note_on_c, 0, 62, 91
2, 27458, Note_on_c, 0, 57, 91
2, 27458, Note_on_c, 0, 54, 91
2, 27608, Control_c, 0, 64, 0
2, 27648, Note_on_c, 0, 62, 0
2, 27650, Note_on_c, 0, 54, 0
2, 27650, Note_on_c, 0, 57, 0
2, 27720, Control_c, 0, 64, 127
2, 27840, Note_on_c, 0, 54, 96
2, 27840, Note_on_c, 0, 57, 96
2, 27840, Note_on_c, 0, 62, 96
2, 27950, Note_on_c, 0, 62, 0
2, 27982, Note_on_c, 0, 57, 0
2, 27984, Note_on_c, 0, 54, 0
2, 28032, Note_on_c, 0, 62, 91
2, 28034, Note_on_c, 0, 57, 91
2, 28034, Note_on_c, 0, 54, 91
2, 28184, Control_c, 0, 64, 0
2, 28224, Note_on_c, 0, 62, 0
2, 28226, Note_on_c, 0, 54, 0
2, 28226, Note_on_c, 0, 57, 0
2, 28416, Note_on_c, 0, 56, 84
2, 28420, Note_on_c, 0, 64, 101
2, 28420, Note_on_c, 0, 62, 98
2, 28482, Control_c, 0, 64, 127
2, 28514, Note_on_c, 0, 56, 0
2, 28560, Note_on_c, 0, 62, 0
2, 28560, Note_on_c, 0, 64, 0
2, 28608, Note_on_c, 0, 62, 74
2, 28614, Note_on_c, 0, 56, 98
2, 28614, Note_on_c, 0, 64, 93
2, 28704, Note_on_c, 0, 56, 0
2, 28706, Note_on_c, 0, 64, 0
2, 28772, Note_on_c, 0, 62, 0
2, 28996, Note_on_c, 0, 64, 91
2, 28996, Note_on_c, 0, 62, 106
2, 28996, Note_on_c, 0, 56, 98
2, 29080, Note_on_c, 0, 64, 0
2, 29096, Note_on_c, 0, 56, 0
2, 29100, Note_on_c, 0, 62, 0
2, 29186, Note_on_c, 0, 64, 71
2, 29188, Note_on_c, 0, 56, 71
2, 29188, Note_on_c, 0, 62, 71
2, 29258, Control_c, 0, 64, 0
2, 29316, Note_on_c, 0, 64, 0
2, 29356, Note_on_c, 0, 56, 0
2, 29358, Note_on_c, 0, 62, 0
2, 29414, Control_c, 0, 64, 127
2, 29568, Note_on_c, 0, 57, 68
2, 29570, Note_on_c, 0, 64, 68
2, 29572, Note_on_c, 0, 61, 68
2, 29694, Note_on_c, 0, 57, 0
2, 29702, Note_on_c, 0, 64, 0
2, 29714, Note_on_c, 0, 61, 0
2, 29760, Note_on_c, 0, 57, 59
2, 29764, Note_on_c, 0, 64, 59
2, 29764, Note_on_c, 0, 61, 59
2, 29896, Note_on_c, 0, 64, 0
2, 29918, Note_on_c, 0, 61, 0
2, 29924, Note_on_c, 0, 57, 0
2, 30144, Note_on_c, 0, 57, 70
2, 30148, Note_on_c, 0, 64, 70
2, 30148, Note_on_c, 0, 61, 70
2, 30262, Note_on_c, 0, 57, 0
2, 30270, Note_on_c, 0, 64, 0
2, 30290, Note_on_c, 0, 61, 0
2, 30336, Note_on_c, 0, 57, 60
2, 30340, Note_on_c, 0, 61, 60
2, 30340, Note_on_c, 0, 64, 60
2, 30420, Note_on_c, 0, 57, 0
2, 30500, Note_on_c, 0, 64, 0
2, 30510, Note_on_c, 0, 61, 0
2, 30516, Control_c, 0, 64, 0
2, 30702, Control_c, 0, 64, 127
2, 30720, Note_on_c, 0, 59, 55
2, 30726, Note_on_c, 0, 55, 62
2, 30726, Note_on_c, 0, 64, 62
2, 30838, Note_on_c, 0, 59, 0
2, 30848, Note_on_c, 0, 55, 0
2, 30868, Note_on_c, 0, 64, 0
2, 30912, Note_on_c, 0, 59, 66
2, 30916, Note_on_c, 0, 55, 60
2, 30916, Note_on_c, 0, 64, 62
2, 31056, Note_on_c, 0, 55, 0
2, 31084, Note_on_c, 0, 59, 0
2, 31086, Note_on_c, 0, 64, 0
2, 31296, Note_on_c, 0, 59, 49
2, 31298, Note_on_c, 0, 55, 65
2, 31298, Note_on_c, 0, 64, 67
2, 31420, Note_on_c, 0, 59, 0
2, 31424, Note_on_c, 0, 55, 0
2, 31438, Note_on_c, 0, 64, 0
2, 31488, Note_on_c, 0, 59, 72
2, 31490, Note_on_c, 0, 64, 58
2, 31490, Note_on_c, 0, 55, 62
2, 31624, Note_on_c, 0, 55, 0
2, 31676, Note_on_c, 0, 59, 0
2, 31686, Note_on_c, 0, 64, 0
2, 31872, Note_on_c, 0, 59, 61
2, 31876, Note_on_c, 0, 55, 67
2, 31876, Note_on_c, 0, 64, 60
2, 31990, Note_on_c, 0, 59, 0
2, 32006, Note_on_c, 0, 55, 0
2, 32022, Note_on_c, 0, 64, 0
2, 32064, Note_on_c, 0, 59, 59
2, 32066, Note_on_c, 0, 64, 65
2, 32066, Note_on_c, 0, 55, 60
2, 32210, Note_on_c, 0, 55, 0
2, 32240, Note_on_c, 0, 64, 0
2, 32242, Note_on_c, 0, 59, 0
2, 32448, Note_on_c, 0, 59, 55
2, 32452, Note_on_c, 0, 55, 65
2, 32452, Note_on_c, 0, 64, 62
2, 32576, Note_on_c, 0, 55, 0
2, 32582, Note_on_c, 0, 59, 0
2, 32588, Note_on_c, 0, 64, 0
2, 32640, Note_on_c, 0, 59, 59
2, 32644, Note_on_c, 0, 55, 60
2, 32644, Note_on_c, 0, 64, 65
2, 32760, Note_on_c, 0, 59, 0
2, 32790, Control_c, 0, 64, 0
2, 32792, Note_on_c, 0, 55, 0
2, 32804, Note_on_c, 0, 64, 0
2, 33024, Note_on_c, 0, 53, 55
2, 33024, Note_on_c, 0, 58, 43
2, 33030, Note_on_c, 0, 65, 59
2, 33030, Note_on_c, 0, 62, 65
2, 33040, Control_c, 0, 64, 127
2, 33158, Note_on_c, 0, 65, 0
2, 33168, Note_on_c, 0, 53, 0
2, 33168, Note_on_c, 0, 58, 0
2, 33172, Note_on_c, 0, 62, 0
2, 33216, Note_on_c, 0, 58, 43
2, 33216, Note_on_c, 0, 53, 55
2, 33222, Note_on_c, 0, 65, 66
2, 33222, Note_on_c, 0, 62, 70
2, 33346, Note_on_c, 0, 62, 0
2, 33354, Note_on_c, 0, 65, 0
2, 33360, Note_on_c, 0, 53, 0
2, 33360, Note_on_c, 0, 58, 0
2, 33600, Note_on_c, 0, 58, 43
2, 33600, Note_on_c, 0, 53, 55
2, 33606, Note_on_c, 0, 62, 65
2, 33606, Note_on_c, 0, 65, 59
2, 33734, Note_on_c, 0, 65, 0
2, 33744, Note_on_c, 0, 58, 0
2, 33744, Note_on_c, 0, 53, 0
2, 33748, Note_on_c, 0, 62, 0
2, 33792, Note_on_c, 0, 53, 55
2, 33792, Note_on_c, 0, 58, 43
2, 33798, Note_on_c, 0, 62, 70
2, 33798, Note_on_c, 0, 65, 66
2, 33922, Note_on_c, 0, 62, 0
2, 33930, Note_on_c, 0, 65, 0
2, 33936, Note_on_c, 0, 58, 0
2, 33936, Note_on_c, 0, 53, 0
2, 34176, Note_on_c, 0, 58, 43
2, 34176, Note_on_c, 0, 53, 55
2, 34182, Note_on_c, 0, 65, 59
2, 34182, Note_on_c, 0, 62, 65
2, 34310, Note_on_c, 0, 65, 0
2, 34320, Note_on_c, 0, 58, 0
2, 34320, Note_on_c, 0, 53, 0
2, 34324, Note_on_c, 0, 62, 0
2, 34368, Note_on_c, 0, 53, 55
2, 34368, Note_on_c, 0, 58, 43
2, 34374, Note_on_c, 0, 62, 70
2, 34374, Note_on_c, 0, 65, 66
2, 34498, Note_on_c, 0, 62, 0
2, 34506, Note_on_c, 0, 65, 0
2, 34512, Note_on_c, 0, 58, 0
2, 34512, Note_on_c, 0, 53, 0
2, 34752, Note_on_c, 0, 53, 55
2, 34752, Note_on_c, 0, 58, 43
2, 34758, Note_on_c, 0, 62, 65
2, 34758, Note_on_c, 0, 65, 59
2, 34886, Note_on_c, 0, 65, 0
2, 34896, Note_on_c, 0, 53, 0
2, 34896, Note_on_c, 0, 58, 0
2, 34900, Note_on_c, 0, 62, 0
2, 34944, Note_on_c, 0, 58, 43
2, 34944, Note_on_c, 0, 53, 55
2, 34950, Note_on_c, 0, 62, 70
2, 34950, Note_on_c, 0, 65, 66
2, 35074, Note_on_c, 0, 62, 0
2, 35082, Note_on_c, 0, 65, 0
2, 35088, Note_on_c, 0, 53, 0
2, 35088, Note_on_c, 0, 58, 0
2, 35328, Note_on_c, 0, 58, 43
2, 35328, Note_on_c, 0, 53, 55
2, 35334, Note_on_c, 0, 65, 59
2, 35334, Note_on_c, 0, 62, 65
2, 35462, Note_on_c, 0, 65, 0
2, 35472, Note_on_c, 0, 58, 0
2, 35472, Note_on_c, 0, 53, 0
2, 35476, Note_on_c, 0, 62, 0
2, 35520, Note_on_c, 0, 58, 43
2, 35520, Note_on_c, 0, 53, 55
2, 35526, Note_on_c, 0, 62, 70
2, 35526, Note_on_c, 0, 65, 66
2, 35650, Note_on_c, 0, 62, 0
2, 35658, Note_on_c, 0, 65, 0
2, 35664, Note_on_c, 0, 53, 0
2, 35664, Note_on_c, 0, 58, 0
2, 35904, Note_on_c, 0, 58, 43
2, 35904, Note_on_c, 0, 53, 55
2, 35910, Note_on_c, 0, 62, 65
2, 35910, Note_on_c, 0, 65, 59
2, 36038, Note_on_c, 0, 65, 0
2, 36048, Note_on_c, 0, 58, 0
2, 36048, Note_on_c, 0, 53, 0
2, 36052, Note_on_c, 0, 62, 0
2, 36096, Note_on_c, 0, 53, 55
2, 36096, Note_on_c, 0, 58, 43
2, 36102, Note_on_c, 0, 62, 70
2, 36102, Note_on_c, 0, 65, 66
2, 36226, Note_on_c, 0, 62, 0
2, 36234, Note_on_c, 0, 65, 0
2, 36240, Note_on_c, 0, 58, 0
2, 36240, Note_on_c, 0, 53, 0
2, 36480, Note_on_c, 0, 58, 43
2, 36480, Note_on_c, 0, 53, 55
2, 36486, Note_on_c, 0, 62, 65
2, 36486, Note_on_c, 0, 65, 59
2, 36614, Note_on_c, 0, 65, 0
2, 36624, Note_on_c, 0, 58, 0
2, 36624, Note_on_c, 0, 53, 0
2, 36628, Note_on_c, 0, 62, 0
2, 36672, Note_on_c, 0, 58, 43
2, 36672, Note_on_c, 0, 53, 55
2, 36678, Note_on_c, 0, 65, 66
2, 36678, Note_on_c, 0, 62, 70
2, 36802, Note_on_c, 0, 62, 0
2, 36810, Note_on_c, 0, 65, 0
2, 36816, Note_on_c, 0, 53, 0
2, 36816, Note_on_c, 0, 58, 0
2, 37056, Note_on_c, 0, 53, 55
2, 37056, Note_on_c, 0, 58, 43
2, 37062, Note_on_c, 0, 62, 65
2, 37062, Note_on_c, 0, 65, 59
2, 37190, Note_on_c, 0, 65, 0
2, 37200, Note_on_c, 0, 53, 0
2, 37200, Note_on_c, 0, 58, 0
2, 37204, Note_on_c, 0, 62, 0
2, 37248, Note_on_c, 0, 58, 43
2, 37248, Note_on_c, 0, 53, 55
2, 37254, Note_on_c, 0, 62, 70
2, 37254, Note_on_c, 0, 65, 66
2, 37378, Note_on_c, 0, 62, 0
2, 37386, Note_on_c, 0, 65, 0
2, 37392, Note_on_c, 0, 53, 0
2, 37392, Note_on_c, 0, 58, 0
2, 37632, Note_on_c, 0, 57, 50
2, 37634, Note_on_c, 0, 64, 72
2, 37634, Note_on_c, 0, 61, 75
2, 37742, Note_on_c, 0, 64, 0
2, 37750, Note_on_c, 0, 57, 0
2, 37764, Note_on_c, 0, 61, 0
2, 37824, Note_on_c, 0, 57, 33
2, 37826, Note_on_c, 0, 61, 50
2, 37826, Note_on_c, 0, 64, 50
2, 37928, Note_on_c, 0, 61, 0
2, 37938, Note_on_c, 0, 64, 0
2, 37992, Note_on_c, 0, 57, 0
2, 38208, Note_on_c, 0, 57, 60
2, 38210, Note_on_c, 0, 61, 75
2, 38210, Note_on_c, 0, 64, 75
2, 38318, Note_on_c, 0, 57, 0
2, 38322, Note_on_c, 0, 64, 0
2, 38334, Note_on_c, 0, 61, 0
2, 38400, Note_on_c, 0, 57, 52
2, 38402, Note_on_c, 0, 61, 48
2, 38402, Note_on_c, 0, 64, 44
2, 38488, Note_on_c, 0, 57, 0
2, 38530, Note_on_c, 0, 64, 0
2, 38542, Control_c, 0, 64, 0
2, 38548, Note_on_c, 0, 61, 0
2, 38732, Control_c, 0, 64, 127
2, 38784, Note_on_c, 0, 61, 52
2, 38786, Note_on_c, 0, 66, 70
2, 38786, Note_on_c, 0, 57, 65
2, 38904, Note_on_c, 0, 61, 0
2, 38908, Note_on_c, 0, 57, 0
2, 38924, Note_on_c, 0, 66, 0
2, 38976, Note_on_c, 0, 61, 42
2, 38978, Note_on_c, 0, 66, 50
2, 38978, Note_on_c, 0, 57, 37
2, 39072, Note_on_c, 0, 61, 0
2, 39098, Note_on_c, 0, 57, 0
2, 39100, Control_c, 0, 64, 0
2, 39126, Note_on_c, 0, 66, 0
2, 39298, Control_c, 0, 64, 127
2, 39360, Note_on_c, 0, 56, 42
2, 39362, Note_on_c, 0, 59, 67
2, 39362, Note_on_c, 0, 64, 80
2, 39470, Note_on_c, 0, 64, 0
2, 39478, Note_on_c, 0, 59, 0
2, 39488, Note_on_c, 0, 56, 0
2, 39552, Note_on_c, 0, 56, 50
2, 39554, Note_on_c, 0, 64, 52
2, 39554, Note_on_c, 0, 59, 66
2, 39650, Note_on_c, 0, 56, 0
2, 39670, Note_on_c, 0, 59, 0
2, 39682, Note_on_c, 0, 64, 0
2, 39704, Control_c, 0, 64, 0
2, 39880, Control_c, 0, 64, 127
2, 39936, Note_on_c, 0, 54, 60
2, 39940, Note_on_c, 0, 62, 72
2, 39940, Note_on_c, 0, 57, 67
2, 40056, Note_on_c, 0, 62, 0
2, 40056, Note_on_c, 0, 54, 0
2, 40074, Note_on_c, 0, 57, 0
2, 40128, Note_on_c, 0, 54, 60
2, 40132, Note_on_c, 0, 62, 50
2, 40132, Note_on_c, 0, 57, 60
2, 40242, Note_on_c, 0, 62, 0
2, 40256, Note_on_c, 0, 57, 0
2, 40264, Control_c, 0, 64, 0
2, 40282, Note_on_c, 0, 54, 0
2, 40506, Control_c, 0, 64, 127
2, 40512, Note_on_c, 0, 56, 58
2, 40514, Note_on_c, 0, 64, 72
2, 40514, Note_on_c, 0, 61, 67
2, 40620, Note_on_c, 0, 56, 0
2, 40630, Note_on_c, 0, 64, 0
2, 40640, Note_on_c, 0, 61, 0
2, 40704, Note_on_c, 0, 54, 58
2, 40706, Note_on_c, 0, 59, 58
2, 40706, Note_on_c, 0, 62, 55
2, 40812, Note_on_c, 0, 54, 0
2, 40820, Note_on_c, 0, 62, 0
2, 40826, Control_c, 0, 64, 0
2, 40834, Note_on_c, 0, 59, 0
2, 41020, Control_c, 0, 64, 127
2, 41088, Note_on_c, 0, 59, 76
2, 41088, Note_on_c, 0, 56, 37
2, 41092, Note_on_c, 0, 64, 67
2, 41188, Note_on_c, 0, 59, 0
2, 41204, Note_on_c, 0, 56, 0
2, 41208, Note_on_c, 0, 64, 0
2, 41280, Note_on_c, 0, 56, 52
2, 41282, Note_on_c, 0, 59, 59
2, 41282, Note_on_c, 0, 64, 50
2, 41464, Control_c, 0, 64, 0
2, 41472, Note_on_c, 0, 56, 0
2, 41474, Note_on_c, 0, 64, 0
2, 41474, Note_on_c, 0, 59, 0
2, 41636, Control_c, 0, 64, 127
2, 41664, Note_on_c, 0, 57, 58
2, 41666, Note_on_c, 0, 64, 75
2, 41668, Note_on_c, 0, 61, 65
2, 41782, Note_on_c, 0, 61, 0
2, 41788, Note_on_c, 0, 64, 0
2, 41788, Note_on_c, 0, 57, 0
2, 41856, Note_on_c, 0, 57, 62
2, 41860, Note_on_c, 0, 64, 65
2, 41860, Note_on_c, 0, 61, 58
2, 41956, Note_on_c, 0, 57, 0
2, 41986, Note_on_c, 0, 61, 0
2, 41992, Control_c, 0, 64, 0
2, 42010, Note_on_c, 0, 64, 0
2, 42226, Control_c, 0, 64, 127
2, 42240, Note_on_c, 0, 54, 58
2, 42246, Note_on_c, 0, 57, 77
2, 42246, Note_on_c, 0, 62, 75
2, 42356, Note_on_c, 0, 54, 0
2, 42358, Note_on_c, 0, 57, 0
2, 42374, Note_on_c, 0, 62, 0
2, 42432, Note_on_c, 0, 54, 60
2, 42436, Note_on_c, 0, 62, 58
2, 42436, Note_on_c, 0, 57, 60
2, 42542, Note_on_c, 0, 54, 0
2, 42564, Note_on_c, 0, 57, 0
2, 42566, Control_c, 0, 64, 0
2, 42574, Note_on_c, 0, 62, 0
2, 42772, Control_c, 0, 64, 127
2, 42816, Note_on_c, 0, 56, 38
2, 42820, Note_on_c, 0, 64, 72
2, 42820, Note_on_c, 0, 62, 80
2, 42876, Note_on_c, 0, 56, 0
2, 42914, Note_on_c, 0, 64, 0
2, 42916, Note_on_c, 0, 56, 58
2, 42920, Note_on_c, 0, 62, 0
2, 43002, Note_on_c, 0, 56, 0
2, 43008, Note_on_c, 0, 56, 46
2, 43012, Note_on_c, 0, 64, 60
2, 43012, Note_on_c, 0, 62, 66
2, 43092, Note_on_c, 0, 56, 0
2, 43124, Note_on_c, 0, 62, 0
2, 43124, Control_c, 0, 64, 0
2, 43134, Note_on_c, 0, 64, 0
2, 43392, Note_on_c, 0, 57, 48
2, 43394, Note_on_c, 0, 61, 70
2, 43394, Note_on_c, 0, 64, 65
2, 43420, Control_c, 0, 64, 127
2, 43574, Note_on_c, 0, 61, 0
2, 43574, Note_on_c, 0, 57, 0
2, 43576, Note_on_c, 0, 64, 0
2, 43584, Note_on_c, 0, 57, 58
2, 43586, Note_on_c, 0, 64, 60
2, 43586, Note_on_c, 0, 61, 52
2, 43690, Control_c, 0, 64, 0
2, 43776, Note_on_c, 0, 57, 0
2, 43778, Note_on_c, 0, 61, 0
2, 43778, Note_on_c, 0, 64, 0
2, 43968, Note_on_c, 0, 57, 48
2, 43970, Note_on_c, 0, 64, 75
2, 43970, Note_on_c, 0, 61, 70
2, 44158, Note_on_c, 0, 57, 0
2, 44160, Note_on_c, 0, 61, 0
2, 44160, Note_on_c, 0, 64, 0
2, 44160, Note_on_c, 0, 57, 42
2, 44162, Note_on_c, 0, 64, 62
2, 44162, Note_on_c, 0, 61, 58
2, 44324, Note_on_c, 0, 61, 0
2, 44352, Note_on_c, 0, 57, 0
2, 44354, Note_on_c, 0, 64, 0
2, 44424, Control_c, 0, 64, 127
2, 44544, Note_on_c, 0, 57, 96
2, 44544, Note_on_c, 0, 54, 96
2, 44544, Note_on_c, 0, 62, 96
2, 44654, Note_on_c, 0, 62, 0
2, 44686, Note_on_c, 0, 57, 0
2, 44688, Note_on_c, 0, 54, 0
2, 44736, Note_on_c, 0, 62, 91
2, 44738, Note_on_c, 0, 57, 91
2, 44738, Note_on_c, 0, 54, 91
2, 44888, Control_c, 0, 64, 0
2, 44928, Note_on_c, 0, 62, 0
2, 44930, Note_on_c, 0, 54, 0
2, 44930, Note_on_c, 0, 57, 0
2, 45120, Note_on_c, 0, 55, 76
2, 45122, Note_on_c, 0, 64, 103
2, 45122, Note_on_c, 0, 59, 101
2, 45128, Control_c, 0, 64, 127
2, 45264, Note_on_c, 0, 55, 0
2, 45270, Note_on_c, 0, 59, 0
2, 45276, Note_on_c, 0, 64, 0
2, 45312, Note_on_c, 0, 55, 74
2, 45314, Note_on_c, 0, 59, 93
2, 45314, Note_on_c, 0, 64, 91
2, 45472, Note_on_c, 0, 59, 0
2, 45474, Control_c, 0, 64, 0
2, 45488, Note_on_c, 0, 64, 0
2, 45504, Note_on_c, 0, 55, 0
2, 45698, Note_on_c, 0, 66, 106
2, 45700, Note_on_c, 0, 61, 101
2, 45700, Note_on_c, 0, 57, 86
2, 45724, Control_c, 0, 64, 127
2, 45766, Note_on_c, 0, 57, 0
2, 45794, Note_on_c, 0, 57, 70
2, 45836, Note_on_c, 0, 61, 0
2, 45838, Note_on_c, 0, 66, 0
2, 45884, Note_on_c, 0, 57, 0
2, 45888, Note_on_c, 0, 57, 88
2, 45890, Note_on_c, 0, 66, 91
2, 45892, Note_on_c, 0, 61, 81
2, 46064, Note_on_c, 0, 57, 0
2, 46076, Control_c, 0, 64, 0
2, 46082, Note_on_c, 0, 66, 0
2, 46084, Note_on_c, 0, 61, 0
2, 46276, Note_on_c, 0, 61, 101
2, 46276, Note_on_c, 0, 66, 106
2, 46276, Note_on_c, 0, 57, 88
2, 46464, Note_on_c, 0, 55, 93
2, 46468, Note_on_c, 0, 57, 0
2, 46468, Note_on_c, 0, 61, 0
2, 46468, Note_on_c, 0, 66, 0
2, 46468, Note_on_c, 0, 59, 86
2, 46468, Note_on_c, 0, 64, 93
2, 46656, Note_on_c, 0, 55, 0
2, 46660, Note_on_c, 0, 64, 0
2, 46660, Note_on_c, 0, 59, 0
2, 46728, Control_c, 0, 64, 127
2, 46848, Note_on_c, 0, 57, 96
2, 46848, Note_on_c, 0, 54, 96
2, 46848, Note_on_c, 0, 62, 96
2, 46958, Note_on_c, 0, 62, 0
2, 46990, Note_on_c, 0, 57, 0
2, 46992, Note_on_c, 0, 54, 0
2, 47040, Note_on_c, 0, 62, 91
2, 47042, Note_on_c, 0, 54, 91
2, 47042, Note_on_c, 0, 57, 91
2, 47192, Control_c, 0, 64, 0
2, 47232, Note_on_c, 0, 62, 0
2, 47234, Note_on_c, 0, 57, 0
2, 47234, Note_on_c, 0, 54, 0
2, 47424, Note_on_c, 0, 55, 76
2, 47426, Note_on_c, 0, 59, 101
2, 47426, Note_on_c, 0, 64, 103
2, 47432, Control_c, 0, 64, 127
2, 47568, Note_on_c, 0, 55, 0
2, 47574, Note_on_c, 0, 59, 0
2, 47580, Note_on_c, 0, 64, 0
2, 47616, Note_on_c, 0, 55, 74
2, 47618, Note_on_c, 0, 59, 93
2, 47618, Note_on_c, 0, 64, 91
2, 47776, Note_on_c, 0, 59, 0
2, 47778, Control_c, 0, 64, 0
2, 47792, Note_on_c, 0, 64, 0
2, 47808, Note_on_c, 0, 55, 0
2, 48002, Note_on_c, 0, 66, 106
2, 48004, Note_on_c, 0, 61, 101
2, 48004, Note_on_c, 0, 57, 86
2, 48028, Control_c, 0, 64, 127
2, 48190, Note_on_c, 0, 57, 0
2, 48190, Note_on_c, 0, 61, 0
2, 48190, Note_on_c, 0, 66, 0
2, 48192, Note_on_c, 0, 61, 81
2, 48192, Note_on_c, 0, 66, 91
2, 48192, Note_on_c, 0, 57, 88
2, 48368, Note_on_c, 0, 57, 0
2, 48380, Control_c, 0, 64, 0
2, 48384, Note_on_c, 0, 66, 0
2, 48384, Note_on_c, 0, 61, 0
2, 48580, Note_on_c, 0, 61, 101
2, 48580, Note_on_c, 0, 57, 88
2, 48580, Note_on_c, 0, 66, 106
2, 48768, Note_on_c, 0, 55, 93
2, 48772, Note_on_c, 0, 66, 0
2, 48772, Note_on_c, 0, 61, 0
2, 48772, Note_on_c, 0, 57, 0
2, 48772, Note_on_c, 0, 59, 86
2, 48772, Note_on_c, 0, 64, 93
2, 48960, Note_on_c, 0, 55, 0
2, 48964, Note_on_c, 0, 64, 0
2, 48964, Note_on_c, 0, 59, 0
2, 49032, Control_c, 0, 64, 127
2, 49152, Note_on_c, 0, 57, 96
2, 49152, Note_on_c, 0, 54, 96
2, 49152, Note_on_c, 0, 62, 96
2, 49262, Note_on_c, 0, 62, 0
2, 49294, Note_on_c, 0, 57, 0
2, 49296, Note_on_c, 0, 54, 0
2, 49344, Note_on_c, 0, 62, 91
2, 49346, Note_on_c, 0, 57, 91
2, 49346, Note_on_c, 0, 54, 91
2, 49496, Control_c, 0, 64, 0
2, 49536, Note_on_c, 0, 62, 0
2, 49538, Note_on_c, 0, 54, 0
2, 49538, Note_on_c, 0, 57, 0
2, 49608, Control_c, 0, 64, 127
2, 49728, Note_on_c, 0, 62, 96
2, 49728, Note_on_c, 0, 54, 96
2, 49728, Note_on_c, 0, 57, 96
2, 49838, Note_on_c, 0, 62, 0
2, 49870, Note_on_c, 0, 57, 0
2, 49872, Note_on_c, 0, 54, 0
2, 49920, Note_on_c, 0, 62, 91
2, 49922, Note_on_c, 0, 54, 91
2, 49922, Note_on_c, 0, 57, 91
2, 50072, Control_c, 0, 64, 0
2, 50112, Note_on_c, 0, 62, 0
2, 50114, Note_on_c, 0, 57, 0
2, 50114, Note_on_c, 0, 54, 0
2, 50304, Note_on_c, 0, 56, 84
2, 50308, Note_on_c, 0, 62, 98
2, 50308, Note_on_c, 0, 64, 101
2, 50370, Control_c, 0, 64, 127
2, 50402, Note_on_c, 0, 56, 0
2, 50448, Note_on_c, 0, 64, 0
2, 50448, Note_on_c, 0, 62, 0
2, 50496, Note_on_c, 0, 62, 74
2, 50502, Note_on_c, 0, 56, 98
2, 50502, Note_on_c, 0, 64, 93
2, 50592, Note_on_c, 0, 56, 0
2, 50594, Note_on_c, 0, 64, 0
2, 50660, Note_on_c, 0, 62, 0
2, 50884, Note_on_c, 0, 56, 98
2, 50884, Note_on_c, 0, 64, 91
2, 50884, Note_on_c, 0, 62, 106
2, 50968, Note_on_c, 0, 64, 0
2, 50984, Note_on_c, 0, 56, 0
2, 50988, Note_on_c, 0, 62, 0
2, 51074, Note_on_c, 0, 64, 64
2, 51076, Note_on_c, 0, 62, 64
2, 51076, Note_on_c, 0, 56, 64
2, 51146, Control_c, 0, 64, 0
2, 51204, Note_on_c, 0, 64, 0
2, 51244, Note_on_c, 0, 56, 0
2, 51246, Note_on_c, 0, 62, 0
2, 51302, Control_c, 0, 64, 127
2, 51456, Note_on_c, 0, 57, 68
2, 51458, Note_on_c, 0, 64, 68
2, 51460, Note_on_c, 0, 61, 68
2, 51582, Note_on_c, 0, 57, 0
2, 51590, Note_on_c, 0, 64, 0
2, 51602, Note_on_c, 0, 61, 0
2, 51648, Note_on_c, 0, 57, 59
2, 51652, Note_on_c, 0, 64, 59
2, 51652, Note_on_c, 0, 61, 59
2, 51784, Note_on_c, 0, 64, 0
2, 51806, Note_on_c, 0, 61, 0
2, 51812, Note_on_c, 0, 57, 0
2, 52032, Note_on_c, 0, 57, 70
2, 52036, Note_on_c, 0, 64, 70
2, 52036, Note_on_c, 0, 61, 70
2, 52150, Note_on_c, 0, 57, 0
2, 52158, Note_on_c, 0, 64, 0
2, 52178, Note_on_c, 0, 61, 0
2, 52224, Note_on_c, 0, 57, 60
2, 52228, Note_on_c, 0, 61, 60
2, 52228, Note_on_c, 0, 64, 60
2, 52308, Note_on_c, 0, 57, 0
2, 52388, Note_on_c, 0, 64, 0
2, 52398, Note_on_c, 0, 61, 0
2, 52404, Control_c, 0, 64, 0
2, 52590, Control_c, 0, 64, 127
2, 52608, Note_on_c, 0, 59, 55
2, 52614, Note_on_c, 0, 64, 62
2, 52614, Note_on_c, 0, 55, 62
2, 52726, Note_on_c, 0, 59, 0
2, 52736, Note_on_c, 0, 55, 0
2, 52756, Note_on_c, 0, 64, 0
2, 52800, Note_on_c, 0, 59, 66
2, 52804, Note_on_c, 0, 55, 60
2, 52804, Note_on_c, 0, 64, 62
2, 52944, Note_on_c, 0, 55, 0
2, 52972, Note_on_c, 0, 59, 0
2, 52974, Note_on_c, 0, 64, 0
2, 53184, Note_on_c, 0, 59, 49
2, 53186, Note_on_c, 0, 64, 67
2, 53186, Note_on_c, 0, 55, 65
2, 53308, Note_on_c, 0, 59, 0
2, 53312, Note_on_c, 0, 55, 0
2, 53326, Note_on_c, 0, 64, 0
2, 53376, Note_on_c, 0, 59, 72
2, 53378, Note_on_c, 0, 55, 62
2, 53378, Note_on_c, 0, 64, 58
2, 53512, Note_on_c, 0, 55, 0
2, 53564, Note_on_c, 0, 59, 0
2, 53574, Note_on_c, 0, 64, 0
2, 53760, Note_on_c, 0, 59, 61
2, 53764, Note_on_c, 0, 64, 60
2, 53764, Note_on_c, 0, 55, 67
2, 53878, Note_on_c, 0, 59, 0
2, 53894, Note_on_c, 0, 55, 0
2, 53910, Note_on_c, 0, 64, 0
2, 53952, Note_on_c, 0, 59, 59
2, 53954, Note_on_c, 0, 55, 60
2, 53954, Note_on_c, 0, 64, 65
2, 54098, Note_on_c, 0, 55, 0
2, 54128, Note_on_c, 0, 64, 0
2, 54130, Note_on_c, 0, 59, 0
2, 54336, Note_on_c, 0, 59, 55
2, 54340, Note_on_c, 0, 55, 65
2, 54340, Note_on_c, 0, 64, 62
2, 54464, Note_on_c, 0, 55, 0
2, 54470, Note_on_c, 0, 59, 0
2, 54476, Note_on_c, 0, 64, 0
2, 54528, Note_on_c, 0, 59, 59
2, 54532, Note_on_c, 0, 64, 65
2, 54532, Note_on_c, 0, 55, 60
2, 54648, Note_on_c, 0, 59, 0
2, 54678, Control_c, 0, 64, 0
2, 54680, Note_on_c, 0, 55, 0
2, 54692, Note_on_c, 0, 64, 0
2, 54912, Note_on_c, 0, 58, 43
2, 54912, Note_on_c, 0, 53, 55
2, 54918, Note_on_c, 0, 65, 59
2, 54918, Note_on_c, 0, 62, 65
2, 54928, Control_c, 0, 64, 127
2, 55046, Note_on_c, 0, 65, 0
2, 55056, Note_on_c, 0, 58, 0
2, 55056, Note_on_c, 0, 53, 0
2, 55060, Note_on_c, 0, 62, 0
2, 55104, Note_on_c, 0, 58, 43
2, 55104, Note_on_c, 0, 53, 55
2, 55110, Note_on_c, 0, 62, 70
2, 55110, Note_on_c, 0, 65, 66
2, 55234, Note_on_c, 0, 62, 0
2, 55242, Note_on_c, 0, 65, 0
2, 55248, Note_on_c, 0, 53, 0
2, 55248, Note_on_c, 0, 58, 0
2, 55488, Note_on_c, 0, 53, 55
2, 55488, Note_on_c, 0, 58, 43
2, 55494, Note_on_c, 0, 65, 59
2, 55494, Note_on_c, 0, 62, 65
2, 55622, Note_on_c, 0, 65, 0
2, 55632, Note_on_c, 0, 53, 0
2, 55632, Note_on_c, 0, 58, 0
2, 55636, Note_on_c, 0, 62, 0
2, 55680, Note_on_c, 0, 58, 43
2, 55680, Note_on_c, 0, 53, 55
2, 55686, Note_on_c, 0, 62, 70
2, 55686, Note_on_c, 0, 65, 66
2, 55810, Note_on_c, 0, 62, 0
2, 55818, Note_on_c, 0, 65, 0
2, 55824, Note_on_c, 0, 53, 0
2, 55824, Note_on_c, 0, 58, 0
2, 56064, Note_on_c, 0, 53, 55
2, 56064, Note_on_c, 0, 58, 43
2, 56070, Note_on_c, 0, 65, 59
2, 56070, Note_on_c, 0, 62, 65
2, 56198, Note_on_c, 0, 65, 0
2, 56208, Note_on_c, 0, 53, 0
2, 56208, Note_on_c, 0, 58, 0
2, 56212, Note_on_c, 0, 62, 0
2, 56256, Note_on_c, 0, 53, 55
2, 56256, Note_on_c, 0, 58, 43
2, 56262, Note_on_c, 0, 65, 66
2, 56262, Note_on_c, 0, 62, 70
2, 56386, Note_on_c, 0, 62, 0
2, 56394, Note_on_c, 0, 65, 0
2, 56400, Note_on_c, 0, 58, 0
2, 56400, Note_on_c, 0, 53, 0
2, 56640, Note_on_c, 0, 53, 55
2, 56640, Note_on_c, 0, 58, 43
2, 56646, Note_on_c, 0, 65, 59
2, 56646, Note_on_c, 0, 62, 65
2, 56774, Note_on_c, 0, 65, 0
2, 56784, Note_on_c, 0, 53, 0
2, 56784, Note_on_c, 0, 58, 0
2, 56788, Note_on_c, 0, 62, 0
2, 56832, Note_on_c, 0, 58, 43
2, 56832, Note_on_c, 0, 53, 55
2, 56838, Note_on_c, 0, 65, 66
2, 56838, Note_on_c, 0, 62, 70
2, 56962, Note_on_c, 0, 62, 0
2, 56970, Note_on_c, 0, 65, 0
2, 56976, Note_on_c, 0, 53, 0
2, 56976, Note_on_c, 0, 58, 0
2, 57216, Note_on_c, 0, 58, 43
2, 57216, Note_on_c, 0, 53, 55
2, 57222, Note_on_c, 0, 65, 59
2, 57222, Note_on_c, 0, 62, 65
2, 57350, Note_on_c, 0, 65, 0
2, 57360, Note_on_c, 0, 58, 0
2, 57360, Note_on_c, 0, 53, 0
2, 57364, Note_on_c, 0, 62, 0
2, 57408, Note_on_c, 0, 58, 43
2, 57408, Note_on_c, 0, 53, 55
2, 57414, Note_on_c, 0, 62, 70
2, 57414, Note_on_c, 0, 65, 66
2, 57538, Note_on_c, 0, 62, 0
2, 57546, Note_on_c, 0, 65, 0
2, 57552, Note_on_c, 0, 53, 0
2, 57552, Note_on_c, 0, 58, 0
2, 57792, Note_on_c, 0, 53, 55
2, 57792, Note_on_c, 0, 58, 43
2, 57798, Note_on_c, 0, 62, 65
2, 57798, Note_on_c, 0, 65, 59
2, 57926, Note_on_c, 0, 65, 0
2, 57936, Note_on_c, 0, 53, 0
2, 57936, Note_on_c, 0, 58, 0
2, 57940, Note_on_c, 0, 62, 0
2, 57984, Note_on_c, 0, 58, 43
2, 57984, Note_on_c, 0, 53, 55
2, 57990, Note_on_c, 0, 62, 70
2, 57990, Note_on_c, 0, 65, 66
2, 58114, Note_on_c, 0, 62, 0
2, 58122, Note_on_c, 0, 65, 0
2, 58128, Note_on_c, 0, 53, 0
2, 58128, Note_on_c, 0, 58, 0
2, 58368, Note_on_c, 0, 53, 55
2, 58368, Note_on_c, 0, 58, 43
2, 58374, Note_on_c, 0, 62, 65
2, 58374, Note_on_c, 0, 65, 59
2, 58502, Note_on_c, 0, 65, 0
2, 58512, Note_on_c, 0, 53, 0
2, 58512, Note_on_c, 0, 58, 0
2, 58516, Note_on_c, 0, 62, 0
2, 58560, Note_on_c, 0, 53, 55
2, 58560, Note_on_c, 0, 58, 43
2, 58566, Note_on_c, 0, 65, 66
2, 58566, Note_on_c, 0, 62, 70
2, 58690, Note_on_c, 0, 62, 0
2, 58698, Note_on_c, 0, 65, 0
2, 58704, Note_on_c, 0, 58, 0
2, 58704, Note_on_c, 0, 53, 0
2, 58944, Note_on_c, 0, 58, 43
2, 58944, Note_on_c, 0, 53, 55
2, 58950, Note_on_c, 0, 65, 59
2, 58950, Note_on_c, 0, 62, 65
2, 59078, Note_on_c, 0, 65, 0
2, 59088, Note_on_c, 0, 58, 0
2, 59088, Note_on_c, 0, 53, 0
2, 59092, Note_on_c, 0, 62, 0
2, 59136, Note_on_c, 0, 53, 55
2, 59136, Note_on_c, 0, 58, 43
2, 59142, Note_on_c, 0, 65, 66
2, 59142, Note_on_c, 0, 62, 70
2, 59266, Note_on_c, 0, 62, 0
2, 59274, Note_on_c, 0, 65, 0
2, 59280, Note_on_c, 0, 58, 0
2, 59280, Note_on_c, 0, 53, 0
2, 59520, Note_on_c, 0, 57, 50
2, 59522, Note_on_c, 0, 61, 75
2, 59522, Note_on_c, 0, 64, 72
2, 59630, Note_on_c, 0, 64, 0
2, 59638, Note_on_c, 0, 57, 0
2, 59652, Note_on_c, 0, 61, 0
2, 59712, Note_on_c, 0, 57, 33
2, 59714, Note_on_c, 0, 61, 50
2, 59714, Note_on_c, 0, 64, 50
2, 59816, Note_on_c, 0, 61, 0
2, 59826, Note_on_c, 0, 64, 0
2, 59880, Note_on_c, 0, 57, 0
2, 60096, Note_on_c, 0, 57, 60
2, 60098, Note_on_c, 0, 61, 75
2, 60098, Note_on_c, 0, 64, 75
2, 60206, Note_on_c, 0, 57, 0
2, 60210, Note_on_c, 0, 64, 0
2, 60222, Note_on_c, 0, 61, 0
2, 60288, Note_on_c, 0, 57, 52
2, 60290, Note_on_c, 0, 64, 44
2, 60290, Note_on_c, 0, 61, 48
2, 60376, Note_on_c, 0, 57, 0
2, 60418, Note_on_c, 0, 64, 0
2, 60430, Control_c, 0, 64, 0
2, 60436, Note_on_c, 0, 61, 0
2, 60620, Control_c, 0, 64, 127
2, 60672, Note_on_c, 0, 61, 52
2, 60674, Note_on_c, 0, 57, 65
2, 60674, Note_on_c, 0, 66, 70
2, 60792, Note_on_c, 0, 61, 0
2, 60796, Note_on_c, 0, 57, 0
2, 60812, Note_on_c, 0, 66, 0
2, 60864, Note_on_c, 0, 61, 42
2, 60866, Note_on_c, 0, 57, 37
2, 60866, Note_on_c, 0, 66, 50
2, 60960, Note_on_c, 0, 61, 0
2, 60986, Note_on_c, 0, 57, 0
2, 60988, Control_c, 0, 64, 0
2, 61014, Note_on_c, 0, 66, 0
2, 61186, Control_c, 0, 64, 127
2, 61248, Note_on_c, 0, 56, 42
2, 61250, Note_on_c, 0, 64, 80
2, 61250, Note_on_c, 0, 59, 67
2, 61358, Note_on_c, 0, 64, 0
2, 61366, Note_on_c, 0, 59, 0
2, 61376, Note_on_c, 0, 56, 0
2, 61440, Note_on_c, 0, 56, 50
2, 61442, Note_on_c, 0, 64, 52
2, 61442, Note_on_c, 0, 59, 66
2, 61538, Note_on_c, 0, 56, 0
2, 61558, Note_on_c, 0, 59, 0
2, 61570, Note_on_c, 0, 64, 0
2, 61592, Control_c, 0, 64, 0
2, 61768, Control_c, 0, 64, 127
2, 61824, Note_on_c, 0, 54, 60
2, 61828, Note_on_c, 0, 62, 72
2, 61828, Note_on_c, 0, 57, 67
2, 61944, Note_on_c, 0, 62, 0
2, 61944, Note_on_c, 0, 54, 0
2, 61962, Note_on_c, 0, 57, 0
2, 62016, Note_on_c, 0, 54, 60
2, 62020, Note_on_c, 0, 62, 50
2, 62020, Note_on_c, 0, 57, 60
2, 62130, Note_on_c, 0, 62, 0
2, 62144, Note_on_c, 0, 57, 0
2, 62152, Control_c, 0, 64, 0
2, 62170, Note_on_c, 0, 54, 0
2, 62394, Control_c, 0, 64, 127
2, 62400, Note_on_c, 0, 56, 58
2, 62402, Note_on_c, 0, 61, 67
2, 62402, Note_on_c, 0, 64, 72
2, 62508, Note_on_c, 0, 56, 0
2, 62518, Note_on_c, 0, 64, 0
2, 62528, Note_on_c, 0, 61, 0
2, 62592, Note_on_c, 0, 54, 58
2, 62594, Note_on_c, 0, 62, 55
2, 62594, Note_on_c, 0, 59, 58
2, 62700, Note_on_c, 0, 54, 0
2, 62708, Note_on_c, 0, 62, 0
2, 62714, Control_c, 0, 64, 0
2, 62722, Note_on_c, 0, 59, 0
2, 62908, Control_c, 0, 64, 127
2, 62976, Note_on_c, 0, 56, 37
2, 62976, Note_on_c, 0, 59, 76
2, 62980, Note_on_c, 0, 64, 67
2, 63076, Note_on_c, 0, 59, 0
2, 63092, Note_on_c, 0, 56, 0
2, 63096, Note_on_c, 0, 64, 0
2, 63168, Note_on_c, 0, 56, 52
2, 63170, Note_on_c, 0, 64, 50
2, 63170, Note_on_c, 0, 59, 59
2, 63352, Control_c, 0, 64, 0
2, 63360, Note_on_c, 0, 56, 0
2, 63362, Note_on_c, 0, 59, 0
2, 63362, Note_on_c, 0, 64, 0
2, 63524, Control_c, 0, 64, 127
2, 63552, Note_on_c, 0, 57, 58
2, 63554, Note_on_c, 0, 64, 75
2, 63556, Note_on_c, 0, 61, 65
2, 63670, Note_on_c, 0, 61, 0
2, 63676, Note_on_c, 0, 64, 0
2, 63676, Note_on_c, 0, 57, 0
2, 63744, Note_on_c, 0, 57, 62
2, 63748, Note_on_c, 0, 61, 58
2, 63748, Note_on_c, 0, 64, 65
2, 63844, Note_on_c, 0, 57, 0
2, 63874, Note_on_c, 0, 61, 0
2, 63880, Control_c, 0, 64, 0
2, 63898, Note_on_c, 0, 64, 0
2, 64114, Control_c, 0, 64, 127
2, 64128, Note_on_c, 0, 54, 58
2, 64134, Note_on_c, 0, 57, 77
2, 64134, Note_on_c, 0, 62, 75
2, 64244, Note_on_c, 0, 54, 0
2, 64246, Note_on_c, 0, 57, 0
2, 64262, Note_on_c, 0, 62, 0
2, 64320, Note_on_c, 0, 54, 60
2, 64324, Note_on_c, 0, 57, 60
2, 64324, Note_on_c, 0, 62, 58
2, 64430, Note_on_c, 0, 54, 0
2, 64452, Note_on_c, 0, 57, 0
2, 64454, Control_c, 0, 64, 0
2, 64462, Note_on_c, 0, 62, 0
2, 64660, Control_c, 0, 64, 127
2, 64704, Note_on_c, 0, 56, 38
2, 64708, Note_on_c, 0, 62, 80
2, 64708, Note_on_c, 0, 64, 72
2, 64764, Note_on_c, 0, 56, 0
2, 64804, Note_on_c, 0, 56, 58
2, 64890, Note_on_c, 0, 56, 0
2, 64896, Note_on_c, 0, 56, 46
2, 64898, Note_on_c, 0, 64, 0
2, 64898, Note_on_c, 0, 62, 0
2, 64900, Note_on_c, 0, 64, 60
2, 64900, Note_on_c, 0, 62, 66
2, 64980, Note_on_c, 0, 56, 0
2, 65012, Note_on_c, 0, 62, 0
2, 65012, Control_c, 0, 64, 0
2, 65022, Note_on_c, 0, 64, 0
2, 65280, Note_on_c, 0, 57, 48
2, 65282, Note_on_c, 0, 64, 65
2, 65282, Note_on_c, 0, 61, 70
2, 65308, Control_c, 0, 64, 127
2, 65462, Note_on_c, 0, 61, 0
2, 65462, Note_on_c, 0, 57, 0
2, 65464, Note_on_c, 0, 64, 0
2, 65472, Note_on_c, 0, 57, 58
2, 65474, Note_on_c, 0, 64, 60
2, 65474, Note_on_c, 0, 61, 52
2, 65578, Control_c, 0, 64, 0
2, 65664, Note_on_c, 0, 57, 0
2, 65666, Note_on_c, 0, 61, 0
2, 65666, Note_on_c, 0, 64, 0
2, 65856, Note_on_c, 0, 57, 48
2, 65858, Note_on_c, 0, 61, 70
2, 65858, Note_on_c, 0, 64, 75
2, 66046, Note_on_c, 0, 57, 0
2, 66048, Note_on_c, 0, 64, 0
2, 66048, Note_on_c, 0, 61, 0
2, 66048, Note_on_c, 0, 57, 42
2, 66050, Note_on_c, 0, 64, 62
2, 66050, Note_on_c, 0, 61, 58
2, 66212, Note_on_c, 0, 61, 0
2, 66240, Note_on_c, 0, 57, 0
2, 66242, Note_on_c, 0, 64, 0
2, 66398, Control_c, 0, 64, 127
2, 66432, Note_on_c, 0, 57, 58
2, 66434, Note_on_c, 0, 54, 77
2, 66434, Note_on_c, 0, 62, 75
2, 66546, Note_on_c, 0, 54, 0
2, 66548, Note_on_c, 0, 57, 0
2, 66562, Note_on_c, 0, 62, 0
2, 66624, Note_on_c, 0, 54, 60
2, 66624, Note_on_c, 0, 57, 60
2, 66626, Note_on_c, 0, 62, 58
2, 66734, Note_on_c, 0, 57, 0
2, 66738, Control_c, 0, 64, 0
2, 66752, Note_on_c, 0, 54, 0
2, 66764, Note_on_c, 0, 62, 0
2, 66944, Control_c, 0, 64, 127
2, 67010, Note_on_c, 0, 56, 80
2, 67010, Note_on_c, 0, 59, 55
2, 67010, Note_on_c, 0, 62, 72
2, 67196, Note_on_c, 0, 62, 0
2, 67196, Note_on_c, 0, 59, 0
2, 67196, Note_on_c, 0, 56, 0
2, 67200, Note_on_c, 0, 59, 69
2, 67200, Note_on_c, 0, 56, 66
2, 67202, Note_on_c, 0, 62, 60
2, 67296, Control_c, 0, 64, 0
2, 67392, Note_on_c, 0, 56, 0
2, 67392, Note_on_c, 0, 59, 0
2, 67394, Note_on_c, 0, 62, 0
2, 67582, Note_on_c, 0, 61, 70
2, 67582, Note_on_c, 0, 64, 65
2, 67584, Note_on_c, 0, 57, 48
2, 67592, Control_c, 0, 64, 127
2, 67692, Note_on_c, 0, 57, 0
2, 67700, Note_on_c, 0, 64, 0
2, 67720, Note_on_c, 0, 61, 0
2, 67774, Note_on_c, 0, 61, 52
2, 67774, Note_on_c, 0, 64, 60
2, 67776, Note_on_c, 0, 57, 58
2, 67862, Control_c, 0, 64, 0
2, 67900, Note_on_c, 0, 64, 0
2, 67928, Note_on_c, 0, 61, 0
2, 67942, Note_on_c, 0, 57, 0
2, 68158, Note_on_c, 0, 64, 75
2, 68158, Note_on_c, 0, 61, 70
2, 68160, Note_on_c, 0, 57, 48
2, 68296, Note_on_c, 0, 57, 0
2, 68296, Note_on_c, 0, 64, 0
2, 68304, Note_on_c, 0, 61, 0
2, 68350, Note_on_c, 0, 64, 62
2, 68350, Note_on_c, 0, 61, 58
2, 68352, Note_on_c, 0, 57, 42
2, 68542, Note_on_c, 0, 61, 0
2, 68542, Note_on_c, 0, 64, 0
2, 68544, Note_on_c, 0, 57, 0
2, 68702, Control_c, 0, 64, 127
2, 68736, Note_on_c, 0, 57, 58
2, 68738, Note_on_c, 0, 62, 75
2, 68738, Note_on_c, 0, 54, 77
2, 68850, Note_on_c, 0, 54, 0
2, 68852, Note_on_c, 0, 57, 0
2, 68866, Note_on_c, 0, 62, 0
2, 68928, Note_on_c, 0, 57, 60
2, 68928, Note_on_c, 0, 54, 60
2, 68930, Note_on_c, 0, 62, 58
2, 69038, Note_on_c, 0, 57, 0
2, 69042, Control_c, 0, 64, 0
2, 69056, Note_on_c, 0, 54, 0
2, 69068, Note_on_c, 0, 62, 0
2, 69124, Note_on_c, 0, 56, 93
2, 69230, Note_on_c, 0, 59, 87
2, 69324, Note_on_c, 0, 62, 92
2, 69446, Note_on_c, 0, 64, 89
2, 70096, Note_on_c, 0, 64, 0
2, 70096, Note_on_c, 0, 62, 0
2, 70096, Note_on_c, 0, 59, 0
2, 70108, Note_on_c, 0, 56, 0
2, 70266, Note_on_c, 0, 64, 62
2, 70272, Note_on_c, 0, 45, 70
2, 70276, Note_on_c, 0, 61, 75
2, 70366, Note_on_c, 0, 59, 70
2, 70558, Note_on_c, 0, 52, 70
2, 70654, Note_on_c, 0, 61, 0
2, 70766, Note_on_c, 0, 61, 68
2, 70952, Note_on_c, 0, 69, 64
2, 71038, Note_on_c, 0, 59, 0
2, 71040, Note_on_c, 0, 57, 63
2, 71994, Note_on_c, 0, 64, 0
2, 71998, Note_on_c, 0, 52, 0
2, 72000, Note_on_c, 0, 45, 0
2, 72000, Note_on_c, 0, 57, 0
2, 72008, Note_on_c, 0, 69, 0
2, 72014, Note_on_c, 0, 61, 0
2, 72014, End_track
3, 0, Start_track
3, 0, MIDI_port, 0
3, 0, Program_c, 1, 32
3, 0, Control_c, 1, 7, 105
3, 0, Control_c, 1, 10, 62
3, 208, Control_c, 1, 11, 127
3, 210, Control_c, 1, 91, 15
3, 210, Control_c, 1, 93, 0
3, 576, Note_on_c, 1, 38, 97
3, 578, Control_c, 1, 1, 0
3, 578, Pitch_bend_c, 1, 8192
3, 1084, Note_on_c, 1, 38, 0
3, 1152, Note_on_c, 1, 43, 97
3, 1666, Note_on_c, 1, 43, 0
3, 1728, Note_on_c, 1, 45, 97
3, 2254, Note_on_c, 1, 45, 0
3, 2304, Note_on_c, 1, 33, 97
3, 2808, Note_on_c, 1, 33, 0
3, 2880, Note_on_c, 1, 38, 97
3, 3400, Note_on_c, 1, 38, 0
3, 3456, Note_on_c, 1, 43, 97
3, 3966, Note_on_c, 1, 43, 0
3, 4032, Note_on_c, 1, 45, 97
3, 4588, Note_on_c, 1, 45, 0
3, 4608, Note_on_c, 1, 33, 97
3, 5126, Note_on_c, 1, 33, 0
3, 5184, Note_on_c, 1, 38, 97
3, 5672, Note_on_c, 1, 38, 0
3, 5760, Note_on_c, 1, 38, 97
3, 6240, Note_on_c, 1, 38, 0
3, 6336, Note_on_c, 1, 40, 97
3, 6824, Note_on_c, 1, 40, 0
3, 6912, Note_on_c, 1, 40, 97
3, 7386, Note_on_c, 1, 40, 0
3, 7488, Note_on_c, 1, 33, 91
3, 7990, Note_on_c, 1, 33, 0
3, 8064, Note_on_c, 1, 40, 97
3, 8616, Note_on_c, 1, 40, 0
3, 8640, Note_on_c, 1, 36, 94
3, 9156, Note_on_c, 1, 36, 0
3, 9216, Note_on_c, 1, 43, 94
3, 9762, Note_on_c, 1, 43, 0
3, 9792, Note_on_c, 1, 36, 94
3, 10312, Note_on_c, 1, 36, 0
3, 10368, Note_on_c, 1, 43, 97
3, 10838, Note_on_c, 1, 43, 0
3, 10944, Note_on_c, 1, 34, 97
3, 11482, Note_on_c, 1, 34, 0
3, 11520, Note_on_c, 1, 41, 91
3, 12070, Note_on_c, 1, 41, 0
3, 12096, Note_on_c, 1, 34, 97
3, 12658, Note_on_c, 1, 34, 0
3, 12672, Note_on_c, 1, 41, 94
3, 13208, Note_on_c, 1, 41, 0
3, 13248, Note_on_c, 1, 34, 97
3, 13798, Note_on_c, 1, 34, 0
3, 13824, Note_on_c, 1, 41, 97
3, 14380, Note_on_c, 1, 41, 0
3, 14400, Note_on_c, 1, 34, 97
3, 14970, Note_on_c, 1, 34, 0
3, 14976, Note_on_c, 1, 41, 83
3, 15494, Note_on_c, 1, 41, 0
3, 15552, Note_on_c, 1, 33, 94
3, 16026, Note_on_c, 1, 33, 0
3, 16128, Note_on_c, 1, 33, 94
3, 16652, Note_on_c, 1, 33, 0
3, 16704, Note_on_c, 1, 38, 97
3, 17264, Note_on_c, 1, 38, 0
3, 17280, Note_on_c, 1, 37, 97
3, 17852, Note_on_c, 1, 37, 0
3, 17856, Note_on_c, 1, 35, 94
3, 18386, Note_on_c, 1, 35, 0
3, 18432, Note_on_c, 1, 40, 97
3, 18990, Note_on_c, 1, 40, 0
3, 19008, Note_on_c, 1, 37, 97
3, 19534, Note_on_c, 1, 37, 0
3, 19584, Note_on_c, 1, 42, 97
3, 20016, Note_on_c, 1, 42, 0
3, 20160, Note_on_c, 1, 35, 97
3, 20686, Note_on_c, 1, 35, 0
3, 20736, Note_on_c, 1, 40, 97
3, 21286, Note_on_c, 1, 40, 0
3, 21312, Note_on_c, 1, 33, 97
3, 21840, Note_on_c, 1, 33, 0
3, 21888, Note_on_c, 1, 33, 97
3, 22416, Note_on_c, 1, 33, 0
3, 22464, Note_on_c, 1, 38, 97
3, 22972, Note_on_c, 1, 38, 0
3, 23040, Note_on_c, 1, 43, 97
3, 23554, Note_on_c, 1, 43, 0
3, 23616, Note_on_c, 1, 45, 97
3, 24142, Note_on_c, 1, 45, 0
3, 24192, Note_on_c, 1, 33, 97
3, 24696, Note_on_c, 1, 33, 0
3, 24768, Note_on_c, 1, 38, 97
3, 25288, Note_on_c, 1, 38, 0
3, 25344, Note_on_c, 1, 43, 97
3, 25854, Note_on_c, 1, 43, 0
3, 25920, Note_on_c, 1, 45, 97
3, 26476, Note_on_c, 1, 45, 0
3, 26496, Note_on_c, 1, 33, 97
3, 27014, Note_on_c, 1, 33, 0
3, 27072, Note_on_c, 1, 38, 97
3, 27560, Note_on_c, 1, 38, 0
3, 27648, Note_on_c, 1, 38, 97
3, 28128, Note_on_c, 1, 38, 0
3, 28224, Note_on_c, 1, 40, 97
3, 28712, Note_on_c, 1, 40, 0
3, 28800, Note_on_c, 1, 40, 97
3, 29274, Note_on_c, 1, 40, 0
3, 29376, Note_on_c, 1, 33, 91
3, 29878, Note_on_c, 1, 33, 0
3, 29952, Note_on_c, 1, 40, 97
3, 30504, Note_on_c, 1, 40, 0
3, 30528, Note_on_c, 1, 36, 94
3, 31044, Note_on_c, 1, 36, 0
3, 31104, Note_on_c, 1, 43, 94
3, 31650, Note_on_c, 1, 43, 0
3, 31680, Note_on_c, 1, 36, 94
3, 32200, Note_on_c, 1, 36, 0
3, 32256, Note_on_c, 1, 43, 97
3, 32726, Note_on_c, 1, 43, 0
3, 32832, Note_on_c, 1, 34, 97
3, 33370, Note_on_c, 1, 34, 0
3, 33408, Note_on_c, 1, 41, 91
3, 33958, Note_on_c, 1, 41, 0
3, 33984, Note_on_c, 1, 34, 97
3, 34546, Note_on_c, 1, 34, 0
3, 34560, Note_on_c, 1, 41, 94
3, 35096, Note_on_c, 1, 41, 0
3, 35136, Note_on_c, 1, 34, 97
3, 35686, Note_on_c, 1, 34, 0
3, 35712, Note_on_c, 1, 41, 97
3, 36268, Note_on_c, 1, 41, 0
3, 36288, Note_on_c, 1, 34, 97
3, 36858, Note_on_c, 1, 34, 0
3, 36864, Note_on_c, 1, 41, 83
3, 37382, Note_on_c, 1, 41, 0
3, 37440, Note_on_c, 1, 33, 94
3, 37914, Note_on_c, 1, 33, 0
3, 38016, Note_on_c, 1, 33, 94
3, 38540, Note_on_c, 1, 33, 0
3, 38592, Note_on_c, 1, 38, 97
3, 39152, Note_on_c, 1, 38, 0
3, 39168, Note_on_c, 1, 37, 97
3, 39740, Note_on_c, 1, 37, 0
3, 39744, Note_on_c, 1, 35, 94
3, 40274, Note_on_c, 1, 35, 0
3, 40320, Note_on_c, 1, 40, 97
3, 40878, Note_on_c, 1, 40, 0
3, 40896, Note_on_c, 1, 37, 97
3, 41422, Note_on_c, 1, 37, 0
3, 41472, Note_on_c, 1, 42, 97
3, 42038, Note_on_c, 1, 42, 0
3, 42048, Note_on_c, 1, 35, 97
3, 42574, Note_on_c, 1, 35, 0
3, 42624, Note_on_c, 1, 40, 97
3, 43174, Note_on_c, 1, 40, 0
3, 43200, Note_on_c, 1, 33, 97
3, 43728, Note_on_c, 1, 33, 0
3, 43776, Note_on_c, 1, 33, 97
3, 44304, Note_on_c, 1, 33, 0
3, 44352, Note_on_c, 1, 38, 97
3, 44860, Note_on_c, 1, 38, 0
3, 44928, Note_on_c, 1, 43, 97
3, 45442, Note_on_c, 1, 43, 0
3, 45504, Note_on_c, 1, 45, 97
3, 46030, Note_on_c, 1, 45, 0
3, 46080, Note_on_c, 1, 33, 97
3, 46584, Note_on_c, 1, 33, 0
3, 46656, Note_on_c, 1, 38, 97
3, 47176, Note_on_c, 1, 38, 0
3, 47232, Note_on_c, 1, 43, 97
3, 47742, Note_on_c, 1, 43, 0
3, 47808, Note_on_c, 1, 45, 97
3, 48364, Note_on_c, 1, 45, 0
3, 48384, Note_on_c, 1, 33, 97
3, 48902, Note_on_c, 1, 33, 0
3, 48960, Note_on_c, 1, 38, 97
3, 49448, Note_on_c, 1, 38, 0
3, 49536, Note_on_c, 1, 38, 97
3, 50016, Note_on_c, 1, 38, 0
3, 50112, Note_on_c, 1, 40, 97
3, 50600, Note_on_c, 1, 40, 0
3, 50688, Note_on_c, 1, 40, 97
3, 51162, Note_on_c, 1, 40, 0
3, 51264, Note_on_c, 1, 33, 91
3, 51766, Note_on_c, 1, 33, 0
3, 51840, Note_on_c, 1, 40, 97
3, 52392, Note_on_c, 1, 40, 0
3, 52416, Note_on_c, 1, 36, 94
3, 52932, Note_on_c, 1, 36, 0
3, 52992, Note_on_c, 1, 43, 94
3, 53538, Note_on_c, 1, 43, 0
3, 53568, Note_on_c, 1, 36, 94
3, 54088, Note_on_c, 1, 36, 0
3, 54144, Note_on_c, 1, 43, 97
3, 54614, Note_on_c, 1, 43, 0
3, 54720, Note_on_c, 1, 34, 97
3, 55258, Note_on_c, 1, 34, 0
3, 55296, Note_on_c, 1, 41, 91
3, 55846, Note_on_c, 1, 41, 0
3, 55872, Note_on_c, 1, 34, 97
3, 56434, Note_on_c, 1, 34, 0
3, 56448, Note_on_c, 1, 41, 94
3, 56984, Note_on_c, 1, 41, 0
3, 57024, Note_on_c, 1, 34, 97
3, 57574, Note_on_c, 1, 34, 0
3, 57600, Note_on_c, 1, 41, 97
3, 58156, Note_on_c, 1, 41, 0
3, 58176, Note_on_c, 1, 34, 97
3, 58746, Note_on_c, 1, 34, 0
3, 58752, Note_on_c, 1, 41, 83
3, 59270, Note_on_c, 1, 41, 0
3, 59328, Note_on_c, 1, 33, 94
3, 59802, Note_on_c, 1, 33, 0
3, 59904, Note_on_c, 1, 33, 94
3, 60428, Note_on_c, 1, 33, 0
3, 60480, Note_on_c, 1, 38, 97
3, 61040, Note_on_c, 1, 38, 0
3, 61056, Note_on_c, 1, 37, 97
3, 61628, Note_on_c, 1, 37, 0
3, 61632, Note_on_c, 1, 35, 94
3, 62162, Note_on_c, 1, 35, 0
3, 62208, Note_on_c, 1, 40, 97
3, 62766, Note_on_c, 1, 40, 0
3, 62784, Note_on_c, 1, 37, 97
3, 63310, Note_on_c, 1, 37, 0
3, 63360, Note_on_c, 1, 42, 97
3, 63926, Note_on_c, 1, 42, 0
3, 63936, Note_on_c, 1, 35, 97
3, 64462, Note_on_c, 1, 35, 0
3, 64512, Note_on_c, 1, 40, 97
3, 65062, Note_on_c, 1, 40, 0
3, 65088, Note_on_c, 1, 33, 97
3, 65616, Note_on_c, 1, 33, 0
3, 65664, Note_on_c, 1, 33, 97
3, 66192, Note_on_c, 1, 33, 0
3, 66240, Note_on_c, 1, 35, 97
3, 66766, Note_on_c, 1, 35, 0
3, 66816, Note_on_c, 1, 40, 97
3, 67366, Note_on_c, 1, 40, 0
3, 67392, Note_on_c, 1, 33, 97
3, 67920, Note_on_c, 1, 33, 0
3, 67968, Note_on_c, 1, 33, 97
3, 68496, Note_on_c, 1, 33, 0
3, 68544, Note_on_c, 1, 35, 97
3, 69070, Note_on_c, 1, 35, 0
3, 69120, Note_on_c, 1, 40, 97
3, 70224, Note_on_c, 1, 40, 0
3, 70272, Note_on_c, 1, 33, 58
3, 72000, Note_on_c, 1, 33, 0
3, 72000, End_track
4, 0, Start_track
4, 0, MIDI_port, 0
4, 0, Program_c, 2, 21
4, 0, Control_c, 2, 7, 105
4, 0, Control_c, 2, 10, 50
4, 218, Control_c, 2, 11, 127
4, 220, Control_c, 2, 91, 60
4, 220, Control_c, 2, 93, 10
4, 576, Note_on_c, 2, 69, 75
4, 576, Note_on_c, 2, 66, 71
4, 578, Control_c, 2, 1, 0
4, 578, Pitch_bend_c, 2, 8192
4, 1136, Note_on_c, 2, 66, 0
4, 1152, Note_on_c, 2, 69, 0
4, 1158, Note_on_c, 2, 67, 71
4, 1160, Note_on_c, 2, 71, 78
4, 1726, Note_on_c, 2, 71, 0
4, 1726, Note_on_c, 2, 67, 0
4, 1734, Note_on_c, 2, 69, 75
4, 1736, Note_on_c, 2, 73, 78
4, 2842, Note_on_c, 2, 69, 0
4, 2852, Note_on_c, 2, 73, 0
4, 2886, Note_on_c, 2, 69, 90
4, 2888, Note_on_c, 2, 66, 80
4, 3452, Note_on_c, 2, 66, 0
4, 3452, Note_on_c, 2, 69, 0
4, 3466, Note_on_c, 2, 71, 78
4, 3468, Note_on_c, 2, 67, 80
4, 3994, Note_on_c, 2, 71, 0
4, 4030, Note_on_c, 2, 67, 0
4, 4038, Note_on_c, 2, 69, 80
4, 4042, Note_on_c, 2, 73, 78
4, 5180, Note_on_c, 2, 73, 0
4, 5180, Note_on_c, 2, 69, 0
4, 5184, Note_on_c, 2, 69, 63
4, 5190, Note_on_c, 2, 66, 63
4, 6344, Note_on_c, 2, 66, 0
4, 6344, Note_on_c, 2, 64, 67
4, 6346, Note_on_c, 2, 69, 0
4, 6346, Note_on_c, 2, 68, 67
4, 7448, Note_on_c, 2, 64, 0
4, 7450, Note_on_c, 2, 68, 0
4, 7490, Note_on_c, 2, 69, 75
4, 7682, Note_on_c, 2, 69, 0
4, 7692, Note_on_c, 2, 71, 78
4, 7882, Note_on_c, 2, 69, 67
4, 7884, Note_on_c, 2, 71, 0
4, 8064, Note_on_c, 2, 71, 61
4, 8066, Note_on_c, 2, 69, 0
4, 8928, Note_on_c, 2, 71, 0
4, 9028, Note_on_c, 2, 71, 66
4, 9124, Note_on_c, 2, 71, 0
4, 9220, Note_on_c, 2, 71, 75
4, 9396, Note_on_c, 2, 71, 0
4, 9422, Note_on_c, 2, 69, 68
4, 9610, Note_on_c, 2, 71, 58
4, 9614, Note_on_c, 2, 69, 0
4, 10042, Note_on_c, 2, 71, 0
4, 10184, Note_on_c, 2, 71, 68
4, 10262, Note_on_c, 2, 71, 0
4, 10378, Note_on_c, 2, 71, 80
4, 10538, Note_on_c, 2, 71, 0
4, 10572, Note_on_c, 2, 69, 67
4, 10750, Note_on_c, 2, 69, 0
4, 10760, Note_on_c, 2, 71, 63
4, 10952, Note_on_c, 2, 71, 0
4, 11328, Note_on_c, 2, 70, 70
4, 11336, Note_on_c, 2, 74, 70
4, 11424, Note_on_c, 2, 70, 0
4, 11432, Note_on_c, 2, 74, 0
4, 11520, Note_on_c, 2, 70, 61
4, 11528, Note_on_c, 2, 74, 61
4, 12022, Note_on_c, 2, 70, 0
4, 12030, Note_on_c, 2, 74, 0
4, 12104, Note_on_c, 2, 74, 55
4, 12104, Note_on_c, 2, 70, 55
4, 12288, Note_on_c, 2, 70, 0
4, 12292, Note_on_c, 2, 74, 0
4, 12294, Note_on_c, 2, 72, 63
4, 12294, Note_on_c, 2, 76, 63
4, 12472, Note_on_c, 2, 76, 0
4, 12472, Note_on_c, 2, 72, 0
4, 12480, Note_on_c, 2, 74, 66
4, 12482, Note_on_c, 2, 77, 66
4, 12576, Note_on_c, 2, 77, 0
4, 12576, Note_on_c, 2, 74, 0
4, 12672, Note_on_c, 2, 77, 85
4, 12678, Note_on_c, 2, 74, 70
4, 12860, Note_on_c, 2, 74, 0
4, 12864, Note_on_c, 2, 77, 0
4, 12868, Note_on_c, 2, 76, 66
4, 12870, Note_on_c, 2, 72, 66
4, 13062, Note_on_c, 2, 72, 0
4, 13062, Note_on_c, 2, 70, 57
4, 13062, Note_on_c, 2, 74, 57
4, 13066, Note_on_c, 2, 76, 0
4, 13158, Note_on_c, 2, 70, 0
4, 13182, Note_on_c, 2, 74, 0
4, 13254, Note_on_c, 2, 69, 55
4, 13256, Note_on_c, 2, 73, 55
4, 13442, Note_on_c, 2, 73, 0
4, 13446, Note_on_c, 2, 74, 49
4, 13452, Note_on_c, 2, 69, 0
4, 13454, Note_on_c, 2, 70, 49
4, 13590, Note_on_c, 2, 74, 0
4, 13598, Note_on_c, 2, 70, 0
4, 13642, Note_on_c, 2, 71, 56
4, 13816, Note_on_c, 2, 71, 0
4, 13832, Note_on_c, 2, 71, 79
4, 13916, Note_on_c, 2, 72, 68
4, 13918, Note_on_c, 2, 71, 0
4, 14014, Note_on_c, 2, 72, 0
4, 14026, Note_on_c, 2, 70, 62
4, 14170, Note_on_c, 2, 70, 0
4, 14214, Note_on_c, 2, 70, 62
4, 14216, Note_on_c, 2, 74, 57
4, 15510, Note_on_c, 2, 70, 0
4, 15512, Note_on_c, 2, 74, 0
4, 15556, Note_on_c, 2, 69, 60
4, 15744, Note_on_c, 2, 69, 0
4, 15750, Note_on_c, 2, 71, 64
4, 15942, Note_on_c, 2, 71, 0
4, 15942, Note_on_c, 2, 69, 56
4, 16130, Note_on_c, 2, 69, 0
4, 16136, Note_on_c, 2, 71, 46
4, 16712, Note_on_c, 2, 71, 0
4, 17286, Note_on_c, 2, 68, 44
4, 17288, Note_on_c, 2, 71, 44
4, 17850, Note_on_c, 2, 68, 0
4, 17852, Note_on_c, 2, 71, 0
4, 17862, Note_on_c, 2, 69, 57
4, 17862, Note_on_c, 2, 66, 44
4, 18430, Note_on_c, 2, 66, 0
4, 18432, Note_on_c, 2, 69, 0
4, 18624, Note_on_c, 2, 68, 44
4, 18816, Note_on_c, 2, 68, 0
4, 18816, Note_on_c, 2, 66, 44
4, 19008, Note_on_c, 2, 66, 0
4, 19008, Note_on_c, 2, 68, 44
4, 19010, Note_on_c, 2, 71, 46
4, 19578, Note_on_c, 2, 68, 0
4, 19584, Note_on_c, 2, 66, 44
4, 19586, Note_on_c, 2, 71, 0
4, 19590, Note_on_c, 2, 69, 50
4, 20118, Note_on_c, 2, 69, 0
4, 20146, Note_on_c, 2, 66, 0
4, 22464, Note_on_c, 2, 66, 71
4, 22464, Note_on_c, 2, 69, 75
4, 23018, Note_on_c, 2, 69, 0
4, 23024, Note_on_c, 2, 66, 0
4, 23034, Note_on_c, 2, 67, 71
4, 23038, Note_on_c, 2, 71, 78
4, 23610, Note_on_c, 2, 67, 0
4, 23614, Note_on_c, 2, 71, 0
4, 23622, Note_on_c, 2, 69, 71
4, 23626, Note_on_c, 2, 73, 71
4, 24730, Note_on_c, 2, 69, 0
4, 24742, Note_on_c, 2, 73, 0
4, 24762, Note_on_c, 2, 69, 73
4, 24766, Note_on_c, 2, 66, 73
4, 25328, Note_on_c, 2, 69, 0
4, 25330, Note_on_c, 2, 66, 0
4, 25334, Note_on_c, 2, 71, 73
4, 25336, Note_on_c, 2, 67, 73
4, 25910, Note_on_c, 2, 71, 0
4, 25912, Note_on_c, 2, 67, 0
4, 25918, Note_on_c, 2, 73, 78
4, 25920, Note_on_c, 2, 69, 80
4, 27070, Note_on_c, 2, 73, 0
4, 27072, Note_on_c, 2, 69, 0
4, 27078, Note_on_c, 2, 66, 80
4, 27082, Note_on_c, 2, 69, 80
4, 28218, Note_on_c, 2, 66, 0
4, 28222, Note_on_c, 2, 69, 0
4, 28226, Note_on_c, 2, 68, 72
4, 29058, Note_on_c, 2, 68, 0
4, 29378, Note_on_c, 2, 69, 75
4, 29570, Note_on_c, 2, 69, 0
4, 29580, Note_on_c, 2, 71, 78
4, 29770, Note_on_c, 2, 69, 67
4, 29772, Note_on_c, 2, 71, 0
4, 29952, Note_on_c, 2, 71, 61
4, 29954, Note_on_c, 2, 69, 0
4, 30816, Note_on_c, 2, 71, 0
4, 30916, Note_on_c, 2, 71, 66
4, 31012, Note_on_c, 2, 71, 0
4, 31108, Note_on_c, 2, 71, 75
4, 31284, Note_on_c, 2, 71, 0
4, 31310, Note_on_c, 2, 69, 68
4, 31498, Note_on_c, 2, 71, 58
4, 31502, Note_on_c, 2, 69, 0
4, 31930, Note_on_c, 2, 71, 0
4, 32072, Note_on_c, 2, 71, 68
4, 32150, Note_on_c, 2, 71, 0
4, 32266, Note_on_c, 2, 71, 80
4, 32426, Note_on_c, 2, 71, 0
4, 32460, Note_on_c, 2, 69, 67
4, 32638, Note_on_c, 2, 69, 0
4, 32648, Note_on_c, 2, 71, 63
4, 32840, Note_on_c, 2, 71, 0
4, 33216, Note_on_c, 2, 70, 70
4, 33224, Note_on_c, 2, 74, 70
4, 33312, Note_on_c, 2, 70, 0
4, 33320, Note_on_c, 2, 74, 0
4, 33408, Note_on_c, 2, 70, 61
4, 33416, Note_on_c, 2, 74, 61
4, 33910, Note_on_c, 2, 70, 0
4, 33918, Note_on_c, 2, 74, 0
4, 33992, Note_on_c, 2, 70, 55
4, 33992, Note_on_c, 2, 74, 55
4, 34176, Note_on_c, 2, 70, 0
4, 34180, Note_on_c, 2, 74, 0
4, 34182, Note_on_c, 2, 72, 63
4, 34182, Note_on_c, 2, 76, 63
4, 34360, Note_on_c, 2, 76, 0
4, 34360, Note_on_c, 2, 72, 0
4, 34368, Note_on_c, 2, 74, 66
4, 34370, Note_on_c, 2, 77, 66
4, 34464, Note_on_c, 2, 77, 0
4, 34464, Note_on_c, 2, 74, 0
4, 34560, Note_on_c, 2, 77, 85
4, 34566, Note_on_c, 2, 74, 70
4, 34748, Note_on_c, 2, 74, 0
4, 34752, Note_on_c, 2, 77, 0
4, 34756, Note_on_c, 2, 76, 66
4, 34758, Note_on_c, 2, 72, 66
4, 34950, Note_on_c, 2, 72, 0
4, 34950, Note_on_c, 2, 74, 57
4, 34950, Note_on_c, 2, 70, 57
4, 34954, Note_on_c, 2, 76, 0
4, 35046, Note_on_c, 2, 70, 0
4, 35070, Note_on_c, 2, 74, 0
4, 35142, Note_on_c, 2, 69, 55
4, 35144, Note_on_c, 2, 73, 55
4, 35330, Note_on_c, 2, 73, 0
4, 35334, Note_on_c, 2, 74, 49
4, 35340, Note_on_c, 2, 69, 0
4, 35342, Note_on_c, 2, 70, 49
4, 35478, Note_on_c, 2, 74, 0
4, 35486, Note_on_c, 2, 70, 0
4, 35530, Note_on_c, 2, 71, 56
4, 35704, Note_on_c, 2, 71, 0
4, 35720, Note_on_c, 2, 71, 79
4, 35804, Note_on_c, 2, 72, 68
4, 35806, Note_on_c, 2, 71, 0
4, 35902, Note_on_c, 2, 72, 0
4, 35914, Note_on_c, 2, 70, 62
4, 36058, Note_on_c, 2, 70, 0
4, 36102, Note_on_c, 2, 70, 62
4, 36104, Note_on_c, 2, 74, 57
4, 37398, Note_on_c, 2, 70, 0
4, 37400, Note_on_c, 2, 74, 0
4, 37444, Note_on_c, 2, 69, 60
4, 37632, Note_on_c, 2, 69, 0
4, 37638, Note_on_c, 2, 71, 64
4, 37830, Note_on_c, 2, 71, 0
4, 37830, Note_on_c, 2, 69, 56
4, 38018, Note_on_c, 2, 69, 0
4, 38024, Note_on_c, 2, 71, 46
4, 38600, Note_on_c, 2, 71, 0
4, 39174, Note_on_c, 2, 68, 44
4, 39176, Note_on_c, 2, 71, 44
4, 39738, Note_on_c, 2, 68, 0
4, 39740, Note_on_c, 2, 71, 0
4, 39750, Note_on_c, 2, 69, 57
4, 39750, Note_on_c, 2, 66, 44
4, 40318, Note_on_c, 2, 66, 0
4, 40320, Note_on_c, 2, 69, 0
4, 40512, Note_on_c, 2, 68, 44
4, 40704, Note_on_c, 2, 68, 0
4, 40704, Note_on_c, 2, 66, 44
4, 40896, Note_on_c, 2, 66, 0
4, 40896, Note_on_c, 2, 68, 44
4, 40898, Note_on_c, 2, 71, 46
4, 41466, Note_on_c, 2, 68, 0
4, 41472, Note_on_c, 2, 66, 44
4, 41474, Note_on_c, 2, 71, 0
4, 41478, Note_on_c, 2, 69, 50
4, 42006, Note_on_c, 2, 69, 0
4, 42034, Note_on_c, 2, 66, 0
4, 44352, Note_on_c, 2, 66, 71
4, 44352, Note_on_c, 2, 69, 75
4, 44906, Note_on_c, 2, 69, 0
4, 44912, Note_on_c, 2, 66, 0
4, 44922, Note_on_c, 2, 67, 71
4, 44926, Note_on_c, 2, 71, 78
4, 45498, Note_on_c, 2, 67, 0
4, 45502, Note_on_c, 2, 71, 0
4, 45510, Note_on_c, 2, 69, 71
4, 45514, Note_on_c, 2, 73, 71
4, 46618, Note_on_c, 2, 69, 0
4, 46630, Note_on_c, 2, 73, 0
4, 46650, Note_on_c, 2, 69, 73
4, 46654, Note_on_c, 2, 66, 73
4, 47216, Note_on_c, 2, 69, 0
4, 47218, Note_on_c, 2, 66, 0
4, 47222, Note_on_c, 2, 71, 73
4, 47224, Note_on_c, 2, 67, 73
4, 47798, Note_on_c, 2, 71, 0
4, 47800, Note_on_c, 2, 67, 0
4, 47806, Note_on_c, 2, 73, 78
4, 47808, Note_on_c, 2, 69, 80
4, 48958, Note_on_c, 2, 73, 0
4, 48960, Note_on_c, 2, 69, 0
4, 48966, Note_on_c, 2, 66, 80
4, 48970, Note_on_c, 2, 69, 80
4, 50106, Note_on_c, 2, 66, 0
4, 50110, Note_on_c, 2, 69, 0
4, 50114, Note_on_c, 2, 68, 72
4, 50946, Note_on_c, 2, 68, 0
4, 51266, Note_on_c, 2, 69, 75
4, 51458, Note_on_c, 2, 69, 0
4, 51468, Note_on_c, 2, 71, 78
4, 51658, Note_on_c, 2, 69, 67
4, 51660, Note_on_c, 2, 71, 0
4, 51840, Note_on_c, 2, 71, 61
4, 51842, Note_on_c, 2, 69, 0
4, 52704, Note_on_c, 2, 71, 0
4, 52804, Note_on_c, 2, 71, 66
4, 52900, Note_on_c, 2, 71, 0
4, 52996, Note_on_c, 2, 71, 75
4, 53172, Note_on_c, 2, 71, 0
4, 53198, Note_on_c, 2, 69, 68
4, 53386, Note_on_c, 2, 71, 58
4, 53390, Note_on_c, 2, 69, 0
4, 53818, Note_on_c, 2, 71, 0
4, 53960, Note_on_c, 2, 71, 68
4, 54038, Note_on_c, 2, 71, 0
4, 54154, Note_on_c, 2, 71, 80
4, 54314, Note_on_c, 2, 71, 0
4, 54348, Note_on_c, 2, 69, 67
4, 54526, Note_on_c, 2, 69, 0
4, 54536, Note_on_c, 2, 71, 63
4, 54728, Note_on_c, 2, 71, 0
4, 55104, Note_on_c, 2, 70, 70
4, 55112, Note_on_c, 2, 74, 70
4, 55200, Note_on_c, 2, 70, 0
4, 55208, Note_on_c, 2, 74, 0
4, 55296, Note_on_c, 2, 70, 61
4, 55304, Note_on_c, 2, 74, 61
4, 55798, Note_on_c, 2, 70, 0
4, 55806, Note_on_c, 2, 74, 0
4, 55880, Note_on_c, 2, 70, 55
4, 55880, Note_on_c, 2, 74, 55
4, 56064, Note_on_c, 2, 70, 0
4, 56068, Note_on_c, 2, 74, 0
4, 56070, Note_on_c, 2, 76, 63
4, 56070, Note_on_c, 2, 72, 63
4, 56248, Note_on_c, 2, 72, 0
4, 56248, Note_on_c, 2, 76, 0
4, 56256, Note_on_c, 2, 74, 66
4, 56258, Note_on_c, 2, 77, 66
4, 56352, Note_on_c, 2, 77, 0
4, 56352, Note_on_c, 2, 74, 0
4, 56448, Note_on_c, 2, 77, 85
4, 56454, Note_on_c, 2, 74, 70
4, 56636, Note_on_c, 2, 74, 0
4, 56640, Note_on_c, 2, 77, 0
4, 56644, Note_on_c, 2, 76, 66
4, 56646, Note_on_c, 2, 72, 66
4, 56838, Note_on_c, 2, 72, 0
4, 56838, Note_on_c, 2, 70, 57
4, 56838, Note_on_c, 2, 74, 57
4, 56842, Note_on_c, 2, 76, 0
4, 56934, Note_on_c, 2, 70, 0
4, 56958, Note_on_c, 2, 74, 0
4, 57030, Note_on_c, 2, 69, 55
4, 57032, Note_on_c, 2, 73, 55
4, 57218, Note_on_c, 2, 73, 0
4, 57222, Note_on_c, 2, 74, 49
4, 57228, Note_on_c, 2, 69, 0
4, 57230, Note_on_c, 2, 70, 49
4, 57366, Note_on_c, 2, 74, 0
4, 57374, Note_on_c, 2, 70, 0
4, 57418, Note_on_c, 2, 71, 56
4, 57592, Note_on_c, 2, 71, 0
4, 57608, Note_on_c, 2, 71, 79
4, 57692, Note_on_c, 2, 72, 68
4, 57694, Note_on_c, 2, 71, 0
4, 57790, Note_on_c, 2, 72, 0
4, 57802, Note_on_c, 2, 70, 62
4, 57946, Note_on_c, 2, 70, 0
4, 57990, Note_on_c, 2, 70, 62
4, 57992, Note_on_c, 2, 74, 57
4, 59286, Note_on_c, 2, 70, 0
4, 59288, Note_on_c, 2, 74, 0
4, 59332, Note_on_c, 2, 69, 60
4, 59520, Note_on_c, 2, 69, 0
4, 59526, Note_on_c, 2, 71, 64
4, 59718, Note_on_c, 2, 71, 0
4, 59718, Note_on_c, 2, 69, 56
4, 59906, Note_on_c, 2, 69, 0
4, 59912, Note_on_c, 2, 71, 46
4, 60488, Note_on_c, 2, 71, 0
4, 61062, Note_on_c, 2, 68, 44
4, 61064, Note_on_c, 2, 71, 44
4, 61626, Note_on_c, 2, 68, 0
4, 61628, Note_on_c, 2, 71, 0
4, 61638, Note_on_c, 2, 69, 57
4, 61638, Note_on_c, 2, 66, 44
4, 62206, Note_on_c, 2, 66, 0
4, 62208, Note_on_c, 2, 69, 0
4, 62400, Note_on_c, 2, 68, 44
4, 62592, Note_on_c, 2, 68, 0
4, 62592, Note_on_c, 2, 66, 44
4, 62784, Note_on_c, 2, 66, 0
4, 62784, Note_on_c, 2, 68, 44
4, 62786, Note_on_c, 2, 71, 46
4, 63354, Note_on_c, 2, 68, 0
4, 63360, Note_on_c, 2, 66, 44
4, 63362, Note_on_c, 2, 71, 0
4, 63366, Note_on_c, 2, 69, 50
4, 63894, Note_on_c, 2, 69, 0
4, 63922, Note_on_c, 2, 66, 0
4, 63922, End_track
5, 0, Start_track
5, 0, MIDI_port, 0
5, 0, Program_c, 3, 26
5, 0, Control_c, 3, 7, 100
5, 0, Control_c, 3, 10, 64
5, 228, Control_c, 3, 11, 127
5, 230, Control_c, 3, 91, 57
5, 230, Control_c, 3, 93, 0
5, 784, Note_on_c, 3, 78, 117
5, 786, Control_c, 3, 1, 0
5, 786, Pitch_bend_c, 3, 8192
5, 898, Note_on_c, 3, 78, 0
5, 974, Note_on_c, 3, 74, 117
5, 1040, Note_on_c, 3, 74, 0
5, 1148, Note_on_c, 3, 71, 117
5, 1190, Note_on_c, 3, 71, 0
5, 1234, Note_on_c, 3, 71, 117
5, 1306, Note_on_c, 3, 71, 0
5, 1350, Note_on_c, 3, 76, 117
5, 1442, Note_on_c, 3, 76, 0
5, 1738, Note_on_c, 3, 78, 117
5, 1980, Note_on_c, 3, 78, 0
5, 2016, Note_on_c, 3, 76, 108
5, 2098, Note_on_c, 3, 76, 0
5, 2112, Note_on_c, 3, 78, 116
5, 2192, Note_on_c, 3, 78, 0
5, 2208, Note_on_c, 3, 76, 108
5, 2278, Note_on_c, 3, 76, 0
5, 2312, Note_on_c, 3, 78, 117
5, 2670, Note_on_c, 3, 78, 0
5, 2696, Note_on_c, 3, 76, 117
5, 2788, Note_on_c, 3, 76, 0
5, 3092, Note_on_c, 3, 78, 117
5, 3206, Note_on_c, 3, 78, 0
5, 3276, Note_on_c, 3, 74, 116
5, 3380, Note_on_c, 3, 74, 0
5, 3468, Note_on_c, 3, 71, 117
5, 3518, Note_on_c, 3, 71, 0
5, 3558, Note_on_c, 3, 71, 116
5, 3620, Note_on_c, 3, 71, 0
5, 3654, Note_on_c, 3, 76, 117
5, 3754, Note_on_c, 3, 76, 0
5, 4038, Note_on_c, 3, 78, 117
5, 4292, Note_on_c, 3, 78, 0
5, 4320, Note_on_c, 3, 76, 116
5, 4406, Note_on_c, 3, 76, 0
5, 4416, Note_on_c, 3, 78, 117
5, 4486, Note_on_c, 3, 78, 0
5, 4512, Note_on_c, 3, 76, 117
5, 4596, Note_on_c, 3, 76, 0
5, 4616, Note_on_c, 3, 78, 117
5, 4926, Note_on_c, 3, 78, 0
5, 4982, Note_on_c, 3, 76, 111
5, 5070, Note_on_c, 3, 76, 0
5, 5198, Note_on_c, 3, 74, 117
5, 5816, Note_on_c, 3, 74, 0
5, 7492, Note_on_c, 3, 69, 116
5, 7670, Note_on_c, 3, 69, 0
5, 7682, Note_on_c, 3, 71, 106
5, 7842, Note_on_c, 3, 71, 0
5, 7878, Note_on_c, 3, 69, 106
5, 8054, Note_on_c, 3, 69, 0
5, 8068, Note_on_c, 3, 68, 117
5, 8226, Note_on_c, 3, 68, 0
5, 8260, Note_on_c, 3, 66, 98
5, 8402, Note_on_c, 3, 66, 0
5, 8444, Note_on_c, 3, 64, 103
5, 8540, Note_on_c, 3, 64, 0
5, 8640, Note_on_c, 3, 60, 116
5, 9000, Note_on_c, 3, 60, 0
5, 9024, Note_on_c, 3, 71, 117
5, 9104, Note_on_c, 3, 71, 0
5, 9222, Note_on_c, 3, 71, 110
5, 9404, Note_on_c, 3, 71, 0
5, 9416, Note_on_c, 3, 69, 101
5, 9572, Note_on_c, 3, 69, 0
5, 9606, Note_on_c, 3, 64, 108
5, 9666, Note_on_c, 3, 64, 0
5, 9792, Note_on_c, 3, 60, 111
5, 10152, Note_on_c, 3, 60, 0
5, 10180, Note_on_c, 3, 71, 111
5, 10254, Note_on_c, 3, 71, 0
5, 10368, Note_on_c, 3, 71, 111
5, 10536, Note_on_c, 3, 71, 0
5, 10562, Note_on_c, 3, 69, 98
5, 10752, Note_on_c, 3, 64, 106
5, 10754, Note_on_c, 3, 69, 0
5, 10852, Note_on_c, 3, 64, 0
5, 10952, Note_on_c, 3, 65, 117
5, 11288, Note_on_c, 3, 65, 0
5, 11328, Note_on_c, 3, 74, 117
5, 11404, Note_on_c, 3, 74, 0
5, 11520, Note_on_c, 3, 74, 117
5, 11974, Note_on_c, 3, 74, 0
5, 12096, Note_on_c, 3, 74, 117
5, 12266, Note_on_c, 3, 74, 0
5, 12288, Note_on_c, 3, 76, 113
5, 12480, Note_on_c, 3, 76, 0
5, 12486, Note_on_c, 3, 77, 112
5, 12544, Note_on_c, 3, 77, 0
5, 12672, Note_on_c, 3, 77, 117
5, 12856, Note_on_c, 3, 77, 0
5, 12864, Note_on_c, 3, 76, 103
5, 13026, Note_on_c, 3, 76, 0
5, 13056, Note_on_c, 3, 74, 113
5, 13124, Note_on_c, 3, 74, 0
5, 13248, Note_on_c, 3, 73, 113
5, 13440, Note_on_c, 3, 73, 0
5, 13440, Note_on_c, 3, 74, 100
5, 13502, Note_on_c, 3, 74, 0
5, 13632, Note_on_c, 3, 71, 96
5, 13682, Note_on_c, 3, 71, 0
5, 13824, Note_on_c, 3, 71, 113
5, 13908, Note_on_c, 3, 71, 0
5, 13920, Note_on_c, 3, 72, 98
5, 14014, Note_on_c, 3, 72, 0
5, 14016, Note_on_c, 3, 70, 103
5, 14070, Note_on_c, 3, 70, 0
5, 14208, Note_on_c, 3, 70, 117
5, 15026, Note_on_c, 3, 70, 0
5, 15554, Note_on_c, 3, 69, 112
5, 15746, Note_on_c, 3, 69, 0
5, 15750, Note_on_c, 3, 71, 103
5, 15924, Note_on_c, 3, 71, 0
5, 15936, Note_on_c, 3, 69, 97
5, 16128, Note_on_c, 3, 69, 0
5, 16128, Note_on_c, 3, 68, 103
5, 16320, Note_on_c, 3, 68, 0
5, 16320, Note_on_c, 3, 66, 96
5, 16476, Note_on_c, 3, 66, 0
5, 16512, Note_on_c, 3, 64, 97
5, 16608, Note_on_c, 3, 64, 0
5, 16702, Note_on_c, 3, 66, 108
5, 17078, Note_on_c, 3, 66, 0
5, 17088, Note_on_c, 3, 78, 102
5, 17232, Note_on_c, 3, 78, 0
5, 17280, Note_on_c, 3, 76, 91
5, 17764, Note_on_c, 3, 76, 0
5, 17856, Note_on_c, 3, 66, 116
5, 18374, Note_on_c, 3, 66, 0
5, 18436, Note_on_c, 3, 78, 117
5, 19006, Note_on_c, 3, 78, 0
5, 19008, Note_on_c, 3, 76, 98
5, 19598, Note_on_c, 3, 76, 0
5, 20160, Note_on_c, 3, 66, 117
5, 20502, Note_on_c, 3, 66, 0
5, 20544, Note_on_c, 3, 74, 117
5, 20640, Note_on_c, 3, 74, 0
5, 20640, Note_on_c, 3, 73, 102
5, 20728, Note_on_c, 3, 73, 0
5, 20736, Note_on_c, 3, 71, 97
5, 20818, Note_on_c, 3, 71, 0
5, 20832, Note_on_c, 3, 69, 94
5, 20928, Note_on_c, 3, 69, 0
5, 20928, Note_on_c, 3, 71, 95
5, 20988, Note_on_c, 3, 71, 0
5, 21124, Note_on_c, 3, 69, 98
5, 21914, Note_on_c, 3, 69, 0
5, 22656, Note_on_c, 3, 78, 117
5, 22770, Note_on_c, 3, 78, 0
5, 22848, Note_on_c, 3, 74, 117
5, 22914, Note_on_c, 3, 74, 0
5, 23038, Note_on_c, 3, 71, 117
5, 23080, Note_on_c, 3, 71, 0
5, 23124, Note_on_c, 3, 71, 117
5, 23196, Note_on_c, 3, 71, 0
5, 23232, Note_on_c, 3, 76, 117
5, 23324, Note_on_c, 3, 76, 0
5, 23616, Note_on_c, 3, 78, 117
5, 23858, Note_on_c, 3, 78, 0
5, 23904, Note_on_c, 3, 76, 108
5, 24000, Note_on_c, 3, 76, 0
5, 24000, Note_on_c, 3, 78, 116
5, 24096, Note_on_c, 3, 78, 0
5, 24096, Note_on_c, 3, 76, 108
5, 24144, Note_on_c, 3, 76, 0
5, 24192, Note_on_c, 3, 78, 117
5, 24550, Note_on_c, 3, 78, 0
5, 24576, Note_on_c, 3, 76, 117
5, 24668, Note_on_c, 3, 76, 0
5, 24960, Note_on_c, 3, 78, 117
5, 25104, Note_on_c, 3, 78, 0
5, 25152, Note_on_c, 3, 74, 116
5, 25296, Note_on_c, 3, 74, 0
5, 25344, Note_on_c, 3, 71, 117
5, 25434, Note_on_c, 3, 71, 0
5, 25440, Note_on_c, 3, 71, 116
5, 25502, Note_on_c, 3, 71, 0
5, 25536, Note_on_c, 3, 76, 117
5, 25728, Note_on_c, 3, 76, 0
5, 25920, Note_on_c, 3, 78, 117
5, 26174, Note_on_c, 3, 78, 0
5, 26208, Note_on_c, 3, 76, 112
5, 26304, Note_on_c, 3, 76, 0
5, 26304, Note_on_c, 3, 78, 106
5, 26374, Note_on_c, 3, 78, 0
5, 26400, Note_on_c, 3, 76, 106
5, 26486, Note_on_c, 3, 76, 0
5, 26496, Note_on_c, 3, 78, 100
5, 26806, Note_on_c, 3, 78, 0
5, 26880, Note_on_c, 3, 76, 111
5, 26968, Note_on_c, 3, 76, 0
5, 27072, Note_on_c, 3, 74, 105
5, 27690, Note_on_c, 3, 74, 0
5, 29376, Note_on_c, 3, 69, 116
5, 29568, Note_on_c, 3, 69, 0
5, 29568, Note_on_c, 3, 71, 106
5, 29760, Note_on_c, 3, 71, 0
5, 29760, Note_on_c, 3, 69, 99
5, 29952, Note_on_c, 3, 69, 0
5, 29952, Note_on_c, 3, 68, 117
5, 30110, Note_on_c, 3, 68, 0
5, 30144, Note_on_c, 3, 66, 98
5, 30286, Note_on_c, 3, 66, 0
5, 30334, Note_on_c, 3, 64, 92
5, 30430, Note_on_c, 3, 64, 0
5, 30528, Note_on_c, 3, 60, 117
5, 30888, Note_on_c, 3, 60, 0
5, 30912, Note_on_c, 3, 71, 113
5, 30992, Note_on_c, 3, 71, 0
5, 31104, Note_on_c, 3, 71, 111
5, 31286, Note_on_c, 3, 71, 0
5, 31296, Note_on_c, 3, 69, 104
5, 31452, Note_on_c, 3, 69, 0
5, 31488, Note_on_c, 3, 64, 96
5, 31584, Note_on_c, 3, 64, 0
5, 31680, Note_on_c, 3, 60, 111
5, 32040, Note_on_c, 3, 60, 0
5, 32064, Note_on_c, 3, 71, 108
5, 32208, Note_on_c, 3, 71, 0
5, 32256, Note_on_c, 3, 71, 105
5, 32424, Note_on_c, 3, 71, 0
5, 32452, Note_on_c, 3, 69, 98
5, 32596, Note_on_c, 3, 69, 0
5, 32642, Note_on_c, 3, 64, 90
5, 32742, Note_on_c, 3, 64, 0
5, 32832, Note_on_c, 3, 65, 111
5, 33168, Note_on_c, 3, 65, 0
5, 33216, Note_on_c, 3, 74, 117
5, 33292, Note_on_c, 3, 74, 0
5, 33408, Note_on_c, 3, 74, 117
5, 33862, Note_on_c, 3, 74, 0
5, 33984, Note_on_c, 3, 74, 117
5, 34154, Note_on_c, 3, 74, 0
5, 34176, Note_on_c, 3, 76, 113
5, 34320, Note_on_c, 3, 76, 0
5, 34368, Note_on_c, 3, 77, 107
5, 34464, Note_on_c, 3, 77, 0
5, 34560, Note_on_c, 3, 77, 117
5, 34744, Note_on_c, 3, 77, 0
5, 34752, Note_on_c, 3, 76, 103
5, 34914, Note_on_c, 3, 76, 0
5, 34944, Note_on_c, 3, 74, 97
5, 35012, Note_on_c, 3, 74, 0
5, 35136, Note_on_c, 3, 73, 113
5, 35328, Note_on_c, 3, 73, 0
5, 35328, Note_on_c, 3, 74, 101
5, 35520, Note_on_c, 3, 74, 0
5, 35520, Note_on_c, 3, 71, 97
5, 35570, Note_on_c, 3, 71, 0
5, 35712, Note_on_c, 3, 71, 113
5, 35796, Note_on_c, 3, 71, 0
5, 35808, Note_on_c, 3, 72, 98
5, 35902, Note_on_c, 3, 72, 0
5, 35904, Note_on_c, 3, 70, 91
5, 35958, Note_on_c, 3, 70, 0
5, 36096, Note_on_c, 3, 70, 85
5, 36914, Note_on_c, 3, 70, 0
5, 37444, Note_on_c, 3, 69, 116
5, 37628, Note_on_c, 3, 69, 0
5, 37632, Note_on_c, 3, 71, 103
5, 37806, Note_on_c, 3, 71, 0
5, 37824, Note_on_c, 3, 69, 95
5, 37992, Note_on_c, 3, 69, 0
5, 38016, Note_on_c, 3, 68, 101
5, 38214, Note_on_c, 3, 68, 0
5, 38214, Note_on_c, 3, 66, 96
5, 38370, Note_on_c, 3, 66, 0
5, 38402, Note_on_c, 3, 64, 93
5, 38458, Note_on_c, 3, 64, 0
5, 38592, Note_on_c, 3, 66, 117
5, 38968, Note_on_c, 3, 66, 0
5, 38976, Note_on_c, 3, 78, 117
5, 39100, Note_on_c, 3, 78, 0
5, 39168, Note_on_c, 3, 76, 116
5, 39652, Note_on_c, 3, 76, 0
5, 39744, Note_on_c, 3, 66, 116
5, 40262, Note_on_c, 3, 66, 0
5, 40326, Note_on_c, 3, 78, 117
5, 40854, Note_on_c, 3, 78, 0
5, 40896, Note_on_c, 3, 76, 97
5, 41486, Note_on_c, 3, 76, 0
5, 42048, Note_on_c, 3, 66, 117
5, 42390, Note_on_c, 3, 66, 0
5, 42432, Note_on_c, 3, 74, 107
5, 42528, Note_on_c, 3, 74, 0
5, 42528, Note_on_c, 3, 73, 104
5, 42616, Note_on_c, 3, 73, 0
5, 42624, Note_on_c, 3, 71, 103
5, 42706, Note_on_c, 3, 71, 0
5, 42720, Note_on_c, 3, 69, 97
5, 42816, Note_on_c, 3, 69, 0
5, 42816, Note_on_c, 3, 71, 90
5, 42876, Note_on_c, 3, 71, 0
5, 43008, Note_on_c, 3, 69, 84
5, 43798, Note_on_c, 3, 69, 0
5, 44544, Note_on_c, 3, 78, 117
5, 44736, Note_on_c, 3, 78, 0
5, 44736, Note_on_c, 3, 74, 108
5, 44832, Note_on_c, 3, 74, 0
5, 44926, Note_on_c, 3, 71, 106
5, 44968, Note_on_c, 3, 71, 0
5, 45012, Note_on_c, 3, 71, 106
5, 45084, Note_on_c, 3, 71, 0
5, 45120, Note_on_c, 3, 76, 113
5, 45360, Note_on_c, 3, 76, 0
5, 45504, Note_on_c, 3, 78, 117
5, 45746, Note_on_c, 3, 78, 0
5, 45792, Note_on_c, 3, 76, 108
5, 45888, Note_on_c, 3, 76, 0
5, 45888, Note_on_c, 3, 78, 97
5, 45984, Note_on_c, 3, 78, 0
5, 45984, Note_on_c, 3, 76, 90
5, 46080, Note_on_c, 3, 76, 0
5, 46080, Note_on_c, 3, 78, 114
5, 46438, Note_on_c, 3, 78, 0
5, 46464, Note_on_c, 3, 76, 117
5, 46556, Note_on_c, 3, 76, 0
5, 46848, Note_on_c, 3, 78, 117
5, 47040, Note_on_c, 3, 78, 0
5, 47040, Note_on_c, 3, 74, 102
5, 47232, Note_on_c, 3, 74, 0
5, 47232, Note_on_c, 3, 71, 103
5, 47310, Note_on_c, 3, 71, 0
5, 47328, Note_on_c, 3, 71, 96
5, 47390, Note_on_c, 3, 71, 0
5, 47424, Note_on_c, 3, 76, 102
5, 47524, Note_on_c, 3, 76, 0
5, 47808, Note_on_c, 3, 78, 117
5, 48062, Note_on_c, 3, 78, 0
5, 48096, Note_on_c, 3, 76, 112
5, 48192, Note_on_c, 3, 76, 0
5, 48192, Note_on_c, 3, 78, 103
5, 48288, Note_on_c, 3, 78, 0
5, 48288, Note_on_c, 3, 76, 97
5, 48384, Note_on_c, 3, 76, 0
5, 48384, Note_on_c, 3, 78, 117
5, 48720, Note_on_c, 3, 78, 0
5, 48760, Note_on_c, 3, 76, 111
5, 48848, Note_on_c, 3, 76, 0
5, 48960, Note_on_c, 3, 74, 102
5, 49578, Note_on_c, 3, 74, 0
5, 51266, Note_on_c, 3, 69, 116
5, 51426, Note_on_c, 3, 69, 0
5, 51458, Note_on_c, 3, 71, 99
5, 51614, Note_on_c, 3, 71, 0
5, 51650, Note_on_c, 3, 69, 86
5, 51824, Note_on_c, 3, 69, 0
5, 51842, Note_on_c, 3, 68, 108
5, 52000, Note_on_c, 3, 68, 0
5, 52034, Note_on_c, 3, 66, 98
5, 52176, Note_on_c, 3, 66, 0
5, 52222, Note_on_c, 3, 64, 90
5, 52318, Note_on_c, 3, 64, 0
5, 52416, Note_on_c, 3, 60, 94
5, 52776, Note_on_c, 3, 60, 0
5, 52800, Note_on_c, 3, 71, 100
5, 52880, Note_on_c, 3, 71, 0
5, 52992, Note_on_c, 3, 71, 103
5, 53184, Note_on_c, 3, 71, 0
5, 53184, Note_on_c, 3, 69, 99
5, 53340, Note_on_c, 3, 69, 0
5, 53376, Note_on_c, 3, 64, 90
5, 53436, Note_on_c, 3, 64, 0
5, 53568, Note_on_c, 3, 60, 102
5, 53928, Note_on_c, 3, 60, 0
5, 53958, Note_on_c, 3, 71, 108
5, 54124, Note_on_c, 3, 71, 0
5, 54144, Note_on_c, 3, 71, 105
5, 54312, Note_on_c, 3, 71, 0
5, 54336, Note_on_c, 3, 69, 98
5, 54522, Note_on_c, 3, 69, 0
5, 54528, Note_on_c, 3, 64, 95
5, 54628, Note_on_c, 3, 64, 0
5, 54720, Note_on_c, 3, 65, 112
5, 55056, Note_on_c, 3, 65, 0
5, 55104, Note_on_c, 3, 74, 96
5, 55180, Note_on_c, 3, 74, 0
5, 55296, Note_on_c, 3, 74, 93
5, 55750, Note_on_c, 3, 74, 0
5, 55876, Note_on_c, 3, 74, 105
5, 56046, Note_on_c, 3, 74, 0
5, 56068, Note_on_c, 3, 76, 95
5, 56212, Note_on_c, 3, 76, 0
5, 56258, Note_on_c, 3, 77, 90
5, 56402, Note_on_c, 3, 77, 0
5, 56450, Note_on_c, 3, 77, 109
5, 56634, Note_on_c, 3, 77, 0
5, 56644, Note_on_c, 3, 76, 98
5, 56806, Note_on_c, 3, 76, 0
5, 56834, Note_on_c, 3, 74, 94
5, 56902, Note_on_c, 3, 74, 0
5, 57026, Note_on_c, 3, 73, 103
5, 57210, Note_on_c, 3, 73, 0
5, 57216, Note_on_c, 3, 74, 98
5, 57408, Note_on_c, 3, 74, 0
5, 57408, Note_on_c, 3, 71, 91
5, 57458, Note_on_c, 3, 71, 0
5, 57600, Note_on_c, 3, 71, 97
5, 57684, Note_on_c, 3, 71, 0
5, 57696, Note_on_c, 3, 72, 89
5, 57790, Note_on_c, 3, 72, 0
5, 57792, Note_on_c, 3, 70, 87
5, 57846, Note_on_c, 3, 70, 0
5, 57984, Note_on_c, 3, 70, 96
5, 58802, Note_on_c, 3, 70, 0
5, 59332, Note_on_c, 3, 69, 116
5, 59514, Note_on_c, 3, 69, 0
5, 59520, Note_on_c, 3, 71, 103
5, 59694, Note_on_c, 3, 71, 0
5, 59712, Note_on_c, 3, 69, 94
5, 59890, Note_on_c, 3, 69, 0
5, 59904, Note_on_c, 3, 68, 104
5, 60096, Note_on_c, 3, 66, 96
5, 60102, Note_on_c, 3, 68, 0
5, 60252, Note_on_c, 3, 66, 0
5, 60288, Note_on_c, 3, 64, 90
5, 60384, Note_on_c, 3, 64, 0
5, 60480, Note_on_c, 3, 66, 117
5, 60856, Note_on_c, 3, 66, 0
5, 60864, Note_on_c, 3, 78, 99
5, 61052, Note_on_c, 3, 78, 0
5, 61056, Note_on_c, 3, 76, 101
5, 61540, Note_on_c, 3, 76, 0
5, 61632, Note_on_c, 3, 66, 116
5, 62150, Note_on_c, 3, 66, 0
5, 62208, Note_on_c, 3, 78, 109
5, 62736, Note_on_c, 3, 78, 0
5, 62784, Note_on_c, 3, 76, 97
5, 63374, Note_on_c, 3, 76, 0
5, 63936, Note_on_c, 3, 66, 117
5, 64278, Note_on_c, 3, 66, 0
5, 64320, Note_on_c, 3, 74, 117
5, 64416, Note_on_c, 3, 74, 0
5, 64416, Note_on_c, 3, 73, 105
5, 64504, Note_on_c, 3, 73, 0
5, 64512, Note_on_c, 3, 71, 95
5, 64594, Note_on_c, 3, 71, 0
5, 64608, Note_on_c, 3, 69, 92
5, 64704, Note_on_c, 3, 69, 0
5, 64704, Note_on_c, 3, 71, 111
5, 64764, Note_on_c, 3, 71, 0
5, 64896, Note_on_c, 3, 69, 101
5, 65686, Note_on_c, 3, 69, 0
5, 66240, Note_on_c, 3, 66, 103
5, 66582, Note_on_c, 3, 66, 0
5, 66624, Note_on_c, 3, 74, 111
5, 66720, Note_on_c, 3, 74, 0
5, 66720, Note_on_c, 3, 73, 93
5, 66816, Note_on_c, 3, 73, 0
5, 66816, Note_on_c, 3, 71, 108
5, 66912, Note_on_c, 3, 71, 0
5, 66912, Note_on_c, 3, 69, 98
5, 66998, Note_on_c, 3, 69, 0
5, 67008, Note_on_c, 3, 71, 98
5, 67086, Note_on_c, 3, 71, 0
5, 67202, Note_on_c, 3, 69, 99
5, 67950, Note_on_c, 3, 69, 0
5, 68544, Note_on_c, 3, 66, 111
5, 68896, Note_on_c, 3, 66, 0
5, 68928, Note_on_c, 3, 74, 106
5, 69024, Note_on_c, 3, 74, 0
5, 69024, Note_on_c, 3, 73, 95
5, 69120, Note_on_c, 3, 73, 0
5, 69120, Note_on_c, 3, 71, 89
5, 69214, Note_on_c, 3, 71, 0
5, 69216, Note_on_c, 3, 69, 86
5, 69302, Note_on_c, 3, 69, 0
5, 69312, Note_on_c, 3, 71, 93
5, 69880, Note_on_c, 3, 71, 0
5, 70272, Note_on_c, 3, 71, 92
5, 70368, Note_on_c, 3, 71, 0
5, 70368, Note_on_c, 3, 69, 68
5, 71226, Note_on_c, 3, 69, 0
5, 71226, End_track
6, 0, Start_track
6, 0, MIDI_port, 0
6, 0, Program_c, 4, 53
6, 0, Control_c, 4, 7, 100
6, 0, Control_c, 4, 10, 45
6, 238, Control_c, 4, 11, 127
6, 240, Control_c, 4, 93, 20
6, 240, Control_c, 4, 91, 55
6, 1728, Note_on_c, 4, 73, 85
6, 1728, Note_on_c, 4, 69, 107
6, 1730, Pitch_bend_c, 4, 8192
6, 1730, Control_c, 4, 1, 0
6, 2002, Note_on_c, 4, 73, 0
6, 2014, Note_on_c, 4, 71, 80
6, 2016, Note_on_c, 4, 69, 0
6, 2016, Note_on_c, 4, 67, 107
6, 2102, Note_on_c, 4, 71, 0
6, 2108, Note_on_c, 4, 73, 85
6, 2112, Note_on_c, 4, 67, 0
6, 2112, Note_on_c, 4, 69, 107
6, 2184, Note_on_c, 4, 73, 0
6, 2208, Note_on_c, 4, 71, 80
6, 2208, Note_on_c, 4, 67, 107
6, 2216, Note_on_c, 4, 69, 0
6, 2284, Note_on_c, 4, 71, 0
6, 2296, Note_on_c, 4, 73, 93
6, 2304, Note_on_c, 4, 67, 0
6, 2310, Note_on_c, 4, 69, 107
6, 2670, Note_on_c, 4, 73, 0
6, 2688, Note_on_c, 4, 67, 107
6, 2688, Note_on_c, 4, 71, 92
6, 2694, Note_on_c, 4, 69, 0
6, 2864, Note_on_c, 4, 71, 0
6, 2864, Note_on_c, 4, 67, 0
6, 4032, Note_on_c, 4, 73, 95
6, 4040, Note_on_c, 4, 69, 107
6, 4308, Note_on_c, 4, 69, 0
6, 4320, Note_on_c, 4, 73, 0
6, 4320, Note_on_c, 4, 67, 107
6, 4322, Note_on_c, 4, 71, 74
6, 4414, Note_on_c, 4, 71, 0
6, 4416, Note_on_c, 4, 67, 0
6, 4416, Note_on_c, 4, 69, 107
6, 4420, Note_on_c, 4, 73, 91
6, 4508, Note_on_c, 4, 73, 0
6, 4512, Note_on_c, 4, 69, 0
6, 4512, Note_on_c, 4, 71, 75
6, 4512, Note_on_c, 4, 67, 107
6, 4600, Note_on_c, 4, 71, 0
6, 4608, Note_on_c, 4, 67, 0
6, 4614, Note_on_c, 4, 73, 93
6, 4616, Note_on_c, 4, 69, 107
6, 4976, Note_on_c, 4, 69, 0
6, 4980, Note_on_c, 4, 73, 0
6, 4986, Note_on_c, 4, 71, 98
6, 4992, Note_on_c, 4, 67, 107
6, 5178, Note_on_c, 4, 71, 0
6, 5184, Note_on_c, 4, 67, 0
6, 5184, Note_on_c, 4, 69, 107
6, 5184, Note_on_c, 4, 66, 107
6, 6336, Note_on_c, 4, 66, 0
6, 6336, Note_on_c, 4, 69, 0
6, 23616, Note_on_c, 4, 69, 107
6, 23616, Note_on_c, 4, 73, 85
6, 23890, Note_on_c, 4, 73, 0
6, 23902, Note_on_c, 4, 71, 80
6, 23904, Note_on_c, 4, 69, 0
6, 23904, Note_on_c, 4, 67, 107
6, 23990, Note_on_c, 4, 71, 0
6, 23996, Note_on_c, 4, 73, 85
6, 24000, Note_on_c, 4, 67, 0
6, 24000, Note_on_c, 4, 69, 107
6, 24092, Note_on_c, 4, 73, 0
6, 24096, Note_on_c, 4, 67, 107
6, 24096, Note_on_c, 4, 71, 80
6, 24104, Note_on_c, 4, 69, 0
6, 24184, Note_on_c, 4, 73, 93
6, 24192, Note_on_c, 4, 71, 0
6, 24192, Note_on_c, 4, 67, 0
6, 24198, Note_on_c, 4, 69, 107
6, 24558, Note_on_c, 4, 73, 0
6, 24576, Note_on_c, 4, 71, 92
6, 24576, Note_on_c, 4, 67, 107
6, 24582, Note_on_c, 4, 69, 0
6, 24752, Note_on_c, 4, 67, 0
6, 24752, Note_on_c, 4, 71, 0
6, 25920, Note_on_c, 4, 73, 95
6, 25928, Note_on_c, 4, 69, 107
6, 26196, Note_on_c, 4, 69, 0
6, 26208, Note_on_c, 4, 73, 0
6, 26208, Note_on_c, 4, 67, 107
6, 26210, Note_on_c, 4, 71, 74
6, 26302, Note_on_c, 4, 71, 0
6, 26304, Note_on_c, 4, 67, 0
6, 26304, Note_on_c, 4, 69, 107
6, 26308, Note_on_c, 4, 73, 91
6, 26396, Note_on_c, 4, 73, 0
6, 26400, Note_on_c, 4, 69, 0
6, 26400, Note_on_c, 4, 67, 107
6, 26400, Note_on_c, 4, 71, 75
6, 26488, Note_on_c, 4, 71, 0
6, 26496, Note_on_c, 4, 67, 0
6, 26502, Note_on_c, 4, 73, 93
6, 26504, Note_on_c, 4, 69, 107
6, 26864, Note_on_c, 4, 69, 0
6, 26868, Note_on_c, 4, 73, 0
6, 26874, Note_on_c, 4, 71, 98
6, 26880, Note_on_c, 4, 67, 107
6, 27056, Note_on_c, 4, 67, 0
6, 27066, Note_on_c, 4, 71, 0
6, 27072, Note_on_c, 4, 69, 107
6, 27072, Note_on_c, 4, 66, 107
6, 28224, Note_on_c, 4, 66, 0
6, 28224, Note_on_c, 4, 69, 0
6, 45504, Note_on_c, 4, 73, 85
6, 45504, Note_on_c, 4, 69, 107
6, 45778, Note_on_c, 4, 73, 0
6, 45790, Note_on_c, 4, 71, 80
6, 45792, Note_on_c, 4, 69, 0
6, 45792, Note_on_c, 4, 67, 107
6, 45878, Note_on_c, 4, 71, 0
6, 45884, Note_on_c, 4, 73, 85
6, 45888, Note_on_c, 4, 67, 0
6, 45888, Note_on_c, 4, 69, 107
6, 45960, Note_on_c, 4, 73, 0
6, 45984, Note_on_c, 4, 71, 80
6, 45984, Note_on_c, 4, 67, 107
6, 45992, Note_on_c, 4, 69, 0
6, 46072, Note_on_c, 4, 73, 93
6, 46080, Note_on_c, 4, 67, 0
6, 46080, Note_on_c, 4, 71, 0
6, 46086, Note_on_c, 4, 69, 107
6, 46446, Note_on_c, 4, 73, 0
6, 46464, Note_on_c, 4, 67, 107
6, 46464, Note_on_c, 4, 71, 92
6, 46470, Note_on_c, 4, 69, 0
6, 46640, Note_on_c, 4, 71, 0
6, 46640, Note_on_c, 4, 67, 0
6, 47808, Note_on_c, 4, 73, 95
6, 47816, Note_on_c, 4, 69, 107
6, 48084, Note_on_c, 4, 69, 0
6, 48096, Note_on_c, 4, 73, 0
6, 48096, Note_on_c, 4, 67, 107
6, 48098, Note_on_c, 4, 71, 74
6, 48190, Note_on_c, 4, 71, 0
6, 48192, Note_on_c, 4, 67, 0
6, 48192, Note_on_c, 4, 69, 107
6, 48196, Note_on_c, 4, 73, 91
6, 48284, Note_on_c, 4, 73, 0
6, 48288, Note_on_c, 4, 69, 0
6, 48288, Note_on_c, 4, 67, 107
6, 48288, Note_on_c, 4, 71, 75
6, 48376, Note_on_c, 4, 71, 0
6, 48384, Note_on_c, 4, 67, 0
6, 48390, Note_on_c, 4, 73, 93
6, 48392, Note_on_c, 4, 69, 107
6, 48752, Note_on_c, 4, 69, 0
6, 48756, Note_on_c, 4, 73, 0
6, 48762, Note_on_c, 4, 71, 98
6, 48768, Note_on_c, 4, 67, 107
6, 48954, Note_on_c, 4, 71, 0
6, 48960, Note_on_c, 4, 67, 0
6, 48960, Note_on_c, 4, 66, 107
6, 48960, Note_on_c, 4, 69, 107
6, 50112, Note_on_c, 4, 69, 0
6, 50112, Note_on_c, 4, 66, 0
6, 65376, Note_on_c, 4, 76, 78
6, 65378, Note_on_c, 4, 69, 78
6, 65378, Note_on_c, 4, 73, 78
6, 65470, Note_on_c, 4, 69, 0
6, 65472, Note_on_c, 4, 76, 0
6, 65472, Note_on_c, 4, 78, 61
6, 65474, Note_on_c, 4, 73, 0
6, 65474, Note_on_c, 4, 74, 62
6, 65474, Note_on_c, 4, 71, 90
6, 65566, Note_on_c, 4, 71, 0
6, 65566, Note_on_c, 4, 78, 0
6, 65568, Note_on_c, 4, 74, 0
6, 65568, Note_on_c, 4, 69, 75
6, 65570, Note_on_c, 4, 73, 75
6, 65572, Note_on_c, 4, 76, 75
6, 65660, Note_on_c, 4, 69, 0
6, 65662, Note_on_c, 4, 73, 0
6, 65662, Note_on_c, 4, 74, 80
6, 65664, Note_on_c, 4, 76, 0
6, 65664, Note_on_c, 4, 78, 80
6, 65666, Note_on_c, 4, 71, 80
6, 66044, Note_on_c, 4, 71, 0
6, 66046, Note_on_c, 4, 78, 0
6, 66048, Note_on_c, 4, 74, 0
6, 66048, Note_on_c, 4, 69, 69
6, 66048, Note_on_c, 4, 76, 69
6, 66050, Note_on_c, 4, 73, 69
6, 66144, Note_on_c, 4, 76, 0
6, 66144, Note_on_c, 4, 69, 0
6, 66146, Note_on_c, 4, 73, 0
6, 67680, Note_on_c, 4, 76, 78
6, 67682, Note_on_c, 4, 73, 78
6, 67682, Note_on_c, 4, 69, 78
6, 67774, Note_on_c, 4, 69, 0
6, 67776, Note_on_c, 4, 76, 0
6, 67776, Note_on_c, 4, 78, 61
6, 67778, Note_on_c, 4, 73, 0
6, 67778, Note_on_c, 4, 74, 62
6, 67778, Note_on_c, 4, 71, 90
6, 67870, Note_on_c, 4, 71, 0
6, 67870, Note_on_c, 4, 78, 0
6, 67872, Note_on_c, 4, 74, 0
6, 67872, Note_on_c, 4, 69, 75
6, 67874, Note_on_c, 4, 73, 75
6, 67876, Note_on_c, 4, 76, 75
6, 67964, Note_on_c, 4, 69, 0
6, 67966, Note_on_c, 4, 73, 0
6, 67966, Note_on_c, 4, 74, 80
6, 67968, Note_on_c, 4, 76, 0
6, 67968, Note_on_c, 4, 78, 80
6, 67970, Note_on_c, 4, 71, 80
6, 68348, Note_on_c, 4, 71, 0
6, 68350, Note_on_c, 4, 78, 0
6, 68352, Note_on_c, 4, 74, 0
6, 68352, Note_on_c, 4, 76, 69
6, 68352, Note_on_c, 4, 69, 69
6, 68354, Note_on_c, 4, 73, 69
6, 68448, Note_on_c, 4, 69, 0
6, 68448, Note_on_c, 4, 76, 0
6, 68450, Note_on_c, 4, 73, 0
6, 68450, End_track
7, 0, Start_track
7, 0, MIDI_port, 0
7, 0, Program_c, 5, 15
7, 0, Control_c, 5, 7, 105
7, 0, Control_c, 5, 10, 64
7, 248, Control_c, 5, 11, 127
7, 250, Control_c, 5, 91, 45
7, 250, Control_c, 5, 93, 20
7, 6324, Control_c, 5, 64, 127
7, 6346, Note_on_c, 5, 68, 103
7, 6348, Control_c, 5, 1, 0
7, 6348, Pitch_bend_c, 5, 8192
7, 6350, Note_on_c, 5, 76, 103
7, 6354, Note_on_c, 5, 71, 99
7, 6452, Note_on_c, 5, 71, 0
7, 6458, Note_on_c, 5, 76, 0
7, 6530, Note_on_c, 5, 68, 0
7, 6538, Note_on_c, 5, 68, 103
7, 6540, Note_on_c, 5, 76, 103
7, 6634, Note_on_c, 5, 68, 0
7, 6636, Note_on_c, 5, 76, 0
7, 6650, Note_on_c, 5, 74, 83
7, 6654, Note_on_c, 5, 66, 103
7, 6720, Note_on_c, 5, 71, 39
7, 6722, Note_on_c, 5, 74, 0
7, 6726, Note_on_c, 5, 76, 103
7, 6728, Note_on_c, 5, 68, 97
7, 6736, Note_on_c, 5, 66, 0
7, 6740, Note_on_c, 5, 71, 0
7, 6840, Note_on_c, 5, 68, 0
7, 6848, Note_on_c, 5, 66, 97
7, 6848, Note_on_c, 5, 74, 97
7, 6850, Note_on_c, 5, 76, 0
7, 6914, Note_on_c, 5, 68, 103
7, 6918, Note_on_c, 5, 74, 0
7, 6918, Note_on_c, 5, 66, 0
7, 6918, Note_on_c, 5, 71, 94
7, 6920, Note_on_c, 5, 76, 103
7, 7154, Note_on_c, 5, 71, 0
7, 7166, Note_on_c, 5, 68, 0
7, 7168, Note_on_c, 5, 76, 0
7, 7296, Control_c, 5, 64, 0
7, 7308, Note_on_c, 5, 74, 100
7, 7310, Note_on_c, 5, 66, 88
7, 7414, Note_on_c, 5, 74, 0
7, 7416, Note_on_c, 5, 66, 0
7, 28212, Control_c, 5, 64, 127
7, 28234, Note_on_c, 5, 68, 103
7, 28238, Note_on_c, 5, 76, 103
7, 28242, Note_on_c, 5, 71, 99
7, 28340, Note_on_c, 5, 71, 0
7, 28346, Note_on_c, 5, 76, 0
7, 28418, Note_on_c, 5, 68, 0
7, 28426, Note_on_c, 5, 68, 103
7, 28428, Note_on_c, 5, 76, 103
7, 28522, Note_on_c, 5, 68, 0
7, 28524, Note_on_c, 5, 76, 0
7, 28538, Note_on_c, 5, 74, 83
7, 28542, Note_on_c, 5, 66, 103
7, 28608, Note_on_c, 5, 71, 39
7, 28610, Note_on_c, 5, 74, 0
7, 28614, Note_on_c, 5, 76, 103
7, 28616, Note_on_c, 5, 68, 97
7, 28624, Note_on_c, 5, 66, 0
7, 28628, Note_on_c, 5, 71, 0
7, 28728, Note_on_c, 5, 68, 0
7, 28736, Note_on_c, 5, 74, 97
7, 28736, Note_on_c, 5, 66, 97
7, 28738, Note_on_c, 5, 76, 0
7, 28802, Note_on_c, 5, 68, 103
7, 28806, Note_on_c, 5, 66, 0
7, 28806, Note_on_c, 5, 74, 0
7, 28806, Note_on_c, 5, 71, 94
7, 28808, Note_on_c, 5, 76, 103
7, 29042, Note_on_c, 5, 71, 0
7, 29054, Note_on_c, 5, 68, 0
7, 29056, Note_on_c, 5, 76, 0
7, 29184, Control_c, 5, 64, 0
7, 29196, Note_on_c, 5, 74, 100
7, 29198, Note_on_c, 5, 66, 88
7, 29302, Note_on_c, 5, 74, 0
7, 29304, Note_on_c, 5, 66, 0
7, 50100, Control_c, 5, 64, 127
7, 50122, Note_on_c, 5, 68, 103
7, 50126, Note_on_c, 5, 76, 103
7, 50130, Note_on_c, 5, 71, 99
7, 50228, Note_on_c, 5, 71, 0
7, 50234, Note_on_c, 5, 76, 0
7, 50306, Note_on_c, 5, 68, 0
7, 50314, Note_on_c, 5, 68, 103
7, 50316, Note_on_c, 5, 76, 103
7, 50410, Note_on_c, 5, 68, 0
7, 50412, Note_on_c, 5, 76, 0
7, 50426, Note_on_c, 5, 74, 83
7, 50430, Note_on_c, 5, 66, 103
7, 50496, Note_on_c, 5, 71, 39
7, 50498, Note_on_c, 5, 74, 0
7, 50502, Note_on_c, 5, 76, 103
7, 50504, Note_on_c, 5, 68, 97
7, 50512, Note_on_c, 5, 66, 0
7, 50516, Note_on_c, 5, 71, 0
7, 50616, Note_on_c, 5, 68, 0
7, 50624, Note_on_c, 5, 66, 97
7, 50624, Note_on_c, 5, 74, 97
7, 50626, Note_on_c, 5, 76, 0
7, 50690, Note_on_c, 5, 68, 103
7, 50694, Note_on_c, 5, 74, 0
7, 50694, Note_on_c, 5, 66, 0
7, 50694, Note_on_c, 5, 71, 94
7, 50696, Note_on_c, 5, 76, 103
7, 50930, Note_on_c, 5, 71, 0
7, 50942, Note_on_c, 5, 68, 0
7, 50944, Note_on_c, 5, 76, 0
7, 51072, Control_c, 5, 64, 0
7, 51084, Note_on_c, 5, 74, 100
7, 51086, Note_on_c, 5, 66, 88
7, 51190, Note_on_c, 5, 74, 0
7, 51192, Note_on_c, 5, 66, 0
7, 51192, End_track
8, 0, Start_track
8, 0, MIDI_port, 0
8, 0, Program_c, 6, 49
8, 0, Control_c, 6, 7, 105
8, 0, Control_c, 6, 10, 64
8, 258, Control_c, 6, 11, 127
8, 260, Control_c, 6, 91, 60
8, 260, Control_c, 6, 93, 10
8, 15552, Note_on_c, 6, 57, 66
8, 15552, Note_on_c, 6, 61, 78
8, 15552, Note_on_c, 6, 64, 80
8, 15554, Pitch_bend_c, 6, 8192
8, 15554, Control_c, 6, 1, 0
8, 16702, Note_on_c, 6, 64, 0
8, 16702, Note_on_c, 6, 61, 0
8, 16702, Note_on_c, 6, 57, 0
8, 16704, Note_on_c, 6, 57, 78
8, 16704, Note_on_c, 6, 66, 81
8, 16704, Note_on_c, 6, 61, 81
8, 17278, Note_on_c, 6, 61, 0
8, 17278, Note_on_c, 6, 66, 0
8, 17278, Note_on_c, 6, 57, 0
8, 17280, Note_on_c, 6, 59, 71
8, 17280, Note_on_c, 6, 64, 80
8, 17280, Note_on_c, 6, 56, 72
8, 17854, Note_on_c, 6, 56, 0
8, 17854, Note_on_c, 6, 64, 0
8, 17854, Note_on_c, 6, 59, 0
8, 17856, Note_on_c, 6, 62, 81
8, 17856, Note_on_c, 6, 57, 79
8, 17856, Note_on_c, 6, 66, 70
8, 18624, Note_on_c, 6, 66, 0
8, 18624, Note_on_c, 6, 57, 0
8, 18624, Note_on_c, 6, 62, 0
8, 18624, Note_on_c, 6, 61, 79
8, 18624, Note_on_c, 6, 64, 83
8, 18624, Note_on_c, 6, 56, 82
8, 18814, Note_on_c, 6, 56, 0
8, 18814, Note_on_c, 6, 64, 0
8, 18814, Note_on_c, 6, 61, 0
8, 18816, Note_on_c, 6, 59, 75
8, 18816, Note_on_c, 6, 62, 87
8, 18816, Note_on_c, 6, 54, 71
8, 19006, Note_on_c, 6, 54, 0
8, 19006, Note_on_c, 6, 62, 0
8, 19006, Note_on_c, 6, 59, 0
8, 19008, Note_on_c, 6, 59, 72
8, 19008, Note_on_c, 6, 56, 85
8, 19008, Note_on_c, 6, 64, 73
8, 19582, Note_on_c, 6, 64, 0
8, 19584, Note_on_c, 6, 56, 0
8, 19584, Note_on_c, 6, 59, 0
8, 19584, Note_on_c, 6, 61, 78
8, 19584, Note_on_c, 6, 64, 75
8, 19584, Note_on_c, 6, 57, 70
8, 20158, Note_on_c, 6, 57, 0
8, 20158, Note_on_c, 6, 64, 0
8, 20158, Note_on_c, 6, 61, 0
8, 20160, Note_on_c, 6, 57, 74
8, 20160, Note_on_c, 6, 54, 64
8, 20160, Note_on_c, 6, 62, 80
8, 20734, Note_on_c, 6, 54, 0
8, 20734, Note_on_c, 6, 57, 0
8, 20736, Note_on_c, 6, 59, 72
8, 20736, Note_on_c, 6, 56, 72
8, 21310, Note_on_c, 6, 56, 0
8, 21310, Note_on_c, 6, 59, 0
8, 21310, Note_on_c, 6, 62, 0
8, 21312, Note_on_c, 6, 52, 76
8, 21312, Note_on_c, 6, 57, 80
8, 21312, Note_on_c, 6, 61, 75
8, 22388, Note_on_c, 6, 61, 0
8, 22388, Note_on_c, 6, 52, 0
8, 22394, Note_on_c, 6, 57, 0
8, 37440, Note_on_c, 6, 61, 78
8, 37440, Note_on_c, 6, 57, 66
8, 37440, Note_on_c, 6, 64, 80
8, 38590, Note_on_c, 6, 64, 0
8, 38590, Note_on_c, 6, 57, 0
8, 38590, Note_on_c, 6, 61, 0
8, 38592, Note_on_c, 6, 57, 78
8, 38592, Note_on_c, 6, 61, 81
8, 38592, Note_on_c, 6, 66, 81
8, 39166, Note_on_c, 6, 66, 0
8, 39166, Note_on_c, 6, 61, 0
8, 39166, Note_on_c, 6, 57, 0
8, 39168, Note_on_c, 6, 56, 72
8, 39168, Note_on_c, 6, 64, 80
8, 39168, Note_on_c, 6, 59, 71
8, 39742, Note_on_c, 6, 59, 0
8, 39742, Note_on_c, 6, 64, 0
8, 39742, Note_on_c, 6, 56, 0
8, 39744, Note_on_c, 6, 66, 70
8, 39744, Note_on_c, 6, 57, 79
8, 39744, Note_on_c, 6, 62, 81
8, 40512, Note_on_c, 6, 62, 0
8, 40512, Note_on_c, 6, 57, 0
8, 40512, Note_on_c, 6, 66, 0
8, 40512, Note_on_c, 6, 61, 79
8, 40512, Note_on_c, 6, 64, 83
8, 40512, Note_on_c, 6, 56, 82
8, 40702, Note_on_c, 6, 56, 0
8, 40702, Note_on_c, 6, 64, 0
8, 40702, Note_on_c, 6, 61, 0
8, 40704, Note_on_c, 6, 54, 71
8, 40704, Note_on_c, 6, 62, 87
8, 40704, Note_on_c, 6, 59, 75
8, 40894, Note_on_c, 6, 59, 0
8, 40894, Note_on_c, 6, 62, 0
8, 40894, Note_on_c, 6, 54, 0
8, 40896, Note_on_c, 6, 56, 85
8, 40896, Note_on_c, 6, 64, 73
8, 40896, Note_on_c, 6, 59, 72
8, 41470, Note_on_c, 6, 64, 0
8, 41472, Note_on_c, 6, 59, 0
8, 41472, Note_on_c, 6, 56, 0
8, 41472, Note_on_c, 6, 57, 70
8, 41472, Note_on_c, 6, 64, 75
8, 41472, Note_on_c, 6, 61, 78
8, 42046, Note_on_c, 6, 61, 0
8, 42046, Note_on_c, 6, 64, 0
8, 42046, Note_on_c, 6, 57, 0
8, 42048, Note_on_c, 6, 57, 74
8, 42048, Note_on_c, 6, 54, 64
8, 42048, Note_on_c, 6, 62, 80
8, 42622, Note_on_c, 6, 54, 0
8, 42622, Note_on_c, 6, 57, 0
8, 42624, Note_on_c, 6, 59, 72
8, 42624, Note_on_c, 6, 56, 72
8, 43198, Note_on_c, 6, 56, 0
8, 43198, Note_on_c, 6, 59, 0
8, 43198, Note_on_c, 6, 62, 0
8, 43200, Note_on_c, 6, 57, 80
8, 43200, Note_on_c, 6, 61, 75
8, 43200, Note_on_c, 6, 52, 76
8, 44276, Note_on_c, 6, 52, 0
8, 44276, Note_on_c, 6, 61, 0
8, 44282, Note_on_c, 6, 57, 0
8, 59328, Note_on_c, 6, 57, 66
8, 59328, Note_on_c, 6, 61, 78
8, 59328, Note_on_c, 6, 64, 80
8, 60478, Note_on_c, 6, 64, 0
8, 60478, Note_on_c, 6, 61, 0
8, 60478, Note_on_c, 6, 57, 0
8, 60480, Note_on_c, 6, 57, 78
8, 60480, Note_on_c, 6, 61, 81
8, 60480, Note_on_c, 6, 66, 81
8, 61054, Note_on_c, 6, 66, 0
8, 61054, Note_on_c, 6, 61, 0
8, 61054, Note_on_c, 6, 57, 0
8, 61056, Note_on_c, 6, 59, 71
8, 61056, Note_on_c, 6, 56, 72
8, 61056, Note_on_c, 6, 64, 80
8, 61630, Note_on_c, 6, 64, 0
8, 61630, Note_on_c, 6, 56, 0
8, 61630, Note_on_c, 6, 59, 0
8, 61632, Note_on_c, 6, 66, 70
8, 61632, Note_on_c, 6, 57, 79
8, 61632, Note_on_c, 6, 62, 81
8, 62400, Note_on_c, 6, 62, 0
8, 62400, Note_on_c, 6, 57, 0
8, 62400, Note_on_c, 6, 66, 0
8, 62400, Note_on_c, 6, 64, 83
8, 62400, Note_on_c, 6, 61, 79
8, 62400, Note_on_c, 6, 56, 82
8, 62590, Note_on_c, 6, 56, 0
8, 62590, Note_on_c, 6, 61, 0
8, 62590, Note_on_c, 6, 64, 0
8, 62592, Note_on_c, 6, 59, 75
8, 62592, Note_on_c, 6, 62, 87
8, 62592, Note_on_c, 6, 54, 71
8, 62782, Note_on_c, 6, 54, 0
8, 62782, Note_on_c, 6, 62, 0
8, 62782, Note_on_c, 6, 59, 0
8, 62784, Note_on_c, 6, 64, 73
8, 62784, Note_on_c, 6, 59, 72
8, 62784, Note_on_c, 6, 56, 85
8, 63358, Note_on_c, 6, 64, 0
8, 63360, Note_on_c, 6, 56, 0
8, 63360, Note_on_c, 6, 59, 0
8, 63360, Note_on_c, 6, 64, 75
8, 63360, Note_on_c, 6, 57, 70
8, 63360, Note_on_c, 6, 61, 78
8, 63934, Note_on_c, 6, 61, 0
8, 63934, Note_on_c, 6, 57, 0
8, 63934, Note_on_c, 6, 64, 0
8, 63936, Note_on_c, 6, 57, 74
8, 63936, Note_on_c, 6, 54, 64
8, 63936, Note_on_c, 6, 62, 80
8, 64510, Note_on_c, 6, 54, 0
8, 64510, Note_on_c, 6, 57, 0
8, 64512, Note_on_c, 6, 56, 72
8, 64512, Note_on_c, 6, 59, 72
8, 65086, Note_on_c, 6, 59, 0
8, 65086, Note_on_c, 6, 56, 0
8, 65086, Note_on_c, 6, 62, 0
8, 65088, Note_on_c, 6, 61, 75
8, 65088, Note_on_c, 6, 52, 76
8, 65088, Note_on_c, 6, 57, 80
8, 66164, Note_on_c, 6, 52, 0
8, 66164, Note_on_c, 6, 61, 0
8, 66170, Note_on_c, 6, 57, 0
8, 66240, Note_on_c, 6, 62, 80
8, 66240, Note_on_c, 6, 54, 64
8, 66240, Note_on_c, 6, 57, 74
8, 66814, Note_on_c, 6, 57, 0
8, 66814, Note_on_c, 6, 54, 0
8, 66816, Note_on_c, 6, 56, 72
8, 66816, Note_on_c, 6, 59, 72
8, 67390, Note_on_c, 6, 59, 0
8, 67390, Note_on_c, 6, 56, 0
8, 67390, Note_on_c, 6, 62, 0
8, 67392, Note_on_c, 6, 52, 76
8, 67392, Note_on_c, 6, 61, 75
8, 67392, Note_on_c, 6, 57, 80
8, 68468, Note_on_c, 6, 61, 0
8, 68468, Note_on_c, 6, 52, 0
8, 68474, Note_on_c, 6, 57, 0
8, 68544, Note_on_c, 6, 57, 74
8, 68544, Note_on_c, 6, 54, 64
8, 68544, Note_on_c, 6, 62, 80
8, 69118, Note_on_c, 6, 62, 0
8, 69118, Note_on_c, 6, 54, 0
8, 69118, Note_on_c, 6, 57, 0
8, 69120, Note_on_c, 6, 56, 56
8, 69120, Note_on_c, 6, 62, 56
8, 69120, Note_on_c, 6, 59, 56
8, 70272, Note_on_c, 6, 59, 0
8, 70272, Note_on_c, 6, 62, 0
8, 70272, Note_on_c, 6, 56, 0
8, 70272, Note_on_c, 6, 61, 59
8, 70272, Note_on_c, 6, 64, 58
8, 70272, Note_on_c, 6, 57, 62
8, 72576, Note_on_c, 6, 57, 0
8, 72576, Note_on_c, 6, 64, 0
8, 72576, Note_on_c, 6, 61, 0
8, 72576, End_track
9, 0, Start_track
9, 0, MIDI_port, 0
9, 0, Program_c, 7, 57
9, 0, Control_c, 7, 7, 105
9, 0, Control_c, 7, 10, 40
9, 268, Control_c, 7, 11, 127
9, 270, Control_c, 7, 91, 40
9, 270, Control_c, 7, 93, 20
9, 580, Note_on_c, 7, 38, 115
9, 582, Control_c, 7, 1, 0
9, 582, Pitch_bend_c, 7, 8192
9, 1092, Note_on_c, 7, 38, 0
9, 1154, Note_on_c, 7, 43, 115
9, 1660, Note_on_c, 7, 43, 0
9, 1732, Note_on_c, 7, 45, 115
9, 2164, Note_on_c, 7, 45, 0
9, 2304, Note_on_c, 7, 45, 115
9, 2736, Note_on_c, 7, 45, 0
9, 2884, Note_on_c, 7, 38, 115
9, 3386, Note_on_c, 7, 38, 0
9, 3460, Note_on_c, 7, 43, 115
9, 3948, Note_on_c, 7, 43, 0
9, 4034, Note_on_c, 7, 45, 115
9, 4466, Note_on_c, 7, 45, 0
9, 4608, Note_on_c, 7, 45, 115
9, 5040, Note_on_c, 7, 45, 0
9, 5188, Note_on_c, 7, 38, 115
9, 5668, Note_on_c, 7, 38, 0
9, 5760, Note_on_c, 7, 38, 115
9, 6192, Note_on_c, 7, 38, 0
9, 6340, Note_on_c, 7, 40, 115
9, 6868, Note_on_c, 7, 40, 0
9, 6912, Note_on_c, 7, 40, 115
9, 7440, Note_on_c, 7, 40, 0
9, 14404, Note_on_c, 7, 46, 115
9, 14884, Note_on_c, 7, 46, 0
9, 14980, Note_on_c, 7, 41, 115
9, 15460, Note_on_c, 7, 41, 0
9, 22464, Note_on_c, 7, 38, 115
9, 22896, Note_on_c, 7, 38, 0
9, 23038, Note_on_c, 7, 43, 115
9, 23470, Note_on_c, 7, 43, 0
9, 23614, Note_on_c, 7, 45, 115
9, 24094, Note_on_c, 7, 45, 0
9, 24192, Note_on_c, 7, 45, 115
9, 24672, Note_on_c, 7, 45, 0
9, 24766, Note_on_c, 7, 38, 115
9, 25268, Note_on_c, 7, 38, 0
9, 25342, Note_on_c, 7, 43, 115
9, 25830, Note_on_c, 7, 43, 0
9, 25918, Note_on_c, 7, 45, 115
9, 26398, Note_on_c, 7, 45, 0
9, 26496, Note_on_c, 7, 45, 115
9, 26976, Note_on_c, 7, 45, 0
9, 27074, Note_on_c, 7, 38, 115
9, 27554, Note_on_c, 7, 38, 0
9, 27648, Note_on_c, 7, 38, 115
9, 28128, Note_on_c, 7, 38, 0
9, 28226, Note_on_c, 7, 40, 115
9, 28706, Note_on_c, 7, 40, 0
9, 28800, Note_on_c, 7, 40, 115
9, 29280, Note_on_c, 7, 40, 0
9, 36286, Note_on_c, 7, 46, 115
9, 36766, Note_on_c, 7, 46, 0
9, 36866, Note_on_c, 7, 41, 115
9, 37298, Note_on_c, 7, 41, 0
9, 44352, Note_on_c, 7, 38, 115
9, 44784, Note_on_c, 7, 38, 0
9, 44926, Note_on_c, 7, 43, 115
9, 45358, Note_on_c, 7, 43, 0
9, 45502, Note_on_c, 7, 45, 115
9, 45982, Note_on_c, 7, 45, 0
9, 46080, Note_on_c, 7, 45, 115
9, 46560, Note_on_c, 7, 45, 0
9, 46654, Note_on_c, 7, 38, 115
9, 47156, Note_on_c, 7, 38, 0
9, 47230, Note_on_c, 7, 43, 115
9, 47718, Note_on_c, 7, 43, 0
9, 47806, Note_on_c, 7, 45, 115
9, 48286, Note_on_c, 7, 45, 0
9, 48384, Note_on_c, 7, 45, 115
9, 48864, Note_on_c, 7, 45, 0
9, 48962, Note_on_c, 7, 38, 115
9, 49442, Note_on_c, 7, 38, 0
9, 49536, Note_on_c, 7, 38, 115
9, 50016, Note_on_c, 7, 38, 0
9, 50114, Note_on_c, 7, 40, 115
9, 50594, Note_on_c, 7, 40, 0
9, 50688, Note_on_c, 7, 40, 115
9, 51168, Note_on_c, 7, 40, 0
9, 58174, Note_on_c, 7, 46, 115
9, 58654, Note_on_c, 7, 46, 0
9, 58754, Note_on_c, 7, 41, 115
9, 59252, Note_on_c, 7, 41, 0
9, 63936, Note_on_c, 7, 59, 44
9, 63936, Note_on_c, 7, 62, 47
9, 64438, Note_on_c, 7, 62, 0
9, 64450, Note_on_c, 7, 59, 0
9, 64508, Note_on_c, 7, 59, 34
9, 64510, Note_on_c, 7, 64, 55
9, 65032, Note_on_c, 7, 59, 0
9, 65086, Note_on_c, 7, 61, 55
9, 66198, Note_on_c, 7, 64, 0
9, 66208, Note_on_c, 7, 61, 0
9, 66238, Note_on_c, 7, 59, 47
9, 66238, Note_on_c, 7, 62, 49
9, 66788, Note_on_c, 7, 62, 0
9, 66808, Note_on_c, 7, 59, 0
9, 66818, Note_on_c, 7, 59, 44
9, 66820, Note_on_c, 7, 64, 57
9, 67304, Note_on_c, 7, 59, 0
9, 67392, Note_on_c, 7, 61, 53
9, 68470, Note_on_c, 7, 64, 0
9, 68488, Note_on_c, 7, 61, 0
9, 68540, Note_on_c, 7, 62, 59
9, 68542, Note_on_c, 7, 59, 46
9, 69076, Note_on_c, 7, 62, 0
9, 69116, Note_on_c, 7, 64, 55
9, 70268, Note_on_c, 7, 64, 0
9, 70270, Note_on_c, 7, 59, 0
9, 70272, Note_on_c, 7, 61, 55
9, 70272, Note_on_c, 7, 57, 55
9, 70280, Control_c, 7, 11, 121
9, 70504, Control_c, 7, 11, 106
9, 70674, Control_c, 7, 11, 98
9, 70888, Control_c, 7, 11, 91
9, 71014, Control_c, 7, 11, 83
9, 71266, Control_c, 7, 11, 68
9, 71516, Control_c, 7, 11, 56
9, 71752, Control_c, 7, 11, 46
9, 71820, Control_c, 7, 11, 37
9, 71856, Note_on_c, 7, 57, 0
9, 71856, Note_on_c, 7, 61, 0
9, 71996, Control_c, 7, 11, 127
9, 71996, End_track
10, 0, Start_track
10, 0, MIDI_port, 0
10, 0, Program_c, 8, 47
10, 0, Control_c, 8, 7, 105
10, 0, Control_c, 8, 10, 64
10, 278, Control_c, 8, 11, 127
10, 280, Control_c, 8, 91, 60
10, 280, Control_c, 8, 93, 0
10, 8448, Note_on_c, 8, 43, 84
10, 8450, Control_c, 8, 1, 0
10, 8450, Pitch_bend_c, 8, 8192
10, 8498, Note_on_c, 8, 43, 0
10, 8640, Note_on_c, 8, 48, 101
10, 8674, Note_on_c, 8, 48, 0
10, 9600, Note_on_c, 8, 43, 77
10, 9660, Note_on_c, 8, 43, 0
10, 9792, Note_on_c, 8, 48, 103
10, 9836, Note_on_c, 8, 48, 0
10, 14400, Note_on_c, 8, 46, 112
10, 14898, Note_on_c, 8, 46, 0
10, 14976, Note_on_c, 8, 41, 112
10, 15468, Note_on_c, 8, 41, 0
10, 30336, Note_on_c, 8, 45, 83
10, 30386, Note_on_c, 8, 45, 0
10, 30530, Note_on_c, 8, 48, 112
10, 30564, Note_on_c, 8, 48, 0
10, 31488, Note_on_c, 8, 43, 84
10, 31548, Note_on_c, 8, 43, 0
10, 31682, Note_on_c, 8, 48, 104
10, 31726, Note_on_c, 8, 48, 0
10, 36288, Note_on_c, 8, 46, 112
10, 36786, Note_on_c, 8, 46, 0
10, 36864, Note_on_c, 8, 41, 112
10, 37356, Note_on_c, 8, 41, 0
10, 52224, Note_on_c, 8, 45, 92
10, 52274, Note_on_c, 8, 45, 0
10, 52418, Note_on_c, 8, 48, 103
10, 52452, Note_on_c, 8, 48, 0
10, 53376, Note_on_c, 8, 43, 92
10, 53436, Note_on_c, 8, 43, 0
10, 53570, Note_on_c, 8, 48, 112
10, 53614, Note_on_c, 8, 48, 0
10, 58176, Note_on_c, 8, 46, 112
10, 58674, Note_on_c, 8, 46, 0
10, 58752, Note_on_c, 8, 41, 112
10, 59244, Note_on_c, 8, 41, 0
10, 59244, End_track
11, 0, Start_track
11, 0, MIDI_port, 0
11, 0, Control_c, 9, 7, 105
11, 288, Control_c, 9, 11, 127
11, 290, Control_c, 9, 91, 47
11, 290, Control_c, 9, 93, 0
11, 580, Note_on_c, 9, 35, 118
11, 580, Note_on_c, 9, 49, 77
11, 582, Pitch_bend_c, 9, 8192
11, 582, Control_c, 9, 1, 0
11, 592, Note_on_c, 9, 49, 0
11, 592, Note_on_c, 9, 35, 0
11, 772, Note_on_c, 9, 42, 63
11, 784, Note_on_c, 9, 42, 0
11, 964, Note_on_c, 9, 42, 65
11, 976, Note_on_c, 9, 42, 0
11, 1156, Note_on_c, 9, 35, 118
11, 1156, Note_on_c, 9, 38, 106
11, 1168, Note_on_c, 9, 38, 0
11, 1168, Note_on_c, 9, 35, 0
11, 1348, Note_on_c, 9, 42, 59
11, 1360, Note_on_c, 9, 42, 0
11, 1540, Note_on_c, 9, 42, 48
11, 1552, Note_on_c, 9, 42, 0
11, 1732, Note_on_c, 9, 42, 65
11, 1732, Note_on_c, 9, 35, 118
11, 1744, Note_on_c, 9, 35, 0
11, 1744, Note_on_c, 9, 42, 0
11, 1924, Note_on_c, 9, 42, 56
11, 1936, Note_on_c, 9, 42, 0
11, 2116, Note_on_c, 9, 42, 59
11, 2128, Note_on_c, 9, 42, 0
11, 2308, Note_on_c, 9, 42, 63
11, 2308, Note_on_c, 9, 38, 115
11, 2308, Note_on_c, 9, 35, 118
11, 2320, Note_on_c, 9, 35, 0
11, 2320, Note_on_c, 9, 38, 0
11, 2320, Note_on_c, 9, 42, 0
11, 2500, Note_on_c, 9, 42, 65
11, 2512, Note_on_c, 9, 42, 0
11, 2692, Note_on_c, 9, 42, 73
11, 2704, Note_on_c, 9, 42, 0
11, 2884, Note_on_c, 9, 35, 118
11, 2884, Note_on_c, 9, 57, 65
11, 2896, Note_on_c, 9, 57, 0
11, 2896, Note_on_c, 9, 35, 0
11, 3076, Note_on_c, 9, 42, 63
11, 3088, Note_on_c, 9, 42, 0
11, 3268, Note_on_c, 9, 42, 63
11, 3280, Note_on_c, 9, 42, 0
11, 3460, Note_on_c, 9, 38, 106
11, 3460, Note_on_c, 9, 42, 69
11, 3460, Note_on_c, 9, 35, 118
11, 3472, Note_on_c, 9, 35, 0
11, 3472, Note_on_c, 9, 42, 0
11, 3472, Note_on_c, 9, 38, 0
11, 3652, Note_on_c, 9, 42, 73
11, 3664, Note_on_c, 9, 42, 0
11, 3844, Note_on_c, 9, 42, 73
11, 3856, Note_on_c, 9, 42, 0
11, 4036, Note_on_c, 9, 42, 73
11, 4036, Note_on_c, 9, 35, 118
11, 4048, Note_on_c, 9, 35, 0
11, 4048, Note_on_c, 9, 42, 0
11, 4228, Note_on_c, 9, 42, 69
11, 4240, Note_on_c, 9, 42, 0
11, 4420, Note_on_c, 9, 42, 69
11, 4432, Note_on_c, 9, 42, 0
11, 4608, Note_on_c, 9, 35, 118
11, 4608, Note_on_c, 9, 38, 118
11, 4612, Note_on_c, 9, 42, 65
11, 4620, Note_on_c, 9, 38, 0
11, 4620, Note_on_c, 9, 35, 0
11, 4624, Note_on_c, 9, 42, 0
11, 4804, Note_on_c, 9, 42, 65
11, 4816, Note_on_c, 9, 42, 0
11, 4996, Note_on_c, 9, 46, 65
11, 5008, Note_on_c, 9, 46, 0
11, 5188, Note_on_c, 9, 42, 77
11, 5188, Note_on_c, 9, 35, 118
11, 5200, Note_on_c, 9, 35, 0
11, 5200, Note_on_c, 9, 42, 0
11, 5380, Note_on_c, 9, 42, 63
11, 5392, Note_on_c, 9, 42, 0
11, 5572, Note_on_c, 9, 42, 65
11, 5584, Note_on_c, 9, 42, 0
11, 5760, Note_on_c, 9, 38, 118
11, 5760, Note_on_c, 9, 35, 118
11, 5764, Note_on_c, 9, 42, 65
11, 5772, Note_on_c, 9, 35, 0
11, 5772, Note_on_c, 9, 38, 0
11, 5776, Note_on_c, 9, 42, 0
11, 5956, Note_on_c, 9, 42, 59
11, 5968, Note_on_c, 9, 42, 0
11, 6148, Note_on_c, 9, 42, 48
11, 6160, Note_on_c, 9, 42, 0
11, 6336, Note_on_c, 9, 35, 118
11, 6340, Note_on_c, 9, 42, 65
11, 6348, Note_on_c, 9, 35, 0
11, 6352, Note_on_c, 9, 42, 0
11, 6532, Note_on_c, 9, 42, 56
11, 6544, Note_on_c, 9, 42, 0
11, 6724, Note_on_c, 9, 42, 59
11, 6736, Note_on_c, 9, 42, 0
11, 6912, Note_on_c, 9, 38, 106
11, 6912, Note_on_c, 9, 35, 118
11, 6916, Note_on_c, 9, 42, 63
11, 6924, Note_on_c, 9, 35, 0
11, 6924, Note_on_c, 9, 38, 0
11, 6928, Note_on_c, 9, 42, 0
11, 7108, Note_on_c, 9, 42, 65
11, 7120, Note_on_c, 9, 42, 0
11, 7300, Note_on_c, 9, 42, 73
11, 7312, Note_on_c, 9, 42, 0
11, 7488, Note_on_c, 9, 35, 118
11, 7490, Note_on_c, 9, 51, 78
11, 7500, Note_on_c, 9, 35, 0
11, 7502, Note_on_c, 9, 51, 0
11, 7684, Note_on_c, 9, 42, 63
11, 7696, Note_on_c, 9, 42, 0
11, 7876, Note_on_c, 9, 42, 63
11, 7888, Note_on_c, 9, 42, 0
11, 8066, Note_on_c, 9, 38, 106
11, 8068, Note_on_c, 9, 35, 118
11, 8068, Note_on_c, 9, 42, 69
11, 8078, Note_on_c, 9, 38, 0
11, 8080, Note_on_c, 9, 42, 0
11, 8080, Note_on_c, 9, 35, 0
11, 8260, Note_on_c, 9, 42, 73
11, 8272, Note_on_c, 9, 42, 0
11, 8452, Note_on_c, 9, 42, 73
11, 8464, Note_on_c, 9, 42, 0
11, 8640, Note_on_c, 9, 35, 118
11, 8644, Note_on_c, 9, 42, 73
11, 8652, Note_on_c, 9, 35, 0
11, 8656, Note_on_c, 9, 42, 0
11, 8836, Note_on_c, 9, 42, 69
11, 8848, Note_on_c, 9, 42, 0
11, 9028, Note_on_c, 9, 42, 69
11, 9040, Note_on_c, 9, 42, 0
11, 9216, Note_on_c, 9, 38, 109
11, 9216, Note_on_c, 9, 35, 118
11, 9220, Note_on_c, 9, 42, 65
11, 9228, Note_on_c, 9, 35, 0
11, 9228, Note_on_c, 9, 38, 0
11, 9232, Note_on_c, 9, 42, 0
11, 9412, Note_on_c, 9, 42, 65
11, 9424, Note_on_c, 9, 42, 0
11, 9604, Note_on_c, 9, 42, 65
11, 9616, Note_on_c, 9, 42, 0
11, 9796, Note_on_c, 9, 35, 118
11, 9796, Note_on_c, 9, 42, 77
11, 9808, Note_on_c, 9, 42, 0
11, 9808, Note_on_c, 9, 35, 0
11, 9988, Note_on_c, 9, 42, 63
11, 10000, Note_on_c, 9, 42, 0
11, 10180, Note_on_c, 9, 42, 65
11, 10192, Note_on_c, 9, 42, 0
11, 10368, Note_on_c, 9, 35, 118
11, 10370, Note_on_c, 9, 38, 118
11, 10372, Note_on_c, 9, 42, 65
11, 10380, Note_on_c, 9, 35, 0
11, 10382, Note_on_c, 9, 38, 0
11, 10384, Note_on_c, 9, 42, 0
11, 10564, Note_on_c, 9, 42, 59
11, 10576, Note_on_c, 9, 42, 0
11, 10756, Note_on_c, 9, 42, 48
11, 10768, Note_on_c, 9, 42, 0
11, 10948, Note_on_c, 9, 42, 65
11, 10948, Note_on_c, 9, 35, 118
11, 10960, Note_on_c, 9, 35, 0
11, 10960, Note_on_c, 9, 42, 0
11, 11140, Note_on_c, 9, 42, 56
11, 11152, Note_on_c, 9, 42, 0
11, 11332, Note_on_c, 9, 42, 59
11, 11344, Note_on_c, 9, 42, 0
11, 11520, Note_on_c, 9, 35, 118
11, 11520, Note_on_c, 9, 38, 118
11, 11524, Note_on_c, 9, 42, 63
11, 11532, Note_on_c, 9, 38, 0
11, 11532, Note_on_c, 9, 35, 0
11, 11536, Note_on_c, 9, 42, 0
11, 11716, Note_on_c, 9, 42, 65
11, 11728, Note_on_c, 9, 42, 0
11, 11908, Note_on_c, 9, 42, 73
11, 11920, Note_on_c, 9, 42, 0
11, 12100, Note_on_c, 9, 42, 65
11, 12100, Note_on_c, 9, 35, 118
11, 12112, Note_on_c, 9, 35, 0
11, 12112, Note_on_c, 9, 42, 0
11, 12292, Note_on_c, 9, 42, 63
11, 12304, Note_on_c, 9, 42, 0
11, 12484, Note_on_c, 9, 42, 63
11, 12496, Note_on_c, 9, 42, 0
11, 12672, Note_on_c, 9, 38, 115
11, 12672, Note_on_c, 9, 35, 118
11, 12676, Note_on_c, 9, 42, 69
11, 12684, Note_on_c, 9, 35, 0
11, 12684, Note_on_c, 9, 38, 0
11, 12688, Note_on_c, 9, 42, 0
11, 12868, Note_on_c, 9, 42, 73
11, 12880, Note_on_c, 9, 42, 0
11, 13060, Note_on_c, 9, 42, 73
11, 13072, Note_on_c, 9, 42, 0
11, 13248, Note_on_c, 9, 35, 118
11, 13252, Note_on_c, 9, 42, 73
11, 13260, Note_on_c, 9, 35, 0
11, 13264, Note_on_c, 9, 42, 0
11, 13444, Note_on_c, 9, 42, 69
11, 13456, Note_on_c, 9, 42, 0
11, 13636, Note_on_c, 9, 42, 69
11, 13648, Note_on_c, 9, 42, 0
11, 13824, Note_on_c, 9, 38, 118
11, 13824, Note_on_c, 9, 35, 118
11, 13828, Note_on_c, 9, 42, 65
11, 13836, Note_on_c, 9, 35, 0
11, 13836, Note_on_c, 9, 38, 0
11, 13840, Note_on_c, 9, 42, 0
11, 14020, Note_on_c, 9, 42, 65
11, 14032, Note_on_c, 9, 42, 0
11, 14212, Note_on_c, 9, 42, 65
11, 14224, Note_on_c, 9, 42, 0
11, 14404, Note_on_c, 9, 42, 77
11, 14404, Note_on_c, 9, 35, 118
11, 14416, Note_on_c, 9, 35, 0
11, 14416, Note_on_c, 9, 42, 0
11, 14596, Note_on_c, 9, 42, 63
11, 14608, Note_on_c, 9, 42, 0
11, 14788, Note_on_c, 9, 42, 65
11, 14800, Note_on_c, 9, 42, 0
11, 14980, Note_on_c, 9, 42, 65
11, 14980, Note_on_c, 9, 38, 118
11, 14980, Note_on_c, 9, 35, 118
11, 14992, Note_on_c, 9, 35, 0
11, 14992, Note_on_c, 9, 38, 0
11, 14992, Note_on_c, 9, 42, 0
11, 15172, Note_on_c, 9, 42, 59
11, 15184, Note_on_c, 9, 42, 0
11, 15364, Note_on_c, 9, 46, 75
11, 15376, Note_on_c, 9, 46, 0
11, 15556, Note_on_c, 9, 42, 65
11, 15556, Note_on_c, 9, 35, 118
11, 15568, Note_on_c, 9, 35, 0
11, 15568, Note_on_c, 9, 42, 0
11, 15748, Note_on_c, 9, 42, 56
11, 15760, Note_on_c, 9, 42, 0
11, 15940, Note_on_c, 9, 42, 59
11, 15952, Note_on_c, 9, 42, 0
11, 16128, Note_on_c, 9, 35, 118
11, 16128, Note_on_c, 9, 38, 106
11, 16132, Note_on_c, 9, 42, 63
11, 16140, Note_on_c, 9, 38, 0
11, 16140, Note_on_c, 9, 35, 0
11, 16144, Note_on_c, 9, 42, 0
11, 16324, Note_on_c, 9, 42, 65
11, 16336, Note_on_c, 9, 42, 0
11, 16516, Note_on_c, 9, 42, 73
11, 16528, Note_on_c, 9, 42, 0
11, 16704, Note_on_c, 9, 35, 118
11, 16708, Note_on_c, 9, 42, 65
11, 16716, Note_on_c, 9, 35, 0
11, 16720, Note_on_c, 9, 42, 0
11, 16900, Note_on_c, 9, 42, 63
11, 16912, Note_on_c, 9, 42, 0
11, 17092, Note_on_c, 9, 42, 63
11, 17104, Note_on_c, 9, 42, 0
11, 17280, Note_on_c, 9, 38, 109
11, 17280, Note_on_c, 9, 35, 118
11, 17284, Note_on_c, 9, 42, 69
11, 17292, Note_on_c, 9, 35, 0
11, 17292, Note_on_c, 9, 38, 0
11, 17296, Note_on_c, 9, 42, 0
11, 17476, Note_on_c, 9, 42, 73
11, 17488, Note_on_c, 9, 42, 0
11, 17668, Note_on_c, 9, 42, 73
11, 17680, Note_on_c, 9, 42, 0
11, 17860, Note_on_c, 9, 35, 118
11, 17860, Note_on_c, 9, 42, 73
11, 17872, Note_on_c, 9, 42, 0
11, 17872, Note_on_c, 9, 35, 0
11, 18052, Note_on_c, 9, 42, 69
11, 18064, Note_on_c, 9, 42, 0
11, 18244, Note_on_c, 9, 42, 69
11, 18256, Note_on_c, 9, 42, 0
11, 18436, Note_on_c, 9, 35, 118
11, 18436, Note_on_c, 9, 42, 65
11, 18436, Note_on_c, 9, 38, 106
11, 18448, Note_on_c, 9, 38, 0
11, 18448, Note_on_c, 9, 42, 0
11, 18448, Note_on_c, 9, 35, 0
11, 18628, Note_on_c, 9, 42, 65
11, 18640, Note_on_c, 9, 42, 0
11, 18820, Note_on_c, 9, 42, 65
11, 18832, Note_on_c, 9, 42, 0
11, 19008, Note_on_c, 9, 35, 118
11, 19012, Note_on_c, 9, 42, 77
11, 19020, Note_on_c, 9, 35, 0
11, 19024, Note_on_c, 9, 42, 0
11, 19204, Note_on_c, 9, 42, 63
11, 19216, Note_on_c, 9, 42, 0
11, 19396, Note_on_c, 9, 42, 65
11, 19408, Note_on_c, 9, 42, 0
11, 19588, Note_on_c, 9, 42, 65
11, 19588, Note_on_c, 9, 35, 118
11, 19588, Note_on_c, 9, 38, 109
11, 19600, Note_on_c, 9, 38, 0
11, 19600, Note_on_c, 9, 35, 0
11, 19600, Note_on_c, 9, 42, 0
11, 19780, Note_on_c, 9, 42, 59
11, 19792, Note_on_c, 9, 42, 0
11, 19972, Note_on_c, 9, 42, 48
11, 19984, Note_on_c, 9, 42, 0
11, 20160, Note_on_c, 9, 35, 118
11, 20164, Note_on_c, 9, 42, 65
11, 20172, Note_on_c, 9, 35, 0
11, 20176, Note_on_c, 9, 42, 0
11, 20356, Note_on_c, 9, 42, 56
11, 20368, Note_on_c, 9, 42, 0
11, 20548, Note_on_c, 9, 42, 59
11, 20560, Note_on_c, 9, 42, 0
11, 20736, Note_on_c, 9, 35, 118
11, 20736, Note_on_c, 9, 38, 109
11, 20740, Note_on_c, 9, 42, 63
11, 20748, Note_on_c, 9, 38, 0
11, 20748, Note_on_c, 9, 35, 0
11, 20752, Note_on_c, 9, 42, 0
11, 20932, Note_on_c, 9, 42, 65
11, 20944, Note_on_c, 9, 42, 0
11, 21124, Note_on_c, 9, 42, 73
11, 21136, Note_on_c, 9, 42, 0
11, 21312, Note_on_c, 9, 35, 118
11, 21316, Note_on_c, 9, 42, 65
11, 21324, Note_on_c, 9, 35, 0
11, 21328, Note_on_c, 9, 42, 0
11, 21508, Note_on_c, 9, 42, 63
11, 21520, Note_on_c, 9, 42, 0
11, 21628, Note_on_c, 9, 38, 82
11, 21640, Note_on_c, 9, 38, 0
11, 21698, Note_on_c, 9, 38, 92
11, 21710, Note_on_c, 9, 38, 0
11, 21826, Note_on_c, 9, 46, 63
11, 21838, Note_on_c, 9, 46, 0
11, 21888, Note_on_c, 9, 38, 97
11, 21888, Note_on_c, 9, 35, 97
11, 21898, Note_on_c, 9, 38, 0
11, 21900, Note_on_c, 9, 35, 0
11, 22016, Note_on_c, 9, 38, 78
11, 22028, Note_on_c, 9, 38, 0
11, 22088, Note_on_c, 9, 47, 107
11, 22100, Note_on_c, 9, 47, 0
11, 22280, Note_on_c, 9, 47, 85
11, 22292, Note_on_c, 9, 47, 0
11, 22400, Note_on_c, 9, 38, 81
11, 22412, Note_on_c, 9, 38, 0
11, 22464, Note_on_c, 9, 35, 85
11, 22466, Note_on_c, 9, 49, 85
11, 22476, Note_on_c, 9, 35, 0
11, 22478, Note_on_c, 9, 49, 0
11, 22660, Note_on_c, 9, 42, 69
11, 22672, Note_on_c, 9, 42, 0
11, 22852, Note_on_c, 9, 42, 69
11, 22864, Note_on_c, 9, 42, 0
11, 23040, Note_on_c, 9, 38, 106
11, 23040, Note_on_c, 9, 35, 118
11, 23044, Note_on_c, 9, 42, 65
11, 23052, Note_on_c, 9, 35, 0
11, 23052, Note_on_c, 9, 38, 0
11, 23056, Note_on_c, 9, 42, 0
11, 23236, Note_on_c, 9, 42, 65
11, 23248, Note_on_c, 9, 42, 0
11, 23428, Note_on_c, 9, 42, 65
11, 23440, Note_on_c, 9, 42, 0
11, 23616, Note_on_c, 9, 35, 118
11, 23620, Note_on_c, 9, 42, 77
11, 23628, Note_on_c, 9, 35, 0
11, 23632, Note_on_c, 9, 42, 0
11, 23812, Note_on_c, 9, 42, 63
11, 23824, Note_on_c, 9, 42, 0
11, 24004, Note_on_c, 9, 42, 65
11, 24016, Note_on_c, 9, 42, 0
11, 24192, Note_on_c, 9, 35, 118
11, 24192, Note_on_c, 9, 38, 115
11, 24196, Note_on_c, 9, 42, 65
11, 24204, Note_on_c, 9, 38, 0
11, 24204, Note_on_c, 9, 35, 0
11, 24208, Note_on_c, 9, 42, 0
11, 24388, Note_on_c, 9, 42, 59
11, 24400, Note_on_c, 9, 42, 0
11, 24580, Note_on_c, 9, 42, 48
11, 24592, Note_on_c, 9, 42, 0
11, 24768, Note_on_c, 9, 35, 118
11, 24772, Note_on_c, 9, 42, 65
11, 24780, Note_on_c, 9, 35, 0
11, 24784, Note_on_c, 9, 42, 0
11, 24964, Note_on_c, 9, 42, 56
11, 24976, Note_on_c, 9, 42, 0
11, 25156, Note_on_c, 9, 42, 59
11, 25168, Note_on_c, 9, 42, 0
11, 25344, Note_on_c, 9, 35, 118
11, 25346, Note_on_c, 9, 38, 106
11, 25348, Note_on_c, 9, 42, 63
11, 25356, Note_on_c, 9, 35, 0
11, 25358, Note_on_c, 9, 38, 0
11, 25360, Note_on_c, 9, 42, 0
11, 25540, Note_on_c, 9, 42, 65
11, 25552, Note_on_c, 9, 42, 0
11, 25732, Note_on_c, 9, 42, 73
11, 25744, Note_on_c, 9, 42, 0
11, 25920, Note_on_c, 9, 35, 118
11, 25924, Note_on_c, 9, 42, 65
11, 25932, Note_on_c, 9, 35, 0
11, 25936, Note_on_c, 9, 42, 0
11, 26116, Note_on_c, 9, 42, 63
11, 26128, Note_on_c, 9, 42, 0
11, 26308, Note_on_c, 9, 42, 63
11, 26320, Note_on_c, 9, 42, 0
11, 26496, Note_on_c, 9, 35, 118
11, 26498, Note_on_c, 9, 38, 118
11, 26500, Note_on_c, 9, 42, 69
11, 26508, Note_on_c, 9, 35, 0
11, 26510, Note_on_c, 9, 38, 0
11, 26512, Note_on_c, 9, 42, 0
11, 26692, Note_on_c, 9, 42, 73
11, 26704, Note_on_c, 9, 42, 0
11, 26884, Note_on_c, 9, 42, 73
11, 26896, Note_on_c, 9, 42, 0
11, 27072, Note_on_c, 9, 35, 118
11, 27076, Note_on_c, 9, 42, 73
11, 27084, Note_on_c, 9, 35, 0
11, 27088, Note_on_c, 9, 42, 0
11, 27268, Note_on_c, 9, 42, 69
11, 27280, Note_on_c, 9, 42, 0
11, 27460, Note_on_c, 9, 42, 69
11, 27472, Note_on_c, 9, 42, 0
11, 27648, Note_on_c, 9, 35, 118
11, 27648, Note_on_c, 9, 38, 118
11, 27652, Note_on_c, 9, 42, 65
11, 27660, Note_on_c, 9, 38, 0
11, 27660, Note_on_c, 9, 35, 0
11, 27664, Note_on_c, 9, 42, 0
11, 27844, Note_on_c, 9, 42, 65
11, 27856, Note_on_c, 9, 42, 0
11, 28036, Note_on_c, 9, 42, 65
11, 28048, Note_on_c, 9, 42, 0
11, 28224, Note_on_c, 9, 35, 118
11, 28228, Note_on_c, 9, 42, 77
11, 28236, Note_on_c, 9, 35, 0
11, 28240, Note_on_c, 9, 42, 0
11, 28420, Note_on_c, 9, 42, 63
11, 28432, Note_on_c, 9, 42, 0
11, 28612, Note_on_c, 9, 42, 65
11, 28624, Note_on_c, 9, 42, 0
11, 28800, Note_on_c, 9, 35, 118
11, 28800, Note_on_c, 9, 38, 106
11, 28804, Note_on_c, 9, 42, 65
11, 28812, Note_on_c, 9, 38, 0
11, 28812, Note_on_c, 9, 35, 0
11, 28816, Note_on_c, 9, 42, 0
11, 28996, Note_on_c, 9, 42, 59
11, 29008, Note_on_c, 9, 42, 0
11, 29188, Note_on_c, 9, 42, 48
11, 29200, Note_on_c, 9, 42, 0
11, 29376, Note_on_c, 9, 35, 118
11, 29380, Note_on_c, 9, 51, 79
11, 29388, Note_on_c, 9, 35, 0
11, 29392, Note_on_c, 9, 51, 0
11, 29572, Note_on_c, 9, 42, 56
11, 29584, Note_on_c, 9, 42, 0
11, 29764, Note_on_c, 9, 42, 59
11, 29776, Note_on_c, 9, 42, 0
11, 29952, Note_on_c, 9, 38, 106
11, 29952, Note_on_c, 9, 35, 118
11, 29956, Note_on_c, 9, 42, 63
11, 29964, Note_on_c, 9, 35, 0
11, 29964, Note_on_c, 9, 38, 0
11, 29968, Note_on_c, 9, 42, 0
11, 30148, Note_on_c, 9, 42, 65
11, 30160, Note_on_c, 9, 42, 0
11, 30340, Note_on_c, 9, 42, 73
11, 30352, Note_on_c, 9, 42, 0
11, 30528, Note_on_c, 9, 35, 118
11, 30532, Note_on_c, 9, 42, 65
11, 30540, Note_on_c, 9, 35, 0
11, 30544, Note_on_c, 9, 42, 0
11, 30724, Note_on_c, 9, 42, 63
11, 30736, Note_on_c, 9, 42, 0
11, 30916, Note_on_c, 9, 42, 63
11, 30928, Note_on_c, 9, 42, 0
11, 31104, Note_on_c, 9, 35, 118
11, 31106, Note_on_c, 9, 38, 109
11, 31108, Note_on_c, 9, 42, 69
11, 31116, Note_on_c, 9, 35, 0
11, 31118, Note_on_c, 9, 38, 0
11, 31120, Note_on_c, 9, 42, 0
11, 31300, Note_on_c, 9, 42, 73
11, 31312, Note_on_c, 9, 42, 0
11, 31492, Note_on_c, 9, 42, 73
11, 31504, Note_on_c, 9, 42, 0
11, 31680, Note_on_c, 9, 35, 118
11, 31684, Note_on_c, 9, 42, 73
11, 31692, Note_on_c, 9, 35, 0
11, 31696, Note_on_c, 9, 42, 0
11, 31876, Note_on_c, 9, 42, 69
11, 31888, Note_on_c, 9, 42, 0
11, 32068, Note_on_c, 9, 42, 69
11, 32080, Note_on_c, 9, 42, 0
11, 32254, Note_on_c, 9, 38, 118
11, 32256, Note_on_c, 9, 35, 118
11, 32260, Note_on_c, 9, 42, 65
11, 32266, Note_on_c, 9, 38, 0
11, 32268, Note_on_c, 9, 35, 0
11, 32272, Note_on_c, 9, 42, 0
11, 32452, Note_on_c, 9, 42, 65
11, 32464, Note_on_c, 9, 42, 0
11, 32644, Note_on_c, 9, 42, 65
11, 32656, Note_on_c, 9, 42, 0
11, 32832, Note_on_c, 9, 35, 118
11, 32836, Note_on_c, 9, 42, 77
11, 32844, Note_on_c, 9, 35, 0
11, 32848, Note_on_c, 9, 42, 0
11, 33028, Note_on_c, 9, 42, 63
11, 33040, Note_on_c, 9, 42, 0
11, 33220, Note_on_c, 9, 42, 65
11, 33232, Note_on_c, 9, 42, 0
11, 33408, Note_on_c, 9, 35, 118
11, 33408, Note_on_c, 9, 38, 118
11, 33412, Note_on_c, 9, 42, 65
11, 33420, Note_on_c, 9, 38, 0
11, 33420, Note_on_c, 9, 35, 0
11, 33424, Note_on_c, 9, 42, 0
11, 33604, Note_on_c, 9, 42, 59
11, 33616, Note_on_c, 9, 42, 0
11, 33796, Note_on_c, 9, 42, 48
11, 33808, Note_on_c, 9, 42, 0
11, 33984, Note_on_c, 9, 35, 118
11, 33988, Note_on_c, 9, 42, 65
11, 33996, Note_on_c, 9, 35, 0
11, 34000, Note_on_c, 9, 42, 0
11, 34180, Note_on_c, 9, 42, 56
11, 34192, Note_on_c, 9, 42, 0
11, 34372, Note_on_c, 9, 42, 59
11, 34384, Note_on_c, 9, 42, 0
11, 34560, Note_on_c, 9, 38, 115
11, 34560, Note_on_c, 9, 35, 118
11, 34564, Note_on_c, 9, 42, 63
11, 34572, Note_on_c, 9, 35, 0
11, 34572, Note_on_c, 9, 38, 0
11, 34576, Note_on_c, 9, 42, 0
11, 34756, Note_on_c, 9, 42, 65
11, 34768, Note_on_c, 9, 42, 0
11, 34948, Note_on_c, 9, 42, 73
11, 34960, Note_on_c, 9, 42, 0
11, 35136, Note_on_c, 9, 35, 118
11, 35140, Note_on_c, 9, 42, 65
11, 35148, Note_on_c, 9, 35, 0
11, 35152, Note_on_c, 9, 42, 0
11, 35332, Note_on_c, 9, 42, 63
11, 35344, Note_on_c, 9, 42, 0
11, 35524, Note_on_c, 9, 42, 63
11, 35536, Note_on_c, 9, 42, 0
11, 35712, Note_on_c, 9, 38, 118
11, 35712, Note_on_c, 9, 35, 118
11, 35716, Note_on_c, 9, 42, 69
11, 35724, Note_on_c, 9, 35, 0
11, 35724, Note_on_c, 9, 38, 0
11, 35728, Note_on_c, 9, 42, 0
11, 35908, Note_on_c, 9, 42, 73
11, 35920, Note_on_c, 9, 42, 0
11, 36100, Note_on_c, 9, 42, 73
11, 36112, Note_on_c, 9, 42, 0
11, 36288, Note_on_c, 9, 35, 118
11, 36292, Note_on_c, 9, 42, 73
11, 36300, Note_on_c, 9, 35, 0
11, 36304, Note_on_c, 9, 42, 0
11, 36484, Note_on_c, 9, 42, 69
11, 36496, Note_on_c, 9, 42, 0
11, 36676, Note_on_c, 9, 42, 69
11, 36688, Note_on_c, 9, 42, 0
11, 36864, Note_on_c, 9, 35, 118
11, 36864, Note_on_c, 9, 38, 118
11, 36868, Note_on_c, 9, 42, 65
11, 36876, Note_on_c, 9, 38, 0
11, 36876, Note_on_c, 9, 35, 0
11, 36880, Note_on_c, 9, 42, 0
11, 37060, Note_on_c, 9, 42, 65
11, 37072, Note_on_c, 9, 42, 0
11, 37252, Note_on_c, 9, 42, 65
11, 37264, Note_on_c, 9, 42, 0
11, 37440, Note_on_c, 9, 35, 118
11, 37444, Note_on_c, 9, 42, 77
11, 37452, Note_on_c, 9, 35, 0
11, 37456, Note_on_c, 9, 42, 0
11, 37636, Note_on_c, 9, 42, 63
11, 37648, Note_on_c, 9, 42, 0
11, 37828, Note_on_c, 9, 42, 65
11, 37840, Note_on_c, 9, 42, 0
11, 38016, Note_on_c, 9, 38, 106
11, 38016, Note_on_c, 9, 35, 118
11, 38020, Note_on_c, 9, 42, 65
11, 38028, Note_on_c, 9, 35, 0
11, 38028, Note_on_c, 9, 38, 0
11, 38032, Note_on_c, 9, 42, 0
11, 38212, Note_on_c, 9, 42, 59
11, 38224, Note_on_c, 9, 42, 0
11, 38404, Note_on_c, 9, 42, 48
11, 38416, Note_on_c, 9, 42, 0
11, 38592, Note_on_c, 9, 35, 118
11, 38596, Note_on_c, 9, 42, 65
11, 38604, Note_on_c, 9, 35, 0
11, 38608, Note_on_c, 9, 42, 0
11, 38788, Note_on_c, 9, 42, 56
11, 38800, Note_on_c, 9, 42, 0
11, 38980, Note_on_c, 9, 42, 59
11, 38992, Note_on_c, 9, 42, 0
11, 39168, Note_on_c, 9, 38, 109
11, 39168, Note_on_c, 9, 35, 118
11, 39172, Note_on_c, 9, 42, 63
11, 39180, Note_on_c, 9, 35, 0
11, 39180, Note_on_c, 9, 38, 0
11, 39184, Note_on_c, 9, 42, 0
11, 39364, Note_on_c, 9, 42, 65
11, 39376, Note_on_c, 9, 42, 0
11, 39556, Note_on_c, 9, 42, 73
11, 39568, Note_on_c, 9, 42, 0
11, 39744, Note_on_c, 9, 35, 118
11, 39748, Note_on_c, 9, 42, 65
11, 39756, Note_on_c, 9, 35, 0
11, 39760, Note_on_c, 9, 42, 0
11, 39940, Note_on_c, 9, 42, 63
11, 39952, Note_on_c, 9, 42, 0
11, 40132, Note_on_c, 9, 42, 63
11, 40144, Note_on_c, 9, 42, 0
11, 40320, Note_on_c, 9, 35, 118
11, 40320, Note_on_c, 9, 38, 106
11, 40324, Note_on_c, 9, 42, 69
11, 40332, Note_on_c, 9, 38, 0
11, 40332, Note_on_c, 9, 35, 0
11, 40336, Note_on_c, 9, 42, 0
11, 40516, Note_on_c, 9, 42, 73
11, 40528, Note_on_c, 9, 42, 0
11, 40708, Note_on_c, 9, 42, 73
11, 40720, Note_on_c, 9, 42, 0
11, 40896, Note_on_c, 9, 35, 118
11, 40900, Note_on_c, 9, 42, 73
11, 40908, Note_on_c, 9, 35, 0
11, 40912, Note_on_c, 9, 42, 0
11, 41092, Note_on_c, 9, 42, 69
11, 41104, Note_on_c, 9, 42, 0
11, 41284, Note_on_c, 9, 42, 69
11, 41296, Note_on_c, 9, 42, 0
11, 41472, Note_on_c, 9, 38, 109
11, 41472, Note_on_c, 9, 35, 118
11, 41476, Note_on_c, 9, 42, 65
11, 41484, Note_on_c, 9, 35, 0
11, 41484, Note_on_c, 9, 38, 0
11, 41488, Note_on_c, 9, 42, 0
11, 41668, Note_on_c, 9, 42, 65
11, 41680, Note_on_c, 9, 42, 0
11, 41860, Note_on_c, 9, 42, 65
11, 41872, Note_on_c, 9, 42, 0
11, 42048, Note_on_c, 9, 35, 118
11, 42052, Note_on_c, 9, 42, 77
11, 42060, Note_on_c, 9, 35, 0
11, 42064, Note_on_c, 9, 42, 0
11, 42244, Note_on_c, 9, 42, 63
11, 42256, Note_on_c, 9, 42, 0
11, 42436, Note_on_c, 9, 42, 65
11, 42448, Note_on_c, 9, 42, 0
11, 42624, Note_on_c, 9, 35, 118
11, 42624, Note_on_c, 9, 38, 109
11, 42628, Note_on_c, 9, 42, 65
11, 42636, Note_on_c, 9, 38, 0
11, 42636, Note_on_c, 9, 35, 0
11, 42640, Note_on_c, 9, 42, 0
11, 42820, Note_on_c, 9, 42, 59
11, 42832, Note_on_c, 9, 42, 0
11, 43012, Note_on_c, 9, 42, 48
11, 43024, Note_on_c, 9, 42, 0
11, 43200, Note_on_c, 9, 35, 118
11, 43204, Note_on_c, 9, 42, 65
11, 43212, Note_on_c, 9, 35, 0
11, 43216, Note_on_c, 9, 42, 0
11, 43396, Note_on_c, 9, 42, 56
11, 43408, Note_on_c, 9, 42, 0
11, 43492, Note_on_c, 9, 38, 95
11, 43504, Note_on_c, 9, 38, 0
11, 43586, Note_on_c, 9, 38, 92
11, 43588, Note_on_c, 9, 42, 59
11, 43598, Note_on_c, 9, 38, 0
11, 43600, Note_on_c, 9, 42, 0
11, 43682, Note_on_c, 9, 38, 92
11, 43694, Note_on_c, 9, 38, 0
11, 43774, Note_on_c, 9, 38, 103
11, 43776, Note_on_c, 9, 35, 118
11, 43780, Note_on_c, 9, 42, 63
11, 43788, Note_on_c, 9, 35, 0
11, 43790, Note_on_c, 9, 38, 0
11, 43792, Note_on_c, 9, 42, 0
11, 43966, Note_on_c, 9, 45, 87
11, 43972, Note_on_c, 9, 42, 65
11, 43978, Note_on_c, 9, 45, 0
11, 43984, Note_on_c, 9, 42, 0
11, 44066, Note_on_c, 9, 43, 87
11, 44078, Note_on_c, 9, 43, 0
11, 44158, Note_on_c, 9, 48, 92
11, 44164, Note_on_c, 9, 42, 73
11, 44170, Note_on_c, 9, 48, 0
11, 44176, Note_on_c, 9, 42, 0
11, 44252, Note_on_c, 9, 45, 93
11, 44264, Note_on_c, 9, 45, 0
11, 44352, Note_on_c, 9, 35, 118
11, 44352, Note_on_c, 9, 49, 65
11, 44364, Note_on_c, 9, 49, 0
11, 44364, Note_on_c, 9, 35, 0
11, 44548, Note_on_c, 9, 42, 63
11, 44560, Note_on_c, 9, 42, 0
11, 44740, Note_on_c, 9, 42, 63
11, 44752, Note_on_c, 9, 42, 0
11, 44928, Note_on_c, 9, 35, 118
11, 44930, Note_on_c, 9, 38, 106
11, 44932, Note_on_c, 9, 42, 69
11, 44940, Note_on_c, 9, 35, 0
11, 44942, Note_on_c, 9, 38, 0
11, 44944, Note_on_c, 9, 42, 0
11, 45124, Note_on_c, 9, 42, 73
11, 45136, Note_on_c, 9, 42, 0
11, 45316, Note_on_c, 9, 42, 73
11, 45328, Note_on_c, 9, 42, 0
11, 45504, Note_on_c, 9, 35, 118
11, 45508, Note_on_c, 9, 42, 73
11, 45516, Note_on_c, 9, 35, 0
11, 45520, Note_on_c, 9, 42, 0
11, 45700, Note_on_c, 9, 42, 69
11, 45712, Note_on_c, 9, 42, 0
11, 45892, Note_on_c, 9, 42, 69
11, 45904, Note_on_c, 9, 42, 0
11, 46080, Note_on_c, 9, 38, 115
11, 46080, Note_on_c, 9, 35, 118
11, 46084, Note_on_c, 9, 42, 65
11, 46092, Note_on_c, 9, 35, 0
11, 46092, Note_on_c, 9, 38, 0
11, 46096, Note_on_c, 9, 42, 0
11, 46276, Note_on_c, 9, 42, 65
11, 46288, Note_on_c, 9, 42, 0
11, 46468, Note_on_c, 9, 46, 79
11, 46480, Note_on_c, 9, 46, 0
11, 46656, Note_on_c, 9, 35, 118
11, 46660, Note_on_c, 9, 42, 77
11, 46668, Note_on_c, 9, 35, 0
11, 46672, Note_on_c, 9, 42, 0
11, 46852, Note_on_c, 9, 42, 63
11, 46864, Note_on_c, 9, 42, 0
11, 47044, Note_on_c, 9, 42, 65
11, 47056, Note_on_c, 9, 42, 0
11, 47232, Note_on_c, 9, 35, 118
11, 47234, Note_on_c, 9, 38, 106
11, 47236, Note_on_c, 9, 42, 65
11, 47244, Note_on_c, 9, 35, 0
11, 47246, Note_on_c, 9, 38, 0
11, 47248, Note_on_c, 9, 42, 0
11, 47428, Note_on_c, 9, 42, 59
11, 47440, Note_on_c, 9, 42, 0
11, 47620, Note_on_c, 9, 42, 48
11, 47632, Note_on_c, 9, 42, 0
11, 47808, Note_on_c, 9, 35, 118
11, 47812, Note_on_c, 9, 42, 65
11, 47820, Note_on_c, 9, 35, 0
11, 47824, Note_on_c, 9, 42, 0
11, 48004, Note_on_c, 9, 42, 56
11, 48016, Note_on_c, 9, 42, 0
11, 48196, Note_on_c, 9, 42, 59
11, 48208, Note_on_c, 9, 42, 0
11, 48384, Note_on_c, 9, 35, 118
11, 48384, Note_on_c, 9, 38, 118
11, 48388, Note_on_c, 9, 42, 63
11, 48396, Note_on_c, 9, 38, 0
11, 48396, Note_on_c, 9, 35, 0
11, 48400, Note_on_c, 9, 42, 0
11, 48580, Note_on_c, 9, 42, 65
11, 48592, Note_on_c, 9, 42, 0
11, 48772, Note_on_c, 9, 42, 73
11, 48784, Note_on_c, 9, 42, 0
11, 48960, Note_on_c, 9, 35, 118
11, 48964, Note_on_c, 9, 42, 65
11, 48972, Note_on_c, 9, 35, 0
11, 48976, Note_on_c, 9, 42, 0
11, 49156, Note_on_c, 9, 42, 63
11, 49168, Note_on_c, 9, 42, 0
11, 49348, Note_on_c, 9, 42, 63
11, 49360, Note_on_c, 9, 42, 0
11, 49536, Note_on_c, 9, 35, 118
11, 49536, Note_on_c, 9, 38, 118
11, 49540, Note_on_c, 9, 42, 69
11, 49548, Note_on_c, 9, 38, 0
11, 49548, Note_on_c, 9, 35, 0
11, 49552, Note_on_c, 9, 42, 0
11, 49732, Note_on_c, 9, 42, 73
11, 49744, Note_on_c, 9, 42, 0
11, 49924, Note_on_c, 9, 42, 73
11, 49936, Note_on_c, 9, 42, 0
11, 50112, Note_on_c, 9, 35, 118
11, 50116, Note_on_c, 9, 42, 73
11, 50124, Note_on_c, 9, 35, 0
11, 50128, Note_on_c, 9, 42, 0
11, 50308, Note_on_c, 9, 42, 69
11, 50320, Note_on_c, 9, 42, 0
11, 50500, Note_on_c, 9, 42, 69
11, 50512, Note_on_c, 9, 42, 0
11, 50688, Note_on_c, 9, 38, 106
11, 50688, Note_on_c, 9, 35, 118
11, 50692, Note_on_c, 9, 42, 65
11, 50700, Note_on_c, 9, 35, 0
11, 50700, Note_on_c, 9, 38, 0
11, 50704, Note_on_c, 9, 42, 0
11, 50884, Note_on_c, 9, 42, 65
11, 50896, Note_on_c, 9, 42, 0
11, 51076, Note_on_c, 9, 46, 65
11, 51088, Note_on_c, 9, 46, 0
11, 51264, Note_on_c, 9, 35, 118
11, 51268, Note_on_c, 9, 51, 82
11, 51276, Note_on_c, 9, 35, 0
11, 51280, Note_on_c, 9, 51, 0
11, 51460, Note_on_c, 9, 42, 63
11, 51472, Note_on_c, 9, 42, 0
11, 51652, Note_on_c, 9, 42, 65
11, 51664, Note_on_c, 9, 42, 0
11, 51838, Note_on_c, 9, 38, 106
11, 51840, Note_on_c, 9, 35, 118
11, 51844, Note_on_c, 9, 42, 65
11, 51850, Note_on_c, 9, 38, 0
11, 51852, Note_on_c, 9, 35, 0
11, 51856, Note_on_c, 9, 42, 0
11, 52036, Note_on_c, 9, 42, 59
11, 52048, Note_on_c, 9, 42, 0
11, 52228, Note_on_c, 9, 42, 48
11, 52240, Note_on_c, 9, 42, 0
11, 52416, Note_on_c, 9, 35, 118
11, 52420, Note_on_c, 9, 42, 65
11, 52428, Note_on_c, 9, 35, 0
11, 52432, Note_on_c, 9, 42, 0
11, 52612, Note_on_c, 9, 42, 56
11, 52624, Note_on_c, 9, 42, 0
11, 52804, Note_on_c, 9, 42, 59
11, 52816, Note_on_c, 9, 42, 0
11, 52992, Note_on_c, 9, 35, 118
11, 52994, Note_on_c, 9, 38, 109
11, 52996, Note_on_c, 9, 42, 63
11, 53004, Note_on_c, 9, 35, 0
11, 53006, Note_on_c, 9, 38, 0
11, 53008, Note_on_c, 9, 42, 0
11, 53188, Note_on_c, 9, 42, 65
11, 53200, Note_on_c, 9, 42, 0
11, 53380, Note_on_c, 9, 42, 73
11, 53392, Note_on_c, 9, 42, 0
11, 53568, Note_on_c, 9, 35, 118
11, 53572, Note_on_c, 9, 42, 65
11, 53580, Note_on_c, 9, 35, 0
11, 53584, Note_on_c, 9, 42, 0
11, 53764, Note_on_c, 9, 42, 63
11, 53776, Note_on_c, 9, 42, 0
11, 53956, Note_on_c, 9, 42, 63
11, 53968, Note_on_c, 9, 42, 0
11, 54144, Note_on_c, 9, 38, 118
11, 54144, Note_on_c, 9, 35, 118
11, 54148, Note_on_c, 9, 42, 69
11, 54156, Note_on_c, 9, 35, 0
11, 54156, Note_on_c, 9, 38, 0
11, 54160, Note_on_c, 9, 42, 0
11, 54340, Note_on_c, 9, 42, 73
11, 54352, Note_on_c, 9, 42, 0
11, 54532, Note_on_c, 9, 42, 73
11, 54544, Note_on_c, 9, 42, 0
11, 54720, Note_on_c, 9, 35, 118
11, 54724, Note_on_c, 9, 42, 73
11, 54732, Note_on_c, 9, 35, 0
11, 54736, Note_on_c, 9, 42, 0
11, 54916, Note_on_c, 9, 42, 69
11, 54928, Note_on_c, 9, 42, 0
11, 55108, Note_on_c, 9, 42, 69
11, 55120, Note_on_c, 9, 42, 0
11, 55296, Note_on_c, 9, 38, 118
11, 55296, Note_on_c, 9, 35, 118
11, 55300, Note_on_c, 9, 42, 65
11, 55308, Note_on_c, 9, 35, 0
11, 55308, Note_on_c, 9, 38, 0
11, 55312, Note_on_c, 9, 42, 0
11, 55492, Note_on_c, 9, 42, 65
11, 55504, Note_on_c, 9, 42, 0
11, 55684, Note_on_c, 9, 42, 65
11, 55696, Note_on_c, 9, 42, 0
11, 55872, Note_on_c, 9, 35, 118
11, 55876, Note_on_c, 9, 42, 77
11, 55884, Note_on_c, 9, 35, 0
11, 55888, Note_on_c, 9, 42, 0
11, 56068, Note_on_c, 9, 42, 63
11, 56080, Note_on_c, 9, 42, 0
11, 56260, Note_on_c, 9, 42, 65
11, 56272, Note_on_c, 9, 42, 0
11, 56448, Note_on_c, 9, 38, 115
11, 56448, Note_on_c, 9, 35, 118
11, 56452, Note_on_c, 9, 42, 65
11, 56460, Note_on_c, 9, 35, 0
11, 56460, Note_on_c, 9, 38, 0
11, 56464, Note_on_c, 9, 42, 0
11, 56644, Note_on_c, 9, 42, 59
11, 56656, Note_on_c, 9, 42, 0
11, 56836, Note_on_c, 9, 42, 48
11, 56848, Note_on_c, 9, 42, 0
11, 57024, Note_on_c, 9, 35, 118
11, 57028, Note_on_c, 9, 42, 65
11, 57036, Note_on_c, 9, 35, 0
11, 57040, Note_on_c, 9, 42, 0
11, 57220, Note_on_c, 9, 42, 56
11, 57232, Note_on_c, 9, 42, 0
11, 57412, Note_on_c, 9, 42, 59
11, 57424, Note_on_c, 9, 42, 0
11, 57600, Note_on_c, 9, 35, 118
11, 57602, Note_on_c, 9, 38, 118
11, 57604, Note_on_c, 9, 42, 63
11, 57612, Note_on_c, 9, 35, 0
11, 57614, Note_on_c, 9, 38, 0
11, 57616, Note_on_c, 9, 42, 0
11, 57796, Note_on_c, 9, 42, 65
11, 57808, Note_on_c, 9, 42, 0
11, 57988, Note_on_c, 9, 42, 73
11, 58000, Note_on_c, 9, 42, 0
11, 58176, Note_on_c, 9, 35, 118
11, 58180, Note_on_c, 9, 42, 65
11, 58188, Note_on_c, 9, 35, 0
11, 58192, Note_on_c, 9, 42, 0
11, 58372, Note_on_c, 9, 42, 63
11, 58384, Note_on_c, 9, 42, 0
11, 58564, Note_on_c, 9, 42, 63
11, 58576, Note_on_c, 9, 42, 0
11, 58752, Note_on_c, 9, 38, 118
11, 58752, Note_on_c, 9, 35, 118
11, 58756, Note_on_c, 9, 42, 69
11, 58764, Note_on_c, 9, 35, 0
11, 58764, Note_on_c, 9, 38, 0
11, 58768, Note_on_c, 9, 42, 0
11, 58948, Note_on_c, 9, 42, 73
11, 58960, Note_on_c, 9, 42, 0
11, 59140, Note_on_c, 9, 42, 73
11, 59152, Note_on_c, 9, 42, 0
11, 59328, Note_on_c, 9, 35, 118
11, 59332, Note_on_c, 9, 42, 73
11, 59340, Note_on_c, 9, 35, 0
11, 59344, Note_on_c, 9, 42, 0
11, 59524, Note_on_c, 9, 42, 69
11, 59536, Note_on_c, 9, 42, 0
11, 59716, Note_on_c, 9, 42, 69
11, 59728, Note_on_c, 9, 42, 0
11, 59904, Note_on_c, 9, 38, 106
11, 59904, Note_on_c, 9, 35, 118
11, 59908, Note_on_c, 9, 42, 65
11, 59916, Note_on_c, 9, 35, 0
11, 59916, Note_on_c, 9, 38, 0
11, 59920, Note_on_c, 9, 42, 0
11, 60100, Note_on_c, 9, 42, 65
11, 60112, Note_on_c, 9, 42, 0
11, 60292, Note_on_c, 9, 42, 65
11, 60304, Note_on_c, 9, 42, 0
11, 60480, Note_on_c, 9, 35, 118
11, 60484, Note_on_c, 9, 42, 77
11, 60492, Note_on_c, 9, 35, 0
11, 60496, Note_on_c, 9, 42, 0
11, 60676, Note_on_c, 9, 42, 63
11, 60688, Note_on_c, 9, 42, 0
11, 60868, Note_on_c, 9, 42, 65
11, 60880, Note_on_c, 9, 42, 0
11, 61056, Note_on_c, 9, 35, 118
11, 61056, Note_on_c, 9, 38, 109
11, 61060, Note_on_c, 9, 42, 65
11, 61068, Note_on_c, 9, 38, 0
11, 61068, Note_on_c, 9, 35, 0
11, 61072, Note_on_c, 9, 42, 0
11, 61252, Note_on_c, 9, 42, 59
11, 61264, Note_on_c, 9, 42, 0
11, 61444, Note_on_c, 9, 42, 48
11, 61456, Note_on_c, 9, 42, 0
11, 61632, Note_on_c, 9, 35, 118
11, 61636, Note_on_c, 9, 42, 65
11, 61644, Note_on_c, 9, 35, 0
11, 61648, Note_on_c, 9, 42, 0
11, 61828, Note_on_c, 9, 42, 56
11, 61840, Note_on_c, 9, 42, 0
11, 62020, Note_on_c, 9, 42, 59
11, 62032, Note_on_c, 9, 42, 0
11, 62208, Note_on_c, 9, 38, 106
11, 62208, Note_on_c, 9, 35, 118
11, 62212, Note_on_c, 9, 42, 63
11, 62220, Note_on_c, 9, 35, 0
11, 62220, Note_on_c, 9, 38, 0
11, 62224, Note_on_c, 9, 42, 0
11, 62404, Note_on_c, 9, 42, 65
11, 62416, Note_on_c, 9, 42, 0
11, 62596, Note_on_c, 9, 42, 73
11, 62608, Note_on_c, 9, 42, 0
11, 62784, Note_on_c, 9, 35, 118
11, 62788, Note_on_c, 9, 42, 65
11, 62796, Note_on_c, 9, 35, 0
11, 62800, Note_on_c, 9, 42, 0
11, 62980, Note_on_c, 9, 42, 63
11, 62992, Note_on_c, 9, 42, 0
11, 63172, Note_on_c, 9, 42, 63
11, 63184, Note_on_c, 9, 42, 0
11, 63360, Note_on_c, 9, 38, 109
11, 63360, Note_on_c, 9, 35, 118
11, 63364, Note_on_c, 9, 42, 69
11, 63372, Note_on_c, 9, 35, 0
11, 63372, Note_on_c, 9, 38, 0
11, 63376, Note_on_c, 9, 42, 0
11, 63556, Note_on_c, 9, 42, 73
11, 63568, Note_on_c, 9, 42, 0
11, 63748, Note_on_c, 9, 42, 73
11, 63760, Note_on_c, 9, 42, 0
11, 63940, Note_on_c, 9, 42, 77
11, 63940, Note_on_c, 9, 35, 118
11, 63952, Note_on_c, 9, 35, 0
11, 63952, Note_on_c, 9, 42, 0
11, 64132, Note_on_c, 9, 42, 63
11, 64144, Note_on_c, 9, 42, 0
11, 64324, Note_on_c, 9, 42, 65
11, 64336, Note_on_c, 9, 42, 0
11, 64512, Note_on_c, 9, 38, 106
11, 64512, Note_on_c, 9, 35, 118
11, 64516, Note_on_c, 9, 42, 65
11, 64524, Note_on_c, 9, 35, 0
11, 64524, Note_on_c, 9, 38, 0
11, 64528, Note_on_c, 9, 42, 0
11, 64708, Note_on_c, 9, 42, 59
11, 64720, Note_on_c, 9, 42, 0
11, 64900, Note_on_c, 9, 42, 48
11, 64912, Note_on_c, 9, 42, 0
11, 65092, Note_on_c, 9, 42, 65
11, 65092, Note_on_c, 9, 35, 118
11, 65104, Note_on_c, 9, 35, 0
11, 65104, Note_on_c, 9, 42, 0
11, 65284, Note_on_c, 9, 42, 56
11, 65296, Note_on_c, 9, 42, 0
11, 65476, Note_on_c, 9, 42, 59
11, 65488, Note_on_c, 9, 42, 0
11, 65664, Note_on_c, 9, 35, 118
11, 65664, Note_on_c, 9, 38, 115
11, 65668, Note_on_c, 9, 42, 63
11, 65676, Note_on_c, 9, 38, 0
11, 65676, Note_on_c, 9, 35, 0
11, 65680, Note_on_c, 9, 42, 0
11, 65860, Note_on_c, 9, 42, 65
11, 65872, Note_on_c, 9, 42, 0
11, 66052, Note_on_c, 9, 42, 73
11, 66064, Note_on_c, 9, 42, 0
11, 66244, Note_on_c, 9, 42, 65
11, 66244, Note_on_c, 9, 35, 118
11, 66256, Note_on_c, 9, 35, 0
11, 66256, Note_on_c, 9, 42, 0
11, 66436, Note_on_c, 9, 42, 63
11, 66448, Note_on_c, 9, 42, 0
11, 66628, Note_on_c, 9, 42, 63
11, 66640, Note_on_c, 9, 42, 0
11, 66820, Note_on_c, 9, 35, 118
11, 66820, Note_on_c, 9, 38, 106
11, 66820, Note_on_c, 9, 42, 69
11, 66832, Note_on_c, 9, 42, 0
11, 66832, Note_on_c, 9, 38, 0
11, 66832, Note_on_c, 9, 35, 0
11, 67012, Note_on_c, 9, 42, 73
11, 67024, Note_on_c, 9, 42, 0
11, 67204, Note_on_c, 9, 42, 73
11, 67216, Note_on_c, 9, 42, 0
11, 67396, Note_on_c, 9, 35, 118
11, 67396, Note_on_c, 9, 42, 73
11, 67408, Note_on_c, 9, 42, 0
11, 67408, Note_on_c, 9, 35, 0
11, 67588, Note_on_c, 9, 42, 69
11, 67600, Note_on_c, 9, 42, 0
11, 67780, Note_on_c, 9, 42, 69
11, 67792, Note_on_c, 9, 42, 0
11, 67968, Note_on_c, 9, 35, 118
11, 67968, Note_on_c, 9, 38, 118
11, 67972, Note_on_c, 9, 42, 65
11, 67980, Note_on_c, 9, 38, 0
11, 67980, Note_on_c, 9, 35, 0
11, 67984, Note_on_c, 9, 42, 0
11, 68164, Note_on_c, 9, 42, 65
11, 68176, Note_on_c, 9, 42, 0
11, 68356, Note_on_c, 9, 42, 65
11, 68368, Note_on_c, 9, 42, 0
11, 68544, Note_on_c, 9, 35, 118
11, 68548, Note_on_c, 9, 42, 77
11, 68556, Note_on_c, 9, 35, 0
11, 68560, Note_on_c, 9, 42, 0
11, 68740, Note_on_c, 9, 42, 63
11, 68752, Note_on_c, 9, 42, 0
11, 68932, Note_on_c, 9, 42, 65
11, 68944, Note_on_c, 9, 42, 0
11, 69120, Note_on_c, 9, 51, 81
11, 69120, Note_on_c, 9, 35, 118
11, 69132, Note_on_c, 9, 35, 0
11, 69132, Note_on_c, 9, 51, 0
11, 70144, Note_on_c, 9, 51, 64
11, 70168, Note_on_c, 9, 51, 0
11, 70202, Note_on_c, 9, 51, 70
11, 70226, Note_on_c, 9, 51, 0
11, 70250, Note_on_c, 9, 51, 81
11, 70266, Note_on_c, 9, 51, 0
11, 70272, Note_on_c, 9, 51, 118
11, 70284, Note_on_c, 9, 51, 0
11, 70284, End_track
0, 0, End_of_file
