0, 0, Header, 1, 5, 960
1, 0, Start_track
1, 0, Control_c, 0, 101, 0
1, 0, Control_c, 0, 100, 0
1, 0, Control_c, 0, 6, 12
1, 0, Control_c, 0, 38, 0
1, 0, Control_c, 1, 101, 0
1, 0, Control_c, 1, 100, 0
1, 0, Control_c, 1, 6, 12
1, 0, Control_c, 1, 38, 0
1, 0, Control_c, 2, 101, 0
1, 0, Control_c, 2, 100, 0
1, 0, Control_c, 2, 6, 12
1, 0, Control_c, 2, 38, 0
1, 0, Control_c, 3, 101, 0
1, 0, Control_c, 3, 100, 0
1, 0, Control_c, 3, 6, 12
1, 0, Control_c, 3, 38, 0
1, 0, Control_c, 4, 101, 0
1, 0, Control_c, 4, 100, 0
1, 0, Control_c, 4, 6, 12
1, 0, Control_c, 4, 38, 0
1, 0, Control_c, 5, 101, 0
1, 0, Control_c, 5, 100, 0
1, 0, Control_c, 5, 6, 12
1, 0, Control_c, 5, 38, 0
1, 0, Control_c, 6, 101, 0
1, 0, Control_c, 6, 100, 0
1, 0, Control_c, 6, 6, 12
1, 0, Control_c, 6, 38, 0
1, 0, Control_c, 7, 101, 0
1, 0, Control_c, 7, 100, 0
1, 0, Control_c, 7, 6, 12
1, 0, Control_c, 7, 38, 0
1, 0, Control_c, 8, 101, 0
1, 0, Control_c, 8, 100, 0
1, 0, Control_c, 8, 6, 12
1, 0, Control_c, 8, 38, 0
1, 0, Control_c, 9, 101, 0
1, 0, Control_c, 9, 100, 0
1, 0, Control_c, 9, 6, 12
1, 0, Control_c, 9, 38, 0
1, 0, Control_c, 10, 101, 0
1, 0, Control_c, 10, 100, 0
1, 0, Control_c, 10, 6, 12
1, 0, Control_c, 10, 38, 0
1, 0, Control_c, 11, 101, 0
1, 0, Control_c, 11, 100, 0
1, 0, Control_c, 11, 6, 12
1, 0, Control_c, 11, 38, 0
1, 0, Control_c, 12, 101, 0
1, 0, Control_c, 12, 100, 0
1, 0, Control_c, 12, 6, 12
1, 0, Control_c, 12, 38, 0
1, 0, Control_c, 13, 101, 0
1, 0, Control_c, 13, 100, 0
1, 0, Control_c, 13, 6, 12
1, 0, Control_c, 13, 38, 0
1, 0, Control_c, 14, 101, 0
1, 0, Control_c, 14, 100, 0
1, 0, Control_c, 14, 6, 12
1, 0, Control_c, 14, 38, 0
1, 0, Control_c, 15, 101, 0
1, 0, Control_c, 15, 100, 0
1, 0, Control_c, 15, 6, 12
1, 0, Control_c, 15, 38, 0
1, 0, Time_signature, 4, 2, 24, 8
1, 0, Tempo, 352941
1, 0, End_track
2, 0, Start_track
2, 0, Pitch_bend_c, 0, 8192
2, 0, Control_c, 0, 7, 111
2, 0, Control_c, 0, 10, 95
2, 0, Control_c, 0, 93, 0
2, 0, Control_c, 0, 91, 0
2, 0, Control_c, 0, 95, 0
2, 0, Control_c, 0, 92, 0
2, 0, Control_c, 0, 11, 127
2, 0, Program_c, 0, 26
2, 0, Control_c, 1, 7, 111
2, 0, Control_c, 1, 10, 95
2, 0, Control_c, 1, 93, 0
2, 0, Control_c, 1, 91, 0
2, 0, Control_c, 1, 95, 0
2, 0, Control_c, 1, 92, 0
2, 0, Control_c, 1, 11, 127
2, 0, Program_c, 1, 26
2, 0, Note_on_c, 0, 54, 95
2, 0, Note_on_c, 0, 49, 95
2, 0, Note_on_c, 0, 42, 95
2, 960, Note_off_c, 0, 54, 95
2, 960, Note_off_c, 0, 49, 95
2, 960, Note_off_c, 0, 42, 95
2, 960, Note_on_c, 0, 64, 95
2, 960, Note_on_c, 0, 59, 95
2, 960, Note_on_c, 0, 55, 95
2, 1045, Note_off_c, 0, 64, 95
2, 1045, Note_off_c, 0, 59, 95
2, 1045, Note_off_c, 0, 55, 95
2, 1440, Note_on_c, 0, 66, 111
2, 1440, Note_on_c, 0, 61, 111
2, 1920, Note_off_c, 0, 66, 111
2, 1920, Note_off_c, 0, 61, 111
2, 1920, Note_on_c, 0, 68, 86
2, 1920, Note_on_c, 0, 63, 70
2, 2400, Note_off_c, 0, 68, 86
2, 2400, Note_off_c, 0, 63, 70
2, 2400, Note_on_c, 0, 66, 86
2, 2400, Note_on_c, 0, 61, 111
2, 2880, Note_off_c, 0, 66, 86
2, 2880, Note_off_c, 0, 61, 111
2, 2880, Note_on_c, 0, 54, 95
2, 2880, Note_on_c, 0, 49, 95
2, 3840, Note_off_c, 0, 54, 95
2, 3840, Note_off_c, 0, 49, 95
2, 4320, Note_on_c, 0, 61, 95
2, 4320, Note_on_c, 0, 56, 95
2, 4800, Note_off_c, 0, 61, 95
2, 4800, Note_off_c, 0, 56, 95
2, 4800, Note_on_c, 0, 58, 70
2, 5280, Note_off_c, 0, 58, 70
2, 5280, Note_on_c, 0, 61, 95
2, 5280, Note_on_c, 0, 56, 70
2, 5760, Note_off_c, 0, 61, 95
2, 5760, Note_off_c, 0, 56, 70
2, 5760, Note_on_c, 0, 58, 70
2, 6240, Note_off_c, 0, 58, 70
2, 6240, Note_on_c, 0, 61, 95
2, 6240, Note_on_c, 0, 56, 70
2, 6720, Note_off_c, 0, 61, 95
2, 6720, Note_off_c, 0, 56, 70
2, 6720, Note_on_c, 0, 59, 70
2, 6720, Note_on_c, 0, 54, 70
2, 7680, Note_on_c, 0, 49, 95
2, 8640, Note_off_c, 0, 59, 70
2, 8640, Note_off_c, 0, 54, 70
2, 8640, Note_off_c, 0, 49, 95
2, 8640, Note_on_c, 0, 54, 95
2, 8640, Note_on_c, 0, 49, 95
2, 9120, Note_off_c, 0, 54, 95
2, 9120, Note_off_c, 0, 49, 95
2, 9120, Note_on_c, 0, 54, 95
2, 9120, Note_on_c, 0, 51, 70
2, 9600, Note_off_c, 0, 54, 95
2, 9600, Note_off_c, 0, 51, 70
2, 9600, Note_on_c, 0, 59, 95
2, 9600, Note_on_c, 0, 54, 95
2, 10080, Note_off_c, 0, 59, 95
2, 10080, Note_off_c, 0, 54, 95
2, 10080, Note_on_c, 0, 54, 95
2, 10080, Note_on_c, 0, 51, 95
2, 10560, Note_off_c, 0, 54, 95
2, 10560, Note_off_c, 0, 51, 95
2, 10560, Note_on_c, 0, 59, 95
2, 10560, Note_on_c, 0, 54, 70
2, 11040, Note_off_c, 0, 59, 95
2, 11040, Note_off_c, 0, 54, 70
2, 11040, Note_on_c, 0, 56, 70
2, 11520, Note_off_c, 0, 56, 70
2, 11520, Note_on_c, 0, 59, 95
2, 11520, Note_on_c, 0, 54, 95
2, 12480, Note_on_c, 0, 51, 95
2, 12960, Note_off_c, 0, 51, 95
2, 12960, Note_on_c, 0, 51, 95
2, 13440, Note_off_c, 0, 51, 95
2, 13440, Note_on_c, 0, 49, 95
2, 13920, Note_off_c, 0, 49, 95
2, 13920, Note_on_c, 0, 51, 95
2, 14400, Note_off_c, 0, 59, 95
2, 14400, Note_off_c, 0, 54, 95
2, 14400, Note_off_c, 0, 51, 95
2, 14400, Note_on_c, 0, 46, 95
2, 14880, Note_off_c, 0, 46, 95
2, 14880, Note_on_c, 0, 44, 95
2, 15360, Note_off_c, 0, 44, 95
2, 15360, Note_on_c, 0, 54, 95
2, 15360, Note_on_c, 0, 49, 95
2, 15360, Note_on_c, 0, 42, 95
2, 16320, Note_off_c, 0, 54, 95
2, 16320, Note_off_c, 0, 49, 95
2, 16320, Note_off_c, 0, 42, 95
2, 16320, Note_on_c, 0, 64, 95
2, 16320, Note_on_c, 0, 59, 95
2, 16320, Note_on_c, 0, 55, 95
2, 16405, Note_off_c, 0, 64, 95
2, 16405, Note_off_c, 0, 59, 95
2, 16405, Note_off_c, 0, 55, 95
2, 16800, Note_on_c, 0, 66, 111
2, 16800, Note_on_c, 0, 61, 111
2, 17280, Note_off_c, 0, 66, 111
2, 17280, Note_off_c, 0, 61, 111
2, 17280, Note_on_c, 0, 68, 86
2, 17280, Note_on_c, 0, 63, 70
2, 17760, Note_off_c, 0, 68, 86
2, 17760, Note_off_c, 0, 63, 70
2, 17760, Note_on_c, 0, 66, 86
2, 17760, Note_on_c, 0, 61, 111
2, 18240, Note_off_c, 0, 66, 86
2, 18240, Note_off_c, 0, 61, 111
2, 18240, Note_on_c, 0, 54, 95
2, 18240, Note_on_c, 0, 49, 95
2, 19200, Note_off_c, 0, 54, 95
2, 19200, Note_off_c, 0, 49, 95
2, 19680, Note_on_c, 0, 61, 95
2, 19680, Note_on_c, 0, 56, 95
2, 20160, Note_off_c, 0, 61, 95
2, 20160, Note_off_c, 0, 56, 95
2, 20160, Note_on_c, 0, 58, 70
2, 20640, Note_off_c, 0, 58, 70
2, 20640, Note_on_c, 0, 61, 95
2, 20640, Note_on_c, 0, 56, 70
2, 21120, Note_off_c, 0, 61, 95
2, 21120, Note_off_c, 0, 56, 70
2, 21120, Note_on_c, 0, 58, 70
2, 21600, Note_off_c, 0, 58, 70
2, 21600, Note_on_c, 0, 61, 95
2, 21600, Note_on_c, 0, 56, 70
2, 22080, Note_off_c, 0, 61, 95
2, 22080, Note_off_c, 0, 56, 70
2, 22080, Note_on_c, 0, 59, 70
2, 22080, Note_on_c, 0, 54, 70
2, 23040, Note_on_c, 0, 49, 95
2, 24000, Note_off_c, 0, 59, 70
2, 24000, Note_off_c, 0, 54, 70
2, 24000, Note_off_c, 0, 49, 95
2, 24000, Note_on_c, 0, 54, 95
2, 24000, Note_on_c, 0, 49, 95
2, 24480, Note_off_c, 0, 54, 95
2, 24480, Note_off_c, 0, 49, 95
2, 24480, Note_on_c, 0, 54, 95
2, 24480, Note_on_c, 0, 51, 70
2, 24960, Note_off_c, 0, 54, 95
2, 24960, Note_off_c, 0, 51, 70
2, 24960, Note_on_c, 0, 59, 95
2, 24960, Note_on_c, 0, 54, 95
2, 25440, Note_off_c, 0, 59, 95
2, 25440, Note_off_c, 0, 54, 95
2, 25440, Note_on_c, 0, 54, 95
2, 25440, Note_on_c, 0, 51, 95
2, 25920, Note_off_c, 0, 54, 95
2, 25920, Note_off_c, 0, 51, 95
2, 25920, Note_on_c, 0, 59, 95
2, 25920, Note_on_c, 0, 54, 70
2, 26400, Note_off_c, 0, 59, 95
2, 26400, Note_off_c, 0, 54, 70
2, 26400, Note_on_c, 0, 56, 70
2, 26880, Note_off_c, 0, 56, 70
2, 26880, Note_on_c, 0, 59, 95
2, 26880, Note_on_c, 0, 54, 95
2, 26880, Note_on_c, 0, 47, 95
2, 28320, Note_off_c, 0, 59, 95
2, 28320, Note_off_c, 0, 54, 95
2, 28320, Note_off_c, 0, 47, 95
2, 28320, Note_on_c, 0, 60, 95
2, 28320, Note_on_c, 0, 55, 95
2, 28320, Note_on_c, 0, 48, 95
2, 29760, Note_off_c, 0, 60, 95
2, 29760, Note_off_c, 0, 55, 95
2, 29760, Note_off_c, 0, 48, 95
2, 29760, Note_on_c, 0, 61, 95
2, 29760, Note_on_c, 0, 56, 95
2, 29760, Note_on_c, 0, 49, 95
2, 30720, Note_off_c, 0, 61, 95
2, 30720, Note_off_c, 0, 56, 95
2, 30720, Note_off_c, 0, 49, 95
2, 30720, Note_on_c, 0, 55, 127
2, 30720, Note_on_c, 0, 50, 127
2, 30720, Note_on_c, 0, 45, 127
2, 30805, Note_off_c, 0, 55, 127
2, 30805, Note_off_c, 0, 50, 127
2, 30805, Note_off_c, 0, 45, 127
2, 31680, Note_on_c, 0, 55, 95
2, 31680, Note_on_c, 0, 50, 95
2, 31765, Note_off_c, 0, 55, 95
2, 31765, Note_off_c, 0, 50, 95
2, 32640, Note_on_c, 0, 55, 95
2, 32640, Note_on_c, 0, 50, 95
2, 32640, Note_on_c, 0, 45, 95
2, 32725, Note_off_c, 0, 55, 95
2, 32725, Note_off_c, 0, 50, 95
2, 32725, Note_off_c, 0, 45, 95
2, 33120, Note_on_c, 0, 61, 95
2, 33120, Note_on_c, 0, 56, 95
2, 33120, Note_on_c, 0, 49, 95
2, 33600, Note_off_c, 0, 61, 95
2, 33600, Note_off_c, 0, 56, 95
2, 33600, Note_off_c, 0, 49, 95
2, 34080, Note_on_c, 0, 61, 95
2, 34080, Note_on_c, 0, 56, 95
2, 34080, Note_on_c, 0, 49, 95
2, 34560, Note_off_c, 0, 61, 95
2, 34560, Note_off_c, 0, 56, 95
2, 34560, Note_off_c, 0, 49, 95
2, 34560, Note_on_c, 0, 55, 95
2, 34560, Note_on_c, 0, 54, 95
2, 34560, Note_on_c, 0, 49, 95
2, 34645, Note_off_c, 0, 55, 95
2, 34645, Note_off_c, 0, 54, 95
2, 34645, Note_off_c, 0, 49, 95
2, 35520, Note_on_c, 0, 64, 95
2, 35520, Note_on_c, 0, 59, 95
2, 35520, Note_on_c, 0, 55, 95
2, 35605, Note_off_c, 0, 64, 95
2, 35605, Note_off_c, 0, 59, 95
2, 35605, Note_off_c, 0, 55, 95
2, 36000, Note_on_c, 0, 66, 111
2, 36000, Note_on_c, 0, 61, 111
2, 36480, Note_off_c, 0, 66, 111
2, 36480, Note_off_c, 0, 61, 111
2, 36480, Note_on_c, 0, 68, 86
2, 36960, Note_off_c, 0, 68, 86
2, 36960, Note_on_c, 0, 66, 86
2, 36960, Note_on_c, 0, 61, 86
2, 37440, Note_off_c, 0, 66, 86
2, 37440, Note_off_c, 0, 61, 86
2, 37440, Note_on_c, 0, 54, 95
2, 37440, Note_on_c, 0, 49, 95
2, 39360, Note_off_c, 0, 54, 95
2, 39360, Note_off_c, 0, 49, 95
2, 39360, Note_on_c, 0, 55, 95
2, 39360, Note_on_c, 0, 50, 95
2, 39445, Note_off_c, 0, 55, 95
2, 39445, Note_off_c, 0, 50, 95
2, 40320, Note_on_c, 0, 55, 95
2, 40320, Note_on_c, 0, 50, 95
2, 40320, Note_on_c, 0, 45, 95
2, 40405, Note_off_c, 0, 55, 95
2, 40405, Note_off_c, 0, 50, 95
2, 40405, Note_off_c, 0, 45, 95
2, 40800, Note_on_c, 0, 61, 95
2, 40800, Note_on_c, 0, 56, 95
2, 40800, Note_on_c, 0, 49, 95
2, 41280, Note_off_c, 0, 61, 95
2, 41280, Note_off_c, 0, 56, 95
2, 41280, Note_off_c, 0, 49, 95
2, 41760, Note_on_c, 0, 61, 95
2, 41760, Note_on_c, 0, 56, 95
2, 41760, Note_on_c, 0, 49, 95
2, 42240, Note_off_c, 0, 61, 95
2, 42240, Note_off_c, 0, 56, 95
2, 42240, Note_off_c, 0, 49, 95
2, 42240, Note_on_c, 0, 55, 127
2, 42240, Note_on_c, 0, 50, 127
2, 42240, Note_on_c, 0, 45, 127
2, 42325, Note_off_c, 0, 55, 127
2, 42325, Note_off_c, 0, 50, 127
2, 42325, Note_off_c, 0, 45, 127
2, 43200, Note_on_c, 0, 56, 95
2, 43200, Note_on_c, 0, 49, 95
2, 44160, Note_off_c, 0, 56, 95
2, 44160, Note_off_c, 0, 49, 95
2, 44160, Note_on_c, 0, 61, 95
2, 44160, Note_on_c, 0, 56, 95
2, 45120, Note_off_c, 0, 61, 95
2, 45120, Note_off_c, 0, 56, 95
2, 45120, Note_on_c, 0, 54, 95
2, 45120, Note_on_c, 0, 49, 95
2, 45120, Note_on_c, 0, 42, 95
2, 46080, Note_off_c, 0, 54, 95
2, 46080, Note_off_c, 0, 49, 95
2, 46080, Note_off_c, 0, 42, 95
2, 46080, Note_on_c, 0, 54, 95
2, 46080, Note_on_c, 0, 49, 95
2, 46080, Note_on_c, 0, 42, 95
2, 47040, Note_off_c, 0, 54, 95
2, 47040, Note_off_c, 0, 49, 95
2, 47040, Note_off_c, 0, 42, 95
2, 47040, Note_on_c, 0, 64, 95
2, 47040, Note_on_c, 0, 59, 95
2, 47040, Note_on_c, 0, 55, 95
2, 47125, Note_off_c, 0, 64, 95
2, 47125, Note_off_c, 0, 59, 95
2, 47125, Note_off_c, 0, 55, 95
2, 47520, Note_on_c, 0, 66, 111
2, 47520, Note_on_c, 0, 61, 111
2, 48000, Note_off_c, 0, 66, 111
2, 48000, Note_off_c, 0, 61, 111
2, 48000, Note_on_c, 0, 68, 86
2, 48480, Note_off_c, 0, 68, 86
2, 48480, Note_on_c, 0, 66, 86
2, 48480, Note_on_c, 0, 61, 86
2, 48960, Note_off_c, 0, 66, 86
2, 48960, Note_off_c, 0, 61, 86
2, 48960, Note_on_c, 0, 54, 95
2, 48960, Note_on_c, 0, 49, 95
2, 49920, Note_off_c, 0, 54, 95
2, 49920, Note_off_c, 0, 49, 95
2, 50400, Note_on_c, 0, 61, 95
2, 50400, Note_on_c, 0, 56, 95
2, 50880, Note_off_c, 0, 61, 95
2, 50880, Note_off_c, 0, 56, 95
2, 50880, Note_on_c, 0, 58, 70
2, 51360, Note_off_c, 0, 58, 70
2, 51360, Note_on_c, 0, 61, 95
2, 51360, Note_on_c, 0, 56, 70
2, 51840, Note_off_c, 0, 61, 95
2, 51840, Note_off_c, 0, 56, 70
2, 51840, Note_on_c, 0, 58, 70
2, 52320, Note_off_c, 0, 58, 70
2, 52320, Note_on_c, 0, 61, 95
2, 52320, Note_on_c, 0, 56, 70
2, 52800, Note_off_c, 0, 61, 95
2, 52800, Note_off_c, 0, 56, 70
2, 52800, Note_on_c, 0, 59, 70
2, 52800, Note_on_c, 0, 54, 70
2, 53760, Note_off_c, 0, 54, 70
2, 53760, Note_on_c, 0, 54, 95
2, 53760, Note_on_c, 0, 49, 95
2, 54720, Note_off_c, 0, 59, 70
2, 54720, Note_off_c, 0, 54, 95
2, 54720, Note_off_c, 0, 49, 95
2, 54720, Note_on_c, 0, 54, 95
2, 54720, Note_on_c, 0, 49, 95
2, 55200, Note_off_c, 0, 54, 95
2, 55200, Note_off_c, 0, 49, 95
2, 55200, Note_on_c, 0, 54, 95
2, 55200, Note_on_c, 0, 51, 70
2, 55680, Note_off_c, 0, 54, 95
2, 55680, Note_off_c, 0, 51, 70
2, 55680, Note_on_c, 0, 59, 95
2, 55680, Note_on_c, 0, 54, 95
2, 56160, Note_off_c, 0, 59, 95
2, 56160, Note_off_c, 0, 54, 95
2, 56160, Note_on_c, 0, 54, 95
2, 56160, Note_on_c, 0, 51, 95
2, 56640, Note_off_c, 0, 54, 95
2, 56640, Note_off_c, 0, 51, 95
2, 56640, Note_on_c, 0, 59, 95
2, 56640, Note_on_c, 0, 54, 70
2, 57600, Note_off_c, 0, 59, 95
2, 57600, Note_off_c, 0, 54, 70
2, 57600, Note_on_c, 0, 59, 95
2, 57600, Note_on_c, 0, 54, 95
2, 57600, Note_on_c, 0, 47, 95
2, 59040, Note_off_c, 0, 59, 95
2, 59040, Note_off_c, 0, 54, 95
2, 59040, Note_off_c, 0, 47, 95
2, 59040, Note_on_c, 0, 60, 95
2, 59040, Note_on_c, 0, 55, 95
2, 59040, Note_on_c, 0, 48, 95
2, 60480, Note_off_c, 0, 60, 95
2, 60480, Note_off_c, 0, 55, 95
2, 60480, Note_off_c, 0, 48, 95
2, 60480, Note_on_c, 0, 61, 95
2, 60480, Note_on_c, 0, 56, 95
2, 60480, Note_on_c, 0, 49, 95
2, 61440, Note_off_c, 0, 61, 95
2, 61440, Note_off_c, 0, 56, 95
2, 61440, Note_off_c, 0, 49, 95
2, 61440, Note_on_c, 0, 55, 127
2, 61440, Note_on_c, 0, 50, 127
2, 61440, Note_on_c, 0, 45, 127
2, 61525, Note_off_c, 0, 55, 127
2, 61525, Note_off_c, 0, 50, 127
2, 61525, Note_off_c, 0, 45, 127
2, 62400, Note_on_c, 0, 55, 95
2, 62400, Note_on_c, 0, 50, 95
2, 62485, Note_off_c, 0, 55, 95
2, 62485, Note_off_c, 0, 50, 95
2, 63360, Note_on_c, 0, 55, 95
2, 63360, Note_on_c, 0, 50, 95
2, 63360, Note_on_c, 0, 45, 95
2, 63445, Note_off_c, 0, 55, 95
2, 63445, Note_off_c, 0, 50, 95
2, 63445, Note_off_c, 0, 45, 95
2, 63840, Note_on_c, 0, 61, 95
2, 63840, Note_on_c, 0, 56, 95
2, 63840, Note_on_c, 0, 49, 95
2, 64320, Note_off_c, 0, 61, 95
2, 64320, Note_off_c, 0, 56, 95
2, 64320, Note_off_c, 0, 49, 95
2, 64800, Note_on_c, 0, 61, 95
2, 64800, Note_on_c, 0, 56, 95
2, 64800, Note_on_c, 0, 49, 95
2, 65280, Note_off_c, 0, 61, 95
2, 65280, Note_off_c, 0, 56, 95
2, 65280, Note_off_c, 0, 49, 95
2, 65280, Note_on_c, 0, 55, 95
2, 65280, Note_on_c, 0, 54, 95
2, 65280, Note_on_c, 0, 49, 95
2, 65365, Note_off_c, 0, 55, 95
2, 65365, Note_off_c, 0, 54, 95
2, 65365, Note_off_c, 0, 49, 95
2, 66240, Note_on_c, 0, 64, 95
2, 66240, Note_on_c, 0, 59, 95
2, 66240, Note_on_c, 0, 55, 95
2, 66325, Note_off_c, 0, 64, 95
2, 66325, Note_off_c, 0, 59, 95
2, 66325, Note_off_c, 0, 55, 95
2, 66720, Note_on_c, 0, 66, 111
2, 66720, Note_on_c, 0, 61, 111
2, 67200, Note_off_c, 0, 66, 111
2, 67200, Note_off_c, 0, 61, 111
2, 67200, Note_on_c, 0, 68, 86
2, 67680, Note_off_c, 0, 68, 86
2, 67680, Note_on_c, 0, 66, 86
2, 67680, Note_on_c, 0, 61, 86
2, 68160, Note_off_c, 0, 66, 86
2, 68160, Note_off_c, 0, 61, 86
2, 68160, Note_on_c, 0, 54, 95
2, 68160, Note_on_c, 0, 49, 95
2, 69120, Note_off_c, 0, 54, 95
2, 69120, Note_off_c, 0, 49, 95
2, 69120, Note_on_c, 0, 55, 127
2, 69120, Note_on_c, 0, 50, 127
2, 69120, Note_on_c, 0, 45, 127
2, 69205, Note_off_c, 0, 55, 127
2, 69205, Note_off_c, 0, 50, 127
2, 69205, Note_off_c, 0, 45, 127
2, 70080, Note_on_c, 0, 55, 95
2, 70080, Note_on_c, 0, 50, 95
2, 70165, Note_off_c, 0, 55, 95
2, 70165, Note_off_c, 0, 50, 95
2, 71040, Note_on_c, 0, 55, 95
2, 71040, Note_on_c, 0, 50, 95
2, 71040, Note_on_c, 0, 45, 95
2, 71125, Note_off_c, 0, 55, 95
2, 71125, Note_off_c, 0, 50, 95
2, 71125, Note_off_c, 0, 45, 95
2, 71520, Note_on_c, 0, 61, 95
2, 71520, Note_on_c, 0, 56, 95
2, 71520, Note_on_c, 0, 49, 95
2, 72000, Note_off_c, 0, 61, 95
2, 72000, Note_off_c, 0, 56, 95
2, 72000, Note_off_c, 0, 49, 95
2, 72480, Note_on_c, 0, 61, 95
2, 72480, Note_on_c, 0, 56, 95
2, 72480, Note_on_c, 0, 49, 95
2, 72960, Note_off_c, 0, 61, 95
2, 72960, Note_off_c, 0, 56, 95
2, 72960, Note_off_c, 0, 49, 95
2, 72960, Note_on_c, 0, 55, 127
2, 72960, Note_on_c, 0, 50, 127
2, 72960, Note_on_c, 0, 45, 127
2, 73045, Note_off_c, 0, 55, 127
2, 73045, Note_off_c, 0, 50, 127
2, 73045, Note_off_c, 0, 45, 127
2, 73920, Note_on_c, 0, 56, 95
2, 73920, Note_on_c, 0, 49, 95
2, 74880, Note_off_c, 0, 56, 95
2, 74880, Note_off_c, 0, 49, 95
2, 74880, Note_on_c, 0, 61, 95
2, 74880, Note_on_c, 0, 56, 95
2, 75840, Note_off_c, 0, 61, 95
2, 75840, Note_off_c, 0, 56, 95
2, 75840, Note_on_c, 0, 55, 95
2, 75840, Note_on_c, 0, 50, 95
2, 75840, Note_on_c, 0, 45, 95
2, 75925, Note_off_c, 0, 55, 95
2, 75925, Note_off_c, 0, 50, 95
2, 75925, Note_off_c, 0, 45, 95
2, 76800, Note_on_c, 0, 54, 95
2, 76800, Note_on_c, 0, 49, 95
2, 76800, Note_on_c, 0, 42, 95
2, 77760, Note_off_c, 0, 54, 95
2, 77760, Note_off_c, 0, 49, 95
2, 77760, Note_off_c, 0, 42, 95
2, 77760, Note_on_c, 0, 64, 95
2, 77760, Note_on_c, 0, 59, 95
2, 77760, Note_on_c, 0, 55, 95
2, 77845, Note_off_c, 0, 64, 95
2, 77845, Note_off_c, 0, 59, 95
2, 77845, Note_off_c, 0, 55, 95
2, 78240, Note_on_c, 0, 66, 111
2, 78240, Note_on_c, 0, 61, 111
2, 78720, Note_off_c, 0, 66, 111
2, 78720, Note_off_c, 0, 61, 111
2, 78720, Note_on_c, 0, 68, 86
2, 78720, Note_on_c, 0, 63, 70
2, 79200, Note_off_c, 0, 68, 86
2, 79200, Note_off_c, 0, 63, 70
2, 79200, Note_on_c, 0, 66, 86
2, 79200, Note_on_c, 0, 61, 111
2, 79680, Note_off_c, 0, 66, 86
2, 79680, Note_off_c, 0, 61, 111
2, 79680, Note_on_c, 0, 54, 95
2, 79680, Note_on_c, 0, 49, 95
2, 80640, Note_off_c, 0, 54, 95
2, 80640, Note_off_c, 0, 49, 95
2, 81120, Note_on_c, 0, 61, 95
2, 81120, Note_on_c, 0, 56, 95
2, 81600, Note_off_c, 0, 61, 95
2, 81600, Note_off_c, 0, 56, 95
2, 81600, Note_on_c, 0, 58, 70
2, 82080, Note_off_c, 0, 58, 70
2, 82080, Note_on_c, 0, 61, 95
2, 82080, Note_on_c, 0, 56, 70
2, 82560, Note_off_c, 0, 61, 95
2, 82560, Note_off_c, 0, 56, 70
2, 82560, Note_on_c, 0, 58, 70
2, 83040, Note_off_c, 0, 58, 70
2, 83040, Note_on_c, 0, 61, 95
2, 83040, Note_on_c, 0, 56, 70
2, 83520, Note_off_c, 0, 61, 95
2, 83520, Note_off_c, 0, 56, 70
2, 83520, Note_on_c, 0, 59, 70
2, 83520, Note_on_c, 0, 54, 70
2, 84480, Note_on_c, 0, 49, 95
2, 85440, Note_off_c, 0, 59, 70
2, 85440, Note_off_c, 0, 54, 70
2, 85440, Note_off_c, 0, 49, 95
2, 85440, Note_on_c, 0, 54, 95
2, 85440, Note_on_c, 0, 49, 95
2, 85920, Note_off_c, 0, 54, 95
2, 85920, Note_off_c, 0, 49, 95
2, 85920, Note_on_c, 0, 54, 95
2, 85920, Note_on_c, 0, 51, 70
2, 86400, Note_off_c, 0, 54, 95
2, 86400, Note_off_c, 0, 51, 70
2, 86400, Note_on_c, 0, 59, 95
2, 86400, Note_on_c, 0, 54, 95
2, 86880, Note_off_c, 0, 59, 95
2, 86880, Note_off_c, 0, 54, 95
2, 86880, Note_on_c, 0, 54, 95
2, 86880, Note_on_c, 0, 51, 95
2, 87360, Note_off_c, 0, 54, 95
2, 87360, Note_off_c, 0, 51, 95
2, 87360, Note_on_c, 0, 59, 95
2, 87360, Note_on_c, 0, 54, 70
2, 87840, Note_off_c, 0, 59, 95
2, 87840, Note_off_c, 0, 54, 70
2, 87840, Note_on_c, 0, 56, 70
2, 88320, Note_off_c, 0, 56, 70
2, 88320, Note_on_c, 0, 59, 95
2, 88320, Note_on_c, 0, 54, 95
2, 89280, Note_on_c, 0, 51, 95
2, 89760, Note_off_c, 0, 51, 95
2, 89760, Note_on_c, 0, 51, 95
2, 90240, Note_off_c, 0, 51, 95
2, 90240, Note_on_c, 0, 49, 95
2, 90720, Note_off_c, 0, 49, 95
2, 90720, Note_on_c, 0, 51, 95
2, 91200, Note_off_c, 0, 59, 95
2, 91200, Note_off_c, 0, 54, 95
2, 91200, Note_off_c, 0, 51, 95
2, 91200, Note_on_c, 0, 46, 95
2, 91680, Note_off_c, 0, 46, 95
2, 91680, Note_on_c, 0, 44, 95
2, 92160, Note_off_c, 0, 44, 95
2, 92160, Note_on_c, 0, 54, 95
2, 92160, Note_on_c, 0, 49, 95
2, 92160, Note_on_c, 0, 42, 95
2, 93120, Note_off_c, 0, 54, 95
2, 93120, Note_off_c, 0, 49, 95
2, 93120, Note_off_c, 0, 42, 95
2, 93120, Note_on_c, 0, 64, 95
2, 93120, Note_on_c, 0, 59, 95
2, 93120, Note_on_c, 0, 55, 95
2, 93205, Note_off_c, 0, 64, 95
2, 93205, Note_off_c, 0, 59, 95
2, 93205, Note_off_c, 0, 55, 95
2, 93600, Note_on_c, 0, 66, 111
2, 93600, Note_on_c, 0, 61, 111
2, 94080, Note_off_c, 0, 66, 111
2, 94080, Note_off_c, 0, 61, 111
2, 94080, Note_on_c, 0, 68, 86
2, 94080, Note_on_c, 0, 63, 70
2, 94560, Note_off_c, 0, 68, 86
2, 94560, Note_off_c, 0, 63, 70
2, 94560, Note_on_c, 0, 66, 86
2, 94560, Note_on_c, 0, 61, 111
2, 95040, Note_off_c, 0, 66, 86
2, 95040, Note_off_c, 0, 61, 111
2, 95040, Note_on_c, 0, 54, 95
2, 95040, Note_on_c, 0, 49, 95
2, 96000, Note_off_c, 0, 54, 95
2, 96000, Note_off_c, 0, 49, 95
2, 96480, Note_on_c, 0, 61, 95
2, 96480, Note_on_c, 0, 56, 95
2, 96960, Note_off_c, 0, 61, 95
2, 96960, Note_off_c, 0, 56, 95
2, 96960, Note_on_c, 0, 58, 70
2, 97440, Note_off_c, 0, 58, 70
2, 97440, Note_on_c, 0, 61, 95
2, 97440, Note_on_c, 0, 56, 70
2, 97920, Note_off_c, 0, 61, 95
2, 97920, Note_off_c, 0, 56, 70
2, 97920, Note_on_c, 0, 58, 70
2, 98400, Note_off_c, 0, 58, 70
2, 98400, Note_on_c, 0, 61, 95
2, 98400, Note_on_c, 0, 56, 70
2, 98880, Note_off_c, 0, 61, 95
2, 98880, Note_off_c, 0, 56, 70
2, 98880, Note_on_c, 0, 59, 70
2, 98880, Note_on_c, 0, 54, 70
2, 99840, Note_on_c, 0, 49, 95
2, 100800, Note_off_c, 0, 59, 70
2, 100800, Note_off_c, 0, 54, 70
2, 100800, Note_off_c, 0, 49, 95
2, 100800, Note_on_c, 0, 54, 95
2, 100800, Note_on_c, 0, 49, 95
2, 101280, Note_off_c, 0, 54, 95
2, 101280, Note_off_c, 0, 49, 95
2, 101280, Note_on_c, 0, 54, 95
2, 101280, Note_on_c, 0, 51, 70
2, 101760, Note_off_c, 0, 54, 95
2, 101760, Note_off_c, 0, 51, 70
2, 101760, Note_on_c, 0, 59, 95
2, 101760, Note_on_c, 0, 54, 95
2, 102240, Note_off_c, 0, 59, 95
2, 102240, Note_off_c, 0, 54, 95
2, 102240, Note_on_c, 0, 54, 95
2, 102240, Note_on_c, 0, 51, 95
2, 102720, Note_off_c, 0, 54, 95
2, 102720, Note_off_c, 0, 51, 95
2, 102720, Note_on_c, 0, 59, 95
2, 102720, Note_on_c, 0, 54, 70
2, 103200, Note_off_c, 0, 59, 95
2, 103200, Note_off_c, 0, 54, 70
2, 103200, Note_on_c, 0, 56, 70
2, 103680, Note_off_c, 0, 56, 70
2, 103680, Note_on_c, 0, 59, 95
2, 103680, Note_on_c, 0, 54, 95
2, 103680, Note_on_c, 0, 47, 95
2, 105120, Note_off_c, 0, 59, 95
2, 105120, Note_off_c, 0, 54, 95
2, 105120, Note_off_c, 0, 47, 95
2, 105120, Note_on_c, 0, 60, 95
2, 105120, Note_on_c, 0, 55, 95
2, 105120, Note_on_c, 0, 48, 95
2, 106560, Note_off_c, 0, 60, 95
2, 106560, Note_off_c, 0, 55, 95
2, 106560, Note_off_c, 0, 48, 95
2, 106560, Note_on_c, 0, 61, 95
2, 106560, Note_on_c, 0, 56, 95
2, 106560, Note_on_c, 0, 49, 95
2, 107520, Note_off_c, 0, 61, 95
2, 107520, Note_off_c, 0, 56, 95
2, 107520, Note_off_c, 0, 49, 95
2, 107520, Note_on_c, 0, 55, 127
2, 107520, Note_on_c, 0, 50, 127
2, 107520, Note_on_c, 0, 45, 127
2, 107605, Note_off_c, 0, 55, 127
2, 107605, Note_off_c, 0, 50, 127
2, 107605, Note_off_c, 0, 45, 127
2, 108480, Note_on_c, 0, 55, 95
2, 108480, Note_on_c, 0, 50, 95
2, 108565, Note_off_c, 0, 55, 95
2, 108565, Note_off_c, 0, 50, 95
2, 109440, Note_on_c, 0, 55, 95
2, 109440, Note_on_c, 0, 50, 95
2, 109440, Note_on_c, 0, 45, 95
2, 109525, Note_off_c, 0, 55, 95
2, 109525, Note_off_c, 0, 50, 95
2, 109525, Note_off_c, 0, 45, 95
2, 109920, Note_on_c, 0, 61, 95
2, 109920, Note_on_c, 0, 56, 95
2, 109920, Note_on_c, 0, 49, 95
2, 110400, Note_off_c, 0, 61, 95
2, 110400, Note_off_c, 0, 56, 95
2, 110400, Note_off_c, 0, 49, 95
2, 110880, Note_on_c, 0, 61, 95
2, 110880, Note_on_c, 0, 56, 95
2, 110880, Note_on_c, 0, 49, 95
2, 111360, Note_off_c, 0, 61, 95
2, 111360, Note_off_c, 0, 56, 95
2, 111360, Note_off_c, 0, 49, 95
2, 111360, Note_on_c, 0, 55, 95
2, 111360, Note_on_c, 0, 54, 95
2, 111360, Note_on_c, 0, 49, 95
2, 111445, Note_off_c, 0, 55, 95
2, 111445, Note_off_c, 0, 54, 95
2, 111445, Note_off_c, 0, 49, 95
2, 112320, Note_on_c, 0, 64, 95
2, 112320, Note_on_c, 0, 59, 95
2, 112320, Note_on_c, 0, 55, 95
2, 112405, Note_off_c, 0, 64, 95
2, 112405, Note_off_c, 0, 59, 95
2, 112405, Note_off_c, 0, 55, 95
2, 112800, Note_on_c, 0, 66, 111
2, 112800, Note_on_c, 0, 61, 111
2, 113280, Note_off_c, 0, 66, 111
2, 113280, Note_off_c, 0, 61, 111
2, 113280, Note_on_c, 0, 68, 86
2, 113760, Note_off_c, 0, 68, 86
2, 113760, Note_on_c, 0, 66, 86
2, 113760, Note_on_c, 0, 61, 86
2, 114240, Note_off_c, 0, 66, 86
2, 114240, Note_off_c, 0, 61, 86
2, 114240, Note_on_c, 0, 54, 95
2, 114240, Note_on_c, 0, 49, 95
2, 115200, Note_off_c, 0, 54, 95
2, 115200, Note_off_c, 0, 49, 95
2, 115200, Note_on_c, 0, 55, 127
2, 115200, Note_on_c, 0, 50, 127
2, 115200, Note_on_c, 0, 45, 127
2, 115285, Note_off_c, 0, 55, 127
2, 115285, Note_off_c, 0, 50, 127
2, 115285, Note_off_c, 0, 45, 127
2, 116160, Note_on_c, 0, 55, 95
2, 116160, Note_on_c, 0, 50, 95
2, 116245, Note_off_c, 0, 55, 95
2, 116245, Note_off_c, 0, 50, 95
2, 117120, Note_on_c, 0, 55, 95
2, 117120, Note_on_c, 0, 50, 95
2, 117120, Note_on_c, 0, 45, 95
2, 117205, Note_off_c, 0, 55, 95
2, 117205, Note_off_c, 0, 50, 95
2, 117205, Note_off_c, 0, 45, 95
2, 117600, Note_on_c, 0, 61, 95
2, 117600, Note_on_c, 0, 56, 95
2, 117600, Note_on_c, 0, 49, 95
2, 118080, Note_off_c, 0, 61, 95
2, 118080, Note_off_c, 0, 56, 95
2, 118080, Note_off_c, 0, 49, 95
2, 118560, Note_on_c, 0, 61, 95
2, 118560, Note_on_c, 0, 56, 95
2, 118560, Note_on_c, 0, 49, 95
2, 119040, Note_off_c, 0, 61, 95
2, 119040, Note_off_c, 0, 56, 95
2, 119040, Note_off_c, 0, 49, 95
2, 119040, Note_on_c, 0, 55, 127
2, 119040, Note_on_c, 0, 50, 127
2, 119040, Note_on_c, 0, 45, 127
2, 119125, Note_off_c, 0, 55, 127
2, 119125, Note_off_c, 0, 50, 127
2, 119125, Note_off_c, 0, 45, 127
2, 120000, Note_on_c, 0, 56, 95
2, 120000, Note_on_c, 0, 49, 95
2, 120960, Note_off_c, 0, 56, 95
2, 120960, Note_off_c, 0, 49, 95
2, 120960, Note_on_c, 0, 61, 95
2, 120960, Note_on_c, 0, 56, 95
2, 121920, Note_off_c, 0, 61, 95
2, 121920, Note_off_c, 0, 56, 95
2, 121920, Note_on_c, 0, 55, 95
2, 121920, Note_on_c, 0, 50, 95
2, 121920, Note_on_c, 0, 45, 95
2, 122005, Note_off_c, 0, 55, 95
2, 122005, Note_off_c, 0, 50, 95
2, 122005, Note_off_c, 0, 45, 95
2, 122880, Note_on_c, 0, 54, 95
2, 122880, Note_on_c, 0, 49, 95
2, 122880, Note_on_c, 0, 42, 95
2, 123840, Note_off_c, 0, 54, 95
2, 123840, Note_off_c, 0, 49, 95
2, 123840, Note_off_c, 0, 42, 95
2, 123840, Note_on_c, 0, 64, 95
2, 123840, Note_on_c, 0, 59, 95
2, 123840, Note_on_c, 0, 55, 95
2, 123925, Note_off_c, 0, 64, 95
2, 123925, Note_off_c, 0, 59, 95
2, 123925, Note_off_c, 0, 55, 95
2, 124320, Note_on_c, 0, 66, 111
2, 124320, Note_on_c, 0, 61, 111
2, 124800, Note_off_c, 0, 66, 111
2, 124800, Note_off_c, 0, 61, 111
2, 124800, Note_on_c, 0, 68, 86
2, 124800, Note_on_c, 0, 63, 70
2, 125280, Note_off_c, 0, 68, 86
2, 125280, Note_off_c, 0, 63, 70
2, 125280, Note_on_c, 0, 66, 86
2, 125280, Note_on_c, 0, 61, 111
2, 125760, Note_off_c, 0, 66, 86
2, 125760, Note_off_c, 0, 61, 111
2, 125760, Note_on_c, 0, 54, 95
2, 125760, Note_on_c, 0, 49, 95
2, 126720, Note_off_c, 0, 54, 95
2, 126720, Note_off_c, 0, 49, 95
2, 127200, Note_on_c, 0, 61, 95
2, 127200, Note_on_c, 0, 56, 95
2, 127680, Note_off_c, 0, 61, 95
2, 127680, Note_off_c, 0, 56, 95
2, 127680, Note_on_c, 0, 58, 70
2, 128160, Note_off_c, 0, 58, 70
2, 128160, Note_on_c, 0, 61, 95
2, 128160, Note_on_c, 0, 56, 70
2, 128640, Note_off_c, 0, 61, 95
2, 128640, Note_off_c, 0, 56, 70
2, 128640, Note_on_c, 0, 58, 70
2, 129120, Note_off_c, 0, 58, 70
2, 129120, Note_on_c, 0, 61, 95
2, 129120, Note_on_c, 0, 56, 70
2, 129600, Note_off_c, 0, 61, 95
2, 129600, Note_off_c, 0, 56, 70
2, 129600, Note_on_c, 0, 59, 70
2, 129600, Note_on_c, 0, 54, 70
2, 130560, Note_on_c, 0, 49, 95
2, 131520, Note_off_c, 0, 59, 70
2, 131520, Note_off_c, 0, 54, 70
2, 131520, Note_off_c, 0, 49, 95
2, 131520, Note_on_c, 0, 54, 95
2, 131520, Note_on_c, 0, 49, 95
2, 132000, Note_off_c, 0, 54, 95
2, 132000, Note_off_c, 0, 49, 95
2, 132000, Note_on_c, 0, 54, 95
2, 132000, Note_on_c, 0, 51, 70
2, 132480, Note_off_c, 0, 54, 95
2, 132480, Note_off_c, 0, 51, 70
2, 132480, Note_on_c, 0, 59, 95
2, 132480, Note_on_c, 0, 54, 95
2, 132960, Note_off_c, 0, 59, 95
2, 132960, Note_off_c, 0, 54, 95
2, 132960, Note_on_c, 0, 54, 95
2, 132960, Note_on_c, 0, 51, 95
2, 133440, Note_off_c, 0, 54, 95
2, 133440, Note_off_c, 0, 51, 95
2, 133440, Note_on_c, 0, 59, 95
2, 133440, Note_on_c, 0, 54, 70
2, 133920, Note_off_c, 0, 59, 95
2, 133920, Note_off_c, 0, 54, 70
2, 133920, Note_on_c, 0, 56, 70
2, 134400, Note_off_c, 0, 56, 70
2, 134400, Note_on_c, 0, 59, 95
2, 134400, Note_on_c, 0, 54, 95
2, 134400, Note_on_c, 0, 47, 95
2, 135840, Note_off_c, 0, 59, 95
2, 135840, Note_off_c, 0, 54, 95
2, 135840, Note_off_c, 0, 47, 95
2, 135840, Note_on_c, 0, 60, 95
2, 135840, Note_on_c, 0, 55, 95
2, 135840, Note_on_c, 0, 48, 95
2, 137280, Note_off_c, 0, 60, 95
2, 137280, Note_off_c, 0, 55, 95
2, 137280, Note_off_c, 0, 48, 95
2, 137280, Note_on_c, 0, 61, 95
2, 137280, Note_on_c, 0, 56, 95
2, 137280, Note_on_c, 0, 49, 95
2, 138240, Note_off_c, 0, 61, 95
2, 138240, Note_off_c, 0, 56, 95
2, 138240, Note_off_c, 0, 49, 95
2, 138240, Note_on_c, 0, 55, 127
2, 138240, Note_on_c, 0, 50, 127
2, 138240, Note_on_c, 0, 45, 127
2, 138325, Note_off_c, 0, 55, 127
2, 138325, Note_off_c, 0, 50, 127
2, 138325, Note_off_c, 0, 45, 127
2, 139200, Note_on_c, 0, 55, 95
2, 139200, Note_on_c, 0, 50, 95
2, 139285, Note_off_c, 0, 55, 95
2, 139285, Note_off_c, 0, 50, 95
2, 140160, Note_on_c, 0, 55, 95
2, 140160, Note_on_c, 0, 50, 95
2, 140160, Note_on_c, 0, 45, 95
2, 140245, Note_off_c, 0, 55, 95
2, 140245, Note_off_c, 0, 50, 95
2, 140245, Note_off_c, 0, 45, 95
2, 140640, Note_on_c, 0, 61, 95
2, 140640, Note_on_c, 0, 56, 95
2, 140640, Note_on_c, 0, 49, 95
2, 141120, Note_off_c, 0, 61, 95
2, 141120, Note_off_c, 0, 56, 95
2, 141120, Note_off_c, 0, 49, 95
2, 141600, Note_on_c, 0, 61, 95
2, 141600, Note_on_c, 0, 56, 95
2, 141600, Note_on_c, 0, 49, 95
2, 142080, Note_off_c, 0, 61, 95
2, 142080, Note_off_c, 0, 56, 95
2, 142080, Note_off_c, 0, 49, 95
2, 142080, Note_on_c, 0, 55, 95
2, 142080, Note_on_c, 0, 54, 95
2, 142080, Note_on_c, 0, 49, 95
2, 142165, Note_off_c, 0, 55, 95
2, 142165, Note_off_c, 0, 54, 95
2, 142165, Note_off_c, 0, 49, 95
2, 143040, Note_on_c, 0, 64, 95
2, 143040, Note_on_c, 0, 59, 95
2, 143040, Note_on_c, 0, 55, 95
2, 143125, Note_off_c, 0, 64, 95
2, 143125, Note_off_c, 0, 59, 95
2, 143125, Note_off_c, 0, 55, 95
2, 143520, Note_on_c, 0, 66, 111
2, 143520, Note_on_c, 0, 61, 111
2, 144000, Note_off_c, 0, 66, 111
2, 144000, Note_off_c, 0, 61, 111
2, 144000, Note_on_c, 0, 68, 86
2, 144480, Note_off_c, 0, 68, 86
2, 144480, Note_on_c, 0, 66, 86
2, 144480, Note_on_c, 0, 61, 86
2, 144960, Note_off_c, 0, 66, 86
2, 144960, Note_off_c, 0, 61, 86
2, 144960, Note_on_c, 0, 54, 95
2, 144960, Note_on_c, 0, 49, 95
2, 145920, Note_off_c, 0, 54, 95
2, 145920, Note_off_c, 0, 49, 95
2, 145920, Note_on_c, 0, 55, 127
2, 145920, Note_on_c, 0, 50, 127
2, 145920, Note_on_c, 0, 45, 127
2, 146005, Note_off_c, 0, 55, 127
2, 146005, Note_off_c, 0, 50, 127
2, 146005, Note_off_c, 0, 45, 127
2, 146880, Note_on_c, 0, 55, 95
2, 146880, Note_on_c, 0, 50, 95
2, 146965, Note_off_c, 0, 55, 95
2, 146965, Note_off_c, 0, 50, 95
2, 147840, Note_on_c, 0, 55, 95
2, 147840, Note_on_c, 0, 50, 95
2, 147840, Note_on_c, 0, 45, 95
2, 147925, Note_off_c, 0, 55, 95
2, 147925, Note_off_c, 0, 50, 95
2, 147925, Note_off_c, 0, 45, 95
2, 148320, Note_on_c, 0, 61, 95
2, 148320, Note_on_c, 0, 56, 95
2, 148320, Note_on_c, 0, 49, 95
2, 148800, Note_off_c, 0, 61, 95
2, 148800, Note_off_c, 0, 56, 95
2, 148800, Note_off_c, 0, 49, 95
2, 149280, Note_on_c, 0, 61, 95
2, 149280, Note_on_c, 0, 56, 95
2, 149280, Note_on_c, 0, 49, 95
2, 149760, Note_off_c, 0, 61, 95
2, 149760, Note_off_c, 0, 56, 95
2, 149760, Note_off_c, 0, 49, 95
2, 149760, Note_on_c, 0, 55, 127
2, 149760, Note_on_c, 0, 50, 127
2, 149760, Note_on_c, 0, 45, 127
2, 149845, Note_off_c, 0, 55, 127
2, 149845, Note_off_c, 0, 50, 127
2, 149845, Note_off_c, 0, 45, 127
2, 150720, Note_on_c, 0, 56, 95
2, 150720, Note_on_c, 0, 49, 95
2, 151680, Note_off_c, 0, 56, 95
2, 151680, Note_off_c, 0, 49, 95
2, 151680, Note_on_c, 0, 61, 95
2, 151680, Note_on_c, 0, 56, 95
2, 152640, Note_off_c, 0, 61, 95
2, 152640, Note_off_c, 0, 56, 95
2, 152640, Note_on_c, 0, 55, 95
2, 152640, Note_on_c, 0, 50, 95
2, 152640, Note_on_c, 0, 45, 95
2, 152725, Note_off_c, 0, 55, 95
2, 152725, Note_off_c, 0, 50, 95
2, 152725, Note_off_c, 0, 45, 95
2, 153600, Note_on_c, 0, 54, 95
2, 153600, Note_on_c, 0, 49, 95
2, 153600, Note_on_c, 0, 42, 95
2, 154560, Note_off_c, 0, 54, 95
2, 154560, Note_off_c, 0, 49, 95
2, 154560, Note_off_c, 0, 42, 95
2, 154560, Note_on_c, 0, 64, 95
2, 154560, Note_on_c, 0, 59, 95
2, 154560, Note_on_c, 0, 55, 95
2, 154645, Note_off_c, 0, 64, 95
2, 154645, Note_off_c, 0, 59, 95
2, 154645, Note_off_c, 0, 55, 95
2, 155040, Note_on_c, 0, 66, 111
2, 155040, Note_on_c, 0, 61, 111
2, 155520, Note_off_c, 0, 66, 111
2, 155520, Note_off_c, 0, 61, 111
2, 155520, Note_on_c, 0, 68, 86
2, 155520, Note_on_c, 0, 63, 70
2, 156000, Note_off_c, 0, 68, 86
2, 156000, Note_off_c, 0, 63, 70
2, 156000, Note_on_c, 0, 66, 86
2, 156000, Note_on_c, 0, 61, 111
2, 156480, Note_off_c, 0, 66, 86
2, 156480, Note_off_c, 0, 61, 111
2, 156480, Note_on_c, 0, 54, 95
2, 156480, Note_on_c, 0, 49, 95
2, 157440, Note_off_c, 0, 54, 95
2, 157440, Note_off_c, 0, 49, 95
2, 157920, Note_on_c, 0, 61, 95
2, 157920, Note_on_c, 0, 56, 95
2, 158400, Note_off_c, 0, 61, 95
2, 158400, Note_off_c, 0, 56, 95
2, 158400, Note_on_c, 0, 58, 70
2, 158880, Note_off_c, 0, 58, 70
2, 158880, Note_on_c, 0, 61, 95
2, 158880, Note_on_c, 0, 56, 70
2, 159360, Note_off_c, 0, 61, 95
2, 159360, Note_off_c, 0, 56, 70
2, 159360, Note_on_c, 0, 58, 70
2, 159840, Note_off_c, 0, 58, 70
2, 159840, Note_on_c, 0, 61, 95
2, 159840, Note_on_c, 0, 56, 70
2, 160320, Note_off_c, 0, 61, 95
2, 160320, Note_off_c, 0, 56, 70
2, 160320, Note_on_c, 0, 59, 70
2, 160320, Note_on_c, 0, 54, 70
2, 161280, Note_on_c, 0, 49, 95
2, 162240, Note_off_c, 0, 59, 70
2, 162240, Note_off_c, 0, 54, 70
2, 162240, Note_off_c, 0, 49, 95
2, 162240, Note_on_c, 0, 54, 95
2, 162240, Note_on_c, 0, 49, 95
2, 162720, Note_off_c, 0, 54, 95
2, 162720, Note_off_c, 0, 49, 95
2, 162720, Note_on_c, 0, 54, 95
2, 162720, Note_on_c, 0, 51, 70
2, 163200, Note_off_c, 0, 54, 95
2, 163200, Note_off_c, 0, 51, 70
2, 163200, Note_on_c, 0, 59, 95
2, 163200, Note_on_c, 0, 54, 95
2, 163680, Note_off_c, 0, 59, 95
2, 163680, Note_off_c, 0, 54, 95
2, 163680, Note_on_c, 0, 54, 95
2, 163680, Note_on_c, 0, 51, 95
2, 164160, Note_off_c, 0, 54, 95
2, 164160, Note_off_c, 0, 51, 95
2, 164160, Note_on_c, 0, 59, 95
2, 164160, Note_on_c, 0, 54, 70
2, 164640, Note_off_c, 0, 59, 95
2, 164640, Note_off_c, 0, 54, 70
2, 164640, Note_on_c, 0, 54, 70
2, 165120, Note_off_c, 0, 54, 70
2, 165120, Note_on_c, 0, 54, 95
2, 165600, Note_off_c, 0, 54, 95
2, 165600, Note_on_c, 0, 59, 95
2, 165600, Note_on_c, 0, 54, 95
2, 165600, Note_on_c, 0, 47, 95
2, 166080, Note_off_c, 0, 59, 95
2, 166080, Note_off_c, 0, 54, 95
2, 166080, Note_off_c, 0, 47, 95
2, 166080, Note_on_c, 0, 60, 95
2, 166080, Note_on_c, 0, 55, 95
2, 166080, Note_on_c, 0, 48, 95
2, 167520, Note_off_c, 0, 60, 95
2, 167520, Note_off_c, 0, 55, 95
2, 167520, Note_off_c, 0, 48, 95
2, 167520, Note_on_c, 0, 60, 95
2, 167520, Note_on_c, 0, 55, 95
2, 167520, Note_on_c, 0, 48, 95
2, 168000, Note_off_c, 0, 60, 95
2, 168000, Note_off_c, 0, 55, 95
2, 168000, Note_off_c, 0, 48, 95
2, 168000, Note_on_c, 0, 61, 95
2, 168000, Note_on_c, 0, 56, 95
2, 168000, Note_on_c, 0, 49, 95
2, 168960, Note_off_c, 0, 61, 95
2, 168960, Note_off_c, 0, 56, 95
2, 168960, Note_off_c, 0, 49, 95
2, 168960, Note_on_c, 0, 46, 95
2, 168964, Note_on_c, 0, 53, 95
2, 168968, Note_on_c, 0, 58, 95
2, 169440, Note_off_c, 0, 58, 95
2, 169440, Note_off_c, 0, 53, 95
2, 169440, Note_off_c, 0, 46, 95
2, 169440, Note_on_c, 0, 58, 95
2, 169444, Note_on_c, 0, 53, 95
2, 169448, Note_on_c, 0, 46, 95
2, 169920, Note_off_c, 0, 58, 95
2, 169920, Note_off_c, 0, 53, 95
2, 169920, Note_off_c, 0, 46, 95
2, 169920, Note_on_c, 0, 46, 95
2, 169924, Note_on_c, 0, 53, 95
2, 169928, Note_on_c, 0, 58, 95
2, 170400, Note_off_c, 0, 58, 95
2, 170400, Note_off_c, 0, 53, 95
2, 170400, Note_off_c, 0, 46, 95
2, 170400, Note_on_c, 0, 58, 95
2, 170404, Note_on_c, 0, 53, 95
2, 170408, Note_on_c, 0, 46, 95
2, 170880, Note_off_c, 0, 58, 95
2, 170880, Note_off_c, 0, 53, 95
2, 170880, Note_off_c, 0, 46, 95
2, 170880, Note_on_c, 0, 46, 95
2, 170882, Note_on_c, 0, 53, 95
2, 170884, Note_on_c, 0, 58, 95
2, 171120, Note_off_c, 0, 58, 95
2, 171120, Note_off_c, 0, 53, 95
2, 171120, Note_off_c, 0, 46, 95
2, 171840, Note_on_c, 0, 59, 95
2, 171840, Note_on_c, 0, 54, 95
2, 171840, Note_on_c, 0, 40, 95
2, 171925, Note_off_c, 0, 59, 95
2, 171925, Note_off_c, 0, 54, 95
2, 171925, Note_off_c, 0, 40, 95
2, 172320, Note_on_c, 0, 50, 95
2, 172320, Note_on_c, 0, 45, 95
2, 172320, Note_on_c, 0, 40, 95
2, 172405, Note_off_c, 0, 50, 95
2, 172405, Note_off_c, 0, 45, 95
2, 172405, Note_off_c, 0, 40, 95
2, 172800, Note_on_c, 0, 57, 95
2, 172800, Note_on_c, 0, 45, 95
2, 172800, Note_on_c, 0, 40, 95
2, 172885, Note_off_c, 0, 57, 95
2, 172885, Note_off_c, 0, 45, 95
2, 172885, Note_off_c, 0, 40, 95
2, 173280, Note_on_c, 0, 59, 95
2, 173280, Note_on_c, 0, 45, 95
2, 173280, Note_on_c, 0, 40, 95
2, 173365, Note_off_c, 0, 59, 95
2, 173365, Note_off_c, 0, 45, 95
2, 173365, Note_off_c, 0, 40, 95
2, 173760, Note_on_c, 0, 50, 95
2, 173760, Note_on_c, 0, 45, 95
2, 173760, Note_on_c, 0, 40, 95
2, 173845, Note_off_c, 0, 50, 95
2, 173845, Note_off_c, 0, 45, 95
2, 173845, Note_off_c, 0, 40, 95
2, 174240, Note_on_c, 0, 58, 95
2, 174240, Note_on_c, 0, 53, 95
2, 174240, Note_on_c, 0, 46, 95
2, 174720, Note_off_c, 0, 58, 95
2, 174720, Note_off_c, 0, 53, 95
2, 174720, Note_off_c, 0, 46, 95
2, 174720, Note_on_c, 0, 58, 95
2, 174720, Note_on_c, 0, 53, 95
2, 174720, Note_on_c, 0, 46, 95
2, 175200, Note_off_c, 0, 58, 95
2, 175200, Note_off_c, 0, 53, 95
2, 175200, Note_off_c, 0, 46, 95
2, 175200, Note_on_c, 0, 58, 95
2, 175200, Note_on_c, 0, 53, 95
2, 175200, Note_on_c, 0, 46, 95
2, 175680, Note_off_c, 0, 58, 95
2, 175680, Note_off_c, 0, 53, 95
2, 175680, Note_off_c, 0, 46, 95
2, 176640, Note_on_c, 0, 46, 95
2, 176644, Note_on_c, 0, 53, 95
2, 176648, Note_on_c, 0, 58, 95
2, 177120, Note_off_c, 0, 58, 95
2, 177120, Note_off_c, 0, 53, 95
2, 177120, Note_off_c, 0, 46, 95
2, 177120, Note_on_c, 0, 58, 95
2, 177124, Note_on_c, 0, 53, 95
2, 177128, Note_on_c, 0, 46, 95
2, 177600, Note_off_c, 0, 58, 95
2, 177600, Note_off_c, 0, 53, 95
2, 177600, Note_off_c, 0, 46, 95
2, 177600, Note_on_c, 0, 46, 95
2, 177604, Note_on_c, 0, 53, 95
2, 177608, Note_on_c, 0, 58, 95
2, 178080, Note_off_c, 0, 58, 95
2, 178080, Note_off_c, 0, 53, 95
2, 178080, Note_off_c, 0, 46, 95
2, 178080, Note_on_c, 0, 58, 95
2, 178084, Note_on_c, 0, 53, 95
2, 178088, Note_on_c, 0, 46, 95
2, 178560, Note_off_c, 0, 58, 95
2, 178560, Note_off_c, 0, 53, 95
2, 178560, Note_off_c, 0, 46, 95
2, 178560, Note_on_c, 0, 46, 95
2, 178562, Note_on_c, 0, 53, 95
2, 178564, Note_on_c, 0, 58, 95
2, 178800, Note_off_c, 0, 58, 95
2, 178800, Note_off_c, 0, 53, 95
2, 178800, Note_off_c, 0, 46, 95
2, 179520, Note_on_c, 0, 59, 95
2, 179520, Note_on_c, 0, 54, 95
2, 179520, Note_on_c, 0, 40, 95
2, 179605, Note_off_c, 0, 59, 95
2, 179605, Note_off_c, 0, 54, 95
2, 179605, Note_off_c, 0, 40, 95
2, 180000, Note_on_c, 0, 50, 95
2, 180000, Note_on_c, 0, 45, 95
2, 180000, Note_on_c, 0, 40, 95
2, 180085, Note_off_c, 0, 50, 95
2, 180085, Note_off_c, 0, 45, 95
2, 180085, Note_off_c, 0, 40, 95
2, 180480, Note_on_c, 0, 57, 95
2, 180480, Note_on_c, 0, 45, 95
2, 180480, Note_on_c, 0, 40, 95
2, 180565, Note_off_c, 0, 57, 95
2, 180565, Note_off_c, 0, 45, 95
2, 180565, Note_off_c, 0, 40, 95
2, 180960, Note_on_c, 0, 59, 95
2, 180960, Note_on_c, 0, 45, 95
2, 180960, Note_on_c, 0, 40, 95
2, 181045, Note_off_c, 0, 59, 95
2, 181045, Note_off_c, 0, 45, 95
2, 181045, Note_off_c, 0, 40, 95
2, 181440, Note_on_c, 0, 50, 95
2, 181440, Note_on_c, 0, 45, 95
2, 181440, Note_on_c, 0, 40, 95
2, 181525, Note_off_c, 0, 50, 95
2, 181525, Note_off_c, 0, 45, 95
2, 181525, Note_off_c, 0, 40, 95
2, 181920, Note_on_c, 0, 58, 95
2, 181920, Note_on_c, 0, 53, 95
2, 181920, Note_on_c, 0, 46, 95
2, 182400, Note_off_c, 0, 58, 95
2, 182400, Note_off_c, 0, 53, 95
2, 182400, Note_off_c, 0, 46, 95
2, 182400, Note_on_c, 0, 58, 95
2, 182400, Note_on_c, 0, 53, 95
2, 182400, Note_on_c, 0, 46, 95
2, 182880, Note_off_c, 0, 58, 95
2, 182880, Note_off_c, 0, 53, 95
2, 182880, Note_off_c, 0, 46, 95
2, 182880, Note_on_c, 0, 58, 95
2, 182880, Note_on_c, 0, 53, 95
2, 182880, Note_on_c, 0, 46, 95
2, 183360, Note_off_c, 0, 58, 95
2, 183360, Note_off_c, 0, 53, 95
2, 183360, Note_off_c, 0, 46, 95
2, 184320, Note_on_c, 0, 44, 95
2, 184324, Note_on_c, 0, 51, 95
2, 184328, Note_on_c, 0, 56, 95
2, 184800, Note_off_c, 0, 56, 95
2, 184800, Note_off_c, 0, 51, 95
2, 184800, Note_off_c, 0, 44, 95
2, 184800, Note_on_c, 0, 56, 95
2, 184804, Note_on_c, 0, 51, 95
2, 184808, Note_on_c, 0, 44, 95
2, 185280, Note_off_c, 0, 56, 95
2, 185280, Note_off_c, 0, 51, 95
2, 185280, Note_off_c, 0, 44, 95
2, 185280, Note_on_c, 0, 44, 95
2, 185284, Note_on_c, 0, 51, 95
2, 185288, Note_on_c, 0, 56, 95
2, 185760, Note_off_c, 0, 56, 95
2, 185760, Note_off_c, 0, 51, 95
2, 185760, Note_off_c, 0, 44, 95
2, 185760, Note_on_c, 0, 56, 95
2, 185764, Note_on_c, 0, 51, 95
2, 185768, Note_on_c, 0, 44, 95
2, 186240, Note_off_c, 0, 56, 95
2, 186240, Note_off_c, 0, 51, 95
2, 186240, Note_off_c, 0, 44, 95
2, 186240, Note_on_c, 0, 44, 95
2, 186242, Note_on_c, 0, 51, 95
2, 186244, Note_on_c, 0, 56, 95
2, 186480, Note_off_c, 0, 56, 95
2, 186480, Note_off_c, 0, 51, 95
2, 186480, Note_off_c, 0, 44, 95
2, 187200, Note_on_c, 0, 59, 95
2, 187200, Note_on_c, 0, 54, 95
2, 187200, Note_on_c, 0, 40, 95
2, 187285, Note_off_c, 0, 59, 95
2, 187285, Note_off_c, 0, 54, 95
2, 187285, Note_off_c, 0, 40, 95
2, 187680, Note_on_c, 0, 50, 95
2, 187680, Note_on_c, 0, 45, 95
2, 187680, Note_on_c, 0, 40, 95
2, 187765, Note_off_c, 0, 50, 95
2, 187765, Note_off_c, 0, 45, 95
2, 187765, Note_off_c, 0, 40, 95
2, 188160, Note_on_c, 0, 57, 95
2, 188160, Note_on_c, 0, 45, 95
2, 188160, Note_on_c, 0, 40, 95
2, 188245, Note_off_c, 0, 57, 95
2, 188245, Note_off_c, 0, 45, 95
2, 188245, Note_off_c, 0, 40, 95
2, 188640, Note_on_c, 0, 59, 95
2, 188640, Note_on_c, 0, 45, 95
2, 188640, Note_on_c, 0, 40, 95
2, 188725, Note_off_c, 0, 59, 95
2, 188725, Note_off_c, 0, 45, 95
2, 188725, Note_off_c, 0, 40, 95
2, 189120, Note_on_c, 0, 50, 95
2, 189120, Note_on_c, 0, 45, 95
2, 189120, Note_on_c, 0, 40, 95
2, 189205, Note_off_c, 0, 50, 95
2, 189205, Note_off_c, 0, 45, 95
2, 189205, Note_off_c, 0, 40, 95
2, 189600, Note_on_c, 0, 56, 95
2, 189600, Note_on_c, 0, 51, 95
2, 189600, Note_on_c, 0, 44, 95
2, 190080, Note_off_c, 0, 56, 95
2, 190080, Note_off_c, 0, 51, 95
2, 190080, Note_off_c, 0, 44, 95
2, 190080, Note_on_c, 0, 56, 95
2, 190080, Note_on_c, 0, 51, 95
2, 190080, Note_on_c, 0, 44, 95
2, 190560, Note_off_c, 0, 56, 95
2, 190560, Note_off_c, 0, 51, 95
2, 190560, Note_off_c, 0, 44, 95
2, 190560, Note_on_c, 0, 56, 95
2, 190560, Note_on_c, 0, 51, 95
2, 190560, Note_on_c, 0, 44, 95
2, 191040, Note_off_c, 0, 56, 95
2, 191040, Note_off_c, 0, 51, 95
2, 191040, Note_off_c, 0, 44, 95
2, 192000, Note_on_c, 0, 44, 95
2, 192004, Note_on_c, 0, 51, 95
2, 192008, Note_on_c, 0, 56, 95
2, 192480, Note_off_c, 0, 56, 95
2, 192480, Note_off_c, 0, 51, 95
2, 192480, Note_off_c, 0, 44, 95
2, 192480, Note_on_c, 0, 56, 95
2, 192484, Note_on_c, 0, 51, 95
2, 192488, Note_on_c, 0, 44, 95
2, 192960, Note_off_c, 0, 56, 95
2, 192960, Note_off_c, 0, 51, 95
2, 192960, Note_off_c, 0, 44, 95
2, 192960, Note_on_c, 0, 44, 95
2, 192964, Note_on_c, 0, 51, 95
2, 192968, Note_on_c, 0, 56, 95
2, 193440, Note_off_c, 0, 56, 95
2, 193440, Note_off_c, 0, 51, 95
2, 193440, Note_off_c, 0, 44, 95
2, 193440, Note_on_c, 0, 56, 95
2, 193444, Note_on_c, 0, 51, 95
2, 193448, Note_on_c, 0, 44, 95
2, 193920, Note_off_c, 0, 56, 95
2, 193920, Note_off_c, 0, 51, 95
2, 193920, Note_off_c, 0, 44, 95
2, 193920, Note_on_c, 0, 44, 95
2, 193922, Note_on_c, 0, 51, 95
2, 193924, Note_on_c, 0, 56, 95
2, 194160, Note_off_c, 0, 56, 95
2, 194160, Note_off_c, 0, 51, 95
2, 194160, Note_off_c, 0, 44, 95
2, 194880, Note_on_c, 0, 59, 95
2, 194880, Note_on_c, 0, 54, 95
2, 194880, Note_on_c, 0, 40, 95
2, 194965, Note_off_c, 0, 59, 95
2, 194965, Note_off_c, 0, 54, 95
2, 194965, Note_off_c, 0, 40, 95
2, 195360, Note_on_c, 0, 50, 95
2, 195360, Note_on_c, 0, 45, 95
2, 195360, Note_on_c, 0, 40, 95
2, 195445, Note_off_c, 0, 50, 95
2, 195445, Note_off_c, 0, 45, 95
2, 195445, Note_off_c, 0, 40, 95
2, 195840, Note_on_c, 0, 57, 95
2, 195840, Note_on_c, 0, 45, 95
2, 195840, Note_on_c, 0, 40, 95
2, 195925, Note_off_c, 0, 57, 95
2, 195925, Note_off_c, 0, 45, 95
2, 195925, Note_off_c, 0, 40, 95
2, 196320, Note_on_c, 0, 59, 95
2, 196320, Note_on_c, 0, 45, 95
2, 196320, Note_on_c, 0, 40, 95
2, 196405, Note_off_c, 0, 59, 95
2, 196405, Note_off_c, 0, 45, 95
2, 196405, Note_off_c, 0, 40, 95
2, 196800, Note_on_c, 0, 50, 95
2, 196800, Note_on_c, 0, 45, 95
2, 196800, Note_on_c, 0, 40, 95
2, 196885, Note_off_c, 0, 50, 95
2, 196885, Note_off_c, 0, 45, 95
2, 196885, Note_off_c, 0, 40, 95
2, 197280, Note_on_c, 0, 56, 95
2, 197280, Note_on_c, 0, 51, 95
2, 197280, Note_on_c, 0, 44, 95
2, 197760, Note_off_c, 0, 56, 95
2, 197760, Note_off_c, 0, 51, 95
2, 197760, Note_off_c, 0, 44, 95
2, 197760, Note_on_c, 0, 56, 95
2, 197760, Note_on_c, 0, 51, 95
2, 197760, Note_on_c, 0, 44, 95
2, 198240, Note_off_c, 0, 56, 95
2, 198240, Note_off_c, 0, 51, 95
2, 198240, Note_off_c, 0, 44, 95
2, 198240, Note_on_c, 0, 56, 95
2, 198240, Note_on_c, 0, 51, 95
2, 198240, Note_on_c, 0, 44, 95
2, 198720, Note_off_c, 0, 56, 95
2, 198720, Note_off_c, 0, 51, 95
2, 198720, Note_off_c, 0, 44, 95
2, 199680, Note_on_c, 0, 46, 95
2, 199684, Note_on_c, 0, 53, 95
2, 199688, Note_on_c, 0, 58, 95
2, 200160, Note_off_c, 0, 58, 95
2, 200160, Note_off_c, 0, 53, 95
2, 200160, Note_off_c, 0, 46, 95
2, 200160, Note_on_c, 0, 58, 95
2, 200164, Note_on_c, 0, 53, 95
2, 200168, Note_on_c, 0, 46, 95
2, 200640, Note_off_c, 0, 58, 95
2, 200640, Note_off_c, 0, 53, 95
2, 200640, Note_off_c, 0, 46, 95
2, 200640, Note_on_c, 0, 46, 95
2, 200644, Note_on_c, 0, 53, 95
2, 200648, Note_on_c, 0, 58, 95
2, 201120, Note_off_c, 0, 58, 95
2, 201120, Note_off_c, 0, 53, 95
2, 201120, Note_off_c, 0, 46, 95
2, 201120, Note_on_c, 0, 58, 95
2, 201124, Note_on_c, 0, 53, 95
2, 201128, Note_on_c, 0, 46, 95
2, 201600, Note_off_c, 0, 58, 95
2, 201600, Note_off_c, 0, 53, 95
2, 201600, Note_off_c, 0, 46, 95
2, 201600, Note_on_c, 0, 46, 95
2, 201602, Note_on_c, 0, 53, 95
2, 201604, Note_on_c, 0, 58, 95
2, 201840, Note_off_c, 0, 58, 95
2, 201840, Note_off_c, 0, 53, 95
2, 201840, Note_off_c, 0, 46, 95
2, 202560, Note_on_c, 0, 59, 95
2, 202560, Note_on_c, 0, 54, 95
2, 202560, Note_on_c, 0, 40, 95
2, 202645, Note_off_c, 0, 59, 95
2, 202645, Note_off_c, 0, 54, 95
2, 202645, Note_off_c, 0, 40, 95
2, 203040, Note_on_c, 0, 50, 95
2, 203040, Note_on_c, 0, 45, 95
2, 203040, Note_on_c, 0, 40, 95
2, 203125, Note_off_c, 0, 50, 95
2, 203125, Note_off_c, 0, 45, 95
2, 203125, Note_off_c, 0, 40, 95
2, 203520, Note_on_c, 0, 57, 95
2, 203520, Note_on_c, 0, 45, 95
2, 203520, Note_on_c, 0, 40, 95
2, 203605, Note_off_c, 0, 57, 95
2, 203605, Note_off_c, 0, 45, 95
2, 203605, Note_off_c, 0, 40, 95
2, 204000, Note_on_c, 0, 59, 95
2, 204000, Note_on_c, 0, 45, 95
2, 204000, Note_on_c, 0, 40, 95
2, 204085, Note_off_c, 0, 59, 95
2, 204085, Note_off_c, 0, 45, 95
2, 204085, Note_off_c, 0, 40, 95
2, 204480, Note_on_c, 0, 50, 95
2, 204480, Note_on_c, 0, 45, 95
2, 204480, Note_on_c, 0, 40, 95
2, 204565, Note_off_c, 0, 50, 95
2, 204565, Note_off_c, 0, 45, 95
2, 204565, Note_off_c, 0, 40, 95
2, 204960, Note_on_c, 0, 58, 95
2, 204960, Note_on_c, 0, 53, 95
2, 204960, Note_on_c, 0, 46, 95
2, 205440, Note_off_c, 0, 58, 95
2, 205440, Note_off_c, 0, 53, 95
2, 205440, Note_off_c, 0, 46, 95
2, 205440, Note_on_c, 0, 58, 95
2, 205440, Note_on_c, 0, 53, 95
2, 205440, Note_on_c, 0, 46, 95
2, 205920, Note_off_c, 0, 58, 95
2, 205920, Note_off_c, 0, 53, 95
2, 205920, Note_off_c, 0, 46, 95
2, 205920, Note_on_c, 0, 58, 95
2, 205920, Note_on_c, 0, 53, 95
2, 205920, Note_on_c, 0, 46, 95
2, 206400, Note_off_c, 0, 58, 95
2, 206400, Note_off_c, 0, 53, 95
2, 206400, Note_off_c, 0, 46, 95
2, 207360, Note_on_c, 0, 46, 95
2, 207364, Note_on_c, 0, 53, 95
2, 207368, Note_on_c, 0, 58, 95
2, 207840, Note_off_c, 0, 58, 95
2, 207840, Note_off_c, 0, 53, 95
2, 207840, Note_off_c, 0, 46, 95
2, 207840, Note_on_c, 0, 58, 95
2, 207844, Note_on_c, 0, 53, 95
2, 207848, Note_on_c, 0, 46, 95
2, 208320, Note_off_c, 0, 58, 95
2, 208320, Note_off_c, 0, 53, 95
2, 208320, Note_off_c, 0, 46, 95
2, 208320, Note_on_c, 0, 46, 95
2, 208324, Note_on_c, 0, 53, 95
2, 208328, Note_on_c, 0, 58, 95
2, 208800, Note_off_c, 0, 58, 95
2, 208800, Note_off_c, 0, 53, 95
2, 208800, Note_off_c, 0, 46, 95
2, 208800, Note_on_c, 0, 58, 95
2, 208804, Note_on_c, 0, 53, 95
2, 208808, Note_on_c, 0, 46, 95
2, 209280, Note_off_c, 0, 58, 95
2, 209280, Note_off_c, 0, 53, 95
2, 209280, Note_off_c, 0, 46, 95
2, 209280, Note_on_c, 0, 46, 95
2, 209282, Note_on_c, 0, 53, 95
2, 209284, Note_on_c, 0, 58, 95
2, 209520, Note_off_c, 0, 58, 95
2, 209520, Note_off_c, 0, 53, 95
2, 209520, Note_off_c, 0, 46, 95
2, 210240, Note_on_c, 0, 59, 95
2, 210240, Note_on_c, 0, 54, 95
2, 210240, Note_on_c, 0, 40, 95
2, 210325, Note_off_c, 0, 59, 95
2, 210325, Note_off_c, 0, 54, 95
2, 210325, Note_off_c, 0, 40, 95
2, 210720, Note_on_c, 0, 50, 95
2, 210720, Note_on_c, 0, 45, 95
2, 210720, Note_on_c, 0, 40, 95
2, 210805, Note_off_c, 0, 50, 95
2, 210805, Note_off_c, 0, 45, 95
2, 210805, Note_off_c, 0, 40, 95
2, 211200, Note_on_c, 0, 57, 95
2, 211200, Note_on_c, 0, 45, 95
2, 211200, Note_on_c, 0, 40, 95
2, 211285, Note_off_c, 0, 57, 95
2, 211285, Note_off_c, 0, 45, 95
2, 211285, Note_off_c, 0, 40, 95
2, 211680, Note_on_c, 0, 59, 95
2, 211680, Note_on_c, 0, 45, 95
2, 211680, Note_on_c, 0, 40, 95
2, 211765, Note_off_c, 0, 59, 95
2, 211765, Note_off_c, 0, 45, 95
2, 211765, Note_off_c, 0, 40, 95
2, 212160, Note_on_c, 0, 50, 95
2, 212160, Note_on_c, 0, 45, 95
2, 212160, Note_on_c, 0, 40, 95
2, 212245, Note_off_c, 0, 50, 95
2, 212245, Note_off_c, 0, 45, 95
2, 212245, Note_off_c, 0, 40, 95
2, 212640, Note_on_c, 0, 58, 95
2, 212640, Note_on_c, 0, 53, 95
2, 212640, Note_on_c, 0, 46, 95
2, 213120, Note_off_c, 0, 58, 95
2, 213120, Note_off_c, 0, 53, 95
2, 213120, Note_off_c, 0, 46, 95
2, 213120, Note_on_c, 0, 58, 95
2, 213120, Note_on_c, 0, 53, 95
2, 213120, Note_on_c, 0, 46, 95
2, 213600, Note_off_c, 0, 58, 95
2, 213600, Note_off_c, 0, 53, 95
2, 213600, Note_off_c, 0, 46, 95
2, 213600, Note_on_c, 0, 58, 95
2, 213600, Note_on_c, 0, 53, 95
2, 213600, Note_on_c, 0, 46, 95
2, 214080, Note_off_c, 0, 58, 95
2, 214080, Note_off_c, 0, 53, 95
2, 214080, Note_off_c, 0, 46, 95
2, 215040, Note_on_c, 0, 44, 95
2, 215044, Note_on_c, 0, 51, 95
2, 215048, Note_on_c, 0, 56, 95
2, 215520, Note_off_c, 0, 56, 95
2, 215520, Note_off_c, 0, 51, 95
2, 215520, Note_off_c, 0, 44, 95
2, 215520, Note_on_c, 0, 56, 95
2, 215524, Note_on_c, 0, 51, 95
2, 215528, Note_on_c, 0, 44, 95
2, 216000, Note_off_c, 0, 56, 95
2, 216000, Note_off_c, 0, 51, 95
2, 216000, Note_off_c, 0, 44, 95
2, 216000, Note_on_c, 0, 44, 95
2, 216004, Note_on_c, 0, 51, 95
2, 216008, Note_on_c, 0, 56, 95
2, 216480, Note_off_c, 0, 56, 95
2, 216480, Note_off_c, 0, 51, 95
2, 216480, Note_off_c, 0, 44, 95
2, 216480, Note_on_c, 0, 56, 95
2, 216484, Note_on_c, 0, 51, 95
2, 216488, Note_on_c, 0, 44, 95
2, 216960, Note_off_c, 0, 56, 95
2, 216960, Note_off_c, 0, 51, 95
2, 216960, Note_off_c, 0, 44, 95
2, 216960, Note_on_c, 0, 44, 95
2, 216962, Note_on_c, 0, 51, 95
2, 216964, Note_on_c, 0, 56, 95
2, 217200, Note_off_c, 0, 56, 95
2, 217200, Note_off_c, 0, 51, 95
2, 217200, Note_off_c, 0, 44, 95
2, 217920, Note_on_c, 0, 59, 95
2, 217920, Note_on_c, 0, 54, 95
2, 217920, Note_on_c, 0, 40, 95
2, 218005, Note_off_c, 0, 59, 95
2, 218005, Note_off_c, 0, 54, 95
2, 218005, Note_off_c, 0, 40, 95
2, 218400, Note_on_c, 0, 50, 95
2, 218400, Note_on_c, 0, 45, 95
2, 218400, Note_on_c, 0, 40, 95
2, 218485, Note_off_c, 0, 50, 95
2, 218485, Note_off_c, 0, 45, 95
2, 218485, Note_off_c, 0, 40, 95
2, 218880, Note_on_c, 0, 57, 95
2, 218880, Note_on_c, 0, 45, 95
2, 218880, Note_on_c, 0, 40, 95
2, 218965, Note_off_c, 0, 57, 95
2, 218965, Note_off_c, 0, 45, 95
2, 218965, Note_off_c, 0, 40, 95
2, 219360, Note_on_c, 0, 59, 95
2, 219360, Note_on_c, 0, 45, 95
2, 219360, Note_on_c, 0, 40, 95
2, 219445, Note_off_c, 0, 59, 95
2, 219445, Note_off_c, 0, 45, 95
2, 219445, Note_off_c, 0, 40, 95
2, 219840, Note_on_c, 0, 50, 95
2, 219840, Note_on_c, 0, 45, 95
2, 219840, Note_on_c, 0, 40, 95
2, 219925, Note_off_c, 0, 50, 95
2, 219925, Note_off_c, 0, 45, 95
2, 219925, Note_off_c, 0, 40, 95
2, 220320, Note_on_c, 0, 56, 95
2, 220320, Note_on_c, 0, 51, 95
2, 220320, Note_on_c, 0, 44, 95
2, 220800, Note_off_c, 0, 56, 95
2, 220800, Note_off_c, 0, 51, 95
2, 220800, Note_off_c, 0, 44, 95
2, 220800, Note_on_c, 0, 56, 95
2, 220800, Note_on_c, 0, 51, 95
2, 220800, Note_on_c, 0, 44, 95
2, 221280, Note_off_c, 0, 56, 95
2, 221280, Note_off_c, 0, 51, 95
2, 221280, Note_off_c, 0, 44, 95
2, 221280, Note_on_c, 0, 56, 95
2, 221280, Note_on_c, 0, 51, 95
2, 221280, Note_on_c, 0, 44, 95
2, 221760, Note_off_c, 0, 56, 95
2, 221760, Note_off_c, 0, 51, 95
2, 221760, Note_off_c, 0, 44, 95
2, 222720, Note_on_c, 0, 44, 95
2, 222724, Note_on_c, 0, 51, 95
2, 222728, Note_on_c, 0, 56, 95
2, 223200, Note_off_c, 0, 56, 95
2, 223200, Note_off_c, 0, 51, 95
2, 223200, Note_off_c, 0, 44, 95
2, 223200, Note_on_c, 0, 56, 95
2, 223204, Note_on_c, 0, 51, 95
2, 223208, Note_on_c, 0, 44, 95
2, 223680, Note_off_c, 0, 56, 95
2, 223680, Note_off_c, 0, 51, 95
2, 223680, Note_off_c, 0, 44, 95
2, 223680, Note_on_c, 0, 44, 95
2, 223684, Note_on_c, 0, 51, 95
2, 223688, Note_on_c, 0, 56, 95
2, 224160, Note_off_c, 0, 56, 95
2, 224160, Note_off_c, 0, 51, 95
2, 224160, Note_off_c, 0, 44, 95
2, 224160, Note_on_c, 0, 56, 95
2, 224164, Note_on_c, 0, 51, 95
2, 224168, Note_on_c, 0, 44, 95
2, 224640, Note_off_c, 0, 56, 95
2, 224640, Note_off_c, 0, 51, 95
2, 224640, Note_off_c, 0, 44, 95
2, 224640, Note_on_c, 0, 44, 95
2, 224642, Note_on_c, 0, 51, 95
2, 224644, Note_on_c, 0, 56, 95
2, 224880, Note_off_c, 0, 56, 95
2, 224880, Note_off_c, 0, 51, 95
2, 224880, Note_off_c, 0, 44, 95
2, 225600, Note_on_c, 0, 59, 95
2, 225600, Note_on_c, 0, 54, 95
2, 225600, Note_on_c, 0, 40, 95
2, 225685, Note_off_c, 0, 59, 95
2, 225685, Note_off_c, 0, 54, 95
2, 225685, Note_off_c, 0, 40, 95
2, 226080, Note_on_c, 0, 50, 95
2, 226080, Note_on_c, 0, 45, 95
2, 226080, Note_on_c, 0, 40, 95
2, 226165, Note_off_c, 0, 50, 95
2, 226165, Note_off_c, 0, 45, 95
2, 226165, Note_off_c, 0, 40, 95
2, 226560, Note_on_c, 0, 57, 95
2, 226560, Note_on_c, 0, 45, 95
2, 226560, Note_on_c, 0, 40, 95
2, 226645, Note_off_c, 0, 57, 95
2, 226645, Note_off_c, 0, 45, 95
2, 226645, Note_off_c, 0, 40, 95
2, 227040, Note_on_c, 0, 59, 95
2, 227040, Note_on_c, 0, 45, 95
2, 227040, Note_on_c, 0, 40, 95
2, 227125, Note_off_c, 0, 59, 95
2, 227125, Note_off_c, 0, 45, 95
2, 227125, Note_off_c, 0, 40, 95
2, 227520, Note_on_c, 0, 50, 95
2, 227520, Note_on_c, 0, 45, 95
2, 227520, Note_on_c, 0, 40, 95
2, 227605, Note_off_c, 0, 50, 95
2, 227605, Note_off_c, 0, 45, 95
2, 227605, Note_off_c, 0, 40, 95
2, 228000, Note_on_c, 0, 56, 95
2, 228000, Note_on_c, 0, 51, 95
2, 228000, Note_on_c, 0, 44, 95
2, 228480, Note_off_c, 0, 56, 95
2, 228480, Note_off_c, 0, 51, 95
2, 228480, Note_off_c, 0, 44, 95
2, 228480, Note_on_c, 0, 56, 95
2, 228480, Note_on_c, 0, 51, 95
2, 228480, Note_on_c, 0, 44, 95
2, 228960, Note_off_c, 0, 56, 95
2, 228960, Note_off_c, 0, 51, 95
2, 228960, Note_off_c, 0, 44, 95
2, 228960, Note_on_c, 0, 56, 95
2, 228960, Note_on_c, 0, 51, 95
2, 228960, Note_on_c, 0, 44, 95
2, 229440, Note_off_c, 0, 56, 95
2, 229440, Note_off_c, 0, 51, 95
2, 229440, Note_off_c, 0, 44, 95
2, 230400, Note_on_c, 0, 46, 95
2, 230404, Note_on_c, 0, 53, 95
2, 230408, Note_on_c, 0, 58, 95
2, 230880, Note_off_c, 0, 58, 95
2, 230880, Note_off_c, 0, 53, 95
2, 230880, Note_off_c, 0, 46, 95
2, 230880, Note_on_c, 0, 58, 95
2, 230884, Note_on_c, 0, 53, 95
2, 230888, Note_on_c, 0, 46, 95
2, 231360, Note_off_c, 0, 58, 95
2, 231360, Note_off_c, 0, 53, 95
2, 231360, Note_off_c, 0, 46, 95
2, 231360, Note_on_c, 0, 46, 95
2, 231364, Note_on_c, 0, 53, 95
2, 231368, Note_on_c, 0, 58, 95
2, 231840, Note_off_c, 0, 58, 95
2, 231840, Note_off_c, 0, 53, 95
2, 231840, Note_off_c, 0, 46, 95
2, 231840, Note_on_c, 0, 58, 95
2, 231844, Note_on_c, 0, 53, 95
2, 231848, Note_on_c, 0, 46, 95
2, 232320, Note_off_c, 0, 58, 95
2, 232320, Note_off_c, 0, 53, 95
2, 232320, Note_off_c, 0, 46, 95
2, 232320, Note_on_c, 0, 46, 95
2, 232322, Note_on_c, 0, 53, 95
2, 232324, Note_on_c, 0, 58, 95
2, 232560, Note_off_c, 0, 58, 95
2, 232560, Note_off_c, 0, 53, 95
2, 232560, Note_off_c, 0, 46, 95
2, 233280, Note_on_c, 0, 59, 95
2, 233280, Note_on_c, 0, 54, 95
2, 233280, Note_on_c, 0, 40, 95
2, 233365, Note_off_c, 0, 59, 95
2, 233365, Note_off_c, 0, 54, 95
2, 233365, Note_off_c, 0, 40, 95
2, 233760, Note_on_c, 0, 50, 95
2, 233760, Note_on_c, 0, 45, 95
2, 233760, Note_on_c, 0, 40, 95
2, 233845, Note_off_c, 0, 50, 95
2, 233845, Note_off_c, 0, 45, 95
2, 233845, Note_off_c, 0, 40, 95
2, 234240, Note_on_c, 0, 57, 95
2, 234240, Note_on_c, 0, 45, 95
2, 234240, Note_on_c, 0, 40, 95
2, 234325, Note_off_c, 0, 57, 95
2, 234325, Note_off_c, 0, 45, 95
2, 234325, Note_off_c, 0, 40, 95
2, 234720, Note_on_c, 0, 59, 95
2, 234720, Note_on_c, 0, 45, 95
2, 234720, Note_on_c, 0, 40, 95
2, 234805, Note_off_c, 0, 59, 95
2, 234805, Note_off_c, 0, 45, 95
2, 234805, Note_off_c, 0, 40, 95
2, 235200, Note_on_c, 0, 50, 95
2, 235200, Note_on_c, 0, 45, 95
2, 235200, Note_on_c, 0, 40, 95
2, 235285, Note_off_c, 0, 50, 95
2, 235285, Note_off_c, 0, 45, 95
2, 235285, Note_off_c, 0, 40, 95
2, 235680, Note_on_c, 0, 58, 95
2, 235680, Note_on_c, 0, 53, 95
2, 235680, Note_on_c, 0, 46, 95
2, 236160, Note_off_c, 0, 58, 95
2, 236160, Note_off_c, 0, 53, 95
2, 236160, Note_off_c, 0, 46, 95
2, 236160, Note_on_c, 0, 58, 95
2, 236160, Note_on_c, 0, 53, 95
2, 236160, Note_on_c, 0, 46, 95
2, 236640, Note_off_c, 0, 58, 95
2, 236640, Note_off_c, 0, 53, 95
2, 236640, Note_off_c, 0, 46, 95
2, 236640, Note_on_c, 0, 58, 95
2, 236640, Note_on_c, 0, 53, 95
2, 236640, Note_on_c, 0, 46, 95
2, 237120, Note_off_c, 0, 58, 95
2, 237120, Note_off_c, 0, 53, 95
2, 237120, Note_off_c, 0, 46, 95
2, 238080, Note_on_c, 0, 44, 95
2, 238084, Note_on_c, 0, 51, 95
2, 238088, Note_on_c, 0, 56, 95
2, 240000, Note_off_c, 0, 56, 95
2, 240000, Note_off_c, 0, 51, 95
2, 240000, Note_off_c, 0, 44, 95
2, 240000, Note_on_c, 0, 57, 95
2, 240000, Note_on_c, 0, 52, 95
2, 240000, Note_on_c, 0, 45, 95
2, 240085, Note_off_c, 0, 57, 95
2, 240085, Note_off_c, 0, 52, 95
2, 240085, Note_off_c, 0, 45, 95
2, 240240, Note_on_c, 0, 50, 95
2, 240240, Note_on_c, 0, 45, 95
2, 240240, Note_on_c, 0, 40, 95
2, 240325, Note_off_c, 0, 50, 95
2, 240325, Note_off_c, 0, 45, 95
2, 240325, Note_off_c, 0, 40, 95
2, 240960, Note_on_c, 0, 59, 95
2, 240960, Note_on_c, 0, 54, 95
2, 240960, Note_on_c, 0, 40, 95
2, 241045, Note_off_c, 0, 59, 95
2, 241045, Note_off_c, 0, 54, 95
2, 241045, Note_off_c, 0, 40, 95
2, 241440, Note_on_c, 0, 56, 95
2, 241440, Note_on_c, 0, 51, 95
2, 241440, Note_on_c, 0, 44, 95
2, 245760, Note_off_c, 0, 56, 95
2, 245760, Note_off_c, 0, 51, 95
2, 245760, Note_off_c, 0, 44, 95
2, 245760, Note_on_c, 0, 54, 95
2, 245760, Note_on_c, 0, 49, 95
2, 245760, Note_on_c, 0, 42, 95
2, 249600, Note_off_c, 0, 54, 95
2, 249600, Note_off_c, 0, 49, 95
2, 249600, Note_off_c, 0, 42, 95
2, 249600, Note_on_c, 0, 59, 95
2, 249600, Note_on_c, 0, 54, 95
2, 249600, Note_on_c, 0, 47, 95
2, 253440, Note_off_c, 0, 59, 95
2, 253440, Note_off_c, 0, 54, 95
2, 253440, Note_off_c, 0, 47, 95
2, 253440, Note_on_c, 0, 59, 95
2, 253440, Note_on_c, 0, 54, 95
2, 253440, Note_on_c, 0, 47, 95
2, 254880, Note_off_c, 0, 59, 95
2, 254880, Note_off_c, 0, 54, 95
2, 254880, Note_off_c, 0, 47, 95
2, 254880, Note_on_c, 0, 60, 95
2, 254880, Note_on_c, 0, 55, 95
2, 254880, Note_on_c, 0, 48, 95
2, 256320, Note_off_c, 0, 60, 95
2, 256320, Note_off_c, 0, 55, 95
2, 256320, Note_off_c, 0, 48, 95
2, 256320, Note_on_c, 0, 61, 95
2, 256320, Note_on_c, 0, 56, 95
2, 256320, Note_on_c, 0, 49, 95
2, 257280, Note_off_c, 0, 61, 95
2, 257280, Note_off_c, 0, 56, 95
2, 257280, Note_off_c, 0, 49, 95
2, 257280, Note_on_c, 0, 55, 127
2, 257280, Note_on_c, 0, 50, 127
2, 257280, Note_on_c, 0, 45, 127
2, 257365, Note_off_c, 0, 55, 127
2, 257365, Note_off_c, 0, 50, 127
2, 257365, Note_off_c, 0, 45, 127
2, 258240, Note_on_c, 0, 55, 95
2, 258240, Note_on_c, 0, 50, 95
2, 258325, Note_off_c, 0, 55, 95
2, 258325, Note_off_c, 0, 50, 95
2, 259200, Note_on_c, 0, 55, 95
2, 259200, Note_on_c, 0, 50, 95
2, 259200, Note_on_c, 0, 45, 95
2, 259285, Note_off_c, 0, 55, 95
2, 259285, Note_off_c, 0, 50, 95
2, 259285, Note_off_c, 0, 45, 95
2, 259680, Note_on_c, 0, 61, 95
2, 259680, Note_on_c, 0, 56, 95
2, 259680, Note_on_c, 0, 49, 95
2, 260160, Note_off_c, 0, 61, 95
2, 260160, Note_off_c, 0, 56, 95
2, 260160, Note_off_c, 0, 49, 95
2, 260640, Note_on_c, 0, 61, 95
2, 260640, Note_on_c, 0, 56, 95
2, 260640, Note_on_c, 0, 49, 95
2, 261120, Note_off_c, 0, 61, 95
2, 261120, Note_off_c, 0, 56, 95
2, 261120, Note_off_c, 0, 49, 95
2, 261120, Note_on_c, 0, 55, 95
2, 261120, Note_on_c, 0, 50, 95
2, 261120, Note_on_c, 0, 45, 95
2, 261205, Note_off_c, 0, 55, 95
2, 261205, Note_off_c, 0, 50, 95
2, 261205, Note_off_c, 0, 45, 95
2, 262080, Note_on_c, 0, 56, 95
2, 262080, Note_on_c, 0, 49, 95
2, 263040, Note_off_c, 0, 56, 95
2, 263040, Note_off_c, 0, 49, 95
2, 263040, Note_on_c, 0, 61, 95
2, 263040, Note_on_c, 0, 56, 95
2, 264000, Note_off_c, 0, 61, 95
2, 264000, Note_off_c, 0, 56, 95
2, 264000, Note_on_c, 0, 55, 95
2, 264000, Note_on_c, 0, 50, 95
2, 264000, Note_on_c, 0, 45, 95
2, 264085, Note_off_c, 0, 55, 95
2, 264085, Note_off_c, 0, 50, 95
2, 264085, Note_off_c, 0, 45, 95
2, 264960, Note_on_c, 0, 61, 95
2, 264960, Note_on_c, 0, 56, 95
2, 265920, Note_off_c, 0, 61, 95
2, 265920, Note_off_c, 0, 56, 95
2, 265920, Note_on_c, 0, 55, 95
2, 265920, Note_on_c, 0, 50, 95
2, 266005, Note_off_c, 0, 55, 95
2, 266005, Note_off_c, 0, 50, 95
2, 266880, Note_on_c, 0, 55, 95
2, 266880, Note_on_c, 0, 50, 95
2, 266880, Note_on_c, 0, 45, 95
2, 266965, Note_off_c, 0, 55, 95
2, 266965, Note_off_c, 0, 50, 95
2, 266965, Note_off_c, 0, 45, 95
2, 267360, Note_on_c, 0, 61, 95
2, 267360, Note_on_c, 0, 56, 95
2, 267360, Note_on_c, 0, 49, 95
2, 267840, Note_off_c, 0, 61, 95
2, 267840, Note_off_c, 0, 56, 95
2, 267840, Note_off_c, 0, 49, 95
2, 268320, Note_on_c, 0, 61, 95
2, 268320, Note_on_c, 0, 56, 95
2, 268320, Note_on_c, 0, 49, 95
2, 268800, Note_off_c, 0, 61, 95
2, 268800, Note_off_c, 0, 56, 95
2, 268800, Note_off_c, 0, 49, 95
2, 268800, Note_on_c, 0, 55, 127
2, 268800, Note_on_c, 0, 50, 127
2, 268800, Note_on_c, 0, 45, 127
2, 268885, Note_off_c, 0, 55, 127
2, 268885, Note_off_c, 0, 50, 127
2, 268885, Note_off_c, 0, 45, 127
2, 269760, Note_on_c, 0, 56, 95
2, 269760, Note_on_c, 0, 49, 95
2, 270720, Note_off_c, 0, 56, 95
2, 270720, Note_off_c, 0, 49, 95
2, 270720, Note_on_c, 0, 61, 95
2, 270720, Note_on_c, 0, 56, 95
2, 271680, Note_off_c, 0, 61, 95
2, 271680, Note_off_c, 0, 56, 95
2, 271680, Note_on_c, 0, 54, 95
2, 271680, Note_on_c, 0, 49, 95
2, 271680, Note_on_c, 0, 42, 95
2, 272640, Note_off_c, 0, 54, 95
2, 272640, Note_off_c, 0, 49, 95
2, 272640, Note_off_c, 0, 42, 95
2, 272640, Note_on_c, 0, 55, 127
2, 272640, Note_on_c, 0, 50, 127
2, 272640, Note_on_c, 0, 45, 127
2, 272725, Note_off_c, 0, 55, 127
2, 272725, Note_off_c, 0, 50, 127
2, 272725, Note_off_c, 0, 45, 127
2, 273600, Note_on_c, 0, 55, 95
2, 273600, Note_on_c, 0, 50, 95
2, 273685, Note_off_c, 0, 55, 95
2, 273685, Note_off_c, 0, 50, 95
2, 274560, Note_on_c, 0, 55, 95
2, 274560, Note_on_c, 0, 50, 95
2, 274560, Note_on_c, 0, 45, 95
2, 274645, Note_off_c, 0, 55, 95
2, 274645, Note_off_c, 0, 50, 95
2, 274645, Note_off_c, 0, 45, 95
2, 275040, Note_on_c, 0, 61, 95
2, 275040, Note_on_c, 0, 56, 95
2, 275040, Note_on_c, 0, 49, 95
2, 275520, Note_off_c, 0, 61, 95
2, 275520, Note_off_c, 0, 56, 95
2, 275520, Note_off_c, 0, 49, 95
2, 276000, Note_on_c, 0, 61, 95
2, 276000, Note_on_c, 0, 56, 95
2, 276000, Note_on_c, 0, 49, 95
2, 276480, Note_off_c, 0, 61, 95
2, 276480, Note_off_c, 0, 56, 95
2, 276480, Note_off_c, 0, 49, 95
2, 276480, Note_on_c, 0, 55, 95
2, 276480, Note_on_c, 0, 50, 95
2, 276480, Note_on_c, 0, 45, 95
2, 276565, Note_off_c, 0, 55, 95
2, 276565, Note_off_c, 0, 50, 95
2, 276565, Note_off_c, 0, 45, 95
2, 277440, Note_on_c, 0, 56, 95
2, 277440, Note_on_c, 0, 49, 95
2, 278400, Note_off_c, 0, 56, 95
2, 278400, Note_off_c, 0, 49, 95
2, 278400, Note_on_c, 0, 61, 95
2, 278400, Note_on_c, 0, 56, 95
2, 279360, Note_off_c, 0, 61, 95
2, 279360, Note_off_c, 0, 56, 95
2, 279360, Note_on_c, 0, 55, 95
2, 279360, Note_on_c, 0, 50, 95
2, 279360, Note_on_c, 0, 45, 95
2, 279445, Note_off_c, 0, 55, 95
2, 279445, Note_off_c, 0, 50, 95
2, 279445, Note_off_c, 0, 45, 95
2, 280320, Note_on_c, 0, 61, 95
2, 280320, Note_on_c, 0, 56, 95
2, 281280, Note_off_c, 0, 61, 95
2, 281280, Note_off_c, 0, 56, 95
2, 281280, Note_on_c, 0, 55, 95
2, 281280, Note_on_c, 0, 50, 95
2, 281365, Note_off_c, 0, 55, 95
2, 281365, Note_off_c, 0, 50, 95
2, 282240, Note_on_c, 0, 55, 95
2, 282240, Note_on_c, 0, 50, 95
2, 282240, Note_on_c, 0, 45, 95
2, 282325, Note_off_c, 0, 55, 95
2, 282325, Note_off_c, 0, 50, 95
2, 282325, Note_off_c, 0, 45, 95
2, 282720, Note_on_c, 0, 61, 95
2, 282720, Note_on_c, 0, 56, 95
2, 282720, Note_on_c, 0, 49, 95
2, 283200, Note_off_c, 0, 61, 95
2, 283200, Note_off_c, 0, 56, 95
2, 283200, Note_off_c, 0, 49, 95
2, 283680, Note_on_c, 0, 61, 95
2, 283680, Note_on_c, 0, 56, 95
2, 283680, Note_on_c, 0, 49, 95
2, 284160, Note_off_c, 0, 61, 95
2, 284160, Note_off_c, 0, 56, 95
2, 284160, Note_off_c, 0, 49, 95
2, 284160, Note_on_c, 0, 55, 127
2, 284160, Note_on_c, 0, 50, 127
2, 284160, Note_on_c, 0, 45, 127
2, 284245, Note_off_c, 0, 55, 127
2, 284245, Note_off_c, 0, 50, 127
2, 284245, Note_off_c, 0, 45, 127
2, 285120, Note_on_c, 0, 56, 95
2, 285120, Note_on_c, 0, 49, 95
2, 286080, Note_off_c, 0, 56, 95
2, 286080, Note_off_c, 0, 49, 95
2, 286080, Note_on_c, 0, 61, 95
2, 286080, Note_on_c, 0, 56, 95
2, 287040, Note_off_c, 0, 61, 95
2, 287040, Note_off_c, 0, 56, 95
2, 287040, Note_on_c, 0, 54, 95
2, 287040, Note_on_c, 0, 49, 95
2, 287040, Note_on_c, 0, 42, 95
2, 288000, Note_off_c, 0, 54, 95
2, 288000, Note_off_c, 0, 49, 95
2, 288000, Note_off_c, 0, 42, 95
2, 288000, End_track
3, 0, Start_track
3, 0, Pitch_bend_c, 2, 8192
3, 0, Control_c, 2, 7, 79
3, 0, Control_c, 2, 10, 31
3, 0, Control_c, 2, 93, 0
3, 0, Control_c, 2, 91, 0
3, 0, Control_c, 2, 95, 0
3, 0, Control_c, 2, 92, 0
3, 0, Control_c, 2, 11, 127
3, 0, Program_c, 2, 25
3, 0, Control_c, 3, 7, 79
3, 0, Control_c, 3, 10, 31
3, 0, Control_c, 3, 93, 0
3, 0, Control_c, 3, 91, 0
3, 0, Control_c, 3, 95, 0
3, 0, Control_c, 3, 92, 0
3, 0, Control_c, 3, 11, 127
3, 0, Program_c, 3, 25
3, 26880, Note_on_c, 2, 59, 95
3, 26880, Note_on_c, 2, 54, 95
3, 26880, Note_on_c, 2, 47, 95
3, 28320, Note_off_c, 2, 59, 95
3, 28320, Note_off_c, 2, 54, 95
3, 28320, Note_off_c, 2, 47, 95
3, 28320, Note_on_c, 2, 60, 95
3, 28320, Note_on_c, 2, 55, 95
3, 28320, Note_on_c, 2, 48, 95
3, 29760, Note_off_c, 2, 60, 95
3, 29760, Note_off_c, 2, 55, 95
3, 29760, Note_off_c, 2, 48, 95
3, 29760, Note_on_c, 2, 61, 95
3, 29760, Note_on_c, 2, 56, 95
3, 29760, Note_on_c, 2, 49, 95
3, 30720, Note_off_c, 2, 61, 95
3, 30720, Note_off_c, 2, 56, 95
3, 30720, Note_off_c, 2, 49, 95
3, 30720, Note_on_c, 2, 55, 127
3, 30720, Note_on_c, 2, 50, 127
3, 30720, Note_on_c, 2, 45, 127
3, 30805, Note_off_c, 2, 55, 127
3, 30805, Note_off_c, 2, 50, 127
3, 30805, Note_off_c, 2, 45, 127
3, 31680, Note_on_c, 2, 55, 95
3, 31680, Note_on_c, 2, 50, 95
3, 31765, Note_off_c, 2, 55, 95
3, 31765, Note_off_c, 2, 50, 95
3, 32640, Note_on_c, 2, 55, 95
3, 32640, Note_on_c, 2, 50, 95
3, 32640, Note_on_c, 2, 45, 95
3, 32725, Note_off_c, 2, 55, 95
3, 32725, Note_off_c, 2, 50, 95
3, 32725, Note_off_c, 2, 45, 95
3, 33120, Note_on_c, 2, 61, 95
3, 33120, Note_on_c, 2, 56, 95
3, 33120, Note_on_c, 2, 49, 95
3, 33600, Note_off_c, 2, 61, 95
3, 33600, Note_off_c, 2, 56, 95
3, 33600, Note_off_c, 2, 49, 95
3, 34080, Note_on_c, 2, 61, 95
3, 34080, Note_on_c, 2, 56, 95
3, 34080, Note_on_c, 2, 49, 95
3, 34560, Note_off_c, 2, 61, 95
3, 34560, Note_off_c, 2, 56, 95
3, 34560, Note_off_c, 2, 49, 95
3, 34560, Note_on_c, 2, 55, 95
3, 34560, Note_on_c, 2, 54, 95
3, 34560, Note_on_c, 2, 49, 95
3, 34645, Note_off_c, 2, 55, 95
3, 34645, Note_off_c, 2, 54, 95
3, 34645, Note_off_c, 2, 49, 95
3, 35520, Note_on_c, 2, 64, 95
3, 35520, Note_on_c, 2, 59, 95
3, 35520, Note_on_c, 2, 55, 95
3, 35605, Note_off_c, 2, 64, 95
3, 35605, Note_off_c, 2, 59, 95
3, 35605, Note_off_c, 2, 55, 95
3, 36000, Note_on_c, 2, 66, 111
3, 36000, Note_on_c, 2, 61, 111
3, 36480, Note_off_c, 2, 66, 111
3, 36480, Note_off_c, 2, 61, 111
3, 36480, Note_on_c, 2, 68, 86
3, 36960, Note_off_c, 2, 68, 86
3, 36960, Note_on_c, 2, 66, 86
3, 36960, Note_on_c, 2, 61, 86
3, 37440, Note_off_c, 2, 66, 86
3, 37440, Note_off_c, 2, 61, 86
3, 37440, Note_on_c, 2, 54, 95
3, 37440, Note_on_c, 2, 49, 95
3, 38400, Note_off_c, 2, 54, 95
3, 38400, Note_off_c, 2, 49, 95
3, 38400, Note_on_c, 2, 55, 127
3, 38400, Note_on_c, 2, 50, 127
3, 38400, Note_on_c, 2, 45, 127
3, 38485, Note_off_c, 2, 55, 127
3, 38485, Note_off_c, 2, 50, 127
3, 38485, Note_off_c, 2, 45, 127
3, 39360, Note_on_c, 2, 55, 95
3, 39360, Note_on_c, 2, 50, 95
3, 39445, Note_off_c, 2, 55, 95
3, 39445, Note_off_c, 2, 50, 95
3, 40320, Note_on_c, 2, 55, 95
3, 40320, Note_on_c, 2, 50, 95
3, 40320, Note_on_c, 2, 45, 95
3, 40405, Note_off_c, 2, 55, 95
3, 40405, Note_off_c, 2, 50, 95
3, 40405, Note_off_c, 2, 45, 95
3, 40800, Note_on_c, 2, 61, 95
3, 40800, Note_on_c, 2, 56, 95
3, 40800, Note_on_c, 2, 49, 95
3, 41280, Note_off_c, 2, 61, 95
3, 41280, Note_off_c, 2, 56, 95
3, 41280, Note_off_c, 2, 49, 95
3, 41760, Note_on_c, 2, 61, 95
3, 41760, Note_on_c, 2, 56, 95
3, 41760, Note_on_c, 2, 49, 95
3, 42240, Note_off_c, 2, 61, 95
3, 42240, Note_off_c, 2, 56, 95
3, 42240, Note_off_c, 2, 49, 95
3, 42240, Note_on_c, 2, 55, 127
3, 42240, Note_on_c, 2, 50, 127
3, 42240, Note_on_c, 2, 45, 127
3, 42325, Note_off_c, 2, 55, 127
3, 42325, Note_off_c, 2, 50, 127
3, 42325, Note_off_c, 2, 45, 127
3, 43200, Note_on_c, 2, 56, 95
3, 43200, Note_on_c, 2, 49, 95
3, 44160, Note_off_c, 2, 56, 95
3, 44160, Note_off_c, 2, 49, 95
3, 44160, Note_on_c, 2, 61, 95
3, 44160, Note_on_c, 2, 56, 95
3, 45120, Note_off_c, 2, 61, 95
3, 45120, Note_off_c, 2, 56, 95
3, 45120, Note_on_c, 2, 55, 95
3, 45120, Note_on_c, 2, 54, 95
3, 45120, Note_on_c, 2, 49, 95
3, 45120, Note_on_c, 2, 42, 95
3, 45205, Note_off_c, 2, 55, 95
3, 46080, Note_off_c, 2, 54, 95
3, 46080, Note_off_c, 2, 49, 95
3, 46080, Note_off_c, 2, 42, 95
3, 46080, Note_on_c, 2, 54, 95
3, 46080, Note_on_c, 2, 49, 95
3, 46080, Note_on_c, 2, 42, 95
3, 47040, Note_off_c, 2, 54, 95
3, 47040, Note_off_c, 2, 49, 95
3, 47040, Note_off_c, 2, 42, 95
3, 47040, Note_on_c, 2, 64, 95
3, 47040, Note_on_c, 2, 59, 95
3, 47040, Note_on_c, 2, 55, 95
3, 47125, Note_off_c, 2, 64, 95
3, 47125, Note_off_c, 2, 59, 95
3, 47125, Note_off_c, 2, 55, 95
3, 47520, Note_on_c, 2, 66, 111
3, 47520, Note_on_c, 2, 61, 111
3, 48000, Note_off_c, 2, 66, 111
3, 48000, Note_off_c, 2, 61, 111
3, 48000, Note_on_c, 2, 68, 86
3, 48480, Note_off_c, 2, 68, 86
3, 48480, Note_on_c, 2, 66, 86
3, 48480, Note_on_c, 2, 61, 86
3, 48960, Note_off_c, 2, 66, 86
3, 48960, Note_off_c, 2, 61, 86
3, 48960, Note_on_c, 2, 54, 95
3, 48960, Note_on_c, 2, 49, 95
3, 49920, Note_off_c, 2, 54, 95
3, 49920, Note_off_c, 2, 49, 95
3, 50400, Note_on_c, 2, 61, 95
3, 50400, Note_on_c, 2, 56, 95
3, 50880, Note_off_c, 2, 61, 95
3, 50880, Note_off_c, 2, 56, 95
3, 50880, Note_on_c, 2, 58, 70
3, 51360, Note_off_c, 2, 58, 70
3, 51360, Note_on_c, 2, 61, 95
3, 51360, Note_on_c, 2, 56, 70
3, 51840, Note_off_c, 2, 61, 95
3, 51840, Note_off_c, 2, 56, 70
3, 51840, Note_on_c, 2, 58, 70
3, 52320, Note_off_c, 2, 58, 70
3, 52320, Note_on_c, 2, 61, 95
3, 52320, Note_on_c, 2, 56, 70
3, 52800, Note_off_c, 2, 61, 95
3, 52800, Note_off_c, 2, 56, 70
3, 52800, Note_on_c, 2, 59, 70
3, 52800, Note_on_c, 2, 54, 70
3, 53760, Note_off_c, 2, 54, 70
3, 53760, Note_on_c, 2, 54, 95
3, 53760, Note_on_c, 2, 49, 95
3, 54720, Note_off_c, 2, 59, 70
3, 54720, Note_off_c, 2, 54, 95
3, 54720, Note_off_c, 2, 49, 95
3, 54720, Note_on_c, 2, 54, 95
3, 54720, Note_on_c, 2, 49, 95
3, 55200, Note_off_c, 2, 54, 95
3, 55200, Note_off_c, 2, 49, 95
3, 55200, Note_on_c, 2, 54, 95
3, 55200, Note_on_c, 2, 51, 70
3, 55680, Note_off_c, 2, 54, 95
3, 55680, Note_off_c, 2, 51, 70
3, 55680, Note_on_c, 2, 59, 95
3, 55680, Note_on_c, 2, 54, 95
3, 56160, Note_off_c, 2, 59, 95
3, 56160, Note_off_c, 2, 54, 95
3, 56160, Note_on_c, 2, 54, 95
3, 56160, Note_on_c, 2, 51, 95
3, 56640, Note_off_c, 2, 54, 95
3, 56640, Note_off_c, 2, 51, 95
3, 56640, Note_on_c, 2, 59, 95
3, 56640, Note_on_c, 2, 54, 70
3, 57600, Note_off_c, 2, 59, 95
3, 57600, Note_off_c, 2, 54, 70
3, 57600, Note_on_c, 2, 59, 95
3, 57600, Note_on_c, 2, 54, 95
3, 57600, Note_on_c, 2, 47, 95
3, 59040, Note_off_c, 2, 59, 95
3, 59040, Note_off_c, 2, 54, 95
3, 59040, Note_off_c, 2, 47, 95
3, 59040, Note_on_c, 2, 60, 95
3, 59040, Note_on_c, 2, 55, 95
3, 59040, Note_on_c, 2, 48, 95
3, 60480, Note_off_c, 2, 60, 95
3, 60480, Note_off_c, 2, 55, 95
3, 60480, Note_off_c, 2, 48, 95
3, 60480, Note_on_c, 2, 61, 95
3, 60480, Note_on_c, 2, 56, 95
3, 60480, Note_on_c, 2, 49, 95
3, 61440, Note_off_c, 2, 61, 95
3, 61440, Note_off_c, 2, 56, 95
3, 61440, Note_off_c, 2, 49, 95
3, 61440, Note_on_c, 2, 55, 127
3, 61440, Note_on_c, 2, 50, 127
3, 61440, Note_on_c, 2, 45, 127
3, 61525, Note_off_c, 2, 55, 127
3, 61525, Note_off_c, 2, 50, 127
3, 61525, Note_off_c, 2, 45, 127
3, 62400, Note_on_c, 2, 55, 95
3, 62400, Note_on_c, 2, 50, 95
3, 62485, Note_off_c, 2, 55, 95
3, 62485, Note_off_c, 2, 50, 95
3, 63360, Note_on_c, 2, 55, 95
3, 63360, Note_on_c, 2, 50, 95
3, 63360, Note_on_c, 2, 45, 95
3, 63445, Note_off_c, 2, 55, 95
3, 63445, Note_off_c, 2, 50, 95
3, 63445, Note_off_c, 2, 45, 95
3, 63840, Note_on_c, 2, 61, 95
3, 63840, Note_on_c, 2, 56, 95
3, 63840, Note_on_c, 2, 49, 95
3, 64320, Note_off_c, 2, 61, 95
3, 64320, Note_off_c, 2, 56, 95
3, 64320, Note_off_c, 2, 49, 95
3, 64800, Note_on_c, 2, 61, 95
3, 64800, Note_on_c, 2, 56, 95
3, 64800, Note_on_c, 2, 49, 95
3, 65280, Note_off_c, 2, 61, 95
3, 65280, Note_off_c, 2, 56, 95
3, 65280, Note_off_c, 2, 49, 95
3, 65280, Note_on_c, 2, 55, 127
3, 65280, Note_on_c, 2, 50, 127
3, 65280, Note_on_c, 2, 45, 127
3, 65365, Note_off_c, 2, 55, 127
3, 65365, Note_off_c, 2, 50, 127
3, 65365, Note_off_c, 2, 45, 127
3, 66240, Note_on_c, 2, 56, 95
3, 66240, Note_on_c, 2, 49, 95
3, 67200, Note_off_c, 2, 56, 95
3, 67200, Note_off_c, 2, 49, 95
3, 67200, Note_on_c, 2, 61, 95
3, 67200, Note_on_c, 2, 56, 95
3, 68160, Note_off_c, 2, 61, 95
3, 68160, Note_off_c, 2, 56, 95
3, 68160, Note_on_c, 2, 55, 95
3, 68160, Note_on_c, 2, 50, 95
3, 68160, Note_on_c, 2, 45, 95
3, 68245, Note_off_c, 2, 55, 95
3, 68245, Note_off_c, 2, 50, 95
3, 68245, Note_off_c, 2, 45, 95
3, 69120, Note_on_c, 2, 55, 127
3, 69120, Note_on_c, 2, 50, 127
3, 69120, Note_on_c, 2, 45, 127
3, 69205, Note_off_c, 2, 55, 127
3, 69205, Note_off_c, 2, 50, 127
3, 69205, Note_off_c, 2, 45, 127
3, 70080, Note_on_c, 2, 55, 95
3, 70080, Note_on_c, 2, 50, 95
3, 70165, Note_off_c, 2, 55, 95
3, 70165, Note_off_c, 2, 50, 95
3, 71040, Note_on_c, 2, 55, 95
3, 71040, Note_on_c, 2, 50, 95
3, 71040, Note_on_c, 2, 45, 95
3, 71125, Note_off_c, 2, 55, 95
3, 71125, Note_off_c, 2, 50, 95
3, 71125, Note_off_c, 2, 45, 95
3, 71520, Note_on_c, 2, 61, 95
3, 71520, Note_on_c, 2, 56, 95
3, 71520, Note_on_c, 2, 49, 95
3, 72000, Note_off_c, 2, 61, 95
3, 72000, Note_off_c, 2, 56, 95
3, 72000, Note_off_c, 2, 49, 95
3, 72480, Note_on_c, 2, 61, 95
3, 72480, Note_on_c, 2, 56, 95
3, 72480, Note_on_c, 2, 49, 95
3, 72960, Note_off_c, 2, 61, 95
3, 72960, Note_off_c, 2, 56, 95
3, 72960, Note_off_c, 2, 49, 95
3, 72960, Note_on_c, 2, 55, 127
3, 72960, Note_on_c, 2, 50, 127
3, 72960, Note_on_c, 2, 45, 127
3, 73045, Note_off_c, 2, 55, 127
3, 73045, Note_off_c, 2, 50, 127
3, 73045, Note_off_c, 2, 45, 127
3, 73920, Note_on_c, 2, 56, 95
3, 73920, Note_on_c, 2, 49, 95
3, 74880, Note_off_c, 2, 56, 95
3, 74880, Note_off_c, 2, 49, 95
3, 74880, Note_on_c, 2, 61, 95
3, 74880, Note_on_c, 2, 56, 95
3, 75840, Note_off_c, 2, 61, 95
3, 75840, Note_off_c, 2, 56, 95
3, 75840, Note_on_c, 2, 55, 95
3, 75840, Note_on_c, 2, 50, 95
3, 75840, Note_on_c, 2, 45, 95
3, 75925, Note_off_c, 2, 55, 95
3, 75925, Note_off_c, 2, 50, 95
3, 75925, Note_off_c, 2, 45, 95
3, 76800, Note_on_c, 2, 54, 95
3, 76800, Note_on_c, 2, 49, 95
3, 76800, Note_on_c, 2, 42, 95
3, 77760, Note_off_c, 2, 54, 95
3, 77760, Note_off_c, 2, 49, 95
3, 77760, Note_off_c, 2, 42, 95
3, 77760, Note_on_c, 2, 64, 95
3, 77760, Note_on_c, 2, 59, 95
3, 77760, Note_on_c, 2, 55, 95
3, 77845, Note_off_c, 2, 64, 95
3, 77845, Note_off_c, 2, 59, 95
3, 77845, Note_off_c, 2, 55, 95
3, 78240, Note_on_c, 2, 66, 111
3, 78240, Note_on_c, 2, 61, 111
3, 78720, Note_off_c, 2, 66, 111
3, 78720, Note_off_c, 2, 61, 111
3, 78720, Note_on_c, 2, 68, 86
3, 78720, Note_on_c, 2, 63, 70
3, 79200, Note_off_c, 2, 68, 86
3, 79200, Note_off_c, 2, 63, 70
3, 79200, Note_on_c, 2, 66, 86
3, 79200, Note_on_c, 2, 61, 111
3, 79680, Note_off_c, 2, 66, 86
3, 79680, Note_off_c, 2, 61, 111
3, 79680, Note_on_c, 2, 54, 95
3, 79680, Note_on_c, 2, 49, 95
3, 80640, Note_off_c, 2, 54, 95
3, 80640, Note_off_c, 2, 49, 95
3, 81120, Note_on_c, 2, 61, 95
3, 81120, Note_on_c, 2, 56, 95
3, 81600, Note_off_c, 2, 61, 95
3, 81600, Note_off_c, 2, 56, 95
3, 81600, Note_on_c, 2, 58, 70
3, 82080, Note_off_c, 2, 58, 70
3, 82080, Note_on_c, 2, 61, 95
3, 82080, Note_on_c, 2, 56, 70
3, 82560, Note_off_c, 2, 61, 95
3, 82560, Note_off_c, 2, 56, 70
3, 82560, Note_on_c, 2, 58, 70
3, 83040, Note_off_c, 2, 58, 70
3, 83040, Note_on_c, 2, 61, 95
3, 83040, Note_on_c, 2, 56, 70
3, 83520, Note_off_c, 2, 61, 95
3, 83520, Note_off_c, 2, 56, 70
3, 83520, Note_on_c, 2, 59, 70
3, 83520, Note_on_c, 2, 54, 70
3, 84480, Note_on_c, 2, 49, 95
3, 85440, Note_off_c, 2, 59, 70
3, 85440, Note_off_c, 2, 54, 70
3, 85440, Note_off_c, 2, 49, 95
3, 85440, Note_on_c, 2, 54, 95
3, 85440, Note_on_c, 2, 49, 95
3, 85920, Note_off_c, 2, 54, 95
3, 85920, Note_off_c, 2, 49, 95
3, 85920, Note_on_c, 2, 54, 95
3, 85920, Note_on_c, 2, 51, 70
3, 86400, Note_off_c, 2, 54, 95
3, 86400, Note_off_c, 2, 51, 70
3, 86400, Note_on_c, 2, 59, 95
3, 86400, Note_on_c, 2, 54, 95
3, 86880, Note_off_c, 2, 59, 95
3, 86880, Note_off_c, 2, 54, 95
3, 86880, Note_on_c, 2, 54, 95
3, 86880, Note_on_c, 2, 51, 95
3, 87360, Note_off_c, 2, 54, 95
3, 87360, Note_off_c, 2, 51, 95
3, 87360, Note_on_c, 2, 59, 95
3, 87360, Note_on_c, 2, 54, 70
3, 87840, Note_off_c, 2, 59, 95
3, 87840, Note_off_c, 2, 54, 70
3, 87840, Note_on_c, 2, 56, 70
3, 88320, Note_off_c, 2, 56, 70
3, 88320, Note_on_c, 2, 59, 95
3, 88320, Note_on_c, 2, 54, 95
3, 89280, Note_on_c, 2, 51, 95
3, 89760, Note_off_c, 2, 51, 95
3, 89760, Note_on_c, 2, 51, 95
3, 90240, Note_off_c, 2, 51, 95
3, 90240, Note_on_c, 2, 49, 95
3, 90720, Note_off_c, 2, 49, 95
3, 90720, Note_on_c, 2, 51, 95
3, 91200, Note_off_c, 2, 59, 95
3, 91200, Note_off_c, 2, 54, 95
3, 91200, Note_off_c, 2, 51, 95
3, 91200, Note_on_c, 2, 46, 95
3, 91680, Note_off_c, 2, 46, 95
3, 91680, Note_on_c, 2, 44, 95
3, 92160, Note_off_c, 2, 44, 95
3, 92160, Note_on_c, 2, 54, 95
3, 92160, Note_on_c, 2, 49, 95
3, 92160, Note_on_c, 2, 42, 95
3, 93120, Note_off_c, 2, 54, 95
3, 93120, Note_off_c, 2, 49, 95
3, 93120, Note_off_c, 2, 42, 95
3, 93120, Note_on_c, 2, 64, 95
3, 93120, Note_on_c, 2, 59, 95
3, 93120, Note_on_c, 2, 55, 95
3, 93205, Note_off_c, 2, 64, 95
3, 93205, Note_off_c, 2, 59, 95
3, 93205, Note_off_c, 2, 55, 95
3, 93600, Note_on_c, 2, 66, 111
3, 93600, Note_on_c, 2, 61, 111
3, 94080, Note_off_c, 2, 66, 111
3, 94080, Note_off_c, 2, 61, 111
3, 94080, Note_on_c, 2, 68, 86
3, 94080, Note_on_c, 2, 63, 70
3, 94560, Note_off_c, 2, 68, 86
3, 94560, Note_off_c, 2, 63, 70
3, 94560, Note_on_c, 2, 66, 86
3, 94560, Note_on_c, 2, 61, 111
3, 95040, Note_off_c, 2, 66, 86
3, 95040, Note_off_c, 2, 61, 111
3, 95040, Note_on_c, 2, 54, 95
3, 95040, Note_on_c, 2, 49, 95
3, 96000, Note_off_c, 2, 54, 95
3, 96000, Note_off_c, 2, 49, 95
3, 96480, Note_on_c, 2, 61, 95
3, 96480, Note_on_c, 2, 56, 95
3, 96960, Note_off_c, 2, 61, 95
3, 96960, Note_off_c, 2, 56, 95
3, 96960, Note_on_c, 2, 58, 70
3, 97440, Note_off_c, 2, 58, 70
3, 97440, Note_on_c, 2, 61, 95
3, 97440, Note_on_c, 2, 56, 70
3, 97920, Note_off_c, 2, 61, 95
3, 97920, Note_off_c, 2, 56, 70
3, 97920, Note_on_c, 2, 58, 70
3, 98400, Note_off_c, 2, 58, 70
3, 98400, Note_on_c, 2, 61, 95
3, 98400, Note_on_c, 2, 56, 70
3, 98880, Note_off_c, 2, 61, 95
3, 98880, Note_off_c, 2, 56, 70
3, 98880, Note_on_c, 2, 59, 70
3, 98880, Note_on_c, 2, 54, 70
3, 99840, Note_on_c, 2, 49, 95
3, 100800, Note_off_c, 2, 59, 70
3, 100800, Note_off_c, 2, 54, 70
3, 100800, Note_off_c, 2, 49, 95
3, 100800, Note_on_c, 2, 54, 95
3, 100800, Note_on_c, 2, 49, 95
3, 101280, Note_off_c, 2, 54, 95
3, 101280, Note_off_c, 2, 49, 95
3, 101280, Note_on_c, 2, 54, 95
3, 101280, Note_on_c, 2, 51, 70
3, 101760, Note_off_c, 2, 54, 95
3, 101760, Note_off_c, 2, 51, 70
3, 101760, Note_on_c, 2, 59, 95
3, 101760, Note_on_c, 2, 54, 95
3, 102240, Note_off_c, 2, 59, 95
3, 102240, Note_off_c, 2, 54, 95
3, 102240, Note_on_c, 2, 54, 95
3, 102240, Note_on_c, 2, 51, 95
3, 102720, Note_off_c, 2, 54, 95
3, 102720, Note_off_c, 2, 51, 95
3, 102720, Note_on_c, 2, 59, 95
3, 102720, Note_on_c, 2, 54, 70
3, 103200, Note_off_c, 2, 59, 95
3, 103200, Note_off_c, 2, 54, 70
3, 103200, Note_on_c, 2, 56, 70
3, 103680, Note_off_c, 2, 56, 70
3, 103680, Note_on_c, 2, 59, 95
3, 103680, Note_on_c, 2, 54, 95
3, 103680, Note_on_c, 2, 47, 95
3, 105120, Note_off_c, 2, 59, 95
3, 105120, Note_off_c, 2, 54, 95
3, 105120, Note_off_c, 2, 47, 95
3, 105120, Note_on_c, 2, 60, 95
3, 105120, Note_on_c, 2, 55, 95
3, 105120, Note_on_c, 2, 48, 95
3, 106560, Note_off_c, 2, 60, 95
3, 106560, Note_off_c, 2, 55, 95
3, 106560, Note_off_c, 2, 48, 95
3, 106560, Note_on_c, 2, 61, 95
3, 106560, Note_on_c, 2, 56, 95
3, 106560, Note_on_c, 2, 49, 95
3, 107520, Note_off_c, 2, 61, 95
3, 107520, Note_off_c, 2, 56, 95
3, 107520, Note_off_c, 2, 49, 95
3, 107520, Note_on_c, 2, 55, 127
3, 107520, Note_on_c, 2, 50, 127
3, 107520, Note_on_c, 2, 45, 127
3, 107605, Note_off_c, 2, 55, 127
3, 107605, Note_off_c, 2, 50, 127
3, 107605, Note_off_c, 2, 45, 127
3, 108480, Note_on_c, 2, 55, 95
3, 108480, Note_on_c, 2, 50, 95
3, 108565, Note_off_c, 2, 55, 95
3, 108565, Note_off_c, 2, 50, 95
3, 109440, Note_on_c, 2, 55, 95
3, 109440, Note_on_c, 2, 50, 95
3, 109440, Note_on_c, 2, 45, 95
3, 109525, Note_off_c, 2, 55, 95
3, 109525, Note_off_c, 2, 50, 95
3, 109525, Note_off_c, 2, 45, 95
3, 109920, Note_on_c, 2, 61, 95
3, 109920, Note_on_c, 2, 56, 95
3, 109920, Note_on_c, 2, 49, 95
3, 110400, Note_off_c, 2, 61, 95
3, 110400, Note_off_c, 2, 56, 95
3, 110400, Note_off_c, 2, 49, 95
3, 110880, Note_on_c, 2, 61, 95
3, 110880, Note_on_c, 2, 56, 95
3, 110880, Note_on_c, 2, 49, 95
3, 111360, Note_off_c, 2, 61, 95
3, 111360, Note_off_c, 2, 56, 95
3, 111360, Note_off_c, 2, 49, 95
3, 111360, Note_on_c, 2, 55, 127
3, 111360, Note_on_c, 2, 50, 127
3, 111360, Note_on_c, 2, 45, 127
3, 111445, Note_off_c, 2, 55, 127
3, 111445, Note_off_c, 2, 50, 127
3, 111445, Note_off_c, 2, 45, 127
3, 112320, Note_on_c, 2, 56, 95
3, 112320, Note_on_c, 2, 49, 95
3, 113280, Note_off_c, 2, 56, 95
3, 113280, Note_off_c, 2, 49, 95
3, 113280, Note_on_c, 2, 61, 95
3, 113280, Note_on_c, 2, 56, 95
3, 114240, Note_off_c, 2, 61, 95
3, 114240, Note_off_c, 2, 56, 95
3, 114240, Note_on_c, 2, 55, 95
3, 114240, Note_on_c, 2, 50, 95
3, 114240, Note_on_c, 2, 45, 95
3, 114325, Note_off_c, 2, 55, 95
3, 114325, Note_off_c, 2, 50, 95
3, 114325, Note_off_c, 2, 45, 95
3, 115200, Note_on_c, 2, 55, 127
3, 115200, Note_on_c, 2, 50, 127
3, 115200, Note_on_c, 2, 45, 127
3, 115285, Note_off_c, 2, 55, 127
3, 115285, Note_off_c, 2, 50, 127
3, 115285, Note_off_c, 2, 45, 127
3, 116160, Note_on_c, 2, 55, 95
3, 116160, Note_on_c, 2, 50, 95
3, 116245, Note_off_c, 2, 55, 95
3, 116245, Note_off_c, 2, 50, 95
3, 117120, Note_on_c, 2, 55, 95
3, 117120, Note_on_c, 2, 50, 95
3, 117120, Note_on_c, 2, 45, 95
3, 117205, Note_off_c, 2, 55, 95
3, 117205, Note_off_c, 2, 50, 95
3, 117205, Note_off_c, 2, 45, 95
3, 117600, Note_on_c, 2, 61, 95
3, 117600, Note_on_c, 2, 56, 95
3, 117600, Note_on_c, 2, 49, 95
3, 118080, Note_off_c, 2, 61, 95
3, 118080, Note_off_c, 2, 56, 95
3, 118080, Note_off_c, 2, 49, 95
3, 118560, Note_on_c, 2, 61, 95
3, 118560, Note_on_c, 2, 56, 95
3, 118560, Note_on_c, 2, 49, 95
3, 119040, Note_off_c, 2, 61, 95
3, 119040, Note_off_c, 2, 56, 95
3, 119040, Note_off_c, 2, 49, 95
3, 119040, Note_on_c, 2, 55, 127
3, 119040, Note_on_c, 2, 50, 127
3, 119040, Note_on_c, 2, 45, 127
3, 119125, Note_off_c, 2, 55, 127
3, 119125, Note_off_c, 2, 50, 127
3, 119125, Note_off_c, 2, 45, 127
3, 120000, Note_on_c, 2, 56, 95
3, 120000, Note_on_c, 2, 49, 95
3, 120960, Note_off_c, 2, 56, 95
3, 120960, Note_off_c, 2, 49, 95
3, 120960, Note_on_c, 2, 61, 95
3, 120960, Note_on_c, 2, 56, 95
3, 121920, Note_off_c, 2, 61, 95
3, 121920, Note_off_c, 2, 56, 95
3, 121920, Note_on_c, 2, 55, 95
3, 121920, Note_on_c, 2, 50, 95
3, 121920, Note_on_c, 2, 45, 95
3, 122005, Note_off_c, 2, 55, 95
3, 122005, Note_off_c, 2, 50, 95
3, 122005, Note_off_c, 2, 45, 95
3, 122880, Note_on_c, 2, 54, 95
3, 122880, Note_on_c, 2, 49, 95
3, 122880, Note_on_c, 2, 42, 95
3, 123840, Note_off_c, 2, 54, 95
3, 123840, Note_off_c, 2, 49, 95
3, 123840, Note_off_c, 2, 42, 95
3, 123840, Note_on_c, 2, 64, 95
3, 123840, Note_on_c, 2, 59, 95
3, 123840, Note_on_c, 2, 55, 95
3, 123925, Note_off_c, 2, 64, 95
3, 123925, Note_off_c, 2, 59, 95
3, 123925, Note_off_c, 2, 55, 95
3, 124320, Note_on_c, 2, 66, 111
3, 124320, Note_on_c, 2, 61, 111
3, 124800, Note_off_c, 2, 66, 111
3, 124800, Note_off_c, 2, 61, 111
3, 124800, Note_on_c, 2, 68, 86
3, 124800, Note_on_c, 2, 63, 70
3, 125280, Note_off_c, 2, 68, 86
3, 125280, Note_off_c, 2, 63, 70
3, 125280, Note_on_c, 2, 66, 86
3, 125280, Note_on_c, 2, 61, 111
3, 125760, Note_off_c, 2, 66, 86
3, 125760, Note_off_c, 2, 61, 111
3, 125760, Note_on_c, 2, 54, 95
3, 125760, Note_on_c, 2, 49, 95
3, 126720, Note_off_c, 2, 54, 95
3, 126720, Note_off_c, 2, 49, 95
3, 127200, Note_on_c, 2, 61, 95
3, 127200, Note_on_c, 2, 56, 95
3, 127680, Note_off_c, 2, 61, 95
3, 127680, Note_off_c, 2, 56, 95
3, 127680, Note_on_c, 2, 58, 70
3, 128160, Note_off_c, 2, 58, 70
3, 128160, Note_on_c, 2, 61, 95
3, 128160, Note_on_c, 2, 56, 70
3, 128640, Note_off_c, 2, 61, 95
3, 128640, Note_off_c, 2, 56, 70
3, 128640, Note_on_c, 2, 58, 70
3, 129120, Note_off_c, 2, 58, 70
3, 129120, Note_on_c, 2, 61, 95
3, 129120, Note_on_c, 2, 56, 70
3, 129600, Note_off_c, 2, 61, 95
3, 129600, Note_off_c, 2, 56, 70
3, 129600, Note_on_c, 2, 59, 70
3, 129600, Note_on_c, 2, 54, 70
3, 130560, Note_on_c, 2, 49, 95
3, 131520, Note_off_c, 2, 59, 70
3, 131520, Note_off_c, 2, 54, 70
3, 131520, Note_off_c, 2, 49, 95
3, 131520, Note_on_c, 2, 54, 95
3, 131520, Note_on_c, 2, 49, 95
3, 132000, Note_off_c, 2, 54, 95
3, 132000, Note_off_c, 2, 49, 95
3, 132000, Note_on_c, 2, 54, 95
3, 132000, Note_on_c, 2, 51, 70
3, 132480, Note_off_c, 2, 54, 95
3, 132480, Note_off_c, 2, 51, 70
3, 132480, Note_on_c, 2, 59, 95
3, 132480, Note_on_c, 2, 54, 95
3, 132960, Note_off_c, 2, 59, 95
3, 132960, Note_off_c, 2, 54, 95
3, 132960, Note_on_c, 2, 54, 95
3, 132960, Note_on_c, 2, 51, 95
3, 133440, Note_off_c, 2, 54, 95
3, 133440, Note_off_c, 2, 51, 95
3, 133440, Note_on_c, 2, 59, 95
3, 133440, Note_on_c, 2, 54, 70
3, 133920, Note_off_c, 2, 59, 95
3, 133920, Note_off_c, 2, 54, 70
3, 133920, Note_on_c, 2, 56, 70
3, 134400, Note_off_c, 2, 56, 70
3, 134400, Note_on_c, 2, 59, 95
3, 134400, Note_on_c, 2, 54, 95
3, 134400, Note_on_c, 2, 47, 95
3, 135840, Note_off_c, 2, 59, 95
3, 135840, Note_off_c, 2, 54, 95
3, 135840, Note_off_c, 2, 47, 95
3, 135840, Note_on_c, 2, 60, 95
3, 135840, Note_on_c, 2, 55, 95
3, 135840, Note_on_c, 2, 48, 95
3, 137280, Note_off_c, 2, 60, 95
3, 137280, Note_off_c, 2, 55, 95
3, 137280, Note_off_c, 2, 48, 95
3, 137280, Note_on_c, 2, 61, 95
3, 137280, Note_on_c, 2, 56, 95
3, 137280, Note_on_c, 2, 49, 95
3, 138240, Note_off_c, 2, 61, 95
3, 138240, Note_off_c, 2, 56, 95
3, 138240, Note_off_c, 2, 49, 95
3, 138240, Note_on_c, 2, 55, 127
3, 138240, Note_on_c, 2, 50, 127
3, 138240, Note_on_c, 2, 45, 127
3, 138325, Note_off_c, 2, 55, 127
3, 138325, Note_off_c, 2, 50, 127
3, 138325, Note_off_c, 2, 45, 127
3, 139200, Note_on_c, 2, 55, 95
3, 139200, Note_on_c, 2, 50, 95
3, 139285, Note_off_c, 2, 55, 95
3, 139285, Note_off_c, 2, 50, 95
3, 140160, Note_on_c, 2, 55, 95
3, 140160, Note_on_c, 2, 50, 95
3, 140160, Note_on_c, 2, 45, 95
3, 140245, Note_off_c, 2, 55, 95
3, 140245, Note_off_c, 2, 50, 95
3, 140245, Note_off_c, 2, 45, 95
3, 140640, Note_on_c, 2, 61, 95
3, 140640, Note_on_c, 2, 56, 95
3, 140640, Note_on_c, 2, 49, 95
3, 141120, Note_off_c, 2, 61, 95
3, 141120, Note_off_c, 2, 56, 95
3, 141120, Note_off_c, 2, 49, 95
3, 141600, Note_on_c, 2, 61, 95
3, 141600, Note_on_c, 2, 56, 95
3, 141600, Note_on_c, 2, 49, 95
3, 142080, Note_off_c, 2, 61, 95
3, 142080, Note_off_c, 2, 56, 95
3, 142080, Note_off_c, 2, 49, 95
3, 142080, Note_on_c, 2, 55, 127
3, 142080, Note_on_c, 2, 50, 127
3, 142080, Note_on_c, 2, 45, 127
3, 142165, Note_off_c, 2, 55, 127
3, 142165, Note_off_c, 2, 50, 127
3, 142165, Note_off_c, 2, 45, 127
3, 143040, Note_on_c, 2, 56, 95
3, 143040, Note_on_c, 2, 49, 95
3, 144000, Note_off_c, 2, 56, 95
3, 144000, Note_off_c, 2, 49, 95
3, 144000, Note_on_c, 2, 61, 95
3, 144000, Note_on_c, 2, 56, 95
3, 144960, Note_off_c, 2, 61, 95
3, 144960, Note_off_c, 2, 56, 95
3, 144960, Note_on_c, 2, 55, 95
3, 144960, Note_on_c, 2, 50, 95
3, 144960, Note_on_c, 2, 45, 95
3, 145045, Note_off_c, 2, 55, 95
3, 145045, Note_off_c, 2, 50, 95
3, 145045, Note_off_c, 2, 45, 95
3, 145920, Note_on_c, 2, 55, 127
3, 145920, Note_on_c, 2, 50, 127
3, 145920, Note_on_c, 2, 45, 127
3, 146005, Note_off_c, 2, 55, 127
3, 146005, Note_off_c, 2, 50, 127
3, 146005, Note_off_c, 2, 45, 127
3, 146880, Note_on_c, 2, 55, 95
3, 146880, Note_on_c, 2, 50, 95
3, 146965, Note_off_c, 2, 55, 95
3, 146965, Note_off_c, 2, 50, 95
3, 147840, Note_on_c, 2, 55, 95
3, 147840, Note_on_c, 2, 50, 95
3, 147840, Note_on_c, 2, 45, 95
3, 147925, Note_off_c, 2, 55, 95
3, 147925, Note_off_c, 2, 50, 95
3, 147925, Note_off_c, 2, 45, 95
3, 148320, Note_on_c, 2, 61, 95
3, 148320, Note_on_c, 2, 56, 95
3, 148320, Note_on_c, 2, 49, 95
3, 148800, Note_off_c, 2, 61, 95
3, 148800, Note_off_c, 2, 56, 95
3, 148800, Note_off_c, 2, 49, 95
3, 149280, Note_on_c, 2, 61, 95
3, 149280, Note_on_c, 2, 56, 95
3, 149280, Note_on_c, 2, 49, 95
3, 149760, Note_off_c, 2, 61, 95
3, 149760, Note_off_c, 2, 56, 95
3, 149760, Note_off_c, 2, 49, 95
3, 149760, Note_on_c, 2, 55, 127
3, 149760, Note_on_c, 2, 50, 127
3, 149760, Note_on_c, 2, 45, 127
3, 149845, Note_off_c, 2, 55, 127
3, 149845, Note_off_c, 2, 50, 127
3, 149845, Note_off_c, 2, 45, 127
3, 150720, Note_on_c, 2, 56, 95
3, 150720, Note_on_c, 2, 49, 95
3, 151680, Note_off_c, 2, 56, 95
3, 151680, Note_off_c, 2, 49, 95
3, 151680, Note_on_c, 2, 61, 95
3, 151680, Note_on_c, 2, 56, 95
3, 152640, Note_off_c, 2, 61, 95
3, 152640, Note_off_c, 2, 56, 95
3, 152640, Note_on_c, 2, 55, 95
3, 152640, Note_on_c, 2, 50, 95
3, 152640, Note_on_c, 2, 45, 95
3, 152725, Note_off_c, 2, 55, 95
3, 152725, Note_off_c, 2, 50, 95
3, 152725, Note_off_c, 2, 45, 95
3, 153600, Note_on_c, 2, 54, 95
3, 153600, Note_on_c, 2, 49, 95
3, 153600, Note_on_c, 2, 42, 95
3, 154560, Note_off_c, 2, 54, 95
3, 154560, Note_off_c, 2, 49, 95
3, 154560, Note_off_c, 2, 42, 95
3, 154560, Note_on_c, 2, 64, 95
3, 154560, Note_on_c, 2, 59, 95
3, 154560, Note_on_c, 2, 55, 95
3, 154645, Note_off_c, 2, 64, 95
3, 154645, Note_off_c, 2, 59, 95
3, 154645, Note_off_c, 2, 55, 95
3, 155040, Note_on_c, 2, 66, 111
3, 155040, Note_on_c, 2, 61, 111
3, 155520, Note_off_c, 2, 66, 111
3, 155520, Note_off_c, 2, 61, 111
3, 155520, Note_on_c, 2, 68, 86
3, 155520, Note_on_c, 2, 63, 70
3, 156000, Note_off_c, 2, 68, 86
3, 156000, Note_off_c, 2, 63, 70
3, 156000, Note_on_c, 2, 66, 86
3, 156000, Note_on_c, 2, 61, 111
3, 156480, Note_off_c, 2, 66, 86
3, 156480, Note_off_c, 2, 61, 111
3, 156480, Note_on_c, 2, 54, 95
3, 156480, Note_on_c, 2, 49, 95
3, 157440, Note_off_c, 2, 54, 95
3, 157440, Note_off_c, 2, 49, 95
3, 157920, Note_on_c, 2, 61, 95
3, 157920, Note_on_c, 2, 56, 95
3, 158400, Note_off_c, 2, 61, 95
3, 158400, Note_off_c, 2, 56, 95
3, 158400, Note_on_c, 2, 58, 70
3, 158880, Note_off_c, 2, 58, 70
3, 158880, Note_on_c, 2, 61, 95
3, 158880, Note_on_c, 2, 56, 70
3, 159360, Note_off_c, 2, 61, 95
3, 159360, Note_off_c, 2, 56, 70
3, 159360, Note_on_c, 2, 58, 70
3, 159840, Note_off_c, 2, 58, 70
3, 159840, Note_on_c, 2, 61, 95
3, 159840, Note_on_c, 2, 56, 70
3, 160320, Note_off_c, 2, 61, 95
3, 160320, Note_off_c, 2, 56, 70
3, 160320, Note_on_c, 2, 59, 70
3, 160320, Note_on_c, 2, 54, 70
3, 161280, Note_on_c, 2, 49, 95
3, 162240, Note_off_c, 2, 59, 70
3, 162240, Note_off_c, 2, 54, 70
3, 162240, Note_off_c, 2, 49, 95
3, 162240, Note_on_c, 2, 54, 95
3, 162240, Note_on_c, 2, 49, 95
3, 162720, Note_off_c, 2, 54, 95
3, 162720, Note_off_c, 2, 49, 95
3, 162720, Note_on_c, 2, 54, 95
3, 162720, Note_on_c, 2, 51, 70
3, 163200, Note_off_c, 2, 54, 95
3, 163200, Note_off_c, 2, 51, 70
3, 163200, Note_on_c, 2, 59, 95
3, 163200, Note_on_c, 2, 54, 95
3, 163680, Note_off_c, 2, 59, 95
3, 163680, Note_off_c, 2, 54, 95
3, 163680, Note_on_c, 2, 54, 95
3, 163680, Note_on_c, 2, 51, 95
3, 164160, Note_off_c, 2, 54, 95
3, 164160, Note_off_c, 2, 51, 95
3, 164160, Note_on_c, 2, 59, 95
3, 164160, Note_on_c, 2, 54, 70
3, 164640, Note_off_c, 2, 59, 95
3, 164640, Note_off_c, 2, 54, 70
3, 164640, Note_on_c, 2, 54, 70
3, 165120, Note_off_c, 2, 54, 70
3, 165120, Note_on_c, 2, 54, 95
3, 165600, Note_off_c, 2, 54, 95
3, 165600, Note_on_c, 2, 59, 95
3, 165600, Note_on_c, 2, 54, 95
3, 165600, Note_on_c, 2, 47, 95
3, 166080, Note_off_c, 2, 59, 95
3, 166080, Note_off_c, 2, 54, 95
3, 166080, Note_off_c, 2, 47, 95
3, 166080, Note_on_c, 2, 60, 95
3, 166080, Note_on_c, 2, 55, 95
3, 166080, Note_on_c, 2, 48, 95
3, 167520, Note_off_c, 2, 60, 95
3, 167520, Note_off_c, 2, 55, 95
3, 167520, Note_off_c, 2, 48, 95
3, 167520, Note_on_c, 2, 60, 95
3, 167520, Note_on_c, 2, 55, 95
3, 167520, Note_on_c, 2, 48, 95
3, 168000, Note_off_c, 2, 60, 95
3, 168000, Note_off_c, 2, 55, 95
3, 168000, Note_off_c, 2, 48, 95
3, 168000, Note_on_c, 2, 61, 95
3, 168000, Note_on_c, 2, 56, 95
3, 168000, Note_on_c, 2, 49, 95
3, 168960, Note_off_c, 2, 61, 95
3, 168960, Note_off_c, 2, 56, 95
3, 168960, Note_off_c, 2, 49, 95
3, 168960, Note_on_c, 2, 46, 95
3, 168964, Note_on_c, 2, 53, 95
3, 168968, Note_on_c, 2, 58, 95
3, 169440, Note_off_c, 2, 58, 95
3, 169440, Note_off_c, 2, 53, 95
3, 169440, Note_off_c, 2, 46, 95
3, 169440, Note_on_c, 2, 58, 95
3, 169444, Note_on_c, 2, 53, 95
3, 169448, Note_on_c, 2, 46, 95
3, 169920, Note_off_c, 2, 58, 95
3, 169920, Note_off_c, 2, 53, 95
3, 169920, Note_off_c, 2, 46, 95
3, 169920, Note_on_c, 2, 46, 95
3, 169924, Note_on_c, 2, 53, 95
3, 169928, Note_on_c, 2, 58, 95
3, 170400, Note_off_c, 2, 58, 95
3, 170400, Note_off_c, 2, 53, 95
3, 170400, Note_off_c, 2, 46, 95
3, 170400, Note_on_c, 2, 58, 95
3, 170404, Note_on_c, 2, 53, 95
3, 170408, Note_on_c, 2, 46, 95
3, 170880, Note_off_c, 2, 58, 95
3, 170880, Note_off_c, 2, 53, 95
3, 170880, Note_off_c, 2, 46, 95
3, 170880, Note_on_c, 2, 46, 95
3, 170882, Note_on_c, 2, 53, 95
3, 170884, Note_on_c, 2, 58, 95
3, 171120, Note_off_c, 2, 58, 95
3, 171120, Note_off_c, 2, 53, 95
3, 171120, Note_off_c, 2, 46, 95
3, 171840, Note_on_c, 2, 59, 95
3, 171840, Note_on_c, 2, 54, 95
3, 171840, Note_on_c, 2, 40, 95
3, 171925, Note_off_c, 2, 59, 95
3, 171925, Note_off_c, 2, 54, 95
3, 171925, Note_off_c, 2, 40, 95
3, 172320, Note_on_c, 2, 50, 95
3, 172320, Note_on_c, 2, 45, 95
3, 172320, Note_on_c, 2, 40, 95
3, 172405, Note_off_c, 2, 50, 95
3, 172405, Note_off_c, 2, 45, 95
3, 172405, Note_off_c, 2, 40, 95
3, 172800, Note_on_c, 2, 57, 95
3, 172800, Note_on_c, 2, 45, 95
3, 172800, Note_on_c, 2, 40, 95
3, 172885, Note_off_c, 2, 57, 95
3, 172885, Note_off_c, 2, 45, 95
3, 172885, Note_off_c, 2, 40, 95
3, 173280, Note_on_c, 2, 59, 95
3, 173280, Note_on_c, 2, 45, 95
3, 173280, Note_on_c, 2, 40, 95
3, 173365, Note_off_c, 2, 59, 95
3, 173365, Note_off_c, 2, 45, 95
3, 173365, Note_off_c, 2, 40, 95
3, 173760, Note_on_c, 2, 50, 95
3, 173760, Note_on_c, 2, 45, 95
3, 173760, Note_on_c, 2, 40, 95
3, 173845, Note_off_c, 2, 50, 95
3, 173845, Note_off_c, 2, 45, 95
3, 173845, Note_off_c, 2, 40, 95
3, 174240, Note_on_c, 2, 58, 95
3, 174240, Note_on_c, 2, 53, 95
3, 174240, Note_on_c, 2, 46, 95
3, 174720, Note_off_c, 2, 58, 95
3, 174720, Note_off_c, 2, 53, 95
3, 174720, Note_off_c, 2, 46, 95
3, 174720, Note_on_c, 2, 58, 95
3, 174720, Note_on_c, 2, 53, 95
3, 174720, Note_on_c, 2, 46, 95
3, 175200, Note_off_c, 2, 58, 95
3, 175200, Note_off_c, 2, 53, 95
3, 175200, Note_off_c, 2, 46, 95
3, 175200, Note_on_c, 2, 58, 95
3, 175200, Note_on_c, 2, 53, 95
3, 175200, Note_on_c, 2, 46, 95
3, 175680, Note_off_c, 2, 58, 95
3, 175680, Note_off_c, 2, 53, 95
3, 175680, Note_off_c, 2, 46, 95
3, 176640, Note_on_c, 2, 46, 95
3, 176644, Note_on_c, 2, 53, 95
3, 176648, Note_on_c, 2, 58, 95
3, 177120, Note_off_c, 2, 58, 95
3, 177120, Note_off_c, 2, 53, 95
3, 177120, Note_off_c, 2, 46, 95
3, 177120, Note_on_c, 2, 58, 95
3, 177124, Note_on_c, 2, 53, 95
3, 177128, Note_on_c, 2, 46, 95
3, 177600, Note_off_c, 2, 58, 95
3, 177600, Note_off_c, 2, 53, 95
3, 177600, Note_off_c, 2, 46, 95
3, 177600, Note_on_c, 2, 46, 95
3, 177604, Note_on_c, 2, 53, 95
3, 177608, Note_on_c, 2, 58, 95
3, 178080, Note_off_c, 2, 58, 95
3, 178080, Note_off_c, 2, 53, 95
3, 178080, Note_off_c, 2, 46, 95
3, 178080, Note_on_c, 2, 58, 95
3, 178084, Note_on_c, 2, 53, 95
3, 178088, Note_on_c, 2, 46, 95
3, 178560, Note_off_c, 2, 58, 95
3, 178560, Note_off_c, 2, 53, 95
3, 178560, Note_off_c, 2, 46, 95
3, 178560, Note_on_c, 2, 46, 95
3, 178562, Note_on_c, 2, 53, 95
3, 178564, Note_on_c, 2, 58, 95
3, 178800, Note_off_c, 2, 58, 95
3, 178800, Note_off_c, 2, 53, 95
3, 178800, Note_off_c, 2, 46, 95
3, 179520, Note_on_c, 2, 59, 95
3, 179520, Note_on_c, 2, 54, 95
3, 179520, Note_on_c, 2, 40, 95
3, 179605, Note_off_c, 2, 59, 95
3, 179605, Note_off_c, 2, 54, 95
3, 179605, Note_off_c, 2, 40, 95
3, 180000, Note_on_c, 2, 50, 95
3, 180000, Note_on_c, 2, 45, 95
3, 180000, Note_on_c, 2, 40, 95
3, 180085, Note_off_c, 2, 50, 95
3, 180085, Note_off_c, 2, 45, 95
3, 180085, Note_off_c, 2, 40, 95
3, 180480, Note_on_c, 2, 57, 95
3, 180480, Note_on_c, 2, 45, 95
3, 180480, Note_on_c, 2, 40, 95
3, 180565, Note_off_c, 2, 57, 95
3, 180565, Note_off_c, 2, 45, 95
3, 180565, Note_off_c, 2, 40, 95
3, 180960, Note_on_c, 2, 59, 95
3, 180960, Note_on_c, 2, 45, 95
3, 180960, Note_on_c, 2, 40, 95
3, 181045, Note_off_c, 2, 59, 95
3, 181045, Note_off_c, 2, 45, 95
3, 181045, Note_off_c, 2, 40, 95
3, 181440, Note_on_c, 2, 50, 95
3, 181440, Note_on_c, 2, 45, 95
3, 181440, Note_on_c, 2, 40, 95
3, 181525, Note_off_c, 2, 50, 95
3, 181525, Note_off_c, 2, 45, 95
3, 181525, Note_off_c, 2, 40, 95
3, 181920, Note_on_c, 2, 58, 95
3, 181920, Note_on_c, 2, 53, 95
3, 181920, Note_on_c, 2, 46, 95
3, 182400, Note_off_c, 2, 58, 95
3, 182400, Note_off_c, 2, 53, 95
3, 182400, Note_off_c, 2, 46, 95
3, 182400, Note_on_c, 2, 58, 95
3, 182400, Note_on_c, 2, 53, 95
3, 182400, Note_on_c, 2, 46, 95
3, 182880, Note_off_c, 2, 58, 95
3, 182880, Note_off_c, 2, 53, 95
3, 182880, Note_off_c, 2, 46, 95
3, 182880, Note_on_c, 2, 58, 95
3, 182880, Note_on_c, 2, 53, 95
3, 182880, Note_on_c, 2, 46, 95
3, 183360, Note_off_c, 2, 58, 95
3, 183360, Note_off_c, 2, 53, 95
3, 183360, Note_off_c, 2, 46, 95
3, 184320, Note_on_c, 2, 44, 95
3, 184324, Note_on_c, 2, 51, 95
3, 184328, Note_on_c, 2, 56, 95
3, 184800, Note_off_c, 2, 56, 95
3, 184800, Note_off_c, 2, 51, 95
3, 184800, Note_off_c, 2, 44, 95
3, 184800, Note_on_c, 2, 56, 95
3, 184804, Note_on_c, 2, 51, 95
3, 184808, Note_on_c, 2, 44, 95
3, 185280, Note_off_c, 2, 56, 95
3, 185280, Note_off_c, 2, 51, 95
3, 185280, Note_off_c, 2, 44, 95
3, 185280, Note_on_c, 2, 44, 95
3, 185284, Note_on_c, 2, 51, 95
3, 185288, Note_on_c, 2, 56, 95
3, 185760, Note_off_c, 2, 56, 95
3, 185760, Note_off_c, 2, 51, 95
3, 185760, Note_off_c, 2, 44, 95
3, 185760, Note_on_c, 2, 56, 95
3, 185764, Note_on_c, 2, 51, 95
3, 185768, Note_on_c, 2, 44, 95
3, 186240, Note_off_c, 2, 56, 95
3, 186240, Note_off_c, 2, 51, 95
3, 186240, Note_off_c, 2, 44, 95
3, 186240, Note_on_c, 2, 44, 95
3, 186242, Note_on_c, 2, 51, 95
3, 186244, Note_on_c, 2, 56, 95
3, 186480, Note_off_c, 2, 56, 95
3, 186480, Note_off_c, 2, 51, 95
3, 186480, Note_off_c, 2, 44, 95
3, 187200, Note_on_c, 2, 59, 95
3, 187200, Note_on_c, 2, 54, 95
3, 187200, Note_on_c, 2, 40, 95
3, 187285, Note_off_c, 2, 59, 95
3, 187285, Note_off_c, 2, 54, 95
3, 187285, Note_off_c, 2, 40, 95
3, 187680, Note_on_c, 2, 50, 95
3, 187680, Note_on_c, 2, 45, 95
3, 187680, Note_on_c, 2, 40, 95
3, 187765, Note_off_c, 2, 50, 95
3, 187765, Note_off_c, 2, 45, 95
3, 187765, Note_off_c, 2, 40, 95
3, 188160, Note_on_c, 2, 57, 95
3, 188160, Note_on_c, 2, 45, 95
3, 188160, Note_on_c, 2, 40, 95
3, 188245, Note_off_c, 2, 57, 95
3, 188245, Note_off_c, 2, 45, 95
3, 188245, Note_off_c, 2, 40, 95
3, 188640, Note_on_c, 2, 59, 95
3, 188640, Note_on_c, 2, 45, 95
3, 188640, Note_on_c, 2, 40, 95
3, 188725, Note_off_c, 2, 59, 95
3, 188725, Note_off_c, 2, 45, 95
3, 188725, Note_off_c, 2, 40, 95
3, 189120, Note_on_c, 2, 50, 95
3, 189120, Note_on_c, 2, 45, 95
3, 189120, Note_on_c, 2, 40, 95
3, 189205, Note_off_c, 2, 50, 95
3, 189205, Note_off_c, 2, 45, 95
3, 189205, Note_off_c, 2, 40, 95
3, 189600, Note_on_c, 2, 56, 95
3, 189600, Note_on_c, 2, 51, 95
3, 189600, Note_on_c, 2, 44, 95
3, 190080, Note_off_c, 2, 56, 95
3, 190080, Note_off_c, 2, 51, 95
3, 190080, Note_off_c, 2, 44, 95
3, 190080, Note_on_c, 2, 56, 95
3, 190080, Note_on_c, 2, 51, 95
3, 190080, Note_on_c, 2, 44, 95
3, 190560, Note_off_c, 2, 56, 95
3, 190560, Note_off_c, 2, 51, 95
3, 190560, Note_off_c, 2, 44, 95
3, 190560, Note_on_c, 2, 56, 95
3, 190560, Note_on_c, 2, 51, 95
3, 190560, Note_on_c, 2, 44, 95
3, 191040, Note_off_c, 2, 56, 95
3, 191040, Note_off_c, 2, 51, 95
3, 191040, Note_off_c, 2, 44, 95
3, 192000, Note_on_c, 2, 44, 95
3, 192004, Note_on_c, 2, 51, 95
3, 192008, Note_on_c, 2, 56, 95
3, 192480, Note_off_c, 2, 56, 95
3, 192480, Note_off_c, 2, 51, 95
3, 192480, Note_off_c, 2, 44, 95
3, 192480, Note_on_c, 2, 56, 95
3, 192484, Note_on_c, 2, 51, 95
3, 192488, Note_on_c, 2, 44, 95
3, 192960, Note_off_c, 2, 56, 95
3, 192960, Note_off_c, 2, 51, 95
3, 192960, Note_off_c, 2, 44, 95
3, 192960, Note_on_c, 2, 44, 95
3, 192964, Note_on_c, 2, 51, 95
3, 192968, Note_on_c, 2, 56, 95
3, 193440, Note_off_c, 2, 56, 95
3, 193440, Note_off_c, 2, 51, 95
3, 193440, Note_off_c, 2, 44, 95
3, 193440, Note_on_c, 2, 56, 95
3, 193444, Note_on_c, 2, 51, 95
3, 193448, Note_on_c, 2, 44, 95
3, 193920, Note_off_c, 2, 56, 95
3, 193920, Note_off_c, 2, 51, 95
3, 193920, Note_off_c, 2, 44, 95
3, 193920, Note_on_c, 2, 44, 95
3, 193922, Note_on_c, 2, 51, 95
3, 193924, Note_on_c, 2, 56, 95
3, 194160, Note_off_c, 2, 56, 95
3, 194160, Note_off_c, 2, 51, 95
3, 194160, Note_off_c, 2, 44, 95
3, 194880, Note_on_c, 2, 59, 95
3, 194880, Note_on_c, 2, 54, 95
3, 194880, Note_on_c, 2, 40, 95
3, 194965, Note_off_c, 2, 59, 95
3, 194965, Note_off_c, 2, 54, 95
3, 194965, Note_off_c, 2, 40, 95
3, 195360, Note_on_c, 2, 50, 95
3, 195360, Note_on_c, 2, 45, 95
3, 195360, Note_on_c, 2, 40, 95
3, 195445, Note_off_c, 2, 50, 95
3, 195445, Note_off_c, 2, 45, 95
3, 195445, Note_off_c, 2, 40, 95
3, 195840, Note_on_c, 2, 57, 95
3, 195840, Note_on_c, 2, 45, 95
3, 195840, Note_on_c, 2, 40, 95
3, 195925, Note_off_c, 2, 57, 95
3, 195925, Note_off_c, 2, 45, 95
3, 195925, Note_off_c, 2, 40, 95
3, 196320, Note_on_c, 2, 59, 95
3, 196320, Note_on_c, 2, 45, 95
3, 196320, Note_on_c, 2, 40, 95
3, 196405, Note_off_c, 2, 59, 95
3, 196405, Note_off_c, 2, 45, 95
3, 196405, Note_off_c, 2, 40, 95
3, 196800, Note_on_c, 2, 50, 95
3, 196800, Note_on_c, 2, 45, 95
3, 196800, Note_on_c, 2, 40, 95
3, 196885, Note_off_c, 2, 50, 95
3, 196885, Note_off_c, 2, 45, 95
3, 196885, Note_off_c, 2, 40, 95
3, 197280, Note_on_c, 2, 56, 95
3, 197280, Note_on_c, 2, 51, 95
3, 197280, Note_on_c, 2, 44, 95
3, 197760, Note_off_c, 2, 56, 95
3, 197760, Note_off_c, 2, 51, 95
3, 197760, Note_off_c, 2, 44, 95
3, 197760, Note_on_c, 2, 56, 95
3, 197760, Note_on_c, 2, 51, 95
3, 197760, Note_on_c, 2, 44, 95
3, 198240, Note_off_c, 2, 56, 95
3, 198240, Note_off_c, 2, 51, 95
3, 198240, Note_off_c, 2, 44, 95
3, 198240, Note_on_c, 2, 56, 95
3, 198240, Note_on_c, 2, 51, 95
3, 198240, Note_on_c, 2, 44, 95
3, 198720, Note_off_c, 2, 56, 95
3, 198720, Note_off_c, 2, 51, 95
3, 198720, Note_off_c, 2, 44, 95
3, 199680, Note_on_c, 2, 46, 95
3, 199684, Note_on_c, 2, 53, 95
3, 199688, Note_on_c, 2, 58, 95
3, 200160, Note_off_c, 2, 58, 95
3, 200160, Note_off_c, 2, 53, 95
3, 200160, Note_off_c, 2, 46, 95
3, 200160, Note_on_c, 2, 58, 95
3, 200164, Note_on_c, 2, 53, 95
3, 200168, Note_on_c, 2, 46, 95
3, 200640, Note_off_c, 2, 58, 95
3, 200640, Note_off_c, 2, 53, 95
3, 200640, Note_off_c, 2, 46, 95
3, 200640, Note_on_c, 2, 46, 95
3, 200644, Note_on_c, 2, 53, 95
3, 200648, Note_on_c, 2, 58, 95
3, 201120, Note_off_c, 2, 58, 95
3, 201120, Note_off_c, 2, 53, 95
3, 201120, Note_off_c, 2, 46, 95
3, 201120, Note_on_c, 2, 58, 95
3, 201124, Note_on_c, 2, 53, 95
3, 201128, Note_on_c, 2, 46, 95
3, 201600, Note_off_c, 2, 58, 95
3, 201600, Note_off_c, 2, 53, 95
3, 201600, Note_off_c, 2, 46, 95
3, 201600, Note_on_c, 2, 46, 95
3, 201602, Note_on_c, 2, 53, 95
3, 201604, Note_on_c, 2, 58, 95
3, 201840, Note_off_c, 2, 58, 95
3, 201840, Note_off_c, 2, 53, 95
3, 201840, Note_off_c, 2, 46, 95
3, 202560, Note_on_c, 2, 59, 95
3, 202560, Note_on_c, 2, 54, 95
3, 202560, Note_on_c, 2, 40, 95
3, 202645, Note_off_c, 2, 59, 95
3, 202645, Note_off_c, 2, 54, 95
3, 202645, Note_off_c, 2, 40, 95
3, 203040, Note_on_c, 2, 50, 95
3, 203040, Note_on_c, 2, 45, 95
3, 203040, Note_on_c, 2, 40, 95
3, 203125, Note_off_c, 2, 50, 95
3, 203125, Note_off_c, 2, 45, 95
3, 203125, Note_off_c, 2, 40, 95
3, 203520, Note_on_c, 2, 57, 95
3, 203520, Note_on_c, 2, 45, 95
3, 203520, Note_on_c, 2, 40, 95
3, 203605, Note_off_c, 2, 57, 95
3, 203605, Note_off_c, 2, 45, 95
3, 203605, Note_off_c, 2, 40, 95
3, 204000, Note_on_c, 2, 59, 95
3, 204000, Note_on_c, 2, 45, 95
3, 204000, Note_on_c, 2, 40, 95
3, 204085, Note_off_c, 2, 59, 95
3, 204085, Note_off_c, 2, 45, 95
3, 204085, Note_off_c, 2, 40, 95
3, 204480, Note_on_c, 2, 50, 95
3, 204480, Note_on_c, 2, 45, 95
3, 204480, Note_on_c, 2, 40, 95
3, 204565, Note_off_c, 2, 50, 95
3, 204565, Note_off_c, 2, 45, 95
3, 204565, Note_off_c, 2, 40, 95
3, 204960, Note_on_c, 2, 58, 95
3, 204960, Note_on_c, 2, 53, 95
3, 204960, Note_on_c, 2, 46, 95
3, 205440, Note_off_c, 2, 58, 95
3, 205440, Note_off_c, 2, 53, 95
3, 205440, Note_off_c, 2, 46, 95
3, 205440, Note_on_c, 2, 58, 95
3, 205440, Note_on_c, 2, 53, 95
3, 205440, Note_on_c, 2, 46, 95
3, 205920, Note_off_c, 2, 58, 95
3, 205920, Note_off_c, 2, 53, 95
3, 205920, Note_off_c, 2, 46, 95
3, 205920, Note_on_c, 2, 58, 95
3, 205920, Note_on_c, 2, 53, 95
3, 205920, Note_on_c, 2, 46, 95
3, 206400, Note_off_c, 2, 58, 95
3, 206400, Note_off_c, 2, 53, 95
3, 206400, Note_off_c, 2, 46, 95
3, 207360, Note_on_c, 2, 46, 95
3, 207364, Note_on_c, 2, 53, 95
3, 207368, Note_on_c, 2, 58, 95
3, 207840, Note_off_c, 2, 58, 95
3, 207840, Note_off_c, 2, 53, 95
3, 207840, Note_off_c, 2, 46, 95
3, 207840, Note_on_c, 2, 58, 95
3, 207844, Note_on_c, 2, 53, 95
3, 207848, Note_on_c, 2, 46, 95
3, 208320, Note_off_c, 2, 58, 95
3, 208320, Note_off_c, 2, 53, 95
3, 208320, Note_off_c, 2, 46, 95
3, 208320, Note_on_c, 2, 46, 95
3, 208324, Note_on_c, 2, 53, 95
3, 208328, Note_on_c, 2, 58, 95
3, 208800, Note_off_c, 2, 58, 95
3, 208800, Note_off_c, 2, 53, 95
3, 208800, Note_off_c, 2, 46, 95
3, 208800, Note_on_c, 2, 58, 95
3, 208804, Note_on_c, 2, 53, 95
3, 208808, Note_on_c, 2, 46, 95
3, 209280, Note_off_c, 2, 58, 95
3, 209280, Note_off_c, 2, 53, 95
3, 209280, Note_off_c, 2, 46, 95
3, 209280, Note_on_c, 2, 46, 95
3, 209282, Note_on_c, 2, 53, 95
3, 209284, Note_on_c, 2, 58, 95
3, 209520, Note_off_c, 2, 58, 95
3, 209520, Note_off_c, 2, 53, 95
3, 209520, Note_off_c, 2, 46, 95
3, 210240, Note_on_c, 2, 59, 95
3, 210240, Note_on_c, 2, 54, 95
3, 210240, Note_on_c, 2, 40, 95
3, 210325, Note_off_c, 2, 59, 95
3, 210325, Note_off_c, 2, 54, 95
3, 210325, Note_off_c, 2, 40, 95
3, 210720, Note_on_c, 2, 50, 95
3, 210720, Note_on_c, 2, 45, 95
3, 210720, Note_on_c, 2, 40, 95
3, 210805, Note_off_c, 2, 50, 95
3, 210805, Note_off_c, 2, 45, 95
3, 210805, Note_off_c, 2, 40, 95
3, 211200, Note_on_c, 2, 57, 95
3, 211200, Note_on_c, 2, 45, 95
3, 211200, Note_on_c, 2, 40, 95
3, 211285, Note_off_c, 2, 57, 95
3, 211285, Note_off_c, 2, 45, 95
3, 211285, Note_off_c, 2, 40, 95
3, 211680, Note_on_c, 2, 59, 95
3, 211680, Note_on_c, 2, 45, 95
3, 211680, Note_on_c, 2, 40, 95
3, 211765, Note_off_c, 2, 59, 95
3, 211765, Note_off_c, 2, 45, 95
3, 211765, Note_off_c, 2, 40, 95
3, 212160, Note_on_c, 2, 50, 95
3, 212160, Note_on_c, 2, 45, 95
3, 212160, Note_on_c, 2, 40, 95
3, 212245, Note_off_c, 2, 50, 95
3, 212245, Note_off_c, 2, 45, 95
3, 212245, Note_off_c, 2, 40, 95
3, 212640, Note_on_c, 2, 58, 95
3, 212640, Note_on_c, 2, 53, 95
3, 212640, Note_on_c, 2, 46, 95
3, 213120, Note_off_c, 2, 58, 95
3, 213120, Note_off_c, 2, 53, 95
3, 213120, Note_off_c, 2, 46, 95
3, 213120, Note_on_c, 2, 58, 95
3, 213120, Note_on_c, 2, 53, 95
3, 213120, Note_on_c, 2, 46, 95
3, 213600, Note_off_c, 2, 58, 95
3, 213600, Note_off_c, 2, 53, 95
3, 213600, Note_off_c, 2, 46, 95
3, 213600, Note_on_c, 2, 58, 95
3, 213600, Note_on_c, 2, 53, 95
3, 213600, Note_on_c, 2, 46, 95
3, 214080, Note_off_c, 2, 58, 95
3, 214080, Note_off_c, 2, 53, 95
3, 214080, Note_off_c, 2, 46, 95
3, 215040, Note_on_c, 2, 44, 95
3, 215044, Note_on_c, 2, 51, 95
3, 215048, Note_on_c, 2, 56, 95
3, 215520, Note_off_c, 2, 56, 95
3, 215520, Note_off_c, 2, 51, 95
3, 215520, Note_off_c, 2, 44, 95
3, 215520, Note_on_c, 2, 56, 95
3, 215524, Note_on_c, 2, 51, 95
3, 215528, Note_on_c, 2, 44, 95
3, 216000, Note_off_c, 2, 56, 95
3, 216000, Note_off_c, 2, 51, 95
3, 216000, Note_off_c, 2, 44, 95
3, 216000, Note_on_c, 2, 44, 95
3, 216004, Note_on_c, 2, 51, 95
3, 216008, Note_on_c, 2, 56, 95
3, 216480, Note_off_c, 2, 56, 95
3, 216480, Note_off_c, 2, 51, 95
3, 216480, Note_off_c, 2, 44, 95
3, 216480, Note_on_c, 2, 56, 95
3, 216484, Note_on_c, 2, 51, 95
3, 216488, Note_on_c, 2, 44, 95
3, 216960, Note_off_c, 2, 56, 95
3, 216960, Note_off_c, 2, 51, 95
3, 216960, Note_off_c, 2, 44, 95
3, 216960, Note_on_c, 2, 44, 95
3, 216962, Note_on_c, 2, 51, 95
3, 216964, Note_on_c, 2, 56, 95
3, 217200, Note_off_c, 2, 56, 95
3, 217200, Note_off_c, 2, 51, 95
3, 217200, Note_off_c, 2, 44, 95
3, 217920, Note_on_c, 2, 59, 95
3, 217920, Note_on_c, 2, 54, 95
3, 217920, Note_on_c, 2, 40, 95
3, 218005, Note_off_c, 2, 59, 95
3, 218005, Note_off_c, 2, 54, 95
3, 218005, Note_off_c, 2, 40, 95
3, 218400, Note_on_c, 2, 50, 95
3, 218400, Note_on_c, 2, 45, 95
3, 218400, Note_on_c, 2, 40, 95
3, 218485, Note_off_c, 2, 50, 95
3, 218485, Note_off_c, 2, 45, 95
3, 218485, Note_off_c, 2, 40, 95
3, 218880, Note_on_c, 2, 57, 95
3, 218880, Note_on_c, 2, 45, 95
3, 218880, Note_on_c, 2, 40, 95
3, 218965, Note_off_c, 2, 57, 95
3, 218965, Note_off_c, 2, 45, 95
3, 218965, Note_off_c, 2, 40, 95
3, 219360, Note_on_c, 2, 59, 95
3, 219360, Note_on_c, 2, 45, 95
3, 219360, Note_on_c, 2, 40, 95
3, 219445, Note_off_c, 2, 59, 95
3, 219445, Note_off_c, 2, 45, 95
3, 219445, Note_off_c, 2, 40, 95
3, 219840, Note_on_c, 2, 50, 95
3, 219840, Note_on_c, 2, 45, 95
3, 219840, Note_on_c, 2, 40, 95
3, 219925, Note_off_c, 2, 50, 95
3, 219925, Note_off_c, 2, 45, 95
3, 219925, Note_off_c, 2, 40, 95
3, 220320, Note_on_c, 2, 56, 95
3, 220320, Note_on_c, 2, 51, 95
3, 220320, Note_on_c, 2, 44, 95
3, 220800, Note_off_c, 2, 56, 95
3, 220800, Note_off_c, 2, 51, 95
3, 220800, Note_off_c, 2, 44, 95
3, 220800, Note_on_c, 2, 56, 95
3, 220800, Note_on_c, 2, 51, 95
3, 220800, Note_on_c, 2, 44, 95
3, 221280, Note_off_c, 2, 56, 95
3, 221280, Note_off_c, 2, 51, 95
3, 221280, Note_off_c, 2, 44, 95
3, 221280, Note_on_c, 2, 56, 95
3, 221280, Note_on_c, 2, 51, 95
3, 221280, Note_on_c, 2, 44, 95
3, 221760, Note_off_c, 2, 56, 95
3, 221760, Note_off_c, 2, 51, 95
3, 221760, Note_off_c, 2, 44, 95
3, 222720, Note_on_c, 2, 44, 95
3, 222724, Note_on_c, 2, 51, 95
3, 222728, Note_on_c, 2, 56, 95
3, 223200, Note_off_c, 2, 56, 95
3, 223200, Note_off_c, 2, 51, 95
3, 223200, Note_off_c, 2, 44, 95
3, 223200, Note_on_c, 2, 56, 95
3, 223204, Note_on_c, 2, 51, 95
3, 223208, Note_on_c, 2, 44, 95
3, 223680, Note_off_c, 2, 56, 95
3, 223680, Note_off_c, 2, 51, 95
3, 223680, Note_off_c, 2, 44, 95
3, 223680, Note_on_c, 2, 44, 95
3, 223684, Note_on_c, 2, 51, 95
3, 223688, Note_on_c, 2, 56, 95
3, 224160, Note_off_c, 2, 56, 95
3, 224160, Note_off_c, 2, 51, 95
3, 224160, Note_off_c, 2, 44, 95
3, 224160, Note_on_c, 2, 56, 95
3, 224164, Note_on_c, 2, 51, 95
3, 224168, Note_on_c, 2, 44, 95
3, 224640, Note_off_c, 2, 56, 95
3, 224640, Note_off_c, 2, 51, 95
3, 224640, Note_off_c, 2, 44, 95
3, 224640, Note_on_c, 2, 44, 95
3, 224642, Note_on_c, 2, 51, 95
3, 224644, Note_on_c, 2, 56, 95
3, 224880, Note_off_c, 2, 56, 95
3, 224880, Note_off_c, 2, 51, 95
3, 224880, Note_off_c, 2, 44, 95
3, 225600, Note_on_c, 2, 59, 95
3, 225600, Note_on_c, 2, 54, 95
3, 225600, Note_on_c, 2, 40, 95
3, 225685, Note_off_c, 2, 59, 95
3, 225685, Note_off_c, 2, 54, 95
3, 225685, Note_off_c, 2, 40, 95
3, 226080, Note_on_c, 2, 50, 95
3, 226080, Note_on_c, 2, 45, 95
3, 226080, Note_on_c, 2, 40, 95
3, 226165, Note_off_c, 2, 50, 95
3, 226165, Note_off_c, 2, 45, 95
3, 226165, Note_off_c, 2, 40, 95
3, 226560, Note_on_c, 2, 57, 95
3, 226560, Note_on_c, 2, 45, 95
3, 226560, Note_on_c, 2, 40, 95
3, 226645, Note_off_c, 2, 57, 95
3, 226645, Note_off_c, 2, 45, 95
3, 226645, Note_off_c, 2, 40, 95
3, 227040, Note_on_c, 2, 59, 95
3, 227040, Note_on_c, 2, 45, 95
3, 227040, Note_on_c, 2, 40, 95
3, 227125, Note_off_c, 2, 59, 95
3, 227125, Note_off_c, 2, 45, 95
3, 227125, Note_off_c, 2, 40, 95
3, 227520, Note_on_c, 2, 50, 95
3, 227520, Note_on_c, 2, 45, 95
3, 227520, Note_on_c, 2, 40, 95
3, 227605, Note_off_c, 2, 50, 95
3, 227605, Note_off_c, 2, 45, 95
3, 227605, Note_off_c, 2, 40, 95
3, 228000, Note_on_c, 2, 56, 95
3, 228000, Note_on_c, 2, 51, 95
3, 228000, Note_on_c, 2, 44, 95
3, 228480, Note_off_c, 2, 56, 95
3, 228480, Note_off_c, 2, 51, 95
3, 228480, Note_off_c, 2, 44, 95
3, 228480, Note_on_c, 2, 56, 95
3, 228480, Note_on_c, 2, 51, 95
3, 228480, Note_on_c, 2, 44, 95
3, 228960, Note_off_c, 2, 56, 95
3, 228960, Note_off_c, 2, 51, 95
3, 228960, Note_off_c, 2, 44, 95
3, 228960, Note_on_c, 2, 56, 95
3, 228960, Note_on_c, 2, 51, 95
3, 228960, Note_on_c, 2, 44, 95
3, 229440, Note_off_c, 2, 56, 95
3, 229440, Note_off_c, 2, 51, 95
3, 229440, Note_off_c, 2, 44, 95
3, 230400, Note_on_c, 2, 46, 95
3, 230404, Note_on_c, 2, 53, 95
3, 230408, Note_on_c, 2, 58, 95
3, 230880, Note_off_c, 2, 58, 95
3, 230880, Note_off_c, 2, 53, 95
3, 230880, Note_off_c, 2, 46, 95
3, 230880, Note_on_c, 2, 58, 95
3, 230884, Note_on_c, 2, 53, 95
3, 230888, Note_on_c, 2, 46, 95
3, 231360, Note_off_c, 2, 58, 95
3, 231360, Note_off_c, 2, 53, 95
3, 231360, Note_off_c, 2, 46, 95
3, 231360, Note_on_c, 2, 46, 95
3, 231364, Note_on_c, 2, 53, 95
3, 231368, Note_on_c, 2, 58, 95
3, 231840, Note_off_c, 2, 58, 95
3, 231840, Note_off_c, 2, 53, 95
3, 231840, Note_off_c, 2, 46, 95
3, 231840, Note_on_c, 2, 58, 95
3, 231844, Note_on_c, 2, 53, 95
3, 231848, Note_on_c, 2, 46, 95
3, 232320, Note_off_c, 2, 58, 95
3, 232320, Note_off_c, 2, 53, 95
3, 232320, Note_off_c, 2, 46, 95
3, 232320, Note_on_c, 2, 46, 95
3, 232322, Note_on_c, 2, 53, 95
3, 232324, Note_on_c, 2, 58, 95
3, 232560, Note_off_c, 2, 58, 95
3, 232560, Note_off_c, 2, 53, 95
3, 232560, Note_off_c, 2, 46, 95
3, 233280, Note_on_c, 2, 59, 95
3, 233280, Note_on_c, 2, 54, 95
3, 233280, Note_on_c, 2, 40, 95
3, 233365, Note_off_c, 2, 59, 95
3, 233365, Note_off_c, 2, 54, 95
3, 233365, Note_off_c, 2, 40, 95
3, 233760, Note_on_c, 2, 50, 95
3, 233760, Note_on_c, 2, 45, 95
3, 233760, Note_on_c, 2, 40, 95
3, 233845, Note_off_c, 2, 50, 95
3, 233845, Note_off_c, 2, 45, 95
3, 233845, Note_off_c, 2, 40, 95
3, 234240, Note_on_c, 2, 57, 95
3, 234240, Note_on_c, 2, 45, 95
3, 234240, Note_on_c, 2, 40, 95
3, 234325, Note_off_c, 2, 57, 95
3, 234325, Note_off_c, 2, 45, 95
3, 234325, Note_off_c, 2, 40, 95
3, 234720, Note_on_c, 2, 59, 95
3, 234720, Note_on_c, 2, 45, 95
3, 234720, Note_on_c, 2, 40, 95
3, 234805, Note_off_c, 2, 59, 95
3, 234805, Note_off_c, 2, 45, 95
3, 234805, Note_off_c, 2, 40, 95
3, 235200, Note_on_c, 2, 50, 95
3, 235200, Note_on_c, 2, 45, 95
3, 235200, Note_on_c, 2, 40, 95
3, 235285, Note_off_c, 2, 50, 95
3, 235285, Note_off_c, 2, 45, 95
3, 235285, Note_off_c, 2, 40, 95
3, 235680, Note_on_c, 2, 58, 95
3, 235680, Note_on_c, 2, 53, 95
3, 235680, Note_on_c, 2, 46, 95
3, 236160, Note_off_c, 2, 58, 95
3, 236160, Note_off_c, 2, 53, 95
3, 236160, Note_off_c, 2, 46, 95
3, 236160, Note_on_c, 2, 58, 95
3, 236160, Note_on_c, 2, 53, 95
3, 236160, Note_on_c, 2, 46, 95
3, 236640, Note_off_c, 2, 58, 95
3, 236640, Note_off_c, 2, 53, 95
3, 236640, Note_off_c, 2, 46, 95
3, 236640, Note_on_c, 2, 58, 95
3, 236640, Note_on_c, 2, 53, 95
3, 236640, Note_on_c, 2, 46, 95
3, 237120, Note_off_c, 2, 58, 95
3, 237120, Note_off_c, 2, 53, 95
3, 237120, Note_off_c, 2, 46, 95
3, 238080, Note_on_c, 2, 44, 95
3, 238084, Note_on_c, 2, 51, 95
3, 238088, Note_on_c, 2, 56, 95
3, 240000, Note_off_c, 2, 56, 95
3, 240000, Note_off_c, 2, 51, 95
3, 240000, Note_off_c, 2, 44, 95
3, 240000, Note_on_c, 2, 57, 95
3, 240000, Note_on_c, 2, 52, 95
3, 240000, Note_on_c, 2, 45, 95
3, 240085, Note_off_c, 2, 57, 95
3, 240085, Note_off_c, 2, 52, 95
3, 240085, Note_off_c, 2, 45, 95
3, 240240, Note_on_c, 2, 50, 95
3, 240240, Note_on_c, 2, 45, 95
3, 240240, Note_on_c, 2, 40, 95
3, 240325, Note_off_c, 2, 50, 95
3, 240325, Note_off_c, 2, 45, 95
3, 240325, Note_off_c, 2, 40, 95
3, 240960, Note_on_c, 2, 59, 95
3, 240960, Note_on_c, 2, 54, 95
3, 240960, Note_on_c, 2, 40, 95
3, 241045, Note_off_c, 2, 59, 95
3, 241045, Note_off_c, 2, 54, 95
3, 241045, Note_off_c, 2, 40, 95
3, 241440, Note_on_c, 2, 56, 95
3, 241440, Note_on_c, 2, 51, 95
3, 241440, Note_on_c, 2, 44, 95
3, 245760, Note_off_c, 2, 56, 95
3, 245760, Note_off_c, 2, 51, 95
3, 245760, Note_off_c, 2, 44, 95
3, 245760, Note_on_c, 2, 54, 95
3, 245760, Note_on_c, 2, 49, 95
3, 245760, Note_on_c, 2, 42, 95
3, 249600, Note_off_c, 2, 54, 95
3, 249600, Note_off_c, 2, 49, 95
3, 249600, Note_off_c, 2, 42, 95
3, 249600, Note_on_c, 2, 59, 95
3, 249600, Note_on_c, 2, 54, 95
3, 249600, Note_on_c, 2, 47, 95
3, 253440, Note_off_c, 2, 59, 95
3, 253440, Note_off_c, 2, 54, 95
3, 253440, Note_off_c, 2, 47, 95
3, 253440, Note_on_c, 2, 59, 95
3, 253440, Note_on_c, 2, 54, 95
3, 253440, Note_on_c, 2, 47, 95
3, 254880, Note_off_c, 2, 59, 95
3, 254880, Note_off_c, 2, 54, 95
3, 254880, Note_off_c, 2, 47, 95
3, 254880, Note_on_c, 2, 60, 95
3, 254880, Note_on_c, 2, 55, 95
3, 254880, Note_on_c, 2, 48, 95
3, 256320, Note_off_c, 2, 60, 95
3, 256320, Note_off_c, 2, 55, 95
3, 256320, Note_off_c, 2, 48, 95
3, 256320, Note_on_c, 2, 61, 95
3, 256320, Note_on_c, 2, 56, 95
3, 256320, Note_on_c, 2, 49, 95
3, 257280, Note_off_c, 2, 61, 95
3, 257280, Note_off_c, 2, 56, 95
3, 257280, Note_off_c, 2, 49, 95
3, 257280, Note_on_c, 2, 55, 127
3, 257280, Note_on_c, 2, 50, 127
3, 257280, Note_on_c, 2, 45, 127
3, 257365, Note_off_c, 2, 55, 127
3, 257365, Note_off_c, 2, 50, 127
3, 257365, Note_off_c, 2, 45, 127
3, 258240, Note_on_c, 2, 55, 95
3, 258240, Note_on_c, 2, 50, 95
3, 258325, Note_off_c, 2, 55, 95
3, 258325, Note_off_c, 2, 50, 95
3, 259200, Note_on_c, 2, 55, 95
3, 259200, Note_on_c, 2, 50, 95
3, 259200, Note_on_c, 2, 45, 95
3, 259285, Note_off_c, 2, 55, 95
3, 259285, Note_off_c, 2, 50, 95
3, 259285, Note_off_c, 2, 45, 95
3, 259680, Note_on_c, 2, 61, 95
3, 259680, Note_on_c, 2, 56, 95
3, 259680, Note_on_c, 2, 49, 95
3, 260160, Note_off_c, 2, 61, 95
3, 260160, Note_off_c, 2, 56, 95
3, 260160, Note_off_c, 2, 49, 95
3, 260640, Note_on_c, 2, 61, 95
3, 260640, Note_on_c, 2, 56, 95
3, 260640, Note_on_c, 2, 49, 95
3, 261120, Note_off_c, 2, 61, 95
3, 261120, Note_off_c, 2, 56, 95
3, 261120, Note_off_c, 2, 49, 95
3, 261120, Note_on_c, 2, 55, 95
3, 261120, Note_on_c, 2, 50, 95
3, 261120, Note_on_c, 2, 45, 95
3, 261205, Note_off_c, 2, 55, 95
3, 261205, Note_off_c, 2, 50, 95
3, 261205, Note_off_c, 2, 45, 95
3, 262080, Note_on_c, 2, 56, 95
3, 262080, Note_on_c, 2, 49, 95
3, 263040, Note_off_c, 2, 56, 95
3, 263040, Note_off_c, 2, 49, 95
3, 263040, Note_on_c, 2, 61, 95
3, 263040, Note_on_c, 2, 56, 95
3, 264000, Note_off_c, 2, 61, 95
3, 264000, Note_off_c, 2, 56, 95
3, 264000, Note_on_c, 2, 55, 95
3, 264000, Note_on_c, 2, 50, 95
3, 264000, Note_on_c, 2, 45, 95
3, 264085, Note_off_c, 2, 55, 95
3, 264085, Note_off_c, 2, 50, 95
3, 264085, Note_off_c, 2, 45, 95
3, 264960, Note_on_c, 2, 61, 95
3, 264960, Note_on_c, 2, 56, 95
3, 265920, Note_off_c, 2, 61, 95
3, 265920, Note_off_c, 2, 56, 95
3, 265920, Note_on_c, 2, 55, 95
3, 265920, Note_on_c, 2, 50, 95
3, 266005, Note_off_c, 2, 55, 95
3, 266005, Note_off_c, 2, 50, 95
3, 266880, Note_on_c, 2, 55, 95
3, 266880, Note_on_c, 2, 50, 95
3, 266880, Note_on_c, 2, 45, 95
3, 266965, Note_off_c, 2, 55, 95
3, 266965, Note_off_c, 2, 50, 95
3, 266965, Note_off_c, 2, 45, 95
3, 267360, Note_on_c, 2, 61, 95
3, 267360, Note_on_c, 2, 56, 95
3, 267360, Note_on_c, 2, 49, 95
3, 267840, Note_off_c, 2, 61, 95
3, 267840, Note_off_c, 2, 56, 95
3, 267840, Note_off_c, 2, 49, 95
3, 268320, Note_on_c, 2, 61, 95
3, 268320, Note_on_c, 2, 56, 95
3, 268320, Note_on_c, 2, 49, 95
3, 268800, Note_off_c, 2, 61, 95
3, 268800, Note_off_c, 2, 56, 95
3, 268800, Note_off_c, 2, 49, 95
3, 268800, Note_on_c, 2, 55, 127
3, 268800, Note_on_c, 2, 50, 127
3, 268800, Note_on_c, 2, 45, 127
3, 268885, Note_off_c, 2, 55, 127
3, 268885, Note_off_c, 2, 50, 127
3, 268885, Note_off_c, 2, 45, 127
3, 269760, Note_on_c, 2, 56, 95
3, 269760, Note_on_c, 2, 49, 95
3, 270720, Note_off_c, 2, 56, 95
3, 270720, Note_off_c, 2, 49, 95
3, 270720, Note_on_c, 2, 61, 95
3, 270720, Note_on_c, 2, 56, 95
3, 271680, Note_off_c, 2, 61, 95
3, 271680, Note_off_c, 2, 56, 95
3, 271680, Note_on_c, 2, 54, 95
3, 271680, Note_on_c, 2, 49, 95
3, 271680, Note_on_c, 2, 42, 95
3, 272640, Note_off_c, 2, 54, 95
3, 272640, Note_off_c, 2, 49, 95
3, 272640, Note_off_c, 2, 42, 95
3, 272640, Note_on_c, 2, 55, 127
3, 272640, Note_on_c, 2, 50, 127
3, 272640, Note_on_c, 2, 45, 127
3, 272725, Note_off_c, 2, 55, 127
3, 272725, Note_off_c, 2, 50, 127
3, 272725, Note_off_c, 2, 45, 127
3, 273600, Note_on_c, 2, 55, 95
3, 273600, Note_on_c, 2, 50, 95
3, 273685, Note_off_c, 2, 55, 95
3, 273685, Note_off_c, 2, 50, 95
3, 274560, Note_on_c, 2, 55, 95
3, 274560, Note_on_c, 2, 50, 95
3, 274560, Note_on_c, 2, 45, 95
3, 274645, Note_off_c, 2, 55, 95
3, 274645, Note_off_c, 2, 50, 95
3, 274645, Note_off_c, 2, 45, 95
3, 275040, Note_on_c, 2, 61, 95
3, 275040, Note_on_c, 2, 56, 95
3, 275040, Note_on_c, 2, 49, 95
3, 275520, Note_off_c, 2, 61, 95
3, 275520, Note_off_c, 2, 56, 95
3, 275520, Note_off_c, 2, 49, 95
3, 276000, Note_on_c, 2, 61, 95
3, 276000, Note_on_c, 2, 56, 95
3, 276000, Note_on_c, 2, 49, 95
3, 276480, Note_off_c, 2, 61, 95
3, 276480, Note_off_c, 2, 56, 95
3, 276480, Note_off_c, 2, 49, 95
3, 276480, Note_on_c, 2, 55, 95
3, 276480, Note_on_c, 2, 50, 95
3, 276480, Note_on_c, 2, 45, 95
3, 276565, Note_off_c, 2, 55, 95
3, 276565, Note_off_c, 2, 50, 95
3, 276565, Note_off_c, 2, 45, 95
3, 277440, Note_on_c, 2, 56, 95
3, 277440, Note_on_c, 2, 49, 95
3, 278400, Note_off_c, 2, 56, 95
3, 278400, Note_off_c, 2, 49, 95
3, 278400, Note_on_c, 2, 61, 95
3, 278400, Note_on_c, 2, 56, 95
3, 279360, Note_off_c, 2, 61, 95
3, 279360, Note_off_c, 2, 56, 95
3, 279360, Note_on_c, 2, 55, 95
3, 279360, Note_on_c, 2, 50, 95
3, 279360, Note_on_c, 2, 45, 95
3, 279445, Note_off_c, 2, 55, 95
3, 279445, Note_off_c, 2, 50, 95
3, 279445, Note_off_c, 2, 45, 95
3, 280320, Note_on_c, 2, 61, 95
3, 280320, Note_on_c, 2, 56, 95
3, 281280, Note_off_c, 2, 61, 95
3, 281280, Note_off_c, 2, 56, 95
3, 281280, Note_on_c, 2, 55, 95
3, 281280, Note_on_c, 2, 50, 95
3, 281365, Note_off_c, 2, 55, 95
3, 281365, Note_off_c, 2, 50, 95
3, 282240, Note_on_c, 2, 55, 95
3, 282240, Note_on_c, 2, 50, 95
3, 282240, Note_on_c, 2, 45, 95
3, 282325, Note_off_c, 2, 55, 95
3, 282325, Note_off_c, 2, 50, 95
3, 282325, Note_off_c, 2, 45, 95
3, 282720, Note_on_c, 2, 61, 95
3, 282720, Note_on_c, 2, 56, 95
3, 282720, Note_on_c, 2, 49, 95
3, 283200, Note_off_c, 2, 61, 95
3, 283200, Note_off_c, 2, 56, 95
3, 283200, Note_off_c, 2, 49, 95
3, 283680, Note_on_c, 2, 61, 95
3, 283680, Note_on_c, 2, 56, 95
3, 283680, Note_on_c, 2, 49, 95
3, 284160, Note_off_c, 2, 61, 95
3, 284160, Note_off_c, 2, 56, 95
3, 284160, Note_off_c, 2, 49, 95
3, 284160, Note_on_c, 2, 55, 127
3, 284160, Note_on_c, 2, 50, 127
3, 284160, Note_on_c, 2, 45, 127
3, 284245, Note_off_c, 2, 55, 127
3, 284245, Note_off_c, 2, 50, 127
3, 284245, Note_off_c, 2, 45, 127
3, 285120, Note_on_c, 2, 56, 95
3, 285120, Note_on_c, 2, 49, 95
3, 286080, Note_off_c, 2, 56, 95
3, 286080, Note_off_c, 2, 49, 95
3, 286080, Note_on_c, 2, 61, 95
3, 286080, Note_on_c, 2, 56, 95
3, 287040, Note_off_c, 2, 61, 95
3, 287040, Note_off_c, 2, 56, 95
3, 287040, Note_on_c, 2, 54, 95
3, 287040, Note_on_c, 2, 49, 95
3, 287040, Note_on_c, 2, 42, 95
3, 288000, Note_off_c, 2, 54, 95
3, 288000, Note_off_c, 2, 49, 95
3, 288000, Note_off_c, 2, 42, 95
3, 288000, End_track
4, 0, Start_track
4, 0, Pitch_bend_c, 4, 8192
4, 0, Control_c, 4, 7, 119
4, 0, Control_c, 4, 10, 63
4, 0, Control_c, 4, 93, 0
4, 0, Control_c, 4, 91, 0
4, 0, Control_c, 4, 95, 0
4, 0, Control_c, 4, 92, 0
4, 0, Control_c, 4, 11, 127
4, 0, Program_c, 4, 29
4, 0, Control_c, 5, 7, 119
4, 0, Control_c, 5, 10, 63
4, 0, Control_c, 5, 93, 0
4, 0, Control_c, 5, 91, 0
4, 0, Control_c, 5, 95, 0
4, 0, Control_c, 5, 92, 0
4, 0, Control_c, 5, 11, 127
4, 0, Program_c, 5, 29
4, 26880, Note_on_c, 4, 59, 95
4, 26880, Note_on_c, 4, 54, 95
4, 26880, Note_on_c, 4, 47, 95
4, 28320, Note_off_c, 4, 59, 95
4, 28320, Note_off_c, 4, 54, 95
4, 28320, Note_off_c, 4, 47, 95
4, 28320, Note_on_c, 4, 60, 95
4, 28320, Note_on_c, 4, 55, 95
4, 28320, Note_on_c, 4, 48, 95
4, 29760, Note_off_c, 4, 60, 95
4, 29760, Note_off_c, 4, 55, 95
4, 29760, Note_off_c, 4, 48, 95
4, 29760, Note_on_c, 4, 61, 95
4, 29760, Note_on_c, 4, 56, 95
4, 29760, Note_on_c, 4, 49, 95
4, 33120, Note_off_c, 4, 61, 95
4, 33120, Note_off_c, 4, 56, 95
4, 33120, Note_off_c, 4, 49, 95
4, 33120, Note_on_c, 4, 61, 95
4, 33120, Note_on_c, 4, 56, 95
4, 33120, Note_on_c, 4, 49, 95
4, 34080, Note_off_c, 4, 61, 95
4, 34080, Note_off_c, 4, 56, 95
4, 34080, Note_off_c, 4, 49, 95
4, 34080, Note_on_c, 4, 61, 95
4, 34080, Note_on_c, 4, 56, 95
4, 34080, Note_on_c, 4, 49, 95
4, 35520, Note_off_c, 4, 61, 95
4, 35520, Note_off_c, 4, 56, 95
4, 35520, Note_off_c, 4, 49, 95
4, 35520, Note_on_c, 4, 56, 95
4, 35520, Note_on_c, 4, 49, 95
4, 36480, Note_off_c, 4, 56, 95
4, 36480, Note_on_c, 4, 61, 95
4, 36480, Note_on_c, 4, 56, 95
4, 40800, Note_off_c, 4, 49, 95
4, 40800, Note_off_c, 4, 61, 95
4, 40800, Note_off_c, 4, 56, 95
4, 40800, Note_on_c, 4, 61, 95
4, 40800, Note_on_c, 4, 56, 95
4, 40800, Note_on_c, 4, 49, 95
4, 41760, Note_off_c, 4, 61, 95
4, 41760, Note_off_c, 4, 56, 95
4, 41760, Note_off_c, 4, 49, 95
4, 41760, Note_on_c, 4, 61, 95
4, 41760, Note_on_c, 4, 56, 95
4, 41760, Note_on_c, 4, 49, 95
4, 45120, Note_off_c, 4, 61, 95
4, 45120, Note_off_c, 4, 56, 95
4, 45120, Note_off_c, 4, 49, 95
4, 45120, Note_on_c, 4, 55, 95
4, 45120, Note_on_c, 4, 54, 95
4, 45120, Note_on_c, 4, 49, 95
4, 45120, Note_on_c, 4, 42, 95
4, 45205, Note_off_c, 4, 55, 95
4, 46080, Note_off_c, 4, 54, 95
4, 46080, Note_off_c, 4, 49, 95
4, 46080, Note_off_c, 4, 42, 95
4, 46080, Note_on_c, 4, 54, 95
4, 46080, Note_on_c, 4, 49, 95
4, 46080, Note_on_c, 4, 42, 95
4, 47040, Note_off_c, 4, 54, 95
4, 47040, Note_off_c, 4, 49, 95
4, 47040, Note_off_c, 4, 42, 95
4, 47040, Note_on_c, 4, 64, 95
4, 47040, Note_on_c, 4, 59, 95
4, 47040, Note_on_c, 4, 55, 95
4, 47125, Note_off_c, 4, 64, 95
4, 47125, Note_off_c, 4, 59, 95
4, 47125, Note_off_c, 4, 55, 95
4, 47520, Note_on_c, 4, 66, 111
4, 47520, Note_on_c, 4, 61, 111
4, 48000, Note_off_c, 4, 66, 111
4, 48000, Note_off_c, 4, 61, 111
4, 48000, Note_on_c, 4, 68, 86
4, 48480, Note_off_c, 4, 68, 86
4, 48480, Note_on_c, 4, 66, 86
4, 48480, Note_on_c, 4, 61, 86
4, 48960, Note_off_c, 4, 66, 86
4, 48960, Note_off_c, 4, 61, 86
4, 48960, Note_on_c, 4, 54, 95
4, 48960, Note_on_c, 4, 49, 95
4, 49920, Note_off_c, 4, 54, 95
4, 49920, Note_off_c, 4, 49, 95
4, 50400, Note_on_c, 4, 61, 95
4, 50400, Note_on_c, 4, 56, 95
4, 50880, Note_off_c, 4, 61, 95
4, 50880, Note_off_c, 4, 56, 95
4, 50880, Note_on_c, 4, 58, 70
4, 51360, Note_off_c, 4, 58, 70
4, 51360, Note_on_c, 4, 61, 95
4, 51360, Note_on_c, 4, 56, 70
4, 51840, Note_off_c, 4, 61, 95
4, 51840, Note_off_c, 4, 56, 70
4, 51840, Note_on_c, 4, 58, 70
4, 52320, Note_off_c, 4, 58, 70
4, 52320, Note_on_c, 4, 61, 95
4, 52320, Note_on_c, 4, 56, 70
4, 52800, Note_off_c, 4, 61, 95
4, 52800, Note_off_c, 4, 56, 70
4, 52800, Note_on_c, 4, 59, 70
4, 52800, Note_on_c, 4, 54, 70
4, 53760, Note_off_c, 4, 54, 70
4, 53760, Note_on_c, 4, 54, 95
4, 53760, Note_on_c, 4, 49, 95
4, 54720, Note_off_c, 4, 59, 70
4, 54720, Note_off_c, 4, 54, 95
4, 54720, Note_off_c, 4, 49, 95
4, 54720, Note_on_c, 4, 54, 95
4, 54720, Note_on_c, 4, 49, 95
4, 55200, Note_off_c, 4, 54, 95
4, 55200, Note_off_c, 4, 49, 95
4, 55200, Note_on_c, 4, 54, 95
4, 55200, Note_on_c, 4, 51, 70
4, 55680, Note_off_c, 4, 54, 95
4, 55680, Note_off_c, 4, 51, 70
4, 55680, Note_on_c, 4, 59, 95
4, 55680, Note_on_c, 4, 54, 95
4, 56160, Note_off_c, 4, 59, 95
4, 56160, Note_off_c, 4, 54, 95
4, 56160, Note_on_c, 4, 54, 95
4, 56160, Note_on_c, 4, 51, 95
4, 56640, Note_off_c, 4, 54, 95
4, 56640, Note_off_c, 4, 51, 95
4, 56640, Note_on_c, 4, 59, 95
4, 56640, Note_on_c, 4, 54, 70
4, 57600, Note_off_c, 4, 59, 95
4, 57600, Note_off_c, 4, 54, 70
4, 57600, Note_on_c, 4, 59, 95
4, 57600, Note_on_c, 4, 54, 95
4, 57600, Note_on_c, 4, 47, 95
4, 59040, Note_off_c, 4, 59, 95
4, 59040, Note_off_c, 4, 54, 95
4, 59040, Note_off_c, 4, 47, 95
4, 59040, Note_on_c, 4, 60, 95
4, 59040, Note_on_c, 4, 55, 95
4, 59040, Note_on_c, 4, 48, 95
4, 60480, Note_off_c, 4, 60, 95
4, 60480, Note_off_c, 4, 55, 95
4, 60480, Note_off_c, 4, 48, 95
4, 60480, Note_on_c, 4, 61, 95
4, 60480, Note_on_c, 4, 56, 95
4, 60480, Note_on_c, 4, 49, 95
4, 63840, Note_off_c, 4, 61, 95
4, 63840, Note_off_c, 4, 56, 95
4, 63840, Note_off_c, 4, 49, 95
4, 63840, Note_on_c, 4, 61, 95
4, 63840, Note_on_c, 4, 56, 95
4, 63840, Note_on_c, 4, 49, 95
4, 64800, Note_off_c, 4, 61, 95
4, 64800, Note_off_c, 4, 56, 95
4, 64800, Note_off_c, 4, 49, 95
4, 64800, Note_on_c, 4, 61, 95
4, 64800, Note_on_c, 4, 56, 95
4, 64800, Note_on_c, 4, 49, 95
4, 66240, Note_off_c, 4, 61, 95
4, 66240, Note_off_c, 4, 56, 95
4, 66240, Note_off_c, 4, 49, 95
4, 66240, Note_on_c, 4, 56, 95
4, 66240, Note_on_c, 4, 49, 95
4, 67200, Note_off_c, 4, 56, 95
4, 67200, Note_on_c, 4, 61, 95
4, 67200, Note_on_c, 4, 56, 95
4, 71520, Note_off_c, 4, 49, 95
4, 71520, Note_off_c, 4, 61, 95
4, 71520, Note_off_c, 4, 56, 95
4, 71520, Note_on_c, 4, 61, 95
4, 71520, Note_on_c, 4, 56, 95
4, 71520, Note_on_c, 4, 49, 95
4, 72480, Note_off_c, 4, 61, 95
4, 72480, Note_off_c, 4, 56, 95
4, 72480, Note_off_c, 4, 49, 95
4, 72480, Note_on_c, 4, 61, 95
4, 72480, Note_on_c, 4, 56, 95
4, 72480, Note_on_c, 4, 49, 95
4, 75840, Note_off_c, 4, 61, 95
4, 75840, Note_off_c, 4, 56, 95
4, 75840, Note_off_c, 4, 49, 95
4, 75840, Note_on_c, 4, 55, 95
4, 75840, Note_on_c, 4, 54, 95
4, 75840, Note_on_c, 4, 49, 95
4, 75840, Note_on_c, 4, 42, 95
4, 75925, Note_off_c, 4, 55, 95
4, 76800, Note_off_c, 4, 54, 95
4, 76800, Note_off_c, 4, 49, 95
4, 76800, Note_off_c, 4, 42, 95
4, 76800, Note_on_c, 4, 54, 95
4, 76800, Note_on_c, 4, 49, 95
4, 76800, Note_on_c, 4, 42, 95
4, 77760, Note_off_c, 4, 54, 95
4, 77760, Note_off_c, 4, 49, 95
4, 77760, Note_off_c, 4, 42, 95
4, 77760, Note_on_c, 4, 64, 95
4, 77760, Note_on_c, 4, 59, 95
4, 77760, Note_on_c, 4, 55, 95
4, 77845, Note_off_c, 4, 64, 95
4, 77845, Note_off_c, 4, 59, 95
4, 77845, Note_off_c, 4, 55, 95
4, 78240, Note_on_c, 4, 66, 111
4, 78240, Note_on_c, 4, 61, 111
4, 78720, Note_off_c, 4, 66, 111
4, 78720, Note_off_c, 4, 61, 111
4, 78720, Note_on_c, 4, 68, 86
4, 78720, Note_on_c, 4, 63, 70
4, 79200, Note_off_c, 4, 68, 86
4, 79200, Note_off_c, 4, 63, 70
4, 79200, Note_on_c, 4, 66, 86
4, 79200, Note_on_c, 4, 61, 111
4, 79680, Note_off_c, 4, 66, 86
4, 79680, Note_off_c, 4, 61, 111
4, 79680, Note_on_c, 4, 54, 95
4, 79680, Note_on_c, 4, 49, 95
4, 80640, Note_off_c, 4, 54, 95
4, 80640, Note_off_c, 4, 49, 95
4, 81120, Note_on_c, 4, 61, 95
4, 81120, Note_on_c, 4, 56, 95
4, 81600, Note_off_c, 4, 61, 95
4, 81600, Note_off_c, 4, 56, 95
4, 81600, Note_on_c, 4, 58, 70
4, 82080, Note_off_c, 4, 58, 70
4, 82080, Note_on_c, 4, 61, 95
4, 82080, Note_on_c, 4, 56, 70
4, 82560, Note_off_c, 4, 61, 95
4, 82560, Note_off_c, 4, 56, 70
4, 82560, Note_on_c, 4, 58, 70
4, 83040, Note_off_c, 4, 58, 70
4, 83040, Note_on_c, 4, 61, 95
4, 83040, Note_on_c, 4, 56, 70
4, 83520, Note_off_c, 4, 61, 95
4, 83520, Note_off_c, 4, 56, 70
4, 83520, Note_on_c, 4, 59, 70
4, 83520, Note_on_c, 4, 54, 70
4, 84480, Note_on_c, 4, 49, 95
4, 85440, Note_off_c, 4, 59, 70
4, 85440, Note_off_c, 4, 54, 70
4, 85440, Note_off_c, 4, 49, 95
4, 85440, Note_on_c, 4, 54, 95
4, 85440, Note_on_c, 4, 49, 95
4, 85920, Note_off_c, 4, 54, 95
4, 85920, Note_off_c, 4, 49, 95
4, 85920, Note_on_c, 4, 54, 95
4, 85920, Note_on_c, 4, 51, 70
4, 86400, Note_off_c, 4, 54, 95
4, 86400, Note_off_c, 4, 51, 70
4, 86400, Note_on_c, 4, 59, 95
4, 86400, Note_on_c, 4, 54, 95
4, 86880, Note_off_c, 4, 59, 95
4, 86880, Note_off_c, 4, 54, 95
4, 86880, Note_on_c, 4, 54, 95
4, 86880, Note_on_c, 4, 51, 95
4, 87360, Note_off_c, 4, 54, 95
4, 87360, Note_off_c, 4, 51, 95
4, 87360, Note_on_c, 4, 59, 95
4, 87360, Note_on_c, 4, 54, 70
4, 87840, Note_off_c, 4, 59, 95
4, 87840, Note_off_c, 4, 54, 70
4, 87840, Note_on_c, 4, 56, 70
4, 88320, Note_off_c, 4, 56, 70
4, 88320, Note_on_c, 4, 59, 95
4, 88320, Note_on_c, 4, 54, 95
4, 89280, Note_on_c, 4, 51, 95
4, 89760, Note_off_c, 4, 51, 95
4, 89760, Note_on_c, 4, 51, 95
4, 90240, Note_off_c, 4, 51, 95
4, 90240, Note_on_c, 4, 49, 95
4, 90720, Note_off_c, 4, 49, 95
4, 90720, Note_on_c, 4, 51, 95
4, 91200, Note_off_c, 4, 59, 95
4, 91200, Note_off_c, 4, 54, 95
4, 91200, Note_off_c, 4, 51, 95
4, 91200, Note_on_c, 4, 46, 95
4, 91680, Note_off_c, 4, 46, 95
4, 91680, Note_on_c, 4, 44, 95
4, 92160, Note_off_c, 4, 44, 95
4, 92160, Note_on_c, 4, 54, 95
4, 92160, Note_on_c, 4, 49, 95
4, 92160, Note_on_c, 4, 42, 95
4, 93120, Note_off_c, 4, 54, 95
4, 93120, Note_off_c, 4, 49, 95
4, 93120, Note_off_c, 4, 42, 95
4, 93120, Note_on_c, 4, 64, 95
4, 93120, Note_on_c, 4, 59, 95
4, 93120, Note_on_c, 4, 55, 95
4, 93205, Note_off_c, 4, 64, 95
4, 93205, Note_off_c, 4, 59, 95
4, 93205, Note_off_c, 4, 55, 95
4, 93600, Note_on_c, 4, 66, 111
4, 93600, Note_on_c, 4, 61, 111
4, 94080, Note_off_c, 4, 66, 111
4, 94080, Note_off_c, 4, 61, 111
4, 94080, Note_on_c, 4, 68, 86
4, 94080, Note_on_c, 4, 63, 70
4, 94560, Note_off_c, 4, 68, 86
4, 94560, Note_off_c, 4, 63, 70
4, 94560, Note_on_c, 4, 66, 86
4, 94560, Note_on_c, 4, 61, 111
4, 95040, Note_off_c, 4, 66, 86
4, 95040, Note_off_c, 4, 61, 111
4, 95040, Note_on_c, 4, 54, 95
4, 95040, Note_on_c, 4, 49, 95
4, 96000, Note_off_c, 4, 54, 95
4, 96000, Note_off_c, 4, 49, 95
4, 96480, Note_on_c, 4, 61, 95
4, 96480, Note_on_c, 4, 56, 95
4, 96960, Note_off_c, 4, 61, 95
4, 96960, Note_off_c, 4, 56, 95
4, 96960, Note_on_c, 4, 58, 70
4, 97440, Note_off_c, 4, 58, 70
4, 97440, Note_on_c, 4, 61, 95
4, 97440, Note_on_c, 4, 56, 70
4, 97920, Note_off_c, 4, 61, 95
4, 97920, Note_off_c, 4, 56, 70
4, 97920, Note_on_c, 4, 58, 70
4, 98400, Note_off_c, 4, 58, 70
4, 98400, Note_on_c, 4, 61, 95
4, 98400, Note_on_c, 4, 56, 70
4, 98880, Note_off_c, 4, 61, 95
4, 98880, Note_off_c, 4, 56, 70
4, 98880, Note_on_c, 4, 59, 70
4, 98880, Note_on_c, 4, 54, 70
4, 99840, Note_on_c, 4, 49, 95
4, 100800, Note_off_c, 4, 59, 70
4, 100800, Note_off_c, 4, 54, 70
4, 100800, Note_off_c, 4, 49, 95
4, 100800, Note_on_c, 4, 54, 95
4, 100800, Note_on_c, 4, 49, 95
4, 101280, Note_off_c, 4, 54, 95
4, 101280, Note_off_c, 4, 49, 95
4, 101280, Note_on_c, 4, 54, 95
4, 101280, Note_on_c, 4, 51, 70
4, 101760, Note_off_c, 4, 54, 95
4, 101760, Note_off_c, 4, 51, 70
4, 101760, Note_on_c, 4, 59, 95
4, 101760, Note_on_c, 4, 54, 95
4, 102240, Note_off_c, 4, 59, 95
4, 102240, Note_off_c, 4, 54, 95
4, 102240, Note_on_c, 4, 54, 95
4, 102240, Note_on_c, 4, 51, 95
4, 102720, Note_off_c, 4, 54, 95
4, 102720, Note_off_c, 4, 51, 95
4, 102720, Note_on_c, 4, 59, 95
4, 102720, Note_on_c, 4, 54, 70
4, 103200, Note_off_c, 4, 59, 95
4, 103200, Note_off_c, 4, 54, 70
4, 103200, Note_on_c, 4, 56, 70
4, 103680, Note_off_c, 4, 56, 70
4, 103680, Note_on_c, 4, 59, 95
4, 103680, Note_on_c, 4, 54, 95
4, 103680, Note_on_c, 4, 47, 95
4, 105120, Note_off_c, 4, 59, 95
4, 105120, Note_off_c, 4, 54, 95
4, 105120, Note_off_c, 4, 47, 95
4, 105120, Note_on_c, 4, 60, 95
4, 105120, Note_on_c, 4, 55, 95
4, 105120, Note_on_c, 4, 48, 95
4, 106560, Note_off_c, 4, 60, 95
4, 106560, Note_off_c, 4, 55, 95
4, 106560, Note_off_c, 4, 48, 95
4, 106560, Note_on_c, 4, 61, 95
4, 106560, Note_on_c, 4, 56, 95
4, 106560, Note_on_c, 4, 49, 95
4, 109920, Note_off_c, 4, 61, 95
4, 109920, Note_off_c, 4, 56, 95
4, 109920, Note_off_c, 4, 49, 95
4, 109920, Note_on_c, 4, 61, 95
4, 109920, Note_on_c, 4, 56, 95
4, 109920, Note_on_c, 4, 49, 95
4, 110880, Note_off_c, 4, 61, 95
4, 110880, Note_off_c, 4, 56, 95
4, 110880, Note_off_c, 4, 49, 95
4, 110880, Note_on_c, 4, 61, 95
4, 110880, Note_on_c, 4, 56, 95
4, 110880, Note_on_c, 4, 49, 95
4, 112320, Note_off_c, 4, 61, 95
4, 112320, Note_off_c, 4, 56, 95
4, 112320, Note_off_c, 4, 49, 95
4, 112320, Note_on_c, 4, 56, 95
4, 112320, Note_on_c, 4, 49, 95
4, 113280, Note_off_c, 4, 56, 95
4, 113280, Note_on_c, 4, 61, 95
4, 113280, Note_on_c, 4, 56, 95
4, 117600, Note_off_c, 4, 49, 95
4, 117600, Note_off_c, 4, 61, 95
4, 117600, Note_off_c, 4, 56, 95
4, 117600, Note_on_c, 4, 61, 95
4, 117600, Note_on_c, 4, 56, 95
4, 117600, Note_on_c, 4, 49, 95
4, 118560, Note_off_c, 4, 61, 95
4, 118560, Note_off_c, 4, 56, 95
4, 118560, Note_off_c, 4, 49, 95
4, 118560, Note_on_c, 4, 61, 95
4, 118560, Note_on_c, 4, 56, 95
4, 118560, Note_on_c, 4, 49, 95
4, 121920, Note_off_c, 4, 61, 95
4, 121920, Note_off_c, 4, 56, 95
4, 121920, Note_off_c, 4, 49, 95
4, 121920, Note_on_c, 4, 55, 95
4, 121920, Note_on_c, 4, 54, 95
4, 121920, Note_on_c, 4, 49, 95
4, 121920, Note_on_c, 4, 42, 95
4, 122005, Note_off_c, 4, 55, 95
4, 122880, Note_off_c, 4, 54, 95
4, 122880, Note_off_c, 4, 49, 95
4, 122880, Note_off_c, 4, 42, 95
4, 122880, Note_on_c, 4, 54, 95
4, 122880, Note_on_c, 4, 49, 95
4, 122880, Note_on_c, 4, 42, 95
4, 123840, Note_off_c, 4, 54, 95
4, 123840, Note_off_c, 4, 49, 95
4, 123840, Note_off_c, 4, 42, 95
4, 123840, Note_on_c, 4, 64, 95
4, 123840, Note_on_c, 4, 59, 95
4, 123840, Note_on_c, 4, 55, 95
4, 123925, Note_off_c, 4, 64, 95
4, 123925, Note_off_c, 4, 59, 95
4, 123925, Note_off_c, 4, 55, 95
4, 124320, Note_on_c, 4, 66, 111
4, 124320, Note_on_c, 4, 61, 111
4, 124800, Note_off_c, 4, 66, 111
4, 124800, Note_off_c, 4, 61, 111
4, 124800, Note_on_c, 4, 68, 86
4, 124800, Note_on_c, 4, 63, 70
4, 125280, Note_off_c, 4, 68, 86
4, 125280, Note_off_c, 4, 63, 70
4, 125280, Note_on_c, 4, 66, 86
4, 125280, Note_on_c, 4, 61, 111
4, 125760, Note_off_c, 4, 66, 86
4, 125760, Note_off_c, 4, 61, 111
4, 125760, Note_on_c, 4, 54, 95
4, 125760, Note_on_c, 4, 49, 95
4, 126720, Note_off_c, 4, 54, 95
4, 126720, Note_off_c, 4, 49, 95
4, 127200, Note_on_c, 4, 61, 95
4, 127200, Note_on_c, 4, 56, 95
4, 127680, Note_off_c, 4, 61, 95
4, 127680, Note_off_c, 4, 56, 95
4, 127680, Note_on_c, 4, 58, 70
4, 128160, Note_off_c, 4, 58, 70
4, 128160, Note_on_c, 4, 61, 95
4, 128160, Note_on_c, 4, 56, 70
4, 128640, Note_off_c, 4, 61, 95
4, 128640, Note_off_c, 4, 56, 70
4, 128640, Note_on_c, 4, 58, 70
4, 129120, Note_off_c, 4, 58, 70
4, 129120, Note_on_c, 4, 61, 95
4, 129120, Note_on_c, 4, 56, 70
4, 129600, Note_off_c, 4, 61, 95
4, 129600, Note_off_c, 4, 56, 70
4, 129600, Note_on_c, 4, 59, 70
4, 129600, Note_on_c, 4, 54, 70
4, 130560, Note_on_c, 4, 49, 95
4, 131520, Note_off_c, 4, 59, 70
4, 131520, Note_off_c, 4, 54, 70
4, 131520, Note_off_c, 4, 49, 95
4, 131520, Note_on_c, 4, 54, 95
4, 131520, Note_on_c, 4, 49, 95
4, 132000, Note_off_c, 4, 54, 95
4, 132000, Note_off_c, 4, 49, 95
4, 132000, Note_on_c, 4, 54, 95
4, 132000, Note_on_c, 4, 51, 70
4, 132480, Note_off_c, 4, 54, 95
4, 132480, Note_off_c, 4, 51, 70
4, 132480, Note_on_c, 4, 59, 95
4, 132480, Note_on_c, 4, 54, 95
4, 132960, Note_off_c, 4, 59, 95
4, 132960, Note_off_c, 4, 54, 95
4, 132960, Note_on_c, 4, 54, 95
4, 132960, Note_on_c, 4, 51, 95
4, 133440, Note_off_c, 4, 54, 95
4, 133440, Note_off_c, 4, 51, 95
4, 133440, Note_on_c, 4, 59, 95
4, 133440, Note_on_c, 4, 54, 70
4, 133920, Note_off_c, 4, 59, 95
4, 133920, Note_off_c, 4, 54, 70
4, 133920, Note_on_c, 4, 56, 70
4, 134400, Note_off_c, 4, 56, 70
4, 134400, Note_on_c, 4, 59, 95
4, 134400, Note_on_c, 4, 54, 95
4, 134400, Note_on_c, 4, 47, 95
4, 135840, Note_off_c, 4, 59, 95
4, 135840, Note_off_c, 4, 54, 95
4, 135840, Note_off_c, 4, 47, 95
4, 135840, Note_on_c, 4, 60, 95
4, 135840, Note_on_c, 4, 55, 95
4, 135840, Note_on_c, 4, 48, 95
4, 137280, Note_off_c, 4, 60, 95
4, 137280, Note_off_c, 4, 55, 95
4, 137280, Note_off_c, 4, 48, 95
4, 137280, Note_on_c, 4, 61, 95
4, 137280, Note_on_c, 4, 56, 95
4, 137280, Note_on_c, 4, 49, 95
4, 140640, Note_off_c, 4, 61, 95
4, 140640, Note_off_c, 4, 56, 95
4, 140640, Note_off_c, 4, 49, 95
4, 140640, Note_on_c, 4, 61, 95
4, 140640, Note_on_c, 4, 56, 95
4, 140640, Note_on_c, 4, 49, 95
4, 141600, Note_off_c, 4, 61, 95
4, 141600, Note_off_c, 4, 56, 95
4, 141600, Note_off_c, 4, 49, 95
4, 141600, Note_on_c, 4, 61, 95
4, 141600, Note_on_c, 4, 56, 95
4, 141600, Note_on_c, 4, 49, 95
4, 143040, Note_off_c, 4, 61, 95
4, 143040, Note_off_c, 4, 56, 95
4, 143040, Note_off_c, 4, 49, 95
4, 143040, Note_on_c, 4, 56, 95
4, 143040, Note_on_c, 4, 49, 95
4, 144000, Note_off_c, 4, 56, 95
4, 144000, Note_on_c, 4, 61, 95
4, 144000, Note_on_c, 4, 56, 95
4, 148320, Note_off_c, 4, 49, 95
4, 148320, Note_off_c, 4, 61, 95
4, 148320, Note_off_c, 4, 56, 95
4, 148320, Note_on_c, 4, 61, 95
4, 148320, Note_on_c, 4, 56, 95
4, 148320, Note_on_c, 4, 49, 95
4, 149280, Note_off_c, 4, 61, 95
4, 149280, Note_off_c, 4, 56, 95
4, 149280, Note_off_c, 4, 49, 95
4, 149280, Note_on_c, 4, 61, 95
4, 149280, Note_on_c, 4, 56, 95
4, 149280, Note_on_c, 4, 49, 95
4, 152640, Note_off_c, 4, 61, 95
4, 152640, Note_off_c, 4, 56, 95
4, 152640, Note_off_c, 4, 49, 95
4, 152640, Note_on_c, 4, 55, 95
4, 152640, Note_on_c, 4, 54, 95
4, 152640, Note_on_c, 4, 49, 95
4, 152640, Note_on_c, 4, 42, 95
4, 152725, Note_off_c, 4, 55, 95
4, 153600, Note_off_c, 4, 54, 95
4, 153600, Note_off_c, 4, 49, 95
4, 153600, Note_off_c, 4, 42, 95
4, 153600, Note_on_c, 4, 54, 95
4, 153600, Note_on_c, 4, 49, 95
4, 153600, Note_on_c, 4, 42, 95
4, 154560, Note_off_c, 4, 54, 95
4, 154560, Note_off_c, 4, 49, 95
4, 154560, Note_off_c, 4, 42, 95
4, 154560, Note_on_c, 4, 64, 95
4, 154560, Note_on_c, 4, 59, 95
4, 154560, Note_on_c, 4, 55, 95
4, 154645, Note_off_c, 4, 64, 95
4, 154645, Note_off_c, 4, 59, 95
4, 154645, Note_off_c, 4, 55, 95
4, 155040, Note_on_c, 4, 66, 111
4, 155040, Note_on_c, 4, 61, 111
4, 155520, Note_off_c, 4, 66, 111
4, 155520, Note_off_c, 4, 61, 111
4, 155520, Note_on_c, 4, 68, 86
4, 155520, Note_on_c, 4, 63, 70
4, 156000, Note_off_c, 4, 68, 86
4, 156000, Note_off_c, 4, 63, 70
4, 156000, Note_on_c, 4, 66, 86
4, 156000, Note_on_c, 4, 61, 111
4, 156480, Note_off_c, 4, 66, 86
4, 156480, Note_off_c, 4, 61, 111
4, 156480, Note_on_c, 4, 54, 95
4, 156480, Note_on_c, 4, 49, 95
4, 157440, Note_off_c, 4, 54, 95
4, 157440, Note_off_c, 4, 49, 95
4, 157920, Note_on_c, 4, 61, 95
4, 157920, Note_on_c, 4, 56, 95
4, 158400, Note_off_c, 4, 61, 95
4, 158400, Note_off_c, 4, 56, 95
4, 158400, Note_on_c, 4, 58, 70
4, 158880, Note_off_c, 4, 58, 70
4, 158880, Note_on_c, 4, 61, 95
4, 158880, Note_on_c, 4, 56, 70
4, 159360, Note_off_c, 4, 61, 95
4, 159360, Note_off_c, 4, 56, 70
4, 159360, Note_on_c, 4, 58, 70
4, 159840, Note_off_c, 4, 58, 70
4, 159840, Note_on_c, 4, 61, 95
4, 159840, Note_on_c, 4, 56, 70
4, 160320, Note_off_c, 4, 61, 95
4, 160320, Note_off_c, 4, 56, 70
4, 160320, Note_on_c, 4, 59, 70
4, 160320, Note_on_c, 4, 54, 70
4, 161280, Note_on_c, 4, 49, 95
4, 162240, Note_off_c, 4, 59, 70
4, 162240, Note_off_c, 4, 54, 70
4, 162240, Note_off_c, 4, 49, 95
4, 162240, Note_on_c, 4, 54, 95
4, 162240, Note_on_c, 4, 49, 95
4, 162720, Note_off_c, 4, 54, 95
4, 162720, Note_off_c, 4, 49, 95
4, 162720, Note_on_c, 4, 54, 95
4, 162720, Note_on_c, 4, 51, 70
4, 163200, Note_off_c, 4, 54, 95
4, 163200, Note_off_c, 4, 51, 70
4, 163200, Note_on_c, 4, 59, 95
4, 163200, Note_on_c, 4, 54, 95
4, 163680, Note_off_c, 4, 59, 95
4, 163680, Note_off_c, 4, 54, 95
4, 163680, Note_on_c, 4, 54, 95
4, 163680, Note_on_c, 4, 51, 95
4, 164160, Note_off_c, 4, 54, 95
4, 164160, Note_off_c, 4, 51, 95
4, 164160, Note_on_c, 4, 59, 95
4, 164160, Note_on_c, 4, 54, 70
4, 164640, Note_off_c, 4, 59, 95
4, 164640, Note_off_c, 4, 54, 70
4, 164640, Note_on_c, 4, 54, 70
4, 165120, Note_off_c, 4, 54, 70
4, 165120, Note_on_c, 4, 54, 95
4, 165600, Note_off_c, 4, 54, 95
4, 165600, Note_on_c, 4, 59, 95
4, 165600, Note_on_c, 4, 54, 95
4, 165600, Note_on_c, 4, 47, 95
4, 166080, Note_off_c, 4, 59, 95
4, 166080, Note_off_c, 4, 54, 95
4, 166080, Note_off_c, 4, 47, 95
4, 166080, Note_on_c, 4, 60, 95
4, 166080, Note_on_c, 4, 55, 95
4, 166080, Note_on_c, 4, 48, 95
4, 167520, Note_off_c, 4, 60, 95
4, 167520, Note_off_c, 4, 55, 95
4, 167520, Note_off_c, 4, 48, 95
4, 167520, Note_on_c, 4, 60, 95
4, 167520, Note_on_c, 4, 55, 95
4, 167520, Note_on_c, 4, 48, 95
4, 168000, Note_off_c, 4, 60, 95
4, 168000, Note_off_c, 4, 55, 95
4, 168000, Note_off_c, 4, 48, 95
4, 168000, Note_on_c, 4, 61, 95
4, 168000, Note_on_c, 4, 56, 95
4, 168000, Note_on_c, 4, 49, 95
4, 168960, Note_off_c, 4, 61, 95
4, 168960, Note_off_c, 4, 56, 95
4, 168960, Note_off_c, 4, 49, 95
4, 168960, Note_on_c, 4, 46, 95
4, 168964, Note_on_c, 4, 53, 95
4, 168968, Note_on_c, 4, 58, 95
4, 169440, Note_off_c, 4, 58, 95
4, 169440, Note_off_c, 4, 53, 95
4, 169440, Note_off_c, 4, 46, 95
4, 169440, Note_on_c, 4, 58, 95
4, 169444, Note_on_c, 4, 53, 95
4, 169448, Note_on_c, 4, 46, 95
4, 169920, Note_off_c, 4, 58, 95
4, 169920, Note_off_c, 4, 53, 95
4, 169920, Note_off_c, 4, 46, 95
4, 169920, Note_on_c, 4, 46, 95
4, 169924, Note_on_c, 4, 53, 95
4, 169928, Note_on_c, 4, 58, 95
4, 170400, Note_off_c, 4, 58, 95
4, 170400, Note_off_c, 4, 53, 95
4, 170400, Note_off_c, 4, 46, 95
4, 170400, Note_on_c, 4, 58, 95
4, 170404, Note_on_c, 4, 53, 95
4, 170408, Note_on_c, 4, 46, 95
4, 170880, Note_off_c, 4, 58, 95
4, 170880, Note_off_c, 4, 53, 95
4, 170880, Note_off_c, 4, 46, 95
4, 170880, Note_on_c, 4, 46, 95
4, 170882, Note_on_c, 4, 53, 95
4, 170884, Note_on_c, 4, 58, 95
4, 171120, Note_off_c, 4, 58, 95
4, 171120, Note_off_c, 4, 53, 95
4, 171120, Note_off_c, 4, 46, 95
4, 171840, Note_on_c, 4, 58, 95
4, 172800, Note_off_c, 4, 58, 95
4, 172800, Note_on_c, 4, 56, 95
4, 172800, Note_on_c, 4, 51, 95
4, 173760, Note_off_c, 4, 56, 95
4, 173760, Note_off_c, 4, 51, 95
4, 173760, Note_on_c, 4, 58, 95
4, 173760, Note_on_c, 4, 51, 95
4, 174720, Note_off_c, 4, 58, 95
4, 174720, Note_off_c, 4, 51, 95
4, 174720, Note_on_c, 4, 56, 95
4, 174720, Note_on_c, 4, 51, 95
4, 175680, Note_off_c, 4, 56, 95
4, 175680, Note_off_c, 4, 51, 95
4, 175680, Note_on_c, 4, 58, 95
4, 175680, Note_on_c, 4, 51, 95
4, 176640, Note_off_c, 4, 58, 95
4, 176640, Note_off_c, 4, 51, 95
4, 176640, Note_on_c, 4, 46, 95
4, 176644, Note_on_c, 4, 53, 95
4, 176648, Note_on_c, 4, 58, 95
4, 177120, Note_off_c, 4, 58, 95
4, 177120, Note_off_c, 4, 53, 95
4, 177120, Note_off_c, 4, 46, 95
4, 177120, Note_on_c, 4, 58, 95
4, 177124, Note_on_c, 4, 53, 95
4, 177128, Note_on_c, 4, 46, 95
4, 177600, Note_off_c, 4, 58, 95
4, 177600, Note_off_c, 4, 53, 95
4, 177600, Note_off_c, 4, 46, 95
4, 177600, Note_on_c, 4, 46, 95
4, 177604, Note_on_c, 4, 53, 95
4, 177608, Note_on_c, 4, 58, 95
4, 178080, Note_off_c, 4, 58, 95
4, 178080, Note_off_c, 4, 53, 95
4, 178080, Note_off_c, 4, 46, 95
4, 178080, Note_on_c, 4, 58, 95
4, 178084, Note_on_c, 4, 53, 95
4, 178088, Note_on_c, 4, 46, 95
4, 178560, Note_off_c, 4, 58, 95
4, 178560, Note_off_c, 4, 53, 95
4, 178560, Note_off_c, 4, 46, 95
4, 178560, Note_on_c, 4, 46, 95
4, 178562, Note_on_c, 4, 53, 95
4, 178564, Note_on_c, 4, 58, 95
4, 178800, Note_off_c, 4, 58, 95
4, 178800, Note_off_c, 4, 53, 95
4, 178800, Note_off_c, 4, 46, 95
4, 179520, Note_on_c, 4, 58, 95
4, 180480, Note_off_c, 4, 58, 95
4, 180480, Note_on_c, 4, 59, 95
4, 181440, Note_off_c, 4, 59, 95
4, 181440, Note_on_c, 4, 58, 95
4, 182400, Note_off_c, 4, 58, 95
4, 182400, Note_on_c, 4, 56, 95
4, 183360, Note_off_c, 4, 56, 95
4, 183360, Note_on_c, 4, 58, 95
4, 184320, Note_off_c, 4, 58, 95
4, 184320, Note_on_c, 4, 44, 95
4, 184324, Note_on_c, 4, 51, 95
4, 184328, Note_on_c, 4, 56, 95
4, 184800, Note_off_c, 4, 56, 95
4, 184800, Note_off_c, 4, 51, 95
4, 184800, Note_off_c, 4, 44, 95
4, 184800, Note_on_c, 4, 56, 95
4, 184804, Note_on_c, 4, 51, 95
4, 184808, Note_on_c, 4, 44, 95
4, 185280, Note_off_c, 4, 56, 95
4, 185280, Note_off_c, 4, 51, 95
4, 185280, Note_off_c, 4, 44, 95
4, 185280, Note_on_c, 4, 44, 95
4, 185284, Note_on_c, 4, 51, 95
4, 185288, Note_on_c, 4, 56, 95
4, 185760, Note_off_c, 4, 56, 95
4, 185760, Note_off_c, 4, 51, 95
4, 185760, Note_off_c, 4, 44, 95
4, 185760, Note_on_c, 4, 56, 95
4, 185764, Note_on_c, 4, 51, 95
4, 185768, Note_on_c, 4, 44, 95
4, 186240, Note_off_c, 4, 56, 95
4, 186240, Note_off_c, 4, 51, 95
4, 186240, Note_off_c, 4, 44, 95
4, 186240, Note_on_c, 4, 44, 95
4, 186242, Note_on_c, 4, 51, 95
4, 186244, Note_on_c, 4, 56, 95
4, 186480, Note_off_c, 4, 56, 95
4, 186480, Note_off_c, 4, 51, 95
4, 186480, Note_off_c, 4, 44, 95
4, 187200, Note_on_c, 4, 58, 95
4, 187200, Note_on_c, 4, 51, 95
4, 188160, Note_off_c, 4, 58, 95
4, 188160, Note_off_c, 4, 51, 95
4, 188160, Note_on_c, 4, 56, 95
4, 188160, Note_on_c, 4, 51, 95
4, 189120, Note_off_c, 4, 56, 95
4, 189120, Note_off_c, 4, 51, 95
4, 189120, Note_on_c, 4, 58, 95
4, 189120, Note_on_c, 4, 51, 95
4, 190080, Note_off_c, 4, 58, 95
4, 190080, Note_off_c, 4, 51, 95
4, 190080, Note_on_c, 4, 56, 95
4, 190080, Note_on_c, 4, 51, 95
4, 191040, Note_off_c, 4, 56, 95
4, 191040, Note_off_c, 4, 51, 95
4, 191040, Note_on_c, 4, 58, 95
4, 191040, Note_on_c, 4, 51, 95
4, 192000, Note_off_c, 4, 58, 95
4, 192000, Note_off_c, 4, 51, 95
4, 192000, Note_on_c, 4, 44, 95
4, 192004, Note_on_c, 4, 51, 95
4, 192008, Note_on_c, 4, 56, 95
4, 192480, Note_off_c, 4, 56, 95
4, 192480, Note_off_c, 4, 51, 95
4, 192480, Note_off_c, 4, 44, 95
4, 192480, Note_on_c, 4, 56, 95
4, 192484, Note_on_c, 4, 51, 95
4, 192488, Note_on_c, 4, 44, 95
4, 192960, Note_off_c, 4, 56, 95
4, 192960, Note_off_c, 4, 51, 95
4, 192960, Note_off_c, 4, 44, 95
4, 192960, Note_on_c, 4, 44, 95
4, 192964, Note_on_c, 4, 51, 95
4, 192968, Note_on_c, 4, 56, 95
4, 193440, Note_off_c, 4, 56, 95
4, 193440, Note_off_c, 4, 51, 95
4, 193440, Note_off_c, 4, 44, 95
4, 193440, Note_on_c, 4, 56, 95
4, 193444, Note_on_c, 4, 51, 95
4, 193448, Note_on_c, 4, 44, 95
4, 193920, Note_off_c, 4, 56, 95
4, 193920, Note_off_c, 4, 51, 95
4, 193920, Note_off_c, 4, 44, 95
4, 193920, Note_on_c, 4, 44, 95
4, 193922, Note_on_c, 4, 51, 95
4, 193924, Note_on_c, 4, 56, 95
4, 194160, Note_off_c, 4, 56, 95
4, 194160, Note_off_c, 4, 51, 95
4, 194160, Note_off_c, 4, 44, 95
4, 194880, Note_on_c, 4, 58, 95
4, 194880, Note_on_c, 4, 51, 95
4, 195840, Note_off_c, 4, 58, 95
4, 195840, Note_off_c, 4, 51, 95
4, 195840, Note_on_c, 4, 59, 95
4, 195840, Note_on_c, 4, 51, 95
4, 196800, Note_off_c, 4, 59, 95
4, 196800, Note_off_c, 4, 51, 95
4, 196800, Note_on_c, 4, 58, 95
4, 196800, Note_on_c, 4, 51, 95
4, 197760, Note_off_c, 4, 58, 95
4, 197760, Note_off_c, 4, 51, 95
4, 197760, Note_on_c, 4, 56, 95
4, 197760, Note_on_c, 4, 51, 95
4, 198720, Note_off_c, 4, 56, 95
4, 198720, Note_off_c, 4, 51, 95
4, 198720, Note_on_c, 4, 58, 95
4, 198720, Note_on_c, 4, 51, 95
4, 199680, Note_off_c, 4, 58, 95
4, 199680, Note_off_c, 4, 51, 95
4, 199680, Note_on_c, 4, 46, 95
4, 199684, Note_on_c, 4, 53, 95
4, 199688, Note_on_c, 4, 58, 95
4, 200160, Note_off_c, 4, 58, 95
4, 200160, Note_off_c, 4, 53, 95
4, 200160, Note_off_c, 4, 46, 95
4, 200160, Note_on_c, 4, 58, 95
4, 200164, Note_on_c, 4, 53, 95
4, 200168, Note_on_c, 4, 46, 95
4, 200640, Note_off_c, 4, 58, 95
4, 200640, Note_off_c, 4, 53, 95
4, 200640, Note_off_c, 4, 46, 95
4, 200640, Note_on_c, 4, 46, 95
4, 200644, Note_on_c, 4, 53, 95
4, 200648, Note_on_c, 4, 58, 95
4, 201120, Note_off_c, 4, 58, 95
4, 201120, Note_off_c, 4, 53, 95
4, 201120, Note_off_c, 4, 46, 95
4, 201120, Note_on_c, 4, 58, 95
4, 201124, Note_on_c, 4, 53, 95
4, 201128, Note_on_c, 4, 46, 95
4, 201600, Note_off_c, 4, 58, 95
4, 201600, Note_off_c, 4, 53, 95
4, 201600, Note_off_c, 4, 46, 95
4, 201600, Note_on_c, 4, 46, 95
4, 201602, Note_on_c, 4, 53, 95
4, 201604, Note_on_c, 4, 58, 95
4, 201840, Note_off_c, 4, 58, 95
4, 201840, Note_off_c, 4, 53, 95
4, 201840, Note_off_c, 4, 46, 95
4, 202560, Note_on_c, 4, 58, 95
4, 203520, Note_off_c, 4, 58, 95
4, 203520, Note_on_c, 4, 56, 95
4, 203520, Note_on_c, 4, 51, 95
4, 204480, Note_off_c, 4, 56, 95
4, 204480, Note_off_c, 4, 51, 95
4, 204480, Note_on_c, 4, 58, 95
4, 204480, Note_on_c, 4, 51, 95
4, 205440, Note_off_c, 4, 58, 95
4, 205440, Note_off_c, 4, 51, 95
4, 205440, Note_on_c, 4, 56, 95
4, 205440, Note_on_c, 4, 51, 95
4, 206400, Note_off_c, 4, 56, 95
4, 206400, Note_off_c, 4, 51, 95
4, 206400, Note_on_c, 4, 58, 95
4, 206400, Note_on_c, 4, 51, 95
4, 207360, Note_off_c, 4, 58, 95
4, 207360, Note_off_c, 4, 51, 95
4, 207360, Note_on_c, 4, 46, 95
4, 207364, Note_on_c, 4, 53, 95
4, 207368, Note_on_c, 4, 58, 95
4, 207840, Note_off_c, 4, 58, 95
4, 207840, Note_off_c, 4, 53, 95
4, 207840, Note_off_c, 4, 46, 95
4, 207840, Note_on_c, 4, 58, 95
4, 207844, Note_on_c, 4, 53, 95
4, 207848, Note_on_c, 4, 46, 95
4, 208320, Note_off_c, 4, 58, 95
4, 208320, Note_off_c, 4, 53, 95
4, 208320, Note_off_c, 4, 46, 95
4, 208320, Note_on_c, 4, 46, 95
4, 208324, Note_on_c, 4, 53, 95
4, 208328, Note_on_c, 4, 58, 95
4, 208800, Note_off_c, 4, 58, 95
4, 208800, Note_off_c, 4, 53, 95
4, 208800, Note_off_c, 4, 46, 95
4, 208800, Note_on_c, 4, 58, 95
4, 208804, Note_on_c, 4, 53, 95
4, 208808, Note_on_c, 4, 46, 95
4, 209280, Note_off_c, 4, 58, 95
4, 209280, Note_off_c, 4, 53, 95
4, 209280, Note_off_c, 4, 46, 95
4, 209280, Note_on_c, 4, 46, 95
4, 209282, Note_on_c, 4, 53, 95
4, 209284, Note_on_c, 4, 58, 95
4, 209520, Note_off_c, 4, 58, 95
4, 209520, Note_off_c, 4, 53, 95
4, 209520, Note_off_c, 4, 46, 95
4, 210240, Note_on_c, 4, 58, 95
4, 211200, Note_off_c, 4, 58, 95
4, 211200, Note_on_c, 4, 59, 95
4, 212160, Note_off_c, 4, 59, 95
4, 212160, Note_on_c, 4, 58, 95
4, 213120, Note_off_c, 4, 58, 95
4, 213120, Note_on_c, 4, 56, 95
4, 214080, Note_off_c, 4, 56, 95
4, 214080, Note_on_c, 4, 58, 95
4, 215040, Note_off_c, 4, 58, 95
4, 215040, Note_on_c, 4, 44, 95
4, 215044, Note_on_c, 4, 51, 95
4, 215048, Note_on_c, 4, 56, 95
4, 215520, Note_off_c, 4, 56, 95
4, 215520, Note_off_c, 4, 51, 95
4, 215520, Note_off_c, 4, 44, 95
4, 215520, Note_on_c, 4, 56, 95
4, 215524, Note_on_c, 4, 51, 95
4, 215528, Note_on_c, 4, 44, 95
4, 216000, Note_off_c, 4, 56, 95
4, 216000, Note_off_c, 4, 51, 95
4, 216000, Note_off_c, 4, 44, 95
4, 216000, Note_on_c, 4, 44, 95
4, 216004, Note_on_c, 4, 51, 95
4, 216008, Note_on_c, 4, 56, 95
4, 216480, Note_off_c, 4, 56, 95
4, 216480, Note_off_c, 4, 51, 95
4, 216480, Note_off_c, 4, 44, 95
4, 216480, Note_on_c, 4, 56, 95
4, 216484, Note_on_c, 4, 51, 95
4, 216488, Note_on_c, 4, 44, 95
4, 216960, Note_off_c, 4, 56, 95
4, 216960, Note_off_c, 4, 51, 95
4, 216960, Note_off_c, 4, 44, 95
4, 216960, Note_on_c, 4, 44, 95
4, 216962, Note_on_c, 4, 51, 95
4, 216964, Note_on_c, 4, 56, 95
4, 217200, Note_off_c, 4, 56, 95
4, 217200, Note_off_c, 4, 51, 95
4, 217200, Note_off_c, 4, 44, 95
4, 217920, Note_on_c, 4, 58, 95
4, 217920, Note_on_c, 4, 51, 95
4, 218880, Note_off_c, 4, 58, 95
4, 218880, Note_off_c, 4, 51, 95
4, 218880, Note_on_c, 4, 56, 95
4, 218880, Note_on_c, 4, 51, 95
4, 219840, Note_off_c, 4, 56, 95
4, 219840, Note_off_c, 4, 51, 95
4, 219840, Note_on_c, 4, 58, 95
4, 219840, Note_on_c, 4, 51, 95
4, 220800, Note_off_c, 4, 58, 95
4, 220800, Note_off_c, 4, 51, 95
4, 220800, Note_on_c, 4, 56, 95
4, 220800, Note_on_c, 4, 51, 95
4, 221760, Note_off_c, 4, 56, 95
4, 221760, Note_off_c, 4, 51, 95
4, 221760, Note_on_c, 4, 58, 95
4, 221760, Note_on_c, 4, 51, 95
4, 222720, Note_off_c, 4, 58, 95
4, 222720, Note_off_c, 4, 51, 95
4, 222720, Note_on_c, 4, 44, 95
4, 222724, Note_on_c, 4, 51, 95
4, 222728, Note_on_c, 4, 56, 95
4, 223200, Note_off_c, 4, 56, 95
4, 223200, Note_off_c, 4, 51, 95
4, 223200, Note_off_c, 4, 44, 95
4, 223200, Note_on_c, 4, 56, 95
4, 223204, Note_on_c, 4, 51, 95
4, 223208, Note_on_c, 4, 44, 95
4, 223680, Note_off_c, 4, 56, 95
4, 223680, Note_off_c, 4, 51, 95
4, 223680, Note_off_c, 4, 44, 95
4, 223680, Note_on_c, 4, 44, 95
4, 223684, Note_on_c, 4, 51, 95
4, 223688, Note_on_c, 4, 56, 95
4, 224160, Note_off_c, 4, 56, 95
4, 224160, Note_off_c, 4, 51, 95
4, 224160, Note_off_c, 4, 44, 95
4, 224160, Note_on_c, 4, 56, 95
4, 224164, Note_on_c, 4, 51, 95
4, 224168, Note_on_c, 4, 44, 95
4, 224640, Note_off_c, 4, 56, 95
4, 224640, Note_off_c, 4, 51, 95
4, 224640, Note_off_c, 4, 44, 95
4, 224640, Note_on_c, 4, 44, 95
4, 224642, Note_on_c, 4, 51, 95
4, 224644, Note_on_c, 4, 56, 95
4, 224880, Note_off_c, 4, 56, 95
4, 224880, Note_off_c, 4, 51, 95
4, 224880, Note_off_c, 4, 44, 95
4, 225600, Note_on_c, 4, 58, 95
4, 225600, Note_on_c, 4, 51, 95
4, 226560, Note_off_c, 4, 58, 95
4, 226560, Note_off_c, 4, 51, 95
4, 226560, Note_on_c, 4, 59, 95
4, 226560, Note_on_c, 4, 51, 95
4, 227520, Note_off_c, 4, 59, 95
4, 227520, Note_off_c, 4, 51, 95
4, 227520, Note_on_c, 4, 58, 95
4, 227520, Note_on_c, 4, 51, 95
4, 228480, Note_off_c, 4, 58, 95
4, 228480, Note_off_c, 4, 51, 95
4, 228480, Note_on_c, 4, 56, 95
4, 228480, Note_on_c, 4, 51, 95
4, 229440, Note_off_c, 4, 56, 95
4, 229440, Note_off_c, 4, 51, 95
4, 229440, Note_on_c, 4, 58, 95
4, 229440, Note_on_c, 4, 51, 95
4, 230400, Note_off_c, 4, 58, 95
4, 230400, Note_off_c, 4, 51, 95
4, 230400, Note_on_c, 4, 46, 95
4, 230404, Note_on_c, 4, 53, 95
4, 230408, Note_on_c, 4, 58, 95
4, 230880, Note_off_c, 4, 58, 95
4, 230880, Note_off_c, 4, 53, 95
4, 230880, Note_off_c, 4, 46, 95
4, 230880, Note_on_c, 4, 58, 95
4, 230884, Note_on_c, 4, 53, 95
4, 230888, Note_on_c, 4, 46, 95
4, 231360, Note_off_c, 4, 58, 95
4, 231360, Note_off_c, 4, 53, 95
4, 231360, Note_off_c, 4, 46, 95
4, 231360, Note_on_c, 4, 46, 95
4, 231364, Note_on_c, 4, 53, 95
4, 231368, Note_on_c, 4, 58, 95
4, 231840, Note_off_c, 4, 58, 95
4, 231840, Note_off_c, 4, 53, 95
4, 231840, Note_off_c, 4, 46, 95
4, 231840, Note_on_c, 4, 58, 95
4, 231844, Note_on_c, 4, 53, 95
4, 231848, Note_on_c, 4, 46, 95
4, 232320, Note_off_c, 4, 58, 95
4, 232320, Note_off_c, 4, 53, 95
4, 232320, Note_off_c, 4, 46, 95
4, 232320, Note_on_c, 4, 46, 95
4, 232322, Note_on_c, 4, 53, 95
4, 232324, Note_on_c, 4, 58, 95
4, 232560, Note_off_c, 4, 58, 95
4, 232560, Note_off_c, 4, 53, 95
4, 232560, Note_off_c, 4, 46, 95
4, 233280, Note_on_c, 4, 58, 95
4, 234240, Note_off_c, 4, 58, 95
4, 234240, Note_on_c, 4, 56, 95
4, 234240, Note_on_c, 4, 51, 95
4, 235200, Note_off_c, 4, 56, 95
4, 235200, Note_off_c, 4, 51, 95
4, 235200, Note_on_c, 4, 58, 95
4, 235200, Note_on_c, 4, 51, 95
4, 236160, Note_off_c, 4, 58, 95
4, 236160, Note_off_c, 4, 51, 95
4, 236160, Note_on_c, 4, 56, 95
4, 236160, Note_on_c, 4, 51, 95
4, 237120, Note_off_c, 4, 56, 95
4, 237120, Note_off_c, 4, 51, 95
4, 237120, Note_on_c, 4, 58, 95
4, 237120, Note_on_c, 4, 51, 95
4, 238080, Note_off_c, 4, 58, 95
4, 238080, Note_off_c, 4, 51, 95
4, 238080, Note_on_c, 4, 44, 95
4, 238084, Note_on_c, 4, 51, 95
4, 238088, Note_on_c, 4, 56, 95
4, 240240, Note_off_c, 4, 56, 95
4, 240240, Note_off_c, 4, 51, 95
4, 240240, Note_off_c, 4, 44, 95
4, 245760, Note_on_c, 4, 54, 95
4, 245760, Note_on_c, 4, 49, 95
4, 245760, Note_on_c, 4, 42, 95
4, 249600, Note_off_c, 4, 54, 95
4, 249600, Note_off_c, 4, 49, 95
4, 249600, Note_off_c, 4, 42, 95
4, 249600, Note_on_c, 4, 59, 95
4, 249600, Note_on_c, 4, 54, 95
4, 249600, Note_on_c, 4, 47, 95
4, 253440, Note_off_c, 4, 59, 95
4, 253440, Note_off_c, 4, 54, 95
4, 253440, Note_off_c, 4, 47, 95
4, 253440, Note_on_c, 4, 59, 95
4, 253440, Note_on_c, 4, 54, 95
4, 253440, Note_on_c, 4, 47, 95
4, 254880, Note_off_c, 4, 59, 95
4, 254880, Note_off_c, 4, 54, 95
4, 254880, Note_off_c, 4, 47, 95
4, 254880, Note_on_c, 4, 60, 95
4, 254880, Note_on_c, 4, 55, 95
4, 254880, Note_on_c, 4, 48, 95
4, 256320, Note_off_c, 4, 60, 95
4, 256320, Note_off_c, 4, 55, 95
4, 256320, Note_off_c, 4, 48, 95
4, 256320, Note_on_c, 4, 61, 95
4, 256320, Note_on_c, 4, 56, 95
4, 256320, Note_on_c, 4, 49, 95
4, 257280, Note_off_c, 4, 61, 95
4, 257280, Note_off_c, 4, 56, 95
4, 257280, Note_off_c, 4, 49, 95
4, 257280, Pitch_bend_c, 5, 8192
4, 257280, Note_on_c, 5, 61, 95
4, 257367, Pitch_bend_c, 5, 8320
4, 257454, Pitch_bend_c, 5, 8448
4, 257541, Pitch_bend_c, 5, 8576
4, 257628, Pitch_bend_c, 5, 8704
4, 257715, Pitch_bend_c, 5, 8832
4, 257802, Pitch_bend_c, 5, 8960
4, 257889, Pitch_bend_c, 5, 9088
4, 257976, Pitch_bend_c, 5, 9216
4, 258063, Pitch_bend_c, 5, 9344
4, 258150, Pitch_bend_c, 5, 9472
4, 258237, Pitch_bend_c, 5, 9600
4, 258240, Pitch_bend_c, 5, 9600
4, 259200, Pitch_bend_c, 5, 9600
4, 259200, Pitch_bend_c, 5, 8192
4, 259200, Note_off_c, 5, 61, 95
4, 259200, Note_on_c, 4, 63, 95
4, 259680, Note_off_c, 4, 63, 95
4, 259680, Note_on_c, 4, 66, 95
4, 260160, Note_off_c, 4, 66, 95
4, 260160, Note_on_c, 4, 61, 95
4, 260640, Note_off_c, 4, 61, 95
4, 260640, Note_on_c, 4, 66, 95
4, 261120, Note_off_c, 4, 66, 95
4, 261120, Note_on_c, 4, 68, 95
4, 261360, Note_off_c, 4, 68, 95
4, 261360, Note_on_c, 4, 66, 95
4, 261600, Note_off_c, 4, 66, 95
4, 261600, Note_on_c, 4, 68, 95
4, 261840, Note_off_c, 4, 68, 95
4, 261840, Note_on_c, 4, 66, 95
4, 262080, Note_off_c, 4, 66, 95
4, 262080, Note_on_c, 4, 66, 95
4, 262320, Note_off_c, 4, 66, 95
4, 262320, Note_on_c, 4, 61, 95
4, 263280, Note_off_c, 4, 61, 95
4, 263280, Note_on_c, 4, 59, 95
4, 264240, Note_off_c, 4, 59, 95
4, 264240, Note_on_c, 4, 61, 95
4, 264960, Note_off_c, 4, 61, 95
4, 264960, Note_on_c, 4, 54, 95
4, 265920, Note_off_c, 4, 54, 95
4, 265920, Note_on_c, 4, 54, 95
4, 266880, Note_off_c, 4, 54, 95
4, 266880, Note_on_c, 4, 61, 95
4, 266880, Note_on_c, 4, 56, 95
4, 267840, Note_off_c, 4, 61, 95
4, 267840, Note_off_c, 4, 56, 95
4, 267840, Note_on_c, 4, 59, 95
4, 268320, Note_off_c, 4, 59, 95
4, 268320, Note_on_c, 4, 61, 95
4, 268800, Note_off_c, 4, 61, 95
4, 268800, End_track
5, 0, Start_track
5, 0, Pitch_bend_c, 9, 8192
5, 0, Control_c, 9, 7, 63
5, 0, Control_c, 9, 10, 63
5, 0, Control_c, 9, 93, 0
5, 0, Control_c, 9, 91, 0
5, 0, Control_c, 9, 95, 0
5, 0, Control_c, 9, 92, 0
5, 0, Control_c, 9, 11, 127
5, 0, Program_c, 9, 0
5, 26880, Note_on_c, 9, 36, 95
5, 26880, Note_on_c, 9, 46, 95
5, 26880, Note_on_c, 9, 35, 95
5, 26880, Note_on_c, 9, 38, 95
5, 28320, Note_off_c, 9, 36, 95
5, 28320, Note_off_c, 9, 46, 95
5, 28320, Note_off_c, 9, 35, 95
5, 28320, Note_off_c, 9, 38, 95
5, 28320, Note_on_c, 9, 36, 95
5, 28320, Note_on_c, 9, 46, 95
5, 28320, Note_on_c, 9, 38, 95
5, 29760, Note_off_c, 9, 36, 95
5, 29760, Note_off_c, 9, 46, 95
5, 29760, Note_off_c, 9, 38, 95
5, 29760, Note_on_c, 9, 40, 95
5, 29760, Note_on_c, 9, 46, 95
5, 29760, Note_on_c, 9, 38, 95
5, 30720, Note_off_c, 9, 40, 95
5, 30720, Note_off_c, 9, 46, 95
5, 30720, Note_off_c, 9, 38, 95
5, 30720, Note_on_c, 9, 36, 95
5, 30720, Note_on_c, 9, 46, 95
5, 30720, Note_on_c, 9, 35, 95
5, 30720, Note_on_c, 9, 38, 95
5, 31680, Note_off_c, 9, 36, 95
5, 31680, Note_off_c, 9, 46, 95
5, 31680, Note_off_c, 9, 35, 95
5, 31680, Note_off_c, 9, 38, 95
5, 31680, Note_on_c, 9, 46, 95
5, 32640, Note_off_c, 9, 46, 95
5, 32640, Note_on_c, 9, 36, 95
5, 32640, Note_on_c, 9, 46, 95
5, 33600, Note_off_c, 9, 36, 95
5, 33600, Note_off_c, 9, 46, 95
5, 33600, Note_on_c, 9, 40, 95
5, 33600, Note_on_c, 9, 46, 95
5, 34560, Note_off_c, 9, 40, 95
5, 34560, Note_off_c, 9, 46, 95
5, 34560, Note_on_c, 9, 36, 95
5, 34560, Note_on_c, 9, 46, 95
5, 34560, Note_on_c, 9, 35, 95
5, 34560, Note_on_c, 9, 38, 95
5, 35520, Note_off_c, 9, 36, 95
5, 35520, Note_off_c, 9, 46, 95
5, 35520, Note_off_c, 9, 35, 95
5, 35520, Note_off_c, 9, 38, 95
5, 35520, Note_on_c, 9, 46, 95
5, 36480, Note_off_c, 9, 46, 95
5, 36480, Note_on_c, 9, 36, 95
5, 36480, Note_on_c, 9, 46, 95
5, 37440, Note_off_c, 9, 36, 95
5, 37440, Note_off_c, 9, 46, 95
5, 37440, Note_on_c, 9, 40, 95
5, 37440, Note_on_c, 9, 46, 95
5, 38400, Note_off_c, 9, 40, 95
5, 38400, Note_off_c, 9, 46, 95
5, 38400, Note_on_c, 9, 36, 95
5, 38400, Note_on_c, 9, 46, 95
5, 38400, Note_on_c, 9, 35, 95
5, 38400, Note_on_c, 9, 38, 95
5, 39360, Note_off_c, 9, 36, 95
5, 39360, Note_off_c, 9, 46, 95
5, 39360, Note_off_c, 9, 35, 95
5, 39360, Note_off_c, 9, 38, 95
5, 39360, Note_on_c, 9, 46, 95
5, 40320, Note_off_c, 9, 46, 95
5, 40320, Note_on_c, 9, 36, 95
5, 40320, Note_on_c, 9, 46, 95
5, 41280, Note_off_c, 9, 36, 95
5, 41280, Note_off_c, 9, 46, 95
5, 41280, Note_on_c, 9, 40, 95
5, 41280, Note_on_c, 9, 46, 95
5, 42240, Note_off_c, 9, 40, 95
5, 42240, Note_off_c, 9, 46, 95
5, 42240, Note_on_c, 9, 36, 95
5, 42240, Note_on_c, 9, 46, 95
5, 42240, Note_on_c, 9, 35, 95
5, 42240, Note_on_c, 9, 38, 95
5, 43200, Note_off_c, 9, 36, 95
5, 43200, Note_off_c, 9, 46, 95
5, 43200, Note_off_c, 9, 35, 95
5, 43200, Note_off_c, 9, 38, 95
5, 43200, Note_on_c, 9, 46, 95
5, 44160, Note_off_c, 9, 46, 95
5, 44160, Note_on_c, 9, 36, 95
5, 44160, Note_on_c, 9, 46, 95
5, 45120, Note_off_c, 9, 36, 95
5, 45120, Note_off_c, 9, 46, 95
5, 45120, Note_on_c, 9, 40, 95
5, 45120, Note_on_c, 9, 46, 95
5, 46080, Note_off_c, 9, 40, 95
5, 46080, Note_off_c, 9, 46, 95
5, 46080, Note_on_c, 9, 36, 95
5, 46080, Note_on_c, 9, 46, 95
5, 46080, Note_on_c, 9, 35, 95
5, 46080, Note_on_c, 9, 38, 95
5, 47040, Note_off_c, 9, 36, 95
5, 47040, Note_off_c, 9, 46, 95
5, 47040, Note_off_c, 9, 35, 95
5, 47040, Note_off_c, 9, 38, 95
5, 47040, Note_on_c, 9, 46, 95
5, 48000, Note_off_c, 9, 46, 95
5, 48000, Note_on_c, 9, 36, 95
5, 48000, Note_on_c, 9, 46, 95
5, 48960, Note_off_c, 9, 36, 95
5, 48960, Note_off_c, 9, 46, 95
5, 48960, Note_on_c, 9, 40, 95
5, 48960, Note_on_c, 9, 46, 95
5, 49920, Note_off_c, 9, 40, 95
5, 49920, Note_off_c, 9, 46, 95
5, 49920, Note_on_c, 9, 36, 95
5, 49920, Note_on_c, 9, 46, 95
5, 49920, Note_on_c, 9, 35, 95
5, 49920, Note_on_c, 9, 38, 95
5, 50880, Note_off_c, 9, 36, 95
5, 50880, Note_off_c, 9, 46, 95
5, 50880, Note_off_c, 9, 35, 95
5, 50880, Note_off_c, 9, 38, 95
5, 50880, Note_on_c, 9, 46, 95
5, 51840, Note_off_c, 9, 46, 95
5, 51840, Note_on_c, 9, 36, 95
5, 51840, Note_on_c, 9, 46, 95
5, 52800, Note_off_c, 9, 36, 95
5, 52800, Note_off_c, 9, 46, 95
5, 52800, Note_on_c, 9, 40, 95
5, 52800, Note_on_c, 9, 46, 95
5, 53760, Note_off_c, 9, 40, 95
5, 53760, Note_off_c, 9, 46, 95
5, 53760, Note_on_c, 9, 36, 95
5, 53760, Note_on_c, 9, 46, 95
5, 53760, Note_on_c, 9, 35, 95
5, 53760, Note_on_c, 9, 38, 95
5, 54720, Note_off_c, 9, 36, 95
5, 54720, Note_off_c, 9, 46, 95
5, 54720, Note_off_c, 9, 35, 95
5, 54720, Note_off_c, 9, 38, 95
5, 54720, Note_on_c, 9, 46, 95
5, 55680, Note_off_c, 9, 46, 95
5, 55680, Note_on_c, 9, 36, 95
5, 55680, Note_on_c, 9, 46, 95
5, 56640, Note_off_c, 9, 36, 95
5, 56640, Note_off_c, 9, 46, 95
5, 56640, Note_on_c, 9, 40, 95
5, 56640, Note_on_c, 9, 46, 95
5, 57600, Note_off_c, 9, 40, 95
5, 57600, Note_off_c, 9, 46, 95
5, 57600, Note_on_c, 9, 36, 95
5, 57600, Note_on_c, 9, 46, 95
5, 57600, Note_on_c, 9, 35, 95
5, 57600, Note_on_c, 9, 38, 95
5, 59040, Note_off_c, 9, 36, 95
5, 59040, Note_off_c, 9, 46, 95
5, 59040, Note_off_c, 9, 35, 95
5, 59040, Note_off_c, 9, 38, 95
5, 59040, Note_on_c, 9, 36, 95
5, 59040, Note_on_c, 9, 46, 95
5, 59040, Note_on_c, 9, 38, 95
5, 60480, Note_off_c, 9, 36, 95
5, 60480, Note_off_c, 9, 46, 95
5, 60480, Note_off_c, 9, 38, 95
5, 60480, Note_on_c, 9, 40, 95
5, 60480, Note_on_c, 9, 46, 95
5, 60480, Note_on_c, 9, 38, 95
5, 61440, Note_off_c, 9, 40, 95
5, 61440, Note_off_c, 9, 46, 95
5, 61440, Note_off_c, 9, 38, 95
5, 61440, Note_on_c, 9, 36, 95
5, 61440, Note_on_c, 9, 46, 95
5, 61440, Note_on_c, 9, 35, 95
5, 61440, Note_on_c, 9, 38, 95
5, 62400, Note_off_c, 9, 36, 95
5, 62400, Note_off_c, 9, 46, 95
5, 62400, Note_off_c, 9, 35, 95
5, 62400, Note_off_c, 9, 38, 95
5, 62400, Note_on_c, 9, 46, 95
5, 63360, Note_off_c, 9, 46, 95
5, 63360, Note_on_c, 9, 36, 95
5, 63360, Note_on_c, 9, 46, 95
5, 64320, Note_off_c, 9, 36, 95
5, 64320, Note_off_c, 9, 46, 95
5, 64320, Note_on_c, 9, 40, 95
5, 64320, Note_on_c, 9, 46, 95
5, 65280, Note_off_c, 9, 40, 95
5, 65280, Note_off_c, 9, 46, 95
5, 65280, Note_on_c, 9, 36, 95
5, 65280, Note_on_c, 9, 46, 95
5, 65280, Note_on_c, 9, 35, 95
5, 65280, Note_on_c, 9, 38, 95
5, 66240, Note_off_c, 9, 36, 95
5, 66240, Note_off_c, 9, 46, 95
5, 66240, Note_off_c, 9, 35, 95
5, 66240, Note_off_c, 9, 38, 95
5, 66240, Note_on_c, 9, 46, 95
5, 67200, Note_off_c, 9, 46, 95
5, 67200, Note_on_c, 9, 36, 95
5, 67200, Note_on_c, 9, 46, 95
5, 68160, Note_off_c, 9, 36, 95
5, 68160, Note_off_c, 9, 46, 95
5, 68160, Note_on_c, 9, 40, 95
5, 68160, Note_on_c, 9, 46, 95
5, 69120, Note_off_c, 9, 40, 95
5, 69120, Note_off_c, 9, 46, 95
5, 69120, Note_on_c, 9, 36, 95
5, 69120, Note_on_c, 9, 46, 95
5, 69120, Note_on_c, 9, 35, 95
5, 69120, Note_on_c, 9, 38, 95
5, 70080, Note_off_c, 9, 36, 95
5, 70080, Note_off_c, 9, 46, 95
5, 70080, Note_off_c, 9, 35, 95
5, 70080, Note_off_c, 9, 38, 95
5, 70080, Note_on_c, 9, 46, 95
5, 71040, Note_off_c, 9, 46, 95
5, 71040, Note_on_c, 9, 36, 95
5, 71040, Note_on_c, 9, 46, 95
5, 72000, Note_off_c, 9, 36, 95
5, 72000, Note_off_c, 9, 46, 95
5, 72000, Note_on_c, 9, 40, 95
5, 72000, Note_on_c, 9, 46, 95
5, 72960, Note_off_c, 9, 40, 95
5, 72960, Note_off_c, 9, 46, 95
5, 72960, Note_on_c, 9, 36, 95
5, 72960, Note_on_c, 9, 46, 95
5, 72960, Note_on_c, 9, 35, 95
5, 72960, Note_on_c, 9, 38, 95
5, 73920, Note_off_c, 9, 36, 95
5, 73920, Note_off_c, 9, 46, 95
5, 73920, Note_off_c, 9, 35, 95
5, 73920, Note_off_c, 9, 38, 95
5, 73920, Note_on_c, 9, 46, 95
5, 74880, Note_off_c, 9, 46, 95
5, 74880, Note_on_c, 9, 36, 95
5, 74880, Note_on_c, 9, 46, 95
5, 75840, Note_off_c, 9, 36, 95
5, 75840, Note_off_c, 9, 46, 95
5, 75840, Note_on_c, 9, 40, 95
5, 75840, Note_on_c, 9, 46, 95
5, 76800, Note_off_c, 9, 40, 95
5, 76800, Note_off_c, 9, 46, 95
5, 76800, Note_on_c, 9, 36, 95
5, 76800, Note_on_c, 9, 46, 95
5, 76800, Note_on_c, 9, 35, 95
5, 76800, Note_on_c, 9, 38, 95
5, 77760, Note_off_c, 9, 36, 95
5, 77760, Note_off_c, 9, 46, 95
5, 77760, Note_off_c, 9, 35, 95
5, 77760, Note_off_c, 9, 38, 95
5, 77760, Note_on_c, 9, 46, 95
5, 78720, Note_off_c, 9, 46, 95
5, 78720, Note_on_c, 9, 36, 95
5, 78720, Note_on_c, 9, 46, 95
5, 79680, Note_off_c, 9, 36, 95
5, 79680, Note_off_c, 9, 46, 95
5, 79680, Note_on_c, 9, 40, 95
5, 79680, Note_on_c, 9, 46, 95
5, 80640, Note_off_c, 9, 40, 95
5, 80640, Note_off_c, 9, 46, 95
5, 80640, Note_on_c, 9, 36, 95
5, 80640, Note_on_c, 9, 46, 95
5, 80640, Note_on_c, 9, 35, 95
5, 80640, Note_on_c, 9, 38, 95
5, 81600, Note_off_c, 9, 36, 95
5, 81600, Note_off_c, 9, 46, 95
5, 81600, Note_off_c, 9, 35, 95
5, 81600, Note_off_c, 9, 38, 95
5, 81600, Note_on_c, 9, 46, 95
5, 82560, Note_off_c, 9, 46, 95
5, 82560, Note_on_c, 9, 36, 95
5, 82560, Note_on_c, 9, 46, 95
5, 83520, Note_off_c, 9, 36, 95
5, 83520, Note_off_c, 9, 46, 95
5, 83520, Note_on_c, 9, 40, 95
5, 83520, Note_on_c, 9, 46, 95
5, 84480, Note_off_c, 9, 40, 95
5, 84480, Note_off_c, 9, 46, 95
5, 84480, Note_on_c, 9, 36, 95
5, 84480, Note_on_c, 9, 46, 95
5, 84480, Note_on_c, 9, 35, 95
5, 84480, Note_on_c, 9, 38, 95
5, 85440, Note_off_c, 9, 36, 95
5, 85440, Note_off_c, 9, 46, 95
5, 85440, Note_off_c, 9, 35, 95
5, 85440, Note_off_c, 9, 38, 95
5, 85440, Note_on_c, 9, 46, 95
5, 86400, Note_off_c, 9, 46, 95
5, 86400, Note_on_c, 9, 36, 95
5, 86400, Note_on_c, 9, 46, 95
5, 87360, Note_off_c, 9, 36, 95
5, 87360, Note_off_c, 9, 46, 95
5, 87360, Note_on_c, 9, 40, 95
5, 87360, Note_on_c, 9, 46, 95
5, 88320, Note_off_c, 9, 40, 95
5, 88320, Note_off_c, 9, 46, 95
5, 88320, Note_on_c, 9, 36, 95
5, 88320, Note_on_c, 9, 46, 95
5, 88320, Note_on_c, 9, 35, 95
5, 88320, Note_on_c, 9, 38, 95
5, 89280, Note_off_c, 9, 36, 95
5, 89280, Note_off_c, 9, 46, 95
5, 89280, Note_off_c, 9, 35, 95
5, 89280, Note_off_c, 9, 38, 95
5, 89280, Note_on_c, 9, 46, 95
5, 90240, Note_off_c, 9, 46, 95
5, 90240, Note_on_c, 9, 36, 95
5, 90240, Note_on_c, 9, 46, 95
5, 91200, Note_off_c, 9, 36, 95
5, 91200, Note_off_c, 9, 46, 95
5, 91200, Note_on_c, 9, 40, 95
5, 91200, Note_on_c, 9, 46, 95
5, 92160, Note_off_c, 9, 40, 95
5, 92160, Note_off_c, 9, 46, 95
5, 92160, Note_on_c, 9, 36, 95
5, 92160, Note_on_c, 9, 46, 95
5, 92160, Note_on_c, 9, 35, 95
5, 92160, Note_on_c, 9, 38, 95
5, 93120, Note_off_c, 9, 36, 95
5, 93120, Note_off_c, 9, 46, 95
5, 93120, Note_off_c, 9, 35, 95
5, 93120, Note_off_c, 9, 38, 95
5, 93120, Note_on_c, 9, 46, 95
5, 94080, Note_off_c, 9, 46, 95
5, 94080, Note_on_c, 9, 36, 95
5, 94080, Note_on_c, 9, 46, 95
5, 95040, Note_off_c, 9, 36, 95
5, 95040, Note_off_c, 9, 46, 95
5, 95040, Note_on_c, 9, 40, 95
5, 95040, Note_on_c, 9, 46, 95
5, 96000, Note_off_c, 9, 40, 95
5, 96000, Note_off_c, 9, 46, 95
5, 96000, Note_on_c, 9, 36, 95
5, 96000, Note_on_c, 9, 46, 95
5, 96000, Note_on_c, 9, 35, 95
5, 96000, Note_on_c, 9, 38, 95
5, 96960, Note_off_c, 9, 36, 95
5, 96960, Note_off_c, 9, 46, 95
5, 96960, Note_off_c, 9, 35, 95
5, 96960, Note_off_c, 9, 38, 95
5, 96960, Note_on_c, 9, 46, 95
5, 97920, Note_off_c, 9, 46, 95
5, 97920, Note_on_c, 9, 36, 95
5, 97920, Note_on_c, 9, 46, 95
5, 98880, Note_off_c, 9, 36, 95
5, 98880, Note_off_c, 9, 46, 95
5, 98880, Note_on_c, 9, 40, 95
5, 98880, Note_on_c, 9, 46, 95
5, 99840, Note_off_c, 9, 40, 95
5, 99840, Note_off_c, 9, 46, 95
5, 99840, Note_on_c, 9, 36, 95
5, 99840, Note_on_c, 9, 46, 95
5, 99840, Note_on_c, 9, 35, 95
5, 99840, Note_on_c, 9, 38, 95
5, 100800, Note_off_c, 9, 36, 95
5, 100800, Note_off_c, 9, 46, 95
5, 100800, Note_off_c, 9, 35, 95
5, 100800, Note_off_c, 9, 38, 95
5, 100800, Note_on_c, 9, 46, 95
5, 101760, Note_off_c, 9, 46, 95
5, 101760, Note_on_c, 9, 36, 95
5, 101760, Note_on_c, 9, 46, 95
5, 102720, Note_off_c, 9, 36, 95
5, 102720, Note_off_c, 9, 46, 95
5, 102720, Note_on_c, 9, 40, 95
5, 102720, Note_on_c, 9, 46, 95
5, 103680, Note_off_c, 9, 40, 95
5, 103680, Note_off_c, 9, 46, 95
5, 103680, Note_on_c, 9, 36, 95
5, 103680, Note_on_c, 9, 46, 95
5, 103680, Note_on_c, 9, 35, 95
5, 103680, Note_on_c, 9, 38, 95
5, 105120, Note_off_c, 9, 36, 95
5, 105120, Note_off_c, 9, 46, 95
5, 105120, Note_off_c, 9, 35, 95
5, 105120, Note_off_c, 9, 38, 95
5, 105120, Note_on_c, 9, 36, 95
5, 105120, Note_on_c, 9, 46, 95
5, 105120, Note_on_c, 9, 38, 95
5, 106560, Note_off_c, 9, 36, 95
5, 106560, Note_off_c, 9, 46, 95
5, 106560, Note_off_c, 9, 38, 95
5, 106560, Note_on_c, 9, 40, 95
5, 106560, Note_on_c, 9, 46, 95
5, 106560, Note_on_c, 9, 38, 95
5, 107520, Note_off_c, 9, 40, 95
5, 107520, Note_off_c, 9, 46, 95
5, 107520, Note_off_c, 9, 38, 95
5, 107520, Note_on_c, 9, 36, 95
5, 107520, Note_on_c, 9, 46, 95
5, 107520, Note_on_c, 9, 35, 95
5, 107520, Note_on_c, 9, 38, 95
5, 108480, Note_off_c, 9, 36, 95
5, 108480, Note_off_c, 9, 46, 95
5, 108480, Note_off_c, 9, 35, 95
5, 108480, Note_off_c, 9, 38, 95
5, 108480, Note_on_c, 9, 46, 95
5, 109440, Note_off_c, 9, 46, 95
5, 109440, Note_on_c, 9, 36, 95
5, 109440, Note_on_c, 9, 46, 95
5, 110400, Note_off_c, 9, 36, 95
5, 110400, Note_off_c, 9, 46, 95
5, 110400, Note_on_c, 9, 40, 95
5, 110400, Note_on_c, 9, 46, 95
5, 111360, Note_off_c, 9, 40, 95
5, 111360, Note_off_c, 9, 46, 95
5, 111360, Note_on_c, 9, 36, 95
5, 111360, Note_on_c, 9, 46, 95
5, 111360, Note_on_c, 9, 35, 95
5, 111360, Note_on_c, 9, 38, 95
5, 112320, Note_off_c, 9, 36, 95
5, 112320, Note_off_c, 9, 46, 95
5, 112320, Note_off_c, 9, 35, 95
5, 112320, Note_off_c, 9, 38, 95
5, 112320, Note_on_c, 9, 46, 95
5, 113280, Note_off_c, 9, 46, 95
5, 113280, Note_on_c, 9, 36, 95
5, 113280, Note_on_c, 9, 46, 95
5, 114240, Note_off_c, 9, 36, 95
5, 114240, Note_off_c, 9, 46, 95
5, 114240, Note_on_c, 9, 40, 95
5, 114240, Note_on_c, 9, 46, 95
5, 115200, Note_off_c, 9, 40, 95
5, 115200, Note_off_c, 9, 46, 95
5, 115200, Note_on_c, 9, 36, 95
5, 115200, Note_on_c, 9, 46, 95
5, 115200, Note_on_c, 9, 35, 95
5, 115200, Note_on_c, 9, 38, 95
5, 116160, Note_off_c, 9, 36, 95
5, 116160, Note_off_c, 9, 46, 95
5, 116160, Note_off_c, 9, 35, 95
5, 116160, Note_off_c, 9, 38, 95
5, 116160, Note_on_c, 9, 46, 95
5, 117120, Note_off_c, 9, 46, 95
5, 117120, Note_on_c, 9, 36, 95
5, 117120, Note_on_c, 9, 46, 95
5, 118080, Note_off_c, 9, 36, 95
5, 118080, Note_off_c, 9, 46, 95
5, 118080, Note_on_c, 9, 40, 95
5, 118080, Note_on_c, 9, 46, 95
5, 119040, Note_off_c, 9, 40, 95
5, 119040, Note_off_c, 9, 46, 95
5, 119040, Note_on_c, 9, 36, 95
5, 119040, Note_on_c, 9, 46, 95
5, 119040, Note_on_c, 9, 35, 95
5, 119040, Note_on_c, 9, 38, 95
5, 120000, Note_off_c, 9, 36, 95
5, 120000, Note_off_c, 9, 46, 95
5, 120000, Note_off_c, 9, 35, 95
5, 120000, Note_off_c, 9, 38, 95
5, 120000, Note_on_c, 9, 46, 95
5, 120960, Note_off_c, 9, 46, 95
5, 120960, Note_on_c, 9, 36, 95
5, 120960, Note_on_c, 9, 46, 95
5, 121920, Note_off_c, 9, 36, 95
5, 121920, Note_off_c, 9, 46, 95
5, 121920, Note_on_c, 9, 40, 95
5, 121920, Note_on_c, 9, 46, 95
5, 122880, Note_off_c, 9, 40, 95
5, 122880, Note_off_c, 9, 46, 95
5, 122880, Note_on_c, 9, 36, 95
5, 122880, Note_on_c, 9, 46, 95
5, 122880, Note_on_c, 9, 35, 95
5, 122880, Note_on_c, 9, 38, 95
5, 123840, Note_off_c, 9, 36, 95
5, 123840, Note_off_c, 9, 46, 95
5, 123840, Note_off_c, 9, 35, 95
5, 123840, Note_off_c, 9, 38, 95
5, 123840, Note_on_c, 9, 46, 95
5, 124800, Note_off_c, 9, 46, 95
5, 124800, Note_on_c, 9, 36, 95
5, 124800, Note_on_c, 9, 46, 95
5, 125760, Note_off_c, 9, 36, 95
5, 125760, Note_off_c, 9, 46, 95
5, 125760, Note_on_c, 9, 40, 95
5, 125760, Note_on_c, 9, 46, 95
5, 126720, Note_off_c, 9, 40, 95
5, 126720, Note_off_c, 9, 46, 95
5, 126720, Note_on_c, 9, 36, 95
5, 126720, Note_on_c, 9, 46, 95
5, 126720, Note_on_c, 9, 35, 95
5, 126720, Note_on_c, 9, 38, 95
5, 127680, Note_off_c, 9, 36, 95
5, 127680, Note_off_c, 9, 46, 95
5, 127680, Note_off_c, 9, 35, 95
5, 127680, Note_off_c, 9, 38, 95
5, 127680, Note_on_c, 9, 46, 95
5, 128640, Note_off_c, 9, 46, 95
5, 128640, Note_on_c, 9, 36, 95
5, 128640, Note_on_c, 9, 46, 95
5, 129600, Note_off_c, 9, 36, 95
5, 129600, Note_off_c, 9, 46, 95
5, 129600, Note_on_c, 9, 40, 95
5, 129600, Note_on_c, 9, 46, 95
5, 130560, Note_off_c, 9, 40, 95
5, 130560, Note_off_c, 9, 46, 95
5, 130560, Note_on_c, 9, 36, 95
5, 130560, Note_on_c, 9, 46, 95
5, 130560, Note_on_c, 9, 35, 95
5, 130560, Note_on_c, 9, 38, 95
5, 131520, Note_off_c, 9, 36, 95
5, 131520, Note_off_c, 9, 46, 95
5, 131520, Note_off_c, 9, 35, 95
5, 131520, Note_off_c, 9, 38, 95
5, 131520, Note_on_c, 9, 46, 95
5, 132480, Note_off_c, 9, 46, 95
5, 132480, Note_on_c, 9, 36, 95
5, 132480, Note_on_c, 9, 46, 95
5, 133440, Note_off_c, 9, 36, 95
5, 133440, Note_off_c, 9, 46, 95
5, 133440, Note_on_c, 9, 40, 95
5, 133440, Note_on_c, 9, 46, 95
5, 134400, Note_off_c, 9, 40, 95
5, 134400, Note_off_c, 9, 46, 95
5, 134400, Note_on_c, 9, 36, 95
5, 134400, Note_on_c, 9, 46, 95
5, 134400, Note_on_c, 9, 35, 95
5, 134400, Note_on_c, 9, 38, 95
5, 135840, Note_off_c, 9, 36, 95
5, 135840, Note_off_c, 9, 46, 95
5, 135840, Note_off_c, 9, 35, 95
5, 135840, Note_off_c, 9, 38, 95
5, 135840, Note_on_c, 9, 36, 95
5, 135840, Note_on_c, 9, 46, 95
5, 135840, Note_on_c, 9, 38, 95
5, 137280, Note_off_c, 9, 36, 95
5, 137280, Note_off_c, 9, 46, 95
5, 137280, Note_off_c, 9, 38, 95
5, 137280, Note_on_c, 9, 40, 95
5, 137280, Note_on_c, 9, 46, 95
5, 137280, Note_on_c, 9, 38, 95
5, 138240, Note_off_c, 9, 40, 95
5, 138240, Note_off_c, 9, 46, 95
5, 138240, Note_off_c, 9, 38, 95
5, 138240, Note_on_c, 9, 36, 95
5, 138240, Note_on_c, 9, 46, 95
5, 138240, Note_on_c, 9, 35, 95
5, 138240, Note_on_c, 9, 38, 95
5, 139200, Note_off_c, 9, 36, 95
5, 139200, Note_off_c, 9, 46, 95
5, 139200, Note_off_c, 9, 35, 95
5, 139200, Note_off_c, 9, 38, 95
5, 139200, Note_on_c, 9, 46, 95
5, 140160, Note_off_c, 9, 46, 95
5, 140160, Note_on_c, 9, 36, 95
5, 140160, Note_on_c, 9, 46, 95
5, 141120, Note_off_c, 9, 36, 95
5, 141120, Note_off_c, 9, 46, 95
5, 141120, Note_on_c, 9, 40, 95
5, 141120, Note_on_c, 9, 46, 95
5, 142080, Note_off_c, 9, 40, 95
5, 142080, Note_off_c, 9, 46, 95
5, 142080, Note_on_c, 9, 36, 95
5, 142080, Note_on_c, 9, 46, 95
5, 142080, Note_on_c, 9, 35, 95
5, 142080, Note_on_c, 9, 38, 95
5, 143040, Note_off_c, 9, 36, 95
5, 143040, Note_off_c, 9, 46, 95
5, 143040, Note_off_c, 9, 35, 95
5, 143040, Note_off_c, 9, 38, 95
5, 143040, Note_on_c, 9, 46, 95
5, 144000, Note_off_c, 9, 46, 95
5, 144000, Note_on_c, 9, 36, 95
5, 144000, Note_on_c, 9, 46, 95
5, 144960, Note_off_c, 9, 36, 95
5, 144960, Note_off_c, 9, 46, 95
5, 144960, Note_on_c, 9, 40, 95
5, 144960, Note_on_c, 9, 46, 95
5, 145920, Note_off_c, 9, 40, 95
5, 145920, Note_off_c, 9, 46, 95
5, 145920, Note_on_c, 9, 36, 95
5, 145920, Note_on_c, 9, 46, 95
5, 145920, Note_on_c, 9, 35, 95
5, 145920, Note_on_c, 9, 38, 95
5, 146880, Note_off_c, 9, 36, 95
5, 146880, Note_off_c, 9, 46, 95
5, 146880, Note_off_c, 9, 35, 95
5, 146880, Note_off_c, 9, 38, 95
5, 146880, Note_on_c, 9, 46, 95
5, 147840, Note_off_c, 9, 46, 95
5, 147840, Note_on_c, 9, 36, 95
5, 147840, Note_on_c, 9, 46, 95
5, 148800, Note_off_c, 9, 36, 95
5, 148800, Note_off_c, 9, 46, 95
5, 148800, Note_on_c, 9, 40, 95
5, 148800, Note_on_c, 9, 46, 95
5, 149760, Note_off_c, 9, 40, 95
5, 149760, Note_off_c, 9, 46, 95
5, 149760, Note_on_c, 9, 36, 95
5, 149760, Note_on_c, 9, 46, 95
5, 149760, Note_on_c, 9, 35, 95
5, 149760, Note_on_c, 9, 38, 95
5, 150720, Note_off_c, 9, 36, 95
5, 150720, Note_off_c, 9, 46, 95
5, 150720, Note_off_c, 9, 35, 95
5, 150720, Note_off_c, 9, 38, 95
5, 150720, Note_on_c, 9, 46, 95
5, 151680, Note_off_c, 9, 46, 95
5, 151680, Note_on_c, 9, 36, 95
5, 151680, Note_on_c, 9, 46, 95
5, 152640, Note_off_c, 9, 36, 95
5, 152640, Note_off_c, 9, 46, 95
5, 152640, Note_on_c, 9, 40, 95
5, 152640, Note_on_c, 9, 46, 95
5, 153600, Note_off_c, 9, 40, 95
5, 153600, Note_off_c, 9, 46, 95
5, 153600, Note_on_c, 9, 36, 95
5, 153600, Note_on_c, 9, 46, 95
5, 153600, Note_on_c, 9, 35, 95
5, 153600, Note_on_c, 9, 38, 95
5, 154560, Note_off_c, 9, 36, 95
5, 154560, Note_off_c, 9, 46, 95
5, 154560, Note_off_c, 9, 35, 95
5, 154560, Note_off_c, 9, 38, 95
5, 154560, Note_on_c, 9, 46, 95
5, 155520, Note_off_c, 9, 46, 95
5, 155520, Note_on_c, 9, 36, 95
5, 155520, Note_on_c, 9, 46, 95
5, 156480, Note_off_c, 9, 36, 95
5, 156480, Note_off_c, 9, 46, 95
5, 156480, Note_on_c, 9, 40, 95
5, 156480, Note_on_c, 9, 46, 95
5, 157440, Note_off_c, 9, 40, 95
5, 157440, Note_off_c, 9, 46, 95
5, 157440, Note_on_c, 9, 36, 95
5, 157440, Note_on_c, 9, 46, 95
5, 157440, Note_on_c, 9, 35, 95
5, 157440, Note_on_c, 9, 38, 95
5, 158400, Note_off_c, 9, 36, 95
5, 158400, Note_off_c, 9, 46, 95
5, 158400, Note_off_c, 9, 35, 95
5, 158400, Note_off_c, 9, 38, 95
5, 158400, Note_on_c, 9, 46, 95
5, 159360, Note_off_c, 9, 46, 95
5, 159360, Note_on_c, 9, 36, 95
5, 159360, Note_on_c, 9, 46, 95
5, 160320, Note_off_c, 9, 36, 95
5, 160320, Note_off_c, 9, 46, 95
5, 160320, Note_on_c, 9, 40, 95
5, 160320, Note_on_c, 9, 46, 95
5, 161280, Note_off_c, 9, 40, 95
5, 161280, Note_off_c, 9, 46, 95
5, 161280, Note_on_c, 9, 36, 95
5, 161280, Note_on_c, 9, 46, 95
5, 161280, Note_on_c, 9, 35, 95
5, 161280, Note_on_c, 9, 38, 95
5, 162240, Note_off_c, 9, 36, 95
5, 162240, Note_off_c, 9, 46, 95
5, 162240, Note_off_c, 9, 35, 95
5, 162240, Note_off_c, 9, 38, 95
5, 162240, Note_on_c, 9, 46, 95
5, 163200, Note_off_c, 9, 46, 95
5, 163200, Note_on_c, 9, 36, 95
5, 163200, Note_on_c, 9, 46, 95
5, 164160, Note_off_c, 9, 36, 95
5, 164160, Note_off_c, 9, 46, 95
5, 164160, Note_on_c, 9, 40, 95
5, 164160, Note_on_c, 9, 46, 95
5, 165120, Note_off_c, 9, 40, 95
5, 165120, Note_off_c, 9, 46, 95
5, 165120, Note_on_c, 9, 36, 95
5, 165120, Note_on_c, 9, 46, 95
5, 165120, Note_on_c, 9, 35, 95
5, 165120, Note_on_c, 9, 38, 95
5, 166080, Note_off_c, 9, 36, 95
5, 166080, Note_off_c, 9, 46, 95
5, 166080, Note_off_c, 9, 35, 95
5, 166080, Note_off_c, 9, 38, 95
5, 166080, Note_on_c, 9, 46, 95
5, 167040, Note_off_c, 9, 46, 95
5, 167040, Note_on_c, 9, 36, 95
5, 167040, Note_on_c, 9, 46, 95
5, 168000, Note_off_c, 9, 36, 95
5, 168000, Note_off_c, 9, 46, 95
5, 168000, Note_on_c, 9, 40, 95
5, 168000, Note_on_c, 9, 46, 95
5, 168960, Note_off_c, 9, 40, 95
5, 168960, Note_off_c, 9, 46, 95
5, 168960, Note_on_c, 9, 36, 95
5, 168960, Note_on_c, 9, 46, 95
5, 168960, Note_on_c, 9, 35, 95
5, 168960, Note_on_c, 9, 38, 95
5, 169920, Note_off_c, 9, 36, 95
5, 169920, Note_off_c, 9, 46, 95
5, 169920, Note_off_c, 9, 35, 95
5, 169920, Note_off_c, 9, 38, 95
5, 169920, Note_on_c, 9, 46, 95
5, 170880, Note_off_c, 9, 46, 95
5, 170880, Note_on_c, 9, 36, 95
5, 170880, Note_on_c, 9, 46, 95
5, 171840, Note_off_c, 9, 36, 95
5, 171840, Note_off_c, 9, 46, 95
5, 171840, Note_on_c, 9, 40, 95
5, 171840, Note_on_c, 9, 46, 95
5, 172800, Note_off_c, 9, 40, 95
5, 172800, Note_off_c, 9, 46, 95
5, 172800, Note_on_c, 9, 36, 95
5, 172800, Note_on_c, 9, 46, 95
5, 172800, Note_on_c, 9, 35, 95
5, 172800, Note_on_c, 9, 38, 95
5, 173760, Note_off_c, 9, 36, 95
5, 173760, Note_off_c, 9, 46, 95
5, 173760, Note_off_c, 9, 35, 95
5, 173760, Note_off_c, 9, 38, 95
5, 173760, Note_on_c, 9, 46, 95
5, 174720, Note_off_c, 9, 46, 95
5, 174720, Note_on_c, 9, 36, 95
5, 174720, Note_on_c, 9, 46, 95
5, 175680, Note_off_c, 9, 36, 95
5, 175680, Note_off_c, 9, 46, 95
5, 175680, Note_on_c, 9, 40, 95
5, 175680, Note_on_c, 9, 46, 95
5, 176640, Note_off_c, 9, 40, 95
5, 176640, Note_off_c, 9, 46, 95
5, 176640, Note_on_c, 9, 36, 95
5, 176640, Note_on_c, 9, 46, 95
5, 176640, Note_on_c, 9, 35, 95
5, 176640, Note_on_c, 9, 38, 95
5, 177600, Note_off_c, 9, 36, 95
5, 177600, Note_off_c, 9, 46, 95
5, 177600, Note_off_c, 9, 35, 95
5, 177600, Note_off_c, 9, 38, 95
5, 177600, Note_on_c, 9, 46, 95
5, 178560, Note_off_c, 9, 46, 95
5, 178560, Note_on_c, 9, 36, 95
5, 178560, Note_on_c, 9, 46, 95
5, 179520, Note_off_c, 9, 36, 95
5, 179520, Note_off_c, 9, 46, 95
5, 179520, Note_on_c, 9, 40, 95
5, 179520, Note_on_c, 9, 46, 95
5, 180480, Note_off_c, 9, 40, 95
5, 180480, Note_off_c, 9, 46, 95
5, 180480, Note_on_c, 9, 36, 95
5, 180480, Note_on_c, 9, 46, 95
5, 180480, Note_on_c, 9, 35, 95
5, 180480, Note_on_c, 9, 38, 95
5, 181440, Note_off_c, 9, 36, 95
5, 181440, Note_off_c, 9, 46, 95
5, 181440, Note_off_c, 9, 35, 95
5, 181440, Note_off_c, 9, 38, 95
5, 181440, Note_on_c, 9, 46, 95
5, 182400, Note_off_c, 9, 46, 95
5, 182400, Note_on_c, 9, 36, 95
5, 182400, Note_on_c, 9, 46, 95
5, 183360, Note_off_c, 9, 36, 95
5, 183360, Note_off_c, 9, 46, 95
5, 183360, Note_on_c, 9, 40, 95
5, 183360, Note_on_c, 9, 46, 95
5, 184320, Note_off_c, 9, 40, 95
5, 184320, Note_off_c, 9, 46, 95
5, 184320, Note_on_c, 9, 36, 95
5, 184320, Note_on_c, 9, 46, 95
5, 184320, Note_on_c, 9, 35, 95
5, 184320, Note_on_c, 9, 38, 95
5, 185280, Note_off_c, 9, 36, 95
5, 185280, Note_off_c, 9, 46, 95
5, 185280, Note_off_c, 9, 35, 95
5, 185280, Note_off_c, 9, 38, 95
5, 185280, Note_on_c, 9, 46, 95
5, 186240, Note_off_c, 9, 46, 95
5, 186240, Note_on_c, 9, 36, 95
5, 186240, Note_on_c, 9, 46, 95
5, 187200, Note_off_c, 9, 36, 95
5, 187200, Note_off_c, 9, 46, 95
5, 187200, Note_on_c, 9, 40, 95
5, 187200, Note_on_c, 9, 46, 95
5, 188160, Note_off_c, 9, 40, 95
5, 188160, Note_off_c, 9, 46, 95
5, 188160, Note_on_c, 9, 36, 95
5, 188160, Note_on_c, 9, 46, 95
5, 188160, Note_on_c, 9, 35, 95
5, 188160, Note_on_c, 9, 38, 95
5, 189120, Note_off_c, 9, 36, 95
5, 189120, Note_off_c, 9, 46, 95
5, 189120, Note_off_c, 9, 35, 95
5, 189120, Note_off_c, 9, 38, 95
5, 189120, Note_on_c, 9, 46, 95
5, 190080, Note_off_c, 9, 46, 95
5, 190080, Note_on_c, 9, 36, 95
5, 190080, Note_on_c, 9, 46, 95
5, 191040, Note_off_c, 9, 36, 95
5, 191040, Note_off_c, 9, 46, 95
5, 191040, Note_on_c, 9, 40, 95
5, 191040, Note_on_c, 9, 46, 95
5, 192000, Note_off_c, 9, 40, 95
5, 192000, Note_off_c, 9, 46, 95
5, 192000, Note_on_c, 9, 36, 95
5, 192000, Note_on_c, 9, 46, 95
5, 192000, Note_on_c, 9, 35, 95
5, 192000, Note_on_c, 9, 38, 95
5, 192960, Note_off_c, 9, 36, 95
5, 192960, Note_off_c, 9, 46, 95
5, 192960, Note_off_c, 9, 35, 95
5, 192960, Note_off_c, 9, 38, 95
5, 192960, Note_on_c, 9, 46, 95
5, 193920, Note_off_c, 9, 46, 95
5, 193920, Note_on_c, 9, 36, 95
5, 193920, Note_on_c, 9, 46, 95
5, 194880, Note_off_c, 9, 36, 95
5, 194880, Note_off_c, 9, 46, 95
5, 194880, Note_on_c, 9, 40, 95
5, 194880, Note_on_c, 9, 46, 95
5, 195840, Note_off_c, 9, 40, 95
5, 195840, Note_off_c, 9, 46, 95
5, 195840, Note_on_c, 9, 36, 95
5, 195840, Note_on_c, 9, 46, 95
5, 195840, Note_on_c, 9, 35, 95
5, 195840, Note_on_c, 9, 38, 95
5, 196800, Note_off_c, 9, 36, 95
5, 196800, Note_off_c, 9, 46, 95
5, 196800, Note_off_c, 9, 35, 95
5, 196800, Note_off_c, 9, 38, 95
5, 196800, Note_on_c, 9, 46, 95
5, 197760, Note_off_c, 9, 46, 95
5, 197760, Note_on_c, 9, 36, 95
5, 197760, Note_on_c, 9, 46, 95
5, 198720, Note_off_c, 9, 36, 95
5, 198720, Note_off_c, 9, 46, 95
5, 198720, Note_on_c, 9, 40, 95
5, 198720, Note_on_c, 9, 46, 95
5, 199680, Note_off_c, 9, 40, 95
5, 199680, Note_off_c, 9, 46, 95
5, 199680, Note_on_c, 9, 36, 95
5, 199680, Note_on_c, 9, 46, 95
5, 199680, Note_on_c, 9, 35, 95
5, 199680, Note_on_c, 9, 38, 95
5, 200640, Note_off_c, 9, 36, 95
5, 200640, Note_off_c, 9, 46, 95
5, 200640, Note_off_c, 9, 35, 95
5, 200640, Note_off_c, 9, 38, 95
5, 200640, Note_on_c, 9, 46, 95
5, 201600, Note_off_c, 9, 46, 95
5, 201600, Note_on_c, 9, 36, 95
5, 201600, Note_on_c, 9, 46, 95
5, 202560, Note_off_c, 9, 36, 95
5, 202560, Note_off_c, 9, 46, 95
5, 202560, Note_on_c, 9, 40, 95
5, 202560, Note_on_c, 9, 46, 95
5, 203520, Note_off_c, 9, 40, 95
5, 203520, Note_off_c, 9, 46, 95
5, 203520, Note_on_c, 9, 36, 95
5, 203520, Note_on_c, 9, 46, 95
5, 203520, Note_on_c, 9, 35, 95
5, 203520, Note_on_c, 9, 38, 95
5, 204480, Note_off_c, 9, 36, 95
5, 204480, Note_off_c, 9, 46, 95
5, 204480, Note_off_c, 9, 35, 95
5, 204480, Note_off_c, 9, 38, 95
5, 204480, Note_on_c, 9, 46, 95
5, 205440, Note_off_c, 9, 46, 95
5, 205440, Note_on_c, 9, 36, 95
5, 205440, Note_on_c, 9, 46, 95
5, 206400, Note_off_c, 9, 36, 95
5, 206400, Note_off_c, 9, 46, 95
5, 206400, Note_on_c, 9, 40, 95
5, 206400, Note_on_c, 9, 46, 95
5, 207360, Note_off_c, 9, 40, 95
5, 207360, Note_off_c, 9, 46, 95
5, 207360, Note_on_c, 9, 36, 95
5, 207360, Note_on_c, 9, 46, 95
5, 207360, Note_on_c, 9, 35, 95
5, 207360, Note_on_c, 9, 38, 95
5, 208320, Note_off_c, 9, 36, 95
5, 208320, Note_off_c, 9, 46, 95
5, 208320, Note_off_c, 9, 35, 95
5, 208320, Note_off_c, 9, 38, 95
5, 208320, Note_on_c, 9, 46, 95
5, 209280, Note_off_c, 9, 46, 95
5, 209280, Note_on_c, 9, 36, 95
5, 209280, Note_on_c, 9, 46, 95
5, 210240, Note_off_c, 9, 36, 95
5, 210240, Note_off_c, 9, 46, 95
5, 210240, Note_on_c, 9, 40, 95
5, 210240, Note_on_c, 9, 46, 95
5, 211200, Note_off_c, 9, 40, 95
5, 211200, Note_off_c, 9, 46, 95
5, 211200, Note_on_c, 9, 36, 95
5, 211200, Note_on_c, 9, 46, 95
5, 211200, Note_on_c, 9, 35, 95
5, 211200, Note_on_c, 9, 38, 95
5, 212160, Note_off_c, 9, 36, 95
5, 212160, Note_off_c, 9, 46, 95
5, 212160, Note_off_c, 9, 35, 95
5, 212160, Note_off_c, 9, 38, 95
5, 212160, Note_on_c, 9, 46, 95
5, 213120, Note_off_c, 9, 46, 95
5, 213120, Note_on_c, 9, 36, 95
5, 213120, Note_on_c, 9, 46, 95
5, 214080, Note_off_c, 9, 36, 95
5, 214080, Note_off_c, 9, 46, 95
5, 214080, Note_on_c, 9, 40, 95
5, 214080, Note_on_c, 9, 46, 95
5, 215040, Note_off_c, 9, 40, 95
5, 215040, Note_off_c, 9, 46, 95
5, 215040, Note_on_c, 9, 36, 95
5, 215040, Note_on_c, 9, 46, 95
5, 215040, Note_on_c, 9, 35, 95
5, 215040, Note_on_c, 9, 38, 95
5, 216000, Note_off_c, 9, 36, 95
5, 216000, Note_off_c, 9, 46, 95
5, 216000, Note_off_c, 9, 35, 95
5, 216000, Note_off_c, 9, 38, 95
5, 216000, Note_on_c, 9, 46, 95
5, 216960, Note_off_c, 9, 46, 95
5, 216960, Note_on_c, 9, 36, 95
5, 216960, Note_on_c, 9, 46, 95
5, 217920, Note_off_c, 9, 36, 95
5, 217920, Note_off_c, 9, 46, 95
5, 217920, Note_on_c, 9, 40, 95
5, 217920, Note_on_c, 9, 46, 95
5, 218880, Note_off_c, 9, 40, 95
5, 218880, Note_off_c, 9, 46, 95
5, 218880, Note_on_c, 9, 36, 95
5, 218880, Note_on_c, 9, 46, 95
5, 218880, Note_on_c, 9, 35, 95
5, 218880, Note_on_c, 9, 38, 95
5, 219840, Note_off_c, 9, 36, 95
5, 219840, Note_off_c, 9, 46, 95
5, 219840, Note_off_c, 9, 35, 95
5, 219840, Note_off_c, 9, 38, 95
5, 219840, Note_on_c, 9, 46, 95
5, 220800, Note_off_c, 9, 46, 95
5, 220800, Note_on_c, 9, 36, 95
5, 220800, Note_on_c, 9, 46, 95
5, 221760, Note_off_c, 9, 36, 95
5, 221760, Note_off_c, 9, 46, 95
5, 221760, Note_on_c, 9, 40, 95
5, 221760, Note_on_c, 9, 46, 95
5, 222720, Note_off_c, 9, 40, 95
5, 222720, Note_off_c, 9, 46, 95
5, 222720, Note_on_c, 9, 36, 95
5, 222720, Note_on_c, 9, 46, 95
5, 222720, Note_on_c, 9, 35, 95
5, 222720, Note_on_c, 9, 38, 95
5, 223680, Note_off_c, 9, 36, 95
5, 223680, Note_off_c, 9, 46, 95
5, 223680, Note_off_c, 9, 35, 95
5, 223680, Note_off_c, 9, 38, 95
5, 223680, Note_on_c, 9, 46, 95
5, 224640, Note_off_c, 9, 46, 95
5, 224640, Note_on_c, 9, 36, 95
5, 224640, Note_on_c, 9, 46, 95
5, 225600, Note_off_c, 9, 36, 95
5, 225600, Note_off_c, 9, 46, 95
5, 225600, Note_on_c, 9, 40, 95
5, 225600, Note_on_c, 9, 46, 95
5, 226560, Note_off_c, 9, 40, 95
5, 226560, Note_off_c, 9, 46, 95
5, 226560, Note_on_c, 9, 36, 95
5, 226560, Note_on_c, 9, 46, 95
5, 226560, Note_on_c, 9, 35, 95
5, 226560, Note_on_c, 9, 38, 95
5, 227520, Note_off_c, 9, 36, 95
5, 227520, Note_off_c, 9, 46, 95
5, 227520, Note_off_c, 9, 35, 95
5, 227520, Note_off_c, 9, 38, 95
5, 227520, Note_on_c, 9, 46, 95
5, 228480, Note_off_c, 9, 46, 95
5, 228480, Note_on_c, 9, 36, 95
5, 228480, Note_on_c, 9, 46, 95
5, 229440, Note_off_c, 9, 36, 95
5, 229440, Note_off_c, 9, 46, 95
5, 229440, Note_on_c, 9, 40, 95
5, 229440, Note_on_c, 9, 46, 95
5, 230400, Note_off_c, 9, 40, 95
5, 230400, Note_off_c, 9, 46, 95
5, 230400, Note_on_c, 9, 36, 95
5, 230400, Note_on_c, 9, 46, 95
5, 230400, Note_on_c, 9, 35, 95
5, 230400, Note_on_c, 9, 38, 95
5, 231360, Note_off_c, 9, 36, 95
5, 231360, Note_off_c, 9, 46, 95
5, 231360, Note_off_c, 9, 35, 95
5, 231360, Note_off_c, 9, 38, 95
5, 231360, Note_on_c, 9, 46, 95
5, 232320, Note_off_c, 9, 46, 95
5, 232320, Note_on_c, 9, 36, 95
5, 232320, Note_on_c, 9, 46, 95
5, 233280, Note_off_c, 9, 36, 95
5, 233280, Note_off_c, 9, 46, 95
5, 233280, Note_on_c, 9, 40, 95
5, 233280, Note_on_c, 9, 46, 95
5, 234240, Note_off_c, 9, 40, 95
5, 234240, Note_off_c, 9, 46, 95
5, 234240, Note_on_c, 9, 36, 95
5, 234240, Note_on_c, 9, 46, 95
5, 234240, Note_on_c, 9, 35, 95
5, 234240, Note_on_c, 9, 38, 95
5, 235200, Note_off_c, 9, 36, 95
5, 235200, Note_off_c, 9, 46, 95
5, 235200, Note_off_c, 9, 35, 95
5, 235200, Note_off_c, 9, 38, 95
5, 235200, Note_on_c, 9, 46, 95
5, 236160, Note_off_c, 9, 46, 95
5, 236160, Note_on_c, 9, 36, 95
5, 236160, Note_on_c, 9, 46, 95
5, 237120, Note_off_c, 9, 36, 95
5, 237120, Note_off_c, 9, 46, 95
5, 237120, Note_on_c, 9, 40, 95
5, 237120, Note_on_c, 9, 46, 95
5, 238080, Note_off_c, 9, 40, 95
5, 238080, Note_off_c, 9, 46, 95
5, 238080, Note_on_c, 9, 36, 95
5, 238080, Note_on_c, 9, 46, 95
5, 238080, Note_on_c, 9, 35, 95
5, 238080, Note_on_c, 9, 38, 95
5, 239040, Note_off_c, 9, 36, 95
5, 239040, Note_off_c, 9, 46, 95
5, 239040, Note_off_c, 9, 35, 95
5, 239040, Note_off_c, 9, 38, 95
5, 239040, Note_on_c, 9, 46, 95
5, 240000, Note_off_c, 9, 46, 95
5, 240000, Note_on_c, 9, 36, 95
5, 240000, Note_on_c, 9, 46, 95
5, 240960, Note_off_c, 9, 36, 95
5, 240960, Note_off_c, 9, 46, 95
5, 240960, Note_on_c, 9, 40, 95
5, 240960, Note_on_c, 9, 46, 95
5, 241920, Note_off_c, 9, 40, 95
5, 241920, Note_off_c, 9, 46, 95
5, 241920, Note_on_c, 9, 36, 95
5, 241920, Note_on_c, 9, 46, 95
5, 241920, Note_on_c, 9, 35, 95
5, 241920, Note_on_c, 9, 38, 95
5, 242880, Note_off_c, 9, 36, 95
5, 242880, Note_off_c, 9, 46, 95
5, 242880, Note_off_c, 9, 35, 95
5, 242880, Note_off_c, 9, 38, 95
5, 242880, Note_on_c, 9, 46, 95
5, 243840, Note_off_c, 9, 46, 95
5, 243840, Note_on_c, 9, 36, 95
5, 243840, Note_on_c, 9, 46, 95
5, 244800, Note_off_c, 9, 36, 95
5, 244800, Note_off_c, 9, 46, 95
5, 244800, Note_on_c, 9, 40, 95
5, 244800, Note_on_c, 9, 46, 95
5, 245760, Note_off_c, 9, 40, 95
5, 245760, Note_off_c, 9, 46, 95
5, 245760, Note_on_c, 9, 36, 95
5, 245760, Note_on_c, 9, 46, 95
5, 245760, Note_on_c, 9, 35, 95
5, 245760, Note_on_c, 9, 38, 95
5, 246720, Note_off_c, 9, 36, 95
5, 246720, Note_off_c, 9, 46, 95
5, 246720, Note_off_c, 9, 35, 95
5, 246720, Note_off_c, 9, 38, 95
5, 246720, Note_on_c, 9, 46, 95
5, 247680, Note_off_c, 9, 46, 95
5, 247680, Note_on_c, 9, 36, 95
5, 247680, Note_on_c, 9, 46, 95
5, 248640, Note_off_c, 9, 36, 95
5, 248640, Note_off_c, 9, 46, 95
5, 248640, Note_on_c, 9, 40, 95
5, 248640, Note_on_c, 9, 46, 95
5, 249600, Note_off_c, 9, 40, 95
5, 249600, Note_off_c, 9, 46, 95
5, 253440, Note_on_c, 9, 36, 95
5, 253440, Note_on_c, 9, 46, 95
5, 253440, Note_on_c, 9, 35, 95
5, 253440, Note_on_c, 9, 38, 95
5, 254880, Note_off_c, 9, 36, 95
5, 254880, Note_off_c, 9, 46, 95
5, 254880, Note_off_c, 9, 35, 95
5, 254880, Note_off_c, 9, 38, 95
5, 254880, Note_on_c, 9, 36, 95
5, 254880, Note_on_c, 9, 46, 95
5, 254880, Note_on_c, 9, 38, 95
5, 256320, Note_off_c, 9, 36, 95
5, 256320, Note_off_c, 9, 46, 95
5, 256320, Note_off_c, 9, 38, 95
5, 256320, Note_on_c, 9, 40, 95
5, 256320, Note_on_c, 9, 46, 95
5, 256320, Note_on_c, 9, 38, 95
5, 257280, Note_off_c, 9, 40, 95
5, 257280, Note_off_c, 9, 46, 95
5, 257280, Note_off_c, 9, 38, 95
5, 257280, Note_on_c, 9, 36, 95
5, 257280, Note_on_c, 9, 46, 95
5, 257280, Note_on_c, 9, 35, 95
5, 257280, Note_on_c, 9, 38, 95
5, 258240, Note_off_c, 9, 36, 95
5, 258240, Note_off_c, 9, 46, 95
5, 258240, Note_off_c, 9, 35, 95
5, 258240, Note_off_c, 9, 38, 95
5, 258240, Note_on_c, 9, 46, 95
5, 259200, Note_off_c, 9, 46, 95
5, 259200, Note_on_c, 9, 36, 95
5, 259200, Note_on_c, 9, 46, 95
5, 260160, Note_off_c, 9, 36, 95
5, 260160, Note_off_c, 9, 46, 95
5, 260160, Note_on_c, 9, 40, 95
5, 260160, Note_on_c, 9, 46, 95
5, 261120, Note_off_c, 9, 40, 95
5, 261120, Note_off_c, 9, 46, 95
5, 261120, Note_on_c, 9, 36, 95
5, 261120, Note_on_c, 9, 46, 95
5, 261120, Note_on_c, 9, 35, 95
5, 261120, Note_on_c, 9, 38, 95
5, 262080, Note_off_c, 9, 36, 95
5, 262080, Note_off_c, 9, 46, 95
5, 262080, Note_off_c, 9, 35, 95
5, 262080, Note_off_c, 9, 38, 95
5, 262080, Note_on_c, 9, 46, 95
5, 263040, Note_off_c, 9, 46, 95
5, 263040, Note_on_c, 9, 36, 95
5, 263040, Note_on_c, 9, 46, 95
5, 264000, Note_off_c, 9, 36, 95
5, 264000, Note_off_c, 9, 46, 95
5, 264000, Note_on_c, 9, 40, 95
5, 264000, Note_on_c, 9, 46, 95
5, 264960, Note_off_c, 9, 40, 95
5, 264960, Note_off_c, 9, 46, 95
5, 264960, Note_on_c, 9, 36, 95
5, 264960, Note_on_c, 9, 46, 95
5, 264960, Note_on_c, 9, 35, 95
5, 264960, Note_on_c, 9, 38, 95
5, 265920, Note_off_c, 9, 36, 95
5, 265920, Note_off_c, 9, 46, 95
5, 265920, Note_off_c, 9, 35, 95
5, 265920, Note_off_c, 9, 38, 95
5, 265920, Note_on_c, 9, 46, 95
5, 266880, Note_off_c, 9, 46, 95
5, 266880, Note_on_c, 9, 36, 95
5, 266880, Note_on_c, 9, 46, 95
5, 267840, Note_off_c, 9, 36, 95
5, 267840, Note_off_c, 9, 46, 95
5, 267840, Note_on_c, 9, 40, 95
5, 267840, Note_on_c, 9, 46, 95
5, 268800, Note_off_c, 9, 40, 95
5, 268800, Note_off_c, 9, 46, 95
5, 268800, Note_on_c, 9, 36, 95
5, 268800, Note_on_c, 9, 46, 95
5, 268800, Note_on_c, 9, 35, 95
5, 268800, Note_on_c, 9, 38, 95
5, 269760, Note_off_c, 9, 36, 95
5, 269760, Note_off_c, 9, 46, 95
5, 269760, Note_off_c, 9, 35, 95
5, 269760, Note_off_c, 9, 38, 95
5, 269760, Note_on_c, 9, 46, 95
5, 270720, Note_off_c, 9, 46, 95
5, 270720, Note_on_c, 9, 36, 95
5, 270720, Note_on_c, 9, 46, 95
5, 271680, Note_off_c, 9, 36, 95
5, 271680, Note_off_c, 9, 46, 95
5, 271680, Note_on_c, 9, 40, 95
5, 271680, Note_on_c, 9, 46, 95
5, 272640, Note_off_c, 9, 40, 95
5, 272640, Note_off_c, 9, 46, 95
5, 272640, Note_on_c, 9, 36, 95
5, 272640, Note_on_c, 9, 46, 95
5, 272640, Note_on_c, 9, 35, 95
5, 272640, Note_on_c, 9, 38, 95
5, 273600, Note_off_c, 9, 36, 95
5, 273600, Note_off_c, 9, 46, 95
5, 273600, Note_off_c, 9, 35, 95
5, 273600, Note_off_c, 9, 38, 95
5, 273600, Note_on_c, 9, 46, 95
5, 274560, Note_off_c, 9, 46, 95
5, 274560, Note_on_c, 9, 36, 95
5, 274560, Note_on_c, 9, 46, 95
5, 275520, Note_off_c, 9, 36, 95
5, 275520, Note_off_c, 9, 46, 95
5, 275520, Note_on_c, 9, 40, 95
5, 275520, Note_on_c, 9, 46, 95
5, 276480, Note_off_c, 9, 40, 95
5, 276480, Note_off_c, 9, 46, 95
5, 276480, Note_on_c, 9, 36, 95
5, 276480, Note_on_c, 9, 46, 95
5, 276480, Note_on_c, 9, 35, 95
5, 276480, Note_on_c, 9, 38, 95
5, 277440, Note_off_c, 9, 36, 95
5, 277440, Note_off_c, 9, 46, 95
5, 277440, Note_off_c, 9, 35, 95
5, 277440, Note_off_c, 9, 38, 95
5, 277440, Note_on_c, 9, 46, 95
5, 278400, Note_off_c, 9, 46, 95
5, 278400, Note_on_c, 9, 36, 95
5, 278400, Note_on_c, 9, 46, 95
5, 279360, Note_off_c, 9, 36, 95
5, 279360, Note_off_c, 9, 46, 95
5, 279360, Note_on_c, 9, 40, 95
5, 279360, Note_on_c, 9, 46, 95
5, 280320, Note_off_c, 9, 40, 95
5, 280320, Note_off_c, 9, 46, 95
5, 280320, Note_on_c, 9, 36, 95
5, 280320, Note_on_c, 9, 46, 95
5, 280320, Note_on_c, 9, 35, 95
5, 280320, Note_on_c, 9, 38, 95
5, 281280, Note_off_c, 9, 36, 95
5, 281280, Note_off_c, 9, 46, 95
5, 281280, Note_off_c, 9, 35, 95
5, 281280, Note_off_c, 9, 38, 95
5, 281280, Note_on_c, 9, 46, 95
5, 282240, Note_off_c, 9, 46, 95
5, 282240, Note_on_c, 9, 36, 95
5, 282240, Note_on_c, 9, 46, 95
5, 283200, Note_off_c, 9, 36, 95
5, 283200, Note_off_c, 9, 46, 95
5, 283200, Note_on_c, 9, 40, 95
5, 283200, Note_on_c, 9, 46, 95
5, 284160, Note_off_c, 9, 40, 95
5, 284160, Note_off_c, 9, 46, 95
5, 284160, Note_on_c, 9, 36, 95
5, 284160, Note_on_c, 9, 46, 95
5, 284160, Note_on_c, 9, 35, 95
5, 284160, Note_on_c, 9, 38, 95
5, 285120, Note_off_c, 9, 36, 95
5, 285120, Note_off_c, 9, 46, 95
5, 285120, Note_off_c, 9, 35, 95
5, 285120, Note_off_c, 9, 38, 95
5, 285120, Note_on_c, 9, 46, 95
5, 286080, Note_off_c, 9, 46, 95
5, 286080, Note_on_c, 9, 36, 95
5, 286080, Note_on_c, 9, 46, 95
5, 287040, Note_off_c, 9, 36, 95
5, 287040, Note_off_c, 9, 46, 95
5, 287040, Note_on_c, 9, 40, 95
5, 287040, Note_on_c, 9, 46, 95
5, 288000, Note_off_c, 9, 40, 95
5, 288000, Note_off_c, 9, 46, 95
5, 288000, End_track
0, 0, End_of_file
