0, 0, Header, 1, 7, 192
1, 0, Start_track
1, 0, SMPTE_offset, 96, 0, 3, 0, 0
1, 0, Time_signature, 4, 2, 24, 8
1, 0, Key_signature, -1, "major"
1, 0, Tempo, 555556
1, 49152, Time_signature, 2, 2, 24, 8
1, 49536, Time_signature, 4, 2, 24, 8
1, 49536, End_track
2, 0, Start_track
2, 0, MIDI_port, 0
2, 0, Title_t, "Lead Vocals"
2, 0, Program_c, 0, 90
2, 0, Control_c, 0, 7, 127
2, 0, Control_c, 0, 10, 64
2, 9408, Note_on_c, 0, 69, 127
2, 9454, Note_on_c, 0, 69, 0
2, 9456, Note_on_c, 0, 67, 127
2, 9502, Note_on_c, 0, 67, 0
2, 9504, Note_on_c, 0, 65, 127
2, 9598, Note_on_c, 0, 65, 0
2, 9600, Note_on_c, 0, 67, 127
2, 9696, Note_on_c, 0, 67, 0
2, 9696, Note_on_c, 0, 65, 127
2, 9856, Note_on_c, 0, 65, 0
2, 9888, Note_on_c, 0, 65, 127
2, 9982, Note_on_c, 0, 65, 0
2, 9984, Note_on_c, 0, 65, 127
2, 10080, Note_on_c, 0, 65, 0
2, 10080, Note_on_c, 0, 62, 127
2, 10240, Note_on_c, 0, 62, 0
2, 10272, Note_on_c, 0, 60, 127
2, 10366, Note_on_c, 0, 60, 0
2, 10368, Note_on_c, 0, 62, 127
2, 10528, Note_on_c, 0, 62, 0
2, 10944, Note_on_c, 0, 69, 127
2, 10990, Note_on_c, 0, 69, 0
2, 10992, Note_on_c, 0, 67, 127
2, 11038, Note_on_c, 0, 67, 0
2, 11040, Note_on_c, 0, 65, 127
2, 11134, Note_on_c, 0, 65, 0
2, 11136, Note_on_c, 0, 67, 127
2, 11232, Note_on_c, 0, 67, 0
2, 11232, Note_on_c, 0, 65, 127
2, 11392, Note_on_c, 0, 65, 0
2, 11424, Note_on_c, 0, 65, 127
2, 11470, Note_on_c, 0, 65, 0
2, 11472, Note_on_c, 0, 65, 127
2, 11518, Note_on_c, 0, 65, 0
2, 11520, Note_on_c, 0, 67, 127
2, 11680, Note_on_c, 0, 67, 0
2, 11712, Note_on_c, 0, 69, 127
2, 11998, Note_on_c, 0, 69, 0
2, 12000, Note_on_c, 0, 67, 127
2, 12096, Note_on_c, 0, 67, 0
2, 12096, Note_on_c, 0, 65, 127
2, 12256, Note_on_c, 0, 65, 0
2, 12672, Note_on_c, 0, 60, 127
2, 12798, Note_on_c, 0, 60, 0
2, 12800, Note_on_c, 0, 64, 127
2, 12926, Note_on_c, 0, 64, 0
2, 12928, Note_on_c, 0, 65, 127
2, 13054, Note_on_c, 0, 65, 0
2, 13056, Note_on_c, 0, 67, 127
2, 13248, Note_on_c, 0, 67, 0
2, 13248, Note_on_c, 0, 65, 127
2, 13342, Note_on_c, 0, 65, 0
2, 13344, Note_on_c, 0, 65, 127
2, 13440, Note_on_c, 0, 65, 0
2, 13440, Note_on_c, 0, 64, 127
2, 13534, Note_on_c, 0, 64, 0
2, 13536, Note_on_c, 0, 64, 127
2, 13630, Note_on_c, 0, 64, 0
2, 13632, Note_on_c, 0, 64, 127
2, 13726, Note_on_c, 0, 64, 0
2, 13728, Note_on_c, 0, 65, 127
2, 13822, Note_on_c, 0, 65, 0
2, 13824, Note_on_c, 0, 62, 127
2, 14080, Note_on_c, 0, 62, 0
2, 14112, Note_on_c, 0, 62, 127
2, 14544, Note_on_c, 0, 62, 0
2, 15552, Note_on_c, 0, 69, 127
2, 15646, Note_on_c, 0, 69, 0
2, 15648, Note_on_c, 0, 67, 127
2, 15742, Note_on_c, 0, 67, 0
2, 15744, Note_on_c, 0, 67, 127
2, 15838, Note_on_c, 0, 67, 0
2, 15840, Note_on_c, 0, 65, 127
2, 15934, Note_on_c, 0, 65, 0
2, 16032, Note_on_c, 0, 65, 127
2, 16078, Note_on_c, 0, 65, 0
2, 16080, Note_on_c, 0, 65, 127
2, 16126, Note_on_c, 0, 65, 0
2, 16128, Note_on_c, 0, 67, 127
2, 16384, Note_on_c, 0, 67, 0
2, 16416, Note_on_c, 0, 62, 127
2, 16462, Note_on_c, 0, 62, 0
2, 16464, Note_on_c, 0, 60, 127
2, 16510, Note_on_c, 0, 60, 0
2, 16512, Note_on_c, 0, 62, 127
2, 16848, Note_on_c, 0, 62, 0
2, 17088, Note_on_c, 0, 69, 127
2, 17374, Note_on_c, 0, 69, 0
2, 17376, Note_on_c, 0, 67, 127
2, 17470, Note_on_c, 0, 67, 0
2, 17472, Note_on_c, 0, 67, 127
2, 17566, Note_on_c, 0, 67, 0
2, 17568, Note_on_c, 0, 65, 127
2, 17662, Note_on_c, 0, 65, 0
2, 17760, Note_on_c, 0, 69, 127
2, 17920, Note_on_c, 0, 69, 0
2, 17952, Note_on_c, 0, 69, 127
2, 18046, Note_on_c, 0, 69, 0
2, 18048, Note_on_c, 0, 70, 127
2, 18192, Note_on_c, 0, 70, 0
2, 18192, Note_on_c, 0, 72, 127
2, 18240, Note_on_c, 0, 72, 0
2, 18240, Note_on_c, 0, 69, 127
2, 18336, Note_on_c, 0, 69, 0
2, 18336, Note_on_c, 0, 70, 127
2, 18384, Note_on_c, 0, 70, 0
2, 18384, Note_on_c, 0, 69, 127
2, 18432, Note_on_c, 0, 69, 0
2, 18432, Note_on_c, 0, 67, 127
2, 18592, Note_on_c, 0, 67, 0
2, 18816, Note_on_c, 0, 69, 127
2, 18942, Note_on_c, 0, 69, 0
2, 18944, Note_on_c, 0, 69, 127
2, 19070, Note_on_c, 0, 69, 0
2, 19072, Note_on_c, 0, 69, 127
2, 19198, Note_on_c, 0, 69, 0
2, 19200, Note_on_c, 0, 70, 127
2, 19360, Note_on_c, 0, 70, 0
2, 19392, Note_on_c, 0, 69, 127
2, 19486, Note_on_c, 0, 69, 0
2, 19488, Note_on_c, 0, 67, 127
2, 19744, Note_on_c, 0, 67, 0
2, 19776, Note_on_c, 0, 65, 127
2, 19870, Note_on_c, 0, 65, 0
2, 19872, Note_on_c, 0, 64, 127
2, 20062, Note_on_c, 0, 64, 0
2, 20064, Note_on_c, 0, 65, 127
2, 20158, Note_on_c, 0, 65, 0
2, 20160, Note_on_c, 0, 64, 127
2, 20256, Note_on_c, 0, 64, 0
2, 20256, Note_on_c, 0, 65, 127
2, 20304, Note_on_c, 0, 65, 0
2, 20304, Note_on_c, 0, 64, 127
2, 20352, Note_on_c, 0, 64, 0
2, 20352, Note_on_c, 0, 62, 127
2, 21072, Note_on_c, 0, 62, 0
2, 21312, Note_on_c, 0, 65, 127
2, 21406, Note_on_c, 0, 65, 0
2, 21408, Note_on_c, 0, 65, 127
2, 21502, Note_on_c, 0, 65, 0
2, 21504, Note_on_c, 0, 65, 127
2, 21664, Note_on_c, 0, 65, 0
2, 21696, Note_on_c, 0, 65, 127
2, 21790, Note_on_c, 0, 65, 0
2, 21792, Note_on_c, 0, 67, 127
2, 21886, Note_on_c, 0, 67, 0
2, 21888, Note_on_c, 0, 69, 127
2, 21984, Note_on_c, 0, 69, 0
2, 21984, Note_on_c, 0, 67, 127
2, 22078, Note_on_c, 0, 67, 0
2, 22080, Note_on_c, 0, 67, 127
2, 22174, Note_on_c, 0, 67, 0
2, 22176, Note_on_c, 0, 65, 127
2, 22270, Note_on_c, 0, 65, 0
2, 22272, Note_on_c, 0, 67, 127
2, 22432, Note_on_c, 0, 67, 0
2, 22464, Note_on_c, 0, 67, 127
2, 22624, Note_on_c, 0, 67, 0
2, 22944, Note_on_c, 0, 69, 127
2, 23038, Note_on_c, 0, 69, 0
2, 23040, Note_on_c, 0, 69, 127
2, 23166, Note_on_c, 0, 69, 0
2, 23168, Note_on_c, 0, 67, 127
2, 23294, Note_on_c, 0, 67, 0
2, 23296, Note_on_c, 0, 65, 127
2, 23422, Note_on_c, 0, 65, 0
2, 23424, Note_on_c, 0, 69, 127
2, 23584, Note_on_c, 0, 69, 0
2, 23616, Note_on_c, 0, 69, 127
2, 23710, Note_on_c, 0, 69, 0
2, 23712, Note_on_c, 0, 69, 127
2, 23806, Note_on_c, 0, 69, 0
2, 23808, Note_on_c, 0, 70, 127
2, 24096, Note_on_c, 0, 70, 0
2, 24096, Note_on_c, 0, 72, 127
2, 24190, Note_on_c, 0, 72, 0
2, 24192, Note_on_c, 0, 69, 127
2, 24384, Note_on_c, 0, 69, 0
2, 24384, Note_on_c, 0, 67, 127
2, 24544, Note_on_c, 0, 67, 0
2, 24576, Note_on_c, 0, 65, 127
2, 24736, Note_on_c, 0, 65, 0
2, 24768, Note_on_c, 0, 65, 127
2, 24862, Note_on_c, 0, 65, 0
2, 24864, Note_on_c, 0, 67, 127
2, 24958, Note_on_c, 0, 67, 0
2, 24960, Note_on_c, 0, 69, 127
2, 25056, Note_on_c, 0, 69, 0
2, 25056, Note_on_c, 0, 67, 127
2, 25150, Note_on_c, 0, 67, 0
2, 25152, Note_on_c, 0, 67, 127
2, 25246, Note_on_c, 0, 67, 0
2, 25248, Note_on_c, 0, 65, 127
2, 25342, Note_on_c, 0, 65, 0
2, 25344, Note_on_c, 0, 67, 127
2, 25504, Note_on_c, 0, 67, 0
2, 25536, Note_on_c, 0, 67, 127
2, 25888, Note_on_c, 0, 67, 0
2, 29376, Note_on_c, 0, 69, 127
2, 29470, Note_on_c, 0, 69, 0
2, 29472, Note_on_c, 0, 67, 127
2, 29566, Note_on_c, 0, 67, 0
2, 29568, Note_on_c, 0, 67, 127
2, 29664, Note_on_c, 0, 67, 0
2, 29664, Note_on_c, 0, 65, 127
2, 29824, Note_on_c, 0, 65, 0
2, 29856, Note_on_c, 0, 65, 127
2, 29950, Note_on_c, 0, 65, 0
2, 29952, Note_on_c, 0, 67, 127
2, 30208, Note_on_c, 0, 67, 0
2, 30240, Note_on_c, 0, 69, 127
2, 30334, Note_on_c, 0, 69, 0
2, 30336, Note_on_c, 0, 67, 127
2, 30432, Note_on_c, 0, 67, 0
2, 30432, Note_on_c, 0, 65, 127
2, 30526, Note_on_c, 0, 65, 0
2, 30912, Note_on_c, 0, 69, 127
2, 31006, Note_on_c, 0, 69, 0
2, 31008, Note_on_c, 0, 67, 127
2, 31102, Note_on_c, 0, 67, 0
2, 31104, Note_on_c, 0, 67, 127
2, 31200, Note_on_c, 0, 67, 0
2, 31200, Note_on_c, 0, 65, 127
2, 31360, Note_on_c, 0, 65, 0
2, 31392, Note_on_c, 0, 65, 127
2, 31486, Note_on_c, 0, 65, 0
2, 31488, Note_on_c, 0, 69, 127
2, 31648, Note_on_c, 0, 69, 0
2, 31680, Note_on_c, 0, 69, 127
2, 31840, Note_on_c, 0, 69, 0
2, 31872, Note_on_c, 0, 70, 127
2, 32064, Note_on_c, 0, 70, 0
2, 32064, Note_on_c, 0, 72, 127
2, 32112, Note_on_c, 0, 72, 0
2, 32112, Note_on_c, 0, 69, 127
2, 32160, Note_on_c, 0, 69, 0
2, 32160, Note_on_c, 0, 70, 127
2, 32352, Note_on_c, 0, 70, 0
2, 32352, Note_on_c, 0, 72, 127
2, 32400, Note_on_c, 0, 72, 0
2, 32400, Note_on_c, 0, 70, 127
2, 32448, Note_on_c, 0, 70, 0
2, 32448, Note_on_c, 0, 69, 127
2, 32608, Note_on_c, 0, 69, 0
2, 32736, Note_on_c, 0, 69, 127
2, 32896, Note_on_c, 0, 69, 0
2, 32928, Note_on_c, 0, 69, 127
2, 33022, Note_on_c, 0, 69, 0
2, 33024, Note_on_c, 0, 67, 127
2, 33150, Note_on_c, 0, 67, 0
2, 33152, Note_on_c, 0, 67, 127
2, 33278, Note_on_c, 0, 67, 0
2, 33280, Note_on_c, 0, 65, 127
2, 33406, Note_on_c, 0, 65, 0
2, 33600, Note_on_c, 0, 64, 127
2, 33646, Note_on_c, 0, 64, 0
2, 33648, Note_on_c, 0, 64, 127
2, 33694, Note_on_c, 0, 64, 0
2, 33696, Note_on_c, 0, 64, 127
2, 33790, Note_on_c, 0, 64, 0
2, 33792, Note_on_c, 0, 62, 127
2, 34048, Note_on_c, 0, 62, 0
2, 34080, Note_on_c, 0, 62, 127
2, 34512, Note_on_c, 0, 62, 0
2, 35520, Note_on_c, 0, 69, 127
2, 35680, Note_on_c, 0, 69, 0
2, 35712, Note_on_c, 0, 67, 127
2, 35808, Note_on_c, 0, 67, 0
2, 35808, Note_on_c, 0, 65, 127
2, 35902, Note_on_c, 0, 65, 0
2, 36000, Note_on_c, 0, 65, 127
2, 36046, Note_on_c, 0, 65, 0
2, 36048, Note_on_c, 0, 65, 127
2, 36094, Note_on_c, 0, 65, 0
2, 36096, Note_on_c, 0, 69, 127
2, 36352, Note_on_c, 0, 69, 0
2, 36384, Note_on_c, 0, 70, 127
2, 36478, Note_on_c, 0, 70, 0
2, 36480, Note_on_c, 0, 69, 127
2, 36576, Note_on_c, 0, 69, 0
2, 36576, Note_on_c, 0, 67, 127
2, 36670, Note_on_c, 0, 67, 0
2, 36960, Note_on_c, 0, 69, 127
2, 37054, Note_on_c, 0, 69, 0
2, 37056, Note_on_c, 0, 69, 127
2, 37150, Note_on_c, 0, 69, 0
2, 37152, Note_on_c, 0, 67, 127
2, 37246, Note_on_c, 0, 67, 0
2, 37248, Note_on_c, 0, 67, 127
2, 37342, Note_on_c, 0, 67, 0
2, 37344, Note_on_c, 0, 65, 127
2, 37438, Note_on_c, 0, 65, 0
2, 37440, Note_on_c, 0, 67, 127
2, 37534, Note_on_c, 0, 67, 0
2, 37536, Note_on_c, 0, 65, 127
2, 37582, Note_on_c, 0, 65, 0
2, 37584, Note_on_c, 0, 65, 127
2, 37630, Note_on_c, 0, 65, 0
2, 37632, Note_on_c, 0, 69, 127
2, 37726, Note_on_c, 0, 69, 0
2, 37728, Note_on_c, 0, 69, 127
2, 37822, Note_on_c, 0, 69, 0
2, 37824, Note_on_c, 0, 70, 127
2, 37918, Note_on_c, 0, 70, 0
2, 37920, Note_on_c, 0, 69, 127
2, 38016, Note_on_c, 0, 69, 0
2, 38016, Note_on_c, 0, 70, 127
2, 38160, Note_on_c, 0, 70, 0
2, 38160, Note_on_c, 0, 72, 127
2, 38208, Note_on_c, 0, 72, 0
2, 38208, Note_on_c, 0, 69, 127
2, 38304, Note_on_c, 0, 69, 0
2, 38304, Note_on_c, 0, 70, 127
2, 38352, Note_on_c, 0, 70, 0
2, 38352, Note_on_c, 0, 69, 127
2, 38400, Note_on_c, 0, 69, 0
2, 38400, Note_on_c, 0, 67, 127
2, 38560, Note_on_c, 0, 67, 0
2, 39072, Note_on_c, 0, 69, 127
2, 39166, Note_on_c, 0, 69, 0
2, 39168, Note_on_c, 0, 70, 127
2, 39328, Note_on_c, 0, 70, 0
2, 39360, Note_on_c, 0, 69, 127
2, 39454, Note_on_c, 0, 69, 0
2, 39456, Note_on_c, 0, 67, 127
2, 39550, Note_on_c, 0, 67, 0
2, 39552, Note_on_c, 0, 67, 127
2, 39646, Note_on_c, 0, 67, 0
2, 39648, Note_on_c, 0, 67, 127
2, 39742, Note_on_c, 0, 67, 0
2, 39744, Note_on_c, 0, 65, 127
2, 39838, Note_on_c, 0, 65, 0
2, 39840, Note_on_c, 0, 64, 127
2, 39934, Note_on_c, 0, 64, 0
2, 40032, Note_on_c, 0, 69, 127
2, 40126, Note_on_c, 0, 69, 0
2, 40128, Note_on_c, 0, 69, 127
2, 40174, Note_on_c, 0, 69, 0
2, 40176, Note_on_c, 0, 67, 127
2, 40222, Note_on_c, 0, 67, 0
2, 40224, Note_on_c, 0, 65, 127
2, 40318, Note_on_c, 0, 65, 0
2, 40320, Note_on_c, 0, 67, 127
2, 40608, Note_on_c, 0, 67, 0
2, 40608, Note_on_c, 0, 69, 127
2, 40704, Note_on_c, 0, 69, 0
2, 40704, Note_on_c, 0, 67, 127
2, 40800, Note_on_c, 0, 67, 0
2, 40800, Note_on_c, 0, 69, 127
2, 40848, Note_on_c, 0, 69, 0
2, 40848, Note_on_c, 0, 67, 127
2, 40896, Note_on_c, 0, 67, 0
2, 40896, Note_on_c, 0, 65, 127
2, 41056, Note_on_c, 0, 65, 0
2, 41280, Note_on_c, 0, 65, 127
2, 41374, Note_on_c, 0, 65, 0
2, 41376, Note_on_c, 0, 65, 127
2, 41470, Note_on_c, 0, 65, 0
2, 41472, Note_on_c, 0, 65, 127
2, 41632, Note_on_c, 0, 65, 0
2, 41664, Note_on_c, 0, 65, 127
2, 41758, Note_on_c, 0, 65, 0
2, 41760, Note_on_c, 0, 67, 127
2, 41854, Note_on_c, 0, 67, 0
2, 41856, Note_on_c, 0, 69, 127
2, 41952, Note_on_c, 0, 69, 0
2, 41952, Note_on_c, 0, 67, 127
2, 42046, Note_on_c, 0, 67, 0
2, 42048, Note_on_c, 0, 67, 127
2, 42142, Note_on_c, 0, 67, 0
2, 42144, Note_on_c, 0, 65, 127
2, 42238, Note_on_c, 0, 65, 0
2, 42240, Note_on_c, 0, 67, 127
2, 42400, Note_on_c, 0, 67, 0
2, 42432, Note_on_c, 0, 67, 127
2, 42592, Note_on_c, 0, 67, 0
2, 42912, Note_on_c, 0, 69, 127
2, 43006, Note_on_c, 0, 69, 0
2, 43008, Note_on_c, 0, 69, 127
2, 43134, Note_on_c, 0, 69, 0
2, 43136, Note_on_c, 0, 67, 127
2, 43262, Note_on_c, 0, 67, 0
2, 43264, Note_on_c, 0, 65, 127
2, 43390, Note_on_c, 0, 65, 0
2, 43392, Note_on_c, 0, 69, 127
2, 43552, Note_on_c, 0, 69, 0
2, 43584, Note_on_c, 0, 69, 127
2, 43678, Note_on_c, 0, 69, 0
2, 43680, Note_on_c, 0, 69, 127
2, 43774, Note_on_c, 0, 69, 0
2, 43776, Note_on_c, 0, 70, 127
2, 44064, Note_on_c, 0, 70, 0
2, 44064, Note_on_c, 0, 72, 127
2, 44158, Note_on_c, 0, 72, 0
2, 44160, Note_on_c, 0, 69, 127
2, 44352, Note_on_c, 0, 69, 0
2, 44352, Note_on_c, 0, 67, 127
2, 44512, Note_on_c, 0, 67, 0
2, 44544, Note_on_c, 0, 65, 127
2, 44704, Note_on_c, 0, 65, 0
2, 44736, Note_on_c, 0, 65, 127
2, 44830, Note_on_c, 0, 65, 0
2, 44832, Note_on_c, 0, 67, 127
2, 44926, Note_on_c, 0, 67, 0
2, 44928, Note_on_c, 0, 69, 127
2, 45024, Note_on_c, 0, 69, 0
2, 45024, Note_on_c, 0, 67, 127
2, 45118, Note_on_c, 0, 67, 0
2, 45120, Note_on_c, 0, 67, 127
2, 45214, Note_on_c, 0, 67, 0
2, 45216, Note_on_c, 0, 65, 127
2, 45310, Note_on_c, 0, 65, 0
2, 45312, Note_on_c, 0, 67, 127
2, 45472, Note_on_c, 0, 67, 0
2, 45504, Note_on_c, 0, 67, 127
2, 45856, Note_on_c, 0, 67, 0
2, 46080, Note_on_c, 0, 69, 127
2, 46368, Note_on_c, 0, 69, 0
2, 46368, Note_on_c, 0, 67, 127
2, 46416, Note_on_c, 0, 67, 0
2, 46416, Note_on_c, 0, 69, 127
2, 46464, Note_on_c, 0, 69, 0
2, 46464, Note_on_c, 0, 67, 127
2, 46752, Note_on_c, 0, 67, 0
2, 46752, Note_on_c, 0, 65, 127
2, 46800, Note_on_c, 0, 65, 0
2, 46800, Note_on_c, 0, 67, 127
2, 46848, Note_on_c, 0, 67, 0
2, 46848, Note_on_c, 0, 65, 127
2, 47568, Note_on_c, 0, 65, 0
2, 47808, Note_on_c, 0, 67, 127
2, 48000, Note_on_c, 0, 67, 0
2, 48000, Note_on_c, 0, 65, 127
2, 48096, Note_on_c, 0, 65, 0
2, 48096, Note_on_c, 0, 62, 127
2, 48192, Note_on_c, 0, 62, 0
2, 48192, Note_on_c, 0, 60, 127
2, 48288, Note_on_c, 0, 60, 0
2, 48288, Note_on_c, 0, 62, 127
2, 48720, Note_on_c, 0, 62, 0
2, 48960, Note_on_c, 0, 62, 127
2, 49054, Note_on_c, 0, 62, 0
2, 49056, Note_on_c, 0, 62, 127
2, 49150, Note_on_c, 0, 62, 0
2, 49152, Note_on_c, 0, 65, 127
2, 49246, Note_on_c, 0, 65, 0
2, 49248, Note_on_c, 0, 62, 127
2, 49342, Note_on_c, 0, 62, 0
2, 60096, Note_on_c, 0, 69, 127
2, 60190, Note_on_c, 0, 69, 0
2, 60192, Note_on_c, 0, 67, 127
2, 60286, Note_on_c, 0, 67, 0
2, 60288, Note_on_c, 0, 65, 127
2, 60448, Note_on_c, 0, 65, 0
2, 60480, Note_on_c, 0, 65, 127
2, 60574, Note_on_c, 0, 65, 0
2, 60576, Note_on_c, 0, 67, 127
2, 60670, Note_on_c, 0, 67, 0
2, 60672, Note_on_c, 0, 69, 127
2, 60768, Note_on_c, 0, 69, 0
2, 60768, Note_on_c, 0, 67, 127
2, 60862, Note_on_c, 0, 67, 0
2, 60864, Note_on_c, 0, 67, 127
2, 60958, Note_on_c, 0, 67, 0
2, 60960, Note_on_c, 0, 65, 127
2, 61054, Note_on_c, 0, 65, 0
2, 61056, Note_on_c, 0, 67, 127
2, 61216, Note_on_c, 0, 67, 0
2, 61248, Note_on_c, 0, 67, 127
2, 61408, Note_on_c, 0, 67, 0
2, 61728, Note_on_c, 0, 69, 127
2, 61822, Note_on_c, 0, 69, 0
2, 61824, Note_on_c, 0, 69, 127
2, 61950, Note_on_c, 0, 69, 0
2, 61952, Note_on_c, 0, 67, 127
2, 62078, Note_on_c, 0, 67, 0
2, 62080, Note_on_c, 0, 65, 127
2, 62206, Note_on_c, 0, 65, 0
2, 62208, Note_on_c, 0, 69, 127
2, 62368, Note_on_c, 0, 69, 0
2, 62400, Note_on_c, 0, 69, 127
2, 62494, Note_on_c, 0, 69, 0
2, 62496, Note_on_c, 0, 69, 127
2, 62590, Note_on_c, 0, 69, 0
2, 62592, Note_on_c, 0, 70, 127
2, 62880, Note_on_c, 0, 70, 0
2, 62880, Note_on_c, 0, 72, 127
2, 62974, Note_on_c, 0, 72, 0
2, 62976, Note_on_c, 0, 69, 127
2, 63168, Note_on_c, 0, 69, 0
2, 63168, Note_on_c, 0, 67, 127
2, 63328, Note_on_c, 0, 67, 0
2, 63360, Note_on_c, 0, 65, 127
2, 63520, Note_on_c, 0, 65, 0
2, 63552, Note_on_c, 0, 65, 127
2, 63646, Note_on_c, 0, 65, 0
2, 63648, Note_on_c, 0, 67, 127
2, 63742, Note_on_c, 0, 67, 0
2, 63744, Note_on_c, 0, 69, 127
2, 63840, Note_on_c, 0, 69, 0
2, 63840, Note_on_c, 0, 67, 127
2, 63934, Note_on_c, 0, 67, 0
2, 63936, Note_on_c, 0, 67, 127
2, 64030, Note_on_c, 0, 67, 0
2, 64032, Note_on_c, 0, 65, 127
2, 64126, Note_on_c, 0, 65, 0
2, 64128, Note_on_c, 0, 67, 127
2, 64288, Note_on_c, 0, 67, 0
2, 64320, Note_on_c, 0, 67, 127
2, 64672, Note_on_c, 0, 67, 0
2, 64896, Note_on_c, 0, 69, 127
2, 64942, Note_on_c, 0, 69, 0
2, 64944, Note_on_c, 0, 69, 127
2, 65086, Note_on_c, 0, 69, 0
2, 65088, Note_on_c, 0, 69, 127
2, 65182, Note_on_c, 0, 69, 0
2, 65184, Note_on_c, 0, 67, 127
2, 65278, Note_on_c, 0, 67, 0
2, 65328, Note_on_c, 0, 65, 127
2, 65422, Note_on_c, 0, 65, 0
2, 65424, Note_on_c, 0, 65, 127
2, 65518, Note_on_c, 0, 65, 0
2, 65520, Note_on_c, 0, 62, 127
2, 65616, Note_on_c, 0, 62, 0
2, 65616, Note_on_c, 0, 60, 127
2, 65662, Note_on_c, 0, 60, 0
2, 65664, Note_on_c, 0, 62, 127
2, 66384, Note_on_c, 0, 62, 0
2, 67776, Note_on_c, 0, 69, 127
2, 67870, Note_on_c, 0, 69, 0
2, 67872, Note_on_c, 0, 67, 127
2, 67966, Note_on_c, 0, 67, 0
2, 67968, Note_on_c, 0, 65, 127
2, 68128, Note_on_c, 0, 65, 0
2, 68160, Note_on_c, 0, 65, 127
2, 68254, Note_on_c, 0, 65, 0
2, 68256, Note_on_c, 0, 67, 127
2, 68350, Note_on_c, 0, 67, 0
2, 68352, Note_on_c, 0, 69, 127
2, 68448, Note_on_c, 0, 69, 0
2, 68448, Note_on_c, 0, 67, 127
2, 68542, Note_on_c, 0, 67, 0
2, 68544, Note_on_c, 0, 67, 127
2, 68638, Note_on_c, 0, 67, 0
2, 68640, Note_on_c, 0, 65, 127
2, 68734, Note_on_c, 0, 65, 0
2, 68736, Note_on_c, 0, 67, 127
2, 68896, Note_on_c, 0, 67, 0
2, 68928, Note_on_c, 0, 67, 127
2, 69088, Note_on_c, 0, 67, 0
2, 69408, Note_on_c, 0, 69, 127
2, 69502, Note_on_c, 0, 69, 0
2, 69504, Note_on_c, 0, 69, 127
2, 69630, Note_on_c, 0, 69, 0
2, 69632, Note_on_c, 0, 67, 127
2, 69758, Note_on_c, 0, 67, 0
2, 69760, Note_on_c, 0, 65, 127
2, 69886, Note_on_c, 0, 65, 0
2, 69888, Note_on_c, 0, 69, 127
2, 70048, Note_on_c, 0, 69, 0
2, 70080, Note_on_c, 0, 69, 127
2, 70174, Note_on_c, 0, 69, 0
2, 70176, Note_on_c, 0, 69, 127
2, 70270, Note_on_c, 0, 69, 0
2, 70272, Note_on_c, 0, 70, 127
2, 70560, Note_on_c, 0, 70, 0
2, 70560, Note_on_c, 0, 72, 127
2, 70656, Note_on_c, 0, 72, 0
2, 70656, Note_on_c, 0, 69, 127
2, 70848, Note_on_c, 0, 69, 0
2, 70848, Note_on_c, 0, 67, 127
2, 71008, Note_on_c, 0, 67, 0
2, 71040, Note_on_c, 0, 65, 127
2, 71200, Note_on_c, 0, 65, 0
2, 71232, Note_on_c, 0, 65, 127
2, 71326, Note_on_c, 0, 65, 0
2, 71328, Note_on_c, 0, 67, 127
2, 71422, Note_on_c, 0, 67, 0
2, 71424, Note_on_c, 0, 69, 127
2, 71520, Note_on_c, 0, 69, 0
2, 71520, Note_on_c, 0, 67, 127
2, 71614, Note_on_c, 0, 67, 0
2, 71616, Note_on_c, 0, 67, 127
2, 71710, Note_on_c, 0, 67, 0
2, 71712, Note_on_c, 0, 65, 127
2, 71806, Note_on_c, 0, 65, 0
2, 71808, Note_on_c, 0, 67, 127
2, 71968, Note_on_c, 0, 67, 0
2, 72000, Note_on_c, 0, 67, 127
2, 72160, Note_on_c, 0, 67, 0
2, 72480, Note_on_c, 0, 69, 127
2, 72574, Note_on_c, 0, 69, 0
2, 72576, Note_on_c, 0, 69, 127
2, 72702, Note_on_c, 0, 69, 0
2, 72704, Note_on_c, 0, 67, 127
2, 72830, Note_on_c, 0, 67, 0
2, 72832, Note_on_c, 0, 65, 127
2, 72958, Note_on_c, 0, 65, 0
2, 72960, Note_on_c, 0, 72, 127
2, 73086, Note_on_c, 0, 72, 0
2, 73088, Note_on_c, 0, 70, 127
2, 73214, Note_on_c, 0, 70, 0
2, 73216, Note_on_c, 0, 69, 127
2, 73342, Note_on_c, 0, 69, 0
2, 73344, Note_on_c, 0, 69, 127
2, 73536, Note_on_c, 0, 69, 0
2, 73536, Note_on_c, 0, 70, 127
2, 73630, Note_on_c, 0, 70, 0
2, 73632, Note_on_c, 0, 72, 127
2, 73776, Note_on_c, 0, 72, 0
2, 73776, Note_on_c, 0, 70, 127
2, 73824, Note_on_c, 0, 70, 0
2, 73824, Note_on_c, 0, 69, 127
2, 74080, Note_on_c, 0, 69, 0
2, 74112, Note_on_c, 0, 65, 127
2, 74272, Note_on_c, 0, 65, 0
2, 74304, Note_on_c, 0, 65, 127
2, 74398, Note_on_c, 0, 65, 0
2, 74400, Note_on_c, 0, 67, 127
2, 74494, Note_on_c, 0, 67, 0
2, 74496, Note_on_c, 0, 69, 127
2, 74592, Note_on_c, 0, 69, 0
2, 74592, Note_on_c, 0, 67, 127
2, 74686, Note_on_c, 0, 67, 0
2, 74688, Note_on_c, 0, 67, 127
2, 74782, Note_on_c, 0, 67, 0
2, 74784, Note_on_c, 0, 65, 127
2, 74878, Note_on_c, 0, 65, 0
2, 74880, Note_on_c, 0, 67, 127
2, 75040, Note_on_c, 0, 67, 0
2, 75072, Note_on_c, 0, 67, 127
2, 75232, Note_on_c, 0, 67, 0
2, 75648, Note_on_c, 0, 65, 127
2, 75808, Note_on_c, 0, 65, 0
2, 75840, Note_on_c, 0, 65, 127
2, 75934, Note_on_c, 0, 65, 0
2, 75936, Note_on_c, 0, 67, 127
2, 76030, Note_on_c, 0, 67, 0
2, 76032, Note_on_c, 0, 69, 127
2, 76192, Note_on_c, 0, 69, 0
2, 76224, Note_on_c, 0, 67, 127
2, 76318, Note_on_c, 0, 67, 0
2, 76320, Note_on_c, 0, 65, 127
2, 76414, Note_on_c, 0, 65, 0
2, 76416, Note_on_c, 0, 69, 127
2, 76576, Note_on_c, 0, 69, 0
2, 76608, Note_on_c, 0, 67, 127
2, 76864, Note_on_c, 0, 67, 0
2, 76992, Note_on_c, 0, 69, 127
2, 77086, Note_on_c, 0, 69, 0
2, 77088, Note_on_c, 0, 69, 127
2, 77182, Note_on_c, 0, 69, 0
2, 77184, Note_on_c, 0, 69, 127
2, 77344, Note_on_c, 0, 69, 0
2, 77376, Note_on_c, 0, 69, 127
2, 77470, Note_on_c, 0, 69, 0
2, 77472, Note_on_c, 0, 69, 127
2, 77566, Note_on_c, 0, 69, 0
2, 77568, Note_on_c, 0, 72, 127
2, 77728, Note_on_c, 0, 72, 0
2, 77760, Note_on_c, 0, 70, 127
2, 77854, Note_on_c, 0, 70, 0
2, 77856, Note_on_c, 0, 69, 127
2, 77950, Note_on_c, 0, 69, 0
2, 77952, Note_on_c, 0, 69, 127
2, 78112, Note_on_c, 0, 69, 0
2, 78144, Note_on_c, 0, 69, 127
2, 78238, Note_on_c, 0, 69, 0
2, 78240, Note_on_c, 0, 67, 127
2, 78334, Note_on_c, 0, 67, 0
2, 78336, Note_on_c, 0, 69, 127
2, 78496, Note_on_c, 0, 69, 0
2, 78528, Note_on_c, 0, 67, 127
2, 78688, Note_on_c, 0, 67, 0
2, 78720, Note_on_c, 0, 65, 127
2, 78880, Note_on_c, 0, 65, 0
2, 78912, Note_on_c, 0, 65, 127
2, 79006, Note_on_c, 0, 65, 0
2, 79008, Note_on_c, 0, 67, 127
2, 79102, Note_on_c, 0, 67, 0
2, 79104, Note_on_c, 0, 69, 127
2, 79264, Note_on_c, 0, 69, 0
2, 79296, Note_on_c, 0, 67, 127
2, 79390, Note_on_c, 0, 67, 0
2, 79392, Note_on_c, 0, 65, 127
2, 79486, Note_on_c, 0, 65, 0
2, 79488, Note_on_c, 0, 65, 127
2, 79648, Note_on_c, 0, 65, 0
2, 79680, Note_on_c, 0, 65, 60
2, 80208, Note_on_c, 0, 65, 0
2, 80208, End_track
3, 0, Start_track
3, 0, MIDI_port, 0
3, 0, Title_t, "Guitar-1"
3, 0, Program_c, 1, 26
3, 0, Control_c, 1, 7, 127
3, 0, Control_c, 1, 10, 64
3, 0, Note_on_c, 1, 65, 110
3, 256, Note_on_c, 1, 65, 0
3, 288, Note_on_c, 1, 67, 110
3, 382, Note_on_c, 1, 67, 0
3, 384, Note_on_c, 1, 69, 110
3, 544, Note_on_c, 1, 69, 0
3, 576, Note_on_c, 1, 67, 110
3, 670, Note_on_c, 1, 67, 0
3, 672, Note_on_c, 1, 65, 110
3, 766, Note_on_c, 1, 65, 0
3, 768, Note_on_c, 1, 64, 110
3, 1024, Note_on_c, 1, 64, 0
3, 1056, Note_on_c, 1, 64, 110
3, 1150, Note_on_c, 1, 64, 0
3, 1152, Note_on_c, 1, 65, 110
3, 1198, Note_on_c, 1, 65, 0
3, 1200, Note_on_c, 1, 64, 110
3, 1246, Note_on_c, 1, 64, 0
3, 1248, Note_on_c, 1, 60, 110
3, 1342, Note_on_c, 1, 60, 0
3, 1344, Note_on_c, 1, 62, 110
3, 1390, Note_on_c, 1, 62, 0
3, 1392, Note_on_c, 1, 64, 110
3, 1534, Note_on_c, 1, 64, 0
3, 1536, Note_on_c, 1, 65, 110
3, 1792, Note_on_c, 1, 65, 0
3, 1824, Note_on_c, 1, 67, 110
3, 1918, Note_on_c, 1, 67, 0
3, 1920, Note_on_c, 1, 69, 110
3, 2080, Note_on_c, 1, 69, 0
3, 2112, Note_on_c, 1, 67, 110
3, 2206, Note_on_c, 1, 67, 0
3, 2208, Note_on_c, 1, 65, 110
3, 2302, Note_on_c, 1, 65, 0
3, 2304, Note_on_c, 1, 72, 110
3, 2560, Note_on_c, 1, 72, 0
3, 2592, Note_on_c, 1, 72, 110
3, 2686, Note_on_c, 1, 72, 0
3, 2688, Note_on_c, 1, 74, 110
3, 2734, Note_on_c, 1, 74, 0
3, 2736, Note_on_c, 1, 72, 110
3, 2878, Note_on_c, 1, 72, 0
3, 2880, Note_on_c, 1, 69, 110
3, 2926, Note_on_c, 1, 69, 0
3, 2928, Note_on_c, 1, 67, 110
3, 3070, Note_on_c, 1, 67, 0
3, 3072, Note_on_c, 1, 65, 110
3, 3328, Note_on_c, 1, 65, 0
3, 3360, Note_on_c, 1, 67, 110
3, 3454, Note_on_c, 1, 67, 0
3, 3456, Note_on_c, 1, 69, 110
3, 3616, Note_on_c, 1, 69, 0
3, 3648, Note_on_c, 1, 67, 110
3, 3742, Note_on_c, 1, 67, 0
3, 3744, Note_on_c, 1, 65, 110
3, 3838, Note_on_c, 1, 65, 0
3, 3840, Note_on_c, 1, 64, 110
3, 4096, Note_on_c, 1, 64, 0
3, 4128, Note_on_c, 1, 64, 110
3, 4222, Note_on_c, 1, 64, 0
3, 4224, Note_on_c, 1, 65, 110
3, 4270, Note_on_c, 1, 65, 0
3, 4272, Note_on_c, 1, 64, 110
3, 4510, Note_on_c, 1, 64, 0
3, 4512, Note_on_c, 1, 60, 127
3, 4512, Note_on_c, 1, 64, 127
3, 4606, Note_on_c, 1, 64, 0
3, 4606, Note_on_c, 1, 60, 0
3, 4608, Program_c, 1, 30
3, 4608, Note_on_c, 1, 53, 127
3, 4608, Note_on_c, 1, 58, 127
3, 4608, Note_on_c, 1, 62, 127
3, 5904, Note_on_c, 1, 62, 0
3, 5904, Note_on_c, 1, 58, 0
3, 5904, Note_on_c, 1, 53, 0
3, 5952, Note_on_c, 1, 57, 110
3, 5998, Note_on_c, 1, 57, 0
3, 6000, Note_on_c, 1, 60, 110
3, 6046, Note_on_c, 1, 60, 0
3, 6048, Note_on_c, 1, 65, 110
3, 6142, Note_on_c, 1, 65, 0
3, 6240, Note_on_c, 1, 62, 110
3, 6240, Note_on_c, 1, 65, 110
3, 6240, Note_on_c, 1, 69, 110
3, 6382, Note_on_c, 1, 69, 0
3, 6382, Note_on_c, 1, 65, 0
3, 6382, Note_on_c, 1, 62, 0
3, 6384, Note_on_c, 1, 62, 110
3, 6384, Note_on_c, 1, 65, 110
3, 6384, Note_on_c, 1, 69, 110
3, 6430, Note_on_c, 1, 69, 0
3, 6430, Note_on_c, 1, 65, 0
3, 6430, Note_on_c, 1, 62, 0
3, 6432, Note_on_c, 1, 62, 110
3, 6432, Note_on_c, 1, 65, 110
3, 6432, Note_on_c, 1, 69, 110
3, 6478, Note_on_c, 1, 69, 0
3, 6478, Note_on_c, 1, 65, 0
3, 6478, Note_on_c, 1, 62, 0
3, 6480, Note_on_c, 1, 62, 110
3, 6480, Note_on_c, 1, 65, 110
3, 6480, Note_on_c, 1, 69, 110
3, 6526, Note_on_c, 1, 69, 0
3, 6526, Note_on_c, 1, 65, 0
3, 6526, Note_on_c, 1, 62, 0
3, 6528, Note_on_c, 1, 62, 110
3, 6528, Note_on_c, 1, 65, 110
3, 6528, Note_on_c, 1, 67, 110
3, 6574, Note_on_c, 1, 67, 0
3, 6574, Note_on_c, 1, 65, 0
3, 6574, Note_on_c, 1, 62, 0
3, 6576, Note_on_c, 1, 62, 110
3, 6576, Note_on_c, 1, 65, 110
3, 6576, Note_on_c, 1, 69, 110
3, 6622, Note_on_c, 1, 69, 0
3, 6622, Note_on_c, 1, 65, 0
3, 6622, Note_on_c, 1, 62, 0
3, 6624, Note_on_c, 1, 62, 110
3, 6624, Note_on_c, 1, 65, 110
3, 6624, Note_on_c, 1, 69, 110
3, 6670, Note_on_c, 1, 69, 0
3, 6670, Note_on_c, 1, 65, 0
3, 6670, Note_on_c, 1, 62, 0
3, 6672, Note_on_c, 1, 62, 110
3, 6672, Note_on_c, 1, 65, 110
3, 6672, Note_on_c, 1, 69, 110
3, 6718, Note_on_c, 1, 69, 0
3, 6718, Note_on_c, 1, 65, 0
3, 6718, Note_on_c, 1, 62, 0
3, 6720, Note_on_c, 1, 57, 110
3, 6766, Note_on_c, 1, 57, 0
3, 6768, Note_on_c, 1, 60, 110
3, 6814, Note_on_c, 1, 60, 0
3, 6816, Note_on_c, 1, 62, 110
3, 6862, Note_on_c, 1, 62, 0
3, 6864, Note_on_c, 1, 65, 110
3, 6910, Note_on_c, 1, 65, 0
3, 7008, Note_on_c, 1, 62, 110
3, 7008, Note_on_c, 1, 65, 110
3, 7008, Note_on_c, 1, 69, 110
3, 7150, Note_on_c, 1, 69, 0
3, 7150, Note_on_c, 1, 65, 0
3, 7150, Note_on_c, 1, 62, 0
3, 7152, Note_on_c, 1, 62, 110
3, 7152, Note_on_c, 1, 65, 110
3, 7152, Note_on_c, 1, 69, 110
3, 7198, Note_on_c, 1, 69, 0
3, 7198, Note_on_c, 1, 65, 0
3, 7198, Note_on_c, 1, 62, 0
3, 7200, Note_on_c, 1, 62, 110
3, 7200, Note_on_c, 1, 65, 110
3, 7200, Note_on_c, 1, 69, 110
3, 7246, Note_on_c, 1, 69, 0
3, 7246, Note_on_c, 1, 65, 0
3, 7246, Note_on_c, 1, 62, 0
3, 7248, Note_on_c, 1, 62, 110
3, 7248, Note_on_c, 1, 65, 110
3, 7248, Note_on_c, 1, 69, 110
3, 7294, Note_on_c, 1, 69, 0
3, 7294, Note_on_c, 1, 65, 0
3, 7294, Note_on_c, 1, 62, 0
3, 7296, Note_on_c, 1, 62, 127
3, 7296, Note_on_c, 1, 65, 127
3, 7296, Note_on_c, 1, 67, 127
3, 7342, Note_on_c, 1, 67, 0
3, 7342, Note_on_c, 1, 65, 0
3, 7342, Note_on_c, 1, 62, 0
3, 7344, Note_on_c, 1, 62, 110
3, 7344, Note_on_c, 1, 65, 110
3, 7344, Note_on_c, 1, 69, 110
3, 7390, Note_on_c, 1, 69, 0
3, 7390, Note_on_c, 1, 65, 0
3, 7390, Note_on_c, 1, 62, 0
3, 7392, Note_on_c, 1, 62, 110
3, 7392, Note_on_c, 1, 65, 110
3, 7392, Note_on_c, 1, 69, 110
3, 7438, Note_on_c, 1, 69, 0
3, 7438, Note_on_c, 1, 65, 0
3, 7438, Note_on_c, 1, 62, 0
3, 7440, Note_on_c, 1, 62, 110
3, 7440, Note_on_c, 1, 65, 110
3, 7440, Note_on_c, 1, 69, 110
3, 7486, Note_on_c, 1, 69, 0
3, 7486, Note_on_c, 1, 65, 0
3, 7486, Note_on_c, 1, 62, 0
3, 7488, Note_on_c, 1, 57, 110
3, 7534, Note_on_c, 1, 57, 0
3, 7536, Note_on_c, 1, 60, 110
3, 7582, Note_on_c, 1, 60, 0
3, 7584, Note_on_c, 1, 65, 110
3, 7678, Note_on_c, 1, 65, 0
3, 7776, Note_on_c, 1, 62, 110
3, 7776, Note_on_c, 1, 65, 110
3, 7776, Note_on_c, 1, 69, 110
3, 7918, Note_on_c, 1, 69, 0
3, 7918, Note_on_c, 1, 65, 0
3, 7918, Note_on_c, 1, 62, 0
3, 7920, Note_on_c, 1, 62, 110
3, 7920, Note_on_c, 1, 65, 110
3, 7920, Note_on_c, 1, 69, 110
3, 7966, Note_on_c, 1, 69, 0
3, 7966, Note_on_c, 1, 65, 0
3, 7966, Note_on_c, 1, 62, 0
3, 7968, Note_on_c, 1, 62, 110
3, 7968, Note_on_c, 1, 65, 110
3, 7968, Note_on_c, 1, 69, 110
3, 8014, Note_on_c, 1, 69, 0
3, 8014, Note_on_c, 1, 65, 0
3, 8014, Note_on_c, 1, 62, 0
3, 8016, Note_on_c, 1, 62, 110
3, 8016, Note_on_c, 1, 65, 110
3, 8016, Note_on_c, 1, 69, 110
3, 8062, Note_on_c, 1, 69, 0
3, 8062, Note_on_c, 1, 65, 0
3, 8062, Note_on_c, 1, 62, 0
3, 8064, Note_on_c, 1, 62, 110
3, 8064, Note_on_c, 1, 65, 110
3, 8064, Note_on_c, 1, 67, 110
3, 8110, Note_on_c, 1, 67, 0
3, 8110, Note_on_c, 1, 65, 0
3, 8110, Note_on_c, 1, 62, 0
3, 8112, Note_on_c, 1, 62, 110
3, 8112, Note_on_c, 1, 65, 110
3, 8112, Note_on_c, 1, 69, 110
3, 8158, Note_on_c, 1, 69, 0
3, 8158, Note_on_c, 1, 65, 0
3, 8158, Note_on_c, 1, 62, 0
3, 8160, Note_on_c, 1, 62, 110
3, 8160, Note_on_c, 1, 65, 110
3, 8160, Note_on_c, 1, 69, 110
3, 8206, Note_on_c, 1, 69, 0
3, 8206, Note_on_c, 1, 65, 0
3, 8206, Note_on_c, 1, 62, 0
3, 8208, Note_on_c, 1, 62, 110
3, 8208, Note_on_c, 1, 65, 110
3, 8208, Note_on_c, 1, 69, 110
3, 8254, Note_on_c, 1, 69, 0
3, 8254, Note_on_c, 1, 65, 0
3, 8254, Note_on_c, 1, 62, 0
3, 8256, Note_on_c, 1, 57, 110
3, 8302, Note_on_c, 1, 57, 0
3, 8304, Note_on_c, 1, 60, 110
3, 8350, Note_on_c, 1, 60, 0
3, 8352, Note_on_c, 1, 62, 110
3, 8398, Note_on_c, 1, 62, 0
3, 8400, Note_on_c, 1, 65, 110
3, 8446, Note_on_c, 1, 65, 0
3, 8544, Note_on_c, 1, 62, 110
3, 8544, Note_on_c, 1, 65, 110
3, 8544, Note_on_c, 1, 69, 110
3, 8686, Note_on_c, 1, 69, 0
3, 8686, Note_on_c, 1, 65, 0
3, 8686, Note_on_c, 1, 62, 0
3, 8688, Note_on_c, 1, 62, 110
3, 8688, Note_on_c, 1, 65, 110
3, 8688, Note_on_c, 1, 69, 110
3, 8734, Note_on_c, 1, 69, 0
3, 8734, Note_on_c, 1, 65, 0
3, 8734, Note_on_c, 1, 62, 0
3, 8736, Note_on_c, 1, 62, 110
3, 8736, Note_on_c, 1, 65, 110
3, 8736, Note_on_c, 1, 69, 110
3, 8782, Note_on_c, 1, 69, 0
3, 8782, Note_on_c, 1, 65, 0
3, 8782, Note_on_c, 1, 62, 0
3, 8784, Note_on_c, 1, 62, 110
3, 8784, Note_on_c, 1, 65, 110
3, 8784, Note_on_c, 1, 69, 110
3, 8830, Note_on_c, 1, 69, 0
3, 8830, Note_on_c, 1, 65, 0
3, 8830, Note_on_c, 1, 62, 0
3, 8832, Note_on_c, 1, 62, 127
3, 8832, Note_on_c, 1, 65, 127
3, 8832, Note_on_c, 1, 67, 127
3, 8878, Note_on_c, 1, 67, 0
3, 8878, Note_on_c, 1, 65, 0
3, 8878, Note_on_c, 1, 62, 0
3, 8880, Note_on_c, 1, 62, 110
3, 8880, Note_on_c, 1, 65, 110
3, 8880, Note_on_c, 1, 69, 110
3, 8926, Note_on_c, 1, 69, 0
3, 8926, Note_on_c, 1, 65, 0
3, 8926, Note_on_c, 1, 62, 0
3, 8928, Note_on_c, 1, 62, 110
3, 8928, Note_on_c, 1, 65, 110
3, 8928, Note_on_c, 1, 69, 110
3, 8974, Note_on_c, 1, 69, 0
3, 8974, Note_on_c, 1, 65, 0
3, 8974, Note_on_c, 1, 62, 0
3, 8976, Note_on_c, 1, 62, 110
3, 8976, Note_on_c, 1, 65, 110
3, 8976, Note_on_c, 1, 69, 110
3, 9022, Note_on_c, 1, 69, 0
3, 9022, Note_on_c, 1, 65, 0
3, 9022, Note_on_c, 1, 62, 0
3, 9024, Note_on_c, 1, 57, 110
3, 9070, Note_on_c, 1, 57, 0
3, 9072, Note_on_c, 1, 60, 110
3, 9118, Note_on_c, 1, 60, 0
3, 9120, Note_on_c, 1, 62, 110
3, 9166, Note_on_c, 1, 62, 0
3, 9168, Note_on_c, 1, 65, 110
3, 9214, Note_on_c, 1, 65, 0
3, 9216, Note_on_c, 1, 62, 110
3, 9376, Note_on_c, 1, 62, 0
3, 9408, Note_on_c, 1, 57, 110
3, 9408, Note_on_c, 1, 62, 110
3, 9408, Note_on_c, 1, 65, 110
3, 9568, Note_on_c, 1, 65, 0
3, 9568, Note_on_c, 1, 62, 0
3, 9568, Note_on_c, 1, 57, 0
3, 9600, Note_on_c, 1, 57, 110
3, 9600, Note_on_c, 1, 62, 110
3, 9856, Note_on_c, 1, 62, 0
3, 9856, Note_on_c, 1, 57, 0
3, 9888, Note_on_c, 1, 57, 110
3, 9888, Note_on_c, 1, 62, 110
3, 9888, Note_on_c, 1, 65, 110
3, 9982, Note_on_c, 1, 65, 0
3, 9982, Note_on_c, 1, 62, 0
3, 9982, Note_on_c, 1, 57, 0
3, 9984, Note_on_c, 1, 65, 110
3, 10078, Note_on_c, 1, 65, 0
3, 10080, Note_on_c, 1, 62, 110
3, 10240, Note_on_c, 1, 62, 0
3, 10272, Note_on_c, 1, 60, 110
3, 10366, Note_on_c, 1, 60, 0
3, 10368, Note_on_c, 1, 62, 110
3, 10528, Note_on_c, 1, 62, 0
3, 10560, Note_on_c, 1, 57, 110
3, 10606, Note_on_c, 1, 57, 0
3, 10608, Note_on_c, 1, 60, 110
3, 10654, Note_on_c, 1, 60, 0
3, 10656, Note_on_c, 1, 65, 110
3, 10750, Note_on_c, 1, 65, 0
3, 10752, Note_on_c, 1, 62, 110
3, 10912, Note_on_c, 1, 62, 0
3, 10944, Note_on_c, 1, 57, 110
3, 10944, Note_on_c, 1, 62, 110
3, 10944, Note_on_c, 1, 65, 110
3, 11104, Note_on_c, 1, 65, 0
3, 11104, Note_on_c, 1, 62, 0
3, 11104, Note_on_c, 1, 57, 0
3, 11136, Note_on_c, 1, 57, 110
3, 11136, Note_on_c, 1, 62, 110
3, 11136, Note_on_c, 1, 67, 110
3, 11230, Note_on_c, 1, 67, 0
3, 11392, Note_on_c, 1, 62, 0
3, 11392, Note_on_c, 1, 57, 0
3, 11424, Note_on_c, 1, 57, 110
3, 11424, Note_on_c, 1, 62, 110
3, 11424, Note_on_c, 1, 65, 110
3, 11518, Note_on_c, 1, 65, 0
3, 11518, Note_on_c, 1, 62, 0
3, 11518, Note_on_c, 1, 57, 0
3, 11520, Note_on_c, 1, 62, 110
3, 11520, Note_on_c, 1, 65, 110
3, 11520, Note_on_c, 1, 67, 110
3, 11680, Note_on_c, 1, 67, 0
3, 11680, Note_on_c, 1, 65, 0
3, 11680, Note_on_c, 1, 62, 0
3, 11712, Note_on_c, 1, 62, 110
3, 11712, Note_on_c, 1, 65, 110
3, 11712, Note_on_c, 1, 69, 110
3, 11998, Note_on_c, 1, 69, 0
3, 11998, Note_on_c, 1, 65, 0
3, 11998, Note_on_c, 1, 62, 0
3, 12000, Note_on_c, 1, 57, 110
3, 12000, Note_on_c, 1, 62, 110
3, 12000, Note_on_c, 1, 67, 110
3, 12094, Note_on_c, 1, 67, 0
3, 12096, Note_on_c, 1, 65, 110
3, 12256, Note_on_c, 1, 65, 0
3, 12256, Note_on_c, 1, 62, 0
3, 12256, Note_on_c, 1, 57, 0
3, 12288, Note_on_c, 1, 55, 110
3, 12288, Note_on_c, 1, 60, 110
3, 12288, Note_on_c, 1, 64, 110
3, 12624, Note_on_c, 1, 64, 0
3, 12624, Note_on_c, 1, 60, 0
3, 12624, Note_on_c, 1, 55, 0
3, 12672, Note_on_c, 1, 52, 110
3, 12672, Note_on_c, 1, 55, 110
3, 12672, Note_on_c, 1, 60, 110
3, 12798, Note_on_c, 1, 60, 0
3, 12798, Note_on_c, 1, 55, 0
3, 12798, Note_on_c, 1, 52, 0
3, 12800, Note_on_c, 1, 55, 110
3, 12800, Note_on_c, 1, 60, 110
3, 12800, Note_on_c, 1, 64, 110
3, 12926, Note_on_c, 1, 64, 0
3, 12926, Note_on_c, 1, 60, 0
3, 12926, Note_on_c, 1, 55, 0
3, 12928, Note_on_c, 1, 55, 110
3, 12928, Note_on_c, 1, 60, 110
3, 12928, Note_on_c, 1, 65, 110
3, 13054, Note_on_c, 1, 65, 0
3, 13054, Note_on_c, 1, 60, 0
3, 13054, Note_on_c, 1, 55, 0
3, 13056, Note_on_c, 1, 58, 110
3, 13056, Note_on_c, 1, 62, 110
3, 13312, Note_on_c, 1, 62, 0
3, 13312, Note_on_c, 1, 58, 0
3, 13344, Note_on_c, 1, 58, 110
3, 13344, Note_on_c, 1, 62, 110
3, 13600, Note_on_c, 1, 62, 0
3, 13600, Note_on_c, 1, 58, 0
3, 13632, Note_on_c, 1, 58, 110
3, 13632, Note_on_c, 1, 62, 110
3, 13792, Note_on_c, 1, 62, 0
3, 13792, Note_on_c, 1, 58, 0
3, 13824, Note_on_c, 1, 53, 110
3, 13824, Note_on_c, 1, 57, 110
3, 13824, Note_on_c, 1, 62, 110
3, 14080, Note_on_c, 1, 62, 0
3, 14080, Note_on_c, 1, 57, 0
3, 14080, Note_on_c, 1, 53, 0
3, 14112, Note_on_c, 1, 53, 110
3, 14112, Note_on_c, 1, 57, 110
3, 14112, Note_on_c, 1, 62, 110
3, 14368, Note_on_c, 1, 62, 0
3, 14368, Note_on_c, 1, 57, 0
3, 14368, Note_on_c, 1, 53, 0
3, 14400, Note_on_c, 1, 57, 110
3, 14446, Note_on_c, 1, 57, 0
3, 14448, Note_on_c, 1, 60, 110
3, 14494, Note_on_c, 1, 60, 0
3, 14496, Note_on_c, 1, 62, 110
3, 14542, Note_on_c, 1, 62, 0
3, 14544, Note_on_c, 1, 65, 110
3, 14590, Note_on_c, 1, 65, 0
3, 14592, Note_on_c, 1, 62, 110
3, 14686, Note_on_c, 1, 62, 0
3, 14688, Note_on_c, 1, 62, 110
3, 14688, Note_on_c, 1, 65, 110
3, 14688, Note_on_c, 1, 69, 110
3, 14830, Note_on_c, 1, 69, 0
3, 14830, Note_on_c, 1, 65, 0
3, 14830, Note_on_c, 1, 62, 0
3, 14832, Note_on_c, 1, 62, 110
3, 14832, Note_on_c, 1, 65, 110
3, 14832, Note_on_c, 1, 69, 110
3, 14878, Note_on_c, 1, 69, 0
3, 14878, Note_on_c, 1, 65, 0
3, 14878, Note_on_c, 1, 62, 0
3, 14880, Note_on_c, 1, 62, 110
3, 14880, Note_on_c, 1, 65, 110
3, 14880, Note_on_c, 1, 69, 110
3, 14926, Note_on_c, 1, 69, 0
3, 14926, Note_on_c, 1, 65, 0
3, 14926, Note_on_c, 1, 62, 0
3, 14928, Note_on_c, 1, 62, 110
3, 14928, Note_on_c, 1, 65, 110
3, 14928, Note_on_c, 1, 69, 110
3, 14974, Note_on_c, 1, 69, 0
3, 14974, Note_on_c, 1, 65, 0
3, 14974, Note_on_c, 1, 62, 0
3, 14976, Note_on_c, 1, 62, 127
3, 14976, Note_on_c, 1, 65, 127
3, 14976, Note_on_c, 1, 67, 127
3, 15022, Note_on_c, 1, 67, 0
3, 15022, Note_on_c, 1, 65, 0
3, 15022, Note_on_c, 1, 62, 0
3, 15024, Note_on_c, 1, 62, 110
3, 15024, Note_on_c, 1, 65, 110
3, 15024, Note_on_c, 1, 69, 110
3, 15070, Note_on_c, 1, 69, 0
3, 15070, Note_on_c, 1, 65, 0
3, 15070, Note_on_c, 1, 62, 0
3, 15072, Note_on_c, 1, 62, 110
3, 15072, Note_on_c, 1, 65, 110
3, 15072, Note_on_c, 1, 69, 110
3, 15118, Note_on_c, 1, 69, 0
3, 15118, Note_on_c, 1, 65, 0
3, 15118, Note_on_c, 1, 62, 0
3, 15120, Note_on_c, 1, 62, 110
3, 15120, Note_on_c, 1, 65, 110
3, 15120, Note_on_c, 1, 69, 110
3, 15166, Note_on_c, 1, 69, 0
3, 15166, Note_on_c, 1, 65, 0
3, 15166, Note_on_c, 1, 62, 0
3, 15168, Note_on_c, 1, 57, 110
3, 15214, Note_on_c, 1, 57, 0
3, 15216, Note_on_c, 1, 60, 110
3, 15262, Note_on_c, 1, 60, 0
3, 15264, Note_on_c, 1, 65, 110
3, 15358, Note_on_c, 1, 65, 0
3, 15360, Note_on_c, 1, 62, 110
3, 15520, Note_on_c, 1, 62, 0
3, 15552, Note_on_c, 1, 57, 110
3, 15552, Note_on_c, 1, 62, 110
3, 15552, Note_on_c, 1, 65, 110
3, 15552, Note_on_c, 1, 69, 110
3, 15712, Note_on_c, 1, 69, 0
3, 15712, Note_on_c, 1, 57, 0
3, 15712, Note_on_c, 1, 62, 0
3, 15712, Note_on_c, 1, 65, 0
3, 15744, Note_on_c, 1, 57, 110
3, 15744, Note_on_c, 1, 62, 110
3, 15744, Note_on_c, 1, 67, 110
3, 15838, Note_on_c, 1, 67, 0
3, 15840, Note_on_c, 1, 65, 110
3, 16000, Note_on_c, 1, 62, 0
3, 16000, Note_on_c, 1, 57, 0
3, 16030, Note_on_c, 1, 65, 0
3, 16032, Note_on_c, 1, 57, 110
3, 16032, Note_on_c, 1, 62, 110
3, 16032, Note_on_c, 1, 65, 110
3, 16126, Note_on_c, 1, 65, 0
3, 16126, Note_on_c, 1, 62, 0
3, 16126, Note_on_c, 1, 57, 0
3, 16128, Note_on_c, 1, 62, 110
3, 16128, Note_on_c, 1, 65, 110
3, 16128, Note_on_c, 1, 67, 110
3, 16384, Note_on_c, 1, 67, 0
3, 16384, Note_on_c, 1, 65, 0
3, 16384, Note_on_c, 1, 62, 0
3, 16512, Note_on_c, 1, 53, 110
3, 16512, Note_on_c, 1, 57, 110
3, 16512, Note_on_c, 1, 62, 110
3, 16672, Note_on_c, 1, 62, 0
3, 16672, Note_on_c, 1, 57, 0
3, 16672, Note_on_c, 1, 53, 0
3, 16704, Note_on_c, 1, 57, 110
3, 16750, Note_on_c, 1, 57, 0
3, 16752, Note_on_c, 1, 60, 110
3, 16798, Note_on_c, 1, 60, 0
3, 16800, Note_on_c, 1, 65, 110
3, 16894, Note_on_c, 1, 65, 0
3, 16896, Note_on_c, 1, 62, 110
3, 17056, Note_on_c, 1, 62, 0
3, 17088, Note_on_c, 1, 62, 110
3, 17088, Note_on_c, 1, 65, 110
3, 17088, Note_on_c, 1, 69, 110
3, 17374, Note_on_c, 1, 69, 0
3, 17440, Note_on_c, 1, 65, 0
3, 17440, Note_on_c, 1, 62, 0
3, 17472, Note_on_c, 1, 57, 110
3, 17472, Note_on_c, 1, 62, 110
3, 17472, Note_on_c, 1, 67, 110
3, 17566, Note_on_c, 1, 67, 0
3, 17632, Note_on_c, 1, 62, 0
3, 17632, Note_on_c, 1, 57, 0
3, 17760, Note_on_c, 1, 62, 110
3, 17760, Note_on_c, 1, 65, 110
3, 17760, Note_on_c, 1, 69, 110
3, 17920, Note_on_c, 1, 69, 0
3, 17920, Note_on_c, 1, 65, 0
3, 17920, Note_on_c, 1, 62, 0
3, 17952, Note_on_c, 1, 62, 110
3, 17952, Note_on_c, 1, 65, 110
3, 17952, Note_on_c, 1, 69, 110
3, 18046, Note_on_c, 1, 69, 0
3, 18046, Note_on_c, 1, 65, 0
3, 18046, Note_on_c, 1, 62, 0
3, 18048, Note_on_c, 1, 62, 110
3, 18048, Note_on_c, 1, 65, 110
3, 18048, Note_on_c, 1, 70, 110
3, 18190, Note_on_c, 1, 70, 0
3, 18192, Note_on_c, 1, 72, 110
3, 18208, Note_on_c, 1, 65, 0
3, 18208, Note_on_c, 1, 62, 0
3, 18238, Note_on_c, 1, 72, 0
3, 18240, Note_on_c, 1, 62, 110
3, 18240, Note_on_c, 1, 65, 110
3, 18240, Note_on_c, 1, 69, 110
3, 18334, Note_on_c, 1, 69, 0
3, 18336, Note_on_c, 1, 70, 110
3, 18382, Note_on_c, 1, 70, 0
3, 18384, Note_on_c, 1, 69, 110
3, 18400, Note_on_c, 1, 65, 0
3, 18400, Note_on_c, 1, 62, 0
3, 18430, Note_on_c, 1, 69, 0
3, 18432, Note_on_c, 1, 60, 110
3, 18432, Note_on_c, 1, 64, 110
3, 18432, Note_on_c, 1, 67, 110
3, 18768, Note_on_c, 1, 67, 0
3, 18768, Note_on_c, 1, 64, 0
3, 18768, Note_on_c, 1, 60, 0
3, 18816, Note_on_c, 1, 60, 110
3, 18816, Note_on_c, 1, 64, 110
3, 18816, Note_on_c, 1, 69, 110
3, 18942, Note_on_c, 1, 69, 0
3, 18942, Note_on_c, 1, 64, 0
3, 18942, Note_on_c, 1, 60, 0
3, 18944, Note_on_c, 1, 60, 110
3, 18944, Note_on_c, 1, 64, 110
3, 18944, Note_on_c, 1, 69, 110
3, 19070, Note_on_c, 1, 69, 0
3, 19070, Note_on_c, 1, 64, 0
3, 19070, Note_on_c, 1, 60, 0
3, 19072, Note_on_c, 1, 60, 110
3, 19072, Note_on_c, 1, 64, 110
3, 19072, Note_on_c, 1, 69, 110
3, 19198, Note_on_c, 1, 69, 0
3, 19198, Note_on_c, 1, 64, 0
3, 19198, Note_on_c, 1, 60, 0
3, 19200, Note_on_c, 1, 58, 110
3, 19200, Note_on_c, 1, 62, 110
3, 19200, Note_on_c, 1, 65, 110
3, 19200, Note_on_c, 1, 70, 110
3, 19360, Note_on_c, 1, 70, 0
3, 19360, Note_on_c, 1, 58, 0
3, 19360, Note_on_c, 1, 62, 0
3, 19360, Note_on_c, 1, 65, 0
3, 19392, Note_on_c, 1, 58, 110
3, 19392, Note_on_c, 1, 62, 110
3, 19392, Note_on_c, 1, 65, 110
3, 19392, Note_on_c, 1, 69, 110
3, 19486, Note_on_c, 1, 69, 0
3, 19486, Note_on_c, 1, 58, 0
3, 19486, Note_on_c, 1, 62, 0
3, 19486, Note_on_c, 1, 65, 0
3, 19488, Note_on_c, 1, 58, 110
3, 19488, Note_on_c, 1, 62, 110
3, 19488, Note_on_c, 1, 65, 110
3, 19488, Note_on_c, 1, 67, 110
3, 19744, Note_on_c, 1, 67, 0
3, 19744, Note_on_c, 1, 58, 0
3, 19744, Note_on_c, 1, 62, 0
3, 19744, Note_on_c, 1, 65, 0
3, 19776, Note_on_c, 1, 65, 110
3, 19870, Note_on_c, 1, 65, 0
3, 19872, Note_on_c, 1, 53, 110
3, 19872, Note_on_c, 1, 57, 110
3, 19872, Note_on_c, 1, 60, 110
3, 19872, Note_on_c, 1, 64, 110
3, 20062, Note_on_c, 1, 64, 0
3, 20064, Note_on_c, 1, 65, 110
3, 20128, Note_on_c, 1, 53, 0
3, 20128, Note_on_c, 1, 60, 0
3, 20128, Note_on_c, 1, 57, 0
3, 20158, Note_on_c, 1, 65, 0
3, 20160, Note_on_c, 1, 53, 110
3, 20160, Note_on_c, 1, 57, 110
3, 20160, Note_on_c, 1, 60, 110
3, 20160, Note_on_c, 1, 64, 110
3, 20254, Note_on_c, 1, 64, 0
3, 20256, Note_on_c, 1, 65, 110
3, 20302, Note_on_c, 1, 65, 0
3, 20304, Note_on_c, 1, 64, 110
3, 20320, Note_on_c, 1, 60, 0
3, 20320, Note_on_c, 1, 53, 0
3, 20320, Note_on_c, 1, 57, 0
3, 20350, Note_on_c, 1, 64, 0
3, 20352, Note_on_c, 1, 53, 110
3, 20352, Note_on_c, 1, 57, 110
3, 20352, Note_on_c, 1, 62, 110
3, 20512, Note_on_c, 1, 62, 0
3, 20512, Note_on_c, 1, 57, 0
3, 20512, Note_on_c, 1, 53, 0
3, 20544, Note_on_c, 1, 57, 110
3, 20590, Note_on_c, 1, 57, 0
3, 20592, Note_on_c, 1, 60, 110
3, 20638, Note_on_c, 1, 60, 0
3, 20640, Note_on_c, 1, 62, 110
3, 20686, Note_on_c, 1, 62, 0
3, 20688, Note_on_c, 1, 65, 110
3, 20734, Note_on_c, 1, 65, 0
3, 20736, Note_on_c, 1, 62, 110
3, 20830, Note_on_c, 1, 62, 0
3, 20832, Note_on_c, 1, 62, 110
3, 20832, Note_on_c, 1, 65, 110
3, 20832, Note_on_c, 1, 69, 110
3, 20974, Note_on_c, 1, 69, 0
3, 20974, Note_on_c, 1, 65, 0
3, 20974, Note_on_c, 1, 62, 0
3, 20976, Note_on_c, 1, 62, 110
3, 20976, Note_on_c, 1, 65, 110
3, 20976, Note_on_c, 1, 69, 110
3, 21022, Note_on_c, 1, 69, 0
3, 21022, Note_on_c, 1, 65, 0
3, 21022, Note_on_c, 1, 62, 0
3, 21024, Note_on_c, 1, 62, 110
3, 21024, Note_on_c, 1, 65, 110
3, 21024, Note_on_c, 1, 69, 110
3, 21070, Note_on_c, 1, 69, 0
3, 21070, Note_on_c, 1, 65, 0
3, 21070, Note_on_c, 1, 62, 0
3, 21072, Note_on_c, 1, 62, 110
3, 21072, Note_on_c, 1, 65, 110
3, 21072, Note_on_c, 1, 69, 110
3, 21118, Note_on_c, 1, 69, 0
3, 21118, Note_on_c, 1, 65, 0
3, 21118, Note_on_c, 1, 62, 0
3, 21120, Note_on_c, 1, 62, 127
3, 21120, Note_on_c, 1, 65, 127
3, 21120, Note_on_c, 1, 67, 127
3, 21166, Note_on_c, 1, 67, 0
3, 21166, Note_on_c, 1, 65, 0
3, 21166, Note_on_c, 1, 62, 0
3, 21168, Note_on_c, 1, 62, 110
3, 21168, Note_on_c, 1, 65, 110
3, 21168, Note_on_c, 1, 69, 110
3, 21214, Note_on_c, 1, 69, 0
3, 21214, Note_on_c, 1, 65, 0
3, 21214, Note_on_c, 1, 62, 0
3, 21216, Note_on_c, 1, 62, 110
3, 21216, Note_on_c, 1, 65, 110
3, 21216, Note_on_c, 1, 69, 110
3, 21262, Note_on_c, 1, 69, 0
3, 21262, Note_on_c, 1, 65, 0
3, 21262, Note_on_c, 1, 62, 0
3, 21264, Note_on_c, 1, 62, 110
3, 21264, Note_on_c, 1, 65, 110
3, 21264, Note_on_c, 1, 69, 110
3, 21310, Note_on_c, 1, 69, 0
3, 21310, Note_on_c, 1, 65, 0
3, 21310, Note_on_c, 1, 62, 0
3, 21312, Note_on_c, 1, 57, 110
3, 21312, Note_on_c, 1, 62, 110
3, 21312, Note_on_c, 1, 65, 110
3, 21406, Note_on_c, 1, 65, 0
3, 21406, Note_on_c, 1, 62, 0
3, 21406, Note_on_c, 1, 57, 0
3, 21408, Note_on_c, 1, 57, 110
3, 21408, Note_on_c, 1, 62, 110
3, 21408, Note_on_c, 1, 65, 110
3, 21502, Note_on_c, 1, 65, 0
3, 21502, Note_on_c, 1, 62, 0
3, 21502, Note_on_c, 1, 57, 0
3, 21504, Note_on_c, 1, 57, 110
3, 21504, Note_on_c, 1, 60, 110
3, 21504, Note_on_c, 1, 65, 110
3, 21664, Note_on_c, 1, 65, 0
3, 21664, Note_on_c, 1, 60, 0
3, 21664, Note_on_c, 1, 57, 0
3, 21696, Note_on_c, 1, 57, 110
3, 21696, Note_on_c, 1, 60, 110
3, 21696, Note_on_c, 1, 65, 110
3, 21790, Note_on_c, 1, 65, 0
3, 21790, Note_on_c, 1, 60, 0
3, 21790, Note_on_c, 1, 57, 0
3, 21792, Note_on_c, 1, 60, 110
3, 21792, Note_on_c, 1, 64, 110
3, 21792, Note_on_c, 1, 67, 110
3, 21886, Note_on_c, 1, 67, 0
3, 21886, Note_on_c, 1, 64, 0
3, 21886, Note_on_c, 1, 60, 0
3, 21888, Note_on_c, 1, 60, 110
3, 21888, Note_on_c, 1, 65, 110
3, 21888, Note_on_c, 1, 69, 110
3, 21982, Note_on_c, 1, 69, 0
3, 21982, Note_on_c, 1, 65, 0
3, 21982, Note_on_c, 1, 60, 0
3, 21984, Note_on_c, 1, 60, 110
3, 21984, Note_on_c, 1, 65, 110
3, 21984, Note_on_c, 1, 67, 110
3, 22078, Note_on_c, 1, 67, 0
3, 22078, Note_on_c, 1, 65, 0
3, 22078, Note_on_c, 1, 60, 0
3, 22080, Note_on_c, 1, 60, 110
3, 22080, Note_on_c, 1, 64, 110
3, 22080, Note_on_c, 1, 67, 110
3, 22174, Note_on_c, 1, 67, 0
3, 22174, Note_on_c, 1, 64, 0
3, 22174, Note_on_c, 1, 60, 0
3, 22176, Note_on_c, 1, 57, 110
3, 22176, Note_on_c, 1, 62, 110
3, 22176, Note_on_c, 1, 65, 110
3, 22270, Note_on_c, 1, 65, 0
3, 22270, Note_on_c, 1, 62, 0
3, 22270, Note_on_c, 1, 57, 0
3, 22272, Note_on_c, 1, 60, 110
3, 22272, Note_on_c, 1, 64, 110
3, 22272, Note_on_c, 1, 67, 110
3, 22432, Note_on_c, 1, 67, 0
3, 22432, Note_on_c, 1, 64, 0
3, 22432, Note_on_c, 1, 60, 0
3, 22464, Note_on_c, 1, 60, 110
3, 22464, Note_on_c, 1, 64, 110
3, 22464, Note_on_c, 1, 67, 110
3, 22624, Note_on_c, 1, 67, 0
3, 22624, Note_on_c, 1, 64, 0
3, 22624, Note_on_c, 1, 60, 0
3, 22656, Note_on_c, 1, 55, 110
3, 22750, Note_on_c, 1, 55, 0
3, 22752, Note_on_c, 1, 57, 110
3, 22846, Note_on_c, 1, 57, 0
3, 22848, Note_on_c, 1, 60, 110
3, 22942, Note_on_c, 1, 60, 0
3, 22944, Note_on_c, 1, 69, 110
3, 23038, Note_on_c, 1, 69, 0
3, 23040, Note_on_c, 1, 57, 110
3, 23040, Note_on_c, 1, 62, 110
3, 23040, Note_on_c, 1, 65, 110
3, 23376, Note_on_c, 1, 65, 0
3, 23376, Note_on_c, 1, 62, 0
3, 23376, Note_on_c, 1, 57, 0
3, 23424, Note_on_c, 1, 60, 110
3, 23424, Note_on_c, 1, 65, 110
3, 23424, Note_on_c, 1, 69, 110
3, 23584, Note_on_c, 1, 69, 0
3, 23584, Note_on_c, 1, 65, 0
3, 23584, Note_on_c, 1, 60, 0
3, 23616, Note_on_c, 1, 60, 110
3, 23616, Note_on_c, 1, 64, 110
3, 23616, Note_on_c, 1, 69, 110
3, 23710, Note_on_c, 1, 69, 0
3, 23710, Note_on_c, 1, 64, 0
3, 23710, Note_on_c, 1, 60, 0
3, 23712, Note_on_c, 1, 60, 110
3, 23712, Note_on_c, 1, 65, 110
3, 23712, Note_on_c, 1, 69, 110
3, 23806, Note_on_c, 1, 69, 0
3, 23806, Note_on_c, 1, 65, 0
3, 23806, Note_on_c, 1, 60, 0
3, 23808, Note_on_c, 1, 60, 110
3, 23808, Note_on_c, 1, 64, 110
3, 23808, Note_on_c, 1, 67, 110
3, 24144, Note_on_c, 1, 67, 0
3, 24144, Note_on_c, 1, 64, 0
3, 24144, Note_on_c, 1, 60, 0
3, 24192, Note_on_c, 1, 60, 110
3, 24192, Note_on_c, 1, 64, 110
3, 24192, Note_on_c, 1, 69, 110
3, 24352, Note_on_c, 1, 69, 0
3, 24352, Note_on_c, 1, 64, 0
3, 24352, Note_on_c, 1, 60, 0
3, 24384, Note_on_c, 1, 60, 110
3, 24384, Note_on_c, 1, 64, 110
3, 24384, Note_on_c, 1, 67, 110
3, 24544, Note_on_c, 1, 67, 0
3, 24544, Note_on_c, 1, 64, 0
3, 24544, Note_on_c, 1, 60, 0
3, 24576, Note_on_c, 1, 57, 110
3, 24576, Note_on_c, 1, 62, 110
3, 24576, Note_on_c, 1, 65, 110
3, 24736, Note_on_c, 1, 65, 0
3, 24736, Note_on_c, 1, 62, 0
3, 24736, Note_on_c, 1, 57, 0
3, 24768, Note_on_c, 1, 57, 110
3, 24768, Note_on_c, 1, 60, 110
3, 24768, Note_on_c, 1, 65, 110
3, 24862, Note_on_c, 1, 65, 0
3, 24862, Note_on_c, 1, 60, 0
3, 24862, Note_on_c, 1, 57, 0
3, 24864, Note_on_c, 1, 60, 110
3, 24864, Note_on_c, 1, 64, 110
3, 24864, Note_on_c, 1, 67, 110
3, 24958, Note_on_c, 1, 67, 0
3, 24958, Note_on_c, 1, 64, 0
3, 24958, Note_on_c, 1, 60, 0
3, 24960, Note_on_c, 1, 60, 110
3, 24960, Note_on_c, 1, 65, 110
3, 24960, Note_on_c, 1, 69, 110
3, 25054, Note_on_c, 1, 69, 0
3, 25054, Note_on_c, 1, 65, 0
3, 25054, Note_on_c, 1, 60, 0
3, 25056, Note_on_c, 1, 60, 110
3, 25056, Note_on_c, 1, 65, 110
3, 25056, Note_on_c, 1, 67, 110
3, 25150, Note_on_c, 1, 67, 0
3, 25150, Note_on_c, 1, 65, 0
3, 25150, Note_on_c, 1, 60, 0
3, 25152, Note_on_c, 1, 60, 110
3, 25152, Note_on_c, 1, 64, 110
3, 25152, Note_on_c, 1, 67, 110
3, 25246, Note_on_c, 1, 67, 0
3, 25246, Note_on_c, 1, 64, 0
3, 25246, Note_on_c, 1, 60, 0
3, 25248, Note_on_c, 1, 57, 110
3, 25248, Note_on_c, 1, 62, 110
3, 25248, Note_on_c, 1, 65, 110
3, 25342, Note_on_c, 1, 65, 0
3, 25342, Note_on_c, 1, 62, 0
3, 25342, Note_on_c, 1, 57, 0
3, 25344, Note_on_c, 1, 60, 110
3, 25344, Note_on_c, 1, 64, 110
3, 25344, Note_on_c, 1, 67, 110
3, 25504, Note_on_c, 1, 67, 0
3, 25504, Note_on_c, 1, 64, 0
3, 25504, Note_on_c, 1, 60, 0
3, 25536, Note_on_c, 1, 60, 110
3, 25536, Note_on_c, 1, 64, 110
3, 25536, Note_on_c, 1, 67, 110
3, 25872, Note_on_c, 1, 67, 0
3, 25872, Note_on_c, 1, 64, 0
3, 25872, Note_on_c, 1, 60, 0
3, 26112, Note_on_c, 1, 50, 110
3, 26112, Note_on_c, 1, 55, 110
3, 26112, Note_on_c, 1, 59, 110
3, 26272, Note_on_c, 1, 59, 0
3, 26272, Note_on_c, 1, 55, 0
3, 26272, Note_on_c, 1, 50, 0
3, 26304, Note_on_c, 1, 52, 110
3, 26304, Note_on_c, 1, 55, 110
3, 26304, Note_on_c, 1, 60, 110
3, 26832, Note_on_c, 1, 60, 0
3, 26832, Note_on_c, 1, 55, 0
3, 26832, Note_on_c, 1, 52, 0
3, 26880, Note_on_c, 1, 50, 110
3, 26880, Note_on_c, 1, 55, 110
3, 26880, Note_on_c, 1, 58, 110
3, 27408, Note_on_c, 1, 58, 0
3, 27408, Note_on_c, 1, 55, 0
3, 27408, Note_on_c, 1, 50, 0
3, 27456, Note_on_c, 1, 57, 110
3, 27502, Note_on_c, 1, 57, 0
3, 27504, Note_on_c, 1, 60, 110
3, 27550, Note_on_c, 1, 60, 0
3, 27552, Note_on_c, 1, 65, 110
3, 27646, Note_on_c, 1, 65, 0
3, 27648, Note_on_c, 1, 62, 110
3, 27742, Note_on_c, 1, 62, 0
3, 27744, Note_on_c, 1, 62, 110
3, 27744, Note_on_c, 1, 65, 110
3, 27744, Note_on_c, 1, 69, 110
3, 27886, Note_on_c, 1, 69, 0
3, 27886, Note_on_c, 1, 65, 0
3, 27886, Note_on_c, 1, 62, 0
3, 27888, Note_on_c, 1, 62, 110
3, 27888, Note_on_c, 1, 65, 110
3, 27888, Note_on_c, 1, 69, 110
3, 27934, Note_on_c, 1, 69, 0
3, 27934, Note_on_c, 1, 65, 0
3, 27934, Note_on_c, 1, 62, 0
3, 27936, Note_on_c, 1, 62, 110
3, 27936, Note_on_c, 1, 65, 110
3, 27936, Note_on_c, 1, 69, 110
3, 27982, Note_on_c, 1, 69, 0
3, 27982, Note_on_c, 1, 65, 0
3, 27982, Note_on_c, 1, 62, 0
3, 27984, Note_on_c, 1, 62, 110
3, 27984, Note_on_c, 1, 65, 110
3, 27984, Note_on_c, 1, 69, 110
3, 28030, Note_on_c, 1, 69, 0
3, 28030, Note_on_c, 1, 65, 0
3, 28030, Note_on_c, 1, 62, 0
3, 28032, Note_on_c, 1, 62, 127
3, 28032, Note_on_c, 1, 65, 127
3, 28032, Note_on_c, 1, 67, 127
3, 28078, Note_on_c, 1, 67, 0
3, 28078, Note_on_c, 1, 65, 0
3, 28078, Note_on_c, 1, 62, 0
3, 28080, Note_on_c, 1, 62, 110
3, 28080, Note_on_c, 1, 65, 110
3, 28080, Note_on_c, 1, 69, 110
3, 28126, Note_on_c, 1, 69, 0
3, 28126, Note_on_c, 1, 65, 0
3, 28126, Note_on_c, 1, 62, 0
3, 28128, Note_on_c, 1, 62, 110
3, 28128, Note_on_c, 1, 65, 110
3, 28128, Note_on_c, 1, 69, 110
3, 28174, Note_on_c, 1, 69, 0
3, 28174, Note_on_c, 1, 65, 0
3, 28174, Note_on_c, 1, 62, 0
3, 28176, Note_on_c, 1, 62, 110
3, 28176, Note_on_c, 1, 65, 110
3, 28176, Note_on_c, 1, 69, 110
3, 28222, Note_on_c, 1, 69, 0
3, 28222, Note_on_c, 1, 65, 0
3, 28222, Note_on_c, 1, 62, 0
3, 28224, Note_on_c, 1, 57, 110
3, 28270, Note_on_c, 1, 57, 0
3, 28272, Note_on_c, 1, 60, 110
3, 28318, Note_on_c, 1, 60, 0
3, 28320, Note_on_c, 1, 62, 110
3, 28366, Note_on_c, 1, 62, 0
3, 28368, Note_on_c, 1, 65, 110
3, 28414, Note_on_c, 1, 65, 0
3, 28416, Note_on_c, 1, 62, 110
3, 28510, Note_on_c, 1, 62, 0
3, 28512, Note_on_c, 1, 62, 110
3, 28512, Note_on_c, 1, 65, 110
3, 28512, Note_on_c, 1, 69, 110
3, 28654, Note_on_c, 1, 69, 0
3, 28654, Note_on_c, 1, 65, 0
3, 28654, Note_on_c, 1, 62, 0
3, 28656, Note_on_c, 1, 62, 110
3, 28656, Note_on_c, 1, 65, 110
3, 28656, Note_on_c, 1, 69, 110
3, 28702, Note_on_c, 1, 69, 0
3, 28702, Note_on_c, 1, 65, 0
3, 28702, Note_on_c, 1, 62, 0
3, 28704, Note_on_c, 1, 62, 110
3, 28704, Note_on_c, 1, 65, 110
3, 28704, Note_on_c, 1, 69, 110
3, 28750, Note_on_c, 1, 69, 0
3, 28750, Note_on_c, 1, 65, 0
3, 28750, Note_on_c, 1, 62, 0
3, 28752, Note_on_c, 1, 62, 110
3, 28752, Note_on_c, 1, 65, 110
3, 28752, Note_on_c, 1, 69, 110
3, 28798, Note_on_c, 1, 69, 0
3, 28798, Note_on_c, 1, 65, 0
3, 28798, Note_on_c, 1, 62, 0
3, 28800, Note_on_c, 1, 62, 127
3, 28800, Note_on_c, 1, 65, 127
3, 28800, Note_on_c, 1, 67, 127
3, 28846, Note_on_c, 1, 67, 0
3, 28846, Note_on_c, 1, 65, 0
3, 28846, Note_on_c, 1, 62, 0
3, 28848, Note_on_c, 1, 62, 110
3, 28848, Note_on_c, 1, 65, 110
3, 28848, Note_on_c, 1, 69, 110
3, 28894, Note_on_c, 1, 69, 0
3, 28894, Note_on_c, 1, 65, 0
3, 28894, Note_on_c, 1, 62, 0
3, 28896, Note_on_c, 1, 62, 110
3, 28896, Note_on_c, 1, 65, 110
3, 28896, Note_on_c, 1, 69, 110
3, 28942, Note_on_c, 1, 69, 0
3, 28942, Note_on_c, 1, 65, 0
3, 28942, Note_on_c, 1, 62, 0
3, 28944, Note_on_c, 1, 62, 110
3, 28944, Note_on_c, 1, 65, 110
3, 28944, Note_on_c, 1, 69, 110
3, 28990, Note_on_c, 1, 69, 0
3, 28990, Note_on_c, 1, 65, 0
3, 28990, Note_on_c, 1, 62, 0
3, 28992, Note_on_c, 1, 57, 110
3, 29038, Note_on_c, 1, 57, 0
3, 29040, Note_on_c, 1, 60, 110
3, 29086, Note_on_c, 1, 60, 0
3, 29088, Note_on_c, 1, 65, 110
3, 29182, Note_on_c, 1, 65, 0
3, 29184, Note_on_c, 1, 62, 110
3, 29344, Note_on_c, 1, 62, 0
3, 29376, Note_on_c, 1, 62, 110
3, 29376, Note_on_c, 1, 65, 110
3, 29536, Note_on_c, 1, 65, 0
3, 29536, Note_on_c, 1, 62, 0
3, 29568, Note_on_c, 1, 57, 110
3, 29568, Note_on_c, 1, 62, 110
3, 29824, Note_on_c, 1, 62, 0
3, 29824, Note_on_c, 1, 57, 0
3, 29856, Note_on_c, 1, 57, 110
3, 29856, Note_on_c, 1, 62, 110
3, 29950, Note_on_c, 1, 62, 0
3, 29950, Note_on_c, 1, 57, 0
3, 29952, Note_on_c, 1, 53, 110
3, 29952, Note_on_c, 1, 57, 110
3, 29952, Note_on_c, 1, 65, 110
3, 30208, Note_on_c, 1, 65, 0
3, 30208, Note_on_c, 1, 57, 0
3, 30208, Note_on_c, 1, 53, 0
3, 30240, Note_on_c, 1, 53, 110
3, 30240, Note_on_c, 1, 57, 110
3, 30240, Note_on_c, 1, 60, 110
3, 30334, Note_on_c, 1, 60, 0
3, 30334, Note_on_c, 1, 57, 0
3, 30334, Note_on_c, 1, 53, 0
3, 30336, Note_on_c, 1, 53, 110
3, 30336, Note_on_c, 1, 57, 110
3, 30336, Note_on_c, 1, 62, 110
3, 30496, Note_on_c, 1, 62, 0
3, 30496, Note_on_c, 1, 57, 0
3, 30496, Note_on_c, 1, 53, 0
3, 30528, Note_on_c, 1, 57, 110
3, 30574, Note_on_c, 1, 57, 0
3, 30576, Note_on_c, 1, 60, 110
3, 30622, Note_on_c, 1, 60, 0
3, 30624, Note_on_c, 1, 65, 110
3, 30718, Note_on_c, 1, 65, 0
3, 30720, Note_on_c, 1, 62, 110
3, 30880, Note_on_c, 1, 62, 0
3, 30912, Note_on_c, 1, 62, 110
3, 30912, Note_on_c, 1, 65, 110
3, 31072, Note_on_c, 1, 65, 0
3, 31072, Note_on_c, 1, 62, 0
3, 31104, Note_on_c, 1, 57, 110
3, 31104, Note_on_c, 1, 62, 110
3, 31360, Note_on_c, 1, 62, 0
3, 31360, Note_on_c, 1, 57, 0
3, 31392, Note_on_c, 1, 57, 110
3, 31392, Note_on_c, 1, 62, 110
3, 31486, Note_on_c, 1, 62, 0
3, 31486, Note_on_c, 1, 57, 0
3, 31488, Note_on_c, 1, 67, 110
3, 31648, Note_on_c, 1, 67, 0
3, 31680, Note_on_c, 1, 69, 110
3, 31966, Note_on_c, 1, 69, 0
3, 31968, Note_on_c, 1, 67, 110
3, 32064, Note_on_c, 1, 67, 0
3, 32064, Note_on_c, 1, 65, 110
3, 32224, Note_on_c, 1, 65, 0
3, 32256, Note_on_c, 1, 55, 110
3, 32256, Note_on_c, 1, 60, 110
3, 32256, Note_on_c, 1, 64, 110
3, 32592, Note_on_c, 1, 64, 0
3, 32592, Note_on_c, 1, 60, 0
3, 32592, Note_on_c, 1, 55, 0
3, 32640, Note_on_c, 1, 52, 110
3, 32640, Note_on_c, 1, 55, 110
3, 32640, Note_on_c, 1, 60, 110
3, 32766, Note_on_c, 1, 60, 0
3, 32766, Note_on_c, 1, 55, 0
3, 32766, Note_on_c, 1, 52, 0
3, 32768, Note_on_c, 1, 55, 110
3, 32768, Note_on_c, 1, 60, 110
3, 32768, Note_on_c, 1, 64, 110
3, 32894, Note_on_c, 1, 64, 0
3, 32894, Note_on_c, 1, 60, 0
3, 32894, Note_on_c, 1, 55, 0
3, 32896, Note_on_c, 1, 55, 110
3, 32896, Note_on_c, 1, 60, 110
3, 32896, Note_on_c, 1, 65, 110
3, 33022, Note_on_c, 1, 65, 0
3, 33022, Note_on_c, 1, 60, 0
3, 33022, Note_on_c, 1, 55, 0
3, 33024, Note_on_c, 1, 58, 110
3, 33024, Note_on_c, 1, 62, 110
3, 33280, Note_on_c, 1, 62, 0
3, 33280, Note_on_c, 1, 58, 0
3, 33312, Note_on_c, 1, 58, 110
3, 33312, Note_on_c, 1, 62, 110
3, 33568, Note_on_c, 1, 62, 0
3, 33568, Note_on_c, 1, 58, 0
3, 33600, Note_on_c, 1, 58, 110
3, 33600, Note_on_c, 1, 62, 110
3, 33760, Note_on_c, 1, 62, 0
3, 33760, Note_on_c, 1, 58, 0
3, 33792, Note_on_c, 1, 53, 110
3, 33792, Note_on_c, 1, 57, 110
3, 33792, Note_on_c, 1, 62, 110
3, 34048, Note_on_c, 1, 62, 0
3, 34048, Note_on_c, 1, 57, 0
3, 34048, Note_on_c, 1, 53, 0
3, 34080, Note_on_c, 1, 53, 110
3, 34080, Note_on_c, 1, 57, 110
3, 34080, Note_on_c, 1, 62, 110
3, 34336, Note_on_c, 1, 62, 0
3, 34336, Note_on_c, 1, 57, 0
3, 34336, Note_on_c, 1, 53, 0
3, 34368, Note_on_c, 1, 57, 110
3, 34414, Note_on_c, 1, 57, 0
3, 34416, Note_on_c, 1, 60, 110
3, 34462, Note_on_c, 1, 60, 0
3, 34464, Note_on_c, 1, 62, 110
3, 34510, Note_on_c, 1, 62, 0
3, 34512, Note_on_c, 1, 65, 110
3, 34558, Note_on_c, 1, 65, 0
3, 34560, Note_on_c, 1, 62, 110
3, 34654, Note_on_c, 1, 62, 0
3, 34656, Note_on_c, 1, 62, 110
3, 34656, Note_on_c, 1, 65, 110
3, 34656, Note_on_c, 1, 69, 110
3, 34798, Note_on_c, 1, 69, 0
3, 34798, Note_on_c, 1, 65, 0
3, 34798, Note_on_c, 1, 62, 0
3, 34800, Note_on_c, 1, 62, 110
3, 34800, Note_on_c, 1, 65, 110
3, 34800, Note_on_c, 1, 69, 110
3, 34846, Note_on_c, 1, 69, 0
3, 34846, Note_on_c, 1, 65, 0
3, 34846, Note_on_c, 1, 62, 0
3, 34848, Note_on_c, 1, 62, 110
3, 34848, Note_on_c, 1, 65, 110
3, 34848, Note_on_c, 1, 69, 110
3, 34894, Note_on_c, 1, 69, 0
3, 34894, Note_on_c, 1, 65, 0
3, 34894, Note_on_c, 1, 62, 0
3, 34896, Note_on_c, 1, 62, 110
3, 34896, Note_on_c, 1, 65, 110
3, 34896, Note_on_c, 1, 69, 110
3, 34942, Note_on_c, 1, 69, 0
3, 34942, Note_on_c, 1, 65, 0
3, 34942, Note_on_c, 1, 62, 0
3, 34944, Note_on_c, 1, 62, 127
3, 34944, Note_on_c, 1, 65, 127
3, 34944, Note_on_c, 1, 67, 127
3, 34990, Note_on_c, 1, 67, 0
3, 34990, Note_on_c, 1, 65, 0
3, 34990, Note_on_c, 1, 62, 0
3, 34992, Note_on_c, 1, 62, 110
3, 34992, Note_on_c, 1, 65, 110
3, 34992, Note_on_c, 1, 69, 110
3, 35038, Note_on_c, 1, 69, 0
3, 35038, Note_on_c, 1, 65, 0
3, 35038, Note_on_c, 1, 62, 0
3, 35040, Note_on_c, 1, 62, 110
3, 35040, Note_on_c, 1, 65, 110
3, 35040, Note_on_c, 1, 69, 110
3, 35086, Note_on_c, 1, 69, 0
3, 35086, Note_on_c, 1, 65, 0
3, 35086, Note_on_c, 1, 62, 0
3, 35088, Note_on_c, 1, 62, 110
3, 35088, Note_on_c, 1, 65, 110
3, 35088, Note_on_c, 1, 69, 110
3, 35134, Note_on_c, 1, 69, 0
3, 35134, Note_on_c, 1, 65, 0
3, 35134, Note_on_c, 1, 62, 0
3, 35136, Note_on_c, 1, 57, 110
3, 35182, Note_on_c, 1, 57, 0
3, 35184, Note_on_c, 1, 60, 110
3, 35230, Note_on_c, 1, 60, 0
3, 35232, Note_on_c, 1, 65, 110
3, 35326, Note_on_c, 1, 65, 0
3, 35328, Note_on_c, 1, 62, 110
3, 35488, Note_on_c, 1, 62, 0
3, 35520, Note_on_c, 1, 57, 110
3, 35520, Note_on_c, 1, 62, 110
3, 35520, Note_on_c, 1, 65, 110
3, 35520, Note_on_c, 1, 69, 110
3, 35680, Note_on_c, 1, 69, 0
3, 35680, Note_on_c, 1, 57, 0
3, 35680, Note_on_c, 1, 62, 0
3, 35680, Note_on_c, 1, 65, 0
3, 35712, Note_on_c, 1, 57, 110
3, 35712, Note_on_c, 1, 62, 110
3, 35712, Note_on_c, 1, 67, 110
3, 35806, Note_on_c, 1, 67, 0
3, 35808, Note_on_c, 1, 65, 110
3, 35968, Note_on_c, 1, 62, 0
3, 35968, Note_on_c, 1, 57, 0
3, 35998, Note_on_c, 1, 65, 0
3, 36000, Note_on_c, 1, 57, 110
3, 36000, Note_on_c, 1, 62, 110
3, 36000, Note_on_c, 1, 65, 110
3, 36046, Note_on_c, 1, 65, 0
3, 36048, Note_on_c, 1, 65, 110
3, 36094, Note_on_c, 1, 65, 0
3, 36094, Note_on_c, 1, 62, 0
3, 36094, Note_on_c, 1, 57, 0
3, 36096, Note_on_c, 1, 62, 110
3, 36096, Note_on_c, 1, 65, 110
3, 36096, Note_on_c, 1, 67, 110
3, 36352, Note_on_c, 1, 67, 0
3, 36352, Note_on_c, 1, 65, 0
3, 36352, Note_on_c, 1, 62, 0
3, 36480, Note_on_c, 1, 53, 110
3, 36480, Note_on_c, 1, 57, 110
3, 36480, Note_on_c, 1, 62, 110
3, 36640, Note_on_c, 1, 62, 0
3, 36640, Note_on_c, 1, 57, 0
3, 36640, Note_on_c, 1, 53, 0
3, 36672, Note_on_c, 1, 57, 110
3, 36718, Note_on_c, 1, 57, 0
3, 36720, Note_on_c, 1, 60, 110
3, 36766, Note_on_c, 1, 60, 0
3, 36768, Note_on_c, 1, 65, 110
3, 36862, Note_on_c, 1, 65, 0
3, 36864, Note_on_c, 1, 62, 110
3, 37024, Note_on_c, 1, 62, 0
3, 37056, Note_on_c, 1, 62, 110
3, 37056, Note_on_c, 1, 65, 110
3, 37056, Note_on_c, 1, 69, 110
3, 37342, Note_on_c, 1, 69, 0
3, 37344, Note_on_c, 1, 67, 110
3, 37408, Note_on_c, 1, 65, 0
3, 37408, Note_on_c, 1, 62, 0
3, 37438, Note_on_c, 1, 67, 0
3, 37440, Note_on_c, 1, 57, 110
3, 37440, Note_on_c, 1, 62, 110
3, 37440, Note_on_c, 1, 67, 110
3, 37534, Note_on_c, 1, 67, 0
3, 37536, Note_on_c, 1, 65, 110
3, 37600, Note_on_c, 1, 62, 0
3, 37600, Note_on_c, 1, 57, 0
3, 37630, Note_on_c, 1, 65, 0
3, 37728, Note_on_c, 1, 62, 110
3, 37728, Note_on_c, 1, 65, 110
3, 37728, Note_on_c, 1, 69, 110
3, 37888, Note_on_c, 1, 69, 0
3, 37888, Note_on_c, 1, 65, 0
3, 37888, Note_on_c, 1, 62, 0
3, 37920, Note_on_c, 1, 62, 110
3, 37920, Note_on_c, 1, 65, 110
3, 37920, Note_on_c, 1, 69, 110
3, 38014, Note_on_c, 1, 69, 0
3, 38014, Note_on_c, 1, 65, 0
3, 38014, Note_on_c, 1, 62, 0
3, 38016, Note_on_c, 1, 62, 110
3, 38016, Note_on_c, 1, 65, 110
3, 38016, Note_on_c, 1, 70, 110
3, 38158, Note_on_c, 1, 70, 0
3, 38160, Note_on_c, 1, 72, 110
3, 38176, Note_on_c, 1, 65, 0
3, 38176, Note_on_c, 1, 62, 0
3, 38206, Note_on_c, 1, 72, 0
3, 38208, Note_on_c, 1, 62, 110
3, 38208, Note_on_c, 1, 65, 110
3, 38208, Note_on_c, 1, 69, 110
3, 38302, Note_on_c, 1, 69, 0
3, 38304, Note_on_c, 1, 70, 110
3, 38350, Note_on_c, 1, 70, 0
3, 38352, Note_on_c, 1, 69, 110
3, 38368, Note_on_c, 1, 65, 0
3, 38368, Note_on_c, 1, 62, 0
3, 38398, Note_on_c, 1, 69, 0
3, 38400, Note_on_c, 1, 60, 110
3, 38400, Note_on_c, 1, 64, 110
3, 38400, Note_on_c, 1, 67, 110
3, 38736, Note_on_c, 1, 67, 0
3, 38736, Note_on_c, 1, 64, 0
3, 38736, Note_on_c, 1, 60, 0
3, 38784, Note_on_c, 1, 60, 110
3, 38784, Note_on_c, 1, 64, 110
3, 38784, Note_on_c, 1, 69, 110
3, 39120, Note_on_c, 1, 69, 0
3, 39120, Note_on_c, 1, 64, 0
3, 39120, Note_on_c, 1, 60, 0
3, 39168, Note_on_c, 1, 58, 110
3, 39168, Note_on_c, 1, 62, 110
3, 39168, Note_on_c, 1, 65, 110
3, 39168, Note_on_c, 1, 70, 110
3, 39328, Note_on_c, 1, 70, 0
3, 39328, Note_on_c, 1, 58, 0
3, 39328, Note_on_c, 1, 62, 0
3, 39328, Note_on_c, 1, 65, 0
3, 39360, Note_on_c, 1, 58, 110
3, 39360, Note_on_c, 1, 62, 110
3, 39360, Note_on_c, 1, 65, 110
3, 39360, Note_on_c, 1, 69, 110
3, 39454, Note_on_c, 1, 69, 0
3, 39454, Note_on_c, 1, 58, 0
3, 39454, Note_on_c, 1, 62, 0
3, 39454, Note_on_c, 1, 65, 0
3, 39456, Note_on_c, 1, 58, 110
3, 39456, Note_on_c, 1, 62, 110
3, 39456, Note_on_c, 1, 65, 110
3, 39456, Note_on_c, 1, 67, 110
3, 39712, Note_on_c, 1, 67, 0
3, 39712, Note_on_c, 1, 58, 0
3, 39712, Note_on_c, 1, 62, 0
3, 39712, Note_on_c, 1, 65, 0
3, 39744, Note_on_c, 1, 65, 110
3, 39838, Note_on_c, 1, 65, 0
3, 39840, Note_on_c, 1, 53, 110
3, 39840, Note_on_c, 1, 57, 110
3, 39840, Note_on_c, 1, 60, 110
3, 39840, Note_on_c, 1, 64, 110
3, 40030, Note_on_c, 1, 64, 0
3, 40032, Note_on_c, 1, 65, 110
3, 40096, Note_on_c, 1, 53, 0
3, 40096, Note_on_c, 1, 60, 0
3, 40096, Note_on_c, 1, 57, 0
3, 40126, Note_on_c, 1, 65, 0
3, 40128, Note_on_c, 1, 53, 110
3, 40128, Note_on_c, 1, 57, 110
3, 40128, Note_on_c, 1, 60, 110
3, 40128, Note_on_c, 1, 64, 110
3, 40222, Note_on_c, 1, 64, 0
3, 40224, Note_on_c, 1, 65, 110
3, 40270, Note_on_c, 1, 65, 0
3, 40272, Note_on_c, 1, 64, 110
3, 40288, Note_on_c, 1, 60, 0
3, 40288, Note_on_c, 1, 53, 0
3, 40288, Note_on_c, 1, 57, 0
3, 40318, Note_on_c, 1, 64, 0
3, 40320, Note_on_c, 1, 53, 110
3, 40320, Note_on_c, 1, 57, 110
3, 40320, Note_on_c, 1, 62, 110
3, 40480, Note_on_c, 1, 62, 0
3, 40480, Note_on_c, 1, 57, 0
3, 40480, Note_on_c, 1, 53, 0
3, 40512, Note_on_c, 1, 57, 110
3, 40558, Note_on_c, 1, 57, 0
3, 40560, Note_on_c, 1, 60, 110
3, 40606, Note_on_c, 1, 60, 0
3, 40608, Note_on_c, 1, 62, 110
3, 40654, Note_on_c, 1, 62, 0
3, 40656, Note_on_c, 1, 65, 110
3, 40702, Note_on_c, 1, 65, 0
3, 40704, Note_on_c, 1, 62, 110
3, 40798, Note_on_c, 1, 62, 0
3, 40800, Note_on_c, 1, 62, 110
3, 40800, Note_on_c, 1, 65, 110
3, 40800, Note_on_c, 1, 69, 110
3, 40942, Note_on_c, 1, 69, 0
3, 40942, Note_on_c, 1, 65, 0
3, 40942, Note_on_c, 1, 62, 0
3, 40944, Note_on_c, 1, 62, 110
3, 40944, Note_on_c, 1, 65, 110
3, 40944, Note_on_c, 1, 69, 110
3, 40990, Note_on_c, 1, 69, 0
3, 40990, Note_on_c, 1, 65, 0
3, 40990, Note_on_c, 1, 62, 0
3, 40992, Note_on_c, 1, 62, 110
3, 40992, Note_on_c, 1, 65, 110
3, 40992, Note_on_c, 1, 69, 110
3, 41038, Note_on_c, 1, 69, 0
3, 41038, Note_on_c, 1, 65, 0
3, 41038, Note_on_c, 1, 62, 0
3, 41040, Note_on_c, 1, 62, 110
3, 41040, Note_on_c, 1, 65, 110
3, 41040, Note_on_c, 1, 69, 110
3, 41086, Note_on_c, 1, 69, 0
3, 41086, Note_on_c, 1, 65, 0
3, 41086, Note_on_c, 1, 62, 0
3, 41088, Note_on_c, 1, 62, 127
3, 41088, Note_on_c, 1, 65, 127
3, 41088, Note_on_c, 1, 67, 127
3, 41134, Note_on_c, 1, 67, 0
3, 41134, Note_on_c, 1, 65, 0
3, 41134, Note_on_c, 1, 62, 0
3, 41136, Note_on_c, 1, 62, 110
3, 41136, Note_on_c, 1, 65, 110
3, 41136, Note_on_c, 1, 69, 110
3, 41182, Note_on_c, 1, 69, 0
3, 41182, Note_on_c, 1, 65, 0
3, 41182, Note_on_c, 1, 62, 0
3, 41184, Note_on_c, 1, 62, 110
3, 41184, Note_on_c, 1, 65, 110
3, 41184, Note_on_c, 1, 69, 110
3, 41230, Note_on_c, 1, 69, 0
3, 41230, Note_on_c, 1, 65, 0
3, 41230, Note_on_c, 1, 62, 0
3, 41232, Note_on_c, 1, 62, 110
3, 41232, Note_on_c, 1, 65, 110
3, 41232, Note_on_c, 1, 69, 110
3, 41278, Note_on_c, 1, 69, 0
3, 41278, Note_on_c, 1, 65, 0
3, 41278, Note_on_c, 1, 62, 0
3, 41280, Note_on_c, 1, 57, 110
3, 41280, Note_on_c, 1, 62, 110
3, 41280, Note_on_c, 1, 65, 110
3, 41374, Note_on_c, 1, 65, 0
3, 41374, Note_on_c, 1, 62, 0
3, 41374, Note_on_c, 1, 57, 0
3, 41376, Note_on_c, 1, 57, 110
3, 41376, Note_on_c, 1, 62, 110
3, 41376, Note_on_c, 1, 65, 110
3, 41470, Note_on_c, 1, 65, 0
3, 41470, Note_on_c, 1, 62, 0
3, 41470, Note_on_c, 1, 57, 0
3, 41472, Note_on_c, 1, 57, 110
3, 41472, Note_on_c, 1, 60, 110
3, 41472, Note_on_c, 1, 65, 110
3, 41632, Note_on_c, 1, 65, 0
3, 41632, Note_on_c, 1, 60, 0
3, 41632, Note_on_c, 1, 57, 0
3, 41664, Note_on_c, 1, 57, 110
3, 41664, Note_on_c, 1, 60, 110
3, 41664, Note_on_c, 1, 65, 110
3, 41758, Note_on_c, 1, 65, 0
3, 41758, Note_on_c, 1, 60, 0
3, 41758, Note_on_c, 1, 57, 0
3, 41760, Note_on_c, 1, 60, 110
3, 41760, Note_on_c, 1, 64, 110
3, 41760, Note_on_c, 1, 67, 110
3, 41854, Note_on_c, 1, 67, 0
3, 41854, Note_on_c, 1, 64, 0
3, 41854, Note_on_c, 1, 60, 0
3, 41856, Note_on_c, 1, 60, 110
3, 41856, Note_on_c, 1, 65, 110
3, 41856, Note_on_c, 1, 69, 110
3, 41950, Note_on_c, 1, 69, 0
3, 41950, Note_on_c, 1, 65, 0
3, 41950, Note_on_c, 1, 60, 0
3, 41952, Note_on_c, 1, 60, 110
3, 41952, Note_on_c, 1, 65, 110
3, 41952, Note_on_c, 1, 67, 110
3, 42046, Note_on_c, 1, 67, 0
3, 42046, Note_on_c, 1, 65, 0
3, 42046, Note_on_c, 1, 60, 0
3, 42048, Note_on_c, 1, 60, 110
3, 42048, Note_on_c, 1, 64, 110
3, 42048, Note_on_c, 1, 67, 110
3, 42142, Note_on_c, 1, 67, 0
3, 42142, Note_on_c, 1, 64, 0
3, 42142, Note_on_c, 1, 60, 0
3, 42144, Note_on_c, 1, 57, 110
3, 42144, Note_on_c, 1, 62, 110
3, 42144, Note_on_c, 1, 65, 110
3, 42238, Note_on_c, 1, 65, 0
3, 42238, Note_on_c, 1, 62, 0
3, 42238, Note_on_c, 1, 57, 0
3, 42240, Note_on_c, 1, 60, 110
3, 42240, Note_on_c, 1, 64, 110
3, 42240, Note_on_c, 1, 67, 110
3, 42400, Note_on_c, 1, 67, 0
3, 42400, Note_on_c, 1, 64, 0
3, 42400, Note_on_c, 1, 60, 0
3, 42432, Note_on_c, 1, 60, 110
3, 42432, Note_on_c, 1, 64, 110
3, 42432, Note_on_c, 1, 67, 110
3, 42592, Note_on_c, 1, 67, 0
3, 42592, Note_on_c, 1, 64, 0
3, 42592, Note_on_c, 1, 60, 0
3, 42624, Note_on_c, 1, 55, 110
3, 42718, Note_on_c, 1, 55, 0
3, 42720, Note_on_c, 1, 57, 110
3, 42814, Note_on_c, 1, 57, 0
3, 42816, Note_on_c, 1, 60, 110
3, 42910, Note_on_c, 1, 60, 0
3, 42912, Note_on_c, 1, 69, 110
3, 43006, Note_on_c, 1, 69, 0
3, 43008, Note_on_c, 1, 57, 110
3, 43008, Note_on_c, 1, 62, 110
3, 43008, Note_on_c, 1, 65, 110
3, 43344, Note_on_c, 1, 65, 0
3, 43344, Note_on_c, 1, 62, 0
3, 43344, Note_on_c, 1, 57, 0
3, 43392, Note_on_c, 1, 60, 110
3, 43392, Note_on_c, 1, 65, 110
3, 43392, Note_on_c, 1, 69, 110
3, 43552, Note_on_c, 1, 69, 0
3, 43552, Note_on_c, 1, 65, 0
3, 43552, Note_on_c, 1, 60, 0
3, 43584, Note_on_c, 1, 60, 110
3, 43584, Note_on_c, 1, 64, 110
3, 43584, Note_on_c, 1, 69, 110
3, 43678, Note_on_c, 1, 69, 0
3, 43678, Note_on_c, 1, 64, 0
3, 43678, Note_on_c, 1, 60, 0
3, 43680, Note_on_c, 1, 60, 110
3, 43680, Note_on_c, 1, 65, 110
3, 43680, Note_on_c, 1, 69, 110
3, 43774, Note_on_c, 1, 69, 0
3, 43774, Note_on_c, 1, 65, 0
3, 43774, Note_on_c, 1, 60, 0
3, 43776, Note_on_c, 1, 60, 110
3, 43776, Note_on_c, 1, 64, 110
3, 43776, Note_on_c, 1, 67, 110
3, 44112, Note_on_c, 1, 67, 0
3, 44112, Note_on_c, 1, 64, 0
3, 44112, Note_on_c, 1, 60, 0
3, 44160, Note_on_c, 1, 60, 110
3, 44160, Note_on_c, 1, 64, 110
3, 44160, Note_on_c, 1, 69, 110
3, 44320, Note_on_c, 1, 69, 0
3, 44320, Note_on_c, 1, 64, 0
3, 44320, Note_on_c, 1, 60, 0
3, 44352, Note_on_c, 1, 60, 110
3, 44352, Note_on_c, 1, 64, 110
3, 44352, Note_on_c, 1, 67, 110
3, 44512, Note_on_c, 1, 67, 0
3, 44512, Note_on_c, 1, 64, 0
3, 44512, Note_on_c, 1, 60, 0
3, 44544, Note_on_c, 1, 57, 110
3, 44544, Note_on_c, 1, 62, 110
3, 44544, Note_on_c, 1, 65, 110
3, 44704, Note_on_c, 1, 65, 0
3, 44704, Note_on_c, 1, 62, 0
3, 44704, Note_on_c, 1, 57, 0
3, 44736, Note_on_c, 1, 57, 110
3, 44736, Note_on_c, 1, 60, 110
3, 44736, Note_on_c, 1, 65, 110
3, 44830, Note_on_c, 1, 65, 0
3, 44830, Note_on_c, 1, 60, 0
3, 44830, Note_on_c, 1, 57, 0
3, 44832, Note_on_c, 1, 60, 110
3, 44832, Note_on_c, 1, 64, 110
3, 44832, Note_on_c, 1, 67, 110
3, 44926, Note_on_c, 1, 67, 0
3, 44926, Note_on_c, 1, 64, 0
3, 44926, Note_on_c, 1, 60, 0
3, 44928, Note_on_c, 1, 60, 110
3, 44928, Note_on_c, 1, 65, 110
3, 44928, Note_on_c, 1, 69, 110
3, 45022, Note_on_c, 1, 69, 0
3, 45022, Note_on_c, 1, 65, 0
3, 45022, Note_on_c, 1, 60, 0
3, 45024, Note_on_c, 1, 60, 110
3, 45024, Note_on_c, 1, 65, 110
3, 45024, Note_on_c, 1, 67, 110
3, 45118, Note_on_c, 1, 67, 0
3, 45118, Note_on_c, 1, 65, 0
3, 45118, Note_on_c, 1, 60, 0
3, 45120, Note_on_c, 1, 60, 110
3, 45120, Note_on_c, 1, 64, 110
3, 45120, Note_on_c, 1, 67, 110
3, 45214, Note_on_c, 1, 67, 0
3, 45214, Note_on_c, 1, 64, 0
3, 45214, Note_on_c, 1, 60, 0
3, 45216, Note_on_c, 1, 57, 110
3, 45216, Note_on_c, 1, 62, 110
3, 45216, Note_on_c, 1, 65, 110
3, 45310, Note_on_c, 1, 65, 0
3, 45310, Note_on_c, 1, 62, 0
3, 45310, Note_on_c, 1, 57, 0
3, 45312, Note_on_c, 1, 60, 110
3, 45312, Note_on_c, 1, 64, 110
3, 45312, Note_on_c, 1, 67, 110
3, 45472, Note_on_c, 1, 67, 0
3, 45472, Note_on_c, 1, 64, 0
3, 45472, Note_on_c, 1, 60, 0
3, 45504, Note_on_c, 1, 60, 110
3, 45504, Note_on_c, 1, 64, 110
3, 45504, Note_on_c, 1, 67, 110
3, 45840, Note_on_c, 1, 67, 0
3, 45840, Note_on_c, 1, 64, 0
3, 45840, Note_on_c, 1, 60, 0
3, 46080, Note_on_c, 1, 50, 110
3, 46080, Note_on_c, 1, 55, 110
3, 46080, Note_on_c, 1, 59, 110
3, 46240, Note_on_c, 1, 59, 0
3, 46240, Note_on_c, 1, 55, 0
3, 46240, Note_on_c, 1, 50, 0
3, 46272, Note_on_c, 1, 52, 110
3, 46272, Note_on_c, 1, 55, 110
3, 46272, Note_on_c, 1, 60, 110
3, 46800, Note_on_c, 1, 60, 0
3, 46800, Note_on_c, 1, 55, 0
3, 46800, Note_on_c, 1, 52, 0
3, 46848, Note_on_c, 1, 50, 110
3, 46848, Note_on_c, 1, 55, 110
3, 46848, Note_on_c, 1, 58, 110
3, 47376, Note_on_c, 1, 58, 0
3, 47376, Note_on_c, 1, 55, 0
3, 47376, Note_on_c, 1, 50, 0
3, 47424, Note_on_c, 1, 57, 110
3, 47470, Note_on_c, 1, 57, 0
3, 47472, Note_on_c, 1, 60, 110
3, 47518, Note_on_c, 1, 60, 0
3, 47520, Note_on_c, 1, 65, 110
3, 47614, Note_on_c, 1, 65, 0
3, 47616, Note_on_c, 1, 50, 110
3, 47616, Note_on_c, 1, 55, 110
3, 47616, Note_on_c, 1, 59, 110
3, 47776, Note_on_c, 1, 59, 0
3, 47776, Note_on_c, 1, 55, 0
3, 47776, Note_on_c, 1, 50, 0
3, 47808, Note_on_c, 1, 52, 110
3, 47808, Note_on_c, 1, 57, 110
3, 47808, Note_on_c, 1, 60, 110
3, 48336, Note_on_c, 1, 60, 0
3, 48336, Note_on_c, 1, 57, 0
3, 48336, Note_on_c, 1, 52, 0
3, 48384, Note_on_c, 1, 50, 110
3, 48384, Note_on_c, 1, 55, 110
3, 48384, Note_on_c, 1, 58, 110
3, 48720, Note_on_c, 1, 58, 0
3, 48720, Note_on_c, 1, 55, 0
3, 48720, Note_on_c, 1, 50, 0
3, 48768, Note_on_c, 1, 50, 110
3, 48768, Note_on_c, 1, 55, 110
3, 48768, Note_on_c, 1, 58, 110
3, 48928, Note_on_c, 1, 58, 0
3, 48928, Note_on_c, 1, 55, 0
3, 48928, Note_on_c, 1, 50, 0
3, 48960, Note_on_c, 1, 62, 110
3, 49054, Note_on_c, 1, 62, 0
3, 49056, Note_on_c, 1, 62, 110
3, 49150, Note_on_c, 1, 62, 0
3, 49152, Note_on_c, 1, 65, 110
3, 49246, Note_on_c, 1, 65, 0
3, 49248, Note_on_c, 1, 62, 110
3, 49342, Note_on_c, 1, 62, 0
3, 49536, Note_on_c, 1, 52, 110
3, 49536, Note_on_c, 1, 64, 110
3, 49582, Note_on_c, 1, 64, 0
3, 49582, Note_on_c, 1, 52, 0
3, 49584, Note_on_c, 1, 50, 127
3, 49584, Note_on_c, 1, 62, 127
3, 50208, Note_on_c, 1, 50, 0
3, 50256, Note_on_c, 1, 50, 110
3, 50302, Note_on_c, 1, 50, 0
3, 50302, Note_on_c, 1, 62, 0
3, 50304, Note_on_c, 1, 53, 110
3, 50304, Note_on_c, 1, 57, 110
3, 50304, Note_on_c, 1, 62, 110
3, 51024, Note_on_c, 1, 62, 0
3, 51024, Note_on_c, 1, 57, 0
3, 51024, Note_on_c, 1, 53, 0
3, 51072, Note_on_c, 1, 53, 110
3, 51072, Note_on_c, 1, 57, 110
3, 51072, Note_on_c, 1, 62, 110
3, 51792, Note_on_c, 1, 62, 0
3, 51792, Note_on_c, 1, 57, 0
3, 51792, Note_on_c, 1, 53, 0
3, 51840, Note_on_c, 1, 52, 110
3, 51840, Note_on_c, 1, 55, 110
3, 51840, Note_on_c, 1, 60, 110
3, 52560, Note_on_c, 1, 60, 0
3, 52560, Note_on_c, 1, 55, 0
3, 52560, Note_on_c, 1, 52, 0
3, 52608, Note_on_c, 1, 53, 110
3, 52608, Note_on_c, 1, 57, 110
3, 52608, Note_on_c, 1, 62, 110
3, 53328, Note_on_c, 1, 62, 0
3, 53328, Note_on_c, 1, 57, 0
3, 53328, Note_on_c, 1, 53, 0
3, 53376, Note_on_c, 1, 52, 110
3, 53376, Note_on_c, 1, 55, 110
3, 53376, Note_on_c, 1, 60, 110
3, 54096, Note_on_c, 1, 60, 0
3, 54096, Note_on_c, 1, 55, 0
3, 54096, Note_on_c, 1, 52, 0
3, 54144, Note_on_c, 1, 53, 110
3, 54144, Note_on_c, 1, 57, 110
3, 54144, Note_on_c, 1, 62, 110
3, 54864, Note_on_c, 1, 62, 0
3, 54864, Note_on_c, 1, 57, 0
3, 54864, Note_on_c, 1, 53, 0
3, 54912, Note_on_c, 1, 52, 110
3, 54912, Note_on_c, 1, 55, 110
3, 54912, Note_on_c, 1, 60, 110
3, 55632, Note_on_c, 1, 60, 0
3, 55632, Note_on_c, 1, 55, 0
3, 55632, Note_on_c, 1, 52, 0
3, 55680, Note_on_c, 1, 50, 110
3, 55680, Note_on_c, 1, 53, 110
3, 55680, Note_on_c, 1, 58, 110
3, 56208, Note_on_c, 1, 58, 0
3, 56208, Note_on_c, 1, 53, 0
3, 56208, Note_on_c, 1, 50, 0
3, 56256, Note_on_c, 1, 52, 110
3, 56256, Note_on_c, 1, 55, 110
3, 56256, Note_on_c, 1, 60, 110
3, 56416, Note_on_c, 1, 60, 0
3, 56416, Note_on_c, 1, 55, 0
3, 56416, Note_on_c, 1, 52, 0
3, 56448, Note_on_c, 1, 53, 110
3, 56448, Note_on_c, 1, 57, 110
3, 56448, Note_on_c, 1, 62, 110
3, 56976, Note_on_c, 1, 62, 0
3, 56976, Note_on_c, 1, 57, 0
3, 56976, Note_on_c, 1, 53, 0
3, 57024, Note_on_c, 1, 52, 110
3, 57024, Note_on_c, 1, 55, 110
3, 57024, Note_on_c, 1, 60, 110
3, 57184, Note_on_c, 1, 60, 0
3, 57184, Note_on_c, 1, 55, 0
3, 57184, Note_on_c, 1, 52, 0
3, 57216, Note_on_c, 1, 50, 110
3, 57216, Note_on_c, 1, 53, 110
3, 57216, Note_on_c, 1, 58, 110
3, 57936, Note_on_c, 1, 58, 0
3, 57936, Note_on_c, 1, 53, 0
3, 57936, Note_on_c, 1, 50, 0
3, 57984, Note_on_c, 1, 53, 110
3, 57984, Note_on_c, 1, 57, 110
3, 57984, Note_on_c, 1, 62, 110
3, 58704, Note_on_c, 1, 62, 0
3, 58704, Note_on_c, 1, 57, 0
3, 58704, Note_on_c, 1, 53, 0
3, 58752, Note_on_c, 1, 50, 110
3, 58752, Note_on_c, 1, 53, 110
3, 58752, Note_on_c, 1, 58, 110
3, 60048, Note_on_c, 1, 58, 0
3, 60048, Note_on_c, 1, 53, 0
3, 60048, Note_on_c, 1, 50, 0
3, 60096, Note_on_c, 1, 62, 110
3, 60096, Note_on_c, 1, 65, 110
3, 60096, Note_on_c, 1, 69, 110
3, 60190, Note_on_c, 1, 69, 0
3, 60190, Note_on_c, 1, 65, 0
3, 60190, Note_on_c, 1, 62, 0
3, 60192, Note_on_c, 1, 62, 110
3, 60192, Note_on_c, 1, 65, 110
3, 60192, Note_on_c, 1, 67, 110
3, 60286, Note_on_c, 1, 67, 0
3, 60286, Note_on_c, 1, 65, 0
3, 60286, Note_on_c, 1, 62, 0
3, 60288, Note_on_c, 1, 57, 110
3, 60288, Note_on_c, 1, 60, 110
3, 60288, Note_on_c, 1, 65, 110
3, 60448, Note_on_c, 1, 65, 0
3, 60448, Note_on_c, 1, 60, 0
3, 60448, Note_on_c, 1, 57, 0
3, 60480, Note_on_c, 1, 57, 110
3, 60480, Note_on_c, 1, 60, 110
3, 60480, Note_on_c, 1, 65, 110
3, 60574, Note_on_c, 1, 65, 0
3, 60574, Note_on_c, 1, 60, 0
3, 60574, Note_on_c, 1, 57, 0
3, 60576, Note_on_c, 1, 60, 110
3, 60576, Note_on_c, 1, 64, 110
3, 60576, Note_on_c, 1, 67, 110
3, 60670, Note_on_c, 1, 67, 0
3, 60670, Note_on_c, 1, 64, 0
3, 60670, Note_on_c, 1, 60, 0
3, 60672, Note_on_c, 1, 60, 110
3, 60672, Note_on_c, 1, 65, 110
3, 60672, Note_on_c, 1, 69, 110
3, 60766, Note_on_c, 1, 69, 0
3, 60766, Note_on_c, 1, 65, 0
3, 60766, Note_on_c, 1, 60, 0
3, 60768, Note_on_c, 1, 60, 110
3, 60768, Note_on_c, 1, 65, 110
3, 60768, Note_on_c, 1, 67, 110
3, 60862, Note_on_c, 1, 67, 0
3, 60862, Note_on_c, 1, 65, 0
3, 60862, Note_on_c, 1, 60, 0
3, 60864, Note_on_c, 1, 60, 110
3, 60864, Note_on_c, 1, 64, 110
3, 60864, Note_on_c, 1, 67, 110
3, 60958, Note_on_c, 1, 67, 0
3, 60958, Note_on_c, 1, 64, 0
3, 60958, Note_on_c, 1, 60, 0
3, 60960, Note_on_c, 1, 57, 110
3, 60960, Note_on_c, 1, 62, 110
3, 60960, Note_on_c, 1, 65, 110
3, 61054, Note_on_c, 1, 65, 0
3, 61054, Note_on_c, 1, 62, 0
3, 61054, Note_on_c, 1, 57, 0
3, 61056, Note_on_c, 1, 60, 110
3, 61056, Note_on_c, 1, 64, 110
3, 61056, Note_on_c, 1, 67, 110
3, 61216, Note_on_c, 1, 67, 0
3, 61216, Note_on_c, 1, 64, 0
3, 61216, Note_on_c, 1, 60, 0
3, 61248, Note_on_c, 1, 60, 110
3, 61248, Note_on_c, 1, 64, 110
3, 61248, Note_on_c, 1, 67, 110
3, 61408, Note_on_c, 1, 67, 0
3, 61408, Note_on_c, 1, 64, 0
3, 61408, Note_on_c, 1, 60, 0
3, 61440, Note_on_c, 1, 55, 110
3, 61534, Note_on_c, 1, 55, 0
3, 61536, Note_on_c, 1, 57, 110
3, 61630, Note_on_c, 1, 57, 0
3, 61632, Note_on_c, 1, 60, 110
3, 61726, Note_on_c, 1, 60, 0
3, 61728, Note_on_c, 1, 69, 110
3, 61822, Note_on_c, 1, 69, 0
3, 61824, Note_on_c, 1, 57, 110
3, 61824, Note_on_c, 1, 62, 110
3, 61824, Note_on_c, 1, 65, 110
3, 62160, Note_on_c, 1, 65, 0
3, 62160, Note_on_c, 1, 62, 0
3, 62160, Note_on_c, 1, 57, 0
3, 62208, Note_on_c, 1, 60, 110
3, 62208, Note_on_c, 1, 65, 110
3, 62208, Note_on_c, 1, 69, 110
3, 62368, Note_on_c, 1, 69, 0
3, 62368, Note_on_c, 1, 65, 0
3, 62368, Note_on_c, 1, 60, 0
3, 62400, Note_on_c, 1, 60, 110
3, 62400, Note_on_c, 1, 64, 110
3, 62400, Note_on_c, 1, 69, 110
3, 62494, Note_on_c, 1, 69, 0
3, 62494, Note_on_c, 1, 64, 0
3, 62494, Note_on_c, 1, 60, 0
3, 62496, Note_on_c, 1, 60, 110
3, 62496, Note_on_c, 1, 65, 110
3, 62496, Note_on_c, 1, 69, 110
3, 62590, Note_on_c, 1, 69, 0
3, 62590, Note_on_c, 1, 65, 0
3, 62590, Note_on_c, 1, 60, 0
3, 62592, Note_on_c, 1, 60, 110
3, 62592, Note_on_c, 1, 64, 110
3, 62592, Note_on_c, 1, 67, 110
3, 62928, Note_on_c, 1, 67, 0
3, 62928, Note_on_c, 1, 64, 0
3, 62928, Note_on_c, 1, 60, 0
3, 62976, Note_on_c, 1, 60, 110
3, 62976, Note_on_c, 1, 64, 110
3, 62976, Note_on_c, 1, 69, 110
3, 63136, Note_on_c, 1, 69, 0
3, 63136, Note_on_c, 1, 64, 0
3, 63136, Note_on_c, 1, 60, 0
3, 63168, Note_on_c, 1, 60, 110
3, 63168, Note_on_c, 1, 64, 110
3, 63168, Note_on_c, 1, 67, 110
3, 63328, Note_on_c, 1, 67, 0
3, 63328, Note_on_c, 1, 64, 0
3, 63328, Note_on_c, 1, 60, 0
3, 63360, Note_on_c, 1, 57, 110
3, 63360, Note_on_c, 1, 62, 110
3, 63360, Note_on_c, 1, 65, 110
3, 63520, Note_on_c, 1, 65, 0
3, 63520, Note_on_c, 1, 62, 0
3, 63520, Note_on_c, 1, 57, 0
3, 63552, Note_on_c, 1, 57, 110
3, 63552, Note_on_c, 1, 60, 110
3, 63552, Note_on_c, 1, 65, 110
3, 63646, Note_on_c, 1, 65, 0
3, 63646, Note_on_c, 1, 60, 0
3, 63646, Note_on_c, 1, 57, 0
3, 63648, Note_on_c, 1, 60, 110
3, 63648, Note_on_c, 1, 64, 110
3, 63648, Note_on_c, 1, 67, 110
3, 63742, Note_on_c, 1, 67, 0
3, 63742, Note_on_c, 1, 64, 0
3, 63742, Note_on_c, 1, 60, 0
3, 63744, Note_on_c, 1, 60, 110
3, 63744, Note_on_c, 1, 65, 110
3, 63744, Note_on_c, 1, 69, 110
3, 63838, Note_on_c, 1, 69, 0
3, 63838, Note_on_c, 1, 65, 0
3, 63838, Note_on_c, 1, 60, 0
3, 63840, Note_on_c, 1, 60, 110
3, 63840, Note_on_c, 1, 65, 110
3, 63840, Note_on_c, 1, 67, 110
3, 63934, Note_on_c, 1, 67, 0
3, 63934, Note_on_c, 1, 65, 0
3, 63934, Note_on_c, 1, 60, 0
3, 63936, Note_on_c, 1, 60, 110
3, 63936, Note_on_c, 1, 64, 110
3, 63936, Note_on_c, 1, 67, 110
3, 64030, Note_on_c, 1, 67, 0
3, 64030, Note_on_c, 1, 64, 0
3, 64030, Note_on_c, 1, 60, 0
3, 64032, Note_on_c, 1, 57, 110
3, 64032, Note_on_c, 1, 62, 110
3, 64032, Note_on_c, 1, 65, 110
3, 64126, Note_on_c, 1, 65, 0
3, 64126, Note_on_c, 1, 62, 0
3, 64126, Note_on_c, 1, 57, 0
3, 64128, Note_on_c, 1, 60, 110
3, 64128, Note_on_c, 1, 64, 110
3, 64128, Note_on_c, 1, 67, 110
3, 64288, Note_on_c, 1, 67, 0
3, 64288, Note_on_c, 1, 64, 0
3, 64288, Note_on_c, 1, 60, 0
3, 64320, Note_on_c, 1, 60, 110
3, 64320, Note_on_c, 1, 64, 110
3, 64320, Note_on_c, 1, 67, 110
3, 64656, Note_on_c, 1, 67, 0
3, 64656, Note_on_c, 1, 64, 0
3, 64656, Note_on_c, 1, 60, 0
3, 64896, Note_on_c, 1, 50, 110
3, 64896, Note_on_c, 1, 55, 110
3, 64896, Note_on_c, 1, 59, 110
3, 65056, Note_on_c, 1, 59, 0
3, 65056, Note_on_c, 1, 55, 0
3, 65056, Note_on_c, 1, 50, 0
3, 65088, Note_on_c, 1, 52, 110
3, 65088, Note_on_c, 1, 55, 110
3, 65088, Note_on_c, 1, 60, 110
3, 65616, Note_on_c, 1, 60, 0
3, 65616, Note_on_c, 1, 55, 0
3, 65616, Note_on_c, 1, 52, 0
3, 65664, Note_on_c, 1, 50, 110
3, 65664, Note_on_c, 1, 55, 110
3, 65664, Note_on_c, 1, 58, 110
3, 66192, Note_on_c, 1, 58, 0
3, 66192, Note_on_c, 1, 55, 0
3, 66192, Note_on_c, 1, 50, 0
3, 66240, Note_on_c, 1, 57, 110
3, 66286, Note_on_c, 1, 57, 0
3, 66288, Note_on_c, 1, 60, 110
3, 66334, Note_on_c, 1, 60, 0
3, 66336, Note_on_c, 1, 65, 110
3, 66430, Note_on_c, 1, 65, 0
3, 66432, Note_on_c, 1, 62, 110
3, 66526, Note_on_c, 1, 62, 0
3, 66528, Note_on_c, 1, 62, 110
3, 66528, Note_on_c, 1, 65, 110
3, 66528, Note_on_c, 1, 69, 110
3, 66670, Note_on_c, 1, 69, 0
3, 66670, Note_on_c, 1, 65, 0
3, 66670, Note_on_c, 1, 62, 0
3, 66672, Note_on_c, 1, 62, 110
3, 66672, Note_on_c, 1, 65, 110
3, 66672, Note_on_c, 1, 69, 110
3, 66718, Note_on_c, 1, 69, 0
3, 66718, Note_on_c, 1, 65, 0
3, 66718, Note_on_c, 1, 62, 0
3, 66720, Note_on_c, 1, 62, 110
3, 66720, Note_on_c, 1, 65, 110
3, 66720, Note_on_c, 1, 69, 110
3, 66766, Note_on_c, 1, 69, 0
3, 66766, Note_on_c, 1, 65, 0
3, 66766, Note_on_c, 1, 62, 0
3, 66768, Note_on_c, 1, 62, 110
3, 66768, Note_on_c, 1, 65, 110
3, 66768, Note_on_c, 1, 69, 110
3, 66814, Note_on_c, 1, 69, 0
3, 66814, Note_on_c, 1, 65, 0
3, 66814, Note_on_c, 1, 62, 0
3, 66816, Note_on_c, 1, 62, 127
3, 66816, Note_on_c, 1, 65, 127
3, 66816, Note_on_c, 1, 67, 127
3, 66862, Note_on_c, 1, 67, 0
3, 66862, Note_on_c, 1, 65, 0
3, 66862, Note_on_c, 1, 62, 0
3, 66864, Note_on_c, 1, 62, 110
3, 66864, Note_on_c, 1, 65, 110
3, 66864, Note_on_c, 1, 69, 110
3, 66910, Note_on_c, 1, 69, 0
3, 66910, Note_on_c, 1, 65, 0
3, 66910, Note_on_c, 1, 62, 0
3, 66912, Note_on_c, 1, 62, 110
3, 66912, Note_on_c, 1, 65, 110
3, 66912, Note_on_c, 1, 69, 110
3, 66958, Note_on_c, 1, 69, 0
3, 66958, Note_on_c, 1, 65, 0
3, 66958, Note_on_c, 1, 62, 0
3, 66960, Note_on_c, 1, 62, 110
3, 66960, Note_on_c, 1, 65, 110
3, 66960, Note_on_c, 1, 69, 110
3, 67006, Note_on_c, 1, 69, 0
3, 67006, Note_on_c, 1, 65, 0
3, 67006, Note_on_c, 1, 62, 0
3, 67008, Note_on_c, 1, 57, 110
3, 67054, Note_on_c, 1, 57, 0
3, 67056, Note_on_c, 1, 60, 110
3, 67102, Note_on_c, 1, 60, 0
3, 67104, Note_on_c, 1, 62, 110
3, 67150, Note_on_c, 1, 62, 0
3, 67152, Note_on_c, 1, 65, 110
3, 67198, Note_on_c, 1, 65, 0
3, 67200, Note_on_c, 1, 62, 110
3, 67294, Note_on_c, 1, 62, 0
3, 67296, Note_on_c, 1, 62, 110
3, 67296, Note_on_c, 1, 65, 110
3, 67296, Note_on_c, 1, 69, 110
3, 67438, Note_on_c, 1, 69, 0
3, 67438, Note_on_c, 1, 65, 0
3, 67438, Note_on_c, 1, 62, 0
3, 67440, Note_on_c, 1, 62, 110
3, 67440, Note_on_c, 1, 65, 110
3, 67440, Note_on_c, 1, 69, 110
3, 67486, Note_on_c, 1, 69, 0
3, 67486, Note_on_c, 1, 65, 0
3, 67486, Note_on_c, 1, 62, 0
3, 67488, Note_on_c, 1, 62, 110
3, 67488, Note_on_c, 1, 65, 110
3, 67488, Note_on_c, 1, 69, 110
3, 67534, Note_on_c, 1, 69, 0
3, 67534, Note_on_c, 1, 65, 0
3, 67534, Note_on_c, 1, 62, 0
3, 67536, Note_on_c, 1, 62, 110
3, 67536, Note_on_c, 1, 65, 110
3, 67536, Note_on_c, 1, 69, 110
3, 67582, Note_on_c, 1, 69, 0
3, 67582, Note_on_c, 1, 65, 0
3, 67582, Note_on_c, 1, 62, 0
3, 67584, Note_on_c, 1, 62, 127
3, 67584, Note_on_c, 1, 65, 127
3, 67584, Note_on_c, 1, 67, 127
3, 67630, Note_on_c, 1, 67, 0
3, 67630, Note_on_c, 1, 65, 0
3, 67630, Note_on_c, 1, 62, 0
3, 67632, Note_on_c, 1, 62, 110
3, 67632, Note_on_c, 1, 65, 110
3, 67632, Note_on_c, 1, 69, 110
3, 67678, Note_on_c, 1, 69, 0
3, 67678, Note_on_c, 1, 65, 0
3, 67678, Note_on_c, 1, 62, 0
3, 67680, Note_on_c, 1, 62, 110
3, 67680, Note_on_c, 1, 65, 110
3, 67680, Note_on_c, 1, 69, 110
3, 67726, Note_on_c, 1, 69, 0
3, 67726, Note_on_c, 1, 65, 0
3, 67726, Note_on_c, 1, 62, 0
3, 67728, Note_on_c, 1, 62, 110
3, 67728, Note_on_c, 1, 65, 110
3, 67728, Note_on_c, 1, 69, 110
3, 67774, Note_on_c, 1, 69, 0
3, 67774, Note_on_c, 1, 65, 0
3, 67774, Note_on_c, 1, 62, 0
3, 67776, Note_on_c, 1, 57, 110
3, 67822, Note_on_c, 1, 57, 0
3, 67824, Note_on_c, 1, 60, 110
3, 67870, Note_on_c, 1, 60, 0
3, 67872, Note_on_c, 1, 65, 110
3, 67966, Note_on_c, 1, 65, 0
3, 67968, Note_on_c, 1, 57, 110
3, 67968, Note_on_c, 1, 62, 110
3, 67968, Note_on_c, 1, 65, 110
3, 68128, Note_on_c, 1, 65, 0
3, 68128, Note_on_c, 1, 62, 0
3, 68128, Note_on_c, 1, 57, 0
3, 68160, Note_on_c, 1, 57, 110
3, 68160, Note_on_c, 1, 62, 110
3, 68160, Note_on_c, 1, 65, 110
3, 68254, Note_on_c, 1, 65, 0
3, 68254, Note_on_c, 1, 62, 0
3, 68254, Note_on_c, 1, 57, 0
3, 68256, Note_on_c, 1, 60, 110
3, 68256, Note_on_c, 1, 64, 110
3, 68256, Note_on_c, 1, 67, 110
3, 68350, Note_on_c, 1, 67, 0
3, 68350, Note_on_c, 1, 64, 0
3, 68350, Note_on_c, 1, 60, 0
3, 68352, Note_on_c, 1, 60, 110
3, 68352, Note_on_c, 1, 65, 110
3, 68352, Note_on_c, 1, 69, 110
3, 68446, Note_on_c, 1, 69, 0
3, 68446, Note_on_c, 1, 65, 0
3, 68446, Note_on_c, 1, 60, 0
3, 68448, Note_on_c, 1, 60, 110
3, 68448, Note_on_c, 1, 65, 110
3, 68448, Note_on_c, 1, 67, 110
3, 68542, Note_on_c, 1, 67, 0
3, 68542, Note_on_c, 1, 65, 0
3, 68542, Note_on_c, 1, 60, 0
3, 68544, Note_on_c, 1, 60, 110
3, 68544, Note_on_c, 1, 64, 110
3, 68544, Note_on_c, 1, 67, 110
3, 68638, Note_on_c, 1, 67, 0
3, 68638, Note_on_c, 1, 64, 0
3, 68638, Note_on_c, 1, 60, 0
3, 68640, Note_on_c, 1, 57, 110
3, 68640, Note_on_c, 1, 62, 110
3, 68640, Note_on_c, 1, 65, 110
3, 68734, Note_on_c, 1, 65, 0
3, 68734, Note_on_c, 1, 62, 0
3, 68734, Note_on_c, 1, 57, 0
3, 68736, Note_on_c, 1, 60, 110
3, 68736, Note_on_c, 1, 64, 110
3, 68736, Note_on_c, 1, 67, 110
3, 68896, Note_on_c, 1, 67, 0
3, 68896, Note_on_c, 1, 64, 0
3, 68896, Note_on_c, 1, 60, 0
3, 68928, Note_on_c, 1, 60, 110
3, 68928, Note_on_c, 1, 64, 110
3, 68928, Note_on_c, 1, 67, 110
3, 69088, Note_on_c, 1, 67, 0
3, 69088, Note_on_c, 1, 64, 0
3, 69088, Note_on_c, 1, 60, 0
3, 69504, Note_on_c, 1, 57, 110
3, 69504, Note_on_c, 1, 62, 110
3, 69504, Note_on_c, 1, 65, 110
3, 69840, Note_on_c, 1, 65, 0
3, 69840, Note_on_c, 1, 62, 0
3, 69840, Note_on_c, 1, 57, 0
3, 69888, Note_on_c, 1, 60, 110
3, 69888, Note_on_c, 1, 65, 110
3, 69888, Note_on_c, 1, 69, 110
3, 70048, Note_on_c, 1, 69, 0
3, 70048, Note_on_c, 1, 65, 0
3, 70048, Note_on_c, 1, 60, 0
3, 70080, Note_on_c, 1, 60, 110
3, 70080, Note_on_c, 1, 64, 110
3, 70080, Note_on_c, 1, 69, 110
3, 70174, Note_on_c, 1, 69, 0
3, 70174, Note_on_c, 1, 64, 0
3, 70174, Note_on_c, 1, 60, 0
3, 70176, Note_on_c, 1, 60, 110
3, 70176, Note_on_c, 1, 65, 110
3, 70176, Note_on_c, 1, 69, 110
3, 70270, Note_on_c, 1, 69, 0
3, 70270, Note_on_c, 1, 65, 0
3, 70270, Note_on_c, 1, 60, 0
3, 70272, Note_on_c, 1, 60, 110
3, 70272, Note_on_c, 1, 64, 110
3, 70272, Note_on_c, 1, 67, 110
3, 70608, Note_on_c, 1, 67, 0
3, 70608, Note_on_c, 1, 64, 0
3, 70608, Note_on_c, 1, 60, 0
3, 70656, Note_on_c, 1, 60, 110
3, 70656, Note_on_c, 1, 64, 110
3, 70656, Note_on_c, 1, 69, 110
3, 70816, Note_on_c, 1, 69, 0
3, 70816, Note_on_c, 1, 64, 0
3, 70816, Note_on_c, 1, 60, 0
3, 70848, Note_on_c, 1, 60, 110
3, 70848, Note_on_c, 1, 64, 110
3, 70848, Note_on_c, 1, 67, 110
3, 71008, Note_on_c, 1, 67, 0
3, 71008, Note_on_c, 1, 64, 0
3, 71008, Note_on_c, 1, 60, 0
3, 71040, Note_on_c, 1, 57, 110
3, 71040, Note_on_c, 1, 62, 110
3, 71040, Note_on_c, 1, 65, 110
3, 71200, Note_on_c, 1, 65, 0
3, 71200, Note_on_c, 1, 62, 0
3, 71200, Note_on_c, 1, 57, 0
3, 71232, Note_on_c, 1, 57, 110
3, 71232, Note_on_c, 1, 62, 110
3, 71232, Note_on_c, 1, 65, 110
3, 71326, Note_on_c, 1, 65, 0
3, 71326, Note_on_c, 1, 62, 0
3, 71326, Note_on_c, 1, 57, 0
3, 71328, Note_on_c, 1, 60, 110
3, 71328, Note_on_c, 1, 64, 110
3, 71328, Note_on_c, 1, 67, 110
3, 71422, Note_on_c, 1, 67, 0
3, 71422, Note_on_c, 1, 64, 0
3, 71422, Note_on_c, 1, 60, 0
3, 71424, Note_on_c, 1, 60, 110
3, 71424, Note_on_c, 1, 65, 110
3, 71424, Note_on_c, 1, 69, 110
3, 71518, Note_on_c, 1, 69, 0
3, 71518, Note_on_c, 1, 65, 0
3, 71518, Note_on_c, 1, 60, 0
3, 71520, Note_on_c, 1, 60, 110
3, 71520, Note_on_c, 1, 65, 110
3, 71520, Note_on_c, 1, 67, 110
3, 71614, Note_on_c, 1, 67, 0
3, 71614, Note_on_c, 1, 65, 0
3, 71614, Note_on_c, 1, 60, 0
3, 71616, Note_on_c, 1, 60, 110
3, 71616, Note_on_c, 1, 64, 110
3, 71616, Note_on_c, 1, 67, 110
3, 71710, Note_on_c, 1, 67, 0
3, 71710, Note_on_c, 1, 64, 0
3, 71710, Note_on_c, 1, 60, 0
3, 71712, Note_on_c, 1, 57, 110
3, 71712, Note_on_c, 1, 62, 110
3, 71712, Note_on_c, 1, 65, 110
3, 71806, Note_on_c, 1, 65, 0
3, 71806, Note_on_c, 1, 62, 0
3, 71806, Note_on_c, 1, 57, 0
3, 71808, Note_on_c, 1, 60, 110
3, 71808, Note_on_c, 1, 64, 110
3, 71808, Note_on_c, 1, 67, 110
3, 71968, Note_on_c, 1, 67, 0
3, 71968, Note_on_c, 1, 64, 0
3, 71968, Note_on_c, 1, 60, 0
3, 72000, Note_on_c, 1, 60, 110
3, 72000, Note_on_c, 1, 64, 110
3, 72000, Note_on_c, 1, 67, 110
3, 72160, Note_on_c, 1, 67, 0
3, 72160, Note_on_c, 1, 64, 0
3, 72160, Note_on_c, 1, 60, 0
3, 72576, Note_on_c, 1, 57, 110
3, 72576, Note_on_c, 1, 62, 110
3, 72576, Note_on_c, 1, 65, 110
3, 72912, Note_on_c, 1, 65, 0
3, 72912, Note_on_c, 1, 62, 0
3, 72912, Note_on_c, 1, 57, 0
3, 72960, Note_on_c, 1, 60, 110
3, 72960, Note_on_c, 1, 65, 110
3, 72960, Note_on_c, 1, 69, 110
3, 73120, Note_on_c, 1, 69, 0
3, 73120, Note_on_c, 1, 65, 0
3, 73120, Note_on_c, 1, 60, 0
3, 73152, Note_on_c, 1, 60, 110
3, 73152, Note_on_c, 1, 64, 110
3, 73152, Note_on_c, 1, 69, 110
3, 73246, Note_on_c, 1, 69, 0
3, 73246, Note_on_c, 1, 64, 0
3, 73246, Note_on_c, 1, 60, 0
3, 73248, Note_on_c, 1, 60, 110
3, 73248, Note_on_c, 1, 65, 110
3, 73248, Note_on_c, 1, 69, 110
3, 73342, Note_on_c, 1, 69, 0
3, 73342, Note_on_c, 1, 65, 0
3, 73342, Note_on_c, 1, 60, 0
3, 73344, Note_on_c, 1, 60, 110
3, 73344, Note_on_c, 1, 64, 110
3, 73344, Note_on_c, 1, 67, 110
3, 73680, Note_on_c, 1, 67, 0
3, 73680, Note_on_c, 1, 64, 0
3, 73680, Note_on_c, 1, 60, 0
3, 73728, Note_on_c, 1, 60, 110
3, 73728, Note_on_c, 1, 64, 110
3, 73728, Note_on_c, 1, 69, 110
3, 73888, Note_on_c, 1, 69, 0
3, 73888, Note_on_c, 1, 64, 0
3, 73888, Note_on_c, 1, 60, 0
3, 73920, Note_on_c, 1, 60, 110
3, 73920, Note_on_c, 1, 64, 110
3, 73920, Note_on_c, 1, 67, 110
3, 74080, Note_on_c, 1, 67, 0
3, 74080, Note_on_c, 1, 64, 0
3, 74080, Note_on_c, 1, 60, 0
3, 74112, Note_on_c, 1, 57, 110
3, 74112, Note_on_c, 1, 62, 110
3, 74112, Note_on_c, 1, 65, 110
3, 74272, Note_on_c, 1, 65, 0
3, 74272, Note_on_c, 1, 62, 0
3, 74272, Note_on_c, 1, 57, 0
3, 74304, Note_on_c, 1, 57, 110
3, 74304, Note_on_c, 1, 62, 110
3, 74304, Note_on_c, 1, 65, 110
3, 74398, Note_on_c, 1, 65, 0
3, 74398, Note_on_c, 1, 62, 0
3, 74398, Note_on_c, 1, 57, 0
3, 74400, Note_on_c, 1, 60, 110
3, 74400, Note_on_c, 1, 64, 110
3, 74400, Note_on_c, 1, 67, 110
3, 74494, Note_on_c, 1, 67, 0
3, 74494, Note_on_c, 1, 64, 0
3, 74494, Note_on_c, 1, 60, 0
3, 74496, Note_on_c, 1, 60, 110
3, 74496, Note_on_c, 1, 65, 110
3, 74496, Note_on_c, 1, 69, 110
3, 74590, Note_on_c, 1, 69, 0
3, 74590, Note_on_c, 1, 65, 0
3, 74590, Note_on_c, 1, 60, 0
3, 74592, Note_on_c, 1, 60, 110
3, 74592, Note_on_c, 1, 65, 110
3, 74592, Note_on_c, 1, 67, 110
3, 74686, Note_on_c, 1, 67, 0
3, 74686, Note_on_c, 1, 65, 0
3, 74686, Note_on_c, 1, 60, 0
3, 74688, Note_on_c, 1, 60, 110
3, 74688, Note_on_c, 1, 64, 110
3, 74688, Note_on_c, 1, 67, 110
3, 74782, Note_on_c, 1, 67, 0
3, 74782, Note_on_c, 1, 64, 0
3, 74782, Note_on_c, 1, 60, 0
3, 74784, Note_on_c, 1, 57, 110
3, 74784, Note_on_c, 1, 62, 110
3, 74784, Note_on_c, 1, 65, 110
3, 74878, Note_on_c, 1, 65, 0
3, 74878, Note_on_c, 1, 62, 0
3, 74878, Note_on_c, 1, 57, 0
3, 74880, Note_on_c, 1, 60, 110
3, 74880, Note_on_c, 1, 64, 110
3, 74880, Note_on_c, 1, 67, 110
3, 75040, Note_on_c, 1, 67, 0
3, 75040, Note_on_c, 1, 64, 0
3, 75040, Note_on_c, 1, 60, 0
3, 75072, Note_on_c, 1, 60, 110
3, 75072, Note_on_c, 1, 64, 110
3, 75072, Note_on_c, 1, 67, 110
3, 75232, Note_on_c, 1, 67, 0
3, 75232, Note_on_c, 1, 64, 0
3, 75232, Note_on_c, 1, 60, 0
3, 75648, Note_on_c, 1, 57, 110
3, 75648, Note_on_c, 1, 62, 110
3, 75648, Note_on_c, 1, 65, 110
3, 75984, Note_on_c, 1, 65, 0
3, 75984, Note_on_c, 1, 62, 0
3, 75984, Note_on_c, 1, 57, 0
3, 76032, Note_on_c, 1, 60, 110
3, 76032, Note_on_c, 1, 65, 110
3, 76032, Note_on_c, 1, 69, 110
3, 76192, Note_on_c, 1, 69, 0
3, 76192, Note_on_c, 1, 65, 0
3, 76192, Note_on_c, 1, 60, 0
3, 76224, Note_on_c, 1, 60, 110
3, 76224, Note_on_c, 1, 64, 110
3, 76224, Note_on_c, 1, 69, 110
3, 76318, Note_on_c, 1, 69, 0
3, 76318, Note_on_c, 1, 64, 0
3, 76318, Note_on_c, 1, 60, 0
3, 76320, Note_on_c, 1, 60, 110
3, 76320, Note_on_c, 1, 65, 110
3, 76320, Note_on_c, 1, 69, 110
3, 76414, Note_on_c, 1, 69, 0
3, 76414, Note_on_c, 1, 65, 0
3, 76414, Note_on_c, 1, 60, 0
3, 76416, Note_on_c, 1, 60, 110
3, 76416, Note_on_c, 1, 64, 110
3, 76416, Note_on_c, 1, 67, 110
3, 76752, Note_on_c, 1, 67, 0
3, 76752, Note_on_c, 1, 64, 0
3, 76752, Note_on_c, 1, 60, 0
3, 76800, Note_on_c, 1, 60, 110
3, 76800, Note_on_c, 1, 64, 110
3, 76800, Note_on_c, 1, 69, 110
3, 76960, Note_on_c, 1, 69, 0
3, 76960, Note_on_c, 1, 64, 0
3, 76960, Note_on_c, 1, 60, 0
3, 76992, Note_on_c, 1, 60, 110
3, 76992, Note_on_c, 1, 64, 110
3, 76992, Note_on_c, 1, 67, 110
3, 77152, Note_on_c, 1, 67, 0
3, 77152, Note_on_c, 1, 64, 0
3, 77152, Note_on_c, 1, 60, 0
3, 77184, Note_on_c, 1, 57, 110
3, 77184, Note_on_c, 1, 62, 110
3, 77184, Note_on_c, 1, 65, 110
3, 77344, Note_on_c, 1, 65, 0
3, 77344, Note_on_c, 1, 62, 0
3, 77344, Note_on_c, 1, 57, 0
3, 77376, Note_on_c, 1, 57, 110
3, 77376, Note_on_c, 1, 62, 110
3, 77376, Note_on_c, 1, 65, 110
3, 77470, Note_on_c, 1, 65, 0
3, 77470, Note_on_c, 1, 62, 0
3, 77470, Note_on_c, 1, 57, 0
3, 77472, Note_on_c, 1, 60, 110
3, 77472, Note_on_c, 1, 64, 110
3, 77472, Note_on_c, 1, 67, 110
3, 77566, Note_on_c, 1, 67, 0
3, 77566, Note_on_c, 1, 64, 0
3, 77566, Note_on_c, 1, 60, 0
3, 77568, Note_on_c, 1, 60, 110
3, 77568, Note_on_c, 1, 65, 110
3, 77568, Note_on_c, 1, 69, 110
3, 77662, Note_on_c, 1, 69, 0
3, 77662, Note_on_c, 1, 65, 0
3, 77662, Note_on_c, 1, 60, 0
3, 77664, Note_on_c, 1, 60, 110
3, 77664, Note_on_c, 1, 65, 110
3, 77664, Note_on_c, 1, 67, 110
3, 77758, Note_on_c, 1, 67, 0
3, 77758, Note_on_c, 1, 65, 0
3, 77758, Note_on_c, 1, 60, 0
3, 77760, Note_on_c, 1, 60, 110
3, 77760, Note_on_c, 1, 64, 110
3, 77760, Note_on_c, 1, 67, 110
3, 77854, Note_on_c, 1, 67, 0
3, 77854, Note_on_c, 1, 64, 0
3, 77854, Note_on_c, 1, 60, 0
3, 77856, Note_on_c, 1, 57, 110
3, 77856, Note_on_c, 1, 62, 110
3, 77856, Note_on_c, 1, 65, 110
3, 77950, Note_on_c, 1, 65, 0
3, 77950, Note_on_c, 1, 62, 0
3, 77950, Note_on_c, 1, 57, 0
3, 77952, Note_on_c, 1, 60, 110
3, 77952, Note_on_c, 1, 64, 110
3, 77952, Note_on_c, 1, 67, 110
3, 78112, Note_on_c, 1, 67, 0
3, 78112, Note_on_c, 1, 64, 0
3, 78112, Note_on_c, 1, 60, 0
3, 78144, Note_on_c, 1, 60, 110
3, 78144, Note_on_c, 1, 64, 110
3, 78144, Note_on_c, 1, 67, 110
3, 78304, Note_on_c, 1, 67, 0
3, 78304, Note_on_c, 1, 64, 0
3, 78304, Note_on_c, 1, 60, 0
3, 78720, Note_on_c, 1, 57, 110
3, 78720, Note_on_c, 1, 62, 110
3, 78720, Note_on_c, 1, 65, 110
3, 78880, Note_on_c, 1, 65, 0
3, 78880, Note_on_c, 1, 62, 0
3, 78880, Note_on_c, 1, 57, 0
3, 78912, Note_on_c, 1, 57, 110
3, 78912, Note_on_c, 1, 62, 110
3, 78912, Note_on_c, 1, 65, 110
3, 79006, Note_on_c, 1, 65, 0
3, 79006, Note_on_c, 1, 62, 0
3, 79006, Note_on_c, 1, 57, 0
3, 79008, Note_on_c, 1, 60, 110
3, 79008, Note_on_c, 1, 64, 110
3, 79008, Note_on_c, 1, 67, 110
3, 79102, Note_on_c, 1, 67, 0
3, 79102, Note_on_c, 1, 64, 0
3, 79102, Note_on_c, 1, 60, 0
3, 79104, Note_on_c, 1, 60, 110
3, 79104, Note_on_c, 1, 65, 110
3, 79104, Note_on_c, 1, 69, 110
3, 79198, Note_on_c, 1, 69, 0
3, 79198, Note_on_c, 1, 65, 0
3, 79198, Note_on_c, 1, 60, 0
3, 79200, Note_on_c, 1, 60, 110
3, 79200, Note_on_c, 1, 65, 110
3, 79200, Note_on_c, 1, 67, 110
3, 79294, Note_on_c, 1, 67, 0
3, 79294, Note_on_c, 1, 65, 0
3, 79294, Note_on_c, 1, 60, 0
3, 79296, Note_on_c, 1, 60, 110
3, 79296, Note_on_c, 1, 64, 110
3, 79296, Note_on_c, 1, 67, 110
3, 79390, Note_on_c, 1, 67, 0
3, 79390, Note_on_c, 1, 64, 0
3, 79390, Note_on_c, 1, 60, 0
3, 79392, Note_on_c, 1, 57, 110
3, 79392, Note_on_c, 1, 62, 110
3, 79392, Note_on_c, 1, 65, 110
3, 79486, Note_on_c, 1, 65, 0
3, 79486, Note_on_c, 1, 62, 0
3, 79486, Note_on_c, 1, 57, 0
3, 79488, Note_on_c, 1, 50, 92
3, 79488, Note_on_c, 1, 53, 92
3, 79488, Note_on_c, 1, 58, 92
3, 79582, Note_on_c, 1, 58, 0
3, 79582, Note_on_c, 1, 53, 0
3, 79582, Note_on_c, 1, 50, 0
3, 79584, Note_on_c, 1, 50, 87
3, 79584, Note_on_c, 1, 53, 87
3, 79584, Note_on_c, 1, 58, 87
3, 79630, Note_on_c, 1, 58, 0
3, 79630, Note_on_c, 1, 53, 0
3, 79630, Note_on_c, 1, 50, 0
3, 79632, Note_on_c, 1, 50, 85
3, 79632, Note_on_c, 1, 53, 85
3, 79632, Note_on_c, 1, 58, 85
3, 79678, Note_on_c, 1, 58, 0
3, 79678, Note_on_c, 1, 53, 0
3, 79678, Note_on_c, 1, 50, 0
3, 79680, Note_on_c, 1, 50, 83
3, 79680, Note_on_c, 1, 53, 83
3, 79680, Note_on_c, 1, 58, 83
3, 79774, Note_on_c, 1, 58, 0
3, 79774, Note_on_c, 1, 53, 0
3, 79774, Note_on_c, 1, 50, 0
3, 79776, Note_on_c, 1, 50, 78
3, 79776, Note_on_c, 1, 53, 78
3, 79776, Note_on_c, 1, 58, 78
3, 79822, Note_on_c, 1, 58, 0
3, 79822, Note_on_c, 1, 53, 0
3, 79822, Note_on_c, 1, 50, 0
3, 79824, Note_on_c, 1, 50, 76
3, 79824, Note_on_c, 1, 53, 76
3, 79824, Note_on_c, 1, 58, 76
3, 79870, Note_on_c, 1, 58, 0
3, 79870, Note_on_c, 1, 53, 0
3, 79870, Note_on_c, 1, 50, 0
3, 79872, Note_on_c, 1, 50, 74
3, 79872, Note_on_c, 1, 53, 74
3, 79872, Note_on_c, 1, 58, 74
3, 79966, Note_on_c, 1, 58, 0
3, 79966, Note_on_c, 1, 53, 0
3, 79966, Note_on_c, 1, 50, 0
3, 79968, Note_on_c, 1, 50, 69
3, 79968, Note_on_c, 1, 53, 69
3, 79968, Note_on_c, 1, 58, 69
3, 80014, Note_on_c, 1, 58, 0
3, 80014, Note_on_c, 1, 53, 0
3, 80014, Note_on_c, 1, 50, 0
3, 80016, Note_on_c, 1, 50, 67
3, 80016, Note_on_c, 1, 53, 67
3, 80016, Note_on_c, 1, 58, 67
3, 80062, Note_on_c, 1, 58, 0
3, 80062, Note_on_c, 1, 53, 0
3, 80062, Note_on_c, 1, 50, 0
3, 80064, Note_on_c, 1, 50, 65
3, 80064, Note_on_c, 1, 53, 65
3, 80064, Note_on_c, 1, 58, 65
3, 80158, Note_on_c, 1, 58, 0
3, 80158, Note_on_c, 1, 53, 0
3, 80158, Note_on_c, 1, 50, 0
3, 80160, Note_on_c, 1, 50, 60
3, 80160, Note_on_c, 1, 53, 60
3, 80160, Note_on_c, 1, 58, 60
3, 80206, Note_on_c, 1, 58, 0
3, 80206, Note_on_c, 1, 53, 0
3, 80206, Note_on_c, 1, 50, 0
3, 80208, Note_on_c, 1, 50, 58
3, 80208, Note_on_c, 1, 53, 58
3, 80208, Note_on_c, 1, 58, 58
3, 80254, Note_on_c, 1, 58, 0
3, 80254, Note_on_c, 1, 53, 0
3, 80254, Note_on_c, 1, 50, 0
3, 80256, Note_on_c, 1, 50, 56
3, 80256, Note_on_c, 1, 53, 56
3, 80256, Note_on_c, 1, 58, 56
3, 80350, Note_on_c, 1, 58, 0
3, 80350, Note_on_c, 1, 53, 0
3, 80350, Note_on_c, 1, 50, 0
3, 80352, Note_on_c, 1, 50, 51
3, 80352, Note_on_c, 1, 53, 51
3, 80352, Note_on_c, 1, 58, 51
3, 80398, Note_on_c, 1, 58, 0
3, 80398, Note_on_c, 1, 53, 0
3, 80398, Note_on_c, 1, 50, 0
3, 80400, Note_on_c, 1, 50, 49
3, 80400, Note_on_c, 1, 53, 49
3, 80400, Note_on_c, 1, 58, 49
3, 80446, Note_on_c, 1, 58, 0
3, 80446, Note_on_c, 1, 53, 0
3, 80446, Note_on_c, 1, 50, 0
3, 80448, Note_on_c, 1, 50, 46
3, 80448, Note_on_c, 1, 53, 46
3, 80448, Note_on_c, 1, 58, 46
3, 80542, Note_on_c, 1, 58, 0
3, 80542, Note_on_c, 1, 53, 0
3, 80542, Note_on_c, 1, 50, 0
3, 80544, Note_on_c, 1, 50, 40
3, 80544, Note_on_c, 1, 53, 40
3, 80544, Note_on_c, 1, 58, 40
3, 80590, Note_on_c, 1, 58, 0
3, 80590, Note_on_c, 1, 53, 0
3, 80590, Note_on_c, 1, 50, 0
3, 80592, Note_on_c, 1, 50, 37
3, 80592, Note_on_c, 1, 53, 37
3, 80592, Note_on_c, 1, 58, 37
3, 80638, Note_on_c, 1, 58, 0
3, 80638, Note_on_c, 1, 53, 0
3, 80638, Note_on_c, 1, 50, 0
3, 80640, Note_on_c, 1, 50, 34
3, 80640, Note_on_c, 1, 53, 34
3, 80640, Note_on_c, 1, 58, 34
3, 80734, Note_on_c, 1, 58, 0
3, 80734, Note_on_c, 1, 53, 0
3, 80734, Note_on_c, 1, 50, 0
3, 80736, Note_on_c, 1, 50, 28
3, 80736, Note_on_c, 1, 53, 28
3, 80736, Note_on_c, 1, 58, 28
3, 80782, Note_on_c, 1, 58, 0
3, 80782, Note_on_c, 1, 53, 0
3, 80782, Note_on_c, 1, 50, 0
3, 80784, Note_on_c, 1, 50, 25
3, 80784, Note_on_c, 1, 53, 25
3, 80784, Note_on_c, 1, 58, 25
3, 80830, Note_on_c, 1, 58, 0
3, 80830, Note_on_c, 1, 53, 0
3, 80830, Note_on_c, 1, 50, 0
3, 80832, Note_on_c, 1, 50, 22
3, 80832, Note_on_c, 1, 53, 22
3, 80832, Note_on_c, 1, 58, 22
3, 80926, Note_on_c, 1, 58, 0
3, 80926, Note_on_c, 1, 53, 0
3, 80926, Note_on_c, 1, 50, 0
3, 80928, Note_on_c, 1, 50, 16
3, 80928, Note_on_c, 1, 53, 16
3, 80928, Note_on_c, 1, 58, 16
3, 80974, Note_on_c, 1, 58, 0
3, 80974, Note_on_c, 1, 53, 0
3, 80974, Note_on_c, 1, 50, 0
3, 80976, Note_on_c, 1, 50, 13
3, 80976, Note_on_c, 1, 53, 13
3, 80976, Note_on_c, 1, 58, 13
3, 81022, Note_on_c, 1, 58, 0
3, 81022, Note_on_c, 1, 53, 0
3, 81022, Note_on_c, 1, 50, 0
3, 81024, Note_on_c, 1, 50, 10
3, 81024, Note_on_c, 1, 53, 10
3, 81024, Note_on_c, 1, 58, 10
3, 81118, Note_on_c, 1, 58, 0
3, 81118, Note_on_c, 1, 53, 0
3, 81118, Note_on_c, 1, 50, 0
3, 81120, Note_on_c, 1, 50, 10
3, 81120, Note_on_c, 1, 53, 10
3, 81120, Note_on_c, 1, 58, 10
3, 81166, Note_on_c, 1, 58, 0
3, 81166, Note_on_c, 1, 53, 0
3, 81166, Note_on_c, 1, 50, 0
3, 81168, Note_on_c, 1, 50, 10
3, 81168, Note_on_c, 1, 53, 10
3, 81168, Note_on_c, 1, 58, 10
3, 81214, Note_on_c, 1, 58, 0
3, 81214, Note_on_c, 1, 53, 0
3, 81214, Note_on_c, 1, 50, 0
3, 81216, Note_on_c, 1, 50, 10
3, 81216, Note_on_c, 1, 53, 10
3, 81216, Note_on_c, 1, 58, 10
3, 81310, Note_on_c, 1, 58, 0
3, 81310, Note_on_c, 1, 53, 0
3, 81310, Note_on_c, 1, 50, 0
3, 81312, Note_on_c, 1, 50, 10
3, 81312, Note_on_c, 1, 53, 10
3, 81312, Note_on_c, 1, 58, 10
3, 81358, Note_on_c, 1, 58, 0
3, 81358, Note_on_c, 1, 53, 0
3, 81358, Note_on_c, 1, 50, 0
3, 81360, Note_on_c, 1, 50, 10
3, 81360, Note_on_c, 1, 53, 10
3, 81360, Note_on_c, 1, 58, 10
3, 81406, Note_on_c, 1, 58, 0
3, 81406, Note_on_c, 1, 53, 0
3, 81406, Note_on_c, 1, 50, 0
3, 81408, Note_on_c, 1, 50, 10
3, 81408, Note_on_c, 1, 53, 10
3, 81408, Note_on_c, 1, 58, 10
3, 81502, Note_on_c, 1, 58, 0
3, 81502, Note_on_c, 1, 53, 0
3, 81502, Note_on_c, 1, 50, 0
3, 81504, Note_on_c, 1, 50, 10
3, 81504, Note_on_c, 1, 53, 10
3, 81504, Note_on_c, 1, 58, 10
3, 81550, Note_on_c, 1, 58, 0
3, 81550, Note_on_c, 1, 53, 0
3, 81550, Note_on_c, 1, 50, 0
3, 81552, Note_on_c, 1, 50, 10
3, 81552, Note_on_c, 1, 53, 10
3, 81552, Note_on_c, 1, 58, 10
3, 81598, Note_on_c, 1, 58, 0
3, 81598, Note_on_c, 1, 53, 0
3, 81598, Note_on_c, 1, 50, 0
3, 81600, Note_on_c, 1, 50, 10
3, 81600, Note_on_c, 1, 53, 10
3, 81600, Note_on_c, 1, 58, 10
3, 81694, Note_on_c, 1, 58, 0
3, 81694, Note_on_c, 1, 53, 0
3, 81694, Note_on_c, 1, 50, 0
3, 81696, Note_on_c, 1, 50, 10
3, 81696, Note_on_c, 1, 53, 10
3, 81696, Note_on_c, 1, 58, 10
3, 81742, Note_on_c, 1, 58, 0
3, 81742, Note_on_c, 1, 53, 0
3, 81742, Note_on_c, 1, 50, 0
3, 81744, Note_on_c, 1, 50, 10
3, 81744, Note_on_c, 1, 53, 10
3, 81744, Note_on_c, 1, 58, 10
3, 81790, Note_on_c, 1, 58, 0
3, 81790, Note_on_c, 1, 53, 0
3, 81790, Note_on_c, 1, 50, 0
3, 81792, Note_on_c, 1, 50, 10
3, 81792, Note_on_c, 1, 53, 10
3, 81792, Note_on_c, 1, 58, 10
3, 81886, Note_on_c, 1, 58, 0
3, 81886, Note_on_c, 1, 53, 0
3, 81886, Note_on_c, 1, 50, 0
3, 81888, Note_on_c, 1, 50, 10
3, 81888, Note_on_c, 1, 53, 10
3, 81888, Note_on_c, 1, 58, 10
3, 81934, Note_on_c, 1, 58, 0
3, 81934, Note_on_c, 1, 53, 0
3, 81934, Note_on_c, 1, 50, 0
3, 81936, Note_on_c, 1, 50, 10
3, 81936, Note_on_c, 1, 53, 10
3, 81936, Note_on_c, 1, 58, 10
3, 81982, Note_on_c, 1, 58, 0
3, 81982, Note_on_c, 1, 53, 0
3, 81982, Note_on_c, 1, 50, 0
3, 81984, Note_on_c, 1, 50, 10
3, 81984, Note_on_c, 1, 53, 10
3, 81984, Note_on_c, 1, 58, 10
3, 82078, Note_on_c, 1, 58, 0
3, 82078, Note_on_c, 1, 53, 0
3, 82078, Note_on_c, 1, 50, 0
3, 82080, Note_on_c, 1, 50, 10
3, 82080, Note_on_c, 1, 53, 10
3, 82080, Note_on_c, 1, 58, 10
3, 82126, Note_on_c, 1, 58, 0
3, 82126, Note_on_c, 1, 53, 0
3, 82126, Note_on_c, 1, 50, 0
3, 82128, Note_on_c, 1, 50, 10
3, 82128, Note_on_c, 1, 53, 10
3, 82128, Note_on_c, 1, 58, 10
3, 82174, Note_on_c, 1, 58, 0
3, 82174, Note_on_c, 1, 53, 0
3, 82174, Note_on_c, 1, 50, 0
3, 82176, Note_on_c, 1, 50, 10
3, 82176, Note_on_c, 1, 53, 10
3, 82176, Note_on_c, 1, 58, 10
3, 82270, Note_on_c, 1, 58, 0
3, 82270, Note_on_c, 1, 53, 0
3, 82270, Note_on_c, 1, 50, 0
3, 82272, Note_on_c, 1, 50, 10
3, 82272, Note_on_c, 1, 53, 10
3, 82272, Note_on_c, 1, 58, 10
3, 82318, Note_on_c, 1, 58, 0
3, 82318, Note_on_c, 1, 53, 0
3, 82318, Note_on_c, 1, 50, 0
3, 82320, Note_on_c, 1, 50, 10
3, 82320, Note_on_c, 1, 53, 10
3, 82320, Note_on_c, 1, 58, 10
3, 82366, Note_on_c, 1, 58, 0
3, 82366, Note_on_c, 1, 53, 0
3, 82366, Note_on_c, 1, 50, 0
3, 82368, Note_on_c, 1, 50, 10
3, 82368, Note_on_c, 1, 53, 10
3, 82368, Note_on_c, 1, 58, 10
3, 82462, Note_on_c, 1, 58, 0
3, 82462, Note_on_c, 1, 53, 0
3, 82462, Note_on_c, 1, 50, 0
3, 82464, Note_on_c, 1, 50, 10
3, 82464, Note_on_c, 1, 53, 10
3, 82464, Note_on_c, 1, 58, 10
3, 82510, Note_on_c, 1, 58, 0
3, 82510, Note_on_c, 1, 53, 0
3, 82510, Note_on_c, 1, 50, 0
3, 82512, Note_on_c, 1, 50, 10
3, 82512, Note_on_c, 1, 53, 10
3, 82512, Note_on_c, 1, 58, 10
3, 82558, Note_on_c, 1, 58, 0
3, 82558, Note_on_c, 1, 53, 0
3, 82558, Note_on_c, 1, 50, 0
3, 82558, End_track
4, 0, Start_track
4, 0, MIDI_port, 0
4, 0, Title_t, "Guitar-2/Solo Guitar"
4, 0, Program_c, 2, 26
4, 0, Control_c, 2, 7, 127
4, 0, Control_c, 2, 10, 64
4, 96, Note_on_c, 2, 62, 110
4, 190, Note_on_c, 2, 62, 0
4, 192, Note_on_c, 2, 60, 110
4, 352, Note_on_c, 2, 60, 0
4, 480, Note_on_c, 2, 65, 110
4, 640, Note_on_c, 2, 65, 0
4, 864, Note_on_c, 2, 60, 110
4, 958, Note_on_c, 2, 60, 0
4, 960, Note_on_c, 2, 55, 110
4, 1120, Note_on_c, 2, 55, 0
4, 1248, Note_on_c, 2, 60, 110
4, 1408, Note_on_c, 2, 60, 0
4, 1440, Note_on_c, 2, 60, 110
4, 1534, Note_on_c, 2, 60, 0
4, 1632, Note_on_c, 2, 62, 110
4, 1726, Note_on_c, 2, 62, 0
4, 1728, Note_on_c, 2, 57, 110
4, 1888, Note_on_c, 2, 57, 0
4, 2016, Note_on_c, 2, 65, 110
4, 2176, Note_on_c, 2, 65, 0
4, 2400, Note_on_c, 2, 67, 110
4, 2494, Note_on_c, 2, 67, 0
4, 2496, Note_on_c, 2, 64, 110
4, 2656, Note_on_c, 2, 64, 0
4, 2688, Note_on_c, 2, 60, 110
4, 3024, Note_on_c, 2, 60, 0
4, 3168, Note_on_c, 2, 62, 110
4, 3262, Note_on_c, 2, 62, 0
4, 3264, Note_on_c, 2, 57, 110
4, 3424, Note_on_c, 2, 57, 0
4, 3552, Note_on_c, 2, 65, 110
4, 3712, Note_on_c, 2, 65, 0
4, 3936, Note_on_c, 2, 60, 110
4, 4030, Note_on_c, 2, 60, 0
4, 4032, Note_on_c, 2, 55, 110
4, 4192, Note_on_c, 2, 55, 0
4, 4320, Note_on_c, 2, 60, 110
4, 4414, Note_on_c, 2, 60, 0
4, 4416, Note_on_c, 2, 55, 110
4, 4510, Note_on_c, 2, 55, 0
4, 4512, Note_on_c, 2, 55, 127
4, 4606, Note_on_c, 2, 55, 0
4, 4608, Program_c, 2, 29
4, 6144, Note_on_c, 2, 62, 110
4, 6864, Note_on_c, 2, 62, 0
4, 6912, Note_on_c, 2, 62, 110
4, 7632, Note_on_c, 2, 62, 0
4, 7680, Note_on_c, 2, 62, 110
4, 8400, Note_on_c, 2, 62, 0
4, 8448, Note_on_c, 2, 62, 110
4, 9168, Note_on_c, 2, 62, 0
4, 9216, Program_c, 2, 27
4, 9216, Note_on_c, 2, 62, 60
4, 9376, Note_on_c, 2, 62, 0
4, 9408, Note_on_c, 2, 62, 60
4, 9408, Note_on_c, 2, 65, 60
4, 9568, Note_on_c, 2, 65, 0
4, 9568, Note_on_c, 2, 62, 0
4, 9600, Note_on_c, 2, 57, 60
4, 9600, Note_on_c, 2, 62, 60
4, 9856, Note_on_c, 2, 62, 0
4, 9856, Note_on_c, 2, 57, 0
4, 9888, Note_on_c, 2, 57, 60
4, 9888, Note_on_c, 2, 62, 60
4, 9982, Note_on_c, 2, 62, 0
4, 9982, Note_on_c, 2, 57, 0
4, 9984, Note_on_c, 2, 53, 60
4, 9984, Note_on_c, 2, 57, 60
4, 10240, Note_on_c, 2, 57, 0
4, 10240, Note_on_c, 2, 53, 0
4, 10272, Note_on_c, 2, 53, 60
4, 10272, Note_on_c, 2, 57, 60
4, 10366, Note_on_c, 2, 57, 0
4, 10366, Note_on_c, 2, 53, 0
4, 10368, Note_on_c, 2, 53, 60
4, 10368, Note_on_c, 2, 57, 60
4, 10528, Note_on_c, 2, 57, 0
4, 10528, Note_on_c, 2, 53, 0
4, 10560, Note_on_c, 2, 57, 60
4, 10606, Note_on_c, 2, 57, 0
4, 10608, Note_on_c, 2, 60, 60
4, 10654, Note_on_c, 2, 60, 0
4, 10656, Note_on_c, 2, 65, 60
4, 10750, Note_on_c, 2, 65, 0
4, 10752, Note_on_c, 2, 62, 60
4, 10912, Note_on_c, 2, 62, 0
4, 10944, Note_on_c, 2, 62, 60
4, 10944, Note_on_c, 2, 65, 60
4, 11104, Note_on_c, 2, 65, 0
4, 11104, Note_on_c, 2, 62, 0
4, 11136, Note_on_c, 2, 57, 60
4, 11136, Note_on_c, 2, 62, 60
4, 11392, Note_on_c, 2, 62, 0
4, 11392, Note_on_c, 2, 57, 0
4, 11424, Note_on_c, 2, 57, 60
4, 11424, Note_on_c, 2, 62, 60
4, 11518, Note_on_c, 2, 62, 0
4, 11518, Note_on_c, 2, 57, 0
4, 11520, Note_on_c, 2, 62, 60
4, 11520, Note_on_c, 2, 65, 60
4, 11520, Note_on_c, 2, 67, 60
4, 11680, Note_on_c, 2, 67, 0
4, 11680, Note_on_c, 2, 65, 0
4, 11680, Note_on_c, 2, 62, 0
4, 11712, Note_on_c, 2, 62, 60
4, 11712, Note_on_c, 2, 65, 60
4, 11712, Note_on_c, 2, 69, 60
4, 11998, Note_on_c, 2, 69, 0
4, 11998, Note_on_c, 2, 65, 0
4, 11998, Note_on_c, 2, 62, 0
4, 12000, Note_on_c, 2, 57, 60
4, 12000, Note_on_c, 2, 62, 60
4, 12000, Note_on_c, 2, 67, 60
4, 12094, Note_on_c, 2, 67, 0
4, 12096, Note_on_c, 2, 65, 60
4, 12256, Note_on_c, 2, 65, 0
4, 12256, Note_on_c, 2, 62, 0
4, 12256, Note_on_c, 2, 57, 0
4, 12288, Note_on_c, 2, 55, 60
4, 12288, Note_on_c, 2, 60, 60
4, 12288, Note_on_c, 2, 64, 60
4, 12624, Note_on_c, 2, 64, 0
4, 12624, Note_on_c, 2, 60, 0
4, 12624, Note_on_c, 2, 55, 0
4, 12672, Note_on_c, 2, 52, 60
4, 12672, Note_on_c, 2, 55, 60
4, 12672, Note_on_c, 2, 60, 60
4, 12798, Note_on_c, 2, 60, 0
4, 12798, Note_on_c, 2, 55, 0
4, 12798, Note_on_c, 2, 52, 0
4, 12800, Note_on_c, 2, 55, 60
4, 12800, Note_on_c, 2, 60, 60
4, 12800, Note_on_c, 2, 64, 60
4, 12926, Note_on_c, 2, 64, 0
4, 12926, Note_on_c, 2, 60, 0
4, 12926, Note_on_c, 2, 55, 0
4, 12928, Note_on_c, 2, 55, 60
4, 12928, Note_on_c, 2, 60, 60
4, 12928, Note_on_c, 2, 65, 60
4, 13054, Note_on_c, 2, 65, 0
4, 13054, Note_on_c, 2, 60, 0
4, 13054, Note_on_c, 2, 55, 0
4, 13056, Note_on_c, 2, 58, 60
4, 13056, Note_on_c, 2, 62, 60
4, 13056, Note_on_c, 2, 67, 60
4, 13216, Note_on_c, 2, 67, 0
4, 13312, Note_on_c, 2, 62, 0
4, 13312, Note_on_c, 2, 58, 0
4, 13344, Note_on_c, 2, 58, 60
4, 13344, Note_on_c, 2, 62, 60
4, 13600, Note_on_c, 2, 62, 0
4, 13600, Note_on_c, 2, 58, 0
4, 13632, Note_on_c, 2, 58, 60
4, 13632, Note_on_c, 2, 62, 60
4, 13792, Note_on_c, 2, 62, 0
4, 13792, Note_on_c, 2, 58, 0
4, 13824, Note_on_c, 2, 53, 60
4, 13824, Note_on_c, 2, 57, 60
4, 13824, Note_on_c, 2, 62, 60
4, 14080, Note_on_c, 2, 62, 0
4, 14080, Note_on_c, 2, 57, 0
4, 14080, Note_on_c, 2, 53, 0
4, 14112, Note_on_c, 2, 53, 60
4, 14112, Note_on_c, 2, 57, 60
4, 14112, Note_on_c, 2, 62, 60
4, 14368, Note_on_c, 2, 62, 0
4, 14368, Note_on_c, 2, 57, 0
4, 14368, Note_on_c, 2, 53, 0
4, 14400, Note_on_c, 2, 57, 60
4, 14446, Note_on_c, 2, 57, 0
4, 14448, Note_on_c, 2, 60, 60
4, 14494, Note_on_c, 2, 60, 0
4, 14496, Note_on_c, 2, 62, 60
4, 14542, Note_on_c, 2, 62, 0
4, 14544, Note_on_c, 2, 65, 60
4, 14590, Note_on_c, 2, 65, 0
4, 14592, Note_on_c, 2, 62, 60
4, 14686, Note_on_c, 2, 62, 0
4, 14688, Note_on_c, 2, 62, 60
4, 14688, Note_on_c, 2, 65, 60
4, 14688, Note_on_c, 2, 69, 60
4, 14830, Note_on_c, 2, 69, 0
4, 14830, Note_on_c, 2, 65, 0
4, 14830, Note_on_c, 2, 62, 0
4, 14832, Note_on_c, 2, 62, 60
4, 14832, Note_on_c, 2, 65, 60
4, 14832, Note_on_c, 2, 69, 60
4, 14878, Note_on_c, 2, 69, 0
4, 14878, Note_on_c, 2, 65, 0
4, 14878, Note_on_c, 2, 62, 0
4, 14880, Note_on_c, 2, 62, 60
4, 14880, Note_on_c, 2, 65, 60
4, 14880, Note_on_c, 2, 69, 60
4, 14926, Note_on_c, 2, 69, 0
4, 14926, Note_on_c, 2, 65, 0
4, 14926, Note_on_c, 2, 62, 0
4, 14928, Note_on_c, 2, 62, 60
4, 14928, Note_on_c, 2, 65, 60
4, 14928, Note_on_c, 2, 69, 60
4, 14974, Note_on_c, 2, 69, 0
4, 14974, Note_on_c, 2, 65, 0
4, 14974, Note_on_c, 2, 62, 0
4, 14976, Note_on_c, 2, 62, 84
4, 14976, Note_on_c, 2, 65, 84
4, 14976, Note_on_c, 2, 67, 84
4, 15022, Note_on_c, 2, 67, 0
4, 15022, Note_on_c, 2, 65, 0
4, 15022, Note_on_c, 2, 62, 0
4, 15024, Note_on_c, 2, 62, 60
4, 15024, Note_on_c, 2, 65, 60
4, 15024, Note_on_c, 2, 69, 60
4, 15070, Note_on_c, 2, 69, 0
4, 15070, Note_on_c, 2, 65, 0
4, 15070, Note_on_c, 2, 62, 0
4, 15072, Note_on_c, 2, 62, 60
4, 15072, Note_on_c, 2, 65, 60
4, 15072, Note_on_c, 2, 69, 60
4, 15118, Note_on_c, 2, 69, 0
4, 15118, Note_on_c, 2, 65, 0
4, 15118, Note_on_c, 2, 62, 0
4, 15120, Note_on_c, 2, 62, 60
4, 15120, Note_on_c, 2, 65, 60
4, 15120, Note_on_c, 2, 69, 60
4, 15166, Note_on_c, 2, 69, 0
4, 15166, Note_on_c, 2, 65, 0
4, 15166, Note_on_c, 2, 62, 0
4, 15168, Note_on_c, 2, 57, 60
4, 15214, Note_on_c, 2, 57, 0
4, 15216, Note_on_c, 2, 60, 60
4, 15262, Note_on_c, 2, 60, 0
4, 15264, Note_on_c, 2, 65, 60
4, 15358, Note_on_c, 2, 65, 0
4, 15360, Note_on_c, 2, 62, 60
4, 15520, Note_on_c, 2, 62, 0
4, 15552, Note_on_c, 2, 57, 60
4, 15552, Note_on_c, 2, 62, 60
4, 15552, Note_on_c, 2, 65, 60
4, 15552, Note_on_c, 2, 69, 60
4, 15712, Note_on_c, 2, 69, 0
4, 15712, Note_on_c, 2, 57, 0
4, 15712, Note_on_c, 2, 62, 0
4, 15712, Note_on_c, 2, 65, 0
4, 15744, Note_on_c, 2, 57, 60
4, 15744, Note_on_c, 2, 62, 60
4, 15744, Note_on_c, 2, 67, 60
4, 15838, Note_on_c, 2, 67, 0
4, 15840, Note_on_c, 2, 65, 60
4, 16000, Note_on_c, 2, 62, 0
4, 16000, Note_on_c, 2, 57, 0
4, 16030, Note_on_c, 2, 65, 0
4, 16032, Note_on_c, 2, 57, 60
4, 16032, Note_on_c, 2, 62, 60
4, 16032, Note_on_c, 2, 65, 60
4, 16126, Note_on_c, 2, 65, 0
4, 16126, Note_on_c, 2, 62, 0
4, 16126, Note_on_c, 2, 57, 0
4, 16128, Note_on_c, 2, 62, 60
4, 16128, Note_on_c, 2, 65, 60
4, 16128, Note_on_c, 2, 67, 60
4, 16384, Note_on_c, 2, 67, 0
4, 16384, Note_on_c, 2, 65, 0
4, 16384, Note_on_c, 2, 62, 0
4, 16512, Note_on_c, 2, 53, 60
4, 16512, Note_on_c, 2, 57, 60
4, 16512, Note_on_c, 2, 62, 60
4, 16672, Note_on_c, 2, 62, 0
4, 16672, Note_on_c, 2, 57, 0
4, 16672, Note_on_c, 2, 53, 0
4, 16704, Note_on_c, 2, 57, 60
4, 16750, Note_on_c, 2, 57, 0
4, 16752, Note_on_c, 2, 60, 60
4, 16798, Note_on_c, 2, 60, 0
4, 16800, Note_on_c, 2, 65, 60
4, 16894, Note_on_c, 2, 65, 0
4, 16896, Note_on_c, 2, 62, 60
4, 17056, Note_on_c, 2, 62, 0
4, 17088, Note_on_c, 2, 62, 60
4, 17088, Note_on_c, 2, 65, 60
4, 17088, Note_on_c, 2, 69, 60
4, 17374, Note_on_c, 2, 69, 0
4, 17440, Note_on_c, 2, 65, 0
4, 17440, Note_on_c, 2, 62, 0
4, 17472, Note_on_c, 2, 57, 60
4, 17472, Note_on_c, 2, 62, 60
4, 17472, Note_on_c, 2, 67, 60
4, 17566, Note_on_c, 2, 67, 0
4, 17632, Note_on_c, 2, 62, 0
4, 17632, Note_on_c, 2, 57, 0
4, 17760, Note_on_c, 2, 62, 60
4, 17760, Note_on_c, 2, 65, 60
4, 17760, Note_on_c, 2, 69, 60
4, 17920, Note_on_c, 2, 69, 0
4, 17920, Note_on_c, 2, 65, 0
4, 17920, Note_on_c, 2, 62, 0
4, 17952, Note_on_c, 2, 62, 60
4, 17952, Note_on_c, 2, 65, 60
4, 17952, Note_on_c, 2, 69, 60
4, 18046, Note_on_c, 2, 69, 0
4, 18046, Note_on_c, 2, 65, 0
4, 18046, Note_on_c, 2, 62, 0
4, 18048, Note_on_c, 2, 62, 60
4, 18048, Note_on_c, 2, 65, 60
4, 18048, Note_on_c, 2, 70, 60
4, 18190, Note_on_c, 2, 70, 0
4, 18192, Note_on_c, 2, 72, 60
4, 18208, Note_on_c, 2, 65, 0
4, 18208, Note_on_c, 2, 62, 0
4, 18238, Note_on_c, 2, 72, 0
4, 18240, Note_on_c, 2, 62, 60
4, 18240, Note_on_c, 2, 65, 60
4, 18240, Note_on_c, 2, 69, 60
4, 18334, Note_on_c, 2, 69, 0
4, 18336, Note_on_c, 2, 70, 60
4, 18382, Note_on_c, 2, 70, 0
4, 18384, Note_on_c, 2, 69, 60
4, 18400, Note_on_c, 2, 65, 0
4, 18400, Note_on_c, 2, 62, 0
4, 18430, Note_on_c, 2, 69, 0
4, 18432, Note_on_c, 2, 60, 60
4, 18432, Note_on_c, 2, 64, 60
4, 18432, Note_on_c, 2, 67, 60
4, 18768, Note_on_c, 2, 67, 0
4, 18768, Note_on_c, 2, 64, 0
4, 18768, Note_on_c, 2, 60, 0
4, 18816, Note_on_c, 2, 60, 60
4, 18816, Note_on_c, 2, 64, 60
4, 18816, Note_on_c, 2, 69, 60
4, 18942, Note_on_c, 2, 69, 0
4, 18942, Note_on_c, 2, 64, 0
4, 18942, Note_on_c, 2, 60, 0
4, 18944, Note_on_c, 2, 60, 60
4, 18944, Note_on_c, 2, 64, 60
4, 18944, Note_on_c, 2, 69, 60
4, 19070, Note_on_c, 2, 69, 0
4, 19070, Note_on_c, 2, 64, 0
4, 19070, Note_on_c, 2, 60, 0
4, 19072, Note_on_c, 2, 60, 60
4, 19072, Note_on_c, 2, 64, 60
4, 19072, Note_on_c, 2, 69, 60
4, 19198, Note_on_c, 2, 69, 0
4, 19198, Note_on_c, 2, 64, 0
4, 19198, Note_on_c, 2, 60, 0
4, 19200, Note_on_c, 2, 58, 60
4, 19200, Note_on_c, 2, 62, 60
4, 19200, Note_on_c, 2, 65, 60
4, 19200, Note_on_c, 2, 70, 60
4, 19360, Note_on_c, 2, 70, 0
4, 19360, Note_on_c, 2, 58, 0
4, 19360, Note_on_c, 2, 62, 0
4, 19360, Note_on_c, 2, 65, 0
4, 19392, Note_on_c, 2, 58, 60
4, 19392, Note_on_c, 2, 62, 60
4, 19392, Note_on_c, 2, 65, 60
4, 19392, Note_on_c, 2, 69, 60
4, 19486, Note_on_c, 2, 69, 0
4, 19486, Note_on_c, 2, 58, 0
4, 19486, Note_on_c, 2, 62, 0
4, 19486, Note_on_c, 2, 65, 0
4, 19488, Note_on_c, 2, 58, 60
4, 19488, Note_on_c, 2, 62, 60
4, 19488, Note_on_c, 2, 65, 60
4, 19488, Note_on_c, 2, 67, 60
4, 19744, Note_on_c, 2, 67, 0
4, 19744, Note_on_c, 2, 58, 0
4, 19744, Note_on_c, 2, 62, 0
4, 19744, Note_on_c, 2, 65, 0
4, 19776, Note_on_c, 2, 65, 60
4, 19870, Note_on_c, 2, 65, 0
4, 19872, Note_on_c, 2, 53, 60
4, 19872, Note_on_c, 2, 57, 60
4, 19872, Note_on_c, 2, 60, 60
4, 19872, Note_on_c, 2, 64, 60
4, 20062, Note_on_c, 2, 64, 0
4, 20064, Note_on_c, 2, 65, 60
4, 20128, Note_on_c, 2, 53, 0
4, 20128, Note_on_c, 2, 60, 0
4, 20128, Note_on_c, 2, 57, 0
4, 20158, Note_on_c, 2, 65, 0
4, 20160, Note_on_c, 2, 53, 60
4, 20160, Note_on_c, 2, 57, 60
4, 20160, Note_on_c, 2, 60, 60
4, 20160, Note_on_c, 2, 64, 60
4, 20254, Note_on_c, 2, 64, 0
4, 20256, Note_on_c, 2, 65, 60
4, 20302, Note_on_c, 2, 65, 0
4, 20304, Note_on_c, 2, 64, 60
4, 20320, Note_on_c, 2, 60, 0
4, 20320, Note_on_c, 2, 53, 0
4, 20320, Note_on_c, 2, 57, 0
4, 20350, Note_on_c, 2, 64, 0
4, 20352, Note_on_c, 2, 53, 60
4, 20352, Note_on_c, 2, 57, 60
4, 20352, Note_on_c, 2, 62, 60
4, 20512, Note_on_c, 2, 62, 0
4, 20512, Note_on_c, 2, 57, 0
4, 20512, Note_on_c, 2, 53, 0
4, 20544, Note_on_c, 2, 57, 60
4, 20590, Note_on_c, 2, 57, 0
4, 20592, Note_on_c, 2, 60, 60
4, 20638, Note_on_c, 2, 60, 0
4, 20640, Note_on_c, 2, 62, 60
4, 20686, Note_on_c, 2, 62, 0
4, 20688, Note_on_c, 2, 65, 60
4, 20734, Note_on_c, 2, 65, 0
4, 20736, Note_on_c, 2, 62, 60
4, 20830, Note_on_c, 2, 62, 0
4, 20832, Note_on_c, 2, 62, 60
4, 20832, Note_on_c, 2, 65, 60
4, 20832, Note_on_c, 2, 69, 60
4, 20974, Note_on_c, 2, 69, 0
4, 20974, Note_on_c, 2, 65, 0
4, 20974, Note_on_c, 2, 62, 0
4, 20976, Note_on_c, 2, 62, 60
4, 20976, Note_on_c, 2, 65, 60
4, 20976, Note_on_c, 2, 69, 60
4, 21022, Note_on_c, 2, 69, 0
4, 21022, Note_on_c, 2, 65, 0
4, 21022, Note_on_c, 2, 62, 0
4, 21024, Note_on_c, 2, 62, 60
4, 21024, Note_on_c, 2, 65, 60
4, 21024, Note_on_c, 2, 69, 60
4, 21070, Note_on_c, 2, 69, 0
4, 21070, Note_on_c, 2, 65, 0
4, 21070, Note_on_c, 2, 62, 0
4, 21072, Note_on_c, 2, 62, 60
4, 21072, Note_on_c, 2, 65, 60
4, 21072, Note_on_c, 2, 69, 60
4, 21118, Note_on_c, 2, 69, 0
4, 21118, Note_on_c, 2, 65, 0
4, 21118, Note_on_c, 2, 62, 0
4, 21120, Note_on_c, 2, 62, 84
4, 21120, Note_on_c, 2, 65, 84
4, 21120, Note_on_c, 2, 67, 84
4, 21166, Note_on_c, 2, 67, 0
4, 21166, Note_on_c, 2, 65, 0
4, 21166, Note_on_c, 2, 62, 0
4, 21168, Note_on_c, 2, 62, 60
4, 21168, Note_on_c, 2, 65, 60
4, 21168, Note_on_c, 2, 69, 60
4, 21214, Note_on_c, 2, 69, 0
4, 21214, Note_on_c, 2, 65, 0
4, 21214, Note_on_c, 2, 62, 0
4, 21216, Note_on_c, 2, 62, 60
4, 21216, Note_on_c, 2, 65, 60
4, 21216, Note_on_c, 2, 69, 60
4, 21262, Note_on_c, 2, 69, 0
4, 21262, Note_on_c, 2, 65, 0
4, 21262, Note_on_c, 2, 62, 0
4, 21264, Note_on_c, 2, 62, 60
4, 21264, Note_on_c, 2, 65, 60
4, 21264, Note_on_c, 2, 69, 60
4, 21310, Note_on_c, 2, 69, 0
4, 21310, Note_on_c, 2, 65, 0
4, 21310, Note_on_c, 2, 62, 0
4, 21312, Note_on_c, 2, 57, 60
4, 21312, Note_on_c, 2, 62, 60
4, 21312, Note_on_c, 2, 65, 60
4, 21406, Note_on_c, 2, 65, 0
4, 21406, Note_on_c, 2, 62, 0
4, 21406, Note_on_c, 2, 57, 0
4, 21408, Note_on_c, 2, 57, 60
4, 21408, Note_on_c, 2, 62, 60
4, 21408, Note_on_c, 2, 65, 60
4, 21502, Note_on_c, 2, 65, 0
4, 21502, Note_on_c, 2, 62, 0
4, 21502, Note_on_c, 2, 57, 0
4, 21504, Note_on_c, 2, 57, 60
4, 21504, Note_on_c, 2, 60, 60
4, 21504, Note_on_c, 2, 65, 60
4, 21664, Note_on_c, 2, 65, 0
4, 21664, Note_on_c, 2, 60, 0
4, 21664, Note_on_c, 2, 57, 0
4, 21696, Note_on_c, 2, 57, 60
4, 21696, Note_on_c, 2, 60, 60
4, 21696, Note_on_c, 2, 65, 60
4, 21790, Note_on_c, 2, 65, 0
4, 21790, Note_on_c, 2, 60, 0
4, 21790, Note_on_c, 2, 57, 0
4, 21792, Note_on_c, 2, 60, 60
4, 21792, Note_on_c, 2, 64, 60
4, 21792, Note_on_c, 2, 67, 60
4, 21886, Note_on_c, 2, 67, 0
4, 21886, Note_on_c, 2, 64, 0
4, 21886, Note_on_c, 2, 60, 0
4, 21888, Note_on_c, 2, 60, 60
4, 21888, Note_on_c, 2, 65, 60
4, 21888, Note_on_c, 2, 69, 60
4, 21982, Note_on_c, 2, 69, 0
4, 21982, Note_on_c, 2, 65, 0
4, 21982, Note_on_c, 2, 60, 0
4, 21984, Note_on_c, 2, 60, 60
4, 21984, Note_on_c, 2, 65, 60
4, 21984, Note_on_c, 2, 67, 60
4, 22078, Note_on_c, 2, 67, 0
4, 22078, Note_on_c, 2, 65, 0
4, 22078, Note_on_c, 2, 60, 0
4, 22080, Note_on_c, 2, 60, 60
4, 22080, Note_on_c, 2, 64, 60
4, 22080, Note_on_c, 2, 67, 60
4, 22174, Note_on_c, 2, 67, 0
4, 22174, Note_on_c, 2, 64, 0
4, 22174, Note_on_c, 2, 60, 0
4, 22176, Note_on_c, 2, 57, 60
4, 22176, Note_on_c, 2, 62, 60
4, 22176, Note_on_c, 2, 65, 60
4, 22270, Note_on_c, 2, 65, 0
4, 22270, Note_on_c, 2, 62, 0
4, 22270, Note_on_c, 2, 57, 0
4, 22272, Note_on_c, 2, 60, 60
4, 22272, Note_on_c, 2, 64, 60
4, 22272, Note_on_c, 2, 67, 60
4, 22432, Note_on_c, 2, 67, 0
4, 22432, Note_on_c, 2, 64, 0
4, 22432, Note_on_c, 2, 60, 0
4, 22464, Note_on_c, 2, 60, 60
4, 22464, Note_on_c, 2, 64, 60
4, 22464, Note_on_c, 2, 67, 60
4, 22624, Note_on_c, 2, 67, 0
4, 22624, Note_on_c, 2, 64, 0
4, 22624, Note_on_c, 2, 60, 0
4, 22656, Note_on_c, 2, 55, 60
4, 22750, Note_on_c, 2, 55, 0
4, 22752, Note_on_c, 2, 57, 60
4, 22846, Note_on_c, 2, 57, 0
4, 22848, Note_on_c, 2, 60, 60
4, 22942, Note_on_c, 2, 60, 0
4, 22944, Note_on_c, 2, 69, 60
4, 23038, Note_on_c, 2, 69, 0
4, 23040, Note_on_c, 2, 57, 60
4, 23040, Note_on_c, 2, 62, 60
4, 23040, Note_on_c, 2, 65, 60
4, 23376, Note_on_c, 2, 65, 0
4, 23376, Note_on_c, 2, 62, 0
4, 23376, Note_on_c, 2, 57, 0
4, 23424, Note_on_c, 2, 60, 60
4, 23424, Note_on_c, 2, 65, 60
4, 23424, Note_on_c, 2, 69, 60
4, 23584, Note_on_c, 2, 69, 0
4, 23584, Note_on_c, 2, 65, 0
4, 23584, Note_on_c, 2, 60, 0
4, 23616, Note_on_c, 2, 60, 60
4, 23616, Note_on_c, 2, 64, 60
4, 23616, Note_on_c, 2, 69, 60
4, 23710, Note_on_c, 2, 69, 0
4, 23710, Note_on_c, 2, 64, 0
4, 23710, Note_on_c, 2, 60, 0
4, 23712, Note_on_c, 2, 60, 60
4, 23712, Note_on_c, 2, 65, 60
4, 23712, Note_on_c, 2, 69, 60
4, 23806, Note_on_c, 2, 69, 0
4, 23806, Note_on_c, 2, 65, 0
4, 23806, Note_on_c, 2, 60, 0
4, 23808, Note_on_c, 2, 60, 60
4, 23808, Note_on_c, 2, 64, 60
4, 23808, Note_on_c, 2, 67, 60
4, 24144, Note_on_c, 2, 67, 0
4, 24144, Note_on_c, 2, 64, 0
4, 24144, Note_on_c, 2, 60, 0
4, 24192, Note_on_c, 2, 60, 60
4, 24192, Note_on_c, 2, 64, 60
4, 24192, Note_on_c, 2, 69, 60
4, 24352, Note_on_c, 2, 69, 0
4, 24352, Note_on_c, 2, 64, 0
4, 24352, Note_on_c, 2, 60, 0
4, 24384, Note_on_c, 2, 60, 60
4, 24384, Note_on_c, 2, 64, 60
4, 24384, Note_on_c, 2, 67, 60
4, 24544, Note_on_c, 2, 67, 0
4, 24544, Note_on_c, 2, 64, 0
4, 24544, Note_on_c, 2, 60, 0
4, 24576, Note_on_c, 2, 57, 60
4, 24576, Note_on_c, 2, 62, 60
4, 24576, Note_on_c, 2, 65, 60
4, 24736, Note_on_c, 2, 65, 0
4, 24736, Note_on_c, 2, 62, 0
4, 24736, Note_on_c, 2, 57, 0
4, 24768, Note_on_c, 2, 57, 60
4, 24768, Note_on_c, 2, 60, 60
4, 24768, Note_on_c, 2, 65, 60
4, 24862, Note_on_c, 2, 65, 0
4, 24862, Note_on_c, 2, 60, 0
4, 24862, Note_on_c, 2, 57, 0
4, 24864, Note_on_c, 2, 60, 60
4, 24864, Note_on_c, 2, 64, 60
4, 24864, Note_on_c, 2, 67, 60
4, 24958, Note_on_c, 2, 67, 0
4, 24958, Note_on_c, 2, 64, 0
4, 24958, Note_on_c, 2, 60, 0
4, 24960, Note_on_c, 2, 60, 60
4, 24960, Note_on_c, 2, 65, 60
4, 24960, Note_on_c, 2, 69, 60
4, 25054, Note_on_c, 2, 69, 0
4, 25054, Note_on_c, 2, 65, 0
4, 25054, Note_on_c, 2, 60, 0
4, 25056, Note_on_c, 2, 60, 60
4, 25056, Note_on_c, 2, 65, 60
4, 25056, Note_on_c, 2, 67, 60
4, 25150, Note_on_c, 2, 67, 0
4, 25150, Note_on_c, 2, 65, 0
4, 25150, Note_on_c, 2, 60, 0
4, 25152, Note_on_c, 2, 60, 60
4, 25152, Note_on_c, 2, 64, 60
4, 25152, Note_on_c, 2, 67, 60
4, 25246, Note_on_c, 2, 67, 0
4, 25246, Note_on_c, 2, 64, 0
4, 25246, Note_on_c, 2, 60, 0
4, 25248, Note_on_c, 2, 57, 60
4, 25248, Note_on_c, 2, 62, 60
4, 25248, Note_on_c, 2, 65, 60
4, 25342, Note_on_c, 2, 65, 0
4, 25342, Note_on_c, 2, 62, 0
4, 25342, Note_on_c, 2, 57, 0
4, 25344, Note_on_c, 2, 60, 60
4, 25344, Note_on_c, 2, 64, 60
4, 25344, Note_on_c, 2, 67, 60
4, 25504, Note_on_c, 2, 67, 0
4, 25504, Note_on_c, 2, 64, 0
4, 25504, Note_on_c, 2, 60, 0
4, 25536, Note_on_c, 2, 60, 60
4, 25536, Note_on_c, 2, 64, 60
4, 25536, Note_on_c, 2, 67, 60
4, 25872, Note_on_c, 2, 67, 0
4, 25872, Note_on_c, 2, 64, 0
4, 25872, Note_on_c, 2, 60, 0
4, 26112, Note_on_c, 2, 50, 60
4, 26112, Note_on_c, 2, 55, 60
4, 26112, Note_on_c, 2, 59, 60
4, 26272, Note_on_c, 2, 59, 0
4, 26272, Note_on_c, 2, 55, 0
4, 26272, Note_on_c, 2, 50, 0
4, 26304, Note_on_c, 2, 52, 60
4, 26304, Note_on_c, 2, 55, 60
4, 26304, Note_on_c, 2, 60, 60
4, 26832, Note_on_c, 2, 60, 0
4, 26832, Note_on_c, 2, 55, 0
4, 26832, Note_on_c, 2, 52, 0
4, 26880, Note_on_c, 2, 50, 60
4, 26880, Note_on_c, 2, 55, 60
4, 26880, Note_on_c, 2, 58, 60
4, 27408, Note_on_c, 2, 58, 0
4, 27408, Note_on_c, 2, 55, 0
4, 27408, Note_on_c, 2, 50, 0
4, 27456, Note_on_c, 2, 57, 60
4, 27502, Note_on_c, 2, 57, 0
4, 27504, Note_on_c, 2, 60, 60
4, 27550, Note_on_c, 2, 60, 0
4, 27552, Note_on_c, 2, 65, 60
4, 27646, Note_on_c, 2, 65, 0
4, 27648, Note_on_c, 2, 62, 60
4, 27742, Note_on_c, 2, 62, 0
4, 27744, Note_on_c, 2, 62, 60
4, 27744, Note_on_c, 2, 65, 60
4, 27744, Note_on_c, 2, 69, 60
4, 27886, Note_on_c, 2, 69, 0
4, 27886, Note_on_c, 2, 65, 0
4, 27886, Note_on_c, 2, 62, 0
4, 27888, Note_on_c, 2, 62, 60
4, 27888, Note_on_c, 2, 65, 60
4, 27888, Note_on_c, 2, 69, 60
4, 27934, Note_on_c, 2, 69, 0
4, 27934, Note_on_c, 2, 65, 0
4, 27934, Note_on_c, 2, 62, 0
4, 27936, Note_on_c, 2, 62, 60
4, 27936, Note_on_c, 2, 65, 60
4, 27936, Note_on_c, 2, 69, 60
4, 27982, Note_on_c, 2, 69, 0
4, 27982, Note_on_c, 2, 65, 0
4, 27982, Note_on_c, 2, 62, 0
4, 27984, Note_on_c, 2, 62, 60
4, 27984, Note_on_c, 2, 65, 60
4, 27984, Note_on_c, 2, 69, 60
4, 28030, Note_on_c, 2, 69, 0
4, 28030, Note_on_c, 2, 65, 0
4, 28030, Note_on_c, 2, 62, 0
4, 28032, Note_on_c, 2, 62, 84
4, 28032, Note_on_c, 2, 65, 84
4, 28032, Note_on_c, 2, 67, 84
4, 28078, Note_on_c, 2, 67, 0
4, 28078, Note_on_c, 2, 65, 0
4, 28078, Note_on_c, 2, 62, 0
4, 28080, Note_on_c, 2, 62, 60
4, 28080, Note_on_c, 2, 65, 60
4, 28080, Note_on_c, 2, 69, 60
4, 28126, Note_on_c, 2, 69, 0
4, 28126, Note_on_c, 2, 65, 0
4, 28126, Note_on_c, 2, 62, 0
4, 28128, Note_on_c, 2, 62, 60
4, 28128, Note_on_c, 2, 65, 60
4, 28128, Note_on_c, 2, 69, 60
4, 28174, Note_on_c, 2, 69, 0
4, 28174, Note_on_c, 2, 65, 0
4, 28174, Note_on_c, 2, 62, 0
4, 28176, Note_on_c, 2, 62, 60
4, 28176, Note_on_c, 2, 65, 60
4, 28176, Note_on_c, 2, 69, 60
4, 28222, Note_on_c, 2, 69, 0
4, 28222, Note_on_c, 2, 65, 0
4, 28222, Note_on_c, 2, 62, 0
4, 28224, Note_on_c, 2, 57, 60
4, 28270, Note_on_c, 2, 57, 0
4, 28272, Note_on_c, 2, 60, 60
4, 28318, Note_on_c, 2, 60, 0
4, 28320, Note_on_c, 2, 62, 60
4, 28366, Note_on_c, 2, 62, 0
4, 28368, Note_on_c, 2, 65, 60
4, 28414, Note_on_c, 2, 65, 0
4, 28416, Note_on_c, 2, 62, 60
4, 28510, Note_on_c, 2, 62, 0
4, 28512, Note_on_c, 2, 62, 60
4, 28512, Note_on_c, 2, 65, 60
4, 28512, Note_on_c, 2, 69, 60
4, 28654, Note_on_c, 2, 69, 0
4, 28654, Note_on_c, 2, 65, 0
4, 28654, Note_on_c, 2, 62, 0
4, 28656, Note_on_c, 2, 62, 60
4, 28656, Note_on_c, 2, 65, 60
4, 28656, Note_on_c, 2, 69, 60
4, 28702, Note_on_c, 2, 69, 0
4, 28702, Note_on_c, 2, 65, 0
4, 28702, Note_on_c, 2, 62, 0
4, 28704, Note_on_c, 2, 62, 60
4, 28704, Note_on_c, 2, 65, 60
4, 28704, Note_on_c, 2, 69, 60
4, 28750, Note_on_c, 2, 69, 0
4, 28750, Note_on_c, 2, 65, 0
4, 28750, Note_on_c, 2, 62, 0
4, 28752, Note_on_c, 2, 62, 60
4, 28752, Note_on_c, 2, 65, 60
4, 28752, Note_on_c, 2, 69, 60
4, 28798, Note_on_c, 2, 69, 0
4, 28798, Note_on_c, 2, 65, 0
4, 28798, Note_on_c, 2, 62, 0
4, 28800, Note_on_c, 2, 62, 84
4, 28800, Note_on_c, 2, 65, 84
4, 28800, Note_on_c, 2, 67, 84
4, 28846, Note_on_c, 2, 67, 0
4, 28846, Note_on_c, 2, 65, 0
4, 28846, Note_on_c, 2, 62, 0
4, 28848, Note_on_c, 2, 62, 60
4, 28848, Note_on_c, 2, 65, 60
4, 28848, Note_on_c, 2, 69, 60
4, 28894, Note_on_c, 2, 69, 0
4, 28894, Note_on_c, 2, 65, 0
4, 28894, Note_on_c, 2, 62, 0
4, 28896, Note_on_c, 2, 62, 60
4, 28896, Note_on_c, 2, 65, 60
4, 28896, Note_on_c, 2, 69, 60
4, 28942, Note_on_c, 2, 69, 0
4, 28942, Note_on_c, 2, 65, 0
4, 28942, Note_on_c, 2, 62, 0
4, 28944, Note_on_c, 2, 62, 60
4, 28944, Note_on_c, 2, 65, 60
4, 28944, Note_on_c, 2, 69, 60
4, 28990, Note_on_c, 2, 69, 0
4, 28990, Note_on_c, 2, 65, 0
4, 28990, Note_on_c, 2, 62, 0
4, 28992, Note_on_c, 2, 57, 60
4, 29038, Note_on_c, 2, 57, 0
4, 29040, Note_on_c, 2, 60, 60
4, 29086, Note_on_c, 2, 60, 0
4, 29088, Note_on_c, 2, 65, 60
4, 29182, Note_on_c, 2, 65, 0
4, 29184, Note_on_c, 2, 62, 60
4, 29344, Note_on_c, 2, 62, 0
4, 29376, Note_on_c, 2, 62, 60
4, 29376, Note_on_c, 2, 65, 60
4, 29536, Note_on_c, 2, 65, 0
4, 29536, Note_on_c, 2, 62, 0
4, 29568, Note_on_c, 2, 57, 60
4, 29568, Note_on_c, 2, 62, 60
4, 29824, Note_on_c, 2, 62, 0
4, 29824, Note_on_c, 2, 57, 0
4, 29856, Note_on_c, 2, 57, 60
4, 29856, Note_on_c, 2, 62, 60
4, 29950, Note_on_c, 2, 62, 0
4, 29950, Note_on_c, 2, 57, 0
4, 29952, Note_on_c, 2, 53, 60
4, 29952, Note_on_c, 2, 57, 60
4, 30208, Note_on_c, 2, 57, 0
4, 30208, Note_on_c, 2, 53, 0
4, 30240, Note_on_c, 2, 53, 60
4, 30240, Note_on_c, 2, 57, 60
4, 30334, Note_on_c, 2, 57, 0
4, 30334, Note_on_c, 2, 53, 0
4, 30336, Note_on_c, 2, 53, 60
4, 30336, Note_on_c, 2, 57, 60
4, 30496, Note_on_c, 2, 57, 0
4, 30496, Note_on_c, 2, 53, 0
4, 30720, Note_on_c, 2, 62, 60
4, 30880, Note_on_c, 2, 62, 0
4, 30912, Note_on_c, 2, 62, 60
4, 30912, Note_on_c, 2, 65, 60
4, 31072, Note_on_c, 2, 65, 0
4, 31072, Note_on_c, 2, 62, 0
4, 31104, Note_on_c, 2, 57, 60
4, 31104, Note_on_c, 2, 62, 60
4, 31360, Note_on_c, 2, 62, 0
4, 31360, Note_on_c, 2, 57, 0
4, 31392, Note_on_c, 2, 57, 60
4, 31392, Note_on_c, 2, 62, 60
4, 31486, Note_on_c, 2, 62, 0
4, 31486, Note_on_c, 2, 57, 0
4, 31488, Note_on_c, 2, 62, 60
4, 31488, Note_on_c, 2, 65, 60
4, 31488, Note_on_c, 2, 67, 60
4, 31648, Note_on_c, 2, 67, 0
4, 31648, Note_on_c, 2, 65, 0
4, 31648, Note_on_c, 2, 62, 0
4, 31680, Note_on_c, 2, 62, 60
4, 31680, Note_on_c, 2, 65, 60
4, 31680, Note_on_c, 2, 69, 60
4, 31966, Note_on_c, 2, 69, 0
4, 31966, Note_on_c, 2, 65, 0
4, 31966, Note_on_c, 2, 62, 0
4, 31968, Note_on_c, 2, 57, 60
4, 31968, Note_on_c, 2, 62, 60
4, 31968, Note_on_c, 2, 67, 60
4, 32062, Note_on_c, 2, 67, 0
4, 32064, Note_on_c, 2, 65, 60
4, 32224, Note_on_c, 2, 65, 0
4, 32224, Note_on_c, 2, 62, 0
4, 32224, Note_on_c, 2, 57, 0
4, 32256, Note_on_c, 2, 55, 60
4, 32256, Note_on_c, 2, 60, 60
4, 32256, Note_on_c, 2, 64, 60
4, 32592, Note_on_c, 2, 64, 0
4, 32592, Note_on_c, 2, 60, 0
4, 32592, Note_on_c, 2, 55, 0
4, 32640, Note_on_c, 2, 52, 60
4, 32640, Note_on_c, 2, 55, 60
4, 32640, Note_on_c, 2, 60, 60
4, 32766, Note_on_c, 2, 60, 0
4, 32766, Note_on_c, 2, 55, 0
4, 32766, Note_on_c, 2, 52, 0
4, 32768, Note_on_c, 2, 55, 60
4, 32768, Note_on_c, 2, 60, 60
4, 32768, Note_on_c, 2, 64, 60
4, 32894, Note_on_c, 2, 64, 0
4, 32894, Note_on_c, 2, 60, 0
4, 32894, Note_on_c, 2, 55, 0
4, 32896, Note_on_c, 2, 55, 60
4, 32896, Note_on_c, 2, 60, 60
4, 32896, Note_on_c, 2, 65, 60
4, 33022, Note_on_c, 2, 65, 0
4, 33022, Note_on_c, 2, 60, 0
4, 33022, Note_on_c, 2, 55, 0
4, 33024, Note_on_c, 2, 58, 60
4, 33024, Note_on_c, 2, 62, 60
4, 33280, Note_on_c, 2, 62, 0
4, 33280, Note_on_c, 2, 58, 0
4, 33312, Note_on_c, 2, 58, 60
4, 33312, Note_on_c, 2, 62, 60
4, 33568, Note_on_c, 2, 62, 0
4, 33568, Note_on_c, 2, 58, 0
4, 33600, Note_on_c, 2, 58, 60
4, 33600, Note_on_c, 2, 62, 60
4, 33760, Note_on_c, 2, 62, 0
4, 33760, Note_on_c, 2, 58, 0
4, 33792, Note_on_c, 2, 53, 60
4, 33792, Note_on_c, 2, 57, 60
4, 33792, Note_on_c, 2, 62, 60
4, 34048, Note_on_c, 2, 62, 0
4, 34048, Note_on_c, 2, 57, 0
4, 34048, Note_on_c, 2, 53, 0
4, 34080, Note_on_c, 2, 53, 60
4, 34080, Note_on_c, 2, 57, 60
4, 34080, Note_on_c, 2, 62, 60
4, 34336, Note_on_c, 2, 62, 0
4, 34336, Note_on_c, 2, 57, 0
4, 34336, Note_on_c, 2, 53, 0
4, 34368, Note_on_c, 2, 57, 60
4, 34414, Note_on_c, 2, 57, 0
4, 34416, Note_on_c, 2, 60, 60
4, 34462, Note_on_c, 2, 60, 0
4, 34464, Note_on_c, 2, 62, 60
4, 34510, Note_on_c, 2, 62, 0
4, 34512, Note_on_c, 2, 65, 60
4, 34558, Note_on_c, 2, 65, 0
4, 34560, Note_on_c, 2, 62, 60
4, 34654, Note_on_c, 2, 62, 0
4, 34656, Note_on_c, 2, 62, 60
4, 34656, Note_on_c, 2, 65, 60
4, 34656, Note_on_c, 2, 69, 60
4, 34798, Note_on_c, 2, 69, 0
4, 34798, Note_on_c, 2, 65, 0
4, 34798, Note_on_c, 2, 62, 0
4, 34800, Note_on_c, 2, 62, 60
4, 34800, Note_on_c, 2, 65, 60
4, 34800, Note_on_c, 2, 69, 60
4, 34846, Note_on_c, 2, 69, 0
4, 34846, Note_on_c, 2, 65, 0
4, 34846, Note_on_c, 2, 62, 0
4, 34848, Note_on_c, 2, 62, 60
4, 34848, Note_on_c, 2, 65, 60
4, 34848, Note_on_c, 2, 69, 60
4, 34894, Note_on_c, 2, 69, 0
4, 34894, Note_on_c, 2, 65, 0
4, 34894, Note_on_c, 2, 62, 0
4, 34896, Note_on_c, 2, 62, 60
4, 34896, Note_on_c, 2, 65, 60
4, 34896, Note_on_c, 2, 69, 60
4, 34942, Note_on_c, 2, 69, 0
4, 34942, Note_on_c, 2, 65, 0
4, 34942, Note_on_c, 2, 62, 0
4, 34944, Note_on_c, 2, 62, 84
4, 34944, Note_on_c, 2, 65, 84
4, 34944, Note_on_c, 2, 67, 84
4, 34990, Note_on_c, 2, 67, 0
4, 34990, Note_on_c, 2, 65, 0
4, 34990, Note_on_c, 2, 62, 0
4, 34992, Note_on_c, 2, 62, 60
4, 34992, Note_on_c, 2, 65, 60
4, 34992, Note_on_c, 2, 69, 60
4, 35038, Note_on_c, 2, 69, 0
4, 35038, Note_on_c, 2, 65, 0
4, 35038, Note_on_c, 2, 62, 0
4, 35040, Note_on_c, 2, 62, 60
4, 35040, Note_on_c, 2, 65, 60
4, 35040, Note_on_c, 2, 69, 60
4, 35086, Note_on_c, 2, 69, 0
4, 35086, Note_on_c, 2, 65, 0
4, 35086, Note_on_c, 2, 62, 0
4, 35088, Note_on_c, 2, 62, 60
4, 35088, Note_on_c, 2, 65, 60
4, 35088, Note_on_c, 2, 69, 60
4, 35134, Note_on_c, 2, 69, 0
4, 35134, Note_on_c, 2, 65, 0
4, 35134, Note_on_c, 2, 62, 0
4, 35136, Note_on_c, 2, 57, 60
4, 35182, Note_on_c, 2, 57, 0
4, 35184, Note_on_c, 2, 60, 60
4, 35230, Note_on_c, 2, 60, 0
4, 35232, Note_on_c, 2, 65, 60
4, 35326, Note_on_c, 2, 65, 0
4, 35328, Note_on_c, 2, 62, 60
4, 35488, Note_on_c, 2, 62, 0
4, 35520, Note_on_c, 2, 57, 60
4, 35520, Note_on_c, 2, 62, 60
4, 35520, Note_on_c, 2, 65, 60
4, 35520, Note_on_c, 2, 69, 60
4, 35680, Note_on_c, 2, 69, 0
4, 35680, Note_on_c, 2, 57, 0
4, 35680, Note_on_c, 2, 62, 0
4, 35680, Note_on_c, 2, 65, 0
4, 35712, Note_on_c, 2, 57, 60
4, 35712, Note_on_c, 2, 62, 60
4, 35712, Note_on_c, 2, 67, 60
4, 35806, Note_on_c, 2, 67, 0
4, 35808, Note_on_c, 2, 65, 60
4, 35968, Note_on_c, 2, 62, 0
4, 35968, Note_on_c, 2, 57, 0
4, 35998, Note_on_c, 2, 65, 0
4, 36000, Note_on_c, 2, 57, 60
4, 36000, Note_on_c, 2, 62, 60
4, 36000, Note_on_c, 2, 65, 60
4, 36046, Note_on_c, 2, 65, 0
4, 36048, Note_on_c, 2, 65, 60
4, 36094, Note_on_c, 2, 65, 0
4, 36094, Note_on_c, 2, 62, 0
4, 36094, Note_on_c, 2, 57, 0
4, 36096, Note_on_c, 2, 62, 60
4, 36096, Note_on_c, 2, 65, 60
4, 36096, Note_on_c, 2, 67, 60
4, 36352, Note_on_c, 2, 67, 0
4, 36352, Note_on_c, 2, 65, 0
4, 36352, Note_on_c, 2, 62, 0
4, 36480, Note_on_c, 2, 53, 60
4, 36480, Note_on_c, 2, 57, 60
4, 36480, Note_on_c, 2, 62, 60
4, 36640, Note_on_c, 2, 62, 0
4, 36640, Note_on_c, 2, 57, 0
4, 36640, Note_on_c, 2, 53, 0
4, 36672, Note_on_c, 2, 57, 60
4, 36718, Note_on_c, 2, 57, 0
4, 36720, Note_on_c, 2, 60, 60
4, 36766, Note_on_c, 2, 60, 0
4, 36768, Note_on_c, 2, 65, 60
4, 36862, Note_on_c, 2, 65, 0
4, 36864, Note_on_c, 2, 62, 60
4, 37024, Note_on_c, 2, 62, 0
4, 37056, Note_on_c, 2, 62, 60
4, 37056, Note_on_c, 2, 65, 60
4, 37056, Note_on_c, 2, 69, 60
4, 37342, Note_on_c, 2, 69, 0
4, 37344, Note_on_c, 2, 67, 60
4, 37408, Note_on_c, 2, 65, 0
4, 37408, Note_on_c, 2, 62, 0
4, 37438, Note_on_c, 2, 67, 0
4, 37440, Note_on_c, 2, 57, 60
4, 37440, Note_on_c, 2, 62, 60
4, 37440, Note_on_c, 2, 67, 60
4, 37534, Note_on_c, 2, 67, 0
4, 37536, Note_on_c, 2, 65, 60
4, 37600, Note_on_c, 2, 62, 0
4, 37600, Note_on_c, 2, 57, 0
4, 37630, Note_on_c, 2, 65, 0
4, 37728, Note_on_c, 2, 62, 60
4, 37728, Note_on_c, 2, 65, 60
4, 37728, Note_on_c, 2, 69, 60
4, 37888, Note_on_c, 2, 69, 0
4, 37888, Note_on_c, 2, 65, 0
4, 37888, Note_on_c, 2, 62, 0
4, 37920, Note_on_c, 2, 62, 60
4, 37920, Note_on_c, 2, 65, 60
4, 37920, Note_on_c, 2, 69, 60
4, 38014, Note_on_c, 2, 69, 0
4, 38014, Note_on_c, 2, 65, 0
4, 38014, Note_on_c, 2, 62, 0
4, 38016, Note_on_c, 2, 62, 60
4, 38016, Note_on_c, 2, 65, 60
4, 38016, Note_on_c, 2, 70, 60
4, 38158, Note_on_c, 2, 70, 0
4, 38160, Note_on_c, 2, 72, 60
4, 38176, Note_on_c, 2, 65, 0
4, 38176, Note_on_c, 2, 62, 0
4, 38206, Note_on_c, 2, 72, 0
4, 38208, Note_on_c, 2, 62, 60
4, 38208, Note_on_c, 2, 65, 60
4, 38208, Note_on_c, 2, 69, 60
4, 38302, Note_on_c, 2, 69, 0
4, 38304, Note_on_c, 2, 70, 60
4, 38350, Note_on_c, 2, 70, 0
4, 38352, Note_on_c, 2, 69, 60
4, 38368, Note_on_c, 2, 65, 0
4, 38368, Note_on_c, 2, 62, 0
4, 38398, Note_on_c, 2, 69, 0
4, 38400, Note_on_c, 2, 60, 60
4, 38400, Note_on_c, 2, 64, 60
4, 38400, Note_on_c, 2, 67, 60
4, 38736, Note_on_c, 2, 67, 0
4, 38736, Note_on_c, 2, 64, 0
4, 38736, Note_on_c, 2, 60, 0
4, 38784, Note_on_c, 2, 60, 60
4, 38784, Note_on_c, 2, 64, 60
4, 38784, Note_on_c, 2, 69, 60
4, 39120, Note_on_c, 2, 69, 0
4, 39120, Note_on_c, 2, 64, 0
4, 39120, Note_on_c, 2, 60, 0
4, 39168, Note_on_c, 2, 58, 60
4, 39168, Note_on_c, 2, 62, 60
4, 39168, Note_on_c, 2, 65, 60
4, 39168, Note_on_c, 2, 70, 60
4, 39328, Note_on_c, 2, 70, 0
4, 39328, Note_on_c, 2, 58, 0
4, 39328, Note_on_c, 2, 62, 0
4, 39328, Note_on_c, 2, 65, 0
4, 39360, Note_on_c, 2, 58, 60
4, 39360, Note_on_c, 2, 62, 60
4, 39360, Note_on_c, 2, 65, 60
4, 39360, Note_on_c, 2, 69, 60
4, 39454, Note_on_c, 2, 69, 0
4, 39454, Note_on_c, 2, 58, 0
4, 39454, Note_on_c, 2, 62, 0
4, 39454, Note_on_c, 2, 65, 0
4, 39456, Note_on_c, 2, 58, 60
4, 39456, Note_on_c, 2, 62, 60
4, 39456, Note_on_c, 2, 65, 60
4, 39456, Note_on_c, 2, 67, 60
4, 39712, Note_on_c, 2, 67, 0
4, 39712, Note_on_c, 2, 58, 0
4, 39712, Note_on_c, 2, 62, 0
4, 39712, Note_on_c, 2, 65, 0
4, 39744, Note_on_c, 2, 65, 60
4, 39838, Note_on_c, 2, 65, 0
4, 39840, Note_on_c, 2, 53, 60
4, 39840, Note_on_c, 2, 57, 60
4, 39840, Note_on_c, 2, 60, 60
4, 39840, Note_on_c, 2, 64, 60
4, 40030, Note_on_c, 2, 64, 0
4, 40032, Note_on_c, 2, 65, 60
4, 40096, Note_on_c, 2, 53, 0
4, 40096, Note_on_c, 2, 60, 0
4, 40096, Note_on_c, 2, 57, 0
4, 40126, Note_on_c, 2, 65, 0
4, 40128, Note_on_c, 2, 53, 60
4, 40128, Note_on_c, 2, 57, 60
4, 40128, Note_on_c, 2, 60, 60
4, 40128, Note_on_c, 2, 64, 60
4, 40222, Note_on_c, 2, 64, 0
4, 40224, Note_on_c, 2, 65, 60
4, 40270, Note_on_c, 2, 65, 0
4, 40272, Note_on_c, 2, 64, 60
4, 40288, Note_on_c, 2, 60, 0
4, 40288, Note_on_c, 2, 53, 0
4, 40288, Note_on_c, 2, 57, 0
4, 40318, Note_on_c, 2, 64, 0
4, 40320, Note_on_c, 2, 53, 60
4, 40320, Note_on_c, 2, 57, 60
4, 40320, Note_on_c, 2, 62, 60
4, 40480, Note_on_c, 2, 62, 0
4, 40480, Note_on_c, 2, 57, 0
4, 40480, Note_on_c, 2, 53, 0
4, 40512, Note_on_c, 2, 57, 60
4, 40558, Note_on_c, 2, 57, 0
4, 40560, Note_on_c, 2, 60, 60
4, 40606, Note_on_c, 2, 60, 0
4, 40608, Note_on_c, 2, 62, 60
4, 40654, Note_on_c, 2, 62, 0
4, 40656, Note_on_c, 2, 65, 60
4, 40702, Note_on_c, 2, 65, 0
4, 40704, Note_on_c, 2, 62, 60
4, 40798, Note_on_c, 2, 62, 0
4, 40800, Note_on_c, 2, 62, 60
4, 40800, Note_on_c, 2, 65, 60
4, 40800, Note_on_c, 2, 69, 60
4, 40942, Note_on_c, 2, 69, 0
4, 40942, Note_on_c, 2, 65, 0
4, 40942, Note_on_c, 2, 62, 0
4, 40944, Note_on_c, 2, 62, 60
4, 40944, Note_on_c, 2, 65, 60
4, 40944, Note_on_c, 2, 69, 60
4, 40990, Note_on_c, 2, 69, 0
4, 40990, Note_on_c, 2, 65, 0
4, 40990, Note_on_c, 2, 62, 0
4, 40992, Note_on_c, 2, 62, 60
4, 40992, Note_on_c, 2, 65, 60
4, 40992, Note_on_c, 2, 69, 60
4, 41038, Note_on_c, 2, 69, 0
4, 41038, Note_on_c, 2, 65, 0
4, 41038, Note_on_c, 2, 62, 0
4, 41040, Note_on_c, 2, 62, 60
4, 41040, Note_on_c, 2, 65, 60
4, 41040, Note_on_c, 2, 69, 60
4, 41086, Note_on_c, 2, 69, 0
4, 41086, Note_on_c, 2, 65, 0
4, 41086, Note_on_c, 2, 62, 0
4, 41088, Note_on_c, 2, 62, 84
4, 41088, Note_on_c, 2, 65, 84
4, 41088, Note_on_c, 2, 67, 84
4, 41134, Note_on_c, 2, 67, 0
4, 41134, Note_on_c, 2, 65, 0
4, 41134, Note_on_c, 2, 62, 0
4, 41136, Note_on_c, 2, 62, 60
4, 41136, Note_on_c, 2, 65, 60
4, 41136, Note_on_c, 2, 69, 60
4, 41182, Note_on_c, 2, 69, 0
4, 41182, Note_on_c, 2, 65, 0
4, 41182, Note_on_c, 2, 62, 0
4, 41184, Note_on_c, 2, 62, 60
4, 41184, Note_on_c, 2, 65, 60
4, 41184, Note_on_c, 2, 69, 60
4, 41230, Note_on_c, 2, 69, 0
4, 41230, Note_on_c, 2, 65, 0
4, 41230, Note_on_c, 2, 62, 0
4, 41232, Note_on_c, 2, 62, 60
4, 41232, Note_on_c, 2, 65, 60
4, 41232, Note_on_c, 2, 69, 60
4, 41278, Note_on_c, 2, 69, 0
4, 41278, Note_on_c, 2, 65, 0
4, 41278, Note_on_c, 2, 62, 0
4, 41280, Note_on_c, 2, 57, 60
4, 41280, Note_on_c, 2, 62, 60
4, 41280, Note_on_c, 2, 65, 60
4, 41374, Note_on_c, 2, 65, 0
4, 41374, Note_on_c, 2, 62, 0
4, 41374, Note_on_c, 2, 57, 0
4, 41376, Note_on_c, 2, 57, 60
4, 41376, Note_on_c, 2, 62, 60
4, 41376, Note_on_c, 2, 65, 60
4, 41470, Note_on_c, 2, 65, 0
4, 41470, Note_on_c, 2, 62, 0
4, 41470, Note_on_c, 2, 57, 0
4, 41472, Note_on_c, 2, 57, 60
4, 41472, Note_on_c, 2, 60, 60
4, 41472, Note_on_c, 2, 65, 60
4, 41632, Note_on_c, 2, 65, 0
4, 41632, Note_on_c, 2, 60, 0
4, 41632, Note_on_c, 2, 57, 0
4, 41664, Note_on_c, 2, 57, 60
4, 41664, Note_on_c, 2, 60, 60
4, 41664, Note_on_c, 2, 65, 60
4, 41758, Note_on_c, 2, 65, 0
4, 41758, Note_on_c, 2, 60, 0
4, 41758, Note_on_c, 2, 57, 0
4, 41760, Note_on_c, 2, 60, 60
4, 41760, Note_on_c, 2, 64, 60
4, 41760, Note_on_c, 2, 67, 60
4, 41854, Note_on_c, 2, 67, 0
4, 41854, Note_on_c, 2, 64, 0
4, 41854, Note_on_c, 2, 60, 0
4, 41856, Note_on_c, 2, 60, 60
4, 41856, Note_on_c, 2, 65, 60
4, 41856, Note_on_c, 2, 69, 60
4, 41950, Note_on_c, 2, 69, 0
4, 41950, Note_on_c, 2, 65, 0
4, 41950, Note_on_c, 2, 60, 0
4, 41952, Note_on_c, 2, 60, 60
4, 41952, Note_on_c, 2, 65, 60
4, 41952, Note_on_c, 2, 67, 60
4, 42046, Note_on_c, 2, 67, 0
4, 42046, Note_on_c, 2, 65, 0
4, 42046, Note_on_c, 2, 60, 0
4, 42048, Note_on_c, 2, 60, 60
4, 42048, Note_on_c, 2, 64, 60
4, 42048, Note_on_c, 2, 67, 60
4, 42142, Note_on_c, 2, 67, 0
4, 42142, Note_on_c, 2, 64, 0
4, 42142, Note_on_c, 2, 60, 0
4, 42144, Note_on_c, 2, 57, 60
4, 42144, Note_on_c, 2, 62, 60
4, 42144, Note_on_c, 2, 65, 60
4, 42238, Note_on_c, 2, 65, 0
4, 42238, Note_on_c, 2, 62, 0
4, 42238, Note_on_c, 2, 57, 0
4, 42240, Note_on_c, 2, 60, 60
4, 42240, Note_on_c, 2, 64, 60
4, 42240, Note_on_c, 2, 67, 60
4, 42400, Note_on_c, 2, 67, 0
4, 42400, Note_on_c, 2, 64, 0
4, 42400, Note_on_c, 2, 60, 0
4, 42432, Note_on_c, 2, 60, 60
4, 42432, Note_on_c, 2, 64, 60
4, 42432, Note_on_c, 2, 67, 60
4, 42592, Note_on_c, 2, 67, 0
4, 42592, Note_on_c, 2, 64, 0
4, 42592, Note_on_c, 2, 60, 0
4, 42624, Note_on_c, 2, 55, 60
4, 42718, Note_on_c, 2, 55, 0
4, 42720, Note_on_c, 2, 57, 60
4, 42814, Note_on_c, 2, 57, 0
4, 42816, Note_on_c, 2, 60, 60
4, 42910, Note_on_c, 2, 60, 0
4, 42912, Note_on_c, 2, 69, 60
4, 43006, Note_on_c, 2, 69, 0
4, 43008, Note_on_c, 2, 57, 60
4, 43008, Note_on_c, 2, 62, 60
4, 43008, Note_on_c, 2, 65, 60
4, 43344, Note_on_c, 2, 65, 0
4, 43344, Note_on_c, 2, 62, 0
4, 43344, Note_on_c, 2, 57, 0
4, 43392, Note_on_c, 2, 60, 60
4, 43392, Note_on_c, 2, 65, 60
4, 43392, Note_on_c, 2, 69, 60
4, 43552, Note_on_c, 2, 69, 0
4, 43552, Note_on_c, 2, 65, 0
4, 43552, Note_on_c, 2, 60, 0
4, 43584, Note_on_c, 2, 60, 60
4, 43584, Note_on_c, 2, 64, 60
4, 43584, Note_on_c, 2, 69, 60
4, 43678, Note_on_c, 2, 69, 0
4, 43678, Note_on_c, 2, 64, 0
4, 43678, Note_on_c, 2, 60, 0
4, 43680, Note_on_c, 2, 60, 60
4, 43680, Note_on_c, 2, 65, 60
4, 43680, Note_on_c, 2, 69, 60
4, 43774, Note_on_c, 2, 69, 0
4, 43774, Note_on_c, 2, 65, 0
4, 43774, Note_on_c, 2, 60, 0
4, 43776, Note_on_c, 2, 60, 60
4, 43776, Note_on_c, 2, 64, 60
4, 43776, Note_on_c, 2, 67, 60
4, 44112, Note_on_c, 2, 67, 0
4, 44112, Note_on_c, 2, 64, 0
4, 44112, Note_on_c, 2, 60, 0
4, 44160, Note_on_c, 2, 60, 60
4, 44160, Note_on_c, 2, 64, 60
4, 44160, Note_on_c, 2, 69, 60
4, 44320, Note_on_c, 2, 69, 0
4, 44320, Note_on_c, 2, 64, 0
4, 44320, Note_on_c, 2, 60, 0
4, 44352, Note_on_c, 2, 60, 60
4, 44352, Note_on_c, 2, 64, 60
4, 44352, Note_on_c, 2, 67, 60
4, 44512, Note_on_c, 2, 67, 0
4, 44512, Note_on_c, 2, 64, 0
4, 44512, Note_on_c, 2, 60, 0
4, 44544, Note_on_c, 2, 57, 60
4, 44544, Note_on_c, 2, 62, 60
4, 44544, Note_on_c, 2, 65, 60
4, 44704, Note_on_c, 2, 65, 0
4, 44704, Note_on_c, 2, 62, 0
4, 44704, Note_on_c, 2, 57, 0
4, 44736, Note_on_c, 2, 57, 60
4, 44736, Note_on_c, 2, 60, 60
4, 44736, Note_on_c, 2, 65, 60
4, 44830, Note_on_c, 2, 65, 0
4, 44830, Note_on_c, 2, 60, 0
4, 44830, Note_on_c, 2, 57, 0
4, 44832, Note_on_c, 2, 60, 60
4, 44832, Note_on_c, 2, 64, 60
4, 44832, Note_on_c, 2, 67, 60
4, 44926, Note_on_c, 2, 67, 0
4, 44926, Note_on_c, 2, 64, 0
4, 44926, Note_on_c, 2, 60, 0
4, 44928, Note_on_c, 2, 60, 60
4, 44928, Note_on_c, 2, 65, 60
4, 44928, Note_on_c, 2, 69, 60
4, 45022, Note_on_c, 2, 69, 0
4, 45022, Note_on_c, 2, 65, 0
4, 45022, Note_on_c, 2, 60, 0
4, 45024, Note_on_c, 2, 60, 60
4, 45024, Note_on_c, 2, 65, 60
4, 45024, Note_on_c, 2, 67, 60
4, 45118, Note_on_c, 2, 67, 0
4, 45118, Note_on_c, 2, 65, 0
4, 45118, Note_on_c, 2, 60, 0
4, 45120, Note_on_c, 2, 60, 60
4, 45120, Note_on_c, 2, 64, 60
4, 45120, Note_on_c, 2, 67, 60
4, 45214, Note_on_c, 2, 67, 0
4, 45214, Note_on_c, 2, 64, 0
4, 45214, Note_on_c, 2, 60, 0
4, 45216, Note_on_c, 2, 57, 60
4, 45216, Note_on_c, 2, 62, 60
4, 45216, Note_on_c, 2, 65, 60
4, 45310, Note_on_c, 2, 65, 0
4, 45310, Note_on_c, 2, 62, 0
4, 45310, Note_on_c, 2, 57, 0
4, 45312, Note_on_c, 2, 60, 60
4, 45312, Note_on_c, 2, 64, 60
4, 45312, Note_on_c, 2, 67, 60
4, 45472, Note_on_c, 2, 67, 0
4, 45472, Note_on_c, 2, 64, 0
4, 45472, Note_on_c, 2, 60, 0
4, 45504, Note_on_c, 2, 60, 60
4, 45504, Note_on_c, 2, 64, 60
4, 45504, Note_on_c, 2, 67, 60
4, 45840, Note_on_c, 2, 67, 0
4, 45840, Note_on_c, 2, 64, 0
4, 45840, Note_on_c, 2, 60, 0
4, 46080, Note_on_c, 2, 50, 60
4, 46080, Note_on_c, 2, 55, 60
4, 46080, Note_on_c, 2, 59, 60
4, 46240, Note_on_c, 2, 59, 0
4, 46240, Note_on_c, 2, 55, 0
4, 46240, Note_on_c, 2, 50, 0
4, 46272, Note_on_c, 2, 52, 60
4, 46272, Note_on_c, 2, 55, 60
4, 46272, Note_on_c, 2, 60, 60
4, 46800, Note_on_c, 2, 60, 0
4, 46800, Note_on_c, 2, 55, 0
4, 46800, Note_on_c, 2, 52, 0
4, 46848, Note_on_c, 2, 50, 60
4, 46848, Note_on_c, 2, 55, 60
4, 46848, Note_on_c, 2, 58, 60
4, 47376, Note_on_c, 2, 58, 0
4, 47376, Note_on_c, 2, 55, 0
4, 47376, Note_on_c, 2, 50, 0
4, 47424, Note_on_c, 2, 57, 60
4, 47470, Note_on_c, 2, 57, 0
4, 47472, Note_on_c, 2, 60, 60
4, 47518, Note_on_c, 2, 60, 0
4, 47520, Note_on_c, 2, 65, 60
4, 47614, Note_on_c, 2, 65, 0
4, 47616, Note_on_c, 2, 50, 60
4, 47616, Note_on_c, 2, 55, 60
4, 47616, Note_on_c, 2, 59, 60
4, 47776, Note_on_c, 2, 59, 0
4, 47776, Note_on_c, 2, 55, 0
4, 47776, Note_on_c, 2, 50, 0
4, 47808, Note_on_c, 2, 52, 60
4, 47808, Note_on_c, 2, 57, 60
4, 47808, Note_on_c, 2, 60, 60
4, 48336, Note_on_c, 2, 60, 0
4, 48336, Note_on_c, 2, 57, 0
4, 48336, Note_on_c, 2, 52, 0
4, 48384, Note_on_c, 2, 50, 60
4, 48384, Note_on_c, 2, 55, 60
4, 48384, Note_on_c, 2, 58, 60
4, 48720, Note_on_c, 2, 58, 0
4, 48720, Note_on_c, 2, 55, 0
4, 48720, Note_on_c, 2, 50, 0
4, 48960, Note_on_c, 2, 62, 60
4, 49054, Note_on_c, 2, 62, 0
4, 49056, Note_on_c, 2, 62, 60
4, 49150, Note_on_c, 2, 62, 0
4, 49536, Program_c, 2, 30
4, 50880, Note_on_c, 2, 69, 127
4, 50926, Note_on_c, 2, 69, 0
4, 50928, Note_on_c, 2, 67, 127
4, 50974, Note_on_c, 2, 67, 0
4, 50976, Note_on_c, 2, 65, 127
4, 51022, Note_on_c, 2, 65, 0
4, 51024, Note_on_c, 2, 67, 127
4, 51070, Note_on_c, 2, 67, 0
4, 51072, Note_on_c, 2, 65, 127
4, 51600, Note_on_c, 2, 65, 0
4, 51648, Note_on_c, 2, 69, 127
4, 51694, Note_on_c, 2, 69, 0
4, 51696, Note_on_c, 2, 67, 127
4, 51742, Note_on_c, 2, 67, 0
4, 51744, Note_on_c, 2, 65, 127
4, 51838, Note_on_c, 2, 65, 0
4, 51840, Note_on_c, 2, 67, 127
4, 51934, Note_on_c, 2, 67, 0
4, 51936, Note_on_c, 2, 65, 127
4, 51982, Note_on_c, 2, 65, 0
4, 51984, Note_on_c, 2, 67, 127
4, 52032, Note_on_c, 2, 67, 0
4, 52032, Note_on_c, 2, 72, 127
4, 52080, Note_on_c, 2, 72, 0
4, 52368, Note_on_c, 2, 72, 127
4, 52414, Note_on_c, 2, 72, 0
4, 52416, Note_on_c, 2, 69, 127
4, 52510, Note_on_c, 2, 69, 0
4, 52512, Note_on_c, 2, 65, 127
4, 52558, Note_on_c, 2, 65, 0
4, 52560, Note_on_c, 2, 67, 127
4, 52606, Note_on_c, 2, 67, 0
4, 52608, Note_on_c, 2, 65, 127
4, 53136, Note_on_c, 2, 65, 0
4, 53184, Note_on_c, 2, 69, 127
4, 53230, Note_on_c, 2, 69, 0
4, 53232, Note_on_c, 2, 67, 127
4, 53278, Note_on_c, 2, 67, 0
4, 53280, Note_on_c, 2, 65, 127
4, 53374, Note_on_c, 2, 65, 0
4, 53376, Note_on_c, 2, 74, 127
4, 53458, Note_on_c, 2, 74, 0
4, 53460, Note_on_c, 2, 72, 127
4, 53470, Note_on_c, 2, 72, 0
4, 53472, Note_on_c, 2, 74, 127
4, 53950, Note_on_c, 2, 74, 0
4, 53952, Note_on_c, 2, 74, 127
4, 53998, Note_on_c, 2, 74, 0
4, 54000, Note_on_c, 2, 72, 127
4, 54046, Note_on_c, 2, 72, 0
4, 54048, Note_on_c, 2, 70, 127
4, 54142, Note_on_c, 2, 70, 0
4, 54144, Note_on_c, 2, 74, 127
4, 54226, Note_on_c, 2, 74, 0
4, 54228, Note_on_c, 2, 72, 127
4, 54238, Note_on_c, 2, 72, 0
4, 54240, Note_on_c, 2, 74, 127
4, 54400, Note_on_c, 2, 74, 0
4, 54432, Note_on_c, 2, 72, 127
4, 54478, Note_on_c, 2, 72, 0
4, 54480, Note_on_c, 2, 70, 127
4, 54526, Note_on_c, 2, 70, 0
4, 54528, Note_on_c, 2, 69, 127
4, 54574, Note_on_c, 2, 69, 0
4, 54576, Note_on_c, 2, 67, 127
4, 54622, Note_on_c, 2, 67, 0
4, 54624, Note_on_c, 2, 69, 127
4, 54670, Note_on_c, 2, 69, 0
4, 54672, Note_on_c, 2, 65, 127
4, 54718, Note_on_c, 2, 65, 0
4, 54720, Note_on_c, 2, 67, 127
4, 54880, Note_on_c, 2, 67, 0
4, 54912, Note_on_c, 2, 67, 127
4, 54958, Note_on_c, 2, 67, 0
4, 54960, Note_on_c, 2, 65, 127
4, 55006, Note_on_c, 2, 65, 0
4, 55008, Note_on_c, 2, 69, 127
4, 55102, Note_on_c, 2, 69, 0
4, 55104, Note_on_c, 2, 65, 127
4, 55126, Note_on_c, 2, 65, 0
4, 55128, Note_on_c, 2, 67, 127
4, 55150, Note_on_c, 2, 67, 0
4, 55152, Note_on_c, 2, 65, 127
4, 55198, Note_on_c, 2, 65, 0
4, 55200, Note_on_c, 2, 62, 127
4, 55246, Note_on_c, 2, 62, 0
4, 55248, Note_on_c, 2, 60, 127
4, 55504, Note_on_c, 2, 60, 0
4, 55584, Note_on_c, 2, 60, 127
4, 55630, Note_on_c, 2, 60, 0
4, 55632, Note_on_c, 2, 62, 127
4, 55678, Note_on_c, 2, 62, 0
4, 55680, Note_on_c, 2, 67, 127
4, 55774, Note_on_c, 2, 67, 0
4, 55776, Note_on_c, 2, 65, 127
4, 55822, Note_on_c, 2, 65, 0
4, 55824, Note_on_c, 2, 64, 127
4, 55870, Note_on_c, 2, 64, 0
4, 55872, Note_on_c, 2, 65, 127
4, 55918, Note_on_c, 2, 65, 0
4, 55920, Note_on_c, 2, 64, 127
4, 55966, Note_on_c, 2, 64, 0
4, 55968, Note_on_c, 2, 62, 127
4, 56014, Note_on_c, 2, 62, 0
4, 56016, Note_on_c, 2, 64, 127
4, 56062, Note_on_c, 2, 64, 0
4, 56064, Note_on_c, 2, 65, 127
4, 56158, Note_on_c, 2, 65, 0
4, 56160, Note_on_c, 2, 64, 127
4, 56206, Note_on_c, 2, 64, 0
4, 56208, Note_on_c, 2, 62, 127
4, 56254, Note_on_c, 2, 62, 0
4, 56256, Note_on_c, 2, 64, 127
4, 56302, Note_on_c, 2, 64, 0
4, 56304, Note_on_c, 2, 65, 127
4, 56350, Note_on_c, 2, 65, 0
4, 56352, Note_on_c, 2, 64, 127
4, 56446, Note_on_c, 2, 64, 0
4, 56448, Note_on_c, 2, 62, 127
4, 56542, Note_on_c, 2, 62, 0
4, 56544, Note_on_c, 2, 57, 127
4, 56590, Note_on_c, 2, 57, 0
4, 56592, Note_on_c, 2, 55, 127
4, 56686, Note_on_c, 2, 55, 0
4, 56688, Note_on_c, 2, 53, 127
4, 56734, Note_on_c, 2, 53, 0
4, 56736, Note_on_c, 2, 52, 127
4, 56782, Note_on_c, 2, 52, 0
4, 56784, Note_on_c, 2, 50, 127
4, 56830, Note_on_c, 2, 50, 0
4, 56832, Note_on_c, 2, 52, 127
4, 56854, Note_on_c, 2, 52, 0
4, 56856, Note_on_c, 2, 53, 127
4, 56878, Note_on_c, 2, 53, 0
4, 56880, Note_on_c, 2, 55, 127
4, 56974, Note_on_c, 2, 55, 0
4, 56976, Note_on_c, 2, 58, 127
4, 57022, Note_on_c, 2, 58, 0
4, 57024, Note_on_c, 2, 55, 127
4, 57070, Note_on_c, 2, 55, 0
4, 57072, Note_on_c, 2, 57, 127
4, 57118, Note_on_c, 2, 57, 0
4, 57120, Note_on_c, 2, 62, 127
4, 57214, Note_on_c, 2, 62, 0
4, 57216, Note_on_c, 2, 62, 127
4, 57262, Note_on_c, 2, 62, 0
4, 57264, Note_on_c, 2, 60, 127
4, 57310, Note_on_c, 2, 60, 0
4, 57312, Note_on_c, 2, 62, 127
4, 57358, Note_on_c, 2, 62, 0
4, 57360, Note_on_c, 2, 64, 127
4, 57406, Note_on_c, 2, 64, 0
4, 57408, Note_on_c, 2, 65, 127
4, 57454, Note_on_c, 2, 65, 0
4, 57456, Note_on_c, 2, 67, 127
4, 57502, Note_on_c, 2, 67, 0
4, 57504, Note_on_c, 2, 69, 127
4, 57550, Note_on_c, 2, 69, 0
4, 57552, Note_on_c, 2, 69, 127
4, 57790, Note_on_c, 2, 69, 0
4, 57792, Note_on_c, 2, 67, 127
4, 57838, Note_on_c, 2, 67, 0
4, 57840, Note_on_c, 2, 64, 127
4, 57886, Note_on_c, 2, 64, 0
4, 57888, Note_on_c, 2, 67, 127
4, 57934, Note_on_c, 2, 67, 0
4, 57936, Note_on_c, 2, 64, 127
4, 57982, Note_on_c, 2, 64, 0
4, 57984, Note_on_c, 2, 65, 127
4, 58030, Note_on_c, 2, 65, 0
4, 58032, Note_on_c, 2, 62, 127
4, 58222, Note_on_c, 2, 62, 0
4, 58272, Note_on_c, 2, 69, 127
4, 58366, Note_on_c, 2, 69, 0
4, 58560, Note_on_c, 2, 74, 127
4, 58846, Note_on_c, 2, 74, 0
4, 58848, Note_on_c, 2, 74, 127
4, 58894, Note_on_c, 2, 74, 0
4, 58896, Note_on_c, 2, 72, 127
4, 58942, Note_on_c, 2, 72, 0
4, 58944, Note_on_c, 2, 74, 127
4, 59038, Note_on_c, 2, 74, 0
4, 59040, Note_on_c, 2, 76, 127
4, 59086, Note_on_c, 2, 76, 0
4, 59088, Note_on_c, 2, 74, 127
4, 59134, Note_on_c, 2, 74, 0
4, 59136, Note_on_c, 2, 76, 127
4, 59230, Note_on_c, 2, 76, 0
4, 59232, Note_on_c, 2, 77, 127
4, 59278, Note_on_c, 2, 77, 0
4, 59280, Note_on_c, 2, 76, 127
4, 59326, Note_on_c, 2, 76, 0
4, 59328, Note_on_c, 2, 77, 127
4, 59422, Note_on_c, 2, 77, 0
4, 59424, Note_on_c, 2, 79, 127
4, 59470, Note_on_c, 2, 79, 0
4, 59472, Note_on_c, 2, 77, 127
4, 59518, Note_on_c, 2, 77, 0
4, 59520, Note_on_c, 2, 79, 127
4, 59614, Note_on_c, 2, 79, 0
4, 59616, Note_on_c, 2, 81, 127
4, 59662, Note_on_c, 2, 81, 0
4, 59664, Note_on_c, 2, 79, 127
4, 59710, Note_on_c, 2, 79, 0
4, 59712, Note_on_c, 2, 81, 127
4, 60240, Note_on_c, 2, 81, 0
4, 60288, Program_c, 2, 27
4, 60288, Note_on_c, 2, 57, 60
4, 60288, Note_on_c, 2, 60, 60
4, 60288, Note_on_c, 2, 65, 60
4, 60448, Note_on_c, 2, 65, 0
4, 60448, Note_on_c, 2, 60, 0
4, 60448, Note_on_c, 2, 57, 0
4, 60480, Note_on_c, 2, 57, 60
4, 60480, Note_on_c, 2, 60, 60
4, 60480, Note_on_c, 2, 65, 60
4, 60574, Note_on_c, 2, 65, 0
4, 60574, Note_on_c, 2, 60, 0
4, 60574, Note_on_c, 2, 57, 0
4, 60576, Note_on_c, 2, 60, 60
4, 60576, Note_on_c, 2, 64, 60
4, 60576, Note_on_c, 2, 67, 60
4, 60670, Note_on_c, 2, 67, 0
4, 60670, Note_on_c, 2, 64, 0
4, 60670, Note_on_c, 2, 60, 0
4, 60672, Note_on_c, 2, 60, 60
4, 60672, Note_on_c, 2, 65, 60
4, 60672, Note_on_c, 2, 69, 60
4, 60766, Note_on_c, 2, 69, 0
4, 60766, Note_on_c, 2, 65, 0
4, 60766, Note_on_c, 2, 60, 0
4, 60768, Note_on_c, 2, 60, 60
4, 60768, Note_on_c, 2, 65, 60
4, 60768, Note_on_c, 2, 67, 60
4, 60862, Note_on_c, 2, 67, 0
4, 60862, Note_on_c, 2, 65, 0
4, 60862, Note_on_c, 2, 60, 0
4, 60864, Note_on_c, 2, 60, 60
4, 60864, Note_on_c, 2, 64, 60
4, 60864, Note_on_c, 2, 67, 60
4, 60958, Note_on_c, 2, 67, 0
4, 60958, Note_on_c, 2, 64, 0
4, 60958, Note_on_c, 2, 60, 0
4, 60960, Note_on_c, 2, 57, 60
4, 60960, Note_on_c, 2, 62, 60
4, 60960, Note_on_c, 2, 65, 60
4, 61054, Note_on_c, 2, 65, 0
4, 61054, Note_on_c, 2, 62, 0
4, 61054, Note_on_c, 2, 57, 0
4, 61056, Note_on_c, 2, 60, 60
4, 61056, Note_on_c, 2, 64, 60
4, 61056, Note_on_c, 2, 67, 60
4, 61216, Note_on_c, 2, 67, 0
4, 61216, Note_on_c, 2, 64, 0
4, 61216, Note_on_c, 2, 60, 0
4, 61248, Note_on_c, 2, 60, 60
4, 61248, Note_on_c, 2, 64, 60
4, 61248, Note_on_c, 2, 67, 60
4, 61408, Note_on_c, 2, 67, 0
4, 61408, Note_on_c, 2, 64, 0
4, 61408, Note_on_c, 2, 60, 0
4, 61440, Note_on_c, 2, 55, 60
4, 61534, Note_on_c, 2, 55, 0
4, 61536, Note_on_c, 2, 57, 60
4, 61630, Note_on_c, 2, 57, 0
4, 61632, Note_on_c, 2, 60, 60
4, 61726, Note_on_c, 2, 60, 0
4, 61728, Note_on_c, 2, 69, 60
4, 61822, Note_on_c, 2, 69, 0
4, 61824, Note_on_c, 2, 57, 60
4, 61824, Note_on_c, 2, 62, 60
4, 61824, Note_on_c, 2, 65, 60
4, 62160, Note_on_c, 2, 65, 0
4, 62160, Note_on_c, 2, 62, 0
4, 62160, Note_on_c, 2, 57, 0
4, 62208, Note_on_c, 2, 60, 60
4, 62208, Note_on_c, 2, 65, 60
4, 62208, Note_on_c, 2, 69, 60
4, 62368, Note_on_c, 2, 69, 0
4, 62368, Note_on_c, 2, 65, 0
4, 62368, Note_on_c, 2, 60, 0
4, 62400, Note_on_c, 2, 60, 60
4, 62400, Note_on_c, 2, 64, 60
4, 62400, Note_on_c, 2, 69, 60
4, 62494, Note_on_c, 2, 69, 0
4, 62494, Note_on_c, 2, 64, 0
4, 62494, Note_on_c, 2, 60, 0
4, 62496, Note_on_c, 2, 60, 60
4, 62496, Note_on_c, 2, 65, 60
4, 62496, Note_on_c, 2, 69, 60
4, 62590, Note_on_c, 2, 69, 0
4, 62590, Note_on_c, 2, 65, 0
4, 62590, Note_on_c, 2, 60, 0
4, 62592, Note_on_c, 2, 60, 60
4, 62592, Note_on_c, 2, 64, 60
4, 62592, Note_on_c, 2, 67, 60
4, 62928, Note_on_c, 2, 67, 0
4, 62928, Note_on_c, 2, 64, 0
4, 62928, Note_on_c, 2, 60, 0
4, 62976, Note_on_c, 2, 60, 60
4, 62976, Note_on_c, 2, 64, 60
4, 62976, Note_on_c, 2, 69, 60
4, 63136, Note_on_c, 2, 69, 0
4, 63136, Note_on_c, 2, 64, 0
4, 63136, Note_on_c, 2, 60, 0
4, 63168, Note_on_c, 2, 60, 60
4, 63168, Note_on_c, 2, 64, 60
4, 63168, Note_on_c, 2, 67, 60
4, 63328, Note_on_c, 2, 67, 0
4, 63328, Note_on_c, 2, 64, 0
4, 63328, Note_on_c, 2, 60, 0
4, 63360, Note_on_c, 2, 57, 60
4, 63360, Note_on_c, 2, 62, 60
4, 63360, Note_on_c, 2, 65, 60
4, 63520, Note_on_c, 2, 65, 0
4, 63520, Note_on_c, 2, 62, 0
4, 63520, Note_on_c, 2, 57, 0
4, 63552, Note_on_c, 2, 57, 60
4, 63552, Note_on_c, 2, 60, 60
4, 63552, Note_on_c, 2, 65, 60
4, 63646, Note_on_c, 2, 65, 0
4, 63646, Note_on_c, 2, 60, 0
4, 63646, Note_on_c, 2, 57, 0
4, 63648, Note_on_c, 2, 60, 60
4, 63648, Note_on_c, 2, 64, 60
4, 63648, Note_on_c, 2, 67, 60
4, 63742, Note_on_c, 2, 67, 0
4, 63742, Note_on_c, 2, 64, 0
4, 63742, Note_on_c, 2, 60, 0
4, 63744, Note_on_c, 2, 60, 60
4, 63744, Note_on_c, 2, 65, 60
4, 63744, Note_on_c, 2, 69, 60
4, 63838, Note_on_c, 2, 69, 0
4, 63838, Note_on_c, 2, 65, 0
4, 63838, Note_on_c, 2, 60, 0
4, 63840, Note_on_c, 2, 60, 60
4, 63840, Note_on_c, 2, 65, 60
4, 63840, Note_on_c, 2, 67, 60
4, 63934, Note_on_c, 2, 67, 0
4, 63934, Note_on_c, 2, 65, 0
4, 63934, Note_on_c, 2, 60, 0
4, 63936, Note_on_c, 2, 60, 60
4, 63936, Note_on_c, 2, 64, 60
4, 63936, Note_on_c, 2, 67, 60
4, 64030, Note_on_c, 2, 67, 0
4, 64030, Note_on_c, 2, 64, 0
4, 64030, Note_on_c, 2, 60, 0
4, 64032, Note_on_c, 2, 57, 60
4, 64032, Note_on_c, 2, 62, 60
4, 64032, Note_on_c, 2, 65, 60
4, 64126, Note_on_c, 2, 65, 0
4, 64126, Note_on_c, 2, 62, 0
4, 64126, Note_on_c, 2, 57, 0
4, 64128, Note_on_c, 2, 60, 60
4, 64128, Note_on_c, 2, 64, 60
4, 64128, Note_on_c, 2, 67, 60
4, 64288, Note_on_c, 2, 67, 0
4, 64288, Note_on_c, 2, 64, 0
4, 64288, Note_on_c, 2, 60, 0
4, 64320, Note_on_c, 2, 60, 60
4, 64320, Note_on_c, 2, 64, 60
4, 64320, Note_on_c, 2, 67, 60
4, 64656, Note_on_c, 2, 67, 0
4, 64656, Note_on_c, 2, 64, 0
4, 64656, Note_on_c, 2, 60, 0
4, 64896, Note_on_c, 2, 50, 60
4, 64896, Note_on_c, 2, 55, 60
4, 64896, Note_on_c, 2, 59, 60
4, 65056, Note_on_c, 2, 59, 0
4, 65056, Note_on_c, 2, 55, 0
4, 65056, Note_on_c, 2, 50, 0
4, 65088, Note_on_c, 2, 52, 60
4, 65088, Note_on_c, 2, 55, 60
4, 65088, Note_on_c, 2, 60, 60
4, 65616, Note_on_c, 2, 60, 0
4, 65616, Note_on_c, 2, 55, 0
4, 65616, Note_on_c, 2, 52, 0
4, 65664, Program_c, 2, 30
4, 66240, Note_on_c, 2, 69, 127
4, 66286, Note_on_c, 2, 69, 0
4, 66288, Note_on_c, 2, 72, 127
4, 66334, Note_on_c, 2, 72, 0
4, 66336, Note_on_c, 2, 77, 127
4, 66382, Note_on_c, 2, 77, 0
4, 66384, Note_on_c, 2, 72, 127
4, 66430, Note_on_c, 2, 72, 0
4, 66432, Note_on_c, 2, 74, 127
4, 66802, Note_on_c, 2, 74, 0
4, 66804, Note_on_c, 2, 72, 127
4, 66814, Note_on_c, 2, 72, 0
4, 66816, Note_on_c, 2, 74, 127
4, 66976, Note_on_c, 2, 74, 0
4, 67008, Note_on_c, 2, 69, 127
4, 67054, Note_on_c, 2, 69, 0
4, 67056, Note_on_c, 2, 72, 127
4, 67102, Note_on_c, 2, 72, 0
4, 67104, Note_on_c, 2, 77, 127
4, 67150, Note_on_c, 2, 77, 0
4, 67152, Note_on_c, 2, 72, 127
4, 67198, Note_on_c, 2, 72, 0
4, 67200, Note_on_c, 2, 74, 127
4, 67570, Note_on_c, 2, 74, 0
4, 67572, Note_on_c, 2, 72, 127
4, 67582, Note_on_c, 2, 72, 0
4, 67584, Note_on_c, 2, 74, 127
4, 67920, Note_on_c, 2, 74, 0
4, 67968, Note_on_c, 2, 74, 108
4, 68128, Note_on_c, 2, 74, 0
4, 68160, Note_on_c, 2, 74, 108
4, 68254, Note_on_c, 2, 74, 0
4, 68256, Note_on_c, 2, 76, 108
4, 68350, Note_on_c, 2, 76, 0
4, 68352, Note_on_c, 2, 77, 108
4, 68544, Note_on_c, 2, 77, 0
4, 68544, Note_on_c, 2, 76, 108
4, 68638, Note_on_c, 2, 76, 0
4, 68640, Note_on_c, 2, 74, 108
4, 68734, Note_on_c, 2, 74, 0
4, 68736, Note_on_c, 2, 72, 108
4, 68896, Note_on_c, 2, 72, 0
4, 68928, Note_on_c, 2, 72, 108
4, 69456, Note_on_c, 2, 72, 0
4, 69504, Note_on_c, 2, 74, 108
4, 69664, Note_on_c, 2, 74, 0
4, 69696, Note_on_c, 2, 74, 108
4, 69790, Note_on_c, 2, 74, 0
4, 69792, Note_on_c, 2, 76, 108
4, 69886, Note_on_c, 2, 76, 0
4, 69888, Note_on_c, 2, 77, 108
4, 70080, Note_on_c, 2, 77, 0
4, 70080, Note_on_c, 2, 76, 108
4, 70174, Note_on_c, 2, 76, 0
4, 70176, Note_on_c, 2, 74, 108
4, 70270, Note_on_c, 2, 74, 0
4, 70272, Note_on_c, 2, 72, 108
4, 70432, Note_on_c, 2, 72, 0
4, 70464, Note_on_c, 2, 72, 108
4, 70992, Note_on_c, 2, 72, 0
4, 71040, Note_on_c, 2, 74, 108
4, 71200, Note_on_c, 2, 74, 0
4, 71232, Note_on_c, 2, 74, 108
4, 71326, Note_on_c, 2, 74, 0
4, 71328, Note_on_c, 2, 76, 108
4, 71422, Note_on_c, 2, 76, 0
4, 71424, Note_on_c, 2, 77, 108
4, 71616, Note_on_c, 2, 77, 0
4, 71616, Note_on_c, 2, 76, 108
4, 71710, Note_on_c, 2, 76, 0
4, 71712, Note_on_c, 2, 74, 108
4, 71806, Note_on_c, 2, 74, 0
4, 71808, Note_on_c, 2, 72, 108
4, 71968, Note_on_c, 2, 72, 0
4, 72000, Note_on_c, 2, 72, 108
4, 72528, Note_on_c, 2, 72, 0
4, 72576, Note_on_c, 2, 74, 108
4, 72736, Note_on_c, 2, 74, 0
4, 72768, Note_on_c, 2, 74, 108
4, 72862, Note_on_c, 2, 74, 0
4, 72864, Note_on_c, 2, 76, 108
4, 72958, Note_on_c, 2, 76, 0
4, 72960, Note_on_c, 2, 77, 108
4, 73152, Note_on_c, 2, 77, 0
4, 73152, Note_on_c, 2, 76, 108
4, 73246, Note_on_c, 2, 76, 0
4, 73248, Note_on_c, 2, 74, 108
4, 73342, Note_on_c, 2, 74, 0
4, 73344, Note_on_c, 2, 79, 108
4, 73504, Note_on_c, 2, 79, 0
4, 73536, Note_on_c, 2, 79, 108
4, 74064, Note_on_c, 2, 79, 0
4, 74112, Note_on_c, 2, 74, 108
4, 74272, Note_on_c, 2, 74, 0
4, 74304, Note_on_c, 2, 74, 108
4, 74398, Note_on_c, 2, 74, 0
4, 74400, Note_on_c, 2, 76, 108
4, 74494, Note_on_c, 2, 76, 0
4, 74496, Note_on_c, 2, 77, 108
4, 74688, Note_on_c, 2, 77, 0
4, 74688, Note_on_c, 2, 76, 108
4, 74782, Note_on_c, 2, 76, 0
4, 74784, Note_on_c, 2, 74, 108
4, 74878, Note_on_c, 2, 74, 0
4, 74880, Note_on_c, 2, 72, 108
4, 75040, Note_on_c, 2, 72, 0
4, 75072, Note_on_c, 2, 72, 108
4, 75600, Note_on_c, 2, 72, 0
4, 75648, Note_on_c, 2, 74, 108
4, 75808, Note_on_c, 2, 74, 0
4, 75840, Note_on_c, 2, 74, 108
4, 75934, Note_on_c, 2, 74, 0
4, 75936, Note_on_c, 2, 76, 108
4, 76030, Note_on_c, 2, 76, 0
4, 76032, Note_on_c, 2, 77, 108
4, 76224, Note_on_c, 2, 77, 0
4, 76224, Note_on_c, 2, 76, 108
4, 76318, Note_on_c, 2, 76, 0
4, 76320, Note_on_c, 2, 74, 108
4, 76414, Note_on_c, 2, 74, 0
4, 76416, Note_on_c, 2, 72, 108
4, 76576, Note_on_c, 2, 72, 0
4, 76608, Note_on_c, 2, 72, 108
4, 77136, Note_on_c, 2, 72, 0
4, 77184, Note_on_c, 2, 74, 108
4, 77344, Note_on_c, 2, 74, 0
4, 77376, Note_on_c, 2, 74, 108
4, 77470, Note_on_c, 2, 74, 0
4, 77472, Note_on_c, 2, 76, 108
4, 77566, Note_on_c, 2, 76, 0
4, 77568, Note_on_c, 2, 77, 108
4, 77760, Note_on_c, 2, 77, 0
4, 77760, Note_on_c, 2, 76, 108
4, 77854, Note_on_c, 2, 76, 0
4, 77856, Note_on_c, 2, 74, 108
4, 77950, Note_on_c, 2, 74, 0
4, 77952, Note_on_c, 2, 72, 108
4, 78112, Note_on_c, 2, 72, 0
4, 78144, Note_on_c, 2, 72, 108
4, 78672, Note_on_c, 2, 72, 0
4, 78720, Note_on_c, 2, 74, 108
4, 78880, Note_on_c, 2, 74, 0
4, 78912, Note_on_c, 2, 74, 108
4, 79006, Note_on_c, 2, 74, 0
4, 79008, Note_on_c, 2, 76, 108
4, 79102, Note_on_c, 2, 76, 0
4, 79104, Note_on_c, 2, 77, 108
4, 79296, Note_on_c, 2, 77, 0
4, 79296, Note_on_c, 2, 76, 108
4, 79390, Note_on_c, 2, 76, 0
4, 79392, Note_on_c, 2, 74, 108
4, 79486, Note_on_c, 2, 74, 0
4, 79488, Note_on_c, 2, 62, 108
4, 79488, Note_on_c, 2, 65, 108
4, 79488, Note_on_c, 2, 70, 108
4, 79582, Note_on_c, 2, 70, 0
4, 79582, Note_on_c, 2, 65, 0
4, 79582, Note_on_c, 2, 62, 0
4, 79584, Note_on_c, 2, 62, 102
4, 79584, Note_on_c, 2, 65, 102
4, 79584, Note_on_c, 2, 70, 102
4, 79630, Note_on_c, 2, 70, 0
4, 79630, Note_on_c, 2, 65, 0
4, 79630, Note_on_c, 2, 62, 0
4, 79632, Note_on_c, 2, 62, 99
4, 79632, Note_on_c, 2, 65, 99
4, 79632, Note_on_c, 2, 70, 99
4, 79678, Note_on_c, 2, 70, 0
4, 79678, Note_on_c, 2, 65, 0
4, 79678, Note_on_c, 2, 62, 0
4, 79680, Note_on_c, 2, 62, 96
4, 79680, Note_on_c, 2, 65, 96
4, 79680, Note_on_c, 2, 70, 96
4, 79774, Note_on_c, 2, 70, 0
4, 79774, Note_on_c, 2, 65, 0
4, 79774, Note_on_c, 2, 62, 0
4, 79776, Note_on_c, 2, 62, 90
4, 79776, Note_on_c, 2, 65, 90
4, 79776, Note_on_c, 2, 70, 90
4, 79822, Note_on_c, 2, 70, 0
4, 79822, Note_on_c, 2, 65, 0
4, 79822, Note_on_c, 2, 62, 0
4, 79824, Note_on_c, 2, 62, 87
4, 79824, Note_on_c, 2, 65, 87
4, 79824, Note_on_c, 2, 70, 87
4, 79870, Note_on_c, 2, 70, 0
4, 79870, Note_on_c, 2, 65, 0
4, 79870, Note_on_c, 2, 62, 0
4, 79872, Note_on_c, 2, 62, 84
4, 79872, Note_on_c, 2, 65, 84
4, 79872, Note_on_c, 2, 70, 84
4, 79966, Note_on_c, 2, 70, 0
4, 79966, Note_on_c, 2, 65, 0
4, 79966, Note_on_c, 2, 62, 0
4, 79968, Note_on_c, 2, 62, 78
4, 79968, Note_on_c, 2, 65, 78
4, 79968, Note_on_c, 2, 70, 78
4, 80014, Note_on_c, 2, 70, 0
4, 80014, Note_on_c, 2, 65, 0
4, 80014, Note_on_c, 2, 62, 0
4, 80016, Note_on_c, 2, 62, 75
4, 80016, Note_on_c, 2, 65, 75
4, 80016, Note_on_c, 2, 70, 75
4, 80062, Note_on_c, 2, 70, 0
4, 80062, Note_on_c, 2, 65, 0
4, 80062, Note_on_c, 2, 62, 0
4, 80064, Note_on_c, 2, 62, 72
4, 80064, Note_on_c, 2, 65, 72
4, 80064, Note_on_c, 2, 70, 72
4, 80158, Note_on_c, 2, 70, 0
4, 80158, Note_on_c, 2, 65, 0
4, 80158, Note_on_c, 2, 62, 0
4, 80160, Note_on_c, 2, 62, 66
4, 80160, Note_on_c, 2, 65, 66
4, 80160, Note_on_c, 2, 70, 66
4, 80206, Note_on_c, 2, 70, 0
4, 80206, Note_on_c, 2, 65, 0
4, 80206, Note_on_c, 2, 62, 0
4, 80208, Note_on_c, 2, 62, 63
4, 80208, Note_on_c, 2, 65, 63
4, 80208, Note_on_c, 2, 70, 63
4, 80254, Note_on_c, 2, 70, 0
4, 80254, Note_on_c, 2, 65, 0
4, 80254, Note_on_c, 2, 62, 0
4, 80256, Note_on_c, 2, 62, 60
4, 80256, Note_on_c, 2, 65, 60
4, 80256, Note_on_c, 2, 70, 60
4, 80350, Note_on_c, 2, 70, 0
4, 80350, Note_on_c, 2, 65, 0
4, 80350, Note_on_c, 2, 62, 0
4, 80352, Note_on_c, 2, 62, 54
4, 80352, Note_on_c, 2, 65, 54
4, 80352, Note_on_c, 2, 70, 54
4, 80398, Note_on_c, 2, 70, 0
4, 80398, Note_on_c, 2, 65, 0
4, 80398, Note_on_c, 2, 62, 0
4, 80400, Note_on_c, 2, 62, 51
4, 80400, Note_on_c, 2, 65, 51
4, 80400, Note_on_c, 2, 70, 51
4, 80446, Note_on_c, 2, 70, 0
4, 80446, Note_on_c, 2, 65, 0
4, 80446, Note_on_c, 2, 62, 0
4, 80448, Note_on_c, 2, 62, 48
4, 80448, Note_on_c, 2, 65, 48
4, 80448, Note_on_c, 2, 70, 48
4, 80542, Note_on_c, 2, 70, 0
4, 80542, Note_on_c, 2, 65, 0
4, 80542, Note_on_c, 2, 62, 0
4, 80544, Note_on_c, 2, 62, 42
4, 80544, Note_on_c, 2, 65, 42
4, 80544, Note_on_c, 2, 70, 42
4, 80590, Note_on_c, 2, 70, 0
4, 80590, Note_on_c, 2, 65, 0
4, 80590, Note_on_c, 2, 62, 0
4, 80592, Note_on_c, 2, 62, 39
4, 80592, Note_on_c, 2, 65, 39
4, 80592, Note_on_c, 2, 70, 39
4, 80638, Note_on_c, 2, 70, 0
4, 80638, Note_on_c, 2, 65, 0
4, 80638, Note_on_c, 2, 62, 0
4, 80640, Note_on_c, 2, 62, 36
4, 80640, Note_on_c, 2, 65, 36
4, 80640, Note_on_c, 2, 70, 36
4, 80734, Note_on_c, 2, 70, 0
4, 80734, Note_on_c, 2, 65, 0
4, 80734, Note_on_c, 2, 62, 0
4, 80736, Note_on_c, 2, 62, 30
4, 80736, Note_on_c, 2, 65, 30
4, 80736, Note_on_c, 2, 70, 30
4, 80782, Note_on_c, 2, 70, 0
4, 80782, Note_on_c, 2, 65, 0
4, 80782, Note_on_c, 2, 62, 0
4, 80784, Note_on_c, 2, 62, 27
4, 80784, Note_on_c, 2, 65, 27
4, 80784, Note_on_c, 2, 70, 27
4, 80830, Note_on_c, 2, 70, 0
4, 80830, Note_on_c, 2, 65, 0
4, 80830, Note_on_c, 2, 62, 0
4, 80832, Note_on_c, 2, 62, 24
4, 80832, Note_on_c, 2, 65, 24
4, 80832, Note_on_c, 2, 70, 24
4, 80926, Note_on_c, 2, 70, 0
4, 80926, Note_on_c, 2, 65, 0
4, 80926, Note_on_c, 2, 62, 0
4, 80928, Note_on_c, 2, 62, 17
4, 80928, Note_on_c, 2, 65, 17
4, 80928, Note_on_c, 2, 70, 17
4, 80974, Note_on_c, 2, 70, 0
4, 80974, Note_on_c, 2, 65, 0
4, 80974, Note_on_c, 2, 62, 0
4, 80976, Note_on_c, 2, 62, 14
4, 80976, Note_on_c, 2, 65, 14
4, 80976, Note_on_c, 2, 70, 14
4, 81022, Note_on_c, 2, 70, 0
4, 81022, Note_on_c, 2, 65, 0
4, 81022, Note_on_c, 2, 62, 0
4, 81024, Note_on_c, 2, 62, 10
4, 81024, Note_on_c, 2, 65, 10
4, 81024, Note_on_c, 2, 70, 10
4, 81118, Note_on_c, 2, 70, 0
4, 81118, Note_on_c, 2, 65, 0
4, 81118, Note_on_c, 2, 62, 0
4, 81120, Note_on_c, 2, 62, 10
4, 81120, Note_on_c, 2, 65, 10
4, 81120, Note_on_c, 2, 70, 10
4, 81166, Note_on_c, 2, 70, 0
4, 81166, Note_on_c, 2, 65, 0
4, 81166, Note_on_c, 2, 62, 0
4, 81168, Note_on_c, 2, 62, 10
4, 81168, Note_on_c, 2, 65, 10
4, 81168, Note_on_c, 2, 70, 10
4, 81214, Note_on_c, 2, 70, 0
4, 81214, Note_on_c, 2, 65, 0
4, 81214, Note_on_c, 2, 62, 0
4, 81216, Note_on_c, 2, 62, 10
4, 81216, Note_on_c, 2, 65, 10
4, 81216, Note_on_c, 2, 70, 10
4, 81310, Note_on_c, 2, 70, 0
4, 81310, Note_on_c, 2, 65, 0
4, 81310, Note_on_c, 2, 62, 0
4, 81312, Note_on_c, 2, 62, 10
4, 81312, Note_on_c, 2, 65, 10
4, 81312, Note_on_c, 2, 70, 10
4, 81358, Note_on_c, 2, 70, 0
4, 81358, Note_on_c, 2, 65, 0
4, 81358, Note_on_c, 2, 62, 0
4, 81360, Note_on_c, 2, 62, 10
4, 81360, Note_on_c, 2, 65, 10
4, 81360, Note_on_c, 2, 70, 10
4, 81406, Note_on_c, 2, 70, 0
4, 81406, Note_on_c, 2, 65, 0
4, 81406, Note_on_c, 2, 62, 0
4, 81408, Note_on_c, 2, 62, 10
4, 81408, Note_on_c, 2, 65, 10
4, 81408, Note_on_c, 2, 70, 10
4, 81502, Note_on_c, 2, 70, 0
4, 81502, Note_on_c, 2, 65, 0
4, 81502, Note_on_c, 2, 62, 0
4, 81504, Note_on_c, 2, 62, 10
4, 81504, Note_on_c, 2, 65, 10
4, 81504, Note_on_c, 2, 70, 10
4, 81550, Note_on_c, 2, 70, 0
4, 81550, Note_on_c, 2, 65, 0
4, 81550, Note_on_c, 2, 62, 0
4, 81552, Note_on_c, 2, 62, 10
4, 81552, Note_on_c, 2, 65, 10
4, 81552, Note_on_c, 2, 70, 10
4, 81598, Note_on_c, 2, 70, 0
4, 81598, Note_on_c, 2, 65, 0
4, 81598, Note_on_c, 2, 62, 0
4, 81600, Note_on_c, 2, 62, 10
4, 81600, Note_on_c, 2, 65, 10
4, 81600, Note_on_c, 2, 70, 10
4, 81694, Note_on_c, 2, 70, 0
4, 81694, Note_on_c, 2, 65, 0
4, 81694, Note_on_c, 2, 62, 0
4, 81696, Note_on_c, 2, 62, 10
4, 81696, Note_on_c, 2, 65, 10
4, 81696, Note_on_c, 2, 70, 10
4, 81742, Note_on_c, 2, 70, 0
4, 81742, Note_on_c, 2, 65, 0
4, 81742, Note_on_c, 2, 62, 0
4, 81744, Note_on_c, 2, 62, 10
4, 81744, Note_on_c, 2, 65, 10
4, 81744, Note_on_c, 2, 70, 10
4, 81790, Note_on_c, 2, 70, 0
4, 81790, Note_on_c, 2, 65, 0
4, 81790, Note_on_c, 2, 62, 0
4, 81792, Note_on_c, 2, 62, 10
4, 81792, Note_on_c, 2, 65, 10
4, 81792, Note_on_c, 2, 70, 10
4, 81886, Note_on_c, 2, 70, 0
4, 81886, Note_on_c, 2, 65, 0
4, 81886, Note_on_c, 2, 62, 0
4, 81888, Note_on_c, 2, 62, 10
4, 81888, Note_on_c, 2, 65, 10
4, 81888, Note_on_c, 2, 70, 10
4, 81934, Note_on_c, 2, 70, 0
4, 81934, Note_on_c, 2, 65, 0
4, 81934, Note_on_c, 2, 62, 0
4, 81936, Note_on_c, 2, 62, 10
4, 81936, Note_on_c, 2, 65, 10
4, 81936, Note_on_c, 2, 70, 10
4, 81982, Note_on_c, 2, 70, 0
4, 81982, Note_on_c, 2, 65, 0
4, 81982, Note_on_c, 2, 62, 0
4, 81984, Note_on_c, 2, 62, 10
4, 81984, Note_on_c, 2, 65, 10
4, 81984, Note_on_c, 2, 70, 10
4, 82078, Note_on_c, 2, 70, 0
4, 82078, Note_on_c, 2, 65, 0
4, 82078, Note_on_c, 2, 62, 0
4, 82080, Note_on_c, 2, 62, 10
4, 82080, Note_on_c, 2, 65, 10
4, 82080, Note_on_c, 2, 70, 10
4, 82126, Note_on_c, 2, 70, 0
4, 82126, Note_on_c, 2, 65, 0
4, 82126, Note_on_c, 2, 62, 0
4, 82128, Note_on_c, 2, 62, 10
4, 82128, Note_on_c, 2, 65, 10
4, 82128, Note_on_c, 2, 70, 10
4, 82174, Note_on_c, 2, 70, 0
4, 82174, Note_on_c, 2, 65, 0
4, 82174, Note_on_c, 2, 62, 0
4, 82176, Note_on_c, 2, 62, 10
4, 82176, Note_on_c, 2, 65, 10
4, 82176, Note_on_c, 2, 70, 10
4, 82270, Note_on_c, 2, 70, 0
4, 82270, Note_on_c, 2, 65, 0
4, 82270, Note_on_c, 2, 62, 0
4, 82272, Note_on_c, 2, 62, 10
4, 82272, Note_on_c, 2, 65, 10
4, 82272, Note_on_c, 2, 70, 10
4, 82318, Note_on_c, 2, 70, 0
4, 82318, Note_on_c, 2, 65, 0
4, 82318, Note_on_c, 2, 62, 0
4, 82320, Note_on_c, 2, 62, 10
4, 82320, Note_on_c, 2, 65, 10
4, 82320, Note_on_c, 2, 70, 10
4, 82366, Note_on_c, 2, 70, 0
4, 82366, Note_on_c, 2, 65, 0
4, 82366, Note_on_c, 2, 62, 0
4, 82368, Note_on_c, 2, 62, 10
4, 82368, Note_on_c, 2, 65, 10
4, 82368, Note_on_c, 2, 70, 10
4, 82462, Note_on_c, 2, 70, 0
4, 82462, Note_on_c, 2, 65, 0
4, 82462, Note_on_c, 2, 62, 0
4, 82464, Note_on_c, 2, 62, 10
4, 82464, Note_on_c, 2, 65, 10
4, 82464, Note_on_c, 2, 70, 10
4, 82510, Note_on_c, 2, 70, 0
4, 82510, Note_on_c, 2, 65, 0
4, 82510, Note_on_c, 2, 62, 0
4, 82512, Note_on_c, 2, 62, 10
4, 82512, Note_on_c, 2, 65, 10
4, 82512, Note_on_c, 2, 70, 10
4, 82558, Note_on_c, 2, 70, 0
4, 82558, Note_on_c, 2, 65, 0
4, 82558, Note_on_c, 2, 62, 0
4, 82558, End_track
5, 0, Start_track
5, 0, MIDI_port, 0
5, 0, Title_t, "Bass Guitar"
5, 0, Program_c, 3, 34
5, 0, Control_c, 3, 7, 127
5, 0, Control_c, 3, 10, 64
5, 0, Note_on_c, 3, 50, 110
5, 256, Note_on_c, 3, 50, 0
5, 288, Note_on_c, 3, 52, 110
5, 382, Note_on_c, 3, 52, 0
5, 384, Note_on_c, 3, 53, 110
5, 640, Note_on_c, 3, 53, 0
5, 672, Note_on_c, 3, 53, 110
5, 766, Note_on_c, 3, 53, 0
5, 768, Note_on_c, 3, 48, 110
5, 1488, Note_on_c, 3, 48, 0
5, 1536, Note_on_c, 3, 50, 110
5, 1792, Note_on_c, 3, 50, 0
5, 1824, Note_on_c, 3, 52, 110
5, 1918, Note_on_c, 3, 52, 0
5, 1920, Note_on_c, 3, 53, 110
5, 2256, Note_on_c, 3, 53, 0
5, 2304, Note_on_c, 3, 48, 110
5, 3024, Note_on_c, 3, 48, 0
5, 3072, Note_on_c, 3, 50, 110
5, 3328, Note_on_c, 3, 50, 0
5, 3360, Note_on_c, 3, 52, 110
5, 3454, Note_on_c, 3, 52, 0
5, 3456, Note_on_c, 3, 53, 110
5, 3792, Note_on_c, 3, 53, 0
5, 3840, Note_on_c, 3, 48, 110
5, 4560, Note_on_c, 3, 48, 0
5, 4608, Program_c, 3, 34
5, 4608, Note_on_c, 3, 34, 127
5, 4608, Note_on_c, 3, 46, 127
5, 5904, Note_on_c, 3, 46, 0
5, 5904, Note_on_c, 3, 34, 0
5, 5952, Note_on_c, 3, 45, 127
5, 5998, Note_on_c, 3, 45, 0
5, 6000, Note_on_c, 3, 48, 127
5, 6046, Note_on_c, 3, 48, 0
5, 6048, Note_on_c, 3, 53, 127
5, 6142, Note_on_c, 3, 53, 0
5, 6144, Note_on_c, 3, 50, 127
5, 6672, Note_on_c, 3, 50, 0
5, 6720, Note_on_c, 3, 45, 127
5, 6766, Note_on_c, 3, 45, 0
5, 6768, Note_on_c, 3, 48, 127
5, 6814, Note_on_c, 3, 48, 0
5, 6816, Note_on_c, 3, 50, 127
5, 6862, Note_on_c, 3, 50, 0
5, 6864, Note_on_c, 3, 53, 127
5, 6910, Note_on_c, 3, 53, 0
5, 6912, Note_on_c, 3, 50, 127
5, 7440, Note_on_c, 3, 50, 0
5, 7488, Note_on_c, 3, 45, 127
5, 7534, Note_on_c, 3, 45, 0
5, 7536, Note_on_c, 3, 48, 127
5, 7582, Note_on_c, 3, 48, 0
5, 7584, Note_on_c, 3, 53, 127
5, 7678, Note_on_c, 3, 53, 0
5, 7680, Note_on_c, 3, 50, 127
5, 8208, Note_on_c, 3, 50, 0
5, 8256, Note_on_c, 3, 45, 127
5, 8302, Note_on_c, 3, 45, 0
5, 8304, Note_on_c, 3, 48, 127
5, 8350, Note_on_c, 3, 48, 0
5, 8352, Note_on_c, 3, 50, 127
5, 8398, Note_on_c, 3, 50, 0
5, 8400, Note_on_c, 3, 53, 127
5, 8446, Note_on_c, 3, 53, 0
5, 8448, Note_on_c, 3, 50, 127
5, 8976, Note_on_c, 3, 50, 0
5, 9024, Note_on_c, 3, 45, 127
5, 9070, Note_on_c, 3, 45, 0
5, 9072, Note_on_c, 3, 48, 127
5, 9118, Note_on_c, 3, 48, 0
5, 9120, Note_on_c, 3, 50, 127
5, 9166, Note_on_c, 3, 50, 0
5, 9168, Note_on_c, 3, 53, 127
5, 9214, Note_on_c, 3, 53, 0
5, 9216, Note_on_c, 3, 50, 127
5, 9376, Note_on_c, 3, 50, 0
5, 9408, Note_on_c, 3, 50, 127
5, 9568, Note_on_c, 3, 50, 0
5, 9600, Note_on_c, 3, 50, 127
5, 9760, Note_on_c, 3, 50, 0
5, 9792, Note_on_c, 3, 50, 127
5, 9952, Note_on_c, 3, 50, 0
5, 9984, Note_on_c, 3, 50, 127
5, 10144, Note_on_c, 3, 50, 0
5, 10176, Note_on_c, 3, 50, 127
5, 10336, Note_on_c, 3, 50, 0
5, 10368, Note_on_c, 3, 50, 127
5, 10528, Note_on_c, 3, 50, 0
5, 10560, Note_on_c, 3, 45, 127
5, 10606, Note_on_c, 3, 45, 0
5, 10608, Note_on_c, 3, 48, 127
5, 10654, Note_on_c, 3, 48, 0
5, 10656, Note_on_c, 3, 53, 127
5, 10750, Note_on_c, 3, 53, 0
5, 10752, Note_on_c, 3, 50, 127
5, 10912, Note_on_c, 3, 50, 0
5, 10944, Note_on_c, 3, 50, 127
5, 11104, Note_on_c, 3, 50, 0
5, 11136, Note_on_c, 3, 50, 127
5, 11296, Note_on_c, 3, 50, 0
5, 11328, Note_on_c, 3, 50, 127
5, 11488, Note_on_c, 3, 50, 0
5, 11520, Note_on_c, 3, 50, 127
5, 11680, Note_on_c, 3, 50, 0
5, 11712, Note_on_c, 3, 50, 127
5, 11872, Note_on_c, 3, 50, 0
5, 11904, Note_on_c, 3, 50, 127
5, 11998, Note_on_c, 3, 50, 0
5, 12000, Note_on_c, 3, 45, 127
5, 12094, Note_on_c, 3, 45, 0
5, 12096, Note_on_c, 3, 46, 127
5, 12190, Note_on_c, 3, 46, 0
5, 12192, Note_on_c, 3, 47, 127
5, 12286, Note_on_c, 3, 47, 0
5, 12288, Note_on_c, 3, 48, 127
5, 12448, Note_on_c, 3, 48, 0
5, 12480, Note_on_c, 3, 43, 127
5, 12640, Note_on_c, 3, 43, 0
5, 12672, Note_on_c, 3, 48, 127
5, 12832, Note_on_c, 3, 48, 0
5, 12864, Note_on_c, 3, 43, 127
5, 13024, Note_on_c, 3, 43, 0
5, 13056, Note_on_c, 3, 46, 127
5, 13216, Note_on_c, 3, 46, 0
5, 13248, Note_on_c, 3, 41, 127
5, 13408, Note_on_c, 3, 41, 0
5, 13440, Note_on_c, 3, 46, 127
5, 13600, Note_on_c, 3, 46, 0
5, 13632, Note_on_c, 3, 48, 127
5, 13792, Note_on_c, 3, 48, 0
5, 13824, Note_on_c, 3, 50, 127
5, 13984, Note_on_c, 3, 50, 0
5, 14016, Note_on_c, 3, 45, 127
5, 14176, Note_on_c, 3, 45, 0
5, 14208, Note_on_c, 3, 50, 127
5, 14368, Note_on_c, 3, 50, 0
5, 14400, Note_on_c, 3, 45, 127
5, 14446, Note_on_c, 3, 45, 0
5, 14448, Note_on_c, 3, 48, 127
5, 14494, Note_on_c, 3, 48, 0
5, 14496, Note_on_c, 3, 50, 127
5, 14542, Note_on_c, 3, 50, 0
5, 14544, Note_on_c, 3, 53, 127
5, 14590, Note_on_c, 3, 53, 0
5, 14592, Note_on_c, 3, 50, 127
5, 14752, Note_on_c, 3, 50, 0
5, 14784, Note_on_c, 3, 50, 127
5, 14944, Note_on_c, 3, 50, 0
5, 14976, Note_on_c, 3, 50, 127
5, 15136, Note_on_c, 3, 50, 0
5, 15168, Note_on_c, 3, 45, 127
5, 15214, Note_on_c, 3, 45, 0
5, 15216, Note_on_c, 3, 48, 127
5, 15262, Note_on_c, 3, 48, 0
5, 15264, Note_on_c, 3, 53, 127
5, 15358, Note_on_c, 3, 53, 0
5, 15360, Note_on_c, 3, 50, 127
5, 15520, Note_on_c, 3, 50, 0
5, 15552, Note_on_c, 3, 50, 127
5, 15712, Note_on_c, 3, 50, 0
5, 15744, Note_on_c, 3, 50, 127
5, 15904, Note_on_c, 3, 50, 0
5, 15936, Note_on_c, 3, 50, 127
5, 16096, Note_on_c, 3, 50, 0
5, 16128, Note_on_c, 3, 50, 127
5, 16288, Note_on_c, 3, 50, 0
5, 16320, Note_on_c, 3, 50, 127
5, 16480, Note_on_c, 3, 50, 0
5, 16512, Note_on_c, 3, 50, 127
5, 16672, Note_on_c, 3, 50, 0
5, 16704, Note_on_c, 3, 45, 127
5, 16750, Note_on_c, 3, 45, 0
5, 16752, Note_on_c, 3, 48, 127
5, 16798, Note_on_c, 3, 48, 0
5, 16800, Note_on_c, 3, 53, 127
5, 16894, Note_on_c, 3, 53, 0
5, 16896, Note_on_c, 3, 50, 127
5, 17056, Note_on_c, 3, 50, 0
5, 17088, Note_on_c, 3, 50, 127
5, 17248, Note_on_c, 3, 50, 0
5, 17280, Note_on_c, 3, 50, 127
5, 17440, Note_on_c, 3, 50, 0
5, 17472, Note_on_c, 3, 50, 127
5, 17632, Note_on_c, 3, 50, 0
5, 17664, Note_on_c, 3, 50, 127
5, 17824, Note_on_c, 3, 50, 0
5, 17856, Note_on_c, 3, 50, 127
5, 18016, Note_on_c, 3, 50, 0
5, 18048, Note_on_c, 3, 50, 127
5, 18142, Note_on_c, 3, 50, 0
5, 18144, Note_on_c, 3, 45, 127
5, 18238, Note_on_c, 3, 45, 0
5, 18240, Note_on_c, 3, 46, 127
5, 18334, Note_on_c, 3, 46, 0
5, 18336, Note_on_c, 3, 47, 127
5, 18430, Note_on_c, 3, 47, 0
5, 18432, Note_on_c, 3, 48, 127
5, 18592, Note_on_c, 3, 48, 0
5, 18624, Note_on_c, 3, 43, 127
5, 18784, Note_on_c, 3, 43, 0
5, 18816, Note_on_c, 3, 48, 127
5, 18976, Note_on_c, 3, 48, 0
5, 19008, Note_on_c, 3, 43, 127
5, 19168, Note_on_c, 3, 43, 0
5, 19200, Note_on_c, 3, 46, 127
5, 19360, Note_on_c, 3, 46, 0
5, 19392, Note_on_c, 3, 41, 127
5, 19552, Note_on_c, 3, 41, 0
5, 19584, Note_on_c, 3, 46, 127
5, 19744, Note_on_c, 3, 46, 0
5, 19776, Note_on_c, 3, 45, 127
5, 19936, Note_on_c, 3, 45, 0
5, 19968, Note_on_c, 3, 50, 127
5, 20128, Note_on_c, 3, 50, 0
5, 20160, Note_on_c, 3, 45, 127
5, 20320, Note_on_c, 3, 45, 0
5, 20352, Note_on_c, 3, 50, 127
5, 20512, Note_on_c, 3, 50, 0
5, 20544, Note_on_c, 3, 45, 127
5, 20590, Note_on_c, 3, 45, 0
5, 20592, Note_on_c, 3, 48, 127
5, 20638, Note_on_c, 3, 48, 0
5, 20640, Note_on_c, 3, 50, 127
5, 20686, Note_on_c, 3, 50, 0
5, 20688, Note_on_c, 3, 53, 127
5, 20734, Note_on_c, 3, 53, 0
5, 20736, Note_on_c, 3, 50, 127
5, 20896, Note_on_c, 3, 50, 0
5, 20928, Note_on_c, 3, 45, 127
5, 21088, Note_on_c, 3, 45, 0
5, 21120, Note_on_c, 3, 50, 127
5, 21280, Note_on_c, 3, 50, 0
5, 21312, Note_on_c, 3, 45, 127
5, 21406, Note_on_c, 3, 45, 0
5, 21408, Note_on_c, 3, 48, 127
5, 21502, Note_on_c, 3, 48, 0
5, 21504, Note_on_c, 3, 50, 127
5, 21664, Note_on_c, 3, 50, 0
5, 21696, Note_on_c, 3, 50, 127
5, 21790, Note_on_c, 3, 50, 0
5, 21792, Note_on_c, 3, 52, 127
5, 21886, Note_on_c, 3, 52, 0
5, 21888, Note_on_c, 3, 53, 127
5, 22048, Note_on_c, 3, 53, 0
5, 22080, Note_on_c, 3, 52, 127
5, 22174, Note_on_c, 3, 52, 0
5, 22176, Note_on_c, 3, 50, 127
5, 22270, Note_on_c, 3, 50, 0
5, 22272, Note_on_c, 3, 48, 127
5, 22432, Note_on_c, 3, 48, 0
5, 22464, Note_on_c, 3, 48, 127
5, 22624, Note_on_c, 3, 48, 0
5, 22656, Note_on_c, 3, 43, 127
5, 22750, Note_on_c, 3, 43, 0
5, 22752, Note_on_c, 3, 45, 127
5, 22846, Note_on_c, 3, 45, 0
5, 22848, Note_on_c, 3, 48, 127
5, 23008, Note_on_c, 3, 48, 0
5, 23040, Note_on_c, 3, 50, 127
5, 23264, Note_on_c, 3, 50, 0
5, 23296, Note_on_c, 3, 50, 127
5, 23358, Note_on_c, 3, 50, 0
5, 23360, Note_on_c, 3, 52, 127
5, 23422, Note_on_c, 3, 52, 0
5, 23424, Note_on_c, 3, 53, 127
5, 23584, Note_on_c, 3, 53, 0
5, 23616, Note_on_c, 3, 52, 127
5, 23710, Note_on_c, 3, 52, 0
5, 23712, Note_on_c, 3, 50, 127
5, 23806, Note_on_c, 3, 50, 0
5, 23808, Note_on_c, 3, 48, 127
5, 23968, Note_on_c, 3, 48, 0
5, 24000, Note_on_c, 3, 48, 127
5, 24160, Note_on_c, 3, 48, 0
5, 24192, Note_on_c, 3, 43, 127
5, 24286, Note_on_c, 3, 43, 0
5, 24288, Note_on_c, 3, 45, 127
5, 24382, Note_on_c, 3, 45, 0
5, 24384, Note_on_c, 3, 48, 127
5, 24544, Note_on_c, 3, 48, 0
5, 24576, Note_on_c, 3, 50, 127
5, 24736, Note_on_c, 3, 50, 0
5, 24768, Note_on_c, 3, 50, 127
5, 24862, Note_on_c, 3, 50, 0
5, 24864, Note_on_c, 3, 52, 127
5, 24958, Note_on_c, 3, 52, 0
5, 24960, Note_on_c, 3, 53, 127
5, 25120, Note_on_c, 3, 53, 0
5, 25152, Note_on_c, 3, 52, 127
5, 25246, Note_on_c, 3, 52, 0
5, 25248, Note_on_c, 3, 50, 127
5, 25342, Note_on_c, 3, 50, 0
5, 25344, Note_on_c, 3, 48, 127
5, 25504, Note_on_c, 3, 48, 0
5, 25536, Note_on_c, 3, 48, 127
5, 25696, Note_on_c, 3, 48, 0
5, 25728, Note_on_c, 3, 43, 127
5, 25822, Note_on_c, 3, 43, 0
5, 25824, Note_on_c, 3, 45, 127
5, 25918, Note_on_c, 3, 45, 0
5, 25920, Note_on_c, 3, 48, 127
5, 26080, Note_on_c, 3, 48, 0
5, 26112, Note_on_c, 3, 47, 127
5, 26272, Note_on_c, 3, 47, 0
5, 26304, Note_on_c, 3, 48, 127
5, 26832, Note_on_c, 3, 48, 0
5, 26880, Note_on_c, 3, 46, 127
5, 27408, Note_on_c, 3, 46, 0
5, 27456, Note_on_c, 3, 45, 127
5, 27502, Note_on_c, 3, 45, 0
5, 27504, Note_on_c, 3, 48, 127
5, 27550, Note_on_c, 3, 48, 0
5, 27552, Note_on_c, 3, 53, 127
5, 27646, Note_on_c, 3, 53, 0
5, 27648, Note_on_c, 3, 50, 127
5, 27808, Note_on_c, 3, 50, 0
5, 27840, Note_on_c, 3, 50, 127
5, 28000, Note_on_c, 3, 50, 0
5, 28032, Note_on_c, 3, 50, 127
5, 28192, Note_on_c, 3, 50, 0
5, 28224, Note_on_c, 3, 45, 127
5, 28270, Note_on_c, 3, 45, 0
5, 28272, Note_on_c, 3, 48, 127
5, 28318, Note_on_c, 3, 48, 0
5, 28320, Note_on_c, 3, 50, 127
5, 28366, Note_on_c, 3, 50, 0
5, 28368, Note_on_c, 3, 53, 127
5, 28414, Note_on_c, 3, 53, 0
5, 28416, Note_on_c, 3, 50, 127
5, 28576, Note_on_c, 3, 50, 0
5, 28608, Note_on_c, 3, 50, 127
5, 28768, Note_on_c, 3, 50, 0
5, 28800, Note_on_c, 3, 50, 127
5, 28960, Note_on_c, 3, 50, 0
5, 28992, Note_on_c, 3, 45, 127
5, 29038, Note_on_c, 3, 45, 0
5, 29040, Note_on_c, 3, 48, 127
5, 29086, Note_on_c, 3, 48, 0
5, 29088, Note_on_c, 3, 53, 127
5, 29182, Note_on_c, 3, 53, 0
5, 29184, Note_on_c, 3, 50, 127
5, 29344, Note_on_c, 3, 50, 0
5, 29376, Note_on_c, 3, 50, 127
5, 29536, Note_on_c, 3, 50, 0
5, 29568, Note_on_c, 3, 50, 127
5, 29728, Note_on_c, 3, 50, 0
5, 29760, Note_on_c, 3, 50, 127
5, 29920, Note_on_c, 3, 50, 0
5, 29952, Note_on_c, 3, 50, 127
5, 30112, Note_on_c, 3, 50, 0
5, 30144, Note_on_c, 3, 50, 127
5, 30304, Note_on_c, 3, 50, 0
5, 30336, Note_on_c, 3, 50, 127
5, 30496, Note_on_c, 3, 50, 0
5, 30528, Note_on_c, 3, 45, 127
5, 30574, Note_on_c, 3, 45, 0
5, 30576, Note_on_c, 3, 48, 127
5, 30622, Note_on_c, 3, 48, 0
5, 30624, Note_on_c, 3, 53, 127
5, 30718, Note_on_c, 3, 53, 0
5, 30720, Note_on_c, 3, 50, 127
5, 30880, Note_on_c, 3, 50, 0
5, 30912, Note_on_c, 3, 50, 127
5, 31072, Note_on_c, 3, 50, 0
5, 31104, Note_on_c, 3, 50, 127
5, 31264, Note_on_c, 3, 50, 0
5, 31296, Note_on_c, 3, 50, 127
5, 31456, Note_on_c, 3, 50, 0
5, 31488, Note_on_c, 3, 50, 127
5, 31648, Note_on_c, 3, 50, 0
5, 31680, Note_on_c, 3, 50, 127
5, 31840, Note_on_c, 3, 50, 0
5, 31872, Note_on_c, 3, 50, 127
5, 31966, Note_on_c, 3, 50, 0
5, 31968, Note_on_c, 3, 45, 127
5, 32062, Note_on_c, 3, 45, 0
5, 32064, Note_on_c, 3, 46, 127
5, 32158, Note_on_c, 3, 46, 0
5, 32160, Note_on_c, 3, 47, 127
5, 32254, Note_on_c, 3, 47, 0
5, 32256, Note_on_c, 3, 48, 127
5, 32416, Note_on_c, 3, 48, 0
5, 32448, Note_on_c, 3, 43, 127
5, 32608, Note_on_c, 3, 43, 0
5, 32640, Note_on_c, 3, 48, 127
5, 32800, Note_on_c, 3, 48, 0
5, 32832, Note_on_c, 3, 43, 127
5, 32992, Note_on_c, 3, 43, 0
5, 33024, Note_on_c, 3, 46, 127
5, 33184, Note_on_c, 3, 46, 0
5, 33216, Note_on_c, 3, 41, 127
5, 33376, Note_on_c, 3, 41, 0
5, 33408, Note_on_c, 3, 46, 127
5, 33568, Note_on_c, 3, 46, 0
5, 33600, Note_on_c, 3, 48, 127
5, 33760, Note_on_c, 3, 48, 0
5, 33792, Note_on_c, 3, 50, 127
5, 33952, Note_on_c, 3, 50, 0
5, 33984, Note_on_c, 3, 45, 127
5, 34144, Note_on_c, 3, 45, 0
5, 34176, Note_on_c, 3, 50, 127
5, 34336, Note_on_c, 3, 50, 0
5, 34368, Note_on_c, 3, 45, 127
5, 34414, Note_on_c, 3, 45, 0
5, 34416, Note_on_c, 3, 48, 127
5, 34462, Note_on_c, 3, 48, 0
5, 34464, Note_on_c, 3, 50, 127
5, 34510, Note_on_c, 3, 50, 0
5, 34512, Note_on_c, 3, 53, 127
5, 34558, Note_on_c, 3, 53, 0
5, 34560, Note_on_c, 3, 50, 127
5, 34720, Note_on_c, 3, 50, 0
5, 34752, Note_on_c, 3, 50, 127
5, 34912, Note_on_c, 3, 50, 0
5, 34944, Note_on_c, 3, 50, 127
5, 35104, Note_on_c, 3, 50, 0
5, 35136, Note_on_c, 3, 45, 127
5, 35182, Note_on_c, 3, 45, 0
5, 35184, Note_on_c, 3, 48, 127
5, 35230, Note_on_c, 3, 48, 0
5, 35232, Note_on_c, 3, 53, 127
5, 35326, Note_on_c, 3, 53, 0
5, 35328, Note_on_c, 3, 50, 127
5, 35488, Note_on_c, 3, 50, 0
5, 35520, Note_on_c, 3, 50, 127
5, 35680, Note_on_c, 3, 50, 0
5, 35712, Note_on_c, 3, 50, 127
5, 35872, Note_on_c, 3, 50, 0
5, 35904, Note_on_c, 3, 50, 127
5, 36064, Note_on_c, 3, 50, 0
5, 36096, Note_on_c, 3, 50, 127
5, 36256, Note_on_c, 3, 50, 0
5, 36288, Note_on_c, 3, 50, 127
5, 36448, Note_on_c, 3, 50, 0
5, 36480, Note_on_c, 3, 50, 127
5, 36640, Note_on_c, 3, 50, 0
5, 36672, Note_on_c, 3, 45, 127
5, 36718, Note_on_c, 3, 45, 0
5, 36720, Note_on_c, 3, 48, 127
5, 36766, Note_on_c, 3, 48, 0
5, 36768, Note_on_c, 3, 53, 127
5, 36862, Note_on_c, 3, 53, 0
5, 36864, Note_on_c, 3, 50, 127
5, 37024, Note_on_c, 3, 50, 0
5, 37056, Note_on_c, 3, 50, 127
5, 37216, Note_on_c, 3, 50, 0
5, 37248, Note_on_c, 3, 50, 127
5, 37408, Note_on_c, 3, 50, 0
5, 37440, Note_on_c, 3, 50, 127
5, 37600, Note_on_c, 3, 50, 0
5, 37632, Note_on_c, 3, 50, 127
5, 37792, Note_on_c, 3, 50, 0
5, 37824, Note_on_c, 3, 50, 127
5, 37984, Note_on_c, 3, 50, 0
5, 38016, Note_on_c, 3, 50, 127
5, 38110, Note_on_c, 3, 50, 0
5, 38112, Note_on_c, 3, 45, 127
5, 38206, Note_on_c, 3, 45, 0
5, 38208, Note_on_c, 3, 46, 127
5, 38302, Note_on_c, 3, 46, 0
5, 38304, Note_on_c, 3, 47, 127
5, 38398, Note_on_c, 3, 47, 0
5, 38400, Note_on_c, 3, 48, 127
5, 38560, Note_on_c, 3, 48, 0
5, 38592, Note_on_c, 3, 43, 127
5, 38752, Note_on_c, 3, 43, 0
5, 38784, Note_on_c, 3, 48, 127
5, 38944, Note_on_c, 3, 48, 0
5, 38976, Note_on_c, 3, 43, 127
5, 39136, Note_on_c, 3, 43, 0
5, 39168, Note_on_c, 3, 46, 127
5, 39328, Note_on_c, 3, 46, 0
5, 39360, Note_on_c, 3, 41, 127
5, 39520, Note_on_c, 3, 41, 0
5, 39552, Note_on_c, 3, 46, 127
5, 39712, Note_on_c, 3, 46, 0
5, 39744, Note_on_c, 3, 45, 127
5, 39904, Note_on_c, 3, 45, 0
5, 39936, Note_on_c, 3, 50, 127
5, 40096, Note_on_c, 3, 50, 0
5, 40128, Note_on_c, 3, 45, 127
5, 40288, Note_on_c, 3, 45, 0
5, 40320, Note_on_c, 3, 50, 127
5, 40480, Note_on_c, 3, 50, 0
5, 40512, Note_on_c, 3, 45, 127
5, 40558, Note_on_c, 3, 45, 0
5, 40560, Note_on_c, 3, 48, 127
5, 40606, Note_on_c, 3, 48, 0
5, 40608, Note_on_c, 3, 50, 127
5, 40654, Note_on_c, 3, 50, 0
5, 40656, Note_on_c, 3, 53, 127
5, 40702, Note_on_c, 3, 53, 0
5, 40704, Note_on_c, 3, 50, 127
5, 40864, Note_on_c, 3, 50, 0
5, 40896, Note_on_c, 3, 45, 127
5, 41056, Note_on_c, 3, 45, 0
5, 41088, Note_on_c, 3, 50, 127
5, 41248, Note_on_c, 3, 50, 0
5, 41280, Note_on_c, 3, 45, 127
5, 41374, Note_on_c, 3, 45, 0
5, 41376, Note_on_c, 3, 48, 127
5, 41470, Note_on_c, 3, 48, 0
5, 41472, Note_on_c, 3, 50, 127
5, 41632, Note_on_c, 3, 50, 0
5, 41664, Note_on_c, 3, 50, 127
5, 41758, Note_on_c, 3, 50, 0
5, 41760, Note_on_c, 3, 52, 127
5, 41854, Note_on_c, 3, 52, 0
5, 41856, Note_on_c, 3, 53, 127
5, 42016, Note_on_c, 3, 53, 0
5, 42048, Note_on_c, 3, 52, 127
5, 42142, Note_on_c, 3, 52, 0
5, 42144, Note_on_c, 3, 50, 127
5, 42238, Note_on_c, 3, 50, 0
5, 42240, Note_on_c, 3, 48, 127
5, 42400, Note_on_c, 3, 48, 0
5, 42432, Note_on_c, 3, 48, 127
5, 42592, Note_on_c, 3, 48, 0
5, 42624, Note_on_c, 3, 43, 127
5, 42718, Note_on_c, 3, 43, 0
5, 42720, Note_on_c, 3, 45, 127
5, 42814, Note_on_c, 3, 45, 0
5, 42816, Note_on_c, 3, 48, 127
5, 42976, Note_on_c, 3, 48, 0
5, 43008, Note_on_c, 3, 50, 127
5, 43232, Note_on_c, 3, 50, 0
5, 43264, Note_on_c, 3, 50, 127
5, 43326, Note_on_c, 3, 50, 0
5, 43328, Note_on_c, 3, 52, 127
5, 43390, Note_on_c, 3, 52, 0
5, 43392, Note_on_c, 3, 53, 127
5, 43552, Note_on_c, 3, 53, 0
5, 43584, Note_on_c, 3, 52, 127
5, 43678, Note_on_c, 3, 52, 0
5, 43680, Note_on_c, 3, 50, 127
5, 43774, Note_on_c, 3, 50, 0
5, 43776, Note_on_c, 3, 48, 127
5, 43936, Note_on_c, 3, 48, 0
5, 43968, Note_on_c, 3, 48, 127
5, 44128, Note_on_c, 3, 48, 0
5, 44160, Note_on_c, 3, 43, 127
5, 44254, Note_on_c, 3, 43, 0
5, 44256, Note_on_c, 3, 45, 127
5, 44350, Note_on_c, 3, 45, 0
5, 44352, Note_on_c, 3, 48, 127
5, 44512, Note_on_c, 3, 48, 0
5, 44544, Note_on_c, 3, 50, 127
5, 44704, Note_on_c, 3, 50, 0
5, 44736, Note_on_c, 3, 50, 127
5, 44830, Note_on_c, 3, 50, 0
5, 44832, Note_on_c, 3, 52, 127
5, 44926, Note_on_c, 3, 52, 0
5, 44928, Note_on_c, 3, 53, 127
5, 45088, Note_on_c, 3, 53, 0
5, 45120, Note_on_c, 3, 52, 127
5, 45214, Note_on_c, 3, 52, 0
5, 45216, Note_on_c, 3, 50, 127
5, 45310, Note_on_c, 3, 50, 0
5, 45312, Note_on_c, 3, 48, 127
5, 45472, Note_on_c, 3, 48, 0
5, 45504, Note_on_c, 3, 48, 127
5, 45664, Note_on_c, 3, 48, 0
5, 45696, Note_on_c, 3, 43, 127
5, 45790, Note_on_c, 3, 43, 0
5, 45792, Note_on_c, 3, 45, 127
5, 45886, Note_on_c, 3, 45, 0
5, 45888, Note_on_c, 3, 48, 127
5, 46048, Note_on_c, 3, 48, 0
5, 46080, Note_on_c, 3, 47, 127
5, 46240, Note_on_c, 3, 47, 0
5, 46272, Note_on_c, 3, 48, 127
5, 46800, Note_on_c, 3, 48, 0
5, 46848, Note_on_c, 3, 46, 127
5, 47376, Note_on_c, 3, 46, 0
5, 47424, Note_on_c, 3, 45, 127
5, 47470, Note_on_c, 3, 45, 0
5, 47472, Note_on_c, 3, 48, 127
5, 47518, Note_on_c, 3, 48, 0
5, 47520, Note_on_c, 3, 53, 127
5, 47614, Note_on_c, 3, 53, 0
5, 47616, Note_on_c, 3, 47, 127
5, 47776, Note_on_c, 3, 47, 0
5, 47808, Note_on_c, 3, 48, 127
5, 48336, Note_on_c, 3, 48, 0
5, 48384, Note_on_c, 3, 46, 127
5, 48544, Note_on_c, 3, 46, 0
5, 48576, Note_on_c, 3, 46, 127
5, 48638, Note_on_c, 3, 46, 0
5, 48640, Note_on_c, 3, 46, 127
5, 48702, Note_on_c, 3, 46, 0
5, 48704, Note_on_c, 3, 46, 127
5, 48766, Note_on_c, 3, 46, 0
5, 49344, Note_on_c, 3, 45, 127
5, 49504, Note_on_c, 3, 45, 0
5, 49536, Note_on_c, 3, 38, 92
5, 49696, Note_on_c, 3, 38, 0
5, 49728, Note_on_c, 3, 38, 92
5, 49888, Note_on_c, 3, 38, 0
5, 49920, Note_on_c, 3, 38, 92
5, 50080, Note_on_c, 3, 38, 0
5, 50112, Note_on_c, 3, 38, 92
5, 50272, Note_on_c, 3, 38, 0
5, 50304, Note_on_c, 3, 38, 92
5, 50464, Note_on_c, 3, 38, 0
5, 50496, Note_on_c, 3, 38, 92
5, 50656, Note_on_c, 3, 38, 0
5, 50688, Note_on_c, 3, 38, 92
5, 50848, Note_on_c, 3, 38, 0
5, 50880, Note_on_c, 3, 38, 92
5, 51040, Note_on_c, 3, 38, 0
5, 51072, Note_on_c, 3, 38, 92
5, 51232, Note_on_c, 3, 38, 0
5, 51264, Note_on_c, 3, 38, 92
5, 51424, Note_on_c, 3, 38, 0
5, 51456, Note_on_c, 3, 31, 92
5, 51550, Note_on_c, 3, 31, 0
5, 51552, Note_on_c, 3, 33, 92
5, 51646, Note_on_c, 3, 33, 0
5, 51648, Note_on_c, 3, 36, 92
5, 51742, Note_on_c, 3, 36, 0
5, 51744, Note_on_c, 3, 38, 92
5, 51838, Note_on_c, 3, 38, 0
5, 51840, Note_on_c, 3, 36, 92
5, 52000, Note_on_c, 3, 36, 0
5, 52032, Note_on_c, 3, 36, 92
5, 52192, Note_on_c, 3, 36, 0
5, 52224, Note_on_c, 3, 31, 92
5, 52384, Note_on_c, 3, 31, 0
5, 52416, Note_on_c, 3, 33, 92
5, 52510, Note_on_c, 3, 33, 0
5, 52512, Note_on_c, 3, 36, 92
5, 52606, Note_on_c, 3, 36, 0
5, 52608, Note_on_c, 3, 38, 92
5, 52768, Note_on_c, 3, 38, 0
5, 52800, Note_on_c, 3, 38, 92
5, 52960, Note_on_c, 3, 38, 0
5, 52992, Note_on_c, 3, 31, 92
5, 53086, Note_on_c, 3, 31, 0
5, 53088, Note_on_c, 3, 33, 92
5, 53182, Note_on_c, 3, 33, 0
5, 53184, Note_on_c, 3, 36, 92
5, 53278, Note_on_c, 3, 36, 0
5, 53280, Note_on_c, 3, 38, 92
5, 53374, Note_on_c, 3, 38, 0
5, 53376, Note_on_c, 3, 36, 92
5, 53536, Note_on_c, 3, 36, 0
5, 53568, Note_on_c, 3, 36, 92
5, 53728, Note_on_c, 3, 36, 0
5, 53760, Note_on_c, 3, 31, 92
5, 53920, Note_on_c, 3, 31, 0
5, 53952, Note_on_c, 3, 33, 92
5, 54046, Note_on_c, 3, 33, 0
5, 54048, Note_on_c, 3, 36, 92
5, 54142, Note_on_c, 3, 36, 0
5, 54144, Note_on_c, 3, 38, 92
5, 54304, Note_on_c, 3, 38, 0
5, 54336, Note_on_c, 3, 38, 92
5, 54496, Note_on_c, 3, 38, 0
5, 54528, Note_on_c, 3, 31, 92
5, 54622, Note_on_c, 3, 31, 0
5, 54624, Note_on_c, 3, 33, 92
5, 54718, Note_on_c, 3, 33, 0
5, 54720, Note_on_c, 3, 36, 92
5, 54814, Note_on_c, 3, 36, 0
5, 54816, Note_on_c, 3, 38, 92
5, 54910, Note_on_c, 3, 38, 0
5, 54912, Note_on_c, 3, 36, 92
5, 55072, Note_on_c, 3, 36, 0
5, 55104, Note_on_c, 3, 36, 92
5, 55264, Note_on_c, 3, 36, 0
5, 55296, Note_on_c, 3, 31, 92
5, 55456, Note_on_c, 3, 31, 0
5, 55488, Note_on_c, 3, 33, 92
5, 55582, Note_on_c, 3, 33, 0
5, 55584, Note_on_c, 3, 36, 92
5, 55678, Note_on_c, 3, 36, 0
5, 55680, Note_on_c, 3, 34, 92
5, 55840, Note_on_c, 3, 34, 0
5, 55872, Note_on_c, 3, 29, 92
5, 56032, Note_on_c, 3, 29, 0
5, 56064, Note_on_c, 3, 34, 92
5, 56224, Note_on_c, 3, 34, 0
5, 56256, Note_on_c, 3, 36, 92
5, 56416, Note_on_c, 3, 36, 0
5, 56448, Note_on_c, 3, 38, 92
5, 56608, Note_on_c, 3, 38, 0
5, 56640, Note_on_c, 3, 33, 92
5, 56800, Note_on_c, 3, 33, 0
5, 56832, Note_on_c, 3, 38, 92
5, 56992, Note_on_c, 3, 38, 0
5, 57024, Note_on_c, 3, 36, 92
5, 57184, Note_on_c, 3, 36, 0
5, 57216, Note_on_c, 3, 34, 92
5, 57376, Note_on_c, 3, 34, 0
5, 57408, Note_on_c, 3, 29, 92
5, 57568, Note_on_c, 3, 29, 0
5, 57600, Note_on_c, 3, 34, 92
5, 57760, Note_on_c, 3, 34, 0
5, 57792, Note_on_c, 3, 36, 92
5, 57952, Note_on_c, 3, 36, 0
5, 57984, Note_on_c, 3, 38, 92
5, 58144, Note_on_c, 3, 38, 0
5, 58176, Note_on_c, 3, 34, 92
5, 58336, Note_on_c, 3, 34, 0
5, 58368, Note_on_c, 3, 38, 92
5, 58528, Note_on_c, 3, 38, 0
5, 58800, Note_on_c, 3, 38, 108
5, 58832, Note_on_c, 3, 38, 0
5, 58896, Note_on_c, 3, 36, 108
5, 58928, Note_on_c, 3, 36, 0
5, 58944, Note_on_c, 3, 34, 108
5, 60240, Note_on_c, 3, 34, 0
5, 60288, Note_on_c, 3, 38, 108
5, 60448, Note_on_c, 3, 38, 0
5, 60480, Note_on_c, 3, 38, 108
5, 60574, Note_on_c, 3, 38, 0
5, 60576, Note_on_c, 3, 40, 108
5, 60670, Note_on_c, 3, 40, 0
5, 60672, Note_on_c, 3, 41, 108
5, 60832, Note_on_c, 3, 41, 0
5, 60864, Note_on_c, 3, 40, 108
5, 60958, Note_on_c, 3, 40, 0
5, 60960, Note_on_c, 3, 38, 108
5, 61054, Note_on_c, 3, 38, 0
5, 61056, Note_on_c, 3, 36, 108
5, 61216, Note_on_c, 3, 36, 0
5, 61248, Note_on_c, 3, 36, 108
5, 61408, Note_on_c, 3, 36, 0
5, 61440, Note_on_c, 3, 31, 108
5, 61534, Note_on_c, 3, 31, 0
5, 61536, Note_on_c, 3, 33, 108
5, 61630, Note_on_c, 3, 33, 0
5, 61632, Note_on_c, 3, 36, 108
5, 61792, Note_on_c, 3, 36, 0
5, 61824, Note_on_c, 3, 38, 108
5, 62048, Note_on_c, 3, 38, 0
5, 62080, Note_on_c, 3, 38, 108
5, 62142, Note_on_c, 3, 38, 0
5, 62144, Note_on_c, 3, 40, 108
5, 62206, Note_on_c, 3, 40, 0
5, 62208, Note_on_c, 3, 41, 108
5, 62368, Note_on_c, 3, 41, 0
5, 62400, Note_on_c, 3, 40, 108
5, 62494, Note_on_c, 3, 40, 0
5, 62496, Note_on_c, 3, 38, 108
5, 62590, Note_on_c, 3, 38, 0
5, 62592, Note_on_c, 3, 36, 108
5, 62752, Note_on_c, 3, 36, 0
5, 62784, Note_on_c, 3, 36, 108
5, 62944, Note_on_c, 3, 36, 0
5, 62976, Note_on_c, 3, 31, 108
5, 63070, Note_on_c, 3, 31, 0
5, 63072, Note_on_c, 3, 33, 108
5, 63166, Note_on_c, 3, 33, 0
5, 63168, Note_on_c, 3, 36, 108
5, 63328, Note_on_c, 3, 36, 0
5, 63360, Note_on_c, 3, 38, 108
5, 63520, Note_on_c, 3, 38, 0
5, 63552, Note_on_c, 3, 38, 108
5, 63646, Note_on_c, 3, 38, 0
5, 63648, Note_on_c, 3, 40, 108
5, 63742, Note_on_c, 3, 40, 0
5, 63744, Note_on_c, 3, 41, 108
5, 63904, Note_on_c, 3, 41, 0
5, 63936, Note_on_c, 3, 40, 108
5, 64030, Note_on_c, 3, 40, 0
5, 64032, Note_on_c, 3, 38, 108
5, 64126, Note_on_c, 3, 38, 0
5, 64128, Note_on_c, 3, 36, 108
5, 64288, Note_on_c, 3, 36, 0
5, 64320, Note_on_c, 3, 36, 108
5, 64480, Note_on_c, 3, 36, 0
5, 64512, Note_on_c, 3, 31, 108
5, 64606, Note_on_c, 3, 31, 0
5, 64608, Note_on_c, 3, 33, 108
5, 64702, Note_on_c, 3, 33, 0
5, 64704, Note_on_c, 3, 36, 108
5, 64864, Note_on_c, 3, 36, 0
5, 64896, Note_on_c, 3, 35, 108
5, 65056, Note_on_c, 3, 35, 0
5, 65088, Note_on_c, 3, 36, 108
5, 65616, Note_on_c, 3, 36, 0
5, 65664, Note_on_c, 3, 34, 108
5, 66192, Note_on_c, 3, 34, 0
5, 66240, Note_on_c, 3, 33, 108
5, 66286, Note_on_c, 3, 33, 0
5, 66288, Note_on_c, 3, 36, 108
5, 66334, Note_on_c, 3, 36, 0
5, 66336, Note_on_c, 3, 41, 108
5, 66430, Note_on_c, 3, 41, 0
5, 66432, Note_on_c, 3, 38, 108
5, 66592, Note_on_c, 3, 38, 0
5, 66624, Note_on_c, 3, 38, 108
5, 66784, Note_on_c, 3, 38, 0
5, 66816, Note_on_c, 3, 38, 108
5, 66976, Note_on_c, 3, 38, 0
5, 67008, Note_on_c, 3, 33, 108
5, 67054, Note_on_c, 3, 33, 0
5, 67056, Note_on_c, 3, 38, 108
5, 67102, Note_on_c, 3, 38, 0
5, 67104, Note_on_c, 3, 40, 108
5, 67150, Note_on_c, 3, 40, 0
5, 67152, Note_on_c, 3, 43, 108
5, 67198, Note_on_c, 3, 43, 0
5, 67200, Note_on_c, 3, 38, 108
5, 67360, Note_on_c, 3, 38, 0
5, 67392, Note_on_c, 3, 38, 108
5, 67552, Note_on_c, 3, 38, 0
5, 67584, Note_on_c, 3, 38, 108
5, 67744, Note_on_c, 3, 38, 0
5, 67776, Note_on_c, 3, 33, 108
5, 67822, Note_on_c, 3, 33, 0
5, 67824, Note_on_c, 3, 36, 108
5, 67870, Note_on_c, 3, 36, 0
5, 67872, Note_on_c, 3, 41, 108
5, 67966, Note_on_c, 3, 41, 0
5, 67968, Note_on_c, 3, 38, 108
5, 68128, Note_on_c, 3, 38, 0
5, 68160, Note_on_c, 3, 38, 108
5, 68254, Note_on_c, 3, 38, 0
5, 68256, Note_on_c, 3, 40, 108
5, 68350, Note_on_c, 3, 40, 0
5, 68352, Note_on_c, 3, 41, 108
5, 68512, Note_on_c, 3, 41, 0
5, 68544, Note_on_c, 3, 40, 108
5, 68638, Note_on_c, 3, 40, 0
5, 68640, Note_on_c, 3, 38, 108
5, 68734, Note_on_c, 3, 38, 0
5, 68736, Note_on_c, 3, 36, 108
5, 68896, Note_on_c, 3, 36, 0
5, 68928, Note_on_c, 3, 36, 108
5, 69088, Note_on_c, 3, 36, 0
5, 69120, Note_on_c, 3, 31, 108
5, 69214, Note_on_c, 3, 31, 0
5, 69216, Note_on_c, 3, 33, 108
5, 69310, Note_on_c, 3, 33, 0
5, 69312, Note_on_c, 3, 36, 108
5, 69472, Note_on_c, 3, 36, 0
5, 69504, Note_on_c, 3, 38, 108
5, 69664, Note_on_c, 3, 38, 0
5, 69696, Note_on_c, 3, 38, 108
5, 69790, Note_on_c, 3, 38, 0
5, 69792, Note_on_c, 3, 40, 108
5, 69886, Note_on_c, 3, 40, 0
5, 69888, Note_on_c, 3, 41, 108
5, 70048, Note_on_c, 3, 41, 0
5, 70080, Note_on_c, 3, 40, 108
5, 70174, Note_on_c, 3, 40, 0
5, 70176, Note_on_c, 3, 38, 108
5, 70270, Note_on_c, 3, 38, 0
5, 70272, Note_on_c, 3, 36, 108
5, 70432, Note_on_c, 3, 36, 0
5, 70464, Note_on_c, 3, 36, 108
5, 70624, Note_on_c, 3, 36, 0
5, 70656, Note_on_c, 3, 31, 108
5, 70750, Note_on_c, 3, 31, 0
5, 70752, Note_on_c, 3, 33, 108
5, 70846, Note_on_c, 3, 33, 0
5, 70848, Note_on_c, 3, 36, 108
5, 71008, Note_on_c, 3, 36, 0
5, 71040, Note_on_c, 3, 38, 108
5, 71200, Note_on_c, 3, 38, 0
5, 71232, Note_on_c, 3, 38, 108
5, 71326, Note_on_c, 3, 38, 0
5, 71328, Note_on_c, 3, 40, 108
5, 71422, Note_on_c, 3, 40, 0
5, 71424, Note_on_c, 3, 41, 108
5, 71584, Note_on_c, 3, 41, 0
5, 71616, Note_on_c, 3, 40, 108
5, 71710, Note_on_c, 3, 40, 0
5, 71712, Note_on_c, 3, 38, 108
5, 71806, Note_on_c, 3, 38, 0
5, 71808, Note_on_c, 3, 36, 108
5, 71968, Note_on_c, 3, 36, 0
5, 72000, Note_on_c, 3, 36, 108
5, 72160, Note_on_c, 3, 36, 0
5, 72192, Note_on_c, 3, 31, 108
5, 72286, Note_on_c, 3, 31, 0
5, 72288, Note_on_c, 3, 33, 108
5, 72382, Note_on_c, 3, 33, 0
5, 72384, Note_on_c, 3, 36, 108
5, 72544, Note_on_c, 3, 36, 0
5, 72576, Note_on_c, 3, 38, 108
5, 72736, Note_on_c, 3, 38, 0
5, 72768, Note_on_c, 3, 38, 108
5, 72862, Note_on_c, 3, 38, 0
5, 72864, Note_on_c, 3, 40, 108
5, 72958, Note_on_c, 3, 40, 0
5, 72960, Note_on_c, 3, 41, 108
5, 73120, Note_on_c, 3, 41, 0
5, 73152, Note_on_c, 3, 40, 108
5, 73246, Note_on_c, 3, 40, 0
5, 73248, Note_on_c, 3, 38, 108
5, 73342, Note_on_c, 3, 38, 0
5, 73344, Note_on_c, 3, 36, 108
5, 73504, Note_on_c, 3, 36, 0
5, 73536, Note_on_c, 3, 36, 108
5, 73696, Note_on_c, 3, 36, 0
5, 73728, Note_on_c, 3, 31, 108
5, 73822, Note_on_c, 3, 31, 0
5, 73824, Note_on_c, 3, 33, 108
5, 73918, Note_on_c, 3, 33, 0
5, 73920, Note_on_c, 3, 36, 108
5, 74080, Note_on_c, 3, 36, 0
5, 74112, Note_on_c, 3, 38, 108
5, 74272, Note_on_c, 3, 38, 0
5, 74304, Note_on_c, 3, 38, 108
5, 74398, Note_on_c, 3, 38, 0
5, 74400, Note_on_c, 3, 40, 108
5, 74494, Note_on_c, 3, 40, 0
5, 74496, Note_on_c, 3, 41, 108
5, 74656, Note_on_c, 3, 41, 0
5, 74688, Note_on_c, 3, 40, 108
5, 74782, Note_on_c, 3, 40, 0
5, 74784, Note_on_c, 3, 38, 108
5, 74878, Note_on_c, 3, 38, 0
5, 74880, Note_on_c, 3, 36, 108
5, 75040, Note_on_c, 3, 36, 0
5, 75072, Note_on_c, 3, 36, 108
5, 75232, Note_on_c, 3, 36, 0
5, 75264, Note_on_c, 3, 31, 108
5, 75358, Note_on_c, 3, 31, 0
5, 75360, Note_on_c, 3, 33, 108
5, 75454, Note_on_c, 3, 33, 0
5, 75456, Note_on_c, 3, 36, 108
5, 75616, Note_on_c, 3, 36, 0
5, 75648, Note_on_c, 3, 38, 108
5, 75808, Note_on_c, 3, 38, 0
5, 75840, Note_on_c, 3, 38, 108
5, 75934, Note_on_c, 3, 38, 0
5, 75936, Note_on_c, 3, 40, 108
5, 76030, Note_on_c, 3, 40, 0
5, 76032, Note_on_c, 3, 41, 108
5, 76192, Note_on_c, 3, 41, 0
5, 76224, Note_on_c, 3, 40, 108
5, 76318, Note_on_c, 3, 40, 0
5, 76320, Note_on_c, 3, 38, 108
5, 76414, Note_on_c, 3, 38, 0
5, 76416, Note_on_c, 3, 36, 108
5, 76576, Note_on_c, 3, 36, 0
5, 76608, Note_on_c, 3, 36, 108
5, 76768, Note_on_c, 3, 36, 0
5, 76800, Note_on_c, 3, 31, 108
5, 76894, Note_on_c, 3, 31, 0
5, 76896, Note_on_c, 3, 33, 108
5, 76990, Note_on_c, 3, 33, 0
5, 76992, Note_on_c, 3, 36, 108
5, 77152, Note_on_c, 3, 36, 0
5, 77184, Note_on_c, 3, 38, 108
5, 77344, Note_on_c, 3, 38, 0
5, 77376, Note_on_c, 3, 38, 108
5, 77470, Note_on_c, 3, 38, 0
5, 77472, Note_on_c, 3, 40, 108
5, 77566, Note_on_c, 3, 40, 0
5, 77568, Note_on_c, 3, 41, 108
5, 77728, Note_on_c, 3, 41, 0
5, 77760, Note_on_c, 3, 40, 108
5, 77854, Note_on_c, 3, 40, 0
5, 77856, Note_on_c, 3, 38, 108
5, 77950, Note_on_c, 3, 38, 0
5, 77952, Note_on_c, 3, 36, 108
5, 78112, Note_on_c, 3, 36, 0
5, 78144, Note_on_c, 3, 36, 108
5, 78304, Note_on_c, 3, 36, 0
5, 78336, Note_on_c, 3, 31, 108
5, 78430, Note_on_c, 3, 31, 0
5, 78432, Note_on_c, 3, 33, 108
5, 78526, Note_on_c, 3, 33, 0
5, 78528, Note_on_c, 3, 36, 108
5, 78688, Note_on_c, 3, 36, 0
5, 78720, Note_on_c, 3, 38, 108
5, 78880, Note_on_c, 3, 38, 0
5, 78912, Note_on_c, 3, 38, 108
5, 79006, Note_on_c, 3, 38, 0
5, 79008, Note_on_c, 3, 40, 108
5, 79102, Note_on_c, 3, 40, 0
5, 79104, Note_on_c, 3, 41, 108
5, 79264, Note_on_c, 3, 41, 0
5, 79296, Note_on_c, 3, 40, 108
5, 79390, Note_on_c, 3, 40, 0
5, 79392, Note_on_c, 3, 38, 108
5, 79486, Note_on_c, 3, 38, 0
5, 79488, Note_on_c, 3, 22, 108
5, 79488, Note_on_c, 3, 34, 108
5, 79582, Note_on_c, 3, 34, 0
5, 79582, Note_on_c, 3, 22, 0
5, 79584, Note_on_c, 3, 22, 102
5, 79584, Note_on_c, 3, 34, 102
5, 79678, Note_on_c, 3, 34, 0
5, 79678, Note_on_c, 3, 22, 0
5, 79680, Note_on_c, 3, 22, 96
5, 79680, Note_on_c, 3, 34, 96
5, 79774, Note_on_c, 3, 34, 0
5, 79774, Note_on_c, 3, 22, 0
5, 79776, Note_on_c, 3, 22, 90
5, 79776, Note_on_c, 3, 34, 90
5, 79870, Note_on_c, 3, 34, 0
5, 79870, Note_on_c, 3, 22, 0
5, 79872, Note_on_c, 3, 22, 84
5, 79872, Note_on_c, 3, 34, 84
5, 79966, Note_on_c, 3, 34, 0
5, 79966, Note_on_c, 3, 22, 0
5, 79968, Note_on_c, 3, 22, 78
5, 79968, Note_on_c, 3, 34, 78
5, 80062, Note_on_c, 3, 34, 0
5, 80062, Note_on_c, 3, 22, 0
5, 80064, Note_on_c, 3, 22, 72
5, 80064, Note_on_c, 3, 34, 72
5, 80158, Note_on_c, 3, 34, 0
5, 80158, Note_on_c, 3, 22, 0
5, 80160, Note_on_c, 3, 22, 66
5, 80160, Note_on_c, 3, 34, 66
5, 80254, Note_on_c, 3, 34, 0
5, 80254, Note_on_c, 3, 22, 0
5, 80256, Note_on_c, 3, 22, 60
5, 80256, Note_on_c, 3, 34, 60
5, 80350, Note_on_c, 3, 34, 0
5, 80350, Note_on_c, 3, 22, 0
5, 80352, Note_on_c, 3, 22, 54
5, 80352, Note_on_c, 3, 34, 54
5, 80446, Note_on_c, 3, 34, 0
5, 80446, Note_on_c, 3, 22, 0
5, 80448, Note_on_c, 3, 22, 48
5, 80448, Note_on_c, 3, 34, 48
5, 80542, Note_on_c, 3, 34, 0
5, 80542, Note_on_c, 3, 22, 0
5, 80544, Note_on_c, 3, 22, 42
5, 80544, Note_on_c, 3, 34, 42
5, 80638, Note_on_c, 3, 34, 0
5, 80638, Note_on_c, 3, 22, 0
5, 80640, Note_on_c, 3, 22, 36
5, 80640, Note_on_c, 3, 34, 36
5, 80734, Note_on_c, 3, 34, 0
5, 80734, Note_on_c, 3, 22, 0
5, 80736, Note_on_c, 3, 22, 30
5, 80736, Note_on_c, 3, 34, 30
5, 80830, Note_on_c, 3, 34, 0
5, 80830, Note_on_c, 3, 22, 0
5, 80832, Note_on_c, 3, 22, 24
5, 80832, Note_on_c, 3, 34, 24
5, 80926, Note_on_c, 3, 34, 0
5, 80926, Note_on_c, 3, 22, 0
5, 80928, Note_on_c, 3, 22, 17
5, 80928, Note_on_c, 3, 34, 17
5, 81022, Note_on_c, 3, 34, 0
5, 81022, Note_on_c, 3, 22, 0
5, 81024, Note_on_c, 3, 22, 10
5, 81024, Note_on_c, 3, 34, 10
5, 81118, Note_on_c, 3, 34, 0
5, 81118, Note_on_c, 3, 22, 0
5, 81120, Note_on_c, 3, 22, 10
5, 81120, Note_on_c, 3, 34, 10
5, 81214, Note_on_c, 3, 34, 0
5, 81214, Note_on_c, 3, 22, 0
5, 81216, Note_on_c, 3, 22, 10
5, 81216, Note_on_c, 3, 34, 10
5, 81310, Note_on_c, 3, 34, 0
5, 81310, Note_on_c, 3, 22, 0
5, 81312, Note_on_c, 3, 22, 10
5, 81312, Note_on_c, 3, 34, 10
5, 81406, Note_on_c, 3, 34, 0
5, 81406, Note_on_c, 3, 22, 0
5, 81408, Note_on_c, 3, 22, 10
5, 81408, Note_on_c, 3, 34, 10
5, 81502, Note_on_c, 3, 34, 0
5, 81502, Note_on_c, 3, 22, 0
5, 81504, Note_on_c, 3, 22, 10
5, 81504, Note_on_c, 3, 34, 10
5, 81598, Note_on_c, 3, 34, 0
5, 81598, Note_on_c, 3, 22, 0
5, 81600, Note_on_c, 3, 22, 10
5, 81600, Note_on_c, 3, 34, 10
5, 81694, Note_on_c, 3, 34, 0
5, 81694, Note_on_c, 3, 22, 0
5, 81696, Note_on_c, 3, 22, 10
5, 81696, Note_on_c, 3, 34, 10
5, 81790, Note_on_c, 3, 34, 0
5, 81790, Note_on_c, 3, 22, 0
5, 81792, Note_on_c, 3, 22, 10
5, 81792, Note_on_c, 3, 34, 10
5, 81886, Note_on_c, 3, 34, 0
5, 81886, Note_on_c, 3, 22, 0
5, 81888, Note_on_c, 3, 22, 10
5, 81888, Note_on_c, 3, 34, 10
5, 81982, Note_on_c, 3, 34, 0
5, 81982, Note_on_c, 3, 22, 0
5, 81984, Note_on_c, 3, 22, 10
5, 81984, Note_on_c, 3, 34, 10
5, 82078, Note_on_c, 3, 34, 0
5, 82078, Note_on_c, 3, 22, 0
5, 82080, Note_on_c, 3, 22, 10
5, 82080, Note_on_c, 3, 34, 10
5, 82174, Note_on_c, 3, 34, 0
5, 82174, Note_on_c, 3, 22, 0
5, 82176, Note_on_c, 3, 22, 10
5, 82176, Note_on_c, 3, 34, 10
5, 82270, Note_on_c, 3, 34, 0
5, 82270, Note_on_c, 3, 22, 0
5, 82272, Note_on_c, 3, 22, 10
5, 82272, Note_on_c, 3, 34, 10
5, 82366, Note_on_c, 3, 34, 0
5, 82366, Note_on_c, 3, 22, 0
5, 82368, Note_on_c, 3, 22, 10
5, 82368, Note_on_c, 3, 34, 10
5, 82462, Note_on_c, 3, 34, 0
5, 82462, Note_on_c, 3, 22, 0
5, 82464, Note_on_c, 3, 22, 10
5, 82464, Note_on_c, 3, 34, 10
5, 82558, Note_on_c, 3, 34, 0
5, 82558, Note_on_c, 3, 22, 0
5, 82558, End_track
6, 0, Start_track
6, 0, MIDI_port, 0
6, 0, Title_t, "Hi-Hat"
6, 0, Control_c, 9, 7, 127
6, 0, Control_c, 9, 10, 64
6, 4608, Note_on_c, 9, 57, 127
6, 5328, Note_on_c, 9, 57, 0
6, 5376, Note_on_c, 9, 42, 75
6, 5536, Note_on_c, 9, 42, 0
6, 5568, Note_on_c, 9, 42, 75
6, 5728, Note_on_c, 9, 42, 0
6, 5760, Note_on_c, 9, 42, 75
6, 5920, Note_on_c, 9, 42, 0
6, 5952, Note_on_c, 9, 42, 75
6, 6112, Note_on_c, 9, 42, 0
6, 6144, Note_on_c, 9, 42, 75
6, 6304, Note_on_c, 9, 42, 0
6, 6336, Note_on_c, 9, 42, 75
6, 6496, Note_on_c, 9, 42, 0
6, 6528, Note_on_c, 9, 42, 75
6, 6688, Note_on_c, 9, 42, 0
6, 6720, Note_on_c, 9, 42, 75
6, 6880, Note_on_c, 9, 42, 0
6, 6912, Note_on_c, 9, 42, 75
6, 7072, Note_on_c, 9, 42, 0
6, 7104, Note_on_c, 9, 42, 75
6, 7264, Note_on_c, 9, 42, 0
6, 7296, Note_on_c, 9, 42, 75
6, 7456, Note_on_c, 9, 42, 0
6, 7488, Note_on_c, 9, 42, 75
6, 7648, Note_on_c, 9, 42, 0
6, 7680, Note_on_c, 9, 42, 75
6, 7840, Note_on_c, 9, 42, 0
6, 7872, Note_on_c, 9, 42, 75
6, 8032, Note_on_c, 9, 42, 0
6, 8064, Note_on_c, 9, 42, 75
6, 8224, Note_on_c, 9, 42, 0
6, 8256, Note_on_c, 9, 42, 75
6, 8416, Note_on_c, 9, 42, 0
6, 8448, Note_on_c, 9, 42, 75
6, 8608, Note_on_c, 9, 42, 0
6, 8640, Note_on_c, 9, 42, 75
6, 8800, Note_on_c, 9, 42, 0
6, 8832, Note_on_c, 9, 42, 75
6, 8992, Note_on_c, 9, 42, 0
6, 9024, Note_on_c, 9, 42, 75
6, 9184, Note_on_c, 9, 42, 0
6, 9216, Note_on_c, 9, 42, 75
6, 9310, Note_on_c, 9, 42, 0
6, 9312, Note_on_c, 9, 42, 75
6, 9406, Note_on_c, 9, 42, 0
6, 9408, Note_on_c, 9, 42, 75
6, 9502, Note_on_c, 9, 42, 0
6, 9504, Note_on_c, 9, 42, 75
6, 9598, Note_on_c, 9, 42, 0
6, 9600, Note_on_c, 9, 42, 75
6, 9694, Note_on_c, 9, 42, 0
6, 9696, Note_on_c, 9, 42, 75
6, 9790, Note_on_c, 9, 42, 0
6, 9792, Note_on_c, 9, 42, 75
6, 9886, Note_on_c, 9, 42, 0
6, 9888, Note_on_c, 9, 42, 75
6, 9982, Note_on_c, 9, 42, 0
6, 9984, Note_on_c, 9, 42, 75
6, 10078, Note_on_c, 9, 42, 0
6, 10080, Note_on_c, 9, 42, 75
6, 10174, Note_on_c, 9, 42, 0
6, 10176, Note_on_c, 9, 42, 75
6, 10270, Note_on_c, 9, 42, 0
6, 10272, Note_on_c, 9, 42, 75
6, 10366, Note_on_c, 9, 42, 0
6, 10368, Note_on_c, 9, 42, 75
6, 10462, Note_on_c, 9, 42, 0
6, 10464, Note_on_c, 9, 42, 75
6, 10558, Note_on_c, 9, 42, 0
6, 10560, Note_on_c, 9, 42, 75
6, 10654, Note_on_c, 9, 42, 0
6, 10656, Note_on_c, 9, 42, 75
6, 10750, Note_on_c, 9, 42, 0
6, 10752, Note_on_c, 9, 42, 75
6, 10846, Note_on_c, 9, 42, 0
6, 10848, Note_on_c, 9, 42, 75
6, 10942, Note_on_c, 9, 42, 0
6, 10944, Note_on_c, 9, 42, 75
6, 11038, Note_on_c, 9, 42, 0
6, 11040, Note_on_c, 9, 42, 75
6, 11134, Note_on_c, 9, 42, 0
6, 11136, Note_on_c, 9, 42, 75
6, 11230, Note_on_c, 9, 42, 0
6, 11232, Note_on_c, 9, 42, 75
6, 11326, Note_on_c, 9, 42, 0
6, 11328, Note_on_c, 9, 42, 75
6, 11422, Note_on_c, 9, 42, 0
6, 11424, Note_on_c, 9, 42, 75
6, 11518, Note_on_c, 9, 42, 0
6, 11520, Note_on_c, 9, 42, 75
6, 11614, Note_on_c, 9, 42, 0
6, 11616, Note_on_c, 9, 42, 75
6, 11710, Note_on_c, 9, 42, 0
6, 11712, Note_on_c, 9, 42, 75
6, 11806, Note_on_c, 9, 42, 0
6, 11808, Note_on_c, 9, 42, 75
6, 11902, Note_on_c, 9, 42, 0
6, 11904, Note_on_c, 9, 42, 75
6, 11998, Note_on_c, 9, 42, 0
6, 12000, Note_on_c, 9, 42, 75
6, 12094, Note_on_c, 9, 42, 0
6, 12096, Note_on_c, 9, 42, 75
6, 12190, Note_on_c, 9, 42, 0
6, 12192, Note_on_c, 9, 42, 75
6, 12286, Note_on_c, 9, 42, 0
6, 12288, Note_on_c, 9, 42, 75
6, 12288, Note_on_c, 9, 57, 75
6, 12382, Note_on_c, 9, 57, 0
6, 12382, Note_on_c, 9, 42, 0
6, 12384, Note_on_c, 9, 42, 75
6, 12478, Note_on_c, 9, 42, 0
6, 12480, Note_on_c, 9, 42, 75
6, 12574, Note_on_c, 9, 42, 0
6, 12576, Note_on_c, 9, 42, 75
6, 12670, Note_on_c, 9, 42, 0
6, 12672, Note_on_c, 9, 42, 75
6, 12766, Note_on_c, 9, 42, 0
6, 12768, Note_on_c, 9, 42, 75
6, 12862, Note_on_c, 9, 42, 0
6, 12864, Note_on_c, 9, 42, 75
6, 12958, Note_on_c, 9, 42, 0
6, 12960, Note_on_c, 9, 42, 75
6, 13054, Note_on_c, 9, 42, 0
6, 13056, Note_on_c, 9, 42, 75
6, 13150, Note_on_c, 9, 42, 0
6, 13152, Note_on_c, 9, 42, 75
6, 13246, Note_on_c, 9, 42, 0
6, 13248, Note_on_c, 9, 42, 75
6, 13342, Note_on_c, 9, 42, 0
6, 13344, Note_on_c, 9, 42, 75
6, 13438, Note_on_c, 9, 42, 0
6, 13440, Note_on_c, 9, 42, 75
6, 13534, Note_on_c, 9, 42, 0
6, 13536, Note_on_c, 9, 42, 75
6, 13630, Note_on_c, 9, 42, 0
6, 13632, Note_on_c, 9, 42, 75
6, 13726, Note_on_c, 9, 42, 0
6, 13728, Note_on_c, 9, 42, 75
6, 13822, Note_on_c, 9, 42, 0
6, 13824, Note_on_c, 9, 42, 75
6, 13918, Note_on_c, 9, 42, 0
6, 13920, Note_on_c, 9, 42, 75
6, 14014, Note_on_c, 9, 42, 0
6, 14016, Note_on_c, 9, 42, 75
6, 14110, Note_on_c, 9, 42, 0
6, 14112, Note_on_c, 9, 42, 75
6, 14206, Note_on_c, 9, 42, 0
6, 14208, Note_on_c, 9, 42, 75
6, 14302, Note_on_c, 9, 42, 0
6, 14304, Note_on_c, 9, 42, 75
6, 14398, Note_on_c, 9, 42, 0
6, 14400, Note_on_c, 9, 42, 75
6, 14494, Note_on_c, 9, 42, 0
6, 14496, Note_on_c, 9, 42, 75
6, 14590, Note_on_c, 9, 42, 0
6, 14592, Note_on_c, 9, 42, 75
6, 14686, Note_on_c, 9, 42, 0
6, 14688, Note_on_c, 9, 42, 75
6, 14782, Note_on_c, 9, 42, 0
6, 14784, Note_on_c, 9, 42, 75
6, 14878, Note_on_c, 9, 42, 0
6, 14880, Note_on_c, 9, 42, 75
6, 14974, Note_on_c, 9, 42, 0
6, 14976, Note_on_c, 9, 42, 75
6, 15070, Note_on_c, 9, 42, 0
6, 15072, Note_on_c, 9, 42, 75
6, 15166, Note_on_c, 9, 42, 0
6, 15168, Note_on_c, 9, 42, 75
6, 15262, Note_on_c, 9, 42, 0
6, 15264, Note_on_c, 9, 42, 75
6, 15358, Note_on_c, 9, 42, 0
6, 15360, Note_on_c, 9, 42, 75
6, 15454, Note_on_c, 9, 42, 0
6, 15456, Note_on_c, 9, 42, 75
6, 15550, Note_on_c, 9, 42, 0
6, 15552, Note_on_c, 9, 42, 75
6, 15646, Note_on_c, 9, 42, 0
6, 15648, Note_on_c, 9, 42, 75
6, 15742, Note_on_c, 9, 42, 0
6, 15744, Note_on_c, 9, 42, 75
6, 15838, Note_on_c, 9, 42, 0
6, 15840, Note_on_c, 9, 42, 75
6, 15934, Note_on_c, 9, 42, 0
6, 15936, Note_on_c, 9, 42, 75
6, 16030, Note_on_c, 9, 42, 0
6, 16032, Note_on_c, 9, 42, 75
6, 16126, Note_on_c, 9, 42, 0
6, 16128, Note_on_c, 9, 42, 75
6, 16222, Note_on_c, 9, 42, 0
6, 16224, Note_on_c, 9, 42, 75
6, 16318, Note_on_c, 9, 42, 0
6, 16320, Note_on_c, 9, 42, 75
6, 16414, Note_on_c, 9, 42, 0
6, 16416, Note_on_c, 9, 42, 75
6, 16510, Note_on_c, 9, 42, 0
6, 16512, Note_on_c, 9, 42, 75
6, 16606, Note_on_c, 9, 42, 0
6, 16608, Note_on_c, 9, 42, 75
6, 16702, Note_on_c, 9, 42, 0
6, 16704, Note_on_c, 9, 42, 75
6, 16798, Note_on_c, 9, 42, 0
6, 16800, Note_on_c, 9, 42, 75
6, 16894, Note_on_c, 9, 42, 0
6, 16896, Note_on_c, 9, 42, 75
6, 16990, Note_on_c, 9, 42, 0
6, 16992, Note_on_c, 9, 42, 75
6, 17086, Note_on_c, 9, 42, 0
6, 17088, Note_on_c, 9, 42, 75
6, 17182, Note_on_c, 9, 42, 0
6, 17184, Note_on_c, 9, 42, 75
6, 17278, Note_on_c, 9, 42, 0
6, 17280, Note_on_c, 9, 42, 75
6, 17374, Note_on_c, 9, 42, 0
6, 17376, Note_on_c, 9, 42, 75
6, 17470, Note_on_c, 9, 42, 0
6, 17472, Note_on_c, 9, 42, 75
6, 17566, Note_on_c, 9, 42, 0
6, 17568, Note_on_c, 9, 42, 75
6, 17662, Note_on_c, 9, 42, 0
6, 17664, Note_on_c, 9, 42, 75
6, 17758, Note_on_c, 9, 42, 0
6, 17760, Note_on_c, 9, 42, 75
6, 17854, Note_on_c, 9, 42, 0
6, 17856, Note_on_c, 9, 42, 75
6, 17950, Note_on_c, 9, 42, 0
6, 17952, Note_on_c, 9, 42, 75
6, 18046, Note_on_c, 9, 42, 0
6, 18048, Note_on_c, 9, 42, 75
6, 18142, Note_on_c, 9, 42, 0
6, 18144, Note_on_c, 9, 42, 75
6, 18238, Note_on_c, 9, 42, 0
6, 18240, Note_on_c, 9, 42, 75
6, 18334, Note_on_c, 9, 42, 0
6, 18336, Note_on_c, 9, 42, 75
6, 18430, Note_on_c, 9, 42, 0
6, 18432, Note_on_c, 9, 42, 75
6, 18432, Note_on_c, 9, 57, 75
6, 18526, Note_on_c, 9, 57, 0
6, 18526, Note_on_c, 9, 42, 0
6, 18528, Note_on_c, 9, 42, 75
6, 18622, Note_on_c, 9, 42, 0
6, 18624, Note_on_c, 9, 42, 75
6, 18718, Note_on_c, 9, 42, 0
6, 18720, Note_on_c, 9, 42, 75
6, 18720, Note_on_c, 9, 46, 75
6, 18814, Note_on_c, 9, 46, 0
6, 18814, Note_on_c, 9, 42, 0
6, 18816, Note_on_c, 9, 42, 75
6, 18910, Note_on_c, 9, 42, 0
6, 18912, Note_on_c, 9, 42, 75
6, 19006, Note_on_c, 9, 42, 0
6, 19008, Note_on_c, 9, 42, 75
6, 19102, Note_on_c, 9, 42, 0
6, 19104, Note_on_c, 9, 42, 75
6, 19104, Note_on_c, 9, 46, 75
6, 19198, Note_on_c, 9, 46, 0
6, 19198, Note_on_c, 9, 42, 0
6, 19200, Note_on_c, 9, 42, 75
6, 19294, Note_on_c, 9, 42, 0
6, 19296, Note_on_c, 9, 42, 75
6, 19390, Note_on_c, 9, 42, 0
6, 19392, Note_on_c, 9, 42, 75
6, 19486, Note_on_c, 9, 42, 0
6, 19488, Note_on_c, 9, 42, 75
6, 19488, Note_on_c, 9, 46, 75
6, 19582, Note_on_c, 9, 46, 0
6, 19582, Note_on_c, 9, 42, 0
6, 19584, Note_on_c, 9, 42, 75
6, 19678, Note_on_c, 9, 42, 0
6, 19680, Note_on_c, 9, 42, 75
6, 19774, Note_on_c, 9, 42, 0
6, 19776, Note_on_c, 9, 42, 75
6, 19870, Note_on_c, 9, 42, 0
6, 19872, Note_on_c, 9, 42, 75
6, 19872, Note_on_c, 9, 46, 75
6, 19966, Note_on_c, 9, 46, 0
6, 19966, Note_on_c, 9, 42, 0
6, 19968, Note_on_c, 9, 42, 75
6, 20062, Note_on_c, 9, 42, 0
6, 20064, Note_on_c, 9, 42, 75
6, 20158, Note_on_c, 9, 42, 0
6, 20160, Note_on_c, 9, 42, 75
6, 20254, Note_on_c, 9, 42, 0
6, 20256, Note_on_c, 9, 42, 75
6, 20256, Note_on_c, 9, 46, 75
6, 20350, Note_on_c, 9, 46, 0
6, 20350, Note_on_c, 9, 42, 0
6, 20352, Note_on_c, 9, 42, 75
6, 20446, Note_on_c, 9, 42, 0
6, 20448, Note_on_c, 9, 42, 75
6, 20542, Note_on_c, 9, 42, 0
6, 20544, Note_on_c, 9, 42, 75
6, 20638, Note_on_c, 9, 42, 0
6, 20640, Note_on_c, 9, 42, 75
6, 20640, Note_on_c, 9, 46, 75
6, 20734, Note_on_c, 9, 46, 0
6, 20734, Note_on_c, 9, 42, 0
6, 20736, Note_on_c, 9, 42, 75
6, 20830, Note_on_c, 9, 42, 0
6, 20832, Note_on_c, 9, 42, 75
6, 20926, Note_on_c, 9, 42, 0
6, 20928, Note_on_c, 9, 42, 75
6, 21022, Note_on_c, 9, 42, 0
6, 21024, Note_on_c, 9, 42, 75
6, 21118, Note_on_c, 9, 42, 0
6, 21120, Note_on_c, 9, 42, 75
6, 21214, Note_on_c, 9, 42, 0
6, 21216, Note_on_c, 9, 42, 75
6, 21310, Note_on_c, 9, 42, 0
6, 21312, Note_on_c, 9, 42, 75
6, 21406, Note_on_c, 9, 42, 0
6, 21408, Note_on_c, 9, 42, 75
6, 21502, Note_on_c, 9, 42, 0
6, 21504, Note_on_c, 9, 51, 105
6, 21504, Note_on_c, 9, 57, 105
6, 21598, Note_on_c, 9, 57, 0
6, 21598, Note_on_c, 9, 51, 0
6, 21600, Note_on_c, 9, 51, 75
6, 21694, Note_on_c, 9, 51, 0
6, 21696, Note_on_c, 9, 51, 75
6, 21790, Note_on_c, 9, 51, 0
6, 21792, Note_on_c, 9, 51, 75
6, 21886, Note_on_c, 9, 51, 0
6, 21888, Note_on_c, 9, 51, 75
6, 21982, Note_on_c, 9, 51, 0
6, 21984, Note_on_c, 9, 51, 75
6, 22078, Note_on_c, 9, 51, 0
6, 22080, Note_on_c, 9, 51, 75
6, 22174, Note_on_c, 9, 51, 0
6, 22176, Note_on_c, 9, 51, 75
6, 22270, Note_on_c, 9, 51, 0
6, 22272, Note_on_c, 9, 51, 75
6, 22366, Note_on_c, 9, 51, 0
6, 22368, Note_on_c, 9, 51, 75
6, 22462, Note_on_c, 9, 51, 0
6, 22464, Note_on_c, 9, 51, 75
6, 22558, Note_on_c, 9, 51, 0
6, 22560, Note_on_c, 9, 51, 75
6, 22654, Note_on_c, 9, 51, 0
6, 22656, Note_on_c, 9, 51, 75
6, 22750, Note_on_c, 9, 51, 0
6, 22752, Note_on_c, 9, 51, 75
6, 22846, Note_on_c, 9, 51, 0
6, 22848, Note_on_c, 9, 51, 75
6, 22942, Note_on_c, 9, 51, 0
6, 22944, Note_on_c, 9, 51, 75
6, 23038, Note_on_c, 9, 51, 0
6, 23040, Note_on_c, 9, 51, 75
6, 23134, Note_on_c, 9, 51, 0
6, 23136, Note_on_c, 9, 51, 75
6, 23230, Note_on_c, 9, 51, 0
6, 23232, Note_on_c, 9, 51, 75
6, 23326, Note_on_c, 9, 51, 0
6, 23328, Note_on_c, 9, 51, 75
6, 23422, Note_on_c, 9, 51, 0
6, 23424, Note_on_c, 9, 51, 75
6, 23518, Note_on_c, 9, 51, 0
6, 23520, Note_on_c, 9, 51, 75
6, 23614, Note_on_c, 9, 51, 0
6, 23616, Note_on_c, 9, 51, 75
6, 23710, Note_on_c, 9, 51, 0
6, 23712, Note_on_c, 9, 51, 75
6, 23806, Note_on_c, 9, 51, 0
6, 23808, Note_on_c, 9, 51, 75
6, 23902, Note_on_c, 9, 51, 0
6, 23904, Note_on_c, 9, 51, 75
6, 23998, Note_on_c, 9, 51, 0
6, 24000, Note_on_c, 9, 51, 75
6, 24094, Note_on_c, 9, 51, 0
6, 24096, Note_on_c, 9, 51, 75
6, 24190, Note_on_c, 9, 51, 0
6, 24192, Note_on_c, 9, 51, 75
6, 24286, Note_on_c, 9, 51, 0
6, 24288, Note_on_c, 9, 51, 75
6, 24382, Note_on_c, 9, 51, 0
6, 24384, Note_on_c, 9, 51, 75
6, 24478, Note_on_c, 9, 51, 0
6, 24480, Note_on_c, 9, 51, 75
6, 24574, Note_on_c, 9, 51, 0
6, 24576, Note_on_c, 9, 51, 75
6, 24670, Note_on_c, 9, 51, 0
6, 24672, Note_on_c, 9, 51, 75
6, 24766, Note_on_c, 9, 51, 0
6, 24768, Note_on_c, 9, 51, 75
6, 24862, Note_on_c, 9, 51, 0
6, 24864, Note_on_c, 9, 51, 75
6, 24958, Note_on_c, 9, 51, 0
6, 24960, Note_on_c, 9, 51, 75
6, 25054, Note_on_c, 9, 51, 0
6, 25056, Note_on_c, 9, 51, 75
6, 25150, Note_on_c, 9, 51, 0
6, 25152, Note_on_c, 9, 51, 75
6, 25246, Note_on_c, 9, 51, 0
6, 25248, Note_on_c, 9, 51, 75
6, 25342, Note_on_c, 9, 51, 0
6, 25344, Note_on_c, 9, 51, 75
6, 25438, Note_on_c, 9, 51, 0
6, 25440, Note_on_c, 9, 51, 75
6, 25534, Note_on_c, 9, 51, 0
6, 25536, Note_on_c, 9, 51, 75
6, 25630, Note_on_c, 9, 51, 0
6, 25632, Note_on_c, 9, 51, 75
6, 25726, Note_on_c, 9, 51, 0
6, 25728, Note_on_c, 9, 51, 75
6, 25822, Note_on_c, 9, 51, 0
6, 25824, Note_on_c, 9, 51, 75
6, 25918, Note_on_c, 9, 51, 0
6, 25920, Note_on_c, 9, 51, 75
6, 26014, Note_on_c, 9, 51, 0
6, 26016, Note_on_c, 9, 51, 75
6, 26110, Note_on_c, 9, 51, 0
6, 26112, Note_on_c, 9, 42, 75
6, 26272, Note_on_c, 9, 42, 0
6, 26304, Note_on_c, 9, 42, 75
6, 26832, Note_on_c, 9, 42, 0
6, 26880, Note_on_c, 9, 46, 75
6, 27408, Note_on_c, 9, 46, 0
6, 27552, Note_on_c, 9, 42, 75
6, 27646, Note_on_c, 9, 42, 0
6, 27648, Note_on_c, 9, 51, 75
6, 27742, Note_on_c, 9, 51, 0
6, 27744, Note_on_c, 9, 51, 75
6, 27838, Note_on_c, 9, 51, 0
6, 27840, Note_on_c, 9, 51, 75
6, 27934, Note_on_c, 9, 51, 0
6, 27936, Note_on_c, 9, 51, 75
6, 28030, Note_on_c, 9, 51, 0
6, 28032, Note_on_c, 9, 51, 75
6, 28126, Note_on_c, 9, 51, 0
6, 28128, Note_on_c, 9, 51, 75
6, 28222, Note_on_c, 9, 51, 0
6, 28224, Note_on_c, 9, 51, 75
6, 28318, Note_on_c, 9, 51, 0
6, 28320, Note_on_c, 9, 51, 75
6, 28414, Note_on_c, 9, 51, 0
6, 28416, Note_on_c, 9, 51, 75
6, 28510, Note_on_c, 9, 51, 0
6, 28512, Note_on_c, 9, 51, 75
6, 28606, Note_on_c, 9, 51, 0
6, 28608, Note_on_c, 9, 51, 75
6, 28702, Note_on_c, 9, 51, 0
6, 28704, Note_on_c, 9, 51, 75
6, 28798, Note_on_c, 9, 51, 0
6, 28800, Note_on_c, 9, 51, 75
6, 28894, Note_on_c, 9, 51, 0
6, 28896, Note_on_c, 9, 51, 75
6, 28990, Note_on_c, 9, 51, 0
6, 28992, Note_on_c, 9, 51, 75
6, 29086, Note_on_c, 9, 51, 0
6, 29088, Note_on_c, 9, 51, 75
6, 29182, Note_on_c, 9, 51, 0
6, 29184, Note_on_c, 9, 42, 75
6, 29278, Note_on_c, 9, 42, 0
6, 29280, Note_on_c, 9, 42, 75
6, 29374, Note_on_c, 9, 42, 0
6, 29376, Note_on_c, 9, 42, 75
6, 29470, Note_on_c, 9, 42, 0
6, 29472, Note_on_c, 9, 42, 75
6, 29566, Note_on_c, 9, 42, 0
6, 29568, Note_on_c, 9, 42, 75
6, 29662, Note_on_c, 9, 42, 0
6, 29664, Note_on_c, 9, 42, 75
6, 29758, Note_on_c, 9, 42, 0
6, 29760, Note_on_c, 9, 42, 75
6, 29854, Note_on_c, 9, 42, 0
6, 29856, Note_on_c, 9, 42, 75
6, 29950, Note_on_c, 9, 42, 0
6, 29952, Note_on_c, 9, 42, 75
6, 30046, Note_on_c, 9, 42, 0
6, 30048, Note_on_c, 9, 42, 75
6, 30142, Note_on_c, 9, 42, 0
6, 30144, Note_on_c, 9, 42, 75
6, 30238, Note_on_c, 9, 42, 0
6, 30240, Note_on_c, 9, 42, 75
6, 30334, Note_on_c, 9, 42, 0
6, 30336, Note_on_c, 9, 42, 75
6, 30430, Note_on_c, 9, 42, 0
6, 30432, Note_on_c, 9, 42, 75
6, 30526, Note_on_c, 9, 42, 0
6, 30528, Note_on_c, 9, 42, 75
6, 30622, Note_on_c, 9, 42, 0
6, 30624, Note_on_c, 9, 42, 75
6, 30718, Note_on_c, 9, 42, 0
6, 30720, Note_on_c, 9, 42, 75
6, 30814, Note_on_c, 9, 42, 0
6, 30816, Note_on_c, 9, 42, 75
6, 30910, Note_on_c, 9, 42, 0
6, 30912, Note_on_c, 9, 42, 75
6, 31006, Note_on_c, 9, 42, 0
6, 31008, Note_on_c, 9, 42, 75
6, 31102, Note_on_c, 9, 42, 0
6, 31104, Note_on_c, 9, 42, 75
6, 31198, Note_on_c, 9, 42, 0
6, 31200, Note_on_c, 9, 42, 75
6, 31294, Note_on_c, 9, 42, 0
6, 31296, Note_on_c, 9, 42, 75
6, 31390, Note_on_c, 9, 42, 0
6, 31392, Note_on_c, 9, 42, 75
6, 31486, Note_on_c, 9, 42, 0
6, 31488, Note_on_c, 9, 42, 75
6, 31582, Note_on_c, 9, 42, 0
6, 31584, Note_on_c, 9, 42, 75
6, 31678, Note_on_c, 9, 42, 0
6, 31680, Note_on_c, 9, 42, 75
6, 31774, Note_on_c, 9, 42, 0
6, 31776, Note_on_c, 9, 42, 75
6, 31870, Note_on_c, 9, 42, 0
6, 31872, Note_on_c, 9, 42, 75
6, 31966, Note_on_c, 9, 42, 0
6, 31968, Note_on_c, 9, 42, 75
6, 32062, Note_on_c, 9, 42, 0
6, 32064, Note_on_c, 9, 42, 75
6, 32158, Note_on_c, 9, 42, 0
6, 32160, Note_on_c, 9, 42, 75
6, 32254, Note_on_c, 9, 42, 0
6, 32256, Note_on_c, 9, 42, 75
6, 32350, Note_on_c, 9, 42, 0
6, 32352, Note_on_c, 9, 42, 75
6, 32446, Note_on_c, 9, 42, 0
6, 32448, Note_on_c, 9, 42, 75
6, 32542, Note_on_c, 9, 42, 0
6, 32544, Note_on_c, 9, 42, 75
6, 32638, Note_on_c, 9, 42, 0
6, 32640, Note_on_c, 9, 42, 75
6, 32734, Note_on_c, 9, 42, 0
6, 32736, Note_on_c, 9, 42, 75
6, 32830, Note_on_c, 9, 42, 0
6, 32832, Note_on_c, 9, 42, 75
6, 32926, Note_on_c, 9, 42, 0
6, 32928, Note_on_c, 9, 42, 75
6, 33022, Note_on_c, 9, 42, 0
6, 33024, Note_on_c, 9, 42, 75
6, 33118, Note_on_c, 9, 42, 0
6, 33120, Note_on_c, 9, 42, 75
6, 33214, Note_on_c, 9, 42, 0
6, 33216, Note_on_c, 9, 42, 75
6, 33310, Note_on_c, 9, 42, 0
6, 33312, Note_on_c, 9, 42, 75
6, 33406, Note_on_c, 9, 42, 0
6, 33408, Note_on_c, 9, 42, 75
6, 33502, Note_on_c, 9, 42, 0
6, 33504, Note_on_c, 9, 42, 75
6, 33598, Note_on_c, 9, 42, 0
6, 33600, Note_on_c, 9, 42, 75
6, 33694, Note_on_c, 9, 42, 0
6, 33696, Note_on_c, 9, 42, 75
6, 33790, Note_on_c, 9, 42, 0
6, 33792, Note_on_c, 9, 42, 75
6, 33886, Note_on_c, 9, 42, 0
6, 33888, Note_on_c, 9, 42, 75
6, 33982, Note_on_c, 9, 42, 0
6, 33984, Note_on_c, 9, 42, 75
6, 34078, Note_on_c, 9, 42, 0
6, 34080, Note_on_c, 9, 42, 75
6, 34174, Note_on_c, 9, 42, 0
6, 34176, Note_on_c, 9, 42, 75
6, 34270, Note_on_c, 9, 42, 0
6, 34272, Note_on_c, 9, 42, 75
6, 34366, Note_on_c, 9, 42, 0
6, 34368, Note_on_c, 9, 42, 75
6, 34462, Note_on_c, 9, 42, 0
6, 34464, Note_on_c, 9, 42, 75
6, 34558, Note_on_c, 9, 42, 0
6, 34560, Note_on_c, 9, 42, 75
6, 34654, Note_on_c, 9, 42, 0
6, 34656, Note_on_c, 9, 42, 75
6, 34750, Note_on_c, 9, 42, 0
6, 34752, Note_on_c, 9, 42, 75
6, 34846, Note_on_c, 9, 42, 0
6, 34848, Note_on_c, 9, 42, 75
6, 34942, Note_on_c, 9, 42, 0
6, 34944, Note_on_c, 9, 42, 75
6, 35038, Note_on_c, 9, 42, 0
6, 35040, Note_on_c, 9, 42, 75
6, 35134, Note_on_c, 9, 42, 0
6, 35136, Note_on_c, 9, 42, 75
6, 35230, Note_on_c, 9, 42, 0
6, 35232, Note_on_c, 9, 42, 75
6, 35326, Note_on_c, 9, 42, 0
6, 35328, Note_on_c, 9, 42, 75
6, 35422, Note_on_c, 9, 42, 0
6, 35424, Note_on_c, 9, 42, 75
6, 35518, Note_on_c, 9, 42, 0
6, 35520, Note_on_c, 9, 42, 75
6, 35614, Note_on_c, 9, 42, 0
6, 35616, Note_on_c, 9, 42, 75
6, 35710, Note_on_c, 9, 42, 0
6, 35712, Note_on_c, 9, 42, 75
6, 35806, Note_on_c, 9, 42, 0
6, 35808, Note_on_c, 9, 42, 75
6, 35902, Note_on_c, 9, 42, 0
6, 35904, Note_on_c, 9, 42, 75
6, 35998, Note_on_c, 9, 42, 0
6, 36000, Note_on_c, 9, 42, 75
6, 36094, Note_on_c, 9, 42, 0
6, 36096, Note_on_c, 9, 42, 75
6, 36190, Note_on_c, 9, 42, 0
6, 36192, Note_on_c, 9, 42, 75
6, 36286, Note_on_c, 9, 42, 0
6, 36288, Note_on_c, 9, 42, 75
6, 36382, Note_on_c, 9, 42, 0
6, 36384, Note_on_c, 9, 42, 75
6, 36478, Note_on_c, 9, 42, 0
6, 36480, Note_on_c, 9, 42, 75
6, 36574, Note_on_c, 9, 42, 0
6, 36576, Note_on_c, 9, 42, 75
6, 36670, Note_on_c, 9, 42, 0
6, 36672, Note_on_c, 9, 42, 75
6, 36766, Note_on_c, 9, 42, 0
6, 36768, Note_on_c, 9, 42, 75
6, 36862, Note_on_c, 9, 42, 0
6, 36864, Note_on_c, 9, 42, 75
6, 36958, Note_on_c, 9, 42, 0
6, 36960, Note_on_c, 9, 42, 75
6, 37054, Note_on_c, 9, 42, 0
6, 37056, Note_on_c, 9, 42, 75
6, 37150, Note_on_c, 9, 42, 0
6, 37152, Note_on_c, 9, 42, 75
6, 37246, Note_on_c, 9, 42, 0
6, 37248, Note_on_c, 9, 42, 75
6, 37342, Note_on_c, 9, 42, 0
6, 37344, Note_on_c, 9, 42, 75
6, 37438, Note_on_c, 9, 42, 0
6, 37440, Note_on_c, 9, 42, 75
6, 37534, Note_on_c, 9, 42, 0
6, 37536, Note_on_c, 9, 42, 75
6, 37630, Note_on_c, 9, 42, 0
6, 37632, Note_on_c, 9, 42, 75
6, 37726, Note_on_c, 9, 42, 0
6, 37728, Note_on_c, 9, 42, 75
6, 37822, Note_on_c, 9, 42, 0
6, 37824, Note_on_c, 9, 42, 75
6, 37918, Note_on_c, 9, 42, 0
6, 37920, Note_on_c, 9, 42, 75
6, 38014, Note_on_c, 9, 42, 0
6, 38016, Note_on_c, 9, 42, 75
6, 38110, Note_on_c, 9, 42, 0
6, 38112, Note_on_c, 9, 42, 75
6, 38206, Note_on_c, 9, 42, 0
6, 38208, Note_on_c, 9, 42, 75
6, 38302, Note_on_c, 9, 42, 0
6, 38304, Note_on_c, 9, 42, 75
6, 38398, Note_on_c, 9, 42, 0
6, 38400, Note_on_c, 9, 42, 105
6, 38400, Note_on_c, 9, 57, 105
6, 38494, Note_on_c, 9, 57, 0
6, 38494, Note_on_c, 9, 42, 0
6, 38496, Note_on_c, 9, 42, 75
6, 38590, Note_on_c, 9, 42, 0
6, 38592, Note_on_c, 9, 42, 75
6, 38686, Note_on_c, 9, 42, 0
6, 38688, Note_on_c, 9, 42, 75
6, 38782, Note_on_c, 9, 42, 0
6, 38784, Note_on_c, 9, 42, 75
6, 38878, Note_on_c, 9, 42, 0
6, 38880, Note_on_c, 9, 42, 75
6, 38974, Note_on_c, 9, 42, 0
6, 38976, Note_on_c, 9, 42, 75
6, 39070, Note_on_c, 9, 42, 0
6, 39072, Note_on_c, 9, 42, 75
6, 39166, Note_on_c, 9, 42, 0
6, 39168, Note_on_c, 9, 42, 75
6, 39262, Note_on_c, 9, 42, 0
6, 39264, Note_on_c, 9, 42, 75
6, 39358, Note_on_c, 9, 42, 0
6, 39360, Note_on_c, 9, 42, 75
6, 39454, Note_on_c, 9, 42, 0
6, 39456, Note_on_c, 9, 42, 75
6, 39550, Note_on_c, 9, 42, 0
6, 39552, Note_on_c, 9, 42, 75
6, 39646, Note_on_c, 9, 42, 0
6, 39648, Note_on_c, 9, 42, 75
6, 39742, Note_on_c, 9, 42, 0
6, 39744, Note_on_c, 9, 42, 75
6, 39838, Note_on_c, 9, 42, 0
6, 39840, Note_on_c, 9, 42, 75
6, 39934, Note_on_c, 9, 42, 0
6, 39936, Note_on_c, 9, 42, 75
6, 40030, Note_on_c, 9, 42, 0
6, 40032, Note_on_c, 9, 42, 75
6, 40126, Note_on_c, 9, 42, 0
6, 40128, Note_on_c, 9, 42, 75
6, 40222, Note_on_c, 9, 42, 0
6, 40224, Note_on_c, 9, 42, 75
6, 40318, Note_on_c, 9, 42, 0
6, 40320, Note_on_c, 9, 42, 75
6, 40414, Note_on_c, 9, 42, 0
6, 40416, Note_on_c, 9, 42, 75
6, 40510, Note_on_c, 9, 42, 0
6, 40512, Note_on_c, 9, 42, 75
6, 40606, Note_on_c, 9, 42, 0
6, 40608, Note_on_c, 9, 42, 75
6, 40702, Note_on_c, 9, 42, 0
6, 40704, Note_on_c, 9, 42, 75
6, 40798, Note_on_c, 9, 42, 0
6, 40800, Note_on_c, 9, 42, 75
6, 40894, Note_on_c, 9, 42, 0
6, 40896, Note_on_c, 9, 42, 75
6, 40990, Note_on_c, 9, 42, 0
6, 40992, Note_on_c, 9, 42, 75
6, 41086, Note_on_c, 9, 42, 0
6, 41088, Note_on_c, 9, 42, 75
6, 41182, Note_on_c, 9, 42, 0
6, 41184, Note_on_c, 9, 42, 75
6, 41278, Note_on_c, 9, 42, 0
6, 41280, Note_on_c, 9, 42, 75
6, 41374, Note_on_c, 9, 42, 0
6, 41376, Note_on_c, 9, 42, 75
6, 41470, Note_on_c, 9, 42, 0
6, 41472, Note_on_c, 9, 51, 105
6, 41472, Note_on_c, 9, 57, 105
6, 41566, Note_on_c, 9, 57, 0
6, 41566, Note_on_c, 9, 51, 0
6, 41568, Note_on_c, 9, 51, 75
6, 41662, Note_on_c, 9, 51, 0
6, 41664, Note_on_c, 9, 51, 75
6, 41758, Note_on_c, 9, 51, 0
6, 41760, Note_on_c, 9, 51, 75
6, 41854, Note_on_c, 9, 51, 0
6, 41856, Note_on_c, 9, 51, 75
6, 41950, Note_on_c, 9, 51, 0
6, 41952, Note_on_c, 9, 51, 75
6, 42046, Note_on_c, 9, 51, 0
6, 42048, Note_on_c, 9, 51, 75
6, 42142, Note_on_c, 9, 51, 0
6, 42144, Note_on_c, 9, 51, 75
6, 42238, Note_on_c, 9, 51, 0
6, 42240, Note_on_c, 9, 51, 75
6, 42334, Note_on_c, 9, 51, 0
6, 42336, Note_on_c, 9, 51, 75
6, 42430, Note_on_c, 9, 51, 0
6, 42432, Note_on_c, 9, 51, 75
6, 42526, Note_on_c, 9, 51, 0
6, 42528, Note_on_c, 9, 51, 75
6, 42622, Note_on_c, 9, 51, 0
6, 42624, Note_on_c, 9, 51, 75
6, 42718, Note_on_c, 9, 51, 0
6, 42720, Note_on_c, 9, 51, 75
6, 42814, Note_on_c, 9, 51, 0
6, 42816, Note_on_c, 9, 51, 75
6, 42910, Note_on_c, 9, 51, 0
6, 42912, Note_on_c, 9, 51, 75
6, 43006, Note_on_c, 9, 51, 0
6, 43008, Note_on_c, 9, 51, 75
6, 43102, Note_on_c, 9, 51, 0
6, 43104, Note_on_c, 9, 51, 75
6, 43198, Note_on_c, 9, 51, 0
6, 43200, Note_on_c, 9, 51, 75
6, 43294, Note_on_c, 9, 51, 0
6, 43296, Note_on_c, 9, 51, 75
6, 43390, Note_on_c, 9, 51, 0
6, 43392, Note_on_c, 9, 51, 75
6, 43486, Note_on_c, 9, 51, 0
6, 43488, Note_on_c, 9, 51, 75
6, 43582, Note_on_c, 9, 51, 0
6, 43584, Note_on_c, 9, 51, 75
6, 43678, Note_on_c, 9, 51, 0
6, 43680, Note_on_c, 9, 51, 75
6, 43774, Note_on_c, 9, 51, 0
6, 43776, Note_on_c, 9, 51, 75
6, 43870, Note_on_c, 9, 51, 0
6, 43872, Note_on_c, 9, 51, 75
6, 43966, Note_on_c, 9, 51, 0
6, 43968, Note_on_c, 9, 51, 75
6, 44062, Note_on_c, 9, 51, 0
6, 44064, Note_on_c, 9, 51, 75
6, 44158, Note_on_c, 9, 51, 0
6, 44160, Note_on_c, 9, 51, 75
6, 44254, Note_on_c, 9, 51, 0
6, 44256, Note_on_c, 9, 51, 75
6, 44350, Note_on_c, 9, 51, 0
6, 44352, Note_on_c, 9, 51, 75
6, 44446, Note_on_c, 9, 51, 0
6, 44448, Note_on_c, 9, 51, 75
6, 44542, Note_on_c, 9, 51, 0
6, 44544, Note_on_c, 9, 51, 75
6, 44638, Note_on_c, 9, 51, 0
6, 44640, Note_on_c, 9, 51, 75
6, 44734, Note_on_c, 9, 51, 0
6, 44736, Note_on_c, 9, 51, 75
6, 44830, Note_on_c, 9, 51, 0
6, 44832, Note_on_c, 9, 51, 75
6, 44926, Note_on_c, 9, 51, 0
6, 44928, Note_on_c, 9, 51, 75
6, 45022, Note_on_c, 9, 51, 0
6, 45024, Note_on_c, 9, 51, 75
6, 45118, Note_on_c, 9, 51, 0
6, 45120, Note_on_c, 9, 51, 75
6, 45214, Note_on_c, 9, 51, 0
6, 45216, Note_on_c, 9, 51, 75
6, 45310, Note_on_c, 9, 51, 0
6, 45312, Note_on_c, 9, 51, 75
6, 45406, Note_on_c, 9, 51, 0
6, 45408, Note_on_c, 9, 51, 75
6, 45502, Note_on_c, 9, 51, 0
6, 45504, Note_on_c, 9, 51, 75
6, 45598, Note_on_c, 9, 51, 0
6, 45600, Note_on_c, 9, 51, 75
6, 45694, Note_on_c, 9, 51, 0
6, 45696, Note_on_c, 9, 51, 75
6, 45790, Note_on_c, 9, 51, 0
6, 45792, Note_on_c, 9, 51, 75
6, 45886, Note_on_c, 9, 51, 0
6, 45888, Note_on_c, 9, 51, 75
6, 45982, Note_on_c, 9, 51, 0
6, 45984, Note_on_c, 9, 51, 75
6, 46078, Note_on_c, 9, 51, 0
6, 46080, Note_on_c, 9, 57, 75
6, 46240, Note_on_c, 9, 57, 0
6, 46272, Note_on_c, 9, 57, 75
6, 46800, Note_on_c, 9, 57, 0
6, 46848, Note_on_c, 9, 57, 75
6, 47376, Note_on_c, 9, 57, 0
6, 47616, Note_on_c, 9, 57, 75
6, 47952, Note_on_c, 9, 57, 0
6, 48000, Note_on_c, 9, 57, 75
6, 48336, Note_on_c, 9, 57, 0
6, 48768, Note_on_c, 9, 40, 127
6, 48768, Note_on_c, 9, 42, 127
6, 48928, Note_on_c, 9, 42, 0
6, 48928, Note_on_c, 9, 40, 0
6, 49536, Note_on_c, 9, 42, 75
6, 49630, Note_on_c, 9, 42, 0
6, 49632, Note_on_c, 9, 42, 75
6, 49726, Note_on_c, 9, 42, 0
6, 49728, Note_on_c, 9, 42, 75
6, 49822, Note_on_c, 9, 42, 0
6, 49824, Note_on_c, 9, 42, 75
6, 49918, Note_on_c, 9, 42, 0
6, 49920, Note_on_c, 9, 42, 75
6, 50014, Note_on_c, 9, 42, 0
6, 50016, Note_on_c, 9, 42, 75
6, 50110, Note_on_c, 9, 42, 0
6, 50112, Note_on_c, 9, 42, 75
6, 50206, Note_on_c, 9, 42, 0
6, 50208, Note_on_c, 9, 42, 75
6, 50302, Note_on_c, 9, 42, 0
6, 50304, Note_on_c, 9, 42, 75
6, 50398, Note_on_c, 9, 42, 0
6, 50400, Note_on_c, 9, 42, 75
6, 50494, Note_on_c, 9, 42, 0
6, 50496, Note_on_c, 9, 42, 75
6, 50590, Note_on_c, 9, 42, 0
6, 50592, Note_on_c, 9, 42, 75
6, 50686, Note_on_c, 9, 42, 0
6, 50688, Note_on_c, 9, 42, 75
6, 50782, Note_on_c, 9, 42, 0
6, 50784, Note_on_c, 9, 42, 75
6, 50878, Note_on_c, 9, 42, 0
6, 50880, Note_on_c, 9, 42, 75
6, 50974, Note_on_c, 9, 42, 0
6, 50976, Note_on_c, 9, 42, 75
6, 51070, Note_on_c, 9, 42, 0
6, 51072, Note_on_c, 9, 42, 75
6, 51166, Note_on_c, 9, 42, 0
6, 51168, Note_on_c, 9, 42, 75
6, 51214, Note_on_c, 9, 42, 0
6, 51216, Note_on_c, 9, 42, 75
6, 51262, Note_on_c, 9, 42, 0
6, 51264, Note_on_c, 9, 42, 75
6, 51358, Note_on_c, 9, 42, 0
6, 51360, Note_on_c, 9, 42, 75
6, 51406, Note_on_c, 9, 42, 0
6, 51408, Note_on_c, 9, 42, 75
6, 51454, Note_on_c, 9, 42, 0
6, 51456, Note_on_c, 9, 42, 75
6, 51550, Note_on_c, 9, 42, 0
6, 51552, Note_on_c, 9, 42, 75
6, 51598, Note_on_c, 9, 42, 0
6, 51600, Note_on_c, 9, 42, 75
6, 51646, Note_on_c, 9, 42, 0
6, 51648, Note_on_c, 9, 42, 75
6, 51742, Note_on_c, 9, 42, 0
6, 51744, Note_on_c, 9, 42, 75
6, 51790, Note_on_c, 9, 42, 0
6, 51792, Note_on_c, 9, 42, 75
6, 51838, Note_on_c, 9, 42, 0
6, 51840, Note_on_c, 9, 42, 75
6, 51934, Note_on_c, 9, 42, 0
6, 51936, Note_on_c, 9, 42, 75
6, 51982, Note_on_c, 9, 42, 0
6, 51984, Note_on_c, 9, 42, 75
6, 52030, Note_on_c, 9, 42, 0
6, 52032, Note_on_c, 9, 42, 75
6, 52126, Note_on_c, 9, 42, 0
6, 52128, Note_on_c, 9, 42, 75
6, 52174, Note_on_c, 9, 42, 0
6, 52176, Note_on_c, 9, 42, 75
6, 52222, Note_on_c, 9, 42, 0
6, 52224, Note_on_c, 9, 42, 75
6, 52318, Note_on_c, 9, 42, 0
6, 52320, Note_on_c, 9, 42, 75
6, 52366, Note_on_c, 9, 42, 0
6, 52368, Note_on_c, 9, 42, 75
6, 52414, Note_on_c, 9, 42, 0
6, 52416, Note_on_c, 9, 42, 75
6, 52510, Note_on_c, 9, 42, 0
6, 52512, Note_on_c, 9, 42, 75
6, 52558, Note_on_c, 9, 42, 0
6, 52560, Note_on_c, 9, 42, 75
6, 52606, Note_on_c, 9, 42, 0
6, 52608, Note_on_c, 9, 42, 75
6, 52702, Note_on_c, 9, 42, 0
6, 52704, Note_on_c, 9, 42, 75
6, 52750, Note_on_c, 9, 42, 0
6, 52752, Note_on_c, 9, 42, 75
6, 52798, Note_on_c, 9, 42, 0
6, 52800, Note_on_c, 9, 42, 75
6, 52894, Note_on_c, 9, 42, 0
6, 52896, Note_on_c, 9, 42, 75
6, 52942, Note_on_c, 9, 42, 0
6, 52944, Note_on_c, 9, 42, 75
6, 52990, Note_on_c, 9, 42, 0
6, 52992, Note_on_c, 9, 42, 75
6, 53086, Note_on_c, 9, 42, 0
6, 53088, Note_on_c, 9, 42, 75
6, 53134, Note_on_c, 9, 42, 0
6, 53136, Note_on_c, 9, 42, 75
6, 53182, Note_on_c, 9, 42, 0
6, 53184, Note_on_c, 9, 42, 75
6, 53278, Note_on_c, 9, 42, 0
6, 53280, Note_on_c, 9, 42, 75
6, 53326, Note_on_c, 9, 42, 0
6, 53328, Note_on_c, 9, 42, 75
6, 53374, Note_on_c, 9, 42, 0
6, 53376, Note_on_c, 9, 42, 75
6, 53470, Note_on_c, 9, 42, 0
6, 53472, Note_on_c, 9, 42, 75
6, 53518, Note_on_c, 9, 42, 0
6, 53520, Note_on_c, 9, 42, 75
6, 53566, Note_on_c, 9, 42, 0
6, 53568, Note_on_c, 9, 42, 75
6, 53662, Note_on_c, 9, 42, 0
6, 53664, Note_on_c, 9, 42, 75
6, 53710, Note_on_c, 9, 42, 0
6, 53712, Note_on_c, 9, 42, 75
6, 53758, Note_on_c, 9, 42, 0
6, 53760, Note_on_c, 9, 42, 75
6, 53854, Note_on_c, 9, 42, 0
6, 53856, Note_on_c, 9, 42, 75
6, 53902, Note_on_c, 9, 42, 0
6, 53904, Note_on_c, 9, 42, 75
6, 53950, Note_on_c, 9, 42, 0
6, 53952, Note_on_c, 9, 42, 75
6, 54046, Note_on_c, 9, 42, 0
6, 54048, Note_on_c, 9, 42, 75
6, 54094, Note_on_c, 9, 42, 0
6, 54096, Note_on_c, 9, 42, 75
6, 54142, Note_on_c, 9, 42, 0
6, 54144, Note_on_c, 9, 42, 75
6, 54238, Note_on_c, 9, 42, 0
6, 54240, Note_on_c, 9, 42, 75
6, 54286, Note_on_c, 9, 42, 0
6, 54288, Note_on_c, 9, 42, 75
6, 54334, Note_on_c, 9, 42, 0
6, 54336, Note_on_c, 9, 42, 75
6, 54430, Note_on_c, 9, 42, 0
6, 54432, Note_on_c, 9, 42, 75
6, 54478, Note_on_c, 9, 42, 0
6, 54480, Note_on_c, 9, 42, 75
6, 54526, Note_on_c, 9, 42, 0
6, 54528, Note_on_c, 9, 42, 75
6, 54622, Note_on_c, 9, 42, 0
6, 54624, Note_on_c, 9, 42, 75
6, 54670, Note_on_c, 9, 42, 0
6, 54672, Note_on_c, 9, 42, 75
6, 54718, Note_on_c, 9, 42, 0
6, 54720, Note_on_c, 9, 42, 75
6, 54814, Note_on_c, 9, 42, 0
6, 54816, Note_on_c, 9, 42, 75
6, 54862, Note_on_c, 9, 42, 0
6, 54864, Note_on_c, 9, 42, 75
6, 54910, Note_on_c, 9, 42, 0
6, 54912, Note_on_c, 9, 42, 75
6, 55006, Note_on_c, 9, 42, 0
6, 55008, Note_on_c, 9, 42, 75
6, 55054, Note_on_c, 9, 42, 0
6, 55056, Note_on_c, 9, 42, 75
6, 55102, Note_on_c, 9, 42, 0
6, 55104, Note_on_c, 9, 42, 75
6, 55198, Note_on_c, 9, 42, 0
6, 55200, Note_on_c, 9, 42, 75
6, 55246, Note_on_c, 9, 42, 0
6, 55248, Note_on_c, 9, 42, 75
6, 55294, Note_on_c, 9, 42, 0
6, 55296, Note_on_c, 9, 42, 75
6, 55390, Note_on_c, 9, 42, 0
6, 55392, Note_on_c, 9, 42, 75
6, 55438, Note_on_c, 9, 42, 0
6, 55440, Note_on_c, 9, 42, 75
6, 55486, Note_on_c, 9, 42, 0
6, 55488, Note_on_c, 9, 42, 75
6, 55582, Note_on_c, 9, 42, 0
6, 55584, Note_on_c, 9, 42, 75
6, 55630, Note_on_c, 9, 42, 0
6, 55632, Note_on_c, 9, 42, 75
6, 55678, Note_on_c, 9, 42, 0
6, 55680, Note_on_c, 9, 42, 75
6, 55774, Note_on_c, 9, 42, 0
6, 55776, Note_on_c, 9, 42, 75
6, 55822, Note_on_c, 9, 42, 0
6, 55824, Note_on_c, 9, 42, 75
6, 55870, Note_on_c, 9, 42, 0
6, 55872, Note_on_c, 9, 42, 75
6, 55966, Note_on_c, 9, 42, 0
6, 55968, Note_on_c, 9, 42, 75
6, 56014, Note_on_c, 9, 42, 0
6, 56016, Note_on_c, 9, 42, 75
6, 56062, Note_on_c, 9, 42, 0
6, 56064, Note_on_c, 9, 42, 75
6, 56158, Note_on_c, 9, 42, 0
6, 56160, Note_on_c, 9, 42, 75
6, 56206, Note_on_c, 9, 42, 0
6, 56208, Note_on_c, 9, 42, 75
6, 56254, Note_on_c, 9, 42, 0
6, 56256, Note_on_c, 9, 42, 75
6, 56350, Note_on_c, 9, 42, 0
6, 56352, Note_on_c, 9, 42, 75
6, 56398, Note_on_c, 9, 42, 0
6, 56400, Note_on_c, 9, 42, 75
6, 56446, Note_on_c, 9, 42, 0
6, 56448, Note_on_c, 9, 42, 75
6, 56542, Note_on_c, 9, 42, 0
6, 56544, Note_on_c, 9, 42, 75
6, 56590, Note_on_c, 9, 42, 0
6, 56592, Note_on_c, 9, 42, 75
6, 56638, Note_on_c, 9, 42, 0
6, 56640, Note_on_c, 9, 42, 75
6, 56734, Note_on_c, 9, 42, 0
6, 56736, Note_on_c, 9, 42, 75
6, 56782, Note_on_c, 9, 42, 0
6, 56784, Note_on_c, 9, 42, 75
6, 56830, Note_on_c, 9, 42, 0
6, 56832, Note_on_c, 9, 42, 75
6, 56926, Note_on_c, 9, 42, 0
6, 56928, Note_on_c, 9, 42, 75
6, 56974, Note_on_c, 9, 42, 0
6, 56976, Note_on_c, 9, 42, 75
6, 57022, Note_on_c, 9, 42, 0
6, 57024, Note_on_c, 9, 42, 75
6, 57118, Note_on_c, 9, 42, 0
6, 57120, Note_on_c, 9, 42, 75
6, 57166, Note_on_c, 9, 42, 0
6, 57168, Note_on_c, 9, 42, 75
6, 57214, Note_on_c, 9, 42, 0
6, 57216, Note_on_c, 9, 42, 75
6, 57310, Note_on_c, 9, 42, 0
6, 57312, Note_on_c, 9, 42, 75
6, 57358, Note_on_c, 9, 42, 0
6, 57360, Note_on_c, 9, 42, 75
6, 57406, Note_on_c, 9, 42, 0
6, 57408, Note_on_c, 9, 42, 75
6, 57502, Note_on_c, 9, 42, 0
6, 57504, Note_on_c, 9, 42, 75
6, 57550, Note_on_c, 9, 42, 0
6, 57552, Note_on_c, 9, 42, 75
6, 57598, Note_on_c, 9, 42, 0
6, 57600, Note_on_c, 9, 42, 75
6, 57694, Note_on_c, 9, 42, 0
6, 57696, Note_on_c, 9, 42, 75
6, 57742, Note_on_c, 9, 42, 0
6, 57744, Note_on_c, 9, 42, 75
6, 57790, Note_on_c, 9, 42, 0
6, 57792, Note_on_c, 9, 42, 75
6, 57886, Note_on_c, 9, 42, 0
6, 57888, Note_on_c, 9, 42, 75
6, 57934, Note_on_c, 9, 42, 0
6, 57936, Note_on_c, 9, 42, 75
6, 57982, Note_on_c, 9, 42, 0
6, 57984, Note_on_c, 9, 42, 75
6, 58078, Note_on_c, 9, 42, 0
6, 58080, Note_on_c, 9, 42, 75
6, 58126, Note_on_c, 9, 42, 0
6, 58128, Note_on_c, 9, 42, 75
6, 58174, Note_on_c, 9, 42, 0
6, 58176, Note_on_c, 9, 42, 75
6, 58270, Note_on_c, 9, 42, 0
6, 58272, Note_on_c, 9, 42, 75
6, 58318, Note_on_c, 9, 42, 0
6, 58320, Note_on_c, 9, 42, 75
6, 58366, Note_on_c, 9, 42, 0
6, 58368, Note_on_c, 9, 42, 75
6, 58462, Note_on_c, 9, 42, 0
6, 58464, Note_on_c, 9, 42, 75
6, 58510, Note_on_c, 9, 42, 0
6, 58512, Note_on_c, 9, 42, 75
6, 58558, Note_on_c, 9, 42, 0
6, 58944, Note_on_c, 9, 57, 75
6, 59104, Note_on_c, 9, 57, 0
6, 60288, Note_on_c, 9, 51, 105
6, 60288, Note_on_c, 9, 57, 105
6, 60382, Note_on_c, 9, 57, 0
6, 60382, Note_on_c, 9, 51, 0
6, 60384, Note_on_c, 9, 51, 75
6, 60478, Note_on_c, 9, 51, 0
6, 60480, Note_on_c, 9, 51, 75
6, 60574, Note_on_c, 9, 51, 0
6, 60576, Note_on_c, 9, 51, 75
6, 60670, Note_on_c, 9, 51, 0
6, 60672, Note_on_c, 9, 51, 75
6, 60766, Note_on_c, 9, 51, 0
6, 60768, Note_on_c, 9, 51, 75
6, 60862, Note_on_c, 9, 51, 0
6, 60864, Note_on_c, 9, 51, 75
6, 60958, Note_on_c, 9, 51, 0
6, 60960, Note_on_c, 9, 51, 75
6, 61054, Note_on_c, 9, 51, 0
6, 61056, Note_on_c, 9, 51, 75
6, 61150, Note_on_c, 9, 51, 0
6, 61152, Note_on_c, 9, 51, 75
6, 61246, Note_on_c, 9, 51, 0
6, 61248, Note_on_c, 9, 51, 75
6, 61342, Note_on_c, 9, 51, 0
6, 61344, Note_on_c, 9, 51, 75
6, 61438, Note_on_c, 9, 51, 0
6, 61440, Note_on_c, 9, 51, 75
6, 61534, Note_on_c, 9, 51, 0
6, 61536, Note_on_c, 9, 51, 75
6, 61630, Note_on_c, 9, 51, 0
6, 61632, Note_on_c, 9, 51, 75
6, 61726, Note_on_c, 9, 51, 0
6, 61728, Note_on_c, 9, 51, 75
6, 61822, Note_on_c, 9, 51, 0
6, 61824, Note_on_c, 9, 51, 75
6, 61918, Note_on_c, 9, 51, 0
6, 61920, Note_on_c, 9, 51, 75
6, 62014, Note_on_c, 9, 51, 0
6, 62016, Note_on_c, 9, 51, 75
6, 62110, Note_on_c, 9, 51, 0
6, 62112, Note_on_c, 9, 51, 75
6, 62206, Note_on_c, 9, 51, 0
6, 62208, Note_on_c, 9, 51, 75
6, 62302, Note_on_c, 9, 51, 0
6, 62304, Note_on_c, 9, 51, 75
6, 62398, Note_on_c, 9, 51, 0
6, 62400, Note_on_c, 9, 51, 75
6, 62494, Note_on_c, 9, 51, 0
6, 62496, Note_on_c, 9, 51, 75
6, 62590, Note_on_c, 9, 51, 0
6, 62592, Note_on_c, 9, 51, 75
6, 62686, Note_on_c, 9, 51, 0
6, 62688, Note_on_c, 9, 51, 75
6, 62782, Note_on_c, 9, 51, 0
6, 62784, Note_on_c, 9, 51, 75
6, 62878, Note_on_c, 9, 51, 0
6, 62880, Note_on_c, 9, 51, 75
6, 62974, Note_on_c, 9, 51, 0
6, 62976, Note_on_c, 9, 51, 75
6, 63070, Note_on_c, 9, 51, 0
6, 63072, Note_on_c, 9, 51, 75
6, 63166, Note_on_c, 9, 51, 0
6, 63168, Note_on_c, 9, 51, 75
6, 63262, Note_on_c, 9, 51, 0
6, 63264, Note_on_c, 9, 51, 75
6, 63358, Note_on_c, 9, 51, 0
6, 63360, Note_on_c, 9, 51, 75
6, 63454, Note_on_c, 9, 51, 0
6, 63456, Note_on_c, 9, 51, 75
6, 63550, Note_on_c, 9, 51, 0
6, 63552, Note_on_c, 9, 51, 75
6, 63646, Note_on_c, 9, 51, 0
6, 63648, Note_on_c, 9, 51, 75
6, 63742, Note_on_c, 9, 51, 0
6, 63744, Note_on_c, 9, 51, 75
6, 63838, Note_on_c, 9, 51, 0
6, 63840, Note_on_c, 9, 51, 75
6, 63934, Note_on_c, 9, 51, 0
6, 63936, Note_on_c, 9, 51, 75
6, 64030, Note_on_c, 9, 51, 0
6, 64032, Note_on_c, 9, 51, 75
6, 64126, Note_on_c, 9, 51, 0
6, 64128, Note_on_c, 9, 51, 75
6, 64222, Note_on_c, 9, 51, 0
6, 64224, Note_on_c, 9, 51, 75
6, 64318, Note_on_c, 9, 51, 0
6, 64320, Note_on_c, 9, 51, 75
6, 64414, Note_on_c, 9, 51, 0
6, 64416, Note_on_c, 9, 51, 75
6, 64510, Note_on_c, 9, 51, 0
6, 64512, Note_on_c, 9, 51, 75
6, 64606, Note_on_c, 9, 51, 0
6, 64608, Note_on_c, 9, 51, 75
6, 64702, Note_on_c, 9, 51, 0
6, 64704, Note_on_c, 9, 51, 75
6, 64798, Note_on_c, 9, 51, 0
6, 64800, Note_on_c, 9, 51, 75
6, 64894, Note_on_c, 9, 51, 0
6, 64896, Note_on_c, 9, 57, 75
6, 65056, Note_on_c, 9, 57, 0
6, 65088, Note_on_c, 9, 57, 75
6, 65616, Note_on_c, 9, 57, 0
6, 66048, Note_on_c, 9, 51, 75
6, 66142, Note_on_c, 9, 51, 0
6, 66144, Note_on_c, 9, 51, 75
6, 66238, Note_on_c, 9, 51, 0
6, 66240, Note_on_c, 9, 51, 75
6, 66334, Note_on_c, 9, 51, 0
6, 66336, Note_on_c, 9, 51, 75
6, 66430, Note_on_c, 9, 51, 0
6, 66432, Note_on_c, 9, 51, 75
6, 66526, Note_on_c, 9, 51, 0
6, 66528, Note_on_c, 9, 51, 75
6, 66622, Note_on_c, 9, 51, 0
6, 66624, Note_on_c, 9, 51, 75
6, 66718, Note_on_c, 9, 51, 0
6, 66720, Note_on_c, 9, 51, 75
6, 66814, Note_on_c, 9, 51, 0
6, 66816, Note_on_c, 9, 51, 75
6, 66910, Note_on_c, 9, 51, 0
6, 66912, Note_on_c, 9, 51, 75
6, 67006, Note_on_c, 9, 51, 0
6, 67008, Note_on_c, 9, 51, 75
6, 67102, Note_on_c, 9, 51, 0
6, 67104, Note_on_c, 9, 51, 75
6, 67198, Note_on_c, 9, 51, 0
6, 67200, Note_on_c, 9, 51, 75
6, 67294, Note_on_c, 9, 51, 0
6, 67296, Note_on_c, 9, 51, 75
6, 67390, Note_on_c, 9, 51, 0
6, 67392, Note_on_c, 9, 51, 75
6, 67486, Note_on_c, 9, 51, 0
6, 67488, Note_on_c, 9, 51, 75
6, 67582, Note_on_c, 9, 51, 0
6, 67584, Note_on_c, 9, 51, 75
6, 67678, Note_on_c, 9, 51, 0
6, 67680, Note_on_c, 9, 51, 75
6, 67774, Note_on_c, 9, 51, 0
6, 67776, Note_on_c, 9, 51, 75
6, 67870, Note_on_c, 9, 51, 0
6, 67872, Note_on_c, 9, 51, 75
6, 67966, Note_on_c, 9, 51, 0
6, 67968, Note_on_c, 9, 51, 75
6, 68062, Note_on_c, 9, 51, 0
6, 68064, Note_on_c, 9, 51, 75
6, 68158, Note_on_c, 9, 51, 0
6, 68160, Note_on_c, 9, 51, 75
6, 68254, Note_on_c, 9, 51, 0
6, 68256, Note_on_c, 9, 51, 75
6, 68350, Note_on_c, 9, 51, 0
6, 68352, Note_on_c, 9, 51, 75
6, 68446, Note_on_c, 9, 51, 0
6, 68448, Note_on_c, 9, 51, 75
6, 68542, Note_on_c, 9, 51, 0
6, 68544, Note_on_c, 9, 51, 75
6, 68638, Note_on_c, 9, 51, 0
6, 68640, Note_on_c, 9, 51, 75
6, 68734, Note_on_c, 9, 51, 0
6, 68736, Note_on_c, 9, 51, 75
6, 68830, Note_on_c, 9, 51, 0
6, 68832, Note_on_c, 9, 51, 75
6, 68926, Note_on_c, 9, 51, 0
6, 68928, Note_on_c, 9, 51, 75
6, 69022, Note_on_c, 9, 51, 0
6, 69024, Note_on_c, 9, 51, 75
6, 69118, Note_on_c, 9, 51, 0
6, 69120, Note_on_c, 9, 51, 75
6, 69214, Note_on_c, 9, 51, 0
6, 69216, Note_on_c, 9, 51, 75
6, 69310, Note_on_c, 9, 51, 0
6, 69312, Note_on_c, 9, 51, 75
6, 69406, Note_on_c, 9, 51, 0
6, 69408, Note_on_c, 9, 51, 75
6, 69502, Note_on_c, 9, 51, 0
6, 69504, Note_on_c, 9, 51, 75
6, 69598, Note_on_c, 9, 51, 0
6, 69600, Note_on_c, 9, 51, 75
6, 69694, Note_on_c, 9, 51, 0
6, 69696, Note_on_c, 9, 51, 75
6, 69790, Note_on_c, 9, 51, 0
6, 69792, Note_on_c, 9, 51, 75
6, 69886, Note_on_c, 9, 51, 0
6, 69888, Note_on_c, 9, 51, 75
6, 69982, Note_on_c, 9, 51, 0
6, 69984, Note_on_c, 9, 51, 75
6, 70078, Note_on_c, 9, 51, 0
6, 70080, Note_on_c, 9, 51, 75
6, 70174, Note_on_c, 9, 51, 0
6, 70176, Note_on_c, 9, 51, 75
6, 70270, Note_on_c, 9, 51, 0
6, 70272, Note_on_c, 9, 51, 75
6, 70366, Note_on_c, 9, 51, 0
6, 70368, Note_on_c, 9, 51, 75
6, 70462, Note_on_c, 9, 51, 0
6, 70464, Note_on_c, 9, 51, 75
6, 70558, Note_on_c, 9, 51, 0
6, 70560, Note_on_c, 9, 51, 75
6, 70654, Note_on_c, 9, 51, 0
6, 70656, Note_on_c, 9, 51, 75
6, 70750, Note_on_c, 9, 51, 0
6, 70752, Note_on_c, 9, 51, 75
6, 70846, Note_on_c, 9, 51, 0
6, 70848, Note_on_c, 9, 51, 75
6, 70942, Note_on_c, 9, 51, 0
6, 70944, Note_on_c, 9, 51, 75
6, 71038, Note_on_c, 9, 51, 0
6, 71040, Note_on_c, 9, 51, 75
6, 71134, Note_on_c, 9, 51, 0
6, 71136, Note_on_c, 9, 51, 75
6, 71230, Note_on_c, 9, 51, 0
6, 71232, Note_on_c, 9, 51, 75
6, 71326, Note_on_c, 9, 51, 0
6, 71328, Note_on_c, 9, 51, 75
6, 71422, Note_on_c, 9, 51, 0
6, 71424, Note_on_c, 9, 51, 75
6, 71518, Note_on_c, 9, 51, 0
6, 71520, Note_on_c, 9, 51, 75
6, 71614, Note_on_c, 9, 51, 0
6, 71616, Note_on_c, 9, 51, 75
6, 71710, Note_on_c, 9, 51, 0
6, 71712, Note_on_c, 9, 51, 75
6, 71806, Note_on_c, 9, 51, 0
6, 71808, Note_on_c, 9, 51, 75
6, 71902, Note_on_c, 9, 51, 0
6, 71904, Note_on_c, 9, 51, 75
6, 71998, Note_on_c, 9, 51, 0
6, 72000, Note_on_c, 9, 51, 75
6, 72094, Note_on_c, 9, 51, 0
6, 72096, Note_on_c, 9, 51, 75
6, 72190, Note_on_c, 9, 51, 0
6, 72192, Note_on_c, 9, 51, 75
6, 72286, Note_on_c, 9, 51, 0
6, 72288, Note_on_c, 9, 51, 75
6, 72382, Note_on_c, 9, 51, 0
6, 72384, Note_on_c, 9, 51, 75
6, 72478, Note_on_c, 9, 51, 0
6, 72480, Note_on_c, 9, 51, 75
6, 72574, Note_on_c, 9, 51, 0
6, 72576, Note_on_c, 9, 51, 75
6, 72670, Note_on_c, 9, 51, 0
6, 72672, Note_on_c, 9, 51, 75
6, 72766, Note_on_c, 9, 51, 0
6, 72768, Note_on_c, 9, 51, 75
6, 72862, Note_on_c, 9, 51, 0
6, 72864, Note_on_c, 9, 51, 75
6, 72958, Note_on_c, 9, 51, 0
6, 72960, Note_on_c, 9, 51, 75
6, 73054, Note_on_c, 9, 51, 0
6, 73056, Note_on_c, 9, 51, 75
6, 73150, Note_on_c, 9, 51, 0
6, 73152, Note_on_c, 9, 51, 75
6, 73246, Note_on_c, 9, 51, 0
6, 73248, Note_on_c, 9, 51, 75
6, 73342, Note_on_c, 9, 51, 0
6, 73344, Note_on_c, 9, 51, 75
6, 73438, Note_on_c, 9, 51, 0
6, 73440, Note_on_c, 9, 51, 75
6, 73534, Note_on_c, 9, 51, 0
6, 73536, Note_on_c, 9, 51, 75
6, 73630, Note_on_c, 9, 51, 0
6, 73632, Note_on_c, 9, 51, 75
6, 73726, Note_on_c, 9, 51, 0
6, 73728, Note_on_c, 9, 51, 75
6, 73822, Note_on_c, 9, 51, 0
6, 73824, Note_on_c, 9, 51, 75
6, 73918, Note_on_c, 9, 51, 0
6, 73920, Note_on_c, 9, 51, 75
6, 74014, Note_on_c, 9, 51, 0
6, 74016, Note_on_c, 9, 51, 75
6, 74110, Note_on_c, 9, 51, 0
6, 74112, Note_on_c, 9, 51, 75
6, 74206, Note_on_c, 9, 51, 0
6, 74208, Note_on_c, 9, 51, 75
6, 74302, Note_on_c, 9, 51, 0
6, 74304, Note_on_c, 9, 51, 75
6, 74398, Note_on_c, 9, 51, 0
6, 74400, Note_on_c, 9, 51, 75
6, 74494, Note_on_c, 9, 51, 0
6, 74496, Note_on_c, 9, 51, 75
6, 74590, Note_on_c, 9, 51, 0
6, 74592, Note_on_c, 9, 51, 75
6, 74686, Note_on_c, 9, 51, 0
6, 74688, Note_on_c, 9, 51, 75
6, 74782, Note_on_c, 9, 51, 0
6, 74784, Note_on_c, 9, 51, 75
6, 74878, Note_on_c, 9, 51, 0
6, 74880, Note_on_c, 9, 51, 75
6, 74974, Note_on_c, 9, 51, 0
6, 74976, Note_on_c, 9, 51, 75
6, 75070, Note_on_c, 9, 51, 0
6, 75072, Note_on_c, 9, 51, 75
6, 75166, Note_on_c, 9, 51, 0
6, 75168, Note_on_c, 9, 51, 75
6, 75262, Note_on_c, 9, 51, 0
6, 75264, Note_on_c, 9, 51, 75
6, 75358, Note_on_c, 9, 51, 0
6, 75360, Note_on_c, 9, 51, 75
6, 75454, Note_on_c, 9, 51, 0
6, 75456, Note_on_c, 9, 51, 75
6, 75550, Note_on_c, 9, 51, 0
6, 75552, Note_on_c, 9, 51, 75
6, 75646, Note_on_c, 9, 51, 0
6, 75648, Note_on_c, 9, 51, 75
6, 75742, Note_on_c, 9, 51, 0
6, 75744, Note_on_c, 9, 51, 75
6, 75838, Note_on_c, 9, 51, 0
6, 75840, Note_on_c, 9, 51, 75
6, 75934, Note_on_c, 9, 51, 0
6, 75936, Note_on_c, 9, 51, 75
6, 76030, Note_on_c, 9, 51, 0
6, 76032, Note_on_c, 9, 51, 75
6, 76126, Note_on_c, 9, 51, 0
6, 76128, Note_on_c, 9, 51, 75
6, 76222, Note_on_c, 9, 51, 0
6, 76224, Note_on_c, 9, 51, 75
6, 76318, Note_on_c, 9, 51, 0
6, 76320, Note_on_c, 9, 51, 75
6, 76414, Note_on_c, 9, 51, 0
6, 76416, Note_on_c, 9, 51, 75
6, 76510, Note_on_c, 9, 51, 0
6, 76512, Note_on_c, 9, 51, 75
6, 76606, Note_on_c, 9, 51, 0
6, 76608, Note_on_c, 9, 51, 75
6, 76702, Note_on_c, 9, 51, 0
6, 76704, Note_on_c, 9, 51, 75
6, 76798, Note_on_c, 9, 51, 0
6, 76800, Note_on_c, 9, 51, 75
6, 76894, Note_on_c, 9, 51, 0
6, 76896, Note_on_c, 9, 51, 75
6, 76990, Note_on_c, 9, 51, 0
6, 76992, Note_on_c, 9, 51, 75
6, 77086, Note_on_c, 9, 51, 0
6, 77088, Note_on_c, 9, 51, 75
6, 77182, Note_on_c, 9, 51, 0
6, 77184, Note_on_c, 9, 51, 75
6, 77278, Note_on_c, 9, 51, 0
6, 77280, Note_on_c, 9, 51, 75
6, 77374, Note_on_c, 9, 51, 0
6, 77376, Note_on_c, 9, 51, 75
6, 77470, Note_on_c, 9, 51, 0
6, 77472, Note_on_c, 9, 51, 75
6, 77566, Note_on_c, 9, 51, 0
6, 77568, Note_on_c, 9, 51, 75
6, 77662, Note_on_c, 9, 51, 0
6, 77664, Note_on_c, 9, 51, 75
6, 77758, Note_on_c, 9, 51, 0
6, 77760, Note_on_c, 9, 51, 75
6, 77854, Note_on_c, 9, 51, 0
6, 77856, Note_on_c, 9, 51, 75
6, 77950, Note_on_c, 9, 51, 0
6, 77952, Note_on_c, 9, 51, 75
6, 78046, Note_on_c, 9, 51, 0
6, 78048, Note_on_c, 9, 51, 75
6, 78142, Note_on_c, 9, 51, 0
6, 78144, Note_on_c, 9, 51, 75
6, 78238, Note_on_c, 9, 51, 0
6, 78240, Note_on_c, 9, 51, 75
6, 78334, Note_on_c, 9, 51, 0
6, 78336, Note_on_c, 9, 51, 75
6, 78430, Note_on_c, 9, 51, 0
6, 78432, Note_on_c, 9, 51, 75
6, 78526, Note_on_c, 9, 51, 0
6, 78528, Note_on_c, 9, 51, 75
6, 78622, Note_on_c, 9, 51, 0
6, 78624, Note_on_c, 9, 51, 75
6, 78718, Note_on_c, 9, 51, 0
6, 78720, Note_on_c, 9, 51, 75
6, 78814, Note_on_c, 9, 51, 0
6, 78816, Note_on_c, 9, 51, 75
6, 78910, Note_on_c, 9, 51, 0
6, 78912, Note_on_c, 9, 51, 75
6, 79006, Note_on_c, 9, 51, 0
6, 79008, Note_on_c, 9, 51, 75
6, 79102, Note_on_c, 9, 51, 0
6, 79104, Note_on_c, 9, 51, 75
6, 79198, Note_on_c, 9, 51, 0
6, 79200, Note_on_c, 9, 51, 75
6, 79294, Note_on_c, 9, 51, 0
6, 79296, Note_on_c, 9, 51, 75
6, 79390, Note_on_c, 9, 51, 0
6, 79392, Note_on_c, 9, 51, 75
6, 79486, Note_on_c, 9, 51, 0
6, 79488, Note_on_c, 9, 51, 75
6, 79648, Note_on_c, 9, 51, 0
6, 79680, Note_on_c, 9, 51, 67
6, 79840, Note_on_c, 9, 51, 0
6, 79872, Note_on_c, 9, 51, 59
6, 80032, Note_on_c, 9, 51, 0
6, 80064, Note_on_c, 9, 51, 51
6, 80224, Note_on_c, 9, 51, 0
6, 80256, Note_on_c, 9, 51, 43
6, 80416, Note_on_c, 9, 51, 0
6, 80448, Note_on_c, 9, 51, 35
6, 80608, Note_on_c, 9, 51, 0
6, 80640, Note_on_c, 9, 51, 27
6, 80800, Note_on_c, 9, 51, 0
6, 80832, Note_on_c, 9, 51, 19
6, 80992, Note_on_c, 9, 51, 0
6, 81024, Note_on_c, 9, 51, 10
6, 81184, Note_on_c, 9, 51, 0
6, 81216, Note_on_c, 9, 51, 10
6, 81376, Note_on_c, 9, 51, 0
6, 81408, Note_on_c, 9, 51, 10
6, 81568, Note_on_c, 9, 51, 0
6, 81600, Note_on_c, 9, 51, 10
6, 81760, Note_on_c, 9, 51, 0
6, 81792, Note_on_c, 9, 51, 10
6, 81952, Note_on_c, 9, 51, 0
6, 81984, Note_on_c, 9, 51, 10
6, 82144, Note_on_c, 9, 51, 0
6, 82176, Note_on_c, 9, 51, 10
6, 82336, Note_on_c, 9, 51, 0
6, 82368, Note_on_c, 9, 51, 10
6, 82528, Note_on_c, 9, 51, 0
6, 82528, End_track
7, 0, Start_track
7, 0, MIDI_port, 0
7, 0, Title_t, "Drums"
7, 0, Control_c, 9, 7, 127
7, 0, Control_c, 9, 10, 64
7, 4608, Note_on_c, 9, 36, 110
7, 4630, Note_on_c, 9, 36, 0
7, 6144, Note_on_c, 9, 35, 127
7, 6144, Note_on_c, 9, 36, 127
7, 6166, Note_on_c, 9, 36, 0
7, 6166, Note_on_c, 9, 35, 0
7, 6912, Note_on_c, 9, 35, 127
7, 6912, Note_on_c, 9, 36, 127
7, 6934, Note_on_c, 9, 36, 0
7, 6934, Note_on_c, 9, 35, 0
7, 7680, Note_on_c, 9, 35, 127
7, 7680, Note_on_c, 9, 36, 127
7, 7702, Note_on_c, 9, 36, 0
7, 7702, Note_on_c, 9, 35, 0
7, 8400, Note_on_c, 9, 35, 127
7, 8400, Note_on_c, 9, 36, 127
7, 8446, Note_on_c, 9, 36, 0
7, 8446, Note_on_c, 9, 35, 0
7, 8448, Note_on_c, 9, 35, 127
7, 8448, Note_on_c, 9, 36, 127
7, 8470, Note_on_c, 9, 36, 0
7, 8470, Note_on_c, 9, 35, 0
7, 9024, Note_on_c, 9, 40, 127
7, 9070, Note_on_c, 9, 40, 0
7, 9072, Note_on_c, 9, 47, 127
7, 9118, Note_on_c, 9, 47, 0
7, 9120, Note_on_c, 9, 45, 127
7, 9214, Note_on_c, 9, 45, 0
7, 9216, Note_on_c, 9, 36, 108
7, 9376, Note_on_c, 9, 36, 0
7, 9408, Note_on_c, 9, 40, 127
7, 9568, Note_on_c, 9, 40, 0
7, 9600, Note_on_c, 9, 36, 108
7, 9760, Note_on_c, 9, 36, 0
7, 9792, Note_on_c, 9, 40, 127
7, 9952, Note_on_c, 9, 40, 0
7, 9984, Note_on_c, 9, 36, 108
7, 10144, Note_on_c, 9, 36, 0
7, 10176, Note_on_c, 9, 40, 127
7, 10336, Note_on_c, 9, 40, 0
7, 10368, Note_on_c, 9, 36, 108
7, 10528, Note_on_c, 9, 36, 0
7, 10560, Note_on_c, 9, 40, 127
7, 10720, Note_on_c, 9, 40, 0
7, 10752, Note_on_c, 9, 36, 108
7, 10912, Note_on_c, 9, 36, 0
7, 10944, Note_on_c, 9, 40, 127
7, 11104, Note_on_c, 9, 40, 0
7, 11136, Note_on_c, 9, 36, 108
7, 11296, Note_on_c, 9, 36, 0
7, 11328, Note_on_c, 9, 40, 127
7, 11488, Note_on_c, 9, 40, 0
7, 11520, Note_on_c, 9, 36, 108
7, 11680, Note_on_c, 9, 36, 0
7, 11712, Note_on_c, 9, 40, 127
7, 11872, Note_on_c, 9, 40, 0
7, 11904, Note_on_c, 9, 36, 108
7, 12064, Note_on_c, 9, 36, 0
7, 12096, Note_on_c, 9, 40, 127
7, 12142, Note_on_c, 9, 40, 0
7, 12144, Note_on_c, 9, 40, 127
7, 12190, Note_on_c, 9, 40, 0
7, 12192, Note_on_c, 9, 48, 108
7, 12286, Note_on_c, 9, 48, 0
7, 12288, Note_on_c, 9, 36, 108
7, 12448, Note_on_c, 9, 36, 0
7, 12480, Note_on_c, 9, 40, 127
7, 12640, Note_on_c, 9, 40, 0
7, 12672, Note_on_c, 9, 36, 108
7, 12832, Note_on_c, 9, 36, 0
7, 12864, Note_on_c, 9, 40, 127
7, 13024, Note_on_c, 9, 40, 0
7, 13056, Note_on_c, 9, 36, 108
7, 13216, Note_on_c, 9, 36, 0
7, 13248, Note_on_c, 9, 40, 127
7, 13408, Note_on_c, 9, 40, 0
7, 13440, Note_on_c, 9, 36, 108
7, 13600, Note_on_c, 9, 36, 0
7, 13632, Note_on_c, 9, 40, 127
7, 13792, Note_on_c, 9, 40, 0
7, 13824, Note_on_c, 9, 36, 108
7, 13984, Note_on_c, 9, 36, 0
7, 14016, Note_on_c, 9, 40, 127
7, 14176, Note_on_c, 9, 40, 0
7, 14208, Note_on_c, 9, 36, 108
7, 14368, Note_on_c, 9, 36, 0
7, 14400, Note_on_c, 9, 40, 127
7, 14560, Note_on_c, 9, 40, 0
7, 14592, Note_on_c, 9, 36, 108
7, 14752, Note_on_c, 9, 36, 0
7, 14784, Note_on_c, 9, 40, 127
7, 14944, Note_on_c, 9, 40, 0
7, 14976, Note_on_c, 9, 36, 108
7, 15136, Note_on_c, 9, 36, 0
7, 15168, Note_on_c, 9, 36, 108
7, 15214, Note_on_c, 9, 36, 0
7, 15216, Note_on_c, 9, 36, 108
7, 15262, Note_on_c, 9, 36, 0
7, 15264, Note_on_c, 9, 36, 108
7, 15358, Note_on_c, 9, 36, 0
7, 15360, Note_on_c, 9, 36, 92
7, 15520, Note_on_c, 9, 36, 0
7, 15552, Note_on_c, 9, 36, 127
7, 15552, Note_on_c, 9, 40, 127
7, 15712, Note_on_c, 9, 40, 0
7, 15712, Note_on_c, 9, 36, 0
7, 15744, Note_on_c, 9, 36, 92
7, 15904, Note_on_c, 9, 36, 0
7, 15936, Note_on_c, 9, 36, 127
7, 15936, Note_on_c, 9, 40, 127
7, 16096, Note_on_c, 9, 40, 0
7, 16096, Note_on_c, 9, 36, 0
7, 16128, Note_on_c, 9, 36, 92
7, 16288, Note_on_c, 9, 36, 0
7, 16320, Note_on_c, 9, 36, 127
7, 16320, Note_on_c, 9, 40, 127
7, 16480, Note_on_c, 9, 40, 0
7, 16480, Note_on_c, 9, 36, 0
7, 16512, Note_on_c, 9, 36, 92
7, 16672, Note_on_c, 9, 36, 0
7, 16704, Note_on_c, 9, 36, 127
7, 16704, Note_on_c, 9, 40, 127
7, 16864, Note_on_c, 9, 40, 0
7, 16864, Note_on_c, 9, 36, 0
7, 16896, Note_on_c, 9, 36, 92
7, 17056, Note_on_c, 9, 36, 0
7, 17088, Note_on_c, 9, 36, 127
7, 17088, Note_on_c, 9, 40, 127
7, 17248, Note_on_c, 9, 40, 0
7, 17248, Note_on_c, 9, 36, 0
7, 17280, Note_on_c, 9, 36, 92
7, 17440, Note_on_c, 9, 36, 0
7, 17472, Note_on_c, 9, 36, 127
7, 17472, Note_on_c, 9, 40, 127
7, 17632, Note_on_c, 9, 40, 0
7, 17632, Note_on_c, 9, 36, 0
7, 17664, Note_on_c, 9, 36, 92
7, 17824, Note_on_c, 9, 36, 0
7, 17856, Note_on_c, 9, 36, 127
7, 17856, Note_on_c, 9, 40, 127
7, 18016, Note_on_c, 9, 40, 0
7, 18016, Note_on_c, 9, 36, 0
7, 18048, Note_on_c, 9, 48, 108
7, 18094, Note_on_c, 9, 48, 0
7, 18096, Note_on_c, 9, 48, 108
7, 18190, Note_on_c, 9, 48, 0
7, 18192, Note_on_c, 9, 47, 108
7, 18238, Note_on_c, 9, 47, 0
7, 18240, Note_on_c, 9, 47, 108
7, 18334, Note_on_c, 9, 47, 0
7, 18336, Note_on_c, 9, 45, 108
7, 18382, Note_on_c, 9, 45, 0
7, 18384, Note_on_c, 9, 45, 108
7, 18430, Note_on_c, 9, 45, 0
7, 18432, Note_on_c, 9, 36, 127
7, 18592, Note_on_c, 9, 36, 0
7, 18624, Note_on_c, 9, 36, 127
7, 18624, Note_on_c, 9, 40, 127
7, 18784, Note_on_c, 9, 40, 0
7, 18784, Note_on_c, 9, 36, 0
7, 18816, Note_on_c, 9, 36, 92
7, 18976, Note_on_c, 9, 36, 0
7, 19008, Note_on_c, 9, 36, 127
7, 19008, Note_on_c, 9, 40, 127
7, 19168, Note_on_c, 9, 40, 0
7, 19168, Note_on_c, 9, 36, 0
7, 19200, Note_on_c, 9, 36, 92
7, 19360, Note_on_c, 9, 36, 0
7, 19392, Note_on_c, 9, 36, 127
7, 19392, Note_on_c, 9, 40, 127
7, 19552, Note_on_c, 9, 40, 0
7, 19552, Note_on_c, 9, 36, 0
7, 19584, Note_on_c, 9, 36, 92
7, 19744, Note_on_c, 9, 36, 0
7, 19776, Note_on_c, 9, 36, 127
7, 19776, Note_on_c, 9, 40, 127
7, 19936, Note_on_c, 9, 40, 0
7, 19936, Note_on_c, 9, 36, 0
7, 19968, Note_on_c, 9, 36, 92
7, 20128, Note_on_c, 9, 36, 0
7, 20160, Note_on_c, 9, 36, 127
7, 20160, Note_on_c, 9, 40, 127
7, 20320, Note_on_c, 9, 40, 0
7, 20320, Note_on_c, 9, 36, 0
7, 20352, Note_on_c, 9, 36, 92
7, 20512, Note_on_c, 9, 36, 0
7, 20544, Note_on_c, 9, 36, 127
7, 20544, Note_on_c, 9, 40, 127
7, 20704, Note_on_c, 9, 40, 0
7, 20704, Note_on_c, 9, 36, 0
7, 20736, Note_on_c, 9, 36, 92
7, 20830, Note_on_c, 9, 36, 0
7, 20832, Note_on_c, 9, 40, 92
7, 20926, Note_on_c, 9, 40, 0
7, 20928, Note_on_c, 9, 36, 127
7, 20928, Note_on_c, 9, 40, 127
7, 21088, Note_on_c, 9, 40, 0
7, 21088, Note_on_c, 9, 36, 0
7, 21120, Note_on_c, 9, 36, 92
7, 21280, Note_on_c, 9, 36, 0
7, 21312, Note_on_c, 9, 48, 92
7, 21358, Note_on_c, 9, 48, 0
7, 21360, Note_on_c, 9, 47, 92
7, 21406, Note_on_c, 9, 47, 0
7, 21408, Note_on_c, 9, 45, 92
7, 21454, Note_on_c, 9, 45, 0
7, 21456, Note_on_c, 9, 43, 92
7, 21502, Note_on_c, 9, 43, 0
7, 21504, Note_on_c, 9, 36, 92
7, 21664, Note_on_c, 9, 36, 0
7, 21696, Note_on_c, 9, 40, 127
7, 21856, Note_on_c, 9, 40, 0
7, 21888, Note_on_c, 9, 36, 92
7, 22048, Note_on_c, 9, 36, 0
7, 22080, Note_on_c, 9, 40, 127
7, 22240, Note_on_c, 9, 40, 0
7, 22272, Note_on_c, 9, 36, 92
7, 22432, Note_on_c, 9, 36, 0
7, 22464, Note_on_c, 9, 40, 127
7, 22624, Note_on_c, 9, 40, 0
7, 22656, Note_on_c, 9, 36, 92
7, 22816, Note_on_c, 9, 36, 0
7, 22848, Note_on_c, 9, 40, 127
7, 23008, Note_on_c, 9, 40, 0
7, 23040, Note_on_c, 9, 36, 92
7, 23200, Note_on_c, 9, 36, 0
7, 23232, Note_on_c, 9, 40, 127
7, 23392, Note_on_c, 9, 40, 0
7, 23424, Note_on_c, 9, 36, 92
7, 23584, Note_on_c, 9, 36, 0
7, 23616, Note_on_c, 9, 40, 127
7, 23776, Note_on_c, 9, 40, 0
7, 23808, Note_on_c, 9, 36, 92
7, 23968, Note_on_c, 9, 36, 0
7, 24000, Note_on_c, 9, 40, 127
7, 24160, Note_on_c, 9, 40, 0
7, 24192, Note_on_c, 9, 36, 92
7, 24352, Note_on_c, 9, 36, 0
7, 24384, Note_on_c, 9, 40, 127
7, 24544, Note_on_c, 9, 40, 0
7, 24576, Note_on_c, 9, 36, 92
7, 24736, Note_on_c, 9, 36, 0
7, 24768, Note_on_c, 9, 40, 127
7, 24928, Note_on_c, 9, 40, 0
7, 24960, Note_on_c, 9, 36, 92
7, 25120, Note_on_c, 9, 36, 0
7, 25152, Note_on_c, 9, 40, 127
7, 25312, Note_on_c, 9, 40, 0
7, 25344, Note_on_c, 9, 36, 92
7, 25504, Note_on_c, 9, 36, 0
7, 25536, Note_on_c, 9, 40, 127
7, 25696, Note_on_c, 9, 40, 0
7, 25728, Note_on_c, 9, 36, 92
7, 25888, Note_on_c, 9, 36, 0
7, 25920, Note_on_c, 9, 40, 127
7, 26080, Note_on_c, 9, 40, 0
7, 26112, Note_on_c, 9, 36, 92
7, 26272, Note_on_c, 9, 36, 0
7, 26304, Note_on_c, 9, 40, 127
7, 26464, Note_on_c, 9, 40, 0
7, 26496, Note_on_c, 9, 36, 127
7, 26656, Note_on_c, 9, 36, 0
7, 26880, Note_on_c, 9, 36, 127
7, 26974, Note_on_c, 9, 36, 0
7, 26976, Note_on_c, 9, 36, 127
7, 27070, Note_on_c, 9, 36, 0
7, 27072, Note_on_c, 9, 40, 127
7, 27118, Note_on_c, 9, 40, 0
7, 27120, Note_on_c, 9, 40, 127
7, 27166, Note_on_c, 9, 40, 0
7, 27168, Note_on_c, 9, 47, 127
7, 27262, Note_on_c, 9, 47, 0
7, 27264, Note_on_c, 9, 36, 127
7, 27424, Note_on_c, 9, 36, 0
7, 27456, Note_on_c, 9, 40, 127
7, 27616, Note_on_c, 9, 40, 0
7, 27648, Note_on_c, 9, 36, 108
7, 27808, Note_on_c, 9, 36, 0
7, 27840, Note_on_c, 9, 40, 127
7, 28000, Note_on_c, 9, 40, 0
7, 28032, Note_on_c, 9, 36, 108
7, 28192, Note_on_c, 9, 36, 0
7, 28224, Note_on_c, 9, 40, 127
7, 28384, Note_on_c, 9, 40, 0
7, 28416, Note_on_c, 9, 36, 108
7, 28576, Note_on_c, 9, 36, 0
7, 28608, Note_on_c, 9, 40, 127
7, 28768, Note_on_c, 9, 40, 0
7, 28800, Note_on_c, 9, 36, 108
7, 28960, Note_on_c, 9, 36, 0
7, 28992, Note_on_c, 9, 40, 127
7, 29152, Note_on_c, 9, 40, 0
7, 29184, Note_on_c, 9, 36, 108
7, 29344, Note_on_c, 9, 36, 0
7, 29376, Note_on_c, 9, 40, 127
7, 29536, Note_on_c, 9, 40, 0
7, 29568, Note_on_c, 9, 36, 108
7, 29728, Note_on_c, 9, 36, 0
7, 29760, Note_on_c, 9, 40, 127
7, 29920, Note_on_c, 9, 40, 0
7, 29952, Note_on_c, 9, 36, 108
7, 30112, Note_on_c, 9, 36, 0
7, 30144, Note_on_c, 9, 40, 127
7, 30304, Note_on_c, 9, 40, 0
7, 30336, Note_on_c, 9, 36, 108
7, 30496, Note_on_c, 9, 36, 0
7, 30528, Note_on_c, 9, 40, 127
7, 30688, Note_on_c, 9, 40, 0
7, 30720, Note_on_c, 9, 36, 108
7, 30880, Note_on_c, 9, 36, 0
7, 30912, Note_on_c, 9, 40, 127
7, 31072, Note_on_c, 9, 40, 0
7, 31104, Note_on_c, 9, 36, 108
7, 31264, Note_on_c, 9, 36, 0
7, 31296, Note_on_c, 9, 40, 127
7, 31456, Note_on_c, 9, 40, 0
7, 31488, Note_on_c, 9, 36, 108
7, 31648, Note_on_c, 9, 36, 0
7, 31680, Note_on_c, 9, 40, 127
7, 31840, Note_on_c, 9, 40, 0
7, 31872, Note_on_c, 9, 36, 108
7, 31966, Note_on_c, 9, 36, 0
7, 31968, Note_on_c, 9, 40, 127
7, 32062, Note_on_c, 9, 40, 0
7, 32064, Note_on_c, 9, 36, 108
7, 32158, Note_on_c, 9, 36, 0
7, 32160, Note_on_c, 9, 40, 127
7, 32254, Note_on_c, 9, 40, 0
7, 32256, Note_on_c, 9, 36, 108
7, 32416, Note_on_c, 9, 36, 0
7, 32448, Note_on_c, 9, 40, 127
7, 32494, Note_on_c, 9, 40, 0
7, 32496, Note_on_c, 9, 40, 127
7, 32542, Note_on_c, 9, 40, 0
7, 32544, Note_on_c, 9, 47, 108
7, 32590, Note_on_c, 9, 47, 0
7, 32592, Note_on_c, 9, 45, 108
7, 32638, Note_on_c, 9, 45, 0
7, 32640, Note_on_c, 9, 36, 108
7, 32800, Note_on_c, 9, 36, 0
7, 32832, Note_on_c, 9, 40, 127
7, 32992, Note_on_c, 9, 40, 0
7, 33024, Note_on_c, 9, 36, 108
7, 33184, Note_on_c, 9, 36, 0
7, 33216, Note_on_c, 9, 40, 127
7, 33376, Note_on_c, 9, 40, 0
7, 33408, Note_on_c, 9, 36, 108
7, 33568, Note_on_c, 9, 36, 0
7, 33600, Note_on_c, 9, 40, 127
7, 33760, Note_on_c, 9, 40, 0
7, 33792, Note_on_c, 9, 36, 108
7, 33952, Note_on_c, 9, 36, 0
7, 33984, Note_on_c, 9, 40, 127
7, 34144, Note_on_c, 9, 40, 0
7, 34176, Note_on_c, 9, 36, 108
7, 34336, Note_on_c, 9, 36, 0
7, 34368, Note_on_c, 9, 40, 127
7, 34528, Note_on_c, 9, 40, 0
7, 34560, Note_on_c, 9, 36, 108
7, 34720, Note_on_c, 9, 36, 0
7, 34752, Note_on_c, 9, 40, 127
7, 34912, Note_on_c, 9, 40, 0
7, 34944, Note_on_c, 9, 36, 108
7, 35038, Note_on_c, 9, 36, 0
7, 35040, Note_on_c, 9, 36, 108
7, 35134, Note_on_c, 9, 36, 0
7, 35136, Note_on_c, 9, 40, 127
7, 35230, Note_on_c, 9, 40, 0
7, 35232, Note_on_c, 9, 36, 108
7, 35326, Note_on_c, 9, 36, 0
7, 35328, Note_on_c, 9, 36, 108
7, 35488, Note_on_c, 9, 36, 0
7, 35520, Note_on_c, 9, 36, 127
7, 35520, Note_on_c, 9, 40, 127
7, 35680, Note_on_c, 9, 40, 0
7, 35680, Note_on_c, 9, 36, 0
7, 35712, Note_on_c, 9, 36, 108
7, 35872, Note_on_c, 9, 36, 0
7, 35904, Note_on_c, 9, 36, 127
7, 35904, Note_on_c, 9, 40, 127
7, 36064, Note_on_c, 9, 40, 0
7, 36064, Note_on_c, 9, 36, 0
7, 36096, Note_on_c, 9, 36, 108
7, 36256, Note_on_c, 9, 36, 0
7, 36288, Note_on_c, 9, 36, 127
7, 36288, Note_on_c, 9, 40, 127
7, 36448, Note_on_c, 9, 40, 0
7, 36448, Note_on_c, 9, 36, 0
7, 36480, Note_on_c, 9, 36, 108
7, 36640, Note_on_c, 9, 36, 0
7, 36672, Note_on_c, 9, 36, 127
7, 36672, Note_on_c, 9, 40, 127
7, 36832, Note_on_c, 9, 40, 0
7, 36832, Note_on_c, 9, 36, 0
7, 36864, Note_on_c, 9, 36, 108
7, 37024, Note_on_c, 9, 36, 0
7, 37056, Note_on_c, 9, 36, 127
7, 37056, Note_on_c, 9, 40, 127
7, 37216, Note_on_c, 9, 40, 0
7, 37216, Note_on_c, 9, 36, 0
7, 37248, Note_on_c, 9, 36, 108
7, 37408, Note_on_c, 9, 36, 0
7, 37440, Note_on_c, 9, 36, 127
7, 37440, Note_on_c, 9, 40, 127
7, 37600, Note_on_c, 9, 40, 0
7, 37600, Note_on_c, 9, 36, 0
7, 37632, Note_on_c, 9, 36, 108
7, 37792, Note_on_c, 9, 36, 0
7, 37824, Note_on_c, 9, 40, 127
7, 37984, Note_on_c, 9, 40, 0
7, 38016, Note_on_c, 9, 36, 108
7, 38110, Note_on_c, 9, 36, 0
7, 38112, Note_on_c, 9, 40, 127
7, 38206, Note_on_c, 9, 40, 0
7, 38208, Note_on_c, 9, 36, 108
7, 38302, Note_on_c, 9, 36, 0
7, 38304, Note_on_c, 9, 40, 127
7, 38398, Note_on_c, 9, 40, 0
7, 38400, Note_on_c, 9, 36, 108
7, 38560, Note_on_c, 9, 36, 0
7, 38592, Note_on_c, 9, 40, 127
7, 38638, Note_on_c, 9, 40, 0
7, 38640, Note_on_c, 9, 40, 127
7, 38686, Note_on_c, 9, 40, 0
7, 38688, Note_on_c, 9, 47, 108
7, 38734, Note_on_c, 9, 47, 0
7, 38736, Note_on_c, 9, 45, 108
7, 38782, Note_on_c, 9, 45, 0
7, 38784, Note_on_c, 9, 36, 108
7, 38944, Note_on_c, 9, 36, 0
7, 38976, Note_on_c, 9, 40, 127
7, 39136, Note_on_c, 9, 40, 0
7, 39168, Note_on_c, 9, 36, 108
7, 39328, Note_on_c, 9, 36, 0
7, 39360, Note_on_c, 9, 36, 127
7, 39360, Note_on_c, 9, 40, 127
7, 39520, Note_on_c, 9, 40, 0
7, 39520, Note_on_c, 9, 36, 0
7, 39552, Note_on_c, 9, 36, 108
7, 39712, Note_on_c, 9, 36, 0
7, 39744, Note_on_c, 9, 36, 127
7, 39744, Note_on_c, 9, 40, 127
7, 39904, Note_on_c, 9, 40, 0
7, 39904, Note_on_c, 9, 36, 0
7, 39936, Note_on_c, 9, 36, 108
7, 40096, Note_on_c, 9, 36, 0
7, 40128, Note_on_c, 9, 36, 127
7, 40128, Note_on_c, 9, 40, 127
7, 40288, Note_on_c, 9, 40, 0
7, 40288, Note_on_c, 9, 36, 0
7, 40320, Note_on_c, 9, 36, 108
7, 40480, Note_on_c, 9, 36, 0
7, 40512, Note_on_c, 9, 36, 127
7, 40512, Note_on_c, 9, 40, 127
7, 40672, Note_on_c, 9, 40, 0
7, 40672, Note_on_c, 9, 36, 0
7, 40704, Note_on_c, 9, 36, 127
7, 40864, Note_on_c, 9, 36, 0
7, 40896, Note_on_c, 9, 40, 127
7, 40942, Note_on_c, 9, 40, 0
7, 40944, Note_on_c, 9, 40, 127
7, 40990, Note_on_c, 9, 40, 0
7, 40992, Note_on_c, 9, 47, 127
7, 41038, Note_on_c, 9, 47, 0
7, 41040, Note_on_c, 9, 47, 127
7, 41086, Note_on_c, 9, 47, 0
7, 41088, Note_on_c, 9, 40, 127
7, 41134, Note_on_c, 9, 40, 0
7, 41136, Note_on_c, 9, 40, 127
7, 41182, Note_on_c, 9, 40, 0
7, 41184, Note_on_c, 9, 47, 127
7, 41230, Note_on_c, 9, 47, 0
7, 41232, Note_on_c, 9, 47, 127
7, 41278, Note_on_c, 9, 47, 0
7, 41280, Note_on_c, 9, 40, 127
7, 41326, Note_on_c, 9, 40, 0
7, 41328, Note_on_c, 9, 40, 127
7, 41374, Note_on_c, 9, 40, 0
7, 41376, Note_on_c, 9, 36, 127
7, 41470, Note_on_c, 9, 36, 0
7, 41472, Note_on_c, 9, 36, 108
7, 41632, Note_on_c, 9, 36, 0
7, 41664, Note_on_c, 9, 40, 127
7, 41824, Note_on_c, 9, 40, 0
7, 41856, Note_on_c, 9, 36, 108
7, 42016, Note_on_c, 9, 36, 0
7, 42048, Note_on_c, 9, 40, 127
7, 42208, Note_on_c, 9, 40, 0
7, 42240, Note_on_c, 9, 36, 108
7, 42400, Note_on_c, 9, 36, 0
7, 42432, Note_on_c, 9, 40, 127
7, 42592, Note_on_c, 9, 40, 0
7, 42624, Note_on_c, 9, 36, 108
7, 42784, Note_on_c, 9, 36, 0
7, 42816, Note_on_c, 9, 40, 127
7, 42976, Note_on_c, 9, 40, 0
7, 43008, Note_on_c, 9, 36, 108
7, 43168, Note_on_c, 9, 36, 0
7, 43200, Note_on_c, 9, 40, 127
7, 43360, Note_on_c, 9, 40, 0
7, 43392, Note_on_c, 9, 36, 108
7, 43552, Note_on_c, 9, 36, 0
7, 43584, Note_on_c, 9, 40, 127
7, 43744, Note_on_c, 9, 40, 0
7, 43776, Note_on_c, 9, 36, 108
7, 43936, Note_on_c, 9, 36, 0
7, 43968, Note_on_c, 9, 40, 127
7, 44128, Note_on_c, 9, 40, 0
7, 44160, Note_on_c, 9, 36, 108
7, 44320, Note_on_c, 9, 36, 0
7, 44352, Note_on_c, 9, 40, 127
7, 44512, Note_on_c, 9, 40, 0
7, 44544, Note_on_c, 9, 36, 108
7, 44704, Note_on_c, 9, 36, 0
7, 44736, Note_on_c, 9, 40, 127
7, 44896, Note_on_c, 9, 40, 0
7, 44928, Note_on_c, 9, 36, 108
7, 45088, Note_on_c, 9, 36, 0
7, 45120, Note_on_c, 9, 40, 127
7, 45280, Note_on_c, 9, 40, 0
7, 45312, Note_on_c, 9, 36, 108
7, 45472, Note_on_c, 9, 36, 0
7, 45504, Note_on_c, 9, 40, 127
7, 45664, Note_on_c, 9, 40, 0
7, 45696, Note_on_c, 9, 36, 108
7, 45856, Note_on_c, 9, 36, 0
7, 45888, Note_on_c, 9, 40, 127
7, 46048, Note_on_c, 9, 40, 0
7, 46080, Note_on_c, 9, 36, 108
7, 46240, Note_on_c, 9, 36, 0
7, 46272, Note_on_c, 9, 36, 108
7, 46432, Note_on_c, 9, 36, 0
7, 46464, Note_on_c, 9, 36, 108
7, 46800, Note_on_c, 9, 36, 0
7, 46848, Note_on_c, 9, 47, 108
7, 46894, Note_on_c, 9, 47, 0
7, 46896, Note_on_c, 9, 47, 108
7, 46942, Note_on_c, 9, 47, 0
7, 46944, Note_on_c, 9, 45, 108
7, 47038, Note_on_c, 9, 45, 0
7, 47040, Note_on_c, 9, 47, 108
7, 47086, Note_on_c, 9, 47, 0
7, 47088, Note_on_c, 9, 47, 108
7, 47134, Note_on_c, 9, 47, 0
7, 47136, Note_on_c, 9, 45, 108
7, 47230, Note_on_c, 9, 45, 0
7, 47232, Note_on_c, 9, 36, 127
7, 47392, Note_on_c, 9, 36, 0
7, 47424, Note_on_c, 9, 36, 127
7, 47584, Note_on_c, 9, 36, 0
7, 47616, Note_on_c, 9, 36, 108
7, 48144, Note_on_c, 9, 36, 0
7, 48288, Note_on_c, 9, 36, 127
7, 48382, Note_on_c, 9, 36, 0
7, 48384, Note_on_c, 9, 36, 127
7, 48544, Note_on_c, 9, 36, 0
7, 48576, Note_on_c, 9, 45, 127
7, 48638, Note_on_c, 9, 45, 0
7, 48640, Note_on_c, 9, 45, 127
7, 48702, Note_on_c, 9, 45, 0
7, 48704, Note_on_c, 9, 45, 127
7, 48766, Note_on_c, 9, 45, 0
7, 48768, Note_on_c, 9, 38, 127
7, 48768, Note_on_c, 9, 40, 127
7, 48768, Note_on_c, 9, 50, 127
7, 49104, Note_on_c, 9, 50, 0
7, 49104, Note_on_c, 9, 40, 0
7, 49104, Note_on_c, 9, 38, 0
7, 49344, Note_on_c, 9, 48, 127
7, 49390, Note_on_c, 9, 48, 0
7, 49392, Note_on_c, 9, 48, 127
7, 49438, Note_on_c, 9, 48, 0
7, 49440, Note_on_c, 9, 47, 127
7, 49486, Note_on_c, 9, 47, 0
7, 49488, Note_on_c, 9, 45, 127
7, 49534, Note_on_c, 9, 45, 0
7, 49536, Note_on_c, 9, 36, 127
7, 49696, Note_on_c, 9, 36, 0
7, 49728, Note_on_c, 9, 40, 127
7, 49888, Note_on_c, 9, 40, 0
7, 49920, Note_on_c, 9, 36, 127
7, 50080, Note_on_c, 9, 36, 0
7, 50112, Note_on_c, 9, 40, 127
7, 50272, Note_on_c, 9, 40, 0
7, 50304, Note_on_c, 9, 36, 127
7, 50464, Note_on_c, 9, 36, 0
7, 50496, Note_on_c, 9, 40, 127
7, 50656, Note_on_c, 9, 40, 0
7, 50688, Note_on_c, 9, 36, 127
7, 50848, Note_on_c, 9, 36, 0
7, 50880, Note_on_c, 9, 40, 127
7, 51040, Note_on_c, 9, 40, 0
7, 51072, Note_on_c, 9, 36, 127
7, 51232, Note_on_c, 9, 36, 0
7, 51264, Note_on_c, 9, 40, 127
7, 51424, Note_on_c, 9, 40, 0
7, 51456, Note_on_c, 9, 36, 127
7, 51616, Note_on_c, 9, 36, 0
7, 51648, Note_on_c, 9, 40, 127
7, 51808, Note_on_c, 9, 40, 0
7, 51840, Note_on_c, 9, 36, 127
7, 52000, Note_on_c, 9, 36, 0
7, 52032, Note_on_c, 9, 40, 127
7, 52192, Note_on_c, 9, 40, 0
7, 52224, Note_on_c, 9, 36, 127
7, 52384, Note_on_c, 9, 36, 0
7, 52416, Note_on_c, 9, 40, 127
7, 52576, Note_on_c, 9, 40, 0
7, 52608, Note_on_c, 9, 36, 127
7, 52768, Note_on_c, 9, 36, 0
7, 52800, Note_on_c, 9, 40, 127
7, 52960, Note_on_c, 9, 40, 0
7, 52992, Note_on_c, 9, 36, 127
7, 53152, Note_on_c, 9, 36, 0
7, 53184, Note_on_c, 9, 40, 127
7, 53344, Note_on_c, 9, 40, 0
7, 53376, Note_on_c, 9, 36, 127
7, 53536, Note_on_c, 9, 36, 0
7, 53568, Note_on_c, 9, 40, 127
7, 53728, Note_on_c, 9, 40, 0
7, 53760, Note_on_c, 9, 36, 127
7, 53920, Note_on_c, 9, 36, 0
7, 53952, Note_on_c, 9, 40, 127
7, 54112, Note_on_c, 9, 40, 0
7, 54144, Note_on_c, 9, 36, 127
7, 54304, Note_on_c, 9, 36, 0
7, 54336, Note_on_c, 9, 40, 127
7, 54496, Note_on_c, 9, 40, 0
7, 54528, Note_on_c, 9, 36, 127
7, 54688, Note_on_c, 9, 36, 0
7, 54720, Note_on_c, 9, 40, 127
7, 54880, Note_on_c, 9, 40, 0
7, 54912, Note_on_c, 9, 36, 127
7, 55072, Note_on_c, 9, 36, 0
7, 55104, Note_on_c, 9, 40, 127
7, 55264, Note_on_c, 9, 40, 0
7, 55296, Note_on_c, 9, 36, 127
7, 55456, Note_on_c, 9, 36, 0
7, 55488, Note_on_c, 9, 40, 127
7, 55648, Note_on_c, 9, 40, 0
7, 55680, Note_on_c, 9, 36, 127
7, 55840, Note_on_c, 9, 36, 0
7, 55872, Note_on_c, 9, 40, 127
7, 56032, Note_on_c, 9, 40, 0
7, 56064, Note_on_c, 9, 36, 127
7, 56224, Note_on_c, 9, 36, 0
7, 56256, Note_on_c, 9, 40, 127
7, 56416, Note_on_c, 9, 40, 0
7, 56448, Note_on_c, 9, 36, 127
7, 56608, Note_on_c, 9, 36, 0
7, 56640, Note_on_c, 9, 40, 127
7, 56800, Note_on_c, 9, 40, 0
7, 56832, Note_on_c, 9, 36, 127
7, 56992, Note_on_c, 9, 36, 0
7, 57024, Note_on_c, 9, 40, 127
7, 57184, Note_on_c, 9, 40, 0
7, 57216, Note_on_c, 9, 36, 127
7, 57376, Note_on_c, 9, 36, 0
7, 57408, Note_on_c, 9, 40, 127
7, 57568, Note_on_c, 9, 40, 0
7, 57600, Note_on_c, 9, 36, 127
7, 57760, Note_on_c, 9, 36, 0
7, 57792, Note_on_c, 9, 40, 127
7, 57952, Note_on_c, 9, 40, 0
7, 57984, Note_on_c, 9, 36, 127
7, 58144, Note_on_c, 9, 36, 0
7, 58176, Note_on_c, 9, 40, 127
7, 58336, Note_on_c, 9, 40, 0
7, 58368, Note_on_c, 9, 36, 127
7, 58528, Note_on_c, 9, 36, 0
7, 58560, Note_on_c, 9, 40, 127
7, 58606, Note_on_c, 9, 40, 0
7, 59520, Note_on_c, 9, 40, 127
7, 59566, Note_on_c, 9, 40, 0
7, 59568, Note_on_c, 9, 40, 127
7, 59614, Note_on_c, 9, 40, 0
7, 59616, Note_on_c, 9, 48, 127
7, 59662, Note_on_c, 9, 48, 0
7, 59664, Note_on_c, 9, 48, 127
7, 59710, Note_on_c, 9, 48, 0
7, 59712, Note_on_c, 9, 47, 127
7, 59758, Note_on_c, 9, 47, 0
7, 59760, Note_on_c, 9, 47, 127
7, 59806, Note_on_c, 9, 47, 0
7, 59808, Note_on_c, 9, 45, 127
7, 59854, Note_on_c, 9, 45, 0
7, 59856, Note_on_c, 9, 45, 127
7, 59902, Note_on_c, 9, 45, 0
7, 59904, Note_on_c, 9, 36, 127
7, 59950, Note_on_c, 9, 36, 0
7, 59952, Note_on_c, 9, 36, 127
7, 59998, Note_on_c, 9, 36, 0
7, 60000, Note_on_c, 9, 36, 127
7, 60046, Note_on_c, 9, 36, 0
7, 60048, Note_on_c, 9, 36, 127
7, 60094, Note_on_c, 9, 36, 0
7, 60096, Note_on_c, 9, 40, 127
7, 60190, Note_on_c, 9, 40, 0
7, 60192, Note_on_c, 9, 40, 127
7, 60286, Note_on_c, 9, 40, 0
7, 60288, Note_on_c, 9, 36, 108
7, 60448, Note_on_c, 9, 36, 0
7, 60480, Note_on_c, 9, 40, 127
7, 60640, Note_on_c, 9, 40, 0
7, 60672, Note_on_c, 9, 36, 108
7, 60832, Note_on_c, 9, 36, 0
7, 60864, Note_on_c, 9, 40, 127
7, 61024, Note_on_c, 9, 40, 0
7, 61056, Note_on_c, 9, 36, 108
7, 61216, Note_on_c, 9, 36, 0
7, 61248, Note_on_c, 9, 40, 127
7, 61408, Note_on_c, 9, 40, 0
7, 61440, Note_on_c, 9, 36, 108
7, 61600, Note_on_c, 9, 36, 0
7, 61632, Note_on_c, 9, 40, 127
7, 61792, Note_on_c, 9, 40, 0
7, 61824, Note_on_c, 9, 36, 108
7, 61984, Note_on_c, 9, 36, 0
7, 62016, Note_on_c, 9, 40, 127
7, 62176, Note_on_c, 9, 40, 0
7, 62208, Note_on_c, 9, 36, 108
7, 62368, Note_on_c, 9, 36, 0
7, 62400, Note_on_c, 9, 40, 127
7, 62560, Note_on_c, 9, 40, 0
7, 62592, Note_on_c, 9, 36, 108
7, 62752, Note_on_c, 9, 36, 0
7, 62784, Note_on_c, 9, 40, 127
7, 62944, Note_on_c, 9, 40, 0
7, 62976, Note_on_c, 9, 36, 108
7, 63136, Note_on_c, 9, 36, 0
7, 63168, Note_on_c, 9, 40, 127
7, 63328, Note_on_c, 9, 40, 0
7, 63360, Note_on_c, 9, 36, 108
7, 63520, Note_on_c, 9, 36, 0
7, 63552, Note_on_c, 9, 40, 127
7, 63712, Note_on_c, 9, 40, 0
7, 63744, Note_on_c, 9, 36, 108
7, 63904, Note_on_c, 9, 36, 0
7, 63936, Note_on_c, 9, 40, 127
7, 64096, Note_on_c, 9, 40, 0
7, 64128, Note_on_c, 9, 36, 108
7, 64288, Note_on_c, 9, 36, 0
7, 64320, Note_on_c, 9, 40, 127
7, 64480, Note_on_c, 9, 40, 0
7, 64512, Note_on_c, 9, 36, 108
7, 64672, Note_on_c, 9, 36, 0
7, 64704, Note_on_c, 9, 40, 127
7, 64864, Note_on_c, 9, 40, 0
7, 64896, Note_on_c, 9, 36, 108
7, 65056, Note_on_c, 9, 36, 0
7, 65088, Note_on_c, 9, 36, 108
7, 65248, Note_on_c, 9, 36, 0
7, 65472, Note_on_c, 9, 36, 108
7, 65632, Note_on_c, 9, 36, 0
7, 65664, Note_on_c, 9, 40, 127
7, 65710, Note_on_c, 9, 40, 0
7, 65712, Note_on_c, 9, 40, 127
7, 65758, Note_on_c, 9, 40, 0
7, 65760, Note_on_c, 9, 48, 108
7, 65806, Note_on_c, 9, 48, 0
7, 65808, Note_on_c, 9, 48, 108
7, 65854, Note_on_c, 9, 48, 0
7, 65856, Note_on_c, 9, 47, 108
7, 65902, Note_on_c, 9, 47, 0
7, 65904, Note_on_c, 9, 47, 108
7, 65950, Note_on_c, 9, 47, 0
7, 65952, Note_on_c, 9, 45, 108
7, 65998, Note_on_c, 9, 45, 0
7, 66000, Note_on_c, 9, 45, 108
7, 66046, Note_on_c, 9, 45, 0
7, 66048, Note_on_c, 9, 36, 108
7, 66208, Note_on_c, 9, 36, 0
7, 66240, Note_on_c, 9, 40, 127
7, 66400, Note_on_c, 9, 40, 0
7, 66432, Note_on_c, 9, 36, 108
7, 66592, Note_on_c, 9, 36, 0
7, 66624, Note_on_c, 9, 40, 127
7, 66784, Note_on_c, 9, 40, 0
7, 66816, Note_on_c, 9, 36, 108
7, 66976, Note_on_c, 9, 36, 0
7, 67008, Note_on_c, 9, 40, 127
7, 67168, Note_on_c, 9, 40, 0
7, 67200, Note_on_c, 9, 36, 108
7, 67360, Note_on_c, 9, 36, 0
7, 67392, Note_on_c, 9, 40, 127
7, 67552, Note_on_c, 9, 40, 0
7, 67584, Note_on_c, 9, 36, 108
7, 67744, Note_on_c, 9, 36, 0
7, 67776, Note_on_c, 9, 40, 127
7, 67936, Note_on_c, 9, 40, 0
7, 67968, Note_on_c, 9, 36, 108
7, 68128, Note_on_c, 9, 36, 0
7, 68160, Note_on_c, 9, 40, 127
7, 68320, Note_on_c, 9, 40, 0
7, 68352, Note_on_c, 9, 36, 108
7, 68512, Note_on_c, 9, 36, 0
7, 68544, Note_on_c, 9, 40, 127
7, 68704, Note_on_c, 9, 40, 0
7, 68736, Note_on_c, 9, 36, 108
7, 68896, Note_on_c, 9, 36, 0
7, 68928, Note_on_c, 9, 40, 127
7, 69088, Note_on_c, 9, 40, 0
7, 69120, Note_on_c, 9, 36, 108
7, 69280, Note_on_c, 9, 36, 0
7, 69312, Note_on_c, 9, 40, 127
7, 69472, Note_on_c, 9, 40, 0
7, 69504, Note_on_c, 9, 36, 108
7, 69664, Note_on_c, 9, 36, 0
7, 69696, Note_on_c, 9, 40, 127
7, 69856, Note_on_c, 9, 40, 0
7, 69888, Note_on_c, 9, 36, 108
7, 70048, Note_on_c, 9, 36, 0
7, 70080, Note_on_c, 9, 40, 127
7, 70240, Note_on_c, 9, 40, 0
7, 70272, Note_on_c, 9, 36, 108
7, 70432, Note_on_c, 9, 36, 0
7, 70464, Note_on_c, 9, 40, 127
7, 70624, Note_on_c, 9, 40, 0
7, 70656, Note_on_c, 9, 36, 108
7, 70816, Note_on_c, 9, 36, 0
7, 70848, Note_on_c, 9, 40, 127
7, 71008, Note_on_c, 9, 40, 0
7, 71040, Note_on_c, 9, 36, 108
7, 71200, Note_on_c, 9, 36, 0
7, 71232, Note_on_c, 9, 40, 127
7, 71392, Note_on_c, 9, 40, 0
7, 71424, Note_on_c, 9, 36, 108
7, 71584, Note_on_c, 9, 36, 0
7, 71616, Note_on_c, 9, 40, 127
7, 71776, Note_on_c, 9, 40, 0
7, 71808, Note_on_c, 9, 36, 108
7, 71968, Note_on_c, 9, 36, 0
7, 72000, Note_on_c, 9, 40, 127
7, 72160, Note_on_c, 9, 40, 0
7, 72192, Note_on_c, 9, 36, 108
7, 72352, Note_on_c, 9, 36, 0
7, 72384, Note_on_c, 9, 40, 127
7, 72544, Note_on_c, 9, 40, 0
7, 72576, Note_on_c, 9, 36, 108
7, 72736, Note_on_c, 9, 36, 0
7, 72768, Note_on_c, 9, 40, 127
7, 72928, Note_on_c, 9, 40, 0
7, 72960, Note_on_c, 9, 36, 108
7, 73120, Note_on_c, 9, 36, 0
7, 73152, Note_on_c, 9, 40, 127
7, 73312, Note_on_c, 9, 40, 0
7, 73344, Note_on_c, 9, 36, 108
7, 73390, Note_on_c, 9, 36, 0
7, 73392, Note_on_c, 9, 36, 108
7, 73438, Note_on_c, 9, 36, 0
7, 73440, Note_on_c, 9, 36, 108
7, 73486, Note_on_c, 9, 36, 0
7, 73488, Note_on_c, 9, 36, 108
7, 73534, Note_on_c, 9, 36, 0
7, 73536, Note_on_c, 9, 40, 108
7, 73582, Note_on_c, 9, 40, 0
7, 73584, Note_on_c, 9, 36, 108
7, 73630, Note_on_c, 9, 36, 0
7, 73632, Note_on_c, 9, 36, 108
7, 73678, Note_on_c, 9, 36, 0
7, 73680, Note_on_c, 9, 36, 108
7, 73726, Note_on_c, 9, 36, 0
7, 73728, Note_on_c, 9, 36, 108
7, 73774, Note_on_c, 9, 36, 0
7, 73776, Note_on_c, 9, 36, 108
7, 73822, Note_on_c, 9, 36, 0
7, 73824, Note_on_c, 9, 36, 108
7, 73870, Note_on_c, 9, 36, 0
7, 73872, Note_on_c, 9, 36, 108
7, 73918, Note_on_c, 9, 36, 0
7, 73920, Note_on_c, 9, 40, 108
7, 73966, Note_on_c, 9, 40, 0
7, 73968, Note_on_c, 9, 36, 108
7, 74014, Note_on_c, 9, 36, 0
7, 74016, Note_on_c, 9, 36, 108
7, 74062, Note_on_c, 9, 36, 0
7, 74064, Note_on_c, 9, 36, 108
7, 74110, Note_on_c, 9, 36, 0
7, 74112, Note_on_c, 9, 36, 108
7, 74272, Note_on_c, 9, 36, 0
7, 74304, Note_on_c, 9, 40, 127
7, 74464, Note_on_c, 9, 40, 0
7, 74496, Note_on_c, 9, 36, 108
7, 74656, Note_on_c, 9, 36, 0
7, 74688, Note_on_c, 9, 40, 127
7, 74848, Note_on_c, 9, 40, 0
7, 74880, Note_on_c, 9, 36, 108
7, 75040, Note_on_c, 9, 36, 0
7, 75072, Note_on_c, 9, 40, 127
7, 75232, Note_on_c, 9, 40, 0
7, 75264, Note_on_c, 9, 36, 108
7, 75424, Note_on_c, 9, 36, 0
7, 75456, Note_on_c, 9, 40, 127
7, 75616, Note_on_c, 9, 40, 0
7, 75648, Note_on_c, 9, 36, 108
7, 75808, Note_on_c, 9, 36, 0
7, 75840, Note_on_c, 9, 40, 127
7, 76000, Note_on_c, 9, 40, 0
7, 76032, Note_on_c, 9, 36, 108
7, 76192, Note_on_c, 9, 36, 0
7, 76224, Note_on_c, 9, 40, 127
7, 76384, Note_on_c, 9, 40, 0
7, 76416, Note_on_c, 9, 36, 108
7, 76576, Note_on_c, 9, 36, 0
7, 76608, Note_on_c, 9, 40, 127
7, 76768, Note_on_c, 9, 40, 0
7, 76800, Note_on_c, 9, 36, 108
7, 76960, Note_on_c, 9, 36, 0
7, 76992, Note_on_c, 9, 40, 127
7, 77152, Note_on_c, 9, 40, 0
7, 77184, Note_on_c, 9, 36, 108
7, 77344, Note_on_c, 9, 36, 0
7, 77376, Note_on_c, 9, 40, 127
7, 77536, Note_on_c, 9, 40, 0
7, 77568, Note_on_c, 9, 36, 108
7, 77728, Note_on_c, 9, 36, 0
7, 77760, Note_on_c, 9, 40, 127
7, 77920, Note_on_c, 9, 40, 0
7, 77952, Note_on_c, 9, 36, 108
7, 78112, Note_on_c, 9, 36, 0
7, 78144, Note_on_c, 9, 40, 127
7, 78304, Note_on_c, 9, 40, 0
7, 78336, Note_on_c, 9, 36, 108
7, 78496, Note_on_c, 9, 36, 0
7, 78528, Note_on_c, 9, 40, 127
7, 78688, Note_on_c, 9, 40, 0
7, 78720, Note_on_c, 9, 36, 108
7, 78880, Note_on_c, 9, 36, 0
7, 78912, Note_on_c, 9, 40, 127
7, 79072, Note_on_c, 9, 40, 0
7, 79104, Note_on_c, 9, 36, 108
7, 79264, Note_on_c, 9, 36, 0
7, 79296, Note_on_c, 9, 40, 127
7, 79456, Note_on_c, 9, 40, 0
7, 79488, Note_on_c, 9, 36, 108
7, 79582, Note_on_c, 9, 36, 0
7, 79584, Note_on_c, 9, 36, 102
7, 79630, Note_on_c, 9, 36, 0
7, 79632, Note_on_c, 9, 36, 99
7, 79678, Note_on_c, 9, 36, 0
7, 79680, Note_on_c, 9, 36, 96
7, 79774, Note_on_c, 9, 36, 0
7, 79776, Note_on_c, 9, 36, 90
7, 79822, Note_on_c, 9, 36, 0
7, 79824, Note_on_c, 9, 36, 87
7, 79870, Note_on_c, 9, 36, 0
7, 79872, Note_on_c, 9, 36, 84
7, 79966, Note_on_c, 9, 36, 0
7, 79968, Note_on_c, 9, 36, 78
7, 80014, Note_on_c, 9, 36, 0
7, 80016, Note_on_c, 9, 36, 75
7, 80062, Note_on_c, 9, 36, 0
7, 80064, Note_on_c, 9, 36, 72
7, 80158, Note_on_c, 9, 36, 0
7, 80160, Note_on_c, 9, 36, 66
7, 80206, Note_on_c, 9, 36, 0
7, 80208, Note_on_c, 9, 36, 63
7, 80254, Note_on_c, 9, 36, 0
7, 80256, Note_on_c, 9, 36, 60
7, 80350, Note_on_c, 9, 36, 0
7, 80352, Note_on_c, 9, 36, 54
7, 80398, Note_on_c, 9, 36, 0
7, 80400, Note_on_c, 9, 36, 51
7, 80446, Note_on_c, 9, 36, 0
7, 80448, Note_on_c, 9, 36, 48
7, 80542, Note_on_c, 9, 36, 0
7, 80544, Note_on_c, 9, 36, 42
7, 80590, Note_on_c, 9, 36, 0
7, 80592, Note_on_c, 9, 36, 39
7, 80638, Note_on_c, 9, 36, 0
7, 80640, Note_on_c, 9, 36, 36
7, 80734, Note_on_c, 9, 36, 0
7, 80736, Note_on_c, 9, 36, 30
7, 80782, Note_on_c, 9, 36, 0
7, 80784, Note_on_c, 9, 36, 27
7, 80830, Note_on_c, 9, 36, 0
7, 80832, Note_on_c, 9, 36, 24
7, 80926, Note_on_c, 9, 36, 0
7, 80928, Note_on_c, 9, 36, 17
7, 80974, Note_on_c, 9, 36, 0
7, 80976, Note_on_c, 9, 36, 14
7, 81022, Note_on_c, 9, 36, 0
7, 81024, Note_on_c, 9, 36, 10
7, 81118, Note_on_c, 9, 36, 0
7, 81120, Note_on_c, 9, 36, 10
7, 81166, Note_on_c, 9, 36, 0
7, 81168, Note_on_c, 9, 36, 10
7, 81214, Note_on_c, 9, 36, 0
7, 81216, Note_on_c, 9, 36, 10
7, 81310, Note_on_c, 9, 36, 0
7, 81312, Note_on_c, 9, 36, 10
7, 81358, Note_on_c, 9, 36, 0
7, 81360, Note_on_c, 9, 36, 10
7, 81406, Note_on_c, 9, 36, 0
7, 81408, Note_on_c, 9, 36, 10
7, 81502, Note_on_c, 9, 36, 0
7, 81504, Note_on_c, 9, 36, 10
7, 81550, Note_on_c, 9, 36, 0
7, 81552, Note_on_c, 9, 36, 10
7, 81598, Note_on_c, 9, 36, 0
7, 81600, Note_on_c, 9, 36, 10
7, 81694, Note_on_c, 9, 36, 0
7, 81696, Note_on_c, 9, 36, 10
7, 81742, Note_on_c, 9, 36, 0
7, 81744, Note_on_c, 9, 36, 10
7, 81790, Note_on_c, 9, 36, 0
7, 81792, Note_on_c, 9, 36, 10
7, 81886, Note_on_c, 9, 36, 0
7, 81888, Note_on_c, 9, 36, 10
7, 81934, Note_on_c, 9, 36, 0
7, 81936, Note_on_c, 9, 36, 10
7, 81982, Note_on_c, 9, 36, 0
7, 81984, Note_on_c, 9, 36, 10
7, 82078, Note_on_c, 9, 36, 0
7, 82080, Note_on_c, 9, 36, 10
7, 82126, Note_on_c, 9, 36, 0
7, 82128, Note_on_c, 9, 36, 10
7, 82174, Note_on_c, 9, 36, 0
7, 82176, Note_on_c, 9, 36, 10
7, 82270, Note_on_c, 9, 36, 0
7, 82272, Note_on_c, 9, 36, 10
7, 82318, Note_on_c, 9, 36, 0
7, 82320, Note_on_c, 9, 36, 10
7, 82366, Note_on_c, 9, 36, 0
7, 82368, Note_on_c, 9, 36, 10
7, 82462, Note_on_c, 9, 36, 0
7, 82464, Note_on_c, 9, 36, 10
7, 82510, Note_on_c, 9, 36, 0
7, 82512, Note_on_c, 9, 36, 10
7, 82558, Note_on_c, 9, 36, 0
7, 82558, End_track
0, 0, End_of_file
