0, 0, Header, 1, 12, 192
1, 0, Start_track
1, 0, Time_signature, 4, 2, 24, 8
1, 0, Key_signature, 4, "major"
1, 0, Tempo, 759493
1, 0, Marker_t, "MIDI MUSIC UK/USA  WIDE WORLD COPYRIGHTS"
1, 0, Marker_t, "COMPUTER DATA \016\001"
1, 0, Marker_t, "DEFAULT           9 "
1, 0, Marker_t, "DEFAULT           2 "
1, 0, Marker_t, "DEFAULT           3 "
1, 0, Marker_t, "DEFAULT           4 "
1, 0, Marker_t, "DEFAULT           5 "
1, 0, Marker_t, "DEFAULT           6 "
1, 0, Marker_t, "DEFAULT           7 "
1, 0, Marker_t, "DEFAULT           8 "
1, 0, Marker_t, "DEFAULT           9 "
1, 59511, Tempo, 845070
1, 59743, Tempo, 952380
1, 59943, Tempo, 1016949
1, 60030, Tempo, 1090909
1, 60142, Tempo, 1224489
1, 60273, Tempo, 1333333
1, 60273, End_track
2, 0, Start_track
2, 0, MIDI_port, 0
2, 0, Title_t, "Soft Karaoke"
2, 0, Text_t, "@KMIDI KARAOKE FILE"
2, 0, Text_t, "@V0100"
2, 0, Text_t, "@I Lyrics entered by Raphael Pungin"
2, 0, Text_t, "@I email: br326@cleveland.freenet.edu"
2, 0, End_track
3, 0, Start_track
3, 0, MIDI_port, 0
3, 0, Title_t, "Words"
3, 0, Text_t, "@LENGL"
3, 0, Text_t, "@TWHEN I FALL IN LOVE"
3, 0, Text_t, "@TMusic: Victor Young / Words: Edward Heyman"
3, 4032, Text_t, "\\When"
3, 4128, Text_t, " I"
3, 4224, Text_t, " fall"
3, 4512, Text_t, " in"
3, 4608, Text_t, " love,"
3, 5568, Text_t, "/it"
3, 5664, Text_t, " will"
3, 5760, Text_t, " be"
3, 6048, Text_t, " for"
3, 6144, Text_t, "e"
3, 6336, Text_t, "ver."
3, 7104, Text_t, "/Or"
3, 7200, Text_t, " I'll"
3, 7296, Text_t, " ne"
3, 7584, Text_t, "ver"
3, 7680, Text_t, " fall"
3, 8064, Text_t, " in"
3, 8448, Text_t, " love."
3, 9792, Text_t, "\\In"
3, 9888, Text_t, " a"
3, 9984, Text_t, " rest"
3, 10272, Text_t, "less"
3, 10368, Text_t, " world"
3, 10656, Text_t, " like"
3, 10752, Text_t, " this"
3, 10896, Text_t, " is"
3, 11408, Text_t, "/love"
3, 11464, Text_t, " is"
3, 11520, Text_t, " en"
3, 11771, Text_t, "ded"
3, 11840, Text_t, " be"
3, 11904, Text_t, "fore"
3, 12051, Text_t, " it's"
3, 12168, Text_t, " be"
3, 12288, Text_t, "gun,"
3, 12963, Text_t, "\\and"
3, 13011, Text_t, " too"
3, 13056, Text_t, " ma"
3, 13344, Text_t, "ny"
3, 13440, Text_t, " moon"
3, 13728, Text_t, "light"
3, 13824, Text_t, " kis"
3, 14016, Text_t, "ses"
3, 14472, Text_t, "/seem"
3, 14536, Text_t, " to"
3, 14592, Text_t, " cool"
3, 14840, Text_t, " in"
3, 14917, Text_t, " the"
3, 14976, Text_t, " warmth"
3, 15117, Text_t, " of"
3, 15245, Text_t, " the"
3, 15360, Text_t, " sun."
3, 16320, Text_t, "\\When"
3, 16416, Text_t, " I"
3, 16512, Text_t, " give"
3, 16800, Text_t, " my"
3, 16896, Text_t, " heart,"
3, 17856, Text_t, "/it"
3, 17952, Text_t, " will"
3, 18048, Text_t, " be"
3, 18336, Text_t, " com"
3, 18432, Text_t, "plete"
3, 18624, Text_t, "ly."
3, 19392, Text_t, "/Or"
3, 19488, Text_t, " I'll"
3, 19584, Text_t, " ne"
3, 19872, Text_t, "ver"
3, 19968, Text_t, " give"
3, 20544, Text_t, " my"
3, 20736, Text_t, " heart."
3, 21888, Text_t, "\\And "
3, 22080, Text_t, "the"
3, 22272, Text_t, " mo"
3, 22464, Text_t, "ment"
3, 22848, Text_t, " I"
3, 22944, Text_t, " can"
3, 23040, Text_t, " feel"
3, 23232, Text_t, " that"
3, 23712, Text_t, "/you"
3, 23808, Text_t, " feel"
3, 24192, Text_t, " that"
3, 24384, Text_t, " way"
3, 24576, Text_t, " too"
3, 25248, Text_t, "/is"
3, 25344, Text_t, " when"
3, 25536, Text_t, " I"
3, 25728, Text_t, " fall"
3, 26016, Text_t, " in"
3, 26112, Text_t, " love"
3, 26496, Text_t, " with"
3, 26880, Text_t, " you."
3, 37824, Text_t, "\\When"
3, 37920, Text_t, " I"
3, 38016, Text_t, " give"
3, 38304, Text_t, " my"
3, 38400, Text_t, " heart,"
3, 39360, Text_t, "/it"
3, 39456, Text_t, " will"
3, 39552, Text_t, " be"
3, 39840, Text_t, " com"
3, 39936, Text_t, "plete"
3, 40128, Text_t, "ly."
3, 40896, Text_t, "/Or"
3, 40992, Text_t, " I'll"
3, 41088, Text_t, " ne"
3, 41376, Text_t, "ver"
3, 41472, Text_t, " give"
3, 42048, Text_t, " my"
3, 42240, Text_t, " heart."
3, 43392, Text_t, "\\And "
3, 43584, Text_t, "the"
3, 43776, Text_t, " mo"
3, 43968, Text_t, "ment"
3, 44352, Text_t, " I"
3, 44448, Text_t, " can"
3, 44544, Text_t, " feel"
3, 44736, Text_t, " that"
3, 45216, Text_t, "/you"
3, 45312, Text_t, " feel"
3, 45696, Text_t, " that"
3, 45888, Text_t, " way"
3, 46080, Text_t, " too"
3, 46752, Text_t, "/is"
3, 46848, Text_t, " when"
3, 47040, Text_t, " I"
3, 47232, Text_t, " fall"
3, 47520, Text_t, " in"
3, 47616, Text_t, " love"
3, 48000, Text_t, " with"
3, 48384, Text_t, " you."
3, 54144, Text_t, "\\And "
3, 54336, Text_t, "the"
3, 54528, Text_t, " mo"
3, 54720, Text_t, "ment"
3, 55104, Text_t, " I"
3, 55200, Text_t, " can"
3, 55296, Text_t, " feel"
3, 55488, Text_t, " that"
3, 55968, Text_t, "/you"
3, 56064, Text_t, " feel"
3, 56448, Text_t, " that"
3, 56640, Text_t, " way"
3, 56832, Text_t, " too"
3, 57504, Text_t, "/is"
3, 57600, Text_t, " when"
3, 57792, Text_t, " I"
3, 57984, Text_t, " fall"
3, 58272, Text_t, " in"
3, 58368, Text_t, " love"
3, 58752, Text_t, " with"
3, 59136, Text_t, " you."
3, 59136, End_track
4, 0, Start_track
4, 0, MIDI_port, 0
4, 0, Title_t, "Melody"
4, 0, Program_c, 3, 65
4, 0, Control_c, 3, 7, 127
4, 0, Control_c, 3, 10, 64
4, 0, Control_c, 3, 121, 0
4, 2, Control_c, 3, 91, 10
4, 3851, Note_on_c, 3, 59, 95
4, 4038, Note_on_c, 3, 64, 76
4, 4060, Note_on_c, 3, 59, 0
4, 4228, Note_on_c, 3, 69, 85
4, 4247, Note_on_c, 3, 64, 0
4, 4547, Note_on_c, 3, 68, 95
4, 4552, Note_on_c, 3, 69, 0
4, 4654, Note_on_c, 3, 64, 87
4, 4668, Note_on_c, 3, 68, 0
4, 5460, Note_on_c, 3, 64, 0
4, 5513, Note_on_c, 3, 59, 87
4, 5636, Note_on_c, 3, 64, 76
4, 5663, Note_on_c, 3, 59, 0
4, 5772, Note_on_c, 3, 69, 87
4, 5792, Note_on_c, 3, 64, 0
4, 6073, Note_on_c, 3, 68, 100
4, 6085, Note_on_c, 3, 69, 0
4, 6174, Note_on_c, 3, 64, 85
4, 6194, Note_on_c, 3, 68, 0
4, 6299, Note_on_c, 3, 66, 87
4, 6319, Note_on_c, 3, 64, 0
4, 6948, Note_on_c, 3, 66, 0
4, 7041, Note_on_c, 3, 59, 89
4, 7158, Note_on_c, 3, 64, 85
4, 7180, Note_on_c, 3, 59, 0
4, 7302, Note_on_c, 3, 73, 89
4, 7337, Note_on_c, 3, 64, 0
4, 7553, Note_on_c, 3, 71, 80
4, 7572, Note_on_c, 3, 73, 0
4, 7696, Note_on_c, 3, 69, 85
4, 7717, Note_on_c, 3, 71, 0
4, 8075, Note_on_c, 3, 68, 87
4, 8096, Note_on_c, 3, 69, 0
4, 8457, Note_on_c, 3, 66, 93
4, 8470, Note_on_c, 3, 68, 0
4, 9231, Note_on_c, 3, 66, 0
4, 9739, Note_on_c, 3, 68, 105
4, 9856, Note_on_c, 3, 69, 85
4, 9876, Note_on_c, 3, 68, 0
4, 9977, Note_on_c, 3, 71, 102
4, 9995, Note_on_c, 3, 69, 0
4, 10254, Note_on_c, 3, 64, 100
4, 10266, Note_on_c, 3, 71, 0
4, 10345, Note_on_c, 3, 64, 0
4, 10385, Note_on_c, 3, 64, 100
4, 10650, Note_on_c, 3, 64, 0
4, 10676, Note_on_c, 3, 64, 80
4, 10761, Note_on_c, 3, 68, 105
4, 10776, Note_on_c, 3, 64, 0
4, 10894, Note_on_c, 3, 66, 91
4, 10906, Note_on_c, 3, 68, 0
4, 11354, Note_on_c, 3, 66, 0
4, 11404, Note_on_c, 3, 68, 98
4, 11467, Note_on_c, 3, 69, 87
4, 11480, Note_on_c, 3, 68, 0
4, 11550, Note_on_c, 3, 71, 107
4, 11563, Note_on_c, 3, 69, 0
4, 11784, Note_on_c, 3, 68, 87
4, 11801, Note_on_c, 3, 71, 0
4, 11852, Note_on_c, 3, 69, 85
4, 11865, Note_on_c, 3, 68, 0
4, 11934, Note_on_c, 3, 71, 98
4, 11948, Note_on_c, 3, 69, 0
4, 12052, Note_on_c, 3, 68, 93
4, 12063, Note_on_c, 3, 71, 0
4, 12166, Note_on_c, 3, 69, 89
4, 12176, Note_on_c, 3, 68, 0
4, 12308, Note_on_c, 3, 71, 91
4, 12318, Note_on_c, 3, 69, 0
4, 12892, Note_on_c, 3, 71, 0
4, 12939, Note_on_c, 3, 69, 89
4, 12996, Note_on_c, 3, 71, 93
4, 13012, Note_on_c, 3, 69, 0
4, 13073, Note_on_c, 3, 73, 105
4, 13087, Note_on_c, 3, 71, 0
4, 13358, Note_on_c, 3, 66, 89
4, 13383, Note_on_c, 3, 73, 0
4, 13414, Note_on_c, 3, 66, 0
4, 13444, Note_on_c, 3, 66, 85
4, 13732, Note_on_c, 3, 66, 0
4, 13748, Note_on_c, 3, 66, 87
4, 13833, Note_on_c, 3, 69, 100
4, 13847, Note_on_c, 3, 66, 0
4, 13992, Note_on_c, 3, 68, 80
4, 14009, Note_on_c, 3, 69, 0
4, 14425, Note_on_c, 3, 68, 0
4, 14478, Note_on_c, 3, 69, 93
4, 14542, Note_on_c, 3, 71, 85
4, 14559, Note_on_c, 3, 69, 0
4, 14622, Note_on_c, 3, 73, 95
4, 14641, Note_on_c, 3, 71, 0
4, 14862, Note_on_c, 3, 69, 85
4, 14874, Note_on_c, 3, 73, 0
4, 14931, Note_on_c, 3, 71, 82
4, 14953, Note_on_c, 3, 69, 0
4, 15008, Note_on_c, 3, 73, 82
4, 15023, Note_on_c, 3, 71, 0
4, 15134, Note_on_c, 3, 69, 87
4, 15147, Note_on_c, 3, 73, 0
4, 15238, Note_on_c, 3, 73, 89
4, 15254, Note_on_c, 3, 69, 0
4, 15368, Note_on_c, 3, 71, 89
4, 15386, Note_on_c, 3, 73, 0
4, 16144, Note_on_c, 3, 71, 0
4, 16272, Note_on_c, 3, 59, 91
4, 16380, Note_on_c, 3, 64, 93
4, 16401, Note_on_c, 3, 59, 0
4, 16524, Note_on_c, 3, 69, 95
4, 16546, Note_on_c, 3, 64, 0
4, 16828, Note_on_c, 3, 68, 102
4, 16842, Note_on_c, 3, 69, 0
4, 16920, Note_on_c, 3, 64, 95
4, 16932, Note_on_c, 3, 68, 0
4, 17684, Note_on_c, 3, 64, 0
4, 17800, Note_on_c, 3, 59, 93
4, 17916, Note_on_c, 3, 64, 91
4, 17932, Note_on_c, 3, 59, 0
4, 18041, Note_on_c, 3, 69, 89
4, 18058, Note_on_c, 3, 64, 0
4, 18363, Note_on_c, 3, 68, 105
4, 18375, Note_on_c, 3, 69, 0
4, 18462, Note_on_c, 3, 64, 87
4, 18484, Note_on_c, 3, 68, 0
4, 18582, Note_on_c, 3, 66, 87
4, 18602, Note_on_c, 3, 64, 0
4, 19265, Note_on_c, 3, 66, 0
4, 19326, Note_on_c, 3, 59, 87
4, 19444, Note_on_c, 3, 64, 87
4, 19460, Note_on_c, 3, 59, 0
4, 19580, Note_on_c, 3, 73, 82
4, 19618, Note_on_c, 3, 64, 0
4, 19894, Note_on_c, 3, 71, 105
4, 19908, Note_on_c, 3, 73, 0
4, 19998, Note_on_c, 3, 69, 87
4, 20023, Note_on_c, 3, 71, 0
4, 20547, Note_on_c, 3, 68, 102
4, 20561, Note_on_c, 3, 69, 0
4, 20753, Note_on_c, 3, 66, 91
4, 20771, Note_on_c, 3, 68, 0
4, 21921, Note_on_c, 3, 66, 0
4, 22150, Note_on_c, 3, 68, 105
4, 22217, Note_on_c, 3, 69, 87
4, 22236, Note_on_c, 3, 68, 0
4, 22308, Note_on_c, 3, 71, 102
4, 22324, Note_on_c, 3, 69, 0
4, 22596, Note_on_c, 3, 64, 95
4, 22648, Note_on_c, 3, 64, 0
4, 22656, Note_on_c, 3, 71, 0
4, 22692, Note_on_c, 3, 64, 93
4, 22700, Note_on_c, 3, 71, 33
4, 22711, Note_on_c, 3, 71, 0
4, 22957, Note_on_c, 3, 64, 0
4, 22987, Note_on_c, 3, 64, 89
4, 23080, Note_on_c, 3, 75, 91
4, 23095, Note_on_c, 3, 64, 0
4, 23251, Note_on_c, 3, 73, 98
4, 23267, Note_on_c, 3, 75, 0
4, 23742, Note_on_c, 3, 61, 122
4, 23745, Note_on_c, 3, 73, 0
4, 23838, Note_on_c, 3, 73, 102
4, 23857, Note_on_c, 3, 61, 0
4, 24020, Note_on_c, 3, 71, 78
4, 24041, Note_on_c, 3, 73, 0
4, 24392, Note_on_c, 3, 73, 89
4, 24413, Note_on_c, 3, 71, 0
4, 24585, Note_on_c, 3, 69, 93
4, 24603, Note_on_c, 3, 73, 0
4, 25097, Note_on_c, 3, 68, 107
4, 25108, Note_on_c, 3, 69, 0
4, 25219, Note_on_c, 3, 66, 100
4, 25241, Note_on_c, 3, 68, 0
4, 25318, Note_on_c, 3, 66, 0
4, 25369, Note_on_c, 3, 59, 98
4, 25542, Note_on_c, 3, 64, 98
4, 25564, Note_on_c, 3, 59, 0
4, 25731, Note_on_c, 3, 69, 89
4, 25748, Note_on_c, 3, 64, 0
4, 26049, Note_on_c, 3, 68, 100
4, 26062, Note_on_c, 3, 69, 0
4, 26155, Note_on_c, 3, 64, 85
4, 26186, Note_on_c, 3, 68, 0
4, 26628, Note_on_c, 3, 66, 85
4, 26643, Note_on_c, 3, 64, 0
4, 26660, Note_on_c, 3, 68, 89
4, 26666, Note_on_c, 3, 66, 0
4, 26694, Note_on_c, 3, 66, 100
4, 26709, Note_on_c, 3, 68, 0
4, 26891, Note_on_c, 3, 64, 107
4, 26905, Note_on_c, 3, 66, 0
4, 27659, Note_on_c, 3, 64, 0
4, 37776, Note_on_c, 3, 59, 91
4, 37884, Note_on_c, 3, 64, 93
4, 37905, Note_on_c, 3, 59, 0
4, 38028, Note_on_c, 3, 69, 95
4, 38050, Note_on_c, 3, 64, 0
4, 38332, Note_on_c, 3, 68, 102
4, 38346, Note_on_c, 3, 69, 0
4, 38424, Note_on_c, 3, 64, 95
4, 38436, Note_on_c, 3, 68, 0
4, 39188, Note_on_c, 3, 64, 0
4, 39304, Note_on_c, 3, 59, 93
4, 39420, Note_on_c, 3, 64, 91
4, 39436, Note_on_c, 3, 59, 0
4, 39545, Note_on_c, 3, 69, 89
4, 39562, Note_on_c, 3, 64, 0
4, 39867, Note_on_c, 3, 68, 105
4, 39879, Note_on_c, 3, 69, 0
4, 39966, Note_on_c, 3, 64, 87
4, 39988, Note_on_c, 3, 68, 0
4, 40086, Note_on_c, 3, 66, 87
4, 40106, Note_on_c, 3, 64, 0
4, 40769, Note_on_c, 3, 66, 0
4, 40830, Note_on_c, 3, 59, 87
4, 40948, Note_on_c, 3, 64, 87
4, 40964, Note_on_c, 3, 59, 0
4, 41084, Note_on_c, 3, 73, 82
4, 41122, Note_on_c, 3, 64, 0
4, 41398, Note_on_c, 3, 71, 105
4, 41412, Note_on_c, 3, 73, 0
4, 41502, Note_on_c, 3, 69, 87
4, 41527, Note_on_c, 3, 71, 0
4, 42051, Note_on_c, 3, 68, 102
4, 42065, Note_on_c, 3, 69, 0
4, 42257, Note_on_c, 3, 66, 91
4, 42275, Note_on_c, 3, 68, 0
4, 43425, Note_on_c, 3, 66, 0
4, 43654, Note_on_c, 3, 68, 105
4, 43721, Note_on_c, 3, 69, 87
4, 43740, Note_on_c, 3, 68, 0
4, 43812, Note_on_c, 3, 71, 102
4, 43828, Note_on_c, 3, 69, 0
4, 44100, Note_on_c, 3, 64, 95
4, 44152, Note_on_c, 3, 64, 0
4, 44160, Note_on_c, 3, 71, 0
4, 44196, Note_on_c, 3, 64, 93
4, 44204, Note_on_c, 3, 71, 33
4, 44215, Note_on_c, 3, 71, 0
4, 44461, Note_on_c, 3, 64, 0
4, 44491, Note_on_c, 3, 64, 89
4, 44584, Note_on_c, 3, 75, 91
4, 44599, Note_on_c, 3, 64, 0
4, 44755, Note_on_c, 3, 73, 98
4, 44771, Note_on_c, 3, 75, 0
4, 45246, Note_on_c, 3, 61, 122
4, 45249, Note_on_c, 3, 73, 0
4, 45342, Note_on_c, 3, 73, 102
4, 45361, Note_on_c, 3, 61, 0
4, 45524, Note_on_c, 3, 71, 78
4, 45545, Note_on_c, 3, 73, 0
4, 45896, Note_on_c, 3, 73, 89
4, 45917, Note_on_c, 3, 71, 0
4, 46089, Note_on_c, 3, 69, 93
4, 46107, Note_on_c, 3, 73, 0
4, 46601, Note_on_c, 3, 68, 107
4, 46612, Note_on_c, 3, 69, 0
4, 46723, Note_on_c, 3, 66, 100
4, 46745, Note_on_c, 3, 68, 0
4, 46822, Note_on_c, 3, 66, 0
4, 46873, Note_on_c, 3, 59, 98
4, 47046, Note_on_c, 3, 64, 98
4, 47068, Note_on_c, 3, 59, 0
4, 47235, Note_on_c, 3, 69, 89
4, 47252, Note_on_c, 3, 64, 0
4, 47553, Note_on_c, 3, 68, 100
4, 47566, Note_on_c, 3, 69, 0
4, 47659, Note_on_c, 3, 64, 85
4, 47690, Note_on_c, 3, 68, 0
4, 48132, Note_on_c, 3, 66, 85
4, 48147, Note_on_c, 3, 64, 0
4, 48164, Note_on_c, 3, 68, 89
4, 48170, Note_on_c, 3, 66, 0
4, 48198, Note_on_c, 3, 66, 100
4, 48213, Note_on_c, 3, 68, 0
4, 48395, Note_on_c, 3, 64, 107
4, 48409, Note_on_c, 3, 66, 0
4, 49163, Note_on_c, 3, 64, 0
4, 54406, Note_on_c, 3, 68, 105
4, 54473, Note_on_c, 3, 69, 87
4, 54492, Note_on_c, 3, 68, 0
4, 54564, Note_on_c, 3, 71, 102
4, 54580, Note_on_c, 3, 69, 0
4, 54852, Note_on_c, 3, 64, 95
4, 54904, Note_on_c, 3, 64, 0
4, 54912, Note_on_c, 3, 71, 0
4, 54948, Note_on_c, 3, 64, 93
4, 54956, Note_on_c, 3, 71, 33
4, 54967, Note_on_c, 3, 71, 0
4, 55213, Note_on_c, 3, 64, 0
4, 55243, Note_on_c, 3, 64, 89
4, 55336, Note_on_c, 3, 75, 91
4, 55351, Note_on_c, 3, 64, 0
4, 55507, Note_on_c, 3, 73, 98
4, 55523, Note_on_c, 3, 75, 0
4, 55998, Note_on_c, 3, 61, 122
4, 56001, Note_on_c, 3, 73, 0
4, 56094, Note_on_c, 3, 73, 102
4, 56113, Note_on_c, 3, 61, 0
4, 56276, Note_on_c, 3, 71, 78
4, 56297, Note_on_c, 3, 73, 0
4, 56648, Note_on_c, 3, 73, 89
4, 56669, Note_on_c, 3, 71, 0
4, 56841, Note_on_c, 3, 69, 93
4, 56859, Note_on_c, 3, 73, 0
4, 57353, Note_on_c, 3, 68, 107
4, 57364, Note_on_c, 3, 69, 0
4, 57475, Note_on_c, 3, 66, 100
4, 57497, Note_on_c, 3, 68, 0
4, 57574, Note_on_c, 3, 66, 0
4, 57625, Note_on_c, 3, 59, 98
4, 57798, Note_on_c, 3, 64, 98
4, 57820, Note_on_c, 3, 59, 0
4, 57987, Note_on_c, 3, 69, 89
4, 58004, Note_on_c, 3, 64, 0
4, 58305, Note_on_c, 3, 68, 100
4, 58318, Note_on_c, 3, 69, 0
4, 58411, Note_on_c, 3, 64, 85
4, 58442, Note_on_c, 3, 68, 0
4, 58884, Note_on_c, 3, 66, 85
4, 58899, Note_on_c, 3, 64, 0
4, 58916, Note_on_c, 3, 68, 89
4, 58922, Note_on_c, 3, 66, 0
4, 58950, Note_on_c, 3, 66, 100
4, 58965, Note_on_c, 3, 68, 0
4, 59147, Note_on_c, 3, 64, 107
4, 59161, Note_on_c, 3, 66, 0
4, 60011, Note_on_c, 3, 64, 0
4, 60011, End_track
5, 0, Start_track
5, 0, MIDI_port, 0
5, 0, Title_t, "Piano"
5, 0, Program_c, 0, 0
5, 0, Control_c, 0, 7, 100
5, 0, Control_c, 0, 10, 64
5, 2, Control_c, 0, 121, 0
5, 3, Control_c, 0, 91, 100
5, 768, Note_on_c, 0, 68, 107
5, 770, Note_on_c, 0, 40, 101
5, 858, Note_on_c, 0, 47, 116
5, 948, Note_on_c, 0, 52, 115
5, 1048, Note_on_c, 0, 59, 112
5, 1052, Note_on_c, 0, 40, 0
5, 1058, Note_on_c, 0, 47, 0
5, 1114, Note_on_c, 0, 52, 0
5, 1150, Note_on_c, 0, 54, 108
5, 1152, Note_on_c, 0, 64, 116
5, 1154, Note_on_c, 0, 50, 107
5, 1158, Note_on_c, 0, 59, 0
5, 1164, Note_on_c, 0, 68, 0
5, 1242, Note_on_c, 0, 60, 104
5, 1434, Note_on_c, 0, 57, 111
5, 1460, Note_on_c, 0, 50, 0
5, 1492, Note_on_c, 0, 54, 0
5, 1512, Note_on_c, 0, 57, 0
5, 1522, Note_on_c, 0, 60, 0
5, 1534, Note_on_c, 0, 71, 122
5, 1538, Note_on_c, 0, 44, 103
5, 1550, Note_on_c, 0, 64, 0
5, 1628, Note_on_c, 0, 51, 116
5, 1722, Note_on_c, 0, 56, 118
5, 1820, Note_on_c, 0, 59, 115
5, 1824, Note_on_c, 0, 44, 0
5, 1826, Note_on_c, 0, 51, 0
5, 1916, Note_on_c, 0, 59, 0
5, 1916, Note_on_c, 0, 49, 78
5, 1922, Note_on_c, 0, 67, 120
5, 1924, Note_on_c, 0, 59, 104
5, 1944, Note_on_c, 0, 71, 0
5, 2022, Note_on_c, 0, 53, 93
5, 2040, Note_on_c, 0, 59, 0
5, 2120, Note_on_c, 0, 68, 114
5, 2128, Note_on_c, 0, 67, 0
5, 2210, Note_on_c, 0, 59, 101
5, 2238, Note_on_c, 0, 53, 0
5, 2238, Note_on_c, 0, 56, 0
5, 2240, Note_on_c, 0, 59, 0
5, 2254, Note_on_c, 0, 49, 0
5, 2294, Note_on_c, 0, 68, 0
5, 2308, Note_on_c, 0, 68, 106
5, 2310, Note_on_c, 0, 64, 103
5, 2312, Note_on_c, 0, 61, 116
5, 2312, Note_on_c, 0, 57, 111
5, 2316, Note_on_c, 0, 42, 93
5, 2402, Note_on_c, 0, 49, 116
5, 2500, Note_on_c, 0, 54, 118
5, 2522, Note_on_c, 0, 57, 0
5, 2540, Note_on_c, 0, 61, 0
5, 2586, Note_on_c, 0, 59, 121
5, 2590, Note_on_c, 0, 64, 0
5, 2630, Note_on_c, 0, 49, 0
5, 2656, Note_on_c, 0, 68, 0
5, 2680, Note_on_c, 0, 61, 120
5, 2782, Note_on_c, 0, 68, 122
5, 2884, Note_on_c, 0, 49, 98
5, 2974, Note_on_c, 0, 66, 116
5, 2990, Note_on_c, 0, 68, 0
5, 2990, Note_on_c, 0, 42, 0
5, 2992, Note_on_c, 0, 54, 0
5, 3034, Note_on_c, 0, 61, 0
5, 3034, Note_on_c, 0, 59, 0
5, 3066, Note_on_c, 0, 41, 107
5, 3066, Note_on_c, 0, 64, 110
5, 3070, Note_on_c, 0, 66, 0
5, 3072, Note_on_c, 0, 49, 0
5, 3072, Note_on_c, 0, 57, 107
5, 3072, Note_on_c, 0, 60, 101
5, 3164, Note_on_c, 0, 48, 107
5, 3220, Note_on_c, 0, 57, 0
5, 3260, Note_on_c, 0, 57, 113
5, 3264, Note_on_c, 0, 60, 0
5, 3266, Note_on_c, 0, 52, 98
5, 3320, Note_on_c, 0, 41, 0
5, 3328, Note_on_c, 0, 48, 0
5, 3336, Note_on_c, 0, 64, 0
5, 3358, Note_on_c, 0, 60, 115
5, 3400, Note_on_c, 0, 52, 0
5, 3436, Note_on_c, 0, 54, 47
5, 3438, Note_on_c, 0, 57, 0
5, 3444, Note_on_c, 0, 63, 113
5, 3446, Note_on_c, 0, 60, 0
5, 3446, Note_on_c, 0, 47, 96
5, 3448, Note_on_c, 0, 54, 0
5, 3450, Note_on_c, 0, 68, 106
5, 3548, Note_on_c, 0, 57, 107
5, 3644, Note_on_c, 0, 68, 0
5, 3650, Note_on_c, 0, 67, 111
5, 3746, Note_on_c, 0, 54, 93
5, 3768, Note_on_c, 0, 54, 0
5, 3768, Note_on_c, 0, 57, 0
5, 3786, Note_on_c, 0, 47, 0
5, 3836, Note_on_c, 0, 67, 0
5, 3842, Note_on_c, 0, 63, 0
5, 3844, Note_on_c, 0, 40, 112
5, 3940, Note_on_c, 0, 47, 111
5, 4028, Note_on_c, 0, 59, 118
5, 4030, Note_on_c, 0, 52, 111
5, 4088, Note_on_c, 0, 40, 0
5, 4096, Note_on_c, 0, 47, 0
5, 4122, Note_on_c, 0, 64, 120
5, 4148, Note_on_c, 0, 52, 0
5, 4184, Note_on_c, 0, 59, 0
5, 4190, Note_on_c, 0, 48, 104
5, 4198, Note_on_c, 0, 54, 84
5, 4212, Note_on_c, 0, 57, 106
5, 4216, Note_on_c, 0, 60, 118
5, 4218, Note_on_c, 0, 69, 126
5, 4226, Note_on_c, 0, 64, 0
5, 4278, Note_on_c, 0, 54, 0
5, 4318, Note_on_c, 0, 54, 104
5, 4320, Note_on_c, 0, 63, 116
5, 4350, Note_on_c, 0, 57, 0
5, 4420, Note_on_c, 0, 57, 107
5, 4506, Note_on_c, 0, 68, 114
5, 4510, Note_on_c, 0, 57, 0
5, 4514, Note_on_c, 0, 54, 0
5, 4524, Note_on_c, 0, 48, 0
5, 4524, Note_on_c, 0, 69, 0
5, 4608, Note_on_c, 0, 63, 0
5, 4612, Note_on_c, 0, 40, 93
5, 4614, Note_on_c, 0, 64, 108
5, 4620, Note_on_c, 0, 68, 0
5, 4622, Note_on_c, 0, 60, 0
5, 4706, Note_on_c, 0, 47, 111
5, 4798, Note_on_c, 0, 52, 113
5, 4888, Note_on_c, 0, 56, 106
5, 4982, Note_on_c, 0, 56, 0
5, 4984, Note_on_c, 0, 57, 111
5, 4990, Note_on_c, 0, 47, 0
5, 5030, Note_on_c, 0, 52, 0
5, 5086, Note_on_c, 0, 60, 111
5, 5100, Note_on_c, 0, 64, 0
5, 5184, Note_on_c, 0, 68, 107
5, 5188, Note_on_c, 0, 51, 78
5, 5290, Note_on_c, 0, 66, 101
5, 5296, Note_on_c, 0, 40, 0
5, 5314, Note_on_c, 0, 51, 0
5, 5324, Note_on_c, 0, 68, 0
5, 5328, Note_on_c, 0, 60, 0
5, 5374, Note_on_c, 0, 57, 0
5, 5392, Note_on_c, 0, 40, 111
5, 5396, Note_on_c, 0, 66, 0
5, 5476, Note_on_c, 0, 47, 114
5, 5564, Note_on_c, 0, 59, 107
5, 5568, Note_on_c, 0, 52, 104
5, 5660, Note_on_c, 0, 64, 118
5, 5734, Note_on_c, 0, 40, 0
5, 5756, Note_on_c, 0, 44, 106
5, 5758, Note_on_c, 0, 69, 120
5, 5768, Note_on_c, 0, 47, 0
5, 5820, Note_on_c, 0, 52, 0
5, 5846, Note_on_c, 0, 47, 107
5, 5950, Note_on_c, 0, 52, 107
5, 6026, Note_on_c, 0, 69, 0
5, 6042, Note_on_c, 0, 68, 112
5, 6064, Note_on_c, 0, 47, 0
5, 6086, Note_on_c, 0, 64, 0
5, 6114, Note_on_c, 0, 59, 0
5, 6120, Note_on_c, 0, 68, 0
5, 6128, Note_on_c, 0, 44, 0
5, 6138, Note_on_c, 0, 64, 110
5, 6142, Note_on_c, 0, 61, 113
5, 6142, Note_on_c, 0, 57, 112
5, 6144, Note_on_c, 0, 42, 104
5, 6154, Note_on_c, 0, 52, 0
5, 6236, Note_on_c, 0, 49, 111
5, 6330, Note_on_c, 0, 64, 0
5, 6330, Note_on_c, 0, 66, 116
5, 6338, Note_on_c, 0, 54, 106
5, 6380, Note_on_c, 0, 57, 0
5, 6430, Note_on_c, 0, 57, 122
5, 6460, Note_on_c, 0, 54, 0
5, 6480, Note_on_c, 0, 42, 0
5, 6506, Note_on_c, 0, 61, 0
5, 6522, Note_on_c, 0, 41, 104
5, 6524, Note_on_c, 0, 60, 116
5, 6528, Note_on_c, 0, 49, 0
5, 6528, Note_on_c, 0, 51, 114
5, 6532, Note_on_c, 0, 57, 0
5, 6624, Note_on_c, 0, 48, 116
5, 6632, Note_on_c, 0, 51, 0
5, 6722, Note_on_c, 0, 51, 116
5, 6804, Note_on_c, 0, 48, 0
5, 6814, Note_on_c, 0, 63, 96
5, 6850, Note_on_c, 0, 41, 0
5, 6862, Note_on_c, 0, 51, 0
5, 6868, Note_on_c, 0, 60, 0
5, 6912, Note_on_c, 0, 63, 0
5, 6914, Note_on_c, 0, 59, 106
5, 6916, Note_on_c, 0, 40, 104
5, 6920, Note_on_c, 0, 66, 0
5, 7008, Note_on_c, 0, 47, 107
5, 7072, Note_on_c, 0, 59, 0
5, 7104, Note_on_c, 0, 52, 117
5, 7104, Note_on_c, 0, 59, 124
5, 7162, Note_on_c, 0, 40, 0
5, 7172, Note_on_c, 0, 47, 0
5, 7198, Note_on_c, 0, 64, 114
5, 7212, Note_on_c, 0, 59, 0
5, 7244, Note_on_c, 0, 52, 0
5, 7268, Note_on_c, 0, 47, 98
5, 7276, Note_on_c, 0, 50, 98
5, 7284, Note_on_c, 0, 62, 93
5, 7294, Note_on_c, 0, 66, 113
5, 7298, Note_on_c, 0, 64, 0
5, 7298, Note_on_c, 0, 59, 93
5, 7310, Note_on_c, 0, 73, 118
5, 7384, Note_on_c, 0, 54, 104
5, 7388, Note_on_c, 0, 59, 0
5, 7486, Note_on_c, 0, 59, 110
5, 7564, Note_on_c, 0, 73, 0
5, 7578, Note_on_c, 0, 47, 0
5, 7586, Note_on_c, 0, 71, 120
5, 7618, Note_on_c, 0, 54, 0
5, 7632, Note_on_c, 0, 50, 0
5, 7666, Note_on_c, 0, 66, 0
5, 7678, Note_on_c, 0, 49, 106
5, 7678, Note_on_c, 0, 65, 112
5, 7680, Note_on_c, 0, 69, 110
5, 7686, Note_on_c, 0, 62, 0
5, 7696, Note_on_c, 0, 71, 0
5, 7768, Note_on_c, 0, 59, 0
5, 7768, Note_on_c, 0, 56, 107
5, 7868, Note_on_c, 0, 59, 112
5, 7970, Note_on_c, 0, 61, 93
5, 7980, Note_on_c, 0, 65, 0
5, 8068, Note_on_c, 0, 65, 107
5, 8090, Note_on_c, 0, 56, 0
5, 8162, Note_on_c, 0, 59, 0
5, 8164, Note_on_c, 0, 56, 113
5, 8254, Note_on_c, 0, 69, 0
5, 8262, Note_on_c, 0, 68, 122
5, 8262, Note_on_c, 0, 59, 107
5, 8266, Note_on_c, 0, 56, 0
5, 8284, Note_on_c, 0, 65, 0
5, 8358, Note_on_c, 0, 56, 106
5, 8382, Note_on_c, 0, 59, 0
5, 8402, Note_on_c, 0, 49, 0
5, 8402, Note_on_c, 0, 56, 0
5, 8452, Note_on_c, 0, 66, 116
5, 8456, Note_on_c, 0, 42, 93
5, 8460, Note_on_c, 0, 68, 0
5, 8550, Note_on_c, 0, 49, 113
5, 8646, Note_on_c, 0, 54, 118
5, 8698, Note_on_c, 0, 61, 0
5, 8734, Note_on_c, 0, 57, 116
5, 8830, Note_on_c, 0, 61, 118
5, 8848, Note_on_c, 0, 49, 0
5, 8936, Note_on_c, 0, 49, 103
5, 8962, Note_on_c, 0, 54, 0
5, 9030, Note_on_c, 0, 54, 96
5, 9070, Note_on_c, 0, 57, 0
5, 9122, Note_on_c, 0, 57, 111
5, 9130, Note_on_c, 0, 42, 0
5, 9174, Note_on_c, 0, 54, 0
5, 9184, Note_on_c, 0, 42, 103
5, 9186, Note_on_c, 0, 61, 0
5, 9206, Note_on_c, 0, 52, 111
5, 9208, Note_on_c, 0, 49, 0
5, 9218, Note_on_c, 0, 60, 111
5, 9308, Note_on_c, 0, 52, 0
5, 9310, Note_on_c, 0, 48, 112
5, 9406, Note_on_c, 0, 52, 117
5, 9430, Note_on_c, 0, 57, 0
5, 9502, Note_on_c, 0, 60, 0
5, 9504, Note_on_c, 0, 57, 117
5, 9600, Note_on_c, 0, 60, 122
5, 9608, Note_on_c, 0, 57, 0
5, 9608, Note_on_c, 0, 48, 0
5, 9698, Note_on_c, 0, 48, 106
5, 9708, Note_on_c, 0, 52, 0
5, 9796, Note_on_c, 0, 68, 124
5, 9802, Note_on_c, 0, 52, 107
5, 9816, Note_on_c, 0, 66, 0
5, 9886, Note_on_c, 0, 69, 116
5, 9888, Note_on_c, 0, 42, 0
5, 9890, Note_on_c, 0, 68, 0
5, 9892, Note_on_c, 0, 48, 0
5, 9986, Note_on_c, 0, 66, 108
5, 9986, Note_on_c, 0, 44, 98
5, 9988, Note_on_c, 0, 71, 114
5, 9998, Note_on_c, 0, 60, 0
5, 9998, Note_on_c, 0, 69, 0
5, 10004, Note_on_c, 0, 52, 0
5, 10076, Note_on_c, 0, 52, 104
5, 10180, Note_on_c, 0, 59, 104
5, 10272, Note_on_c, 0, 56, 104
5, 10284, Note_on_c, 0, 52, 0
5, 10362, Note_on_c, 0, 66, 0
5, 10366, Note_on_c, 0, 64, 112
5, 10370, Note_on_c, 0, 52, 104
5, 10398, Note_on_c, 0, 56, 0
5, 10472, Note_on_c, 0, 56, 98
5, 10484, Note_on_c, 0, 52, 0
5, 10564, Note_on_c, 0, 52, 104
5, 10578, Note_on_c, 0, 59, 0
5, 10578, Note_on_c, 0, 56, 0
5, 10656, Note_on_c, 0, 56, 106
5, 10678, Note_on_c, 0, 44, 0
5, 10706, Note_on_c, 0, 56, 0
5, 10726, Note_on_c, 0, 45, 104
5, 10736, Note_on_c, 0, 71, 0
5, 10740, Note_on_c, 0, 60, 110
5, 10746, Note_on_c, 0, 54, 93
5, 10750, Note_on_c, 0, 52, 0
5, 10760, Note_on_c, 0, 68, 116
5, 10846, Note_on_c, 0, 52, 111
5, 10854, Note_on_c, 0, 54, 0
5, 10938, Note_on_c, 0, 66, 118
5, 10950, Note_on_c, 0, 68, 0
5, 10998, Note_on_c, 0, 69, 123
5, 11020, Note_on_c, 0, 69, 0
5, 11040, Note_on_c, 0, 54, 101
5, 11044, Note_on_c, 0, 52, 0
5, 11048, Note_on_c, 0, 72, 60
5, 11052, Note_on_c, 0, 72, 0
5, 11094, Note_on_c, 0, 76, 116
5, 11120, Note_on_c, 0, 76, 0
5, 11138, Note_on_c, 0, 52, 116
5, 11140, Note_on_c, 0, 80, 127
5, 11142, Note_on_c, 0, 54, 0
5, 11176, Note_on_c, 0, 80, 0
5, 11190, Note_on_c, 0, 83, 121
5, 11232, Note_on_c, 0, 83, 0
5, 11236, Note_on_c, 0, 54, 118
5, 11238, Note_on_c, 0, 82, 118
5, 11252, Note_on_c, 0, 60, 0
5, 11270, Note_on_c, 0, 82, 0
5, 11282, Note_on_c, 0, 81, 107
5, 11300, Note_on_c, 0, 64, 0
5, 11310, Note_on_c, 0, 81, 0
5, 11330, Note_on_c, 0, 60, 119
5, 11334, Note_on_c, 0, 80, 127
5, 11336, Note_on_c, 0, 66, 0
5, 11376, Note_on_c, 0, 80, 0
5, 11384, Note_on_c, 0, 78, 116
5, 11406, Note_on_c, 0, 78, 0
5, 11422, Note_on_c, 0, 64, 117
5, 11438, Note_on_c, 0, 76, 98
5, 11448, Note_on_c, 0, 45, 0
5, 11466, Note_on_c, 0, 76, 0
5, 11484, Note_on_c, 0, 75, 103
5, 11498, Note_on_c, 0, 75, 0
5, 11506, Note_on_c, 0, 60, 0
5, 11514, Note_on_c, 0, 44, 103
5, 11514, Note_on_c, 0, 71, 124
5, 11518, Note_on_c, 0, 54, 0
5, 11520, Note_on_c, 0, 52, 0
5, 11534, Note_on_c, 0, 76, 112
5, 11616, Note_on_c, 0, 76, 0
5, 11618, Note_on_c, 0, 52, 122
5, 11716, Note_on_c, 0, 59, 125
5, 11718, Note_on_c, 0, 64, 0
5, 11806, Note_on_c, 0, 64, 114
5, 11890, Note_on_c, 0, 64, 0
5, 11898, Note_on_c, 0, 52, 0
5, 11898, Note_on_c, 0, 66, 118
5, 11898, Note_on_c, 0, 50, 118
5, 11908, Note_on_c, 0, 44, 0
5, 12004, Note_on_c, 0, 54, 116
5, 12064, Note_on_c, 0, 59, 0
5, 12094, Note_on_c, 0, 59, 119
5, 12116, Note_on_c, 0, 66, 0
5, 12178, Note_on_c, 0, 50, 0
5, 12190, Note_on_c, 0, 62, 114
5, 12212, Note_on_c, 0, 54, 0
5, 12268, Note_on_c, 0, 62, 0
5, 12272, Note_on_c, 0, 59, 0
5, 12288, Note_on_c, 0, 65, 115
5, 12288, Note_on_c, 0, 49, 111
5, 12382, Note_on_c, 0, 56, 108
5, 12428, Note_on_c, 0, 77, 84
5, 12446, Note_on_c, 0, 80, 108
5, 12456, Note_on_c, 0, 77, 0
5, 12458, Note_on_c, 0, 83, 106
5, 12472, Note_on_c, 0, 80, 0
5, 12474, Note_on_c, 0, 59, 113
5, 12478, Note_on_c, 0, 86, 126
5, 12484, Note_on_c, 0, 83, 0
5, 12530, Note_on_c, 0, 86, 0
5, 12534, Note_on_c, 0, 85, 127
5, 12552, Note_on_c, 0, 65, 0
5, 12572, Note_on_c, 0, 85, 0
5, 12572, Note_on_c, 0, 65, 111
5, 12574, Note_on_c, 0, 56, 0
5, 12584, Note_on_c, 0, 84, 114
5, 12606, Note_on_c, 0, 84, 0
5, 12628, Note_on_c, 0, 83, 104
5, 12660, Note_on_c, 0, 83, 0
5, 12670, Note_on_c, 0, 66, 114
5, 12676, Note_on_c, 0, 65, 0
5, 12684, Note_on_c, 0, 81, 93
5, 12704, Note_on_c, 0, 81, 0
5, 12734, Note_on_c, 0, 77, 101
5, 12756, Note_on_c, 0, 77, 0
5, 12770, Note_on_c, 0, 56, 104
5, 12780, Note_on_c, 0, 80, 114
5, 12786, Note_on_c, 0, 59, 0
5, 12802, Note_on_c, 0, 80, 0
5, 12830, Note_on_c, 0, 77, 106
5, 12848, Note_on_c, 0, 77, 0
5, 12858, Note_on_c, 0, 69, 117
5, 12864, Note_on_c, 0, 59, 116
5, 12866, Note_on_c, 0, 71, 0
5, 12872, Note_on_c, 0, 83, 125
5, 12922, Note_on_c, 0, 83, 0
5, 12922, Note_on_c, 0, 82, 119
5, 12948, Note_on_c, 0, 82, 0
5, 12954, Note_on_c, 0, 71, 112
5, 12962, Note_on_c, 0, 69, 0
5, 12962, Note_on_c, 0, 59, 0
5, 12964, Note_on_c, 0, 81, 104
5, 12968, Note_on_c, 0, 56, 0
5, 12976, Note_on_c, 0, 49, 0
5, 12992, Note_on_c, 0, 81, 0
5, 13004, Note_on_c, 0, 80, 103
5, 13018, Note_on_c, 0, 71, 0
5, 13032, Note_on_c, 0, 80, 0
5, 13052, Note_on_c, 0, 73, 119
5, 13052, Note_on_c, 0, 64, 115
5, 13056, Note_on_c, 0, 66, 0
5, 13056, Note_on_c, 0, 78, 113
5, 13058, Note_on_c, 0, 42, 101
5, 13142, Note_on_c, 0, 49, 106
5, 13230, Note_on_c, 0, 78, 0
5, 13244, Note_on_c, 0, 54, 98
5, 13346, Note_on_c, 0, 66, 116
5, 13352, Note_on_c, 0, 49, 0
5, 13356, Note_on_c, 0, 73, 0
5, 13372, Note_on_c, 0, 61, 47
5, 13388, Note_on_c, 0, 61, 0
5, 13418, Note_on_c, 0, 66, 0
5, 13422, Note_on_c, 0, 64, 0
5, 13434, Note_on_c, 0, 49, 108
5, 13438, Note_on_c, 0, 66, 116
5, 13440, Note_on_c, 0, 64, 110
5, 13444, Note_on_c, 0, 61, 96
5, 13450, Note_on_c, 0, 54, 0
5, 13538, Note_on_c, 0, 54, 113
5, 13548, Note_on_c, 0, 49, 0
5, 13566, Note_on_c, 0, 64, 0
5, 13604, Note_on_c, 0, 61, 0
5, 13640, Note_on_c, 0, 57, 116
5, 13642, Note_on_c, 0, 49, 108
5, 13654, Note_on_c, 0, 54, 0
5, 13722, Note_on_c, 0, 57, 0
5, 13730, Note_on_c, 0, 61, 120
5, 13730, Note_on_c, 0, 54, 98
5, 13734, Note_on_c, 0, 49, 0
5, 13736, Note_on_c, 0, 42, 0
5, 13762, Note_on_c, 0, 54, 0
5, 13812, Note_on_c, 0, 49, 103
5, 13818, Note_on_c, 0, 61, 0
5, 13822, Note_on_c, 0, 64, 101
5, 13826, Note_on_c, 0, 59, 103
5, 13828, Note_on_c, 0, 69, 114
5, 13830, Note_on_c, 0, 60, 96
5, 13838, Note_on_c, 0, 66, 0
5, 13856, Note_on_c, 0, 60, 0
5, 13922, Note_on_c, 0, 53, 120
5, 13936, Note_on_c, 0, 59, 0
5, 14016, Note_on_c, 0, 68, 112
5, 14022, Note_on_c, 0, 64, 0
5, 14022, Note_on_c, 0, 59, 104
5, 14026, Note_on_c, 0, 69, 0
5, 14108, Note_on_c, 0, 56, 84
5, 14124, Note_on_c, 0, 59, 0
5, 14148, Note_on_c, 0, 65, 101
5, 14164, Note_on_c, 0, 68, 0
5, 14164, Note_on_c, 0, 68, 114
5, 14174, Note_on_c, 0, 65, 0
5, 14178, Note_on_c, 0, 71, 107
5, 14198, Note_on_c, 0, 74, 126
5, 14206, Note_on_c, 0, 71, 0
5, 14210, Note_on_c, 0, 59, 107
5, 14248, Note_on_c, 0, 74, 0
5, 14254, Note_on_c, 0, 73, 127
5, 14290, Note_on_c, 0, 73, 0
5, 14302, Note_on_c, 0, 65, 107
5, 14304, Note_on_c, 0, 72, 110
5, 14328, Note_on_c, 0, 56, 0
5, 14334, Note_on_c, 0, 72, 0
5, 14350, Note_on_c, 0, 71, 96
5, 14380, Note_on_c, 0, 71, 0
5, 14400, Note_on_c, 0, 69, 118
5, 14400, Note_on_c, 0, 56, 103
5, 14402, Note_on_c, 0, 70, 98
5, 14406, Note_on_c, 0, 68, 0
5, 14432, Note_on_c, 0, 70, 0
5, 14448, Note_on_c, 0, 69, 0
5, 14448, Note_on_c, 0, 69, 93
5, 14496, Note_on_c, 0, 71, 114
5, 14498, Note_on_c, 0, 59, 0
5, 14500, Note_on_c, 0, 68, 93
5, 14504, Note_on_c, 0, 69, 0
5, 14506, Note_on_c, 0, 53, 0
5, 14506, Note_on_c, 0, 56, 0
5, 14514, Note_on_c, 0, 49, 0
5, 14518, Note_on_c, 0, 68, 0
5, 14556, Note_on_c, 0, 65, 0
5, 14562, Note_on_c, 0, 71, 0
5, 14582, Note_on_c, 0, 42, 60
5, 14590, Note_on_c, 0, 73, 118
5, 14590, Note_on_c, 0, 69, 112
5, 14596, Note_on_c, 0, 64, 111
5, 14608, Note_on_c, 0, 66, 108
5, 14620, Note_on_c, 0, 66, 0
5, 14678, Note_on_c, 0, 49, 118
5, 14774, Note_on_c, 0, 54, 108
5, 14826, Note_on_c, 0, 69, 0
5, 14870, Note_on_c, 0, 69, 112
5, 14894, Note_on_c, 0, 42, 0
5, 14910, Note_on_c, 0, 71, 107
5, 14922, Note_on_c, 0, 73, 0
5, 14970, Note_on_c, 0, 73, 111
5, 14974, Note_on_c, 0, 42, 84
5, 14976, Note_on_c, 0, 71, 0
5, 14982, Note_on_c, 0, 49, 0
5, 15070, Note_on_c, 0, 49, 111
5, 15080, Note_on_c, 0, 54, 0
5, 15168, Note_on_c, 0, 54, 112
5, 15220, Note_on_c, 0, 69, 0
5, 15256, Note_on_c, 0, 49, 0
5, 15260, Note_on_c, 0, 69, 110
5, 15276, Note_on_c, 0, 42, 0
5, 15278, Note_on_c, 0, 73, 0
5, 15306, Note_on_c, 0, 54, 0
5, 15310, Note_on_c, 0, 73, 111
5, 15322, Note_on_c, 0, 69, 0
5, 15346, Note_on_c, 0, 79, 120
5, 15360, Note_on_c, 0, 47, 106
5, 15360, Note_on_c, 0, 80, 127
5, 15364, Note_on_c, 0, 57, 107
5, 15364, Note_on_c, 0, 71, 111
5, 15366, Note_on_c, 0, 73, 0
5, 15366, Note_on_c, 0, 64, 0
5, 15366, Note_on_c, 0, 68, 118
5, 15370, Note_on_c, 0, 79, 0
5, 15404, Note_on_c, 0, 80, 0
5, 15422, Note_on_c, 0, 83, 126
5, 15454, Note_on_c, 0, 54, 108
5, 15456, Note_on_c, 0, 83, 0
5, 15464, Note_on_c, 0, 57, 0
5, 15514, Note_on_c, 0, 80, 112
5, 15532, Note_on_c, 0, 80, 0
5, 15560, Note_on_c, 0, 57, 110
5, 15562, Note_on_c, 0, 83, 119
5, 15606, Note_on_c, 0, 83, 0
5, 15648, Note_on_c, 0, 59, 104
5, 15652, Note_on_c, 0, 80, 110
5, 15680, Note_on_c, 0, 80, 0
5, 15708, Note_on_c, 0, 79, 120
5, 15742, Note_on_c, 0, 79, 0
5, 15742, Note_on_c, 0, 68, 0
5, 15748, Note_on_c, 0, 67, 116
5, 15804, Note_on_c, 0, 83, 118
5, 15840, Note_on_c, 0, 51, 103
5, 15844, Note_on_c, 0, 83, 0
5, 15848, Note_on_c, 0, 57, 0
5, 15856, Note_on_c, 0, 54, 0
5, 15902, Note_on_c, 0, 79, 112
5, 15922, Note_on_c, 0, 79, 0
5, 15938, Note_on_c, 0, 57, 107
5, 15944, Note_on_c, 0, 83, 120
5, 15950, Note_on_c, 0, 51, 0
5, 15992, Note_on_c, 0, 83, 0
5, 16036, Note_on_c, 0, 51, 93
5, 16044, Note_on_c, 0, 79, 116
5, 16052, Note_on_c, 0, 57, 0
5, 16058, Note_on_c, 0, 51, 0
5, 16068, Note_on_c, 0, 47, 0
5, 16072, Note_on_c, 0, 79, 0
5, 16110, Note_on_c, 0, 80, 113
5, 16128, Note_on_c, 0, 67, 0
5, 16134, Note_on_c, 0, 40, 116
5, 16140, Note_on_c, 0, 80, 0
5, 16146, Note_on_c, 0, 59, 0
5, 16154, Note_on_c, 0, 76, 115
5, 16166, Note_on_c, 0, 71, 0
5, 16232, Note_on_c, 0, 47, 116
5, 16318, Note_on_c, 0, 52, 120
5, 16388, Note_on_c, 0, 40, 0
5, 16396, Note_on_c, 0, 47, 0
5, 16410, Note_on_c, 0, 59, 123
5, 16472, Note_on_c, 0, 76, 0
5, 16486, Note_on_c, 0, 52, 0
5, 16494, Note_on_c, 0, 51, 107
5, 16518, Note_on_c, 0, 63, 120
5, 16520, Note_on_c, 0, 69, 126
5, 16528, Note_on_c, 0, 59, 0
5, 16530, Note_on_c, 0, 57, 107
5, 16616, Note_on_c, 0, 54, 104
5, 16630, Note_on_c, 0, 57, 0
5, 16704, Note_on_c, 0, 57, 114
5, 16756, Note_on_c, 0, 54, 0
5, 16794, Note_on_c, 0, 57, 0
5, 16798, Note_on_c, 0, 69, 0
5, 16802, Note_on_c, 0, 68, 108
5, 16806, Note_on_c, 0, 51, 0
5, 16860, Note_on_c, 0, 66, 18
5, 16866, Note_on_c, 0, 63, 0
5, 16876, Note_on_c, 0, 66, 0
5, 16894, Note_on_c, 0, 40, 111
5, 16896, Note_on_c, 0, 64, 119
5, 16904, Note_on_c, 0, 68, 0
5, 16992, Note_on_c, 0, 47, 112
5, 17082, Note_on_c, 0, 52, 110
5, 17100, Note_on_c, 0, 47, 0
5, 17142, Note_on_c, 0, 40, 0
5, 17180, Note_on_c, 0, 56, 103
5, 17268, Note_on_c, 0, 56, 0
5, 17280, Note_on_c, 0, 57, 115
5, 17282, Note_on_c, 0, 54, 111
5, 17292, Note_on_c, 0, 52, 0
5, 17296, Note_on_c, 0, 64, 0
5, 17488, Note_on_c, 0, 60, 115
5, 17510, Note_on_c, 0, 54, 0
5, 17678, Note_on_c, 0, 57, 0
5, 17680, Note_on_c, 0, 60, 0
5, 17770, Note_on_c, 0, 47, 113
5, 17862, Note_on_c, 0, 59, 114
5, 17864, Note_on_c, 0, 52, 101
5, 17954, Note_on_c, 0, 64, 118
5, 18050, Note_on_c, 0, 44, 108
5, 18052, Note_on_c, 0, 47, 0
5, 18056, Note_on_c, 0, 69, 118
5, 18060, Note_on_c, 0, 52, 0
5, 18148, Note_on_c, 0, 52, 119
5, 18246, Note_on_c, 0, 47, 114
5, 18336, Note_on_c, 0, 68, 113
5, 18370, Note_on_c, 0, 69, 0
5, 18394, Note_on_c, 0, 47, 0
5, 18396, Note_on_c, 0, 64, 0
5, 18422, Note_on_c, 0, 44, 0
5, 18434, Note_on_c, 0, 64, 106
5, 18436, Note_on_c, 0, 42, 101
5, 18438, Note_on_c, 0, 61, 111
5, 18442, Note_on_c, 0, 68, 0
5, 18450, Note_on_c, 0, 59, 0
5, 18532, Note_on_c, 0, 49, 108
5, 18534, Note_on_c, 0, 52, 0
5, 18542, Note_on_c, 0, 57, 110
5, 18626, Note_on_c, 0, 66, 122
5, 18628, Note_on_c, 0, 52, 110
5, 18680, Note_on_c, 0, 61, 0
5, 18718, Note_on_c, 0, 61, 116
5, 18728, Note_on_c, 0, 57, 0
5, 18758, Note_on_c, 0, 42, 0
5, 18774, Note_on_c, 0, 52, 0
5, 18798, Note_on_c, 0, 41, 103
5, 18808, Note_on_c, 0, 49, 0
5, 18818, Note_on_c, 0, 51, 78
5, 18820, Note_on_c, 0, 60, 114
5, 18822, Note_on_c, 0, 61, 0
5, 18826, Note_on_c, 0, 64, 0
5, 18914, Note_on_c, 0, 48, 111
5, 18918, Note_on_c, 0, 51, 0
5, 19016, Note_on_c, 0, 51, 111
5, 19092, Note_on_c, 0, 63, 98
5, 19096, Note_on_c, 0, 48, 0
5, 19168, Note_on_c, 0, 41, 0
5, 19172, Note_on_c, 0, 60, 0
5, 19186, Note_on_c, 0, 51, 0
5, 19200, Note_on_c, 0, 59, 111
5, 19202, Note_on_c, 0, 63, 0
5, 19204, Note_on_c, 0, 40, 111
5, 19212, Note_on_c, 0, 66, 0
5, 19296, Note_on_c, 0, 47, 111
5, 19370, Note_on_c, 0, 59, 0
5, 19392, Note_on_c, 0, 52, 108
5, 19394, Note_on_c, 0, 59, 117
5, 19448, Note_on_c, 0, 40, 0
5, 19458, Note_on_c, 0, 47, 0
5, 19482, Note_on_c, 0, 59, 0
5, 19484, Note_on_c, 0, 64, 114
5, 19496, Note_on_c, 0, 52, 0
5, 19550, Note_on_c, 0, 50, 112
5, 19552, Note_on_c, 0, 56, 60
5, 19560, Note_on_c, 0, 56, 0
5, 19564, Note_on_c, 0, 59, 110
5, 19572, Note_on_c, 0, 66, 107
5, 19578, Note_on_c, 0, 64, 0
5, 19578, Note_on_c, 0, 73, 119
5, 19676, Note_on_c, 0, 56, 113
5, 19680, Note_on_c, 0, 59, 0
5, 19772, Note_on_c, 0, 59, 116
5, 19858, Note_on_c, 0, 73, 0
5, 19878, Note_on_c, 0, 71, 120
5, 19892, Note_on_c, 0, 50, 0
5, 19964, Note_on_c, 0, 56, 0
5, 19966, Note_on_c, 0, 49, 108
5, 19968, Note_on_c, 0, 66, 0
5, 19970, Note_on_c, 0, 69, 118
5, 19972, Note_on_c, 0, 65, 112
5, 19980, Note_on_c, 0, 71, 0
5, 20064, Note_on_c, 0, 56, 107
5, 20068, Note_on_c, 0, 59, 0
5, 20160, Note_on_c, 0, 59, 111
5, 20256, Note_on_c, 0, 53, 111
5, 20262, Note_on_c, 0, 59, 0
5, 20268, Note_on_c, 0, 56, 0
5, 20352, Note_on_c, 0, 59, 111
5, 20412, Note_on_c, 0, 59, 0
5, 20446, Note_on_c, 0, 59, 104
5, 20530, Note_on_c, 0, 69, 0
5, 20538, Note_on_c, 0, 68, 116
5, 20540, Note_on_c, 0, 56, 104
5, 20592, Note_on_c, 0, 59, 0
5, 20642, Note_on_c, 0, 59, 107
5, 20648, Note_on_c, 0, 53, 0
5, 20654, Note_on_c, 0, 49, 0
5, 20654, Note_on_c, 0, 56, 0
5, 20700, Note_on_c, 0, 68, 0
5, 20714, Note_on_c, 0, 65, 0
5, 20742, Note_on_c, 0, 66, 122
5, 20744, Note_on_c, 0, 42, 107
5, 20746, Note_on_c, 0, 54, 18
5, 20750, Note_on_c, 0, 42, 0
5, 20750, Note_on_c, 0, 42, 18
5, 20760, Note_on_c, 0, 59, 0
5, 20836, Note_on_c, 0, 54, 0
5, 20838, Note_on_c, 0, 57, 112
5, 20840, Note_on_c, 0, 54, 111
5, 20928, Note_on_c, 0, 54, 0
5, 20928, Note_on_c, 0, 54, 118
5, 20934, Note_on_c, 0, 61, 112
5, 20972, Note_on_c, 0, 69, 127
5, 20978, Note_on_c, 0, 66, 0
5, 21002, Note_on_c, 0, 69, 0
5, 21012, Note_on_c, 0, 73, 114
5, 21026, Note_on_c, 0, 66, 110
5, 21030, Note_on_c, 0, 73, 0
5, 21056, Note_on_c, 0, 76, 111
5, 21084, Note_on_c, 0, 76, 0
5, 21088, Note_on_c, 0, 61, 0
5, 21092, Note_on_c, 0, 80, 125
5, 21108, Note_on_c, 0, 80, 0
5, 21118, Note_on_c, 0, 62, 115
5, 21122, Note_on_c, 0, 50, 107
5, 21134, Note_on_c, 0, 83, 127
5, 21140, Note_on_c, 0, 54, 0
5, 21170, Note_on_c, 0, 83, 0
5, 21202, Note_on_c, 0, 83, 127
5, 21220, Note_on_c, 0, 54, 120
5, 21230, Note_on_c, 0, 50, 0
5, 21238, Note_on_c, 0, 83, 0
5, 21264, Note_on_c, 0, 57, 0
5, 21272, Note_on_c, 0, 83, 127
5, 21304, Note_on_c, 0, 62, 0
5, 21316, Note_on_c, 0, 83, 0
5, 21324, Note_on_c, 0, 57, 120
5, 21330, Note_on_c, 0, 64, 106
5, 21358, Note_on_c, 0, 64, 0
5, 21360, Note_on_c, 0, 42, 0
5, 21366, Note_on_c, 0, 82, 106
5, 21392, Note_on_c, 0, 82, 0
5, 21398, Note_on_c, 0, 81, 111
5, 21406, Note_on_c, 0, 62, 115
5, 21418, Note_on_c, 0, 81, 0
5, 21424, Note_on_c, 0, 80, 118
5, 21450, Note_on_c, 0, 57, 0
5, 21456, Note_on_c, 0, 80, 0
5, 21466, Note_on_c, 0, 47, 101
5, 21476, Note_on_c, 0, 74, 104
5, 21476, Note_on_c, 0, 76, 98
5, 21478, Note_on_c, 0, 62, 0
5, 21482, Note_on_c, 0, 76, 0
5, 21486, Note_on_c, 0, 74, 0
5, 21490, Note_on_c, 0, 57, 101
5, 21496, Note_on_c, 0, 63, 110
5, 21498, Note_on_c, 0, 54, 0
5, 21500, Note_on_c, 0, 61, 113
5, 21512, Note_on_c, 0, 78, 127
5, 21560, Note_on_c, 0, 78, 0
5, 21598, Note_on_c, 0, 54, 107
5, 21604, Note_on_c, 0, 57, 0
5, 21616, Note_on_c, 0, 73, 118
5, 21642, Note_on_c, 0, 73, 0
5, 21682, Note_on_c, 0, 75, 122
5, 21692, Note_on_c, 0, 59, 111
5, 21716, Note_on_c, 0, 75, 0
5, 21744, Note_on_c, 0, 61, 0
5, 21754, Note_on_c, 0, 63, 0
5, 21784, Note_on_c, 0, 61, 116
5, 21788, Note_on_c, 0, 59, 0
5, 21790, Note_on_c, 0, 73, 98
5, 21814, Note_on_c, 0, 47, 0
5, 21820, Note_on_c, 0, 73, 0
5, 21826, Note_on_c, 0, 54, 0
5, 21838, Note_on_c, 0, 69, 101
5, 21858, Note_on_c, 0, 69, 0
5, 21882, Note_on_c, 0, 71, 118
5, 21886, Note_on_c, 0, 68, 118
5, 21888, Note_on_c, 0, 45, 112
5, 21888, Note_on_c, 0, 63, 122
5, 21890, Note_on_c, 0, 54, 114
5, 21894, Note_on_c, 0, 61, 0
5, 21898, Note_on_c, 0, 66, 0
5, 21924, Note_on_c, 0, 71, 0
5, 21932, Note_on_c, 0, 68, 0
5, 21932, Note_on_c, 0, 68, 101
5, 21974, Note_on_c, 0, 69, 111
5, 21984, Note_on_c, 0, 51, 110
5, 21992, Note_on_c, 0, 54, 0
5, 22010, Note_on_c, 0, 69, 0
5, 22018, Note_on_c, 0, 66, 103
5, 22036, Note_on_c, 0, 66, 0
5, 22076, Note_on_c, 0, 68, 0
5, 22076, Note_on_c, 0, 68, 127
5, 22082, Note_on_c, 0, 69, 122
5, 22090, Note_on_c, 0, 54, 101
5, 22104, Note_on_c, 0, 51, 0
5, 22120, Note_on_c, 0, 68, 0
5, 22142, Note_on_c, 0, 66, 60
5, 22156, Note_on_c, 0, 66, 0
5, 22180, Note_on_c, 0, 51, 111
5, 22180, Note_on_c, 0, 68, 106
5, 22196, Note_on_c, 0, 45, 0
5, 22198, Note_on_c, 0, 66, 110
5, 22208, Note_on_c, 0, 68, 0
5, 22226, Note_on_c, 0, 66, 0
5, 22228, Note_on_c, 0, 64, 107
5, 22244, Note_on_c, 0, 44, 112
5, 22246, Note_on_c, 0, 54, 0
5, 22252, Note_on_c, 0, 64, 0
5, 22252, Note_on_c, 0, 51, 0
5, 22254, Note_on_c, 0, 63, 0
5, 22254, Note_on_c, 0, 63, 118
5, 22270, Note_on_c, 0, 69, 0
5, 22270, Note_on_c, 0, 66, 104
5, 22276, Note_on_c, 0, 63, 0
5, 22276, Note_on_c, 0, 71, 120
5, 22276, Note_on_c, 0, 59, 114
5, 22366, Note_on_c, 0, 52, 116
5, 22468, Note_on_c, 0, 56, 108
5, 22510, Note_on_c, 0, 52, 0
5, 22556, Note_on_c, 0, 64, 115
5, 22566, Note_on_c, 0, 66, 0
5, 22632, Note_on_c, 0, 59, 0
5, 22632, Note_on_c, 0, 64, 0
5, 22654, Note_on_c, 0, 64, 119
5, 22658, Note_on_c, 0, 52, 111
5, 22658, Note_on_c, 0, 59, 116
5, 22670, Note_on_c, 0, 56, 0
5, 22752, Note_on_c, 0, 56, 111
5, 22764, Note_on_c, 0, 52, 0
5, 22856, Note_on_c, 0, 52, 114
5, 22866, Note_on_c, 0, 56, 0
5, 22928, Note_on_c, 0, 59, 0
5, 22944, Note_on_c, 0, 64, 0
5, 22946, Note_on_c, 0, 56, 120
5, 22948, Note_on_c, 0, 52, 0
5, 22950, Note_on_c, 0, 71, 0
5, 23010, Note_on_c, 0, 44, 0
5, 23040, Note_on_c, 0, 56, 0
5, 23040, Note_on_c, 0, 75, 116
5, 23040, Note_on_c, 0, 71, 118
5, 23042, Note_on_c, 0, 63, 108
5, 23048, Note_on_c, 0, 45, 107
5, 23134, Note_on_c, 0, 52, 101
5, 23228, Note_on_c, 0, 73, 108
5, 23232, Note_on_c, 0, 69, 118
5, 23234, Note_on_c, 0, 57, 103
5, 23236, Note_on_c, 0, 63, 0
5, 23238, Note_on_c, 0, 75, 0
5, 23238, Note_on_c, 0, 71, 0
5, 23242, Note_on_c, 0, 52, 0
5, 23330, Note_on_c, 0, 52, 111
5, 23430, Note_on_c, 0, 49, 112
5, 23434, Note_on_c, 0, 57, 0
5, 23438, Note_on_c, 0, 52, 0
5, 23522, Note_on_c, 0, 52, 111
5, 23618, Note_on_c, 0, 61, 118
5, 23620, Note_on_c, 0, 57, 107
5, 23626, Note_on_c, 0, 69, 0
5, 23714, Note_on_c, 0, 69, 122
5, 23716, Note_on_c, 0, 52, 0
5, 23716, Note_on_c, 0, 49, 0
5, 23718, Note_on_c, 0, 73, 0
5, 23718, Note_on_c, 0, 45, 0
5, 23766, Note_on_c, 0, 61, 0
5, 23774, Note_on_c, 0, 57, 0
5, 23778, Note_on_c, 0, 56, 104
5, 23782, Note_on_c, 0, 49, 104
5, 23812, Note_on_c, 0, 59, 107
5, 23814, Note_on_c, 0, 65, 116
5, 23816, Note_on_c, 0, 73, 118
5, 23818, Note_on_c, 0, 69, 0
5, 23838, Note_on_c, 0, 56, 0
5, 23906, Note_on_c, 0, 53, 106
5, 23910, Note_on_c, 0, 59, 0
5, 24000, Note_on_c, 0, 73, 0
5, 24004, Note_on_c, 0, 71, 107
5, 24010, Note_on_c, 0, 59, 104
5, 24104, Note_on_c, 0, 56, 103
5, 24142, Note_on_c, 0, 49, 0
5, 24202, Note_on_c, 0, 49, 103
5, 24212, Note_on_c, 0, 53, 0
5, 24256, Note_on_c, 0, 56, 0
5, 24286, Note_on_c, 0, 53, 107
5, 24292, Note_on_c, 0, 59, 0
5, 24378, Note_on_c, 0, 73, 113
5, 24384, Note_on_c, 0, 59, 93
5, 24486, Note_on_c, 0, 56, 104
5, 24500, Note_on_c, 0, 59, 0
5, 24510, Note_on_c, 0, 53, 0
5, 24510, Note_on_c, 0, 49, 0
5, 24520, Note_on_c, 0, 56, 0
5, 24576, Note_on_c, 0, 69, 119
5, 24580, Note_on_c, 0, 42, 93
5, 24582, Note_on_c, 0, 73, 0
5, 24582, Note_on_c, 0, 71, 0
5, 24586, Note_on_c, 0, 65, 0
5, 24678, Note_on_c, 0, 49, 112
5, 24774, Note_on_c, 0, 57, 110
5, 24776, Note_on_c, 0, 54, 96
5, 24864, Note_on_c, 0, 61, 118
5, 24872, Note_on_c, 0, 57, 0
5, 24874, Note_on_c, 0, 42, 0
5, 24888, Note_on_c, 0, 49, 0
5, 24958, Note_on_c, 0, 61, 0
5, 24958, Note_on_c, 0, 60, 110
5, 24964, Note_on_c, 0, 45, 110
5, 25062, Note_on_c, 0, 52, 107
5, 25070, Note_on_c, 0, 54, 0
5, 25158, Note_on_c, 0, 54, 89
5, 25242, Note_on_c, 0, 64, 93
5, 25260, Note_on_c, 0, 45, 0
5, 25312, Note_on_c, 0, 60, 0
5, 25340, Note_on_c, 0, 44, 93
5, 25344, Note_on_c, 0, 52, 0
5, 25344, Note_on_c, 0, 59, 114
5, 25346, Note_on_c, 0, 54, 0
5, 25354, Note_on_c, 0, 69, 0
5, 25358, Note_on_c, 0, 64, 0
5, 25442, Note_on_c, 0, 52, 112
5, 25534, Note_on_c, 0, 64, 114
5, 25554, Note_on_c, 0, 52, 0
5, 25634, Note_on_c, 0, 52, 110
5, 25716, Note_on_c, 0, 44, 0
5, 25730, Note_on_c, 0, 52, 0
5, 25734, Note_on_c, 0, 69, 116
5, 25736, Note_on_c, 0, 64, 0
5, 25738, Note_on_c, 0, 49, 107
5, 25828, Note_on_c, 0, 53, 111
5, 25922, Note_on_c, 0, 68, 114
5, 25930, Note_on_c, 0, 69, 0
5, 25948, Note_on_c, 0, 49, 0
5, 26020, Note_on_c, 0, 49, 89
5, 26072, Note_on_c, 0, 53, 0
5, 26080, Note_on_c, 0, 42, 84
5, 26102, Note_on_c, 0, 52, 103
5, 26104, Note_on_c, 0, 49, 0
5, 26108, Note_on_c, 0, 68, 0
5, 26108, Note_on_c, 0, 64, 110
5, 26108, Note_on_c, 0, 61, 104
5, 26116, Note_on_c, 0, 59, 0
5, 26208, Note_on_c, 0, 57, 110
5, 26214, Note_on_c, 0, 61, 0
5, 26296, Note_on_c, 0, 69, 127
5, 26300, Note_on_c, 0, 61, 116
5, 26310, Note_on_c, 0, 64, 0
5, 26326, Note_on_c, 0, 69, 0
5, 26342, Note_on_c, 0, 73, 60
5, 26348, Note_on_c, 0, 73, 0
5, 26366, Note_on_c, 0, 42, 0
5, 26396, Note_on_c, 0, 76, 107
5, 26400, Note_on_c, 0, 64, 115
5, 26428, Note_on_c, 0, 61, 0
5, 26430, Note_on_c, 0, 52, 0
5, 26434, Note_on_c, 0, 76, 0
5, 26438, Note_on_c, 0, 80, 113
5, 26446, Note_on_c, 0, 57, 0
5, 26452, Note_on_c, 0, 54, 18
5, 26456, Note_on_c, 0, 80, 0
5, 26456, Note_on_c, 0, 47, 104
5, 26490, Note_on_c, 0, 57, 101
5, 26492, Note_on_c, 0, 63, 110
5, 26494, Note_on_c, 0, 66, 108
5, 26494, Note_on_c, 0, 60, 112
5, 26498, Note_on_c, 0, 83, 125
5, 26500, Note_on_c, 0, 64, 0
5, 26502, Note_on_c, 0, 54, 0
5, 26544, Note_on_c, 0, 83, 0
5, 26590, Note_on_c, 0, 83, 127
5, 26592, Note_on_c, 0, 51, 111
5, 26602, Note_on_c, 0, 57, 0
5, 26634, Note_on_c, 0, 83, 0
5, 26684, Note_on_c, 0, 83, 127
5, 26688, Note_on_c, 0, 57, 122
5, 26718, Note_on_c, 0, 60, 0
5, 26788, Note_on_c, 0, 60, 116
5, 26792, Note_on_c, 0, 57, 0
5, 26794, Note_on_c, 0, 51, 0
5, 26814, Note_on_c, 0, 47, 0
5, 26830, Note_on_c, 0, 82, 98
5, 26850, Note_on_c, 0, 66, 0
5, 26852, Note_on_c, 0, 80, 104
5, 26858, Note_on_c, 0, 60, 0
5, 26862, Note_on_c, 0, 63, 0
5, 26862, Note_on_c, 0, 83, 0
5, 26870, Note_on_c, 0, 78, 47
5, 26874, Note_on_c, 0, 82, 0
5, 26878, Note_on_c, 0, 64, 103
5, 26878, Note_on_c, 0, 79, 93
5, 26880, Note_on_c, 0, 40, 93
5, 26880, Note_on_c, 0, 68, 103
5, 26884, Note_on_c, 0, 80, 0
5, 26886, Note_on_c, 0, 79, 0
5, 26886, Note_on_c, 0, 59, 111
5, 26888, Note_on_c, 0, 52, 96
5, 26896, Note_on_c, 0, 76, 115
5, 26900, Note_on_c, 0, 78, 0
5, 26974, Note_on_c, 0, 47, 114
5, 26976, Note_on_c, 0, 52, 0
5, 27072, Note_on_c, 0, 52, 119
5, 27104, Note_on_c, 0, 59, 0
5, 27132, Note_on_c, 0, 76, 0
5, 27168, Note_on_c, 0, 59, 120
5, 27178, Note_on_c, 0, 40, 0
5, 27192, Note_on_c, 0, 47, 0
5, 27218, Note_on_c, 0, 64, 0
5, 27244, Note_on_c, 0, 52, 0
5, 27250, Note_on_c, 0, 59, 0
5, 27260, Note_on_c, 0, 51, 110
5, 27266, Note_on_c, 0, 63, 113
5, 27266, Note_on_c, 0, 69, 115
5, 27272, Note_on_c, 0, 60, 113
5, 27278, Note_on_c, 0, 68, 0
5, 27358, Note_on_c, 0, 57, 115
5, 27458, Note_on_c, 0, 54, 106
5, 27538, Note_on_c, 0, 54, 0
5, 27544, Note_on_c, 0, 68, 110
5, 27546, Note_on_c, 0, 57, 0
5, 27562, Note_on_c, 0, 51, 0
5, 27566, Note_on_c, 0, 69, 0
5, 27604, Note_on_c, 0, 60, 0
5, 27634, Note_on_c, 0, 63, 0
5, 27638, Note_on_c, 0, 64, 108
5, 27640, Note_on_c, 0, 59, 110
5, 27642, Note_on_c, 0, 40, 103
5, 27642, Note_on_c, 0, 52, 98
5, 27656, Note_on_c, 0, 68, 0
5, 27746, Note_on_c, 0, 47, 111
5, 27750, Note_on_c, 0, 52, 0
5, 27842, Note_on_c, 0, 52, 114
5, 27888, Note_on_c, 0, 64, 0
5, 27888, Note_on_c, 0, 64, 127
5, 27930, Note_on_c, 0, 40, 0
5, 27932, Note_on_c, 0, 56, 123
5, 27934, Note_on_c, 0, 66, 107
5, 27940, Note_on_c, 0, 47, 0
5, 27958, Note_on_c, 0, 66, 0
5, 27980, Note_on_c, 0, 68, 108
5, 27986, Note_on_c, 0, 52, 0
5, 28004, Note_on_c, 0, 68, 0
5, 28012, Note_on_c, 0, 51, 60
5, 28016, Note_on_c, 0, 45, 107
5, 28018, Note_on_c, 0, 59, 0
5, 28022, Note_on_c, 0, 56, 0
5, 28026, Note_on_c, 0, 57, 118
5, 28026, Note_on_c, 0, 54, 113
5, 28030, Note_on_c, 0, 71, 120
5, 28044, Note_on_c, 0, 64, 0
5, 28068, Note_on_c, 0, 71, 0
5, 28078, Note_on_c, 0, 76, 117
5, 28098, Note_on_c, 0, 76, 0
5, 28124, Note_on_c, 0, 78, 126
5, 28134, Note_on_c, 0, 60, 120
5, 28150, Note_on_c, 0, 78, 0
5, 28158, Note_on_c, 0, 51, 0
5, 28170, Note_on_c, 0, 76, 120
5, 28192, Note_on_c, 0, 76, 0
5, 28222, Note_on_c, 0, 83, 127
5, 28228, Note_on_c, 0, 51, 112
5, 28252, Note_on_c, 0, 54, 0
5, 28274, Note_on_c, 0, 83, 0
5, 28274, Note_on_c, 0, 82, 114
5, 28310, Note_on_c, 0, 82, 0
5, 28316, Note_on_c, 0, 81, 107
5, 28322, Note_on_c, 0, 63, 113
5, 28330, Note_on_c, 0, 54, 104
5, 28342, Note_on_c, 0, 51, 0
5, 28346, Note_on_c, 0, 81, 0
5, 28350, Note_on_c, 0, 45, 0
5, 28362, Note_on_c, 0, 54, 0
5, 28382, Note_on_c, 0, 76, 114
5, 28398, Note_on_c, 0, 76, 0
5, 28406, Note_on_c, 0, 57, 0
5, 28422, Note_on_c, 0, 64, 107
5, 28426, Note_on_c, 0, 52, 101
5, 28428, Note_on_c, 0, 40, 98
5, 28428, Note_on_c, 0, 59, 110
5, 28430, Note_on_c, 0, 80, 119
5, 28434, Note_on_c, 0, 63, 0
5, 28434, Note_on_c, 0, 60, 0
5, 28516, Note_on_c, 0, 47, 112
5, 28522, Note_on_c, 0, 52, 0
5, 28566, Note_on_c, 0, 59, 0
5, 28604, Note_on_c, 0, 52, 110
5, 28604, Note_on_c, 0, 59, 119
5, 28620, Note_on_c, 0, 64, 0
5, 28646, Note_on_c, 0, 80, 0
5, 28704, Note_on_c, 0, 64, 118
5, 28760, Note_on_c, 0, 40, 0
5, 28794, Note_on_c, 0, 47, 0
5, 28800, Note_on_c, 0, 69, 117
5, 28806, Note_on_c, 0, 44, 106
5, 28810, Note_on_c, 0, 52, 0
5, 28892, Note_on_c, 0, 52, 110
5, 28998, Note_on_c, 0, 47, 107
5, 29086, Note_on_c, 0, 68, 113
5, 29090, Note_on_c, 0, 44, 0
5, 29094, Note_on_c, 0, 69, 0
5, 29102, Note_on_c, 0, 64, 0
5, 29154, Note_on_c, 0, 44, 18
5, 29156, Note_on_c, 0, 42, 107
5, 29166, Note_on_c, 0, 44, 0
5, 29170, Note_on_c, 0, 47, 0
5, 29178, Note_on_c, 0, 68, 0
5, 29184, Note_on_c, 0, 64, 107
5, 29186, Note_on_c, 0, 61, 113
5, 29198, Note_on_c, 0, 59, 0
5, 29278, Note_on_c, 0, 66, 120
5, 29282, Note_on_c, 0, 57, 111
5, 29284, Note_on_c, 0, 49, 96
5, 29296, Note_on_c, 0, 52, 0
5, 29372, Note_on_c, 0, 52, 117
5, 29394, Note_on_c, 0, 57, 0
5, 29470, Note_on_c, 0, 57, 118
5, 29510, Note_on_c, 0, 42, 0
5, 29530, Note_on_c, 0, 52, 0
5, 29542, Note_on_c, 0, 61, 0
5, 29558, Note_on_c, 0, 41, 108
5, 29564, Note_on_c, 0, 64, 0
5, 29566, Note_on_c, 0, 49, 0
5, 29566, Note_on_c, 0, 60, 113
5, 29570, Note_on_c, 0, 53, 111
5, 29572, Note_on_c, 0, 51, 106
5, 29574, Note_on_c, 0, 67, 127
5, 29580, Note_on_c, 0, 63, 116
5, 29614, Note_on_c, 0, 63, 0
5, 29618, Note_on_c, 0, 67, 0
5, 29622, Note_on_c, 0, 68, 122
5, 29624, Note_on_c, 0, 53, 0
5, 29660, Note_on_c, 0, 68, 0
5, 29664, Note_on_c, 0, 48, 108
5, 29668, Note_on_c, 0, 69, 118
5, 29670, Note_on_c, 0, 51, 0
5, 29702, Note_on_c, 0, 69, 0
5, 29712, Note_on_c, 0, 72, 124
5, 29740, Note_on_c, 0, 72, 0
5, 29756, Note_on_c, 0, 51, 113
5, 29762, Note_on_c, 0, 75, 127
5, 29796, Note_on_c, 0, 75, 0
5, 29810, Note_on_c, 0, 79, 127
5, 29832, Note_on_c, 0, 48, 0
5, 29852, Note_on_c, 0, 63, 98
5, 29860, Note_on_c, 0, 63, 0
5, 29860, Note_on_c, 0, 63, 114
5, 29866, Note_on_c, 0, 79, 0
5, 29874, Note_on_c, 0, 57, 0
5, 29902, Note_on_c, 0, 77, 113
5, 29908, Note_on_c, 0, 41, 0
5, 29916, Note_on_c, 0, 51, 0
5, 29922, Note_on_c, 0, 77, 0
5, 29926, Note_on_c, 0, 78, 127
5, 29934, Note_on_c, 0, 77, 108
5, 29940, Note_on_c, 0, 60, 0
5, 29944, Note_on_c, 0, 78, 0
5, 29944, Note_on_c, 0, 59, 113
5, 29948, Note_on_c, 0, 75, 113
5, 29950, Note_on_c, 0, 40, 114
5, 29952, Note_on_c, 0, 77, 0
5, 29954, Note_on_c, 0, 63, 0
5, 29954, Note_on_c, 0, 47, 60
5, 29958, Note_on_c, 0, 47, 0
5, 29962, Note_on_c, 0, 76, 107
5, 29966, Note_on_c, 0, 75, 0
5, 30044, Note_on_c, 0, 47, 114
5, 30116, Note_on_c, 0, 59, 0
5, 30136, Note_on_c, 0, 76, 0
5, 30140, Note_on_c, 0, 52, 110
5, 30140, Note_on_c, 0, 64, 108
5, 30142, Note_on_c, 0, 59, 113
5, 30194, Note_on_c, 0, 40, 0
5, 30200, Note_on_c, 0, 66, 0
5, 30206, Note_on_c, 0, 47, 0
5, 30238, Note_on_c, 0, 59, 0
5, 30238, Note_on_c, 0, 64, 0
5, 30238, Note_on_c, 0, 64, 117
5, 30238, Note_on_c, 0, 59, 114
5, 30278, Note_on_c, 0, 52, 0
5, 30316, Note_on_c, 0, 50, 111
5, 30318, Note_on_c, 0, 59, 0
5, 30320, Note_on_c, 0, 56, 106
5, 30332, Note_on_c, 0, 73, 116
5, 30332, Note_on_c, 0, 53, 107
5, 30336, Note_on_c, 0, 56, 0
5, 30340, Note_on_c, 0, 59, 101
5, 30416, Note_on_c, 0, 64, 0
5, 30424, Note_on_c, 0, 56, 113
5, 30430, Note_on_c, 0, 59, 0
5, 30434, Note_on_c, 0, 59, 110
5, 30436, Note_on_c, 0, 53, 0
5, 30468, Note_on_c, 0, 59, 0
5, 30518, Note_on_c, 0, 59, 118
5, 30532, Note_on_c, 0, 62, 107
5, 30554, Note_on_c, 0, 62, 0
5, 30578, Note_on_c, 0, 68, 47
5, 30608, Note_on_c, 0, 68, 0
5, 30612, Note_on_c, 0, 73, 0
5, 30626, Note_on_c, 0, 71, 120
5, 30628, Note_on_c, 0, 68, 84
5, 30650, Note_on_c, 0, 50, 0
5, 30660, Note_on_c, 0, 68, 0
5, 30714, Note_on_c, 0, 69, 120
5, 30716, Note_on_c, 0, 49, 108
5, 30720, Note_on_c, 0, 65, 111
5, 30724, Note_on_c, 0, 71, 0
5, 30730, Note_on_c, 0, 56, 0
5, 30810, Note_on_c, 0, 53, 108
5, 30812, Note_on_c, 0, 59, 0
5, 30908, Note_on_c, 0, 59, 110
5, 30924, Note_on_c, 0, 49, 0
5, 30924, Note_on_c, 0, 49, 108
5, 30990, Note_on_c, 0, 59, 0
5, 31008, Note_on_c, 0, 61, 107
5, 31102, Note_on_c, 0, 59, 111
5, 31110, Note_on_c, 0, 61, 0
5, 31196, Note_on_c, 0, 56, 108
5, 31198, Note_on_c, 0, 59, 0
5, 31200, Note_on_c, 0, 61, 108
5, 31284, Note_on_c, 0, 69, 0
5, 31294, Note_on_c, 0, 68, 120
5, 31298, Note_on_c, 0, 59, 107
5, 31354, Note_on_c, 0, 59, 0
5, 31382, Note_on_c, 0, 53, 0
5, 31386, Note_on_c, 0, 56, 0
5, 31386, Note_on_c, 0, 59, 112
5, 31394, Note_on_c, 0, 49, 0
5, 31398, Note_on_c, 0, 68, 0
5, 31446, Note_on_c, 0, 65, 0
5, 31474, Note_on_c, 0, 66, 112
5, 31476, Note_on_c, 0, 42, 111
5, 31482, Note_on_c, 0, 59, 0
5, 31580, Note_on_c, 0, 54, 111
5, 31680, Note_on_c, 0, 57, 114
5, 31692, Note_on_c, 0, 61, 0
5, 31722, Note_on_c, 0, 81, 107
5, 31738, Note_on_c, 0, 83, 116
5, 31744, Note_on_c, 0, 81, 0
5, 31752, Note_on_c, 0, 85, 111
5, 31762, Note_on_c, 0, 83, 0
5, 31774, Note_on_c, 0, 88, 123
5, 31776, Note_on_c, 0, 85, 0
5, 31778, Note_on_c, 0, 61, 116
5, 31822, Note_on_c, 0, 88, 0
5, 31830, Note_on_c, 0, 87, 127
5, 31856, Note_on_c, 0, 61, 0
5, 31866, Note_on_c, 0, 87, 0
5, 31872, Note_on_c, 0, 62, 120
5, 31882, Note_on_c, 0, 86, 125
5, 31910, Note_on_c, 0, 86, 0
5, 31928, Note_on_c, 0, 85, 122
5, 31954, Note_on_c, 0, 85, 0
5, 31972, Note_on_c, 0, 50, 112
5, 31978, Note_on_c, 0, 81, 116
5, 31984, Note_on_c, 0, 54, 0
5, 32014, Note_on_c, 0, 81, 0
5, 32024, Note_on_c, 0, 80, 120
5, 32040, Note_on_c, 0, 80, 0
5, 32066, Note_on_c, 0, 54, 114
5, 32070, Note_on_c, 0, 78, 123
5, 32090, Note_on_c, 0, 57, 0
5, 32102, Note_on_c, 0, 78, 0
5, 32118, Note_on_c, 0, 76, 103
5, 32138, Note_on_c, 0, 76, 0
5, 32160, Note_on_c, 0, 57, 118
5, 32162, Note_on_c, 0, 42, 0
5, 32164, Note_on_c, 0, 50, 0
5, 32198, Note_on_c, 0, 62, 0
5, 32250, Note_on_c, 0, 57, 0
5, 32252, Note_on_c, 0, 63, 118
5, 32252, Note_on_c, 0, 61, 116
5, 32254, Note_on_c, 0, 47, 104
5, 32264, Note_on_c, 0, 54, 0
5, 32266, Note_on_c, 0, 57, 101
5, 32300, Note_on_c, 0, 57, 0
5, 32356, Note_on_c, 0, 54, 108
5, 32450, Note_on_c, 0, 57, 120
5, 32508, Note_on_c, 0, 75, 118
5, 32526, Note_on_c, 0, 75, 0
5, 32542, Note_on_c, 0, 59, 120
5, 32554, Note_on_c, 0, 83, 122
5, 32558, Note_on_c, 0, 61, 0
5, 32560, Note_on_c, 0, 47, 0
5, 32564, Note_on_c, 0, 54, 0
5, 32578, Note_on_c, 0, 57, 0
5, 32610, Note_on_c, 0, 82, 71
5, 32614, Note_on_c, 0, 63, 0
5, 32616, Note_on_c, 0, 83, 0
5, 32618, Note_on_c, 0, 66, 0
5, 32624, Note_on_c, 0, 82, 0
5, 32642, Note_on_c, 0, 68, 124
5, 32642, Note_on_c, 0, 45, 110
5, 32644, Note_on_c, 0, 63, 116
5, 32646, Note_on_c, 0, 54, 110
5, 32656, Note_on_c, 0, 81, 108
5, 32674, Note_on_c, 0, 81, 0
5, 32702, Note_on_c, 0, 80, 18
5, 32720, Note_on_c, 0, 80, 0
5, 32732, Note_on_c, 0, 51, 113
5, 32746, Note_on_c, 0, 54, 0
5, 32752, Note_on_c, 0, 78, 18
5, 32770, Note_on_c, 0, 78, 0
5, 32802, Note_on_c, 0, 75, 104
5, 32820, Note_on_c, 0, 75, 0
5, 32834, Note_on_c, 0, 69, 124
5, 32836, Note_on_c, 0, 66, 116
5, 32842, Note_on_c, 0, 63, 0
5, 32842, Note_on_c, 0, 54, 104
5, 32844, Note_on_c, 0, 68, 0
5, 32850, Note_on_c, 0, 51, 0
5, 32856, Note_on_c, 0, 71, 116
5, 32880, Note_on_c, 0, 71, 0
5, 32900, Note_on_c, 0, 75, 108
5, 32920, Note_on_c, 0, 75, 0
5, 32934, Note_on_c, 0, 51, 112
5, 32944, Note_on_c, 0, 71, 98
5, 32950, Note_on_c, 0, 45, 0
5, 32966, Note_on_c, 0, 71, 0
5, 32994, Note_on_c, 0, 54, 0
5, 32996, Note_on_c, 0, 66, 0
5, 33004, Note_on_c, 0, 69, 0
5, 33004, Note_on_c, 0, 69, 84
5, 33008, Note_on_c, 0, 59, 0
5, 33022, Note_on_c, 0, 69, 0
5, 33024, Note_on_c, 0, 51, 0
5, 33028, Note_on_c, 0, 71, 120
5, 33028, Note_on_c, 0, 59, 114
5, 33118, Note_on_c, 0, 52, 116
5, 33220, Note_on_c, 0, 56, 108
5, 33262, Note_on_c, 0, 52, 0
5, 33308, Note_on_c, 0, 64, 115
5, 33384, Note_on_c, 0, 64, 0
5, 33384, Note_on_c, 0, 59, 0
5, 33406, Note_on_c, 0, 64, 119
5, 33410, Note_on_c, 0, 52, 111
5, 33410, Note_on_c, 0, 59, 116
5, 33422, Note_on_c, 0, 56, 0
5, 33504, Note_on_c, 0, 56, 111
5, 33516, Note_on_c, 0, 52, 0
5, 33608, Note_on_c, 0, 52, 114
5, 33618, Note_on_c, 0, 56, 0
5, 33680, Note_on_c, 0, 59, 0
5, 33696, Note_on_c, 0, 64, 0
5, 33698, Note_on_c, 0, 56, 120
5, 33700, Note_on_c, 0, 52, 0
5, 33702, Note_on_c, 0, 71, 0
5, 33792, Note_on_c, 0, 56, 0
5, 33792, Note_on_c, 0, 75, 116
5, 33792, Note_on_c, 0, 71, 118
5, 33794, Note_on_c, 0, 63, 108
5, 33800, Note_on_c, 0, 45, 107
5, 33886, Note_on_c, 0, 52, 101
5, 33980, Note_on_c, 0, 73, 108
5, 33984, Note_on_c, 0, 69, 118
5, 33986, Note_on_c, 0, 57, 103
5, 33988, Note_on_c, 0, 63, 0
5, 33990, Note_on_c, 0, 75, 0
5, 33990, Note_on_c, 0, 71, 0
5, 33994, Note_on_c, 0, 52, 0
5, 34082, Note_on_c, 0, 52, 111
5, 34182, Note_on_c, 0, 49, 112
5, 34186, Note_on_c, 0, 57, 0
5, 34190, Note_on_c, 0, 52, 0
5, 34274, Note_on_c, 0, 52, 111
5, 34370, Note_on_c, 0, 61, 118
5, 34372, Note_on_c, 0, 57, 107
5, 34378, Note_on_c, 0, 69, 0
5, 34466, Note_on_c, 0, 69, 122
5, 34468, Note_on_c, 0, 52, 0
5, 34468, Note_on_c, 0, 49, 0
5, 34470, Note_on_c, 0, 73, 0
5, 34470, Note_on_c, 0, 45, 0
5, 34518, Note_on_c, 0, 61, 0
5, 34526, Note_on_c, 0, 57, 0
5, 34530, Note_on_c, 0, 56, 104
5, 34534, Note_on_c, 0, 49, 104
5, 34564, Note_on_c, 0, 59, 107
5, 34566, Note_on_c, 0, 65, 116
5, 34568, Note_on_c, 0, 73, 118
5, 34570, Note_on_c, 0, 69, 0
5, 34590, Note_on_c, 0, 56, 0
5, 34658, Note_on_c, 0, 53, 106
5, 34662, Note_on_c, 0, 59, 0
5, 34752, Note_on_c, 0, 73, 0
5, 34756, Note_on_c, 0, 71, 107
5, 34762, Note_on_c, 0, 59, 104
5, 34856, Note_on_c, 0, 56, 103
5, 34894, Note_on_c, 0, 49, 0
5, 34954, Note_on_c, 0, 49, 103
5, 34964, Note_on_c, 0, 53, 0
5, 35008, Note_on_c, 0, 56, 0
5, 35038, Note_on_c, 0, 53, 107
5, 35044, Note_on_c, 0, 59, 0
5, 35130, Note_on_c, 0, 73, 113
5, 35136, Note_on_c, 0, 59, 93
5, 35238, Note_on_c, 0, 56, 104
5, 35252, Note_on_c, 0, 59, 0
5, 35262, Note_on_c, 0, 53, 0
5, 35262, Note_on_c, 0, 49, 0
5, 35272, Note_on_c, 0, 56, 0
5, 35328, Note_on_c, 0, 69, 119
5, 35332, Note_on_c, 0, 42, 93
5, 35334, Note_on_c, 0, 73, 0
5, 35334, Note_on_c, 0, 71, 0
5, 35338, Note_on_c, 0, 65, 0
5, 35430, Note_on_c, 0, 49, 112
5, 35526, Note_on_c, 0, 57, 110
5, 35528, Note_on_c, 0, 54, 96
5, 35616, Note_on_c, 0, 61, 118
5, 35624, Note_on_c, 0, 57, 0
5, 35626, Note_on_c, 0, 42, 0
5, 35640, Note_on_c, 0, 49, 0
5, 35710, Note_on_c, 0, 61, 0
5, 35710, Note_on_c, 0, 60, 110
5, 35716, Note_on_c, 0, 45, 110
5, 35814, Note_on_c, 0, 52, 107
5, 35822, Note_on_c, 0, 54, 0
5, 35910, Note_on_c, 0, 54, 89
5, 35994, Note_on_c, 0, 64, 93
5, 36012, Note_on_c, 0, 45, 0
5, 36064, Note_on_c, 0, 60, 0
5, 36092, Note_on_c, 0, 44, 93
5, 36096, Note_on_c, 0, 52, 0
5, 36096, Note_on_c, 0, 59, 114
5, 36098, Note_on_c, 0, 54, 0
5, 36106, Note_on_c, 0, 69, 0
5, 36110, Note_on_c, 0, 64, 0
5, 36194, Note_on_c, 0, 52, 112
5, 36286, Note_on_c, 0, 64, 114
5, 36306, Note_on_c, 0, 52, 0
5, 36386, Note_on_c, 0, 52, 110
5, 36468, Note_on_c, 0, 44, 0
5, 36482, Note_on_c, 0, 52, 0
5, 36486, Note_on_c, 0, 69, 116
5, 36488, Note_on_c, 0, 64, 0
5, 36490, Note_on_c, 0, 49, 107
5, 36580, Note_on_c, 0, 53, 111
5, 36674, Note_on_c, 0, 68, 114
5, 36682, Note_on_c, 0, 69, 0
5, 36700, Note_on_c, 0, 49, 0
5, 36772, Note_on_c, 0, 49, 89
5, 36824, Note_on_c, 0, 53, 0
5, 36832, Note_on_c, 0, 42, 84
5, 36854, Note_on_c, 0, 52, 103
5, 36856, Note_on_c, 0, 49, 0
5, 36860, Note_on_c, 0, 68, 0
5, 36860, Note_on_c, 0, 64, 110
5, 36860, Note_on_c, 0, 61, 104
5, 36868, Note_on_c, 0, 59, 0
5, 36960, Note_on_c, 0, 57, 110
5, 36966, Note_on_c, 0, 61, 0
5, 37048, Note_on_c, 0, 69, 127
5, 37052, Note_on_c, 0, 61, 116
5, 37062, Note_on_c, 0, 64, 0
5, 37078, Note_on_c, 0, 69, 0
5, 37094, Note_on_c, 0, 73, 60
5, 37100, Note_on_c, 0, 73, 0
5, 37118, Note_on_c, 0, 42, 0
5, 37148, Note_on_c, 0, 76, 107
5, 37152, Note_on_c, 0, 64, 115
5, 37180, Note_on_c, 0, 61, 0
5, 37182, Note_on_c, 0, 52, 0
5, 37186, Note_on_c, 0, 76, 0
5, 37190, Note_on_c, 0, 80, 113
5, 37198, Note_on_c, 0, 57, 0
5, 37204, Note_on_c, 0, 54, 18
5, 37208, Note_on_c, 0, 80, 0
5, 37208, Note_on_c, 0, 47, 104
5, 37242, Note_on_c, 0, 57, 101
5, 37244, Note_on_c, 0, 63, 110
5, 37246, Note_on_c, 0, 66, 108
5, 37246, Note_on_c, 0, 60, 112
5, 37250, Note_on_c, 0, 83, 125
5, 37252, Note_on_c, 0, 64, 0
5, 37254, Note_on_c, 0, 54, 0
5, 37296, Note_on_c, 0, 83, 0
5, 37342, Note_on_c, 0, 83, 127
5, 37344, Note_on_c, 0, 51, 111
5, 37354, Note_on_c, 0, 57, 0
5, 37386, Note_on_c, 0, 83, 0
5, 37436, Note_on_c, 0, 83, 127
5, 37440, Note_on_c, 0, 57, 122
5, 37470, Note_on_c, 0, 60, 0
5, 37540, Note_on_c, 0, 60, 116
5, 37544, Note_on_c, 0, 57, 0
5, 37546, Note_on_c, 0, 51, 0
5, 37566, Note_on_c, 0, 47, 0
5, 37582, Note_on_c, 0, 82, 98
5, 37602, Note_on_c, 0, 66, 0
5, 37604, Note_on_c, 0, 80, 104
5, 37610, Note_on_c, 0, 60, 0
5, 37614, Note_on_c, 0, 63, 0
5, 37614, Note_on_c, 0, 83, 0
5, 37622, Note_on_c, 0, 78, 47
5, 37626, Note_on_c, 0, 82, 0
5, 37630, Note_on_c, 0, 64, 103
5, 37630, Note_on_c, 0, 79, 93
5, 37636, Note_on_c, 0, 80, 0
5, 37638, Note_on_c, 0, 79, 0
5, 37638, Note_on_c, 0, 40, 116
5, 37652, Note_on_c, 0, 78, 0
5, 37658, Note_on_c, 0, 76, 115
5, 37736, Note_on_c, 0, 47, 116
5, 37822, Note_on_c, 0, 52, 120
5, 37892, Note_on_c, 0, 40, 0
5, 37900, Note_on_c, 0, 47, 0
5, 37914, Note_on_c, 0, 59, 123
5, 37970, Note_on_c, 0, 64, 0
5, 37976, Note_on_c, 0, 76, 0
5, 37990, Note_on_c, 0, 52, 0
5, 37998, Note_on_c, 0, 51, 107
5, 38022, Note_on_c, 0, 63, 120
5, 38024, Note_on_c, 0, 69, 126
5, 38032, Note_on_c, 0, 59, 0
5, 38034, Note_on_c, 0, 57, 107
5, 38120, Note_on_c, 0, 54, 104
5, 38134, Note_on_c, 0, 57, 0
5, 38208, Note_on_c, 0, 57, 114
5, 38260, Note_on_c, 0, 54, 0
5, 38298, Note_on_c, 0, 57, 0
5, 38302, Note_on_c, 0, 69, 0
5, 38306, Note_on_c, 0, 68, 108
5, 38310, Note_on_c, 0, 51, 0
5, 38364, Note_on_c, 0, 66, 18
5, 38370, Note_on_c, 0, 63, 0
5, 38380, Note_on_c, 0, 66, 0
5, 38398, Note_on_c, 0, 40, 111
5, 38400, Note_on_c, 0, 64, 119
5, 38408, Note_on_c, 0, 68, 0
5, 38496, Note_on_c, 0, 47, 112
5, 38586, Note_on_c, 0, 52, 110
5, 38604, Note_on_c, 0, 47, 0
5, 38646, Note_on_c, 0, 40, 0
5, 38684, Note_on_c, 0, 56, 103
5, 38772, Note_on_c, 0, 56, 0
5, 38784, Note_on_c, 0, 57, 115
5, 38786, Note_on_c, 0, 54, 111
5, 38796, Note_on_c, 0, 52, 0
5, 38800, Note_on_c, 0, 64, 0
5, 38992, Note_on_c, 0, 60, 115
5, 39014, Note_on_c, 0, 54, 0
5, 39182, Note_on_c, 0, 57, 0
5, 39184, Note_on_c, 0, 60, 0
5, 39274, Note_on_c, 0, 47, 113
5, 39366, Note_on_c, 0, 59, 114
5, 39368, Note_on_c, 0, 52, 101
5, 39458, Note_on_c, 0, 64, 118
5, 39554, Note_on_c, 0, 44, 108
5, 39556, Note_on_c, 0, 47, 0
5, 39560, Note_on_c, 0, 69, 118
5, 39564, Note_on_c, 0, 52, 0
5, 39652, Note_on_c, 0, 52, 119
5, 39750, Note_on_c, 0, 47, 114
5, 39840, Note_on_c, 0, 68, 113
5, 39874, Note_on_c, 0, 69, 0
5, 39898, Note_on_c, 0, 47, 0
5, 39900, Note_on_c, 0, 64, 0
5, 39926, Note_on_c, 0, 44, 0
5, 39938, Note_on_c, 0, 64, 106
5, 39940, Note_on_c, 0, 42, 101
5, 39942, Note_on_c, 0, 61, 111
5, 39946, Note_on_c, 0, 68, 0
5, 39954, Note_on_c, 0, 59, 0
5, 40036, Note_on_c, 0, 49, 108
5, 40038, Note_on_c, 0, 52, 0
5, 40046, Note_on_c, 0, 57, 110
5, 40130, Note_on_c, 0, 66, 122
5, 40132, Note_on_c, 0, 52, 110
5, 40184, Note_on_c, 0, 61, 0
5, 40222, Note_on_c, 0, 61, 116
5, 40232, Note_on_c, 0, 57, 0
5, 40262, Note_on_c, 0, 42, 0
5, 40278, Note_on_c, 0, 52, 0
5, 40302, Note_on_c, 0, 41, 103
5, 40312, Note_on_c, 0, 49, 0
5, 40322, Note_on_c, 0, 51, 78
5, 40324, Note_on_c, 0, 60, 114
5, 40326, Note_on_c, 0, 61, 0
5, 40330, Note_on_c, 0, 64, 0
5, 40418, Note_on_c, 0, 48, 111
5, 40422, Note_on_c, 0, 51, 0
5, 40520, Note_on_c, 0, 51, 111
5, 40596, Note_on_c, 0, 63, 98
5, 40600, Note_on_c, 0, 48, 0
5, 40672, Note_on_c, 0, 41, 0
5, 40676, Note_on_c, 0, 60, 0
5, 40690, Note_on_c, 0, 51, 0
5, 40704, Note_on_c, 0, 59, 111
5, 40706, Note_on_c, 0, 63, 0
5, 40708, Note_on_c, 0, 40, 111
5, 40716, Note_on_c, 0, 66, 0
5, 40800, Note_on_c, 0, 47, 111
5, 40874, Note_on_c, 0, 59, 0
5, 40896, Note_on_c, 0, 52, 108
5, 40898, Note_on_c, 0, 59, 117
5, 40952, Note_on_c, 0, 40, 0
5, 40962, Note_on_c, 0, 47, 0
5, 40986, Note_on_c, 0, 59, 0
5, 40988, Note_on_c, 0, 64, 114
5, 41000, Note_on_c, 0, 52, 0
5, 41054, Note_on_c, 0, 50, 112
5, 41056, Note_on_c, 0, 56, 60
5, 41064, Note_on_c, 0, 56, 0
5, 41068, Note_on_c, 0, 59, 110
5, 41076, Note_on_c, 0, 66, 107
5, 41082, Note_on_c, 0, 64, 0
5, 41082, Note_on_c, 0, 73, 119
5, 41180, Note_on_c, 0, 56, 113
5, 41184, Note_on_c, 0, 59, 0
5, 41276, Note_on_c, 0, 59, 116
5, 41362, Note_on_c, 0, 73, 0
5, 41382, Note_on_c, 0, 71, 120
5, 41396, Note_on_c, 0, 50, 0
5, 41468, Note_on_c, 0, 56, 0
5, 41470, Note_on_c, 0, 49, 108
5, 41472, Note_on_c, 0, 66, 0
5, 41474, Note_on_c, 0, 69, 118
5, 41476, Note_on_c, 0, 65, 112
5, 41484, Note_on_c, 0, 71, 0
5, 41568, Note_on_c, 0, 56, 107
5, 41572, Note_on_c, 0, 59, 0
5, 41664, Note_on_c, 0, 59, 111
5, 41760, Note_on_c, 0, 53, 111
5, 41766, Note_on_c, 0, 59, 0
5, 41772, Note_on_c, 0, 56, 0
5, 41856, Note_on_c, 0, 59, 111
5, 41916, Note_on_c, 0, 59, 0
5, 41950, Note_on_c, 0, 59, 104
5, 42034, Note_on_c, 0, 69, 0
5, 42042, Note_on_c, 0, 68, 116
5, 42044, Note_on_c, 0, 56, 104
5, 42096, Note_on_c, 0, 59, 0
5, 42146, Note_on_c, 0, 59, 107
5, 42152, Note_on_c, 0, 53, 0
5, 42158, Note_on_c, 0, 49, 0
5, 42158, Note_on_c, 0, 56, 0
5, 42204, Note_on_c, 0, 68, 0
5, 42218, Note_on_c, 0, 65, 0
5, 42246, Note_on_c, 0, 66, 122
5, 42248, Note_on_c, 0, 42, 107
5, 42250, Note_on_c, 0, 54, 18
5, 42254, Note_on_c, 0, 42, 0
5, 42254, Note_on_c, 0, 42, 18
5, 42264, Note_on_c, 0, 59, 0
5, 42340, Note_on_c, 0, 54, 0
5, 42342, Note_on_c, 0, 57, 112
5, 42344, Note_on_c, 0, 54, 111
5, 42432, Note_on_c, 0, 54, 0
5, 42432, Note_on_c, 0, 54, 118
5, 42438, Note_on_c, 0, 61, 112
5, 42476, Note_on_c, 0, 69, 127
5, 42482, Note_on_c, 0, 66, 0
5, 42506, Note_on_c, 0, 69, 0
5, 42516, Note_on_c, 0, 73, 114
5, 42530, Note_on_c, 0, 66, 110
5, 42534, Note_on_c, 0, 73, 0
5, 42560, Note_on_c, 0, 76, 111
5, 42588, Note_on_c, 0, 76, 0
5, 42592, Note_on_c, 0, 61, 0
5, 42596, Note_on_c, 0, 80, 125
5, 42612, Note_on_c, 0, 80, 0
5, 42622, Note_on_c, 0, 62, 115
5, 42626, Note_on_c, 0, 50, 107
5, 42638, Note_on_c, 0, 83, 127
5, 42644, Note_on_c, 0, 54, 0
5, 42674, Note_on_c, 0, 83, 0
5, 42706, Note_on_c, 0, 83, 127
5, 42724, Note_on_c, 0, 54, 120
5, 42734, Note_on_c, 0, 50, 0
5, 42742, Note_on_c, 0, 83, 0
5, 42768, Note_on_c, 0, 57, 0
5, 42776, Note_on_c, 0, 83, 127
5, 42808, Note_on_c, 0, 62, 0
5, 42820, Note_on_c, 0, 83, 0
5, 42828, Note_on_c, 0, 57, 120
5, 42834, Note_on_c, 0, 64, 106
5, 42862, Note_on_c, 0, 64, 0
5, 42864, Note_on_c, 0, 42, 0
5, 42870, Note_on_c, 0, 82, 106
5, 42896, Note_on_c, 0, 82, 0
5, 42902, Note_on_c, 0, 81, 111
5, 42910, Note_on_c, 0, 62, 115
5, 42922, Note_on_c, 0, 81, 0
5, 42928, Note_on_c, 0, 80, 118
5, 42954, Note_on_c, 0, 57, 0
5, 42960, Note_on_c, 0, 80, 0
5, 42970, Note_on_c, 0, 47, 101
5, 42980, Note_on_c, 0, 74, 104
5, 42980, Note_on_c, 0, 76, 98
5, 42982, Note_on_c, 0, 62, 0
5, 42986, Note_on_c, 0, 76, 0
5, 42990, Note_on_c, 0, 74, 0
5, 42994, Note_on_c, 0, 57, 101
5, 43000, Note_on_c, 0, 63, 110
5, 43002, Note_on_c, 0, 54, 0
5, 43004, Note_on_c, 0, 61, 113
5, 43016, Note_on_c, 0, 78, 127
5, 43064, Note_on_c, 0, 78, 0
5, 43102, Note_on_c, 0, 54, 107
5, 43108, Note_on_c, 0, 57, 0
5, 43120, Note_on_c, 0, 73, 118
5, 43146, Note_on_c, 0, 73, 0
5, 43186, Note_on_c, 0, 75, 122
5, 43196, Note_on_c, 0, 59, 111
5, 43220, Note_on_c, 0, 75, 0
5, 43248, Note_on_c, 0, 61, 0
5, 43258, Note_on_c, 0, 63, 0
5, 43288, Note_on_c, 0, 61, 116
5, 43292, Note_on_c, 0, 59, 0
5, 43294, Note_on_c, 0, 73, 98
5, 43318, Note_on_c, 0, 47, 0
5, 43324, Note_on_c, 0, 73, 0
5, 43330, Note_on_c, 0, 54, 0
5, 43342, Note_on_c, 0, 69, 101
5, 43362, Note_on_c, 0, 69, 0
5, 43386, Note_on_c, 0, 71, 118
5, 43390, Note_on_c, 0, 68, 118
5, 43392, Note_on_c, 0, 45, 112
5, 43392, Note_on_c, 0, 63, 122
5, 43394, Note_on_c, 0, 54, 114
5, 43398, Note_on_c, 0, 61, 0
5, 43402, Note_on_c, 0, 66, 0
5, 43428, Note_on_c, 0, 71, 0
5, 43436, Note_on_c, 0, 68, 0
5, 43436, Note_on_c, 0, 68, 101
5, 43478, Note_on_c, 0, 69, 111
5, 43488, Note_on_c, 0, 51, 110
5, 43496, Note_on_c, 0, 54, 0
5, 43514, Note_on_c, 0, 69, 0
5, 43522, Note_on_c, 0, 66, 103
5, 43540, Note_on_c, 0, 66, 0
5, 43580, Note_on_c, 0, 68, 0
5, 43580, Note_on_c, 0, 68, 127
5, 43586, Note_on_c, 0, 69, 122
5, 43594, Note_on_c, 0, 54, 101
5, 43608, Note_on_c, 0, 51, 0
5, 43624, Note_on_c, 0, 68, 0
5, 43646, Note_on_c, 0, 66, 60
5, 43660, Note_on_c, 0, 66, 0
5, 43684, Note_on_c, 0, 51, 111
5, 43684, Note_on_c, 0, 68, 106
5, 43700, Note_on_c, 0, 45, 0
5, 43702, Note_on_c, 0, 66, 110
5, 43712, Note_on_c, 0, 68, 0
5, 43730, Note_on_c, 0, 66, 0
5, 43732, Note_on_c, 0, 64, 107
5, 43748, Note_on_c, 0, 44, 112
5, 43750, Note_on_c, 0, 54, 0
5, 43756, Note_on_c, 0, 64, 0
5, 43756, Note_on_c, 0, 51, 0
5, 43758, Note_on_c, 0, 63, 0
5, 43758, Note_on_c, 0, 63, 118
5, 43774, Note_on_c, 0, 69, 0
5, 43774, Note_on_c, 0, 66, 104
5, 43780, Note_on_c, 0, 63, 0
5, 43780, Note_on_c, 0, 71, 120
5, 43780, Note_on_c, 0, 59, 114
5, 43870, Note_on_c, 0, 52, 116
5, 43972, Note_on_c, 0, 56, 108
5, 44014, Note_on_c, 0, 52, 0
5, 44060, Note_on_c, 0, 64, 115
5, 44070, Note_on_c, 0, 66, 0
5, 44136, Note_on_c, 0, 59, 0
5, 44136, Note_on_c, 0, 64, 0
5, 44158, Note_on_c, 0, 64, 119
5, 44162, Note_on_c, 0, 52, 111
5, 44162, Note_on_c, 0, 59, 116
5, 44174, Note_on_c, 0, 56, 0
5, 44256, Note_on_c, 0, 56, 111
5, 44268, Note_on_c, 0, 52, 0
5, 44360, Note_on_c, 0, 52, 114
5, 44370, Note_on_c, 0, 56, 0
5, 44432, Note_on_c, 0, 59, 0
5, 44448, Note_on_c, 0, 64, 0
5, 44450, Note_on_c, 0, 56, 120
5, 44452, Note_on_c, 0, 52, 0
5, 44454, Note_on_c, 0, 71, 0
5, 44514, Note_on_c, 0, 44, 0
5, 44544, Note_on_c, 0, 56, 0
5, 44544, Note_on_c, 0, 75, 116
5, 44544, Note_on_c, 0, 71, 118
5, 44546, Note_on_c, 0, 63, 108
5, 44552, Note_on_c, 0, 45, 107
5, 44638, Note_on_c, 0, 52, 101
5, 44732, Note_on_c, 0, 73, 108
5, 44736, Note_on_c, 0, 69, 118
5, 44738, Note_on_c, 0, 57, 103
5, 44740, Note_on_c, 0, 63, 0
5, 44742, Note_on_c, 0, 75, 0
5, 44742, Note_on_c, 0, 71, 0
5, 44746, Note_on_c, 0, 52, 0
5, 44834, Note_on_c, 0, 52, 111
5, 44934, Note_on_c, 0, 49, 112
5, 44938, Note_on_c, 0, 57, 0
5, 44942, Note_on_c, 0, 52, 0
5, 45026, Note_on_c, 0, 52, 111
5, 45122, Note_on_c, 0, 61, 118
5, 45124, Note_on_c, 0, 57, 107
5, 45130, Note_on_c, 0, 69, 0
5, 45218, Note_on_c, 0, 69, 122
5, 45220, Note_on_c, 0, 52, 0
5, 45220, Note_on_c, 0, 49, 0
5, 45222, Note_on_c, 0, 73, 0
5, 45222, Note_on_c, 0, 45, 0
5, 45270, Note_on_c, 0, 61, 0
5, 45278, Note_on_c, 0, 57, 0
5, 45282, Note_on_c, 0, 56, 104
5, 45286, Note_on_c, 0, 49, 104
5, 45316, Note_on_c, 0, 59, 107
5, 45318, Note_on_c, 0, 65, 116
5, 45320, Note_on_c, 0, 73, 118
5, 45322, Note_on_c, 0, 69, 0
5, 45342, Note_on_c, 0, 56, 0
5, 45410, Note_on_c, 0, 53, 106
5, 45414, Note_on_c, 0, 59, 0
5, 45504, Note_on_c, 0, 73, 0
5, 45508, Note_on_c, 0, 71, 107
5, 45514, Note_on_c, 0, 59, 104
5, 45608, Note_on_c, 0, 56, 103
5, 45646, Note_on_c, 0, 49, 0
5, 45706, Note_on_c, 0, 49, 103
5, 45716, Note_on_c, 0, 53, 0
5, 45760, Note_on_c, 0, 56, 0
5, 45790, Note_on_c, 0, 53, 107
5, 45796, Note_on_c, 0, 59, 0
5, 45882, Note_on_c, 0, 73, 113
5, 45888, Note_on_c, 0, 59, 93
5, 45990, Note_on_c, 0, 56, 104
5, 46004, Note_on_c, 0, 59, 0
5, 46014, Note_on_c, 0, 53, 0
5, 46014, Note_on_c, 0, 49, 0
5, 46024, Note_on_c, 0, 56, 0
5, 46080, Note_on_c, 0, 69, 119
5, 46084, Note_on_c, 0, 42, 93
5, 46086, Note_on_c, 0, 73, 0
5, 46086, Note_on_c, 0, 71, 0
5, 46090, Note_on_c, 0, 65, 0
5, 46182, Note_on_c, 0, 49, 112
5, 46278, Note_on_c, 0, 57, 110
5, 46280, Note_on_c, 0, 54, 96
5, 46368, Note_on_c, 0, 61, 118
5, 46376, Note_on_c, 0, 57, 0
5, 46378, Note_on_c, 0, 42, 0
5, 46392, Note_on_c, 0, 49, 0
5, 46462, Note_on_c, 0, 61, 0
5, 46462, Note_on_c, 0, 60, 110
5, 46468, Note_on_c, 0, 45, 110
5, 46566, Note_on_c, 0, 52, 107
5, 46574, Note_on_c, 0, 54, 0
5, 46662, Note_on_c, 0, 54, 89
5, 46746, Note_on_c, 0, 64, 93
5, 46764, Note_on_c, 0, 45, 0
5, 46816, Note_on_c, 0, 60, 0
5, 46844, Note_on_c, 0, 44, 93
5, 46848, Note_on_c, 0, 52, 0
5, 46848, Note_on_c, 0, 59, 114
5, 46850, Note_on_c, 0, 54, 0
5, 46858, Note_on_c, 0, 69, 0
5, 46862, Note_on_c, 0, 64, 0
5, 46946, Note_on_c, 0, 52, 112
5, 47038, Note_on_c, 0, 64, 114
5, 47058, Note_on_c, 0, 52, 0
5, 47138, Note_on_c, 0, 52, 110
5, 47220, Note_on_c, 0, 44, 0
5, 47234, Note_on_c, 0, 52, 0
5, 47238, Note_on_c, 0, 69, 116
5, 47240, Note_on_c, 0, 64, 0
5, 47242, Note_on_c, 0, 49, 107
5, 47332, Note_on_c, 0, 53, 111
5, 47426, Note_on_c, 0, 68, 114
5, 47434, Note_on_c, 0, 69, 0
5, 47452, Note_on_c, 0, 49, 0
5, 47524, Note_on_c, 0, 49, 89
5, 47576, Note_on_c, 0, 53, 0
5, 47584, Note_on_c, 0, 42, 84
5, 47606, Note_on_c, 0, 52, 103
5, 47608, Note_on_c, 0, 49, 0
5, 47612, Note_on_c, 0, 68, 0
5, 47612, Note_on_c, 0, 64, 110
5, 47612, Note_on_c, 0, 61, 104
5, 47620, Note_on_c, 0, 59, 0
5, 47712, Note_on_c, 0, 57, 110
5, 47718, Note_on_c, 0, 61, 0
5, 47800, Note_on_c, 0, 69, 127
5, 47804, Note_on_c, 0, 61, 116
5, 47814, Note_on_c, 0, 64, 0
5, 47830, Note_on_c, 0, 69, 0
5, 47846, Note_on_c, 0, 73, 60
5, 47852, Note_on_c, 0, 73, 0
5, 47870, Note_on_c, 0, 42, 0
5, 47900, Note_on_c, 0, 76, 107
5, 47904, Note_on_c, 0, 64, 115
5, 47932, Note_on_c, 0, 61, 0
5, 47934, Note_on_c, 0, 52, 0
5, 47938, Note_on_c, 0, 76, 0
5, 47942, Note_on_c, 0, 80, 113
5, 47950, Note_on_c, 0, 57, 0
5, 47956, Note_on_c, 0, 54, 18
5, 47960, Note_on_c, 0, 80, 0
5, 47960, Note_on_c, 0, 47, 104
5, 47994, Note_on_c, 0, 57, 101
5, 47996, Note_on_c, 0, 63, 110
5, 47998, Note_on_c, 0, 66, 108
5, 47998, Note_on_c, 0, 60, 112
5, 48002, Note_on_c, 0, 83, 125
5, 48004, Note_on_c, 0, 64, 0
5, 48006, Note_on_c, 0, 54, 0
5, 48048, Note_on_c, 0, 83, 0
5, 48094, Note_on_c, 0, 83, 127
5, 48096, Note_on_c, 0, 51, 111
5, 48106, Note_on_c, 0, 57, 0
5, 48138, Note_on_c, 0, 83, 0
5, 48188, Note_on_c, 0, 83, 127
5, 48192, Note_on_c, 0, 57, 122
5, 48222, Note_on_c, 0, 60, 0
5, 48292, Note_on_c, 0, 60, 116
5, 48296, Note_on_c, 0, 57, 0
5, 48298, Note_on_c, 0, 51, 0
5, 48318, Note_on_c, 0, 47, 0
5, 48334, Note_on_c, 0, 82, 98
5, 48354, Note_on_c, 0, 66, 0
5, 48356, Note_on_c, 0, 80, 104
5, 48362, Note_on_c, 0, 60, 0
5, 48366, Note_on_c, 0, 63, 0
5, 48366, Note_on_c, 0, 83, 0
5, 48374, Note_on_c, 0, 78, 47
5, 48378, Note_on_c, 0, 82, 0
5, 48382, Note_on_c, 0, 64, 103
5, 48382, Note_on_c, 0, 79, 93
5, 48384, Note_on_c, 0, 40, 93
5, 48384, Note_on_c, 0, 68, 103
5, 48388, Note_on_c, 0, 80, 0
5, 48390, Note_on_c, 0, 79, 0
5, 48390, Note_on_c, 0, 59, 111
5, 48392, Note_on_c, 0, 52, 96
5, 48400, Note_on_c, 0, 76, 115
5, 48404, Note_on_c, 0, 78, 0
5, 48478, Note_on_c, 0, 47, 114
5, 48480, Note_on_c, 0, 52, 0
5, 48576, Note_on_c, 0, 52, 119
5, 48608, Note_on_c, 0, 59, 0
5, 48636, Note_on_c, 0, 76, 0
5, 48672, Note_on_c, 0, 59, 120
5, 48682, Note_on_c, 0, 40, 0
5, 48696, Note_on_c, 0, 47, 0
5, 48722, Note_on_c, 0, 64, 0
5, 48748, Note_on_c, 0, 52, 0
5, 48754, Note_on_c, 0, 59, 0
5, 48764, Note_on_c, 0, 51, 110
5, 48770, Note_on_c, 0, 63, 113
5, 48770, Note_on_c, 0, 69, 115
5, 48776, Note_on_c, 0, 60, 113
5, 48782, Note_on_c, 0, 68, 0
5, 48862, Note_on_c, 0, 57, 115
5, 48962, Note_on_c, 0, 54, 106
5, 49042, Note_on_c, 0, 54, 0
5, 49048, Note_on_c, 0, 68, 110
5, 49050, Note_on_c, 0, 57, 0
5, 49066, Note_on_c, 0, 51, 0
5, 49070, Note_on_c, 0, 69, 0
5, 49108, Note_on_c, 0, 60, 0
5, 49138, Note_on_c, 0, 63, 0
5, 49142, Note_on_c, 0, 64, 108
5, 49144, Note_on_c, 0, 59, 110
5, 49146, Note_on_c, 0, 40, 103
5, 49146, Note_on_c, 0, 52, 98
5, 49160, Note_on_c, 0, 68, 0
5, 49250, Note_on_c, 0, 47, 111
5, 49254, Note_on_c, 0, 52, 0
5, 49346, Note_on_c, 0, 52, 114
5, 49392, Note_on_c, 0, 64, 0
5, 49392, Note_on_c, 0, 64, 127
5, 49434, Note_on_c, 0, 40, 0
5, 49436, Note_on_c, 0, 56, 123
5, 49438, Note_on_c, 0, 66, 107
5, 49444, Note_on_c, 0, 47, 0
5, 49462, Note_on_c, 0, 66, 0
5, 49484, Note_on_c, 0, 68, 108
5, 49490, Note_on_c, 0, 52, 0
5, 49508, Note_on_c, 0, 68, 0
5, 49516, Note_on_c, 0, 51, 60
5, 49520, Note_on_c, 0, 45, 107
5, 49522, Note_on_c, 0, 59, 0
5, 49526, Note_on_c, 0, 56, 0
5, 49530, Note_on_c, 0, 57, 118
5, 49530, Note_on_c, 0, 54, 113
5, 49534, Note_on_c, 0, 71, 120
5, 49548, Note_on_c, 0, 64, 0
5, 49572, Note_on_c, 0, 71, 0
5, 49582, Note_on_c, 0, 76, 117
5, 49602, Note_on_c, 0, 76, 0
5, 49628, Note_on_c, 0, 78, 126
5, 49638, Note_on_c, 0, 60, 120
5, 49654, Note_on_c, 0, 78, 0
5, 49662, Note_on_c, 0, 51, 0
5, 49674, Note_on_c, 0, 76, 120
5, 49696, Note_on_c, 0, 76, 0
5, 49726, Note_on_c, 0, 83, 127
5, 49732, Note_on_c, 0, 51, 112
5, 49756, Note_on_c, 0, 54, 0
5, 49778, Note_on_c, 0, 83, 0
5, 49778, Note_on_c, 0, 82, 114
5, 49814, Note_on_c, 0, 82, 0
5, 49820, Note_on_c, 0, 81, 107
5, 49826, Note_on_c, 0, 63, 113
5, 49834, Note_on_c, 0, 54, 104
5, 49846, Note_on_c, 0, 51, 0
5, 49850, Note_on_c, 0, 81, 0
5, 49854, Note_on_c, 0, 45, 0
5, 49866, Note_on_c, 0, 54, 0
5, 49886, Note_on_c, 0, 76, 114
5, 49902, Note_on_c, 0, 76, 0
5, 49910, Note_on_c, 0, 57, 0
5, 49926, Note_on_c, 0, 64, 107
5, 49930, Note_on_c, 0, 52, 101
5, 49932, Note_on_c, 0, 40, 98
5, 49932, Note_on_c, 0, 59, 110
5, 49934, Note_on_c, 0, 80, 119
5, 49938, Note_on_c, 0, 63, 0
5, 49938, Note_on_c, 0, 60, 0
5, 50020, Note_on_c, 0, 47, 112
5, 50026, Note_on_c, 0, 52, 0
5, 50070, Note_on_c, 0, 59, 0
5, 50108, Note_on_c, 0, 52, 110
5, 50108, Note_on_c, 0, 59, 119
5, 50124, Note_on_c, 0, 64, 0
5, 50150, Note_on_c, 0, 80, 0
5, 50208, Note_on_c, 0, 64, 118
5, 50264, Note_on_c, 0, 40, 0
5, 50298, Note_on_c, 0, 47, 0
5, 50304, Note_on_c, 0, 69, 117
5, 50310, Note_on_c, 0, 44, 106
5, 50314, Note_on_c, 0, 52, 0
5, 50396, Note_on_c, 0, 52, 110
5, 50502, Note_on_c, 0, 47, 107
5, 50590, Note_on_c, 0, 68, 113
5, 50594, Note_on_c, 0, 44, 0
5, 50598, Note_on_c, 0, 69, 0
5, 50606, Note_on_c, 0, 64, 0
5, 50658, Note_on_c, 0, 44, 18
5, 50660, Note_on_c, 0, 42, 107
5, 50670, Note_on_c, 0, 44, 0
5, 50674, Note_on_c, 0, 47, 0
5, 50682, Note_on_c, 0, 68, 0
5, 50688, Note_on_c, 0, 64, 107
5, 50690, Note_on_c, 0, 61, 113
5, 50702, Note_on_c, 0, 59, 0
5, 50782, Note_on_c, 0, 66, 120
5, 50786, Note_on_c, 0, 57, 111
5, 50788, Note_on_c, 0, 49, 96
5, 50800, Note_on_c, 0, 52, 0
5, 50876, Note_on_c, 0, 52, 117
5, 50898, Note_on_c, 0, 57, 0
5, 50974, Note_on_c, 0, 57, 118
5, 51014, Note_on_c, 0, 42, 0
5, 51034, Note_on_c, 0, 52, 0
5, 51046, Note_on_c, 0, 61, 0
5, 51062, Note_on_c, 0, 41, 108
5, 51068, Note_on_c, 0, 64, 0
5, 51070, Note_on_c, 0, 49, 0
5, 51070, Note_on_c, 0, 60, 113
5, 51074, Note_on_c, 0, 53, 111
5, 51076, Note_on_c, 0, 51, 106
5, 51078, Note_on_c, 0, 67, 127
5, 51084, Note_on_c, 0, 63, 116
5, 51118, Note_on_c, 0, 63, 0
5, 51122, Note_on_c, 0, 67, 0
5, 51126, Note_on_c, 0, 68, 122
5, 51128, Note_on_c, 0, 53, 0
5, 51164, Note_on_c, 0, 68, 0
5, 51168, Note_on_c, 0, 48, 108
5, 51172, Note_on_c, 0, 69, 118
5, 51174, Note_on_c, 0, 51, 0
5, 51206, Note_on_c, 0, 69, 0
5, 51216, Note_on_c, 0, 72, 124
5, 51244, Note_on_c, 0, 72, 0
5, 51260, Note_on_c, 0, 51, 113
5, 51266, Note_on_c, 0, 75, 127
5, 51300, Note_on_c, 0, 75, 0
5, 51314, Note_on_c, 0, 79, 127
5, 51336, Note_on_c, 0, 48, 0
5, 51356, Note_on_c, 0, 63, 98
5, 51364, Note_on_c, 0, 63, 0
5, 51364, Note_on_c, 0, 63, 114
5, 51370, Note_on_c, 0, 79, 0
5, 51378, Note_on_c, 0, 57, 0
5, 51406, Note_on_c, 0, 77, 113
5, 51412, Note_on_c, 0, 41, 0
5, 51420, Note_on_c, 0, 51, 0
5, 51426, Note_on_c, 0, 77, 0
5, 51430, Note_on_c, 0, 78, 127
5, 51438, Note_on_c, 0, 77, 108
5, 51444, Note_on_c, 0, 60, 0
5, 51448, Note_on_c, 0, 78, 0
5, 51448, Note_on_c, 0, 59, 113
5, 51452, Note_on_c, 0, 75, 113
5, 51454, Note_on_c, 0, 40, 114
5, 51456, Note_on_c, 0, 77, 0
5, 51458, Note_on_c, 0, 63, 0
5, 51458, Note_on_c, 0, 47, 60
5, 51462, Note_on_c, 0, 47, 0
5, 51466, Note_on_c, 0, 76, 107
5, 51470, Note_on_c, 0, 75, 0
5, 51548, Note_on_c, 0, 47, 114
5, 51620, Note_on_c, 0, 59, 0
5, 51640, Note_on_c, 0, 76, 0
5, 51644, Note_on_c, 0, 52, 110
5, 51644, Note_on_c, 0, 64, 108
5, 51646, Note_on_c, 0, 59, 113
5, 51698, Note_on_c, 0, 40, 0
5, 51704, Note_on_c, 0, 66, 0
5, 51710, Note_on_c, 0, 47, 0
5, 51742, Note_on_c, 0, 59, 0
5, 51742, Note_on_c, 0, 64, 0
5, 51742, Note_on_c, 0, 64, 117
5, 51742, Note_on_c, 0, 59, 114
5, 51782, Note_on_c, 0, 52, 0
5, 51820, Note_on_c, 0, 50, 111
5, 51822, Note_on_c, 0, 59, 0
5, 51824, Note_on_c, 0, 56, 106
5, 51836, Note_on_c, 0, 73, 116
5, 51836, Note_on_c, 0, 53, 107
5, 51840, Note_on_c, 0, 56, 0
5, 51844, Note_on_c, 0, 59, 101
5, 51920, Note_on_c, 0, 64, 0
5, 51928, Note_on_c, 0, 56, 113
5, 51934, Note_on_c, 0, 59, 0
5, 51938, Note_on_c, 0, 59, 110
5, 51940, Note_on_c, 0, 53, 0
5, 51972, Note_on_c, 0, 59, 0
5, 52022, Note_on_c, 0, 59, 118
5, 52036, Note_on_c, 0, 62, 107
5, 52058, Note_on_c, 0, 62, 0
5, 52082, Note_on_c, 0, 68, 47
5, 52112, Note_on_c, 0, 68, 0
5, 52116, Note_on_c, 0, 73, 0
5, 52130, Note_on_c, 0, 71, 120
5, 52132, Note_on_c, 0, 68, 84
5, 52154, Note_on_c, 0, 50, 0
5, 52164, Note_on_c, 0, 68, 0
5, 52218, Note_on_c, 0, 69, 120
5, 52220, Note_on_c, 0, 49, 108
5, 52224, Note_on_c, 0, 65, 111
5, 52228, Note_on_c, 0, 71, 0
5, 52234, Note_on_c, 0, 56, 0
5, 52314, Note_on_c, 0, 53, 108
5, 52316, Note_on_c, 0, 59, 0
5, 52412, Note_on_c, 0, 59, 110
5, 52428, Note_on_c, 0, 49, 0
5, 52428, Note_on_c, 0, 49, 108
5, 52494, Note_on_c, 0, 59, 0
5, 52512, Note_on_c, 0, 61, 107
5, 52606, Note_on_c, 0, 59, 111
5, 52614, Note_on_c, 0, 61, 0
5, 52700, Note_on_c, 0, 56, 108
5, 52702, Note_on_c, 0, 59, 0
5, 52704, Note_on_c, 0, 61, 108
5, 52788, Note_on_c, 0, 69, 0
5, 52798, Note_on_c, 0, 68, 120
5, 52802, Note_on_c, 0, 59, 107
5, 52858, Note_on_c, 0, 59, 0
5, 52886, Note_on_c, 0, 53, 0
5, 52890, Note_on_c, 0, 56, 0
5, 52890, Note_on_c, 0, 59, 112
5, 52898, Note_on_c, 0, 49, 0
5, 52902, Note_on_c, 0, 68, 0
5, 52950, Note_on_c, 0, 65, 0
5, 52978, Note_on_c, 0, 66, 112
5, 52980, Note_on_c, 0, 42, 111
5, 52986, Note_on_c, 0, 59, 0
5, 53084, Note_on_c, 0, 54, 111
5, 53184, Note_on_c, 0, 57, 114
5, 53196, Note_on_c, 0, 61, 0
5, 53226, Note_on_c, 0, 81, 107
5, 53242, Note_on_c, 0, 83, 116
5, 53248, Note_on_c, 0, 81, 0
5, 53256, Note_on_c, 0, 85, 111
5, 53266, Note_on_c, 0, 83, 0
5, 53278, Note_on_c, 0, 88, 123
5, 53280, Note_on_c, 0, 85, 0
5, 53282, Note_on_c, 0, 61, 116
5, 53326, Note_on_c, 0, 88, 0
5, 53334, Note_on_c, 0, 87, 127
5, 53360, Note_on_c, 0, 61, 0
5, 53370, Note_on_c, 0, 87, 0
5, 53376, Note_on_c, 0, 62, 120
5, 53386, Note_on_c, 0, 86, 125
5, 53414, Note_on_c, 0, 86, 0
5, 53432, Note_on_c, 0, 85, 122
5, 53458, Note_on_c, 0, 85, 0
5, 53476, Note_on_c, 0, 50, 112
5, 53482, Note_on_c, 0, 81, 116
5, 53488, Note_on_c, 0, 54, 0
5, 53518, Note_on_c, 0, 81, 0
5, 53528, Note_on_c, 0, 80, 120
5, 53544, Note_on_c, 0, 80, 0
5, 53570, Note_on_c, 0, 54, 114
5, 53574, Note_on_c, 0, 78, 123
5, 53594, Note_on_c, 0, 57, 0
5, 53606, Note_on_c, 0, 78, 0
5, 53622, Note_on_c, 0, 76, 103
5, 53642, Note_on_c, 0, 76, 0
5, 53664, Note_on_c, 0, 57, 118
5, 53666, Note_on_c, 0, 42, 0
5, 53668, Note_on_c, 0, 50, 0
5, 53702, Note_on_c, 0, 62, 0
5, 53754, Note_on_c, 0, 57, 0
5, 53756, Note_on_c, 0, 63, 118
5, 53756, Note_on_c, 0, 61, 116
5, 53758, Note_on_c, 0, 47, 104
5, 53768, Note_on_c, 0, 54, 0
5, 53770, Note_on_c, 0, 57, 101
5, 53804, Note_on_c, 0, 57, 0
5, 53860, Note_on_c, 0, 54, 108
5, 53954, Note_on_c, 0, 57, 120
5, 54012, Note_on_c, 0, 75, 118
5, 54030, Note_on_c, 0, 75, 0
5, 54046, Note_on_c, 0, 59, 120
5, 54058, Note_on_c, 0, 83, 122
5, 54062, Note_on_c, 0, 61, 0
5, 54064, Note_on_c, 0, 47, 0
5, 54068, Note_on_c, 0, 54, 0
5, 54082, Note_on_c, 0, 57, 0
5, 54114, Note_on_c, 0, 82, 71
5, 54118, Note_on_c, 0, 63, 0
5, 54120, Note_on_c, 0, 83, 0
5, 54122, Note_on_c, 0, 66, 0
5, 54128, Note_on_c, 0, 82, 0
5, 54146, Note_on_c, 0, 68, 124
5, 54146, Note_on_c, 0, 45, 110
5, 54148, Note_on_c, 0, 63, 116
5, 54150, Note_on_c, 0, 54, 110
5, 54160, Note_on_c, 0, 81, 108
5, 54178, Note_on_c, 0, 81, 0
5, 54206, Note_on_c, 0, 80, 18
5, 54224, Note_on_c, 0, 80, 0
5, 54236, Note_on_c, 0, 51, 113
5, 54250, Note_on_c, 0, 54, 0
5, 54256, Note_on_c, 0, 78, 18
5, 54274, Note_on_c, 0, 78, 0
5, 54306, Note_on_c, 0, 75, 104
5, 54324, Note_on_c, 0, 75, 0
5, 54338, Note_on_c, 0, 69, 124
5, 54340, Note_on_c, 0, 66, 116
5, 54346, Note_on_c, 0, 63, 0
5, 54346, Note_on_c, 0, 54, 104
5, 54348, Note_on_c, 0, 68, 0
5, 54354, Note_on_c, 0, 51, 0
5, 54360, Note_on_c, 0, 71, 116
5, 54384, Note_on_c, 0, 71, 0
5, 54404, Note_on_c, 0, 75, 108
5, 54424, Note_on_c, 0, 75, 0
5, 54438, Note_on_c, 0, 51, 112
5, 54448, Note_on_c, 0, 71, 98
5, 54454, Note_on_c, 0, 45, 0
5, 54470, Note_on_c, 0, 71, 0
5, 54498, Note_on_c, 0, 54, 0
5, 54500, Note_on_c, 0, 66, 0
5, 54508, Note_on_c, 0, 69, 0
5, 54508, Note_on_c, 0, 69, 84
5, 54512, Note_on_c, 0, 59, 0
5, 54526, Note_on_c, 0, 69, 0
5, 54528, Note_on_c, 0, 51, 0
5, 54532, Note_on_c, 0, 71, 120
5, 54532, Note_on_c, 0, 59, 114
5, 54622, Note_on_c, 0, 52, 116
5, 54724, Note_on_c, 0, 56, 108
5, 54766, Note_on_c, 0, 52, 0
5, 54812, Note_on_c, 0, 64, 115
5, 54888, Note_on_c, 0, 64, 0
5, 54888, Note_on_c, 0, 59, 0
5, 54910, Note_on_c, 0, 64, 119
5, 54914, Note_on_c, 0, 52, 111
5, 54914, Note_on_c, 0, 59, 116
5, 54926, Note_on_c, 0, 56, 0
5, 55008, Note_on_c, 0, 56, 111
5, 55020, Note_on_c, 0, 52, 0
5, 55112, Note_on_c, 0, 52, 114
5, 55122, Note_on_c, 0, 56, 0
5, 55184, Note_on_c, 0, 59, 0
5, 55200, Note_on_c, 0, 64, 0
5, 55202, Note_on_c, 0, 56, 120
5, 55204, Note_on_c, 0, 52, 0
5, 55206, Note_on_c, 0, 71, 0
5, 55296, Note_on_c, 0, 56, 0
5, 55296, Note_on_c, 0, 75, 116
5, 55296, Note_on_c, 0, 71, 118
5, 55298, Note_on_c, 0, 63, 108
5, 55304, Note_on_c, 0, 45, 107
5, 55390, Note_on_c, 0, 52, 101
5, 55484, Note_on_c, 0, 73, 108
5, 55488, Note_on_c, 0, 69, 118
5, 55490, Note_on_c, 0, 57, 103
5, 55492, Note_on_c, 0, 63, 0
5, 55494, Note_on_c, 0, 75, 0
5, 55494, Note_on_c, 0, 71, 0
5, 55498, Note_on_c, 0, 52, 0
5, 55586, Note_on_c, 0, 52, 111
5, 55686, Note_on_c, 0, 49, 112
5, 55690, Note_on_c, 0, 57, 0
5, 55694, Note_on_c, 0, 52, 0
5, 55778, Note_on_c, 0, 52, 111
5, 55874, Note_on_c, 0, 61, 118
5, 55876, Note_on_c, 0, 57, 107
5, 55882, Note_on_c, 0, 69, 0
5, 55970, Note_on_c, 0, 69, 122
5, 55972, Note_on_c, 0, 52, 0
5, 55972, Note_on_c, 0, 49, 0
5, 55974, Note_on_c, 0, 73, 0
5, 55974, Note_on_c, 0, 45, 0
5, 56022, Note_on_c, 0, 61, 0
5, 56030, Note_on_c, 0, 57, 0
5, 56034, Note_on_c, 0, 56, 104
5, 56038, Note_on_c, 0, 49, 104
5, 56068, Note_on_c, 0, 59, 107
5, 56070, Note_on_c, 0, 65, 116
5, 56072, Note_on_c, 0, 73, 118
5, 56074, Note_on_c, 0, 69, 0
5, 56094, Note_on_c, 0, 56, 0
5, 56162, Note_on_c, 0, 53, 106
5, 56166, Note_on_c, 0, 59, 0
5, 56256, Note_on_c, 0, 73, 0
5, 56260, Note_on_c, 0, 71, 107
5, 56266, Note_on_c, 0, 59, 104
5, 56360, Note_on_c, 0, 56, 103
5, 56398, Note_on_c, 0, 49, 0
5, 56458, Note_on_c, 0, 49, 103
5, 56468, Note_on_c, 0, 53, 0
5, 56512, Note_on_c, 0, 56, 0
5, 56542, Note_on_c, 0, 53, 107
5, 56548, Note_on_c, 0, 59, 0
5, 56634, Note_on_c, 0, 73, 113
5, 56640, Note_on_c, 0, 59, 93
5, 56742, Note_on_c, 0, 56, 104
5, 56756, Note_on_c, 0, 59, 0
5, 56766, Note_on_c, 0, 53, 0
5, 56766, Note_on_c, 0, 49, 0
5, 56776, Note_on_c, 0, 56, 0
5, 56832, Note_on_c, 0, 69, 119
5, 56836, Note_on_c, 0, 42, 93
5, 56838, Note_on_c, 0, 73, 0
5, 56838, Note_on_c, 0, 71, 0
5, 56842, Note_on_c, 0, 65, 0
5, 56934, Note_on_c, 0, 49, 112
5, 57030, Note_on_c, 0, 57, 110
5, 57032, Note_on_c, 0, 54, 96
5, 57120, Note_on_c, 0, 61, 118
5, 57128, Note_on_c, 0, 57, 0
5, 57130, Note_on_c, 0, 42, 0
5, 57144, Note_on_c, 0, 49, 0
5, 57214, Note_on_c, 0, 61, 0
5, 57214, Note_on_c, 0, 60, 110
5, 57220, Note_on_c, 0, 45, 110
5, 57318, Note_on_c, 0, 52, 107
5, 57326, Note_on_c, 0, 54, 0
5, 57414, Note_on_c, 0, 54, 89
5, 57498, Note_on_c, 0, 64, 93
5, 57516, Note_on_c, 0, 45, 0
5, 57568, Note_on_c, 0, 60, 0
5, 57596, Note_on_c, 0, 44, 93
5, 57600, Note_on_c, 0, 52, 0
5, 57600, Note_on_c, 0, 59, 114
5, 57602, Note_on_c, 0, 54, 0
5, 57610, Note_on_c, 0, 69, 0
5, 57614, Note_on_c, 0, 64, 0
5, 57698, Note_on_c, 0, 52, 112
5, 57790, Note_on_c, 0, 64, 114
5, 57810, Note_on_c, 0, 52, 0
5, 57890, Note_on_c, 0, 52, 110
5, 57972, Note_on_c, 0, 44, 0
5, 57986, Note_on_c, 0, 52, 0
5, 57990, Note_on_c, 0, 69, 116
5, 57992, Note_on_c, 0, 64, 0
5, 57994, Note_on_c, 0, 49, 107
5, 58084, Note_on_c, 0, 53, 111
5, 58178, Note_on_c, 0, 68, 114
5, 58186, Note_on_c, 0, 69, 0
5, 58204, Note_on_c, 0, 49, 0
5, 58276, Note_on_c, 0, 49, 89
5, 58328, Note_on_c, 0, 53, 0
5, 58336, Note_on_c, 0, 42, 84
5, 58358, Note_on_c, 0, 52, 103
5, 58360, Note_on_c, 0, 49, 0
5, 58364, Note_on_c, 0, 68, 0
5, 58364, Note_on_c, 0, 64, 110
5, 58364, Note_on_c, 0, 61, 104
5, 58372, Note_on_c, 0, 59, 0
5, 58464, Note_on_c, 0, 57, 110
5, 58470, Note_on_c, 0, 61, 0
5, 58552, Note_on_c, 0, 69, 127
5, 58556, Note_on_c, 0, 61, 116
5, 58566, Note_on_c, 0, 64, 0
5, 58582, Note_on_c, 0, 69, 0
5, 58598, Note_on_c, 0, 73, 60
5, 58604, Note_on_c, 0, 73, 0
5, 58622, Note_on_c, 0, 42, 0
5, 58652, Note_on_c, 0, 76, 107
5, 58656, Note_on_c, 0, 64, 115
5, 58684, Note_on_c, 0, 61, 0
5, 58686, Note_on_c, 0, 52, 0
5, 58690, Note_on_c, 0, 76, 0
5, 58694, Note_on_c, 0, 80, 113
5, 58702, Note_on_c, 0, 57, 0
5, 58708, Note_on_c, 0, 54, 18
5, 58712, Note_on_c, 0, 80, 0
5, 58712, Note_on_c, 0, 47, 104
5, 58746, Note_on_c, 0, 57, 101
5, 58748, Note_on_c, 0, 63, 110
5, 58750, Note_on_c, 0, 66, 108
5, 58750, Note_on_c, 0, 60, 112
5, 58754, Note_on_c, 0, 83, 125
5, 58756, Note_on_c, 0, 64, 0
5, 58758, Note_on_c, 0, 54, 0
5, 58800, Note_on_c, 0, 83, 0
5, 58846, Note_on_c, 0, 83, 127
5, 58848, Note_on_c, 0, 51, 111
5, 58858, Note_on_c, 0, 57, 0
5, 58890, Note_on_c, 0, 83, 0
5, 58940, Note_on_c, 0, 83, 127
5, 58944, Note_on_c, 0, 57, 122
5, 58974, Note_on_c, 0, 60, 0
5, 59044, Note_on_c, 0, 60, 116
5, 59048, Note_on_c, 0, 57, 0
5, 59050, Note_on_c, 0, 51, 0
5, 59070, Note_on_c, 0, 47, 0
5, 59086, Note_on_c, 0, 82, 98
5, 59106, Note_on_c, 0, 66, 0
5, 59108, Note_on_c, 0, 80, 104
5, 59114, Note_on_c, 0, 60, 0
5, 59118, Note_on_c, 0, 63, 0
5, 59118, Note_on_c, 0, 83, 0
5, 59126, Note_on_c, 0, 78, 47
5, 59130, Note_on_c, 0, 82, 0
5, 59134, Note_on_c, 0, 64, 103
5, 59134, Note_on_c, 0, 79, 93
5, 59140, Note_on_c, 0, 80, 0
5, 59140, Note_on_c, 0, 40, 112
5, 59142, Note_on_c, 0, 79, 0
5, 59156, Note_on_c, 0, 78, 0
5, 59236, Note_on_c, 0, 47, 111
5, 59324, Note_on_c, 0, 59, 118
5, 59326, Note_on_c, 0, 52, 111
5, 59384, Note_on_c, 0, 40, 0
5, 59392, Note_on_c, 0, 47, 0
5, 59418, Note_on_c, 0, 64, 120
5, 59444, Note_on_c, 0, 52, 0
5, 59474, Note_on_c, 0, 64, 0
5, 59480, Note_on_c, 0, 59, 0
5, 59486, Note_on_c, 0, 48, 104
5, 59494, Note_on_c, 0, 54, 84
5, 59508, Note_on_c, 0, 57, 106
5, 59512, Note_on_c, 0, 60, 118
5, 59514, Note_on_c, 0, 69, 126
5, 59522, Note_on_c, 0, 64, 0
5, 59574, Note_on_c, 0, 54, 0
5, 59614, Note_on_c, 0, 54, 104
5, 59616, Note_on_c, 0, 63, 116
5, 59646, Note_on_c, 0, 57, 0
5, 59716, Note_on_c, 0, 57, 107
5, 59802, Note_on_c, 0, 68, 114
5, 59806, Note_on_c, 0, 57, 0
5, 59810, Note_on_c, 0, 54, 0
5, 59820, Note_on_c, 0, 48, 0
5, 59820, Note_on_c, 0, 69, 0
5, 59904, Note_on_c, 0, 63, 0
5, 59908, Note_on_c, 0, 40, 93
5, 59910, Note_on_c, 0, 64, 108
5, 59916, Note_on_c, 0, 68, 0
5, 59918, Note_on_c, 0, 60, 0
5, 60002, Note_on_c, 0, 47, 111
5, 60094, Note_on_c, 0, 52, 113
5, 60192, Note_on_c, 0, 56, 106
5, 60286, Note_on_c, 0, 56, 0
5, 60286, Note_on_c, 0, 47, 0
5, 60326, Note_on_c, 0, 52, 0
5, 60396, Note_on_c, 0, 64, 0
5, 60592, Note_on_c, 0, 40, 0
5, 60592, End_track
6, 0, Start_track
6, 0, MIDI_port, 0
6, 0, Title_t, "Bass"
6, 0, Program_c, 1, 32
6, 0, Control_c, 1, 7, 120
6, 0, Control_c, 1, 10, 64
6, 4, Control_c, 1, 121, 0
6, 5, Control_c, 1, 91, 0
6, 3856, Note_on_c, 1, 52, 110
6, 4094, Note_on_c, 1, 52, 0
6, 4128, Note_on_c, 1, 52, 114
6, 4188, Note_on_c, 1, 52, 0
6, 4230, Note_on_c, 1, 52, 115
6, 4580, Note_on_c, 1, 52, 0
6, 4604, Note_on_c, 1, 52, 98
6, 4846, Note_on_c, 1, 52, 0
6, 4904, Note_on_c, 1, 52, 107
6, 4928, Note_on_c, 1, 52, 0
6, 5000, Note_on_c, 1, 52, 112
6, 5346, Note_on_c, 1, 52, 0
6, 5378, Note_on_c, 1, 52, 107
6, 5616, Note_on_c, 1, 52, 0
6, 5668, Note_on_c, 1, 52, 103
6, 5766, Note_on_c, 1, 52, 0
6, 5766, Note_on_c, 1, 44, 118
6, 6006, Note_on_c, 1, 44, 0
6, 6048, Note_on_c, 1, 44, 107
6, 6110, Note_on_c, 1, 44, 0
6, 6142, Note_on_c, 1, 42, 107
6, 6428, Note_on_c, 1, 42, 0
6, 6432, Note_on_c, 1, 54, 111
6, 6526, Note_on_c, 1, 54, 0
6, 6534, Note_on_c, 1, 53, 112
6, 6810, Note_on_c, 1, 53, 0
6, 6838, Note_on_c, 1, 41, 112
6, 6946, Note_on_c, 1, 40, 113
6, 6948, Note_on_c, 1, 41, 0
6, 7134, Note_on_c, 1, 40, 0
6, 7144, Note_on_c, 1, 52, 117
6, 7306, Note_on_c, 1, 50, 120
6, 7312, Note_on_c, 1, 52, 0
6, 7546, Note_on_c, 1, 50, 0
6, 7584, Note_on_c, 1, 50, 113
6, 7690, Note_on_c, 1, 49, 116
6, 7692, Note_on_c, 1, 50, 0
6, 8098, Note_on_c, 1, 49, 0
6, 8156, Note_on_c, 1, 61, 114
6, 8252, Note_on_c, 1, 61, 0
6, 8260, Note_on_c, 1, 56, 116
6, 8352, Note_on_c, 1, 56, 0
6, 8354, Note_on_c, 1, 49, 110
6, 8456, Note_on_c, 1, 49, 0
6, 8456, Note_on_c, 1, 54, 113
6, 8740, Note_on_c, 1, 54, 0
6, 8744, Note_on_c, 1, 42, 103
6, 8798, Note_on_c, 1, 42, 0
6, 8844, Note_on_c, 1, 42, 118
6, 9188, Note_on_c, 1, 42, 0
6, 9218, Note_on_c, 1, 54, 103
6, 9500, Note_on_c, 1, 42, 98
6, 9520, Note_on_c, 1, 54, 0
6, 9550, Note_on_c, 1, 42, 0
6, 9596, Note_on_c, 1, 42, 124
6, 9878, Note_on_c, 1, 42, 0
6, 9898, Note_on_c, 1, 42, 106
6, 9984, Note_on_c, 1, 42, 0
6, 9988, Note_on_c, 1, 44, 120
6, 10230, Note_on_c, 1, 44, 0
6, 10274, Note_on_c, 1, 44, 111
6, 10314, Note_on_c, 1, 44, 0
6, 10366, Note_on_c, 1, 44, 111
6, 10666, Note_on_c, 1, 56, 107
6, 10670, Note_on_c, 1, 44, 0
6, 10744, Note_on_c, 1, 56, 0
6, 10758, Note_on_c, 1, 45, 113
6, 11020, Note_on_c, 1, 45, 0
6, 11040, Note_on_c, 1, 57, 112
6, 11218, Note_on_c, 1, 57, 0
6, 11242, Note_on_c, 1, 57, 116
6, 11472, Note_on_c, 1, 54, 98
6, 11482, Note_on_c, 1, 57, 0
6, 11496, Note_on_c, 1, 52, 110
6, 11506, Note_on_c, 1, 54, 0
6, 11512, Note_on_c, 1, 48, 116
6, 11516, Note_on_c, 1, 52, 0
6, 11542, Note_on_c, 1, 48, 0
6, 11542, Note_on_c, 1, 52, 124
6, 11760, Note_on_c, 1, 52, 0
6, 11808, Note_on_c, 1, 52, 113
6, 11904, Note_on_c, 1, 52, 0
6, 11908, Note_on_c, 1, 50, 120
6, 12124, Note_on_c, 1, 50, 0
6, 12188, Note_on_c, 1, 50, 112
6, 12288, Note_on_c, 1, 49, 116
6, 12294, Note_on_c, 1, 50, 0
6, 12626, Note_on_c, 1, 49, 0
6, 12774, Note_on_c, 1, 49, 114
6, 12872, Note_on_c, 1, 61, 118
6, 12876, Note_on_c, 1, 49, 0
6, 12968, Note_on_c, 1, 56, 114
6, 12970, Note_on_c, 1, 61, 0
6, 13060, Note_on_c, 1, 56, 0
6, 13064, Note_on_c, 1, 54, 116
6, 13306, Note_on_c, 1, 54, 0
6, 13352, Note_on_c, 1, 42, 110
6, 13378, Note_on_c, 1, 42, 0
6, 13450, Note_on_c, 1, 42, 116
6, 13684, Note_on_c, 1, 42, 0
6, 13738, Note_on_c, 1, 42, 98
6, 13828, Note_on_c, 1, 42, 0
6, 13836, Note_on_c, 1, 49, 118
6, 14060, Note_on_c, 1, 49, 0
6, 14122, Note_on_c, 1, 49, 108
6, 14166, Note_on_c, 1, 49, 0
6, 14210, Note_on_c, 1, 49, 114
6, 14592, Note_on_c, 1, 49, 0
6, 14596, Note_on_c, 1, 54, 111
6, 14832, Note_on_c, 1, 54, 0
6, 14882, Note_on_c, 1, 54, 113
6, 14938, Note_on_c, 1, 54, 0
6, 14980, Note_on_c, 1, 54, 118
6, 15220, Note_on_c, 1, 54, 0
6, 15266, Note_on_c, 1, 54, 114
6, 15348, Note_on_c, 1, 54, 0
6, 15366, Note_on_c, 1, 47, 116
6, 15632, Note_on_c, 1, 47, 0
6, 15846, Note_on_c, 1, 59, 118
6, 15998, Note_on_c, 1, 54, 106
6, 16002, Note_on_c, 1, 59, 0
6, 16044, Note_on_c, 1, 54, 0
6, 16046, Note_on_c, 1, 51, 98
6, 16086, Note_on_c, 1, 51, 0
6, 16088, Note_on_c, 1, 47, 104
6, 16138, Note_on_c, 1, 52, 116
6, 16142, Note_on_c, 1, 47, 0
6, 16372, Note_on_c, 1, 52, 0
6, 16416, Note_on_c, 1, 52, 114
6, 16484, Note_on_c, 1, 52, 0
6, 16514, Note_on_c, 1, 52, 110
6, 16764, Note_on_c, 1, 52, 0
6, 16806, Note_on_c, 1, 52, 107
6, 16876, Note_on_c, 1, 52, 0
6, 16900, Note_on_c, 1, 52, 110
6, 17264, Note_on_c, 1, 52, 0
6, 17286, Note_on_c, 1, 52, 113
6, 17362, Note_on_c, 1, 52, 0
6, 17380, Note_on_c, 1, 52, 113
6, 17520, Note_on_c, 1, 52, 0
6, 17574, Note_on_c, 1, 52, 110
6, 17606, Note_on_c, 1, 52, 0
6, 17672, Note_on_c, 1, 52, 115
6, 17918, Note_on_c, 1, 52, 0
6, 17958, Note_on_c, 1, 52, 111
6, 18034, Note_on_c, 1, 52, 0
6, 18056, Note_on_c, 1, 44, 111
6, 18236, Note_on_c, 1, 44, 0
6, 18240, Note_on_c, 1, 56, 118
6, 18436, Note_on_c, 1, 56, 0
6, 18446, Note_on_c, 1, 54, 116
6, 18704, Note_on_c, 1, 54, 0
6, 18722, Note_on_c, 1, 42, 120
6, 18804, Note_on_c, 1, 42, 0
6, 18822, Note_on_c, 1, 41, 118
6, 18996, Note_on_c, 1, 41, 0
6, 19010, Note_on_c, 1, 53, 115
6, 19200, Note_on_c, 1, 53, 0
6, 19204, Note_on_c, 1, 52, 111
6, 19434, Note_on_c, 1, 52, 0
6, 19490, Note_on_c, 1, 52, 118
6, 19588, Note_on_c, 1, 52, 0
6, 19590, Note_on_c, 1, 50, 118
6, 19838, Note_on_c, 1, 50, 0
6, 19878, Note_on_c, 1, 50, 114
6, 19970, Note_on_c, 1, 50, 0
6, 19972, Note_on_c, 1, 49, 120
6, 20212, Note_on_c, 1, 49, 0
6, 20262, Note_on_c, 1, 49, 113
6, 20322, Note_on_c, 1, 49, 0
6, 20358, Note_on_c, 1, 49, 118
6, 20614, Note_on_c, 1, 49, 0
6, 20636, Note_on_c, 1, 49, 111
6, 20726, Note_on_c, 1, 49, 0
6, 20744, Note_on_c, 1, 42, 118
6, 20974, Note_on_c, 1, 42, 0
6, 21026, Note_on_c, 1, 42, 107
6, 21084, Note_on_c, 1, 42, 0
6, 21124, Note_on_c, 1, 42, 114
6, 21352, Note_on_c, 1, 42, 0
6, 21408, Note_on_c, 1, 42, 113
6, 21514, Note_on_c, 1, 47, 117
6, 21518, Note_on_c, 1, 42, 0
6, 21734, Note_on_c, 1, 47, 0
6, 21792, Note_on_c, 1, 47, 114
6, 21888, Note_on_c, 1, 47, 0
6, 21890, Note_on_c, 1, 45, 118
6, 22150, Note_on_c, 1, 45, 0
6, 22184, Note_on_c, 1, 45, 114
6, 22264, Note_on_c, 1, 45, 0
6, 22276, Note_on_c, 1, 44, 111
6, 22526, Note_on_c, 1, 44, 0
6, 22564, Note_on_c, 1, 44, 116
6, 22612, Note_on_c, 1, 44, 0
6, 22664, Note_on_c, 1, 44, 118
6, 22762, Note_on_c, 1, 44, 0
6, 22762, Note_on_c, 1, 52, 118
6, 22940, Note_on_c, 1, 52, 0
6, 22944, Note_on_c, 1, 44, 116
6, 23022, Note_on_c, 1, 44, 0
6, 23044, Note_on_c, 1, 45, 116
6, 23304, Note_on_c, 1, 45, 0
6, 23340, Note_on_c, 1, 45, 107
6, 23376, Note_on_c, 1, 45, 0
6, 23424, Note_on_c, 1, 45, 111
6, 23704, Note_on_c, 1, 45, 0
6, 23716, Note_on_c, 1, 47, 116
6, 23760, Note_on_c, 1, 47, 0
6, 23764, Note_on_c, 1, 48, 111
6, 23822, Note_on_c, 1, 48, 0
6, 23822, Note_on_c, 1, 49, 110
6, 24044, Note_on_c, 1, 49, 0
6, 24104, Note_on_c, 1, 49, 104
6, 24150, Note_on_c, 1, 49, 0
6, 24200, Note_on_c, 1, 49, 116
6, 24562, Note_on_c, 1, 49, 0
6, 24580, Note_on_c, 1, 42, 108
6, 24812, Note_on_c, 1, 42, 0
6, 24864, Note_on_c, 1, 42, 116
6, 24968, Note_on_c, 1, 45, 119
6, 24970, Note_on_c, 1, 42, 0
6, 25196, Note_on_c, 1, 45, 0
6, 25262, Note_on_c, 1, 45, 110
6, 25352, Note_on_c, 1, 45, 0
6, 25358, Note_on_c, 1, 44, 113
6, 25596, Note_on_c, 1, 44, 0
6, 25626, Note_on_c, 1, 44, 122
6, 25728, Note_on_c, 1, 44, 0
6, 25736, Note_on_c, 1, 49, 116
6, 26108, Note_on_c, 1, 49, 0
6, 26116, Note_on_c, 1, 42, 110
6, 26306, Note_on_c, 1, 42, 0
6, 26310, Note_on_c, 1, 54, 108
6, 26500, Note_on_c, 1, 47, 110
6, 26502, Note_on_c, 1, 54, 0
6, 26886, Note_on_c, 1, 47, 0
6, 26892, Note_on_c, 1, 52, 116
6, 27120, Note_on_c, 1, 52, 0
6, 27172, Note_on_c, 1, 52, 111
6, 27212, Note_on_c, 1, 52, 0
6, 27270, Note_on_c, 1, 52, 118
6, 27632, Note_on_c, 1, 52, 0
6, 27652, Note_on_c, 1, 52, 107
6, 27896, Note_on_c, 1, 52, 0
6, 27948, Note_on_c, 1, 52, 110
6, 27978, Note_on_c, 1, 52, 0
6, 28034, Note_on_c, 1, 52, 114
6, 28300, Note_on_c, 1, 52, 0
6, 28320, Note_on_c, 1, 52, 107
6, 28390, Note_on_c, 1, 52, 0
6, 28424, Note_on_c, 1, 52, 113
6, 28672, Note_on_c, 1, 52, 0
6, 28700, Note_on_c, 1, 52, 113
6, 28774, Note_on_c, 1, 52, 0
6, 28800, Note_on_c, 1, 44, 120
6, 29056, Note_on_c, 1, 44, 0
6, 29088, Note_on_c, 1, 44, 118
6, 29164, Note_on_c, 1, 44, 0
6, 29192, Note_on_c, 1, 42, 122
6, 29458, Note_on_c, 1, 42, 0
6, 29466, Note_on_c, 1, 54, 113
6, 29564, Note_on_c, 1, 54, 0
6, 29570, Note_on_c, 1, 53, 120
6, 29848, Note_on_c, 1, 53, 0
6, 29850, Note_on_c, 1, 41, 118
6, 29960, Note_on_c, 1, 40, 118
6, 29962, Note_on_c, 1, 41, 0
6, 30142, Note_on_c, 1, 40, 0
6, 30146, Note_on_c, 1, 52, 119
6, 30338, Note_on_c, 1, 50, 119
6, 30342, Note_on_c, 1, 52, 0
6, 30514, Note_on_c, 1, 50, 0
6, 30518, Note_on_c, 1, 47, 114
6, 30700, Note_on_c, 1, 47, 0
6, 30704, Note_on_c, 1, 49, 119
6, 30948, Note_on_c, 1, 49, 0
6, 30998, Note_on_c, 1, 49, 118
6, 31050, Note_on_c, 1, 49, 0
6, 31094, Note_on_c, 1, 49, 119
6, 31372, Note_on_c, 1, 49, 0
6, 31386, Note_on_c, 1, 49, 108
6, 31456, Note_on_c, 1, 49, 0
6, 31484, Note_on_c, 1, 42, 119
6, 31742, Note_on_c, 1, 42, 0
6, 31780, Note_on_c, 1, 42, 98
6, 31846, Note_on_c, 1, 42, 0
6, 31874, Note_on_c, 1, 42, 114
6, 32136, Note_on_c, 1, 42, 0
6, 32164, Note_on_c, 1, 42, 108
6, 32266, Note_on_c, 1, 42, 0
6, 32268, Note_on_c, 1, 47, 118
6, 32514, Note_on_c, 1, 47, 0
6, 32548, Note_on_c, 1, 47, 114
6, 32648, Note_on_c, 1, 45, 125
6, 32650, Note_on_c, 1, 47, 0
6, 32900, Note_on_c, 1, 45, 0
6, 32936, Note_on_c, 1, 45, 114
6, 33024, Note_on_c, 1, 45, 0
6, 33028, Note_on_c, 1, 44, 111
6, 33278, Note_on_c, 1, 44, 0
6, 33316, Note_on_c, 1, 44, 116
6, 33364, Note_on_c, 1, 44, 0
6, 33416, Note_on_c, 1, 44, 118
6, 33514, Note_on_c, 1, 44, 0
6, 33514, Note_on_c, 1, 52, 118
6, 33692, Note_on_c, 1, 52, 0
6, 33696, Note_on_c, 1, 44, 116
6, 33774, Note_on_c, 1, 44, 0
6, 33796, Note_on_c, 1, 45, 116
6, 34056, Note_on_c, 1, 45, 0
6, 34092, Note_on_c, 1, 45, 107
6, 34128, Note_on_c, 1, 45, 0
6, 34176, Note_on_c, 1, 45, 111
6, 34456, Note_on_c, 1, 45, 0
6, 34468, Note_on_c, 1, 47, 116
6, 34512, Note_on_c, 1, 47, 0
6, 34516, Note_on_c, 1, 48, 111
6, 34574, Note_on_c, 1, 48, 0
6, 34574, Note_on_c, 1, 49, 110
6, 34796, Note_on_c, 1, 49, 0
6, 34856, Note_on_c, 1, 49, 104
6, 34902, Note_on_c, 1, 49, 0
6, 34952, Note_on_c, 1, 49, 116
6, 35314, Note_on_c, 1, 49, 0
6, 35332, Note_on_c, 1, 42, 108
6, 35564, Note_on_c, 1, 42, 0
6, 35616, Note_on_c, 1, 42, 116
6, 35720, Note_on_c, 1, 45, 119
6, 35722, Note_on_c, 1, 42, 0
6, 35948, Note_on_c, 1, 45, 0
6, 36014, Note_on_c, 1, 45, 110
6, 36104, Note_on_c, 1, 45, 0
6, 36110, Note_on_c, 1, 44, 113
6, 36348, Note_on_c, 1, 44, 0
6, 36378, Note_on_c, 1, 44, 122
6, 36480, Note_on_c, 1, 44, 0
6, 36488, Note_on_c, 1, 49, 116
6, 36860, Note_on_c, 1, 49, 0
6, 36868, Note_on_c, 1, 42, 110
6, 37058, Note_on_c, 1, 42, 0
6, 37062, Note_on_c, 1, 54, 108
6, 37252, Note_on_c, 1, 47, 110
6, 37254, Note_on_c, 1, 54, 0
6, 37638, Note_on_c, 1, 47, 0
6, 37642, Note_on_c, 1, 52, 116
6, 37876, Note_on_c, 1, 52, 0
6, 37920, Note_on_c, 1, 52, 114
6, 37988, Note_on_c, 1, 52, 0
6, 38018, Note_on_c, 1, 52, 110
6, 38268, Note_on_c, 1, 52, 0
6, 38310, Note_on_c, 1, 52, 107
6, 38380, Note_on_c, 1, 52, 0
6, 38404, Note_on_c, 1, 52, 110
6, 38768, Note_on_c, 1, 52, 0
6, 38790, Note_on_c, 1, 52, 113
6, 38866, Note_on_c, 1, 52, 0
6, 38884, Note_on_c, 1, 52, 113
6, 39024, Note_on_c, 1, 52, 0
6, 39078, Note_on_c, 1, 52, 110
6, 39110, Note_on_c, 1, 52, 0
6, 39176, Note_on_c, 1, 52, 115
6, 39422, Note_on_c, 1, 52, 0
6, 39462, Note_on_c, 1, 52, 111
6, 39538, Note_on_c, 1, 52, 0
6, 39560, Note_on_c, 1, 44, 111
6, 39740, Note_on_c, 1, 44, 0
6, 39744, Note_on_c, 1, 56, 118
6, 39940, Note_on_c, 1, 56, 0
6, 39950, Note_on_c, 1, 54, 116
6, 40208, Note_on_c, 1, 54, 0
6, 40226, Note_on_c, 1, 42, 120
6, 40308, Note_on_c, 1, 42, 0
6, 40326, Note_on_c, 1, 41, 118
6, 40500, Note_on_c, 1, 41, 0
6, 40514, Note_on_c, 1, 53, 115
6, 40704, Note_on_c, 1, 53, 0
6, 40708, Note_on_c, 1, 52, 111
6, 40938, Note_on_c, 1, 52, 0
6, 40994, Note_on_c, 1, 52, 118
6, 41092, Note_on_c, 1, 52, 0
6, 41094, Note_on_c, 1, 50, 118
6, 41342, Note_on_c, 1, 50, 0
6, 41382, Note_on_c, 1, 50, 114
6, 41474, Note_on_c, 1, 50, 0
6, 41476, Note_on_c, 1, 49, 120
6, 41716, Note_on_c, 1, 49, 0
6, 41766, Note_on_c, 1, 49, 113
6, 41826, Note_on_c, 1, 49, 0
6, 41862, Note_on_c, 1, 49, 118
6, 42118, Note_on_c, 1, 49, 0
6, 42140, Note_on_c, 1, 49, 111
6, 42230, Note_on_c, 1, 49, 0
6, 42248, Note_on_c, 1, 42, 118
6, 42478, Note_on_c, 1, 42, 0
6, 42530, Note_on_c, 1, 42, 107
6, 42588, Note_on_c, 1, 42, 0
6, 42628, Note_on_c, 1, 42, 114
6, 42856, Note_on_c, 1, 42, 0
6, 42912, Note_on_c, 1, 42, 113
6, 43018, Note_on_c, 1, 47, 117
6, 43022, Note_on_c, 1, 42, 0
6, 43238, Note_on_c, 1, 47, 0
6, 43296, Note_on_c, 1, 47, 114
6, 43392, Note_on_c, 1, 47, 0
6, 43394, Note_on_c, 1, 45, 118
6, 43654, Note_on_c, 1, 45, 0
6, 43688, Note_on_c, 1, 45, 114
6, 43768, Note_on_c, 1, 45, 0
6, 43780, Note_on_c, 1, 44, 111
6, 44030, Note_on_c, 1, 44, 0
6, 44068, Note_on_c, 1, 44, 116
6, 44116, Note_on_c, 1, 44, 0
6, 44168, Note_on_c, 1, 44, 118
6, 44266, Note_on_c, 1, 44, 0
6, 44266, Note_on_c, 1, 52, 118
6, 44444, Note_on_c, 1, 52, 0
6, 44448, Note_on_c, 1, 44, 116
6, 44526, Note_on_c, 1, 44, 0
6, 44548, Note_on_c, 1, 45, 116
6, 44808, Note_on_c, 1, 45, 0
6, 44844, Note_on_c, 1, 45, 107
6, 44880, Note_on_c, 1, 45, 0
6, 44928, Note_on_c, 1, 45, 111
6, 45208, Note_on_c, 1, 45, 0
6, 45220, Note_on_c, 1, 47, 116
6, 45264, Note_on_c, 1, 47, 0
6, 45268, Note_on_c, 1, 48, 111
6, 45326, Note_on_c, 1, 48, 0
6, 45326, Note_on_c, 1, 49, 110
6, 45548, Note_on_c, 1, 49, 0
6, 45608, Note_on_c, 1, 49, 104
6, 45654, Note_on_c, 1, 49, 0
6, 45704, Note_on_c, 1, 49, 116
6, 46066, Note_on_c, 1, 49, 0
6, 46084, Note_on_c, 1, 42, 108
6, 46316, Note_on_c, 1, 42, 0
6, 46368, Note_on_c, 1, 42, 116
6, 46472, Note_on_c, 1, 45, 119
6, 46474, Note_on_c, 1, 42, 0
6, 46700, Note_on_c, 1, 45, 0
6, 46766, Note_on_c, 1, 45, 110
6, 46856, Note_on_c, 1, 45, 0
6, 46862, Note_on_c, 1, 44, 113
6, 47100, Note_on_c, 1, 44, 0
6, 47130, Note_on_c, 1, 44, 122
6, 47232, Note_on_c, 1, 44, 0
6, 47240, Note_on_c, 1, 49, 116
6, 47612, Note_on_c, 1, 49, 0
6, 47620, Note_on_c, 1, 42, 110
6, 47810, Note_on_c, 1, 42, 0
6, 47814, Note_on_c, 1, 54, 108
6, 48004, Note_on_c, 1, 47, 110
6, 48006, Note_on_c, 1, 54, 0
6, 48390, Note_on_c, 1, 47, 0
6, 48396, Note_on_c, 1, 52, 116
6, 48624, Note_on_c, 1, 52, 0
6, 48676, Note_on_c, 1, 52, 111
6, 48716, Note_on_c, 1, 52, 0
6, 48774, Note_on_c, 1, 52, 118
6, 49136, Note_on_c, 1, 52, 0
6, 49156, Note_on_c, 1, 52, 107
6, 49400, Note_on_c, 1, 52, 0
6, 49452, Note_on_c, 1, 52, 110
6, 49482, Note_on_c, 1, 52, 0
6, 49538, Note_on_c, 1, 52, 114
6, 49804, Note_on_c, 1, 52, 0
6, 49824, Note_on_c, 1, 52, 107
6, 49894, Note_on_c, 1, 52, 0
6, 49928, Note_on_c, 1, 52, 113
6, 50176, Note_on_c, 1, 52, 0
6, 50204, Note_on_c, 1, 52, 113
6, 50278, Note_on_c, 1, 52, 0
6, 50304, Note_on_c, 1, 44, 120
6, 50560, Note_on_c, 1, 44, 0
6, 50592, Note_on_c, 1, 44, 118
6, 50668, Note_on_c, 1, 44, 0
6, 50696, Note_on_c, 1, 42, 122
6, 50962, Note_on_c, 1, 42, 0
6, 50970, Note_on_c, 1, 54, 113
6, 51068, Note_on_c, 1, 54, 0
6, 51074, Note_on_c, 1, 53, 120
6, 51352, Note_on_c, 1, 53, 0
6, 51354, Note_on_c, 1, 41, 118
6, 51464, Note_on_c, 1, 40, 118
6, 51466, Note_on_c, 1, 41, 0
6, 51646, Note_on_c, 1, 40, 0
6, 51650, Note_on_c, 1, 52, 119
6, 51842, Note_on_c, 1, 50, 119
6, 51846, Note_on_c, 1, 52, 0
6, 52018, Note_on_c, 1, 50, 0
6, 52022, Note_on_c, 1, 47, 114
6, 52204, Note_on_c, 1, 47, 0
6, 52208, Note_on_c, 1, 49, 119
6, 52452, Note_on_c, 1, 49, 0
6, 52502, Note_on_c, 1, 49, 118
6, 52554, Note_on_c, 1, 49, 0
6, 52598, Note_on_c, 1, 49, 119
6, 52876, Note_on_c, 1, 49, 0
6, 52890, Note_on_c, 1, 49, 108
6, 52960, Note_on_c, 1, 49, 0
6, 52988, Note_on_c, 1, 42, 119
6, 53246, Note_on_c, 1, 42, 0
6, 53284, Note_on_c, 1, 42, 98
6, 53350, Note_on_c, 1, 42, 0
6, 53378, Note_on_c, 1, 42, 114
6, 53640, Note_on_c, 1, 42, 0
6, 53668, Note_on_c, 1, 42, 108
6, 53770, Note_on_c, 1, 42, 0
6, 53772, Note_on_c, 1, 47, 118
6, 54018, Note_on_c, 1, 47, 0
6, 54052, Note_on_c, 1, 47, 114
6, 54152, Note_on_c, 1, 45, 125
6, 54154, Note_on_c, 1, 47, 0
6, 54404, Note_on_c, 1, 45, 0
6, 54440, Note_on_c, 1, 45, 114
6, 54528, Note_on_c, 1, 45, 0
6, 54532, Note_on_c, 1, 44, 111
6, 54782, Note_on_c, 1, 44, 0
6, 54820, Note_on_c, 1, 44, 116
6, 54868, Note_on_c, 1, 44, 0
6, 54920, Note_on_c, 1, 44, 118
6, 55018, Note_on_c, 1, 44, 0
6, 55018, Note_on_c, 1, 52, 118
6, 55196, Note_on_c, 1, 52, 0
6, 55200, Note_on_c, 1, 44, 116
6, 55278, Note_on_c, 1, 44, 0
6, 55300, Note_on_c, 1, 45, 116
6, 55560, Note_on_c, 1, 45, 0
6, 55596, Note_on_c, 1, 45, 107
6, 55632, Note_on_c, 1, 45, 0
6, 55680, Note_on_c, 1, 45, 111
6, 55960, Note_on_c, 1, 45, 0
6, 55972, Note_on_c, 1, 47, 116
6, 56016, Note_on_c, 1, 47, 0
6, 56020, Note_on_c, 1, 48, 111
6, 56078, Note_on_c, 1, 48, 0
6, 56078, Note_on_c, 1, 49, 110
6, 56300, Note_on_c, 1, 49, 0
6, 56360, Note_on_c, 1, 49, 104
6, 56406, Note_on_c, 1, 49, 0
6, 56456, Note_on_c, 1, 49, 116
6, 56818, Note_on_c, 1, 49, 0
6, 56836, Note_on_c, 1, 42, 108
6, 57068, Note_on_c, 1, 42, 0
6, 57120, Note_on_c, 1, 42, 116
6, 57224, Note_on_c, 1, 45, 119
6, 57226, Note_on_c, 1, 42, 0
6, 57452, Note_on_c, 1, 45, 0
6, 57518, Note_on_c, 1, 45, 110
6, 57608, Note_on_c, 1, 45, 0
6, 57614, Note_on_c, 1, 44, 113
6, 57852, Note_on_c, 1, 44, 0
6, 57882, Note_on_c, 1, 44, 122
6, 57984, Note_on_c, 1, 44, 0
6, 57992, Note_on_c, 1, 49, 116
6, 58364, Note_on_c, 1, 49, 0
6, 58372, Note_on_c, 1, 42, 110
6, 58562, Note_on_c, 1, 42, 0
6, 58566, Note_on_c, 1, 54, 108
6, 58756, Note_on_c, 1, 47, 110
6, 58758, Note_on_c, 1, 54, 0
6, 59142, Note_on_c, 1, 47, 0
6, 59152, Control_c, 1, 121, 0
6, 59152, Note_on_c, 1, 52, 110
6, 59390, Note_on_c, 1, 52, 0
6, 59424, Note_on_c, 1, 52, 114
6, 59484, Note_on_c, 1, 52, 0
6, 59526, Note_on_c, 1, 52, 115
6, 59876, Note_on_c, 1, 52, 0
6, 59900, Note_on_c, 1, 52, 98
6, 60142, Note_on_c, 1, 52, 0
6, 60200, Note_on_c, 1, 52, 107
6, 60224, Note_on_c, 1, 52, 0
6, 60296, Note_on_c, 1, 52, 112
6, 60642, Note_on_c, 1, 52, 0
6, 60642, End_track
7, 0, Start_track
7, 0, MIDI_port, 0
7, 0, Title_t, "Strings"
7, 0, Program_c, 2, 49
7, 0, Control_c, 2, 7, 80
7, 0, Control_c, 2, 10, 67
7, 0, Control_c, 2, 121, 0
7, 7, Control_c, 2, 91, 50
7, 768, Note_on_c, 2, 52, 101
7, 768, Note_on_c, 2, 59, 107
7, 768, Note_on_c, 2, 68, 111
7, 768, Note_on_c, 2, 47, 101
7, 768, Note_on_c, 2, 64, 110
7, 768, Note_on_c, 2, 40, 96
7, 770, Note_on_c, 2, 40, 0
7, 770, Note_on_c, 2, 40, 111
7, 1058, Note_on_c, 2, 47, 0
7, 1104, Note_on_c, 2, 59, 0
7, 1112, Note_on_c, 2, 52, 0
7, 1128, Note_on_c, 2, 38, 93
7, 1134, Note_on_c, 2, 45, 93
7, 1134, Note_on_c, 2, 60, 116
7, 1142, Note_on_c, 2, 50, 114
7, 1162, Note_on_c, 2, 38, 0
7, 1162, Note_on_c, 2, 38, 122
7, 1168, Note_on_c, 2, 40, 0
7, 1342, Note_on_c, 2, 66, 111
7, 1354, Note_on_c, 2, 68, 0
7, 1416, Note_on_c, 2, 45, 0
7, 1502, Note_on_c, 2, 60, 0
7, 1522, Note_on_c, 2, 44, 98
7, 1526, Note_on_c, 2, 51, 111
7, 1528, Note_on_c, 2, 63, 113
7, 1530, Note_on_c, 2, 71, 110
7, 1532, Note_on_c, 2, 69, 101
7, 1534, Note_on_c, 2, 59, 113
7, 1538, Note_on_c, 2, 44, 0
7, 1538, Note_on_c, 2, 64, 0
7, 1538, Note_on_c, 2, 44, 118
7, 1540, Note_on_c, 2, 50, 0
7, 1544, Note_on_c, 2, 66, 0
7, 1548, Note_on_c, 2, 69, 0
7, 1550, Note_on_c, 2, 38, 0
7, 1710, Note_on_c, 2, 59, 0
7, 1726, Note_on_c, 2, 59, 115
7, 1832, Note_on_c, 2, 51, 0
7, 1872, Note_on_c, 2, 59, 0
7, 1900, Note_on_c, 2, 53, 93
7, 1904, Note_on_c, 2, 67, 120
7, 1906, Note_on_c, 2, 49, 104
7, 1908, Note_on_c, 2, 59, 108
7, 1914, Note_on_c, 2, 37, 116
7, 1926, Note_on_c, 2, 71, 0
7, 1928, Note_on_c, 2, 44, 0
7, 2098, Note_on_c, 2, 68, 114
7, 2106, Note_on_c, 2, 67, 0
7, 2106, Note_on_c, 2, 49, 0
7, 2106, Note_on_c, 2, 49, 113
7, 2118, Note_on_c, 2, 37, 0
7, 2198, Note_on_c, 2, 44, 112
7, 2202, Note_on_c, 2, 59, 0
7, 2220, Note_on_c, 2, 53, 0
7, 2228, Note_on_c, 2, 49, 0
7, 2248, Note_on_c, 2, 63, 0
7, 2286, Note_on_c, 2, 42, 96
7, 2292, Note_on_c, 2, 61, 110
7, 2296, Note_on_c, 2, 57, 108
7, 2310, Note_on_c, 2, 42, 0
7, 2310, Note_on_c, 2, 42, 116
7, 2318, Note_on_c, 2, 44, 0
7, 2404, Note_on_c, 2, 49, 123
7, 2490, Note_on_c, 2, 54, 108
7, 2518, Note_on_c, 2, 57, 0
7, 2586, Note_on_c, 2, 59, 119
7, 2592, Note_on_c, 2, 61, 0
7, 2676, Note_on_c, 2, 61, 124
7, 2684, Note_on_c, 2, 59, 0
7, 2866, Note_on_c, 2, 57, 124
7, 2870, Note_on_c, 2, 42, 0
7, 2870, Note_on_c, 2, 42, 120
7, 2996, Note_on_c, 2, 54, 0
7, 3042, Note_on_c, 2, 61, 0
7, 3054, Note_on_c, 2, 49, 0
7, 3058, Note_on_c, 2, 41, 116
7, 3058, Note_on_c, 2, 64, 110
7, 3060, Note_on_c, 2, 41, 0
7, 3060, Note_on_c, 2, 68, 0
7, 3060, Note_on_c, 2, 42, 0
7, 3060, Note_on_c, 2, 60, 116
7, 3060, Note_on_c, 2, 41, 101
7, 3064, Note_on_c, 2, 53, 111
7, 3346, Note_on_c, 2, 60, 0
7, 3418, Note_on_c, 2, 53, 0
7, 3424, Note_on_c, 2, 47, 96
7, 3432, Note_on_c, 2, 57, 0
7, 3448, Note_on_c, 2, 63, 108
7, 3450, Note_on_c, 2, 57, 114
7, 3452, Note_on_c, 2, 68, 104
7, 3460, Note_on_c, 2, 47, 0
7, 3460, Note_on_c, 2, 47, 112
7, 3462, Note_on_c, 2, 64, 0
7, 3470, Note_on_c, 2, 41, 0
7, 3640, Note_on_c, 2, 68, 0
7, 3640, Note_on_c, 2, 67, 111
7, 3750, Note_on_c, 2, 57, 0
7, 3832, Note_on_c, 2, 64, 104
7, 3836, Note_on_c, 2, 63, 0
7, 3838, Note_on_c, 2, 56, 93
7, 3844, Note_on_c, 2, 67, 0
7, 3844, Note_on_c, 2, 47, 0
7, 3844, Note_on_c, 2, 47, 101
7, 3844, Note_on_c, 2, 40, 93
7, 3848, Note_on_c, 2, 52, 93
7, 3870, Note_on_c, 2, 40, 0
7, 3870, Note_on_c, 2, 40, 111
7, 4052, Note_on_c, 2, 52, 0
7, 4108, Note_on_c, 2, 52, 116
7, 4120, Note_on_c, 2, 47, 0
7, 4176, Note_on_c, 2, 56, 0
7, 4190, Note_on_c, 2, 64, 0
7, 4198, Note_on_c, 2, 51, 114
7, 4198, Note_on_c, 2, 57, 122
7, 4206, Note_on_c, 2, 52, 0
7, 4300, Note_on_c, 2, 54, 118
7, 4406, Note_on_c, 2, 60, 114
7, 4522, Note_on_c, 2, 54, 0
7, 4560, Note_on_c, 2, 51, 0
7, 4582, Note_on_c, 2, 59, 98
7, 4584, Note_on_c, 2, 57, 0
7, 4588, Note_on_c, 2, 60, 0
7, 4588, Note_on_c, 2, 40, 0
7, 4588, Note_on_c, 2, 56, 60
7, 4588, Note_on_c, 2, 52, 106
7, 4608, Note_on_c, 2, 40, 111
7, 4760, Note_on_c, 2, 56, 0
7, 4786, Note_on_c, 2, 56, 116
7, 4860, Note_on_c, 2, 59, 0
7, 4882, Note_on_c, 2, 59, 114
7, 4966, Note_on_c, 2, 60, 122
7, 4968, Note_on_c, 2, 51, 110
7, 4972, Note_on_c, 2, 57, 110
7, 4974, Note_on_c, 2, 59, 0
7, 4976, Note_on_c, 2, 56, 0
7, 4982, Note_on_c, 2, 52, 0
7, 5072, Note_on_c, 2, 63, 125
7, 5166, Note_on_c, 2, 63, 0
7, 5166, Note_on_c, 2, 71, 120
7, 5168, Note_on_c, 2, 54, 114
7, 5178, Note_on_c, 2, 51, 0
7, 5260, Note_on_c, 2, 69, 122
7, 5274, Note_on_c, 2, 57, 0
7, 5274, Note_on_c, 2, 54, 0
7, 5284, Note_on_c, 2, 71, 0
7, 5352, Note_on_c, 2, 40, 0
7, 5358, Note_on_c, 2, 52, 96
7, 5360, Note_on_c, 2, 64, 113
7, 5364, Note_on_c, 2, 60, 0
7, 5364, Note_on_c, 2, 44, 98
7, 5370, Note_on_c, 2, 69, 0
7, 5376, Note_on_c, 2, 40, 112
7, 5578, Note_on_c, 2, 59, 124
7, 5746, Note_on_c, 2, 69, 122
7, 5754, Note_on_c, 2, 44, 0
7, 5754, Note_on_c, 2, 44, 116
7, 5774, Note_on_c, 2, 40, 0
7, 6008, Note_on_c, 2, 69, 0
7, 6022, Note_on_c, 2, 68, 122
7, 6054, Note_on_c, 2, 64, 0
7, 6114, Note_on_c, 2, 42, 98
7, 6120, Note_on_c, 2, 64, 114
7, 6120, Note_on_c, 2, 61, 116
7, 6126, Note_on_c, 2, 42, 0
7, 6126, Note_on_c, 2, 42, 110
7, 6128, Note_on_c, 2, 59, 0
7, 6132, Note_on_c, 2, 44, 0
7, 6134, Note_on_c, 2, 68, 0
7, 6226, Note_on_c, 2, 57, 117
7, 6322, Note_on_c, 2, 66, 116
7, 6370, Note_on_c, 2, 64, 0
7, 6448, Note_on_c, 2, 57, 0
7, 6488, Note_on_c, 2, 52, 0
7, 6508, Note_on_c, 2, 41, 104
7, 6514, Note_on_c, 2, 63, 108
7, 6516, Note_on_c, 2, 60, 112
7, 6522, Note_on_c, 2, 51, 111
7, 6524, Note_on_c, 2, 61, 0
7, 6532, Note_on_c, 2, 41, 0
7, 6532, Note_on_c, 2, 42, 0
7, 6532, Note_on_c, 2, 41, 113
7, 6726, Note_on_c, 2, 48, 116
7, 6736, Note_on_c, 2, 51, 0
7, 6812, Note_on_c, 2, 51, 108
7, 6814, Note_on_c, 2, 57, 120
7, 6818, Note_on_c, 2, 48, 0
7, 6822, Note_on_c, 2, 60, 0
7, 6830, Note_on_c, 2, 63, 0
7, 6884, Note_on_c, 2, 57, 0
7, 6894, Note_on_c, 2, 51, 0
7, 6906, Note_on_c, 2, 47, 98
7, 6912, Note_on_c, 2, 64, 113
7, 6916, Note_on_c, 2, 56, 114
7, 6920, Note_on_c, 2, 66, 0
7, 6920, Note_on_c, 2, 40, 104
7, 6928, Note_on_c, 2, 40, 0
7, 6928, Note_on_c, 2, 40, 110
7, 6930, Note_on_c, 2, 41, 0
7, 7096, Note_on_c, 2, 52, 116
7, 7164, Note_on_c, 2, 56, 0
7, 7166, Note_on_c, 2, 47, 0
7, 7240, Note_on_c, 2, 52, 0
7, 7270, Note_on_c, 2, 56, 93
7, 7272, Note_on_c, 2, 50, 101
7, 7280, Note_on_c, 2, 73, 118
7, 7290, Note_on_c, 2, 50, 0
7, 7290, Note_on_c, 2, 50, 104
7, 7292, Note_on_c, 2, 59, 114
7, 7294, Note_on_c, 2, 64, 0
7, 7296, Note_on_c, 2, 56, 0
7, 7304, Note_on_c, 2, 40, 0
7, 7382, Note_on_c, 2, 56, 113
7, 7384, Note_on_c, 2, 66, 125
7, 7396, Note_on_c, 2, 59, 0
7, 7470, Note_on_c, 2, 59, 118
7, 7480, Note_on_c, 2, 56, 0
7, 7566, Note_on_c, 2, 71, 112
7, 7568, Note_on_c, 2, 73, 0
7, 7670, Note_on_c, 2, 69, 108
7, 7672, Note_on_c, 2, 65, 96
7, 7676, Note_on_c, 2, 49, 110
7, 7682, Note_on_c, 2, 66, 0
7, 7682, Note_on_c, 2, 71, 0
7, 7686, Note_on_c, 2, 49, 0
7, 7686, Note_on_c, 2, 49, 106
7, 7700, Note_on_c, 2, 50, 0
7, 7858, Note_on_c, 2, 56, 120
7, 7868, Note_on_c, 2, 59, 0
7, 7958, Note_on_c, 2, 59, 111
7, 7970, Note_on_c, 2, 56, 0
7, 8244, Note_on_c, 2, 68, 111
7, 8248, Note_on_c, 2, 69, 0
7, 8260, Note_on_c, 2, 49, 0
7, 8260, Note_on_c, 2, 49, 101
7, 8338, Note_on_c, 2, 59, 0
7, 8434, Note_on_c, 2, 66, 98
7, 8438, Note_on_c, 2, 65, 0
7, 8438, Note_on_c, 2, 57, 106
7, 8440, Note_on_c, 2, 42, 103
7, 8442, Note_on_c, 2, 42, 0
7, 8444, Note_on_c, 2, 49, 0
7, 8444, Note_on_c, 2, 49, 113
7, 8446, Note_on_c, 2, 68, 0
7, 8480, Note_on_c, 2, 49, 0
7, 8532, Note_on_c, 2, 49, 116
7, 8618, Note_on_c, 2, 57, 0
7, 8638, Note_on_c, 2, 57, 123
7, 8826, Note_on_c, 2, 59, 119
7, 8838, Note_on_c, 2, 57, 0
7, 9006, Note_on_c, 2, 61, 127
7, 9014, Note_on_c, 2, 59, 0
7, 9122, Note_on_c, 2, 42, 114
7, 9156, Note_on_c, 2, 42, 0
7, 9156, Note_on_c, 2, 42, 113
7, 9178, Note_on_c, 2, 52, 120
7, 9188, Note_on_c, 2, 49, 0
7, 9190, Note_on_c, 2, 61, 0
7, 9194, Note_on_c, 2, 60, 125
7, 9208, Note_on_c, 2, 66, 0
7, 9228, Note_on_c, 2, 54, 120
7, 9392, Note_on_c, 2, 64, 126
7, 9410, Note_on_c, 2, 52, 0
7, 9410, Note_on_c, 2, 52, 114
7, 9426, Note_on_c, 2, 54, 0
7, 9498, Note_on_c, 2, 49, 119
7, 9576, Note_on_c, 2, 71, 126
7, 9596, Note_on_c, 2, 45, 115
7, 9598, Note_on_c, 2, 49, 0
7, 9686, Note_on_c, 2, 44, 111
7, 9692, Note_on_c, 2, 45, 0
7, 9792, Note_on_c, 2, 44, 0
7, 9794, Note_on_c, 2, 42, 0
7, 9794, Note_on_c, 2, 42, 118
7, 9880, Note_on_c, 2, 69, 119
7, 9890, Note_on_c, 2, 71, 0
7, 9948, Note_on_c, 2, 60, 0
7, 9980, Note_on_c, 2, 44, 104
7, 9984, Note_on_c, 2, 66, 113
7, 9984, Note_on_c, 2, 71, 117
7, 9988, Note_on_c, 2, 59, 118
7, 9992, Note_on_c, 2, 42, 0
7, 9994, Note_on_c, 2, 44, 0
7, 9994, Note_on_c, 2, 69, 0
7, 9994, Note_on_c, 2, 44, 111
7, 9998, Note_on_c, 2, 64, 0
7, 10198, Note_on_c, 2, 64, 122
7, 10210, Note_on_c, 2, 66, 0
7, 10210, Note_on_c, 2, 71, 0
7, 10348, Note_on_c, 2, 52, 0
7, 10372, Note_on_c, 2, 52, 120
7, 10514, Note_on_c, 2, 52, 0
7, 10538, Note_on_c, 2, 44, 0
7, 10544, Note_on_c, 2, 52, 120
7, 10550, Note_on_c, 2, 44, 103
7, 10562, Note_on_c, 2, 44, 0
7, 10562, Note_on_c, 2, 44, 116
7, 10636, Note_on_c, 2, 44, 0
7, 10636, Note_on_c, 2, 44, 126
7, 10712, Note_on_c, 2, 59, 0
7, 10740, Note_on_c, 2, 68, 112
7, 10742, Note_on_c, 2, 60, 118
7, 10746, Note_on_c, 2, 45, 120
7, 10754, Note_on_c, 2, 64, 0
7, 10758, Note_on_c, 2, 45, 0
7, 10758, Note_on_c, 2, 45, 110
7, 10768, Note_on_c, 2, 44, 0
7, 10928, Note_on_c, 2, 66, 116
7, 10932, Note_on_c, 2, 54, 96
7, 10942, Note_on_c, 2, 68, 0
7, 10942, Note_on_c, 2, 52, 0
7, 11192, Note_on_c, 2, 54, 0
7, 11214, Note_on_c, 2, 54, 120
7, 11306, Note_on_c, 2, 68, 124
7, 11328, Note_on_c, 2, 66, 0
7, 11408, Note_on_c, 2, 69, 125
7, 11420, Note_on_c, 2, 68, 0
7, 11514, Note_on_c, 2, 52, 116
7, 11516, Note_on_c, 2, 66, 118
7, 11518, Note_on_c, 2, 71, 127
7, 11522, Note_on_c, 2, 52, 0
7, 11522, Note_on_c, 2, 54, 0
7, 11524, Note_on_c, 2, 44, 122
7, 11526, Note_on_c, 2, 45, 0
7, 11528, Note_on_c, 2, 60, 0
7, 11528, Note_on_c, 2, 69, 0
7, 11708, Note_on_c, 2, 64, 114
7, 11718, Note_on_c, 2, 66, 0
7, 11894, Note_on_c, 2, 62, 120
7, 11898, Note_on_c, 2, 54, 118
7, 11900, Note_on_c, 2, 64, 0
7, 11902, Note_on_c, 2, 50, 113
7, 12076, Note_on_c, 2, 50, 0
7, 12076, Note_on_c, 2, 44, 0
7, 12076, Note_on_c, 2, 50, 114
7, 12236, Note_on_c, 2, 62, 0
7, 12254, Note_on_c, 2, 49, 104
7, 12254, Note_on_c, 2, 65, 110
7, 12258, Note_on_c, 2, 54, 0
7, 12264, Note_on_c, 2, 59, 122
7, 12264, Note_on_c, 2, 53, 112
7, 12274, Note_on_c, 2, 71, 0
7, 12278, Note_on_c, 2, 49, 0
7, 12278, Note_on_c, 2, 49, 114
7, 12292, Note_on_c, 2, 50, 0
7, 12470, Note_on_c, 2, 53, 0
7, 12484, Note_on_c, 2, 53, 125
7, 12642, Note_on_c, 2, 66, 113
7, 12650, Note_on_c, 2, 54, 116
7, 12652, Note_on_c, 2, 65, 0
7, 12662, Note_on_c, 2, 53, 0
7, 12844, Note_on_c, 2, 68, 116
7, 12852, Note_on_c, 2, 56, 111
7, 12858, Note_on_c, 2, 66, 0
7, 12862, Note_on_c, 2, 54, 0
7, 12952, Note_on_c, 2, 53, 116
7, 13012, Note_on_c, 2, 53, 0
7, 13032, Note_on_c, 2, 59, 0
7, 13034, Note_on_c, 2, 56, 0
7, 13044, Note_on_c, 2, 42, 111
7, 13052, Note_on_c, 2, 61, 107
7, 13054, Note_on_c, 2, 69, 110
7, 13058, Note_on_c, 2, 49, 0
7, 13060, Note_on_c, 2, 57, 114
7, 13066, Note_on_c, 2, 54, 106
7, 13068, Note_on_c, 2, 68, 0
7, 13068, Note_on_c, 2, 42, 0
7, 13068, Note_on_c, 2, 42, 98
7, 13338, Note_on_c, 2, 49, 119
7, 13346, Note_on_c, 2, 54, 0
7, 13430, Note_on_c, 2, 54, 116
7, 13594, Note_on_c, 2, 57, 0
7, 13626, Note_on_c, 2, 57, 119
7, 13640, Note_on_c, 2, 42, 0
7, 13640, Note_on_c, 2, 42, 110
7, 13780, Note_on_c, 2, 57, 0
7, 13808, Note_on_c, 2, 65, 114
7, 13812, Note_on_c, 2, 59, 115
7, 13820, Note_on_c, 2, 61, 0
7, 13820, Note_on_c, 2, 54, 0
7, 13820, Note_on_c, 2, 48, 107
7, 13822, Note_on_c, 2, 53, 107
7, 13826, Note_on_c, 2, 42, 0
7, 13844, Note_on_c, 2, 48, 0
7, 13878, Note_on_c, 2, 49, 0
7, 13878, Note_on_c, 2, 49, 111
7, 14008, Note_on_c, 2, 68, 108
7, 14018, Note_on_c, 2, 69, 0
7, 14292, Note_on_c, 2, 53, 0
7, 14386, Note_on_c, 2, 53, 119
7, 14458, Note_on_c, 2, 59, 0
7, 14474, Note_on_c, 2, 59, 111
7, 14534, Note_on_c, 2, 53, 0
7, 14538, Note_on_c, 2, 65, 0
7, 14542, Note_on_c, 2, 42, 104
7, 14562, Note_on_c, 2, 68, 0
7, 14574, Note_on_c, 2, 61, 120
7, 14576, Note_on_c, 2, 69, 120
7, 14576, Note_on_c, 2, 54, 111
7, 14582, Note_on_c, 2, 54, 0
7, 14582, Note_on_c, 2, 54, 111
7, 14588, Note_on_c, 2, 59, 0
7, 14762, Note_on_c, 2, 57, 115
7, 14872, Note_on_c, 2, 54, 0
7, 14872, Note_on_c, 2, 54, 120
7, 14912, Note_on_c, 2, 49, 0
7, 14960, Note_on_c, 2, 49, 122
7, 14972, Note_on_c, 2, 54, 0
7, 14972, Note_on_c, 2, 54, 116
7, 15122, Note_on_c, 2, 57, 0
7, 15152, Note_on_c, 2, 54, 0
7, 15152, Note_on_c, 2, 54, 104
7, 15156, Note_on_c, 2, 66, 118
7, 15214, Note_on_c, 2, 42, 0
7, 15214, Note_on_c, 2, 69, 0
7, 15216, Note_on_c, 2, 49, 0
7, 15342, Note_on_c, 2, 63, 112
7, 15344, Note_on_c, 2, 47, 103
7, 15346, Note_on_c, 2, 68, 111
7, 15346, Note_on_c, 2, 57, 110
7, 15348, Note_on_c, 2, 47, 0
7, 15348, Note_on_c, 2, 47, 116
7, 15354, Note_on_c, 2, 61, 0
7, 15354, Note_on_c, 2, 54, 0
7, 15358, Note_on_c, 2, 66, 0
7, 15374, Note_on_c, 2, 68, 0
7, 15374, Note_on_c, 2, 68, 107
7, 15376, Note_on_c, 2, 63, 0
7, 15376, Note_on_c, 2, 63, 110
7, 15378, Note_on_c, 2, 47, 0
7, 15378, Note_on_c, 2, 47, 104
7, 15380, Note_on_c, 2, 57, 0
7, 15380, Note_on_c, 2, 57, 98
7, 15584, Note_on_c, 2, 57, 0
7, 15584, Note_on_c, 2, 57, 114
7, 15740, Note_on_c, 2, 67, 106
7, 15748, Note_on_c, 2, 68, 0
7, 16000, Note_on_c, 2, 57, 0
7, 16124, Note_on_c, 2, 40, 107
7, 16126, Note_on_c, 2, 63, 0
7, 16128, Note_on_c, 2, 67, 0
7, 16130, Note_on_c, 2, 47, 0
7, 16132, Note_on_c, 2, 52, 103
7, 16136, Note_on_c, 2, 52, 0
7, 16136, Note_on_c, 2, 52, 84
7, 16142, Note_on_c, 2, 59, 98
7, 16222, Note_on_c, 2, 47, 112
7, 16294, Note_on_c, 2, 59, 0
7, 16320, Note_on_c, 2, 59, 123
7, 16324, Note_on_c, 2, 52, 0
7, 16324, Note_on_c, 2, 52, 111
7, 16388, Note_on_c, 2, 40, 0
7, 16390, Note_on_c, 2, 47, 0
7, 16468, Note_on_c, 2, 52, 0
7, 16502, Note_on_c, 2, 60, 124
7, 16506, Note_on_c, 2, 54, 104
7, 16508, Note_on_c, 2, 59, 0
7, 16688, Note_on_c, 2, 63, 124
7, 16700, Note_on_c, 2, 60, 0
7, 16700, Note_on_c, 2, 57, 108
7, 16868, Note_on_c, 2, 54, 0
7, 16870, Note_on_c, 2, 52, 104
7, 16876, Note_on_c, 2, 56, 93
7, 16882, Note_on_c, 2, 64, 119
7, 16884, Note_on_c, 2, 57, 0
7, 16890, Note_on_c, 2, 63, 0
7, 17048, Note_on_c, 2, 66, 120
7, 17158, Note_on_c, 2, 68, 123
7, 17160, Note_on_c, 2, 64, 0
7, 17176, Note_on_c, 2, 66, 0
7, 17182, Note_on_c, 2, 56, 0
7, 17188, Note_on_c, 2, 52, 0
7, 17214, Note_on_c, 2, 54, 84
7, 17228, Note_on_c, 2, 57, 84
7, 17232, Note_on_c, 2, 60, 111
7, 17248, Note_on_c, 2, 69, 124
7, 17256, Note_on_c, 2, 57, 0
7, 17262, Note_on_c, 2, 68, 0
7, 17368, Note_on_c, 2, 57, 108
7, 17410, Note_on_c, 2, 60, 0
7, 17464, Note_on_c, 2, 60, 115
7, 17560, Note_on_c, 2, 60, 0
7, 17568, Note_on_c, 2, 63, 120
7, 17570, Note_on_c, 2, 57, 0
7, 17578, Note_on_c, 2, 54, 0
7, 17580, Note_on_c, 2, 69, 0
7, 17688, Note_on_c, 2, 59, 116
7, 17690, Note_on_c, 2, 63, 0
7, 17690, Note_on_c, 2, 40, 113
7, 17786, Note_on_c, 2, 47, 104
7, 17866, Note_on_c, 2, 52, 116
7, 17932, Note_on_c, 2, 40, 0
7, 17936, Note_on_c, 2, 64, 119
7, 17942, Note_on_c, 2, 47, 0
7, 18040, Note_on_c, 2, 69, 125
7, 18042, Note_on_c, 2, 44, 107
7, 18320, Note_on_c, 2, 68, 110
7, 18332, Note_on_c, 2, 64, 0
7, 18336, Note_on_c, 2, 44, 0
7, 18386, Note_on_c, 2, 69, 0
7, 18424, Note_on_c, 2, 64, 116
7, 18426, Note_on_c, 2, 61, 118
7, 18430, Note_on_c, 2, 68, 0
7, 18430, Note_on_c, 2, 42, 110
7, 18438, Note_on_c, 2, 59, 0
7, 18612, Note_on_c, 2, 66, 116
7, 18628, Note_on_c, 2, 64, 0
7, 18742, Note_on_c, 2, 42, 0
7, 18766, Note_on_c, 2, 52, 0
7, 18788, Note_on_c, 2, 41, 93
7, 18798, Note_on_c, 2, 60, 112
7, 18804, Note_on_c, 2, 61, 0
7, 18804, Note_on_c, 2, 51, 116
7, 18818, Note_on_c, 2, 41, 0
7, 18818, Note_on_c, 2, 41, 116
7, 18982, Note_on_c, 2, 63, 113
7, 18990, Note_on_c, 2, 53, 116
7, 18998, Note_on_c, 2, 66, 0
7, 19156, Note_on_c, 2, 41, 0
7, 19156, Note_on_c, 2, 51, 0
7, 19158, Note_on_c, 2, 60, 0
7, 19184, Note_on_c, 2, 47, 107
7, 19188, Note_on_c, 2, 59, 122
7, 19194, Note_on_c, 2, 40, 110
7, 19196, Note_on_c, 2, 52, 98
7, 19198, Note_on_c, 2, 52, 0
7, 19198, Note_on_c, 2, 52, 114
7, 19202, Note_on_c, 2, 63, 0
7, 19210, Note_on_c, 2, 53, 0
7, 19284, Note_on_c, 2, 47, 0
7, 19318, Note_on_c, 2, 47, 113
7, 19388, Note_on_c, 2, 64, 120
7, 19396, Note_on_c, 2, 52, 0
7, 19396, Note_on_c, 2, 52, 115
7, 19416, Note_on_c, 2, 40, 0
7, 19422, Note_on_c, 2, 47, 0
7, 19536, Note_on_c, 2, 56, 18
7, 19538, Note_on_c, 2, 59, 0
7, 19566, Note_on_c, 2, 50, 110
7, 19572, Note_on_c, 2, 59, 118
7, 19572, Note_on_c, 2, 62, 125
7, 19582, Note_on_c, 2, 64, 0
7, 19588, Note_on_c, 2, 50, 0
7, 19588, Note_on_c, 2, 50, 112
7, 19594, Note_on_c, 2, 52, 0
7, 19610, Note_on_c, 2, 56, 0
7, 19674, Note_on_c, 2, 56, 122
7, 19696, Note_on_c, 2, 59, 0
7, 19766, Note_on_c, 2, 59, 120
7, 19920, Note_on_c, 2, 59, 0
7, 19948, Note_on_c, 2, 49, 118
7, 19956, Note_on_c, 2, 59, 122
7, 19958, Note_on_c, 2, 65, 117
7, 19968, Note_on_c, 2, 56, 0
7, 19968, Note_on_c, 2, 62, 0
7, 19974, Note_on_c, 2, 49, 0
7, 19974, Note_on_c, 2, 49, 118
7, 19984, Note_on_c, 2, 50, 0
7, 20148, Note_on_c, 2, 66, 125
7, 20160, Note_on_c, 2, 65, 0
7, 20334, Note_on_c, 2, 67, 122
7, 20342, Note_on_c, 2, 66, 0
7, 20534, Note_on_c, 2, 68, 125
7, 20538, Note_on_c, 2, 56, 111
7, 20544, Note_on_c, 2, 67, 0
7, 20550, Note_on_c, 2, 49, 0
7, 20550, Note_on_c, 2, 49, 114
7, 20572, Note_on_c, 2, 59, 0
7, 20624, Note_on_c, 2, 59, 111
7, 20678, Note_on_c, 2, 56, 0
7, 20716, Note_on_c, 2, 42, 114
7, 20718, Note_on_c, 2, 69, 120
7, 20720, Note_on_c, 2, 59, 0
7, 20722, Note_on_c, 2, 57, 111
7, 20722, Note_on_c, 2, 54, 113
7, 20728, Note_on_c, 2, 68, 0
7, 20734, Note_on_c, 2, 49, 0
7, 20896, Note_on_c, 2, 61, 114
7, 20934, Note_on_c, 2, 57, 0
7, 20956, Note_on_c, 2, 57, 111
7, 20978, Note_on_c, 2, 54, 0
7, 21072, Note_on_c, 2, 42, 0
7, 21072, Note_on_c, 2, 42, 96
7, 21078, Note_on_c, 2, 50, 106
7, 21090, Note_on_c, 2, 61, 0
7, 21092, Note_on_c, 2, 62, 123
7, 21092, Note_on_c, 2, 54, 106
7, 21106, Note_on_c, 2, 42, 0
7, 21106, Note_on_c, 2, 42, 84
7, 21118, Note_on_c, 2, 50, 0
7, 21190, Note_on_c, 2, 50, 113
7, 21206, Note_on_c, 2, 54, 0
7, 21288, Note_on_c, 2, 54, 124
7, 21368, Note_on_c, 2, 50, 0
7, 21390, Note_on_c, 2, 42, 0
7, 21408, Note_on_c, 2, 42, 116
7, 21454, Note_on_c, 2, 54, 0
7, 21504, Note_on_c, 2, 57, 0
7, 21504, Note_on_c, 2, 47, 107
7, 21518, Note_on_c, 2, 47, 0
7, 21518, Note_on_c, 2, 47, 101
7, 21520, Note_on_c, 2, 42, 0
7, 21520, Note_on_c, 2, 57, 101
7, 21522, Note_on_c, 2, 66, 113
7, 21528, Note_on_c, 2, 62, 0
7, 21538, Note_on_c, 2, 69, 0
7, 21670, Note_on_c, 2, 63, 122
7, 21676, Note_on_c, 2, 54, 122
7, 21678, Note_on_c, 2, 59, 113
7, 21710, Note_on_c, 2, 57, 0
7, 21758, Note_on_c, 2, 57, 115
7, 21836, Note_on_c, 2, 54, 0
7, 21872, Note_on_c, 2, 68, 123
7, 21884, Note_on_c, 2, 56, 124
7, 21886, Note_on_c, 2, 66, 0
7, 21886, Note_on_c, 2, 57, 0
7, 22064, Note_on_c, 2, 66, 117
7, 22064, Note_on_c, 2, 69, 120
7, 22064, Note_on_c, 2, 57, 120
7, 22070, Note_on_c, 2, 63, 0
7, 22072, Note_on_c, 2, 56, 0
7, 22078, Note_on_c, 2, 68, 0
7, 22224, Note_on_c, 2, 47, 0
7, 22252, Note_on_c, 2, 57, 0
7, 22258, Note_on_c, 2, 71, 119
7, 22260, Note_on_c, 2, 52, 114
7, 22274, Note_on_c, 2, 69, 0
7, 22274, Note_on_c, 2, 44, 108
7, 22630, Note_on_c, 2, 64, 118
7, 22636, Note_on_c, 2, 59, 0
7, 22646, Note_on_c, 2, 66, 0
7, 22944, Note_on_c, 2, 64, 0
7, 22990, Note_on_c, 2, 44, 0
7, 23008, Note_on_c, 2, 63, 120
7, 23010, Note_on_c, 2, 45, 111
7, 23012, Note_on_c, 2, 59, 124
7, 23016, Note_on_c, 2, 71, 0
7, 23218, Note_on_c, 2, 64, 114
7, 23220, Note_on_c, 2, 61, 122
7, 23232, Note_on_c, 2, 57, 104
7, 23234, Note_on_c, 2, 63, 0
7, 23238, Note_on_c, 2, 59, 0
7, 23488, Note_on_c, 2, 52, 0
7, 23594, Note_on_c, 2, 52, 113
7, 23638, Note_on_c, 2, 45, 0
7, 23660, Note_on_c, 2, 52, 0
7, 23764, Note_on_c, 2, 57, 0
7, 23766, Note_on_c, 2, 49, 111
7, 23766, Note_on_c, 2, 56, 60
7, 23772, Note_on_c, 2, 53, 104
7, 23778, Note_on_c, 2, 65, 115
7, 23780, Note_on_c, 2, 56, 0
7, 23782, Note_on_c, 2, 59, 118
7, 23792, Note_on_c, 2, 61, 0
7, 23794, Note_on_c, 2, 64, 0
7, 23994, Note_on_c, 2, 61, 119
7, 24296, Note_on_c, 2, 53, 0
7, 24304, Note_on_c, 2, 59, 0
7, 24362, Note_on_c, 2, 59, 118
7, 24368, Note_on_c, 2, 53, 113
7, 24370, Note_on_c, 2, 61, 0
7, 24462, Note_on_c, 2, 53, 0
7, 24468, Note_on_c, 2, 49, 0
7, 24552, Note_on_c, 2, 42, 93
7, 24552, Note_on_c, 2, 57, 122
7, 24552, Note_on_c, 2, 49, 114
7, 24558, Note_on_c, 2, 59, 0
7, 24566, Note_on_c, 2, 65, 0
7, 24748, Note_on_c, 2, 61, 123
7, 24940, Note_on_c, 2, 60, 125
7, 24944, Note_on_c, 2, 61, 0
7, 24946, Note_on_c, 2, 49, 0
7, 24946, Note_on_c, 2, 52, 115
7, 24962, Note_on_c, 2, 57, 0
7, 25284, Note_on_c, 2, 42, 0
7, 25336, Note_on_c, 2, 59, 122
7, 25340, Note_on_c, 2, 44, 106
7, 25342, Note_on_c, 2, 60, 0
7, 25424, Note_on_c, 2, 52, 0
7, 25450, Note_on_c, 2, 52, 117
7, 25538, Note_on_c, 2, 64, 122
7, 25700, Note_on_c, 2, 49, 104
7, 25706, Note_on_c, 2, 52, 0
7, 25712, Note_on_c, 2, 53, 108
7, 25716, Note_on_c, 2, 62, 116
7, 25718, Note_on_c, 2, 69, 119
7, 25728, Note_on_c, 2, 64, 0
7, 25728, Note_on_c, 2, 44, 0
7, 25916, Note_on_c, 2, 68, 120
7, 25928, Note_on_c, 2, 69, 0
7, 25966, Note_on_c, 2, 62, 0
7, 26068, Note_on_c, 2, 59, 0
7, 26076, Note_on_c, 2, 53, 0
7, 26092, Note_on_c, 2, 61, 111
7, 26094, Note_on_c, 2, 42, 71
7, 26102, Note_on_c, 2, 57, 111
7, 26106, Note_on_c, 2, 68, 0
7, 26106, Note_on_c, 2, 52, 110
7, 26116, Note_on_c, 2, 49, 0
7, 26272, Note_on_c, 2, 64, 110
7, 26344, Note_on_c, 2, 42, 0
7, 26408, Note_on_c, 2, 52, 0
7, 26424, Note_on_c, 2, 54, 18
7, 26432, Note_on_c, 2, 57, 0
7, 26446, Note_on_c, 2, 61, 0
7, 26448, Note_on_c, 2, 47, 93
7, 26478, Note_on_c, 2, 66, 103
7, 26480, Note_on_c, 2, 63, 114
7, 26480, Note_on_c, 2, 60, 115
7, 26480, Note_on_c, 2, 57, 110
7, 26494, Note_on_c, 2, 64, 0
7, 26748, Note_on_c, 2, 54, 0
7, 26758, Note_on_c, 2, 57, 0
7, 26784, Note_on_c, 2, 47, 0
7, 26792, Note_on_c, 2, 60, 0
7, 26830, Note_on_c, 2, 63, 0
7, 26862, Note_on_c, 2, 66, 0
7, 26882, Note_on_c, 2, 47, 104
7, 26884, Note_on_c, 2, 59, 116
7, 26884, Note_on_c, 2, 40, 107
7, 26886, Note_on_c, 2, 52, 107
7, 26886, Note_on_c, 2, 56, 108
7, 26892, Note_on_c, 2, 71, 108
7, 26896, Note_on_c, 2, 59, 0
7, 26896, Note_on_c, 2, 59, 114
7, 27084, Note_on_c, 2, 52, 0
7, 27156, Note_on_c, 2, 76, 118
7, 27158, Note_on_c, 2, 64, 117
7, 27162, Note_on_c, 2, 40, 0
7, 27164, Note_on_c, 2, 52, 111
7, 27168, Note_on_c, 2, 47, 0
7, 27172, Note_on_c, 2, 71, 0
7, 27246, Note_on_c, 2, 56, 0
7, 27252, Note_on_c, 2, 57, 110
7, 27258, Note_on_c, 2, 59, 0
7, 27258, Note_on_c, 2, 51, 113
7, 27258, Note_on_c, 2, 54, 104
7, 27266, Note_on_c, 2, 52, 0
7, 27266, Note_on_c, 2, 81, 106
7, 27272, Note_on_c, 2, 64, 0
7, 27274, Note_on_c, 2, 76, 0
7, 27274, Note_on_c, 2, 69, 114
7, 27348, Note_on_c, 2, 60, 120
7, 27428, Note_on_c, 2, 57, 0
7, 27452, Note_on_c, 2, 57, 111
7, 27548, Note_on_c, 2, 80, 113
7, 27552, Note_on_c, 2, 68, 114
7, 27558, Note_on_c, 2, 81, 0
7, 27564, Note_on_c, 2, 69, 0
7, 27584, Note_on_c, 2, 54, 0
7, 27616, Note_on_c, 2, 51, 0
7, 27636, Note_on_c, 2, 57, 0
7, 27636, Note_on_c, 2, 59, 119
7, 27640, Note_on_c, 2, 52, 111
7, 27642, Note_on_c, 2, 56, 114
7, 27644, Note_on_c, 2, 60, 0
7, 27660, Note_on_c, 2, 68, 0
7, 27660, Note_on_c, 2, 64, 112
7, 27660, Note_on_c, 2, 76, 113
7, 27664, Note_on_c, 2, 80, 0
7, 27986, Note_on_c, 2, 56, 0
7, 27988, Note_on_c, 2, 52, 0
7, 27992, Note_on_c, 2, 51, 98
7, 28004, Note_on_c, 2, 57, 110
7, 28008, Note_on_c, 2, 60, 120
7, 28016, Note_on_c, 2, 59, 0
7, 28112, Note_on_c, 2, 63, 126
7, 28210, Note_on_c, 2, 63, 0
7, 28212, Note_on_c, 2, 71, 117
7, 28326, Note_on_c, 2, 69, 120
7, 28354, Note_on_c, 2, 71, 0
7, 28370, Note_on_c, 2, 64, 0
7, 28370, Note_on_c, 2, 57, 0
7, 28374, Note_on_c, 2, 51, 0
7, 28390, Note_on_c, 2, 76, 0
7, 28412, Note_on_c, 2, 56, 18
7, 28418, Note_on_c, 2, 52, 106
7, 28424, Note_on_c, 2, 59, 101
7, 28424, Note_on_c, 2, 68, 124
7, 28428, Note_on_c, 2, 60, 0
7, 28438, Note_on_c, 2, 69, 0
7, 28496, Note_on_c, 2, 56, 0
7, 28530, Note_on_c, 2, 56, 116
7, 28546, Note_on_c, 2, 59, 0
7, 28572, Note_on_c, 2, 57, 93
7, 28590, Note_on_c, 2, 57, 0
7, 28598, Note_on_c, 2, 71, 127
7, 28602, Note_on_c, 2, 59, 110
7, 28622, Note_on_c, 2, 59, 0
7, 28622, Note_on_c, 2, 59, 114
7, 28692, Note_on_c, 2, 64, 113
7, 28694, Note_on_c, 2, 52, 0
7, 28696, Note_on_c, 2, 56, 0
7, 28700, Note_on_c, 2, 76, 126
7, 28702, Note_on_c, 2, 64, 0
7, 28702, Note_on_c, 2, 64, 114
7, 28710, Note_on_c, 2, 71, 0
7, 28786, Note_on_c, 2, 44, 106
7, 28786, Note_on_c, 2, 69, 120
7, 28788, Note_on_c, 2, 52, 107
7, 28796, Note_on_c, 2, 68, 0
7, 28800, Note_on_c, 2, 81, 117
7, 28804, Note_on_c, 2, 69, 0
7, 28804, Note_on_c, 2, 69, 119
7, 28806, Note_on_c, 2, 76, 0
7, 29070, Note_on_c, 2, 80, 114
7, 29070, Note_on_c, 2, 68, 118
7, 29072, Note_on_c, 2, 68, 0
7, 29072, Note_on_c, 2, 68, 118
7, 29076, Note_on_c, 2, 81, 0
7, 29084, Note_on_c, 2, 69, 0
7, 29086, Note_on_c, 2, 64, 0
7, 29094, Note_on_c, 2, 44, 0
7, 29134, Note_on_c, 2, 59, 0
7, 29168, Note_on_c, 2, 64, 115
7, 29170, Note_on_c, 2, 42, 104
7, 29176, Note_on_c, 2, 61, 113
7, 29186, Note_on_c, 2, 68, 0
7, 29188, Note_on_c, 2, 76, 120
7, 29190, Note_on_c, 2, 64, 0
7, 29190, Note_on_c, 2, 80, 0
7, 29190, Note_on_c, 2, 64, 114
7, 29362, Note_on_c, 2, 66, 113
7, 29364, Note_on_c, 2, 78, 122
7, 29370, Note_on_c, 2, 66, 0
7, 29370, Note_on_c, 2, 66, 120
7, 29376, Note_on_c, 2, 76, 0
7, 29378, Note_on_c, 2, 64, 0
7, 29408, Note_on_c, 2, 61, 0
7, 29416, Note_on_c, 2, 62, 84
7, 29432, Note_on_c, 2, 62, 0
7, 29532, Note_on_c, 2, 42, 0
7, 29546, Note_on_c, 2, 57, 122
7, 29556, Note_on_c, 2, 52, 0
7, 29556, Note_on_c, 2, 41, 117
7, 29658, Note_on_c, 2, 48, 111
7, 29752, Note_on_c, 2, 53, 122
7, 29868, Note_on_c, 2, 48, 0
7, 29886, Note_on_c, 2, 57, 0
7, 29896, Note_on_c, 2, 53, 0
7, 29904, Note_on_c, 2, 41, 0
7, 29936, Note_on_c, 2, 66, 0
7, 29936, Note_on_c, 2, 59, 119
7, 29940, Note_on_c, 2, 56, 112
7, 29942, Note_on_c, 2, 78, 0
7, 29942, Note_on_c, 2, 52, 115
7, 29944, Note_on_c, 2, 40, 115
7, 30034, Note_on_c, 2, 47, 115
7, 30048, Note_on_c, 2, 52, 0
7, 30128, Note_on_c, 2, 71, 122
7, 30132, Note_on_c, 2, 52, 120
7, 30136, Note_on_c, 2, 59, 0
7, 30136, Note_on_c, 2, 59, 120
7, 30190, Note_on_c, 2, 47, 0
7, 30192, Note_on_c, 2, 40, 0
7, 30226, Note_on_c, 2, 71, 0
7, 30226, Note_on_c, 2, 76, 116
7, 30230, Note_on_c, 2, 64, 120
7, 30290, Note_on_c, 2, 52, 0
7, 30322, Note_on_c, 2, 50, 107
7, 30326, Note_on_c, 2, 61, 125
7, 30330, Note_on_c, 2, 54, 124
7, 30332, Note_on_c, 2, 56, 0
7, 30336, Note_on_c, 2, 64, 0
7, 30336, Note_on_c, 2, 85, 122
7, 30340, Note_on_c, 2, 59, 0
7, 30344, Note_on_c, 2, 73, 120
7, 30350, Note_on_c, 2, 76, 0
7, 30534, Note_on_c, 2, 62, 122
7, 30538, Note_on_c, 2, 61, 0
7, 30600, Note_on_c, 2, 85, 0
7, 30604, Note_on_c, 2, 83, 120
7, 30608, Note_on_c, 2, 73, 0
7, 30608, Note_on_c, 2, 71, 124
7, 30694, Note_on_c, 2, 54, 0
7, 30706, Note_on_c, 2, 49, 113
7, 30710, Note_on_c, 2, 50, 0
7, 30718, Note_on_c, 2, 53, 116
7, 30720, Note_on_c, 2, 81, 119
7, 30720, Note_on_c, 2, 69, 110
7, 30724, Note_on_c, 2, 71, 0
7, 30724, Note_on_c, 2, 83, 0
7, 30894, Note_on_c, 2, 61, 124
7, 30906, Note_on_c, 2, 62, 0
7, 31072, Note_on_c, 2, 53, 0
7, 31078, Note_on_c, 2, 59, 121
7, 31084, Note_on_c, 2, 53, 116
7, 31086, Note_on_c, 2, 61, 0
7, 31258, Note_on_c, 2, 49, 0
7, 31268, Note_on_c, 2, 61, 127
7, 31282, Note_on_c, 2, 80, 116
7, 31288, Note_on_c, 2, 68, 113
7, 31290, Note_on_c, 2, 81, 0
7, 31294, Note_on_c, 2, 69, 0
7, 31378, Note_on_c, 2, 49, 114
7, 31452, Note_on_c, 2, 59, 0
7, 31468, Note_on_c, 2, 73, 111
7, 31470, Note_on_c, 2, 80, 0
7, 31472, Note_on_c, 2, 53, 0
7, 31472, Note_on_c, 2, 61, 0
7, 31472, Note_on_c, 2, 61, 107
7, 31478, Note_on_c, 2, 42, 114
7, 31478, Note_on_c, 2, 57, 124
7, 31480, Note_on_c, 2, 68, 0
7, 31674, Note_on_c, 2, 54, 114
7, 31840, Note_on_c, 2, 49, 0
7, 31852, Note_on_c, 2, 62, 122
7, 31862, Note_on_c, 2, 50, 125
7, 31872, Note_on_c, 2, 62, 0
7, 31872, Note_on_c, 2, 61, 0
7, 31876, Note_on_c, 2, 73, 0
7, 31922, Note_on_c, 2, 54, 0
7, 32056, Note_on_c, 2, 54, 125
7, 32106, Note_on_c, 2, 42, 0
7, 32120, Note_on_c, 2, 50, 0
7, 32224, Note_on_c, 2, 47, 106
7, 32230, Note_on_c, 2, 57, 0
7, 32240, Note_on_c, 2, 63, 117
7, 32244, Note_on_c, 2, 57, 114
7, 32252, Note_on_c, 2, 75, 114
7, 32254, Note_on_c, 2, 63, 0
7, 32254, Note_on_c, 2, 63, 107
7, 32440, Note_on_c, 2, 64, 118
7, 32448, Note_on_c, 2, 59, 116
7, 32600, Note_on_c, 2, 75, 0
7, 32606, Note_on_c, 2, 57, 0
7, 32628, Note_on_c, 2, 63, 0
7, 32634, Note_on_c, 2, 64, 0
7, 32638, Note_on_c, 2, 51, 71
7, 32638, Note_on_c, 2, 68, 114
7, 32644, Note_on_c, 2, 57, 120
7, 32658, Note_on_c, 2, 54, 0
7, 32826, Note_on_c, 2, 63, 120
7, 32828, Note_on_c, 2, 51, 0
7, 32830, Note_on_c, 2, 54, 124
7, 32920, Note_on_c, 2, 69, 125
7, 32936, Note_on_c, 2, 68, 0
7, 32938, Note_on_c, 2, 57, 0
7, 32952, Note_on_c, 2, 54, 0
7, 32954, Note_on_c, 2, 47, 0
7, 33008, Note_on_c, 2, 69, 0
7, 33020, Note_on_c, 2, 63, 0
7, 33024, Note_on_c, 2, 59, 0
7, 33026, Note_on_c, 2, 44, 108
7, 33382, Note_on_c, 2, 64, 118
7, 33696, Note_on_c, 2, 64, 0
7, 33742, Note_on_c, 2, 44, 0
7, 33760, Note_on_c, 2, 63, 120
7, 33762, Note_on_c, 2, 45, 111
7, 33764, Note_on_c, 2, 59, 124
7, 33970, Note_on_c, 2, 64, 114
7, 33972, Note_on_c, 2, 61, 122
7, 33984, Note_on_c, 2, 57, 104
7, 33986, Note_on_c, 2, 63, 0
7, 33990, Note_on_c, 2, 59, 0
7, 34346, Note_on_c, 2, 52, 113
7, 34390, Note_on_c, 2, 45, 0
7, 34412, Note_on_c, 2, 52, 0
7, 34516, Note_on_c, 2, 57, 0
7, 34518, Note_on_c, 2, 49, 111
7, 34518, Note_on_c, 2, 56, 60
7, 34524, Note_on_c, 2, 53, 104
7, 34530, Note_on_c, 2, 65, 115
7, 34532, Note_on_c, 2, 56, 0
7, 34534, Note_on_c, 2, 59, 118
7, 34544, Note_on_c, 2, 61, 0
7, 34546, Note_on_c, 2, 64, 0
7, 34746, Note_on_c, 2, 61, 119
7, 35048, Note_on_c, 2, 53, 0
7, 35056, Note_on_c, 2, 59, 0
7, 35114, Note_on_c, 2, 59, 118
7, 35120, Note_on_c, 2, 53, 113
7, 35122, Note_on_c, 2, 61, 0
7, 35214, Note_on_c, 2, 53, 0
7, 35220, Note_on_c, 2, 49, 0
7, 35304, Note_on_c, 2, 42, 93
7, 35304, Note_on_c, 2, 57, 122
7, 35304, Note_on_c, 2, 49, 114
7, 35310, Note_on_c, 2, 59, 0
7, 35318, Note_on_c, 2, 65, 0
7, 35500, Note_on_c, 2, 61, 123
7, 35692, Note_on_c, 2, 60, 125
7, 35696, Note_on_c, 2, 61, 0
7, 35698, Note_on_c, 2, 49, 0
7, 35698, Note_on_c, 2, 52, 115
7, 35714, Note_on_c, 2, 57, 0
7, 36036, Note_on_c, 2, 42, 0
7, 36088, Note_on_c, 2, 59, 122
7, 36092, Note_on_c, 2, 44, 106
7, 36094, Note_on_c, 2, 60, 0
7, 36176, Note_on_c, 2, 52, 0
7, 36202, Note_on_c, 2, 52, 117
7, 36290, Note_on_c, 2, 64, 122
7, 36452, Note_on_c, 2, 49, 104
7, 36458, Note_on_c, 2, 52, 0
7, 36464, Note_on_c, 2, 53, 108
7, 36468, Note_on_c, 2, 62, 116
7, 36470, Note_on_c, 2, 69, 119
7, 36480, Note_on_c, 2, 64, 0
7, 36480, Note_on_c, 2, 44, 0
7, 36668, Note_on_c, 2, 68, 120
7, 36680, Note_on_c, 2, 69, 0
7, 36718, Note_on_c, 2, 62, 0
7, 36820, Note_on_c, 2, 59, 0
7, 36828, Note_on_c, 2, 53, 0
7, 36844, Note_on_c, 2, 61, 111
7, 36846, Note_on_c, 2, 42, 71
7, 36854, Note_on_c, 2, 57, 111
7, 36858, Note_on_c, 2, 68, 0
7, 36858, Note_on_c, 2, 52, 110
7, 36868, Note_on_c, 2, 49, 0
7, 37024, Note_on_c, 2, 64, 110
7, 37096, Note_on_c, 2, 42, 0
7, 37160, Note_on_c, 2, 52, 0
7, 37176, Note_on_c, 2, 54, 18
7, 37184, Note_on_c, 2, 57, 0
7, 37198, Note_on_c, 2, 61, 0
7, 37200, Note_on_c, 2, 47, 93
7, 37230, Note_on_c, 2, 66, 103
7, 37232, Note_on_c, 2, 63, 114
7, 37232, Note_on_c, 2, 60, 115
7, 37232, Note_on_c, 2, 57, 110
7, 37246, Note_on_c, 2, 64, 0
7, 37500, Note_on_c, 2, 54, 0
7, 37510, Note_on_c, 2, 57, 0
7, 37536, Note_on_c, 2, 47, 0
7, 37544, Note_on_c, 2, 60, 0
7, 37582, Note_on_c, 2, 63, 0
7, 37614, Note_on_c, 2, 66, 0
7, 37636, Note_on_c, 2, 52, 103
7, 37640, Note_on_c, 2, 52, 0
7, 37640, Note_on_c, 2, 52, 84
7, 37646, Note_on_c, 2, 59, 98
7, 37726, Note_on_c, 2, 47, 112
7, 37798, Note_on_c, 2, 59, 0
7, 37824, Note_on_c, 2, 59, 123
7, 37828, Note_on_c, 2, 52, 0
7, 37828, Note_on_c, 2, 52, 111
7, 37894, Note_on_c, 2, 47, 0
7, 37972, Note_on_c, 2, 52, 0
7, 38006, Note_on_c, 2, 60, 124
7, 38010, Note_on_c, 2, 54, 104
7, 38012, Note_on_c, 2, 59, 0
7, 38192, Note_on_c, 2, 63, 124
7, 38204, Note_on_c, 2, 60, 0
7, 38204, Note_on_c, 2, 57, 108
7, 38372, Note_on_c, 2, 54, 0
7, 38374, Note_on_c, 2, 52, 104
7, 38380, Note_on_c, 2, 56, 93
7, 38386, Note_on_c, 2, 64, 119
7, 38388, Note_on_c, 2, 57, 0
7, 38394, Note_on_c, 2, 63, 0
7, 38552, Note_on_c, 2, 66, 120
7, 38662, Note_on_c, 2, 68, 123
7, 38664, Note_on_c, 2, 64, 0
7, 38680, Note_on_c, 2, 66, 0
7, 38686, Note_on_c, 2, 56, 0
7, 38692, Note_on_c, 2, 52, 0
7, 38718, Note_on_c, 2, 54, 84
7, 38732, Note_on_c, 2, 57, 84
7, 38736, Note_on_c, 2, 60, 111
7, 38752, Note_on_c, 2, 69, 124
7, 38760, Note_on_c, 2, 57, 0
7, 38766, Note_on_c, 2, 68, 0
7, 38872, Note_on_c, 2, 57, 108
7, 38914, Note_on_c, 2, 60, 0
7, 38968, Note_on_c, 2, 60, 115
7, 39064, Note_on_c, 2, 60, 0
7, 39072, Note_on_c, 2, 63, 120
7, 39074, Note_on_c, 2, 57, 0
7, 39082, Note_on_c, 2, 54, 0
7, 39084, Note_on_c, 2, 69, 0
7, 39192, Note_on_c, 2, 59, 116
7, 39194, Note_on_c, 2, 63, 0
7, 39194, Note_on_c, 2, 40, 113
7, 39290, Note_on_c, 2, 47, 104
7, 39370, Note_on_c, 2, 52, 116
7, 39436, Note_on_c, 2, 40, 0
7, 39440, Note_on_c, 2, 64, 119
7, 39446, Note_on_c, 2, 47, 0
7, 39544, Note_on_c, 2, 69, 125
7, 39546, Note_on_c, 2, 44, 107
7, 39824, Note_on_c, 2, 68, 110
7, 39836, Note_on_c, 2, 64, 0
7, 39840, Note_on_c, 2, 44, 0
7, 39890, Note_on_c, 2, 69, 0
7, 39928, Note_on_c, 2, 64, 116
7, 39930, Note_on_c, 2, 61, 118
7, 39934, Note_on_c, 2, 68, 0
7, 39934, Note_on_c, 2, 42, 110
7, 39942, Note_on_c, 2, 59, 0
7, 40116, Note_on_c, 2, 66, 116
7, 40132, Note_on_c, 2, 64, 0
7, 40246, Note_on_c, 2, 42, 0
7, 40270, Note_on_c, 2, 52, 0
7, 40292, Note_on_c, 2, 41, 93
7, 40302, Note_on_c, 2, 60, 112
7, 40308, Note_on_c, 2, 61, 0
7, 40308, Note_on_c, 2, 51, 116
7, 40322, Note_on_c, 2, 41, 0
7, 40322, Note_on_c, 2, 41, 116
7, 40486, Note_on_c, 2, 63, 113
7, 40494, Note_on_c, 2, 53, 116
7, 40502, Note_on_c, 2, 66, 0
7, 40660, Note_on_c, 2, 41, 0
7, 40660, Note_on_c, 2, 51, 0
7, 40662, Note_on_c, 2, 60, 0
7, 40688, Note_on_c, 2, 47, 107
7, 40692, Note_on_c, 2, 59, 122
7, 40698, Note_on_c, 2, 40, 110
7, 40700, Note_on_c, 2, 52, 98
7, 40702, Note_on_c, 2, 52, 0
7, 40702, Note_on_c, 2, 52, 114
7, 40706, Note_on_c, 2, 63, 0
7, 40714, Note_on_c, 2, 53, 0
7, 40788, Note_on_c, 2, 47, 0
7, 40822, Note_on_c, 2, 47, 113
7, 40892, Note_on_c, 2, 64, 120
7, 40900, Note_on_c, 2, 52, 0
7, 40900, Note_on_c, 2, 52, 115
7, 40920, Note_on_c, 2, 40, 0
7, 40926, Note_on_c, 2, 47, 0
7, 41040, Note_on_c, 2, 56, 18
7, 41042, Note_on_c, 2, 59, 0
7, 41070, Note_on_c, 2, 50, 110
7, 41076, Note_on_c, 2, 59, 118
7, 41076, Note_on_c, 2, 62, 125
7, 41086, Note_on_c, 2, 64, 0
7, 41092, Note_on_c, 2, 50, 0
7, 41092, Note_on_c, 2, 50, 112
7, 41098, Note_on_c, 2, 52, 0
7, 41114, Note_on_c, 2, 56, 0
7, 41178, Note_on_c, 2, 56, 122
7, 41200, Note_on_c, 2, 59, 0
7, 41270, Note_on_c, 2, 59, 120
7, 41424, Note_on_c, 2, 59, 0
7, 41452, Note_on_c, 2, 49, 118
7, 41460, Note_on_c, 2, 59, 122
7, 41462, Note_on_c, 2, 65, 117
7, 41472, Note_on_c, 2, 56, 0
7, 41472, Note_on_c, 2, 62, 0
7, 41478, Note_on_c, 2, 49, 0
7, 41478, Note_on_c, 2, 49, 118
7, 41488, Note_on_c, 2, 50, 0
7, 41652, Note_on_c, 2, 66, 125
7, 41664, Note_on_c, 2, 65, 0
7, 41838, Note_on_c, 2, 67, 122
7, 41846, Note_on_c, 2, 66, 0
7, 42038, Note_on_c, 2, 68, 125
7, 42042, Note_on_c, 2, 56, 111
7, 42048, Note_on_c, 2, 67, 0
7, 42054, Note_on_c, 2, 49, 0
7, 42054, Note_on_c, 2, 49, 114
7, 42076, Note_on_c, 2, 59, 0
7, 42128, Note_on_c, 2, 59, 111
7, 42182, Note_on_c, 2, 56, 0
7, 42220, Note_on_c, 2, 42, 114
7, 42222, Note_on_c, 2, 69, 120
7, 42224, Note_on_c, 2, 59, 0
7, 42226, Note_on_c, 2, 57, 111
7, 42226, Note_on_c, 2, 54, 113
7, 42232, Note_on_c, 2, 68, 0
7, 42238, Note_on_c, 2, 49, 0
7, 42400, Note_on_c, 2, 61, 114
7, 42438, Note_on_c, 2, 57, 0
7, 42460, Note_on_c, 2, 57, 111
7, 42482, Note_on_c, 2, 54, 0
7, 42576, Note_on_c, 2, 42, 0
7, 42576, Note_on_c, 2, 42, 96
7, 42582, Note_on_c, 2, 50, 106
7, 42594, Note_on_c, 2, 61, 0
7, 42596, Note_on_c, 2, 62, 123
7, 42596, Note_on_c, 2, 54, 106
7, 42610, Note_on_c, 2, 42, 0
7, 42610, Note_on_c, 2, 42, 84
7, 42622, Note_on_c, 2, 50, 0
7, 42694, Note_on_c, 2, 50, 113
7, 42710, Note_on_c, 2, 54, 0
7, 42792, Note_on_c, 2, 54, 124
7, 42872, Note_on_c, 2, 50, 0
7, 42894, Note_on_c, 2, 42, 0
7, 42912, Note_on_c, 2, 42, 116
7, 42958, Note_on_c, 2, 54, 0
7, 43008, Note_on_c, 2, 57, 0
7, 43008, Note_on_c, 2, 47, 107
7, 43022, Note_on_c, 2, 47, 0
7, 43022, Note_on_c, 2, 47, 101
7, 43024, Note_on_c, 2, 42, 0
7, 43024, Note_on_c, 2, 57, 101
7, 43026, Note_on_c, 2, 66, 113
7, 43032, Note_on_c, 2, 62, 0
7, 43042, Note_on_c, 2, 69, 0
7, 43174, Note_on_c, 2, 63, 122
7, 43180, Note_on_c, 2, 54, 122
7, 43182, Note_on_c, 2, 59, 113
7, 43214, Note_on_c, 2, 57, 0
7, 43262, Note_on_c, 2, 57, 115
7, 43340, Note_on_c, 2, 54, 0
7, 43376, Note_on_c, 2, 68, 123
7, 43388, Note_on_c, 2, 56, 124
7, 43390, Note_on_c, 2, 66, 0
7, 43390, Note_on_c, 2, 57, 0
7, 43568, Note_on_c, 2, 66, 117
7, 43568, Note_on_c, 2, 69, 120
7, 43568, Note_on_c, 2, 57, 120
7, 43574, Note_on_c, 2, 63, 0
7, 43576, Note_on_c, 2, 56, 0
7, 43582, Note_on_c, 2, 68, 0
7, 43728, Note_on_c, 2, 47, 0
7, 43756, Note_on_c, 2, 57, 0
7, 43762, Note_on_c, 2, 71, 119
7, 43764, Note_on_c, 2, 52, 114
7, 43778, Note_on_c, 2, 69, 0
7, 43778, Note_on_c, 2, 44, 108
7, 44134, Note_on_c, 2, 64, 118
7, 44140, Note_on_c, 2, 59, 0
7, 44150, Note_on_c, 2, 66, 0
7, 44448, Note_on_c, 2, 64, 0
7, 44494, Note_on_c, 2, 44, 0
7, 44512, Note_on_c, 2, 63, 120
7, 44514, Note_on_c, 2, 45, 111
7, 44516, Note_on_c, 2, 59, 124
7, 44520, Note_on_c, 2, 71, 0
7, 44722, Note_on_c, 2, 64, 114
7, 44724, Note_on_c, 2, 61, 122
7, 44736, Note_on_c, 2, 57, 104
7, 44738, Note_on_c, 2, 63, 0
7, 44742, Note_on_c, 2, 59, 0
7, 44992, Note_on_c, 2, 52, 0
7, 45098, Note_on_c, 2, 52, 113
7, 45142, Note_on_c, 2, 45, 0
7, 45164, Note_on_c, 2, 52, 0
7, 45268, Note_on_c, 2, 57, 0
7, 45270, Note_on_c, 2, 49, 111
7, 45270, Note_on_c, 2, 56, 60
7, 45276, Note_on_c, 2, 53, 104
7, 45282, Note_on_c, 2, 65, 115
7, 45284, Note_on_c, 2, 56, 0
7, 45286, Note_on_c, 2, 59, 118
7, 45296, Note_on_c, 2, 61, 0
7, 45298, Note_on_c, 2, 64, 0
7, 45498, Note_on_c, 2, 61, 119
7, 45800, Note_on_c, 2, 53, 0
7, 45808, Note_on_c, 2, 59, 0
7, 45866, Note_on_c, 2, 59, 118
7, 45872, Note_on_c, 2, 53, 113
7, 45874, Note_on_c, 2, 61, 0
7, 45966, Note_on_c, 2, 53, 0
7, 45972, Note_on_c, 2, 49, 0
7, 46056, Note_on_c, 2, 42, 93
7, 46056, Note_on_c, 2, 57, 122
7, 46056, Note_on_c, 2, 49, 114
7, 46062, Note_on_c, 2, 59, 0
7, 46070, Note_on_c, 2, 65, 0
7, 46252, Note_on_c, 2, 61, 123
7, 46444, Note_on_c, 2, 60, 125
7, 46448, Note_on_c, 2, 61, 0
7, 46450, Note_on_c, 2, 49, 0
7, 46450, Note_on_c, 2, 52, 115
7, 46466, Note_on_c, 2, 57, 0
7, 46788, Note_on_c, 2, 42, 0
7, 46840, Note_on_c, 2, 59, 122
7, 46844, Note_on_c, 2, 44, 106
7, 46846, Note_on_c, 2, 60, 0
7, 46928, Note_on_c, 2, 52, 0
7, 46954, Note_on_c, 2, 52, 117
7, 47042, Note_on_c, 2, 64, 122
7, 47204, Note_on_c, 2, 49, 104
7, 47210, Note_on_c, 2, 52, 0
7, 47216, Note_on_c, 2, 53, 108
7, 47220, Note_on_c, 2, 62, 116
7, 47222, Note_on_c, 2, 69, 119
7, 47232, Note_on_c, 2, 64, 0
7, 47232, Note_on_c, 2, 44, 0
7, 47420, Note_on_c, 2, 68, 120
7, 47432, Note_on_c, 2, 69, 0
7, 47470, Note_on_c, 2, 62, 0
7, 47572, Note_on_c, 2, 59, 0
7, 47580, Note_on_c, 2, 53, 0
7, 47596, Note_on_c, 2, 61, 111
7, 47598, Note_on_c, 2, 42, 71
7, 47606, Note_on_c, 2, 57, 111
7, 47610, Note_on_c, 2, 68, 0
7, 47610, Note_on_c, 2, 52, 110
7, 47620, Note_on_c, 2, 49, 0
7, 47776, Note_on_c, 2, 64, 110
7, 47848, Note_on_c, 2, 42, 0
7, 47912, Note_on_c, 2, 52, 0
7, 47928, Note_on_c, 2, 54, 18
7, 47936, Note_on_c, 2, 57, 0
7, 47950, Note_on_c, 2, 61, 0
7, 47952, Note_on_c, 2, 47, 93
7, 47982, Note_on_c, 2, 66, 103
7, 47984, Note_on_c, 2, 63, 114
7, 47984, Note_on_c, 2, 60, 115
7, 47984, Note_on_c, 2, 57, 110
7, 47998, Note_on_c, 2, 64, 0
7, 48252, Note_on_c, 2, 54, 0
7, 48262, Note_on_c, 2, 57, 0
7, 48288, Note_on_c, 2, 47, 0
7, 48296, Note_on_c, 2, 60, 0
7, 48334, Note_on_c, 2, 63, 0
7, 48366, Note_on_c, 2, 66, 0
7, 48386, Note_on_c, 2, 47, 104
7, 48388, Note_on_c, 2, 59, 116
7, 48388, Note_on_c, 2, 40, 107
7, 48390, Note_on_c, 2, 52, 107
7, 48390, Note_on_c, 2, 56, 108
7, 48396, Note_on_c, 2, 71, 108
7, 48400, Note_on_c, 2, 59, 0
7, 48400, Note_on_c, 2, 59, 114
7, 48588, Note_on_c, 2, 52, 0
7, 48660, Note_on_c, 2, 76, 118
7, 48662, Note_on_c, 2, 64, 117
7, 48666, Note_on_c, 2, 40, 0
7, 48668, Note_on_c, 2, 52, 111
7, 48672, Note_on_c, 2, 47, 0
7, 48676, Note_on_c, 2, 71, 0
7, 48750, Note_on_c, 2, 56, 0
7, 48756, Note_on_c, 2, 57, 110
7, 48762, Note_on_c, 2, 59, 0
7, 48762, Note_on_c, 2, 51, 113
7, 48762, Note_on_c, 2, 54, 104
7, 48770, Note_on_c, 2, 52, 0
7, 48770, Note_on_c, 2, 81, 106
7, 48776, Note_on_c, 2, 64, 0
7, 48778, Note_on_c, 2, 76, 0
7, 48778, Note_on_c, 2, 69, 114
7, 48852, Note_on_c, 2, 60, 120
7, 48932, Note_on_c, 2, 57, 0
7, 48956, Note_on_c, 2, 57, 111
7, 49052, Note_on_c, 2, 80, 113
7, 49056, Note_on_c, 2, 68, 114
7, 49062, Note_on_c, 2, 81, 0
7, 49068, Note_on_c, 2, 69, 0
7, 49088, Note_on_c, 2, 54, 0
7, 49120, Note_on_c, 2, 51, 0
7, 49140, Note_on_c, 2, 57, 0
7, 49140, Note_on_c, 2, 59, 119
7, 49144, Note_on_c, 2, 52, 111
7, 49146, Note_on_c, 2, 56, 114
7, 49148, Note_on_c, 2, 60, 0
7, 49164, Note_on_c, 2, 68, 0
7, 49164, Note_on_c, 2, 64, 112
7, 49164, Note_on_c, 2, 76, 113
7, 49168, Note_on_c, 2, 80, 0
7, 49490, Note_on_c, 2, 56, 0
7, 49492, Note_on_c, 2, 52, 0
7, 49496, Note_on_c, 2, 51, 98
7, 49508, Note_on_c, 2, 57, 110
7, 49512, Note_on_c, 2, 60, 120
7, 49520, Note_on_c, 2, 59, 0
7, 49616, Note_on_c, 2, 63, 126
7, 49714, Note_on_c, 2, 63, 0
7, 49716, Note_on_c, 2, 71, 117
7, 49830, Note_on_c, 2, 69, 120
7, 49858, Note_on_c, 2, 71, 0
7, 49874, Note_on_c, 2, 64, 0
7, 49874, Note_on_c, 2, 57, 0
7, 49878, Note_on_c, 2, 51, 0
7, 49894, Note_on_c, 2, 76, 0
7, 49916, Note_on_c, 2, 56, 18
7, 49922, Note_on_c, 2, 52, 106
7, 49928, Note_on_c, 2, 59, 101
7, 49928, Note_on_c, 2, 68, 124
7, 49932, Note_on_c, 2, 60, 0
7, 49942, Note_on_c, 2, 69, 0
7, 50000, Note_on_c, 2, 56, 0
7, 50034, Note_on_c, 2, 56, 116
7, 50050, Note_on_c, 2, 59, 0
7, 50076, Note_on_c, 2, 57, 93
7, 50094, Note_on_c, 2, 57, 0
7, 50102, Note_on_c, 2, 71, 127
7, 50106, Note_on_c, 2, 59, 110
7, 50126, Note_on_c, 2, 59, 0
7, 50126, Note_on_c, 2, 59, 114
7, 50196, Note_on_c, 2, 64, 113
7, 50198, Note_on_c, 2, 52, 0
7, 50200, Note_on_c, 2, 56, 0
7, 50204, Note_on_c, 2, 76, 126
7, 50206, Note_on_c, 2, 64, 0
7, 50206, Note_on_c, 2, 64, 114
7, 50214, Note_on_c, 2, 71, 0
7, 50290, Note_on_c, 2, 44, 106
7, 50290, Note_on_c, 2, 69, 120
7, 50292, Note_on_c, 2, 52, 107
7, 50300, Note_on_c, 2, 68, 0
7, 50304, Note_on_c, 2, 81, 117
7, 50308, Note_on_c, 2, 69, 0
7, 50308, Note_on_c, 2, 69, 119
7, 50310, Note_on_c, 2, 76, 0
7, 50574, Note_on_c, 2, 80, 114
7, 50574, Note_on_c, 2, 68, 118
7, 50576, Note_on_c, 2, 68, 0
7, 50576, Note_on_c, 2, 68, 118
7, 50580, Note_on_c, 2, 81, 0
7, 50588, Note_on_c, 2, 69, 0
7, 50590, Note_on_c, 2, 64, 0
7, 50598, Note_on_c, 2, 44, 0
7, 50638, Note_on_c, 2, 59, 0
7, 50672, Note_on_c, 2, 64, 115
7, 50674, Note_on_c, 2, 42, 104
7, 50680, Note_on_c, 2, 61, 113
7, 50690, Note_on_c, 2, 68, 0
7, 50692, Note_on_c, 2, 76, 120
7, 50694, Note_on_c, 2, 64, 0
7, 50694, Note_on_c, 2, 80, 0
7, 50694, Note_on_c, 2, 64, 114
7, 50866, Note_on_c, 2, 66, 113
7, 50868, Note_on_c, 2, 78, 122
7, 50874, Note_on_c, 2, 66, 0
7, 50874, Note_on_c, 2, 66, 120
7, 50880, Note_on_c, 2, 76, 0
7, 50882, Note_on_c, 2, 64, 0
7, 50912, Note_on_c, 2, 61, 0
7, 50920, Note_on_c, 2, 62, 84
7, 50936, Note_on_c, 2, 62, 0
7, 51036, Note_on_c, 2, 42, 0
7, 51050, Note_on_c, 2, 57, 122
7, 51060, Note_on_c, 2, 52, 0
7, 51060, Note_on_c, 2, 41, 117
7, 51162, Note_on_c, 2, 48, 111
7, 51256, Note_on_c, 2, 53, 122
7, 51372, Note_on_c, 2, 48, 0
7, 51390, Note_on_c, 2, 57, 0
7, 51400, Note_on_c, 2, 53, 0
7, 51408, Note_on_c, 2, 41, 0
7, 51440, Note_on_c, 2, 66, 0
7, 51440, Note_on_c, 2, 59, 119
7, 51444, Note_on_c, 2, 56, 112
7, 51446, Note_on_c, 2, 78, 0
7, 51446, Note_on_c, 2, 52, 115
7, 51448, Note_on_c, 2, 40, 115
7, 51538, Note_on_c, 2, 47, 115
7, 51552, Note_on_c, 2, 52, 0
7, 51632, Note_on_c, 2, 71, 122
7, 51636, Note_on_c, 2, 52, 120
7, 51640, Note_on_c, 2, 59, 0
7, 51640, Note_on_c, 2, 59, 120
7, 51694, Note_on_c, 2, 47, 0
7, 51696, Note_on_c, 2, 40, 0
7, 51730, Note_on_c, 2, 71, 0
7, 51730, Note_on_c, 2, 76, 116
7, 51734, Note_on_c, 2, 64, 120
7, 51794, Note_on_c, 2, 52, 0
7, 51826, Note_on_c, 2, 50, 107
7, 51830, Note_on_c, 2, 61, 125
7, 51834, Note_on_c, 2, 54, 124
7, 51836, Note_on_c, 2, 56, 0
7, 51840, Note_on_c, 2, 64, 0
7, 51840, Note_on_c, 2, 85, 122
7, 51844, Note_on_c, 2, 59, 0
7, 51848, Note_on_c, 2, 73, 120
7, 51854, Note_on_c, 2, 76, 0
7, 52038, Note_on_c, 2, 62, 122
7, 52042, Note_on_c, 2, 61, 0
7, 52104, Note_on_c, 2, 85, 0
7, 52108, Note_on_c, 2, 83, 120
7, 52112, Note_on_c, 2, 73, 0
7, 52112, Note_on_c, 2, 71, 124
7, 52198, Note_on_c, 2, 54, 0
7, 52210, Note_on_c, 2, 49, 113
7, 52214, Note_on_c, 2, 50, 0
7, 52222, Note_on_c, 2, 53, 116
7, 52224, Note_on_c, 2, 81, 119
7, 52224, Note_on_c, 2, 69, 110
7, 52228, Note_on_c, 2, 71, 0
7, 52228, Note_on_c, 2, 83, 0
7, 52398, Note_on_c, 2, 61, 124
7, 52410, Note_on_c, 2, 62, 0
7, 52576, Note_on_c, 2, 53, 0
7, 52582, Note_on_c, 2, 59, 121
7, 52588, Note_on_c, 2, 53, 116
7, 52590, Note_on_c, 2, 61, 0
7, 52762, Note_on_c, 2, 49, 0
7, 52772, Note_on_c, 2, 61, 127
7, 52786, Note_on_c, 2, 80, 116
7, 52792, Note_on_c, 2, 68, 113
7, 52794, Note_on_c, 2, 81, 0
7, 52798, Note_on_c, 2, 69, 0
7, 52882, Note_on_c, 2, 49, 114
7, 52956, Note_on_c, 2, 59, 0
7, 52972, Note_on_c, 2, 73, 111
7, 52974, Note_on_c, 2, 80, 0
7, 52976, Note_on_c, 2, 53, 0
7, 52976, Note_on_c, 2, 61, 0
7, 52976, Note_on_c, 2, 61, 107
7, 52982, Note_on_c, 2, 42, 114
7, 52982, Note_on_c, 2, 57, 124
7, 52984, Note_on_c, 2, 68, 0
7, 53178, Note_on_c, 2, 54, 114
7, 53344, Note_on_c, 2, 49, 0
7, 53356, Note_on_c, 2, 62, 122
7, 53366, Note_on_c, 2, 50, 125
7, 53376, Note_on_c, 2, 62, 0
7, 53376, Note_on_c, 2, 61, 0
7, 53380, Note_on_c, 2, 73, 0
7, 53426, Note_on_c, 2, 54, 0
7, 53560, Note_on_c, 2, 54, 125
7, 53610, Note_on_c, 2, 42, 0
7, 53624, Note_on_c, 2, 50, 0
7, 53728, Note_on_c, 2, 47, 106
7, 53734, Note_on_c, 2, 57, 0
7, 53744, Note_on_c, 2, 63, 117
7, 53748, Note_on_c, 2, 57, 114
7, 53756, Note_on_c, 2, 75, 114
7, 53758, Note_on_c, 2, 63, 0
7, 53758, Note_on_c, 2, 63, 107
7, 53944, Note_on_c, 2, 64, 118
7, 53952, Note_on_c, 2, 59, 116
7, 54104, Note_on_c, 2, 75, 0
7, 54110, Note_on_c, 2, 57, 0
7, 54132, Note_on_c, 2, 63, 0
7, 54138, Note_on_c, 2, 64, 0
7, 54142, Note_on_c, 2, 51, 71
7, 54142, Note_on_c, 2, 68, 114
7, 54148, Note_on_c, 2, 57, 120
7, 54162, Note_on_c, 2, 54, 0
7, 54330, Note_on_c, 2, 63, 120
7, 54332, Note_on_c, 2, 51, 0
7, 54334, Note_on_c, 2, 54, 124
7, 54424, Note_on_c, 2, 69, 125
7, 54440, Note_on_c, 2, 68, 0
7, 54442, Note_on_c, 2, 57, 0
7, 54456, Note_on_c, 2, 54, 0
7, 54458, Note_on_c, 2, 47, 0
7, 54512, Note_on_c, 2, 69, 0
7, 54524, Note_on_c, 2, 63, 0
7, 54528, Note_on_c, 2, 59, 0
7, 54530, Note_on_c, 2, 44, 108
7, 54886, Note_on_c, 2, 64, 118
7, 55200, Note_on_c, 2, 64, 0
7, 55246, Note_on_c, 2, 44, 0
7, 55264, Note_on_c, 2, 63, 120
7, 55266, Note_on_c, 2, 45, 111
7, 55268, Note_on_c, 2, 59, 124
7, 55474, Note_on_c, 2, 64, 114
7, 55476, Note_on_c, 2, 61, 122
7, 55488, Note_on_c, 2, 57, 104
7, 55490, Note_on_c, 2, 63, 0
7, 55494, Note_on_c, 2, 59, 0
7, 55850, Note_on_c, 2, 52, 113
7, 55894, Note_on_c, 2, 45, 0
7, 55916, Note_on_c, 2, 52, 0
7, 56020, Note_on_c, 2, 57, 0
7, 56022, Note_on_c, 2, 49, 111
7, 56022, Note_on_c, 2, 56, 60
7, 56028, Note_on_c, 2, 53, 104
7, 56034, Note_on_c, 2, 65, 115
7, 56036, Note_on_c, 2, 56, 0
7, 56038, Note_on_c, 2, 59, 118
7, 56048, Note_on_c, 2, 61, 0
7, 56050, Note_on_c, 2, 64, 0
7, 56250, Note_on_c, 2, 61, 119
7, 56552, Note_on_c, 2, 53, 0
7, 56560, Note_on_c, 2, 59, 0
7, 56618, Note_on_c, 2, 59, 118
7, 56624, Note_on_c, 2, 53, 113
7, 56626, Note_on_c, 2, 61, 0
7, 56718, Note_on_c, 2, 53, 0
7, 56724, Note_on_c, 2, 49, 0
7, 56808, Note_on_c, 2, 42, 93
7, 56808, Note_on_c, 2, 57, 122
7, 56808, Note_on_c, 2, 49, 114
7, 56814, Note_on_c, 2, 59, 0
7, 56822, Note_on_c, 2, 65, 0
7, 57004, Note_on_c, 2, 61, 123
7, 57196, Note_on_c, 2, 60, 125
7, 57200, Note_on_c, 2, 61, 0
7, 57202, Note_on_c, 2, 49, 0
7, 57202, Note_on_c, 2, 52, 115
7, 57218, Note_on_c, 2, 57, 0
7, 57540, Note_on_c, 2, 42, 0
7, 57592, Note_on_c, 2, 59, 122
7, 57596, Note_on_c, 2, 44, 106
7, 57598, Note_on_c, 2, 60, 0
7, 57680, Note_on_c, 2, 52, 0
7, 57706, Note_on_c, 2, 52, 117
7, 57794, Note_on_c, 2, 64, 122
7, 57956, Note_on_c, 2, 49, 104
7, 57962, Note_on_c, 2, 52, 0
7, 57968, Note_on_c, 2, 53, 108
7, 57972, Note_on_c, 2, 62, 116
7, 57974, Note_on_c, 2, 69, 119
7, 57984, Note_on_c, 2, 64, 0
7, 57984, Note_on_c, 2, 44, 0
7, 58172, Note_on_c, 2, 68, 120
7, 58184, Note_on_c, 2, 69, 0
7, 58222, Note_on_c, 2, 62, 0
7, 58324, Note_on_c, 2, 59, 0
7, 58332, Note_on_c, 2, 53, 0
7, 58348, Note_on_c, 2, 61, 111
7, 58350, Note_on_c, 2, 42, 71
7, 58358, Note_on_c, 2, 57, 111
7, 58362, Note_on_c, 2, 68, 0
7, 58362, Note_on_c, 2, 52, 110
7, 58372, Note_on_c, 2, 49, 0
7, 58528, Note_on_c, 2, 64, 110
7, 58600, Note_on_c, 2, 42, 0
7, 58664, Note_on_c, 2, 52, 0
7, 58680, Note_on_c, 2, 54, 18
7, 58688, Note_on_c, 2, 57, 0
7, 58702, Note_on_c, 2, 61, 0
7, 58704, Note_on_c, 2, 47, 93
7, 58734, Note_on_c, 2, 66, 103
7, 58736, Note_on_c, 2, 63, 114
7, 58736, Note_on_c, 2, 60, 115
7, 58736, Note_on_c, 2, 57, 110
7, 58750, Note_on_c, 2, 64, 0
7, 59004, Note_on_c, 2, 54, 0
7, 59014, Note_on_c, 2, 57, 0
7, 59040, Note_on_c, 2, 47, 0
7, 59048, Note_on_c, 2, 60, 0
7, 59086, Note_on_c, 2, 63, 0
7, 59118, Note_on_c, 2, 66, 0
7, 59140, Note_on_c, 2, 47, 101
7, 59140, Note_on_c, 2, 40, 93
7, 59144, Note_on_c, 2, 52, 93
7, 59166, Note_on_c, 2, 40, 0
7, 59166, Note_on_c, 2, 40, 111
7, 59348, Note_on_c, 2, 52, 0
7, 59404, Note_on_c, 2, 52, 116
7, 59416, Note_on_c, 2, 47, 0
7, 59494, Note_on_c, 2, 51, 114
7, 59494, Note_on_c, 2, 57, 122
7, 59502, Note_on_c, 2, 52, 0
7, 59596, Note_on_c, 2, 54, 118
7, 59702, Note_on_c, 2, 60, 114
7, 59818, Note_on_c, 2, 54, 0
7, 59856, Note_on_c, 2, 51, 0
7, 59878, Note_on_c, 2, 59, 98
7, 59880, Note_on_c, 2, 57, 0
7, 59884, Note_on_c, 2, 60, 0
7, 59884, Note_on_c, 2, 40, 0
7, 59884, Note_on_c, 2, 56, 60
7, 59884, Note_on_c, 2, 52, 106
7, 60056, Note_on_c, 2, 56, 0
7, 60156, Note_on_c, 2, 59, 0
7, 60278, Note_on_c, 2, 52, 0
7, 60278, End_track
8, 0, Start_track
8, 0, MIDI_port, 0
8, 0, Title_t, "Strings"
8, 0, Program_c, 4, 50
8, 0, Control_c, 4, 7, 80
8, 0, Control_c, 4, 10, 64
8, 10, Control_c, 4, 121, 0
8, 13, Control_c, 4, 91, 95
8, 8836, Note_on_c, 4, 57, 104
8, 9030, Note_on_c, 4, 61, 112
8, 9040, Note_on_c, 4, 57, 0
8, 9218, Note_on_c, 4, 60, 117
8, 9226, Note_on_c, 4, 61, 0
8, 9980, Note_on_c, 4, 60, 0
8, 9986, Note_on_c, 4, 59, 110
8, 10758, Note_on_c, 4, 59, 0
8, 10762, Note_on_c, 4, 57, 107
8, 11520, Note_on_c, 4, 64, 101
8, 11532, Note_on_c, 4, 57, 0
8, 11902, Note_on_c, 4, 62, 114
8, 11912, Note_on_c, 4, 64, 0
8, 12274, Note_on_c, 4, 61, 110
8, 12282, Note_on_c, 4, 62, 0
8, 13052, Note_on_c, 4, 66, 110
8, 13054, Note_on_c, 4, 61, 0
8, 13824, Note_on_c, 4, 65, 101
8, 13828, Note_on_c, 4, 66, 0
8, 14588, Note_on_c, 4, 65, 0
8, 14590, Note_on_c, 4, 64, 101
8, 15358, Note_on_c, 4, 63, 98
8, 15370, Note_on_c, 4, 64, 0
8, 16120, Note_on_c, 4, 63, 0
8, 16124, Note_on_c, 4, 59, 104
8, 16422, Note_on_c, 4, 64, 111
8, 16446, Note_on_c, 4, 59, 0
8, 16512, Note_on_c, 4, 69, 104
8, 16522, Note_on_c, 4, 64, 0
8, 16788, Note_on_c, 4, 68, 104
8, 16802, Note_on_c, 4, 69, 0
8, 16900, Note_on_c, 4, 64, 111
8, 16904, Note_on_c, 4, 68, 0
8, 17450, Note_on_c, 4, 64, 0
8, 17860, Note_on_c, 4, 59, 122
8, 17948, Note_on_c, 4, 64, 114
8, 17966, Note_on_c, 4, 59, 0
8, 18044, Note_on_c, 4, 69, 93
8, 18058, Note_on_c, 4, 64, 0
8, 18332, Note_on_c, 4, 68, 104
8, 18342, Note_on_c, 4, 69, 0
8, 18442, Note_on_c, 4, 64, 112
8, 18444, Note_on_c, 4, 68, 0
8, 18630, Note_on_c, 4, 66, 104
8, 18640, Note_on_c, 4, 64, 0
8, 18926, Note_on_c, 4, 66, 0
8, 19384, Note_on_c, 4, 59, 115
8, 19486, Note_on_c, 4, 64, 115
8, 19494, Note_on_c, 4, 59, 0
8, 19588, Note_on_c, 4, 73, 96
8, 19596, Note_on_c, 4, 64, 0
8, 19864, Note_on_c, 4, 71, 116
8, 19868, Note_on_c, 4, 73, 0
8, 19976, Note_on_c, 4, 69, 110
8, 19980, Note_on_c, 4, 71, 0
8, 20550, Note_on_c, 4, 68, 103
8, 20560, Note_on_c, 4, 69, 0
8, 20726, Note_on_c, 4, 68, 0
8, 20726, Note_on_c, 4, 61, 111
8, 21112, Note_on_c, 4, 62, 113
8, 21120, Note_on_c, 4, 61, 0
8, 21490, Note_on_c, 4, 63, 106
8, 21496, Note_on_c, 4, 62, 0
8, 21874, Note_on_c, 4, 63, 0
8, 21878, Note_on_c, 4, 56, 116
8, 21878, Note_on_c, 4, 68, 116
8, 22070, Note_on_c, 4, 69, 107
8, 22076, Note_on_c, 4, 68, 0
8, 22078, Note_on_c, 4, 57, 117
8, 22084, Note_on_c, 4, 56, 0
8, 22268, Note_on_c, 4, 71, 120
8, 22270, Note_on_c, 4, 59, 114
8, 22272, Note_on_c, 4, 57, 0
8, 22276, Note_on_c, 4, 69, 0
8, 22646, Note_on_c, 4, 64, 119
8, 22656, Note_on_c, 4, 59, 0
8, 22662, Note_on_c, 4, 71, 0
8, 22854, Note_on_c, 4, 59, 116
8, 23014, Note_on_c, 4, 59, 0
8, 23040, Note_on_c, 4, 75, 118
8, 23044, Note_on_c, 4, 59, 115
8, 23052, Note_on_c, 4, 64, 0
8, 23234, Note_on_c, 4, 73, 116
8, 23236, Note_on_c, 4, 57, 112
8, 23244, Note_on_c, 4, 59, 0
8, 23246, Note_on_c, 4, 75, 0
8, 23590, Note_on_c, 4, 57, 0
8, 23622, Note_on_c, 4, 61, 106
8, 23626, Note_on_c, 4, 57, 107
8, 23638, Note_on_c, 4, 73, 0
8, 23774, Note_on_c, 4, 57, 0
8, 23814, Note_on_c, 4, 73, 114
8, 23816, Note_on_c, 4, 57, 117
8, 23822, Note_on_c, 4, 61, 0
8, 24012, Note_on_c, 4, 71, 111
8, 24012, Note_on_c, 4, 56, 116
8, 24020, Note_on_c, 4, 57, 0
8, 24022, Note_on_c, 4, 73, 0
8, 24386, Note_on_c, 4, 73, 108
8, 24388, Note_on_c, 4, 56, 0
8, 24388, Note_on_c, 4, 59, 106
8, 24398, Note_on_c, 4, 71, 0
8, 24558, Note_on_c, 4, 69, 108
8, 24560, Note_on_c, 4, 61, 108
8, 24564, Note_on_c, 4, 73, 0
8, 24570, Note_on_c, 4, 59, 0
8, 24970, Note_on_c, 4, 60, 104
8, 24978, Note_on_c, 4, 61, 0
8, 25260, Note_on_c, 4, 60, 0
8, 25326, Note_on_c, 4, 69, 0
8, 25344, Note_on_c, 4, 59, 107
8, 25528, Note_on_c, 4, 64, 104
8, 25546, Note_on_c, 4, 59, 0
8, 25718, Note_on_c, 4, 64, 0
8, 25720, Note_on_c, 4, 69, 104
8, 25924, Note_on_c, 4, 68, 101
8, 25934, Note_on_c, 4, 69, 0
8, 26110, Note_on_c, 4, 68, 0
8, 26114, Note_on_c, 4, 64, 98
8, 26504, Note_on_c, 4, 66, 103
8, 26508, Note_on_c, 4, 64, 0
8, 26862, Note_on_c, 4, 66, 0
8, 27068, Note_on_c, 4, 71, 119
8, 27074, Note_on_c, 4, 59, 116
8, 27170, Note_on_c, 4, 76, 119
8, 27170, Note_on_c, 4, 64, 120
8, 27190, Note_on_c, 4, 71, 0
8, 27196, Note_on_c, 4, 59, 0
8, 27262, Note_on_c, 4, 81, 119
8, 27266, Note_on_c, 4, 64, 0
8, 27266, Note_on_c, 4, 69, 122
8, 27268, Note_on_c, 4, 76, 0
8, 27546, Note_on_c, 4, 80, 98
8, 27548, Note_on_c, 4, 68, 112
8, 27556, Note_on_c, 4, 81, 0
8, 27558, Note_on_c, 4, 69, 0
8, 27650, Note_on_c, 4, 64, 111
8, 27650, Note_on_c, 4, 76, 114
8, 27652, Note_on_c, 4, 68, 0
8, 27658, Note_on_c, 4, 80, 0
8, 28402, Note_on_c, 4, 64, 0
8, 28406, Note_on_c, 4, 76, 0
8, 28594, Note_on_c, 4, 71, 122
8, 28600, Note_on_c, 4, 59, 116
8, 28696, Note_on_c, 4, 76, 120
8, 28700, Note_on_c, 4, 64, 116
8, 28718, Note_on_c, 4, 59, 0
8, 28728, Note_on_c, 4, 71, 0
8, 28798, Note_on_c, 4, 81, 119
8, 28802, Note_on_c, 4, 64, 0
8, 28804, Note_on_c, 4, 69, 122
8, 28806, Note_on_c, 4, 76, 0
8, 29080, Note_on_c, 4, 80, 111
8, 29082, Note_on_c, 4, 69, 0
8, 29082, Note_on_c, 4, 68, 112
8, 29086, Note_on_c, 4, 81, 0
8, 29188, Note_on_c, 4, 76, 117
8, 29188, Note_on_c, 4, 64, 118
8, 29192, Note_on_c, 4, 68, 0
8, 29192, Note_on_c, 4, 80, 0
8, 29364, Note_on_c, 4, 66, 113
8, 29364, Note_on_c, 4, 78, 126
8, 29374, Note_on_c, 4, 64, 0
8, 29376, Note_on_c, 4, 76, 0
8, 29940, Note_on_c, 4, 78, 0
8, 29950, Note_on_c, 4, 66, 0
8, 30124, Note_on_c, 4, 71, 115
8, 30126, Note_on_c, 4, 59, 120
8, 30230, Note_on_c, 4, 76, 116
8, 30232, Note_on_c, 4, 64, 114
8, 30236, Note_on_c, 4, 71, 0
8, 30246, Note_on_c, 4, 59, 0
8, 30342, Note_on_c, 4, 85, 116
8, 30346, Note_on_c, 4, 64, 0
8, 30348, Note_on_c, 4, 76, 0
8, 30348, Note_on_c, 4, 73, 118
8, 30608, Note_on_c, 4, 83, 104
8, 30614, Note_on_c, 4, 85, 0
8, 30618, Note_on_c, 4, 71, 116
8, 30624, Note_on_c, 4, 73, 0
8, 30718, Note_on_c, 4, 81, 111
8, 30718, Note_on_c, 4, 69, 118
8, 30722, Note_on_c, 4, 83, 0
8, 30730, Note_on_c, 4, 71, 0
8, 31282, Note_on_c, 4, 80, 108
8, 31288, Note_on_c, 4, 68, 114
8, 31292, Note_on_c, 4, 69, 0
8, 31294, Note_on_c, 4, 81, 0
8, 31482, Note_on_c, 4, 78, 104
8, 31484, Note_on_c, 4, 66, 111
8, 31488, Note_on_c, 4, 80, 0
8, 31494, Note_on_c, 4, 68, 0
8, 32272, Note_on_c, 4, 78, 0
8, 32636, Note_on_c, 4, 66, 0
8, 32640, Note_on_c, 4, 68, 115
8, 32832, Note_on_c, 4, 68, 0
8, 32832, Note_on_c, 4, 69, 115
8, 33024, Note_on_c, 4, 69, 0
8, 33024, Note_on_c, 4, 71, 115
8, 33398, Note_on_c, 4, 64, 119
8, 33456, Note_on_c, 4, 71, 0
8, 33606, Note_on_c, 4, 59, 116
8, 33766, Note_on_c, 4, 59, 0
8, 33792, Note_on_c, 4, 75, 118
8, 33796, Note_on_c, 4, 59, 115
8, 33804, Note_on_c, 4, 64, 0
8, 33986, Note_on_c, 4, 73, 116
8, 33988, Note_on_c, 4, 57, 112
8, 33996, Note_on_c, 4, 59, 0
8, 33998, Note_on_c, 4, 75, 0
8, 34342, Note_on_c, 4, 57, 0
8, 34374, Note_on_c, 4, 61, 106
8, 34378, Note_on_c, 4, 57, 107
8, 34390, Note_on_c, 4, 73, 0
8, 34526, Note_on_c, 4, 57, 0
8, 34566, Note_on_c, 4, 73, 114
8, 34568, Note_on_c, 4, 57, 117
8, 34574, Note_on_c, 4, 61, 0
8, 34764, Note_on_c, 4, 71, 111
8, 34764, Note_on_c, 4, 56, 116
8, 34772, Note_on_c, 4, 57, 0
8, 34774, Note_on_c, 4, 73, 0
8, 35138, Note_on_c, 4, 73, 108
8, 35140, Note_on_c, 4, 56, 0
8, 35140, Note_on_c, 4, 59, 106
8, 35150, Note_on_c, 4, 71, 0
8, 35310, Note_on_c, 4, 69, 108
8, 35312, Note_on_c, 4, 61, 108
8, 35316, Note_on_c, 4, 73, 0
8, 35322, Note_on_c, 4, 59, 0
8, 35722, Note_on_c, 4, 60, 104
8, 35730, Note_on_c, 4, 61, 0
8, 36012, Note_on_c, 4, 60, 0
8, 36078, Note_on_c, 4, 69, 0
8, 36096, Note_on_c, 4, 59, 107
8, 36280, Note_on_c, 4, 64, 104
8, 36298, Note_on_c, 4, 59, 0
8, 36470, Note_on_c, 4, 64, 0
8, 36472, Note_on_c, 4, 69, 104
8, 36676, Note_on_c, 4, 68, 101
8, 36686, Note_on_c, 4, 69, 0
8, 36862, Note_on_c, 4, 68, 0
8, 36866, Note_on_c, 4, 64, 98
8, 37256, Note_on_c, 4, 66, 103
8, 37260, Note_on_c, 4, 64, 0
8, 37614, Note_on_c, 4, 66, 0
8, 37926, Note_on_c, 4, 64, 111
8, 38016, Note_on_c, 4, 69, 104
8, 38026, Note_on_c, 4, 64, 0
8, 38292, Note_on_c, 4, 68, 104
8, 38306, Note_on_c, 4, 69, 0
8, 38404, Note_on_c, 4, 64, 111
8, 38408, Note_on_c, 4, 68, 0
8, 38954, Note_on_c, 4, 64, 0
8, 39364, Note_on_c, 4, 59, 122
8, 39452, Note_on_c, 4, 64, 114
8, 39470, Note_on_c, 4, 59, 0
8, 39548, Note_on_c, 4, 69, 93
8, 39562, Note_on_c, 4, 64, 0
8, 39836, Note_on_c, 4, 68, 104
8, 39846, Note_on_c, 4, 69, 0
8, 39946, Note_on_c, 4, 64, 112
8, 39948, Note_on_c, 4, 68, 0
8, 40134, Note_on_c, 4, 66, 104
8, 40144, Note_on_c, 4, 64, 0
8, 40430, Note_on_c, 4, 66, 0
8, 40888, Note_on_c, 4, 59, 115
8, 40990, Note_on_c, 4, 64, 115
8, 40998, Note_on_c, 4, 59, 0
8, 41092, Note_on_c, 4, 73, 96
8, 41100, Note_on_c, 4, 64, 0
8, 41368, Note_on_c, 4, 71, 116
8, 41372, Note_on_c, 4, 73, 0
8, 41480, Note_on_c, 4, 69, 110
8, 41484, Note_on_c, 4, 71, 0
8, 42054, Note_on_c, 4, 68, 103
8, 42064, Note_on_c, 4, 69, 0
8, 42230, Note_on_c, 4, 68, 0
8, 42230, Note_on_c, 4, 61, 111
8, 42616, Note_on_c, 4, 62, 113
8, 42624, Note_on_c, 4, 61, 0
8, 42994, Note_on_c, 4, 63, 106
8, 43000, Note_on_c, 4, 62, 0
8, 43378, Note_on_c, 4, 63, 0
8, 43382, Note_on_c, 4, 56, 116
8, 43382, Note_on_c, 4, 68, 116
8, 43574, Note_on_c, 4, 69, 107
8, 43580, Note_on_c, 4, 68, 0
8, 43582, Note_on_c, 4, 57, 117
8, 43588, Note_on_c, 4, 56, 0
8, 43772, Note_on_c, 4, 71, 120
8, 43774, Note_on_c, 4, 59, 114
8, 43776, Note_on_c, 4, 57, 0
8, 43780, Note_on_c, 4, 69, 0
8, 44150, Note_on_c, 4, 64, 119
8, 44160, Note_on_c, 4, 59, 0
8, 44166, Note_on_c, 4, 71, 0
8, 44358, Note_on_c, 4, 59, 116
8, 44518, Note_on_c, 4, 59, 0
8, 44544, Note_on_c, 4, 75, 118
8, 44548, Note_on_c, 4, 59, 115
8, 44556, Note_on_c, 4, 64, 0
8, 44738, Note_on_c, 4, 73, 116
8, 44740, Note_on_c, 4, 57, 112
8, 44748, Note_on_c, 4, 59, 0
8, 44750, Note_on_c, 4, 75, 0
8, 45094, Note_on_c, 4, 57, 0
8, 45126, Note_on_c, 4, 61, 106
8, 45130, Note_on_c, 4, 57, 107
8, 45142, Note_on_c, 4, 73, 0
8, 45278, Note_on_c, 4, 57, 0
8, 45318, Note_on_c, 4, 73, 114
8, 45320, Note_on_c, 4, 57, 117
8, 45326, Note_on_c, 4, 61, 0
8, 45516, Note_on_c, 4, 71, 111
8, 45516, Note_on_c, 4, 56, 116
8, 45524, Note_on_c, 4, 57, 0
8, 45526, Note_on_c, 4, 73, 0
8, 45890, Note_on_c, 4, 73, 108
8, 45892, Note_on_c, 4, 56, 0
8, 45892, Note_on_c, 4, 59, 106
8, 45902, Note_on_c, 4, 71, 0
8, 46062, Note_on_c, 4, 69, 108
8, 46064, Note_on_c, 4, 61, 108
8, 46068, Note_on_c, 4, 73, 0
8, 46074, Note_on_c, 4, 59, 0
8, 46474, Note_on_c, 4, 60, 104
8, 46482, Note_on_c, 4, 61, 0
8, 46764, Note_on_c, 4, 60, 0
8, 46830, Note_on_c, 4, 69, 0
8, 46848, Note_on_c, 4, 59, 107
8, 47032, Note_on_c, 4, 64, 104
8, 47050, Note_on_c, 4, 59, 0
8, 47222, Note_on_c, 4, 64, 0
8, 47224, Note_on_c, 4, 69, 104
8, 47428, Note_on_c, 4, 68, 101
8, 47438, Note_on_c, 4, 69, 0
8, 47614, Note_on_c, 4, 68, 0
8, 47618, Note_on_c, 4, 64, 98
8, 48008, Note_on_c, 4, 66, 103
8, 48012, Note_on_c, 4, 64, 0
8, 48366, Note_on_c, 4, 66, 0
8, 48572, Note_on_c, 4, 71, 119
8, 48578, Note_on_c, 4, 59, 116
8, 48674, Note_on_c, 4, 76, 119
8, 48674, Note_on_c, 4, 64, 120
8, 48694, Note_on_c, 4, 71, 0
8, 48700, Note_on_c, 4, 59, 0
8, 48766, Note_on_c, 4, 81, 119
8, 48770, Note_on_c, 4, 64, 0
8, 48770, Note_on_c, 4, 69, 122
8, 48772, Note_on_c, 4, 76, 0
8, 49050, Note_on_c, 4, 80, 98
8, 49052, Note_on_c, 4, 68, 112
8, 49060, Note_on_c, 4, 81, 0
8, 49062, Note_on_c, 4, 69, 0
8, 49154, Note_on_c, 4, 64, 111
8, 49154, Note_on_c, 4, 76, 114
8, 49156, Note_on_c, 4, 68, 0
8, 49162, Note_on_c, 4, 80, 0
8, 49906, Note_on_c, 4, 64, 0
8, 49910, Note_on_c, 4, 76, 0
8, 50098, Note_on_c, 4, 71, 122
8, 50104, Note_on_c, 4, 59, 116
8, 50200, Note_on_c, 4, 76, 120
8, 50204, Note_on_c, 4, 64, 116
8, 50222, Note_on_c, 4, 59, 0
8, 50232, Note_on_c, 4, 71, 0
8, 50302, Note_on_c, 4, 81, 119
8, 50306, Note_on_c, 4, 64, 0
8, 50308, Note_on_c, 4, 69, 122
8, 50310, Note_on_c, 4, 76, 0
8, 50584, Note_on_c, 4, 80, 111
8, 50586, Note_on_c, 4, 69, 0
8, 50586, Note_on_c, 4, 68, 112
8, 50590, Note_on_c, 4, 81, 0
8, 50692, Note_on_c, 4, 76, 117
8, 50692, Note_on_c, 4, 64, 118
8, 50696, Note_on_c, 4, 68, 0
8, 50696, Note_on_c, 4, 80, 0
8, 50868, Note_on_c, 4, 66, 113
8, 50868, Note_on_c, 4, 78, 126
8, 50878, Note_on_c, 4, 64, 0
8, 50880, Note_on_c, 4, 76, 0
8, 51444, Note_on_c, 4, 78, 0
8, 51454, Note_on_c, 4, 66, 0
8, 51628, Note_on_c, 4, 71, 115
8, 51630, Note_on_c, 4, 59, 120
8, 51734, Note_on_c, 4, 76, 116
8, 51736, Note_on_c, 4, 64, 114
8, 51740, Note_on_c, 4, 71, 0
8, 51750, Note_on_c, 4, 59, 0
8, 51846, Note_on_c, 4, 85, 116
8, 51850, Note_on_c, 4, 64, 0
8, 51852, Note_on_c, 4, 76, 0
8, 51852, Note_on_c, 4, 73, 118
8, 52112, Note_on_c, 4, 83, 104
8, 52118, Note_on_c, 4, 85, 0
8, 52122, Note_on_c, 4, 71, 116
8, 52128, Note_on_c, 4, 73, 0
8, 52222, Note_on_c, 4, 81, 111
8, 52222, Note_on_c, 4, 69, 118
8, 52226, Note_on_c, 4, 83, 0
8, 52234, Note_on_c, 4, 71, 0
8, 52786, Note_on_c, 4, 80, 108
8, 52792, Note_on_c, 4, 68, 114
8, 52796, Note_on_c, 4, 69, 0
8, 52798, Note_on_c, 4, 81, 0
8, 52986, Note_on_c, 4, 78, 104
8, 52988, Note_on_c, 4, 66, 111
8, 52992, Note_on_c, 4, 80, 0
8, 52998, Note_on_c, 4, 68, 0
8, 53776, Note_on_c, 4, 78, 0
8, 53782, Note_on_c, 4, 66, 0
8, 54902, Note_on_c, 4, 64, 119
8, 55110, Note_on_c, 4, 59, 116
8, 55270, Note_on_c, 4, 59, 0
8, 55296, Note_on_c, 4, 75, 118
8, 55300, Note_on_c, 4, 59, 115
8, 55308, Note_on_c, 4, 64, 0
8, 55490, Note_on_c, 4, 73, 116
8, 55492, Note_on_c, 4, 57, 112
8, 55500, Note_on_c, 4, 59, 0
8, 55502, Note_on_c, 4, 75, 0
8, 55846, Note_on_c, 4, 57, 0
8, 55878, Note_on_c, 4, 61, 106
8, 55882, Note_on_c, 4, 57, 107
8, 55894, Note_on_c, 4, 73, 0
8, 56030, Note_on_c, 4, 57, 0
8, 56070, Note_on_c, 4, 73, 114
8, 56072, Note_on_c, 4, 57, 117
8, 56078, Note_on_c, 4, 61, 0
8, 56268, Note_on_c, 4, 71, 111
8, 56268, Note_on_c, 4, 56, 116
8, 56276, Note_on_c, 4, 57, 0
8, 56278, Note_on_c, 4, 73, 0
8, 56642, Note_on_c, 4, 73, 108
8, 56644, Note_on_c, 4, 56, 0
8, 56644, Note_on_c, 4, 59, 106
8, 56654, Note_on_c, 4, 71, 0
8, 56814, Note_on_c, 4, 69, 108
8, 56816, Note_on_c, 4, 61, 108
8, 56820, Note_on_c, 4, 73, 0
8, 56826, Note_on_c, 4, 59, 0
8, 57226, Note_on_c, 4, 60, 104
8, 57234, Note_on_c, 4, 61, 0
8, 57516, Note_on_c, 4, 60, 0
8, 57582, Note_on_c, 4, 69, 0
8, 57600, Note_on_c, 4, 59, 107
8, 57784, Note_on_c, 4, 64, 104
8, 57802, Note_on_c, 4, 59, 0
8, 57974, Note_on_c, 4, 64, 0
8, 57976, Note_on_c, 4, 69, 104
8, 58180, Note_on_c, 4, 68, 101
8, 58190, Note_on_c, 4, 69, 0
8, 58366, Note_on_c, 4, 68, 0
8, 58370, Note_on_c, 4, 64, 98
8, 58760, Note_on_c, 4, 66, 103
8, 58764, Note_on_c, 4, 64, 0
8, 59118, Note_on_c, 4, 66, 0
8, 59136, Note_on_c, 4, 64, 103
8, 59904, Note_on_c, 4, 64, 0
8, 59904, End_track
9, 0, Start_track
9, 0, MIDI_port, 0
9, 0, Title_t, "Trumpet"
9, 0, Program_c, 5, 56
9, 0, Control_c, 5, 7, 100
9, 14, Control_c, 5, 121, 0
9, 15, Control_c, 5, 91, 80
9, 1012, Note_on_c, 5, 64, 101
9, 1032, Note_on_c, 5, 66, 106
9, 1036, Note_on_c, 5, 64, 0
9, 1060, Note_on_c, 5, 66, 0
9, 1060, Note_on_c, 5, 68, 98
9, 1076, Note_on_c, 5, 68, 0
9, 1080, Note_on_c, 5, 69, 111
9, 1102, Note_on_c, 5, 69, 0
9, 1104, Note_on_c, 5, 71, 116
9, 1120, Note_on_c, 5, 73, 111
9, 1126, Note_on_c, 5, 71, 0
9, 1130, Note_on_c, 5, 75, 111
9, 1146, Note_on_c, 5, 75, 0
9, 1148, Note_on_c, 5, 74, 103
9, 1148, Note_on_c, 5, 76, 103
9, 1154, Note_on_c, 5, 73, 0
9, 1156, Note_on_c, 5, 76, 0
9, 1158, Note_on_c, 5, 74, 0
9, 1160, Note_on_c, 5, 76, 121
9, 1268, Control_c, 5, 1, 1
9, 1272, Control_c, 5, 1, 4
9, 1276, Control_c, 5, 1, 6
9, 1280, Control_c, 5, 1, 8
9, 1284, Control_c, 5, 1, 11
9, 1288, Control_c, 5, 1, 13
9, 1292, Control_c, 5, 1, 15
9, 1296, Control_c, 5, 1, 17
9, 1300, Control_c, 5, 1, 20
9, 1304, Control_c, 5, 1, 22
9, 1308, Control_c, 5, 1, 25
9, 1312, Control_c, 5, 1, 27
9, 1316, Control_c, 5, 1, 30
9, 1320, Control_c, 5, 1, 32
9, 1324, Control_c, 5, 1, 35
9, 1328, Control_c, 5, 1, 37
9, 1332, Control_c, 5, 1, 39
9, 1336, Control_c, 5, 1, 40
9, 1340, Control_c, 5, 1, 42
9, 1344, Control_c, 5, 1, 44
9, 1348, Control_c, 5, 1, 46
9, 1352, Control_c, 5, 1, 47
9, 1360, Control_c, 5, 1, 51
9, 1364, Control_c, 5, 1, 52
9, 1372, Control_c, 5, 1, 54
9, 1376, Control_c, 5, 1, 55
9, 1392, Control_c, 5, 1, 54
9, 1400, Control_c, 5, 1, 53
9, 1404, Control_c, 5, 1, 52
9, 1412, Control_c, 5, 1, 50
9, 1418, Control_c, 5, 1, 49
9, 1424, Control_c, 5, 1, 46
9, 1428, Control_c, 5, 1, 44
9, 1434, Control_c, 5, 1, 42
9, 1438, Control_c, 5, 1, 39
9, 1442, Control_c, 5, 1, 35
9, 1442, Note_on_c, 5, 72, 115
9, 1446, Control_c, 5, 1, 32
9, 1450, Note_on_c, 5, 76, 0
9, 1450, Control_c, 5, 1, 28
9, 1454, Control_c, 5, 1, 25
9, 1458, Control_c, 5, 1, 21
9, 1462, Control_c, 5, 1, 17
9, 1466, Control_c, 5, 1, 13
9, 1470, Control_c, 5, 1, 8
9, 1474, Control_c, 5, 1, 3
9, 1478, Control_c, 5, 1, 0
9, 1530, Note_on_c, 5, 72, 0
9, 1548, Note_on_c, 5, 71, 118
9, 1800, Control_c, 5, 1, 1
9, 1804, Control_c, 5, 1, 3
9, 1808, Control_c, 5, 1, 5
9, 1812, Control_c, 5, 1, 6
9, 1820, Control_c, 5, 1, 9
9, 1824, Control_c, 5, 1, 11
9, 1832, Control_c, 5, 1, 13
9, 1836, Control_c, 5, 1, 14
9, 1848, Control_c, 5, 1, 15
9, 1926, Note_on_c, 5, 71, 0
9, 2066, Control_c, 5, 1, 11
9, 2070, Control_c, 5, 1, 10
9, 2074, Control_c, 5, 1, 8
9, 2078, Control_c, 5, 1, 6
9, 2082, Control_c, 5, 1, 4
9, 2086, Control_c, 5, 1, 0
9, 2560, Note_on_c, 5, 68, 121
9, 2578, Note_on_c, 5, 68, 0
9, 2602, Note_on_c, 5, 69, 122
9, 2626, Note_on_c, 5, 69, 0
9, 2636, Note_on_c, 5, 73, 127
9, 2650, Note_on_c, 5, 73, 0
9, 2670, Note_on_c, 5, 76, 120
9, 2690, Note_on_c, 5, 76, 0
9, 2704, Note_on_c, 5, 80, 127
9, 2964, Note_on_c, 5, 78, 121
9, 2970, Note_on_c, 5, 80, 0
9, 3020, Note_on_c, 5, 78, 0
9, 3026, Note_on_c, 5, 80, 114
9, 3064, Note_on_c, 5, 80, 0
9, 3078, Note_on_c, 5, 76, 124
9, 3178, Note_on_c, 5, 72, 124
9, 3180, Note_on_c, 5, 76, 0
9, 3266, Note_on_c, 5, 71, 119
9, 3268, Note_on_c, 5, 72, 0
9, 3366, Note_on_c, 5, 69, 110
9, 3370, Note_on_c, 5, 71, 0
9, 3460, Note_on_c, 5, 68, 113
9, 3524, Note_on_c, 5, 69, 0
9, 3658, Note_on_c, 5, 68, 0
9, 3660, Note_on_c, 5, 67, 113
9, 3830, Note_on_c, 5, 67, 0
9, 4848, Note_on_c, 5, 59, 124
9, 4882, Note_on_c, 5, 59, 0
9, 4896, Note_on_c, 5, 64, 107
9, 4928, Note_on_c, 5, 64, 0
9, 4944, Note_on_c, 5, 68, 124
9, 4986, Note_on_c, 5, 68, 0
9, 5002, Note_on_c, 5, 69, 126
9, 5046, Note_on_c, 5, 69, 0
9, 5082, Note_on_c, 5, 69, 126
9, 5132, Note_on_c, 5, 69, 0
9, 5176, Note_on_c, 5, 69, 127
9, 5290, Note_on_c, 5, 69, 0
9, 5290, Note_on_c, 5, 68, 112
9, 5372, Note_on_c, 5, 68, 0
9, 5372, Note_on_c, 5, 71, 111
9, 5666, Control_c, 5, 1, 1
9, 5670, Control_c, 5, 1, 4
9, 5674, Control_c, 5, 1, 7
9, 5678, Control_c, 5, 1, 9
9, 5682, Control_c, 5, 1, 11
9, 5688, Control_c, 5, 1, 13
9, 5692, Control_c, 5, 1, 15
9, 5696, Control_c, 5, 1, 17
9, 5706, Control_c, 5, 1, 20
9, 5710, Control_c, 5, 1, 21
9, 5718, Control_c, 5, 1, 23
9, 5722, Control_c, 5, 1, 24
9, 5728, Control_c, 5, 1, 25
9, 5740, Control_c, 5, 1, 26
9, 5750, Control_c, 5, 1, 27
9, 5762, Note_on_c, 5, 71, 0
9, 5762, Control_c, 5, 1, 28
9, 5772, Control_c, 5, 1, 29
9, 5802, Control_c, 5, 1, 28
9, 5830, Control_c, 5, 1, 18
9, 5834, Control_c, 5, 1, 13
9, 5838, Control_c, 5, 1, 7
9, 5842, Control_c, 5, 1, 0
9, 6376, Note_on_c, 5, 57, 101
9, 6404, Note_on_c, 5, 61, 103
9, 6416, Note_on_c, 5, 57, 0
9, 6422, Note_on_c, 5, 64, 110
9, 6438, Note_on_c, 5, 61, 0
9, 6446, Note_on_c, 5, 68, 119
9, 6454, Note_on_c, 5, 64, 0
9, 6482, Note_on_c, 5, 68, 0
9, 6530, Note_on_c, 5, 69, 127
9, 6582, Note_on_c, 5, 69, 0
9, 6608, Note_on_c, 5, 72, 126
9, 6650, Note_on_c, 5, 72, 0
9, 6676, Note_on_c, 5, 74, 120
9, 6714, Note_on_c, 5, 74, 0
9, 6746, Note_on_c, 5, 72, 127
9, 6848, Note_on_c, 5, 72, 0
9, 6850, Note_on_c, 5, 69, 111
9, 6906, Note_on_c, 5, 69, 0
9, 6912, Note_on_c, 5, 71, 104
9, 6940, Note_on_c, 5, 69, 107
9, 6954, Note_on_c, 5, 71, 0
9, 6962, Note_on_c, 5, 68, 118
9, 6970, Note_on_c, 5, 69, 0
9, 7256, Note_on_c, 5, 68, 0
9, 8694, Note_on_c, 5, 57, 126
9, 8728, Note_on_c, 5, 57, 0
9, 8740, Note_on_c, 5, 61, 107
9, 8772, Note_on_c, 5, 61, 0
9, 8792, Note_on_c, 5, 64, 107
9, 8830, Note_on_c, 5, 64, 0
9, 8842, Note_on_c, 5, 68, 127
9, 8888, Note_on_c, 5, 68, 0
9, 8926, Note_on_c, 5, 71, 121
9, 8966, Note_on_c, 5, 71, 0
9, 9018, Note_on_c, 5, 71, 127
9, 9070, Note_on_c, 5, 71, 0
9, 9076, Note_on_c, 5, 70, 118
9, 9104, Note_on_c, 5, 70, 0
9, 9118, Note_on_c, 5, 69, 112
9, 9156, Note_on_c, 5, 69, 0
9, 9166, Note_on_c, 5, 68, 106
9, 9194, Note_on_c, 5, 68, 0
9, 9224, Note_on_c, 5, 69, 120
9, 9392, Note_on_c, 5, 69, 0
9, 9452, Note_on_c, 5, 69, 96
9, 9468, Note_on_c, 5, 72, 103
9, 9476, Note_on_c, 5, 69, 0
9, 9494, Note_on_c, 5, 76, 98
9, 9506, Note_on_c, 5, 72, 0
9, 9516, Note_on_c, 5, 76, 0
9, 9548, Note_on_c, 5, 80, 115
9, 9580, Note_on_c, 5, 80, 0
9, 9610, Note_on_c, 5, 79, 119
9, 9640, Note_on_c, 5, 79, 0
9, 9662, Note_on_c, 5, 78, 116
9, 9686, Note_on_c, 5, 78, 0
9, 9712, Note_on_c, 5, 76, 122
9, 9734, Note_on_c, 5, 76, 0
9, 9770, Note_on_c, 5, 72, 101
9, 9796, Note_on_c, 5, 72, 0
9, 9822, Note_on_c, 5, 71, 101
9, 9856, Note_on_c, 5, 71, 0
9, 9878, Note_on_c, 5, 69, 84
9, 9896, Note_on_c, 5, 69, 0
9, 9910, Note_on_c, 5, 69, 96
9, 9934, Note_on_c, 5, 69, 0
9, 9968, Note_on_c, 5, 68, 104
9, 10124, Note_on_c, 5, 68, 0
9, 17130, Note_on_c, 5, 59, 124
9, 17178, Note_on_c, 5, 64, 116
9, 17182, Note_on_c, 5, 59, 0
9, 17208, Note_on_c, 5, 64, 0
9, 17228, Note_on_c, 5, 68, 120
9, 17270, Note_on_c, 5, 68, 0
9, 17284, Note_on_c, 5, 69, 125
9, 17322, Note_on_c, 5, 69, 0
9, 17376, Note_on_c, 5, 69, 127
9, 17410, Note_on_c, 5, 69, 0
9, 17470, Note_on_c, 5, 69, 125
9, 17484, Note_on_c, 5, 71, 126
9, 17488, Note_on_c, 5, 69, 0
9, 17506, Note_on_c, 5, 69, 110
9, 17514, Note_on_c, 5, 71, 0
9, 17568, Note_on_c, 5, 68, 120
9, 17574, Note_on_c, 5, 69, 0
9, 17656, Pitch_bend_c, 5, 8576
9, 17664, Pitch_bend_c, 5, 8448
9, 17668, Note_on_c, 5, 68, 0
9, 17672, Note_on_c, 5, 71, 114
9, 17674, Note_on_c, 5, 69, 111
9, 17700, Note_on_c, 5, 69, 0
9, 18180, Note_on_c, 5, 71, 0
9, 18198, Control_c, 5, 1, 1
9, 18202, Control_c, 5, 1, 6
9, 18206, Control_c, 5, 1, 11
9, 18212, Control_c, 5, 1, 15
9, 18216, Control_c, 5, 1, 20
9, 18220, Control_c, 5, 1, 24
9, 18224, Control_c, 5, 1, 29
9, 18230, Control_c, 5, 1, 33
9, 18234, Control_c, 5, 1, 37
9, 18238, Control_c, 5, 1, 40
9, 18242, Control_c, 5, 1, 43
9, 18246, Control_c, 5, 1, 46
9, 18252, Control_c, 5, 1, 48
9, 18256, Control_c, 5, 1, 50
9, 18264, Control_c, 5, 1, 53
9, 18270, Control_c, 5, 1, 54
9, 18278, Control_c, 5, 1, 55
9, 18286, Control_c, 5, 1, 56
9, 18304, Control_c, 5, 1, 55
9, 18310, Control_c, 5, 1, 53
9, 18314, Control_c, 5, 1, 51
9, 18318, Control_c, 5, 1, 47
9, 18322, Control_c, 5, 1, 42
9, 18326, Control_c, 5, 1, 36
9, 18332, Control_c, 5, 1, 30
9, 18336, Control_c, 5, 1, 22
9, 18340, Control_c, 5, 1, 14
9, 18344, Control_c, 5, 1, 5
9, 18348, Control_c, 5, 1, 0
9, 18728, Note_on_c, 5, 69, 126
9, 18768, Note_on_c, 5, 69, 0
9, 18774, Note_on_c, 5, 73, 124
9, 18822, Note_on_c, 5, 73, 0
9, 18826, Note_on_c, 5, 72, 114
9, 18872, Note_on_c, 5, 72, 0
9, 18876, Note_on_c, 5, 69, 106
9, 18902, Note_on_c, 5, 69, 0
9, 18924, Note_on_c, 5, 65, 103
9, 18942, Note_on_c, 5, 65, 0
9, 18972, Note_on_c, 5, 65, 114
9, 18992, Note_on_c, 5, 65, 0
9, 19018, Note_on_c, 5, 67, 124
9, 19058, Note_on_c, 5, 67, 0
9, 19062, Note_on_c, 5, 65, 110
9, 19090, Note_on_c, 5, 65, 0
9, 19102, Note_on_c, 5, 63, 113
9, 19142, Note_on_c, 5, 63, 0
9, 19156, Note_on_c, 5, 60, 107
9, 19192, Note_on_c, 5, 60, 0
9, 19212, Note_on_c, 5, 64, 114
9, 19382, Control_c, 5, 1, 1
9, 19386, Control_c, 5, 1, 3
9, 19392, Control_c, 5, 1, 5
9, 19396, Control_c, 5, 1, 7
9, 19400, Control_c, 5, 1, 8
9, 19408, Control_c, 5, 1, 12
9, 19414, Control_c, 5, 1, 13
9, 19418, Control_c, 5, 1, 15
9, 19422, Control_c, 5, 1, 17
9, 19426, Control_c, 5, 1, 19
9, 19432, Control_c, 5, 1, 21
9, 19436, Control_c, 5, 1, 23
9, 19440, Control_c, 5, 1, 25
9, 19444, Control_c, 5, 1, 27
9, 19448, Control_c, 5, 1, 28
9, 19454, Control_c, 5, 1, 30
9, 19458, Control_c, 5, 1, 32
9, 19466, Control_c, 5, 1, 35
9, 19472, Control_c, 5, 1, 36
9, 19480, Control_c, 5, 1, 37
9, 19482, Note_on_c, 5, 64, 0
9, 19484, Control_c, 5, 1, 38
9, 19494, Control_c, 5, 1, 39
9, 19512, Control_c, 5, 1, 40
9, 19528, Control_c, 5, 1, 41
9, 19534, Control_c, 5, 1, 42
9, 19538, Control_c, 5, 1, 44
9, 19542, Control_c, 5, 1, 46
9, 19546, Control_c, 5, 1, 48
9, 19556, Control_c, 5, 1, 50
9, 19560, Control_c, 5, 1, 51
9, 19568, Control_c, 5, 1, 53
9, 19578, Control_c, 5, 1, 54
9, 19586, Control_c, 5, 1, 53
9, 19590, Control_c, 5, 1, 52
9, 19596, Control_c, 5, 1, 49
9, 19600, Control_c, 5, 1, 46
9, 19604, Control_c, 5, 1, 41
9, 19608, Control_c, 5, 1, 36
9, 19614, Control_c, 5, 1, 31
9, 19618, Control_c, 5, 1, 24
9, 19622, Control_c, 5, 1, 16
9, 19626, Control_c, 5, 1, 5
9, 19630, Control_c, 5, 1, 0
9, 22080, Note_on_c, 5, 59, 126
9, 22108, Note_on_c, 5, 61, 116
9, 22116, Note_on_c, 5, 59, 0
9, 22142, Note_on_c, 5, 63, 116
9, 22148, Note_on_c, 5, 61, 0
9, 22170, Note_on_c, 5, 63, 0
9, 22172, Note_on_c, 5, 64, 116
9, 22200, Note_on_c, 5, 64, 0
9, 22202, Note_on_c, 5, 66, 108
9, 22224, Note_on_c, 5, 68, 110
9, 22228, Note_on_c, 5, 66, 0
9, 22256, Note_on_c, 5, 68, 0
9, 22260, Note_on_c, 5, 69, 120
9, 22262, Note_on_c, 5, 71, 93
9, 22270, Note_on_c, 5, 71, 0
9, 22298, Note_on_c, 5, 69, 0
9, 22298, Note_on_c, 5, 71, 127
9, 22550, Note_on_c, 5, 71, 0
9, 22558, Note_on_c, 5, 64, 117
9, 22634, Note_on_c, 5, 64, 0
9, 22650, Note_on_c, 5, 64, 120
9, 22884, Note_on_c, 5, 64, 0
9, 22916, Note_on_c, 5, 64, 107
9, 22936, Note_on_c, 5, 64, 0
9, 22936, Note_on_c, 5, 66, 107
9, 22954, Note_on_c, 5, 68, 110
9, 22960, Note_on_c, 5, 66, 0
9, 22974, Note_on_c, 5, 68, 0
9, 22984, Note_on_c, 5, 69, 116
9, 23006, Note_on_c, 5, 71, 115
9, 23008, Note_on_c, 5, 69, 0
9, 23024, Note_on_c, 5, 73, 118
9, 23028, Note_on_c, 5, 71, 0
9, 23050, Note_on_c, 5, 75, 123
9, 23056, Note_on_c, 5, 73, 0
9, 23226, Note_on_c, 5, 73, 111
9, 23232, Note_on_c, 5, 75, 0
9, 23498, Control_c, 5, 1, 2
9, 23508, Control_c, 5, 1, 5
9, 23512, Control_c, 5, 1, 7
9, 23522, Control_c, 5, 1, 10
9, 23526, Control_c, 5, 1, 12
9, 23530, Control_c, 5, 1, 13
9, 23534, Note_on_c, 5, 73, 0
9, 23538, Control_c, 5, 1, 16
9, 23544, Control_c, 5, 1, 17
9, 23552, Control_c, 5, 1, 19
9, 23562, Control_c, 5, 1, 20
9, 23570, Control_c, 5, 1, 21
9, 23584, Control_c, 5, 1, 22
9, 23588, Control_c, 5, 1, 23
9, 23592, Control_c, 5, 1, 25
9, 23596, Control_c, 5, 1, 27
9, 23600, Control_c, 5, 1, 29
9, 23610, Control_c, 5, 1, 31
9, 23624, Control_c, 5, 1, 32
9, 23628, Control_c, 5, 1, 30
9, 23632, Control_c, 5, 1, 28
9, 23636, Control_c, 5, 1, 25
9, 23640, Control_c, 5, 1, 21
9, 23646, Control_c, 5, 1, 16
9, 23650, Control_c, 5, 1, 12
9, 23654, Control_c, 5, 1, 8
9, 23658, Control_c, 5, 1, 5
9, 23662, Control_c, 5, 1, 3
9, 23668, Control_c, 5, 1, 0
9, 24680, Note_on_c, 5, 57, 125
9, 24718, Note_on_c, 5, 57, 0
9, 24726, Note_on_c, 5, 59, 112
9, 24758, Note_on_c, 5, 59, 0
9, 24772, Note_on_c, 5, 61, 108
9, 24802, Note_on_c, 5, 61, 0
9, 24820, Note_on_c, 5, 64, 107
9, 24852, Note_on_c, 5, 64, 0
9, 24868, Note_on_c, 5, 68, 117
9, 24900, Note_on_c, 5, 68, 0
9, 24916, Note_on_c, 5, 71, 124
9, 24938, Note_on_c, 5, 71, 0
9, 24966, Note_on_c, 5, 72, 127
9, 25022, Note_on_c, 5, 71, 111
9, 25034, Note_on_c, 5, 72, 0
9, 25046, Note_on_c, 5, 71, 0
9, 25068, Note_on_c, 5, 69, 110
9, 25100, Note_on_c, 5, 69, 0
9, 25116, Note_on_c, 5, 65, 101
9, 25140, Note_on_c, 5, 65, 0
9, 25164, Note_on_c, 5, 69, 116
9, 25210, Note_on_c, 5, 69, 0
9, 25212, Note_on_c, 5, 65, 112
9, 25242, Note_on_c, 5, 65, 0
9, 25258, Note_on_c, 5, 63, 106
9, 25286, Note_on_c, 5, 63, 0
9, 25306, Note_on_c, 5, 60, 104
9, 25348, Note_on_c, 5, 60, 0
9, 25364, Note_on_c, 5, 59, 111
9, 25692, Note_on_c, 5, 59, 0
9, 26786, Note_on_c, 5, 64, 93
9, 26808, Note_on_c, 5, 66, 103
9, 26812, Note_on_c, 5, 64, 0
9, 26830, Note_on_c, 5, 68, 103
9, 26838, Note_on_c, 5, 66, 0
9, 26860, Note_on_c, 5, 68, 0
9, 26860, Note_on_c, 5, 69, 115
9, 26890, Note_on_c, 5, 69, 0
9, 26892, Note_on_c, 5, 71, 127
9, 27152, Note_on_c, 5, 71, 0
9, 27160, Note_on_c, 5, 76, 119
9, 27262, Note_on_c, 5, 81, 122
9, 27264, Note_on_c, 5, 76, 0
9, 27318, Control_c, 5, 1, 2
9, 27322, Control_c, 5, 1, 4
9, 27326, Control_c, 5, 1, 7
9, 27332, Control_c, 5, 1, 9
9, 27336, Control_c, 5, 1, 11
9, 27340, Control_c, 5, 1, 13
9, 27344, Control_c, 5, 1, 15
9, 27350, Control_c, 5, 1, 17
9, 27354, Control_c, 5, 1, 19
9, 27358, Control_c, 5, 1, 21
9, 27362, Control_c, 5, 1, 24
9, 27366, Control_c, 5, 1, 26
9, 27372, Control_c, 5, 1, 28
9, 27376, Control_c, 5, 1, 31
9, 27380, Control_c, 5, 1, 33
9, 27384, Control_c, 5, 1, 35
9, 27388, Control_c, 5, 1, 37
9, 27398, Control_c, 5, 1, 40
9, 27402, Control_c, 5, 1, 41
9, 27412, Control_c, 5, 1, 42
9, 27450, Control_c, 5, 1, 37
9, 27456, Control_c, 5, 1, 35
9, 27460, Control_c, 5, 1, 33
9, 27464, Control_c, 5, 1, 30
9, 27468, Control_c, 5, 1, 26
9, 27474, Control_c, 5, 1, 22
9, 27478, Control_c, 5, 1, 18
9, 27482, Control_c, 5, 1, 13
9, 27486, Control_c, 5, 1, 8
9, 27490, Control_c, 5, 1, 3
9, 27496, Control_c, 5, 1, 0
9, 27556, Note_on_c, 5, 80, 116
9, 27568, Note_on_c, 5, 81, 0
9, 27646, Note_on_c, 5, 80, 0
9, 27650, Note_on_c, 5, 76, 124
9, 27784, Control_c, 5, 1, 2
9, 27788, Control_c, 5, 1, 3
9, 27796, Control_c, 5, 1, 6
9, 27802, Control_c, 5, 1, 8
9, 27810, Control_c, 5, 1, 11
9, 27814, Control_c, 5, 1, 12
9, 27824, Control_c, 5, 1, 14
9, 27832, Control_c, 5, 1, 15
9, 27846, Control_c, 5, 1, 16
9, 27886, Control_c, 5, 1, 20
9, 27890, Control_c, 5, 1, 21
9, 27898, Control_c, 5, 1, 24
9, 27904, Control_c, 5, 1, 25
9, 27912, Control_c, 5, 1, 28
9, 27916, Control_c, 5, 1, 30
9, 27926, Control_c, 5, 1, 32
9, 27930, Control_c, 5, 1, 34
9, 27938, Control_c, 5, 1, 36
9, 27944, Control_c, 5, 1, 37
9, 27952, Control_c, 5, 1, 38
9, 27970, Control_c, 5, 1, 39
9, 27984, Control_c, 5, 1, 40
9, 27992, Control_c, 5, 1, 41
9, 28000, Control_c, 5, 1, 43
9, 28010, Control_c, 5, 1, 44
9, 28018, Control_c, 5, 1, 46
9, 28028, Control_c, 5, 1, 47
9, 28054, Control_c, 5, 1, 48
9, 28108, Note_on_c, 5, 76, 0
9, 28108, Control_c, 5, 1, 43
9, 28112, Control_c, 5, 1, 41
9, 28116, Control_c, 5, 1, 38
9, 28120, Control_c, 5, 1, 34
9, 28124, Control_c, 5, 1, 29
9, 28130, Control_c, 5, 1, 23
9, 28134, Control_c, 5, 1, 14
9, 28138, Control_c, 5, 1, 6
9, 28142, Control_c, 5, 1, 0
9, 28660, Note_on_c, 5, 71, 125
9, 28690, Note_on_c, 5, 71, 0
9, 28706, Note_on_c, 5, 76, 124
9, 28734, Note_on_c, 5, 76, 0
9, 28754, Note_on_c, 5, 71, 113
9, 28786, Note_on_c, 5, 71, 0
9, 28810, Note_on_c, 5, 81, 126
9, 28862, Note_on_c, 5, 81, 0
9, 28900, Note_on_c, 5, 81, 126
9, 28956, Note_on_c, 5, 81, 0
9, 28990, Note_on_c, 5, 81, 127
9, 29146, Note_on_c, 5, 80, 110
9, 29166, Note_on_c, 5, 78, 114
9, 29168, Note_on_c, 5, 81, 0
9, 29186, Note_on_c, 5, 80, 0
9, 29198, Note_on_c, 5, 76, 119
9, 29200, Note_on_c, 5, 78, 0
9, 29348, Note_on_c, 5, 76, 0
9, 29350, Note_on_c, 5, 78, 118
9, 29470, Control_c, 5, 1, 3
9, 29474, Control_c, 5, 1, 4
9, 29484, Control_c, 5, 1, 5
9, 29488, Control_c, 5, 1, 6
9, 29496, Control_c, 5, 1, 8
9, 29500, Control_c, 5, 1, 9
9, 29510, Control_c, 5, 1, 11
9, 29514, Control_c, 5, 1, 12
9, 29522, Control_c, 5, 1, 14
9, 29536, Control_c, 5, 1, 15
9, 29540, Control_c, 5, 1, 16
9, 29546, Control_c, 5, 1, 17
9, 29554, Control_c, 5, 1, 18
9, 29562, Control_c, 5, 1, 19
9, 29572, Control_c, 5, 1, 20
9, 29580, Control_c, 5, 1, 21
9, 29586, Control_c, 5, 1, 22
9, 29594, Control_c, 5, 1, 24
9, 29598, Control_c, 5, 1, 25
9, 29608, Control_c, 5, 1, 27
9, 29612, Control_c, 5, 1, 29
9, 29620, Control_c, 5, 1, 31
9, 29634, Control_c, 5, 1, 32
9, 29638, Control_c, 5, 1, 33
9, 29674, Control_c, 5, 1, 34
9, 29734, Note_on_c, 5, 78, 0
9, 29762, Control_c, 5, 1, 24
9, 29766, Control_c, 5, 1, 19
9, 29772, Control_c, 5, 1, 12
9, 29776, Control_c, 5, 1, 4
9, 29780, Control_c, 5, 1, 0
9, 30126, Note_on_c, 5, 59, 127
9, 30170, Note_on_c, 5, 59, 0
9, 30170, Note_on_c, 5, 61, 110
9, 30202, Note_on_c, 5, 61, 0
9, 30226, Note_on_c, 5, 64, 104
9, 30258, Note_on_c, 5, 64, 0
9, 30266, Note_on_c, 5, 68, 121
9, 30300, Note_on_c, 5, 68, 0
9, 30318, Note_on_c, 5, 71, 127
9, 30362, Note_on_c, 5, 71, 0
9, 30420, Note_on_c, 5, 73, 125
9, 30456, Note_on_c, 5, 73, 0
9, 30504, Note_on_c, 5, 73, 127
9, 30554, Note_on_c, 5, 73, 0
9, 30558, Note_on_c, 5, 71, 120
9, 30584, Note_on_c, 5, 71, 0
9, 30606, Note_on_c, 5, 73, 110
9, 30642, Note_on_c, 5, 73, 0
9, 30654, Note_on_c, 5, 71, 106
9, 30688, Note_on_c, 5, 71, 0
9, 30700, Note_on_c, 5, 76, 127
9, 30752, Note_on_c, 5, 76, 0
9, 30786, Note_on_c, 5, 76, 127
9, 30830, Note_on_c, 5, 76, 0
9, 30852, Note_on_c, 5, 76, 127
9, 30886, Note_on_c, 5, 76, 0
9, 30908, Note_on_c, 5, 76, 125
9, 30970, Note_on_c, 5, 76, 0
9, 30972, Note_on_c, 5, 73, 125
9, 31014, Note_on_c, 5, 73, 0
9, 31024, Note_on_c, 5, 71, 112
9, 31048, Note_on_c, 5, 71, 0
9, 31072, Note_on_c, 5, 73, 127
9, 31252, Control_c, 5, 1, 1
9, 31258, Control_c, 5, 1, 3
9, 31262, Control_c, 5, 1, 6
9, 31266, Control_c, 5, 1, 8
9, 31270, Control_c, 5, 1, 10
9, 31276, Control_c, 5, 1, 12
9, 31284, Control_c, 5, 1, 15
9, 31298, Control_c, 5, 1, 16
9, 31314, Control_c, 5, 1, 14
9, 31332, Control_c, 5, 1, 9
9, 31338, Control_c, 5, 1, 7
9, 31342, Control_c, 5, 1, 4
9, 31346, Control_c, 5, 1, 0
9, 31360, Note_on_c, 5, 73, 0
9, 31360, Note_on_c, 5, 71, 126
9, 31418, Note_on_c, 5, 73, 118
9, 31426, Note_on_c, 5, 71, 0
9, 31484, Note_on_c, 5, 73, 0
9, 31492, Note_on_c, 5, 66, 124
9, 31660, Control_c, 5, 1, 1
9, 31666, Control_c, 5, 1, 3
9, 31670, Control_c, 5, 1, 6
9, 31674, Control_c, 5, 1, 8
9, 31678, Control_c, 5, 1, 11
9, 31684, Control_c, 5, 1, 14
9, 31688, Control_c, 5, 1, 16
9, 31692, Control_c, 5, 1, 19
9, 31696, Control_c, 5, 1, 21
9, 31700, Control_c, 5, 1, 23
9, 31710, Control_c, 5, 1, 25
9, 31714, Control_c, 5, 1, 26
9, 31722, Control_c, 5, 1, 27
9, 31746, Control_c, 5, 1, 28
9, 31758, Control_c, 5, 1, 29
9, 31762, Control_c, 5, 1, 30
9, 31776, Control_c, 5, 1, 32
9, 31780, Control_c, 5, 1, 33
9, 31794, Control_c, 5, 1, 34
9, 31802, Control_c, 5, 1, 35
9, 31812, Control_c, 5, 1, 34
9, 31842, Control_c, 5, 1, 30
9, 31848, Control_c, 5, 1, 29
9, 31856, Control_c, 5, 1, 26
9, 31860, Control_c, 5, 1, 24
9, 31864, Control_c, 5, 1, 22
9, 31870, Control_c, 5, 1, 19
9, 31874, Control_c, 5, 1, 16
9, 31878, Control_c, 5, 1, 12
9, 31882, Control_c, 5, 1, 8
9, 31888, Control_c, 5, 1, 3
9, 31892, Control_c, 5, 1, 0
9, 31910, Note_on_c, 5, 66, 0
9, 32834, Note_on_c, 5, 59, 127
9, 32860, Note_on_c, 5, 61, 107
9, 32866, Note_on_c, 5, 59, 0
9, 32892, Note_on_c, 5, 63, 112
9, 32900, Note_on_c, 5, 61, 0
9, 32920, Note_on_c, 5, 63, 0
9, 32922, Note_on_c, 5, 64, 112
9, 32950, Note_on_c, 5, 64, 0
9, 32954, Note_on_c, 5, 66, 103
9, 32978, Note_on_c, 5, 68, 113
9, 32984, Note_on_c, 5, 66, 0
9, 33010, Note_on_c, 5, 68, 0
9, 33050, Note_on_c, 5, 71, 127
9, 33302, Note_on_c, 5, 71, 0
9, 33310, Note_on_c, 5, 64, 117
9, 33386, Note_on_c, 5, 64, 0
9, 33402, Note_on_c, 5, 64, 120
9, 33636, Note_on_c, 5, 64, 0
9, 33668, Note_on_c, 5, 64, 107
9, 33688, Note_on_c, 5, 64, 0
9, 33688, Note_on_c, 5, 66, 107
9, 33706, Note_on_c, 5, 68, 110
9, 33712, Note_on_c, 5, 66, 0
9, 33726, Note_on_c, 5, 68, 0
9, 33736, Note_on_c, 5, 69, 116
9, 33758, Note_on_c, 5, 71, 115
9, 33760, Note_on_c, 5, 69, 0
9, 33776, Note_on_c, 5, 73, 118
9, 33780, Note_on_c, 5, 71, 0
9, 33802, Note_on_c, 5, 75, 123
9, 33808, Note_on_c, 5, 73, 0
9, 33978, Note_on_c, 5, 73, 111
9, 33984, Note_on_c, 5, 75, 0
9, 34250, Control_c, 5, 1, 2
9, 34260, Control_c, 5, 1, 5
9, 34264, Control_c, 5, 1, 7
9, 34274, Control_c, 5, 1, 10
9, 34278, Control_c, 5, 1, 12
9, 34282, Control_c, 5, 1, 13
9, 34286, Note_on_c, 5, 73, 0
9, 34290, Control_c, 5, 1, 16
9, 34296, Control_c, 5, 1, 17
9, 34304, Control_c, 5, 1, 19
9, 34314, Control_c, 5, 1, 20
9, 34322, Control_c, 5, 1, 21
9, 34336, Control_c, 5, 1, 22
9, 34340, Control_c, 5, 1, 23
9, 34344, Control_c, 5, 1, 25
9, 34348, Control_c, 5, 1, 27
9, 34352, Control_c, 5, 1, 29
9, 34362, Control_c, 5, 1, 31
9, 34376, Control_c, 5, 1, 32
9, 34380, Control_c, 5, 1, 30
9, 34384, Control_c, 5, 1, 28
9, 34388, Control_c, 5, 1, 25
9, 34392, Control_c, 5, 1, 21
9, 34398, Control_c, 5, 1, 16
9, 34402, Control_c, 5, 1, 12
9, 34406, Control_c, 5, 1, 8
9, 34410, Control_c, 5, 1, 5
9, 34414, Control_c, 5, 1, 3
9, 34420, Control_c, 5, 1, 0
9, 35432, Note_on_c, 5, 57, 125
9, 35470, Note_on_c, 5, 57, 0
9, 35478, Note_on_c, 5, 59, 112
9, 35510, Note_on_c, 5, 59, 0
9, 35524, Note_on_c, 5, 61, 108
9, 35554, Note_on_c, 5, 61, 0
9, 35572, Note_on_c, 5, 64, 107
9, 35604, Note_on_c, 5, 64, 0
9, 35620, Note_on_c, 5, 68, 117
9, 35652, Note_on_c, 5, 68, 0
9, 35668, Note_on_c, 5, 71, 124
9, 35690, Note_on_c, 5, 71, 0
9, 35718, Note_on_c, 5, 72, 127
9, 35774, Note_on_c, 5, 71, 111
9, 35786, Note_on_c, 5, 72, 0
9, 35798, Note_on_c, 5, 71, 0
9, 35820, Note_on_c, 5, 69, 110
9, 35852, Note_on_c, 5, 69, 0
9, 35868, Note_on_c, 5, 65, 101
9, 35892, Note_on_c, 5, 65, 0
9, 35916, Note_on_c, 5, 69, 116
9, 35962, Note_on_c, 5, 69, 0
9, 35964, Note_on_c, 5, 65, 112
9, 35994, Note_on_c, 5, 65, 0
9, 36010, Note_on_c, 5, 63, 106
9, 36038, Note_on_c, 5, 63, 0
9, 36058, Note_on_c, 5, 60, 104
9, 36100, Note_on_c, 5, 60, 0
9, 36116, Note_on_c, 5, 59, 111
9, 36444, Note_on_c, 5, 59, 0
9, 37538, Note_on_c, 5, 64, 93
9, 37560, Note_on_c, 5, 66, 103
9, 37564, Note_on_c, 5, 64, 0
9, 37582, Note_on_c, 5, 68, 103
9, 37590, Note_on_c, 5, 66, 0
9, 37612, Note_on_c, 5, 68, 0
9, 37612, Note_on_c, 5, 69, 115
9, 37642, Note_on_c, 5, 69, 0
9, 38634, Note_on_c, 5, 59, 124
9, 38682, Note_on_c, 5, 64, 116
9, 38686, Note_on_c, 5, 59, 0
9, 38712, Note_on_c, 5, 64, 0
9, 38732, Note_on_c, 5, 68, 120
9, 38774, Note_on_c, 5, 68, 0
9, 38788, Note_on_c, 5, 69, 125
9, 38826, Note_on_c, 5, 69, 0
9, 38880, Note_on_c, 5, 69, 127
9, 38914, Note_on_c, 5, 69, 0
9, 38974, Note_on_c, 5, 69, 125
9, 38988, Note_on_c, 5, 71, 126
9, 38992, Note_on_c, 5, 69, 0
9, 39010, Note_on_c, 5, 69, 110
9, 39018, Note_on_c, 5, 71, 0
9, 39072, Note_on_c, 5, 68, 120
9, 39078, Note_on_c, 5, 69, 0
9, 39160, Pitch_bend_c, 5, 8576
9, 39168, Pitch_bend_c, 5, 8448
9, 39172, Note_on_c, 5, 68, 0
9, 39176, Note_on_c, 5, 71, 114
9, 39178, Note_on_c, 5, 69, 111
9, 39204, Note_on_c, 5, 69, 0
9, 39684, Note_on_c, 5, 71, 0
9, 39702, Control_c, 5, 1, 1
9, 39706, Control_c, 5, 1, 6
9, 39710, Control_c, 5, 1, 11
9, 39716, Control_c, 5, 1, 15
9, 39720, Control_c, 5, 1, 20
9, 39724, Control_c, 5, 1, 24
9, 39728, Control_c, 5, 1, 29
9, 39734, Control_c, 5, 1, 33
9, 39738, Control_c, 5, 1, 37
9, 39742, Control_c, 5, 1, 40
9, 39746, Control_c, 5, 1, 43
9, 39750, Control_c, 5, 1, 46
9, 39756, Control_c, 5, 1, 48
9, 39760, Control_c, 5, 1, 50
9, 39768, Control_c, 5, 1, 53
9, 39774, Control_c, 5, 1, 54
9, 39782, Control_c, 5, 1, 55
9, 39790, Control_c, 5, 1, 56
9, 39808, Control_c, 5, 1, 55
9, 39814, Control_c, 5, 1, 53
9, 39818, Control_c, 5, 1, 51
9, 39822, Control_c, 5, 1, 47
9, 39826, Control_c, 5, 1, 42
9, 39830, Control_c, 5, 1, 36
9, 39836, Control_c, 5, 1, 30
9, 39840, Control_c, 5, 1, 22
9, 39844, Control_c, 5, 1, 14
9, 39848, Control_c, 5, 1, 5
9, 39852, Control_c, 5, 1, 0
9, 40232, Note_on_c, 5, 69, 126
9, 40272, Note_on_c, 5, 69, 0
9, 40278, Note_on_c, 5, 73, 124
9, 40326, Note_on_c, 5, 73, 0
9, 40330, Note_on_c, 5, 72, 114
9, 40376, Note_on_c, 5, 72, 0
9, 40380, Note_on_c, 5, 69, 106
9, 40406, Note_on_c, 5, 69, 0
9, 40428, Note_on_c, 5, 65, 103
9, 40446, Note_on_c, 5, 65, 0
9, 40476, Note_on_c, 5, 65, 114
9, 40496, Note_on_c, 5, 65, 0
9, 40522, Note_on_c, 5, 67, 124
9, 40562, Note_on_c, 5, 67, 0
9, 40566, Note_on_c, 5, 65, 110
9, 40594, Note_on_c, 5, 65, 0
9, 40606, Note_on_c, 5, 63, 113
9, 40646, Note_on_c, 5, 63, 0
9, 40660, Note_on_c, 5, 60, 107
9, 40696, Note_on_c, 5, 60, 0
9, 40716, Note_on_c, 5, 64, 114
9, 40886, Control_c, 5, 1, 1
9, 40890, Control_c, 5, 1, 3
9, 40896, Control_c, 5, 1, 5
9, 40900, Control_c, 5, 1, 7
9, 40904, Control_c, 5, 1, 8
9, 40912, Control_c, 5, 1, 12
9, 40918, Control_c, 5, 1, 13
9, 40922, Control_c, 5, 1, 15
9, 40926, Control_c, 5, 1, 17
9, 40930, Control_c, 5, 1, 19
9, 40936, Control_c, 5, 1, 21
9, 40940, Control_c, 5, 1, 23
9, 40944, Control_c, 5, 1, 25
9, 40948, Control_c, 5, 1, 27
9, 40952, Control_c, 5, 1, 28
9, 40958, Control_c, 5, 1, 30
9, 40962, Control_c, 5, 1, 32
9, 40970, Control_c, 5, 1, 35
9, 40976, Control_c, 5, 1, 36
9, 40984, Control_c, 5, 1, 37
9, 40986, Note_on_c, 5, 64, 0
9, 40988, Control_c, 5, 1, 38
9, 40998, Control_c, 5, 1, 39
9, 41016, Control_c, 5, 1, 40
9, 41032, Control_c, 5, 1, 41
9, 41038, Control_c, 5, 1, 42
9, 41042, Control_c, 5, 1, 44
9, 41046, Control_c, 5, 1, 46
9, 41050, Control_c, 5, 1, 48
9, 41060, Control_c, 5, 1, 50
9, 41064, Control_c, 5, 1, 51
9, 41072, Control_c, 5, 1, 53
9, 41082, Control_c, 5, 1, 54
9, 41090, Control_c, 5, 1, 53
9, 41094, Control_c, 5, 1, 52
9, 41100, Control_c, 5, 1, 49
9, 41104, Control_c, 5, 1, 46
9, 41108, Control_c, 5, 1, 41
9, 41112, Control_c, 5, 1, 36
9, 41118, Control_c, 5, 1, 31
9, 41122, Control_c, 5, 1, 24
9, 41126, Control_c, 5, 1, 16
9, 41130, Control_c, 5, 1, 5
9, 41134, Control_c, 5, 1, 0
9, 43584, Note_on_c, 5, 59, 126
9, 43612, Note_on_c, 5, 61, 116
9, 43620, Note_on_c, 5, 59, 0
9, 43646, Note_on_c, 5, 63, 116
9, 43652, Note_on_c, 5, 61, 0
9, 43674, Note_on_c, 5, 63, 0
9, 43676, Note_on_c, 5, 64, 116
9, 43704, Note_on_c, 5, 64, 0
9, 43706, Note_on_c, 5, 66, 108
9, 43728, Note_on_c, 5, 68, 110
9, 43732, Note_on_c, 5, 66, 0
9, 43760, Note_on_c, 5, 68, 0
9, 43764, Note_on_c, 5, 69, 120
9, 43766, Note_on_c, 5, 71, 93
9, 43774, Note_on_c, 5, 71, 0
9, 43802, Note_on_c, 5, 69, 0
9, 43802, Note_on_c, 5, 71, 127
9, 44054, Note_on_c, 5, 71, 0
9, 44062, Note_on_c, 5, 64, 117
9, 44138, Note_on_c, 5, 64, 0
9, 44154, Note_on_c, 5, 64, 120
9, 44388, Note_on_c, 5, 64, 0
9, 44420, Note_on_c, 5, 64, 107
9, 44440, Note_on_c, 5, 64, 0
9, 44440, Note_on_c, 5, 66, 107
9, 44458, Note_on_c, 5, 68, 110
9, 44464, Note_on_c, 5, 66, 0
9, 44478, Note_on_c, 5, 68, 0
9, 44488, Note_on_c, 5, 69, 116
9, 44510, Note_on_c, 5, 71, 115
9, 44512, Note_on_c, 5, 69, 0
9, 44528, Note_on_c, 5, 73, 118
9, 44532, Note_on_c, 5, 71, 0
9, 44554, Note_on_c, 5, 75, 123
9, 44560, Note_on_c, 5, 73, 0
9, 44730, Note_on_c, 5, 73, 111
9, 44736, Note_on_c, 5, 75, 0
9, 45002, Control_c, 5, 1, 2
9, 45012, Control_c, 5, 1, 5
9, 45016, Control_c, 5, 1, 7
9, 45026, Control_c, 5, 1, 10
9, 45030, Control_c, 5, 1, 12
9, 45034, Control_c, 5, 1, 13
9, 45038, Note_on_c, 5, 73, 0
9, 45042, Control_c, 5, 1, 16
9, 45048, Control_c, 5, 1, 17
9, 45056, Control_c, 5, 1, 19
9, 45066, Control_c, 5, 1, 20
9, 45074, Control_c, 5, 1, 21
9, 45088, Control_c, 5, 1, 22
9, 45092, Control_c, 5, 1, 23
9, 45096, Control_c, 5, 1, 25
9, 45100, Control_c, 5, 1, 27
9, 45104, Control_c, 5, 1, 29
9, 45114, Control_c, 5, 1, 31
9, 45128, Control_c, 5, 1, 32
9, 45132, Control_c, 5, 1, 30
9, 45136, Control_c, 5, 1, 28
9, 45140, Control_c, 5, 1, 25
9, 45144, Control_c, 5, 1, 21
9, 45150, Control_c, 5, 1, 16
9, 45154, Control_c, 5, 1, 12
9, 45158, Control_c, 5, 1, 8
9, 45162, Control_c, 5, 1, 5
9, 45166, Control_c, 5, 1, 3
9, 45172, Control_c, 5, 1, 0
9, 46184, Note_on_c, 5, 57, 125
9, 46222, Note_on_c, 5, 57, 0
9, 46230, Note_on_c, 5, 59, 112
9, 46262, Note_on_c, 5, 59, 0
9, 46276, Note_on_c, 5, 61, 108
9, 46306, Note_on_c, 5, 61, 0
9, 46324, Note_on_c, 5, 64, 107
9, 46356, Note_on_c, 5, 64, 0
9, 46372, Note_on_c, 5, 68, 117
9, 46404, Note_on_c, 5, 68, 0
9, 46420, Note_on_c, 5, 71, 124
9, 46442, Note_on_c, 5, 71, 0
9, 46470, Note_on_c, 5, 72, 127
9, 46526, Note_on_c, 5, 71, 111
9, 46538, Note_on_c, 5, 72, 0
9, 46550, Note_on_c, 5, 71, 0
9, 46572, Note_on_c, 5, 69, 110
9, 46604, Note_on_c, 5, 69, 0
9, 46620, Note_on_c, 5, 65, 101
9, 46644, Note_on_c, 5, 65, 0
9, 46668, Note_on_c, 5, 69, 116
9, 46714, Note_on_c, 5, 69, 0
9, 46716, Note_on_c, 5, 65, 112
9, 46746, Note_on_c, 5, 65, 0
9, 46762, Note_on_c, 5, 63, 106
9, 46790, Note_on_c, 5, 63, 0
9, 46810, Note_on_c, 5, 60, 104
9, 46852, Note_on_c, 5, 60, 0
9, 46868, Note_on_c, 5, 59, 111
9, 47196, Note_on_c, 5, 59, 0
9, 48290, Note_on_c, 5, 64, 93
9, 48312, Note_on_c, 5, 66, 103
9, 48316, Note_on_c, 5, 64, 0
9, 48334, Note_on_c, 5, 68, 103
9, 48342, Note_on_c, 5, 66, 0
9, 48364, Note_on_c, 5, 68, 0
9, 48364, Note_on_c, 5, 69, 115
9, 48394, Note_on_c, 5, 69, 0
9, 48396, Note_on_c, 5, 71, 127
9, 48656, Note_on_c, 5, 71, 0
9, 48664, Note_on_c, 5, 76, 119
9, 48766, Note_on_c, 5, 81, 122
9, 48768, Note_on_c, 5, 76, 0
9, 48822, Control_c, 5, 1, 2
9, 48826, Control_c, 5, 1, 4
9, 48830, Control_c, 5, 1, 7
9, 48836, Control_c, 5, 1, 9
9, 48840, Control_c, 5, 1, 11
9, 48844, Control_c, 5, 1, 13
9, 48848, Control_c, 5, 1, 15
9, 48854, Control_c, 5, 1, 17
9, 48858, Control_c, 5, 1, 19
9, 48862, Control_c, 5, 1, 21
9, 48866, Control_c, 5, 1, 24
9, 48870, Control_c, 5, 1, 26
9, 48876, Control_c, 5, 1, 28
9, 48880, Control_c, 5, 1, 31
9, 48884, Control_c, 5, 1, 33
9, 48888, Control_c, 5, 1, 35
9, 48892, Control_c, 5, 1, 37
9, 48902, Control_c, 5, 1, 40
9, 48906, Control_c, 5, 1, 41
9, 48916, Control_c, 5, 1, 42
9, 48954, Control_c, 5, 1, 37
9, 48960, Control_c, 5, 1, 35
9, 48964, Control_c, 5, 1, 33
9, 48968, Control_c, 5, 1, 30
9, 48972, Control_c, 5, 1, 26
9, 48978, Control_c, 5, 1, 22
9, 48982, Control_c, 5, 1, 18
9, 48986, Control_c, 5, 1, 13
9, 48990, Control_c, 5, 1, 8
9, 48994, Control_c, 5, 1, 3
9, 49000, Control_c, 5, 1, 0
9, 49060, Note_on_c, 5, 80, 116
9, 49072, Note_on_c, 5, 81, 0
9, 49150, Note_on_c, 5, 80, 0
9, 49154, Note_on_c, 5, 76, 124
9, 49288, Control_c, 5, 1, 2
9, 49292, Control_c, 5, 1, 3
9, 49300, Control_c, 5, 1, 6
9, 49306, Control_c, 5, 1, 8
9, 49314, Control_c, 5, 1, 11
9, 49318, Control_c, 5, 1, 12
9, 49328, Control_c, 5, 1, 14
9, 49336, Control_c, 5, 1, 15
9, 49350, Control_c, 5, 1, 16
9, 49390, Control_c, 5, 1, 20
9, 49394, Control_c, 5, 1, 21
9, 49402, Control_c, 5, 1, 24
9, 49408, Control_c, 5, 1, 25
9, 49416, Control_c, 5, 1, 28
9, 49420, Control_c, 5, 1, 30
9, 49430, Control_c, 5, 1, 32
9, 49434, Control_c, 5, 1, 34
9, 49442, Control_c, 5, 1, 36
9, 49448, Control_c, 5, 1, 37
9, 49456, Control_c, 5, 1, 38
9, 49474, Control_c, 5, 1, 39
9, 49488, Control_c, 5, 1, 40
9, 49496, Control_c, 5, 1, 41
9, 49504, Control_c, 5, 1, 43
9, 49514, Control_c, 5, 1, 44
9, 49522, Control_c, 5, 1, 46
9, 49532, Control_c, 5, 1, 47
9, 49558, Control_c, 5, 1, 48
9, 49612, Note_on_c, 5, 76, 0
9, 49612, Control_c, 5, 1, 43
9, 49616, Control_c, 5, 1, 41
9, 49620, Control_c, 5, 1, 38
9, 49624, Control_c, 5, 1, 34
9, 49628, Control_c, 5, 1, 29
9, 49634, Control_c, 5, 1, 23
9, 49638, Control_c, 5, 1, 14
9, 49642, Control_c, 5, 1, 6
9, 49646, Control_c, 5, 1, 0
9, 50164, Note_on_c, 5, 71, 125
9, 50194, Note_on_c, 5, 71, 0
9, 50210, Note_on_c, 5, 76, 124
9, 50238, Note_on_c, 5, 76, 0
9, 50258, Note_on_c, 5, 71, 113
9, 50290, Note_on_c, 5, 71, 0
9, 50314, Note_on_c, 5, 81, 126
9, 50366, Note_on_c, 5, 81, 0
9, 50404, Note_on_c, 5, 81, 126
9, 50460, Note_on_c, 5, 81, 0
9, 50494, Note_on_c, 5, 81, 127
9, 50650, Note_on_c, 5, 80, 110
9, 50670, Note_on_c, 5, 78, 114
9, 50672, Note_on_c, 5, 81, 0
9, 50690, Note_on_c, 5, 80, 0
9, 50702, Note_on_c, 5, 76, 119
9, 50704, Note_on_c, 5, 78, 0
9, 50852, Note_on_c, 5, 76, 0
9, 50854, Note_on_c, 5, 78, 118
9, 50974, Control_c, 5, 1, 3
9, 50978, Control_c, 5, 1, 4
9, 50988, Control_c, 5, 1, 5
9, 50992, Control_c, 5, 1, 6
9, 51000, Control_c, 5, 1, 8
9, 51004, Control_c, 5, 1, 9
9, 51014, Control_c, 5, 1, 11
9, 51018, Control_c, 5, 1, 12
9, 51026, Control_c, 5, 1, 14
9, 51040, Control_c, 5, 1, 15
9, 51044, Control_c, 5, 1, 16
9, 51050, Control_c, 5, 1, 17
9, 51058, Control_c, 5, 1, 18
9, 51066, Control_c, 5, 1, 19
9, 51076, Control_c, 5, 1, 20
9, 51084, Control_c, 5, 1, 21
9, 51090, Control_c, 5, 1, 22
9, 51098, Control_c, 5, 1, 24
9, 51102, Control_c, 5, 1, 25
9, 51112, Control_c, 5, 1, 27
9, 51116, Control_c, 5, 1, 29
9, 51124, Control_c, 5, 1, 31
9, 51138, Control_c, 5, 1, 32
9, 51142, Control_c, 5, 1, 33
9, 51178, Control_c, 5, 1, 34
9, 51238, Note_on_c, 5, 78, 0
9, 51266, Control_c, 5, 1, 24
9, 51270, Control_c, 5, 1, 19
9, 51276, Control_c, 5, 1, 12
9, 51280, Control_c, 5, 1, 4
9, 51284, Control_c, 5, 1, 0
9, 51630, Note_on_c, 5, 59, 127
9, 51674, Note_on_c, 5, 59, 0
9, 51674, Note_on_c, 5, 61, 110
9, 51706, Note_on_c, 5, 61, 0
9, 51730, Note_on_c, 5, 64, 104
9, 51762, Note_on_c, 5, 64, 0
9, 51770, Note_on_c, 5, 68, 121
9, 51804, Note_on_c, 5, 68, 0
9, 51822, Note_on_c, 5, 71, 127
9, 51866, Note_on_c, 5, 71, 0
9, 51924, Note_on_c, 5, 73, 125
9, 51960, Note_on_c, 5, 73, 0
9, 52008, Note_on_c, 5, 73, 127
9, 52058, Note_on_c, 5, 73, 0
9, 52062, Note_on_c, 5, 71, 120
9, 52088, Note_on_c, 5, 71, 0
9, 52110, Note_on_c, 5, 73, 110
9, 52146, Note_on_c, 5, 73, 0
9, 52158, Note_on_c, 5, 71, 106
9, 52192, Note_on_c, 5, 71, 0
9, 52204, Note_on_c, 5, 76, 127
9, 52256, Note_on_c, 5, 76, 0
9, 52290, Note_on_c, 5, 76, 127
9, 52334, Note_on_c, 5, 76, 0
9, 52356, Note_on_c, 5, 76, 127
9, 52390, Note_on_c, 5, 76, 0
9, 52412, Note_on_c, 5, 76, 125
9, 52474, Note_on_c, 5, 76, 0
9, 52476, Note_on_c, 5, 73, 125
9, 52518, Note_on_c, 5, 73, 0
9, 52528, Note_on_c, 5, 71, 112
9, 52552, Note_on_c, 5, 71, 0
9, 52576, Note_on_c, 5, 73, 127
9, 52756, Control_c, 5, 1, 1
9, 52762, Control_c, 5, 1, 3
9, 52766, Control_c, 5, 1, 6
9, 52770, Control_c, 5, 1, 8
9, 52774, Control_c, 5, 1, 10
9, 52780, Control_c, 5, 1, 12
9, 52788, Control_c, 5, 1, 15
9, 52802, Control_c, 5, 1, 16
9, 52818, Control_c, 5, 1, 14
9, 52836, Control_c, 5, 1, 9
9, 52842, Control_c, 5, 1, 7
9, 52846, Control_c, 5, 1, 4
9, 52850, Control_c, 5, 1, 0
9, 52864, Note_on_c, 5, 73, 0
9, 52864, Note_on_c, 5, 71, 126
9, 52922, Note_on_c, 5, 73, 118
9, 52930, Note_on_c, 5, 71, 0
9, 52988, Note_on_c, 5, 73, 0
9, 52996, Note_on_c, 5, 66, 124
9, 53164, Control_c, 5, 1, 1
9, 53170, Control_c, 5, 1, 3
9, 53174, Control_c, 5, 1, 6
9, 53178, Control_c, 5, 1, 8
9, 53182, Control_c, 5, 1, 11
9, 53188, Control_c, 5, 1, 14
9, 53192, Control_c, 5, 1, 16
9, 53196, Control_c, 5, 1, 19
9, 53200, Control_c, 5, 1, 21
9, 53204, Control_c, 5, 1, 23
9, 53214, Control_c, 5, 1, 25
9, 53218, Control_c, 5, 1, 26
9, 53226, Control_c, 5, 1, 27
9, 53250, Control_c, 5, 1, 28
9, 53262, Control_c, 5, 1, 29
9, 53266, Control_c, 5, 1, 30
9, 53280, Control_c, 5, 1, 32
9, 53284, Control_c, 5, 1, 33
9, 53298, Control_c, 5, 1, 34
9, 53306, Control_c, 5, 1, 35
9, 53316, Control_c, 5, 1, 34
9, 53346, Control_c, 5, 1, 30
9, 53352, Control_c, 5, 1, 29
9, 53360, Control_c, 5, 1, 26
9, 53364, Control_c, 5, 1, 24
9, 53368, Control_c, 5, 1, 22
9, 53374, Control_c, 5, 1, 19
9, 53378, Control_c, 5, 1, 16
9, 53382, Control_c, 5, 1, 12
9, 53386, Control_c, 5, 1, 8
9, 53392, Control_c, 5, 1, 3
9, 53396, Control_c, 5, 1, 0
9, 53414, Note_on_c, 5, 66, 0
9, 54338, Note_on_c, 5, 59, 127
9, 54364, Note_on_c, 5, 61, 107
9, 54370, Note_on_c, 5, 59, 0
9, 54396, Note_on_c, 5, 63, 112
9, 54404, Note_on_c, 5, 61, 0
9, 54424, Note_on_c, 5, 63, 0
9, 54426, Note_on_c, 5, 64, 112
9, 54454, Note_on_c, 5, 64, 0
9, 54458, Note_on_c, 5, 66, 103
9, 54482, Note_on_c, 5, 68, 113
9, 54488, Note_on_c, 5, 66, 0
9, 54514, Note_on_c, 5, 68, 0
9, 54554, Note_on_c, 5, 71, 127
9, 54806, Note_on_c, 5, 71, 0
9, 54814, Note_on_c, 5, 64, 117
9, 54890, Note_on_c, 5, 64, 0
9, 54906, Note_on_c, 5, 64, 120
9, 55140, Note_on_c, 5, 64, 0
9, 55172, Note_on_c, 5, 64, 107
9, 55192, Note_on_c, 5, 64, 0
9, 55192, Note_on_c, 5, 66, 107
9, 55210, Note_on_c, 5, 68, 110
9, 55216, Note_on_c, 5, 66, 0
9, 55230, Note_on_c, 5, 68, 0
9, 55240, Note_on_c, 5, 69, 116
9, 55262, Note_on_c, 5, 71, 115
9, 55264, Note_on_c, 5, 69, 0
9, 55280, Note_on_c, 5, 73, 118
9, 55284, Note_on_c, 5, 71, 0
9, 55306, Note_on_c, 5, 75, 123
9, 55312, Note_on_c, 5, 73, 0
9, 55482, Note_on_c, 5, 73, 111
9, 55488, Note_on_c, 5, 75, 0
9, 55754, Control_c, 5, 1, 2
9, 55764, Control_c, 5, 1, 5
9, 55768, Control_c, 5, 1, 7
9, 55778, Control_c, 5, 1, 10
9, 55782, Control_c, 5, 1, 12
9, 55786, Control_c, 5, 1, 13
9, 55790, Note_on_c, 5, 73, 0
9, 55794, Control_c, 5, 1, 16
9, 55800, Control_c, 5, 1, 17
9, 55808, Control_c, 5, 1, 19
9, 55818, Control_c, 5, 1, 20
9, 55826, Control_c, 5, 1, 21
9, 55840, Control_c, 5, 1, 22
9, 55844, Control_c, 5, 1, 23
9, 55848, Control_c, 5, 1, 25
9, 55852, Control_c, 5, 1, 27
9, 55856, Control_c, 5, 1, 29
9, 55866, Control_c, 5, 1, 31
9, 55880, Control_c, 5, 1, 32
9, 55884, Control_c, 5, 1, 30
9, 55888, Control_c, 5, 1, 28
9, 55892, Control_c, 5, 1, 25
9, 55896, Control_c, 5, 1, 21
9, 55902, Control_c, 5, 1, 16
9, 55906, Control_c, 5, 1, 12
9, 55910, Control_c, 5, 1, 8
9, 55914, Control_c, 5, 1, 5
9, 55918, Control_c, 5, 1, 3
9, 55924, Control_c, 5, 1, 0
9, 56936, Note_on_c, 5, 57, 125
9, 56974, Note_on_c, 5, 57, 0
9, 56982, Note_on_c, 5, 59, 112
9, 57014, Note_on_c, 5, 59, 0
9, 57028, Note_on_c, 5, 61, 108
9, 57058, Note_on_c, 5, 61, 0
9, 57076, Note_on_c, 5, 64, 107
9, 57108, Note_on_c, 5, 64, 0
9, 57124, Note_on_c, 5, 68, 117
9, 57156, Note_on_c, 5, 68, 0
9, 57172, Note_on_c, 5, 71, 124
9, 57194, Note_on_c, 5, 71, 0
9, 57222, Note_on_c, 5, 72, 127
9, 57278, Note_on_c, 5, 71, 111
9, 57290, Note_on_c, 5, 72, 0
9, 57302, Note_on_c, 5, 71, 0
9, 57324, Note_on_c, 5, 69, 110
9, 57356, Note_on_c, 5, 69, 0
9, 57372, Note_on_c, 5, 65, 101
9, 57396, Note_on_c, 5, 65, 0
9, 57420, Note_on_c, 5, 69, 116
9, 57466, Note_on_c, 5, 69, 0
9, 57468, Note_on_c, 5, 65, 112
9, 57498, Note_on_c, 5, 65, 0
9, 57514, Note_on_c, 5, 63, 106
9, 57542, Note_on_c, 5, 63, 0
9, 57562, Note_on_c, 5, 60, 104
9, 57604, Note_on_c, 5, 60, 0
9, 57620, Note_on_c, 5, 59, 111
9, 57948, Note_on_c, 5, 59, 0
9, 57948, End_track
10, 0, Start_track
10, 0, MIDI_port, 0
10, 0, Title_t, "Harp"
10, 0, Program_c, 6, 46
10, 0, Control_c, 6, 7, 100
10, 0, Control_c, 6, 10, 84
10, 0, Control_c, 6, 121, 0
10, 0, Control_c, 6, 91, 100
10, 1166, Note_on_c, 6, 62, 117
10, 1210, Note_on_c, 6, 66, 115
10, 1254, Note_on_c, 6, 69, 124
10, 1288, Note_on_c, 6, 72, 119
10, 1336, Note_on_c, 6, 76, 127
10, 1382, Note_on_c, 6, 62, 0
10, 1384, Note_on_c, 6, 78, 121
10, 1400, Note_on_c, 6, 66, 0
10, 1402, Note_on_c, 6, 69, 0
10, 1408, Note_on_c, 6, 72, 0
10, 1430, Note_on_c, 6, 81, 112
10, 1478, Note_on_c, 6, 84, 117
10, 1480, Note_on_c, 6, 78, 0
10, 1500, Note_on_c, 6, 76, 0
10, 1522, Note_on_c, 6, 81, 0
10, 1548, Note_on_c, 6, 84, 0
10, 1550, Note_on_c, 6, 68, 121
10, 1636, Note_on_c, 6, 71, 116
10, 1728, Note_on_c, 6, 75, 93
10, 1772, Note_on_c, 6, 71, 0
10, 1782, Note_on_c, 6, 68, 0
10, 1824, Note_on_c, 6, 75, 0
10, 1826, Note_on_c, 6, 83, 93
10, 1880, Note_on_c, 6, 83, 0
10, 1896, Note_on_c, 6, 73, 97
10, 2022, Note_on_c, 6, 77, 118
10, 2112, Note_on_c, 6, 83, 121
10, 2182, Note_on_c, 6, 73, 0
10, 2194, Note_on_c, 6, 77, 0
10, 2214, Note_on_c, 6, 85, 107
10, 2256, Note_on_c, 6, 85, 0
10, 2270, Note_on_c, 6, 83, 0
10, 2312, Note_on_c, 6, 66, 107
10, 2404, Note_on_c, 6, 69, 116
10, 2494, Note_on_c, 6, 73, 115
10, 2590, Note_on_c, 6, 76, 112
10, 2618, Note_on_c, 6, 81, 107
10, 2622, Note_on_c, 6, 66, 0
10, 2626, Note_on_c, 6, 69, 0
10, 2632, Note_on_c, 6, 76, 0
10, 2636, Note_on_c, 6, 73, 0
10, 2642, Note_on_c, 6, 85, 112
10, 2660, Note_on_c, 6, 81, 0
10, 2660, Note_on_c, 6, 88, 114
10, 2688, Note_on_c, 6, 85, 0
10, 2688, Note_on_c, 6, 92, 123
10, 2696, Note_on_c, 6, 88, 0
10, 2792, Note_on_c, 6, 88, 123
10, 2824, Note_on_c, 6, 92, 0
10, 2886, Note_on_c, 6, 85, 110
10, 2896, Note_on_c, 6, 76, 107
10, 2904, Note_on_c, 6, 88, 0
10, 2928, Note_on_c, 6, 76, 0
10, 2958, Note_on_c, 6, 85, 0
10, 2984, Note_on_c, 6, 81, 102
10, 3006, Note_on_c, 6, 81, 0
10, 3076, Note_on_c, 6, 65, 107
10, 3078, Note_on_c, 6, 69, 113
10, 3086, Note_on_c, 6, 76, 107
10, 3174, Note_on_c, 6, 76, 0
10, 3174, Note_on_c, 6, 72, 112
10, 3222, Note_on_c, 6, 84, 113
10, 3244, Note_on_c, 6, 88, 123
10, 3272, Note_on_c, 6, 93, 126
10, 3286, Note_on_c, 6, 88, 0
10, 3334, Note_on_c, 6, 84, 0
10, 3356, Note_on_c, 6, 93, 0
10, 3368, Note_on_c, 6, 72, 0
10, 3372, Note_on_c, 6, 76, 115
10, 3398, Note_on_c, 6, 65, 0
10, 3432, Note_on_c, 6, 76, 0
10, 3450, Note_on_c, 6, 71, 109
10, 3454, Note_on_c, 6, 69, 0
10, 3456, Note_on_c, 6, 83, 112
10, 3464, Note_on_c, 6, 87, 119
10, 3488, Note_on_c, 6, 92, 120
10, 3500, Note_on_c, 6, 87, 0
10, 3562, Note_on_c, 6, 75, 113
10, 3566, Note_on_c, 6, 71, 0
10, 3568, Note_on_c, 6, 92, 0
10, 3570, Note_on_c, 6, 83, 0
10, 3646, Note_on_c, 6, 69, 107
10, 3648, Note_on_c, 6, 81, 102
10, 3656, Note_on_c, 6, 87, 109
10, 3660, Note_on_c, 6, 75, 0
10, 3672, Note_on_c, 6, 91, 118
10, 3676, Note_on_c, 6, 87, 0
10, 3752, Note_on_c, 6, 91, 0
10, 3754, Note_on_c, 6, 75, 109
10, 3756, Note_on_c, 6, 69, 0
10, 3764, Note_on_c, 6, 81, 0
10, 3784, Note_on_c, 6, 75, 0
10, 3854, Note_on_c, 6, 64, 118
10, 3944, Note_on_c, 6, 68, 121
10, 4036, Note_on_c, 6, 71, 117
10, 4130, Note_on_c, 6, 76, 102
10, 4166, Note_on_c, 6, 68, 0
10, 4202, Note_on_c, 6, 64, 0
10, 4208, Note_on_c, 6, 76, 0
10, 4214, Note_on_c, 6, 71, 0
10, 4220, Note_on_c, 6, 75, 119
10, 4232, Note_on_c, 6, 69, 115
10, 4320, Note_on_c, 6, 72, 121
10, 4416, Note_on_c, 6, 78, 109
10, 4448, Note_on_c, 6, 69, 0
10, 4458, Note_on_c, 6, 72, 0
10, 4514, Note_on_c, 6, 81, 107
10, 4564, Note_on_c, 6, 81, 0
10, 4572, Note_on_c, 6, 78, 0
10, 4578, Note_on_c, 6, 75, 0
10, 4608, Note_on_c, 6, 64, 112
10, 4706, Note_on_c, 6, 68, 113
10, 4802, Note_on_c, 6, 76, 116
10, 4862, Note_on_c, 6, 64, 0
10, 4876, Note_on_c, 6, 68, 0
10, 4892, Note_on_c, 6, 83, 114
10, 4920, Note_on_c, 6, 76, 0
10, 4966, Note_on_c, 6, 83, 0
10, 4966, Note_on_c, 6, 69, 110
10, 4972, Note_on_c, 6, 75, 113
10, 4992, Note_on_c, 6, 78, 109
10, 4992, Note_on_c, 6, 84, 121
10, 4996, Note_on_c, 6, 87, 117
10, 5076, Note_on_c, 6, 75, 0
10, 5084, Note_on_c, 6, 72, 120
10, 5090, Note_on_c, 6, 78, 0
10, 5092, Note_on_c, 6, 87, 0
10, 5106, Note_on_c, 6, 87, 102
10, 5124, Note_on_c, 6, 87, 0
10, 5130, Note_on_c, 6, 84, 0
10, 5162, Note_on_c, 6, 78, 113
10, 5174, Note_on_c, 6, 81, 123
10, 5186, Note_on_c, 6, 84, 122
10, 5248, Note_on_c, 6, 78, 0
10, 5282, Note_on_c, 6, 75, 119
10, 5288, Note_on_c, 6, 69, 0
10, 5294, Note_on_c, 6, 72, 0
10, 5296, Note_on_c, 6, 84, 0
10, 5302, Note_on_c, 6, 81, 0
10, 5318, Note_on_c, 6, 75, 0
10, 5378, Note_on_c, 6, 64, 102
10, 5382, Note_on_c, 6, 80, 109
10, 5392, Note_on_c, 6, 83, 110
10, 5484, Note_on_c, 6, 68, 110
10, 5570, Note_on_c, 6, 71, 121
10, 5638, Note_on_c, 6, 64, 0
10, 5646, Note_on_c, 6, 80, 0
10, 5658, Note_on_c, 6, 83, 0
10, 5660, Note_on_c, 6, 76, 121
10, 5700, Note_on_c, 6, 68, 0
10, 5744, Note_on_c, 6, 71, 0
10, 5764, Note_on_c, 6, 81, 113
10, 5764, Note_on_c, 6, 68, 110
10, 5796, Note_on_c, 6, 76, 0
10, 5864, Note_on_c, 6, 71, 114
10, 5954, Note_on_c, 6, 76, 112
10, 6046, Note_on_c, 6, 68, 0
10, 6054, Note_on_c, 6, 80, 97
10, 6058, Note_on_c, 6, 71, 0
10, 6070, Note_on_c, 6, 81, 0
10, 6074, Note_on_c, 6, 76, 0
10, 6136, Note_on_c, 6, 80, 0
10, 6148, Note_on_c, 6, 66, 110
10, 6242, Note_on_c, 6, 69, 112
10, 6330, Note_on_c, 6, 73, 110
10, 6338, Note_on_c, 6, 69, 0
10, 6432, Note_on_c, 6, 69, 119
10, 6436, Note_on_c, 6, 66, 0
10, 6450, Note_on_c, 6, 73, 0
10, 6534, Note_on_c, 6, 69, 0
10, 6534, Note_on_c, 6, 65, 119
10, 6536, Note_on_c, 6, 91, 127
10, 6586, Note_on_c, 6, 87, 123
10, 6628, Note_on_c, 6, 65, 0
10, 6632, Note_on_c, 6, 84, 118
10, 6676, Note_on_c, 6, 81, 121
10, 6726, Note_on_c, 6, 75, 121
10, 6780, Note_on_c, 6, 72, 121
10, 6792, Note_on_c, 6, 75, 0
10, 6826, Note_on_c, 6, 91, 0
10, 6826, Note_on_c, 6, 69, 119
10, 6830, Note_on_c, 6, 87, 0
10, 6832, Note_on_c, 6, 72, 0
10, 6834, Note_on_c, 6, 84, 0
10, 6838, Note_on_c, 6, 81, 0
10, 6874, Note_on_c, 6, 72, 116
10, 6880, Note_on_c, 6, 69, 0
10, 6904, Note_on_c, 6, 72, 0
10, 6922, Note_on_c, 6, 64, 115
10, 7020, Note_on_c, 6, 68, 118
10, 7118, Note_on_c, 6, 71, 121
10, 7202, Note_on_c, 6, 80, 120
10, 7212, Note_on_c, 6, 68, 0
10, 7220, Note_on_c, 6, 64, 0
10, 7306, Note_on_c, 6, 80, 0
10, 7306, Note_on_c, 6, 85, 117
10, 7310, Note_on_c, 6, 62, 112
10, 7314, Note_on_c, 6, 71, 0
10, 7404, Note_on_c, 6, 71, 114
10, 7492, Note_on_c, 6, 77, 107
10, 7564, Note_on_c, 6, 62, 0
10, 7582, Note_on_c, 6, 71, 0
10, 7586, Note_on_c, 6, 83, 102
10, 7596, Note_on_c, 6, 85, 0
10, 7652, Note_on_c, 6, 83, 0
10, 7668, Note_on_c, 6, 77, 0
10, 7692, Note_on_c, 6, 61, 121
10, 7782, Note_on_c, 6, 68, 119
10, 7878, Note_on_c, 6, 71, 119
10, 7966, Note_on_c, 6, 74, 115
10, 8066, Note_on_c, 6, 77, 114
10, 8088, Note_on_c, 6, 74, 0
10, 8166, Note_on_c, 6, 81, 121
10, 8174, Note_on_c, 6, 77, 0
10, 8186, Note_on_c, 6, 68, 0
10, 8266, Note_on_c, 6, 68, 112
10, 8324, Note_on_c, 6, 61, 0
10, 8336, Note_on_c, 6, 68, 0
10, 8348, Note_on_c, 6, 71, 0
10, 8364, Note_on_c, 6, 80, 100
10, 8374, Note_on_c, 6, 81, 0
10, 8460, Note_on_c, 6, 80, 0
10, 8460, Note_on_c, 6, 66, 107
10, 8550, Note_on_c, 6, 69, 116
10, 8612, Note_on_c, 6, 81, 112
10, 8616, Note_on_c, 6, 73, 93
10, 8632, Note_on_c, 6, 85, 117
10, 8652, Note_on_c, 6, 73, 0
10, 8652, Note_on_c, 6, 90, 119
10, 8738, Note_on_c, 6, 73, 119
10, 8758, Note_on_c, 6, 85, 0
10, 8760, Note_on_c, 6, 90, 0
10, 8760, Note_on_c, 6, 81, 0
10, 8810, Note_on_c, 6, 78, 105
10, 8820, Note_on_c, 6, 81, 118
10, 8832, Note_on_c, 6, 85, 117
10, 8848, Note_on_c, 6, 93, 114
10, 8858, Note_on_c, 6, 78, 0
10, 8880, Note_on_c, 6, 73, 0
10, 9038, Note_on_c, 6, 78, 107
10, 9082, Note_on_c, 6, 78, 0
10, 9130, Note_on_c, 6, 73, 110
10, 9132, Note_on_c, 6, 66, 0
10, 9142, Note_on_c, 6, 69, 0
10, 9200, Note_on_c, 6, 73, 0
10, 9224, Note_on_c, 6, 93, 0
10, 9226, Note_on_c, 6, 66, 116
10, 9228, Note_on_c, 6, 85, 0
10, 9238, Note_on_c, 6, 81, 0
10, 9326, Note_on_c, 6, 69, 124
10, 9368, Note_on_c, 6, 72, 116
10, 9394, Note_on_c, 6, 81, 118
10, 9402, Note_on_c, 6, 76, 116
10, 9404, Note_on_c, 6, 84, 116
10, 9414, Note_on_c, 6, 88, 116
10, 9424, Note_on_c, 6, 72, 0
10, 9484, Note_on_c, 6, 76, 0
10, 9502, Note_on_c, 6, 81, 0
10, 9502, Note_on_c, 6, 72, 123
10, 9508, Note_on_c, 6, 84, 0
10, 9510, Note_on_c, 6, 88, 0
10, 9598, Note_on_c, 6, 95, 127
10, 9602, Note_on_c, 6, 76, 119
10, 9640, Note_on_c, 6, 72, 0
10, 9646, Note_on_c, 6, 93, 118
10, 9654, Note_on_c, 6, 76, 0
10, 9676, Note_on_c, 6, 66, 0
10, 9702, Note_on_c, 6, 88, 118
10, 9704, Note_on_c, 6, 89, 115
10, 9710, Note_on_c, 6, 89, 0
10, 9716, Note_on_c, 6, 93, 0
10, 9716, Note_on_c, 6, 69, 0
10, 9720, Note_on_c, 6, 95, 0
10, 9746, Note_on_c, 6, 84, 124
10, 9792, Note_on_c, 6, 81, 118
10, 9842, Note_on_c, 6, 76, 121
10, 9882, Note_on_c, 6, 72, 122
10, 9892, Note_on_c, 6, 76, 0
10, 9926, Note_on_c, 6, 88, 0
10, 9934, Note_on_c, 6, 69, 116
10, 9936, Note_on_c, 6, 84, 0
10, 9944, Note_on_c, 6, 72, 0
10, 9956, Note_on_c, 6, 81, 0
10, 9994, Note_on_c, 6, 69, 0
10, 9994, Note_on_c, 6, 68, 124
10, 10090, Note_on_c, 6, 71, 118
10, 10194, Note_on_c, 6, 76, 114
10, 10206, Note_on_c, 6, 71, 0
10, 10288, Note_on_c, 6, 71, 112
10, 10294, Note_on_c, 6, 76, 0
10, 10386, Note_on_c, 6, 71, 0
10, 10386, Note_on_c, 6, 76, 109
10, 10400, Note_on_c, 6, 68, 0
10, 10402, Note_on_c, 6, 76, 0
10, 15738, Note_on_c, 6, 59, 116
10, 15794, Note_on_c, 6, 66, 115
10, 15842, Note_on_c, 6, 69, 121
10, 15884, Note_on_c, 6, 71, 120
10, 15924, Note_on_c, 6, 71, 0
10, 15928, Note_on_c, 6, 75, 118
10, 15968, Note_on_c, 6, 75, 0
10, 15982, Note_on_c, 6, 79, 119
10, 16012, Note_on_c, 6, 79, 0
10, 16036, Note_on_c, 6, 83, 118
10, 16038, Note_on_c, 6, 59, 0
10, 16042, Note_on_c, 6, 69, 0
10, 16044, Note_on_c, 6, 66, 0
10, 16068, Note_on_c, 6, 83, 0
10, 16080, Note_on_c, 6, 88, 107
10, 16104, Note_on_c, 6, 88, 0
10, 16138, Note_on_c, 6, 88, 117
10, 16272, Note_on_c, 6, 88, 0
10, 21890, Note_on_c, 6, 59, 120
10, 21918, Note_on_c, 6, 63, 117
10, 21938, Note_on_c, 6, 66, 118
10, 21944, Note_on_c, 6, 59, 0
10, 21958, Note_on_c, 6, 69, 114
10, 21960, Note_on_c, 6, 63, 0
10, 21968, Note_on_c, 6, 66, 0
10, 21974, Note_on_c, 6, 71, 109
10, 21980, Note_on_c, 6, 69, 0
10, 21990, Note_on_c, 6, 75, 114
10, 21996, Note_on_c, 6, 71, 0
10, 22004, Note_on_c, 6, 78, 110
10, 22020, Note_on_c, 6, 75, 0
10, 22026, Note_on_c, 6, 81, 119
10, 22034, Note_on_c, 6, 78, 0
10, 22060, Note_on_c, 6, 75, 112
10, 22078, Note_on_c, 6, 81, 0
10, 22078, Note_on_c, 6, 71, 121
10, 22082, Note_on_c, 6, 75, 0
10, 22106, Note_on_c, 6, 75, 127
10, 22116, Note_on_c, 6, 71, 0
10, 22128, Note_on_c, 6, 75, 0
10, 22134, Note_on_c, 6, 81, 119
10, 22156, Note_on_c, 6, 83, 119
10, 22158, Note_on_c, 6, 81, 0
10, 22176, Note_on_c, 6, 85, 114
10, 22180, Note_on_c, 6, 83, 0
10, 22186, Note_on_c, 6, 75, 110
10, 22188, Note_on_c, 6, 85, 0
10, 22190, Note_on_c, 6, 78, 121
10, 22196, Note_on_c, 6, 75, 0
10, 22214, Note_on_c, 6, 81, 124
10, 22216, Note_on_c, 6, 78, 0
10, 22224, Note_on_c, 6, 83, 116
10, 22236, Note_on_c, 6, 81, 0
10, 22246, Note_on_c, 6, 83, 0
10, 22248, Note_on_c, 6, 87, 127
10, 22276, Note_on_c, 6, 80, 115
10, 22284, Note_on_c, 6, 87, 0
10, 22292, Note_on_c, 6, 88, 127
10, 22294, Note_on_c, 6, 83, 119
10, 22324, Note_on_c, 6, 80, 0
10, 22338, Note_on_c, 6, 83, 0
10, 22544, Note_on_c, 6, 88, 0
10, 24772, Note_on_c, 6, 93, 127
10, 24820, Note_on_c, 6, 90, 86
10, 24852, Note_on_c, 6, 93, 0
10, 24866, Note_on_c, 6, 88, 114
10, 24876, Note_on_c, 6, 90, 0
10, 24906, Note_on_c, 6, 85, 113
10, 24918, Note_on_c, 6, 88, 0
10, 24954, Note_on_c, 6, 85, 0
10, 24958, Note_on_c, 6, 81, 123
10, 25012, Note_on_c, 6, 84, 118
10, 25020, Note_on_c, 6, 81, 0
10, 25050, Note_on_c, 6, 84, 0
10, 25058, Note_on_c, 6, 76, 114
10, 25110, Note_on_c, 6, 72, 117
10, 25120, Note_on_c, 6, 76, 0
10, 25150, Note_on_c, 6, 72, 0
10, 25156, Note_on_c, 6, 69, 122
10, 25202, Note_on_c, 6, 72, 119
10, 25242, Note_on_c, 6, 72, 0
10, 25248, Note_on_c, 6, 69, 0
10, 25252, Note_on_c, 6, 76, 116
10, 25298, Note_on_c, 6, 78, 117
10, 25300, Note_on_c, 6, 76, 0
10, 25324, Note_on_c, 6, 78, 0
10, 25350, Note_on_c, 6, 68, 109
10, 25538, Note_on_c, 6, 68, 0
10, 26502, Note_on_c, 6, 71, 120
10, 26536, Note_on_c, 6, 75, 114
10, 26570, Note_on_c, 6, 78, 117
10, 26582, Note_on_c, 6, 71, 0
10, 26594, Note_on_c, 6, 81, 110
10, 26618, Note_on_c, 6, 75, 0
10, 26622, Note_on_c, 6, 81, 0
10, 26622, Note_on_c, 6, 78, 0
10, 26622, Note_on_c, 6, 84, 116
10, 26644, Note_on_c, 6, 87, 117
10, 26652, Note_on_c, 6, 84, 0
10, 26660, Note_on_c, 6, 90, 86
10, 26672, Note_on_c, 6, 87, 0
10, 26690, Note_on_c, 6, 93, 121
10, 26692, Note_on_c, 6, 90, 0
10, 26720, Note_on_c, 6, 90, 93
10, 26738, Note_on_c, 6, 93, 0
10, 26762, Note_on_c, 6, 87, 110
10, 26774, Note_on_c, 6, 90, 0
10, 26792, Note_on_c, 6, 87, 0
10, 26794, Note_on_c, 6, 84, 107
10, 26818, Note_on_c, 6, 84, 0
10, 26822, Note_on_c, 6, 76, 107
10, 26844, Note_on_c, 6, 71, 116
10, 26846, Note_on_c, 6, 76, 0
10, 26864, Note_on_c, 6, 68, 114
10, 26872, Note_on_c, 6, 71, 0
10, 26890, Note_on_c, 6, 68, 0
10, 26898, Note_on_c, 6, 64, 116
10, 27148, Note_on_c, 6, 64, 0
10, 35524, Note_on_c, 6, 93, 127
10, 35572, Note_on_c, 6, 90, 86
10, 35604, Note_on_c, 6, 93, 0
10, 35618, Note_on_c, 6, 88, 114
10, 35628, Note_on_c, 6, 90, 0
10, 35658, Note_on_c, 6, 85, 113
10, 35670, Note_on_c, 6, 88, 0
10, 35706, Note_on_c, 6, 85, 0
10, 35710, Note_on_c, 6, 81, 123
10, 35764, Note_on_c, 6, 84, 118
10, 35772, Note_on_c, 6, 81, 0
10, 35802, Note_on_c, 6, 84, 0
10, 35810, Note_on_c, 6, 76, 114
10, 35862, Note_on_c, 6, 72, 117
10, 35872, Note_on_c, 6, 76, 0
10, 35902, Note_on_c, 6, 72, 0
10, 35908, Note_on_c, 6, 69, 122
10, 35954, Note_on_c, 6, 72, 119
10, 35994, Note_on_c, 6, 72, 0
10, 36000, Note_on_c, 6, 69, 0
10, 36004, Note_on_c, 6, 76, 116
10, 36050, Note_on_c, 6, 78, 117
10, 36052, Note_on_c, 6, 76, 0
10, 36076, Note_on_c, 6, 78, 0
10, 36102, Note_on_c, 6, 68, 109
10, 36290, Note_on_c, 6, 68, 0
10, 37254, Note_on_c, 6, 71, 120
10, 37288, Note_on_c, 6, 75, 114
10, 37322, Note_on_c, 6, 78, 117
10, 37334, Note_on_c, 6, 71, 0
10, 37346, Note_on_c, 6, 81, 110
10, 37370, Note_on_c, 6, 75, 0
10, 37374, Note_on_c, 6, 81, 0
10, 37374, Note_on_c, 6, 78, 0
10, 37374, Note_on_c, 6, 84, 116
10, 37396, Note_on_c, 6, 87, 117
10, 37404, Note_on_c, 6, 84, 0
10, 37412, Note_on_c, 6, 90, 86
10, 37424, Note_on_c, 6, 87, 0
10, 37442, Note_on_c, 6, 93, 121
10, 37444, Note_on_c, 6, 90, 0
10, 37472, Note_on_c, 6, 90, 93
10, 37490, Note_on_c, 6, 93, 0
10, 37514, Note_on_c, 6, 87, 110
10, 37526, Note_on_c, 6, 90, 0
10, 37544, Note_on_c, 6, 87, 0
10, 37546, Note_on_c, 6, 84, 107
10, 37570, Note_on_c, 6, 84, 0
10, 37574, Note_on_c, 6, 76, 107
10, 37596, Note_on_c, 6, 71, 116
10, 37598, Note_on_c, 6, 76, 0
10, 37616, Note_on_c, 6, 68, 114
10, 37624, Note_on_c, 6, 71, 0
10, 37642, Note_on_c, 6, 68, 0
10, 37642, Note_on_c, 6, 88, 117
10, 37776, Note_on_c, 6, 88, 0
10, 43394, Note_on_c, 6, 59, 120
10, 43422, Note_on_c, 6, 63, 117
10, 43442, Note_on_c, 6, 66, 118
10, 43448, Note_on_c, 6, 59, 0
10, 43462, Note_on_c, 6, 69, 114
10, 43464, Note_on_c, 6, 63, 0
10, 43472, Note_on_c, 6, 66, 0
10, 43478, Note_on_c, 6, 71, 109
10, 43484, Note_on_c, 6, 69, 0
10, 43494, Note_on_c, 6, 75, 114
10, 43500, Note_on_c, 6, 71, 0
10, 43508, Note_on_c, 6, 78, 110
10, 43524, Note_on_c, 6, 75, 0
10, 43530, Note_on_c, 6, 81, 119
10, 43538, Note_on_c, 6, 78, 0
10, 43564, Note_on_c, 6, 75, 112
10, 43582, Note_on_c, 6, 81, 0
10, 43582, Note_on_c, 6, 71, 121
10, 43586, Note_on_c, 6, 75, 0
10, 43610, Note_on_c, 6, 75, 127
10, 43620, Note_on_c, 6, 71, 0
10, 43632, Note_on_c, 6, 75, 0
10, 43638, Note_on_c, 6, 81, 119
10, 43660, Note_on_c, 6, 83, 119
10, 43662, Note_on_c, 6, 81, 0
10, 43680, Note_on_c, 6, 85, 114
10, 43684, Note_on_c, 6, 83, 0
10, 43690, Note_on_c, 6, 75, 110
10, 43692, Note_on_c, 6, 85, 0
10, 43694, Note_on_c, 6, 78, 121
10, 43700, Note_on_c, 6, 75, 0
10, 43718, Note_on_c, 6, 81, 124
10, 43720, Note_on_c, 6, 78, 0
10, 43728, Note_on_c, 6, 83, 116
10, 43740, Note_on_c, 6, 81, 0
10, 43750, Note_on_c, 6, 83, 0
10, 43752, Note_on_c, 6, 87, 127
10, 43780, Note_on_c, 6, 80, 115
10, 43788, Note_on_c, 6, 87, 0
10, 43796, Note_on_c, 6, 88, 127
10, 43798, Note_on_c, 6, 83, 119
10, 43828, Note_on_c, 6, 80, 0
10, 43842, Note_on_c, 6, 83, 0
10, 44048, Note_on_c, 6, 88, 0
10, 46276, Note_on_c, 6, 93, 127
10, 46324, Note_on_c, 6, 90, 86
10, 46356, Note_on_c, 6, 93, 0
10, 46370, Note_on_c, 6, 88, 114
10, 46380, Note_on_c, 6, 90, 0
10, 46410, Note_on_c, 6, 85, 113
10, 46422, Note_on_c, 6, 88, 0
10, 46458, Note_on_c, 6, 85, 0
10, 46462, Note_on_c, 6, 81, 123
10, 46516, Note_on_c, 6, 84, 118
10, 46524, Note_on_c, 6, 81, 0
10, 46554, Note_on_c, 6, 84, 0
10, 46562, Note_on_c, 6, 76, 114
10, 46614, Note_on_c, 6, 72, 117
10, 46624, Note_on_c, 6, 76, 0
10, 46654, Note_on_c, 6, 72, 0
10, 46660, Note_on_c, 6, 69, 122
10, 46706, Note_on_c, 6, 72, 119
10, 46746, Note_on_c, 6, 72, 0
10, 46752, Note_on_c, 6, 69, 0
10, 46756, Note_on_c, 6, 76, 116
10, 46802, Note_on_c, 6, 78, 117
10, 46804, Note_on_c, 6, 76, 0
10, 46828, Note_on_c, 6, 78, 0
10, 46854, Note_on_c, 6, 68, 109
10, 47042, Note_on_c, 6, 68, 0
10, 48006, Note_on_c, 6, 71, 120
10, 48040, Note_on_c, 6, 75, 114
10, 48074, Note_on_c, 6, 78, 117
10, 48086, Note_on_c, 6, 71, 0
10, 48098, Note_on_c, 6, 81, 110
10, 48122, Note_on_c, 6, 75, 0
10, 48126, Note_on_c, 6, 81, 0
10, 48126, Note_on_c, 6, 78, 0
10, 48126, Note_on_c, 6, 84, 116
10, 48148, Note_on_c, 6, 87, 117
10, 48156, Note_on_c, 6, 84, 0
10, 48164, Note_on_c, 6, 90, 86
10, 48176, Note_on_c, 6, 87, 0
10, 48194, Note_on_c, 6, 93, 121
10, 48196, Note_on_c, 6, 90, 0
10, 48224, Note_on_c, 6, 90, 93
10, 48242, Note_on_c, 6, 93, 0
10, 48266, Note_on_c, 6, 87, 110
10, 48278, Note_on_c, 6, 90, 0
10, 48296, Note_on_c, 6, 87, 0
10, 48298, Note_on_c, 6, 84, 107
10, 48322, Note_on_c, 6, 84, 0
10, 48326, Note_on_c, 6, 76, 107
10, 48348, Note_on_c, 6, 71, 116
10, 48350, Note_on_c, 6, 76, 0
10, 48368, Note_on_c, 6, 68, 114
10, 48376, Note_on_c, 6, 71, 0
10, 48394, Note_on_c, 6, 68, 0
10, 48402, Note_on_c, 6, 64, 116
10, 48652, Note_on_c, 6, 64, 0
10, 57028, Note_on_c, 6, 93, 127
10, 57076, Note_on_c, 6, 90, 86
10, 57108, Note_on_c, 6, 93, 0
10, 57122, Note_on_c, 6, 88, 114
10, 57132, Note_on_c, 6, 90, 0
10, 57162, Note_on_c, 6, 85, 113
10, 57174, Note_on_c, 6, 88, 0
10, 57210, Note_on_c, 6, 85, 0
10, 57214, Note_on_c, 6, 81, 123
10, 57268, Note_on_c, 6, 84, 118
10, 57276, Note_on_c, 6, 81, 0
10, 57306, Note_on_c, 6, 84, 0
10, 57314, Note_on_c, 6, 76, 114
10, 57366, Note_on_c, 6, 72, 117
10, 57376, Note_on_c, 6, 76, 0
10, 57406, Note_on_c, 6, 72, 0
10, 57412, Note_on_c, 6, 69, 122
10, 57458, Note_on_c, 6, 72, 119
10, 57498, Note_on_c, 6, 72, 0
10, 57504, Note_on_c, 6, 69, 0
10, 57508, Note_on_c, 6, 76, 116
10, 57554, Note_on_c, 6, 78, 117
10, 57556, Note_on_c, 6, 76, 0
10, 57580, Note_on_c, 6, 78, 0
10, 57606, Note_on_c, 6, 68, 109
10, 57794, Note_on_c, 6, 68, 0
10, 58758, Note_on_c, 6, 71, 120
10, 58792, Note_on_c, 6, 75, 114
10, 58826, Note_on_c, 6, 78, 117
10, 58838, Note_on_c, 6, 71, 0
10, 58850, Note_on_c, 6, 81, 110
10, 58874, Note_on_c, 6, 75, 0
10, 58878, Note_on_c, 6, 81, 0
10, 58878, Note_on_c, 6, 78, 0
10, 58878, Note_on_c, 6, 84, 116
10, 58900, Note_on_c, 6, 87, 117
10, 58908, Note_on_c, 6, 84, 0
10, 58916, Note_on_c, 6, 90, 86
10, 58928, Note_on_c, 6, 87, 0
10, 58946, Note_on_c, 6, 93, 121
10, 58948, Note_on_c, 6, 90, 0
10, 58976, Note_on_c, 6, 90, 93
10, 58994, Note_on_c, 6, 93, 0
10, 59018, Note_on_c, 6, 87, 110
10, 59030, Note_on_c, 6, 90, 0
10, 59048, Note_on_c, 6, 87, 0
10, 59050, Note_on_c, 6, 84, 107
10, 59074, Note_on_c, 6, 84, 0
10, 59078, Note_on_c, 6, 76, 107
10, 59100, Note_on_c, 6, 71, 116
10, 59102, Note_on_c, 6, 76, 0
10, 59120, Note_on_c, 6, 68, 114
10, 59128, Note_on_c, 6, 71, 0
10, 59146, Note_on_c, 6, 68, 0
10, 59150, Note_on_c, 6, 64, 118
10, 59240, Note_on_c, 6, 68, 121
10, 59332, Note_on_c, 6, 71, 117
10, 59426, Note_on_c, 6, 76, 102
10, 59462, Note_on_c, 6, 68, 0
10, 59498, Note_on_c, 6, 64, 0
10, 59504, Note_on_c, 6, 76, 0
10, 59510, Note_on_c, 6, 71, 0
10, 59516, Note_on_c, 6, 75, 119
10, 59528, Note_on_c, 6, 69, 115
10, 59616, Note_on_c, 6, 72, 121
10, 59712, Note_on_c, 6, 78, 109
10, 59744, Note_on_c, 6, 69, 0
10, 59754, Note_on_c, 6, 72, 0
10, 59810, Note_on_c, 6, 81, 107
10, 59860, Note_on_c, 6, 81, 0
10, 59868, Note_on_c, 6, 78, 0
10, 59874, Note_on_c, 6, 75, 0
10, 59904, Note_on_c, 6, 64, 112
10, 60002, Note_on_c, 6, 68, 113
10, 60098, Note_on_c, 6, 76, 116
10, 60158, Note_on_c, 6, 64, 0
10, 60172, Note_on_c, 6, 68, 0
10, 60188, Note_on_c, 6, 83, 114
10, 60216, Note_on_c, 6, 76, 0
10, 60240, Note_on_c, 6, 68, 110
10, 60262, Note_on_c, 6, 83, 0
10, 60268, Note_on_c, 6, 76, 113
10, 60288, Note_on_c, 6, 80, 109
10, 60288, Note_on_c, 6, 83, 121
10, 60292, Note_on_c, 6, 88, 117
10, 60372, Note_on_c, 6, 76, 0
10, 60386, Note_on_c, 6, 80, 0
10, 60388, Note_on_c, 6, 88, 0
10, 60426, Note_on_c, 6, 83, 0
10, 60562, Note_on_c, 6, 68, 0
10, 60562, End_track
11, 0, Start_track
11, 0, MIDI_port, 0
11, 0, Title_t, "Choir"
11, 0, Program_c, 7, 52
11, 0, Control_c, 7, 7, 90
11, 384, Control_c, 7, 121, 0
11, 384, Control_c, 7, 91, 100
11, 776, Note_on_c, 7, 68, 92
11, 778, Note_on_c, 7, 64, 102
11, 962, Note_on_c, 7, 71, 122
11, 1114, Note_on_c, 7, 66, 104
11, 1128, Note_on_c, 7, 69, 108
11, 1130, Note_on_c, 7, 68, 0
11, 1132, Note_on_c, 7, 64, 0
11, 1150, Note_on_c, 7, 72, 121
11, 1150, Note_on_c, 7, 76, 119
11, 1160, Note_on_c, 7, 71, 0
11, 1408, Note_on_c, 7, 69, 0
11, 1440, Note_on_c, 7, 69, 113
11, 1506, Note_on_c, 7, 72, 0
11, 1540, Note_on_c, 7, 69, 0
11, 1544, Note_on_c, 7, 75, 110
11, 1546, Note_on_c, 7, 71, 115
11, 1548, Note_on_c, 7, 68, 117
11, 1554, Note_on_c, 7, 66, 0
11, 1554, Note_on_c, 7, 76, 0
11, 1846, Note_on_c, 7, 71, 0
11, 1906, Note_on_c, 7, 65, 105
11, 1908, Note_on_c, 7, 79, 116
11, 1912, Note_on_c, 7, 68, 0
11, 1912, Note_on_c, 7, 71, 110
11, 1916, Note_on_c, 7, 75, 0
11, 2110, Note_on_c, 7, 80, 110
11, 2122, Note_on_c, 7, 79, 0
11, 2260, Note_on_c, 7, 71, 0
11, 2284, Note_on_c, 7, 66, 102
11, 2294, Note_on_c, 7, 65, 0
11, 2302, Note_on_c, 7, 69, 108
11, 2306, Note_on_c, 7, 80, 0
11, 2308, Note_on_c, 7, 73, 123
11, 2618, Note_on_c, 7, 69, 0
11, 2680, Note_on_c, 7, 69, 117
11, 2698, Note_on_c, 7, 80, 117
11, 2886, Note_on_c, 7, 78, 120
11, 2888, Note_on_c, 7, 80, 0
11, 3010, Note_on_c, 7, 69, 0
11, 3046, Note_on_c, 7, 73, 0
11, 3056, Note_on_c, 7, 65, 84
11, 3064, Note_on_c, 7, 66, 0
11, 3064, Note_on_c, 7, 69, 114
11, 3068, Note_on_c, 7, 76, 119
11, 3072, Note_on_c, 7, 72, 112
11, 3080, Note_on_c, 7, 78, 0
11, 3418, Note_on_c, 7, 76, 0
11, 3438, Note_on_c, 7, 65, 0
11, 3448, Note_on_c, 7, 80, 104
11, 3450, Note_on_c, 7, 71, 108
11, 3452, Note_on_c, 7, 75, 113
11, 3466, Note_on_c, 7, 72, 0
11, 3472, Note_on_c, 7, 69, 0
11, 3660, Note_on_c, 7, 79, 109
11, 3660, Note_on_c, 7, 69, 102
11, 3672, Note_on_c, 7, 80, 0
11, 3864, Note_on_c, 7, 79, 0
11, 3868, Note_on_c, 7, 75, 0
11, 3870, Note_on_c, 7, 69, 0
11, 3870, Note_on_c, 7, 76, 92
11, 3872, Note_on_c, 7, 68, 71
11, 4168, Note_on_c, 7, 76, 0
11, 4168, Note_on_c, 7, 71, 0
11, 4180, Note_on_c, 7, 68, 0
11, 14204, Note_on_c, 7, 61, 97
11, 14206, Note_on_c, 7, 68, 109
11, 14208, Note_on_c, 7, 65, 84
11, 14360, Note_on_c, 7, 65, 0
11, 14402, Note_on_c, 7, 71, 112
11, 14404, Note_on_c, 7, 65, 113
11, 14408, Note_on_c, 7, 68, 0
11, 14570, Note_on_c, 7, 65, 0
11, 14588, Note_on_c, 7, 66, 97
11, 14592, Note_on_c, 7, 61, 0
11, 14600, Note_on_c, 7, 73, 118
11, 14602, Note_on_c, 7, 69, 114
11, 14610, Note_on_c, 7, 71, 0
11, 14898, Note_on_c, 7, 69, 0
11, 14956, Note_on_c, 7, 69, 119
11, 15096, Note_on_c, 7, 66, 0
11, 15142, Note_on_c, 7, 73, 0
11, 15156, Note_on_c, 7, 73, 115
11, 15158, Note_on_c, 7, 66, 121
11, 15336, Note_on_c, 7, 71, 109
11, 15344, Note_on_c, 7, 66, 0
11, 15352, Note_on_c, 7, 80, 113
11, 15354, Note_on_c, 7, 69, 0
11, 15354, Note_on_c, 7, 75, 117
11, 15362, Note_on_c, 7, 73, 0
11, 15746, Note_on_c, 7, 69, 102
11, 15748, Note_on_c, 7, 80, 0
11, 15748, Note_on_c, 7, 79, 122
11, 16050, Note_on_c, 7, 75, 0
11, 16050, Note_on_c, 7, 69, 0
11, 16058, Note_on_c, 7, 78, 18
11, 16064, Note_on_c, 7, 68, 99
11, 16088, Note_on_c, 7, 76, 99
11, 16090, Note_on_c, 7, 71, 0
11, 16100, Note_on_c, 7, 79, 0
11, 16104, Note_on_c, 7, 75, 99
11, 16106, Note_on_c, 7, 68, 0
11, 16120, Note_on_c, 7, 78, 0
11, 16124, Note_on_c, 7, 76, 0
11, 16130, Note_on_c, 7, 68, 84
11, 16132, Note_on_c, 7, 71, 107
11, 16132, Note_on_c, 7, 64, 88
11, 16144, Note_on_c, 7, 75, 0
11, 16412, Note_on_c, 7, 71, 0
11, 16426, Note_on_c, 7, 64, 0
11, 16446, Note_on_c, 7, 68, 0
11, 17072, Note_on_c, 7, 68, 117
11, 17074, Note_on_c, 7, 64, 110
11, 17174, Note_on_c, 7, 71, 116
11, 17178, Note_on_c, 7, 68, 0
11, 17266, Note_on_c, 7, 72, 121
11, 17268, Note_on_c, 7, 66, 117
11, 17272, Note_on_c, 7, 71, 0
11, 17274, Note_on_c, 7, 69, 116
11, 17276, Note_on_c, 7, 64, 0
11, 17442, Note_on_c, 7, 69, 0
11, 17458, Note_on_c, 7, 75, 121
11, 17466, Note_on_c, 7, 69, 116
11, 17648, Note_on_c, 7, 69, 0
11, 17662, Note_on_c, 7, 68, 60
11, 17676, Note_on_c, 7, 71, 107
11, 17678, Note_on_c, 7, 76, 112
11, 17682, Note_on_c, 7, 66, 0
11, 17686, Note_on_c, 7, 72, 0
11, 17690, Note_on_c, 7, 75, 0
11, 18046, Note_on_c, 7, 76, 0
11, 18050, Note_on_c, 7, 71, 0
11, 18060, Note_on_c, 7, 68, 0
11, 18710, Note_on_c, 7, 76, 107
11, 18714, Note_on_c, 7, 73, 115
11, 18714, Note_on_c, 7, 66, 108
11, 18718, Note_on_c, 7, 69, 108
11, 18830, Note_on_c, 7, 66, 0
11, 18830, Note_on_c, 7, 72, 112
11, 18830, Note_on_c, 7, 75, 110
11, 18838, Note_on_c, 7, 76, 0
11, 18840, Note_on_c, 7, 73, 0
11, 18840, Note_on_c, 7, 65, 102
11, 19010, Note_on_c, 7, 69, 0
11, 19030, Note_on_c, 7, 69, 115
11, 19032, Note_on_c, 7, 71, 107
11, 19038, Note_on_c, 7, 71, 0
11, 19136, Note_on_c, 7, 65, 0
11, 19190, Note_on_c, 7, 72, 0
11, 19190, Note_on_c, 7, 68, 108
11, 19192, Note_on_c, 7, 69, 0
11, 19192, Note_on_c, 7, 64, 99
11, 19192, Note_on_c, 7, 71, 113
11, 19204, Note_on_c, 7, 75, 0
11, 19584, Note_on_c, 7, 68, 0
11, 19588, Note_on_c, 7, 64, 0
11, 19588, Note_on_c, 7, 71, 0
11, 20728, Note_on_c, 7, 73, 115
11, 20730, Note_on_c, 7, 69, 112
11, 20732, Note_on_c, 7, 61, 109
11, 21110, Note_on_c, 7, 62, 109
11, 21110, Note_on_c, 7, 74, 121
11, 21124, Note_on_c, 7, 61, 0
11, 21124, Note_on_c, 7, 73, 0
11, 21474, Note_on_c, 7, 69, 0
11, 21494, Note_on_c, 7, 75, 117
11, 21494, Note_on_c, 7, 63, 110
11, 21496, Note_on_c, 7, 66, 105
11, 21500, Note_on_c, 7, 71, 114
11, 21506, Note_on_c, 7, 62, 0
11, 21508, Note_on_c, 7, 74, 0
11, 21784, Note_on_c, 7, 71, 0
11, 21856, Note_on_c, 7, 75, 0
11, 21870, Note_on_c, 7, 80, 117
11, 21870, Note_on_c, 7, 71, 124
11, 21872, Note_on_c, 7, 75, 121
11, 21874, Note_on_c, 7, 63, 0
11, 21882, Note_on_c, 7, 66, 0
11, 22074, Note_on_c, 7, 80, 0
11, 22074, Note_on_c, 7, 78, 125
11, 22080, Note_on_c, 7, 69, 119
11, 22244, Note_on_c, 7, 71, 0
11, 22246, Note_on_c, 7, 78, 0
11, 22256, Note_on_c, 7, 68, 107
11, 22264, Note_on_c, 7, 78, 125
11, 22266, Note_on_c, 7, 71, 116
11, 22270, Note_on_c, 7, 69, 0
11, 22272, Note_on_c, 7, 75, 0
11, 22456, Note_on_c, 7, 76, 119
11, 22468, Note_on_c, 7, 78, 0
11, 22614, Note_on_c, 7, 71, 0
11, 22646, Note_on_c, 7, 71, 110
11, 22646, Note_on_c, 7, 64, 104
11, 22648, Note_on_c, 7, 76, 0
11, 22878, Note_on_c, 7, 68, 0
11, 22916, Note_on_c, 7, 64, 0
11, 22998, Note_on_c, 7, 71, 0
11, 23004, Note_on_c, 7, 66, 113
11, 23020, Note_on_c, 7, 75, 123
11, 23022, Note_on_c, 7, 71, 117
11, 23228, Note_on_c, 7, 73, 115
11, 23232, Note_on_c, 7, 69, 109
11, 23234, Note_on_c, 7, 75, 0
11, 23234, Note_on_c, 7, 64, 105
11, 23240, Note_on_c, 7, 71, 0
11, 23242, Note_on_c, 7, 66, 0
11, 23642, Note_on_c, 7, 64, 0
11, 23648, Note_on_c, 7, 73, 0
11, 23654, Note_on_c, 7, 69, 0
11, 23772, Note_on_c, 7, 61, 99
11, 23792, Note_on_c, 7, 65, 108
11, 23802, Note_on_c, 7, 73, 115
11, 23802, Note_on_c, 7, 68, 122
11, 23940, Note_on_c, 7, 65, 0
11, 23986, Note_on_c, 7, 71, 112
11, 23992, Note_on_c, 7, 65, 104
11, 23994, Note_on_c, 7, 73, 0
11, 24322, Note_on_c, 7, 65, 0
11, 24374, Note_on_c, 7, 73, 110
11, 24376, Note_on_c, 7, 65, 101
11, 24564, Note_on_c, 7, 68, 0
11, 24570, Note_on_c, 7, 71, 0
11, 24570, Note_on_c, 7, 69, 108
11, 24572, Note_on_c, 7, 66, 97
11, 24576, Note_on_c, 7, 73, 0
11, 24580, Note_on_c, 7, 61, 0
11, 24582, Note_on_c, 7, 65, 0
11, 24954, Note_on_c, 7, 66, 0
11, 24956, Note_on_c, 7, 64, 102
11, 24956, Note_on_c, 7, 60, 97
11, 25086, Note_on_c, 7, 69, 0
11, 25148, Note_on_c, 7, 60, 0
11, 25154, Note_on_c, 7, 64, 0
11, 26888, Note_on_c, 7, 64, 114
11, 26890, Note_on_c, 7, 68, 115
11, 26890, Note_on_c, 7, 71, 115
11, 27068, Note_on_c, 7, 68, 0
11, 27086, Note_on_c, 7, 76, 121
11, 27092, Note_on_c, 7, 68, 121
11, 27204, Note_on_c, 7, 64, 0
11, 27230, Note_on_c, 7, 71, 0
11, 27242, Note_on_c, 7, 68, 0
11, 27254, Note_on_c, 7, 75, 115
11, 27256, Note_on_c, 7, 66, 107
11, 27258, Note_on_c, 7, 72, 121
11, 27260, Note_on_c, 7, 69, 119
11, 27262, Note_on_c, 7, 76, 0
11, 27510, Note_on_c, 7, 69, 0
11, 27546, Note_on_c, 7, 69, 117
11, 27632, Note_on_c, 7, 72, 0
11, 27644, Note_on_c, 7, 66, 0
11, 27646, Note_on_c, 7, 69, 0
11, 27650, Note_on_c, 7, 68, 71
11, 27652, Note_on_c, 7, 64, 95
11, 27656, Note_on_c, 7, 76, 112
11, 27658, Note_on_c, 7, 71, 108
11, 27670, Note_on_c, 7, 75, 0
11, 27744, Note_on_c, 7, 68, 0
11, 27764, Note_on_c, 7, 68, 125
11, 27820, Note_on_c, 7, 71, 0
11, 27840, Note_on_c, 7, 64, 0
11, 27842, Note_on_c, 7, 71, 115
11, 27914, Note_on_c, 7, 76, 0
11, 27920, Note_on_c, 7, 69, 95
11, 27922, Note_on_c, 7, 76, 119
11, 27928, Note_on_c, 7, 69, 0
11, 28002, Note_on_c, 7, 71, 0
11, 28016, Note_on_c, 7, 69, 101
11, 28018, Note_on_c, 7, 78, 102
11, 28018, Note_on_c, 7, 75, 114
11, 28024, Note_on_c, 7, 68, 0
11, 28026, Note_on_c, 7, 72, 107
11, 28030, Note_on_c, 7, 76, 0
11, 28268, Note_on_c, 7, 72, 0
11, 28314, Note_on_c, 7, 72, 108
11, 28386, Note_on_c, 7, 72, 0
11, 28412, Note_on_c, 7, 75, 0
11, 28414, Note_on_c, 7, 76, 112
11, 28416, Note_on_c, 7, 68, 101
11, 28418, Note_on_c, 7, 78, 0
11, 28424, Note_on_c, 7, 71, 115
11, 28426, Note_on_c, 7, 69, 0
11, 28660, Note_on_c, 7, 71, 0
11, 28696, Note_on_c, 7, 68, 0
11, 28786, Note_on_c, 7, 76, 0
11, 28788, Note_on_c, 7, 69, 115
11, 28798, Note_on_c, 7, 64, 105
11, 28798, Note_on_c, 7, 56, 97
11, 28986, Note_on_c, 7, 68, 107
11, 28992, Note_on_c, 7, 69, 0
11, 29004, Note_on_c, 7, 56, 0
11, 29092, Note_on_c, 7, 64, 0
11, 29144, Note_on_c, 7, 68, 0
11, 29172, Note_on_c, 7, 69, 109
11, 29176, Note_on_c, 7, 57, 110
11, 29336, Note_on_c, 7, 57, 0
11, 29362, Note_on_c, 7, 73, 122
11, 29362, Note_on_c, 7, 66, 121
11, 29550, Note_on_c, 7, 66, 0
11, 29552, Note_on_c, 7, 72, 121
11, 29554, Note_on_c, 7, 73, 0
11, 29556, Note_on_c, 7, 65, 104
11, 29744, Note_on_c, 7, 75, 110
11, 29754, Note_on_c, 7, 72, 0
11, 29930, Note_on_c, 7, 65, 0
11, 29932, Note_on_c, 7, 64, 99
11, 29940, Note_on_c, 7, 68, 97
11, 29946, Note_on_c, 7, 69, 0
11, 29950, Note_on_c, 7, 71, 110
11, 29956, Note_on_c, 7, 75, 0
11, 30316, Note_on_c, 7, 64, 0
11, 30318, Note_on_c, 7, 68, 0
11, 30330, Note_on_c, 7, 73, 124
11, 30332, Note_on_c, 7, 62, 102
11, 30334, Note_on_c, 7, 66, 104
11, 30336, Note_on_c, 7, 71, 0
11, 30598, Note_on_c, 7, 66, 0
11, 30604, Note_on_c, 7, 62, 0
11, 30610, Note_on_c, 7, 71, 125
11, 30612, Note_on_c, 7, 73, 0
11, 30708, Note_on_c, 7, 61, 99
11, 30710, Note_on_c, 7, 69, 117
11, 30714, Note_on_c, 7, 71, 0
11, 30714, Note_on_c, 7, 65, 99
11, 31066, Note_on_c, 7, 65, 0
11, 31110, Note_on_c, 7, 65, 107
11, 31286, Note_on_c, 7, 68, 123
11, 31298, Note_on_c, 7, 69, 0
11, 31410, Note_on_c, 7, 65, 0
11, 31432, Note_on_c, 7, 61, 0
11, 31478, Note_on_c, 7, 66, 122
11, 31484, Note_on_c, 7, 68, 0
11, 31886, Note_on_c, 7, 66, 0
11, 33208, Note_on_c, 7, 76, 119
11, 33398, Note_on_c, 7, 71, 110
11, 33398, Note_on_c, 7, 64, 104
11, 33400, Note_on_c, 7, 76, 0
11, 33668, Note_on_c, 7, 64, 0
11, 33750, Note_on_c, 7, 71, 0
11, 33756, Note_on_c, 7, 66, 113
11, 33772, Note_on_c, 7, 75, 123
11, 33774, Note_on_c, 7, 71, 117
11, 33980, Note_on_c, 7, 73, 115
11, 33984, Note_on_c, 7, 69, 109
11, 33986, Note_on_c, 7, 75, 0
11, 33986, Note_on_c, 7, 64, 105
11, 33992, Note_on_c, 7, 71, 0
11, 33994, Note_on_c, 7, 66, 0
11, 34394, Note_on_c, 7, 64, 0
11, 34400, Note_on_c, 7, 73, 0
11, 34406, Note_on_c, 7, 69, 0
11, 34524, Note_on_c, 7, 61, 99
11, 34544, Note_on_c, 7, 65, 108
11, 34554, Note_on_c, 7, 73, 115
11, 34554, Note_on_c, 7, 68, 122
11, 34692, Note_on_c, 7, 65, 0
11, 34738, Note_on_c, 7, 71, 112
11, 34744, Note_on_c, 7, 65, 104
11, 34746, Note_on_c, 7, 73, 0
11, 35074, Note_on_c, 7, 65, 0
11, 35126, Note_on_c, 7, 73, 110
11, 35128, Note_on_c, 7, 65, 101
11, 35316, Note_on_c, 7, 68, 0
11, 35322, Note_on_c, 7, 71, 0
11, 35322, Note_on_c, 7, 69, 108
11, 35324, Note_on_c, 7, 66, 97
11, 35328, Note_on_c, 7, 73, 0
11, 35332, Note_on_c, 7, 61, 0
11, 35334, Note_on_c, 7, 65, 0
11, 35706, Note_on_c, 7, 66, 0
11, 35708, Note_on_c, 7, 64, 102
11, 35708, Note_on_c, 7, 60, 97
11, 35838, Note_on_c, 7, 69, 0
11, 35900, Note_on_c, 7, 60, 0
11, 35906, Note_on_c, 7, 64, 0
11, 37634, Note_on_c, 7, 68, 84
11, 37636, Note_on_c, 7, 71, 107
11, 37636, Note_on_c, 7, 64, 88
11, 37916, Note_on_c, 7, 71, 0
11, 37930, Note_on_c, 7, 64, 0
11, 37950, Note_on_c, 7, 68, 0
11, 38576, Note_on_c, 7, 68, 117
11, 38578, Note_on_c, 7, 64, 110
11, 38678, Note_on_c, 7, 71, 116
11, 38682, Note_on_c, 7, 68, 0
11, 38770, Note_on_c, 7, 72, 121
11, 38772, Note_on_c, 7, 66, 117
11, 38776, Note_on_c, 7, 71, 0
11, 38778, Note_on_c, 7, 69, 116
11, 38780, Note_on_c, 7, 64, 0
11, 38946, Note_on_c, 7, 69, 0
11, 38962, Note_on_c, 7, 75, 121
11, 38970, Note_on_c, 7, 69, 116
11, 39152, Note_on_c, 7, 69, 0
11, 39166, Note_on_c, 7, 68, 60
11, 39180, Note_on_c, 7, 71, 107
11, 39182, Note_on_c, 7, 76, 112
11, 39186, Note_on_c, 7, 66, 0
11, 39190, Note_on_c, 7, 72, 0
11, 39194, Note_on_c, 7, 75, 0
11, 39550, Note_on_c, 7, 76, 0
11, 39554, Note_on_c, 7, 71, 0
11, 39564, Note_on_c, 7, 68, 0
11, 40214, Note_on_c, 7, 76, 107
11, 40218, Note_on_c, 7, 73, 115
11, 40218, Note_on_c, 7, 66, 108
11, 40222, Note_on_c, 7, 69, 108
11, 40334, Note_on_c, 7, 66, 0
11, 40334, Note_on_c, 7, 72, 112
11, 40334, Note_on_c, 7, 75, 110
11, 40342, Note_on_c, 7, 76, 0
11, 40344, Note_on_c, 7, 73, 0
11, 40344, Note_on_c, 7, 65, 102
11, 40514, Note_on_c, 7, 69, 0
11, 40534, Note_on_c, 7, 69, 115
11, 40536, Note_on_c, 7, 71, 107
11, 40542, Note_on_c, 7, 71, 0
11, 40640, Note_on_c, 7, 65, 0
11, 40694, Note_on_c, 7, 72, 0
11, 40694, Note_on_c, 7, 68, 108
11, 40696, Note_on_c, 7, 69, 0
11, 40696, Note_on_c, 7, 64, 99
11, 40696, Note_on_c, 7, 71, 113
11, 40708, Note_on_c, 7, 75, 0
11, 41088, Note_on_c, 7, 68, 0
11, 41092, Note_on_c, 7, 64, 0
11, 41092, Note_on_c, 7, 71, 0
11, 42232, Note_on_c, 7, 73, 115
11, 42234, Note_on_c, 7, 69, 112
11, 42236, Note_on_c, 7, 61, 109
11, 42614, Note_on_c, 7, 62, 109
11, 42614, Note_on_c, 7, 74, 121
11, 42628, Note_on_c, 7, 61, 0
11, 42628, Note_on_c, 7, 73, 0
11, 42978, Note_on_c, 7, 69, 0
11, 42998, Note_on_c, 7, 75, 117
11, 42998, Note_on_c, 7, 63, 110
11, 43000, Note_on_c, 7, 66, 105
11, 43004, Note_on_c, 7, 71, 114
11, 43010, Note_on_c, 7, 62, 0
11, 43012, Note_on_c, 7, 74, 0
11, 43288, Note_on_c, 7, 71, 0
11, 43360, Note_on_c, 7, 75, 0
11, 43374, Note_on_c, 7, 80, 117
11, 43374, Note_on_c, 7, 71, 124
11, 43376, Note_on_c, 7, 75, 121
11, 43378, Note_on_c, 7, 63, 0
11, 43386, Note_on_c, 7, 66, 0
11, 43578, Note_on_c, 7, 80, 0
11, 43578, Note_on_c, 7, 78, 125
11, 43584, Note_on_c, 7, 69, 119
11, 43748, Note_on_c, 7, 71, 0
11, 43750, Note_on_c, 7, 78, 0
11, 43760, Note_on_c, 7, 68, 107
11, 43768, Note_on_c, 7, 78, 125
11, 43770, Note_on_c, 7, 71, 116
11, 43774, Note_on_c, 7, 69, 0
11, 43776, Note_on_c, 7, 75, 0
11, 43960, Note_on_c, 7, 76, 119
11, 43972, Note_on_c, 7, 78, 0
11, 44118, Note_on_c, 7, 71, 0
11, 44150, Note_on_c, 7, 71, 110
11, 44150, Note_on_c, 7, 64, 104
11, 44152, Note_on_c, 7, 76, 0
11, 44382, Note_on_c, 7, 68, 0
11, 44420, Note_on_c, 7, 64, 0
11, 44502, Note_on_c, 7, 71, 0
11, 44508, Note_on_c, 7, 66, 113
11, 44524, Note_on_c, 7, 75, 123
11, 44526, Note_on_c, 7, 71, 117
11, 44732, Note_on_c, 7, 73, 115
11, 44736, Note_on_c, 7, 69, 109
11, 44738, Note_on_c, 7, 75, 0
11, 44738, Note_on_c, 7, 64, 105
11, 44744, Note_on_c, 7, 71, 0
11, 44746, Note_on_c, 7, 66, 0
11, 45146, Note_on_c, 7, 64, 0
11, 45152, Note_on_c, 7, 73, 0
11, 45158, Note_on_c, 7, 69, 0
11, 45276, Note_on_c, 7, 61, 99
11, 45296, Note_on_c, 7, 65, 108
11, 45306, Note_on_c, 7, 73, 115
11, 45306, Note_on_c, 7, 68, 122
11, 45444, Note_on_c, 7, 65, 0
11, 45490, Note_on_c, 7, 71, 112
11, 45496, Note_on_c, 7, 65, 104
11, 45498, Note_on_c, 7, 73, 0
11, 45826, Note_on_c, 7, 65, 0
11, 45878, Note_on_c, 7, 73, 110
11, 45880, Note_on_c, 7, 65, 101
11, 46068, Note_on_c, 7, 68, 0
11, 46074, Note_on_c, 7, 71, 0
11, 46074, Note_on_c, 7, 69, 108
11, 46076, Note_on_c, 7, 66, 97
11, 46080, Note_on_c, 7, 73, 0
11, 46084, Note_on_c, 7, 61, 0
11, 46086, Note_on_c, 7, 65, 0
11, 46458, Note_on_c, 7, 66, 0
11, 46460, Note_on_c, 7, 64, 102
11, 46460, Note_on_c, 7, 60, 97
11, 46590, Note_on_c, 7, 69, 0
11, 46652, Note_on_c, 7, 60, 0
11, 46658, Note_on_c, 7, 64, 0
11, 48392, Note_on_c, 7, 64, 114
11, 48394, Note_on_c, 7, 68, 115
11, 48394, Note_on_c, 7, 71, 115
11, 48572, Note_on_c, 7, 68, 0
11, 48590, Note_on_c, 7, 76, 121
11, 48596, Note_on_c, 7, 68, 121
11, 48708, Note_on_c, 7, 64, 0
11, 48734, Note_on_c, 7, 71, 0
11, 48746, Note_on_c, 7, 68, 0
11, 48758, Note_on_c, 7, 75, 115
11, 48760, Note_on_c, 7, 66, 107
11, 48762, Note_on_c, 7, 72, 121
11, 48764, Note_on_c, 7, 69, 119
11, 48766, Note_on_c, 7, 76, 0
11, 49014, Note_on_c, 7, 69, 0
11, 49050, Note_on_c, 7, 69, 117
11, 49136, Note_on_c, 7, 72, 0
11, 49148, Note_on_c, 7, 66, 0
11, 49150, Note_on_c, 7, 69, 0
11, 49154, Note_on_c, 7, 68, 71
11, 49156, Note_on_c, 7, 64, 95
11, 49160, Note_on_c, 7, 76, 112
11, 49162, Note_on_c, 7, 71, 108
11, 49174, Note_on_c, 7, 75, 0
11, 49248, Note_on_c, 7, 68, 0
11, 49268, Note_on_c, 7, 68, 125
11, 49324, Note_on_c, 7, 71, 0
11, 49344, Note_on_c, 7, 64, 0
11, 49346, Note_on_c, 7, 71, 115
11, 49418, Note_on_c, 7, 76, 0
11, 49424, Note_on_c, 7, 69, 95
11, 49426, Note_on_c, 7, 76, 119
11, 49432, Note_on_c, 7, 69, 0
11, 49506, Note_on_c, 7, 71, 0
11, 49520, Note_on_c, 7, 69, 101
11, 49522, Note_on_c, 7, 78, 102
11, 49522, Note_on_c, 7, 75, 114
11, 49528, Note_on_c, 7, 68, 0
11, 49530, Note_on_c, 7, 72, 107
11, 49534, Note_on_c, 7, 76, 0
11, 49772, Note_on_c, 7, 72, 0
11, 49818, Note_on_c, 7, 72, 108
11, 49890, Note_on_c, 7, 72, 0
11, 49916, Note_on_c, 7, 75, 0
11, 49918, Note_on_c, 7, 76, 112
11, 49920, Note_on_c, 7, 68, 101
11, 49922, Note_on_c, 7, 78, 0
11, 49928, Note_on_c, 7, 71, 115
11, 49930, Note_on_c, 7, 69, 0
11, 50164, Note_on_c, 7, 71, 0
11, 50200, Note_on_c, 7, 68, 0
11, 50290, Note_on_c, 7, 76, 0
11, 50292, Note_on_c, 7, 69, 115
11, 50302, Note_on_c, 7, 64, 105
11, 50302, Note_on_c, 7, 56, 97
11, 50490, Note_on_c, 7, 68, 107
11, 50496, Note_on_c, 7, 69, 0
11, 50508, Note_on_c, 7, 56, 0
11, 50596, Note_on_c, 7, 64, 0
11, 50648, Note_on_c, 7, 68, 0
11, 50676, Note_on_c, 7, 69, 109
11, 50680, Note_on_c, 7, 57, 110
11, 50840, Note_on_c, 7, 57, 0
11, 50866, Note_on_c, 7, 73, 122
11, 50866, Note_on_c, 7, 66, 121
11, 51054, Note_on_c, 7, 66, 0
11, 51056, Note_on_c, 7, 72, 121
11, 51058, Note_on_c, 7, 73, 0
11, 51060, Note_on_c, 7, 65, 104
11, 51248, Note_on_c, 7, 75, 110
11, 51258, Note_on_c, 7, 72, 0
11, 51434, Note_on_c, 7, 65, 0
11, 51436, Note_on_c, 7, 64, 99
11, 51444, Note_on_c, 7, 68, 97
11, 51450, Note_on_c, 7, 69, 0
11, 51454, Note_on_c, 7, 71, 110
11, 51460, Note_on_c, 7, 75, 0
11, 51820, Note_on_c, 7, 64, 0
11, 51822, Note_on_c, 7, 68, 0
11, 51834, Note_on_c, 7, 73, 124
11, 51836, Note_on_c, 7, 62, 102
11, 51838, Note_on_c, 7, 66, 104
11, 51840, Note_on_c, 7, 71, 0
11, 52102, Note_on_c, 7, 66, 0
11, 52108, Note_on_c, 7, 62, 0
11, 52114, Note_on_c, 7, 71, 125
11, 52116, Note_on_c, 7, 73, 0
11, 52212, Note_on_c, 7, 61, 99
11, 52214, Note_on_c, 7, 69, 117
11, 52218, Note_on_c, 7, 71, 0
11, 52218, Note_on_c, 7, 65, 99
11, 52570, Note_on_c, 7, 65, 0
11, 52614, Note_on_c, 7, 65, 107
11, 52790, Note_on_c, 7, 68, 123
11, 52802, Note_on_c, 7, 69, 0
11, 52914, Note_on_c, 7, 65, 0
11, 52936, Note_on_c, 7, 61, 0
11, 52982, Note_on_c, 7, 66, 122
11, 52988, Note_on_c, 7, 68, 0
11, 53390, Note_on_c, 7, 66, 0
11, 54712, Note_on_c, 7, 76, 119
11, 54902, Note_on_c, 7, 71, 110
11, 54902, Note_on_c, 7, 64, 104
11, 54904, Note_on_c, 7, 76, 0
11, 55172, Note_on_c, 7, 64, 0
11, 55254, Note_on_c, 7, 71, 0
11, 55260, Note_on_c, 7, 66, 113
11, 55276, Note_on_c, 7, 75, 123
11, 55278, Note_on_c, 7, 71, 117
11, 55484, Note_on_c, 7, 73, 115
11, 55488, Note_on_c, 7, 69, 109
11, 55490, Note_on_c, 7, 75, 0
11, 55490, Note_on_c, 7, 64, 105
11, 55496, Note_on_c, 7, 71, 0
11, 55498, Note_on_c, 7, 66, 0
11, 55898, Note_on_c, 7, 64, 0
11, 55904, Note_on_c, 7, 73, 0
11, 55910, Note_on_c, 7, 69, 0
11, 56028, Note_on_c, 7, 61, 99
11, 56048, Note_on_c, 7, 65, 108
11, 56058, Note_on_c, 7, 73, 115
11, 56058, Note_on_c, 7, 68, 122
11, 56196, Note_on_c, 7, 65, 0
11, 56242, Note_on_c, 7, 71, 112
11, 56248, Note_on_c, 7, 65, 104
11, 56250, Note_on_c, 7, 73, 0
11, 56578, Note_on_c, 7, 65, 0
11, 56630, Note_on_c, 7, 73, 110
11, 56632, Note_on_c, 7, 65, 101
11, 56820, Note_on_c, 7, 68, 0
11, 56826, Note_on_c, 7, 71, 0
11, 56826, Note_on_c, 7, 69, 108
11, 56828, Note_on_c, 7, 66, 97
11, 56832, Note_on_c, 7, 73, 0
11, 56836, Note_on_c, 7, 61, 0
11, 56838, Note_on_c, 7, 65, 0
11, 57210, Note_on_c, 7, 66, 0
11, 57212, Note_on_c, 7, 64, 102
11, 57212, Note_on_c, 7, 60, 97
11, 57342, Note_on_c, 7, 69, 0
11, 57404, Note_on_c, 7, 60, 0
11, 57410, Note_on_c, 7, 64, 0
11, 59166, Note_on_c, 7, 76, 92
11, 59168, Note_on_c, 7, 68, 71
11, 59464, Note_on_c, 7, 76, 0
11, 59476, Note_on_c, 7, 68, 0
11, 59476, End_track
12, 0, Start_track
12, 0, MIDI_port, 0
12, 0, Title_t, "Drums"
12, 0, Program_c, 9, 0
12, 0, Control_c, 9, 7, 100
12, 0, Control_c, 9, 121, 0
12, 0, Control_c, 9, 91, 120
12, 9984, Note_on_c, 9, 35, 120
12, 9986, Note_on_c, 9, 35, 0
12, 9988, Note_on_c, 9, 51, 121
12, 9990, Note_on_c, 9, 51, 0
12, 10178, Note_on_c, 9, 37, 125
12, 10178, Note_on_c, 9, 51, 121
12, 10180, Note_on_c, 9, 51, 0
12, 10180, Note_on_c, 9, 37, 0
12, 10274, Note_on_c, 9, 35, 120
12, 10276, Note_on_c, 9, 35, 0
12, 10370, Note_on_c, 9, 35, 120
12, 10370, Note_on_c, 9, 51, 121
12, 10372, Note_on_c, 9, 51, 0
12, 10372, Note_on_c, 9, 35, 0
12, 10562, Note_on_c, 9, 37, 125
12, 10564, Note_on_c, 9, 37, 0
12, 10564, Note_on_c, 9, 51, 121
12, 10566, Note_on_c, 9, 51, 0
12, 10754, Note_on_c, 9, 35, 120
12, 10756, Note_on_c, 9, 35, 0
12, 10758, Note_on_c, 9, 51, 111
12, 10760, Note_on_c, 9, 51, 0
12, 10946, Note_on_c, 9, 37, 125
12, 10948, Note_on_c, 9, 37, 0
12, 10948, Note_on_c, 9, 51, 111
12, 10950, Note_on_c, 9, 51, 0
12, 11042, Note_on_c, 9, 35, 120
12, 11044, Note_on_c, 9, 35, 0
12, 11138, Note_on_c, 9, 51, 111
12, 11140, Note_on_c, 9, 51, 0
12, 11234, Note_on_c, 9, 35, 120
12, 11236, Note_on_c, 9, 35, 0
12, 11330, Note_on_c, 9, 37, 125
12, 11330, Note_on_c, 9, 51, 111
12, 11332, Note_on_c, 9, 51, 0
12, 11332, Note_on_c, 9, 37, 0
12, 11426, Note_on_c, 9, 35, 120
12, 11428, Note_on_c, 9, 35, 0
12, 11522, Note_on_c, 9, 35, 120
12, 11524, Note_on_c, 9, 35, 0
12, 11524, Note_on_c, 9, 51, 111
12, 11526, Note_on_c, 9, 51, 0
12, 11714, Note_on_c, 9, 37, 125
12, 11714, Note_on_c, 9, 51, 111
12, 11716, Note_on_c, 9, 51, 0
12, 11716, Note_on_c, 9, 37, 0
12, 11810, Note_on_c, 9, 35, 120
12, 11812, Note_on_c, 9, 35, 0
12, 11906, Note_on_c, 9, 35, 120
12, 11906, Note_on_c, 9, 51, 111
12, 11908, Note_on_c, 9, 51, 0
12, 11908, Note_on_c, 9, 35, 0
12, 12098, Note_on_c, 9, 37, 125
12, 12098, Note_on_c, 9, 51, 111
12, 12100, Note_on_c, 9, 51, 0
12, 12100, Note_on_c, 9, 37, 0
12, 12290, Note_on_c, 9, 35, 120
12, 12292, Note_on_c, 9, 35, 0
12, 12292, Note_on_c, 9, 51, 111
12, 12294, Note_on_c, 9, 51, 0
12, 12482, Note_on_c, 9, 37, 125
12, 12484, Note_on_c, 9, 37, 0
12, 12484, Note_on_c, 9, 51, 111
12, 12486, Note_on_c, 9, 51, 0
12, 12578, Note_on_c, 9, 35, 120
12, 12580, Note_on_c, 9, 35, 0
12, 12674, Note_on_c, 9, 51, 111
12, 12676, Note_on_c, 9, 51, 0
12, 12770, Note_on_c, 9, 35, 120
12, 12772, Note_on_c, 9, 35, 0
12, 12866, Note_on_c, 9, 37, 125
12, 12866, Note_on_c, 9, 51, 111
12, 12868, Note_on_c, 9, 51, 0
12, 12868, Note_on_c, 9, 37, 0
12, 12962, Note_on_c, 9, 35, 120
12, 12964, Note_on_c, 9, 35, 0
12, 13058, Note_on_c, 9, 35, 120
12, 13060, Note_on_c, 9, 35, 0
12, 13062, Note_on_c, 9, 51, 111
12, 13064, Note_on_c, 9, 51, 0
12, 13250, Note_on_c, 9, 37, 125
12, 13252, Note_on_c, 9, 37, 0
12, 13252, Note_on_c, 9, 51, 111
12, 13254, Note_on_c, 9, 51, 0
12, 13346, Note_on_c, 9, 35, 120
12, 13348, Note_on_c, 9, 35, 0
12, 13442, Note_on_c, 9, 35, 120
12, 13442, Note_on_c, 9, 51, 111
12, 13444, Note_on_c, 9, 51, 0
12, 13444, Note_on_c, 9, 35, 0
12, 13634, Note_on_c, 9, 37, 125
12, 13636, Note_on_c, 9, 37, 0
12, 13636, Note_on_c, 9, 51, 111
12, 13638, Note_on_c, 9, 51, 0
12, 13826, Note_on_c, 9, 35, 120
12, 13828, Note_on_c, 9, 35, 0
12, 13828, Note_on_c, 9, 51, 111
12, 13830, Note_on_c, 9, 51, 0
12, 14018, Note_on_c, 9, 37, 125
12, 14018, Note_on_c, 9, 51, 111
12, 14020, Note_on_c, 9, 51, 0
12, 14020, Note_on_c, 9, 37, 0
12, 14114, Note_on_c, 9, 35, 120
12, 14116, Note_on_c, 9, 35, 0
12, 14210, Note_on_c, 9, 51, 111
12, 14212, Note_on_c, 9, 51, 0
12, 14306, Note_on_c, 9, 35, 120
12, 14308, Note_on_c, 9, 35, 0
12, 14402, Note_on_c, 9, 37, 125
12, 14404, Note_on_c, 9, 37, 0
12, 14404, Note_on_c, 9, 51, 111
12, 14406, Note_on_c, 9, 51, 0
12, 14498, Note_on_c, 9, 35, 120
12, 14500, Note_on_c, 9, 35, 0
12, 14594, Note_on_c, 9, 35, 120
12, 14596, Note_on_c, 9, 35, 0
12, 14596, Note_on_c, 9, 51, 111
12, 14598, Note_on_c, 9, 51, 0
12, 14786, Note_on_c, 9, 37, 125
12, 14788, Note_on_c, 9, 37, 0
12, 14788, Note_on_c, 9, 51, 111
12, 14790, Note_on_c, 9, 51, 0
12, 14882, Note_on_c, 9, 35, 120
12, 14884, Note_on_c, 9, 35, 0
12, 14978, Note_on_c, 9, 35, 120
12, 14978, Note_on_c, 9, 51, 111
12, 14980, Note_on_c, 9, 51, 0
12, 14980, Note_on_c, 9, 35, 0
12, 15170, Note_on_c, 9, 37, 125
12, 15170, Note_on_c, 9, 51, 111
12, 15172, Note_on_c, 9, 51, 0
12, 15172, Note_on_c, 9, 37, 0
12, 15362, Note_on_c, 9, 35, 120
12, 15364, Note_on_c, 9, 35, 0
12, 15364, Note_on_c, 9, 51, 111
12, 15366, Note_on_c, 9, 51, 0
12, 15554, Note_on_c, 9, 37, 125
12, 15556, Note_on_c, 9, 37, 0
12, 15556, Note_on_c, 9, 51, 111
12, 15558, Note_on_c, 9, 51, 0
12, 15650, Note_on_c, 9, 35, 120
12, 15652, Note_on_c, 9, 35, 0
12, 15746, Note_on_c, 9, 51, 111
12, 15748, Note_on_c, 9, 51, 0
12, 15842, Note_on_c, 9, 35, 120
12, 15844, Note_on_c, 9, 35, 0
12, 15938, Note_on_c, 9, 37, 125
12, 15938, Note_on_c, 9, 51, 111
12, 15940, Note_on_c, 9, 51, 0
12, 15940, Note_on_c, 9, 37, 0
12, 16034, Note_on_c, 9, 35, 120
12, 16036, Note_on_c, 9, 35, 0
12, 16130, Note_on_c, 9, 35, 120
12, 16132, Note_on_c, 9, 35, 0
12, 16134, Note_on_c, 9, 51, 111
12, 16136, Note_on_c, 9, 51, 0
12, 16322, Note_on_c, 9, 37, 125
12, 16322, Note_on_c, 9, 51, 111
12, 16324, Note_on_c, 9, 51, 0
12, 16324, Note_on_c, 9, 37, 0
12, 16418, Note_on_c, 9, 35, 120
12, 16420, Note_on_c, 9, 35, 0
12, 16514, Note_on_c, 9, 35, 120
12, 16516, Note_on_c, 9, 35, 0
12, 16516, Note_on_c, 9, 51, 111
12, 16518, Note_on_c, 9, 51, 0
12, 16706, Note_on_c, 9, 37, 125
12, 16706, Note_on_c, 9, 51, 111
12, 16708, Note_on_c, 9, 51, 0
12, 16708, Note_on_c, 9, 37, 0
12, 16898, Note_on_c, 9, 35, 120
12, 16900, Note_on_c, 9, 35, 0
12, 16902, Note_on_c, 9, 51, 111
12, 16904, Note_on_c, 9, 51, 0
12, 17090, Note_on_c, 9, 37, 125
12, 17090, Note_on_c, 9, 51, 111
12, 17092, Note_on_c, 9, 51, 0
12, 17092, Note_on_c, 9, 37, 0
12, 17186, Note_on_c, 9, 35, 120
12, 17188, Note_on_c, 9, 35, 0
12, 17282, Note_on_c, 9, 51, 111
12, 17284, Note_on_c, 9, 51, 0
12, 17378, Note_on_c, 9, 35, 120
12, 17380, Note_on_c, 9, 35, 0
12, 17474, Note_on_c, 9, 37, 125
12, 17476, Note_on_c, 9, 37, 0
12, 17476, Note_on_c, 9, 51, 111
12, 17478, Note_on_c, 9, 51, 0
12, 17570, Note_on_c, 9, 35, 120
12, 17572, Note_on_c, 9, 35, 0
12, 17666, Note_on_c, 9, 35, 120
12, 17668, Note_on_c, 9, 35, 0
12, 17668, Note_on_c, 9, 51, 111
12, 17670, Note_on_c, 9, 51, 0
12, 17858, Note_on_c, 9, 37, 125
12, 17858, Note_on_c, 9, 51, 111
12, 17860, Note_on_c, 9, 51, 0
12, 17860, Note_on_c, 9, 37, 0
12, 17954, Note_on_c, 9, 35, 120
12, 17956, Note_on_c, 9, 35, 0
12, 18050, Note_on_c, 9, 35, 120
12, 18052, Note_on_c, 9, 35, 0
12, 18054, Note_on_c, 9, 51, 111
12, 18056, Note_on_c, 9, 51, 0
12, 18242, Note_on_c, 9, 37, 125
12, 18242, Note_on_c, 9, 51, 111
12, 18244, Note_on_c, 9, 51, 0
12, 18244, Note_on_c, 9, 37, 0
12, 18434, Note_on_c, 9, 35, 120
12, 18436, Note_on_c, 9, 35, 0
12, 18436, Note_on_c, 9, 51, 111
12, 18438, Note_on_c, 9, 51, 0
12, 18626, Note_on_c, 9, 37, 125
12, 18626, Note_on_c, 9, 51, 111
12, 18628, Note_on_c, 9, 51, 0
12, 18628, Note_on_c, 9, 37, 0
12, 18722, Note_on_c, 9, 35, 120
12, 18724, Note_on_c, 9, 35, 0
12, 18818, Note_on_c, 9, 51, 111
12, 18820, Note_on_c, 9, 51, 0
12, 18914, Note_on_c, 9, 35, 120
12, 18916, Note_on_c, 9, 35, 0
12, 19010, Note_on_c, 9, 37, 125
12, 19010, Note_on_c, 9, 51, 111
12, 19012, Note_on_c, 9, 51, 0
12, 19012, Note_on_c, 9, 37, 0
12, 19106, Note_on_c, 9, 35, 120
12, 19108, Note_on_c, 9, 35, 0
12, 19202, Note_on_c, 9, 35, 120
12, 19204, Note_on_c, 9, 35, 0
12, 19206, Note_on_c, 9, 51, 111
12, 19208, Note_on_c, 9, 51, 0
12, 19394, Note_on_c, 9, 37, 125
12, 19394, Note_on_c, 9, 51, 111
12, 19396, Note_on_c, 9, 51, 0
12, 19396, Note_on_c, 9, 37, 0
12, 19490, Note_on_c, 9, 35, 120
12, 19492, Note_on_c, 9, 35, 0
12, 19586, Note_on_c, 9, 35, 120
12, 19588, Note_on_c, 9, 35, 0
12, 19588, Note_on_c, 9, 51, 111
12, 19590, Note_on_c, 9, 51, 0
12, 19778, Note_on_c, 9, 37, 125
12, 19780, Note_on_c, 9, 37, 0
12, 19780, Note_on_c, 9, 51, 111
12, 19782, Note_on_c, 9, 51, 0
12, 19970, Note_on_c, 9, 35, 120
12, 19972, Note_on_c, 9, 35, 0
12, 19972, Note_on_c, 9, 51, 111
12, 19974, Note_on_c, 9, 51, 0
12, 20162, Note_on_c, 9, 37, 125
12, 20164, Note_on_c, 9, 37, 0
12, 20166, Note_on_c, 9, 51, 111
12, 20168, Note_on_c, 9, 51, 0
12, 20258, Note_on_c, 9, 35, 120
12, 20260, Note_on_c, 9, 35, 0
12, 20354, Note_on_c, 9, 51, 111
12, 20356, Note_on_c, 9, 51, 0
12, 20450, Note_on_c, 9, 35, 120
12, 20452, Note_on_c, 9, 35, 0
12, 20546, Note_on_c, 9, 37, 125
12, 20548, Note_on_c, 9, 37, 0
12, 20548, Note_on_c, 9, 51, 111
12, 20550, Note_on_c, 9, 51, 0
12, 20642, Note_on_c, 9, 35, 120
12, 20644, Note_on_c, 9, 35, 0
12, 20738, Note_on_c, 9, 35, 120
12, 20738, Note_on_c, 9, 51, 111
12, 20740, Note_on_c, 9, 51, 0
12, 20740, Note_on_c, 9, 35, 0
12, 20930, Note_on_c, 9, 37, 125
12, 20932, Note_on_c, 9, 37, 0
12, 20932, Note_on_c, 9, 51, 111
12, 20934, Note_on_c, 9, 51, 0
12, 21026, Note_on_c, 9, 35, 120
12, 21028, Note_on_c, 9, 35, 0
12, 21122, Note_on_c, 9, 35, 120
12, 21122, Note_on_c, 9, 51, 111
12, 21124, Note_on_c, 9, 51, 0
12, 21124, Note_on_c, 9, 35, 0
12, 21314, Note_on_c, 9, 37, 125
12, 21316, Note_on_c, 9, 37, 0
12, 21316, Note_on_c, 9, 51, 111
12, 21318, Note_on_c, 9, 51, 0
12, 21506, Note_on_c, 9, 35, 120
12, 21508, Note_on_c, 9, 35, 0
12, 21510, Note_on_c, 9, 51, 111
12, 21512, Note_on_c, 9, 51, 0
12, 21696, Note_on_c, 9, 37, 125
12, 21698, Note_on_c, 9, 37, 0
12, 21700, Note_on_c, 9, 51, 111
12, 21702, Note_on_c, 9, 51, 0
12, 21794, Note_on_c, 9, 35, 120
12, 21796, Note_on_c, 9, 35, 0
12, 21890, Note_on_c, 9, 51, 111
12, 21892, Note_on_c, 9, 51, 0
12, 21986, Note_on_c, 9, 35, 120
12, 21988, Note_on_c, 9, 35, 0
12, 22082, Note_on_c, 9, 37, 125
12, 22082, Note_on_c, 9, 51, 111
12, 22084, Note_on_c, 9, 51, 0
12, 22084, Note_on_c, 9, 37, 0
12, 22178, Note_on_c, 9, 35, 120
12, 22180, Note_on_c, 9, 35, 0
12, 22274, Note_on_c, 9, 35, 120
12, 22276, Note_on_c, 9, 35, 0
12, 22276, Note_on_c, 9, 51, 111
12, 22278, Note_on_c, 9, 51, 0
12, 22466, Note_on_c, 9, 37, 125
12, 22466, Note_on_c, 9, 51, 111
12, 22468, Note_on_c, 9, 51, 0
12, 22468, Note_on_c, 9, 37, 0
12, 22562, Note_on_c, 9, 35, 120
12, 22564, Note_on_c, 9, 35, 0
12, 22658, Note_on_c, 9, 35, 120
12, 22658, Note_on_c, 9, 51, 111
12, 22660, Note_on_c, 9, 51, 0
12, 22660, Note_on_c, 9, 35, 0
12, 22850, Note_on_c, 9, 37, 125
12, 22850, Note_on_c, 9, 51, 111
12, 22852, Note_on_c, 9, 51, 0
12, 22852, Note_on_c, 9, 37, 0
12, 23042, Note_on_c, 9, 35, 120
12, 23044, Note_on_c, 9, 35, 0
12, 23044, Note_on_c, 9, 51, 111
12, 23046, Note_on_c, 9, 51, 0
12, 23234, Note_on_c, 9, 37, 125
12, 23236, Note_on_c, 9, 37, 0
12, 23238, Note_on_c, 9, 51, 111
12, 23240, Note_on_c, 9, 51, 0
12, 23330, Note_on_c, 9, 35, 120
12, 23332, Note_on_c, 9, 35, 0
12, 23426, Note_on_c, 9, 51, 111
12, 23428, Note_on_c, 9, 51, 0
12, 23522, Note_on_c, 9, 35, 120
12, 23524, Note_on_c, 9, 35, 0
12, 23618, Note_on_c, 9, 37, 125
12, 23618, Note_on_c, 9, 51, 111
12, 23620, Note_on_c, 9, 51, 0
12, 23620, Note_on_c, 9, 37, 0
12, 23714, Note_on_c, 9, 35, 120
12, 23716, Note_on_c, 9, 35, 0
12, 23810, Note_on_c, 9, 35, 120
12, 23812, Note_on_c, 9, 35, 0
12, 23814, Note_on_c, 9, 51, 111
12, 23816, Note_on_c, 9, 51, 0
12, 24002, Note_on_c, 9, 37, 125
12, 24002, Note_on_c, 9, 51, 111
12, 24004, Note_on_c, 9, 51, 0
12, 24004, Note_on_c, 9, 37, 0
12, 24098, Note_on_c, 9, 35, 120
12, 24100, Note_on_c, 9, 35, 0
12, 24194, Note_on_c, 9, 35, 120
12, 24194, Note_on_c, 9, 51, 111
12, 24196, Note_on_c, 9, 51, 0
12, 24196, Note_on_c, 9, 35, 0
12, 24386, Note_on_c, 9, 37, 125
12, 24386, Note_on_c, 9, 51, 111
12, 24388, Note_on_c, 9, 51, 0
12, 24388, Note_on_c, 9, 37, 0
12, 24578, Note_on_c, 9, 35, 120
12, 24580, Note_on_c, 9, 35, 0
12, 24582, Note_on_c, 9, 51, 111
12, 24584, Note_on_c, 9, 51, 0
12, 24770, Note_on_c, 9, 37, 125
12, 24770, Note_on_c, 9, 51, 111
12, 24772, Note_on_c, 9, 51, 0
12, 24772, Note_on_c, 9, 37, 0
12, 24866, Note_on_c, 9, 35, 120
12, 24868, Note_on_c, 9, 35, 0
12, 24962, Note_on_c, 9, 51, 111
12, 24964, Note_on_c, 9, 51, 0
12, 25058, Note_on_c, 9, 35, 120
12, 25060, Note_on_c, 9, 35, 0
12, 25154, Note_on_c, 9, 37, 125
12, 25156, Note_on_c, 9, 37, 0
12, 25156, Note_on_c, 9, 51, 111
12, 25158, Note_on_c, 9, 51, 0
12, 25250, Note_on_c, 9, 35, 120
12, 25252, Note_on_c, 9, 35, 0
12, 25346, Note_on_c, 9, 35, 120
12, 25348, Note_on_c, 9, 35, 0
12, 25348, Note_on_c, 9, 51, 111
12, 25350, Note_on_c, 9, 51, 0
12, 25538, Note_on_c, 9, 37, 125
12, 25540, Note_on_c, 9, 37, 0
12, 25542, Note_on_c, 9, 51, 111
12, 25544, Note_on_c, 9, 51, 0
12, 25634, Note_on_c, 9, 35, 120
12, 25636, Note_on_c, 9, 35, 0
12, 25730, Note_on_c, 9, 35, 120
12, 25732, Note_on_c, 9, 35, 0
12, 25734, Note_on_c, 9, 51, 111
12, 25736, Note_on_c, 9, 51, 0
12, 25922, Note_on_c, 9, 37, 125
12, 25922, Note_on_c, 9, 51, 111
12, 25924, Note_on_c, 9, 51, 0
12, 25924, Note_on_c, 9, 37, 0
12, 26114, Note_on_c, 9, 35, 120
12, 26116, Note_on_c, 9, 35, 0
12, 26118, Note_on_c, 9, 51, 111
12, 26120, Note_on_c, 9, 51, 0
12, 26306, Note_on_c, 9, 37, 125
12, 26306, Note_on_c, 9, 51, 111
12, 26308, Note_on_c, 9, 51, 0
12, 26308, Note_on_c, 9, 37, 0
12, 26402, Note_on_c, 9, 35, 120
12, 26404, Note_on_c, 9, 35, 0
12, 26498, Note_on_c, 9, 51, 111
12, 26500, Note_on_c, 9, 51, 0
12, 26594, Note_on_c, 9, 35, 120
12, 26596, Note_on_c, 9, 35, 0
12, 26690, Note_on_c, 9, 37, 125
12, 26690, Note_on_c, 9, 51, 111
12, 26692, Note_on_c, 9, 51, 0
12, 26692, Note_on_c, 9, 37, 0
12, 26786, Note_on_c, 9, 35, 120
12, 26788, Note_on_c, 9, 35, 0
12, 26882, Note_on_c, 9, 35, 120
12, 26884, Note_on_c, 9, 35, 0
12, 26886, Note_on_c, 9, 51, 111
12, 26888, Note_on_c, 9, 51, 0
12, 27074, Note_on_c, 9, 37, 125
12, 27074, Note_on_c, 9, 51, 111
12, 27076, Note_on_c, 9, 51, 0
12, 27076, Note_on_c, 9, 37, 0
12, 27170, Note_on_c, 9, 35, 120
12, 27172, Note_on_c, 9, 35, 0
12, 27266, Note_on_c, 9, 35, 120
12, 27266, Note_on_c, 9, 51, 111
12, 27268, Note_on_c, 9, 51, 0
12, 27268, Note_on_c, 9, 35, 0
12, 27458, Note_on_c, 9, 37, 125
12, 27460, Note_on_c, 9, 37, 0
12, 27462, Note_on_c, 9, 51, 111
12, 27464, Note_on_c, 9, 51, 0
12, 27650, Note_on_c, 9, 35, 120
12, 27652, Note_on_c, 9, 35, 0
12, 27652, Note_on_c, 9, 51, 111
12, 27654, Note_on_c, 9, 51, 0
12, 27842, Note_on_c, 9, 37, 125
12, 27844, Note_on_c, 9, 37, 0
12, 27846, Note_on_c, 9, 51, 111
12, 27848, Note_on_c, 9, 51, 0
12, 27938, Note_on_c, 9, 35, 120
12, 27940, Note_on_c, 9, 35, 0
12, 28034, Note_on_c, 9, 51, 111
12, 28036, Note_on_c, 9, 51, 0
12, 28130, Note_on_c, 9, 35, 120
12, 28132, Note_on_c, 9, 35, 0
12, 28226, Note_on_c, 9, 37, 125
12, 28226, Note_on_c, 9, 51, 111
12, 28228, Note_on_c, 9, 51, 0
12, 28228, Note_on_c, 9, 37, 0
12, 28322, Note_on_c, 9, 35, 120
12, 28324, Note_on_c, 9, 35, 0
12, 28418, Note_on_c, 9, 35, 120
12, 28420, Note_on_c, 9, 35, 0
12, 28420, Note_on_c, 9, 51, 111
12, 28422, Note_on_c, 9, 51, 0
12, 28610, Note_on_c, 9, 37, 125
12, 28612, Note_on_c, 9, 37, 0
12, 28612, Note_on_c, 9, 51, 111
12, 28614, Note_on_c, 9, 51, 0
12, 28706, Note_on_c, 9, 35, 120
12, 28708, Note_on_c, 9, 35, 0
12, 28802, Note_on_c, 9, 35, 120
12, 28802, Note_on_c, 9, 51, 111
12, 28804, Note_on_c, 9, 51, 0
12, 28804, Note_on_c, 9, 35, 0
12, 28994, Note_on_c, 9, 37, 125
12, 28996, Note_on_c, 9, 37, 0
12, 28996, Note_on_c, 9, 51, 111
12, 28998, Note_on_c, 9, 51, 0
12, 29186, Note_on_c, 9, 35, 120
12, 29188, Note_on_c, 9, 35, 0
12, 29188, Note_on_c, 9, 51, 111
12, 29190, Note_on_c, 9, 51, 0
12, 29378, Note_on_c, 9, 37, 125
12, 29380, Note_on_c, 9, 37, 0
12, 29380, Note_on_c, 9, 51, 111
12, 29382, Note_on_c, 9, 51, 0
12, 29474, Note_on_c, 9, 35, 120
12, 29476, Note_on_c, 9, 35, 0
12, 29570, Note_on_c, 9, 51, 111
12, 29572, Note_on_c, 9, 51, 0
12, 29666, Note_on_c, 9, 35, 120
12, 29668, Note_on_c, 9, 35, 0
12, 29762, Note_on_c, 9, 37, 125
12, 29764, Note_on_c, 9, 37, 0
12, 29764, Note_on_c, 9, 51, 111
12, 29766, Note_on_c, 9, 51, 0
12, 29858, Note_on_c, 9, 35, 120
12, 29860, Note_on_c, 9, 35, 0
12, 29954, Note_on_c, 9, 35, 120
12, 29956, Note_on_c, 9, 35, 0
12, 29956, Note_on_c, 9, 51, 111
12, 29958, Note_on_c, 9, 51, 0
12, 30146, Note_on_c, 9, 37, 125
12, 30146, Note_on_c, 9, 51, 111
12, 30148, Note_on_c, 9, 51, 0
12, 30148, Note_on_c, 9, 37, 0
12, 30242, Note_on_c, 9, 35, 120
12, 30244, Note_on_c, 9, 35, 0
12, 30338, Note_on_c, 9, 35, 120
12, 30340, Note_on_c, 9, 35, 0
12, 30340, Note_on_c, 9, 51, 111
12, 30342, Note_on_c, 9, 51, 0
12, 30530, Note_on_c, 9, 37, 125
12, 30532, Note_on_c, 9, 37, 0
12, 30532, Note_on_c, 9, 51, 111
12, 30534, Note_on_c, 9, 51, 0
12, 30722, Note_on_c, 9, 35, 120
12, 30724, Note_on_c, 9, 35, 0
12, 30724, Note_on_c, 9, 51, 111
12, 30726, Note_on_c, 9, 51, 0
12, 30914, Note_on_c, 9, 37, 125
12, 30914, Note_on_c, 9, 51, 111
12, 30916, Note_on_c, 9, 51, 0
12, 30916, Note_on_c, 9, 37, 0
12, 31010, Note_on_c, 9, 35, 120
12, 31012, Note_on_c, 9, 35, 0
12, 31106, Note_on_c, 9, 51, 111
12, 31108, Note_on_c, 9, 51, 0
12, 31202, Note_on_c, 9, 35, 120
12, 31204, Note_on_c, 9, 35, 0
12, 31298, Note_on_c, 9, 37, 125
12, 31298, Note_on_c, 9, 51, 111
12, 31300, Note_on_c, 9, 51, 0
12, 31300, Note_on_c, 9, 37, 0
12, 31394, Note_on_c, 9, 35, 120
12, 31396, Note_on_c, 9, 35, 0
12, 31490, Note_on_c, 9, 35, 120
12, 31492, Note_on_c, 9, 35, 0
12, 31492, Note_on_c, 9, 51, 111
12, 31494, Note_on_c, 9, 51, 0
12, 31682, Note_on_c, 9, 37, 125
12, 31682, Note_on_c, 9, 51, 111
12, 31684, Note_on_c, 9, 51, 0
12, 31684, Note_on_c, 9, 37, 0
12, 31778, Note_on_c, 9, 35, 120
12, 31780, Note_on_c, 9, 35, 0
12, 31874, Note_on_c, 9, 35, 120
12, 31874, Note_on_c, 9, 51, 111
12, 31876, Note_on_c, 9, 51, 0
12, 31876, Note_on_c, 9, 35, 0
12, 32066, Note_on_c, 9, 37, 125
12, 32068, Note_on_c, 9, 37, 0
12, 32070, Note_on_c, 9, 51, 111
12, 32072, Note_on_c, 9, 51, 0
12, 32258, Note_on_c, 9, 35, 120
12, 32260, Note_on_c, 9, 35, 0
12, 32260, Note_on_c, 9, 51, 111
12, 32262, Note_on_c, 9, 51, 0
12, 32450, Note_on_c, 9, 37, 125
12, 32450, Note_on_c, 9, 51, 111
12, 32452, Note_on_c, 9, 51, 0
12, 32452, Note_on_c, 9, 37, 0
12, 32546, Note_on_c, 9, 35, 120
12, 32548, Note_on_c, 9, 35, 0
12, 32642, Note_on_c, 9, 51, 111
12, 32644, Note_on_c, 9, 51, 0
12, 32738, Note_on_c, 9, 35, 120
12, 32740, Note_on_c, 9, 35, 0
12, 32834, Note_on_c, 9, 37, 125
12, 32834, Note_on_c, 9, 51, 111
12, 32836, Note_on_c, 9, 51, 0
12, 32836, Note_on_c, 9, 37, 0
12, 32930, Note_on_c, 9, 35, 120
12, 32932, Note_on_c, 9, 35, 0
12, 33026, Note_on_c, 9, 35, 120
12, 33028, Note_on_c, 9, 35, 0
12, 33028, Note_on_c, 9, 51, 111
12, 33030, Note_on_c, 9, 51, 0
12, 33218, Note_on_c, 9, 37, 125
12, 33218, Note_on_c, 9, 51, 111
12, 33220, Note_on_c, 9, 51, 0
12, 33220, Note_on_c, 9, 37, 0
12, 33314, Note_on_c, 9, 35, 120
12, 33316, Note_on_c, 9, 35, 0
12, 33410, Note_on_c, 9, 35, 120
12, 33410, Note_on_c, 9, 51, 111
12, 33412, Note_on_c, 9, 51, 0
12, 33412, Note_on_c, 9, 35, 0
12, 33602, Note_on_c, 9, 37, 125
12, 33602, Note_on_c, 9, 51, 111
12, 33604, Note_on_c, 9, 51, 0
12, 33604, Note_on_c, 9, 37, 0
12, 33794, Note_on_c, 9, 35, 120
12, 33796, Note_on_c, 9, 35, 0
12, 33796, Note_on_c, 9, 51, 111
12, 33798, Note_on_c, 9, 51, 0
12, 33986, Note_on_c, 9, 37, 125
12, 33988, Note_on_c, 9, 37, 0
12, 33990, Note_on_c, 9, 51, 111
12, 33992, Note_on_c, 9, 51, 0
12, 34082, Note_on_c, 9, 35, 120
12, 34084, Note_on_c, 9, 35, 0
12, 34178, Note_on_c, 9, 51, 111
12, 34180, Note_on_c, 9, 51, 0
12, 34274, Note_on_c, 9, 35, 120
12, 34276, Note_on_c, 9, 35, 0
12, 34370, Note_on_c, 9, 37, 125
12, 34370, Note_on_c, 9, 51, 111
12, 34372, Note_on_c, 9, 51, 0
12, 34372, Note_on_c, 9, 37, 0
12, 34466, Note_on_c, 9, 35, 120
12, 34468, Note_on_c, 9, 35, 0
12, 34562, Note_on_c, 9, 35, 120
12, 34564, Note_on_c, 9, 35, 0
12, 34566, Note_on_c, 9, 51, 111
12, 34568, Note_on_c, 9, 51, 0
12, 34754, Note_on_c, 9, 37, 125
12, 34754, Note_on_c, 9, 51, 111
12, 34756, Note_on_c, 9, 51, 0
12, 34756, Note_on_c, 9, 37, 0
12, 34850, Note_on_c, 9, 35, 120
12, 34852, Note_on_c, 9, 35, 0
12, 34946, Note_on_c, 9, 35, 120
12, 34946, Note_on_c, 9, 51, 111
12, 34948, Note_on_c, 9, 51, 0
12, 34948, Note_on_c, 9, 35, 0
12, 35138, Note_on_c, 9, 37, 125
12, 35138, Note_on_c, 9, 51, 111
12, 35140, Note_on_c, 9, 51, 0
12, 35140, Note_on_c, 9, 37, 0
12, 35330, Note_on_c, 9, 35, 120
12, 35332, Note_on_c, 9, 35, 0
12, 35334, Note_on_c, 9, 51, 111
12, 35336, Note_on_c, 9, 51, 0
12, 35522, Note_on_c, 9, 37, 125
12, 35522, Note_on_c, 9, 51, 111
12, 35524, Note_on_c, 9, 51, 0
12, 35524, Note_on_c, 9, 37, 0
12, 35618, Note_on_c, 9, 35, 120
12, 35620, Note_on_c, 9, 35, 0
12, 35714, Note_on_c, 9, 51, 111
12, 35716, Note_on_c, 9, 51, 0
12, 35810, Note_on_c, 9, 35, 120
12, 35812, Note_on_c, 9, 35, 0
12, 35906, Note_on_c, 9, 37, 125
12, 35908, Note_on_c, 9, 37, 0
12, 35908, Note_on_c, 9, 51, 111
12, 35910, Note_on_c, 9, 51, 0
12, 36002, Note_on_c, 9, 35, 120
12, 36004, Note_on_c, 9, 35, 0
12, 36098, Note_on_c, 9, 35, 120
12, 36100, Note_on_c, 9, 35, 0
12, 36100, Note_on_c, 9, 51, 111
12, 36102, Note_on_c, 9, 51, 0
12, 36290, Note_on_c, 9, 37, 125
12, 36292, Note_on_c, 9, 37, 0
12, 36294, Note_on_c, 9, 51, 111
12, 36296, Note_on_c, 9, 51, 0
12, 36386, Note_on_c, 9, 35, 120
12, 36388, Note_on_c, 9, 35, 0
12, 36482, Note_on_c, 9, 35, 120
12, 36484, Note_on_c, 9, 35, 0
12, 36486, Note_on_c, 9, 51, 111
12, 36488, Note_on_c, 9, 51, 0
12, 36674, Note_on_c, 9, 37, 125
12, 36674, Note_on_c, 9, 51, 111
12, 36676, Note_on_c, 9, 51, 0
12, 36676, Note_on_c, 9, 37, 0
12, 36866, Note_on_c, 9, 35, 120
12, 36868, Note_on_c, 9, 35, 0
12, 36870, Note_on_c, 9, 51, 111
12, 36872, Note_on_c, 9, 51, 0
12, 37058, Note_on_c, 9, 37, 125
12, 37058, Note_on_c, 9, 51, 111
12, 37060, Note_on_c, 9, 51, 0
12, 37060, Note_on_c, 9, 37, 0
12, 37154, Note_on_c, 9, 35, 120
12, 37156, Note_on_c, 9, 35, 0
12, 37250, Note_on_c, 9, 51, 111
12, 37252, Note_on_c, 9, 51, 0
12, 37346, Note_on_c, 9, 35, 120
12, 37348, Note_on_c, 9, 35, 0
12, 37442, Note_on_c, 9, 37, 125
12, 37442, Note_on_c, 9, 51, 111
12, 37444, Note_on_c, 9, 51, 0
12, 37444, Note_on_c, 9, 37, 0
12, 37538, Note_on_c, 9, 35, 120
12, 37540, Note_on_c, 9, 35, 0
12, 37632, Note_on_c, 9, 57, 100
12, 37634, Note_on_c, 9, 35, 120
12, 37636, Note_on_c, 9, 35, 0
12, 37638, Note_on_c, 9, 51, 111
12, 37640, Note_on_c, 9, 51, 0
12, 37824, Note_on_c, 9, 57, 0
12, 37826, Note_on_c, 9, 37, 125
12, 37826, Note_on_c, 9, 51, 111
12, 37828, Note_on_c, 9, 51, 0
12, 37828, Note_on_c, 9, 37, 0
12, 37922, Note_on_c, 9, 35, 120
12, 37924, Note_on_c, 9, 35, 0
12, 38018, Note_on_c, 9, 35, 120
12, 38020, Note_on_c, 9, 35, 0
12, 38020, Note_on_c, 9, 51, 111
12, 38022, Note_on_c, 9, 51, 0
12, 38210, Note_on_c, 9, 37, 125
12, 38210, Note_on_c, 9, 51, 111
12, 38212, Note_on_c, 9, 51, 0
12, 38212, Note_on_c, 9, 37, 0
12, 38402, Note_on_c, 9, 35, 120
12, 38404, Note_on_c, 9, 35, 0
12, 38406, Note_on_c, 9, 51, 111
12, 38408, Note_on_c, 9, 51, 0
12, 38594, Note_on_c, 9, 37, 125
12, 38594, Note_on_c, 9, 51, 111
12, 38596, Note_on_c, 9, 51, 0
12, 38596, Note_on_c, 9, 37, 0
12, 38690, Note_on_c, 9, 35, 120
12, 38692, Note_on_c, 9, 35, 0
12, 38786, Note_on_c, 9, 51, 111
12, 38788, Note_on_c, 9, 51, 0
12, 38882, Note_on_c, 9, 35, 120
12, 38884, Note_on_c, 9, 35, 0
12, 38978, Note_on_c, 9, 37, 125
12, 38980, Note_on_c, 9, 37, 0
12, 38980, Note_on_c, 9, 51, 111
12, 38982, Note_on_c, 9, 51, 0
12, 39074, Note_on_c, 9, 35, 120
12, 39076, Note_on_c, 9, 35, 0
12, 39170, Note_on_c, 9, 35, 120
12, 39172, Note_on_c, 9, 35, 0
12, 39172, Note_on_c, 9, 51, 111
12, 39174, Note_on_c, 9, 51, 0
12, 39362, Note_on_c, 9, 37, 125
12, 39362, Note_on_c, 9, 51, 111
12, 39364, Note_on_c, 9, 51, 0
12, 39364, Note_on_c, 9, 37, 0
12, 39458, Note_on_c, 9, 35, 120
12, 39460, Note_on_c, 9, 35, 0
12, 39554, Note_on_c, 9, 35, 120
12, 39556, Note_on_c, 9, 35, 0
12, 39558, Note_on_c, 9, 51, 111
12, 39560, Note_on_c, 9, 51, 0
12, 39746, Note_on_c, 9, 37, 125
12, 39746, Note_on_c, 9, 51, 111
12, 39748, Note_on_c, 9, 51, 0
12, 39748, Note_on_c, 9, 37, 0
12, 39938, Note_on_c, 9, 35, 120
12, 39940, Note_on_c, 9, 35, 0
12, 39940, Note_on_c, 9, 51, 111
12, 39942, Note_on_c, 9, 51, 0
12, 40130, Note_on_c, 9, 37, 125
12, 40130, Note_on_c, 9, 51, 111
12, 40132, Note_on_c, 9, 51, 0
12, 40132, Note_on_c, 9, 37, 0
12, 40226, Note_on_c, 9, 35, 120
12, 40228, Note_on_c, 9, 35, 0
12, 40322, Note_on_c, 9, 51, 111
12, 40324, Note_on_c, 9, 51, 0
12, 40418, Note_on_c, 9, 35, 120
12, 40420, Note_on_c, 9, 35, 0
12, 40514, Note_on_c, 9, 37, 125
12, 40514, Note_on_c, 9, 51, 111
12, 40516, Note_on_c, 9, 51, 0
12, 40516, Note_on_c, 9, 37, 0
12, 40610, Note_on_c, 9, 35, 120
12, 40612, Note_on_c, 9, 35, 0
12, 40706, Note_on_c, 9, 35, 120
12, 40708, Note_on_c, 9, 35, 0
12, 40710, Note_on_c, 9, 51, 111
12, 40712, Note_on_c, 9, 51, 0
12, 40898, Note_on_c, 9, 37, 125
12, 40898, Note_on_c, 9, 51, 111
12, 40900, Note_on_c, 9, 51, 0
12, 40900, Note_on_c, 9, 37, 0
12, 40994, Note_on_c, 9, 35, 120
12, 40996, Note_on_c, 9, 35, 0
12, 41090, Note_on_c, 9, 35, 120
12, 41092, Note_on_c, 9, 35, 0
12, 41092, Note_on_c, 9, 51, 111
12, 41094, Note_on_c, 9, 51, 0
12, 41282, Note_on_c, 9, 37, 125
12, 41284, Note_on_c, 9, 37, 0
12, 41284, Note_on_c, 9, 51, 111
12, 41286, Note_on_c, 9, 51, 0
12, 41474, Note_on_c, 9, 35, 120
12, 41476, Note_on_c, 9, 35, 0
12, 41476, Note_on_c, 9, 51, 111
12, 41478, Note_on_c, 9, 51, 0
12, 41666, Note_on_c, 9, 37, 125
12, 41668, Note_on_c, 9, 37, 0
12, 41670, Note_on_c, 9, 51, 111
12, 41672, Note_on_c, 9, 51, 0
12, 41762, Note_on_c, 9, 35, 120
12, 41764, Note_on_c, 9, 35, 0
12, 41858, Note_on_c, 9, 51, 111
12, 41860, Note_on_c, 9, 51, 0
12, 41954, Note_on_c, 9, 35, 120
12, 41956, Note_on_c, 9, 35, 0
12, 42050, Note_on_c, 9, 37, 125
12, 42052, Note_on_c, 9, 37, 0
12, 42052, Note_on_c, 9, 51, 111
12, 42054, Note_on_c, 9, 51, 0
12, 42146, Note_on_c, 9, 35, 120
12, 42148, Note_on_c, 9, 35, 0
12, 42242, Note_on_c, 9, 35, 120
12, 42242, Note_on_c, 9, 51, 111
12, 42244, Note_on_c, 9, 51, 0
12, 42244, Note_on_c, 9, 35, 0
12, 42434, Note_on_c, 9, 37, 125
12, 42436, Note_on_c, 9, 37, 0
12, 42436, Note_on_c, 9, 51, 111
12, 42438, Note_on_c, 9, 51, 0
12, 42530, Note_on_c, 9, 35, 120
12, 42532, Note_on_c, 9, 35, 0
12, 42626, Note_on_c, 9, 35, 120
12, 42626, Note_on_c, 9, 51, 111
12, 42628, Note_on_c, 9, 51, 0
12, 42628, Note_on_c, 9, 35, 0
12, 42818, Note_on_c, 9, 37, 125
12, 42820, Note_on_c, 9, 37, 0
12, 42820, Note_on_c, 9, 51, 111
12, 42822, Note_on_c, 9, 51, 0
12, 43010, Note_on_c, 9, 35, 120
12, 43012, Note_on_c, 9, 35, 0
12, 43014, Note_on_c, 9, 51, 111
12, 43016, Note_on_c, 9, 51, 0
12, 43200, Note_on_c, 9, 37, 125
12, 43202, Note_on_c, 9, 37, 0
12, 43204, Note_on_c, 9, 51, 111
12, 43206, Note_on_c, 9, 51, 0
12, 43298, Note_on_c, 9, 35, 120
12, 43300, Note_on_c, 9, 35, 0
12, 43394, Note_on_c, 9, 51, 111
12, 43396, Note_on_c, 9, 51, 0
12, 43490, Note_on_c, 9, 35, 120
12, 43492, Note_on_c, 9, 35, 0
12, 43586, Note_on_c, 9, 37, 125
12, 43586, Note_on_c, 9, 51, 111
12, 43588, Note_on_c, 9, 51, 0
12, 43588, Note_on_c, 9, 37, 0
12, 43682, Note_on_c, 9, 35, 120
12, 43684, Note_on_c, 9, 35, 0
12, 43778, Note_on_c, 9, 35, 120
12, 43780, Note_on_c, 9, 35, 0
12, 43780, Note_on_c, 9, 51, 111
12, 43782, Note_on_c, 9, 51, 0
12, 43970, Note_on_c, 9, 37, 125
12, 43970, Note_on_c, 9, 51, 111
12, 43972, Note_on_c, 9, 51, 0
12, 43972, Note_on_c, 9, 37, 0
12, 44066, Note_on_c, 9, 35, 120
12, 44068, Note_on_c, 9, 35, 0
12, 44162, Note_on_c, 9, 35, 120
12, 44162, Note_on_c, 9, 51, 111
12, 44164, Note_on_c, 9, 51, 0
12, 44164, Note_on_c, 9, 35, 0
12, 44354, Note_on_c, 9, 37, 125
12, 44354, Note_on_c, 9, 51, 111
12, 44356, Note_on_c, 9, 51, 0
12, 44356, Note_on_c, 9, 37, 0
12, 44546, Note_on_c, 9, 35, 120
12, 44548, Note_on_c, 9, 35, 0
12, 44548, Note_on_c, 9, 51, 111
12, 44550, Note_on_c, 9, 51, 0
12, 44738, Note_on_c, 9, 37, 125
12, 44740, Note_on_c, 9, 37, 0
12, 44742, Note_on_c, 9, 51, 111
12, 44744, Note_on_c, 9, 51, 0
12, 44834, Note_on_c, 9, 35, 120
12, 44836, Note_on_c, 9, 35, 0
12, 44930, Note_on_c, 9, 51, 111
12, 44932, Note_on_c, 9, 51, 0
12, 45026, Note_on_c, 9, 35, 120
12, 45028, Note_on_c, 9, 35, 0
12, 45122, Note_on_c, 9, 37, 125
12, 45122, Note_on_c, 9, 51, 111
12, 45124, Note_on_c, 9, 51, 0
12, 45124, Note_on_c, 9, 37, 0
12, 45218, Note_on_c, 9, 35, 120
12, 45220, Note_on_c, 9, 35, 0
12, 45314, Note_on_c, 9, 35, 120
12, 45316, Note_on_c, 9, 35, 0
12, 45318, Note_on_c, 9, 51, 111
12, 45320, Note_on_c, 9, 51, 0
12, 45506, Note_on_c, 9, 37, 125
12, 45506, Note_on_c, 9, 51, 111
12, 45508, Note_on_c, 9, 51, 0
12, 45508, Note_on_c, 9, 37, 0
12, 45602, Note_on_c, 9, 35, 120
12, 45604, Note_on_c, 9, 35, 0
12, 45698, Note_on_c, 9, 35, 120
12, 45698, Note_on_c, 9, 51, 111
12, 45700, Note_on_c, 9, 51, 0
12, 45700, Note_on_c, 9, 35, 0
12, 45890, Note_on_c, 9, 37, 125
12, 45890, Note_on_c, 9, 51, 111
12, 45892, Note_on_c, 9, 51, 0
12, 45892, Note_on_c, 9, 37, 0
12, 46082, Note_on_c, 9, 35, 120
12, 46084, Note_on_c, 9, 35, 0
12, 46086, Note_on_c, 9, 51, 111
12, 46088, Note_on_c, 9, 51, 0
12, 46274, Note_on_c, 9, 37, 125
12, 46274, Note_on_c, 9, 51, 111
12, 46276, Note_on_c, 9, 51, 0
12, 46276, Note_on_c, 9, 37, 0
12, 46370, Note_on_c, 9, 35, 120
12, 46372, Note_on_c, 9, 35, 0
12, 46466, Note_on_c, 9, 51, 111
12, 46468, Note_on_c, 9, 51, 0
12, 46562, Note_on_c, 9, 35, 120
12, 46564, Note_on_c, 9, 35, 0
12, 46658, Note_on_c, 9, 37, 125
12, 46660, Note_on_c, 9, 37, 0
12, 46660, Note_on_c, 9, 51, 111
12, 46662, Note_on_c, 9, 51, 0
12, 46754, Note_on_c, 9, 35, 120
12, 46756, Note_on_c, 9, 35, 0
12, 46850, Note_on_c, 9, 35, 120
12, 46852, Note_on_c, 9, 35, 0
12, 46852, Note_on_c, 9, 51, 111
12, 46854, Note_on_c, 9, 51, 0
12, 47042, Note_on_c, 9, 37, 125
12, 47044, Note_on_c, 9, 37, 0
12, 47046, Note_on_c, 9, 51, 111
12, 47048, Note_on_c, 9, 51, 0
12, 47138, Note_on_c, 9, 35, 120
12, 47140, Note_on_c, 9, 35, 0
12, 47234, Note_on_c, 9, 35, 120
12, 47236, Note_on_c, 9, 35, 0
12, 47238, Note_on_c, 9, 51, 111
12, 47240, Note_on_c, 9, 51, 0
12, 47426, Note_on_c, 9, 37, 125
12, 47426, Note_on_c, 9, 51, 111
12, 47428, Note_on_c, 9, 51, 0
12, 47428, Note_on_c, 9, 37, 0
12, 47618, Note_on_c, 9, 35, 120
12, 47620, Note_on_c, 9, 35, 0
12, 47622, Note_on_c, 9, 51, 111
12, 47624, Note_on_c, 9, 51, 0
12, 47810, Note_on_c, 9, 37, 125
12, 47810, Note_on_c, 9, 51, 111
12, 47812, Note_on_c, 9, 51, 0
12, 47812, Note_on_c, 9, 37, 0
12, 47906, Note_on_c, 9, 35, 120
12, 47908, Note_on_c, 9, 35, 0
12, 48002, Note_on_c, 9, 51, 111
12, 48004, Note_on_c, 9, 51, 0
12, 48098, Note_on_c, 9, 35, 120
12, 48100, Note_on_c, 9, 35, 0
12, 48194, Note_on_c, 9, 37, 125
12, 48194, Note_on_c, 9, 51, 111
12, 48196, Note_on_c, 9, 51, 0
12, 48196, Note_on_c, 9, 37, 0
12, 48290, Note_on_c, 9, 35, 120
12, 48292, Note_on_c, 9, 35, 0
12, 48386, Note_on_c, 9, 35, 120
12, 48388, Note_on_c, 9, 35, 0
12, 48390, Note_on_c, 9, 51, 111
12, 48392, Note_on_c, 9, 51, 0
12, 48578, Note_on_c, 9, 37, 125
12, 48578, Note_on_c, 9, 51, 111
12, 48580, Note_on_c, 9, 51, 0
12, 48580, Note_on_c, 9, 37, 0
12, 48674, Note_on_c, 9, 35, 120
12, 48676, Note_on_c, 9, 35, 0
12, 48770, Note_on_c, 9, 35, 120
12, 48770, Note_on_c, 9, 51, 111
12, 48772, Note_on_c, 9, 51, 0
12, 48772, Note_on_c, 9, 35, 0
12, 48962, Note_on_c, 9, 37, 125
12, 48964, Note_on_c, 9, 37, 0
12, 48966, Note_on_c, 9, 51, 111
12, 48968, Note_on_c, 9, 51, 0
12, 49154, Note_on_c, 9, 35, 120
12, 49156, Note_on_c, 9, 35, 0
12, 49156, Note_on_c, 9, 51, 111
12, 49158, Note_on_c, 9, 51, 0
12, 49346, Note_on_c, 9, 37, 125
12, 49348, Note_on_c, 9, 37, 0
12, 49350, Note_on_c, 9, 51, 111
12, 49352, Note_on_c, 9, 51, 0
12, 49442, Note_on_c, 9, 35, 120
12, 49444, Note_on_c, 9, 35, 0
12, 49538, Note_on_c, 9, 51, 111
12, 49540, Note_on_c, 9, 51, 0
12, 49634, Note_on_c, 9, 35, 120
12, 49636, Note_on_c, 9, 35, 0
12, 49730, Note_on_c, 9, 37, 125
12, 49730, Note_on_c, 9, 51, 111
12, 49732, Note_on_c, 9, 51, 0
12, 49732, Note_on_c, 9, 37, 0
12, 49826, Note_on_c, 9, 35, 120
12, 49828, Note_on_c, 9, 35, 0
12, 49922, Note_on_c, 9, 35, 120
12, 49924, Note_on_c, 9, 35, 0
12, 49924, Note_on_c, 9, 51, 111
12, 49926, Note_on_c, 9, 51, 0
12, 50114, Note_on_c, 9, 37, 125
12, 50116, Note_on_c, 9, 37, 0
12, 50116, Note_on_c, 9, 51, 111
12, 50118, Note_on_c, 9, 51, 0
12, 50210, Note_on_c, 9, 35, 120
12, 50212, Note_on_c, 9, 35, 0
12, 50306, Note_on_c, 9, 35, 120
12, 50306, Note_on_c, 9, 51, 111
12, 50308, Note_on_c, 9, 51, 0
12, 50308, Note_on_c, 9, 35, 0
12, 50498, Note_on_c, 9, 37, 125
12, 50500, Note_on_c, 9, 37, 0
12, 50500, Note_on_c, 9, 51, 111
12, 50502, Note_on_c, 9, 51, 0
12, 50690, Note_on_c, 9, 35, 120
12, 50692, Note_on_c, 9, 35, 0
12, 50692, Note_on_c, 9, 51, 111
12, 50694, Note_on_c, 9, 51, 0
12, 50882, Note_on_c, 9, 37, 125
12, 50884, Note_on_c, 9, 37, 0
12, 50884, Note_on_c, 9, 51, 111
12, 50886, Note_on_c, 9, 51, 0
12, 50978, Note_on_c, 9, 35, 120
12, 50980, Note_on_c, 9, 35, 0
12, 51074, Note_on_c, 9, 51, 111
12, 51076, Note_on_c, 9, 51, 0
12, 51170, Note_on_c, 9, 35, 120
12, 51172, Note_on_c, 9, 35, 0
12, 51266, Note_on_c, 9, 37, 125
12, 51268, Note_on_c, 9, 37, 0
12, 51268, Note_on_c, 9, 51, 111
12, 51270, Note_on_c, 9, 51, 0
12, 51362, Note_on_c, 9, 35, 120
12, 51364, Note_on_c, 9, 35, 0
12, 51458, Note_on_c, 9, 35, 120
12, 51460, Note_on_c, 9, 35, 0
12, 51460, Note_on_c, 9, 51, 111
12, 51462, Note_on_c, 9, 51, 0
12, 51650, Note_on_c, 9, 37, 125
12, 51650, Note_on_c, 9, 51, 111
12, 51652, Note_on_c, 9, 51, 0
12, 51652, Note_on_c, 9, 37, 0
12, 51746, Note_on_c, 9, 35, 120
12, 51748, Note_on_c, 9, 35, 0
12, 51842, Note_on_c, 9, 35, 120
12, 51844, Note_on_c, 9, 35, 0
12, 51844, Note_on_c, 9, 51, 111
12, 51846, Note_on_c, 9, 51, 0
12, 52034, Note_on_c, 9, 37, 125
12, 52036, Note_on_c, 9, 37, 0
12, 52036, Note_on_c, 9, 51, 111
12, 52038, Note_on_c, 9, 51, 0
12, 52226, Note_on_c, 9, 35, 120
12, 52228, Note_on_c, 9, 35, 0
12, 52228, Note_on_c, 9, 51, 111
12, 52230, Note_on_c, 9, 51, 0
12, 52418, Note_on_c, 9, 37, 125
12, 52418, Note_on_c, 9, 51, 111
12, 52420, Note_on_c, 9, 51, 0
12, 52420, Note_on_c, 9, 37, 0
12, 52514, Note_on_c, 9, 35, 120
12, 52516, Note_on_c, 9, 35, 0
12, 52610, Note_on_c, 9, 51, 111
12, 52612, Note_on_c, 9, 51, 0
12, 52706, Note_on_c, 9, 35, 120
12, 52708, Note_on_c, 9, 35, 0
12, 52802, Note_on_c, 9, 37, 125
12, 52802, Note_on_c, 9, 51, 111
12, 52804, Note_on_c, 9, 51, 0
12, 52804, Note_on_c, 9, 37, 0
12, 52898, Note_on_c, 9, 35, 120
12, 52900, Note_on_c, 9, 35, 0
12, 52994, Note_on_c, 9, 35, 120
12, 52996, Note_on_c, 9, 35, 0
12, 52996, Note_on_c, 9, 51, 111
12, 52998, Note_on_c, 9, 51, 0
12, 53186, Note_on_c, 9, 37, 125
12, 53186, Note_on_c, 9, 51, 111
12, 53188, Note_on_c, 9, 51, 0
12, 53188, Note_on_c, 9, 37, 0
12, 53282, Note_on_c, 9, 35, 120
12, 53284, Note_on_c, 9, 35, 0
12, 53378, Note_on_c, 9, 35, 120
12, 53378, Note_on_c, 9, 51, 111
12, 53380, Note_on_c, 9, 51, 0
12, 53380, Note_on_c, 9, 35, 0
12, 53570, Note_on_c, 9, 37, 125
12, 53572, Note_on_c, 9, 37, 0
12, 53574, Note_on_c, 9, 51, 111
12, 53576, Note_on_c, 9, 51, 0
12, 53762, Note_on_c, 9, 35, 120
12, 53764, Note_on_c, 9, 35, 0
12, 53764, Note_on_c, 9, 51, 111
12, 53766, Note_on_c, 9, 51, 0
12, 53954, Note_on_c, 9, 37, 125
12, 53954, Note_on_c, 9, 51, 111
12, 53956, Note_on_c, 9, 51, 0
12, 53956, Note_on_c, 9, 37, 0
12, 54050, Note_on_c, 9, 35, 120
12, 54052, Note_on_c, 9, 35, 0
12, 54146, Note_on_c, 9, 51, 111
12, 54148, Note_on_c, 9, 51, 0
12, 54242, Note_on_c, 9, 35, 120
12, 54244, Note_on_c, 9, 35, 0
12, 54338, Note_on_c, 9, 37, 125
12, 54338, Note_on_c, 9, 51, 111
12, 54340, Note_on_c, 9, 51, 0
12, 54340, Note_on_c, 9, 37, 0
12, 54434, Note_on_c, 9, 35, 120
12, 54436, Note_on_c, 9, 35, 0
12, 54530, Note_on_c, 9, 35, 120
12, 54532, Note_on_c, 9, 35, 0
12, 54532, Note_on_c, 9, 51, 111
12, 54534, Note_on_c, 9, 51, 0
12, 54722, Note_on_c, 9, 37, 125
12, 54722, Note_on_c, 9, 51, 111
12, 54724, Note_on_c, 9, 51, 0
12, 54724, Note_on_c, 9, 37, 0
12, 54818, Note_on_c, 9, 35, 120
12, 54820, Note_on_c, 9, 35, 0
12, 54914, Note_on_c, 9, 35, 120
12, 54914, Note_on_c, 9, 51, 111
12, 54916, Note_on_c, 9, 51, 0
12, 54916, Note_on_c, 9, 35, 0
12, 55106, Note_on_c, 9, 37, 125
12, 55106, Note_on_c, 9, 51, 111
12, 55108, Note_on_c, 9, 51, 0
12, 55108, Note_on_c, 9, 37, 0
12, 55298, Note_on_c, 9, 35, 120
12, 55300, Note_on_c, 9, 35, 0
12, 55300, Note_on_c, 9, 51, 111
12, 55302, Note_on_c, 9, 51, 0
12, 55490, Note_on_c, 9, 37, 125
12, 55492, Note_on_c, 9, 37, 0
12, 55494, Note_on_c, 9, 51, 111
12, 55496, Note_on_c, 9, 51, 0
12, 55586, Note_on_c, 9, 35, 120
12, 55588, Note_on_c, 9, 35, 0
12, 55682, Note_on_c, 9, 51, 111
12, 55684, Note_on_c, 9, 51, 0
12, 55778, Note_on_c, 9, 35, 120
12, 55780, Note_on_c, 9, 35, 0
12, 55874, Note_on_c, 9, 37, 125
12, 55874, Note_on_c, 9, 51, 111
12, 55876, Note_on_c, 9, 51, 0
12, 55876, Note_on_c, 9, 37, 0
12, 55970, Note_on_c, 9, 35, 120
12, 55972, Note_on_c, 9, 35, 0
12, 56066, Note_on_c, 9, 35, 120
12, 56068, Note_on_c, 9, 35, 0
12, 56070, Note_on_c, 9, 51, 111
12, 56072, Note_on_c, 9, 51, 0
12, 56258, Note_on_c, 9, 37, 125
12, 56258, Note_on_c, 9, 51, 111
12, 56260, Note_on_c, 9, 51, 0
12, 56260, Note_on_c, 9, 37, 0
12, 56354, Note_on_c, 9, 35, 120
12, 56356, Note_on_c, 9, 35, 0
12, 56450, Note_on_c, 9, 35, 120
12, 56450, Note_on_c, 9, 51, 111
12, 56452, Note_on_c, 9, 51, 0
12, 56452, Note_on_c, 9, 35, 0
12, 56642, Note_on_c, 9, 37, 125
12, 56642, Note_on_c, 9, 51, 111
12, 56644, Note_on_c, 9, 51, 0
12, 56644, Note_on_c, 9, 37, 0
12, 56834, Note_on_c, 9, 35, 120
12, 56836, Note_on_c, 9, 35, 0
12, 56838, Note_on_c, 9, 51, 111
12, 56840, Note_on_c, 9, 51, 0
12, 57026, Note_on_c, 9, 37, 125
12, 57026, Note_on_c, 9, 51, 111
12, 57028, Note_on_c, 9, 51, 0
12, 57028, Note_on_c, 9, 37, 0
12, 57122, Note_on_c, 9, 35, 120
12, 57124, Note_on_c, 9, 35, 0
12, 57218, Note_on_c, 9, 51, 111
12, 57220, Note_on_c, 9, 51, 0
12, 57314, Note_on_c, 9, 35, 120
12, 57316, Note_on_c, 9, 35, 0
12, 57410, Note_on_c, 9, 37, 125
12, 57412, Note_on_c, 9, 37, 0
12, 57412, Note_on_c, 9, 51, 111
12, 57414, Note_on_c, 9, 51, 0
12, 57506, Note_on_c, 9, 35, 120
12, 57508, Note_on_c, 9, 35, 0
12, 57602, Note_on_c, 9, 35, 120
12, 57604, Note_on_c, 9, 35, 0
12, 57604, Note_on_c, 9, 51, 111
12, 57606, Note_on_c, 9, 51, 0
12, 57794, Note_on_c, 9, 37, 125
12, 57796, Note_on_c, 9, 37, 0
12, 57798, Note_on_c, 9, 51, 111
12, 57800, Note_on_c, 9, 51, 0
12, 57890, Note_on_c, 9, 35, 120
12, 57892, Note_on_c, 9, 35, 0
12, 57986, Note_on_c, 9, 35, 120
12, 57988, Note_on_c, 9, 35, 0
12, 57990, Note_on_c, 9, 51, 111
12, 57992, Note_on_c, 9, 51, 0
12, 58178, Note_on_c, 9, 37, 125
12, 58178, Note_on_c, 9, 51, 111
12, 58180, Note_on_c, 9, 51, 0
12, 58180, Note_on_c, 9, 37, 0
12, 58370, Note_on_c, 9, 35, 120
12, 58372, Note_on_c, 9, 35, 0
12, 58374, Note_on_c, 9, 51, 111
12, 58376, Note_on_c, 9, 51, 0
12, 58562, Note_on_c, 9, 37, 125
12, 58562, Note_on_c, 9, 51, 111
12, 58564, Note_on_c, 9, 51, 0
12, 58564, Note_on_c, 9, 37, 0
12, 58658, Note_on_c, 9, 35, 120
12, 58660, Note_on_c, 9, 35, 0
12, 58754, Note_on_c, 9, 51, 111
12, 58756, Note_on_c, 9, 51, 0
12, 58850, Note_on_c, 9, 35, 120
12, 58852, Note_on_c, 9, 35, 0
12, 58946, Note_on_c, 9, 37, 125
12, 58946, Note_on_c, 9, 51, 111
12, 58948, Note_on_c, 9, 51, 0
12, 58948, Note_on_c, 9, 37, 0
12, 59042, Note_on_c, 9, 35, 120
12, 59044, Note_on_c, 9, 35, 0
12, 59044, End_track
0, 0, End_of_file
