0, 0, Header, 1, 8, 384
1, 0, Start_track
1, 0, SMPTE_offset, 96, 0, 3, 0, 0
1, 0, MIDI_port, 0
1, 0, System_exclusive, 5, 126, 127, 9, 1, 247
1, 0, MIDI_port, 0
1, 0, Time_signature, 4, 2, 24, 8
1, 0, Key_signature, 0, "major"
1, 0, Tempo, 476190
1, 0, End_track
2, 0, Start_track
2, 0, MIDI_port, 0
2, 0, Title_t, "Bass"
2, 391, Program_c, 1, 38
2, 392, Control_c, 1, 7, 100
2, 392, Control_c, 1, 10, 64
2, 416, Control_c, 1, 11, 127
2, 420, Control_c, 1, 91, 20
2, 420, Control_c, 1, 93, 127
2, 3072, Note_on_c, 1, 29, 124
2, 3312, Note_on_c, 1, 29, 0
2, 3328, Note_on_c, 1, 33, 124
2, 3440, Note_on_c, 1, 33, 0
2, 3452, Note_on_c, 1, 36, 124
2, 3692, Note_on_c, 1, 36, 0
2, 3708, Control_c, 1, 1, 2
2, 3712, Note_on_c, 1, 41, 124
2, 3720, Control_c, 1, 1, 7
2, 3732, Control_c, 1, 1, 13
2, 3740, Control_c, 1, 1, 23
2, 3752, Control_c, 1, 1, 35
2, 3764, Control_c, 1, 1, 44
2, 3772, Control_c, 1, 1, 51
2, 3784, Control_c, 1, 1, 56
2, 3792, Control_c, 1, 1, 59
2, 3816, Control_c, 1, 1, 57
2, 3824, Control_c, 1, 1, 54
2, 3836, Control_c, 1, 1, 50
2, 3848, Control_c, 1, 1, 47
2, 3880, Control_c, 1, 1, 49
2, 3888, Control_c, 1, 1, 53
2, 3900, Control_c, 1, 1, 57
2, 3912, Control_c, 1, 1, 60
2, 3920, Control_c, 1, 1, 62
2, 3932, Control_c, 1, 1, 63
2, 3944, Control_c, 1, 1, 64
2, 3964, Control_c, 1, 1, 65
2, 3984, Control_c, 1, 1, 66
2, 4004, Control_c, 1, 1, 67
2, 4016, Control_c, 1, 1, 68
2, 4028, Control_c, 1, 1, 70
2, 4036, Control_c, 1, 1, 71
2, 4048, Control_c, 1, 1, 72
2, 4068, Control_c, 1, 1, 70
2, 4080, Note_on_c, 1, 41, 0
2, 4080, Control_c, 1, 1, 64
2, 4088, Control_c, 1, 1, 54
2, 4096, Note_on_c, 1, 29, 124
2, 4100, Control_c, 1, 1, 38
2, 4112, Control_c, 1, 1, 21
2, 4124, Control_c, 1, 1, 9
2, 4132, Control_c, 1, 1, 3
2, 4144, Control_c, 1, 1, 0
2, 4152, Control_c, 1, 1, 0
2, 4208, Note_on_c, 1, 29, 0
2, 4216, Note_on_c, 1, 33, 124
2, 4456, Note_on_c, 1, 33, 0
2, 4480, Note_on_c, 1, 38, 124
2, 4848, Note_on_c, 1, 38, 0
2, 4864, Note_on_c, 1, 29, 124
2, 4976, Note_on_c, 1, 29, 0
2, 4988, Note_on_c, 1, 33, 124
2, 5228, Note_on_c, 1, 33, 0
2, 5248, Note_on_c, 1, 36, 124
2, 5616, Note_on_c, 1, 36, 0
2, 5632, Note_on_c, 1, 33, 124
2, 5744, Note_on_c, 1, 33, 0
2, 5752, Note_on_c, 1, 36, 124
2, 5992, Note_on_c, 1, 36, 0
2, 6016, Note_on_c, 1, 38, 124
2, 6128, Note_on_c, 1, 38, 0
2, 6144, Note_on_c, 1, 29, 124
2, 6384, Note_on_c, 1, 29, 0
2, 6400, Note_on_c, 1, 33, 124
2, 6512, Note_on_c, 1, 33, 0
2, 6524, Note_on_c, 1, 36, 124
2, 6760, Control_c, 1, 1, 1
2, 6764, Note_on_c, 1, 36, 0
2, 6768, Control_c, 1, 1, 9
2, 6780, Control_c, 1, 1, 23
2, 6784, Note_on_c, 1, 41, 124
2, 6788, Control_c, 1, 1, 37
2, 6800, Control_c, 1, 1, 47
2, 6812, Control_c, 1, 1, 55
2, 6824, Control_c, 1, 1, 59
2, 6832, Control_c, 1, 1, 62
2, 6844, Control_c, 1, 1, 64
2, 6856, Control_c, 1, 1, 66
2, 6864, Control_c, 1, 1, 68
2, 6876, Control_c, 1, 1, 71
2, 6888, Control_c, 1, 1, 73
2, 6896, Control_c, 1, 1, 75
2, 6928, Control_c, 1, 1, 73
2, 6940, Control_c, 1, 1, 72
2, 7052, Control_c, 1, 1, 71
2, 7064, Control_c, 1, 1, 69
2, 7076, Control_c, 1, 1, 66
2, 7084, Control_c, 1, 1, 63
2, 7116, Control_c, 1, 1, 62
2, 7128, Control_c, 1, 1, 57
2, 7136, Control_c, 1, 1, 50
2, 7148, Control_c, 1, 1, 40
2, 7152, Note_on_c, 1, 41, 0
2, 7156, Control_c, 1, 1, 26
2, 7168, Note_on_c, 1, 29, 124
2, 7168, Control_c, 1, 1, 12
2, 7180, Control_c, 1, 1, 5
2, 7188, Control_c, 1, 1, 1
2, 7200, Control_c, 1, 1, 0
2, 7212, Control_c, 1, 1, 0
2, 7280, Note_on_c, 1, 29, 0
2, 7288, Note_on_c, 1, 33, 124
2, 7528, Note_on_c, 1, 33, 0
2, 7552, Note_on_c, 1, 38, 124
2, 7920, Note_on_c, 1, 38, 0
2, 7936, Note_on_c, 1, 29, 124
2, 8048, Note_on_c, 1, 29, 0
2, 8060, Note_on_c, 1, 33, 124
2, 8300, Note_on_c, 1, 33, 0
2, 8320, Note_on_c, 1, 36, 124
2, 8688, Note_on_c, 1, 36, 0
2, 8704, Note_on_c, 1, 33, 124
2, 8816, Note_on_c, 1, 33, 0
2, 8824, Note_on_c, 1, 36, 124
2, 9064, Note_on_c, 1, 36, 0
2, 9088, Note_on_c, 1, 38, 124
2, 9200, Note_on_c, 1, 38, 0
2, 9216, Note_on_c, 1, 29, 124
2, 9456, Note_on_c, 1, 29, 0
2, 9472, Note_on_c, 1, 33, 124
2, 9584, Note_on_c, 1, 33, 0
2, 9596, Note_on_c, 1, 36, 124
2, 9836, Note_on_c, 1, 36, 0
2, 9856, Note_on_c, 1, 41, 124
2, 9980, Control_c, 1, 1, 0
2, 10000, Control_c, 1, 1, 0
2, 10012, Control_c, 1, 1, 1
2, 10224, Note_on_c, 1, 41, 0
2, 10236, Control_c, 1, 1, 0
2, 10240, Note_on_c, 1, 29, 124
2, 10248, Control_c, 1, 1, 0
2, 10352, Note_on_c, 1, 29, 0
2, 10360, Note_on_c, 1, 33, 124
2, 10600, Note_on_c, 1, 33, 0
2, 10624, Note_on_c, 1, 38, 124
2, 10992, Note_on_c, 1, 38, 0
2, 11008, Note_on_c, 1, 29, 124
2, 11120, Note_on_c, 1, 29, 0
2, 11132, Note_on_c, 1, 33, 124
2, 11372, Note_on_c, 1, 33, 0
2, 11392, Note_on_c, 1, 36, 124
2, 11760, Note_on_c, 1, 36, 0
2, 11776, Note_on_c, 1, 33, 124
2, 11888, Note_on_c, 1, 33, 0
2, 11896, Note_on_c, 1, 36, 124
2, 12136, Note_on_c, 1, 36, 0
2, 12160, Note_on_c, 1, 38, 124
2, 12272, Note_on_c, 1, 38, 0
2, 12288, Note_on_c, 1, 29, 124
2, 12528, Note_on_c, 1, 29, 0
2, 12544, Note_on_c, 1, 33, 124
2, 12656, Note_on_c, 1, 33, 0
2, 12668, Note_on_c, 1, 36, 124
2, 12872, Control_c, 1, 1, 0
2, 12880, Control_c, 1, 1, 2
2, 12892, Control_c, 1, 1, 5
2, 12904, Control_c, 1, 1, 8
2, 12908, Note_on_c, 1, 36, 0
2, 12916, Control_c, 1, 1, 11
2, 12924, Control_c, 1, 1, 15
2, 12928, Note_on_c, 1, 41, 124
2, 12936, Control_c, 1, 1, 18
2, 12944, Control_c, 1, 1, 21
2, 12956, Control_c, 1, 1, 23
2, 12968, Control_c, 1, 1, 24
2, 12976, Control_c, 1, 1, 25
2, 12988, Control_c, 1, 1, 26
2, 13000, Control_c, 1, 1, 27
2, 13052, Control_c, 1, 1, 28
2, 13072, Control_c, 1, 1, 29
2, 13092, Control_c, 1, 1, 30
2, 13104, Control_c, 1, 1, 31
2, 13144, Control_c, 1, 1, 30
2, 13156, Control_c, 1, 1, 28
2, 13164, Control_c, 1, 1, 27
2, 13188, Control_c, 1, 1, 25
2, 13196, Control_c, 1, 1, 23
2, 13208, Control_c, 1, 1, 19
2, 13220, Control_c, 1, 1, 15
2, 13228, Control_c, 1, 1, 10
2, 13240, Control_c, 1, 1, 5
2, 13252, Control_c, 1, 1, 1
2, 13260, Control_c, 1, 1, 0
2, 13272, Control_c, 1, 1, 0
2, 13296, Note_on_c, 1, 41, 0
2, 13312, Note_on_c, 1, 29, 124
2, 13424, Note_on_c, 1, 29, 0
2, 13432, Note_on_c, 1, 33, 124
2, 13672, Note_on_c, 1, 33, 0
2, 13696, Note_on_c, 1, 38, 124
2, 14064, Note_on_c, 1, 38, 0
2, 14080, Note_on_c, 1, 29, 124
2, 14192, Note_on_c, 1, 29, 0
2, 14204, Note_on_c, 1, 33, 124
2, 14444, Note_on_c, 1, 33, 0
2, 14464, Note_on_c, 1, 36, 124
2, 14832, Note_on_c, 1, 36, 0
2, 14848, Note_on_c, 1, 29, 124
2, 14960, Note_on_c, 1, 29, 0
2, 14968, Note_on_c, 1, 33, 124
2, 15208, Note_on_c, 1, 33, 0
2, 15232, Note_on_c, 1, 38, 124
2, 15344, Note_on_c, 1, 38, 0
2, 15360, Note_on_c, 1, 29, 124
2, 15600, Note_on_c, 1, 29, 0
2, 15616, Note_on_c, 1, 33, 124
2, 15728, Note_on_c, 1, 33, 0
2, 15740, Note_on_c, 1, 36, 124
2, 15980, Note_on_c, 1, 36, 0
2, 16000, Note_on_c, 1, 41, 124
2, 16020, Control_c, 1, 1, 0
2, 16028, Control_c, 1, 1, 1
2, 16040, Control_c, 1, 1, 2
2, 16060, Control_c, 1, 1, 4
2, 16072, Control_c, 1, 1, 5
2, 16080, Control_c, 1, 1, 7
2, 16092, Control_c, 1, 1, 8
2, 16104, Control_c, 1, 1, 9
2, 16144, Control_c, 1, 1, 10
2, 16196, Control_c, 1, 1, 9
2, 16208, Control_c, 1, 1, 8
2, 16220, Control_c, 1, 1, 6
2, 16228, Control_c, 1, 1, 4
2, 16240, Control_c, 1, 1, 2
2, 16248, Control_c, 1, 1, 0
2, 16260, Control_c, 1, 1, 0
2, 16368, Note_on_c, 1, 41, 0
2, 16384, Note_on_c, 1, 29, 124
2, 16496, Note_on_c, 1, 29, 0
2, 16504, Note_on_c, 1, 33, 124
2, 16744, Note_on_c, 1, 33, 0
2, 16768, Note_on_c, 1, 38, 124
2, 17136, Note_on_c, 1, 38, 0
2, 17152, Note_on_c, 1, 29, 124
2, 17264, Note_on_c, 1, 29, 0
2, 17276, Note_on_c, 1, 33, 124
2, 17516, Note_on_c, 1, 33, 0
2, 17536, Note_on_c, 1, 36, 124
2, 17904, Note_on_c, 1, 36, 0
2, 17920, Note_on_c, 1, 33, 124
2, 18032, Note_on_c, 1, 33, 0
2, 18040, Note_on_c, 1, 36, 124
2, 18280, Note_on_c, 1, 36, 0
2, 18304, Note_on_c, 1, 38, 124
2, 18416, Note_on_c, 1, 38, 0
2, 18432, Note_on_c, 1, 29, 124
2, 18672, Note_on_c, 1, 29, 0
2, 18688, Note_on_c, 1, 33, 124
2, 18800, Note_on_c, 1, 33, 0
2, 18812, Note_on_c, 1, 36, 124
2, 19052, Note_on_c, 1, 36, 0
2, 19064, Control_c, 1, 1, 0
2, 19072, Note_on_c, 1, 41, 124
2, 19076, Control_c, 1, 1, 3
2, 19084, Control_c, 1, 1, 7
2, 19096, Control_c, 1, 1, 11
2, 19108, Control_c, 1, 1, 13
2, 19120, Control_c, 1, 1, 16
2, 19128, Control_c, 1, 1, 17
2, 19160, Control_c, 1, 1, 15
2, 19168, Control_c, 1, 1, 14
2, 19180, Control_c, 1, 1, 13
2, 19192, Control_c, 1, 1, 12
2, 19200, Control_c, 1, 1, 10
2, 19212, Control_c, 1, 1, 9
2, 19224, Control_c, 1, 1, 8
2, 19236, Control_c, 1, 1, 7
2, 19244, Control_c, 1, 1, 6
2, 19264, Control_c, 1, 1, 5
2, 19276, Control_c, 1, 1, 4
2, 19284, Control_c, 1, 1, 2
2, 19296, Control_c, 1, 1, 0
2, 19308, Control_c, 1, 1, 0
2, 19440, Note_on_c, 1, 41, 0
2, 19456, Note_on_c, 1, 29, 124
2, 19568, Note_on_c, 1, 29, 0
2, 19576, Note_on_c, 1, 33, 124
2, 19816, Note_on_c, 1, 33, 0
2, 19840, Note_on_c, 1, 38, 124
2, 20208, Note_on_c, 1, 38, 0
2, 20224, Note_on_c, 1, 29, 124
2, 20336, Note_on_c, 1, 29, 0
2, 20348, Note_on_c, 1, 33, 124
2, 20588, Note_on_c, 1, 33, 0
2, 20608, Note_on_c, 1, 36, 124
2, 20976, Note_on_c, 1, 36, 0
2, 20992, Note_on_c, 1, 33, 124
2, 21104, Note_on_c, 1, 33, 0
2, 21112, Note_on_c, 1, 36, 124
2, 21352, Note_on_c, 1, 36, 0
2, 21376, Note_on_c, 1, 38, 124
2, 21488, Note_on_c, 1, 38, 0
2, 21504, Note_on_c, 1, 29, 124
2, 21744, Note_on_c, 1, 29, 0
2, 21760, Note_on_c, 1, 33, 124
2, 21872, Note_on_c, 1, 33, 0
2, 21884, Note_on_c, 1, 36, 124
2, 22124, Note_on_c, 1, 36, 0
2, 22144, Note_on_c, 1, 41, 124
2, 22184, Control_c, 1, 1, 1
2, 22196, Control_c, 1, 1, 10
2, 22204, Control_c, 1, 1, 24
2, 22216, Control_c, 1, 1, 33
2, 22236, Control_c, 1, 1, 22
2, 22248, Control_c, 1, 1, 10
2, 22256, Control_c, 1, 1, 4
2, 22268, Control_c, 1, 1, 1
2, 22280, Control_c, 1, 1, 0
2, 22288, Control_c, 1, 1, 0
2, 22512, Note_on_c, 1, 41, 0
2, 22528, Note_on_c, 1, 29, 124
2, 22640, Note_on_c, 1, 29, 0
2, 22648, Note_on_c, 1, 33, 124
2, 22888, Note_on_c, 1, 33, 0
2, 22912, Note_on_c, 1, 38, 124
2, 23280, Note_on_c, 1, 38, 0
2, 23296, Note_on_c, 1, 29, 124
2, 23408, Note_on_c, 1, 29, 0
2, 23420, Note_on_c, 1, 33, 124
2, 23660, Note_on_c, 1, 33, 0
2, 23680, Note_on_c, 1, 36, 124
2, 24048, Note_on_c, 1, 36, 0
2, 24064, Note_on_c, 1, 33, 124
2, 24176, Note_on_c, 1, 33, 0
2, 24184, Note_on_c, 1, 36, 124
2, 24424, Note_on_c, 1, 36, 0
2, 24448, Note_on_c, 1, 38, 124
2, 24560, Note_on_c, 1, 38, 0
2, 24576, Note_on_c, 1, 29, 124
2, 24816, Note_on_c, 1, 29, 0
2, 24832, Note_on_c, 1, 33, 124
2, 24944, Note_on_c, 1, 33, 0
2, 24956, Note_on_c, 1, 36, 124
2, 25196, Note_on_c, 1, 36, 0
2, 25216, Note_on_c, 1, 41, 124
2, 25584, Note_on_c, 1, 41, 0
2, 25600, Note_on_c, 1, 29, 124
2, 25712, Note_on_c, 1, 29, 0
2, 25720, Note_on_c, 1, 31, 124
2, 25960, Note_on_c, 1, 31, 0
2, 25984, Note_on_c, 1, 34, 124
2, 26352, Note_on_c, 1, 34, 0
2, 26368, Note_on_c, 1, 29, 124
2, 26480, Note_on_c, 1, 29, 0
2, 26492, Note_on_c, 1, 31, 124
2, 26732, Note_on_c, 1, 31, 0
2, 26752, Note_on_c, 1, 34, 124
2, 27120, Note_on_c, 1, 34, 0
2, 27136, Note_on_c, 1, 29, 124
2, 27248, Note_on_c, 1, 29, 0
2, 27256, Note_on_c, 1, 34, 124
2, 27496, Note_on_c, 1, 34, 0
2, 27520, Note_on_c, 1, 36, 124
2, 27632, Note_on_c, 1, 36, 0
2, 27648, Note_on_c, 1, 29, 124
2, 27888, Note_on_c, 1, 29, 0
2, 27904, Note_on_c, 1, 33, 124
2, 28016, Note_on_c, 1, 33, 0
2, 28028, Note_on_c, 1, 36, 124
2, 28268, Note_on_c, 1, 36, 0
2, 28288, Note_on_c, 1, 41, 124
2, 28656, Note_on_c, 1, 41, 0
2, 28672, Note_on_c, 1, 29, 124
2, 28784, Note_on_c, 1, 29, 0
2, 28792, Note_on_c, 1, 33, 124
2, 29032, Note_on_c, 1, 33, 0
2, 29056, Note_on_c, 1, 38, 124
2, 29424, Note_on_c, 1, 38, 0
2, 29440, Note_on_c, 1, 29, 124
2, 29552, Note_on_c, 1, 29, 0
2, 29564, Note_on_c, 1, 33, 124
2, 29804, Note_on_c, 1, 33, 0
2, 29824, Note_on_c, 1, 36, 124
2, 30192, Note_on_c, 1, 36, 0
2, 30208, Note_on_c, 1, 33, 124
2, 30320, Note_on_c, 1, 33, 0
2, 30328, Note_on_c, 1, 36, 124
2, 30568, Note_on_c, 1, 36, 0
2, 30592, Note_on_c, 1, 38, 124
2, 30704, Note_on_c, 1, 38, 0
2, 30720, Note_on_c, 1, 29, 124
2, 30960, Note_on_c, 1, 29, 0
2, 30976, Note_on_c, 1, 33, 124
2, 31088, Note_on_c, 1, 33, 0
2, 31100, Note_on_c, 1, 36, 124
2, 31340, Note_on_c, 1, 36, 0
2, 31360, Note_on_c, 1, 41, 124
2, 31728, Note_on_c, 1, 41, 0
2, 31744, Note_on_c, 1, 29, 124
2, 31856, Note_on_c, 1, 29, 0
2, 31864, Note_on_c, 1, 31, 124
2, 32104, Note_on_c, 1, 31, 0
2, 32128, Note_on_c, 1, 34, 124
2, 32496, Note_on_c, 1, 34, 0
2, 32512, Note_on_c, 1, 29, 124
2, 32624, Note_on_c, 1, 29, 0
2, 32636, Note_on_c, 1, 31, 124
2, 32876, Note_on_c, 1, 31, 0
2, 32896, Note_on_c, 1, 34, 124
2, 33264, Note_on_c, 1, 34, 0
2, 33280, Note_on_c, 1, 29, 124
2, 33392, Note_on_c, 1, 29, 0
2, 33400, Note_on_c, 1, 34, 124
2, 33640, Note_on_c, 1, 34, 0
2, 33664, Note_on_c, 1, 36, 124
2, 33776, Note_on_c, 1, 36, 0
2, 33792, Note_on_c, 1, 29, 124
2, 34032, Note_on_c, 1, 29, 0
2, 34048, Note_on_c, 1, 33, 124
2, 34160, Note_on_c, 1, 33, 0
2, 34172, Note_on_c, 1, 36, 124
2, 34412, Note_on_c, 1, 36, 0
2, 34432, Note_on_c, 1, 41, 124
2, 34800, Note_on_c, 1, 41, 0
2, 34816, Note_on_c, 1, 29, 124
2, 34928, Note_on_c, 1, 29, 0
2, 34936, Note_on_c, 1, 33, 124
2, 35176, Note_on_c, 1, 33, 0
2, 35200, Note_on_c, 1, 38, 124
2, 35568, Note_on_c, 1, 38, 0
2, 35584, Note_on_c, 1, 29, 124
2, 35696, Note_on_c, 1, 29, 0
2, 35708, Note_on_c, 1, 33, 124
2, 35948, Note_on_c, 1, 33, 0
2, 35968, Note_on_c, 1, 36, 124
2, 36336, Note_on_c, 1, 36, 0
2, 36352, Note_on_c, 1, 33, 124
2, 36464, Note_on_c, 1, 33, 0
2, 36472, Note_on_c, 1, 36, 124
2, 36712, Note_on_c, 1, 36, 0
2, 36736, Note_on_c, 1, 38, 124
2, 36848, Note_on_c, 1, 38, 0
2, 36864, Note_on_c, 1, 29, 124
2, 37104, Note_on_c, 1, 29, 0
2, 37120, Note_on_c, 1, 33, 124
2, 37232, Note_on_c, 1, 33, 0
2, 37244, Note_on_c, 1, 36, 124
2, 37484, Note_on_c, 1, 36, 0
2, 37504, Note_on_c, 1, 41, 124
2, 37872, Note_on_c, 1, 41, 0
2, 37888, Note_on_c, 1, 29, 124
2, 38000, Note_on_c, 1, 29, 0
2, 38008, Note_on_c, 1, 33, 124
2, 38248, Note_on_c, 1, 33, 0
2, 38272, Note_on_c, 1, 38, 124
2, 38640, Note_on_c, 1, 38, 0
2, 38656, Note_on_c, 1, 29, 124
2, 38768, Note_on_c, 1, 29, 0
2, 38780, Note_on_c, 1, 33, 124
2, 39020, Note_on_c, 1, 33, 0
2, 39040, Note_on_c, 1, 36, 124
2, 39408, Note_on_c, 1, 36, 0
2, 39424, Note_on_c, 1, 33, 124
2, 39536, Note_on_c, 1, 33, 0
2, 39544, Note_on_c, 1, 36, 124
2, 39784, Note_on_c, 1, 36, 0
2, 39808, Note_on_c, 1, 38, 124
2, 39920, Note_on_c, 1, 38, 0
2, 39936, Note_on_c, 1, 29, 124
2, 40176, Note_on_c, 1, 29, 0
2, 40192, Note_on_c, 1, 33, 124
2, 40304, Note_on_c, 1, 33, 0
2, 40316, Note_on_c, 1, 36, 124
2, 40556, Note_on_c, 1, 36, 0
2, 40576, Note_on_c, 1, 41, 124
2, 40944, Note_on_c, 1, 41, 0
2, 40960, Note_on_c, 1, 29, 124
2, 41072, Note_on_c, 1, 29, 0
2, 41080, Note_on_c, 1, 33, 124
2, 41320, Note_on_c, 1, 33, 0
2, 41344, Note_on_c, 1, 38, 124
2, 41712, Note_on_c, 1, 38, 0
2, 41728, Note_on_c, 1, 29, 124
2, 41840, Note_on_c, 1, 29, 0
2, 41852, Note_on_c, 1, 33, 124
2, 42092, Note_on_c, 1, 33, 0
2, 42112, Note_on_c, 1, 36, 124
2, 42480, Note_on_c, 1, 36, 0
2, 42496, Note_on_c, 1, 33, 124
2, 42608, Note_on_c, 1, 33, 0
2, 42616, Note_on_c, 1, 36, 124
2, 42856, Note_on_c, 1, 36, 0
2, 42880, Note_on_c, 1, 38, 124
2, 42992, Note_on_c, 1, 38, 0
2, 43008, Note_on_c, 1, 29, 124
2, 43248, Note_on_c, 1, 29, 0
2, 43264, Note_on_c, 1, 33, 124
2, 43376, Note_on_c, 1, 33, 0
2, 43388, Note_on_c, 1, 36, 124
2, 43628, Note_on_c, 1, 36, 0
2, 43648, Note_on_c, 1, 41, 124
2, 44016, Note_on_c, 1, 41, 0
2, 44032, Note_on_c, 1, 29, 124
2, 44144, Note_on_c, 1, 29, 0
2, 44152, Note_on_c, 1, 31, 124
2, 44392, Note_on_c, 1, 31, 0
2, 44416, Note_on_c, 1, 34, 124
2, 44784, Note_on_c, 1, 34, 0
2, 44800, Note_on_c, 1, 29, 124
2, 44912, Note_on_c, 1, 29, 0
2, 44924, Note_on_c, 1, 31, 124
2, 45164, Note_on_c, 1, 31, 0
2, 45184, Note_on_c, 1, 34, 124
2, 45552, Note_on_c, 1, 34, 0
2, 45568, Note_on_c, 1, 29, 124
2, 45680, Note_on_c, 1, 29, 0
2, 45688, Note_on_c, 1, 34, 124
2, 45928, Note_on_c, 1, 34, 0
2, 45952, Note_on_c, 1, 36, 124
2, 46064, Note_on_c, 1, 36, 0
2, 46080, Note_on_c, 1, 29, 124
2, 46320, Note_on_c, 1, 29, 0
2, 46336, Note_on_c, 1, 33, 124
2, 46448, Note_on_c, 1, 33, 0
2, 46460, Note_on_c, 1, 36, 124
2, 46700, Note_on_c, 1, 36, 0
2, 46720, Note_on_c, 1, 41, 124
2, 47088, Note_on_c, 1, 41, 0
2, 47104, Note_on_c, 1, 29, 124
2, 47216, Note_on_c, 1, 29, 0
2, 47224, Note_on_c, 1, 33, 124
2, 47464, Note_on_c, 1, 33, 0
2, 47488, Note_on_c, 1, 38, 124
2, 47856, Note_on_c, 1, 38, 0
2, 47872, Note_on_c, 1, 29, 124
2, 47984, Note_on_c, 1, 29, 0
2, 47996, Note_on_c, 1, 33, 124
2, 48236, Note_on_c, 1, 33, 0
2, 48256, Note_on_c, 1, 36, 124
2, 48624, Note_on_c, 1, 36, 0
2, 48640, Note_on_c, 1, 33, 124
2, 48752, Note_on_c, 1, 33, 0
2, 48760, Note_on_c, 1, 36, 124
2, 49000, Note_on_c, 1, 36, 0
2, 49024, Note_on_c, 1, 38, 124
2, 49136, Note_on_c, 1, 38, 0
2, 49152, Note_on_c, 1, 29, 124
2, 49392, Note_on_c, 1, 29, 0
2, 49408, Note_on_c, 1, 33, 124
2, 49520, Note_on_c, 1, 33, 0
2, 49532, Note_on_c, 1, 36, 124
2, 49772, Note_on_c, 1, 36, 0
2, 49792, Note_on_c, 1, 41, 124
2, 50160, Note_on_c, 1, 41, 0
2, 50176, Note_on_c, 1, 29, 124
2, 50288, Note_on_c, 1, 29, 0
2, 50296, Note_on_c, 1, 31, 124
2, 50536, Note_on_c, 1, 31, 0
2, 50560, Note_on_c, 1, 34, 124
2, 50928, Note_on_c, 1, 34, 0
2, 50944, Note_on_c, 1, 29, 124
2, 51056, Note_on_c, 1, 29, 0
2, 51068, Note_on_c, 1, 31, 124
2, 51308, Note_on_c, 1, 31, 0
2, 51328, Note_on_c, 1, 34, 124
2, 51696, Note_on_c, 1, 34, 0
2, 51712, Note_on_c, 1, 29, 124
2, 51824, Note_on_c, 1, 29, 0
2, 51832, Note_on_c, 1, 34, 124
2, 52072, Note_on_c, 1, 34, 0
2, 52096, Note_on_c, 1, 36, 124
2, 52208, Note_on_c, 1, 36, 0
2, 52224, Note_on_c, 1, 36, 124
2, 52464, Note_on_c, 1, 36, 0
2, 52480, Note_on_c, 1, 34, 124
2, 52592, Note_on_c, 1, 34, 0
2, 52604, Note_on_c, 1, 36, 124
2, 52844, Note_on_c, 1, 36, 0
2, 52864, Note_on_c, 1, 38, 124
2, 53232, Note_on_c, 1, 38, 0
2, 53248, Note_on_c, 1, 36, 124
2, 53360, Note_on_c, 1, 36, 0
2, 53368, Note_on_c, 1, 38, 124
2, 53608, Note_on_c, 1, 38, 0
2, 53632, Note_on_c, 1, 41, 124
2, 54000, Note_on_c, 1, 41, 0
2, 54016, Note_on_c, 1, 36, 124
2, 54128, Note_on_c, 1, 36, 0
2, 54140, Note_on_c, 1, 38, 124
2, 54380, Note_on_c, 1, 38, 0
2, 54400, Note_on_c, 1, 41, 124
2, 54768, Note_on_c, 1, 41, 0
2, 54784, Note_on_c, 1, 38, 124
2, 54896, Note_on_c, 1, 38, 0
2, 54904, Note_on_c, 1, 41, 124
2, 55016, Note_on_c, 1, 41, 0
2, 55040, Note_on_c, 1, 43, 124
2, 55152, Note_on_c, 1, 43, 0
2, 55168, Note_on_c, 1, 41, 124
2, 55280, Note_on_c, 1, 41, 0
2, 55296, Note_on_c, 1, 36, 124
2, 55536, Note_on_c, 1, 36, 0
2, 55552, Note_on_c, 1, 34, 124
2, 55664, Note_on_c, 1, 34, 0
2, 55676, Note_on_c, 1, 36, 124
2, 55916, Note_on_c, 1, 36, 0
2, 55936, Note_on_c, 1, 38, 124
2, 56304, Note_on_c, 1, 38, 0
2, 56320, Note_on_c, 1, 36, 124
2, 56432, Note_on_c, 1, 36, 0
2, 56440, Note_on_c, 1, 38, 124
2, 56680, Note_on_c, 1, 38, 0
2, 56704, Note_on_c, 1, 34, 124
2, 57200, Note_on_c, 1, 34, 0
2, 57212, Note_on_c, 1, 36, 124
2, 57324, Note_on_c, 1, 36, 0
2, 57472, Note_on_c, 1, 36, 124
2, 57584, Note_on_c, 1, 36, 0
2, 58368, Note_on_c, 1, 29, 124
2, 58608, Note_on_c, 1, 29, 0
2, 58624, Note_on_c, 1, 33, 124
2, 58736, Note_on_c, 1, 33, 0
2, 58748, Note_on_c, 1, 36, 124
2, 58988, Note_on_c, 1, 36, 0
2, 58988, Control_c, 1, 1, 1
2, 58996, Control_c, 1, 1, 5
2, 59008, Note_on_c, 1, 41, 124
2, 59008, Control_c, 1, 1, 10
2, 59020, Control_c, 1, 1, 14
2, 59032, Control_c, 1, 1, 17
2, 59040, Control_c, 1, 1, 19
2, 59052, Control_c, 1, 1, 20
2, 59072, Control_c, 1, 1, 18
2, 59084, Control_c, 1, 1, 15
2, 59092, Control_c, 1, 1, 12
2, 59104, Control_c, 1, 1, 8
2, 59116, Control_c, 1, 1, 6
2, 59128, Control_c, 1, 1, 5
2, 59148, Control_c, 1, 1, 4
2, 59156, Control_c, 1, 1, 2
2, 59168, Control_c, 1, 1, 1
2, 59180, Control_c, 1, 1, 0
2, 59188, Control_c, 1, 1, 0
2, 59376, Note_on_c, 1, 41, 0
2, 59392, Note_on_c, 1, 29, 124
2, 59504, Note_on_c, 1, 29, 0
2, 59512, Note_on_c, 1, 33, 124
2, 59752, Note_on_c, 1, 33, 0
2, 59776, Note_on_c, 1, 38, 124
2, 60144, Note_on_c, 1, 38, 0
2, 60160, Note_on_c, 1, 29, 124
2, 60272, Note_on_c, 1, 29, 0
2, 60284, Note_on_c, 1, 33, 124
2, 60524, Note_on_c, 1, 33, 0
2, 60544, Note_on_c, 1, 36, 124
2, 60912, Note_on_c, 1, 36, 0
2, 60928, Note_on_c, 1, 33, 124
2, 61040, Note_on_c, 1, 33, 0
2, 61048, Note_on_c, 1, 36, 124
2, 61288, Note_on_c, 1, 36, 0
2, 61312, Note_on_c, 1, 38, 124
2, 61424, Note_on_c, 1, 38, 0
2, 61440, Note_on_c, 1, 29, 124
2, 61680, Note_on_c, 1, 29, 0
2, 61696, Note_on_c, 1, 33, 124
2, 61808, Note_on_c, 1, 33, 0
2, 61820, Note_on_c, 1, 36, 124
2, 62060, Note_on_c, 1, 36, 0
2, 62080, Note_on_c, 1, 41, 124
2, 62448, Note_on_c, 1, 41, 0
2, 62464, Note_on_c, 1, 29, 124
2, 62576, Note_on_c, 1, 29, 0
2, 62584, Note_on_c, 1, 33, 124
2, 62824, Note_on_c, 1, 33, 0
2, 62848, Note_on_c, 1, 38, 124
2, 63216, Note_on_c, 1, 38, 0
2, 63232, Note_on_c, 1, 29, 124
2, 63344, Note_on_c, 1, 29, 0
2, 63356, Note_on_c, 1, 33, 124
2, 63596, Note_on_c, 1, 33, 0
2, 63616, Note_on_c, 1, 36, 124
2, 63984, Note_on_c, 1, 36, 0
2, 64000, Note_on_c, 1, 33, 124
2, 64112, Note_on_c, 1, 33, 0
2, 64120, Note_on_c, 1, 36, 124
2, 64360, Note_on_c, 1, 36, 0
2, 64384, Note_on_c, 1, 38, 124
2, 64496, Note_on_c, 1, 38, 0
2, 64512, Note_on_c, 1, 29, 124
2, 64752, Note_on_c, 1, 29, 0
2, 64768, Note_on_c, 1, 33, 124
2, 64880, Note_on_c, 1, 33, 0
2, 64892, Note_on_c, 1, 36, 124
2, 65092, Control_c, 1, 1, 0
2, 65100, Control_c, 1, 1, 5
2, 65112, Control_c, 1, 1, 13
2, 65124, Control_c, 1, 1, 21
2, 65132, Note_on_c, 1, 36, 0
2, 65132, Control_c, 1, 1, 28
2, 65144, Control_c, 1, 1, 35
2, 65152, Note_on_c, 1, 41, 124
2, 65156, Control_c, 1, 1, 41
2, 65164, Control_c, 1, 1, 46
2, 65176, Control_c, 1, 1, 51
2, 65188, Control_c, 1, 1, 55
2, 65196, Control_c, 1, 1, 59
2, 65208, Control_c, 1, 1, 63
2, 65220, Control_c, 1, 1, 67
2, 65232, Control_c, 1, 1, 69
2, 65240, Control_c, 1, 1, 71
2, 65272, Control_c, 1, 1, 70
2, 65280, Control_c, 1, 1, 68
2, 65292, Control_c, 1, 1, 65
2, 65304, Control_c, 1, 1, 60
2, 65316, Control_c, 1, 1, 54
2, 65324, Control_c, 1, 1, 47
2, 65336, Control_c, 1, 1, 41
2, 65348, Control_c, 1, 1, 37
2, 65356, Control_c, 1, 1, 34
2, 65368, Control_c, 1, 1, 30
2, 65380, Control_c, 1, 1, 25
2, 65388, Control_c, 1, 1, 19
2, 65400, Control_c, 1, 1, 14
2, 65412, Control_c, 1, 1, 12
2, 65420, Control_c, 1, 1, 11
2, 65440, Control_c, 1, 1, 9
2, 65452, Control_c, 1, 1, 5
2, 65464, Control_c, 1, 1, 2
2, 65472, Control_c, 1, 1, 0
2, 65484, Control_c, 1, 1, 0
2, 65520, Note_on_c, 1, 41, 0
2, 65536, Note_on_c, 1, 29, 124
2, 65648, Note_on_c, 1, 29, 0
2, 65656, Note_on_c, 1, 33, 124
2, 65896, Note_on_c, 1, 33, 0
2, 65920, Note_on_c, 1, 38, 124
2, 66288, Note_on_c, 1, 38, 0
2, 66304, Note_on_c, 1, 29, 124
2, 66416, Note_on_c, 1, 29, 0
2, 66428, Note_on_c, 1, 33, 124
2, 66668, Note_on_c, 1, 33, 0
2, 66688, Note_on_c, 1, 36, 124
2, 67056, Note_on_c, 1, 36, 0
2, 67072, Note_on_c, 1, 33, 124
2, 67184, Note_on_c, 1, 33, 0
2, 67192, Note_on_c, 1, 36, 124
2, 67432, Note_on_c, 1, 36, 0
2, 67456, Note_on_c, 1, 38, 124
2, 67568, Note_on_c, 1, 38, 0
2, 67584, Note_on_c, 1, 29, 124
2, 67824, Note_on_c, 1, 29, 0
2, 67840, Note_on_c, 1, 33, 124
2, 67952, Note_on_c, 1, 33, 0
2, 67964, Note_on_c, 1, 36, 124
2, 68204, Note_on_c, 1, 36, 0
2, 68224, Note_on_c, 1, 41, 124
2, 68592, Note_on_c, 1, 41, 0
2, 68608, Note_on_c, 1, 29, 124
2, 68720, Note_on_c, 1, 29, 0
2, 68728, Note_on_c, 1, 33, 124
2, 68968, Note_on_c, 1, 33, 0
2, 68992, Note_on_c, 1, 38, 124
2, 69360, Note_on_c, 1, 38, 0
2, 69376, Note_on_c, 1, 29, 124
2, 69488, Note_on_c, 1, 29, 0
2, 69500, Note_on_c, 1, 33, 124
2, 69740, Note_on_c, 1, 33, 0
2, 69760, Note_on_c, 1, 36, 124
2, 70128, Note_on_c, 1, 36, 0
2, 70144, Note_on_c, 1, 33, 124
2, 70256, Note_on_c, 1, 33, 0
2, 70264, Note_on_c, 1, 36, 124
2, 70504, Note_on_c, 1, 36, 0
2, 70528, Note_on_c, 1, 38, 124
2, 70640, Note_on_c, 1, 38, 0
2, 70656, Note_on_c, 1, 29, 124
2, 70896, Note_on_c, 1, 29, 0
2, 70912, Note_on_c, 1, 31, 124
2, 71024, Note_on_c, 1, 31, 0
2, 71036, Note_on_c, 1, 36, 124
2, 71268, Control_c, 1, 1, 0
2, 71276, Note_on_c, 1, 36, 0
2, 71280, Control_c, 1, 1, 5
2, 71292, Control_c, 1, 1, 11
2, 71296, Note_on_c, 1, 41, 124
2, 71300, Control_c, 1, 1, 17
2, 71312, Control_c, 1, 1, 22
2, 71324, Control_c, 1, 1, 27
2, 71332, Control_c, 1, 1, 31
2, 71344, Control_c, 1, 1, 34
2, 71356, Control_c, 1, 1, 36
2, 71376, Control_c, 1, 1, 34
2, 71388, Control_c, 1, 1, 30
2, 71396, Control_c, 1, 1, 26
2, 71408, Control_c, 1, 1, 21
2, 71420, Control_c, 1, 1, 17
2, 71428, Control_c, 1, 1, 14
2, 71440, Control_c, 1, 1, 13
2, 71500, Control_c, 1, 1, 11
2, 71512, Control_c, 1, 1, 8
2, 71524, Control_c, 1, 1, 6
2, 71556, Control_c, 1, 1, 5
2, 71564, Control_c, 1, 1, 3
2, 71576, Control_c, 1, 1, 1
2, 71584, Control_c, 1, 1, 0
2, 71596, Control_c, 1, 1, 0
2, 71664, Note_on_c, 1, 41, 0
2, 71680, Note_on_c, 1, 29, 124
2, 71792, Note_on_c, 1, 29, 0
2, 71800, Note_on_c, 1, 33, 124
2, 72040, Note_on_c, 1, 33, 0
2, 72064, Note_on_c, 1, 38, 124
2, 72432, Note_on_c, 1, 38, 0
2, 72448, Note_on_c, 1, 29, 124
2, 72560, Note_on_c, 1, 29, 0
2, 72572, Note_on_c, 1, 33, 124
2, 72812, Note_on_c, 1, 33, 0
2, 72832, Note_on_c, 1, 38, 124
2, 73200, Note_on_c, 1, 38, 0
2, 73216, Note_on_c, 1, 33, 124
2, 73328, Note_on_c, 1, 33, 0
2, 73336, Note_on_c, 1, 38, 124
2, 73576, Note_on_c, 1, 38, 0
2, 73600, Note_on_c, 1, 41, 124
2, 73712, Note_on_c, 1, 41, 0
2, 73728, Note_on_c, 1, 36, 124
2, 73968, Note_on_c, 1, 36, 0
2, 73984, Note_on_c, 1, 41, 124
2, 74096, Note_on_c, 1, 41, 0
2, 74108, Note_on_c, 1, 43, 124
2, 74348, Note_on_c, 1, 43, 0
2, 74368, Note_on_c, 1, 48, 124
2, 74736, Note_on_c, 1, 48, 0
2, 74752, Note_on_c, 1, 29, 124
2, 74864, Note_on_c, 1, 29, 0
2, 74872, Note_on_c, 1, 31, 124
2, 75112, Note_on_c, 1, 31, 0
2, 75136, Note_on_c, 1, 34, 124
2, 75504, Note_on_c, 1, 34, 0
2, 75520, Note_on_c, 1, 29, 124
2, 75632, Note_on_c, 1, 29, 0
2, 75644, Note_on_c, 1, 31, 124
2, 75884, Note_on_c, 1, 31, 0
2, 75904, Note_on_c, 1, 34, 124
2, 76272, Note_on_c, 1, 34, 0
2, 76288, Note_on_c, 1, 41, 124
2, 76400, Note_on_c, 1, 41, 0
2, 76408, Note_on_c, 1, 43, 124
2, 76648, Note_on_c, 1, 43, 0
2, 76672, Note_on_c, 1, 46, 124
2, 77040, Note_on_c, 1, 46, 0
2, 77056, Note_on_c, 1, 41, 124
2, 77168, Note_on_c, 1, 41, 0
2, 77180, Note_on_c, 1, 43, 124
2, 77420, Note_on_c, 1, 43, 0
2, 77440, Note_on_c, 1, 46, 124
2, 77808, Note_on_c, 1, 46, 0
2, 77824, Note_on_c, 1, 41, 124
2, 77936, Note_on_c, 1, 41, 0
2, 77944, Note_on_c, 1, 46, 124
2, 78184, Note_on_c, 1, 46, 0
2, 78208, Note_on_c, 1, 48, 124
2, 78320, Note_on_c, 1, 48, 0
2, 78336, Note_on_c, 1, 29, 124
2, 78576, Note_on_c, 1, 29, 0
2, 78592, Note_on_c, 1, 33, 124
2, 78704, Note_on_c, 1, 33, 0
2, 78716, Note_on_c, 1, 36, 124
2, 78956, Note_on_c, 1, 36, 0
2, 78976, Note_on_c, 1, 41, 124
2, 78976, Control_c, 1, 1, 12
2, 78988, Control_c, 1, 1, 36
2, 79000, Control_c, 1, 1, 58
2, 79008, Control_c, 1, 1, 73
2, 79020, Control_c, 1, 1, 83
2, 79032, Control_c, 1, 1, 88
2, 79040, Control_c, 1, 1, 90
2, 79064, Control_c, 1, 1, 89
2, 79072, Control_c, 1, 1, 84
2, 79084, Control_c, 1, 1, 78
2, 79096, Control_c, 1, 1, 74
2, 79104, Control_c, 1, 1, 71
2, 79116, Control_c, 1, 1, 68
2, 79124, Control_c, 1, 1, 64
2, 79136, Control_c, 1, 1, 61
2, 79148, Control_c, 1, 1, 58
2, 79156, Control_c, 1, 1, 55
2, 79168, Control_c, 1, 1, 52
2, 79180, Control_c, 1, 1, 47
2, 79188, Control_c, 1, 1, 40
2, 79200, Control_c, 1, 1, 30
2, 79212, Control_c, 1, 1, 22
2, 79224, Control_c, 1, 1, 13
2, 79232, Control_c, 1, 1, 7
2, 79244, Control_c, 1, 1, 2
2, 79256, Control_c, 1, 1, 0
2, 79264, Control_c, 1, 1, 0
2, 79344, Note_on_c, 1, 41, 0
2, 79360, Note_on_c, 1, 29, 124
2, 79472, Note_on_c, 1, 29, 0
2, 79480, Note_on_c, 1, 33, 124
2, 79720, Note_on_c, 1, 33, 0
2, 79744, Note_on_c, 1, 38, 124
2, 80112, Note_on_c, 1, 38, 0
2, 80128, Note_on_c, 1, 29, 124
2, 80240, Note_on_c, 1, 29, 0
2, 80252, Note_on_c, 1, 33, 124
2, 80492, Note_on_c, 1, 33, 0
2, 80512, Note_on_c, 1, 36, 124
2, 80880, Note_on_c, 1, 36, 0
2, 80896, Note_on_c, 1, 33, 124
2, 81008, Note_on_c, 1, 33, 0
2, 81016, Note_on_c, 1, 36, 124
2, 81256, Note_on_c, 1, 36, 0
2, 81280, Note_on_c, 1, 38, 124
2, 81392, Note_on_c, 1, 38, 0
2, 81408, Note_on_c, 1, 29, 124
2, 81648, Note_on_c, 1, 29, 0
2, 81664, Note_on_c, 1, 33, 124
2, 81776, Note_on_c, 1, 33, 0
2, 81788, Note_on_c, 1, 36, 124
2, 82028, Note_on_c, 1, 36, 0
2, 82048, Note_on_c, 1, 41, 124
2, 82072, Control_c, 1, 1, 2
2, 82084, Control_c, 1, 1, 7
2, 82096, Control_c, 1, 1, 11
2, 82104, Control_c, 1, 1, 14
2, 82116, Control_c, 1, 1, 17
2, 82128, Control_c, 1, 1, 18
2, 82156, Control_c, 1, 1, 16
2, 82168, Control_c, 1, 1, 15
2, 82232, Control_c, 1, 1, 14
2, 82240, Control_c, 1, 1, 12
2, 82252, Control_c, 1, 1, 9
2, 82260, Control_c, 1, 1, 7
2, 82272, Control_c, 1, 1, 5
2, 82284, Control_c, 1, 1, 4
2, 82356, Control_c, 1, 1, 3
2, 82368, Control_c, 1, 1, 1
2, 82376, Control_c, 1, 1, 0
2, 82388, Control_c, 1, 1, 0
2, 82416, Note_on_c, 1, 41, 0
2, 82432, Note_on_c, 1, 29, 124
2, 82544, Note_on_c, 1, 29, 0
2, 82552, Note_on_c, 1, 33, 124
2, 82792, Note_on_c, 1, 33, 0
2, 82816, Note_on_c, 1, 38, 124
2, 83184, Note_on_c, 1, 38, 0
2, 83200, Note_on_c, 1, 29, 124
2, 83312, Note_on_c, 1, 29, 0
2, 83324, Note_on_c, 1, 33, 124
2, 83564, Note_on_c, 1, 33, 0
2, 83584, Note_on_c, 1, 36, 124
2, 83952, Note_on_c, 1, 36, 0
2, 83968, Note_on_c, 1, 33, 124
2, 84080, Note_on_c, 1, 33, 0
2, 84088, Note_on_c, 1, 36, 124
2, 84328, Note_on_c, 1, 36, 0
2, 84352, Note_on_c, 1, 38, 124
2, 84464, Note_on_c, 1, 38, 0
2, 84480, Note_on_c, 1, 29, 124
2, 84720, Note_on_c, 1, 29, 0
2, 84736, Note_on_c, 1, 33, 124
2, 84848, Note_on_c, 1, 33, 0
2, 84860, Note_on_c, 1, 36, 124
2, 85100, Note_on_c, 1, 36, 0
2, 85120, Note_on_c, 1, 41, 124
2, 85488, Note_on_c, 1, 41, 0
2, 85504, Note_on_c, 1, 29, 124
2, 85616, Note_on_c, 1, 29, 0
2, 85624, Note_on_c, 1, 33, 124
2, 85864, Note_on_c, 1, 33, 0
2, 85888, Note_on_c, 1, 38, 124
2, 86256, Note_on_c, 1, 38, 0
2, 86272, Note_on_c, 1, 29, 124
2, 86384, Note_on_c, 1, 29, 0
2, 86396, Note_on_c, 1, 33, 124
2, 86636, Note_on_c, 1, 33, 0
2, 86656, Note_on_c, 1, 36, 124
2, 87024, Note_on_c, 1, 36, 0
2, 87040, Note_on_c, 1, 33, 124
2, 87152, Note_on_c, 1, 33, 0
2, 87160, Note_on_c, 1, 36, 124
2, 87400, Note_on_c, 1, 36, 0
2, 87424, Note_on_c, 1, 38, 124
2, 87536, Note_on_c, 1, 38, 0
2, 87552, Note_on_c, 1, 29, 124
2, 87792, Note_on_c, 1, 29, 0
2, 87808, Note_on_c, 1, 33, 124
2, 87920, Note_on_c, 1, 33, 0
2, 87932, Note_on_c, 1, 36, 124
2, 88172, Note_on_c, 1, 36, 0
2, 88192, Note_on_c, 1, 41, 124
2, 88560, Note_on_c, 1, 41, 0
2, 88576, Note_on_c, 1, 29, 124
2, 88688, Note_on_c, 1, 29, 0
2, 88696, Note_on_c, 1, 31, 124
2, 88936, Note_on_c, 1, 31, 0
2, 88960, Note_on_c, 1, 34, 124
2, 89328, Note_on_c, 1, 34, 0
2, 89344, Note_on_c, 1, 29, 124
2, 89456, Note_on_c, 1, 29, 0
2, 89468, Note_on_c, 1, 31, 124
2, 89708, Note_on_c, 1, 31, 0
2, 89728, Note_on_c, 1, 34, 124
2, 90096, Note_on_c, 1, 34, 0
2, 90112, Note_on_c, 1, 29, 124
2, 90224, Note_on_c, 1, 29, 0
2, 90232, Note_on_c, 1, 34, 124
2, 90472, Note_on_c, 1, 34, 0
2, 90496, Note_on_c, 1, 36, 124
2, 90608, Note_on_c, 1, 36, 0
2, 90624, Note_on_c, 1, 29, 124
2, 90864, Note_on_c, 1, 29, 0
2, 90880, Note_on_c, 1, 33, 124
2, 90992, Note_on_c, 1, 33, 0
2, 91004, Note_on_c, 1, 36, 124
2, 91244, Note_on_c, 1, 36, 0
2, 91264, Note_on_c, 1, 41, 124
2, 91632, Note_on_c, 1, 41, 0
2, 91648, Note_on_c, 1, 29, 124
2, 91760, Note_on_c, 1, 29, 0
2, 91768, Note_on_c, 1, 33, 124
2, 92008, Note_on_c, 1, 33, 0
2, 92032, Note_on_c, 1, 38, 124
2, 92400, Note_on_c, 1, 38, 0
2, 92416, Note_on_c, 1, 29, 124
2, 92528, Note_on_c, 1, 29, 0
2, 92540, Note_on_c, 1, 33, 124
2, 92780, Note_on_c, 1, 33, 0
2, 92800, Note_on_c, 1, 36, 124
2, 93168, Note_on_c, 1, 36, 0
2, 93184, Note_on_c, 1, 33, 124
2, 93296, Note_on_c, 1, 33, 0
2, 93304, Note_on_c, 1, 36, 124
2, 93568, Note_on_c, 1, 38, 124
2, 93672, Note_on_c, 1, 36, 0
2, 93680, Note_on_c, 1, 38, 0
2, 93696, Note_on_c, 1, 29, 124
2, 93936, Note_on_c, 1, 29, 0
2, 93952, Note_on_c, 1, 33, 124
2, 94064, Note_on_c, 1, 33, 0
2, 94076, Note_on_c, 1, 36, 124
2, 94316, Note_on_c, 1, 36, 0
2, 94336, Note_on_c, 1, 41, 124
2, 94704, Note_on_c, 1, 41, 0
2, 94720, Note_on_c, 1, 29, 124
2, 94832, Note_on_c, 1, 29, 0
2, 94840, Note_on_c, 1, 31, 124
2, 95080, Note_on_c, 1, 31, 0
2, 95104, Note_on_c, 1, 34, 124
2, 95472, Note_on_c, 1, 34, 0
2, 95488, Note_on_c, 1, 29, 124
2, 95600, Note_on_c, 1, 29, 0
2, 95612, Note_on_c, 1, 31, 124
2, 95852, Note_on_c, 1, 31, 0
2, 95872, Note_on_c, 1, 34, 124
2, 96240, Note_on_c, 1, 34, 0
2, 96256, Note_on_c, 1, 29, 124
2, 96368, Note_on_c, 1, 29, 0
2, 96376, Note_on_c, 1, 34, 124
2, 96616, Note_on_c, 1, 34, 0
2, 96640, Note_on_c, 1, 36, 124
2, 96752, Note_on_c, 1, 36, 0
2, 96768, Note_on_c, 1, 36, 124
2, 97008, Note_on_c, 1, 36, 0
2, 97024, Note_on_c, 1, 34, 124
2, 97136, Note_on_c, 1, 34, 0
2, 97148, Note_on_c, 1, 36, 124
2, 97388, Note_on_c, 1, 36, 0
2, 97408, Note_on_c, 1, 38, 124
2, 97776, Note_on_c, 1, 38, 0
2, 97792, Note_on_c, 1, 36, 124
2, 97904, Note_on_c, 1, 36, 0
2, 97912, Note_on_c, 1, 38, 124
2, 98152, Note_on_c, 1, 38, 0
2, 98176, Note_on_c, 1, 41, 124
2, 98544, Note_on_c, 1, 41, 0
2, 98560, Note_on_c, 1, 36, 124
2, 98672, Note_on_c, 1, 36, 0
2, 98684, Note_on_c, 1, 38, 124
2, 98924, Note_on_c, 1, 38, 0
2, 98944, Note_on_c, 1, 41, 124
2, 99312, Note_on_c, 1, 41, 0
2, 99328, Note_on_c, 1, 38, 124
2, 99440, Note_on_c, 1, 38, 0
2, 99448, Note_on_c, 1, 41, 124
2, 99560, Note_on_c, 1, 41, 0
2, 99584, Note_on_c, 1, 43, 124
2, 99696, Note_on_c, 1, 43, 0
2, 99712, Note_on_c, 1, 41, 124
2, 99824, Note_on_c, 1, 41, 0
2, 99840, Note_on_c, 1, 36, 124
2, 100080, Note_on_c, 1, 36, 0
2, 100096, Note_on_c, 1, 34, 124
2, 100208, Note_on_c, 1, 34, 0
2, 100220, Note_on_c, 1, 36, 124
2, 100460, Note_on_c, 1, 36, 0
2, 100480, Note_on_c, 1, 38, 124
2, 100848, Note_on_c, 1, 38, 0
2, 100864, Note_on_c, 1, 36, 124
2, 100976, Note_on_c, 1, 36, 0
2, 100984, Note_on_c, 1, 38, 124
2, 101224, Note_on_c, 1, 38, 0
2, 101248, Note_on_c, 1, 34, 124
2, 101744, Note_on_c, 1, 34, 0
2, 101756, Note_on_c, 1, 36, 124
2, 101996, Note_on_c, 1, 36, 0
2, 102016, Note_on_c, 1, 36, 124
2, 102128, Note_on_c, 1, 36, 0
2, 102912, Note_on_c, 1, 29, 124
2, 103152, Note_on_c, 1, 29, 0
2, 103168, Note_on_c, 1, 33, 124
2, 103280, Note_on_c, 1, 33, 0
2, 103292, Note_on_c, 1, 36, 124
2, 103512, Control_c, 1, 1, 0
2, 103524, Control_c, 1, 1, 5
2, 103532, Note_on_c, 1, 36, 0
2, 103536, Control_c, 1, 1, 10
2, 103544, Control_c, 1, 1, 15
2, 103552, Note_on_c, 1, 41, 124
2, 103556, Control_c, 1, 1, 20
2, 103564, Control_c, 1, 1, 22
2, 103596, Control_c, 1, 1, 24
2, 103608, Control_c, 1, 1, 26
2, 103620, Control_c, 1, 1, 29
2, 103628, Control_c, 1, 1, 32
2, 103640, Control_c, 1, 1, 34
2, 103660, Control_c, 1, 1, 33
2, 103672, Control_c, 1, 1, 30
2, 103680, Control_c, 1, 1, 28
2, 103692, Control_c, 1, 1, 26
2, 103704, Control_c, 1, 1, 24
2, 103716, Control_c, 1, 1, 22
2, 103724, Control_c, 1, 1, 19
2, 103736, Control_c, 1, 1, 15
2, 103748, Control_c, 1, 1, 11
2, 103756, Control_c, 1, 1, 7
2, 103768, Control_c, 1, 1, 3
2, 103776, Control_c, 1, 1, 0
2, 103788, Control_c, 1, 1, 0
2, 103920, Note_on_c, 1, 41, 0
2, 103936, Note_on_c, 1, 29, 124
2, 104048, Note_on_c, 1, 29, 0
2, 104056, Note_on_c, 1, 33, 124
2, 104296, Note_on_c, 1, 33, 0
2, 104320, Note_on_c, 1, 38, 124
2, 104688, Note_on_c, 1, 38, 0
2, 104704, Note_on_c, 1, 29, 124
2, 104816, Note_on_c, 1, 29, 0
2, 104828, Note_on_c, 1, 33, 124
2, 105068, Note_on_c, 1, 33, 0
2, 105088, Note_on_c, 1, 36, 124
2, 105456, Note_on_c, 1, 36, 0
2, 105472, Note_on_c, 1, 33, 124
2, 105584, Note_on_c, 1, 33, 0
2, 105592, Note_on_c, 1, 36, 124
2, 105832, Note_on_c, 1, 36, 0
2, 105856, Note_on_c, 1, 38, 124
2, 105968, Note_on_c, 1, 38, 0
2, 105984, Note_on_c, 1, 29, 124
2, 106224, Note_on_c, 1, 29, 0
2, 106240, Note_on_c, 1, 33, 124
2, 106352, Note_on_c, 1, 33, 0
2, 106364, Note_on_c, 1, 36, 124
2, 106604, Note_on_c, 1, 36, 0
2, 106624, Note_on_c, 1, 41, 124
2, 106992, Note_on_c, 1, 41, 0
2, 107008, Note_on_c, 1, 29, 124
2, 107120, Note_on_c, 1, 29, 0
2, 107128, Note_on_c, 1, 33, 124
2, 107368, Note_on_c, 1, 33, 0
2, 107392, Note_on_c, 1, 38, 124
2, 107760, Note_on_c, 1, 38, 0
2, 107776, Note_on_c, 1, 29, 124
2, 107888, Note_on_c, 1, 29, 0
2, 107900, Note_on_c, 1, 33, 124
2, 108140, Note_on_c, 1, 33, 0
2, 108160, Note_on_c, 1, 36, 124
2, 108528, Note_on_c, 1, 36, 0
2, 108544, Note_on_c, 1, 33, 124
2, 108656, Note_on_c, 1, 33, 0
2, 108664, Note_on_c, 1, 36, 124
2, 108904, Note_on_c, 1, 36, 0
2, 108928, Note_on_c, 1, 38, 124
2, 109040, Note_on_c, 1, 38, 0
2, 109056, Note_on_c, 1, 29, 124
2, 109296, Note_on_c, 1, 29, 0
2, 109312, Note_on_c, 1, 33, 124
2, 109424, Note_on_c, 1, 33, 0
2, 109436, Note_on_c, 1, 36, 124
2, 109676, Note_on_c, 1, 36, 0
2, 109676, Control_c, 1, 1, 0
2, 109684, Control_c, 1, 1, 2
2, 109696, Note_on_c, 1, 41, 124
2, 109696, Control_c, 1, 1, 5
2, 109708, Control_c, 1, 1, 6
2, 109720, Control_c, 1, 1, 7
2, 109740, Control_c, 1, 1, 9
2, 109748, Control_c, 1, 1, 10
2, 109760, Control_c, 1, 1, 12
2, 109768, Control_c, 1, 1, 14
2, 109780, Control_c, 1, 1, 17
2, 109792, Control_c, 1, 1, 19
2, 109800, Control_c, 1, 1, 22
2, 109812, Control_c, 1, 1, 25
2, 109824, Control_c, 1, 1, 28
2, 109836, Control_c, 1, 1, 29
2, 109876, Control_c, 1, 1, 30
2, 109884, Control_c, 1, 1, 32
2, 109896, Control_c, 1, 1, 34
2, 109908, Control_c, 1, 1, 37
2, 109920, Control_c, 1, 1, 39
2, 109928, Control_c, 1, 1, 40
2, 109940, Control_c, 1, 1, 39
2, 109952, Control_c, 1, 1, 35
2, 109960, Control_c, 1, 1, 29
2, 109972, Control_c, 1, 1, 23
2, 109980, Control_c, 1, 1, 19
2, 109992, Control_c, 1, 1, 15
2, 110004, Control_c, 1, 1, 11
2, 110016, Control_c, 1, 1, 7
2, 110024, Control_c, 1, 1, 3
2, 110036, Control_c, 1, 1, 0
2, 110048, Control_c, 1, 1, 0
2, 110064, Note_on_c, 1, 41, 0
2, 110080, Note_on_c, 1, 29, 124
2, 110192, Note_on_c, 1, 29, 0
2, 110200, Note_on_c, 1, 33, 124
2, 110440, Note_on_c, 1, 33, 0
2, 110464, Note_on_c, 1, 38, 124
2, 110832, Note_on_c, 1, 38, 0
2, 110848, Note_on_c, 1, 29, 124
2, 110960, Note_on_c, 1, 29, 0
2, 110972, Note_on_c, 1, 33, 124
2, 111212, Note_on_c, 1, 33, 0
2, 111232, Note_on_c, 1, 36, 124
2, 111600, Note_on_c, 1, 36, 0
2, 111616, Note_on_c, 1, 33, 124
2, 111728, Note_on_c, 1, 33, 0
2, 111736, Note_on_c, 1, 36, 124
2, 111976, Note_on_c, 1, 36, 0
2, 112000, Note_on_c, 1, 38, 124
2, 112112, Note_on_c, 1, 38, 0
2, 112128, Note_on_c, 1, 29, 124
2, 112368, Note_on_c, 1, 29, 0
2, 112384, Note_on_c, 1, 33, 124
2, 112496, Note_on_c, 1, 33, 0
2, 112508, Note_on_c, 1, 36, 124
2, 112748, Note_on_c, 1, 36, 0
2, 112768, Note_on_c, 1, 41, 124
2, 113136, Note_on_c, 1, 41, 0
2, 113152, Note_on_c, 1, 29, 124
2, 113264, Note_on_c, 1, 29, 0
2, 113272, Note_on_c, 1, 33, 124
2, 113512, Note_on_c, 1, 33, 0
2, 113536, Note_on_c, 1, 38, 124
2, 113904, Note_on_c, 1, 38, 0
2, 113920, Note_on_c, 1, 29, 124
2, 114032, Note_on_c, 1, 29, 0
2, 114044, Note_on_c, 1, 33, 124
2, 114284, Note_on_c, 1, 33, 0
2, 114304, Note_on_c, 1, 36, 124
2, 114672, Note_on_c, 1, 36, 0
2, 114688, Note_on_c, 1, 33, 124
2, 114800, Note_on_c, 1, 33, 0
2, 114808, Note_on_c, 1, 36, 124
2, 115048, Note_on_c, 1, 36, 0
2, 115072, Note_on_c, 1, 38, 124
2, 115184, Note_on_c, 1, 38, 0
2, 115200, Note_on_c, 1, 29, 124
2, 115440, Note_on_c, 1, 29, 0
2, 115456, Note_on_c, 1, 31, 124
2, 115568, Note_on_c, 1, 31, 0
2, 115580, Note_on_c, 1, 36, 124
2, 115820, Note_on_c, 1, 36, 0
2, 115840, Note_on_c, 1, 41, 124
2, 116208, Note_on_c, 1, 41, 0
2, 116224, Note_on_c, 1, 29, 124
2, 116336, Note_on_c, 1, 29, 0
2, 116344, Note_on_c, 1, 33, 124
2, 116584, Note_on_c, 1, 33, 0
2, 116608, Note_on_c, 1, 38, 124
2, 116976, Note_on_c, 1, 38, 0
2, 116992, Note_on_c, 1, 29, 124
2, 117104, Note_on_c, 1, 29, 0
2, 117116, Note_on_c, 1, 33, 124
2, 117356, Note_on_c, 1, 33, 0
2, 117376, Note_on_c, 1, 38, 124
2, 117744, Note_on_c, 1, 38, 0
2, 117760, Note_on_c, 1, 33, 124
2, 117872, Note_on_c, 1, 33, 0
2, 117880, Note_on_c, 1, 38, 124
2, 118120, Note_on_c, 1, 38, 0
2, 118144, Note_on_c, 1, 41, 124
2, 118256, Note_on_c, 1, 41, 0
2, 118272, Note_on_c, 1, 36, 124
2, 118512, Note_on_c, 1, 36, 0
2, 118528, Note_on_c, 1, 41, 124
2, 118640, Note_on_c, 1, 41, 0
2, 118652, Note_on_c, 1, 43, 124
2, 118892, Note_on_c, 1, 43, 0
2, 118912, Note_on_c, 1, 48, 124
2, 119280, Note_on_c, 1, 48, 0
2, 119296, Note_on_c, 1, 29, 124
2, 119408, Note_on_c, 1, 29, 0
2, 119416, Note_on_c, 1, 31, 124
2, 119656, Note_on_c, 1, 31, 0
2, 119680, Note_on_c, 1, 34, 124
2, 120048, Note_on_c, 1, 34, 0
2, 120064, Note_on_c, 1, 29, 124
2, 120176, Note_on_c, 1, 29, 0
2, 120188, Note_on_c, 1, 31, 124
2, 120428, Note_on_c, 1, 31, 0
2, 120448, Note_on_c, 1, 34, 124
2, 120816, Note_on_c, 1, 34, 0
2, 120832, Note_on_c, 1, 41, 124
2, 120944, Note_on_c, 1, 41, 0
2, 120952, Note_on_c, 1, 43, 124
2, 121192, Note_on_c, 1, 43, 0
2, 121216, Note_on_c, 1, 46, 124
2, 121584, Note_on_c, 1, 46, 0
2, 121600, Note_on_c, 1, 41, 124
2, 121712, Note_on_c, 1, 41, 0
2, 121724, Note_on_c, 1, 43, 124
2, 121964, Note_on_c, 1, 43, 0
2, 121984, Note_on_c, 1, 46, 124
2, 122352, Note_on_c, 1, 46, 0
2, 122368, Note_on_c, 1, 41, 124
2, 122480, Note_on_c, 1, 41, 0
2, 122488, Note_on_c, 1, 43, 124
2, 122728, Note_on_c, 1, 43, 0
2, 122752, Note_on_c, 1, 48, 124
2, 122864, Note_on_c, 1, 48, 0
2, 122880, Note_on_c, 1, 36, 124
2, 122992, Note_on_c, 1, 36, 0
2, 123008, Note_on_c, 1, 31, 124
2, 123120, Note_on_c, 1, 31, 0
2, 123136, Note_on_c, 1, 36, 124
2, 123248, Note_on_c, 1, 36, 0
2, 125952, Note_on_c, 1, 36, 124
2, 126064, Note_on_c, 1, 36, 0
2, 126080, Note_on_c, 1, 31, 124
2, 126192, Note_on_c, 1, 31, 0
2, 126208, Note_on_c, 1, 36, 124
2, 126320, Note_on_c, 1, 36, 0
2, 129024, Note_on_c, 1, 29, 124
2, 129264, Note_on_c, 1, 29, 0
2, 129280, Note_on_c, 1, 33, 124
2, 129392, Note_on_c, 1, 33, 0
2, 129404, Note_on_c, 1, 36, 124
2, 129644, Note_on_c, 1, 36, 0
2, 129644, Control_c, 1, 1, 1
2, 129656, Control_c, 1, 1, 4
2, 129664, Note_on_c, 1, 41, 124
2, 129664, Control_c, 1, 1, 8
2, 129676, Control_c, 1, 1, 11
2, 129684, Control_c, 1, 1, 14
2, 129696, Control_c, 1, 1, 17
2, 129708, Control_c, 1, 1, 19
2, 129720, Control_c, 1, 1, 21
2, 129728, Control_c, 1, 1, 24
2, 129740, Control_c, 1, 1, 29
2, 129748, Control_c, 1, 1, 35
2, 129760, Control_c, 1, 1, 41
2, 129772, Control_c, 1, 1, 46
2, 129780, Control_c, 1, 1, 50
2, 129792, Control_c, 1, 1, 51
2, 129844, Control_c, 1, 1, 50
2, 129864, Control_c, 1, 1, 48
2, 129876, Control_c, 1, 1, 47
2, 129884, Control_c, 1, 1, 46
2, 129908, Control_c, 1, 1, 45
2, 129916, Control_c, 1, 1, 44
2, 129928, Control_c, 1, 1, 42
2, 129940, Control_c, 1, 1, 41
2, 129948, Control_c, 1, 1, 40
2, 129968, Control_c, 1, 1, 39
2, 129980, Control_c, 1, 1, 37
2, 129992, Control_c, 1, 1, 34
2, 130000, Control_c, 1, 1, 30
2, 130012, Control_c, 1, 1, 26
2, 130024, Control_c, 1, 1, 22
2, 130032, Note_on_c, 1, 41, 0
2, 130036, Control_c, 1, 1, 17
2, 130044, Control_c, 1, 1, 11
2, 130048, Note_on_c, 1, 29, 124
2, 130056, Control_c, 1, 1, 5
2, 130068, Control_c, 1, 1, 1
2, 130076, Control_c, 1, 1, 0
2, 130088, Control_c, 1, 1, 0
2, 130160, Note_on_c, 1, 29, 0
2, 130168, Note_on_c, 1, 33, 124
2, 130408, Note_on_c, 1, 33, 0
2, 130432, Note_on_c, 1, 38, 124
2, 130800, Note_on_c, 1, 38, 0
2, 130816, Note_on_c, 1, 29, 124
2, 130928, Note_on_c, 1, 29, 0
2, 130940, Note_on_c, 1, 33, 124
2, 131180, Note_on_c, 1, 33, 0
2, 131200, Note_on_c, 1, 36, 124
2, 131568, Note_on_c, 1, 36, 0
2, 131584, Note_on_c, 1, 33, 124
2, 131696, Note_on_c, 1, 33, 0
2, 131704, Note_on_c, 1, 36, 124
2, 131944, Note_on_c, 1, 36, 0
2, 131968, Note_on_c, 1, 38, 124
2, 132080, Note_on_c, 1, 38, 0
2, 132096, Note_on_c, 1, 29, 124
2, 132336, Note_on_c, 1, 29, 0
2, 132352, Note_on_c, 1, 33, 124
2, 132464, Note_on_c, 1, 33, 0
2, 132476, Note_on_c, 1, 36, 124
2, 132628, Control_c, 1, 1, 2
2, 132640, Control_c, 1, 1, 9
2, 132652, Control_c, 1, 1, 18
2, 132660, Control_c, 1, 1, 29
2, 132672, Control_c, 1, 1, 41
2, 132684, Control_c, 1, 1, 50
2, 132692, Control_c, 1, 1, 56
2, 132704, Control_c, 1, 1, 60
2, 132712, Control_c, 1, 1, 63
2, 132716, Note_on_c, 1, 36, 0
2, 132724, Control_c, 1, 1, 64
2, 132736, Control_c, 1, 1, 66
2, 132736, Note_on_c, 1, 41, 124
2, 132776, Control_c, 1, 1, 63
2, 132788, Control_c, 1, 1, 59
2, 132800, Control_c, 1, 1, 53
2, 132808, Control_c, 1, 1, 47
2, 132820, Control_c, 1, 1, 41
2, 132832, Control_c, 1, 1, 35
2, 132840, Control_c, 1, 1, 31
2, 132852, Control_c, 1, 1, 28
2, 132860, Control_c, 1, 1, 27
2, 132944, Control_c, 1, 1, 24
2, 132956, Control_c, 1, 1, 22
2, 132964, Control_c, 1, 1, 19
2, 132976, Control_c, 1, 1, 15
2, 132988, Control_c, 1, 1, 12
2, 132996, Control_c, 1, 1, 9
2, 133008, Control_c, 1, 1, 6
2, 133020, Control_c, 1, 1, 3
2, 133032, Control_c, 1, 1, 1
2, 133040, Control_c, 1, 1, 0
2, 133052, Control_c, 1, 1, 0
2, 133104, Note_on_c, 1, 41, 0
2, 133120, Note_on_c, 1, 29, 124
2, 133232, Note_on_c, 1, 29, 0
2, 133240, Note_on_c, 1, 31, 124
2, 133480, Note_on_c, 1, 31, 0
2, 133504, Note_on_c, 1, 34, 124
2, 133872, Note_on_c, 1, 34, 0
2, 133888, Note_on_c, 1, 29, 124
2, 134000, Note_on_c, 1, 29, 0
2, 134012, Note_on_c, 1, 31, 124
2, 134252, Note_on_c, 1, 31, 0
2, 134272, Note_on_c, 1, 34, 124
2, 134372, Control_c, 1, 1, 0
2, 134424, Control_c, 1, 1, 0
2, 134640, Note_on_c, 1, 34, 0
2, 134656, Note_on_c, 1, 29, 124
2, 134768, Note_on_c, 1, 29, 0
2, 134776, Note_on_c, 1, 34, 124
2, 135016, Note_on_c, 1, 34, 0
2, 135040, Note_on_c, 1, 36, 124
2, 135152, Note_on_c, 1, 36, 0
2, 135168, Note_on_c, 1, 29, 124
2, 135408, Note_on_c, 1, 29, 0
2, 135424, Note_on_c, 1, 33, 124
2, 135536, Note_on_c, 1, 33, 0
2, 135548, Note_on_c, 1, 36, 124
2, 135760, Control_c, 1, 1, 0
2, 135768, Control_c, 1, 1, 1
2, 135780, Control_c, 1, 1, 4
2, 135788, Note_on_c, 1, 36, 0
2, 135792, Control_c, 1, 1, 7
2, 135800, Control_c, 1, 1, 11
2, 135808, Note_on_c, 1, 41, 124
2, 135812, Control_c, 1, 1, 15
2, 135824, Control_c, 1, 1, 21
2, 135832, Control_c, 1, 1, 24
2, 135844, Control_c, 1, 1, 26
2, 135856, Control_c, 1, 1, 28
2, 135864, Control_c, 1, 1, 29
2, 135876, Control_c, 1, 1, 30
2, 135888, Control_c, 1, 1, 32
2, 135896, Control_c, 1, 1, 34
2, 135908, Control_c, 1, 1, 35
2, 135948, Control_c, 1, 1, 34
2, 135980, Control_c, 1, 1, 33
2, 135992, Control_c, 1, 1, 31
2, 136004, Control_c, 1, 1, 28
2, 136012, Control_c, 1, 1, 25
2, 136024, Control_c, 1, 1, 22
2, 136032, Control_c, 1, 1, 20
2, 136044, Control_c, 1, 1, 17
2, 136056, Control_c, 1, 1, 14
2, 136064, Control_c, 1, 1, 13
2, 136096, Control_c, 1, 1, 11
2, 136108, Control_c, 1, 1, 8
2, 136120, Control_c, 1, 1, 4
2, 136128, Control_c, 1, 1, 1
2, 136140, Control_c, 1, 1, 0
2, 136148, Control_c, 1, 1, 0
2, 136176, Note_on_c, 1, 41, 0
2, 136192, Note_on_c, 1, 29, 124
2, 136304, Note_on_c, 1, 29, 0
2, 136312, Note_on_c, 1, 33, 124
2, 136552, Note_on_c, 1, 33, 0
2, 136576, Note_on_c, 1, 38, 124
2, 136944, Note_on_c, 1, 38, 0
2, 136960, Note_on_c, 1, 29, 124
2, 137072, Note_on_c, 1, 29, 0
2, 137084, Note_on_c, 1, 33, 124
2, 137288, Control_c, 1, 1, 2
2, 137300, Control_c, 1, 1, 6
2, 137312, Control_c, 1, 1, 11
2, 137320, Control_c, 1, 1, 14
2, 137324, Note_on_c, 1, 33, 0
2, 137332, Control_c, 1, 1, 18
2, 137344, Control_c, 1, 1, 19
2, 137344, Note_on_c, 1, 36, 124
2, 137364, Control_c, 1, 1, 18
2, 137376, Control_c, 1, 1, 16
2, 137384, Control_c, 1, 1, 13
2, 137396, Control_c, 1, 1, 11
2, 137408, Control_c, 1, 1, 8
2, 137416, Control_c, 1, 1, 6
2, 137428, Control_c, 1, 1, 4
2, 137436, Control_c, 1, 1, 2
2, 137448, Control_c, 1, 1, 1
2, 137460, Control_c, 1, 1, 0
2, 137468, Control_c, 1, 1, 0
2, 137712, Note_on_c, 1, 36, 0
2, 137728, Note_on_c, 1, 33, 124
2, 137840, Note_on_c, 1, 33, 0
2, 137848, Note_on_c, 1, 36, 124
2, 138112, Note_on_c, 1, 38, 124
2, 138216, Note_on_c, 1, 36, 0
2, 138224, Note_on_c, 1, 38, 0
2, 138240, Note_on_c, 1, 29, 124
2, 138480, Note_on_c, 1, 29, 0
2, 138496, Note_on_c, 1, 33, 124
2, 138608, Note_on_c, 1, 33, 0
2, 138620, Note_on_c, 1, 36, 124
2, 138860, Note_on_c, 1, 36, 0
2, 138880, Note_on_c, 1, 41, 124
2, 139248, Note_on_c, 1, 41, 0
2, 139264, Note_on_c, 1, 29, 124
2, 139376, Note_on_c, 1, 29, 0
2, 139384, Note_on_c, 1, 31, 124
2, 139624, Note_on_c, 1, 31, 0
2, 139648, Note_on_c, 1, 34, 124
2, 140016, Note_on_c, 1, 34, 0
2, 140032, Note_on_c, 1, 29, 124
2, 140144, Note_on_c, 1, 29, 0
2, 140156, Note_on_c, 1, 31, 124
2, 140396, Note_on_c, 1, 31, 0
2, 140416, Note_on_c, 1, 34, 124
2, 140784, Note_on_c, 1, 34, 0
2, 140800, Note_on_c, 1, 29, 124
2, 140912, Note_on_c, 1, 29, 0
2, 140920, Note_on_c, 1, 34, 124
2, 141160, Note_on_c, 1, 34, 0
2, 141184, Note_on_c, 1, 36, 124
2, 141296, Note_on_c, 1, 36, 0
2, 141312, Note_on_c, 1, 36, 124
2, 141552, Note_on_c, 1, 36, 0
2, 141568, Note_on_c, 1, 34, 124
2, 141680, Note_on_c, 1, 34, 0
2, 141692, Note_on_c, 1, 36, 124
2, 141932, Note_on_c, 1, 36, 0
2, 141952, Note_on_c, 1, 38, 124
2, 142320, Note_on_c, 1, 38, 0
2, 142336, Note_on_c, 1, 36, 124
2, 142448, Note_on_c, 1, 36, 0
2, 142456, Note_on_c, 1, 38, 124
2, 142696, Note_on_c, 1, 38, 0
2, 142720, Note_on_c, 1, 41, 124
2, 143088, Note_on_c, 1, 41, 0
2, 143104, Note_on_c, 1, 36, 124
2, 143216, Note_on_c, 1, 36, 0
2, 143228, Note_on_c, 1, 38, 124
2, 143468, Note_on_c, 1, 38, 0
2, 143488, Note_on_c, 1, 41, 124
2, 143856, Note_on_c, 1, 41, 0
2, 143872, Note_on_c, 1, 38, 124
2, 143984, Note_on_c, 1, 38, 0
2, 143992, Note_on_c, 1, 41, 124
2, 144104, Note_on_c, 1, 41, 0
2, 144128, Note_on_c, 1, 43, 124
2, 144240, Note_on_c, 1, 43, 0
2, 144256, Note_on_c, 1, 41, 124
2, 144368, Note_on_c, 1, 41, 0
2, 144384, Note_on_c, 1, 36, 124
2, 144624, Note_on_c, 1, 36, 0
2, 144640, Note_on_c, 1, 34, 124
2, 144752, Note_on_c, 1, 34, 0
2, 144764, Note_on_c, 1, 36, 124
2, 145004, Note_on_c, 1, 36, 0
2, 145024, Note_on_c, 1, 38, 124
2, 145392, Note_on_c, 1, 38, 0
2, 145408, Note_on_c, 1, 36, 124
2, 145520, Note_on_c, 1, 36, 0
2, 145528, Note_on_c, 1, 38, 124
2, 145768, Note_on_c, 1, 38, 0
2, 145792, Note_on_c, 1, 34, 124
2, 146160, Note_on_c, 1, 34, 0
2, 146176, Note_on_c, 1, 29, 124
2, 146288, Note_on_c, 1, 29, 0
2, 146300, Note_on_c, 1, 31, 124
2, 146540, Note_on_c, 1, 31, 0
2, 146560, Note_on_c, 1, 34, 124
2, 146944, Note_on_c, 1, 38, 124
2, 147056, Note_on_c, 1, 38, 0
2, 147056, Note_on_c, 1, 34, 0
2, 147064, Note_on_c, 1, 41, 124
2, 147176, Note_on_c, 1, 41, 0
2, 147200, Note_on_c, 1, 43, 124
2, 147312, Note_on_c, 1, 43, 0
2, 147328, Note_on_c, 1, 41, 124
2, 147440, Note_on_c, 1, 41, 0
2, 147456, Note_on_c, 1, 36, 124
2, 147696, Note_on_c, 1, 36, 0
2, 147712, Note_on_c, 1, 34, 124
2, 147824, Note_on_c, 1, 34, 0
2, 147836, Note_on_c, 1, 36, 124
2, 148076, Note_on_c, 1, 36, 0
2, 148096, Note_on_c, 1, 38, 124
2, 148464, Note_on_c, 1, 38, 0
2, 148480, Note_on_c, 1, 36, 124
2, 148592, Note_on_c, 1, 36, 0
2, 148600, Note_on_c, 1, 38, 124
2, 148840, Note_on_c, 1, 38, 0
2, 148864, Note_on_c, 1, 41, 124
2, 149232, Note_on_c, 1, 41, 0
2, 149248, Note_on_c, 1, 36, 124
2, 149360, Note_on_c, 1, 36, 0
2, 149372, Note_on_c, 1, 38, 124
2, 149612, Note_on_c, 1, 38, 0
2, 149632, Note_on_c, 1, 41, 124
2, 150000, Note_on_c, 1, 41, 0
2, 150016, Note_on_c, 1, 38, 124
2, 150128, Note_on_c, 1, 38, 0
2, 150136, Note_on_c, 1, 41, 124
2, 150248, Note_on_c, 1, 41, 0
2, 150272, Note_on_c, 1, 43, 124
2, 150384, Note_on_c, 1, 43, 0
2, 150400, Note_on_c, 1, 41, 124
2, 150512, Note_on_c, 1, 41, 0
2, 150528, Note_on_c, 1, 36, 124
2, 150768, Note_on_c, 1, 36, 0
2, 150784, Note_on_c, 1, 34, 124
2, 150896, Note_on_c, 1, 34, 0
2, 150908, Note_on_c, 1, 36, 124
2, 151148, Note_on_c, 1, 36, 0
2, 151168, Note_on_c, 1, 38, 124
2, 151536, Note_on_c, 1, 38, 0
2, 151552, Note_on_c, 1, 36, 124
2, 151664, Note_on_c, 1, 36, 0
2, 151672, Note_on_c, 1, 38, 124
2, 151912, Note_on_c, 1, 38, 0
2, 151936, Note_on_c, 1, 34, 124
2, 152432, Note_on_c, 1, 34, 0
2, 152444, Note_on_c, 1, 36, 124
2, 152684, Note_on_c, 1, 36, 0
2, 152704, Note_on_c, 1, 36, 124
2, 152944, Note_on_c, 1, 36, 0
2, 159104, Note_on_c, 1, 41, 124
2, 159200, Note_on_c, 1, 41, 0
2, 159232, Note_on_c, 1, 41, 124
2, 159328, Note_on_c, 1, 41, 0
2, 159352, Note_on_c, 1, 41, 124
2, 159448, Note_on_c, 1, 41, 0
2, 159488, Note_on_c, 1, 41, 124
2, 159584, Note_on_c, 1, 41, 0
2, 159616, Note_on_c, 1, 41, 124
2, 159712, Note_on_c, 1, 41, 0
2, 162176, Note_on_c, 1, 41, 124
2, 162272, Note_on_c, 1, 41, 0
2, 162304, Note_on_c, 1, 41, 124
2, 162400, Note_on_c, 1, 41, 0
2, 162424, Note_on_c, 1, 41, 124
2, 162520, Note_on_c, 1, 41, 0
2, 162560, Note_on_c, 1, 41, 124
2, 162656, Note_on_c, 1, 41, 0
2, 162688, Note_on_c, 1, 41, 124
2, 162784, Note_on_c, 1, 41, 0
2, 165248, Note_on_c, 1, 41, 124
2, 165344, Note_on_c, 1, 41, 0
2, 165376, Note_on_c, 1, 41, 124
2, 165472, Note_on_c, 1, 41, 0
2, 165496, Note_on_c, 1, 41, 124
2, 165592, Note_on_c, 1, 41, 0
2, 165632, Note_on_c, 1, 41, 124
2, 165728, Note_on_c, 1, 41, 0
2, 165760, Note_on_c, 1, 41, 124
2, 165856, Note_on_c, 1, 41, 0
2, 168320, Note_on_c, 1, 41, 124
2, 168416, Note_on_c, 1, 41, 0
2, 168448, Note_on_c, 1, 41, 124
2, 168544, Note_on_c, 1, 41, 0
2, 168568, Note_on_c, 1, 41, 124
2, 168664, Note_on_c, 1, 41, 0
2, 168704, Note_on_c, 1, 41, 124
2, 168800, Note_on_c, 1, 41, 0
2, 168832, Note_on_c, 1, 41, 124
2, 168928, Note_on_c, 1, 41, 0
2, 168960, Note_on_c, 1, 29, 124
2, 169200, Note_on_c, 1, 29, 0
2, 169216, Note_on_c, 1, 31, 124
2, 169328, Note_on_c, 1, 31, 0
2, 169340, Note_on_c, 1, 36, 124
2, 169580, Note_on_c, 1, 36, 0
2, 169584, Control_c, 1, 1, 2
2, 169596, Control_c, 1, 1, 9
2, 169600, Note_on_c, 1, 41, 124
2, 169608, Control_c, 1, 1, 18
2, 169616, Control_c, 1, 1, 25
2, 169628, Control_c, 1, 1, 31
2, 169640, Control_c, 1, 1, 35
2, 169648, Control_c, 1, 1, 38
2, 169660, Control_c, 1, 1, 40
2, 169668, Control_c, 1, 1, 42
2, 169680, Control_c, 1, 1, 44
2, 169692, Control_c, 1, 1, 48
2, 169700, Control_c, 1, 1, 51
2, 169712, Control_c, 1, 1, 54
2, 169724, Control_c, 1, 1, 55
2, 169732, Control_c, 1, 1, 56
2, 169744, Control_c, 1, 1, 57
2, 169764, Control_c, 1, 1, 58
2, 169776, Control_c, 1, 1, 59
2, 169788, Control_c, 1, 1, 61
2, 169796, Control_c, 1, 1, 63
2, 169808, Control_c, 1, 1, 64
2, 169820, Control_c, 1, 1, 66
2, 169848, Control_c, 1, 1, 67
2, 169900, Control_c, 1, 1, 64
2, 169912, Control_c, 1, 1, 59
2, 169924, Control_c, 1, 1, 54
2, 169932, Control_c, 1, 1, 48
2, 169944, Control_c, 1, 1, 41
2, 169956, Control_c, 1, 1, 31
2, 169964, Control_c, 1, 1, 20
2, 169968, Note_on_c, 1, 41, 0
2, 169976, Control_c, 1, 1, 9
2, 169984, Note_on_c, 1, 29, 124
2, 169988, Control_c, 1, 1, 3
2, 169996, Control_c, 1, 1, 0
2, 170008, Control_c, 1, 1, 0
2, 170096, Note_on_c, 1, 29, 0
2, 170104, Note_on_c, 1, 33, 124
2, 170344, Note_on_c, 1, 33, 0
2, 170368, Note_on_c, 1, 38, 124
2, 170736, Note_on_c, 1, 38, 0
2, 170752, Note_on_c, 1, 29, 124
2, 170864, Note_on_c, 1, 29, 0
2, 170876, Note_on_c, 1, 33, 124
2, 171116, Note_on_c, 1, 33, 0
2, 171136, Note_on_c, 1, 38, 124
2, 171504, Note_on_c, 1, 38, 0
2, 171520, Note_on_c, 1, 33, 124
2, 171632, Note_on_c, 1, 33, 0
2, 171640, Note_on_c, 1, 38, 124
2, 171880, Note_on_c, 1, 38, 0
2, 171904, Note_on_c, 1, 41, 124
2, 172016, Note_on_c, 1, 41, 0
2, 172032, Note_on_c, 1, 36, 124
2, 172272, Note_on_c, 1, 36, 0
2, 172288, Note_on_c, 1, 41, 124
2, 172400, Note_on_c, 1, 41, 0
2, 172412, Note_on_c, 1, 43, 124
2, 172652, Note_on_c, 1, 43, 0
2, 172672, Note_on_c, 1, 48, 124
2, 172676, Control_c, 1, 1, 3
2, 172688, Control_c, 1, 1, 10
2, 172696, Control_c, 1, 1, 19
2, 172708, Control_c, 1, 1, 26
2, 172720, Control_c, 1, 1, 32
2, 172728, Control_c, 1, 1, 37
2, 172740, Control_c, 1, 1, 39
2, 172752, Control_c, 1, 1, 41
2, 172760, Control_c, 1, 1, 44
2, 172772, Control_c, 1, 1, 47
2, 172784, Control_c, 1, 1, 52
2, 172792, Control_c, 1, 1, 56
2, 172804, Control_c, 1, 1, 60
2, 172816, Control_c, 1, 1, 63
2, 172828, Control_c, 1, 1, 66
2, 172836, Control_c, 1, 1, 67
2, 172848, Control_c, 1, 1, 69
2, 172856, Control_c, 1, 1, 70
2, 172868, Control_c, 1, 1, 71
2, 172940, Control_c, 1, 1, 72
2, 172952, Control_c, 1, 1, 73
2, 172960, Control_c, 1, 1, 74
2, 172992, Control_c, 1, 1, 72
2, 173004, Control_c, 1, 1, 70
2, 173016, Control_c, 1, 1, 64
2, 173024, Control_c, 1, 1, 55
2, 173036, Control_c, 1, 1, 46
2, 173040, Note_on_c, 1, 48, 0
2, 173048, Control_c, 1, 1, 36
2, 173056, Note_on_c, 1, 29, 124
2, 173056, Control_c, 1, 1, 24
2, 173068, Control_c, 1, 1, 12
2, 173080, Control_c, 1, 1, 5
2, 173088, Control_c, 1, 1, 1
2, 173100, Control_c, 1, 1, 0
2, 173112, Control_c, 1, 1, 0
2, 173168, Note_on_c, 1, 29, 0
2, 173176, Note_on_c, 1, 31, 124
2, 173416, Note_on_c, 1, 31, 0
2, 173440, Note_on_c, 1, 34, 124
2, 173808, Note_on_c, 1, 34, 0
2, 173824, Note_on_c, 1, 29, 124
2, 173936, Note_on_c, 1, 29, 0
2, 173948, Note_on_c, 1, 31, 124
2, 174188, Note_on_c, 1, 31, 0
2, 174208, Note_on_c, 1, 34, 124
2, 174576, Note_on_c, 1, 34, 0
2, 174592, Note_on_c, 1, 41, 124
2, 174704, Note_on_c, 1, 41, 0
2, 174712, Note_on_c, 1, 43, 124
2, 174952, Note_on_c, 1, 43, 0
2, 174976, Note_on_c, 1, 46, 124
2, 175104, Note_on_c, 1, 46, 0
2, 175104, Note_on_c, 1, 29, 124
2, 175344, Note_on_c, 1, 29, 0
2, 175360, Note_on_c, 1, 31, 124
2, 175472, Note_on_c, 1, 31, 0
2, 175484, Note_on_c, 1, 36, 124
2, 175716, Control_c, 1, 1, 3
2, 175724, Note_on_c, 1, 36, 0
2, 175728, Control_c, 1, 1, 9
2, 175736, Control_c, 1, 1, 15
2, 175744, Note_on_c, 1, 41, 124
2, 175748, Control_c, 1, 1, 21
2, 175760, Control_c, 1, 1, 26
2, 175768, Control_c, 1, 1, 30
2, 175780, Control_c, 1, 1, 36
2, 175788, Control_c, 1, 1, 41
2, 175800, Control_c, 1, 1, 47
2, 175812, Control_c, 1, 1, 54
2, 175820, Control_c, 1, 1, 59
2, 175832, Control_c, 1, 1, 64
2, 175844, Control_c, 1, 1, 67
2, 175852, Control_c, 1, 1, 68
2, 175916, Control_c, 1, 1, 67
2, 175928, Control_c, 1, 1, 64
2, 175936, Control_c, 1, 1, 62
2, 175948, Control_c, 1, 1, 58
2, 175960, Control_c, 1, 1, 55
2, 175968, Control_c, 1, 1, 52
2, 175980, Control_c, 1, 1, 50
2, 175992, Control_c, 1, 1, 47
2, 176000, Control_c, 1, 1, 44
2, 176012, Control_c, 1, 1, 40
2, 176024, Control_c, 1, 1, 35
2, 176032, Control_c, 1, 1, 30
2, 176044, Control_c, 1, 1, 25
2, 176052, Control_c, 1, 1, 19
2, 176064, Control_c, 1, 1, 12
2, 176076, Control_c, 1, 1, 5
2, 176084, Control_c, 1, 1, 1
2, 176096, Control_c, 1, 1, 0
2, 176108, Control_c, 1, 1, 0
2, 176112, Note_on_c, 1, 41, 0
2, 176128, Note_on_c, 1, 29, 124
2, 176240, Note_on_c, 1, 29, 0
2, 176248, Note_on_c, 1, 33, 124
2, 176488, Note_on_c, 1, 33, 0
2, 176512, Note_on_c, 1, 38, 124
2, 176880, Note_on_c, 1, 38, 0
2, 176896, Note_on_c, 1, 29, 124
2, 177008, Note_on_c, 1, 29, 0
2, 177020, Note_on_c, 1, 33, 124
2, 177260, Note_on_c, 1, 33, 0
2, 177280, Note_on_c, 1, 38, 124
2, 177648, Note_on_c, 1, 38, 0
2, 177664, Note_on_c, 1, 33, 124
2, 177776, Note_on_c, 1, 33, 0
2, 177784, Note_on_c, 1, 38, 124
2, 178024, Note_on_c, 1, 38, 0
2, 178048, Note_on_c, 1, 41, 124
2, 178160, Note_on_c, 1, 41, 0
2, 178176, Note_on_c, 1, 36, 124
2, 178416, Note_on_c, 1, 36, 0
2, 178432, Note_on_c, 1, 41, 124
2, 178544, Note_on_c, 1, 41, 0
2, 178556, Note_on_c, 1, 43, 124
2, 178796, Note_on_c, 1, 43, 0
2, 178816, Note_on_c, 1, 48, 124
2, 178836, Control_c, 1, 1, 0
2, 178844, Control_c, 1, 1, 6
2, 178856, Control_c, 1, 1, 13
2, 178864, Control_c, 1, 1, 20
2, 178876, Control_c, 1, 1, 25
2, 178888, Control_c, 1, 1, 27
2, 178920, Control_c, 1, 1, 28
2, 178928, Control_c, 1, 1, 30
2, 178940, Control_c, 1, 1, 34
2, 178952, Control_c, 1, 1, 41
2, 178960, Control_c, 1, 1, 47
2, 178972, Control_c, 1, 1, 54
2, 178984, Control_c, 1, 1, 59
2, 178992, Control_c, 1, 1, 63
2, 179004, Control_c, 1, 1, 66
2, 179016, Control_c, 1, 1, 67
2, 179044, Control_c, 1, 1, 66
2, 179056, Control_c, 1, 1, 64
2, 179068, Control_c, 1, 1, 63
2, 179076, Control_c, 1, 1, 62
2, 179088, Control_c, 1, 1, 61
2, 179096, Control_c, 1, 1, 60
2, 179108, Control_c, 1, 1, 59
2, 179120, Control_c, 1, 1, 57
2, 179132, Control_c, 1, 1, 52
2, 179140, Control_c, 1, 1, 46
2, 179152, Control_c, 1, 1, 38
2, 179164, Control_c, 1, 1, 26
2, 179172, Control_c, 1, 1, 13
2, 179184, Note_on_c, 1, 48, 0
2, 179184, Control_c, 1, 1, 5
2, 179196, Control_c, 1, 1, 1
2, 179200, Note_on_c, 1, 29, 124
2, 179204, Control_c, 1, 1, 0
2, 179216, Control_c, 1, 1, 0
2, 179312, Note_on_c, 1, 29, 0
2, 179320, Note_on_c, 1, 31, 124
2, 179560, Note_on_c, 1, 31, 0
2, 179584, Note_on_c, 1, 34, 124
2, 179952, Note_on_c, 1, 34, 0
2, 179968, Note_on_c, 1, 29, 124
2, 180080, Note_on_c, 1, 29, 0
2, 180092, Note_on_c, 1, 31, 124
2, 180332, Note_on_c, 1, 31, 0
2, 180352, Note_on_c, 1, 34, 124
2, 180720, Note_on_c, 1, 34, 0
2, 180736, Note_on_c, 1, 41, 124
2, 180848, Note_on_c, 1, 41, 0
2, 180856, Note_on_c, 1, 43, 124
2, 181096, Note_on_c, 1, 43, 0
2, 181120, Note_on_c, 1, 46, 124
2, 181248, Note_on_c, 1, 46, 0
2, 181248, Note_on_c, 1, 29, 124
2, 181488, Note_on_c, 1, 29, 0
2, 181504, Note_on_c, 1, 31, 124
2, 181616, Note_on_c, 1, 31, 0
2, 181628, Note_on_c, 1, 36, 124
2, 181868, Note_on_c, 1, 36, 0
2, 181888, Note_on_c, 1, 41, 124
2, 181952, Control_c, 1, 1, 0
2, 181964, Control_c, 1, 1, 3
2, 181972, Control_c, 1, 1, 5
2, 181984, Control_c, 1, 1, 7
2, 181996, Control_c, 1, 1, 8
2, 182008, Control_c, 1, 1, 9
2, 182016, Control_c, 1, 1, 10
2, 182028, Control_c, 1, 1, 13
2, 182040, Control_c, 1, 1, 17
2, 182048, Control_c, 1, 1, 23
2, 182060, Control_c, 1, 1, 30
2, 182068, Control_c, 1, 1, 37
2, 182080, Control_c, 1, 1, 42
2, 182092, Control_c, 1, 1, 46
2, 182100, Control_c, 1, 1, 48
2, 182112, Control_c, 1, 1, 50
2, 182124, Control_c, 1, 1, 51
2, 182136, Control_c, 1, 1, 52
2, 182144, Control_c, 1, 1, 54
2, 182156, Control_c, 1, 1, 57
2, 182168, Control_c, 1, 1, 60
2, 182176, Control_c, 1, 1, 63
2, 182188, Control_c, 1, 1, 64
2, 182196, Control_c, 1, 1, 63
2, 182208, Control_c, 1, 1, 59
2, 182220, Control_c, 1, 1, 52
2, 182228, Control_c, 1, 1, 43
2, 182240, Control_c, 1, 1, 31
2, 182252, Control_c, 1, 1, 20
2, 182256, Note_on_c, 1, 41, 0
2, 182260, Control_c, 1, 1, 10
2, 182272, Control_c, 1, 1, 4
2, 182272, Note_on_c, 1, 29, 124
2, 182284, Control_c, 1, 1, 1
2, 182292, Control_c, 1, 1, 0
2, 182304, Control_c, 1, 1, 0
2, 182384, Note_on_c, 1, 29, 0
2, 182392, Note_on_c, 1, 33, 124
2, 182632, Note_on_c, 1, 33, 0
2, 182656, Note_on_c, 1, 38, 124
2, 183024, Note_on_c, 1, 38, 0
2, 183040, Note_on_c, 1, 29, 124
2, 183152, Note_on_c, 1, 29, 0
2, 183164, Note_on_c, 1, 33, 124
2, 183404, Note_on_c, 1, 33, 0
2, 183424, Note_on_c, 1, 38, 124
2, 183792, Note_on_c, 1, 38, 0
2, 183808, Note_on_c, 1, 33, 124
2, 183920, Note_on_c, 1, 33, 0
2, 183928, Note_on_c, 1, 38, 124
2, 184168, Note_on_c, 1, 38, 0
2, 184192, Note_on_c, 1, 41, 124
2, 184304, Note_on_c, 1, 41, 0
2, 184320, Note_on_c, 1, 36, 124
2, 184560, Note_on_c, 1, 36, 0
2, 184576, Note_on_c, 1, 41, 124
2, 184688, Note_on_c, 1, 41, 0
2, 184700, Note_on_c, 1, 43, 124
2, 184940, Note_on_c, 1, 43, 0
2, 184960, Note_on_c, 1, 48, 124
2, 185020, Control_c, 1, 1, 0
2, 185052, Control_c, 1, 1, 0
2, 185060, Control_c, 1, 1, 1
2, 185072, Control_c, 1, 1, 2
2, 185084, Control_c, 1, 1, 3
2, 185092, Control_c, 1, 1, 4
2, 185104, Control_c, 1, 1, 6
2, 185116, Control_c, 1, 1, 7
2, 185124, Control_c, 1, 1, 9
2, 185136, Control_c, 1, 1, 10
2, 185148, Control_c, 1, 1, 11
2, 185156, Control_c, 1, 1, 12
2, 185168, Control_c, 1, 1, 13
2, 185180, Control_c, 1, 1, 14
2, 185188, Control_c, 1, 1, 15
2, 185200, Control_c, 1, 1, 18
2, 185212, Control_c, 1, 1, 20
2, 185224, Control_c, 1, 1, 23
2, 185232, Control_c, 1, 1, 27
2, 185244, Control_c, 1, 1, 30
2, 185252, Control_c, 1, 1, 32
2, 185276, Control_c, 1, 1, 29
2, 185284, Control_c, 1, 1, 25
2, 185296, Control_c, 1, 1, 19
2, 185308, Control_c, 1, 1, 11
2, 185316, Control_c, 1, 1, 5
2, 185328, Note_on_c, 1, 48, 0
2, 185328, Control_c, 1, 1, 1
2, 185340, Control_c, 1, 1, 0
2, 185344, Note_on_c, 1, 29, 124
2, 185348, Control_c, 1, 1, 0
2, 185456, Note_on_c, 1, 29, 0
2, 185464, Note_on_c, 1, 31, 124
2, 185704, Note_on_c, 1, 31, 0
2, 185728, Note_on_c, 1, 34, 124
2, 186096, Note_on_c, 1, 34, 0
2, 186112, Note_on_c, 1, 29, 124
2, 186224, Note_on_c, 1, 29, 0
2, 186236, Note_on_c, 1, 31, 124
2, 186476, Note_on_c, 1, 31, 0
2, 186496, Note_on_c, 1, 34, 124
2, 186864, Note_on_c, 1, 34, 0
2, 186880, Note_on_c, 1, 41, 124
2, 186992, Note_on_c, 1, 41, 0
2, 187000, Note_on_c, 1, 43, 124
2, 187240, Note_on_c, 1, 43, 0
2, 187264, Note_on_c, 1, 46, 124
2, 187392, Note_on_c, 1, 46, 0
2, 187392, Note_on_c, 1, 29, 124
2, 187632, Note_on_c, 1, 29, 0
2, 187648, Note_on_c, 1, 31, 124
2, 187760, Note_on_c, 1, 31, 0
2, 187772, Note_on_c, 1, 36, 124
2, 188012, Note_on_c, 1, 36, 0
2, 188012, Control_c, 1, 1, 0
2, 188020, Control_c, 1, 1, 5
2, 188032, Control_c, 1, 1, 14
2, 188032, Note_on_c, 1, 41, 124
2, 188044, Control_c, 1, 1, 24
2, 188052, Control_c, 1, 1, 32
2, 188064, Control_c, 1, 1, 38
2, 188076, Control_c, 1, 1, 42
2, 188084, Control_c, 1, 1, 43
2, 188096, Control_c, 1, 1, 42
2, 188108, Control_c, 1, 1, 41
2, 188116, Control_c, 1, 1, 39
2, 188128, Control_c, 1, 1, 38
2, 188140, Control_c, 1, 1, 37
2, 188160, Control_c, 1, 1, 35
2, 188172, Control_c, 1, 1, 33
2, 188180, Control_c, 1, 1, 29
2, 188192, Control_c, 1, 1, 26
2, 188200, Control_c, 1, 1, 24
2, 188212, Control_c, 1, 1, 23
2, 188264, Control_c, 1, 1, 21
2, 188272, Control_c, 1, 1, 19
2, 188284, Control_c, 1, 1, 15
2, 188296, Control_c, 1, 1, 11
2, 188308, Control_c, 1, 1, 8
2, 188316, Control_c, 1, 1, 7
2, 188328, Control_c, 1, 1, 6
2, 188340, Control_c, 1, 1, 5
2, 188348, Control_c, 1, 1, 3
2, 188360, Control_c, 1, 1, 2
2, 188372, Control_c, 1, 1, 0
2, 188380, Control_c, 1, 1, 0
2, 188400, Note_on_c, 1, 41, 0
2, 188416, Note_on_c, 1, 29, 124
2, 188528, Note_on_c, 1, 29, 0
2, 188536, Note_on_c, 1, 33, 124
2, 188776, Note_on_c, 1, 33, 0
2, 188800, Note_on_c, 1, 38, 124
2, 189168, Note_on_c, 1, 38, 0
2, 189184, Note_on_c, 1, 29, 124
2, 189296, Note_on_c, 1, 29, 0
2, 189308, Note_on_c, 1, 33, 124
2, 189548, Note_on_c, 1, 33, 0
2, 189568, Note_on_c, 1, 38, 124
2, 189936, Note_on_c, 1, 38, 0
2, 189952, Note_on_c, 1, 33, 124
2, 190064, Note_on_c, 1, 33, 0
2, 190072, Note_on_c, 1, 38, 124
2, 190312, Note_on_c, 1, 38, 0
2, 190336, Note_on_c, 1, 41, 124
2, 190448, Note_on_c, 1, 41, 0
2, 190464, Note_on_c, 1, 36, 124
2, 190704, Note_on_c, 1, 36, 0
2, 190720, Note_on_c, 1, 41, 124
2, 190832, Note_on_c, 1, 41, 0
2, 190844, Note_on_c, 1, 43, 124
2, 191084, Note_on_c, 1, 43, 0
2, 191104, Note_on_c, 1, 48, 124
2, 191144, Control_c, 1, 1, 0
2, 191156, Control_c, 1, 1, 3
2, 191164, Control_c, 1, 1, 4
2, 191196, Control_c, 1, 1, 5
2, 191208, Control_c, 1, 1, 6
2, 191220, Control_c, 1, 1, 8
2, 191228, Control_c, 1, 1, 11
2, 191240, Control_c, 1, 1, 13
2, 191248, Control_c, 1, 1, 16
2, 191260, Control_c, 1, 1, 18
2, 191272, Control_c, 1, 1, 20
2, 191280, Control_c, 1, 1, 23
2, 191292, Control_c, 1, 1, 25
2, 191304, Control_c, 1, 1, 27
2, 191312, Control_c, 1, 1, 28
2, 191336, Control_c, 1, 1, 27
2, 191344, Control_c, 1, 1, 25
2, 191356, Control_c, 1, 1, 23
2, 191368, Control_c, 1, 1, 22
2, 191388, Control_c, 1, 1, 23
2, 191396, Control_c, 1, 1, 24
2, 191408, Control_c, 1, 1, 26
2, 191428, Control_c, 1, 1, 22
2, 191440, Control_c, 1, 1, 15
2, 191452, Control_c, 1, 1, 7
2, 191460, Control_c, 1, 1, 2
2, 191472, Note_on_c, 1, 48, 0
2, 191472, Control_c, 1, 1, 0
2, 191484, Control_c, 1, 1, 0
2, 191488, Note_on_c, 1, 29, 124
2, 191600, Note_on_c, 1, 29, 0
2, 191608, Note_on_c, 1, 31, 124
2, 191848, Note_on_c, 1, 31, 0
2, 191872, Note_on_c, 1, 34, 124
2, 192240, Note_on_c, 1, 34, 0
2, 192256, Note_on_c, 1, 29, 124
2, 192368, Note_on_c, 1, 29, 0
2, 192380, Note_on_c, 1, 31, 124
2, 192620, Note_on_c, 1, 31, 0
2, 192640, Note_on_c, 1, 34, 124
2, 193008, Note_on_c, 1, 34, 0
2, 193024, Note_on_c, 1, 41, 124
2, 193136, Note_on_c, 1, 41, 0
2, 193144, Note_on_c, 1, 43, 124
2, 193384, Note_on_c, 1, 43, 0
2, 193408, Note_on_c, 1, 46, 124
2, 193536, Note_on_c, 1, 46, 0
2, 193536, Note_on_c, 1, 46, 124
2, 193776, Note_on_c, 1, 46, 0
2, 193792, Note_on_c, 1, 41, 124
2, 193904, Note_on_c, 1, 41, 0
2, 193916, Note_on_c, 1, 43, 124
2, 194156, Note_on_c, 1, 43, 0
2, 194176, Note_on_c, 1, 46, 124
2, 194544, Note_on_c, 1, 46, 0
2, 194560, Note_on_c, 1, 41, 124
2, 194672, Note_on_c, 1, 41, 0
2, 194680, Note_on_c, 1, 46, 124
2, 194920, Note_on_c, 1, 46, 0
2, 194944, Note_on_c, 1, 48, 124
2, 195056, Note_on_c, 1, 48, 0
2, 195072, Note_on_c, 1, 29, 127
2, 195200, Note_on_c, 1, 29, 0
2, 195200, End_track
3, 0, Start_track
3, 0, MIDI_port, 0
3, 0, Title_t, "Elec Pf"
3, 396, Program_c, 2, 5
3, 397, Control_c, 2, 7, 95
3, 397, Control_c, 2, 10, 34
3, 436, Control_c, 2, 11, 127
3, 440, Control_c, 2, 91, 50
3, 440, Control_c, 2, 93, 127
3, 9216, Note_on_c, 2, 60, 86
3, 9216, Note_on_c, 2, 65, 86
3, 9216, Note_on_c, 2, 69, 86
3, 10560, Note_on_c, 2, 69, 0
3, 10560, Note_on_c, 2, 65, 0
3, 10608, Note_on_c, 2, 60, 0
3, 10636, Note_on_c, 2, 62, 86
3, 10636, Note_on_c, 2, 65, 86
3, 10636, Note_on_c, 2, 69, 86
3, 11388, Note_on_c, 2, 69, 0
3, 11388, Note_on_c, 2, 65, 0
3, 11388, Note_on_c, 2, 62, 0
3, 11404, Note_on_c, 2, 60, 86
3, 11404, Note_on_c, 2, 67, 86
3, 11404, Note_on_c, 2, 64, 86
3, 12284, Note_on_c, 2, 64, 0
3, 12284, Note_on_c, 2, 67, 0
3, 12284, Note_on_c, 2, 60, 0
3, 12288, Note_on_c, 2, 65, 86
3, 12288, Note_on_c, 2, 60, 86
3, 12288, Note_on_c, 2, 69, 86
3, 13632, Note_on_c, 2, 69, 0
3, 13632, Note_on_c, 2, 65, 0
3, 13680, Note_on_c, 2, 60, 0
3, 13708, Note_on_c, 2, 62, 86
3, 13708, Note_on_c, 2, 69, 86
3, 13708, Note_on_c, 2, 65, 86
3, 14460, Note_on_c, 2, 65, 0
3, 14460, Note_on_c, 2, 69, 0
3, 14460, Note_on_c, 2, 62, 0
3, 14476, Note_on_c, 2, 64, 86
3, 14476, Note_on_c, 2, 60, 86
3, 14476, Note_on_c, 2, 67, 86
3, 15356, Note_on_c, 2, 67, 0
3, 15356, Note_on_c, 2, 60, 0
3, 15356, Note_on_c, 2, 64, 0
3, 15360, Note_on_c, 2, 69, 86
3, 15360, Note_on_c, 2, 65, 86
3, 15360, Note_on_c, 2, 60, 86
3, 16704, Note_on_c, 2, 65, 0
3, 16704, Note_on_c, 2, 69, 0
3, 16752, Note_on_c, 2, 60, 0
3, 16780, Note_on_c, 2, 62, 86
3, 16780, Note_on_c, 2, 69, 86
3, 16780, Note_on_c, 2, 65, 86
3, 17532, Note_on_c, 2, 65, 0
3, 17532, Note_on_c, 2, 69, 0
3, 17532, Note_on_c, 2, 62, 0
3, 17548, Note_on_c, 2, 64, 86
3, 17548, Note_on_c, 2, 60, 86
3, 17548, Note_on_c, 2, 67, 86
3, 18428, Note_on_c, 2, 67, 0
3, 18428, Note_on_c, 2, 60, 0
3, 18428, Note_on_c, 2, 64, 0
3, 18432, Note_on_c, 2, 65, 86
3, 18432, Note_on_c, 2, 60, 86
3, 18432, Note_on_c, 2, 69, 86
3, 19776, Note_on_c, 2, 69, 0
3, 19776, Note_on_c, 2, 65, 0
3, 19824, Note_on_c, 2, 60, 0
3, 19852, Note_on_c, 2, 65, 86
3, 19852, Note_on_c, 2, 69, 86
3, 19852, Note_on_c, 2, 62, 86
3, 20604, Note_on_c, 2, 62, 0
3, 20604, Note_on_c, 2, 69, 0
3, 20604, Note_on_c, 2, 65, 0
3, 20620, Note_on_c, 2, 64, 86
3, 20620, Note_on_c, 2, 60, 86
3, 20620, Note_on_c, 2, 67, 86
3, 21500, Note_on_c, 2, 67, 0
3, 21500, Note_on_c, 2, 60, 0
3, 21500, Note_on_c, 2, 64, 0
3, 21504, Note_on_c, 2, 60, 86
3, 21504, Note_on_c, 2, 65, 86
3, 21504, Note_on_c, 2, 69, 86
3, 22848, Note_on_c, 2, 69, 0
3, 22848, Note_on_c, 2, 65, 0
3, 22896, Note_on_c, 2, 60, 0
3, 22924, Note_on_c, 2, 62, 86
3, 22924, Note_on_c, 2, 65, 86
3, 22924, Note_on_c, 2, 69, 86
3, 24572, Note_on_c, 2, 69, 0
3, 24572, Note_on_c, 2, 65, 0
3, 24572, Note_on_c, 2, 62, 0
3, 24576, Note_on_c, 2, 60, 86
3, 24576, Note_on_c, 2, 69, 86
3, 24576, Note_on_c, 2, 65, 86
3, 25920, Note_on_c, 2, 65, 0
3, 25968, Note_on_c, 2, 69, 0
3, 25968, Note_on_c, 2, 60, 0
3, 25996, Note_on_c, 2, 70, 86
3, 25996, Note_on_c, 2, 62, 86
3, 25996, Note_on_c, 2, 65, 86
3, 27644, Note_on_c, 2, 65, 0
3, 27644, Note_on_c, 2, 62, 0
3, 27644, Note_on_c, 2, 70, 0
3, 27648, Note_on_c, 2, 60, 86
3, 27648, Note_on_c, 2, 69, 86
3, 27648, Note_on_c, 2, 65, 86
3, 28992, Note_on_c, 2, 65, 0
3, 28992, Note_on_c, 2, 69, 0
3, 29040, Note_on_c, 2, 60, 0
3, 29068, Note_on_c, 2, 69, 86
3, 29068, Note_on_c, 2, 65, 86
3, 29068, Note_on_c, 2, 62, 86
3, 30716, Note_on_c, 2, 62, 0
3, 30716, Note_on_c, 2, 65, 0
3, 30716, Note_on_c, 2, 69, 0
3, 30720, Note_on_c, 2, 60, 86
3, 30720, Note_on_c, 2, 65, 86
3, 30720, Note_on_c, 2, 69, 86
3, 32064, Note_on_c, 2, 65, 0
3, 32112, Note_on_c, 2, 69, 0
3, 32112, Note_on_c, 2, 60, 0
3, 32140, Note_on_c, 2, 62, 86
3, 32140, Note_on_c, 2, 70, 86
3, 32140, Note_on_c, 2, 65, 86
3, 33788, Note_on_c, 2, 65, 0
3, 33788, Note_on_c, 2, 70, 0
3, 33788, Note_on_c, 2, 62, 0
3, 33792, Note_on_c, 2, 69, 86
3, 33792, Note_on_c, 2, 65, 86
3, 33792, Note_on_c, 2, 60, 86
3, 35136, Note_on_c, 2, 65, 0
3, 35136, Note_on_c, 2, 69, 0
3, 35184, Note_on_c, 2, 60, 0
3, 35212, Note_on_c, 2, 62, 86
3, 35212, Note_on_c, 2, 69, 86
3, 35212, Note_on_c, 2, 65, 86
3, 35964, Note_on_c, 2, 65, 0
3, 35964, Note_on_c, 2, 69, 0
3, 35964, Note_on_c, 2, 62, 0
3, 35980, Note_on_c, 2, 64, 86
3, 35980, Note_on_c, 2, 60, 86
3, 35980, Note_on_c, 2, 67, 86
3, 36860, Note_on_c, 2, 67, 0
3, 36860, Note_on_c, 2, 60, 0
3, 36860, Note_on_c, 2, 64, 0
3, 36864, Note_on_c, 2, 69, 86
3, 36864, Note_on_c, 2, 65, 86
3, 36864, Note_on_c, 2, 60, 86
3, 38208, Note_on_c, 2, 65, 0
3, 38208, Note_on_c, 2, 69, 0
3, 38256, Note_on_c, 2, 60, 0
3, 38284, Note_on_c, 2, 62, 86
3, 38284, Note_on_c, 2, 69, 86
3, 38284, Note_on_c, 2, 65, 86
3, 39036, Note_on_c, 2, 65, 0
3, 39036, Note_on_c, 2, 69, 0
3, 39036, Note_on_c, 2, 62, 0
3, 39052, Note_on_c, 2, 64, 86
3, 39052, Note_on_c, 2, 60, 86
3, 39052, Note_on_c, 2, 67, 86
3, 39932, Note_on_c, 2, 67, 0
3, 39932, Note_on_c, 2, 60, 0
3, 39932, Note_on_c, 2, 64, 0
3, 39936, Note_on_c, 2, 69, 86
3, 39936, Note_on_c, 2, 60, 86
3, 39936, Note_on_c, 2, 65, 86
3, 41280, Note_on_c, 2, 65, 0
3, 41280, Note_on_c, 2, 69, 0
3, 41328, Note_on_c, 2, 60, 0
3, 41356, Note_on_c, 2, 62, 86
3, 41356, Note_on_c, 2, 69, 86
3, 41356, Note_on_c, 2, 65, 86
3, 43004, Note_on_c, 2, 65, 0
3, 43004, Note_on_c, 2, 69, 0
3, 43004, Note_on_c, 2, 62, 0
3, 43008, Note_on_c, 2, 60, 86
3, 43008, Note_on_c, 2, 69, 86
3, 43008, Note_on_c, 2, 65, 86
3, 44352, Note_on_c, 2, 65, 0
3, 44400, Note_on_c, 2, 69, 0
3, 44400, Note_on_c, 2, 60, 0
3, 44428, Note_on_c, 2, 70, 86
3, 44428, Note_on_c, 2, 62, 86
3, 44428, Note_on_c, 2, 65, 86
3, 46076, Note_on_c, 2, 65, 0
3, 46076, Note_on_c, 2, 62, 0
3, 46076, Note_on_c, 2, 70, 0
3, 46080, Note_on_c, 2, 60, 86
3, 46080, Note_on_c, 2, 69, 86
3, 46080, Note_on_c, 2, 65, 86
3, 47424, Note_on_c, 2, 65, 0
3, 47424, Note_on_c, 2, 69, 0
3, 47472, Note_on_c, 2, 60, 0
3, 47500, Note_on_c, 2, 69, 86
3, 47500, Note_on_c, 2, 62, 86
3, 47500, Note_on_c, 2, 65, 86
3, 49148, Note_on_c, 2, 65, 0
3, 49148, Note_on_c, 2, 62, 0
3, 49148, Note_on_c, 2, 69, 0
3, 49152, Note_on_c, 2, 60, 86
3, 49152, Note_on_c, 2, 65, 86
3, 49152, Note_on_c, 2, 69, 86
3, 50496, Note_on_c, 2, 65, 0
3, 50544, Note_on_c, 2, 69, 0
3, 50544, Note_on_c, 2, 60, 0
3, 50572, Note_on_c, 2, 70, 86
3, 50572, Note_on_c, 2, 62, 86
3, 50572, Note_on_c, 2, 65, 86
3, 52220, Note_on_c, 2, 65, 0
3, 52220, Note_on_c, 2, 62, 0
3, 52220, Note_on_c, 2, 70, 0
3, 52224, Note_on_c, 2, 64, 86
3, 52224, Note_on_c, 2, 60, 86
3, 52224, Note_on_c, 2, 67, 86
3, 52848, Note_on_c, 2, 67, 0
3, 52848, Note_on_c, 2, 60, 0
3, 52848, Note_on_c, 2, 64, 0
3, 52876, Note_on_c, 2, 62, 86
3, 52876, Note_on_c, 2, 69, 86
3, 52876, Note_on_c, 2, 65, 86
3, 53548, Note_on_c, 2, 65, 0
3, 53548, Note_on_c, 2, 69, 0
3, 53548, Note_on_c, 2, 62, 0
3, 53644, Note_on_c, 2, 62, 86
3, 53644, Note_on_c, 2, 65, 86
3, 53644, Note_on_c, 2, 69, 86
3, 55292, Note_on_c, 2, 69, 0
3, 55292, Note_on_c, 2, 65, 0
3, 55292, Note_on_c, 2, 62, 0
3, 55296, Note_on_c, 2, 64, 86
3, 55296, Note_on_c, 2, 60, 86
3, 55296, Note_on_c, 2, 67, 86
3, 55920, Note_on_c, 2, 67, 0
3, 55920, Note_on_c, 2, 60, 0
3, 55920, Note_on_c, 2, 64, 0
3, 55948, Note_on_c, 2, 62, 86
3, 55948, Note_on_c, 2, 69, 86
3, 55948, Note_on_c, 2, 65, 86
3, 56620, Note_on_c, 2, 65, 0
3, 56620, Note_on_c, 2, 69, 0
3, 56620, Note_on_c, 2, 62, 0
3, 56716, Note_on_c, 2, 65, 86
3, 56716, Note_on_c, 2, 69, 86
3, 56716, Note_on_c, 2, 62, 86
3, 57212, Note_on_c, 2, 62, 0
3, 57212, Note_on_c, 2, 69, 0
3, 57212, Note_on_c, 2, 65, 0
3, 57212, Note_on_c, 2, 72, 86
3, 57212, Note_on_c, 2, 64, 86
3, 57212, Note_on_c, 2, 67, 86
3, 57452, Note_on_c, 2, 67, 0
3, 57452, Note_on_c, 2, 64, 0
3, 57452, Note_on_c, 2, 72, 0
3, 57484, Note_on_c, 2, 72, 86
3, 57484, Note_on_c, 2, 64, 86
3, 57484, Note_on_c, 2, 67, 86
3, 57604, Note_on_c, 2, 67, 0
3, 57604, Note_on_c, 2, 64, 0
3, 57604, Note_on_c, 2, 72, 0
3, 58368, Note_on_c, 2, 65, 86
3, 58368, Note_on_c, 2, 60, 86
3, 58368, Note_on_c, 2, 69, 86
3, 59712, Note_on_c, 2, 69, 0
3, 59712, Note_on_c, 2, 65, 0
3, 59760, Note_on_c, 2, 60, 0
3, 59788, Note_on_c, 2, 62, 86
3, 59788, Note_on_c, 2, 69, 86
3, 59788, Note_on_c, 2, 65, 86
3, 60540, Note_on_c, 2, 65, 0
3, 60540, Note_on_c, 2, 69, 0
3, 60540, Note_on_c, 2, 62, 0
3, 60556, Note_on_c, 2, 64, 86
3, 60556, Note_on_c, 2, 60, 86
3, 60556, Note_on_c, 2, 67, 86
3, 61436, Note_on_c, 2, 67, 0
3, 61436, Note_on_c, 2, 60, 0
3, 61436, Note_on_c, 2, 64, 0
3, 61440, Note_on_c, 2, 69, 86
3, 61440, Note_on_c, 2, 60, 86
3, 61440, Note_on_c, 2, 65, 86
3, 62784, Note_on_c, 2, 65, 0
3, 62784, Note_on_c, 2, 69, 0
3, 62832, Note_on_c, 2, 60, 0
3, 62860, Note_on_c, 2, 62, 86
3, 62860, Note_on_c, 2, 69, 86
3, 62860, Note_on_c, 2, 65, 86
3, 63612, Note_on_c, 2, 65, 0
3, 63612, Note_on_c, 2, 69, 0
3, 63612, Note_on_c, 2, 62, 0
3, 63628, Note_on_c, 2, 60, 86
3, 63628, Note_on_c, 2, 64, 86
3, 63628, Note_on_c, 2, 67, 86
3, 64508, Note_on_c, 2, 67, 0
3, 64508, Note_on_c, 2, 64, 0
3, 64508, Note_on_c, 2, 60, 0
3, 64512, Note_on_c, 2, 65, 86
3, 64512, Note_on_c, 2, 60, 86
3, 64512, Note_on_c, 2, 69, 86
3, 65856, Note_on_c, 2, 69, 0
3, 65856, Note_on_c, 2, 65, 0
3, 65904, Note_on_c, 2, 60, 0
3, 65932, Note_on_c, 2, 62, 86
3, 65932, Note_on_c, 2, 69, 86
3, 65932, Note_on_c, 2, 65, 86
3, 66684, Note_on_c, 2, 65, 0
3, 66684, Note_on_c, 2, 69, 0
3, 66684, Note_on_c, 2, 62, 0
3, 66700, Note_on_c, 2, 60, 86
3, 66700, Note_on_c, 2, 64, 86
3, 66700, Note_on_c, 2, 67, 86
3, 67580, Note_on_c, 2, 67, 0
3, 67580, Note_on_c, 2, 64, 0
3, 67580, Note_on_c, 2, 60, 0
3, 67584, Note_on_c, 2, 69, 86
3, 67584, Note_on_c, 2, 65, 86
3, 67584, Note_on_c, 2, 60, 86
3, 68928, Note_on_c, 2, 65, 0
3, 68928, Note_on_c, 2, 69, 0
3, 68976, Note_on_c, 2, 60, 0
3, 69004, Note_on_c, 2, 62, 86
3, 69004, Note_on_c, 2, 69, 86
3, 69004, Note_on_c, 2, 65, 86
3, 69756, Note_on_c, 2, 65, 0
3, 69756, Note_on_c, 2, 69, 0
3, 69756, Note_on_c, 2, 62, 0
3, 69772, Note_on_c, 2, 60, 86
3, 69772, Note_on_c, 2, 64, 86
3, 69772, Note_on_c, 2, 67, 86
3, 70652, Note_on_c, 2, 67, 0
3, 70652, Note_on_c, 2, 64, 0
3, 70652, Note_on_c, 2, 60, 0
3, 70656, Note_on_c, 2, 69, 86
3, 70656, Note_on_c, 2, 60, 86
3, 70656, Note_on_c, 2, 65, 86
3, 72000, Note_on_c, 2, 65, 0
3, 72000, Note_on_c, 2, 69, 0
3, 72048, Note_on_c, 2, 60, 0
3, 72076, Note_on_c, 2, 69, 86
3, 72076, Note_on_c, 2, 65, 86
3, 72076, Note_on_c, 2, 62, 86
3, 73596, Note_on_c, 2, 62, 0
3, 73596, Note_on_c, 2, 65, 0
3, 73596, Note_on_c, 2, 69, 0
3, 73612, Note_on_c, 2, 64, 86
3, 73612, Note_on_c, 2, 67, 86
3, 73612, Note_on_c, 2, 60, 86
3, 75132, Note_on_c, 2, 60, 0
3, 75132, Note_on_c, 2, 67, 0
3, 75132, Note_on_c, 2, 64, 0
3, 75148, Note_on_c, 2, 58, 105
3, 75148, Note_on_c, 2, 62, 105
3, 75148, Note_on_c, 2, 65, 105
3, 76684, Note_on_c, 2, 65, 0
3, 76684, Note_on_c, 2, 62, 0
3, 76684, Note_on_c, 2, 58, 0
3, 78336, Note_on_c, 2, 60, 86
3, 78336, Note_on_c, 2, 65, 86
3, 78336, Note_on_c, 2, 69, 86
3, 79680, Note_on_c, 2, 69, 0
3, 79680, Note_on_c, 2, 65, 0
3, 79728, Note_on_c, 2, 60, 0
3, 79756, Note_on_c, 2, 62, 86
3, 79756, Note_on_c, 2, 65, 86
3, 79756, Note_on_c, 2, 69, 86
3, 80508, Note_on_c, 2, 69, 0
3, 80508, Note_on_c, 2, 65, 0
3, 80508, Note_on_c, 2, 62, 0
3, 80524, Note_on_c, 2, 60, 86
3, 80524, Note_on_c, 2, 64, 86
3, 80524, Note_on_c, 2, 67, 86
3, 81404, Note_on_c, 2, 67, 0
3, 81404, Note_on_c, 2, 64, 0
3, 81404, Note_on_c, 2, 60, 0
3, 81408, Note_on_c, 2, 60, 86
3, 81408, Note_on_c, 2, 69, 86
3, 81408, Note_on_c, 2, 65, 86
3, 82752, Note_on_c, 2, 65, 0
3, 82752, Note_on_c, 2, 69, 0
3, 82800, Note_on_c, 2, 60, 0
3, 82828, Note_on_c, 2, 69, 86
3, 82828, Note_on_c, 2, 62, 86
3, 82828, Note_on_c, 2, 65, 86
3, 83580, Note_on_c, 2, 65, 0
3, 83580, Note_on_c, 2, 62, 0
3, 83580, Note_on_c, 2, 69, 0
3, 83596, Note_on_c, 2, 64, 86
3, 83596, Note_on_c, 2, 60, 86
3, 83596, Note_on_c, 2, 67, 86
3, 84476, Note_on_c, 2, 67, 0
3, 84476, Note_on_c, 2, 60, 0
3, 84476, Note_on_c, 2, 64, 0
3, 84480, Note_on_c, 2, 60, 86
3, 84480, Note_on_c, 2, 69, 86
3, 84480, Note_on_c, 2, 65, 86
3, 85824, Note_on_c, 2, 65, 0
3, 85824, Note_on_c, 2, 69, 0
3, 85872, Note_on_c, 2, 60, 0
3, 85900, Note_on_c, 2, 69, 86
3, 85900, Note_on_c, 2, 62, 86
3, 85900, Note_on_c, 2, 65, 86
3, 87548, Note_on_c, 2, 65, 0
3, 87548, Note_on_c, 2, 62, 0
3, 87548, Note_on_c, 2, 69, 0
3, 87552, Note_on_c, 2, 60, 86
3, 87552, Note_on_c, 2, 65, 86
3, 87552, Note_on_c, 2, 69, 86
3, 88896, Note_on_c, 2, 65, 0
3, 88944, Note_on_c, 2, 69, 0
3, 88944, Note_on_c, 2, 60, 0
3, 88972, Note_on_c, 2, 70, 86
3, 88972, Note_on_c, 2, 62, 86
3, 88972, Note_on_c, 2, 65, 86
3, 90620, Note_on_c, 2, 65, 0
3, 90620, Note_on_c, 2, 62, 0
3, 90620, Note_on_c, 2, 70, 0
3, 90624, Note_on_c, 2, 60, 86
3, 90624, Note_on_c, 2, 65, 86
3, 90624, Note_on_c, 2, 69, 86
3, 91968, Note_on_c, 2, 69, 0
3, 91968, Note_on_c, 2, 65, 0
3, 92016, Note_on_c, 2, 60, 0
3, 92044, Note_on_c, 2, 69, 86
3, 92044, Note_on_c, 2, 62, 86
3, 92044, Note_on_c, 2, 65, 86
3, 93692, Note_on_c, 2, 65, 0
3, 93692, Note_on_c, 2, 62, 0
3, 93692, Note_on_c, 2, 69, 0
3, 93696, Note_on_c, 2, 69, 86
3, 93696, Note_on_c, 2, 65, 86
3, 93696, Note_on_c, 2, 60, 86
3, 95040, Note_on_c, 2, 65, 0
3, 95088, Note_on_c, 2, 60, 0
3, 95088, Note_on_c, 2, 69, 0
3, 95116, Note_on_c, 2, 70, 86
3, 95116, Note_on_c, 2, 62, 86
3, 95116, Note_on_c, 2, 65, 86
3, 96764, Note_on_c, 2, 65, 0
3, 96764, Note_on_c, 2, 62, 0
3, 96764, Note_on_c, 2, 70, 0
3, 96768, Note_on_c, 2, 60, 86
3, 96768, Note_on_c, 2, 67, 86
3, 96768, Note_on_c, 2, 64, 86
3, 97392, Note_on_c, 2, 64, 0
3, 97392, Note_on_c, 2, 67, 0
3, 97392, Note_on_c, 2, 60, 0
3, 97420, Note_on_c, 2, 69, 86
3, 97420, Note_on_c, 2, 62, 86
3, 97420, Note_on_c, 2, 65, 86
3, 98092, Note_on_c, 2, 65, 0
3, 98092, Note_on_c, 2, 62, 0
3, 98092, Note_on_c, 2, 69, 0
3, 98188, Note_on_c, 2, 62, 86
3, 98188, Note_on_c, 2, 69, 86
3, 98188, Note_on_c, 2, 65, 86
3, 99836, Note_on_c, 2, 65, 0
3, 99836, Note_on_c, 2, 69, 0
3, 99836, Note_on_c, 2, 62, 0
3, 99840, Note_on_c, 2, 64, 86
3, 99840, Note_on_c, 2, 67, 86
3, 99840, Note_on_c, 2, 60, 86
3, 100464, Note_on_c, 2, 60, 0
3, 100464, Note_on_c, 2, 67, 0
3, 100464, Note_on_c, 2, 64, 0
3, 100492, Note_on_c, 2, 62, 86
3, 100492, Note_on_c, 2, 69, 86
3, 100492, Note_on_c, 2, 65, 86
3, 101164, Note_on_c, 2, 65, 0
3, 101164, Note_on_c, 2, 69, 0
3, 101164, Note_on_c, 2, 62, 0
3, 101260, Note_on_c, 2, 69, 86
3, 101260, Note_on_c, 2, 62, 86
3, 101260, Note_on_c, 2, 65, 86
3, 101756, Note_on_c, 2, 65, 0
3, 101756, Note_on_c, 2, 62, 0
3, 101756, Note_on_c, 2, 69, 0
3, 101756, Note_on_c, 2, 64, 86
3, 101756, Note_on_c, 2, 72, 86
3, 101756, Note_on_c, 2, 67, 86
3, 101996, Note_on_c, 2, 67, 0
3, 101996, Note_on_c, 2, 72, 0
3, 101996, Note_on_c, 2, 64, 0
3, 102028, Note_on_c, 2, 72, 86
3, 102028, Note_on_c, 2, 67, 86
3, 102028, Note_on_c, 2, 64, 86
3, 102148, Note_on_c, 2, 64, 0
3, 102148, Note_on_c, 2, 67, 0
3, 102148, Note_on_c, 2, 72, 0
3, 102912, Note_on_c, 2, 60, 86
3, 102912, Note_on_c, 2, 65, 86
3, 102912, Note_on_c, 2, 69, 86
3, 104256, Note_on_c, 2, 69, 0
3, 104256, Note_on_c, 2, 65, 0
3, 104304, Note_on_c, 2, 60, 0
3, 104332, Note_on_c, 2, 69, 86
3, 104332, Note_on_c, 2, 62, 86
3, 104332, Note_on_c, 2, 65, 86
3, 105084, Note_on_c, 2, 65, 0
3, 105084, Note_on_c, 2, 62, 0
3, 105084, Note_on_c, 2, 69, 0
3, 105100, Note_on_c, 2, 60, 86
3, 105100, Note_on_c, 2, 67, 86
3, 105100, Note_on_c, 2, 64, 86
3, 105980, Note_on_c, 2, 64, 0
3, 105980, Note_on_c, 2, 67, 0
3, 105980, Note_on_c, 2, 60, 0
3, 105984, Note_on_c, 2, 69, 86
3, 105984, Note_on_c, 2, 60, 86
3, 105984, Note_on_c, 2, 65, 86
3, 107328, Note_on_c, 2, 65, 0
3, 107328, Note_on_c, 2, 69, 0
3, 107376, Note_on_c, 2, 60, 0
3, 107404, Note_on_c, 2, 69, 86
3, 107404, Note_on_c, 2, 62, 86
3, 107404, Note_on_c, 2, 65, 86
3, 108076, Note_on_c, 2, 69, 0
3, 108156, Note_on_c, 2, 65, 0
3, 108156, Note_on_c, 2, 62, 0
3, 108172, Note_on_c, 2, 64, 86
3, 108172, Note_on_c, 2, 60, 86
3, 108172, Note_on_c, 2, 67, 86
3, 109052, Note_on_c, 2, 67, 0
3, 109052, Note_on_c, 2, 60, 0
3, 109052, Note_on_c, 2, 64, 0
3, 109056, Note_on_c, 2, 60, 86
3, 109056, Note_on_c, 2, 65, 86
3, 109056, Note_on_c, 2, 69, 86
3, 110400, Note_on_c, 2, 69, 0
3, 110400, Note_on_c, 2, 65, 0
3, 110448, Note_on_c, 2, 60, 0
3, 110476, Note_on_c, 2, 62, 86
3, 110476, Note_on_c, 2, 69, 86
3, 110476, Note_on_c, 2, 65, 86
3, 111228, Note_on_c, 2, 65, 0
3, 111228, Note_on_c, 2, 69, 0
3, 111228, Note_on_c, 2, 62, 0
3, 111244, Note_on_c, 2, 60, 86
3, 111244, Note_on_c, 2, 64, 86
3, 111244, Note_on_c, 2, 67, 86
3, 112124, Note_on_c, 2, 67, 0
3, 112124, Note_on_c, 2, 64, 0
3, 112124, Note_on_c, 2, 60, 0
3, 112128, Note_on_c, 2, 65, 86
3, 112128, Note_on_c, 2, 69, 86
3, 112128, Note_on_c, 2, 60, 86
3, 113472, Note_on_c, 2, 69, 0
3, 113472, Note_on_c, 2, 65, 0
3, 113520, Note_on_c, 2, 60, 0
3, 113548, Note_on_c, 2, 62, 86
3, 113548, Note_on_c, 2, 69, 86
3, 113548, Note_on_c, 2, 65, 86
3, 114300, Note_on_c, 2, 65, 0
3, 114300, Note_on_c, 2, 69, 0
3, 114300, Note_on_c, 2, 62, 0
3, 114316, Note_on_c, 2, 64, 86
3, 114316, Note_on_c, 2, 60, 86
3, 114316, Note_on_c, 2, 67, 86
3, 115196, Note_on_c, 2, 67, 0
3, 115196, Note_on_c, 2, 60, 0
3, 115196, Note_on_c, 2, 64, 0
3, 115200, Note_on_c, 2, 69, 86
3, 115200, Note_on_c, 2, 60, 86
3, 115200, Note_on_c, 2, 65, 86
3, 116544, Note_on_c, 2, 65, 0
3, 116544, Note_on_c, 2, 69, 0
3, 116592, Note_on_c, 2, 60, 0
3, 116620, Note_on_c, 2, 62, 86
3, 116620, Note_on_c, 2, 69, 86
3, 116620, Note_on_c, 2, 65, 86
3, 118140, Note_on_c, 2, 65, 0
3, 118140, Note_on_c, 2, 69, 0
3, 118140, Note_on_c, 2, 62, 0
3, 118156, Note_on_c, 2, 60, 86
3, 118156, Note_on_c, 2, 67, 86
3, 118156, Note_on_c, 2, 64, 86
3, 119676, Note_on_c, 2, 64, 0
3, 119676, Note_on_c, 2, 67, 0
3, 119676, Note_on_c, 2, 60, 0
3, 119692, Note_on_c, 2, 62, 86
3, 119692, Note_on_c, 2, 65, 86
3, 119692, Note_on_c, 2, 58, 86
3, 121340, Note_on_c, 2, 58, 0
3, 121340, Note_on_c, 2, 65, 0
3, 121340, Note_on_c, 2, 62, 0
3, 129024, Note_on_c, 2, 60, 86
3, 129024, Note_on_c, 2, 69, 86
3, 129024, Note_on_c, 2, 65, 86
3, 130368, Note_on_c, 2, 65, 0
3, 130368, Note_on_c, 2, 69, 0
3, 130416, Note_on_c, 2, 60, 0
3, 130444, Note_on_c, 2, 62, 86
3, 130444, Note_on_c, 2, 65, 86
3, 130444, Note_on_c, 2, 69, 86
3, 132092, Note_on_c, 2, 69, 0
3, 132092, Note_on_c, 2, 65, 0
3, 132092, Note_on_c, 2, 62, 0
3, 132096, Note_on_c, 2, 60, 86
3, 132096, Note_on_c, 2, 65, 86
3, 132096, Note_on_c, 2, 69, 86
3, 133440, Note_on_c, 2, 65, 0
3, 133488, Note_on_c, 2, 69, 0
3, 133488, Note_on_c, 2, 60, 0
3, 133516, Note_on_c, 2, 70, 86
3, 133516, Note_on_c, 2, 62, 86
3, 133516, Note_on_c, 2, 65, 86
3, 135164, Note_on_c, 2, 65, 0
3, 135164, Note_on_c, 2, 62, 0
3, 135164, Note_on_c, 2, 70, 0
3, 135168, Note_on_c, 2, 60, 86
3, 135168, Note_on_c, 2, 69, 86
3, 135168, Note_on_c, 2, 65, 86
3, 136512, Note_on_c, 2, 65, 0
3, 136512, Note_on_c, 2, 69, 0
3, 136560, Note_on_c, 2, 60, 0
3, 136588, Note_on_c, 2, 65, 86
3, 136588, Note_on_c, 2, 62, 86
3, 136588, Note_on_c, 2, 69, 86
3, 138236, Note_on_c, 2, 69, 0
3, 138236, Note_on_c, 2, 62, 0
3, 138236, Note_on_c, 2, 65, 0
3, 138240, Note_on_c, 2, 60, 86
3, 138240, Note_on_c, 2, 69, 86
3, 138240, Note_on_c, 2, 65, 86
3, 139584, Note_on_c, 2, 65, 0
3, 139632, Note_on_c, 2, 69, 0
3, 139632, Note_on_c, 2, 60, 0
3, 139660, Note_on_c, 2, 62, 86
3, 139660, Note_on_c, 2, 70, 86
3, 139660, Note_on_c, 2, 65, 86
3, 141308, Note_on_c, 2, 65, 0
3, 141308, Note_on_c, 2, 70, 0
3, 141308, Note_on_c, 2, 62, 0
3, 141312, Note_on_c, 2, 60, 86
3, 141312, Note_on_c, 2, 67, 86
3, 141312, Note_on_c, 2, 64, 86
3, 141936, Note_on_c, 2, 64, 0
3, 141936, Note_on_c, 2, 67, 0
3, 141936, Note_on_c, 2, 60, 0
3, 141964, Note_on_c, 2, 69, 86
3, 141964, Note_on_c, 2, 62, 86
3, 141964, Note_on_c, 2, 65, 86
3, 142636, Note_on_c, 2, 65, 0
3, 142636, Note_on_c, 2, 62, 0
3, 142636, Note_on_c, 2, 69, 0
3, 142732, Note_on_c, 2, 62, 86
3, 142732, Note_on_c, 2, 69, 86
3, 142732, Note_on_c, 2, 65, 86
3, 144380, Note_on_c, 2, 65, 0
3, 144380, Note_on_c, 2, 69, 0
3, 144380, Note_on_c, 2, 62, 0
3, 144384, Note_on_c, 2, 60, 86
3, 144384, Note_on_c, 2, 67, 86
3, 144384, Note_on_c, 2, 64, 86
3, 145008, Note_on_c, 2, 64, 0
3, 145008, Note_on_c, 2, 67, 0
3, 145008, Note_on_c, 2, 60, 0
3, 145036, Note_on_c, 2, 69, 86
3, 145036, Note_on_c, 2, 62, 86
3, 145036, Note_on_c, 2, 65, 86
3, 145708, Note_on_c, 2, 65, 0
3, 145708, Note_on_c, 2, 62, 0
3, 145708, Note_on_c, 2, 69, 0
3, 145804, Note_on_c, 2, 62, 86
3, 145804, Note_on_c, 2, 69, 86
3, 145804, Note_on_c, 2, 65, 86
3, 147452, Note_on_c, 2, 65, 0
3, 147452, Note_on_c, 2, 69, 0
3, 147452, Note_on_c, 2, 62, 0
3, 147456, Note_on_c, 2, 60, 86
3, 147456, Note_on_c, 2, 67, 86
3, 147456, Note_on_c, 2, 64, 86
3, 148080, Note_on_c, 2, 64, 0
3, 148080, Note_on_c, 2, 67, 0
3, 148080, Note_on_c, 2, 60, 0
3, 148108, Note_on_c, 2, 69, 86
3, 148108, Note_on_c, 2, 62, 86
3, 148108, Note_on_c, 2, 65, 86
3, 148780, Note_on_c, 2, 65, 0
3, 148780, Note_on_c, 2, 62, 0
3, 148780, Note_on_c, 2, 69, 0
3, 148876, Note_on_c, 2, 62, 86
3, 148876, Note_on_c, 2, 69, 86
3, 148876, Note_on_c, 2, 65, 86
3, 150524, Note_on_c, 2, 65, 0
3, 150524, Note_on_c, 2, 69, 0
3, 150524, Note_on_c, 2, 62, 0
3, 150528, Note_on_c, 2, 64, 86
3, 150528, Note_on_c, 2, 67, 86
3, 150528, Note_on_c, 2, 60, 86
3, 151152, Note_on_c, 2, 60, 0
3, 151152, Note_on_c, 2, 67, 0
3, 151152, Note_on_c, 2, 64, 0
3, 151180, Note_on_c, 2, 62, 86
3, 151180, Note_on_c, 2, 69, 86
3, 151180, Note_on_c, 2, 65, 86
3, 151852, Note_on_c, 2, 65, 0
3, 151852, Note_on_c, 2, 69, 0
3, 151852, Note_on_c, 2, 62, 0
3, 151948, Note_on_c, 2, 69, 86
3, 151948, Note_on_c, 2, 62, 86
3, 151948, Note_on_c, 2, 65, 86
3, 152444, Note_on_c, 2, 65, 0
3, 152444, Note_on_c, 2, 62, 0
3, 152444, Note_on_c, 2, 69, 0
3, 152444, Note_on_c, 2, 64, 86
3, 152444, Note_on_c, 2, 72, 86
3, 152444, Note_on_c, 2, 67, 86
3, 152684, Note_on_c, 2, 67, 0
3, 152684, Note_on_c, 2, 72, 0
3, 152684, Note_on_c, 2, 64, 0
3, 152716, Note_on_c, 2, 72, 86
3, 152716, Note_on_c, 2, 67, 86
3, 152716, Note_on_c, 2, 64, 86
3, 152836, Note_on_c, 2, 64, 0
3, 152836, Note_on_c, 2, 67, 0
3, 152836, Note_on_c, 2, 72, 0
3, 156672, Note_on_c, 2, 65, 86
3, 156672, Note_on_c, 2, 69, 86
3, 156672, Note_on_c, 2, 60, 86
3, 158016, Note_on_c, 2, 69, 0
3, 158016, Note_on_c, 2, 65, 0
3, 158064, Note_on_c, 2, 60, 0
3, 158092, Note_on_c, 2, 62, 86
3, 158092, Note_on_c, 2, 65, 86
3, 158092, Note_on_c, 2, 69, 86
3, 158844, Note_on_c, 2, 69, 0
3, 158844, Note_on_c, 2, 65, 0
3, 158844, Note_on_c, 2, 62, 0
3, 158860, Note_on_c, 2, 64, 86
3, 158860, Note_on_c, 2, 60, 86
3, 158860, Note_on_c, 2, 67, 86
3, 159740, Note_on_c, 2, 67, 0
3, 159740, Note_on_c, 2, 60, 0
3, 159740, Note_on_c, 2, 64, 0
3, 159744, Note_on_c, 2, 60, 86
3, 159744, Note_on_c, 2, 69, 86
3, 159744, Note_on_c, 2, 65, 86
3, 161088, Note_on_c, 2, 65, 0
3, 161088, Note_on_c, 2, 69, 0
3, 161136, Note_on_c, 2, 60, 0
3, 161164, Note_on_c, 2, 65, 86
3, 161164, Note_on_c, 2, 69, 86
3, 161164, Note_on_c, 2, 62, 86
3, 161916, Note_on_c, 2, 62, 0
3, 161916, Note_on_c, 2, 69, 0
3, 161916, Note_on_c, 2, 65, 0
3, 161932, Note_on_c, 2, 64, 86
3, 161932, Note_on_c, 2, 60, 86
3, 161932, Note_on_c, 2, 67, 86
3, 162812, Note_on_c, 2, 67, 0
3, 162812, Note_on_c, 2, 60, 0
3, 162812, Note_on_c, 2, 64, 0
3, 162816, Note_on_c, 2, 60, 86
3, 162816, Note_on_c, 2, 69, 86
3, 162816, Note_on_c, 2, 65, 86
3, 164160, Note_on_c, 2, 65, 0
3, 164160, Note_on_c, 2, 69, 0
3, 164208, Note_on_c, 2, 60, 0
3, 164236, Note_on_c, 2, 65, 86
3, 164236, Note_on_c, 2, 62, 86
3, 164236, Note_on_c, 2, 69, 86
3, 164988, Note_on_c, 2, 69, 0
3, 164988, Note_on_c, 2, 62, 0
3, 164988, Note_on_c, 2, 65, 0
3, 165004, Note_on_c, 2, 64, 86
3, 165004, Note_on_c, 2, 60, 86
3, 165004, Note_on_c, 2, 67, 86
3, 165884, Note_on_c, 2, 67, 0
3, 165884, Note_on_c, 2, 60, 0
3, 165884, Note_on_c, 2, 64, 0
3, 165888, Note_on_c, 2, 69, 86
3, 165888, Note_on_c, 2, 60, 86
3, 165888, Note_on_c, 2, 65, 86
3, 167232, Note_on_c, 2, 65, 0
3, 167232, Note_on_c, 2, 60, 0
3, 167232, Note_on_c, 2, 69, 0
3, 167308, Note_on_c, 2, 62, 86
3, 167308, Note_on_c, 2, 69, 86
3, 167308, Note_on_c, 2, 65, 86
3, 168060, Note_on_c, 2, 65, 0
3, 168060, Note_on_c, 2, 69, 0
3, 168060, Note_on_c, 2, 62, 0
3, 168076, Note_on_c, 2, 64, 86
3, 168076, Note_on_c, 2, 60, 86
3, 168076, Note_on_c, 2, 67, 86
3, 168956, Note_on_c, 2, 67, 0
3, 168956, Note_on_c, 2, 60, 0
3, 168956, Note_on_c, 2, 64, 0
3, 168960, Note_on_c, 2, 69, 86
3, 168960, Note_on_c, 2, 60, 86
3, 168960, Note_on_c, 2, 65, 86
3, 170304, Note_on_c, 2, 65, 0
3, 170304, Note_on_c, 2, 69, 0
3, 170352, Note_on_c, 2, 60, 0
3, 170380, Note_on_c, 2, 62, 86
3, 170380, Note_on_c, 2, 69, 86
3, 170380, Note_on_c, 2, 65, 86
3, 171900, Note_on_c, 2, 65, 0
3, 171900, Note_on_c, 2, 69, 0
3, 171900, Note_on_c, 2, 62, 0
3, 171916, Note_on_c, 2, 60, 86
3, 171916, Note_on_c, 2, 67, 86
3, 171916, Note_on_c, 2, 64, 86
3, 173436, Note_on_c, 2, 64, 0
3, 173436, Note_on_c, 2, 67, 0
3, 173436, Note_on_c, 2, 60, 0
3, 173452, Note_on_c, 2, 62, 86
3, 173452, Note_on_c, 2, 65, 86
3, 173452, Note_on_c, 2, 58, 86
3, 175100, Note_on_c, 2, 58, 0
3, 175100, Note_on_c, 2, 65, 0
3, 175100, Note_on_c, 2, 62, 0
3, 175104, Note_on_c, 2, 69, 86
3, 175104, Note_on_c, 2, 60, 86
3, 175104, Note_on_c, 2, 65, 86
3, 176448, Note_on_c, 2, 65, 0
3, 176448, Note_on_c, 2, 69, 0
3, 176496, Note_on_c, 2, 60, 0
3, 176524, Note_on_c, 2, 62, 86
3, 176524, Note_on_c, 2, 69, 86
3, 176524, Note_on_c, 2, 65, 86
3, 178044, Note_on_c, 2, 65, 0
3, 178044, Note_on_c, 2, 69, 0
3, 178044, Note_on_c, 2, 62, 0
3, 178060, Note_on_c, 2, 60, 86
3, 178060, Note_on_c, 2, 67, 86
3, 178060, Note_on_c, 2, 64, 86
3, 179580, Note_on_c, 2, 64, 0
3, 179580, Note_on_c, 2, 67, 0
3, 179580, Note_on_c, 2, 60, 0
3, 179596, Note_on_c, 2, 62, 86
3, 179596, Note_on_c, 2, 65, 86
3, 179596, Note_on_c, 2, 58, 86
3, 181244, Note_on_c, 2, 58, 0
3, 181244, Note_on_c, 2, 65, 0
3, 181244, Note_on_c, 2, 62, 0
3, 181248, Note_on_c, 2, 69, 86
3, 181248, Note_on_c, 2, 60, 86
3, 181248, Note_on_c, 2, 65, 86
3, 182592, Note_on_c, 2, 65, 0
3, 182592, Note_on_c, 2, 69, 0
3, 182640, Note_on_c, 2, 60, 0
3, 182668, Note_on_c, 2, 62, 86
3, 182668, Note_on_c, 2, 69, 86
3, 182668, Note_on_c, 2, 65, 86
3, 184188, Note_on_c, 2, 65, 0
3, 184188, Note_on_c, 2, 69, 0
3, 184188, Note_on_c, 2, 62, 0
3, 184204, Note_on_c, 2, 60, 86
3, 184204, Note_on_c, 2, 67, 86
3, 184204, Note_on_c, 2, 64, 86
3, 185724, Note_on_c, 2, 64, 0
3, 185724, Note_on_c, 2, 67, 0
3, 185724, Note_on_c, 2, 60, 0
3, 185740, Note_on_c, 2, 62, 86
3, 185740, Note_on_c, 2, 65, 86
3, 185740, Note_on_c, 2, 58, 86
3, 187388, Note_on_c, 2, 58, 0
3, 187388, Note_on_c, 2, 65, 0
3, 187388, Note_on_c, 2, 62, 0
3, 187392, Note_on_c, 2, 69, 86
3, 187392, Note_on_c, 2, 60, 86
3, 187392, Note_on_c, 2, 65, 86
3, 188736, Note_on_c, 2, 65, 0
3, 188736, Note_on_c, 2, 69, 0
3, 188784, Note_on_c, 2, 60, 0
3, 188812, Note_on_c, 2, 62, 86
3, 188812, Note_on_c, 2, 69, 86
3, 188812, Note_on_c, 2, 65, 86
3, 190332, Note_on_c, 2, 65, 0
3, 190332, Note_on_c, 2, 69, 0
3, 190332, Note_on_c, 2, 62, 0
3, 190348, Note_on_c, 2, 60, 86
3, 190348, Note_on_c, 2, 67, 86
3, 190348, Note_on_c, 2, 64, 86
3, 191868, Note_on_c, 2, 64, 0
3, 191868, Note_on_c, 2, 67, 0
3, 191868, Note_on_c, 2, 60, 0
3, 191884, Note_on_c, 2, 62, 86
3, 191884, Note_on_c, 2, 65, 86
3, 191884, Note_on_c, 2, 58, 86
3, 193532, Note_on_c, 2, 58, 0
3, 193532, Note_on_c, 2, 65, 0
3, 193532, Note_on_c, 2, 62, 0
3, 195072, Note_on_c, 2, 60, 86
3, 195072, Note_on_c, 2, 65, 86
3, 195072, Note_on_c, 2, 69, 86
3, 195200, Note_on_c, 2, 69, 0
3, 195200, Note_on_c, 2, 65, 0
3, 195200, Note_on_c, 2, 60, 0
3, 195200, End_track
4, 0, Start_track
4, 0, MIDI_port, 0
4, 0, Title_t, "Melody"
4, 401, Program_c, 3, 87
4, 402, Control_c, 3, 7, 85
4, 402, Control_c, 3, 10, 64
4, 456, Control_c, 3, 11, 127
4, 460, Control_c, 3, 91, 80
4, 460, Control_c, 3, 93, 127
4, 21280, Pitch_bend_c, 3, 8256
4, 21292, Pitch_bend_c, 3, 8609
4, 21304, Pitch_bend_c, 3, 7356
4, 21312, Pitch_bend_c, 3, 6714
4, 21324, Pitch_bend_c, 3, 5975
4, 21336, Pitch_bend_c, 3, 5268
4, 21344, Pitch_bend_c, 3, 4626
4, 21356, Pitch_bend_c, 3, 4240
4, 21368, Pitch_bend_c, 3, 4079
4, 21376, Pitch_bend_c, 3, 4015
4, 21388, Note_on_c, 3, 69, 117
4, 21400, Pitch_bend_c, 3, 4144
4, 21412, Pitch_bend_c, 3, 4304
4, 21420, Pitch_bend_c, 3, 4465
4, 21432, Pitch_bend_c, 3, 4690
4, 21444, Pitch_bend_c, 3, 4947
4, 21456, Pitch_bend_c, 3, 5589
4, 21468, Pitch_bend_c, 3, 6264
4, 21476, Pitch_bend_c, 3, 6939
4, 21488, Pitch_bend_c, 3, 7453
4, 21500, Pitch_bend_c, 3, 7902
4, 21512, Pitch_bend_c, 3, 8127
4, 21520, Pitch_bend_c, 3, 8192
4, 21676, Control_c, 3, 1, 5
4, 21684, Control_c, 3, 1, 21
4, 21696, Control_c, 3, 1, 39
4, 21708, Control_c, 3, 1, 53
4, 21716, Control_c, 3, 1, 63
4, 21728, Control_c, 3, 1, 71
4, 21740, Control_c, 3, 1, 76
4, 21748, Control_c, 3, 1, 79
4, 21760, Control_c, 3, 1, 80
4, 21772, Control_c, 3, 1, 83
4, 21784, Control_c, 3, 1, 91
4, 21792, Control_c, 3, 1, 101
4, 21804, Control_c, 3, 1, 111
4, 21816, Control_c, 3, 1, 118
4, 21824, Control_c, 3, 1, 122
4, 21836, Control_c, 3, 1, 124
4, 21848, Control_c, 3, 1, 121
4, 21860, Control_c, 3, 1, 114
4, 21872, Control_c, 3, 1, 99
4, 21880, Control_c, 3, 1, 61
4, 21892, Control_c, 3, 1, 29
4, 21904, Control_c, 3, 1, 13
4, 21916, Control_c, 3, 1, 5
4, 21916, Note_on_c, 3, 67, 108
4, 21924, Control_c, 3, 1, 1
4, 21936, Control_c, 3, 1, 0
4, 21948, Note_on_c, 3, 69, 0
4, 21948, Control_c, 3, 1, 0
4, 21992, Note_on_c, 3, 67, 0
4, 22280, Note_on_c, 3, 65, 95
4, 22540, Note_on_c, 3, 67, 77
4, 22572, Note_on_c, 3, 65, 0
4, 22624, Note_on_c, 3, 67, 0
4, 22656, Note_on_c, 3, 69, 102
4, 22772, Note_on_c, 3, 69, 0
4, 22896, Note_on_c, 3, 67, 113
4, 22936, Control_c, 3, 1, 5
4, 22948, Control_c, 3, 1, 15
4, 22960, Control_c, 3, 1, 27
4, 22972, Control_c, 3, 1, 36
4, 22980, Control_c, 3, 1, 42
4, 22992, Control_c, 3, 1, 45
4, 23004, Control_c, 3, 1, 46
4, 23016, Control_c, 3, 1, 48
4, 23024, Control_c, 3, 1, 52
4, 23036, Control_c, 3, 1, 57
4, 23048, Control_c, 3, 1, 62
4, 23060, Control_c, 3, 1, 66
4, 23068, Control_c, 3, 1, 70
4, 23080, Control_c, 3, 1, 73
4, 23088, Control_c, 3, 1, 77
4, 23100, Control_c, 3, 1, 83
4, 23112, Control_c, 3, 1, 88
4, 23124, Control_c, 3, 1, 94
4, 23132, Control_c, 3, 1, 100
4, 23144, Control_c, 3, 1, 106
4, 23156, Control_c, 3, 1, 111
4, 23164, Control_c, 3, 1, 116
4, 23176, Control_c, 3, 1, 119
4, 23188, Control_c, 3, 1, 122
4, 23196, Control_c, 3, 1, 125
4, 23208, Control_c, 3, 1, 127
4, 23220, Control_c, 3, 1, 127
4, 23240, Control_c, 3, 1, 127
4, 23252, Control_c, 3, 1, 123
4, 23260, Control_c, 3, 1, 113
4, 23272, Control_c, 3, 1, 97
4, 23284, Control_c, 3, 1, 62
4, 23296, Control_c, 3, 1, 30
4, 23296, Note_on_c, 3, 69, 102
4, 23308, Control_c, 3, 1, 13
4, 23320, Note_on_c, 3, 67, 0
4, 23320, Control_c, 3, 1, 5
4, 23328, Control_c, 3, 1, 1
4, 23340, Control_c, 3, 1, 0
4, 23352, Control_c, 3, 1, 0
4, 23376, Note_on_c, 3, 69, 0
4, 24416, Note_on_c, 3, 69, 108
4, 24600, Control_c, 3, 1, 0
4, 24612, Control_c, 3, 1, 5
4, 24624, Control_c, 3, 1, 8
4, 24664, Control_c, 3, 1, 11
4, 24676, Control_c, 3, 1, 19
4, 24684, Control_c, 3, 1, 30
4, 24696, Control_c, 3, 1, 46
4, 24708, Control_c, 3, 1, 59
4, 24720, Control_c, 3, 1, 70
4, 24728, Control_c, 3, 1, 77
4, 24740, Control_c, 3, 1, 82
4, 24748, Control_c, 3, 1, 85
4, 24760, Control_c, 3, 1, 88
4, 24772, Control_c, 3, 1, 90
4, 24780, Control_c, 3, 1, 92
4, 24792, Control_c, 3, 1, 95
4, 24804, Control_c, 3, 1, 99
4, 24812, Control_c, 3, 1, 104
4, 24824, Control_c, 3, 1, 110
4, 24836, Control_c, 3, 1, 116
4, 24844, Control_c, 3, 1, 121
4, 24856, Control_c, 3, 1, 124
4, 24868, Control_c, 3, 1, 126
4, 24876, Control_c, 3, 1, 127
4, 24900, Control_c, 3, 1, 126
4, 24908, Control_c, 3, 1, 123
4, 24920, Control_c, 3, 1, 114
4, 24932, Control_c, 3, 1, 101
4, 24940, Control_c, 3, 1, 70
4, 24952, Control_c, 3, 1, 34
4, 24964, Control_c, 3, 1, 15
4, 24972, Control_c, 3, 1, 6
4, 24976, Note_on_c, 3, 67, 95
4, 24984, Control_c, 3, 1, 2
4, 24996, Control_c, 3, 1, 0
4, 25008, Note_on_c, 3, 69, 0
4, 25008, Control_c, 3, 1, 0
4, 25084, Note_on_c, 3, 67, 0
4, 25352, Note_on_c, 3, 65, 85
4, 25592, Note_on_c, 3, 67, 85
4, 25636, Note_on_c, 3, 65, 0
4, 25720, Note_on_c, 3, 69, 85
4, 25752, Note_on_c, 3, 67, 0
4, 25856, Note_on_c, 3, 69, 0
4, 25864, Control_c, 3, 1, 2
4, 25876, Pitch_bend_c, 3, 8384
4, 25876, Control_c, 3, 1, 25
4, 25888, Pitch_bend_c, 3, 7774
4, 25888, Control_c, 3, 1, 51
4, 25896, Pitch_bend_c, 3, 7677
4, 25900, Control_c, 3, 1, 64
4, 25908, Pitch_bend_c, 3, 7581
4, 25912, Control_c, 3, 1, 68
4, 25920, Control_c, 3, 1, 60
4, 25932, Control_c, 3, 1, 37
4, 25944, Pitch_bend_c, 3, 7517
4, 25944, Control_c, 3, 1, 17
4, 25952, Control_c, 3, 1, 7
4, 25964, Pitch_bend_c, 3, 7581
4, 25964, Control_c, 3, 1, 2
4, 25976, Pitch_bend_c, 3, 7677
4, 25976, Control_c, 3, 1, 0
4, 25976, Note_on_c, 3, 65, 102
4, 25988, Pitch_bend_c, 3, 7838
4, 25988, Control_c, 3, 1, 0
4, 26000, Pitch_bend_c, 3, 8127
4, 26012, Pitch_bend_c, 3, 8192
4, 26084, Control_c, 3, 1, 2
4, 26096, Control_c, 3, 1, 17
4, 26108, Control_c, 3, 1, 39
4, 26116, Control_c, 3, 1, 59
4, 26128, Control_c, 3, 1, 75
4, 26140, Control_c, 3, 1, 88
4, 26148, Control_c, 3, 1, 97
4, 26160, Control_c, 3, 1, 103
4, 26172, Control_c, 3, 1, 106
4, 26180, Control_c, 3, 1, 107
4, 26204, Control_c, 3, 1, 108
4, 26216, Control_c, 3, 1, 109
4, 26224, Control_c, 3, 1, 110
4, 26236, Control_c, 3, 1, 111
4, 26264, Control_c, 3, 1, 110
4, 26276, Control_c, 3, 1, 109
4, 26288, Control_c, 3, 1, 105
4, 26300, Control_c, 3, 1, 101
4, 26308, Control_c, 3, 1, 96
4, 26320, Control_c, 3, 1, 91
4, 26332, Control_c, 3, 1, 84
4, 26340, Control_c, 3, 1, 71
4, 26352, Control_c, 3, 1, 45
4, 26364, Control_c, 3, 1, 21
4, 26364, Note_on_c, 3, 62, 85
4, 26372, Control_c, 3, 1, 9
4, 26384, Control_c, 3, 1, 3
4, 26396, Control_c, 3, 1, 0
4, 26400, Note_on_c, 3, 65, 0
4, 26408, Control_c, 3, 1, 0
4, 26472, Note_on_c, 3, 62, 0
4, 27272, Note_on_c, 3, 62, 108
4, 27380, Note_on_c, 3, 62, 0
4, 27400, Note_on_c, 3, 65, 85
4, 27484, Note_on_c, 3, 65, 0
4, 27504, Note_on_c, 3, 67, 95
4, 27568, Note_on_c, 3, 67, 0
4, 27620, Note_on_c, 3, 69, 108
4, 27724, Control_c, 3, 1, 2
4, 27736, Control_c, 3, 1, 10
4, 27748, Control_c, 3, 1, 17
4, 27760, Control_c, 3, 1, 21
4, 27780, Control_c, 3, 1, 22
4, 27792, Control_c, 3, 1, 24
4, 27800, Control_c, 3, 1, 33
4, 27812, Control_c, 3, 1, 46
4, 27824, Control_c, 3, 1, 60
4, 27832, Control_c, 3, 1, 73
4, 27844, Control_c, 3, 1, 83
4, 27852, Control_c, 3, 1, 89
4, 27864, Control_c, 3, 1, 93
4, 27876, Control_c, 3, 1, 96
4, 27884, Control_c, 3, 1, 100
4, 27896, Control_c, 3, 1, 103
4, 27908, Control_c, 3, 1, 107
4, 27920, Control_c, 3, 1, 111
4, 27928, Control_c, 3, 1, 115
4, 27940, Control_c, 3, 1, 118
4, 27952, Control_c, 3, 1, 120
4, 27964, Control_c, 3, 1, 121
4, 27976, Control_c, 3, 1, 120
4, 27984, Control_c, 3, 1, 116
4, 27996, Control_c, 3, 1, 109
4, 28008, Control_c, 3, 1, 92
4, 28016, Control_c, 3, 1, 60
4, 28028, Control_c, 3, 1, 29
4, 28040, Control_c, 3, 1, 13
4, 28040, Note_on_c, 3, 67, 95
4, 28048, Control_c, 3, 1, 5
4, 28060, Control_c, 3, 1, 1
4, 28072, Control_c, 3, 1, 0
4, 28084, Note_on_c, 3, 69, 0
4, 28084, Control_c, 3, 1, 0
4, 28284, Note_on_c, 3, 67, 0
4, 28416, Note_on_c, 3, 65, 108
4, 28480, Control_c, 3, 1, 0
4, 28488, Control_c, 3, 1, 15
4, 28500, Control_c, 3, 1, 36
4, 28512, Control_c, 3, 1, 54
4, 28524, Control_c, 3, 1, 68
4, 28536, Control_c, 3, 1, 78
4, 28544, Control_c, 3, 1, 87
4, 28556, Control_c, 3, 1, 94
4, 28568, Control_c, 3, 1, 99
4, 28576, Control_c, 3, 1, 103
4, 28588, Control_c, 3, 1, 106
4, 28600, Control_c, 3, 1, 108
4, 28620, Control_c, 3, 1, 109
4, 28692, Control_c, 3, 1, 110
4, 28716, Control_c, 3, 1, 111
4, 28724, Control_c, 3, 1, 113
4, 28736, Control_c, 3, 1, 114
4, 28744, Control_c, 3, 1, 116
4, 28768, Note_on_c, 3, 65, 0
4, 28768, Control_c, 3, 1, 113
4, 28780, Control_c, 3, 1, 107
4, 28788, Control_c, 3, 1, 98
4, 28800, Control_c, 3, 1, 76
4, 28808, Control_c, 3, 1, 42
4, 28820, Control_c, 3, 1, 20
4, 28824, Note_on_c, 3, 65, 69
4, 28832, Control_c, 3, 1, 8
4, 28844, Control_c, 3, 1, 3
4, 28856, Control_c, 3, 1, 0
4, 28864, Control_c, 3, 1, 0
4, 28920, Note_on_c, 3, 65, 0
4, 29044, Note_on_c, 3, 67, 113
4, 29252, Control_c, 3, 1, 0
4, 29264, Control_c, 3, 1, 5
4, 29272, Control_c, 3, 1, 13
4, 29284, Control_c, 3, 1, 22
4, 29292, Control_c, 3, 1, 31
4, 29304, Control_c, 3, 1, 41
4, 29316, Control_c, 3, 1, 51
4, 29324, Control_c, 3, 1, 59
4, 29336, Control_c, 3, 1, 66
4, 29348, Control_c, 3, 1, 69
4, 29360, Control_c, 3, 1, 70
4, 29368, Control_c, 3, 1, 71
4, 29400, Control_c, 3, 1, 69
4, 29412, Control_c, 3, 1, 61
4, 29420, Control_c, 3, 1, 42
4, 29424, Note_on_c, 3, 67, 0
4, 29436, Control_c, 3, 1, 20
4, 29436, Note_on_c, 3, 69, 113
4, 29444, Control_c, 3, 1, 9
4, 29460, Control_c, 3, 1, 3
4, 29468, Control_c, 3, 1, 0
4, 29480, Control_c, 3, 1, 0
4, 29504, Note_on_c, 3, 69, 0
4, 30364, Note_on_c, 3, 62, 95
4, 30460, Note_on_c, 3, 62, 0
4, 30492, Note_on_c, 3, 65, 77
4, 30568, Note_on_c, 3, 65, 0
4, 30596, Note_on_c, 3, 67, 77
4, 30652, Note_on_c, 3, 67, 0
4, 30700, Note_on_c, 3, 69, 102
4, 30908, Control_c, 3, 1, 2
4, 30920, Control_c, 3, 1, 5
4, 30932, Control_c, 3, 1, 9
4, 30940, Control_c, 3, 1, 12
4, 30952, Control_c, 3, 1, 17
4, 30964, Control_c, 3, 1, 24
4, 30976, Control_c, 3, 1, 39
4, 30984, Control_c, 3, 1, 55
4, 30996, Control_c, 3, 1, 69
4, 31008, Control_c, 3, 1, 80
4, 31020, Control_c, 3, 1, 89
4, 31032, Control_c, 3, 1, 94
4, 31040, Control_c, 3, 1, 96
4, 31060, Control_c, 3, 1, 92
4, 31072, Control_c, 3, 1, 86
4, 31084, Control_c, 3, 1, 69
4, 31092, Control_c, 3, 1, 38
4, 31104, Control_c, 3, 1, 18
4, 31116, Control_c, 3, 1, 7
4, 31116, Note_on_c, 3, 67, 117
4, 31128, Control_c, 3, 1, 2
4, 31136, Control_c, 3, 1, 0
4, 31148, Note_on_c, 3, 69, 0
4, 31148, Control_c, 3, 1, 0
4, 31348, Note_on_c, 3, 67, 0
4, 31472, Control_c, 3, 1, 3
4, 31480, Control_c, 3, 1, 14
4, 31484, Note_on_c, 3, 65, 113
4, 31492, Control_c, 3, 1, 33
4, 31504, Control_c, 3, 1, 48
4, 31516, Control_c, 3, 1, 59
4, 31528, Control_c, 3, 1, 66
4, 31536, Control_c, 3, 1, 69
4, 31568, Control_c, 3, 1, 68
4, 31600, Control_c, 3, 1, 69
4, 31612, Control_c, 3, 1, 70
4, 31632, Control_c, 3, 1, 67
4, 31644, Control_c, 3, 1, 61
4, 31652, Control_c, 3, 1, 51
4, 31664, Control_c, 3, 1, 34
4, 31676, Control_c, 3, 1, 17
4, 31688, Control_c, 3, 1, 7
4, 31696, Control_c, 3, 1, 2
4, 31708, Control_c, 3, 1, 0
4, 31720, Control_c, 3, 1, 0
4, 31740, Note_on_c, 3, 67, 69
4, 31792, Note_on_c, 3, 65, 0
4, 31848, Note_on_c, 3, 67, 0
4, 31856, Note_on_c, 3, 69, 81
4, 31972, Note_on_c, 3, 69, 0
4, 32120, Note_on_c, 3, 67, 117
4, 32272, Control_c, 3, 1, 0
4, 32284, Control_c, 3, 1, 2
4, 32296, Control_c, 3, 1, 5
4, 32308, Control_c, 3, 1, 10
4, 32320, Control_c, 3, 1, 17
4, 32328, Control_c, 3, 1, 26
4, 32340, Control_c, 3, 1, 37
4, 32348, Control_c, 3, 1, 46
4, 32360, Control_c, 3, 1, 57
4, 32372, Control_c, 3, 1, 66
4, 32380, Control_c, 3, 1, 73
4, 32392, Control_c, 3, 1, 80
4, 32400, Control_c, 3, 1, 85
4, 32412, Control_c, 3, 1, 89
4, 32424, Control_c, 3, 1, 91
4, 32436, Control_c, 3, 1, 92
4, 32444, Control_c, 3, 1, 91
4, 32456, Control_c, 3, 1, 86
4, 32468, Control_c, 3, 1, 74
4, 32476, Control_c, 3, 1, 48
4, 32488, Control_c, 3, 1, 23
4, 32500, Control_c, 3, 1, 10
4, 32512, Control_c, 3, 1, 4
4, 32524, Control_c, 3, 1, 1
4, 32524, Note_on_c, 3, 65, 108
4, 32536, Control_c, 3, 1, 0
4, 32544, Control_c, 3, 1, 0
4, 32556, Note_on_c, 3, 67, 0
4, 32600, Note_on_c, 3, 65, 0
4, 32788, Note_on_c, 3, 60, 74
4, 32884, Note_on_c, 3, 62, 72
4, 32904, Note_on_c, 3, 60, 0
4, 32944, Note_on_c, 3, 62, 0
4, 33016, Note_on_c, 3, 65, 113
4, 33196, Note_on_c, 3, 65, 0
4, 33268, Note_on_c, 3, 65, 72
4, 33312, Note_on_c, 3, 65, 0
4, 33384, Note_on_c, 3, 65, 117
4, 33616, Note_on_c, 3, 65, 0
4, 33788, Note_on_c, 3, 65, 123
4, 33968, Note_on_c, 3, 65, 0
4, 35984, Note_on_c, 3, 62, 60
4, 36048, Note_on_c, 3, 62, 0
4, 36100, Note_on_c, 3, 65, 102
4, 36316, Note_on_c, 3, 65, 0
4, 36492, Note_on_c, 3, 65, 121
4, 36712, Note_on_c, 3, 65, 0
4, 36888, Note_on_c, 3, 62, 121
4, 37160, Note_on_c, 3, 65, 117
4, 37192, Note_on_c, 3, 62, 0
4, 37224, Control_c, 3, 1, 0
4, 37236, Note_on_c, 3, 65, 0
4, 37236, Control_c, 3, 1, 1
4, 37244, Control_c, 3, 1, 0
4, 37256, Control_c, 3, 1, 0
4, 39584, Note_on_c, 3, 62, 102
4, 39712, Note_on_c, 3, 65, 81
4, 39744, Note_on_c, 3, 62, 0
4, 39816, Note_on_c, 3, 67, 90
4, 39840, Note_on_c, 3, 65, 0
4, 39892, Note_on_c, 3, 67, 0
4, 39952, Control_c, 3, 1, 0
4, 39956, Note_on_c, 3, 69, 102
4, 39964, Control_c, 3, 1, 14
4, 39976, Control_c, 3, 1, 38
4, 39984, Control_c, 3, 1, 51
4, 39996, Control_c, 3, 1, 55
4, 40008, Control_c, 3, 1, 53
4, 40020, Control_c, 3, 1, 46
4, 40032, Control_c, 3, 1, 41
4, 40040, Control_c, 3, 1, 40
4, 40064, Control_c, 3, 1, 42
4, 40076, Control_c, 3, 1, 47
4, 40084, Control_c, 3, 1, 55
4, 40096, Control_c, 3, 1, 61
4, 40104, Control_c, 3, 1, 64
4, 40116, Control_c, 3, 1, 67
4, 40124, Control_c, 3, 1, 73
4, 40136, Control_c, 3, 1, 82
4, 40148, Control_c, 3, 1, 93
4, 40160, Control_c, 3, 1, 104
4, 40172, Control_c, 3, 1, 113
4, 40180, Control_c, 3, 1, 119
4, 40192, Control_c, 3, 1, 122
4, 40204, Control_c, 3, 1, 125
4, 40212, Control_c, 3, 1, 127
4, 40224, Control_c, 3, 1, 127
4, 40280, Control_c, 3, 1, 124
4, 40288, Control_c, 3, 1, 113
4, 40300, Note_on_c, 3, 69, 0
4, 40300, Control_c, 3, 1, 92
4, 40312, Control_c, 3, 1, 49
4, 40320, Control_c, 3, 1, 23
4, 40332, Control_c, 3, 1, 10
4, 40332, Note_on_c, 3, 67, 117
4, 40344, Control_c, 3, 1, 4
4, 40356, Control_c, 3, 1, 1
4, 40364, Control_c, 3, 1, 0
4, 40376, Control_c, 3, 1, 0
4, 40544, Note_on_c, 3, 67, 0
4, 40668, Control_c, 3, 1, 0
4, 40676, Control_c, 3, 1, 7
4, 40688, Control_c, 3, 1, 23
4, 40700, Control_c, 3, 1, 41
4, 40700, Note_on_c, 3, 65, 108
4, 40712, Control_c, 3, 1, 58
4, 40720, Control_c, 3, 1, 70
4, 40732, Control_c, 3, 1, 75
4, 40744, Control_c, 3, 1, 77
4, 40752, Control_c, 3, 1, 76
4, 40764, Control_c, 3, 1, 75
4, 40776, Control_c, 3, 1, 74
4, 40788, Control_c, 3, 1, 73
4, 40828, Control_c, 3, 1, 71
4, 40840, Control_c, 3, 1, 67
4, 40848, Control_c, 3, 1, 64
4, 40872, Control_c, 3, 1, 65
4, 40884, Control_c, 3, 1, 67
4, 40892, Control_c, 3, 1, 69
4, 40904, Control_c, 3, 1, 71
4, 40916, Control_c, 3, 1, 74
4, 40924, Control_c, 3, 1, 76
4, 40936, Control_c, 3, 1, 78
4, 40948, Control_c, 3, 1, 79
4, 40956, Control_c, 3, 1, 82
4, 40968, Control_c, 3, 1, 85
4, 40980, Control_c, 3, 1, 87
4, 40988, Control_c, 3, 1, 89
4, 41000, Control_c, 3, 1, 90
4, 41012, Control_c, 3, 1, 89
4, 41020, Control_c, 3, 1, 84
4, 41032, Control_c, 3, 1, 67
4, 41044, Note_on_c, 3, 65, 0
4, 41044, Control_c, 3, 1, 39
4, 41056, Control_c, 3, 1, 18
4, 41064, Control_c, 3, 1, 8
4, 41076, Control_c, 3, 1, 3
4, 41076, Note_on_c, 3, 67, 113
4, 41088, Control_c, 3, 1, 0
4, 41100, Control_c, 3, 1, 0
4, 41176, Note_on_c, 3, 67, 0
4, 41340, Note_on_c, 3, 69, 108
4, 41412, Note_on_c, 3, 69, 0
4, 41476, Note_on_c, 3, 67, 113
4, 41652, Control_c, 3, 1, 1
4, 41664, Control_c, 3, 1, 18
4, 41676, Control_c, 3, 1, 38
4, 41688, Control_c, 3, 1, 53
4, 41700, Control_c, 3, 1, 62
4, 41708, Control_c, 3, 1, 64
4, 41720, Control_c, 3, 1, 60
4, 41720, Note_on_c, 3, 69, 95
4, 41732, Control_c, 3, 1, 47
4, 41740, Control_c, 3, 1, 24
4, 41752, Note_on_c, 3, 67, 0
4, 41752, Control_c, 3, 1, 11
4, 41764, Control_c, 3, 1, 4
4, 41776, Control_c, 3, 1, 1
4, 41784, Control_c, 3, 1, 0
4, 41796, Control_c, 3, 1, 0
4, 41800, Note_on_c, 3, 69, 0
4, 42624, Note_on_c, 3, 65, 102
4, 42864, Note_on_c, 3, 65, 0
4, 42912, Note_on_c, 3, 67, 90
4, 42972, Note_on_c, 3, 67, 0
4, 43036, Note_on_c, 3, 69, 113
4, 43224, Control_c, 3, 1, 0
4, 43236, Control_c, 3, 1, 6
4, 43244, Control_c, 3, 1, 16
4, 43256, Control_c, 3, 1, 28
4, 43268, Control_c, 3, 1, 42
4, 43276, Control_c, 3, 1, 54
4, 43288, Control_c, 3, 1, 66
4, 43300, Control_c, 3, 1, 75
4, 43312, Control_c, 3, 1, 84
4, 43320, Control_c, 3, 1, 90
4, 43332, Control_c, 3, 1, 94
4, 43344, Control_c, 3, 1, 97
4, 43356, Control_c, 3, 1, 99
4, 43376, Control_c, 3, 1, 97
4, 43384, Control_c, 3, 1, 91
4, 43388, Note_on_c, 3, 69, 0
4, 43396, Control_c, 3, 1, 70
4, 43408, Control_c, 3, 1, 39
4, 43412, Note_on_c, 3, 67, 117
4, 43420, Control_c, 3, 1, 18
4, 43432, Control_c, 3, 1, 8
4, 43444, Control_c, 3, 1, 3
4, 43452, Control_c, 3, 1, 0
4, 43464, Control_c, 3, 1, 0
4, 43612, Note_on_c, 3, 67, 0
4, 43776, Note_on_c, 3, 65, 113
4, 43872, Control_c, 3, 1, 0
4, 43880, Control_c, 3, 1, 7
4, 43892, Control_c, 3, 1, 19
4, 43904, Control_c, 3, 1, 37
4, 43916, Control_c, 3, 1, 52
4, 43928, Control_c, 3, 1, 61
4, 43936, Control_c, 3, 1, 69
4, 43948, Control_c, 3, 1, 73
4, 43956, Control_c, 3, 1, 76
4, 43968, Control_c, 3, 1, 77
4, 43980, Control_c, 3, 1, 76
4, 43988, Control_c, 3, 1, 72
4, 44000, Control_c, 3, 1, 61
4, 44012, Control_c, 3, 1, 43
4, 44024, Control_c, 3, 1, 22
4, 44032, Control_c, 3, 1, 10
4, 44044, Control_c, 3, 1, 4
4, 44044, Note_on_c, 3, 67, 81
4, 44056, Control_c, 3, 1, 1
4, 44068, Control_c, 3, 1, 0
4, 44076, Control_c, 3, 1, 0
4, 44080, Note_on_c, 3, 65, 0
4, 44152, Note_on_c, 3, 67, 0
4, 44172, Note_on_c, 3, 69, 90
4, 44292, Note_on_c, 3, 69, 0
4, 44428, Note_on_c, 3, 65, 108
4, 44552, Control_c, 3, 1, 0
4, 44564, Control_c, 3, 1, 1
4, 44572, Control_c, 3, 1, 2
4, 44584, Control_c, 3, 1, 4
4, 44596, Control_c, 3, 1, 7
4, 44604, Control_c, 3, 1, 11
4, 44616, Control_c, 3, 1, 20
4, 44628, Control_c, 3, 1, 35
4, 44640, Control_c, 3, 1, 50
4, 44648, Control_c, 3, 1, 62
4, 44660, Control_c, 3, 1, 73
4, 44668, Control_c, 3, 1, 80
4, 44680, Control_c, 3, 1, 86
4, 44692, Control_c, 3, 1, 88
4, 44724, Control_c, 3, 1, 85
4, 44732, Control_c, 3, 1, 81
4, 44744, Control_c, 3, 1, 74
4, 44756, Control_c, 3, 1, 61
4, 44764, Control_c, 3, 1, 40
4, 44776, Control_c, 3, 1, 19
4, 44788, Control_c, 3, 1, 8
4, 44796, Control_c, 3, 1, 3
4, 44808, Control_c, 3, 1, 0
4, 44820, Control_c, 3, 1, 0
4, 44820, Note_on_c, 3, 62, 85
4, 44824, Note_on_c, 3, 65, 0
4, 44896, Note_on_c, 3, 62, 0
4, 45720, Note_on_c, 3, 62, 95
4, 45804, Note_on_c, 3, 62, 0
4, 45836, Note_on_c, 3, 65, 81
4, 45908, Note_on_c, 3, 65, 0
4, 45952, Note_on_c, 3, 67, 95
4, 46012, Note_on_c, 3, 67, 0
4, 46076, Note_on_c, 3, 69, 113
4, 46168, Control_c, 3, 1, 0
4, 46180, Control_c, 3, 1, 5
4, 46192, Control_c, 3, 1, 14
4, 46204, Control_c, 3, 1, 25
4, 46212, Control_c, 3, 1, 34
4, 46224, Control_c, 3, 1, 41
4, 46236, Control_c, 3, 1, 47
4, 46244, Control_c, 3, 1, 52
4, 46256, Control_c, 3, 1, 57
4, 46268, Control_c, 3, 1, 61
4, 46276, Control_c, 3, 1, 66
4, 46288, Control_c, 3, 1, 71
4, 46300, Control_c, 3, 1, 75
4, 46308, Control_c, 3, 1, 79
4, 46320, Control_c, 3, 1, 83
4, 46332, Control_c, 3, 1, 88
4, 46340, Control_c, 3, 1, 94
4, 46352, Control_c, 3, 1, 99
4, 46364, Control_c, 3, 1, 103
4, 46376, Control_c, 3, 1, 106
4, 46384, Control_c, 3, 1, 109
4, 46396, Control_c, 3, 1, 112
4, 46408, Control_c, 3, 1, 114
4, 46420, Control_c, 3, 1, 116
4, 46428, Control_c, 3, 1, 114
4, 46440, Control_c, 3, 1, 109
4, 46448, Control_c, 3, 1, 98
4, 46460, Control_c, 3, 1, 67
4, 46464, Note_on_c, 3, 67, 117
4, 46472, Control_c, 3, 1, 33
4, 46484, Control_c, 3, 1, 15
4, 46496, Note_on_c, 3, 69, 0
4, 46496, Control_c, 3, 1, 6
4, 46508, Control_c, 3, 1, 2
4, 46516, Control_c, 3, 1, 0
4, 46528, Control_c, 3, 1, 0
4, 46644, Note_on_c, 3, 67, 0
4, 46848, Control_c, 3, 1, 0
4, 46852, Note_on_c, 3, 65, 113
4, 46860, Control_c, 3, 1, 11
4, 46872, Control_c, 3, 1, 23
4, 46880, Control_c, 3, 1, 32
4, 46892, Control_c, 3, 1, 37
4, 46904, Control_c, 3, 1, 41
4, 46916, Control_c, 3, 1, 44
4, 46928, Control_c, 3, 1, 47
4, 46936, Control_c, 3, 1, 51
4, 46948, Control_c, 3, 1, 54
4, 46960, Control_c, 3, 1, 55
4, 46972, Control_c, 3, 1, 54
4, 46980, Control_c, 3, 1, 51
4, 46992, Control_c, 3, 1, 45
4, 47004, Control_c, 3, 1, 37
4, 47012, Control_c, 3, 1, 29
4, 47024, Control_c, 3, 1, 21
4, 47032, Control_c, 3, 1, 13
4, 47044, Control_c, 3, 1, 6
4, 47056, Control_c, 3, 1, 2
4, 47068, Control_c, 3, 1, 0
4, 47076, Control_c, 3, 1, 0
4, 47108, Note_on_c, 3, 67, 90
4, 47152, Note_on_c, 3, 65, 0
4, 47192, Note_on_c, 3, 67, 0
4, 47236, Note_on_c, 3, 69, 85
4, 47340, Note_on_c, 3, 69, 0
4, 47488, Note_on_c, 3, 67, 117
4, 47580, Control_c, 3, 1, 1
4, 47592, Control_c, 3, 1, 5
4, 47600, Control_c, 3, 1, 11
4, 47612, Control_c, 3, 1, 21
4, 47624, Control_c, 3, 1, 30
4, 47632, Control_c, 3, 1, 39
4, 47644, Control_c, 3, 1, 47
4, 47656, Control_c, 3, 1, 53
4, 47668, Control_c, 3, 1, 58
4, 47676, Control_c, 3, 1, 64
4, 47688, Control_c, 3, 1, 70
4, 47696, Control_c, 3, 1, 75
4, 47708, Control_c, 3, 1, 80
4, 47720, Control_c, 3, 1, 84
4, 47728, Control_c, 3, 1, 88
4, 47740, Control_c, 3, 1, 91
4, 47752, Control_c, 3, 1, 93
4, 47760, Control_c, 3, 1, 95
4, 47772, Control_c, 3, 1, 96
4, 47784, Control_c, 3, 1, 98
4, 47792, Control_c, 3, 1, 100
4, 47804, Control_c, 3, 1, 101
4, 47816, Control_c, 3, 1, 103
4, 47836, Control_c, 3, 1, 102
4, 47848, Control_c, 3, 1, 97
4, 47860, Control_c, 3, 1, 83
4, 47872, Control_c, 3, 1, 55
4, 47880, Control_c, 3, 1, 26
4, 47884, Note_on_c, 3, 69, 90
4, 47892, Control_c, 3, 1, 12
4, 47904, Control_c, 3, 1, 5
4, 47912, Control_c, 3, 1, 1
4, 47916, Note_on_c, 3, 67, 0
4, 47924, Control_c, 3, 1, 0
4, 47936, Control_c, 3, 1, 0
4, 47960, Note_on_c, 3, 69, 0
4, 48640, Note_on_c, 3, 69, 102
4, 48700, Note_on_c, 3, 69, 0
4, 48764, Note_on_c, 3, 72, 95
4, 48828, Note_on_c, 3, 72, 0
4, 48880, Note_on_c, 3, 69, 117
4, 48944, Note_on_c, 3, 69, 0
4, 49008, Note_on_c, 3, 72, 123
4, 49112, Control_c, 3, 1, 2
4, 49120, Control_c, 3, 1, 8
4, 49132, Control_c, 3, 1, 19
4, 49144, Control_c, 3, 1, 33
4, 49152, Control_c, 3, 1, 48
4, 49164, Control_c, 3, 1, 62
4, 49176, Control_c, 3, 1, 75
4, 49188, Control_c, 3, 1, 86
4, 49196, Control_c, 3, 1, 94
4, 49208, Control_c, 3, 1, 101
4, 49220, Control_c, 3, 1, 106
4, 49228, Control_c, 3, 1, 108
4, 49240, Control_c, 3, 1, 109
4, 49252, Control_c, 3, 1, 110
4, 49264, Control_c, 3, 1, 112
4, 49272, Control_c, 3, 1, 114
4, 49284, Control_c, 3, 1, 118
4, 49292, Control_c, 3, 1, 121
4, 49304, Control_c, 3, 1, 124
4, 49316, Control_c, 3, 1, 125
4, 49336, Control_c, 3, 1, 124
4, 49348, Control_c, 3, 1, 121
4, 49360, Control_c, 3, 1, 117
4, 49368, Control_c, 3, 1, 113
4, 49380, Control_c, 3, 1, 112
4, 49392, Control_c, 3, 1, 110
4, 49400, Control_c, 3, 1, 106
4, 49412, Control_c, 3, 1, 99
4, 49424, Control_c, 3, 1, 86
4, 49436, Control_c, 3, 1, 58
4, 49444, Control_c, 3, 1, 28
4, 49456, Control_c, 3, 1, 13
4, 49468, Control_c, 3, 1, 5
4, 49476, Control_c, 3, 1, 1
4, 49488, Control_c, 3, 1, 0
4, 49500, Control_c, 3, 1, 0
4, 49520, Note_on_c, 3, 72, 0
4, 49552, Note_on_c, 3, 69, 108
4, 49752, Note_on_c, 3, 69, 0
4, 49804, Note_on_c, 3, 67, 58
4, 49888, Note_on_c, 3, 67, 0
4, 49928, Note_on_c, 3, 65, 102
4, 50096, Control_c, 3, 1, 14
4, 50104, Control_c, 3, 1, 39
4, 50116, Control_c, 3, 1, 59
4, 50128, Control_c, 3, 1, 73
4, 50136, Control_c, 3, 1, 80
4, 50160, Control_c, 3, 1, 72
4, 50168, Control_c, 3, 1, 52
4, 50172, Note_on_c, 3, 67, 74
4, 50180, Control_c, 3, 1, 27
4, 50192, Control_c, 3, 1, 12
4, 50204, Note_on_c, 3, 65, 0
4, 50204, Control_c, 3, 1, 5
4, 50216, Control_c, 3, 1, 1
4, 50224, Control_c, 3, 1, 0
4, 50236, Control_c, 3, 1, 0
4, 50260, Note_on_c, 3, 67, 0
4, 50300, Note_on_c, 3, 69, 90
4, 50416, Note_on_c, 3, 69, 0
4, 50552, Note_on_c, 3, 67, 117
4, 50676, Control_c, 3, 1, 1
4, 50688, Control_c, 3, 1, 6
4, 50700, Control_c, 3, 1, 13
4, 50708, Control_c, 3, 1, 24
4, 50720, Control_c, 3, 1, 37
4, 50732, Control_c, 3, 1, 48
4, 50740, Control_c, 3, 1, 59
4, 50752, Control_c, 3, 1, 66
4, 50764, Control_c, 3, 1, 71
4, 50772, Control_c, 3, 1, 75
4, 50784, Control_c, 3, 1, 79
4, 50796, Control_c, 3, 1, 81
4, 50804, Control_c, 3, 1, 84
4, 50816, Control_c, 3, 1, 85
4, 50828, Control_c, 3, 1, 86
4, 50860, Control_c, 3, 1, 84
4, 50868, Control_c, 3, 1, 77
4, 50880, Control_c, 3, 1, 67
4, 50892, Control_c, 3, 1, 52
4, 50904, Control_c, 3, 1, 36
4, 50912, Control_c, 3, 1, 20
4, 50924, Control_c, 3, 1, 9
4, 50936, Control_c, 3, 1, 3
4, 50944, Control_c, 3, 1, 0
4, 50948, Note_on_c, 3, 65, 108
4, 50956, Control_c, 3, 1, 0
4, 50980, Note_on_c, 3, 67, 0
4, 51024, Note_on_c, 3, 65, 0
4, 52244, Note_on_c, 3, 67, 121
4, 52432, Control_c, 3, 1, 4
4, 52444, Control_c, 3, 1, 15
4, 52456, Control_c, 3, 1, 26
4, 52464, Control_c, 3, 1, 37
4, 52476, Control_c, 3, 1, 44
4, 52488, Control_c, 3, 1, 51
4, 52496, Control_c, 3, 1, 56
4, 52508, Control_c, 3, 1, 63
4, 52520, Control_c, 3, 1, 70
4, 52528, Control_c, 3, 1, 77
4, 52540, Control_c, 3, 1, 83
4, 52548, Control_c, 3, 1, 87
4, 52560, Control_c, 3, 1, 90
4, 52572, Control_c, 3, 1, 92
4, 52584, Control_c, 3, 1, 93
4, 52596, Control_c, 3, 1, 95
4, 52604, Control_c, 3, 1, 96
4, 52624, Control_c, 3, 1, 97
4, 52636, Control_c, 3, 1, 99
4, 52648, Control_c, 3, 1, 102
4, 52656, Control_c, 3, 1, 104
4, 52668, Control_c, 3, 1, 106
4, 52680, Control_c, 3, 1, 108
4, 52692, Control_c, 3, 1, 109
4, 52712, Control_c, 3, 1, 110
4, 52744, Control_c, 3, 1, 109
4, 52752, Control_c, 3, 1, 103
4, 52764, Control_c, 3, 1, 91
4, 52776, Control_c, 3, 1, 73
4, 52784, Control_c, 3, 1, 44
4, 52796, Control_c, 3, 1, 21
4, 52808, Control_c, 3, 1, 9
4, 52816, Control_c, 3, 1, 3
4, 52828, Control_c, 3, 1, 0
4, 52840, Control_c, 3, 1, 0
4, 52852, Note_on_c, 3, 69, 108
4, 52892, Note_on_c, 3, 67, 0
4, 53080, Control_c, 3, 1, 2
4, 53092, Control_c, 3, 1, 9
4, 53100, Control_c, 3, 1, 22
4, 53112, Control_c, 3, 1, 41
4, 53124, Control_c, 3, 1, 58
4, 53132, Control_c, 3, 1, 70
4, 53144, Control_c, 3, 1, 78
4, 53156, Control_c, 3, 1, 83
4, 53164, Control_c, 3, 1, 86
4, 53176, Control_c, 3, 1, 87
4, 53196, Control_c, 3, 1, 86
4, 53208, Control_c, 3, 1, 84
4, 53216, Control_c, 3, 1, 83
4, 53240, Control_c, 3, 1, 84
4, 53248, Control_c, 3, 1, 85
4, 53272, Control_c, 3, 1, 86
4, 53324, Control_c, 3, 1, 83
4, 53332, Control_c, 3, 1, 75
4, 53344, Note_on_c, 3, 69, 0
4, 53344, Control_c, 3, 1, 60
4, 53356, Control_c, 3, 1, 34
4, 53368, Control_c, 3, 1, 15
4, 53376, Control_c, 3, 1, 6
4, 53380, Note_on_c, 3, 72, 81
4, 53388, Control_c, 3, 1, 2
4, 53400, Control_c, 3, 1, 0
4, 53408, Control_c, 3, 1, 0
4, 53464, Note_on_c, 3, 72, 0
4, 53628, Note_on_c, 3, 72, 121
4, 53784, Control_c, 3, 1, 0
4, 53796, Control_c, 3, 1, 6
4, 53804, Control_c, 3, 1, 16
4, 53816, Control_c, 3, 1, 30
4, 53828, Control_c, 3, 1, 43
4, 53836, Control_c, 3, 1, 52
4, 53848, Control_c, 3, 1, 59
4, 53860, Control_c, 3, 1, 65
4, 53872, Control_c, 3, 1, 69
4, 53880, Control_c, 3, 1, 72
4, 53892, Control_c, 3, 1, 74
4, 53904, Control_c, 3, 1, 75
4, 53912, Control_c, 3, 1, 77
4, 53924, Control_c, 3, 1, 78
4, 53944, Control_c, 3, 1, 77
4, 53956, Control_c, 3, 1, 74
4, 53968, Control_c, 3, 1, 71
4, 53976, Control_c, 3, 1, 66
4, 53988, Control_c, 3, 1, 57
4, 54000, Control_c, 3, 1, 44
4, 54008, Control_c, 3, 1, 25
4, 54020, Control_c, 3, 1, 11
4, 54024, Note_on_c, 3, 70, 91
4, 54032, Control_c, 3, 1, 4
4, 54044, Control_c, 3, 1, 1
4, 54052, Control_c, 3, 1, 0
4, 54056, Note_on_c, 3, 72, 0
4, 54064, Control_c, 3, 1, 0
4, 54108, Note_on_c, 3, 70, 0
4, 54160, Note_on_c, 3, 69, 85
4, 54256, Note_on_c, 3, 69, 0
4, 54380, Note_on_c, 3, 67, 102
4, 54544, Control_c, 3, 1, 2
4, 54556, Control_c, 3, 1, 10
4, 54568, Control_c, 3, 1, 22
4, 54576, Control_c, 3, 1, 38
4, 54588, Control_c, 3, 1, 51
4, 54600, Control_c, 3, 1, 61
4, 54608, Control_c, 3, 1, 67
4, 54620, Control_c, 3, 1, 69
4, 54640, Control_c, 3, 1, 68
4, 54652, Control_c, 3, 1, 63
4, 54664, Control_c, 3, 1, 59
4, 54672, Control_c, 3, 1, 54
4, 54684, Control_c, 3, 1, 50
4, 54696, Control_c, 3, 1, 48
4, 54736, Note_on_c, 3, 67, 0
4, 54748, Control_c, 3, 1, 44
4, 54756, Control_c, 3, 1, 36
4, 54760, Note_on_c, 3, 69, 113
4, 54768, Control_c, 3, 1, 22
4, 54780, Control_c, 3, 1, 11
4, 54792, Control_c, 3, 1, 4
4, 54804, Control_c, 3, 1, 1
4, 54812, Control_c, 3, 1, 0
4, 54824, Control_c, 3, 1, 0
4, 54920, Note_on_c, 3, 69, 0
4, 55320, Note_on_c, 3, 67, 117
4, 55520, Control_c, 3, 1, 2
4, 55532, Control_c, 3, 1, 9
4, 55540, Control_c, 3, 1, 18
4, 55552, Control_c, 3, 1, 26
4, 55564, Control_c, 3, 1, 35
4, 55572, Control_c, 3, 1, 42
4, 55584, Control_c, 3, 1, 48
4, 55596, Control_c, 3, 1, 53
4, 55604, Control_c, 3, 1, 57
4, 55616, Control_c, 3, 1, 61
4, 55628, Control_c, 3, 1, 65
4, 55636, Control_c, 3, 1, 68
4, 55648, Control_c, 3, 1, 69
4, 55660, Control_c, 3, 1, 70
4, 55672, Control_c, 3, 1, 72
4, 55680, Control_c, 3, 1, 75
4, 55692, Control_c, 3, 1, 80
4, 55704, Control_c, 3, 1, 85
4, 55712, Control_c, 3, 1, 89
4, 55724, Control_c, 3, 1, 92
4, 55732, Control_c, 3, 1, 94
4, 55768, Control_c, 3, 1, 93
4, 55776, Control_c, 3, 1, 92
4, 55788, Control_c, 3, 1, 89
4, 55800, Control_c, 3, 1, 86
4, 55808, Control_c, 3, 1, 81
4, 55820, Control_c, 3, 1, 74
4, 55828, Control_c, 3, 1, 59
4, 55840, Control_c, 3, 1, 39
4, 55852, Control_c, 3, 1, 19
4, 55860, Control_c, 3, 1, 8
4, 55872, Control_c, 3, 1, 3
4, 55884, Control_c, 3, 1, 0
4, 55892, Control_c, 3, 1, 0
4, 55904, Note_on_c, 3, 69, 108
4, 55960, Note_on_c, 3, 67, 0
4, 56084, Note_on_c, 3, 69, 0
4, 56124, Control_c, 3, 1, 2
4, 56136, Control_c, 3, 1, 11
4, 56148, Control_c, 3, 1, 20
4, 56156, Control_c, 3, 1, 23
4, 56168, Control_c, 3, 1, 16
4, 56180, Control_c, 3, 1, 7
4, 56188, Control_c, 3, 1, 2
4, 56200, Control_c, 3, 1, 0
4, 56212, Control_c, 3, 1, 0
4, 56460, Note_on_c, 3, 72, 123
4, 56532, Note_on_c, 3, 72, 0
4, 56700, Note_on_c, 3, 72, 123
4, 56760, Control_c, 3, 1, 0
4, 56772, Control_c, 3, 1, 8
4, 56784, Control_c, 3, 1, 21
4, 56792, Control_c, 3, 1, 31
4, 56804, Control_c, 3, 1, 40
4, 56816, Control_c, 3, 1, 45
4, 56828, Control_c, 3, 1, 50
4, 56836, Control_c, 3, 1, 55
4, 56848, Control_c, 3, 1, 60
4, 56860, Control_c, 3, 1, 69
4, 56872, Control_c, 3, 1, 77
4, 56880, Control_c, 3, 1, 85
4, 56892, Control_c, 3, 1, 90
4, 56900, Control_c, 3, 1, 93
4, 56912, Control_c, 3, 1, 95
4, 56924, Control_c, 3, 1, 98
4, 56936, Control_c, 3, 1, 102
4, 56944, Control_c, 3, 1, 106
4, 56956, Control_c, 3, 1, 111
4, 56968, Control_c, 3, 1, 114
4, 56976, Control_c, 3, 1, 117
4, 56988, Control_c, 3, 1, 119
4, 57000, Control_c, 3, 1, 120
4, 57008, Control_c, 3, 1, 121
4, 57040, Control_c, 3, 1, 117
4, 57048, Control_c, 3, 1, 108
4, 57064, Control_c, 3, 1, 87
4, 57072, Control_c, 3, 1, 53
4, 57076, Note_on_c, 3, 70, 73
4, 57084, Control_c, 3, 1, 25
4, 57096, Control_c, 3, 1, 11
4, 57104, Control_c, 3, 1, 4
4, 57116, Note_on_c, 3, 72, 0
4, 57116, Control_c, 3, 1, 1
4, 57128, Control_c, 3, 1, 0
4, 57136, Control_c, 3, 1, 0
4, 57172, Note_on_c, 3, 70, 0
4, 57224, Note_on_c, 3, 69, 102
4, 57308, Note_on_c, 3, 69, 0
4, 57452, Note_on_c, 3, 67, 113
4, 57640, Control_c, 3, 1, 1
4, 57652, Control_c, 3, 1, 3
4, 57660, Control_c, 3, 1, 6
4, 57672, Control_c, 3, 1, 12
4, 57684, Control_c, 3, 1, 22
4, 57692, Control_c, 3, 1, 36
4, 57704, Control_c, 3, 1, 51
4, 57716, Control_c, 3, 1, 62
4, 57724, Control_c, 3, 1, 70
4, 57736, Control_c, 3, 1, 72
4, 57748, Control_c, 3, 1, 67
4, 57756, Control_c, 3, 1, 56
4, 57768, Control_c, 3, 1, 42
4, 57780, Control_c, 3, 1, 26
4, 57792, Note_on_c, 3, 67, 0
4, 57792, Control_c, 3, 1, 13
4, 57800, Control_c, 3, 1, 5
4, 57812, Control_c, 3, 1, 1
4, 57824, Control_c, 3, 1, 0
4, 57832, Control_c, 3, 1, 0
4, 58016, Note_on_c, 3, 72, 117
4, 58180, Note_on_c, 3, 72, 0
4, 58192, Pitch_bend_c, 3, 8802
4, 58204, Pitch_bend_c, 3, 6714
4, 58212, Pitch_bend_c, 3, 5878
4, 58224, Pitch_bend_c, 3, 5268
4, 58232, Pitch_bend_c, 3, 4850
4, 58244, Pitch_bend_c, 3, 4690
4, 58248, Note_on_c, 3, 69, 117
4, 58268, Pitch_bend_c, 3, 4786
4, 58280, Pitch_bend_c, 3, 4915
4, 58288, Pitch_bend_c, 3, 5140
4, 58300, Pitch_bend_c, 3, 5525
4, 58312, Pitch_bend_c, 3, 5911
4, 58320, Pitch_bend_c, 3, 6328
4, 58332, Pitch_bend_c, 3, 6874
4, 58344, Pitch_bend_c, 3, 7420
4, 58356, Pitch_bend_c, 3, 7902
4, 58368, Pitch_bend_c, 3, 8127
4, 58376, Pitch_bend_c, 3, 8192
4, 58440, Control_c, 3, 1, 0
4, 58452, Control_c, 3, 1, 20
4, 58464, Control_c, 3, 1, 47
4, 58472, Control_c, 3, 1, 68
4, 58484, Control_c, 3, 1, 83
4, 58496, Control_c, 3, 1, 94
4, 58504, Control_c, 3, 1, 105
4, 58516, Control_c, 3, 1, 116
4, 58528, Control_c, 3, 1, 122
4, 58536, Control_c, 3, 1, 125
4, 58548, Control_c, 3, 1, 127
4, 58560, Control_c, 3, 1, 127
4, 58644, Control_c, 3, 1, 127
4, 58652, Pitch_bend_c, 3, 8416
4, 58656, Control_c, 3, 1, 122
4, 58664, Pitch_bend_c, 3, 7517
4, 58668, Control_c, 3, 1, 113
4, 58676, Pitch_bend_c, 3, 7099
4, 58676, Control_c, 3, 1, 104
4, 58688, Pitch_bend_c, 3, 6939
4, 58688, Control_c, 3, 1, 95
4, 58700, Pitch_bend_c, 3, 6842
4, 58700, Control_c, 3, 1, 86
4, 58708, Pitch_bend_c, 3, 7003
4, 58712, Control_c, 3, 1, 60
4, 58720, Pitch_bend_c, 3, 7581
4, 58720, Control_c, 3, 1, 28
4, 58724, Note_on_c, 3, 69, 0
4, 58732, Pitch_bend_c, 3, 7967
4, 58732, Control_c, 3, 1, 13
4, 58744, Pitch_bend_c, 3, 8159
4, 58744, Control_c, 3, 1, 5
4, 58756, Pitch_bend_c, 3, 8192
4, 58756, Control_c, 3, 1, 1
4, 58768, Control_c, 3, 1, 0
4, 58776, Control_c, 3, 1, 0
4, 59692, Note_on_c, 3, 62, 85
4, 59796, Note_on_c, 3, 65, 85
4, 59816, Note_on_c, 3, 62, 0
4, 59860, Note_on_c, 3, 65, 0
4, 59912, Note_on_c, 3, 67, 117
4, 60056, Control_c, 3, 1, 0
4, 60068, Control_c, 3, 1, 9
4, 60080, Control_c, 3, 1, 29
4, 60088, Control_c, 3, 1, 52
4, 60100, Control_c, 3, 1, 70
4, 60112, Control_c, 3, 1, 84
4, 60120, Control_c, 3, 1, 92
4, 60132, Control_c, 3, 1, 95
4, 60144, Control_c, 3, 1, 93
4, 60156, Control_c, 3, 1, 85
4, 60164, Control_c, 3, 1, 70
4, 60176, Control_c, 3, 1, 46
4, 60188, Note_on_c, 3, 67, 0
4, 60188, Control_c, 3, 1, 22
4, 60188, Note_on_c, 3, 62, 113
4, 60200, Control_c, 3, 1, 9
4, 60208, Control_c, 3, 1, 3
4, 60220, Control_c, 3, 1, 0
4, 60232, Control_c, 3, 1, 0
4, 60296, Note_on_c, 3, 62, 0
4, 61296, Note_on_c, 3, 60, 60
4, 61400, Note_on_c, 3, 60, 0
4, 61432, Note_on_c, 3, 69, 102
4, 61620, Note_on_c, 3, 69, 0
4, 61692, Note_on_c, 3, 69, 85
4, 61756, Note_on_c, 3, 69, 0
4, 61832, Note_on_c, 3, 69, 123
4, 61976, Note_on_c, 3, 69, 0
4, 62080, Note_on_c, 3, 69, 77
4, 62132, Note_on_c, 3, 69, 0
4, 62228, Note_on_c, 3, 69, 121
4, 62352, Note_on_c, 3, 69, 0
4, 62456, Note_on_c, 3, 69, 95
4, 62520, Note_on_c, 3, 69, 0
4, 62604, Note_on_c, 3, 70, 115
4, 62800, Note_on_c, 3, 70, 0
4, 62824, Note_on_c, 3, 69, 95
4, 62908, Control_c, 3, 1, 1
4, 62916, Control_c, 3, 1, 5
4, 62928, Control_c, 3, 1, 10
4, 62940, Control_c, 3, 1, 20
4, 62952, Control_c, 3, 1, 34
4, 62960, Control_c, 3, 1, 48
4, 62972, Control_c, 3, 1, 59
4, 62984, Control_c, 3, 1, 67
4, 62992, Control_c, 3, 1, 73
4, 63004, Control_c, 3, 1, 75
4, 63016, Control_c, 3, 1, 77
4, 63028, Control_c, 3, 1, 79
4, 63036, Control_c, 3, 1, 81
4, 63048, Control_c, 3, 1, 87
4, 63060, Control_c, 3, 1, 93
4, 63068, Control_c, 3, 1, 100
4, 63080, Control_c, 3, 1, 106
4, 63092, Control_c, 3, 1, 111
4, 63100, Control_c, 3, 1, 113
4, 63112, Control_c, 3, 1, 116
4, 63124, Control_c, 3, 1, 117
4, 63136, Control_c, 3, 1, 118
4, 63168, Control_c, 3, 1, 117
4, 63176, Control_c, 3, 1, 115
4, 63188, Control_c, 3, 1, 111
4, 63192, Note_on_c, 3, 69, 0
4, 63200, Control_c, 3, 1, 99
4, 63212, Control_c, 3, 1, 73
4, 63224, Control_c, 3, 1, 36
4, 63236, Control_c, 3, 1, 17
4, 63244, Control_c, 3, 1, 7
4, 63256, Control_c, 3, 1, 2
4, 63268, Control_c, 3, 1, 0
4, 63276, Control_c, 3, 1, 0
4, 64128, Note_on_c, 3, 72, 121
4, 64344, Pitch_bend_c, 3, 8416
4, 64356, Pitch_bend_c, 3, 7453
4, 64360, Note_on_c, 3, 72, 0
4, 64368, Pitch_bend_c, 3, 6842
4, 64380, Pitch_bend_c, 3, 6328
4, 64392, Pitch_bend_c, 3, 5911
4, 64392, Note_on_c, 3, 69, 113
4, 64400, Pitch_bend_c, 3, 5750
4, 64412, Pitch_bend_c, 3, 5686
4, 64424, Pitch_bend_c, 3, 5878
4, 64436, Pitch_bend_c, 3, 6168
4, 64444, Pitch_bend_c, 3, 6489
4, 64456, Pitch_bend_c, 3, 6874
4, 64468, Pitch_bend_c, 3, 7356
4, 64480, Pitch_bend_c, 3, 7838
4, 64492, Pitch_bend_c, 3, 8127
4, 64500, Pitch_bend_c, 3, 8192
4, 64596, Control_c, 3, 1, 0
4, 64608, Control_c, 3, 1, 28
4, 64616, Control_c, 3, 1, 58
4, 64628, Control_c, 3, 1, 81
4, 64640, Control_c, 3, 1, 96
4, 64648, Control_c, 3, 1, 104
4, 64660, Control_c, 3, 1, 103
4, 64672, Control_c, 3, 1, 96
4, 64684, Control_c, 3, 1, 90
4, 64692, Control_c, 3, 1, 87
4, 64704, Control_c, 3, 1, 86
4, 64716, Control_c, 3, 1, 87
4, 64724, Control_c, 3, 1, 90
4, 64736, Control_c, 3, 1, 92
4, 64744, Control_c, 3, 1, 91
4, 64756, Control_c, 3, 1, 83
4, 64760, Note_on_c, 3, 69, 0
4, 64768, Control_c, 3, 1, 67
4, 64780, Control_c, 3, 1, 42
4, 64788, Control_c, 3, 1, 20
4, 64800, Control_c, 3, 1, 8
4, 64812, Control_c, 3, 1, 3
4, 64820, Control_c, 3, 1, 0
4, 64832, Control_c, 3, 1, 0
4, 65828, Note_on_c, 3, 62, 85
4, 65936, Note_on_c, 3, 65, 85
4, 65964, Note_on_c, 3, 62, 0
4, 66016, Note_on_c, 3, 65, 0
4, 66060, Note_on_c, 3, 67, 117
4, 66176, Control_c, 3, 1, 4
4, 66184, Control_c, 3, 1, 13
4, 66196, Control_c, 3, 1, 18
4, 66216, Control_c, 3, 1, 19
4, 66228, Control_c, 3, 1, 21
4, 66236, Control_c, 3, 1, 25
4, 66248, Control_c, 3, 1, 29
4, 66260, Control_c, 3, 1, 36
4, 66272, Control_c, 3, 1, 41
4, 66284, Control_c, 3, 1, 43
4, 66292, Control_c, 3, 1, 41
4, 66304, Control_c, 3, 1, 34
4, 66316, Control_c, 3, 1, 20
4, 66324, Control_c, 3, 1, 9
4, 66336, Control_c, 3, 1, 3
4, 66340, Note_on_c, 3, 62, 90
4, 66348, Control_c, 3, 1, 0
4, 66360, Note_on_c, 3, 67, 0
4, 66360, Control_c, 3, 1, 0
4, 66436, Note_on_c, 3, 62, 0
4, 67436, Note_on_c, 3, 60, 85
4, 67552, Note_on_c, 3, 60, 0
4, 67584, Note_on_c, 3, 69, 113
4, 67772, Note_on_c, 3, 69, 0
4, 67844, Note_on_c, 3, 69, 102
4, 67908, Note_on_c, 3, 69, 0
4, 67984, Note_on_c, 3, 69, 121
4, 68140, Note_on_c, 3, 69, 0
4, 68224, Note_on_c, 3, 69, 85
4, 68288, Note_on_c, 3, 69, 0
4, 68372, Note_on_c, 3, 69, 117
4, 68496, Note_on_c, 3, 69, 0
4, 68620, Note_on_c, 3, 69, 95
4, 68672, Note_on_c, 3, 69, 0
4, 68756, Note_on_c, 3, 70, 115
4, 68964, Control_c, 3, 1, 4
4, 68976, Control_c, 3, 1, 14
4, 68984, Control_c, 3, 1, 27
4, 68988, Note_on_c, 3, 69, 108
4, 68996, Control_c, 3, 1, 41
4, 69008, Note_on_c, 3, 70, 0
4, 69008, Control_c, 3, 1, 52
4, 69020, Control_c, 3, 1, 58
4, 69028, Control_c, 3, 1, 62
4, 69040, Control_c, 3, 1, 68
4, 69052, Control_c, 3, 1, 76
4, 69064, Control_c, 3, 1, 81
4, 69072, Control_c, 3, 1, 85
4, 69084, Control_c, 3, 1, 86
4, 69096, Control_c, 3, 1, 84
4, 69108, Control_c, 3, 1, 79
4, 69120, Note_on_c, 3, 69, 0
4, 69120, Control_c, 3, 1, 71
4, 69128, Control_c, 3, 1, 56
4, 69140, Control_c, 3, 1, 31
4, 69152, Control_c, 3, 1, 14
4, 69164, Control_c, 3, 1, 6
4, 69172, Control_c, 3, 1, 2
4, 69184, Control_c, 3, 1, 0
4, 69196, Control_c, 3, 1, 0
4, 69456, Pitch_bend_c, 3, 8224
4, 69464, Pitch_bend_c, 3, 8416
4, 69476, Pitch_bend_c, 3, 7677
4, 69488, Pitch_bend_c, 3, 7228
4, 69500, Pitch_bend_c, 3, 6714
4, 69508, Pitch_bend_c, 3, 6264
4, 69520, Pitch_bend_c, 3, 5750
4, 69520, Note_on_c, 3, 69, 113
4, 69532, Pitch_bend_c, 3, 5525
4, 69540, Pitch_bend_c, 3, 5364
4, 69564, Pitch_bend_c, 3, 5525
4, 69572, Pitch_bend_c, 3, 5814
4, 69584, Pitch_bend_c, 3, 6039
4, 69596, Pitch_bend_c, 3, 6264
4, 69608, Pitch_bend_c, 3, 6617
4, 69620, Pitch_bend_c, 3, 7003
4, 69628, Pitch_bend_c, 3, 7420
4, 69640, Pitch_bend_c, 3, 7742
4, 69652, Pitch_bend_c, 3, 8063
4, 69664, Pitch_bend_c, 3, 8192
4, 69756, Note_on_c, 3, 67, 108
4, 69788, Note_on_c, 3, 69, 0
4, 69912, Control_c, 3, 1, 4
4, 69924, Control_c, 3, 1, 13
4, 69936, Control_c, 3, 1, 23
4, 69944, Control_c, 3, 1, 34
4, 69956, Control_c, 3, 1, 45
4, 69964, Control_c, 3, 1, 57
4, 69976, Control_c, 3, 1, 68
4, 69988, Control_c, 3, 1, 78
4, 69996, Control_c, 3, 1, 87
4, 70008, Control_c, 3, 1, 96
4, 70020, Control_c, 3, 1, 104
4, 70028, Control_c, 3, 1, 111
4, 70032, Note_on_c, 3, 67, 0
4, 70040, Control_c, 3, 1, 118
4, 70052, Control_c, 3, 1, 123
4, 70064, Control_c, 3, 1, 126
4, 70072, Control_c, 3, 1, 127
4, 70144, Control_c, 3, 1, 126
4, 70156, Control_c, 3, 1, 123
4, 70168, Control_c, 3, 1, 118
4, 70176, Control_c, 3, 1, 101
4, 70188, Control_c, 3, 1, 65
4, 70200, Control_c, 3, 1, 31
4, 70208, Control_c, 3, 1, 14
4, 70220, Control_c, 3, 1, 6
4, 70232, Control_c, 3, 1, 2
4, 70240, Control_c, 3, 1, 0
4, 70252, Control_c, 3, 1, 0
4, 70264, Note_on_c, 3, 60, 108
4, 70284, Note_on_c, 3, 66, 45
4, 70296, Note_on_c, 3, 66, 0
4, 70380, Note_on_c, 3, 60, 0
4, 70516, Note_on_c, 3, 60, 95
4, 70600, Note_on_c, 3, 60, 0
4, 70640, Note_on_c, 3, 65, 117
4, 70860, Note_on_c, 3, 65, 0
4, 70912, Note_on_c, 3, 65, 81
4, 70988, Note_on_c, 3, 65, 0
4, 71048, Note_on_c, 3, 67, 117
4, 71248, Note_on_c, 3, 67, 0
4, 71412, Note_on_c, 3, 69, 121
4, 71508, Control_c, 3, 1, 10
4, 71516, Control_c, 3, 1, 37
4, 71528, Control_c, 3, 1, 58
4, 71540, Control_c, 3, 1, 71
4, 71548, Control_c, 3, 1, 78
4, 71560, Control_c, 3, 1, 81
4, 71572, Control_c, 3, 1, 83
4, 71584, Control_c, 3, 1, 84
4, 71588, Note_on_c, 3, 69, 0
4, 71596, Control_c, 3, 1, 85
4, 71604, Control_c, 3, 1, 88
4, 71616, Control_c, 3, 1, 92
4, 71628, Control_c, 3, 1, 97
4, 71636, Control_c, 3, 1, 102
4, 71648, Control_c, 3, 1, 104
4, 71668, Control_c, 3, 1, 101
4, 71680, Control_c, 3, 1, 94
4, 71692, Control_c, 3, 1, 88
4, 71704, Control_c, 3, 1, 85
4, 71712, Control_c, 3, 1, 82
4, 71724, Control_c, 3, 1, 72
4, 71732, Control_c, 3, 1, 49
4, 71744, Control_c, 3, 1, 23
4, 71756, Control_c, 3, 1, 10
4, 71764, Control_c, 3, 1, 4
4, 71776, Control_c, 3, 1, 1
4, 71788, Control_c, 3, 1, 0
4, 71796, Control_c, 3, 1, 0
4, 72064, Note_on_c, 3, 62, 77
4, 72156, Note_on_c, 3, 62, 0
4, 72188, Note_on_c, 3, 65, 95
4, 72408, Note_on_c, 3, 65, 0
4, 72572, Note_on_c, 3, 65, 121
4, 72604, Control_c, 3, 1, 7
4, 72616, Control_c, 3, 1, 29
4, 72628, Control_c, 3, 1, 47
4, 72636, Control_c, 3, 1, 59
4, 72648, Control_c, 3, 1, 67
4, 72660, Control_c, 3, 1, 70
4, 72668, Control_c, 3, 1, 72
4, 72680, Control_c, 3, 1, 69
4, 72692, Control_c, 3, 1, 55
4, 72704, Control_c, 3, 1, 34
4, 72712, Control_c, 3, 1, 15
4, 72724, Control_c, 3, 1, 6
4, 72736, Control_c, 3, 1, 2
4, 72744, Control_c, 3, 1, 0
4, 72756, Control_c, 3, 1, 0
4, 72800, Note_on_c, 3, 65, 0
4, 72952, Note_on_c, 3, 62, 108
4, 73084, Control_c, 3, 1, 2
4, 73092, Control_c, 3, 1, 4
4, 73104, Control_c, 3, 1, 5
4, 73116, Control_c, 3, 1, 8
4, 73124, Control_c, 3, 1, 10
4, 73136, Control_c, 3, 1, 15
4, 73148, Control_c, 3, 1, 22
4, 73156, Control_c, 3, 1, 30
4, 73168, Control_c, 3, 1, 35
4, 73188, Control_c, 3, 1, 31
4, 73200, Control_c, 3, 1, 25
4, 73208, Control_c, 3, 1, 16
4, 73220, Control_c, 3, 1, 7
4, 73224, Note_on_c, 3, 65, 95
4, 73232, Control_c, 3, 1, 2
4, 73244, Control_c, 3, 1, 0
4, 73252, Control_c, 3, 1, 0
4, 73264, Note_on_c, 3, 62, 0
4, 73308, Note_on_c, 3, 65, 0
4, 73360, Note_on_c, 3, 69, 117
4, 73444, Note_on_c, 3, 69, 0
4, 73592, Note_on_c, 3, 69, 117
4, 73664, Note_on_c, 3, 69, 0
4, 73664, Pitch_bend_c, 3, 8416
4, 73676, Pitch_bend_c, 3, 7356
4, 73688, Pitch_bend_c, 3, 6778
4, 73696, Pitch_bend_c, 3, 6232
4, 73708, Pitch_bend_c, 3, 5686
4, 73720, Pitch_bend_c, 3, 5364
4, 73728, Pitch_bend_c, 3, 5204
4, 73740, Pitch_bend_c, 3, 5140
4, 73752, Note_on_c, 3, 72, 113
4, 73764, Pitch_bend_c, 3, 5332
4, 73772, Pitch_bend_c, 3, 5878
4, 73784, Pitch_bend_c, 3, 6649
4, 73796, Pitch_bend_c, 3, 7517
4, 73808, Pitch_bend_c, 3, 7967
4, 73820, Pitch_bend_c, 3, 8159
4, 73828, Pitch_bend_c, 3, 8192
4, 73976, Note_on_c, 3, 69, 72
4, 74016, Note_on_c, 3, 72, 0
4, 74040, Note_on_c, 3, 69, 0
4, 74112, Note_on_c, 3, 69, 95
4, 74248, Note_on_c, 3, 69, 0
4, 74380, Control_c, 3, 1, 0
4, 74384, Note_on_c, 3, 72, 108
4, 74392, Control_c, 3, 1, 15
4, 74404, Control_c, 3, 1, 47
4, 74416, Control_c, 3, 1, 73
4, 74428, Control_c, 3, 1, 90
4, 74436, Control_c, 3, 1, 101
4, 74448, Control_c, 3, 1, 107
4, 74460, Control_c, 3, 1, 109
4, 74480, Control_c, 3, 1, 108
4, 74544, Control_c, 3, 1, 107
4, 74556, Control_c, 3, 1, 106
4, 74576, Control_c, 3, 1, 105
4, 74588, Control_c, 3, 1, 104
4, 74596, Control_c, 3, 1, 101
4, 74608, Control_c, 3, 1, 96
4, 74620, Control_c, 3, 1, 90
4, 74628, Control_c, 3, 1, 83
4, 74640, Control_c, 3, 1, 73
4, 74652, Control_c, 3, 1, 61
4, 74660, Control_c, 3, 1, 46
4, 74672, Control_c, 3, 1, 29
4, 74684, Control_c, 3, 1, 14
4, 74696, Control_c, 3, 1, 6
4, 74704, Control_c, 3, 1, 2
4, 74716, Control_c, 3, 1, 0
4, 74728, Control_c, 3, 1, 0
4, 74748, Note_on_c, 3, 69, 81
4, 74800, Note_on_c, 3, 72, 0
4, 74884, Note_on_c, 3, 67, 108
4, 74928, Note_on_c, 3, 69, 0
4, 75012, Note_on_c, 3, 67, 0
4, 75156, Note_on_c, 3, 62, 67
4, 75216, Note_on_c, 3, 62, 0
4, 75280, Note_on_c, 3, 65, 102
4, 75480, Note_on_c, 3, 65, 0
4, 75652, Note_on_c, 3, 65, 113
4, 75872, Note_on_c, 3, 65, 0
4, 76040, Note_on_c, 3, 65, 113
4, 76056, Control_c, 3, 1, 2
4, 76068, Control_c, 3, 1, 14
4, 76080, Control_c, 3, 1, 27
4, 76092, Control_c, 3, 1, 33
4, 76104, Control_c, 3, 1, 29
4, 76112, Control_c, 3, 1, 20
4, 76124, Control_c, 3, 1, 9
4, 76136, Control_c, 3, 1, 3
4, 76148, Control_c, 3, 1, 0
4, 76156, Control_c, 3, 1, 0
4, 76260, Note_on_c, 3, 65, 0
4, 76416, Control_c, 3, 1, 10
4, 76428, Control_c, 3, 1, 36
4, 76436, Control_c, 3, 1, 59
4, 76440, Note_on_c, 3, 65, 108
4, 76448, Control_c, 3, 1, 77
4, 76460, Control_c, 3, 1, 89
4, 76472, Control_c, 3, 1, 93
4, 76480, Control_c, 3, 1, 91
4, 76492, Control_c, 3, 1, 84
4, 76504, Control_c, 3, 1, 70
4, 76516, Control_c, 3, 1, 48
4, 76528, Control_c, 3, 1, 24
4, 76536, Control_c, 3, 1, 11
4, 76548, Control_c, 3, 1, 4
4, 76560, Control_c, 3, 1, 1
4, 76568, Control_c, 3, 1, 0
4, 76580, Control_c, 3, 1, 0
4, 76644, Note_on_c, 3, 65, 0
4, 76756, Control_c, 3, 1, 8
4, 76768, Control_c, 3, 1, 31
4, 76776, Control_c, 3, 1, 54
4, 76788, Control_c, 3, 1, 71
4, 76800, Control_c, 3, 1, 81
4, 76800, Note_on_c, 3, 65, 113
4, 76808, Control_c, 3, 1, 85
4, 76820, Control_c, 3, 1, 76
4, 76832, Control_c, 3, 1, 53
4, 76844, Control_c, 3, 1, 26
4, 76856, Control_c, 3, 1, 12
4, 76864, Control_c, 3, 1, 5
4, 76876, Control_c, 3, 1, 1
4, 76888, Control_c, 3, 1, 0
4, 76900, Control_c, 3, 1, 0
4, 77032, Note_on_c, 3, 65, 0
4, 77184, Note_on_c, 3, 65, 113
4, 77416, Note_on_c, 3, 65, 0
4, 77548, Control_c, 3, 1, 0
4, 77560, Control_c, 3, 1, 8
4, 77568, Note_on_c, 3, 65, 113
4, 77568, Control_c, 3, 1, 23
4, 77580, Control_c, 3, 1, 46
4, 77592, Control_c, 3, 1, 66
4, 77604, Control_c, 3, 1, 82
4, 77612, Control_c, 3, 1, 95
4, 77624, Control_c, 3, 1, 106
4, 77636, Control_c, 3, 1, 112
4, 77644, Control_c, 3, 1, 117
4, 77656, Control_c, 3, 1, 118
4, 77676, Control_c, 3, 1, 114
4, 77688, Control_c, 3, 1, 109
4, 77700, Control_c, 3, 1, 101
4, 77708, Control_c, 3, 1, 88
4, 77720, Control_c, 3, 1, 63
4, 77732, Control_c, 3, 1, 33
4, 77740, Control_c, 3, 1, 15
4, 77752, Control_c, 3, 1, 6
4, 77764, Control_c, 3, 1, 2
4, 77772, Control_c, 3, 1, 0
4, 77784, Control_c, 3, 1, 0
4, 77800, Note_on_c, 3, 65, 0
4, 77928, Note_on_c, 3, 67, 117
4, 78188, Note_on_c, 3, 67, 0
4, 78192, Note_on_c, 3, 65, 113
4, 78344, Note_on_c, 3, 65, 0
4, 84120, Note_on_c, 3, 60, 113
4, 84244, Note_on_c, 3, 60, 0
4, 84244, Note_on_c, 3, 65, 85
4, 84328, Note_on_c, 3, 65, 0
4, 84360, Note_on_c, 3, 67, 102
4, 84436, Note_on_c, 3, 67, 0
4, 84496, Note_on_c, 3, 69, 117
4, 84604, Control_c, 3, 1, 0
4, 84612, Control_c, 3, 1, 3
4, 84624, Control_c, 3, 1, 8
4, 84632, Control_c, 3, 1, 14
4, 84644, Control_c, 3, 1, 20
4, 84656, Control_c, 3, 1, 28
4, 84664, Control_c, 3, 1, 37
4, 84676, Control_c, 3, 1, 47
4, 84688, Control_c, 3, 1, 57
4, 84700, Control_c, 3, 1, 65
4, 84708, Control_c, 3, 1, 71
4, 84720, Control_c, 3, 1, 74
4, 84732, Control_c, 3, 1, 76
4, 84752, Control_c, 3, 1, 74
4, 84764, Control_c, 3, 1, 71
4, 84776, Control_c, 3, 1, 62
4, 84784, Control_c, 3, 1, 50
4, 84796, Control_c, 3, 1, 32
4, 84808, Control_c, 3, 1, 15
4, 84820, Control_c, 3, 1, 6
4, 84828, Control_c, 3, 1, 2
4, 84840, Control_c, 3, 1, 0
4, 84840, Note_on_c, 3, 67, 102
4, 84852, Control_c, 3, 1, 0
4, 84872, Note_on_c, 3, 69, 0
4, 85092, Note_on_c, 3, 67, 0
4, 85104, Note_on_c, 3, 65, 85
4, 85168, Note_on_c, 3, 65, 0
4, 85248, Note_on_c, 3, 65, 102
4, 85356, Control_c, 3, 1, 2
4, 85364, Control_c, 3, 1, 7
4, 85376, Control_c, 3, 1, 14
4, 85388, Control_c, 3, 1, 24
4, 85400, Control_c, 3, 1, 34
4, 85408, Control_c, 3, 1, 43
4, 85416, Note_on_c, 3, 65, 0
4, 85420, Control_c, 3, 1, 53
4, 85432, Control_c, 3, 1, 62
4, 85440, Control_c, 3, 1, 71
4, 85452, Control_c, 3, 1, 77
4, 85464, Control_c, 3, 1, 83
4, 85464, Note_on_c, 3, 65, 90
4, 85472, Control_c, 3, 1, 87
4, 85484, Control_c, 3, 1, 91
4, 85496, Control_c, 3, 1, 95
4, 85504, Control_c, 3, 1, 99
4, 85516, Control_c, 3, 1, 103
4, 85528, Control_c, 3, 1, 106
4, 85540, Control_c, 3, 1, 108
4, 85552, Control_c, 3, 1, 109
4, 85572, Control_c, 3, 1, 108
4, 85584, Control_c, 3, 1, 104
4, 85596, Control_c, 3, 1, 99
4, 85604, Control_c, 3, 1, 88
4, 85616, Control_c, 3, 1, 66
4, 85628, Control_c, 3, 1, 34
4, 85636, Control_c, 3, 1, 15
4, 85648, Control_c, 3, 1, 6
4, 85656, Note_on_c, 3, 65, 0
4, 85660, Control_c, 3, 1, 2
4, 85672, Control_c, 3, 1, 0
4, 85680, Control_c, 3, 1, 0
4, 85872, Note_on_c, 3, 67, 121
4, 86048, Control_c, 3, 1, 3
4, 86056, Control_c, 3, 1, 15
4, 86068, Control_c, 3, 1, 32
4, 86080, Control_c, 3, 1, 47
4, 86092, Control_c, 3, 1, 57
4, 86100, Control_c, 3, 1, 66
4, 86112, Control_c, 3, 1, 75
4, 86124, Control_c, 3, 1, 83
4, 86132, Control_c, 3, 1, 90
4, 86144, Control_c, 3, 1, 95
4, 86156, Control_c, 3, 1, 99
4, 86168, Control_c, 3, 1, 101
4, 86188, Control_c, 3, 1, 99
4, 86200, Control_c, 3, 1, 95
4, 86212, Control_c, 3, 1, 87
4, 86220, Control_c, 3, 1, 71
4, 86232, Control_c, 3, 1, 45
4, 86240, Control_c, 3, 1, 22
4, 86252, Control_c, 3, 1, 9
4, 86264, Control_c, 3, 1, 3
4, 86264, Note_on_c, 3, 69, 108
4, 86276, Control_c, 3, 1, 0
4, 86284, Control_c, 3, 1, 0
4, 86300, Note_on_c, 3, 67, 0
4, 86352, Note_on_c, 3, 69, 0
4, 87324, Pitch_bend_c, 3, 8481
4, 87336, Pitch_bend_c, 3, 7356
4, 87348, Pitch_bend_c, 3, 6714
4, 87356, Pitch_bend_c, 3, 6071
4, 87368, Pitch_bend_c, 3, 5589
4, 87380, Pitch_bend_c, 3, 5204
4, 87388, Pitch_bend_c, 3, 4947
4, 87400, Pitch_bend_c, 3, 4786
4, 87404, Note_on_c, 3, 69, 117
4, 87412, Pitch_bend_c, 3, 4722
4, 87420, Pitch_bend_c, 3, 4850
4, 87432, Pitch_bend_c, 3, 5332
4, 87444, Pitch_bend_c, 3, 5911
4, 87456, Pitch_bend_c, 3, 6714
4, 87468, Pitch_bend_c, 3, 7453
4, 87480, Pitch_bend_c, 3, 7902
4, 87492, Pitch_bend_c, 3, 8127
4, 87500, Pitch_bend_c, 3, 8192
4, 87608, Control_c, 3, 1, 0
4, 87616, Control_c, 3, 1, 11
4, 87628, Control_c, 3, 1, 31
4, 87636, Control_c, 3, 1, 52
4, 87648, Control_c, 3, 1, 67
4, 87660, Control_c, 3, 1, 77
4, 87668, Control_c, 3, 1, 83
4, 87684, Control_c, 3, 1, 86
4, 87692, Control_c, 3, 1, 88
4, 87704, Control_c, 3, 1, 90
4, 87716, Control_c, 3, 1, 95
4, 87724, Control_c, 3, 1, 101
4, 87736, Control_c, 3, 1, 107
4, 87748, Control_c, 3, 1, 111
4, 87756, Control_c, 3, 1, 114
4, 87768, Control_c, 3, 1, 115
4, 87800, Control_c, 3, 1, 114
4, 87808, Control_c, 3, 1, 113
4, 87820, Control_c, 3, 1, 111
4, 87832, Control_c, 3, 1, 108
4, 87840, Control_c, 3, 1, 105
4, 87852, Control_c, 3, 1, 100
4, 87864, Control_c, 3, 1, 91
4, 87876, Control_c, 3, 1, 71
4, 87888, Control_c, 3, 1, 43
4, 87896, Control_c, 3, 1, 20
4, 87908, Control_c, 3, 1, 9
4, 87920, Control_c, 3, 1, 3
4, 87928, Control_c, 3, 1, 0
4, 87932, Note_on_c, 3, 67, 90
4, 87940, Control_c, 3, 1, 0
4, 87972, Note_on_c, 3, 69, 0
4, 88036, Note_on_c, 3, 67, 0
4, 88204, Note_on_c, 3, 65, 57
4, 88276, Note_on_c, 3, 65, 0
4, 88348, Note_on_c, 3, 67, 102
4, 88636, Control_c, 3, 1, 0
4, 88648, Control_c, 3, 1, 3
4, 88656, Control_c, 3, 1, 7
4, 88668, Control_c, 3, 1, 9
4, 88692, Note_on_c, 3, 67, 0
4, 88692, Control_c, 3, 1, 7
4, 88692, Note_on_c, 3, 69, 62
4, 88704, Control_c, 3, 1, 3
4, 88712, Control_c, 3, 1, 0
4, 88724, Control_c, 3, 1, 0
4, 88816, Note_on_c, 3, 69, 0
4, 88940, Note_on_c, 3, 67, 108
4, 89044, Control_c, 3, 1, 1
4, 89056, Control_c, 3, 1, 5
4, 89068, Control_c, 3, 1, 11
4, 89080, Control_c, 3, 1, 19
4, 89088, Control_c, 3, 1, 30
4, 89100, Control_c, 3, 1, 39
4, 89112, Control_c, 3, 1, 47
4, 89120, Control_c, 3, 1, 53
4, 89132, Control_c, 3, 1, 59
4, 89144, Control_c, 3, 1, 68
4, 89152, Control_c, 3, 1, 76
4, 89164, Control_c, 3, 1, 84
4, 89176, Control_c, 3, 1, 89
4, 89184, Control_c, 3, 1, 92
4, 89196, Control_c, 3, 1, 95
4, 89204, Control_c, 3, 1, 98
4, 89216, Control_c, 3, 1, 103
4, 89228, Control_c, 3, 1, 109
4, 89236, Control_c, 3, 1, 113
4, 89248, Control_c, 3, 1, 116
4, 89260, Control_c, 3, 1, 114
4, 89272, Control_c, 3, 1, 112
4, 89280, Control_c, 3, 1, 109
4, 89292, Control_c, 3, 1, 105
4, 89304, Control_c, 3, 1, 99
4, 89312, Control_c, 3, 1, 90
4, 89324, Control_c, 3, 1, 75
4, 89336, Control_c, 3, 1, 46
4, 89344, Control_c, 3, 1, 22
4, 89348, Note_on_c, 3, 65, 69
4, 89356, Control_c, 3, 1, 10
4, 89360, Note_on_c, 3, 67, 0
4, 89368, Control_c, 3, 1, 4
4, 89380, Control_c, 3, 1, 1
4, 89392, Control_c, 3, 1, 0
4, 89400, Control_c, 3, 1, 0
4, 89444, Note_on_c, 3, 65, 0
4, 90152, Pitch_bend_c, 3, 8416
4, 90164, Pitch_bend_c, 3, 7356
4, 90176, Pitch_bend_c, 3, 6714
4, 90184, Pitch_bend_c, 3, 6071
4, 90196, Pitch_bend_c, 3, 5589
4, 90208, Pitch_bend_c, 3, 5140
4, 90216, Pitch_bend_c, 3, 4850
4, 90228, Pitch_bend_c, 3, 4626
4, 90240, Pitch_bend_c, 3, 4465
4, 90252, Pitch_bend_c, 3, 4401
4, 90272, Pitch_bend_c, 3, 4465
4, 90272, Note_on_c, 3, 72, 121
4, 90284, Pitch_bend_c, 3, 4786
4, 90292, Pitch_bend_c, 3, 5429
4, 90304, Pitch_bend_c, 3, 6392
4, 90316, Pitch_bend_c, 3, 7420
4, 90328, Pitch_bend_c, 3, 7902
4, 90336, Pitch_bend_c, 3, 8127
4, 90348, Pitch_bend_c, 3, 8192
4, 90392, Note_on_c, 3, 72, 0
4, 90508, Note_on_c, 3, 72, 123
4, 90652, Control_c, 3, 1, 25
4, 90664, Control_c, 3, 1, 58
4, 90676, Control_c, 3, 1, 76
4, 90684, Control_c, 3, 1, 80
4, 90716, Control_c, 3, 1, 81
4, 90728, Control_c, 3, 1, 85
4, 90740, Control_c, 3, 1, 90
4, 90752, Control_c, 3, 1, 95
4, 90760, Control_c, 3, 1, 100
4, 90772, Control_c, 3, 1, 104
4, 90784, Control_c, 3, 1, 110
4, 90792, Control_c, 3, 1, 115
4, 90804, Control_c, 3, 1, 119
4, 90812, Control_c, 3, 1, 122
4, 90824, Control_c, 3, 1, 124
4, 90836, Control_c, 3, 1, 125
4, 90876, Control_c, 3, 1, 124
4, 90888, Control_c, 3, 1, 122
4, 90900, Control_c, 3, 1, 121
4, 90920, Control_c, 3, 1, 120
4, 90932, Control_c, 3, 1, 117
4, 90944, Control_c, 3, 1, 110
4, 90952, Control_c, 3, 1, 96
4, 90964, Control_c, 3, 1, 73
4, 90972, Control_c, 3, 1, 38
4, 90984, Control_c, 3, 1, 18
4, 90996, Control_c, 3, 1, 7
4, 91004, Control_c, 3, 1, 2
4, 91016, Control_c, 3, 1, 0
4, 91016, Note_on_c, 3, 69, 108
4, 91020, Note_on_c, 3, 72, 0
4, 91028, Control_c, 3, 1, 0
4, 91248, Note_on_c, 3, 69, 0
4, 91268, Note_on_c, 3, 67, 65
4, 91340, Note_on_c, 3, 67, 0
4, 91384, Note_on_c, 3, 65, 102
4, 91520, Control_c, 3, 1, 2
4, 91528, Control_c, 3, 1, 12
4, 91540, Control_c, 3, 1, 30
4, 91552, Control_c, 3, 1, 50
4, 91560, Control_c, 3, 1, 65
4, 91572, Control_c, 3, 1, 75
4, 91584, Control_c, 3, 1, 83
4, 91596, Control_c, 3, 1, 88
4, 91604, Control_c, 3, 1, 91
4, 91616, Control_c, 3, 1, 94
4, 91628, Control_c, 3, 1, 96
4, 91640, Control_c, 3, 1, 97
4, 91648, Control_c, 3, 1, 99
4, 91660, Control_c, 3, 1, 100
4, 91680, Control_c, 3, 1, 101
4, 91704, Note_on_c, 3, 65, 0
4, 91712, Control_c, 3, 1, 100
4, 91724, Control_c, 3, 1, 99
4, 91736, Control_c, 3, 1, 97
4, 91744, Control_c, 3, 1, 93
4, 91756, Control_c, 3, 1, 86
4, 91768, Control_c, 3, 1, 71
4, 91776, Control_c, 3, 1, 47
4, 91788, Control_c, 3, 1, 23
4, 91788, Note_on_c, 3, 65, 113
4, 91800, Control_c, 3, 1, 10
4, 91808, Control_c, 3, 1, 4
4, 91820, Control_c, 3, 1, 1
4, 91832, Control_c, 3, 1, 0
4, 91844, Control_c, 3, 1, 0
4, 91900, Note_on_c, 3, 65, 0
4, 92020, Note_on_c, 3, 67, 117
4, 92208, Control_c, 3, 1, 1
4, 92220, Control_c, 3, 1, 6
4, 92232, Control_c, 3, 1, 13
4, 92240, Control_c, 3, 1, 22
4, 92252, Control_c, 3, 1, 34
4, 92264, Control_c, 3, 1, 45
4, 92272, Control_c, 3, 1, 55
4, 92284, Control_c, 3, 1, 63
4, 92296, Control_c, 3, 1, 69
4, 92308, Control_c, 3, 1, 72
4, 92340, Control_c, 3, 1, 71
4, 92348, Control_c, 3, 1, 69
4, 92360, Control_c, 3, 1, 68
4, 92372, Control_c, 3, 1, 67
4, 92380, Control_c, 3, 1, 66
4, 92392, Control_c, 3, 1, 63
4, 92404, Control_c, 3, 1, 58
4, 92412, Control_c, 3, 1, 49
4, 92424, Control_c, 3, 1, 37
4, 92428, Note_on_c, 3, 67, 0
4, 92436, Control_c, 3, 1, 22
4, 92448, Control_c, 3, 1, 9
4, 92448, Note_on_c, 3, 69, 95
4, 92460, Control_c, 3, 1, 3
4, 92472, Control_c, 3, 1, 0
4, 92480, Control_c, 3, 1, 0
4, 92556, Note_on_c, 3, 69, 0
4, 93196, Note_on_c, 3, 72, 72
4, 93240, Note_on_c, 3, 72, 0
4, 93344, Note_on_c, 3, 72, 123
4, 93408, Note_on_c, 3, 72, 0
4, 93480, Pitch_bend_c, 3, 8609
4, 93488, Pitch_bend_c, 3, 7099
4, 93500, Pitch_bend_c, 3, 6489
4, 93512, Pitch_bend_c, 3, 5911
4, 93520, Pitch_bend_c, 3, 5589
4, 93532, Pitch_bend_c, 3, 5429
4, 93544, Pitch_bend_c, 3, 5332
4, 93564, Pitch_bend_c, 3, 5268
4, 93568, Note_on_c, 3, 72, 125
4, 93584, Pitch_bend_c, 3, 5332
4, 93596, Pitch_bend_c, 3, 5493
4, 93608, Pitch_bend_c, 3, 5814
4, 93620, Pitch_bend_c, 3, 6168
4, 93632, Pitch_bend_c, 3, 6778
4, 93640, Pitch_bend_c, 3, 7292
4, 93652, Pitch_bend_c, 3, 7774
4, 93664, Pitch_bend_c, 3, 8063
4, 93676, Pitch_bend_c, 3, 8192
4, 93792, Control_c, 3, 1, 5
4, 93800, Control_c, 3, 1, 22
4, 93812, Control_c, 3, 1, 41
4, 93824, Control_c, 3, 1, 56
4, 93832, Control_c, 3, 1, 67
4, 93844, Control_c, 3, 1, 74
4, 93856, Control_c, 3, 1, 78
4, 93864, Control_c, 3, 1, 81
4, 93876, Control_c, 3, 1, 83
4, 93896, Control_c, 3, 1, 78
4, 93908, Control_c, 3, 1, 71
4, 93920, Control_c, 3, 1, 57
4, 93932, Control_c, 3, 1, 40
4, 93944, Control_c, 3, 1, 24
4, 93952, Control_c, 3, 1, 11
4, 93956, Note_on_c, 3, 69, 59
4, 93964, Control_c, 3, 1, 4
4, 93972, Control_c, 3, 1, 1
4, 93984, Control_c, 3, 1, 0
4, 93996, Control_c, 3, 1, 0
4, 94016, Note_on_c, 3, 72, 0
4, 94020, Note_on_c, 3, 69, 0
4, 94092, Note_on_c, 3, 69, 95
4, 94352, Note_on_c, 3, 69, 0
4, 94352, Note_on_c, 3, 67, 50
4, 94424, Note_on_c, 3, 67, 0
4, 94488, Note_on_c, 3, 65, 102
4, 94632, Control_c, 3, 1, 1
4, 94644, Control_c, 3, 1, 7
4, 94656, Control_c, 3, 1, 10
4, 94664, Control_c, 3, 1, 8
4, 94676, Control_c, 3, 1, 4
4, 94688, Control_c, 3, 1, 1
4, 94696, Control_c, 3, 1, 0
4, 94708, Control_c, 3, 1, 0
4, 94720, Note_on_c, 3, 65, 0
4, 94732, Note_on_c, 3, 67, 81
4, 94828, Note_on_c, 3, 67, 0
4, 94868, Note_on_c, 3, 69, 90
4, 94976, Note_on_c, 3, 69, 0
4, 95100, Note_on_c, 3, 67, 117
4, 95172, Control_c, 3, 1, 0
4, 95184, Control_c, 3, 1, 3
4, 95196, Control_c, 3, 1, 8
4, 95204, Control_c, 3, 1, 17
4, 95216, Control_c, 3, 1, 26
4, 95228, Control_c, 3, 1, 36
4, 95236, Control_c, 3, 1, 46
4, 95248, Control_c, 3, 1, 55
4, 95260, Control_c, 3, 1, 61
4, 95268, Control_c, 3, 1, 66
4, 95280, Control_c, 3, 1, 68
4, 95312, Control_c, 3, 1, 67
4, 95320, Control_c, 3, 1, 66
4, 95344, Control_c, 3, 1, 67
4, 95352, Control_c, 3, 1, 69
4, 95364, Control_c, 3, 1, 71
4, 95376, Control_c, 3, 1, 75
4, 95384, Control_c, 3, 1, 79
4, 95396, Control_c, 3, 1, 85
4, 95408, Control_c, 3, 1, 91
4, 95416, Control_c, 3, 1, 95
4, 95428, Control_c, 3, 1, 99
4, 95440, Control_c, 3, 1, 101
4, 95452, Control_c, 3, 1, 99
4, 95460, Control_c, 3, 1, 92
4, 95472, Control_c, 3, 1, 75
4, 95484, Control_c, 3, 1, 47
4, 95492, Control_c, 3, 1, 22
4, 95496, Note_on_c, 3, 65, 113
4, 95504, Control_c, 3, 1, 10
4, 95516, Control_c, 3, 1, 4
4, 95528, Note_on_c, 3, 67, 0
4, 95528, Control_c, 3, 1, 1
4, 95540, Control_c, 3, 1, 0
4, 95552, Control_c, 3, 1, 0
4, 95624, Note_on_c, 3, 65, 0
4, 96788, Note_on_c, 3, 67, 121
4, 96976, Control_c, 3, 1, 4
4, 96988, Control_c, 3, 1, 15
4, 97000, Control_c, 3, 1, 26
4, 97008, Control_c, 3, 1, 37
4, 97020, Control_c, 3, 1, 44
4, 97032, Control_c, 3, 1, 51
4, 97040, Control_c, 3, 1, 56
4, 97052, Control_c, 3, 1, 63
4, 97064, Control_c, 3, 1, 70
4, 97072, Control_c, 3, 1, 77
4, 97084, Control_c, 3, 1, 83
4, 97092, Control_c, 3, 1, 87
4, 97104, Control_c, 3, 1, 90
4, 97116, Control_c, 3, 1, 92
4, 97128, Control_c, 3, 1, 93
4, 97140, Control_c, 3, 1, 95
4, 97148, Control_c, 3, 1, 96
4, 97168, Control_c, 3, 1, 97
4, 97180, Control_c, 3, 1, 99
4, 97192, Control_c, 3, 1, 102
4, 97200, Control_c, 3, 1, 104
4, 97212, Control_c, 3, 1, 106
4, 97224, Control_c, 3, 1, 108
4, 97236, Control_c, 3, 1, 109
4, 97256, Control_c, 3, 1, 110
4, 97288, Control_c, 3, 1, 109
4, 97296, Control_c, 3, 1, 103
4, 97308, Control_c, 3, 1, 91
4, 97320, Control_c, 3, 1, 73
4, 97328, Control_c, 3, 1, 44
4, 97340, Control_c, 3, 1, 21
4, 97352, Control_c, 3, 1, 9
4, 97360, Control_c, 3, 1, 3
4, 97372, Control_c, 3, 1, 0
4, 97384, Control_c, 3, 1, 0
4, 97396, Note_on_c, 3, 69, 108
4, 97436, Note_on_c, 3, 67, 0
4, 97624, Control_c, 3, 1, 2
4, 97636, Control_c, 3, 1, 9
4, 97644, Control_c, 3, 1, 22
4, 97656, Control_c, 3, 1, 41
4, 97668, Control_c, 3, 1, 58
4, 97676, Control_c, 3, 1, 70
4, 97688, Control_c, 3, 1, 78
4, 97700, Control_c, 3, 1, 83
4, 97708, Control_c, 3, 1, 86
4, 97720, Control_c, 3, 1, 87
4, 97740, Control_c, 3, 1, 86
4, 97752, Control_c, 3, 1, 84
4, 97760, Control_c, 3, 1, 83
4, 97784, Control_c, 3, 1, 84
4, 97792, Control_c, 3, 1, 85
4, 97816, Control_c, 3, 1, 86
4, 97868, Control_c, 3, 1, 83
4, 97876, Control_c, 3, 1, 75
4, 97888, Note_on_c, 3, 69, 0
4, 97888, Control_c, 3, 1, 60
4, 97900, Control_c, 3, 1, 34
4, 97912, Control_c, 3, 1, 15
4, 97920, Control_c, 3, 1, 6
4, 97924, Note_on_c, 3, 72, 81
4, 97932, Control_c, 3, 1, 2
4, 97944, Control_c, 3, 1, 0
4, 97952, Control_c, 3, 1, 0
4, 98008, Note_on_c, 3, 72, 0
4, 98172, Note_on_c, 3, 72, 121
4, 98328, Control_c, 3, 1, 0
4, 98340, Control_c, 3, 1, 6
4, 98348, Control_c, 3, 1, 16
4, 98360, Control_c, 3, 1, 30
4, 98372, Control_c, 3, 1, 43
4, 98380, Control_c, 3, 1, 52
4, 98392, Control_c, 3, 1, 59
4, 98404, Control_c, 3, 1, 65
4, 98416, Control_c, 3, 1, 69
4, 98424, Control_c, 3, 1, 72
4, 98436, Control_c, 3, 1, 74
4, 98448, Control_c, 3, 1, 75
4, 98456, Control_c, 3, 1, 77
4, 98468, Control_c, 3, 1, 78
4, 98488, Control_c, 3, 1, 77
4, 98500, Control_c, 3, 1, 74
4, 98512, Control_c, 3, 1, 71
4, 98520, Control_c, 3, 1, 66
4, 98532, Control_c, 3, 1, 57
4, 98544, Control_c, 3, 1, 44
4, 98552, Control_c, 3, 1, 25
4, 98564, Control_c, 3, 1, 11
4, 98568, Note_on_c, 3, 70, 91
4, 98576, Control_c, 3, 1, 4
4, 98588, Control_c, 3, 1, 1
4, 98596, Control_c, 3, 1, 0
4, 98600, Note_on_c, 3, 72, 0
4, 98608, Control_c, 3, 1, 0
4, 98652, Note_on_c, 3, 70, 0
4, 98704, Note_on_c, 3, 69, 85
4, 98800, Note_on_c, 3, 69, 0
4, 98924, Note_on_c, 3, 67, 102
4, 99088, Control_c, 3, 1, 2
4, 99100, Control_c, 3, 1, 10
4, 99112, Control_c, 3, 1, 22
4, 99120, Control_c, 3, 1, 38
4, 99132, Control_c, 3, 1, 51
4, 99144, Control_c, 3, 1, 61
4, 99152, Control_c, 3, 1, 67
4, 99164, Control_c, 3, 1, 69
4, 99184, Control_c, 3, 1, 68
4, 99196, Control_c, 3, 1, 63
4, 99208, Control_c, 3, 1, 59
4, 99216, Control_c, 3, 1, 54
4, 99228, Control_c, 3, 1, 50
4, 99240, Control_c, 3, 1, 48
4, 99280, Note_on_c, 3, 67, 0
4, 99292, Control_c, 3, 1, 44
4, 99300, Control_c, 3, 1, 36
4, 99304, Note_on_c, 3, 69, 113
4, 99312, Control_c, 3, 1, 22
4, 99324, Control_c, 3, 1, 11
4, 99336, Control_c, 3, 1, 4
4, 99348, Control_c, 3, 1, 1
4, 99356, Control_c, 3, 1, 0
4, 99368, Control_c, 3, 1, 0
4, 99464, Note_on_c, 3, 69, 0
4, 99864, Note_on_c, 3, 67, 117
4, 100064, Control_c, 3, 1, 2
4, 100076, Control_c, 3, 1, 9
4, 100084, Control_c, 3, 1, 18
4, 100096, Control_c, 3, 1, 26
4, 100108, Control_c, 3, 1, 35
4, 100116, Control_c, 3, 1, 42
4, 100128, Control_c, 3, 1, 48
4, 100140, Control_c, 3, 1, 53
4, 100148, Control_c, 3, 1, 57
4, 100160, Control_c, 3, 1, 61
4, 100172, Control_c, 3, 1, 65
4, 100180, Control_c, 3, 1, 68
4, 100192, Control_c, 3, 1, 69
4, 100204, Control_c, 3, 1, 70
4, 100216, Control_c, 3, 1, 72
4, 100224, Control_c, 3, 1, 75
4, 100236, Control_c, 3, 1, 80
4, 100248, Control_c, 3, 1, 85
4, 100256, Control_c, 3, 1, 89
4, 100268, Control_c, 3, 1, 92
4, 100276, Control_c, 3, 1, 94
4, 100312, Control_c, 3, 1, 93
4, 100320, Control_c, 3, 1, 92
4, 100332, Control_c, 3, 1, 89
4, 100344, Control_c, 3, 1, 86
4, 100352, Control_c, 3, 1, 81
4, 100364, Control_c, 3, 1, 74
4, 100372, Control_c, 3, 1, 59
4, 100384, Control_c, 3, 1, 39
4, 100396, Control_c, 3, 1, 19
4, 100404, Control_c, 3, 1, 8
4, 100416, Control_c, 3, 1, 3
4, 100428, Control_c, 3, 1, 0
4, 100436, Control_c, 3, 1, 0
4, 100448, Note_on_c, 3, 69, 108
4, 100504, Note_on_c, 3, 67, 0
4, 100628, Note_on_c, 3, 69, 0
4, 100668, Control_c, 3, 1, 2
4, 100680, Control_c, 3, 1, 11
4, 100692, Control_c, 3, 1, 20
4, 100700, Control_c, 3, 1, 23
4, 100712, Control_c, 3, 1, 16
4, 100724, Control_c, 3, 1, 7
4, 100732, Control_c, 3, 1, 2
4, 100744, Control_c, 3, 1, 0
4, 100756, Control_c, 3, 1, 0
4, 101004, Note_on_c, 3, 72, 123
4, 101076, Note_on_c, 3, 72, 0
4, 101244, Note_on_c, 3, 72, 123
4, 101304, Control_c, 3, 1, 0
4, 101316, Control_c, 3, 1, 8
4, 101328, Control_c, 3, 1, 21
4, 101336, Control_c, 3, 1, 31
4, 101348, Control_c, 3, 1, 40
4, 101360, Control_c, 3, 1, 45
4, 101372, Control_c, 3, 1, 50
4, 101380, Control_c, 3, 1, 55
4, 101392, Control_c, 3, 1, 60
4, 101404, Control_c, 3, 1, 69
4, 101416, Control_c, 3, 1, 77
4, 101424, Control_c, 3, 1, 85
4, 101436, Control_c, 3, 1, 90
4, 101444, Control_c, 3, 1, 93
4, 101456, Control_c, 3, 1, 95
4, 101468, Control_c, 3, 1, 98
4, 101480, Control_c, 3, 1, 102
4, 101488, Control_c, 3, 1, 106
4, 101500, Control_c, 3, 1, 111
4, 101512, Control_c, 3, 1, 114
4, 101520, Control_c, 3, 1, 117
4, 101532, Control_c, 3, 1, 119
4, 101544, Control_c, 3, 1, 120
4, 101552, Control_c, 3, 1, 121
4, 101584, Control_c, 3, 1, 117
4, 101592, Control_c, 3, 1, 108
4, 101608, Control_c, 3, 1, 87
4, 101616, Control_c, 3, 1, 53
4, 101620, Note_on_c, 3, 70, 73
4, 101628, Control_c, 3, 1, 25
4, 101640, Control_c, 3, 1, 11
4, 101648, Control_c, 3, 1, 4
4, 101660, Note_on_c, 3, 72, 0
4, 101660, Control_c, 3, 1, 1
4, 101672, Control_c, 3, 1, 0
4, 101680, Control_c, 3, 1, 0
4, 101716, Note_on_c, 3, 70, 0
4, 101768, Note_on_c, 3, 69, 102
4, 101852, Note_on_c, 3, 69, 0
4, 101996, Note_on_c, 3, 67, 113
4, 102184, Control_c, 3, 1, 1
4, 102196, Control_c, 3, 1, 3
4, 102204, Control_c, 3, 1, 6
4, 102216, Control_c, 3, 1, 12
4, 102228, Control_c, 3, 1, 22
4, 102236, Control_c, 3, 1, 36
4, 102248, Control_c, 3, 1, 51
4, 102260, Control_c, 3, 1, 62
4, 102268, Control_c, 3, 1, 70
4, 102280, Control_c, 3, 1, 72
4, 102292, Control_c, 3, 1, 67
4, 102300, Control_c, 3, 1, 56
4, 102312, Control_c, 3, 1, 42
4, 102324, Control_c, 3, 1, 26
4, 102336, Note_on_c, 3, 67, 0
4, 102336, Control_c, 3, 1, 13
4, 102344, Control_c, 3, 1, 5
4, 102356, Control_c, 3, 1, 1
4, 102368, Control_c, 3, 1, 0
4, 102376, Control_c, 3, 1, 0
4, 102560, Note_on_c, 3, 72, 117
4, 102724, Note_on_c, 3, 72, 0
4, 102736, Pitch_bend_c, 3, 8802
4, 102748, Pitch_bend_c, 3, 6714
4, 102756, Pitch_bend_c, 3, 5878
4, 102768, Pitch_bend_c, 3, 5268
4, 102776, Pitch_bend_c, 3, 4850
4, 102788, Pitch_bend_c, 3, 4690
4, 102792, Note_on_c, 3, 69, 117
4, 102812, Pitch_bend_c, 3, 4786
4, 102824, Pitch_bend_c, 3, 4915
4, 102832, Pitch_bend_c, 3, 5140
4, 102844, Pitch_bend_c, 3, 5525
4, 102856, Pitch_bend_c, 3, 5911
4, 102864, Pitch_bend_c, 3, 6328
4, 102876, Pitch_bend_c, 3, 6874
4, 102888, Pitch_bend_c, 3, 7420
4, 102900, Pitch_bend_c, 3, 7902
4, 102912, Pitch_bend_c, 3, 8127
4, 102920, Pitch_bend_c, 3, 8192
4, 102984, Control_c, 3, 1, 0
4, 102996, Control_c, 3, 1, 20
4, 103008, Control_c, 3, 1, 47
4, 103016, Control_c, 3, 1, 68
4, 103028, Control_c, 3, 1, 83
4, 103040, Control_c, 3, 1, 94
4, 103048, Control_c, 3, 1, 105
4, 103060, Control_c, 3, 1, 116
4, 103072, Control_c, 3, 1, 122
4, 103080, Control_c, 3, 1, 125
4, 103092, Control_c, 3, 1, 127
4, 103104, Control_c, 3, 1, 127
4, 103188, Control_c, 3, 1, 127
4, 103196, Pitch_bend_c, 3, 8416
4, 103200, Control_c, 3, 1, 122
4, 103208, Pitch_bend_c, 3, 7517
4, 103212, Control_c, 3, 1, 113
4, 103220, Pitch_bend_c, 3, 7099
4, 103220, Control_c, 3, 1, 104
4, 103232, Pitch_bend_c, 3, 6939
4, 103232, Control_c, 3, 1, 95
4, 103244, Pitch_bend_c, 3, 6842
4, 103244, Control_c, 3, 1, 86
4, 103252, Pitch_bend_c, 3, 7003
4, 103256, Control_c, 3, 1, 60
4, 103264, Pitch_bend_c, 3, 7581
4, 103264, Control_c, 3, 1, 28
4, 103268, Note_on_c, 3, 69, 0
4, 103276, Pitch_bend_c, 3, 7967
4, 103276, Control_c, 3, 1, 13
4, 103288, Pitch_bend_c, 3, 8159
4, 103288, Control_c, 3, 1, 5
4, 103300, Pitch_bend_c, 3, 8192
4, 103300, Control_c, 3, 1, 1
4, 103312, Control_c, 3, 1, 0
4, 103320, Control_c, 3, 1, 0
4, 104236, Note_on_c, 3, 62, 85
4, 104340, Note_on_c, 3, 65, 85
4, 104360, Note_on_c, 3, 62, 0
4, 104404, Note_on_c, 3, 65, 0
4, 104456, Note_on_c, 3, 67, 117
4, 104600, Control_c, 3, 1, 0
4, 104612, Control_c, 3, 1, 9
4, 104624, Control_c, 3, 1, 29
4, 104632, Control_c, 3, 1, 52
4, 104644, Control_c, 3, 1, 70
4, 104656, Control_c, 3, 1, 84
4, 104664, Control_c, 3, 1, 92
4, 104676, Control_c, 3, 1, 95
4, 104688, Control_c, 3, 1, 93
4, 104700, Control_c, 3, 1, 85
4, 104708, Control_c, 3, 1, 70
4, 104720, Control_c, 3, 1, 46
4, 104732, Note_on_c, 3, 67, 0
4, 104732, Control_c, 3, 1, 22
4, 104732, Note_on_c, 3, 62, 113
4, 104744, Control_c, 3, 1, 9
4, 104752, Control_c, 3, 1, 3
4, 104764, Control_c, 3, 1, 0
4, 104776, Control_c, 3, 1, 0
4, 104840, Note_on_c, 3, 62, 0
4, 105840, Note_on_c, 3, 60, 60
4, 105944, Note_on_c, 3, 60, 0
4, 105976, Note_on_c, 3, 69, 102
4, 106164, Note_on_c, 3, 69, 0
4, 106236, Note_on_c, 3, 69, 85
4, 106300, Note_on_c, 3, 69, 0
4, 106376, Note_on_c, 3, 69, 123
4, 106520, Note_on_c, 3, 69, 0
4, 106624, Note_on_c, 3, 69, 77
4, 106676, Note_on_c, 3, 69, 0
4, 106772, Note_on_c, 3, 69, 121
4, 106896, Note_on_c, 3, 69, 0
4, 107000, Note_on_c, 3, 69, 95
4, 107064, Note_on_c, 3, 69, 0
4, 107148, Note_on_c, 3, 70, 115
4, 107344, Note_on_c, 3, 70, 0
4, 107368, Note_on_c, 3, 69, 95
4, 107452, Control_c, 3, 1, 1
4, 107460, Control_c, 3, 1, 5
4, 107472, Control_c, 3, 1, 10
4, 107484, Control_c, 3, 1, 20
4, 107496, Control_c, 3, 1, 34
4, 107504, Control_c, 3, 1, 48
4, 107516, Control_c, 3, 1, 59
4, 107528, Control_c, 3, 1, 67
4, 107536, Control_c, 3, 1, 73
4, 107548, Control_c, 3, 1, 75
4, 107560, Control_c, 3, 1, 77
4, 107572, Control_c, 3, 1, 79
4, 107580, Control_c, 3, 1, 81
4, 107592, Control_c, 3, 1, 87
4, 107604, Control_c, 3, 1, 93
4, 107612, Control_c, 3, 1, 100
4, 107624, Control_c, 3, 1, 106
4, 107636, Control_c, 3, 1, 111
4, 107644, Control_c, 3, 1, 113
4, 107656, Control_c, 3, 1, 116
4, 107668, Control_c, 3, 1, 117
4, 107680, Control_c, 3, 1, 118
4, 107712, Control_c, 3, 1, 117
4, 107720, Control_c, 3, 1, 115
4, 107732, Control_c, 3, 1, 111
4, 107736, Note_on_c, 3, 69, 0
4, 107744, Control_c, 3, 1, 99
4, 107756, Control_c, 3, 1, 73
4, 107768, Control_c, 3, 1, 36
4, 107780, Control_c, 3, 1, 17
4, 107788, Control_c, 3, 1, 7
4, 107800, Control_c, 3, 1, 2
4, 107812, Control_c, 3, 1, 0
4, 107820, Control_c, 3, 1, 0
4, 108672, Note_on_c, 3, 72, 121
4, 108888, Pitch_bend_c, 3, 8416
4, 108900, Pitch_bend_c, 3, 7453
4, 108904, Note_on_c, 3, 72, 0
4, 108912, Pitch_bend_c, 3, 6842
4, 108924, Pitch_bend_c, 3, 6328
4, 108936, Pitch_bend_c, 3, 5911
4, 108936, Note_on_c, 3, 69, 113
4, 108944, Pitch_bend_c, 3, 5750
4, 108956, Pitch_bend_c, 3, 5686
4, 108968, Pitch_bend_c, 3, 5878
4, 108980, Pitch_bend_c, 3, 6168
4, 108988, Pitch_bend_c, 3, 6489
4, 109000, Pitch_bend_c, 3, 6874
4, 109012, Pitch_bend_c, 3, 7356
4, 109024, Pitch_bend_c, 3, 7838
4, 109036, Pitch_bend_c, 3, 8127
4, 109044, Pitch_bend_c, 3, 8192
4, 109140, Control_c, 3, 1, 0
4, 109152, Control_c, 3, 1, 28
4, 109160, Control_c, 3, 1, 58
4, 109172, Control_c, 3, 1, 81
4, 109184, Control_c, 3, 1, 96
4, 109192, Control_c, 3, 1, 104
4, 109204, Control_c, 3, 1, 103
4, 109216, Control_c, 3, 1, 96
4, 109228, Control_c, 3, 1, 90
4, 109236, Control_c, 3, 1, 87
4, 109248, Control_c, 3, 1, 86
4, 109260, Control_c, 3, 1, 87
4, 109268, Control_c, 3, 1, 90
4, 109280, Control_c, 3, 1, 92
4, 109288, Control_c, 3, 1, 91
4, 109300, Control_c, 3, 1, 83
4, 109304, Note_on_c, 3, 69, 0
4, 109312, Control_c, 3, 1, 67
4, 109324, Control_c, 3, 1, 42
4, 109332, Control_c, 3, 1, 20
4, 109344, Control_c, 3, 1, 8
4, 109356, Control_c, 3, 1, 3
4, 109364, Control_c, 3, 1, 0
4, 109376, Control_c, 3, 1, 0
4, 110372, Note_on_c, 3, 62, 85
4, 110480, Note_on_c, 3, 65, 85
4, 110508, Note_on_c, 3, 62, 0
4, 110560, Note_on_c, 3, 65, 0
4, 110604, Note_on_c, 3, 67, 117
4, 110720, Control_c, 3, 1, 4
4, 110728, Control_c, 3, 1, 13
4, 110740, Control_c, 3, 1, 18
4, 110760, Control_c, 3, 1, 19
4, 110772, Control_c, 3, 1, 21
4, 110780, Control_c, 3, 1, 25
4, 110792, Control_c, 3, 1, 29
4, 110804, Control_c, 3, 1, 36
4, 110816, Control_c, 3, 1, 41
4, 110828, Control_c, 3, 1, 43
4, 110836, Control_c, 3, 1, 41
4, 110848, Control_c, 3, 1, 34
4, 110860, Control_c, 3, 1, 20
4, 110868, Control_c, 3, 1, 9
4, 110880, Control_c, 3, 1, 3
4, 110884, Note_on_c, 3, 62, 90
4, 110892, Control_c, 3, 1, 0
4, 110904, Note_on_c, 3, 67, 0
4, 110904, Control_c, 3, 1, 0
4, 110980, Note_on_c, 3, 62, 0
4, 111980, Note_on_c, 3, 60, 85
4, 112096, Note_on_c, 3, 60, 0
4, 112128, Note_on_c, 3, 69, 113
4, 112316, Note_on_c, 3, 69, 0
4, 112388, Note_on_c, 3, 69, 102
4, 112452, Note_on_c, 3, 69, 0
4, 112528, Note_on_c, 3, 69, 121
4, 112684, Note_on_c, 3, 69, 0
4, 112768, Note_on_c, 3, 69, 85
4, 112832, Note_on_c, 3, 69, 0
4, 112916, Note_on_c, 3, 69, 117
4, 113040, Note_on_c, 3, 69, 0
4, 113164, Note_on_c, 3, 69, 95
4, 113216, Note_on_c, 3, 69, 0
4, 113300, Note_on_c, 3, 70, 115
4, 113508, Control_c, 3, 1, 4
4, 113520, Control_c, 3, 1, 14
4, 113528, Control_c, 3, 1, 27
4, 113532, Note_on_c, 3, 69, 108
4, 113540, Control_c, 3, 1, 41
4, 113552, Note_on_c, 3, 70, 0
4, 113552, Control_c, 3, 1, 52
4, 113564, Control_c, 3, 1, 58
4, 113572, Control_c, 3, 1, 62
4, 113584, Control_c, 3, 1, 68
4, 113596, Control_c, 3, 1, 76
4, 113608, Control_c, 3, 1, 81
4, 113616, Control_c, 3, 1, 85
4, 113628, Control_c, 3, 1, 86
4, 113640, Control_c, 3, 1, 84
4, 113652, Control_c, 3, 1, 79
4, 113664, Note_on_c, 3, 69, 0
4, 113664, Control_c, 3, 1, 71
4, 113672, Control_c, 3, 1, 56
4, 113684, Control_c, 3, 1, 31
4, 113696, Control_c, 3, 1, 14
4, 113708, Control_c, 3, 1, 6
4, 113716, Control_c, 3, 1, 2
4, 113728, Control_c, 3, 1, 0
4, 113740, Control_c, 3, 1, 0
4, 114000, Pitch_bend_c, 3, 8224
4, 114008, Pitch_bend_c, 3, 8416
4, 114020, Pitch_bend_c, 3, 7677
4, 114032, Pitch_bend_c, 3, 7228
4, 114044, Pitch_bend_c, 3, 6714
4, 114052, Pitch_bend_c, 3, 6264
4, 114064, Pitch_bend_c, 3, 5750
4, 114064, Note_on_c, 3, 69, 113
4, 114076, Pitch_bend_c, 3, 5525
4, 114084, Pitch_bend_c, 3, 5364
4, 114108, Pitch_bend_c, 3, 5525
4, 114116, Pitch_bend_c, 3, 5814
4, 114128, Pitch_bend_c, 3, 6039
4, 114140, Pitch_bend_c, 3, 6264
4, 114152, Pitch_bend_c, 3, 6617
4, 114164, Pitch_bend_c, 3, 7003
4, 114172, Pitch_bend_c, 3, 7420
4, 114184, Pitch_bend_c, 3, 7742
4, 114196, Pitch_bend_c, 3, 8063
4, 114208, Pitch_bend_c, 3, 8192
4, 114300, Note_on_c, 3, 67, 108
4, 114332, Note_on_c, 3, 69, 0
4, 114456, Control_c, 3, 1, 4
4, 114468, Control_c, 3, 1, 13
4, 114480, Control_c, 3, 1, 23
4, 114488, Control_c, 3, 1, 34
4, 114500, Control_c, 3, 1, 45
4, 114508, Control_c, 3, 1, 57
4, 114520, Control_c, 3, 1, 68
4, 114532, Control_c, 3, 1, 78
4, 114540, Control_c, 3, 1, 87
4, 114552, Control_c, 3, 1, 96
4, 114564, Control_c, 3, 1, 104
4, 114572, Control_c, 3, 1, 111
4, 114576, Note_on_c, 3, 67, 0
4, 114584, Control_c, 3, 1, 118
4, 114596, Control_c, 3, 1, 123
4, 114608, Control_c, 3, 1, 126
4, 114616, Control_c, 3, 1, 127
4, 114688, Control_c, 3, 1, 126
4, 114700, Control_c, 3, 1, 123
4, 114712, Control_c, 3, 1, 118
4, 114720, Control_c, 3, 1, 101
4, 114732, Control_c, 3, 1, 65
4, 114744, Control_c, 3, 1, 31
4, 114752, Control_c, 3, 1, 14
4, 114764, Control_c, 3, 1, 6
4, 114776, Control_c, 3, 1, 2
4, 114784, Control_c, 3, 1, 0
4, 114796, Control_c, 3, 1, 0
4, 114808, Note_on_c, 3, 60, 108
4, 114924, Note_on_c, 3, 60, 0
4, 115060, Note_on_c, 3, 60, 95
4, 115144, Note_on_c, 3, 60, 0
4, 115184, Note_on_c, 3, 65, 117
4, 115404, Note_on_c, 3, 65, 0
4, 115456, Note_on_c, 3, 65, 81
4, 115532, Note_on_c, 3, 65, 0
4, 115592, Note_on_c, 3, 67, 117
4, 115792, Note_on_c, 3, 67, 0
4, 115956, Note_on_c, 3, 69, 121
4, 116052, Control_c, 3, 1, 10
4, 116060, Control_c, 3, 1, 37
4, 116072, Control_c, 3, 1, 58
4, 116084, Control_c, 3, 1, 71
4, 116092, Control_c, 3, 1, 78
4, 116104, Control_c, 3, 1, 81
4, 116116, Control_c, 3, 1, 83
4, 116128, Control_c, 3, 1, 84
4, 116132, Note_on_c, 3, 69, 0
4, 116140, Control_c, 3, 1, 85
4, 116148, Control_c, 3, 1, 88
4, 116160, Control_c, 3, 1, 92
4, 116172, Control_c, 3, 1, 97
4, 116180, Control_c, 3, 1, 102
4, 116192, Control_c, 3, 1, 104
4, 116212, Control_c, 3, 1, 101
4, 116224, Control_c, 3, 1, 94
4, 116236, Control_c, 3, 1, 88
4, 116248, Control_c, 3, 1, 85
4, 116256, Control_c, 3, 1, 82
4, 116268, Control_c, 3, 1, 72
4, 116276, Control_c, 3, 1, 49
4, 116288, Control_c, 3, 1, 23
4, 116300, Control_c, 3, 1, 10
4, 116308, Control_c, 3, 1, 4
4, 116320, Control_c, 3, 1, 1
4, 116332, Control_c, 3, 1, 0
4, 116340, Control_c, 3, 1, 0
4, 116608, Note_on_c, 3, 62, 77
4, 116700, Note_on_c, 3, 62, 0
4, 116732, Note_on_c, 3, 65, 95
4, 116952, Note_on_c, 3, 65, 0
4, 117116, Note_on_c, 3, 65, 121
4, 117148, Control_c, 3, 1, 7
4, 117160, Control_c, 3, 1, 29
4, 117172, Control_c, 3, 1, 47
4, 117180, Control_c, 3, 1, 59
4, 117192, Control_c, 3, 1, 67
4, 117204, Control_c, 3, 1, 70
4, 117212, Control_c, 3, 1, 72
4, 117224, Control_c, 3, 1, 69
4, 117236, Control_c, 3, 1, 55
4, 117248, Control_c, 3, 1, 34
4, 117256, Control_c, 3, 1, 15
4, 117268, Control_c, 3, 1, 6
4, 117280, Control_c, 3, 1, 2
4, 117288, Control_c, 3, 1, 0
4, 117300, Control_c, 3, 1, 0
4, 117344, Note_on_c, 3, 65, 0
4, 117496, Note_on_c, 3, 62, 108
4, 117628, Control_c, 3, 1, 2
4, 117636, Control_c, 3, 1, 4
4, 117648, Control_c, 3, 1, 5
4, 117660, Control_c, 3, 1, 8
4, 117668, Control_c, 3, 1, 10
4, 117680, Control_c, 3, 1, 15
4, 117692, Control_c, 3, 1, 22
4, 117700, Control_c, 3, 1, 30
4, 117712, Control_c, 3, 1, 35
4, 117732, Control_c, 3, 1, 31
4, 117744, Control_c, 3, 1, 25
4, 117752, Control_c, 3, 1, 16
4, 117764, Control_c, 3, 1, 7
4, 117768, Note_on_c, 3, 65, 95
4, 117776, Control_c, 3, 1, 2
4, 117788, Control_c, 3, 1, 0
4, 117796, Control_c, 3, 1, 0
4, 117808, Note_on_c, 3, 62, 0
4, 117852, Note_on_c, 3, 65, 0
4, 117904, Note_on_c, 3, 69, 117
4, 117988, Note_on_c, 3, 69, 0
4, 118136, Note_on_c, 3, 69, 117
4, 118208, Note_on_c, 3, 69, 0
4, 118208, Pitch_bend_c, 3, 8416
4, 118220, Pitch_bend_c, 3, 7356
4, 118232, Pitch_bend_c, 3, 6778
4, 118240, Pitch_bend_c, 3, 6232
4, 118252, Pitch_bend_c, 3, 5686
4, 118264, Pitch_bend_c, 3, 5364
4, 118272, Pitch_bend_c, 3, 5204
4, 118284, Pitch_bend_c, 3, 5140
4, 118296, Note_on_c, 3, 72, 113
4, 118308, Pitch_bend_c, 3, 5332
4, 118316, Pitch_bend_c, 3, 5878
4, 118328, Pitch_bend_c, 3, 6649
4, 118340, Pitch_bend_c, 3, 7517
4, 118352, Pitch_bend_c, 3, 7967
4, 118364, Pitch_bend_c, 3, 8159
4, 118372, Pitch_bend_c, 3, 8192
4, 118520, Note_on_c, 3, 69, 72
4, 118560, Note_on_c, 3, 72, 0
4, 118584, Note_on_c, 3, 69, 0
4, 118656, Note_on_c, 3, 69, 95
4, 118792, Note_on_c, 3, 69, 0
4, 118924, Control_c, 3, 1, 0
4, 118928, Note_on_c, 3, 72, 108
4, 118936, Control_c, 3, 1, 15
4, 118948, Control_c, 3, 1, 47
4, 118960, Control_c, 3, 1, 73
4, 118972, Control_c, 3, 1, 90
4, 118980, Control_c, 3, 1, 101
4, 118992, Control_c, 3, 1, 107
4, 119004, Control_c, 3, 1, 109
4, 119024, Control_c, 3, 1, 108
4, 119088, Control_c, 3, 1, 107
4, 119100, Control_c, 3, 1, 106
4, 119120, Control_c, 3, 1, 105
4, 119132, Control_c, 3, 1, 104
4, 119140, Control_c, 3, 1, 101
4, 119152, Control_c, 3, 1, 96
4, 119164, Control_c, 3, 1, 90
4, 119172, Control_c, 3, 1, 83
4, 119184, Control_c, 3, 1, 73
4, 119196, Control_c, 3, 1, 61
4, 119204, Control_c, 3, 1, 46
4, 119216, Control_c, 3, 1, 29
4, 119228, Control_c, 3, 1, 14
4, 119240, Control_c, 3, 1, 6
4, 119248, Control_c, 3, 1, 2
4, 119260, Control_c, 3, 1, 0
4, 119272, Control_c, 3, 1, 0
4, 119292, Note_on_c, 3, 69, 81
4, 119344, Note_on_c, 3, 72, 0
4, 119428, Note_on_c, 3, 67, 108
4, 119472, Note_on_c, 3, 69, 0
4, 119556, Note_on_c, 3, 67, 0
4, 119700, Note_on_c, 3, 62, 67
4, 119760, Note_on_c, 3, 62, 0
4, 119824, Note_on_c, 3, 65, 102
4, 120024, Note_on_c, 3, 65, 0
4, 120196, Note_on_c, 3, 65, 113
4, 120416, Note_on_c, 3, 65, 0
4, 120584, Note_on_c, 3, 65, 113
4, 120600, Control_c, 3, 1, 2
4, 120612, Control_c, 3, 1, 14
4, 120624, Control_c, 3, 1, 27
4, 120636, Control_c, 3, 1, 33
4, 120648, Control_c, 3, 1, 29
4, 120656, Control_c, 3, 1, 20
4, 120668, Control_c, 3, 1, 9
4, 120680, Control_c, 3, 1, 3
4, 120692, Control_c, 3, 1, 0
4, 120700, Control_c, 3, 1, 0
4, 120804, Note_on_c, 3, 65, 0
4, 120960, Control_c, 3, 1, 10
4, 120972, Control_c, 3, 1, 36
4, 120980, Control_c, 3, 1, 59
4, 120984, Note_on_c, 3, 65, 108
4, 120992, Control_c, 3, 1, 77
4, 121004, Control_c, 3, 1, 89
4, 121016, Control_c, 3, 1, 93
4, 121024, Control_c, 3, 1, 91
4, 121036, Control_c, 3, 1, 84
4, 121048, Control_c, 3, 1, 70
4, 121060, Control_c, 3, 1, 48
4, 121072, Control_c, 3, 1, 24
4, 121080, Control_c, 3, 1, 11
4, 121092, Control_c, 3, 1, 4
4, 121104, Control_c, 3, 1, 1
4, 121112, Control_c, 3, 1, 0
4, 121124, Control_c, 3, 1, 0
4, 121188, Note_on_c, 3, 65, 0
4, 121300, Control_c, 3, 1, 8
4, 121312, Control_c, 3, 1, 31
4, 121320, Control_c, 3, 1, 54
4, 121332, Control_c, 3, 1, 71
4, 121344, Control_c, 3, 1, 81
4, 121344, Note_on_c, 3, 65, 113
4, 121352, Control_c, 3, 1, 85
4, 121364, Control_c, 3, 1, 76
4, 121376, Control_c, 3, 1, 53
4, 121388, Control_c, 3, 1, 26
4, 121400, Control_c, 3, 1, 12
4, 121408, Control_c, 3, 1, 5
4, 121420, Control_c, 3, 1, 1
4, 121432, Control_c, 3, 1, 0
4, 121444, Control_c, 3, 1, 0
4, 121576, Note_on_c, 3, 65, 0
4, 121728, Note_on_c, 3, 65, 113
4, 121960, Note_on_c, 3, 65, 0
4, 122092, Control_c, 3, 1, 0
4, 122104, Control_c, 3, 1, 8
4, 122112, Note_on_c, 3, 65, 113
4, 122112, Control_c, 3, 1, 23
4, 122124, Control_c, 3, 1, 46
4, 122136, Control_c, 3, 1, 66
4, 122148, Control_c, 3, 1, 82
4, 122156, Control_c, 3, 1, 95
4, 122168, Control_c, 3, 1, 106
4, 122180, Control_c, 3, 1, 112
4, 122188, Control_c, 3, 1, 117
4, 122200, Control_c, 3, 1, 118
4, 122220, Control_c, 3, 1, 114
4, 122232, Control_c, 3, 1, 109
4, 122244, Control_c, 3, 1, 101
4, 122252, Control_c, 3, 1, 88
4, 122264, Control_c, 3, 1, 63
4, 122276, Control_c, 3, 1, 33
4, 122284, Control_c, 3, 1, 15
4, 122296, Control_c, 3, 1, 6
4, 122308, Control_c, 3, 1, 2
4, 122316, Control_c, 3, 1, 0
4, 122328, Control_c, 3, 1, 0
4, 122344, Note_on_c, 3, 65, 0
4, 141312, Note_on_c, 3, 67, 121
4, 141448, Control_c, 3, 1, 0
4, 141460, Control_c, 3, 1, 4
4, 141468, Control_c, 3, 1, 8
4, 141480, Control_c, 3, 1, 14
4, 141488, Control_c, 3, 1, 20
4, 141500, Control_c, 3, 1, 24
4, 141512, Control_c, 3, 1, 28
4, 141520, Control_c, 3, 1, 31
4, 141532, Control_c, 3, 1, 35
4, 141544, Control_c, 3, 1, 39
4, 141552, Control_c, 3, 1, 44
4, 141564, Control_c, 3, 1, 50
4, 141576, Control_c, 3, 1, 56
4, 141584, Control_c, 3, 1, 61
4, 141596, Control_c, 3, 1, 64
4, 141608, Control_c, 3, 1, 68
4, 141616, Control_c, 3, 1, 69
4, 141640, Control_c, 3, 1, 68
4, 141648, Control_c, 3, 1, 67
4, 141660, Control_c, 3, 1, 66
4, 141672, Control_c, 3, 1, 64
4, 141680, Control_c, 3, 1, 62
4, 141692, Control_c, 3, 1, 61
4, 141744, Control_c, 3, 1, 62
4, 141756, Control_c, 3, 1, 63
4, 141764, Control_c, 3, 1, 64
4, 141776, Control_c, 3, 1, 66
4, 141788, Control_c, 3, 1, 67
4, 141796, Control_c, 3, 1, 68
4, 141808, Control_c, 3, 1, 70
4, 141820, Control_c, 3, 1, 71
4, 141832, Note_on_c, 3, 67, 0
4, 141832, Control_c, 3, 1, 72
4, 141860, Control_c, 3, 1, 70
4, 141872, Control_c, 3, 1, 65
4, 141884, Control_c, 3, 1, 53
4, 141892, Control_c, 3, 1, 30
4, 141904, Control_c, 3, 1, 13
4, 141916, Control_c, 3, 1, 5
4, 141924, Control_c, 3, 1, 1
4, 141928, Note_on_c, 3, 69, 90
4, 141940, Control_c, 3, 1, 0
4, 141948, Control_c, 3, 1, 0
4, 142404, Pitch_bend_c, 3, 8224
4, 142412, Pitch_bend_c, 3, 7613
4, 142424, Pitch_bend_c, 3, 6778
4, 142428, Note_on_c, 3, 69, 0
4, 142436, Pitch_bend_c, 3, 5686
4, 142448, Pitch_bend_c, 3, 4915
4, 142460, Pitch_bend_c, 3, 4465
4, 142468, Pitch_bend_c, 3, 4304
4, 142480, Pitch_bend_c, 3, 4240
4, 142480, Note_on_c, 3, 72, 121
4, 142492, Pitch_bend_c, 3, 4465
4, 142500, Pitch_bend_c, 3, 4786
4, 142512, Pitch_bend_c, 3, 5429
4, 142524, Pitch_bend_c, 3, 6489
4, 142536, Pitch_bend_c, 3, 7453
4, 142548, Pitch_bend_c, 3, 7902
4, 142556, Pitch_bend_c, 3, 8127
4, 142568, Pitch_bend_c, 3, 8192
4, 142632, Note_on_c, 3, 72, 0
4, 142676, Pitch_bend_c, 3, 8481
4, 142684, Pitch_bend_c, 3, 7035
4, 142696, Pitch_bend_c, 3, 6264
4, 142708, Pitch_bend_c, 3, 5750
4, 142716, Pitch_bend_c, 3, 5493
4, 142728, Pitch_bend_c, 3, 5332
4, 142732, Note_on_c, 3, 72, 108
4, 142740, Pitch_bend_c, 3, 5268
4, 142752, Pitch_bend_c, 3, 5332
4, 142760, Pitch_bend_c, 3, 5654
4, 142772, Pitch_bend_c, 3, 6264
4, 142784, Pitch_bend_c, 3, 7292
4, 142796, Pitch_bend_c, 3, 7838
4, 142804, Pitch_bend_c, 3, 8127
4, 142816, Pitch_bend_c, 3, 8192
4, 142840, Control_c, 3, 1, 1
4, 142852, Control_c, 3, 1, 7
4, 142860, Control_c, 3, 1, 10
4, 142872, Control_c, 3, 1, 12
4, 142884, Control_c, 3, 1, 13
4, 142892, Control_c, 3, 1, 14
4, 142904, Control_c, 3, 1, 18
4, 142916, Control_c, 3, 1, 24
4, 142924, Control_c, 3, 1, 29
4, 142936, Control_c, 3, 1, 34
4, 142948, Control_c, 3, 1, 36
4, 142960, Control_c, 3, 1, 37
4, 142968, Control_c, 3, 1, 39
4, 142980, Control_c, 3, 1, 42
4, 142992, Control_c, 3, 1, 44
4, 143000, Control_c, 3, 1, 45
4, 143012, Control_c, 3, 1, 46
4, 143024, Control_c, 3, 1, 48
4, 143032, Control_c, 3, 1, 51
4, 143044, Control_c, 3, 1, 56
4, 143056, Control_c, 3, 1, 61
4, 143064, Control_c, 3, 1, 66
4, 143088, Control_c, 3, 1, 56
4, 143096, Control_c, 3, 1, 34
4, 143108, Control_c, 3, 1, 15
4, 143120, Control_c, 3, 1, 6
4, 143120, Note_on_c, 3, 70, 98
4, 143132, Control_c, 3, 1, 2
4, 143140, Control_c, 3, 1, 0
4, 143152, Control_c, 3, 1, 0
4, 143164, Note_on_c, 3, 72, 0
4, 143236, Note_on_c, 3, 70, 0
4, 143256, Note_on_c, 3, 69, 77
4, 143424, Note_on_c, 3, 69, 0
4, 143468, Note_on_c, 3, 67, 95
4, 143644, Control_c, 3, 1, 0
4, 143656, Control_c, 3, 1, 3
4, 143664, Control_c, 3, 1, 10
4, 143676, Control_c, 3, 1, 21
4, 143684, Control_c, 3, 1, 33
4, 143696, Control_c, 3, 1, 43
4, 143708, Control_c, 3, 1, 52
4, 143720, Control_c, 3, 1, 58
4, 143728, Control_c, 3, 1, 60
4, 143752, Control_c, 3, 1, 59
4, 143760, Control_c, 3, 1, 58
4, 143772, Control_c, 3, 1, 57
4, 143792, Control_c, 3, 1, 56
4, 143804, Control_c, 3, 1, 53
4, 143812, Control_c, 3, 1, 47
4, 143824, Control_c, 3, 1, 38
4, 143836, Control_c, 3, 1, 23
4, 143848, Control_c, 3, 1, 10
4, 143856, Control_c, 3, 1, 4
4, 143868, Control_c, 3, 1, 1
4, 143868, Note_on_c, 3, 69, 95
4, 143880, Control_c, 3, 1, 0
4, 143888, Control_c, 3, 1, 0
4, 143892, Note_on_c, 3, 67, 0
4, 144120, Control_c, 3, 1, 1
4, 144128, Control_c, 3, 1, 10
4, 144140, Control_c, 3, 1, 20
4, 144152, Note_on_c, 3, 69, 0
4, 144152, Control_c, 3, 1, 27
4, 144172, Control_c, 3, 1, 20
4, 144184, Control_c, 3, 1, 9
4, 144196, Control_c, 3, 1, 3
4, 144204, Control_c, 3, 1, 0
4, 144216, Control_c, 3, 1, 0
4, 144384, Pitch_bend_c, 3, 8224
4, 144392, Pitch_bend_c, 3, 8256
4, 144404, Pitch_bend_c, 3, 7967
4, 144412, Pitch_bend_c, 3, 7774
4, 144416, Note_on_c, 3, 67, 108
4, 144424, Pitch_bend_c, 3, 7677
4, 144436, Pitch_bend_c, 3, 7742
4, 144448, Pitch_bend_c, 3, 7999
4, 144460, Pitch_bend_c, 3, 8159
4, 144468, Pitch_bend_c, 3, 8192
4, 144680, Control_c, 3, 1, 3
4, 144688, Control_c, 3, 1, 7
4, 144700, Control_c, 3, 1, 9
4, 144712, Control_c, 3, 1, 11
4, 144732, Control_c, 3, 1, 10
4, 144744, Control_c, 3, 1, 8
4, 144752, Control_c, 3, 1, 5
4, 144764, Control_c, 3, 1, 3
4, 144776, Control_c, 3, 1, 2
4, 144796, Control_c, 3, 1, 4
4, 144804, Control_c, 3, 1, 9
4, 144816, Control_c, 3, 1, 16
4, 144828, Control_c, 3, 1, 25
4, 144840, Control_c, 3, 1, 34
4, 144848, Control_c, 3, 1, 40
4, 144860, Control_c, 3, 1, 45
4, 144872, Control_c, 3, 1, 50
4, 144880, Control_c, 3, 1, 54
4, 144892, Control_c, 3, 1, 57
4, 144904, Control_c, 3, 1, 59
4, 144912, Control_c, 3, 1, 60
4, 144932, Control_c, 3, 1, 58
4, 144944, Control_c, 3, 1, 53
4, 144956, Control_c, 3, 1, 46
4, 144964, Control_c, 3, 1, 35
4, 144976, Control_c, 3, 1, 21
4, 144988, Control_c, 3, 1, 9
4, 144996, Control_c, 3, 1, 3
4, 145008, Control_c, 3, 1, 0
4, 145020, Control_c, 3, 1, 0
4, 145020, Note_on_c, 3, 69, 113
4, 145064, Note_on_c, 3, 67, 0
4, 145292, Control_c, 3, 1, 10
4, 145300, Control_c, 3, 1, 30
4, 145312, Control_c, 3, 1, 46
4, 145324, Control_c, 3, 1, 55
4, 145332, Control_c, 3, 1, 57
4, 145364, Control_c, 3, 1, 59
4, 145376, Control_c, 3, 1, 61
4, 145384, Control_c, 3, 1, 66
4, 145396, Control_c, 3, 1, 71
4, 145408, Control_c, 3, 1, 77
4, 145416, Control_c, 3, 1, 85
4, 145428, Control_c, 3, 1, 90
4, 145440, Control_c, 3, 1, 94
4, 145460, Control_c, 3, 1, 92
4, 145468, Control_c, 3, 1, 87
4, 145480, Control_c, 3, 1, 76
4, 145492, Control_c, 3, 1, 55
4, 145500, Control_c, 3, 1, 28
4, 145516, Control_c, 3, 1, 13
4, 145524, Note_on_c, 3, 69, 0
4, 145524, Control_c, 3, 1, 5
4, 145536, Control_c, 3, 1, 1
4, 145548, Control_c, 3, 1, 0
4, 145556, Control_c, 3, 1, 0
4, 145560, Note_on_c, 3, 72, 108
4, 145664, Note_on_c, 3, 72, 0
4, 145808, Note_on_c, 3, 72, 102
4, 145872, Control_c, 3, 1, 5
4, 145884, Control_c, 3, 1, 20
4, 145896, Control_c, 3, 1, 32
4, 145908, Control_c, 3, 1, 37
4, 145920, Control_c, 3, 1, 35
4, 145928, Control_c, 3, 1, 34
4, 145940, Control_c, 3, 1, 35
4, 145952, Control_c, 3, 1, 37
4, 145964, Control_c, 3, 1, 41
4, 145972, Control_c, 3, 1, 48
4, 145984, Control_c, 3, 1, 58
4, 145996, Control_c, 3, 1, 66
4, 146004, Control_c, 3, 1, 72
4, 146016, Control_c, 3, 1, 76
4, 146028, Control_c, 3, 1, 79
4, 146036, Control_c, 3, 1, 80
4, 146048, Control_c, 3, 1, 82
4, 146060, Control_c, 3, 1, 85
4, 146068, Control_c, 3, 1, 88
4, 146080, Control_c, 3, 1, 91
4, 146092, Control_c, 3, 1, 94
4, 146100, Control_c, 3, 1, 95
4, 146144, Control_c, 3, 1, 93
4, 146152, Control_c, 3, 1, 90
4, 146164, Control_c, 3, 1, 86
4, 146176, Control_c, 3, 1, 77
4, 146176, Note_on_c, 3, 70, 98
4, 146184, Control_c, 3, 1, 62
4, 146196, Control_c, 3, 1, 38
4, 146208, Control_c, 3, 1, 18
4, 146220, Note_on_c, 3, 72, 0
4, 146220, Control_c, 3, 1, 8
4, 146232, Control_c, 3, 1, 3
4, 146240, Control_c, 3, 1, 0
4, 146252, Control_c, 3, 1, 0
4, 146336, Note_on_c, 3, 69, 77
4, 146368, Note_on_c, 3, 70, 0
4, 146472, Note_on_c, 3, 69, 0
4, 146568, Note_on_c, 3, 69, 95
4, 146680, Pitch_bend_c, 3, 8545
4, 146692, Pitch_bend_c, 3, 9348
4, 146704, Pitch_bend_c, 3, 10312
4, 146716, Pitch_bend_c, 3, 11372
4, 146724, Pitch_bend_c, 3, 12079
4, 146736, Pitch_bend_c, 3, 12304
4, 146748, Pitch_bend_c, 3, 11918
4, 146756, Pitch_bend_c, 3, 10729
4, 146768, Pitch_bend_c, 3, 9380
4, 146780, Pitch_bend_c, 3, 8706
4, 146788, Pitch_bend_c, 3, 8384
4, 146792, Control_c, 3, 1, 6
4, 146804, Pitch_bend_c, 3, 8224
4, 146804, Control_c, 3, 1, 3
4, 146812, Pitch_bend_c, 3, 8192
4, 146816, Control_c, 3, 1, 0
4, 146824, Control_c, 3, 1, 0
4, 146992, Note_on_c, 3, 67, 60
4, 147012, Note_on_c, 3, 69, 0
4, 147148, Control_c, 3, 1, 13
4, 147160, Control_c, 3, 1, 38
4, 147168, Control_c, 3, 1, 59
4, 147180, Control_c, 3, 1, 76
4, 147192, Control_c, 3, 1, 88
4, 147200, Control_c, 3, 1, 97
4, 147212, Control_c, 3, 1, 106
4, 147224, Control_c, 3, 1, 113
4, 147232, Control_c, 3, 1, 120
4, 147244, Control_c, 3, 1, 124
4, 147252, Control_c, 3, 1, 126
4, 147264, Control_c, 3, 1, 127
4, 147276, Control_c, 3, 1, 126
4, 147284, Control_c, 3, 1, 119
4, 147288, Note_on_c, 3, 65, 64
4, 147296, Control_c, 3, 1, 106
4, 147308, Control_c, 3, 1, 78
4, 147320, Note_on_c, 3, 67, 0
4, 147320, Control_c, 3, 1, 41
4, 147332, Control_c, 3, 1, 19
4, 147340, Control_c, 3, 1, 8
4, 147352, Control_c, 3, 1, 3
4, 147364, Note_on_c, 3, 65, 0
4, 147364, Control_c, 3, 1, 0
4, 147376, Control_c, 3, 1, 0
4, 147404, Pitch_bend_c, 3, 8224
4, 147416, Pitch_bend_c, 3, 8545
4, 147424, Pitch_bend_c, 3, 7356
4, 147436, Pitch_bend_c, 3, 6939
4, 147448, Pitch_bend_c, 3, 6714
4, 147456, Pitch_bend_c, 3, 6649
4, 147468, Pitch_bend_c, 3, 6842
4, 147468, Note_on_c, 3, 67, 121
4, 147480, Pitch_bend_c, 3, 7196
4, 147492, Pitch_bend_c, 3, 7677
4, 147500, Pitch_bend_c, 3, 7999
4, 147512, Pitch_bend_c, 3, 8159
4, 147524, Pitch_bend_c, 3, 8192
4, 147928, Control_c, 3, 1, 1
4, 147940, Control_c, 3, 1, 6
4, 147952, Control_c, 3, 1, 15
4, 147960, Control_c, 3, 1, 27
4, 147972, Control_c, 3, 1, 38
4, 147980, Control_c, 3, 1, 45
4, 147992, Control_c, 3, 1, 50
4, 148004, Control_c, 3, 1, 53
4, 148024, Control_c, 3, 1, 51
4, 148036, Control_c, 3, 1, 47
4, 148048, Control_c, 3, 1, 40
4, 148056, Note_on_c, 3, 67, 0
4, 148056, Control_c, 3, 1, 27
4, 148068, Control_c, 3, 1, 13
4, 148080, Control_c, 3, 1, 5
4, 148080, Note_on_c, 3, 69, 108
4, 148092, Control_c, 3, 1, 1
4, 148104, Control_c, 3, 1, 0
4, 148112, Control_c, 3, 1, 0
4, 148428, Note_on_c, 3, 69, 0
4, 148548, Pitch_bend_c, 3, 8320
4, 148560, Pitch_bend_c, 3, 7742
4, 148568, Pitch_bend_c, 3, 7356
4, 148580, Pitch_bend_c, 3, 7003
4, 148592, Pitch_bend_c, 3, 6842
4, 148604, Pitch_bend_c, 3, 6778
4, 148604, Note_on_c, 3, 72, 125
4, 148616, Pitch_bend_c, 3, 6874
4, 148624, Pitch_bend_c, 3, 7228
4, 148636, Pitch_bend_c, 3, 7774
4, 148648, Pitch_bend_c, 3, 8063
4, 148660, Pitch_bend_c, 3, 8192
4, 148764, Note_on_c, 3, 72, 0
4, 148784, Pitch_bend_c, 3, 8224
4, 148796, Pitch_bend_c, 3, 7838
4, 148808, Pitch_bend_c, 3, 7356
4, 148816, Pitch_bend_c, 3, 6874
4, 148828, Pitch_bend_c, 3, 6553
4, 148840, Pitch_bend_c, 3, 6264
4, 148848, Pitch_bend_c, 3, 5975
4, 148860, Pitch_bend_c, 3, 5814
4, 148864, Note_on_c, 3, 72, 121
4, 148872, Pitch_bend_c, 3, 5686
4, 148880, Pitch_bend_c, 3, 5654
4, 148896, Pitch_bend_c, 3, 5750
4, 148904, Pitch_bend_c, 3, 6071
4, 148916, Pitch_bend_c, 3, 6778
4, 148928, Pitch_bend_c, 3, 7581
4, 148940, Pitch_bend_c, 3, 7967
4, 148948, Pitch_bend_c, 3, 8159
4, 148960, Pitch_bend_c, 3, 8192
4, 149140, Control_c, 3, 1, 0
4, 149148, Control_c, 3, 1, 5
4, 149160, Control_c, 3, 1, 13
4, 149168, Control_c, 3, 1, 25
4, 149180, Control_c, 3, 1, 35
4, 149192, Control_c, 3, 1, 41
4, 149204, Control_c, 3, 1, 43
4, 149212, Control_c, 3, 1, 41
4, 149224, Control_c, 3, 1, 34
4, 149236, Control_c, 3, 1, 21
4, 149244, Control_c, 3, 1, 9
4, 149256, Control_c, 3, 1, 3
4, 149260, Note_on_c, 3, 70, 98
4, 149268, Control_c, 3, 1, 0
4, 149276, Control_c, 3, 1, 0
4, 149300, Note_on_c, 3, 72, 0
4, 149384, Note_on_c, 3, 70, 0
4, 149396, Note_on_c, 3, 69, 81
4, 149560, Note_on_c, 3, 69, 0
4, 149624, Note_on_c, 3, 67, 95
4, 149832, Control_c, 3, 1, 12
4, 149844, Control_c, 3, 1, 36
4, 149852, Control_c, 3, 1, 55
4, 149864, Control_c, 3, 1, 67
4, 149876, Control_c, 3, 1, 73
4, 149896, Control_c, 3, 1, 72
4, 149908, Control_c, 3, 1, 71
4, 149928, Control_c, 3, 1, 72
4, 149940, Control_c, 3, 1, 74
4, 149948, Control_c, 3, 1, 75
4, 149960, Control_c, 3, 1, 76
4, 149980, Control_c, 3, 1, 74
4, 149992, Control_c, 3, 1, 70
4, 150004, Control_c, 3, 1, 64
4, 150012, Control_c, 3, 1, 52
4, 150024, Control_c, 3, 1, 34
4, 150036, Control_c, 3, 1, 15
4, 150036, Note_on_c, 3, 69, 108
4, 150044, Control_c, 3, 1, 6
4, 150056, Control_c, 3, 1, 2
4, 150060, Note_on_c, 3, 67, 0
4, 150068, Control_c, 3, 1, 0
4, 150080, Control_c, 3, 1, 0
4, 150188, Note_on_c, 3, 69, 0
4, 150392, Pitch_bend_c, 3, 8320
4, 150404, Pitch_bend_c, 3, 7517
4, 150412, Pitch_bend_c, 3, 6778
4, 150424, Pitch_bend_c, 3, 5975
4, 150436, Pitch_bend_c, 3, 5332
4, 150444, Pitch_bend_c, 3, 4850
4, 150456, Pitch_bend_c, 3, 4561
4, 150468, Pitch_bend_c, 3, 4465
4, 150476, Pitch_bend_c, 3, 4369
4, 150488, Pitch_bend_c, 3, 4401
4, 150500, Pitch_bend_c, 3, 4529
4, 150508, Pitch_bend_c, 3, 4722
4, 150512, Note_on_c, 3, 67, 121
4, 150524, Pitch_bend_c, 3, 5429
4, 150532, Pitch_bend_c, 3, 6264
4, 150544, Pitch_bend_c, 3, 7196
4, 150556, Pitch_bend_c, 3, 7774
4, 150568, Pitch_bend_c, 3, 8063
4, 150576, Pitch_bend_c, 3, 8192
4, 151064, Note_on_c, 3, 67, 0
4, 151168, Note_on_c, 3, 69, 90
4, 151540, Note_on_c, 3, 69, 0
4, 151708, Note_on_c, 3, 69, 117
4, 151864, Pitch_bend_c, 3, 8224
4, 151872, Pitch_bend_c, 3, 8770
4, 151876, Note_on_c, 3, 69, 0
4, 151884, Pitch_bend_c, 3, 6778
4, 151896, Pitch_bend_c, 3, 5750
4, 151904, Pitch_bend_c, 3, 4561
4, 151916, Pitch_bend_c, 3, 3405
4, 151928, Pitch_bend_c, 3, 2473
4, 151936, Pitch_bend_c, 3, 1927
4, 151948, Pitch_bend_c, 3, 1638
4, 151960, Pitch_bend_c, 3, 1574
4, 151960, Note_on_c, 3, 74, 117
4, 151972, Pitch_bend_c, 3, 1638
4, 151984, Pitch_bend_c, 3, 1927
4, 151992, Pitch_bend_c, 3, 2473
4, 152004, Pitch_bend_c, 3, 3565
4, 152016, Pitch_bend_c, 3, 5493
4, 152028, Pitch_bend_c, 3, 6939
4, 152036, Pitch_bend_c, 3, 7677
4, 152048, Pitch_bend_c, 3, 7999
4, 152060, Pitch_bend_c, 3, 8127
4, 152072, Pitch_bend_c, 3, 8192
4, 152272, Note_on_c, 3, 74, 0
4, 152316, Note_on_c, 3, 69, 113
4, 152432, Note_on_c, 3, 69, 0
4, 152484, Note_on_c, 3, 67, 95
4, 152600, Note_on_c, 3, 67, 0
4, 152720, Pitch_bend_c, 3, 8481
4, 152732, Pitch_bend_c, 3, 7099
4, 152744, Pitch_bend_c, 3, 5975
4, 152744, Note_on_c, 3, 67, 121
4, 152752, Pitch_bend_c, 3, 5011
4, 152764, Pitch_bend_c, 3, 4626
4, 152776, Pitch_bend_c, 3, 5140
4, 152788, Pitch_bend_c, 3, 6489
4, 152800, Pitch_bend_c, 3, 7453
4, 152812, Pitch_bend_c, 3, 7774
4, 152820, Pitch_bend_c, 3, 7581
4, 152832, Pitch_bend_c, 3, 7228
4, 152844, Pitch_bend_c, 3, 9348
4, 152852, Pitch_bend_c, 3, 9284
4, 152864, Pitch_bend_c, 3, 9091
4, 152876, Pitch_bend_c, 3, 8866
4, 152888, Pitch_bend_c, 3, 8609
4, 152896, Pitch_bend_c, 3, 8320
4, 152908, Pitch_bend_c, 3, 8192
4, 153064, Control_c, 3, 1, 11
4, 153076, Control_c, 3, 1, 47
4, 153084, Control_c, 3, 1, 78
4, 153096, Control_c, 3, 1, 98
4, 153108, Control_c, 3, 1, 111
4, 153116, Control_c, 3, 1, 118
4, 153128, Control_c, 3, 1, 122
4, 153140, Control_c, 3, 1, 123
4, 153160, Control_c, 3, 1, 124
4, 153172, Control_c, 3, 1, 126
4, 153184, Control_c, 3, 1, 127
4, 153308, Control_c, 3, 1, 126
4, 153316, Control_c, 3, 1, 122
4, 153328, Note_on_c, 3, 67, 0
4, 153328, Control_c, 3, 1, 110
4, 153340, Control_c, 3, 1, 86
4, 153348, Control_c, 3, 1, 45
4, 153360, Control_c, 3, 1, 21
4, 153372, Control_c, 3, 1, 9
4, 153384, Control_c, 3, 1, 3
4, 153392, Control_c, 3, 1, 0
4, 153404, Control_c, 3, 1, 0
4, 153504, Pitch_bend_c, 3, 8320
4, 153516, Pitch_bend_c, 3, 7292
4, 153528, Pitch_bend_c, 3, 6328
4, 153536, Pitch_bend_c, 3, 5332
4, 153548, Pitch_bend_c, 3, 4529
4, 153560, Pitch_bend_c, 3, 4015
4, 153568, Pitch_bend_c, 3, 3790
4, 153580, Pitch_bend_c, 3, 3662
4, 153592, Pitch_bend_c, 3, 3726
4, 153600, Pitch_bend_c, 3, 3887
4, 153604, Note_on_c, 3, 74, 121
4, 153616, Pitch_bend_c, 3, 4176
4, 153624, Pitch_bend_c, 3, 4561
4, 153636, Pitch_bend_c, 3, 5364
4, 153648, Pitch_bend_c, 3, 6392
4, 153660, Pitch_bend_c, 3, 7356
4, 153668, Pitch_bend_c, 3, 7838
4, 153680, Pitch_bend_c, 3, 8127
4, 153692, Pitch_bend_c, 3, 8192
4, 153816, Control_c, 3, 1, 2
4, 153828, Control_c, 3, 1, 11
4, 153840, Control_c, 3, 1, 26
4, 153848, Control_c, 3, 1, 43
4, 153860, Control_c, 3, 1, 57
4, 153872, Control_c, 3, 1, 67
4, 153880, Control_c, 3, 1, 73
4, 153892, Control_c, 3, 1, 74
4, 153904, Control_c, 3, 1, 72
4, 153912, Control_c, 3, 1, 66
4, 153924, Control_c, 3, 1, 53
4, 153932, Control_c, 3, 1, 32
4, 153944, Control_c, 3, 1, 15
4, 153956, Control_c, 3, 1, 6
4, 153964, Control_c, 3, 1, 2
4, 153976, Control_c, 3, 1, 0
4, 153980, Note_on_c, 3, 69, 72
4, 153988, Control_c, 3, 1, 0
4, 154000, Note_on_c, 3, 74, 0
4, 154188, Note_on_c, 3, 69, 0
4, 154228, Note_on_c, 3, 72, 117
4, 154312, Note_on_c, 3, 72, 0
4, 154384, Control_c, 3, 1, 1
4, 154396, Control_c, 3, 1, 2
4, 154408, Control_c, 3, 1, 1
4, 154420, Control_c, 3, 1, 0
4, 154428, Control_c, 3, 1, 0
4, 154636, Note_on_c, 3, 74, 113
4, 154780, Control_c, 3, 1, 18
4, 154792, Control_c, 3, 1, 46
4, 154804, Control_c, 3, 1, 67
4, 154812, Control_c, 3, 1, 80
4, 154824, Control_c, 3, 1, 88
4, 154836, Control_c, 3, 1, 90
4, 154844, Control_c, 3, 1, 87
4, 154856, Control_c, 3, 1, 80
4, 154868, Control_c, 3, 1, 72
4, 154876, Control_c, 3, 1, 62
4, 154888, Control_c, 3, 1, 57
4, 154900, Control_c, 3, 1, 56
4, 154912, Control_c, 3, 1, 57
4, 154920, Control_c, 3, 1, 59
4, 154932, Control_c, 3, 1, 61
4, 154940, Control_c, 3, 1, 62
4, 154952, Control_c, 3, 1, 61
4, 154964, Control_c, 3, 1, 54
4, 154972, Control_c, 3, 1, 38
4, 154984, Control_c, 3, 1, 20
4, 154996, Control_c, 3, 1, 8
4, 155004, Control_c, 3, 1, 3
4, 155008, Note_on_c, 3, 74, 0
4, 155020, Control_c, 3, 1, 0
4, 155028, Control_c, 3, 1, 0
4, 155060, Pitch_bend_c, 3, 8320
4, 155068, Pitch_bend_c, 3, 7228
4, 155080, Pitch_bend_c, 3, 5911
4, 155092, Pitch_bend_c, 3, 4690
4, 155100, Pitch_bend_c, 3, 3887
4, 155112, Pitch_bend_c, 3, 3437
4, 155124, Pitch_bend_c, 3, 3276
4, 155136, Pitch_bend_c, 3, 3405
4, 155144, Pitch_bend_c, 3, 3726
4, 155156, Pitch_bend_c, 3, 4304
4, 155168, Pitch_bend_c, 3, 4850
4, 155168, Note_on_c, 3, 74, 121
4, 155180, Pitch_bend_c, 3, 5493
4, 155188, Pitch_bend_c, 3, 5975
4, 155200, Pitch_bend_c, 3, 6617
4, 155212, Pitch_bend_c, 3, 7292
4, 155224, Pitch_bend_c, 3, 7838
4, 155236, Pitch_bend_c, 3, 8127
4, 155244, Pitch_bend_c, 3, 8192
4, 155352, Control_c, 3, 1, 3
4, 155360, Control_c, 3, 1, 30
4, 155372, Control_c, 3, 1, 57
4, 155384, Control_c, 3, 1, 78
4, 155392, Control_c, 3, 1, 94
4, 155404, Control_c, 3, 1, 106
4, 155416, Control_c, 3, 1, 113
4, 155424, Control_c, 3, 1, 118
4, 155436, Control_c, 3, 1, 120
4, 155468, Control_c, 3, 1, 119
4, 155476, Control_c, 3, 1, 117
4, 155488, Control_c, 3, 1, 113
4, 155500, Control_c, 3, 1, 108
4, 155508, Control_c, 3, 1, 100
4, 155520, Control_c, 3, 1, 83
4, 155532, Note_on_c, 3, 74, 0
4, 155532, Control_c, 3, 1, 49
4, 155532, Note_on_c, 3, 69, 77
4, 155544, Control_c, 3, 1, 23
4, 155556, Control_c, 3, 1, 10
4, 155564, Control_c, 3, 1, 4
4, 155576, Control_c, 3, 1, 1
4, 155588, Control_c, 3, 1, 0
4, 155596, Control_c, 3, 1, 0
4, 155672, Note_on_c, 3, 69, 0
4, 155788, Note_on_c, 3, 72, 117
4, 155904, Note_on_c, 3, 72, 0
4, 156172, Note_on_c, 3, 74, 121
4, 156296, Control_c, 3, 1, 0
4, 156308, Control_c, 3, 1, 6
4, 156316, Control_c, 3, 1, 12
4, 156328, Control_c, 3, 1, 19
4, 156340, Control_c, 3, 1, 24
4, 156348, Control_c, 3, 1, 32
4, 156360, Control_c, 3, 1, 44
4, 156368, Control_c, 3, 1, 59
4, 156380, Control_c, 3, 1, 73
4, 156392, Control_c, 3, 1, 84
4, 156400, Control_c, 3, 1, 92
4, 156412, Control_c, 3, 1, 99
4, 156424, Control_c, 3, 1, 103
4, 156436, Control_c, 3, 1, 106
4, 156448, Control_c, 3, 1, 107
4, 156456, Control_c, 3, 1, 109
4, 156468, Control_c, 3, 1, 111
4, 156476, Control_c, 3, 1, 114
4, 156488, Control_c, 3, 1, 117
4, 156496, Pitch_bend_c, 3, 8802
4, 156500, Control_c, 3, 1, 120
4, 156508, Pitch_bend_c, 3, 6714
4, 156508, Control_c, 3, 1, 122
4, 156516, Pitch_bend_c, 3, 5878
4, 156520, Control_c, 3, 1, 123
4, 156528, Pitch_bend_c, 3, 5268
4, 156532, Control_c, 3, 1, 124
4, 156536, Pitch_bend_c, 3, 4850
4, 156540, Control_c, 3, 1, 125
4, 156548, Pitch_bend_c, 3, 4690
4, 156564, Control_c, 3, 1, 126
4, 156572, Pitch_bend_c, 3, 4786
4, 156572, Control_c, 3, 1, 127
4, 156584, Pitch_bend_c, 3, 4915
4, 156592, Pitch_bend_c, 3, 5140
4, 156604, Pitch_bend_c, 3, 5525
4, 156616, Pitch_bend_c, 3, 5911
4, 156624, Pitch_bend_c, 3, 6328
4, 156628, Note_on_c, 3, 74, 0
4, 156636, Control_c, 3, 1, 126
4, 156636, Pitch_bend_c, 3, 6874
4, 156648, Control_c, 3, 1, 123
4, 156648, Pitch_bend_c, 3, 7420
4, 156648, Note_on_c, 3, 74, 40
4, 156660, Note_on_c, 3, 74, 0
4, 156660, Control_c, 3, 1, 117
4, 156660, Pitch_bend_c, 3, 7902
4, 156672, Control_c, 3, 1, 107
4, 156672, Pitch_bend_c, 3, 8127
4, 156680, Control_c, 3, 1, 88
4, 156680, Pitch_bend_c, 3, 8192
4, 156692, Control_c, 3, 1, 47
4, 156704, Control_c, 3, 1, 22
4, 156712, Control_c, 3, 1, 10
4, 156724, Control_c, 3, 1, 4
4, 156732, Control_c, 3, 1, 1
4, 156744, Control_c, 3, 1, 0
4, 156756, Control_c, 3, 1, 20
4, 156768, Control_c, 3, 1, 47
4, 156776, Control_c, 3, 1, 68
4, 156788, Control_c, 3, 1, 83
4, 156800, Control_c, 3, 1, 94
4, 156808, Control_c, 3, 1, 105
4, 156820, Control_c, 3, 1, 116
4, 156832, Control_c, 3, 1, 122
4, 156840, Control_c, 3, 1, 125
4, 156852, Control_c, 3, 1, 127
4, 156864, Control_c, 3, 1, 127
4, 156948, Control_c, 3, 1, 127
4, 156956, Pitch_bend_c, 3, 8416
4, 156960, Control_c, 3, 1, 122
4, 156968, Pitch_bend_c, 3, 7517
4, 156972, Control_c, 3, 1, 113
4, 156980, Pitch_bend_c, 3, 7099
4, 156980, Control_c, 3, 1, 104
4, 156992, Pitch_bend_c, 3, 6939
4, 156992, Control_c, 3, 1, 95
4, 157004, Pitch_bend_c, 3, 6842
4, 157004, Control_c, 3, 1, 86
4, 157012, Pitch_bend_c, 3, 7003
4, 157016, Control_c, 3, 1, 60
4, 157024, Pitch_bend_c, 3, 7581
4, 157024, Control_c, 3, 1, 28
4, 157036, Pitch_bend_c, 3, 7967
4, 157036, Control_c, 3, 1, 13
4, 157048, Pitch_bend_c, 3, 8159
4, 157048, Control_c, 3, 1, 5
4, 157060, Pitch_bend_c, 3, 8192
4, 157060, Control_c, 3, 1, 1
4, 157072, Control_c, 3, 1, 0
4, 157080, Control_c, 3, 1, 0
4, 157996, Note_on_c, 3, 62, 85
4, 158100, Note_on_c, 3, 65, 85
4, 158120, Note_on_c, 3, 62, 0
4, 158164, Note_on_c, 3, 65, 0
4, 158216, Note_on_c, 3, 67, 117
4, 158360, Control_c, 3, 1, 0
4, 158372, Control_c, 3, 1, 9
4, 158384, Control_c, 3, 1, 29
4, 158392, Control_c, 3, 1, 52
4, 158404, Control_c, 3, 1, 70
4, 158416, Control_c, 3, 1, 84
4, 158424, Control_c, 3, 1, 92
4, 158436, Control_c, 3, 1, 95
4, 158448, Control_c, 3, 1, 93
4, 158460, Control_c, 3, 1, 85
4, 158468, Control_c, 3, 1, 70
4, 158480, Control_c, 3, 1, 46
4, 158492, Note_on_c, 3, 67, 0
4, 158492, Control_c, 3, 1, 22
4, 158492, Note_on_c, 3, 62, 113
4, 158504, Control_c, 3, 1, 9
4, 158512, Control_c, 3, 1, 3
4, 158524, Control_c, 3, 1, 0
4, 158536, Control_c, 3, 1, 0
4, 158600, Note_on_c, 3, 62, 0
4, 159600, Note_on_c, 3, 60, 60
4, 159704, Note_on_c, 3, 60, 0
4, 159736, Note_on_c, 3, 69, 102
4, 159924, Note_on_c, 3, 69, 0
4, 159996, Note_on_c, 3, 69, 85
4, 160060, Note_on_c, 3, 69, 0
4, 160136, Note_on_c, 3, 69, 123
4, 160280, Note_on_c, 3, 69, 0
4, 160384, Note_on_c, 3, 69, 77
4, 160436, Note_on_c, 3, 69, 0
4, 160532, Note_on_c, 3, 69, 121
4, 160656, Note_on_c, 3, 69, 0
4, 160760, Note_on_c, 3, 69, 95
4, 160824, Note_on_c, 3, 69, 0
4, 160908, Note_on_c, 3, 70, 115
4, 161104, Note_on_c, 3, 70, 0
4, 161128, Note_on_c, 3, 69, 95
4, 161212, Control_c, 3, 1, 1
4, 161220, Control_c, 3, 1, 5
4, 161232, Control_c, 3, 1, 10
4, 161244, Control_c, 3, 1, 20
4, 161256, Control_c, 3, 1, 34
4, 161264, Control_c, 3, 1, 48
4, 161276, Control_c, 3, 1, 59
4, 161288, Control_c, 3, 1, 67
4, 161296, Control_c, 3, 1, 73
4, 161308, Control_c, 3, 1, 75
4, 161320, Control_c, 3, 1, 77
4, 161332, Control_c, 3, 1, 79
4, 161340, Control_c, 3, 1, 81
4, 161352, Control_c, 3, 1, 87
4, 161364, Control_c, 3, 1, 93
4, 161372, Control_c, 3, 1, 100
4, 161384, Control_c, 3, 1, 106
4, 161396, Control_c, 3, 1, 111
4, 161404, Control_c, 3, 1, 113
4, 161416, Control_c, 3, 1, 116
4, 161428, Control_c, 3, 1, 117
4, 161440, Control_c, 3, 1, 118
4, 161472, Control_c, 3, 1, 117
4, 161480, Control_c, 3, 1, 115
4, 161492, Control_c, 3, 1, 111
4, 161496, Note_on_c, 3, 69, 0
4, 161504, Control_c, 3, 1, 99
4, 161516, Control_c, 3, 1, 73
4, 161528, Control_c, 3, 1, 36
4, 161540, Control_c, 3, 1, 17
4, 161548, Control_c, 3, 1, 7
4, 161560, Control_c, 3, 1, 2
4, 161572, Control_c, 3, 1, 0
4, 161580, Control_c, 3, 1, 0
4, 162432, Note_on_c, 3, 72, 121
4, 162648, Pitch_bend_c, 3, 8416
4, 162660, Pitch_bend_c, 3, 7453
4, 162664, Note_on_c, 3, 72, 0
4, 162672, Pitch_bend_c, 3, 6842
4, 162684, Pitch_bend_c, 3, 6328
4, 162696, Pitch_bend_c, 3, 5911
4, 162696, Note_on_c, 3, 69, 113
4, 162704, Pitch_bend_c, 3, 5750
4, 162716, Pitch_bend_c, 3, 5686
4, 162728, Pitch_bend_c, 3, 5878
4, 162740, Pitch_bend_c, 3, 6168
4, 162748, Pitch_bend_c, 3, 6489
4, 162760, Pitch_bend_c, 3, 6874
4, 162772, Pitch_bend_c, 3, 7356
4, 162784, Pitch_bend_c, 3, 7838
4, 162796, Pitch_bend_c, 3, 8127
4, 162804, Pitch_bend_c, 3, 8192
4, 162900, Control_c, 3, 1, 0
4, 162912, Control_c, 3, 1, 28
4, 162920, Control_c, 3, 1, 58
4, 162932, Control_c, 3, 1, 81
4, 162944, Control_c, 3, 1, 96
4, 162952, Control_c, 3, 1, 104
4, 162964, Control_c, 3, 1, 103
4, 162976, Control_c, 3, 1, 96
4, 162988, Control_c, 3, 1, 90
4, 162996, Control_c, 3, 1, 87
4, 163008, Control_c, 3, 1, 86
4, 163020, Control_c, 3, 1, 87
4, 163028, Control_c, 3, 1, 90
4, 163040, Control_c, 3, 1, 92
4, 163048, Control_c, 3, 1, 91
4, 163060, Control_c, 3, 1, 83
4, 163064, Note_on_c, 3, 69, 0
4, 163072, Control_c, 3, 1, 67
4, 163084, Control_c, 3, 1, 42
4, 163092, Control_c, 3, 1, 20
4, 163104, Control_c, 3, 1, 8
4, 163116, Control_c, 3, 1, 3
4, 163124, Control_c, 3, 1, 0
4, 163136, Control_c, 3, 1, 0
4, 164132, Note_on_c, 3, 62, 85
4, 164240, Note_on_c, 3, 65, 85
4, 164268, Note_on_c, 3, 62, 0
4, 164320, Note_on_c, 3, 65, 0
4, 164364, Note_on_c, 3, 67, 117
4, 164480, Control_c, 3, 1, 4
4, 164488, Control_c, 3, 1, 13
4, 164500, Control_c, 3, 1, 18
4, 164520, Control_c, 3, 1, 19
4, 164532, Control_c, 3, 1, 21
4, 164540, Control_c, 3, 1, 25
4, 164552, Control_c, 3, 1, 29
4, 164564, Control_c, 3, 1, 36
4, 164576, Control_c, 3, 1, 41
4, 164588, Control_c, 3, 1, 43
4, 164596, Control_c, 3, 1, 41
4, 164608, Control_c, 3, 1, 34
4, 164620, Control_c, 3, 1, 20
4, 164628, Control_c, 3, 1, 9
4, 164640, Control_c, 3, 1, 3
4, 164644, Note_on_c, 3, 62, 90
4, 164652, Control_c, 3, 1, 0
4, 164664, Note_on_c, 3, 67, 0
4, 164664, Control_c, 3, 1, 0
4, 164740, Note_on_c, 3, 62, 0
4, 165740, Note_on_c, 3, 60, 85
4, 165856, Note_on_c, 3, 60, 0
4, 165888, Note_on_c, 3, 69, 113
4, 166076, Note_on_c, 3, 69, 0
4, 166148, Note_on_c, 3, 69, 102
4, 166212, Note_on_c, 3, 69, 0
4, 166288, Note_on_c, 3, 69, 121
4, 166444, Note_on_c, 3, 69, 0
4, 166528, Note_on_c, 3, 69, 85
4, 166592, Note_on_c, 3, 69, 0
4, 166676, Note_on_c, 3, 69, 117
4, 166800, Note_on_c, 3, 69, 0
4, 166924, Note_on_c, 3, 69, 95
4, 166976, Note_on_c, 3, 69, 0
4, 167060, Note_on_c, 3, 70, 115
4, 167268, Control_c, 3, 1, 4
4, 167280, Control_c, 3, 1, 14
4, 167288, Control_c, 3, 1, 27
4, 167292, Note_on_c, 3, 69, 108
4, 167300, Control_c, 3, 1, 41
4, 167312, Note_on_c, 3, 70, 0
4, 167312, Control_c, 3, 1, 52
4, 167324, Control_c, 3, 1, 58
4, 167332, Control_c, 3, 1, 62
4, 167344, Control_c, 3, 1, 68
4, 167356, Control_c, 3, 1, 76
4, 167368, Control_c, 3, 1, 81
4, 167376, Control_c, 3, 1, 85
4, 167388, Control_c, 3, 1, 86
4, 167400, Control_c, 3, 1, 84
4, 167412, Control_c, 3, 1, 79
4, 167424, Note_on_c, 3, 69, 0
4, 167424, Control_c, 3, 1, 71
4, 167432, Control_c, 3, 1, 56
4, 167444, Control_c, 3, 1, 31
4, 167456, Control_c, 3, 1, 14
4, 167468, Control_c, 3, 1, 6
4, 167476, Control_c, 3, 1, 2
4, 167488, Control_c, 3, 1, 0
4, 167500, Control_c, 3, 1, 0
4, 168468, Note_on_c, 3, 60, 121
4, 168596, Note_on_c, 3, 60, 0
4, 168844, Note_on_c, 3, 60, 108
4, 168928, Note_on_c, 3, 60, 0
4, 168948, Note_on_c, 3, 69, 117
4, 169052, Control_c, 3, 1, 0
4, 169064, Control_c, 3, 1, 8
4, 169076, Control_c, 3, 1, 22
4, 169088, Control_c, 3, 1, 34
4, 169096, Control_c, 3, 1, 38
4, 169120, Control_c, 3, 1, 35
4, 169132, Control_c, 3, 1, 33
4, 169152, Note_on_c, 3, 69, 0
4, 169152, Control_c, 3, 1, 35
4, 169164, Control_c, 3, 1, 37
4, 169172, Control_c, 3, 1, 38
4, 169196, Control_c, 3, 1, 36
4, 169204, Control_c, 3, 1, 33
4, 169208, Note_on_c, 3, 69, 65
4, 169220, Control_c, 3, 1, 29
4, 169248, Control_c, 3, 1, 30
4, 169272, Control_c, 3, 1, 26
4, 169280, Control_c, 3, 1, 20
4, 169292, Control_c, 3, 1, 12
4, 169304, Control_c, 3, 1, 5
4, 169316, Control_c, 3, 1, 1
4, 169320, Note_on_c, 3, 69, 0
4, 169328, Control_c, 3, 1, 0
4, 169340, Control_c, 3, 1, 0
4, 169340, Note_on_c, 3, 67, 117
4, 169520, Note_on_c, 3, 67, 0
4, 169612, Note_on_c, 3, 69, 121
4, 169748, Note_on_c, 3, 69, 0
4, 170304, Pitch_bend_c, 3, 8481
4, 170312, Pitch_bend_c, 3, 7517
4, 170324, Pitch_bend_c, 3, 7035
4, 170336, Pitch_bend_c, 3, 6649
4, 170348, Pitch_bend_c, 3, 6457
4, 170348, Note_on_c, 3, 69, 117
4, 170368, Pitch_bend_c, 3, 6649
4, 170380, Pitch_bend_c, 3, 7099
4, 170392, Pitch_bend_c, 3, 7677
4, 170404, Pitch_bend_c, 3, 7999
4, 170412, Pitch_bend_c, 3, 8159
4, 170424, Pitch_bend_c, 3, 8192
4, 170652, Control_c, 3, 1, 1
4, 170664, Control_c, 3, 1, 10
4, 170676, Control_c, 3, 1, 24
4, 170688, Control_c, 3, 1, 38
4, 170696, Control_c, 3, 1, 48
4, 170708, Control_c, 3, 1, 54
4, 170720, Control_c, 3, 1, 59
4, 170732, Control_c, 3, 1, 63
4, 170740, Control_c, 3, 1, 71
4, 170752, Control_c, 3, 1, 81
4, 170764, Control_c, 3, 1, 91
4, 170772, Control_c, 3, 1, 99
4, 170784, Control_c, 3, 1, 104
4, 170796, Control_c, 3, 1, 107
4, 170816, Control_c, 3, 1, 106
4, 170828, Control_c, 3, 1, 103
4, 170840, Control_c, 3, 1, 96
4, 170848, Control_c, 3, 1, 83
4, 170860, Control_c, 3, 1, 57
4, 170872, Control_c, 3, 1, 27
4, 170872, Note_on_c, 3, 67, 117
4, 170884, Control_c, 3, 1, 12
4, 170892, Control_c, 3, 1, 5
4, 170904, Note_on_c, 3, 69, 0
4, 170904, Control_c, 3, 1, 1
4, 170916, Control_c, 3, 1, 0
4, 170928, Control_c, 3, 1, 0
4, 171072, Note_on_c, 3, 67, 0
4, 171148, Note_on_c, 3, 69, 117
4, 171292, Note_on_c, 3, 69, 0
4, 171524, Note_on_c, 3, 72, 113
4, 171640, Note_on_c, 3, 72, 0
4, 171908, Note_on_c, 3, 72, 85
4, 171936, Pitch_bend_c, 3, 8256
4, 171948, Pitch_bend_c, 3, 7838
4, 171960, Pitch_bend_c, 3, 7613
4, 171972, Pitch_bend_c, 3, 7356
4, 171980, Pitch_bend_c, 3, 7035
4, 171992, Pitch_bend_c, 3, 6874
4, 171996, Note_on_c, 3, 72, 0
4, 172012, Pitch_bend_c, 3, 7035
4, 172024, Pitch_bend_c, 3, 7420
4, 172028, Note_on_c, 3, 69, 113
4, 172036, Pitch_bend_c, 3, 7838
4, 172048, Pitch_bend_c, 3, 8127
4, 172060, Pitch_bend_c, 3, 8192
4, 172080, Control_c, 3, 1, 8
4, 172092, Control_c, 3, 1, 24
4, 172104, Control_c, 3, 1, 40
4, 172112, Control_c, 3, 1, 48
4, 172136, Control_c, 3, 1, 40
4, 172148, Control_c, 3, 1, 28
4, 172160, Control_c, 3, 1, 17
4, 172168, Control_c, 3, 1, 10
4, 172180, Control_c, 3, 1, 7
4, 172200, Control_c, 3, 1, 9
4, 172212, Control_c, 3, 1, 11
4, 172224, Control_c, 3, 1, 13
4, 172244, Control_c, 3, 1, 10
4, 172256, Control_c, 3, 1, 8
4, 172268, Control_c, 3, 1, 6
4, 172300, Control_c, 3, 1, 7
4, 172308, Control_c, 3, 1, 11
4, 172320, Control_c, 3, 1, 13
4, 172344, Control_c, 3, 1, 10
4, 172352, Control_c, 3, 1, 5
4, 172364, Control_c, 3, 1, 1
4, 172376, Control_c, 3, 1, 0
4, 172384, Control_c, 3, 1, 0
4, 172400, Note_on_c, 3, 69, 0
4, 172408, Note_on_c, 3, 67, 113
4, 172568, Note_on_c, 3, 67, 0
4, 172692, Note_on_c, 3, 69, 121
4, 172840, Note_on_c, 3, 69, 0
4, 173384, Pitch_bend_c, 3, 8320
4, 173392, Pitch_bend_c, 3, 7902
4, 173404, Pitch_bend_c, 3, 7742
4, 173416, Pitch_bend_c, 3, 7613
4, 173428, Pitch_bend_c, 3, 7517
4, 173440, Pitch_bend_c, 3, 7453
4, 173440, Note_on_c, 3, 60, 85
4, 173468, Pitch_bend_c, 3, 7581
4, 173480, Pitch_bend_c, 3, 7902
4, 173492, Pitch_bend_c, 3, 8127
4, 173500, Pitch_bend_c, 3, 8192
4, 173524, Note_on_c, 3, 60, 0
4, 173588, Note_on_c, 3, 69, 108
4, 173820, Note_on_c, 3, 60, 60
4, 173840, Note_on_c, 3, 69, 0
4, 173892, Note_on_c, 3, 60, 0
4, 173964, Note_on_c, 3, 67, 117
4, 174204, Note_on_c, 3, 67, 0
4, 174340, Note_on_c, 3, 65, 117
4, 174400, Control_c, 3, 1, 1
4, 174412, Control_c, 3, 1, 8
4, 174424, Control_c, 3, 1, 16
4, 174436, Control_c, 3, 1, 25
4, 174448, Control_c, 3, 1, 37
4, 174456, Control_c, 3, 1, 47
4, 174468, Control_c, 3, 1, 56
4, 174480, Control_c, 3, 1, 60
4, 174488, Control_c, 3, 1, 57
4, 174500, Control_c, 3, 1, 48
4, 174508, Control_c, 3, 1, 38
4, 174520, Control_c, 3, 1, 29
4, 174532, Control_c, 3, 1, 26
4, 174544, Control_c, 3, 1, 27
4, 174552, Control_c, 3, 1, 33
4, 174564, Control_c, 3, 1, 42
4, 174576, Control_c, 3, 1, 51
4, 174584, Control_c, 3, 1, 59
4, 174596, Control_c, 3, 1, 66
4, 174608, Control_c, 3, 1, 70
4, 174616, Control_c, 3, 1, 72
4, 174628, Control_c, 3, 1, 74
4, 174640, Control_c, 3, 1, 76
4, 174648, Control_c, 3, 1, 79
4, 174660, Control_c, 3, 1, 83
4, 174672, Control_c, 3, 1, 86
4, 174680, Control_c, 3, 1, 87
4, 174684, Note_on_c, 3, 65, 0
4, 174692, Control_c, 3, 1, 83
4, 174704, Control_c, 3, 1, 70
4, 174712, Control_c, 3, 1, 45
4, 174724, Control_c, 3, 1, 22
4, 174736, Control_c, 3, 1, 9
4, 174736, Note_on_c, 3, 60, 108
4, 174748, Control_c, 3, 1, 3
4, 174756, Control_c, 3, 1, 0
4, 174768, Control_c, 3, 1, 0
4, 174836, Note_on_c, 3, 60, 0
4, 174980, Note_on_c, 3, 60, 81
4, 175052, Note_on_c, 3, 60, 0
4, 175104, Note_on_c, 3, 69, 113
4, 175300, Control_c, 3, 1, 1
4, 175312, Note_on_c, 3, 69, 0
4, 175312, Control_c, 3, 1, 6
4, 175324, Control_c, 3, 1, 10
4, 175336, Control_c, 3, 1, 12
4, 175356, Note_on_c, 3, 69, 59
4, 175376, Control_c, 3, 1, 14
4, 175388, Control_c, 3, 1, 15
4, 175400, Control_c, 3, 1, 17
4, 175420, Control_c, 3, 1, 12
4, 175432, Control_c, 3, 1, 7
4, 175444, Control_c, 3, 1, 2
4, 175452, Control_c, 3, 1, 0
4, 175464, Control_c, 3, 1, 0
4, 175468, Note_on_c, 3, 69, 0
4, 175488, Note_on_c, 3, 67, 113
4, 175636, Note_on_c, 3, 67, 0
4, 175740, Note_on_c, 3, 69, 121
4, 175896, Note_on_c, 3, 69, 0
4, 176504, Note_on_c, 3, 69, 55
4, 176524, Note_on_c, 3, 69, 0
4, 176640, Note_on_c, 3, 69, 117
4, 176680, Control_c, 3, 1, 0
4, 176688, Control_c, 3, 1, 10
4, 176700, Control_c, 3, 1, 30
4, 176712, Control_c, 3, 1, 46
4, 176724, Control_c, 3, 1, 59
4, 176736, Control_c, 3, 1, 68
4, 176744, Control_c, 3, 1, 73
4, 176768, Control_c, 3, 1, 69
4, 176776, Control_c, 3, 1, 57
4, 176788, Control_c, 3, 1, 41
4, 176800, Control_c, 3, 1, 24
4, 176808, Control_c, 3, 1, 10
4, 176820, Control_c, 3, 1, 4
4, 176832, Control_c, 3, 1, 1
4, 176844, Control_c, 3, 1, 0
4, 176852, Control_c, 3, 1, 0
4, 176896, Note_on_c, 3, 69, 0
4, 177044, Note_on_c, 3, 69, 117
4, 177072, Control_c, 3, 1, 5
4, 177084, Control_c, 3, 1, 23
4, 177096, Control_c, 3, 1, 37
4, 177104, Control_c, 3, 1, 43
4, 177116, Control_c, 3, 1, 40
4, 177128, Control_c, 3, 1, 31
4, 177140, Control_c, 3, 1, 19
4, 177152, Control_c, 3, 1, 8
4, 177160, Control_c, 3, 1, 3
4, 177172, Control_c, 3, 1, 0
4, 177184, Control_c, 3, 1, 0
4, 177288, Note_on_c, 3, 69, 0
4, 177412, Note_on_c, 3, 67, 117
4, 177664, Note_on_c, 3, 69, 95
4, 177716, Note_on_c, 3, 67, 0
4, 177748, Note_on_c, 3, 69, 0
4, 177788, Note_on_c, 3, 72, 102
4, 177928, Note_on_c, 3, 72, 0
4, 177956, Pitch_bend_c, 3, 8224
4, 177968, Pitch_bend_c, 3, 7838
4, 177976, Pitch_bend_c, 3, 7453
4, 177988, Pitch_bend_c, 3, 7035
4, 178000, Pitch_bend_c, 3, 6842
4, 178008, Pitch_bend_c, 3, 6778
4, 178032, Pitch_bend_c, 3, 7003
4, 178040, Pitch_bend_c, 3, 7356
4, 178044, Note_on_c, 3, 69, 113
4, 178052, Pitch_bend_c, 3, 7774
4, 178064, Pitch_bend_c, 3, 8063
4, 178076, Pitch_bend_c, 3, 8192
4, 178232, Control_c, 3, 1, 0
4, 178244, Control_c, 3, 1, 4
4, 178256, Control_c, 3, 1, 12
4, 178264, Control_c, 3, 1, 22
4, 178276, Control_c, 3, 1, 33
4, 178288, Control_c, 3, 1, 42
4, 178296, Control_c, 3, 1, 50
4, 178308, Control_c, 3, 1, 54
4, 178320, Control_c, 3, 1, 55
4, 178364, Control_c, 3, 1, 56
4, 178372, Control_c, 3, 1, 58
4, 178384, Control_c, 3, 1, 61
4, 178392, Control_c, 3, 1, 66
4, 178404, Control_c, 3, 1, 71
4, 178416, Control_c, 3, 1, 75
4, 178428, Control_c, 3, 1, 79
4, 178436, Control_c, 3, 1, 82
4, 178448, Control_c, 3, 1, 85
4, 178460, Control_c, 3, 1, 87
4, 178472, Control_c, 3, 1, 88
4, 178492, Control_c, 3, 1, 87
4, 178504, Control_c, 3, 1, 84
4, 178512, Control_c, 3, 1, 76
4, 178524, Control_c, 3, 1, 61
4, 178528, Note_on_c, 3, 69, 0
4, 178536, Control_c, 3, 1, 33
4, 178548, Control_c, 3, 1, 15
4, 178556, Control_c, 3, 1, 6
4, 178560, Note_on_c, 3, 67, 117
4, 178568, Control_c, 3, 1, 2
4, 178580, Control_c, 3, 1, 0
4, 178588, Control_c, 3, 1, 0
4, 178736, Note_on_c, 3, 67, 0
4, 178800, Note_on_c, 3, 69, 113
4, 178988, Note_on_c, 3, 69, 0
4, 179556, Pitch_bend_c, 3, 8384
4, 179564, Pitch_bend_c, 3, 7677
4, 179576, Pitch_bend_c, 3, 7228
4, 179576, Note_on_c, 3, 60, 95
4, 179588, Pitch_bend_c, 3, 6842
4, 179600, Pitch_bend_c, 3, 6617
4, 179608, Pitch_bend_c, 3, 6553
4, 179620, Pitch_bend_c, 3, 6714
4, 179632, Pitch_bend_c, 3, 7196
4, 179644, Pitch_bend_c, 3, 7677
4, 179652, Pitch_bend_c, 3, 7999
4, 179664, Pitch_bend_c, 3, 8159
4, 179676, Pitch_bend_c, 3, 8192
4, 179688, Note_on_c, 3, 60, 0
4, 179708, Note_on_c, 3, 69, 113
4, 179972, Note_on_c, 3, 69, 0
4, 180096, Note_on_c, 3, 67, 113
4, 180360, Note_on_c, 3, 67, 0
4, 180484, Note_on_c, 3, 65, 113
4, 180648, Control_c, 3, 1, 0
4, 180660, Control_c, 3, 1, 1
4, 180668, Control_c, 3, 1, 5
4, 180680, Control_c, 3, 1, 13
4, 180692, Control_c, 3, 1, 27
4, 180700, Control_c, 3, 1, 43
4, 180712, Control_c, 3, 1, 59
4, 180724, Control_c, 3, 1, 71
4, 180736, Control_c, 3, 1, 80
4, 180744, Control_c, 3, 1, 88
4, 180756, Control_c, 3, 1, 93
4, 180768, Control_c, 3, 1, 97
4, 180776, Control_c, 3, 1, 102
4, 180788, Control_c, 3, 1, 105
4, 180796, Control_c, 3, 1, 108
4, 180808, Control_c, 3, 1, 110
4, 180828, Control_c, 3, 1, 108
4, 180840, Control_c, 3, 1, 104
4, 180852, Control_c, 3, 1, 93
4, 180860, Control_c, 3, 1, 63
4, 180868, Note_on_c, 3, 65, 0
4, 180872, Control_c, 3, 1, 30
4, 180872, Note_on_c, 3, 60, 102
4, 180884, Control_c, 3, 1, 14
4, 180892, Control_c, 3, 1, 6
4, 180904, Control_c, 3, 1, 2
4, 180916, Control_c, 3, 1, 0
4, 180928, Control_c, 3, 1, 0
4, 180980, Note_on_c, 3, 60, 0
4, 181116, Note_on_c, 3, 60, 81
4, 181196, Note_on_c, 3, 60, 0
4, 181240, Note_on_c, 3, 69, 108
4, 181280, Control_c, 3, 1, 4
4, 181292, Control_c, 3, 1, 14
4, 181304, Control_c, 3, 1, 26
4, 181316, Control_c, 3, 1, 36
4, 181328, Control_c, 3, 1, 44
4, 181336, Control_c, 3, 1, 51
4, 181348, Control_c, 3, 1, 57
4, 181360, Control_c, 3, 1, 60
4, 181372, Control_c, 3, 1, 61
4, 181380, Control_c, 3, 1, 58
4, 181392, Control_c, 3, 1, 50
4, 181404, Control_c, 3, 1, 43
4, 181412, Control_c, 3, 1, 40
4, 181424, Control_c, 3, 1, 38
4, 181444, Control_c, 3, 1, 40
4, 181448, Note_on_c, 3, 69, 0
4, 181456, Control_c, 3, 1, 42
4, 181468, Control_c, 3, 1, 44
4, 181500, Control_c, 3, 1, 43
4, 181500, Note_on_c, 3, 69, 53
4, 181512, Control_c, 3, 1, 42
4, 181520, Control_c, 3, 1, 40
4, 181532, Control_c, 3, 1, 39
4, 181544, Control_c, 3, 1, 37
4, 181556, Control_c, 3, 1, 32
4, 181564, Control_c, 3, 1, 26
4, 181576, Control_c, 3, 1, 19
4, 181588, Control_c, 3, 1, 11
4, 181600, Control_c, 3, 1, 5
4, 181608, Control_c, 3, 1, 1
4, 181612, Note_on_c, 3, 69, 0
4, 181624, Control_c, 3, 1, 0
4, 181632, Control_c, 3, 1, 0
4, 181644, Note_on_c, 3, 67, 108
4, 181792, Note_on_c, 3, 67, 0
4, 181896, Note_on_c, 3, 69, 121
4, 182052, Note_on_c, 3, 69, 0
4, 182412, Note_on_c, 3, 60, 42
4, 182444, Note_on_c, 3, 60, 0
4, 182640, Note_on_c, 3, 60, 95
4, 182732, Note_on_c, 3, 60, 0
4, 182772, Note_on_c, 3, 69, 108
4, 182804, Control_c, 3, 1, 0
4, 182816, Control_c, 3, 1, 7
4, 182828, Control_c, 3, 1, 19
4, 182840, Control_c, 3, 1, 31
4, 182848, Control_c, 3, 1, 42
4, 182860, Control_c, 3, 1, 49
4, 182872, Control_c, 3, 1, 54
4, 182880, Control_c, 3, 1, 56
4, 182904, Control_c, 3, 1, 55
4, 182912, Control_c, 3, 1, 50
4, 182924, Control_c, 3, 1, 43
4, 182936, Control_c, 3, 1, 36
4, 182948, Control_c, 3, 1, 29
4, 182956, Control_c, 3, 1, 27
4, 182980, Note_on_c, 3, 69, 0
4, 183000, Control_c, 3, 1, 28
4, 183020, Control_c, 3, 1, 30
4, 183032, Control_c, 3, 1, 35
4, 183036, Note_on_c, 3, 69, 69
4, 183044, Control_c, 3, 1, 42
4, 183056, Control_c, 3, 1, 50
4, 183064, Control_c, 3, 1, 56
4, 183076, Control_c, 3, 1, 61
4, 183088, Control_c, 3, 1, 64
4, 183100, Control_c, 3, 1, 67
4, 183108, Control_c, 3, 1, 68
4, 183120, Control_c, 3, 1, 66
4, 183132, Control_c, 3, 1, 63
4, 183144, Control_c, 3, 1, 56
4, 183156, Note_on_c, 3, 69, 0
4, 183156, Control_c, 3, 1, 43
4, 183168, Control_c, 3, 1, 22
4, 183176, Control_c, 3, 1, 9
4, 183180, Note_on_c, 3, 67, 102
4, 183188, Control_c, 3, 1, 3
4, 183200, Control_c, 3, 1, 0
4, 183208, Control_c, 3, 1, 0
4, 183328, Note_on_c, 3, 67, 0
4, 183408, Note_on_c, 3, 69, 117
4, 183548, Note_on_c, 3, 69, 0
4, 183784, Note_on_c, 3, 60, 69
4, 183856, Note_on_c, 3, 60, 0
4, 184164, Note_on_c, 3, 60, 102
4, 184260, Note_on_c, 3, 60, 0
4, 184292, Note_on_c, 3, 69, 108
4, 184364, Control_c, 3, 1, 0
4, 184376, Control_c, 3, 1, 5
4, 184384, Control_c, 3, 1, 11
4, 184396, Control_c, 3, 1, 17
4, 184408, Control_c, 3, 1, 23
4, 184420, Control_c, 3, 1, 28
4, 184432, Control_c, 3, 1, 34
4, 184440, Control_c, 3, 1, 38
4, 184452, Control_c, 3, 1, 44
4, 184464, Control_c, 3, 1, 48
4, 184476, Control_c, 3, 1, 51
4, 184484, Control_c, 3, 1, 49
4, 184496, Control_c, 3, 1, 42
4, 184508, Note_on_c, 3, 69, 0
4, 184508, Control_c, 3, 1, 33
4, 184520, Control_c, 3, 1, 24
4, 184528, Control_c, 3, 1, 17
4, 184540, Control_c, 3, 1, 13
4, 184552, Control_c, 3, 1, 12
4, 184564, Note_on_c, 3, 69, 55
4, 184572, Control_c, 3, 1, 13
4, 184584, Control_c, 3, 1, 14
4, 184604, Control_c, 3, 1, 13
4, 184616, Control_c, 3, 1, 9
4, 184628, Control_c, 3, 1, 4
4, 184640, Control_c, 3, 1, 1
4, 184648, Control_c, 3, 1, 0
4, 184660, Control_c, 3, 1, 0
4, 184672, Note_on_c, 3, 69, 0
4, 184704, Note_on_c, 3, 67, 113
4, 184852, Note_on_c, 3, 67, 0
4, 184956, Note_on_c, 3, 69, 121
4, 185100, Note_on_c, 3, 69, 0
4, 185728, Note_on_c, 3, 60, 95
4, 185824, Note_on_c, 3, 60, 0
4, 185864, Note_on_c, 3, 69, 108
4, 186116, Note_on_c, 3, 60, 65
4, 186124, Note_on_c, 3, 69, 0
4, 186176, Note_on_c, 3, 60, 0
4, 186248, Note_on_c, 3, 67, 117
4, 186496, Control_c, 3, 1, 1
4, 186508, Control_c, 3, 1, 4
4, 186520, Control_c, 3, 1, 5
4, 186532, Note_on_c, 3, 67, 0
4, 186532, Control_c, 3, 1, 2
4, 186540, Control_c, 3, 1, 0
4, 186552, Control_c, 3, 1, 0
4, 186624, Note_on_c, 3, 65, 108
4, 186740, Control_c, 3, 1, 0
4, 186752, Control_c, 3, 1, 6
4, 186760, Control_c, 3, 1, 11
4, 186772, Control_c, 3, 1, 15
4, 186784, Control_c, 3, 1, 20
4, 186792, Control_c, 3, 1, 24
4, 186804, Control_c, 3, 1, 28
4, 186812, Control_c, 3, 1, 34
4, 186824, Control_c, 3, 1, 41
4, 186836, Control_c, 3, 1, 49
4, 186848, Control_c, 3, 1, 56
4, 186856, Control_c, 3, 1, 62
4, 186868, Control_c, 3, 1, 66
4, 186880, Control_c, 3, 1, 69
4, 186888, Control_c, 3, 1, 72
4, 186900, Control_c, 3, 1, 73
4, 186912, Control_c, 3, 1, 74
4, 186932, Control_c, 3, 1, 73
4, 186944, Control_c, 3, 1, 70
4, 186952, Control_c, 3, 1, 65
4, 186964, Control_c, 3, 1, 56
4, 186976, Control_c, 3, 1, 44
4, 186984, Control_c, 3, 1, 27
4, 186996, Control_c, 3, 1, 12
4, 187004, Control_c, 3, 1, 5
4, 187008, Note_on_c, 3, 65, 0
4, 187020, Control_c, 3, 1, 1
4, 187020, Note_on_c, 3, 60, 108
4, 187028, Control_c, 3, 1, 0
4, 187040, Control_c, 3, 1, 0
4, 187128, Note_on_c, 3, 60, 0
4, 187272, Note_on_c, 3, 60, 85
4, 187344, Note_on_c, 3, 60, 0
4, 187396, Note_on_c, 3, 69, 108
4, 187468, Control_c, 3, 1, 3
4, 187480, Control_c, 3, 1, 14
4, 187492, Control_c, 3, 1, 28
4, 187504, Control_c, 3, 1, 39
4, 187512, Control_c, 3, 1, 45
4, 187524, Control_c, 3, 1, 47
4, 187536, Control_c, 3, 1, 44
4, 187548, Control_c, 3, 1, 39
4, 187556, Control_c, 3, 1, 37
4, 187580, Control_c, 3, 1, 39
4, 187588, Control_c, 3, 1, 42
4, 187600, Note_on_c, 3, 69, 0
4, 187600, Control_c, 3, 1, 45
4, 187612, Control_c, 3, 1, 47
4, 187632, Control_c, 3, 1, 46
4, 187644, Control_c, 3, 1, 44
4, 187644, Note_on_c, 3, 69, 62
4, 187656, Control_c, 3, 1, 43
4, 187664, Control_c, 3, 1, 42
4, 187676, Control_c, 3, 1, 40
4, 187688, Control_c, 3, 1, 38
4, 187696, Control_c, 3, 1, 33
4, 187708, Control_c, 3, 1, 27
4, 187720, Control_c, 3, 1, 22
4, 187732, Control_c, 3, 1, 17
4, 187744, Control_c, 3, 1, 12
4, 187752, Control_c, 3, 1, 7
4, 187764, Note_on_c, 3, 69, 0
4, 187764, Control_c, 3, 1, 2
4, 187776, Control_c, 3, 1, 0
4, 187784, Control_c, 3, 1, 0
4, 187788, Note_on_c, 3, 67, 102
4, 187912, Note_on_c, 3, 67, 0
4, 188028, Note_on_c, 3, 69, 123
4, 188156, Note_on_c, 3, 69, 0
4, 188184, Control_c, 3, 1, 2
4, 188196, Control_c, 3, 1, 11
4, 188208, Control_c, 3, 1, 25
4, 188216, Control_c, 3, 1, 37
4, 188228, Control_c, 3, 1, 46
4, 188240, Control_c, 3, 1, 51
4, 188248, Control_c, 3, 1, 55
4, 188260, Control_c, 3, 1, 58
4, 188272, Control_c, 3, 1, 62
4, 188280, Control_c, 3, 1, 67
4, 188292, Control_c, 3, 1, 71
4, 188300, Control_c, 3, 1, 74
4, 188312, Control_c, 3, 1, 77
4, 188324, Control_c, 3, 1, 79
4, 188332, Control_c, 3, 1, 80
4, 188356, Control_c, 3, 1, 81
4, 188364, Control_c, 3, 1, 83
4, 188408, Control_c, 3, 1, 81
4, 188420, Control_c, 3, 1, 79
4, 188428, Control_c, 3, 1, 75
4, 188440, Control_c, 3, 1, 69
4, 188448, Control_c, 3, 1, 57
4, 188460, Control_c, 3, 1, 38
4, 188472, Control_c, 3, 1, 18
4, 188480, Control_c, 3, 1, 7
4, 188492, Control_c, 3, 1, 2
4, 188504, Control_c, 3, 1, 0
4, 188512, Control_c, 3, 1, 0
4, 188792, Note_on_c, 3, 60, 95
4, 188908, Note_on_c, 3, 60, 0
4, 188928, Note_on_c, 3, 69, 108
4, 189044, Control_c, 3, 1, 3
4, 189052, Control_c, 3, 1, 9
4, 189064, Control_c, 3, 1, 14
4, 189076, Control_c, 3, 1, 18
4, 189084, Control_c, 3, 1, 20
4, 189096, Control_c, 3, 1, 23
4, 189108, Control_c, 3, 1, 26
4, 189120, Control_c, 3, 1, 32
4, 189132, Control_c, 3, 1, 39
4, 189144, Control_c, 3, 1, 46
4, 189156, Control_c, 3, 1, 54
4, 189164, Control_c, 3, 1, 63
4, 189176, Control_c, 3, 1, 73
4, 189184, Control_c, 3, 1, 80
4, 189196, Control_c, 3, 1, 85
4, 189208, Control_c, 3, 1, 88
4, 189216, Control_c, 3, 1, 90
4, 189240, Control_c, 3, 1, 86
4, 189248, Control_c, 3, 1, 79
4, 189260, Control_c, 3, 1, 68
4, 189272, Control_c, 3, 1, 45
4, 189280, Control_c, 3, 1, 22
4, 189292, Control_c, 3, 1, 9
4, 189304, Note_on_c, 3, 69, 0
4, 189304, Control_c, 3, 1, 3
4, 189312, Control_c, 3, 1, 0
4, 189316, Note_on_c, 3, 67, 113
4, 189324, Control_c, 3, 1, 0
4, 189452, Note_on_c, 3, 67, 0
4, 189556, Note_on_c, 3, 69, 117
4, 189712, Note_on_c, 3, 69, 0
4, 189920, Pitch_bend_c, 3, 8384
4, 189932, Pitch_bend_c, 3, 7228
4, 189932, Note_on_c, 3, 72, 117
4, 189940, Pitch_bend_c, 3, 6714
4, 189952, Pitch_bend_c, 3, 6457
4, 189972, Pitch_bend_c, 3, 6842
4, 189984, Pitch_bend_c, 3, 7453
4, 189996, Pitch_bend_c, 3, 7902
4, 190008, Pitch_bend_c, 3, 8127
4, 190020, Pitch_bend_c, 3, 8192
4, 190156, Control_c, 3, 1, 0
4, 190164, Control_c, 3, 1, 3
4, 190176, Control_c, 3, 1, 8
4, 190188, Control_c, 3, 1, 15
4, 190196, Control_c, 3, 1, 23
4, 190208, Control_c, 3, 1, 30
4, 190220, Control_c, 3, 1, 37
4, 190232, Control_c, 3, 1, 43
4, 190240, Control_c, 3, 1, 50
4, 190252, Control_c, 3, 1, 56
4, 190264, Control_c, 3, 1, 62
4, 190272, Control_c, 3, 1, 68
4, 190284, Control_c, 3, 1, 74
4, 190296, Control_c, 3, 1, 80
4, 190304, Control_c, 3, 1, 87
4, 190316, Control_c, 3, 1, 93
4, 190328, Control_c, 3, 1, 98
4, 190340, Control_c, 3, 1, 102
4, 190348, Control_c, 3, 1, 105
4, 190360, Control_c, 3, 1, 106
4, 190372, Control_c, 3, 1, 105
4, 190380, Control_c, 3, 1, 102
4, 190392, Control_c, 3, 1, 98
4, 190404, Control_c, 3, 1, 90
4, 190412, Control_c, 3, 1, 73
4, 190424, Control_c, 3, 1, 38
4, 190436, Control_c, 3, 1, 18
4, 190444, Control_c, 3, 1, 7
4, 190456, Control_c, 3, 1, 2
4, 190468, Note_on_c, 3, 72, 0
4, 190468, Control_c, 3, 1, 0
4, 190472, Note_on_c, 3, 69, 117
4, 190480, Control_c, 3, 1, 0
4, 190760, Control_c, 3, 1, 0
4, 190772, Control_c, 3, 1, 3
4, 190780, Control_c, 3, 1, 4
4, 190792, Control_c, 3, 1, 3
4, 190804, Control_c, 3, 1, 0
4, 190816, Control_c, 3, 1, 0
4, 190836, Note_on_c, 3, 69, 0
4, 190848, Note_on_c, 3, 67, 113
4, 191004, Note_on_c, 3, 67, 0
4, 191108, Note_on_c, 3, 69, 113
4, 191256, Note_on_c, 3, 69, 0
4, 191276, Control_c, 3, 1, 1
4, 191288, Control_c, 3, 1, 2
4, 191308, Control_c, 3, 1, 0
4, 191320, Control_c, 3, 1, 0
4, 191484, Note_on_c, 3, 60, 85
4, 191632, Note_on_c, 3, 60, 0
4, 191868, Note_on_c, 3, 60, 102
4, 191984, Note_on_c, 3, 60, 0
4, 191996, Note_on_c, 3, 69, 113
4, 192060, Control_c, 3, 1, 0
4, 192068, Control_c, 3, 1, 9
4, 192080, Control_c, 3, 1, 24
4, 192092, Control_c, 3, 1, 39
4, 192104, Control_c, 3, 1, 52
4, 192112, Control_c, 3, 1, 60
4, 192124, Control_c, 3, 1, 65
4, 192136, Control_c, 3, 1, 66
4, 192148, Control_c, 3, 1, 64
4, 192156, Control_c, 3, 1, 61
4, 192168, Control_c, 3, 1, 56
4, 192180, Control_c, 3, 1, 48
4, 192192, Control_c, 3, 1, 41
4, 192200, Control_c, 3, 1, 34
4, 192212, Control_c, 3, 1, 26
4, 192224, Control_c, 3, 1, 17
4, 192232, Control_c, 3, 1, 9
4, 192244, Control_c, 3, 1, 3
4, 192256, Control_c, 3, 1, 0
4, 192264, Control_c, 3, 1, 0
4, 192268, Note_on_c, 3, 60, 69
4, 192276, Note_on_c, 3, 69, 0
4, 192352, Note_on_c, 3, 60, 0
4, 192392, Note_on_c, 3, 67, 113
4, 192580, Control_c, 3, 1, 2
4, 192592, Control_c, 3, 1, 4
4, 192600, Control_c, 3, 1, 2
4, 192612, Control_c, 3, 1, 0
4, 192624, Control_c, 3, 1, 0
4, 192656, Note_on_c, 3, 67, 0
4, 192768, Note_on_c, 3, 65, 113
4, 192852, Control_c, 3, 1, 3
4, 192864, Control_c, 3, 1, 10
4, 192876, Control_c, 3, 1, 16
4, 192888, Control_c, 3, 1, 19
4, 192896, Control_c, 3, 1, 21
4, 192916, Control_c, 3, 1, 22
4, 192928, Control_c, 3, 1, 25
4, 192940, Control_c, 3, 1, 33
4, 192952, Control_c, 3, 1, 42
4, 192960, Control_c, 3, 1, 52
4, 192972, Control_c, 3, 1, 60
4, 192984, Control_c, 3, 1, 65
4, 192992, Control_c, 3, 1, 68
4, 193004, Control_c, 3, 1, 69
4, 193024, Control_c, 3, 1, 68
4, 193036, Control_c, 3, 1, 66
4, 193048, Control_c, 3, 1, 63
4, 193056, Control_c, 3, 1, 62
4, 193080, Control_c, 3, 1, 61
4, 193088, Control_c, 3, 1, 60
4, 193108, Control_c, 3, 1, 59
4, 193140, Control_c, 3, 1, 61
4, 193152, Control_c, 3, 1, 64
4, 193164, Control_c, 3, 1, 68
4, 193172, Control_c, 3, 1, 71
4, 193184, Control_c, 3, 1, 74
4, 193196, Control_c, 3, 1, 75
4, 193228, Control_c, 3, 1, 74
4, 193236, Control_c, 3, 1, 73
4, 193260, Control_c, 3, 1, 70
4, 193268, Control_c, 3, 1, 65
4, 193280, Control_c, 3, 1, 56
4, 193288, Control_c, 3, 1, 43
4, 193300, Control_c, 3, 1, 28
4, 193312, Control_c, 3, 1, 14
4, 193320, Control_c, 3, 1, 6
4, 193332, Control_c, 3, 1, 2
4, 193344, Control_c, 3, 1, 0
4, 193352, Control_c, 3, 1, 0
4, 193480, Note_on_c, 3, 65, 0
4, 193500, Pitch_bend_c, 3, 8320
4, 193508, Pitch_bend_c, 3, 7838
4, 193520, Pitch_bend_c, 3, 7613
4, 193532, Pitch_bend_c, 3, 7420
4, 193544, Pitch_bend_c, 3, 7228
4, 193552, Pitch_bend_c, 3, 7099
4, 193564, Pitch_bend_c, 3, 7003
4, 193564, Note_on_c, 3, 65, 113
4, 193576, Pitch_bend_c, 3, 6939
4, 193596, Pitch_bend_c, 3, 7228
4, 193608, Pitch_bend_c, 3, 7677
4, 193620, Pitch_bend_c, 3, 7999
4, 193632, Pitch_bend_c, 3, 8159
4, 193640, Pitch_bend_c, 3, 8192
4, 193872, Note_on_c, 3, 65, 0
4, 193872, Pitch_bend_c, 3, 8256
4, 193884, Pitch_bend_c, 3, 7581
4, 193892, Pitch_bend_c, 3, 7003
4, 193904, Pitch_bend_c, 3, 6553
4, 193916, Pitch_bend_c, 3, 6232
4, 193924, Pitch_bend_c, 3, 5911
4, 193936, Pitch_bend_c, 3, 5750
4, 193948, Pitch_bend_c, 3, 5686
4, 193948, Note_on_c, 3, 65, 113
4, 193960, Pitch_bend_c, 3, 5814
4, 193972, Pitch_bend_c, 3, 6039
4, 193980, Pitch_bend_c, 3, 6553
4, 193992, Pitch_bend_c, 3, 7420
4, 194004, Pitch_bend_c, 3, 7902
4, 194016, Pitch_bend_c, 3, 8127
4, 194028, Pitch_bend_c, 3, 8192
4, 194244, Pitch_bend_c, 3, 8224
4, 194256, Pitch_bend_c, 3, 8770
4, 194260, Note_on_c, 3, 65, 0
4, 194268, Pitch_bend_c, 3, 7003
4, 194276, Pitch_bend_c, 3, 6489
4, 194288, Pitch_bend_c, 3, 6039
4, 194300, Pitch_bend_c, 3, 5686
4, 194312, Pitch_bend_c, 3, 5493
4, 194320, Pitch_bend_c, 3, 5429
4, 194324, Note_on_c, 3, 65, 108
4, 194332, Pitch_bend_c, 3, 5525
4, 194344, Pitch_bend_c, 3, 5814
4, 194356, Pitch_bend_c, 3, 6489
4, 194368, Pitch_bend_c, 3, 7453
4, 194376, Pitch_bend_c, 3, 7902
4, 194388, Pitch_bend_c, 3, 8127
4, 194400, Pitch_bend_c, 3, 8192
4, 194424, Control_c, 3, 1, 0
4, 194432, Control_c, 3, 1, 3
4, 194444, Control_c, 3, 1, 6
4, 194452, Control_c, 3, 1, 8
4, 194464, Control_c, 3, 1, 5
4, 194476, Control_c, 3, 1, 2
4, 194488, Control_c, 3, 1, 1
4, 194508, Control_c, 3, 1, 4
4, 194520, Control_c, 3, 1, 12
4, 194532, Control_c, 3, 1, 22
4, 194540, Control_c, 3, 1, 33
4, 194552, Control_c, 3, 1, 42
4, 194564, Control_c, 3, 1, 49
4, 194576, Control_c, 3, 1, 54
4, 194584, Control_c, 3, 1, 59
4, 194596, Control_c, 3, 1, 62
4, 194608, Control_c, 3, 1, 66
4, 194616, Control_c, 3, 1, 69
4, 194628, Control_c, 3, 1, 71
4, 194648, Control_c, 3, 1, 68
4, 194660, Control_c, 3, 1, 59
4, 194672, Control_c, 3, 1, 47
4, 194680, Note_on_c, 3, 65, 0
4, 194680, Control_c, 3, 1, 30
4, 194692, Control_c, 3, 1, 13
4, 194692, Note_on_c, 3, 62, 90
4, 194704, Control_c, 3, 1, 5
4, 194712, Control_c, 3, 1, 1
4, 194728, Control_c, 3, 1, 0
4, 194740, Control_c, 3, 1, 0
4, 194864, Note_on_c, 3, 62, 0
4, 194928, Note_on_c, 3, 65, 108
4, 195040, Control_c, 3, 1, 0
4, 195052, Control_c, 3, 1, 5
4, 195064, Control_c, 3, 1, 14
4, 195072, Control_c, 3, 1, 24
4, 195084, Control_c, 3, 1, 37
4, 195096, Control_c, 3, 1, 52
4, 195108, Control_c, 3, 1, 68
4, 195120, Control_c, 3, 1, 81
4, 195128, Control_c, 3, 1, 93
4, 195140, Control_c, 3, 1, 102
4, 195152, Control_c, 3, 1, 107
4, 195160, Control_c, 3, 1, 111
4, 195172, Control_c, 3, 1, 113
4, 195184, Control_c, 3, 1, 114
4, 195192, Control_c, 3, 1, 115
4, 195216, Control_c, 3, 1, 116
4, 195268, Control_c, 3, 1, 119
4, 195280, Control_c, 3, 1, 123
4, 195288, Control_c, 3, 1, 126
4, 195300, Control_c, 3, 1, 127
4, 195332, Control_c, 3, 1, 126
4, 195344, Control_c, 3, 1, 122
4, 195352, Control_c, 3, 1, 113
4, 195356, Note_on_c, 3, 65, 0
4, 195364, Control_c, 3, 1, 97
4, 195376, Control_c, 3, 1, 66
4, 195388, Control_c, 3, 1, 31
4, 195396, Control_c, 3, 1, 14
4, 195408, Control_c, 3, 1, 6
4, 195420, Control_c, 3, 1, 2
4, 195428, Control_c, 3, 1, 0
4, 195428, End_track
5, 0, Start_track
5, 0, MIDI_port, 0
5, 0, Title_t, "Sax Solo"
5, 406, Program_c, 4, 65
5, 407, Control_c, 4, 7, 127
5, 407, Control_c, 4, 10, 54
5, 476, Control_c, 4, 11, 127
5, 480, Control_c, 4, 91, 110
5, 480, Control_c, 4, 93, 80
5, 127788, Pitch_bend_c, 4, 8256
5, 127800, Pitch_bend_c, 4, 8609
5, 127808, Pitch_bend_c, 4, 7228
5, 127820, Pitch_bend_c, 4, 6649
5, 127832, Pitch_bend_c, 4, 6039
5, 127840, Pitch_bend_c, 4, 5493
5, 127852, Pitch_bend_c, 4, 4947
5, 127864, Pitch_bend_c, 4, 4561
5, 127872, Note_on_c, 4, 84, 107
5, 127872, Pitch_bend_c, 4, 4304
5, 127884, Pitch_bend_c, 4, 4176
5, 127896, Pitch_bend_c, 4, 4144
5, 127904, Pitch_bend_c, 4, 4176
5, 127916, Pitch_bend_c, 4, 4304
5, 127928, Pitch_bend_c, 4, 4626
5, 127936, Pitch_bend_c, 4, 5268
5, 127948, Pitch_bend_c, 4, 6232
5, 127960, Pitch_bend_c, 4, 7035
5, 127968, Pitch_bend_c, 4, 7742
5, 127980, Pitch_bend_c, 4, 8063
5, 127992, Pitch_bend_c, 4, 8192
5, 128352, Control_c, 4, 1, 3
5, 128360, Control_c, 4, 1, 7
5, 128372, Control_c, 4, 1, 12
5, 128384, Control_c, 4, 1, 14
5, 128392, Control_c, 4, 1, 15
5, 128424, Control_c, 4, 1, 18
5, 128436, Control_c, 4, 1, 23
5, 128444, Control_c, 4, 1, 31
5, 128456, Control_c, 4, 1, 42
5, 128468, Control_c, 4, 1, 51
5, 128476, Control_c, 4, 1, 58
5, 128488, Control_c, 4, 1, 62
5, 128500, Control_c, 4, 1, 64
5, 128520, Control_c, 4, 1, 63
5, 128532, Control_c, 4, 1, 62
5, 128560, Control_c, 4, 1, 64
5, 128572, Control_c, 4, 1, 66
5, 128584, Control_c, 4, 1, 67
5, 128592, Control_c, 4, 1, 68
5, 128728, Control_c, 4, 1, 69
5, 128748, Control_c, 4, 1, 70
5, 128852, Control_c, 4, 1, 69
5, 128860, Control_c, 4, 1, 68
5, 128872, Control_c, 4, 1, 66
5, 128884, Control_c, 4, 1, 64
5, 128896, Control_c, 4, 1, 62
5, 128904, Control_c, 4, 1, 61
5, 128956, Control_c, 4, 1, 62
5, 128964, Control_c, 4, 1, 63
5, 129088, Control_c, 4, 1, 65
5, 129140, Control_c, 4, 1, 63
5, 129152, Control_c, 4, 1, 62
5, 129160, Control_c, 4, 1, 61
5, 129204, Control_c, 4, 1, 62
5, 129224, Control_c, 4, 1, 63
5, 129276, Control_c, 4, 1, 62
5, 129288, Control_c, 4, 1, 60
5, 129320, Control_c, 4, 1, 61
5, 129328, Control_c, 4, 1, 62
5, 129360, Control_c, 4, 1, 64
5, 129380, Control_c, 4, 1, 65
5, 129384, Note_on_c, 4, 84, 0
5, 129392, Control_c, 4, 1, 66
5, 129404, Control_c, 4, 1, 68
5, 129412, Control_c, 4, 1, 69
5, 129424, Control_c, 4, 1, 71
5, 129436, Control_c, 4, 1, 74
5, 129444, Control_c, 4, 1, 78
5, 129456, Control_c, 4, 1, 83
5, 129468, Control_c, 4, 1, 88
5, 129476, Control_c, 4, 1, 93
5, 129488, Control_c, 4, 1, 97
5, 129500, Control_c, 4, 1, 102
5, 129520, Control_c, 4, 1, 90
5, 129528, Control_c, 4, 1, 52
5, 129540, Control_c, 4, 1, 0
5, 129576, Note_on_c, 4, 65, 113
5, 129640, Note_on_c, 4, 65, 0
5, 129692, Note_on_c, 4, 65, 74
5, 129776, Note_on_c, 4, 65, 0
5, 129808, Pitch_bend_c, 4, 8609
5, 129820, Pitch_bend_c, 4, 6714
5, 129832, Pitch_bend_c, 4, 5364
5, 129832, Note_on_c, 4, 69, 113
5, 129840, Pitch_bend_c, 4, 4465
5, 129852, Pitch_bend_c, 4, 4015
5, 129864, Pitch_bend_c, 4, 4079
5, 129876, Pitch_bend_c, 4, 4561
5, 129888, Pitch_bend_c, 4, 5750
5, 129896, Pitch_bend_c, 4, 6939
5, 129912, Pitch_bend_c, 4, 7677
5, 129920, Pitch_bend_c, 4, 7999
5, 129932, Pitch_bend_c, 4, 8159
5, 129944, Pitch_bend_c, 4, 8192
5, 129988, Note_on_c, 4, 69, 0
5, 130048, Note_on_c, 4, 72, 108
5, 130124, Note_on_c, 4, 72, 0
5, 130188, Note_on_c, 4, 72, 121
5, 130292, Note_on_c, 4, 69, 95
5, 130324, Note_on_c, 4, 72, 0
5, 130380, Note_on_c, 4, 69, 0
5, 130388, Pitch_bend_c, 4, 8224
5, 130400, Pitch_bend_c, 4, 8641
5, 130412, Pitch_bend_c, 4, 7099
5, 130420, Pitch_bend_c, 4, 6489
5, 130432, Pitch_bend_c, 4, 6039
5, 130444, Pitch_bend_c, 4, 5814
5, 130444, Note_on_c, 4, 74, 121
5, 130464, Pitch_bend_c, 4, 5975
5, 130476, Pitch_bend_c, 4, 6328
5, 130488, Pitch_bend_c, 4, 6842
5, 130496, Pitch_bend_c, 4, 7420
5, 130508, Pitch_bend_c, 4, 7902
5, 130520, Pitch_bend_c, 4, 8127
5, 130532, Pitch_bend_c, 4, 8192
5, 130584, Control_c, 4, 1, 2
5, 130596, Control_c, 4, 1, 19
5, 130604, Control_c, 4, 1, 39
5, 130616, Control_c, 4, 1, 53
5, 130628, Control_c, 4, 1, 60
5, 130640, Control_c, 4, 1, 56
5, 130648, Control_c, 4, 1, 50
5, 130660, Control_c, 4, 1, 46
5, 130680, Control_c, 4, 1, 48
5, 130692, Control_c, 4, 1, 50
5, 130696, Note_on_c, 4, 74, 0
5, 130704, Control_c, 4, 1, 37
5, 130716, Control_c, 4, 1, 17
5, 130728, Control_c, 4, 1, 7
5, 130736, Control_c, 4, 1, 2
5, 130748, Control_c, 4, 1, 0
5, 130760, Control_c, 4, 1, 0
5, 131880, Note_on_c, 4, 65, 72
5, 131932, Note_on_c, 4, 65, 0
5, 131984, Note_on_c, 4, 65, 60
5, 132048, Note_on_c, 4, 65, 0
5, 132108, Note_on_c, 4, 69, 121
5, 132232, Control_c, 4, 1, 1
5, 132244, Control_c, 4, 1, 12
5, 132256, Control_c, 4, 1, 26
5, 132268, Control_c, 4, 1, 36
5, 132280, Control_c, 4, 1, 39
5, 132312, Control_c, 4, 1, 42
5, 132320, Note_on_c, 4, 69, 0
5, 132320, Control_c, 4, 1, 46
5, 132332, Control_c, 4, 1, 51
5, 132344, Control_c, 4, 1, 55
5, 132352, Control_c, 4, 1, 56
5, 132356, Note_on_c, 4, 72, 121
5, 132376, Control_c, 4, 1, 53
5, 132388, Control_c, 4, 1, 43
5, 132400, Control_c, 4, 1, 27
5, 132408, Control_c, 4, 1, 12
5, 132420, Control_c, 4, 1, 5
5, 132432, Control_c, 4, 1, 1
5, 132444, Control_c, 4, 1, 0
5, 132456, Control_c, 4, 1, 0
5, 132500, Note_on_c, 4, 69, 77
5, 132520, Note_on_c, 4, 72, 0
5, 132552, Note_on_c, 4, 69, 0
5, 132708, Note_on_c, 4, 72, 123
5, 132736, Control_c, 4, 1, 0
5, 132748, Control_c, 4, 1, 14
5, 132760, Control_c, 4, 1, 41
5, 132772, Control_c, 4, 1, 59
5, 132780, Control_c, 4, 1, 76
5, 132792, Control_c, 4, 1, 89
5, 132804, Control_c, 4, 1, 96
5, 132812, Control_c, 4, 1, 100
5, 132824, Control_c, 4, 1, 101
5, 132856, Control_c, 4, 1, 99
5, 132868, Control_c, 4, 1, 96
5, 132880, Control_c, 4, 1, 95
5, 132900, Control_c, 4, 1, 97
5, 132912, Control_c, 4, 1, 100
5, 132920, Control_c, 4, 1, 102
5, 132932, Control_c, 4, 1, 104
5, 132944, Control_c, 4, 1, 106
5, 132956, Control_c, 4, 1, 108
5, 132964, Control_c, 4, 1, 110
5, 132976, Control_c, 4, 1, 112
5, 132988, Control_c, 4, 1, 114
5, 132996, Control_c, 4, 1, 115
5, 133008, Control_c, 4, 1, 117
5, 133020, Control_c, 4, 1, 115
5, 133052, Control_c, 4, 1, 112
5, 133064, Control_c, 4, 1, 110
5, 133072, Control_c, 4, 1, 104
5, 133084, Control_c, 4, 1, 91
5, 133096, Control_c, 4, 1, 68
5, 133104, Control_c, 4, 1, 36
5, 133116, Control_c, 4, 1, 17
5, 133120, Note_on_c, 4, 69, 102
5, 133128, Control_c, 4, 1, 7
5, 133136, Control_c, 4, 1, 2
5, 133148, Control_c, 4, 1, 0
5, 133160, Control_c, 4, 1, 0
5, 133172, Note_on_c, 4, 72, 0
5, 133204, Note_on_c, 4, 69, 0
5, 133236, Note_on_c, 4, 72, 90
5, 133352, Note_on_c, 4, 74, 81
5, 133380, Note_on_c, 4, 72, 0
5, 133436, Note_on_c, 4, 74, 0
5, 133496, Note_on_c, 4, 68, 106
5, 133600, Note_on_c, 4, 67, 92
5, 133620, Note_on_c, 4, 68, 0
5, 133676, Note_on_c, 4, 67, 0
5, 133696, Note_on_c, 4, 65, 103
5, 133872, Control_c, 4, 1, 0
5, 133884, Control_c, 4, 1, 3
5, 133892, Control_c, 4, 1, 10
5, 133904, Control_c, 4, 1, 20
5, 133916, Control_c, 4, 1, 29
5, 133928, Control_c, 4, 1, 36
5, 133940, Control_c, 4, 1, 38
5, 133968, Control_c, 4, 1, 40
5, 133980, Control_c, 4, 1, 43
5, 133992, Control_c, 4, 1, 46
5, 134000, Control_c, 4, 1, 47
5, 134032, Control_c, 4, 1, 46
5, 134044, Control_c, 4, 1, 45
5, 134064, Control_c, 4, 1, 46
5, 134072, Control_c, 4, 1, 47
5, 134080, Control_c, 4, 1, 10
5, 134092, Control_c, 4, 1, 19
5, 134104, Control_c, 4, 1, 48
5, 134112, Control_c, 4, 1, 31
5, 134116, Control_c, 4, 1, 51
5, 134124, Control_c, 4, 1, 27
5, 134128, Control_c, 4, 1, 53
5, 134136, Control_c, 4, 1, 55
5, 134140, Note_on_c, 4, 65, 0
5, 134148, Control_c, 4, 1, 6
5, 134160, Control_c, 4, 1, 52
5, 134168, Control_c, 4, 1, 0
5, 134172, Control_c, 4, 1, 42
5, 134180, Control_c, 4, 1, 30
5, 134192, Control_c, 4, 1, 17
5, 134200, Control_c, 4, 1, 7
5, 134204, Note_on_c, 4, 63, 68
5, 134212, Control_c, 4, 1, 2
5, 134224, Control_c, 4, 1, 0
5, 134236, Control_c, 4, 1, 0
5, 134288, Note_on_c, 4, 63, 0
5, 134296, Note_on_c, 4, 62, 67
5, 134372, Note_on_c, 4, 62, 0
5, 134412, Note_on_c, 4, 60, 82
5, 134504, Control_c, 4, 1, 0
5, 134516, Control_c, 4, 1, 8
5, 134528, Control_c, 4, 1, 27
5, 134536, Control_c, 4, 1, 44
5, 134548, Control_c, 4, 1, 56
5, 134560, Control_c, 4, 1, 63
5, 134568, Control_c, 4, 1, 68
5, 134580, Control_c, 4, 1, 70
5, 134592, Control_c, 4, 1, 71
5, 134600, Control_c, 4, 1, 73
5, 134612, Control_c, 4, 1, 75
5, 134624, Control_c, 4, 1, 78
5, 134632, Control_c, 4, 1, 80
5, 134644, Control_c, 4, 1, 83
5, 134656, Control_c, 4, 1, 85
5, 134684, Control_c, 4, 1, 86
5, 134696, Control_c, 4, 1, 87
5, 134708, Control_c, 4, 1, 88
5, 134728, Control_c, 4, 1, 86
5, 134740, Control_c, 4, 1, 85
5, 134748, Control_c, 4, 1, 84
5, 134752, Note_on_c, 4, 60, 0
5, 134760, Control_c, 4, 1, 83
5, 134772, Control_c, 4, 1, 77
5, 134784, Control_c, 4, 1, 59
5, 134792, Control_c, 4, 1, 31
5, 134804, Control_c, 4, 1, 14
5, 134816, Control_c, 4, 1, 6
5, 134824, Control_c, 4, 1, 2
5, 134836, Control_c, 4, 1, 0
5, 134848, Control_c, 4, 1, 0
5, 134940, Note_on_c, 4, 74, 121
5, 135036, Note_on_c, 4, 72, 81
5, 135076, Note_on_c, 4, 74, 0
5, 135108, Note_on_c, 4, 72, 0
5, 135180, Pitch_bend_c, 4, 8384
5, 135192, Pitch_bend_c, 4, 7517
5, 135200, Pitch_bend_c, 4, 6842
5, 135204, Note_on_c, 4, 77, 121
5, 135212, Pitch_bend_c, 4, 6071
5, 135224, Pitch_bend_c, 4, 5429
5, 135236, Pitch_bend_c, 4, 5011
5, 135248, Pitch_bend_c, 4, 4850
5, 135256, Pitch_bend_c, 4, 5107
5, 135268, Pitch_bend_c, 4, 5750
5, 135280, Pitch_bend_c, 4, 6617
5, 135292, Pitch_bend_c, 4, 7453
5, 135300, Pitch_bend_c, 4, 7902
5, 135312, Pitch_bend_c, 4, 8127
5, 135324, Pitch_bend_c, 4, 8192
5, 135428, Pitch_bend_c, 4, 8256
5, 135436, Pitch_bend_c, 4, 9187
5, 135448, Pitch_bend_c, 4, 5878
5, 135460, Pitch_bend_c, 4, 4786
5, 135468, Pitch_bend_c, 4, 4369
5, 135480, Pitch_bend_c, 4, 4529
5, 135492, Pitch_bend_c, 4, 5332
5, 135504, Pitch_bend_c, 4, 6457
5, 135512, Pitch_bend_c, 4, 7420
5, 135524, Pitch_bend_c, 4, 7902
5, 135532, Pitch_bend_c, 4, 8127
5, 135544, Pitch_bend_c, 4, 8192
5, 135648, Pitch_bend_c, 4, 8770
5, 135660, Pitch_bend_c, 4, 6232
5, 135668, Pitch_bend_c, 4, 4176
5, 135680, Pitch_bend_c, 4, 2441
5, 135692, Pitch_bend_c, 4, 1252
5, 135704, Pitch_bend_c, 4, 867
5, 135716, Pitch_bend_c, 4, 1477
5, 135728, Pitch_bend_c, 4, 3341
5, 135736, Pitch_bend_c, 4, 5364
5, 135748, Pitch_bend_c, 4, 6874
5, 135760, Pitch_bend_c, 4, 7613
5, 135768, Pitch_bend_c, 4, 7999
5, 135780, Pitch_bend_c, 4, 8159
5, 135792, Pitch_bend_c, 4, 8192
5, 135864, Pitch_bend_c, 4, 8256
5, 135876, Pitch_bend_c, 4, 7420
5, 135888, Pitch_bend_c, 4, 5878
5, 135896, Pitch_bend_c, 4, 4369
5, 135908, Pitch_bend_c, 4, 3051
5, 135920, Pitch_bend_c, 4, 2280
5, 135928, Pitch_bend_c, 4, 1927
5, 135940, Pitch_bend_c, 4, 2056
5, 135952, Pitch_bend_c, 4, 2537
5, 135960, Pitch_bend_c, 4, 3565
5, 135972, Pitch_bend_c, 4, 4465
5, 135984, Pitch_bend_c, 4, 5332
5, 135992, Pitch_bend_c, 4, 6071
5, 136004, Pitch_bend_c, 4, 6778
5, 136016, Pitch_bend_c, 4, 7420
5, 136028, Pitch_bend_c, 4, 7902
5, 136036, Pitch_bend_c, 4, 8127
5, 136048, Pitch_bend_c, 4, 8192
5, 136300, Note_on_c, 4, 77, 0
5, 136400, Pitch_bend_c, 4, 8256
5, 136412, Pitch_bend_c, 4, 7677
5, 136420, Pitch_bend_c, 4, 6842
5, 136432, Pitch_bend_c, 4, 5814
5, 136444, Pitch_bend_c, 4, 4850
5, 136444, Note_on_c, 4, 68, 115
5, 136456, Pitch_bend_c, 4, 3887
5, 136464, Pitch_bend_c, 4, 3116
5, 136476, Pitch_bend_c, 4, 2441
5, 136488, Pitch_bend_c, 4, 2088
5, 136500, Pitch_bend_c, 4, 1927
5, 136520, Pitch_bend_c, 4, 2088
5, 136532, Pitch_bend_c, 4, 2473
5, 136540, Pitch_bend_c, 4, 3019
5, 136552, Pitch_bend_c, 4, 3662
5, 136564, Pitch_bend_c, 4, 4529
5, 136572, Pitch_bend_c, 4, 5493
5, 136588, Pitch_bend_c, 4, 6553
5, 136596, Pitch_bend_c, 4, 7420
5, 136608, Pitch_bend_c, 4, 7902
5, 136620, Pitch_bend_c, 4, 8127
5, 136632, Pitch_bend_c, 4, 8192
5, 136704, Note_on_c, 4, 68, 0
5, 136704, Note_on_c, 4, 65, 90
5, 136992, Pitch_bend_c, 4, 8320
5, 137004, Pitch_bend_c, 4, 7420
5, 137016, Note_on_c, 4, 65, 0
5, 137016, Pitch_bend_c, 4, 6328
5, 137028, Pitch_bend_c, 4, 5011
5, 137036, Pitch_bend_c, 4, 4079
5, 137048, Pitch_bend_c, 4, 3437
5, 137048, Note_on_c, 4, 69, 103
5, 137060, Pitch_bend_c, 4, 3051
5, 137068, Pitch_bend_c, 4, 2859
5, 137084, Pitch_bend_c, 4, 2762
5, 137092, Pitch_bend_c, 4, 2698
5, 137104, Pitch_bend_c, 4, 2762
5, 137116, Pitch_bend_c, 4, 2827
5, 137124, Pitch_bend_c, 4, 2859
5, 137136, Pitch_bend_c, 4, 3051
5, 137148, Pitch_bend_c, 4, 3405
5, 137156, Pitch_bend_c, 4, 3726
5, 137168, Pitch_bend_c, 4, 4240
5, 137180, Pitch_bend_c, 4, 4690
5, 137192, Pitch_bend_c, 4, 5011
5, 137200, Pitch_bend_c, 4, 5364
5, 137212, Pitch_bend_c, 4, 5654
5, 137224, Pitch_bend_c, 4, 5911
5, 137236, Pitch_bend_c, 4, 6232
5, 137244, Pitch_bend_c, 4, 6489
5, 137256, Pitch_bend_c, 4, 6874
5, 137268, Pitch_bend_c, 4, 7292
5, 137280, Pitch_bend_c, 4, 7613
5, 137292, Pitch_bend_c, 4, 7967
5, 137300, Pitch_bend_c, 4, 8159
5, 137312, Pitch_bend_c, 4, 8192
5, 137356, Note_on_c, 4, 69, 0
5, 138036, Note_on_c, 4, 65, 85
5, 138084, Note_on_c, 4, 65, 0
5, 138140, Note_on_c, 4, 65, 74
5, 138212, Note_on_c, 4, 65, 0
5, 138232, Pitch_bend_c, 4, 8224
5, 138244, Pitch_bend_c, 4, 8930
5, 138252, Pitch_bend_c, 4, 6168
5, 138264, Pitch_bend_c, 4, 4529
5, 138268, Note_on_c, 4, 69, 117
5, 138276, Pitch_bend_c, 4, 3116
5, 138288, Pitch_bend_c, 4, 2377
5, 138308, Pitch_bend_c, 4, 2762
5, 138320, Pitch_bend_c, 4, 3341
5, 138332, Pitch_bend_c, 4, 4079
5, 138344, Pitch_bend_c, 4, 4850
5, 138352, Pitch_bend_c, 4, 5589
5, 138364, Pitch_bend_c, 4, 6392
5, 138376, Pitch_bend_c, 4, 7035
5, 138384, Pitch_bend_c, 4, 7613
5, 138396, Pitch_bend_c, 4, 7999
5, 138408, Pitch_bend_c, 4, 8159
5, 138416, Pitch_bend_c, 4, 8192
5, 138764, Note_on_c, 4, 69, 0
5, 138824, Pitch_bend_c, 4, 8641
5, 138832, Pitch_bend_c, 4, 6778
5, 138844, Pitch_bend_c, 4, 5814
5, 138848, Note_on_c, 4, 70, 125
5, 138856, Pitch_bend_c, 4, 5332
5, 138868, Pitch_bend_c, 4, 5268
5, 138880, Pitch_bend_c, 4, 5525
5, 138888, Pitch_bend_c, 4, 6039
5, 138900, Pitch_bend_c, 4, 6842
5, 138912, Pitch_bend_c, 4, 7581
5, 138924, Pitch_bend_c, 4, 7967
5, 138936, Pitch_bend_c, 4, 8159
5, 138944, Pitch_bend_c, 4, 8192
5, 139320, Note_on_c, 4, 70, 0
5, 139360, Pitch_bend_c, 4, 8320
5, 139368, Pitch_bend_c, 4, 7356
5, 139380, Pitch_bend_c, 4, 6457
5, 139384, Note_on_c, 4, 71, 117
5, 139392, Pitch_bend_c, 4, 5814
5, 139404, Pitch_bend_c, 4, 5525
5, 139416, Pitch_bend_c, 4, 5429
5, 139428, Pitch_bend_c, 4, 5589
5, 139436, Pitch_bend_c, 4, 5911
5, 139448, Pitch_bend_c, 4, 6392
5, 139460, Pitch_bend_c, 4, 7003
5, 139472, Pitch_bend_c, 4, 7613
5, 139484, Pitch_bend_c, 4, 7999
5, 139492, Pitch_bend_c, 4, 8159
5, 139504, Pitch_bend_c, 4, 8192
5, 139756, Control_c, 4, 1, 1
5, 139764, Control_c, 4, 1, 15
5, 139776, Control_c, 4, 1, 38
5, 139788, Control_c, 4, 1, 59
5, 139796, Control_c, 4, 1, 76
5, 139808, Control_c, 4, 1, 86
5, 139820, Control_c, 4, 1, 92
5, 139832, Control_c, 4, 1, 95
5, 139840, Control_c, 4, 1, 97
5, 139852, Control_c, 4, 1, 99
5, 139864, Control_c, 4, 1, 100
5, 139872, Control_c, 4, 1, 102
5, 139884, Control_c, 4, 1, 104
5, 139904, Control_c, 4, 1, 100
5, 139916, Control_c, 4, 1, 83
5, 139928, Control_c, 4, 1, 47
5, 139936, Control_c, 4, 1, 22
5, 139940, Note_on_c, 4, 71, 0
5, 139948, Control_c, 4, 1, 10
5, 139960, Control_c, 4, 1, 4
5, 139968, Control_c, 4, 1, 1
5, 139980, Control_c, 4, 1, 0
5, 139988, Pitch_bend_c, 4, 8224
5, 139992, Control_c, 4, 1, 0
5, 140000, Pitch_bend_c, 4, 7517
5, 140004, Note_on_c, 4, 72, 125
5, 140012, Pitch_bend_c, 4, 6232
5, 140024, Pitch_bend_c, 4, 5204
5, 140036, Pitch_bend_c, 4, 4722
5, 140048, Pitch_bend_c, 4, 5011
5, 140060, Pitch_bend_c, 4, 5814
5, 140068, Pitch_bend_c, 4, 6778
5, 140080, Pitch_bend_c, 4, 7581
5, 140092, Pitch_bend_c, 4, 7967
5, 140100, Pitch_bend_c, 4, 8159
5, 140112, Pitch_bend_c, 4, 8192
5, 140424, Control_c, 4, 1, 1
5, 140436, Control_c, 4, 1, 26
5, 140444, Control_c, 4, 1, 59
5, 140456, Control_c, 4, 1, 85
5, 140468, Control_c, 4, 1, 103
5, 140476, Control_c, 4, 1, 112
5, 140488, Note_on_c, 4, 72, 0
5, 140488, Control_c, 4, 1, 118
5, 140500, Control_c, 4, 1, 116
5, 140508, Control_c, 4, 1, 106
5, 140520, Control_c, 4, 1, 84
5, 140532, Control_c, 4, 1, 45
5, 140540, Control_c, 4, 1, 21
5, 140552, Control_c, 4, 1, 9
5, 140556, Note_on_c, 4, 74, 113
5, 140564, Control_c, 4, 1, 3
5, 140576, Control_c, 4, 1, 0
5, 140588, Control_c, 4, 1, 0
5, 140828, Note_on_c, 4, 74, 0
5, 140920, Note_on_c, 4, 77, 108
5, 141024, Note_on_c, 4, 79, 74
5, 141064, Note_on_c, 4, 77, 0
5, 141136, Note_on_c, 4, 81, 81
5, 141180, Note_on_c, 4, 79, 0
5, 141212, Note_on_c, 4, 81, 0
5, 141292, Pitch_bend_c, 4, 8224
5, 141304, Pitch_bend_c, 4, 8641
5, 141316, Pitch_bend_c, 4, 6939
5, 141324, Pitch_bend_c, 4, 5975
5, 141328, Note_on_c, 4, 84, 125
5, 141336, Pitch_bend_c, 4, 5268
5, 141348, Pitch_bend_c, 4, 4850
5, 141360, Pitch_bend_c, 4, 4722
5, 141368, Pitch_bend_c, 4, 4915
5, 141380, Pitch_bend_c, 4, 5493
5, 141392, Pitch_bend_c, 4, 6071
5, 141404, Pitch_bend_c, 4, 6778
5, 141416, Pitch_bend_c, 4, 7356
5, 141424, Pitch_bend_c, 4, 7774
5, 141436, Pitch_bend_c, 4, 8063
5, 141448, Pitch_bend_c, 4, 8192
5, 142024, Control_c, 4, 1, 0
5, 142032, Control_c, 4, 1, 2
5, 142044, Control_c, 4, 1, 4
5, 142056, Control_c, 4, 1, 7
5, 142064, Control_c, 4, 1, 9
5, 142076, Control_c, 4, 1, 11
5, 142088, Control_c, 4, 1, 13
5, 142100, Control_c, 4, 1, 17
5, 142108, Control_c, 4, 1, 21
5, 142120, Control_c, 4, 1, 25
5, 142132, Control_c, 4, 1, 30
5, 142140, Control_c, 4, 1, 34
5, 142152, Control_c, 4, 1, 38
5, 142160, Control_c, 4, 1, 42
5, 142172, Control_c, 4, 1, 46
5, 142184, Control_c, 4, 1, 50
5, 142192, Control_c, 4, 1, 53
5, 142204, Control_c, 4, 1, 55
5, 142216, Control_c, 4, 1, 57
5, 142224, Control_c, 4, 1, 59
5, 142236, Control_c, 4, 1, 60
5, 142248, Control_c, 4, 1, 61
5, 142256, Control_c, 4, 1, 62
5, 142268, Control_c, 4, 1, 63
5, 142280, Control_c, 4, 1, 64
5, 142292, Control_c, 4, 1, 66
5, 142300, Control_c, 4, 1, 67
5, 142404, Control_c, 4, 1, 68
5, 142416, Control_c, 4, 1, 69
5, 142480, Control_c, 4, 1, 70
5, 142492, Control_c, 4, 1, 72
5, 142500, Control_c, 4, 1, 74
5, 142512, Control_c, 4, 1, 76
5, 142524, Control_c, 4, 1, 77
5, 142536, Control_c, 4, 1, 79
5, 142588, Control_c, 4, 1, 78
5, 142596, Control_c, 4, 1, 76
5, 142608, Control_c, 4, 1, 75
5, 142620, Control_c, 4, 1, 74
5, 142652, Control_c, 4, 1, 75
5, 142672, Control_c, 4, 1, 76
5, 142684, Control_c, 4, 1, 77
5, 142692, Control_c, 4, 1, 78
5, 142704, Control_c, 4, 1, 79
5, 142756, Control_c, 4, 1, 80
5, 142788, Control_c, 4, 1, 81
5, 142808, Control_c, 4, 1, 80
5, 142840, Control_c, 4, 1, 82
5, 142852, Control_c, 4, 1, 83
5, 142872, Control_c, 4, 1, 84
5, 142892, Control_c, 4, 1, 85
5, 142936, Control_c, 4, 1, 84
5, 142944, Control_c, 4, 1, 81
5, 142956, Control_c, 4, 1, 78
5, 142968, Control_c, 4, 1, 76
5, 142976, Control_c, 4, 1, 75
5, 142988, Control_c, 4, 1, 73
5, 143000, Control_c, 4, 1, 72
5, 143136, Control_c, 4, 1, 70
5, 143144, Control_c, 4, 1, 64
5, 143148, Note_on_c, 4, 84, 0
5, 143156, Control_c, 4, 1, 52
5, 143168, Control_c, 4, 1, 39
5, 143180, Control_c, 4, 1, 27
5, 143188, Control_c, 4, 1, 16
5, 143200, Control_c, 4, 1, 7
5, 143212, Control_c, 4, 1, 2
5, 143224, Control_c, 4, 1, 0
5, 143224, End_track
6, 0, Start_track
6, 0, MIDI_port, 0
6, 0, Title_t, "Brass"
6, 411, Program_c, 5, 61
6, 412, Control_c, 5, 7, 94
6, 412, Control_c, 5, 10, 24
6, 496, Control_c, 5, 11, 127
6, 500, Control_c, 5, 91, 85
6, 500, Control_c, 5, 93, 127
6, 15360, Note_on_c, 5, 60, 97
6, 15360, Note_on_c, 5, 65, 97
6, 15360, Note_on_c, 5, 69, 97
6, 15432, Note_on_c, 5, 69, 0
6, 15432, Note_on_c, 5, 65, 0
6, 15432, Note_on_c, 5, 60, 0
6, 16000, Note_on_c, 5, 69, 97
6, 16000, Note_on_c, 5, 65, 97
6, 16000, Note_on_c, 5, 60, 97
6, 16096, Note_on_c, 5, 60, 0
6, 16096, Note_on_c, 5, 65, 0
6, 16096, Note_on_c, 5, 69, 0
6, 16504, Note_on_c, 5, 62, 97
6, 16504, Note_on_c, 5, 65, 97
6, 16504, Note_on_c, 5, 69, 97
6, 17528, Note_on_c, 5, 69, 0
6, 17528, Note_on_c, 5, 65, 0
6, 17528, Note_on_c, 5, 62, 0
6, 17536, Note_on_c, 5, 60, 97
6, 17536, Note_on_c, 5, 64, 97
6, 17536, Note_on_c, 5, 67, 97
6, 18368, Note_on_c, 5, 67, 0
6, 18368, Note_on_c, 5, 64, 0
6, 18368, Note_on_c, 5, 60, 0
6, 18432, Note_on_c, 5, 65, 97
6, 18432, Note_on_c, 5, 60, 97
6, 18432, Note_on_c, 5, 69, 97
6, 18528, Note_on_c, 5, 69, 0
6, 18528, Note_on_c, 5, 60, 0
6, 18528, Note_on_c, 5, 65, 0
6, 19072, Note_on_c, 5, 69, 97
6, 19072, Note_on_c, 5, 65, 97
6, 19072, Note_on_c, 5, 60, 97
6, 19168, Note_on_c, 5, 60, 0
6, 19168, Note_on_c, 5, 65, 0
6, 19168, Note_on_c, 5, 69, 0
6, 19576, Note_on_c, 5, 60, 97
6, 19576, Note_on_c, 5, 64, 97
6, 19576, Note_on_c, 5, 67, 97
6, 19840, Note_on_c, 5, 67, 0
6, 19840, Note_on_c, 5, 64, 0
6, 19840, Note_on_c, 5, 60, 0
6, 19840, Note_on_c, 5, 57, 97
6, 19840, Note_on_c, 5, 62, 97
6, 19840, Note_on_c, 5, 65, 97
6, 20592, Note_on_c, 5, 65, 0
6, 20592, Note_on_c, 5, 62, 0
6, 20592, Note_on_c, 5, 57, 0
6, 20608, Note_on_c, 5, 60, 97
6, 20608, Note_on_c, 5, 55, 97
6, 20608, Note_on_c, 5, 64, 97
6, 21492, Note_on_c, 5, 64, 0
6, 21492, Note_on_c, 5, 55, 0
6, 21492, Note_on_c, 5, 60, 0
6, 33792, Note_on_c, 5, 60, 97
6, 33792, Note_on_c, 5, 65, 97
6, 33792, Note_on_c, 5, 69, 97
6, 33864, Note_on_c, 5, 69, 0
6, 33864, Note_on_c, 5, 65, 0
6, 33864, Note_on_c, 5, 60, 0
6, 34432, Note_on_c, 5, 69, 97
6, 34432, Note_on_c, 5, 65, 97
6, 34432, Note_on_c, 5, 60, 97
6, 34528, Note_on_c, 5, 60, 0
6, 34528, Note_on_c, 5, 65, 0
6, 34528, Note_on_c, 5, 69, 0
6, 34936, Note_on_c, 5, 62, 97
6, 34936, Note_on_c, 5, 65, 97
6, 34936, Note_on_c, 5, 69, 97
6, 35960, Note_on_c, 5, 69, 0
6, 35960, Note_on_c, 5, 65, 0
6, 35960, Note_on_c, 5, 62, 0
6, 35968, Note_on_c, 5, 60, 97
6, 35968, Note_on_c, 5, 64, 97
6, 35968, Note_on_c, 5, 67, 97
6, 36800, Note_on_c, 5, 67, 0
6, 36800, Note_on_c, 5, 64, 0
6, 36800, Note_on_c, 5, 60, 0
6, 36864, Note_on_c, 5, 65, 97
6, 36864, Note_on_c, 5, 60, 97
6, 36864, Note_on_c, 5, 69, 97
6, 36960, Note_on_c, 5, 69, 0
6, 36960, Note_on_c, 5, 60, 0
6, 36960, Note_on_c, 5, 65, 0
6, 37504, Note_on_c, 5, 69, 97
6, 37504, Note_on_c, 5, 65, 97
6, 37504, Note_on_c, 5, 60, 97
6, 37600, Note_on_c, 5, 60, 0
6, 37600, Note_on_c, 5, 65, 0
6, 37600, Note_on_c, 5, 69, 0
6, 38008, Note_on_c, 5, 60, 97
6, 38008, Note_on_c, 5, 64, 97
6, 38008, Note_on_c, 5, 67, 97
6, 38272, Note_on_c, 5, 67, 0
6, 38272, Note_on_c, 5, 64, 0
6, 38272, Note_on_c, 5, 60, 0
6, 38272, Note_on_c, 5, 57, 97
6, 38272, Note_on_c, 5, 62, 97
6, 38272, Note_on_c, 5, 65, 97
6, 39024, Note_on_c, 5, 65, 0
6, 39024, Note_on_c, 5, 62, 0
6, 39024, Note_on_c, 5, 57, 0
6, 39040, Note_on_c, 5, 60, 97
6, 39040, Note_on_c, 5, 55, 97
6, 39040, Note_on_c, 5, 64, 97
6, 39924, Note_on_c, 5, 64, 0
6, 39924, Note_on_c, 5, 55, 0
6, 39924, Note_on_c, 5, 60, 0
6, 52224, Note_on_c, 5, 64, 92
6, 52224, Note_on_c, 5, 60, 92
6, 52224, Note_on_c, 5, 67, 92
6, 52824, Note_on_c, 5, 67, 0
6, 52824, Note_on_c, 5, 60, 0
6, 52852, Note_on_c, 5, 64, 0
6, 52864, Note_on_c, 5, 69, 92
6, 52864, Note_on_c, 5, 65, 92
6, 52864, Note_on_c, 5, 62, 92
6, 55240, Note_on_c, 5, 69, 0
6, 55248, Note_on_c, 5, 62, 0
6, 55248, Note_on_c, 5, 65, 0
6, 55296, Note_on_c, 5, 64, 92
6, 55296, Note_on_c, 5, 60, 92
6, 55296, Note_on_c, 5, 67, 92
6, 55924, Note_on_c, 5, 67, 0
6, 55924, Note_on_c, 5, 60, 0
6, 55924, Note_on_c, 5, 64, 0
6, 55936, Note_on_c, 5, 69, 92
6, 55936, Note_on_c, 5, 65, 92
6, 55936, Note_on_c, 5, 62, 92
6, 57204, Note_on_c, 5, 62, 0
6, 57204, Note_on_c, 5, 65, 0
6, 57204, Note_on_c, 5, 69, 0
6, 57216, Note_on_c, 5, 67, 117
6, 57216, Note_on_c, 5, 72, 117
6, 57216, Note_on_c, 5, 64, 117
6, 57336, Note_on_c, 5, 64, 0
6, 57336, Note_on_c, 5, 72, 0
6, 57336, Note_on_c, 5, 67, 0
6, 57472, Note_on_c, 5, 67, 117
6, 57472, Note_on_c, 5, 64, 117
6, 57472, Note_on_c, 5, 72, 117
6, 57544, Note_on_c, 5, 67, 0
6, 57568, Note_on_c, 5, 72, 0
6, 57568, Note_on_c, 5, 64, 0
6, 78336, Note_on_c, 5, 72, 97
6, 78336, Note_on_c, 5, 65, 97
6, 78336, Note_on_c, 5, 69, 97
6, 78432, Note_on_c, 5, 69, 0
6, 78432, Note_on_c, 5, 65, 0
6, 78432, Note_on_c, 5, 72, 0
6, 78976, Note_on_c, 5, 69, 97
6, 78976, Note_on_c, 5, 72, 97
6, 78976, Note_on_c, 5, 65, 97
6, 79072, Note_on_c, 5, 65, 0
6, 79072, Note_on_c, 5, 72, 0
6, 79072, Note_on_c, 5, 69, 0
6, 79480, Note_on_c, 5, 77, 97
6, 79480, Note_on_c, 5, 69, 97
6, 79480, Note_on_c, 5, 74, 97
6, 80496, Note_on_c, 5, 74, 0
6, 80496, Note_on_c, 5, 69, 0
6, 80496, Note_on_c, 5, 77, 0
6, 80512, Note_on_c, 5, 72, 97
6, 80512, Note_on_c, 5, 67, 97
6, 80512, Note_on_c, 5, 76, 97
6, 81232, Note_on_c, 5, 76, 0
6, 81232, Note_on_c, 5, 67, 0
6, 81232, Note_on_c, 5, 72, 0
6, 81408, Note_on_c, 5, 72, 97
6, 81408, Note_on_c, 5, 65, 97
6, 81408, Note_on_c, 5, 69, 97
6, 81504, Note_on_c, 5, 69, 0
6, 81504, Note_on_c, 5, 65, 0
6, 81504, Note_on_c, 5, 72, 0
6, 82048, Note_on_c, 5, 69, 97
6, 82048, Note_on_c, 5, 65, 97
6, 82048, Note_on_c, 5, 72, 97
6, 82144, Note_on_c, 5, 72, 0
6, 82144, Note_on_c, 5, 65, 0
6, 82144, Note_on_c, 5, 69, 0
6, 82552, Note_on_c, 5, 72, 97
6, 82552, Note_on_c, 5, 76, 97
6, 82552, Note_on_c, 5, 79, 97
6, 82816, Note_on_c, 5, 79, 0
6, 82816, Note_on_c, 5, 76, 0
6, 82816, Note_on_c, 5, 72, 0
6, 82816, Note_on_c, 5, 69, 97
6, 82816, Note_on_c, 5, 77, 97
6, 82816, Note_on_c, 5, 74, 97
6, 83568, Note_on_c, 5, 74, 0
6, 83568, Note_on_c, 5, 77, 0
6, 83568, Note_on_c, 5, 69, 0
6, 83584, Note_on_c, 5, 72, 97
6, 83584, Note_on_c, 5, 76, 97
6, 83584, Note_on_c, 5, 67, 97
6, 84424, Note_on_c, 5, 67, 0
6, 84424, Note_on_c, 5, 76, 0
6, 84424, Note_on_c, 5, 72, 0
6, 96768, Note_on_c, 5, 64, 92
6, 96768, Note_on_c, 5, 60, 92
6, 96768, Note_on_c, 5, 67, 92
6, 97368, Note_on_c, 5, 67, 0
6, 97368, Note_on_c, 5, 60, 0
6, 97396, Note_on_c, 5, 64, 0
6, 97408, Note_on_c, 5, 69, 92
6, 97408, Note_on_c, 5, 65, 92
6, 97408, Note_on_c, 5, 62, 92
6, 99784, Note_on_c, 5, 69, 0
6, 99792, Note_on_c, 5, 62, 0
6, 99792, Note_on_c, 5, 65, 0
6, 99840, Note_on_c, 5, 64, 92
6, 99840, Note_on_c, 5, 60, 92
6, 99840, Note_on_c, 5, 67, 92
6, 100468, Note_on_c, 5, 67, 0
6, 100468, Note_on_c, 5, 60, 0
6, 100468, Note_on_c, 5, 64, 0
6, 100480, Note_on_c, 5, 69, 92
6, 100480, Note_on_c, 5, 65, 92
6, 100480, Note_on_c, 5, 62, 92
6, 101748, Note_on_c, 5, 62, 0
6, 101748, Note_on_c, 5, 65, 0
6, 101748, Note_on_c, 5, 69, 0
6, 101760, Note_on_c, 5, 67, 117
6, 101760, Note_on_c, 5, 72, 117
6, 101760, Note_on_c, 5, 64, 117
6, 101880, Note_on_c, 5, 64, 0
6, 101880, Note_on_c, 5, 72, 0
6, 101880, Note_on_c, 5, 67, 0
6, 102016, Note_on_c, 5, 67, 117
6, 102016, Note_on_c, 5, 64, 117
6, 102016, Note_on_c, 5, 72, 117
6, 102088, Note_on_c, 5, 67, 0
6, 102112, Note_on_c, 5, 72, 0
6, 102112, Note_on_c, 5, 64, 0
6, 141312, Note_on_c, 5, 64, 92
6, 141312, Note_on_c, 5, 60, 92
6, 141312, Note_on_c, 5, 67, 92
6, 141912, Note_on_c, 5, 67, 0
6, 141912, Note_on_c, 5, 60, 0
6, 141940, Note_on_c, 5, 64, 0
6, 141952, Note_on_c, 5, 69, 92
6, 141952, Note_on_c, 5, 65, 92
6, 141952, Note_on_c, 5, 62, 92
6, 144328, Note_on_c, 5, 69, 0
6, 144336, Note_on_c, 5, 62, 0
6, 144336, Note_on_c, 5, 65, 0
6, 144384, Note_on_c, 5, 64, 92
6, 144384, Note_on_c, 5, 60, 92
6, 144384, Note_on_c, 5, 67, 92
6, 144984, Note_on_c, 5, 67, 0
6, 144984, Note_on_c, 5, 60, 0
6, 145012, Note_on_c, 5, 64, 0
6, 145024, Note_on_c, 5, 69, 92
6, 145024, Note_on_c, 5, 65, 92
6, 145024, Note_on_c, 5, 62, 92
6, 147400, Note_on_c, 5, 69, 0
6, 147408, Note_on_c, 5, 62, 0
6, 147408, Note_on_c, 5, 65, 0
6, 147456, Note_on_c, 5, 64, 92
6, 147456, Note_on_c, 5, 60, 92
6, 147456, Note_on_c, 5, 67, 92
6, 148056, Note_on_c, 5, 67, 0
6, 148056, Note_on_c, 5, 60, 0
6, 148084, Note_on_c, 5, 64, 0
6, 148096, Note_on_c, 5, 69, 92
6, 148096, Note_on_c, 5, 65, 92
6, 148096, Note_on_c, 5, 62, 92
6, 150472, Note_on_c, 5, 69, 0
6, 150480, Note_on_c, 5, 62, 0
6, 150480, Note_on_c, 5, 65, 0
6, 150528, Note_on_c, 5, 64, 92
6, 150528, Note_on_c, 5, 60, 92
6, 150528, Note_on_c, 5, 67, 92
6, 151156, Note_on_c, 5, 67, 0
6, 151156, Note_on_c, 5, 60, 0
6, 151156, Note_on_c, 5, 64, 0
6, 151168, Note_on_c, 5, 69, 92
6, 151168, Note_on_c, 5, 65, 92
6, 151168, Note_on_c, 5, 62, 92
6, 152436, Note_on_c, 5, 62, 0
6, 152436, Note_on_c, 5, 65, 0
6, 152436, Note_on_c, 5, 69, 0
6, 152448, Note_on_c, 5, 67, 117
6, 152448, Note_on_c, 5, 72, 117
6, 152448, Note_on_c, 5, 64, 117
6, 152568, Note_on_c, 5, 64, 0
6, 152568, Note_on_c, 5, 72, 0
6, 152568, Note_on_c, 5, 67, 0
6, 152704, Note_on_c, 5, 67, 117
6, 152704, Note_on_c, 5, 64, 117
6, 152704, Note_on_c, 5, 72, 117
6, 152776, Note_on_c, 5, 67, 0
6, 152800, Note_on_c, 5, 72, 0
6, 152800, Note_on_c, 5, 64, 0
6, 152800, End_track
7, 0, Start_track
7, 0, MIDI_port, 0
7, 0, Title_t, "Guitar"
7, 416, Program_c, 6, 27
7, 417, Control_c, 6, 7, 105
7, 417, Control_c, 6, 10, 94
7, 516, Control_c, 6, 11, 127
7, 520, Control_c, 6, 91, 50
7, 520, Control_c, 6, 93, 127
7, 6144, Note_on_c, 6, 69, 114
7, 6144, Note_on_c, 6, 65, 114
7, 6144, Note_on_c, 6, 60, 114
7, 6260, Note_on_c, 6, 60, 0
7, 6260, Note_on_c, 6, 65, 0
7, 6260, Note_on_c, 6, 69, 0
7, 6400, Note_on_c, 6, 60, 98
7, 6400, Note_on_c, 6, 69, 98
7, 6400, Note_on_c, 6, 65, 98
7, 6516, Note_on_c, 6, 65, 0
7, 6516, Note_on_c, 6, 69, 0
7, 6516, Note_on_c, 6, 60, 0
7, 6656, Note_on_c, 6, 69, 72
7, 6656, Note_on_c, 6, 60, 72
7, 6656, Note_on_c, 6, 65, 72
7, 6772, Note_on_c, 6, 65, 0
7, 6772, Note_on_c, 6, 60, 0
7, 6772, Note_on_c, 6, 69, 0
7, 6912, Note_on_c, 6, 69, 46
7, 6912, Note_on_c, 6, 65, 46
7, 6912, Note_on_c, 6, 60, 46
7, 7028, Note_on_c, 6, 60, 0
7, 7028, Note_on_c, 6, 65, 0
7, 7028, Note_on_c, 6, 69, 0
7, 15360, Note_on_c, 6, 69, 66
7, 15360, Note_on_c, 6, 65, 82
7, 15360, Note_on_c, 6, 60, 68
7, 15476, Note_on_c, 6, 60, 0
7, 15476, Note_on_c, 6, 65, 0
7, 15476, Note_on_c, 6, 69, 0
7, 16000, Note_on_c, 6, 60, 69
7, 16000, Note_on_c, 6, 69, 70
7, 16000, Note_on_c, 6, 65, 77
7, 16116, Note_on_c, 6, 65, 0
7, 16116, Note_on_c, 6, 69, 0
7, 16116, Note_on_c, 6, 60, 0
7, 16508, Note_on_c, 6, 69, 66
7, 16508, Note_on_c, 6, 65, 86
7, 16508, Note_on_c, 6, 62, 60
7, 17520, Note_on_c, 6, 62, 0
7, 17520, Note_on_c, 6, 65, 0
7, 17520, Note_on_c, 6, 69, 0
7, 17536, Note_on_c, 6, 60, 69
7, 17536, Note_on_c, 6, 67, 63
7, 17536, Note_on_c, 6, 64, 69
7, 18292, Note_on_c, 6, 64, 0
7, 18292, Note_on_c, 6, 67, 0
7, 18292, Note_on_c, 6, 60, 0
7, 18432, Note_on_c, 6, 69, 66
7, 18432, Note_on_c, 6, 65, 77
7, 18432, Note_on_c, 6, 60, 64
7, 18548, Note_on_c, 6, 60, 0
7, 18548, Note_on_c, 6, 65, 0
7, 18548, Note_on_c, 6, 69, 0
7, 19072, Note_on_c, 6, 60, 65
7, 19072, Note_on_c, 6, 69, 65
7, 19072, Note_on_c, 6, 65, 80
7, 19188, Note_on_c, 6, 65, 0
7, 19188, Note_on_c, 6, 69, 0
7, 19188, Note_on_c, 6, 60, 0
7, 19580, Note_on_c, 6, 67, 55
7, 19580, Note_on_c, 6, 64, 67
7, 19580, Note_on_c, 6, 60, 61
7, 19824, Note_on_c, 6, 60, 0
7, 19824, Note_on_c, 6, 64, 0
7, 19824, Note_on_c, 6, 67, 0
7, 19840, Note_on_c, 6, 65, 79
7, 19840, Note_on_c, 6, 62, 67
7, 19840, Note_on_c, 6, 57, 64
7, 20280, Note_on_c, 6, 57, 0
7, 20280, Note_on_c, 6, 62, 0
7, 20280, Note_on_c, 6, 65, 0
7, 20348, Note_on_c, 6, 57, 56
7, 20348, Note_on_c, 6, 62, 56
7, 20348, Note_on_c, 6, 65, 65
7, 20592, Note_on_c, 6, 65, 0
7, 20592, Note_on_c, 6, 62, 0
7, 20592, Note_on_c, 6, 57, 0
7, 20608, Note_on_c, 6, 64, 66
7, 20608, Note_on_c, 6, 60, 76
7, 20608, Note_on_c, 6, 55, 60
7, 21492, Note_on_c, 6, 55, 0
7, 21492, Note_on_c, 6, 60, 0
7, 21492, Note_on_c, 6, 64, 0
7, 21504, Note_on_c, 6, 69, 70
7, 21504, Note_on_c, 6, 65, 78
7, 21504, Note_on_c, 6, 60, 63
7, 22848, Note_on_c, 6, 65, 0
7, 22848, Note_on_c, 6, 69, 0
7, 22900, Note_on_c, 6, 60, 0
7, 22912, Note_on_c, 6, 62, 57
7, 22912, Note_on_c, 6, 65, 71
7, 22912, Note_on_c, 6, 69, 66
7, 24564, Note_on_c, 6, 69, 0
7, 24564, Note_on_c, 6, 65, 0
7, 24564, Note_on_c, 6, 62, 0
7, 24576, Note_on_c, 6, 65, 83
7, 24576, Note_on_c, 6, 69, 68
7, 24576, Note_on_c, 6, 60, 72
7, 25920, Note_on_c, 6, 65, 0
7, 25972, Note_on_c, 6, 60, 0
7, 25972, Note_on_c, 6, 69, 0
7, 25984, Note_on_c, 6, 70, 79
7, 25984, Note_on_c, 6, 65, 76
7, 25984, Note_on_c, 6, 62, 62
7, 27636, Note_on_c, 6, 62, 0
7, 27636, Note_on_c, 6, 65, 0
7, 27636, Note_on_c, 6, 70, 0
7, 27648, Note_on_c, 6, 65, 81
7, 27648, Note_on_c, 6, 60, 67
7, 27648, Note_on_c, 6, 69, 64
7, 28992, Note_on_c, 6, 69, 0
7, 28992, Note_on_c, 6, 65, 0
7, 29044, Note_on_c, 6, 60, 0
7, 29052, Note_on_c, 6, 62, 60
7, 29056, Note_on_c, 6, 69, 65
7, 29056, Note_on_c, 6, 65, 74
7, 30704, Note_on_c, 6, 62, 0
7, 30708, Note_on_c, 6, 65, 0
7, 30708, Note_on_c, 6, 69, 0
7, 30720, Note_on_c, 6, 69, 63
7, 30720, Note_on_c, 6, 65, 71
7, 30720, Note_on_c, 6, 60, 62
7, 32064, Note_on_c, 6, 65, 0
7, 32116, Note_on_c, 6, 60, 0
7, 32116, Note_on_c, 6, 69, 0
7, 32128, Note_on_c, 6, 62, 57
7, 32128, Note_on_c, 6, 70, 74
7, 32128, Note_on_c, 6, 65, 76
7, 33780, Note_on_c, 6, 65, 0
7, 33780, Note_on_c, 6, 70, 0
7, 33780, Note_on_c, 6, 62, 0
7, 33792, Note_on_c, 6, 65, 77
7, 33792, Note_on_c, 6, 69, 69
7, 33792, Note_on_c, 6, 60, 66
7, 33908, Note_on_c, 6, 60, 0
7, 33908, Note_on_c, 6, 69, 0
7, 33908, Note_on_c, 6, 65, 0
7, 34432, Note_on_c, 6, 60, 67
7, 34432, Note_on_c, 6, 69, 66
7, 34432, Note_on_c, 6, 65, 77
7, 34548, Note_on_c, 6, 65, 0
7, 34548, Note_on_c, 6, 69, 0
7, 34548, Note_on_c, 6, 60, 0
7, 34940, Note_on_c, 6, 62, 68
7, 34940, Note_on_c, 6, 65, 82
7, 34940, Note_on_c, 6, 69, 70
7, 35964, Note_on_c, 6, 69, 0
7, 35964, Note_on_c, 6, 65, 0
7, 35964, Note_on_c, 6, 62, 0
7, 35968, Note_on_c, 6, 67, 60
7, 35968, Note_on_c, 6, 64, 54
7, 35968, Note_on_c, 6, 60, 69
7, 36596, Note_on_c, 6, 60, 0
7, 36596, Note_on_c, 6, 64, 0
7, 36596, Note_on_c, 6, 67, 0
7, 36864, Note_on_c, 6, 69, 69
7, 36864, Note_on_c, 6, 65, 80
7, 36864, Note_on_c, 6, 60, 67
7, 36980, Note_on_c, 6, 60, 0
7, 36980, Note_on_c, 6, 65, 0
7, 36980, Note_on_c, 6, 69, 0
7, 37504, Note_on_c, 6, 69, 64
7, 37504, Note_on_c, 6, 60, 66
7, 37504, Note_on_c, 6, 65, 79
7, 37620, Note_on_c, 6, 65, 0
7, 37620, Note_on_c, 6, 60, 0
7, 37620, Note_on_c, 6, 69, 0
7, 38012, Note_on_c, 6, 64, 55
7, 38012, Note_on_c, 6, 67, 52
7, 38012, Note_on_c, 6, 60, 67
7, 38256, Note_on_c, 6, 60, 0
7, 38256, Note_on_c, 6, 67, 0
7, 38256, Note_on_c, 6, 64, 0
7, 38272, Note_on_c, 6, 57, 58
7, 38272, Note_on_c, 6, 62, 65
7, 38272, Note_on_c, 6, 65, 69
7, 38712, Note_on_c, 6, 65, 0
7, 38712, Note_on_c, 6, 62, 0
7, 38712, Note_on_c, 6, 57, 0
7, 38780, Note_on_c, 6, 65, 76
7, 38780, Note_on_c, 6, 62, 61
7, 38780, Note_on_c, 6, 57, 57
7, 39024, Note_on_c, 6, 57, 0
7, 39024, Note_on_c, 6, 62, 0
7, 39024, Note_on_c, 6, 65, 0
7, 39040, Note_on_c, 6, 55, 51
7, 39040, Note_on_c, 6, 60, 76
7, 39040, Note_on_c, 6, 64, 60
7, 39924, Note_on_c, 6, 64, 0
7, 39924, Note_on_c, 6, 60, 0
7, 39924, Note_on_c, 6, 55, 0
7, 40576, Note_on_c, 6, 53, 68
7, 40692, Note_on_c, 6, 53, 0
7, 40704, Note_on_c, 6, 55, 69
7, 40832, Note_on_c, 6, 57, 72
7, 40836, Note_on_c, 6, 55, 0
7, 40948, Note_on_c, 6, 57, 0
7, 40960, Note_on_c, 6, 65, 98
7, 41076, Note_on_c, 6, 65, 0
7, 42112, Note_on_c, 6, 53, 69
7, 42228, Note_on_c, 6, 53, 0
7, 42240, Note_on_c, 6, 55, 66
7, 42368, Note_on_c, 6, 57, 70
7, 42372, Note_on_c, 6, 55, 0
7, 42484, Note_on_c, 6, 57, 0
7, 42496, Note_on_c, 6, 65, 78
7, 42612, Note_on_c, 6, 65, 0
7, 43648, Note_on_c, 6, 53, 74
7, 43764, Note_on_c, 6, 53, 0
7, 43776, Note_on_c, 6, 55, 63
7, 43892, Note_on_c, 6, 55, 0
7, 43904, Note_on_c, 6, 57, 65
7, 44020, Note_on_c, 6, 57, 0
7, 44032, Note_on_c, 6, 65, 51
7, 44148, Note_on_c, 6, 65, 0
7, 44416, Note_on_c, 6, 62, 53
7, 44416, Note_on_c, 6, 70, 79
7, 44416, Note_on_c, 6, 65, 69
7, 44736, Note_on_c, 6, 65, 0
7, 44736, Note_on_c, 6, 70, 0
7, 44736, Note_on_c, 6, 62, 0
7, 44800, Note_on_c, 6, 70, 75
7, 44800, Note_on_c, 6, 62, 60
7, 44800, Note_on_c, 6, 65, 69
7, 44872, Note_on_c, 6, 65, 0
7, 44872, Note_on_c, 6, 62, 0
7, 44872, Note_on_c, 6, 70, 0
7, 44924, Note_on_c, 6, 65, 77
7, 44924, Note_on_c, 6, 62, 62
7, 44924, Note_on_c, 6, 70, 70
7, 45140, Note_on_c, 6, 70, 0
7, 45140, Note_on_c, 6, 62, 0
7, 45140, Note_on_c, 6, 65, 0
7, 45184, Note_on_c, 6, 70, 70
7, 45184, Note_on_c, 6, 65, 70
7, 45184, Note_on_c, 6, 62, 70
7, 45268, Note_on_c, 6, 62, 0
7, 45268, Note_on_c, 6, 65, 0
7, 45268, Note_on_c, 6, 70, 0
7, 45568, Note_on_c, 6, 58, 69
7, 45640, Note_on_c, 6, 58, 0
7, 45692, Note_on_c, 6, 58, 73
7, 45936, Note_on_c, 6, 58, 0
7, 45952, Note_on_c, 6, 60, 79
7, 46068, Note_on_c, 6, 60, 0
7, 46080, Note_on_c, 6, 53, 88
7, 46708, Note_on_c, 6, 53, 0
7, 46720, Note_on_c, 6, 57, 66
7, 46836, Note_on_c, 6, 57, 0
7, 46848, Note_on_c, 6, 55, 70
7, 46976, Note_on_c, 6, 57, 69
7, 46980, Note_on_c, 6, 55, 0
7, 47092, Note_on_c, 6, 57, 0
7, 47104, Note_on_c, 6, 65, 80
7, 47220, Note_on_c, 6, 65, 0
7, 47488, Note_on_c, 6, 62, 68
7, 47488, Note_on_c, 6, 69, 68
7, 47488, Note_on_c, 6, 65, 74
7, 47808, Note_on_c, 6, 65, 0
7, 47808, Note_on_c, 6, 69, 0
7, 47808, Note_on_c, 6, 62, 0
7, 47872, Note_on_c, 6, 65, 82
7, 47872, Note_on_c, 6, 62, 67
7, 47872, Note_on_c, 6, 69, 68
7, 47944, Note_on_c, 6, 69, 0
7, 47944, Note_on_c, 6, 62, 0
7, 47944, Note_on_c, 6, 65, 0
7, 47996, Note_on_c, 6, 69, 63
7, 47996, Note_on_c, 6, 62, 63
7, 47996, Note_on_c, 6, 65, 77
7, 48212, Note_on_c, 6, 65, 0
7, 48212, Note_on_c, 6, 62, 0
7, 48212, Note_on_c, 6, 69, 0
7, 48256, Note_on_c, 6, 69, 77
7, 48256, Note_on_c, 6, 65, 77
7, 48256, Note_on_c, 6, 62, 77
7, 48340, Note_on_c, 6, 62, 0
7, 48340, Note_on_c, 6, 65, 0
7, 48340, Note_on_c, 6, 69, 0
7, 48640, Note_on_c, 6, 62, 59
7, 48640, Note_on_c, 6, 65, 70
7, 48640, Note_on_c, 6, 69, 54
7, 48712, Note_on_c, 6, 69, 0
7, 48712, Note_on_c, 6, 65, 0
7, 48712, Note_on_c, 6, 62, 0
7, 48764, Note_on_c, 6, 65, 86
7, 48764, Note_on_c, 6, 62, 65
7, 48764, Note_on_c, 6, 69, 72
7, 48980, Note_on_c, 6, 69, 0
7, 48980, Note_on_c, 6, 62, 0
7, 48980, Note_on_c, 6, 65, 0
7, 49024, Note_on_c, 6, 65, 57
7, 49024, Note_on_c, 6, 69, 57
7, 49024, Note_on_c, 6, 62, 57
7, 49140, Note_on_c, 6, 62, 0
7, 49140, Note_on_c, 6, 69, 0
7, 49140, Note_on_c, 6, 65, 0
7, 49152, Note_on_c, 6, 69, 54
7, 49152, Note_on_c, 6, 65, 78
7, 49152, Note_on_c, 6, 60, 78
7, 49440, Note_on_c, 6, 69, 0
7, 49464, Note_on_c, 6, 60, 0
7, 49464, Note_on_c, 6, 65, 0
7, 49532, Note_on_c, 6, 65, 78
7, 49532, Note_on_c, 6, 69, 66
7, 49532, Note_on_c, 6, 60, 68
7, 49904, Note_on_c, 6, 60, 0
7, 49904, Note_on_c, 6, 69, 0
7, 49904, Note_on_c, 6, 65, 0
7, 50300, Note_on_c, 6, 65, 69
7, 50300, Note_on_c, 6, 69, 62
7, 50300, Note_on_c, 6, 60, 61
7, 50516, Note_on_c, 6, 65, 0
7, 50544, Note_on_c, 6, 60, 0
7, 50544, Note_on_c, 6, 69, 0
7, 50560, Note_on_c, 6, 65, 61
7, 50560, Note_on_c, 6, 70, 77
7, 50560, Note_on_c, 6, 62, 72
7, 51436, Note_on_c, 6, 62, 0
7, 51436, Note_on_c, 6, 70, 0
7, 51436, Note_on_c, 6, 65, 0
7, 51704, Note_on_c, 6, 72, 78
7, 51712, Note_on_c, 6, 60, 65
7, 51776, Note_on_c, 6, 72, 0
7, 51784, Note_on_c, 6, 60, 0
7, 51836, Note_on_c, 6, 72, 64
7, 51836, Note_on_c, 6, 60, 70
7, 52052, Note_on_c, 6, 60, 0
7, 52052, Note_on_c, 6, 72, 0
7, 52096, Note_on_c, 6, 72, 86
7, 52096, Note_on_c, 6, 60, 79
7, 52212, Note_on_c, 6, 60, 0
7, 52212, Note_on_c, 6, 72, 0
7, 52224, Note_on_c, 6, 67, 67
7, 52224, Note_on_c, 6, 60, 75
7, 52224, Note_on_c, 6, 64, 65
7, 52852, Note_on_c, 6, 64, 0
7, 52852, Note_on_c, 6, 60, 0
7, 52852, Note_on_c, 6, 67, 0
7, 52864, Note_on_c, 6, 69, 62
7, 52864, Note_on_c, 6, 62, 58
7, 52864, Note_on_c, 6, 65, 68
7, 53364, Note_on_c, 6, 65, 0
7, 53364, Note_on_c, 6, 62, 0
7, 53364, Note_on_c, 6, 69, 0
7, 53372, Note_on_c, 6, 72, 70
7, 53372, Note_on_c, 6, 60, 83
7, 53588, Note_on_c, 6, 60, 0
7, 53588, Note_on_c, 6, 72, 0
7, 53632, Note_on_c, 6, 60, 78
7, 53632, Note_on_c, 6, 72, 81
7, 53748, Note_on_c, 6, 72, 0
7, 53748, Note_on_c, 6, 60, 0
7, 54140, Note_on_c, 6, 72, 81
7, 54140, Note_on_c, 6, 60, 74
7, 54356, Note_on_c, 6, 60, 0
7, 54356, Note_on_c, 6, 72, 0
7, 54400, Note_on_c, 6, 72, 68
7, 54400, Note_on_c, 6, 60, 71
7, 54516, Note_on_c, 6, 60, 0
7, 54516, Note_on_c, 6, 72, 0
7, 54908, Note_on_c, 6, 72, 65
7, 54908, Note_on_c, 6, 60, 66
7, 55124, Note_on_c, 6, 60, 0
7, 55124, Note_on_c, 6, 72, 0
7, 55168, Note_on_c, 6, 72, 61
7, 55168, Note_on_c, 6, 60, 80
7, 55284, Note_on_c, 6, 60, 0
7, 55284, Note_on_c, 6, 72, 0
7, 55296, Note_on_c, 6, 60, 64
7, 55296, Note_on_c, 6, 67, 64
7, 55296, Note_on_c, 6, 64, 43
7, 55924, Note_on_c, 6, 64, 0
7, 55924, Note_on_c, 6, 67, 0
7, 55924, Note_on_c, 6, 60, 0
7, 55936, Note_on_c, 6, 62, 66
7, 55936, Note_on_c, 6, 69, 65
7, 55936, Note_on_c, 6, 65, 81
7, 56656, Note_on_c, 6, 65, 0
7, 56656, Note_on_c, 6, 69, 0
7, 56656, Note_on_c, 6, 62, 0
7, 56704, Note_on_c, 6, 69, 68
7, 56704, Note_on_c, 6, 65, 87
7, 56704, Note_on_c, 6, 62, 74
7, 57196, Note_on_c, 6, 65, 0
7, 57204, Note_on_c, 6, 62, 0
7, 57204, Note_on_c, 6, 69, 0
7, 57212, Note_on_c, 6, 67, 47
7, 57212, Note_on_c, 6, 64, 58
7, 57212, Note_on_c, 6, 72, 70
7, 57428, Note_on_c, 6, 72, 0
7, 57428, Note_on_c, 6, 64, 0
7, 57428, Note_on_c, 6, 67, 0
7, 57472, Note_on_c, 6, 67, 70
7, 57472, Note_on_c, 6, 72, 79
7, 57472, Note_on_c, 6, 64, 64
7, 57588, Note_on_c, 6, 64, 0
7, 57588, Note_on_c, 6, 72, 0
7, 57588, Note_on_c, 6, 67, 0
7, 58240, Note_on_c, 6, 60, 70
7, 58356, Note_on_c, 6, 60, 0
7, 58496, Note_on_c, 6, 60, 74
7, 58612, Note_on_c, 6, 60, 0
7, 58624, Note_on_c, 6, 57, 87
7, 58720, Note_on_c, 6, 57, 0
7, 58748, Note_on_c, 6, 60, 96
7, 58964, Note_on_c, 6, 60, 0
7, 59008, Note_on_c, 6, 60, 82
7, 59124, Note_on_c, 6, 60, 0
7, 59264, Note_on_c, 6, 60, 73
7, 59380, Note_on_c, 6, 60, 0
7, 59392, Note_on_c, 6, 57, 73
7, 59508, Note_on_c, 6, 57, 0
7, 59516, Note_on_c, 6, 60, 83
7, 59760, Note_on_c, 6, 60, 0
7, 59776, Note_on_c, 6, 62, 87
7, 59892, Note_on_c, 6, 62, 0
7, 60032, Note_on_c, 6, 62, 65
7, 60148, Note_on_c, 6, 62, 0
7, 60160, Note_on_c, 6, 60, 69
7, 60276, Note_on_c, 6, 60, 0
7, 60284, Note_on_c, 6, 62, 84
7, 60528, Note_on_c, 6, 62, 0
7, 60544, Note_on_c, 6, 60, 73
7, 60660, Note_on_c, 6, 60, 0
7, 60800, Note_on_c, 6, 60, 79
7, 60916, Note_on_c, 6, 60, 0
7, 60928, Note_on_c, 6, 57, 77
7, 61044, Note_on_c, 6, 57, 0
7, 61052, Note_on_c, 6, 60, 79
7, 61268, Note_on_c, 6, 60, 0
7, 61312, Note_on_c, 6, 60, 81
7, 61428, Note_on_c, 6, 60, 0
7, 61568, Note_on_c, 6, 60, 71
7, 61684, Note_on_c, 6, 60, 0
7, 61696, Note_on_c, 6, 57, 84
7, 61812, Note_on_c, 6, 57, 0
7, 61820, Note_on_c, 6, 60, 86
7, 62036, Note_on_c, 6, 60, 0
7, 62080, Note_on_c, 6, 60, 78
7, 62196, Note_on_c, 6, 60, 0
7, 62336, Note_on_c, 6, 60, 76
7, 62452, Note_on_c, 6, 60, 0
7, 62464, Note_on_c, 6, 57, 74
7, 62580, Note_on_c, 6, 57, 0
7, 62588, Note_on_c, 6, 60, 79
7, 62832, Note_on_c, 6, 60, 0
7, 62848, Note_on_c, 6, 62, 71
7, 62964, Note_on_c, 6, 62, 0
7, 63356, Note_on_c, 6, 62, 59
7, 63600, Note_on_c, 6, 62, 0
7, 63616, Note_on_c, 6, 60, 81
7, 63732, Note_on_c, 6, 60, 0
7, 63872, Note_on_c, 6, 60, 78
7, 63872, Note_on_c, 6, 72, 78
7, 63944, Note_on_c, 6, 72, 0
7, 63944, Note_on_c, 6, 60, 0
7, 64000, Note_on_c, 6, 60, 77
7, 64000, Note_on_c, 6, 72, 57
7, 64072, Note_on_c, 6, 72, 0
7, 64072, Note_on_c, 6, 60, 0
7, 64124, Note_on_c, 6, 72, 71
7, 64124, Note_on_c, 6, 60, 81
7, 64340, Note_on_c, 6, 60, 0
7, 64340, Note_on_c, 6, 72, 0
7, 64384, Note_on_c, 6, 60, 86
7, 64384, Note_on_c, 6, 72, 74
7, 64500, Note_on_c, 6, 72, 0
7, 64500, Note_on_c, 6, 60, 0
7, 64640, Note_on_c, 6, 60, 90
7, 64756, Note_on_c, 6, 60, 0
7, 64768, Note_on_c, 6, 57, 74
7, 64884, Note_on_c, 6, 57, 0
7, 64892, Note_on_c, 6, 60, 91
7, 65108, Note_on_c, 6, 60, 0
7, 65152, Note_on_c, 6, 60, 83
7, 65268, Note_on_c, 6, 60, 0
7, 65408, Note_on_c, 6, 60, 90
7, 65524, Note_on_c, 6, 60, 0
7, 65536, Note_on_c, 6, 57, 68
7, 65652, Note_on_c, 6, 57, 0
7, 65660, Note_on_c, 6, 60, 82
7, 65904, Note_on_c, 6, 60, 0
7, 65920, Note_on_c, 6, 62, 76
7, 66036, Note_on_c, 6, 62, 0
7, 66176, Note_on_c, 6, 62, 55
7, 66292, Note_on_c, 6, 62, 0
7, 66304, Note_on_c, 6, 60, 74
7, 66420, Note_on_c, 6, 60, 0
7, 66428, Note_on_c, 6, 62, 78
7, 66672, Note_on_c, 6, 62, 0
7, 66688, Note_on_c, 6, 60, 78
7, 66804, Note_on_c, 6, 60, 0
7, 66944, Note_on_c, 6, 60, 87
7, 67060, Note_on_c, 6, 60, 0
7, 67072, Note_on_c, 6, 57, 69
7, 67188, Note_on_c, 6, 57, 0
7, 67196, Note_on_c, 6, 60, 93
7, 67412, Note_on_c, 6, 60, 0
7, 67456, Note_on_c, 6, 60, 88
7, 67552, Note_on_c, 6, 60, 0
7, 67712, Note_on_c, 6, 60, 85
7, 67828, Note_on_c, 6, 60, 0
7, 67840, Note_on_c, 6, 57, 79
7, 67956, Note_on_c, 6, 57, 0
7, 67964, Note_on_c, 6, 60, 88
7, 68180, Note_on_c, 6, 60, 0
7, 68224, Note_on_c, 6, 60, 81
7, 68340, Note_on_c, 6, 60, 0
7, 68480, Note_on_c, 6, 60, 82
7, 68596, Note_on_c, 6, 60, 0
7, 68608, Note_on_c, 6, 57, 74
7, 68724, Note_on_c, 6, 57, 0
7, 68732, Note_on_c, 6, 60, 88
7, 68976, Note_on_c, 6, 60, 0
7, 68992, Note_on_c, 6, 62, 71
7, 69108, Note_on_c, 6, 62, 0
7, 69500, Note_on_c, 6, 62, 79
7, 69744, Note_on_c, 6, 62, 0
7, 69760, Note_on_c, 6, 60, 94
7, 69876, Note_on_c, 6, 60, 0
7, 70016, Note_on_c, 6, 72, 81
7, 70016, Note_on_c, 6, 60, 67
7, 70088, Note_on_c, 6, 60, 0
7, 70088, Note_on_c, 6, 72, 0
7, 70144, Note_on_c, 6, 60, 78
7, 70144, Note_on_c, 6, 72, 76
7, 70216, Note_on_c, 6, 72, 0
7, 70216, Note_on_c, 6, 60, 0
7, 70268, Note_on_c, 6, 60, 83
7, 70268, Note_on_c, 6, 72, 81
7, 70484, Note_on_c, 6, 72, 0
7, 70484, Note_on_c, 6, 60, 0
7, 70528, Note_on_c, 6, 72, 82
7, 70528, Note_on_c, 6, 60, 86
7, 70644, Note_on_c, 6, 60, 0
7, 70644, Note_on_c, 6, 72, 0
7, 70656, Note_on_c, 6, 65, 77
7, 70656, Note_on_c, 6, 69, 63
7, 70656, Note_on_c, 6, 60, 70
7, 72000, Note_on_c, 6, 69, 0
7, 72000, Note_on_c, 6, 65, 0
7, 72052, Note_on_c, 6, 60, 0
7, 72064, Note_on_c, 6, 65, 82
7, 72064, Note_on_c, 6, 69, 69
7, 72064, Note_on_c, 6, 62, 66
7, 73580, Note_on_c, 6, 62, 0
7, 73580, Note_on_c, 6, 69, 0
7, 73580, Note_on_c, 6, 65, 0
7, 73600, Note_on_c, 6, 60, 73
7, 73600, Note_on_c, 6, 67, 74
7, 73600, Note_on_c, 6, 64, 72
7, 74868, Note_on_c, 6, 64, 0
7, 74868, Note_on_c, 6, 67, 0
7, 74868, Note_on_c, 6, 60, 0
7, 75520, Note_on_c, 6, 46, 80
7, 75636, Note_on_c, 6, 46, 0
7, 75644, Note_on_c, 6, 49, 80
7, 75760, Note_on_c, 6, 49, 0
7, 75776, Note_on_c, 6, 50, 78
7, 75892, Note_on_c, 6, 50, 0
7, 75904, Note_on_c, 6, 58, 87
7, 76404, Note_on_c, 6, 58, 0
7, 76672, Note_on_c, 6, 70, 89
7, 76672, Note_on_c, 6, 63, 80
7, 76672, Note_on_c, 6, 65, 83
7, 77112, Note_on_c, 6, 65, 0
7, 77112, Note_on_c, 6, 63, 0
7, 77112, Note_on_c, 6, 70, 0
7, 77180, Note_on_c, 6, 70, 95
7, 77180, Note_on_c, 6, 63, 88
7, 77180, Note_on_c, 6, 65, 85
7, 77396, Note_on_c, 6, 65, 0
7, 77396, Note_on_c, 6, 70, 0
7, 77420, Note_on_c, 6, 63, 0
7, 77440, Note_on_c, 6, 62, 76
7, 77440, Note_on_c, 6, 70, 90
7, 77440, Note_on_c, 6, 65, 87
7, 78324, Note_on_c, 6, 65, 0
7, 78324, Note_on_c, 6, 70, 0
7, 78324, Note_on_c, 6, 62, 0
7, 78336, Note_on_c, 6, 69, 79
7, 78336, Note_on_c, 6, 65, 86
7, 78336, Note_on_c, 6, 60, 77
7, 78452, Note_on_c, 6, 60, 0
7, 78452, Note_on_c, 6, 65, 0
7, 78452, Note_on_c, 6, 69, 0
7, 78976, Note_on_c, 6, 60, 83
7, 78976, Note_on_c, 6, 65, 88
7, 78976, Note_on_c, 6, 69, 77
7, 79092, Note_on_c, 6, 69, 0
7, 79092, Note_on_c, 6, 65, 0
7, 79092, Note_on_c, 6, 60, 0
7, 79484, Note_on_c, 6, 62, 87
7, 79484, Note_on_c, 6, 69, 82
7, 79484, Note_on_c, 6, 65, 90
7, 80616, Note_on_c, 6, 65, 0
7, 80616, Note_on_c, 6, 69, 0
7, 80616, Note_on_c, 6, 62, 0
7, 80640, Note_on_c, 6, 60, 75
7, 80640, Note_on_c, 6, 64, 71
7, 80640, Note_on_c, 6, 67, 70
7, 81268, Note_on_c, 6, 67, 0
7, 81268, Note_on_c, 6, 64, 0
7, 81268, Note_on_c, 6, 60, 0
7, 81408, Note_on_c, 6, 69, 72
7, 81408, Note_on_c, 6, 60, 81
7, 81408, Note_on_c, 6, 65, 83
7, 81524, Note_on_c, 6, 65, 0
7, 81524, Note_on_c, 6, 60, 0
7, 81524, Note_on_c, 6, 69, 0
7, 82048, Note_on_c, 6, 60, 85
7, 82048, Note_on_c, 6, 65, 88
7, 82048, Note_on_c, 6, 69, 79
7, 82164, Note_on_c, 6, 69, 0
7, 82164, Note_on_c, 6, 65, 0
7, 82164, Note_on_c, 6, 60, 0
7, 82556, Note_on_c, 6, 64, 70
7, 82556, Note_on_c, 6, 67, 71
7, 82556, Note_on_c, 6, 60, 81
7, 82800, Note_on_c, 6, 60, 0
7, 82800, Note_on_c, 6, 67, 0
7, 82800, Note_on_c, 6, 64, 0
7, 82816, Note_on_c, 6, 62, 69
7, 82816, Note_on_c, 6, 65, 88
7, 82816, Note_on_c, 6, 57, 87
7, 83256, Note_on_c, 6, 57, 0
7, 83256, Note_on_c, 6, 65, 0
7, 83256, Note_on_c, 6, 62, 0
7, 83324, Note_on_c, 6, 57, 71
7, 83324, Note_on_c, 6, 65, 90
7, 83324, Note_on_c, 6, 62, 70
7, 83564, Note_on_c, 6, 57, 0
7, 83568, Note_on_c, 6, 62, 0
7, 83568, Note_on_c, 6, 65, 0
7, 83584, Note_on_c, 6, 55, 83
7, 83584, Note_on_c, 6, 60, 85
7, 83584, Note_on_c, 6, 64, 67
7, 84340, Note_on_c, 6, 64, 0
7, 84340, Note_on_c, 6, 60, 0
7, 84340, Note_on_c, 6, 55, 0
7, 85120, Note_on_c, 6, 53, 68
7, 85236, Note_on_c, 6, 53, 0
7, 85248, Note_on_c, 6, 55, 69
7, 85376, Note_on_c, 6, 57, 72
7, 85380, Note_on_c, 6, 55, 0
7, 85492, Note_on_c, 6, 57, 0
7, 85504, Note_on_c, 6, 65, 98
7, 85620, Note_on_c, 6, 65, 0
7, 86656, Note_on_c, 6, 53, 69
7, 86772, Note_on_c, 6, 53, 0
7, 86784, Note_on_c, 6, 55, 66
7, 86912, Note_on_c, 6, 57, 70
7, 86916, Note_on_c, 6, 55, 0
7, 87028, Note_on_c, 6, 57, 0
7, 87040, Note_on_c, 6, 65, 78
7, 87156, Note_on_c, 6, 65, 0
7, 88192, Note_on_c, 6, 53, 74
7, 88308, Note_on_c, 6, 53, 0
7, 88320, Note_on_c, 6, 55, 63
7, 88436, Note_on_c, 6, 55, 0
7, 88448, Note_on_c, 6, 57, 65
7, 88564, Note_on_c, 6, 57, 0
7, 88576, Note_on_c, 6, 65, 51
7, 88692, Note_on_c, 6, 65, 0
7, 88960, Note_on_c, 6, 62, 53
7, 88960, Note_on_c, 6, 70, 79
7, 88960, Note_on_c, 6, 65, 69
7, 89280, Note_on_c, 6, 65, 0
7, 89280, Note_on_c, 6, 70, 0
7, 89280, Note_on_c, 6, 62, 0
7, 89344, Note_on_c, 6, 70, 75
7, 89344, Note_on_c, 6, 62, 60
7, 89344, Note_on_c, 6, 65, 69
7, 89416, Note_on_c, 6, 65, 0
7, 89416, Note_on_c, 6, 62, 0
7, 89416, Note_on_c, 6, 70, 0
7, 89468, Note_on_c, 6, 65, 77
7, 89468, Note_on_c, 6, 62, 62
7, 89468, Note_on_c, 6, 70, 70
7, 89684, Note_on_c, 6, 70, 0
7, 89684, Note_on_c, 6, 62, 0
7, 89684, Note_on_c, 6, 65, 0
7, 89728, Note_on_c, 6, 70, 70
7, 89728, Note_on_c, 6, 65, 70
7, 89728, Note_on_c, 6, 62, 70
7, 89812, Note_on_c, 6, 62, 0
7, 89812, Note_on_c, 6, 65, 0
7, 89812, Note_on_c, 6, 70, 0
7, 90112, Note_on_c, 6, 58, 69
7, 90184, Note_on_c, 6, 58, 0
7, 90236, Note_on_c, 6, 58, 73
7, 90480, Note_on_c, 6, 58, 0
7, 90496, Note_on_c, 6, 60, 79
7, 90612, Note_on_c, 6, 60, 0
7, 90624, Note_on_c, 6, 53, 88
7, 91252, Note_on_c, 6, 53, 0
7, 91264, Note_on_c, 6, 57, 66
7, 91380, Note_on_c, 6, 57, 0
7, 91392, Note_on_c, 6, 55, 70
7, 91520, Note_on_c, 6, 57, 69
7, 91524, Note_on_c, 6, 55, 0
7, 91636, Note_on_c, 6, 57, 0
7, 91648, Note_on_c, 6, 65, 80
7, 91764, Note_on_c, 6, 65, 0
7, 92032, Note_on_c, 6, 62, 68
7, 92032, Note_on_c, 6, 69, 68
7, 92032, Note_on_c, 6, 65, 74
7, 92352, Note_on_c, 6, 65, 0
7, 92352, Note_on_c, 6, 69, 0
7, 92352, Note_on_c, 6, 62, 0
7, 92416, Note_on_c, 6, 65, 82
7, 92416, Note_on_c, 6, 62, 67
7, 92416, Note_on_c, 6, 69, 68
7, 92488, Note_on_c, 6, 69, 0
7, 92488, Note_on_c, 6, 62, 0
7, 92488, Note_on_c, 6, 65, 0
7, 92540, Note_on_c, 6, 69, 63
7, 92540, Note_on_c, 6, 62, 63
7, 92540, Note_on_c, 6, 65, 77
7, 92756, Note_on_c, 6, 65, 0
7, 92756, Note_on_c, 6, 62, 0
7, 92756, Note_on_c, 6, 69, 0
7, 92800, Note_on_c, 6, 69, 77
7, 92800, Note_on_c, 6, 65, 77
7, 92800, Note_on_c, 6, 62, 77
7, 92884, Note_on_c, 6, 62, 0
7, 92884, Note_on_c, 6, 65, 0
7, 92884, Note_on_c, 6, 69, 0
7, 93184, Note_on_c, 6, 62, 59
7, 93184, Note_on_c, 6, 65, 70
7, 93184, Note_on_c, 6, 69, 54
7, 93256, Note_on_c, 6, 69, 0
7, 93256, Note_on_c, 6, 65, 0
7, 93256, Note_on_c, 6, 62, 0
7, 93308, Note_on_c, 6, 65, 86
7, 93308, Note_on_c, 6, 62, 65
7, 93308, Note_on_c, 6, 69, 72
7, 93524, Note_on_c, 6, 69, 0
7, 93524, Note_on_c, 6, 62, 0
7, 93524, Note_on_c, 6, 65, 0
7, 93568, Note_on_c, 6, 65, 57
7, 93568, Note_on_c, 6, 69, 57
7, 93568, Note_on_c, 6, 62, 57
7, 93684, Note_on_c, 6, 62, 0
7, 93684, Note_on_c, 6, 69, 0
7, 93684, Note_on_c, 6, 65, 0
7, 93696, Note_on_c, 6, 69, 54
7, 93696, Note_on_c, 6, 65, 78
7, 93696, Note_on_c, 6, 60, 78
7, 94008, Note_on_c, 6, 60, 0
7, 94008, Note_on_c, 6, 65, 0
7, 94008, Note_on_c, 6, 69, 0
7, 94076, Note_on_c, 6, 65, 78
7, 94076, Note_on_c, 6, 69, 66
7, 94076, Note_on_c, 6, 60, 68
7, 94448, Note_on_c, 6, 60, 0
7, 94448, Note_on_c, 6, 69, 0
7, 94448, Note_on_c, 6, 65, 0
7, 94844, Note_on_c, 6, 65, 69
7, 94844, Note_on_c, 6, 69, 62
7, 94844, Note_on_c, 6, 60, 61
7, 95060, Note_on_c, 6, 65, 0
7, 95088, Note_on_c, 6, 60, 0
7, 95088, Note_on_c, 6, 69, 0
7, 95104, Note_on_c, 6, 65, 61
7, 95104, Note_on_c, 6, 70, 77
7, 95104, Note_on_c, 6, 62, 72
7, 95980, Note_on_c, 6, 62, 0
7, 95980, Note_on_c, 6, 70, 0
7, 95980, Note_on_c, 6, 65, 0
7, 96248, Note_on_c, 6, 72, 78
7, 96256, Note_on_c, 6, 60, 65
7, 96320, Note_on_c, 6, 72, 0
7, 96328, Note_on_c, 6, 60, 0
7, 96380, Note_on_c, 6, 72, 64
7, 96380, Note_on_c, 6, 60, 70
7, 96596, Note_on_c, 6, 60, 0
7, 96596, Note_on_c, 6, 72, 0
7, 96640, Note_on_c, 6, 72, 86
7, 96640, Note_on_c, 6, 60, 79
7, 96736, Note_on_c, 6, 72, 0
7, 96756, Note_on_c, 6, 60, 0
7, 96768, Note_on_c, 6, 67, 67
7, 96768, Note_on_c, 6, 60, 75
7, 96768, Note_on_c, 6, 64, 65
7, 97396, Note_on_c, 6, 64, 0
7, 97396, Note_on_c, 6, 60, 0
7, 97396, Note_on_c, 6, 67, 0
7, 97408, Note_on_c, 6, 69, 62
7, 97408, Note_on_c, 6, 62, 58
7, 97408, Note_on_c, 6, 65, 68
7, 97908, Note_on_c, 6, 65, 0
7, 97908, Note_on_c, 6, 62, 0
7, 97908, Note_on_c, 6, 69, 0
7, 97916, Note_on_c, 6, 72, 70
7, 97916, Note_on_c, 6, 60, 83
7, 98132, Note_on_c, 6, 60, 0
7, 98132, Note_on_c, 6, 72, 0
7, 98176, Note_on_c, 6, 60, 78
7, 98176, Note_on_c, 6, 72, 81
7, 98292, Note_on_c, 6, 72, 0
7, 98292, Note_on_c, 6, 60, 0
7, 98684, Note_on_c, 6, 72, 81
7, 98684, Note_on_c, 6, 60, 74
7, 98900, Note_on_c, 6, 60, 0
7, 98900, Note_on_c, 6, 72, 0
7, 98944, Note_on_c, 6, 72, 68
7, 98944, Note_on_c, 6, 60, 71
7, 99060, Note_on_c, 6, 60, 0
7, 99060, Note_on_c, 6, 72, 0
7, 99452, Note_on_c, 6, 72, 65
7, 99452, Note_on_c, 6, 60, 66
7, 99668, Note_on_c, 6, 60, 0
7, 99668, Note_on_c, 6, 72, 0
7, 99712, Note_on_c, 6, 72, 61
7, 99712, Note_on_c, 6, 60, 80
7, 99828, Note_on_c, 6, 60, 0
7, 99828, Note_on_c, 6, 72, 0
7, 99840, Note_on_c, 6, 60, 64
7, 99840, Note_on_c, 6, 67, 64
7, 99840, Note_on_c, 6, 64, 43
7, 100468, Note_on_c, 6, 64, 0
7, 100468, Note_on_c, 6, 67, 0
7, 100468, Note_on_c, 6, 60, 0
7, 100480, Note_on_c, 6, 62, 66
7, 100480, Note_on_c, 6, 69, 65
7, 100480, Note_on_c, 6, 65, 81
7, 101200, Note_on_c, 6, 65, 0
7, 101200, Note_on_c, 6, 69, 0
7, 101200, Note_on_c, 6, 62, 0
7, 101248, Note_on_c, 6, 69, 68
7, 101248, Note_on_c, 6, 65, 87
7, 101248, Note_on_c, 6, 62, 74
7, 101740, Note_on_c, 6, 65, 0
7, 101748, Note_on_c, 6, 62, 0
7, 101748, Note_on_c, 6, 69, 0
7, 101756, Note_on_c, 6, 67, 47
7, 101756, Note_on_c, 6, 64, 58
7, 101756, Note_on_c, 6, 72, 70
7, 101972, Note_on_c, 6, 72, 0
7, 101972, Note_on_c, 6, 64, 0
7, 101972, Note_on_c, 6, 67, 0
7, 102016, Note_on_c, 6, 67, 70
7, 102016, Note_on_c, 6, 72, 79
7, 102016, Note_on_c, 6, 64, 64
7, 102132, Note_on_c, 6, 64, 0
7, 102132, Note_on_c, 6, 72, 0
7, 102132, Note_on_c, 6, 67, 0
7, 102784, Note_on_c, 6, 60, 70
7, 102900, Note_on_c, 6, 60, 0
7, 103040, Note_on_c, 6, 60, 74
7, 103156, Note_on_c, 6, 60, 0
7, 103168, Note_on_c, 6, 57, 87
7, 103284, Note_on_c, 6, 57, 0
7, 103292, Note_on_c, 6, 60, 96
7, 103508, Note_on_c, 6, 60, 0
7, 103552, Note_on_c, 6, 60, 82
7, 103668, Note_on_c, 6, 60, 0
7, 103808, Note_on_c, 6, 60, 73
7, 103924, Note_on_c, 6, 60, 0
7, 103936, Note_on_c, 6, 57, 73
7, 104052, Note_on_c, 6, 57, 0
7, 104060, Note_on_c, 6, 60, 83
7, 104304, Note_on_c, 6, 60, 0
7, 104320, Note_on_c, 6, 62, 87
7, 104436, Note_on_c, 6, 62, 0
7, 104576, Note_on_c, 6, 62, 65
7, 104692, Note_on_c, 6, 62, 0
7, 104704, Note_on_c, 6, 60, 69
7, 104820, Note_on_c, 6, 60, 0
7, 104828, Note_on_c, 6, 62, 84
7, 105072, Note_on_c, 6, 62, 0
7, 105088, Note_on_c, 6, 60, 73
7, 105204, Note_on_c, 6, 60, 0
7, 105344, Note_on_c, 6, 60, 79
7, 105460, Note_on_c, 6, 60, 0
7, 105472, Note_on_c, 6, 57, 77
7, 105588, Note_on_c, 6, 57, 0
7, 105596, Note_on_c, 6, 60, 79
7, 105812, Note_on_c, 6, 60, 0
7, 105856, Note_on_c, 6, 60, 81
7, 105972, Note_on_c, 6, 60, 0
7, 106112, Note_on_c, 6, 60, 71
7, 106228, Note_on_c, 6, 60, 0
7, 106240, Note_on_c, 6, 57, 84
7, 106356, Note_on_c, 6, 57, 0
7, 106364, Note_on_c, 6, 60, 86
7, 106580, Note_on_c, 6, 60, 0
7, 106624, Note_on_c, 6, 60, 78
7, 106740, Note_on_c, 6, 60, 0
7, 106880, Note_on_c, 6, 60, 76
7, 106996, Note_on_c, 6, 60, 0
7, 107008, Note_on_c, 6, 57, 74
7, 107124, Note_on_c, 6, 57, 0
7, 107132, Note_on_c, 6, 60, 79
7, 107376, Note_on_c, 6, 60, 0
7, 107392, Note_on_c, 6, 62, 71
7, 107508, Note_on_c, 6, 62, 0
7, 107900, Note_on_c, 6, 62, 59
7, 108144, Note_on_c, 6, 62, 0
7, 108160, Note_on_c, 6, 60, 81
7, 108276, Note_on_c, 6, 60, 0
7, 108416, Note_on_c, 6, 60, 78
7, 108416, Note_on_c, 6, 72, 78
7, 108488, Note_on_c, 6, 72, 0
7, 108488, Note_on_c, 6, 60, 0
7, 108544, Note_on_c, 6, 60, 77
7, 108544, Note_on_c, 6, 72, 57
7, 108616, Note_on_c, 6, 72, 0
7, 108616, Note_on_c, 6, 60, 0
7, 108668, Note_on_c, 6, 72, 71
7, 108668, Note_on_c, 6, 60, 81
7, 108884, Note_on_c, 6, 60, 0
7, 108884, Note_on_c, 6, 72, 0
7, 108928, Note_on_c, 6, 60, 86
7, 108928, Note_on_c, 6, 72, 74
7, 109044, Note_on_c, 6, 72, 0
7, 109044, Note_on_c, 6, 60, 0
7, 109184, Note_on_c, 6, 60, 90
7, 109300, Note_on_c, 6, 60, 0
7, 109312, Note_on_c, 6, 57, 74
7, 109428, Note_on_c, 6, 57, 0
7, 109436, Note_on_c, 6, 60, 91
7, 109652, Note_on_c, 6, 60, 0
7, 109696, Note_on_c, 6, 60, 83
7, 109812, Note_on_c, 6, 60, 0
7, 109952, Note_on_c, 6, 60, 90
7, 110068, Note_on_c, 6, 60, 0
7, 110080, Note_on_c, 6, 57, 68
7, 110196, Note_on_c, 6, 57, 0
7, 110204, Note_on_c, 6, 60, 82
7, 110448, Note_on_c, 6, 60, 0
7, 110464, Note_on_c, 6, 62, 76
7, 110580, Note_on_c, 6, 62, 0
7, 110720, Note_on_c, 6, 62, 55
7, 110836, Note_on_c, 6, 62, 0
7, 110848, Note_on_c, 6, 60, 74
7, 110964, Note_on_c, 6, 60, 0
7, 110972, Note_on_c, 6, 62, 78
7, 111216, Note_on_c, 6, 62, 0
7, 111232, Note_on_c, 6, 60, 78
7, 111348, Note_on_c, 6, 60, 0
7, 111488, Note_on_c, 6, 60, 87
7, 111604, Note_on_c, 6, 60, 0
7, 111616, Note_on_c, 6, 57, 69
7, 111732, Note_on_c, 6, 57, 0
7, 111740, Note_on_c, 6, 60, 93
7, 111956, Note_on_c, 6, 60, 0
7, 112000, Note_on_c, 6, 60, 88
7, 112116, Note_on_c, 6, 60, 0
7, 112256, Note_on_c, 6, 60, 85
7, 112372, Note_on_c, 6, 60, 0
7, 112384, Note_on_c, 6, 57, 79
7, 112500, Note_on_c, 6, 57, 0
7, 112508, Note_on_c, 6, 60, 88
7, 112724, Note_on_c, 6, 60, 0
7, 112768, Note_on_c, 6, 60, 81
7, 112884, Note_on_c, 6, 60, 0
7, 113024, Note_on_c, 6, 60, 82
7, 113140, Note_on_c, 6, 60, 0
7, 113152, Note_on_c, 6, 57, 74
7, 113268, Note_on_c, 6, 57, 0
7, 113276, Note_on_c, 6, 60, 88
7, 113520, Note_on_c, 6, 60, 0
7, 113536, Note_on_c, 6, 62, 71
7, 113652, Note_on_c, 6, 62, 0
7, 114044, Note_on_c, 6, 62, 79
7, 114288, Note_on_c, 6, 62, 0
7, 114304, Note_on_c, 6, 60, 94
7, 114420, Note_on_c, 6, 60, 0
7, 114560, Note_on_c, 6, 72, 81
7, 114560, Note_on_c, 6, 60, 67
7, 114632, Note_on_c, 6, 60, 0
7, 114632, Note_on_c, 6, 72, 0
7, 114688, Note_on_c, 6, 60, 78
7, 114688, Note_on_c, 6, 72, 76
7, 114760, Note_on_c, 6, 72, 0
7, 114760, Note_on_c, 6, 60, 0
7, 114812, Note_on_c, 6, 60, 83
7, 114812, Note_on_c, 6, 72, 81
7, 115028, Note_on_c, 6, 72, 0
7, 115028, Note_on_c, 6, 60, 0
7, 115072, Note_on_c, 6, 72, 82
7, 115072, Note_on_c, 6, 60, 86
7, 115188, Note_on_c, 6, 60, 0
7, 115188, Note_on_c, 6, 72, 0
7, 115200, Note_on_c, 6, 65, 77
7, 115200, Note_on_c, 6, 69, 63
7, 115200, Note_on_c, 6, 60, 70
7, 116544, Note_on_c, 6, 69, 0
7, 116544, Note_on_c, 6, 65, 0
7, 116596, Note_on_c, 6, 60, 0
7, 116608, Note_on_c, 6, 65, 82
7, 116608, Note_on_c, 6, 69, 69
7, 116608, Note_on_c, 6, 62, 66
7, 118124, Note_on_c, 6, 62, 0
7, 118124, Note_on_c, 6, 69, 0
7, 118124, Note_on_c, 6, 65, 0
7, 118144, Note_on_c, 6, 60, 73
7, 118144, Note_on_c, 6, 67, 74
7, 118144, Note_on_c, 6, 64, 72
7, 119412, Note_on_c, 6, 64, 0
7, 119412, Note_on_c, 6, 67, 0
7, 119412, Note_on_c, 6, 60, 0
7, 120064, Note_on_c, 6, 46, 80
7, 120180, Note_on_c, 6, 46, 0
7, 120188, Note_on_c, 6, 49, 80
7, 120304, Note_on_c, 6, 49, 0
7, 120320, Note_on_c, 6, 50, 78
7, 120436, Note_on_c, 6, 50, 0
7, 120448, Note_on_c, 6, 58, 87
7, 120948, Note_on_c, 6, 58, 0
7, 121216, Note_on_c, 6, 70, 89
7, 121216, Note_on_c, 6, 63, 80
7, 121216, Note_on_c, 6, 65, 83
7, 121656, Note_on_c, 6, 65, 0
7, 121656, Note_on_c, 6, 63, 0
7, 121656, Note_on_c, 6, 70, 0
7, 121724, Note_on_c, 6, 70, 95
7, 121724, Note_on_c, 6, 63, 88
7, 121724, Note_on_c, 6, 65, 85
7, 121940, Note_on_c, 6, 65, 0
7, 121940, Note_on_c, 6, 70, 0
7, 121964, Note_on_c, 6, 63, 0
7, 121984, Note_on_c, 6, 62, 76
7, 121984, Note_on_c, 6, 70, 90
7, 121984, Note_on_c, 6, 65, 87
7, 122868, Note_on_c, 6, 65, 0
7, 122868, Note_on_c, 6, 70, 0
7, 122868, Note_on_c, 6, 62, 0
7, 122880, Note_on_c, 6, 60, 114
7, 123008, Note_on_c, 6, 55, 94
7, 123028, Note_on_c, 6, 60, 0
7, 123124, Note_on_c, 6, 55, 0
7, 123136, Note_on_c, 6, 60, 114
7, 123236, Note_on_c, 6, 60, 0
7, 123392, Note_on_c, 6, 65, 100
7, 123392, Note_on_c, 6, 67, 109
7, 123392, Note_on_c, 6, 72, 103
7, 123436, Note_on_c, 6, 67, 0
7, 123452, Note_on_c, 6, 72, 0
7, 123456, Note_on_c, 6, 65, 0
7, 123520, Note_on_c, 6, 65, 92
7, 123520, Note_on_c, 6, 67, 107
7, 123520, Note_on_c, 6, 72, 107
7, 123560, Note_on_c, 6, 67, 0
7, 123592, Note_on_c, 6, 72, 0
7, 123592, Note_on_c, 6, 65, 0
7, 123648, Note_on_c, 6, 65, 106
7, 123648, Note_on_c, 6, 67, 114
7, 123648, Note_on_c, 6, 72, 111
7, 123840, Note_on_c, 6, 67, 0
7, 123856, Note_on_c, 6, 65, 0
7, 123860, Note_on_c, 6, 72, 0
7, 123904, Note_on_c, 6, 65, 94
7, 123904, Note_on_c, 6, 72, 100
7, 123904, Note_on_c, 6, 67, 103
7, 123968, Note_on_c, 6, 67, 0
7, 123980, Note_on_c, 6, 65, 0
7, 123984, Note_on_c, 6, 72, 0
7, 124160, Note_on_c, 6, 72, 97
7, 124160, Note_on_c, 6, 65, 89
7, 124160, Note_on_c, 6, 67, 94
7, 124200, Note_on_c, 6, 67, 0
7, 124216, Note_on_c, 6, 65, 0
7, 124216, Note_on_c, 6, 72, 0
7, 124288, Note_on_c, 6, 72, 94
7, 124288, Note_on_c, 6, 67, 99
7, 124288, Note_on_c, 6, 65, 91
7, 124332, Note_on_c, 6, 67, 0
7, 124352, Note_on_c, 6, 65, 0
7, 124352, Note_on_c, 6, 72, 0
7, 124416, Note_on_c, 6, 65, 102
7, 124416, Note_on_c, 6, 67, 109
7, 124416, Note_on_c, 6, 72, 110
7, 124608, Note_on_c, 6, 72, 0
7, 124608, Note_on_c, 6, 65, 0
7, 124612, Note_on_c, 6, 67, 0
7, 124672, Note_on_c, 6, 72, 104
7, 124672, Note_on_c, 6, 67, 107
7, 124672, Note_on_c, 6, 65, 100
7, 124740, Note_on_c, 6, 67, 0
7, 124768, Note_on_c, 6, 65, 0
7, 124768, Note_on_c, 6, 72, 0
7, 124928, Note_on_c, 6, 72, 101
7, 124928, Note_on_c, 6, 67, 105
7, 124928, Note_on_c, 6, 65, 94
7, 124972, Note_on_c, 6, 72, 0
7, 124980, Note_on_c, 6, 67, 0
7, 124996, Note_on_c, 6, 65, 0
7, 125056, Note_on_c, 6, 72, 100
7, 125056, Note_on_c, 6, 67, 99
7, 125056, Note_on_c, 6, 65, 88
7, 125104, Note_on_c, 6, 67, 0
7, 125120, Note_on_c, 6, 72, 0
7, 125136, Note_on_c, 6, 65, 0
7, 125184, Note_on_c, 6, 65, 104
7, 125184, Note_on_c, 6, 67, 114
7, 125184, Note_on_c, 6, 72, 114
7, 125364, Note_on_c, 6, 67, 0
7, 125376, Note_on_c, 6, 72, 0
7, 125376, Note_on_c, 6, 65, 0
7, 125440, Note_on_c, 6, 72, 113
7, 125440, Note_on_c, 6, 67, 114
7, 125440, Note_on_c, 6, 65, 106
7, 125536, Note_on_c, 6, 67, 0
7, 125552, Note_on_c, 6, 72, 0
7, 125568, Note_on_c, 6, 65, 0
7, 125952, Note_on_c, 6, 60, 114
7, 126072, Note_on_c, 6, 60, 0
7, 126080, Note_on_c, 6, 55, 103
7, 126208, Note_on_c, 6, 60, 114
7, 126232, Note_on_c, 6, 55, 0
7, 126296, Note_on_c, 6, 60, 0
7, 126464, Note_on_c, 6, 72, 104
7, 126464, Note_on_c, 6, 67, 114
7, 126464, Note_on_c, 6, 65, 101
7, 126500, Note_on_c, 6, 67, 0
7, 126516, Note_on_c, 6, 72, 0
7, 126528, Note_on_c, 6, 65, 0
7, 126592, Note_on_c, 6, 72, 104
7, 126592, Note_on_c, 6, 67, 103
7, 126592, Note_on_c, 6, 65, 94
7, 126640, Note_on_c, 6, 67, 0
7, 126652, Note_on_c, 6, 65, 0
7, 126652, Note_on_c, 6, 72, 0
7, 126720, Note_on_c, 6, 65, 101
7, 126720, Note_on_c, 6, 67, 112
7, 126720, Note_on_c, 6, 72, 111
7, 126912, Note_on_c, 6, 72, 0
7, 126912, Note_on_c, 6, 65, 0
7, 126924, Note_on_c, 6, 67, 0
7, 126976, Note_on_c, 6, 72, 106
7, 126976, Note_on_c, 6, 67, 107
7, 126976, Note_on_c, 6, 65, 100
7, 127056, Note_on_c, 6, 67, 0
7, 127080, Note_on_c, 6, 65, 0
7, 127080, Note_on_c, 6, 72, 0
7, 127232, Note_on_c, 6, 72, 110
7, 127232, Note_on_c, 6, 67, 112
7, 127232, Note_on_c, 6, 65, 100
7, 127272, Note_on_c, 6, 67, 0
7, 127284, Note_on_c, 6, 72, 0
7, 127288, Note_on_c, 6, 65, 0
7, 127360, Note_on_c, 6, 72, 103
7, 127360, Note_on_c, 6, 67, 101
7, 127360, Note_on_c, 6, 65, 94
7, 127416, Note_on_c, 6, 67, 0
7, 127436, Note_on_c, 6, 72, 0
7, 127440, Note_on_c, 6, 65, 0
7, 127488, Note_on_c, 6, 65, 98
7, 127488, Note_on_c, 6, 67, 107
7, 127488, Note_on_c, 6, 72, 110
7, 127660, Note_on_c, 6, 72, 0
7, 127660, Note_on_c, 6, 67, 0
7, 127660, Note_on_c, 6, 65, 0
7, 127744, Note_on_c, 6, 72, 108
7, 127744, Note_on_c, 6, 67, 109
7, 127744, Note_on_c, 6, 65, 103
7, 127868, Note_on_c, 6, 67, 0
7, 127884, Note_on_c, 6, 72, 0
7, 127896, Note_on_c, 6, 65, 0
7, 128000, Note_on_c, 6, 72, 104
7, 128000, Note_on_c, 6, 67, 97
7, 128000, Note_on_c, 6, 65, 90
7, 128044, Note_on_c, 6, 67, 0
7, 128060, Note_on_c, 6, 65, 0
7, 128064, Note_on_c, 6, 72, 0
7, 128128, Note_on_c, 6, 65, 101
7, 128128, Note_on_c, 6, 67, 109
7, 128128, Note_on_c, 6, 72, 110
7, 128200, Note_on_c, 6, 67, 0
7, 128216, Note_on_c, 6, 72, 0
7, 128216, Note_on_c, 6, 65, 0
7, 128256, Note_on_c, 6, 65, 96
7, 128256, Note_on_c, 6, 67, 109
7, 128256, Note_on_c, 6, 72, 110
7, 128396, Note_on_c, 6, 67, 0
7, 128412, Note_on_c, 6, 72, 0
7, 128424, Note_on_c, 6, 65, 0
7, 128512, Note_on_c, 6, 72, 114
7, 128512, Note_on_c, 6, 67, 109
7, 128512, Note_on_c, 6, 65, 106
7, 128624, Note_on_c, 6, 67, 0
7, 128640, Note_on_c, 6, 72, 0
7, 128644, Note_on_c, 6, 65, 0
7, 129024, Note_on_c, 6, 69, 59
7, 129024, Note_on_c, 6, 65, 82
7, 129024, Note_on_c, 6, 60, 72
7, 129216, Note_on_c, 6, 60, 0
7, 129216, Note_on_c, 6, 65, 0
7, 129216, Note_on_c, 6, 69, 0
7, 129280, Note_on_c, 6, 69, 58
7, 129280, Note_on_c, 6, 60, 71
7, 129280, Note_on_c, 6, 65, 74
7, 129352, Note_on_c, 6, 65, 0
7, 129352, Note_on_c, 6, 60, 0
7, 129352, Note_on_c, 6, 69, 0
7, 129404, Note_on_c, 6, 69, 69
7, 129404, Note_on_c, 6, 65, 87
7, 129404, Note_on_c, 6, 60, 76
7, 129520, Note_on_c, 6, 60, 0
7, 129520, Note_on_c, 6, 65, 0
7, 129520, Note_on_c, 6, 69, 0
7, 129792, Note_on_c, 6, 69, 63
7, 129792, Note_on_c, 6, 65, 71
7, 129792, Note_on_c, 6, 60, 63
7, 129984, Note_on_c, 6, 60, 0
7, 129984, Note_on_c, 6, 65, 0
7, 129984, Note_on_c, 6, 69, 0
7, 130048, Note_on_c, 6, 69, 71
7, 130048, Note_on_c, 6, 60, 76
7, 130048, Note_on_c, 6, 65, 87
7, 130164, Note_on_c, 6, 65, 0
7, 130164, Note_on_c, 6, 60, 0
7, 130164, Note_on_c, 6, 69, 0
7, 130432, Note_on_c, 6, 62, 67
7, 130432, Note_on_c, 6, 65, 86
7, 130432, Note_on_c, 6, 69, 70
7, 130676, Note_on_c, 6, 69, 0
7, 130676, Note_on_c, 6, 65, 0
7, 130676, Note_on_c, 6, 62, 0
7, 130816, Note_on_c, 6, 62, 66
7, 130816, Note_on_c, 6, 65, 82
7, 130816, Note_on_c, 6, 69, 61
7, 130888, Note_on_c, 6, 69, 0
7, 130888, Note_on_c, 6, 65, 0
7, 130888, Note_on_c, 6, 62, 0
7, 130940, Note_on_c, 6, 65, 84
7, 130940, Note_on_c, 6, 69, 68
7, 130940, Note_on_c, 6, 62, 69
7, 131056, Note_on_c, 6, 62, 0
7, 131056, Note_on_c, 6, 69, 0
7, 131056, Note_on_c, 6, 65, 0
7, 131328, Note_on_c, 6, 69, 70
7, 131328, Note_on_c, 6, 62, 64
7, 131328, Note_on_c, 6, 65, 82
7, 131444, Note_on_c, 6, 65, 0
7, 131444, Note_on_c, 6, 62, 0
7, 131444, Note_on_c, 6, 69, 0
7, 131708, Note_on_c, 6, 65, 81
7, 131708, Note_on_c, 6, 69, 64
7, 131708, Note_on_c, 6, 62, 64
7, 131824, Note_on_c, 6, 62, 0
7, 131824, Note_on_c, 6, 69, 0
7, 131824, Note_on_c, 6, 65, 0
7, 132096, Note_on_c, 6, 69, 62
7, 132096, Note_on_c, 6, 65, 82
7, 132096, Note_on_c, 6, 60, 74
7, 132212, Note_on_c, 6, 60, 0
7, 132212, Note_on_c, 6, 65, 0
7, 132212, Note_on_c, 6, 69, 0
7, 132352, Note_on_c, 6, 60, 57
7, 132352, Note_on_c, 6, 69, 44
7, 132352, Note_on_c, 6, 65, 73
7, 132424, Note_on_c, 6, 65, 0
7, 132424, Note_on_c, 6, 69, 0
7, 132424, Note_on_c, 6, 60, 0
7, 132476, Note_on_c, 6, 65, 83
7, 132476, Note_on_c, 6, 69, 71
7, 132476, Note_on_c, 6, 60, 76
7, 132592, Note_on_c, 6, 60, 0
7, 132592, Note_on_c, 6, 69, 0
7, 132592, Note_on_c, 6, 65, 0
7, 132864, Note_on_c, 6, 69, 66
7, 132864, Note_on_c, 6, 65, 79
7, 132864, Note_on_c, 6, 60, 72
7, 133056, Note_on_c, 6, 60, 0
7, 133056, Note_on_c, 6, 65, 0
7, 133056, Note_on_c, 6, 69, 0
7, 133120, Note_on_c, 6, 69, 72
7, 133120, Note_on_c, 6, 60, 78
7, 133120, Note_on_c, 6, 65, 84
7, 133236, Note_on_c, 6, 65, 0
7, 133236, Note_on_c, 6, 60, 0
7, 133236, Note_on_c, 6, 69, 0
7, 133504, Note_on_c, 6, 65, 79
7, 133504, Note_on_c, 6, 70, 88
7, 133504, Note_on_c, 6, 62, 74
7, 133748, Note_on_c, 6, 62, 0
7, 133748, Note_on_c, 6, 70, 0
7, 133748, Note_on_c, 6, 65, 0
7, 133888, Note_on_c, 6, 70, 63
7, 133888, Note_on_c, 6, 62, 64
7, 133888, Note_on_c, 6, 65, 76
7, 133960, Note_on_c, 6, 65, 0
7, 133960, Note_on_c, 6, 62, 0
7, 133960, Note_on_c, 6, 70, 0
7, 134012, Note_on_c, 6, 65, 86
7, 134012, Note_on_c, 6, 62, 70
7, 134012, Note_on_c, 6, 70, 82
7, 134204, Note_on_c, 6, 65, 0
7, 134228, Note_on_c, 6, 70, 0
7, 134228, Note_on_c, 6, 62, 0
7, 134272, Note_on_c, 6, 70, 86
7, 134272, Note_on_c, 6, 62, 72
7, 134272, Note_on_c, 6, 65, 81
7, 134488, Note_on_c, 6, 70, 0
7, 134516, Note_on_c, 6, 65, 0
7, 134516, Note_on_c, 6, 62, 0
7, 134656, Note_on_c, 6, 70, 78
7, 134656, Note_on_c, 6, 62, 73
7, 134656, Note_on_c, 6, 65, 79
7, 134728, Note_on_c, 6, 65, 0
7, 134728, Note_on_c, 6, 62, 0
7, 134728, Note_on_c, 6, 70, 0
7, 134780, Note_on_c, 6, 65, 84
7, 134780, Note_on_c, 6, 62, 70
7, 134780, Note_on_c, 6, 70, 76
7, 134852, Note_on_c, 6, 70, 0
7, 134852, Note_on_c, 6, 62, 0
7, 134852, Note_on_c, 6, 65, 0
7, 134912, Note_on_c, 6, 70, 76
7, 134912, Note_on_c, 6, 62, 69
7, 134912, Note_on_c, 6, 65, 85
7, 134984, Note_on_c, 6, 65, 0
7, 134984, Note_on_c, 6, 62, 0
7, 134984, Note_on_c, 6, 70, 0
7, 135040, Note_on_c, 6, 70, 77
7, 135040, Note_on_c, 6, 62, 70
7, 135040, Note_on_c, 6, 65, 85
7, 135156, Note_on_c, 6, 65, 0
7, 135156, Note_on_c, 6, 62, 0
7, 135156, Note_on_c, 6, 70, 0
7, 135168, Note_on_c, 6, 65, 86
7, 135168, Note_on_c, 6, 69, 69
7, 135168, Note_on_c, 6, 60, 81
7, 135360, Note_on_c, 6, 60, 0
7, 135360, Note_on_c, 6, 69, 0
7, 135360, Note_on_c, 6, 65, 0
7, 135424, Note_on_c, 6, 69, 59
7, 135424, Note_on_c, 6, 60, 69
7, 135424, Note_on_c, 6, 65, 72
7, 135496, Note_on_c, 6, 65, 0
7, 135496, Note_on_c, 6, 60, 0
7, 135496, Note_on_c, 6, 69, 0
7, 135548, Note_on_c, 6, 65, 85
7, 135548, Note_on_c, 6, 60, 77
7, 135548, Note_on_c, 6, 69, 69
7, 135644, Note_on_c, 6, 65, 0
7, 135664, Note_on_c, 6, 69, 0
7, 135664, Note_on_c, 6, 60, 0
7, 135936, Note_on_c, 6, 65, 78
7, 135936, Note_on_c, 6, 69, 67
7, 135936, Note_on_c, 6, 60, 70
7, 136052, Note_on_c, 6, 60, 0
7, 136052, Note_on_c, 6, 69, 0
7, 136052, Note_on_c, 6, 65, 0
7, 136192, Note_on_c, 6, 60, 74
7, 136192, Note_on_c, 6, 69, 72
7, 136192, Note_on_c, 6, 65, 78
7, 136308, Note_on_c, 6, 65, 0
7, 136308, Note_on_c, 6, 69, 0
7, 136308, Note_on_c, 6, 60, 0
7, 136576, Note_on_c, 6, 69, 71
7, 136576, Note_on_c, 6, 62, 74
7, 136576, Note_on_c, 6, 65, 89
7, 136820, Note_on_c, 6, 65, 0
7, 136820, Note_on_c, 6, 62, 0
7, 136820, Note_on_c, 6, 69, 0
7, 136960, Note_on_c, 6, 62, 59
7, 136960, Note_on_c, 6, 69, 51
7, 136960, Note_on_c, 6, 65, 72
7, 137032, Note_on_c, 6, 65, 0
7, 137032, Note_on_c, 6, 69, 0
7, 137032, Note_on_c, 6, 62, 0
7, 137084, Note_on_c, 6, 65, 83
7, 137084, Note_on_c, 6, 69, 67
7, 137084, Note_on_c, 6, 62, 71
7, 137200, Note_on_c, 6, 62, 0
7, 137200, Note_on_c, 6, 69, 0
7, 137200, Note_on_c, 6, 65, 0
7, 137472, Note_on_c, 6, 62, 68
7, 137472, Note_on_c, 6, 65, 83
7, 137472, Note_on_c, 6, 69, 67
7, 137588, Note_on_c, 6, 69, 0
7, 137588, Note_on_c, 6, 65, 0
7, 137588, Note_on_c, 6, 62, 0
7, 137852, Note_on_c, 6, 65, 88
7, 137852, Note_on_c, 6, 69, 74
7, 137852, Note_on_c, 6, 62, 72
7, 137968, Note_on_c, 6, 62, 0
7, 137968, Note_on_c, 6, 69, 0
7, 137968, Note_on_c, 6, 65, 0
7, 138240, Note_on_c, 6, 69, 68
7, 138240, Note_on_c, 6, 65, 76
7, 138240, Note_on_c, 6, 60, 68
7, 138356, Note_on_c, 6, 60, 0
7, 138356, Note_on_c, 6, 65, 0
7, 138356, Note_on_c, 6, 69, 0
7, 138496, Note_on_c, 6, 69, 67
7, 138496, Note_on_c, 6, 60, 54
7, 138496, Note_on_c, 6, 65, 67
7, 138568, Note_on_c, 6, 65, 0
7, 138568, Note_on_c, 6, 60, 0
7, 138568, Note_on_c, 6, 69, 0
7, 138620, Note_on_c, 6, 65, 87
7, 138620, Note_on_c, 6, 69, 74
7, 138620, Note_on_c, 6, 60, 80
7, 138736, Note_on_c, 6, 60, 0
7, 138736, Note_on_c, 6, 69, 0
7, 138736, Note_on_c, 6, 65, 0
7, 139008, Note_on_c, 6, 65, 78
7, 139008, Note_on_c, 6, 69, 68
7, 139008, Note_on_c, 6, 60, 70
7, 139124, Note_on_c, 6, 60, 0
7, 139124, Note_on_c, 6, 69, 0
7, 139124, Note_on_c, 6, 65, 0
7, 139264, Note_on_c, 6, 69, 72
7, 139264, Note_on_c, 6, 60, 76
7, 139264, Note_on_c, 6, 65, 81
7, 139380, Note_on_c, 6, 65, 0
7, 139380, Note_on_c, 6, 60, 0
7, 139380, Note_on_c, 6, 69, 0
7, 139648, Note_on_c, 6, 65, 88
7, 139648, Note_on_c, 6, 70, 93
7, 139648, Note_on_c, 6, 62, 70
7, 139892, Note_on_c, 6, 62, 0
7, 139892, Note_on_c, 6, 70, 0
7, 139892, Note_on_c, 6, 65, 0
7, 140032, Note_on_c, 6, 70, 64
7, 140032, Note_on_c, 6, 62, 59
7, 140032, Note_on_c, 6, 65, 64
7, 140104, Note_on_c, 6, 65, 0
7, 140104, Note_on_c, 6, 62, 0
7, 140104, Note_on_c, 6, 70, 0
7, 140156, Note_on_c, 6, 65, 86
7, 140156, Note_on_c, 6, 62, 68
7, 140156, Note_on_c, 6, 70, 85
7, 140272, Note_on_c, 6, 70, 0
7, 140272, Note_on_c, 6, 62, 0
7, 140272, Note_on_c, 6, 65, 0
7, 140416, Note_on_c, 6, 70, 85
7, 140416, Note_on_c, 6, 62, 72
7, 140416, Note_on_c, 6, 65, 86
7, 140660, Note_on_c, 6, 65, 0
7, 140660, Note_on_c, 6, 62, 0
7, 140660, Note_on_c, 6, 70, 0
7, 140800, Note_on_c, 6, 70, 79
7, 140800, Note_on_c, 6, 62, 64
7, 140800, Note_on_c, 6, 65, 77
7, 140872, Note_on_c, 6, 65, 0
7, 140872, Note_on_c, 6, 62, 0
7, 140872, Note_on_c, 6, 70, 0
7, 140924, Note_on_c, 6, 65, 82
7, 140924, Note_on_c, 6, 70, 74
7, 140924, Note_on_c, 6, 62, 68
7, 140996, Note_on_c, 6, 62, 0
7, 140996, Note_on_c, 6, 70, 0
7, 140996, Note_on_c, 6, 65, 0
7, 141056, Note_on_c, 6, 70, 70
7, 141056, Note_on_c, 6, 62, 69
7, 141056, Note_on_c, 6, 65, 80
7, 141128, Note_on_c, 6, 65, 0
7, 141128, Note_on_c, 6, 62, 0
7, 141128, Note_on_c, 6, 70, 0
7, 141184, Note_on_c, 6, 62, 69
7, 141184, Note_on_c, 6, 65, 88
7, 141184, Note_on_c, 6, 70, 79
7, 141300, Note_on_c, 6, 70, 0
7, 141300, Note_on_c, 6, 65, 0
7, 141300, Note_on_c, 6, 62, 0
7, 141312, Note_on_c, 6, 67, 63
7, 141312, Note_on_c, 6, 60, 73
7, 141312, Note_on_c, 6, 64, 66
7, 141940, Note_on_c, 6, 64, 0
7, 141940, Note_on_c, 6, 60, 0
7, 141940, Note_on_c, 6, 67, 0
7, 141952, Note_on_c, 6, 69, 69
7, 141952, Note_on_c, 6, 62, 75
7, 141952, Note_on_c, 6, 65, 88
7, 142444, Note_on_c, 6, 62, 0
7, 142452, Note_on_c, 6, 65, 0
7, 142452, Note_on_c, 6, 69, 0
7, 142460, Note_on_c, 6, 72, 82
7, 142460, Note_on_c, 6, 60, 78
7, 142676, Note_on_c, 6, 60, 0
7, 142676, Note_on_c, 6, 72, 0
7, 142720, Note_on_c, 6, 60, 62
7, 142720, Note_on_c, 6, 72, 85
7, 142836, Note_on_c, 6, 72, 0
7, 142836, Note_on_c, 6, 60, 0
7, 143228, Note_on_c, 6, 72, 85
7, 143228, Note_on_c, 6, 60, 75
7, 143444, Note_on_c, 6, 60, 0
7, 143444, Note_on_c, 6, 72, 0
7, 143488, Note_on_c, 6, 72, 81
7, 143488, Note_on_c, 6, 60, 80
7, 143604, Note_on_c, 6, 60, 0
7, 143604, Note_on_c, 6, 72, 0
7, 143996, Note_on_c, 6, 72, 87
7, 143996, Note_on_c, 6, 60, 78
7, 144212, Note_on_c, 6, 60, 0
7, 144212, Note_on_c, 6, 72, 0
7, 144256, Note_on_c, 6, 72, 72
7, 144256, Note_on_c, 6, 60, 72
7, 144372, Note_on_c, 6, 60, 0
7, 144372, Note_on_c, 6, 72, 0
7, 144384, Note_on_c, 6, 64, 69
7, 144384, Note_on_c, 6, 60, 76
7, 144384, Note_on_c, 6, 67, 60
7, 145012, Note_on_c, 6, 67, 0
7, 145012, Note_on_c, 6, 60, 0
7, 145012, Note_on_c, 6, 64, 0
7, 145024, Note_on_c, 6, 62, 57
7, 145024, Note_on_c, 6, 69, 64
7, 145024, Note_on_c, 6, 65, 86
7, 145480, Note_on_c, 6, 65, 0
7, 145480, Note_on_c, 6, 69, 0
7, 145516, Note_on_c, 6, 62, 0
7, 145532, Note_on_c, 6, 65, 76
7, 145532, Note_on_c, 6, 69, 69
7, 145532, Note_on_c, 6, 74, 82
7, 145748, Note_on_c, 6, 74, 0
7, 145748, Note_on_c, 6, 65, 0
7, 145776, Note_on_c, 6, 69, 0
7, 145792, Note_on_c, 6, 65, 83
7, 145792, Note_on_c, 6, 70, 88
7, 145792, Note_on_c, 6, 74, 72
7, 146932, Note_on_c, 6, 74, 0
7, 146932, Note_on_c, 6, 70, 0
7, 146932, Note_on_c, 6, 65, 0
7, 147068, Note_on_c, 6, 65, 81
7, 147068, Note_on_c, 6, 74, 73
7, 147068, Note_on_c, 6, 70, 80
7, 147140, Note_on_c, 6, 70, 0
7, 147140, Note_on_c, 6, 74, 0
7, 147140, Note_on_c, 6, 65, 0
7, 147200, Note_on_c, 6, 74, 68
7, 147200, Note_on_c, 6, 70, 86
7, 147200, Note_on_c, 6, 65, 77
7, 147272, Note_on_c, 6, 65, 0
7, 147272, Note_on_c, 6, 70, 0
7, 147272, Note_on_c, 6, 74, 0
7, 147328, Note_on_c, 6, 74, 79
7, 147328, Note_on_c, 6, 70, 82
7, 147328, Note_on_c, 6, 65, 79
7, 147444, Note_on_c, 6, 65, 0
7, 147444, Note_on_c, 6, 70, 0
7, 147444, Note_on_c, 6, 74, 0
7, 147456, Note_on_c, 6, 64, 82
7, 147456, Note_on_c, 6, 72, 94
7, 147456, Note_on_c, 6, 67, 83
7, 148084, Note_on_c, 6, 67, 0
7, 148084, Note_on_c, 6, 72, 0
7, 148084, Note_on_c, 6, 64, 0
7, 148096, Note_on_c, 6, 69, 75
7, 148096, Note_on_c, 6, 74, 92
7, 148096, Note_on_c, 6, 65, 78
7, 148816, Note_on_c, 6, 65, 0
7, 148816, Note_on_c, 6, 74, 0
7, 148816, Note_on_c, 6, 69, 0
7, 148864, Note_on_c, 6, 74, 69
7, 148864, Note_on_c, 6, 69, 72
7, 148864, Note_on_c, 6, 65, 76
7, 148980, Note_on_c, 6, 65, 0
7, 148980, Note_on_c, 6, 69, 0
7, 148980, Note_on_c, 6, 74, 0
7, 148992, Note_on_c, 6, 74, 77
7, 148992, Note_on_c, 6, 65, 82
7, 148992, Note_on_c, 6, 69, 76
7, 150004, Note_on_c, 6, 69, 0
7, 150004, Note_on_c, 6, 65, 0
7, 150004, Note_on_c, 6, 74, 0
7, 150140, Note_on_c, 6, 69, 77
7, 150140, Note_on_c, 6, 65, 80
7, 150140, Note_on_c, 6, 74, 73
7, 150212, Note_on_c, 6, 74, 0
7, 150212, Note_on_c, 6, 65, 0
7, 150212, Note_on_c, 6, 69, 0
7, 150272, Note_on_c, 6, 65, 75
7, 150272, Note_on_c, 6, 69, 65
7, 150272, Note_on_c, 6, 74, 66
7, 150344, Note_on_c, 6, 74, 0
7, 150344, Note_on_c, 6, 69, 0
7, 150344, Note_on_c, 6, 65, 0
7, 150400, Note_on_c, 6, 74, 72
7, 150400, Note_on_c, 6, 65, 72
7, 150400, Note_on_c, 6, 69, 58
7, 150516, Note_on_c, 6, 69, 0
7, 150516, Note_on_c, 6, 65, 0
7, 150516, Note_on_c, 6, 74, 0
7, 150528, Note_on_c, 6, 67, 75
7, 150528, Note_on_c, 6, 72, 86
7, 150528, Note_on_c, 6, 64, 64
7, 150720, Note_on_c, 6, 64, 0
7, 150720, Note_on_c, 6, 72, 0
7, 150720, Note_on_c, 6, 67, 0
7, 150784, Note_on_c, 6, 72, 66
7, 150784, Note_on_c, 6, 67, 56
7, 150784, Note_on_c, 6, 64, 56
7, 150856, Note_on_c, 6, 64, 0
7, 150856, Note_on_c, 6, 67, 0
7, 150856, Note_on_c, 6, 72, 0
7, 150908, Note_on_c, 6, 64, 67
7, 150908, Note_on_c, 6, 72, 83
7, 150908, Note_on_c, 6, 67, 67
7, 151152, Note_on_c, 6, 67, 0
7, 151152, Note_on_c, 6, 72, 0
7, 151152, Note_on_c, 6, 64, 0
7, 151168, Note_on_c, 6, 74, 96
7, 151168, Note_on_c, 6, 69, 90
7, 151168, Note_on_c, 6, 65, 89
7, 151888, Note_on_c, 6, 65, 0
7, 151924, Note_on_c, 6, 69, 0
7, 151924, Note_on_c, 6, 74, 0
7, 151936, Note_on_c, 6, 62, 79
7, 151936, Note_on_c, 6, 65, 88
7, 151936, Note_on_c, 6, 70, 89
7, 152428, Note_on_c, 6, 70, 0
7, 152436, Note_on_c, 6, 65, 0
7, 152436, Note_on_c, 6, 62, 0
7, 152444, Note_on_c, 6, 64, 74
7, 152444, Note_on_c, 6, 67, 69
7, 152444, Note_on_c, 6, 72, 85
7, 152660, Note_on_c, 6, 72, 0
7, 152660, Note_on_c, 6, 67, 0
7, 152660, Note_on_c, 6, 64, 0
7, 152704, Note_on_c, 6, 72, 95
7, 152704, Note_on_c, 6, 67, 77
7, 152704, Note_on_c, 6, 64, 82
7, 152820, Note_on_c, 6, 64, 0
7, 152820, Note_on_c, 6, 67, 0
7, 152820, Note_on_c, 6, 72, 0
7, 156672, Note_on_c, 6, 53, 74
7, 156744, Note_on_c, 6, 53, 0
7, 156800, Note_on_c, 6, 53, 78
7, 156872, Note_on_c, 6, 53, 0
7, 156928, Note_on_c, 6, 53, 76
7, 157000, Note_on_c, 6, 53, 0
7, 157052, Note_on_c, 6, 53, 74
7, 157268, Note_on_c, 6, 53, 0
7, 157312, Note_on_c, 6, 53, 78
7, 157384, Note_on_c, 6, 53, 0
7, 157568, Note_on_c, 6, 53, 77
7, 157640, Note_on_c, 6, 53, 0
7, 157696, Note_on_c, 6, 53, 79
7, 157768, Note_on_c, 6, 53, 0
7, 157820, Note_on_c, 6, 53, 81
7, 157892, Note_on_c, 6, 53, 0
7, 157952, Note_on_c, 6, 53, 85
7, 158024, Note_on_c, 6, 53, 0
7, 158080, Note_on_c, 6, 53, 79
7, 158196, Note_on_c, 6, 53, 0
7, 158208, Note_on_c, 6, 53, 80
7, 158280, Note_on_c, 6, 53, 0
7, 158336, Note_on_c, 6, 53, 79
7, 158408, Note_on_c, 6, 53, 0
7, 158464, Note_on_c, 6, 53, 78
7, 158536, Note_on_c, 6, 53, 0
7, 158588, Note_on_c, 6, 53, 85
7, 158804, Note_on_c, 6, 53, 0
7, 158848, Note_on_c, 6, 53, 79
7, 158964, Note_on_c, 6, 53, 0
7, 159104, Note_on_c, 6, 53, 79
7, 159176, Note_on_c, 6, 53, 0
7, 159232, Note_on_c, 6, 53, 73
7, 159304, Note_on_c, 6, 53, 0
7, 159356, Note_on_c, 6, 53, 80
7, 159428, Note_on_c, 6, 53, 0
7, 159488, Note_on_c, 6, 53, 81
7, 159560, Note_on_c, 6, 53, 0
7, 159616, Note_on_c, 6, 53, 79
7, 159732, Note_on_c, 6, 53, 0
7, 159744, Note_on_c, 6, 53, 84
7, 159816, Note_on_c, 6, 53, 0
7, 159872, Note_on_c, 6, 53, 78
7, 159944, Note_on_c, 6, 53, 0
7, 160000, Note_on_c, 6, 53, 79
7, 160072, Note_on_c, 6, 53, 0
7, 160124, Note_on_c, 6, 53, 78
7, 160340, Note_on_c, 6, 53, 0
7, 160384, Note_on_c, 6, 53, 80
7, 160480, Note_on_c, 6, 53, 0
7, 160640, Note_on_c, 6, 53, 81
7, 160712, Note_on_c, 6, 53, 0
7, 160768, Note_on_c, 6, 53, 79
7, 160840, Note_on_c, 6, 53, 0
7, 160892, Note_on_c, 6, 53, 79
7, 160964, Note_on_c, 6, 53, 0
7, 161024, Note_on_c, 6, 53, 77
7, 161096, Note_on_c, 6, 53, 0
7, 161152, Note_on_c, 6, 53, 78
7, 161268, Note_on_c, 6, 53, 0
7, 161280, Note_on_c, 6, 53, 85
7, 161352, Note_on_c, 6, 53, 0
7, 161408, Note_on_c, 6, 53, 82
7, 161480, Note_on_c, 6, 53, 0
7, 161536, Note_on_c, 6, 53, 81
7, 161608, Note_on_c, 6, 53, 0
7, 161660, Note_on_c, 6, 53, 79
7, 161876, Note_on_c, 6, 53, 0
7, 161920, Note_on_c, 6, 53, 83
7, 162036, Note_on_c, 6, 53, 0
7, 162176, Note_on_c, 6, 53, 80
7, 162248, Note_on_c, 6, 53, 0
7, 162304, Note_on_c, 6, 53, 78
7, 162376, Note_on_c, 6, 53, 0
7, 162428, Note_on_c, 6, 53, 79
7, 162500, Note_on_c, 6, 53, 0
7, 162560, Note_on_c, 6, 53, 81
7, 162632, Note_on_c, 6, 53, 0
7, 162688, Note_on_c, 6, 53, 80
7, 162804, Note_on_c, 6, 53, 0
7, 162816, Note_on_c, 6, 53, 82
7, 162888, Note_on_c, 6, 53, 0
7, 162944, Note_on_c, 6, 53, 81
7, 163016, Note_on_c, 6, 53, 0
7, 163072, Note_on_c, 6, 53, 80
7, 163144, Note_on_c, 6, 53, 0
7, 163196, Note_on_c, 6, 53, 83
7, 163412, Note_on_c, 6, 53, 0
7, 163456, Note_on_c, 6, 53, 78
7, 163572, Note_on_c, 6, 53, 0
7, 163712, Note_on_c, 6, 53, 82
7, 163784, Note_on_c, 6, 53, 0
7, 163840, Note_on_c, 6, 53, 81
7, 163912, Note_on_c, 6, 53, 0
7, 163964, Note_on_c, 6, 53, 83
7, 164036, Note_on_c, 6, 53, 0
7, 164096, Note_on_c, 6, 53, 82
7, 164168, Note_on_c, 6, 53, 0
7, 164224, Note_on_c, 6, 53, 83
7, 164340, Note_on_c, 6, 53, 0
7, 164352, Note_on_c, 6, 53, 86
7, 164424, Note_on_c, 6, 53, 0
7, 164480, Note_on_c, 6, 53, 80
7, 164552, Note_on_c, 6, 53, 0
7, 164608, Note_on_c, 6, 53, 79
7, 164680, Note_on_c, 6, 53, 0
7, 164732, Note_on_c, 6, 53, 83
7, 164948, Note_on_c, 6, 53, 0
7, 164992, Note_on_c, 6, 53, 78
7, 165108, Note_on_c, 6, 53, 0
7, 165248, Note_on_c, 6, 53, 80
7, 165320, Note_on_c, 6, 53, 0
7, 165376, Note_on_c, 6, 53, 78
7, 165448, Note_on_c, 6, 53, 0
7, 165500, Note_on_c, 6, 53, 76
7, 165572, Note_on_c, 6, 53, 0
7, 165632, Note_on_c, 6, 53, 75
7, 165704, Note_on_c, 6, 53, 0
7, 165760, Note_on_c, 6, 53, 76
7, 165876, Note_on_c, 6, 53, 0
7, 165888, Note_on_c, 6, 53, 82
7, 165960, Note_on_c, 6, 53, 0
7, 166016, Note_on_c, 6, 53, 78
7, 166088, Note_on_c, 6, 53, 0
7, 166144, Note_on_c, 6, 53, 73
7, 166216, Note_on_c, 6, 53, 0
7, 166268, Note_on_c, 6, 53, 75
7, 166484, Note_on_c, 6, 53, 0
7, 166528, Note_on_c, 6, 53, 76
7, 166644, Note_on_c, 6, 53, 0
7, 166784, Note_on_c, 6, 53, 71
7, 166856, Note_on_c, 6, 53, 0
7, 166912, Note_on_c, 6, 53, 79
7, 166984, Note_on_c, 6, 53, 0
7, 167036, Note_on_c, 6, 53, 79
7, 167108, Note_on_c, 6, 53, 0
7, 167168, Note_on_c, 6, 53, 76
7, 167240, Note_on_c, 6, 53, 0
7, 167296, Note_on_c, 6, 53, 75
7, 167412, Note_on_c, 6, 53, 0
7, 167424, Note_on_c, 6, 53, 64
7, 167496, Note_on_c, 6, 53, 0
7, 167552, Note_on_c, 6, 53, 66
7, 167624, Note_on_c, 6, 53, 0
7, 167680, Note_on_c, 6, 53, 68
7, 167752, Note_on_c, 6, 53, 0
7, 167804, Note_on_c, 6, 53, 70
7, 167876, Note_on_c, 6, 53, 0
7, 167936, Note_on_c, 6, 53, 72
7, 168008, Note_on_c, 6, 53, 0
7, 168064, Note_on_c, 6, 53, 74
7, 168136, Note_on_c, 6, 53, 0
7, 168192, Note_on_c, 6, 53, 76
7, 168264, Note_on_c, 6, 53, 0
7, 168320, Note_on_c, 6, 53, 78
7, 168392, Note_on_c, 6, 53, 0
7, 168448, Note_on_c, 6, 53, 80
7, 168520, Note_on_c, 6, 53, 0
7, 168572, Note_on_c, 6, 53, 82
7, 168644, Note_on_c, 6, 53, 0
7, 168704, Note_on_c, 6, 53, 84
7, 168776, Note_on_c, 6, 53, 0
7, 168832, Note_on_c, 6, 53, 86
7, 168948, Note_on_c, 6, 53, 0
7, 168960, Note_on_c, 6, 65, 77
7, 168960, Note_on_c, 6, 69, 63
7, 168960, Note_on_c, 6, 60, 70
7, 170304, Note_on_c, 6, 69, 0
7, 170304, Note_on_c, 6, 65, 0
7, 170356, Note_on_c, 6, 60, 0
7, 170368, Note_on_c, 6, 65, 82
7, 170368, Note_on_c, 6, 69, 69
7, 170368, Note_on_c, 6, 62, 66
7, 171884, Note_on_c, 6, 62, 0
7, 171884, Note_on_c, 6, 69, 0
7, 171884, Note_on_c, 6, 65, 0
7, 171904, Note_on_c, 6, 60, 73
7, 171904, Note_on_c, 6, 67, 74
7, 171904, Note_on_c, 6, 64, 72
7, 173172, Note_on_c, 6, 64, 0
7, 173172, Note_on_c, 6, 67, 0
7, 173172, Note_on_c, 6, 60, 0
7, 173824, Note_on_c, 6, 46, 80
7, 173940, Note_on_c, 6, 46, 0
7, 173948, Note_on_c, 6, 49, 80
7, 174064, Note_on_c, 6, 49, 0
7, 174080, Note_on_c, 6, 50, 78
7, 174196, Note_on_c, 6, 50, 0
7, 174208, Note_on_c, 6, 58, 87
7, 174708, Note_on_c, 6, 58, 0
7, 175104, Note_on_c, 6, 65, 77
7, 175104, Note_on_c, 6, 69, 63
7, 175104, Note_on_c, 6, 60, 70
7, 176448, Note_on_c, 6, 69, 0
7, 176448, Note_on_c, 6, 65, 0
7, 176500, Note_on_c, 6, 60, 0
7, 176512, Note_on_c, 6, 65, 82
7, 176512, Note_on_c, 6, 69, 69
7, 176512, Note_on_c, 6, 62, 66
7, 178028, Note_on_c, 6, 62, 0
7, 178028, Note_on_c, 6, 69, 0
7, 178028, Note_on_c, 6, 65, 0
7, 178048, Note_on_c, 6, 60, 73
7, 178048, Note_on_c, 6, 67, 74
7, 178048, Note_on_c, 6, 64, 72
7, 179316, Note_on_c, 6, 64, 0
7, 179316, Note_on_c, 6, 67, 0
7, 179316, Note_on_c, 6, 60, 0
7, 179968, Note_on_c, 6, 46, 80
7, 180084, Note_on_c, 6, 46, 0
7, 180092, Note_on_c, 6, 49, 80
7, 180208, Note_on_c, 6, 49, 0
7, 180224, Note_on_c, 6, 50, 78
7, 180340, Note_on_c, 6, 50, 0
7, 180352, Note_on_c, 6, 58, 87
7, 180852, Note_on_c, 6, 58, 0
7, 181248, Note_on_c, 6, 65, 77
7, 181248, Note_on_c, 6, 69, 63
7, 181248, Note_on_c, 6, 60, 70
7, 182592, Note_on_c, 6, 69, 0
7, 182592, Note_on_c, 6, 65, 0
7, 182644, Note_on_c, 6, 60, 0
7, 182656, Note_on_c, 6, 65, 82
7, 182656, Note_on_c, 6, 69, 69
7, 182656, Note_on_c, 6, 62, 66
7, 184172, Note_on_c, 6, 62, 0
7, 184172, Note_on_c, 6, 69, 0
7, 184172, Note_on_c, 6, 65, 0
7, 184192, Note_on_c, 6, 60, 73
7, 184192, Note_on_c, 6, 67, 74
7, 184192, Note_on_c, 6, 64, 72
7, 185460, Note_on_c, 6, 64, 0
7, 185460, Note_on_c, 6, 67, 0
7, 185460, Note_on_c, 6, 60, 0
7, 186112, Note_on_c, 6, 46, 80
7, 186228, Note_on_c, 6, 46, 0
7, 186236, Note_on_c, 6, 49, 80
7, 186352, Note_on_c, 6, 49, 0
7, 186368, Note_on_c, 6, 50, 78
7, 186484, Note_on_c, 6, 50, 0
7, 186496, Note_on_c, 6, 58, 87
7, 186996, Note_on_c, 6, 58, 0
7, 187392, Note_on_c, 6, 65, 77
7, 187392, Note_on_c, 6, 69, 63
7, 187392, Note_on_c, 6, 60, 70
7, 188736, Note_on_c, 6, 69, 0
7, 188736, Note_on_c, 6, 65, 0
7, 188788, Note_on_c, 6, 60, 0
7, 188800, Note_on_c, 6, 65, 82
7, 188800, Note_on_c, 6, 69, 69
7, 188800, Note_on_c, 6, 62, 66
7, 190316, Note_on_c, 6, 62, 0
7, 190316, Note_on_c, 6, 69, 0
7, 190316, Note_on_c, 6, 65, 0
7, 190336, Note_on_c, 6, 60, 73
7, 190336, Note_on_c, 6, 67, 74
7, 190336, Note_on_c, 6, 64, 72
7, 191604, Note_on_c, 6, 64, 0
7, 191604, Note_on_c, 6, 67, 0
7, 191604, Note_on_c, 6, 60, 0
7, 192256, Note_on_c, 6, 46, 80
7, 192372, Note_on_c, 6, 46, 0
7, 192380, Note_on_c, 6, 49, 80
7, 192496, Note_on_c, 6, 49, 0
7, 192512, Note_on_c, 6, 50, 78
7, 192628, Note_on_c, 6, 50, 0
7, 192640, Note_on_c, 6, 58, 87
7, 193140, Note_on_c, 6, 58, 0
7, 193536, Note_on_c, 6, 70, 89
7, 193536, Note_on_c, 6, 63, 80
7, 193536, Note_on_c, 6, 65, 83
7, 193848, Note_on_c, 6, 65, 0
7, 193848, Note_on_c, 6, 63, 0
7, 193848, Note_on_c, 6, 70, 0
7, 193916, Note_on_c, 6, 70, 95
7, 193916, Note_on_c, 6, 63, 88
7, 193916, Note_on_c, 6, 65, 85
7, 194132, Note_on_c, 6, 65, 0
7, 194132, Note_on_c, 6, 63, 0
7, 194132, Note_on_c, 6, 70, 0
7, 194176, Note_on_c, 6, 62, 76
7, 194176, Note_on_c, 6, 70, 90
7, 194176, Note_on_c, 6, 65, 87
7, 195060, Note_on_c, 6, 65, 0
7, 195060, Note_on_c, 6, 70, 0
7, 195060, Note_on_c, 6, 62, 0
7, 195060, End_track
8, 0, Start_track
8, 0, MIDI_port, 0
8, 0, Title_t, "Drums"
8, 432, Control_c, 9, 7, 110
8, 576, Control_c, 9, 11, 127
8, 580, Control_c, 9, 91, 60
8, 580, Control_c, 9, 93, 0
8, 1536, Note_on_c, 9, 42, 67
8, 1540, Note_on_c, 9, 42, 0
8, 1916, Note_on_c, 9, 42, 67
8, 1920, Note_on_c, 9, 42, 0
8, 2304, Note_on_c, 9, 42, 67
8, 2312, Note_on_c, 9, 42, 0
8, 2680, Note_on_c, 9, 42, 67
8, 2688, Note_on_c, 9, 42, 0
8, 3072, Note_on_c, 9, 36, 127
8, 3072, Note_on_c, 9, 42, 97
8, 3076, Note_on_c, 9, 42, 0
8, 3076, Note_on_c, 9, 36, 0
8, 3200, Note_on_c, 9, 42, 42
8, 3204, Note_on_c, 9, 42, 0
8, 3328, Note_on_c, 9, 42, 65
8, 3332, Note_on_c, 9, 42, 0
8, 3452, Note_on_c, 9, 42, 97
8, 3456, Note_on_c, 9, 42, 0
8, 3456, Note_on_c, 9, 38, 127
8, 3460, Note_on_c, 9, 38, 0
8, 3584, Note_on_c, 9, 42, 42
8, 3588, Note_on_c, 9, 42, 0
8, 3712, Note_on_c, 9, 42, 65
8, 3716, Note_on_c, 9, 42, 0
8, 3840, Note_on_c, 9, 36, 127
8, 3840, Note_on_c, 9, 42, 97
8, 3844, Note_on_c, 9, 36, 0
8, 3848, Note_on_c, 9, 42, 0
8, 3968, Note_on_c, 9, 42, 42
8, 3972, Note_on_c, 9, 42, 0
8, 4096, Note_on_c, 9, 42, 65
8, 4100, Note_on_c, 9, 42, 0
8, 4216, Note_on_c, 9, 42, 97
8, 4224, Note_on_c, 9, 42, 0
8, 4224, Note_on_c, 9, 38, 127
8, 4228, Note_on_c, 9, 38, 0
8, 4352, Note_on_c, 9, 42, 42
8, 4356, Note_on_c, 9, 42, 0
8, 4480, Note_on_c, 9, 42, 65
8, 4484, Note_on_c, 9, 42, 0
8, 4608, Note_on_c, 9, 36, 127
8, 4608, Note_on_c, 9, 42, 97
8, 4612, Note_on_c, 9, 42, 0
8, 4612, Note_on_c, 9, 36, 0
8, 4736, Note_on_c, 9, 42, 42
8, 4740, Note_on_c, 9, 42, 0
8, 4864, Note_on_c, 9, 42, 65
8, 4868, Note_on_c, 9, 42, 0
8, 4988, Note_on_c, 9, 42, 97
8, 4992, Note_on_c, 9, 42, 0
8, 4992, Note_on_c, 9, 38, 127
8, 4996, Note_on_c, 9, 38, 0
8, 5120, Note_on_c, 9, 42, 42
8, 5124, Note_on_c, 9, 42, 0
8, 5248, Note_on_c, 9, 42, 65
8, 5252, Note_on_c, 9, 42, 0
8, 5376, Note_on_c, 9, 36, 127
8, 5376, Note_on_c, 9, 42, 97
8, 5380, Note_on_c, 9, 36, 0
8, 5384, Note_on_c, 9, 42, 0
8, 5504, Note_on_c, 9, 42, 42
8, 5508, Note_on_c, 9, 42, 0
8, 5632, Note_on_c, 9, 36, 127
8, 5632, Note_on_c, 9, 42, 65
8, 5636, Note_on_c, 9, 42, 0
8, 5636, Note_on_c, 9, 36, 0
8, 5752, Note_on_c, 9, 42, 97
8, 5760, Note_on_c, 9, 42, 0
8, 5760, Note_on_c, 9, 38, 127
8, 5764, Note_on_c, 9, 38, 0
8, 5888, Note_on_c, 9, 42, 42
8, 5892, Note_on_c, 9, 42, 0
8, 6016, Note_on_c, 9, 42, 65
8, 6020, Note_on_c, 9, 42, 0
8, 6144, Note_on_c, 9, 36, 127
8, 6144, Note_on_c, 9, 42, 97
8, 6148, Note_on_c, 9, 42, 0
8, 6148, Note_on_c, 9, 36, 0
8, 6272, Note_on_c, 9, 42, 42
8, 6276, Note_on_c, 9, 42, 0
8, 6400, Note_on_c, 9, 42, 65
8, 6404, Note_on_c, 9, 42, 0
8, 6524, Note_on_c, 9, 42, 97
8, 6528, Note_on_c, 9, 42, 0
8, 6528, Note_on_c, 9, 38, 127
8, 6532, Note_on_c, 9, 38, 0
8, 6656, Note_on_c, 9, 42, 42
8, 6660, Note_on_c, 9, 42, 0
8, 6784, Note_on_c, 9, 42, 65
8, 6788, Note_on_c, 9, 42, 0
8, 6912, Note_on_c, 9, 36, 127
8, 6912, Note_on_c, 9, 42, 97
8, 6916, Note_on_c, 9, 36, 0
8, 6920, Note_on_c, 9, 42, 0
8, 7040, Note_on_c, 9, 42, 42
8, 7044, Note_on_c, 9, 42, 0
8, 7168, Note_on_c, 9, 42, 65
8, 7172, Note_on_c, 9, 42, 0
8, 7288, Note_on_c, 9, 42, 97
8, 7296, Note_on_c, 9, 42, 0
8, 7296, Note_on_c, 9, 38, 127
8, 7300, Note_on_c, 9, 38, 0
8, 7424, Note_on_c, 9, 42, 42
8, 7428, Note_on_c, 9, 42, 0
8, 7552, Note_on_c, 9, 42, 65
8, 7556, Note_on_c, 9, 42, 0
8, 7680, Note_on_c, 9, 36, 127
8, 7680, Note_on_c, 9, 42, 97
8, 7684, Note_on_c, 9, 42, 0
8, 7684, Note_on_c, 9, 36, 0
8, 7808, Note_on_c, 9, 42, 42
8, 7812, Note_on_c, 9, 42, 0
8, 7936, Note_on_c, 9, 42, 65
8, 7940, Note_on_c, 9, 42, 0
8, 8060, Note_on_c, 9, 42, 97
8, 8064, Note_on_c, 9, 42, 0
8, 8064, Note_on_c, 9, 38, 127
8, 8068, Note_on_c, 9, 38, 0
8, 8192, Note_on_c, 9, 42, 42
8, 8196, Note_on_c, 9, 42, 0
8, 8320, Note_on_c, 9, 42, 65
8, 8324, Note_on_c, 9, 42, 0
8, 8448, Note_on_c, 9, 36, 127
8, 8448, Note_on_c, 9, 42, 97
8, 8452, Note_on_c, 9, 36, 0
8, 8456, Note_on_c, 9, 42, 0
8, 8576, Note_on_c, 9, 42, 42
8, 8580, Note_on_c, 9, 42, 0
8, 8704, Note_on_c, 9, 36, 127
8, 8704, Note_on_c, 9, 42, 65
8, 8708, Note_on_c, 9, 42, 0
8, 8708, Note_on_c, 9, 36, 0
8, 8824, Note_on_c, 9, 42, 97
8, 8832, Note_on_c, 9, 42, 0
8, 8832, Note_on_c, 9, 38, 127
8, 8836, Note_on_c, 9, 38, 0
8, 8960, Note_on_c, 9, 42, 42
8, 8964, Note_on_c, 9, 42, 0
8, 9088, Note_on_c, 9, 42, 65
8, 9092, Note_on_c, 9, 42, 0
8, 9216, Note_on_c, 9, 36, 127
8, 9216, Note_on_c, 9, 42, 97
8, 9220, Note_on_c, 9, 42, 0
8, 9220, Note_on_c, 9, 36, 0
8, 9344, Note_on_c, 9, 42, 42
8, 9348, Note_on_c, 9, 42, 0
8, 9472, Note_on_c, 9, 42, 65
8, 9476, Note_on_c, 9, 42, 0
8, 9596, Note_on_c, 9, 42, 97
8, 9600, Note_on_c, 9, 42, 0
8, 9600, Note_on_c, 9, 38, 127
8, 9604, Note_on_c, 9, 38, 0
8, 9728, Note_on_c, 9, 42, 42
8, 9732, Note_on_c, 9, 42, 0
8, 9856, Note_on_c, 9, 42, 65
8, 9860, Note_on_c, 9, 42, 0
8, 9984, Note_on_c, 9, 36, 127
8, 9984, Note_on_c, 9, 42, 97
8, 9988, Note_on_c, 9, 36, 0
8, 9992, Note_on_c, 9, 42, 0
8, 10112, Note_on_c, 9, 42, 42
8, 10116, Note_on_c, 9, 42, 0
8, 10240, Note_on_c, 9, 42, 65
8, 10244, Note_on_c, 9, 42, 0
8, 10360, Note_on_c, 9, 42, 97
8, 10368, Note_on_c, 9, 42, 0
8, 10368, Note_on_c, 9, 38, 127
8, 10372, Note_on_c, 9, 38, 0
8, 10496, Note_on_c, 9, 42, 42
8, 10500, Note_on_c, 9, 42, 0
8, 10624, Note_on_c, 9, 42, 65
8, 10628, Note_on_c, 9, 42, 0
8, 10752, Note_on_c, 9, 36, 127
8, 10752, Note_on_c, 9, 42, 97
8, 10756, Note_on_c, 9, 42, 0
8, 10756, Note_on_c, 9, 36, 0
8, 10880, Note_on_c, 9, 42, 42
8, 10884, Note_on_c, 9, 42, 0
8, 11008, Note_on_c, 9, 42, 65
8, 11012, Note_on_c, 9, 42, 0
8, 11132, Note_on_c, 9, 42, 97
8, 11136, Note_on_c, 9, 42, 0
8, 11136, Note_on_c, 9, 38, 127
8, 11140, Note_on_c, 9, 38, 0
8, 11264, Note_on_c, 9, 42, 42
8, 11268, Note_on_c, 9, 42, 0
8, 11392, Note_on_c, 9, 42, 65
8, 11396, Note_on_c, 9, 42, 0
8, 11520, Note_on_c, 9, 36, 127
8, 11520, Note_on_c, 9, 42, 97
8, 11524, Note_on_c, 9, 36, 0
8, 11528, Note_on_c, 9, 42, 0
8, 11648, Note_on_c, 9, 42, 42
8, 11652, Note_on_c, 9, 42, 0
8, 11776, Note_on_c, 9, 36, 127
8, 11776, Note_on_c, 9, 42, 65
8, 11780, Note_on_c, 9, 42, 0
8, 11780, Note_on_c, 9, 36, 0
8, 11896, Note_on_c, 9, 42, 97
8, 11904, Note_on_c, 9, 42, 0
8, 11904, Note_on_c, 9, 38, 127
8, 11908, Note_on_c, 9, 38, 0
8, 12032, Note_on_c, 9, 42, 42
8, 12036, Note_on_c, 9, 42, 0
8, 12160, Note_on_c, 9, 42, 65
8, 12164, Note_on_c, 9, 42, 0
8, 12288, Note_on_c, 9, 36, 127
8, 12288, Note_on_c, 9, 42, 97
8, 12292, Note_on_c, 9, 42, 0
8, 12292, Note_on_c, 9, 36, 0
8, 12416, Note_on_c, 9, 42, 42
8, 12420, Note_on_c, 9, 42, 0
8, 12544, Note_on_c, 9, 42, 65
8, 12548, Note_on_c, 9, 42, 0
8, 12668, Note_on_c, 9, 42, 97
8, 12672, Note_on_c, 9, 42, 0
8, 12672, Note_on_c, 9, 38, 127
8, 12676, Note_on_c, 9, 38, 0
8, 12800, Note_on_c, 9, 42, 42
8, 12804, Note_on_c, 9, 42, 0
8, 12928, Note_on_c, 9, 42, 65
8, 12932, Note_on_c, 9, 42, 0
8, 13056, Note_on_c, 9, 36, 127
8, 13056, Note_on_c, 9, 42, 97
8, 13060, Note_on_c, 9, 36, 0
8, 13064, Note_on_c, 9, 42, 0
8, 13184, Note_on_c, 9, 42, 42
8, 13188, Note_on_c, 9, 42, 0
8, 13312, Note_on_c, 9, 42, 65
8, 13316, Note_on_c, 9, 42, 0
8, 13432, Note_on_c, 9, 42, 97
8, 13440, Note_on_c, 9, 42, 0
8, 13440, Note_on_c, 9, 38, 127
8, 13444, Note_on_c, 9, 38, 0
8, 13568, Note_on_c, 9, 42, 42
8, 13572, Note_on_c, 9, 42, 0
8, 13696, Note_on_c, 9, 42, 65
8, 13700, Note_on_c, 9, 42, 0
8, 13824, Note_on_c, 9, 36, 127
8, 13824, Note_on_c, 9, 42, 97
8, 13828, Note_on_c, 9, 42, 0
8, 13828, Note_on_c, 9, 36, 0
8, 13952, Note_on_c, 9, 42, 42
8, 13956, Note_on_c, 9, 42, 0
8, 14080, Note_on_c, 9, 42, 65
8, 14084, Note_on_c, 9, 42, 0
8, 14204, Note_on_c, 9, 42, 97
8, 14208, Note_on_c, 9, 42, 0
8, 14208, Note_on_c, 9, 38, 127
8, 14212, Note_on_c, 9, 38, 0
8, 14336, Note_on_c, 9, 42, 42
8, 14340, Note_on_c, 9, 42, 0
8, 14464, Note_on_c, 9, 42, 65
8, 14468, Note_on_c, 9, 42, 0
8, 14592, Note_on_c, 9, 36, 127
8, 14592, Note_on_c, 9, 42, 97
8, 14596, Note_on_c, 9, 36, 0
8, 14600, Note_on_c, 9, 42, 0
8, 14720, Note_on_c, 9, 42, 42
8, 14724, Note_on_c, 9, 42, 0
8, 14848, Note_on_c, 9, 36, 127
8, 14848, Note_on_c, 9, 42, 65
8, 14852, Note_on_c, 9, 42, 0
8, 14852, Note_on_c, 9, 36, 0
8, 14968, Note_on_c, 9, 42, 97
8, 14976, Note_on_c, 9, 42, 0
8, 14976, Note_on_c, 9, 38, 127
8, 14980, Note_on_c, 9, 38, 0
8, 15104, Note_on_c, 9, 42, 42
8, 15108, Note_on_c, 9, 42, 0
8, 15232, Note_on_c, 9, 42, 65
8, 15236, Note_on_c, 9, 42, 0
8, 15360, Note_on_c, 9, 36, 127
8, 15360, Note_on_c, 9, 42, 97
8, 15364, Note_on_c, 9, 42, 0
8, 15364, Note_on_c, 9, 36, 0
8, 15488, Note_on_c, 9, 42, 42
8, 15492, Note_on_c, 9, 42, 0
8, 15616, Note_on_c, 9, 42, 65
8, 15620, Note_on_c, 9, 42, 0
8, 15740, Note_on_c, 9, 42, 97
8, 15744, Note_on_c, 9, 42, 0
8, 15744, Note_on_c, 9, 38, 127
8, 15748, Note_on_c, 9, 38, 0
8, 15872, Note_on_c, 9, 42, 42
8, 15876, Note_on_c, 9, 42, 0
8, 16000, Note_on_c, 9, 42, 65
8, 16004, Note_on_c, 9, 42, 0
8, 16128, Note_on_c, 9, 36, 127
8, 16128, Note_on_c, 9, 42, 97
8, 16132, Note_on_c, 9, 36, 0
8, 16136, Note_on_c, 9, 42, 0
8, 16256, Note_on_c, 9, 42, 42
8, 16260, Note_on_c, 9, 42, 0
8, 16384, Note_on_c, 9, 42, 65
8, 16388, Note_on_c, 9, 42, 0
8, 16504, Note_on_c, 9, 42, 97
8, 16512, Note_on_c, 9, 42, 0
8, 16512, Note_on_c, 9, 38, 127
8, 16516, Note_on_c, 9, 38, 0
8, 16640, Note_on_c, 9, 42, 42
8, 16644, Note_on_c, 9, 42, 0
8, 16768, Note_on_c, 9, 42, 65
8, 16772, Note_on_c, 9, 42, 0
8, 16896, Note_on_c, 9, 36, 127
8, 16896, Note_on_c, 9, 42, 97
8, 16900, Note_on_c, 9, 42, 0
8, 16900, Note_on_c, 9, 36, 0
8, 17024, Note_on_c, 9, 42, 42
8, 17028, Note_on_c, 9, 42, 0
8, 17152, Note_on_c, 9, 42, 65
8, 17156, Note_on_c, 9, 42, 0
8, 17276, Note_on_c, 9, 42, 97
8, 17280, Note_on_c, 9, 42, 0
8, 17280, Note_on_c, 9, 38, 127
8, 17284, Note_on_c, 9, 38, 0
8, 17408, Note_on_c, 9, 42, 42
8, 17412, Note_on_c, 9, 42, 0
8, 17536, Note_on_c, 9, 42, 65
8, 17540, Note_on_c, 9, 42, 0
8, 17664, Note_on_c, 9, 36, 127
8, 17664, Note_on_c, 9, 42, 97
8, 17668, Note_on_c, 9, 36, 0
8, 17672, Note_on_c, 9, 42, 0
8, 17792, Note_on_c, 9, 42, 42
8, 17796, Note_on_c, 9, 42, 0
8, 17920, Note_on_c, 9, 36, 127
8, 17920, Note_on_c, 9, 42, 65
8, 17924, Note_on_c, 9, 42, 0
8, 17924, Note_on_c, 9, 36, 0
8, 18040, Note_on_c, 9, 42, 97
8, 18048, Note_on_c, 9, 42, 0
8, 18048, Note_on_c, 9, 38, 127
8, 18052, Note_on_c, 9, 38, 0
8, 18176, Note_on_c, 9, 42, 42
8, 18180, Note_on_c, 9, 42, 0
8, 18304, Note_on_c, 9, 42, 65
8, 18308, Note_on_c, 9, 42, 0
8, 18432, Note_on_c, 9, 36, 127
8, 18432, Note_on_c, 9, 42, 97
8, 18436, Note_on_c, 9, 42, 0
8, 18436, Note_on_c, 9, 36, 0
8, 18560, Note_on_c, 9, 42, 42
8, 18564, Note_on_c, 9, 42, 0
8, 18688, Note_on_c, 9, 42, 65
8, 18692, Note_on_c, 9, 42, 0
8, 18812, Note_on_c, 9, 42, 97
8, 18816, Note_on_c, 9, 42, 0
8, 18816, Note_on_c, 9, 38, 127
8, 18820, Note_on_c, 9, 38, 0
8, 18944, Note_on_c, 9, 42, 42
8, 18948, Note_on_c, 9, 42, 0
8, 19072, Note_on_c, 9, 42, 65
8, 19076, Note_on_c, 9, 42, 0
8, 19200, Note_on_c, 9, 36, 127
8, 19200, Note_on_c, 9, 42, 97
8, 19204, Note_on_c, 9, 36, 0
8, 19208, Note_on_c, 9, 42, 0
8, 19328, Note_on_c, 9, 42, 42
8, 19332, Note_on_c, 9, 42, 0
8, 19456, Note_on_c, 9, 42, 65
8, 19460, Note_on_c, 9, 42, 0
8, 19576, Note_on_c, 9, 42, 97
8, 19584, Note_on_c, 9, 42, 0
8, 19584, Note_on_c, 9, 38, 127
8, 19588, Note_on_c, 9, 38, 0
8, 19712, Note_on_c, 9, 42, 42
8, 19716, Note_on_c, 9, 42, 0
8, 19840, Note_on_c, 9, 42, 65
8, 19844, Note_on_c, 9, 42, 0
8, 19968, Note_on_c, 9, 36, 127
8, 19968, Note_on_c, 9, 42, 97
8, 19972, Note_on_c, 9, 42, 0
8, 19972, Note_on_c, 9, 36, 0
8, 20096, Note_on_c, 9, 42, 42
8, 20100, Note_on_c, 9, 42, 0
8, 20224, Note_on_c, 9, 42, 65
8, 20228, Note_on_c, 9, 42, 0
8, 20348, Note_on_c, 9, 42, 97
8, 20352, Note_on_c, 9, 42, 0
8, 20352, Note_on_c, 9, 38, 127
8, 20356, Note_on_c, 9, 38, 0
8, 20480, Note_on_c, 9, 42, 42
8, 20484, Note_on_c, 9, 42, 0
8, 20608, Note_on_c, 9, 42, 65
8, 20612, Note_on_c, 9, 42, 0
8, 20736, Note_on_c, 9, 36, 127
8, 20736, Note_on_c, 9, 42, 97
8, 20740, Note_on_c, 9, 36, 0
8, 20744, Note_on_c, 9, 42, 0
8, 20864, Note_on_c, 9, 42, 42
8, 20868, Note_on_c, 9, 42, 0
8, 20992, Note_on_c, 9, 36, 127
8, 20992, Note_on_c, 9, 42, 65
8, 20996, Note_on_c, 9, 42, 0
8, 20996, Note_on_c, 9, 36, 0
8, 21112, Note_on_c, 9, 42, 97
8, 21120, Note_on_c, 9, 42, 0
8, 21120, Note_on_c, 9, 38, 127
8, 21124, Note_on_c, 9, 38, 0
8, 21248, Note_on_c, 9, 42, 42
8, 21252, Note_on_c, 9, 42, 0
8, 21376, Note_on_c, 9, 42, 65
8, 21380, Note_on_c, 9, 42, 0
8, 21504, Note_on_c, 9, 36, 127
8, 21504, Note_on_c, 9, 42, 97
8, 21508, Note_on_c, 9, 42, 0
8, 21508, Note_on_c, 9, 36, 0
8, 21632, Note_on_c, 9, 42, 42
8, 21636, Note_on_c, 9, 42, 0
8, 21760, Note_on_c, 9, 42, 65
8, 21764, Note_on_c, 9, 42, 0
8, 21884, Note_on_c, 9, 42, 97
8, 21888, Note_on_c, 9, 42, 0
8, 21888, Note_on_c, 9, 38, 127
8, 21892, Note_on_c, 9, 38, 0
8, 22016, Note_on_c, 9, 42, 42
8, 22020, Note_on_c, 9, 42, 0
8, 22144, Note_on_c, 9, 42, 65
8, 22148, Note_on_c, 9, 42, 0
8, 22272, Note_on_c, 9, 36, 127
8, 22272, Note_on_c, 9, 42, 97
8, 22276, Note_on_c, 9, 36, 0
8, 22280, Note_on_c, 9, 42, 0
8, 22400, Note_on_c, 9, 42, 42
8, 22404, Note_on_c, 9, 42, 0
8, 22528, Note_on_c, 9, 42, 65
8, 22532, Note_on_c, 9, 42, 0
8, 22648, Note_on_c, 9, 42, 97
8, 22656, Note_on_c, 9, 42, 0
8, 22656, Note_on_c, 9, 38, 127
8, 22660, Note_on_c, 9, 38, 0
8, 22784, Note_on_c, 9, 42, 42
8, 22788, Note_on_c, 9, 42, 0
8, 22912, Note_on_c, 9, 42, 65
8, 22916, Note_on_c, 9, 42, 0
8, 23040, Note_on_c, 9, 36, 127
8, 23040, Note_on_c, 9, 42, 97
8, 23044, Note_on_c, 9, 42, 0
8, 23044, Note_on_c, 9, 36, 0
8, 23168, Note_on_c, 9, 42, 42
8, 23172, Note_on_c, 9, 42, 0
8, 23296, Note_on_c, 9, 42, 65
8, 23300, Note_on_c, 9, 42, 0
8, 23420, Note_on_c, 9, 42, 97
8, 23424, Note_on_c, 9, 42, 0
8, 23424, Note_on_c, 9, 38, 127
8, 23428, Note_on_c, 9, 38, 0
8, 23552, Note_on_c, 9, 42, 42
8, 23556, Note_on_c, 9, 42, 0
8, 23680, Note_on_c, 9, 42, 65
8, 23684, Note_on_c, 9, 42, 0
8, 23808, Note_on_c, 9, 36, 127
8, 23808, Note_on_c, 9, 42, 97
8, 23812, Note_on_c, 9, 36, 0
8, 23816, Note_on_c, 9, 42, 0
8, 23936, Note_on_c, 9, 42, 42
8, 23940, Note_on_c, 9, 42, 0
8, 24064, Note_on_c, 9, 36, 127
8, 24064, Note_on_c, 9, 42, 65
8, 24068, Note_on_c, 9, 42, 0
8, 24068, Note_on_c, 9, 36, 0
8, 24184, Note_on_c, 9, 42, 97
8, 24192, Note_on_c, 9, 42, 0
8, 24192, Note_on_c, 9, 38, 127
8, 24196, Note_on_c, 9, 38, 0
8, 24320, Note_on_c, 9, 42, 42
8, 24324, Note_on_c, 9, 42, 0
8, 24448, Note_on_c, 9, 42, 65
8, 24452, Note_on_c, 9, 42, 0
8, 24576, Note_on_c, 9, 36, 127
8, 24576, Note_on_c, 9, 42, 97
8, 24580, Note_on_c, 9, 42, 0
8, 24580, Note_on_c, 9, 36, 0
8, 24704, Note_on_c, 9, 42, 42
8, 24708, Note_on_c, 9, 42, 0
8, 24832, Note_on_c, 9, 42, 65
8, 24836, Note_on_c, 9, 42, 0
8, 24956, Note_on_c, 9, 42, 97
8, 24960, Note_on_c, 9, 42, 0
8, 24960, Note_on_c, 9, 38, 127
8, 24964, Note_on_c, 9, 38, 0
8, 25088, Note_on_c, 9, 42, 42
8, 25092, Note_on_c, 9, 42, 0
8, 25216, Note_on_c, 9, 42, 65
8, 25220, Note_on_c, 9, 42, 0
8, 25344, Note_on_c, 9, 36, 127
8, 25344, Note_on_c, 9, 42, 97
8, 25348, Note_on_c, 9, 36, 0
8, 25352, Note_on_c, 9, 42, 0
8, 25472, Note_on_c, 9, 42, 42
8, 25476, Note_on_c, 9, 42, 0
8, 25600, Note_on_c, 9, 42, 65
8, 25604, Note_on_c, 9, 42, 0
8, 25720, Note_on_c, 9, 42, 97
8, 25728, Note_on_c, 9, 42, 0
8, 25728, Note_on_c, 9, 38, 127
8, 25732, Note_on_c, 9, 38, 0
8, 25856, Note_on_c, 9, 42, 42
8, 25860, Note_on_c, 9, 42, 0
8, 25984, Note_on_c, 9, 42, 65
8, 25988, Note_on_c, 9, 42, 0
8, 26112, Note_on_c, 9, 36, 127
8, 26112, Note_on_c, 9, 42, 97
8, 26116, Note_on_c, 9, 42, 0
8, 26116, Note_on_c, 9, 36, 0
8, 26240, Note_on_c, 9, 42, 42
8, 26244, Note_on_c, 9, 42, 0
8, 26368, Note_on_c, 9, 42, 65
8, 26372, Note_on_c, 9, 42, 0
8, 26492, Note_on_c, 9, 42, 97
8, 26496, Note_on_c, 9, 42, 0
8, 26496, Note_on_c, 9, 38, 127
8, 26500, Note_on_c, 9, 38, 0
8, 26624, Note_on_c, 9, 42, 42
8, 26628, Note_on_c, 9, 42, 0
8, 26752, Note_on_c, 9, 42, 65
8, 26756, Note_on_c, 9, 42, 0
8, 26880, Note_on_c, 9, 36, 127
8, 26880, Note_on_c, 9, 42, 97
8, 26884, Note_on_c, 9, 36, 0
8, 26888, Note_on_c, 9, 42, 0
8, 27008, Note_on_c, 9, 42, 42
8, 27012, Note_on_c, 9, 42, 0
8, 27136, Note_on_c, 9, 36, 127
8, 27136, Note_on_c, 9, 42, 65
8, 27140, Note_on_c, 9, 42, 0
8, 27140, Note_on_c, 9, 36, 0
8, 27256, Note_on_c, 9, 42, 97
8, 27264, Note_on_c, 9, 42, 0
8, 27264, Note_on_c, 9, 38, 127
8, 27268, Note_on_c, 9, 38, 0
8, 27392, Note_on_c, 9, 42, 42
8, 27396, Note_on_c, 9, 42, 0
8, 27520, Note_on_c, 9, 42, 65
8, 27524, Note_on_c, 9, 42, 0
8, 27648, Note_on_c, 9, 36, 127
8, 27648, Note_on_c, 9, 42, 97
8, 27652, Note_on_c, 9, 42, 0
8, 27652, Note_on_c, 9, 36, 0
8, 27776, Note_on_c, 9, 42, 42
8, 27780, Note_on_c, 9, 42, 0
8, 27904, Note_on_c, 9, 42, 65
8, 27908, Note_on_c, 9, 42, 0
8, 28028, Note_on_c, 9, 42, 97
8, 28032, Note_on_c, 9, 42, 0
8, 28032, Note_on_c, 9, 38, 127
8, 28036, Note_on_c, 9, 38, 0
8, 28160, Note_on_c, 9, 42, 42
8, 28164, Note_on_c, 9, 42, 0
8, 28288, Note_on_c, 9, 42, 65
8, 28292, Note_on_c, 9, 42, 0
8, 28416, Note_on_c, 9, 36, 127
8, 28416, Note_on_c, 9, 42, 97
8, 28420, Note_on_c, 9, 36, 0
8, 28424, Note_on_c, 9, 42, 0
8, 28544, Note_on_c, 9, 42, 42
8, 28548, Note_on_c, 9, 42, 0
8, 28672, Note_on_c, 9, 42, 65
8, 28676, Note_on_c, 9, 42, 0
8, 28792, Note_on_c, 9, 42, 97
8, 28800, Note_on_c, 9, 42, 0
8, 28800, Note_on_c, 9, 38, 127
8, 28804, Note_on_c, 9, 38, 0
8, 28928, Note_on_c, 9, 42, 42
8, 28932, Note_on_c, 9, 42, 0
8, 29056, Note_on_c, 9, 42, 65
8, 29060, Note_on_c, 9, 42, 0
8, 29184, Note_on_c, 9, 36, 127
8, 29184, Note_on_c, 9, 42, 97
8, 29188, Note_on_c, 9, 42, 0
8, 29188, Note_on_c, 9, 36, 0
8, 29312, Note_on_c, 9, 42, 42
8, 29316, Note_on_c, 9, 42, 0
8, 29440, Note_on_c, 9, 42, 65
8, 29444, Note_on_c, 9, 42, 0
8, 29564, Note_on_c, 9, 42, 97
8, 29568, Note_on_c, 9, 42, 0
8, 29568, Note_on_c, 9, 38, 127
8, 29572, Note_on_c, 9, 38, 0
8, 29696, Note_on_c, 9, 42, 42
8, 29700, Note_on_c, 9, 42, 0
8, 29824, Note_on_c, 9, 42, 65
8, 29828, Note_on_c, 9, 42, 0
8, 29952, Note_on_c, 9, 36, 127
8, 29952, Note_on_c, 9, 42, 97
8, 29956, Note_on_c, 9, 36, 0
8, 29960, Note_on_c, 9, 42, 0
8, 30080, Note_on_c, 9, 42, 42
8, 30084, Note_on_c, 9, 42, 0
8, 30208, Note_on_c, 9, 36, 127
8, 30208, Note_on_c, 9, 42, 65
8, 30212, Note_on_c, 9, 42, 0
8, 30212, Note_on_c, 9, 36, 0
8, 30328, Note_on_c, 9, 42, 97
8, 30336, Note_on_c, 9, 42, 0
8, 30336, Note_on_c, 9, 38, 127
8, 30340, Note_on_c, 9, 38, 0
8, 30464, Note_on_c, 9, 42, 42
8, 30468, Note_on_c, 9, 42, 0
8, 30592, Note_on_c, 9, 42, 65
8, 30596, Note_on_c, 9, 42, 0
8, 30720, Note_on_c, 9, 36, 127
8, 30720, Note_on_c, 9, 42, 97
8, 30724, Note_on_c, 9, 42, 0
8, 30724, Note_on_c, 9, 36, 0
8, 30848, Note_on_c, 9, 42, 42
8, 30852, Note_on_c, 9, 42, 0
8, 30976, Note_on_c, 9, 42, 65
8, 30980, Note_on_c, 9, 42, 0
8, 31100, Note_on_c, 9, 42, 97
8, 31104, Note_on_c, 9, 42, 0
8, 31104, Note_on_c, 9, 38, 127
8, 31108, Note_on_c, 9, 38, 0
8, 31232, Note_on_c, 9, 42, 42
8, 31236, Note_on_c, 9, 42, 0
8, 31360, Note_on_c, 9, 42, 65
8, 31364, Note_on_c, 9, 42, 0
8, 31488, Note_on_c, 9, 36, 127
8, 31488, Note_on_c, 9, 42, 97
8, 31492, Note_on_c, 9, 36, 0
8, 31496, Note_on_c, 9, 42, 0
8, 31616, Note_on_c, 9, 42, 42
8, 31620, Note_on_c, 9, 42, 0
8, 31744, Note_on_c, 9, 42, 65
8, 31748, Note_on_c, 9, 42, 0
8, 31864, Note_on_c, 9, 42, 97
8, 31872, Note_on_c, 9, 42, 0
8, 31872, Note_on_c, 9, 38, 127
8, 31876, Note_on_c, 9, 38, 0
8, 32000, Note_on_c, 9, 42, 42
8, 32004, Note_on_c, 9, 42, 0
8, 32128, Note_on_c, 9, 42, 65
8, 32132, Note_on_c, 9, 42, 0
8, 32256, Note_on_c, 9, 36, 127
8, 32256, Note_on_c, 9, 42, 97
8, 32260, Note_on_c, 9, 42, 0
8, 32260, Note_on_c, 9, 36, 0
8, 32384, Note_on_c, 9, 42, 42
8, 32388, Note_on_c, 9, 42, 0
8, 32512, Note_on_c, 9, 42, 65
8, 32516, Note_on_c, 9, 42, 0
8, 32636, Note_on_c, 9, 42, 97
8, 32640, Note_on_c, 9, 42, 0
8, 32640, Note_on_c, 9, 38, 127
8, 32644, Note_on_c, 9, 38, 0
8, 32768, Note_on_c, 9, 42, 42
8, 32772, Note_on_c, 9, 42, 0
8, 32896, Note_on_c, 9, 42, 65
8, 32900, Note_on_c, 9, 42, 0
8, 33024, Note_on_c, 9, 36, 127
8, 33024, Note_on_c, 9, 42, 97
8, 33028, Note_on_c, 9, 36, 0
8, 33032, Note_on_c, 9, 42, 0
8, 33152, Note_on_c, 9, 42, 42
8, 33156, Note_on_c, 9, 42, 0
8, 33280, Note_on_c, 9, 36, 127
8, 33280, Note_on_c, 9, 42, 65
8, 33284, Note_on_c, 9, 42, 0
8, 33284, Note_on_c, 9, 36, 0
8, 33400, Note_on_c, 9, 42, 97
8, 33408, Note_on_c, 9, 42, 0
8, 33408, Note_on_c, 9, 38, 127
8, 33412, Note_on_c, 9, 38, 0
8, 33536, Note_on_c, 9, 42, 42
8, 33540, Note_on_c, 9, 42, 0
8, 33664, Note_on_c, 9, 42, 65
8, 33668, Note_on_c, 9, 42, 0
8, 33792, Note_on_c, 9, 36, 127
8, 33792, Note_on_c, 9, 42, 97
8, 33796, Note_on_c, 9, 42, 0
8, 33796, Note_on_c, 9, 36, 0
8, 33920, Note_on_c, 9, 42, 42
8, 33924, Note_on_c, 9, 42, 0
8, 34048, Note_on_c, 9, 42, 65
8, 34052, Note_on_c, 9, 42, 0
8, 34172, Note_on_c, 9, 42, 97
8, 34176, Note_on_c, 9, 42, 0
8, 34176, Note_on_c, 9, 38, 127
8, 34180, Note_on_c, 9, 38, 0
8, 34304, Note_on_c, 9, 42, 42
8, 34308, Note_on_c, 9, 42, 0
8, 34432, Note_on_c, 9, 42, 65
8, 34436, Note_on_c, 9, 42, 0
8, 34560, Note_on_c, 9, 36, 127
8, 34560, Note_on_c, 9, 42, 97
8, 34564, Note_on_c, 9, 36, 0
8, 34568, Note_on_c, 9, 42, 0
8, 34688, Note_on_c, 9, 42, 42
8, 34692, Note_on_c, 9, 42, 0
8, 34816, Note_on_c, 9, 42, 65
8, 34820, Note_on_c, 9, 42, 0
8, 34936, Note_on_c, 9, 42, 97
8, 34944, Note_on_c, 9, 42, 0
8, 34944, Note_on_c, 9, 38, 127
8, 34948, Note_on_c, 9, 38, 0
8, 35072, Note_on_c, 9, 42, 42
8, 35076, Note_on_c, 9, 42, 0
8, 35200, Note_on_c, 9, 42, 65
8, 35204, Note_on_c, 9, 42, 0
8, 35328, Note_on_c, 9, 36, 127
8, 35328, Note_on_c, 9, 42, 97
8, 35332, Note_on_c, 9, 42, 0
8, 35332, Note_on_c, 9, 36, 0
8, 35456, Note_on_c, 9, 42, 42
8, 35460, Note_on_c, 9, 42, 0
8, 35584, Note_on_c, 9, 42, 65
8, 35588, Note_on_c, 9, 42, 0
8, 35708, Note_on_c, 9, 42, 97
8, 35712, Note_on_c, 9, 42, 0
8, 35712, Note_on_c, 9, 38, 127
8, 35716, Note_on_c, 9, 38, 0
8, 35840, Note_on_c, 9, 42, 42
8, 35844, Note_on_c, 9, 42, 0
8, 35968, Note_on_c, 9, 42, 65
8, 35972, Note_on_c, 9, 42, 0
8, 36096, Note_on_c, 9, 36, 127
8, 36096, Note_on_c, 9, 42, 97
8, 36100, Note_on_c, 9, 36, 0
8, 36104, Note_on_c, 9, 42, 0
8, 36224, Note_on_c, 9, 42, 42
8, 36228, Note_on_c, 9, 42, 0
8, 36352, Note_on_c, 9, 36, 127
8, 36352, Note_on_c, 9, 42, 65
8, 36356, Note_on_c, 9, 42, 0
8, 36356, Note_on_c, 9, 36, 0
8, 36472, Note_on_c, 9, 42, 97
8, 36480, Note_on_c, 9, 42, 0
8, 36480, Note_on_c, 9, 38, 127
8, 36484, Note_on_c, 9, 38, 0
8, 36608, Note_on_c, 9, 42, 42
8, 36612, Note_on_c, 9, 42, 0
8, 36736, Note_on_c, 9, 42, 65
8, 36740, Note_on_c, 9, 42, 0
8, 36864, Note_on_c, 9, 36, 127
8, 36864, Note_on_c, 9, 42, 97
8, 36868, Note_on_c, 9, 42, 0
8, 36868, Note_on_c, 9, 36, 0
8, 36992, Note_on_c, 9, 42, 42
8, 36996, Note_on_c, 9, 42, 0
8, 37120, Note_on_c, 9, 42, 65
8, 37124, Note_on_c, 9, 42, 0
8, 37244, Note_on_c, 9, 42, 97
8, 37248, Note_on_c, 9, 42, 0
8, 37248, Note_on_c, 9, 38, 127
8, 37252, Note_on_c, 9, 38, 0
8, 37376, Note_on_c, 9, 42, 42
8, 37380, Note_on_c, 9, 42, 0
8, 37504, Note_on_c, 9, 42, 65
8, 37508, Note_on_c, 9, 42, 0
8, 37632, Note_on_c, 9, 36, 127
8, 37632, Note_on_c, 9, 42, 97
8, 37636, Note_on_c, 9, 36, 0
8, 37640, Note_on_c, 9, 42, 0
8, 37760, Note_on_c, 9, 42, 42
8, 37764, Note_on_c, 9, 42, 0
8, 37888, Note_on_c, 9, 42, 65
8, 37892, Note_on_c, 9, 42, 0
8, 38008, Note_on_c, 9, 42, 97
8, 38016, Note_on_c, 9, 42, 0
8, 38016, Note_on_c, 9, 38, 127
8, 38020, Note_on_c, 9, 38, 0
8, 38144, Note_on_c, 9, 42, 42
8, 38148, Note_on_c, 9, 42, 0
8, 38272, Note_on_c, 9, 42, 65
8, 38276, Note_on_c, 9, 42, 0
8, 38400, Note_on_c, 9, 36, 127
8, 38400, Note_on_c, 9, 42, 97
8, 38404, Note_on_c, 9, 42, 0
8, 38404, Note_on_c, 9, 36, 0
8, 38528, Note_on_c, 9, 42, 42
8, 38532, Note_on_c, 9, 42, 0
8, 38656, Note_on_c, 9, 42, 65
8, 38660, Note_on_c, 9, 42, 0
8, 38780, Note_on_c, 9, 42, 97
8, 38784, Note_on_c, 9, 42, 0
8, 38784, Note_on_c, 9, 38, 127
8, 38788, Note_on_c, 9, 38, 0
8, 38912, Note_on_c, 9, 42, 42
8, 38916, Note_on_c, 9, 42, 0
8, 39040, Note_on_c, 9, 42, 65
8, 39044, Note_on_c, 9, 42, 0
8, 39168, Note_on_c, 9, 36, 127
8, 39168, Note_on_c, 9, 42, 97
8, 39172, Note_on_c, 9, 36, 0
8, 39176, Note_on_c, 9, 42, 0
8, 39296, Note_on_c, 9, 42, 42
8, 39300, Note_on_c, 9, 42, 0
8, 39424, Note_on_c, 9, 36, 127
8, 39424, Note_on_c, 9, 42, 65
8, 39428, Note_on_c, 9, 42, 0
8, 39428, Note_on_c, 9, 36, 0
8, 39544, Note_on_c, 9, 42, 97
8, 39552, Note_on_c, 9, 42, 0
8, 39552, Note_on_c, 9, 38, 127
8, 39556, Note_on_c, 9, 38, 0
8, 39680, Note_on_c, 9, 42, 42
8, 39684, Note_on_c, 9, 42, 0
8, 39808, Note_on_c, 9, 42, 65
8, 39812, Note_on_c, 9, 42, 0
8, 39936, Note_on_c, 9, 36, 127
8, 39936, Note_on_c, 9, 42, 97
8, 39940, Note_on_c, 9, 42, 0
8, 39940, Note_on_c, 9, 36, 0
8, 40064, Note_on_c, 9, 42, 42
8, 40068, Note_on_c, 9, 42, 0
8, 40192, Note_on_c, 9, 42, 65
8, 40196, Note_on_c, 9, 42, 0
8, 40316, Note_on_c, 9, 42, 97
8, 40320, Note_on_c, 9, 42, 0
8, 40320, Note_on_c, 9, 38, 127
8, 40324, Note_on_c, 9, 38, 0
8, 40448, Note_on_c, 9, 42, 42
8, 40452, Note_on_c, 9, 42, 0
8, 40576, Note_on_c, 9, 42, 65
8, 40580, Note_on_c, 9, 42, 0
8, 40704, Note_on_c, 9, 36, 127
8, 40704, Note_on_c, 9, 42, 97
8, 40708, Note_on_c, 9, 36, 0
8, 40712, Note_on_c, 9, 42, 0
8, 40832, Note_on_c, 9, 42, 42
8, 40836, Note_on_c, 9, 42, 0
8, 40960, Note_on_c, 9, 42, 65
8, 40964, Note_on_c, 9, 42, 0
8, 41080, Note_on_c, 9, 42, 97
8, 41088, Note_on_c, 9, 42, 0
8, 41088, Note_on_c, 9, 38, 127
8, 41092, Note_on_c, 9, 38, 0
8, 41216, Note_on_c, 9, 42, 42
8, 41220, Note_on_c, 9, 42, 0
8, 41344, Note_on_c, 9, 42, 65
8, 41348, Note_on_c, 9, 42, 0
8, 41472, Note_on_c, 9, 36, 127
8, 41472, Note_on_c, 9, 42, 97
8, 41476, Note_on_c, 9, 42, 0
8, 41476, Note_on_c, 9, 36, 0
8, 41600, Note_on_c, 9, 42, 42
8, 41604, Note_on_c, 9, 42, 0
8, 41728, Note_on_c, 9, 42, 65
8, 41732, Note_on_c, 9, 42, 0
8, 41852, Note_on_c, 9, 42, 97
8, 41856, Note_on_c, 9, 42, 0
8, 41856, Note_on_c, 9, 38, 127
8, 41860, Note_on_c, 9, 38, 0
8, 41984, Note_on_c, 9, 42, 42
8, 41988, Note_on_c, 9, 42, 0
8, 42112, Note_on_c, 9, 42, 65
8, 42116, Note_on_c, 9, 42, 0
8, 42240, Note_on_c, 9, 36, 127
8, 42240, Note_on_c, 9, 42, 97
8, 42244, Note_on_c, 9, 36, 0
8, 42248, Note_on_c, 9, 42, 0
8, 42368, Note_on_c, 9, 42, 42
8, 42372, Note_on_c, 9, 42, 0
8, 42496, Note_on_c, 9, 36, 127
8, 42496, Note_on_c, 9, 42, 65
8, 42500, Note_on_c, 9, 42, 0
8, 42500, Note_on_c, 9, 36, 0
8, 42616, Note_on_c, 9, 42, 97
8, 42624, Note_on_c, 9, 42, 0
8, 42624, Note_on_c, 9, 38, 127
8, 42628, Note_on_c, 9, 38, 0
8, 42752, Note_on_c, 9, 42, 42
8, 42756, Note_on_c, 9, 42, 0
8, 42880, Note_on_c, 9, 42, 65
8, 42884, Note_on_c, 9, 42, 0
8, 43008, Note_on_c, 9, 36, 127
8, 43008, Note_on_c, 9, 42, 97
8, 43012, Note_on_c, 9, 42, 0
8, 43012, Note_on_c, 9, 36, 0
8, 43136, Note_on_c, 9, 42, 42
8, 43140, Note_on_c, 9, 42, 0
8, 43264, Note_on_c, 9, 42, 65
8, 43268, Note_on_c, 9, 42, 0
8, 43388, Note_on_c, 9, 42, 97
8, 43392, Note_on_c, 9, 42, 0
8, 43392, Note_on_c, 9, 38, 127
8, 43396, Note_on_c, 9, 38, 0
8, 43520, Note_on_c, 9, 42, 42
8, 43524, Note_on_c, 9, 42, 0
8, 43648, Note_on_c, 9, 42, 65
8, 43652, Note_on_c, 9, 42, 0
8, 43776, Note_on_c, 9, 36, 127
8, 43776, Note_on_c, 9, 42, 97
8, 43780, Note_on_c, 9, 36, 0
8, 43784, Note_on_c, 9, 42, 0
8, 43904, Note_on_c, 9, 42, 42
8, 43908, Note_on_c, 9, 42, 0
8, 44032, Note_on_c, 9, 42, 65
8, 44036, Note_on_c, 9, 42, 0
8, 44152, Note_on_c, 9, 42, 97
8, 44160, Note_on_c, 9, 42, 0
8, 44160, Note_on_c, 9, 38, 127
8, 44164, Note_on_c, 9, 38, 0
8, 44288, Note_on_c, 9, 42, 42
8, 44292, Note_on_c, 9, 42, 0
8, 44416, Note_on_c, 9, 42, 65
8, 44420, Note_on_c, 9, 42, 0
8, 44544, Note_on_c, 9, 36, 127
8, 44544, Note_on_c, 9, 42, 97
8, 44548, Note_on_c, 9, 42, 0
8, 44548, Note_on_c, 9, 36, 0
8, 44672, Note_on_c, 9, 42, 42
8, 44676, Note_on_c, 9, 42, 0
8, 44800, Note_on_c, 9, 42, 65
8, 44804, Note_on_c, 9, 42, 0
8, 44924, Note_on_c, 9, 42, 97
8, 44928, Note_on_c, 9, 42, 0
8, 44928, Note_on_c, 9, 38, 127
8, 44932, Note_on_c, 9, 38, 0
8, 45056, Note_on_c, 9, 42, 42
8, 45060, Note_on_c, 9, 42, 0
8, 45184, Note_on_c, 9, 42, 65
8, 45188, Note_on_c, 9, 42, 0
8, 45312, Note_on_c, 9, 36, 127
8, 45312, Note_on_c, 9, 42, 97
8, 45316, Note_on_c, 9, 36, 0
8, 45320, Note_on_c, 9, 42, 0
8, 45440, Note_on_c, 9, 42, 42
8, 45444, Note_on_c, 9, 42, 0
8, 45568, Note_on_c, 9, 36, 127
8, 45568, Note_on_c, 9, 42, 65
8, 45572, Note_on_c, 9, 42, 0
8, 45572, Note_on_c, 9, 36, 0
8, 45688, Note_on_c, 9, 42, 97
8, 45696, Note_on_c, 9, 42, 0
8, 45696, Note_on_c, 9, 38, 127
8, 45700, Note_on_c, 9, 38, 0
8, 45824, Note_on_c, 9, 42, 42
8, 45828, Note_on_c, 9, 42, 0
8, 45952, Note_on_c, 9, 42, 65
8, 45956, Note_on_c, 9, 42, 0
8, 46080, Note_on_c, 9, 36, 127
8, 46080, Note_on_c, 9, 42, 97
8, 46084, Note_on_c, 9, 42, 0
8, 46084, Note_on_c, 9, 36, 0
8, 46208, Note_on_c, 9, 42, 42
8, 46212, Note_on_c, 9, 42, 0
8, 46336, Note_on_c, 9, 42, 65
8, 46340, Note_on_c, 9, 42, 0
8, 46460, Note_on_c, 9, 42, 97
8, 46464, Note_on_c, 9, 42, 0
8, 46464, Note_on_c, 9, 38, 127
8, 46468, Note_on_c, 9, 38, 0
8, 46592, Note_on_c, 9, 42, 42
8, 46596, Note_on_c, 9, 42, 0
8, 46720, Note_on_c, 9, 42, 65
8, 46724, Note_on_c, 9, 42, 0
8, 46848, Note_on_c, 9, 36, 127
8, 46848, Note_on_c, 9, 42, 97
8, 46852, Note_on_c, 9, 36, 0
8, 46856, Note_on_c, 9, 42, 0
8, 46976, Note_on_c, 9, 42, 42
8, 46980, Note_on_c, 9, 42, 0
8, 47104, Note_on_c, 9, 42, 65
8, 47108, Note_on_c, 9, 42, 0
8, 47224, Note_on_c, 9, 42, 97
8, 47232, Note_on_c, 9, 42, 0
8, 47232, Note_on_c, 9, 38, 127
8, 47236, Note_on_c, 9, 38, 0
8, 47360, Note_on_c, 9, 42, 42
8, 47364, Note_on_c, 9, 42, 0
8, 47488, Note_on_c, 9, 42, 65
8, 47492, Note_on_c, 9, 42, 0
8, 47616, Note_on_c, 9, 36, 127
8, 47616, Note_on_c, 9, 42, 97
8, 47620, Note_on_c, 9, 42, 0
8, 47620, Note_on_c, 9, 36, 0
8, 47744, Note_on_c, 9, 42, 42
8, 47748, Note_on_c, 9, 42, 0
8, 47872, Note_on_c, 9, 42, 65
8, 47876, Note_on_c, 9, 42, 0
8, 47996, Note_on_c, 9, 42, 97
8, 48000, Note_on_c, 9, 42, 0
8, 48000, Note_on_c, 9, 38, 127
8, 48004, Note_on_c, 9, 38, 0
8, 48128, Note_on_c, 9, 42, 42
8, 48132, Note_on_c, 9, 42, 0
8, 48256, Note_on_c, 9, 42, 65
8, 48260, Note_on_c, 9, 42, 0
8, 48384, Note_on_c, 9, 36, 127
8, 48384, Note_on_c, 9, 42, 97
8, 48388, Note_on_c, 9, 36, 0
8, 48392, Note_on_c, 9, 42, 0
8, 48512, Note_on_c, 9, 42, 42
8, 48516, Note_on_c, 9, 42, 0
8, 48640, Note_on_c, 9, 36, 127
8, 48640, Note_on_c, 9, 42, 65
8, 48644, Note_on_c, 9, 42, 0
8, 48644, Note_on_c, 9, 36, 0
8, 48760, Note_on_c, 9, 42, 97
8, 48768, Note_on_c, 9, 42, 0
8, 48768, Note_on_c, 9, 38, 127
8, 48772, Note_on_c, 9, 38, 0
8, 48896, Note_on_c, 9, 42, 42
8, 48900, Note_on_c, 9, 42, 0
8, 49024, Note_on_c, 9, 42, 65
8, 49028, Note_on_c, 9, 42, 0
8, 49152, Note_on_c, 9, 36, 127
8, 49152, Note_on_c, 9, 42, 97
8, 49156, Note_on_c, 9, 42, 0
8, 49156, Note_on_c, 9, 36, 0
8, 49280, Note_on_c, 9, 42, 42
8, 49284, Note_on_c, 9, 42, 0
8, 49408, Note_on_c, 9, 42, 65
8, 49412, Note_on_c, 9, 42, 0
8, 49532, Note_on_c, 9, 42, 97
8, 49536, Note_on_c, 9, 42, 0
8, 49536, Note_on_c, 9, 38, 127
8, 49540, Note_on_c, 9, 38, 0
8, 49664, Note_on_c, 9, 42, 42
8, 49668, Note_on_c, 9, 42, 0
8, 49792, Note_on_c, 9, 42, 65
8, 49796, Note_on_c, 9, 42, 0
8, 49920, Note_on_c, 9, 36, 127
8, 49920, Note_on_c, 9, 42, 97
8, 49924, Note_on_c, 9, 36, 0
8, 49928, Note_on_c, 9, 42, 0
8, 50048, Note_on_c, 9, 42, 42
8, 50052, Note_on_c, 9, 42, 0
8, 50176, Note_on_c, 9, 42, 65
8, 50180, Note_on_c, 9, 42, 0
8, 50296, Note_on_c, 9, 42, 97
8, 50304, Note_on_c, 9, 42, 0
8, 50304, Note_on_c, 9, 38, 127
8, 50308, Note_on_c, 9, 38, 0
8, 50432, Note_on_c, 9, 42, 42
8, 50436, Note_on_c, 9, 42, 0
8, 50560, Note_on_c, 9, 42, 65
8, 50564, Note_on_c, 9, 42, 0
8, 50688, Note_on_c, 9, 36, 127
8, 50688, Note_on_c, 9, 42, 97
8, 50692, Note_on_c, 9, 42, 0
8, 50692, Note_on_c, 9, 36, 0
8, 50816, Note_on_c, 9, 42, 42
8, 50820, Note_on_c, 9, 42, 0
8, 50944, Note_on_c, 9, 42, 65
8, 50948, Note_on_c, 9, 42, 0
8, 51068, Note_on_c, 9, 42, 97
8, 51072, Note_on_c, 9, 42, 0
8, 51072, Note_on_c, 9, 38, 127
8, 51076, Note_on_c, 9, 38, 0
8, 51200, Note_on_c, 9, 42, 42
8, 51204, Note_on_c, 9, 42, 0
8, 51328, Note_on_c, 9, 42, 65
8, 51332, Note_on_c, 9, 42, 0
8, 51456, Note_on_c, 9, 36, 127
8, 51456, Note_on_c, 9, 42, 97
8, 51460, Note_on_c, 9, 36, 0
8, 51464, Note_on_c, 9, 42, 0
8, 51584, Note_on_c, 9, 42, 42
8, 51588, Note_on_c, 9, 42, 0
8, 51712, Note_on_c, 9, 36, 127
8, 51712, Note_on_c, 9, 42, 65
8, 51716, Note_on_c, 9, 42, 0
8, 51716, Note_on_c, 9, 36, 0
8, 51832, Note_on_c, 9, 42, 97
8, 51840, Note_on_c, 9, 42, 0
8, 51840, Note_on_c, 9, 38, 127
8, 51844, Note_on_c, 9, 38, 0
8, 51968, Note_on_c, 9, 42, 42
8, 51972, Note_on_c, 9, 42, 0
8, 52096, Note_on_c, 9, 42, 65
8, 52100, Note_on_c, 9, 42, 0
8, 52224, Note_on_c, 9, 36, 127
8, 52224, Note_on_c, 9, 42, 97
8, 52228, Note_on_c, 9, 42, 0
8, 52228, Note_on_c, 9, 36, 0
8, 52352, Note_on_c, 9, 42, 42
8, 52356, Note_on_c, 9, 42, 0
8, 52480, Note_on_c, 9, 42, 65
8, 52484, Note_on_c, 9, 42, 0
8, 52604, Note_on_c, 9, 42, 97
8, 52608, Note_on_c, 9, 42, 0
8, 52608, Note_on_c, 9, 38, 127
8, 52612, Note_on_c, 9, 38, 0
8, 52736, Note_on_c, 9, 42, 42
8, 52740, Note_on_c, 9, 42, 0
8, 52864, Note_on_c, 9, 42, 65
8, 52868, Note_on_c, 9, 42, 0
8, 52992, Note_on_c, 9, 36, 127
8, 52992, Note_on_c, 9, 42, 97
8, 52996, Note_on_c, 9, 36, 0
8, 53000, Note_on_c, 9, 42, 0
8, 53120, Note_on_c, 9, 42, 42
8, 53124, Note_on_c, 9, 42, 0
8, 53248, Note_on_c, 9, 42, 65
8, 53252, Note_on_c, 9, 42, 0
8, 53368, Note_on_c, 9, 42, 97
8, 53376, Note_on_c, 9, 42, 0
8, 53376, Note_on_c, 9, 38, 127
8, 53380, Note_on_c, 9, 38, 0
8, 53504, Note_on_c, 9, 42, 42
8, 53508, Note_on_c, 9, 42, 0
8, 53632, Note_on_c, 9, 42, 65
8, 53636, Note_on_c, 9, 42, 0
8, 53760, Note_on_c, 9, 36, 127
8, 53760, Note_on_c, 9, 42, 97
8, 53764, Note_on_c, 9, 42, 0
8, 53764, Note_on_c, 9, 36, 0
8, 53888, Note_on_c, 9, 42, 42
8, 53892, Note_on_c, 9, 42, 0
8, 54016, Note_on_c, 9, 42, 65
8, 54020, Note_on_c, 9, 42, 0
8, 54140, Note_on_c, 9, 42, 97
8, 54144, Note_on_c, 9, 42, 0
8, 54144, Note_on_c, 9, 38, 127
8, 54148, Note_on_c, 9, 38, 0
8, 54272, Note_on_c, 9, 42, 42
8, 54276, Note_on_c, 9, 42, 0
8, 54400, Note_on_c, 9, 42, 65
8, 54404, Note_on_c, 9, 42, 0
8, 54528, Note_on_c, 9, 36, 127
8, 54528, Note_on_c, 9, 42, 97
8, 54532, Note_on_c, 9, 36, 0
8, 54536, Note_on_c, 9, 42, 0
8, 54656, Note_on_c, 9, 42, 42
8, 54660, Note_on_c, 9, 42, 0
8, 54784, Note_on_c, 9, 36, 127
8, 54784, Note_on_c, 9, 42, 65
8, 54788, Note_on_c, 9, 42, 0
8, 54788, Note_on_c, 9, 36, 0
8, 54904, Note_on_c, 9, 42, 97
8, 54912, Note_on_c, 9, 42, 0
8, 54912, Note_on_c, 9, 38, 127
8, 54916, Note_on_c, 9, 38, 0
8, 55040, Note_on_c, 9, 42, 42
8, 55044, Note_on_c, 9, 42, 0
8, 55168, Note_on_c, 9, 42, 65
8, 55172, Note_on_c, 9, 42, 0
8, 55296, Note_on_c, 9, 36, 127
8, 55296, Note_on_c, 9, 42, 97
8, 55300, Note_on_c, 9, 42, 0
8, 55300, Note_on_c, 9, 36, 0
8, 55424, Note_on_c, 9, 42, 42
8, 55428, Note_on_c, 9, 42, 0
8, 55552, Note_on_c, 9, 42, 65
8, 55556, Note_on_c, 9, 42, 0
8, 55676, Note_on_c, 9, 42, 97
8, 55680, Note_on_c, 9, 42, 0
8, 55680, Note_on_c, 9, 38, 127
8, 55684, Note_on_c, 9, 38, 0
8, 55808, Note_on_c, 9, 42, 42
8, 55812, Note_on_c, 9, 42, 0
8, 55936, Note_on_c, 9, 42, 65
8, 55940, Note_on_c, 9, 42, 0
8, 56064, Note_on_c, 9, 36, 127
8, 56064, Note_on_c, 9, 42, 97
8, 56068, Note_on_c, 9, 36, 0
8, 56072, Note_on_c, 9, 42, 0
8, 56192, Note_on_c, 9, 42, 42
8, 56196, Note_on_c, 9, 42, 0
8, 56320, Note_on_c, 9, 42, 65
8, 56324, Note_on_c, 9, 42, 0
8, 56440, Note_on_c, 9, 42, 97
8, 56448, Note_on_c, 9, 42, 0
8, 56448, Note_on_c, 9, 38, 127
8, 56452, Note_on_c, 9, 38, 0
8, 56576, Note_on_c, 9, 42, 42
8, 56580, Note_on_c, 9, 42, 0
8, 56704, Note_on_c, 9, 42, 65
8, 56708, Note_on_c, 9, 42, 0
8, 56832, Note_on_c, 9, 36, 127
8, 56832, Note_on_c, 9, 42, 97
8, 56836, Note_on_c, 9, 42, 0
8, 56836, Note_on_c, 9, 36, 0
8, 56960, Note_on_c, 9, 42, 42
8, 56964, Note_on_c, 9, 42, 0
8, 57088, Note_on_c, 9, 42, 65
8, 57092, Note_on_c, 9, 42, 0
8, 57212, Note_on_c, 9, 42, 97
8, 57216, Note_on_c, 9, 42, 0
8, 57216, Note_on_c, 9, 38, 127
8, 57220, Note_on_c, 9, 38, 0
8, 57344, Note_on_c, 9, 42, 42
8, 57348, Note_on_c, 9, 42, 0
8, 57472, Note_on_c, 9, 38, 127
8, 57472, Note_on_c, 9, 42, 65
8, 57476, Note_on_c, 9, 42, 0
8, 57476, Note_on_c, 9, 38, 0
8, 57600, Note_on_c, 9, 36, 127
8, 57600, Note_on_c, 9, 42, 97
8, 57604, Note_on_c, 9, 36, 0
8, 57608, Note_on_c, 9, 42, 0
8, 57728, Note_on_c, 9, 42, 42
8, 57732, Note_on_c, 9, 42, 0
8, 57856, Note_on_c, 9, 36, 127
8, 57856, Note_on_c, 9, 42, 65
8, 57860, Note_on_c, 9, 42, 0
8, 57860, Note_on_c, 9, 36, 0
8, 57976, Note_on_c, 9, 42, 97
8, 57984, Note_on_c, 9, 42, 0
8, 57984, Note_on_c, 9, 38, 127
8, 57984, Note_on_c, 9, 50, 127
8, 57988, Note_on_c, 9, 50, 0
8, 57988, Note_on_c, 9, 38, 0
8, 58112, Note_on_c, 9, 42, 42
8, 58112, Note_on_c, 9, 47, 127
8, 58116, Note_on_c, 9, 47, 0
8, 58116, Note_on_c, 9, 42, 0
8, 58240, Note_on_c, 9, 42, 65
8, 58240, Note_on_c, 9, 43, 127
8, 58244, Note_on_c, 9, 43, 0
8, 58244, Note_on_c, 9, 42, 0
8, 58368, Note_on_c, 9, 36, 127
8, 58368, Note_on_c, 9, 42, 97
8, 58372, Note_on_c, 9, 42, 0
8, 58372, Note_on_c, 9, 36, 0
8, 58496, Note_on_c, 9, 42, 42
8, 58500, Note_on_c, 9, 42, 0
8, 58624, Note_on_c, 9, 42, 65
8, 58628, Note_on_c, 9, 42, 0
8, 58748, Note_on_c, 9, 42, 97
8, 58752, Note_on_c, 9, 42, 0
8, 58752, Note_on_c, 9, 38, 127
8, 58756, Note_on_c, 9, 38, 0
8, 58880, Note_on_c, 9, 42, 42
8, 58884, Note_on_c, 9, 42, 0
8, 59008, Note_on_c, 9, 42, 65
8, 59012, Note_on_c, 9, 42, 0
8, 59136, Note_on_c, 9, 36, 127
8, 59136, Note_on_c, 9, 42, 97
8, 59140, Note_on_c, 9, 36, 0
8, 59144, Note_on_c, 9, 42, 0
8, 59264, Note_on_c, 9, 42, 42
8, 59268, Note_on_c, 9, 42, 0
8, 59392, Note_on_c, 9, 42, 65
8, 59396, Note_on_c, 9, 42, 0
8, 59512, Note_on_c, 9, 42, 97
8, 59520, Note_on_c, 9, 42, 0
8, 59520, Note_on_c, 9, 38, 127
8, 59524, Note_on_c, 9, 38, 0
8, 59648, Note_on_c, 9, 42, 42
8, 59652, Note_on_c, 9, 42, 0
8, 59776, Note_on_c, 9, 42, 65
8, 59780, Note_on_c, 9, 42, 0
8, 59904, Note_on_c, 9, 36, 127
8, 59904, Note_on_c, 9, 42, 97
8, 59908, Note_on_c, 9, 42, 0
8, 59908, Note_on_c, 9, 36, 0
8, 60032, Note_on_c, 9, 42, 42
8, 60036, Note_on_c, 9, 42, 0
8, 60160, Note_on_c, 9, 42, 65
8, 60164, Note_on_c, 9, 42, 0
8, 60284, Note_on_c, 9, 42, 97
8, 60288, Note_on_c, 9, 42, 0
8, 60288, Note_on_c, 9, 38, 127
8, 60292, Note_on_c, 9, 38, 0
8, 60416, Note_on_c, 9, 42, 42
8, 60420, Note_on_c, 9, 42, 0
8, 60544, Note_on_c, 9, 42, 65
8, 60548, Note_on_c, 9, 42, 0
8, 60672, Note_on_c, 9, 36, 127
8, 60672, Note_on_c, 9, 42, 97
8, 60676, Note_on_c, 9, 36, 0
8, 60680, Note_on_c, 9, 42, 0
8, 60800, Note_on_c, 9, 42, 42
8, 60804, Note_on_c, 9, 42, 0
8, 60928, Note_on_c, 9, 36, 127
8, 60928, Note_on_c, 9, 42, 65
8, 60932, Note_on_c, 9, 42, 0
8, 60932, Note_on_c, 9, 36, 0
8, 61048, Note_on_c, 9, 42, 97
8, 61056, Note_on_c, 9, 42, 0
8, 61056, Note_on_c, 9, 38, 127
8, 61060, Note_on_c, 9, 38, 0
8, 61184, Note_on_c, 9, 42, 42
8, 61188, Note_on_c, 9, 42, 0
8, 61312, Note_on_c, 9, 42, 65
8, 61316, Note_on_c, 9, 42, 0
8, 61440, Note_on_c, 9, 36, 127
8, 61440, Note_on_c, 9, 42, 97
8, 61444, Note_on_c, 9, 42, 0
8, 61444, Note_on_c, 9, 36, 0
8, 61568, Note_on_c, 9, 42, 42
8, 61572, Note_on_c, 9, 42, 0
8, 61696, Note_on_c, 9, 42, 65
8, 61700, Note_on_c, 9, 42, 0
8, 61820, Note_on_c, 9, 42, 97
8, 61824, Note_on_c, 9, 42, 0
8, 61824, Note_on_c, 9, 38, 127
8, 61828, Note_on_c, 9, 38, 0
8, 61952, Note_on_c, 9, 42, 42
8, 61956, Note_on_c, 9, 42, 0
8, 62080, Note_on_c, 9, 42, 65
8, 62084, Note_on_c, 9, 42, 0
8, 62208, Note_on_c, 9, 36, 127
8, 62208, Note_on_c, 9, 42, 97
8, 62212, Note_on_c, 9, 36, 0
8, 62216, Note_on_c, 9, 42, 0
8, 62336, Note_on_c, 9, 42, 42
8, 62340, Note_on_c, 9, 42, 0
8, 62464, Note_on_c, 9, 42, 65
8, 62468, Note_on_c, 9, 42, 0
8, 62584, Note_on_c, 9, 42, 97
8, 62592, Note_on_c, 9, 42, 0
8, 62592, Note_on_c, 9, 38, 127
8, 62596, Note_on_c, 9, 38, 0
8, 62720, Note_on_c, 9, 42, 42
8, 62724, Note_on_c, 9, 42, 0
8, 62848, Note_on_c, 9, 42, 65
8, 62852, Note_on_c, 9, 42, 0
8, 62976, Note_on_c, 9, 36, 127
8, 62976, Note_on_c, 9, 42, 97
8, 62980, Note_on_c, 9, 42, 0
8, 62980, Note_on_c, 9, 36, 0
8, 63104, Note_on_c, 9, 42, 42
8, 63108, Note_on_c, 9, 42, 0
8, 63232, Note_on_c, 9, 42, 65
8, 63236, Note_on_c, 9, 42, 0
8, 63356, Note_on_c, 9, 42, 97
8, 63360, Note_on_c, 9, 42, 0
8, 63360, Note_on_c, 9, 38, 127
8, 63364, Note_on_c, 9, 38, 0
8, 63488, Note_on_c, 9, 42, 42
8, 63492, Note_on_c, 9, 42, 0
8, 63616, Note_on_c, 9, 42, 65
8, 63620, Note_on_c, 9, 42, 0
8, 63744, Note_on_c, 9, 36, 127
8, 63744, Note_on_c, 9, 42, 97
8, 63748, Note_on_c, 9, 36, 0
8, 63752, Note_on_c, 9, 42, 0
8, 63872, Note_on_c, 9, 42, 42
8, 63876, Note_on_c, 9, 42, 0
8, 64000, Note_on_c, 9, 36, 127
8, 64000, Note_on_c, 9, 42, 65
8, 64004, Note_on_c, 9, 42, 0
8, 64004, Note_on_c, 9, 36, 0
8, 64120, Note_on_c, 9, 42, 97
8, 64128, Note_on_c, 9, 42, 0
8, 64128, Note_on_c, 9, 38, 127
8, 64132, Note_on_c, 9, 38, 0
8, 64256, Note_on_c, 9, 42, 42
8, 64260, Note_on_c, 9, 42, 0
8, 64384, Note_on_c, 9, 42, 65
8, 64388, Note_on_c, 9, 42, 0
8, 64512, Note_on_c, 9, 36, 127
8, 64512, Note_on_c, 9, 42, 97
8, 64512, Note_on_c, 9, 49, 127
8, 64516, Note_on_c, 9, 49, 0
8, 64516, Note_on_c, 9, 42, 0
8, 64516, Note_on_c, 9, 36, 0
8, 64640, Note_on_c, 9, 42, 42
8, 64644, Note_on_c, 9, 42, 0
8, 64768, Note_on_c, 9, 42, 65
8, 64772, Note_on_c, 9, 42, 0
8, 64892, Note_on_c, 9, 42, 97
8, 64896, Note_on_c, 9, 42, 0
8, 64896, Note_on_c, 9, 38, 127
8, 64900, Note_on_c, 9, 38, 0
8, 65024, Note_on_c, 9, 42, 42
8, 65028, Note_on_c, 9, 42, 0
8, 65152, Note_on_c, 9, 42, 65
8, 65156, Note_on_c, 9, 42, 0
8, 65280, Note_on_c, 9, 36, 127
8, 65280, Note_on_c, 9, 42, 97
8, 65284, Note_on_c, 9, 36, 0
8, 65288, Note_on_c, 9, 42, 0
8, 65408, Note_on_c, 9, 42, 42
8, 65412, Note_on_c, 9, 42, 0
8, 65536, Note_on_c, 9, 42, 65
8, 65540, Note_on_c, 9, 42, 0
8, 65656, Note_on_c, 9, 42, 97
8, 65664, Note_on_c, 9, 42, 0
8, 65664, Note_on_c, 9, 38, 127
8, 65668, Note_on_c, 9, 38, 0
8, 65792, Note_on_c, 9, 42, 42
8, 65796, Note_on_c, 9, 42, 0
8, 65920, Note_on_c, 9, 42, 65
8, 65924, Note_on_c, 9, 42, 0
8, 66048, Note_on_c, 9, 36, 127
8, 66048, Note_on_c, 9, 42, 97
8, 66052, Note_on_c, 9, 42, 0
8, 66052, Note_on_c, 9, 36, 0
8, 66176, Note_on_c, 9, 42, 42
8, 66180, Note_on_c, 9, 42, 0
8, 66304, Note_on_c, 9, 42, 65
8, 66308, Note_on_c, 9, 42, 0
8, 66428, Note_on_c, 9, 42, 97
8, 66432, Note_on_c, 9, 42, 0
8, 66432, Note_on_c, 9, 38, 127
8, 66436, Note_on_c, 9, 38, 0
8, 66560, Note_on_c, 9, 42, 42
8, 66564, Note_on_c, 9, 42, 0
8, 66688, Note_on_c, 9, 42, 65
8, 66692, Note_on_c, 9, 42, 0
8, 66816, Note_on_c, 9, 36, 127
8, 66816, Note_on_c, 9, 42, 97
8, 66820, Note_on_c, 9, 36, 0
8, 66824, Note_on_c, 9, 42, 0
8, 66944, Note_on_c, 9, 42, 42
8, 66948, Note_on_c, 9, 42, 0
8, 67072, Note_on_c, 9, 36, 127
8, 67072, Note_on_c, 9, 42, 65
8, 67076, Note_on_c, 9, 42, 0
8, 67076, Note_on_c, 9, 36, 0
8, 67192, Note_on_c, 9, 42, 97
8, 67200, Note_on_c, 9, 42, 0
8, 67200, Note_on_c, 9, 38, 127
8, 67204, Note_on_c, 9, 38, 0
8, 67328, Note_on_c, 9, 42, 42
8, 67332, Note_on_c, 9, 42, 0
8, 67456, Note_on_c, 9, 42, 65
8, 67460, Note_on_c, 9, 42, 0
8, 67584, Note_on_c, 9, 36, 127
8, 67584, Note_on_c, 9, 42, 97
8, 67588, Note_on_c, 9, 42, 0
8, 67588, Note_on_c, 9, 36, 0
8, 67712, Note_on_c, 9, 42, 42
8, 67712, Note_on_c, 9, 39, 105
8, 67716, Note_on_c, 9, 39, 0
8, 67716, Note_on_c, 9, 42, 0
8, 67840, Note_on_c, 9, 42, 65
8, 67840, Note_on_c, 9, 39, 115
8, 67844, Note_on_c, 9, 39, 0
8, 67844, Note_on_c, 9, 42, 0
8, 67964, Note_on_c, 9, 42, 97
8, 67968, Note_on_c, 9, 42, 0
8, 67968, Note_on_c, 9, 38, 127
8, 67968, Note_on_c, 9, 39, 125
8, 67972, Note_on_c, 9, 39, 0
8, 67972, Note_on_c, 9, 38, 0
8, 68096, Note_on_c, 9, 42, 42
8, 68100, Note_on_c, 9, 42, 0
8, 68224, Note_on_c, 9, 42, 65
8, 68228, Note_on_c, 9, 42, 0
8, 68352, Note_on_c, 9, 36, 127
8, 68352, Note_on_c, 9, 42, 97
8, 68356, Note_on_c, 9, 36, 0
8, 68360, Note_on_c, 9, 42, 0
8, 68480, Note_on_c, 9, 42, 42
8, 68484, Note_on_c, 9, 42, 0
8, 68608, Note_on_c, 9, 42, 65
8, 68612, Note_on_c, 9, 42, 0
8, 68728, Note_on_c, 9, 42, 97
8, 68736, Note_on_c, 9, 42, 0
8, 68736, Note_on_c, 9, 38, 127
8, 68740, Note_on_c, 9, 38, 0
8, 68864, Note_on_c, 9, 42, 42
8, 68868, Note_on_c, 9, 42, 0
8, 68992, Note_on_c, 9, 42, 65
8, 68996, Note_on_c, 9, 42, 0
8, 69120, Note_on_c, 9, 36, 127
8, 69120, Note_on_c, 9, 42, 97
8, 69124, Note_on_c, 9, 42, 0
8, 69124, Note_on_c, 9, 36, 0
8, 69248, Note_on_c, 9, 42, 42
8, 69248, Note_on_c, 9, 47, 127
8, 69252, Note_on_c, 9, 47, 0
8, 69252, Note_on_c, 9, 42, 0
8, 69376, Note_on_c, 9, 42, 65
8, 69376, Note_on_c, 9, 47, 127
8, 69380, Note_on_c, 9, 47, 0
8, 69380, Note_on_c, 9, 42, 0
8, 69500, Note_on_c, 9, 42, 97
8, 69504, Note_on_c, 9, 42, 0
8, 69504, Note_on_c, 9, 38, 127
8, 69504, Note_on_c, 9, 50, 127
8, 69508, Note_on_c, 9, 50, 0
8, 69508, Note_on_c, 9, 38, 0
8, 69632, Note_on_c, 9, 42, 42
8, 69636, Note_on_c, 9, 42, 0
8, 69760, Note_on_c, 9, 42, 65
8, 69764, Note_on_c, 9, 42, 0
8, 69888, Note_on_c, 9, 36, 127
8, 69888, Note_on_c, 9, 42, 97
8, 69892, Note_on_c, 9, 36, 0
8, 69896, Note_on_c, 9, 42, 0
8, 70016, Note_on_c, 9, 42, 42
8, 70016, Note_on_c, 9, 47, 127
8, 70020, Note_on_c, 9, 47, 0
8, 70020, Note_on_c, 9, 42, 0
8, 70144, Note_on_c, 9, 36, 127
8, 70144, Note_on_c, 9, 42, 65
8, 70144, Note_on_c, 9, 47, 127
8, 70148, Note_on_c, 9, 47, 0
8, 70148, Note_on_c, 9, 42, 0
8, 70148, Note_on_c, 9, 36, 0
8, 70264, Note_on_c, 9, 42, 97
8, 70272, Note_on_c, 9, 42, 0
8, 70272, Note_on_c, 9, 38, 127
8, 70272, Note_on_c, 9, 43, 127
8, 70276, Note_on_c, 9, 43, 0
8, 70276, Note_on_c, 9, 38, 0
8, 70400, Note_on_c, 9, 42, 42
8, 70404, Note_on_c, 9, 42, 0
8, 70528, Note_on_c, 9, 42, 65
8, 70532, Note_on_c, 9, 42, 0
8, 70656, Note_on_c, 9, 36, 127
8, 70656, Note_on_c, 9, 42, 97
8, 70656, Note_on_c, 9, 49, 127
8, 70660, Note_on_c, 9, 49, 0
8, 70660, Note_on_c, 9, 42, 0
8, 70660, Note_on_c, 9, 36, 0
8, 70784, Note_on_c, 9, 42, 42
8, 70788, Note_on_c, 9, 42, 0
8, 70912, Note_on_c, 9, 42, 65
8, 70916, Note_on_c, 9, 42, 0
8, 71036, Note_on_c, 9, 42, 97
8, 71040, Note_on_c, 9, 42, 0
8, 71040, Note_on_c, 9, 38, 127
8, 71044, Note_on_c, 9, 38, 0
8, 71168, Note_on_c, 9, 42, 42
8, 71172, Note_on_c, 9, 42, 0
8, 71296, Note_on_c, 9, 42, 65
8, 71300, Note_on_c, 9, 42, 0
8, 71424, Note_on_c, 9, 36, 127
8, 71424, Note_on_c, 9, 42, 97
8, 71428, Note_on_c, 9, 36, 0
8, 71432, Note_on_c, 9, 42, 0
8, 71552, Note_on_c, 9, 42, 42
8, 71556, Note_on_c, 9, 42, 0
8, 71680, Note_on_c, 9, 42, 65
8, 71684, Note_on_c, 9, 42, 0
8, 71800, Note_on_c, 9, 42, 97
8, 71808, Note_on_c, 9, 42, 0
8, 71808, Note_on_c, 9, 38, 127
8, 71812, Note_on_c, 9, 38, 0
8, 71936, Note_on_c, 9, 42, 42
8, 71940, Note_on_c, 9, 42, 0
8, 72064, Note_on_c, 9, 42, 65
8, 72068, Note_on_c, 9, 42, 0
8, 72192, Note_on_c, 9, 36, 127
8, 72192, Note_on_c, 9, 42, 97
8, 72196, Note_on_c, 9, 42, 0
8, 72196, Note_on_c, 9, 36, 0
8, 72320, Note_on_c, 9, 42, 42
8, 72324, Note_on_c, 9, 42, 0
8, 72448, Note_on_c, 9, 42, 65
8, 72452, Note_on_c, 9, 42, 0
8, 72572, Note_on_c, 9, 42, 97
8, 72576, Note_on_c, 9, 42, 0
8, 72576, Note_on_c, 9, 38, 127
8, 72580, Note_on_c, 9, 38, 0
8, 72704, Note_on_c, 9, 42, 42
8, 72708, Note_on_c, 9, 42, 0
8, 72832, Note_on_c, 9, 42, 65
8, 72836, Note_on_c, 9, 42, 0
8, 72960, Note_on_c, 9, 36, 127
8, 72960, Note_on_c, 9, 42, 97
8, 72964, Note_on_c, 9, 36, 0
8, 72968, Note_on_c, 9, 42, 0
8, 73088, Note_on_c, 9, 42, 42
8, 73092, Note_on_c, 9, 42, 0
8, 73216, Note_on_c, 9, 36, 127
8, 73216, Note_on_c, 9, 42, 65
8, 73220, Note_on_c, 9, 42, 0
8, 73220, Note_on_c, 9, 36, 0
8, 73336, Note_on_c, 9, 42, 97
8, 73344, Note_on_c, 9, 42, 0
8, 73344, Note_on_c, 9, 38, 127
8, 73348, Note_on_c, 9, 38, 0
8, 73472, Note_on_c, 9, 42, 42
8, 73476, Note_on_c, 9, 42, 0
8, 73600, Note_on_c, 9, 42, 65
8, 73604, Note_on_c, 9, 42, 0
8, 73728, Note_on_c, 9, 36, 127
8, 73728, Note_on_c, 9, 42, 97
8, 73732, Note_on_c, 9, 42, 0
8, 73732, Note_on_c, 9, 36, 0
8, 73856, Note_on_c, 9, 42, 42
8, 73856, Note_on_c, 9, 39, 105
8, 73860, Note_on_c, 9, 39, 0
8, 73860, Note_on_c, 9, 42, 0
8, 73984, Note_on_c, 9, 42, 65
8, 73984, Note_on_c, 9, 39, 115
8, 73988, Note_on_c, 9, 39, 0
8, 73988, Note_on_c, 9, 42, 0
8, 74108, Note_on_c, 9, 42, 97
8, 74112, Note_on_c, 9, 42, 0
8, 74112, Note_on_c, 9, 38, 127
8, 74112, Note_on_c, 9, 39, 125
8, 74116, Note_on_c, 9, 39, 0
8, 74116, Note_on_c, 9, 38, 0
8, 74240, Note_on_c, 9, 42, 42
8, 74244, Note_on_c, 9, 42, 0
8, 74368, Note_on_c, 9, 42, 65
8, 74372, Note_on_c, 9, 42, 0
8, 74496, Note_on_c, 9, 36, 127
8, 74496, Note_on_c, 9, 42, 97
8, 74500, Note_on_c, 9, 36, 0
8, 74504, Note_on_c, 9, 42, 0
8, 74624, Note_on_c, 9, 42, 42
8, 74628, Note_on_c, 9, 42, 0
8, 74752, Note_on_c, 9, 42, 65
8, 74756, Note_on_c, 9, 42, 0
8, 74872, Note_on_c, 9, 42, 97
8, 74880, Note_on_c, 9, 42, 0
8, 74880, Note_on_c, 9, 38, 127
8, 74884, Note_on_c, 9, 38, 0
8, 75008, Note_on_c, 9, 42, 42
8, 75012, Note_on_c, 9, 42, 0
8, 75136, Note_on_c, 9, 42, 65
8, 75140, Note_on_c, 9, 42, 0
8, 75264, Note_on_c, 9, 36, 127
8, 75264, Note_on_c, 9, 42, 97
8, 75268, Note_on_c, 9, 42, 0
8, 75268, Note_on_c, 9, 36, 0
8, 75392, Note_on_c, 9, 42, 42
8, 75396, Note_on_c, 9, 42, 0
8, 75520, Note_on_c, 9, 42, 65
8, 75524, Note_on_c, 9, 42, 0
8, 75644, Note_on_c, 9, 42, 97
8, 75648, Note_on_c, 9, 42, 0
8, 75648, Note_on_c, 9, 38, 127
8, 75652, Note_on_c, 9, 38, 0
8, 75776, Note_on_c, 9, 42, 42
8, 75780, Note_on_c, 9, 42, 0
8, 75904, Note_on_c, 9, 42, 65
8, 75908, Note_on_c, 9, 42, 0
8, 76032, Note_on_c, 9, 36, 127
8, 76032, Note_on_c, 9, 42, 97
8, 76036, Note_on_c, 9, 36, 0
8, 76040, Note_on_c, 9, 42, 0
8, 76160, Note_on_c, 9, 42, 42
8, 76164, Note_on_c, 9, 42, 0
8, 76288, Note_on_c, 9, 36, 127
8, 76288, Note_on_c, 9, 42, 65
8, 76292, Note_on_c, 9, 42, 0
8, 76292, Note_on_c, 9, 36, 0
8, 76408, Note_on_c, 9, 42, 97
8, 76416, Note_on_c, 9, 42, 0
8, 76416, Note_on_c, 9, 38, 127
8, 76420, Note_on_c, 9, 38, 0
8, 76544, Note_on_c, 9, 42, 42
8, 76548, Note_on_c, 9, 42, 0
8, 76672, Note_on_c, 9, 42, 65
8, 76676, Note_on_c, 9, 42, 0
8, 76800, Note_on_c, 9, 36, 127
8, 76800, Note_on_c, 9, 42, 97
8, 76804, Note_on_c, 9, 42, 0
8, 76804, Note_on_c, 9, 36, 0
8, 76928, Note_on_c, 9, 42, 42
8, 76928, Note_on_c, 9, 47, 127
8, 76932, Note_on_c, 9, 47, 0
8, 76932, Note_on_c, 9, 42, 0
8, 77056, Note_on_c, 9, 42, 65
8, 77056, Note_on_c, 9, 47, 127
8, 77060, Note_on_c, 9, 47, 0
8, 77060, Note_on_c, 9, 42, 0
8, 77180, Note_on_c, 9, 42, 97
8, 77184, Note_on_c, 9, 42, 0
8, 77184, Note_on_c, 9, 50, 127
8, 77188, Note_on_c, 9, 50, 0
8, 77312, Note_on_c, 9, 42, 42
8, 77316, Note_on_c, 9, 42, 0
8, 77440, Note_on_c, 9, 42, 65
8, 77444, Note_on_c, 9, 42, 0
8, 77568, Note_on_c, 9, 36, 127
8, 77568, Note_on_c, 9, 42, 97
8, 77572, Note_on_c, 9, 36, 0
8, 77576, Note_on_c, 9, 42, 0
8, 77696, Note_on_c, 9, 42, 42
8, 77696, Note_on_c, 9, 47, 127
8, 77700, Note_on_c, 9, 47, 0
8, 77700, Note_on_c, 9, 42, 0
8, 77824, Note_on_c, 9, 42, 65
8, 77824, Note_on_c, 9, 47, 127
8, 77828, Note_on_c, 9, 47, 0
8, 77828, Note_on_c, 9, 42, 0
8, 77944, Note_on_c, 9, 42, 97
8, 77952, Note_on_c, 9, 42, 0
8, 77952, Note_on_c, 9, 43, 127
8, 77956, Note_on_c, 9, 43, 0
8, 78080, Note_on_c, 9, 42, 42
8, 78084, Note_on_c, 9, 42, 0
8, 78208, Note_on_c, 9, 42, 65
8, 78212, Note_on_c, 9, 42, 0
8, 78336, Note_on_c, 9, 36, 127
8, 78336, Note_on_c, 9, 42, 97
8, 78340, Note_on_c, 9, 42, 0
8, 78340, Note_on_c, 9, 36, 0
8, 78464, Note_on_c, 9, 42, 42
8, 78468, Note_on_c, 9, 42, 0
8, 78592, Note_on_c, 9, 42, 65
8, 78596, Note_on_c, 9, 42, 0
8, 78716, Note_on_c, 9, 42, 97
8, 78720, Note_on_c, 9, 42, 0
8, 78720, Note_on_c, 9, 38, 127
8, 78724, Note_on_c, 9, 38, 0
8, 78848, Note_on_c, 9, 42, 42
8, 78852, Note_on_c, 9, 42, 0
8, 78976, Note_on_c, 9, 42, 65
8, 78980, Note_on_c, 9, 42, 0
8, 79104, Note_on_c, 9, 36, 127
8, 79104, Note_on_c, 9, 42, 97
8, 79108, Note_on_c, 9, 36, 0
8, 79112, Note_on_c, 9, 42, 0
8, 79232, Note_on_c, 9, 42, 42
8, 79236, Note_on_c, 9, 42, 0
8, 79360, Note_on_c, 9, 42, 65
8, 79364, Note_on_c, 9, 42, 0
8, 79480, Note_on_c, 9, 42, 97
8, 79488, Note_on_c, 9, 42, 0
8, 79488, Note_on_c, 9, 38, 127
8, 79492, Note_on_c, 9, 38, 0
8, 79616, Note_on_c, 9, 42, 42
8, 79620, Note_on_c, 9, 42, 0
8, 79744, Note_on_c, 9, 42, 65
8, 79748, Note_on_c, 9, 42, 0
8, 79872, Note_on_c, 9, 36, 127
8, 79872, Note_on_c, 9, 42, 97
8, 79876, Note_on_c, 9, 42, 0
8, 79876, Note_on_c, 9, 36, 0
8, 80000, Note_on_c, 9, 42, 42
8, 80004, Note_on_c, 9, 42, 0
8, 80128, Note_on_c, 9, 42, 65
8, 80132, Note_on_c, 9, 42, 0
8, 80252, Note_on_c, 9, 42, 97
8, 80256, Note_on_c, 9, 42, 0
8, 80256, Note_on_c, 9, 38, 127
8, 80260, Note_on_c, 9, 38, 0
8, 80384, Note_on_c, 9, 42, 42
8, 80388, Note_on_c, 9, 42, 0
8, 80512, Note_on_c, 9, 42, 65
8, 80516, Note_on_c, 9, 42, 0
8, 80640, Note_on_c, 9, 36, 127
8, 80640, Note_on_c, 9, 42, 97
8, 80644, Note_on_c, 9, 36, 0
8, 80648, Note_on_c, 9, 42, 0
8, 80768, Note_on_c, 9, 42, 42
8, 80772, Note_on_c, 9, 42, 0
8, 80896, Note_on_c, 9, 36, 127
8, 80896, Note_on_c, 9, 42, 65
8, 80900, Note_on_c, 9, 42, 0
8, 80900, Note_on_c, 9, 36, 0
8, 81016, Note_on_c, 9, 42, 97
8, 81024, Note_on_c, 9, 42, 0
8, 81024, Note_on_c, 9, 38, 127
8, 81028, Note_on_c, 9, 38, 0
8, 81152, Note_on_c, 9, 42, 42
8, 81156, Note_on_c, 9, 42, 0
8, 81280, Note_on_c, 9, 42, 65
8, 81284, Note_on_c, 9, 42, 0
8, 81408, Note_on_c, 9, 36, 127
8, 81408, Note_on_c, 9, 42, 97
8, 81412, Note_on_c, 9, 42, 0
8, 81412, Note_on_c, 9, 36, 0
8, 81536, Note_on_c, 9, 42, 42
8, 81540, Note_on_c, 9, 42, 0
8, 81664, Note_on_c, 9, 42, 65
8, 81668, Note_on_c, 9, 42, 0
8, 81788, Note_on_c, 9, 42, 97
8, 81792, Note_on_c, 9, 42, 0
8, 81792, Note_on_c, 9, 38, 127
8, 81796, Note_on_c, 9, 38, 0
8, 81920, Note_on_c, 9, 42, 42
8, 81924, Note_on_c, 9, 42, 0
8, 82048, Note_on_c, 9, 42, 65
8, 82052, Note_on_c, 9, 42, 0
8, 82176, Note_on_c, 9, 36, 127
8, 82176, Note_on_c, 9, 42, 97
8, 82180, Note_on_c, 9, 36, 0
8, 82184, Note_on_c, 9, 42, 0
8, 82304, Note_on_c, 9, 42, 42
8, 82308, Note_on_c, 9, 42, 0
8, 82432, Note_on_c, 9, 42, 65
8, 82436, Note_on_c, 9, 42, 0
8, 82552, Note_on_c, 9, 42, 97
8, 82560, Note_on_c, 9, 42, 0
8, 82560, Note_on_c, 9, 38, 127
8, 82564, Note_on_c, 9, 38, 0
8, 82688, Note_on_c, 9, 42, 42
8, 82692, Note_on_c, 9, 42, 0
8, 82816, Note_on_c, 9, 42, 65
8, 82820, Note_on_c, 9, 42, 0
8, 82944, Note_on_c, 9, 36, 127
8, 82944, Note_on_c, 9, 42, 97
8, 82948, Note_on_c, 9, 42, 0
8, 82948, Note_on_c, 9, 36, 0
8, 83072, Note_on_c, 9, 42, 42
8, 83076, Note_on_c, 9, 42, 0
8, 83200, Note_on_c, 9, 42, 65
8, 83204, Note_on_c, 9, 42, 0
8, 83324, Note_on_c, 9, 42, 97
8, 83328, Note_on_c, 9, 42, 0
8, 83328, Note_on_c, 9, 38, 127
8, 83332, Note_on_c, 9, 38, 0
8, 83456, Note_on_c, 9, 42, 42
8, 83460, Note_on_c, 9, 42, 0
8, 83584, Note_on_c, 9, 42, 65
8, 83588, Note_on_c, 9, 42, 0
8, 83712, Note_on_c, 9, 36, 127
8, 83712, Note_on_c, 9, 42, 97
8, 83716, Note_on_c, 9, 36, 0
8, 83720, Note_on_c, 9, 42, 0
8, 83840, Note_on_c, 9, 42, 42
8, 83844, Note_on_c, 9, 42, 0
8, 83968, Note_on_c, 9, 36, 127
8, 83968, Note_on_c, 9, 42, 65
8, 83972, Note_on_c, 9, 42, 0
8, 83972, Note_on_c, 9, 36, 0
8, 84088, Note_on_c, 9, 42, 97
8, 84096, Note_on_c, 9, 42, 0
8, 84096, Note_on_c, 9, 38, 127
8, 84100, Note_on_c, 9, 38, 0
8, 84224, Note_on_c, 9, 42, 42
8, 84228, Note_on_c, 9, 42, 0
8, 84352, Note_on_c, 9, 42, 65
8, 84356, Note_on_c, 9, 42, 0
8, 84480, Note_on_c, 9, 36, 127
8, 84480, Note_on_c, 9, 42, 97
8, 84484, Note_on_c, 9, 42, 0
8, 84484, Note_on_c, 9, 36, 0
8, 84608, Note_on_c, 9, 42, 42
8, 84612, Note_on_c, 9, 42, 0
8, 84736, Note_on_c, 9, 42, 65
8, 84740, Note_on_c, 9, 42, 0
8, 84860, Note_on_c, 9, 42, 97
8, 84864, Note_on_c, 9, 42, 0
8, 84864, Note_on_c, 9, 38, 127
8, 84868, Note_on_c, 9, 38, 0
8, 84992, Note_on_c, 9, 42, 42
8, 84996, Note_on_c, 9, 42, 0
8, 85120, Note_on_c, 9, 42, 65
8, 85124, Note_on_c, 9, 42, 0
8, 85248, Note_on_c, 9, 36, 127
8, 85248, Note_on_c, 9, 42, 97
8, 85252, Note_on_c, 9, 36, 0
8, 85256, Note_on_c, 9, 42, 0
8, 85376, Note_on_c, 9, 42, 42
8, 85380, Note_on_c, 9, 42, 0
8, 85504, Note_on_c, 9, 42, 65
8, 85508, Note_on_c, 9, 42, 0
8, 85624, Note_on_c, 9, 42, 97
8, 85632, Note_on_c, 9, 42, 0
8, 85632, Note_on_c, 9, 38, 127
8, 85636, Note_on_c, 9, 38, 0
8, 85760, Note_on_c, 9, 42, 42
8, 85764, Note_on_c, 9, 42, 0
8, 85888, Note_on_c, 9, 42, 65
8, 85892, Note_on_c, 9, 42, 0
8, 86016, Note_on_c, 9, 36, 127
8, 86016, Note_on_c, 9, 42, 97
8, 86020, Note_on_c, 9, 42, 0
8, 86020, Note_on_c, 9, 36, 0
8, 86144, Note_on_c, 9, 42, 42
8, 86148, Note_on_c, 9, 42, 0
8, 86272, Note_on_c, 9, 42, 65
8, 86276, Note_on_c, 9, 42, 0
8, 86396, Note_on_c, 9, 42, 97
8, 86400, Note_on_c, 9, 42, 0
8, 86400, Note_on_c, 9, 38, 127
8, 86404, Note_on_c, 9, 38, 0
8, 86528, Note_on_c, 9, 42, 42
8, 86532, Note_on_c, 9, 42, 0
8, 86656, Note_on_c, 9, 42, 65
8, 86660, Note_on_c, 9, 42, 0
8, 86784, Note_on_c, 9, 36, 127
8, 86784, Note_on_c, 9, 42, 97
8, 86788, Note_on_c, 9, 36, 0
8, 86792, Note_on_c, 9, 42, 0
8, 86912, Note_on_c, 9, 42, 42
8, 86916, Note_on_c, 9, 42, 0
8, 87040, Note_on_c, 9, 36, 127
8, 87040, Note_on_c, 9, 42, 65
8, 87044, Note_on_c, 9, 42, 0
8, 87044, Note_on_c, 9, 36, 0
8, 87160, Note_on_c, 9, 42, 97
8, 87168, Note_on_c, 9, 42, 0
8, 87168, Note_on_c, 9, 38, 127
8, 87172, Note_on_c, 9, 38, 0
8, 87296, Note_on_c, 9, 42, 42
8, 87300, Note_on_c, 9, 42, 0
8, 87424, Note_on_c, 9, 42, 65
8, 87428, Note_on_c, 9, 42, 0
8, 87552, Note_on_c, 9, 36, 127
8, 87552, Note_on_c, 9, 42, 97
8, 87556, Note_on_c, 9, 42, 0
8, 87556, Note_on_c, 9, 36, 0
8, 87680, Note_on_c, 9, 42, 42
8, 87684, Note_on_c, 9, 42, 0
8, 87808, Note_on_c, 9, 42, 65
8, 87812, Note_on_c, 9, 42, 0
8, 87932, Note_on_c, 9, 42, 97
8, 87936, Note_on_c, 9, 42, 0
8, 87936, Note_on_c, 9, 38, 127
8, 87940, Note_on_c, 9, 38, 0
8, 88064, Note_on_c, 9, 42, 42
8, 88068, Note_on_c, 9, 42, 0
8, 88192, Note_on_c, 9, 42, 65
8, 88196, Note_on_c, 9, 42, 0
8, 88320, Note_on_c, 9, 36, 127
8, 88320, Note_on_c, 9, 42, 97
8, 88324, Note_on_c, 9, 36, 0
8, 88328, Note_on_c, 9, 42, 0
8, 88448, Note_on_c, 9, 42, 42
8, 88452, Note_on_c, 9, 42, 0
8, 88576, Note_on_c, 9, 42, 65
8, 88580, Note_on_c, 9, 42, 0
8, 88696, Note_on_c, 9, 42, 97
8, 88704, Note_on_c, 9, 42, 0
8, 88704, Note_on_c, 9, 38, 127
8, 88708, Note_on_c, 9, 38, 0
8, 88832, Note_on_c, 9, 42, 42
8, 88836, Note_on_c, 9, 42, 0
8, 88960, Note_on_c, 9, 42, 65
8, 88964, Note_on_c, 9, 42, 0
8, 89088, Note_on_c, 9, 36, 127
8, 89088, Note_on_c, 9, 42, 97
8, 89092, Note_on_c, 9, 42, 0
8, 89092, Note_on_c, 9, 36, 0
8, 89216, Note_on_c, 9, 42, 42
8, 89220, Note_on_c, 9, 42, 0
8, 89344, Note_on_c, 9, 42, 65
8, 89348, Note_on_c, 9, 42, 0
8, 89468, Note_on_c, 9, 42, 97
8, 89472, Note_on_c, 9, 42, 0
8, 89472, Note_on_c, 9, 38, 127
8, 89476, Note_on_c, 9, 38, 0
8, 89600, Note_on_c, 9, 42, 42
8, 89604, Note_on_c, 9, 42, 0
8, 89728, Note_on_c, 9, 42, 65
8, 89732, Note_on_c, 9, 42, 0
8, 89856, Note_on_c, 9, 36, 127
8, 89856, Note_on_c, 9, 42, 97
8, 89860, Note_on_c, 9, 36, 0
8, 89864, Note_on_c, 9, 42, 0
8, 89984, Note_on_c, 9, 42, 42
8, 89988, Note_on_c, 9, 42, 0
8, 90112, Note_on_c, 9, 36, 127
8, 90112, Note_on_c, 9, 42, 65
8, 90116, Note_on_c, 9, 42, 0
8, 90116, Note_on_c, 9, 36, 0
8, 90232, Note_on_c, 9, 42, 97
8, 90240, Note_on_c, 9, 42, 0
8, 90240, Note_on_c, 9, 38, 127
8, 90244, Note_on_c, 9, 38, 0
8, 90368, Note_on_c, 9, 42, 42
8, 90372, Note_on_c, 9, 42, 0
8, 90496, Note_on_c, 9, 42, 65
8, 90500, Note_on_c, 9, 42, 0
8, 90624, Note_on_c, 9, 36, 127
8, 90624, Note_on_c, 9, 42, 97
8, 90628, Note_on_c, 9, 42, 0
8, 90628, Note_on_c, 9, 36, 0
8, 90752, Note_on_c, 9, 42, 42
8, 90756, Note_on_c, 9, 42, 0
8, 90880, Note_on_c, 9, 42, 65
8, 90884, Note_on_c, 9, 42, 0
8, 91004, Note_on_c, 9, 42, 97
8, 91008, Note_on_c, 9, 42, 0
8, 91008, Note_on_c, 9, 38, 127
8, 91012, Note_on_c, 9, 38, 0
8, 91136, Note_on_c, 9, 42, 42
8, 91140, Note_on_c, 9, 42, 0
8, 91264, Note_on_c, 9, 42, 65
8, 91268, Note_on_c, 9, 42, 0
8, 91392, Note_on_c, 9, 36, 127
8, 91392, Note_on_c, 9, 42, 97
8, 91396, Note_on_c, 9, 36, 0
8, 91400, Note_on_c, 9, 42, 0
8, 91520, Note_on_c, 9, 42, 42
8, 91524, Note_on_c, 9, 42, 0
8, 91648, Note_on_c, 9, 42, 65
8, 91652, Note_on_c, 9, 42, 0
8, 91768, Note_on_c, 9, 42, 97
8, 91776, Note_on_c, 9, 42, 0
8, 91776, Note_on_c, 9, 38, 127
8, 91780, Note_on_c, 9, 38, 0
8, 91904, Note_on_c, 9, 42, 42
8, 91908, Note_on_c, 9, 42, 0
8, 92032, Note_on_c, 9, 42, 65
8, 92036, Note_on_c, 9, 42, 0
8, 92160, Note_on_c, 9, 36, 127
8, 92160, Note_on_c, 9, 42, 97
8, 92164, Note_on_c, 9, 42, 0
8, 92164, Note_on_c, 9, 36, 0
8, 92288, Note_on_c, 9, 42, 42
8, 92292, Note_on_c, 9, 42, 0
8, 92416, Note_on_c, 9, 42, 65
8, 92420, Note_on_c, 9, 42, 0
8, 92540, Note_on_c, 9, 42, 97
8, 92544, Note_on_c, 9, 42, 0
8, 92544, Note_on_c, 9, 38, 127
8, 92548, Note_on_c, 9, 38, 0
8, 92672, Note_on_c, 9, 42, 42
8, 92676, Note_on_c, 9, 42, 0
8, 92800, Note_on_c, 9, 42, 65
8, 92804, Note_on_c, 9, 42, 0
8, 92928, Note_on_c, 9, 36, 127
8, 92928, Note_on_c, 9, 42, 97
8, 92932, Note_on_c, 9, 36, 0
8, 92936, Note_on_c, 9, 42, 0
8, 93056, Note_on_c, 9, 42, 42
8, 93060, Note_on_c, 9, 42, 0
8, 93184, Note_on_c, 9, 36, 127
8, 93184, Note_on_c, 9, 42, 65
8, 93188, Note_on_c, 9, 42, 0
8, 93188, Note_on_c, 9, 36, 0
8, 93304, Note_on_c, 9, 42, 97
8, 93312, Note_on_c, 9, 42, 0
8, 93312, Note_on_c, 9, 38, 127
8, 93316, Note_on_c, 9, 38, 0
8, 93440, Note_on_c, 9, 42, 42
8, 93444, Note_on_c, 9, 42, 0
8, 93568, Note_on_c, 9, 42, 65
8, 93572, Note_on_c, 9, 42, 0
8, 93696, Note_on_c, 9, 36, 127
8, 93696, Note_on_c, 9, 42, 97
8, 93700, Note_on_c, 9, 42, 0
8, 93700, Note_on_c, 9, 36, 0
8, 93824, Note_on_c, 9, 42, 42
8, 93828, Note_on_c, 9, 42, 0
8, 93952, Note_on_c, 9, 42, 65
8, 93956, Note_on_c, 9, 42, 0
8, 94076, Note_on_c, 9, 42, 97
8, 94080, Note_on_c, 9, 42, 0
8, 94080, Note_on_c, 9, 38, 127
8, 94084, Note_on_c, 9, 38, 0
8, 94208, Note_on_c, 9, 42, 42
8, 94212, Note_on_c, 9, 42, 0
8, 94336, Note_on_c, 9, 42, 65
8, 94340, Note_on_c, 9, 42, 0
8, 94464, Note_on_c, 9, 36, 127
8, 94464, Note_on_c, 9, 42, 97
8, 94468, Note_on_c, 9, 36, 0
8, 94472, Note_on_c, 9, 42, 0
8, 94592, Note_on_c, 9, 42, 42
8, 94596, Note_on_c, 9, 42, 0
8, 94720, Note_on_c, 9, 42, 65
8, 94724, Note_on_c, 9, 42, 0
8, 94840, Note_on_c, 9, 42, 97
8, 94848, Note_on_c, 9, 42, 0
8, 94848, Note_on_c, 9, 38, 127
8, 94852, Note_on_c, 9, 38, 0
8, 94976, Note_on_c, 9, 42, 42
8, 94980, Note_on_c, 9, 42, 0
8, 95104, Note_on_c, 9, 42, 65
8, 95108, Note_on_c, 9, 42, 0
8, 95232, Note_on_c, 9, 36, 127
8, 95232, Note_on_c, 9, 42, 97
8, 95236, Note_on_c, 9, 42, 0
8, 95236, Note_on_c, 9, 36, 0
8, 95360, Note_on_c, 9, 42, 42
8, 95364, Note_on_c, 9, 42, 0
8, 95488, Note_on_c, 9, 42, 65
8, 95492, Note_on_c, 9, 42, 0
8, 95612, Note_on_c, 9, 42, 97
8, 95616, Note_on_c, 9, 42, 0
8, 95616, Note_on_c, 9, 38, 127
8, 95620, Note_on_c, 9, 38, 0
8, 95744, Note_on_c, 9, 42, 42
8, 95748, Note_on_c, 9, 42, 0
8, 95872, Note_on_c, 9, 42, 65
8, 95876, Note_on_c, 9, 42, 0
8, 96000, Note_on_c, 9, 36, 127
8, 96000, Note_on_c, 9, 42, 97
8, 96004, Note_on_c, 9, 36, 0
8, 96008, Note_on_c, 9, 42, 0
8, 96128, Note_on_c, 9, 42, 42
8, 96132, Note_on_c, 9, 42, 0
8, 96256, Note_on_c, 9, 36, 127
8, 96256, Note_on_c, 9, 42, 65
8, 96260, Note_on_c, 9, 42, 0
8, 96260, Note_on_c, 9, 36, 0
8, 96376, Note_on_c, 9, 42, 97
8, 96384, Note_on_c, 9, 42, 0
8, 96384, Note_on_c, 9, 38, 127
8, 96388, Note_on_c, 9, 38, 0
8, 96512, Note_on_c, 9, 42, 42
8, 96516, Note_on_c, 9, 42, 0
8, 96640, Note_on_c, 9, 42, 65
8, 96644, Note_on_c, 9, 42, 0
8, 96768, Note_on_c, 9, 36, 127
8, 96768, Note_on_c, 9, 42, 97
8, 96772, Note_on_c, 9, 42, 0
8, 96772, Note_on_c, 9, 36, 0
8, 96896, Note_on_c, 9, 42, 42
8, 96900, Note_on_c, 9, 42, 0
8, 97024, Note_on_c, 9, 42, 65
8, 97028, Note_on_c, 9, 42, 0
8, 97148, Note_on_c, 9, 42, 97
8, 97152, Note_on_c, 9, 42, 0
8, 97152, Note_on_c, 9, 38, 127
8, 97156, Note_on_c, 9, 38, 0
8, 97280, Note_on_c, 9, 42, 42
8, 97284, Note_on_c, 9, 42, 0
8, 97408, Note_on_c, 9, 42, 65
8, 97412, Note_on_c, 9, 42, 0
8, 97536, Note_on_c, 9, 36, 127
8, 97536, Note_on_c, 9, 42, 97
8, 97540, Note_on_c, 9, 36, 0
8, 97544, Note_on_c, 9, 42, 0
8, 97664, Note_on_c, 9, 42, 42
8, 97668, Note_on_c, 9, 42, 0
8, 97792, Note_on_c, 9, 42, 65
8, 97796, Note_on_c, 9, 42, 0
8, 97912, Note_on_c, 9, 42, 97
8, 97920, Note_on_c, 9, 42, 0
8, 97920, Note_on_c, 9, 38, 127
8, 97924, Note_on_c, 9, 38, 0
8, 98048, Note_on_c, 9, 42, 42
8, 98052, Note_on_c, 9, 42, 0
8, 98176, Note_on_c, 9, 42, 65
8, 98180, Note_on_c, 9, 42, 0
8, 98304, Note_on_c, 9, 36, 127
8, 98304, Note_on_c, 9, 42, 97
8, 98308, Note_on_c, 9, 42, 0
8, 98308, Note_on_c, 9, 36, 0
8, 98432, Note_on_c, 9, 42, 42
8, 98436, Note_on_c, 9, 42, 0
8, 98560, Note_on_c, 9, 42, 65
8, 98564, Note_on_c, 9, 42, 0
8, 98684, Note_on_c, 9, 42, 97
8, 98688, Note_on_c, 9, 42, 0
8, 98688, Note_on_c, 9, 38, 127
8, 98692, Note_on_c, 9, 38, 0
8, 98816, Note_on_c, 9, 42, 42
8, 98820, Note_on_c, 9, 42, 0
8, 98944, Note_on_c, 9, 42, 65
8, 98948, Note_on_c, 9, 42, 0
8, 99072, Note_on_c, 9, 36, 127
8, 99072, Note_on_c, 9, 42, 97
8, 99076, Note_on_c, 9, 36, 0
8, 99080, Note_on_c, 9, 42, 0
8, 99200, Note_on_c, 9, 42, 42
8, 99204, Note_on_c, 9, 42, 0
8, 99328, Note_on_c, 9, 36, 127
8, 99328, Note_on_c, 9, 42, 65
8, 99332, Note_on_c, 9, 42, 0
8, 99332, Note_on_c, 9, 36, 0
8, 99448, Note_on_c, 9, 42, 97
8, 99456, Note_on_c, 9, 42, 0
8, 99456, Note_on_c, 9, 38, 127
8, 99460, Note_on_c, 9, 38, 0
8, 99584, Note_on_c, 9, 42, 42
8, 99588, Note_on_c, 9, 42, 0
8, 99712, Note_on_c, 9, 42, 65
8, 99716, Note_on_c, 9, 42, 0
8, 99840, Note_on_c, 9, 36, 127
8, 99840, Note_on_c, 9, 42, 97
8, 99844, Note_on_c, 9, 42, 0
8, 99844, Note_on_c, 9, 36, 0
8, 99968, Note_on_c, 9, 42, 42
8, 99972, Note_on_c, 9, 42, 0
8, 100096, Note_on_c, 9, 42, 65
8, 100100, Note_on_c, 9, 42, 0
8, 100220, Note_on_c, 9, 42, 97
8, 100224, Note_on_c, 9, 42, 0
8, 100224, Note_on_c, 9, 38, 127
8, 100228, Note_on_c, 9, 38, 0
8, 100352, Note_on_c, 9, 42, 42
8, 100356, Note_on_c, 9, 42, 0
8, 100480, Note_on_c, 9, 42, 65
8, 100484, Note_on_c, 9, 42, 0
8, 100608, Note_on_c, 9, 36, 127
8, 100608, Note_on_c, 9, 42, 97
8, 100612, Note_on_c, 9, 36, 0
8, 100616, Note_on_c, 9, 42, 0
8, 100736, Note_on_c, 9, 42, 42
8, 100740, Note_on_c, 9, 42, 0
8, 100864, Note_on_c, 9, 42, 65
8, 100868, Note_on_c, 9, 42, 0
8, 100984, Note_on_c, 9, 42, 97
8, 100992, Note_on_c, 9, 42, 0
8, 100992, Note_on_c, 9, 38, 127
8, 100996, Note_on_c, 9, 38, 0
8, 101120, Note_on_c, 9, 42, 42
8, 101124, Note_on_c, 9, 42, 0
8, 101248, Note_on_c, 9, 42, 65
8, 101252, Note_on_c, 9, 42, 0
8, 101376, Note_on_c, 9, 36, 127
8, 101376, Note_on_c, 9, 42, 97
8, 101380, Note_on_c, 9, 42, 0
8, 101380, Note_on_c, 9, 36, 0
8, 101504, Note_on_c, 9, 42, 42
8, 101508, Note_on_c, 9, 42, 0
8, 101632, Note_on_c, 9, 42, 65
8, 101636, Note_on_c, 9, 42, 0
8, 101756, Note_on_c, 9, 42, 97
8, 101760, Note_on_c, 9, 42, 0
8, 101760, Note_on_c, 9, 38, 127
8, 101764, Note_on_c, 9, 38, 0
8, 101888, Note_on_c, 9, 42, 42
8, 101892, Note_on_c, 9, 42, 0
8, 102016, Note_on_c, 9, 38, 127
8, 102016, Note_on_c, 9, 42, 65
8, 102020, Note_on_c, 9, 42, 0
8, 102020, Note_on_c, 9, 38, 0
8, 102144, Note_on_c, 9, 36, 127
8, 102144, Note_on_c, 9, 42, 97
8, 102148, Note_on_c, 9, 36, 0
8, 102152, Note_on_c, 9, 42, 0
8, 102272, Note_on_c, 9, 42, 42
8, 102276, Note_on_c, 9, 42, 0
8, 102400, Note_on_c, 9, 36, 127
8, 102400, Note_on_c, 9, 42, 65
8, 102404, Note_on_c, 9, 42, 0
8, 102404, Note_on_c, 9, 36, 0
8, 102520, Note_on_c, 9, 42, 97
8, 102528, Note_on_c, 9, 42, 0
8, 102528, Note_on_c, 9, 38, 127
8, 102528, Note_on_c, 9, 50, 127
8, 102532, Note_on_c, 9, 50, 0
8, 102532, Note_on_c, 9, 38, 0
8, 102656, Note_on_c, 9, 42, 42
8, 102656, Note_on_c, 9, 47, 127
8, 102660, Note_on_c, 9, 47, 0
8, 102660, Note_on_c, 9, 42, 0
8, 102784, Note_on_c, 9, 42, 65
8, 102784, Note_on_c, 9, 43, 127
8, 102788, Note_on_c, 9, 43, 0
8, 102788, Note_on_c, 9, 42, 0
8, 102912, Note_on_c, 9, 36, 127
8, 102912, Note_on_c, 9, 42, 97
8, 102916, Note_on_c, 9, 42, 0
8, 102916, Note_on_c, 9, 36, 0
8, 103040, Note_on_c, 9, 42, 42
8, 103044, Note_on_c, 9, 42, 0
8, 103168, Note_on_c, 9, 42, 65
8, 103172, Note_on_c, 9, 42, 0
8, 103292, Note_on_c, 9, 42, 97
8, 103296, Note_on_c, 9, 42, 0
8, 103296, Note_on_c, 9, 38, 127
8, 103300, Note_on_c, 9, 38, 0
8, 103424, Note_on_c, 9, 42, 42
8, 103428, Note_on_c, 9, 42, 0
8, 103552, Note_on_c, 9, 42, 65
8, 103556, Note_on_c, 9, 42, 0
8, 103680, Note_on_c, 9, 36, 127
8, 103680, Note_on_c, 9, 42, 97
8, 103684, Note_on_c, 9, 36, 0
8, 103688, Note_on_c, 9, 42, 0
8, 103808, Note_on_c, 9, 42, 42
8, 103812, Note_on_c, 9, 42, 0
8, 103936, Note_on_c, 9, 42, 65
8, 103940, Note_on_c, 9, 42, 0
8, 104056, Note_on_c, 9, 42, 97
8, 104064, Note_on_c, 9, 42, 0
8, 104064, Note_on_c, 9, 38, 127
8, 104068, Note_on_c, 9, 38, 0
8, 104192, Note_on_c, 9, 42, 42
8, 104196, Note_on_c, 9, 42, 0
8, 104320, Note_on_c, 9, 42, 65
8, 104324, Note_on_c, 9, 42, 0
8, 104448, Note_on_c, 9, 36, 127
8, 104448, Note_on_c, 9, 42, 97
8, 104452, Note_on_c, 9, 42, 0
8, 104452, Note_on_c, 9, 36, 0
8, 104576, Note_on_c, 9, 42, 42
8, 104580, Note_on_c, 9, 42, 0
8, 104704, Note_on_c, 9, 42, 65
8, 104708, Note_on_c, 9, 42, 0
8, 104828, Note_on_c, 9, 42, 97
8, 104832, Note_on_c, 9, 42, 0
8, 104832, Note_on_c, 9, 38, 127
8, 104836, Note_on_c, 9, 38, 0
8, 104960, Note_on_c, 9, 42, 42
8, 104964, Note_on_c, 9, 42, 0
8, 105088, Note_on_c, 9, 42, 65
8, 105092, Note_on_c, 9, 42, 0
8, 105216, Note_on_c, 9, 36, 127
8, 105216, Note_on_c, 9, 42, 97
8, 105220, Note_on_c, 9, 36, 0
8, 105224, Note_on_c, 9, 42, 0
8, 105344, Note_on_c, 9, 42, 42
8, 105348, Note_on_c, 9, 42, 0
8, 105472, Note_on_c, 9, 36, 127
8, 105472, Note_on_c, 9, 42, 65
8, 105476, Note_on_c, 9, 42, 0
8, 105476, Note_on_c, 9, 36, 0
8, 105592, Note_on_c, 9, 42, 97
8, 105600, Note_on_c, 9, 42, 0
8, 105600, Note_on_c, 9, 38, 127
8, 105604, Note_on_c, 9, 38, 0
8, 105728, Note_on_c, 9, 42, 42
8, 105732, Note_on_c, 9, 42, 0
8, 105856, Note_on_c, 9, 42, 65
8, 105860, Note_on_c, 9, 42, 0
8, 105984, Note_on_c, 9, 36, 127
8, 105984, Note_on_c, 9, 42, 97
8, 105988, Note_on_c, 9, 42, 0
8, 105988, Note_on_c, 9, 36, 0
8, 106112, Note_on_c, 9, 42, 42
8, 106116, Note_on_c, 9, 42, 0
8, 106240, Note_on_c, 9, 42, 65
8, 106244, Note_on_c, 9, 42, 0
8, 106364, Note_on_c, 9, 42, 97
8, 106368, Note_on_c, 9, 42, 0
8, 106368, Note_on_c, 9, 38, 127
8, 106372, Note_on_c, 9, 38, 0
8, 106496, Note_on_c, 9, 42, 42
8, 106500, Note_on_c, 9, 42, 0
8, 106624, Note_on_c, 9, 42, 65
8, 106628, Note_on_c, 9, 42, 0
8, 106752, Note_on_c, 9, 36, 127
8, 106752, Note_on_c, 9, 42, 97
8, 106756, Note_on_c, 9, 36, 0
8, 106760, Note_on_c, 9, 42, 0
8, 106880, Note_on_c, 9, 42, 42
8, 106884, Note_on_c, 9, 42, 0
8, 107008, Note_on_c, 9, 42, 65
8, 107012, Note_on_c, 9, 42, 0
8, 107128, Note_on_c, 9, 42, 97
8, 107136, Note_on_c, 9, 42, 0
8, 107136, Note_on_c, 9, 38, 127
8, 107140, Note_on_c, 9, 38, 0
8, 107264, Note_on_c, 9, 42, 42
8, 107268, Note_on_c, 9, 42, 0
8, 107392, Note_on_c, 9, 42, 65
8, 107396, Note_on_c, 9, 42, 0
8, 107520, Note_on_c, 9, 36, 127
8, 107520, Note_on_c, 9, 42, 97
8, 107524, Note_on_c, 9, 42, 0
8, 107524, Note_on_c, 9, 36, 0
8, 107648, Note_on_c, 9, 42, 42
8, 107652, Note_on_c, 9, 42, 0
8, 107776, Note_on_c, 9, 42, 65
8, 107780, Note_on_c, 9, 42, 0
8, 107900, Note_on_c, 9, 42, 97
8, 107904, Note_on_c, 9, 42, 0
8, 107904, Note_on_c, 9, 38, 127
8, 107908, Note_on_c, 9, 38, 0
8, 108032, Note_on_c, 9, 42, 42
8, 108036, Note_on_c, 9, 42, 0
8, 108160, Note_on_c, 9, 42, 65
8, 108164, Note_on_c, 9, 42, 0
8, 108288, Note_on_c, 9, 36, 127
8, 108288, Note_on_c, 9, 42, 97
8, 108292, Note_on_c, 9, 36, 0
8, 108296, Note_on_c, 9, 42, 0
8, 108416, Note_on_c, 9, 42, 42
8, 108420, Note_on_c, 9, 42, 0
8, 108544, Note_on_c, 9, 36, 127
8, 108544, Note_on_c, 9, 42, 65
8, 108548, Note_on_c, 9, 42, 0
8, 108548, Note_on_c, 9, 36, 0
8, 108664, Note_on_c, 9, 42, 97
8, 108672, Note_on_c, 9, 42, 0
8, 108672, Note_on_c, 9, 38, 127
8, 108676, Note_on_c, 9, 38, 0
8, 108800, Note_on_c, 9, 42, 42
8, 108804, Note_on_c, 9, 42, 0
8, 108928, Note_on_c, 9, 42, 65
8, 108932, Note_on_c, 9, 42, 0
8, 109056, Note_on_c, 9, 36, 127
8, 109056, Note_on_c, 9, 42, 97
8, 109056, Note_on_c, 9, 49, 127
8, 109060, Note_on_c, 9, 49, 0
8, 109060, Note_on_c, 9, 42, 0
8, 109060, Note_on_c, 9, 36, 0
8, 109184, Note_on_c, 9, 42, 42
8, 109188, Note_on_c, 9, 42, 0
8, 109312, Note_on_c, 9, 42, 65
8, 109316, Note_on_c, 9, 42, 0
8, 109436, Note_on_c, 9, 42, 97
8, 109440, Note_on_c, 9, 42, 0
8, 109440, Note_on_c, 9, 38, 127
8, 109444, Note_on_c, 9, 38, 0
8, 109568, Note_on_c, 9, 42, 42
8, 109572, Note_on_c, 9, 42, 0
8, 109696, Note_on_c, 9, 42, 65
8, 109700, Note_on_c, 9, 42, 0
8, 109824, Note_on_c, 9, 36, 127
8, 109824, Note_on_c, 9, 42, 97
8, 109828, Note_on_c, 9, 36, 0
8, 109832, Note_on_c, 9, 42, 0
8, 109952, Note_on_c, 9, 42, 42
8, 109956, Note_on_c, 9, 42, 0
8, 110080, Note_on_c, 9, 42, 65
8, 110084, Note_on_c, 9, 42, 0
8, 110200, Note_on_c, 9, 42, 97
8, 110208, Note_on_c, 9, 42, 0
8, 110208, Note_on_c, 9, 38, 127
8, 110212, Note_on_c, 9, 38, 0
8, 110336, Note_on_c, 9, 42, 42
8, 110340, Note_on_c, 9, 42, 0
8, 110464, Note_on_c, 9, 42, 65
8, 110468, Note_on_c, 9, 42, 0
8, 110592, Note_on_c, 9, 36, 127
8, 110592, Note_on_c, 9, 42, 97
8, 110596, Note_on_c, 9, 42, 0
8, 110596, Note_on_c, 9, 36, 0
8, 110720, Note_on_c, 9, 42, 42
8, 110724, Note_on_c, 9, 42, 0
8, 110848, Note_on_c, 9, 42, 65
8, 110852, Note_on_c, 9, 42, 0
8, 110972, Note_on_c, 9, 42, 97
8, 110976, Note_on_c, 9, 42, 0
8, 110976, Note_on_c, 9, 38, 127
8, 110980, Note_on_c, 9, 38, 0
8, 111104, Note_on_c, 9, 42, 42
8, 111108, Note_on_c, 9, 42, 0
8, 111232, Note_on_c, 9, 42, 65
8, 111236, Note_on_c, 9, 42, 0
8, 111360, Note_on_c, 9, 36, 127
8, 111360, Note_on_c, 9, 42, 97
8, 111364, Note_on_c, 9, 36, 0
8, 111368, Note_on_c, 9, 42, 0
8, 111488, Note_on_c, 9, 42, 42
8, 111492, Note_on_c, 9, 42, 0
8, 111616, Note_on_c, 9, 36, 127
8, 111616, Note_on_c, 9, 42, 65
8, 111620, Note_on_c, 9, 42, 0
8, 111620, Note_on_c, 9, 36, 0
8, 111736, Note_on_c, 9, 42, 97
8, 111744, Note_on_c, 9, 42, 0
8, 111744, Note_on_c, 9, 38, 127
8, 111748, Note_on_c, 9, 38, 0
8, 111872, Note_on_c, 9, 42, 42
8, 111876, Note_on_c, 9, 42, 0
8, 112000, Note_on_c, 9, 42, 65
8, 112004, Note_on_c, 9, 42, 0
8, 112128, Note_on_c, 9, 36, 127
8, 112128, Note_on_c, 9, 42, 97
8, 112132, Note_on_c, 9, 42, 0
8, 112132, Note_on_c, 9, 36, 0
8, 112256, Note_on_c, 9, 42, 42
8, 112256, Note_on_c, 9, 39, 105
8, 112260, Note_on_c, 9, 39, 0
8, 112260, Note_on_c, 9, 42, 0
8, 112384, Note_on_c, 9, 42, 65
8, 112384, Note_on_c, 9, 39, 115
8, 112388, Note_on_c, 9, 39, 0
8, 112388, Note_on_c, 9, 42, 0
8, 112508, Note_on_c, 9, 42, 97
8, 112512, Note_on_c, 9, 42, 0
8, 112512, Note_on_c, 9, 38, 127
8, 112512, Note_on_c, 9, 39, 125
8, 112516, Note_on_c, 9, 39, 0
8, 112516, Note_on_c, 9, 38, 0
8, 112640, Note_on_c, 9, 42, 42
8, 112644, Note_on_c, 9, 42, 0
8, 112768, Note_on_c, 9, 42, 65
8, 112772, Note_on_c, 9, 42, 0
8, 112896, Note_on_c, 9, 36, 127
8, 112896, Note_on_c, 9, 42, 97
8, 112900, Note_on_c, 9, 36, 0
8, 112904, Note_on_c, 9, 42, 0
8, 113024, Note_on_c, 9, 42, 42
8, 113028, Note_on_c, 9, 42, 0
8, 113152, Note_on_c, 9, 42, 65
8, 113156, Note_on_c, 9, 42, 0
8, 113272, Note_on_c, 9, 42, 97
8, 113280, Note_on_c, 9, 42, 0
8, 113280, Note_on_c, 9, 38, 127
8, 113284, Note_on_c, 9, 38, 0
8, 113408, Note_on_c, 9, 42, 42
8, 113412, Note_on_c, 9, 42, 0
8, 113536, Note_on_c, 9, 42, 65
8, 113540, Note_on_c, 9, 42, 0
8, 113664, Note_on_c, 9, 36, 127
8, 113664, Note_on_c, 9, 42, 97
8, 113668, Note_on_c, 9, 42, 0
8, 113668, Note_on_c, 9, 36, 0
8, 113792, Note_on_c, 9, 42, 42
8, 113796, Note_on_c, 9, 42, 0
8, 113920, Note_on_c, 9, 42, 65
8, 113924, Note_on_c, 9, 42, 0
8, 114044, Note_on_c, 9, 42, 97
8, 114048, Note_on_c, 9, 42, 0
8, 114048, Note_on_c, 9, 38, 127
8, 114052, Note_on_c, 9, 38, 0
8, 114176, Note_on_c, 9, 42, 42
8, 114180, Note_on_c, 9, 42, 0
8, 114304, Note_on_c, 9, 42, 65
8, 114308, Note_on_c, 9, 42, 0
8, 114432, Note_on_c, 9, 36, 127
8, 114432, Note_on_c, 9, 42, 97
8, 114436, Note_on_c, 9, 36, 0
8, 114440, Note_on_c, 9, 42, 0
8, 114560, Note_on_c, 9, 42, 42
8, 114564, Note_on_c, 9, 42, 0
8, 114688, Note_on_c, 9, 36, 127
8, 114688, Note_on_c, 9, 42, 65
8, 114692, Note_on_c, 9, 42, 0
8, 114692, Note_on_c, 9, 36, 0
8, 114808, Note_on_c, 9, 42, 97
8, 114816, Note_on_c, 9, 42, 0
8, 114816, Note_on_c, 9, 38, 127
8, 114820, Note_on_c, 9, 38, 0
8, 114944, Note_on_c, 9, 42, 42
8, 114944, Note_on_c, 9, 47, 127
8, 114948, Note_on_c, 9, 47, 0
8, 114948, Note_on_c, 9, 42, 0
8, 115072, Note_on_c, 9, 42, 65
8, 115072, Note_on_c, 9, 43, 127
8, 115076, Note_on_c, 9, 43, 0
8, 115076, Note_on_c, 9, 42, 0
8, 115200, Note_on_c, 9, 36, 127
8, 115200, Note_on_c, 9, 42, 97
8, 115200, Note_on_c, 9, 49, 127
8, 115204, Note_on_c, 9, 49, 0
8, 115204, Note_on_c, 9, 42, 0
8, 115204, Note_on_c, 9, 36, 0
8, 115328, Note_on_c, 9, 42, 42
8, 115332, Note_on_c, 9, 42, 0
8, 115456, Note_on_c, 9, 42, 65
8, 115460, Note_on_c, 9, 42, 0
8, 115580, Note_on_c, 9, 42, 97
8, 115584, Note_on_c, 9, 42, 0
8, 115584, Note_on_c, 9, 38, 127
8, 115588, Note_on_c, 9, 38, 0
8, 115712, Note_on_c, 9, 42, 42
8, 115716, Note_on_c, 9, 42, 0
8, 115840, Note_on_c, 9, 42, 65
8, 115844, Note_on_c, 9, 42, 0
8, 115968, Note_on_c, 9, 36, 127
8, 115968, Note_on_c, 9, 42, 97
8, 115972, Note_on_c, 9, 36, 0
8, 115976, Note_on_c, 9, 42, 0
8, 116096, Note_on_c, 9, 42, 42
8, 116100, Note_on_c, 9, 42, 0
8, 116224, Note_on_c, 9, 42, 65
8, 116228, Note_on_c, 9, 42, 0
8, 116344, Note_on_c, 9, 42, 97
8, 116352, Note_on_c, 9, 42, 0
8, 116352, Note_on_c, 9, 38, 127
8, 116356, Note_on_c, 9, 38, 0
8, 116480, Note_on_c, 9, 42, 42
8, 116484, Note_on_c, 9, 42, 0
8, 116608, Note_on_c, 9, 42, 65
8, 116612, Note_on_c, 9, 42, 0
8, 116736, Note_on_c, 9, 36, 127
8, 116736, Note_on_c, 9, 42, 97
8, 116740, Note_on_c, 9, 42, 0
8, 116740, Note_on_c, 9, 36, 0
8, 116864, Note_on_c, 9, 42, 42
8, 116868, Note_on_c, 9, 42, 0
8, 116992, Note_on_c, 9, 42, 65
8, 116996, Note_on_c, 9, 42, 0
8, 117116, Note_on_c, 9, 42, 97
8, 117120, Note_on_c, 9, 42, 0
8, 117120, Note_on_c, 9, 38, 127
8, 117124, Note_on_c, 9, 38, 0
8, 117248, Note_on_c, 9, 42, 42
8, 117252, Note_on_c, 9, 42, 0
8, 117376, Note_on_c, 9, 42, 65
8, 117380, Note_on_c, 9, 42, 0
8, 117504, Note_on_c, 9, 36, 127
8, 117504, Note_on_c, 9, 42, 97
8, 117508, Note_on_c, 9, 36, 0
8, 117512, Note_on_c, 9, 42, 0
8, 117632, Note_on_c, 9, 42, 42
8, 117636, Note_on_c, 9, 42, 0
8, 117760, Note_on_c, 9, 36, 127
8, 117760, Note_on_c, 9, 42, 65
8, 117764, Note_on_c, 9, 42, 0
8, 117764, Note_on_c, 9, 36, 0
8, 117880, Note_on_c, 9, 42, 97
8, 117888, Note_on_c, 9, 42, 0
8, 117888, Note_on_c, 9, 38, 127
8, 117892, Note_on_c, 9, 38, 0
8, 118016, Note_on_c, 9, 42, 42
8, 118020, Note_on_c, 9, 42, 0
8, 118144, Note_on_c, 9, 42, 65
8, 118148, Note_on_c, 9, 42, 0
8, 118272, Note_on_c, 9, 36, 127
8, 118272, Note_on_c, 9, 42, 97
8, 118276, Note_on_c, 9, 42, 0
8, 118276, Note_on_c, 9, 36, 0
8, 118400, Note_on_c, 9, 42, 42
8, 118400, Note_on_c, 9, 39, 105
8, 118404, Note_on_c, 9, 39, 0
8, 118404, Note_on_c, 9, 42, 0
8, 118528, Note_on_c, 9, 42, 65
8, 118528, Note_on_c, 9, 39, 115
8, 118532, Note_on_c, 9, 39, 0
8, 118532, Note_on_c, 9, 42, 0
8, 118652, Note_on_c, 9, 42, 97
8, 118656, Note_on_c, 9, 42, 0
8, 118656, Note_on_c, 9, 38, 127
8, 118656, Note_on_c, 9, 39, 125
8, 118660, Note_on_c, 9, 39, 0
8, 118660, Note_on_c, 9, 38, 0
8, 118784, Note_on_c, 9, 42, 42
8, 118788, Note_on_c, 9, 42, 0
8, 118912, Note_on_c, 9, 42, 65
8, 118916, Note_on_c, 9, 42, 0
8, 119040, Note_on_c, 9, 36, 127
8, 119040, Note_on_c, 9, 42, 97
8, 119044, Note_on_c, 9, 36, 0
8, 119048, Note_on_c, 9, 42, 0
8, 119168, Note_on_c, 9, 42, 42
8, 119172, Note_on_c, 9, 42, 0
8, 119296, Note_on_c, 9, 42, 65
8, 119300, Note_on_c, 9, 42, 0
8, 119416, Note_on_c, 9, 42, 97
8, 119424, Note_on_c, 9, 42, 0
8, 119424, Note_on_c, 9, 38, 127
8, 119428, Note_on_c, 9, 38, 0
8, 119552, Note_on_c, 9, 42, 42
8, 119556, Note_on_c, 9, 42, 0
8, 119680, Note_on_c, 9, 42, 65
8, 119684, Note_on_c, 9, 42, 0
8, 119808, Note_on_c, 9, 36, 127
8, 119808, Note_on_c, 9, 42, 97
8, 119812, Note_on_c, 9, 42, 0
8, 119812, Note_on_c, 9, 36, 0
8, 119936, Note_on_c, 9, 42, 42
8, 119940, Note_on_c, 9, 42, 0
8, 120064, Note_on_c, 9, 42, 65
8, 120068, Note_on_c, 9, 42, 0
8, 120188, Note_on_c, 9, 42, 97
8, 120192, Note_on_c, 9, 42, 0
8, 120192, Note_on_c, 9, 38, 127
8, 120196, Note_on_c, 9, 38, 0
8, 120320, Note_on_c, 9, 42, 42
8, 120324, Note_on_c, 9, 42, 0
8, 120448, Note_on_c, 9, 42, 65
8, 120452, Note_on_c, 9, 42, 0
8, 120576, Note_on_c, 9, 36, 127
8, 120576, Note_on_c, 9, 42, 97
8, 120580, Note_on_c, 9, 36, 0
8, 120584, Note_on_c, 9, 42, 0
8, 120704, Note_on_c, 9, 42, 42
8, 120708, Note_on_c, 9, 42, 0
8, 120832, Note_on_c, 9, 36, 127
8, 120832, Note_on_c, 9, 42, 65
8, 120836, Note_on_c, 9, 42, 0
8, 120836, Note_on_c, 9, 36, 0
8, 120952, Note_on_c, 9, 42, 97
8, 120960, Note_on_c, 9, 42, 0
8, 120960, Note_on_c, 9, 38, 127
8, 120964, Note_on_c, 9, 38, 0
8, 121088, Note_on_c, 9, 42, 42
8, 121092, Note_on_c, 9, 42, 0
8, 121216, Note_on_c, 9, 42, 65
8, 121220, Note_on_c, 9, 42, 0
8, 121344, Note_on_c, 9, 36, 127
8, 121344, Note_on_c, 9, 42, 97
8, 121348, Note_on_c, 9, 42, 0
8, 121348, Note_on_c, 9, 36, 0
8, 121472, Note_on_c, 9, 42, 42
8, 121472, Note_on_c, 9, 47, 127
8, 121476, Note_on_c, 9, 47, 0
8, 121476, Note_on_c, 9, 42, 0
8, 121600, Note_on_c, 9, 42, 65
8, 121600, Note_on_c, 9, 47, 127
8, 121604, Note_on_c, 9, 47, 0
8, 121604, Note_on_c, 9, 42, 0
8, 121724, Note_on_c, 9, 42, 97
8, 121728, Note_on_c, 9, 42, 0
8, 121728, Note_on_c, 9, 50, 127
8, 121732, Note_on_c, 9, 50, 0
8, 121856, Note_on_c, 9, 42, 42
8, 121860, Note_on_c, 9, 42, 0
8, 121984, Note_on_c, 9, 42, 65
8, 121984, Note_on_c, 9, 50, 127
8, 121988, Note_on_c, 9, 50, 0
8, 121988, Note_on_c, 9, 42, 0
8, 122112, Note_on_c, 9, 36, 127
8, 122112, Note_on_c, 9, 42, 97
8, 122116, Note_on_c, 9, 36, 0
8, 122120, Note_on_c, 9, 42, 0
8, 122240, Note_on_c, 9, 42, 42
8, 122240, Note_on_c, 9, 47, 127
8, 122244, Note_on_c, 9, 47, 0
8, 122244, Note_on_c, 9, 42, 0
8, 122368, Note_on_c, 9, 42, 65
8, 122368, Note_on_c, 9, 47, 127
8, 122372, Note_on_c, 9, 47, 0
8, 122372, Note_on_c, 9, 42, 0
8, 122488, Note_on_c, 9, 42, 97
8, 122496, Note_on_c, 9, 42, 0
8, 122496, Note_on_c, 9, 47, 127
8, 122500, Note_on_c, 9, 47, 0
8, 122624, Note_on_c, 9, 42, 42
8, 122628, Note_on_c, 9, 42, 0
8, 122752, Note_on_c, 9, 42, 65
8, 122752, Note_on_c, 9, 43, 127
8, 122756, Note_on_c, 9, 43, 0
8, 122756, Note_on_c, 9, 42, 0
8, 122880, Note_on_c, 9, 36, 127
8, 122880, Note_on_c, 9, 42, 97
8, 122880, Note_on_c, 9, 49, 127
8, 122884, Note_on_c, 9, 49, 0
8, 122884, Note_on_c, 9, 42, 0
8, 122884, Note_on_c, 9, 36, 0
8, 123008, Note_on_c, 9, 42, 42
8, 123012, Note_on_c, 9, 42, 0
8, 123136, Note_on_c, 9, 42, 65
8, 123140, Note_on_c, 9, 42, 0
8, 123260, Note_on_c, 9, 42, 97
8, 123264, Note_on_c, 9, 42, 0
8, 123264, Note_on_c, 9, 38, 127
8, 123268, Note_on_c, 9, 38, 0
8, 123392, Note_on_c, 9, 42, 42
8, 123396, Note_on_c, 9, 42, 0
8, 123520, Note_on_c, 9, 42, 65
8, 123524, Note_on_c, 9, 42, 0
8, 123648, Note_on_c, 9, 36, 127
8, 123648, Note_on_c, 9, 42, 97
8, 123652, Note_on_c, 9, 36, 0
8, 123656, Note_on_c, 9, 42, 0
8, 123776, Note_on_c, 9, 42, 42
8, 123780, Note_on_c, 9, 42, 0
8, 123904, Note_on_c, 9, 42, 65
8, 123908, Note_on_c, 9, 42, 0
8, 124024, Note_on_c, 9, 42, 97
8, 124032, Note_on_c, 9, 42, 0
8, 124032, Note_on_c, 9, 38, 127
8, 124036, Note_on_c, 9, 38, 0
8, 124160, Note_on_c, 9, 42, 42
8, 124164, Note_on_c, 9, 42, 0
8, 124288, Note_on_c, 9, 42, 65
8, 124292, Note_on_c, 9, 42, 0
8, 124416, Note_on_c, 9, 36, 127
8, 124416, Note_on_c, 9, 42, 97
8, 124420, Note_on_c, 9, 42, 0
8, 124420, Note_on_c, 9, 36, 0
8, 124544, Note_on_c, 9, 42, 42
8, 124548, Note_on_c, 9, 42, 0
8, 124672, Note_on_c, 9, 42, 65
8, 124676, Note_on_c, 9, 42, 0
8, 124796, Note_on_c, 9, 42, 97
8, 124800, Note_on_c, 9, 42, 0
8, 124800, Note_on_c, 9, 38, 127
8, 124804, Note_on_c, 9, 38, 0
8, 124928, Note_on_c, 9, 42, 42
8, 124932, Note_on_c, 9, 42, 0
8, 125056, Note_on_c, 9, 42, 65
8, 125060, Note_on_c, 9, 42, 0
8, 125184, Note_on_c, 9, 36, 127
8, 125184, Note_on_c, 9, 42, 97
8, 125188, Note_on_c, 9, 36, 0
8, 125192, Note_on_c, 9, 42, 0
8, 125312, Note_on_c, 9, 42, 42
8, 125316, Note_on_c, 9, 42, 0
8, 125440, Note_on_c, 9, 36, 127
8, 125440, Note_on_c, 9, 42, 65
8, 125444, Note_on_c, 9, 42, 0
8, 125444, Note_on_c, 9, 36, 0
8, 125560, Note_on_c, 9, 42, 97
8, 125568, Note_on_c, 9, 42, 0
8, 125568, Note_on_c, 9, 38, 127
8, 125572, Note_on_c, 9, 38, 0
8, 125696, Note_on_c, 9, 42, 42
8, 125696, Note_on_c, 9, 47, 127
8, 125700, Note_on_c, 9, 47, 0
8, 125700, Note_on_c, 9, 42, 0
8, 125824, Note_on_c, 9, 42, 65
8, 125824, Note_on_c, 9, 43, 127
8, 125828, Note_on_c, 9, 43, 0
8, 125828, Note_on_c, 9, 42, 0
8, 125952, Note_on_c, 9, 36, 127
8, 125952, Note_on_c, 9, 42, 97
8, 125956, Note_on_c, 9, 42, 0
8, 125956, Note_on_c, 9, 36, 0
8, 126080, Note_on_c, 9, 42, 42
8, 126084, Note_on_c, 9, 42, 0
8, 126208, Note_on_c, 9, 42, 65
8, 126212, Note_on_c, 9, 42, 0
8, 126332, Note_on_c, 9, 42, 97
8, 126336, Note_on_c, 9, 42, 0
8, 126336, Note_on_c, 9, 38, 127
8, 126340, Note_on_c, 9, 38, 0
8, 126464, Note_on_c, 9, 42, 42
8, 126468, Note_on_c, 9, 42, 0
8, 126592, Note_on_c, 9, 42, 65
8, 126596, Note_on_c, 9, 42, 0
8, 126720, Note_on_c, 9, 36, 127
8, 126720, Note_on_c, 9, 42, 97
8, 126724, Note_on_c, 9, 36, 0
8, 126728, Note_on_c, 9, 42, 0
8, 126848, Note_on_c, 9, 42, 42
8, 126852, Note_on_c, 9, 42, 0
8, 126976, Note_on_c, 9, 42, 65
8, 126980, Note_on_c, 9, 42, 0
8, 127096, Note_on_c, 9, 42, 97
8, 127104, Note_on_c, 9, 42, 0
8, 127104, Note_on_c, 9, 38, 127
8, 127108, Note_on_c, 9, 38, 0
8, 127232, Note_on_c, 9, 42, 42
8, 127236, Note_on_c, 9, 42, 0
8, 127360, Note_on_c, 9, 42, 65
8, 127364, Note_on_c, 9, 42, 0
8, 127488, Note_on_c, 9, 36, 127
8, 127488, Note_on_c, 9, 42, 97
8, 127492, Note_on_c, 9, 42, 0
8, 127492, Note_on_c, 9, 36, 0
8, 127616, Note_on_c, 9, 42, 42
8, 127620, Note_on_c, 9, 42, 0
8, 127744, Note_on_c, 9, 42, 65
8, 127748, Note_on_c, 9, 42, 0
8, 127868, Note_on_c, 9, 42, 97
8, 127872, Note_on_c, 9, 42, 0
8, 127872, Note_on_c, 9, 38, 127
8, 127876, Note_on_c, 9, 38, 0
8, 128000, Note_on_c, 9, 42, 42
8, 128004, Note_on_c, 9, 42, 0
8, 128128, Note_on_c, 9, 42, 65
8, 128132, Note_on_c, 9, 42, 0
8, 128256, Note_on_c, 9, 36, 127
8, 128256, Note_on_c, 9, 42, 97
8, 128260, Note_on_c, 9, 36, 0
8, 128264, Note_on_c, 9, 42, 0
8, 128384, Note_on_c, 9, 42, 42
8, 128388, Note_on_c, 9, 42, 0
8, 128512, Note_on_c, 9, 36, 127
8, 128512, Note_on_c, 9, 42, 65
8, 128516, Note_on_c, 9, 42, 0
8, 128516, Note_on_c, 9, 36, 0
8, 128632, Note_on_c, 9, 42, 97
8, 128640, Note_on_c, 9, 42, 0
8, 128640, Note_on_c, 9, 38, 127
8, 128640, Note_on_c, 9, 50, 127
8, 128644, Note_on_c, 9, 50, 0
8, 128644, Note_on_c, 9, 38, 0
8, 128768, Note_on_c, 9, 42, 42
8, 128768, Note_on_c, 9, 47, 127
8, 128772, Note_on_c, 9, 47, 0
8, 128772, Note_on_c, 9, 42, 0
8, 128896, Note_on_c, 9, 42, 65
8, 128896, Note_on_c, 9, 43, 127
8, 128896, Note_on_c, 9, 39, 125
8, 128900, Note_on_c, 9, 39, 0
8, 128900, Note_on_c, 9, 43, 0
8, 128900, Note_on_c, 9, 42, 0
8, 129024, Note_on_c, 9, 36, 127
8, 129024, Note_on_c, 9, 42, 97
8, 129028, Note_on_c, 9, 42, 0
8, 129028, Note_on_c, 9, 36, 0
8, 129152, Note_on_c, 9, 42, 42
8, 129156, Note_on_c, 9, 42, 0
8, 129280, Note_on_c, 9, 42, 65
8, 129284, Note_on_c, 9, 42, 0
8, 129404, Note_on_c, 9, 42, 97
8, 129408, Note_on_c, 9, 42, 0
8, 129408, Note_on_c, 9, 38, 127
8, 129412, Note_on_c, 9, 38, 0
8, 129536, Note_on_c, 9, 42, 42
8, 129540, Note_on_c, 9, 42, 0
8, 129664, Note_on_c, 9, 42, 65
8, 129668, Note_on_c, 9, 42, 0
8, 129792, Note_on_c, 9, 36, 127
8, 129792, Note_on_c, 9, 42, 97
8, 129796, Note_on_c, 9, 36, 0
8, 129800, Note_on_c, 9, 42, 0
8, 129920, Note_on_c, 9, 42, 42
8, 129924, Note_on_c, 9, 42, 0
8, 130048, Note_on_c, 9, 42, 65
8, 130052, Note_on_c, 9, 42, 0
8, 130168, Note_on_c, 9, 42, 97
8, 130176, Note_on_c, 9, 42, 0
8, 130176, Note_on_c, 9, 38, 127
8, 130180, Note_on_c, 9, 38, 0
8, 130304, Note_on_c, 9, 42, 42
8, 130308, Note_on_c, 9, 42, 0
8, 130432, Note_on_c, 9, 42, 65
8, 130436, Note_on_c, 9, 42, 0
8, 130560, Note_on_c, 9, 36, 127
8, 130560, Note_on_c, 9, 42, 97
8, 130564, Note_on_c, 9, 42, 0
8, 130564, Note_on_c, 9, 36, 0
8, 130688, Note_on_c, 9, 42, 42
8, 130692, Note_on_c, 9, 42, 0
8, 130816, Note_on_c, 9, 42, 65
8, 130820, Note_on_c, 9, 42, 0
8, 130940, Note_on_c, 9, 42, 97
8, 130944, Note_on_c, 9, 42, 0
8, 130944, Note_on_c, 9, 38, 127
8, 130948, Note_on_c, 9, 38, 0
8, 131072, Note_on_c, 9, 42, 42
8, 131076, Note_on_c, 9, 42, 0
8, 131200, Note_on_c, 9, 42, 65
8, 131204, Note_on_c, 9, 42, 0
8, 131328, Note_on_c, 9, 36, 127
8, 131328, Note_on_c, 9, 42, 97
8, 131332, Note_on_c, 9, 36, 0
8, 131336, Note_on_c, 9, 42, 0
8, 131456, Note_on_c, 9, 42, 42
8, 131460, Note_on_c, 9, 42, 0
8, 131584, Note_on_c, 9, 36, 127
8, 131584, Note_on_c, 9, 42, 65
8, 131588, Note_on_c, 9, 42, 0
8, 131588, Note_on_c, 9, 36, 0
8, 131704, Note_on_c, 9, 42, 97
8, 131712, Note_on_c, 9, 42, 0
8, 131712, Note_on_c, 9, 38, 127
8, 131716, Note_on_c, 9, 38, 0
8, 131840, Note_on_c, 9, 42, 42
8, 131844, Note_on_c, 9, 42, 0
8, 131968, Note_on_c, 9, 42, 65
8, 131972, Note_on_c, 9, 42, 0
8, 132096, Note_on_c, 9, 36, 127
8, 132096, Note_on_c, 9, 42, 97
8, 132100, Note_on_c, 9, 42, 0
8, 132100, Note_on_c, 9, 36, 0
8, 132224, Note_on_c, 9, 42, 42
8, 132228, Note_on_c, 9, 42, 0
8, 132352, Note_on_c, 9, 42, 65
8, 132356, Note_on_c, 9, 42, 0
8, 132476, Note_on_c, 9, 42, 97
8, 132480, Note_on_c, 9, 42, 0
8, 132480, Note_on_c, 9, 38, 127
8, 132484, Note_on_c, 9, 38, 0
8, 132608, Note_on_c, 9, 42, 42
8, 132612, Note_on_c, 9, 42, 0
8, 132736, Note_on_c, 9, 42, 65
8, 132740, Note_on_c, 9, 42, 0
8, 132864, Note_on_c, 9, 36, 127
8, 132864, Note_on_c, 9, 42, 97
8, 132868, Note_on_c, 9, 36, 0
8, 132872, Note_on_c, 9, 42, 0
8, 132992, Note_on_c, 9, 42, 42
8, 132996, Note_on_c, 9, 42, 0
8, 133120, Note_on_c, 9, 42, 65
8, 133124, Note_on_c, 9, 42, 0
8, 133240, Note_on_c, 9, 42, 97
8, 133248, Note_on_c, 9, 42, 0
8, 133248, Note_on_c, 9, 38, 127
8, 133252, Note_on_c, 9, 38, 0
8, 133376, Note_on_c, 9, 42, 42
8, 133380, Note_on_c, 9, 42, 0
8, 133504, Note_on_c, 9, 42, 65
8, 133508, Note_on_c, 9, 42, 0
8, 133632, Note_on_c, 9, 36, 127
8, 133632, Note_on_c, 9, 42, 97
8, 133636, Note_on_c, 9, 42, 0
8, 133636, Note_on_c, 9, 36, 0
8, 133760, Note_on_c, 9, 42, 42
8, 133764, Note_on_c, 9, 42, 0
8, 133888, Note_on_c, 9, 42, 65
8, 133892, Note_on_c, 9, 42, 0
8, 134012, Note_on_c, 9, 42, 97
8, 134016, Note_on_c, 9, 42, 0
8, 134016, Note_on_c, 9, 38, 127
8, 134020, Note_on_c, 9, 38, 0
8, 134144, Note_on_c, 9, 42, 42
8, 134148, Note_on_c, 9, 42, 0
8, 134272, Note_on_c, 9, 42, 65
8, 134276, Note_on_c, 9, 42, 0
8, 134400, Note_on_c, 9, 36, 127
8, 134400, Note_on_c, 9, 42, 97
8, 134404, Note_on_c, 9, 36, 0
8, 134408, Note_on_c, 9, 42, 0
8, 134528, Note_on_c, 9, 42, 42
8, 134532, Note_on_c, 9, 42, 0
8, 134656, Note_on_c, 9, 36, 127
8, 134656, Note_on_c, 9, 42, 65
8, 134660, Note_on_c, 9, 42, 0
8, 134660, Note_on_c, 9, 36, 0
8, 134776, Note_on_c, 9, 42, 97
8, 134784, Note_on_c, 9, 42, 0
8, 134784, Note_on_c, 9, 38, 127
8, 134788, Note_on_c, 9, 38, 0
8, 134912, Note_on_c, 9, 42, 42
8, 134916, Note_on_c, 9, 42, 0
8, 135040, Note_on_c, 9, 42, 65
8, 135044, Note_on_c, 9, 42, 0
8, 135168, Note_on_c, 9, 36, 127
8, 135168, Note_on_c, 9, 42, 97
8, 135172, Note_on_c, 9, 42, 0
8, 135172, Note_on_c, 9, 36, 0
8, 135296, Note_on_c, 9, 42, 42
8, 135300, Note_on_c, 9, 42, 0
8, 135424, Note_on_c, 9, 42, 65
8, 135428, Note_on_c, 9, 42, 0
8, 135548, Note_on_c, 9, 42, 97
8, 135552, Note_on_c, 9, 42, 0
8, 135552, Note_on_c, 9, 38, 127
8, 135556, Note_on_c, 9, 38, 0
8, 135680, Note_on_c, 9, 42, 42
8, 135684, Note_on_c, 9, 42, 0
8, 135808, Note_on_c, 9, 42, 65
8, 135812, Note_on_c, 9, 42, 0
8, 135936, Note_on_c, 9, 36, 127
8, 135936, Note_on_c, 9, 42, 97
8, 135940, Note_on_c, 9, 36, 0
8, 135944, Note_on_c, 9, 42, 0
8, 136064, Note_on_c, 9, 42, 42
8, 136068, Note_on_c, 9, 42, 0
8, 136192, Note_on_c, 9, 42, 65
8, 136196, Note_on_c, 9, 42, 0
8, 136312, Note_on_c, 9, 42, 97
8, 136320, Note_on_c, 9, 42, 0
8, 136320, Note_on_c, 9, 38, 127
8, 136324, Note_on_c, 9, 38, 0
8, 136448, Note_on_c, 9, 42, 42
8, 136452, Note_on_c, 9, 42, 0
8, 136576, Note_on_c, 9, 42, 65
8, 136580, Note_on_c, 9, 42, 0
8, 136704, Note_on_c, 9, 36, 127
8, 136704, Note_on_c, 9, 42, 97
8, 136708, Note_on_c, 9, 42, 0
8, 136708, Note_on_c, 9, 36, 0
8, 136832, Note_on_c, 9, 42, 42
8, 136836, Note_on_c, 9, 42, 0
8, 136960, Note_on_c, 9, 42, 65
8, 136964, Note_on_c, 9, 42, 0
8, 137084, Note_on_c, 9, 42, 97
8, 137088, Note_on_c, 9, 42, 0
8, 137088, Note_on_c, 9, 38, 127
8, 137092, Note_on_c, 9, 38, 0
8, 137216, Note_on_c, 9, 42, 42
8, 137220, Note_on_c, 9, 42, 0
8, 137344, Note_on_c, 9, 42, 65
8, 137348, Note_on_c, 9, 42, 0
8, 137472, Note_on_c, 9, 36, 127
8, 137472, Note_on_c, 9, 42, 97
8, 137476, Note_on_c, 9, 36, 0
8, 137480, Note_on_c, 9, 42, 0
8, 137600, Note_on_c, 9, 42, 42
8, 137604, Note_on_c, 9, 42, 0
8, 137728, Note_on_c, 9, 36, 127
8, 137728, Note_on_c, 9, 42, 65
8, 137732, Note_on_c, 9, 42, 0
8, 137732, Note_on_c, 9, 36, 0
8, 137848, Note_on_c, 9, 42, 97
8, 137856, Note_on_c, 9, 42, 0
8, 137856, Note_on_c, 9, 38, 127
8, 137860, Note_on_c, 9, 38, 0
8, 137984, Note_on_c, 9, 42, 42
8, 137988, Note_on_c, 9, 42, 0
8, 138112, Note_on_c, 9, 42, 65
8, 138116, Note_on_c, 9, 42, 0
8, 138240, Note_on_c, 9, 36, 127
8, 138240, Note_on_c, 9, 42, 97
8, 138244, Note_on_c, 9, 42, 0
8, 138244, Note_on_c, 9, 36, 0
8, 138368, Note_on_c, 9, 42, 42
8, 138372, Note_on_c, 9, 42, 0
8, 138496, Note_on_c, 9, 42, 65
8, 138500, Note_on_c, 9, 42, 0
8, 138620, Note_on_c, 9, 42, 97
8, 138624, Note_on_c, 9, 42, 0
8, 138624, Note_on_c, 9, 38, 127
8, 138628, Note_on_c, 9, 38, 0
8, 138752, Note_on_c, 9, 42, 42
8, 138756, Note_on_c, 9, 42, 0
8, 138880, Note_on_c, 9, 42, 65
8, 138884, Note_on_c, 9, 42, 0
8, 139008, Note_on_c, 9, 36, 127
8, 139008, Note_on_c, 9, 42, 97
8, 139012, Note_on_c, 9, 36, 0
8, 139016, Note_on_c, 9, 42, 0
8, 139136, Note_on_c, 9, 42, 42
8, 139140, Note_on_c, 9, 42, 0
8, 139264, Note_on_c, 9, 42, 65
8, 139268, Note_on_c, 9, 42, 0
8, 139384, Note_on_c, 9, 42, 97
8, 139392, Note_on_c, 9, 42, 0
8, 139392, Note_on_c, 9, 38, 127
8, 139396, Note_on_c, 9, 38, 0
8, 139520, Note_on_c, 9, 42, 42
8, 139524, Note_on_c, 9, 42, 0
8, 139648, Note_on_c, 9, 42, 65
8, 139652, Note_on_c, 9, 42, 0
8, 139776, Note_on_c, 9, 36, 127
8, 139776, Note_on_c, 9, 42, 97
8, 139780, Note_on_c, 9, 42, 0
8, 139780, Note_on_c, 9, 36, 0
8, 139904, Note_on_c, 9, 42, 42
8, 139908, Note_on_c, 9, 42, 0
8, 140032, Note_on_c, 9, 42, 65
8, 140036, Note_on_c, 9, 42, 0
8, 140156, Note_on_c, 9, 42, 97
8, 140160, Note_on_c, 9, 42, 0
8, 140160, Note_on_c, 9, 38, 127
8, 140164, Note_on_c, 9, 38, 0
8, 140288, Note_on_c, 9, 42, 42
8, 140292, Note_on_c, 9, 42, 0
8, 140416, Note_on_c, 9, 42, 65
8, 140420, Note_on_c, 9, 42, 0
8, 140544, Note_on_c, 9, 36, 127
8, 140544, Note_on_c, 9, 42, 97
8, 140548, Note_on_c, 9, 36, 0
8, 140552, Note_on_c, 9, 42, 0
8, 140672, Note_on_c, 9, 42, 42
8, 140676, Note_on_c, 9, 42, 0
8, 140800, Note_on_c, 9, 36, 127
8, 140800, Note_on_c, 9, 42, 65
8, 140804, Note_on_c, 9, 42, 0
8, 140804, Note_on_c, 9, 36, 0
8, 140920, Note_on_c, 9, 42, 97
8, 140928, Note_on_c, 9, 42, 0
8, 140928, Note_on_c, 9, 38, 127
8, 140932, Note_on_c, 9, 38, 0
8, 141056, Note_on_c, 9, 42, 42
8, 141060, Note_on_c, 9, 42, 0
8, 141184, Note_on_c, 9, 42, 65
8, 141188, Note_on_c, 9, 42, 0
8, 141312, Note_on_c, 9, 36, 127
8, 141312, Note_on_c, 9, 42, 97
8, 141316, Note_on_c, 9, 42, 0
8, 141316, Note_on_c, 9, 36, 0
8, 141440, Note_on_c, 9, 42, 42
8, 141444, Note_on_c, 9, 42, 0
8, 141568, Note_on_c, 9, 42, 65
8, 141572, Note_on_c, 9, 42, 0
8, 141692, Note_on_c, 9, 42, 97
8, 141696, Note_on_c, 9, 42, 0
8, 141696, Note_on_c, 9, 38, 127
8, 141700, Note_on_c, 9, 38, 0
8, 141824, Note_on_c, 9, 42, 42
8, 141828, Note_on_c, 9, 42, 0
8, 141952, Note_on_c, 9, 42, 65
8, 141956, Note_on_c, 9, 42, 0
8, 142080, Note_on_c, 9, 36, 127
8, 142080, Note_on_c, 9, 42, 97
8, 142084, Note_on_c, 9, 36, 0
8, 142088, Note_on_c, 9, 42, 0
8, 142208, Note_on_c, 9, 42, 42
8, 142212, Note_on_c, 9, 42, 0
8, 142336, Note_on_c, 9, 42, 65
8, 142340, Note_on_c, 9, 42, 0
8, 142456, Note_on_c, 9, 42, 97
8, 142464, Note_on_c, 9, 42, 0
8, 142464, Note_on_c, 9, 38, 127
8, 142468, Note_on_c, 9, 38, 0
8, 142592, Note_on_c, 9, 42, 42
8, 142596, Note_on_c, 9, 42, 0
8, 142720, Note_on_c, 9, 42, 65
8, 142724, Note_on_c, 9, 42, 0
8, 142848, Note_on_c, 9, 36, 127
8, 142848, Note_on_c, 9, 42, 97
8, 142852, Note_on_c, 9, 42, 0
8, 142852, Note_on_c, 9, 36, 0
8, 142976, Note_on_c, 9, 42, 42
8, 142980, Note_on_c, 9, 42, 0
8, 143104, Note_on_c, 9, 42, 65
8, 143108, Note_on_c, 9, 42, 0
8, 143228, Note_on_c, 9, 42, 97
8, 143232, Note_on_c, 9, 42, 0
8, 143232, Note_on_c, 9, 38, 127
8, 143236, Note_on_c, 9, 38, 0
8, 143360, Note_on_c, 9, 42, 42
8, 143364, Note_on_c, 9, 42, 0
8, 143488, Note_on_c, 9, 42, 65
8, 143492, Note_on_c, 9, 42, 0
8, 143616, Note_on_c, 9, 36, 127
8, 143616, Note_on_c, 9, 42, 97
8, 143620, Note_on_c, 9, 36, 0
8, 143624, Note_on_c, 9, 42, 0
8, 143744, Note_on_c, 9, 42, 42
8, 143748, Note_on_c, 9, 42, 0
8, 143872, Note_on_c, 9, 36, 127
8, 143872, Note_on_c, 9, 42, 65
8, 143876, Note_on_c, 9, 42, 0
8, 143876, Note_on_c, 9, 36, 0
8, 143992, Note_on_c, 9, 42, 97
8, 144000, Note_on_c, 9, 42, 0
8, 144000, Note_on_c, 9, 38, 127
8, 144004, Note_on_c, 9, 38, 0
8, 144128, Note_on_c, 9, 42, 42
8, 144132, Note_on_c, 9, 42, 0
8, 144256, Note_on_c, 9, 42, 65
8, 144260, Note_on_c, 9, 42, 0
8, 144384, Note_on_c, 9, 36, 127
8, 144384, Note_on_c, 9, 42, 97
8, 144388, Note_on_c, 9, 42, 0
8, 144388, Note_on_c, 9, 36, 0
8, 144512, Note_on_c, 9, 42, 42
8, 144516, Note_on_c, 9, 42, 0
8, 144640, Note_on_c, 9, 42, 65
8, 144644, Note_on_c, 9, 42, 0
8, 144764, Note_on_c, 9, 42, 97
8, 144768, Note_on_c, 9, 42, 0
8, 144768, Note_on_c, 9, 38, 127
8, 144772, Note_on_c, 9, 38, 0
8, 144896, Note_on_c, 9, 42, 42
8, 144900, Note_on_c, 9, 42, 0
8, 145024, Note_on_c, 9, 42, 65
8, 145028, Note_on_c, 9, 42, 0
8, 145152, Note_on_c, 9, 36, 127
8, 145152, Note_on_c, 9, 42, 97
8, 145156, Note_on_c, 9, 36, 0
8, 145160, Note_on_c, 9, 42, 0
8, 145280, Note_on_c, 9, 42, 42
8, 145284, Note_on_c, 9, 42, 0
8, 145408, Note_on_c, 9, 42, 65
8, 145412, Note_on_c, 9, 42, 0
8, 145528, Note_on_c, 9, 42, 97
8, 145536, Note_on_c, 9, 42, 0
8, 145536, Note_on_c, 9, 38, 127
8, 145540, Note_on_c, 9, 38, 0
8, 145664, Note_on_c, 9, 42, 42
8, 145668, Note_on_c, 9, 42, 0
8, 145792, Note_on_c, 9, 42, 65
8, 145796, Note_on_c, 9, 42, 0
8, 145920, Note_on_c, 9, 36, 127
8, 145920, Note_on_c, 9, 42, 97
8, 145924, Note_on_c, 9, 42, 0
8, 145924, Note_on_c, 9, 36, 0
8, 146048, Note_on_c, 9, 42, 42
8, 146052, Note_on_c, 9, 42, 0
8, 146176, Note_on_c, 9, 42, 65
8, 146180, Note_on_c, 9, 42, 0
8, 146300, Note_on_c, 9, 42, 97
8, 146304, Note_on_c, 9, 42, 0
8, 146304, Note_on_c, 9, 38, 127
8, 146308, Note_on_c, 9, 38, 0
8, 146432, Note_on_c, 9, 42, 42
8, 146436, Note_on_c, 9, 42, 0
8, 146560, Note_on_c, 9, 42, 65
8, 146564, Note_on_c, 9, 42, 0
8, 146688, Note_on_c, 9, 36, 127
8, 146688, Note_on_c, 9, 42, 97
8, 146692, Note_on_c, 9, 36, 0
8, 146696, Note_on_c, 9, 42, 0
8, 146816, Note_on_c, 9, 42, 42
8, 146820, Note_on_c, 9, 42, 0
8, 146944, Note_on_c, 9, 36, 127
8, 146944, Note_on_c, 9, 42, 65
8, 146948, Note_on_c, 9, 42, 0
8, 146948, Note_on_c, 9, 36, 0
8, 147064, Note_on_c, 9, 42, 97
8, 147072, Note_on_c, 9, 42, 0
8, 147072, Note_on_c, 9, 38, 127
8, 147072, Note_on_c, 9, 50, 127
8, 147076, Note_on_c, 9, 50, 0
8, 147076, Note_on_c, 9, 38, 0
8, 147200, Note_on_c, 9, 42, 42
8, 147200, Note_on_c, 9, 47, 127
8, 147204, Note_on_c, 9, 47, 0
8, 147204, Note_on_c, 9, 42, 0
8, 147328, Note_on_c, 9, 42, 65
8, 147328, Note_on_c, 9, 43, 127
8, 147332, Note_on_c, 9, 43, 0
8, 147332, Note_on_c, 9, 42, 0
8, 147456, Note_on_c, 9, 36, 127
8, 147456, Note_on_c, 9, 42, 97
8, 147460, Note_on_c, 9, 42, 0
8, 147460, Note_on_c, 9, 36, 0
8, 147584, Note_on_c, 9, 42, 42
8, 147588, Note_on_c, 9, 42, 0
8, 147712, Note_on_c, 9, 42, 65
8, 147716, Note_on_c, 9, 42, 0
8, 147836, Note_on_c, 9, 42, 97
8, 147840, Note_on_c, 9, 42, 0
8, 147840, Note_on_c, 9, 38, 127
8, 147844, Note_on_c, 9, 38, 0
8, 147968, Note_on_c, 9, 42, 42
8, 147972, Note_on_c, 9, 42, 0
8, 148096, Note_on_c, 9, 42, 65
8, 148100, Note_on_c, 9, 42, 0
8, 148224, Note_on_c, 9, 36, 127
8, 148224, Note_on_c, 9, 42, 97
8, 148228, Note_on_c, 9, 36, 0
8, 148232, Note_on_c, 9, 42, 0
8, 148352, Note_on_c, 9, 42, 42
8, 148356, Note_on_c, 9, 42, 0
8, 148480, Note_on_c, 9, 42, 65
8, 148484, Note_on_c, 9, 42, 0
8, 148600, Note_on_c, 9, 42, 97
8, 148608, Note_on_c, 9, 42, 0
8, 148608, Note_on_c, 9, 38, 127
8, 148612, Note_on_c, 9, 38, 0
8, 148736, Note_on_c, 9, 42, 42
8, 148740, Note_on_c, 9, 42, 0
8, 148864, Note_on_c, 9, 42, 65
8, 148868, Note_on_c, 9, 42, 0
8, 148992, Note_on_c, 9, 36, 127
8, 148992, Note_on_c, 9, 42, 97
8, 148996, Note_on_c, 9, 42, 0
8, 148996, Note_on_c, 9, 36, 0
8, 149120, Note_on_c, 9, 42, 42
8, 149124, Note_on_c, 9, 42, 0
8, 149248, Note_on_c, 9, 42, 65
8, 149252, Note_on_c, 9, 42, 0
8, 149372, Note_on_c, 9, 42, 97
8, 149376, Note_on_c, 9, 42, 0
8, 149376, Note_on_c, 9, 38, 127
8, 149380, Note_on_c, 9, 38, 0
8, 149504, Note_on_c, 9, 42, 42
8, 149508, Note_on_c, 9, 42, 0
8, 149632, Note_on_c, 9, 42, 65
8, 149636, Note_on_c, 9, 42, 0
8, 149760, Note_on_c, 9, 36, 127
8, 149760, Note_on_c, 9, 42, 97
8, 149764, Note_on_c, 9, 36, 0
8, 149768, Note_on_c, 9, 42, 0
8, 149888, Note_on_c, 9, 42, 42
8, 149892, Note_on_c, 9, 42, 0
8, 150016, Note_on_c, 9, 36, 127
8, 150016, Note_on_c, 9, 42, 65
8, 150020, Note_on_c, 9, 42, 0
8, 150020, Note_on_c, 9, 36, 0
8, 150136, Note_on_c, 9, 42, 97
8, 150144, Note_on_c, 9, 42, 0
8, 150144, Note_on_c, 9, 38, 127
8, 150148, Note_on_c, 9, 38, 0
8, 150272, Note_on_c, 9, 42, 42
8, 150276, Note_on_c, 9, 42, 0
8, 150400, Note_on_c, 9, 42, 65
8, 150404, Note_on_c, 9, 42, 0
8, 150528, Note_on_c, 9, 36, 127
8, 150528, Note_on_c, 9, 42, 97
8, 150532, Note_on_c, 9, 42, 0
8, 150532, Note_on_c, 9, 36, 0
8, 150656, Note_on_c, 9, 42, 42
8, 150660, Note_on_c, 9, 42, 0
8, 150784, Note_on_c, 9, 42, 65
8, 150788, Note_on_c, 9, 42, 0
8, 150908, Note_on_c, 9, 42, 97
8, 150912, Note_on_c, 9, 42, 0
8, 150912, Note_on_c, 9, 38, 127
8, 150916, Note_on_c, 9, 38, 0
8, 151040, Note_on_c, 9, 42, 42
8, 151044, Note_on_c, 9, 42, 0
8, 151168, Note_on_c, 9, 42, 65
8, 151172, Note_on_c, 9, 42, 0
8, 151296, Note_on_c, 9, 36, 127
8, 151296, Note_on_c, 9, 42, 97
8, 151300, Note_on_c, 9, 36, 0
8, 151304, Note_on_c, 9, 42, 0
8, 151424, Note_on_c, 9, 42, 42
8, 151428, Note_on_c, 9, 42, 0
8, 151552, Note_on_c, 9, 42, 65
8, 151556, Note_on_c, 9, 42, 0
8, 151672, Note_on_c, 9, 42, 97
8, 151680, Note_on_c, 9, 42, 0
8, 151680, Note_on_c, 9, 38, 127
8, 151684, Note_on_c, 9, 38, 0
8, 151808, Note_on_c, 9, 42, 42
8, 151812, Note_on_c, 9, 42, 0
8, 151936, Note_on_c, 9, 42, 65
8, 151940, Note_on_c, 9, 42, 0
8, 152064, Note_on_c, 9, 36, 127
8, 152064, Note_on_c, 9, 42, 97
8, 152068, Note_on_c, 9, 42, 0
8, 152068, Note_on_c, 9, 36, 0
8, 152192, Note_on_c, 9, 42, 42
8, 152196, Note_on_c, 9, 42, 0
8, 152320, Note_on_c, 9, 42, 65
8, 152324, Note_on_c, 9, 42, 0
8, 152444, Note_on_c, 9, 42, 97
8, 152448, Note_on_c, 9, 42, 0
8, 152448, Note_on_c, 9, 38, 127
8, 152452, Note_on_c, 9, 38, 0
8, 152576, Note_on_c, 9, 42, 42
8, 152580, Note_on_c, 9, 42, 0
8, 152704, Note_on_c, 9, 42, 65
8, 152708, Note_on_c, 9, 42, 0
8, 152832, Note_on_c, 9, 36, 127
8, 152832, Note_on_c, 9, 42, 97
8, 152836, Note_on_c, 9, 36, 0
8, 152840, Note_on_c, 9, 42, 0
8, 152960, Note_on_c, 9, 42, 42
8, 152964, Note_on_c, 9, 42, 0
8, 153088, Note_on_c, 9, 36, 127
8, 153088, Note_on_c, 9, 42, 65
8, 153092, Note_on_c, 9, 42, 0
8, 153092, Note_on_c, 9, 36, 0
8, 153208, Note_on_c, 9, 42, 97
8, 153216, Note_on_c, 9, 42, 0
8, 153216, Note_on_c, 9, 38, 127
8, 153220, Note_on_c, 9, 38, 0
8, 153344, Note_on_c, 9, 42, 42
8, 153348, Note_on_c, 9, 42, 0
8, 153472, Note_on_c, 9, 42, 65
8, 153476, Note_on_c, 9, 42, 0
8, 153600, Note_on_c, 9, 39, 125
8, 153604, Note_on_c, 9, 39, 0
8, 153856, Note_on_c, 9, 39, 125
8, 153860, Note_on_c, 9, 39, 0
8, 154240, Note_on_c, 9, 39, 125
8, 154244, Note_on_c, 9, 39, 0
8, 154624, Note_on_c, 9, 38, 127
8, 154628, Note_on_c, 9, 38, 0
8, 154752, Note_on_c, 9, 38, 127
8, 154756, Note_on_c, 9, 38, 0
8, 154880, Note_on_c, 9, 50, 121
8, 154884, Note_on_c, 9, 50, 0
8, 155008, Note_on_c, 9, 47, 126
8, 155012, Note_on_c, 9, 47, 0
8, 155136, Note_on_c, 9, 43, 127
8, 155136, Note_on_c, 9, 39, 125
8, 155140, Note_on_c, 9, 39, 0
8, 155140, Note_on_c, 9, 43, 0
8, 155392, Note_on_c, 9, 39, 125
8, 155396, Note_on_c, 9, 39, 0
8, 155776, Note_on_c, 9, 39, 125
8, 155780, Note_on_c, 9, 39, 0
8, 156160, Note_on_c, 9, 38, 127
8, 156164, Note_on_c, 9, 38, 0
8, 156288, Note_on_c, 9, 38, 127
8, 156288, Note_on_c, 9, 50, 127
8, 156292, Note_on_c, 9, 50, 0
8, 156292, Note_on_c, 9, 38, 0
8, 156416, Note_on_c, 9, 47, 127
8, 156420, Note_on_c, 9, 47, 0
8, 156544, Note_on_c, 9, 43, 127
8, 156548, Note_on_c, 9, 43, 0
8, 156672, Note_on_c, 9, 36, 127
8, 156672, Note_on_c, 9, 42, 97
8, 156676, Note_on_c, 9, 42, 0
8, 156676, Note_on_c, 9, 36, 0
8, 156800, Note_on_c, 9, 42, 42
8, 156804, Note_on_c, 9, 42, 0
8, 156928, Note_on_c, 9, 42, 65
8, 156932, Note_on_c, 9, 42, 0
8, 157052, Note_on_c, 9, 42, 97
8, 157056, Note_on_c, 9, 42, 0
8, 157056, Note_on_c, 9, 38, 127
8, 157060, Note_on_c, 9, 38, 0
8, 157184, Note_on_c, 9, 42, 42
8, 157188, Note_on_c, 9, 42, 0
8, 157312, Note_on_c, 9, 42, 65
8, 157316, Note_on_c, 9, 42, 0
8, 157440, Note_on_c, 9, 36, 127
8, 157440, Note_on_c, 9, 42, 97
8, 157444, Note_on_c, 9, 36, 0
8, 157448, Note_on_c, 9, 42, 0
8, 157568, Note_on_c, 9, 42, 42
8, 157572, Note_on_c, 9, 42, 0
8, 157696, Note_on_c, 9, 42, 65
8, 157700, Note_on_c, 9, 42, 0
8, 157816, Note_on_c, 9, 42, 97
8, 157824, Note_on_c, 9, 42, 0
8, 157824, Note_on_c, 9, 38, 127
8, 157828, Note_on_c, 9, 38, 0
8, 157952, Note_on_c, 9, 42, 42
8, 157956, Note_on_c, 9, 42, 0
8, 158080, Note_on_c, 9, 42, 65
8, 158084, Note_on_c, 9, 42, 0
8, 158208, Note_on_c, 9, 36, 127
8, 158208, Note_on_c, 9, 42, 97
8, 158212, Note_on_c, 9, 42, 0
8, 158212, Note_on_c, 9, 36, 0
8, 158336, Note_on_c, 9, 42, 42
8, 158340, Note_on_c, 9, 42, 0
8, 158464, Note_on_c, 9, 42, 65
8, 158468, Note_on_c, 9, 42, 0
8, 158588, Note_on_c, 9, 42, 97
8, 158592, Note_on_c, 9, 42, 0
8, 158592, Note_on_c, 9, 38, 127
8, 158596, Note_on_c, 9, 38, 0
8, 158720, Note_on_c, 9, 42, 42
8, 158724, Note_on_c, 9, 42, 0
8, 158848, Note_on_c, 9, 42, 65
8, 158852, Note_on_c, 9, 42, 0
8, 158976, Note_on_c, 9, 36, 127
8, 158976, Note_on_c, 9, 42, 97
8, 158980, Note_on_c, 9, 36, 0
8, 158984, Note_on_c, 9, 42, 0
8, 159104, Note_on_c, 9, 42, 42
8, 159108, Note_on_c, 9, 42, 0
8, 159232, Note_on_c, 9, 36, 127
8, 159232, Note_on_c, 9, 42, 65
8, 159236, Note_on_c, 9, 42, 0
8, 159236, Note_on_c, 9, 36, 0
8, 159352, Note_on_c, 9, 42, 97
8, 159360, Note_on_c, 9, 42, 0
8, 159360, Note_on_c, 9, 38, 127
8, 159364, Note_on_c, 9, 38, 0
8, 159488, Note_on_c, 9, 42, 42
8, 159492, Note_on_c, 9, 42, 0
8, 159616, Note_on_c, 9, 42, 65
8, 159620, Note_on_c, 9, 42, 0
8, 159744, Note_on_c, 9, 36, 127
8, 159744, Note_on_c, 9, 42, 97
8, 159748, Note_on_c, 9, 42, 0
8, 159748, Note_on_c, 9, 36, 0
8, 159872, Note_on_c, 9, 42, 42
8, 159876, Note_on_c, 9, 42, 0
8, 160000, Note_on_c, 9, 42, 65
8, 160004, Note_on_c, 9, 42, 0
8, 160124, Note_on_c, 9, 42, 97
8, 160128, Note_on_c, 9, 42, 0
8, 160128, Note_on_c, 9, 38, 127
8, 160132, Note_on_c, 9, 38, 0
8, 160256, Note_on_c, 9, 42, 42
8, 160260, Note_on_c, 9, 42, 0
8, 160384, Note_on_c, 9, 42, 65
8, 160388, Note_on_c, 9, 42, 0
8, 160512, Note_on_c, 9, 36, 127
8, 160512, Note_on_c, 9, 42, 97
8, 160516, Note_on_c, 9, 36, 0
8, 160520, Note_on_c, 9, 42, 0
8, 160640, Note_on_c, 9, 42, 42
8, 160644, Note_on_c, 9, 42, 0
8, 160768, Note_on_c, 9, 42, 65
8, 160772, Note_on_c, 9, 42, 0
8, 160888, Note_on_c, 9, 42, 97
8, 160896, Note_on_c, 9, 42, 0
8, 160896, Note_on_c, 9, 38, 127
8, 160900, Note_on_c, 9, 38, 0
8, 161024, Note_on_c, 9, 42, 42
8, 161028, Note_on_c, 9, 42, 0
8, 161152, Note_on_c, 9, 42, 65
8, 161156, Note_on_c, 9, 42, 0
8, 161280, Note_on_c, 9, 36, 127
8, 161280, Note_on_c, 9, 42, 97
8, 161284, Note_on_c, 9, 42, 0
8, 161284, Note_on_c, 9, 36, 0
8, 161408, Note_on_c, 9, 42, 42
8, 161412, Note_on_c, 9, 42, 0
8, 161536, Note_on_c, 9, 42, 65
8, 161540, Note_on_c, 9, 42, 0
8, 161660, Note_on_c, 9, 42, 97
8, 161664, Note_on_c, 9, 42, 0
8, 161664, Note_on_c, 9, 38, 127
8, 161668, Note_on_c, 9, 38, 0
8, 161792, Note_on_c, 9, 42, 42
8, 161796, Note_on_c, 9, 42, 0
8, 161920, Note_on_c, 9, 42, 65
8, 161924, Note_on_c, 9, 42, 0
8, 162048, Note_on_c, 9, 36, 127
8, 162048, Note_on_c, 9, 42, 97
8, 162052, Note_on_c, 9, 36, 0
8, 162056, Note_on_c, 9, 42, 0
8, 162176, Note_on_c, 9, 42, 42
8, 162180, Note_on_c, 9, 42, 0
8, 162304, Note_on_c, 9, 36, 127
8, 162304, Note_on_c, 9, 42, 65
8, 162308, Note_on_c, 9, 42, 0
8, 162308, Note_on_c, 9, 36, 0
8, 162424, Note_on_c, 9, 42, 97
8, 162432, Note_on_c, 9, 42, 0
8, 162432, Note_on_c, 9, 38, 127
8, 162436, Note_on_c, 9, 38, 0
8, 162560, Note_on_c, 9, 42, 42
8, 162564, Note_on_c, 9, 42, 0
8, 162688, Note_on_c, 9, 42, 65
8, 162692, Note_on_c, 9, 42, 0
8, 162816, Note_on_c, 9, 36, 127
8, 162816, Note_on_c, 9, 42, 97
8, 162820, Note_on_c, 9, 42, 0
8, 162820, Note_on_c, 9, 36, 0
8, 162944, Note_on_c, 9, 42, 42
8, 162948, Note_on_c, 9, 42, 0
8, 163072, Note_on_c, 9, 42, 65
8, 163076, Note_on_c, 9, 42, 0
8, 163196, Note_on_c, 9, 42, 97
8, 163200, Note_on_c, 9, 42, 0
8, 163200, Note_on_c, 9, 38, 127
8, 163204, Note_on_c, 9, 38, 0
8, 163328, Note_on_c, 9, 42, 42
8, 163332, Note_on_c, 9, 42, 0
8, 163456, Note_on_c, 9, 42, 65
8, 163460, Note_on_c, 9, 42, 0
8, 163584, Note_on_c, 9, 36, 127
8, 163584, Note_on_c, 9, 42, 97
8, 163588, Note_on_c, 9, 36, 0
8, 163592, Note_on_c, 9, 42, 0
8, 163712, Note_on_c, 9, 42, 42
8, 163716, Note_on_c, 9, 42, 0
8, 163840, Note_on_c, 9, 42, 65
8, 163844, Note_on_c, 9, 42, 0
8, 163960, Note_on_c, 9, 42, 97
8, 163968, Note_on_c, 9, 42, 0
8, 163968, Note_on_c, 9, 38, 127
8, 163972, Note_on_c, 9, 38, 0
8, 164096, Note_on_c, 9, 42, 42
8, 164100, Note_on_c, 9, 42, 0
8, 164224, Note_on_c, 9, 42, 65
8, 164228, Note_on_c, 9, 42, 0
8, 164352, Note_on_c, 9, 36, 127
8, 164352, Note_on_c, 9, 42, 97
8, 164356, Note_on_c, 9, 42, 0
8, 164356, Note_on_c, 9, 36, 0
8, 164480, Note_on_c, 9, 42, 42
8, 164484, Note_on_c, 9, 42, 0
8, 164608, Note_on_c, 9, 42, 65
8, 164612, Note_on_c, 9, 42, 0
8, 164732, Note_on_c, 9, 42, 97
8, 164736, Note_on_c, 9, 42, 0
8, 164736, Note_on_c, 9, 38, 127
8, 164740, Note_on_c, 9, 38, 0
8, 164864, Note_on_c, 9, 42, 42
8, 164868, Note_on_c, 9, 42, 0
8, 164992, Note_on_c, 9, 42, 65
8, 164996, Note_on_c, 9, 42, 0
8, 165120, Note_on_c, 9, 36, 127
8, 165120, Note_on_c, 9, 42, 97
8, 165124, Note_on_c, 9, 36, 0
8, 165128, Note_on_c, 9, 42, 0
8, 165248, Note_on_c, 9, 42, 42
8, 165252, Note_on_c, 9, 42, 0
8, 165376, Note_on_c, 9, 36, 127
8, 165376, Note_on_c, 9, 42, 65
8, 165380, Note_on_c, 9, 42, 0
8, 165380, Note_on_c, 9, 36, 0
8, 165496, Note_on_c, 9, 42, 97
8, 165504, Note_on_c, 9, 42, 0
8, 165504, Note_on_c, 9, 38, 127
8, 165508, Note_on_c, 9, 38, 0
8, 165632, Note_on_c, 9, 42, 42
8, 165636, Note_on_c, 9, 42, 0
8, 165760, Note_on_c, 9, 42, 65
8, 165764, Note_on_c, 9, 42, 0
8, 165888, Note_on_c, 9, 36, 127
8, 165888, Note_on_c, 9, 42, 97
8, 165892, Note_on_c, 9, 42, 0
8, 165892, Note_on_c, 9, 36, 0
8, 166016, Note_on_c, 9, 42, 42
8, 166020, Note_on_c, 9, 42, 0
8, 166144, Note_on_c, 9, 42, 65
8, 166148, Note_on_c, 9, 42, 0
8, 166268, Note_on_c, 9, 42, 97
8, 166272, Note_on_c, 9, 42, 0
8, 166272, Note_on_c, 9, 38, 127
8, 166276, Note_on_c, 9, 38, 0
8, 166400, Note_on_c, 9, 42, 42
8, 166404, Note_on_c, 9, 42, 0
8, 166528, Note_on_c, 9, 42, 65
8, 166532, Note_on_c, 9, 42, 0
8, 166656, Note_on_c, 9, 36, 127
8, 166656, Note_on_c, 9, 42, 97
8, 166660, Note_on_c, 9, 36, 0
8, 166664, Note_on_c, 9, 42, 0
8, 166784, Note_on_c, 9, 42, 42
8, 166788, Note_on_c, 9, 42, 0
8, 166912, Note_on_c, 9, 42, 65
8, 166916, Note_on_c, 9, 42, 0
8, 167032, Note_on_c, 9, 42, 97
8, 167040, Note_on_c, 9, 42, 0
8, 167040, Note_on_c, 9, 38, 127
8, 167044, Note_on_c, 9, 38, 0
8, 167168, Note_on_c, 9, 42, 42
8, 167172, Note_on_c, 9, 42, 0
8, 167296, Note_on_c, 9, 42, 65
8, 167300, Note_on_c, 9, 42, 0
8, 167424, Note_on_c, 9, 36, 127
8, 167424, Note_on_c, 9, 42, 97
8, 167428, Note_on_c, 9, 42, 0
8, 167428, Note_on_c, 9, 36, 0
8, 167552, Note_on_c, 9, 42, 42
8, 167556, Note_on_c, 9, 42, 0
8, 167680, Note_on_c, 9, 42, 65
8, 167684, Note_on_c, 9, 42, 0
8, 167804, Note_on_c, 9, 42, 97
8, 167808, Note_on_c, 9, 42, 0
8, 167808, Note_on_c, 9, 38, 127
8, 167812, Note_on_c, 9, 38, 0
8, 167936, Note_on_c, 9, 42, 42
8, 167940, Note_on_c, 9, 42, 0
8, 168064, Note_on_c, 9, 42, 65
8, 168068, Note_on_c, 9, 42, 0
8, 168192, Note_on_c, 9, 36, 127
8, 168192, Note_on_c, 9, 42, 97
8, 168196, Note_on_c, 9, 36, 0
8, 168200, Note_on_c, 9, 42, 0
8, 168320, Note_on_c, 9, 42, 42
8, 168320, Note_on_c, 9, 47, 127
8, 168324, Note_on_c, 9, 47, 0
8, 168324, Note_on_c, 9, 42, 0
8, 168448, Note_on_c, 9, 36, 127
8, 168448, Note_on_c, 9, 42, 65
8, 168448, Note_on_c, 9, 47, 127
8, 168452, Note_on_c, 9, 47, 0
8, 168452, Note_on_c, 9, 42, 0
8, 168452, Note_on_c, 9, 36, 0
8, 168568, Note_on_c, 9, 42, 97
8, 168576, Note_on_c, 9, 42, 0
8, 168576, Note_on_c, 9, 38, 127
8, 168576, Note_on_c, 9, 50, 127
8, 168580, Note_on_c, 9, 50, 0
8, 168580, Note_on_c, 9, 38, 0
8, 168704, Note_on_c, 9, 42, 42
8, 168704, Note_on_c, 9, 47, 127
8, 168708, Note_on_c, 9, 47, 0
8, 168708, Note_on_c, 9, 42, 0
8, 168832, Note_on_c, 9, 42, 65
8, 168832, Note_on_c, 9, 43, 127
8, 168836, Note_on_c, 9, 43, 0
8, 168836, Note_on_c, 9, 42, 0
8, 168960, Note_on_c, 9, 36, 127
8, 168960, Note_on_c, 9, 42, 97
8, 168960, Note_on_c, 9, 49, 127
8, 168964, Note_on_c, 9, 49, 0
8, 168964, Note_on_c, 9, 42, 0
8, 168964, Note_on_c, 9, 36, 0
8, 169088, Note_on_c, 9, 42, 42
8, 169092, Note_on_c, 9, 42, 0
8, 169216, Note_on_c, 9, 42, 65
8, 169220, Note_on_c, 9, 42, 0
8, 169340, Note_on_c, 9, 42, 97
8, 169344, Note_on_c, 9, 42, 0
8, 169344, Note_on_c, 9, 38, 127
8, 169348, Note_on_c, 9, 38, 0
8, 169472, Note_on_c, 9, 42, 42
8, 169476, Note_on_c, 9, 42, 0
8, 169600, Note_on_c, 9, 42, 65
8, 169604, Note_on_c, 9, 42, 0
8, 169728, Note_on_c, 9, 36, 127
8, 169728, Note_on_c, 9, 42, 97
8, 169732, Note_on_c, 9, 36, 0
8, 169736, Note_on_c, 9, 42, 0
8, 169856, Note_on_c, 9, 42, 42
8, 169860, Note_on_c, 9, 42, 0
8, 169984, Note_on_c, 9, 42, 65
8, 169988, Note_on_c, 9, 42, 0
8, 170104, Note_on_c, 9, 42, 97
8, 170112, Note_on_c, 9, 42, 0
8, 170112, Note_on_c, 9, 38, 127
8, 170116, Note_on_c, 9, 38, 0
8, 170240, Note_on_c, 9, 42, 42
8, 170244, Note_on_c, 9, 42, 0
8, 170368, Note_on_c, 9, 42, 65
8, 170372, Note_on_c, 9, 42, 0
8, 170496, Note_on_c, 9, 36, 127
8, 170496, Note_on_c, 9, 42, 97
8, 170500, Note_on_c, 9, 42, 0
8, 170500, Note_on_c, 9, 36, 0
8, 170624, Note_on_c, 9, 42, 42
8, 170628, Note_on_c, 9, 42, 0
8, 170752, Note_on_c, 9, 42, 65
8, 170756, Note_on_c, 9, 42, 0
8, 170876, Note_on_c, 9, 42, 97
8, 170880, Note_on_c, 9, 42, 0
8, 170880, Note_on_c, 9, 38, 127
8, 170884, Note_on_c, 9, 38, 0
8, 171008, Note_on_c, 9, 42, 42
8, 171012, Note_on_c, 9, 42, 0
8, 171136, Note_on_c, 9, 42, 65
8, 171140, Note_on_c, 9, 42, 0
8, 171264, Note_on_c, 9, 36, 127
8, 171264, Note_on_c, 9, 42, 97
8, 171268, Note_on_c, 9, 36, 0
8, 171272, Note_on_c, 9, 42, 0
8, 171392, Note_on_c, 9, 42, 42
8, 171396, Note_on_c, 9, 42, 0
8, 171520, Note_on_c, 9, 36, 127
8, 171520, Note_on_c, 9, 42, 65
8, 171524, Note_on_c, 9, 42, 0
8, 171524, Note_on_c, 9, 36, 0
8, 171640, Note_on_c, 9, 42, 97
8, 171648, Note_on_c, 9, 42, 0
8, 171648, Note_on_c, 9, 38, 127
8, 171652, Note_on_c, 9, 38, 0
8, 171776, Note_on_c, 9, 42, 42
8, 171780, Note_on_c, 9, 42, 0
8, 171904, Note_on_c, 9, 42, 65
8, 171908, Note_on_c, 9, 42, 0
8, 172032, Note_on_c, 9, 36, 127
8, 172032, Note_on_c, 9, 42, 97
8, 172036, Note_on_c, 9, 42, 0
8, 172036, Note_on_c, 9, 36, 0
8, 172160, Note_on_c, 9, 42, 42
8, 172160, Note_on_c, 9, 39, 105
8, 172164, Note_on_c, 9, 39, 0
8, 172164, Note_on_c, 9, 42, 0
8, 172288, Note_on_c, 9, 42, 65
8, 172288, Note_on_c, 9, 39, 115
8, 172292, Note_on_c, 9, 39, 0
8, 172292, Note_on_c, 9, 42, 0
8, 172412, Note_on_c, 9, 42, 97
8, 172416, Note_on_c, 9, 42, 0
8, 172416, Note_on_c, 9, 38, 127
8, 172416, Note_on_c, 9, 39, 125
8, 172420, Note_on_c, 9, 39, 0
8, 172420, Note_on_c, 9, 38, 0
8, 172544, Note_on_c, 9, 42, 42
8, 172548, Note_on_c, 9, 42, 0
8, 172672, Note_on_c, 9, 42, 65
8, 172676, Note_on_c, 9, 42, 0
8, 172800, Note_on_c, 9, 36, 127
8, 172800, Note_on_c, 9, 42, 97
8, 172804, Note_on_c, 9, 36, 0
8, 172808, Note_on_c, 9, 42, 0
8, 172928, Note_on_c, 9, 42, 42
8, 172932, Note_on_c, 9, 42, 0
8, 173056, Note_on_c, 9, 42, 65
8, 173060, Note_on_c, 9, 42, 0
8, 173176, Note_on_c, 9, 42, 97
8, 173184, Note_on_c, 9, 42, 0
8, 173184, Note_on_c, 9, 38, 127
8, 173188, Note_on_c, 9, 38, 0
8, 173312, Note_on_c, 9, 42, 42
8, 173316, Note_on_c, 9, 42, 0
8, 173440, Note_on_c, 9, 42, 65
8, 173444, Note_on_c, 9, 42, 0
8, 173568, Note_on_c, 9, 36, 127
8, 173568, Note_on_c, 9, 42, 97
8, 173572, Note_on_c, 9, 42, 0
8, 173572, Note_on_c, 9, 36, 0
8, 173696, Note_on_c, 9, 42, 42
8, 173700, Note_on_c, 9, 42, 0
8, 173824, Note_on_c, 9, 42, 65
8, 173828, Note_on_c, 9, 42, 0
8, 173948, Note_on_c, 9, 42, 97
8, 173952, Note_on_c, 9, 42, 0
8, 173952, Note_on_c, 9, 38, 127
8, 173956, Note_on_c, 9, 38, 0
8, 174080, Note_on_c, 9, 42, 42
8, 174084, Note_on_c, 9, 42, 0
8, 174208, Note_on_c, 9, 42, 65
8, 174212, Note_on_c, 9, 42, 0
8, 174336, Note_on_c, 9, 36, 127
8, 174336, Note_on_c, 9, 42, 97
8, 174340, Note_on_c, 9, 36, 0
8, 174344, Note_on_c, 9, 42, 0
8, 174464, Note_on_c, 9, 42, 42
8, 174468, Note_on_c, 9, 42, 0
8, 174592, Note_on_c, 9, 36, 127
8, 174592, Note_on_c, 9, 42, 65
8, 174596, Note_on_c, 9, 42, 0
8, 174596, Note_on_c, 9, 36, 0
8, 174712, Note_on_c, 9, 42, 97
8, 174720, Note_on_c, 9, 42, 0
8, 174720, Note_on_c, 9, 38, 127
8, 174724, Note_on_c, 9, 38, 0
8, 174848, Note_on_c, 9, 42, 42
8, 174852, Note_on_c, 9, 42, 0
8, 174976, Note_on_c, 9, 42, 65
8, 174980, Note_on_c, 9, 42, 0
8, 175104, Note_on_c, 9, 36, 127
8, 175104, Note_on_c, 9, 42, 97
8, 175104, Note_on_c, 9, 49, 127
8, 175108, Note_on_c, 9, 49, 0
8, 175108, Note_on_c, 9, 42, 0
8, 175108, Note_on_c, 9, 36, 0
8, 175232, Note_on_c, 9, 42, 42
8, 175236, Note_on_c, 9, 42, 0
8, 175360, Note_on_c, 9, 42, 65
8, 175364, Note_on_c, 9, 42, 0
8, 175484, Note_on_c, 9, 42, 97
8, 175488, Note_on_c, 9, 42, 0
8, 175488, Note_on_c, 9, 38, 127
8, 175492, Note_on_c, 9, 38, 0
8, 175616, Note_on_c, 9, 42, 42
8, 175620, Note_on_c, 9, 42, 0
8, 175744, Note_on_c, 9, 42, 65
8, 175748, Note_on_c, 9, 42, 0
8, 175872, Note_on_c, 9, 36, 127
8, 175872, Note_on_c, 9, 42, 97
8, 175876, Note_on_c, 9, 36, 0
8, 175880, Note_on_c, 9, 42, 0
8, 176000, Note_on_c, 9, 42, 42
8, 176004, Note_on_c, 9, 42, 0
8, 176128, Note_on_c, 9, 42, 65
8, 176132, Note_on_c, 9, 42, 0
8, 176248, Note_on_c, 9, 42, 97
8, 176256, Note_on_c, 9, 42, 0
8, 176256, Note_on_c, 9, 38, 127
8, 176260, Note_on_c, 9, 38, 0
8, 176384, Note_on_c, 9, 42, 42
8, 176388, Note_on_c, 9, 42, 0
8, 176512, Note_on_c, 9, 42, 65
8, 176516, Note_on_c, 9, 42, 0
8, 176640, Note_on_c, 9, 36, 127
8, 176640, Note_on_c, 9, 42, 97
8, 176644, Note_on_c, 9, 42, 0
8, 176644, Note_on_c, 9, 36, 0
8, 176768, Note_on_c, 9, 42, 42
8, 176772, Note_on_c, 9, 42, 0
8, 176896, Note_on_c, 9, 42, 65
8, 176900, Note_on_c, 9, 42, 0
8, 177020, Note_on_c, 9, 42, 97
8, 177024, Note_on_c, 9, 42, 0
8, 177024, Note_on_c, 9, 38, 127
8, 177028, Note_on_c, 9, 38, 0
8, 177152, Note_on_c, 9, 42, 42
8, 177156, Note_on_c, 9, 42, 0
8, 177280, Note_on_c, 9, 42, 65
8, 177284, Note_on_c, 9, 42, 0
8, 177408, Note_on_c, 9, 36, 127
8, 177408, Note_on_c, 9, 42, 97
8, 177412, Note_on_c, 9, 36, 0
8, 177416, Note_on_c, 9, 42, 0
8, 177536, Note_on_c, 9, 42, 42
8, 177540, Note_on_c, 9, 42, 0
8, 177664, Note_on_c, 9, 36, 127
8, 177664, Note_on_c, 9, 42, 65
8, 177668, Note_on_c, 9, 42, 0
8, 177668, Note_on_c, 9, 36, 0
8, 177784, Note_on_c, 9, 42, 97
8, 177792, Note_on_c, 9, 42, 0
8, 177792, Note_on_c, 9, 38, 127
8, 177796, Note_on_c, 9, 38, 0
8, 177920, Note_on_c, 9, 42, 42
8, 177924, Note_on_c, 9, 42, 0
8, 178048, Note_on_c, 9, 42, 65
8, 178052, Note_on_c, 9, 42, 0
8, 178176, Note_on_c, 9, 36, 127
8, 178176, Note_on_c, 9, 42, 97
8, 178180, Note_on_c, 9, 42, 0
8, 178180, Note_on_c, 9, 36, 0
8, 178304, Note_on_c, 9, 42, 42
8, 178304, Note_on_c, 9, 39, 105
8, 178308, Note_on_c, 9, 39, 0
8, 178308, Note_on_c, 9, 42, 0
8, 178432, Note_on_c, 9, 42, 65
8, 178432, Note_on_c, 9, 39, 115
8, 178436, Note_on_c, 9, 39, 0
8, 178436, Note_on_c, 9, 42, 0
8, 178556, Note_on_c, 9, 42, 97
8, 178560, Note_on_c, 9, 42, 0
8, 178560, Note_on_c, 9, 38, 127
8, 178560, Note_on_c, 9, 39, 125
8, 178564, Note_on_c, 9, 39, 0
8, 178564, Note_on_c, 9, 38, 0
8, 178688, Note_on_c, 9, 42, 42
8, 178692, Note_on_c, 9, 42, 0
8, 178816, Note_on_c, 9, 42, 65
8, 178820, Note_on_c, 9, 42, 0
8, 178944, Note_on_c, 9, 36, 127
8, 178944, Note_on_c, 9, 42, 97
8, 178948, Note_on_c, 9, 36, 0
8, 178952, Note_on_c, 9, 42, 0
8, 179072, Note_on_c, 9, 42, 42
8, 179076, Note_on_c, 9, 42, 0
8, 179200, Note_on_c, 9, 42, 65
8, 179204, Note_on_c, 9, 42, 0
8, 179320, Note_on_c, 9, 42, 97
8, 179328, Note_on_c, 9, 42, 0
8, 179328, Note_on_c, 9, 38, 127
8, 179332, Note_on_c, 9, 38, 0
8, 179456, Note_on_c, 9, 42, 42
8, 179460, Note_on_c, 9, 42, 0
8, 179584, Note_on_c, 9, 42, 65
8, 179588, Note_on_c, 9, 42, 0
8, 179712, Note_on_c, 9, 36, 127
8, 179712, Note_on_c, 9, 42, 97
8, 179716, Note_on_c, 9, 42, 0
8, 179716, Note_on_c, 9, 36, 0
8, 179840, Note_on_c, 9, 42, 42
8, 179844, Note_on_c, 9, 42, 0
8, 179968, Note_on_c, 9, 42, 65
8, 179972, Note_on_c, 9, 42, 0
8, 180092, Note_on_c, 9, 42, 97
8, 180096, Note_on_c, 9, 42, 0
8, 180096, Note_on_c, 9, 38, 127
8, 180100, Note_on_c, 9, 38, 0
8, 180224, Note_on_c, 9, 42, 42
8, 180228, Note_on_c, 9, 42, 0
8, 180352, Note_on_c, 9, 42, 65
8, 180356, Note_on_c, 9, 42, 0
8, 180480, Note_on_c, 9, 36, 127
8, 180480, Note_on_c, 9, 42, 97
8, 180484, Note_on_c, 9, 36, 0
8, 180488, Note_on_c, 9, 42, 0
8, 180608, Note_on_c, 9, 42, 42
8, 180612, Note_on_c, 9, 42, 0
8, 180736, Note_on_c, 9, 36, 127
8, 180736, Note_on_c, 9, 42, 65
8, 180740, Note_on_c, 9, 42, 0
8, 180740, Note_on_c, 9, 36, 0
8, 180856, Note_on_c, 9, 42, 97
8, 180864, Note_on_c, 9, 42, 0
8, 180864, Note_on_c, 9, 38, 127
8, 180868, Note_on_c, 9, 38, 0
8, 180992, Note_on_c, 9, 42, 42
8, 180996, Note_on_c, 9, 42, 0
8, 181120, Note_on_c, 9, 42, 65
8, 181124, Note_on_c, 9, 42, 0
8, 181248, Note_on_c, 9, 36, 127
8, 181248, Note_on_c, 9, 42, 97
8, 181248, Note_on_c, 9, 49, 127
8, 181252, Note_on_c, 9, 49, 0
8, 181252, Note_on_c, 9, 42, 0
8, 181252, Note_on_c, 9, 36, 0
8, 181376, Note_on_c, 9, 42, 42
8, 181380, Note_on_c, 9, 42, 0
8, 181504, Note_on_c, 9, 42, 65
8, 181508, Note_on_c, 9, 42, 0
8, 181628, Note_on_c, 9, 42, 97
8, 181632, Note_on_c, 9, 42, 0
8, 181632, Note_on_c, 9, 38, 127
8, 181636, Note_on_c, 9, 38, 0
8, 181760, Note_on_c, 9, 42, 42
8, 181764, Note_on_c, 9, 42, 0
8, 181888, Note_on_c, 9, 42, 65
8, 181892, Note_on_c, 9, 42, 0
8, 182016, Note_on_c, 9, 36, 127
8, 182016, Note_on_c, 9, 42, 97
8, 182020, Note_on_c, 9, 36, 0
8, 182024, Note_on_c, 9, 42, 0
8, 182144, Note_on_c, 9, 42, 42
8, 182148, Note_on_c, 9, 42, 0
8, 182272, Note_on_c, 9, 42, 65
8, 182276, Note_on_c, 9, 42, 0
8, 182392, Note_on_c, 9, 42, 97
8, 182400, Note_on_c, 9, 42, 0
8, 182400, Note_on_c, 9, 38, 127
8, 182404, Note_on_c, 9, 38, 0
8, 182528, Note_on_c, 9, 42, 42
8, 182532, Note_on_c, 9, 42, 0
8, 182656, Note_on_c, 9, 42, 65
8, 182660, Note_on_c, 9, 42, 0
8, 182784, Note_on_c, 9, 36, 127
8, 182784, Note_on_c, 9, 42, 97
8, 182788, Note_on_c, 9, 42, 0
8, 182788, Note_on_c, 9, 36, 0
8, 182912, Note_on_c, 9, 42, 42
8, 182916, Note_on_c, 9, 42, 0
8, 183040, Note_on_c, 9, 42, 65
8, 183044, Note_on_c, 9, 42, 0
8, 183164, Note_on_c, 9, 42, 97
8, 183168, Note_on_c, 9, 42, 0
8, 183168, Note_on_c, 9, 38, 127
8, 183172, Note_on_c, 9, 38, 0
8, 183296, Note_on_c, 9, 42, 42
8, 183300, Note_on_c, 9, 42, 0
8, 183424, Note_on_c, 9, 42, 65
8, 183428, Note_on_c, 9, 42, 0
8, 183552, Note_on_c, 9, 36, 127
8, 183552, Note_on_c, 9, 42, 97
8, 183556, Note_on_c, 9, 36, 0
8, 183560, Note_on_c, 9, 42, 0
8, 183680, Note_on_c, 9, 42, 42
8, 183684, Note_on_c, 9, 42, 0
8, 183808, Note_on_c, 9, 36, 127
8, 183808, Note_on_c, 9, 42, 65
8, 183812, Note_on_c, 9, 42, 0
8, 183812, Note_on_c, 9, 36, 0
8, 183928, Note_on_c, 9, 42, 97
8, 183936, Note_on_c, 9, 42, 0
8, 183936, Note_on_c, 9, 38, 127
8, 183940, Note_on_c, 9, 38, 0
8, 184064, Note_on_c, 9, 42, 42
8, 184068, Note_on_c, 9, 42, 0
8, 184192, Note_on_c, 9, 42, 65
8, 184196, Note_on_c, 9, 42, 0
8, 184320, Note_on_c, 9, 36, 127
8, 184320, Note_on_c, 9, 42, 97
8, 184324, Note_on_c, 9, 42, 0
8, 184324, Note_on_c, 9, 36, 0
8, 184448, Note_on_c, 9, 42, 42
8, 184448, Note_on_c, 9, 39, 105
8, 184452, Note_on_c, 9, 39, 0
8, 184452, Note_on_c, 9, 42, 0
8, 184576, Note_on_c, 9, 42, 65
8, 184576, Note_on_c, 9, 39, 115
8, 184580, Note_on_c, 9, 39, 0
8, 184580, Note_on_c, 9, 42, 0
8, 184700, Note_on_c, 9, 42, 97
8, 184704, Note_on_c, 9, 42, 0
8, 184704, Note_on_c, 9, 38, 127
8, 184704, Note_on_c, 9, 39, 125
8, 184708, Note_on_c, 9, 39, 0
8, 184708, Note_on_c, 9, 38, 0
8, 184832, Note_on_c, 9, 42, 42
8, 184836, Note_on_c, 9, 42, 0
8, 184960, Note_on_c, 9, 42, 65
8, 184964, Note_on_c, 9, 42, 0
8, 185088, Note_on_c, 9, 36, 127
8, 185088, Note_on_c, 9, 42, 97
8, 185092, Note_on_c, 9, 36, 0
8, 185096, Note_on_c, 9, 42, 0
8, 185216, Note_on_c, 9, 42, 42
8, 185220, Note_on_c, 9, 42, 0
8, 185344, Note_on_c, 9, 42, 65
8, 185348, Note_on_c, 9, 42, 0
8, 185464, Note_on_c, 9, 42, 97
8, 185472, Note_on_c, 9, 42, 0
8, 185472, Note_on_c, 9, 38, 127
8, 185476, Note_on_c, 9, 38, 0
8, 185600, Note_on_c, 9, 42, 42
8, 185604, Note_on_c, 9, 42, 0
8, 185728, Note_on_c, 9, 42, 65
8, 185732, Note_on_c, 9, 42, 0
8, 185856, Note_on_c, 9, 36, 127
8, 185856, Note_on_c, 9, 42, 97
8, 185860, Note_on_c, 9, 42, 0
8, 185860, Note_on_c, 9, 36, 0
8, 185984, Note_on_c, 9, 42, 42
8, 185988, Note_on_c, 9, 42, 0
8, 186112, Note_on_c, 9, 42, 65
8, 186116, Note_on_c, 9, 42, 0
8, 186236, Note_on_c, 9, 42, 97
8, 186240, Note_on_c, 9, 42, 0
8, 186240, Note_on_c, 9, 38, 127
8, 186244, Note_on_c, 9, 38, 0
8, 186368, Note_on_c, 9, 42, 42
8, 186372, Note_on_c, 9, 42, 0
8, 186496, Note_on_c, 9, 42, 65
8, 186500, Note_on_c, 9, 42, 0
8, 186624, Note_on_c, 9, 36, 127
8, 186624, Note_on_c, 9, 42, 97
8, 186628, Note_on_c, 9, 36, 0
8, 186632, Note_on_c, 9, 42, 0
8, 186752, Note_on_c, 9, 42, 42
8, 186756, Note_on_c, 9, 42, 0
8, 186880, Note_on_c, 9, 36, 127
8, 186880, Note_on_c, 9, 42, 65
8, 186884, Note_on_c, 9, 42, 0
8, 186884, Note_on_c, 9, 36, 0
8, 187000, Note_on_c, 9, 42, 97
8, 187008, Note_on_c, 9, 42, 0
8, 187008, Note_on_c, 9, 38, 127
8, 187012, Note_on_c, 9, 38, 0
8, 187136, Note_on_c, 9, 42, 42
8, 187140, Note_on_c, 9, 42, 0
8, 187264, Note_on_c, 9, 42, 65
8, 187268, Note_on_c, 9, 42, 0
8, 187392, Note_on_c, 9, 36, 127
8, 187392, Note_on_c, 9, 42, 97
8, 187392, Note_on_c, 9, 49, 127
8, 187396, Note_on_c, 9, 49, 0
8, 187396, Note_on_c, 9, 42, 0
8, 187396, Note_on_c, 9, 36, 0
8, 187520, Note_on_c, 9, 42, 42
8, 187524, Note_on_c, 9, 42, 0
8, 187648, Note_on_c, 9, 42, 65
8, 187652, Note_on_c, 9, 42, 0
8, 187772, Note_on_c, 9, 42, 97
8, 187776, Note_on_c, 9, 42, 0
8, 187776, Note_on_c, 9, 38, 127
8, 187780, Note_on_c, 9, 38, 0
8, 187904, Note_on_c, 9, 42, 42
8, 187908, Note_on_c, 9, 42, 0
8, 188032, Note_on_c, 9, 42, 65
8, 188036, Note_on_c, 9, 42, 0
8, 188160, Note_on_c, 9, 36, 127
8, 188160, Note_on_c, 9, 42, 97
8, 188164, Note_on_c, 9, 36, 0
8, 188168, Note_on_c, 9, 42, 0
8, 188288, Note_on_c, 9, 42, 42
8, 188292, Note_on_c, 9, 42, 0
8, 188416, Note_on_c, 9, 42, 65
8, 188420, Note_on_c, 9, 42, 0
8, 188536, Note_on_c, 9, 42, 97
8, 188544, Note_on_c, 9, 42, 0
8, 188544, Note_on_c, 9, 38, 127
8, 188548, Note_on_c, 9, 38, 0
8, 188672, Note_on_c, 9, 42, 42
8, 188676, Note_on_c, 9, 42, 0
8, 188800, Note_on_c, 9, 42, 65
8, 188804, Note_on_c, 9, 42, 0
8, 188928, Note_on_c, 9, 36, 127
8, 188928, Note_on_c, 9, 42, 97
8, 188932, Note_on_c, 9, 42, 0
8, 188932, Note_on_c, 9, 36, 0
8, 189056, Note_on_c, 9, 42, 42
8, 189060, Note_on_c, 9, 42, 0
8, 189184, Note_on_c, 9, 42, 65
8, 189188, Note_on_c, 9, 42, 0
8, 189308, Note_on_c, 9, 42, 97
8, 189312, Note_on_c, 9, 42, 0
8, 189312, Note_on_c, 9, 38, 127
8, 189316, Note_on_c, 9, 38, 0
8, 189440, Note_on_c, 9, 42, 42
8, 189444, Note_on_c, 9, 42, 0
8, 189568, Note_on_c, 9, 42, 65
8, 189572, Note_on_c, 9, 42, 0
8, 189696, Note_on_c, 9, 36, 127
8, 189696, Note_on_c, 9, 42, 97
8, 189700, Note_on_c, 9, 36, 0
8, 189704, Note_on_c, 9, 42, 0
8, 189824, Note_on_c, 9, 42, 42
8, 189828, Note_on_c, 9, 42, 0
8, 189952, Note_on_c, 9, 36, 127
8, 189952, Note_on_c, 9, 42, 65
8, 189956, Note_on_c, 9, 42, 0
8, 189956, Note_on_c, 9, 36, 0
8, 190072, Note_on_c, 9, 42, 97
8, 190080, Note_on_c, 9, 42, 0
8, 190080, Note_on_c, 9, 38, 127
8, 190084, Note_on_c, 9, 38, 0
8, 190208, Note_on_c, 9, 42, 42
8, 190212, Note_on_c, 9, 42, 0
8, 190336, Note_on_c, 9, 42, 65
8, 190340, Note_on_c, 9, 42, 0
8, 190464, Note_on_c, 9, 36, 127
8, 190464, Note_on_c, 9, 42, 97
8, 190468, Note_on_c, 9, 42, 0
8, 190468, Note_on_c, 9, 36, 0
8, 190592, Note_on_c, 9, 42, 42
8, 190592, Note_on_c, 9, 39, 105
8, 190596, Note_on_c, 9, 39, 0
8, 190596, Note_on_c, 9, 42, 0
8, 190720, Note_on_c, 9, 42, 65
8, 190720, Note_on_c, 9, 39, 115
8, 190724, Note_on_c, 9, 39, 0
8, 190724, Note_on_c, 9, 42, 0
8, 190844, Note_on_c, 9, 42, 97
8, 190848, Note_on_c, 9, 42, 0
8, 190848, Note_on_c, 9, 38, 127
8, 190848, Note_on_c, 9, 39, 125
8, 190852, Note_on_c, 9, 39, 0
8, 190852, Note_on_c, 9, 38, 0
8, 190976, Note_on_c, 9, 42, 42
8, 190980, Note_on_c, 9, 42, 0
8, 191104, Note_on_c, 9, 42, 65
8, 191108, Note_on_c, 9, 42, 0
8, 191232, Note_on_c, 9, 36, 127
8, 191232, Note_on_c, 9, 42, 97
8, 191236, Note_on_c, 9, 36, 0
8, 191240, Note_on_c, 9, 42, 0
8, 191360, Note_on_c, 9, 42, 42
8, 191364, Note_on_c, 9, 42, 0
8, 191488, Note_on_c, 9, 42, 65
8, 191492, Note_on_c, 9, 42, 0
8, 191608, Note_on_c, 9, 42, 97
8, 191616, Note_on_c, 9, 42, 0
8, 191616, Note_on_c, 9, 38, 127
8, 191620, Note_on_c, 9, 38, 0
8, 191744, Note_on_c, 9, 42, 42
8, 191748, Note_on_c, 9, 42, 0
8, 191872, Note_on_c, 9, 42, 65
8, 191876, Note_on_c, 9, 42, 0
8, 192000, Note_on_c, 9, 36, 127
8, 192000, Note_on_c, 9, 42, 97
8, 192004, Note_on_c, 9, 42, 0
8, 192004, Note_on_c, 9, 36, 0
8, 192128, Note_on_c, 9, 42, 42
8, 192132, Note_on_c, 9, 42, 0
8, 192256, Note_on_c, 9, 42, 65
8, 192260, Note_on_c, 9, 42, 0
8, 192380, Note_on_c, 9, 42, 97
8, 192384, Note_on_c, 9, 42, 0
8, 192384, Note_on_c, 9, 38, 127
8, 192388, Note_on_c, 9, 38, 0
8, 192512, Note_on_c, 9, 42, 42
8, 192516, Note_on_c, 9, 42, 0
8, 192640, Note_on_c, 9, 42, 65
8, 192644, Note_on_c, 9, 42, 0
8, 192768, Note_on_c, 9, 36, 127
8, 192768, Note_on_c, 9, 42, 97
8, 192772, Note_on_c, 9, 36, 0
8, 192776, Note_on_c, 9, 42, 0
8, 192896, Note_on_c, 9, 42, 42
8, 192900, Note_on_c, 9, 42, 0
8, 193024, Note_on_c, 9, 36, 127
8, 193024, Note_on_c, 9, 42, 65
8, 193028, Note_on_c, 9, 42, 0
8, 193028, Note_on_c, 9, 36, 0
8, 193144, Note_on_c, 9, 42, 97
8, 193152, Note_on_c, 9, 42, 0
8, 193152, Note_on_c, 9, 38, 127
8, 193156, Note_on_c, 9, 38, 0
8, 193280, Note_on_c, 9, 42, 42
8, 193284, Note_on_c, 9, 42, 0
8, 193408, Note_on_c, 9, 42, 65
8, 193412, Note_on_c, 9, 42, 0
8, 193536, Note_on_c, 9, 36, 127
8, 193536, Note_on_c, 9, 42, 97
8, 193536, Note_on_c, 9, 43, 127
8, 193540, Note_on_c, 9, 43, 0
8, 193540, Note_on_c, 9, 42, 0
8, 193540, Note_on_c, 9, 36, 0
8, 193664, Note_on_c, 9, 42, 42
8, 193668, Note_on_c, 9, 42, 0
8, 193792, Note_on_c, 9, 42, 65
8, 193796, Note_on_c, 9, 42, 0
8, 193916, Note_on_c, 9, 42, 97
8, 193920, Note_on_c, 9, 42, 0
8, 193920, Note_on_c, 9, 38, 127
8, 193924, Note_on_c, 9, 38, 0
8, 194048, Note_on_c, 9, 42, 42
8, 194052, Note_on_c, 9, 42, 0
8, 194176, Note_on_c, 9, 42, 65
8, 194180, Note_on_c, 9, 42, 0
8, 194304, Note_on_c, 9, 36, 127
8, 194304, Note_on_c, 9, 42, 97
8, 194308, Note_on_c, 9, 36, 0
8, 194312, Note_on_c, 9, 42, 0
8, 194432, Note_on_c, 9, 42, 42
8, 194432, Note_on_c, 9, 50, 127
8, 194436, Note_on_c, 9, 50, 0
8, 194436, Note_on_c, 9, 42, 0
8, 194560, Note_on_c, 9, 42, 65
8, 194560, Note_on_c, 9, 47, 127
8, 194564, Note_on_c, 9, 47, 0
8, 194564, Note_on_c, 9, 42, 0
8, 194680, Note_on_c, 9, 42, 97
8, 194688, Note_on_c, 9, 42, 0
8, 194688, Note_on_c, 9, 38, 127
8, 194688, Note_on_c, 9, 43, 127
8, 194692, Note_on_c, 9, 43, 0
8, 194692, Note_on_c, 9, 38, 0
8, 194816, Note_on_c, 9, 42, 42
8, 194816, Note_on_c, 9, 47, 127
8, 194820, Note_on_c, 9, 47, 0
8, 194820, Note_on_c, 9, 42, 0
8, 194944, Note_on_c, 9, 42, 65
8, 194944, Note_on_c, 9, 43, 127
8, 194948, Note_on_c, 9, 43, 0
8, 194948, Note_on_c, 9, 42, 0
8, 195072, Note_on_c, 9, 36, 127
8, 195072, Note_on_c, 9, 42, 97
8, 195072, Note_on_c, 9, 49, 127
8, 195076, Note_on_c, 9, 49, 0
8, 195076, Note_on_c, 9, 42, 0
8, 195076, Note_on_c, 9, 36, 0
8, 195076, End_track
0, 0, End_of_file
