0, 0, Header, 1, 2, 960
1, 0, Start_track
1, 0, Control_c, 0, 101, 0
1, 0, Control_c, 0, 100, 0
1, 0, Control_c, 0, 6, 12
1, 0, Control_c, 0, 38, 0
1, 0, Control_c, 1, 101, 0
1, 0, Control_c, 1, 100, 0
1, 0, Control_c, 1, 6, 12
1, 0, Control_c, 1, 38, 0
1, 0, Control_c, 2, 101, 0
1, 0, Control_c, 2, 100, 0
1, 0, Control_c, 2, 6, 12
1, 0, Control_c, 2, 38, 0
1, 0, Control_c, 3, 101, 0
1, 0, Control_c, 3, 100, 0
1, 0, Control_c, 3, 6, 12
1, 0, Control_c, 3, 38, 0
1, 0, Control_c, 4, 101, 0
1, 0, Control_c, 4, 100, 0
1, 0, Control_c, 4, 6, 12
1, 0, Control_c, 4, 38, 0
1, 0, Control_c, 5, 101, 0
1, 0, Control_c, 5, 100, 0
1, 0, Control_c, 5, 6, 12
1, 0, Control_c, 5, 38, 0
1, 0, Control_c, 6, 101, 0
1, 0, Control_c, 6, 100, 0
1, 0, Control_c, 6, 6, 12
1, 0, Control_c, 6, 38, 0
1, 0, Control_c, 7, 101, 0
1, 0, Control_c, 7, 100, 0
1, 0, Control_c, 7, 6, 12
1, 0, Control_c, 7, 38, 0
1, 0, Control_c, 8, 101, 0
1, 0, Control_c, 8, 100, 0
1, 0, Control_c, 8, 6, 12
1, 0, Control_c, 8, 38, 0
1, 0, Control_c, 9, 101, 0
1, 0, Control_c, 9, 100, 0
1, 0, Control_c, 9, 6, 12
1, 0, Control_c, 9, 38, 0
1, 0, Control_c, 10, 101, 0
1, 0, Control_c, 10, 100, 0
1, 0, Control_c, 10, 6, 12
1, 0, Control_c, 10, 38, 0
1, 0, Control_c, 11, 101, 0
1, 0, Control_c, 11, 100, 0
1, 0, Control_c, 11, 6, 12
1, 0, Control_c, 11, 38, 0
1, 0, Control_c, 12, 101, 0
1, 0, Control_c, 12, 100, 0
1, 0, Control_c, 12, 6, 12
1, 0, Control_c, 12, 38, 0
1, 0, Control_c, 13, 101, 0
1, 0, Control_c, 13, 100, 0
1, 0, Control_c, 13, 6, 12
1, 0, Control_c, 13, 38, 0
1, 0, Control_c, 14, 101, 0
1, 0, Control_c, 14, 100, 0
1, 0, Control_c, 14, 6, 12
1, 0, Control_c, 14, 38, 0
1, 0, Control_c, 15, 101, 0
1, 0, Control_c, 15, 100, 0
1, 0, Control_c, 15, 6, 12
1, 0, Control_c, 15, 38, 0
1, 0, Time_signature, 4, 2, 24, 8
1, 0, Tempo, 408163
1, 11520, Time_signature, 5, 2, 24, 8
1, 16320, Time_signature, 4, 2, 24, 8
1, 16320, End_track
2, 0, Start_track
2, 0, Pitch_bend_c, 0, 8192
2, 0, Control_c, 0, 7, 103
2, 0, Control_c, 0, 10, 63
2, 0, Control_c, 0, 93, 0
2, 0, Control_c, 0, 91, 0
2, 0, Control_c, 0, 95, 0
2, 0, Control_c, 0, 92, 0
2, 0, Control_c, 0, 11, 127
2, 0, Program_c, 0, 27
2, 0, Control_c, 1, 7, 103
2, 0, Control_c, 1, 10, 63
2, 0, Control_c, 1, 93, 0
2, 0, Control_c, 1, 91, 0
2, 0, Control_c, 1, 95, 0
2, 0, Control_c, 1, 92, 0
2, 0, Control_c, 1, 11, 127
2, 0, Program_c, 1, 27
2, 0, Note_on_c, 0, 75, 79
2, 640, Note_off_c, 0, 75, 79
2, 640, Note_on_c, 0, 74, 79
2, 960, Note_off_c, 0, 74, 79
2, 960, Note_on_c, 0, 72, 79
2, 1600, Note_off_c, 0, 72, 79
2, 1600, Note_on_c, 0, 70, 79
2, 1920, Note_off_c, 0, 70, 79
2, 1920, Note_on_c, 0, 69, 79
2, 2560, Note_off_c, 0, 69, 79
2, 2560, Note_on_c, 0, 67, 79
2, 2880, Note_off_c, 0, 67, 79
2, 2880, Note_on_c, 0, 65, 79
2, 3400, Note_on_c, 1, 63, 79
2, 3520, Note_off_c, 0, 65, 79
2, 3520, Note_off_c, 1, 63, 79
2, 3520, Note_on_c, 1, 64, 79
2, 3840, Note_off_c, 1, 64, 79
2, 3840, Note_on_c, 0, 60, 31
2, 4320, Note_off_c, 0, 60, 31
2, 4320, Note_on_c, 0, 55, 79
2, 5280, Note_off_c, 0, 55, 79
2, 5440, Note_on_c, 0, 67, 79
2, 5440, Note_on_c, 0, 65, 79
2, 5440, Note_on_c, 0, 59, 79
2, 5440, Note_on_c, 0, 55, 79
2, 5600, Note_off_c, 0, 67, 79
2, 5760, Note_off_c, 0, 65, 79
2, 5760, Note_off_c, 0, 59, 79
2, 5760, Note_off_c, 0, 55, 79
2, 6720, Note_on_c, 0, 75, 79
2, 7360, Note_off_c, 0, 75, 79
2, 7360, Note_on_c, 0, 74, 79
2, 7680, Note_off_c, 0, 74, 79
2, 7680, Note_on_c, 0, 72, 79
2, 8320, Note_off_c, 0, 72, 79
2, 8320, Note_on_c, 0, 70, 79
2, 8640, Note_off_c, 0, 70, 79
2, 8640, Note_on_c, 0, 69, 79
2, 9280, Note_off_c, 0, 69, 79
2, 9280, Note_on_c, 0, 67, 79
2, 9600, Note_off_c, 0, 67, 79
2, 9600, Note_on_c, 0, 66, 79
2, 10240, Note_off_c, 0, 66, 79
2, 10240, Note_on_c, 0, 65, 79
2, 10560, Note_off_c, 0, 65, 79
2, 10560, Note_on_c, 0, 63, 79
2, 11200, Note_off_c, 0, 63, 79
2, 11200, Note_on_c, 0, 60, 79
2, 11520, Note_off_c, 0, 60, 79
2, 11520, Note_on_c, 0, 55, 79
2, 12160, Note_off_c, 0, 55, 79
2, 12160, Note_on_c, 0, 55, 79
2, 12480, Note_off_c, 0, 55, 79
2, 12480, Note_on_c, 0, 59, 79
2, 13120, Note_off_c, 0, 59, 79
2, 13120, Note_on_c, 0, 55, 79
2, 13440, Note_off_c, 0, 55, 79
2, 13440, Note_on_c, 0, 59, 79
2, 14080, Note_off_c, 0, 59, 79
2, 14080, Note_on_c, 0, 64, 79
2, 14080, Note_on_c, 0, 60, 79
2, 14400, Note_off_c, 0, 64, 79
2, 14400, Note_off_c, 0, 60, 79
2, 15040, Note_on_c, 0, 64, 79
2, 15040, Note_on_c, 0, 60, 79
2, 15200, Note_off_c, 0, 64, 79
2, 15200, Note_off_c, 0, 60, 79
2, 16960, Note_on_c, 0, 70, 79
2, 16960, Note_on_c, 0, 64, 79
2, 16960, Note_on_c, 0, 60, 79
2, 17280, Note_off_c, 0, 70, 79
2, 17280, Note_off_c, 0, 64, 79
2, 17280, Note_off_c, 0, 60, 79
2, 17920, Note_on_c, 0, 70, 79
2, 17920, Note_on_c, 0, 64, 79
2, 17920, Note_on_c, 0, 60, 79
2, 18240, Note_off_c, 0, 70, 79
2, 18240, Note_off_c, 0, 64, 79
2, 18240, Note_off_c, 0, 60, 79
2, 18880, Note_on_c, 0, 70, 79
2, 18880, Note_on_c, 0, 64, 79
2, 18880, Note_on_c, 0, 60, 79
2, 19200, Note_off_c, 0, 70, 79
2, 19200, Note_off_c, 0, 64, 79
2, 19200, Note_off_c, 0, 60, 79
2, 19840, Note_on_c, 0, 70, 79
2, 19840, Note_on_c, 0, 64, 79
2, 19840, Note_on_c, 0, 60, 79
2, 20160, Note_off_c, 0, 70, 79
2, 20160, Note_off_c, 0, 64, 79
2, 20160, Note_off_c, 0, 60, 79
2, 20800, Note_on_c, 0, 67, 79
2, 20800, Note_on_c, 0, 64, 79
2, 20800, Note_on_c, 0, 60, 79
2, 21120, Note_off_c, 0, 67, 79
2, 21120, Note_off_c, 0, 64, 79
2, 21120, Note_off_c, 0, 60, 79
2, 21760, Note_on_c, 0, 67, 79
2, 21760, Note_on_c, 0, 64, 79
2, 21760, Note_on_c, 0, 60, 79
2, 22080, Note_off_c, 0, 67, 79
2, 22080, Note_off_c, 0, 64, 79
2, 22080, Note_off_c, 0, 60, 79
2, 22720, Note_on_c, 0, 67, 79
2, 22720, Note_on_c, 0, 64, 79
2, 22720, Note_on_c, 0, 60, 79
2, 23040, Note_off_c, 0, 67, 79
2, 23040, Note_off_c, 0, 64, 79
2, 23040, Note_off_c, 0, 60, 79
2, 23680, Note_on_c, 0, 67, 79
2, 23680, Note_on_c, 0, 64, 79
2, 23680, Note_on_c, 0, 60, 79
2, 24000, Note_off_c, 0, 67, 79
2, 24000, Note_off_c, 0, 64, 79
2, 24000, Note_off_c, 0, 60, 79
2, 24640, Note_on_c, 0, 67, 79
2, 24640, Note_on_c, 0, 64, 79
2, 24640, Note_on_c, 0, 60, 79
2, 24960, Note_off_c, 0, 67, 79
2, 24960, Note_off_c, 0, 64, 79
2, 24960, Note_off_c, 0, 60, 79
2, 25600, Note_on_c, 0, 67, 79
2, 25600, Note_on_c, 0, 64, 79
2, 25600, Note_on_c, 0, 60, 79
2, 25920, Note_off_c, 0, 67, 79
2, 25920, Note_off_c, 0, 64, 79
2, 25920, Note_off_c, 0, 60, 79
2, 26560, Note_on_c, 0, 67, 79
2, 26560, Note_on_c, 0, 64, 79
2, 26560, Note_on_c, 0, 60, 79
2, 26880, Note_off_c, 0, 67, 79
2, 26880, Note_off_c, 0, 64, 79
2, 26880, Note_off_c, 0, 60, 79
2, 27520, Note_on_c, 0, 67, 79
2, 27520, Note_on_c, 0, 64, 79
2, 27520, Note_on_c, 0, 60, 79
2, 27840, Note_off_c, 0, 67, 79
2, 27840, Note_off_c, 0, 64, 79
2, 27840, Note_off_c, 0, 60, 79
2, 28480, Note_on_c, 0, 70, 79
2, 28480, Note_on_c, 0, 64, 79
2, 28480, Note_on_c, 0, 60, 79
2, 28800, Note_off_c, 0, 70, 79
2, 28800, Note_off_c, 0, 64, 79
2, 28800, Note_off_c, 0, 60, 79
2, 29440, Note_on_c, 0, 70, 79
2, 29440, Note_on_c, 0, 64, 79
2, 29440, Note_on_c, 0, 60, 79
2, 29760, Note_off_c, 0, 70, 79
2, 29760, Note_off_c, 0, 64, 79
2, 29760, Note_off_c, 0, 60, 79
2, 30400, Note_on_c, 0, 70, 79
2, 30400, Note_on_c, 0, 64, 79
2, 30400, Note_on_c, 0, 60, 79
2, 30720, Note_off_c, 0, 70, 79
2, 30720, Note_off_c, 0, 64, 79
2, 30720, Note_off_c, 0, 60, 79
2, 31360, Note_on_c, 0, 70, 79
2, 31360, Note_on_c, 0, 64, 79
2, 31360, Note_on_c, 0, 60, 79
2, 31680, Note_off_c, 0, 70, 79
2, 31680, Note_off_c, 0, 64, 79
2, 31680, Note_off_c, 0, 60, 79
2, 32320, Note_on_c, 0, 69, 79
2, 32320, Note_on_c, 0, 65, 79
2, 32320, Note_on_c, 0, 60, 79
2, 32640, Note_off_c, 0, 69, 79
2, 32640, Note_off_c, 0, 65, 79
2, 32640, Note_off_c, 0, 60, 79
2, 33280, Note_on_c, 0, 69, 79
2, 33280, Note_on_c, 0, 65, 79
2, 33280, Note_on_c, 0, 60, 79
2, 33600, Note_off_c, 0, 69, 79
2, 33600, Note_off_c, 0, 65, 79
2, 33600, Note_off_c, 0, 60, 79
2, 34240, Note_on_c, 0, 69, 79
2, 34240, Note_on_c, 0, 65, 79
2, 34240, Note_on_c, 0, 60, 79
2, 34560, Note_off_c, 0, 69, 79
2, 34560, Note_off_c, 0, 65, 79
2, 34560, Note_off_c, 0, 60, 79
2, 35200, Note_on_c, 0, 69, 79
2, 35200, Note_on_c, 0, 65, 79
2, 35200, Note_on_c, 0, 60, 79
2, 35520, Note_off_c, 0, 69, 79
2, 35520, Note_off_c, 0, 65, 79
2, 35520, Note_off_c, 0, 60, 79
2, 36160, Note_on_c, 0, 69, 79
2, 36160, Note_on_c, 0, 65, 79
2, 36160, Note_on_c, 0, 60, 79
2, 36480, Note_off_c, 0, 69, 79
2, 36480, Note_off_c, 0, 65, 79
2, 36480, Note_off_c, 0, 60, 79
2, 37120, Note_on_c, 0, 69, 79
2, 37120, Note_on_c, 0, 65, 79
2, 37120, Note_on_c, 0, 60, 79
2, 37440, Note_off_c, 0, 69, 79
2, 37440, Note_off_c, 0, 65, 79
2, 37440, Note_off_c, 0, 60, 79
2, 38080, Note_on_c, 0, 69, 79
2, 38080, Note_on_c, 0, 65, 79
2, 38080, Note_on_c, 0, 60, 79
2, 38400, Note_off_c, 0, 69, 79
2, 38400, Note_off_c, 0, 65, 79
2, 38400, Note_off_c, 0, 60, 79
2, 39040, Note_on_c, 0, 69, 79
2, 39040, Note_on_c, 0, 65, 79
2, 39040, Note_on_c, 0, 60, 79
2, 39360, Note_off_c, 0, 69, 79
2, 39360, Note_off_c, 0, 65, 79
2, 39360, Note_off_c, 0, 60, 79
2, 40000, Note_on_c, 0, 70, 79
2, 40000, Note_on_c, 0, 64, 79
2, 40000, Note_on_c, 0, 60, 79
2, 40320, Note_off_c, 0, 70, 79
2, 40320, Note_off_c, 0, 64, 79
2, 40320, Note_off_c, 0, 60, 79
2, 40960, Note_on_c, 0, 70, 79
2, 40960, Note_on_c, 0, 64, 79
2, 40960, Note_on_c, 0, 60, 79
2, 41280, Note_off_c, 0, 70, 79
2, 41280, Note_off_c, 0, 64, 79
2, 41280, Note_off_c, 0, 60, 79
2, 41920, Note_on_c, 0, 70, 79
2, 41920, Note_on_c, 0, 64, 79
2, 41920, Note_on_c, 0, 60, 79
2, 42240, Note_off_c, 0, 70, 79
2, 42240, Note_off_c, 0, 64, 79
2, 42240, Note_off_c, 0, 60, 79
2, 42880, Note_on_c, 0, 70, 79
2, 42880, Note_on_c, 0, 64, 79
2, 42880, Note_on_c, 0, 60, 79
2, 43200, Note_off_c, 0, 70, 79
2, 43200, Note_off_c, 0, 64, 79
2, 43200, Note_off_c, 0, 60, 79
2, 43840, Note_on_c, 0, 70, 79
2, 43840, Note_on_c, 0, 64, 79
2, 43840, Note_on_c, 0, 60, 79
2, 44160, Note_off_c, 0, 70, 79
2, 44160, Note_off_c, 0, 64, 79
2, 44160, Note_off_c, 0, 60, 79
2, 44800, Note_on_c, 0, 70, 79
2, 44800, Note_on_c, 0, 64, 79
2, 44800, Note_on_c, 0, 60, 79
2, 45120, Note_off_c, 0, 70, 79
2, 45120, Note_off_c, 0, 64, 79
2, 45120, Note_off_c, 0, 60, 79
2, 45760, Note_on_c, 0, 70, 79
2, 45760, Note_on_c, 0, 64, 79
2, 45760, Note_on_c, 0, 60, 79
2, 46080, Note_off_c, 0, 70, 79
2, 46080, Note_off_c, 0, 64, 79
2, 46080, Note_off_c, 0, 60, 79
2, 46720, Note_on_c, 0, 70, 79
2, 46720, Note_on_c, 0, 64, 79
2, 46720, Note_on_c, 0, 60, 79
2, 47040, Note_off_c, 0, 70, 79
2, 47040, Note_off_c, 0, 64, 79
2, 47040, Note_off_c, 0, 60, 79
2, 47680, Note_on_c, 0, 67, 79
2, 47680, Note_on_c, 0, 65, 79
2, 47680, Note_on_c, 0, 59, 79
2, 47680, Note_on_c, 0, 55, 79
2, 48000, Note_off_c, 0, 67, 79
2, 48000, Note_off_c, 0, 65, 79
2, 48000, Note_off_c, 0, 59, 79
2, 48000, Note_off_c, 0, 55, 79
2, 48640, Note_on_c, 0, 67, 79
2, 48640, Note_on_c, 0, 65, 79
2, 48640, Note_on_c, 0, 59, 79
2, 48640, Note_on_c, 0, 55, 79
2, 48960, Note_off_c, 0, 67, 79
2, 48960, Note_off_c, 0, 65, 79
2, 48960, Note_off_c, 0, 59, 79
2, 48960, Note_off_c, 0, 55, 79
2, 49600, Note_on_c, 0, 67, 79
2, 49600, Note_on_c, 0, 65, 79
2, 49600, Note_on_c, 0, 59, 79
2, 49600, Note_on_c, 0, 55, 79
2, 49920, Note_off_c, 0, 67, 79
2, 49920, Note_off_c, 0, 65, 79
2, 49920, Note_off_c, 0, 59, 79
2, 49920, Note_off_c, 0, 55, 79
2, 50560, Note_on_c, 0, 67, 79
2, 50560, Note_on_c, 0, 65, 79
2, 50560, Note_on_c, 0, 59, 79
2, 50560, Note_on_c, 0, 55, 79
2, 50880, Note_off_c, 0, 67, 79
2, 50880, Note_off_c, 0, 65, 79
2, 50880, Note_off_c, 0, 59, 79
2, 50880, Note_off_c, 0, 55, 79
2, 51520, Note_on_c, 0, 67, 79
2, 51520, Note_on_c, 0, 65, 79
2, 51520, Note_on_c, 0, 59, 79
2, 51520, Note_on_c, 0, 55, 79
2, 51840, Note_off_c, 0, 67, 79
2, 51840, Note_off_c, 0, 65, 79
2, 51840, Note_off_c, 0, 59, 79
2, 51840, Note_off_c, 0, 55, 79
2, 52480, Note_on_c, 0, 67, 79
2, 52480, Note_on_c, 0, 65, 79
2, 52480, Note_on_c, 0, 59, 79
2, 52480, Note_on_c, 0, 55, 79
2, 52800, Note_off_c, 0, 67, 79
2, 52800, Note_off_c, 0, 65, 79
2, 52800, Note_off_c, 0, 59, 79
2, 52800, Note_off_c, 0, 55, 79
2, 53440, Note_on_c, 0, 67, 79
2, 53440, Note_on_c, 0, 65, 79
2, 53440, Note_on_c, 0, 59, 79
2, 53440, Note_on_c, 0, 55, 79
2, 53760, Note_off_c, 0, 67, 79
2, 53760, Note_off_c, 0, 65, 79
2, 53760, Note_off_c, 0, 59, 79
2, 53760, Note_off_c, 0, 55, 79
2, 54400, Note_on_c, 0, 67, 79
2, 54400, Note_on_c, 0, 65, 79
2, 54400, Note_on_c, 0, 59, 79
2, 54400, Note_on_c, 0, 55, 79
2, 54720, Note_off_c, 0, 67, 79
2, 54720, Note_off_c, 0, 65, 79
2, 54720, Note_off_c, 0, 59, 79
2, 54720, Note_off_c, 0, 55, 79
2, 55360, Note_on_c, 0, 67, 79
2, 55360, Note_on_c, 0, 64, 79
2, 55360, Note_on_c, 0, 60, 79
2, 55680, Note_off_c, 0, 67, 79
2, 55680, Note_off_c, 0, 64, 79
2, 55680, Note_off_c, 0, 60, 79
2, 56320, Note_on_c, 0, 67, 79
2, 56320, Note_on_c, 0, 64, 79
2, 56320, Note_on_c, 0, 60, 79
2, 56640, Note_off_c, 0, 67, 79
2, 56640, Note_off_c, 0, 64, 79
2, 56640, Note_off_c, 0, 60, 79
2, 57280, Note_on_c, 0, 67, 79
2, 57280, Note_on_c, 0, 64, 79
2, 57280, Note_on_c, 0, 60, 79
2, 57600, Note_off_c, 0, 67, 79
2, 57600, Note_off_c, 0, 64, 79
2, 57600, Note_off_c, 0, 60, 79
2, 58240, Note_on_c, 0, 67, 79
2, 58240, Note_on_c, 0, 64, 79
2, 58240, Note_on_c, 0, 60, 79
2, 58560, Note_off_c, 0, 67, 79
2, 58560, Note_off_c, 0, 64, 79
2, 58560, Note_off_c, 0, 60, 79
2, 59200, Note_on_c, 0, 67, 79
2, 59200, Note_on_c, 0, 64, 79
2, 59200, Note_on_c, 0, 60, 79
2, 59520, Note_off_c, 0, 67, 79
2, 59520, Note_off_c, 0, 64, 79
2, 59520, Note_off_c, 0, 60, 79
2, 60160, Note_on_c, 0, 67, 79
2, 60160, Note_on_c, 0, 64, 79
2, 60160, Note_on_c, 0, 60, 79
2, 60480, Note_off_c, 0, 67, 79
2, 60480, Note_off_c, 0, 64, 79
2, 60480, Note_off_c, 0, 60, 79
2, 61120, Note_on_c, 0, 67, 79
2, 61120, Note_on_c, 0, 64, 79
2, 61120, Note_on_c, 0, 60, 79
2, 61440, Note_off_c, 0, 67, 79
2, 61440, Note_off_c, 0, 64, 79
2, 61440, Note_off_c, 0, 60, 79
2, 62080, Note_on_c, 0, 67, 79
2, 62080, Note_on_c, 0, 64, 79
2, 62080, Note_on_c, 0, 60, 79
2, 62400, Note_off_c, 0, 67, 79
2, 62400, Note_off_c, 0, 64, 79
2, 62400, Note_off_c, 0, 60, 79
2, 63040, Note_on_c, 0, 70, 79
2, 63040, Note_on_c, 0, 64, 79
2, 63040, Note_on_c, 0, 60, 79
2, 63360, Note_off_c, 0, 70, 79
2, 63360, Note_off_c, 0, 64, 79
2, 63360, Note_off_c, 0, 60, 79
2, 64000, Note_on_c, 0, 70, 79
2, 64000, Note_on_c, 0, 64, 79
2, 64000, Note_on_c, 0, 60, 79
2, 64320, Note_off_c, 0, 70, 79
2, 64320, Note_off_c, 0, 64, 79
2, 64320, Note_off_c, 0, 60, 79
2, 64960, Note_on_c, 0, 70, 79
2, 64960, Note_on_c, 0, 64, 79
2, 64960, Note_on_c, 0, 60, 79
2, 65280, Note_off_c, 0, 70, 79
2, 65280, Note_off_c, 0, 64, 79
2, 65280, Note_off_c, 0, 60, 79
2, 65920, Note_on_c, 0, 70, 79
2, 65920, Note_on_c, 0, 64, 79
2, 65920, Note_on_c, 0, 60, 79
2, 66240, Note_off_c, 0, 70, 79
2, 66240, Note_off_c, 0, 64, 79
2, 66240, Note_off_c, 0, 60, 79
2, 66880, Note_on_c, 0, 67, 79
2, 66880, Note_on_c, 0, 64, 79
2, 66880, Note_on_c, 0, 60, 79
2, 67200, Note_off_c, 0, 67, 79
2, 67200, Note_off_c, 0, 64, 79
2, 67200, Note_off_c, 0, 60, 79
2, 67840, Note_on_c, 0, 67, 79
2, 67840, Note_on_c, 0, 64, 79
2, 67840, Note_on_c, 0, 60, 79
2, 68160, Note_off_c, 0, 67, 79
2, 68160, Note_off_c, 0, 64, 79
2, 68160, Note_off_c, 0, 60, 79
2, 68800, Note_on_c, 0, 67, 79
2, 68800, Note_on_c, 0, 64, 79
2, 68800, Note_on_c, 0, 60, 79
2, 69120, Note_off_c, 0, 67, 79
2, 69120, Note_off_c, 0, 64, 79
2, 69120, Note_off_c, 0, 60, 79
2, 69760, Note_on_c, 0, 67, 79
2, 69760, Note_on_c, 0, 64, 79
2, 69760, Note_on_c, 0, 60, 79
2, 70080, Note_off_c, 0, 67, 79
2, 70080, Note_off_c, 0, 64, 79
2, 70080, Note_off_c, 0, 60, 79
2, 70720, Note_on_c, 0, 67, 79
2, 70720, Note_on_c, 0, 64, 79
2, 70720, Note_on_c, 0, 60, 79
2, 71040, Note_off_c, 0, 67, 79
2, 71040, Note_off_c, 0, 64, 79
2, 71040, Note_off_c, 0, 60, 79
2, 71680, Note_on_c, 0, 67, 79
2, 71680, Note_on_c, 0, 64, 79
2, 71680, Note_on_c, 0, 60, 79
2, 72000, Note_off_c, 0, 67, 79
2, 72000, Note_off_c, 0, 64, 79
2, 72000, Note_off_c, 0, 60, 79
2, 72640, Note_on_c, 0, 67, 79
2, 72640, Note_on_c, 0, 64, 79
2, 72640, Note_on_c, 0, 60, 79
2, 72960, Note_off_c, 0, 67, 79
2, 72960, Note_off_c, 0, 64, 79
2, 72960, Note_off_c, 0, 60, 79
2, 73600, Note_on_c, 0, 67, 79
2, 73600, Note_on_c, 0, 64, 79
2, 73600, Note_on_c, 0, 60, 79
2, 73920, Note_off_c, 0, 67, 79
2, 73920, Note_off_c, 0, 64, 79
2, 73920, Note_off_c, 0, 60, 79
2, 74560, Note_on_c, 0, 70, 79
2, 74560, Note_on_c, 0, 64, 79
2, 74560, Note_on_c, 0, 60, 79
2, 74880, Note_off_c, 0, 70, 79
2, 74880, Note_off_c, 0, 64, 79
2, 74880, Note_off_c, 0, 60, 79
2, 75520, Note_on_c, 0, 70, 79
2, 75520, Note_on_c, 0, 64, 79
2, 75520, Note_on_c, 0, 60, 79
2, 75840, Note_off_c, 0, 70, 79
2, 75840, Note_off_c, 0, 64, 79
2, 75840, Note_off_c, 0, 60, 79
2, 76480, Note_on_c, 0, 70, 79
2, 76480, Note_on_c, 0, 64, 79
2, 76480, Note_on_c, 0, 60, 79
2, 76800, Note_off_c, 0, 70, 79
2, 76800, Note_off_c, 0, 64, 79
2, 76800, Note_off_c, 0, 60, 79
2, 77440, Note_on_c, 0, 70, 79
2, 77440, Note_on_c, 0, 64, 79
2, 77440, Note_on_c, 0, 60, 79
2, 77760, Note_off_c, 0, 70, 79
2, 77760, Note_off_c, 0, 64, 79
2, 77760, Note_off_c, 0, 60, 79
2, 78400, Note_on_c, 0, 69, 79
2, 78400, Note_on_c, 0, 65, 79
2, 78400, Note_on_c, 0, 60, 79
2, 78720, Note_off_c, 0, 69, 79
2, 78720, Note_off_c, 0, 65, 79
2, 78720, Note_off_c, 0, 60, 79
2, 79360, Note_on_c, 0, 69, 79
2, 79360, Note_on_c, 0, 65, 79
2, 79360, Note_on_c, 0, 60, 79
2, 79680, Note_off_c, 0, 69, 79
2, 79680, Note_off_c, 0, 65, 79
2, 79680, Note_off_c, 0, 60, 79
2, 80320, Note_on_c, 0, 69, 79
2, 80320, Note_on_c, 0, 65, 79
2, 80320, Note_on_c, 0, 60, 79
2, 80640, Note_off_c, 0, 69, 79
2, 80640, Note_off_c, 0, 65, 79
2, 80640, Note_off_c, 0, 60, 79
2, 81280, Note_on_c, 0, 69, 79
2, 81280, Note_on_c, 0, 65, 79
2, 81280, Note_on_c, 0, 60, 79
2, 81600, Note_off_c, 0, 69, 79
2, 81600, Note_off_c, 0, 65, 79
2, 81600, Note_off_c, 0, 60, 79
2, 82240, Note_on_c, 0, 69, 79
2, 82240, Note_on_c, 0, 65, 79
2, 82240, Note_on_c, 0, 60, 79
2, 82560, Note_off_c, 0, 69, 79
2, 82560, Note_off_c, 0, 65, 79
2, 82560, Note_off_c, 0, 60, 79
2, 83200, Note_on_c, 0, 69, 79
2, 83200, Note_on_c, 0, 65, 79
2, 83200, Note_on_c, 0, 60, 79
2, 83520, Note_off_c, 0, 69, 79
2, 83520, Note_off_c, 0, 65, 79
2, 83520, Note_off_c, 0, 60, 79
2, 84160, Note_on_c, 0, 69, 79
2, 84160, Note_on_c, 0, 65, 79
2, 84160, Note_on_c, 0, 60, 79
2, 84480, Note_off_c, 0, 69, 79
2, 84480, Note_off_c, 0, 65, 79
2, 84480, Note_off_c, 0, 60, 79
2, 85120, Note_on_c, 0, 69, 79
2, 85120, Note_on_c, 0, 65, 79
2, 85120, Note_on_c, 0, 60, 79
2, 85440, Note_off_c, 0, 69, 79
2, 85440, Note_off_c, 0, 65, 79
2, 85440, Note_off_c, 0, 60, 79
2, 86080, Note_on_c, 0, 70, 79
2, 86080, Note_on_c, 0, 64, 79
2, 86080, Note_on_c, 0, 60, 79
2, 86400, Note_off_c, 0, 70, 79
2, 86400, Note_off_c, 0, 64, 79
2, 86400, Note_off_c, 0, 60, 79
2, 87040, Note_on_c, 0, 70, 79
2, 87040, Note_on_c, 0, 64, 79
2, 87040, Note_on_c, 0, 60, 79
2, 87360, Note_off_c, 0, 70, 79
2, 87360, Note_off_c, 0, 64, 79
2, 87360, Note_off_c, 0, 60, 79
2, 88000, Note_on_c, 0, 70, 79
2, 88000, Note_on_c, 0, 64, 79
2, 88000, Note_on_c, 0, 60, 79
2, 88320, Note_off_c, 0, 70, 79
2, 88320, Note_off_c, 0, 64, 79
2, 88320, Note_off_c, 0, 60, 79
2, 88960, Note_on_c, 0, 70, 79
2, 88960, Note_on_c, 0, 64, 79
2, 88960, Note_on_c, 0, 60, 79
2, 89280, Note_off_c, 0, 70, 79
2, 89280, Note_off_c, 0, 64, 79
2, 89280, Note_off_c, 0, 60, 79
2, 89920, Note_on_c, 0, 70, 79
2, 89920, Note_on_c, 0, 64, 79
2, 89920, Note_on_c, 0, 60, 79
2, 90240, Note_off_c, 0, 70, 79
2, 90240, Note_off_c, 0, 64, 79
2, 90240, Note_off_c, 0, 60, 79
2, 90880, Note_on_c, 0, 70, 79
2, 90880, Note_on_c, 0, 64, 79
2, 90880, Note_on_c, 0, 60, 79
2, 91200, Note_off_c, 0, 70, 79
2, 91200, Note_off_c, 0, 64, 79
2, 91200, Note_off_c, 0, 60, 79
2, 91840, Note_on_c, 0, 70, 79
2, 91840, Note_on_c, 0, 64, 79
2, 91840, Note_on_c, 0, 60, 79
2, 92160, Note_off_c, 0, 70, 79
2, 92160, Note_off_c, 0, 64, 79
2, 92160, Note_off_c, 0, 60, 79
2, 92800, Note_on_c, 0, 70, 79
2, 92800, Note_on_c, 0, 64, 79
2, 92800, Note_on_c, 0, 60, 79
2, 93120, Note_off_c, 0, 70, 79
2, 93120, Note_off_c, 0, 64, 79
2, 93120, Note_off_c, 0, 60, 79
2, 93760, Note_on_c, 0, 67, 79
2, 93760, Note_on_c, 0, 65, 79
2, 93760, Note_on_c, 0, 59, 79
2, 93760, Note_on_c, 0, 55, 79
2, 94080, Note_off_c, 0, 67, 79
2, 94080, Note_off_c, 0, 65, 79
2, 94080, Note_off_c, 0, 59, 79
2, 94080, Note_off_c, 0, 55, 79
2, 94720, Note_on_c, 0, 67, 79
2, 94720, Note_on_c, 0, 65, 79
2, 94720, Note_on_c, 0, 59, 79
2, 94720, Note_on_c, 0, 55, 79
2, 95040, Note_off_c, 0, 67, 79
2, 95040, Note_off_c, 0, 65, 79
2, 95040, Note_off_c, 0, 59, 79
2, 95040, Note_off_c, 0, 55, 79
2, 95680, Note_on_c, 0, 67, 79
2, 95680, Note_on_c, 0, 65, 79
2, 95680, Note_on_c, 0, 59, 79
2, 95680, Note_on_c, 0, 55, 79
2, 96000, Note_off_c, 0, 67, 79
2, 96000, Note_off_c, 0, 65, 79
2, 96000, Note_off_c, 0, 59, 79
2, 96000, Note_off_c, 0, 55, 79
2, 96640, Note_on_c, 0, 67, 79
2, 96640, Note_on_c, 0, 65, 79
2, 96640, Note_on_c, 0, 59, 79
2, 96640, Note_on_c, 0, 55, 79
2, 96960, Note_off_c, 0, 67, 79
2, 96960, Note_off_c, 0, 65, 79
2, 96960, Note_off_c, 0, 59, 79
2, 96960, Note_off_c, 0, 55, 79
2, 97600, Note_on_c, 0, 67, 79
2, 97600, Note_on_c, 0, 65, 79
2, 97600, Note_on_c, 0, 59, 79
2, 97600, Note_on_c, 0, 55, 79
2, 97920, Note_off_c, 0, 67, 79
2, 97920, Note_off_c, 0, 65, 79
2, 97920, Note_off_c, 0, 59, 79
2, 97920, Note_off_c, 0, 55, 79
2, 98560, Note_on_c, 0, 67, 79
2, 98560, Note_on_c, 0, 65, 79
2, 98560, Note_on_c, 0, 59, 79
2, 98560, Note_on_c, 0, 55, 79
2, 98880, Note_off_c, 0, 67, 79
2, 98880, Note_off_c, 0, 65, 79
2, 98880, Note_off_c, 0, 59, 79
2, 98880, Note_off_c, 0, 55, 79
2, 99520, Note_on_c, 0, 67, 79
2, 99520, Note_on_c, 0, 65, 79
2, 99520, Note_on_c, 0, 59, 79
2, 99520, Note_on_c, 0, 55, 79
2, 99840, Note_off_c, 0, 67, 79
2, 99840, Note_off_c, 0, 65, 79
2, 99840, Note_off_c, 0, 59, 79
2, 99840, Note_off_c, 0, 55, 79
2, 100480, Note_on_c, 0, 67, 79
2, 100480, Note_on_c, 0, 65, 79
2, 100480, Note_on_c, 0, 59, 79
2, 100480, Note_on_c, 0, 55, 79
2, 100800, Note_off_c, 0, 67, 79
2, 100800, Note_off_c, 0, 65, 79
2, 100800, Note_off_c, 0, 59, 79
2, 100800, Note_off_c, 0, 55, 79
2, 101440, Note_on_c, 0, 67, 79
2, 101440, Note_on_c, 0, 64, 79
2, 101440, Note_on_c, 0, 60, 79
2, 101760, Note_off_c, 0, 67, 79
2, 101760, Note_off_c, 0, 64, 79
2, 101760, Note_off_c, 0, 60, 79
2, 102400, Note_on_c, 0, 67, 79
2, 102400, Note_on_c, 0, 64, 79
2, 102400, Note_on_c, 0, 60, 79
2, 102720, Note_off_c, 0, 67, 79
2, 102720, Note_off_c, 0, 64, 79
2, 102720, Note_off_c, 0, 60, 79
2, 103360, Note_on_c, 0, 67, 79
2, 103360, Note_on_c, 0, 64, 79
2, 103360, Note_on_c, 0, 60, 79
2, 103680, Note_off_c, 0, 67, 79
2, 103680, Note_off_c, 0, 64, 79
2, 103680, Note_off_c, 0, 60, 79
2, 104320, Note_on_c, 0, 67, 79
2, 104320, Note_on_c, 0, 64, 79
2, 104320, Note_on_c, 0, 60, 79
2, 104640, Note_off_c, 0, 67, 79
2, 104640, Note_off_c, 0, 64, 79
2, 104640, Note_off_c, 0, 60, 79
2, 105280, Note_on_c, 0, 67, 79
2, 105280, Note_on_c, 0, 64, 79
2, 105280, Note_on_c, 0, 60, 79
2, 105600, Note_off_c, 0, 67, 79
2, 105600, Note_off_c, 0, 64, 79
2, 105600, Note_off_c, 0, 60, 79
2, 106240, Note_on_c, 0, 67, 79
2, 106240, Note_on_c, 0, 64, 79
2, 106240, Note_on_c, 0, 60, 79
2, 106560, Note_off_c, 0, 67, 79
2, 106560, Note_off_c, 0, 64, 79
2, 106560, Note_off_c, 0, 60, 79
2, 107200, Note_on_c, 0, 67, 79
2, 107200, Note_on_c, 0, 64, 79
2, 107200, Note_on_c, 0, 60, 79
2, 107520, Note_off_c, 0, 67, 79
2, 107520, Note_off_c, 0, 64, 79
2, 107520, Note_off_c, 0, 60, 79
2, 108160, Note_on_c, 0, 67, 79
2, 108160, Note_on_c, 0, 64, 79
2, 108160, Note_on_c, 0, 60, 79
2, 108480, Note_off_c, 0, 67, 79
2, 108480, Note_off_c, 0, 64, 79
2, 108480, Note_off_c, 0, 60, 79
2, 109120, Note_on_c, 0, 70, 79
2, 109120, Note_on_c, 0, 64, 79
2, 109120, Note_on_c, 0, 60, 79
2, 109440, Note_off_c, 0, 70, 79
2, 109440, Note_off_c, 0, 64, 79
2, 109440, Note_off_c, 0, 60, 79
2, 110080, Note_on_c, 0, 70, 79
2, 110080, Note_on_c, 0, 64, 79
2, 110080, Note_on_c, 0, 60, 79
2, 110400, Note_off_c, 0, 70, 79
2, 110400, Note_off_c, 0, 64, 79
2, 110400, Note_off_c, 0, 60, 79
2, 111040, Note_on_c, 0, 70, 79
2, 111040, Note_on_c, 0, 64, 79
2, 111040, Note_on_c, 0, 60, 79
2, 111360, Note_off_c, 0, 70, 79
2, 111360, Note_off_c, 0, 64, 79
2, 111360, Note_off_c, 0, 60, 79
2, 112000, Note_on_c, 0, 70, 79
2, 112000, Note_on_c, 0, 64, 79
2, 112000, Note_on_c, 0, 60, 79
2, 112320, Note_off_c, 0, 70, 79
2, 112320, Note_off_c, 0, 64, 79
2, 112320, Note_off_c, 0, 60, 79
2, 112960, Note_on_c, 0, 67, 79
2, 112960, Note_on_c, 0, 64, 79
2, 112960, Note_on_c, 0, 60, 79
2, 113280, Note_off_c, 0, 67, 79
2, 113280, Note_off_c, 0, 64, 79
2, 113280, Note_off_c, 0, 60, 79
2, 113920, Note_on_c, 0, 67, 79
2, 113920, Note_on_c, 0, 64, 79
2, 113920, Note_on_c, 0, 60, 79
2, 114240, Note_off_c, 0, 67, 79
2, 114240, Note_off_c, 0, 64, 79
2, 114240, Note_off_c, 0, 60, 79
2, 114880, Note_on_c, 0, 67, 79
2, 114880, Note_on_c, 0, 64, 79
2, 114880, Note_on_c, 0, 60, 79
2, 115200, Note_off_c, 0, 67, 79
2, 115200, Note_off_c, 0, 64, 79
2, 115200, Note_off_c, 0, 60, 79
2, 115840, Note_on_c, 0, 67, 79
2, 115840, Note_on_c, 0, 64, 79
2, 115840, Note_on_c, 0, 60, 79
2, 116160, Note_off_c, 0, 67, 79
2, 116160, Note_off_c, 0, 64, 79
2, 116160, Note_off_c, 0, 60, 79
2, 116800, Note_on_c, 0, 67, 79
2, 116800, Note_on_c, 0, 64, 79
2, 116800, Note_on_c, 0, 60, 79
2, 117120, Note_off_c, 0, 67, 79
2, 117120, Note_off_c, 0, 64, 79
2, 117120, Note_off_c, 0, 60, 79
2, 117760, Note_on_c, 0, 67, 79
2, 117760, Note_on_c, 0, 64, 79
2, 117760, Note_on_c, 0, 60, 79
2, 118080, Note_off_c, 0, 67, 79
2, 118080, Note_off_c, 0, 64, 79
2, 118080, Note_off_c, 0, 60, 79
2, 118720, Note_on_c, 0, 67, 79
2, 118720, Note_on_c, 0, 64, 79
2, 118720, Note_on_c, 0, 60, 79
2, 119040, Note_off_c, 0, 67, 79
2, 119040, Note_off_c, 0, 64, 79
2, 119040, Note_off_c, 0, 60, 79
2, 119680, Note_on_c, 0, 67, 79
2, 119680, Note_on_c, 0, 64, 79
2, 119680, Note_on_c, 0, 60, 79
2, 120000, Note_off_c, 0, 67, 79
2, 120000, Note_off_c, 0, 64, 79
2, 120000, Note_off_c, 0, 60, 79
2, 120640, Note_on_c, 0, 70, 79
2, 120640, Note_on_c, 0, 64, 79
2, 120640, Note_on_c, 0, 60, 79
2, 120960, Note_off_c, 0, 70, 79
2, 120960, Note_off_c, 0, 64, 79
2, 120960, Note_off_c, 0, 60, 79
2, 121600, Note_on_c, 0, 70, 79
2, 121600, Note_on_c, 0, 64, 79
2, 121600, Note_on_c, 0, 60, 79
2, 121920, Note_off_c, 0, 70, 79
2, 121920, Note_off_c, 0, 64, 79
2, 121920, Note_off_c, 0, 60, 79
2, 122560, Note_on_c, 0, 70, 79
2, 122560, Note_on_c, 0, 64, 79
2, 122560, Note_on_c, 0, 60, 79
2, 122880, Note_off_c, 0, 70, 79
2, 122880, Note_off_c, 0, 64, 79
2, 122880, Note_off_c, 0, 60, 79
2, 123520, Note_on_c, 0, 70, 79
2, 123520, Note_on_c, 0, 64, 79
2, 123520, Note_on_c, 0, 60, 79
2, 123840, Note_off_c, 0, 70, 79
2, 123840, Note_off_c, 0, 64, 79
2, 123840, Note_off_c, 0, 60, 79
2, 124480, Note_on_c, 0, 69, 79
2, 124480, Note_on_c, 0, 65, 79
2, 124480, Note_on_c, 0, 60, 79
2, 124800, Note_off_c, 0, 69, 79
2, 124800, Note_off_c, 0, 65, 79
2, 124800, Note_off_c, 0, 60, 79
2, 125440, Note_on_c, 0, 69, 79
2, 125440, Note_on_c, 0, 65, 79
2, 125440, Note_on_c, 0, 60, 79
2, 125760, Note_off_c, 0, 69, 79
2, 125760, Note_off_c, 0, 65, 79
2, 125760, Note_off_c, 0, 60, 79
2, 126400, Note_on_c, 0, 69, 79
2, 126400, Note_on_c, 0, 65, 79
2, 126400, Note_on_c, 0, 60, 79
2, 126720, Note_off_c, 0, 69, 79
2, 126720, Note_off_c, 0, 65, 79
2, 126720, Note_off_c, 0, 60, 79
2, 127360, Note_on_c, 0, 69, 79
2, 127360, Note_on_c, 0, 65, 79
2, 127360, Note_on_c, 0, 60, 79
2, 127680, Note_off_c, 0, 69, 79
2, 127680, Note_off_c, 0, 65, 79
2, 127680, Note_off_c, 0, 60, 79
2, 128320, Note_on_c, 0, 69, 79
2, 128320, Note_on_c, 0, 65, 79
2, 128320, Note_on_c, 0, 60, 79
2, 128640, Note_off_c, 0, 69, 79
2, 128640, Note_off_c, 0, 65, 79
2, 128640, Note_off_c, 0, 60, 79
2, 129280, Note_on_c, 0, 69, 79
2, 129280, Note_on_c, 0, 65, 79
2, 129280, Note_on_c, 0, 60, 79
2, 129600, Note_off_c, 0, 69, 79
2, 129600, Note_off_c, 0, 65, 79
2, 129600, Note_off_c, 0, 60, 79
2, 130240, Note_on_c, 0, 69, 79
2, 130240, Note_on_c, 0, 65, 79
2, 130240, Note_on_c, 0, 60, 79
2, 130560, Note_off_c, 0, 69, 79
2, 130560, Note_off_c, 0, 65, 79
2, 130560, Note_off_c, 0, 60, 79
2, 131200, Note_on_c, 0, 69, 79
2, 131200, Note_on_c, 0, 65, 79
2, 131200, Note_on_c, 0, 60, 79
2, 131520, Note_off_c, 0, 69, 79
2, 131520, Note_off_c, 0, 65, 79
2, 131520, Note_off_c, 0, 60, 79
2, 132160, Note_on_c, 0, 70, 79
2, 132160, Note_on_c, 0, 64, 79
2, 132160, Note_on_c, 0, 60, 79
2, 132480, Note_off_c, 0, 70, 79
2, 132480, Note_off_c, 0, 64, 79
2, 132480, Note_off_c, 0, 60, 79
2, 133120, Note_on_c, 0, 70, 79
2, 133120, Note_on_c, 0, 64, 79
2, 133120, Note_on_c, 0, 60, 79
2, 133440, Note_off_c, 0, 70, 79
2, 133440, Note_off_c, 0, 64, 79
2, 133440, Note_off_c, 0, 60, 79
2, 134080, Note_on_c, 0, 70, 79
2, 134080, Note_on_c, 0, 64, 79
2, 134080, Note_on_c, 0, 60, 79
2, 134400, Note_off_c, 0, 70, 79
2, 134400, Note_off_c, 0, 64, 79
2, 134400, Note_off_c, 0, 60, 79
2, 135040, Note_on_c, 0, 70, 79
2, 135040, Note_on_c, 0, 64, 79
2, 135040, Note_on_c, 0, 60, 79
2, 135360, Note_off_c, 0, 70, 79
2, 135360, Note_off_c, 0, 64, 79
2, 135360, Note_off_c, 0, 60, 79
2, 136000, Note_on_c, 0, 70, 79
2, 136000, Note_on_c, 0, 64, 79
2, 136000, Note_on_c, 0, 60, 79
2, 136320, Note_off_c, 0, 70, 79
2, 136320, Note_off_c, 0, 64, 79
2, 136320, Note_off_c, 0, 60, 79
2, 136960, Note_on_c, 0, 70, 79
2, 136960, Note_on_c, 0, 64, 79
2, 136960, Note_on_c, 0, 60, 79
2, 137280, Note_off_c, 0, 70, 79
2, 137280, Note_off_c, 0, 64, 79
2, 137280, Note_off_c, 0, 60, 79
2, 137920, Note_on_c, 0, 70, 79
2, 137920, Note_on_c, 0, 64, 79
2, 137920, Note_on_c, 0, 60, 79
2, 138240, Note_off_c, 0, 70, 79
2, 138240, Note_off_c, 0, 64, 79
2, 138240, Note_off_c, 0, 60, 79
2, 138880, Note_on_c, 0, 70, 79
2, 138880, Note_on_c, 0, 64, 79
2, 138880, Note_on_c, 0, 60, 79
2, 139200, Note_off_c, 0, 70, 79
2, 139200, Note_off_c, 0, 64, 79
2, 139200, Note_off_c, 0, 60, 79
2, 139840, Note_on_c, 0, 67, 79
2, 139840, Note_on_c, 0, 65, 79
2, 139840, Note_on_c, 0, 59, 79
2, 139840, Note_on_c, 0, 55, 79
2, 140160, Note_off_c, 0, 67, 79
2, 140160, Note_off_c, 0, 65, 79
2, 140160, Note_off_c, 0, 59, 79
2, 140160, Note_off_c, 0, 55, 79
2, 140800, Note_on_c, 0, 67, 79
2, 140800, Note_on_c, 0, 65, 79
2, 140800, Note_on_c, 0, 59, 79
2, 140800, Note_on_c, 0, 55, 79
2, 141120, Note_off_c, 0, 67, 79
2, 141120, Note_off_c, 0, 65, 79
2, 141120, Note_off_c, 0, 59, 79
2, 141120, Note_off_c, 0, 55, 79
2, 141760, Note_on_c, 0, 67, 79
2, 141760, Note_on_c, 0, 65, 79
2, 141760, Note_on_c, 0, 59, 79
2, 141760, Note_on_c, 0, 55, 79
2, 142080, Note_off_c, 0, 67, 79
2, 142080, Note_off_c, 0, 65, 79
2, 142080, Note_off_c, 0, 59, 79
2, 142080, Note_off_c, 0, 55, 79
2, 142720, Note_on_c, 0, 67, 79
2, 142720, Note_on_c, 0, 65, 79
2, 142720, Note_on_c, 0, 59, 79
2, 142720, Note_on_c, 0, 55, 79
2, 143040, Note_off_c, 0, 67, 79
2, 143040, Note_off_c, 0, 65, 79
2, 143040, Note_off_c, 0, 59, 79
2, 143040, Note_off_c, 0, 55, 79
2, 143680, Note_on_c, 0, 67, 79
2, 143680, Note_on_c, 0, 65, 79
2, 143680, Note_on_c, 0, 59, 79
2, 143680, Note_on_c, 0, 55, 79
2, 144000, Note_off_c, 0, 67, 79
2, 144000, Note_off_c, 0, 65, 79
2, 144000, Note_off_c, 0, 59, 79
2, 144000, Note_off_c, 0, 55, 79
2, 144640, Note_on_c, 0, 67, 79
2, 144640, Note_on_c, 0, 65, 79
2, 144640, Note_on_c, 0, 59, 79
2, 144640, Note_on_c, 0, 55, 79
2, 144960, Note_off_c, 0, 67, 79
2, 144960, Note_off_c, 0, 65, 79
2, 144960, Note_off_c, 0, 59, 79
2, 144960, Note_off_c, 0, 55, 79
2, 145600, Note_on_c, 0, 67, 79
2, 145600, Note_on_c, 0, 65, 79
2, 145600, Note_on_c, 0, 59, 79
2, 145600, Note_on_c, 0, 55, 79
2, 145920, Note_off_c, 0, 67, 79
2, 145920, Note_off_c, 0, 65, 79
2, 145920, Note_off_c, 0, 59, 79
2, 145920, Note_off_c, 0, 55, 79
2, 146560, Note_on_c, 0, 67, 79
2, 146560, Note_on_c, 0, 65, 79
2, 146560, Note_on_c, 0, 59, 79
2, 146560, Note_on_c, 0, 55, 79
2, 146880, Note_off_c, 0, 67, 79
2, 146880, Note_off_c, 0, 65, 79
2, 146880, Note_off_c, 0, 59, 79
2, 146880, Note_off_c, 0, 55, 79
2, 147520, Note_on_c, 0, 67, 79
2, 147520, Note_on_c, 0, 64, 79
2, 147520, Note_on_c, 0, 60, 79
2, 147840, Note_off_c, 0, 67, 79
2, 147840, Note_off_c, 0, 64, 79
2, 147840, Note_off_c, 0, 60, 79
2, 148480, Note_on_c, 0, 67, 79
2, 148480, Note_on_c, 0, 64, 79
2, 148480, Note_on_c, 0, 60, 79
2, 148800, Note_off_c, 0, 67, 79
2, 148800, Note_off_c, 0, 64, 79
2, 148800, Note_off_c, 0, 60, 79
2, 149440, Note_on_c, 0, 67, 79
2, 149440, Note_on_c, 0, 64, 79
2, 149440, Note_on_c, 0, 60, 79
2, 149760, Note_off_c, 0, 67, 79
2, 149760, Note_off_c, 0, 64, 79
2, 149760, Note_off_c, 0, 60, 79
2, 150400, Note_on_c, 0, 67, 79
2, 150400, Note_on_c, 0, 64, 79
2, 150400, Note_on_c, 0, 60, 79
2, 150720, Note_off_c, 0, 67, 79
2, 150720, Note_off_c, 0, 64, 79
2, 150720, Note_off_c, 0, 60, 79
2, 151360, Note_on_c, 0, 67, 79
2, 151360, Note_on_c, 0, 64, 79
2, 151360, Note_on_c, 0, 60, 79
2, 151680, Note_off_c, 0, 67, 79
2, 151680, Note_off_c, 0, 64, 79
2, 151680, Note_off_c, 0, 60, 79
2, 152320, Note_on_c, 0, 67, 79
2, 152320, Note_on_c, 0, 64, 79
2, 152320, Note_on_c, 0, 60, 79
2, 152640, Note_off_c, 0, 67, 79
2, 152640, Note_off_c, 0, 64, 79
2, 152640, Note_off_c, 0, 60, 79
2, 153280, Note_on_c, 0, 67, 79
2, 153280, Note_on_c, 0, 64, 79
2, 153280, Note_on_c, 0, 60, 79
2, 153600, Note_off_c, 0, 67, 79
2, 153600, Note_off_c, 0, 64, 79
2, 153600, Note_off_c, 0, 60, 79
2, 154240, Note_on_c, 0, 67, 79
2, 154240, Note_on_c, 0, 64, 79
2, 154240, Note_on_c, 0, 60, 79
2, 154560, Note_off_c, 0, 67, 79
2, 154560, Note_off_c, 0, 64, 79
2, 154560, Note_off_c, 0, 60, 79
2, 155200, Note_on_c, 0, 70, 79
2, 155200, Note_on_c, 0, 64, 79
2, 155200, Note_on_c, 0, 60, 79
2, 155520, Note_off_c, 0, 70, 79
2, 155520, Note_off_c, 0, 64, 79
2, 155520, Note_off_c, 0, 60, 79
2, 156160, Note_on_c, 0, 70, 79
2, 156160, Note_on_c, 0, 64, 79
2, 156160, Note_on_c, 0, 60, 79
2, 156480, Note_off_c, 0, 70, 79
2, 156480, Note_off_c, 0, 64, 79
2, 156480, Note_off_c, 0, 60, 79
2, 157120, Note_on_c, 0, 70, 79
2, 157120, Note_on_c, 0, 64, 79
2, 157120, Note_on_c, 0, 60, 79
2, 157440, Note_off_c, 0, 70, 79
2, 157440, Note_off_c, 0, 64, 79
2, 157440, Note_off_c, 0, 60, 79
2, 158080, Note_on_c, 0, 70, 79
2, 158080, Note_on_c, 0, 64, 79
2, 158080, Note_on_c, 0, 60, 79
2, 158400, Note_off_c, 0, 70, 79
2, 158400, Note_off_c, 0, 64, 79
2, 158400, Note_off_c, 0, 60, 79
2, 159040, Note_on_c, 0, 67, 79
2, 159040, Note_on_c, 0, 64, 79
2, 159040, Note_on_c, 0, 60, 79
2, 159360, Note_off_c, 0, 67, 79
2, 159360, Note_off_c, 0, 64, 79
2, 159360, Note_off_c, 0, 60, 79
2, 160000, Note_on_c, 0, 67, 79
2, 160000, Note_on_c, 0, 64, 79
2, 160000, Note_on_c, 0, 60, 79
2, 160320, Note_off_c, 0, 67, 79
2, 160320, Note_off_c, 0, 64, 79
2, 160320, Note_off_c, 0, 60, 79
2, 160960, Note_on_c, 0, 67, 79
2, 160960, Note_on_c, 0, 64, 79
2, 160960, Note_on_c, 0, 60, 79
2, 161280, Note_off_c, 0, 67, 79
2, 161280, Note_off_c, 0, 64, 79
2, 161280, Note_off_c, 0, 60, 79
2, 161920, Note_on_c, 0, 67, 79
2, 161920, Note_on_c, 0, 64, 79
2, 161920, Note_on_c, 0, 60, 79
2, 162240, Note_off_c, 0, 67, 79
2, 162240, Note_off_c, 0, 64, 79
2, 162240, Note_off_c, 0, 60, 79
2, 162880, Note_on_c, 0, 67, 79
2, 162880, Note_on_c, 0, 64, 79
2, 162880, Note_on_c, 0, 60, 79
2, 163200, Note_off_c, 0, 67, 79
2, 163200, Note_off_c, 0, 64, 79
2, 163200, Note_off_c, 0, 60, 79
2, 163840, Note_on_c, 0, 67, 79
2, 163840, Note_on_c, 0, 64, 79
2, 163840, Note_on_c, 0, 60, 79
2, 164160, Note_off_c, 0, 67, 79
2, 164160, Note_off_c, 0, 64, 79
2, 164160, Note_off_c, 0, 60, 79
2, 164800, Note_on_c, 0, 67, 79
2, 164800, Note_on_c, 0, 64, 79
2, 164800, Note_on_c, 0, 60, 79
2, 165120, Note_off_c, 0, 67, 79
2, 165120, Note_off_c, 0, 64, 79
2, 165120, Note_off_c, 0, 60, 79
2, 165760, Note_on_c, 0, 67, 79
2, 165760, Note_on_c, 0, 64, 79
2, 165760, Note_on_c, 0, 60, 79
2, 166080, Note_off_c, 0, 67, 79
2, 166080, Note_off_c, 0, 64, 79
2, 166080, Note_off_c, 0, 60, 79
2, 166720, Note_on_c, 0, 70, 79
2, 166720, Note_on_c, 0, 64, 79
2, 166720, Note_on_c, 0, 60, 79
2, 167040, Note_off_c, 0, 70, 79
2, 167040, Note_off_c, 0, 64, 79
2, 167040, Note_off_c, 0, 60, 79
2, 167680, Note_on_c, 0, 70, 79
2, 167680, Note_on_c, 0, 64, 79
2, 167680, Note_on_c, 0, 60, 79
2, 168000, Note_off_c, 0, 70, 79
2, 168000, Note_off_c, 0, 64, 79
2, 168000, Note_off_c, 0, 60, 79
2, 168640, Note_on_c, 0, 70, 79
2, 168640, Note_on_c, 0, 64, 79
2, 168640, Note_on_c, 0, 60, 79
2, 168960, Note_off_c, 0, 70, 79
2, 168960, Note_off_c, 0, 64, 79
2, 168960, Note_off_c, 0, 60, 79
2, 169600, Note_on_c, 0, 70, 79
2, 169600, Note_on_c, 0, 64, 79
2, 169600, Note_on_c, 0, 60, 79
2, 169920, Note_off_c, 0, 70, 79
2, 169920, Note_off_c, 0, 64, 79
2, 169920, Note_off_c, 0, 60, 79
2, 170560, Note_on_c, 0, 69, 79
2, 170560, Note_on_c, 0, 65, 79
2, 170560, Note_on_c, 0, 60, 79
2, 170880, Note_off_c, 0, 69, 79
2, 170880, Note_off_c, 0, 65, 79
2, 170880, Note_off_c, 0, 60, 79
2, 171520, Note_on_c, 0, 69, 79
2, 171520, Note_on_c, 0, 65, 79
2, 171520, Note_on_c, 0, 60, 79
2, 171840, Note_off_c, 0, 69, 79
2, 171840, Note_off_c, 0, 65, 79
2, 171840, Note_off_c, 0, 60, 79
2, 172480, Note_on_c, 0, 69, 79
2, 172480, Note_on_c, 0, 65, 79
2, 172480, Note_on_c, 0, 60, 79
2, 172800, Note_off_c, 0, 69, 79
2, 172800, Note_off_c, 0, 65, 79
2, 172800, Note_off_c, 0, 60, 79
2, 173440, Note_on_c, 0, 69, 79
2, 173440, Note_on_c, 0, 65, 79
2, 173440, Note_on_c, 0, 60, 79
2, 173760, Note_off_c, 0, 69, 79
2, 173760, Note_off_c, 0, 65, 79
2, 173760, Note_off_c, 0, 60, 79
2, 174400, Note_on_c, 0, 69, 79
2, 174400, Note_on_c, 0, 65, 79
2, 174400, Note_on_c, 0, 60, 79
2, 174720, Note_off_c, 0, 69, 79
2, 174720, Note_off_c, 0, 65, 79
2, 174720, Note_off_c, 0, 60, 79
2, 175360, Note_on_c, 0, 69, 79
2, 175360, Note_on_c, 0, 65, 79
2, 175360, Note_on_c, 0, 60, 79
2, 175680, Note_off_c, 0, 69, 79
2, 175680, Note_off_c, 0, 65, 79
2, 175680, Note_off_c, 0, 60, 79
2, 176320, Note_on_c, 0, 69, 79
2, 176320, Note_on_c, 0, 65, 79
2, 176320, Note_on_c, 0, 60, 79
2, 176640, Note_off_c, 0, 69, 79
2, 176640, Note_off_c, 0, 65, 79
2, 176640, Note_off_c, 0, 60, 79
2, 177280, Note_on_c, 0, 69, 79
2, 177280, Note_on_c, 0, 65, 79
2, 177280, Note_on_c, 0, 60, 79
2, 177600, Note_off_c, 0, 69, 79
2, 177600, Note_off_c, 0, 65, 79
2, 177600, Note_off_c, 0, 60, 79
2, 178240, Note_on_c, 0, 70, 79
2, 178240, Note_on_c, 0, 64, 79
2, 178240, Note_on_c, 0, 60, 79
2, 178560, Note_off_c, 0, 70, 79
2, 178560, Note_off_c, 0, 64, 79
2, 178560, Note_off_c, 0, 60, 79
2, 179200, Note_on_c, 0, 70, 79
2, 179200, Note_on_c, 0, 64, 79
2, 179200, Note_on_c, 0, 60, 79
2, 179520, Note_off_c, 0, 70, 79
2, 179520, Note_off_c, 0, 64, 79
2, 179520, Note_off_c, 0, 60, 79
2, 180160, Note_on_c, 0, 70, 79
2, 180160, Note_on_c, 0, 64, 79
2, 180160, Note_on_c, 0, 60, 79
2, 180480, Note_off_c, 0, 70, 79
2, 180480, Note_off_c, 0, 64, 79
2, 180480, Note_off_c, 0, 60, 79
2, 181120, Note_on_c, 0, 70, 79
2, 181120, Note_on_c, 0, 64, 79
2, 181120, Note_on_c, 0, 60, 79
2, 181440, Note_off_c, 0, 70, 79
2, 181440, Note_off_c, 0, 64, 79
2, 181440, Note_off_c, 0, 60, 79
2, 182080, Note_on_c, 0, 70, 79
2, 182080, Note_on_c, 0, 64, 79
2, 182080, Note_on_c, 0, 60, 79
2, 182400, Note_off_c, 0, 70, 79
2, 182400, Note_off_c, 0, 64, 79
2, 182400, Note_off_c, 0, 60, 79
2, 183040, Note_on_c, 0, 70, 79
2, 183040, Note_on_c, 0, 64, 79
2, 183040, Note_on_c, 0, 60, 79
2, 183360, Note_off_c, 0, 70, 79
2, 183360, Note_off_c, 0, 64, 79
2, 183360, Note_off_c, 0, 60, 79
2, 184000, Note_on_c, 0, 70, 79
2, 184000, Note_on_c, 0, 64, 79
2, 184000, Note_on_c, 0, 60, 79
2, 184320, Note_off_c, 0, 70, 79
2, 184320, Note_off_c, 0, 64, 79
2, 184320, Note_off_c, 0, 60, 79
2, 184960, Note_on_c, 0, 70, 79
2, 184960, Note_on_c, 0, 64, 79
2, 184960, Note_on_c, 0, 60, 79
2, 185280, Note_off_c, 0, 70, 79
2, 185280, Note_off_c, 0, 64, 79
2, 185280, Note_off_c, 0, 60, 79
2, 185920, Note_on_c, 0, 67, 79
2, 185920, Note_on_c, 0, 65, 79
2, 185920, Note_on_c, 0, 59, 79
2, 185920, Note_on_c, 0, 55, 79
2, 186240, Note_off_c, 0, 67, 79
2, 186240, Note_off_c, 0, 65, 79
2, 186240, Note_off_c, 0, 59, 79
2, 186240, Note_off_c, 0, 55, 79
2, 186880, Note_on_c, 0, 67, 79
2, 186880, Note_on_c, 0, 65, 79
2, 186880, Note_on_c, 0, 59, 79
2, 186880, Note_on_c, 0, 55, 79
2, 187200, Note_off_c, 0, 67, 79
2, 187200, Note_off_c, 0, 65, 79
2, 187200, Note_off_c, 0, 59, 79
2, 187200, Note_off_c, 0, 55, 79
2, 187840, Note_on_c, 0, 67, 79
2, 187840, Note_on_c, 0, 65, 79
2, 187840, Note_on_c, 0, 59, 79
2, 187840, Note_on_c, 0, 55, 79
2, 188160, Note_off_c, 0, 67, 79
2, 188160, Note_off_c, 0, 65, 79
2, 188160, Note_off_c, 0, 59, 79
2, 188160, Note_off_c, 0, 55, 79
2, 188800, Note_on_c, 0, 67, 79
2, 188800, Note_on_c, 0, 65, 79
2, 188800, Note_on_c, 0, 59, 79
2, 188800, Note_on_c, 0, 55, 79
2, 189120, Note_off_c, 0, 67, 79
2, 189120, Note_off_c, 0, 65, 79
2, 189120, Note_off_c, 0, 59, 79
2, 189120, Note_off_c, 0, 55, 79
2, 189760, Note_on_c, 0, 67, 79
2, 189760, Note_on_c, 0, 65, 79
2, 189760, Note_on_c, 0, 59, 79
2, 189760, Note_on_c, 0, 55, 79
2, 190080, Note_off_c, 0, 67, 79
2, 190080, Note_off_c, 0, 65, 79
2, 190080, Note_off_c, 0, 59, 79
2, 190080, Note_off_c, 0, 55, 79
2, 190720, Note_on_c, 0, 67, 79
2, 190720, Note_on_c, 0, 65, 79
2, 190720, Note_on_c, 0, 59, 79
2, 190720, Note_on_c, 0, 55, 79
2, 191040, Note_off_c, 0, 67, 79
2, 191040, Note_off_c, 0, 65, 79
2, 191040, Note_off_c, 0, 59, 79
2, 191040, Note_off_c, 0, 55, 79
2, 191680, Note_on_c, 0, 67, 79
2, 191680, Note_on_c, 0, 65, 79
2, 191680, Note_on_c, 0, 59, 79
2, 191680, Note_on_c, 0, 55, 79
2, 192000, Note_off_c, 0, 67, 79
2, 192000, Note_off_c, 0, 65, 79
2, 192000, Note_off_c, 0, 59, 79
2, 192000, Note_off_c, 0, 55, 79
2, 192640, Note_on_c, 0, 67, 79
2, 192640, Note_on_c, 0, 65, 79
2, 192640, Note_on_c, 0, 59, 79
2, 192640, Note_on_c, 0, 55, 79
2, 192960, Note_off_c, 0, 67, 79
2, 192960, Note_off_c, 0, 65, 79
2, 192960, Note_off_c, 0, 59, 79
2, 192960, Note_off_c, 0, 55, 79
2, 193600, Note_on_c, 0, 67, 79
2, 193600, Note_on_c, 0, 64, 79
2, 193600, Note_on_c, 0, 60, 79
2, 193920, Note_off_c, 0, 67, 79
2, 193920, Note_off_c, 0, 64, 79
2, 193920, Note_off_c, 0, 60, 79
2, 194560, Note_on_c, 0, 67, 79
2, 194560, Note_on_c, 0, 64, 79
2, 194560, Note_on_c, 0, 60, 79
2, 194880, Note_off_c, 0, 67, 79
2, 194880, Note_off_c, 0, 64, 79
2, 194880, Note_off_c, 0, 60, 79
2, 195520, Note_on_c, 0, 67, 79
2, 195520, Note_on_c, 0, 64, 79
2, 195520, Note_on_c, 0, 60, 79
2, 195840, Note_off_c, 0, 67, 79
2, 195840, Note_off_c, 0, 64, 79
2, 195840, Note_off_c, 0, 60, 79
2, 196480, Note_on_c, 0, 67, 79
2, 196480, Note_on_c, 0, 64, 79
2, 196480, Note_on_c, 0, 60, 79
2, 196800, Note_off_c, 0, 67, 79
2, 196800, Note_off_c, 0, 64, 79
2, 196800, Note_off_c, 0, 60, 79
2, 201280, Note_on_c, 0, 70, 79
2, 201280, Note_on_c, 0, 64, 79
2, 201280, Note_on_c, 0, 60, 79
2, 201600, Note_off_c, 0, 70, 79
2, 201600, Note_off_c, 0, 64, 79
2, 201600, Note_off_c, 0, 60, 79
2, 202240, Note_on_c, 0, 70, 79
2, 202240, Note_on_c, 0, 64, 79
2, 202240, Note_on_c, 0, 60, 79
2, 202560, Note_off_c, 0, 70, 79
2, 202560, Note_off_c, 0, 64, 79
2, 202560, Note_off_c, 0, 60, 79
2, 203200, Note_on_c, 0, 70, 79
2, 203200, Note_on_c, 0, 64, 79
2, 203200, Note_on_c, 0, 60, 79
2, 203520, Note_off_c, 0, 70, 79
2, 203520, Note_off_c, 0, 64, 79
2, 203520, Note_off_c, 0, 60, 79
2, 204160, Note_on_c, 0, 70, 79
2, 204160, Note_on_c, 0, 64, 79
2, 204160, Note_on_c, 0, 60, 79
2, 204480, Note_off_c, 0, 70, 79
2, 204480, Note_off_c, 0, 64, 79
2, 204480, Note_off_c, 0, 60, 79
2, 205120, Note_on_c, 0, 67, 79
2, 205120, Note_on_c, 0, 64, 79
2, 205120, Note_on_c, 0, 60, 79
2, 205440, Note_off_c, 0, 67, 79
2, 205440, Note_off_c, 0, 64, 79
2, 205440, Note_off_c, 0, 60, 79
2, 206080, Note_on_c, 0, 67, 79
2, 206080, Note_on_c, 0, 64, 79
2, 206080, Note_on_c, 0, 60, 79
2, 206400, Note_off_c, 0, 67, 79
2, 206400, Note_off_c, 0, 64, 79
2, 206400, Note_off_c, 0, 60, 79
2, 207040, Note_on_c, 0, 67, 79
2, 207040, Note_on_c, 0, 64, 79
2, 207040, Note_on_c, 0, 60, 79
2, 207360, Note_off_c, 0, 67, 79
2, 207360, Note_off_c, 0, 64, 79
2, 207360, Note_off_c, 0, 60, 79
2, 208000, Note_on_c, 0, 67, 79
2, 208000, Note_on_c, 0, 64, 79
2, 208000, Note_on_c, 0, 60, 79
2, 208320, Note_off_c, 0, 67, 79
2, 208320, Note_off_c, 0, 64, 79
2, 208320, Note_off_c, 0, 60, 79
2, 208960, Note_on_c, 0, 67, 79
2, 208960, Note_on_c, 0, 64, 79
2, 208960, Note_on_c, 0, 60, 79
2, 209280, Note_off_c, 0, 67, 79
2, 209280, Note_off_c, 0, 64, 79
2, 209280, Note_off_c, 0, 60, 79
2, 209920, Note_on_c, 0, 67, 79
2, 209920, Note_on_c, 0, 64, 79
2, 209920, Note_on_c, 0, 60, 79
2, 210240, Note_off_c, 0, 67, 79
2, 210240, Note_off_c, 0, 64, 79
2, 210240, Note_off_c, 0, 60, 79
2, 210880, Note_on_c, 0, 67, 79
2, 210880, Note_on_c, 0, 64, 79
2, 210880, Note_on_c, 0, 60, 79
2, 211200, Note_off_c, 0, 67, 79
2, 211200, Note_off_c, 0, 64, 79
2, 211200, Note_off_c, 0, 60, 79
2, 211840, Note_on_c, 0, 67, 79
2, 211840, Note_on_c, 0, 64, 79
2, 211840, Note_on_c, 0, 60, 79
2, 212160, Note_off_c, 0, 67, 79
2, 212160, Note_off_c, 0, 64, 79
2, 212160, Note_off_c, 0, 60, 79
2, 212800, Note_on_c, 0, 70, 79
2, 212800, Note_on_c, 0, 64, 79
2, 212800, Note_on_c, 0, 60, 79
2, 213120, Note_off_c, 0, 70, 79
2, 213120, Note_off_c, 0, 64, 79
2, 213120, Note_off_c, 0, 60, 79
2, 213760, Note_on_c, 0, 70, 79
2, 213760, Note_on_c, 0, 64, 79
2, 213760, Note_on_c, 0, 60, 79
2, 214080, Note_off_c, 0, 70, 79
2, 214080, Note_off_c, 0, 64, 79
2, 214080, Note_off_c, 0, 60, 79
2, 214720, Note_on_c, 0, 70, 79
2, 214720, Note_on_c, 0, 64, 79
2, 214720, Note_on_c, 0, 60, 79
2, 215040, Note_off_c, 0, 70, 79
2, 215040, Note_off_c, 0, 64, 79
2, 215040, Note_off_c, 0, 60, 79
2, 215680, Note_on_c, 0, 70, 79
2, 215680, Note_on_c, 0, 64, 79
2, 215680, Note_on_c, 0, 60, 79
2, 216000, Note_off_c, 0, 70, 79
2, 216000, Note_off_c, 0, 64, 79
2, 216000, Note_off_c, 0, 60, 79
2, 216640, Note_on_c, 0, 69, 79
2, 216640, Note_on_c, 0, 65, 79
2, 216640, Note_on_c, 0, 60, 79
2, 216960, Note_off_c, 0, 69, 79
2, 216960, Note_off_c, 0, 65, 79
2, 216960, Note_off_c, 0, 60, 79
2, 217600, Note_on_c, 0, 69, 79
2, 217600, Note_on_c, 0, 65, 79
2, 217600, Note_on_c, 0, 60, 79
2, 217920, Note_off_c, 0, 69, 79
2, 217920, Note_off_c, 0, 65, 79
2, 217920, Note_off_c, 0, 60, 79
2, 218560, Note_on_c, 0, 69, 79
2, 218560, Note_on_c, 0, 65, 79
2, 218560, Note_on_c, 0, 60, 79
2, 218880, Note_off_c, 0, 69, 79
2, 218880, Note_off_c, 0, 65, 79
2, 218880, Note_off_c, 0, 60, 79
2, 219520, Note_on_c, 0, 69, 79
2, 219520, Note_on_c, 0, 65, 79
2, 219520, Note_on_c, 0, 60, 79
2, 219840, Note_off_c, 0, 69, 79
2, 219840, Note_off_c, 0, 65, 79
2, 219840, Note_off_c, 0, 60, 79
2, 220480, Note_on_c, 0, 69, 79
2, 220480, Note_on_c, 0, 65, 79
2, 220480, Note_on_c, 0, 60, 79
2, 220800, Note_off_c, 0, 69, 79
2, 220800, Note_off_c, 0, 65, 79
2, 220800, Note_off_c, 0, 60, 79
2, 221440, Note_on_c, 0, 69, 79
2, 221440, Note_on_c, 0, 65, 79
2, 221440, Note_on_c, 0, 60, 79
2, 221760, Note_off_c, 0, 69, 79
2, 221760, Note_off_c, 0, 65, 79
2, 221760, Note_off_c, 0, 60, 79
2, 222400, Note_on_c, 0, 69, 79
2, 222400, Note_on_c, 0, 65, 79
2, 222400, Note_on_c, 0, 60, 79
2, 222720, Note_off_c, 0, 69, 79
2, 222720, Note_off_c, 0, 65, 79
2, 222720, Note_off_c, 0, 60, 79
2, 223360, Note_on_c, 0, 69, 79
2, 223360, Note_on_c, 0, 65, 79
2, 223360, Note_on_c, 0, 60, 79
2, 223680, Note_off_c, 0, 69, 79
2, 223680, Note_off_c, 0, 65, 79
2, 223680, Note_off_c, 0, 60, 79
2, 224320, Note_on_c, 0, 70, 79
2, 224320, Note_on_c, 0, 64, 79
2, 224320, Note_on_c, 0, 60, 79
2, 224640, Note_off_c, 0, 70, 79
2, 224640, Note_off_c, 0, 64, 79
2, 224640, Note_off_c, 0, 60, 79
2, 225280, Note_on_c, 0, 70, 79
2, 225280, Note_on_c, 0, 64, 79
2, 225280, Note_on_c, 0, 60, 79
2, 225600, Note_off_c, 0, 70, 79
2, 225600, Note_off_c, 0, 64, 79
2, 225600, Note_off_c, 0, 60, 79
2, 226240, Note_on_c, 0, 70, 79
2, 226240, Note_on_c, 0, 64, 79
2, 226240, Note_on_c, 0, 60, 79
2, 226560, Note_off_c, 0, 70, 79
2, 226560, Note_off_c, 0, 64, 79
2, 226560, Note_off_c, 0, 60, 79
2, 227200, Note_on_c, 0, 70, 79
2, 227200, Note_on_c, 0, 64, 79
2, 227200, Note_on_c, 0, 60, 79
2, 227520, Note_off_c, 0, 70, 79
2, 227520, Note_off_c, 0, 64, 79
2, 227520, Note_off_c, 0, 60, 79
2, 228160, Note_on_c, 0, 70, 79
2, 228160, Note_on_c, 0, 64, 79
2, 228160, Note_on_c, 0, 60, 79
2, 228480, Note_off_c, 0, 70, 79
2, 228480, Note_off_c, 0, 64, 79
2, 228480, Note_off_c, 0, 60, 79
2, 229120, Note_on_c, 0, 70, 79
2, 229120, Note_on_c, 0, 64, 79
2, 229120, Note_on_c, 0, 60, 79
2, 229440, Note_off_c, 0, 70, 79
2, 229440, Note_off_c, 0, 64, 79
2, 229440, Note_off_c, 0, 60, 79
2, 230080, Note_on_c, 0, 70, 79
2, 230080, Note_on_c, 0, 64, 79
2, 230080, Note_on_c, 0, 60, 79
2, 230400, Note_off_c, 0, 70, 79
2, 230400, Note_off_c, 0, 64, 79
2, 230400, Note_off_c, 0, 60, 79
2, 231040, Note_on_c, 0, 70, 79
2, 231040, Note_on_c, 0, 64, 79
2, 231040, Note_on_c, 0, 60, 79
2, 231360, Note_off_c, 0, 70, 79
2, 231360, Note_off_c, 0, 64, 79
2, 231360, Note_off_c, 0, 60, 79
2, 232000, Note_on_c, 0, 67, 79
2, 232000, Note_on_c, 0, 65, 79
2, 232000, Note_on_c, 0, 59, 79
2, 232000, Note_on_c, 0, 55, 79
2, 232320, Note_off_c, 0, 67, 79
2, 232320, Note_off_c, 0, 65, 79
2, 232320, Note_off_c, 0, 59, 79
2, 232320, Note_off_c, 0, 55, 79
2, 232960, Note_on_c, 0, 67, 79
2, 232960, Note_on_c, 0, 65, 79
2, 232960, Note_on_c, 0, 59, 79
2, 232960, Note_on_c, 0, 55, 79
2, 233280, Note_off_c, 0, 67, 79
2, 233280, Note_off_c, 0, 65, 79
2, 233280, Note_off_c, 0, 59, 79
2, 233280, Note_off_c, 0, 55, 79
2, 233920, Note_on_c, 0, 67, 79
2, 233920, Note_on_c, 0, 65, 79
2, 233920, Note_on_c, 0, 59, 79
2, 233920, Note_on_c, 0, 55, 79
2, 234240, Note_off_c, 0, 67, 79
2, 234240, Note_off_c, 0, 65, 79
2, 234240, Note_off_c, 0, 59, 79
2, 234240, Note_off_c, 0, 55, 79
2, 234880, Note_on_c, 0, 67, 79
2, 234880, Note_on_c, 0, 65, 79
2, 234880, Note_on_c, 0, 59, 79
2, 234880, Note_on_c, 0, 55, 79
2, 235200, Note_off_c, 0, 67, 79
2, 235200, Note_off_c, 0, 65, 79
2, 235200, Note_off_c, 0, 59, 79
2, 235200, Note_off_c, 0, 55, 79
2, 235840, Note_on_c, 0, 67, 79
2, 235840, Note_on_c, 0, 65, 79
2, 235840, Note_on_c, 0, 59, 79
2, 235840, Note_on_c, 0, 55, 79
2, 236160, Note_off_c, 0, 67, 79
2, 236160, Note_off_c, 0, 65, 79
2, 236160, Note_off_c, 0, 59, 79
2, 236160, Note_off_c, 0, 55, 79
2, 236800, Note_on_c, 0, 67, 79
2, 236800, Note_on_c, 0, 65, 79
2, 236800, Note_on_c, 0, 59, 79
2, 236800, Note_on_c, 0, 55, 79
2, 237120, Note_off_c, 0, 67, 79
2, 237120, Note_off_c, 0, 65, 79
2, 237120, Note_off_c, 0, 59, 79
2, 237120, Note_off_c, 0, 55, 79
2, 237760, Note_on_c, 0, 67, 79
2, 237760, Note_on_c, 0, 65, 79
2, 237760, Note_on_c, 0, 59, 79
2, 237760, Note_on_c, 0, 55, 79
2, 238080, Note_off_c, 0, 67, 79
2, 238080, Note_off_c, 0, 65, 79
2, 238080, Note_off_c, 0, 59, 79
2, 238080, Note_off_c, 0, 55, 79
2, 238720, Note_on_c, 0, 67, 79
2, 238720, Note_on_c, 0, 65, 79
2, 238720, Note_on_c, 0, 59, 79
2, 238720, Note_on_c, 0, 55, 79
2, 239040, Note_off_c, 0, 67, 79
2, 239040, Note_off_c, 0, 65, 79
2, 239040, Note_off_c, 0, 59, 79
2, 239040, Note_off_c, 0, 55, 79
2, 239680, Note_on_c, 0, 67, 79
2, 239680, Note_on_c, 0, 64, 79
2, 239680, Note_on_c, 0, 60, 79
2, 240000, Note_off_c, 0, 67, 79
2, 240000, Note_off_c, 0, 64, 79
2, 240000, Note_off_c, 0, 60, 79
2, 242880, Note_on_c, 0, 67, 79
2, 243840, Note_off_c, 0, 67, 79
2, 243840, Note_on_c, 0, 67, 79
2, 244480, Note_off_c, 0, 67, 79
2, 245760, Note_on_c, 0, 64, 79
2, 245760, Note_on_c, 0, 58, 79
2, 245760, Note_on_c, 0, 55, 79
2, 245760, Note_on_c, 0, 48, 79
2, 246720, Note_off_c, 0, 64, 79
2, 246720, Note_off_c, 0, 58, 79
2, 246720, Note_off_c, 0, 55, 79
2, 246720, Note_off_c, 0, 48, 79
2, 246720, End_track
0, 0, End_of_file
