0, 0, Header, 1, 17, 192
1, 0, Start_track
1, 0, Tempo, 769230
1, 0, Time_signature, 4, 2, 24, 8
1, 16, System_exclusive, 5, 126, 127, 9, 1, 247
1, 32, System_exclusive, 10, 65, 16, 66, 18, 64, 0, 127, 0, 65, 247
1, 64, System_exclusive, 10, 65, 16, 66, 18, 64, 1, 51, 80, 60, 247
1, 96, System_exclusive, 10, 65, 16, 66, 18, 64, 1, 52, 100, 39, 247
1, 144, System_exclusive, 25, 65, 16, 66, 18, 64, 1, 0, 32, 40, 99, 41, 32, 69, 77, 80, 32, 115, 114, 108, 32, 32, 32, 32, 120, 247
1, 58320, Tempo, 800000
1, 58704, Tempo, 857142
1, 60288, End_track
2, 0, Start_track
2, 0, Title_t, "Soft karaoke"
2, 0, Text_t, "@KMIDI KARAOKE FILE"
2, 0, End_track
3, 0, Start_track
3, 0, Title_t, "Words"
3, 0, Text_t, "@LENGL"
3, 0, Text_t, "@TAll "
3, 0, Text_t, "@Tby  re"
3, 0, Text_t, "\\All "
3, 0, Text_t, "rights"
3, 0, Text_t, " re"
3, 0, Text_t, "served "
3, 448, Text_t, "/Whe"
3, 553, Text_t, "ne"
3, 637, Text_t, "ver "
3, 710, Text_t, "I "
3, 761, Text_t, "say "
3, 803, Text_t, "your "
3, 1043, Text_t, "na"
3, 1106, Text_t, "me"
3, 1231, Text_t, "/sin"
3, 1315, Text_t, "cro "
3, 1366, Text_t, "by "
3, 1513, Text_t, "ka"
3, 1649, Text_t, "tia"
3, 2317, Text_t, "\\Whe"
3, 2380, Text_t, "ne"
3, 2451, Text_t, "ver "
3, 2525, Text_t, "I "
3, 2599, Text_t, "say "
3, 2683, Text_t, "your "
3, 2755, Text_t, "na"
3, 2818, Text_t, "me, "
3, 2944, Text_t, "/whe"
3, 3007, Text_t, "ne"
3, 3068, Text_t, "ver "
3, 3120, Text_t, "I "
3, 3186, Text_t, "call "
3, 3246, Text_t, "to "
3, 3298, Text_t, "mind "
3, 3391, Text_t, "your "
3, 3496, Text_t, "fa"
3, 3642, Text_t, "ce"
3, 3862, Text_t, "/Wha"
3, 3925, Text_t, "te"
3, 3977, Text_t, "ver "
3, 4039, Text_t, "bread"
3, 4092, Text_t, "'"
3, 4154, Text_t, "s "
3, 4204, Text_t, "in "
3, 4268, Text_t, "my "
3, 4331, Text_t, "mou"
3, 4394, Text_t, "th, "
3, 4489, Text_t, "\\wha"
3, 4540, Text_t, "te"
3, 4592, Text_t, "ver "
3, 4656, Text_t, "the "
3, 4697, Text_t, "swee"
3, 4758, Text_t, "te"
3, 4841, Text_t, "st "
3, 4904, Text_t, "wi"
3, 4968, Text_t, "ne "
3, 5020, Text_t, "that "
3, 5082, Text_t, "I "
3, 5165, Text_t, "ta"
3, 5239, Text_t, "ste"
3, 5395, Text_t, "/Whe"
3, 5459, Text_t, "ne"
3, 5510, Text_t, "ver "
3, 5573, Text_t, "your "
3, 5624, Text_t, "me"
3, 5687, Text_t, "mo"
3, 5750, Text_t, "ry "
3, 5801, Text_t, "fee"
3, 5863, Text_t, "ds "
3, 5937, Text_t, "my "
3, 6003, Text_t, "soul, "
3, 6188, Text_t, "/wha"
3, 6240, Text_t, "te"
3, 6303, Text_t, "ver "
3, 6366, Text_t, "got "
3, 6418, Text_t, "bro"
3, 6481, Text_t, "ken "
3, 6574, Text_t, "be"
3, 6636, Text_t, "co"
3, 6690, Text_t, "mes "
3, 6752, Text_t, "who"
3, 6813, Text_t, "le"
3, 6971, Text_t, "\\Whe"
3, 7033, Text_t, "ne"
3, 7084, Text_t, "ver "
3, 7136, Text_t, "I'"
3, 7200, Text_t, "m "
3, 7251, Text_t, "fil"
3, 7304, Text_t, "led "
3, 7367, Text_t, "wi"
3, 7418, Text_t, "th "
3, 7471, Text_t, "dou"
3, 7534, Text_t, "b"
3, 7597, Text_t, "ts "
3, 7648, Text_t, "/that "
3, 7711, Text_t, "we "
3, 7784, Text_t, "will "
3, 7837, Text_t, "be "
3, 7920, Text_t, "to"
3, 7992, Text_t, "ge"
3, 8077, Text_t, "ther"
3, 8462, Text_t, "/Whe"
3, 8525, Text_t, "re"
3, 8587, Text_t, "ver "
3, 8651, Text_t, "I "
3, 8702, Text_t, "lay "
3, 8775, Text_t, "me "
3, 8858, Text_t, "do"
3, 8931, Text_t, "wn, "
3, 9078, Text_t, "\\whe"
3, 9140, Text_t, "re"
3, 9182, Text_t, "ver "
3, 9245, Text_t, "I "
3, 9296, Text_t, "put "
3, 9350, Text_t, "my "
3, 9431, Text_t, "head "
3, 9525, Text_t, "to "
3, 9620, Text_t, "sleep"
3, 10007, Text_t, "/Whe"
3, 10070, Text_t, "ne"
3, 10121, Text_t, "ver "
3, 10184, Text_t, "I "
3, 10247, Text_t, "hurt "
3, 10310, Text_t, "and "
3, 10413, Text_t, "cry, "
3, 10591, Text_t, "/whe"
3, 10654, Text_t, "ne"
3, 10706, Text_t, "ver "
3, 10768, Text_t, "I "
3, 10820, Text_t, "got "
3, 10883, Text_t, "to "
3, 10957, Text_t, "lie "
3, 11112, Text_t, "a"
3, 11175, Text_t, "wa"
3, 11228, Text_t, "ke "
3, 11289, Text_t, "and "
3, 11384, Text_t, "weep"
3, 11561, Text_t, "\\Whe"
3, 11623, Text_t, "ne"
3, 11676, Text_t, "ver "
3, 11738, Text_t, "I "
3, 11792, Text_t, "kneel "
3, 11854, Text_t, "to "
3, 11946, Text_t, "pray, "
3, 12104, Text_t, "/whe"
3, 12157, Text_t, "ne"
3, 12218, Text_t, "ver "
3, 12271, Text_t, "I "
3, 12333, Text_t, "need "
3, 12397, Text_t, "to "
3, 12437, Text_t, "find "
3, 12511, Text_t, "a "
3, 12625, Text_t, "way"
3, 12749, Text_t, "/I'"
3, 12813, Text_t, "m "
3, 12855, Text_t, "cal"
3, 12917, Text_t, "ling "
3, 12971, Text_t, "out "
3, 13063, Text_t, "your "
3, 13125, Text_t, "na"
3, 13241, Text_t, "me"
3, 14088, Text_t, "\\Whe"
3, 14138, Text_t, "ne"
3, 14199, Text_t, "ver "
3, 14452, Text_t, "tho"
3, 14514, Text_t, "se "
3, 14565, Text_t, "dark "
3, 14619, Text_t, "clou"
3, 14703, Text_t, "ds "
3, 14755, Text_t, "hi"
3, 14807, Text_t, "de "
3, 14881, Text_t, "the "
3, 14943, Text_t, "moon"
3, 15088, Text_t, "/Whe"
3, 15443, Text_t, "ne"
3, 15506, Text_t, "ver "
3, 15560, Text_t, "this "
3, 15622, Text_t, "world "
3, 15675, Text_t, "has "
3, 15736, Text_t, "got"
3, 15799, Text_t, "ten "
3, 15850, Text_t, "so "
3, 15903, Text_t, "stran"
3, 16028, Text_t, "ge"
3, 16174, Text_t, "/I "
3, 16414, Text_t, "know "
3, 16495, Text_t, "that "
3, 16562, Text_t, "so"
3, 16624, Text_t, "me"
3, 16674, Text_t, "thing"
3, 16727, Text_t, "'"
3, 16822, Text_t, "s "
3, 16907, Text_t, "gon"
3, 16957, Text_t, "na "
3, 16999, Text_t, "chan"
3, 17052, Text_t, "ge"
3, 17093, Text_t, "\\So"
3, 17145, Text_t, "me"
3, 17197, Text_t, "thing"
3, 17235, Text_t, "'"
3, 17290, Text_t, "s "
3, 17335, Text_t, "gon"
3, 17376, Text_t, "na "
3, 17426, Text_t, "chan"
3, 17520, Text_t, "ge"
3, 17822, Text_t, "/Whe"
3, 17875, Text_t, "ne"
3, 17927, Text_t, "ver "
3, 17981, Text_t, "I "
3, 18033, Text_t, "say "
3, 18083, Text_t, "your "
3, 18125, Text_t, "na"
3, 18178, Text_t, "me, "
3, 18263, Text_t, "/Whe"
3, 18312, Text_t, "ne"
3, 18365, Text_t, "ver "
3, 18406, Text_t, "I "
3, 18458, Text_t, "say "
3, 18512, Text_t, "your "
3, 18554, Text_t, "na"
3, 18604, Text_t, "me, "
3, 18656, Text_t, "\\I'"
3, 18709, Text_t, "m "
3, 18763, Text_t, "alrea"
3, 18797, Text_t, "dy "
3, 18854, Text_t, "praying, "
3, 18896, Text_t, "/I'"
3, 18950, Text_t, "m "
3, 19002, Text_t, "alrea"
3, 19053, Text_t, "dy "
3, 19105, Text_t, "praying"
3, 19387, Text_t, "/I'"
3, 19443, Text_t, "m "
3, 19502, Text_t, "alrea"
3, 19554, Text_t, "dy "
3, 19626, Text_t, "fil"
3, 19699, Text_t, "led "
3, 19764, Text_t, "wi"
3, 19814, Text_t, "th "
3, 19867, Text_t, "a "
3, 19924, Text_t, "joy "
3, 19970, Text_t, "\\that "
3, 20012, Text_t, "I "
3, 20064, Text_t, "can'"
3, 20119, Text_t, "t "
3, 20171, Text_t, "e"
3, 20263, Text_t, "xplain"
3, 20409, Text_t, "/Whe"
3, 20471, Text_t, "re"
3, 20534, Text_t, "ver "
3, 20576, Text_t, "I "
3, 20640, Text_t, "lay "
3, 20689, Text_t, "me "
3, 20754, Text_t, "do"
3, 20826, Text_t, "wn, "
3, 20982, Text_t, "/whe"
3, 21047, Text_t, "re"
3, 21080, Text_t, "ver "
3, 21150, Text_t, "I "
3, 21210, Text_t, "re"
3, 21287, Text_t, "st "
3, 21338, Text_t, "my "
3, 21400, Text_t, "wea"
3, 21460, Text_t, "ry "
3, 21536, Text_t, "head "
3, 21588, Text_t, "to "
3, 21650, Text_t, "sleep"
3, 21901, Text_t, "\\Whe"
3, 21963, Text_t, "ne"
3, 22016, Text_t, "ver "
3, 22067, Text_t, "I "
3, 22129, Text_t, "hurt "
3, 22215, Text_t, "and "
3, 22307, Text_t, "cry, "
3, 22506, Text_t, "/whe"
3, 22560, Text_t, "ne"
3, 22608, Text_t, "ver "
3, 22673, Text_t, "I "
3, 22725, Text_t, "got "
3, 22800, Text_t, "to "
3, 22892, Text_t, "lie "
3, 22956, Text_t, "a"
3, 23039, Text_t, "wa"
3, 23112, Text_t, "ke "
3, 23185, Text_t, "and "
3, 23267, Text_t, "weep"
3, 23465, Text_t, "/Whe"
3, 23538, Text_t, "ne"
3, 23591, Text_t, "ver "
3, 23654, Text_t, "I'"
3, 23717, Text_t, "m "
3, 23767, Text_t, "on "
3, 23842, Text_t, "the "
3, 23915, Text_t, "floor"
3, 24031, Text_t, "\\Wha"
3, 24103, Text_t, "te"
3, 24152, Text_t, "ver "
3, 24207, Text_t, "it "
3, 24269, Text_t, "was "
3, 24332, Text_t, "that "
3, 24395, Text_t, "I "
3, 24498, Text_t, "be"
3, 24584, Text_t, "lie"
3, 24667, Text_t, "ved "
3, 24748, Text_t, "be"
3, 24824, Text_t, "fo"
3, 24884, Text_t, "re"
3, 24999, Text_t, "/Whe"
3, 25073, Text_t, "ne"
3, 25126, Text_t, "ver "
3, 25187, Text_t, "I "
3, 25271, Text_t, "say "
3, 25344, Text_t, "your "
3, 25406, Text_t, "na"
3, 25470, Text_t, "me, "
3, 25595, Text_t, "/whe"
3, 25668, Text_t, "ne"
3, 25730, Text_t, "ver "
3, 25793, Text_t, "I "
3, 25844, Text_t, "say "
3, 25908, Text_t, "it "
3, 25991, Text_t, "loud, "
3, 26053, Text_t, "\\I'"
3, 26136, Text_t, "m "
3, 26199, Text_t, "alrea"
3, 26272, Text_t, "dy "
3, 26377, Text_t, "praying"
3, 28058, Text_t, "\\Whe"
3, 28121, Text_t, "ne"
3, 28185, Text_t, "ver "
3, 28237, Text_t, "this "
3, 28301, Text_t, "world "
3, 28361, Text_t, "has "
3, 28435, Text_t, "got "
3, 28497, Text_t, "me "
3, 28560, Text_t, "do"
3, 28633, Text_t, "wn, "
3, 28695, Text_t, "/whe"
3, 28873, Text_t, "ne"
3, 28935, Text_t, "ver "
3, 28987, Text_t, "I "
3, 29051, Text_t, "shed "
3, 29186, Text_t, "a "
3, 29280, Text_t, "tear"
3, 29603, Text_t, "/Whe"
3, 29678, Text_t, "ne"
3, 29718, Text_t, "ver "
3, 29782, Text_t, "the "
3, 29844, Text_t, "TV "
3, 29906, Text_t, "ma"
3, 30020, Text_t, "kes "
3, 30084, Text_t, "me "
3, 30146, Text_t, "mad, "
3, 30355, Text_t, "\\whe"
3, 30418, Text_t, "ne"
3, 30480, Text_t, "ver "
3, 30543, Text_t, "I'"
3, 30586, Text_t, "m "
3, 30668, Text_t, "pa"
3, 30731, Text_t, "ra"
3, 30792, Text_t, "ly"
3, 30855, Text_t, "zed "
3, 30918, Text_t, "wi"
3, 30993, Text_t, "th "
3, 31066, Text_t, "fear"
3, 31159, Text_t, "/Whe"
3, 31220, Text_t, "ne"
3, 31284, Text_t, "ver "
3, 31335, Text_t, "tho"
3, 31419, Text_t, "se "
3, 31481, Text_t, "dark "
3, 31535, Text_t, "clou"
3, 31598, Text_t, "ds "
3, 31658, Text_t, "fill "
3, 31721, Text_t, "the "
3, 31783, Text_t, "sky, "
3, 31920, Text_t, "/whe"
3, 31982, Text_t, "ne"
3, 32046, Text_t, "ver "
3, 32097, Text_t, "I "
3, 32160, Text_t, "lo"
3, 32212, Text_t, "se "
3, 32276, Text_t, "the "
3, 32327, Text_t, "rea"
3, 32391, Text_t, "son "
3, 32471, Text_t, "why"
3, 32681, Text_t, "\\Whe"
3, 32744, Text_t, "ne"
3, 32806, Text_t, "ver "
3, 32859, Text_t, "I'"
3, 32910, Text_t, "m "
3, 32976, Text_t, "fil"
3, 33025, Text_t, "led "
3, 33087, Text_t, "wi"
3, 33140, Text_t, "th "
3, 33193, Text_t, "dou"
3, 33245, Text_t, "b"
3, 33298, Text_t, "ts "
3, 33339, Text_t, "/that "
3, 33380, Text_t, "we "
3, 33453, Text_t, "will "
3, 33515, Text_t, "be "
3, 33629, Text_t, "to"
3, 33724, Text_t, "ge"
3, 33820, Text_t, "ther"
3, 34225, Text_t, "/Whe"
3, 34277, Text_t, "ne"
3, 34329, Text_t, "ver "
3, 34382, Text_t, "the "
3, 34445, Text_t, "sun "
3, 34509, Text_t, "re"
3, 34600, Text_t, "fu"
3, 34642, Text_t, "se "
3, 34747, Text_t, "to "
3, 34820, Text_t, "shi"
3, 34904, Text_t, "ne, "
3, 35018, Text_t, "\\whe"
3, 35081, Text_t, "ne"
3, 35133, Text_t, "ver "
3, 35195, Text_t, "the "
3, 35258, Text_t, "skies "
3, 35300, Text_t, "a"
3, 35353, Text_t, "re "
3, 35425, Text_t, "pou"
3, 35478, Text_t, "ring "
3, 35530, Text_t, "rain"
3, 35737, Text_t, "/Wha"
3, 35791, Text_t, "te"
3, 35842, Text_t, "ver "
3, 35894, Text_t, "I "
3, 35956, Text_t, "lo"
3, 36020, Text_t, "st "
3, 36081, Text_t, "I "
3, 36136, Text_t, "thou"
3, 36198, Text_t, "ght "
3, 36269, Text_t, "was "
3, 36343, Text_t, "mi"
3, 36405, Text_t, "ne "
3, 36542, Text_t, "/whe"
3, 36593, Text_t, "ne"
3, 36646, Text_t, "ver "
3, 36709, Text_t, "I "
3, 36761, Text_t, "clo"
3, 36822, Text_t, "se "
3, 36874, Text_t, "my "
3, 36928, Text_t, "eyes "
3, 37000, Text_t, "in "
3, 37084, Text_t, "pain"
3, 37313, Text_t, "\\Whe"
3, 37365, Text_t, "ne"
3, 37430, Text_t, "ver "
3, 37480, Text_t, "I "
3, 37522, Text_t, "kneel "
3, 37595, Text_t, "to "
3, 37680, Text_t, "pray, "
3, 37888, Text_t, "/whe"
3, 37951, Text_t, "ne"
3, 37993, Text_t, "ver "
3, 38054, Text_t, "I "
3, 38105, Text_t, "need "
3, 38158, Text_t, "to "
3, 38252, Text_t, "find "
3, 38315, Text_t, "a "
3, 38387, Text_t, "way"
3, 38441, Text_t, "/I'"
3, 38503, Text_t, "m "
3, 38555, Text_t, "cal"
3, 38618, Text_t, "ling "
3, 38670, Text_t, "out "
3, 38733, Text_t, "your "
3, 38868, Text_t, "na"
3, 38962, Text_t, "me"
3, 39234, Text_t, "\\Whe"
3, 39411, Text_t, "ne"
3, 39462, Text_t, "ver "
3, 39526, Text_t, "this "
3, 39577, Text_t, "dark "
3, 39629, Text_t, "be"
3, 39787, Text_t, "gi"
3, 39860, Text_t, "ns "
3, 40005, Text_t, "to "
3, 40089, Text_t, "fall"
3, 40456, Text_t, "/Whe"
3, 40549, Text_t, "ne"
3, 40610, Text_t, "ver "
3, 40671, Text_t, "I'"
3, 40736, Text_t, "m "
3, 40820, Text_t, "vul"
3, 40881, Text_t, "ne"
3, 40934, Text_t, "ra"
3, 40997, Text_t, "ble "
3, 41058, Text_t, "and "
3, 41112, Text_t, "small"
3, 41218, Text_t, "/Whe"
3, 41280, Text_t, "ne"
3, 41343, Text_t, "ver "
3, 41396, Text_t, "I "
3, 41444, Text_t, "feel "
3, 41507, Text_t, "li"
3, 41561, Text_t, "ke "
3, 41612, Text_t, "I "
3, 41677, Text_t, "could "
3, 41738, Text_t, "die"
3, 41958, Text_t, "\\Whe"
3, 42030, Text_t, "ne"
3, 42092, Text_t, "ver "
3, 42144, Text_t, "I'"
3, 42187, Text_t, "m "
3, 42251, Text_t, "hol"
3, 42300, Text_t, "ding "
3, 42363, Text_t, "ba"
3, 42406, Text_t, "ck "
3, 42480, Text_t, "/the "
3, 42561, Text_t, "tea"
3, 42624, Text_t, "rs "
3, 42686, Text_t, "that "
3, 42739, Text_t, "I "
3, 42801, Text_t, "cry"
3, 43376, Text_t, "/Whe"
3, 43534, Text_t, "ne"
3, 43793, Text_t, "ver "
3, 43877, Text_t, "I "
3, 43993, Text_t, "say "
3, 44076, Text_t, "your "
3, 44150, Text_t, "na"
3, 44232, Text_t, "me, "
3, 44357, Text_t, "\\whe"
3, 44420, Text_t, "ne"
3, 44473, Text_t, "ver "
3, 44526, Text_t, "I "
3, 44568, Text_t, "call "
3, 44628, Text_t, "to "
3, 44681, Text_t, "mind "
3, 44787, Text_t, "your "
3, 44887, Text_t, "fa"
3, 44962, Text_t, "ce"
3, 45049, Text_t, "/I'"
3, 45141, Text_t, "m "
3, 45202, Text_t, "alrea"
3, 45254, Text_t, "dy "
3, 45328, Text_t, "praying"
3, 45390, Text_t, "/Wha"
3, 45464, Text_t, "te"
3, 45516, Text_t, "ver "
3, 45566, Text_t, "bread"
3, 45620, Text_t, "'"
3, 45683, Text_t, "s "
3, 45746, Text_t, "in "
3, 45808, Text_t, "my "
3, 45872, Text_t, "mou"
3, 45944, Text_t, "th, "
3, 46026, Text_t, "\\wha"
3, 46091, Text_t, "te"
3, 46133, Text_t, "ver "
3, 46194, Text_t, "the "
3, 46246, Text_t, "swee"
3, 46307, Text_t, "te"
3, 46370, Text_t, "st "
3, 46421, Text_t, "wi"
3, 46486, Text_t, "ne "
3, 46528, Text_t, "that "
3, 46580, Text_t, "I "
3, 46642, Text_t, "ta"
3, 46725, Text_t, "ste"
3, 46789, Text_t, "/Whe"
3, 46850, Text_t, "re"
3, 46912, Text_t, "ver "
3, 46976, Text_t, "I "
3, 47040, Text_t, "lay "
3, 47102, Text_t, "me "
3, 47194, Text_t, "do"
3, 47257, Text_t, "wn, "
3, 47444, Text_t, "/whe"
3, 47498, Text_t, "re"
3, 47551, Text_t, "ver "
3, 47591, Text_t, "I "
3, 47654, Text_t, "re"
3, 47716, Text_t, "st "
3, 47789, Text_t, "my "
3, 47842, Text_t, "wea"
3, 47905, Text_t, "ry "
3, 47997, Text_t, "head "
3, 48072, Text_t, "to "
3, 48134, Text_t, "sleep"
3, 48404, Text_t, "\\Whe"
3, 48469, Text_t, "ne"
3, 48521, Text_t, "ver "
3, 48584, Text_t, "I "
3, 48636, Text_t, "hurt "
3, 48700, Text_t, "and "
3, 48791, Text_t, "cry, "
3, 49000, Text_t, "/whe"
3, 49074, Text_t, "ne"
3, 49126, Text_t, "ver "
3, 49178, Text_t, "I'"
3, 49229, Text_t, "m "
3, 49283, Text_t, "for"
3, 49334, Text_t, "ced "
3, 49396, Text_t, "to "
3, 49459, Text_t, "lie "
3, 49509, Text_t, "a"
3, 49564, Text_t, "wa"
3, 49616, Text_t, "ke "
3, 49697, Text_t, "/and "
3, 49760, Text_t, "ha"
3, 49813, Text_t, "ve "
3, 49866, Text_t, "to "
3, 49918, Text_t, "weep"
3, 49960, Text_t, "\\Whe"
3, 50010, Text_t, "ne"
3, 50074, Text_t, "ver "
3, 50137, Text_t, "I'"
3, 50189, Text_t, "m "
3, 50252, Text_t, "on "
3, 50314, Text_t, "the "
3, 50376, Text_t, "floor"
3, 50429, Text_t, "/Wha"
3, 50565, Text_t, "te"
3, 50626, Text_t, "ver "
3, 50688, Text_t, "it "
3, 50741, Text_t, "was "
3, 50794, Text_t, "that "
3, 50853, Text_t, "I "
3, 50930, Text_t, "be"
3, 51055, Text_t, "lie"
3, 51118, Text_t, "ved "
3, 51190, Text_t, "be"
3, 51297, Text_t, "fo"
3, 51369, Text_t, "re"
3, 51473, Text_t, "/Whe"
3, 51534, Text_t, "ne"
3, 51586, Text_t, "ver "
3, 51639, Text_t, "I "
3, 51704, Text_t, "say "
3, 51764, Text_t, "your "
3, 51848, Text_t, "na"
3, 51932, Text_t, "me, "
3, 52079, Text_t, "\\whe"
3, 52128, Text_t, "ne"
3, 52179, Text_t, "ver "
3, 52233, Text_t, "I "
3, 52298, Text_t, "say "
3, 52348, Text_t, "it "
3, 52401, Text_t, "loud, "
3, 52485, Text_t, "/I'"
3, 52560, Text_t, "m "
3, 52642, Text_t, "alrea"
3, 52704, Text_t, "dy "
3, 52777, Text_t, "prayin"
3, 60288, End_track
4, 0, Start_track
4, 144, Control_c, 1, 121, 0
4, 146, Control_c, 1, 10, 64
4, 148, Control_c, 1, 93, 0
4, 150, Control_c, 1, 91, 10
4, 152, Control_c, 1, 11, 127
4, 154, Control_c, 1, 7, 107
4, 156, Pitch_bend_c, 1, 8192
4, 158, Control_c, 1, 0, 0
4, 160, Program_c, 1, 33
4, 240, Control_c, 1, 99, 1
4, 288, Control_c, 1, 98, 32
4, 336, Control_c, 1, 6, 44
4, 1584, Control_c, 1, 5, 65
4, 1632, Control_c, 1, 65, 127
4, 1680, Control_c, 1, 84, 28
4, 1968, Note_on_c, 1, 40, 106
4, 2064, Note_on_c, 1, 28, 74
4, 2064, Note_off_c, 1, 40, 0
4, 2254, Control_c, 1, 65, 0
4, 2256, Note_off_c, 1, 28, 0
4, 2256, Note_on_c, 1, 42, 81
4, 2640, Note_off_c, 1, 42, 64
4, 2640, Note_on_c, 1, 45, 81
4, 3024, Note_on_c, 1, 44, 81
4, 3024, Note_off_c, 1, 45, 0
4, 3408, Note_off_c, 1, 44, 64
4, 3408, Note_on_c, 1, 49, 81
4, 3792, Note_on_c, 1, 42, 82
4, 3792, Note_off_c, 1, 49, 64
4, 4176, Note_off_c, 1, 42, 64
4, 4176, Note_on_c, 1, 45, 81
4, 4560, Note_on_c, 1, 44, 81
4, 4560, Note_off_c, 1, 45, 0
4, 4944, Note_off_c, 1, 44, 64
4, 4944, Note_on_c, 1, 49, 81
4, 5328, Note_on_c, 1, 42, 81
4, 5328, Note_off_c, 1, 49, 64
4, 5712, Note_off_c, 1, 42, 64
4, 5712, Note_on_c, 1, 45, 81
4, 6096, Note_on_c, 1, 44, 81
4, 6096, Note_off_c, 1, 45, 0
4, 6480, Note_off_c, 1, 44, 64
4, 6480, Note_on_c, 1, 49, 81
4, 6864, Note_on_c, 1, 42, 81
4, 6864, Note_off_c, 1, 49, 64
4, 7248, Note_off_c, 1, 42, 64
4, 7248, Note_on_c, 1, 45, 81
4, 7632, Note_on_c, 1, 44, 81
4, 7632, Note_off_c, 1, 45, 0
4, 8016, Note_on_c, 1, 28, 94
4, 8016, Note_off_c, 1, 44, 64
4, 8400, Note_off_c, 1, 28, 64
4, 8400, Note_on_c, 1, 33, 104
4, 8448, Note_off_c, 1, 33, 64
4, 8784, Note_on_c, 1, 42, 104
4, 8832, Note_off_c, 1, 42, 64
4, 9168, Note_on_c, 1, 35, 104
4, 9216, Note_off_c, 1, 35, 64
4, 9552, Note_on_c, 1, 40, 104
4, 9600, Note_off_c, 1, 40, 64
4, 9936, Note_on_c, 1, 33, 104
4, 9984, Note_off_c, 1, 33, 64
4, 10320, Note_on_c, 1, 36, 104
4, 10368, Note_off_c, 1, 36, 64
4, 10704, Note_on_c, 1, 35, 104
4, 10752, Note_off_c, 1, 35, 64
4, 11088, Note_on_c, 1, 40, 104
4, 11136, Note_off_c, 1, 40, 64
4, 11232, Note_on_c, 1, 28, 104
4, 11280, Note_off_c, 1, 28, 64
4, 11376, Pitch_bend_c, 1, 0
4, 11376, Note_on_c, 1, 40, 104
4, 11388, Pitch_bend_c, 1, 8192
4, 11472, Note_on_c, 1, 33, 104
4, 11472, Note_off_c, 1, 40, 64
4, 11520, Note_off_c, 1, 33, 64
4, 11856, Note_on_c, 1, 42, 104
4, 11904, Note_off_c, 1, 42, 64
4, 12240, Note_on_c, 1, 35, 104
4, 12288, Note_off_c, 1, 35, 64
4, 12624, Note_on_c, 1, 40, 104
4, 12672, Note_off_c, 1, 40, 64
4, 12768, Note_on_c, 1, 28, 102
4, 13004, Note_on_c, 1, 30, 101
4, 13008, Note_off_c, 1, 28, 64
4, 13776, Note_on_c, 1, 35, 101
4, 13780, Note_off_c, 1, 30, 0
4, 14112, Note_off_c, 1, 35, 64
4, 14112, Note_on_c, 1, 35, 101
4, 14160, Note_off_c, 1, 35, 64
4, 14160, Note_on_c, 1, 37, 101
4, 14448, Note_on_c, 1, 35, 101
4, 14448, Note_off_c, 1, 37, 64
4, 14496, Note_off_c, 1, 35, 64
4, 14496, Note_on_c, 1, 37, 101
4, 14544, Note_off_c, 1, 37, 64
4, 14544, Note_on_c, 1, 38, 103
4, 14900, Note_off_c, 1, 38, 64
4, 14928, Note_on_c, 1, 37, 104
4, 15046, Note_off_c, 1, 37, 64
4, 15072, Note_on_c, 1, 37, 104
4, 15109, Note_off_c, 1, 37, 64
4, 15216, Note_on_c, 1, 25, 103
4, 15308, Note_off_c, 1, 25, 64
4, 15312, Note_on_c, 1, 35, 104
4, 15646, Note_off_c, 1, 35, 64
4, 15696, Note_on_c, 1, 32, 102
4, 15997, Note_off_c, 1, 32, 64
4, 16032, Note_on_c, 1, 32, 99
4, 16052, Note_off_c, 1, 32, 64
4, 16080, Note_on_c, 1, 28, 100
4, 16368, Note_off_c, 1, 28, 64
4, 16368, Note_on_c, 1, 40, 98
4, 16413, Note_off_c, 1, 40, 64
4, 16416, Note_on_c, 1, 39, 100
4, 16461, Note_off_c, 1, 39, 64
4, 16464, Note_on_c, 1, 38, 102
4, 16836, Note_off_c, 1, 38, 64
4, 16848, Note_on_c, 1, 31, 99
4, 16884, Note_off_c, 1, 31, 0
4, 16944, Note_on_c, 1, 31, 99
4, 16993, Note_off_c, 1, 31, 0
4, 17040, Note_on_c, 1, 28, 100
4, 17073, Note_off_c, 1, 28, 0
4, 17136, Note_on_c, 1, 26, 98
4, 17168, Note_off_c, 1, 26, 0
4, 17232, Note_on_c, 1, 24, 105
4, 17427, Note_off_c, 1, 24, 64
4, 17568, Note_on_c, 1, 24, 102
4, 17588, Note_off_c, 1, 24, 64
4, 17616, Note_on_c, 1, 28, 105
4, 17815, Note_off_c, 1, 28, 64
4, 17952, Note_on_c, 1, 28, 102
4, 17970, Note_off_c, 1, 28, 64
4, 18000, Note_on_c, 1, 31, 105
4, 18296, Note_off_c, 1, 31, 64
4, 18336, Note_on_c, 1, 31, 101
4, 18352, Note_off_c, 1, 31, 64
4, 18384, Note_on_c, 1, 31, 104
4, 18741, Note_off_c, 1, 31, 64
4, 18768, Note_on_c, 1, 26, 105
4, 19017, Note_off_c, 1, 26, 64
4, 19056, Note_on_c, 1, 26, 102
4, 19148, Note_off_c, 1, 26, 64
4, 19152, Note_on_c, 1, 29, 105
4, 19504, Note_off_c, 1, 29, 64
4, 19536, Note_on_c, 1, 33, 104
4, 19836, Note_off_c, 1, 33, 64
4, 19872, Note_on_c, 1, 33, 102
4, 19889, Note_off_c, 1, 33, 64
4, 19920, Note_on_c, 1, 33, 105
4, 20246, Note_off_c, 1, 33, 64
4, 20304, Note_on_c, 1, 28, 104
4, 20618, Note_off_c, 1, 28, 64
4, 20640, Note_on_c, 1, 28, 104
4, 20667, Note_off_c, 1, 28, 64
4, 20688, Note_on_c, 1, 40, 104
4, 20868, Note_off_c, 1, 40, 64
4, 20880, Note_on_c, 1, 28, 104
4, 21055, Note_off_c, 1, 28, 64
4, 21072, Note_on_c, 1, 33, 104
4, 21380, Note_off_c, 1, 33, 64
4, 21408, Note_on_c, 1, 33, 100
4, 21431, Note_off_c, 1, 33, 64
4, 21456, Note_on_c, 1, 35, 104
4, 21815, Note_off_c, 1, 35, 64
4, 21840, Note_on_c, 1, 36, 104
4, 22032, Note_on_c, 1, 24, 102
4, 22032, Note_off_c, 1, 36, 64
4, 22210, Note_off_c, 1, 24, 64
4, 22224, Note_on_c, 1, 28, 104
4, 22416, Note_on_c, 1, 40, 104
4, 22431, Note_off_c, 1, 28, 64
4, 22588, Note_off_c, 1, 40, 64
4, 22608, Note_on_c, 1, 30, 102
4, 22988, Note_off_c, 1, 30, 64
4, 22992, Note_on_c, 1, 32, 102
4, 23089, Note_off_c, 1, 32, 64
4, 23136, Note_on_c, 1, 32, 102
4, 23183, Note_off_c, 1, 32, 64
4, 23280, Note_on_c, 1, 32, 102
4, 23372, Note_off_c, 1, 32, 64
4, 23376, Note_on_c, 1, 33, 103
4, 23746, Note_off_c, 1, 33, 64
4, 23760, Note_on_c, 1, 36, 104
4, 23933, Note_off_c, 1, 36, 64
4, 23952, Note_on_c, 1, 24, 102
4, 24128, Note_off_c, 1, 24, 64
4, 24144, Note_on_c, 1, 26, 104
4, 24527, Note_off_c, 1, 26, 64
4, 24528, Note_on_c, 1, 28, 104
4, 24874, Note_off_c, 1, 28, 64
4, 24912, Note_on_c, 1, 41, 102
4, 25296, Note_on_c, 1, 40, 102
4, 25309, Note_off_c, 1, 41, 64
4, 25470, Note_off_c, 1, 40, 64
4, 25488, Note_on_c, 1, 36, 103
4, 25680, Note_on_c, 1, 35, 102
4, 25681, Note_off_c, 1, 36, 64
4, 26064, Note_on_c, 1, 40, 102
4, 26070, Note_off_c, 1, 35, 64
4, 26253, Note_off_c, 1, 40, 64
4, 26256, Note_on_c, 1, 28, 101
4, 26435, Note_off_c, 1, 28, 64
4, 27312, Control_c, 1, 5, 65
4, 27360, Control_c, 1, 65, 127
4, 27408, Control_c, 1, 84, 28
4, 27696, Note_on_c, 1, 40, 106
4, 27792, Note_on_c, 1, 28, 74
4, 27792, Note_off_c, 1, 40, 64
4, 27982, Control_c, 1, 65, 0
4, 27984, Note_off_c, 1, 28, 0
4, 27984, Note_on_c, 1, 30, 105
4, 28032, Note_off_c, 1, 30, 64
4, 28320, Note_on_c, 1, 30, 104
4, 28351, Note_off_c, 1, 30, 64
4, 28368, Note_on_c, 1, 33, 105
4, 28411, Note_off_c, 1, 33, 64
4, 28752, Note_on_c, 1, 32, 102
4, 28800, Note_off_c, 1, 32, 64
4, 29088, Note_on_c, 1, 32, 102
4, 29112, Note_off_c, 1, 32, 64
4, 29136, Note_on_c, 1, 25, 106
4, 29178, Note_off_c, 1, 25, 64
4, 29520, Note_on_c, 1, 30, 107
4, 29568, Note_off_c, 1, 30, 64
4, 29856, Note_on_c, 1, 30, 102
4, 29877, Note_off_c, 1, 30, 64
4, 29904, Note_on_c, 1, 27, 106
4, 29948, Note_off_c, 1, 27, 64
4, 30288, Note_on_c, 1, 32, 105
4, 30336, Note_off_c, 1, 32, 0
4, 30672, Note_on_c, 1, 25, 105
4, 30726, Note_off_c, 1, 25, 64
4, 30816, Note_on_c, 1, 25, 105
4, 30878, Note_off_c, 1, 25, 64
4, 30960, Note_on_c, 1, 25, 105
4, 31030, Note_off_c, 1, 25, 64
4, 31056, Note_on_c, 1, 30, 103
4, 31098, Note_off_c, 1, 30, 64
4, 31392, Note_on_c, 1, 30, 98
4, 31415, Note_off_c, 1, 30, 64
4, 31440, Note_on_c, 1, 33, 105
4, 31487, Note_off_c, 1, 33, 64
4, 31824, Note_on_c, 1, 32, 104
4, 31861, Note_off_c, 1, 32, 64
4, 32160, Note_on_c, 1, 32, 102
4, 32191, Note_off_c, 1, 32, 64
4, 32208, Note_on_c, 1, 37, 104
4, 32259, Note_off_c, 1, 37, 64
4, 32304, Note_on_c, 1, 25, 104
4, 32544, Note_off_c, 1, 25, 64
4, 32592, Note_on_c, 1, 30, 105
4, 32636, Note_off_c, 1, 30, 64
4, 32928, Note_on_c, 1, 30, 100
4, 32950, Note_off_c, 1, 30, 64
4, 32976, Note_on_c, 1, 27, 105
4, 33020, Note_off_c, 1, 27, 64
4, 33360, Note_on_c, 1, 32, 105
4, 33408, Note_off_c, 1, 32, 64
4, 33744, Note_on_c, 1, 28, 108
4, 33796, Note_off_c, 1, 28, 64
4, 33888, Note_on_c, 1, 28, 105
4, 33932, Note_off_c, 1, 28, 64
4, 34032, Note_on_c, 1, 28, 105
4, 34121, Note_off_c, 1, 28, 64
4, 34128, Note_on_c, 1, 33, 104
4, 34176, Note_off_c, 1, 33, 64
4, 34512, Note_on_c, 1, 42, 104
4, 34560, Note_off_c, 1, 42, 64
4, 34896, Note_on_c, 1, 35, 104
4, 34944, Note_off_c, 1, 35, 0
4, 35280, Note_on_c, 1, 40, 104
4, 35328, Note_off_c, 1, 40, 64
4, 35664, Note_on_c, 1, 33, 104
4, 35712, Note_off_c, 1, 33, 64
4, 36048, Note_on_c, 1, 36, 104
4, 36096, Note_off_c, 1, 36, 64
4, 36432, Note_on_c, 1, 35, 104
4, 36480, Note_off_c, 1, 35, 0
4, 36816, Note_on_c, 1, 40, 104
4, 36864, Note_off_c, 1, 40, 64
4, 36960, Note_on_c, 1, 28, 104
4, 37008, Note_off_c, 1, 28, 64
4, 37104, Pitch_bend_c, 1, 0
4, 37104, Note_on_c, 1, 40, 104
4, 37116, Pitch_bend_c, 1, 8192
4, 37200, Note_on_c, 1, 33, 104
4, 37200, Note_off_c, 1, 40, 64
4, 37248, Note_off_c, 1, 33, 64
4, 37584, Note_on_c, 1, 42, 104
4, 37632, Note_off_c, 1, 42, 64
4, 37968, Note_on_c, 1, 35, 104
4, 38016, Note_off_c, 1, 35, 0
4, 38352, Note_on_c, 1, 40, 104
4, 38400, Note_off_c, 1, 40, 64
4, 38496, Note_on_c, 1, 28, 102
4, 38732, Note_on_c, 1, 30, 101
4, 38736, Note_off_c, 1, 28, 64
4, 39504, Note_on_c, 1, 35, 101
4, 39508, Note_off_c, 1, 30, 0
4, 39840, Note_off_c, 1, 35, 64
4, 39840, Note_on_c, 1, 35, 101
4, 39888, Note_off_c, 1, 35, 64
4, 39888, Note_on_c, 1, 37, 101
4, 40176, Note_on_c, 1, 35, 101
4, 40176, Note_off_c, 1, 37, 64
4, 40224, Note_off_c, 1, 35, 64
4, 40224, Note_on_c, 1, 37, 101
4, 40272, Note_off_c, 1, 37, 64
4, 40272, Note_on_c, 1, 38, 103
4, 40628, Note_off_c, 1, 38, 64
4, 40656, Note_on_c, 1, 37, 104
4, 40774, Note_off_c, 1, 37, 64
4, 40800, Note_on_c, 1, 37, 104
4, 40837, Note_off_c, 1, 37, 64
4, 40944, Note_on_c, 1, 25, 103
4, 41036, Note_off_c, 1, 25, 64
4, 41040, Note_on_c, 1, 35, 104
4, 41374, Note_off_c, 1, 35, 64
4, 41424, Note_on_c, 1, 32, 102
4, 41725, Note_off_c, 1, 32, 64
4, 41760, Note_on_c, 1, 32, 99
4, 41780, Note_off_c, 1, 32, 64
4, 41808, Note_on_c, 1, 28, 100
4, 42096, Note_off_c, 1, 28, 64
4, 42144, Note_on_c, 1, 28, 86
4, 42163, Note_off_c, 1, 28, 64
4, 42192, Note_on_c, 1, 32, 101
4, 42480, Note_off_c, 1, 32, 64
4, 42528, Note_on_c, 1, 32, 88
4, 42548, Note_off_c, 1, 32, 64
4, 42576, Note_on_c, 1, 37, 102
4, 43341, Note_off_c, 1, 37, 64
4, 43344, Note_on_c, 1, 35, 98
4, 43379, Note_off_c, 1, 35, 0
4, 43440, Note_on_c, 1, 35, 95
4, 43470, Note_off_c, 1, 35, 0
4, 43536, Note_on_c, 1, 35, 98
4, 43566, Note_off_c, 1, 35, 0
4, 43632, Note_on_c, 1, 35, 97
4, 43658, Note_off_c, 1, 35, 0
4, 43728, Note_on_c, 1, 33, 105
4, 43923, Note_off_c, 1, 33, 64
4, 44064, Note_on_c, 1, 33, 102
4, 44084, Note_off_c, 1, 33, 64
4, 44112, Note_on_c, 1, 25, 105
4, 44311, Note_off_c, 1, 25, 64
4, 44448, Note_on_c, 1, 25, 102
4, 44466, Note_off_c, 1, 25, 64
4, 44496, Note_on_c, 1, 28, 105
4, 44792, Note_off_c, 1, 28, 64
4, 44832, Note_on_c, 1, 28, 101
4, 44848, Note_off_c, 1, 28, 64
4, 44880, Note_on_c, 1, 28, 104
4, 45237, Note_off_c, 1, 28, 64
4, 45264, Note_on_c, 1, 35, 105
4, 45513, Note_off_c, 1, 35, 64
4, 45552, Note_on_c, 1, 35, 102
4, 45644, Note_off_c, 1, 35, 64
4, 45648, Note_on_c, 1, 26, 105
4, 46000, Note_off_c, 1, 26, 64
4, 46032, Note_on_c, 1, 30, 104
4, 46332, Note_off_c, 1, 30, 64
4, 46368, Note_on_c, 1, 30, 102
4, 46385, Note_off_c, 1, 30, 64
4, 46416, Note_on_c, 1, 30, 105
4, 46742, Note_off_c, 1, 30, 64
4, 46800, Note_on_c, 1, 25, 104
4, 47114, Note_off_c, 1, 25, 64
4, 47136, Note_on_c, 1, 25, 104
4, 47163, Note_off_c, 1, 25, 64
4, 47184, Note_on_c, 1, 37, 104
4, 47364, Note_off_c, 1, 37, 64
4, 47376, Note_on_c, 1, 25, 104
4, 47551, Note_off_c, 1, 25, 64
4, 47568, Note_on_c, 1, 30, 104
4, 47876, Note_off_c, 1, 30, 64
4, 47904, Note_on_c, 1, 30, 100
4, 47927, Note_off_c, 1, 30, 64
4, 47952, Note_on_c, 1, 32, 104
4, 48311, Note_off_c, 1, 32, 64
4, 48336, Note_on_c, 1, 33, 104
4, 48528, Note_off_c, 1, 33, 64
4, 48528, Note_on_c, 1, 33, 102
4, 48706, Note_off_c, 1, 33, 64
4, 48720, Note_on_c, 1, 25, 104
4, 48912, Note_on_c, 1, 37, 104
4, 48927, Note_off_c, 1, 25, 64
4, 49084, Note_off_c, 1, 37, 64
4, 49104, Note_on_c, 1, 27, 102
4, 49484, Note_off_c, 1, 27, 64
4, 49488, Note_on_c, 1, 29, 102
4, 49585, Note_off_c, 1, 29, 64
4, 49632, Note_on_c, 1, 29, 102
4, 49679, Note_off_c, 1, 29, 64
4, 49776, Note_on_c, 1, 29, 102
4, 49868, Note_off_c, 1, 29, 64
4, 49872, Note_on_c, 1, 30, 103
4, 50242, Note_off_c, 1, 30, 64
4, 50256, Note_on_c, 1, 33, 104
4, 50429, Note_off_c, 1, 33, 64
4, 50448, Note_on_c, 1, 33, 102
4, 50624, Note_off_c, 1, 33, 64
4, 50640, Note_on_c, 1, 35, 104
4, 51023, Note_off_c, 1, 35, 64
4, 51024, Note_on_c, 1, 25, 104
4, 51370, Note_off_c, 1, 25, 64
4, 51408, Note_on_c, 1, 38, 102
4, 51792, Note_on_c, 1, 37, 102
4, 51805, Note_off_c, 1, 38, 64
4, 51966, Note_off_c, 1, 37, 64
4, 51984, Note_on_c, 1, 33, 103
4, 52176, Note_on_c, 1, 32, 102
4, 52177, Note_off_c, 1, 33, 64
4, 52560, Note_on_c, 1, 37, 102
4, 52566, Note_off_c, 1, 32, 64
4, 52749, Note_off_c, 1, 37, 0
4, 52752, Note_on_c, 1, 25, 101
4, 52931, Note_off_c, 1, 25, 0
4, 55344, Control_c, 1, 5, 65
4, 55392, Control_c, 1, 65, 127
4, 55440, Control_c, 1, 84, 28
4, 55728, Note_on_c, 1, 40, 106
4, 55824, Note_on_c, 1, 28, 74
4, 55824, Note_off_c, 1, 40, 64
4, 56014, Control_c, 1, 65, 0
4, 56016, Note_off_c, 1, 28, 0
4, 60288, End_track
5, 0, Start_track
5, 180, Control_c, 2, 121, 0
5, 182, Control_c, 2, 10, 64
5, 184, Control_c, 2, 93, 0
5, 186, Control_c, 2, 91, 20
5, 188, Control_c, 2, 11, 127
5, 190, Control_c, 2, 7, 85
5, 192, Pitch_bend_c, 2, 8192
5, 194, Control_c, 2, 0, 0
5, 196, Program_c, 2, 38
5, 240, Control_c, 2, 99, 1
5, 288, Control_c, 2, 98, 33
5, 336, Control_c, 2, 6, 74
5, 384, Control_c, 2, 98, 32
5, 432, Control_c, 2, 6, 79
5, 8400, Note_on_c, 2, 33, 64
5, 8448, Note_off_c, 2, 33, 64
5, 8784, Note_on_c, 2, 42, 64
5, 8832, Note_off_c, 2, 42, 64
5, 9168, Note_on_c, 2, 35, 64
5, 9216, Note_off_c, 2, 35, 64
5, 9552, Note_on_c, 2, 40, 64
5, 9600, Note_off_c, 2, 40, 64
5, 9936, Note_on_c, 2, 33, 64
5, 9984, Note_off_c, 2, 33, 64
5, 10320, Note_on_c, 2, 36, 64
5, 10368, Note_off_c, 2, 36, 64
5, 10704, Note_on_c, 2, 35, 64
5, 10752, Note_off_c, 2, 35, 64
5, 11088, Note_on_c, 2, 40, 64
5, 11136, Note_off_c, 2, 40, 64
5, 11232, Note_on_c, 2, 28, 64
5, 11280, Note_off_c, 2, 28, 64
5, 11376, Pitch_bend_c, 2, 0
5, 11376, Note_on_c, 2, 40, 64
5, 11388, Pitch_bend_c, 2, 8192
5, 11472, Note_on_c, 2, 33, 64
5, 11472, Note_off_c, 2, 40, 64
5, 11520, Note_off_c, 2, 33, 64
5, 11856, Note_on_c, 2, 42, 64
5, 11904, Note_off_c, 2, 42, 64
5, 12240, Note_on_c, 2, 35, 64
5, 12288, Note_off_c, 2, 35, 64
5, 12624, Note_on_c, 2, 40, 64
5, 12672, Note_off_c, 2, 40, 64
5, 34176, Note_on_c, 2, 45, 53
5, 34182, Note_off_c, 2, 45, 64
5, 34224, Note_on_c, 2, 45, 77
5, 34230, Note_off_c, 2, 45, 64
5, 34368, Note_on_c, 2, 45, 51
5, 34374, Note_off_c, 2, 45, 64
5, 34464, Note_on_c, 2, 45, 64
5, 34470, Note_off_c, 2, 45, 64
5, 34560, Note_on_c, 2, 45, 74
5, 34566, Note_off_c, 2, 45, 64
5, 34608, Note_on_c, 2, 45, 67
5, 34614, Note_off_c, 2, 45, 64
5, 34704, Note_on_c, 2, 45, 98
5, 34710, Note_off_c, 2, 45, 0
5, 34752, Note_on_c, 2, 45, 81
5, 34758, Note_off_c, 2, 45, 0
5, 34800, Note_on_c, 2, 45, 93
5, 34806, Note_off_c, 2, 45, 0
5, 34992, Note_on_c, 2, 45, 68
5, 34998, Note_off_c, 2, 45, 0
5, 35088, Note_on_c, 2, 45, 92
5, 35094, Note_off_c, 2, 45, 64
5, 35136, Note_on_c, 2, 45, 72
5, 35142, Note_off_c, 2, 45, 64
5, 35328, Note_on_c, 2, 45, 62
5, 35334, Note_off_c, 2, 45, 64
5, 35376, Note_on_c, 2, 45, 63
5, 35382, Note_off_c, 2, 45, 64
5, 35472, Note_on_c, 2, 45, 92
5, 35478, Note_off_c, 2, 45, 64
5, 35520, Note_on_c, 2, 45, 58
5, 35526, Note_off_c, 2, 45, 64
5, 35568, Note_on_c, 2, 45, 64
5, 35574, Note_off_c, 2, 45, 64
5, 35712, Note_on_c, 2, 45, 63
5, 35718, Note_off_c, 2, 45, 64
5, 35760, Note_on_c, 2, 45, 70
5, 35766, Note_off_c, 2, 45, 64
5, 35856, Note_on_c, 2, 45, 86
5, 35862, Note_off_c, 2, 45, 64
5, 35904, Note_on_c, 2, 45, 73
5, 35910, Note_off_c, 2, 45, 64
5, 36000, Note_on_c, 2, 45, 75
5, 36006, Note_off_c, 2, 45, 64
5, 36096, Note_on_c, 2, 45, 70
5, 36102, Note_off_c, 2, 45, 64
5, 36240, Note_on_c, 2, 45, 82
5, 36246, Note_off_c, 2, 45, 0
5, 36288, Note_on_c, 2, 45, 52
5, 36294, Note_off_c, 2, 45, 0
5, 36336, Note_on_c, 2, 45, 63
5, 36342, Note_off_c, 2, 45, 0
5, 36528, Note_on_c, 2, 45, 85
5, 36534, Note_off_c, 2, 45, 0
5, 36624, Note_on_c, 2, 45, 71
5, 36630, Note_off_c, 2, 45, 64
5, 36672, Note_on_c, 2, 45, 64
5, 36678, Note_off_c, 2, 45, 64
5, 36768, Note_on_c, 2, 45, 75
5, 36774, Note_off_c, 2, 45, 64
5, 36864, Note_on_c, 2, 45, 58
5, 36870, Note_off_c, 2, 45, 64
5, 36960, Note_on_c, 2, 45, 54
5, 36966, Note_off_c, 2, 45, 64
5, 37008, Note_on_c, 2, 45, 69
5, 37014, Note_off_c, 2, 45, 64
5, 37056, Note_on_c, 2, 45, 60
5, 37062, Note_off_c, 2, 45, 64
5, 37104, Note_on_c, 2, 45, 75
5, 37110, Note_off_c, 2, 45, 64
5, 60288, End_track
6, 0, Start_track
6, 180, Control_c, 3, 121, 0
6, 182, Control_c, 3, 10, 64
6, 184, Control_c, 3, 93, 0
6, 186, Control_c, 3, 91, 20
6, 188, Control_c, 3, 11, 127
6, 190, Control_c, 3, 7, 104
6, 192, Pitch_bend_c, 3, 8192
6, 194, Control_c, 3, 0, 0
6, 196, Program_c, 3, 82
6, 2352, Note_on_c, 3, 69, 98
6, 2396, Note_off_c, 3, 69, 64
6, 2448, Note_on_c, 3, 66, 98
6, 2476, Note_off_c, 3, 66, 64
6, 2496, Note_on_c, 3, 66, 98
6, 2544, Note_on_c, 3, 69, 98
6, 2549, Note_off_c, 3, 66, 64
6, 2597, Note_off_c, 3, 69, 64
6, 2640, Note_on_c, 3, 66, 98
6, 2736, Note_on_c, 3, 69, 98
6, 2737, Note_off_c, 3, 66, 64
6, 2796, Note_off_c, 3, 69, 64
6, 2832, Note_on_c, 3, 66, 100
6, 2897, Note_off_c, 3, 66, 0
6, 2976, Note_on_c, 3, 69, 100
6, 3022, Note_off_c, 3, 69, 0
6, 3024, Note_on_c, 3, 66, 98
6, 3064, Note_off_c, 3, 66, 64
6, 3072, Note_on_c, 3, 66, 98
6, 3113, Note_off_c, 3, 66, 0
6, 3120, Note_on_c, 3, 69, 98
6, 3170, Note_off_c, 3, 69, 64
6, 3215, Note_on_c, 3, 66, 98
6, 3306, Note_off_c, 3, 66, 64
6, 3311, Note_on_c, 3, 69, 98
6, 3374, Note_off_c, 3, 69, 64
6, 3407, Note_on_c, 3, 68, 98
6, 3503, Note_off_c, 3, 68, 64
6, 3504, Note_on_c, 3, 66, 100
6, 3562, Note_off_c, 3, 66, 64
6, 3600, Note_on_c, 3, 68, 98
6, 3673, Note_off_c, 3, 68, 64
6, 3935, Note_on_c, 3, 69, 98
6, 3983, Note_on_c, 3, 66, 98
6, 3989, Note_off_c, 3, 69, 64
6, 4018, Note_off_c, 3, 66, 64
6, 4032, Note_on_c, 3, 66, 98
6, 4074, Note_off_c, 3, 66, 64
6, 4079, Note_on_c, 3, 69, 98
6, 4141, Note_off_c, 3, 69, 64
6, 4176, Note_on_c, 3, 66, 98
6, 4272, Note_on_c, 3, 69, 98
6, 4278, Note_off_c, 3, 66, 64
6, 4331, Note_off_c, 3, 69, 64
6, 4368, Note_on_c, 3, 66, 100
6, 4436, Note_off_c, 3, 66, 0
6, 4512, Note_on_c, 3, 69, 98
6, 4553, Note_off_c, 3, 69, 0
6, 4560, Note_on_c, 3, 66, 100
6, 4587, Note_off_c, 3, 66, 0
6, 4608, Note_on_c, 3, 66, 100
6, 4656, Note_on_c, 3, 69, 100
6, 4659, Note_off_c, 3, 66, 0
6, 4697, Note_off_c, 3, 69, 0
6, 4751, Note_on_c, 3, 71, 100
6, 4846, Note_off_c, 3, 71, 64
6, 4847, Note_on_c, 3, 69, 100
6, 4891, Note_off_c, 3, 69, 64
6, 4943, Note_on_c, 3, 68, 98
6, 5040, Note_on_c, 3, 66, 98
6, 5042, Note_off_c, 3, 68, 64
6, 5082, Note_off_c, 3, 66, 64
6, 5088, Note_on_c, 3, 69, 98
6, 5136, Note_off_c, 3, 69, 64
6, 5183, Note_on_c, 3, 66, 98
6, 5274, Note_off_c, 3, 66, 64
6, 5472, Note_on_c, 3, 69, 98
6, 5520, Note_on_c, 3, 66, 98
6, 5521, Note_off_c, 3, 69, 64
6, 5546, Note_off_c, 3, 66, 64
6, 5568, Note_on_c, 3, 66, 98
6, 5616, Note_off_c, 3, 66, 64
6, 5616, Note_on_c, 3, 69, 98
6, 5667, Note_off_c, 3, 69, 64
6, 5712, Note_on_c, 3, 66, 98
6, 5806, Note_off_c, 3, 66, 64
6, 5807, Note_on_c, 3, 69, 98
6, 5840, Note_off_c, 3, 69, 64
6, 5856, Note_on_c, 3, 66, 98
6, 5912, Note_off_c, 3, 66, 0
6, 5952, Note_on_c, 3, 69, 100
6, 6003, Note_off_c, 3, 69, 64
6, 6048, Note_on_c, 3, 66, 100
6, 6120, Note_off_c, 3, 66, 64
6, 6239, Note_on_c, 3, 69, 98
6, 6274, Note_off_c, 3, 69, 64
6, 6287, Note_on_c, 3, 66, 98
6, 6321, Note_off_c, 3, 66, 0
6, 6335, Note_on_c, 3, 66, 98
6, 6384, Note_on_c, 3, 69, 100
6, 6389, Note_off_c, 3, 66, 64
6, 6432, Note_off_c, 3, 69, 64
6, 6480, Note_on_c, 3, 68, 98
6, 6555, Note_off_c, 3, 68, 64
6, 6576, Note_on_c, 3, 66, 100
6, 6613, Note_off_c, 3, 66, 64
6, 6624, Note_on_c, 3, 69, 100
6, 6673, Note_off_c, 3, 69, 64
6, 6720, Note_on_c, 3, 66, 100
6, 6768, Note_off_c, 3, 66, 64
6, 6815, Note_on_c, 3, 66, 100
6, 6877, Note_off_c, 3, 66, 64
6, 7008, Note_on_c, 3, 69, 98
6, 7051, Note_off_c, 3, 69, 64
6, 7056, Note_on_c, 3, 66, 100
6, 7082, Note_off_c, 3, 66, 64
6, 7104, Note_on_c, 3, 66, 100
6, 7152, Note_on_c, 3, 69, 98
6, 7156, Note_off_c, 3, 66, 64
6, 7198, Note_off_c, 3, 69, 64
6, 7248, Note_on_c, 3, 66, 98
6, 7344, Note_on_c, 3, 69, 100
6, 7357, Note_off_c, 3, 66, 64
6, 7376, Note_off_c, 3, 69, 64
6, 7440, Note_on_c, 3, 66, 100
6, 7523, Note_off_c, 3, 66, 0
6, 7536, Note_on_c, 3, 69, 100
6, 7585, Note_off_c, 3, 69, 0
6, 7632, Note_on_c, 3, 72, 100
6, 7728, Note_on_c, 3, 69, 98
6, 7734, Note_off_c, 3, 72, 0
6, 7776, Note_off_c, 3, 69, 64
6, 7824, Note_on_c, 3, 71, 98
6, 7927, Note_off_c, 3, 71, 64
6, 7968, Note_on_c, 3, 69, 98
6, 8008, Note_off_c, 3, 69, 64
6, 8016, Note_on_c, 3, 71, 98
6, 8054, Note_off_c, 3, 71, 64
6, 8112, Note_on_c, 3, 71, 98
6, 8218, Note_off_c, 3, 71, 64
6, 8496, Note_on_c, 3, 76, 100
6, 8547, Note_off_c, 3, 76, 64
6, 8592, Note_on_c, 3, 74, 100
6, 8636, Note_off_c, 3, 74, 64
6, 8639, Note_on_c, 3, 72, 98
6, 8678, Note_off_c, 3, 72, 64
6, 8687, Note_on_c, 3, 71, 98
6, 8732, Note_off_c, 3, 71, 64
6, 8783, Note_on_c, 3, 69, 98
6, 8848, Note_off_c, 3, 69, 64
6, 8880, Note_on_c, 3, 72, 98
6, 8927, Note_off_c, 3, 72, 64
6, 8928, Note_on_c, 3, 69, 100
6, 8999, Note_off_c, 3, 69, 0
6, 9119, Note_on_c, 3, 72, 98
6, 9155, Note_off_c, 3, 72, 0
6, 9167, Note_on_c, 3, 74, 100
6, 9200, Note_off_c, 3, 74, 0
6, 9215, Note_on_c, 3, 74, 100
6, 9258, Note_off_c, 3, 74, 0
6, 9263, Note_on_c, 3, 72, 100
6, 9304, Note_off_c, 3, 72, 0
6, 9359, Note_on_c, 3, 74, 100
6, 9429, Note_off_c, 3, 74, 64
6, 9455, Note_on_c, 3, 72, 100
6, 9505, Note_off_c, 3, 72, 64
6, 9551, Note_on_c, 3, 76, 100
6, 9634, Note_off_c, 3, 76, 64
6, 9647, Note_on_c, 3, 72, 100
6, 9690, Note_off_c, 3, 72, 64
6, 9744, Note_on_c, 3, 74, 98
6, 9823, Note_off_c, 3, 74, 64
6, 10032, Note_on_c, 3, 79, 100
6, 10072, Note_off_c, 3, 79, 64
6, 10128, Note_on_c, 3, 76, 100
6, 10169, Note_off_c, 3, 76, 64
6, 10176, Note_on_c, 3, 76, 100
6, 10214, Note_off_c, 3, 76, 64
6, 10224, Note_on_c, 3, 74, 100
6, 10271, Note_off_c, 3, 74, 64
6, 10320, Note_on_c, 3, 69, 98
6, 10412, Note_off_c, 3, 69, 64
6, 10416, Note_on_c, 3, 72, 100
6, 10460, Note_off_c, 3, 72, 64
6, 10512, Note_on_c, 3, 69, 98
6, 10593, Note_off_c, 3, 69, 0
6, 10656, Note_on_c, 3, 72, 98
6, 10688, Note_off_c, 3, 72, 0
6, 10703, Note_on_c, 3, 74, 100
6, 10734, Note_off_c, 3, 74, 0
6, 10751, Note_on_c, 3, 74, 100
6, 10788, Note_off_c, 3, 74, 0
6, 10799, Note_on_c, 3, 72, 100
6, 10836, Note_off_c, 3, 72, 0
6, 10896, Note_on_c, 3, 74, 100
6, 10942, Note_off_c, 3, 74, 0
6, 10991, Note_on_c, 3, 72, 100
6, 11034, Note_off_c, 3, 72, 64
6, 11088, Note_on_c, 3, 79, 100
6, 11129, Note_off_c, 3, 79, 64
6, 11136, Note_on_c, 3, 74, 100
6, 11167, Note_off_c, 3, 74, 64
6, 11231, Note_on_c, 3, 72, 100
6, 11272, Note_off_c, 3, 72, 64
6, 11327, Note_on_c, 3, 74, 100
6, 11406, Note_off_c, 3, 74, 0
6, 11424, Note_on_c, 3, 69, 100
6, 11464, Note_off_c, 3, 69, 64
6, 11568, Note_on_c, 3, 76, 98
6, 11616, Note_off_c, 3, 76, 64
6, 11663, Note_on_c, 3, 79, 100
6, 11692, Note_off_c, 3, 79, 64
6, 11712, Note_on_c, 3, 79, 100
6, 11760, Note_on_c, 3, 76, 100
6, 11762, Note_off_c, 3, 79, 64
6, 11809, Note_off_c, 3, 76, 64
6, 11856, Note_on_c, 3, 74, 98
6, 11904, Note_off_c, 3, 74, 64
6, 11951, Note_on_c, 3, 72, 98
6, 11992, Note_off_c, 3, 72, 64
6, 12000, Note_on_c, 3, 69, 100
6, 12091, Note_off_c, 3, 69, 0
6, 12191, Note_on_c, 3, 72, 98
6, 12223, Note_off_c, 3, 72, 0
6, 12240, Note_on_c, 3, 74, 100
6, 12260, Note_off_c, 3, 74, 0
6, 12287, Note_on_c, 3, 74, 100
6, 12322, Note_off_c, 3, 74, 0
6, 12335, Note_on_c, 3, 72, 98
6, 12385, Note_off_c, 3, 72, 64
6, 12432, Note_on_c, 3, 74, 100
6, 12507, Note_off_c, 3, 74, 64
6, 12528, Note_on_c, 3, 72, 98
6, 12555, Note_off_c, 3, 72, 64
6, 12576, Note_on_c, 3, 76, 98
6, 12635, Note_off_c, 3, 76, 64
6, 12672, Note_on_c, 3, 72, 98
6, 12695, Note_off_c, 3, 72, 64
6, 12720, Note_on_c, 3, 74, 98
6, 12791, Note_off_c, 3, 74, 64
6, 12816, Note_on_c, 3, 71, 100
6, 12850, Note_off_c, 3, 71, 64
6, 12864, Note_on_c, 3, 73, 98
6, 12929, Note_off_c, 3, 73, 64
6, 12959, Note_on_c, 3, 76, 100
6, 12990, Note_off_c, 3, 76, 64
6, 13007, Note_on_c, 3, 78, 98
6, 13104, Note_off_c, 3, 78, 64
6, 13104, Note_on_c, 3, 81, 100
6, 13132, Note_off_c, 3, 81, 64
6, 13152, Note_on_c, 3, 78, 98
6, 13247, Note_off_c, 3, 78, 64
6, 13248, Note_on_c, 3, 76, 98
6, 13276, Note_off_c, 3, 76, 64
6, 13296, Note_on_c, 3, 73, 98
6, 13440, Note_on_c, 3, 71, 98
6, 13448, Note_off_c, 3, 73, 64
6, 13470, Note_off_c, 3, 71, 64
6, 13488, Note_on_c, 3, 69, 100
6, 13694, Note_off_c, 3, 69, 0
6, 14016, Note_on_c, 3, 69, 100
6, 14040, Note_off_c, 3, 69, 64
6, 14064, Note_on_c, 3, 71, 98
6, 14088, Note_off_c, 3, 71, 64
6, 14088, Note_on_c, 3, 74, 98
6, 14112, Note_off_c, 3, 74, 64
6, 14112, Note_on_c, 3, 76, 100
6, 14160, Note_off_c, 3, 76, 64
6, 14160, Note_on_c, 3, 78, 98
6, 14232, Note_off_c, 3, 78, 64
6, 14304, Note_on_c, 3, 78, 100
6, 14400, Note_off_c, 3, 78, 64
6, 14448, Note_on_c, 3, 74, 100
6, 14544, Note_off_c, 3, 74, 64
6, 14592, Note_on_c, 3, 71, 98
6, 14618, Note_off_c, 3, 71, 64
6, 14640, Note_on_c, 3, 76, 100
6, 14688, Note_on_c, 3, 74, 100
6, 14696, Note_off_c, 3, 76, 64
6, 14754, Note_off_c, 3, 74, 64
6, 15456, Note_on_c, 3, 71, 100
6, 15492, Note_off_c, 3, 71, 64
6, 15513, Note_on_c, 3, 78, 100
6, 15560, Note_off_c, 3, 78, 64
6, 15572, Note_on_c, 3, 81, 100
6, 15620, Note_off_c, 3, 81, 64
6, 15630, Note_on_c, 3, 83, 100
6, 15677, Note_off_c, 3, 83, 64
6, 15695, Note_on_c, 3, 78, 100
6, 15782, Note_off_c, 3, 78, 64
6, 15792, Note_on_c, 3, 76, 98
6, 15838, Note_off_c, 3, 76, 64
6, 15842, Note_on_c, 3, 76, 100
6, 15905, Note_off_c, 3, 76, 64
6, 15986, Note_on_c, 3, 74, 98
6, 16018, Note_off_c, 3, 74, 64
6, 16034, Note_on_c, 3, 78, 98
6, 16148, Note_off_c, 3, 78, 64
6, 16176, Note_on_c, 3, 76, 100
6, 16208, Note_off_c, 3, 76, 64
6, 16225, Note_on_c, 3, 76, 100
6, 16302, Note_off_c, 3, 76, 64
6, 16847, Note_on_c, 3, 67, 100
6, 16892, Note_off_c, 3, 67, 0
6, 16895, Note_on_c, 3, 69, 100
6, 16943, Note_on_c, 3, 72, 100
6, 16953, Note_off_c, 3, 69, 64
6, 16974, Note_off_c, 3, 72, 0
6, 16992, Note_on_c, 3, 72, 100
6, 17034, Note_off_c, 3, 72, 0
6, 17040, Note_on_c, 3, 74, 100
6, 17228, Note_off_c, 3, 74, 0
6, 17231, Note_on_c, 3, 72, 100
6, 17464, Note_off_c, 3, 72, 64
6, 17765, Note_on_c, 3, 72, 98
6, 17806, Note_off_c, 3, 72, 64
6, 17808, Note_on_c, 3, 74, 100
6, 17857, Note_on_c, 3, 76, 98
6, 17869, Note_off_c, 3, 74, 64
6, 17904, Note_on_c, 3, 79, 100
6, 17905, Note_off_c, 3, 76, 64
6, 17950, Note_off_c, 3, 79, 64
6, 17999, Note_on_c, 3, 81, 100
6, 18105, Note_on_c, 3, 79, 98
6, 18108, Note_off_c, 3, 81, 64
6, 18307, Note_off_c, 3, 79, 64
6, 18590, Note_on_c, 3, 81, 100
6, 18718, Note_off_c, 3, 81, 64
6, 18729, Note_on_c, 3, 76, 100
6, 18763, Note_off_c, 3, 76, 64
6, 18768, Note_on_c, 3, 74, 98
6, 18858, Note_off_c, 3, 74, 0
6, 18871, Note_on_c, 3, 72, 100
6, 18970, Note_off_c, 3, 72, 64
6, 19356, Note_on_c, 3, 76, 100
6, 19443, Note_on_c, 3, 74, 98
6, 19444, Note_off_c, 3, 76, 64
6, 19486, Note_on_c, 3, 72, 98
6, 19491, Note_off_c, 3, 74, 64
6, 19536, Note_on_c, 3, 71, 98
6, 19536, Note_off_c, 3, 72, 64
6, 19637, Note_on_c, 3, 72, 98
6, 19641, Note_off_c, 3, 71, 64
6, 19701, Note_off_c, 3, 72, 64
6, 19726, Note_on_c, 3, 71, 98
6, 19828, Note_on_c, 3, 72, 98
6, 19839, Note_off_c, 3, 71, 64
6, 19884, Note_off_c, 3, 72, 64
6, 19924, Note_on_c, 3, 71, 98
6, 20023, Note_on_c, 3, 74, 98
6, 20031, Note_off_c, 3, 71, 64
6, 20098, Note_off_c, 3, 74, 64
6, 20119, Note_on_c, 3, 72, 100
6, 20225, Note_off_c, 3, 72, 64
6, 20447, Note_on_c, 3, 79, 98
6, 20475, Note_off_c, 3, 79, 64
6, 20495, Note_on_c, 3, 79, 98
6, 20521, Note_off_c, 3, 79, 64
6, 20543, Note_on_c, 3, 79, 98
6, 20578, Note_off_c, 3, 79, 64
6, 20591, Note_on_c, 3, 79, 100
6, 20654, Note_off_c, 3, 79, 64
6, 20687, Note_on_c, 3, 79, 100
6, 20772, Note_off_c, 3, 79, 64
6, 20784, Note_on_c, 3, 79, 100
6, 20809, Note_off_c, 3, 79, 64
6, 20832, Note_on_c, 3, 79, 100
6, 20931, Note_off_c, 3, 79, 64
6, 21024, Note_on_c, 3, 79, 100
6, 21047, Note_off_c, 3, 79, 64
6, 21072, Note_on_c, 3, 79, 100
6, 21108, Note_off_c, 3, 79, 0
6, 21119, Note_on_c, 3, 77, 100
6, 21164, Note_off_c, 3, 77, 0
6, 21168, Note_on_c, 3, 77, 98
6, 21242, Note_off_c, 3, 77, 64
6, 21264, Note_on_c, 3, 77, 100
6, 21351, Note_off_c, 3, 77, 64
6, 21360, Note_on_c, 3, 76, 100
6, 21432, Note_off_c, 3, 76, 64
6, 21456, Note_on_c, 3, 76, 100
6, 21544, Note_off_c, 3, 76, 64
6, 21552, Note_on_c, 3, 74, 100
6, 21580, Note_off_c, 3, 74, 64
6, 21600, Note_on_c, 3, 74, 98
6, 21744, Note_off_c, 3, 74, 64
6, 21744, Note_on_c, 3, 76, 100
6, 21791, Note_off_c, 3, 76, 64
6, 21792, Note_on_c, 3, 76, 100
6, 21919, Note_off_c, 3, 76, 64
6, 21938, Note_on_c, 3, 76, 100
6, 21996, Note_off_c, 3, 76, 64
6, 22032, Note_on_c, 3, 76, 100
6, 22062, Note_off_c, 3, 76, 64
6, 22080, Note_on_c, 3, 76, 100
6, 22106, Note_off_c, 3, 76, 64
6, 22128, Note_on_c, 3, 76, 100
6, 22188, Note_off_c, 3, 76, 64
6, 22224, Note_on_c, 3, 76, 100
6, 22321, Note_on_c, 3, 74, 98
6, 22322, Note_off_c, 3, 76, 64
6, 22374, Note_off_c, 3, 74, 64
6, 22417, Note_on_c, 3, 76, 100
6, 22603, Note_off_c, 3, 76, 64
6, 22608, Note_on_c, 3, 74, 98
6, 22660, Note_off_c, 3, 74, 64
6, 22704, Note_on_c, 3, 76, 100
6, 22750, Note_off_c, 3, 76, 64
6, 22799, Note_on_c, 3, 76, 100
6, 22823, Note_off_c, 3, 76, 64
6, 22847, Note_on_c, 3, 76, 98
6, 22888, Note_off_c, 3, 76, 64
6, 22895, Note_on_c, 3, 81, 100
6, 22942, Note_off_c, 3, 81, 64
6, 22991, Note_on_c, 3, 83, 100
6, 23065, Note_off_c, 3, 83, 0
6, 23088, Note_on_c, 3, 84, 100
6, 23151, Note_off_c, 3, 84, 64
6, 23184, Note_on_c, 3, 86, 100
6, 23324, Note_off_c, 3, 86, 64
6, 23328, Note_on_c, 3, 84, 100
6, 23402, Note_off_c, 3, 84, 0
6, 23527, Note_on_c, 3, 76, 98
6, 23554, Note_off_c, 3, 76, 64
6, 23572, Note_on_c, 3, 76, 98
6, 23596, Note_off_c, 3, 76, 64
6, 23613, Note_on_c, 3, 76, 98
6, 23635, Note_off_c, 3, 76, 64
6, 23656, Note_on_c, 3, 76, 100
6, 23721, Note_off_c, 3, 76, 64
6, 23757, Note_on_c, 3, 76, 100
6, 23843, Note_off_c, 3, 76, 64
6, 23860, Note_on_c, 3, 76, 100
6, 23884, Note_off_c, 3, 76, 64
6, 23910, Note_on_c, 3, 76, 100
6, 24051, Note_on_c, 3, 72, 98
6, 24055, Note_off_c, 3, 76, 64
6, 24115, Note_off_c, 3, 72, 64
6, 24144, Note_on_c, 3, 72, 100
6, 24188, Note_off_c, 3, 72, 0
6, 24205, Note_on_c, 3, 72, 100
6, 24237, Note_off_c, 3, 72, 64
6, 24254, Note_on_c, 3, 72, 100
6, 24308, Note_off_c, 3, 72, 64
6, 24343, Note_on_c, 3, 77, 100
6, 24409, Note_off_c, 3, 77, 64
6, 24437, Note_on_c, 3, 79, 98
6, 24476, Note_off_c, 3, 79, 64
6, 24486, Note_on_c, 3, 81, 100
6, 24623, Note_off_c, 3, 81, 0
6, 24625, Note_on_c, 3, 82, 98
6, 24704, Note_off_c, 3, 82, 64
6, 24724, Note_on_c, 3, 81, 98
6, 24816, Note_off_c, 3, 81, 64
6, 24819, Note_on_c, 3, 79, 98
6, 24859, Note_off_c, 3, 79, 64
6, 24863, Note_on_c, 3, 77, 98
6, 24960, Note_off_c, 3, 77, 0
6, 25056, Note_on_c, 3, 72, 98
6, 25096, Note_off_c, 3, 72, 64
6, 25104, Note_on_c, 3, 77, 98
6, 25129, Note_off_c, 3, 77, 64
6, 25152, Note_on_c, 3, 77, 98
6, 25190, Note_off_c, 3, 77, 64
6, 25199, Note_on_c, 3, 72, 100
6, 25234, Note_off_c, 3, 72, 64
6, 25296, Note_on_c, 3, 77, 98
6, 25392, Note_on_c, 3, 72, 100
6, 25401, Note_off_c, 3, 77, 64
6, 25427, Note_off_c, 3, 72, 64
6, 25488, Note_on_c, 3, 77, 100
6, 25545, Note_off_c, 3, 77, 64
6, 25632, Note_on_c, 3, 72, 98
6, 25664, Note_off_c, 3, 72, 64
6, 25680, Note_on_c, 3, 74, 100
6, 25710, Note_off_c, 3, 74, 0
6, 25728, Note_on_c, 3, 74, 100
6, 25756, Note_off_c, 3, 74, 64
6, 25776, Note_on_c, 3, 74, 98
6, 25819, Note_off_c, 3, 74, 0
6, 25872, Note_on_c, 3, 74, 100
6, 25933, Note_off_c, 3, 74, 64
6, 25968, Note_on_c, 3, 74, 98
6, 25998, Note_off_c, 3, 74, 64
6, 26016, Note_on_c, 3, 76, 100
6, 26095, Note_off_c, 3, 76, 0
6, 26210, Note_on_c, 3, 77, 100
6, 26352, Note_on_c, 3, 76, 100
6, 26363, Note_off_c, 3, 77, 64
6, 26414, Note_off_c, 3, 76, 64
6, 26452, Note_on_c, 3, 74, 100
6, 26541, Note_on_c, 3, 72, 100
6, 26547, Note_off_c, 3, 74, 64
6, 26574, Note_on_c, 3, 69, 98
6, 26574, Note_off_c, 3, 72, 64
6, 26780, Note_off_c, 3, 69, 64
6, 28080, Note_on_c, 3, 69, 98
6, 28114, Note_off_c, 3, 69, 64
6, 28175, Note_on_c, 3, 66, 98
6, 28202, Note_off_c, 3, 66, 64
6, 28223, Note_on_c, 3, 66, 98
6, 28262, Note_off_c, 3, 66, 64
6, 28271, Note_on_c, 3, 69, 98
6, 28312, Note_off_c, 3, 69, 64
6, 28367, Note_on_c, 3, 66, 98
6, 28454, Note_off_c, 3, 66, 64
6, 28464, Note_on_c, 3, 69, 98
6, 28509, Note_off_c, 3, 69, 64
6, 28560, Note_on_c, 3, 66, 98
6, 28613, Note_off_c, 3, 66, 0
6, 28656, Note_on_c, 3, 69, 98
6, 28693, Note_off_c, 3, 69, 64
6, 28703, Note_on_c, 3, 66, 100
6, 28738, Note_off_c, 3, 66, 0
6, 28896, Note_on_c, 3, 69, 98
6, 28931, Note_off_c, 3, 69, 64
6, 28944, Note_on_c, 3, 66, 98
6, 28970, Note_off_c, 3, 66, 0
6, 28992, Note_on_c, 3, 66, 98
6, 29031, Note_off_c, 3, 66, 64
6, 29040, Note_on_c, 3, 69, 98
6, 29073, Note_off_c, 3, 69, 64
6, 29136, Note_on_c, 3, 68, 98
6, 29221, Note_off_c, 3, 68, 64
6, 29232, Note_on_c, 3, 66, 100
6, 29266, Note_off_c, 3, 66, 64
6, 29328, Note_on_c, 3, 68, 98
6, 29406, Note_off_c, 3, 68, 64
6, 29663, Note_on_c, 3, 69, 98
6, 29692, Note_off_c, 3, 69, 64
6, 29711, Note_on_c, 3, 66, 100
6, 29739, Note_off_c, 3, 66, 64
6, 29759, Note_on_c, 3, 66, 98
6, 29790, Note_off_c, 3, 66, 64
6, 29807, Note_on_c, 3, 69, 98
6, 29839, Note_off_c, 3, 69, 64
6, 29903, Note_on_c, 3, 66, 98
6, 29987, Note_off_c, 3, 66, 64
6, 29999, Note_on_c, 3, 69, 98
6, 30030, Note_off_c, 3, 69, 64
6, 30096, Note_on_c, 3, 66, 100
6, 30132, Note_off_c, 3, 66, 64
6, 30191, Note_on_c, 3, 69, 98
6, 30231, Note_off_c, 3, 69, 0
6, 30239, Note_on_c, 3, 66, 100
6, 30290, Note_off_c, 3, 66, 0
6, 30432, Note_on_c, 3, 69, 98
6, 30477, Note_off_c, 3, 69, 64
6, 30480, Note_on_c, 3, 66, 98
6, 30510, Note_off_c, 3, 66, 64
6, 30528, Note_on_c, 3, 66, 98
6, 30564, Note_off_c, 3, 66, 64
6, 30577, Note_on_c, 3, 69, 100
6, 30622, Note_off_c, 3, 69, 64
6, 30672, Note_on_c, 3, 68, 98
6, 30730, Note_off_c, 3, 68, 64
6, 30767, Note_on_c, 3, 66, 98
6, 30813, Note_off_c, 3, 66, 64
6, 30816, Note_on_c, 3, 69, 98
6, 30875, Note_off_c, 3, 69, 64
6, 30912, Note_on_c, 3, 68, 99
6, 30966, Note_off_c, 3, 68, 64
6, 31007, Note_on_c, 3, 66, 100
6, 31058, Note_off_c, 3, 66, 64
6, 31200, Note_on_c, 3, 69, 98
6, 31243, Note_off_c, 3, 69, 64
6, 31248, Note_on_c, 3, 66, 100
6, 31268, Note_off_c, 3, 66, 64
6, 31295, Note_on_c, 3, 66, 100
6, 31334, Note_off_c, 3, 66, 64
6, 31342, Note_on_c, 3, 69, 100
6, 31391, Note_off_c, 3, 69, 64
6, 31440, Note_on_c, 3, 64, 100
6, 31505, Note_off_c, 3, 64, 64
6, 31536, Note_on_c, 3, 69, 100
6, 31598, Note_off_c, 3, 69, 64
6, 31680, Note_on_c, 3, 68, 98
6, 31720, Note_off_c, 3, 68, 0
6, 31750, Note_on_c, 3, 69, 98
6, 31796, Note_off_c, 3, 69, 0
6, 31824, Note_on_c, 3, 62, 98
6, 31900, Note_off_c, 3, 62, 0
6, 31968, Note_on_c, 3, 69, 98
6, 32016, Note_on_c, 3, 68, 98
6, 32016, Note_off_c, 3, 69, 0
6, 32051, Note_off_c, 3, 68, 0
6, 32064, Note_on_c, 3, 68, 98
6, 32112, Note_on_c, 3, 69, 100
6, 32118, Note_off_c, 3, 68, 64
6, 32157, Note_off_c, 3, 69, 64
6, 32208, Note_on_c, 3, 71, 98
6, 32304, Note_on_c, 3, 69, 98
6, 32311, Note_off_c, 3, 71, 64
6, 32352, Note_on_c, 3, 68, 98
6, 32355, Note_off_c, 3, 69, 64
6, 32408, Note_off_c, 3, 68, 64
6, 32448, Note_on_c, 3, 66, 100
6, 32500, Note_off_c, 3, 66, 64
6, 32544, Note_on_c, 3, 66, 98
6, 32611, Note_off_c, 3, 66, 64
6, 32736, Note_on_c, 3, 69, 98
6, 32784, Note_on_c, 3, 66, 98
6, 32789, Note_off_c, 3, 69, 64
6, 32804, Note_off_c, 3, 66, 64
6, 32831, Note_on_c, 3, 66, 98
6, 32880, Note_on_c, 3, 69, 98
6, 32884, Note_off_c, 3, 66, 64
6, 32927, Note_off_c, 3, 69, 64
6, 32975, Note_on_c, 3, 66, 98
6, 33047, Note_off_c, 3, 66, 64
6, 33071, Note_on_c, 3, 69, 98
6, 33120, Note_off_c, 3, 69, 64
6, 33168, Note_on_c, 3, 66, 98
6, 33223, Note_off_c, 3, 66, 0
6, 33264, Note_on_c, 3, 69, 98
6, 33319, Note_off_c, 3, 69, 0
6, 33360, Note_on_c, 3, 69, 100
6, 33430, Note_off_c, 3, 69, 0
6, 33455, Note_on_c, 3, 68, 98
6, 33498, Note_off_c, 3, 68, 0
6, 33551, Note_on_c, 3, 68, 98
6, 33643, Note_off_c, 3, 68, 64
6, 33696, Note_on_c, 3, 66, 98
6, 33737, Note_off_c, 3, 66, 64
6, 33744, Note_on_c, 3, 68, 98
6, 33798, Note_off_c, 3, 68, 64
6, 33840, Note_on_c, 3, 66, 98
6, 33898, Note_off_c, 3, 66, 64
6, 33936, Note_on_c, 3, 69, 98
6, 34062, Note_off_c, 3, 69, 64
6, 34224, Note_on_c, 3, 76, 98
6, 34319, Note_off_c, 3, 76, 64
6, 34320, Note_on_c, 3, 74, 98
6, 34353, Note_off_c, 3, 74, 64
6, 34368, Note_on_c, 3, 74, 98
6, 34408, Note_off_c, 3, 74, 64
6, 34415, Note_on_c, 3, 72, 98
6, 34470, Note_off_c, 3, 72, 64
6, 34512, Note_on_c, 3, 69, 98
6, 34559, Note_off_c, 3, 69, 64
6, 34608, Note_on_c, 3, 72, 98
6, 34656, Note_on_c, 3, 69, 98
6, 34656, Note_off_c, 3, 72, 64
6, 34713, Note_off_c, 3, 69, 0
6, 34751, Note_on_c, 3, 72, 98
6, 34808, Note_off_c, 3, 72, 0
6, 34847, Note_on_c, 3, 69, 100
6, 34894, Note_off_c, 3, 69, 0
6, 35040, Note_on_c, 3, 72, 98
6, 35077, Note_off_c, 3, 72, 64
6, 35088, Note_on_c, 3, 74, 100
6, 35112, Note_off_c, 3, 74, 64
6, 35136, Note_on_c, 3, 74, 100
6, 35178, Note_off_c, 3, 74, 64
6, 35184, Note_on_c, 3, 72, 100
6, 35224, Note_off_c, 3, 72, 64
6, 35280, Note_on_c, 3, 79, 100
6, 35360, Note_off_c, 3, 79, 64
6, 35375, Note_on_c, 3, 76, 98
6, 35424, Note_on_c, 3, 74, 100
6, 35425, Note_off_c, 3, 76, 64
6, 35475, Note_off_c, 3, 74, 64
6, 35519, Note_on_c, 3, 72, 98
6, 35576, Note_off_c, 3, 72, 64
6, 35615, Note_on_c, 3, 69, 100
6, 35674, Note_off_c, 3, 69, 64
6, 35808, Note_on_c, 3, 72, 98
6, 35854, Note_off_c, 3, 72, 64
6, 35856, Note_on_c, 3, 71, 100
6, 35880, Note_off_c, 3, 71, 64
6, 35904, Note_on_c, 3, 71, 98
6, 35948, Note_off_c, 3, 71, 64
6, 35952, Note_on_c, 3, 72, 100
6, 36006, Note_off_c, 3, 72, 64
6, 36048, Note_on_c, 3, 69, 100
6, 36100, Note_off_c, 3, 69, 64
6, 36144, Note_on_c, 3, 72, 98
6, 36188, Note_off_c, 3, 72, 64
6, 36192, Note_on_c, 3, 71, 98
6, 36245, Note_off_c, 3, 71, 0
6, 36288, Note_on_c, 3, 72, 100
6, 36339, Note_off_c, 3, 72, 0
6, 36384, Note_on_c, 3, 69, 100
6, 36448, Note_off_c, 3, 69, 0
6, 36576, Note_on_c, 3, 76, 98
6, 36622, Note_off_c, 3, 76, 64
6, 36623, Note_on_c, 3, 79, 100
6, 36654, Note_off_c, 3, 79, 64
6, 36672, Note_on_c, 3, 79, 100
6, 36716, Note_off_c, 3, 79, 64
6, 36719, Note_on_c, 3, 81, 100
6, 36769, Note_off_c, 3, 81, 64
6, 36816, Note_on_c, 3, 84, 100
6, 36928, Note_off_c, 3, 84, 64
6, 36959, Note_on_c, 3, 79, 98
6, 36996, Note_off_c, 3, 79, 64
6, 37055, Note_on_c, 3, 79, 100
6, 37110, Note_off_c, 3, 79, 64
6, 37151, Note_on_c, 3, 81, 98
6, 37214, Note_off_c, 3, 81, 64
6, 37344, Note_on_c, 3, 72, 98
6, 37384, Note_off_c, 3, 72, 64
6, 37392, Note_on_c, 3, 69, 98
6, 37414, Note_off_c, 3, 69, 64
6, 37440, Note_on_c, 3, 69, 100
6, 37473, Note_off_c, 3, 69, 64
6, 37488, Note_on_c, 3, 72, 100
6, 37522, Note_off_c, 3, 72, 64
6, 37584, Note_on_c, 3, 69, 100
6, 37622, Note_off_c, 3, 69, 64
6, 37680, Note_on_c, 3, 72, 98
6, 37725, Note_off_c, 3, 72, 64
6, 37728, Note_on_c, 3, 71, 100
6, 37898, Note_off_c, 3, 71, 0
6, 37920, Note_on_c, 3, 79, 98
6, 37951, Note_off_c, 3, 79, 0
6, 37968, Note_on_c, 3, 79, 100
6, 37993, Note_off_c, 3, 79, 0
6, 38016, Note_on_c, 3, 79, 100
6, 38044, Note_off_c, 3, 79, 0
6, 38064, Note_on_c, 3, 79, 98
6, 38114, Note_off_c, 3, 79, 64
6, 38160, Note_on_c, 3, 81, 100
6, 38226, Note_off_c, 3, 81, 64
6, 38256, Note_on_c, 3, 76, 98
6, 38304, Note_on_c, 3, 79, 100
6, 38310, Note_off_c, 3, 76, 64
6, 38376, Note_off_c, 3, 79, 64
6, 38400, Note_on_c, 3, 79, 98
6, 38428, Note_off_c, 3, 79, 64
6, 38448, Note_on_c, 3, 81, 100
6, 38516, Note_off_c, 3, 81, 64
6, 38594, Note_on_c, 3, 73, 100
6, 38654, Note_off_c, 3, 73, 64
6, 38666, Note_on_c, 3, 76, 100
6, 38724, Note_off_c, 3, 76, 64
6, 38736, Note_on_c, 3, 78, 100
6, 38874, Note_off_c, 3, 78, 64
6, 38880, Note_on_c, 3, 81, 100
6, 38908, Note_off_c, 3, 81, 64
6, 38929, Note_on_c, 3, 83, 100
6, 39012, Note_off_c, 3, 83, 64
6, 39024, Note_on_c, 3, 81, 98
6, 39077, Note_off_c, 3, 81, 64
6, 39120, Note_on_c, 3, 78, 98
6, 39209, Note_off_c, 3, 78, 64
6, 39216, Note_on_c, 3, 76, 98
6, 39264, Note_off_c, 3, 76, 64
6, 39272, Note_on_c, 3, 69, 100
6, 39310, Note_off_c, 3, 69, 64
6, 39316, Note_on_c, 3, 71, 100
6, 39344, Note_off_c, 3, 71, 64
6, 39364, Note_on_c, 3, 71, 98
6, 39410, Note_off_c, 3, 71, 0
6, 39410, Note_on_c, 3, 74, 100
6, 39475, Note_off_c, 3, 74, 0
6, 39503, Note_on_c, 3, 78, 98
6, 39681, Note_off_c, 3, 78, 64
6, 39704, Note_on_c, 3, 79, 98
6, 39773, Note_off_c, 3, 79, 64
6, 39793, Note_on_c, 3, 78, 98
6, 40074, Note_off_c, 3, 78, 64
6, 40080, Note_on_c, 3, 76, 98
6, 40144, Note_off_c, 3, 76, 64
6, 40174, Note_on_c, 3, 78, 98
6, 40338, Note_on_c, 3, 76, 98
6, 40339, Note_off_c, 3, 78, 64
6, 40380, Note_on_c, 3, 74, 100
6, 40380, Note_off_c, 3, 76, 64
6, 40499, Note_off_c, 3, 74, 64
6, 41182, Note_on_c, 3, 74, 100
6, 41229, Note_on_c, 3, 78, 100
6, 41234, Note_off_c, 3, 74, 64
6, 41272, Note_off_c, 3, 78, 64
6, 41277, Note_on_c, 3, 81, 98
6, 41316, Note_off_c, 3, 81, 64
6, 41326, Note_on_c, 3, 83, 100
6, 41397, Note_off_c, 3, 83, 64
6, 41421, Note_on_c, 3, 78, 100
6, 41536, Note_off_c, 3, 78, 64
6, 41556, Note_on_c, 3, 78, 100
6, 41617, Note_off_c, 3, 78, 64
6, 41636, Note_on_c, 3, 76, 100
6, 41669, Note_off_c, 3, 76, 64
6, 41677, Note_on_c, 3, 74, 100
6, 41756, Note_off_c, 3, 74, 64
6, 41808, Note_on_c, 3, 74, 98
6, 41854, Note_off_c, 3, 74, 64
6, 41906, Note_on_c, 3, 78, 100
6, 41955, Note_off_c, 3, 78, 64
6, 41976, Note_on_c, 3, 76, 100
6, 42269, Note_off_c, 3, 76, 64
6, 42336, Note_on_c, 3, 73, 98
6, 42383, Note_off_c, 3, 73, 64
6, 42396, Note_on_c, 3, 73, 100
6, 42452, Note_off_c, 3, 73, 64
6, 42466, Note_on_c, 3, 73, 100
6, 42507, Note_off_c, 3, 73, 64
6, 42522, Note_on_c, 3, 73, 100
6, 42569, Note_off_c, 3, 73, 64
6, 42578, Note_on_c, 3, 80, 100
6, 42643, Note_off_c, 3, 80, 64
6, 42657, Note_on_c, 3, 81, 100
6, 42690, Note_off_c, 3, 81, 64
6, 42707, Note_on_c, 3, 83, 100
6, 42750, Note_off_c, 3, 83, 64
6, 42766, Note_on_c, 3, 81, 100
6, 42860, Note_off_c, 3, 81, 64
6, 42876, Note_on_c, 3, 73, 100
6, 42952, Note_off_c, 3, 73, 64
6, 42974, Note_on_c, 3, 78, 100
6, 43141, Note_off_c, 3, 78, 64
6, 43158, Note_on_c, 3, 78, 98
6, 43318, Note_off_c, 3, 78, 64
6, 43344, Note_on_c, 3, 78, 100
6, 43504, Note_off_c, 3, 78, 0
6, 43536, Note_on_c, 3, 78, 100
6, 43696, Note_off_c, 3, 78, 0
6, 43825, Note_on_c, 3, 88, 100
6, 43886, Note_off_c, 3, 88, 64
6, 43920, Note_on_c, 3, 85, 98
6, 43963, Note_off_c, 3, 85, 64
6, 43968, Note_on_c, 3, 83, 98
6, 44012, Note_off_c, 3, 83, 64
6, 44015, Note_on_c, 3, 81, 100
6, 44072, Note_off_c, 3, 81, 64
6, 44111, Note_on_c, 3, 81, 100
6, 44197, Note_off_c, 3, 81, 0
6, 44208, Note_on_c, 3, 78, 98
6, 44237, Note_off_c, 3, 78, 64
6, 44255, Note_on_c, 3, 76, 98
6, 44300, Note_off_c, 3, 76, 64
6, 44304, Note_on_c, 3, 81, 100
6, 44391, Note_off_c, 3, 81, 64
6, 44400, Note_on_c, 3, 78, 98
6, 44463, Note_off_c, 3, 78, 64
6, 44496, Note_on_c, 3, 81, 100
6, 44576, Note_off_c, 3, 81, 0
6, 44592, Note_on_c, 3, 78, 98
6, 44632, Note_off_c, 3, 78, 64
6, 44688, Note_on_c, 3, 76, 98
6, 44786, Note_on_c, 3, 73, 98
6, 44791, Note_off_c, 3, 76, 64
6, 44823, Note_off_c, 3, 73, 64
6, 44879, Note_on_c, 3, 76, 100
6, 44969, Note_off_c, 3, 76, 64
6, 44980, Note_on_c, 3, 73, 98
6, 45049, Note_off_c, 3, 73, 64
6, 45068, Note_on_c, 3, 78, 100
6, 45168, Note_on_c, 3, 76, 100
6, 45168, Note_off_c, 3, 78, 64
6, 45224, Note_off_c, 3, 76, 64
6, 45408, Note_on_c, 3, 78, 98
6, 45450, Note_off_c, 3, 78, 64
6, 45456, Note_on_c, 3, 76, 100
6, 45516, Note_off_c, 3, 76, 64
6, 45552, Note_on_c, 3, 78, 100
6, 45610, Note_off_c, 3, 78, 64
6, 45648, Note_on_c, 3, 78, 100
6, 45724, Note_off_c, 3, 78, 0
6, 45744, Note_on_c, 3, 78, 98
6, 45816, Note_off_c, 3, 78, 64
6, 45840, Note_on_c, 3, 78, 100
6, 45895, Note_off_c, 3, 78, 64
6, 45984, Note_on_c, 3, 73, 100
6, 46028, Note_off_c, 3, 73, 64
6, 46031, Note_on_c, 3, 81, 100
6, 46079, Note_on_c, 3, 80, 100
6, 46082, Note_off_c, 3, 81, 64
6, 46127, Note_on_c, 3, 78, 100
6, 46132, Note_off_c, 3, 80, 64
6, 46175, Note_off_c, 3, 78, 64
6, 46223, Note_on_c, 3, 78, 98
6, 46320, Note_on_c, 3, 76, 100
6, 46327, Note_off_c, 3, 78, 64
6, 46353, Note_off_c, 3, 76, 64
6, 46415, Note_on_c, 3, 78, 100
6, 46512, Note_on_c, 3, 76, 98
6, 46518, Note_off_c, 3, 78, 64
6, 46556, Note_off_c, 3, 76, 64
6, 46559, Note_on_c, 3, 73, 98
6, 46623, Note_off_c, 3, 73, 64
6, 46656, Note_on_c, 3, 78, 98
6, 46734, Note_off_c, 3, 78, 64
6, 46902, Note_on_c, 3, 80, 100
6, 46951, Note_off_c, 3, 80, 64
6, 46993, Note_on_c, 3, 80, 98
6, 47022, Note_off_c, 3, 80, 64
6, 47040, Note_on_c, 3, 80, 98
6, 47066, Note_off_c, 3, 80, 64
6, 47086, Note_on_c, 3, 80, 98
6, 47154, Note_off_c, 3, 80, 64
6, 47182, Note_on_c, 3, 80, 100
6, 47252, Note_off_c, 3, 80, 64
6, 47278, Note_on_c, 3, 80, 100
6, 47306, Note_off_c, 3, 80, 64
6, 47324, Note_on_c, 3, 80, 98
6, 47433, Note_off_c, 3, 80, 64
6, 47518, Note_on_c, 3, 76, 100
6, 47544, Note_off_c, 3, 76, 64
6, 47570, Note_on_c, 3, 76, 100
6, 47619, Note_off_c, 3, 76, 0
6, 47620, Note_on_c, 3, 74, 98
6, 47652, Note_off_c, 3, 74, 64
6, 47677, Note_on_c, 3, 74, 100
6, 47722, Note_off_c, 3, 74, 64
6, 47763, Note_on_c, 3, 74, 100
6, 47851, Note_off_c, 3, 74, 64
6, 47862, Note_on_c, 3, 73, 98
6, 47907, Note_off_c, 3, 73, 64
6, 47954, Note_on_c, 3, 73, 100
6, 48052, Note_off_c, 3, 73, 64
6, 48054, Note_on_c, 3, 71, 98
6, 48104, Note_off_c, 3, 71, 64
6, 48146, Note_on_c, 3, 71, 98
6, 48238, Note_off_c, 3, 71, 64
6, 48240, Note_on_c, 3, 69, 98
6, 48288, Note_off_c, 3, 69, 64
6, 48288, Note_on_c, 3, 69, 100
6, 48359, Note_off_c, 3, 69, 0
6, 48432, Note_on_c, 3, 85, 98
6, 48487, Note_off_c, 3, 85, 64
6, 48526, Note_on_c, 3, 85, 100
6, 48580, Note_off_c, 3, 85, 64
6, 48583, Note_on_c, 3, 83, 100
6, 48630, Note_on_c, 3, 81, 100
6, 48632, Note_off_c, 3, 83, 64
6, 48700, Note_off_c, 3, 81, 64
6, 48724, Note_on_c, 3, 81, 100
6, 48799, Note_off_c, 3, 81, 0
6, 48818, Note_on_c, 3, 81, 100
6, 48879, Note_off_c, 3, 81, 64
6, 48916, Note_on_c, 3, 81, 100
6, 49000, Note_off_c, 3, 81, 64
6, 49011, Note_on_c, 3, 73, 100
6, 49073, Note_off_c, 3, 73, 64
6, 49108, Note_on_c, 3, 73, 100
6, 49160, Note_off_c, 3, 73, 64
6, 49166, Note_on_c, 3, 71, 100
6, 49206, Note_on_c, 3, 69, 100
6, 49206, Note_off_c, 3, 71, 64
6, 49257, Note_off_c, 3, 69, 64
6, 49297, Note_on_c, 3, 69, 100
6, 49385, Note_off_c, 3, 69, 64
6, 49392, Note_on_c, 3, 66, 98
6, 49458, Note_off_c, 3, 66, 64
6, 49490, Note_on_c, 3, 69, 100
6, 49569, Note_off_c, 3, 69, 0
6, 49582, Note_on_c, 3, 66, 98
6, 49632, Note_on_c, 3, 73, 100
6, 49633, Note_off_c, 3, 66, 64
6, 49776, Note_on_c, 3, 71, 100
6, 49783, Note_off_c, 3, 73, 64
6, 49824, Note_off_c, 3, 71, 64
6, 49828, Note_on_c, 3, 71, 100
6, 49962, Note_off_c, 3, 71, 64
6, 49968, Note_on_c, 3, 69, 100
6, 50016, Note_off_c, 3, 69, 64
6, 50018, Note_on_c, 3, 78, 100
6, 50062, Note_off_c, 3, 78, 64
6, 50062, Note_on_c, 3, 88, 100
6, 50098, Note_off_c, 3, 88, 64
6, 50115, Note_on_c, 3, 88, 98
6, 50161, Note_on_c, 3, 85, 100
6, 50166, Note_off_c, 3, 88, 64
6, 50219, Note_off_c, 3, 85, 64
6, 50256, Note_on_c, 3, 83, 100
6, 50348, Note_off_c, 3, 83, 64
6, 50352, Note_on_c, 3, 81, 98
6, 50384, Note_off_c, 3, 81, 64
6, 50402, Note_on_c, 3, 81, 100
6, 50489, Note_off_c, 3, 81, 64
6, 50592, Note_on_c, 3, 69, 100
6, 50615, Note_off_c, 3, 69, 64
6, 50640, Note_on_c, 3, 69, 100
6, 50668, Note_off_c, 3, 69, 0
6, 50688, Note_on_c, 3, 69, 100
6, 50715, Note_off_c, 3, 69, 0
6, 50736, Note_on_c, 3, 69, 100
6, 50800, Note_off_c, 3, 69, 64
6, 50832, Note_on_c, 3, 71, 100
6, 50894, Note_off_c, 3, 71, 64
6, 50927, Note_on_c, 3, 74, 98
6, 50950, Note_off_c, 3, 74, 64
6, 50976, Note_on_c, 3, 78, 100
6, 51122, Note_on_c, 3, 79, 100
6, 51130, Note_off_c, 3, 78, 64
6, 51170, Note_on_c, 3, 78, 98
6, 51174, Note_off_c, 3, 79, 64
6, 51311, Note_off_c, 3, 78, 64
6, 51314, Note_on_c, 3, 76, 98
6, 51337, Note_off_c, 3, 76, 64
6, 51361, Note_on_c, 3, 76, 100
6, 51456, Note_off_c, 3, 76, 0
6, 51461, Note_on_c, 3, 74, 100
6, 51552, Note_off_c, 3, 74, 64
6, 51560, Note_on_c, 3, 74, 100
6, 51602, Note_off_c, 3, 74, 64
6, 51605, Note_on_c, 3, 78, 98
6, 51631, Note_off_c, 3, 78, 64
6, 51651, Note_on_c, 3, 78, 98
6, 51703, Note_on_c, 3, 74, 100
6, 51704, Note_off_c, 3, 78, 64
6, 51735, Note_off_c, 3, 74, 64
6, 51794, Note_on_c, 3, 78, 98
6, 51894, Note_on_c, 3, 76, 100
6, 51898, Note_off_c, 3, 78, 64
6, 51938, Note_off_c, 3, 76, 64
6, 51991, Note_on_c, 3, 76, 100
6, 52083, Note_off_c, 3, 76, 64
6, 52128, Note_on_c, 3, 73, 100
6, 52170, Note_off_c, 3, 73, 64
6, 52176, Note_on_c, 3, 83, 100
6, 52213, Note_off_c, 3, 83, 0
6, 52224, Note_on_c, 3, 83, 100
6, 52272, Note_on_c, 3, 81, 100
6, 52282, Note_off_c, 3, 83, 64
6, 52327, Note_off_c, 3, 81, 64
6, 52368, Note_on_c, 3, 78, 100
6, 52448, Note_off_c, 3, 78, 64
6, 52463, Note_on_c, 3, 76, 100
6, 52490, Note_off_c, 3, 76, 64
6, 52511, Note_on_c, 3, 76, 100
6, 52593, Note_off_c, 3, 76, 0
6, 52657, Note_on_c, 3, 88, 98
6, 52990, Note_off_c, 3, 88, 64
6, 53007, Note_on_c, 3, 85, 98
6, 53079, Note_on_c, 3, 83, 98
6, 53081, Note_off_c, 3, 85, 64
6, 53118, Note_off_c, 3, 83, 64
6, 53137, Note_on_c, 3, 83, 98
6, 53287, Note_off_c, 3, 83, 64
6, 60288, End_track
7, 0, Start_track
7, 180, Control_c, 4, 121, 0
7, 182, Control_c, 4, 10, 64
7, 184, Control_c, 4, 93, 0
7, 186, Control_c, 4, 91, 20
7, 188, Control_c, 4, 11, 127
7, 190, Control_c, 4, 7, 102
7, 192, Pitch_bend_c, 4, 8192
7, 194, Control_c, 4, 0, 0
7, 196, Program_c, 4, 73
7, 6239, Note_on_c, 4, 73, 98
7, 6274, Note_off_c, 4, 73, 64
7, 6287, Note_on_c, 4, 69, 98
7, 6321, Note_off_c, 4, 69, 0
7, 6335, Note_on_c, 4, 69, 98
7, 6384, Note_on_c, 4, 73, 100
7, 6389, Note_off_c, 4, 69, 64
7, 6432, Note_off_c, 4, 73, 64
7, 6480, Note_on_c, 4, 71, 98
7, 6555, Note_off_c, 4, 71, 64
7, 6576, Note_on_c, 4, 69, 100
7, 6613, Note_off_c, 4, 69, 64
7, 6624, Note_on_c, 4, 73, 100
7, 6673, Note_off_c, 4, 73, 64
7, 6720, Note_on_c, 4, 69, 100
7, 6768, Note_off_c, 4, 69, 64
7, 6815, Note_on_c, 4, 69, 100
7, 6877, Note_off_c, 4, 69, 64
7, 18144, Note_on_c, 4, 79, 98
7, 18184, Note_off_c, 4, 79, 64
7, 18192, Note_on_c, 4, 84, 100
7, 18221, Note_off_c, 4, 84, 64
7, 18241, Note_on_c, 4, 84, 100
7, 18276, Note_off_c, 4, 84, 64
7, 18288, Note_on_c, 4, 79, 100
7, 18341, Note_off_c, 4, 79, 64
7, 18385, Note_on_c, 4, 84, 100
7, 18441, Note_off_c, 4, 84, 64
7, 18479, Note_on_c, 4, 84, 100
7, 18534, Note_off_c, 4, 84, 64
7, 18576, Note_on_c, 4, 81, 100
7, 18659, Note_off_c, 4, 81, 64
7, 18925, Note_on_c, 4, 79, 100
7, 18950, Note_off_c, 4, 79, 64
7, 18971, Note_on_c, 4, 88, 100
7, 19064, Note_on_c, 4, 86, 100
7, 19064, Note_off_c, 4, 88, 64
7, 19088, Note_off_c, 4, 86, 64
7, 19105, Note_on_c, 4, 88, 100
7, 19156, Note_on_c, 4, 86, 100
7, 19157, Note_off_c, 4, 88, 64
7, 19252, Note_off_c, 4, 86, 64
7, 19254, Note_on_c, 4, 84, 100
7, 19338, Note_off_c, 4, 84, 64
7, 19536, Note_on_c, 4, 74, 98
7, 19637, Note_on_c, 4, 76, 98
7, 19641, Note_off_c, 4, 74, 64
7, 19701, Note_off_c, 4, 76, 64
7, 19726, Note_on_c, 4, 74, 98
7, 19828, Note_on_c, 4, 76, 98
7, 19839, Note_off_c, 4, 74, 64
7, 19884, Note_off_c, 4, 76, 64
7, 19924, Note_on_c, 4, 74, 98
7, 20020, Note_off_c, 4, 74, 64
7, 20119, Note_on_c, 4, 76, 100
7, 20225, Note_off_c, 4, 76, 64
7, 20447, Note_on_c, 4, 83, 98
7, 20475, Note_off_c, 4, 83, 64
7, 20495, Note_on_c, 4, 83, 98
7, 20521, Note_off_c, 4, 83, 64
7, 20543, Note_on_c, 4, 83, 98
7, 20578, Note_off_c, 4, 83, 64
7, 20591, Note_on_c, 4, 83, 100
7, 20654, Note_off_c, 4, 83, 64
7, 20687, Note_on_c, 4, 83, 100
7, 20772, Note_off_c, 4, 83, 64
7, 20784, Note_on_c, 4, 83, 100
7, 20809, Note_off_c, 4, 83, 64
7, 20832, Note_on_c, 4, 83, 100
7, 20931, Note_off_c, 4, 83, 64
7, 21024, Note_on_c, 4, 84, 100
7, 21047, Note_off_c, 4, 84, 64
7, 21072, Note_on_c, 4, 84, 100
7, 21108, Note_off_c, 4, 84, 0
7, 21119, Note_on_c, 4, 81, 100
7, 21164, Note_off_c, 4, 81, 0
7, 21168, Note_on_c, 4, 81, 98
7, 21242, Note_off_c, 4, 81, 64
7, 21264, Note_on_c, 4, 81, 100
7, 21351, Note_off_c, 4, 81, 64
7, 21360, Note_on_c, 4, 79, 100
7, 21432, Note_off_c, 4, 79, 64
7, 21456, Note_on_c, 4, 79, 100
7, 21544, Note_off_c, 4, 79, 64
7, 21552, Note_on_c, 4, 77, 100
7, 21580, Note_off_c, 4, 77, 64
7, 21600, Note_on_c, 4, 77, 98
7, 21744, Note_off_c, 4, 77, 64
7, 21744, Note_on_c, 4, 79, 100
7, 21792, Note_off_c, 4, 79, 64
7, 21792, Note_on_c, 4, 79, 100
7, 21919, Note_off_c, 4, 79, 64
7, 21936, Note_on_c, 4, 79, 100
7, 21993, Note_off_c, 4, 79, 64
7, 22030, Note_on_c, 4, 79, 100
7, 22059, Note_off_c, 4, 79, 64
7, 22078, Note_on_c, 4, 79, 100
7, 22104, Note_off_c, 4, 79, 64
7, 22126, Note_on_c, 4, 79, 100
7, 22186, Note_off_c, 4, 79, 64
7, 22222, Note_on_c, 4, 79, 100
7, 22319, Note_off_c, 4, 79, 0
7, 22320, Note_on_c, 4, 79, 98
7, 22372, Note_off_c, 4, 79, 64
7, 22415, Note_on_c, 4, 79, 100
7, 22600, Note_off_c, 4, 79, 64
7, 23527, Note_on_c, 4, 72, 98
7, 23554, Note_off_c, 4, 72, 64
7, 23572, Note_on_c, 4, 72, 98
7, 23596, Note_off_c, 4, 72, 64
7, 23613, Note_on_c, 4, 72, 98
7, 23635, Note_off_c, 4, 72, 64
7, 23656, Note_on_c, 4, 72, 100
7, 23721, Note_off_c, 4, 72, 64
7, 23757, Note_on_c, 4, 72, 100
7, 23843, Note_off_c, 4, 72, 64
7, 23860, Note_on_c, 4, 72, 100
7, 23884, Note_off_c, 4, 72, 64
7, 23910, Note_on_c, 4, 72, 100
7, 24055, Note_off_c, 4, 72, 64
7, 25296, Note_on_c, 4, 81, 98
7, 25392, Note_on_c, 4, 77, 100
7, 25401, Note_off_c, 4, 81, 64
7, 25426, Note_off_c, 4, 77, 64
7, 25487, Note_on_c, 4, 81, 100
7, 25545, Note_off_c, 4, 81, 64
7, 25632, Note_on_c, 4, 69, 98
7, 25664, Note_off_c, 4, 69, 64
7, 25680, Note_on_c, 4, 71, 100
7, 25710, Note_off_c, 4, 71, 0
7, 25728, Note_on_c, 4, 71, 100
7, 25756, Note_off_c, 4, 71, 64
7, 25775, Note_on_c, 4, 71, 98
7, 25818, Note_off_c, 4, 71, 0
7, 25872, Note_on_c, 4, 71, 100
7, 25933, Note_off_c, 4, 71, 64
7, 25967, Note_on_c, 4, 71, 98
7, 25997, Note_off_c, 4, 71, 64
7, 26016, Note_on_c, 4, 69, 100
7, 26094, Note_off_c, 4, 69, 0
7, 30432, Note_on_c, 4, 73, 98
7, 30477, Note_off_c, 4, 73, 64
7, 30480, Note_on_c, 4, 74, 98
7, 30509, Note_off_c, 4, 74, 64
7, 30527, Note_on_c, 4, 74, 98
7, 30563, Note_off_c, 4, 74, 64
7, 30576, Note_on_c, 4, 73, 100
7, 30621, Note_off_c, 4, 73, 64
7, 30672, Note_on_c, 4, 76, 98
7, 30730, Note_off_c, 4, 76, 64
7, 30768, Note_on_c, 4, 73, 98
7, 30813, Note_off_c, 4, 73, 64
7, 30816, Note_on_c, 4, 74, 98
7, 30875, Note_off_c, 4, 74, 64
7, 30912, Note_on_c, 4, 73, 99
7, 30965, Note_off_c, 4, 73, 64
7, 31008, Note_on_c, 4, 73, 100
7, 31058, Note_off_c, 4, 73, 64
7, 31200, Note_on_c, 4, 73, 98
7, 31243, Note_off_c, 4, 73, 64
7, 31248, Note_on_c, 4, 69, 100
7, 31268, Note_off_c, 4, 69, 64
7, 31295, Note_on_c, 4, 69, 100
7, 31334, Note_off_c, 4, 69, 64
7, 31342, Note_on_c, 4, 73, 100
7, 31391, Note_off_c, 4, 73, 64
7, 31440, Note_on_c, 4, 69, 100
7, 31505, Note_off_c, 4, 69, 64
7, 31536, Note_on_c, 4, 73, 100
7, 31598, Note_off_c, 4, 73, 64
7, 31680, Note_on_c, 4, 71, 98
7, 31720, Note_off_c, 4, 71, 0
7, 31750, Note_on_c, 4, 73, 98
7, 31796, Note_off_c, 4, 73, 0
7, 31824, Note_on_c, 4, 66, 98
7, 31900, Note_off_c, 4, 66, 0
7, 32736, Note_on_c, 4, 73, 98
7, 32784, Note_on_c, 4, 69, 98
7, 32789, Note_off_c, 4, 73, 64
7, 32804, Note_off_c, 4, 69, 64
7, 32831, Note_on_c, 4, 69, 98
7, 32879, Note_on_c, 4, 73, 98
7, 32884, Note_off_c, 4, 69, 64
7, 32927, Note_off_c, 4, 73, 64
7, 32975, Note_on_c, 4, 69, 98
7, 33047, Note_off_c, 4, 69, 64
7, 33071, Note_on_c, 4, 73, 98
7, 33120, Note_off_c, 4, 73, 64
7, 33168, Note_on_c, 4, 69, 98
7, 33223, Note_off_c, 4, 69, 0
7, 33264, Note_on_c, 4, 73, 98
7, 33319, Note_off_c, 4, 73, 0
7, 33360, Note_on_c, 4, 78, 100
7, 33430, Note_off_c, 4, 78, 0
7, 33456, Note_on_c, 4, 76, 98
7, 33498, Note_off_c, 4, 76, 0
7, 33551, Note_on_c, 4, 76, 98
7, 33643, Note_off_c, 4, 76, 64
7, 33696, Note_on_c, 4, 73, 98
7, 33736, Note_off_c, 4, 73, 64
7, 33743, Note_on_c, 4, 76, 98
7, 33797, Note_off_c, 4, 76, 64
7, 33840, Note_on_c, 4, 76, 98
7, 33898, Note_off_c, 4, 76, 64
7, 33936, Note_on_c, 4, 76, 98
7, 34062, Note_off_c, 4, 76, 64
7, 35808, Note_on_c, 4, 76, 98
7, 35853, Note_off_c, 4, 76, 64
7, 35856, Note_on_c, 4, 74, 100
7, 35880, Note_off_c, 4, 74, 64
7, 35903, Note_on_c, 4, 74, 98
7, 35948, Note_off_c, 4, 74, 64
7, 35951, Note_on_c, 4, 76, 100
7, 36005, Note_off_c, 4, 76, 64
7, 36048, Note_on_c, 4, 72, 100
7, 36100, Note_off_c, 4, 72, 64
7, 36143, Note_on_c, 4, 76, 98
7, 36188, Note_off_c, 4, 76, 64
7, 36191, Note_on_c, 4, 74, 98
7, 36245, Note_off_c, 4, 74, 0
7, 36287, Note_on_c, 4, 76, 100
7, 36338, Note_off_c, 4, 76, 0
7, 36384, Note_on_c, 4, 72, 100
7, 36448, Note_off_c, 4, 72, 0
7, 37344, Note_on_c, 4, 76, 98
7, 37384, Note_off_c, 4, 76, 64
7, 37392, Note_on_c, 4, 72, 98
7, 37414, Note_off_c, 4, 72, 64
7, 37440, Note_on_c, 4, 72, 100
7, 37473, Note_off_c, 4, 72, 64
7, 37487, Note_on_c, 4, 76, 100
7, 37522, Note_off_c, 4, 76, 64
7, 37583, Note_on_c, 4, 72, 100
7, 37622, Note_off_c, 4, 72, 64
7, 37679, Note_on_c, 4, 76, 98
7, 37725, Note_off_c, 4, 76, 64
7, 37728, Note_on_c, 4, 74, 100
7, 37898, Note_off_c, 4, 74, 0
7, 45020, Note_on_c, 4, 76, 100
7, 45047, Note_off_c, 4, 76, 64
7, 45070, Note_on_c, 4, 76, 100
7, 45125, Note_off_c, 4, 76, 64
7, 45136, Note_on_c, 4, 88, 100
7, 45299, Note_off_c, 4, 88, 64
7, 45318, Note_on_c, 4, 85, 100
7, 45359, Note_off_c, 4, 85, 0
7, 45366, Note_on_c, 4, 83, 98
7, 45396, Note_off_c, 4, 83, 64
7, 45416, Note_on_c, 4, 85, 100
7, 45473, Note_off_c, 4, 85, 64
7, 45475, Note_on_c, 4, 83, 100
7, 45581, Note_off_c, 4, 83, 64
7, 46032, Note_on_c, 4, 78, 100
7, 46080, Note_on_c, 4, 76, 100
7, 46082, Note_off_c, 4, 78, 64
7, 46128, Note_on_c, 4, 73, 100
7, 46133, Note_off_c, 4, 76, 64
7, 46175, Note_off_c, 4, 73, 64
7, 46224, Note_on_c, 4, 73, 98
7, 46320, Note_on_c, 4, 71, 100
7, 46327, Note_off_c, 4, 73, 64
7, 46353, Note_off_c, 4, 71, 64
7, 46416, Note_on_c, 4, 73, 100
7, 46518, Note_off_c, 4, 73, 64
7, 46896, Note_on_c, 4, 76, 100
7, 46944, Note_off_c, 4, 76, 64
7, 46986, Note_on_c, 4, 76, 98
7, 47014, Note_off_c, 4, 76, 64
7, 47033, Note_on_c, 4, 76, 98
7, 47059, Note_off_c, 4, 76, 64
7, 47079, Note_on_c, 4, 76, 98
7, 47148, Note_off_c, 4, 76, 64
7, 47175, Note_on_c, 4, 76, 100
7, 47244, Note_off_c, 4, 76, 64
7, 47271, Note_on_c, 4, 76, 100
7, 47299, Note_off_c, 4, 76, 64
7, 47317, Note_on_c, 4, 76, 98
7, 47426, Note_off_c, 4, 76, 64
7, 47520, Note_on_c, 4, 81, 100
7, 47546, Note_off_c, 4, 81, 64
7, 47572, Note_on_c, 4, 81, 100
7, 47616, Note_on_c, 4, 78, 98
7, 47621, Note_off_c, 4, 81, 64
7, 47648, Note_off_c, 4, 78, 64
7, 47673, Note_on_c, 4, 78, 100
7, 47718, Note_off_c, 4, 78, 64
7, 47759, Note_on_c, 4, 78, 100
7, 47846, Note_off_c, 4, 78, 64
7, 47856, Note_on_c, 4, 76, 98
7, 47901, Note_off_c, 4, 76, 64
7, 47948, Note_on_c, 4, 76, 100
7, 48046, Note_off_c, 4, 76, 64
7, 48048, Note_on_c, 4, 74, 98
7, 48098, Note_off_c, 4, 74, 64
7, 48139, Note_on_c, 4, 74, 98
7, 48231, Note_off_c, 4, 74, 64
7, 49008, Note_on_c, 4, 76, 100
7, 49070, Note_off_c, 4, 76, 64
7, 49104, Note_on_c, 4, 76, 100
7, 49157, Note_off_c, 4, 76, 64
7, 49166, Note_on_c, 4, 74, 100
7, 49200, Note_on_c, 4, 73, 100
7, 49206, Note_off_c, 4, 74, 64
7, 49250, Note_off_c, 4, 73, 64
7, 49296, Note_on_c, 4, 73, 100
7, 49383, Note_off_c, 4, 73, 64
7, 49392, Note_on_c, 4, 73, 98
7, 49457, Note_off_c, 4, 73, 64
7, 49488, Note_on_c, 4, 73, 100
7, 49566, Note_off_c, 4, 73, 0
7, 49584, Note_on_c, 4, 73, 98
7, 49632, Note_on_c, 4, 76, 100
7, 49634, Note_off_c, 4, 73, 64
7, 49776, Note_on_c, 4, 74, 100
7, 49783, Note_off_c, 4, 76, 64
7, 49824, Note_off_c, 4, 74, 64
7, 49828, Note_on_c, 4, 74, 100
7, 49962, Note_off_c, 4, 74, 64
7, 49968, Note_on_c, 4, 73, 100
7, 50016, Note_off_c, 4, 73, 64
7, 51552, Note_on_c, 4, 69, 100
7, 51593, Note_off_c, 4, 69, 64
7, 51600, Note_on_c, 4, 74, 98
7, 51626, Note_off_c, 4, 74, 64
7, 51646, Note_on_c, 4, 74, 98
7, 51694, Note_on_c, 4, 69, 100
7, 51699, Note_off_c, 4, 74, 64
7, 51726, Note_off_c, 4, 69, 64
7, 51788, Note_on_c, 4, 74, 98
7, 51888, Note_on_c, 4, 73, 100
7, 51893, Note_off_c, 4, 74, 64
7, 51932, Note_off_c, 4, 73, 64
7, 51984, Note_on_c, 4, 73, 100
7, 52077, Note_off_c, 4, 73, 64
7, 60288, End_track
8, 0, Start_track
8, 180, Control_c, 5, 121, 0
8, 182, Control_c, 5, 10, 64
8, 184, Control_c, 5, 93, 0
8, 186, Control_c, 5, 91, 20
8, 188, Control_c, 5, 11, 127
8, 190, Control_c, 5, 7, 99
8, 192, Pitch_bend_c, 5, 8192
8, 194, Control_c, 5, 0, 0
8, 196, Program_c, 5, 52
8, 14303, Note_on_c, 5, 69, 97
8, 14344, Note_off_c, 5, 69, 64
8, 14351, Note_on_c, 5, 71, 99
8, 14400, Note_on_c, 5, 74, 99
8, 14403, Note_off_c, 5, 71, 64
8, 14441, Note_off_c, 5, 74, 64
8, 14448, Note_on_c, 5, 76, 99
8, 14519, Note_off_c, 5, 76, 64
8, 14544, Note_on_c, 5, 69, 99
8, 14544, Note_on_c, 5, 78, 99
8, 14690, Note_off_c, 5, 78, 64
8, 14692, Note_off_c, 5, 69, 64
8, 14735, Note_on_c, 5, 69, 99
8, 14735, Note_on_c, 5, 78, 99
8, 14871, Note_off_c, 5, 69, 64
8, 14872, Note_off_c, 5, 78, 64
8, 14926, Note_on_c, 5, 67, 97
8, 14926, Note_on_c, 5, 76, 97
8, 15116, Note_on_c, 5, 69, 99
8, 15116, Note_off_c, 5, 76, 64
8, 15117, Note_on_c, 5, 78, 99
8, 15120, Note_off_c, 5, 67, 64
8, 15187, Note_off_c, 5, 69, 64
8, 15211, Note_off_c, 5, 78, 64
8, 15220, Note_on_c, 5, 74, 99
8, 15239, Note_on_c, 5, 66, 97
8, 15372, Note_off_c, 5, 74, 64
8, 15379, Note_off_c, 5, 66, 64
8, 16464, Note_on_c, 5, 65, 97
8, 16464, Note_on_c, 5, 69, 97
8, 16597, Note_off_c, 5, 69, 64
8, 16604, Note_off_c, 5, 65, 64
8, 16656, Note_on_c, 5, 64, 99
8, 16656, Note_on_c, 5, 67, 99
8, 16811, Note_off_c, 5, 64, 64
8, 16813, Note_off_c, 5, 67, 64
8, 16848, Note_on_c, 5, 60, 97
8, 16848, Note_on_c, 5, 65, 99
8, 17020, Note_off_c, 5, 60, 0
8, 17040, Note_on_c, 5, 62, 97
8, 17040, Note_on_c, 5, 67, 99
8, 17041, Note_off_c, 5, 65, 64
8, 17187, Note_off_c, 5, 67, 0
8, 17190, Note_off_c, 5, 62, 0
8, 17232, Note_on_c, 5, 67, 97
8, 17232, Note_on_c, 5, 72, 97
8, 18384, Note_on_c, 5, 71, 97
8, 18384, Note_off_c, 5, 72, 64
8, 18768, Note_off_c, 5, 67, 64
8, 18768, Note_on_c, 5, 69, 97
8, 18768, Note_off_c, 5, 71, 64
8, 18768, Note_on_c, 5, 74, 97
8, 19920, Note_on_c, 5, 72, 97
8, 19920, Note_off_c, 5, 74, 64
8, 20304, Note_off_c, 5, 69, 64
8, 20304, Note_on_c, 5, 71, 97
8, 20304, Note_off_c, 5, 72, 64
8, 20304, Note_on_c, 5, 76, 97
8, 21072, Note_on_c, 5, 69, 97
8, 21072, Note_off_c, 5, 71, 64
8, 21072, Note_on_c, 5, 72, 97
8, 21072, Note_off_c, 5, 76, 64
8, 21456, Note_on_c, 5, 67, 97
8, 21456, Note_off_c, 5, 69, 64
8, 21456, Note_off_c, 5, 72, 64
8, 21456, Note_on_c, 5, 74, 97
8, 22224, Note_on_c, 5, 72, 97
8, 22224, Note_off_c, 5, 74, 64
8, 22608, Note_off_c, 5, 67, 64
8, 22608, Note_on_c, 5, 69, 97
8, 22608, Note_off_c, 5, 72, 64
8, 22608, Note_on_c, 5, 72, 97
8, 22992, Note_on_c, 5, 68, 97
8, 22992, Note_off_c, 5, 69, 64
8, 22992, Note_on_c, 5, 71, 97
8, 22992, Note_off_c, 5, 72, 64
8, 23376, Note_off_c, 5, 68, 64
8, 23376, Note_on_c, 5, 69, 97
8, 23376, Note_off_c, 5, 71, 64
8, 23376, Note_on_c, 5, 72, 97
8, 24144, Note_off_c, 5, 69, 64
8, 24144, Note_on_c, 5, 70, 97
8, 24144, Note_off_c, 5, 72, 64
8, 24144, Note_on_c, 5, 74, 97
8, 24528, Note_on_c, 5, 67, 97
8, 24528, Note_off_c, 5, 70, 64
8, 24528, Note_on_c, 5, 72, 97
8, 24528, Note_off_c, 5, 74, 64
8, 24912, Note_off_c, 5, 67, 64
8, 24912, Note_on_c, 5, 69, 97
8, 25296, Note_on_c, 5, 67, 97
8, 25296, Note_off_c, 5, 69, 64
8, 25680, Note_off_c, 5, 67, 64
8, 25680, Note_on_c, 5, 69, 97
8, 25680, Note_off_c, 5, 72, 64
8, 25680, Note_on_c, 5, 74, 97
8, 26064, Note_on_c, 5, 72, 97
8, 26064, Note_off_c, 5, 74, 64
8, 26256, Note_on_c, 5, 68, 97
8, 26256, Note_off_c, 5, 69, 64
8, 26256, Note_on_c, 5, 71, 97
8, 26256, Note_off_c, 5, 72, 64
8, 26448, Note_off_c, 5, 68, 64
8, 26448, Note_off_c, 5, 71, 64
8, 40031, Note_on_c, 5, 69, 99
8, 40079, Note_off_c, 5, 69, 64
8, 40079, Note_on_c, 5, 71, 99
8, 40127, Note_off_c, 5, 71, 64
8, 40128, Note_on_c, 5, 74, 99
8, 40176, Note_off_c, 5, 74, 64
8, 40176, Note_on_c, 5, 76, 99
8, 40224, Note_off_c, 5, 76, 64
8, 40272, Note_on_c, 5, 69, 99
8, 40272, Note_on_c, 5, 74, 99
8, 40272, Note_on_c, 5, 78, 99
8, 40418, Note_off_c, 5, 74, 64
8, 40418, Note_off_c, 5, 78, 64
8, 40420, Note_off_c, 5, 69, 64
8, 40463, Note_on_c, 5, 69, 99
8, 40463, Note_on_c, 5, 74, 99
8, 40463, Note_on_c, 5, 78, 99
8, 40599, Note_off_c, 5, 69, 64
8, 40600, Note_off_c, 5, 74, 64
8, 40600, Note_off_c, 5, 78, 64
8, 40654, Note_on_c, 5, 76, 99
8, 40656, Note_on_c, 5, 67, 99
8, 40656, Note_on_c, 5, 73, 99
8, 40844, Note_off_c, 5, 76, 64
8, 40848, Note_on_c, 5, 67, 99
8, 40848, Note_on_c, 5, 73, 99
8, 40848, Note_on_c, 5, 76, 99
8, 40849, Note_off_c, 5, 67, 64
8, 40849, Note_off_c, 5, 73, 64
8, 40918, Note_off_c, 5, 67, 64
8, 40941, Note_off_c, 5, 73, 64
8, 40941, Note_off_c, 5, 76, 64
8, 40944, Note_on_c, 5, 66, 99
8, 40944, Note_on_c, 5, 71, 99
8, 40944, Note_on_c, 5, 74, 99
8, 41096, Note_off_c, 5, 66, 64
8, 41096, Note_off_c, 5, 71, 64
8, 41096, Note_off_c, 5, 74, 64
8, 41952, Note_on_c, 5, 59, 99
8, 41956, Note_on_c, 5, 62, 99
8, 41976, Note_off_c, 5, 59, 64
8, 41980, Note_off_c, 5, 62, 64
8, 42000, Note_on_c, 5, 59, 99
8, 42005, Note_on_c, 5, 62, 99
8, 42028, Note_off_c, 5, 59, 64
8, 42033, Note_off_c, 5, 62, 64
8, 42048, Note_on_c, 5, 59, 99
8, 42054, Note_on_c, 5, 62, 99
8, 42076, Note_off_c, 5, 59, 64
8, 42081, Note_off_c, 5, 62, 64
8, 42095, Note_on_c, 5, 59, 99
8, 42100, Note_on_c, 5, 62, 99
8, 42151, Note_off_c, 5, 59, 64
8, 42156, Note_off_c, 5, 62, 64
8, 42191, Note_on_c, 5, 66, 99
8, 42192, Note_on_c, 5, 62, 99
8, 42240, Note_on_c, 5, 61, 99
8, 42244, Note_on_c, 5, 64, 99
8, 42245, Note_off_c, 5, 66, 64
8, 42246, Note_off_c, 5, 62, 64
8, 42327, Note_off_c, 5, 61, 64
8, 42332, Note_off_c, 5, 64, 64
8, 42336, Note_on_c, 5, 59, 99
8, 42336, Note_on_c, 5, 62, 99
8, 42382, Note_off_c, 5, 59, 64
8, 42383, Note_off_c, 5, 62, 64
8, 42384, Note_on_c, 5, 61, 99
8, 42391, Note_on_c, 5, 64, 99
8, 42512, Note_off_c, 5, 61, 64
8, 42519, Note_off_c, 5, 64, 64
8, 42576, Note_on_c, 5, 61, 99
8, 42576, Note_on_c, 5, 66, 99
8, 43344, Note_off_c, 5, 61, 64
8, 43344, Note_off_c, 5, 66, 64
8, 43728, Note_on_c, 5, 64, 97
8, 43728, Note_on_c, 5, 69, 97
8, 44880, Note_on_c, 5, 68, 97
8, 44880, Note_off_c, 5, 69, 64
8, 45264, Note_off_c, 5, 64, 64
8, 45264, Note_on_c, 5, 66, 97
8, 45264, Note_off_c, 5, 68, 64
8, 45264, Note_on_c, 5, 71, 97
8, 46416, Note_on_c, 5, 69, 97
8, 46416, Note_off_c, 5, 71, 64
8, 46800, Note_off_c, 5, 66, 64
8, 46800, Note_on_c, 5, 68, 97
8, 46800, Note_off_c, 5, 69, 64
8, 46800, Note_on_c, 5, 73, 97
8, 47568, Note_on_c, 5, 66, 97
8, 47568, Note_off_c, 5, 68, 64
8, 47568, Note_on_c, 5, 69, 97
8, 47568, Note_off_c, 5, 73, 64
8, 47952, Note_on_c, 5, 64, 97
8, 47952, Note_off_c, 5, 66, 64
8, 47952, Note_off_c, 5, 69, 64
8, 47952, Note_on_c, 5, 71, 97
8, 48720, Note_on_c, 5, 69, 97
8, 48720, Note_off_c, 5, 71, 64
8, 49104, Note_off_c, 5, 64, 64
8, 49104, Note_on_c, 5, 66, 97
8, 49104, Note_off_c, 5, 69, 64
8, 49104, Note_on_c, 5, 69, 97
8, 49488, Note_on_c, 5, 65, 97
8, 49488, Note_off_c, 5, 66, 64
8, 49488, Note_on_c, 5, 68, 97
8, 49488, Note_off_c, 5, 69, 64
8, 49872, Note_off_c, 5, 65, 64
8, 49872, Note_on_c, 5, 66, 97
8, 49872, Note_off_c, 5, 68, 64
8, 49872, Note_on_c, 5, 69, 97
8, 50640, Note_off_c, 5, 66, 64
8, 50640, Note_on_c, 5, 67, 97
8, 50640, Note_off_c, 5, 69, 64
8, 50640, Note_on_c, 5, 71, 97
8, 51024, Note_on_c, 5, 64, 97
8, 51024, Note_off_c, 5, 67, 64
8, 51024, Note_on_c, 5, 69, 97
8, 51024, Note_off_c, 5, 71, 64
8, 51408, Note_off_c, 5, 64, 64
8, 51408, Note_on_c, 5, 66, 97
8, 51792, Note_on_c, 5, 64, 97
8, 51792, Note_off_c, 5, 66, 64
8, 52176, Note_off_c, 5, 64, 64
8, 52176, Note_on_c, 5, 66, 97
8, 52176, Note_off_c, 5, 69, 64
8, 52176, Note_on_c, 5, 71, 97
8, 52560, Note_on_c, 5, 69, 97
8, 52560, Note_off_c, 5, 71, 64
8, 52752, Note_on_c, 5, 65, 97
8, 52752, Note_off_c, 5, 66, 64
8, 52752, Note_on_c, 5, 68, 97
8, 52752, Note_off_c, 5, 69, 64
8, 52944, Note_off_c, 5, 68, 0
8, 52944, Note_off_c, 5, 65, 0
8, 60288, End_track
9, 0, Start_track
9, 144, Control_c, 6, 121, 0
9, 146, Control_c, 6, 10, 64
9, 148, Control_c, 6, 93, 0
9, 150, Control_c, 6, 91, 50
9, 152, Control_c, 6, 11, 127
9, 154, Control_c, 6, 7, 78
9, 156, Pitch_bend_c, 6, 8192
9, 158, Control_c, 6, 0, 0
9, 160, Program_c, 6, 49
9, 192, Control_c, 6, 99, 1
9, 336, Control_c, 6, 98, 32
9, 384, Control_c, 6, 6, 84
9, 8016, Note_on_c, 6, 52, 95
9, 8400, Note_off_c, 6, 52, 64
9, 8400, Note_on_c, 6, 57, 78
9, 8400, Note_on_c, 6, 60, 78
9, 8400, Note_on_c, 6, 64, 78
9, 8406, Note_on_c, 6, 69, 87
9, 9166, Note_on_c, 6, 71, 87
9, 9168, Note_off_c, 6, 60, 64
9, 9168, Note_on_c, 6, 62, 78
9, 9168, Note_off_c, 6, 64, 64
9, 9168, Note_on_c, 6, 65, 77
9, 9176, Note_off_c, 6, 69, 0
9, 9552, Note_on_c, 6, 56, 78
9, 9552, Note_off_c, 6, 57, 64
9, 9552, Note_on_c, 6, 59, 78
9, 9552, Note_on_c, 6, 64, 77
9, 9552, Note_off_c, 6, 65, 64
9, 9936, Note_off_c, 6, 56, 64
9, 9936, Note_on_c, 6, 57, 78
9, 9936, Note_off_c, 6, 59, 64
9, 9936, Note_on_c, 6, 60, 78
9, 9936, Note_off_c, 6, 62, 64
9, 9936, Note_off_c, 6, 64, 64
9, 9936, Note_on_c, 6, 64, 78
9, 9936, Note_off_c, 6, 71, 64
9, 9936, Note_on_c, 6, 72, 87
9, 10702, Note_on_c, 6, 71, 87
9, 10704, Note_off_c, 6, 60, 64
9, 10704, Note_on_c, 6, 62, 78
9, 10704, Note_off_c, 6, 64, 64
9, 10704, Note_on_c, 6, 65, 77
9, 10706, Note_off_c, 6, 72, 0
9, 11088, Note_on_c, 6, 56, 78
9, 11088, Note_off_c, 6, 57, 64
9, 11088, Note_on_c, 6, 59, 78
9, 11088, Note_on_c, 6, 64, 77
9, 11088, Note_off_c, 6, 65, 64
9, 11472, Note_off_c, 6, 56, 64
9, 11472, Note_on_c, 6, 57, 78
9, 11472, Note_off_c, 6, 59, 64
9, 11472, Note_on_c, 6, 60, 78
9, 11472, Note_off_c, 6, 62, 64
9, 11472, Note_off_c, 6, 64, 64
9, 11472, Note_on_c, 6, 64, 78
9, 11472, Note_off_c, 6, 71, 64
9, 11478, Note_on_c, 6, 69, 87
9, 12238, Note_on_c, 6, 71, 85
9, 12240, Note_off_c, 6, 60, 64
9, 12240, Note_on_c, 6, 62, 78
9, 12240, Note_off_c, 6, 64, 64
9, 12240, Note_on_c, 6, 65, 77
9, 12248, Note_off_c, 6, 69, 0
9, 12624, Note_on_c, 6, 56, 78
9, 12624, Note_off_c, 6, 57, 64
9, 12624, Note_on_c, 6, 59, 78
9, 12624, Note_on_c, 6, 64, 77
9, 12624, Note_off_c, 6, 65, 64
9, 13008, Note_on_c, 6, 54, 76
9, 13008, Note_off_c, 6, 56, 64
9, 13008, Note_on_c, 6, 57, 76
9, 13008, Note_off_c, 6, 59, 64
9, 13008, Note_on_c, 6, 61, 76
9, 13008, Note_off_c, 6, 62, 64
9, 13008, Note_off_c, 6, 64, 64
9, 13008, Note_on_c, 6, 66, 85
9, 13008, Note_off_c, 6, 71, 64
9, 13776, Note_off_c, 6, 57, 64
9, 13776, Note_on_c, 6, 59, 76
9, 13776, Note_off_c, 6, 61, 64
9, 13776, Note_on_c, 6, 62, 76
9, 14160, Note_off_c, 6, 54, 64
9, 14160, Note_on_c, 6, 57, 76
9, 14160, Note_off_c, 6, 59, 64
9, 14160, Note_on_c, 6, 61, 76
9, 14160, Note_off_c, 6, 62, 64
9, 14160, Note_on_c, 6, 64, 76
9, 14160, Note_off_c, 6, 66, 64
9, 14160, Note_on_c, 6, 67, 85
9, 14544, Note_on_c, 6, 54, 75
9, 14544, Note_off_c, 6, 57, 64
9, 14544, Note_on_c, 6, 57, 78
9, 14544, Note_off_c, 6, 61, 64
9, 14544, Note_on_c, 6, 62, 76
9, 14544, Note_off_c, 6, 64, 64
9, 14544, Note_on_c, 6, 66, 93
9, 14544, Note_off_c, 6, 67, 64
9, 14928, Note_off_c, 6, 54, 64
9, 14928, Note_on_c, 6, 55, 75
9, 14928, Note_on_c, 6, 61, 76
9, 14928, Note_off_c, 6, 62, 64
9, 14928, Note_off_c, 6, 66, 64
9, 14928, Note_on_c, 6, 67, 93
9, 15312, Note_off_c, 6, 55, 64
9, 15312, Note_on_c, 6, 56, 79
9, 15312, Note_off_c, 6, 57, 64
9, 15312, Note_on_c, 6, 59, 76
9, 15312, Note_off_c, 6, 61, 64
9, 15312, Note_on_c, 6, 62, 76
9, 15312, Note_off_c, 6, 67, 64
9, 15312, Note_on_c, 6, 68, 95
9, 16080, Note_off_c, 6, 62, 64
9, 16080, Note_on_c, 6, 64, 79
9, 16464, Note_on_c, 6, 53, 78
9, 16464, Note_off_c, 6, 56, 64
9, 16464, Note_on_c, 6, 57, 78
9, 16464, Note_off_c, 6, 59, 64
9, 16464, Note_on_c, 6, 60, 76
9, 16464, Note_on_c, 6, 62, 76
9, 16464, Note_off_c, 6, 64, 64
9, 16464, Note_on_c, 6, 65, 93
9, 16464, Note_off_c, 6, 68, 64
9, 17232, Note_off_c, 6, 53, 64
9, 17232, Note_on_c, 6, 55, 86
9, 17232, Note_off_c, 6, 57, 64
9, 17232, Note_off_c, 6, 60, 64
9, 17232, Note_on_c, 6, 60, 88
9, 17232, Note_off_c, 6, 62, 64
9, 17232, Note_on_c, 6, 64, 96
9, 17232, Note_off_c, 6, 65, 64
9, 17232, Note_on_c, 6, 72, 97
9, 18000, Note_on_c, 6, 62, 102
9, 18000, Note_off_c, 6, 64, 64
9, 18384, Note_on_c, 6, 59, 93
9, 18384, Note_off_c, 6, 60, 64
9, 18384, Note_on_c, 6, 71, 97
9, 18384, Note_off_c, 6, 72, 64
9, 18768, Note_off_c, 6, 55, 64
9, 18768, Note_on_c, 6, 57, 86
9, 18768, Note_off_c, 6, 59, 64
9, 18768, Note_on_c, 6, 65, 75
9, 18768, Note_off_c, 6, 71, 64
9, 18768, Note_on_c, 6, 74, 103
9, 19536, Note_on_c, 6, 64, 96
9, 19536, Note_off_c, 6, 65, 64
9, 19920, Note_on_c, 6, 60, 92
9, 19920, Note_off_c, 6, 62, 64
9, 19920, Note_on_c, 6, 72, 101
9, 19920, Note_off_c, 6, 74, 64
9, 20304, Note_off_c, 6, 57, 64
9, 20304, Note_on_c, 6, 59, 90
9, 20304, Note_off_c, 6, 60, 64
9, 20304, Note_on_c, 6, 67, 86
9, 20304, Note_off_c, 6, 72, 64
9, 20304, Note_on_c, 6, 79, 97
9, 21072, Note_on_c, 6, 57, 86
9, 21072, Note_off_c, 6, 59, 64
9, 21072, Note_on_c, 6, 60, 98
9, 21072, Note_off_c, 6, 64, 64
9, 21072, Note_on_c, 6, 65, 87
9, 21072, Note_off_c, 6, 67, 64
9, 21072, Note_off_c, 6, 79, 64
9, 21072, Note_on_c, 6, 81, 97
9, 21456, Note_off_c, 6, 57, 64
9, 21456, Note_on_c, 6, 59, 81
9, 21456, Note_off_c, 6, 60, 64
9, 21456, Note_on_c, 6, 62, 58
9, 21456, Note_off_c, 6, 65, 64
9, 21456, Note_on_c, 6, 67, 95
9, 21456, Note_off_c, 6, 81, 64
9, 21456, Note_on_c, 6, 83, 95
9, 21840, Note_off_c, 6, 59, 64
9, 21840, Note_on_c, 6, 60, 81
9, 21840, Note_off_c, 6, 62, 64
9, 21840, Note_on_c, 6, 64, 82
9, 21840, Note_off_c, 6, 67, 64
9, 21840, Note_on_c, 6, 67, 82
9, 21840, Note_on_c, 6, 77, 90
9, 21840, Note_off_c, 6, 83, 64
9, 21840, Note_on_c, 6, 84, 91
9, 22032, Note_on_c, 6, 76, 95
9, 22032, Note_off_c, 6, 77, 64
9, 22224, Note_on_c, 6, 74, 93
9, 22224, Note_off_c, 6, 76, 64
9, 22416, Note_on_c, 6, 72, 93
9, 22416, Note_off_c, 6, 74, 64
9, 22608, Note_off_c, 6, 60, 64
9, 22608, Note_on_c, 6, 60, 82
9, 22608, Note_off_c, 6, 64, 64
9, 22608, Note_on_c, 6, 64, 80
9, 22608, Note_off_c, 6, 67, 64
9, 22608, Note_on_c, 6, 69, 67
9, 22608, Note_off_c, 6, 72, 64
9, 22608, Note_on_c, 6, 81, 85
9, 22608, Note_off_c, 6, 84, 64
9, 22992, Note_on_c, 6, 59, 83
9, 22992, Note_off_c, 6, 60, 64
9, 22992, Note_off_c, 6, 69, 64
9, 22992, Note_on_c, 6, 71, 82
9, 22992, Note_off_c, 6, 81, 64
9, 22992, Note_on_c, 6, 83, 90
9, 23376, Note_on_c, 6, 57, 96
9, 23376, Note_off_c, 6, 59, 64
9, 23376, Note_on_c, 6, 60, 86
9, 23376, Note_on_c, 6, 69, 62
9, 23376, Note_off_c, 6, 71, 64
9, 23376, Note_off_c, 6, 83, 64
9, 23376, Note_on_c, 6, 84, 91
9, 23760, Note_off_c, 6, 57, 64
9, 24144, Note_off_c, 6, 60, 64
9, 24144, Note_on_c, 6, 62, 84
9, 24144, Note_off_c, 6, 64, 64
9, 24144, Note_on_c, 6, 65, 84
9, 24144, Note_off_c, 6, 69, 64
9, 24144, Note_on_c, 6, 70, 84
9, 24144, Note_on_c, 6, 74, 84
9, 24144, Note_off_c, 6, 84, 64
9, 24528, Note_on_c, 6, 60, 84
9, 24528, Note_off_c, 6, 62, 64
9, 24528, Note_off_c, 6, 65, 64
9, 24528, Note_on_c, 6, 65, 85
9, 24528, Note_on_c, 6, 67, 83
9, 24528, Note_off_c, 6, 70, 64
9, 24528, Note_off_c, 6, 74, 64
9, 24528, Note_on_c, 6, 77, 84
9, 24720, Note_off_c, 6, 60, 64
9, 24720, Note_on_c, 6, 60, 84
9, 24720, Note_on_c, 6, 64, 83
9, 24720, Note_off_c, 6, 65, 64
9, 24720, Note_on_c, 6, 76, 84
9, 24720, Note_off_c, 6, 77, 64
9, 24912, Note_off_c, 6, 64, 64
9, 24912, Note_on_c, 6, 65, 84
9, 24912, Note_off_c, 6, 67, 64
9, 24912, Note_on_c, 6, 69, 85
9, 24912, Note_off_c, 6, 76, 64
9, 24912, Note_on_c, 6, 79, 86
9, 25104, Note_on_c, 6, 77, 83
9, 25104, Note_off_c, 6, 79, 64
9, 25296, Note_off_c, 6, 65, 64
9, 25296, Note_on_c, 6, 67, 83
9, 25296, Note_off_c, 6, 69, 64
9, 25296, Note_on_c, 6, 76, 83
9, 25296, Note_off_c, 6, 77, 64
9, 25488, Note_on_c, 6, 64, 83
9, 25680, Note_on_c, 6, 59, 87
9, 25680, Note_off_c, 6, 60, 64
9, 25680, Note_on_c, 6, 62, 84
9, 25680, Note_off_c, 6, 64, 64
9, 25680, Note_off_c, 6, 67, 64
9, 25680, Note_on_c, 6, 69, 87
9, 25680, Note_on_c, 6, 74, 83
9, 25680, Note_off_c, 6, 76, 64
9, 26064, Note_on_c, 6, 64, 85
9, 26064, Note_off_c, 6, 69, 64
9, 26064, Note_on_c, 6, 71, 87
9, 26064, Note_off_c, 6, 74, 64
9, 26064, Note_on_c, 6, 76, 83
9, 26256, Note_on_c, 6, 56, 84
9, 26256, Note_off_c, 6, 59, 64
9, 26448, Note_off_c, 6, 56, 64
9, 26448, Note_off_c, 6, 62, 64
9, 26448, Note_off_c, 6, 64, 64
9, 26448, Note_off_c, 6, 71, 64
9, 26448, Note_off_c, 6, 76, 64
9, 33744, Note_on_c, 6, 52, 95
9, 34128, Note_off_c, 6, 52, 64
9, 34128, Note_on_c, 6, 57, 78
9, 34128, Note_on_c, 6, 60, 78
9, 34128, Note_on_c, 6, 64, 78
9, 34134, Note_on_c, 6, 69, 87
9, 34894, Note_on_c, 6, 71, 87
9, 34896, Note_off_c, 6, 60, 64
9, 34896, Note_on_c, 6, 62, 78
9, 34896, Note_off_c, 6, 64, 64
9, 34896, Note_on_c, 6, 65, 77
9, 34904, Note_off_c, 6, 69, 0
9, 35280, Note_on_c, 6, 56, 78
9, 35280, Note_off_c, 6, 57, 64
9, 35280, Note_on_c, 6, 59, 78
9, 35280, Note_on_c, 6, 64, 77
9, 35280, Note_off_c, 6, 65, 64
9, 35664, Note_off_c, 6, 56, 64
9, 35664, Note_on_c, 6, 57, 78
9, 35664, Note_off_c, 6, 59, 64
9, 35664, Note_on_c, 6, 60, 78
9, 35664, Note_off_c, 6, 62, 64
9, 35664, Note_off_c, 6, 64, 64
9, 35664, Note_on_c, 6, 64, 78
9, 35664, Note_off_c, 6, 71, 64
9, 35664, Note_on_c, 6, 72, 87
9, 36430, Note_on_c, 6, 71, 87
9, 36432, Note_off_c, 6, 60, 64
9, 36432, Note_on_c, 6, 62, 78
9, 36432, Note_off_c, 6, 64, 64
9, 36432, Note_on_c, 6, 65, 77
9, 36434, Note_off_c, 6, 72, 0
9, 36816, Note_on_c, 6, 56, 78
9, 36816, Note_off_c, 6, 57, 64
9, 36816, Note_on_c, 6, 59, 78
9, 36816, Note_on_c, 6, 64, 77
9, 36816, Note_off_c, 6, 65, 64
9, 37200, Note_off_c, 6, 56, 64
9, 37200, Note_on_c, 6, 57, 78
9, 37200, Note_off_c, 6, 59, 64
9, 37200, Note_on_c, 6, 60, 78
9, 37200, Note_off_c, 6, 62, 64
9, 37200, Note_off_c, 6, 64, 64
9, 37200, Note_on_c, 6, 64, 78
9, 37200, Note_off_c, 6, 71, 64
9, 37206, Note_on_c, 6, 69, 87
9, 37966, Note_on_c, 6, 71, 85
9, 37968, Note_off_c, 6, 60, 64
9, 37968, Note_on_c, 6, 62, 78
9, 37968, Note_off_c, 6, 64, 64
9, 37968, Note_on_c, 6, 65, 77
9, 37976, Note_off_c, 6, 69, 0
9, 38352, Note_on_c, 6, 56, 78
9, 38352, Note_off_c, 6, 57, 64
9, 38352, Note_on_c, 6, 59, 78
9, 38352, Note_on_c, 6, 64, 77
9, 38352, Note_off_c, 6, 65, 64
9, 38736, Note_on_c, 6, 54, 76
9, 38736, Note_off_c, 6, 56, 64
9, 38736, Note_on_c, 6, 57, 76
9, 38736, Note_off_c, 6, 59, 64
9, 38736, Note_on_c, 6, 61, 76
9, 38736, Note_off_c, 6, 62, 64
9, 38736, Note_off_c, 6, 64, 64
9, 38736, Note_on_c, 6, 66, 85
9, 38736, Note_off_c, 6, 71, 64
9, 39504, Note_off_c, 6, 57, 64
9, 39504, Note_on_c, 6, 59, 76
9, 39504, Note_off_c, 6, 61, 64
9, 39504, Note_on_c, 6, 62, 76
9, 39888, Note_off_c, 6, 54, 64
9, 39888, Note_on_c, 6, 57, 76
9, 39888, Note_off_c, 6, 59, 64
9, 39888, Note_on_c, 6, 61, 76
9, 39888, Note_off_c, 6, 62, 64
9, 39888, Note_on_c, 6, 64, 76
9, 39888, Note_off_c, 6, 66, 64
9, 39888, Note_on_c, 6, 67, 85
9, 40272, Note_on_c, 6, 54, 75
9, 40272, Note_off_c, 6, 57, 64
9, 40272, Note_on_c, 6, 57, 78
9, 40272, Note_off_c, 6, 61, 64
9, 40272, Note_on_c, 6, 62, 76
9, 40272, Note_off_c, 6, 64, 64
9, 40272, Note_on_c, 6, 66, 93
9, 40272, Note_off_c, 6, 67, 64
9, 40656, Note_on_c, 6, 61, 76
9, 40656, Note_off_c, 6, 62, 64
9, 40656, Note_off_c, 6, 66, 64
9, 40656, Note_on_c, 6, 67, 93
9, 41040, Note_off_c, 6, 54, 64
9, 41040, Note_on_c, 6, 54, 79
9, 41040, Note_off_c, 6, 57, 64
9, 41040, Note_on_c, 6, 59, 76
9, 41040, Note_off_c, 6, 61, 64
9, 41040, Note_on_c, 6, 62, 76
9, 41040, Note_on_c, 6, 66, 95
9, 41040, Note_off_c, 6, 67, 64
9, 41424, Note_off_c, 6, 66, 64
9, 41424, Note_on_c, 6, 68, 95
9, 41808, Note_off_c, 6, 54, 64
9, 41808, Note_on_c, 6, 56, 79
9, 41808, Note_off_c, 6, 62, 64
9, 41808, Note_on_c, 6, 64, 79
9, 41808, Note_off_c, 6, 68, 64
9, 41808, Note_on_c, 6, 68, 95
9, 42576, Note_off_c, 6, 56, 64
9, 42576, Note_off_c, 6, 59, 64
9, 42576, Note_on_c, 6, 59, 75
9, 42576, Note_on_c, 6, 61, 83
9, 42576, Note_off_c, 6, 64, 64
9, 42576, Note_on_c, 6, 66, 91
9, 42576, Note_off_c, 6, 68, 64
9, 43344, Note_off_c, 6, 61, 64
9, 43344, Note_on_c, 6, 62, 95
9, 43728, Note_on_c, 6, 52, 86
9, 43728, Note_on_c, 6, 57, 88
9, 43728, Note_off_c, 6, 59, 64
9, 43728, Note_on_c, 6, 61, 96
9, 43728, Note_off_c, 6, 62, 64
9, 43728, Note_off_c, 6, 66, 64
9, 43728, Note_on_c, 6, 69, 97
9, 44496, Note_on_c, 6, 59, 102
9, 44496, Note_off_c, 6, 61, 64
9, 44880, Note_on_c, 6, 56, 93
9, 44880, Note_off_c, 6, 57, 64
9, 44880, Note_on_c, 6, 68, 97
9, 44880, Note_off_c, 6, 69, 64
9, 45264, Note_off_c, 6, 52, 64
9, 45264, Note_on_c, 6, 54, 86
9, 45264, Note_off_c, 6, 56, 64
9, 45264, Note_on_c, 6, 62, 75
9, 45264, Note_off_c, 6, 68, 64
9, 45264, Note_on_c, 6, 71, 103
9, 46032, Note_on_c, 6, 61, 96
9, 46032, Note_off_c, 6, 62, 64
9, 46416, Note_on_c, 6, 57, 92
9, 46416, Note_off_c, 6, 59, 64
9, 46416, Note_on_c, 6, 69, 101
9, 46416, Note_off_c, 6, 71, 64
9, 46800, Note_off_c, 6, 54, 64
9, 46800, Note_on_c, 6, 56, 90
9, 46800, Note_off_c, 6, 57, 64
9, 46800, Note_on_c, 6, 64, 86
9, 46800, Note_off_c, 6, 69, 64
9, 46800, Note_on_c, 6, 76, 97
9, 47568, Note_on_c, 6, 54, 86
9, 47568, Note_off_c, 6, 56, 64
9, 47568, Note_on_c, 6, 57, 98
9, 47568, Note_off_c, 6, 61, 64
9, 47568, Note_on_c, 6, 62, 87
9, 47568, Note_off_c, 6, 64, 64
9, 47568, Note_off_c, 6, 76, 64
9, 47568, Note_on_c, 6, 78, 97
9, 47952, Note_off_c, 6, 54, 64
9, 47952, Note_on_c, 6, 56, 81
9, 47952, Note_off_c, 6, 57, 64
9, 47952, Note_on_c, 6, 59, 58
9, 47952, Note_off_c, 6, 62, 64
9, 47952, Note_on_c, 6, 64, 95
9, 47952, Note_off_c, 6, 78, 64
9, 47952, Note_on_c, 6, 80, 95
9, 48336, Note_off_c, 6, 56, 64
9, 48336, Note_on_c, 6, 57, 81
9, 48336, Note_off_c, 6, 59, 64
9, 48336, Note_on_c, 6, 61, 82
9, 48336, Note_off_c, 6, 64, 64
9, 48336, Note_on_c, 6, 64, 82
9, 48336, Note_on_c, 6, 74, 90
9, 48336, Note_off_c, 6, 80, 64
9, 48336, Note_on_c, 6, 81, 91
9, 48528, Note_on_c, 6, 73, 95
9, 48528, Note_off_c, 6, 74, 64
9, 48720, Note_on_c, 6, 71, 93
9, 48720, Note_off_c, 6, 73, 64
9, 48912, Note_on_c, 6, 69, 93
9, 48912, Note_off_c, 6, 71, 64
9, 49104, Note_off_c, 6, 57, 64
9, 49104, Note_on_c, 6, 57, 82
9, 49104, Note_off_c, 6, 61, 64
9, 49104, Note_on_c, 6, 61, 80
9, 49104, Note_off_c, 6, 64, 64
9, 49104, Note_on_c, 6, 66, 67
9, 49104, Note_off_c, 6, 69, 64
9, 49104, Note_on_c, 6, 78, 85
9, 49104, Note_off_c, 6, 81, 64
9, 49488, Note_on_c, 6, 56, 83
9, 49488, Note_off_c, 6, 57, 64
9, 49488, Note_off_c, 6, 66, 64
9, 49488, Note_on_c, 6, 68, 82
9, 49488, Note_off_c, 6, 78, 64
9, 49488, Note_on_c, 6, 80, 90
9, 49872, Note_on_c, 6, 54, 96
9, 49872, Note_off_c, 6, 56, 64
9, 49872, Note_on_c, 6, 57, 86
9, 49872, Note_on_c, 6, 66, 62
9, 49872, Note_off_c, 6, 68, 64
9, 49872, Note_off_c, 6, 80, 64
9, 49872, Note_on_c, 6, 81, 91
9, 50256, Note_off_c, 6, 54, 64
9, 50640, Note_off_c, 6, 57, 64
9, 50640, Note_on_c, 6, 59, 84
9, 50640, Note_off_c, 6, 61, 64
9, 50640, Note_on_c, 6, 62, 84
9, 50640, Note_off_c, 6, 66, 64
9, 50640, Note_on_c, 6, 67, 84
9, 50640, Note_on_c, 6, 71, 84
9, 50640, Note_off_c, 6, 81, 64
9, 51024, Note_on_c, 6, 57, 84
9, 51024, Note_off_c, 6, 59, 64
9, 51024, Note_off_c, 6, 62, 64
9, 51024, Note_on_c, 6, 62, 85
9, 51024, Note_on_c, 6, 64, 83
9, 51024, Note_off_c, 6, 67, 64
9, 51024, Note_off_c, 6, 71, 64
9, 51024, Note_on_c, 6, 74, 84
9, 51216, Note_off_c, 6, 57, 64
9, 51216, Note_on_c, 6, 57, 84
9, 51216, Note_on_c, 6, 61, 83
9, 51216, Note_off_c, 6, 62, 64
9, 51216, Note_on_c, 6, 73, 84
9, 51216, Note_off_c, 6, 74, 64
9, 51408, Note_off_c, 6, 61, 64
9, 51408, Note_on_c, 6, 62, 84
9, 51408, Note_off_c, 6, 64, 64
9, 51408, Note_on_c, 6, 66, 85
9, 51408, Note_off_c, 6, 73, 64
9, 51408, Note_on_c, 6, 76, 86
9, 51600, Note_on_c, 6, 74, 83
9, 51600, Note_off_c, 6, 76, 64
9, 51792, Note_off_c, 6, 62, 64
9, 51792, Note_on_c, 6, 64, 83
9, 51792, Note_off_c, 6, 66, 64
9, 51792, Note_on_c, 6, 73, 83
9, 51792, Note_off_c, 6, 74, 64
9, 51984, Note_on_c, 6, 61, 83
9, 52176, Note_on_c, 6, 56, 87
9, 52176, Note_off_c, 6, 57, 64
9, 52176, Note_on_c, 6, 59, 84
9, 52176, Note_off_c, 6, 61, 64
9, 52176, Note_off_c, 6, 64, 64
9, 52176, Note_on_c, 6, 66, 87
9, 52176, Note_on_c, 6, 71, 83
9, 52176, Note_off_c, 6, 73, 64
9, 52560, Note_on_c, 6, 61, 85
9, 52560, Note_off_c, 6, 66, 64
9, 52560, Note_on_c, 6, 68, 87
9, 52560, Note_off_c, 6, 71, 64
9, 52560, Note_on_c, 6, 73, 83
9, 52752, Note_on_c, 6, 53, 84
9, 52752, Note_off_c, 6, 56, 64
9, 52944, Note_off_c, 6, 53, 0
9, 52944, Note_off_c, 6, 73, 0
9, 52944, Note_off_c, 6, 68, 0
9, 52944, Note_off_c, 6, 61, 0
9, 52944, Note_off_c, 6, 59, 0
9, 60288, End_track
10, 0, Start_track
10, 360, Control_c, 7, 121, 0
10, 362, Control_c, 7, 10, 64
10, 364, Control_c, 7, 93, 80
10, 366, Control_c, 7, 91, 80
10, 368, Control_c, 7, 11, 127
10, 370, Control_c, 7, 7, 92
10, 372, Pitch_bend_c, 7, 8192
10, 374, Control_c, 7, 0, 0
10, 376, Program_c, 7, 27
10, 384, Control_c, 7, 99, 1
10, 432, Control_c, 7, 98, 99
10, 480, Control_c, 7, 6, 54
10, 528, Control_c, 7, 98, 32
10, 576, Control_c, 7, 6, 59
10, 17232, Note_on_c, 7, 48, 98
10, 17328, Note_on_c, 7, 55, 93
10, 17424, Note_on_c, 7, 60, 98
10, 17520, Note_on_c, 7, 64, 95
10, 17616, Note_off_c, 7, 48, 64
10, 17616, Note_on_c, 7, 52, 98
10, 17616, Note_off_c, 7, 55, 64
10, 17616, Note_off_c, 7, 60, 64
10, 17616, Note_off_c, 7, 64, 64
10, 17712, Note_on_c, 7, 55, 95
10, 17808, Note_on_c, 7, 60, 98
10, 17904, Note_on_c, 7, 64, 94
10, 18000, Note_on_c, 7, 43, 95
10, 18000, Note_off_c, 7, 52, 64
10, 18000, Note_off_c, 7, 55, 64
10, 18000, Note_off_c, 7, 60, 64
10, 18000, Note_off_c, 7, 64, 64
10, 18096, Note_on_c, 7, 55, 97
10, 18192, Note_on_c, 7, 59, 95
10, 18288, Note_off_c, 7, 59, 64
10, 18288, Note_on_c, 7, 62, 98
10, 18384, Note_off_c, 7, 55, 64
10, 18384, Note_on_c, 7, 55, 96
10, 18384, Note_off_c, 7, 62, 64
10, 18480, Note_on_c, 7, 59, 95
10, 18576, Note_on_c, 7, 62, 97
10, 18672, Note_on_c, 7, 67, 96
10, 18768, Note_off_c, 7, 43, 64
10, 18768, Note_on_c, 7, 50, 98
10, 18768, Note_off_c, 7, 55, 64
10, 18768, Note_off_c, 7, 59, 64
10, 18768, Note_off_c, 7, 62, 64
10, 18768, Note_off_c, 7, 67, 64
10, 18864, Note_on_c, 7, 53, 95
10, 18960, Note_off_c, 7, 53, 64
10, 18960, Note_on_c, 7, 57, 98
10, 19056, Note_on_c, 7, 62, 97
10, 19152, Note_off_c, 7, 50, 64
10, 19152, Note_on_c, 7, 53, 95
10, 19152, Note_off_c, 7, 57, 64
10, 19152, Note_off_c, 7, 62, 64
10, 19248, Note_on_c, 7, 57, 94
10, 19344, Note_on_c, 7, 62, 96
10, 19440, Note_on_c, 7, 65, 95
10, 19536, Note_on_c, 7, 45, 97
10, 19536, Note_off_c, 7, 53, 64
10, 19536, Note_off_c, 7, 57, 64
10, 19536, Note_off_c, 7, 62, 64
10, 19536, Note_off_c, 7, 65, 64
10, 19632, Note_on_c, 7, 52, 97
10, 19728, Note_on_c, 7, 57, 95
10, 19824, Note_on_c, 7, 60, 97
10, 19920, Note_off_c, 7, 45, 64
10, 19920, Note_off_c, 7, 52, 64
10, 19920, Note_on_c, 7, 52, 97
10, 19920, Note_off_c, 7, 57, 64
10, 20016, Note_on_c, 7, 57, 95
10, 20016, Note_off_c, 7, 60, 64
10, 20112, Note_on_c, 7, 60, 98
10, 20208, Note_on_c, 7, 64, 97
10, 20304, Note_off_c, 7, 52, 64
10, 20304, Note_on_c, 7, 52, 98
10, 20304, Note_off_c, 7, 57, 64
10, 20304, Note_off_c, 7, 60, 64
10, 20304, Note_off_c, 7, 64, 64
10, 20400, Note_on_c, 7, 55, 95
10, 20496, Note_on_c, 7, 59, 97
10, 20592, Note_on_c, 7, 64, 93
10, 20688, Note_off_c, 7, 52, 64
10, 20688, Note_on_c, 7, 52, 95
10, 20784, Note_off_c, 7, 59, 64
10, 20784, Note_on_c, 7, 59, 95
10, 20784, Note_off_c, 7, 64, 64
10, 20880, Note_on_c, 7, 64, 97
10, 20976, Note_on_c, 7, 67, 98
10, 21072, Note_on_c, 7, 45, 98
10, 21072, Note_off_c, 7, 52, 64
10, 21072, Note_off_c, 7, 55, 64
10, 21072, Note_off_c, 7, 59, 64
10, 21072, Note_off_c, 7, 64, 64
10, 21072, Note_off_c, 7, 67, 64
10, 21168, Note_on_c, 7, 53, 94
10, 21264, Note_on_c, 7, 60, 98
10, 21360, Note_on_c, 7, 65, 96
10, 21456, Note_off_c, 7, 45, 64
10, 21456, Note_on_c, 7, 47, 97
10, 21456, Note_off_c, 7, 53, 64
10, 21552, Note_on_c, 7, 55, 97
10, 21552, Note_off_c, 7, 60, 64
10, 21552, Note_off_c, 7, 65, 64
10, 21648, Note_on_c, 7, 62, 97
10, 21744, Note_on_c, 7, 67, 97
10, 21840, Note_off_c, 7, 47, 64
10, 21840, Note_on_c, 7, 48, 98
10, 21840, Note_off_c, 7, 55, 64
10, 21840, Note_off_c, 7, 62, 64
10, 21840, Note_off_c, 7, 67, 64
10, 21936, Note_on_c, 7, 52, 91
10, 22032, Note_on_c, 7, 55, 95
10, 22128, Note_off_c, 7, 52, 64
10, 22128, Note_on_c, 7, 60, 98
10, 22224, Note_off_c, 7, 48, 64
10, 22224, Note_on_c, 7, 52, 94
10, 22224, Note_off_c, 7, 55, 64
10, 22224, Note_off_c, 7, 60, 64
10, 22320, Note_on_c, 7, 55, 97
10, 22416, Note_on_c, 7, 60, 98
10, 22512, Note_on_c, 7, 64, 97
10, 22608, Note_on_c, 7, 42, 97
10, 22608, Note_off_c, 7, 52, 64
10, 22608, Note_off_c, 7, 55, 64
10, 22608, Note_off_c, 7, 60, 64
10, 22608, Note_off_c, 7, 64, 64
10, 22704, Note_on_c, 7, 57, 97
10, 22800, Note_on_c, 7, 60, 96
10, 22896, Note_on_c, 7, 66, 92
10, 22992, Note_off_c, 7, 42, 64
10, 22992, Note_on_c, 7, 44, 96
10, 22992, Note_off_c, 7, 57, 64
10, 22992, Note_off_c, 7, 60, 64
10, 22992, Note_off_c, 7, 66, 64
10, 23088, Note_on_c, 7, 59, 95
10, 23184, Note_on_c, 7, 52, 94
10, 23184, Note_on_c, 7, 64, 97
10, 23280, Note_off_c, 7, 59, 64
10, 23280, Note_on_c, 7, 68, 94
10, 23376, Note_off_c, 7, 44, 64
10, 23376, Note_on_c, 7, 45, 96
10, 23376, Note_off_c, 7, 52, 64
10, 23376, Note_off_c, 7, 64, 64
10, 23376, Note_off_c, 7, 68, 64
10, 23472, Note_on_c, 7, 52, 98
10, 23568, Note_on_c, 7, 57, 97
10, 23664, Note_off_c, 7, 52, 64
10, 23664, Note_on_c, 7, 60, 98
10, 23760, Note_off_c, 7, 45, 64
10, 23760, Note_on_c, 7, 52, 96
10, 23760, Note_off_c, 7, 57, 64
10, 23760, Note_off_c, 7, 60, 64
10, 23856, Note_on_c, 7, 57, 95
10, 23952, Note_on_c, 7, 60, 97
10, 24048, Note_on_c, 7, 64, 98
10, 24144, Note_on_c, 7, 50, 98
10, 24144, Note_off_c, 7, 52, 64
10, 24144, Note_off_c, 7, 57, 64
10, 24144, Note_off_c, 7, 60, 64
10, 24144, Note_off_c, 7, 64, 64
10, 24240, Note_on_c, 7, 53, 95
10, 24336, Note_on_c, 7, 58, 95
10, 24432, Note_on_c, 7, 62, 98
10, 24528, Note_off_c, 7, 50, 64
10, 24528, Note_on_c, 7, 52, 97
10, 24528, Note_off_c, 7, 53, 64
10, 24528, Note_off_c, 7, 58, 64
10, 24528, Note_off_c, 7, 62, 64
10, 24624, Note_on_c, 7, 55, 95
10, 24720, Note_on_c, 7, 60, 98
10, 24816, Note_off_c, 7, 52, 64
10, 24816, Note_on_c, 7, 64, 97
10, 24912, Note_on_c, 7, 53, 98
10, 24912, Note_off_c, 7, 55, 64
10, 24912, Note_off_c, 7, 60, 64
10, 24912, Note_off_c, 7, 64, 64
10, 25008, Note_on_c, 7, 57, 95
10, 25104, Note_on_c, 7, 60, 97
10, 25200, Note_on_c, 7, 65, 95
10, 25296, Note_on_c, 7, 52, 95
10, 25296, Note_off_c, 7, 53, 64
10, 25296, Note_off_c, 7, 57, 64
10, 25296, Note_off_c, 7, 60, 64
10, 25296, Note_off_c, 7, 65, 64
10, 25392, Note_on_c, 7, 55, 95
10, 25488, Note_on_c, 7, 60, 97
10, 25584, Note_on_c, 7, 64, 98
10, 25680, Note_on_c, 7, 47, 98
10, 25680, Note_off_c, 7, 52, 64
10, 25680, Note_off_c, 7, 55, 64
10, 25680, Note_off_c, 7, 60, 64
10, 25680, Note_off_c, 7, 64, 64
10, 25776, Note_on_c, 7, 53, 95
10, 25872, Note_on_c, 7, 57, 98
10, 25968, Note_on_c, 7, 62, 98
10, 26064, Note_off_c, 7, 47, 64
10, 26064, Note_on_c, 7, 52, 99
10, 26064, Note_off_c, 7, 53, 64
10, 26064, Note_off_c, 7, 57, 64
10, 26064, Note_off_c, 7, 62, 64
10, 26160, Note_on_c, 7, 59, 94
10, 26256, Note_on_c, 7, 62, 97
10, 26352, Note_on_c, 7, 64, 99
10, 26448, Note_off_c, 7, 52, 64
10, 26448, Note_off_c, 7, 59, 64
10, 26448, Note_off_c, 7, 62, 64
10, 26448, Note_off_c, 7, 64, 64
10, 26451, Note_on_c, 7, 71, 119
10, 26737, Note_on_c, 7, 72, 101
10, 26742, Note_off_c, 7, 71, 64
10, 27984, Note_off_c, 7, 72, 64
10, 43728, Note_on_c, 7, 45, 98
10, 43824, Note_on_c, 7, 52, 93
10, 43920, Note_on_c, 7, 57, 98
10, 44016, Note_on_c, 7, 61, 95
10, 44112, Note_off_c, 7, 45, 64
10, 44112, Note_on_c, 7, 49, 98
10, 44112, Note_off_c, 7, 52, 64
10, 44112, Note_off_c, 7, 57, 64
10, 44112, Note_off_c, 7, 61, 64
10, 44208, Note_on_c, 7, 52, 95
10, 44304, Note_on_c, 7, 57, 98
10, 44400, Note_on_c, 7, 61, 94
10, 44496, Note_on_c, 7, 40, 95
10, 44496, Note_off_c, 7, 49, 64
10, 44496, Note_off_c, 7, 52, 64
10, 44496, Note_off_c, 7, 57, 64
10, 44496, Note_off_c, 7, 61, 64
10, 44592, Note_on_c, 7, 52, 97
10, 44688, Note_on_c, 7, 56, 95
10, 44784, Note_off_c, 7, 56, 64
10, 44784, Note_on_c, 7, 59, 98
10, 44880, Note_off_c, 7, 52, 64
10, 44880, Note_on_c, 7, 52, 96
10, 44880, Note_off_c, 7, 59, 64
10, 44976, Note_on_c, 7, 56, 95
10, 45072, Note_on_c, 7, 59, 97
10, 45168, Note_on_c, 7, 64, 96
10, 45264, Note_off_c, 7, 40, 64
10, 45264, Note_on_c, 7, 47, 98
10, 45264, Note_off_c, 7, 52, 64
10, 45264, Note_off_c, 7, 56, 64
10, 45264, Note_off_c, 7, 59, 64
10, 45264, Note_off_c, 7, 64, 64
10, 45360, Note_on_c, 7, 50, 95
10, 45456, Note_off_c, 7, 50, 64
10, 45456, Note_on_c, 7, 54, 98
10, 45552, Note_on_c, 7, 59, 97
10, 45648, Note_off_c, 7, 47, 64
10, 45648, Note_on_c, 7, 50, 95
10, 45648, Note_off_c, 7, 54, 64
10, 45648, Note_off_c, 7, 59, 64
10, 45744, Note_on_c, 7, 54, 94
10, 45840, Note_on_c, 7, 59, 96
10, 45936, Note_on_c, 7, 62, 95
10, 46032, Note_on_c, 7, 42, 97
10, 46032, Note_off_c, 7, 50, 64
10, 46032, Note_off_c, 7, 54, 64
10, 46032, Note_off_c, 7, 59, 64
10, 46032, Note_off_c, 7, 62, 64
10, 46128, Note_on_c, 7, 49, 97
10, 46224, Note_on_c, 7, 54, 95
10, 46320, Note_on_c, 7, 57, 97
10, 46416, Note_off_c, 7, 42, 64
10, 46416, Note_off_c, 7, 49, 64
10, 46416, Note_on_c, 7, 49, 97
10, 46416, Note_off_c, 7, 54, 64
10, 46512, Note_on_c, 7, 54, 95
10, 46512, Note_off_c, 7, 57, 64
10, 46608, Note_on_c, 7, 57, 98
10, 46704, Note_on_c, 7, 61, 97
10, 46800, Note_off_c, 7, 49, 64
10, 46800, Note_on_c, 7, 49, 98
10, 46800, Note_off_c, 7, 54, 64
10, 46800, Note_off_c, 7, 57, 64
10, 46800, Note_off_c, 7, 61, 64
10, 46896, Note_on_c, 7, 52, 95
10, 46992, Note_on_c, 7, 56, 97
10, 47088, Note_on_c, 7, 61, 93
10, 47184, Note_off_c, 7, 49, 64
10, 47184, Note_on_c, 7, 49, 95
10, 47280, Note_off_c, 7, 56, 64
10, 47280, Note_on_c, 7, 56, 95
10, 47280, Note_off_c, 7, 61, 64
10, 47376, Note_on_c, 7, 61, 97
10, 47472, Note_on_c, 7, 64, 98
10, 47568, Note_on_c, 7, 42, 98
10, 47568, Note_off_c, 7, 49, 64
10, 47568, Note_off_c, 7, 52, 64
10, 47568, Note_off_c, 7, 56, 64
10, 47568, Note_off_c, 7, 61, 64
10, 47568, Note_off_c, 7, 64, 64
10, 47664, Note_on_c, 7, 50, 94
10, 47760, Note_on_c, 7, 57, 98
10, 47856, Note_on_c, 7, 62, 96
10, 47952, Note_off_c, 7, 42, 64
10, 47952, Note_on_c, 7, 44, 97
10, 47952, Note_off_c, 7, 50, 64
10, 48048, Note_on_c, 7, 52, 97
10, 48048, Note_off_c, 7, 57, 64
10, 48048, Note_off_c, 7, 62, 64
10, 48144, Note_on_c, 7, 59, 97
10, 48240, Note_on_c, 7, 64, 97
10, 48336, Note_off_c, 7, 44, 64
10, 48336, Note_on_c, 7, 45, 98
10, 48336, Note_off_c, 7, 52, 64
10, 48336, Note_off_c, 7, 59, 64
10, 48336, Note_off_c, 7, 64, 64
10, 48432, Note_on_c, 7, 49, 91
10, 48528, Note_on_c, 7, 52, 95
10, 48624, Note_off_c, 7, 49, 64
10, 48624, Note_on_c, 7, 57, 98
10, 48720, Note_off_c, 7, 45, 64
10, 48720, Note_on_c, 7, 49, 94
10, 48720, Note_off_c, 7, 52, 64
10, 48720, Note_off_c, 7, 57, 64
10, 48816, Note_on_c, 7, 52, 97
10, 48912, Note_on_c, 7, 57, 98
10, 49008, Note_on_c, 7, 61, 97
10, 49104, Note_on_c, 7, 39, 97
10, 49104, Note_off_c, 7, 49, 64
10, 49104, Note_off_c, 7, 52, 64
10, 49104, Note_off_c, 7, 57, 64
10, 49104, Note_off_c, 7, 61, 64
10, 49200, Note_on_c, 7, 54, 97
10, 49296, Note_on_c, 7, 57, 96
10, 49392, Note_on_c, 7, 63, 92
10, 49488, Note_off_c, 7, 39, 64
10, 49488, Note_on_c, 7, 41, 96
10, 49488, Note_off_c, 7, 54, 64
10, 49488, Note_off_c, 7, 57, 64
10, 49488, Note_off_c, 7, 63, 64
10, 49584, Note_on_c, 7, 56, 95
10, 49680, Note_on_c, 7, 49, 94
10, 49680, Note_on_c, 7, 61, 97
10, 49776, Note_off_c, 7, 56, 64
10, 49776, Note_on_c, 7, 65, 94
10, 49872, Note_off_c, 7, 41, 64
10, 49872, Note_on_c, 7, 42, 96
10, 49872, Note_off_c, 7, 49, 64
10, 49872, Note_off_c, 7, 61, 64
10, 49872, Note_off_c, 7, 65, 64
10, 49968, Note_on_c, 7, 49, 98
10, 50064, Note_on_c, 7, 54, 97
10, 50160, Note_off_c, 7, 49, 64
10, 50160, Note_on_c, 7, 57, 98
10, 50256, Note_off_c, 7, 42, 64
10, 50256, Note_on_c, 7, 49, 96
10, 50256, Note_off_c, 7, 54, 64
10, 50256, Note_off_c, 7, 57, 64
10, 50352, Note_on_c, 7, 54, 95
10, 50448, Note_on_c, 7, 57, 97
10, 50544, Note_on_c, 7, 61, 98
10, 50640, Note_on_c, 7, 47, 98
10, 50640, Note_off_c, 7, 49, 64
10, 50640, Note_off_c, 7, 54, 64
10, 50640, Note_off_c, 7, 57, 64
10, 50640, Note_off_c, 7, 61, 64
10, 50736, Note_on_c, 7, 50, 95
10, 50832, Note_on_c, 7, 55, 95
10, 50928, Note_on_c, 7, 59, 98
10, 51024, Note_off_c, 7, 47, 64
10, 51024, Note_on_c, 7, 49, 97
10, 51024, Note_off_c, 7, 50, 64
10, 51024, Note_off_c, 7, 55, 64
10, 51024, Note_off_c, 7, 59, 64
10, 51120, Note_on_c, 7, 52, 95
10, 51216, Note_on_c, 7, 57, 98
10, 51312, Note_off_c, 7, 49, 64
10, 51312, Note_on_c, 7, 61, 97
10, 51408, Note_on_c, 7, 50, 98
10, 51408, Note_off_c, 7, 52, 64
10, 51408, Note_off_c, 7, 57, 64
10, 51408, Note_off_c, 7, 61, 64
10, 51504, Note_on_c, 7, 54, 95
10, 51600, Note_on_c, 7, 57, 97
10, 51696, Note_on_c, 7, 62, 95
10, 51792, Note_on_c, 7, 49, 95
10, 51792, Note_off_c, 7, 50, 64
10, 51792, Note_off_c, 7, 54, 64
10, 51792, Note_off_c, 7, 57, 64
10, 51792, Note_off_c, 7, 62, 64
10, 51888, Note_on_c, 7, 52, 95
10, 51984, Note_on_c, 7, 57, 97
10, 52080, Note_on_c, 7, 61, 98
10, 52176, Note_on_c, 7, 44, 98
10, 52176, Note_off_c, 7, 49, 64
10, 52176, Note_off_c, 7, 52, 64
10, 52176, Note_off_c, 7, 57, 64
10, 52176, Note_off_c, 7, 61, 64
10, 52272, Note_on_c, 7, 50, 95
10, 52368, Note_on_c, 7, 54, 98
10, 52464, Note_on_c, 7, 59, 98
10, 52560, Note_off_c, 7, 44, 64
10, 52560, Note_on_c, 7, 49, 99
10, 52560, Note_off_c, 7, 50, 64
10, 52560, Note_off_c, 7, 54, 64
10, 52560, Note_off_c, 7, 59, 64
10, 52656, Note_on_c, 7, 56, 94
10, 52752, Note_on_c, 7, 59, 97
10, 52848, Note_on_c, 7, 61, 99
10, 52944, Note_off_c, 7, 61, 0
10, 52944, Note_off_c, 7, 59, 0
10, 52944, Note_off_c, 7, 56, 0
10, 52944, Note_off_c, 7, 49, 0
10, 60288, End_track
11, 0, Start_track
11, 360, Control_c, 8, 121, 0
11, 362, Control_c, 8, 10, 64
11, 364, Control_c, 8, 93, 0
11, 366, Control_c, 8, 91, 40
11, 368, Control_c, 8, 11, 127
11, 370, Control_c, 8, 7, 87
11, 372, Pitch_bend_c, 8, 8192
11, 374, Control_c, 8, 0, 0
11, 376, Program_c, 8, 50
11, 384, Control_c, 8, 99, 1
11, 432, Control_c, 8, 98, 99
11, 480, Control_c, 8, 6, 59
11, 528, Control_c, 8, 98, 32
11, 576, Control_c, 8, 6, 61
11, 720, Note_on_c, 8, 57, 43
11, 720, Note_on_c, 8, 59, 43
11, 720, Note_on_c, 8, 62, 45
11, 720, Note_on_c, 8, 64, 45
11, 2208, Note_off_c, 8, 64, 0
11, 2208, Note_off_c, 8, 62, 0
11, 2208, Note_off_c, 8, 59, 0
11, 2208, Note_off_c, 8, 57, 0
11, 13776, Note_on_c, 8, 47, 84
11, 13776, Note_on_c, 8, 59, 82
11, 13776, Note_on_c, 8, 62, 85
11, 13776, Note_on_c, 8, 66, 81
11, 14160, Note_off_c, 8, 47, 64
11, 14160, Note_on_c, 8, 49, 85
11, 14160, Note_on_c, 8, 57, 81
11, 14160, Note_off_c, 8, 59, 64
11, 14160, Note_off_c, 8, 62, 64
11, 14160, Note_on_c, 8, 64, 84
11, 14160, Note_off_c, 8, 66, 64
11, 14160, Note_on_c, 8, 67, 84
11, 14544, Note_off_c, 8, 49, 64
11, 14544, Note_on_c, 8, 50, 84
11, 14544, Note_on_c, 8, 62, 85
11, 14544, Note_off_c, 8, 64, 64
11, 14544, Note_on_c, 8, 66, 81
11, 14544, Note_off_c, 8, 67, 64
11, 14544, Note_on_c, 8, 69, 85
11, 14928, Note_on_c, 8, 49, 82
11, 14928, Note_off_c, 8, 50, 64
11, 14928, Note_on_c, 8, 61, 80
11, 14928, Note_off_c, 8, 62, 64
11, 14928, Note_off_c, 8, 66, 64
11, 14928, Note_on_c, 8, 67, 81
11, 15312, Note_on_c, 8, 47, 81
11, 15312, Note_off_c, 8, 49, 64
11, 15312, Note_off_c, 8, 57, 64
11, 15312, Note_on_c, 8, 59, 84
11, 15312, Note_off_c, 8, 61, 64
11, 15312, Note_on_c, 8, 62, 84
11, 15312, Note_off_c, 8, 67, 64
11, 15312, Note_on_c, 8, 68, 80
11, 15312, Note_off_c, 8, 69, 64
11, 15696, Note_on_c, 8, 44, 84
11, 15696, Note_off_c, 8, 47, 64
11, 16080, Note_off_c, 8, 44, 64
11, 16080, Note_on_c, 8, 52, 82
11, 16080, Note_on_c, 8, 56, 81
11, 16080, Note_off_c, 8, 59, 64
11, 16080, Note_on_c, 8, 59, 85
11, 16080, Note_off_c, 8, 62, 64
11, 16080, Note_on_c, 8, 64, 84
11, 16080, Note_off_c, 8, 68, 64
11, 16080, Note_on_c, 8, 68, 81
11, 16464, Note_on_c, 8, 50, 84
11, 16464, Note_off_c, 8, 52, 64
11, 16464, Note_off_c, 8, 56, 64
11, 16464, Note_on_c, 8, 57, 82
11, 16464, Note_off_c, 8, 59, 64
11, 16464, Note_on_c, 8, 60, 84
11, 16464, Note_off_c, 8, 64, 64
11, 16464, Note_on_c, 8, 65, 84
11, 16464, Note_off_c, 8, 68, 64
11, 16464, Note_on_c, 8, 69, 85
11, 16848, Note_on_c, 8, 43, 84
11, 16848, Note_off_c, 8, 50, 64
11, 16848, Note_on_c, 8, 55, 82
11, 16848, Note_off_c, 8, 57, 64
11, 17232, Note_off_c, 8, 43, 64
11, 17232, Note_on_c, 8, 48, 82
11, 17232, Note_off_c, 8, 55, 64
11, 17232, Note_on_c, 8, 55, 67
11, 17232, Note_off_c, 8, 60, 64
11, 17232, Note_on_c, 8, 60, 86
11, 17232, Note_on_c, 8, 62, 93
11, 17232, Note_on_c, 8, 64, 66
11, 17232, Note_off_c, 8, 65, 64
11, 17232, Note_off_c, 8, 69, 64
11, 17616, Note_off_c, 8, 48, 64
11, 17616, Note_on_c, 8, 52, 95
11, 18000, Note_on_c, 8, 43, 92
11, 18000, Note_off_c, 8, 52, 64
11, 18000, Note_off_c, 8, 64, 64
11, 18384, Note_on_c, 8, 59, 92
11, 18384, Note_off_c, 8, 60, 64
11, 18768, Note_off_c, 8, 43, 64
11, 18768, Note_on_c, 8, 50, 92
11, 18768, Note_off_c, 8, 55, 64
11, 18768, Note_on_c, 8, 57, 95
11, 18768, Note_off_c, 8, 59, 64
11, 18768, Note_on_c, 8, 65, 95
11, 19152, Note_off_c, 8, 50, 64
11, 19152, Note_on_c, 8, 53, 101
11, 19536, Note_on_c, 8, 45, 82
11, 19536, Note_off_c, 8, 53, 64
11, 19536, Note_on_c, 8, 64, 86
11, 19536, Note_off_c, 8, 65, 64
11, 19920, Note_on_c, 8, 60, 101
11, 19920, Note_off_c, 8, 62, 64
11, 20304, Note_off_c, 8, 45, 64
11, 20304, Note_on_c, 8, 52, 92
11, 20304, Note_off_c, 8, 57, 64
11, 20304, Note_on_c, 8, 59, 95
11, 20304, Note_off_c, 8, 60, 64
11, 20304, Note_on_c, 8, 67, 66
11, 20688, Note_off_c, 8, 52, 64
11, 20688, Note_on_c, 8, 55, 83
11, 21072, Note_on_c, 8, 45, 67
11, 21072, Note_on_c, 8, 53, 101
11, 21072, Note_off_c, 8, 55, 64
11, 21072, Note_on_c, 8, 57, 90
11, 21072, Note_off_c, 8, 59, 64
11, 21072, Note_on_c, 8, 60, 86
11, 21072, Note_off_c, 8, 64, 64
11, 21072, Note_on_c, 8, 65, 90
11, 21072, Note_off_c, 8, 67, 64
11, 21456, Note_off_c, 8, 45, 64
11, 21456, Note_on_c, 8, 47, 85
11, 21456, Note_off_c, 8, 53, 64
11, 21456, Note_on_c, 8, 55, 86
11, 21456, Note_off_c, 8, 57, 64
11, 21456, Note_on_c, 8, 59, 95
11, 21456, Note_off_c, 8, 60, 64
11, 21456, Note_on_c, 8, 62, 45
11, 21456, Note_off_c, 8, 65, 64
11, 21456, Note_on_c, 8, 67, 97
11, 21840, Note_off_c, 8, 47, 64
11, 21840, Note_on_c, 8, 48, 93
11, 21840, Note_off_c, 8, 55, 64
11, 21840, Note_on_c, 8, 55, 90
11, 21840, Note_off_c, 8, 59, 64
11, 21840, Note_on_c, 8, 60, 92
11, 21840, Note_off_c, 8, 62, 64
11, 21840, Note_on_c, 8, 65, 73
11, 21840, Note_off_c, 8, 67, 64
11, 21840, Note_on_c, 8, 67, 68
11, 22032, Note_on_c, 8, 64, 104
11, 22032, Note_off_c, 8, 65, 64
11, 22032, Note_off_c, 8, 67, 64
11, 22224, Note_off_c, 8, 48, 64
11, 22224, Note_on_c, 8, 62, 107
11, 22224, Note_off_c, 8, 64, 64
11, 22416, Note_on_c, 8, 52, 86
11, 22416, Note_off_c, 8, 62, 64
11, 22608, Note_on_c, 8, 42, 68
11, 22608, Note_off_c, 8, 52, 64
11, 22608, Note_off_c, 8, 55, 64
11, 22608, Note_on_c, 8, 57, 90
11, 22608, Note_on_c, 8, 64, 93
11, 22992, Note_off_c, 8, 42, 64
11, 22992, Note_on_c, 8, 44, 97
11, 22992, Note_off_c, 8, 57, 64
11, 22992, Note_on_c, 8, 59, 96
11, 22992, Note_off_c, 8, 60, 64
11, 23184, Note_on_c, 8, 52, 87
11, 23376, Note_off_c, 8, 44, 64
11, 23376, Note_on_c, 8, 45, 87
11, 23376, Note_off_c, 8, 52, 64
11, 23376, Note_on_c, 8, 57, 76
11, 23376, Note_off_c, 8, 59, 64
11, 23376, Note_on_c, 8, 60, 93
11, 23376, Note_off_c, 8, 64, 64
11, 23376, Note_on_c, 8, 64, 82
11, 23760, Note_off_c, 8, 45, 64
11, 23760, Note_on_c, 8, 48, 95
11, 24144, Note_off_c, 8, 48, 64
11, 24144, Note_on_c, 8, 50, 93
11, 24144, Note_on_c, 8, 53, 90
11, 24144, Note_off_c, 8, 57, 64
11, 24144, Note_on_c, 8, 58, 95
11, 24144, Note_off_c, 8, 60, 64
11, 24144, Note_on_c, 8, 62, 91
11, 24144, Note_off_c, 8, 64, 64
11, 24528, Note_off_c, 8, 50, 64
11, 24528, Note_on_c, 8, 52, 85
11, 24528, Note_off_c, 8, 53, 64
11, 24528, Note_on_c, 8, 55, 74
11, 24528, Note_off_c, 8, 58, 64
11, 24528, Note_on_c, 8, 60, 62
11, 24528, Note_off_c, 8, 62, 64
11, 24528, Note_on_c, 8, 64, 96
11, 24912, Note_off_c, 8, 52, 64
11, 24912, Note_on_c, 8, 53, 92
11, 24912, Note_off_c, 8, 55, 64
11, 24912, Note_on_c, 8, 57, 71
11, 24912, Note_off_c, 8, 64, 64
11, 24912, Note_on_c, 8, 65, 92
11, 25296, Note_on_c, 8, 52, 82
11, 25296, Note_off_c, 8, 53, 64
11, 25296, Note_on_c, 8, 55, 59
11, 25296, Note_off_c, 8, 57, 64
11, 25296, Note_on_c, 8, 64, 87
11, 25296, Note_off_c, 8, 65, 64
11, 25680, Note_on_c, 8, 47, 47
11, 25680, Note_off_c, 8, 52, 64
11, 25680, Note_on_c, 8, 53, 83
11, 25680, Note_off_c, 8, 55, 64
11, 25680, Note_on_c, 8, 57, 52
11, 25680, Note_off_c, 8, 60, 64
11, 25680, Note_on_c, 8, 62, 85
11, 25680, Note_off_c, 8, 64, 64
11, 26064, Note_off_c, 8, 47, 64
11, 26064, Note_on_c, 8, 52, 92
11, 26064, Note_off_c, 8, 53, 64
11, 26064, Note_off_c, 8, 57, 64
11, 26064, Note_on_c, 8, 57, 90
11, 26064, Note_on_c, 8, 59, 100
11, 26064, Note_off_c, 8, 62, 64
11, 26064, Note_on_c, 8, 64, 83
11, 26256, Note_on_c, 8, 56, 82
11, 26256, Note_off_c, 8, 57, 64
11, 26448, Note_off_c, 8, 52, 64
11, 26448, Note_off_c, 8, 56, 64
11, 26448, Note_off_c, 8, 59, 64
11, 26448, Note_off_c, 8, 64, 64
11, 26448, Note_on_c, 8, 69, 63
11, 26448, Note_on_c, 8, 71, 63
11, 26448, Note_on_c, 8, 83, 83
11, 27984, Note_off_c, 8, 69, 64
11, 27984, Note_off_c, 8, 71, 64
11, 27984, Note_off_c, 8, 83, 64
11, 39504, Note_on_c, 8, 47, 84
11, 39504, Note_on_c, 8, 59, 82
11, 39504, Note_on_c, 8, 62, 85
11, 39504, Note_on_c, 8, 66, 81
11, 39888, Note_off_c, 8, 47, 64
11, 39888, Note_on_c, 8, 49, 85
11, 39888, Note_on_c, 8, 57, 81
11, 39888, Note_off_c, 8, 59, 64
11, 39888, Note_off_c, 8, 62, 64
11, 39888, Note_on_c, 8, 64, 84
11, 39888, Note_off_c, 8, 66, 64
11, 39888, Note_on_c, 8, 67, 84
11, 40272, Note_off_c, 8, 49, 64
11, 40272, Note_on_c, 8, 50, 84
11, 40272, Note_on_c, 8, 62, 85
11, 40272, Note_off_c, 8, 64, 64
11, 40272, Note_on_c, 8, 66, 81
11, 40272, Note_off_c, 8, 67, 64
11, 40272, Note_on_c, 8, 69, 85
11, 40656, Note_on_c, 8, 49, 82
11, 40656, Note_off_c, 8, 50, 64
11, 40656, Note_on_c, 8, 61, 80
11, 40656, Note_off_c, 8, 62, 64
11, 40656, Note_off_c, 8, 66, 64
11, 40656, Note_on_c, 8, 67, 81
11, 40656, Note_off_c, 8, 69, 64
11, 41040, Note_on_c, 8, 47, 81
11, 41040, Note_off_c, 8, 49, 64
11, 41040, Note_off_c, 8, 57, 64
11, 41040, Note_on_c, 8, 59, 84
11, 41040, Note_off_c, 8, 61, 64
11, 41040, Note_on_c, 8, 62, 84
11, 41040, Note_on_c, 8, 66, 80
11, 41040, Note_off_c, 8, 67, 64
11, 41424, Note_on_c, 8, 44, 84
11, 41424, Note_off_c, 8, 47, 64
11, 41424, Note_off_c, 8, 66, 64
11, 41424, Note_on_c, 8, 68, 80
11, 41808, Note_off_c, 8, 44, 64
11, 41808, Note_on_c, 8, 52, 82
11, 41808, Note_off_c, 8, 59, 64
11, 41808, Note_on_c, 8, 59, 85
11, 41808, Note_off_c, 8, 62, 64
11, 41808, Note_on_c, 8, 64, 84
11, 41808, Note_off_c, 8, 68, 64
11, 41808, Note_on_c, 8, 68, 81
11, 42576, Note_on_c, 8, 49, 82
11, 42576, Note_off_c, 8, 52, 64
11, 42576, Note_off_c, 8, 59, 64
11, 42576, Note_on_c, 8, 59, 85
11, 42576, Note_on_c, 8, 61, 85
11, 42576, Note_off_c, 8, 64, 64
11, 42576, Note_on_c, 8, 66, 85
11, 43344, Note_on_c, 8, 47, 82
11, 43344, Note_off_c, 8, 49, 64
11, 43344, Note_off_c, 8, 61, 64
11, 43344, Note_on_c, 8, 62, 85
11, 43344, Note_off_c, 8, 68, 64
11, 43728, Note_on_c, 8, 45, 82
11, 43728, Note_off_c, 8, 47, 64
11, 43728, Note_on_c, 8, 52, 67
11, 43728, Note_on_c, 8, 57, 86
11, 43728, Note_off_c, 8, 59, 64
11, 43728, Note_on_c, 8, 59, 93
11, 43728, Note_on_c, 8, 61, 66
11, 43728, Note_off_c, 8, 62, 64
11, 43728, Note_off_c, 8, 66, 64
11, 44112, Note_off_c, 8, 45, 64
11, 44112, Note_on_c, 8, 49, 95
11, 44496, Note_on_c, 8, 40, 92
11, 44496, Note_off_c, 8, 49, 64
11, 44496, Note_off_c, 8, 61, 64
11, 44880, Note_on_c, 8, 56, 92
11, 44880, Note_off_c, 8, 57, 64
11, 45264, Note_off_c, 8, 40, 64
11, 45264, Note_on_c, 8, 47, 92
11, 45264, Note_off_c, 8, 52, 64
11, 45264, Note_on_c, 8, 54, 95
11, 45264, Note_off_c, 8, 56, 64
11, 45264, Note_on_c, 8, 62, 95
11, 45648, Note_off_c, 8, 47, 64
11, 45648, Note_on_c, 8, 50, 101
11, 46032, Note_on_c, 8, 42, 82
11, 46032, Note_off_c, 8, 50, 64
11, 46032, Note_on_c, 8, 61, 86
11, 46032, Note_off_c, 8, 62, 64
11, 46416, Note_on_c, 8, 57, 101
11, 46416, Note_off_c, 8, 59, 64
11, 46800, Note_off_c, 8, 42, 64
11, 46800, Note_on_c, 8, 49, 92
11, 46800, Note_off_c, 8, 54, 64
11, 46800, Note_on_c, 8, 56, 95
11, 46800, Note_off_c, 8, 57, 64
11, 46800, Note_on_c, 8, 64, 66
11, 47184, Note_off_c, 8, 49, 64
11, 47184, Note_on_c, 8, 52, 83
11, 47568, Note_on_c, 8, 42, 67
11, 47568, Note_on_c, 8, 50, 101
11, 47568, Note_off_c, 8, 52, 64
11, 47568, Note_on_c, 8, 54, 90
11, 47568, Note_off_c, 8, 56, 64
11, 47568, Note_on_c, 8, 57, 86
11, 47568, Note_off_c, 8, 61, 64
11, 47568, Note_on_c, 8, 62, 90
11, 47568, Note_off_c, 8, 64, 64
11, 47952, Note_off_c, 8, 42, 64
11, 47952, Note_on_c, 8, 44, 85
11, 47952, Note_off_c, 8, 50, 64
11, 47952, Note_on_c, 8, 52, 86
11, 47952, Note_off_c, 8, 54, 64
11, 47952, Note_on_c, 8, 56, 95
11, 47952, Note_off_c, 8, 57, 64
11, 47952, Note_on_c, 8, 59, 45
11, 47952, Note_off_c, 8, 62, 64
11, 47952, Note_on_c, 8, 64, 97
11, 48336, Note_off_c, 8, 44, 64
11, 48336, Note_on_c, 8, 45, 93
11, 48336, Note_off_c, 8, 52, 64
11, 48336, Note_on_c, 8, 52, 90
11, 48336, Note_off_c, 8, 56, 64
11, 48336, Note_on_c, 8, 57, 92
11, 48336, Note_off_c, 8, 59, 64
11, 48336, Note_on_c, 8, 62, 73
11, 48336, Note_off_c, 8, 64, 64
11, 48336, Note_on_c, 8, 64, 68
11, 48528, Note_on_c, 8, 61, 104
11, 48528, Note_off_c, 8, 62, 64
11, 48528, Note_off_c, 8, 64, 64
11, 48720, Note_off_c, 8, 45, 64
11, 48720, Note_on_c, 8, 59, 107
11, 48720, Note_off_c, 8, 61, 64
11, 48912, Note_on_c, 8, 49, 86
11, 48912, Note_off_c, 8, 59, 64
11, 49104, Note_on_c, 8, 39, 68
11, 49104, Note_off_c, 8, 49, 64
11, 49104, Note_off_c, 8, 52, 64
11, 49104, Note_on_c, 8, 54, 90
11, 49104, Note_on_c, 8, 61, 93
11, 49488, Note_off_c, 8, 39, 64
11, 49488, Note_on_c, 8, 41, 97
11, 49488, Note_off_c, 8, 54, 64
11, 49488, Note_on_c, 8, 56, 96
11, 49488, Note_off_c, 8, 57, 64
11, 49680, Note_on_c, 8, 49, 87
11, 49872, Note_off_c, 8, 41, 64
11, 49872, Note_on_c, 8, 42, 87
11, 49872, Note_off_c, 8, 49, 64
11, 49872, Note_on_c, 8, 54, 76
11, 49872, Note_off_c, 8, 56, 64
11, 49872, Note_on_c, 8, 57, 93
11, 49872, Note_off_c, 8, 61, 64
11, 49872, Note_on_c, 8, 61, 82
11, 50256, Note_off_c, 8, 42, 64
11, 50256, Note_on_c, 8, 45, 95
11, 50640, Note_off_c, 8, 45, 64
11, 50640, Note_on_c, 8, 47, 93
11, 50640, Note_on_c, 8, 50, 90
11, 50640, Note_off_c, 8, 54, 64
11, 50640, Note_on_c, 8, 55, 95
11, 50640, Note_off_c, 8, 57, 64
11, 50640, Note_on_c, 8, 59, 91
11, 50640, Note_off_c, 8, 61, 64
11, 51024, Note_off_c, 8, 47, 64
11, 51024, Note_on_c, 8, 49, 85
11, 51024, Note_off_c, 8, 50, 64
11, 51024, Note_on_c, 8, 52, 74
11, 51024, Note_off_c, 8, 55, 64
11, 51024, Note_on_c, 8, 57, 62
11, 51024, Note_off_c, 8, 59, 64
11, 51024, Note_on_c, 8, 61, 96
11, 51408, Note_off_c, 8, 49, 64
11, 51408, Note_on_c, 8, 50, 92
11, 51408, Note_off_c, 8, 52, 64
11, 51408, Note_on_c, 8, 54, 71
11, 51408, Note_off_c, 8, 61, 64
11, 51408, Note_on_c, 8, 62, 92
11, 51792, Note_on_c, 8, 49, 82
11, 51792, Note_off_c, 8, 50, 64
11, 51792, Note_on_c, 8, 52, 59
11, 51792, Note_off_c, 8, 54, 64
11, 51792, Note_on_c, 8, 61, 87
11, 51792, Note_off_c, 8, 62, 64
11, 52176, Note_on_c, 8, 44, 47
11, 52176, Note_off_c, 8, 49, 64
11, 52176, Note_on_c, 8, 50, 83
11, 52176, Note_off_c, 8, 52, 64
11, 52176, Note_on_c, 8, 54, 52
11, 52176, Note_off_c, 8, 57, 64
11, 52176, Note_on_c, 8, 59, 85
11, 52176, Note_off_c, 8, 61, 64
11, 52560, Note_off_c, 8, 44, 64
11, 52560, Note_on_c, 8, 49, 92
11, 52560, Note_off_c, 8, 50, 64
11, 52560, Note_off_c, 8, 54, 64
11, 52560, Note_on_c, 8, 54, 90
11, 52560, Note_on_c, 8, 56, 100
11, 52560, Note_off_c, 8, 59, 64
11, 52560, Note_on_c, 8, 61, 83
11, 52752, Note_on_c, 8, 53, 82
11, 52752, Note_off_c, 8, 54, 64
11, 52944, Note_off_c, 8, 53, 0
11, 52944, Note_off_c, 8, 61, 0
11, 52944, Note_off_c, 8, 56, 0
11, 52944, Note_off_c, 8, 49, 0
11, 52944, Note_on_c, 8, 52, 72
11, 52944, Note_on_c, 8, 64, 61
11, 52944, Note_on_c, 8, 69, 63
11, 53328, Note_on_c, 8, 68, 81
11, 53328, Note_off_c, 8, 69, 64
11, 54096, Note_on_c, 8, 63, 75
11, 54096, Note_off_c, 8, 64, 64
11, 54096, Note_on_c, 8, 66, 82
11, 54096, Note_off_c, 8, 68, 64
11, 54480, Note_on_c, 8, 59, 75
11, 54480, Note_off_c, 8, 63, 64
11, 54864, Note_on_c, 8, 64, 85
11, 54864, Note_off_c, 8, 66, 64
11, 55248, Note_on_c, 8, 57, 83
11, 55248, Note_off_c, 8, 59, 64
11, 55632, Note_on_c, 8, 62, 82
11, 55632, Note_off_c, 8, 64, 64
11, 56016, Note_off_c, 8, 62, 0
11, 56016, Note_off_c, 8, 57, 0
11, 56016, Note_off_c, 8, 52, 0
11, 56016, Note_on_c, 8, 52, 72
11, 56016, Note_on_c, 8, 64, 61
11, 56016, Note_on_c, 8, 69, 63
11, 56400, Note_on_c, 8, 68, 81
11, 56400, Note_off_c, 8, 69, 64
11, 57168, Note_on_c, 8, 63, 75
11, 57168, Note_off_c, 8, 64, 64
11, 57168, Note_on_c, 8, 66, 82
11, 57168, Note_off_c, 8, 68, 64
11, 57552, Note_on_c, 8, 59, 75
11, 57552, Note_off_c, 8, 63, 64
11, 57936, Note_on_c, 8, 64, 85
11, 57936, Note_off_c, 8, 66, 64
11, 58320, Note_on_c, 8, 57, 83
11, 58320, Note_off_c, 8, 59, 0
11, 58704, Note_on_c, 8, 63, 82
11, 58704, Note_off_c, 8, 64, 0
11, 59088, Note_off_c, 8, 63, 0
11, 59088, Note_off_c, 8, 57, 0
11, 59088, Note_off_c, 8, 52, 0
11, 59088, Note_on_c, 8, 52, 82
11, 59088, Note_on_c, 8, 56, 82
11, 59088, Note_on_c, 8, 59, 82
11, 59088, Note_on_c, 8, 64, 82
11, 59856, Note_off_c, 8, 52, 64
11, 59856, Note_off_c, 8, 56, 64
11, 59856, Note_off_c, 8, 59, 64
11, 59856, Note_off_c, 8, 64, 64
11, 60288, End_track
12, 0, Start_track
12, 144, Control_c, 9, 121, 0
12, 148, Control_c, 9, 93, 0
12, 150, Control_c, 9, 91, 20
12, 152, Control_c, 9, 11, 127
12, 154, Control_c, 9, 7, 107
12, 156, Pitch_bend_c, 9, 8192
12, 160, Program_c, 9, 0
12, 192, Control_c, 9, 99, 24
12, 240, Control_c, 9, 98, 35
12, 288, Control_c, 9, 6, 60
12, 336, Control_c, 9, 98, 40
12, 352, Control_c, 9, 0, 0
12, 372, Control_c, 9, 10, 64
12, 384, Control_c, 9, 6, 74
12, 432, Control_c, 9, 98, 36
12, 480, Control_c, 9, 6, 61
12, 528, Control_c, 9, 98, 38
12, 576, Control_c, 9, 6, 70
12, 624, Control_c, 9, 98, 39
12, 672, Control_c, 9, 6, 72
12, 720, Note_on_c, 9, 35, 76
12, 720, Note_off_c, 9, 35, 64
12, 720, Note_on_c, 9, 42, 64
12, 720, Note_off_c, 9, 42, 64
12, 768, Note_on_c, 9, 42, 51
12, 768, Note_off_c, 9, 42, 64
12, 816, Note_on_c, 9, 42, 64
12, 816, Note_off_c, 9, 42, 64
12, 864, Note_on_c, 9, 42, 59
12, 864, Note_off_c, 9, 42, 64
12, 912, Note_on_c, 9, 42, 62
12, 912, Note_off_c, 9, 42, 64
12, 960, Note_on_c, 9, 35, 62
12, 960, Note_off_c, 9, 35, 64
12, 960, Note_on_c, 9, 42, 54
12, 960, Note_off_c, 9, 42, 64
12, 1008, Note_on_c, 9, 42, 62
12, 1008, Note_off_c, 9, 42, 64
12, 1056, Note_on_c, 9, 35, 69
12, 1056, Note_off_c, 9, 35, 64
12, 1056, Note_on_c, 9, 42, 51
12, 1056, Note_off_c, 9, 42, 64
12, 1104, Note_on_c, 9, 42, 62
12, 1104, Note_off_c, 9, 42, 64
12, 1152, Note_on_c, 9, 42, 53
12, 1152, Note_off_c, 9, 42, 64
12, 1200, Note_on_c, 9, 35, 63
12, 1200, Note_off_c, 9, 35, 64
12, 1200, Note_on_c, 9, 42, 64
12, 1200, Note_off_c, 9, 42, 64
12, 1248, Note_on_c, 9, 42, 53
12, 1248, Note_off_c, 9, 42, 64
12, 1296, Note_on_c, 9, 28, 72
12, 1296, Note_off_c, 9, 28, 64
12, 1296, Note_on_c, 9, 42, 62
12, 1296, Note_off_c, 9, 42, 64
12, 1344, Note_on_c, 9, 42, 54
12, 1344, Note_off_c, 9, 42, 64
12, 1392, Note_on_c, 9, 42, 64
12, 1392, Note_off_c, 9, 42, 64
12, 1440, Note_on_c, 9, 28, 50
12, 1440, Note_off_c, 9, 28, 64
12, 1440, Note_on_c, 9, 42, 53
12, 1440, Note_off_c, 9, 42, 64
12, 1488, Note_on_c, 9, 35, 76
12, 1488, Note_off_c, 9, 35, 64
12, 1488, Note_on_c, 9, 42, 64
12, 1488, Note_off_c, 9, 42, 64
12, 2256, Note_on_c, 9, 35, 116
12, 2256, Note_off_c, 9, 35, 64
12, 2256, Note_on_c, 9, 42, 84
12, 2256, Note_off_c, 9, 42, 64
12, 2304, Note_on_c, 9, 42, 58
12, 2304, Note_off_c, 9, 42, 64
12, 2304, Note_on_c, 9, 70, 71
12, 2304, Note_off_c, 9, 70, 64
12, 2352, Note_on_c, 9, 42, 73
12, 2352, Note_off_c, 9, 42, 64
12, 2352, Note_on_c, 9, 70, 84
12, 2352, Note_off_c, 9, 70, 64
12, 2400, Note_on_c, 9, 42, 58
12, 2400, Note_off_c, 9, 42, 64
12, 2400, Note_on_c, 9, 70, 79
12, 2400, Note_off_c, 9, 70, 64
12, 2448, Note_on_c, 9, 28, 102
12, 2448, Note_off_c, 9, 28, 64
12, 2448, Note_on_c, 9, 40, 92
12, 2448, Note_off_c, 9, 40, 64
12, 2448, Note_on_c, 9, 42, 84
12, 2448, Note_off_c, 9, 42, 64
12, 2448, Note_on_c, 9, 70, 82
12, 2448, Note_off_c, 9, 70, 64
12, 2496, Note_on_c, 9, 42, 57
12, 2496, Note_off_c, 9, 42, 64
12, 2544, Note_on_c, 9, 42, 73
12, 2544, Note_off_c, 9, 42, 64
12, 2544, Note_on_c, 9, 70, 82
12, 2544, Note_off_c, 9, 70, 64
12, 2592, Note_on_c, 9, 35, 80
12, 2592, Note_off_c, 9, 35, 64
12, 2592, Note_on_c, 9, 42, 58
12, 2592, Note_off_c, 9, 42, 64
12, 2592, Note_on_c, 9, 70, 71
12, 2592, Note_off_c, 9, 70, 64
12, 2640, Note_on_c, 9, 35, 109
12, 2640, Note_off_c, 9, 35, 64
12, 2640, Note_on_c, 9, 42, 84
12, 2640, Note_off_c, 9, 42, 64
12, 2688, Note_on_c, 9, 42, 58
12, 2688, Note_off_c, 9, 42, 64
12, 2688, Note_on_c, 9, 70, 73
12, 2688, Note_off_c, 9, 70, 64
12, 2736, Note_on_c, 9, 42, 72
12, 2736, Note_off_c, 9, 42, 64
12, 2736, Note_on_c, 9, 70, 84
12, 2736, Note_off_c, 9, 70, 64
12, 2784, Note_on_c, 9, 42, 57
12, 2784, Note_off_c, 9, 42, 64
12, 2784, Note_on_c, 9, 70, 73
12, 2784, Note_off_c, 9, 70, 64
12, 2832, Note_on_c, 9, 28, 102
12, 2832, Note_off_c, 9, 28, 64
12, 2832, Note_on_c, 9, 40, 92
12, 2832, Note_off_c, 9, 40, 64
12, 2832, Note_on_c, 9, 42, 82
12, 2832, Note_off_c, 9, 42, 64
12, 2880, Note_on_c, 9, 42, 56
12, 2880, Note_off_c, 9, 42, 64
12, 2880, Note_on_c, 9, 70, 74
12, 2880, Note_off_c, 9, 70, 64
12, 2928, Note_on_c, 9, 42, 72
12, 2928, Note_off_c, 9, 42, 64
12, 2928, Note_on_c, 9, 70, 84
12, 2928, Note_off_c, 9, 70, 64
12, 2976, Note_on_c, 9, 35, 80
12, 2976, Note_off_c, 9, 35, 64
12, 2976, Note_on_c, 9, 42, 55
12, 2976, Note_off_c, 9, 42, 64
12, 2976, Note_on_c, 9, 70, 73
12, 2976, Note_off_c, 9, 70, 64
12, 3024, Note_on_c, 9, 35, 116
12, 3024, Note_off_c, 9, 35, 64
12, 3024, Note_on_c, 9, 42, 84
12, 3024, Note_off_c, 9, 42, 64
12, 3072, Note_on_c, 9, 42, 58
12, 3072, Note_off_c, 9, 42, 64
12, 3072, Note_on_c, 9, 70, 71
12, 3072, Note_off_c, 9, 70, 64
12, 3120, Note_on_c, 9, 42, 73
12, 3120, Note_off_c, 9, 42, 64
12, 3120, Note_on_c, 9, 70, 84
12, 3120, Note_off_c, 9, 70, 64
12, 3168, Note_on_c, 9, 42, 58
12, 3168, Note_off_c, 9, 42, 64
12, 3168, Note_on_c, 9, 70, 79
12, 3168, Note_off_c, 9, 70, 64
12, 3216, Note_on_c, 9, 28, 102
12, 3216, Note_off_c, 9, 28, 64
12, 3216, Note_on_c, 9, 40, 92
12, 3216, Note_off_c, 9, 40, 64
12, 3216, Note_on_c, 9, 42, 84
12, 3216, Note_off_c, 9, 42, 64
12, 3216, Note_on_c, 9, 70, 82
12, 3216, Note_off_c, 9, 70, 64
12, 3264, Note_on_c, 9, 42, 57
12, 3264, Note_off_c, 9, 42, 64
12, 3312, Note_on_c, 9, 42, 73
12, 3312, Note_off_c, 9, 42, 64
12, 3312, Note_on_c, 9, 70, 82
12, 3312, Note_off_c, 9, 70, 64
12, 3360, Note_on_c, 9, 35, 80
12, 3360, Note_off_c, 9, 35, 64
12, 3360, Note_on_c, 9, 42, 58
12, 3360, Note_off_c, 9, 42, 64
12, 3360, Note_on_c, 9, 70, 71
12, 3360, Note_off_c, 9, 70, 64
12, 3408, Note_on_c, 9, 35, 109
12, 3408, Note_off_c, 9, 35, 64
12, 3408, Note_on_c, 9, 42, 84
12, 3408, Note_off_c, 9, 42, 64
12, 3456, Note_on_c, 9, 42, 58
12, 3456, Note_off_c, 9, 42, 64
12, 3456, Note_on_c, 9, 70, 73
12, 3456, Note_off_c, 9, 70, 64
12, 3504, Note_on_c, 9, 42, 72
12, 3504, Note_off_c, 9, 42, 64
12, 3504, Note_on_c, 9, 70, 84
12, 3504, Note_off_c, 9, 70, 64
12, 3552, Note_on_c, 9, 42, 57
12, 3552, Note_off_c, 9, 42, 64
12, 3552, Note_on_c, 9, 70, 73
12, 3552, Note_off_c, 9, 70, 64
12, 3600, Note_on_c, 9, 28, 102
12, 3600, Note_off_c, 9, 28, 64
12, 3600, Note_on_c, 9, 40, 92
12, 3600, Note_off_c, 9, 40, 64
12, 3600, Note_on_c, 9, 42, 82
12, 3600, Note_off_c, 9, 42, 64
12, 3648, Note_on_c, 9, 42, 56
12, 3648, Note_off_c, 9, 42, 64
12, 3648, Note_on_c, 9, 70, 74
12, 3648, Note_off_c, 9, 70, 64
12, 3696, Note_on_c, 9, 42, 72
12, 3696, Note_off_c, 9, 42, 64
12, 3696, Note_on_c, 9, 70, 84
12, 3696, Note_off_c, 9, 70, 64
12, 3744, Note_on_c, 9, 42, 55
12, 3744, Note_off_c, 9, 42, 64
12, 3744, Note_on_c, 9, 70, 73
12, 3744, Note_off_c, 9, 70, 64
12, 3792, Note_on_c, 9, 35, 116
12, 3792, Note_off_c, 9, 35, 64
12, 3792, Note_on_c, 9, 42, 84
12, 3792, Note_off_c, 9, 42, 64
12, 3840, Note_on_c, 9, 42, 58
12, 3840, Note_off_c, 9, 42, 64
12, 3840, Note_on_c, 9, 70, 71
12, 3840, Note_off_c, 9, 70, 64
12, 3888, Note_on_c, 9, 42, 73
12, 3888, Note_off_c, 9, 42, 64
12, 3888, Note_on_c, 9, 70, 84
12, 3888, Note_off_c, 9, 70, 64
12, 3936, Note_on_c, 9, 42, 58
12, 3936, Note_off_c, 9, 42, 64
12, 3936, Note_on_c, 9, 70, 79
12, 3936, Note_off_c, 9, 70, 64
12, 3984, Note_on_c, 9, 28, 102
12, 3984, Note_off_c, 9, 28, 64
12, 3984, Note_on_c, 9, 40, 92
12, 3984, Note_off_c, 9, 40, 64
12, 3984, Note_on_c, 9, 42, 84
12, 3984, Note_off_c, 9, 42, 64
12, 3984, Note_on_c, 9, 70, 82
12, 3984, Note_off_c, 9, 70, 64
12, 4032, Note_on_c, 9, 42, 57
12, 4032, Note_off_c, 9, 42, 64
12, 4080, Note_on_c, 9, 42, 73
12, 4080, Note_off_c, 9, 42, 64
12, 4080, Note_on_c, 9, 70, 82
12, 4080, Note_off_c, 9, 70, 64
12, 4128, Note_on_c, 9, 35, 80
12, 4128, Note_off_c, 9, 35, 64
12, 4128, Note_on_c, 9, 42, 58
12, 4128, Note_off_c, 9, 42, 64
12, 4128, Note_on_c, 9, 70, 71
12, 4128, Note_off_c, 9, 70, 64
12, 4176, Note_on_c, 9, 35, 109
12, 4176, Note_off_c, 9, 35, 64
12, 4176, Note_on_c, 9, 42, 84
12, 4176, Note_off_c, 9, 42, 64
12, 4224, Note_on_c, 9, 42, 58
12, 4224, Note_off_c, 9, 42, 64
12, 4224, Note_on_c, 9, 70, 73
12, 4224, Note_off_c, 9, 70, 64
12, 4272, Note_on_c, 9, 42, 72
12, 4272, Note_off_c, 9, 42, 64
12, 4272, Note_on_c, 9, 70, 84
12, 4272, Note_off_c, 9, 70, 64
12, 4320, Note_on_c, 9, 42, 57
12, 4320, Note_off_c, 9, 42, 64
12, 4320, Note_on_c, 9, 70, 73
12, 4320, Note_off_c, 9, 70, 64
12, 4368, Note_on_c, 9, 28, 102
12, 4368, Note_off_c, 9, 28, 64
12, 4368, Note_on_c, 9, 40, 92
12, 4368, Note_off_c, 9, 40, 64
12, 4368, Note_on_c, 9, 42, 82
12, 4368, Note_off_c, 9, 42, 64
12, 4416, Note_on_c, 9, 42, 56
12, 4416, Note_off_c, 9, 42, 64
12, 4416, Note_on_c, 9, 70, 74
12, 4416, Note_off_c, 9, 70, 64
12, 4464, Note_on_c, 9, 42, 72
12, 4464, Note_off_c, 9, 42, 64
12, 4464, Note_on_c, 9, 70, 84
12, 4464, Note_off_c, 9, 70, 64
12, 4512, Note_on_c, 9, 35, 80
12, 4512, Note_off_c, 9, 35, 64
12, 4512, Note_on_c, 9, 42, 55
12, 4512, Note_off_c, 9, 42, 64
12, 4512, Note_on_c, 9, 70, 73
12, 4512, Note_off_c, 9, 70, 64
12, 4560, Note_on_c, 9, 35, 116
12, 4560, Note_off_c, 9, 35, 64
12, 4560, Note_on_c, 9, 42, 84
12, 4560, Note_off_c, 9, 42, 64
12, 4608, Note_on_c, 9, 42, 58
12, 4608, Note_off_c, 9, 42, 64
12, 4608, Note_on_c, 9, 70, 71
12, 4608, Note_off_c, 9, 70, 64
12, 4656, Note_on_c, 9, 42, 73
12, 4656, Note_off_c, 9, 42, 64
12, 4656, Note_on_c, 9, 70, 84
12, 4656, Note_off_c, 9, 70, 64
12, 4704, Note_on_c, 9, 35, 90
12, 4704, Note_off_c, 9, 35, 64
12, 4704, Note_on_c, 9, 42, 58
12, 4704, Note_off_c, 9, 42, 64
12, 4704, Note_on_c, 9, 70, 79
12, 4704, Note_off_c, 9, 70, 64
12, 4752, Note_on_c, 9, 28, 102
12, 4752, Note_off_c, 9, 28, 64
12, 4752, Note_on_c, 9, 40, 92
12, 4752, Note_off_c, 9, 40, 64
12, 4752, Note_on_c, 9, 42, 84
12, 4752, Note_off_c, 9, 42, 64
12, 4752, Note_on_c, 9, 70, 82
12, 4752, Note_off_c, 9, 70, 64
12, 4800, Note_on_c, 9, 42, 57
12, 4800, Note_off_c, 9, 42, 64
12, 4848, Note_on_c, 9, 35, 80
12, 4848, Note_off_c, 9, 35, 64
12, 4848, Note_on_c, 9, 42, 73
12, 4848, Note_off_c, 9, 42, 64
12, 4848, Note_on_c, 9, 70, 82
12, 4848, Note_off_c, 9, 70, 64
12, 4896, Note_on_c, 9, 42, 58
12, 4896, Note_off_c, 9, 42, 64
12, 4896, Note_on_c, 9, 70, 71
12, 4896, Note_off_c, 9, 70, 64
12, 4944, Note_on_c, 9, 35, 109
12, 4944, Note_off_c, 9, 35, 64
12, 4944, Note_on_c, 9, 42, 84
12, 4944, Note_off_c, 9, 42, 64
12, 4992, Note_on_c, 9, 42, 58
12, 4992, Note_off_c, 9, 42, 64
12, 4992, Note_on_c, 9, 70, 73
12, 4992, Note_off_c, 9, 70, 64
12, 5040, Note_on_c, 9, 42, 72
12, 5040, Note_off_c, 9, 42, 64
12, 5040, Note_on_c, 9, 70, 84
12, 5040, Note_off_c, 9, 70, 64
12, 5088, Note_on_c, 9, 42, 57
12, 5088, Note_off_c, 9, 42, 64
12, 5088, Note_on_c, 9, 70, 73
12, 5088, Note_off_c, 9, 70, 64
12, 5136, Note_on_c, 9, 28, 102
12, 5136, Note_off_c, 9, 28, 64
12, 5136, Note_on_c, 9, 40, 92
12, 5136, Note_off_c, 9, 40, 64
12, 5136, Note_on_c, 9, 42, 82
12, 5136, Note_off_c, 9, 42, 64
12, 5184, Note_on_c, 9, 42, 56
12, 5184, Note_off_c, 9, 42, 64
12, 5184, Note_on_c, 9, 70, 74
12, 5184, Note_off_c, 9, 70, 64
12, 5232, Note_on_c, 9, 42, 72
12, 5232, Note_off_c, 9, 42, 64
12, 5232, Note_on_c, 9, 70, 84
12, 5232, Note_off_c, 9, 70, 64
12, 5280, Note_on_c, 9, 42, 55
12, 5280, Note_off_c, 9, 42, 64
12, 5280, Note_on_c, 9, 70, 73
12, 5280, Note_off_c, 9, 70, 64
12, 5328, Note_on_c, 9, 35, 116
12, 5328, Note_off_c, 9, 35, 64
12, 5328, Note_on_c, 9, 42, 84
12, 5328, Note_off_c, 9, 42, 64
12, 5376, Note_on_c, 9, 42, 58
12, 5376, Note_off_c, 9, 42, 64
12, 5376, Note_on_c, 9, 70, 71
12, 5376, Note_off_c, 9, 70, 64
12, 5424, Note_on_c, 9, 42, 73
12, 5424, Note_off_c, 9, 42, 64
12, 5424, Note_on_c, 9, 70, 84
12, 5424, Note_off_c, 9, 70, 64
12, 5472, Note_on_c, 9, 42, 58
12, 5472, Note_off_c, 9, 42, 64
12, 5472, Note_on_c, 9, 70, 79
12, 5472, Note_off_c, 9, 70, 64
12, 5520, Note_on_c, 9, 28, 102
12, 5520, Note_off_c, 9, 28, 64
12, 5520, Note_on_c, 9, 40, 92
12, 5520, Note_off_c, 9, 40, 64
12, 5520, Note_on_c, 9, 42, 84
12, 5520, Note_off_c, 9, 42, 64
12, 5520, Note_on_c, 9, 70, 82
12, 5520, Note_off_c, 9, 70, 64
12, 5568, Note_on_c, 9, 42, 57
12, 5568, Note_off_c, 9, 42, 64
12, 5616, Note_on_c, 9, 42, 73
12, 5616, Note_off_c, 9, 42, 64
12, 5616, Note_on_c, 9, 70, 82
12, 5616, Note_off_c, 9, 70, 64
12, 5664, Note_on_c, 9, 35, 80
12, 5664, Note_off_c, 9, 35, 64
12, 5664, Note_on_c, 9, 42, 58
12, 5664, Note_off_c, 9, 42, 64
12, 5664, Note_on_c, 9, 70, 71
12, 5664, Note_off_c, 9, 70, 64
12, 5712, Note_on_c, 9, 35, 109
12, 5712, Note_off_c, 9, 35, 64
12, 5712, Note_on_c, 9, 42, 84
12, 5712, Note_off_c, 9, 42, 64
12, 5760, Note_on_c, 9, 42, 58
12, 5760, Note_off_c, 9, 42, 64
12, 5760, Note_on_c, 9, 70, 73
12, 5760, Note_off_c, 9, 70, 64
12, 5808, Note_on_c, 9, 42, 72
12, 5808, Note_off_c, 9, 42, 64
12, 5808, Note_on_c, 9, 70, 84
12, 5808, Note_off_c, 9, 70, 64
12, 5856, Note_on_c, 9, 42, 57
12, 5856, Note_off_c, 9, 42, 64
12, 5856, Note_on_c, 9, 70, 73
12, 5856, Note_off_c, 9, 70, 64
12, 5904, Note_on_c, 9, 28, 102
12, 5904, Note_off_c, 9, 28, 64
12, 5904, Note_on_c, 9, 40, 92
12, 5904, Note_off_c, 9, 40, 64
12, 5904, Note_on_c, 9, 42, 82
12, 5904, Note_off_c, 9, 42, 64
12, 5952, Note_on_c, 9, 42, 56
12, 5952, Note_off_c, 9, 42, 64
12, 5952, Note_on_c, 9, 70, 74
12, 5952, Note_off_c, 9, 70, 64
12, 6000, Note_on_c, 9, 42, 72
12, 6000, Note_off_c, 9, 42, 64
12, 6000, Note_on_c, 9, 70, 84
12, 6000, Note_off_c, 9, 70, 64
12, 6048, Note_on_c, 9, 35, 80
12, 6048, Note_off_c, 9, 35, 64
12, 6048, Note_on_c, 9, 42, 55
12, 6048, Note_off_c, 9, 42, 64
12, 6048, Note_on_c, 9, 70, 73
12, 6048, Note_off_c, 9, 70, 64
12, 6096, Note_on_c, 9, 35, 116
12, 6096, Note_off_c, 9, 35, 64
12, 6096, Note_on_c, 9, 42, 84
12, 6096, Note_off_c, 9, 42, 64
12, 6144, Note_on_c, 9, 42, 58
12, 6144, Note_off_c, 9, 42, 64
12, 6144, Note_on_c, 9, 70, 71
12, 6144, Note_off_c, 9, 70, 64
12, 6192, Note_on_c, 9, 42, 73
12, 6192, Note_off_c, 9, 42, 64
12, 6192, Note_on_c, 9, 70, 84
12, 6192, Note_off_c, 9, 70, 64
12, 6240, Note_on_c, 9, 42, 58
12, 6240, Note_off_c, 9, 42, 64
12, 6240, Note_on_c, 9, 70, 79
12, 6240, Note_off_c, 9, 70, 64
12, 6288, Note_on_c, 9, 28, 102
12, 6288, Note_off_c, 9, 28, 64
12, 6288, Note_on_c, 9, 40, 92
12, 6288, Note_off_c, 9, 40, 64
12, 6288, Note_on_c, 9, 42, 84
12, 6288, Note_off_c, 9, 42, 64
12, 6288, Note_on_c, 9, 70, 82
12, 6288, Note_off_c, 9, 70, 64
12, 6336, Note_on_c, 9, 42, 57
12, 6336, Note_off_c, 9, 42, 64
12, 6384, Note_on_c, 9, 42, 73
12, 6384, Note_off_c, 9, 42, 64
12, 6384, Note_on_c, 9, 70, 82
12, 6384, Note_off_c, 9, 70, 64
12, 6432, Note_on_c, 9, 35, 80
12, 6432, Note_off_c, 9, 35, 64
12, 6432, Note_on_c, 9, 42, 58
12, 6432, Note_off_c, 9, 42, 64
12, 6432, Note_on_c, 9, 70, 71
12, 6432, Note_off_c, 9, 70, 64
12, 6480, Note_on_c, 9, 35, 109
12, 6480, Note_off_c, 9, 35, 64
12, 6480, Note_on_c, 9, 42, 84
12, 6480, Note_off_c, 9, 42, 64
12, 6528, Note_on_c, 9, 42, 58
12, 6528, Note_off_c, 9, 42, 64
12, 6528, Note_on_c, 9, 70, 73
12, 6528, Note_off_c, 9, 70, 64
12, 6576, Note_on_c, 9, 42, 72
12, 6576, Note_off_c, 9, 42, 64
12, 6576, Note_on_c, 9, 70, 84
12, 6576, Note_off_c, 9, 70, 64
12, 6624, Note_on_c, 9, 42, 57
12, 6624, Note_off_c, 9, 42, 64
12, 6624, Note_on_c, 9, 70, 73
12, 6624, Note_off_c, 9, 70, 64
12, 6672, Note_on_c, 9, 28, 102
12, 6672, Note_off_c, 9, 28, 64
12, 6672, Note_on_c, 9, 40, 92
12, 6672, Note_off_c, 9, 40, 64
12, 6672, Note_on_c, 9, 42, 82
12, 6672, Note_off_c, 9, 42, 64
12, 6720, Note_on_c, 9, 42, 56
12, 6720, Note_off_c, 9, 42, 64
12, 6720, Note_on_c, 9, 70, 74
12, 6720, Note_off_c, 9, 70, 64
12, 6768, Note_on_c, 9, 42, 72
12, 6768, Note_off_c, 9, 42, 64
12, 6768, Note_on_c, 9, 70, 84
12, 6768, Note_off_c, 9, 70, 64
12, 6816, Note_on_c, 9, 42, 55
12, 6816, Note_off_c, 9, 42, 64
12, 6816, Note_on_c, 9, 70, 73
12, 6816, Note_off_c, 9, 70, 64
12, 6864, Note_on_c, 9, 35, 116
12, 6864, Note_off_c, 9, 35, 64
12, 6864, Note_on_c, 9, 42, 84
12, 6864, Note_off_c, 9, 42, 64
12, 6912, Note_on_c, 9, 42, 58
12, 6912, Note_off_c, 9, 42, 64
12, 6912, Note_on_c, 9, 70, 71
12, 6912, Note_off_c, 9, 70, 64
12, 6960, Note_on_c, 9, 42, 73
12, 6960, Note_off_c, 9, 42, 64
12, 6960, Note_on_c, 9, 70, 84
12, 6960, Note_off_c, 9, 70, 64
12, 7008, Note_on_c, 9, 42, 58
12, 7008, Note_off_c, 9, 42, 64
12, 7008, Note_on_c, 9, 70, 79
12, 7008, Note_off_c, 9, 70, 64
12, 7056, Note_on_c, 9, 28, 102
12, 7056, Note_off_c, 9, 28, 64
12, 7056, Note_on_c, 9, 40, 92
12, 7056, Note_off_c, 9, 40, 64
12, 7056, Note_on_c, 9, 42, 84
12, 7056, Note_off_c, 9, 42, 64
12, 7056, Note_on_c, 9, 70, 82
12, 7056, Note_off_c, 9, 70, 64
12, 7104, Note_on_c, 9, 42, 57
12, 7104, Note_off_c, 9, 42, 64
12, 7152, Note_on_c, 9, 42, 73
12, 7152, Note_off_c, 9, 42, 64
12, 7152, Note_on_c, 9, 70, 82
12, 7152, Note_off_c, 9, 70, 64
12, 7200, Note_on_c, 9, 35, 80
12, 7200, Note_off_c, 9, 35, 64
12, 7200, Note_on_c, 9, 42, 58
12, 7200, Note_off_c, 9, 42, 64
12, 7200, Note_on_c, 9, 70, 71
12, 7200, Note_off_c, 9, 70, 64
12, 7248, Note_on_c, 9, 35, 109
12, 7248, Note_off_c, 9, 35, 64
12, 7248, Note_on_c, 9, 42, 84
12, 7248, Note_off_c, 9, 42, 64
12, 7296, Note_on_c, 9, 42, 58
12, 7296, Note_off_c, 9, 42, 64
12, 7296, Note_on_c, 9, 70, 73
12, 7296, Note_off_c, 9, 70, 64
12, 7344, Note_on_c, 9, 42, 72
12, 7344, Note_off_c, 9, 42, 64
12, 7344, Note_on_c, 9, 70, 84
12, 7344, Note_off_c, 9, 70, 64
12, 7392, Note_on_c, 9, 42, 57
12, 7392, Note_off_c, 9, 42, 64
12, 7392, Note_on_c, 9, 70, 73
12, 7392, Note_off_c, 9, 70, 64
12, 7440, Note_on_c, 9, 28, 102
12, 7440, Note_off_c, 9, 28, 64
12, 7440, Note_on_c, 9, 40, 92
12, 7440, Note_off_c, 9, 40, 64
12, 7440, Note_on_c, 9, 42, 82
12, 7440, Note_off_c, 9, 42, 64
12, 7488, Note_on_c, 9, 42, 56
12, 7488, Note_off_c, 9, 42, 64
12, 7488, Note_on_c, 9, 70, 74
12, 7488, Note_off_c, 9, 70, 64
12, 7536, Note_on_c, 9, 42, 72
12, 7536, Note_off_c, 9, 42, 64
12, 7536, Note_on_c, 9, 70, 84
12, 7536, Note_off_c, 9, 70, 64
12, 7584, Note_on_c, 9, 35, 80
12, 7584, Note_off_c, 9, 35, 64
12, 7584, Note_on_c, 9, 42, 55
12, 7584, Note_off_c, 9, 42, 64
12, 7584, Note_on_c, 9, 70, 73
12, 7584, Note_off_c, 9, 70, 64
12, 7632, Note_on_c, 9, 35, 116
12, 7632, Note_off_c, 9, 35, 64
12, 7632, Note_on_c, 9, 42, 84
12, 7632, Note_off_c, 9, 42, 64
12, 7680, Note_on_c, 9, 42, 58
12, 7680, Note_off_c, 9, 42, 64
12, 7680, Note_on_c, 9, 70, 71
12, 7680, Note_off_c, 9, 70, 64
12, 7728, Note_on_c, 9, 42, 73
12, 7728, Note_off_c, 9, 42, 64
12, 7728, Note_on_c, 9, 70, 84
12, 7728, Note_off_c, 9, 70, 64
12, 7776, Note_on_c, 9, 42, 58
12, 7776, Note_off_c, 9, 42, 64
12, 7776, Note_on_c, 9, 70, 79
12, 7776, Note_off_c, 9, 70, 64
12, 7824, Note_on_c, 9, 28, 102
12, 7824, Note_off_c, 9, 28, 64
12, 7824, Note_on_c, 9, 40, 92
12, 7824, Note_off_c, 9, 40, 64
12, 7824, Note_on_c, 9, 42, 84
12, 7824, Note_off_c, 9, 42, 64
12, 7824, Note_on_c, 9, 70, 82
12, 7824, Note_off_c, 9, 70, 64
12, 7872, Note_on_c, 9, 42, 57
12, 7872, Note_off_c, 9, 42, 64
12, 7920, Note_on_c, 9, 42, 73
12, 7920, Note_off_c, 9, 42, 64
12, 7920, Note_on_c, 9, 70, 82
12, 7920, Note_off_c, 9, 70, 64
12, 7968, Note_on_c, 9, 42, 58
12, 7968, Note_off_c, 9, 42, 64
12, 7968, Note_on_c, 9, 70, 71
12, 7968, Note_off_c, 9, 70, 64
12, 8016, Note_on_c, 9, 35, 109
12, 8016, Note_off_c, 9, 35, 64
12, 8016, Note_on_c, 9, 42, 84
12, 8016, Note_off_c, 9, 42, 64
12, 8064, Note_on_c, 9, 42, 58
12, 8064, Note_off_c, 9, 42, 64
12, 8064, Note_on_c, 9, 70, 73
12, 8064, Note_off_c, 9, 70, 64
12, 8112, Note_on_c, 9, 42, 72
12, 8112, Note_off_c, 9, 42, 64
12, 8112, Note_on_c, 9, 70, 84
12, 8112, Note_off_c, 9, 70, 64
12, 8160, Note_on_c, 9, 35, 80
12, 8160, Note_off_c, 9, 35, 64
12, 8160, Note_on_c, 9, 42, 57
12, 8160, Note_off_c, 9, 42, 64
12, 8160, Note_on_c, 9, 70, 73
12, 8160, Note_off_c, 9, 70, 64
12, 8208, Note_on_c, 9, 28, 102
12, 8208, Note_off_c, 9, 28, 64
12, 8208, Note_on_c, 9, 40, 92
12, 8208, Note_off_c, 9, 40, 64
12, 8208, Note_on_c, 9, 42, 82
12, 8208, Note_off_c, 9, 42, 64
12, 8256, Note_on_c, 9, 42, 56
12, 8256, Note_off_c, 9, 42, 64
12, 8256, Note_on_c, 9, 70, 74
12, 8256, Note_off_c, 9, 70, 64
12, 8304, Note_on_c, 9, 35, 90
12, 8304, Note_off_c, 9, 35, 64
12, 8304, Note_on_c, 9, 42, 72
12, 8304, Note_off_c, 9, 42, 64
12, 8304, Note_on_c, 9, 70, 84
12, 8304, Note_off_c, 9, 70, 64
12, 8352, Note_on_c, 9, 42, 55
12, 8352, Note_off_c, 9, 42, 64
12, 8352, Note_on_c, 9, 70, 73
12, 8352, Note_off_c, 9, 70, 64
12, 8400, Note_on_c, 9, 35, 116
12, 8400, Note_off_c, 9, 35, 64
12, 8400, Note_on_c, 9, 42, 84
12, 8400, Note_off_c, 9, 42, 64
12, 8448, Note_on_c, 9, 42, 58
12, 8448, Note_off_c, 9, 42, 64
12, 8448, Note_on_c, 9, 70, 71
12, 8448, Note_off_c, 9, 70, 64
12, 8496, Note_on_c, 9, 42, 73
12, 8496, Note_off_c, 9, 42, 64
12, 8496, Note_on_c, 9, 70, 84
12, 8496, Note_off_c, 9, 70, 64
12, 8544, Note_on_c, 9, 42, 58
12, 8544, Note_off_c, 9, 42, 64
12, 8544, Note_on_c, 9, 70, 79
12, 8544, Note_off_c, 9, 70, 64
12, 8592, Note_on_c, 9, 28, 102
12, 8592, Note_off_c, 9, 28, 64
12, 8592, Note_on_c, 9, 40, 92
12, 8592, Note_off_c, 9, 40, 64
12, 8592, Note_on_c, 9, 42, 84
12, 8592, Note_off_c, 9, 42, 64
12, 8592, Note_on_c, 9, 70, 82
12, 8592, Note_off_c, 9, 70, 64
12, 8640, Note_on_c, 9, 42, 57
12, 8640, Note_off_c, 9, 42, 64
12, 8688, Note_on_c, 9, 42, 73
12, 8688, Note_off_c, 9, 42, 64
12, 8688, Note_on_c, 9, 70, 82
12, 8688, Note_off_c, 9, 70, 64
12, 8736, Note_on_c, 9, 35, 80
12, 8736, Note_off_c, 9, 35, 64
12, 8736, Note_on_c, 9, 42, 58
12, 8736, Note_off_c, 9, 42, 64
12, 8736, Note_on_c, 9, 70, 71
12, 8736, Note_off_c, 9, 70, 64
12, 8784, Note_on_c, 9, 35, 109
12, 8784, Note_off_c, 9, 35, 64
12, 8784, Note_on_c, 9, 42, 84
12, 8784, Note_off_c, 9, 42, 64
12, 8832, Note_on_c, 9, 42, 58
12, 8832, Note_off_c, 9, 42, 64
12, 8832, Note_on_c, 9, 70, 73
12, 8832, Note_off_c, 9, 70, 64
12, 8880, Note_on_c, 9, 42, 72
12, 8880, Note_off_c, 9, 42, 64
12, 8880, Note_on_c, 9, 70, 84
12, 8880, Note_off_c, 9, 70, 64
12, 8928, Note_on_c, 9, 42, 57
12, 8928, Note_off_c, 9, 42, 64
12, 8928, Note_on_c, 9, 70, 73
12, 8928, Note_off_c, 9, 70, 64
12, 8976, Note_on_c, 9, 28, 102
12, 8976, Note_off_c, 9, 28, 64
12, 8976, Note_on_c, 9, 40, 92
12, 8976, Note_off_c, 9, 40, 64
12, 8976, Note_on_c, 9, 42, 82
12, 8976, Note_off_c, 9, 42, 64
12, 9024, Note_on_c, 9, 42, 56
12, 9024, Note_off_c, 9, 42, 64
12, 9024, Note_on_c, 9, 70, 74
12, 9024, Note_off_c, 9, 70, 64
12, 9072, Note_on_c, 9, 42, 72
12, 9072, Note_off_c, 9, 42, 64
12, 9072, Note_on_c, 9, 70, 84
12, 9072, Note_off_c, 9, 70, 64
12, 9120, Note_on_c, 9, 35, 80
12, 9120, Note_off_c, 9, 35, 64
12, 9120, Note_on_c, 9, 42, 55
12, 9120, Note_off_c, 9, 42, 64
12, 9120, Note_on_c, 9, 70, 73
12, 9120, Note_off_c, 9, 70, 64
12, 9168, Note_on_c, 9, 35, 116
12, 9168, Note_off_c, 9, 35, 64
12, 9168, Note_on_c, 9, 42, 84
12, 9168, Note_off_c, 9, 42, 64
12, 9216, Note_on_c, 9, 42, 58
12, 9216, Note_off_c, 9, 42, 64
12, 9216, Note_on_c, 9, 70, 71
12, 9216, Note_off_c, 9, 70, 64
12, 9264, Note_on_c, 9, 42, 73
12, 9264, Note_off_c, 9, 42, 64
12, 9264, Note_on_c, 9, 70, 84
12, 9264, Note_off_c, 9, 70, 64
12, 9312, Note_on_c, 9, 42, 58
12, 9312, Note_off_c, 9, 42, 64
12, 9312, Note_on_c, 9, 70, 79
12, 9312, Note_off_c, 9, 70, 64
12, 9360, Note_on_c, 9, 28, 102
12, 9360, Note_off_c, 9, 28, 64
12, 9360, Note_on_c, 9, 40, 92
12, 9360, Note_off_c, 9, 40, 64
12, 9360, Note_on_c, 9, 42, 84
12, 9360, Note_off_c, 9, 42, 64
12, 9360, Note_on_c, 9, 70, 82
12, 9360, Note_off_c, 9, 70, 64
12, 9408, Note_on_c, 9, 42, 57
12, 9408, Note_off_c, 9, 42, 64
12, 9456, Note_on_c, 9, 42, 73
12, 9456, Note_off_c, 9, 42, 64
12, 9456, Note_on_c, 9, 70, 82
12, 9456, Note_off_c, 9, 70, 64
12, 9504, Note_on_c, 9, 35, 80
12, 9504, Note_off_c, 9, 35, 64
12, 9504, Note_on_c, 9, 42, 58
12, 9504, Note_off_c, 9, 42, 64
12, 9504, Note_on_c, 9, 70, 71
12, 9504, Note_off_c, 9, 70, 64
12, 9552, Note_on_c, 9, 35, 109
12, 9552, Note_off_c, 9, 35, 64
12, 9552, Note_on_c, 9, 42, 84
12, 9552, Note_off_c, 9, 42, 64
12, 9600, Note_on_c, 9, 42, 58
12, 9600, Note_off_c, 9, 42, 64
12, 9600, Note_on_c, 9, 70, 73
12, 9600, Note_off_c, 9, 70, 64
12, 9648, Note_on_c, 9, 42, 72
12, 9648, Note_off_c, 9, 42, 64
12, 9648, Note_on_c, 9, 70, 84
12, 9648, Note_off_c, 9, 70, 64
12, 9696, Note_on_c, 9, 42, 57
12, 9696, Note_off_c, 9, 42, 64
12, 9696, Note_on_c, 9, 70, 73
12, 9696, Note_off_c, 9, 70, 64
12, 9744, Note_on_c, 9, 28, 102
12, 9744, Note_off_c, 9, 28, 64
12, 9744, Note_on_c, 9, 40, 92
12, 9744, Note_off_c, 9, 40, 64
12, 9744, Note_on_c, 9, 42, 82
12, 9744, Note_off_c, 9, 42, 64
12, 9792, Note_on_c, 9, 42, 56
12, 9792, Note_off_c, 9, 42, 64
12, 9792, Note_on_c, 9, 70, 74
12, 9792, Note_off_c, 9, 70, 64
12, 9840, Note_on_c, 9, 42, 72
12, 9840, Note_off_c, 9, 42, 64
12, 9840, Note_on_c, 9, 70, 84
12, 9840, Note_off_c, 9, 70, 64
12, 9888, Note_on_c, 9, 42, 55
12, 9888, Note_off_c, 9, 42, 64
12, 9888, Note_on_c, 9, 70, 73
12, 9888, Note_off_c, 9, 70, 64
12, 9936, Note_on_c, 9, 35, 116
12, 9936, Note_off_c, 9, 35, 64
12, 9936, Note_on_c, 9, 42, 84
12, 9936, Note_off_c, 9, 42, 64
12, 9984, Note_on_c, 9, 42, 58
12, 9984, Note_off_c, 9, 42, 64
12, 9984, Note_on_c, 9, 70, 71
12, 9984, Note_off_c, 9, 70, 64
12, 10032, Note_on_c, 9, 42, 73
12, 10032, Note_off_c, 9, 42, 64
12, 10032, Note_on_c, 9, 70, 84
12, 10032, Note_off_c, 9, 70, 64
12, 10080, Note_on_c, 9, 42, 58
12, 10080, Note_off_c, 9, 42, 64
12, 10080, Note_on_c, 9, 70, 79
12, 10080, Note_off_c, 9, 70, 64
12, 10128, Note_on_c, 9, 28, 102
12, 10128, Note_off_c, 9, 28, 64
12, 10128, Note_on_c, 9, 40, 92
12, 10128, Note_off_c, 9, 40, 64
12, 10128, Note_on_c, 9, 42, 84
12, 10128, Note_off_c, 9, 42, 64
12, 10128, Note_on_c, 9, 70, 82
12, 10128, Note_off_c, 9, 70, 64
12, 10176, Note_on_c, 9, 42, 57
12, 10176, Note_off_c, 9, 42, 64
12, 10224, Note_on_c, 9, 42, 73
12, 10224, Note_off_c, 9, 42, 64
12, 10224, Note_on_c, 9, 70, 82
12, 10224, Note_off_c, 9, 70, 64
12, 10272, Note_on_c, 9, 35, 80
12, 10272, Note_off_c, 9, 35, 64
12, 10272, Note_on_c, 9, 42, 58
12, 10272, Note_off_c, 9, 42, 64
12, 10272, Note_on_c, 9, 70, 71
12, 10272, Note_off_c, 9, 70, 64
12, 10320, Note_on_c, 9, 35, 109
12, 10320, Note_off_c, 9, 35, 64
12, 10320, Note_on_c, 9, 42, 84
12, 10320, Note_off_c, 9, 42, 64
12, 10368, Note_on_c, 9, 42, 58
12, 10368, Note_off_c, 9, 42, 64
12, 10368, Note_on_c, 9, 70, 73
12, 10368, Note_off_c, 9, 70, 64
12, 10416, Note_on_c, 9, 42, 72
12, 10416, Note_off_c, 9, 42, 64
12, 10416, Note_on_c, 9, 70, 84
12, 10416, Note_off_c, 9, 70, 64
12, 10464, Note_on_c, 9, 42, 57
12, 10464, Note_off_c, 9, 42, 64
12, 10464, Note_on_c, 9, 70, 73
12, 10464, Note_off_c, 9, 70, 64
12, 10512, Note_on_c, 9, 28, 102
12, 10512, Note_off_c, 9, 28, 64
12, 10512, Note_on_c, 9, 40, 92
12, 10512, Note_off_c, 9, 40, 64
12, 10512, Note_on_c, 9, 42, 82
12, 10512, Note_off_c, 9, 42, 64
12, 10560, Note_on_c, 9, 42, 56
12, 10560, Note_off_c, 9, 42, 64
12, 10560, Note_on_c, 9, 70, 74
12, 10560, Note_off_c, 9, 70, 64
12, 10608, Note_on_c, 9, 42, 72
12, 10608, Note_off_c, 9, 42, 64
12, 10608, Note_on_c, 9, 70, 84
12, 10608, Note_off_c, 9, 70, 64
12, 10656, Note_on_c, 9, 35, 80
12, 10656, Note_off_c, 9, 35, 64
12, 10656, Note_on_c, 9, 42, 55
12, 10656, Note_off_c, 9, 42, 64
12, 10656, Note_on_c, 9, 70, 73
12, 10656, Note_off_c, 9, 70, 64
12, 10704, Note_on_c, 9, 35, 116
12, 10704, Note_off_c, 9, 35, 64
12, 10704, Note_on_c, 9, 42, 84
12, 10704, Note_off_c, 9, 42, 64
12, 10752, Note_on_c, 9, 42, 58
12, 10752, Note_off_c, 9, 42, 64
12, 10752, Note_on_c, 9, 70, 71
12, 10752, Note_off_c, 9, 70, 64
12, 10800, Note_on_c, 9, 42, 73
12, 10800, Note_off_c, 9, 42, 64
12, 10800, Note_on_c, 9, 70, 84
12, 10800, Note_off_c, 9, 70, 64
12, 10848, Note_on_c, 9, 35, 90
12, 10848, Note_off_c, 9, 35, 64
12, 10848, Note_on_c, 9, 42, 58
12, 10848, Note_off_c, 9, 42, 64
12, 10848, Note_on_c, 9, 70, 79
12, 10848, Note_off_c, 9, 70, 64
12, 10896, Note_on_c, 9, 28, 102
12, 10896, Note_off_c, 9, 28, 64
12, 10896, Note_on_c, 9, 40, 92
12, 10896, Note_off_c, 9, 40, 64
12, 10896, Note_on_c, 9, 42, 84
12, 10896, Note_off_c, 9, 42, 64
12, 10896, Note_on_c, 9, 70, 82
12, 10896, Note_off_c, 9, 70, 64
12, 10944, Note_on_c, 9, 42, 57
12, 10944, Note_off_c, 9, 42, 64
12, 10992, Note_on_c, 9, 42, 73
12, 10992, Note_off_c, 9, 42, 64
12, 10992, Note_on_c, 9, 70, 82
12, 10992, Note_off_c, 9, 70, 64
12, 11040, Note_on_c, 9, 42, 58
12, 11040, Note_off_c, 9, 42, 64
12, 11040, Note_on_c, 9, 70, 71
12, 11040, Note_off_c, 9, 70, 64
12, 11088, Note_on_c, 9, 35, 109
12, 11088, Note_off_c, 9, 35, 64
12, 11088, Note_on_c, 9, 42, 84
12, 11088, Note_off_c, 9, 42, 64
12, 11136, Note_on_c, 9, 42, 58
12, 11136, Note_off_c, 9, 42, 64
12, 11136, Note_on_c, 9, 70, 73
12, 11136, Note_off_c, 9, 70, 64
12, 11184, Note_on_c, 9, 42, 72
12, 11184, Note_off_c, 9, 42, 64
12, 11184, Note_on_c, 9, 70, 84
12, 11184, Note_off_c, 9, 70, 64
12, 11232, Note_on_c, 9, 35, 90
12, 11232, Note_off_c, 9, 35, 64
12, 11232, Note_on_c, 9, 42, 57
12, 11232, Note_off_c, 9, 42, 64
12, 11232, Note_on_c, 9, 70, 73
12, 11232, Note_off_c, 9, 70, 64
12, 11280, Note_on_c, 9, 28, 102
12, 11280, Note_off_c, 9, 28, 64
12, 11280, Note_on_c, 9, 40, 92
12, 11280, Note_off_c, 9, 40, 64
12, 11280, Note_on_c, 9, 42, 82
12, 11280, Note_off_c, 9, 42, 64
12, 11328, Note_on_c, 9, 42, 56
12, 11328, Note_off_c, 9, 42, 64
12, 11328, Note_on_c, 9, 70, 74
12, 11328, Note_off_c, 9, 70, 64
12, 11376, Note_on_c, 9, 35, 80
12, 11376, Note_off_c, 9, 35, 64
12, 11376, Note_on_c, 9, 42, 72
12, 11376, Note_off_c, 9, 42, 64
12, 11376, Note_on_c, 9, 70, 84
12, 11376, Note_off_c, 9, 70, 64
12, 11424, Note_on_c, 9, 42, 55
12, 11424, Note_off_c, 9, 42, 64
12, 11424, Note_on_c, 9, 70, 73
12, 11424, Note_off_c, 9, 70, 64
12, 11472, Note_on_c, 9, 35, 116
12, 11472, Note_off_c, 9, 35, 64
12, 11472, Note_on_c, 9, 42, 84
12, 11472, Note_off_c, 9, 42, 64
12, 11520, Note_on_c, 9, 42, 58
12, 11520, Note_off_c, 9, 42, 64
12, 11520, Note_on_c, 9, 70, 71
12, 11520, Note_off_c, 9, 70, 64
12, 11568, Note_on_c, 9, 42, 73
12, 11568, Note_off_c, 9, 42, 64
12, 11568, Note_on_c, 9, 70, 84
12, 11568, Note_off_c, 9, 70, 64
12, 11616, Note_on_c, 9, 42, 58
12, 11616, Note_off_c, 9, 42, 64
12, 11616, Note_on_c, 9, 70, 79
12, 11616, Note_off_c, 9, 70, 64
12, 11664, Note_on_c, 9, 28, 102
12, 11664, Note_off_c, 9, 28, 64
12, 11664, Note_on_c, 9, 40, 92
12, 11664, Note_off_c, 9, 40, 64
12, 11664, Note_on_c, 9, 42, 84
12, 11664, Note_off_c, 9, 42, 64
12, 11664, Note_on_c, 9, 70, 82
12, 11664, Note_off_c, 9, 70, 64
12, 11712, Note_on_c, 9, 42, 57
12, 11712, Note_off_c, 9, 42, 64
12, 11760, Note_on_c, 9, 42, 73
12, 11760, Note_off_c, 9, 42, 64
12, 11760, Note_on_c, 9, 70, 82
12, 11760, Note_off_c, 9, 70, 64
12, 11808, Note_on_c, 9, 35, 80
12, 11808, Note_off_c, 9, 35, 64
12, 11808, Note_on_c, 9, 42, 58
12, 11808, Note_off_c, 9, 42, 64
12, 11808, Note_on_c, 9, 70, 71
12, 11808, Note_off_c, 9, 70, 64
12, 11856, Note_on_c, 9, 35, 109
12, 11856, Note_off_c, 9, 35, 64
12, 11856, Note_on_c, 9, 42, 84
12, 11856, Note_off_c, 9, 42, 64
12, 11904, Note_on_c, 9, 42, 58
12, 11904, Note_off_c, 9, 42, 64
12, 11904, Note_on_c, 9, 70, 73
12, 11904, Note_off_c, 9, 70, 64
12, 11952, Note_on_c, 9, 42, 72
12, 11952, Note_off_c, 9, 42, 64
12, 11952, Note_on_c, 9, 70, 84
12, 11952, Note_off_c, 9, 70, 64
12, 12000, Note_on_c, 9, 42, 57
12, 12000, Note_off_c, 9, 42, 64
12, 12000, Note_on_c, 9, 70, 73
12, 12000, Note_off_c, 9, 70, 64
12, 12048, Note_on_c, 9, 28, 102
12, 12048, Note_off_c, 9, 28, 64
12, 12048, Note_on_c, 9, 40, 92
12, 12048, Note_off_c, 9, 40, 64
12, 12048, Note_on_c, 9, 42, 82
12, 12048, Note_off_c, 9, 42, 64
12, 12096, Note_on_c, 9, 42, 56
12, 12096, Note_off_c, 9, 42, 64
12, 12096, Note_on_c, 9, 70, 74
12, 12096, Note_off_c, 9, 70, 64
12, 12144, Note_on_c, 9, 42, 72
12, 12144, Note_off_c, 9, 42, 64
12, 12144, Note_on_c, 9, 70, 84
12, 12144, Note_off_c, 9, 70, 64
12, 12192, Note_on_c, 9, 35, 80
12, 12192, Note_off_c, 9, 35, 64
12, 12192, Note_on_c, 9, 42, 55
12, 12192, Note_off_c, 9, 42, 64
12, 12192, Note_on_c, 9, 70, 73
12, 12192, Note_off_c, 9, 70, 64
12, 12240, Note_on_c, 9, 35, 116
12, 12240, Note_off_c, 9, 35, 64
12, 12240, Note_on_c, 9, 42, 84
12, 12240, Note_off_c, 9, 42, 64
12, 12288, Note_on_c, 9, 42, 58
12, 12288, Note_off_c, 9, 42, 64
12, 12288, Note_on_c, 9, 70, 71
12, 12288, Note_off_c, 9, 70, 64
12, 12336, Note_on_c, 9, 42, 73
12, 12336, Note_off_c, 9, 42, 64
12, 12336, Note_on_c, 9, 70, 84
12, 12336, Note_off_c, 9, 70, 64
12, 12384, Note_on_c, 9, 42, 58
12, 12384, Note_off_c, 9, 42, 64
12, 12384, Note_on_c, 9, 70, 79
12, 12384, Note_off_c, 9, 70, 64
12, 12432, Note_on_c, 9, 28, 102
12, 12432, Note_off_c, 9, 28, 64
12, 12432, Note_on_c, 9, 40, 92
12, 12432, Note_off_c, 9, 40, 64
12, 12432, Note_on_c, 9, 42, 84
12, 12432, Note_off_c, 9, 42, 64
12, 12432, Note_on_c, 9, 70, 82
12, 12432, Note_off_c, 9, 70, 64
12, 12480, Note_on_c, 9, 42, 57
12, 12480, Note_off_c, 9, 42, 64
12, 12528, Note_on_c, 9, 42, 73
12, 12528, Note_off_c, 9, 42, 64
12, 12528, Note_on_c, 9, 70, 82
12, 12528, Note_off_c, 9, 70, 64
12, 12576, Note_on_c, 9, 35, 80
12, 12576, Note_off_c, 9, 35, 64
12, 12576, Note_on_c, 9, 42, 58
12, 12576, Note_off_c, 9, 42, 64
12, 12576, Note_on_c, 9, 70, 71
12, 12576, Note_off_c, 9, 70, 64
12, 12624, Note_on_c, 9, 35, 109
12, 12624, Note_off_c, 9, 35, 64
12, 12624, Note_on_c, 9, 42, 84
12, 12624, Note_off_c, 9, 42, 64
12, 12672, Note_on_c, 9, 42, 58
12, 12672, Note_off_c, 9, 42, 64
12, 12672, Note_on_c, 9, 70, 73
12, 12672, Note_off_c, 9, 70, 64
12, 12720, Note_on_c, 9, 42, 72
12, 12720, Note_off_c, 9, 42, 64
12, 12720, Note_on_c, 9, 70, 84
12, 12720, Note_off_c, 9, 70, 64
12, 12768, Note_on_c, 9, 42, 57
12, 12768, Note_off_c, 9, 42, 64
12, 12768, Note_on_c, 9, 70, 73
12, 12768, Note_off_c, 9, 70, 64
12, 12816, Note_on_c, 9, 28, 102
12, 12816, Note_off_c, 9, 28, 64
12, 12816, Note_on_c, 9, 40, 92
12, 12816, Note_off_c, 9, 40, 64
12, 12816, Note_on_c, 9, 42, 82
12, 12816, Note_off_c, 9, 42, 64
12, 12864, Note_on_c, 9, 42, 56
12, 12864, Note_off_c, 9, 42, 64
12, 12864, Note_on_c, 9, 70, 74
12, 12864, Note_off_c, 9, 70, 64
12, 12912, Note_on_c, 9, 42, 72
12, 12912, Note_off_c, 9, 42, 64
12, 12912, Note_on_c, 9, 70, 84
12, 12912, Note_off_c, 9, 70, 64
12, 12960, Note_on_c, 9, 42, 55
12, 12960, Note_off_c, 9, 42, 64
12, 12960, Note_on_c, 9, 70, 73
12, 12960, Note_off_c, 9, 70, 64
12, 13008, Note_on_c, 9, 35, 116
12, 13008, Note_off_c, 9, 35, 64
12, 13008, Note_on_c, 9, 42, 84
12, 13008, Note_off_c, 9, 42, 64
12, 13056, Note_on_c, 9, 42, 58
12, 13056, Note_off_c, 9, 42, 64
12, 13056, Note_on_c, 9, 70, 71
12, 13056, Note_off_c, 9, 70, 64
12, 13104, Note_on_c, 9, 42, 73
12, 13104, Note_off_c, 9, 42, 64
12, 13104, Note_on_c, 9, 70, 84
12, 13104, Note_off_c, 9, 70, 64
12, 13152, Note_on_c, 9, 42, 58
12, 13152, Note_off_c, 9, 42, 64
12, 13152, Note_on_c, 9, 70, 79
12, 13152, Note_off_c, 9, 70, 64
12, 13200, Note_on_c, 9, 28, 102
12, 13200, Note_off_c, 9, 28, 64
12, 13200, Note_on_c, 9, 40, 92
12, 13200, Note_off_c, 9, 40, 64
12, 13200, Note_on_c, 9, 42, 84
12, 13200, Note_off_c, 9, 42, 64
12, 13200, Note_on_c, 9, 70, 82
12, 13200, Note_off_c, 9, 70, 64
12, 13248, Note_on_c, 9, 42, 57
12, 13248, Note_off_c, 9, 42, 64
12, 13296, Note_on_c, 9, 42, 73
12, 13296, Note_off_c, 9, 42, 64
12, 13296, Note_on_c, 9, 70, 82
12, 13296, Note_off_c, 9, 70, 64
12, 13344, Note_on_c, 9, 35, 80
12, 13344, Note_off_c, 9, 35, 64
12, 13344, Note_on_c, 9, 42, 58
12, 13344, Note_off_c, 9, 42, 64
12, 13344, Note_on_c, 9, 70, 71
12, 13344, Note_off_c, 9, 70, 64
12, 13392, Note_on_c, 9, 35, 109
12, 13392, Note_off_c, 9, 35, 64
12, 13392, Note_on_c, 9, 42, 84
12, 13392, Note_off_c, 9, 42, 64
12, 13440, Note_on_c, 9, 42, 58
12, 13440, Note_off_c, 9, 42, 64
12, 13440, Note_on_c, 9, 70, 73
12, 13440, Note_off_c, 9, 70, 64
12, 13488, Note_on_c, 9, 42, 72
12, 13488, Note_off_c, 9, 42, 64
12, 13488, Note_on_c, 9, 70, 84
12, 13488, Note_off_c, 9, 70, 64
12, 13536, Note_on_c, 9, 42, 57
12, 13536, Note_off_c, 9, 42, 64
12, 13536, Note_on_c, 9, 70, 73
12, 13536, Note_off_c, 9, 70, 64
12, 13584, Note_on_c, 9, 28, 102
12, 13584, Note_off_c, 9, 28, 64
12, 13584, Note_on_c, 9, 40, 92
12, 13584, Note_off_c, 9, 40, 64
12, 13584, Note_on_c, 9, 42, 82
12, 13584, Note_off_c, 9, 42, 64
12, 13632, Note_on_c, 9, 42, 56
12, 13632, Note_off_c, 9, 42, 64
12, 13632, Note_on_c, 9, 70, 74
12, 13632, Note_off_c, 9, 70, 64
12, 13680, Note_on_c, 9, 42, 72
12, 13680, Note_off_c, 9, 42, 64
12, 13680, Note_on_c, 9, 70, 84
12, 13680, Note_off_c, 9, 70, 64
12, 13728, Note_on_c, 9, 35, 80
12, 13728, Note_off_c, 9, 35, 64
12, 13728, Note_on_c, 9, 42, 55
12, 13728, Note_off_c, 9, 42, 64
12, 13728, Note_on_c, 9, 70, 73
12, 13728, Note_off_c, 9, 70, 64
12, 13776, Note_on_c, 9, 35, 116
12, 13776, Note_off_c, 9, 35, 64
12, 13776, Note_on_c, 9, 42, 84
12, 13776, Note_off_c, 9, 42, 64
12, 13824, Note_on_c, 9, 42, 58
12, 13824, Note_off_c, 9, 42, 64
12, 13824, Note_on_c, 9, 70, 71
12, 13824, Note_off_c, 9, 70, 64
12, 13872, Note_on_c, 9, 46, 73
12, 13872, Note_off_c, 9, 46, 64
12, 13872, Note_on_c, 9, 70, 84
12, 13872, Note_off_c, 9, 70, 64
12, 13920, Note_on_c, 9, 35, 90
12, 13920, Note_off_c, 9, 35, 64
12, 13920, Note_on_c, 9, 70, 79
12, 13920, Note_off_c, 9, 70, 64
12, 13968, Note_on_c, 9, 28, 102
12, 13968, Note_off_c, 9, 28, 64
12, 13968, Note_on_c, 9, 40, 92
12, 13968, Note_off_c, 9, 40, 64
12, 13968, Note_on_c, 9, 42, 84
12, 13968, Note_off_c, 9, 42, 64
12, 13968, Note_on_c, 9, 70, 82
12, 13968, Note_off_c, 9, 70, 64
12, 14016, Note_on_c, 9, 42, 57
12, 14016, Note_off_c, 9, 42, 64
12, 14064, Note_on_c, 9, 42, 73
12, 14064, Note_off_c, 9, 42, 64
12, 14064, Note_on_c, 9, 70, 82
12, 14064, Note_off_c, 9, 70, 64
12, 14112, Note_on_c, 9, 42, 58
12, 14112, Note_off_c, 9, 42, 64
12, 14112, Note_on_c, 9, 70, 71
12, 14112, Note_off_c, 9, 70, 64
12, 14160, Note_on_c, 9, 35, 109
12, 14160, Note_off_c, 9, 35, 64
12, 14160, Note_on_c, 9, 42, 84
12, 14160, Note_off_c, 9, 42, 64
12, 14208, Note_on_c, 9, 42, 58
12, 14208, Note_off_c, 9, 42, 64
12, 14208, Note_on_c, 9, 70, 73
12, 14208, Note_off_c, 9, 70, 64
12, 14256, Note_on_c, 9, 42, 72
12, 14256, Note_off_c, 9, 42, 64
12, 14256, Note_on_c, 9, 70, 84
12, 14256, Note_off_c, 9, 70, 64
12, 14304, Note_on_c, 9, 35, 90
12, 14304, Note_off_c, 9, 35, 64
12, 14304, Note_on_c, 9, 42, 57
12, 14304, Note_off_c, 9, 42, 64
12, 14304, Note_on_c, 9, 70, 73
12, 14304, Note_off_c, 9, 70, 64
12, 14352, Note_on_c, 9, 28, 102
12, 14352, Note_off_c, 9, 28, 64
12, 14352, Note_on_c, 9, 40, 92
12, 14352, Note_off_c, 9, 40, 64
12, 14352, Note_on_c, 9, 42, 82
12, 14352, Note_off_c, 9, 42, 64
12, 14400, Note_on_c, 9, 42, 56
12, 14400, Note_off_c, 9, 42, 64
12, 14400, Note_on_c, 9, 70, 74
12, 14400, Note_off_c, 9, 70, 64
12, 14448, Note_on_c, 9, 35, 80
12, 14448, Note_off_c, 9, 35, 64
12, 14448, Note_on_c, 9, 42, 72
12, 14448, Note_off_c, 9, 42, 64
12, 14448, Note_on_c, 9, 70, 84
12, 14448, Note_off_c, 9, 70, 64
12, 14496, Note_on_c, 9, 42, 55
12, 14496, Note_off_c, 9, 42, 64
12, 14496, Note_on_c, 9, 70, 73
12, 14496, Note_off_c, 9, 70, 64
12, 14544, Note_on_c, 9, 35, 116
12, 14544, Note_off_c, 9, 35, 64
12, 14544, Note_on_c, 9, 42, 84
12, 14544, Note_off_c, 9, 42, 64
12, 14592, Note_on_c, 9, 42, 58
12, 14592, Note_off_c, 9, 42, 64
12, 14592, Note_on_c, 9, 70, 71
12, 14592, Note_off_c, 9, 70, 64
12, 14640, Note_on_c, 9, 46, 73
12, 14640, Note_off_c, 9, 46, 64
12, 14640, Note_on_c, 9, 70, 84
12, 14640, Note_off_c, 9, 70, 64
12, 14688, Note_on_c, 9, 70, 79
12, 14688, Note_off_c, 9, 70, 64
12, 14736, Note_on_c, 9, 28, 102
12, 14736, Note_off_c, 9, 28, 64
12, 14736, Note_on_c, 9, 40, 92
12, 14736, Note_off_c, 9, 40, 64
12, 14736, Note_on_c, 9, 42, 84
12, 14736, Note_off_c, 9, 42, 64
12, 14736, Note_on_c, 9, 70, 82
12, 14736, Note_off_c, 9, 70, 64
12, 14784, Note_on_c, 9, 42, 57
12, 14784, Note_off_c, 9, 42, 64
12, 14832, Note_on_c, 9, 42, 73
12, 14832, Note_off_c, 9, 42, 64
12, 14832, Note_on_c, 9, 70, 82
12, 14832, Note_off_c, 9, 70, 64
12, 14880, Note_on_c, 9, 35, 80
12, 14880, Note_off_c, 9, 35, 64
12, 14880, Note_on_c, 9, 42, 58
12, 14880, Note_off_c, 9, 42, 64
12, 14880, Note_on_c, 9, 70, 71
12, 14880, Note_off_c, 9, 70, 64
12, 14928, Note_on_c, 9, 35, 109
12, 14928, Note_off_c, 9, 35, 64
12, 14928, Note_on_c, 9, 42, 84
12, 14928, Note_off_c, 9, 42, 64
12, 14976, Note_on_c, 9, 42, 58
12, 14976, Note_off_c, 9, 42, 64
12, 14976, Note_on_c, 9, 70, 73
12, 14976, Note_off_c, 9, 70, 64
12, 15024, Note_on_c, 9, 42, 72
12, 15024, Note_off_c, 9, 42, 64
12, 15024, Note_on_c, 9, 70, 84
12, 15024, Note_off_c, 9, 70, 64
12, 15072, Note_on_c, 9, 42, 57
12, 15072, Note_off_c, 9, 42, 64
12, 15072, Note_on_c, 9, 70, 73
12, 15072, Note_off_c, 9, 70, 64
12, 15120, Note_on_c, 9, 28, 102
12, 15120, Note_off_c, 9, 28, 64
12, 15120, Note_on_c, 9, 40, 92
12, 15120, Note_off_c, 9, 40, 64
12, 15120, Note_on_c, 9, 42, 82
12, 15120, Note_off_c, 9, 42, 64
12, 15168, Note_on_c, 9, 42, 56
12, 15168, Note_off_c, 9, 42, 64
12, 15168, Note_on_c, 9, 70, 74
12, 15168, Note_off_c, 9, 70, 64
12, 15216, Note_on_c, 9, 42, 72
12, 15216, Note_off_c, 9, 42, 64
12, 15216, Note_on_c, 9, 70, 84
12, 15216, Note_off_c, 9, 70, 64
12, 15264, Note_on_c, 9, 35, 80
12, 15264, Note_off_c, 9, 35, 64
12, 15264, Note_on_c, 9, 42, 55
12, 15264, Note_off_c, 9, 42, 64
12, 15264, Note_on_c, 9, 70, 73
12, 15264, Note_off_c, 9, 70, 64
12, 15312, Note_on_c, 9, 35, 116
12, 15312, Note_off_c, 9, 35, 64
12, 15312, Note_on_c, 9, 42, 84
12, 15312, Note_off_c, 9, 42, 64
12, 15360, Note_on_c, 9, 42, 58
12, 15360, Note_off_c, 9, 42, 64
12, 15360, Note_on_c, 9, 70, 71
12, 15360, Note_off_c, 9, 70, 64
12, 15408, Note_on_c, 9, 46, 73
12, 15408, Note_off_c, 9, 46, 64
12, 15408, Note_on_c, 9, 70, 84
12, 15408, Note_off_c, 9, 70, 64
12, 15456, Note_on_c, 9, 70, 79
12, 15456, Note_off_c, 9, 70, 64
12, 15504, Note_on_c, 9, 28, 102
12, 15504, Note_off_c, 9, 28, 64
12, 15504, Note_on_c, 9, 40, 92
12, 15504, Note_off_c, 9, 40, 64
12, 15504, Note_on_c, 9, 42, 84
12, 15504, Note_off_c, 9, 42, 64
12, 15504, Note_on_c, 9, 70, 82
12, 15504, Note_off_c, 9, 70, 64
12, 15552, Note_on_c, 9, 42, 57
12, 15552, Note_off_c, 9, 42, 64
12, 15600, Note_on_c, 9, 42, 73
12, 15600, Note_off_c, 9, 42, 64
12, 15600, Note_on_c, 9, 70, 82
12, 15600, Note_off_c, 9, 70, 64
12, 15648, Note_on_c, 9, 35, 80
12, 15648, Note_off_c, 9, 35, 64
12, 15648, Note_on_c, 9, 42, 58
12, 15648, Note_off_c, 9, 42, 64
12, 15648, Note_on_c, 9, 70, 71
12, 15648, Note_off_c, 9, 70, 64
12, 15696, Note_on_c, 9, 35, 109
12, 15696, Note_off_c, 9, 35, 64
12, 15696, Note_on_c, 9, 42, 84
12, 15696, Note_off_c, 9, 42, 64
12, 15744, Note_on_c, 9, 42, 58
12, 15744, Note_off_c, 9, 42, 64
12, 15744, Note_on_c, 9, 70, 73
12, 15744, Note_off_c, 9, 70, 64
12, 15792, Note_on_c, 9, 42, 72
12, 15792, Note_off_c, 9, 42, 64
12, 15792, Note_on_c, 9, 70, 84
12, 15792, Note_off_c, 9, 70, 64
12, 15840, Note_on_c, 9, 42, 57
12, 15840, Note_off_c, 9, 42, 64
12, 15840, Note_on_c, 9, 70, 73
12, 15840, Note_off_c, 9, 70, 64
12, 15888, Note_on_c, 9, 28, 102
12, 15888, Note_off_c, 9, 28, 64
12, 15888, Note_on_c, 9, 40, 92
12, 15888, Note_off_c, 9, 40, 64
12, 15888, Note_on_c, 9, 42, 82
12, 15888, Note_off_c, 9, 42, 64
12, 15936, Note_on_c, 9, 42, 56
12, 15936, Note_off_c, 9, 42, 64
12, 15936, Note_on_c, 9, 70, 74
12, 15936, Note_off_c, 9, 70, 64
12, 15984, Note_on_c, 9, 42, 72
12, 15984, Note_off_c, 9, 42, 64
12, 15984, Note_on_c, 9, 70, 84
12, 15984, Note_off_c, 9, 70, 64
12, 16032, Note_on_c, 9, 42, 55
12, 16032, Note_off_c, 9, 42, 64
12, 16032, Note_on_c, 9, 70, 73
12, 16032, Note_off_c, 9, 70, 64
12, 16080, Note_on_c, 9, 35, 116
12, 16080, Note_off_c, 9, 35, 64
12, 16080, Note_on_c, 9, 42, 84
12, 16080, Note_off_c, 9, 42, 64
12, 16128, Note_on_c, 9, 42, 58
12, 16128, Note_off_c, 9, 42, 64
12, 16128, Note_on_c, 9, 70, 71
12, 16128, Note_off_c, 9, 70, 64
12, 16176, Note_on_c, 9, 46, 73
12, 16176, Note_off_c, 9, 46, 64
12, 16176, Note_on_c, 9, 70, 84
12, 16176, Note_off_c, 9, 70, 64
12, 16224, Note_on_c, 9, 70, 79
12, 16224, Note_off_c, 9, 70, 64
12, 16272, Note_on_c, 9, 28, 102
12, 16272, Note_off_c, 9, 28, 64
12, 16272, Note_on_c, 9, 40, 92
12, 16272, Note_off_c, 9, 40, 64
12, 16272, Note_on_c, 9, 42, 84
12, 16272, Note_off_c, 9, 42, 64
12, 16272, Note_on_c, 9, 70, 82
12, 16272, Note_off_c, 9, 70, 64
12, 16320, Note_on_c, 9, 42, 57
12, 16320, Note_off_c, 9, 42, 64
12, 16368, Note_on_c, 9, 42, 73
12, 16368, Note_off_c, 9, 42, 64
12, 16368, Note_on_c, 9, 70, 82
12, 16368, Note_off_c, 9, 70, 64
12, 16416, Note_on_c, 9, 35, 80
12, 16416, Note_off_c, 9, 35, 64
12, 16416, Note_on_c, 9, 42, 58
12, 16416, Note_off_c, 9, 42, 64
12, 16416, Note_on_c, 9, 70, 71
12, 16416, Note_off_c, 9, 70, 64
12, 16464, Note_on_c, 9, 35, 116
12, 16464, Note_off_c, 9, 35, 64
12, 16464, Note_on_c, 9, 42, 84
12, 16464, Note_off_c, 9, 42, 64
12, 16512, Note_on_c, 9, 42, 58
12, 16512, Note_off_c, 9, 42, 64
12, 16512, Note_on_c, 9, 70, 71
12, 16512, Note_off_c, 9, 70, 64
12, 16560, Note_on_c, 9, 42, 73
12, 16560, Note_off_c, 9, 42, 64
12, 16560, Note_on_c, 9, 70, 84
12, 16560, Note_off_c, 9, 70, 64
12, 16608, Note_on_c, 9, 35, 90
12, 16608, Note_off_c, 9, 35, 64
12, 16608, Note_on_c, 9, 42, 58
12, 16608, Note_off_c, 9, 42, 64
12, 16608, Note_on_c, 9, 70, 79
12, 16608, Note_off_c, 9, 70, 64
12, 16656, Note_on_c, 9, 28, 102
12, 16656, Note_off_c, 9, 28, 64
12, 16656, Note_on_c, 9, 40, 92
12, 16656, Note_off_c, 9, 40, 64
12, 16656, Note_on_c, 9, 42, 84
12, 16656, Note_off_c, 9, 42, 64
12, 16656, Note_on_c, 9, 70, 82
12, 16656, Note_off_c, 9, 70, 64
12, 16704, Note_on_c, 9, 42, 57
12, 16704, Note_off_c, 9, 42, 64
12, 16752, Note_on_c, 9, 42, 73
12, 16752, Note_off_c, 9, 42, 64
12, 16752, Note_on_c, 9, 70, 82
12, 16752, Note_off_c, 9, 70, 64
12, 16800, Note_on_c, 9, 35, 90
12, 16800, Note_off_c, 9, 35, 64
12, 16800, Note_on_c, 9, 42, 58
12, 16800, Note_off_c, 9, 42, 64
12, 16800, Note_on_c, 9, 70, 71
12, 16800, Note_off_c, 9, 70, 64
12, 16848, Note_on_c, 9, 35, 109
12, 16848, Note_off_c, 9, 35, 64
12, 16848, Note_on_c, 9, 42, 84
12, 16848, Note_off_c, 9, 42, 64
12, 16896, Note_on_c, 9, 42, 58
12, 16896, Note_off_c, 9, 42, 64
12, 16896, Note_on_c, 9, 70, 73
12, 16896, Note_off_c, 9, 70, 64
12, 16944, Note_on_c, 9, 35, 90
12, 16944, Note_off_c, 9, 35, 64
12, 16944, Note_on_c, 9, 42, 72
12, 16944, Note_off_c, 9, 42, 64
12, 16944, Note_on_c, 9, 70, 84
12, 16944, Note_off_c, 9, 70, 64
12, 16992, Note_on_c, 9, 42, 57
12, 16992, Note_off_c, 9, 42, 64
12, 16992, Note_on_c, 9, 70, 73
12, 16992, Note_off_c, 9, 70, 64
12, 17040, Note_on_c, 9, 28, 102
12, 17040, Note_off_c, 9, 28, 64
12, 17040, Note_on_c, 9, 40, 92
12, 17040, Note_off_c, 9, 40, 64
12, 17040, Note_on_c, 9, 42, 82
12, 17040, Note_off_c, 9, 42, 64
12, 17088, Note_on_c, 9, 42, 56
12, 17088, Note_off_c, 9, 42, 64
12, 17088, Note_on_c, 9, 70, 74
12, 17088, Note_off_c, 9, 70, 64
12, 17136, Note_on_c, 9, 35, 80
12, 17136, Note_off_c, 9, 35, 64
12, 17136, Note_on_c, 9, 42, 72
12, 17136, Note_off_c, 9, 42, 64
12, 17136, Note_on_c, 9, 70, 84
12, 17136, Note_off_c, 9, 70, 64
12, 17184, Note_on_c, 9, 42, 55
12, 17184, Note_off_c, 9, 42, 64
12, 17184, Note_on_c, 9, 70, 73
12, 17184, Note_off_c, 9, 70, 64
12, 17232, Note_on_c, 9, 35, 126
12, 17232, Note_off_c, 9, 35, 64
12, 17232, Note_on_c, 9, 42, 104
12, 17232, Note_off_c, 9, 42, 64
12, 17232, Note_on_c, 9, 49, 90
12, 17232, Note_off_c, 9, 49, 64
12, 17232, Note_on_c, 9, 54, 77
12, 17232, Note_on_c, 9, 54, 77
12, 17232, Note_off_c, 9, 54, 64
12, 17232, Note_off_c, 9, 54, 64
12, 17280, Note_on_c, 9, 42, 68
12, 17280, Note_off_c, 9, 42, 64
12, 17280, Note_on_c, 9, 70, 81
12, 17280, Note_off_c, 9, 70, 64
12, 17328, Note_on_c, 9, 46, 83
12, 17328, Note_off_c, 9, 46, 64
12, 17328, Note_on_c, 9, 54, 69
12, 17328, Note_off_c, 9, 54, 64
12, 17328, Note_on_c, 9, 70, 94
12, 17328, Note_off_c, 9, 70, 64
12, 17376, Note_on_c, 9, 70, 89
12, 17376, Note_off_c, 9, 70, 64
12, 17424, Note_on_c, 9, 38, 112
12, 17424, Note_off_c, 9, 38, 64
12, 17424, Note_on_c, 9, 42, 104
12, 17424, Note_off_c, 9, 42, 64
12, 17424, Note_on_c, 9, 54, 102
12, 17424, Note_off_c, 9, 54, 64
12, 17424, Note_on_c, 9, 70, 92
12, 17424, Note_off_c, 9, 70, 64
12, 17472, Note_on_c, 9, 42, 67
12, 17472, Note_off_c, 9, 42, 64
12, 17520, Note_on_c, 9, 42, 93
12, 17520, Note_off_c, 9, 42, 64
12, 17520, Note_on_c, 9, 54, 59
12, 17520, Note_off_c, 9, 54, 64
12, 17520, Note_on_c, 9, 70, 92
12, 17520, Note_off_c, 9, 70, 64
12, 17568, Note_on_c, 9, 35, 90
12, 17568, Note_off_c, 9, 35, 64
12, 17568, Note_on_c, 9, 42, 68
12, 17568, Note_off_c, 9, 42, 64
12, 17568, Note_on_c, 9, 70, 81
12, 17568, Note_off_c, 9, 70, 64
12, 17616, Note_on_c, 9, 35, 119
12, 17616, Note_off_c, 9, 35, 64
12, 17616, Note_on_c, 9, 42, 104
12, 17616, Note_off_c, 9, 42, 64
12, 17616, Note_on_c, 9, 54, 65
12, 17616, Note_off_c, 9, 54, 64
12, 17664, Note_on_c, 9, 42, 68
12, 17664, Note_off_c, 9, 42, 64
12, 17664, Note_on_c, 9, 70, 83
12, 17664, Note_off_c, 9, 70, 64
12, 17712, Note_on_c, 9, 35, 100
12, 17712, Note_off_c, 9, 35, 64
12, 17712, Note_on_c, 9, 42, 92
12, 17712, Note_off_c, 9, 42, 64
12, 17712, Note_on_c, 9, 54, 57
12, 17712, Note_off_c, 9, 54, 64
12, 17712, Note_on_c, 9, 70, 94
12, 17712, Note_off_c, 9, 70, 64
12, 17760, Note_on_c, 9, 42, 67
12, 17760, Note_off_c, 9, 42, 64
12, 17760, Note_on_c, 9, 70, 83
12, 17760, Note_off_c, 9, 70, 64
12, 17808, Note_on_c, 9, 38, 112
12, 17808, Note_off_c, 9, 38, 64
12, 17808, Note_on_c, 9, 42, 102
12, 17808, Note_off_c, 9, 42, 64
12, 17808, Note_on_c, 9, 54, 104
12, 17808, Note_off_c, 9, 54, 64
12, 17856, Note_on_c, 9, 42, 66
12, 17856, Note_off_c, 9, 42, 64
12, 17856, Note_on_c, 9, 70, 84
12, 17856, Note_off_c, 9, 70, 64
12, 17904, Note_on_c, 9, 46, 82
12, 17904, Note_off_c, 9, 46, 64
12, 17904, Note_on_c, 9, 54, 63
12, 17904, Note_off_c, 9, 54, 64
12, 17904, Note_on_c, 9, 70, 94
12, 17904, Note_off_c, 9, 70, 64
12, 17952, Note_on_c, 9, 35, 90
12, 17952, Note_off_c, 9, 35, 64
12, 17952, Note_on_c, 9, 70, 83
12, 17952, Note_off_c, 9, 70, 64
12, 18000, Note_on_c, 9, 35, 126
12, 18000, Note_off_c, 9, 35, 64
12, 18000, Note_on_c, 9, 42, 104
12, 18000, Note_off_c, 9, 42, 64
12, 18000, Note_on_c, 9, 54, 70
12, 18000, Note_off_c, 9, 54, 64
12, 18048, Note_on_c, 9, 42, 68
12, 18048, Note_off_c, 9, 42, 64
12, 18048, Note_on_c, 9, 70, 81
12, 18048, Note_off_c, 9, 70, 64
12, 18096, Note_on_c, 9, 46, 83
12, 18096, Note_off_c, 9, 46, 64
12, 18096, Note_on_c, 9, 54, 66
12, 18096, Note_off_c, 9, 54, 64
12, 18096, Note_on_c, 9, 70, 94
12, 18096, Note_off_c, 9, 70, 64
12, 18144, Note_on_c, 9, 70, 89
12, 18144, Note_off_c, 9, 70, 64
12, 18192, Note_on_c, 9, 38, 112
12, 18192, Note_off_c, 9, 38, 64
12, 18192, Note_on_c, 9, 42, 104
12, 18192, Note_off_c, 9, 42, 64
12, 18192, Note_on_c, 9, 54, 98
12, 18192, Note_off_c, 9, 54, 64
12, 18192, Note_on_c, 9, 70, 92
12, 18192, Note_off_c, 9, 70, 64
12, 18240, Note_on_c, 9, 42, 67
12, 18240, Note_off_c, 9, 42, 64
12, 18288, Note_on_c, 9, 42, 93
12, 18288, Note_off_c, 9, 42, 64
12, 18288, Note_on_c, 9, 54, 59
12, 18288, Note_off_c, 9, 54, 64
12, 18288, Note_on_c, 9, 70, 92
12, 18288, Note_off_c, 9, 70, 64
12, 18336, Note_on_c, 9, 35, 90
12, 18336, Note_off_c, 9, 35, 64
12, 18336, Note_on_c, 9, 42, 68
12, 18336, Note_off_c, 9, 42, 64
12, 18336, Note_on_c, 9, 70, 81
12, 18336, Note_off_c, 9, 70, 64
12, 18384, Note_on_c, 9, 35, 119
12, 18384, Note_off_c, 9, 35, 64
12, 18384, Note_on_c, 9, 42, 104
12, 18384, Note_off_c, 9, 42, 64
12, 18384, Note_on_c, 9, 54, 65
12, 18384, Note_off_c, 9, 54, 64
12, 18432, Note_on_c, 9, 42, 68
12, 18432, Note_off_c, 9, 42, 64
12, 18432, Note_on_c, 9, 70, 83
12, 18432, Note_off_c, 9, 70, 64
12, 18480, Note_on_c, 9, 35, 100
12, 18480, Note_off_c, 9, 35, 64
12, 18480, Note_on_c, 9, 42, 92
12, 18480, Note_off_c, 9, 42, 64
12, 18480, Note_on_c, 9, 54, 65
12, 18480, Note_off_c, 9, 54, 64
12, 18480, Note_on_c, 9, 70, 94
12, 18480, Note_off_c, 9, 70, 64
12, 18528, Note_on_c, 9, 42, 67
12, 18528, Note_off_c, 9, 42, 64
12, 18528, Note_on_c, 9, 70, 83
12, 18528, Note_off_c, 9, 70, 64
12, 18576, Note_on_c, 9, 38, 112
12, 18576, Note_off_c, 9, 38, 64
12, 18576, Note_on_c, 9, 42, 102
12, 18576, Note_off_c, 9, 42, 64
12, 18576, Note_on_c, 9, 54, 102
12, 18576, Note_off_c, 9, 54, 64
12, 18624, Note_on_c, 9, 42, 66
12, 18624, Note_off_c, 9, 42, 64
12, 18624, Note_on_c, 9, 70, 84
12, 18624, Note_off_c, 9, 70, 64
12, 18672, Note_on_c, 9, 46, 82
12, 18672, Note_off_c, 9, 46, 64
12, 18672, Note_on_c, 9, 54, 63
12, 18672, Note_off_c, 9, 54, 64
12, 18672, Note_on_c, 9, 70, 94
12, 18672, Note_off_c, 9, 70, 64
12, 18720, Note_on_c, 9, 35, 90
12, 18720, Note_off_c, 9, 35, 64
12, 18720, Note_on_c, 9, 70, 83
12, 18720, Note_off_c, 9, 70, 64
12, 18768, Note_on_c, 9, 35, 126
12, 18768, Note_off_c, 9, 35, 64
12, 18768, Note_on_c, 9, 42, 104
12, 18768, Note_off_c, 9, 42, 64
12, 18768, Note_on_c, 9, 54, 77
12, 18768, Note_on_c, 9, 54, 77
12, 18768, Note_off_c, 9, 54, 64
12, 18768, Note_off_c, 9, 54, 64
12, 18816, Note_on_c, 9, 42, 68
12, 18816, Note_off_c, 9, 42, 64
12, 18816, Note_on_c, 9, 70, 81
12, 18816, Note_off_c, 9, 70, 64
12, 18864, Note_on_c, 9, 46, 83
12, 18864, Note_off_c, 9, 46, 64
12, 18864, Note_on_c, 9, 54, 69
12, 18864, Note_off_c, 9, 54, 64
12, 18864, Note_on_c, 9, 70, 94
12, 18864, Note_off_c, 9, 70, 64
12, 18912, Note_on_c, 9, 70, 89
12, 18912, Note_off_c, 9, 70, 64
12, 18960, Note_on_c, 9, 38, 112
12, 18960, Note_off_c, 9, 38, 64
12, 18960, Note_on_c, 9, 42, 104
12, 18960, Note_off_c, 9, 42, 64
12, 18960, Note_on_c, 9, 54, 102
12, 18960, Note_off_c, 9, 54, 64
12, 18960, Note_on_c, 9, 70, 92
12, 18960, Note_off_c, 9, 70, 64
12, 19008, Note_on_c, 9, 42, 67
12, 19008, Note_off_c, 9, 42, 64
12, 19056, Note_on_c, 9, 42, 93
12, 19056, Note_off_c, 9, 42, 64
12, 19056, Note_on_c, 9, 54, 59
12, 19056, Note_off_c, 9, 54, 64
12, 19056, Note_on_c, 9, 70, 92
12, 19056, Note_off_c, 9, 70, 64
12, 19104, Note_on_c, 9, 35, 90
12, 19104, Note_off_c, 9, 35, 64
12, 19104, Note_on_c, 9, 42, 68
12, 19104, Note_off_c, 9, 42, 64
12, 19104, Note_on_c, 9, 70, 81
12, 19104, Note_off_c, 9, 70, 64
12, 19152, Note_on_c, 9, 35, 119
12, 19152, Note_off_c, 9, 35, 64
12, 19152, Note_on_c, 9, 42, 104
12, 19152, Note_off_c, 9, 42, 64
12, 19152, Note_on_c, 9, 54, 65
12, 19152, Note_off_c, 9, 54, 64
12, 19200, Note_on_c, 9, 42, 68
12, 19200, Note_off_c, 9, 42, 64
12, 19200, Note_on_c, 9, 70, 83
12, 19200, Note_off_c, 9, 70, 64
12, 19248, Note_on_c, 9, 35, 100
12, 19248, Note_off_c, 9, 35, 64
12, 19248, Note_on_c, 9, 42, 92
12, 19248, Note_off_c, 9, 42, 64
12, 19248, Note_on_c, 9, 54, 57
12, 19248, Note_off_c, 9, 54, 64
12, 19248, Note_on_c, 9, 70, 94
12, 19248, Note_off_c, 9, 70, 64
12, 19296, Note_on_c, 9, 42, 67
12, 19296, Note_off_c, 9, 42, 64
12, 19296, Note_on_c, 9, 70, 83
12, 19296, Note_off_c, 9, 70, 64
12, 19344, Note_on_c, 9, 38, 112
12, 19344, Note_off_c, 9, 38, 64
12, 19344, Note_on_c, 9, 42, 102
12, 19344, Note_off_c, 9, 42, 64
12, 19344, Note_on_c, 9, 54, 104
12, 19344, Note_off_c, 9, 54, 64
12, 19392, Note_on_c, 9, 42, 66
12, 19392, Note_off_c, 9, 42, 64
12, 19392, Note_on_c, 9, 70, 84
12, 19392, Note_off_c, 9, 70, 64
12, 19440, Note_on_c, 9, 46, 82
12, 19440, Note_off_c, 9, 46, 64
12, 19440, Note_on_c, 9, 54, 63
12, 19440, Note_off_c, 9, 54, 64
12, 19440, Note_on_c, 9, 70, 94
12, 19440, Note_off_c, 9, 70, 64
12, 19488, Note_on_c, 9, 35, 90
12, 19488, Note_off_c, 9, 35, 64
12, 19488, Note_on_c, 9, 70, 83
12, 19488, Note_off_c, 9, 70, 64
12, 19536, Note_on_c, 9, 35, 126
12, 19536, Note_off_c, 9, 35, 64
12, 19536, Note_on_c, 9, 42, 104
12, 19536, Note_off_c, 9, 42, 64
12, 19536, Note_on_c, 9, 54, 70
12, 19536, Note_off_c, 9, 54, 64
12, 19584, Note_on_c, 9, 42, 68
12, 19584, Note_off_c, 9, 42, 64
12, 19584, Note_on_c, 9, 70, 81
12, 19584, Note_off_c, 9, 70, 64
12, 19632, Note_on_c, 9, 46, 83
12, 19632, Note_off_c, 9, 46, 64
12, 19632, Note_on_c, 9, 54, 66
12, 19632, Note_off_c, 9, 54, 64
12, 19632, Note_on_c, 9, 70, 94
12, 19632, Note_off_c, 9, 70, 64
12, 19680, Note_on_c, 9, 70, 89
12, 19680, Note_off_c, 9, 70, 64
12, 19728, Note_on_c, 9, 38, 112
12, 19728, Note_off_c, 9, 38, 64
12, 19728, Note_on_c, 9, 42, 104
12, 19728, Note_off_c, 9, 42, 64
12, 19728, Note_on_c, 9, 54, 98
12, 19728, Note_off_c, 9, 54, 64
12, 19728, Note_on_c, 9, 70, 92
12, 19728, Note_off_c, 9, 70, 64
12, 19776, Note_on_c, 9, 42, 67
12, 19776, Note_off_c, 9, 42, 64
12, 19824, Note_on_c, 9, 42, 93
12, 19824, Note_off_c, 9, 42, 64
12, 19824, Note_on_c, 9, 54, 59
12, 19824, Note_off_c, 9, 54, 64
12, 19824, Note_on_c, 9, 70, 92
12, 19824, Note_off_c, 9, 70, 64
12, 19872, Note_on_c, 9, 35, 90
12, 19872, Note_off_c, 9, 35, 64
12, 19872, Note_on_c, 9, 42, 68
12, 19872, Note_off_c, 9, 42, 64
12, 19872, Note_on_c, 9, 70, 81
12, 19872, Note_off_c, 9, 70, 64
12, 19920, Note_on_c, 9, 35, 119
12, 19920, Note_off_c, 9, 35, 64
12, 19920, Note_on_c, 9, 42, 104
12, 19920, Note_off_c, 9, 42, 64
12, 19920, Note_on_c, 9, 54, 65
12, 19920, Note_off_c, 9, 54, 64
12, 19968, Note_on_c, 9, 42, 68
12, 19968, Note_off_c, 9, 42, 64
12, 19968, Note_on_c, 9, 70, 83
12, 19968, Note_off_c, 9, 70, 64
12, 20016, Note_on_c, 9, 35, 100
12, 20016, Note_off_c, 9, 35, 64
12, 20016, Note_on_c, 9, 42, 92
12, 20016, Note_off_c, 9, 42, 64
12, 20016, Note_on_c, 9, 54, 65
12, 20016, Note_off_c, 9, 54, 64
12, 20016, Note_on_c, 9, 70, 94
12, 20016, Note_off_c, 9, 70, 64
12, 20064, Note_on_c, 9, 42, 67
12, 20064, Note_off_c, 9, 42, 64
12, 20064, Note_on_c, 9, 70, 83
12, 20064, Note_off_c, 9, 70, 64
12, 20112, Note_on_c, 9, 38, 112
12, 20112, Note_off_c, 9, 38, 64
12, 20112, Note_on_c, 9, 42, 102
12, 20112, Note_off_c, 9, 42, 64
12, 20112, Note_on_c, 9, 54, 102
12, 20112, Note_off_c, 9, 54, 64
12, 20160, Note_on_c, 9, 42, 66
12, 20160, Note_off_c, 9, 42, 64
12, 20160, Note_on_c, 9, 70, 84
12, 20160, Note_off_c, 9, 70, 64
12, 20208, Note_on_c, 9, 46, 82
12, 20208, Note_off_c, 9, 46, 64
12, 20208, Note_on_c, 9, 54, 63
12, 20208, Note_off_c, 9, 54, 64
12, 20208, Note_on_c, 9, 70, 94
12, 20208, Note_off_c, 9, 70, 64
12, 20256, Note_on_c, 9, 35, 90
12, 20256, Note_off_c, 9, 35, 64
12, 20256, Note_on_c, 9, 70, 83
12, 20256, Note_off_c, 9, 70, 64
12, 20304, Note_on_c, 9, 35, 126
12, 20304, Note_off_c, 9, 35, 64
12, 20304, Note_on_c, 9, 42, 104
12, 20304, Note_off_c, 9, 42, 64
12, 20304, Note_on_c, 9, 49, 90
12, 20304, Note_off_c, 9, 49, 64
12, 20304, Note_on_c, 9, 54, 77
12, 20304, Note_on_c, 9, 54, 77
12, 20304, Note_off_c, 9, 54, 64
12, 20304, Note_off_c, 9, 54, 64
12, 20352, Note_on_c, 9, 42, 68
12, 20352, Note_off_c, 9, 42, 64
12, 20352, Note_on_c, 9, 70, 81
12, 20352, Note_off_c, 9, 70, 64
12, 20400, Note_on_c, 9, 46, 83
12, 20400, Note_off_c, 9, 46, 64
12, 20400, Note_on_c, 9, 54, 69
12, 20400, Note_off_c, 9, 54, 64
12, 20400, Note_on_c, 9, 70, 94
12, 20400, Note_off_c, 9, 70, 64
12, 20448, Note_on_c, 9, 70, 89
12, 20448, Note_off_c, 9, 70, 64
12, 20496, Note_on_c, 9, 38, 112
12, 20496, Note_off_c, 9, 38, 64
12, 20496, Note_on_c, 9, 42, 104
12, 20496, Note_off_c, 9, 42, 64
12, 20496, Note_on_c, 9, 54, 102
12, 20496, Note_off_c, 9, 54, 64
12, 20496, Note_on_c, 9, 70, 92
12, 20496, Note_off_c, 9, 70, 64
12, 20544, Note_on_c, 9, 42, 67
12, 20544, Note_off_c, 9, 42, 64
12, 20592, Note_on_c, 9, 42, 93
12, 20592, Note_off_c, 9, 42, 64
12, 20592, Note_on_c, 9, 54, 59
12, 20592, Note_off_c, 9, 54, 64
12, 20592, Note_on_c, 9, 70, 92
12, 20592, Note_off_c, 9, 70, 64
12, 20640, Note_on_c, 9, 35, 90
12, 20640, Note_off_c, 9, 35, 64
12, 20640, Note_on_c, 9, 42, 68
12, 20640, Note_off_c, 9, 42, 64
12, 20640, Note_on_c, 9, 70, 81
12, 20640, Note_off_c, 9, 70, 64
12, 20688, Note_on_c, 9, 35, 119
12, 20688, Note_off_c, 9, 35, 64
12, 20688, Note_on_c, 9, 42, 104
12, 20688, Note_off_c, 9, 42, 64
12, 20688, Note_on_c, 9, 54, 65
12, 20688, Note_off_c, 9, 54, 64
12, 20736, Note_on_c, 9, 42, 68
12, 20736, Note_off_c, 9, 42, 64
12, 20736, Note_on_c, 9, 70, 83
12, 20736, Note_off_c, 9, 70, 64
12, 20784, Note_on_c, 9, 35, 100
12, 20784, Note_off_c, 9, 35, 64
12, 20784, Note_on_c, 9, 42, 92
12, 20784, Note_off_c, 9, 42, 64
12, 20784, Note_on_c, 9, 54, 57
12, 20784, Note_off_c, 9, 54, 64
12, 20784, Note_on_c, 9, 70, 94
12, 20784, Note_off_c, 9, 70, 64
12, 20832, Note_on_c, 9, 42, 67
12, 20832, Note_off_c, 9, 42, 64
12, 20832, Note_on_c, 9, 70, 83
12, 20832, Note_off_c, 9, 70, 64
12, 20880, Note_on_c, 9, 38, 112
12, 20880, Note_off_c, 9, 38, 64
12, 20880, Note_on_c, 9, 42, 102
12, 20880, Note_off_c, 9, 42, 64
12, 20880, Note_on_c, 9, 54, 104
12, 20880, Note_off_c, 9, 54, 64
12, 20928, Note_on_c, 9, 42, 66
12, 20928, Note_off_c, 9, 42, 64
12, 20928, Note_on_c, 9, 70, 84
12, 20928, Note_off_c, 9, 70, 64
12, 20976, Note_on_c, 9, 46, 82
12, 20976, Note_off_c, 9, 46, 64
12, 20976, Note_on_c, 9, 54, 63
12, 20976, Note_off_c, 9, 54, 64
12, 20976, Note_on_c, 9, 70, 94
12, 20976, Note_off_c, 9, 70, 64
12, 21024, Note_on_c, 9, 35, 90
12, 21024, Note_off_c, 9, 35, 64
12, 21024, Note_on_c, 9, 70, 83
12, 21024, Note_off_c, 9, 70, 64
12, 21072, Note_on_c, 9, 35, 126
12, 21072, Note_off_c, 9, 35, 64
12, 21072, Note_on_c, 9, 42, 104
12, 21072, Note_off_c, 9, 42, 64
12, 21072, Note_on_c, 9, 54, 70
12, 21072, Note_off_c, 9, 54, 64
12, 21120, Note_on_c, 9, 42, 68
12, 21120, Note_off_c, 9, 42, 64
12, 21120, Note_on_c, 9, 70, 81
12, 21120, Note_off_c, 9, 70, 64
12, 21168, Note_on_c, 9, 46, 83
12, 21168, Note_off_c, 9, 46, 64
12, 21168, Note_on_c, 9, 54, 66
12, 21168, Note_off_c, 9, 54, 64
12, 21168, Note_on_c, 9, 70, 94
12, 21168, Note_off_c, 9, 70, 64
12, 21216, Note_on_c, 9, 70, 89
12, 21216, Note_off_c, 9, 70, 64
12, 21264, Note_on_c, 9, 38, 112
12, 21264, Note_off_c, 9, 38, 64
12, 21264, Note_on_c, 9, 42, 104
12, 21264, Note_off_c, 9, 42, 64
12, 21264, Note_on_c, 9, 54, 98
12, 21264, Note_off_c, 9, 54, 64
12, 21264, Note_on_c, 9, 70, 92
12, 21264, Note_off_c, 9, 70, 64
12, 21312, Note_on_c, 9, 42, 67
12, 21312, Note_off_c, 9, 42, 64
12, 21360, Note_on_c, 9, 42, 93
12, 21360, Note_off_c, 9, 42, 64
12, 21360, Note_on_c, 9, 54, 59
12, 21360, Note_off_c, 9, 54, 64
12, 21360, Note_on_c, 9, 70, 92
12, 21360, Note_off_c, 9, 70, 64
12, 21408, Note_on_c, 9, 35, 90
12, 21408, Note_off_c, 9, 35, 64
12, 21408, Note_on_c, 9, 42, 68
12, 21408, Note_off_c, 9, 42, 64
12, 21408, Note_on_c, 9, 70, 81
12, 21408, Note_off_c, 9, 70, 64
12, 21456, Note_on_c, 9, 35, 119
12, 21456, Note_off_c, 9, 35, 64
12, 21456, Note_on_c, 9, 42, 104
12, 21456, Note_off_c, 9, 42, 64
12, 21456, Note_on_c, 9, 54, 65
12, 21456, Note_off_c, 9, 54, 64
12, 21504, Note_on_c, 9, 42, 68
12, 21504, Note_off_c, 9, 42, 64
12, 21504, Note_on_c, 9, 70, 83
12, 21504, Note_off_c, 9, 70, 64
12, 21552, Note_on_c, 9, 35, 100
12, 21552, Note_off_c, 9, 35, 64
12, 21552, Note_on_c, 9, 42, 92
12, 21552, Note_off_c, 9, 42, 64
12, 21552, Note_on_c, 9, 54, 65
12, 21552, Note_off_c, 9, 54, 64
12, 21552, Note_on_c, 9, 70, 94
12, 21552, Note_off_c, 9, 70, 64
12, 21600, Note_on_c, 9, 42, 67
12, 21600, Note_off_c, 9, 42, 64
12, 21600, Note_on_c, 9, 70, 83
12, 21600, Note_off_c, 9, 70, 64
12, 21648, Note_on_c, 9, 38, 112
12, 21648, Note_off_c, 9, 38, 64
12, 21648, Note_on_c, 9, 42, 102
12, 21648, Note_off_c, 9, 42, 64
12, 21648, Note_on_c, 9, 54, 102
12, 21648, Note_off_c, 9, 54, 64
12, 21696, Note_on_c, 9, 42, 66
12, 21696, Note_off_c, 9, 42, 64
12, 21696, Note_on_c, 9, 70, 84
12, 21696, Note_off_c, 9, 70, 64
12, 21744, Note_on_c, 9, 46, 82
12, 21744, Note_off_c, 9, 46, 64
12, 21744, Note_on_c, 9, 54, 63
12, 21744, Note_off_c, 9, 54, 64
12, 21744, Note_on_c, 9, 70, 94
12, 21744, Note_off_c, 9, 70, 64
12, 21792, Note_on_c, 9, 35, 90
12, 21792, Note_off_c, 9, 35, 64
12, 21792, Note_on_c, 9, 70, 83
12, 21792, Note_off_c, 9, 70, 64
12, 21840, Note_on_c, 9, 35, 126
12, 21840, Note_off_c, 9, 35, 64
12, 21840, Note_on_c, 9, 42, 104
12, 21840, Note_off_c, 9, 42, 64
12, 21840, Note_on_c, 9, 54, 77
12, 21840, Note_on_c, 9, 54, 77
12, 21840, Note_off_c, 9, 54, 64
12, 21840, Note_off_c, 9, 54, 64
12, 21888, Note_on_c, 9, 42, 68
12, 21888, Note_off_c, 9, 42, 64
12, 21888, Note_on_c, 9, 70, 81
12, 21888, Note_off_c, 9, 70, 64
12, 21936, Note_on_c, 9, 46, 83
12, 21936, Note_off_c, 9, 46, 64
12, 21936, Note_on_c, 9, 54, 69
12, 21936, Note_off_c, 9, 54, 64
12, 21936, Note_on_c, 9, 70, 94
12, 21936, Note_off_c, 9, 70, 64
12, 21984, Note_on_c, 9, 70, 89
12, 21984, Note_off_c, 9, 70, 64
12, 22032, Note_on_c, 9, 38, 112
12, 22032, Note_off_c, 9, 38, 64
12, 22032, Note_on_c, 9, 42, 104
12, 22032, Note_off_c, 9, 42, 64
12, 22032, Note_on_c, 9, 54, 102
12, 22032, Note_off_c, 9, 54, 64
12, 22032, Note_on_c, 9, 70, 92
12, 22032, Note_off_c, 9, 70, 64
12, 22080, Note_on_c, 9, 42, 67
12, 22080, Note_off_c, 9, 42, 64
12, 22128, Note_on_c, 9, 42, 93
12, 22128, Note_off_c, 9, 42, 64
12, 22128, Note_on_c, 9, 54, 59
12, 22128, Note_off_c, 9, 54, 64
12, 22128, Note_on_c, 9, 70, 92
12, 22128, Note_off_c, 9, 70, 64
12, 22176, Note_on_c, 9, 35, 90
12, 22176, Note_off_c, 9, 35, 64
12, 22176, Note_on_c, 9, 42, 68
12, 22176, Note_off_c, 9, 42, 64
12, 22176, Note_on_c, 9, 70, 81
12, 22176, Note_off_c, 9, 70, 64
12, 22224, Note_on_c, 9, 35, 119
12, 22224, Note_off_c, 9, 35, 64
12, 22224, Note_on_c, 9, 42, 104
12, 22224, Note_off_c, 9, 42, 64
12, 22224, Note_on_c, 9, 54, 65
12, 22224, Note_off_c, 9, 54, 64
12, 22272, Note_on_c, 9, 42, 68
12, 22272, Note_off_c, 9, 42, 64
12, 22272, Note_on_c, 9, 70, 83
12, 22272, Note_off_c, 9, 70, 64
12, 22320, Note_on_c, 9, 35, 100
12, 22320, Note_off_c, 9, 35, 64
12, 22320, Note_on_c, 9, 42, 92
12, 22320, Note_off_c, 9, 42, 64
12, 22320, Note_on_c, 9, 54, 57
12, 22320, Note_off_c, 9, 54, 64
12, 22320, Note_on_c, 9, 70, 94
12, 22320, Note_off_c, 9, 70, 64
12, 22368, Note_on_c, 9, 42, 67
12, 22368, Note_off_c, 9, 42, 64
12, 22368, Note_on_c, 9, 70, 83
12, 22368, Note_off_c, 9, 70, 64
12, 22416, Note_on_c, 9, 38, 112
12, 22416, Note_off_c, 9, 38, 64
12, 22416, Note_on_c, 9, 42, 102
12, 22416, Note_off_c, 9, 42, 64
12, 22416, Note_on_c, 9, 54, 104
12, 22416, Note_off_c, 9, 54, 64
12, 22464, Note_on_c, 9, 42, 66
12, 22464, Note_off_c, 9, 42, 64
12, 22464, Note_on_c, 9, 70, 84
12, 22464, Note_off_c, 9, 70, 64
12, 22512, Note_on_c, 9, 46, 82
12, 22512, Note_off_c, 9, 46, 64
12, 22512, Note_on_c, 9, 54, 63
12, 22512, Note_off_c, 9, 54, 64
12, 22512, Note_on_c, 9, 70, 94
12, 22512, Note_off_c, 9, 70, 64
12, 22560, Note_on_c, 9, 35, 90
12, 22560, Note_off_c, 9, 35, 64
12, 22560, Note_on_c, 9, 70, 83
12, 22560, Note_off_c, 9, 70, 64
12, 22608, Note_on_c, 9, 35, 126
12, 22608, Note_off_c, 9, 35, 64
12, 22608, Note_on_c, 9, 42, 104
12, 22608, Note_off_c, 9, 42, 64
12, 22608, Note_on_c, 9, 54, 70
12, 22608, Note_off_c, 9, 54, 64
12, 22656, Note_on_c, 9, 42, 68
12, 22656, Note_off_c, 9, 42, 64
12, 22656, Note_on_c, 9, 70, 81
12, 22656, Note_off_c, 9, 70, 64
12, 22704, Note_on_c, 9, 46, 83
12, 22704, Note_off_c, 9, 46, 64
12, 22704, Note_on_c, 9, 54, 66
12, 22704, Note_off_c, 9, 54, 64
12, 22704, Note_on_c, 9, 70, 94
12, 22704, Note_off_c, 9, 70, 64
12, 22752, Note_on_c, 9, 70, 89
12, 22752, Note_off_c, 9, 70, 64
12, 22800, Note_on_c, 9, 38, 112
12, 22800, Note_off_c, 9, 38, 64
12, 22800, Note_on_c, 9, 42, 104
12, 22800, Note_off_c, 9, 42, 64
12, 22800, Note_on_c, 9, 54, 98
12, 22800, Note_off_c, 9, 54, 64
12, 22800, Note_on_c, 9, 70, 92
12, 22800, Note_off_c, 9, 70, 64
12, 22848, Note_on_c, 9, 42, 67
12, 22848, Note_off_c, 9, 42, 64
12, 22896, Note_on_c, 9, 42, 93
12, 22896, Note_off_c, 9, 42, 64
12, 22896, Note_on_c, 9, 54, 59
12, 22896, Note_off_c, 9, 54, 64
12, 22896, Note_on_c, 9, 70, 92
12, 22896, Note_off_c, 9, 70, 64
12, 22944, Note_on_c, 9, 35, 90
12, 22944, Note_off_c, 9, 35, 64
12, 22944, Note_on_c, 9, 42, 68
12, 22944, Note_off_c, 9, 42, 64
12, 22944, Note_on_c, 9, 70, 81
12, 22944, Note_off_c, 9, 70, 64
12, 22992, Note_on_c, 9, 35, 119
12, 22992, Note_off_c, 9, 35, 64
12, 22992, Note_on_c, 9, 42, 104
12, 22992, Note_off_c, 9, 42, 64
12, 22992, Note_on_c, 9, 54, 65
12, 22992, Note_off_c, 9, 54, 64
12, 23040, Note_on_c, 9, 42, 68
12, 23040, Note_off_c, 9, 42, 64
12, 23040, Note_on_c, 9, 70, 83
12, 23040, Note_off_c, 9, 70, 64
12, 23088, Note_on_c, 9, 35, 100
12, 23088, Note_off_c, 9, 35, 64
12, 23088, Note_on_c, 9, 42, 92
12, 23088, Note_off_c, 9, 42, 64
12, 23088, Note_on_c, 9, 54, 65
12, 23088, Note_off_c, 9, 54, 64
12, 23088, Note_on_c, 9, 70, 94
12, 23088, Note_off_c, 9, 70, 64
12, 23136, Note_on_c, 9, 42, 67
12, 23136, Note_off_c, 9, 42, 64
12, 23136, Note_on_c, 9, 70, 83
12, 23136, Note_off_c, 9, 70, 64
12, 23184, Note_on_c, 9, 38, 112
12, 23184, Note_off_c, 9, 38, 64
12, 23184, Note_on_c, 9, 42, 102
12, 23184, Note_off_c, 9, 42, 64
12, 23184, Note_on_c, 9, 54, 102
12, 23184, Note_off_c, 9, 54, 64
12, 23232, Note_on_c, 9, 42, 66
12, 23232, Note_off_c, 9, 42, 64
12, 23232, Note_on_c, 9, 70, 84
12, 23232, Note_off_c, 9, 70, 64
12, 23280, Note_on_c, 9, 46, 82
12, 23280, Note_off_c, 9, 46, 64
12, 23280, Note_on_c, 9, 54, 63
12, 23280, Note_off_c, 9, 54, 64
12, 23280, Note_on_c, 9, 70, 94
12, 23280, Note_off_c, 9, 70, 64
12, 23328, Note_on_c, 9, 35, 90
12, 23328, Note_off_c, 9, 35, 64
12, 23328, Note_on_c, 9, 70, 83
12, 23328, Note_off_c, 9, 70, 64
12, 23376, Note_on_c, 9, 35, 126
12, 23376, Note_off_c, 9, 35, 64
12, 23376, Note_on_c, 9, 42, 104
12, 23376, Note_off_c, 9, 42, 64
12, 23376, Note_on_c, 9, 49, 90
12, 23376, Note_off_c, 9, 49, 64
12, 23376, Note_on_c, 9, 54, 77
12, 23376, Note_on_c, 9, 54, 77
12, 23376, Note_off_c, 9, 54, 64
12, 23376, Note_off_c, 9, 54, 64
12, 23424, Note_on_c, 9, 42, 68
12, 23424, Note_off_c, 9, 42, 64
12, 23424, Note_on_c, 9, 70, 81
12, 23424, Note_off_c, 9, 70, 64
12, 23472, Note_on_c, 9, 46, 83
12, 23472, Note_off_c, 9, 46, 64
12, 23472, Note_on_c, 9, 54, 69
12, 23472, Note_off_c, 9, 54, 64
12, 23472, Note_on_c, 9, 70, 94
12, 23472, Note_off_c, 9, 70, 64
12, 23520, Note_on_c, 9, 70, 89
12, 23520, Note_off_c, 9, 70, 64
12, 23568, Note_on_c, 9, 38, 112
12, 23568, Note_off_c, 9, 38, 64
12, 23568, Note_on_c, 9, 42, 104
12, 23568, Note_off_c, 9, 42, 64
12, 23568, Note_on_c, 9, 54, 102
12, 23568, Note_off_c, 9, 54, 64
12, 23568, Note_on_c, 9, 70, 92
12, 23568, Note_off_c, 9, 70, 64
12, 23616, Note_on_c, 9, 42, 67
12, 23616, Note_off_c, 9, 42, 64
12, 23664, Note_on_c, 9, 42, 93
12, 23664, Note_off_c, 9, 42, 64
12, 23664, Note_on_c, 9, 54, 59
12, 23664, Note_off_c, 9, 54, 64
12, 23664, Note_on_c, 9, 70, 92
12, 23664, Note_off_c, 9, 70, 64
12, 23712, Note_on_c, 9, 35, 90
12, 23712, Note_off_c, 9, 35, 64
12, 23712, Note_on_c, 9, 42, 68
12, 23712, Note_off_c, 9, 42, 64
12, 23712, Note_on_c, 9, 70, 81
12, 23712, Note_off_c, 9, 70, 64
12, 23760, Note_on_c, 9, 35, 119
12, 23760, Note_off_c, 9, 35, 64
12, 23760, Note_on_c, 9, 42, 104
12, 23760, Note_off_c, 9, 42, 64
12, 23760, Note_on_c, 9, 54, 65
12, 23760, Note_off_c, 9, 54, 64
12, 23808, Note_on_c, 9, 42, 68
12, 23808, Note_off_c, 9, 42, 64
12, 23808, Note_on_c, 9, 70, 83
12, 23808, Note_off_c, 9, 70, 64
12, 23856, Note_on_c, 9, 35, 100
12, 23856, Note_off_c, 9, 35, 64
12, 23856, Note_on_c, 9, 42, 92
12, 23856, Note_off_c, 9, 42, 64
12, 23856, Note_on_c, 9, 54, 57
12, 23856, Note_off_c, 9, 54, 64
12, 23856, Note_on_c, 9, 70, 94
12, 23856, Note_off_c, 9, 70, 64
12, 23904, Note_on_c, 9, 42, 67
12, 23904, Note_off_c, 9, 42, 64
12, 23904, Note_on_c, 9, 70, 83
12, 23904, Note_off_c, 9, 70, 64
12, 23952, Note_on_c, 9, 38, 112
12, 23952, Note_off_c, 9, 38, 64
12, 23952, Note_on_c, 9, 42, 102
12, 23952, Note_off_c, 9, 42, 64
12, 23952, Note_on_c, 9, 54, 104
12, 23952, Note_off_c, 9, 54, 64
12, 24000, Note_on_c, 9, 42, 66
12, 24000, Note_off_c, 9, 42, 64
12, 24000, Note_on_c, 9, 70, 84
12, 24000, Note_off_c, 9, 70, 64
12, 24048, Note_on_c, 9, 46, 82
12, 24048, Note_off_c, 9, 46, 64
12, 24048, Note_on_c, 9, 54, 63
12, 24048, Note_off_c, 9, 54, 64
12, 24048, Note_on_c, 9, 70, 94
12, 24048, Note_off_c, 9, 70, 64
12, 24096, Note_on_c, 9, 35, 90
12, 24096, Note_off_c, 9, 35, 64
12, 24096, Note_on_c, 9, 70, 83
12, 24096, Note_off_c, 9, 70, 64
12, 24144, Note_on_c, 9, 35, 126
12, 24144, Note_off_c, 9, 35, 64
12, 24144, Note_on_c, 9, 42, 104
12, 24144, Note_off_c, 9, 42, 64
12, 24144, Note_on_c, 9, 54, 70
12, 24144, Note_off_c, 9, 54, 64
12, 24192, Note_on_c, 9, 42, 68
12, 24192, Note_off_c, 9, 42, 64
12, 24192, Note_on_c, 9, 70, 81
12, 24192, Note_off_c, 9, 70, 64
12, 24240, Note_on_c, 9, 46, 83
12, 24240, Note_off_c, 9, 46, 64
12, 24240, Note_on_c, 9, 54, 66
12, 24240, Note_off_c, 9, 54, 64
12, 24240, Note_on_c, 9, 70, 94
12, 24240, Note_off_c, 9, 70, 64
12, 24288, Note_on_c, 9, 70, 89
12, 24288, Note_off_c, 9, 70, 64
12, 24336, Note_on_c, 9, 38, 112
12, 24336, Note_off_c, 9, 38, 64
12, 24336, Note_on_c, 9, 42, 104
12, 24336, Note_off_c, 9, 42, 64
12, 24336, Note_on_c, 9, 54, 98
12, 24336, Note_off_c, 9, 54, 64
12, 24336, Note_on_c, 9, 70, 92
12, 24336, Note_off_c, 9, 70, 64
12, 24384, Note_on_c, 9, 42, 67
12, 24384, Note_off_c, 9, 42, 64
12, 24432, Note_on_c, 9, 42, 93
12, 24432, Note_off_c, 9, 42, 64
12, 24432, Note_on_c, 9, 54, 59
12, 24432, Note_off_c, 9, 54, 64
12, 24432, Note_on_c, 9, 70, 92
12, 24432, Note_off_c, 9, 70, 64
12, 24480, Note_on_c, 9, 35, 90
12, 24480, Note_off_c, 9, 35, 64
12, 24480, Note_on_c, 9, 42, 68
12, 24480, Note_off_c, 9, 42, 64
12, 24480, Note_on_c, 9, 70, 81
12, 24480, Note_off_c, 9, 70, 64
12, 24528, Note_on_c, 9, 35, 119
12, 24528, Note_off_c, 9, 35, 64
12, 24528, Note_on_c, 9, 42, 104
12, 24528, Note_off_c, 9, 42, 64
12, 24528, Note_on_c, 9, 54, 65
12, 24528, Note_off_c, 9, 54, 64
12, 24576, Note_on_c, 9, 42, 68
12, 24576, Note_off_c, 9, 42, 64
12, 24576, Note_on_c, 9, 70, 83
12, 24576, Note_off_c, 9, 70, 64
12, 24624, Note_on_c, 9, 35, 100
12, 24624, Note_off_c, 9, 35, 64
12, 24624, Note_on_c, 9, 42, 92
12, 24624, Note_off_c, 9, 42, 64
12, 24624, Note_on_c, 9, 54, 65
12, 24624, Note_off_c, 9, 54, 64
12, 24624, Note_on_c, 9, 70, 94
12, 24624, Note_off_c, 9, 70, 64
12, 24672, Note_on_c, 9, 42, 67
12, 24672, Note_off_c, 9, 42, 64
12, 24672, Note_on_c, 9, 70, 83
12, 24672, Note_off_c, 9, 70, 64
12, 24720, Note_on_c, 9, 38, 112
12, 24720, Note_off_c, 9, 38, 64
12, 24720, Note_on_c, 9, 42, 102
12, 24720, Note_off_c, 9, 42, 64
12, 24720, Note_on_c, 9, 54, 102
12, 24720, Note_off_c, 9, 54, 64
12, 24768, Note_on_c, 9, 42, 66
12, 24768, Note_off_c, 9, 42, 64
12, 24768, Note_on_c, 9, 70, 84
12, 24768, Note_off_c, 9, 70, 64
12, 24816, Note_on_c, 9, 46, 82
12, 24816, Note_off_c, 9, 46, 64
12, 24816, Note_on_c, 9, 54, 63
12, 24816, Note_off_c, 9, 54, 64
12, 24816, Note_on_c, 9, 70, 94
12, 24816, Note_off_c, 9, 70, 64
12, 24864, Note_on_c, 9, 35, 90
12, 24864, Note_off_c, 9, 35, 64
12, 24864, Note_on_c, 9, 70, 83
12, 24864, Note_off_c, 9, 70, 64
12, 24912, Note_on_c, 9, 35, 126
12, 24912, Note_off_c, 9, 35, 64
12, 24912, Note_on_c, 9, 42, 104
12, 24912, Note_off_c, 9, 42, 64
12, 24912, Note_on_c, 9, 54, 77
12, 24912, Note_on_c, 9, 54, 77
12, 24912, Note_off_c, 9, 54, 64
12, 24912, Note_off_c, 9, 54, 64
12, 24960, Note_on_c, 9, 42, 68
12, 24960, Note_off_c, 9, 42, 64
12, 24960, Note_on_c, 9, 70, 81
12, 24960, Note_off_c, 9, 70, 64
12, 25008, Note_on_c, 9, 46, 83
12, 25008, Note_off_c, 9, 46, 64
12, 25008, Note_on_c, 9, 54, 69
12, 25008, Note_off_c, 9, 54, 64
12, 25008, Note_on_c, 9, 70, 94
12, 25008, Note_off_c, 9, 70, 64
12, 25056, Note_on_c, 9, 70, 89
12, 25056, Note_off_c, 9, 70, 64
12, 25104, Note_on_c, 9, 38, 112
12, 25104, Note_off_c, 9, 38, 64
12, 25104, Note_on_c, 9, 42, 104
12, 25104, Note_off_c, 9, 42, 64
12, 25104, Note_on_c, 9, 54, 102
12, 25104, Note_off_c, 9, 54, 64
12, 25104, Note_on_c, 9, 70, 92
12, 25104, Note_off_c, 9, 70, 64
12, 25152, Note_on_c, 9, 42, 67
12, 25152, Note_off_c, 9, 42, 64
12, 25200, Note_on_c, 9, 42, 93
12, 25200, Note_off_c, 9, 42, 64
12, 25200, Note_on_c, 9, 54, 59
12, 25200, Note_off_c, 9, 54, 64
12, 25200, Note_on_c, 9, 70, 92
12, 25200, Note_off_c, 9, 70, 64
12, 25248, Note_on_c, 9, 35, 90
12, 25248, Note_off_c, 9, 35, 64
12, 25248, Note_on_c, 9, 42, 68
12, 25248, Note_off_c, 9, 42, 64
12, 25248, Note_on_c, 9, 70, 81
12, 25248, Note_off_c, 9, 70, 64
12, 25296, Note_on_c, 9, 35, 119
12, 25296, Note_off_c, 9, 35, 64
12, 25296, Note_on_c, 9, 42, 104
12, 25296, Note_off_c, 9, 42, 64
12, 25296, Note_on_c, 9, 54, 65
12, 25296, Note_off_c, 9, 54, 64
12, 25344, Note_on_c, 9, 42, 68
12, 25344, Note_off_c, 9, 42, 64
12, 25344, Note_on_c, 9, 70, 83
12, 25344, Note_off_c, 9, 70, 64
12, 25392, Note_on_c, 9, 35, 100
12, 25392, Note_off_c, 9, 35, 64
12, 25392, Note_on_c, 9, 42, 92
12, 25392, Note_off_c, 9, 42, 64
12, 25392, Note_on_c, 9, 54, 57
12, 25392, Note_off_c, 9, 54, 64
12, 25392, Note_on_c, 9, 70, 94
12, 25392, Note_off_c, 9, 70, 64
12, 25440, Note_on_c, 9, 42, 67
12, 25440, Note_off_c, 9, 42, 64
12, 25440, Note_on_c, 9, 70, 83
12, 25440, Note_off_c, 9, 70, 64
12, 25488, Note_on_c, 9, 38, 112
12, 25488, Note_off_c, 9, 38, 64
12, 25488, Note_on_c, 9, 42, 102
12, 25488, Note_off_c, 9, 42, 64
12, 25488, Note_on_c, 9, 54, 104
12, 25488, Note_off_c, 9, 54, 64
12, 25536, Note_on_c, 9, 42, 66
12, 25536, Note_off_c, 9, 42, 64
12, 25536, Note_on_c, 9, 70, 84
12, 25536, Note_off_c, 9, 70, 64
12, 25584, Note_on_c, 9, 46, 82
12, 25584, Note_off_c, 9, 46, 64
12, 25584, Note_on_c, 9, 54, 63
12, 25584, Note_off_c, 9, 54, 64
12, 25584, Note_on_c, 9, 70, 94
12, 25584, Note_off_c, 9, 70, 64
12, 25632, Note_on_c, 9, 35, 90
12, 25632, Note_off_c, 9, 35, 64
12, 25632, Note_on_c, 9, 70, 83
12, 25632, Note_off_c, 9, 70, 64
12, 25680, Note_on_c, 9, 35, 126
12, 25680, Note_off_c, 9, 35, 64
12, 25680, Note_on_c, 9, 42, 104
12, 25680, Note_off_c, 9, 42, 64
12, 25680, Note_on_c, 9, 54, 70
12, 25680, Note_off_c, 9, 54, 64
12, 25728, Note_on_c, 9, 42, 68
12, 25728, Note_off_c, 9, 42, 64
12, 25728, Note_on_c, 9, 70, 81
12, 25728, Note_off_c, 9, 70, 64
12, 25776, Note_on_c, 9, 46, 83
12, 25776, Note_off_c, 9, 46, 64
12, 25776, Note_on_c, 9, 54, 66
12, 25776, Note_off_c, 9, 54, 64
12, 25776, Note_on_c, 9, 70, 94
12, 25776, Note_off_c, 9, 70, 64
12, 25824, Note_on_c, 9, 70, 89
12, 25824, Note_off_c, 9, 70, 64
12, 25872, Note_on_c, 9, 38, 112
12, 25872, Note_off_c, 9, 38, 64
12, 25872, Note_on_c, 9, 42, 104
12, 25872, Note_off_c, 9, 42, 64
12, 25872, Note_on_c, 9, 54, 98
12, 25872, Note_off_c, 9, 54, 64
12, 25872, Note_on_c, 9, 70, 92
12, 25872, Note_off_c, 9, 70, 64
12, 25920, Note_on_c, 9, 42, 67
12, 25920, Note_off_c, 9, 42, 64
12, 25968, Note_on_c, 9, 42, 93
12, 25968, Note_off_c, 9, 42, 64
12, 25968, Note_on_c, 9, 54, 59
12, 25968, Note_off_c, 9, 54, 64
12, 25968, Note_on_c, 9, 70, 92
12, 25968, Note_off_c, 9, 70, 64
12, 26016, Note_on_c, 9, 35, 90
12, 26016, Note_off_c, 9, 35, 64
12, 26016, Note_on_c, 9, 42, 68
12, 26016, Note_off_c, 9, 42, 64
12, 26016, Note_on_c, 9, 70, 81
12, 26016, Note_off_c, 9, 70, 64
12, 26064, Note_on_c, 9, 38, 112
12, 26064, Note_off_c, 9, 38, 64
12, 26064, Note_on_c, 9, 42, 104
12, 26064, Note_off_c, 9, 42, 64
12, 26064, Note_on_c, 9, 54, 65
12, 26064, Note_off_c, 9, 54, 64
12, 26112, Note_on_c, 9, 38, 90
12, 26112, Note_off_c, 9, 38, 64
12, 26112, Note_on_c, 9, 42, 68
12, 26112, Note_off_c, 9, 42, 64
12, 26112, Note_on_c, 9, 70, 83
12, 26112, Note_off_c, 9, 70, 64
12, 26160, Note_on_c, 9, 35, 100
12, 26160, Note_off_c, 9, 35, 64
12, 26160, Note_on_c, 9, 42, 92
12, 26160, Note_off_c, 9, 42, 64
12, 26160, Note_on_c, 9, 54, 65
12, 26160, Note_off_c, 9, 54, 64
12, 26160, Note_on_c, 9, 70, 94
12, 26160, Note_off_c, 9, 70, 64
12, 26208, Note_on_c, 9, 42, 67
12, 26208, Note_off_c, 9, 42, 64
12, 26208, Note_on_c, 9, 70, 83
12, 26208, Note_off_c, 9, 70, 64
12, 26256, Note_on_c, 9, 38, 112
12, 26256, Note_off_c, 9, 38, 64
12, 26256, Note_on_c, 9, 42, 102
12, 26256, Note_off_c, 9, 42, 64
12, 26256, Note_on_c, 9, 54, 102
12, 26256, Note_off_c, 9, 54, 64
12, 26304, Note_on_c, 9, 42, 66
12, 26304, Note_off_c, 9, 42, 64
12, 26304, Note_on_c, 9, 55, 100
12, 26304, Note_off_c, 9, 55, 64
12, 26304, Note_on_c, 9, 70, 84
12, 26304, Note_off_c, 9, 70, 64
12, 26352, Note_on_c, 9, 43, 82
12, 26352, Note_off_c, 9, 43, 64
12, 26352, Note_on_c, 9, 54, 63
12, 26352, Note_off_c, 9, 54, 64
12, 26352, Note_on_c, 9, 70, 94
12, 26352, Note_off_c, 9, 70, 64
12, 27216, Note_on_c, 9, 35, 76
12, 27216, Note_off_c, 9, 35, 64
12, 27216, Note_on_c, 9, 42, 64
12, 27216, Note_off_c, 9, 42, 64
12, 27264, Note_on_c, 9, 42, 51
12, 27264, Note_off_c, 9, 42, 64
12, 27312, Note_on_c, 9, 42, 64
12, 27312, Note_off_c, 9, 42, 64
12, 27360, Note_on_c, 9, 42, 59
12, 27360, Note_off_c, 9, 42, 64
12, 27408, Note_on_c, 9, 42, 62
12, 27408, Note_off_c, 9, 42, 64
12, 27456, Note_on_c, 9, 35, 62
12, 27456, Note_off_c, 9, 35, 64
12, 27456, Note_on_c, 9, 42, 54
12, 27456, Note_off_c, 9, 42, 64
12, 27504, Note_on_c, 9, 42, 62
12, 27504, Note_off_c, 9, 42, 64
12, 27552, Note_on_c, 9, 35, 69
12, 27552, Note_off_c, 9, 35, 64
12, 27552, Note_on_c, 9, 42, 51
12, 27552, Note_off_c, 9, 42, 64
12, 27600, Note_on_c, 9, 42, 62
12, 27600, Note_off_c, 9, 42, 64
12, 27648, Note_on_c, 9, 42, 53
12, 27648, Note_off_c, 9, 42, 64
12, 27696, Note_on_c, 9, 35, 63
12, 27696, Note_off_c, 9, 35, 64
12, 27696, Note_on_c, 9, 42, 64
12, 27696, Note_off_c, 9, 42, 64
12, 27744, Note_on_c, 9, 42, 53
12, 27744, Note_off_c, 9, 42, 64
12, 27792, Note_on_c, 9, 28, 72
12, 27792, Note_off_c, 9, 28, 64
12, 27792, Note_on_c, 9, 42, 62
12, 27792, Note_off_c, 9, 42, 64
12, 27840, Note_on_c, 9, 42, 54
12, 27840, Note_off_c, 9, 42, 64
12, 27888, Note_on_c, 9, 42, 64
12, 27888, Note_off_c, 9, 42, 64
12, 27936, Note_on_c, 9, 28, 50
12, 27936, Note_off_c, 9, 28, 64
12, 27936, Note_on_c, 9, 42, 53
12, 27936, Note_off_c, 9, 42, 64
12, 27984, Note_on_c, 9, 35, 116
12, 27984, Note_off_c, 9, 35, 64
12, 27984, Note_on_c, 9, 42, 84
12, 27984, Note_off_c, 9, 42, 64
12, 28032, Note_on_c, 9, 42, 58
12, 28032, Note_off_c, 9, 42, 64
12, 28032, Note_on_c, 9, 70, 71
12, 28032, Note_off_c, 9, 70, 64
12, 28080, Note_on_c, 9, 42, 73
12, 28080, Note_off_c, 9, 42, 64
12, 28080, Note_on_c, 9, 70, 84
12, 28080, Note_off_c, 9, 70, 64
12, 28128, Note_on_c, 9, 42, 58
12, 28128, Note_off_c, 9, 42, 64
12, 28128, Note_on_c, 9, 70, 79
12, 28128, Note_off_c, 9, 70, 64
12, 28176, Note_on_c, 9, 28, 102
12, 28176, Note_off_c, 9, 28, 64
12, 28176, Note_on_c, 9, 40, 92
12, 28176, Note_off_c, 9, 40, 64
12, 28176, Note_on_c, 9, 42, 84
12, 28176, Note_off_c, 9, 42, 64
12, 28176, Note_on_c, 9, 70, 82
12, 28176, Note_off_c, 9, 70, 64
12, 28224, Note_on_c, 9, 42, 57
12, 28224, Note_off_c, 9, 42, 64
12, 28272, Note_on_c, 9, 42, 73
12, 28272, Note_off_c, 9, 42, 64
12, 28272, Note_on_c, 9, 70, 82
12, 28272, Note_off_c, 9, 70, 64
12, 28320, Note_on_c, 9, 35, 80
12, 28320, Note_off_c, 9, 35, 64
12, 28320, Note_on_c, 9, 42, 58
12, 28320, Note_off_c, 9, 42, 64
12, 28320, Note_on_c, 9, 70, 71
12, 28320, Note_off_c, 9, 70, 64
12, 28368, Note_on_c, 9, 35, 109
12, 28368, Note_off_c, 9, 35, 64
12, 28368, Note_on_c, 9, 42, 84
12, 28368, Note_off_c, 9, 42, 64
12, 28416, Note_on_c, 9, 42, 58
12, 28416, Note_off_c, 9, 42, 64
12, 28416, Note_on_c, 9, 70, 73
12, 28416, Note_off_c, 9, 70, 64
12, 28464, Note_on_c, 9, 42, 72
12, 28464, Note_off_c, 9, 42, 64
12, 28464, Note_on_c, 9, 70, 84
12, 28464, Note_off_c, 9, 70, 64
12, 28512, Note_on_c, 9, 42, 57
12, 28512, Note_off_c, 9, 42, 64
12, 28512, Note_on_c, 9, 70, 73
12, 28512, Note_off_c, 9, 70, 64
12, 28560, Note_on_c, 9, 28, 102
12, 28560, Note_off_c, 9, 28, 64
12, 28560, Note_on_c, 9, 40, 92
12, 28560, Note_off_c, 9, 40, 64
12, 28560, Note_on_c, 9, 42, 82
12, 28560, Note_off_c, 9, 42, 64
12, 28608, Note_on_c, 9, 42, 56
12, 28608, Note_off_c, 9, 42, 64
12, 28608, Note_on_c, 9, 70, 74
12, 28608, Note_off_c, 9, 70, 64
12, 28656, Note_on_c, 9, 42, 72
12, 28656, Note_off_c, 9, 42, 64
12, 28656, Note_on_c, 9, 70, 84
12, 28656, Note_off_c, 9, 70, 64
12, 28704, Note_on_c, 9, 35, 80
12, 28704, Note_off_c, 9, 35, 64
12, 28704, Note_on_c, 9, 42, 55
12, 28704, Note_off_c, 9, 42, 64
12, 28704, Note_on_c, 9, 70, 73
12, 28704, Note_off_c, 9, 70, 64
12, 28752, Note_on_c, 9, 35, 116
12, 28752, Note_off_c, 9, 35, 64
12, 28752, Note_on_c, 9, 42, 84
12, 28752, Note_off_c, 9, 42, 64
12, 28800, Note_on_c, 9, 42, 58
12, 28800, Note_off_c, 9, 42, 64
12, 28800, Note_on_c, 9, 70, 71
12, 28800, Note_off_c, 9, 70, 64
12, 28848, Note_on_c, 9, 42, 73
12, 28848, Note_off_c, 9, 42, 64
12, 28848, Note_on_c, 9, 70, 84
12, 28848, Note_off_c, 9, 70, 64
12, 28896, Note_on_c, 9, 42, 58
12, 28896, Note_off_c, 9, 42, 64
12, 28896, Note_on_c, 9, 70, 79
12, 28896, Note_off_c, 9, 70, 64
12, 28944, Note_on_c, 9, 28, 102
12, 28944, Note_off_c, 9, 28, 64
12, 28944, Note_on_c, 9, 40, 92
12, 28944, Note_off_c, 9, 40, 64
12, 28944, Note_on_c, 9, 42, 84
12, 28944, Note_off_c, 9, 42, 64
12, 28944, Note_on_c, 9, 70, 82
12, 28944, Note_off_c, 9, 70, 64
12, 28992, Note_on_c, 9, 42, 57
12, 28992, Note_off_c, 9, 42, 64
12, 29040, Note_on_c, 9, 42, 73
12, 29040, Note_off_c, 9, 42, 64
12, 29040, Note_on_c, 9, 70, 82
12, 29040, Note_off_c, 9, 70, 64
12, 29088, Note_on_c, 9, 35, 80
12, 29088, Note_off_c, 9, 35, 64
12, 29088, Note_on_c, 9, 42, 58
12, 29088, Note_off_c, 9, 42, 64
12, 29088, Note_on_c, 9, 70, 71
12, 29088, Note_off_c, 9, 70, 64
12, 29136, Note_on_c, 9, 35, 109
12, 29136, Note_off_c, 9, 35, 64
12, 29136, Note_on_c, 9, 42, 84
12, 29136, Note_off_c, 9, 42, 64
12, 29184, Note_on_c, 9, 42, 58
12, 29184, Note_off_c, 9, 42, 64
12, 29184, Note_on_c, 9, 70, 73
12, 29184, Note_off_c, 9, 70, 64
12, 29232, Note_on_c, 9, 42, 72
12, 29232, Note_off_c, 9, 42, 64
12, 29232, Note_on_c, 9, 70, 84
12, 29232, Note_off_c, 9, 70, 64
12, 29280, Note_on_c, 9, 42, 57
12, 29280, Note_off_c, 9, 42, 64
12, 29280, Note_on_c, 9, 70, 73
12, 29280, Note_off_c, 9, 70, 64
12, 29328, Note_on_c, 9, 28, 102
12, 29328, Note_off_c, 9, 28, 64
12, 29328, Note_on_c, 9, 40, 92
12, 29328, Note_off_c, 9, 40, 64
12, 29328, Note_on_c, 9, 42, 82
12, 29328, Note_off_c, 9, 42, 64
12, 29376, Note_on_c, 9, 42, 56
12, 29376, Note_off_c, 9, 42, 64
12, 29376, Note_on_c, 9, 70, 74
12, 29376, Note_off_c, 9, 70, 64
12, 29424, Note_on_c, 9, 42, 72
12, 29424, Note_off_c, 9, 42, 64
12, 29424, Note_on_c, 9, 70, 84
12, 29424, Note_off_c, 9, 70, 64
12, 29472, Note_on_c, 9, 42, 55
12, 29472, Note_off_c, 9, 42, 64
12, 29472, Note_on_c, 9, 70, 73
12, 29472, Note_off_c, 9, 70, 64
12, 29520, Note_on_c, 9, 35, 116
12, 29520, Note_off_c, 9, 35, 64
12, 29520, Note_on_c, 9, 42, 84
12, 29520, Note_off_c, 9, 42, 64
12, 29568, Note_on_c, 9, 42, 58
12, 29568, Note_off_c, 9, 42, 64
12, 29568, Note_on_c, 9, 70, 71
12, 29568, Note_off_c, 9, 70, 64
12, 29616, Note_on_c, 9, 42, 73
12, 29616, Note_off_c, 9, 42, 64
12, 29616, Note_on_c, 9, 70, 84
12, 29616, Note_off_c, 9, 70, 64
12, 29664, Note_on_c, 9, 42, 58
12, 29664, Note_off_c, 9, 42, 64
12, 29664, Note_on_c, 9, 70, 79
12, 29664, Note_off_c, 9, 70, 64
12, 29712, Note_on_c, 9, 28, 102
12, 29712, Note_off_c, 9, 28, 64
12, 29712, Note_on_c, 9, 40, 92
12, 29712, Note_off_c, 9, 40, 64
12, 29712, Note_on_c, 9, 42, 84
12, 29712, Note_off_c, 9, 42, 64
12, 29712, Note_on_c, 9, 70, 82
12, 29712, Note_off_c, 9, 70, 64
12, 29760, Note_on_c, 9, 42, 57
12, 29760, Note_off_c, 9, 42, 64
12, 29808, Note_on_c, 9, 42, 73
12, 29808, Note_off_c, 9, 42, 64
12, 29808, Note_on_c, 9, 70, 82
12, 29808, Note_off_c, 9, 70, 64
12, 29856, Note_on_c, 9, 35, 80
12, 29856, Note_off_c, 9, 35, 64
12, 29856, Note_on_c, 9, 42, 58
12, 29856, Note_off_c, 9, 42, 64
12, 29856, Note_on_c, 9, 70, 71
12, 29856, Note_off_c, 9, 70, 64
12, 29904, Note_on_c, 9, 35, 109
12, 29904, Note_off_c, 9, 35, 64
12, 29904, Note_on_c, 9, 42, 84
12, 29904, Note_off_c, 9, 42, 64
12, 29952, Note_on_c, 9, 42, 58
12, 29952, Note_off_c, 9, 42, 64
12, 29952, Note_on_c, 9, 70, 73
12, 29952, Note_off_c, 9, 70, 64
12, 30000, Note_on_c, 9, 42, 72
12, 30000, Note_off_c, 9, 42, 64
12, 30000, Note_on_c, 9, 70, 84
12, 30000, Note_off_c, 9, 70, 64
12, 30048, Note_on_c, 9, 42, 57
12, 30048, Note_off_c, 9, 42, 64
12, 30048, Note_on_c, 9, 70, 73
12, 30048, Note_off_c, 9, 70, 64
12, 30096, Note_on_c, 9, 28, 102
12, 30096, Note_off_c, 9, 28, 64
12, 30096, Note_on_c, 9, 40, 92
12, 30096, Note_off_c, 9, 40, 64
12, 30096, Note_on_c, 9, 42, 82
12, 30096, Note_off_c, 9, 42, 64
12, 30144, Note_on_c, 9, 42, 56
12, 30144, Note_off_c, 9, 42, 64
12, 30144, Note_on_c, 9, 70, 74
12, 30144, Note_off_c, 9, 70, 64
12, 30192, Note_on_c, 9, 42, 72
12, 30192, Note_off_c, 9, 42, 64
12, 30192, Note_on_c, 9, 70, 84
12, 30192, Note_off_c, 9, 70, 64
12, 30240, Note_on_c, 9, 35, 80
12, 30240, Note_off_c, 9, 35, 64
12, 30240, Note_on_c, 9, 42, 55
12, 30240, Note_off_c, 9, 42, 64
12, 30240, Note_on_c, 9, 70, 73
12, 30240, Note_off_c, 9, 70, 64
12, 30288, Note_on_c, 9, 35, 116
12, 30288, Note_off_c, 9, 35, 64
12, 30288, Note_on_c, 9, 42, 84
12, 30288, Note_off_c, 9, 42, 64
12, 30336, Note_on_c, 9, 42, 58
12, 30336, Note_off_c, 9, 42, 64
12, 30336, Note_on_c, 9, 70, 71
12, 30336, Note_off_c, 9, 70, 64
12, 30384, Note_on_c, 9, 42, 73
12, 30384, Note_off_c, 9, 42, 64
12, 30384, Note_on_c, 9, 70, 84
12, 30384, Note_off_c, 9, 70, 64
12, 30432, Note_on_c, 9, 35, 90
12, 30432, Note_off_c, 9, 35, 64
12, 30432, Note_on_c, 9, 42, 58
12, 30432, Note_off_c, 9, 42, 64
12, 30432, Note_on_c, 9, 70, 79
12, 30432, Note_off_c, 9, 70, 64
12, 30480, Note_on_c, 9, 28, 102
12, 30480, Note_off_c, 9, 28, 64
12, 30480, Note_on_c, 9, 40, 92
12, 30480, Note_off_c, 9, 40, 64
12, 30480, Note_on_c, 9, 42, 84
12, 30480, Note_off_c, 9, 42, 64
12, 30480, Note_on_c, 9, 70, 82
12, 30480, Note_off_c, 9, 70, 64
12, 30528, Note_on_c, 9, 42, 57
12, 30528, Note_off_c, 9, 42, 64
12, 30576, Note_on_c, 9, 35, 80
12, 30576, Note_off_c, 9, 35, 64
12, 30576, Note_on_c, 9, 42, 73
12, 30576, Note_off_c, 9, 42, 64
12, 30576, Note_on_c, 9, 70, 82
12, 30576, Note_off_c, 9, 70, 64
12, 30624, Note_on_c, 9, 42, 58
12, 30624, Note_off_c, 9, 42, 64
12, 30624, Note_on_c, 9, 70, 71
12, 30624, Note_off_c, 9, 70, 64
12, 30672, Note_on_c, 9, 35, 109
12, 30672, Note_off_c, 9, 35, 64
12, 30672, Note_on_c, 9, 42, 84
12, 30672, Note_off_c, 9, 42, 64
12, 30720, Note_on_c, 9, 42, 58
12, 30720, Note_off_c, 9, 42, 64
12, 30720, Note_on_c, 9, 70, 73
12, 30720, Note_off_c, 9, 70, 64
12, 30768, Note_on_c, 9, 42, 72
12, 30768, Note_off_c, 9, 42, 64
12, 30768, Note_on_c, 9, 70, 84
12, 30768, Note_off_c, 9, 70, 64
12, 30816, Note_on_c, 9, 42, 57
12, 30816, Note_off_c, 9, 42, 64
12, 30816, Note_on_c, 9, 70, 73
12, 30816, Note_off_c, 9, 70, 64
12, 30864, Note_on_c, 9, 28, 102
12, 30864, Note_off_c, 9, 28, 64
12, 30864, Note_on_c, 9, 40, 92
12, 30864, Note_off_c, 9, 40, 64
12, 30864, Note_on_c, 9, 42, 82
12, 30864, Note_off_c, 9, 42, 64
12, 30912, Note_on_c, 9, 42, 56
12, 30912, Note_off_c, 9, 42, 64
12, 30912, Note_on_c, 9, 70, 74
12, 30912, Note_off_c, 9, 70, 64
12, 30960, Note_on_c, 9, 42, 72
12, 30960, Note_off_c, 9, 42, 64
12, 30960, Note_on_c, 9, 70, 84
12, 30960, Note_off_c, 9, 70, 64
12, 31008, Note_on_c, 9, 42, 55
12, 31008, Note_off_c, 9, 42, 64
12, 31008, Note_on_c, 9, 70, 73
12, 31008, Note_off_c, 9, 70, 64
12, 31056, Note_on_c, 9, 35, 116
12, 31056, Note_off_c, 9, 35, 64
12, 31056, Note_on_c, 9, 42, 84
12, 31056, Note_off_c, 9, 42, 64
12, 31104, Note_on_c, 9, 42, 58
12, 31104, Note_off_c, 9, 42, 64
12, 31104, Note_on_c, 9, 70, 71
12, 31104, Note_off_c, 9, 70, 64
12, 31152, Note_on_c, 9, 42, 73
12, 31152, Note_off_c, 9, 42, 64
12, 31152, Note_on_c, 9, 70, 84
12, 31152, Note_off_c, 9, 70, 64
12, 31200, Note_on_c, 9, 42, 58
12, 31200, Note_off_c, 9, 42, 64
12, 31200, Note_on_c, 9, 70, 79
12, 31200, Note_off_c, 9, 70, 64
12, 31248, Note_on_c, 9, 28, 102
12, 31248, Note_off_c, 9, 28, 64
12, 31248, Note_on_c, 9, 40, 92
12, 31248, Note_off_c, 9, 40, 64
12, 31248, Note_on_c, 9, 42, 84
12, 31248, Note_off_c, 9, 42, 64
12, 31248, Note_on_c, 9, 70, 82
12, 31248, Note_off_c, 9, 70, 64
12, 31296, Note_on_c, 9, 42, 57
12, 31296, Note_off_c, 9, 42, 64
12, 31344, Note_on_c, 9, 42, 73
12, 31344, Note_off_c, 9, 42, 64
12, 31344, Note_on_c, 9, 70, 82
12, 31344, Note_off_c, 9, 70, 64
12, 31392, Note_on_c, 9, 35, 80
12, 31392, Note_off_c, 9, 35, 64
12, 31392, Note_on_c, 9, 42, 58
12, 31392, Note_off_c, 9, 42, 64
12, 31392, Note_on_c, 9, 70, 71
12, 31392, Note_off_c, 9, 70, 64
12, 31440, Note_on_c, 9, 35, 109
12, 31440, Note_off_c, 9, 35, 64
12, 31440, Note_on_c, 9, 42, 84
12, 31440, Note_off_c, 9, 42, 64
12, 31488, Note_on_c, 9, 42, 58
12, 31488, Note_off_c, 9, 42, 64
12, 31488, Note_on_c, 9, 70, 73
12, 31488, Note_off_c, 9, 70, 64
12, 31536, Note_on_c, 9, 42, 72
12, 31536, Note_off_c, 9, 42, 64
12, 31536, Note_on_c, 9, 70, 84
12, 31536, Note_off_c, 9, 70, 64
12, 31584, Note_on_c, 9, 42, 57
12, 31584, Note_off_c, 9, 42, 64
12, 31584, Note_on_c, 9, 70, 73
12, 31584, Note_off_c, 9, 70, 64
12, 31632, Note_on_c, 9, 28, 102
12, 31632, Note_off_c, 9, 28, 64
12, 31632, Note_on_c, 9, 40, 92
12, 31632, Note_off_c, 9, 40, 64
12, 31632, Note_on_c, 9, 42, 82
12, 31632, Note_off_c, 9, 42, 64
12, 31680, Note_on_c, 9, 42, 56
12, 31680, Note_off_c, 9, 42, 64
12, 31680, Note_on_c, 9, 70, 74
12, 31680, Note_off_c, 9, 70, 64
12, 31728, Note_on_c, 9, 42, 72
12, 31728, Note_off_c, 9, 42, 64
12, 31728, Note_on_c, 9, 70, 84
12, 31728, Note_off_c, 9, 70, 64
12, 31776, Note_on_c, 9, 35, 80
12, 31776, Note_off_c, 9, 35, 64
12, 31776, Note_on_c, 9, 42, 55
12, 31776, Note_off_c, 9, 42, 64
12, 31776, Note_on_c, 9, 70, 73
12, 31776, Note_off_c, 9, 70, 64
12, 31824, Note_on_c, 9, 35, 116
12, 31824, Note_off_c, 9, 35, 64
12, 31824, Note_on_c, 9, 42, 84
12, 31824, Note_off_c, 9, 42, 64
12, 31872, Note_on_c, 9, 42, 58
12, 31872, Note_off_c, 9, 42, 64
12, 31872, Note_on_c, 9, 70, 71
12, 31872, Note_off_c, 9, 70, 64
12, 31920, Note_on_c, 9, 42, 73
12, 31920, Note_off_c, 9, 42, 64
12, 31920, Note_on_c, 9, 70, 84
12, 31920, Note_off_c, 9, 70, 64
12, 31968, Note_on_c, 9, 42, 58
12, 31968, Note_off_c, 9, 42, 64
12, 31968, Note_on_c, 9, 70, 79
12, 31968, Note_off_c, 9, 70, 64
12, 32016, Note_on_c, 9, 28, 102
12, 32016, Note_off_c, 9, 28, 64
12, 32016, Note_on_c, 9, 40, 92
12, 32016, Note_off_c, 9, 40, 64
12, 32016, Note_on_c, 9, 42, 84
12, 32016, Note_off_c, 9, 42, 64
12, 32016, Note_on_c, 9, 70, 82
12, 32016, Note_off_c, 9, 70, 64
12, 32064, Note_on_c, 9, 42, 57
12, 32064, Note_off_c, 9, 42, 64
12, 32112, Note_on_c, 9, 42, 73
12, 32112, Note_off_c, 9, 42, 64
12, 32112, Note_on_c, 9, 70, 82
12, 32112, Note_off_c, 9, 70, 64
12, 32160, Note_on_c, 9, 35, 80
12, 32160, Note_off_c, 9, 35, 64
12, 32160, Note_on_c, 9, 42, 58
12, 32160, Note_off_c, 9, 42, 64
12, 32160, Note_on_c, 9, 70, 71
12, 32160, Note_off_c, 9, 70, 64
12, 32208, Note_on_c, 9, 35, 109
12, 32208, Note_off_c, 9, 35, 64
12, 32208, Note_on_c, 9, 42, 84
12, 32208, Note_off_c, 9, 42, 64
12, 32256, Note_on_c, 9, 42, 58
12, 32256, Note_off_c, 9, 42, 64
12, 32256, Note_on_c, 9, 70, 73
12, 32256, Note_off_c, 9, 70, 64
12, 32304, Note_on_c, 9, 42, 72
12, 32304, Note_off_c, 9, 42, 64
12, 32304, Note_on_c, 9, 70, 84
12, 32304, Note_off_c, 9, 70, 64
12, 32352, Note_on_c, 9, 42, 57
12, 32352, Note_off_c, 9, 42, 64
12, 32352, Note_on_c, 9, 70, 73
12, 32352, Note_off_c, 9, 70, 64
12, 32400, Note_on_c, 9, 28, 102
12, 32400, Note_off_c, 9, 28, 64
12, 32400, Note_on_c, 9, 40, 92
12, 32400, Note_off_c, 9, 40, 64
12, 32400, Note_on_c, 9, 42, 82
12, 32400, Note_off_c, 9, 42, 64
12, 32448, Note_on_c, 9, 42, 56
12, 32448, Note_off_c, 9, 42, 64
12, 32448, Note_on_c, 9, 70, 74
12, 32448, Note_off_c, 9, 70, 64
12, 32496, Note_on_c, 9, 42, 72
12, 32496, Note_off_c, 9, 42, 64
12, 32496, Note_on_c, 9, 70, 84
12, 32496, Note_off_c, 9, 70, 64
12, 32544, Note_on_c, 9, 42, 55
12, 32544, Note_off_c, 9, 42, 64
12, 32544, Note_on_c, 9, 70, 73
12, 32544, Note_off_c, 9, 70, 64
12, 32592, Note_on_c, 9, 35, 116
12, 32592, Note_off_c, 9, 35, 64
12, 32592, Note_on_c, 9, 42, 84
12, 32592, Note_off_c, 9, 42, 64
12, 32640, Note_on_c, 9, 42, 58
12, 32640, Note_off_c, 9, 42, 64
12, 32640, Note_on_c, 9, 70, 71
12, 32640, Note_off_c, 9, 70, 64
12, 32688, Note_on_c, 9, 42, 73
12, 32688, Note_off_c, 9, 42, 64
12, 32688, Note_on_c, 9, 70, 84
12, 32688, Note_off_c, 9, 70, 64
12, 32736, Note_on_c, 9, 42, 58
12, 32736, Note_off_c, 9, 42, 64
12, 32736, Note_on_c, 9, 70, 79
12, 32736, Note_off_c, 9, 70, 64
12, 32784, Note_on_c, 9, 28, 102
12, 32784, Note_off_c, 9, 28, 64
12, 32784, Note_on_c, 9, 40, 92
12, 32784, Note_off_c, 9, 40, 64
12, 32784, Note_on_c, 9, 42, 84
12, 32784, Note_off_c, 9, 42, 64
12, 32784, Note_on_c, 9, 70, 82
12, 32784, Note_off_c, 9, 70, 64
12, 32832, Note_on_c, 9, 42, 57
12, 32832, Note_off_c, 9, 42, 64
12, 32880, Note_on_c, 9, 42, 73
12, 32880, Note_off_c, 9, 42, 64
12, 32880, Note_on_c, 9, 70, 82
12, 32880, Note_off_c, 9, 70, 64
12, 32928, Note_on_c, 9, 35, 80
12, 32928, Note_off_c, 9, 35, 64
12, 32928, Note_on_c, 9, 42, 58
12, 32928, Note_off_c, 9, 42, 64
12, 32928, Note_on_c, 9, 70, 71
12, 32928, Note_off_c, 9, 70, 64
12, 32976, Note_on_c, 9, 35, 109
12, 32976, Note_off_c, 9, 35, 64
12, 32976, Note_on_c, 9, 42, 84
12, 32976, Note_off_c, 9, 42, 64
12, 33024, Note_on_c, 9, 42, 58
12, 33024, Note_off_c, 9, 42, 64
12, 33024, Note_on_c, 9, 70, 73
12, 33024, Note_off_c, 9, 70, 64
12, 33072, Note_on_c, 9, 42, 72
12, 33072, Note_off_c, 9, 42, 64
12, 33072, Note_on_c, 9, 70, 84
12, 33072, Note_off_c, 9, 70, 64
12, 33120, Note_on_c, 9, 42, 57
12, 33120, Note_off_c, 9, 42, 64
12, 33120, Note_on_c, 9, 70, 73
12, 33120, Note_off_c, 9, 70, 64
12, 33168, Note_on_c, 9, 28, 102
12, 33168, Note_off_c, 9, 28, 64
12, 33168, Note_on_c, 9, 40, 92
12, 33168, Note_off_c, 9, 40, 64
12, 33168, Note_on_c, 9, 42, 82
12, 33168, Note_off_c, 9, 42, 64
12, 33216, Note_on_c, 9, 42, 56
12, 33216, Note_off_c, 9, 42, 64
12, 33216, Note_on_c, 9, 70, 74
12, 33216, Note_off_c, 9, 70, 64
12, 33264, Note_on_c, 9, 42, 72
12, 33264, Note_off_c, 9, 42, 64
12, 33264, Note_on_c, 9, 70, 84
12, 33264, Note_off_c, 9, 70, 64
12, 33312, Note_on_c, 9, 35, 80
12, 33312, Note_off_c, 9, 35, 64
12, 33312, Note_on_c, 9, 42, 55
12, 33312, Note_off_c, 9, 42, 64
12, 33312, Note_on_c, 9, 70, 73
12, 33312, Note_off_c, 9, 70, 64
12, 33360, Note_on_c, 9, 35, 116
12, 33360, Note_off_c, 9, 35, 64
12, 33360, Note_on_c, 9, 42, 84
12, 33360, Note_off_c, 9, 42, 64
12, 33408, Note_on_c, 9, 42, 58
12, 33408, Note_off_c, 9, 42, 64
12, 33408, Note_on_c, 9, 70, 71
12, 33408, Note_off_c, 9, 70, 64
12, 33456, Note_on_c, 9, 42, 73
12, 33456, Note_off_c, 9, 42, 64
12, 33456, Note_on_c, 9, 70, 84
12, 33456, Note_off_c, 9, 70, 64
12, 33504, Note_on_c, 9, 42, 58
12, 33504, Note_off_c, 9, 42, 64
12, 33504, Note_on_c, 9, 70, 79
12, 33504, Note_off_c, 9, 70, 64
12, 33552, Note_on_c, 9, 28, 102
12, 33552, Note_off_c, 9, 28, 64
12, 33552, Note_on_c, 9, 40, 92
12, 33552, Note_off_c, 9, 40, 64
12, 33552, Note_on_c, 9, 42, 84
12, 33552, Note_off_c, 9, 42, 64
12, 33552, Note_on_c, 9, 70, 82
12, 33552, Note_off_c, 9, 70, 64
12, 33600, Note_on_c, 9, 42, 57
12, 33600, Note_off_c, 9, 42, 64
12, 33648, Note_on_c, 9, 42, 73
12, 33648, Note_off_c, 9, 42, 64
12, 33648, Note_on_c, 9, 70, 82
12, 33648, Note_off_c, 9, 70, 64
12, 33696, Note_on_c, 9, 42, 58
12, 33696, Note_off_c, 9, 42, 64
12, 33696, Note_on_c, 9, 70, 71
12, 33696, Note_off_c, 9, 70, 64
12, 33744, Note_on_c, 9, 35, 109
12, 33744, Note_off_c, 9, 35, 64
12, 33744, Note_on_c, 9, 42, 84
12, 33744, Note_off_c, 9, 42, 64
12, 33792, Note_on_c, 9, 42, 58
12, 33792, Note_off_c, 9, 42, 64
12, 33792, Note_on_c, 9, 70, 73
12, 33792, Note_off_c, 9, 70, 64
12, 33840, Note_on_c, 9, 42, 72
12, 33840, Note_off_c, 9, 42, 64
12, 33840, Note_on_c, 9, 70, 84
12, 33840, Note_off_c, 9, 70, 64
12, 33888, Note_on_c, 9, 35, 80
12, 33888, Note_off_c, 9, 35, 64
12, 33888, Note_on_c, 9, 42, 57
12, 33888, Note_off_c, 9, 42, 64
12, 33888, Note_on_c, 9, 70, 73
12, 33888, Note_off_c, 9, 70, 64
12, 33936, Note_on_c, 9, 28, 102
12, 33936, Note_off_c, 9, 28, 64
12, 33936, Note_on_c, 9, 40, 92
12, 33936, Note_off_c, 9, 40, 64
12, 33936, Note_on_c, 9, 42, 82
12, 33936, Note_off_c, 9, 42, 64
12, 33984, Note_on_c, 9, 42, 56
12, 33984, Note_off_c, 9, 42, 64
12, 33984, Note_on_c, 9, 70, 74
12, 33984, Note_off_c, 9, 70, 64
12, 34032, Note_on_c, 9, 35, 90
12, 34032, Note_off_c, 9, 35, 64
12, 34032, Note_on_c, 9, 42, 72
12, 34032, Note_off_c, 9, 42, 64
12, 34032, Note_on_c, 9, 70, 84
12, 34032, Note_off_c, 9, 70, 64
12, 34080, Note_on_c, 9, 42, 55
12, 34080, Note_off_c, 9, 42, 64
12, 34080, Note_on_c, 9, 70, 73
12, 34080, Note_off_c, 9, 70, 64
12, 34128, Note_on_c, 9, 35, 116
12, 34128, Note_off_c, 9, 35, 64
12, 34128, Note_on_c, 9, 42, 84
12, 34128, Note_off_c, 9, 42, 64
12, 34176, Note_on_c, 9, 42, 58
12, 34176, Note_off_c, 9, 42, 64
12, 34176, Note_on_c, 9, 70, 71
12, 34176, Note_off_c, 9, 70, 64
12, 34224, Note_on_c, 9, 42, 73
12, 34224, Note_off_c, 9, 42, 64
12, 34224, Note_on_c, 9, 70, 84
12, 34224, Note_off_c, 9, 70, 64
12, 34272, Note_on_c, 9, 42, 58
12, 34272, Note_off_c, 9, 42, 64
12, 34272, Note_on_c, 9, 70, 79
12, 34272, Note_off_c, 9, 70, 64
12, 34320, Note_on_c, 9, 28, 102
12, 34320, Note_off_c, 9, 28, 64
12, 34320, Note_on_c, 9, 40, 92
12, 34320, Note_off_c, 9, 40, 64
12, 34320, Note_on_c, 9, 42, 84
12, 34320, Note_off_c, 9, 42, 64
12, 34320, Note_on_c, 9, 70, 82
12, 34320, Note_off_c, 9, 70, 64
12, 34368, Note_on_c, 9, 42, 57
12, 34368, Note_off_c, 9, 42, 64
12, 34416, Note_on_c, 9, 42, 73
12, 34416, Note_off_c, 9, 42, 64
12, 34416, Note_on_c, 9, 70, 82
12, 34416, Note_off_c, 9, 70, 64
12, 34464, Note_on_c, 9, 35, 80
12, 34464, Note_off_c, 9, 35, 64
12, 34464, Note_on_c, 9, 42, 58
12, 34464, Note_off_c, 9, 42, 64
12, 34464, Note_on_c, 9, 70, 71
12, 34464, Note_off_c, 9, 70, 64
12, 34512, Note_on_c, 9, 35, 109
12, 34512, Note_off_c, 9, 35, 64
12, 34512, Note_on_c, 9, 42, 84
12, 34512, Note_off_c, 9, 42, 64
12, 34560, Note_on_c, 9, 42, 58
12, 34560, Note_off_c, 9, 42, 64
12, 34560, Note_on_c, 9, 70, 73
12, 34560, Note_off_c, 9, 70, 64
12, 34608, Note_on_c, 9, 42, 72
12, 34608, Note_off_c, 9, 42, 64
12, 34608, Note_on_c, 9, 70, 84
12, 34608, Note_off_c, 9, 70, 64
12, 34656, Note_on_c, 9, 42, 57
12, 34656, Note_off_c, 9, 42, 64
12, 34656, Note_on_c, 9, 70, 73
12, 34656, Note_off_c, 9, 70, 64
12, 34704, Note_on_c, 9, 28, 102
12, 34704, Note_off_c, 9, 28, 64
12, 34704, Note_on_c, 9, 40, 92
12, 34704, Note_off_c, 9, 40, 64
12, 34704, Note_on_c, 9, 42, 82
12, 34704, Note_off_c, 9, 42, 64
12, 34752, Note_on_c, 9, 42, 56
12, 34752, Note_off_c, 9, 42, 64
12, 34752, Note_on_c, 9, 70, 74
12, 34752, Note_off_c, 9, 70, 64
12, 34800, Note_on_c, 9, 42, 72
12, 34800, Note_off_c, 9, 42, 64
12, 34800, Note_on_c, 9, 70, 84
12, 34800, Note_off_c, 9, 70, 64
12, 34848, Note_on_c, 9, 35, 80
12, 34848, Note_off_c, 9, 35, 64
12, 34848, Note_on_c, 9, 42, 55
12, 34848, Note_off_c, 9, 42, 64
12, 34848, Note_on_c, 9, 70, 73
12, 34848, Note_off_c, 9, 70, 64
12, 34896, Note_on_c, 9, 35, 116
12, 34896, Note_off_c, 9, 35, 64
12, 34896, Note_on_c, 9, 42, 84
12, 34896, Note_off_c, 9, 42, 64
12, 34944, Note_on_c, 9, 42, 58
12, 34944, Note_off_c, 9, 42, 64
12, 34944, Note_on_c, 9, 70, 71
12, 34944, Note_off_c, 9, 70, 64
12, 34992, Note_on_c, 9, 42, 73
12, 34992, Note_off_c, 9, 42, 64
12, 34992, Note_on_c, 9, 70, 84
12, 34992, Note_off_c, 9, 70, 64
12, 35040, Note_on_c, 9, 42, 58
12, 35040, Note_off_c, 9, 42, 64
12, 35040, Note_on_c, 9, 70, 79
12, 35040, Note_off_c, 9, 70, 64
12, 35088, Note_on_c, 9, 28, 102
12, 35088, Note_off_c, 9, 28, 64
12, 35088, Note_on_c, 9, 40, 92
12, 35088, Note_off_c, 9, 40, 64
12, 35088, Note_on_c, 9, 42, 84
12, 35088, Note_off_c, 9, 42, 64
12, 35088, Note_on_c, 9, 70, 82
12, 35088, Note_off_c, 9, 70, 64
12, 35136, Note_on_c, 9, 42, 57
12, 35136, Note_off_c, 9, 42, 64
12, 35184, Note_on_c, 9, 42, 73
12, 35184, Note_off_c, 9, 42, 64
12, 35184, Note_on_c, 9, 70, 82
12, 35184, Note_off_c, 9, 70, 64
12, 35232, Note_on_c, 9, 35, 80
12, 35232, Note_off_c, 9, 35, 64
12, 35232, Note_on_c, 9, 42, 58
12, 35232, Note_off_c, 9, 42, 64
12, 35232, Note_on_c, 9, 70, 71
12, 35232, Note_off_c, 9, 70, 64
12, 35280, Note_on_c, 9, 35, 109
12, 35280, Note_off_c, 9, 35, 64
12, 35280, Note_on_c, 9, 42, 84
12, 35280, Note_off_c, 9, 42, 64
12, 35328, Note_on_c, 9, 42, 58
12, 35328, Note_off_c, 9, 42, 64
12, 35328, Note_on_c, 9, 70, 73
12, 35328, Note_off_c, 9, 70, 64
12, 35376, Note_on_c, 9, 42, 72
12, 35376, Note_off_c, 9, 42, 64
12, 35376, Note_on_c, 9, 70, 84
12, 35376, Note_off_c, 9, 70, 64
12, 35424, Note_on_c, 9, 42, 57
12, 35424, Note_off_c, 9, 42, 64
12, 35424, Note_on_c, 9, 70, 73
12, 35424, Note_off_c, 9, 70, 64
12, 35472, Note_on_c, 9, 28, 102
12, 35472, Note_off_c, 9, 28, 64
12, 35472, Note_on_c, 9, 40, 92
12, 35472, Note_off_c, 9, 40, 64
12, 35472, Note_on_c, 9, 42, 82
12, 35472, Note_off_c, 9, 42, 64
12, 35520, Note_on_c, 9, 42, 56
12, 35520, Note_off_c, 9, 42, 64
12, 35520, Note_on_c, 9, 70, 74
12, 35520, Note_off_c, 9, 70, 64
12, 35568, Note_on_c, 9, 42, 72
12, 35568, Note_off_c, 9, 42, 64
12, 35568, Note_on_c, 9, 70, 84
12, 35568, Note_off_c, 9, 70, 64
12, 35616, Note_on_c, 9, 42, 55
12, 35616, Note_off_c, 9, 42, 64
12, 35616, Note_on_c, 9, 70, 73
12, 35616, Note_off_c, 9, 70, 64
12, 35664, Note_on_c, 9, 35, 116
12, 35664, Note_off_c, 9, 35, 64
12, 35664, Note_on_c, 9, 42, 84
12, 35664, Note_off_c, 9, 42, 64
12, 35712, Note_on_c, 9, 42, 58
12, 35712, Note_off_c, 9, 42, 64
12, 35712, Note_on_c, 9, 70, 71
12, 35712, Note_off_c, 9, 70, 64
12, 35760, Note_on_c, 9, 42, 73
12, 35760, Note_off_c, 9, 42, 64
12, 35760, Note_on_c, 9, 70, 84
12, 35760, Note_off_c, 9, 70, 64
12, 35808, Note_on_c, 9, 42, 58
12, 35808, Note_off_c, 9, 42, 64
12, 35808, Note_on_c, 9, 70, 79
12, 35808, Note_off_c, 9, 70, 64
12, 35856, Note_on_c, 9, 28, 102
12, 35856, Note_off_c, 9, 28, 64
12, 35856, Note_on_c, 9, 40, 92
12, 35856, Note_off_c, 9, 40, 64
12, 35856, Note_on_c, 9, 42, 84
12, 35856, Note_off_c, 9, 42, 64
12, 35856, Note_on_c, 9, 70, 82
12, 35856, Note_off_c, 9, 70, 64
12, 35904, Note_on_c, 9, 42, 57
12, 35904, Note_off_c, 9, 42, 64
12, 35952, Note_on_c, 9, 42, 73
12, 35952, Note_off_c, 9, 42, 64
12, 35952, Note_on_c, 9, 70, 82
12, 35952, Note_off_c, 9, 70, 64
12, 36000, Note_on_c, 9, 35, 80
12, 36000, Note_off_c, 9, 35, 64
12, 36000, Note_on_c, 9, 42, 58
12, 36000, Note_off_c, 9, 42, 64
12, 36000, Note_on_c, 9, 70, 71
12, 36000, Note_off_c, 9, 70, 64
12, 36048, Note_on_c, 9, 35, 109
12, 36048, Note_off_c, 9, 35, 64
12, 36048, Note_on_c, 9, 42, 84
12, 36048, Note_off_c, 9, 42, 64
12, 36096, Note_on_c, 9, 42, 58
12, 36096, Note_off_c, 9, 42, 64
12, 36096, Note_on_c, 9, 70, 73
12, 36096, Note_off_c, 9, 70, 64
12, 36144, Note_on_c, 9, 42, 72
12, 36144, Note_off_c, 9, 42, 64
12, 36144, Note_on_c, 9, 70, 84
12, 36144, Note_off_c, 9, 70, 64
12, 36192, Note_on_c, 9, 42, 57
12, 36192, Note_off_c, 9, 42, 64
12, 36192, Note_on_c, 9, 70, 73
12, 36192, Note_off_c, 9, 70, 64
12, 36240, Note_on_c, 9, 28, 102
12, 36240, Note_off_c, 9, 28, 64
12, 36240, Note_on_c, 9, 40, 92
12, 36240, Note_off_c, 9, 40, 64
12, 36240, Note_on_c, 9, 42, 82
12, 36240, Note_off_c, 9, 42, 64
12, 36288, Note_on_c, 9, 42, 56
12, 36288, Note_off_c, 9, 42, 64
12, 36288, Note_on_c, 9, 70, 74
12, 36288, Note_off_c, 9, 70, 64
12, 36336, Note_on_c, 9, 42, 72
12, 36336, Note_off_c, 9, 42, 64
12, 36336, Note_on_c, 9, 70, 84
12, 36336, Note_off_c, 9, 70, 64
12, 36384, Note_on_c, 9, 35, 80
12, 36384, Note_off_c, 9, 35, 64
12, 36384, Note_on_c, 9, 42, 55
12, 36384, Note_off_c, 9, 42, 64
12, 36384, Note_on_c, 9, 70, 73
12, 36384, Note_off_c, 9, 70, 64
12, 36432, Note_on_c, 9, 35, 116
12, 36432, Note_off_c, 9, 35, 64
12, 36432, Note_on_c, 9, 42, 84
12, 36432, Note_off_c, 9, 42, 64
12, 36480, Note_on_c, 9, 42, 58
12, 36480, Note_off_c, 9, 42, 64
12, 36480, Note_on_c, 9, 70, 71
12, 36480, Note_off_c, 9, 70, 64
12, 36528, Note_on_c, 9, 42, 73
12, 36528, Note_off_c, 9, 42, 64
12, 36528, Note_on_c, 9, 70, 84
12, 36528, Note_off_c, 9, 70, 64
12, 36576, Note_on_c, 9, 35, 90
12, 36576, Note_off_c, 9, 35, 64
12, 36576, Note_on_c, 9, 42, 58
12, 36576, Note_off_c, 9, 42, 64
12, 36576, Note_on_c, 9, 70, 79
12, 36576, Note_off_c, 9, 70, 64
12, 36624, Note_on_c, 9, 28, 102
12, 36624, Note_off_c, 9, 28, 64
12, 36624, Note_on_c, 9, 40, 92
12, 36624, Note_off_c, 9, 40, 64
12, 36624, Note_on_c, 9, 42, 84
12, 36624, Note_off_c, 9, 42, 64
12, 36624, Note_on_c, 9, 70, 82
12, 36624, Note_off_c, 9, 70, 64
12, 36672, Note_on_c, 9, 42, 57
12, 36672, Note_off_c, 9, 42, 64
12, 36720, Note_on_c, 9, 42, 73
12, 36720, Note_off_c, 9, 42, 64
12, 36720, Note_on_c, 9, 70, 82
12, 36720, Note_off_c, 9, 70, 64
12, 36768, Note_on_c, 9, 42, 58
12, 36768, Note_off_c, 9, 42, 64
12, 36768, Note_on_c, 9, 70, 71
12, 36768, Note_off_c, 9, 70, 64
12, 36816, Note_on_c, 9, 35, 109
12, 36816, Note_off_c, 9, 35, 64
12, 36816, Note_on_c, 9, 42, 84
12, 36816, Note_off_c, 9, 42, 64
12, 36864, Note_on_c, 9, 42, 58
12, 36864, Note_off_c, 9, 42, 64
12, 36864, Note_on_c, 9, 70, 73
12, 36864, Note_off_c, 9, 70, 64
12, 36912, Note_on_c, 9, 42, 72
12, 36912, Note_off_c, 9, 42, 64
12, 36912, Note_on_c, 9, 70, 84
12, 36912, Note_off_c, 9, 70, 64
12, 36960, Note_on_c, 9, 35, 90
12, 36960, Note_off_c, 9, 35, 64
12, 36960, Note_on_c, 9, 42, 57
12, 36960, Note_off_c, 9, 42, 64
12, 36960, Note_on_c, 9, 70, 73
12, 36960, Note_off_c, 9, 70, 64
12, 37008, Note_on_c, 9, 28, 102
12, 37008, Note_off_c, 9, 28, 64
12, 37008, Note_on_c, 9, 40, 92
12, 37008, Note_off_c, 9, 40, 64
12, 37008, Note_on_c, 9, 42, 82
12, 37008, Note_off_c, 9, 42, 64
12, 37056, Note_on_c, 9, 42, 56
12, 37056, Note_off_c, 9, 42, 64
12, 37056, Note_on_c, 9, 70, 74
12, 37056, Note_off_c, 9, 70, 64
12, 37104, Note_on_c, 9, 35, 80
12, 37104, Note_off_c, 9, 35, 64
12, 37104, Note_on_c, 9, 42, 72
12, 37104, Note_off_c, 9, 42, 64
12, 37104, Note_on_c, 9, 70, 84
12, 37104, Note_off_c, 9, 70, 64
12, 37152, Note_on_c, 9, 42, 55
12, 37152, Note_off_c, 9, 42, 64
12, 37152, Note_on_c, 9, 70, 73
12, 37152, Note_off_c, 9, 70, 64
12, 37200, Note_on_c, 9, 35, 116
12, 37200, Note_off_c, 9, 35, 64
12, 37200, Note_on_c, 9, 42, 84
12, 37200, Note_off_c, 9, 42, 64
12, 37248, Note_on_c, 9, 42, 58
12, 37248, Note_off_c, 9, 42, 64
12, 37248, Note_on_c, 9, 70, 71
12, 37248, Note_off_c, 9, 70, 64
12, 37296, Note_on_c, 9, 42, 73
12, 37296, Note_off_c, 9, 42, 64
12, 37296, Note_on_c, 9, 70, 84
12, 37296, Note_off_c, 9, 70, 64
12, 37344, Note_on_c, 9, 42, 58
12, 37344, Note_off_c, 9, 42, 64
12, 37344, Note_on_c, 9, 70, 79
12, 37344, Note_off_c, 9, 70, 64
12, 37392, Note_on_c, 9, 28, 102
12, 37392, Note_off_c, 9, 28, 64
12, 37392, Note_on_c, 9, 40, 92
12, 37392, Note_off_c, 9, 40, 64
12, 37392, Note_on_c, 9, 42, 84
12, 37392, Note_off_c, 9, 42, 64
12, 37392, Note_on_c, 9, 70, 82
12, 37392, Note_off_c, 9, 70, 64
12, 37440, Note_on_c, 9, 42, 57
12, 37440, Note_off_c, 9, 42, 64
12, 37488, Note_on_c, 9, 42, 73
12, 37488, Note_off_c, 9, 42, 64
12, 37488, Note_on_c, 9, 70, 82
12, 37488, Note_off_c, 9, 70, 64
12, 37536, Note_on_c, 9, 35, 80
12, 37536, Note_off_c, 9, 35, 64
12, 37536, Note_on_c, 9, 42, 58
12, 37536, Note_off_c, 9, 42, 64
12, 37536, Note_on_c, 9, 70, 71
12, 37536, Note_off_c, 9, 70, 64
12, 37584, Note_on_c, 9, 35, 109
12, 37584, Note_off_c, 9, 35, 64
12, 37584, Note_on_c, 9, 42, 84
12, 37584, Note_off_c, 9, 42, 64
12, 37632, Note_on_c, 9, 42, 58
12, 37632, Note_off_c, 9, 42, 64
12, 37632, Note_on_c, 9, 70, 73
12, 37632, Note_off_c, 9, 70, 64
12, 37680, Note_on_c, 9, 42, 72
12, 37680, Note_off_c, 9, 42, 64
12, 37680, Note_on_c, 9, 70, 84
12, 37680, Note_off_c, 9, 70, 64
12, 37728, Note_on_c, 9, 42, 57
12, 37728, Note_off_c, 9, 42, 64
12, 37728, Note_on_c, 9, 70, 73
12, 37728, Note_off_c, 9, 70, 64
12, 37776, Note_on_c, 9, 28, 102
12, 37776, Note_off_c, 9, 28, 64
12, 37776, Note_on_c, 9, 40, 92
12, 37776, Note_off_c, 9, 40, 64
12, 37776, Note_on_c, 9, 42, 82
12, 37776, Note_off_c, 9, 42, 64
12, 37824, Note_on_c, 9, 42, 56
12, 37824, Note_off_c, 9, 42, 64
12, 37824, Note_on_c, 9, 70, 74
12, 37824, Note_off_c, 9, 70, 64
12, 37872, Note_on_c, 9, 42, 72
12, 37872, Note_off_c, 9, 42, 64
12, 37872, Note_on_c, 9, 70, 84
12, 37872, Note_off_c, 9, 70, 64
12, 37920, Note_on_c, 9, 35, 80
12, 37920, Note_off_c, 9, 35, 64
12, 37920, Note_on_c, 9, 42, 55
12, 37920, Note_off_c, 9, 42, 64
12, 37920, Note_on_c, 9, 70, 73
12, 37920, Note_off_c, 9, 70, 64
12, 37968, Note_on_c, 9, 35, 116
12, 37968, Note_off_c, 9, 35, 64
12, 37968, Note_on_c, 9, 42, 84
12, 37968, Note_off_c, 9, 42, 64
12, 38016, Note_on_c, 9, 42, 58
12, 38016, Note_off_c, 9, 42, 64
12, 38016, Note_on_c, 9, 70, 71
12, 38016, Note_off_c, 9, 70, 64
12, 38064, Note_on_c, 9, 42, 73
12, 38064, Note_off_c, 9, 42, 64
12, 38064, Note_on_c, 9, 70, 84
12, 38064, Note_off_c, 9, 70, 64
12, 38112, Note_on_c, 9, 42, 58
12, 38112, Note_off_c, 9, 42, 64
12, 38112, Note_on_c, 9, 70, 79
12, 38112, Note_off_c, 9, 70, 64
12, 38160, Note_on_c, 9, 28, 102
12, 38160, Note_off_c, 9, 28, 64
12, 38160, Note_on_c, 9, 40, 92
12, 38160, Note_off_c, 9, 40, 64
12, 38160, Note_on_c, 9, 42, 84
12, 38160, Note_off_c, 9, 42, 64
12, 38160, Note_on_c, 9, 70, 82
12, 38160, Note_off_c, 9, 70, 64
12, 38208, Note_on_c, 9, 42, 57
12, 38208, Note_off_c, 9, 42, 64
12, 38256, Note_on_c, 9, 42, 73
12, 38256, Note_off_c, 9, 42, 64
12, 38256, Note_on_c, 9, 70, 82
12, 38256, Note_off_c, 9, 70, 64
12, 38304, Note_on_c, 9, 35, 80
12, 38304, Note_off_c, 9, 35, 64
12, 38304, Note_on_c, 9, 42, 58
12, 38304, Note_off_c, 9, 42, 64
12, 38304, Note_on_c, 9, 70, 71
12, 38304, Note_off_c, 9, 70, 64
12, 38352, Note_on_c, 9, 35, 109
12, 38352, Note_off_c, 9, 35, 64
12, 38352, Note_on_c, 9, 42, 84
12, 38352, Note_off_c, 9, 42, 64
12, 38400, Note_on_c, 9, 42, 58
12, 38400, Note_off_c, 9, 42, 64
12, 38400, Note_on_c, 9, 70, 73
12, 38400, Note_off_c, 9, 70, 64
12, 38448, Note_on_c, 9, 42, 72
12, 38448, Note_off_c, 9, 42, 64
12, 38448, Note_on_c, 9, 70, 84
12, 38448, Note_off_c, 9, 70, 64
12, 38496, Note_on_c, 9, 42, 57
12, 38496, Note_off_c, 9, 42, 64
12, 38496, Note_on_c, 9, 70, 73
12, 38496, Note_off_c, 9, 70, 64
12, 38544, Note_on_c, 9, 28, 102
12, 38544, Note_off_c, 9, 28, 64
12, 38544, Note_on_c, 9, 40, 92
12, 38544, Note_off_c, 9, 40, 64
12, 38544, Note_on_c, 9, 42, 82
12, 38544, Note_off_c, 9, 42, 64
12, 38592, Note_on_c, 9, 42, 56
12, 38592, Note_off_c, 9, 42, 64
12, 38592, Note_on_c, 9, 70, 74
12, 38592, Note_off_c, 9, 70, 64
12, 38640, Note_on_c, 9, 42, 72
12, 38640, Note_off_c, 9, 42, 64
12, 38640, Note_on_c, 9, 70, 84
12, 38640, Note_off_c, 9, 70, 64
12, 38688, Note_on_c, 9, 42, 55
12, 38688, Note_off_c, 9, 42, 64
12, 38688, Note_on_c, 9, 70, 73
12, 38688, Note_off_c, 9, 70, 64
12, 38736, Note_on_c, 9, 35, 116
12, 38736, Note_off_c, 9, 35, 64
12, 38736, Note_on_c, 9, 42, 84
12, 38736, Note_off_c, 9, 42, 64
12, 38784, Note_on_c, 9, 42, 58
12, 38784, Note_off_c, 9, 42, 64
12, 38784, Note_on_c, 9, 70, 71
12, 38784, Note_off_c, 9, 70, 64
12, 38832, Note_on_c, 9, 42, 73
12, 38832, Note_off_c, 9, 42, 64
12, 38832, Note_on_c, 9, 70, 84
12, 38832, Note_off_c, 9, 70, 64
12, 38880, Note_on_c, 9, 42, 58
12, 38880, Note_off_c, 9, 42, 64
12, 38880, Note_on_c, 9, 70, 79
12, 38880, Note_off_c, 9, 70, 64
12, 38928, Note_on_c, 9, 28, 102
12, 38928, Note_off_c, 9, 28, 64
12, 38928, Note_on_c, 9, 40, 92
12, 38928, Note_off_c, 9, 40, 64
12, 38928, Note_on_c, 9, 42, 84
12, 38928, Note_off_c, 9, 42, 64
12, 38928, Note_on_c, 9, 70, 82
12, 38928, Note_off_c, 9, 70, 64
12, 38976, Note_on_c, 9, 42, 57
12, 38976, Note_off_c, 9, 42, 64
12, 39024, Note_on_c, 9, 42, 73
12, 39024, Note_off_c, 9, 42, 64
12, 39024, Note_on_c, 9, 70, 82
12, 39024, Note_off_c, 9, 70, 64
12, 39072, Note_on_c, 9, 35, 80
12, 39072, Note_off_c, 9, 35, 64
12, 39072, Note_on_c, 9, 42, 58
12, 39072, Note_off_c, 9, 42, 64
12, 39072, Note_on_c, 9, 70, 71
12, 39072, Note_off_c, 9, 70, 64
12, 39120, Note_on_c, 9, 35, 109
12, 39120, Note_off_c, 9, 35, 64
12, 39120, Note_on_c, 9, 42, 84
12, 39120, Note_off_c, 9, 42, 64
12, 39168, Note_on_c, 9, 42, 58
12, 39168, Note_off_c, 9, 42, 64
12, 39168, Note_on_c, 9, 70, 73
12, 39168, Note_off_c, 9, 70, 64
12, 39216, Note_on_c, 9, 42, 72
12, 39216, Note_off_c, 9, 42, 64
12, 39216, Note_on_c, 9, 70, 84
12, 39216, Note_off_c, 9, 70, 64
12, 39264, Note_on_c, 9, 42, 57
12, 39264, Note_off_c, 9, 42, 64
12, 39264, Note_on_c, 9, 70, 73
12, 39264, Note_off_c, 9, 70, 64
12, 39312, Note_on_c, 9, 28, 102
12, 39312, Note_off_c, 9, 28, 64
12, 39312, Note_on_c, 9, 40, 92
12, 39312, Note_off_c, 9, 40, 64
12, 39312, Note_on_c, 9, 42, 82
12, 39312, Note_off_c, 9, 42, 64
12, 39360, Note_on_c, 9, 42, 56
12, 39360, Note_off_c, 9, 42, 64
12, 39360, Note_on_c, 9, 70, 74
12, 39360, Note_off_c, 9, 70, 64
12, 39408, Note_on_c, 9, 42, 72
12, 39408, Note_off_c, 9, 42, 64
12, 39408, Note_on_c, 9, 70, 84
12, 39408, Note_off_c, 9, 70, 64
12, 39456, Note_on_c, 9, 35, 80
12, 39456, Note_off_c, 9, 35, 64
12, 39456, Note_on_c, 9, 42, 55
12, 39456, Note_off_c, 9, 42, 64
12, 39456, Note_on_c, 9, 70, 73
12, 39456, Note_off_c, 9, 70, 64
12, 39504, Note_on_c, 9, 35, 116
12, 39504, Note_off_c, 9, 35, 64
12, 39504, Note_on_c, 9, 42, 84
12, 39504, Note_off_c, 9, 42, 64
12, 39552, Note_on_c, 9, 42, 58
12, 39552, Note_off_c, 9, 42, 64
12, 39552, Note_on_c, 9, 70, 71
12, 39552, Note_off_c, 9, 70, 64
12, 39600, Note_on_c, 9, 46, 73
12, 39600, Note_off_c, 9, 46, 64
12, 39600, Note_on_c, 9, 70, 84
12, 39600, Note_off_c, 9, 70, 64
12, 39648, Note_on_c, 9, 35, 90
12, 39648, Note_off_c, 9, 35, 64
12, 39648, Note_on_c, 9, 70, 79
12, 39648, Note_off_c, 9, 70, 64
12, 39696, Note_on_c, 9, 28, 102
12, 39696, Note_off_c, 9, 28, 64
12, 39696, Note_on_c, 9, 40, 92
12, 39696, Note_off_c, 9, 40, 64
12, 39696, Note_on_c, 9, 42, 84
12, 39696, Note_off_c, 9, 42, 64
12, 39696, Note_on_c, 9, 70, 82
12, 39696, Note_off_c, 9, 70, 64
12, 39744, Note_on_c, 9, 42, 57
12, 39744, Note_off_c, 9, 42, 64
12, 39792, Note_on_c, 9, 42, 73
12, 39792, Note_off_c, 9, 42, 64
12, 39792, Note_on_c, 9, 70, 82
12, 39792, Note_off_c, 9, 70, 64
12, 39840, Note_on_c, 9, 42, 58
12, 39840, Note_off_c, 9, 42, 64
12, 39840, Note_on_c, 9, 70, 71
12, 39840, Note_off_c, 9, 70, 64
12, 39888, Note_on_c, 9, 35, 109
12, 39888, Note_off_c, 9, 35, 64
12, 39888, Note_on_c, 9, 42, 84
12, 39888, Note_off_c, 9, 42, 64
12, 39936, Note_on_c, 9, 42, 58
12, 39936, Note_off_c, 9, 42, 64
12, 39936, Note_on_c, 9, 70, 73
12, 39936, Note_off_c, 9, 70, 64
12, 39984, Note_on_c, 9, 42, 72
12, 39984, Note_off_c, 9, 42, 64
12, 39984, Note_on_c, 9, 70, 84
12, 39984, Note_off_c, 9, 70, 64
12, 40032, Note_on_c, 9, 35, 90
12, 40032, Note_off_c, 9, 35, 64
12, 40032, Note_on_c, 9, 42, 57
12, 40032, Note_off_c, 9, 42, 64
12, 40032, Note_on_c, 9, 70, 73
12, 40032, Note_off_c, 9, 70, 64
12, 40080, Note_on_c, 9, 28, 102
12, 40080, Note_off_c, 9, 28, 64
12, 40080, Note_on_c, 9, 40, 92
12, 40080, Note_off_c, 9, 40, 64
12, 40080, Note_on_c, 9, 42, 82
12, 40080, Note_off_c, 9, 42, 64
12, 40128, Note_on_c, 9, 42, 56
12, 40128, Note_off_c, 9, 42, 64
12, 40128, Note_on_c, 9, 70, 74
12, 40128, Note_off_c, 9, 70, 64
12, 40176, Note_on_c, 9, 35, 80
12, 40176, Note_off_c, 9, 35, 64
12, 40176, Note_on_c, 9, 42, 72
12, 40176, Note_off_c, 9, 42, 64
12, 40176, Note_on_c, 9, 70, 84
12, 40176, Note_off_c, 9, 70, 64
12, 40224, Note_on_c, 9, 42, 55
12, 40224, Note_off_c, 9, 42, 64
12, 40224, Note_on_c, 9, 70, 73
12, 40224, Note_off_c, 9, 70, 64
12, 40272, Note_on_c, 9, 35, 116
12, 40272, Note_off_c, 9, 35, 64
12, 40272, Note_on_c, 9, 42, 84
12, 40272, Note_off_c, 9, 42, 64
12, 40320, Note_on_c, 9, 42, 58
12, 40320, Note_off_c, 9, 42, 64
12, 40320, Note_on_c, 9, 70, 71
12, 40320, Note_off_c, 9, 70, 64
12, 40368, Note_on_c, 9, 46, 73
12, 40368, Note_off_c, 9, 46, 64
12, 40368, Note_on_c, 9, 70, 84
12, 40368, Note_off_c, 9, 70, 64
12, 40416, Note_on_c, 9, 70, 79
12, 40416, Note_off_c, 9, 70, 64
12, 40464, Note_on_c, 9, 28, 102
12, 40464, Note_off_c, 9, 28, 64
12, 40464, Note_on_c, 9, 40, 92
12, 40464, Note_off_c, 9, 40, 64
12, 40464, Note_on_c, 9, 42, 84
12, 40464, Note_off_c, 9, 42, 64
12, 40464, Note_on_c, 9, 70, 82
12, 40464, Note_off_c, 9, 70, 64
12, 40512, Note_on_c, 9, 42, 57
12, 40512, Note_off_c, 9, 42, 64
12, 40560, Note_on_c, 9, 42, 73
12, 40560, Note_off_c, 9, 42, 64
12, 40560, Note_on_c, 9, 70, 82
12, 40560, Note_off_c, 9, 70, 64
12, 40608, Note_on_c, 9, 35, 80
12, 40608, Note_off_c, 9, 35, 64
12, 40608, Note_on_c, 9, 42, 58
12, 40608, Note_off_c, 9, 42, 64
12, 40608, Note_on_c, 9, 70, 71
12, 40608, Note_off_c, 9, 70, 64
12, 40656, Note_on_c, 9, 35, 109
12, 40656, Note_off_c, 9, 35, 64
12, 40656, Note_on_c, 9, 42, 84
12, 40656, Note_off_c, 9, 42, 64
12, 40704, Note_on_c, 9, 42, 58
12, 40704, Note_off_c, 9, 42, 64
12, 40704, Note_on_c, 9, 70, 73
12, 40704, Note_off_c, 9, 70, 64
12, 40752, Note_on_c, 9, 42, 72
12, 40752, Note_off_c, 9, 42, 64
12, 40752, Note_on_c, 9, 70, 84
12, 40752, Note_off_c, 9, 70, 64
12, 40800, Note_on_c, 9, 42, 57
12, 40800, Note_off_c, 9, 42, 64
12, 40800, Note_on_c, 9, 70, 73
12, 40800, Note_off_c, 9, 70, 64
12, 40848, Note_on_c, 9, 28, 102
12, 40848, Note_off_c, 9, 28, 64
12, 40848, Note_on_c, 9, 40, 92
12, 40848, Note_off_c, 9, 40, 64
12, 40848, Note_on_c, 9, 42, 82
12, 40848, Note_off_c, 9, 42, 64
12, 40896, Note_on_c, 9, 42, 56
12, 40896, Note_off_c, 9, 42, 64
12, 40896, Note_on_c, 9, 70, 74
12, 40896, Note_off_c, 9, 70, 64
12, 40944, Note_on_c, 9, 42, 72
12, 40944, Note_off_c, 9, 42, 64
12, 40944, Note_on_c, 9, 70, 84
12, 40944, Note_off_c, 9, 70, 64
12, 40992, Note_on_c, 9, 35, 80
12, 40992, Note_off_c, 9, 35, 64
12, 40992, Note_on_c, 9, 42, 55
12, 40992, Note_off_c, 9, 42, 64
12, 40992, Note_on_c, 9, 70, 73
12, 40992, Note_off_c, 9, 70, 64
12, 41040, Note_on_c, 9, 35, 116
12, 41040, Note_off_c, 9, 35, 64
12, 41040, Note_on_c, 9, 42, 84
12, 41040, Note_off_c, 9, 42, 64
12, 41088, Note_on_c, 9, 42, 58
12, 41088, Note_off_c, 9, 42, 64
12, 41088, Note_on_c, 9, 70, 71
12, 41088, Note_off_c, 9, 70, 64
12, 41136, Note_on_c, 9, 46, 73
12, 41136, Note_off_c, 9, 46, 64
12, 41136, Note_on_c, 9, 70, 84
12, 41136, Note_off_c, 9, 70, 64
12, 41184, Note_on_c, 9, 70, 79
12, 41184, Note_off_c, 9, 70, 64
12, 41232, Note_on_c, 9, 28, 102
12, 41232, Note_off_c, 9, 28, 64
12, 41232, Note_on_c, 9, 40, 92
12, 41232, Note_off_c, 9, 40, 64
12, 41232, Note_on_c, 9, 42, 84
12, 41232, Note_off_c, 9, 42, 64
12, 41232, Note_on_c, 9, 70, 82
12, 41232, Note_off_c, 9, 70, 64
12, 41280, Note_on_c, 9, 42, 57
12, 41280, Note_off_c, 9, 42, 64
12, 41328, Note_on_c, 9, 42, 73
12, 41328, Note_off_c, 9, 42, 64
12, 41328, Note_on_c, 9, 70, 82
12, 41328, Note_off_c, 9, 70, 64
12, 41376, Note_on_c, 9, 35, 80
12, 41376, Note_off_c, 9, 35, 64
12, 41376, Note_on_c, 9, 42, 58
12, 41376, Note_off_c, 9, 42, 64
12, 41376, Note_on_c, 9, 70, 71
12, 41376, Note_off_c, 9, 70, 64
12, 41424, Note_on_c, 9, 35, 109
12, 41424, Note_off_c, 9, 35, 64
12, 41424, Note_on_c, 9, 42, 84
12, 41424, Note_off_c, 9, 42, 64
12, 41472, Note_on_c, 9, 42, 58
12, 41472, Note_off_c, 9, 42, 64
12, 41472, Note_on_c, 9, 70, 73
12, 41472, Note_off_c, 9, 70, 64
12, 41520, Note_on_c, 9, 42, 72
12, 41520, Note_off_c, 9, 42, 64
12, 41520, Note_on_c, 9, 70, 84
12, 41520, Note_off_c, 9, 70, 64
12, 41568, Note_on_c, 9, 42, 57
12, 41568, Note_off_c, 9, 42, 64
12, 41568, Note_on_c, 9, 70, 73
12, 41568, Note_off_c, 9, 70, 64
12, 41616, Note_on_c, 9, 28, 102
12, 41616, Note_off_c, 9, 28, 64
12, 41616, Note_on_c, 9, 40, 92
12, 41616, Note_off_c, 9, 40, 64
12, 41616, Note_on_c, 9, 42, 82
12, 41616, Note_off_c, 9, 42, 64
12, 41664, Note_on_c, 9, 42, 56
12, 41664, Note_off_c, 9, 42, 64
12, 41664, Note_on_c, 9, 70, 74
12, 41664, Note_off_c, 9, 70, 64
12, 41712, Note_on_c, 9, 42, 72
12, 41712, Note_off_c, 9, 42, 64
12, 41712, Note_on_c, 9, 70, 84
12, 41712, Note_off_c, 9, 70, 64
12, 41760, Note_on_c, 9, 42, 55
12, 41760, Note_off_c, 9, 42, 64
12, 41760, Note_on_c, 9, 70, 73
12, 41760, Note_off_c, 9, 70, 64
12, 41808, Note_on_c, 9, 35, 116
12, 41808, Note_off_c, 9, 35, 64
12, 41808, Note_on_c, 9, 42, 84
12, 41808, Note_off_c, 9, 42, 64
12, 41856, Note_on_c, 9, 42, 58
12, 41856, Note_off_c, 9, 42, 64
12, 41856, Note_on_c, 9, 70, 71
12, 41856, Note_off_c, 9, 70, 64
12, 41904, Note_on_c, 9, 46, 73
12, 41904, Note_off_c, 9, 46, 64
12, 41904, Note_on_c, 9, 70, 84
12, 41904, Note_off_c, 9, 70, 64
12, 41952, Note_on_c, 9, 70, 79
12, 41952, Note_off_c, 9, 70, 64
12, 42000, Note_on_c, 9, 28, 102
12, 42000, Note_off_c, 9, 28, 64
12, 42000, Note_on_c, 9, 40, 92
12, 42000, Note_off_c, 9, 40, 64
12, 42000, Note_on_c, 9, 42, 84
12, 42000, Note_off_c, 9, 42, 64
12, 42000, Note_on_c, 9, 70, 82
12, 42000, Note_off_c, 9, 70, 64
12, 42048, Note_on_c, 9, 42, 57
12, 42048, Note_off_c, 9, 42, 64
12, 42096, Note_on_c, 9, 42, 73
12, 42096, Note_off_c, 9, 42, 64
12, 42096, Note_on_c, 9, 70, 82
12, 42096, Note_off_c, 9, 70, 64
12, 42144, Note_on_c, 9, 35, 80
12, 42144, Note_off_c, 9, 35, 64
12, 42144, Note_on_c, 9, 42, 58
12, 42144, Note_off_c, 9, 42, 64
12, 42144, Note_on_c, 9, 70, 71
12, 42144, Note_off_c, 9, 70, 64
12, 42192, Note_on_c, 9, 35, 116
12, 42192, Note_off_c, 9, 35, 64
12, 42192, Note_on_c, 9, 42, 84
12, 42192, Note_off_c, 9, 42, 64
12, 42240, Note_on_c, 9, 42, 58
12, 42240, Note_off_c, 9, 42, 64
12, 42240, Note_on_c, 9, 70, 71
12, 42240, Note_off_c, 9, 70, 64
12, 42288, Note_on_c, 9, 42, 73
12, 42288, Note_off_c, 9, 42, 64
12, 42288, Note_on_c, 9, 70, 84
12, 42288, Note_off_c, 9, 70, 64
12, 42336, Note_on_c, 9, 35, 90
12, 42336, Note_off_c, 9, 35, 64
12, 42336, Note_on_c, 9, 42, 58
12, 42336, Note_off_c, 9, 42, 64
12, 42336, Note_on_c, 9, 70, 79
12, 42336, Note_off_c, 9, 70, 64
12, 42384, Note_on_c, 9, 28, 102
12, 42384, Note_off_c, 9, 28, 64
12, 42384, Note_on_c, 9, 40, 92
12, 42384, Note_off_c, 9, 40, 64
12, 42384, Note_on_c, 9, 42, 84
12, 42384, Note_off_c, 9, 42, 64
12, 42384, Note_on_c, 9, 70, 82
12, 42384, Note_off_c, 9, 70, 64
12, 42432, Note_on_c, 9, 42, 57
12, 42432, Note_off_c, 9, 42, 64
12, 42480, Note_on_c, 9, 42, 73
12, 42480, Note_off_c, 9, 42, 64
12, 42480, Note_on_c, 9, 70, 82
12, 42480, Note_off_c, 9, 70, 64
12, 42528, Note_on_c, 9, 35, 90
12, 42528, Note_off_c, 9, 35, 64
12, 42528, Note_on_c, 9, 42, 58
12, 42528, Note_off_c, 9, 42, 64
12, 42528, Note_on_c, 9, 70, 71
12, 42528, Note_off_c, 9, 70, 64
12, 42576, Note_on_c, 9, 35, 116
12, 42576, Note_off_c, 9, 35, 64
12, 42576, Note_on_c, 9, 42, 84
12, 42576, Note_off_c, 9, 42, 64
12, 42624, Note_on_c, 9, 42, 58
12, 42624, Note_off_c, 9, 42, 64
12, 42624, Note_on_c, 9, 70, 71
12, 42624, Note_off_c, 9, 70, 64
12, 42672, Note_on_c, 9, 46, 73
12, 42672, Note_off_c, 9, 46, 64
12, 42672, Note_on_c, 9, 70, 84
12, 42672, Note_off_c, 9, 70, 64
12, 42720, Note_on_c, 9, 70, 79
12, 42720, Note_off_c, 9, 70, 64
12, 42768, Note_on_c, 9, 28, 102
12, 42768, Note_off_c, 9, 28, 64
12, 42768, Note_on_c, 9, 40, 92
12, 42768, Note_off_c, 9, 40, 64
12, 42768, Note_on_c, 9, 42, 84
12, 42768, Note_off_c, 9, 42, 64
12, 42768, Note_on_c, 9, 70, 82
12, 42768, Note_off_c, 9, 70, 64
12, 42816, Note_on_c, 9, 42, 57
12, 42816, Note_off_c, 9, 42, 64
12, 42864, Note_on_c, 9, 42, 73
12, 42864, Note_off_c, 9, 42, 64
12, 42864, Note_on_c, 9, 70, 82
12, 42864, Note_off_c, 9, 70, 64
12, 42912, Note_on_c, 9, 35, 80
12, 42912, Note_off_c, 9, 35, 64
12, 42912, Note_on_c, 9, 42, 58
12, 42912, Note_off_c, 9, 42, 64
12, 42912, Note_on_c, 9, 70, 71
12, 42912, Note_off_c, 9, 70, 64
12, 42960, Note_on_c, 9, 35, 109
12, 42960, Note_off_c, 9, 35, 64
12, 42960, Note_on_c, 9, 42, 84
12, 42960, Note_off_c, 9, 42, 64
12, 43008, Note_on_c, 9, 42, 58
12, 43008, Note_off_c, 9, 42, 64
12, 43008, Note_on_c, 9, 70, 73
12, 43008, Note_off_c, 9, 70, 64
12, 43056, Note_on_c, 9, 42, 72
12, 43056, Note_off_c, 9, 42, 64
12, 43056, Note_on_c, 9, 70, 84
12, 43056, Note_off_c, 9, 70, 64
12, 43104, Note_on_c, 9, 42, 57
12, 43104, Note_off_c, 9, 42, 64
12, 43104, Note_on_c, 9, 70, 73
12, 43104, Note_off_c, 9, 70, 64
12, 43152, Note_on_c, 9, 28, 102
12, 43152, Note_off_c, 9, 28, 64
12, 43152, Note_on_c, 9, 40, 92
12, 43152, Note_off_c, 9, 40, 64
12, 43152, Note_on_c, 9, 42, 82
12, 43152, Note_off_c, 9, 42, 64
12, 43200, Note_on_c, 9, 42, 56
12, 43200, Note_off_c, 9, 42, 64
12, 43200, Note_on_c, 9, 70, 74
12, 43200, Note_off_c, 9, 70, 64
12, 43248, Note_on_c, 9, 42, 72
12, 43248, Note_off_c, 9, 42, 64
12, 43248, Note_on_c, 9, 70, 84
12, 43248, Note_off_c, 9, 70, 64
12, 43296, Note_on_c, 9, 35, 80
12, 43296, Note_off_c, 9, 35, 64
12, 43296, Note_on_c, 9, 42, 55
12, 43296, Note_off_c, 9, 42, 64
12, 43296, Note_on_c, 9, 70, 73
12, 43296, Note_off_c, 9, 70, 64
12, 43344, Note_on_c, 9, 35, 116
12, 43344, Note_off_c, 9, 35, 64
12, 43344, Note_on_c, 9, 42, 84
12, 43344, Note_off_c, 9, 42, 64
12, 43392, Note_on_c, 9, 42, 58
12, 43392, Note_off_c, 9, 42, 64
12, 43392, Note_on_c, 9, 70, 71
12, 43392, Note_off_c, 9, 70, 64
12, 43440, Note_on_c, 9, 46, 73
12, 43440, Note_off_c, 9, 46, 64
12, 43440, Note_on_c, 9, 70, 84
12, 43440, Note_off_c, 9, 70, 64
12, 43488, Note_on_c, 9, 70, 79
12, 43488, Note_off_c, 9, 70, 64
12, 43536, Note_on_c, 9, 28, 102
12, 43536, Note_off_c, 9, 28, 64
12, 43536, Note_on_c, 9, 40, 92
12, 43536, Note_off_c, 9, 40, 64
12, 43536, Note_on_c, 9, 42, 84
12, 43536, Note_off_c, 9, 42, 64
12, 43536, Note_on_c, 9, 70, 82
12, 43536, Note_off_c, 9, 70, 64
12, 43584, Note_on_c, 9, 42, 57
12, 43584, Note_off_c, 9, 42, 64
12, 43632, Note_on_c, 9, 42, 73
12, 43632, Note_off_c, 9, 42, 64
12, 43632, Note_on_c, 9, 70, 82
12, 43632, Note_off_c, 9, 70, 64
12, 43680, Note_on_c, 9, 35, 80
12, 43680, Note_off_c, 9, 35, 64
12, 43680, Note_on_c, 9, 42, 58
12, 43680, Note_off_c, 9, 42, 64
12, 43680, Note_on_c, 9, 70, 71
12, 43680, Note_off_c, 9, 70, 64
12, 43728, Note_on_c, 9, 35, 126
12, 43728, Note_off_c, 9, 35, 64
12, 43728, Note_on_c, 9, 42, 104
12, 43728, Note_off_c, 9, 42, 64
12, 43728, Note_on_c, 9, 49, 90
12, 43728, Note_off_c, 9, 49, 64
12, 43728, Note_on_c, 9, 54, 77
12, 43728, Note_on_c, 9, 54, 77
12, 43728, Note_off_c, 9, 54, 64
12, 43728, Note_off_c, 9, 54, 64
12, 43776, Note_on_c, 9, 42, 68
12, 43776, Note_off_c, 9, 42, 64
12, 43776, Note_on_c, 9, 70, 81
12, 43776, Note_off_c, 9, 70, 64
12, 43824, Note_on_c, 9, 46, 83
12, 43824, Note_off_c, 9, 46, 64
12, 43824, Note_on_c, 9, 54, 69
12, 43824, Note_off_c, 9, 54, 64
12, 43824, Note_on_c, 9, 70, 94
12, 43824, Note_off_c, 9, 70, 64
12, 43872, Note_on_c, 9, 70, 89
12, 43872, Note_off_c, 9, 70, 64
12, 43920, Note_on_c, 9, 38, 112
12, 43920, Note_off_c, 9, 38, 64
12, 43920, Note_on_c, 9, 42, 104
12, 43920, Note_off_c, 9, 42, 64
12, 43920, Note_on_c, 9, 54, 102
12, 43920, Note_off_c, 9, 54, 64
12, 43920, Note_on_c, 9, 70, 92
12, 43920, Note_off_c, 9, 70, 64
12, 43968, Note_on_c, 9, 42, 67
12, 43968, Note_off_c, 9, 42, 64
12, 44016, Note_on_c, 9, 42, 93
12, 44016, Note_off_c, 9, 42, 64
12, 44016, Note_on_c, 9, 54, 59
12, 44016, Note_off_c, 9, 54, 64
12, 44016, Note_on_c, 9, 70, 92
12, 44016, Note_off_c, 9, 70, 64
12, 44064, Note_on_c, 9, 35, 90
12, 44064, Note_off_c, 9, 35, 64
12, 44064, Note_on_c, 9, 42, 68
12, 44064, Note_off_c, 9, 42, 64
12, 44064, Note_on_c, 9, 70, 81
12, 44064, Note_off_c, 9, 70, 64
12, 44112, Note_on_c, 9, 35, 119
12, 44112, Note_off_c, 9, 35, 64
12, 44112, Note_on_c, 9, 42, 104
12, 44112, Note_off_c, 9, 42, 64
12, 44112, Note_on_c, 9, 54, 65
12, 44112, Note_off_c, 9, 54, 64
12, 44160, Note_on_c, 9, 42, 68
12, 44160, Note_off_c, 9, 42, 64
12, 44160, Note_on_c, 9, 70, 83
12, 44160, Note_off_c, 9, 70, 64
12, 44208, Note_on_c, 9, 35, 100
12, 44208, Note_off_c, 9, 35, 64
12, 44208, Note_on_c, 9, 42, 92
12, 44208, Note_off_c, 9, 42, 64
12, 44208, Note_on_c, 9, 54, 57
12, 44208, Note_off_c, 9, 54, 64
12, 44208, Note_on_c, 9, 70, 94
12, 44208, Note_off_c, 9, 70, 64
12, 44256, Note_on_c, 9, 42, 67
12, 44256, Note_off_c, 9, 42, 64
12, 44256, Note_on_c, 9, 70, 83
12, 44256, Note_off_c, 9, 70, 64
12, 44304, Note_on_c, 9, 38, 112
12, 44304, Note_off_c, 9, 38, 64
12, 44304, Note_on_c, 9, 42, 102
12, 44304, Note_off_c, 9, 42, 64
12, 44304, Note_on_c, 9, 54, 104
12, 44304, Note_off_c, 9, 54, 64
12, 44352, Note_on_c, 9, 42, 66
12, 44352, Note_off_c, 9, 42, 64
12, 44352, Note_on_c, 9, 70, 84
12, 44352, Note_off_c, 9, 70, 64
12, 44400, Note_on_c, 9, 46, 82
12, 44400, Note_off_c, 9, 46, 64
12, 44400, Note_on_c, 9, 54, 63
12, 44400, Note_off_c, 9, 54, 64
12, 44400, Note_on_c, 9, 70, 94
12, 44400, Note_off_c, 9, 70, 64
12, 44448, Note_on_c, 9, 35, 90
12, 44448, Note_off_c, 9, 35, 64
12, 44448, Note_on_c, 9, 70, 83
12, 44448, Note_off_c, 9, 70, 64
12, 44496, Note_on_c, 9, 35, 126
12, 44496, Note_off_c, 9, 35, 64
12, 44496, Note_on_c, 9, 42, 104
12, 44496, Note_off_c, 9, 42, 64
12, 44496, Note_on_c, 9, 54, 70
12, 44496, Note_off_c, 9, 54, 64
12, 44544, Note_on_c, 9, 42, 68
12, 44544, Note_off_c, 9, 42, 64
12, 44544, Note_on_c, 9, 70, 81
12, 44544, Note_off_c, 9, 70, 64
12, 44592, Note_on_c, 9, 46, 83
12, 44592, Note_off_c, 9, 46, 64
12, 44592, Note_on_c, 9, 54, 66
12, 44592, Note_off_c, 9, 54, 64
12, 44592, Note_on_c, 9, 70, 94
12, 44592, Note_off_c, 9, 70, 64
12, 44640, Note_on_c, 9, 70, 89
12, 44640, Note_off_c, 9, 70, 64
12, 44688, Note_on_c, 9, 38, 112
12, 44688, Note_off_c, 9, 38, 64
12, 44688, Note_on_c, 9, 42, 104
12, 44688, Note_off_c, 9, 42, 64
12, 44688, Note_on_c, 9, 54, 98
12, 44688, Note_off_c, 9, 54, 64
12, 44688, Note_on_c, 9, 70, 92
12, 44688, Note_off_c, 9, 70, 64
12, 44736, Note_on_c, 9, 42, 67
12, 44736, Note_off_c, 9, 42, 64
12, 44784, Note_on_c, 9, 42, 93
12, 44784, Note_off_c, 9, 42, 64
12, 44784, Note_on_c, 9, 54, 59
12, 44784, Note_off_c, 9, 54, 64
12, 44784, Note_on_c, 9, 70, 92
12, 44784, Note_off_c, 9, 70, 64
12, 44832, Note_on_c, 9, 35, 90
12, 44832, Note_off_c, 9, 35, 64
12, 44832, Note_on_c, 9, 42, 68
12, 44832, Note_off_c, 9, 42, 64
12, 44832, Note_on_c, 9, 70, 81
12, 44832, Note_off_c, 9, 70, 64
12, 44880, Note_on_c, 9, 35, 119
12, 44880, Note_off_c, 9, 35, 64
12, 44880, Note_on_c, 9, 42, 104
12, 44880, Note_off_c, 9, 42, 64
12, 44880, Note_on_c, 9, 54, 65
12, 44880, Note_off_c, 9, 54, 64
12, 44928, Note_on_c, 9, 42, 68
12, 44928, Note_off_c, 9, 42, 64
12, 44928, Note_on_c, 9, 70, 83
12, 44928, Note_off_c, 9, 70, 64
12, 44976, Note_on_c, 9, 35, 100
12, 44976, Note_off_c, 9, 35, 64
12, 44976, Note_on_c, 9, 42, 92
12, 44976, Note_off_c, 9, 42, 64
12, 44976, Note_on_c, 9, 54, 65
12, 44976, Note_off_c, 9, 54, 64
12, 44976, Note_on_c, 9, 70, 94
12, 44976, Note_off_c, 9, 70, 64
12, 45024, Note_on_c, 9, 42, 67
12, 45024, Note_off_c, 9, 42, 64
12, 45024, Note_on_c, 9, 70, 83
12, 45024, Note_off_c, 9, 70, 64
12, 45072, Note_on_c, 9, 38, 112
12, 45072, Note_off_c, 9, 38, 64
12, 45072, Note_on_c, 9, 42, 102
12, 45072, Note_off_c, 9, 42, 64
12, 45072, Note_on_c, 9, 54, 102
12, 45072, Note_off_c, 9, 54, 64
12, 45120, Note_on_c, 9, 42, 66
12, 45120, Note_off_c, 9, 42, 64
12, 45120, Note_on_c, 9, 70, 84
12, 45120, Note_off_c, 9, 70, 64
12, 45168, Note_on_c, 9, 46, 82
12, 45168, Note_off_c, 9, 46, 64
12, 45168, Note_on_c, 9, 54, 63
12, 45168, Note_off_c, 9, 54, 64
12, 45168, Note_on_c, 9, 70, 94
12, 45168, Note_off_c, 9, 70, 64
12, 45216, Note_on_c, 9, 35, 90
12, 45216, Note_off_c, 9, 35, 64
12, 45216, Note_on_c, 9, 70, 83
12, 45216, Note_off_c, 9, 70, 64
12, 45264, Note_on_c, 9, 35, 126
12, 45264, Note_off_c, 9, 35, 64
12, 45264, Note_on_c, 9, 42, 104
12, 45264, Note_off_c, 9, 42, 64
12, 45264, Note_on_c, 9, 54, 77
12, 45264, Note_on_c, 9, 54, 77
12, 45264, Note_off_c, 9, 54, 64
12, 45264, Note_off_c, 9, 54, 64
12, 45312, Note_on_c, 9, 42, 68
12, 45312, Note_off_c, 9, 42, 64
12, 45312, Note_on_c, 9, 70, 81
12, 45312, Note_off_c, 9, 70, 64
12, 45360, Note_on_c, 9, 46, 83
12, 45360, Note_off_c, 9, 46, 64
12, 45360, Note_on_c, 9, 54, 69
12, 45360, Note_off_c, 9, 54, 64
12, 45360, Note_on_c, 9, 70, 94
12, 45360, Note_off_c, 9, 70, 64
12, 45408, Note_on_c, 9, 70, 89
12, 45408, Note_off_c, 9, 70, 64
12, 45456, Note_on_c, 9, 38, 112
12, 45456, Note_off_c, 9, 38, 64
12, 45456, Note_on_c, 9, 42, 104
12, 45456, Note_off_c, 9, 42, 64
12, 45456, Note_on_c, 9, 54, 102
12, 45456, Note_off_c, 9, 54, 64
12, 45456, Note_on_c, 9, 70, 92
12, 45456, Note_off_c, 9, 70, 64
12, 45504, Note_on_c, 9, 42, 67
12, 45504, Note_off_c, 9, 42, 64
12, 45552, Note_on_c, 9, 42, 93
12, 45552, Note_off_c, 9, 42, 64
12, 45552, Note_on_c, 9, 54, 59
12, 45552, Note_off_c, 9, 54, 64
12, 45552, Note_on_c, 9, 70, 92
12, 45552, Note_off_c, 9, 70, 64
12, 45600, Note_on_c, 9, 35, 90
12, 45600, Note_off_c, 9, 35, 64
12, 45600, Note_on_c, 9, 42, 68
12, 45600, Note_off_c, 9, 42, 64
12, 45600, Note_on_c, 9, 70, 81
12, 45600, Note_off_c, 9, 70, 64
12, 45648, Note_on_c, 9, 35, 119
12, 45648, Note_off_c, 9, 35, 64
12, 45648, Note_on_c, 9, 42, 104
12, 45648, Note_off_c, 9, 42, 64
12, 45648, Note_on_c, 9, 54, 65
12, 45648, Note_off_c, 9, 54, 64
12, 45696, Note_on_c, 9, 42, 68
12, 45696, Note_off_c, 9, 42, 64
12, 45696, Note_on_c, 9, 70, 83
12, 45696, Note_off_c, 9, 70, 64
12, 45744, Note_on_c, 9, 35, 100
12, 45744, Note_off_c, 9, 35, 64
12, 45744, Note_on_c, 9, 42, 92
12, 45744, Note_off_c, 9, 42, 64
12, 45744, Note_on_c, 9, 54, 57
12, 45744, Note_off_c, 9, 54, 64
12, 45744, Note_on_c, 9, 70, 94
12, 45744, Note_off_c, 9, 70, 64
12, 45792, Note_on_c, 9, 42, 67
12, 45792, Note_off_c, 9, 42, 64
12, 45792, Note_on_c, 9, 70, 83
12, 45792, Note_off_c, 9, 70, 64
12, 45840, Note_on_c, 9, 38, 112
12, 45840, Note_off_c, 9, 38, 64
12, 45840, Note_on_c, 9, 42, 102
12, 45840, Note_off_c, 9, 42, 64
12, 45840, Note_on_c, 9, 54, 104
12, 45840, Note_off_c, 9, 54, 64
12, 45888, Note_on_c, 9, 42, 66
12, 45888, Note_off_c, 9, 42, 64
12, 45888, Note_on_c, 9, 70, 84
12, 45888, Note_off_c, 9, 70, 64
12, 45936, Note_on_c, 9, 46, 82
12, 45936, Note_off_c, 9, 46, 64
12, 45936, Note_on_c, 9, 54, 63
12, 45936, Note_off_c, 9, 54, 64
12, 45936, Note_on_c, 9, 70, 94
12, 45936, Note_off_c, 9, 70, 64
12, 45984, Note_on_c, 9, 35, 90
12, 45984, Note_off_c, 9, 35, 64
12, 45984, Note_on_c, 9, 70, 83
12, 45984, Note_off_c, 9, 70, 64
12, 46032, Note_on_c, 9, 35, 126
12, 46032, Note_off_c, 9, 35, 64
12, 46032, Note_on_c, 9, 42, 104
12, 46032, Note_off_c, 9, 42, 64
12, 46032, Note_on_c, 9, 54, 70
12, 46032, Note_off_c, 9, 54, 64
12, 46080, Note_on_c, 9, 42, 68
12, 46080, Note_off_c, 9, 42, 64
12, 46080, Note_on_c, 9, 70, 81
12, 46080, Note_off_c, 9, 70, 64
12, 46128, Note_on_c, 9, 46, 83
12, 46128, Note_off_c, 9, 46, 64
12, 46128, Note_on_c, 9, 54, 66
12, 46128, Note_off_c, 9, 54, 64
12, 46128, Note_on_c, 9, 70, 94
12, 46128, Note_off_c, 9, 70, 64
12, 46176, Note_on_c, 9, 70, 89
12, 46176, Note_off_c, 9, 70, 64
12, 46224, Note_on_c, 9, 38, 112
12, 46224, Note_off_c, 9, 38, 64
12, 46224, Note_on_c, 9, 42, 104
12, 46224, Note_off_c, 9, 42, 64
12, 46224, Note_on_c, 9, 54, 98
12, 46224, Note_off_c, 9, 54, 64
12, 46224, Note_on_c, 9, 70, 92
12, 46224, Note_off_c, 9, 70, 64
12, 46272, Note_on_c, 9, 42, 67
12, 46272, Note_off_c, 9, 42, 64
12, 46320, Note_on_c, 9, 42, 93
12, 46320, Note_off_c, 9, 42, 64
12, 46320, Note_on_c, 9, 54, 59
12, 46320, Note_off_c, 9, 54, 64
12, 46320, Note_on_c, 9, 70, 92
12, 46320, Note_off_c, 9, 70, 64
12, 46368, Note_on_c, 9, 35, 90
12, 46368, Note_off_c, 9, 35, 64
12, 46368, Note_on_c, 9, 42, 68
12, 46368, Note_off_c, 9, 42, 64
12, 46368, Note_on_c, 9, 70, 81
12, 46368, Note_off_c, 9, 70, 64
12, 46416, Note_on_c, 9, 35, 119
12, 46416, Note_off_c, 9, 35, 64
12, 46416, Note_on_c, 9, 42, 104
12, 46416, Note_off_c, 9, 42, 64
12, 46416, Note_on_c, 9, 54, 65
12, 46416, Note_off_c, 9, 54, 64
12, 46464, Note_on_c, 9, 42, 68
12, 46464, Note_off_c, 9, 42, 64
12, 46464, Note_on_c, 9, 70, 83
12, 46464, Note_off_c, 9, 70, 64
12, 46512, Note_on_c, 9, 35, 100
12, 46512, Note_off_c, 9, 35, 64
12, 46512, Note_on_c, 9, 42, 92
12, 46512, Note_off_c, 9, 42, 64
12, 46512, Note_on_c, 9, 54, 65
12, 46512, Note_off_c, 9, 54, 64
12, 46512, Note_on_c, 9, 70, 94
12, 46512, Note_off_c, 9, 70, 64
12, 46560, Note_on_c, 9, 42, 67
12, 46560, Note_off_c, 9, 42, 64
12, 46560, Note_on_c, 9, 70, 83
12, 46560, Note_off_c, 9, 70, 64
12, 46608, Note_on_c, 9, 38, 112
12, 46608, Note_off_c, 9, 38, 64
12, 46608, Note_on_c, 9, 42, 102
12, 46608, Note_off_c, 9, 42, 64
12, 46608, Note_on_c, 9, 54, 102
12, 46608, Note_off_c, 9, 54, 64
12, 46656, Note_on_c, 9, 42, 66
12, 46656, Note_off_c, 9, 42, 64
12, 46656, Note_on_c, 9, 70, 84
12, 46656, Note_off_c, 9, 70, 64
12, 46704, Note_on_c, 9, 46, 82
12, 46704, Note_off_c, 9, 46, 64
12, 46704, Note_on_c, 9, 54, 63
12, 46704, Note_off_c, 9, 54, 64
12, 46704, Note_on_c, 9, 70, 94
12, 46704, Note_off_c, 9, 70, 64
12, 46752, Note_on_c, 9, 35, 90
12, 46752, Note_off_c, 9, 35, 64
12, 46752, Note_on_c, 9, 70, 83
12, 46752, Note_off_c, 9, 70, 64
12, 46800, Note_on_c, 9, 35, 126
12, 46800, Note_off_c, 9, 35, 64
12, 46800, Note_on_c, 9, 42, 104
12, 46800, Note_off_c, 9, 42, 64
12, 46800, Note_on_c, 9, 49, 90
12, 46800, Note_off_c, 9, 49, 64
12, 46800, Note_on_c, 9, 54, 77
12, 46800, Note_on_c, 9, 54, 77
12, 46800, Note_off_c, 9, 54, 64
12, 46800, Note_off_c, 9, 54, 64
12, 46848, Note_on_c, 9, 42, 68
12, 46848, Note_off_c, 9, 42, 64
12, 46848, Note_on_c, 9, 70, 81
12, 46848, Note_off_c, 9, 70, 64
12, 46896, Note_on_c, 9, 46, 83
12, 46896, Note_off_c, 9, 46, 64
12, 46896, Note_on_c, 9, 54, 69
12, 46896, Note_off_c, 9, 54, 64
12, 46896, Note_on_c, 9, 70, 94
12, 46896, Note_off_c, 9, 70, 64
12, 46944, Note_on_c, 9, 70, 89
12, 46944, Note_off_c, 9, 70, 64
12, 46992, Note_on_c, 9, 38, 112
12, 46992, Note_off_c, 9, 38, 64
12, 46992, Note_on_c, 9, 42, 104
12, 46992, Note_off_c, 9, 42, 64
12, 46992, Note_on_c, 9, 54, 102
12, 46992, Note_off_c, 9, 54, 64
12, 46992, Note_on_c, 9, 70, 92
12, 46992, Note_off_c, 9, 70, 64
12, 47040, Note_on_c, 9, 42, 67
12, 47040, Note_off_c, 9, 42, 64
12, 47088, Note_on_c, 9, 42, 93
12, 47088, Note_off_c, 9, 42, 64
12, 47088, Note_on_c, 9, 54, 59
12, 47088, Note_off_c, 9, 54, 64
12, 47088, Note_on_c, 9, 70, 92
12, 47088, Note_off_c, 9, 70, 64
12, 47136, Note_on_c, 9, 35, 90
12, 47136, Note_off_c, 9, 35, 64
12, 47136, Note_on_c, 9, 42, 68
12, 47136, Note_off_c, 9, 42, 64
12, 47136, Note_on_c, 9, 70, 81
12, 47136, Note_off_c, 9, 70, 64
12, 47184, Note_on_c, 9, 35, 119
12, 47184, Note_off_c, 9, 35, 64
12, 47184, Note_on_c, 9, 42, 104
12, 47184, Note_off_c, 9, 42, 64
12, 47184, Note_on_c, 9, 54, 65
12, 47184, Note_off_c, 9, 54, 64
12, 47232, Note_on_c, 9, 42, 68
12, 47232, Note_off_c, 9, 42, 64
12, 47232, Note_on_c, 9, 70, 83
12, 47232, Note_off_c, 9, 70, 64
12, 47280, Note_on_c, 9, 35, 100
12, 47280, Note_off_c, 9, 35, 64
12, 47280, Note_on_c, 9, 42, 92
12, 47280, Note_off_c, 9, 42, 64
12, 47280, Note_on_c, 9, 54, 57
12, 47280, Note_off_c, 9, 54, 64
12, 47280, Note_on_c, 9, 70, 94
12, 47280, Note_off_c, 9, 70, 64
12, 47328, Note_on_c, 9, 42, 67
12, 47328, Note_off_c, 9, 42, 64
12, 47328, Note_on_c, 9, 70, 83
12, 47328, Note_off_c, 9, 70, 64
12, 47376, Note_on_c, 9, 38, 112
12, 47376, Note_off_c, 9, 38, 64
12, 47376, Note_on_c, 9, 42, 102
12, 47376, Note_off_c, 9, 42, 64
12, 47376, Note_on_c, 9, 54, 104
12, 47376, Note_off_c, 9, 54, 64
12, 47424, Note_on_c, 9, 42, 66
12, 47424, Note_off_c, 9, 42, 64
12, 47424, Note_on_c, 9, 70, 84
12, 47424, Note_off_c, 9, 70, 64
12, 47472, Note_on_c, 9, 46, 82
12, 47472, Note_off_c, 9, 46, 64
12, 47472, Note_on_c, 9, 54, 63
12, 47472, Note_off_c, 9, 54, 64
12, 47472, Note_on_c, 9, 70, 94
12, 47472, Note_off_c, 9, 70, 64
12, 47520, Note_on_c, 9, 35, 90
12, 47520, Note_off_c, 9, 35, 64
12, 47520, Note_on_c, 9, 70, 83
12, 47520, Note_off_c, 9, 70, 64
12, 47568, Note_on_c, 9, 35, 126
12, 47568, Note_off_c, 9, 35, 64
12, 47568, Note_on_c, 9, 42, 104
12, 47568, Note_off_c, 9, 42, 64
12, 47568, Note_on_c, 9, 54, 70
12, 47568, Note_off_c, 9, 54, 64
12, 47616, Note_on_c, 9, 42, 68
12, 47616, Note_off_c, 9, 42, 64
12, 47616, Note_on_c, 9, 70, 81
12, 47616, Note_off_c, 9, 70, 64
12, 47664, Note_on_c, 9, 46, 83
12, 47664, Note_off_c, 9, 46, 64
12, 47664, Note_on_c, 9, 54, 66
12, 47664, Note_off_c, 9, 54, 64
12, 47664, Note_on_c, 9, 70, 94
12, 47664, Note_off_c, 9, 70, 64
12, 47712, Note_on_c, 9, 70, 89
12, 47712, Note_off_c, 9, 70, 64
12, 47760, Note_on_c, 9, 38, 112
12, 47760, Note_off_c, 9, 38, 64
12, 47760, Note_on_c, 9, 42, 104
12, 47760, Note_off_c, 9, 42, 64
12, 47760, Note_on_c, 9, 54, 98
12, 47760, Note_off_c, 9, 54, 64
12, 47760, Note_on_c, 9, 70, 92
12, 47760, Note_off_c, 9, 70, 64
12, 47808, Note_on_c, 9, 42, 67
12, 47808, Note_off_c, 9, 42, 64
12, 47856, Note_on_c, 9, 42, 93
12, 47856, Note_off_c, 9, 42, 64
12, 47856, Note_on_c, 9, 54, 59
12, 47856, Note_off_c, 9, 54, 64
12, 47856, Note_on_c, 9, 70, 92
12, 47856, Note_off_c, 9, 70, 64
12, 47904, Note_on_c, 9, 35, 90
12, 47904, Note_off_c, 9, 35, 64
12, 47904, Note_on_c, 9, 42, 68
12, 47904, Note_off_c, 9, 42, 64
12, 47904, Note_on_c, 9, 70, 81
12, 47904, Note_off_c, 9, 70, 64
12, 47952, Note_on_c, 9, 35, 119
12, 47952, Note_off_c, 9, 35, 64
12, 47952, Note_on_c, 9, 42, 104
12, 47952, Note_off_c, 9, 42, 64
12, 47952, Note_on_c, 9, 54, 65
12, 47952, Note_off_c, 9, 54, 64
12, 48000, Note_on_c, 9, 42, 68
12, 48000, Note_off_c, 9, 42, 64
12, 48000, Note_on_c, 9, 70, 83
12, 48000, Note_off_c, 9, 70, 64
12, 48048, Note_on_c, 9, 35, 100
12, 48048, Note_off_c, 9, 35, 64
12, 48048, Note_on_c, 9, 42, 92
12, 48048, Note_off_c, 9, 42, 64
12, 48048, Note_on_c, 9, 54, 65
12, 48048, Note_off_c, 9, 54, 64
12, 48048, Note_on_c, 9, 70, 94
12, 48048, Note_off_c, 9, 70, 64
12, 48096, Note_on_c, 9, 42, 67
12, 48096, Note_off_c, 9, 42, 64
12, 48096, Note_on_c, 9, 70, 83
12, 48096, Note_off_c, 9, 70, 64
12, 48144, Note_on_c, 9, 38, 112
12, 48144, Note_off_c, 9, 38, 64
12, 48144, Note_on_c, 9, 42, 102
12, 48144, Note_off_c, 9, 42, 64
12, 48144, Note_on_c, 9, 54, 102
12, 48144, Note_off_c, 9, 54, 64
12, 48192, Note_on_c, 9, 42, 66
12, 48192, Note_off_c, 9, 42, 64
12, 48192, Note_on_c, 9, 70, 84
12, 48192, Note_off_c, 9, 70, 64
12, 48240, Note_on_c, 9, 46, 82
12, 48240, Note_off_c, 9, 46, 64
12, 48240, Note_on_c, 9, 54, 63
12, 48240, Note_off_c, 9, 54, 64
12, 48240, Note_on_c, 9, 70, 94
12, 48240, Note_off_c, 9, 70, 64
12, 48288, Note_on_c, 9, 35, 90
12, 48288, Note_off_c, 9, 35, 64
12, 48288, Note_on_c, 9, 70, 83
12, 48288, Note_off_c, 9, 70, 64
12, 48336, Note_on_c, 9, 35, 126
12, 48336, Note_off_c, 9, 35, 64
12, 48336, Note_on_c, 9, 42, 104
12, 48336, Note_off_c, 9, 42, 64
12, 48336, Note_on_c, 9, 54, 77
12, 48336, Note_on_c, 9, 54, 77
12, 48336, Note_off_c, 9, 54, 64
12, 48336, Note_off_c, 9, 54, 64
12, 48384, Note_on_c, 9, 42, 68
12, 48384, Note_off_c, 9, 42, 64
12, 48384, Note_on_c, 9, 70, 81
12, 48384, Note_off_c, 9, 70, 64
12, 48432, Note_on_c, 9, 46, 83
12, 48432, Note_off_c, 9, 46, 64
12, 48432, Note_on_c, 9, 54, 69
12, 48432, Note_off_c, 9, 54, 64
12, 48432, Note_on_c, 9, 70, 94
12, 48432, Note_off_c, 9, 70, 64
12, 48480, Note_on_c, 9, 70, 89
12, 48480, Note_off_c, 9, 70, 64
12, 48528, Note_on_c, 9, 38, 112
12, 48528, Note_off_c, 9, 38, 64
12, 48528, Note_on_c, 9, 42, 104
12, 48528, Note_off_c, 9, 42, 64
12, 48528, Note_on_c, 9, 54, 102
12, 48528, Note_off_c, 9, 54, 64
12, 48528, Note_on_c, 9, 70, 92
12, 48528, Note_off_c, 9, 70, 64
12, 48576, Note_on_c, 9, 42, 67
12, 48576, Note_off_c, 9, 42, 64
12, 48624, Note_on_c, 9, 42, 93
12, 48624, Note_off_c, 9, 42, 64
12, 48624, Note_on_c, 9, 54, 59
12, 48624, Note_off_c, 9, 54, 64
12, 48624, Note_on_c, 9, 70, 92
12, 48624, Note_off_c, 9, 70, 64
12, 48672, Note_on_c, 9, 35, 90
12, 48672, Note_off_c, 9, 35, 64
12, 48672, Note_on_c, 9, 42, 68
12, 48672, Note_off_c, 9, 42, 64
12, 48672, Note_on_c, 9, 70, 81
12, 48672, Note_off_c, 9, 70, 64
12, 48720, Note_on_c, 9, 35, 119
12, 48720, Note_off_c, 9, 35, 64
12, 48720, Note_on_c, 9, 42, 104
12, 48720, Note_off_c, 9, 42, 64
12, 48720, Note_on_c, 9, 54, 65
12, 48720, Note_off_c, 9, 54, 64
12, 48768, Note_on_c, 9, 42, 68
12, 48768, Note_off_c, 9, 42, 64
12, 48768, Note_on_c, 9, 70, 83
12, 48768, Note_off_c, 9, 70, 64
12, 48816, Note_on_c, 9, 35, 100
12, 48816, Note_off_c, 9, 35, 64
12, 48816, Note_on_c, 9, 42, 92
12, 48816, Note_off_c, 9, 42, 64
12, 48816, Note_on_c, 9, 54, 57
12, 48816, Note_off_c, 9, 54, 64
12, 48816, Note_on_c, 9, 70, 94
12, 48816, Note_off_c, 9, 70, 64
12, 48864, Note_on_c, 9, 42, 67
12, 48864, Note_off_c, 9, 42, 64
12, 48864, Note_on_c, 9, 70, 83
12, 48864, Note_off_c, 9, 70, 64
12, 48912, Note_on_c, 9, 38, 112
12, 48912, Note_off_c, 9, 38, 64
12, 48912, Note_on_c, 9, 42, 102
12, 48912, Note_off_c, 9, 42, 64
12, 48912, Note_on_c, 9, 54, 104
12, 48912, Note_off_c, 9, 54, 64
12, 48960, Note_on_c, 9, 42, 66
12, 48960, Note_off_c, 9, 42, 64
12, 48960, Note_on_c, 9, 70, 84
12, 48960, Note_off_c, 9, 70, 64
12, 49008, Note_on_c, 9, 46, 82
12, 49008, Note_off_c, 9, 46, 64
12, 49008, Note_on_c, 9, 54, 63
12, 49008, Note_off_c, 9, 54, 64
12, 49008, Note_on_c, 9, 70, 94
12, 49008, Note_off_c, 9, 70, 64
12, 49056, Note_on_c, 9, 35, 90
12, 49056, Note_off_c, 9, 35, 64
12, 49056, Note_on_c, 9, 70, 83
12, 49056, Note_off_c, 9, 70, 64
12, 49104, Note_on_c, 9, 35, 126
12, 49104, Note_off_c, 9, 35, 64
12, 49104, Note_on_c, 9, 42, 104
12, 49104, Note_off_c, 9, 42, 64
12, 49104, Note_on_c, 9, 54, 70
12, 49104, Note_off_c, 9, 54, 64
12, 49152, Note_on_c, 9, 42, 68
12, 49152, Note_off_c, 9, 42, 64
12, 49152, Note_on_c, 9, 70, 81
12, 49152, Note_off_c, 9, 70, 64
12, 49200, Note_on_c, 9, 46, 83
12, 49200, Note_off_c, 9, 46, 64
12, 49200, Note_on_c, 9, 54, 66
12, 49200, Note_off_c, 9, 54, 64
12, 49200, Note_on_c, 9, 70, 94
12, 49200, Note_off_c, 9, 70, 64
12, 49248, Note_on_c, 9, 70, 89
12, 49248, Note_off_c, 9, 70, 64
12, 49296, Note_on_c, 9, 38, 112
12, 49296, Note_off_c, 9, 38, 64
12, 49296, Note_on_c, 9, 42, 104
12, 49296, Note_off_c, 9, 42, 64
12, 49296, Note_on_c, 9, 54, 98
12, 49296, Note_off_c, 9, 54, 64
12, 49296, Note_on_c, 9, 70, 92
12, 49296, Note_off_c, 9, 70, 64
12, 49344, Note_on_c, 9, 42, 67
12, 49344, Note_off_c, 9, 42, 64
12, 49392, Note_on_c, 9, 42, 93
12, 49392, Note_off_c, 9, 42, 64
12, 49392, Note_on_c, 9, 54, 59
12, 49392, Note_off_c, 9, 54, 64
12, 49392, Note_on_c, 9, 70, 92
12, 49392, Note_off_c, 9, 70, 64
12, 49440, Note_on_c, 9, 35, 90
12, 49440, Note_off_c, 9, 35, 64
12, 49440, Note_on_c, 9, 42, 68
12, 49440, Note_off_c, 9, 42, 64
12, 49440, Note_on_c, 9, 70, 81
12, 49440, Note_off_c, 9, 70, 64
12, 49488, Note_on_c, 9, 35, 119
12, 49488, Note_off_c, 9, 35, 64
12, 49488, Note_on_c, 9, 42, 104
12, 49488, Note_off_c, 9, 42, 64
12, 49488, Note_on_c, 9, 54, 65
12, 49488, Note_off_c, 9, 54, 64
12, 49536, Note_on_c, 9, 42, 68
12, 49536, Note_off_c, 9, 42, 64
12, 49536, Note_on_c, 9, 70, 83
12, 49536, Note_off_c, 9, 70, 64
12, 49584, Note_on_c, 9, 35, 100
12, 49584, Note_off_c, 9, 35, 64
12, 49584, Note_on_c, 9, 42, 92
12, 49584, Note_off_c, 9, 42, 64
12, 49584, Note_on_c, 9, 54, 65
12, 49584, Note_off_c, 9, 54, 64
12, 49584, Note_on_c, 9, 70, 94
12, 49584, Note_off_c, 9, 70, 64
12, 49632, Note_on_c, 9, 42, 67
12, 49632, Note_off_c, 9, 42, 64
12, 49632, Note_on_c, 9, 70, 83
12, 49632, Note_off_c, 9, 70, 64
12, 49680, Note_on_c, 9, 38, 112
12, 49680, Note_off_c, 9, 38, 64
12, 49680, Note_on_c, 9, 42, 102
12, 49680, Note_off_c, 9, 42, 64
12, 49680, Note_on_c, 9, 54, 102
12, 49680, Note_off_c, 9, 54, 64
12, 49728, Note_on_c, 9, 42, 66
12, 49728, Note_off_c, 9, 42, 64
12, 49728, Note_on_c, 9, 70, 84
12, 49728, Note_off_c, 9, 70, 64
12, 49776, Note_on_c, 9, 46, 82
12, 49776, Note_off_c, 9, 46, 64
12, 49776, Note_on_c, 9, 54, 63
12, 49776, Note_off_c, 9, 54, 64
12, 49776, Note_on_c, 9, 70, 94
12, 49776, Note_off_c, 9, 70, 64
12, 49824, Note_on_c, 9, 35, 90
12, 49824, Note_off_c, 9, 35, 64
12, 49824, Note_on_c, 9, 70, 83
12, 49824, Note_off_c, 9, 70, 64
12, 49872, Note_on_c, 9, 35, 126
12, 49872, Note_off_c, 9, 35, 64
12, 49872, Note_on_c, 9, 42, 104
12, 49872, Note_off_c, 9, 42, 64
12, 49872, Note_on_c, 9, 49, 90
12, 49872, Note_off_c, 9, 49, 64
12, 49872, Note_on_c, 9, 54, 77
12, 49872, Note_on_c, 9, 54, 77
12, 49872, Note_off_c, 9, 54, 64
12, 49872, Note_off_c, 9, 54, 64
12, 49920, Note_on_c, 9, 42, 68
12, 49920, Note_off_c, 9, 42, 64
12, 49920, Note_on_c, 9, 70, 81
12, 49920, Note_off_c, 9, 70, 64
12, 49968, Note_on_c, 9, 46, 83
12, 49968, Note_off_c, 9, 46, 64
12, 49968, Note_on_c, 9, 54, 69
12, 49968, Note_off_c, 9, 54, 64
12, 49968, Note_on_c, 9, 70, 94
12, 49968, Note_off_c, 9, 70, 64
12, 50016, Note_on_c, 9, 70, 89
12, 50016, Note_off_c, 9, 70, 64
12, 50064, Note_on_c, 9, 38, 112
12, 50064, Note_off_c, 9, 38, 64
12, 50064, Note_on_c, 9, 42, 104
12, 50064, Note_off_c, 9, 42, 64
12, 50064, Note_on_c, 9, 54, 102
12, 50064, Note_off_c, 9, 54, 64
12, 50064, Note_on_c, 9, 70, 92
12, 50064, Note_off_c, 9, 70, 64
12, 50112, Note_on_c, 9, 42, 67
12, 50112, Note_off_c, 9, 42, 64
12, 50160, Note_on_c, 9, 42, 93
12, 50160, Note_off_c, 9, 42, 64
12, 50160, Note_on_c, 9, 54, 59
12, 50160, Note_off_c, 9, 54, 64
12, 50160, Note_on_c, 9, 70, 92
12, 50160, Note_off_c, 9, 70, 64
12, 50208, Note_on_c, 9, 35, 90
12, 50208, Note_off_c, 9, 35, 64
12, 50208, Note_on_c, 9, 42, 68
12, 50208, Note_off_c, 9, 42, 64
12, 50208, Note_on_c, 9, 70, 81
12, 50208, Note_off_c, 9, 70, 64
12, 50256, Note_on_c, 9, 35, 119
12, 50256, Note_off_c, 9, 35, 64
12, 50256, Note_on_c, 9, 42, 104
12, 50256, Note_off_c, 9, 42, 64
12, 50256, Note_on_c, 9, 54, 65
12, 50256, Note_off_c, 9, 54, 64
12, 50304, Note_on_c, 9, 42, 68
12, 50304, Note_off_c, 9, 42, 64
12, 50304, Note_on_c, 9, 70, 83
12, 50304, Note_off_c, 9, 70, 64
12, 50352, Note_on_c, 9, 35, 100
12, 50352, Note_off_c, 9, 35, 64
12, 50352, Note_on_c, 9, 42, 92
12, 50352, Note_off_c, 9, 42, 64
12, 50352, Note_on_c, 9, 54, 57
12, 50352, Note_off_c, 9, 54, 64
12, 50352, Note_on_c, 9, 70, 94
12, 50352, Note_off_c, 9, 70, 64
12, 50400, Note_on_c, 9, 42, 67
12, 50400, Note_off_c, 9, 42, 64
12, 50400, Note_on_c, 9, 70, 83
12, 50400, Note_off_c, 9, 70, 64
12, 50448, Note_on_c, 9, 38, 112
12, 50448, Note_off_c, 9, 38, 64
12, 50448, Note_on_c, 9, 42, 102
12, 50448, Note_off_c, 9, 42, 64
12, 50448, Note_on_c, 9, 54, 104
12, 50448, Note_off_c, 9, 54, 64
12, 50496, Note_on_c, 9, 42, 66
12, 50496, Note_off_c, 9, 42, 64
12, 50496, Note_on_c, 9, 70, 84
12, 50496, Note_off_c, 9, 70, 64
12, 50544, Note_on_c, 9, 46, 82
12, 50544, Note_off_c, 9, 46, 64
12, 50544, Note_on_c, 9, 54, 63
12, 50544, Note_off_c, 9, 54, 64
12, 50544, Note_on_c, 9, 70, 94
12, 50544, Note_off_c, 9, 70, 64
12, 50592, Note_on_c, 9, 35, 90
12, 50592, Note_off_c, 9, 35, 64
12, 50592, Note_on_c, 9, 70, 83
12, 50592, Note_off_c, 9, 70, 64
12, 50640, Note_on_c, 9, 35, 126
12, 50640, Note_off_c, 9, 35, 64
12, 50640, Note_on_c, 9, 42, 104
12, 50640, Note_off_c, 9, 42, 64
12, 50640, Note_on_c, 9, 54, 70
12, 50640, Note_off_c, 9, 54, 64
12, 50688, Note_on_c, 9, 42, 68
12, 50688, Note_off_c, 9, 42, 64
12, 50688, Note_on_c, 9, 70, 81
12, 50688, Note_off_c, 9, 70, 64
12, 50736, Note_on_c, 9, 46, 83
12, 50736, Note_off_c, 9, 46, 64
12, 50736, Note_on_c, 9, 54, 66
12, 50736, Note_off_c, 9, 54, 64
12, 50736, Note_on_c, 9, 70, 94
12, 50736, Note_off_c, 9, 70, 64
12, 50784, Note_on_c, 9, 70, 89
12, 50784, Note_off_c, 9, 70, 64
12, 50832, Note_on_c, 9, 38, 112
12, 50832, Note_off_c, 9, 38, 64
12, 50832, Note_on_c, 9, 42, 104
12, 50832, Note_off_c, 9, 42, 64
12, 50832, Note_on_c, 9, 54, 98
12, 50832, Note_off_c, 9, 54, 64
12, 50832, Note_on_c, 9, 70, 92
12, 50832, Note_off_c, 9, 70, 64
12, 50880, Note_on_c, 9, 42, 67
12, 50880, Note_off_c, 9, 42, 64
12, 50928, Note_on_c, 9, 42, 93
12, 50928, Note_off_c, 9, 42, 64
12, 50928, Note_on_c, 9, 54, 59
12, 50928, Note_off_c, 9, 54, 64
12, 50928, Note_on_c, 9, 70, 92
12, 50928, Note_off_c, 9, 70, 64
12, 50976, Note_on_c, 9, 35, 90
12, 50976, Note_off_c, 9, 35, 64
12, 50976, Note_on_c, 9, 42, 68
12, 50976, Note_off_c, 9, 42, 64
12, 50976, Note_on_c, 9, 70, 81
12, 50976, Note_off_c, 9, 70, 64
12, 51024, Note_on_c, 9, 35, 119
12, 51024, Note_off_c, 9, 35, 64
12, 51024, Note_on_c, 9, 42, 104
12, 51024, Note_off_c, 9, 42, 64
12, 51024, Note_on_c, 9, 54, 65
12, 51024, Note_off_c, 9, 54, 64
12, 51072, Note_on_c, 9, 42, 68
12, 51072, Note_off_c, 9, 42, 64
12, 51072, Note_on_c, 9, 70, 83
12, 51072, Note_off_c, 9, 70, 64
12, 51120, Note_on_c, 9, 35, 100
12, 51120, Note_off_c, 9, 35, 64
12, 51120, Note_on_c, 9, 42, 92
12, 51120, Note_off_c, 9, 42, 64
12, 51120, Note_on_c, 9, 54, 65
12, 51120, Note_off_c, 9, 54, 64
12, 51120, Note_on_c, 9, 70, 94
12, 51120, Note_off_c, 9, 70, 64
12, 51168, Note_on_c, 9, 42, 67
12, 51168, Note_off_c, 9, 42, 64
12, 51168, Note_on_c, 9, 70, 83
12, 51168, Note_off_c, 9, 70, 64
12, 51216, Note_on_c, 9, 38, 112
12, 51216, Note_off_c, 9, 38, 64
12, 51216, Note_on_c, 9, 42, 102
12, 51216, Note_off_c, 9, 42, 64
12, 51216, Note_on_c, 9, 54, 102
12, 51216, Note_off_c, 9, 54, 64
12, 51264, Note_on_c, 9, 42, 66
12, 51264, Note_off_c, 9, 42, 64
12, 51264, Note_on_c, 9, 70, 84
12, 51264, Note_off_c, 9, 70, 64
12, 51312, Note_on_c, 9, 46, 82
12, 51312, Note_off_c, 9, 46, 64
12, 51312, Note_on_c, 9, 54, 63
12, 51312, Note_off_c, 9, 54, 64
12, 51312, Note_on_c, 9, 70, 94
12, 51312, Note_off_c, 9, 70, 64
12, 51360, Note_on_c, 9, 35, 90
12, 51360, Note_off_c, 9, 35, 64
12, 51360, Note_on_c, 9, 70, 83
12, 51360, Note_off_c, 9, 70, 64
12, 51408, Note_on_c, 9, 35, 126
12, 51408, Note_off_c, 9, 35, 64
12, 51408, Note_on_c, 9, 42, 104
12, 51408, Note_off_c, 9, 42, 64
12, 51408, Note_on_c, 9, 54, 77
12, 51408, Note_on_c, 9, 54, 77
12, 51408, Note_off_c, 9, 54, 64
12, 51408, Note_off_c, 9, 54, 64
12, 51456, Note_on_c, 9, 42, 68
12, 51456, Note_off_c, 9, 42, 64
12, 51456, Note_on_c, 9, 70, 81
12, 51456, Note_off_c, 9, 70, 64
12, 51504, Note_on_c, 9, 46, 83
12, 51504, Note_off_c, 9, 46, 64
12, 51504, Note_on_c, 9, 54, 69
12, 51504, Note_off_c, 9, 54, 64
12, 51504, Note_on_c, 9, 70, 94
12, 51504, Note_off_c, 9, 70, 64
12, 51552, Note_on_c, 9, 70, 89
12, 51552, Note_off_c, 9, 70, 64
12, 51600, Note_on_c, 9, 38, 112
12, 51600, Note_off_c, 9, 38, 64
12, 51600, Note_on_c, 9, 42, 104
12, 51600, Note_off_c, 9, 42, 64
12, 51600, Note_on_c, 9, 54, 102
12, 51600, Note_off_c, 9, 54, 64
12, 51600, Note_on_c, 9, 70, 92
12, 51600, Note_off_c, 9, 70, 64
12, 51648, Note_on_c, 9, 42, 67
12, 51648, Note_off_c, 9, 42, 64
12, 51696, Note_on_c, 9, 42, 93
12, 51696, Note_off_c, 9, 42, 64
12, 51696, Note_on_c, 9, 54, 59
12, 51696, Note_off_c, 9, 54, 64
12, 51696, Note_on_c, 9, 70, 92
12, 51696, Note_off_c, 9, 70, 64
12, 51744, Note_on_c, 9, 35, 90
12, 51744, Note_off_c, 9, 35, 64
12, 51744, Note_on_c, 9, 42, 68
12, 51744, Note_off_c, 9, 42, 64
12, 51744, Note_on_c, 9, 70, 81
12, 51744, Note_off_c, 9, 70, 64
12, 51792, Note_on_c, 9, 35, 119
12, 51792, Note_off_c, 9, 35, 64
12, 51792, Note_on_c, 9, 42, 104
12, 51792, Note_off_c, 9, 42, 64
12, 51792, Note_on_c, 9, 54, 65
12, 51792, Note_off_c, 9, 54, 64
12, 51840, Note_on_c, 9, 42, 68
12, 51840, Note_off_c, 9, 42, 64
12, 51840, Note_on_c, 9, 70, 83
12, 51840, Note_off_c, 9, 70, 64
12, 51888, Note_on_c, 9, 35, 100
12, 51888, Note_off_c, 9, 35, 64
12, 51888, Note_on_c, 9, 42, 92
12, 51888, Note_off_c, 9, 42, 64
12, 51888, Note_on_c, 9, 54, 57
12, 51888, Note_off_c, 9, 54, 64
12, 51888, Note_on_c, 9, 70, 94
12, 51888, Note_off_c, 9, 70, 64
12, 51936, Note_on_c, 9, 42, 67
12, 51936, Note_off_c, 9, 42, 64
12, 51936, Note_on_c, 9, 70, 83
12, 51936, Note_off_c, 9, 70, 64
12, 51984, Note_on_c, 9, 38, 112
12, 51984, Note_off_c, 9, 38, 64
12, 51984, Note_on_c, 9, 42, 102
12, 51984, Note_off_c, 9, 42, 64
12, 51984, Note_on_c, 9, 54, 104
12, 51984, Note_off_c, 9, 54, 64
12, 52032, Note_on_c, 9, 42, 66
12, 52032, Note_off_c, 9, 42, 64
12, 52032, Note_on_c, 9, 70, 84
12, 52032, Note_off_c, 9, 70, 64
12, 52080, Note_on_c, 9, 46, 82
12, 52080, Note_off_c, 9, 46, 64
12, 52080, Note_on_c, 9, 54, 63
12, 52080, Note_off_c, 9, 54, 64
12, 52080, Note_on_c, 9, 70, 94
12, 52080, Note_off_c, 9, 70, 64
12, 52128, Note_on_c, 9, 35, 90
12, 52128, Note_off_c, 9, 35, 64
12, 52128, Note_on_c, 9, 70, 83
12, 52128, Note_off_c, 9, 70, 64
12, 52176, Note_on_c, 9, 35, 126
12, 52176, Note_off_c, 9, 35, 64
12, 52176, Note_on_c, 9, 42, 104
12, 52176, Note_off_c, 9, 42, 64
12, 52176, Note_on_c, 9, 54, 70
12, 52176, Note_off_c, 9, 54, 64
12, 52224, Note_on_c, 9, 42, 68
12, 52224, Note_off_c, 9, 42, 64
12, 52224, Note_on_c, 9, 70, 81
12, 52224, Note_off_c, 9, 70, 64
12, 52272, Note_on_c, 9, 46, 83
12, 52272, Note_off_c, 9, 46, 64
12, 52272, Note_on_c, 9, 54, 66
12, 52272, Note_off_c, 9, 54, 64
12, 52272, Note_on_c, 9, 70, 94
12, 52272, Note_off_c, 9, 70, 64
12, 52320, Note_on_c, 9, 70, 89
12, 52320, Note_off_c, 9, 70, 64
12, 52368, Note_on_c, 9, 38, 112
12, 52368, Note_off_c, 9, 38, 64
12, 52368, Note_on_c, 9, 42, 104
12, 52368, Note_off_c, 9, 42, 64
12, 52368, Note_on_c, 9, 54, 98
12, 52368, Note_off_c, 9, 54, 64
12, 52368, Note_on_c, 9, 70, 92
12, 52368, Note_off_c, 9, 70, 64
12, 52416, Note_on_c, 9, 42, 67
12, 52416, Note_off_c, 9, 42, 64
12, 52464, Note_on_c, 9, 42, 93
12, 52464, Note_off_c, 9, 42, 64
12, 52464, Note_on_c, 9, 54, 59
12, 52464, Note_off_c, 9, 54, 64
12, 52464, Note_on_c, 9, 70, 92
12, 52464, Note_off_c, 9, 70, 64
12, 52512, Note_on_c, 9, 35, 90
12, 52512, Note_off_c, 9, 35, 64
12, 52512, Note_on_c, 9, 42, 68
12, 52512, Note_off_c, 9, 42, 64
12, 52512, Note_on_c, 9, 70, 81
12, 52512, Note_off_c, 9, 70, 64
12, 52560, Note_on_c, 9, 38, 112
12, 52560, Note_off_c, 9, 38, 64
12, 52560, Note_on_c, 9, 42, 104
12, 52560, Note_off_c, 9, 42, 64
12, 52560, Note_on_c, 9, 54, 65
12, 52560, Note_off_c, 9, 54, 64
12, 52608, Note_on_c, 9, 38, 90
12, 52608, Note_off_c, 9, 38, 64
12, 52608, Note_on_c, 9, 42, 68
12, 52608, Note_off_c, 9, 42, 64
12, 52608, Note_on_c, 9, 70, 83
12, 52608, Note_off_c, 9, 70, 64
12, 52656, Note_on_c, 9, 35, 100
12, 52656, Note_off_c, 9, 35, 64
12, 52656, Note_on_c, 9, 42, 92
12, 52656, Note_off_c, 9, 42, 64
12, 52656, Note_on_c, 9, 54, 65
12, 52656, Note_off_c, 9, 54, 64
12, 52656, Note_on_c, 9, 70, 94
12, 52656, Note_off_c, 9, 70, 64
12, 52704, Note_on_c, 9, 42, 67
12, 52704, Note_off_c, 9, 42, 64
12, 52704, Note_on_c, 9, 70, 83
12, 52704, Note_off_c, 9, 70, 64
12, 52752, Note_on_c, 9, 38, 112
12, 52752, Note_off_c, 9, 38, 64
12, 52752, Note_on_c, 9, 42, 102
12, 52752, Note_off_c, 9, 42, 64
12, 52752, Note_on_c, 9, 54, 102
12, 52752, Note_off_c, 9, 54, 64
12, 52800, Note_on_c, 9, 42, 66
12, 52800, Note_off_c, 9, 42, 64
12, 52800, Note_on_c, 9, 55, 100
12, 52800, Note_off_c, 9, 55, 64
12, 52800, Note_on_c, 9, 70, 84
12, 52800, Note_off_c, 9, 70, 64
12, 52848, Note_on_c, 9, 43, 82
12, 52848, Note_off_c, 9, 43, 64
12, 52848, Note_on_c, 9, 46, 66
12, 52848, Note_off_c, 9, 46, 64
12, 52848, Note_on_c, 9, 54, 63
12, 52848, Note_off_c, 9, 54, 64
12, 52848, Note_on_c, 9, 70, 94
12, 52848, Note_off_c, 9, 70, 64
12, 52944, Note_on_c, 9, 35, 86
12, 52944, Note_off_c, 9, 35, 64
12, 52944, Note_on_c, 9, 42, 64
12, 52944, Note_off_c, 9, 42, 64
12, 52992, Note_on_c, 9, 42, 51
12, 52992, Note_off_c, 9, 42, 64
12, 53040, Note_on_c, 9, 42, 64
12, 53040, Note_off_c, 9, 42, 64
12, 53088, Note_on_c, 9, 42, 59
12, 53088, Note_off_c, 9, 42, 64
12, 53136, Note_on_c, 9, 28, 72
12, 53136, Note_off_c, 9, 28, 64
12, 53136, Note_on_c, 9, 39, 72
12, 53136, Note_off_c, 9, 39, 64
12, 53136, Note_on_c, 9, 42, 62
12, 53136, Note_off_c, 9, 42, 64
12, 53184, Note_on_c, 9, 42, 54
12, 53184, Note_off_c, 9, 42, 64
12, 53232, Note_on_c, 9, 42, 62
12, 53232, Note_off_c, 9, 42, 64
12, 53280, Note_on_c, 9, 35, 72
12, 53280, Note_off_c, 9, 35, 64
12, 53280, Note_on_c, 9, 42, 51
12, 53280, Note_off_c, 9, 42, 64
12, 53328, Note_on_c, 9, 35, 79
12, 53328, Note_off_c, 9, 35, 64
12, 53328, Note_on_c, 9, 42, 62
12, 53328, Note_off_c, 9, 42, 64
12, 53376, Note_on_c, 9, 42, 53
12, 53376, Note_off_c, 9, 42, 64
12, 53424, Note_on_c, 9, 35, 73
12, 53424, Note_off_c, 9, 35, 64
12, 53424, Note_on_c, 9, 42, 64
12, 53424, Note_off_c, 9, 42, 64
12, 53472, Note_on_c, 9, 42, 53
12, 53472, Note_off_c, 9, 42, 64
12, 53520, Note_on_c, 9, 28, 72
12, 53520, Note_off_c, 9, 28, 64
12, 53520, Note_on_c, 9, 39, 72
12, 53520, Note_off_c, 9, 39, 64
12, 53520, Note_on_c, 9, 42, 62
12, 53520, Note_off_c, 9, 42, 64
12, 53568, Note_on_c, 9, 42, 54
12, 53568, Note_off_c, 9, 42, 64
12, 53616, Note_on_c, 9, 42, 64
12, 53616, Note_off_c, 9, 42, 64
12, 53664, Note_on_c, 9, 35, 72
12, 53664, Note_off_c, 9, 35, 64
12, 53664, Note_on_c, 9, 42, 53
12, 53664, Note_off_c, 9, 42, 64
12, 53712, Note_on_c, 9, 35, 86
12, 53712, Note_off_c, 9, 35, 64
12, 53712, Note_on_c, 9, 42, 64
12, 53712, Note_off_c, 9, 42, 64
12, 53760, Note_on_c, 9, 42, 51
12, 53760, Note_off_c, 9, 42, 64
12, 53808, Note_on_c, 9, 42, 64
12, 53808, Note_off_c, 9, 42, 64
12, 53856, Note_on_c, 9, 42, 59
12, 53856, Note_off_c, 9, 42, 64
12, 53904, Note_on_c, 9, 28, 72
12, 53904, Note_off_c, 9, 28, 64
12, 53904, Note_on_c, 9, 39, 72
12, 53904, Note_off_c, 9, 39, 64
12, 53904, Note_on_c, 9, 42, 62
12, 53904, Note_off_c, 9, 42, 64
12, 53952, Note_on_c, 9, 42, 54
12, 53952, Note_off_c, 9, 42, 64
12, 54000, Note_on_c, 9, 42, 62
12, 54000, Note_off_c, 9, 42, 64
12, 54048, Note_on_c, 9, 35, 72
12, 54048, Note_off_c, 9, 35, 64
12, 54048, Note_on_c, 9, 42, 51
12, 54048, Note_off_c, 9, 42, 64
12, 54096, Note_on_c, 9, 35, 79
12, 54096, Note_off_c, 9, 35, 64
12, 54096, Note_on_c, 9, 42, 62
12, 54096, Note_off_c, 9, 42, 64
12, 54144, Note_on_c, 9, 42, 53
12, 54144, Note_off_c, 9, 42, 64
12, 54192, Note_on_c, 9, 35, 73
12, 54192, Note_off_c, 9, 35, 64
12, 54192, Note_on_c, 9, 42, 64
12, 54192, Note_off_c, 9, 42, 64
12, 54240, Note_on_c, 9, 42, 53
12, 54240, Note_off_c, 9, 42, 64
12, 54288, Note_on_c, 9, 28, 72
12, 54288, Note_off_c, 9, 28, 64
12, 54288, Note_on_c, 9, 39, 72
12, 54288, Note_off_c, 9, 39, 64
12, 54288, Note_on_c, 9, 42, 62
12, 54288, Note_off_c, 9, 42, 64
12, 54336, Note_on_c, 9, 42, 54
12, 54336, Note_off_c, 9, 42, 64
12, 54384, Note_on_c, 9, 42, 64
12, 54384, Note_off_c, 9, 42, 64
12, 54432, Note_on_c, 9, 42, 53
12, 54432, Note_off_c, 9, 42, 64
12, 54480, Note_on_c, 9, 35, 86
12, 54480, Note_off_c, 9, 35, 64
12, 54480, Note_on_c, 9, 42, 64
12, 54480, Note_off_c, 9, 42, 64
12, 54528, Note_on_c, 9, 42, 51
12, 54528, Note_off_c, 9, 42, 64
12, 54576, Note_on_c, 9, 42, 64
12, 54576, Note_off_c, 9, 42, 64
12, 54624, Note_on_c, 9, 42, 59
12, 54624, Note_off_c, 9, 42, 64
12, 54672, Note_on_c, 9, 28, 72
12, 54672, Note_off_c, 9, 28, 64
12, 54672, Note_on_c, 9, 39, 72
12, 54672, Note_off_c, 9, 39, 64
12, 54672, Note_on_c, 9, 42, 62
12, 54672, Note_off_c, 9, 42, 64
12, 54720, Note_on_c, 9, 42, 54
12, 54720, Note_off_c, 9, 42, 64
12, 54768, Note_on_c, 9, 42, 62
12, 54768, Note_off_c, 9, 42, 64
12, 54816, Note_on_c, 9, 35, 72
12, 54816, Note_off_c, 9, 35, 64
12, 54816, Note_on_c, 9, 42, 51
12, 54816, Note_off_c, 9, 42, 64
12, 54864, Note_on_c, 9, 35, 79
12, 54864, Note_off_c, 9, 35, 64
12, 54864, Note_on_c, 9, 42, 62
12, 54864, Note_off_c, 9, 42, 64
12, 54912, Note_on_c, 9, 42, 53
12, 54912, Note_off_c, 9, 42, 64
12, 54960, Note_on_c, 9, 35, 73
12, 54960, Note_off_c, 9, 35, 64
12, 54960, Note_on_c, 9, 42, 64
12, 54960, Note_off_c, 9, 42, 64
12, 55008, Note_on_c, 9, 42, 53
12, 55008, Note_off_c, 9, 42, 64
12, 55056, Note_on_c, 9, 28, 72
12, 55056, Note_off_c, 9, 28, 64
12, 55056, Note_on_c, 9, 39, 72
12, 55056, Note_off_c, 9, 39, 64
12, 55056, Note_on_c, 9, 42, 62
12, 55056, Note_off_c, 9, 42, 64
12, 55104, Note_on_c, 9, 42, 54
12, 55104, Note_off_c, 9, 42, 64
12, 55152, Note_on_c, 9, 42, 64
12, 55152, Note_off_c, 9, 42, 64
12, 55200, Note_on_c, 9, 35, 72
12, 55200, Note_off_c, 9, 35, 64
12, 55200, Note_on_c, 9, 42, 53
12, 55200, Note_off_c, 9, 42, 64
12, 55248, Note_on_c, 9, 35, 86
12, 55248, Note_off_c, 9, 35, 64
12, 55248, Note_on_c, 9, 42, 64
12, 55248, Note_off_c, 9, 42, 64
12, 55296, Note_on_c, 9, 42, 51
12, 55296, Note_off_c, 9, 42, 64
12, 55344, Note_on_c, 9, 42, 64
12, 55344, Note_off_c, 9, 42, 64
12, 55392, Note_on_c, 9, 42, 59
12, 55392, Note_off_c, 9, 42, 64
12, 55440, Note_on_c, 9, 28, 72
12, 55440, Note_off_c, 9, 28, 64
12, 55440, Note_on_c, 9, 39, 72
12, 55440, Note_off_c, 9, 39, 64
12, 55440, Note_on_c, 9, 42, 62
12, 55440, Note_off_c, 9, 42, 64
12, 55488, Note_on_c, 9, 42, 54
12, 55488, Note_off_c, 9, 42, 64
12, 55536, Note_on_c, 9, 42, 62
12, 55536, Note_off_c, 9, 42, 64
12, 55584, Note_on_c, 9, 35, 72
12, 55584, Note_off_c, 9, 35, 64
12, 55584, Note_on_c, 9, 42, 51
12, 55584, Note_off_c, 9, 42, 64
12, 55632, Note_on_c, 9, 35, 79
12, 55632, Note_off_c, 9, 35, 64
12, 55632, Note_on_c, 9, 42, 62
12, 55632, Note_off_c, 9, 42, 64
12, 55680, Note_on_c, 9, 42, 53
12, 55680, Note_off_c, 9, 42, 64
12, 55728, Note_on_c, 9, 35, 73
12, 55728, Note_off_c, 9, 35, 64
12, 55728, Note_on_c, 9, 42, 64
12, 55728, Note_off_c, 9, 42, 64
12, 55776, Note_on_c, 9, 42, 53
12, 55776, Note_off_c, 9, 42, 64
12, 55824, Note_on_c, 9, 28, 72
12, 55824, Note_off_c, 9, 28, 64
12, 55824, Note_on_c, 9, 39, 72
12, 55824, Note_off_c, 9, 39, 64
12, 55824, Note_on_c, 9, 42, 62
12, 55824, Note_off_c, 9, 42, 64
12, 55872, Note_on_c, 9, 42, 54
12, 55872, Note_off_c, 9, 42, 64
12, 55920, Note_on_c, 9, 42, 64
12, 55920, Note_off_c, 9, 42, 64
12, 55968, Note_on_c, 9, 42, 53
12, 55968, Note_off_c, 9, 42, 64
12, 56016, Note_on_c, 9, 35, 86
12, 56016, Note_off_c, 9, 35, 64
12, 56016, Note_on_c, 9, 42, 64
12, 56016, Note_off_c, 9, 42, 64
12, 56064, Note_on_c, 9, 42, 51
12, 56064, Note_off_c, 9, 42, 64
12, 56112, Note_on_c, 9, 42, 64
12, 56112, Note_off_c, 9, 42, 64
12, 56160, Note_on_c, 9, 42, 59
12, 56160, Note_off_c, 9, 42, 64
12, 56208, Note_on_c, 9, 28, 72
12, 56208, Note_off_c, 9, 28, 64
12, 56208, Note_on_c, 9, 39, 72
12, 56208, Note_off_c, 9, 39, 64
12, 56208, Note_on_c, 9, 42, 62
12, 56208, Note_off_c, 9, 42, 64
12, 56256, Note_on_c, 9, 42, 54
12, 56256, Note_off_c, 9, 42, 64
12, 56304, Note_on_c, 9, 42, 62
12, 56304, Note_off_c, 9, 42, 64
12, 56352, Note_on_c, 9, 35, 72
12, 56352, Note_off_c, 9, 35, 64
12, 56352, Note_on_c, 9, 42, 51
12, 56352, Note_off_c, 9, 42, 64
12, 56400, Note_on_c, 9, 35, 79
12, 56400, Note_off_c, 9, 35, 64
12, 56400, Note_on_c, 9, 42, 62
12, 56400, Note_off_c, 9, 42, 64
12, 56448, Note_on_c, 9, 42, 53
12, 56448, Note_off_c, 9, 42, 64
12, 56496, Note_on_c, 9, 35, 73
12, 56496, Note_off_c, 9, 35, 64
12, 56496, Note_on_c, 9, 42, 64
12, 56496, Note_off_c, 9, 42, 64
12, 56544, Note_on_c, 9, 42, 53
12, 56544, Note_off_c, 9, 42, 64
12, 56592, Note_on_c, 9, 28, 72
12, 56592, Note_off_c, 9, 28, 64
12, 56592, Note_on_c, 9, 39, 72
12, 56592, Note_off_c, 9, 39, 64
12, 56592, Note_on_c, 9, 42, 62
12, 56592, Note_off_c, 9, 42, 64
12, 56640, Note_on_c, 9, 42, 54
12, 56640, Note_off_c, 9, 42, 64
12, 56688, Note_on_c, 9, 42, 64
12, 56688, Note_off_c, 9, 42, 64
12, 56736, Note_on_c, 9, 35, 72
12, 56736, Note_off_c, 9, 35, 64
12, 56736, Note_on_c, 9, 42, 53
12, 56736, Note_off_c, 9, 42, 64
12, 56784, Note_on_c, 9, 35, 86
12, 56784, Note_off_c, 9, 35, 64
12, 56784, Note_on_c, 9, 42, 64
12, 56784, Note_off_c, 9, 42, 64
12, 56832, Note_on_c, 9, 42, 51
12, 56832, Note_off_c, 9, 42, 64
12, 56880, Note_on_c, 9, 42, 64
12, 56880, Note_off_c, 9, 42, 64
12, 56928, Note_on_c, 9, 42, 59
12, 56928, Note_off_c, 9, 42, 64
12, 56976, Note_on_c, 9, 28, 72
12, 56976, Note_off_c, 9, 28, 64
12, 56976, Note_on_c, 9, 39, 72
12, 56976, Note_off_c, 9, 39, 64
12, 56976, Note_on_c, 9, 42, 62
12, 56976, Note_off_c, 9, 42, 64
12, 57024, Note_on_c, 9, 42, 54
12, 57024, Note_off_c, 9, 42, 64
12, 57072, Note_on_c, 9, 42, 62
12, 57072, Note_off_c, 9, 42, 64
12, 57120, Note_on_c, 9, 35, 72
12, 57120, Note_off_c, 9, 35, 64
12, 57120, Note_on_c, 9, 42, 51
12, 57120, Note_off_c, 9, 42, 64
12, 57168, Note_on_c, 9, 35, 79
12, 57168, Note_off_c, 9, 35, 64
12, 57168, Note_on_c, 9, 42, 62
12, 57168, Note_off_c, 9, 42, 64
12, 57216, Note_on_c, 9, 42, 53
12, 57216, Note_off_c, 9, 42, 64
12, 57264, Note_on_c, 9, 35, 73
12, 57264, Note_off_c, 9, 35, 64
12, 57264, Note_on_c, 9, 42, 64
12, 57264, Note_off_c, 9, 42, 64
12, 57312, Note_on_c, 9, 42, 53
12, 57312, Note_off_c, 9, 42, 64
12, 57360, Note_on_c, 9, 28, 72
12, 57360, Note_off_c, 9, 28, 64
12, 57360, Note_on_c, 9, 39, 72
12, 57360, Note_off_c, 9, 39, 64
12, 57360, Note_on_c, 9, 42, 62
12, 57360, Note_off_c, 9, 42, 64
12, 57408, Note_on_c, 9, 42, 54
12, 57408, Note_off_c, 9, 42, 64
12, 57456, Note_on_c, 9, 42, 64
12, 57456, Note_off_c, 9, 42, 64
12, 57504, Note_on_c, 9, 42, 53
12, 57504, Note_off_c, 9, 42, 64
12, 57552, Note_on_c, 9, 35, 86
12, 57552, Note_off_c, 9, 35, 64
12, 57552, Note_on_c, 9, 42, 64
12, 57552, Note_off_c, 9, 42, 64
12, 57600, Note_on_c, 9, 42, 51
12, 57600, Note_off_c, 9, 42, 64
12, 57648, Note_on_c, 9, 42, 64
12, 57648, Note_off_c, 9, 42, 64
12, 57696, Note_on_c, 9, 42, 59
12, 57696, Note_off_c, 9, 42, 64
12, 57744, Note_on_c, 9, 28, 72
12, 57744, Note_off_c, 9, 28, 64
12, 57744, Note_on_c, 9, 39, 72
12, 57744, Note_off_c, 9, 39, 64
12, 57744, Note_on_c, 9, 42, 62
12, 57744, Note_off_c, 9, 42, 64
12, 57792, Note_on_c, 9, 42, 54
12, 57792, Note_off_c, 9, 42, 64
12, 57840, Note_on_c, 9, 42, 62
12, 57840, Note_off_c, 9, 42, 64
12, 57888, Note_on_c, 9, 35, 72
12, 57888, Note_off_c, 9, 35, 64
12, 57888, Note_on_c, 9, 42, 51
12, 57888, Note_off_c, 9, 42, 64
12, 57936, Note_on_c, 9, 35, 79
12, 57936, Note_off_c, 9, 35, 64
12, 57936, Note_on_c, 9, 42, 62
12, 57936, Note_off_c, 9, 42, 64
12, 57984, Note_on_c, 9, 42, 53
12, 57984, Note_off_c, 9, 42, 64
12, 58032, Note_on_c, 9, 35, 73
12, 58032, Note_off_c, 9, 35, 64
12, 58032, Note_on_c, 9, 42, 64
12, 58032, Note_off_c, 9, 42, 64
12, 58080, Note_on_c, 9, 42, 53
12, 58080, Note_off_c, 9, 42, 64
12, 58128, Note_on_c, 9, 28, 72
12, 58128, Note_off_c, 9, 28, 64
12, 58128, Note_on_c, 9, 39, 72
12, 58128, Note_off_c, 9, 39, 64
12, 58128, Note_on_c, 9, 42, 62
12, 58128, Note_off_c, 9, 42, 64
12, 58176, Note_on_c, 9, 42, 54
12, 58176, Note_off_c, 9, 42, 64
12, 58224, Note_on_c, 9, 42, 64
12, 58224, Note_off_c, 9, 42, 64
12, 58272, Note_on_c, 9, 35, 72
12, 58272, Note_off_c, 9, 35, 64
12, 58272, Note_on_c, 9, 42, 53
12, 58272, Note_off_c, 9, 42, 64
12, 58320, Note_on_c, 9, 35, 86
12, 58320, Note_off_c, 9, 35, 64
12, 58320, Note_on_c, 9, 42, 64
12, 58320, Note_off_c, 9, 42, 64
12, 58368, Note_on_c, 9, 42, 51
12, 58368, Note_off_c, 9, 42, 64
12, 58416, Note_on_c, 9, 42, 64
12, 58416, Note_off_c, 9, 42, 64
12, 58464, Note_on_c, 9, 42, 59
12, 58464, Note_off_c, 9, 42, 64
12, 58512, Note_on_c, 9, 28, 72
12, 58512, Note_off_c, 9, 28, 64
12, 58512, Note_on_c, 9, 39, 72
12, 58512, Note_off_c, 9, 39, 64
12, 58512, Note_on_c, 9, 42, 62
12, 58512, Note_off_c, 9, 42, 64
12, 58560, Note_on_c, 9, 42, 54
12, 58560, Note_off_c, 9, 42, 64
12, 58608, Note_on_c, 9, 42, 62
12, 58608, Note_off_c, 9, 42, 64
12, 58656, Note_on_c, 9, 35, 72
12, 58656, Note_off_c, 9, 35, 64
12, 58656, Note_on_c, 9, 42, 51
12, 58656, Note_off_c, 9, 42, 64
12, 58704, Note_on_c, 9, 35, 79
12, 58704, Note_off_c, 9, 35, 64
12, 58704, Note_on_c, 9, 42, 62
12, 58704, Note_off_c, 9, 42, 64
12, 58752, Note_on_c, 9, 42, 53
12, 58752, Note_off_c, 9, 42, 64
12, 58800, Note_on_c, 9, 35, 73
12, 58800, Note_off_c, 9, 35, 64
12, 58800, Note_on_c, 9, 42, 64
12, 58800, Note_off_c, 9, 42, 64
12, 58848, Note_on_c, 9, 42, 53
12, 58848, Note_off_c, 9, 42, 64
12, 58896, Note_on_c, 9, 28, 72
12, 58896, Note_off_c, 9, 28, 64
12, 58896, Note_on_c, 9, 39, 72
12, 58896, Note_off_c, 9, 39, 64
12, 58896, Note_on_c, 9, 42, 62
12, 58896, Note_off_c, 9, 42, 64
12, 58944, Note_on_c, 9, 42, 54
12, 58944, Note_off_c, 9, 42, 64
12, 58992, Note_on_c, 9, 42, 64
12, 58992, Note_off_c, 9, 42, 64
12, 59040, Note_on_c, 9, 42, 53
12, 59040, Note_off_c, 9, 42, 64
12, 60288, End_track
13, 0, Start_track
13, 342, Control_c, 10, 121, 0
13, 344, Control_c, 10, 10, 64
13, 346, Control_c, 10, 93, 0
13, 348, Control_c, 10, 91, 40
13, 350, Control_c, 10, 11, 127
13, 352, Control_c, 10, 7, 85
13, 354, Pitch_bend_c, 10, 8192
13, 356, Control_c, 10, 0, 0
13, 358, Program_c, 10, 119
13, 384, Control_c, 10, 99, 1
13, 432, Control_c, 10, 98, 102
13, 480, Control_c, 10, 6, 99
13, 1872, Control_c, 10, 7, 11
13, 1884, Control_c, 10, 7, 13
13, 1896, Control_c, 10, 7, 17
13, 1908, Control_c, 10, 7, 19
13, 1920, Note_on_c, 10, 72, 113
13, 1920, Control_c, 10, 7, 22
13, 1932, Control_c, 10, 7, 25
13, 1944, Control_c, 10, 7, 28
13, 1956, Control_c, 10, 7, 30
13, 1968, Control_c, 10, 7, 34
13, 1980, Control_c, 10, 7, 36
13, 1992, Control_c, 10, 7, 39
13, 2004, Control_c, 10, 7, 42
13, 2016, Control_c, 10, 7, 45
13, 2028, Control_c, 10, 7, 47
13, 2040, Control_c, 10, 7, 51
13, 2052, Control_c, 10, 7, 53
13, 2064, Control_c, 10, 7, 56
13, 2076, Control_c, 10, 7, 59
13, 2088, Control_c, 10, 7, 62
13, 2100, Control_c, 10, 7, 64
13, 2112, Control_c, 10, 7, 68
13, 2124, Control_c, 10, 7, 70
13, 2136, Control_c, 10, 7, 73
13, 2148, Control_c, 10, 7, 76
13, 2160, Control_c, 10, 7, 79
13, 2172, Control_c, 10, 7, 81
13, 2184, Control_c, 10, 7, 84
13, 2196, Control_c, 10, 7, 87
13, 2208, Control_c, 10, 7, 90
13, 2220, Control_c, 10, 7, 92
13, 2232, Control_c, 10, 7, 96
13, 2244, Control_c, 10, 7, 98
13, 2256, Note_off_c, 10, 72, 64
13, 16848, Control_c, 10, 7, 11
13, 16860, Control_c, 10, 7, 13
13, 16872, Control_c, 10, 7, 17
13, 16884, Control_c, 10, 7, 19
13, 16896, Note_on_c, 10, 72, 113
13, 16896, Control_c, 10, 7, 22
13, 16908, Control_c, 10, 7, 25
13, 16920, Control_c, 10, 7, 28
13, 16932, Control_c, 10, 7, 30
13, 16944, Control_c, 10, 7, 34
13, 16956, Control_c, 10, 7, 36
13, 16968, Control_c, 10, 7, 39
13, 16980, Control_c, 10, 7, 42
13, 16992, Control_c, 10, 7, 45
13, 17004, Control_c, 10, 7, 47
13, 17016, Control_c, 10, 7, 51
13, 17028, Control_c, 10, 7, 53
13, 17040, Control_c, 10, 7, 56
13, 17052, Control_c, 10, 7, 59
13, 17064, Control_c, 10, 7, 62
13, 17076, Control_c, 10, 7, 64
13, 17088, Control_c, 10, 7, 68
13, 17100, Control_c, 10, 7, 70
13, 17112, Control_c, 10, 7, 73
13, 17124, Control_c, 10, 7, 76
13, 17136, Control_c, 10, 7, 79
13, 17148, Control_c, 10, 7, 81
13, 17160, Control_c, 10, 7, 84
13, 17172, Control_c, 10, 7, 87
13, 17184, Control_c, 10, 7, 90
13, 17196, Control_c, 10, 7, 92
13, 17208, Control_c, 10, 7, 96
13, 17220, Control_c, 10, 7, 98
13, 17232, Note_off_c, 10, 72, 64
13, 43344, Control_c, 10, 7, 11
13, 43356, Control_c, 10, 7, 13
13, 43368, Control_c, 10, 7, 17
13, 43380, Control_c, 10, 7, 19
13, 43392, Note_on_c, 10, 72, 113
13, 43392, Control_c, 10, 7, 22
13, 43404, Control_c, 10, 7, 25
13, 43416, Control_c, 10, 7, 28
13, 43428, Control_c, 10, 7, 30
13, 43440, Control_c, 10, 7, 34
13, 43452, Control_c, 10, 7, 36
13, 43464, Control_c, 10, 7, 39
13, 43476, Control_c, 10, 7, 42
13, 43488, Control_c, 10, 7, 45
13, 43500, Control_c, 10, 7, 47
13, 43512, Control_c, 10, 7, 51
13, 43524, Control_c, 10, 7, 53
13, 43536, Control_c, 10, 7, 56
13, 43548, Control_c, 10, 7, 59
13, 43560, Control_c, 10, 7, 62
13, 43572, Control_c, 10, 7, 64
13, 43584, Control_c, 10, 7, 68
13, 43596, Control_c, 10, 7, 70
13, 43608, Control_c, 10, 7, 73
13, 43620, Control_c, 10, 7, 76
13, 43632, Control_c, 10, 7, 79
13, 43644, Control_c, 10, 7, 81
13, 43656, Control_c, 10, 7, 84
13, 43668, Control_c, 10, 7, 87
13, 43680, Control_c, 10, 7, 90
13, 43692, Control_c, 10, 7, 92
13, 43704, Control_c, 10, 7, 96
13, 43716, Control_c, 10, 7, 98
13, 43728, Note_off_c, 10, 72, 64
13, 52560, Control_c, 10, 7, 11
13, 52572, Control_c, 10, 7, 13
13, 52584, Control_c, 10, 7, 17
13, 52596, Control_c, 10, 7, 19
13, 52608, Note_on_c, 10, 72, 113
13, 52608, Control_c, 10, 7, 22
13, 52620, Control_c, 10, 7, 25
13, 52632, Control_c, 10, 7, 28
13, 52644, Control_c, 10, 7, 30
13, 52656, Control_c, 10, 7, 34
13, 52668, Control_c, 10, 7, 36
13, 52680, Control_c, 10, 7, 39
13, 52692, Control_c, 10, 7, 42
13, 52704, Control_c, 10, 7, 45
13, 52716, Control_c, 10, 7, 47
13, 52728, Control_c, 10, 7, 51
13, 52740, Control_c, 10, 7, 53
13, 52752, Control_c, 10, 7, 56
13, 52764, Control_c, 10, 7, 59
13, 52776, Control_c, 10, 7, 62
13, 52788, Control_c, 10, 7, 64
13, 52800, Control_c, 10, 7, 68
13, 52812, Control_c, 10, 7, 70
13, 52824, Control_c, 10, 7, 73
13, 52836, Control_c, 10, 7, 76
13, 52848, Control_c, 10, 7, 79
13, 52860, Control_c, 10, 7, 81
13, 52872, Control_c, 10, 7, 84
13, 52884, Control_c, 10, 7, 87
13, 52896, Control_c, 10, 7, 90
13, 52908, Control_c, 10, 7, 92
13, 52920, Control_c, 10, 7, 96
13, 52932, Control_c, 10, 7, 98
13, 52944, Note_off_c, 10, 72, 64
13, 58704, Control_c, 10, 7, 11
13, 58716, Control_c, 10, 7, 13
13, 58728, Control_c, 10, 7, 17
13, 58740, Control_c, 10, 7, 19
13, 58752, Control_c, 10, 7, 22
13, 58764, Control_c, 10, 7, 25
13, 58776, Control_c, 10, 7, 28
13, 58788, Control_c, 10, 7, 30
13, 58800, Note_on_c, 10, 72, 113
13, 58800, Control_c, 10, 7, 34
13, 58812, Control_c, 10, 7, 36
13, 58824, Control_c, 10, 7, 39
13, 58836, Control_c, 10, 7, 42
13, 58848, Control_c, 10, 7, 45
13, 58860, Control_c, 10, 7, 47
13, 58872, Control_c, 10, 7, 51
13, 58884, Control_c, 10, 7, 53
13, 58896, Control_c, 10, 7, 56
13, 58908, Control_c, 10, 7, 59
13, 58920, Control_c, 10, 7, 62
13, 58932, Control_c, 10, 7, 64
13, 58944, Control_c, 10, 7, 68
13, 58956, Control_c, 10, 7, 70
13, 58968, Control_c, 10, 7, 73
13, 58980, Control_c, 10, 7, 76
13, 58992, Control_c, 10, 7, 79
13, 59004, Control_c, 10, 7, 81
13, 59016, Control_c, 10, 7, 84
13, 59028, Control_c, 10, 7, 87
13, 59040, Control_c, 10, 7, 90
13, 59052, Control_c, 10, 7, 92
13, 59064, Control_c, 10, 7, 96
13, 59076, Control_c, 10, 7, 98
13, 59088, Note_off_c, 10, 72, 64
13, 60288, End_track
14, 0, Start_track
14, 342, Control_c, 11, 121, 0
14, 344, Control_c, 11, 10, 64
14, 346, Control_c, 11, 93, 0
14, 348, Control_c, 11, 91, 40
14, 350, Control_c, 11, 11, 127
14, 352, Control_c, 11, 7, 85
14, 354, Pitch_bend_c, 11, 8192
14, 356, Control_c, 11, 0, 0
14, 358, Program_c, 11, 0
14, 384, Control_c, 11, 99, 1
14, 432, Control_c, 11, 98, 32
14, 480, Control_c, 11, 6, 74
14, 8016, Note_on_c, 11, 28, 98
14, 8016, Note_on_c, 11, 40, 103
14, 8112, Note_on_c, 11, 50, 96
14, 8208, Note_on_c, 11, 56, 108
14, 8304, Note_on_c, 11, 59, 102
14, 8400, Note_off_c, 11, 28, 64
14, 8400, Note_off_c, 11, 40, 64
14, 8400, Note_on_c, 11, 45, 88
14, 8400, Note_off_c, 11, 50, 64
14, 8400, Note_off_c, 11, 56, 64
14, 8400, Note_off_c, 11, 59, 64
14, 8400, Note_on_c, 11, 60, 87
14, 8496, Note_on_c, 11, 57, 87
14, 8592, Note_off_c, 11, 60, 64
14, 8592, Note_on_c, 11, 60, 87
14, 8688, Note_on_c, 11, 64, 89
14, 8784, Note_off_c, 11, 45, 64
14, 8784, Note_on_c, 11, 54, 89
14, 8784, Note_off_c, 11, 57, 64
14, 8784, Note_off_c, 11, 60, 64
14, 8784, Note_off_c, 11, 64, 64
14, 8784, Note_on_c, 11, 76, 107
14, 8880, Note_on_c, 11, 57, 89
14, 8976, Note_on_c, 11, 60, 87
14, 9072, Note_on_c, 11, 64, 89
14, 9168, Note_on_c, 11, 47, 89
14, 9168, Note_off_c, 11, 54, 64
14, 9168, Note_off_c, 11, 57, 64
14, 9168, Note_off_c, 11, 60, 64
14, 9168, Note_off_c, 11, 64, 64
14, 9168, Note_on_c, 11, 71, 107
14, 9168, Note_off_c, 11, 76, 64
14, 9264, Note_on_c, 11, 53, 89
14, 9360, Note_on_c, 11, 57, 89
14, 9456, Note_on_c, 11, 62, 87
14, 9552, Note_off_c, 11, 47, 64
14, 9552, Note_on_c, 11, 52, 88
14, 9552, Note_off_c, 11, 53, 64
14, 9552, Note_off_c, 11, 57, 64
14, 9552, Note_off_c, 11, 62, 64
14, 9552, Note_off_c, 11, 71, 64
14, 9552, Note_on_c, 11, 76, 107
14, 9648, Note_on_c, 11, 56, 87
14, 9744, Note_on_c, 11, 62, 88
14, 9840, Note_on_c, 11, 64, 87
14, 9936, Note_on_c, 11, 45, 88
14, 9936, Note_off_c, 11, 52, 64
14, 9936, Note_off_c, 11, 56, 64
14, 9936, Note_off_c, 11, 62, 64
14, 9936, Note_off_c, 11, 64, 64
14, 9936, Note_off_c, 11, 76, 64
14, 9936, Note_on_c, 11, 76, 107
14, 10032, Note_on_c, 11, 52, 87
14, 10128, Note_on_c, 11, 59, 87
14, 10224, Note_off_c, 11, 59, 64
14, 10224, Note_on_c, 11, 60, 89
14, 10320, Note_off_c, 11, 45, 64
14, 10320, Note_on_c, 11, 48, 89
14, 10320, Note_off_c, 11, 52, 64
14, 10320, Note_off_c, 11, 60, 64
14, 10416, Note_on_c, 11, 57, 89
14, 10512, Note_on_c, 11, 63, 87
14, 10512, Note_off_c, 11, 76, 64
14, 10512, Note_on_c, 11, 81, 107
14, 10608, Note_on_c, 11, 67, 89
14, 10704, Note_on_c, 11, 47, 89
14, 10704, Note_off_c, 11, 48, 64
14, 10704, Note_off_c, 11, 57, 64
14, 10704, Note_off_c, 11, 63, 64
14, 10704, Note_off_c, 11, 67, 64
14, 10800, Note_on_c, 11, 53, 89
14, 10896, Note_on_c, 11, 57, 89
14, 10896, Note_on_c, 11, 77, 107
14, 10896, Note_off_c, 11, 81, 64
14, 10992, Note_on_c, 11, 62, 87
14, 11088, Note_off_c, 11, 47, 64
14, 11088, Note_on_c, 11, 52, 88
14, 11088, Note_off_c, 11, 53, 64
14, 11088, Note_off_c, 11, 57, 64
14, 11088, Note_off_c, 11, 62, 64
14, 11184, Note_on_c, 11, 56, 87
14, 11280, Note_on_c, 11, 62, 88
14, 11280, Note_off_c, 11, 77, 64
14, 11376, Note_on_c, 11, 64, 87
14, 11472, Note_on_c, 11, 45, 88
14, 11472, Note_off_c, 11, 52, 64
14, 11472, Note_off_c, 11, 56, 64
14, 11472, Note_off_c, 11, 62, 64
14, 11472, Note_off_c, 11, 64, 64
14, 11568, Note_on_c, 11, 52, 87
14, 11664, Note_on_c, 11, 59, 87
14, 11664, Note_on_c, 11, 76, 107
14, 11760, Note_off_c, 11, 59, 64
14, 11760, Note_on_c, 11, 60, 89
14, 11856, Note_off_c, 11, 45, 64
14, 11856, Note_off_c, 11, 52, 64
14, 11856, Note_on_c, 11, 54, 89
14, 11856, Note_off_c, 11, 60, 64
14, 11952, Note_on_c, 11, 57, 89
14, 12048, Note_on_c, 11, 69, 87
14, 12048, Note_off_c, 11, 76, 64
14, 12048, Note_on_c, 11, 81, 107
14, 12144, Note_on_c, 11, 64, 89
14, 12240, Note_on_c, 11, 47, 89
14, 12240, Note_off_c, 11, 54, 64
14, 12240, Note_off_c, 11, 57, 64
14, 12240, Note_off_c, 11, 64, 64
14, 12240, Note_off_c, 11, 69, 64
14, 12336, Note_on_c, 11, 53, 89
14, 12432, Note_on_c, 11, 57, 89
14, 12432, Note_off_c, 11, 81, 64
14, 12528, Note_on_c, 11, 62, 87
14, 12624, Note_off_c, 11, 47, 64
14, 12624, Note_on_c, 11, 52, 88
14, 12624, Note_off_c, 11, 53, 64
14, 12624, Note_off_c, 11, 57, 64
14, 12624, Note_off_c, 11, 62, 64
14, 12720, Note_on_c, 11, 56, 87
14, 12816, Note_on_c, 11, 62, 88
14, 12912, Note_on_c, 11, 64, 87
14, 13008, Note_on_c, 11, 42, 88
14, 13008, Note_off_c, 11, 52, 64
14, 13008, Note_off_c, 11, 56, 64
14, 13008, Note_off_c, 11, 62, 64
14, 13008, Note_off_c, 11, 64, 64
14, 13104, Note_on_c, 11, 49, 90
14, 13200, Note_on_c, 11, 56, 88
14, 13296, Note_off_c, 11, 56, 64
14, 13296, Note_on_c, 11, 57, 90
14, 13392, Note_on_c, 11, 61, 88
14, 13488, Note_on_c, 11, 56, 88
14, 13488, Note_off_c, 11, 57, 64
14, 13584, Note_off_c, 11, 56, 64
14, 13584, Note_on_c, 11, 57, 90
14, 13680, Note_off_c, 11, 61, 64
14, 13680, Note_on_c, 11, 61, 90
14, 13776, Note_off_c, 11, 42, 64
14, 13776, Note_on_c, 11, 47, 90
14, 13776, Note_off_c, 11, 49, 64
14, 13776, Note_off_c, 11, 57, 64
14, 13776, Note_off_c, 11, 61, 64
14, 13872, Note_on_c, 11, 62, 88
14, 13968, Note_on_c, 11, 66, 88
14, 14064, Note_on_c, 11, 68, 90
14, 14160, Note_off_c, 11, 47, 64
14, 14160, Note_on_c, 11, 49, 90
14, 14160, Note_off_c, 11, 62, 64
14, 14160, Note_off_c, 11, 66, 64
14, 14160, Note_off_c, 11, 68, 64
14, 14256, Note_on_c, 11, 57, 90
14, 14352, Note_on_c, 11, 64, 90
14, 14448, Note_on_c, 11, 67, 88
14, 14544, Note_off_c, 11, 49, 64
14, 14544, Note_on_c, 11, 50, 88
14, 14544, Note_off_c, 11, 57, 64
14, 14544, Note_off_c, 11, 64, 64
14, 14544, Note_off_c, 11, 67, 64
14, 14640, Note_on_c, 11, 57, 88
14, 14736, Note_on_c, 11, 62, 92
14, 14832, Note_on_c, 11, 66, 90
14, 14928, Note_on_c, 11, 49, 90
14, 14928, Note_off_c, 11, 50, 64
14, 14928, Note_off_c, 11, 57, 64
14, 14928, Note_off_c, 11, 62, 64
14, 14928, Note_off_c, 11, 66, 64
14, 15024, Note_on_c, 11, 57, 88
14, 15120, Note_on_c, 11, 61, 87
14, 15216, Note_on_c, 11, 66, 88
14, 15312, Note_on_c, 11, 47, 92
14, 15312, Note_off_c, 11, 49, 64
14, 15312, Note_off_c, 11, 57, 64
14, 15312, Note_off_c, 11, 61, 64
14, 15312, Note_off_c, 11, 66, 64
14, 15408, Note_on_c, 11, 59, 90
14, 15504, Note_on_c, 11, 62, 92
14, 15600, Note_on_c, 11, 68, 88
14, 15696, Note_off_c, 11, 47, 64
14, 15696, Note_on_c, 11, 56, 80
14, 15696, Note_off_c, 11, 59, 64
14, 15696, Note_off_c, 11, 62, 64
14, 15696, Note_off_c, 11, 68, 64
14, 15792, Note_on_c, 11, 62, 85
14, 15888, Note_on_c, 11, 66, 88
14, 15984, Note_on_c, 11, 71, 92
14, 16080, Note_on_c, 11, 52, 90
14, 16080, Note_off_c, 11, 56, 64
14, 16080, Note_off_c, 11, 62, 64
14, 16080, Note_off_c, 11, 66, 64
14, 16080, Note_off_c, 11, 71, 64
14, 16176, Note_on_c, 11, 59, 83
14, 16272, Note_on_c, 11, 64, 92
14, 16368, Note_on_c, 11, 68, 80
14, 16464, Note_on_c, 11, 50, 94
14, 16464, Note_off_c, 11, 52, 64
14, 16464, Note_off_c, 11, 59, 64
14, 16464, Note_off_c, 11, 64, 64
14, 16464, Note_off_c, 11, 68, 64
14, 16559, Note_on_c, 11, 57, 88
14, 16656, Note_on_c, 11, 60, 92
14, 16752, Note_on_c, 11, 65, 86
14, 16847, Note_on_c, 11, 43, 92
14, 16847, Note_off_c, 11, 57, 64
14, 16848, Note_off_c, 11, 65, 0
14, 16848, Note_off_c, 11, 60, 0
14, 16848, Note_off_c, 11, 50, 0
14, 16944, Note_on_c, 11, 57, 88
14, 17040, Note_on_c, 11, 60, 87
14, 17135, Note_on_c, 11, 65, 83
14, 17231, Note_off_c, 11, 43, 64
14, 17231, Note_off_c, 11, 65, 64
14, 17232, Note_on_c, 11, 36, 83
14, 17232, Note_on_c, 11, 48, 72
14, 17232, Note_on_c, 11, 55, 71
14, 17232, Note_off_c, 11, 57, 64
14, 17232, Note_off_c, 11, 60, 64
14, 17232, Note_on_c, 11, 60, 81
14, 17232, Note_on_c, 11, 64, 82
14, 17257, Control_c, 11, 64, 127
14, 17332, Note_off_c, 11, 48, 64
14, 17418, Note_off_c, 11, 60, 64
14, 17423, Note_on_c, 11, 48, 78
14, 17425, Note_off_c, 11, 55, 64
14, 17425, Note_off_c, 11, 64, 64
14, 17520, Note_off_c, 11, 36, 64
14, 17520, Note_on_c, 11, 55, 75
14, 17535, Note_off_c, 11, 48, 64
14, 17598, Note_off_c, 11, 55, 64
14, 17616, Note_on_c, 11, 40, 75
14, 17616, Note_on_c, 11, 52, 75
14, 17616, Note_on_c, 11, 55, 82
14, 17616, Note_on_c, 11, 60, 85
14, 17616, Note_on_c, 11, 67, 83
14, 17641, Control_c, 11, 64, 0
14, 17693, Control_c, 11, 64, 127
14, 17718, Note_off_c, 11, 52, 64
14, 17801, Note_off_c, 11, 55, 64
14, 17807, Note_on_c, 11, 52, 75
14, 17873, Note_off_c, 11, 40, 64
14, 17900, Note_off_c, 11, 67, 64
14, 17901, Note_off_c, 11, 60, 64
14, 17904, Note_on_c, 11, 55, 58
14, 17911, Note_off_c, 11, 52, 64
14, 17968, Note_off_c, 11, 55, 64
14, 18000, Note_on_c, 11, 43, 80
14, 18000, Note_on_c, 11, 55, 62
14, 18000, Note_on_c, 11, 59, 78
14, 18000, Note_on_c, 11, 62, 91
14, 18011, Control_c, 11, 64, 0
14, 18057, Control_c, 11, 64, 127
14, 18131, Note_off_c, 11, 55, 64
14, 18192, Note_on_c, 11, 55, 63
14, 18208, Note_off_c, 11, 62, 64
14, 18217, Note_off_c, 11, 59, 64
14, 18287, Note_on_c, 11, 59, 78
14, 18326, Note_off_c, 11, 55, 64
14, 18364, Note_off_c, 11, 59, 64
14, 18384, Note_on_c, 11, 55, 64
14, 18384, Note_on_c, 11, 59, 82
14, 18384, Note_on_c, 11, 62, 75
14, 18384, Note_on_c, 11, 67, 86
14, 18398, Note_off_c, 11, 62, 64
14, 18464, Note_off_c, 11, 55, 64
14, 18554, Note_off_c, 11, 59, 64
14, 18575, Note_on_c, 11, 55, 72
14, 18647, Note_off_c, 11, 55, 64
14, 18651, Note_off_c, 11, 43, 64
14, 18672, Note_on_c, 11, 59, 86
14, 18683, Note_off_c, 11, 67, 64
14, 18756, Note_off_c, 11, 59, 64
14, 18768, Note_on_c, 11, 38, 87
14, 18768, Note_on_c, 11, 50, 80
14, 18768, Note_on_c, 11, 57, 83
14, 18768, Note_on_c, 11, 62, 75
14, 18768, Note_on_c, 11, 65, 78
14, 18810, Control_c, 11, 64, 0
14, 18823, Control_c, 11, 64, 127
14, 18860, Note_off_c, 11, 62, 0
14, 18889, Note_off_c, 11, 50, 64
14, 18960, Note_on_c, 11, 50, 85
14, 18962, Note_off_c, 11, 57, 64
14, 19025, Note_off_c, 11, 65, 64
14, 19056, Note_on_c, 11, 57, 72
14, 19056, Note_on_c, 11, 65, 53
14, 19078, Note_off_c, 11, 38, 64
14, 19082, Note_off_c, 11, 50, 64
14, 19090, Note_off_c, 11, 57, 64
14, 19101, Note_off_c, 11, 65, 64
14, 19152, Note_on_c, 11, 41, 81
14, 19152, Note_on_c, 11, 53, 76
14, 19152, Note_on_c, 11, 57, 75
14, 19152, Note_on_c, 11, 62, 86
14, 19174, Control_c, 11, 64, 0
14, 19207, Control_c, 11, 64, 127
14, 19250, Note_off_c, 11, 53, 64
14, 19335, Note_off_c, 11, 62, 64
14, 19344, Note_on_c, 11, 53, 86
14, 19346, Note_off_c, 11, 57, 64
14, 19439, Note_on_c, 11, 57, 85
14, 19506, Note_off_c, 11, 57, 64
14, 19508, Note_off_c, 11, 41, 64
14, 19519, Note_off_c, 11, 53, 64
14, 19535, Note_on_c, 11, 57, 72
14, 19535, Note_on_c, 11, 60, 82
14, 19535, Note_on_c, 11, 64, 81
14, 19536, Note_on_c, 11, 45, 75
14, 19550, Control_c, 11, 64, 0
14, 19577, Control_c, 11, 64, 127
14, 19859, Note_off_c, 11, 57, 64
14, 19877, Note_off_c, 11, 60, 64
14, 19877, Note_off_c, 11, 64, 64
14, 19920, Note_on_c, 11, 57, 78
14, 19920, Note_on_c, 11, 60, 76
14, 19920, Note_on_c, 11, 64, 86
14, 20054, Note_off_c, 11, 45, 64
14, 20111, Note_on_c, 11, 45, 65
14, 20111, Note_on_c, 11, 62, 76
14, 20118, Note_off_c, 11, 64, 64
14, 20159, Note_off_c, 11, 60, 64
14, 20208, Note_on_c, 11, 60, 82
14, 20235, Note_off_c, 11, 57, 64
14, 20241, Note_off_c, 11, 45, 64
14, 20243, Note_off_c, 11, 62, 64
14, 20304, Note_on_c, 11, 40, 81
14, 20304, Note_on_c, 11, 55, 75
14, 20304, Note_on_c, 11, 59, 78
14, 20304, Note_off_c, 11, 60, 64
14, 20304, Note_on_c, 11, 64, 87
14, 20323, Control_c, 11, 64, 0
14, 20349, Control_c, 11, 64, 127
14, 20491, Note_off_c, 11, 64, 64
14, 20496, Note_on_c, 11, 52, 72
14, 20503, Note_off_c, 11, 55, 64
14, 20512, Note_off_c, 11, 59, 64
14, 20592, Note_on_c, 11, 55, 81
14, 20648, Note_off_c, 11, 55, 64
14, 20687, Note_on_c, 11, 55, 67
14, 20687, Note_on_c, 11, 59, 80
14, 20687, Note_on_c, 11, 67, 85
14, 20688, Note_on_c, 11, 64, 53
14, 20822, Note_off_c, 11, 52, 64
14, 20879, Note_on_c, 11, 52, 76
14, 20886, Note_off_c, 11, 55, 64
14, 20918, Note_off_c, 11, 64, 64
14, 20953, Note_off_c, 11, 67, 64
14, 20976, Note_on_c, 11, 55, 78
14, 20989, Note_off_c, 11, 59, 64
14, 21030, Note_off_c, 11, 55, 64
14, 21038, Note_off_c, 11, 40, 64
14, 21051, Note_off_c, 11, 52, 64
14, 21072, Note_on_c, 11, 45, 87
14, 21072, Note_on_c, 11, 53, 56
14, 21072, Note_on_c, 11, 60, 77
14, 21072, Note_on_c, 11, 65, 85
14, 21090, Control_c, 11, 64, 0
14, 21122, Control_c, 11, 64, 127
14, 21268, Note_off_c, 11, 53, 64
14, 21353, Note_off_c, 11, 60, 64
14, 21360, Note_on_c, 11, 53, 41
14, 21370, Note_off_c, 11, 65, 64
14, 21384, Note_off_c, 11, 53, 64
14, 21409, Note_off_c, 11, 45, 64
14, 21455, Note_on_c, 11, 47, 86
14, 21456, Note_on_c, 11, 55, 83
14, 21456, Note_on_c, 11, 62, 73
14, 21456, Note_on_c, 11, 67, 76
14, 21472, Control_c, 11, 64, 0
14, 21499, Control_c, 11, 64, 127
14, 21614, Note_off_c, 11, 62, 64
14, 21647, Note_on_c, 11, 62, 75
14, 21724, Note_off_c, 11, 47, 64
14, 21780, Note_off_c, 11, 67, 64
14, 21795, Note_off_c, 11, 55, 64
14, 21804, Note_off_c, 11, 62, 64
14, 21839, Note_on_c, 11, 60, 73
14, 21839, Note_on_c, 11, 64, 78
14, 21840, Note_on_c, 11, 36, 85
14, 21840, Note_on_c, 11, 48, 76
14, 21840, Note_on_c, 11, 55, 49
14, 21840, Note_on_c, 11, 62, 53
14, 21862, Control_c, 11, 64, 0
14, 21882, Control_c, 11, 64, 127
14, 21973, Note_off_c, 11, 48, 64
14, 22032, Note_on_c, 11, 48, 73
14, 22055, Note_off_c, 11, 55, 64
14, 22099, Note_off_c, 11, 48, 64
14, 22102, Note_off_c, 11, 36, 64
14, 22128, Note_on_c, 11, 55, 73
14, 22134, Note_off_c, 11, 60, 64
14, 22172, Note_off_c, 11, 62, 64
14, 22192, Note_off_c, 11, 55, 64
14, 22202, Note_off_c, 11, 64, 64
14, 22224, Note_on_c, 11, 40, 82
14, 22224, Note_on_c, 11, 52, 71
14, 22224, Note_on_c, 11, 55, 67
14, 22224, Note_on_c, 11, 60, 80
14, 22224, Note_on_c, 11, 64, 83
14, 22252, Control_c, 11, 64, 0
14, 22279, Control_c, 11, 64, 127
14, 22415, Note_off_c, 11, 55, 64
14, 22448, Note_off_c, 11, 40, 64
14, 22462, Note_off_c, 11, 52, 64
14, 22512, Note_on_c, 11, 55, 62
14, 22531, Note_off_c, 11, 60, 64
14, 22545, Note_off_c, 11, 55, 64
14, 22551, Note_off_c, 11, 64, 64
14, 22608, Note_on_c, 11, 42, 82
14, 22608, Note_on_c, 11, 54, 72
14, 22608, Note_on_c, 11, 57, 66
14, 22608, Note_on_c, 11, 60, 41
14, 22608, Note_on_c, 11, 64, 93
14, 22643, Control_c, 11, 64, 0
14, 22676, Control_c, 11, 64, 127
14, 22762, Note_off_c, 11, 54, 64
14, 22800, Note_on_c, 11, 54, 41
14, 22869, Note_off_c, 11, 42, 64
14, 22870, Note_off_c, 11, 60, 64
14, 22882, Note_off_c, 11, 54, 64
14, 22882, Note_off_c, 11, 57, 64
14, 22883, Note_off_c, 11, 64, 64
14, 22991, Note_on_c, 11, 44, 85
14, 22991, Note_on_c, 11, 56, 70
14, 22992, Note_on_c, 11, 59, 85
14, 22992, Note_on_c, 11, 64, 86
14, 23026, Control_c, 11, 64, 0
14, 23052, Control_c, 11, 64, 127
14, 23182, Note_off_c, 11, 56, 64
14, 23280, Note_off_c, 11, 44, 64
14, 23299, Note_off_c, 11, 59, 64
14, 23307, Note_off_c, 11, 64, 64
14, 23375, Note_on_c, 11, 64, 80
14, 23376, Note_on_c, 11, 45, 87
14, 23376, Note_on_c, 11, 57, 82
14, 23376, Note_on_c, 11, 60, 83
14, 23389, Control_c, 11, 64, 0
14, 23415, Control_c, 11, 64, 127
14, 23553, Note_off_c, 11, 57, 64
14, 23664, Note_on_c, 11, 57, 71
14, 23743, Note_off_c, 11, 57, 64
14, 23751, Note_off_c, 11, 60, 64
14, 23760, Note_on_c, 11, 57, 62
14, 23760, Note_on_c, 11, 60, 52
14, 23760, Note_on_c, 11, 69, 72
14, 23875, Note_off_c, 11, 69, 64
14, 23922, Note_off_c, 11, 60, 64
14, 23925, Note_off_c, 11, 57, 64
14, 23940, Note_off_c, 11, 64, 64
14, 23952, Note_on_c, 11, 57, 67
14, 23952, Note_on_c, 11, 60, 83
14, 23952, Note_on_c, 11, 64, 72
14, 24027, Note_off_c, 11, 45, 64
14, 24031, Note_off_c, 11, 64, 64
14, 24036, Note_off_c, 11, 57, 64
14, 24038, Note_off_c, 11, 60, 64
14, 24144, Note_on_c, 11, 50, 83
14, 24144, Note_on_c, 11, 53, 81
14, 24144, Note_on_c, 11, 58, 83
14, 24144, Note_on_c, 11, 62, 85
14, 24144, Note_on_c, 11, 65, 75
14, 24162, Control_c, 11, 64, 0
14, 24201, Control_c, 11, 64, 127
14, 24383, Note_off_c, 11, 50, 64
14, 24412, Note_off_c, 11, 65, 64
14, 24413, Note_off_c, 11, 62, 64
14, 24416, Note_off_c, 11, 53, 64
14, 24450, Note_off_c, 11, 58, 64
14, 24527, Note_on_c, 11, 40, 83
14, 24527, Note_on_c, 11, 52, 77
14, 24528, Note_on_c, 11, 55, 56
14, 24528, Note_on_c, 11, 60, 78
14, 24528, Note_on_c, 11, 64, 73
14, 24558, Control_c, 11, 64, 0
14, 24584, Control_c, 11, 64, 127
14, 24770, Note_off_c, 11, 40, 64
14, 24780, Note_off_c, 11, 52, 64
14, 24792, Note_off_c, 11, 64, 64
14, 24798, Note_off_c, 11, 55, 64
14, 24800, Note_off_c, 11, 60, 64
14, 24912, Note_on_c, 11, 41, 82
14, 24912, Note_on_c, 11, 53, 82
14, 24912, Note_on_c, 11, 57, 78
14, 24912, Note_on_c, 11, 60, 81
14, 24912, Note_on_c, 11, 65, 85
14, 24941, Control_c, 11, 64, 0
14, 24967, Control_c, 11, 64, 127
14, 25046, Note_off_c, 11, 53, 64
14, 25104, Note_on_c, 11, 53, 83
14, 25110, Note_off_c, 11, 57, 64
14, 25196, Note_off_c, 11, 53, 64
14, 25200, Note_on_c, 11, 57, 80
14, 25211, Note_off_c, 11, 41, 64
14, 25215, Note_off_c, 11, 60, 64
14, 25247, Note_off_c, 11, 57, 64
14, 25270, Note_off_c, 11, 65, 64
14, 25296, Note_on_c, 11, 40, 65
14, 25296, Note_on_c, 11, 52, 73
14, 25296, Note_on_c, 11, 55, 71
14, 25296, Note_on_c, 11, 60, 75
14, 25296, Note_on_c, 11, 64, 85
14, 25311, Control_c, 11, 64, 0
14, 25351, Control_c, 11, 64, 127
14, 25442, Note_off_c, 11, 52, 64
14, 25488, Note_on_c, 11, 52, 48
14, 25518, Note_off_c, 11, 52, 64
14, 25545, Note_off_c, 11, 55, 64
14, 25557, Note_off_c, 11, 64, 64
14, 25562, Note_off_c, 11, 60, 64
14, 25583, Note_on_c, 11, 52, 50
14, 25620, Note_off_c, 11, 40, 64
14, 25636, Note_off_c, 11, 52, 64
14, 25679, Note_on_c, 11, 47, 86
14, 25679, Note_on_c, 11, 53, 83
14, 25679, Note_on_c, 11, 57, 81
14, 25679, Note_on_c, 11, 62, 88
14, 25695, Control_c, 11, 64, 0
14, 25728, Control_c, 11, 64, 127
14, 25847, Note_off_c, 11, 53, 64
14, 25872, Note_on_c, 11, 53, 71
14, 25904, Note_off_c, 11, 53, 64
14, 25967, Note_on_c, 11, 53, 55
14, 25977, Note_off_c, 11, 62, 64
14, 25989, Note_off_c, 11, 57, 64
14, 26003, Note_off_c, 11, 53, 64
14, 26043, Note_off_c, 11, 47, 64
14, 26063, Note_on_c, 11, 40, 73
14, 26063, Note_on_c, 11, 52, 71
14, 26064, Note_on_c, 11, 56, 83
14, 26064, Note_on_c, 11, 62, 97
14, 26064, Note_on_c, 11, 64, 86
14, 26078, Control_c, 11, 64, 0
14, 26111, Control_c, 11, 64, 127
14, 26134, Note_off_c, 11, 52, 64
14, 26256, Note_on_c, 11, 52, 82
14, 26261, Note_off_c, 11, 56, 64
14, 26351, Note_on_c, 11, 56, 71
14, 26387, Note_off_c, 11, 64, 64
14, 26392, Note_off_c, 11, 62, 64
14, 26395, Note_off_c, 11, 56, 64
14, 26416, Note_off_c, 11, 52, 64
14, 26428, Note_off_c, 11, 40, 64
14, 26448, Control_c, 11, 64, 0
14, 33744, Note_on_c, 11, 28, 98
14, 33744, Note_on_c, 11, 40, 103
14, 33840, Note_on_c, 11, 50, 96
14, 33936, Note_on_c, 11, 56, 108
14, 34032, Note_on_c, 11, 59, 102
14, 34128, Note_off_c, 11, 28, 64
14, 34128, Note_off_c, 11, 40, 64
14, 34128, Note_on_c, 11, 45, 88
14, 34128, Note_off_c, 11, 50, 64
14, 34128, Note_off_c, 11, 56, 64
14, 34128, Note_off_c, 11, 59, 64
14, 34128, Note_on_c, 11, 60, 87
14, 34224, Note_on_c, 11, 57, 87
14, 34320, Note_off_c, 11, 60, 64
14, 34320, Note_on_c, 11, 60, 87
14, 34416, Note_on_c, 11, 64, 89
14, 34511, Note_on_c, 11, 72, 104
14, 34512, Note_off_c, 11, 45, 64
14, 34512, Note_on_c, 11, 54, 89
14, 34512, Note_off_c, 11, 57, 64
14, 34512, Note_off_c, 11, 60, 64
14, 34512, Note_off_c, 11, 64, 64
14, 34512, Note_on_c, 11, 81, 97
14, 34608, Note_on_c, 11, 57, 89
14, 34704, Note_on_c, 11, 60, 87
14, 34800, Note_on_c, 11, 64, 89
14, 34855, Note_off_c, 11, 81, 0
14, 34865, Note_off_c, 11, 72, 0
14, 34896, Note_on_c, 11, 47, 89
14, 34896, Note_off_c, 11, 54, 64
14, 34896, Note_off_c, 11, 57, 64
14, 34896, Note_off_c, 11, 60, 64
14, 34896, Note_off_c, 11, 64, 64
14, 34992, Note_on_c, 11, 53, 89
14, 35083, Note_on_c, 11, 71, 107
14, 35088, Note_on_c, 11, 57, 89
14, 35089, Note_on_c, 11, 77, 104
14, 35184, Note_on_c, 11, 62, 87
14, 35265, Note_off_c, 11, 77, 64
14, 35279, Note_on_c, 11, 76, 103
14, 35280, Note_off_c, 11, 47, 64
14, 35280, Note_on_c, 11, 52, 88
14, 35280, Note_off_c, 11, 53, 64
14, 35280, Note_off_c, 11, 57, 64
14, 35280, Note_off_c, 11, 62, 64
14, 35281, Note_on_c, 11, 68, 103
14, 35293, Note_off_c, 11, 71, 64
14, 35376, Note_on_c, 11, 56, 87
14, 35472, Note_on_c, 11, 62, 88
14, 35568, Note_on_c, 11, 64, 87
14, 35645, Note_off_c, 11, 68, 64
14, 35648, Note_off_c, 11, 76, 64
14, 35664, Note_on_c, 11, 45, 88
14, 35664, Note_off_c, 11, 52, 64
14, 35664, Note_off_c, 11, 56, 64
14, 35664, Note_off_c, 11, 62, 64
14, 35664, Note_off_c, 11, 64, 64
14, 35760, Note_on_c, 11, 52, 87
14, 35856, Note_on_c, 11, 59, 87
14, 35952, Note_off_c, 11, 59, 64
14, 35952, Note_on_c, 11, 60, 89
14, 36048, Note_off_c, 11, 45, 64
14, 36048, Note_on_c, 11, 48, 89
14, 36048, Note_off_c, 11, 52, 64
14, 36048, Note_off_c, 11, 60, 64
14, 36144, Note_on_c, 11, 57, 89
14, 36240, Note_on_c, 11, 63, 87
14, 36336, Note_on_c, 11, 67, 89
14, 36432, Note_on_c, 11, 47, 89
14, 36432, Note_off_c, 11, 48, 64
14, 36432, Note_off_c, 11, 57, 64
14, 36432, Note_off_c, 11, 63, 64
14, 36432, Note_off_c, 11, 67, 64
14, 36528, Note_on_c, 11, 53, 89
14, 36624, Note_on_c, 11, 57, 89
14, 36624, Note_on_c, 11, 77, 103
14, 36625, Note_on_c, 11, 81, 103
14, 36720, Note_on_c, 11, 62, 87
14, 36816, Note_off_c, 11, 47, 64
14, 36816, Note_on_c, 11, 52, 88
14, 36816, Note_off_c, 11, 53, 64
14, 36816, Note_off_c, 11, 57, 64
14, 36816, Note_off_c, 11, 62, 64
14, 36912, Note_on_c, 11, 56, 87
14, 36941, Note_off_c, 11, 81, 64
14, 36960, Note_off_c, 11, 77, 64
14, 37008, Note_on_c, 11, 62, 88
14, 37012, Note_on_c, 11, 68, 109
14, 37104, Note_on_c, 11, 64, 87
14, 37200, Note_on_c, 11, 45, 88
14, 37200, Note_off_c, 11, 52, 64
14, 37200, Note_off_c, 11, 56, 64
14, 37200, Note_off_c, 11, 62, 64
14, 37200, Note_off_c, 11, 64, 64
14, 37201, Note_off_c, 11, 68, 64
14, 37202, Note_on_c, 11, 69, 103
14, 37296, Note_on_c, 11, 52, 87
14, 37392, Note_on_c, 11, 59, 87
14, 37488, Note_off_c, 11, 59, 64
14, 37488, Note_on_c, 11, 60, 89
14, 37584, Note_off_c, 11, 45, 64
14, 37584, Note_off_c, 11, 52, 64
14, 37584, Note_on_c, 11, 54, 89
14, 37584, Note_off_c, 11, 60, 64
14, 37588, Note_off_c, 11, 69, 64
14, 37680, Note_on_c, 11, 57, 89
14, 37776, Note_on_c, 11, 69, 87
14, 37777, Note_on_c, 11, 81, 92
14, 37778, Note_on_c, 11, 76, 107
14, 37872, Note_on_c, 11, 64, 89
14, 37968, Note_on_c, 11, 47, 89
14, 37968, Note_off_c, 11, 54, 64
14, 37968, Note_off_c, 11, 57, 64
14, 37968, Note_off_c, 11, 64, 64
14, 37968, Note_off_c, 11, 69, 64
14, 38064, Note_on_c, 11, 53, 89
14, 38160, Note_on_c, 11, 57, 89
14, 38256, Note_on_c, 11, 62, 87
14, 38331, Note_off_c, 11, 81, 64
14, 38339, Note_off_c, 11, 76, 64
14, 38352, Note_off_c, 11, 47, 64
14, 38352, Note_on_c, 11, 52, 88
14, 38352, Note_off_c, 11, 53, 64
14, 38352, Note_off_c, 11, 57, 64
14, 38352, Note_off_c, 11, 62, 64
14, 38352, Note_on_c, 11, 69, 109
14, 38448, Note_on_c, 11, 56, 87
14, 38544, Note_on_c, 11, 62, 111
14, 38544, Note_off_c, 11, 69, 64
14, 38544, Note_on_c, 11, 71, 111
14, 38640, Note_on_c, 11, 64, 87
14, 38736, Note_on_c, 11, 42, 88
14, 38736, Note_off_c, 11, 52, 64
14, 38736, Note_off_c, 11, 56, 64
14, 38736, Note_off_c, 11, 62, 64
14, 38736, Note_off_c, 11, 64, 64
14, 38736, Note_off_c, 11, 71, 64
14, 38736, Note_on_c, 11, 73, 110
14, 38832, Note_on_c, 11, 49, 90
14, 38928, Note_on_c, 11, 56, 88
14, 39024, Note_off_c, 11, 56, 64
14, 39024, Note_on_c, 11, 57, 90
14, 39120, Note_on_c, 11, 61, 88
14, 39120, Note_off_c, 11, 73, 64
14, 39216, Note_on_c, 11, 56, 88
14, 39216, Note_off_c, 11, 57, 64
14, 39312, Note_off_c, 11, 56, 64
14, 39312, Note_on_c, 11, 57, 90
14, 39408, Note_off_c, 11, 61, 64
14, 39408, Note_on_c, 11, 61, 90
14, 39504, Note_off_c, 11, 42, 64
14, 39504, Note_on_c, 11, 47, 90
14, 39504, Note_off_c, 11, 49, 64
14, 39504, Note_off_c, 11, 57, 64
14, 39504, Note_off_c, 11, 61, 64
14, 39600, Note_on_c, 11, 62, 88
14, 39696, Note_on_c, 11, 66, 88
14, 39888, Note_off_c, 11, 47, 64
14, 39888, Note_on_c, 11, 49, 90
14, 39888, Note_off_c, 11, 62, 64
14, 39888, Note_off_c, 11, 66, 64
14, 39984, Note_on_c, 11, 57, 90
14, 40080, Note_on_c, 11, 64, 90
14, 40176, Note_on_c, 11, 67, 88
14, 40272, Note_off_c, 11, 49, 64
14, 40272, Note_on_c, 11, 50, 88
14, 40272, Note_off_c, 11, 57, 64
14, 40272, Note_off_c, 11, 64, 64
14, 40272, Note_off_c, 11, 67, 64
14, 40368, Note_on_c, 11, 57, 88
14, 40464, Note_on_c, 11, 62, 92
14, 40560, Note_on_c, 11, 66, 90
14, 40656, Note_on_c, 11, 49, 90
14, 40656, Note_off_c, 11, 50, 64
14, 40656, Note_off_c, 11, 57, 64
14, 40656, Note_off_c, 11, 62, 64
14, 40656, Note_off_c, 11, 66, 64
14, 40752, Note_on_c, 11, 57, 88
14, 40848, Note_on_c, 11, 61, 87
14, 40944, Note_on_c, 11, 64, 88
14, 41040, Note_on_c, 11, 47, 92
14, 41040, Note_off_c, 11, 49, 64
14, 41040, Note_off_c, 11, 57, 64
14, 41040, Note_off_c, 11, 61, 64
14, 41040, Note_off_c, 11, 64, 64
14, 41136, Note_on_c, 11, 59, 90
14, 41232, Note_on_c, 11, 62, 92
14, 41328, Note_on_c, 11, 66, 88
14, 41424, Note_off_c, 11, 47, 64
14, 41424, Note_on_c, 11, 56, 80
14, 41424, Note_off_c, 11, 59, 64
14, 41424, Note_off_c, 11, 62, 64
14, 41424, Note_off_c, 11, 66, 64
14, 41520, Note_on_c, 11, 62, 85
14, 41616, Note_on_c, 11, 66, 88
14, 41712, Note_on_c, 11, 71, 92
14, 41808, Note_on_c, 11, 52, 90
14, 41808, Note_off_c, 11, 56, 64
14, 41808, Note_off_c, 11, 62, 64
14, 41808, Note_off_c, 11, 66, 64
14, 41808, Note_off_c, 11, 71, 64
14, 41904, Note_on_c, 11, 59, 83
14, 42000, Note_on_c, 11, 64, 92
14, 42096, Note_on_c, 11, 68, 80
14, 42192, Note_off_c, 11, 52, 64
14, 42192, Note_on_c, 11, 56, 94
14, 42192, Note_off_c, 11, 59, 64
14, 42192, Note_off_c, 11, 64, 64
14, 42192, Note_off_c, 11, 68, 64
14, 42287, Note_on_c, 11, 59, 88
14, 42384, Note_on_c, 11, 64, 92
14, 42479, Note_on_c, 11, 68, 86
14, 42575, Note_off_c, 11, 59, 64
14, 42575, Note_off_c, 11, 68, 64
14, 42576, Note_on_c, 11, 49, 88
14, 42576, Note_off_c, 11, 56, 64
14, 42576, Note_off_c, 11, 64, 64
14, 42672, Note_on_c, 11, 56, 87
14, 42768, Note_on_c, 11, 59, 89
14, 42864, Note_on_c, 11, 66, 90
14, 42960, Note_off_c, 11, 49, 64
14, 42960, Note_on_c, 11, 49, 86
14, 42960, Note_off_c, 11, 56, 64
14, 42960, Note_off_c, 11, 59, 64
14, 42960, Note_off_c, 11, 66, 64
14, 43056, Note_on_c, 11, 56, 83
14, 43152, Note_on_c, 11, 59, 88
14, 43248, Note_on_c, 11, 66, 86
14, 43343, Note_off_c, 11, 66, 64
14, 43344, Note_on_c, 11, 47, 88
14, 43344, Note_off_c, 11, 49, 0
14, 43345, Note_off_c, 11, 59, 64
14, 43351, Note_off_c, 11, 56, 64
14, 43440, Note_on_c, 11, 54, 85
14, 43536, Note_on_c, 11, 59, 89
14, 43632, Note_on_c, 11, 62, 88
14, 43728, Note_on_c, 11, 33, 83
14, 43728, Note_on_c, 11, 45, 72
14, 43728, Note_off_c, 11, 47, 64
14, 43728, Note_on_c, 11, 52, 71
14, 43728, Note_off_c, 11, 54, 64
14, 43728, Note_on_c, 11, 57, 81
14, 43728, Note_off_c, 11, 59, 64
14, 43728, Note_on_c, 11, 61, 82
14, 43728, Note_off_c, 11, 62, 64
14, 43753, Control_c, 11, 64, 127
14, 43828, Note_off_c, 11, 45, 64
14, 43914, Note_off_c, 11, 57, 64
14, 43919, Note_on_c, 11, 45, 78
14, 43921, Note_off_c, 11, 52, 64
14, 43921, Note_off_c, 11, 61, 64
14, 44016, Note_off_c, 11, 33, 64
14, 44016, Note_on_c, 11, 52, 75
14, 44031, Note_off_c, 11, 45, 64
14, 44094, Note_off_c, 11, 52, 64
14, 44112, Note_on_c, 11, 37, 75
14, 44112, Note_on_c, 11, 49, 75
14, 44112, Note_on_c, 11, 52, 82
14, 44112, Note_on_c, 11, 57, 85
14, 44112, Note_on_c, 11, 64, 83
14, 44137, Control_c, 11, 64, 0
14, 44189, Control_c, 11, 64, 127
14, 44214, Note_off_c, 11, 49, 64
14, 44297, Note_off_c, 11, 52, 64
14, 44303, Note_on_c, 11, 49, 75
14, 44369, Note_off_c, 11, 37, 64
14, 44396, Note_off_c, 11, 64, 64
14, 44397, Note_off_c, 11, 57, 64
14, 44400, Note_on_c, 11, 52, 58
14, 44407, Note_off_c, 11, 49, 64
14, 44464, Note_off_c, 11, 52, 64
14, 44496, Note_on_c, 11, 40, 80
14, 44496, Note_on_c, 11, 52, 62
14, 44496, Note_on_c, 11, 56, 78
14, 44496, Note_on_c, 11, 59, 91
14, 44507, Control_c, 11, 64, 0
14, 44553, Control_c, 11, 64, 127
14, 44627, Note_off_c, 11, 52, 64
14, 44688, Note_on_c, 11, 52, 63
14, 44704, Note_off_c, 11, 59, 64
14, 44713, Note_off_c, 11, 56, 64
14, 44783, Note_on_c, 11, 56, 78
14, 44822, Note_off_c, 11, 52, 64
14, 44860, Note_off_c, 11, 56, 64
14, 44880, Note_on_c, 11, 52, 64
14, 44880, Note_on_c, 11, 56, 82
14, 44880, Note_on_c, 11, 59, 75
14, 44880, Note_on_c, 11, 64, 86
14, 44894, Note_off_c, 11, 59, 64
14, 44960, Note_off_c, 11, 52, 64
14, 45050, Note_off_c, 11, 56, 64
14, 45071, Note_on_c, 11, 52, 72
14, 45143, Note_off_c, 11, 52, 64
14, 45147, Note_off_c, 11, 40, 64
14, 45168, Note_on_c, 11, 56, 86
14, 45179, Note_off_c, 11, 64, 64
14, 45252, Note_off_c, 11, 56, 64
14, 45264, Note_on_c, 11, 35, 87
14, 45264, Note_on_c, 11, 47, 80
14, 45264, Note_on_c, 11, 54, 83
14, 45264, Note_on_c, 11, 59, 75
14, 45264, Note_on_c, 11, 62, 78
14, 45306, Control_c, 11, 64, 0
14, 45319, Control_c, 11, 64, 127
14, 45356, Note_off_c, 11, 59, 0
14, 45385, Note_off_c, 11, 47, 64
14, 45456, Note_on_c, 11, 47, 85
14, 45458, Note_off_c, 11, 54, 64
14, 45521, Note_off_c, 11, 62, 64
14, 45552, Note_on_c, 11, 54, 72
14, 45552, Note_on_c, 11, 62, 53
14, 45574, Note_off_c, 11, 35, 64
14, 45578, Note_off_c, 11, 47, 64
14, 45586, Note_off_c, 11, 54, 64
14, 45597, Note_off_c, 11, 62, 64
14, 45648, Note_on_c, 11, 38, 81
14, 45648, Note_on_c, 11, 50, 76
14, 45648, Note_on_c, 11, 54, 75
14, 45648, Note_on_c, 11, 59, 86
14, 45670, Control_c, 11, 64, 0
14, 45703, Control_c, 11, 64, 127
14, 45746, Note_off_c, 11, 50, 64
14, 45831, Note_off_c, 11, 59, 64
14, 45840, Note_on_c, 11, 50, 86
14, 45842, Note_off_c, 11, 54, 64
14, 45935, Note_on_c, 11, 54, 85
14, 46002, Note_off_c, 11, 54, 64
14, 46004, Note_off_c, 11, 38, 64
14, 46015, Note_off_c, 11, 50, 64
14, 46031, Note_on_c, 11, 54, 72
14, 46031, Note_on_c, 11, 57, 82
14, 46031, Note_on_c, 11, 61, 81
14, 46032, Note_on_c, 11, 42, 75
14, 46046, Control_c, 11, 64, 0
14, 46073, Control_c, 11, 64, 127
14, 46355, Note_off_c, 11, 54, 64
14, 46373, Note_off_c, 11, 57, 64
14, 46373, Note_off_c, 11, 61, 64
14, 46416, Note_on_c, 11, 54, 78
14, 46416, Note_on_c, 11, 57, 76
14, 46416, Note_on_c, 11, 61, 86
14, 46550, Note_off_c, 11, 42, 64
14, 46607, Note_on_c, 11, 42, 65
14, 46607, Note_on_c, 11, 59, 76
14, 46614, Note_off_c, 11, 61, 64
14, 46655, Note_off_c, 11, 57, 64
14, 46704, Note_on_c, 11, 57, 82
14, 46731, Note_off_c, 11, 54, 64
14, 46737, Note_off_c, 11, 42, 64
14, 46739, Note_off_c, 11, 59, 64
14, 46800, Note_on_c, 11, 37, 81
14, 46800, Note_on_c, 11, 52, 75
14, 46800, Note_on_c, 11, 56, 78
14, 46800, Note_off_c, 11, 57, 64
14, 46800, Note_on_c, 11, 61, 87
14, 46819, Control_c, 11, 64, 0
14, 46845, Control_c, 11, 64, 127
14, 46987, Note_off_c, 11, 61, 64
14, 46992, Note_on_c, 11, 49, 72
14, 46999, Note_off_c, 11, 52, 64
14, 47008, Note_off_c, 11, 56, 64
14, 47088, Note_on_c, 11, 52, 81
14, 47144, Note_off_c, 11, 52, 64
14, 47183, Note_on_c, 11, 52, 67
14, 47183, Note_on_c, 11, 56, 80
14, 47183, Note_on_c, 11, 64, 85
14, 47184, Note_on_c, 11, 61, 53
14, 47318, Note_off_c, 11, 49, 64
14, 47375, Note_on_c, 11, 49, 76
14, 47382, Note_off_c, 11, 52, 64
14, 47414, Note_off_c, 11, 61, 64
14, 47449, Note_off_c, 11, 64, 64
14, 47472, Note_on_c, 11, 52, 78
14, 47485, Note_off_c, 11, 56, 64
14, 47526, Note_off_c, 11, 52, 64
14, 47534, Note_off_c, 11, 37, 64
14, 47547, Note_off_c, 11, 49, 64
14, 47568, Note_on_c, 11, 42, 87
14, 47568, Note_on_c, 11, 50, 56
14, 47568, Note_on_c, 11, 57, 77
14, 47568, Note_on_c, 11, 62, 85
14, 47586, Control_c, 11, 64, 0
14, 47618, Control_c, 11, 64, 127
14, 47764, Note_off_c, 11, 50, 64
14, 47849, Note_off_c, 11, 57, 64
14, 47856, Note_on_c, 11, 50, 41
14, 47866, Note_off_c, 11, 62, 64
14, 47880, Note_off_c, 11, 50, 64
14, 47905, Note_off_c, 11, 42, 64
14, 47951, Note_on_c, 11, 44, 86
14, 47952, Note_on_c, 11, 52, 83
14, 47952, Note_on_c, 11, 59, 73
14, 47952, Note_on_c, 11, 64, 76
14, 47968, Control_c, 11, 64, 0
14, 47995, Control_c, 11, 64, 127
14, 48110, Note_off_c, 11, 59, 64
14, 48143, Note_on_c, 11, 59, 75
14, 48220, Note_off_c, 11, 44, 64
14, 48276, Note_off_c, 11, 64, 64
14, 48291, Note_off_c, 11, 52, 64
14, 48300, Note_off_c, 11, 59, 64
14, 48335, Note_on_c, 11, 57, 73
14, 48335, Note_on_c, 11, 61, 78
14, 48336, Note_on_c, 11, 33, 85
14, 48336, Note_on_c, 11, 45, 76
14, 48336, Note_on_c, 11, 52, 49
14, 48336, Note_on_c, 11, 59, 53
14, 48358, Control_c, 11, 64, 0
14, 48378, Control_c, 11, 64, 127
14, 48469, Note_off_c, 11, 45, 64
14, 48528, Note_on_c, 11, 45, 73
14, 48551, Note_off_c, 11, 52, 64
14, 48595, Note_off_c, 11, 45, 64
14, 48598, Note_off_c, 11, 33, 64
14, 48624, Note_on_c, 11, 52, 73
14, 48630, Note_off_c, 11, 57, 64
14, 48668, Note_off_c, 11, 59, 64
14, 48688, Note_off_c, 11, 52, 64
14, 48698, Note_off_c, 11, 61, 64
14, 48720, Note_on_c, 11, 37, 82
14, 48720, Note_on_c, 11, 49, 71
14, 48720, Note_on_c, 11, 52, 67
14, 48720, Note_on_c, 11, 57, 80
14, 48720, Note_on_c, 11, 61, 83
14, 48748, Control_c, 11, 64, 0
14, 48775, Control_c, 11, 64, 127
14, 48911, Note_off_c, 11, 52, 64
14, 48944, Note_off_c, 11, 37, 64
14, 48958, Note_off_c, 11, 49, 64
14, 49008, Note_on_c, 11, 52, 62
14, 49027, Note_off_c, 11, 57, 64
14, 49041, Note_off_c, 11, 52, 64
14, 49047, Note_off_c, 11, 61, 64
14, 49104, Note_on_c, 11, 39, 82
14, 49104, Note_on_c, 11, 51, 72
14, 49104, Note_on_c, 11, 54, 66
14, 49104, Note_on_c, 11, 57, 41
14, 49104, Note_on_c, 11, 61, 93
14, 49139, Control_c, 11, 64, 0
14, 49172, Control_c, 11, 64, 127
14, 49258, Note_off_c, 11, 51, 64
14, 49296, Note_on_c, 11, 51, 41
14, 49365, Note_off_c, 11, 39, 64
14, 49366, Note_off_c, 11, 57, 64
14, 49378, Note_off_c, 11, 51, 64
14, 49378, Note_off_c, 11, 54, 64
14, 49379, Note_off_c, 11, 61, 64
14, 49487, Note_on_c, 11, 41, 85
14, 49487, Note_on_c, 11, 53, 70
14, 49488, Note_on_c, 11, 56, 85
14, 49488, Note_on_c, 11, 61, 86
14, 49522, Control_c, 11, 64, 0
14, 49548, Control_c, 11, 64, 127
14, 49678, Note_off_c, 11, 53, 64
14, 49776, Note_off_c, 11, 41, 64
14, 49795, Note_off_c, 11, 56, 64
14, 49803, Note_off_c, 11, 61, 64
14, 49871, Note_on_c, 11, 61, 80
14, 49872, Note_on_c, 11, 42, 87
14, 49872, Note_on_c, 11, 54, 82
14, 49872, Note_on_c, 11, 57, 83
14, 49885, Control_c, 11, 64, 0
14, 49911, Control_c, 11, 64, 127
14, 50049, Note_off_c, 11, 54, 64
14, 50160, Note_on_c, 11, 54, 71
14, 50239, Note_off_c, 11, 54, 64
14, 50247, Note_off_c, 11, 57, 64
14, 50256, Note_on_c, 11, 54, 62
14, 50256, Note_on_c, 11, 57, 52
14, 50256, Note_on_c, 11, 66, 72
14, 50371, Note_off_c, 11, 66, 64
14, 50418, Note_off_c, 11, 57, 64
14, 50421, Note_off_c, 11, 54, 64
14, 50436, Note_off_c, 11, 61, 64
14, 50448, Note_on_c, 11, 54, 67
14, 50448, Note_on_c, 11, 57, 83
14, 50448, Note_on_c, 11, 61, 72
14, 50523, Note_off_c, 11, 42, 64
14, 50527, Note_off_c, 11, 61, 64
14, 50532, Note_off_c, 11, 54, 64
14, 50534, Note_off_c, 11, 57, 64
14, 50640, Note_on_c, 11, 47, 83
14, 50640, Note_on_c, 11, 50, 81
14, 50640, Note_on_c, 11, 55, 83
14, 50640, Note_on_c, 11, 59, 85
14, 50640, Note_on_c, 11, 62, 75
14, 50658, Control_c, 11, 64, 0
14, 50697, Control_c, 11, 64, 127
14, 50879, Note_off_c, 11, 47, 64
14, 50908, Note_off_c, 11, 62, 64
14, 50909, Note_off_c, 11, 59, 64
14, 50912, Note_off_c, 11, 50, 64
14, 50946, Note_off_c, 11, 55, 64
14, 51023, Note_on_c, 11, 37, 83
14, 51023, Note_on_c, 11, 49, 77
14, 51024, Note_on_c, 11, 52, 56
14, 51024, Note_on_c, 11, 57, 78
14, 51024, Note_on_c, 11, 61, 73
14, 51054, Control_c, 11, 64, 0
14, 51080, Control_c, 11, 64, 127
14, 51266, Note_off_c, 11, 37, 64
14, 51276, Note_off_c, 11, 49, 64
14, 51288, Note_off_c, 11, 61, 64
14, 51294, Note_off_c, 11, 52, 64
14, 51296, Note_off_c, 11, 57, 64
14, 51408, Note_on_c, 11, 38, 82
14, 51408, Note_on_c, 11, 50, 82
14, 51408, Note_on_c, 11, 54, 78
14, 51408, Note_on_c, 11, 57, 81
14, 51408, Note_on_c, 11, 62, 85
14, 51437, Control_c, 11, 64, 0
14, 51463, Control_c, 11, 64, 127
14, 51542, Note_off_c, 11, 50, 64
14, 51600, Note_on_c, 11, 50, 83
14, 51606, Note_off_c, 11, 54, 64
14, 51692, Note_off_c, 11, 50, 64
14, 51696, Note_on_c, 11, 54, 80
14, 51707, Note_off_c, 11, 38, 64
14, 51711, Note_off_c, 11, 57, 64
14, 51743, Note_off_c, 11, 54, 64
14, 51766, Note_off_c, 11, 62, 64
14, 51792, Note_on_c, 11, 37, 65
14, 51792, Note_on_c, 11, 49, 73
14, 51792, Note_on_c, 11, 52, 71
14, 51792, Note_on_c, 11, 57, 75
14, 51792, Note_on_c, 11, 61, 85
14, 51807, Control_c, 11, 64, 0
14, 51847, Control_c, 11, 64, 127
14, 51938, Note_off_c, 11, 49, 64
14, 51984, Note_on_c, 11, 49, 48
14, 52014, Note_off_c, 11, 49, 64
14, 52041, Note_off_c, 11, 52, 64
14, 52053, Note_off_c, 11, 61, 64
14, 52058, Note_off_c, 11, 57, 64
14, 52079, Note_on_c, 11, 49, 50
14, 52116, Note_off_c, 11, 37, 64
14, 52132, Note_off_c, 11, 49, 64
14, 52175, Note_on_c, 11, 44, 86
14, 52175, Note_on_c, 11, 50, 83
14, 52175, Note_on_c, 11, 54, 81
14, 52175, Note_on_c, 11, 59, 88
14, 52191, Control_c, 11, 64, 0
14, 52224, Control_c, 11, 64, 127
14, 52343, Note_off_c, 11, 50, 64
14, 52368, Note_on_c, 11, 50, 71
14, 52400, Note_off_c, 11, 50, 64
14, 52463, Note_on_c, 11, 50, 55
14, 52473, Note_off_c, 11, 59, 64
14, 52485, Note_off_c, 11, 54, 64
14, 52499, Note_off_c, 11, 50, 64
14, 52539, Note_off_c, 11, 44, 64
14, 52559, Note_on_c, 11, 37, 73
14, 52559, Note_on_c, 11, 49, 71
14, 52560, Note_on_c, 11, 53, 83
14, 52560, Note_on_c, 11, 59, 97
14, 52560, Note_on_c, 11, 61, 86
14, 52574, Control_c, 11, 64, 0
14, 52607, Control_c, 11, 64, 127
14, 52630, Note_off_c, 11, 49, 0
14, 52752, Note_on_c, 11, 49, 82
14, 52757, Note_off_c, 11, 53, 64
14, 52847, Note_on_c, 11, 53, 71
14, 52883, Note_off_c, 11, 61, 0
14, 52888, Note_off_c, 11, 59, 0
14, 52891, Note_off_c, 11, 53, 0
14, 52912, Note_off_c, 11, 49, 0
14, 52924, Note_off_c, 11, 37, 0
14, 52944, Note_on_c, 11, 52, 87
14, 52944, Control_c, 11, 64, 0
14, 53040, Note_on_c, 11, 59, 87
14, 53136, Note_on_c, 11, 64, 96
14, 53232, Note_on_c, 11, 69, 86
14, 53424, Note_off_c, 11, 59, 64
14, 53424, Note_on_c, 11, 59, 86
14, 53424, Note_off_c, 11, 64, 64
14, 53424, Note_off_c, 11, 69, 64
14, 53520, Note_on_c, 11, 64, 91
14, 53616, Note_on_c, 11, 68, 88
14, 53808, Note_on_c, 11, 57, 88
14, 53808, Note_off_c, 11, 59, 64
14, 53808, Note_off_c, 11, 64, 64
14, 53808, Note_off_c, 11, 68, 64
14, 53904, Note_on_c, 11, 64, 88
14, 54000, Note_on_c, 11, 68, 94
14, 54192, Note_off_c, 11, 57, 64
14, 54192, Note_on_c, 11, 57, 94
14, 54192, Note_off_c, 11, 64, 64
14, 54192, Note_off_c, 11, 68, 64
14, 54288, Note_on_c, 11, 63, 94
14, 54384, Note_on_c, 11, 66, 86
14, 54480, Note_off_c, 11, 52, 64
14, 54576, Note_on_c, 11, 56, 94
14, 54576, Note_off_c, 11, 57, 64
14, 54576, Note_off_c, 11, 63, 64
14, 54576, Note_off_c, 11, 66, 64
14, 54672, Note_on_c, 11, 59, 88
14, 54768, Note_on_c, 11, 66, 94
14, 54960, Note_off_c, 11, 56, 64
14, 54960, Note_on_c, 11, 56, 87
14, 55056, Note_off_c, 11, 59, 64
14, 55056, Note_on_c, 11, 59, 94
14, 55152, Note_on_c, 11, 64, 88
14, 55152, Note_off_c, 11, 66, 64
14, 55344, Note_on_c, 11, 54, 81
14, 55344, Note_off_c, 11, 56, 64
14, 55344, Note_off_c, 11, 59, 64
14, 55440, Note_on_c, 11, 57, 94
14, 55440, Note_off_c, 11, 64, 64
14, 55536, Note_on_c, 11, 64, 94
14, 55728, Note_off_c, 11, 54, 64
14, 55728, Note_on_c, 11, 54, 90
14, 55728, Note_off_c, 11, 57, 64
14, 55824, Note_on_c, 11, 57, 87
14, 55824, Note_off_c, 11, 64, 64
14, 55920, Note_on_c, 11, 62, 85
14, 56016, Note_on_c, 11, 52, 87
14, 56016, Note_off_c, 11, 54, 64
14, 56016, Note_off_c, 11, 57, 64
14, 56016, Note_off_c, 11, 62, 64
14, 56016, Note_on_c, 11, 64, 96
14, 56112, Note_on_c, 11, 59, 87
14, 56208, Note_off_c, 11, 64, 64
14, 56208, Note_on_c, 11, 64, 96
14, 56304, Note_on_c, 11, 69, 86
14, 56496, Note_off_c, 11, 59, 64
14, 56496, Note_on_c, 11, 59, 86
14, 56496, Note_off_c, 11, 64, 64
14, 56496, Note_off_c, 11, 69, 64
14, 56592, Note_on_c, 11, 64, 91
14, 56688, Note_on_c, 11, 68, 88
14, 56880, Note_on_c, 11, 57, 88
14, 56880, Note_off_c, 11, 59, 64
14, 56880, Note_off_c, 11, 64, 64
14, 56880, Note_off_c, 11, 68, 64
14, 56976, Note_on_c, 11, 64, 88
14, 57072, Note_on_c, 11, 68, 94
14, 57264, Note_off_c, 11, 57, 64
14, 57264, Note_on_c, 11, 57, 94
14, 57264, Note_off_c, 11, 64, 64
14, 57264, Note_off_c, 11, 68, 64
14, 57360, Note_on_c, 11, 63, 94
14, 57456, Note_on_c, 11, 66, 86
14, 57552, Note_off_c, 11, 52, 64
14, 57648, Note_on_c, 11, 56, 94
14, 57648, Note_off_c, 11, 57, 64
14, 57648, Note_off_c, 11, 63, 64
14, 57648, Note_off_c, 11, 66, 64
14, 57744, Note_on_c, 11, 59, 88
14, 57840, Note_on_c, 11, 66, 94
14, 58032, Note_off_c, 11, 56, 64
14, 58032, Note_on_c, 11, 56, 87
14, 58128, Note_off_c, 11, 59, 64
14, 58128, Note_on_c, 11, 59, 94
14, 58224, Note_on_c, 11, 64, 88
14, 58224, Note_off_c, 11, 66, 64
14, 58416, Note_on_c, 11, 54, 81
14, 58416, Note_off_c, 11, 56, 64
14, 58416, Note_off_c, 11, 59, 64
14, 58512, Note_on_c, 11, 57, 94
14, 58512, Note_off_c, 11, 64, 64
14, 58608, Note_on_c, 11, 64, 94
14, 58800, Note_off_c, 11, 57, 0
14, 58800, Note_off_c, 11, 54, 0
14, 58800, Note_on_c, 11, 54, 90
14, 58896, Note_on_c, 11, 57, 87
14, 58896, Note_off_c, 11, 64, 0
14, 58992, Note_on_c, 11, 63, 85
14, 59088, Note_on_c, 11, 40, 95
14, 59088, Note_on_c, 11, 52, 82
14, 59088, Note_off_c, 11, 54, 64
14, 59088, Note_on_c, 11, 56, 74
14, 59088, Note_off_c, 11, 57, 64
14, 59088, Note_on_c, 11, 59, 88
14, 59088, Note_off_c, 11, 63, 64
14, 59088, Note_on_c, 11, 64, 102
14, 59856, Note_off_c, 11, 40, 64
14, 59856, Note_off_c, 11, 52, 64
14, 59856, Note_off_c, 11, 56, 64
14, 59856, Note_off_c, 11, 59, 64
14, 59856, Note_off_c, 11, 64, 64
14, 60288, End_track
15, 0, Start_track
15, 342, Control_c, 12, 121, 0
15, 344, Control_c, 12, 10, 64
15, 346, Control_c, 12, 93, 30
15, 348, Control_c, 12, 91, 40
15, 350, Control_c, 12, 11, 127
15, 352, Control_c, 12, 7, 83
15, 354, Pitch_bend_c, 12, 8192
15, 356, Control_c, 12, 0, 0
15, 358, Program_c, 12, 24
15, 384, Control_c, 12, 99, 1
15, 432, Control_c, 12, 98, 32
15, 480, Control_c, 12, 6, 74
15, 2257, Note_on_c, 12, 42, 108
15, 2353, Note_on_c, 12, 49, 86
15, 2448, Note_on_c, 12, 54, 96
15, 2544, Note_on_c, 12, 57, 96
15, 2640, Note_on_c, 12, 45, 108
15, 2640, Note_off_c, 12, 54, 64
15, 2640, Note_off_c, 12, 57, 64
15, 2641, Note_off_c, 12, 42, 64
15, 2641, Note_off_c, 12, 49, 64
15, 2736, Note_on_c, 12, 49, 88
15, 2832, Note_on_c, 12, 54, 93
15, 2929, Note_on_c, 12, 57, 96
15, 3024, Note_off_c, 12, 54, 64
15, 3024, Note_off_c, 12, 45, 0
15, 3024, Note_off_c, 12, 49, 0
15, 3025, Note_on_c, 12, 44, 98
15, 3025, Note_off_c, 12, 57, 0
15, 3119, Note_on_c, 12, 50, 96
15, 3215, Note_on_c, 12, 54, 87
15, 3311, Note_on_c, 12, 59, 109
15, 3407, Note_off_c, 12, 50, 64
15, 3407, Note_off_c, 12, 54, 64
15, 3407, Note_off_c, 12, 59, 64
15, 3408, Note_on_c, 12, 49, 101
15, 3409, Note_off_c, 12, 44, 64
15, 3504, Note_on_c, 12, 53, 83
15, 3600, Note_on_c, 12, 59, 102
15, 3696, Note_on_c, 12, 61, 97
15, 3792, Note_on_c, 12, 42, 108
15, 3792, Note_off_c, 12, 49, 64
15, 3792, Note_off_c, 12, 53, 64
15, 3792, Note_off_c, 12, 59, 64
15, 3792, Note_off_c, 12, 61, 64
15, 3888, Note_on_c, 12, 49, 86
15, 3984, Note_on_c, 12, 54, 96
15, 4080, Note_on_c, 12, 57, 96
15, 4176, Note_off_c, 12, 42, 64
15, 4176, Note_on_c, 12, 45, 108
15, 4176, Note_off_c, 12, 49, 64
15, 4176, Note_off_c, 12, 54, 64
15, 4176, Note_off_c, 12, 57, 64
15, 4272, Note_on_c, 12, 54, 88
15, 4368, Note_on_c, 12, 60, 93
15, 4464, Note_on_c, 12, 64, 96
15, 4560, Note_on_c, 12, 44, 98
15, 4560, Note_off_c, 12, 45, 64
15, 4560, Note_off_c, 12, 54, 64
15, 4560, Note_off_c, 12, 60, 64
15, 4560, Note_off_c, 12, 64, 64
15, 4655, Note_on_c, 12, 50, 96
15, 4751, Note_on_c, 12, 54, 87
15, 4847, Note_on_c, 12, 59, 109
15, 4943, Note_off_c, 12, 50, 64
15, 4943, Note_off_c, 12, 54, 64
15, 4943, Note_off_c, 12, 59, 64
15, 4944, Note_off_c, 12, 44, 64
15, 4944, Note_on_c, 12, 49, 101
15, 5040, Note_on_c, 12, 53, 83
15, 5136, Note_on_c, 12, 59, 102
15, 5232, Note_on_c, 12, 61, 97
15, 5328, Note_off_c, 12, 49, 64
15, 5328, Note_off_c, 12, 53, 64
15, 5328, Note_off_c, 12, 59, 64
15, 5328, Note_off_c, 12, 61, 64
15, 5329, Note_on_c, 12, 42, 108
15, 5425, Note_on_c, 12, 49, 86
15, 5520, Note_on_c, 12, 54, 96
15, 5616, Note_on_c, 12, 57, 96
15, 5712, Note_on_c, 12, 45, 108
15, 5712, Note_off_c, 12, 54, 64
15, 5712, Note_off_c, 12, 57, 64
15, 5713, Note_off_c, 12, 42, 64
15, 5713, Note_off_c, 12, 49, 64
15, 5808, Note_on_c, 12, 49, 88
15, 5904, Note_on_c, 12, 54, 93
15, 6001, Note_on_c, 12, 57, 96
15, 6096, Note_off_c, 12, 54, 64
15, 6096, Note_off_c, 12, 45, 0
15, 6096, Note_off_c, 12, 49, 0
15, 6097, Note_on_c, 12, 44, 98
15, 6097, Note_off_c, 12, 57, 0
15, 6191, Note_on_c, 12, 50, 96
15, 6287, Note_on_c, 12, 54, 87
15, 6383, Note_on_c, 12, 59, 109
15, 6479, Note_off_c, 12, 50, 64
15, 6479, Note_off_c, 12, 54, 64
15, 6479, Note_off_c, 12, 59, 64
15, 6480, Note_on_c, 12, 49, 101
15, 6481, Note_off_c, 12, 44, 64
15, 6576, Note_on_c, 12, 53, 83
15, 6672, Note_on_c, 12, 59, 102
15, 6768, Note_on_c, 12, 61, 97
15, 6864, Note_on_c, 12, 42, 108
15, 6864, Note_off_c, 12, 49, 64
15, 6864, Note_off_c, 12, 53, 64
15, 6864, Note_off_c, 12, 59, 64
15, 6864, Note_off_c, 12, 61, 64
15, 6960, Note_on_c, 12, 49, 86
15, 7056, Note_on_c, 12, 56, 96
15, 7152, Note_off_c, 12, 56, 64
15, 7152, Note_on_c, 12, 57, 96
15, 7248, Note_off_c, 12, 42, 64
15, 7248, Note_on_c, 12, 45, 108
15, 7248, Note_off_c, 12, 49, 64
15, 7248, Note_off_c, 12, 57, 64
15, 7344, Note_on_c, 12, 54, 88
15, 7440, Note_on_c, 12, 60, 93
15, 7536, Note_on_c, 12, 64, 96
15, 7632, Note_on_c, 12, 44, 98
15, 7632, Note_off_c, 12, 45, 64
15, 7632, Note_off_c, 12, 54, 64
15, 7632, Note_off_c, 12, 60, 64
15, 7632, Note_off_c, 12, 64, 64
15, 7727, Note_on_c, 12, 50, 96
15, 7823, Note_on_c, 12, 54, 87
15, 7919, Note_on_c, 12, 59, 109
15, 8015, Note_off_c, 12, 50, 64
15, 8015, Note_off_c, 12, 54, 64
15, 8015, Note_off_c, 12, 59, 64
15, 8016, Note_on_c, 12, 40, 101
15, 8016, Note_off_c, 12, 44, 64
15, 8112, Note_on_c, 12, 50, 83
15, 8208, Note_on_c, 12, 56, 102
15, 8304, Note_on_c, 12, 59, 97
15, 8400, Note_off_c, 12, 40, 64
15, 8400, Note_on_c, 12, 45, 98
15, 8400, Note_off_c, 12, 50, 64
15, 8400, Note_off_c, 12, 56, 64
15, 8400, Note_off_c, 12, 59, 64
15, 8496, Note_on_c, 12, 57, 97
15, 8592, Note_on_c, 12, 60, 97
15, 8688, Note_on_c, 12, 64, 99
15, 8784, Note_off_c, 12, 45, 64
15, 8784, Note_on_c, 12, 54, 99
15, 8784, Note_off_c, 12, 57, 64
15, 8784, Note_off_c, 12, 60, 64
15, 8784, Note_off_c, 12, 64, 64
15, 8880, Note_on_c, 12, 57, 99
15, 8976, Note_on_c, 12, 60, 97
15, 9072, Note_on_c, 12, 64, 99
15, 9168, Note_on_c, 12, 47, 99
15, 9168, Note_off_c, 12, 54, 64
15, 9168, Note_off_c, 12, 57, 64
15, 9168, Note_off_c, 12, 60, 64
15, 9168, Note_off_c, 12, 64, 64
15, 9264, Note_on_c, 12, 53, 99
15, 9360, Note_on_c, 12, 57, 99
15, 9456, Note_on_c, 12, 62, 97
15, 9552, Note_off_c, 12, 47, 64
15, 9552, Note_on_c, 12, 52, 98
15, 9552, Note_off_c, 12, 53, 64
15, 9552, Note_off_c, 12, 57, 64
15, 9552, Note_off_c, 12, 62, 64
15, 9648, Note_on_c, 12, 56, 97
15, 9744, Note_on_c, 12, 62, 98
15, 9840, Note_on_c, 12, 64, 97
15, 9936, Note_on_c, 12, 45, 98
15, 9936, Note_off_c, 12, 52, 64
15, 9936, Note_off_c, 12, 56, 64
15, 9936, Note_off_c, 12, 62, 64
15, 9936, Note_off_c, 12, 64, 64
15, 10032, Note_on_c, 12, 52, 97
15, 10128, Note_on_c, 12, 59, 97
15, 10224, Note_off_c, 12, 59, 64
15, 10224, Note_on_c, 12, 60, 99
15, 10320, Note_off_c, 12, 45, 64
15, 10320, Note_on_c, 12, 48, 99
15, 10320, Note_off_c, 12, 52, 64
15, 10320, Note_off_c, 12, 60, 64
15, 10416, Note_on_c, 12, 57, 99
15, 10512, Note_on_c, 12, 63, 97
15, 10608, Note_on_c, 12, 67, 99
15, 10704, Note_on_c, 12, 47, 99
15, 10704, Note_off_c, 12, 48, 64
15, 10704, Note_off_c, 12, 57, 64
15, 10704, Note_off_c, 12, 63, 64
15, 10704, Note_off_c, 12, 67, 64
15, 10800, Note_on_c, 12, 53, 99
15, 10896, Note_on_c, 12, 57, 99
15, 10992, Note_on_c, 12, 62, 97
15, 11088, Note_off_c, 12, 47, 64
15, 11088, Note_on_c, 12, 52, 98
15, 11088, Note_off_c, 12, 53, 64
15, 11088, Note_off_c, 12, 57, 64
15, 11088, Note_off_c, 12, 62, 64
15, 11184, Note_on_c, 12, 56, 97
15, 11280, Note_on_c, 12, 62, 98
15, 11376, Note_on_c, 12, 64, 97
15, 11472, Note_on_c, 12, 45, 98
15, 11472, Note_off_c, 12, 52, 64
15, 11472, Note_off_c, 12, 56, 64
15, 11472, Note_off_c, 12, 62, 64
15, 11472, Note_off_c, 12, 64, 64
15, 11568, Note_on_c, 12, 52, 97
15, 11664, Note_on_c, 12, 59, 97
15, 11760, Note_off_c, 12, 59, 64
15, 11760, Note_on_c, 12, 60, 99
15, 11856, Note_off_c, 12, 45, 64
15, 11856, Note_off_c, 12, 52, 64
15, 11856, Note_on_c, 12, 54, 99
15, 11856, Note_off_c, 12, 60, 64
15, 11952, Note_on_c, 12, 57, 99
15, 12048, Note_on_c, 12, 69, 97
15, 12144, Note_on_c, 12, 64, 99
15, 12240, Note_on_c, 12, 47, 99
15, 12240, Note_off_c, 12, 54, 64
15, 12240, Note_off_c, 12, 57, 64
15, 12240, Note_off_c, 12, 64, 64
15, 12240, Note_off_c, 12, 69, 64
15, 12336, Note_on_c, 12, 53, 99
15, 12432, Note_on_c, 12, 57, 99
15, 12528, Note_on_c, 12, 62, 97
15, 12624, Note_off_c, 12, 47, 64
15, 12624, Note_on_c, 12, 52, 98
15, 12624, Note_off_c, 12, 53, 64
15, 12624, Note_off_c, 12, 57, 64
15, 12624, Note_off_c, 12, 62, 64
15, 12720, Note_on_c, 12, 56, 97
15, 12816, Note_on_c, 12, 62, 98
15, 12912, Note_on_c, 12, 64, 97
15, 13008, Note_on_c, 12, 42, 98
15, 13008, Note_off_c, 12, 52, 64
15, 13008, Note_off_c, 12, 56, 64
15, 13008, Note_off_c, 12, 62, 64
15, 13008, Note_off_c, 12, 64, 64
15, 13104, Note_on_c, 12, 49, 100
15, 13200, Note_on_c, 12, 56, 98
15, 13296, Note_off_c, 12, 56, 64
15, 13296, Note_on_c, 12, 57, 100
15, 13392, Note_on_c, 12, 61, 98
15, 13488, Note_on_c, 12, 56, 98
15, 13488, Note_off_c, 12, 57, 64
15, 13584, Note_off_c, 12, 56, 64
15, 13584, Note_on_c, 12, 57, 100
15, 13680, Note_off_c, 12, 61, 64
15, 13680, Note_on_c, 12, 61, 100
15, 13776, Note_off_c, 12, 42, 64
15, 13776, Note_on_c, 12, 47, 100
15, 13776, Note_off_c, 12, 49, 64
15, 13776, Note_off_c, 12, 57, 64
15, 13776, Note_off_c, 12, 61, 64
15, 13872, Note_on_c, 12, 62, 98
15, 13968, Note_on_c, 12, 66, 98
15, 14064, Note_on_c, 12, 68, 100
15, 14160, Note_off_c, 12, 47, 64
15, 14160, Note_on_c, 12, 49, 100
15, 14160, Note_off_c, 12, 62, 64
15, 14160, Note_off_c, 12, 66, 64
15, 14160, Note_off_c, 12, 68, 64
15, 14256, Note_on_c, 12, 57, 100
15, 14352, Note_on_c, 12, 64, 100
15, 14448, Note_on_c, 12, 67, 98
15, 14544, Note_off_c, 12, 49, 64
15, 14544, Note_on_c, 12, 50, 98
15, 14544, Note_off_c, 12, 57, 64
15, 14544, Note_off_c, 12, 64, 64
15, 14544, Note_off_c, 12, 67, 64
15, 14640, Note_on_c, 12, 57, 98
15, 14736, Note_on_c, 12, 62, 102
15, 14832, Note_on_c, 12, 66, 100
15, 14928, Note_on_c, 12, 49, 100
15, 14928, Note_off_c, 12, 50, 64
15, 14928, Note_off_c, 12, 57, 64
15, 14928, Note_off_c, 12, 62, 64
15, 14928, Note_off_c, 12, 66, 64
15, 15024, Note_on_c, 12, 57, 98
15, 15120, Note_on_c, 12, 61, 97
15, 15216, Note_on_c, 12, 66, 98
15, 15312, Note_on_c, 12, 47, 102
15, 15312, Note_off_c, 12, 49, 64
15, 15312, Note_off_c, 12, 57, 64
15, 15312, Note_off_c, 12, 61, 64
15, 15312, Note_off_c, 12, 66, 64
15, 15408, Note_on_c, 12, 59, 100
15, 15504, Note_on_c, 12, 62, 102
15, 15600, Note_on_c, 12, 68, 98
15, 15696, Note_off_c, 12, 47, 64
15, 15696, Note_on_c, 12, 56, 90
15, 15696, Note_off_c, 12, 59, 64
15, 15696, Note_off_c, 12, 62, 64
15, 15696, Note_off_c, 12, 68, 64
15, 15792, Note_on_c, 12, 62, 95
15, 15888, Note_on_c, 12, 66, 98
15, 15984, Note_on_c, 12, 71, 102
15, 16080, Note_on_c, 12, 52, 100
15, 16080, Note_off_c, 12, 56, 64
15, 16080, Note_off_c, 12, 62, 64
15, 16080, Note_off_c, 12, 66, 64
15, 16080, Note_off_c, 12, 71, 64
15, 16176, Note_on_c, 12, 59, 93
15, 16272, Note_on_c, 12, 64, 102
15, 16368, Note_on_c, 12, 68, 90
15, 16464, Note_on_c, 12, 50, 104
15, 16464, Note_off_c, 12, 52, 64
15, 16464, Note_off_c, 12, 59, 64
15, 16464, Note_off_c, 12, 64, 64
15, 16464, Note_off_c, 12, 68, 64
15, 16559, Note_on_c, 12, 57, 98
15, 16656, Note_on_c, 12, 60, 102
15, 16752, Note_on_c, 12, 65, 96
15, 16847, Note_on_c, 12, 43, 102
15, 16847, Note_off_c, 12, 57, 64
15, 16848, Note_off_c, 12, 65, 0
15, 16848, Note_off_c, 12, 60, 0
15, 16848, Note_off_c, 12, 50, 0
15, 16944, Note_on_c, 12, 57, 98
15, 17040, Note_on_c, 12, 60, 97
15, 17135, Note_on_c, 12, 65, 93
15, 17231, Note_off_c, 12, 43, 64
15, 17231, Note_off_c, 12, 65, 64
15, 17232, Note_on_c, 12, 48, 98
15, 17232, Note_off_c, 12, 57, 64
15, 17232, Note_off_c, 12, 60, 64
15, 17328, Note_on_c, 12, 55, 93
15, 17424, Note_on_c, 12, 60, 98
15, 17520, Note_on_c, 12, 64, 95
15, 17616, Note_off_c, 12, 48, 64
15, 17616, Note_on_c, 12, 52, 98
15, 17616, Note_off_c, 12, 55, 64
15, 17616, Note_off_c, 12, 60, 64
15, 17616, Note_off_c, 12, 64, 64
15, 17712, Note_on_c, 12, 55, 95
15, 17808, Note_on_c, 12, 60, 98
15, 17904, Note_on_c, 12, 64, 94
15, 18000, Note_on_c, 12, 43, 95
15, 18000, Note_off_c, 12, 52, 64
15, 18000, Note_off_c, 12, 55, 64
15, 18000, Note_off_c, 12, 60, 64
15, 18000, Note_off_c, 12, 64, 64
15, 18096, Note_on_c, 12, 55, 97
15, 18192, Note_on_c, 12, 59, 95
15, 18288, Note_off_c, 12, 59, 64
15, 18288, Note_on_c, 12, 62, 98
15, 18384, Note_off_c, 12, 55, 64
15, 18384, Note_on_c, 12, 55, 96
15, 18384, Note_off_c, 12, 62, 64
15, 18480, Note_on_c, 12, 59, 95
15, 18576, Note_on_c, 12, 62, 97
15, 18672, Note_on_c, 12, 67, 96
15, 18768, Note_off_c, 12, 43, 64
15, 18768, Note_on_c, 12, 50, 98
15, 18768, Note_off_c, 12, 55, 64
15, 18768, Note_off_c, 12, 59, 64
15, 18768, Note_off_c, 12, 62, 64
15, 18768, Note_off_c, 12, 67, 64
15, 18864, Note_on_c, 12, 53, 95
15, 18960, Note_off_c, 12, 53, 64
15, 18960, Note_on_c, 12, 57, 98
15, 19056, Note_on_c, 12, 62, 97
15, 19152, Note_off_c, 12, 50, 64
15, 19152, Note_on_c, 12, 53, 95
15, 19152, Note_off_c, 12, 57, 64
15, 19152, Note_off_c, 12, 62, 64
15, 19248, Note_on_c, 12, 57, 94
15, 19344, Note_on_c, 12, 62, 96
15, 19440, Note_on_c, 12, 65, 95
15, 19536, Note_on_c, 12, 45, 97
15, 19536, Note_off_c, 12, 53, 64
15, 19536, Note_off_c, 12, 57, 64
15, 19536, Note_off_c, 12, 62, 64
15, 19536, Note_off_c, 12, 65, 64
15, 19632, Note_on_c, 12, 52, 97
15, 19728, Note_on_c, 12, 57, 95
15, 19824, Note_on_c, 12, 60, 97
15, 19920, Note_off_c, 12, 45, 64
15, 19920, Note_off_c, 12, 52, 64
15, 19920, Note_on_c, 12, 52, 97
15, 19920, Note_off_c, 12, 57, 64
15, 20016, Note_on_c, 12, 57, 95
15, 20016, Note_off_c, 12, 60, 64
15, 20112, Note_on_c, 12, 60, 98
15, 20208, Note_on_c, 12, 64, 97
15, 20304, Note_off_c, 12, 52, 64
15, 20304, Note_on_c, 12, 52, 98
15, 20304, Note_off_c, 12, 57, 64
15, 20304, Note_off_c, 12, 60, 64
15, 20304, Note_off_c, 12, 64, 64
15, 20400, Note_on_c, 12, 55, 95
15, 20496, Note_on_c, 12, 59, 97
15, 20592, Note_on_c, 12, 64, 93
15, 20688, Note_off_c, 12, 52, 64
15, 20688, Note_on_c, 12, 52, 95
15, 20784, Note_off_c, 12, 59, 64
15, 20784, Note_on_c, 12, 59, 95
15, 20784, Note_off_c, 12, 64, 64
15, 20880, Note_on_c, 12, 64, 97
15, 20976, Note_on_c, 12, 67, 98
15, 21072, Note_on_c, 12, 45, 98
15, 21072, Note_off_c, 12, 52, 64
15, 21072, Note_off_c, 12, 55, 64
15, 21072, Note_off_c, 12, 59, 64
15, 21072, Note_off_c, 12, 64, 64
15, 21072, Note_off_c, 12, 67, 64
15, 21168, Note_on_c, 12, 53, 94
15, 21264, Note_on_c, 12, 60, 98
15, 21360, Note_on_c, 12, 65, 96
15, 21456, Note_off_c, 12, 45, 64
15, 21456, Note_on_c, 12, 47, 97
15, 21456, Note_off_c, 12, 53, 64
15, 21552, Note_on_c, 12, 55, 97
15, 21552, Note_off_c, 12, 60, 64
15, 21552, Note_off_c, 12, 65, 64
15, 21648, Note_on_c, 12, 62, 97
15, 21744, Note_on_c, 12, 67, 97
15, 21840, Note_off_c, 12, 47, 64
15, 21840, Note_on_c, 12, 48, 98
15, 21840, Note_off_c, 12, 55, 64
15, 21840, Note_off_c, 12, 62, 64
15, 21840, Note_off_c, 12, 67, 64
15, 21936, Note_on_c, 12, 52, 91
15, 22032, Note_on_c, 12, 55, 95
15, 22128, Note_off_c, 12, 52, 64
15, 22128, Note_on_c, 12, 60, 98
15, 22224, Note_off_c, 12, 48, 64
15, 22224, Note_on_c, 12, 52, 94
15, 22224, Note_off_c, 12, 55, 64
15, 22224, Note_off_c, 12, 60, 64
15, 22320, Note_on_c, 12, 55, 97
15, 22416, Note_on_c, 12, 60, 98
15, 22512, Note_on_c, 12, 64, 97
15, 22608, Note_on_c, 12, 42, 97
15, 22608, Note_off_c, 12, 52, 64
15, 22608, Note_off_c, 12, 55, 64
15, 22608, Note_off_c, 12, 60, 64
15, 22608, Note_off_c, 12, 64, 64
15, 22704, Note_on_c, 12, 57, 97
15, 22800, Note_on_c, 12, 60, 96
15, 22896, Note_on_c, 12, 66, 92
15, 22992, Note_off_c, 12, 42, 64
15, 22992, Note_on_c, 12, 44, 96
15, 22992, Note_off_c, 12, 57, 64
15, 22992, Note_off_c, 12, 60, 64
15, 22992, Note_off_c, 12, 66, 64
15, 23088, Note_on_c, 12, 59, 95
15, 23184, Note_on_c, 12, 52, 94
15, 23184, Note_on_c, 12, 64, 97
15, 23280, Note_off_c, 12, 59, 64
15, 23280, Note_on_c, 12, 68, 94
15, 23376, Note_off_c, 12, 44, 64
15, 23376, Note_on_c, 12, 45, 96
15, 23376, Note_off_c, 12, 52, 64
15, 23376, Note_off_c, 12, 64, 64
15, 23376, Note_off_c, 12, 68, 64
15, 23472, Note_on_c, 12, 52, 98
15, 23568, Note_on_c, 12, 57, 97
15, 23664, Note_off_c, 12, 52, 64
15, 23664, Note_on_c, 12, 60, 98
15, 23760, Note_off_c, 12, 45, 64
15, 23760, Note_on_c, 12, 52, 96
15, 23760, Note_off_c, 12, 57, 64
15, 23760, Note_off_c, 12, 60, 64
15, 23856, Note_on_c, 12, 57, 95
15, 23952, Note_on_c, 12, 60, 97
15, 24048, Note_on_c, 12, 64, 98
15, 24144, Note_on_c, 12, 50, 98
15, 24144, Note_off_c, 12, 52, 64
15, 24144, Note_off_c, 12, 57, 64
15, 24144, Note_off_c, 12, 60, 64
15, 24144, Note_off_c, 12, 64, 64
15, 24240, Note_on_c, 12, 53, 95
15, 24336, Note_on_c, 12, 58, 95
15, 24432, Note_on_c, 12, 62, 98
15, 24528, Note_off_c, 12, 50, 64
15, 24528, Note_on_c, 12, 52, 97
15, 24528, Note_off_c, 12, 53, 64
15, 24528, Note_off_c, 12, 58, 64
15, 24528, Note_off_c, 12, 62, 64
15, 24624, Note_on_c, 12, 55, 95
15, 24720, Note_on_c, 12, 60, 98
15, 24816, Note_off_c, 12, 52, 64
15, 24816, Note_on_c, 12, 64, 97
15, 24912, Note_on_c, 12, 53, 98
15, 24912, Note_off_c, 12, 55, 64
15, 24912, Note_off_c, 12, 60, 64
15, 24912, Note_off_c, 12, 64, 64
15, 25008, Note_on_c, 12, 57, 95
15, 25104, Note_on_c, 12, 60, 97
15, 25200, Note_on_c, 12, 65, 95
15, 25296, Note_on_c, 12, 52, 95
15, 25296, Note_off_c, 12, 53, 64
15, 25296, Note_off_c, 12, 57, 64
15, 25296, Note_off_c, 12, 60, 64
15, 25296, Note_off_c, 12, 65, 64
15, 25392, Note_on_c, 12, 55, 95
15, 25488, Note_on_c, 12, 60, 97
15, 25584, Note_on_c, 12, 64, 98
15, 25680, Note_on_c, 12, 47, 98
15, 25680, Note_off_c, 12, 52, 64
15, 25680, Note_off_c, 12, 55, 64
15, 25680, Note_off_c, 12, 60, 64
15, 25680, Note_off_c, 12, 64, 64
15, 25776, Note_on_c, 12, 53, 95
15, 25872, Note_on_c, 12, 57, 98
15, 25968, Note_on_c, 12, 62, 98
15, 26064, Note_off_c, 12, 47, 64
15, 26064, Note_on_c, 12, 52, 99
15, 26064, Note_off_c, 12, 53, 64
15, 26064, Note_off_c, 12, 57, 64
15, 26064, Note_off_c, 12, 62, 64
15, 26160, Note_on_c, 12, 59, 94
15, 26256, Note_on_c, 12, 62, 97
15, 26352, Note_on_c, 12, 64, 99
15, 26448, Note_off_c, 12, 64, 0
15, 26448, Note_off_c, 12, 62, 0
15, 26448, Note_off_c, 12, 59, 0
15, 26448, Note_off_c, 12, 52, 0
15, 27985, Note_on_c, 12, 42, 108
15, 28081, Note_on_c, 12, 49, 86
15, 28176, Note_on_c, 12, 54, 96
15, 28272, Note_on_c, 12, 57, 96
15, 28368, Note_on_c, 12, 45, 108
15, 28368, Note_off_c, 12, 54, 64
15, 28368, Note_off_c, 12, 57, 64
15, 28369, Note_off_c, 12, 42, 64
15, 28369, Note_off_c, 12, 49, 64
15, 28464, Note_on_c, 12, 49, 88
15, 28560, Note_on_c, 12, 54, 93
15, 28657, Note_on_c, 12, 57, 96
15, 28752, Note_off_c, 12, 54, 64
15, 28752, Note_off_c, 12, 45, 0
15, 28752, Note_off_c, 12, 49, 0
15, 28753, Note_on_c, 12, 44, 98
15, 28753, Note_off_c, 12, 57, 0
15, 28847, Note_on_c, 12, 50, 96
15, 28943, Note_on_c, 12, 54, 87
15, 29039, Note_on_c, 12, 59, 109
15, 29135, Note_off_c, 12, 50, 64
15, 29135, Note_off_c, 12, 54, 64
15, 29135, Note_off_c, 12, 59, 64
15, 29136, Note_on_c, 12, 49, 101
15, 29137, Note_off_c, 12, 44, 64
15, 29232, Note_on_c, 12, 53, 83
15, 29328, Note_on_c, 12, 59, 102
15, 29424, Note_on_c, 12, 61, 97
15, 29520, Note_on_c, 12, 42, 108
15, 29520, Note_off_c, 12, 49, 64
15, 29520, Note_off_c, 12, 53, 64
15, 29520, Note_off_c, 12, 59, 64
15, 29520, Note_off_c, 12, 61, 64
15, 29616, Note_on_c, 12, 49, 86
15, 29712, Note_on_c, 12, 54, 96
15, 29808, Note_on_c, 12, 57, 96
15, 29904, Note_off_c, 12, 42, 64
15, 29904, Note_on_c, 12, 45, 108
15, 29904, Note_off_c, 12, 49, 64
15, 29904, Note_off_c, 12, 54, 64
15, 29904, Note_off_c, 12, 57, 64
15, 30000, Note_on_c, 12, 54, 88
15, 30096, Note_on_c, 12, 60, 93
15, 30192, Note_on_c, 12, 64, 96
15, 30288, Note_on_c, 12, 44, 98
15, 30288, Note_off_c, 12, 45, 64
15, 30288, Note_off_c, 12, 54, 64
15, 30288, Note_off_c, 12, 60, 64
15, 30288, Note_off_c, 12, 64, 64
15, 30383, Note_on_c, 12, 50, 96
15, 30479, Note_on_c, 12, 54, 87
15, 30575, Note_on_c, 12, 59, 109
15, 30671, Note_off_c, 12, 50, 64
15, 30671, Note_off_c, 12, 54, 64
15, 30671, Note_off_c, 12, 59, 64
15, 30672, Note_off_c, 12, 44, 64
15, 30672, Note_on_c, 12, 49, 101
15, 30768, Note_on_c, 12, 53, 83
15, 30864, Note_on_c, 12, 59, 102
15, 30960, Note_on_c, 12, 61, 97
15, 31056, Note_off_c, 12, 49, 64
15, 31056, Note_off_c, 12, 53, 64
15, 31056, Note_off_c, 12, 59, 64
15, 31056, Note_off_c, 12, 61, 64
15, 31057, Note_on_c, 12, 42, 108
15, 31153, Note_on_c, 12, 49, 86
15, 31248, Note_on_c, 12, 54, 96
15, 31344, Note_on_c, 12, 57, 96
15, 31440, Note_on_c, 12, 45, 108
15, 31440, Note_off_c, 12, 54, 64
15, 31440, Note_off_c, 12, 57, 64
15, 31441, Note_off_c, 12, 42, 64
15, 31441, Note_off_c, 12, 49, 64
15, 31536, Note_on_c, 12, 54, 88
15, 31632, Note_on_c, 12, 61, 93
15, 31728, Note_on_c, 12, 64, 96
15, 31824, Note_off_c, 12, 54, 64
15, 31824, Note_off_c, 12, 61, 64
15, 31824, Note_off_c, 12, 64, 0
15, 31824, Note_off_c, 12, 45, 0
15, 31825, Note_on_c, 12, 44, 98
15, 31919, Note_on_c, 12, 50, 96
15, 32015, Note_on_c, 12, 54, 87
15, 32111, Note_on_c, 12, 59, 109
15, 32207, Note_off_c, 12, 50, 64
15, 32207, Note_off_c, 12, 54, 64
15, 32207, Note_off_c, 12, 59, 64
15, 32208, Note_on_c, 12, 49, 101
15, 32209, Note_off_c, 12, 44, 64
15, 32304, Note_on_c, 12, 53, 83
15, 32400, Note_on_c, 12, 59, 102
15, 32496, Note_on_c, 12, 61, 97
15, 32592, Note_on_c, 12, 42, 108
15, 32592, Note_off_c, 12, 49, 64
15, 32592, Note_off_c, 12, 53, 64
15, 32592, Note_off_c, 12, 59, 64
15, 32592, Note_off_c, 12, 61, 64
15, 32688, Note_on_c, 12, 49, 86
15, 32784, Note_on_c, 12, 56, 96
15, 32880, Note_off_c, 12, 56, 64
15, 32880, Note_on_c, 12, 57, 96
15, 32976, Note_off_c, 12, 42, 64
15, 32976, Note_on_c, 12, 45, 108
15, 32976, Note_off_c, 12, 49, 64
15, 32976, Note_off_c, 12, 57, 64
15, 33072, Note_on_c, 12, 54, 88
15, 33168, Note_on_c, 12, 60, 93
15, 33264, Note_on_c, 12, 64, 96
15, 33360, Note_on_c, 12, 44, 98
15, 33360, Note_off_c, 12, 45, 64
15, 33360, Note_off_c, 12, 54, 64
15, 33360, Note_off_c, 12, 60, 64
15, 33360, Note_off_c, 12, 64, 64
15, 33455, Note_on_c, 12, 50, 96
15, 33551, Note_on_c, 12, 54, 87
15, 33647, Note_on_c, 12, 59, 109
15, 33743, Note_off_c, 12, 50, 64
15, 33743, Note_off_c, 12, 54, 64
15, 33743, Note_off_c, 12, 59, 64
15, 33744, Note_on_c, 12, 40, 101
15, 33744, Note_off_c, 12, 44, 64
15, 33840, Note_on_c, 12, 50, 83
15, 33936, Note_on_c, 12, 56, 102
15, 34032, Note_on_c, 12, 59, 97
15, 34128, Note_off_c, 12, 40, 64
15, 34128, Note_on_c, 12, 45, 98
15, 34128, Note_off_c, 12, 50, 64
15, 34128, Note_off_c, 12, 56, 64
15, 34128, Note_off_c, 12, 59, 64
15, 34224, Note_on_c, 12, 57, 97
15, 34320, Note_on_c, 12, 60, 97
15, 34416, Note_on_c, 12, 64, 99
15, 34512, Note_off_c, 12, 45, 64
15, 34512, Note_on_c, 12, 54, 99
15, 34512, Note_off_c, 12, 57, 64
15, 34512, Note_off_c, 12, 60, 64
15, 34512, Note_off_c, 12, 64, 64
15, 34608, Note_on_c, 12, 57, 99
15, 34704, Note_on_c, 12, 60, 97
15, 34800, Note_on_c, 12, 64, 99
15, 34896, Note_on_c, 12, 47, 99
15, 34896, Note_off_c, 12, 54, 64
15, 34896, Note_off_c, 12, 57, 64
15, 34896, Note_off_c, 12, 60, 64
15, 34896, Note_off_c, 12, 64, 64
15, 34992, Note_on_c, 12, 53, 99
15, 35088, Note_on_c, 12, 57, 99
15, 35184, Note_on_c, 12, 62, 97
15, 35280, Note_off_c, 12, 47, 64
15, 35280, Note_on_c, 12, 52, 98
15, 35280, Note_off_c, 12, 53, 64
15, 35280, Note_off_c, 12, 57, 64
15, 35280, Note_off_c, 12, 62, 64
15, 35376, Note_on_c, 12, 56, 97
15, 35472, Note_on_c, 12, 62, 98
15, 35568, Note_on_c, 12, 64, 97
15, 35664, Note_on_c, 12, 45, 98
15, 35664, Note_off_c, 12, 52, 64
15, 35664, Note_off_c, 12, 56, 64
15, 35664, Note_off_c, 12, 62, 64
15, 35664, Note_off_c, 12, 64, 64
15, 35760, Note_on_c, 12, 52, 97
15, 35856, Note_on_c, 12, 59, 97
15, 35952, Note_off_c, 12, 59, 64
15, 35952, Note_on_c, 12, 60, 99
15, 36048, Note_off_c, 12, 45, 64
15, 36048, Note_on_c, 12, 48, 99
15, 36048, Note_off_c, 12, 52, 64
15, 36048, Note_off_c, 12, 60, 64
15, 36144, Note_on_c, 12, 57, 99
15, 36240, Note_on_c, 12, 63, 97
15, 36336, Note_on_c, 12, 67, 99
15, 36432, Note_on_c, 12, 47, 99
15, 36432, Note_off_c, 12, 48, 64
15, 36432, Note_off_c, 12, 57, 64
15, 36432, Note_off_c, 12, 63, 64
15, 36432, Note_off_c, 12, 67, 64
15, 36528, Note_on_c, 12, 53, 99
15, 36624, Note_on_c, 12, 57, 99
15, 36720, Note_on_c, 12, 62, 97
15, 36816, Note_off_c, 12, 47, 64
15, 36816, Note_on_c, 12, 52, 98
15, 36816, Note_off_c, 12, 53, 64
15, 36816, Note_off_c, 12, 57, 64
15, 36816, Note_off_c, 12, 62, 64
15, 36912, Note_on_c, 12, 56, 97
15, 37008, Note_on_c, 12, 62, 98
15, 37104, Note_on_c, 12, 64, 97
15, 37200, Note_on_c, 12, 45, 98
15, 37200, Note_off_c, 12, 52, 64
15, 37200, Note_off_c, 12, 56, 64
15, 37200, Note_off_c, 12, 62, 64
15, 37200, Note_off_c, 12, 64, 64
15, 37296, Note_on_c, 12, 52, 97
15, 37392, Note_on_c, 12, 59, 97
15, 37488, Note_off_c, 12, 59, 64
15, 37488, Note_on_c, 12, 60, 99
15, 37584, Note_off_c, 12, 45, 64
15, 37584, Note_off_c, 12, 52, 64
15, 37584, Note_on_c, 12, 54, 99
15, 37584, Note_off_c, 12, 60, 64
15, 37680, Note_on_c, 12, 57, 99
15, 37776, Note_on_c, 12, 69, 97
15, 37872, Note_on_c, 12, 64, 99
15, 37968, Note_on_c, 12, 47, 99
15, 37968, Note_off_c, 12, 54, 64
15, 37968, Note_off_c, 12, 57, 64
15, 37968, Note_off_c, 12, 64, 64
15, 37968, Note_off_c, 12, 69, 64
15, 38064, Note_on_c, 12, 53, 99
15, 38160, Note_on_c, 12, 57, 99
15, 38256, Note_on_c, 12, 62, 97
15, 38352, Note_off_c, 12, 47, 64
15, 38352, Note_on_c, 12, 52, 98
15, 38352, Note_off_c, 12, 53, 64
15, 38352, Note_off_c, 12, 57, 64
15, 38352, Note_off_c, 12, 62, 64
15, 38448, Note_on_c, 12, 56, 97
15, 38544, Note_on_c, 12, 62, 98
15, 38640, Note_on_c, 12, 64, 97
15, 38736, Note_on_c, 12, 42, 98
15, 38736, Note_off_c, 12, 52, 64
15, 38736, Note_off_c, 12, 56, 64
15, 38736, Note_off_c, 12, 62, 64
15, 38736, Note_off_c, 12, 64, 64
15, 38832, Note_on_c, 12, 49, 100
15, 38928, Note_on_c, 12, 56, 98
15, 39024, Note_off_c, 12, 56, 64
15, 39024, Note_on_c, 12, 57, 100
15, 39120, Note_on_c, 12, 61, 98
15, 39216, Note_on_c, 12, 56, 98
15, 39216, Note_off_c, 12, 57, 64
15, 39312, Note_off_c, 12, 56, 64
15, 39312, Note_on_c, 12, 57, 100
15, 39408, Note_off_c, 12, 61, 64
15, 39408, Note_on_c, 12, 61, 100
15, 39504, Note_off_c, 12, 42, 64
15, 39504, Note_on_c, 12, 47, 100
15, 39504, Note_off_c, 12, 49, 64
15, 39504, Note_off_c, 12, 57, 64
15, 39504, Note_off_c, 12, 61, 64
15, 39600, Note_on_c, 12, 62, 98
15, 39696, Note_on_c, 12, 66, 98
15, 39888, Note_off_c, 12, 47, 64
15, 39888, Note_on_c, 12, 49, 100
15, 39888, Note_off_c, 12, 62, 64
15, 39888, Note_off_c, 12, 66, 64
15, 39984, Note_on_c, 12, 57, 100
15, 40080, Note_on_c, 12, 64, 100
15, 40176, Note_on_c, 12, 67, 98
15, 40272, Note_off_c, 12, 49, 64
15, 40272, Note_on_c, 12, 50, 98
15, 40272, Note_off_c, 12, 57, 64
15, 40272, Note_off_c, 12, 64, 64
15, 40272, Note_off_c, 12, 67, 64
15, 40368, Note_on_c, 12, 57, 98
15, 40464, Note_on_c, 12, 62, 102
15, 40560, Note_on_c, 12, 66, 100
15, 40656, Note_on_c, 12, 49, 100
15, 40656, Note_off_c, 12, 50, 64
15, 40656, Note_off_c, 12, 57, 64
15, 40656, Note_off_c, 12, 62, 64
15, 40656, Note_off_c, 12, 66, 64
15, 40752, Note_on_c, 12, 57, 98
15, 40848, Note_on_c, 12, 61, 97
15, 40944, Note_on_c, 12, 64, 98
15, 41040, Note_on_c, 12, 47, 102
15, 41040, Note_off_c, 12, 49, 64
15, 41040, Note_off_c, 12, 57, 64
15, 41040, Note_off_c, 12, 61, 64
15, 41040, Note_off_c, 12, 64, 64
15, 41136, Note_on_c, 12, 59, 100
15, 41232, Note_on_c, 12, 62, 102
15, 41328, Note_on_c, 12, 66, 98
15, 41424, Note_off_c, 12, 47, 64
15, 41424, Note_on_c, 12, 56, 90
15, 41424, Note_off_c, 12, 59, 64
15, 41424, Note_off_c, 12, 62, 64
15, 41424, Note_off_c, 12, 66, 64
15, 41520, Note_on_c, 12, 62, 95
15, 41616, Note_on_c, 12, 66, 98
15, 41712, Note_on_c, 12, 71, 102
15, 41808, Note_on_c, 12, 52, 100
15, 41808, Note_off_c, 12, 56, 64
15, 41808, Note_off_c, 12, 62, 64
15, 41808, Note_off_c, 12, 66, 64
15, 41808, Note_off_c, 12, 71, 64
15, 41904, Note_on_c, 12, 59, 93
15, 42000, Note_on_c, 12, 64, 102
15, 42096, Note_on_c, 12, 68, 90
15, 42192, Note_off_c, 12, 52, 64
15, 42192, Note_on_c, 12, 56, 104
15, 42192, Note_off_c, 12, 59, 64
15, 42192, Note_off_c, 12, 64, 64
15, 42192, Note_off_c, 12, 68, 64
15, 42287, Note_on_c, 12, 59, 98
15, 42384, Note_on_c, 12, 64, 102
15, 42479, Note_on_c, 12, 68, 96
15, 42575, Note_off_c, 12, 59, 64
15, 42575, Note_off_c, 12, 68, 64
15, 42576, Note_on_c, 12, 49, 98
15, 42576, Note_off_c, 12, 56, 64
15, 42576, Note_off_c, 12, 64, 64
15, 42672, Note_on_c, 12, 56, 97
15, 42768, Note_on_c, 12, 59, 99
15, 42864, Note_on_c, 12, 66, 100
15, 42960, Note_off_c, 12, 49, 64
15, 42960, Note_on_c, 12, 49, 96
15, 42960, Note_off_c, 12, 56, 64
15, 42960, Note_off_c, 12, 59, 64
15, 42960, Note_off_c, 12, 66, 64
15, 43056, Note_on_c, 12, 56, 93
15, 43152, Note_on_c, 12, 59, 98
15, 43248, Note_on_c, 12, 66, 96
15, 43343, Note_off_c, 12, 66, 64
15, 43344, Note_on_c, 12, 47, 98
15, 43344, Note_off_c, 12, 49, 64
15, 43345, Note_off_c, 12, 59, 64
15, 43351, Note_off_c, 12, 56, 64
15, 43440, Note_on_c, 12, 54, 95
15, 43536, Note_on_c, 12, 59, 99
15, 43632, Note_on_c, 12, 62, 98
15, 43728, Note_on_c, 12, 45, 98
15, 43728, Note_off_c, 12, 47, 64
15, 43728, Note_off_c, 12, 54, 64
15, 43728, Note_off_c, 12, 59, 64
15, 43728, Note_off_c, 12, 62, 64
15, 43824, Note_on_c, 12, 52, 93
15, 43920, Note_on_c, 12, 57, 98
15, 44016, Note_on_c, 12, 61, 95
15, 44112, Note_off_c, 12, 45, 64
15, 44112, Note_on_c, 12, 49, 98
15, 44112, Note_off_c, 12, 52, 64
15, 44112, Note_off_c, 12, 57, 64
15, 44112, Note_off_c, 12, 61, 64
15, 44208, Note_on_c, 12, 52, 95
15, 44304, Note_on_c, 12, 57, 98
15, 44400, Note_on_c, 12, 61, 94
15, 44496, Note_on_c, 12, 40, 95
15, 44496, Note_off_c, 12, 49, 64
15, 44496, Note_off_c, 12, 52, 64
15, 44496, Note_off_c, 12, 57, 64
15, 44496, Note_off_c, 12, 61, 64
15, 44592, Note_on_c, 12, 52, 97
15, 44688, Note_on_c, 12, 56, 95
15, 44784, Note_off_c, 12, 56, 64
15, 44784, Note_on_c, 12, 59, 98
15, 44880, Note_off_c, 12, 52, 64
15, 44880, Note_on_c, 12, 52, 96
15, 44880, Note_off_c, 12, 59, 64
15, 44976, Note_on_c, 12, 56, 95
15, 45072, Note_on_c, 12, 59, 97
15, 45168, Note_on_c, 12, 64, 96
15, 45264, Note_off_c, 12, 40, 64
15, 45264, Note_on_c, 12, 47, 98
15, 45264, Note_off_c, 12, 52, 64
15, 45264, Note_off_c, 12, 56, 64
15, 45264, Note_off_c, 12, 59, 64
15, 45264, Note_off_c, 12, 64, 64
15, 45360, Note_on_c, 12, 50, 95
15, 45456, Note_off_c, 12, 50, 64
15, 45456, Note_on_c, 12, 54, 98
15, 45552, Note_on_c, 12, 59, 97
15, 45648, Note_off_c, 12, 47, 64
15, 45648, Note_on_c, 12, 50, 95
15, 45648, Note_off_c, 12, 54, 64
15, 45648, Note_off_c, 12, 59, 64
15, 45744, Note_on_c, 12, 54, 94
15, 45840, Note_on_c, 12, 59, 96
15, 45936, Note_on_c, 12, 62, 95
15, 46032, Note_on_c, 12, 42, 97
15, 46032, Note_off_c, 12, 50, 64
15, 46032, Note_off_c, 12, 54, 64
15, 46032, Note_off_c, 12, 59, 64
15, 46032, Note_off_c, 12, 62, 64
15, 46128, Note_on_c, 12, 49, 97
15, 46224, Note_on_c, 12, 54, 95
15, 46320, Note_on_c, 12, 57, 97
15, 46416, Note_off_c, 12, 42, 64
15, 46416, Note_off_c, 12, 49, 64
15, 46416, Note_on_c, 12, 49, 97
15, 46416, Note_off_c, 12, 54, 64
15, 46512, Note_on_c, 12, 54, 95
15, 46512, Note_off_c, 12, 57, 64
15, 46608, Note_on_c, 12, 57, 98
15, 46704, Note_on_c, 12, 61, 97
15, 46800, Note_off_c, 12, 49, 64
15, 46800, Note_on_c, 12, 49, 98
15, 46800, Note_off_c, 12, 54, 64
15, 46800, Note_off_c, 12, 57, 64
15, 46800, Note_off_c, 12, 61, 64
15, 46896, Note_on_c, 12, 52, 95
15, 46992, Note_on_c, 12, 56, 97
15, 47088, Note_on_c, 12, 61, 93
15, 47184, Note_off_c, 12, 49, 64
15, 47184, Note_on_c, 12, 49, 95
15, 47280, Note_off_c, 12, 56, 64
15, 47280, Note_on_c, 12, 56, 95
15, 47280, Note_off_c, 12, 61, 64
15, 47376, Note_on_c, 12, 61, 97
15, 47472, Note_on_c, 12, 64, 98
15, 47568, Note_on_c, 12, 42, 98
15, 47568, Note_off_c, 12, 49, 64
15, 47568, Note_off_c, 12, 52, 64
15, 47568, Note_off_c, 12, 56, 64
15, 47568, Note_off_c, 12, 61, 64
15, 47568, Note_off_c, 12, 64, 64
15, 47664, Note_on_c, 12, 50, 94
15, 47760, Note_on_c, 12, 57, 98
15, 47856, Note_on_c, 12, 62, 96
15, 47952, Note_off_c, 12, 42, 64
15, 47952, Note_on_c, 12, 44, 97
15, 47952, Note_off_c, 12, 50, 64
15, 48048, Note_on_c, 12, 52, 97
15, 48048, Note_off_c, 12, 57, 64
15, 48048, Note_off_c, 12, 62, 64
15, 48144, Note_on_c, 12, 59, 97
15, 48240, Note_on_c, 12, 64, 97
15, 48336, Note_off_c, 12, 44, 64
15, 48336, Note_on_c, 12, 45, 98
15, 48336, Note_off_c, 12, 52, 64
15, 48336, Note_off_c, 12, 59, 64
15, 48336, Note_off_c, 12, 64, 64
15, 48432, Note_on_c, 12, 49, 91
15, 48528, Note_on_c, 12, 52, 95
15, 48624, Note_off_c, 12, 49, 64
15, 48624, Note_on_c, 12, 57, 98
15, 48720, Note_off_c, 12, 45, 64
15, 48720, Note_on_c, 12, 49, 94
15, 48720, Note_off_c, 12, 52, 64
15, 48720, Note_off_c, 12, 57, 64
15, 48816, Note_on_c, 12, 52, 97
15, 48912, Note_on_c, 12, 57, 98
15, 49008, Note_on_c, 12, 61, 97
15, 49104, Note_on_c, 12, 39, 97
15, 49104, Note_off_c, 12, 49, 64
15, 49104, Note_off_c, 12, 52, 64
15, 49104, Note_off_c, 12, 57, 64
15, 49104, Note_off_c, 12, 61, 64
15, 49200, Note_on_c, 12, 54, 97
15, 49296, Note_on_c, 12, 57, 96
15, 49392, Note_on_c, 12, 63, 92
15, 49488, Note_off_c, 12, 39, 64
15, 49488, Note_on_c, 12, 41, 96
15, 49488, Note_off_c, 12, 54, 64
15, 49488, Note_off_c, 12, 57, 64
15, 49488, Note_off_c, 12, 63, 64
15, 49584, Note_on_c, 12, 56, 95
15, 49680, Note_on_c, 12, 49, 94
15, 49680, Note_on_c, 12, 61, 97
15, 49776, Note_off_c, 12, 56, 64
15, 49776, Note_on_c, 12, 65, 94
15, 49872, Note_off_c, 12, 41, 64
15, 49872, Note_on_c, 12, 42, 96
15, 49872, Note_off_c, 12, 49, 64
15, 49872, Note_off_c, 12, 61, 64
15, 49872, Note_off_c, 12, 65, 64
15, 49968, Note_on_c, 12, 49, 98
15, 50064, Note_on_c, 12, 54, 97
15, 50160, Note_off_c, 12, 49, 64
15, 50160, Note_on_c, 12, 57, 98
15, 50256, Note_off_c, 12, 42, 64
15, 50256, Note_on_c, 12, 49, 96
15, 50256, Note_off_c, 12, 54, 64
15, 50256, Note_off_c, 12, 57, 64
15, 50352, Note_on_c, 12, 54, 95
15, 50448, Note_on_c, 12, 57, 97
15, 50544, Note_on_c, 12, 61, 98
15, 50640, Note_on_c, 12, 47, 98
15, 50640, Note_off_c, 12, 49, 64
15, 50640, Note_off_c, 12, 54, 64
15, 50640, Note_off_c, 12, 57, 64
15, 50640, Note_off_c, 12, 61, 64
15, 50736, Note_on_c, 12, 50, 95
15, 50832, Note_on_c, 12, 55, 95
15, 50928, Note_on_c, 12, 59, 98
15, 51024, Note_off_c, 12, 47, 64
15, 51024, Note_on_c, 12, 49, 97
15, 51024, Note_off_c, 12, 50, 64
15, 51024, Note_off_c, 12, 55, 64
15, 51024, Note_off_c, 12, 59, 64
15, 51120, Note_on_c, 12, 52, 95
15, 51216, Note_on_c, 12, 57, 98
15, 51312, Note_off_c, 12, 49, 64
15, 51312, Note_on_c, 12, 61, 97
15, 51408, Note_on_c, 12, 50, 98
15, 51408, Note_off_c, 12, 52, 64
15, 51408, Note_off_c, 12, 57, 64
15, 51408, Note_off_c, 12, 61, 64
15, 51504, Note_on_c, 12, 54, 95
15, 51600, Note_on_c, 12, 57, 97
15, 51696, Note_on_c, 12, 62, 95
15, 51792, Note_on_c, 12, 49, 95
15, 51792, Note_off_c, 12, 50, 64
15, 51792, Note_off_c, 12, 54, 64
15, 51792, Note_off_c, 12, 57, 64
15, 51792, Note_off_c, 12, 62, 64
15, 51888, Note_on_c, 12, 52, 95
15, 51984, Note_on_c, 12, 57, 97
15, 52080, Note_on_c, 12, 61, 98
15, 52176, Note_on_c, 12, 44, 98
15, 52176, Note_off_c, 12, 49, 64
15, 52176, Note_off_c, 12, 52, 64
15, 52176, Note_off_c, 12, 57, 64
15, 52176, Note_off_c, 12, 61, 64
15, 52272, Note_on_c, 12, 50, 95
15, 52368, Note_on_c, 12, 54, 98
15, 52464, Note_on_c, 12, 59, 98
15, 52560, Note_off_c, 12, 44, 64
15, 52560, Note_on_c, 12, 49, 99
15, 52560, Note_off_c, 12, 50, 64
15, 52560, Note_off_c, 12, 54, 64
15, 52560, Note_off_c, 12, 59, 64
15, 52656, Note_on_c, 12, 56, 94
15, 52752, Note_on_c, 12, 59, 97
15, 52848, Note_on_c, 12, 61, 99
15, 52944, Note_off_c, 12, 61, 0
15, 52944, Note_off_c, 12, 59, 0
15, 52944, Note_off_c, 12, 56, 0
15, 52944, Note_off_c, 12, 49, 0
15, 52944, Note_on_c, 12, 52, 97
15, 53040, Note_on_c, 12, 59, 97
15, 53136, Note_on_c, 12, 64, 106
15, 53232, Note_on_c, 12, 69, 96
15, 53424, Note_off_c, 12, 59, 64
15, 53424, Note_on_c, 12, 59, 96
15, 53424, Note_off_c, 12, 64, 64
15, 53424, Note_off_c, 12, 69, 64
15, 53520, Note_on_c, 12, 64, 101
15, 53616, Note_on_c, 12, 68, 98
15, 53808, Note_on_c, 12, 57, 98
15, 53808, Note_off_c, 12, 59, 64
15, 53808, Note_off_c, 12, 64, 64
15, 53808, Note_off_c, 12, 68, 64
15, 53904, Note_on_c, 12, 64, 98
15, 54000, Note_on_c, 12, 68, 104
15, 54192, Note_off_c, 12, 57, 64
15, 54192, Note_on_c, 12, 57, 104
15, 54192, Note_off_c, 12, 64, 64
15, 54192, Note_off_c, 12, 68, 64
15, 54288, Note_on_c, 12, 63, 104
15, 54384, Note_on_c, 12, 66, 96
15, 54480, Note_off_c, 12, 52, 64
15, 54576, Note_on_c, 12, 56, 104
15, 54576, Note_off_c, 12, 57, 64
15, 54576, Note_off_c, 12, 63, 64
15, 54576, Note_off_c, 12, 66, 64
15, 54672, Note_on_c, 12, 59, 98
15, 54768, Note_on_c, 12, 66, 104
15, 54960, Note_off_c, 12, 56, 64
15, 54960, Note_on_c, 12, 56, 97
15, 55056, Note_off_c, 12, 59, 64
15, 55056, Note_on_c, 12, 59, 104
15, 55152, Note_on_c, 12, 64, 98
15, 55152, Note_off_c, 12, 66, 64
15, 55344, Note_on_c, 12, 54, 91
15, 55344, Note_off_c, 12, 56, 64
15, 55344, Note_off_c, 12, 59, 64
15, 55440, Note_on_c, 12, 57, 104
15, 55440, Note_off_c, 12, 64, 64
15, 55536, Note_on_c, 12, 64, 104
15, 55728, Note_off_c, 12, 54, 64
15, 55728, Note_on_c, 12, 54, 100
15, 55728, Note_off_c, 12, 57, 64
15, 55824, Note_on_c, 12, 57, 97
15, 55824, Note_off_c, 12, 64, 64
15, 55920, Note_on_c, 12, 62, 95
15, 56016, Note_on_c, 12, 52, 97
15, 56016, Note_off_c, 12, 54, 64
15, 56016, Note_off_c, 12, 57, 64
15, 56016, Note_off_c, 12, 62, 64
15, 56016, Note_on_c, 12, 64, 106
15, 56112, Note_on_c, 12, 59, 97
15, 56208, Note_off_c, 12, 64, 64
15, 56208, Note_on_c, 12, 64, 106
15, 56304, Note_on_c, 12, 69, 96
15, 56496, Note_off_c, 12, 59, 64
15, 56496, Note_on_c, 12, 59, 96
15, 56496, Note_off_c, 12, 64, 64
15, 56496, Note_off_c, 12, 69, 64
15, 56592, Note_on_c, 12, 64, 101
15, 56688, Note_on_c, 12, 68, 98
15, 56880, Note_on_c, 12, 57, 98
15, 56880, Note_off_c, 12, 59, 64
15, 56880, Note_off_c, 12, 64, 64
15, 56880, Note_off_c, 12, 68, 64
15, 56976, Note_on_c, 12, 64, 98
15, 57072, Note_on_c, 12, 68, 104
15, 57264, Note_off_c, 12, 57, 64
15, 57264, Note_on_c, 12, 57, 104
15, 57264, Note_off_c, 12, 64, 64
15, 57264, Note_off_c, 12, 68, 64
15, 57360, Note_on_c, 12, 63, 104
15, 57456, Note_on_c, 12, 66, 96
15, 57552, Note_off_c, 12, 52, 64
15, 57648, Note_on_c, 12, 56, 104
15, 57648, Note_off_c, 12, 57, 64
15, 57648, Note_off_c, 12, 63, 64
15, 57648, Note_off_c, 12, 66, 64
15, 57744, Note_on_c, 12, 59, 98
15, 57840, Note_on_c, 12, 66, 104
15, 58032, Note_off_c, 12, 56, 64
15, 58032, Note_on_c, 12, 56, 97
15, 58128, Note_off_c, 12, 59, 64
15, 58128, Note_on_c, 12, 59, 104
15, 58224, Note_on_c, 12, 64, 98
15, 58224, Note_off_c, 12, 66, 64
15, 58416, Note_on_c, 12, 54, 91
15, 58416, Note_off_c, 12, 56, 64
15, 58416, Note_off_c, 12, 59, 64
15, 58512, Note_on_c, 12, 57, 104
15, 58512, Note_off_c, 12, 64, 64
15, 58608, Note_on_c, 12, 64, 104
15, 58800, Note_off_c, 12, 54, 64
15, 58800, Note_on_c, 12, 54, 100
15, 58800, Note_off_c, 12, 57, 64
15, 58896, Note_on_c, 12, 57, 97
15, 58896, Note_off_c, 12, 64, 64
15, 58992, Note_on_c, 12, 63, 95
15, 59088, Note_off_c, 12, 54, 64
15, 59088, Note_off_c, 12, 57, 64
15, 59088, Note_off_c, 12, 63, 64
15, 59096, Note_on_c, 12, 52, 95
15, 59100, Note_on_c, 12, 56, 85
15, 59118, Note_on_c, 12, 59, 98
15, 59142, Note_on_c, 12, 64, 104
15, 59842, Note_off_c, 12, 52, 64
15, 59842, Note_off_c, 12, 64, 64
15, 59843, Note_off_c, 12, 56, 64
15, 59844, Note_off_c, 12, 59, 64
15, 60288, End_track
16, 0, Start_track
16, 342, Control_c, 13, 121, 0
16, 344, Control_c, 13, 10, 64
16, 346, Control_c, 13, 93, 0
16, 348, Control_c, 13, 91, 127
16, 350, Control_c, 13, 11, 127
16, 352, Control_c, 13, 7, 83
16, 354, Pitch_bend_c, 13, 8192
16, 356, Control_c, 13, 0, 8
16, 358, Program_c, 13, 125
16, 720, Control_c, 13, 7, 0
16, 768, Note_on_c, 13, 67, 50
16, 1440, Control_c, 13, 7, 19
16, 1452, Control_c, 13, 7, 38
16, 1464, Control_c, 13, 7, 58
16, 1476, Control_c, 13, 7, 78
16, 1488, Control_c, 13, 7, 83
16, 2052, Note_off_c, 13, 67, 0
16, 25728, Program_c, 13, 125
16, 25776, Control_c, 13, 0, 7
16, 26449, Note_on_c, 13, 69, 127
16, 27600, Note_off_c, 13, 69, 64
16, 60288, End_track
17, 0, Start_track
17, 342, Control_c, 14, 121, 0
17, 344, Control_c, 14, 10, 64
17, 346, Control_c, 14, 93, 0
17, 348, Control_c, 14, 91, 10
17, 350, Control_c, 14, 11, 127
17, 352, Control_c, 14, 7, 82
17, 354, Pitch_bend_c, 14, 8192
17, 356, Control_c, 14, 0, 1
17, 358, Program_c, 14, 81
17, 384, Control_c, 14, 99, 1
17, 432, Control_c, 14, 98, 32
17, 480, Control_c, 14, 6, 84
17, 2832, Note_on_c, 14, 69, 77
17, 2832, Note_on_c, 14, 76, 77
17, 2832, Control_c, 14, 6, 64
17, 2844, Note_off_c, 14, 76, 0
17, 2844, Note_off_c, 14, 69, 0
17, 2880, Note_on_c, 14, 69, 75
17, 2880, Note_on_c, 14, 76, 75
17, 2880, Control_c, 14, 6, 61
17, 2892, Note_off_c, 14, 76, 0
17, 2892, Note_off_c, 14, 69, 0
17, 2928, Note_on_c, 14, 69, 71
17, 2928, Note_on_c, 14, 76, 71
17, 2928, Control_c, 14, 6, 57
17, 2940, Note_off_c, 14, 69, 64
17, 2940, Note_off_c, 14, 76, 64
17, 2976, Note_on_c, 14, 69, 68
17, 2976, Note_on_c, 14, 76, 68
17, 2976, Control_c, 14, 6, 53
17, 2988, Note_off_c, 14, 76, 0
17, 2988, Note_off_c, 14, 69, 0
17, 3024, Note_on_c, 14, 69, 63
17, 3024, Note_on_c, 14, 76, 63
17, 3024, Control_c, 14, 6, 49
17, 3036, Note_off_c, 14, 69, 64
17, 3036, Note_off_c, 14, 76, 64
17, 3072, Note_on_c, 14, 69, 57
17, 3072, Note_on_c, 14, 76, 57
17, 3072, Control_c, 14, 6, 44
17, 3084, Note_off_c, 14, 76, 0
17, 3084, Note_off_c, 14, 69, 0
17, 3120, Note_on_c, 14, 69, 53
17, 3120, Note_on_c, 14, 76, 53
17, 3120, Control_c, 14, 6, 39
17, 3132, Note_off_c, 14, 76, 0
17, 3132, Note_off_c, 14, 69, 0
17, 3216, Control_c, 14, 6, 64
17, 4368, Note_on_c, 14, 69, 77
17, 4368, Note_on_c, 14, 76, 77
17, 4368, Control_c, 14, 6, 64
17, 4380, Note_off_c, 14, 76, 0
17, 4380, Note_off_c, 14, 69, 0
17, 4416, Note_on_c, 14, 69, 75
17, 4416, Note_on_c, 14, 76, 75
17, 4416, Control_c, 14, 6, 61
17, 4428, Note_off_c, 14, 76, 0
17, 4428, Note_off_c, 14, 69, 0
17, 4464, Note_on_c, 14, 69, 71
17, 4464, Note_on_c, 14, 76, 71
17, 4464, Control_c, 14, 6, 57
17, 4476, Note_off_c, 14, 76, 0
17, 4476, Note_off_c, 14, 69, 0
17, 4512, Note_on_c, 14, 69, 68
17, 4512, Note_on_c, 14, 76, 68
17, 4512, Control_c, 14, 6, 53
17, 4524, Note_off_c, 14, 76, 0
17, 4524, Note_off_c, 14, 69, 0
17, 4560, Note_on_c, 14, 69, 63
17, 4560, Note_on_c, 14, 76, 63
17, 4560, Control_c, 14, 6, 49
17, 4572, Note_off_c, 14, 76, 0
17, 4572, Note_off_c, 14, 69, 0
17, 4608, Note_on_c, 14, 69, 57
17, 4608, Note_on_c, 14, 76, 57
17, 4608, Control_c, 14, 6, 44
17, 4620, Note_off_c, 14, 76, 0
17, 4620, Note_off_c, 14, 69, 0
17, 4656, Note_on_c, 14, 69, 53
17, 4656, Note_on_c, 14, 76, 53
17, 4656, Control_c, 14, 6, 39
17, 4668, Note_off_c, 14, 76, 0
17, 4668, Note_off_c, 14, 69, 0
17, 4752, Control_c, 14, 6, 64
17, 5904, Note_on_c, 14, 69, 77
17, 5904, Note_on_c, 14, 76, 77
17, 5904, Control_c, 14, 6, 64
17, 5916, Note_off_c, 14, 76, 0
17, 5916, Note_off_c, 14, 69, 0
17, 5952, Note_on_c, 14, 69, 75
17, 5952, Note_on_c, 14, 76, 75
17, 5952, Control_c, 14, 6, 61
17, 5964, Note_off_c, 14, 76, 0
17, 5964, Note_off_c, 14, 69, 0
17, 6000, Note_on_c, 14, 69, 71
17, 6000, Note_on_c, 14, 76, 71
17, 6000, Control_c, 14, 6, 57
17, 6012, Note_off_c, 14, 69, 64
17, 6012, Note_off_c, 14, 76, 64
17, 6048, Note_on_c, 14, 69, 68
17, 6048, Note_on_c, 14, 76, 68
17, 6048, Control_c, 14, 6, 53
17, 6060, Note_off_c, 14, 76, 0
17, 6060, Note_off_c, 14, 69, 0
17, 6096, Note_on_c, 14, 69, 63
17, 6096, Note_on_c, 14, 76, 63
17, 6096, Control_c, 14, 6, 49
17, 6108, Note_off_c, 14, 69, 64
17, 6108, Note_off_c, 14, 76, 64
17, 6144, Note_on_c, 14, 69, 57
17, 6144, Note_on_c, 14, 76, 57
17, 6144, Control_c, 14, 6, 44
17, 6156, Note_off_c, 14, 76, 0
17, 6156, Note_off_c, 14, 69, 0
17, 6192, Note_on_c, 14, 69, 53
17, 6192, Note_on_c, 14, 76, 53
17, 6192, Control_c, 14, 6, 39
17, 6204, Note_off_c, 14, 76, 0
17, 6204, Note_off_c, 14, 69, 0
17, 6288, Control_c, 14, 6, 64
17, 7440, Note_on_c, 14, 69, 77
17, 7440, Note_on_c, 14, 76, 77
17, 7440, Control_c, 14, 6, 64
17, 7452, Note_off_c, 14, 76, 0
17, 7452, Note_off_c, 14, 69, 0
17, 7488, Note_on_c, 14, 69, 75
17, 7488, Note_on_c, 14, 76, 75
17, 7488, Control_c, 14, 6, 61
17, 7500, Note_off_c, 14, 76, 0
17, 7500, Note_off_c, 14, 69, 0
17, 7536, Note_on_c, 14, 69, 71
17, 7536, Note_on_c, 14, 76, 71
17, 7536, Control_c, 14, 6, 57
17, 7548, Note_off_c, 14, 76, 0
17, 7548, Note_off_c, 14, 69, 0
17, 7584, Note_on_c, 14, 69, 68
17, 7584, Note_on_c, 14, 76, 68
17, 7584, Control_c, 14, 6, 53
17, 7596, Note_off_c, 14, 76, 0
17, 7596, Note_off_c, 14, 69, 0
17, 7632, Note_on_c, 14, 69, 63
17, 7632, Note_on_c, 14, 76, 63
17, 7632, Control_c, 14, 6, 49
17, 7644, Note_off_c, 14, 76, 0
17, 7644, Note_off_c, 14, 69, 0
17, 7680, Note_on_c, 14, 69, 57
17, 7680, Note_on_c, 14, 76, 57
17, 7680, Control_c, 14, 6, 44
17, 7692, Note_off_c, 14, 76, 0
17, 7692, Note_off_c, 14, 69, 0
17, 7728, Note_on_c, 14, 69, 53
17, 7728, Note_on_c, 14, 76, 53
17, 7728, Control_c, 14, 6, 39
17, 7740, Note_off_c, 14, 76, 0
17, 7740, Note_off_c, 14, 69, 0
17, 7824, Control_c, 14, 6, 64
17, 8976, Note_on_c, 14, 69, 77
17, 8976, Note_on_c, 14, 76, 77
17, 8976, Control_c, 14, 6, 64
17, 8988, Note_off_c, 14, 76, 0
17, 8988, Note_off_c, 14, 69, 0
17, 9024, Note_on_c, 14, 69, 75
17, 9024, Note_on_c, 14, 76, 75
17, 9024, Control_c, 14, 6, 61
17, 9036, Note_off_c, 14, 76, 0
17, 9036, Note_off_c, 14, 69, 0
17, 9072, Note_on_c, 14, 69, 71
17, 9072, Note_on_c, 14, 76, 71
17, 9072, Control_c, 14, 6, 57
17, 9084, Note_off_c, 14, 76, 0
17, 9084, Note_off_c, 14, 69, 0
17, 9120, Note_on_c, 14, 69, 68
17, 9120, Note_on_c, 14, 76, 68
17, 9120, Control_c, 14, 6, 53
17, 9132, Note_off_c, 14, 76, 0
17, 9132, Note_off_c, 14, 69, 0
17, 9168, Note_on_c, 14, 69, 63
17, 9168, Note_on_c, 14, 76, 63
17, 9168, Control_c, 14, 6, 49
17, 9180, Note_off_c, 14, 76, 0
17, 9180, Note_off_c, 14, 69, 0
17, 9216, Note_on_c, 14, 69, 57
17, 9216, Note_on_c, 14, 76, 57
17, 9216, Control_c, 14, 6, 44
17, 9228, Note_off_c, 14, 76, 0
17, 9228, Note_off_c, 14, 69, 0
17, 9264, Note_on_c, 14, 69, 53
17, 9264, Note_on_c, 14, 76, 53
17, 9264, Control_c, 14, 6, 39
17, 9276, Note_off_c, 14, 76, 0
17, 9276, Note_off_c, 14, 69, 0
17, 9360, Control_c, 14, 6, 64
17, 10512, Note_on_c, 14, 69, 77
17, 10512, Note_on_c, 14, 76, 77
17, 10512, Control_c, 14, 6, 64
17, 10524, Note_off_c, 14, 76, 0
17, 10524, Note_off_c, 14, 69, 0
17, 10560, Note_on_c, 14, 69, 75
17, 10560, Note_on_c, 14, 76, 75
17, 10560, Control_c, 14, 6, 61
17, 10572, Note_off_c, 14, 76, 0
17, 10572, Note_off_c, 14, 69, 0
17, 10608, Note_on_c, 14, 69, 71
17, 10608, Note_on_c, 14, 76, 71
17, 10608, Control_c, 14, 6, 57
17, 10620, Note_off_c, 14, 76, 0
17, 10620, Note_off_c, 14, 69, 0
17, 10656, Note_on_c, 14, 69, 68
17, 10656, Note_on_c, 14, 76, 68
17, 10656, Control_c, 14, 6, 53
17, 10668, Note_off_c, 14, 76, 0
17, 10668, Note_off_c, 14, 69, 0
17, 10704, Note_on_c, 14, 69, 63
17, 10704, Note_on_c, 14, 76, 63
17, 10704, Control_c, 14, 6, 49
17, 10716, Note_off_c, 14, 76, 0
17, 10716, Note_off_c, 14, 69, 0
17, 10752, Note_on_c, 14, 69, 57
17, 10752, Note_on_c, 14, 76, 57
17, 10752, Control_c, 14, 6, 44
17, 10764, Note_off_c, 14, 76, 0
17, 10764, Note_off_c, 14, 69, 0
17, 10800, Note_on_c, 14, 69, 53
17, 10800, Note_on_c, 14, 76, 53
17, 10800, Control_c, 14, 6, 39
17, 10812, Note_off_c, 14, 76, 0
17, 10812, Note_off_c, 14, 69, 0
17, 10896, Control_c, 14, 6, 64
17, 12048, Note_on_c, 14, 69, 77
17, 12048, Note_on_c, 14, 76, 77
17, 12048, Control_c, 14, 6, 64
17, 12060, Note_off_c, 14, 76, 0
17, 12060, Note_off_c, 14, 69, 0
17, 12096, Note_on_c, 14, 69, 75
17, 12096, Note_on_c, 14, 76, 75
17, 12096, Control_c, 14, 6, 61
17, 12108, Note_off_c, 14, 76, 0
17, 12108, Note_off_c, 14, 69, 0
17, 12144, Note_on_c, 14, 69, 71
17, 12144, Note_on_c, 14, 76, 71
17, 12144, Control_c, 14, 6, 57
17, 12156, Note_off_c, 14, 76, 0
17, 12156, Note_off_c, 14, 69, 0
17, 12192, Note_on_c, 14, 69, 68
17, 12192, Note_on_c, 14, 76, 68
17, 12192, Control_c, 14, 6, 53
17, 12204, Note_off_c, 14, 76, 0
17, 12204, Note_off_c, 14, 69, 0
17, 12240, Note_on_c, 14, 69, 63
17, 12240, Note_on_c, 14, 76, 63
17, 12240, Control_c, 14, 6, 49
17, 12252, Note_off_c, 14, 76, 0
17, 12252, Note_off_c, 14, 69, 0
17, 12288, Note_on_c, 14, 69, 57
17, 12288, Note_on_c, 14, 76, 57
17, 12288, Control_c, 14, 6, 44
17, 12300, Note_off_c, 14, 76, 0
17, 12300, Note_off_c, 14, 69, 0
17, 12336, Note_on_c, 14, 69, 53
17, 12336, Note_on_c, 14, 76, 53
17, 12336, Control_c, 14, 6, 39
17, 12348, Note_off_c, 14, 76, 0
17, 12348, Note_off_c, 14, 69, 0
17, 12432, Control_c, 14, 6, 64
17, 13584, Note_on_c, 14, 69, 77
17, 13584, Note_on_c, 14, 76, 77
17, 13584, Control_c, 14, 6, 64
17, 13596, Note_off_c, 14, 76, 0
17, 13596, Note_off_c, 14, 69, 0
17, 13632, Note_on_c, 14, 69, 75
17, 13632, Note_on_c, 14, 76, 75
17, 13632, Control_c, 14, 6, 61
17, 13644, Note_off_c, 14, 76, 0
17, 13644, Note_off_c, 14, 69, 0
17, 13680, Note_on_c, 14, 69, 71
17, 13680, Note_on_c, 14, 76, 71
17, 13680, Control_c, 14, 6, 57
17, 13692, Note_off_c, 14, 76, 0
17, 13692, Note_off_c, 14, 69, 0
17, 13728, Note_on_c, 14, 69, 68
17, 13728, Note_on_c, 14, 76, 68
17, 13728, Control_c, 14, 6, 53
17, 13740, Note_off_c, 14, 76, 0
17, 13740, Note_off_c, 14, 69, 0
17, 13776, Note_on_c, 14, 69, 63
17, 13776, Note_on_c, 14, 76, 63
17, 13776, Control_c, 14, 6, 49
17, 13788, Note_off_c, 14, 76, 0
17, 13788, Note_off_c, 14, 69, 0
17, 13824, Note_on_c, 14, 69, 57
17, 13824, Note_on_c, 14, 76, 57
17, 13824, Control_c, 14, 6, 44
17, 13836, Note_off_c, 14, 76, 0
17, 13836, Note_off_c, 14, 69, 0
17, 13872, Note_on_c, 14, 69, 53
17, 13872, Note_on_c, 14, 76, 53
17, 13872, Control_c, 14, 6, 39
17, 13884, Note_off_c, 14, 76, 0
17, 13884, Note_off_c, 14, 69, 0
17, 13968, Control_c, 14, 6, 64
17, 28560, Note_on_c, 14, 69, 77
17, 28560, Note_on_c, 14, 76, 77
17, 28560, Control_c, 14, 6, 64
17, 28572, Note_off_c, 14, 76, 0
17, 28572, Note_off_c, 14, 69, 0
17, 28608, Note_on_c, 14, 69, 75
17, 28608, Note_on_c, 14, 76, 75
17, 28608, Control_c, 14, 6, 61
17, 28620, Note_off_c, 14, 76, 0
17, 28620, Note_off_c, 14, 69, 0
17, 28656, Note_on_c, 14, 69, 71
17, 28656, Note_on_c, 14, 76, 71
17, 28656, Control_c, 14, 6, 57
17, 28668, Note_off_c, 14, 69, 64
17, 28668, Note_off_c, 14, 76, 64
17, 28704, Note_on_c, 14, 69, 68
17, 28704, Note_on_c, 14, 76, 68
17, 28704, Control_c, 14, 6, 53
17, 28716, Note_off_c, 14, 76, 0
17, 28716, Note_off_c, 14, 69, 0
17, 28752, Note_on_c, 14, 69, 63
17, 28752, Note_on_c, 14, 76, 63
17, 28752, Control_c, 14, 6, 49
17, 28764, Note_off_c, 14, 69, 64
17, 28764, Note_off_c, 14, 76, 64
17, 28800, Note_on_c, 14, 69, 57
17, 28800, Note_on_c, 14, 76, 57
17, 28800, Control_c, 14, 6, 44
17, 28812, Note_off_c, 14, 76, 0
17, 28812, Note_off_c, 14, 69, 0
17, 28848, Note_on_c, 14, 69, 53
17, 28848, Note_on_c, 14, 76, 53
17, 28848, Control_c, 14, 6, 39
17, 28860, Note_off_c, 14, 76, 0
17, 28860, Note_off_c, 14, 69, 0
17, 28944, Control_c, 14, 6, 64
17, 30096, Note_on_c, 14, 69, 77
17, 30096, Note_on_c, 14, 76, 77
17, 30096, Control_c, 14, 6, 64
17, 30108, Note_off_c, 14, 69, 64
17, 30108, Note_off_c, 14, 76, 64
17, 30144, Note_on_c, 14, 69, 75
17, 30144, Note_on_c, 14, 76, 75
17, 30144, Control_c, 14, 6, 61
17, 30156, Note_off_c, 14, 76, 0
17, 30156, Note_off_c, 14, 69, 0
17, 30192, Note_on_c, 14, 69, 71
17, 30192, Note_on_c, 14, 76, 71
17, 30192, Control_c, 14, 6, 57
17, 30204, Note_off_c, 14, 76, 0
17, 30204, Note_off_c, 14, 69, 0
17, 30240, Note_on_c, 14, 69, 68
17, 30240, Note_on_c, 14, 76, 68
17, 30240, Control_c, 14, 6, 53
17, 30252, Note_off_c, 14, 76, 0
17, 30252, Note_off_c, 14, 69, 0
17, 30288, Note_on_c, 14, 69, 63
17, 30288, Note_on_c, 14, 76, 63
17, 30288, Control_c, 14, 6, 49
17, 30300, Note_off_c, 14, 76, 0
17, 30300, Note_off_c, 14, 69, 0
17, 30336, Note_on_c, 14, 69, 57
17, 30336, Note_on_c, 14, 76, 57
17, 30336, Control_c, 14, 6, 44
17, 30348, Note_off_c, 14, 76, 0
17, 30348, Note_off_c, 14, 69, 0
17, 30384, Note_on_c, 14, 69, 53
17, 30384, Note_on_c, 14, 76, 53
17, 30384, Control_c, 14, 6, 39
17, 30396, Note_off_c, 14, 76, 0
17, 30396, Note_off_c, 14, 69, 0
17, 30480, Control_c, 14, 6, 64
17, 31632, Note_on_c, 14, 69, 77
17, 31632, Note_on_c, 14, 76, 77
17, 31632, Control_c, 14, 6, 64
17, 31644, Note_off_c, 14, 76, 0
17, 31644, Note_off_c, 14, 69, 0
17, 31680, Note_on_c, 14, 69, 75
17, 31680, Note_on_c, 14, 76, 75
17, 31680, Control_c, 14, 6, 61
17, 31692, Note_off_c, 14, 76, 0
17, 31692, Note_off_c, 14, 69, 0
17, 31728, Note_on_c, 14, 69, 71
17, 31728, Note_on_c, 14, 76, 71
17, 31728, Control_c, 14, 6, 57
17, 31740, Note_off_c, 14, 69, 64
17, 31740, Note_off_c, 14, 76, 64
17, 31776, Note_on_c, 14, 69, 68
17, 31776, Note_on_c, 14, 76, 68
17, 31776, Control_c, 14, 6, 53
17, 31788, Note_off_c, 14, 76, 0
17, 31788, Note_off_c, 14, 69, 0
17, 31824, Note_on_c, 14, 69, 63
17, 31824, Note_on_c, 14, 76, 63
17, 31824, Control_c, 14, 6, 49
17, 31836, Note_off_c, 14, 69, 64
17, 31836, Note_off_c, 14, 76, 64
17, 31872, Note_on_c, 14, 69, 57
17, 31872, Note_on_c, 14, 76, 57
17, 31872, Control_c, 14, 6, 44
17, 31884, Note_off_c, 14, 76, 0
17, 31884, Note_off_c, 14, 69, 0
17, 31920, Note_on_c, 14, 69, 53
17, 31920, Note_on_c, 14, 76, 53
17, 31920, Control_c, 14, 6, 39
17, 31932, Note_off_c, 14, 76, 0
17, 31932, Note_off_c, 14, 69, 0
17, 32016, Control_c, 14, 6, 64
17, 33168, Note_on_c, 14, 69, 77
17, 33168, Note_on_c, 14, 76, 77
17, 33168, Control_c, 14, 6, 64
17, 33180, Note_off_c, 14, 76, 0
17, 33180, Note_off_c, 14, 69, 0
17, 33216, Note_on_c, 14, 69, 75
17, 33216, Note_on_c, 14, 76, 75
17, 33216, Control_c, 14, 6, 61
17, 33228, Note_off_c, 14, 76, 0
17, 33228, Note_off_c, 14, 69, 0
17, 33264, Note_on_c, 14, 69, 71
17, 33264, Note_on_c, 14, 76, 71
17, 33264, Control_c, 14, 6, 57
17, 33276, Note_off_c, 14, 76, 0
17, 33276, Note_off_c, 14, 69, 0
17, 33312, Note_on_c, 14, 69, 68
17, 33312, Note_on_c, 14, 76, 68
17, 33312, Control_c, 14, 6, 53
17, 33324, Note_off_c, 14, 76, 0
17, 33324, Note_off_c, 14, 69, 0
17, 33360, Note_on_c, 14, 69, 63
17, 33360, Note_on_c, 14, 76, 63
17, 33360, Control_c, 14, 6, 49
17, 33372, Note_off_c, 14, 69, 64
17, 33372, Note_off_c, 14, 76, 64
17, 33408, Note_on_c, 14, 69, 57
17, 33408, Note_on_c, 14, 76, 57
17, 33408, Control_c, 14, 6, 44
17, 33420, Note_off_c, 14, 76, 0
17, 33420, Note_off_c, 14, 69, 0
17, 33456, Note_on_c, 14, 69, 53
17, 33456, Note_on_c, 14, 76, 53
17, 33456, Control_c, 14, 6, 39
17, 33468, Note_off_c, 14, 76, 0
17, 33468, Note_off_c, 14, 69, 0
17, 33552, Control_c, 14, 6, 64
17, 34704, Note_on_c, 14, 69, 77
17, 34704, Note_on_c, 14, 76, 77
17, 34704, Control_c, 14, 6, 64
17, 34716, Note_off_c, 14, 76, 0
17, 34716, Note_off_c, 14, 69, 0
17, 34752, Note_on_c, 14, 69, 75
17, 34752, Note_on_c, 14, 76, 75
17, 34752, Control_c, 14, 6, 61
17, 34764, Note_off_c, 14, 76, 0
17, 34764, Note_off_c, 14, 69, 0
17, 34800, Note_on_c, 14, 69, 71
17, 34800, Note_on_c, 14, 76, 71
17, 34800, Control_c, 14, 6, 57
17, 34812, Note_off_c, 14, 76, 0
17, 34812, Note_off_c, 14, 69, 0
17, 34848, Note_on_c, 14, 69, 68
17, 34848, Note_on_c, 14, 76, 68
17, 34848, Control_c, 14, 6, 53
17, 34860, Note_off_c, 14, 76, 0
17, 34860, Note_off_c, 14, 69, 0
17, 34896, Note_on_c, 14, 69, 63
17, 34896, Note_on_c, 14, 76, 63
17, 34896, Control_c, 14, 6, 49
17, 34908, Note_off_c, 14, 76, 0
17, 34908, Note_off_c, 14, 69, 0
17, 34944, Note_on_c, 14, 69, 57
17, 34944, Note_on_c, 14, 76, 57
17, 34944, Control_c, 14, 6, 44
17, 34956, Note_off_c, 14, 76, 0
17, 34956, Note_off_c, 14, 69, 0
17, 34992, Note_on_c, 14, 69, 53
17, 34992, Note_on_c, 14, 76, 53
17, 34992, Control_c, 14, 6, 39
17, 35004, Note_off_c, 14, 76, 0
17, 35004, Note_off_c, 14, 69, 0
17, 35088, Control_c, 14, 6, 64
17, 36240, Note_on_c, 14, 69, 77
17, 36240, Note_on_c, 14, 76, 77
17, 36240, Control_c, 14, 6, 64
17, 36252, Note_off_c, 14, 76, 0
17, 36252, Note_off_c, 14, 69, 0
17, 36288, Note_on_c, 14, 69, 75
17, 36288, Note_on_c, 14, 76, 75
17, 36288, Control_c, 14, 6, 61
17, 36300, Note_off_c, 14, 76, 0
17, 36300, Note_off_c, 14, 69, 0
17, 36336, Note_on_c, 14, 69, 71
17, 36336, Note_on_c, 14, 76, 71
17, 36336, Control_c, 14, 6, 57
17, 36348, Note_off_c, 14, 76, 0
17, 36348, Note_off_c, 14, 69, 0
17, 36384, Note_on_c, 14, 69, 68
17, 36384, Note_on_c, 14, 76, 68
17, 36384, Control_c, 14, 6, 53
17, 36396, Note_off_c, 14, 76, 0
17, 36396, Note_off_c, 14, 69, 0
17, 36432, Note_on_c, 14, 69, 63
17, 36432, Note_on_c, 14, 76, 63
17, 36432, Control_c, 14, 6, 49
17, 36444, Note_off_c, 14, 76, 0
17, 36444, Note_off_c, 14, 69, 0
17, 36480, Note_on_c, 14, 69, 57
17, 36480, Note_on_c, 14, 76, 57
17, 36480, Control_c, 14, 6, 44
17, 36492, Note_off_c, 14, 76, 0
17, 36492, Note_off_c, 14, 69, 0
17, 36528, Note_on_c, 14, 69, 53
17, 36528, Note_on_c, 14, 76, 53
17, 36528, Control_c, 14, 6, 39
17, 36540, Note_off_c, 14, 76, 0
17, 36540, Note_off_c, 14, 69, 0
17, 36624, Control_c, 14, 6, 64
17, 37776, Note_on_c, 14, 69, 77
17, 37776, Note_on_c, 14, 76, 77
17, 37776, Control_c, 14, 6, 64
17, 37788, Note_off_c, 14, 69, 64
17, 37788, Note_off_c, 14, 76, 64
17, 37824, Note_on_c, 14, 69, 75
17, 37824, Note_on_c, 14, 76, 75
17, 37824, Control_c, 14, 6, 61
17, 37836, Note_off_c, 14, 76, 0
17, 37836, Note_off_c, 14, 69, 0
17, 37872, Note_on_c, 14, 69, 71
17, 37872, Note_on_c, 14, 76, 71
17, 37872, Control_c, 14, 6, 57
17, 37884, Note_off_c, 14, 76, 0
17, 37884, Note_off_c, 14, 69, 0
17, 37920, Note_on_c, 14, 69, 68
17, 37920, Note_on_c, 14, 76, 68
17, 37920, Control_c, 14, 6, 53
17, 37932, Note_off_c, 14, 76, 0
17, 37932, Note_off_c, 14, 69, 0
17, 37968, Note_on_c, 14, 69, 63
17, 37968, Note_on_c, 14, 76, 63
17, 37968, Control_c, 14, 6, 49
17, 37980, Note_off_c, 14, 76, 0
17, 37980, Note_off_c, 14, 69, 0
17, 38016, Note_on_c, 14, 69, 57
17, 38016, Note_on_c, 14, 76, 57
17, 38016, Control_c, 14, 6, 44
17, 38028, Note_off_c, 14, 76, 0
17, 38028, Note_off_c, 14, 69, 0
17, 38064, Note_on_c, 14, 69, 53
17, 38064, Note_on_c, 14, 76, 53
17, 38064, Control_c, 14, 6, 39
17, 38076, Note_off_c, 14, 76, 0
17, 38076, Note_off_c, 14, 69, 0
17, 38160, Control_c, 14, 6, 64
17, 39312, Note_on_c, 14, 69, 77
17, 39312, Note_on_c, 14, 76, 77
17, 39312, Control_c, 14, 6, 64
17, 39324, Note_off_c, 14, 69, 64
17, 39324, Note_off_c, 14, 76, 64
17, 39360, Note_on_c, 14, 69, 75
17, 39360, Note_on_c, 14, 76, 75
17, 39360, Control_c, 14, 6, 61
17, 39372, Note_off_c, 14, 69, 64
17, 39372, Note_off_c, 14, 76, 64
17, 39408, Note_on_c, 14, 69, 71
17, 39408, Note_on_c, 14, 76, 71
17, 39408, Control_c, 14, 6, 57
17, 39420, Note_off_c, 14, 69, 64
17, 39420, Note_off_c, 14, 76, 64
17, 39456, Note_on_c, 14, 69, 68
17, 39456, Note_on_c, 14, 76, 68
17, 39456, Control_c, 14, 6, 53
17, 39468, Note_off_c, 14, 76, 0
17, 39468, Note_off_c, 14, 69, 0
17, 39504, Note_on_c, 14, 69, 63
17, 39504, Note_on_c, 14, 76, 63
17, 39504, Control_c, 14, 6, 49
17, 39516, Note_off_c, 14, 76, 0
17, 39516, Note_off_c, 14, 69, 0
17, 39552, Note_on_c, 14, 69, 57
17, 39552, Note_on_c, 14, 76, 57
17, 39552, Control_c, 14, 6, 44
17, 39564, Note_off_c, 14, 76, 0
17, 39564, Note_off_c, 14, 69, 0
17, 39600, Note_on_c, 14, 69, 53
17, 39600, Note_on_c, 14, 76, 53
17, 39600, Control_c, 14, 6, 39
17, 39612, Note_off_c, 14, 76, 0
17, 39612, Note_off_c, 14, 69, 0
17, 39696, Control_c, 14, 6, 64
17, 60288, End_track
0, 0, End_of_file
