0, 0, Header, 1, 15, 192
1, 0, Start_track
1, 0, Tempo, 408163
1, 0, Time_signature, 4, 2, 24, 8
1, 0, Key_signature, 0, "major"
1, 0, End_track
2, 0, Start_track
2, 0, Title_t, "BASS & SNARE"
2, 0, Channel_prefix, 9
2, 0, Control_c, 9, 7, 93
2, 0, Program_c, 9, 0
2, 576, Note_on_c, 9, 38, 126
2, 609, Note_off_c, 9, 38, 64
2, 662, Note_on_c, 9, 38, 122
2, 713, Note_off_c, 9, 38, 64
2, 768, Note_on_c, 9, 36, 121
2, 862, Note_off_c, 9, 36, 64
2, 960, Note_on_c, 9, 38, 127
2, 1054, Note_off_c, 9, 38, 64
2, 1056, Note_on_c, 9, 38, 124
2, 1150, Note_off_c, 9, 38, 64
2, 1344, Note_on_c, 9, 38, 127
2, 1438, Note_off_c, 9, 38, 64
2, 1536, Note_on_c, 9, 36, 127
2, 1630, Note_off_c, 9, 36, 64
2, 1728, Note_on_c, 9, 38, 124
2, 1822, Note_off_c, 9, 38, 64
2, 1824, Note_on_c, 9, 38, 124
2, 1918, Note_off_c, 9, 38, 64
2, 2112, Note_on_c, 9, 38, 126
2, 2206, Note_off_c, 9, 38, 64
2, 2304, Note_on_c, 9, 36, 122
2, 2398, Note_off_c, 9, 36, 64
2, 2496, Note_on_c, 9, 38, 122
2, 2590, Note_off_c, 9, 38, 64
2, 2592, Note_on_c, 9, 38, 122
2, 2686, Note_off_c, 9, 38, 64
2, 2880, Note_on_c, 9, 38, 122
2, 2974, Note_off_c, 9, 38, 64
2, 3072, Note_on_c, 9, 36, 126
2, 3166, Note_off_c, 9, 36, 64
2, 3264, Note_on_c, 9, 38, 127
2, 3358, Note_off_c, 9, 38, 64
2, 3360, Note_on_c, 9, 38, 124
2, 3454, Note_off_c, 9, 38, 64
2, 3648, Note_on_c, 9, 38, 117
2, 3742, Note_off_c, 9, 38, 64
2, 3840, Note_on_c, 9, 36, 124
2, 3934, Note_off_c, 9, 36, 64
2, 4032, Note_on_c, 9, 38, 122
2, 4126, Note_off_c, 9, 38, 64
2, 4128, Note_on_c, 9, 38, 124
2, 4222, Note_off_c, 9, 38, 64
2, 4416, Note_on_c, 9, 38, 127
2, 4510, Note_off_c, 9, 38, 64
2, 4608, Note_on_c, 9, 36, 120
2, 4702, Note_off_c, 9, 36, 64
2, 4800, Note_on_c, 9, 38, 127
2, 4894, Note_off_c, 9, 38, 64
2, 4896, Note_on_c, 9, 38, 126
2, 4990, Note_off_c, 9, 38, 64
2, 5184, Note_on_c, 9, 38, 127
2, 5278, Note_off_c, 9, 38, 64
2, 5376, Note_on_c, 9, 36, 127
2, 5470, Note_off_c, 9, 36, 64
2, 5568, Note_on_c, 9, 38, 124
2, 5662, Note_off_c, 9, 38, 64
2, 5664, Note_on_c, 9, 38, 124
2, 5758, Note_off_c, 9, 38, 64
2, 5952, Note_on_c, 9, 38, 127
2, 6046, Note_off_c, 9, 38, 64
2, 6144, Note_on_c, 9, 36, 127
2, 6238, Note_off_c, 9, 36, 64
2, 6336, Note_on_c, 9, 38, 127
2, 6430, Note_off_c, 9, 38, 64
2, 6432, Note_on_c, 9, 38, 124
2, 6526, Note_off_c, 9, 38, 64
2, 6720, Note_on_c, 9, 38, 126
2, 6814, Note_off_c, 9, 38, 64
2, 6912, Note_on_c, 9, 36, 127
2, 7006, Note_off_c, 9, 36, 64
2, 7104, Note_on_c, 9, 38, 127
2, 7198, Note_off_c, 9, 38, 64
2, 7200, Note_on_c, 9, 38, 126
2, 7294, Note_off_c, 9, 38, 64
2, 7488, Note_on_c, 9, 38, 122
2, 7582, Note_off_c, 9, 38, 64
2, 7680, Note_on_c, 9, 36, 127
2, 7774, Note_off_c, 9, 36, 64
2, 7872, Note_on_c, 9, 38, 127
2, 7966, Note_off_c, 9, 38, 64
2, 7968, Note_on_c, 9, 38, 121
2, 8062, Note_off_c, 9, 38, 64
2, 8256, Note_on_c, 9, 38, 127
2, 8350, Note_off_c, 9, 38, 64
2, 8448, Note_on_c, 9, 36, 127
2, 8542, Note_off_c, 9, 36, 64
2, 8640, Note_on_c, 9, 38, 126
2, 8734, Note_off_c, 9, 38, 64
2, 8736, Note_on_c, 9, 38, 122
2, 8830, Note_off_c, 9, 38, 64
2, 9024, Note_on_c, 9, 38, 127
2, 9118, Note_off_c, 9, 38, 64
2, 9216, Note_on_c, 9, 36, 126
2, 9310, Note_off_c, 9, 36, 64
2, 9408, Note_on_c, 9, 38, 124
2, 9502, Note_off_c, 9, 38, 64
2, 9504, Note_on_c, 9, 38, 127
2, 9598, Note_off_c, 9, 38, 64
2, 9792, Note_on_c, 9, 38, 124
2, 9886, Note_off_c, 9, 38, 64
2, 9984, Note_on_c, 9, 36, 121
2, 10078, Note_off_c, 9, 36, 64
2, 10176, Note_on_c, 9, 38, 127
2, 10270, Note_off_c, 9, 38, 64
2, 10272, Note_on_c, 9, 38, 124
2, 10366, Note_off_c, 9, 38, 64
2, 10560, Note_on_c, 9, 38, 127
2, 10654, Note_off_c, 9, 38, 64
2, 10752, Note_on_c, 9, 36, 127
2, 10846, Note_off_c, 9, 36, 64
2, 10944, Note_on_c, 9, 38, 124
2, 11038, Note_off_c, 9, 38, 64
2, 11040, Note_on_c, 9, 38, 124
2, 11134, Note_off_c, 9, 38, 64
2, 11328, Note_on_c, 9, 38, 126
2, 11422, Note_off_c, 9, 38, 64
2, 11520, Note_on_c, 9, 36, 122
2, 11614, Note_off_c, 9, 36, 64
2, 11712, Note_on_c, 9, 38, 122
2, 11806, Note_off_c, 9, 38, 64
2, 11808, Note_on_c, 9, 38, 122
2, 11902, Note_off_c, 9, 38, 64
2, 12096, Note_on_c, 9, 38, 122
2, 12190, Note_off_c, 9, 38, 64
2, 12288, Note_on_c, 9, 36, 126
2, 12382, Note_off_c, 9, 36, 64
2, 12480, Note_on_c, 9, 38, 127
2, 12574, Note_off_c, 9, 38, 64
2, 12576, Note_on_c, 9, 38, 124
2, 12670, Note_off_c, 9, 38, 64
2, 12864, Note_on_c, 9, 38, 117
2, 12958, Note_off_c, 9, 38, 64
2, 13056, Note_on_c, 9, 36, 124
2, 13150, Note_off_c, 9, 36, 64
2, 13248, Note_on_c, 9, 38, 122
2, 13342, Note_off_c, 9, 38, 64
2, 13344, Note_on_c, 9, 38, 124
2, 13438, Note_off_c, 9, 38, 64
2, 13632, Note_on_c, 9, 38, 127
2, 13726, Note_off_c, 9, 38, 64
2, 13824, Note_on_c, 9, 36, 120
2, 13918, Note_off_c, 9, 36, 64
2, 14016, Note_on_c, 9, 38, 127
2, 14110, Note_off_c, 9, 38, 64
2, 14112, Note_on_c, 9, 38, 126
2, 14206, Note_off_c, 9, 38, 64
2, 14400, Note_on_c, 9, 38, 127
2, 14494, Note_off_c, 9, 38, 64
2, 14592, Note_on_c, 9, 36, 121
2, 14686, Note_off_c, 9, 36, 64
2, 14784, Note_on_c, 9, 38, 127
2, 14878, Note_off_c, 9, 38, 64
2, 14880, Note_on_c, 9, 38, 124
2, 14974, Note_off_c, 9, 38, 64
2, 15168, Note_on_c, 9, 38, 127
2, 15262, Note_off_c, 9, 38, 64
2, 15360, Note_on_c, 9, 36, 127
2, 15454, Note_off_c, 9, 36, 64
2, 15552, Note_on_c, 9, 38, 124
2, 15646, Note_off_c, 9, 38, 64
2, 15648, Note_on_c, 9, 38, 124
2, 15742, Note_off_c, 9, 38, 64
2, 15936, Note_on_c, 9, 38, 126
2, 16030, Note_off_c, 9, 38, 64
2, 16128, Note_on_c, 9, 36, 122
2, 16222, Note_off_c, 9, 36, 64
2, 16320, Note_on_c, 9, 38, 122
2, 16414, Note_off_c, 9, 38, 64
2, 16416, Note_on_c, 9, 38, 122
2, 16510, Note_off_c, 9, 38, 64
2, 16704, Note_on_c, 9, 38, 122
2, 16798, Note_off_c, 9, 38, 64
2, 16896, Note_on_c, 9, 36, 126
2, 16990, Note_off_c, 9, 36, 64
2, 17088, Note_on_c, 9, 38, 127
2, 17182, Note_off_c, 9, 38, 64
2, 17184, Note_on_c, 9, 38, 124
2, 17278, Note_off_c, 9, 38, 64
2, 17472, Note_on_c, 9, 38, 117
2, 17566, Note_off_c, 9, 38, 64
2, 17664, Note_on_c, 9, 36, 124
2, 17758, Note_off_c, 9, 36, 64
2, 17856, Note_on_c, 9, 38, 122
2, 17950, Note_off_c, 9, 38, 64
2, 17952, Note_on_c, 9, 38, 124
2, 18046, Note_off_c, 9, 38, 64
2, 18240, Note_on_c, 9, 38, 127
2, 18334, Note_off_c, 9, 38, 64
2, 18432, Note_on_c, 9, 36, 120
2, 18526, Note_off_c, 9, 36, 64
2, 18624, Note_on_c, 9, 38, 127
2, 18718, Note_off_c, 9, 38, 64
2, 18720, Note_on_c, 9, 38, 126
2, 18814, Note_off_c, 9, 38, 64
2, 19008, Note_on_c, 9, 38, 127
2, 19102, Note_off_c, 9, 38, 64
2, 19200, Note_on_c, 9, 36, 121
2, 19294, Note_off_c, 9, 36, 64
2, 19392, Note_on_c, 9, 38, 127
2, 19486, Note_off_c, 9, 38, 64
2, 19488, Note_on_c, 9, 38, 124
2, 19582, Note_off_c, 9, 38, 64
2, 19776, Note_on_c, 9, 38, 127
2, 19870, Note_off_c, 9, 38, 64
2, 19968, Note_on_c, 9, 36, 127
2, 20062, Note_off_c, 9, 36, 64
2, 20160, Note_on_c, 9, 38, 124
2, 20254, Note_off_c, 9, 38, 64
2, 20256, Note_on_c, 9, 38, 124
2, 20350, Note_off_c, 9, 38, 64
2, 20544, Note_on_c, 9, 38, 126
2, 20638, Note_off_c, 9, 38, 64
2, 20736, Note_on_c, 9, 36, 122
2, 20830, Note_off_c, 9, 36, 64
2, 20928, Note_on_c, 9, 38, 122
2, 21022, Note_off_c, 9, 38, 64
2, 21024, Note_on_c, 9, 38, 122
2, 21118, Note_off_c, 9, 38, 64
2, 21312, Note_on_c, 9, 38, 122
2, 21406, Note_off_c, 9, 38, 64
2, 21504, Note_on_c, 9, 36, 126
2, 21598, Note_off_c, 9, 36, 64
2, 21696, Note_on_c, 9, 38, 127
2, 21790, Note_off_c, 9, 38, 64
2, 21792, Note_on_c, 9, 38, 124
2, 21886, Note_off_c, 9, 38, 64
2, 22080, Note_on_c, 9, 38, 117
2, 22174, Note_off_c, 9, 38, 64
2, 22272, Note_on_c, 9, 36, 124
2, 22366, Note_off_c, 9, 36, 64
2, 22464, Note_on_c, 9, 38, 122
2, 22558, Note_off_c, 9, 38, 64
2, 22560, Note_on_c, 9, 38, 124
2, 22654, Note_off_c, 9, 38, 64
2, 22848, Note_on_c, 9, 38, 127
2, 22942, Note_off_c, 9, 38, 64
2, 23040, Note_on_c, 9, 36, 120
2, 23134, Note_off_c, 9, 36, 64
2, 23232, Note_on_c, 9, 38, 127
2, 23326, Note_off_c, 9, 38, 64
2, 23328, Note_on_c, 9, 38, 126
2, 23422, Note_off_c, 9, 38, 64
2, 23616, Note_on_c, 9, 38, 127
2, 23710, Note_off_c, 9, 38, 64
2, 23808, Note_on_c, 9, 36, 127
2, 23902, Note_off_c, 9, 36, 64
2, 24000, Note_on_c, 9, 38, 124
2, 24094, Note_off_c, 9, 38, 64
2, 24096, Note_on_c, 9, 38, 124
2, 24190, Note_off_c, 9, 38, 64
2, 24384, Note_on_c, 9, 38, 127
2, 24478, Note_off_c, 9, 38, 64
2, 24576, Note_on_c, 9, 36, 127
2, 24670, Note_off_c, 9, 36, 64
2, 24768, Note_on_c, 9, 38, 127
2, 24862, Note_off_c, 9, 38, 64
2, 24864, Note_on_c, 9, 38, 124
2, 24958, Note_off_c, 9, 38, 64
2, 25152, Note_on_c, 9, 38, 126
2, 25246, Note_off_c, 9, 38, 64
2, 25344, Note_on_c, 9, 36, 127
2, 25438, Note_off_c, 9, 36, 64
2, 25536, Note_on_c, 9, 38, 127
2, 25630, Note_off_c, 9, 38, 64
2, 25632, Note_on_c, 9, 38, 126
2, 25726, Note_off_c, 9, 38, 64
2, 25920, Note_on_c, 9, 38, 122
2, 26014, Note_off_c, 9, 38, 64
2, 26112, Note_on_c, 9, 36, 127
2, 26206, Note_off_c, 9, 36, 64
2, 26304, Note_on_c, 9, 38, 127
2, 26398, Note_off_c, 9, 38, 64
2, 26400, Note_on_c, 9, 38, 121
2, 26494, Note_off_c, 9, 38, 64
2, 26688, Note_on_c, 9, 38, 127
2, 26782, Note_off_c, 9, 38, 64
2, 26880, Note_on_c, 9, 36, 127
2, 26974, Note_off_c, 9, 36, 64
2, 27072, Note_on_c, 9, 38, 126
2, 27166, Note_off_c, 9, 38, 64
2, 27168, Note_on_c, 9, 38, 122
2, 27262, Note_off_c, 9, 38, 64
2, 27456, Note_on_c, 9, 38, 127
2, 27550, Note_off_c, 9, 38, 64
2, 27648, Note_on_c, 9, 36, 126
2, 27742, Note_off_c, 9, 36, 64
2, 27840, Note_on_c, 9, 38, 124
2, 27934, Note_off_c, 9, 38, 64
2, 27936, Note_on_c, 9, 38, 127
2, 28030, Note_off_c, 9, 38, 64
2, 28224, Note_on_c, 9, 38, 124
2, 28318, Note_off_c, 9, 38, 64
2, 28416, Note_on_c, 9, 36, 121
2, 28510, Note_off_c, 9, 36, 64
2, 28608, Note_on_c, 9, 38, 127
2, 28702, Note_off_c, 9, 38, 64
2, 28704, Note_on_c, 9, 38, 124
2, 28798, Note_off_c, 9, 38, 64
2, 28992, Note_on_c, 9, 38, 127
2, 29086, Note_off_c, 9, 38, 64
2, 29184, Note_on_c, 9, 36, 127
2, 29278, Note_off_c, 9, 36, 64
2, 29376, Note_on_c, 9, 38, 124
2, 29470, Note_off_c, 9, 38, 64
2, 29472, Note_on_c, 9, 38, 124
2, 29566, Note_off_c, 9, 38, 64
2, 29760, Note_on_c, 9, 38, 126
2, 29854, Note_off_c, 9, 38, 64
2, 29952, Note_on_c, 9, 36, 122
2, 30046, Note_off_c, 9, 36, 64
2, 30144, Note_on_c, 9, 38, 122
2, 30238, Note_off_c, 9, 38, 64
2, 30240, Note_on_c, 9, 38, 122
2, 30334, Note_off_c, 9, 38, 64
2, 30528, Note_on_c, 9, 38, 122
2, 30622, Note_off_c, 9, 38, 64
2, 30720, Note_on_c, 9, 36, 126
2, 30814, Note_off_c, 9, 36, 64
2, 30912, Note_on_c, 9, 38, 127
2, 31006, Note_off_c, 9, 38, 64
2, 31008, Note_on_c, 9, 38, 124
2, 31102, Note_off_c, 9, 38, 64
2, 31296, Note_on_c, 9, 38, 117
2, 31390, Note_off_c, 9, 38, 64
2, 31488, Note_on_c, 9, 36, 124
2, 31582, Note_off_c, 9, 36, 64
2, 31680, Note_on_c, 9, 38, 122
2, 31774, Note_off_c, 9, 38, 64
2, 31776, Note_on_c, 9, 38, 124
2, 31870, Note_off_c, 9, 38, 64
2, 32064, Note_on_c, 9, 38, 127
2, 32158, Note_off_c, 9, 38, 64
2, 32256, Note_on_c, 9, 36, 120
2, 32350, Note_off_c, 9, 36, 64
2, 32448, Note_on_c, 9, 38, 127
2, 32542, Note_off_c, 9, 38, 64
2, 32544, Note_on_c, 9, 38, 126
2, 32638, Note_off_c, 9, 38, 64
2, 32832, Note_on_c, 9, 38, 127
2, 32926, Note_off_c, 9, 38, 64
2, 33024, Note_on_c, 9, 36, 127
2, 33118, Note_off_c, 9, 36, 64
2, 33216, Note_on_c, 9, 38, 124
2, 33310, Note_off_c, 9, 38, 64
2, 33312, Note_on_c, 9, 38, 124
2, 33406, Note_off_c, 9, 38, 64
2, 33600, Note_on_c, 9, 38, 127
2, 33694, Note_off_c, 9, 38, 64
2, 33792, Note_on_c, 9, 36, 127
2, 33886, Note_off_c, 9, 36, 64
2, 33984, Note_on_c, 9, 38, 127
2, 34078, Note_off_c, 9, 38, 64
2, 34080, Note_on_c, 9, 38, 124
2, 34174, Note_off_c, 9, 38, 64
2, 34368, Note_on_c, 9, 38, 126
2, 34462, Note_off_c, 9, 38, 64
2, 34560, Note_on_c, 9, 36, 127
2, 34654, Note_off_c, 9, 36, 64
2, 34752, Note_on_c, 9, 38, 127
2, 34846, Note_off_c, 9, 38, 64
2, 34848, Note_on_c, 9, 38, 126
2, 34942, Note_off_c, 9, 38, 64
2, 35136, Note_on_c, 9, 38, 122
2, 35230, Note_off_c, 9, 38, 64
2, 35328, Note_on_c, 9, 36, 127
2, 35422, Note_off_c, 9, 36, 64
2, 35520, Note_on_c, 9, 38, 127
2, 35614, Note_off_c, 9, 38, 64
2, 35616, Note_on_c, 9, 38, 121
2, 35710, Note_off_c, 9, 38, 64
2, 35904, Note_on_c, 9, 38, 127
2, 35998, Note_off_c, 9, 38, 64
2, 36096, Note_on_c, 9, 36, 127
2, 36190, Note_off_c, 9, 36, 64
2, 36288, Note_on_c, 9, 38, 126
2, 36382, Note_off_c, 9, 38, 64
2, 36384, Note_on_c, 9, 38, 122
2, 36478, Note_off_c, 9, 38, 64
2, 36672, Note_on_c, 9, 38, 127
2, 36766, Note_off_c, 9, 38, 64
2, 36864, Note_on_c, 9, 36, 126
2, 36958, Note_off_c, 9, 36, 64
2, 37056, Note_on_c, 9, 38, 124
2, 37150, Note_off_c, 9, 38, 64
2, 37152, Note_on_c, 9, 38, 127
2, 37246, Note_off_c, 9, 38, 64
2, 37440, Note_on_c, 9, 38, 124
2, 37534, Note_off_c, 9, 38, 64
2, 37632, Note_on_c, 9, 36, 121
2, 37726, Note_off_c, 9, 36, 64
2, 37824, Note_on_c, 9, 38, 127
2, 37918, Note_off_c, 9, 38, 64
2, 37920, Note_on_c, 9, 38, 124
2, 38014, Note_off_c, 9, 38, 64
2, 38208, Note_on_c, 9, 38, 127
2, 38302, Note_off_c, 9, 38, 64
2, 38400, Note_on_c, 9, 36, 127
2, 38494, Note_off_c, 9, 36, 64
2, 38592, Note_on_c, 9, 38, 124
2, 38686, Note_off_c, 9, 38, 64
2, 38688, Note_on_c, 9, 38, 124
2, 38782, Note_off_c, 9, 38, 64
2, 38976, Note_on_c, 9, 38, 126
2, 39070, Note_off_c, 9, 38, 64
2, 39168, Note_on_c, 9, 36, 122
2, 39262, Note_off_c, 9, 36, 64
2, 39360, Note_on_c, 9, 38, 122
2, 39454, Note_off_c, 9, 38, 64
2, 39456, Note_on_c, 9, 38, 122
2, 39550, Note_off_c, 9, 38, 64
2, 39744, Note_on_c, 9, 38, 122
2, 39838, Note_off_c, 9, 38, 64
2, 39936, Note_on_c, 9, 36, 126
2, 40030, Note_off_c, 9, 36, 64
2, 40128, Note_on_c, 9, 38, 127
2, 40222, Note_off_c, 9, 38, 64
2, 40224, Note_on_c, 9, 38, 124
2, 40318, Note_off_c, 9, 38, 64
2, 40512, Note_on_c, 9, 38, 117
2, 40606, Note_off_c, 9, 38, 64
2, 40704, Note_on_c, 9, 36, 124
2, 40798, Note_off_c, 9, 36, 64
2, 40896, Note_on_c, 9, 38, 122
2, 40990, Note_off_c, 9, 38, 64
2, 40992, Note_on_c, 9, 38, 124
2, 41086, Note_off_c, 9, 38, 64
2, 41280, Note_on_c, 9, 38, 127
2, 41374, Note_off_c, 9, 38, 64
2, 41472, Note_on_c, 9, 36, 120
2, 41566, Note_off_c, 9, 36, 64
2, 41664, Note_on_c, 9, 38, 127
2, 41758, Note_off_c, 9, 38, 64
2, 41760, Note_on_c, 9, 38, 126
2, 41854, Note_off_c, 9, 38, 64
2, 42048, Note_on_c, 9, 38, 127
2, 42142, Note_off_c, 9, 38, 64
2, 42240, Note_on_c, 9, 36, 127
2, 42334, Note_off_c, 9, 36, 64
2, 42432, Note_on_c, 9, 38, 124
2, 42526, Note_off_c, 9, 38, 64
2, 42528, Note_on_c, 9, 38, 124
2, 42622, Note_off_c, 9, 38, 64
2, 42816, Note_on_c, 9, 38, 127
2, 42910, Note_off_c, 9, 38, 64
2, 43008, Note_on_c, 9, 36, 127
2, 43102, Note_off_c, 9, 36, 64
2, 43200, Note_on_c, 9, 38, 127
2, 43294, Note_off_c, 9, 38, 64
2, 43296, Note_on_c, 9, 38, 124
2, 43390, Note_off_c, 9, 38, 64
2, 43584, Note_on_c, 9, 38, 126
2, 43678, Note_off_c, 9, 38, 64
2, 43776, Note_on_c, 9, 36, 127
2, 43870, Note_off_c, 9, 36, 64
2, 43968, Note_on_c, 9, 38, 127
2, 44062, Note_off_c, 9, 38, 64
2, 44064, Note_on_c, 9, 38, 126
2, 44158, Note_off_c, 9, 38, 64
2, 44352, Note_on_c, 9, 38, 122
2, 44446, Note_off_c, 9, 38, 64
2, 44544, Note_on_c, 9, 36, 127
2, 44638, Note_off_c, 9, 36, 64
2, 44736, Note_on_c, 9, 38, 127
2, 44830, Note_off_c, 9, 38, 64
2, 44832, Note_on_c, 9, 38, 121
2, 44926, Note_off_c, 9, 38, 64
2, 45120, Note_on_c, 9, 38, 127
2, 45214, Note_off_c, 9, 38, 64
2, 45312, Note_on_c, 9, 36, 127
2, 45406, Note_off_c, 9, 36, 64
2, 45504, Note_on_c, 9, 38, 126
2, 45598, Note_off_c, 9, 38, 64
2, 45600, Note_on_c, 9, 38, 122
2, 45694, Note_off_c, 9, 38, 64
2, 45888, Note_on_c, 9, 38, 127
2, 45982, Note_off_c, 9, 38, 64
2, 46080, Note_on_c, 9, 36, 126
2, 46174, Note_off_c, 9, 36, 64
2, 46272, Note_on_c, 9, 38, 124
2, 46366, Note_off_c, 9, 38, 64
2, 46368, Note_on_c, 9, 38, 127
2, 46462, Note_off_c, 9, 38, 64
2, 46656, Note_on_c, 9, 38, 124
2, 46750, Note_off_c, 9, 38, 64
2, 46848, Note_on_c, 9, 36, 121
2, 46942, Note_off_c, 9, 36, 64
2, 47040, Note_on_c, 9, 38, 127
2, 47134, Note_off_c, 9, 38, 64
2, 47136, Note_on_c, 9, 38, 124
2, 47230, Note_off_c, 9, 38, 64
2, 47424, Note_on_c, 9, 38, 127
2, 47518, Note_off_c, 9, 38, 64
2, 47616, Note_on_c, 9, 36, 127
2, 47710, Note_off_c, 9, 36, 64
2, 47808, Note_on_c, 9, 38, 124
2, 47902, Note_off_c, 9, 38, 64
2, 47904, Note_on_c, 9, 38, 124
2, 47998, Note_off_c, 9, 38, 64
2, 48192, Note_on_c, 9, 38, 126
2, 48286, Note_off_c, 9, 38, 64
2, 48384, Note_on_c, 9, 36, 122
2, 48478, Note_off_c, 9, 36, 64
2, 48576, Note_on_c, 9, 38, 122
2, 48670, Note_off_c, 9, 38, 64
2, 48672, Note_on_c, 9, 38, 122
2, 48766, Note_off_c, 9, 38, 64
2, 48960, Note_on_c, 9, 38, 122
2, 49054, Note_off_c, 9, 38, 64
2, 49152, Note_on_c, 9, 36, 126
2, 49246, Note_off_c, 9, 36, 64
2, 49344, Note_on_c, 9, 38, 127
2, 49438, Note_off_c, 9, 38, 64
2, 49440, Note_on_c, 9, 38, 124
2, 49534, Note_off_c, 9, 38, 64
2, 49728, Note_on_c, 9, 38, 117
2, 49822, Note_off_c, 9, 38, 64
2, 49920, Note_on_c, 9, 36, 124
2, 50014, Note_off_c, 9, 36, 64
2, 50112, Note_on_c, 9, 38, 122
2, 50206, Note_off_c, 9, 38, 64
2, 50208, Note_on_c, 9, 38, 124
2, 50302, Note_off_c, 9, 38, 64
2, 50496, Note_on_c, 9, 38, 127
2, 50590, Note_off_c, 9, 38, 64
2, 50688, Note_on_c, 9, 36, 120
2, 50782, Note_off_c, 9, 36, 64
2, 50880, Note_on_c, 9, 38, 127
2, 50974, Note_off_c, 9, 38, 64
2, 50976, Note_on_c, 9, 38, 126
2, 51070, Note_off_c, 9, 38, 64
2, 51264, Note_on_c, 9, 38, 127
2, 51358, Note_off_c, 9, 38, 64
2, 51456, Note_on_c, 9, 36, 127
2, 51550, Note_off_c, 9, 36, 64
2, 51648, Note_on_c, 9, 38, 124
2, 51742, Note_off_c, 9, 38, 64
2, 51744, Note_on_c, 9, 38, 124
2, 51838, Note_off_c, 9, 38, 64
2, 52032, Note_on_c, 9, 38, 127
2, 52126, Note_off_c, 9, 38, 64
2, 52224, Note_on_c, 9, 36, 127
2, 52318, Note_off_c, 9, 36, 64
2, 52416, Note_on_c, 9, 38, 127
2, 52510, Note_off_c, 9, 38, 64
2, 52512, Note_on_c, 9, 38, 124
2, 52606, Note_off_c, 9, 38, 64
2, 52800, Note_on_c, 9, 38, 126
2, 52894, Note_off_c, 9, 38, 64
2, 52992, Note_on_c, 9, 36, 127
2, 53086, Note_off_c, 9, 36, 64
2, 53184, Note_on_c, 9, 38, 127
2, 53278, Note_off_c, 9, 38, 64
2, 53280, Note_on_c, 9, 38, 126
2, 53374, Note_off_c, 9, 38, 64
2, 53568, Note_on_c, 9, 38, 122
2, 53662, Note_off_c, 9, 38, 64
2, 53760, Note_on_c, 9, 36, 127
2, 53854, Note_off_c, 9, 36, 64
2, 53952, Note_on_c, 9, 38, 127
2, 54046, Note_off_c, 9, 38, 64
2, 54048, Note_on_c, 9, 38, 121
2, 54142, Note_off_c, 9, 38, 64
2, 54336, Note_on_c, 9, 38, 127
2, 54430, Note_off_c, 9, 38, 64
2, 54528, Note_on_c, 9, 36, 127
2, 54622, Note_off_c, 9, 36, 64
2, 54720, Note_on_c, 9, 38, 126
2, 54814, Note_off_c, 9, 38, 64
2, 54816, Note_on_c, 9, 38, 122
2, 54910, Note_off_c, 9, 38, 64
2, 55104, Note_on_c, 9, 38, 127
2, 55198, Note_off_c, 9, 38, 64
2, 55296, Note_on_c, 9, 36, 126
2, 55390, Note_off_c, 9, 36, 64
2, 55488, Note_on_c, 9, 38, 124
2, 55582, Note_off_c, 9, 38, 64
2, 55584, Note_on_c, 9, 38, 127
2, 55678, Note_off_c, 9, 38, 64
2, 55872, Note_on_c, 9, 38, 124
2, 55966, Note_off_c, 9, 38, 64
2, 56064, Note_on_c, 9, 36, 127
2, 56158, Note_off_c, 9, 36, 64
2, 56256, Note_on_c, 9, 38, 127
2, 56350, Note_off_c, 9, 38, 64
2, 56352, Note_on_c, 9, 38, 126
2, 56446, Note_off_c, 9, 38, 64
2, 56640, Note_on_c, 9, 38, 122
2, 56734, Note_off_c, 9, 38, 64
2, 56832, Note_on_c, 9, 36, 127
2, 56926, Note_off_c, 9, 36, 64
2, 57024, Note_on_c, 9, 38, 127
2, 57118, Note_off_c, 9, 38, 64
2, 57120, Note_on_c, 9, 38, 121
2, 57214, Note_off_c, 9, 38, 64
2, 57408, Note_on_c, 9, 38, 127
2, 57502, Note_off_c, 9, 38, 64
2, 57600, Note_on_c, 9, 36, 127
2, 57694, Note_off_c, 9, 36, 64
2, 57792, Note_on_c, 9, 38, 126
2, 57886, Note_off_c, 9, 38, 64
2, 57888, Note_on_c, 9, 38, 122
2, 57982, Note_off_c, 9, 38, 64
2, 58176, Note_on_c, 9, 38, 127
2, 58270, Note_off_c, 9, 38, 64
2, 58368, Note_on_c, 9, 36, 126
2, 58462, Note_off_c, 9, 36, 64
2, 58560, Note_on_c, 9, 38, 124
2, 58654, Note_off_c, 9, 38, 64
2, 58656, Note_on_c, 9, 38, 127
2, 58750, Note_off_c, 9, 38, 64
2, 58944, Note_on_c, 9, 38, 124
2, 59038, Note_off_c, 9, 38, 64
2, 59136, Note_on_c, 9, 36, 122
2, 59230, Note_off_c, 9, 36, 64
2, 59328, Note_on_c, 9, 38, 121
2, 59422, Note_off_c, 9, 38, 64
2, 59424, Note_on_c, 9, 38, 116
2, 59518, Note_off_c, 9, 38, 64
2, 59712, Note_on_c, 9, 38, 122
2, 59806, Note_off_c, 9, 38, 64
2, 59904, Note_on_c, 9, 36, 121
2, 59998, Note_off_c, 9, 36, 64
2, 60096, Note_on_c, 9, 38, 116
2, 60190, Note_off_c, 9, 38, 64
2, 60192, Note_on_c, 9, 38, 114
2, 60286, Note_off_c, 9, 38, 64
2, 60480, Note_on_c, 9, 38, 120
2, 60574, Note_off_c, 9, 38, 64
2, 60672, Note_on_c, 9, 36, 120
2, 60766, Note_off_c, 9, 36, 64
2, 60864, Note_on_c, 9, 38, 121
2, 60958, Note_off_c, 9, 38, 64
2, 60960, Note_on_c, 9, 38, 117
2, 61054, Note_off_c, 9, 38, 64
2, 61248, Note_on_c, 9, 38, 111
2, 61342, Note_off_c, 9, 38, 64
2, 61440, Note_on_c, 9, 36, 122
2, 61534, Note_off_c, 9, 36, 64
2, 61632, Note_on_c, 9, 38, 120
2, 61726, Note_off_c, 9, 38, 64
2, 61728, Note_on_c, 9, 38, 117
2, 61822, Note_off_c, 9, 38, 64
2, 62016, Note_on_c, 9, 38, 121
2, 62110, Note_off_c, 9, 38, 64
2, 62208, Note_on_c, 9, 36, 122
2, 62302, Note_off_c, 9, 36, 64
2, 62400, Note_on_c, 9, 38, 121
2, 62494, Note_off_c, 9, 38, 64
2, 62496, Note_on_c, 9, 38, 116
2, 62590, Note_off_c, 9, 38, 64
2, 62784, Note_on_c, 9, 38, 122
2, 62878, Note_off_c, 9, 38, 64
2, 62976, Note_on_c, 9, 36, 121
2, 63070, Note_off_c, 9, 36, 64
2, 63168, Note_on_c, 9, 38, 116
2, 63262, Note_off_c, 9, 38, 64
2, 63264, Note_on_c, 9, 38, 114
2, 63358, Note_off_c, 9, 38, 64
2, 63552, Note_on_c, 9, 38, 120
2, 63646, Note_off_c, 9, 38, 64
2, 63744, Note_on_c, 9, 36, 120
2, 63838, Note_off_c, 9, 36, 64
2, 63936, Note_on_c, 9, 38, 121
2, 64030, Note_off_c, 9, 38, 64
2, 64032, Note_on_c, 9, 38, 117
2, 64126, Note_off_c, 9, 38, 64
2, 64320, Note_on_c, 9, 38, 111
2, 64414, Note_off_c, 9, 38, 64
2, 64505, Note_on_c, 9, 38, 126
2, 64510, Note_on_c, 9, 36, 126
2, 64539, Note_off_c, 9, 36, 64
2, 64539, Note_off_c, 9, 38, 64
2, 64558, Note_on_c, 9, 38, 127
2, 64563, Note_on_c, 9, 36, 124
2, 64596, Note_off_c, 9, 38, 64
2, 64601, Note_off_c, 9, 36, 64
2, 64606, Note_on_c, 9, 36, 124
2, 64606, Note_on_c, 9, 38, 124
2, 64635, Note_off_c, 9, 38, 64
2, 64635, Note_off_c, 9, 36, 64
2, 64659, Note_on_c, 9, 36, 127
2, 64659, Note_on_c, 9, 38, 122
2, 64692, Note_off_c, 9, 38, 64
2, 64692, Note_off_c, 9, 36, 64
2, 64700, Note_on_c, 9, 36, 126
2, 64700, Note_on_c, 9, 38, 127
2, 64734, Note_off_c, 9, 38, 64
2, 64734, Note_off_c, 9, 36, 64
2, 65006, Note_on_c, 9, 38, 127
2, 65035, Note_off_c, 9, 38, 64
2, 65097, Note_on_c, 9, 38, 124
2, 65136, Note_off_c, 9, 38, 64
2, 69206, Control_c, 9, 7, 117
2, 69219, Control_c, 9, 7, 108
2, 69228, Control_c, 9, 7, 97
2, 69243, Control_c, 9, 7, 87
2, 69252, Control_c, 9, 7, 76
2, 69267, Control_c, 9, 7, 68
2, 69276, Control_c, 9, 7, 63
2, 69294, Control_c, 9, 7, 62
2, 70748, Note_on_c, 9, 38, 117
2, 70785, Note_off_c, 9, 38, 64
2, 70838, Note_on_c, 9, 38, 116
2, 70875, Note_off_c, 9, 38, 64
2, 70875, Control_c, 9, 7, 63
2, 70889, Control_c, 9, 7, 65
2, 70908, Control_c, 9, 7, 67
2, 70923, Control_c, 9, 7, 69
2, 70932, Note_on_c, 9, 38, 116
2, 70932, Control_c, 9, 7, 71
2, 70950, Control_c, 9, 7, 74
2, 70964, Control_c, 9, 7, 76
2, 70969, Note_off_c, 9, 38, 64
2, 70979, Control_c, 9, 7, 78
2, 70993, Control_c, 9, 7, 80
2, 71008, Control_c, 9, 7, 82
2, 71025, Control_c, 9, 7, 84
2, 71030, Note_on_c, 9, 38, 120
2, 71040, Control_c, 9, 7, 87
2, 71054, Control_c, 9, 7, 90
2, 71068, Note_off_c, 9, 38, 64
2, 71068, Control_c, 9, 7, 92
2, 71083, Control_c, 9, 7, 95
2, 71097, Control_c, 9, 7, 97
2, 71110, Control_c, 9, 7, 100
2, 71124, Control_c, 9, 7, 103
2, 71124, Note_on_c, 9, 38, 122
2, 71139, Control_c, 9, 7, 107
2, 71153, Control_c, 9, 7, 111
2, 71163, Note_off_c, 9, 38, 64
2, 71168, Control_c, 9, 7, 115
2, 71176, Control_c, 9, 7, 118
2, 71195, Control_c, 9, 7, 121
2, 71209, Control_c, 9, 7, 125
2, 71224, Control_c, 9, 7, 127
2, 71224, Note_on_c, 9, 38, 122
2, 71256, Note_off_c, 9, 38, 64
2, 71313, Note_on_c, 9, 38, 122
2, 71345, Note_off_c, 9, 38, 64
2, 71424, Note_on_c, 9, 36, 126
2, 71470, Note_off_c, 9, 36, 64
2, 71609, Note_on_c, 9, 38, 124
2, 71643, Note_off_c, 9, 38, 64
2, 71704, Note_on_c, 9, 38, 127
2, 71740, Note_off_c, 9, 38, 64
2, 71990, Note_on_c, 9, 38, 127
2, 72028, Note_off_c, 9, 38, 64
2, 72188, Note_on_c, 9, 36, 127
2, 72220, Note_off_c, 9, 36, 64
2, 72385, Note_on_c, 9, 38, 127
2, 72414, Note_off_c, 9, 38, 64
2, 72480, Note_on_c, 9, 38, 127
2, 72521, Note_off_c, 9, 38, 64
2, 72756, Note_on_c, 9, 38, 127
2, 72800, Note_off_c, 9, 38, 64
2, 72955, Note_on_c, 9, 36, 127
2, 72992, Note_off_c, 9, 36, 64
2, 73147, Note_on_c, 9, 38, 126
2, 73176, Note_off_c, 9, 38, 64
2, 73241, Note_on_c, 9, 38, 122
2, 73284, Note_off_c, 9, 38, 64
2, 73532, Note_on_c, 9, 38, 127
2, 73576, Note_off_c, 9, 38, 64
2, 73736, Note_on_c, 9, 36, 126
2, 73772, Note_off_c, 9, 36, 64
2, 73928, Note_on_c, 9, 38, 127
2, 73961, Note_off_c, 9, 38, 64
2, 74032, Note_on_c, 9, 38, 127
2, 74075, Note_off_c, 9, 38, 64
2, 74313, Note_on_c, 9, 38, 127
2, 74356, Note_off_c, 9, 38, 64
2, 74502, Note_on_c, 9, 36, 127
2, 74545, Note_off_c, 9, 36, 64
2, 74700, Note_on_c, 9, 38, 127
2, 74732, Note_off_c, 9, 38, 64
2, 74798, Note_on_c, 9, 38, 127
2, 74846, Note_off_c, 9, 38, 64
2, 75076, Note_on_c, 9, 38, 127
2, 75118, Note_off_c, 9, 38, 64
2, 75264, Note_on_c, 9, 36, 127
2, 75302, Note_off_c, 9, 36, 64
2, 75467, Note_on_c, 9, 38, 127
2, 75504, Note_off_c, 9, 38, 64
2, 75566, Note_on_c, 9, 38, 124
2, 75612, Note_off_c, 9, 38, 64
2, 75852, Note_on_c, 9, 38, 127
2, 75894, Note_off_c, 9, 38, 64
2, 76059, Note_on_c, 9, 36, 124
2, 76102, Note_off_c, 9, 36, 64
2, 76228, Note_on_c, 9, 38, 126
2, 76267, Note_off_c, 9, 38, 64
2, 76328, Note_on_c, 9, 38, 122
2, 76374, Note_off_c, 9, 38, 64
2, 76604, Note_on_c, 9, 38, 127
2, 76648, Note_off_c, 9, 38, 64
2, 76817, Note_on_c, 9, 36, 124
2, 76854, Note_off_c, 9, 36, 64
2, 77004, Note_on_c, 9, 38, 122
2, 77043, Note_off_c, 9, 38, 64
2, 77104, Note_on_c, 9, 38, 127
2, 77145, Note_off_c, 9, 38, 64
2, 77390, Note_on_c, 9, 38, 127
2, 77433, Note_off_c, 9, 38, 64
2, 77568, Note_on_c, 9, 36, 124
2, 77662, Note_off_c, 9, 36, 64
2, 77760, Note_on_c, 9, 38, 127
2, 77854, Note_off_c, 9, 38, 64
2, 77856, Note_on_c, 9, 38, 127
2, 77950, Note_off_c, 9, 38, 64
2, 78144, Note_on_c, 9, 38, 127
2, 78238, Note_off_c, 9, 38, 64
2, 78336, Note_on_c, 9, 36, 124
2, 78430, Note_off_c, 9, 36, 64
2, 78528, Note_on_c, 9, 38, 111
2, 78622, Note_off_c, 9, 38, 64
2, 78624, Note_on_c, 9, 38, 127
2, 78718, Note_off_c, 9, 38, 64
2, 78912, Note_on_c, 9, 38, 124
2, 79006, Note_off_c, 9, 38, 64
2, 79104, Note_on_c, 9, 36, 122
2, 79198, Note_off_c, 9, 36, 64
2, 79296, Note_on_c, 9, 38, 124
2, 79390, Note_off_c, 9, 38, 64
2, 79392, Note_on_c, 9, 38, 126
2, 79486, Note_off_c, 9, 38, 64
2, 79680, Note_on_c, 9, 38, 127
2, 79774, Note_off_c, 9, 38, 64
2, 79872, Note_on_c, 9, 36, 124
2, 79966, Note_off_c, 9, 36, 64
2, 80064, Note_on_c, 9, 38, 122
2, 80158, Note_off_c, 9, 38, 64
2, 80160, Note_on_c, 9, 38, 124
2, 80254, Note_off_c, 9, 38, 64
2, 80448, Note_on_c, 9, 38, 127
2, 80542, Note_off_c, 9, 38, 64
2, 80640, Note_on_c, 9, 36, 127
2, 80734, Note_off_c, 9, 36, 64
2, 80832, Note_on_c, 9, 38, 124
2, 80926, Note_off_c, 9, 38, 64
2, 80928, Note_on_c, 9, 38, 126
2, 81022, Note_off_c, 9, 38, 64
2, 81216, Note_on_c, 9, 38, 127
2, 81310, Note_off_c, 9, 38, 64
2, 81411, Note_on_c, 9, 36, 122
2, 81457, Note_off_c, 9, 36, 64
2, 81593, Note_on_c, 9, 38, 124
2, 81632, Note_off_c, 9, 38, 64
2, 81692, Note_on_c, 9, 38, 126
2, 81736, Note_off_c, 9, 38, 64
2, 81974, Note_on_c, 9, 38, 127
2, 82017, Note_off_c, 9, 38, 64
2, 82177, Note_on_c, 9, 36, 127
2, 82214, Note_off_c, 9, 36, 64
2, 82374, Note_on_c, 9, 38, 127
2, 82408, Note_off_c, 9, 38, 64
2, 82468, Note_on_c, 9, 38, 126
2, 82521, Note_off_c, 9, 38, 64
2, 82752, Note_on_c, 9, 38, 127
2, 82793, Note_off_c, 9, 38, 64
2, 82944, Note_on_c, 9, 36, 124
2, 82982, Note_off_c, 9, 36, 64
2, 83132, Note_on_c, 9, 38, 122
2, 83169, Note_off_c, 9, 38, 64
2, 83240, Note_on_c, 9, 38, 124
2, 83288, Note_off_c, 9, 38, 64
2, 83523, Note_on_c, 9, 38, 127
2, 83564, Note_off_c, 9, 38, 64
2, 83715, Note_on_c, 9, 36, 127
2, 83753, Note_off_c, 9, 36, 64
2, 83899, Note_on_c, 9, 38, 126
2, 83936, Note_off_c, 9, 38, 64
2, 83998, Note_on_c, 9, 38, 127
2, 84044, Note_off_c, 9, 38, 64
2, 84280, Note_on_c, 9, 38, 127
2, 84323, Note_off_c, 9, 38, 64
2, 84481, Note_on_c, 9, 36, 127
2, 84520, Note_off_c, 9, 36, 64
2, 84675, Note_on_c, 9, 38, 127
2, 84713, Note_off_c, 9, 38, 64
2, 84774, Note_on_c, 9, 38, 122
2, 84820, Note_off_c, 9, 38, 64
2, 85060, Note_on_c, 9, 38, 127
2, 85099, Note_off_c, 9, 38, 64
2, 85254, Note_on_c, 9, 36, 124
2, 85291, Note_off_c, 9, 36, 64
2, 85436, Note_on_c, 9, 38, 122
2, 85470, Note_off_c, 9, 38, 64
2, 85540, Note_on_c, 9, 38, 124
2, 85587, Note_off_c, 9, 38, 64
2, 85827, Note_on_c, 9, 38, 127
2, 85865, Note_off_c, 9, 38, 64
2, 86020, Note_on_c, 9, 36, 124
2, 86062, Note_off_c, 9, 36, 64
2, 86208, Note_on_c, 9, 38, 124
2, 86246, Note_off_c, 9, 38, 64
2, 86316, Note_on_c, 9, 38, 127
2, 86363, Note_off_c, 9, 38, 64
2, 86603, Note_on_c, 9, 38, 127
2, 86646, Note_off_c, 9, 38, 64
2, 86796, Note_on_c, 9, 36, 127
2, 86833, Note_off_c, 9, 36, 64
2, 86990, Note_on_c, 9, 38, 124
2, 87027, Note_off_c, 9, 38, 64
2, 87092, Note_on_c, 9, 38, 127
2, 87140, Note_off_c, 9, 38, 64
2, 87376, Note_on_c, 9, 38, 124
2, 87417, Note_off_c, 9, 38, 64
2, 87568, Note_on_c, 9, 36, 127
2, 87606, Note_off_c, 9, 36, 64
2, 87756, Note_on_c, 9, 38, 124
2, 87793, Note_off_c, 9, 38, 64
2, 87859, Note_on_c, 9, 38, 127
2, 87902, Note_off_c, 9, 38, 64
2, 88152, Note_on_c, 9, 38, 127
2, 88193, Note_off_c, 9, 38, 64
2, 88348, Note_on_c, 9, 36, 127
2, 88382, Note_off_c, 9, 36, 64
2, 88512, Note_on_c, 9, 38, 124
2, 88606, Note_off_c, 9, 38, 64
2, 88608, Note_on_c, 9, 38, 114
2, 88702, Note_off_c, 9, 38, 64
2, 88896, Note_on_c, 9, 38, 126
2, 88990, Note_off_c, 9, 38, 64
2, 89088, Note_on_c, 9, 36, 124
2, 89182, Note_off_c, 9, 36, 64
2, 89280, Note_on_c, 9, 38, 122
2, 89374, Note_off_c, 9, 38, 64
2, 89376, Note_on_c, 9, 38, 122
2, 89470, Note_off_c, 9, 38, 64
2, 89664, Note_on_c, 9, 38, 127
2, 89758, Note_off_c, 9, 38, 64
2, 89856, Note_on_c, 9, 36, 124
2, 89950, Note_off_c, 9, 36, 64
2, 90048, Note_on_c, 9, 38, 124
2, 90142, Note_off_c, 9, 38, 64
2, 90144, Note_on_c, 9, 38, 126
2, 90238, Note_off_c, 9, 38, 64
2, 90432, Note_on_c, 9, 38, 127
2, 90526, Note_off_c, 9, 38, 64
2, 90624, Note_on_c, 9, 36, 122
2, 90718, Note_off_c, 9, 36, 64
2, 90816, Note_on_c, 9, 38, 127
2, 90910, Note_off_c, 9, 38, 64
2, 90912, Note_on_c, 9, 38, 124
2, 91006, Note_off_c, 9, 38, 64
2, 91200, Note_on_c, 9, 38, 126
2, 91294, Note_off_c, 9, 38, 64
2, 91392, Note_on_c, 9, 36, 122
2, 91486, Note_off_c, 9, 36, 64
2, 91486, End_track
3, 0, Start_track
3, 0, Title_t, "HI HATS & CYMBALS"
3, 0, Channel_prefix, 9
3, 0, Control_c, 9, 7, 93
3, 0, Program_c, 9, 0
3, 766, Note_on_c, 9, 49, 126
3, 804, Note_off_c, 9, 49, 64
3, 944, Note_on_c, 9, 42, 122
3, 976, Note_off_c, 9, 42, 64
3, 1038, Note_on_c, 9, 42, 116
3, 1076, Note_off_c, 9, 42, 64
3, 1144, Note_on_c, 9, 42, 121
3, 1177, Note_off_c, 9, 42, 64
3, 1238, Note_on_c, 9, 42, 121
3, 1276, Note_off_c, 9, 42, 64
3, 1344, Note_on_c, 9, 42, 122
3, 1377, Note_off_c, 9, 42, 64
3, 1433, Note_on_c, 9, 42, 121
3, 1472, Note_off_c, 9, 42, 64
3, 1524, Note_on_c, 9, 42, 120
3, 1563, Note_off_c, 9, 42, 64
3, 1620, Note_on_c, 9, 42, 121
3, 1649, Note_off_c, 9, 42, 64
3, 1710, Note_on_c, 9, 42, 121
3, 1744, Note_off_c, 9, 42, 64
3, 1811, Note_on_c, 9, 42, 122
3, 1840, Note_off_c, 9, 42, 64
3, 1905, Note_on_c, 9, 42, 121
3, 1939, Note_off_c, 9, 42, 64
3, 2011, Note_on_c, 9, 42, 121
3, 2040, Note_off_c, 9, 42, 64
3, 2112, Note_on_c, 9, 42, 121
3, 2140, Note_off_c, 9, 42, 64
3, 2201, Note_on_c, 9, 42, 117
3, 2235, Note_off_c, 9, 42, 64
3, 2302, Note_on_c, 9, 42, 117
3, 2331, Note_off_c, 9, 42, 64
3, 2392, Note_on_c, 9, 42, 117
3, 2425, Note_off_c, 9, 42, 64
3, 2492, Note_on_c, 9, 42, 120
3, 2526, Note_off_c, 9, 42, 64
3, 2588, Note_on_c, 9, 42, 120
3, 2620, Note_off_c, 9, 42, 64
3, 2688, Note_on_c, 9, 42, 121
3, 2716, Note_off_c, 9, 42, 64
3, 2784, Note_on_c, 9, 42, 120
3, 2817, Note_off_c, 9, 42, 64
3, 2873, Note_on_c, 9, 42, 122
3, 2912, Note_off_c, 9, 42, 64
3, 2964, Note_on_c, 9, 42, 120
3, 2998, Note_off_c, 9, 42, 64
3, 3060, Note_on_c, 9, 42, 122
3, 3094, Note_off_c, 9, 42, 64
3, 3155, Note_on_c, 9, 42, 121
3, 3188, Note_off_c, 9, 42, 64
3, 3260, Note_on_c, 9, 42, 121
3, 3289, Note_off_c, 9, 42, 64
3, 3350, Note_on_c, 9, 42, 121
3, 3379, Note_off_c, 9, 42, 64
3, 3451, Note_on_c, 9, 42, 120
3, 3484, Note_off_c, 9, 42, 64
3, 3547, Note_on_c, 9, 42, 116
3, 3579, Note_off_c, 9, 42, 64
3, 3641, Note_on_c, 9, 42, 121
3, 3680, Note_off_c, 9, 42, 64
3, 3742, Note_on_c, 9, 42, 121
3, 3771, Note_off_c, 9, 42, 64
3, 3827, Note_on_c, 9, 42, 126
3, 3856, Note_on_c, 9, 49, 124
3, 3865, Note_off_c, 9, 42, 64
3, 3884, Note_off_c, 9, 49, 64
3, 4048, Note_on_c, 9, 42, 126
3, 4075, Note_off_c, 9, 42, 64
3, 4137, Note_on_c, 9, 42, 121
3, 4171, Note_off_c, 9, 42, 64
3, 4233, Note_on_c, 9, 42, 116
3, 4262, Note_off_c, 9, 42, 64
3, 4328, Note_on_c, 9, 42, 120
3, 4356, Note_off_c, 9, 42, 64
3, 4424, Note_on_c, 9, 42, 120
3, 4452, Note_off_c, 9, 42, 64
3, 4515, Note_on_c, 9, 42, 121
3, 4542, Note_off_c, 9, 42, 64
3, 4600, Note_on_c, 9, 42, 120
3, 4628, Note_off_c, 9, 42, 64
3, 4686, Note_on_c, 9, 42, 120
3, 4715, Note_off_c, 9, 42, 64
3, 4771, Note_on_c, 9, 42, 120
3, 4804, Note_off_c, 9, 42, 64
3, 4867, Note_on_c, 9, 42, 120
3, 4900, Note_off_c, 9, 42, 64
3, 4963, Note_on_c, 9, 42, 121
3, 4996, Note_off_c, 9, 42, 64
3, 5057, Note_on_c, 9, 42, 120
3, 5086, Note_off_c, 9, 42, 64
3, 5158, Note_on_c, 9, 42, 121
3, 5187, Note_off_c, 9, 42, 64
3, 5252, Note_on_c, 9, 42, 122
3, 5281, Note_off_c, 9, 42, 64
3, 5353, Note_on_c, 9, 42, 121
3, 5382, Note_off_c, 9, 42, 64
3, 5444, Note_on_c, 9, 42, 117
3, 5473, Note_off_c, 9, 42, 64
3, 5534, Note_on_c, 9, 42, 121
3, 5563, Note_off_c, 9, 42, 64
3, 5640, Note_on_c, 9, 42, 120
3, 5664, Note_off_c, 9, 42, 64
3, 5729, Note_on_c, 9, 42, 122
3, 5763, Note_off_c, 9, 42, 64
3, 5830, Note_on_c, 9, 42, 117
3, 5864, Note_off_c, 9, 42, 64
3, 5926, Note_on_c, 9, 42, 121
3, 5955, Note_off_c, 9, 42, 64
3, 6025, Note_on_c, 9, 42, 116
3, 6054, Note_off_c, 9, 42, 64
3, 6126, Note_on_c, 9, 42, 121
3, 6155, Note_off_c, 9, 42, 64
3, 6220, Note_on_c, 9, 42, 121
3, 6244, Note_off_c, 9, 42, 64
3, 6321, Note_on_c, 9, 42, 116
3, 6345, Note_off_c, 9, 42, 64
3, 6412, Note_on_c, 9, 42, 120
3, 6440, Note_off_c, 9, 42, 64
3, 6512, Note_on_c, 9, 42, 121
3, 6540, Note_off_c, 9, 42, 64
3, 6612, Note_on_c, 9, 42, 120
3, 6636, Note_off_c, 9, 42, 64
3, 6712, Note_on_c, 9, 42, 124
3, 6740, Note_off_c, 9, 42, 64
3, 6808, Note_on_c, 9, 42, 127
3, 6841, Note_off_c, 9, 42, 64
3, 6908, Note_on_c, 9, 42, 124
3, 6908, Note_on_c, 9, 49, 124
3, 6940, Note_off_c, 9, 49, 64
3, 6940, Note_off_c, 9, 42, 64
3, 7105, Note_on_c, 9, 42, 117
3, 7129, Note_off_c, 9, 42, 64
3, 7206, Note_on_c, 9, 42, 124
3, 7220, Note_off_c, 9, 42, 64
3, 7296, Note_on_c, 9, 42, 122
3, 7315, Note_off_c, 9, 42, 64
3, 7401, Note_on_c, 9, 42, 117
3, 7416, Note_off_c, 9, 42, 64
3, 7488, Note_on_c, 9, 42, 124
3, 7507, Note_off_c, 9, 42, 64
3, 7592, Note_on_c, 9, 42, 121
3, 7611, Note_off_c, 9, 42, 64
3, 7683, Note_on_c, 9, 42, 121
3, 7702, Note_off_c, 9, 42, 64
3, 7777, Note_on_c, 9, 42, 122
3, 7796, Note_off_c, 9, 42, 64
3, 7878, Note_on_c, 9, 42, 120
3, 7897, Note_off_c, 9, 42, 64
3, 7979, Note_on_c, 9, 42, 117
3, 7996, Note_off_c, 9, 42, 64
3, 8068, Note_on_c, 9, 42, 117
3, 8088, Note_off_c, 9, 42, 64
3, 8164, Note_on_c, 9, 42, 117
3, 8179, Note_off_c, 9, 42, 64
3, 8259, Note_on_c, 9, 42, 121
3, 8278, Note_off_c, 9, 42, 64
3, 8355, Note_on_c, 9, 42, 121
3, 8369, Note_off_c, 9, 42, 64
3, 8446, Note_on_c, 9, 42, 120
3, 8465, Note_off_c, 9, 42, 64
3, 8536, Note_on_c, 9, 42, 121
3, 8555, Note_off_c, 9, 42, 64
3, 8641, Note_on_c, 9, 42, 116
3, 8656, Note_off_c, 9, 42, 64
3, 8731, Note_on_c, 9, 42, 120
3, 8745, Note_off_c, 9, 42, 64
3, 8822, Note_on_c, 9, 42, 124
3, 8841, Note_off_c, 9, 42, 64
3, 8918, Note_on_c, 9, 42, 121
3, 8932, Note_off_c, 9, 42, 64
3, 9012, Note_on_c, 9, 42, 116
3, 9032, Note_off_c, 9, 42, 64
3, 9104, Note_on_c, 9, 42, 122
3, 9123, Note_off_c, 9, 42, 64
3, 9203, Note_on_c, 9, 42, 120
3, 9217, Note_off_c, 9, 42, 64
3, 9299, Note_on_c, 9, 42, 120
3, 9313, Note_off_c, 9, 42, 64
3, 9395, Note_on_c, 9, 42, 120
3, 9409, Note_off_c, 9, 42, 64
3, 9504, Note_on_c, 9, 42, 121
3, 9518, Note_off_c, 9, 42, 64
3, 9600, Note_on_c, 9, 42, 122
3, 9609, Note_off_c, 9, 42, 64
3, 9689, Note_on_c, 9, 42, 120
3, 9708, Note_off_c, 9, 42, 64
3, 9800, Note_on_c, 9, 42, 120
3, 9819, Note_off_c, 9, 42, 64
3, 9896, Note_on_c, 9, 42, 121
3, 9913, Note_off_c, 9, 42, 64
3, 9985, Note_on_c, 9, 42, 116
3, 10004, Note_off_c, 9, 42, 64
3, 10076, Note_on_c, 9, 42, 116
3, 10096, Note_off_c, 9, 42, 64
3, 10171, Note_on_c, 9, 42, 111
3, 10200, Note_off_c, 9, 42, 64
3, 10272, Note_on_c, 9, 42, 120
3, 10291, Note_off_c, 9, 42, 64
3, 10368, Note_on_c, 9, 42, 120
3, 10385, Note_off_c, 9, 42, 64
3, 10457, Note_on_c, 9, 42, 116
3, 10476, Note_off_c, 9, 42, 64
3, 10553, Note_on_c, 9, 42, 121
3, 10572, Note_off_c, 9, 42, 64
3, 10648, Note_on_c, 9, 42, 120
3, 10662, Note_off_c, 9, 42, 64
3, 10744, Note_on_c, 9, 42, 108
3, 10758, Note_off_c, 9, 42, 64
3, 10840, Note_on_c, 9, 42, 117
3, 10857, Note_off_c, 9, 42, 64
3, 10939, Note_on_c, 9, 42, 117
3, 10958, Note_off_c, 9, 42, 64
3, 11030, Note_on_c, 9, 42, 121
3, 11049, Note_off_c, 9, 42, 64
3, 11120, Note_on_c, 9, 42, 121
3, 11139, Note_off_c, 9, 42, 64
3, 11216, Note_on_c, 9, 42, 116
3, 11230, Note_off_c, 9, 42, 64
3, 11307, Note_on_c, 9, 42, 120
3, 11321, Note_off_c, 9, 42, 64
3, 11396, Note_on_c, 9, 42, 116
3, 11416, Note_off_c, 9, 42, 64
3, 11492, Note_on_c, 9, 42, 121
3, 11512, Note_off_c, 9, 42, 64
3, 11592, Note_on_c, 9, 42, 117
3, 11606, Note_off_c, 9, 42, 64
3, 11688, Note_on_c, 9, 42, 120
3, 11702, Note_off_c, 9, 42, 64
3, 11784, Note_on_c, 9, 42, 117
3, 11798, Note_off_c, 9, 42, 64
3, 11878, Note_on_c, 9, 42, 121
3, 11892, Note_off_c, 9, 42, 64
3, 11969, Note_on_c, 9, 42, 120
3, 11988, Note_off_c, 9, 42, 64
3, 12068, Note_on_c, 9, 42, 117
3, 12088, Note_off_c, 9, 42, 64
3, 12174, Note_on_c, 9, 42, 120
3, 12188, Note_off_c, 9, 42, 64
3, 12275, Note_on_c, 9, 42, 116
3, 12292, Note_off_c, 9, 42, 64
3, 12379, Note_on_c, 9, 42, 108
3, 12388, Note_off_c, 9, 42, 64
3, 12465, Note_on_c, 9, 42, 122
3, 12489, Note_off_c, 9, 42, 64
3, 12564, Note_on_c, 9, 42, 124
3, 12584, Note_off_c, 9, 42, 64
3, 12656, Note_on_c, 9, 42, 121
3, 12675, Note_off_c, 9, 42, 64
3, 12756, Note_on_c, 9, 42, 114
3, 12779, Note_off_c, 9, 42, 64
3, 12856, Note_on_c, 9, 42, 124
3, 12875, Note_off_c, 9, 42, 64
3, 12947, Note_on_c, 9, 42, 121
3, 12961, Note_off_c, 9, 42, 64
3, 13036, Note_on_c, 9, 42, 124
3, 13051, Note_off_c, 9, 42, 64
3, 13147, Note_on_c, 9, 42, 111
3, 13161, Note_off_c, 9, 42, 64
3, 13241, Note_on_c, 9, 42, 116
3, 13256, Note_off_c, 9, 42, 64
3, 13347, Note_on_c, 9, 42, 111
3, 13361, Note_off_c, 9, 42, 64
3, 13443, Note_on_c, 9, 42, 117
3, 13457, Note_off_c, 9, 42, 64
3, 13532, Note_on_c, 9, 42, 121
3, 13547, Note_off_c, 9, 42, 64
3, 13633, Note_on_c, 9, 42, 111
3, 13648, Note_off_c, 9, 42, 64
3, 13728, Note_on_c, 9, 42, 117
3, 13742, Note_off_c, 9, 42, 64
3, 13819, Note_on_c, 9, 42, 122
3, 13838, Note_off_c, 9, 42, 64
3, 13920, Note_on_c, 9, 42, 117
3, 13939, Note_off_c, 9, 42, 64
3, 14009, Note_on_c, 9, 42, 116
3, 14024, Note_off_c, 9, 42, 64
3, 14110, Note_on_c, 9, 42, 117
3, 14120, Note_off_c, 9, 42, 64
3, 14200, Note_on_c, 9, 42, 116
3, 14214, Note_off_c, 9, 42, 64
3, 14291, Note_on_c, 9, 42, 117
3, 14310, Note_off_c, 9, 42, 64
3, 14392, Note_on_c, 9, 42, 121
3, 14406, Note_off_c, 9, 42, 64
3, 14486, Note_on_c, 9, 42, 116
3, 14500, Note_off_c, 9, 42, 64
3, 14587, Note_on_c, 9, 42, 117
3, 14606, Note_off_c, 9, 42, 64
3, 14681, Note_on_c, 9, 42, 122
3, 14700, Note_off_c, 9, 42, 64
3, 14777, Note_on_c, 9, 42, 116
3, 14796, Note_off_c, 9, 42, 64
3, 14878, Note_on_c, 9, 42, 120
3, 14902, Note_off_c, 9, 42, 64
3, 14982, Note_on_c, 9, 42, 120
3, 15001, Note_off_c, 9, 42, 64
3, 15083, Note_on_c, 9, 42, 122
3, 15097, Note_off_c, 9, 42, 64
3, 15172, Note_on_c, 9, 42, 121
3, 15192, Note_off_c, 9, 42, 64
3, 15273, Note_on_c, 9, 42, 120
3, 15288, Note_off_c, 9, 42, 64
3, 15374, Note_on_c, 9, 42, 111
3, 15387, Note_off_c, 9, 42, 64
3, 15478, Note_on_c, 9, 42, 108
3, 15492, Note_off_c, 9, 42, 64
3, 15569, Note_on_c, 9, 42, 120
3, 15584, Note_off_c, 9, 42, 64
3, 15659, Note_on_c, 9, 42, 121
3, 15673, Note_off_c, 9, 42, 64
3, 15750, Note_on_c, 9, 42, 124
3, 15769, Note_off_c, 9, 42, 64
3, 15846, Note_on_c, 9, 42, 120
3, 15860, Note_off_c, 9, 42, 64
3, 15931, Note_on_c, 9, 42, 121
3, 15950, Note_off_c, 9, 42, 64
3, 16027, Note_on_c, 9, 42, 121
3, 16041, Note_off_c, 9, 42, 64
3, 16126, Note_on_c, 9, 42, 121
3, 16145, Note_off_c, 9, 42, 64
3, 16222, Note_on_c, 9, 42, 120
3, 16241, Note_off_c, 9, 42, 64
3, 16318, Note_on_c, 9, 42, 108
3, 16332, Note_off_c, 9, 42, 64
3, 16417, Note_on_c, 9, 42, 109
3, 16432, Note_off_c, 9, 42, 64
3, 16508, Note_on_c, 9, 42, 121
3, 16528, Note_off_c, 9, 42, 64
3, 16603, Note_on_c, 9, 42, 114
3, 16627, Note_off_c, 9, 42, 64
3, 16699, Note_on_c, 9, 42, 124
3, 16718, Note_off_c, 9, 42, 64
3, 16795, Note_on_c, 9, 42, 117
3, 16814, Note_off_c, 9, 42, 64
3, 16889, Note_on_c, 9, 42, 114
3, 16908, Note_off_c, 9, 42, 64
3, 16985, Note_on_c, 9, 42, 111
3, 17004, Note_off_c, 9, 42, 64
3, 17075, Note_on_c, 9, 42, 120
3, 17094, Note_off_c, 9, 42, 64
3, 17176, Note_on_c, 9, 42, 114
3, 17190, Note_off_c, 9, 42, 64
3, 17267, Note_on_c, 9, 42, 117
3, 17291, Note_off_c, 9, 42, 64
3, 17366, Note_on_c, 9, 42, 121
3, 17385, Note_off_c, 9, 42, 64
3, 17462, Note_on_c, 9, 42, 116
3, 17481, Note_off_c, 9, 42, 64
3, 17552, Note_on_c, 9, 42, 111
3, 17571, Note_off_c, 9, 42, 64
3, 17657, Note_on_c, 9, 42, 114
3, 17676, Note_off_c, 9, 42, 64
3, 17753, Note_on_c, 9, 42, 116
3, 17776, Note_off_c, 9, 42, 64
3, 17857, Note_on_c, 9, 42, 120
3, 17872, Note_off_c, 9, 42, 64
3, 17948, Note_on_c, 9, 42, 117
3, 17968, Note_off_c, 9, 42, 64
3, 18057, Note_on_c, 9, 42, 117
3, 18072, Note_off_c, 9, 42, 64
3, 18144, Note_on_c, 9, 42, 124
3, 18163, Note_off_c, 9, 42, 64
3, 18248, Note_on_c, 9, 42, 108
3, 18262, Note_off_c, 9, 42, 64
3, 18339, Note_on_c, 9, 42, 121
3, 18353, Note_off_c, 9, 42, 64
3, 18425, Note_on_c, 9, 42, 121
3, 18440, Note_off_c, 9, 42, 64
3, 18515, Note_on_c, 9, 42, 120
3, 18534, Note_off_c, 9, 42, 64
3, 18611, Note_on_c, 9, 42, 121
3, 18635, Note_off_c, 9, 42, 64
3, 18712, Note_on_c, 9, 42, 121
3, 18729, Note_off_c, 9, 42, 64
3, 18811, Note_on_c, 9, 42, 114
3, 18825, Note_off_c, 9, 42, 64
3, 18902, Note_on_c, 9, 42, 120
3, 18916, Note_off_c, 9, 42, 64
3, 19006, Note_on_c, 9, 42, 114
3, 19025, Note_off_c, 9, 42, 64
3, 19097, Note_on_c, 9, 42, 120
3, 19116, Note_off_c, 9, 42, 64
3, 19201, Note_on_c, 9, 49, 127
3, 19254, Note_off_c, 9, 49, 64
3, 19384, Note_on_c, 9, 42, 116
3, 19403, Note_off_c, 9, 42, 64
3, 19478, Note_on_c, 9, 42, 124
3, 19497, Note_off_c, 9, 42, 64
3, 19574, Note_on_c, 9, 42, 120
3, 19593, Note_off_c, 9, 42, 64
3, 19675, Note_on_c, 9, 42, 117
3, 19688, Note_off_c, 9, 42, 64
3, 19760, Note_on_c, 9, 42, 124
3, 19774, Note_off_c, 9, 42, 64
3, 19851, Note_on_c, 9, 42, 116
3, 19870, Note_off_c, 9, 42, 64
3, 19940, Note_on_c, 9, 42, 116
3, 19960, Note_off_c, 9, 42, 64
3, 20032, Note_on_c, 9, 42, 120
3, 20046, Note_off_c, 9, 42, 64
3, 20142, Note_on_c, 9, 42, 114
3, 20160, Note_off_c, 9, 42, 64
3, 20236, Note_on_c, 9, 42, 117
3, 20256, Note_off_c, 9, 42, 64
3, 20337, Note_on_c, 9, 42, 117
3, 20356, Note_off_c, 9, 42, 64
3, 20432, Note_on_c, 9, 42, 116
3, 20451, Note_off_c, 9, 42, 64
3, 20537, Note_on_c, 9, 42, 114
3, 20561, Note_off_c, 9, 42, 64
3, 20632, Note_on_c, 9, 42, 117
3, 20651, Note_off_c, 9, 42, 64
3, 20732, Note_on_c, 9, 42, 121
3, 20752, Note_off_c, 9, 42, 64
3, 20828, Note_on_c, 9, 42, 121
3, 20848, Note_off_c, 9, 42, 64
3, 20923, Note_on_c, 9, 42, 117
3, 20947, Note_off_c, 9, 42, 64
3, 21028, Note_on_c, 9, 42, 117
3, 21043, Note_off_c, 9, 42, 64
3, 21118, Note_on_c, 9, 42, 120
3, 21137, Note_off_c, 9, 42, 64
3, 21209, Note_on_c, 9, 42, 120
3, 21228, Note_off_c, 9, 42, 64
3, 21300, Note_on_c, 9, 42, 121
3, 21315, Note_off_c, 9, 42, 64
3, 21390, Note_on_c, 9, 42, 120
3, 21414, Note_off_c, 9, 42, 64
3, 21486, Note_on_c, 9, 42, 121
3, 21505, Note_off_c, 9, 42, 64
3, 21582, Note_on_c, 9, 42, 117
3, 21600, Note_off_c, 9, 42, 64
3, 21676, Note_on_c, 9, 42, 117
3, 21696, Note_off_c, 9, 42, 64
3, 21787, Note_on_c, 9, 42, 116
3, 21801, Note_off_c, 9, 42, 64
3, 21876, Note_on_c, 9, 42, 121
3, 21896, Note_off_c, 9, 42, 64
3, 21972, Note_on_c, 9, 42, 120
3, 21992, Note_off_c, 9, 42, 64
3, 22072, Note_on_c, 9, 42, 111
3, 22086, Note_off_c, 9, 42, 64
3, 22163, Note_on_c, 9, 42, 117
3, 22177, Note_off_c, 9, 42, 64
3, 22268, Note_on_c, 9, 42, 120
3, 22283, Note_off_c, 9, 42, 64
3, 22363, Note_on_c, 9, 42, 121
3, 22382, Note_off_c, 9, 42, 64
3, 22459, Note_on_c, 9, 42, 121
3, 22473, Note_off_c, 9, 42, 64
3, 22553, Note_on_c, 9, 42, 116
3, 22572, Note_off_c, 9, 42, 64
3, 22649, Note_on_c, 9, 42, 121
3, 22664, Note_off_c, 9, 42, 64
3, 22740, Note_on_c, 9, 42, 121
3, 22760, Note_off_c, 9, 42, 64
3, 22835, Note_on_c, 9, 42, 117
3, 22854, Note_off_c, 9, 42, 64
3, 22926, Note_on_c, 9, 42, 117
3, 22945, Note_off_c, 9, 42, 64
3, 23020, Note_on_c, 9, 42, 111
3, 23035, Note_off_c, 9, 42, 64
3, 23126, Note_on_c, 9, 42, 121
3, 23145, Note_off_c, 9, 42, 64
3, 23232, Note_on_c, 9, 42, 108
3, 23251, Note_off_c, 9, 42, 64
3, 23321, Note_on_c, 9, 42, 120
3, 23340, Note_off_c, 9, 42, 64
3, 23412, Note_on_c, 9, 42, 117
3, 23436, Note_off_c, 9, 42, 64
3, 23507, Note_on_c, 9, 42, 116
3, 23526, Note_off_c, 9, 42, 64
3, 23608, Note_on_c, 9, 42, 116
3, 23622, Note_off_c, 9, 42, 64
3, 23704, Note_on_c, 9, 42, 108
3, 23728, Note_off_c, 9, 42, 64
3, 23798, Note_on_c, 9, 42, 117
3, 23822, Note_off_c, 9, 42, 64
3, 23899, Note_on_c, 9, 42, 114
3, 23913, Note_off_c, 9, 42, 64
3, 23988, Note_on_c, 9, 42, 121
3, 24008, Note_off_c, 9, 42, 64
3, 24089, Note_on_c, 9, 42, 120
3, 24108, Note_off_c, 9, 42, 64
3, 24190, Note_on_c, 9, 42, 120
3, 24208, Note_off_c, 9, 42, 64
3, 24284, Note_on_c, 9, 42, 121
3, 24299, Note_off_c, 9, 42, 64
3, 24380, Note_on_c, 9, 42, 111
3, 24404, Note_off_c, 9, 42, 64
3, 24475, Note_on_c, 9, 42, 116
3, 24494, Note_off_c, 9, 42, 64
3, 24571, Note_on_c, 9, 42, 121
3, 24590, Note_off_c, 9, 42, 64
3, 24662, Note_on_c, 9, 42, 111
3, 24681, Note_off_c, 9, 42, 64
3, 24761, Note_on_c, 9, 42, 114
3, 24780, Note_off_c, 9, 42, 64
3, 24852, Note_on_c, 9, 42, 121
3, 24872, Note_off_c, 9, 42, 64
3, 24966, Note_on_c, 9, 42, 111
3, 24985, Note_off_c, 9, 42, 64
3, 25072, Note_on_c, 9, 42, 116
3, 25086, Note_off_c, 9, 42, 64
3, 25153, Note_on_c, 9, 42, 121
3, 25176, Note_off_c, 9, 42, 64
3, 25252, Note_on_c, 9, 42, 120
3, 25276, Note_off_c, 9, 42, 64
3, 25348, Note_on_c, 9, 49, 126
3, 25409, Note_off_c, 9, 49, 64
3, 25548, Note_on_c, 9, 42, 122
3, 25563, Note_off_c, 9, 42, 64
3, 25630, Note_on_c, 9, 42, 121
3, 25648, Note_off_c, 9, 42, 64
3, 25720, Note_on_c, 9, 42, 116
3, 25739, Note_off_c, 9, 42, 64
3, 25820, Note_on_c, 9, 42, 108
3, 25835, Note_off_c, 9, 42, 64
3, 25910, Note_on_c, 9, 42, 117
3, 25924, Note_off_c, 9, 42, 64
3, 26001, Note_on_c, 9, 42, 121
3, 26016, Note_off_c, 9, 42, 64
3, 26092, Note_on_c, 9, 42, 121
3, 26112, Note_off_c, 9, 42, 64
3, 26192, Note_on_c, 9, 42, 116
3, 26211, Note_off_c, 9, 42, 64
3, 26283, Note_on_c, 9, 42, 114
3, 26307, Note_off_c, 9, 42, 64
3, 26377, Note_on_c, 9, 42, 117
3, 26396, Note_off_c, 9, 42, 64
3, 26483, Note_on_c, 9, 42, 116
3, 26497, Note_off_c, 9, 42, 64
3, 26579, Note_on_c, 9, 42, 108
3, 26601, Note_off_c, 9, 42, 64
3, 26673, Note_on_c, 9, 42, 121
3, 26697, Note_off_c, 9, 42, 64
3, 26784, Note_on_c, 9, 42, 96
3, 26803, Note_off_c, 9, 42, 64
3, 26873, Note_on_c, 9, 42, 120
3, 26897, Note_off_c, 9, 42, 64
3, 26984, Note_on_c, 9, 42, 103
3, 27003, Note_off_c, 9, 42, 64
3, 27073, Note_on_c, 9, 42, 116
3, 27092, Note_off_c, 9, 42, 64
3, 27174, Note_on_c, 9, 42, 117
3, 27193, Note_off_c, 9, 42, 64
3, 27270, Note_on_c, 9, 42, 111
3, 27289, Note_off_c, 9, 42, 64
3, 27379, Note_on_c, 9, 42, 111
3, 27393, Note_off_c, 9, 42, 64
3, 27460, Note_on_c, 9, 42, 121
3, 27484, Note_off_c, 9, 42, 64
3, 27564, Note_on_c, 9, 42, 116
3, 27584, Note_off_c, 9, 42, 64
3, 27660, Note_on_c, 9, 42, 116
3, 27680, Note_off_c, 9, 42, 64
3, 27752, Note_on_c, 9, 42, 111
3, 27766, Note_off_c, 9, 42, 64
3, 27841, Note_on_c, 9, 42, 114
3, 27860, Note_off_c, 9, 42, 64
3, 27932, Note_on_c, 9, 42, 121
3, 27956, Note_off_c, 9, 42, 64
3, 28027, Note_on_c, 9, 42, 114
3, 28046, Note_off_c, 9, 42, 64
3, 28123, Note_on_c, 9, 42, 116
3, 28137, Note_off_c, 9, 42, 64
3, 28214, Note_on_c, 9, 42, 120
3, 28233, Note_off_c, 9, 42, 64
3, 28323, Note_on_c, 9, 42, 122
3, 28342, Note_off_c, 9, 42, 64
3, 28409, Note_on_c, 9, 49, 127
3, 28467, Note_off_c, 9, 49, 64
3, 28619, Note_on_c, 9, 42, 116
3, 28638, Note_off_c, 9, 42, 64
3, 28705, Note_on_c, 9, 42, 122
3, 28724, Note_off_c, 9, 42, 64
3, 28800, Note_on_c, 9, 42, 117
3, 28819, Note_off_c, 9, 42, 64
3, 28896, Note_on_c, 9, 42, 117
3, 28915, Note_off_c, 9, 42, 64
3, 28990, Note_on_c, 9, 42, 116
3, 29009, Note_off_c, 9, 42, 64
3, 29086, Note_on_c, 9, 42, 121
3, 29100, Note_off_c, 9, 42, 64
3, 29182, Note_on_c, 9, 42, 116
3, 29196, Note_off_c, 9, 42, 64
3, 29272, Note_on_c, 9, 42, 120
3, 29296, Note_off_c, 9, 42, 64
3, 29377, Note_on_c, 9, 42, 108
3, 29396, Note_off_c, 9, 42, 64
3, 29472, Note_on_c, 9, 42, 117
3, 29486, Note_off_c, 9, 42, 64
3, 29568, Note_on_c, 9, 42, 116
3, 29587, Note_off_c, 9, 42, 64
3, 29664, Note_on_c, 9, 42, 120
3, 29683, Note_off_c, 9, 42, 64
3, 29753, Note_on_c, 9, 42, 117
3, 29782, Note_off_c, 9, 42, 64
3, 29854, Note_on_c, 9, 42, 124
3, 29878, Note_off_c, 9, 42, 64
3, 29944, Note_on_c, 9, 49, 127
3, 29953, Note_on_c, 9, 42, 122
3, 29977, Note_off_c, 9, 42, 64
3, 29987, Note_off_c, 9, 49, 64
3, 30059, Note_on_c, 9, 42, 120
3, 30073, Note_off_c, 9, 42, 64
3, 30145, Note_on_c, 9, 42, 120
3, 30168, Note_off_c, 9, 42, 64
3, 30249, Note_on_c, 9, 42, 116
3, 30273, Note_off_c, 9, 42, 64
3, 30345, Note_on_c, 9, 42, 111
3, 30364, Note_off_c, 9, 42, 64
3, 30444, Note_on_c, 9, 42, 101
3, 30464, Note_off_c, 9, 42, 64
3, 30531, Note_on_c, 9, 42, 116
3, 30555, Note_off_c, 9, 42, 64
3, 30627, Note_on_c, 9, 42, 114
3, 30649, Note_off_c, 9, 42, 64
3, 30731, Note_on_c, 9, 42, 121
3, 30750, Note_off_c, 9, 42, 64
3, 30827, Note_on_c, 9, 42, 121
3, 30841, Note_off_c, 9, 42, 64
3, 30916, Note_on_c, 9, 42, 122
3, 30940, Note_off_c, 9, 42, 64
3, 31017, Note_on_c, 9, 42, 117
3, 31041, Note_off_c, 9, 42, 64
3, 31113, Note_on_c, 9, 42, 117
3, 31131, Note_off_c, 9, 42, 64
3, 31222, Note_on_c, 9, 42, 117
3, 31241, Note_off_c, 9, 42, 64
3, 31304, Note_on_c, 9, 42, 121
3, 31323, Note_off_c, 9, 42, 64
3, 31403, Note_on_c, 9, 42, 117
3, 31422, Note_off_c, 9, 42, 64
3, 31484, Note_on_c, 9, 49, 122
3, 31528, Note_off_c, 9, 49, 64
3, 33033, Note_on_c, 9, 49, 122
3, 33067, Note_off_c, 9, 49, 64
3, 33204, Note_on_c, 9, 42, 127
3, 33246, Note_off_c, 9, 42, 64
3, 33308, Note_on_c, 9, 42, 122
3, 33342, Note_off_c, 9, 42, 64
3, 33409, Note_on_c, 9, 42, 124
3, 33443, Note_off_c, 9, 42, 64
3, 33504, Note_on_c, 9, 42, 124
3, 33542, Note_off_c, 9, 42, 64
3, 33595, Note_on_c, 9, 42, 122
3, 33633, Note_off_c, 9, 42, 64
3, 33694, Note_on_c, 9, 42, 121
3, 33732, Note_off_c, 9, 42, 64
3, 33785, Note_on_c, 9, 42, 124
3, 33824, Note_off_c, 9, 42, 64
3, 33876, Note_on_c, 9, 42, 122
3, 33915, Note_off_c, 9, 42, 64
3, 33976, Note_on_c, 9, 42, 120
3, 34014, Note_off_c, 9, 42, 64
3, 34081, Note_on_c, 9, 42, 120
3, 34120, Note_off_c, 9, 42, 64
3, 34180, Note_on_c, 9, 42, 121
3, 34219, Note_off_c, 9, 42, 64
3, 34276, Note_on_c, 9, 42, 117
3, 34320, Note_off_c, 9, 42, 64
3, 34377, Note_on_c, 9, 42, 124
3, 34409, Note_off_c, 9, 42, 64
3, 34472, Note_on_c, 9, 42, 121
3, 34510, Note_off_c, 9, 42, 64
3, 34572, Note_on_c, 9, 42, 124
3, 34606, Note_off_c, 9, 42, 64
3, 34662, Note_on_c, 9, 42, 122
3, 34696, Note_off_c, 9, 42, 64
3, 34768, Note_on_c, 9, 42, 124
3, 34801, Note_off_c, 9, 42, 64
3, 34859, Note_on_c, 9, 42, 120
3, 34896, Note_off_c, 9, 42, 64
3, 34953, Note_on_c, 9, 42, 124
3, 34996, Note_off_c, 9, 42, 64
3, 35054, Note_on_c, 9, 42, 121
3, 35088, Note_off_c, 9, 42, 64
3, 35148, Note_on_c, 9, 42, 116
3, 35177, Note_off_c, 9, 42, 64
3, 35244, Note_on_c, 9, 42, 126
3, 35278, Note_off_c, 9, 42, 64
3, 35331, Note_on_c, 9, 42, 120
3, 35368, Note_off_c, 9, 42, 64
3, 35420, Note_on_c, 9, 42, 124
3, 35459, Note_off_c, 9, 42, 64
3, 35516, Note_on_c, 9, 42, 121
3, 35555, Note_off_c, 9, 42, 64
3, 35616, Note_on_c, 9, 42, 120
3, 35654, Note_off_c, 9, 42, 64
3, 35707, Note_on_c, 9, 42, 120
3, 35750, Note_off_c, 9, 42, 64
3, 35822, Note_on_c, 9, 42, 122
3, 35854, Note_off_c, 9, 42, 64
3, 35921, Note_on_c, 9, 42, 121
3, 35955, Note_off_c, 9, 42, 64
3, 36027, Note_on_c, 9, 42, 124
3, 36065, Note_off_c, 9, 42, 64
3, 36102, Note_on_c, 9, 49, 124
3, 36145, Note_off_c, 9, 49, 64
3, 36289, Note_on_c, 9, 42, 122
3, 36331, Note_off_c, 9, 42, 64
3, 36465, Note_on_c, 9, 42, 127
3, 36504, Note_off_c, 9, 42, 64
3, 36560, Note_on_c, 9, 42, 127
3, 36598, Note_off_c, 9, 42, 64
3, 36660, Note_on_c, 9, 42, 124
3, 36699, Note_off_c, 9, 42, 64
3, 36756, Note_on_c, 9, 42, 124
3, 36788, Note_off_c, 9, 42, 64
3, 36860, Note_on_c, 9, 42, 124
3, 36894, Note_off_c, 9, 42, 64
3, 36956, Note_on_c, 9, 42, 124
3, 36990, Note_off_c, 9, 42, 64
3, 37046, Note_on_c, 9, 42, 124
3, 37084, Note_off_c, 9, 42, 64
3, 37152, Note_on_c, 9, 42, 122
3, 37185, Note_off_c, 9, 42, 64
3, 37252, Note_on_c, 9, 42, 117
3, 37284, Note_off_c, 9, 42, 64
3, 37347, Note_on_c, 9, 42, 117
3, 37380, Note_off_c, 9, 42, 64
3, 37457, Note_on_c, 9, 42, 124
3, 37491, Note_off_c, 9, 42, 64
3, 37547, Note_on_c, 9, 42, 120
3, 37585, Note_off_c, 9, 42, 64
3, 37638, Note_on_c, 9, 42, 116
3, 37681, Note_off_c, 9, 42, 64
3, 37734, Note_on_c, 9, 42, 121
3, 37771, Note_off_c, 9, 42, 64
3, 37828, Note_on_c, 9, 42, 120
3, 37862, Note_off_c, 9, 42, 64
3, 37920, Note_on_c, 9, 42, 116
3, 37958, Note_off_c, 9, 42, 64
3, 38004, Note_on_c, 9, 42, 116
3, 38048, Note_off_c, 9, 42, 64
3, 38105, Note_on_c, 9, 42, 116
3, 38144, Note_off_c, 9, 42, 64
3, 38211, Note_on_c, 9, 42, 121
3, 38243, Note_off_c, 9, 42, 64
3, 38300, Note_on_c, 9, 42, 121
3, 38348, Note_off_c, 9, 42, 64
3, 38401, Note_on_c, 9, 42, 116
3, 38444, Note_off_c, 9, 42, 64
3, 38500, Note_on_c, 9, 42, 116
3, 38539, Note_off_c, 9, 42, 64
3, 38596, Note_on_c, 9, 42, 116
3, 38635, Note_off_c, 9, 42, 64
3, 38700, Note_on_c, 9, 42, 120
3, 38739, Note_off_c, 9, 42, 64
3, 38796, Note_on_c, 9, 42, 124
3, 38835, Note_off_c, 9, 42, 64
3, 38888, Note_on_c, 9, 42, 121
3, 38929, Note_off_c, 9, 42, 64
3, 38982, Note_on_c, 9, 42, 121
3, 39025, Note_off_c, 9, 42, 64
3, 39083, Note_on_c, 9, 42, 124
3, 39116, Note_off_c, 9, 42, 64
3, 39168, Note_on_c, 9, 42, 127
3, 39206, Note_off_c, 9, 42, 64
3, 39371, Note_on_c, 9, 42, 124
3, 39400, Note_off_c, 9, 42, 64
3, 39467, Note_on_c, 9, 42, 122
3, 39500, Note_off_c, 9, 42, 64
3, 39563, Note_on_c, 9, 42, 117
3, 39595, Note_off_c, 9, 42, 64
3, 39657, Note_on_c, 9, 42, 114
3, 39691, Note_off_c, 9, 42, 64
3, 39753, Note_on_c, 9, 42, 117
3, 39787, Note_off_c, 9, 42, 64
3, 39843, Note_on_c, 9, 42, 120
3, 39876, Note_off_c, 9, 42, 64
3, 39934, Note_on_c, 9, 42, 121
3, 39968, Note_off_c, 9, 42, 64
3, 40030, Note_on_c, 9, 42, 121
3, 40064, Note_off_c, 9, 42, 64
3, 40124, Note_on_c, 9, 42, 116
3, 40158, Note_off_c, 9, 42, 64
3, 40225, Note_on_c, 9, 42, 116
3, 40264, Note_off_c, 9, 42, 64
3, 40320, Note_on_c, 9, 42, 121
3, 40353, Note_off_c, 9, 42, 64
3, 40416, Note_on_c, 9, 42, 116
3, 40449, Note_off_c, 9, 42, 64
3, 40512, Note_on_c, 9, 42, 117
3, 40544, Note_off_c, 9, 42, 64
3, 40606, Note_on_c, 9, 42, 116
3, 40640, Note_off_c, 9, 42, 64
3, 40702, Note_on_c, 9, 42, 111
3, 40736, Note_off_c, 9, 42, 64
3, 40801, Note_on_c, 9, 42, 111
3, 40830, Note_off_c, 9, 42, 64
3, 40892, Note_on_c, 9, 42, 116
3, 40926, Note_off_c, 9, 42, 64
3, 40984, Note_on_c, 9, 42, 111
3, 41017, Note_off_c, 9, 42, 64
3, 41083, Note_on_c, 9, 42, 114
3, 41116, Note_off_c, 9, 42, 64
3, 41184, Note_on_c, 9, 42, 111
3, 41212, Note_off_c, 9, 42, 64
3, 41278, Note_on_c, 9, 42, 116
3, 41307, Note_off_c, 9, 42, 64
3, 41369, Note_on_c, 9, 42, 116
3, 41398, Note_off_c, 9, 42, 64
3, 41465, Note_on_c, 9, 42, 111
3, 41494, Note_off_c, 9, 42, 64
3, 41555, Note_on_c, 9, 42, 114
3, 41584, Note_off_c, 9, 42, 64
3, 41656, Note_on_c, 9, 42, 111
3, 41689, Note_off_c, 9, 42, 64
3, 41750, Note_on_c, 9, 42, 108
3, 41779, Note_off_c, 9, 42, 64
3, 41841, Note_on_c, 9, 42, 114
3, 41875, Note_off_c, 9, 42, 64
3, 41937, Note_on_c, 9, 42, 114
3, 41971, Note_off_c, 9, 42, 64
3, 42032, Note_on_c, 9, 42, 117
3, 42065, Note_off_c, 9, 42, 64
3, 42128, Note_on_c, 9, 42, 117
3, 42156, Note_off_c, 9, 42, 64
3, 42222, Note_on_c, 9, 42, 111
3, 42251, Note_off_c, 9, 42, 64
3, 42318, Note_on_c, 9, 42, 117
3, 42347, Note_off_c, 9, 42, 64
3, 42419, Note_on_c, 9, 42, 116
3, 42451, Note_off_c, 9, 42, 64
3, 42518, Note_on_c, 9, 42, 108
3, 42542, Note_off_c, 9, 42, 64
3, 42609, Note_on_c, 9, 42, 114
3, 42638, Note_off_c, 9, 42, 64
3, 42704, Note_on_c, 9, 42, 109
3, 42728, Note_off_c, 9, 42, 64
3, 42795, Note_on_c, 9, 42, 111
3, 42824, Note_off_c, 9, 42, 64
3, 42886, Note_on_c, 9, 42, 114
3, 42915, Note_off_c, 9, 42, 64
3, 42985, Note_on_c, 9, 42, 116
3, 43019, Note_off_c, 9, 42, 64
3, 43086, Note_on_c, 9, 42, 114
3, 43115, Note_off_c, 9, 42, 64
3, 43185, Note_on_c, 9, 42, 114
3, 43214, Note_off_c, 9, 42, 64
3, 43286, Note_on_c, 9, 42, 114
3, 43315, Note_off_c, 9, 42, 64
3, 43382, Note_on_c, 9, 42, 111
3, 43404, Note_off_c, 9, 42, 64
3, 43472, Note_on_c, 9, 42, 114
3, 43500, Note_off_c, 9, 42, 64
3, 43577, Note_on_c, 9, 42, 111
3, 43606, Note_off_c, 9, 42, 64
3, 43672, Note_on_c, 9, 42, 117
3, 43700, Note_off_c, 9, 42, 64
3, 43777, Note_on_c, 9, 42, 117
3, 43806, Note_off_c, 9, 42, 64
3, 43873, Note_on_c, 9, 42, 111
3, 43900, Note_off_c, 9, 42, 64
3, 43968, Note_on_c, 9, 42, 117
3, 43996, Note_off_c, 9, 42, 64
3, 44064, Note_on_c, 9, 42, 114
3, 44092, Note_off_c, 9, 42, 64
3, 44153, Note_on_c, 9, 42, 120
3, 44192, Note_off_c, 9, 42, 64
3, 44254, Note_on_c, 9, 42, 114
3, 44288, Note_off_c, 9, 42, 64
3, 44350, Note_on_c, 9, 42, 117
3, 44382, Note_off_c, 9, 42, 64
3, 44444, Note_on_c, 9, 42, 117
3, 44473, Note_off_c, 9, 42, 64
3, 44536, Note_on_c, 9, 42, 108
3, 44564, Note_off_c, 9, 42, 64
3, 44625, Note_on_c, 9, 42, 114
3, 44664, Note_off_c, 9, 42, 64
3, 44731, Note_on_c, 9, 42, 117
3, 44760, Note_off_c, 9, 42, 64
3, 44827, Note_on_c, 9, 42, 111
3, 44854, Note_off_c, 9, 42, 64
3, 44926, Note_on_c, 9, 42, 121
3, 44955, Note_off_c, 9, 42, 64
3, 45022, Note_on_c, 9, 42, 124
3, 45046, Note_off_c, 9, 42, 64
3, 45116, Note_on_c, 9, 42, 108
3, 45136, Note_off_c, 9, 42, 64
3, 45208, Note_on_c, 9, 42, 120
3, 45236, Note_off_c, 9, 42, 64
3, 45321, Note_on_c, 9, 49, 117
3, 45355, Note_off_c, 9, 49, 64
3, 45508, Note_on_c, 9, 42, 122
3, 45537, Note_off_c, 9, 42, 64
3, 45603, Note_on_c, 9, 42, 120
3, 45632, Note_off_c, 9, 42, 64
3, 45704, Note_on_c, 9, 42, 116
3, 45732, Note_off_c, 9, 42, 64
3, 45793, Note_on_c, 9, 42, 114
3, 45827, Note_off_c, 9, 42, 64
3, 45884, Note_on_c, 9, 42, 116
3, 45918, Note_off_c, 9, 42, 64
3, 45980, Note_on_c, 9, 42, 117
3, 46009, Note_off_c, 9, 42, 64
3, 46070, Note_on_c, 9, 42, 116
3, 46099, Note_off_c, 9, 42, 64
3, 46161, Note_on_c, 9, 42, 114
3, 46195, Note_off_c, 9, 42, 64
3, 46257, Note_on_c, 9, 42, 114
3, 46289, Note_off_c, 9, 42, 64
3, 46356, Note_on_c, 9, 42, 111
3, 46380, Note_off_c, 9, 42, 64
3, 46448, Note_on_c, 9, 42, 111
3, 46481, Note_off_c, 9, 42, 64
3, 46547, Note_on_c, 9, 42, 111
3, 46576, Note_off_c, 9, 42, 64
3, 46652, Note_on_c, 9, 42, 111
3, 46676, Note_off_c, 9, 42, 64
3, 46742, Note_on_c, 9, 42, 114
3, 46771, Note_off_c, 9, 42, 64
3, 46838, Note_on_c, 9, 42, 111
3, 46872, Note_off_c, 9, 42, 64
3, 46939, Note_on_c, 9, 42, 114
3, 46968, Note_off_c, 9, 42, 64
3, 47033, Note_on_c, 9, 42, 111
3, 47067, Note_off_c, 9, 42, 64
3, 47139, Note_on_c, 9, 42, 117
3, 47163, Note_off_c, 9, 42, 64
3, 47228, Note_on_c, 9, 42, 116
3, 47257, Note_off_c, 9, 42, 64
3, 47324, Note_on_c, 9, 42, 114
3, 47358, Note_off_c, 9, 42, 64
3, 47425, Note_on_c, 9, 42, 116
3, 47454, Note_off_c, 9, 42, 64
3, 47520, Note_on_c, 9, 42, 117
3, 47548, Note_off_c, 9, 42, 64
3, 47620, Note_on_c, 9, 42, 114
3, 47644, Note_off_c, 9, 42, 64
3, 47710, Note_on_c, 9, 42, 117
3, 47744, Note_off_c, 9, 42, 64
3, 47811, Note_on_c, 9, 42, 114
3, 47840, Note_off_c, 9, 42, 64
3, 47902, Note_on_c, 9, 42, 117
3, 47934, Note_off_c, 9, 42, 64
3, 47996, Note_on_c, 9, 42, 111
3, 48025, Note_off_c, 9, 42, 64
3, 48088, Note_on_c, 9, 42, 111
3, 48121, Note_off_c, 9, 42, 64
3, 48182, Note_on_c, 9, 42, 117
3, 48216, Note_off_c, 9, 42, 64
3, 48283, Note_on_c, 9, 42, 116
3, 48316, Note_off_c, 9, 42, 64
3, 48374, Note_on_c, 9, 42, 120
3, 48403, Note_off_c, 9, 42, 64
3, 48468, Note_on_c, 9, 42, 114
3, 48497, Note_off_c, 9, 42, 64
3, 48569, Note_on_c, 9, 42, 114
3, 48603, Note_off_c, 9, 42, 64
3, 48673, Note_on_c, 9, 42, 111
3, 48702, Note_off_c, 9, 42, 64
3, 48774, Note_on_c, 9, 42, 117
3, 48803, Note_off_c, 9, 42, 64
3, 48870, Note_on_c, 9, 42, 111
3, 48897, Note_off_c, 9, 42, 64
3, 48960, Note_on_c, 9, 42, 111
3, 48988, Note_off_c, 9, 42, 64
3, 49046, Note_on_c, 9, 42, 111
3, 49080, Note_off_c, 9, 42, 64
3, 49136, Note_on_c, 9, 42, 114
3, 49169, Note_off_c, 9, 42, 64
3, 49232, Note_on_c, 9, 42, 117
3, 49265, Note_off_c, 9, 42, 64
3, 49332, Note_on_c, 9, 42, 114
3, 49364, Note_off_c, 9, 42, 64
3, 49427, Note_on_c, 9, 42, 111
3, 49456, Note_off_c, 9, 42, 64
3, 49528, Note_on_c, 9, 42, 117
3, 49561, Note_off_c, 9, 42, 64
3, 49627, Note_on_c, 9, 42, 114
3, 49660, Note_off_c, 9, 42, 64
3, 49728, Note_on_c, 9, 42, 120
3, 49766, Note_off_c, 9, 42, 64
3, 49833, Note_on_c, 9, 42, 116
3, 49860, Note_off_c, 9, 42, 64
3, 49923, Note_on_c, 9, 42, 116
3, 49956, Note_off_c, 9, 42, 64
3, 50024, Note_on_c, 9, 42, 116
3, 50052, Note_off_c, 9, 42, 64
3, 50123, Note_on_c, 9, 42, 120
3, 50156, Note_off_c, 9, 42, 64
3, 50214, Note_on_c, 9, 42, 117
3, 50248, Note_off_c, 9, 42, 64
3, 50315, Note_on_c, 9, 42, 117
3, 50347, Note_off_c, 9, 42, 64
3, 50404, Note_on_c, 9, 42, 111
3, 50443, Note_off_c, 9, 42, 64
3, 50510, Note_on_c, 9, 42, 116
3, 50544, Note_off_c, 9, 42, 64
3, 50609, Note_on_c, 9, 42, 117
3, 50638, Note_off_c, 9, 42, 64
3, 50700, Note_on_c, 9, 42, 117
3, 50729, Note_off_c, 9, 42, 64
3, 50800, Note_on_c, 9, 42, 116
3, 50824, Note_off_c, 9, 42, 64
3, 50896, Note_on_c, 9, 42, 116
3, 50920, Note_off_c, 9, 42, 64
3, 50977, Note_on_c, 9, 42, 117
3, 51016, Note_off_c, 9, 42, 64
3, 51072, Note_on_c, 9, 42, 114
3, 51096, Note_off_c, 9, 42, 64
3, 51172, Note_on_c, 9, 42, 122
3, 51196, Note_off_c, 9, 42, 64
3, 51272, Note_on_c, 9, 42, 127
3, 51296, Note_off_c, 9, 42, 64
3, 51358, Note_on_c, 9, 42, 124
3, 51392, Note_off_c, 9, 42, 64
3, 51454, Note_on_c, 9, 49, 124
3, 51620, Note_off_c, 9, 49, 64
3, 51792, Note_on_c, 9, 42, 122
3, 51825, Note_off_c, 9, 42, 64
3, 51892, Note_on_c, 9, 42, 121
3, 51916, Note_off_c, 9, 42, 64
3, 51984, Note_on_c, 9, 42, 126
3, 52011, Note_off_c, 9, 42, 64
3, 52092, Note_on_c, 9, 42, 120
3, 52116, Note_off_c, 9, 42, 64
3, 52188, Note_on_c, 9, 42, 121
3, 52212, Note_off_c, 9, 42, 64
3, 52244, Note_on_c, 9, 49, 108
3, 52312, Note_off_c, 9, 49, 64
3, 52408, Note_on_c, 9, 42, 127
3, 52436, Note_off_c, 9, 42, 64
3, 52492, Note_on_c, 9, 42, 122
3, 52521, Note_off_c, 9, 42, 64
3, 52588, Note_on_c, 9, 42, 114
3, 52617, Note_off_c, 9, 42, 64
3, 52702, Note_on_c, 9, 42, 121
3, 52726, Note_off_c, 9, 42, 64
3, 52803, Note_on_c, 9, 42, 124
3, 52827, Note_off_c, 9, 42, 64
3, 52894, Note_on_c, 9, 42, 124
3, 52918, Note_off_c, 9, 42, 64
3, 52993, Note_on_c, 9, 49, 64
3, 53046, Note_off_c, 9, 49, 64
3, 53108, Note_on_c, 9, 42, 122
3, 53132, Note_off_c, 9, 42, 64
3, 53193, Note_on_c, 9, 42, 121
3, 53227, Note_off_c, 9, 42, 64
3, 53294, Note_on_c, 9, 42, 124
3, 53323, Note_off_c, 9, 42, 64
3, 53390, Note_on_c, 9, 42, 121
3, 53414, Note_off_c, 9, 42, 64
3, 53484, Note_on_c, 9, 42, 124
3, 53513, Note_off_c, 9, 42, 64
3, 53576, Note_on_c, 9, 42, 124
3, 53604, Note_off_c, 9, 42, 64
3, 53670, Note_on_c, 9, 42, 122
3, 53699, Note_off_c, 9, 42, 64
3, 53756, Note_on_c, 9, 49, 108
3, 53776, Note_on_c, 9, 42, 122
3, 53800, Note_off_c, 9, 42, 64
3, 53814, Note_off_c, 9, 49, 64
3, 53886, Note_on_c, 9, 42, 127
3, 53904, Note_off_c, 9, 42, 64
3, 53971, Note_on_c, 9, 42, 111
3, 54000, Note_off_c, 9, 42, 64
3, 54067, Note_on_c, 9, 42, 111
3, 54091, Note_off_c, 9, 42, 64
3, 54161, Note_on_c, 9, 42, 120
3, 54185, Note_off_c, 9, 42, 64
3, 54257, Note_on_c, 9, 42, 122
3, 54281, Note_off_c, 9, 42, 64
3, 54348, Note_on_c, 9, 42, 116
3, 54371, Note_off_c, 9, 42, 64
3, 54433, Note_on_c, 9, 42, 121
3, 54457, Note_off_c, 9, 42, 64
3, 54520, Note_on_c, 9, 49, 117
3, 54524, Note_on_c, 9, 42, 124
3, 54548, Note_off_c, 9, 42, 64
3, 54568, Note_off_c, 9, 49, 64
3, 54638, Note_on_c, 9, 42, 124
3, 54657, Note_off_c, 9, 42, 64
3, 54724, Note_on_c, 9, 42, 114
3, 54753, Note_off_c, 9, 42, 64
3, 54820, Note_on_c, 9, 42, 117
3, 54848, Note_off_c, 9, 42, 64
3, 54915, Note_on_c, 9, 42, 124
3, 54939, Note_off_c, 9, 42, 64
3, 55006, Note_on_c, 9, 42, 111
3, 55035, Note_off_c, 9, 42, 64
3, 55105, Note_on_c, 9, 42, 121
3, 55129, Note_off_c, 9, 42, 64
3, 55201, Note_on_c, 9, 42, 121
3, 55225, Note_off_c, 9, 42, 64
3, 55302, Note_on_c, 9, 49, 124
3, 55307, Note_on_c, 9, 42, 127
3, 55334, Note_off_c, 9, 42, 64
3, 55348, Note_off_c, 9, 49, 64
3, 55416, Note_on_c, 9, 42, 117
3, 55440, Note_off_c, 9, 42, 64
3, 55502, Note_on_c, 9, 42, 117
3, 55526, Note_off_c, 9, 42, 64
3, 55596, Note_on_c, 9, 42, 121
3, 55620, Note_off_c, 9, 42, 64
3, 55688, Note_on_c, 9, 42, 120
3, 55716, Note_off_c, 9, 42, 64
3, 55784, Note_on_c, 9, 42, 121
3, 55806, Note_off_c, 9, 42, 64
3, 55873, Note_on_c, 9, 42, 121
3, 55897, Note_off_c, 9, 42, 64
3, 55969, Note_on_c, 9, 42, 122
3, 55993, Note_off_c, 9, 42, 64
3, 56059, Note_on_c, 9, 49, 121
3, 56073, Note_on_c, 9, 42, 122
3, 56102, Note_off_c, 9, 42, 64
3, 56107, Note_off_c, 9, 49, 64
3, 56256, Note_on_c, 9, 42, 96
3, 56283, Note_off_c, 9, 42, 64
3, 56340, Note_on_c, 9, 42, 121
3, 56369, Note_off_c, 9, 42, 64
3, 56436, Note_on_c, 9, 42, 122
3, 56456, Note_off_c, 9, 42, 64
3, 56545, Note_on_c, 9, 42, 122
3, 56564, Note_off_c, 9, 42, 64
3, 56646, Note_on_c, 9, 42, 120
3, 56665, Note_off_c, 9, 42, 64
3, 56742, Note_on_c, 9, 42, 127
3, 56764, Note_off_c, 9, 42, 64
3, 56822, Note_on_c, 9, 49, 124
3, 56832, Note_on_c, 9, 42, 126
3, 56860, Note_off_c, 9, 42, 64
3, 56880, Note_off_c, 9, 49, 64
3, 57036, Note_on_c, 9, 42, 121
3, 57065, Note_off_c, 9, 42, 64
3, 57118, Note_on_c, 9, 42, 120
3, 57147, Note_off_c, 9, 42, 64
3, 57323, Note_on_c, 9, 42, 121
3, 57347, Note_off_c, 9, 42, 64
3, 57419, Note_on_c, 9, 42, 117
3, 57443, Note_off_c, 9, 42, 64
3, 57508, Note_on_c, 9, 42, 120
3, 57532, Note_off_c, 9, 42, 64
3, 57585, Note_on_c, 9, 49, 121
3, 57598, Note_on_c, 9, 49, 127
3, 57635, Note_off_c, 9, 49, 64
3, 57638, Note_off_c, 9, 49, 64
3, 59131, Note_on_c, 9, 49, 124
3, 59160, Note_off_c, 9, 49, 64
3, 59324, Note_on_c, 9, 42, 121
3, 59348, Note_off_c, 9, 42, 64
3, 59419, Note_on_c, 9, 42, 124
3, 59448, Note_off_c, 9, 42, 64
3, 59523, Note_on_c, 9, 42, 121
3, 59556, Note_off_c, 9, 42, 64
3, 59627, Note_on_c, 9, 42, 127
3, 59659, Note_off_c, 9, 42, 64
3, 59724, Note_on_c, 9, 42, 124
3, 59758, Note_off_c, 9, 42, 64
3, 59814, Note_on_c, 9, 42, 122
3, 59852, Note_off_c, 9, 42, 64
3, 59904, Note_on_c, 9, 42, 124
3, 59942, Note_off_c, 9, 42, 64
3, 59998, Note_on_c, 9, 42, 127
3, 60035, Note_off_c, 9, 42, 64
3, 60097, Note_on_c, 9, 42, 122
3, 60129, Note_off_c, 9, 42, 64
3, 60200, Note_on_c, 9, 42, 124
3, 60233, Note_off_c, 9, 42, 64
3, 60294, Note_on_c, 9, 42, 124
3, 60323, Note_off_c, 9, 42, 64
3, 60388, Note_on_c, 9, 42, 127
3, 60417, Note_off_c, 9, 42, 64
3, 60488, Note_on_c, 9, 42, 127
3, 60515, Note_off_c, 9, 42, 64
3, 60577, Note_on_c, 9, 42, 127
3, 60609, Note_off_c, 9, 42, 64
3, 60675, Note_on_c, 9, 42, 127
3, 60708, Note_off_c, 9, 42, 64
3, 60769, Note_on_c, 9, 42, 126
3, 60803, Note_off_c, 9, 42, 64
3, 60873, Note_on_c, 9, 42, 127
3, 60905, Note_off_c, 9, 42, 64
3, 60968, Note_on_c, 9, 42, 127
3, 60995, Note_off_c, 9, 42, 64
3, 61065, Note_on_c, 9, 42, 127
3, 61094, Note_off_c, 9, 42, 64
3, 61160, Note_on_c, 9, 42, 127
3, 61188, Note_off_c, 9, 42, 64
3, 61254, Note_on_c, 9, 42, 124
3, 61286, Note_off_c, 9, 42, 64
3, 61348, Note_on_c, 9, 42, 127
3, 61376, Note_off_c, 9, 42, 64
3, 61438, Note_on_c, 9, 42, 127
3, 61460, Note_off_c, 9, 42, 64
3, 61536, Note_on_c, 9, 42, 127
3, 61560, Note_off_c, 9, 42, 64
3, 61625, Note_on_c, 9, 42, 124
3, 61649, Note_off_c, 9, 42, 64
3, 61724, Note_on_c, 9, 42, 124
3, 61753, Note_off_c, 9, 42, 64
3, 61819, Note_on_c, 9, 42, 117
3, 61846, Note_off_c, 9, 42, 64
3, 61916, Note_on_c, 9, 42, 122
3, 61940, Note_off_c, 9, 42, 64
3, 62016, Note_on_c, 9, 42, 127
3, 62040, Note_off_c, 9, 42, 64
3, 62110, Note_on_c, 9, 42, 127
3, 62139, Note_off_c, 9, 42, 64
3, 62200, Note_on_c, 9, 49, 127
3, 62251, Note_off_c, 9, 49, 64
3, 62312, Note_on_c, 9, 42, 127
3, 62336, Note_off_c, 9, 42, 64
3, 62401, Note_on_c, 9, 42, 126
3, 62430, Note_off_c, 9, 42, 64
3, 62505, Note_on_c, 9, 42, 127
3, 62539, Note_off_c, 9, 42, 64
3, 62604, Note_on_c, 9, 42, 120
3, 62632, Note_off_c, 9, 42, 64
3, 62697, Note_on_c, 9, 42, 121
3, 62731, Note_off_c, 9, 42, 64
3, 62796, Note_on_c, 9, 42, 127
3, 62825, Note_off_c, 9, 42, 64
3, 62896, Note_on_c, 9, 42, 124
3, 62924, Note_off_c, 9, 42, 64
3, 62985, Note_on_c, 9, 42, 126
3, 63017, Note_off_c, 9, 42, 64
3, 63084, Note_on_c, 9, 42, 124
3, 63112, Note_off_c, 9, 42, 64
3, 63177, Note_on_c, 9, 42, 120
3, 63201, Note_off_c, 9, 42, 64
3, 63272, Note_on_c, 9, 42, 124
3, 63300, Note_off_c, 9, 42, 64
3, 63361, Note_on_c, 9, 42, 124
3, 63395, Note_off_c, 9, 42, 64
3, 63460, Note_on_c, 9, 42, 127
3, 63488, Note_off_c, 9, 42, 64
3, 63558, Note_on_c, 9, 42, 124
3, 63587, Note_off_c, 9, 42, 64
3, 63648, Note_on_c, 9, 42, 124
3, 63681, Note_off_c, 9, 42, 64
3, 63747, Note_on_c, 9, 42, 117
3, 63780, Note_off_c, 9, 42, 64
3, 63846, Note_on_c, 9, 42, 122
3, 63873, Note_off_c, 9, 42, 64
3, 63940, Note_on_c, 9, 42, 124
3, 63968, Note_off_c, 9, 42, 64
3, 64043, Note_on_c, 9, 42, 122
3, 64067, Note_off_c, 9, 42, 64
3, 64132, Note_on_c, 9, 42, 124
3, 64161, Note_off_c, 9, 42, 64
3, 64227, Note_on_c, 9, 42, 116
3, 64251, Note_off_c, 9, 42, 64
3, 64321, Note_on_c, 9, 42, 127
3, 64348, Note_off_c, 9, 42, 64
3, 64428, Note_on_c, 9, 42, 124
3, 64452, Note_off_c, 9, 42, 64
3, 67228, Control_c, 9, 7, 118
3, 67238, Control_c, 9, 7, 110
3, 67251, Control_c, 9, 7, 102
3, 67260, Control_c, 9, 7, 96
3, 67270, Control_c, 9, 7, 89
3, 67284, Control_c, 9, 7, 82
3, 67299, Control_c, 9, 7, 76
3, 67308, Control_c, 9, 7, 70
3, 67321, Control_c, 9, 7, 65
3, 67336, Control_c, 9, 7, 62
3, 67350, Control_c, 9, 7, 61
3, 68107, Control_c, 9, 7, 63
3, 68662, Control_c, 9, 7, 64
3, 68705, Control_c, 9, 7, 65
3, 69208, Control_c, 9, 7, 66
3, 69275, Control_c, 9, 7, 67
3, 69505, Control_c, 9, 7, 68
3, 71428, Note_on_c, 9, 49, 126
3, 71457, Note_off_c, 9, 49, 64
3, 71608, Note_on_c, 9, 42, 124
3, 71635, Note_off_c, 9, 42, 64
3, 71664, Control_c, 9, 7, 69
3, 71702, Note_on_c, 9, 42, 122
3, 71729, Note_off_c, 9, 42, 64
3, 71800, Note_on_c, 9, 42, 127
3, 71828, Note_off_c, 9, 42, 64
3, 71894, Note_on_c, 9, 42, 127
3, 71928, Note_off_c, 9, 42, 64
3, 71988, Note_on_c, 9, 42, 126
3, 72022, Note_off_c, 9, 42, 64
3, 72083, Note_on_c, 9, 42, 124
3, 72115, Note_off_c, 9, 42, 64
3, 72177, Note_on_c, 9, 42, 124
3, 72214, Note_off_c, 9, 42, 64
3, 72270, Note_on_c, 9, 42, 127
3, 72304, Note_off_c, 9, 42, 64
3, 72364, Note_on_c, 9, 42, 127
3, 72398, Note_off_c, 9, 42, 64
3, 72459, Note_on_c, 9, 42, 121
3, 72496, Note_off_c, 9, 42, 64
3, 72568, Note_on_c, 9, 42, 122
3, 72595, Note_off_c, 9, 42, 64
3, 72665, Note_on_c, 9, 42, 124
3, 72699, Note_off_c, 9, 42, 64
3, 72764, Note_on_c, 9, 42, 124
3, 72798, Note_off_c, 9, 42, 64
3, 72859, Note_on_c, 9, 42, 127
3, 72891, Note_off_c, 9, 42, 64
3, 72953, Note_on_c, 9, 42, 127
3, 72985, Note_off_c, 9, 42, 64
3, 73056, Note_on_c, 9, 42, 120
3, 73084, Note_off_c, 9, 42, 64
3, 73145, Note_on_c, 9, 42, 124
3, 73184, Note_off_c, 9, 42, 64
3, 73244, Note_on_c, 9, 42, 124
3, 73281, Note_off_c, 9, 42, 64
3, 73348, Note_on_c, 9, 42, 127
3, 73380, Note_off_c, 9, 42, 64
3, 73441, Note_on_c, 9, 42, 127
3, 73480, Note_off_c, 9, 42, 64
3, 73540, Note_on_c, 9, 42, 124
3, 73574, Note_off_c, 9, 42, 64
3, 73635, Note_on_c, 9, 42, 120
3, 73668, Note_off_c, 9, 42, 64
3, 73729, Note_on_c, 9, 42, 124
3, 73761, Note_off_c, 9, 42, 64
3, 73824, Note_on_c, 9, 42, 127
3, 73860, Note_off_c, 9, 42, 64
3, 73916, Note_on_c, 9, 42, 124
3, 73955, Note_off_c, 9, 42, 64
3, 74020, Note_on_c, 9, 42, 126
3, 74054, Note_off_c, 9, 42, 64
3, 74120, Note_on_c, 9, 42, 127
3, 74152, Note_off_c, 9, 42, 64
3, 74209, Note_on_c, 9, 42, 127
3, 74241, Note_off_c, 9, 42, 64
3, 74316, Note_on_c, 9, 42, 124
3, 74345, Note_off_c, 9, 42, 64
3, 74406, Note_on_c, 9, 42, 124
3, 74440, Note_off_c, 9, 42, 64
3, 74491, Note_on_c, 9, 49, 126
3, 74547, Note_off_c, 9, 49, 64
3, 74604, Note_on_c, 9, 42, 126
3, 74632, Note_off_c, 9, 42, 64
3, 74697, Note_on_c, 9, 42, 120
3, 74726, Note_off_c, 9, 42, 64
3, 74806, Note_on_c, 9, 42, 127
3, 74835, Note_off_c, 9, 42, 64
3, 74896, Note_on_c, 9, 42, 122
3, 74928, Note_off_c, 9, 42, 64
3, 74995, Note_on_c, 9, 42, 127
3, 75022, Note_off_c, 9, 42, 64
3, 75088, Note_on_c, 9, 42, 124
3, 75121, Note_off_c, 9, 42, 64
3, 75187, Note_on_c, 9, 42, 124
3, 75216, Note_off_c, 9, 42, 64
3, 75276, Note_on_c, 9, 42, 126
3, 75305, Note_off_c, 9, 42, 64
3, 75371, Note_on_c, 9, 42, 127
3, 75398, Note_off_c, 9, 42, 64
3, 75465, Note_on_c, 9, 42, 124
3, 75492, Note_off_c, 9, 42, 64
3, 75563, Note_on_c, 9, 42, 122
3, 75587, Note_off_c, 9, 42, 64
3, 75657, Note_on_c, 9, 42, 126
3, 75681, Note_off_c, 9, 42, 64
3, 75756, Note_on_c, 9, 42, 124
3, 75776, Note_off_c, 9, 42, 64
3, 75851, Note_on_c, 9, 42, 126
3, 75873, Note_off_c, 9, 42, 64
3, 75945, Note_on_c, 9, 42, 126
3, 75963, Note_off_c, 9, 42, 64
3, 76043, Note_on_c, 9, 42, 127
3, 76062, Note_off_c, 9, 42, 64
3, 76137, Note_on_c, 9, 42, 124
3, 76156, Note_off_c, 9, 42, 64
3, 76232, Note_on_c, 9, 42, 127
3, 76259, Note_off_c, 9, 42, 64
3, 76331, Note_on_c, 9, 42, 124
3, 76353, Note_off_c, 9, 42, 64
3, 76428, Note_on_c, 9, 42, 124
3, 76457, Note_off_c, 9, 42, 64
3, 76523, Note_on_c, 9, 42, 127
3, 76547, Note_off_c, 9, 42, 64
3, 76612, Note_on_c, 9, 42, 127
3, 76641, Note_off_c, 9, 42, 64
3, 76707, Note_on_c, 9, 42, 127
3, 76734, Note_off_c, 9, 42, 64
3, 76806, Note_on_c, 9, 42, 124
3, 76838, Note_off_c, 9, 42, 64
3, 76904, Note_on_c, 9, 42, 124
3, 76937, Note_off_c, 9, 42, 64
3, 77017, Note_on_c, 9, 42, 127
3, 77041, Note_off_c, 9, 42, 64
3, 77112, Note_on_c, 9, 42, 127
3, 77139, Note_off_c, 9, 42, 64
3, 77204, Note_on_c, 9, 42, 124
3, 77238, Note_off_c, 9, 42, 64
3, 77299, Note_on_c, 9, 42, 124
3, 77328, Note_off_c, 9, 42, 64
3, 77393, Note_on_c, 9, 42, 124
3, 77422, Note_off_c, 9, 42, 64
3, 77478, Note_on_c, 9, 42, 126
3, 77507, Note_off_c, 9, 42, 64
3, 79092, Note_on_c, 9, 49, 127
3, 79131, Note_off_c, 9, 49, 64
3, 79291, Note_on_c, 9, 42, 124
3, 79328, Note_off_c, 9, 42, 64
3, 79385, Note_on_c, 9, 42, 120
3, 79417, Note_off_c, 9, 42, 64
3, 79488, Note_on_c, 9, 42, 121
3, 79526, Note_off_c, 9, 42, 64
3, 79582, Note_on_c, 9, 42, 122
3, 79616, Note_off_c, 9, 42, 64
3, 79672, Note_on_c, 9, 42, 116
3, 79705, Note_off_c, 9, 42, 64
3, 79776, Note_on_c, 9, 42, 117
3, 79803, Note_off_c, 9, 42, 64
3, 79870, Note_on_c, 9, 42, 117
3, 79897, Note_off_c, 9, 42, 64
3, 79963, Note_on_c, 9, 42, 117
3, 79992, Note_off_c, 9, 42, 64
3, 80057, Note_on_c, 9, 42, 121
3, 80086, Note_off_c, 9, 42, 64
3, 80152, Note_on_c, 9, 42, 117
3, 80176, Note_off_c, 9, 42, 64
3, 80251, Note_on_c, 9, 42, 116
3, 80278, Note_off_c, 9, 42, 64
3, 80353, Note_on_c, 9, 42, 106
3, 80372, Note_off_c, 9, 42, 64
3, 80448, Note_on_c, 9, 42, 103
3, 80472, Note_off_c, 9, 42, 64
3, 80537, Note_on_c, 9, 42, 116
3, 80576, Note_off_c, 9, 42, 64
3, 80636, Note_on_c, 9, 42, 121
3, 80668, Note_off_c, 9, 42, 64
3, 80726, Note_on_c, 9, 42, 121
3, 80763, Note_off_c, 9, 42, 64
3, 80824, Note_on_c, 9, 42, 114
3, 80862, Note_off_c, 9, 42, 64
3, 80918, Note_on_c, 9, 42, 111
3, 80952, Note_off_c, 9, 42, 64
3, 81012, Note_on_c, 9, 42, 120
3, 81046, Note_off_c, 9, 42, 64
3, 81102, Note_on_c, 9, 42, 116
3, 81134, Note_off_c, 9, 42, 64
3, 81206, Note_on_c, 9, 42, 99
3, 81228, Note_off_c, 9, 42, 64
3, 81304, Note_on_c, 9, 42, 116
3, 81337, Note_off_c, 9, 42, 64
3, 81408, Note_on_c, 9, 42, 111
3, 81441, Note_off_c, 9, 42, 64
3, 81502, Note_on_c, 9, 42, 108
3, 81534, Note_off_c, 9, 42, 64
3, 81604, Note_on_c, 9, 42, 111
3, 81638, Note_off_c, 9, 42, 64
3, 81699, Note_on_c, 9, 42, 114
3, 81737, Note_off_c, 9, 42, 64
3, 81793, Note_on_c, 9, 42, 114
3, 81832, Note_off_c, 9, 42, 64
3, 81883, Note_on_c, 9, 42, 108
3, 81920, Note_off_c, 9, 42, 64
3, 81982, Note_on_c, 9, 42, 121
3, 82014, Note_off_c, 9, 42, 64
3, 82070, Note_on_c, 9, 42, 120
3, 82108, Note_off_c, 9, 42, 64
3, 82174, Note_on_c, 9, 49, 124
3, 82212, Note_off_c, 9, 49, 64
3, 82377, Note_on_c, 9, 42, 121
3, 82404, Note_off_c, 9, 42, 64
3, 82475, Note_on_c, 9, 42, 116
3, 82504, Note_off_c, 9, 42, 64
3, 82569, Note_on_c, 9, 42, 120
3, 82603, Note_off_c, 9, 42, 64
3, 82659, Note_on_c, 9, 42, 108
3, 82692, Note_off_c, 9, 42, 64
3, 82753, Note_on_c, 9, 42, 111
3, 82785, Note_off_c, 9, 42, 64
3, 82848, Note_on_c, 9, 42, 114
3, 82880, Note_off_c, 9, 42, 64
3, 82940, Note_on_c, 9, 42, 120
3, 82974, Note_off_c, 9, 42, 64
3, 83035, Note_on_c, 9, 42, 114
3, 83068, Note_off_c, 9, 42, 64
3, 83129, Note_on_c, 9, 42, 116
3, 83166, Note_off_c, 9, 42, 64
3, 83228, Note_on_c, 9, 42, 116
3, 83260, Note_off_c, 9, 42, 64
3, 83318, Note_on_c, 9, 42, 116
3, 83355, Note_off_c, 9, 42, 64
3, 83425, Note_on_c, 9, 42, 116
3, 83454, Note_off_c, 9, 42, 64
3, 83515, Note_on_c, 9, 42, 116
3, 83548, Note_off_c, 9, 42, 64
3, 83614, Note_on_c, 9, 42, 121
3, 83651, Note_off_c, 9, 42, 64
3, 83708, Note_on_c, 9, 42, 117
3, 83745, Note_off_c, 9, 42, 64
3, 83801, Note_on_c, 9, 42, 114
3, 83835, Note_off_c, 9, 42, 64
3, 83891, Note_on_c, 9, 42, 114
3, 83924, Note_off_c, 9, 42, 64
3, 83980, Note_on_c, 9, 42, 117
3, 84014, Note_off_c, 9, 42, 64
3, 84080, Note_on_c, 9, 42, 117
3, 84112, Note_off_c, 9, 42, 64
3, 84174, Note_on_c, 9, 42, 120
3, 84206, Note_off_c, 9, 42, 64
3, 84272, Note_on_c, 9, 42, 121
3, 84310, Note_off_c, 9, 42, 64
3, 84371, Note_on_c, 9, 42, 124
3, 84400, Note_off_c, 9, 42, 64
3, 84456, Note_on_c, 9, 42, 126
3, 84489, Note_off_c, 9, 42, 64
3, 84555, Note_on_c, 9, 42, 124
3, 84577, Note_off_c, 9, 42, 64
3, 84737, Note_on_c, 9, 42, 127
3, 84776, Note_off_c, 9, 42, 64
3, 84865, Note_on_c, 9, 42, 124
3, 84902, Note_off_c, 9, 42, 64
3, 85260, Note_on_c, 9, 49, 127
3, 85288, Note_off_c, 9, 49, 64
3, 85435, Note_on_c, 9, 42, 122
3, 85462, Note_off_c, 9, 42, 64
3, 85537, Note_on_c, 9, 42, 121
3, 85571, Note_off_c, 9, 42, 64
3, 85641, Note_on_c, 9, 42, 120
3, 85675, Note_off_c, 9, 42, 64
3, 85736, Note_on_c, 9, 42, 117
3, 85768, Note_off_c, 9, 42, 64
3, 85833, Note_on_c, 9, 42, 117
3, 85872, Note_off_c, 9, 42, 64
3, 85937, Note_on_c, 9, 42, 117
3, 85971, Note_off_c, 9, 42, 64
3, 86032, Note_on_c, 9, 42, 116
3, 86065, Note_off_c, 9, 42, 64
3, 86131, Note_on_c, 9, 42, 116
3, 86163, Note_off_c, 9, 42, 64
3, 86224, Note_on_c, 9, 42, 111
3, 86257, Note_off_c, 9, 42, 64
3, 86318, Note_on_c, 9, 42, 111
3, 86352, Note_off_c, 9, 42, 64
3, 86417, Note_on_c, 9, 42, 120
3, 86456, Note_off_c, 9, 42, 64
3, 86516, Note_on_c, 9, 42, 117
3, 86548, Note_off_c, 9, 42, 64
3, 86611, Note_on_c, 9, 42, 116
3, 86643, Note_off_c, 9, 42, 64
3, 86699, Note_on_c, 9, 42, 111
3, 86732, Note_off_c, 9, 42, 64
3, 86784, Note_on_c, 9, 42, 111
3, 86822, Note_off_c, 9, 42, 64
3, 86878, Note_on_c, 9, 42, 114
3, 86912, Note_off_c, 9, 42, 64
3, 86972, Note_on_c, 9, 42, 117
3, 87009, Note_off_c, 9, 42, 64
3, 87072, Note_on_c, 9, 42, 117
3, 87104, Note_off_c, 9, 42, 64
3, 87169, Note_on_c, 9, 42, 111
3, 87203, Note_off_c, 9, 42, 64
3, 87278, Note_on_c, 9, 42, 120
3, 87316, Note_off_c, 9, 42, 64
3, 87372, Note_on_c, 9, 42, 117
3, 87414, Note_off_c, 9, 42, 64
3, 87472, Note_on_c, 9, 42, 120
3, 87504, Note_off_c, 9, 42, 64
3, 87564, Note_on_c, 9, 42, 124
3, 87598, Note_off_c, 9, 42, 64
3, 87664, Note_on_c, 9, 42, 121
3, 87697, Note_off_c, 9, 42, 64
3, 87758, Note_on_c, 9, 42, 121
3, 87787, Note_off_c, 9, 42, 64
3, 87857, Note_on_c, 9, 42, 127
3, 87884, Note_off_c, 9, 42, 64
3, 88320, Note_on_c, 9, 49, 124
3, 88510, Note_off_c, 9, 49, 64
3, 88652, Note_on_c, 9, 42, 127
3, 88684, Note_off_c, 9, 42, 64
3, 88750, Note_on_c, 9, 42, 120
3, 88784, Note_off_c, 9, 42, 64
3, 88864, Note_on_c, 9, 42, 120
3, 88905, Note_off_c, 9, 42, 64
3, 88976, Note_on_c, 9, 42, 120
3, 89009, Note_off_c, 9, 42, 64
3, 89084, Note_on_c, 9, 42, 120
3, 89118, Note_off_c, 9, 42, 64
3, 89188, Note_on_c, 9, 42, 116
3, 89220, Note_off_c, 9, 42, 64
3, 89286, Note_on_c, 9, 42, 116
3, 89320, Note_off_c, 9, 42, 64
3, 89385, Note_on_c, 9, 42, 114
3, 89414, Note_off_c, 9, 42, 64
3, 89480, Note_on_c, 9, 42, 121
3, 89516, Note_off_c, 9, 42, 64
3, 89584, Note_on_c, 9, 42, 114
3, 89616, Note_off_c, 9, 42, 64
3, 89676, Note_on_c, 9, 42, 120
3, 89710, Note_off_c, 9, 42, 64
3, 89771, Note_on_c, 9, 42, 120
3, 89804, Note_off_c, 9, 42, 64
3, 89865, Note_on_c, 9, 42, 121
3, 89899, Note_off_c, 9, 42, 64
3, 89964, Note_on_c, 9, 42, 116
3, 89992, Note_off_c, 9, 42, 64
3, 90059, Note_on_c, 9, 42, 116
3, 90086, Note_off_c, 9, 42, 64
3, 90147, Note_on_c, 9, 42, 117
3, 90176, Note_off_c, 9, 42, 64
3, 90251, Note_on_c, 9, 42, 120
3, 90284, Note_off_c, 9, 42, 64
3, 90355, Note_on_c, 9, 42, 111
3, 90382, Note_off_c, 9, 42, 64
3, 90444, Note_on_c, 9, 42, 121
3, 90476, Note_off_c, 9, 42, 64
3, 90537, Note_on_c, 9, 42, 117
3, 90571, Note_off_c, 9, 42, 64
3, 90627, Note_on_c, 9, 42, 116
3, 90665, Note_off_c, 9, 42, 64
3, 90726, Note_on_c, 9, 42, 117
3, 90760, Note_off_c, 9, 42, 64
3, 91371, Note_on_c, 9, 49, 122
3, 91398, Note_off_c, 9, 49, 64
3, 91398, End_track
4, 0, Start_track
4, 0, Title_t, "BASS"
4, 0, Channel_prefix, 0
4, 0, Control_c, 0, 7, 60
4, 0, Program_c, 0, 38
4, 785, Note_on_c, 0, 28, 84
4, 1115, Note_off_c, 0, 28, 64
4, 1163, Note_on_c, 0, 28, 108
4, 1257, Note_on_c, 0, 30, 111
4, 1296, Note_off_c, 0, 28, 64
4, 1344, Note_on_c, 0, 33, 82
4, 1372, Note_off_c, 0, 30, 64
4, 1428, Note_on_c, 0, 35, 106
4, 1438, Note_off_c, 0, 33, 64
4, 2307, Note_off_c, 0, 35, 64
4, 2307, Note_on_c, 0, 33, 116
4, 2640, Note_off_c, 0, 33, 64
4, 2688, Note_on_c, 0, 33, 109
4, 2774, Note_off_c, 0, 33, 64
4, 2784, Note_on_c, 0, 35, 109
4, 2859, Note_off_c, 0, 35, 64
4, 2864, Note_on_c, 0, 33, 96
4, 2960, Note_off_c, 0, 33, 64
4, 2969, Note_on_c, 0, 35, 121
4, 3360, Note_on_c, 0, 33, 81
4, 3369, Note_off_c, 0, 35, 64
4, 3451, Note_on_c, 0, 37, 120
4, 3465, Note_off_c, 0, 33, 64
4, 3646, Note_on_c, 0, 35, 99
4, 3675, Note_off_c, 0, 37, 64
4, 3742, Note_on_c, 0, 33, 99
4, 3761, Note_off_c, 0, 35, 64
4, 3851, Note_on_c, 0, 28, 122
4, 3860, Note_off_c, 0, 33, 64
4, 4152, Note_off_c, 0, 28, 64
4, 4219, Note_on_c, 0, 28, 117
4, 4304, Note_on_c, 0, 30, 99
4, 4332, Note_off_c, 0, 28, 64
4, 4414, Note_on_c, 0, 33, 92
4, 4428, Note_off_c, 0, 30, 64
4, 4500, Note_on_c, 0, 35, 92
4, 4510, Note_off_c, 0, 33, 64
4, 5372, Note_on_c, 0, 33, 93
4, 5382, Note_off_c, 0, 35, 64
4, 5707, Note_off_c, 0, 33, 64
4, 5744, Note_on_c, 0, 33, 103
4, 5830, Note_off_c, 0, 33, 64
4, 5849, Note_on_c, 0, 35, 114
4, 5936, Note_off_c, 0, 35, 64
4, 5945, Note_on_c, 0, 33, 114
4, 6044, Note_on_c, 0, 35, 120
4, 6049, Note_off_c, 0, 33, 64
4, 6432, Note_on_c, 0, 33, 85
4, 6444, Note_off_c, 0, 35, 64
4, 6531, Note_on_c, 0, 37, 122
4, 6576, Note_off_c, 0, 33, 64
4, 6712, Note_on_c, 0, 35, 114
4, 6731, Note_off_c, 0, 37, 64
4, 6803, Note_on_c, 0, 33, 98
4, 6827, Note_off_c, 0, 35, 64
4, 6921, Note_off_c, 0, 33, 64
4, 6924, Note_on_c, 0, 28, 116
4, 7059, Note_off_c, 0, 28, 64
4, 7105, Note_on_c, 0, 28, 121
4, 7235, Note_off_c, 0, 28, 64
4, 7283, Note_on_c, 0, 28, 111
4, 7382, Note_on_c, 0, 30, 117
4, 7406, Note_off_c, 0, 28, 64
4, 7473, Note_off_c, 0, 30, 64
4, 7473, Note_on_c, 0, 33, 108
4, 7536, Note_off_c, 0, 33, 64
4, 7569, Note_on_c, 0, 35, 124
4, 8412, Note_off_c, 0, 35, 64
4, 8441, Note_on_c, 0, 33, 111
4, 8764, Note_off_c, 0, 33, 64
4, 8822, Note_on_c, 0, 33, 103
4, 8889, Note_off_c, 0, 33, 64
4, 8918, Note_on_c, 0, 35, 120
4, 9000, Note_off_c, 0, 35, 64
4, 9027, Note_on_c, 0, 33, 117
4, 9084, Note_off_c, 0, 33, 64
4, 9113, Note_on_c, 0, 35, 122
4, 9518, Note_off_c, 0, 35, 64
4, 9523, Note_on_c, 0, 33, 89
4, 9600, Note_off_c, 0, 33, 64
4, 9624, Note_on_c, 0, 37, 127
4, 9804, Note_on_c, 0, 35, 101
4, 9833, Note_off_c, 0, 37, 64
4, 9990, Note_off_c, 0, 35, 64
4, 9990, Note_on_c, 0, 28, 120
4, 10281, Note_off_c, 0, 28, 64
4, 10353, Note_on_c, 0, 28, 99
4, 10462, Note_on_c, 0, 30, 109
4, 10481, Note_off_c, 0, 28, 64
4, 10544, Note_off_c, 0, 30, 64
4, 10553, Note_on_c, 0, 33, 111
4, 10616, Note_off_c, 0, 33, 64
4, 10649, Note_on_c, 0, 35, 124
4, 11492, Note_off_c, 0, 35, 64
4, 11521, Note_on_c, 0, 33, 108
4, 11827, Note_off_c, 0, 33, 64
4, 11897, Note_on_c, 0, 33, 99
4, 11969, Note_off_c, 0, 33, 64
4, 11993, Note_on_c, 0, 35, 116
4, 12070, Note_off_c, 0, 35, 64
4, 12094, Note_on_c, 0, 33, 81
4, 12160, Note_off_c, 0, 33, 64
4, 12184, Note_on_c, 0, 35, 120
4, 12532, Note_off_c, 0, 35, 64
4, 12579, Note_on_c, 0, 35, 120
4, 12732, Note_off_c, 0, 35, 64
4, 12766, Note_on_c, 0, 35, 111
4, 12822, Note_off_c, 0, 35, 64
4, 12865, Note_on_c, 0, 35, 111
4, 12918, Note_off_c, 0, 35, 64
4, 12961, Note_on_c, 0, 35, 122
4, 13043, Note_off_c, 0, 35, 64
4, 13060, Note_on_c, 0, 28, 120
4, 13209, Note_off_c, 0, 28, 64
4, 13257, Note_on_c, 0, 28, 114
4, 13366, Note_off_c, 0, 28, 64
4, 13428, Note_on_c, 0, 28, 114
4, 13532, Note_on_c, 0, 30, 120
4, 13552, Note_off_c, 0, 28, 64
4, 13609, Note_off_c, 0, 30, 64
4, 13628, Note_on_c, 0, 33, 116
4, 13686, Note_off_c, 0, 33, 64
4, 13724, Note_on_c, 0, 35, 127
4, 14563, Note_off_c, 0, 35, 64
4, 14592, Note_on_c, 0, 33, 120
4, 14931, Note_off_c, 0, 33, 64
4, 14982, Note_on_c, 0, 33, 93
4, 15049, Note_off_c, 0, 33, 64
4, 15078, Note_on_c, 0, 35, 121
4, 15145, Note_off_c, 0, 35, 64
4, 15174, Note_on_c, 0, 33, 108
4, 15230, Note_off_c, 0, 33, 64
4, 15259, Note_on_c, 0, 35, 120
4, 15651, Note_on_c, 0, 33, 109
4, 15656, Note_off_c, 0, 35, 64
4, 15726, Note_off_c, 0, 33, 64
4, 15755, Note_on_c, 0, 37, 117
4, 15936, Note_on_c, 0, 35, 92
4, 15979, Note_off_c, 0, 37, 64
4, 16046, Note_on_c, 0, 33, 96
4, 16070, Note_off_c, 0, 35, 64
4, 16142, Note_off_c, 0, 33, 64
4, 16142, Note_on_c, 0, 28, 89
4, 16147, Note_on_c, 0, 26, 92
4, 16198, Note_off_c, 0, 26, 64
4, 16299, Note_off_c, 0, 28, 64
4, 16332, Note_on_c, 0, 28, 114
4, 16460, Note_off_c, 0, 28, 64
4, 16518, Note_on_c, 0, 28, 101
4, 16609, Note_on_c, 0, 30, 92
4, 16632, Note_off_c, 0, 28, 64
4, 16684, Note_off_c, 0, 30, 64
4, 16694, Note_on_c, 0, 33, 103
4, 16771, Note_off_c, 0, 33, 64
4, 16800, Note_on_c, 0, 35, 124
4, 17643, Note_off_c, 0, 35, 64
4, 17662, Note_on_c, 0, 33, 99
4, 18025, Note_off_c, 0, 33, 64
4, 18067, Note_on_c, 0, 33, 92
4, 18134, Note_off_c, 0, 33, 64
4, 18148, Note_on_c, 0, 35, 117
4, 18225, Note_off_c, 0, 35, 64
4, 18240, Note_on_c, 0, 33, 114
4, 18305, Note_off_c, 0, 33, 64
4, 18334, Note_on_c, 0, 35, 116
4, 18736, Note_on_c, 0, 33, 103
4, 18745, Note_off_c, 0, 35, 64
4, 18830, Note_off_c, 0, 33, 64
4, 18835, Note_on_c, 0, 37, 93
4, 19008, Note_on_c, 0, 35, 87
4, 19044, Note_off_c, 0, 37, 64
4, 19092, Note_on_c, 0, 33, 85
4, 19112, Note_off_c, 0, 35, 64
4, 19188, Note_off_c, 0, 33, 64
4, 19203, Note_on_c, 0, 28, 124
4, 19355, Note_off_c, 0, 28, 64
4, 19388, Note_on_c, 0, 28, 116
4, 19536, Note_off_c, 0, 28, 64
4, 19579, Note_on_c, 0, 28, 109
4, 19675, Note_on_c, 0, 30, 103
4, 19704, Note_off_c, 0, 28, 64
4, 19764, Note_off_c, 0, 30, 64
4, 19769, Note_on_c, 0, 33, 106
4, 19841, Note_off_c, 0, 33, 64
4, 19865, Note_on_c, 0, 35, 124
4, 20718, Note_off_c, 0, 35, 64
4, 20732, Note_on_c, 0, 33, 121
4, 21062, Note_off_c, 0, 33, 64
4, 21110, Note_on_c, 0, 33, 99
4, 21185, Note_off_c, 0, 33, 64
4, 21200, Note_on_c, 0, 35, 111
4, 21276, Note_off_c, 0, 35, 64
4, 21300, Note_on_c, 0, 33, 99
4, 21392, Note_off_c, 0, 33, 64
4, 21392, Note_on_c, 0, 35, 120
4, 21787, Note_on_c, 0, 33, 103
4, 21806, Note_off_c, 0, 35, 64
4, 21896, Note_on_c, 0, 37, 117
4, 21900, Note_off_c, 0, 33, 64
4, 22073, Note_on_c, 0, 35, 106
4, 22107, Note_off_c, 0, 37, 64
4, 22158, Note_on_c, 0, 33, 89
4, 22177, Note_off_c, 0, 35, 64
4, 22292, Note_on_c, 0, 28, 117
4, 22302, Note_off_c, 0, 33, 64
4, 22430, Note_off_c, 0, 28, 64
4, 22473, Note_on_c, 0, 28, 116
4, 22606, Note_off_c, 0, 28, 64
4, 22664, Note_on_c, 0, 28, 103
4, 22760, Note_on_c, 0, 30, 120
4, 22779, Note_off_c, 0, 28, 64
4, 22835, Note_off_c, 0, 30, 64
4, 22844, Note_on_c, 0, 33, 108
4, 22931, Note_off_c, 0, 33, 64
4, 22945, Note_on_c, 0, 35, 121
4, 23776, Note_off_c, 0, 35, 64
4, 23806, Note_on_c, 0, 33, 108
4, 24192, Note_off_c, 0, 33, 64
4, 24220, Note_on_c, 0, 33, 96
4, 24283, Note_off_c, 0, 33, 64
4, 24307, Note_on_c, 0, 35, 116
4, 24372, Note_off_c, 0, 35, 64
4, 24396, Note_on_c, 0, 33, 111
4, 24473, Note_off_c, 0, 33, 64
4, 24488, Note_on_c, 0, 35, 121
4, 24868, Note_on_c, 0, 33, 96
4, 24878, Note_off_c, 0, 35, 64
4, 24955, Note_off_c, 0, 33, 64
4, 24964, Note_on_c, 0, 37, 124
4, 25164, Note_on_c, 0, 35, 122
4, 25179, Note_off_c, 0, 37, 64
4, 25336, Note_off_c, 0, 35, 64
4, 25350, Note_on_c, 0, 33, 120
4, 26070, Note_off_c, 0, 33, 64
4, 26123, Note_on_c, 0, 35, 122
4, 26872, Note_off_c, 0, 35, 64
4, 26876, Note_on_c, 0, 28, 103
4, 27630, Note_off_c, 0, 28, 64
4, 27651, Note_on_c, 0, 33, 111
4, 27659, Note_on_c, 0, 33, 122
4, 28352, Note_off_c, 0, 33, 64
4, 28379, Note_off_c, 0, 33, 64
4, 28427, Note_on_c, 0, 33, 114
4, 29147, Note_off_c, 0, 33, 64
4, 29200, Note_on_c, 0, 35, 116
4, 29958, Note_off_c, 0, 35, 64
4, 29958, Note_on_c, 0, 28, 121
4, 30697, Note_off_c, 0, 28, 64
4, 30731, Note_on_c, 0, 33, 120
4, 31379, Note_off_c, 0, 33, 64
4, 31480, Note_on_c, 0, 33, 116
4, 32185, Note_off_c, 0, 33, 64
4, 32256, Note_on_c, 0, 35, 121
4, 32971, Note_off_c, 0, 35, 64
4, 33022, Note_on_c, 0, 28, 96
4, 33185, Note_off_c, 0, 28, 64
4, 33217, Note_on_c, 0, 28, 116
4, 33376, Note_off_c, 0, 28, 64
4, 33419, Note_on_c, 0, 28, 114
4, 33504, Note_on_c, 0, 30, 116
4, 33537, Note_off_c, 0, 28, 64
4, 33600, Note_off_c, 0, 30, 64
4, 33600, Note_on_c, 0, 33, 109
4, 33657, Note_off_c, 0, 33, 64
4, 33694, Note_on_c, 0, 35, 127
4, 34524, Note_off_c, 0, 35, 64
4, 34558, Note_on_c, 0, 33, 121
4, 34929, Note_off_c, 0, 33, 64
4, 34953, Note_on_c, 0, 33, 87
4, 35030, Note_off_c, 0, 33, 64
4, 35054, Note_on_c, 0, 35, 127
4, 35139, Note_off_c, 0, 35, 64
4, 35148, Note_on_c, 0, 33, 96
4, 35201, Note_off_c, 0, 33, 64
4, 35235, Note_on_c, 0, 35, 126
4, 35625, Note_off_c, 0, 35, 64
4, 35625, Note_on_c, 0, 33, 96
4, 35716, Note_off_c, 0, 33, 64
4, 35731, Note_on_c, 0, 37, 121
4, 35912, Note_on_c, 0, 35, 103
4, 35926, Note_off_c, 0, 37, 64
4, 36112, Note_on_c, 0, 28, 117
4, 36121, Note_off_c, 0, 35, 64
4, 36427, Note_off_c, 0, 28, 64
4, 36484, Note_on_c, 0, 28, 99
4, 36574, Note_on_c, 0, 30, 120
4, 36598, Note_off_c, 0, 28, 64
4, 36660, Note_on_c, 0, 33, 117
4, 36665, Note_off_c, 0, 30, 64
4, 36723, Note_off_c, 0, 33, 64
4, 36756, Note_on_c, 0, 35, 122
4, 37595, Note_off_c, 0, 35, 64
4, 37624, Note_on_c, 0, 33, 111
4, 37972, Note_off_c, 0, 33, 64
4, 38019, Note_on_c, 0, 33, 101
4, 38086, Note_off_c, 0, 33, 64
4, 38115, Note_on_c, 0, 35, 121
4, 38177, Note_off_c, 0, 35, 64
4, 38214, Note_on_c, 0, 33, 121
4, 38272, Note_off_c, 0, 33, 64
4, 38300, Note_on_c, 0, 35, 121
4, 38705, Note_off_c, 0, 35, 64
4, 38710, Note_on_c, 0, 33, 87
4, 38801, Note_on_c, 0, 37, 120
4, 38811, Note_off_c, 0, 33, 64
4, 38987, Note_on_c, 0, 35, 84
4, 38996, Note_off_c, 0, 37, 64
4, 39068, Note_on_c, 0, 33, 98
4, 39083, Note_off_c, 0, 35, 64
4, 39160, Note_off_c, 0, 33, 64
4, 39177, Note_on_c, 0, 28, 116
4, 39326, Note_off_c, 0, 28, 64
4, 39553, Note_on_c, 0, 28, 80
4, 39662, Note_on_c, 0, 30, 122
4, 39686, Note_off_c, 0, 28, 64
4, 39744, Note_on_c, 0, 33, 103
4, 39763, Note_off_c, 0, 30, 64
4, 39801, Note_off_c, 0, 33, 64
4, 39840, Note_on_c, 0, 35, 124
4, 40664, Note_off_c, 0, 35, 64
4, 40702, Note_on_c, 0, 33, 121
4, 41056, Note_off_c, 0, 33, 64
4, 41092, Note_on_c, 0, 33, 114
4, 41174, Note_off_c, 0, 33, 64
4, 41188, Note_on_c, 0, 35, 120
4, 41270, Note_off_c, 0, 35, 64
4, 41289, Note_on_c, 0, 33, 114
4, 41374, Note_off_c, 0, 33, 64
4, 41379, Note_on_c, 0, 35, 121
4, 41771, Note_off_c, 0, 35, 64
4, 41771, Note_on_c, 0, 33, 91
4, 41856, Note_off_c, 0, 33, 64
4, 41865, Note_on_c, 0, 37, 122
4, 42046, Note_on_c, 0, 35, 92
4, 42065, Note_off_c, 0, 37, 64
4, 42248, Note_on_c, 0, 28, 122
4, 42252, Note_off_c, 0, 35, 64
4, 42428, Note_off_c, 0, 28, 64
4, 42443, Note_on_c, 0, 28, 79
4, 42571, Note_off_c, 0, 28, 64
4, 42624, Note_on_c, 0, 28, 117
4, 42729, Note_on_c, 0, 30, 116
4, 42752, Note_off_c, 0, 28, 64
4, 42814, Note_on_c, 0, 33, 116
4, 42824, Note_off_c, 0, 30, 64
4, 42876, Note_off_c, 0, 33, 64
4, 42905, Note_on_c, 0, 35, 124
4, 43753, Note_off_c, 0, 35, 64
4, 43777, Note_on_c, 0, 33, 116
4, 44521, Note_off_c, 0, 33, 64
4, 44545, Note_on_c, 0, 35, 120
4, 45332, Note_on_c, 0, 28, 121
4, 45337, Note_off_c, 0, 35, 64
4, 45484, Note_off_c, 0, 28, 64
4, 45528, Note_on_c, 0, 28, 114
4, 45651, Note_off_c, 0, 28, 64
4, 45694, Note_on_c, 0, 28, 96
4, 45804, Note_on_c, 0, 30, 117
4, 45833, Note_off_c, 0, 28, 64
4, 45880, Note_on_c, 0, 33, 103
4, 45908, Note_off_c, 0, 30, 64
4, 45952, Note_off_c, 0, 33, 64
4, 45980, Note_on_c, 0, 35, 122
4, 46809, Note_off_c, 0, 35, 64
4, 46848, Note_on_c, 0, 33, 121
4, 47201, Note_off_c, 0, 33, 64
4, 47240, Note_on_c, 0, 33, 103
4, 47315, Note_off_c, 0, 33, 64
4, 47339, Note_on_c, 0, 35, 116
4, 47401, Note_off_c, 0, 35, 64
4, 47430, Note_on_c, 0, 33, 96
4, 47507, Note_off_c, 0, 33, 64
4, 47520, Note_on_c, 0, 35, 120
4, 47916, Note_on_c, 0, 33, 114
4, 47931, Note_off_c, 0, 35, 64
4, 47987, Note_off_c, 0, 33, 64
4, 48011, Note_on_c, 0, 37, 121
4, 48198, Note_on_c, 0, 35, 103
4, 48212, Note_off_c, 0, 37, 64
4, 48268, Note_on_c, 0, 33, 106
4, 48283, Note_off_c, 0, 35, 64
4, 48374, Note_off_c, 0, 33, 64
4, 48388, Note_on_c, 0, 28, 122
4, 48731, Note_off_c, 0, 28, 64
4, 48774, Note_on_c, 0, 28, 106
4, 48875, Note_on_c, 0, 30, 121
4, 48904, Note_off_c, 0, 28, 64
4, 48955, Note_on_c, 0, 33, 108
4, 48979, Note_off_c, 0, 30, 64
4, 49036, Note_off_c, 0, 33, 64
4, 49051, Note_on_c, 0, 35, 124
4, 49894, Note_off_c, 0, 35, 64
4, 49923, Note_on_c, 0, 33, 114
4, 50276, Note_off_c, 0, 33, 64
4, 50310, Note_on_c, 0, 33, 103
4, 50380, Note_off_c, 0, 33, 64
4, 50395, Note_on_c, 0, 35, 106
4, 50462, Note_off_c, 0, 35, 64
4, 50491, Note_on_c, 0, 33, 87
4, 50582, Note_off_c, 0, 33, 64
4, 50582, Note_on_c, 0, 35, 121
4, 50987, Note_on_c, 0, 33, 103
4, 50996, Note_off_c, 0, 35, 64
4, 51078, Note_off_c, 0, 33, 64
4, 51096, Note_on_c, 0, 37, 77
4, 51268, Note_on_c, 0, 35, 117
4, 51292, Note_off_c, 0, 37, 64
4, 51454, Note_off_c, 0, 35, 64
4, 51459, Note_on_c, 0, 33, 111
4, 52217, Note_on_c, 0, 35, 99
4, 52297, Note_off_c, 0, 33, 64
4, 53003, Note_on_c, 0, 28, 126
4, 53008, Note_off_c, 0, 35, 64
4, 53790, Note_off_c, 0, 28, 64
4, 53790, Note_on_c, 0, 33, 127
4, 54496, Note_off_c, 0, 33, 64
4, 54548, Note_on_c, 0, 33, 117
4, 55278, Note_off_c, 0, 33, 64
4, 55331, Note_on_c, 0, 35, 124
4, 56070, Note_on_c, 0, 28, 121
4, 56075, Note_off_c, 0, 35, 64
4, 56832, Note_off_c, 0, 28, 64
4, 56841, Note_on_c, 0, 33, 120
4, 57552, Note_off_c, 0, 33, 64
4, 57619, Note_on_c, 0, 33, 116
4, 58320, Note_off_c, 0, 33, 64
4, 58372, Note_on_c, 0, 35, 117
4, 58987, Note_off_c, 0, 35, 64
4, 59139, Note_on_c, 0, 37, 127
4, 59185, Note_off_c, 0, 37, 64
4, 59329, Note_on_c, 0, 37, 126
4, 59368, Note_off_c, 0, 37, 64
4, 59424, Note_on_c, 0, 37, 127
4, 59476, Note_off_c, 0, 37, 64
4, 59705, Note_on_c, 0, 37, 126
4, 59739, Note_off_c, 0, 37, 64
4, 59796, Note_on_c, 0, 35, 122
4, 59835, Note_off_c, 0, 35, 64
4, 59910, Note_on_c, 0, 32, 124
4, 59992, Note_off_c, 0, 32, 64
4, 60088, Note_on_c, 0, 32, 124
4, 60129, Note_off_c, 0, 32, 64
4, 60201, Note_on_c, 0, 32, 127
4, 60254, Note_off_c, 0, 32, 64
4, 60488, Note_on_c, 0, 32, 124
4, 60540, Note_off_c, 0, 32, 64
4, 60678, Note_on_c, 0, 33, 124
4, 60721, Note_off_c, 0, 33, 64
4, 60873, Note_on_c, 0, 33, 126
4, 60907, Note_off_c, 0, 33, 64
4, 60969, Note_on_c, 0, 33, 122
4, 61012, Note_off_c, 0, 33, 64
4, 61241, Note_on_c, 0, 33, 127
4, 61280, Note_off_c, 0, 33, 64
4, 61460, Note_on_c, 0, 33, 124
4, 61494, Note_off_c, 0, 33, 64
4, 61651, Note_on_c, 0, 33, 122
4, 61684, Note_off_c, 0, 33, 64
4, 61742, Note_on_c, 0, 33, 124
4, 61784, Note_off_c, 0, 33, 64
4, 62014, Note_on_c, 0, 33, 124
4, 62060, Note_off_c, 0, 33, 64
4, 62209, Note_on_c, 0, 37, 121
4, 62248, Note_off_c, 0, 37, 64
4, 62414, Note_on_c, 0, 37, 124
4, 62448, Note_off_c, 0, 37, 64
4, 62504, Note_on_c, 0, 37, 127
4, 62547, Note_off_c, 0, 37, 64
4, 62790, Note_on_c, 0, 37, 124
4, 62828, Note_off_c, 0, 37, 64
4, 62886, Note_on_c, 0, 35, 114
4, 62939, Note_off_c, 0, 35, 64
4, 62995, Note_on_c, 0, 32, 121
4, 63062, Note_off_c, 0, 32, 64
4, 63182, Note_on_c, 0, 32, 124
4, 63219, Note_off_c, 0, 32, 64
4, 63281, Note_on_c, 0, 32, 126
4, 63329, Note_off_c, 0, 32, 64
4, 63568, Note_on_c, 0, 32, 127
4, 63616, Note_off_c, 0, 32, 64
4, 63744, Note_on_c, 0, 33, 124
4, 63787, Note_off_c, 0, 33, 64
4, 63929, Note_on_c, 0, 33, 127
4, 63968, Note_off_c, 0, 33, 64
4, 64035, Note_on_c, 0, 33, 122
4, 64068, Note_off_c, 0, 33, 64
4, 64307, Note_on_c, 0, 33, 126
4, 64345, Note_off_c, 0, 33, 64
4, 64521, Note_on_c, 0, 33, 124
4, 64560, Note_off_c, 0, 33, 64
4, 71414, Note_on_c, 0, 33, 126
4, 72129, Note_off_c, 0, 33, 64
4, 72190, Note_on_c, 0, 35, 124
4, 72944, Note_off_c, 0, 35, 64
4, 72944, Note_on_c, 0, 28, 91
4, 73700, Note_off_c, 0, 28, 64
4, 73747, Note_on_c, 0, 33, 116
4, 74396, Note_off_c, 0, 33, 64
4, 74529, Note_on_c, 0, 33, 124
4, 75220, Note_off_c, 0, 33, 64
4, 75276, Note_on_c, 0, 35, 108
4, 75958, Note_off_c, 0, 35, 64
4, 76043, Note_on_c, 0, 28, 93
4, 76758, Note_off_c, 0, 28, 64
4, 76814, Note_on_c, 0, 33, 114
4, 77478, Note_off_c, 0, 33, 64
4, 77595, Note_on_c, 0, 33, 124
4, 78296, Note_off_c, 0, 33, 64
4, 78344, Note_on_c, 0, 35, 117
4, 78998, Note_off_c, 0, 35, 64
4, 79105, Note_on_c, 0, 28, 111
4, 79260, Note_off_c, 0, 28, 64
4, 79292, Note_on_c, 0, 28, 111
4, 79444, Note_off_c, 0, 28, 64
4, 79476, Note_on_c, 0, 28, 84
4, 79590, Note_on_c, 0, 30, 108
4, 79612, Note_off_c, 0, 28, 64
4, 79684, Note_on_c, 0, 33, 114
4, 79692, Note_off_c, 0, 30, 64
4, 79736, Note_off_c, 0, 33, 64
4, 79777, Note_on_c, 0, 35, 124
4, 79932, Note_off_c, 0, 35, 64
4, 79966, Note_on_c, 0, 35, 111
4, 80121, Note_off_c, 0, 35, 64
4, 80155, Note_on_c, 0, 35, 111
4, 80211, Note_off_c, 0, 35, 64
4, 80252, Note_on_c, 0, 35, 111
4, 80408, Note_off_c, 0, 35, 64
4, 80446, Note_on_c, 0, 35, 120
4, 80620, Note_off_c, 0, 35, 64
4, 80643, Note_on_c, 0, 33, 120
4, 80977, Note_off_c, 0, 33, 64
4, 81011, Note_on_c, 0, 33, 108
4, 81072, Note_off_c, 0, 33, 64
4, 81108, Note_on_c, 0, 35, 120
4, 81161, Note_off_c, 0, 35, 64
4, 81208, Note_on_c, 0, 33, 121
4, 81251, Note_off_c, 0, 33, 64
4, 81302, Note_on_c, 0, 35, 121
4, 81481, Note_off_c, 0, 35, 64
4, 81504, Note_on_c, 0, 33, 111
4, 81566, Note_off_c, 0, 33, 64
4, 81603, Note_on_c, 0, 35, 116
4, 81678, Note_off_c, 0, 35, 64
4, 81692, Note_on_c, 0, 33, 116
4, 81748, Note_off_c, 0, 33, 64
4, 81796, Note_on_c, 0, 37, 120
4, 81969, Note_off_c, 0, 37, 64
4, 81979, Note_on_c, 0, 35, 111
4, 82153, Note_off_c, 0, 35, 64
4, 82163, Note_on_c, 0, 28, 116
4, 82328, Note_off_c, 0, 28, 64
4, 82369, Note_on_c, 0, 28, 108
4, 82483, Note_off_c, 0, 28, 64
4, 82553, Note_on_c, 0, 28, 103
4, 82665, Note_on_c, 0, 30, 124
4, 82694, Note_off_c, 0, 28, 64
4, 82745, Note_off_c, 0, 30, 64
4, 82755, Note_on_c, 0, 33, 111
4, 82820, Note_off_c, 0, 33, 64
4, 82859, Note_on_c, 0, 35, 122
4, 83033, Note_off_c, 0, 35, 64
4, 83052, Note_on_c, 0, 35, 108
4, 83203, Note_off_c, 0, 35, 64
4, 83240, Note_on_c, 0, 35, 114
4, 83288, Note_off_c, 0, 35, 64
4, 83334, Note_on_c, 0, 35, 111
4, 83489, Note_off_c, 0, 35, 64
4, 83523, Note_on_c, 0, 35, 109
4, 83683, Note_off_c, 0, 35, 64
4, 83710, Note_on_c, 0, 33, 111
4, 83856, Note_off_c, 0, 33, 64
4, 83904, Note_on_c, 0, 33, 101
4, 84054, Note_off_c, 0, 33, 64
4, 84100, Note_on_c, 0, 33, 101
4, 84176, Note_off_c, 0, 33, 64
4, 84195, Note_on_c, 0, 35, 121
4, 84260, Note_off_c, 0, 35, 64
4, 84294, Note_on_c, 0, 33, 117
4, 84355, Note_off_c, 0, 33, 64
4, 84379, Note_on_c, 0, 35, 120
4, 84571, Note_off_c, 0, 35, 64
4, 84576, Note_on_c, 0, 33, 103
4, 84646, Note_off_c, 0, 33, 64
4, 84670, Note_on_c, 0, 35, 116
4, 84760, Note_on_c, 0, 33, 116
4, 84769, Note_off_c, 0, 35, 64
4, 84844, Note_off_c, 0, 33, 64
4, 84867, Note_on_c, 0, 37, 114
4, 85060, Note_on_c, 0, 35, 111
4, 85075, Note_off_c, 0, 37, 64
4, 85257, Note_off_c, 0, 35, 64
4, 85257, Note_on_c, 0, 28, 114
4, 85390, Note_off_c, 0, 28, 64
4, 85451, Note_on_c, 0, 28, 101
4, 85568, Note_off_c, 0, 28, 64
4, 85620, Note_on_c, 0, 28, 88
4, 85728, Note_on_c, 0, 30, 111
4, 85747, Note_off_c, 0, 28, 64
4, 85808, Note_off_c, 0, 30, 64
4, 85812, Note_on_c, 0, 33, 116
4, 85878, Note_off_c, 0, 33, 64
4, 85921, Note_on_c, 0, 35, 126
4, 86081, Note_off_c, 0, 35, 64
4, 86128, Note_on_c, 0, 35, 117
4, 86241, Note_off_c, 0, 35, 64
4, 86312, Note_on_c, 0, 35, 117
4, 86358, Note_off_c, 0, 35, 64
4, 86411, Note_on_c, 0, 35, 117
4, 86556, Note_off_c, 0, 35, 64
4, 86603, Note_on_c, 0, 35, 116
4, 86758, Note_off_c, 0, 35, 64
4, 86792, Note_on_c, 0, 33, 108
4, 86937, Note_off_c, 0, 33, 64
4, 86988, Note_on_c, 0, 33, 114
4, 87134, Note_off_c, 0, 33, 64
4, 87182, Note_on_c, 0, 33, 99
4, 87248, Note_off_c, 0, 33, 64
4, 87276, Note_on_c, 0, 35, 121
4, 87328, Note_off_c, 0, 35, 64
4, 87369, Note_on_c, 0, 33, 120
4, 87427, Note_off_c, 0, 33, 64
4, 87459, Note_on_c, 0, 35, 121
4, 87657, Note_off_c, 0, 35, 64
4, 87672, Note_on_c, 0, 33, 108
4, 87732, Note_off_c, 0, 33, 64
4, 87764, Note_on_c, 0, 35, 116
4, 87849, Note_on_c, 0, 33, 117
4, 87864, Note_off_c, 0, 35, 64
4, 87916, Note_off_c, 0, 33, 64
4, 87953, Note_on_c, 0, 37, 108
4, 88147, Note_off_c, 0, 37, 64
4, 88147, Note_on_c, 0, 35, 117
4, 88320, Note_off_c, 0, 35, 64
4, 88339, Note_on_c, 0, 28, 103
4, 88489, Note_off_c, 0, 28, 64
4, 88545, Note_on_c, 0, 28, 114
4, 88673, Note_off_c, 0, 28, 64
4, 88734, Note_on_c, 0, 28, 87
4, 88824, Note_on_c, 0, 30, 117
4, 88843, Note_off_c, 0, 28, 64
4, 88908, Note_off_c, 0, 30, 64
4, 88913, Note_on_c, 0, 33, 117
4, 88974, Note_off_c, 0, 33, 64
4, 89012, Note_on_c, 0, 35, 122
4, 89163, Note_off_c, 0, 35, 64
4, 89204, Note_on_c, 0, 35, 121
4, 89336, Note_off_c, 0, 35, 64
4, 89388, Note_on_c, 0, 35, 116
4, 89435, Note_off_c, 0, 35, 64
4, 89486, Note_on_c, 0, 35, 117
4, 89633, Note_off_c, 0, 35, 64
4, 89675, Note_on_c, 0, 35, 120
4, 89811, Note_off_c, 0, 35, 64
4, 89859, Note_on_c, 0, 33, 116
4, 90019, Note_off_c, 0, 33, 64
4, 90060, Note_on_c, 0, 33, 114
4, 90192, Note_off_c, 0, 33, 64
4, 90264, Note_on_c, 0, 33, 114
4, 90324, Note_off_c, 0, 33, 64
4, 90352, Note_on_c, 0, 35, 120
4, 90409, Note_off_c, 0, 35, 64
4, 90451, Note_on_c, 0, 33, 120
4, 90504, Note_off_c, 0, 33, 64
4, 90540, Note_on_c, 0, 35, 116
4, 90710, Note_off_c, 0, 35, 64
4, 90734, Note_on_c, 0, 33, 111
4, 90804, Note_off_c, 0, 33, 64
4, 90822, Note_on_c, 0, 35, 117
4, 90912, Note_off_c, 0, 35, 64
4, 90912, Note_on_c, 0, 33, 111
4, 90987, Note_off_c, 0, 33, 64
4, 91020, Note_on_c, 0, 37, 120
4, 91195, Note_off_c, 0, 37, 64
4, 91204, Note_on_c, 0, 35, 116
4, 91392, Note_off_c, 0, 35, 64
4, 91401, Note_on_c, 0, 28, 126
4, 91462, Note_off_c, 0, 28, 64
4, 91462, End_track
5, 0, Start_track
5, 0, Title_t, "BRASS SECTION"
5, 0, Channel_prefix, 1
5, 0, Control_c, 1, 7, 60
5, 0, Control_c, 1, 10, 0
5, 0, Program_c, 1, 61
5, 1139, Note_on_c, 1, 71, 92
5, 1238, Note_on_c, 1, 73, 117
5, 1281, Note_off_c, 1, 71, 64
5, 1329, Note_on_c, 1, 76, 99
5, 1348, Note_off_c, 1, 73, 64
5, 1425, Note_on_c, 1, 78, 127
5, 1452, Note_off_c, 1, 76, 64
5, 2712, Note_on_c, 1, 76, 89
5, 2721, Note_off_c, 1, 78, 64
5, 2793, Note_off_c, 1, 76, 64
5, 2793, Note_on_c, 1, 78, 124
5, 2864, Note_off_c, 1, 78, 64
5, 2883, Note_on_c, 1, 76, 120
5, 2960, Note_on_c, 1, 78, 108
5, 2964, Note_off_c, 1, 76, 64
5, 3350, Note_on_c, 1, 76, 99
5, 3374, Note_off_c, 1, 78, 64
5, 3460, Note_on_c, 1, 80, 116
5, 3470, Note_off_c, 1, 76, 64
5, 3636, Note_on_c, 1, 78, 117
5, 3660, Note_off_c, 1, 80, 64
5, 3732, Note_on_c, 1, 76, 99
5, 3752, Note_off_c, 1, 78, 64
5, 3785, Note_off_c, 1, 76, 64
5, 3832, Note_on_c, 1, 76, 108
5, 4219, Note_on_c, 1, 71, 84
5, 4228, Note_off_c, 1, 76, 64
5, 4313, Note_on_c, 1, 73, 122
5, 4352, Note_off_c, 1, 71, 64
5, 4400, Note_on_c, 1, 76, 101
5, 4404, Note_off_c, 1, 73, 64
5, 4486, Note_on_c, 1, 78, 121
5, 4515, Note_off_c, 1, 76, 64
5, 5729, Note_on_c, 1, 76, 96
5, 5739, Note_off_c, 1, 78, 64
5, 5825, Note_on_c, 1, 78, 121
5, 5835, Note_off_c, 1, 76, 64
5, 5931, Note_off_c, 1, 78, 64
5, 5931, Note_on_c, 1, 76, 111
5, 6020, Note_on_c, 1, 78, 121
5, 6025, Note_off_c, 1, 76, 64
5, 6427, Note_on_c, 1, 76, 96
5, 6454, Note_off_c, 1, 78, 64
5, 6531, Note_off_c, 1, 76, 64
5, 6531, Note_on_c, 1, 80, 122
5, 6707, Note_on_c, 1, 78, 121
5, 6731, Note_off_c, 1, 80, 64
5, 6793, Note_on_c, 1, 76, 108
5, 6822, Note_off_c, 1, 78, 64
5, 6865, Note_off_c, 1, 76, 64
5, 6912, Note_on_c, 1, 76, 124
5, 7017, Note_off_c, 1, 76, 64
5, 33390, Note_on_c, 1, 71, 88
5, 33489, Note_on_c, 1, 73, 121
5, 33528, Note_off_c, 1, 71, 64
5, 33580, Note_on_c, 1, 76, 103
5, 33609, Note_off_c, 1, 73, 64
5, 33657, Note_off_c, 1, 76, 64
5, 33667, Note_on_c, 1, 78, 124
5, 34939, Note_on_c, 1, 76, 93
5, 34953, Note_off_c, 1, 78, 64
5, 35025, Note_off_c, 1, 76, 64
5, 35040, Note_on_c, 1, 78, 121
5, 35129, Note_off_c, 1, 78, 64
5, 35134, Note_on_c, 1, 76, 109
5, 35211, Note_on_c, 1, 78, 121
5, 35230, Note_off_c, 1, 76, 64
5, 35620, Note_on_c, 1, 76, 96
5, 35640, Note_off_c, 1, 78, 64
5, 35716, Note_off_c, 1, 76, 64
5, 35716, Note_on_c, 1, 80, 109
5, 35921, Note_on_c, 1, 78, 121
5, 35955, Note_off_c, 1, 80, 64
5, 36027, Note_off_c, 1, 78, 64
5, 36032, Note_on_c, 1, 76, 103
5, 36078, Note_off_c, 1, 76, 64
5, 36112, Note_on_c, 1, 76, 111
5, 36484, Note_on_c, 1, 71, 84
5, 36489, Note_off_c, 1, 76, 64
5, 36584, Note_on_c, 1, 73, 124
5, 36617, Note_off_c, 1, 71, 64
5, 36665, Note_on_c, 1, 76, 108
5, 36684, Note_off_c, 1, 73, 64
5, 36742, Note_off_c, 1, 76, 64
5, 36771, Note_on_c, 1, 78, 117
5, 38004, Note_on_c, 1, 76, 87
5, 38019, Note_off_c, 1, 78, 64
5, 38091, Note_off_c, 1, 76, 64
5, 38105, Note_on_c, 1, 78, 121
5, 38201, Note_off_c, 1, 78, 64
5, 38201, Note_on_c, 1, 76, 85
5, 38276, Note_off_c, 1, 76, 64
5, 38286, Note_on_c, 1, 78, 120
5, 38673, Note_on_c, 1, 76, 98
5, 38696, Note_off_c, 1, 78, 64
5, 38753, Note_off_c, 1, 76, 64
5, 38768, Note_on_c, 1, 80, 116
5, 38963, Note_on_c, 1, 78, 121
5, 38987, Note_off_c, 1, 80, 64
5, 39073, Note_on_c, 1, 76, 117
5, 39078, Note_off_c, 1, 78, 64
5, 39136, Note_off_c, 1, 76, 64
5, 39177, Note_on_c, 1, 76, 126
5, 39264, Note_off_c, 1, 76, 64
5, 79475, Note_on_c, 1, 71, 74
5, 79584, Note_on_c, 1, 73, 106
5, 79625, Note_off_c, 1, 71, 64
5, 79673, Note_on_c, 1, 76, 96
5, 79697, Note_off_c, 1, 73, 64
5, 79753, Note_on_c, 1, 78, 124
5, 79763, Note_off_c, 1, 76, 64
5, 81009, Note_on_c, 1, 76, 85
5, 81019, Note_off_c, 1, 78, 64
5, 81108, Note_off_c, 1, 76, 64
5, 81108, Note_on_c, 1, 78, 124
5, 81220, Note_off_c, 1, 78, 64
5, 81225, Note_on_c, 1, 76, 109
5, 81310, Note_off_c, 1, 76, 64
5, 81324, Note_on_c, 1, 78, 126
5, 81705, Note_on_c, 1, 76, 69
5, 81729, Note_off_c, 1, 78, 64
5, 81800, Note_off_c, 1, 76, 64
5, 81800, Note_on_c, 1, 80, 109
5, 81996, Note_on_c, 1, 78, 124
5, 82035, Note_off_c, 1, 80, 64
5, 82081, Note_on_c, 1, 76, 109
5, 82086, Note_off_c, 1, 78, 64
5, 82132, Note_off_c, 1, 76, 64
5, 82176, Note_on_c, 1, 76, 111
5, 82571, Note_off_c, 1, 76, 64
5, 82571, Note_on_c, 1, 71, 77
5, 82670, Note_on_c, 1, 73, 117
5, 82688, Note_off_c, 1, 71, 64
5, 82745, Note_on_c, 1, 76, 96
5, 82763, Note_off_c, 1, 73, 64
5, 82816, Note_off_c, 1, 76, 64
5, 82820, Note_on_c, 1, 78, 120
5, 84108, Note_on_c, 1, 76, 85
5, 84118, Note_off_c, 1, 78, 64
5, 84188, Note_off_c, 1, 76, 64
5, 84193, Note_on_c, 1, 78, 121
5, 84273, Note_off_c, 1, 78, 64
5, 84288, Note_on_c, 1, 76, 114
5, 84368, Note_off_c, 1, 76, 64
5, 84377, Note_on_c, 1, 78, 124
5, 84772, Note_on_c, 1, 76, 74
5, 84796, Note_off_c, 1, 78, 64
5, 84880, Note_on_c, 1, 80, 117
5, 84884, Note_off_c, 1, 76, 64
5, 85044, Note_on_c, 1, 78, 117
5, 85068, Note_off_c, 1, 80, 64
5, 85134, Note_on_c, 1, 76, 109
5, 85144, Note_off_c, 1, 78, 64
5, 85182, Note_off_c, 1, 76, 64
5, 85233, Note_on_c, 1, 76, 121
5, 85638, Note_on_c, 1, 71, 87
5, 85643, Note_off_c, 1, 76, 64
5, 85723, Note_on_c, 1, 73, 120
5, 85760, Note_off_c, 1, 71, 64
5, 85808, Note_on_c, 1, 76, 106
5, 85825, Note_off_c, 1, 73, 64
5, 85883, Note_off_c, 1, 76, 64
5, 85896, Note_on_c, 1, 78, 127
5, 87180, Note_off_c, 1, 78, 64
5, 87180, Note_on_c, 1, 76, 91
5, 87270, Note_off_c, 1, 76, 64
5, 87275, Note_on_c, 1, 78, 121
5, 87369, Note_off_c, 1, 78, 64
5, 87379, Note_on_c, 1, 76, 106
5, 87462, Note_on_c, 1, 78, 124
5, 87467, Note_off_c, 1, 76, 64
5, 87844, Note_on_c, 1, 76, 98
5, 87854, Note_off_c, 1, 78, 64
5, 87929, Note_off_c, 1, 76, 64
5, 87942, Note_on_c, 1, 80, 120
5, 88131, Note_on_c, 1, 78, 121
5, 88160, Note_off_c, 1, 80, 64
5, 88216, Note_off_c, 1, 78, 64
5, 88216, Note_on_c, 1, 76, 96
5, 88272, Note_off_c, 1, 76, 64
5, 88320, Note_on_c, 1, 76, 116
5, 88705, Note_on_c, 1, 71, 81
5, 88715, Note_off_c, 1, 76, 64
5, 88798, Note_on_c, 1, 73, 124
5, 88832, Note_off_c, 1, 71, 64
5, 88883, Note_on_c, 1, 76, 103
5, 88897, Note_off_c, 1, 73, 64
5, 88953, Note_off_c, 1, 76, 64
5, 88977, Note_on_c, 1, 78, 121
5, 90243, Note_off_c, 1, 78, 64
5, 90243, Note_on_c, 1, 76, 82
5, 90323, Note_off_c, 1, 76, 64
5, 90332, Note_on_c, 1, 78, 121
5, 90408, Note_off_c, 1, 78, 64
5, 90417, Note_on_c, 1, 76, 109
5, 90502, Note_off_c, 1, 76, 64
5, 90507, Note_on_c, 1, 78, 124
5, 90920, Note_on_c, 1, 76, 85
5, 90924, Note_off_c, 1, 78, 64
5, 91004, Note_off_c, 1, 76, 64
5, 91009, Note_on_c, 1, 80, 116
5, 91184, Note_on_c, 1, 78, 122
5, 91217, Note_off_c, 1, 80, 64
5, 91278, Note_off_c, 1, 78, 64
5, 91283, Note_on_c, 1, 76, 92
5, 91344, Note_off_c, 1, 76, 64
5, 91390, Note_on_c, 1, 76, 121
5, 91484, Note_off_c, 1, 76, 64
5, 91484, End_track
6, 0, Start_track
6, 0, Title_t, "GUITARS 1"
6, 0, Channel_prefix, 2
6, 0, Control_c, 2, 7, 78
6, 0, Control_c, 2, 10, 75
6, 0, Program_c, 2, 27
6, 761, Note_on_c, 2, 47, 117
6, 1091, Note_off_c, 2, 47, 64
6, 1134, Note_on_c, 2, 47, 109
6, 1224, Note_on_c, 2, 49, 108
6, 1252, Note_off_c, 2, 47, 64
6, 1310, Note_off_c, 2, 49, 64
6, 1315, Note_on_c, 2, 52, 117
6, 1382, Note_off_c, 2, 52, 64
6, 1433, Note_on_c, 2, 54, 127
6, 1568, Note_off_c, 2, 54, 64
6, 1611, Note_on_c, 2, 54, 127
6, 1753, Note_off_c, 2, 54, 64
6, 1806, Note_on_c, 2, 54, 124
6, 1840, Note_off_c, 2, 54, 64
6, 1905, Note_on_c, 2, 54, 127
6, 2044, Note_off_c, 2, 54, 64
6, 2102, Note_on_c, 2, 54, 126
6, 2249, Note_off_c, 2, 54, 64
6, 2297, Note_on_c, 2, 52, 127
6, 2673, Note_off_c, 2, 52, 64
6, 2712, Note_on_c, 2, 52, 120
6, 2764, Note_off_c, 2, 52, 64
6, 2803, Note_on_c, 2, 52, 114
6, 2846, Note_off_c, 2, 52, 64
6, 2892, Note_on_c, 2, 52, 117
6, 2940, Note_off_c, 2, 52, 64
6, 2984, Note_on_c, 2, 54, 122
6, 3318, Note_off_c, 2, 54, 64
6, 3364, Note_on_c, 2, 54, 116
6, 3408, Note_off_c, 2, 54, 64
6, 3460, Note_on_c, 2, 56, 122
6, 3636, Note_on_c, 2, 54, 120
6, 3641, Note_off_c, 2, 56, 64
6, 3841, Note_on_c, 2, 47, 121
6, 3846, Note_off_c, 2, 54, 64
6, 4166, Note_off_c, 2, 47, 64
6, 4209, Note_on_c, 2, 47, 114
6, 4308, Note_on_c, 2, 49, 124
6, 4323, Note_off_c, 2, 47, 64
6, 4390, Note_off_c, 2, 49, 64
6, 4400, Note_on_c, 2, 52, 120
6, 4452, Note_off_c, 2, 52, 64
6, 4496, Note_on_c, 2, 54, 127
6, 4643, Note_off_c, 2, 54, 64
6, 4681, Note_on_c, 2, 54, 127
6, 4843, Note_off_c, 2, 54, 64
6, 4886, Note_on_c, 2, 54, 124
6, 4924, Note_off_c, 2, 54, 64
6, 4982, Note_on_c, 2, 54, 122
6, 5124, Note_off_c, 2, 54, 64
6, 5163, Note_on_c, 2, 54, 120
6, 5324, Note_off_c, 2, 54, 64
6, 5358, Note_on_c, 2, 52, 117
6, 5707, Note_off_c, 2, 52, 64
6, 5744, Note_on_c, 2, 52, 114
6, 5811, Note_off_c, 2, 52, 64
6, 5840, Note_on_c, 2, 52, 114
6, 5987, Note_off_c, 2, 52, 64
6, 6020, Note_on_c, 2, 54, 127
6, 6369, Note_off_c, 2, 54, 64
6, 6403, Note_on_c, 2, 54, 121
6, 6454, Note_off_c, 2, 54, 64
6, 6507, Note_on_c, 2, 56, 124
6, 6692, Note_off_c, 2, 56, 64
6, 6692, Note_on_c, 2, 54, 124
6, 6908, Note_on_c, 2, 47, 117
6, 6912, Note_off_c, 2, 54, 64
6, 7070, Note_off_c, 2, 47, 64
6, 7104, Note_on_c, 2, 47, 114
6, 7251, Note_off_c, 2, 47, 64
6, 7289, Note_on_c, 2, 47, 99
6, 7380, Note_on_c, 2, 49, 109
6, 7403, Note_off_c, 2, 47, 64
6, 7470, Note_off_c, 2, 49, 64
6, 7475, Note_on_c, 2, 52, 117
6, 7537, Note_off_c, 2, 52, 64
6, 7580, Note_on_c, 2, 54, 122
6, 7928, Note_off_c, 2, 54, 64
6, 7966, Note_on_c, 2, 54, 121
6, 8132, Note_off_c, 2, 54, 64
6, 8161, Note_on_c, 2, 54, 116
6, 8224, Note_off_c, 2, 54, 64
6, 8257, Note_on_c, 2, 54, 117
6, 8315, Note_off_c, 2, 54, 64
6, 8352, Note_on_c, 2, 54, 117
6, 8414, Note_off_c, 2, 54, 64
6, 8457, Note_on_c, 2, 52, 116
6, 8792, Note_off_c, 2, 52, 64
6, 8824, Note_on_c, 2, 52, 111
6, 8886, Note_off_c, 2, 52, 64
6, 8924, Note_on_c, 2, 52, 106
6, 8972, Note_off_c, 2, 52, 64
6, 9016, Note_on_c, 2, 52, 106
6, 9062, Note_off_c, 2, 52, 64
6, 9110, Note_on_c, 2, 54, 122
6, 9478, Note_off_c, 2, 54, 64
6, 9516, Note_on_c, 2, 54, 114
6, 9563, Note_off_c, 2, 54, 64
6, 9611, Note_on_c, 2, 56, 127
6, 9801, Note_off_c, 2, 56, 64
6, 9801, Note_on_c, 2, 54, 121
6, 9998, Note_off_c, 2, 54, 64
6, 9998, Note_on_c, 2, 47, 114
6, 10297, Note_off_c, 2, 47, 64
6, 10360, Note_on_c, 2, 47, 108
6, 10451, Note_on_c, 2, 49, 117
6, 10470, Note_off_c, 2, 47, 64
6, 10540, Note_off_c, 2, 49, 64
6, 10550, Note_on_c, 2, 52, 120
6, 10622, Note_off_c, 2, 52, 64
6, 10656, Note_on_c, 2, 54, 122
6, 10817, Note_off_c, 2, 54, 64
6, 10841, Note_on_c, 2, 54, 116
6, 10984, Note_off_c, 2, 54, 64
6, 11032, Note_on_c, 2, 54, 120
6, 11065, Note_off_c, 2, 54, 64
6, 11123, Note_on_c, 2, 54, 124
6, 11275, Note_off_c, 2, 54, 64
6, 11318, Note_on_c, 2, 54, 117
6, 11475, Note_off_c, 2, 54, 64
6, 11513, Note_on_c, 2, 52, 117
6, 11867, Note_off_c, 2, 52, 64
6, 11905, Note_on_c, 2, 52, 108
6, 11961, Note_off_c, 2, 52, 64
6, 12000, Note_on_c, 2, 52, 101
6, 12148, Note_off_c, 2, 52, 64
6, 12176, Note_on_c, 2, 54, 127
6, 12515, Note_off_c, 2, 54, 64
6, 12558, Note_on_c, 2, 54, 124
6, 12734, Note_off_c, 2, 54, 64
6, 12768, Note_on_c, 2, 54, 116
6, 12811, Note_off_c, 2, 54, 64
6, 12864, Note_on_c, 2, 54, 116
6, 12900, Note_off_c, 2, 54, 64
6, 12948, Note_on_c, 2, 54, 121
6, 13040, Note_on_c, 2, 47, 91
6, 13044, Note_off_c, 2, 54, 64
6, 13192, Note_off_c, 2, 47, 64
6, 13235, Note_on_c, 2, 47, 111
6, 13392, Note_off_c, 2, 47, 64
6, 13444, Note_on_c, 2, 47, 108
6, 13536, Note_on_c, 2, 49, 111
6, 13564, Note_off_c, 2, 47, 64
6, 13625, Note_on_c, 2, 52, 116
6, 13630, Note_off_c, 2, 49, 64
6, 13683, Note_off_c, 2, 52, 64
6, 13721, Note_on_c, 2, 54, 126
6, 13892, Note_off_c, 2, 54, 64
6, 13921, Note_on_c, 2, 54, 116
6, 14032, Note_off_c, 2, 54, 64
6, 14107, Note_on_c, 2, 54, 122
6, 14145, Note_off_c, 2, 54, 64
6, 14203, Note_on_c, 2, 54, 121
6, 14360, Note_off_c, 2, 54, 64
6, 14403, Note_on_c, 2, 54, 117
6, 14564, Note_off_c, 2, 54, 64
6, 14593, Note_on_c, 2, 52, 117
6, 14937, Note_off_c, 2, 52, 64
6, 14976, Note_on_c, 2, 52, 116
6, 15041, Note_off_c, 2, 52, 64
6, 15075, Note_on_c, 2, 54, 120
6, 15132, Note_off_c, 2, 54, 64
6, 15176, Note_on_c, 2, 52, 114
6, 15238, Note_off_c, 2, 52, 64
6, 15256, Note_on_c, 2, 54, 116
6, 15633, Note_on_c, 2, 52, 111
6, 15643, Note_off_c, 2, 54, 64
6, 15715, Note_off_c, 2, 52, 64
6, 15742, Note_on_c, 2, 56, 116
6, 15939, Note_on_c, 2, 54, 121
6, 15953, Note_off_c, 2, 56, 64
6, 16144, Note_on_c, 2, 47, 117
6, 16153, Note_off_c, 2, 54, 64
6, 16276, Note_off_c, 2, 47, 64
6, 16315, Note_on_c, 2, 47, 111
6, 16462, Note_off_c, 2, 47, 64
6, 16510, Note_on_c, 2, 47, 114
6, 16596, Note_on_c, 2, 49, 103
6, 16620, Note_off_c, 2, 47, 64
6, 16691, Note_off_c, 2, 49, 64
6, 16696, Note_on_c, 2, 52, 121
6, 16763, Note_off_c, 2, 52, 64
6, 16801, Note_on_c, 2, 54, 124
6, 16944, Note_off_c, 2, 54, 64
6, 16977, Note_on_c, 2, 54, 120
6, 17136, Note_off_c, 2, 54, 64
6, 17172, Note_on_c, 2, 54, 121
6, 17211, Note_off_c, 2, 54, 64
6, 17268, Note_on_c, 2, 54, 120
6, 17416, Note_off_c, 2, 54, 64
6, 17459, Note_on_c, 2, 54, 122
6, 17617, Note_off_c, 2, 54, 64
6, 17659, Note_on_c, 2, 52, 120
6, 17993, Note_off_c, 2, 52, 64
6, 18036, Note_on_c, 2, 52, 109
6, 18099, Note_off_c, 2, 52, 64
6, 18136, Note_on_c, 2, 54, 117
6, 18193, Note_off_c, 2, 54, 64
6, 18232, Note_on_c, 2, 52, 108
6, 18284, Note_off_c, 2, 52, 64
6, 18329, Note_on_c, 2, 54, 122
6, 18692, Note_off_c, 2, 54, 64
6, 18736, Note_on_c, 2, 54, 111
6, 18779, Note_off_c, 2, 54, 64
6, 18825, Note_on_c, 2, 56, 127
6, 19012, Note_off_c, 2, 56, 64
6, 19012, Note_on_c, 2, 54, 124
6, 19188, Note_on_c, 2, 47, 114
6, 19193, Note_off_c, 2, 54, 64
6, 19355, Note_off_c, 2, 47, 64
6, 19393, Note_on_c, 2, 47, 117
6, 19540, Note_off_c, 2, 47, 64
6, 19564, Note_on_c, 2, 47, 91
6, 19651, Note_on_c, 2, 49, 96
6, 19694, Note_off_c, 2, 47, 64
6, 19755, Note_on_c, 2, 52, 121
6, 19769, Note_off_c, 2, 49, 64
6, 19812, Note_off_c, 2, 52, 64
6, 19856, Note_on_c, 2, 54, 124
6, 20027, Note_off_c, 2, 54, 64
6, 20051, Note_on_c, 2, 54, 116
6, 20214, Note_off_c, 2, 54, 64
6, 20236, Note_on_c, 2, 54, 111
6, 20284, Note_off_c, 2, 54, 64
6, 20342, Note_on_c, 2, 54, 124
6, 20499, Note_off_c, 2, 54, 64
6, 20537, Note_on_c, 2, 54, 121
6, 20691, Note_off_c, 2, 54, 64
6, 20713, Note_on_c, 2, 52, 121
6, 21081, Note_off_c, 2, 52, 64
6, 21115, Note_on_c, 2, 52, 108
6, 21172, Note_off_c, 2, 52, 64
6, 21204, Note_on_c, 2, 54, 121
6, 21267, Note_off_c, 2, 54, 64
6, 21305, Note_on_c, 2, 52, 116
6, 21363, Note_off_c, 2, 52, 64
6, 21401, Note_on_c, 2, 54, 124
6, 21777, Note_on_c, 2, 52, 116
6, 21796, Note_off_c, 2, 54, 64
6, 21859, Note_off_c, 2, 52, 64
6, 21888, Note_on_c, 2, 56, 116
6, 22075, Note_on_c, 2, 54, 124
6, 22078, Note_off_c, 2, 56, 64
6, 22270, Note_off_c, 2, 54, 64
6, 22272, Note_on_c, 2, 47, 121
6, 22585, Note_off_c, 2, 47, 64
6, 22664, Note_on_c, 2, 47, 101
6, 22755, Note_on_c, 2, 49, 109
6, 22784, Note_off_c, 2, 47, 64
6, 22836, Note_on_c, 2, 52, 116
6, 22841, Note_off_c, 2, 49, 64
6, 22888, Note_off_c, 2, 52, 64
6, 22936, Note_on_c, 2, 54, 124
6, 23097, Note_off_c, 2, 54, 64
6, 23126, Note_on_c, 2, 54, 120
6, 23284, Note_off_c, 2, 54, 64
6, 23318, Note_on_c, 2, 54, 117
6, 23355, Note_off_c, 2, 54, 64
6, 23417, Note_on_c, 2, 54, 124
6, 23579, Note_off_c, 2, 54, 64
6, 23612, Note_on_c, 2, 54, 117
6, 23776, Note_off_c, 2, 54, 64
6, 23808, Note_on_c, 2, 52, 124
6, 24161, Note_off_c, 2, 52, 64
6, 24200, Note_on_c, 2, 52, 114
6, 24267, Note_off_c, 2, 52, 64
6, 24294, Note_on_c, 2, 54, 120
6, 24352, Note_off_c, 2, 54, 64
6, 24395, Note_on_c, 2, 52, 120
6, 24448, Note_off_c, 2, 52, 64
6, 24481, Note_on_c, 2, 54, 122
6, 24862, Note_on_c, 2, 52, 116
6, 24872, Note_off_c, 2, 54, 64
6, 24963, Note_off_c, 2, 52, 64
6, 24977, Note_on_c, 2, 56, 117
6, 25153, Note_on_c, 2, 54, 121
6, 25177, Note_off_c, 2, 56, 64
6, 25356, Note_on_c, 2, 52, 124
6, 25387, Note_off_c, 2, 54, 64
6, 26052, Note_off_c, 2, 52, 64
6, 26105, Note_on_c, 2, 54, 127
6, 26878, Note_on_c, 2, 47, 122
6, 26883, Note_off_c, 2, 54, 64
6, 27656, Note_off_c, 2, 47, 64
6, 27660, Note_on_c, 2, 52, 124
6, 28366, Note_off_c, 2, 52, 64
6, 28427, Note_on_c, 2, 52, 117
6, 29152, Note_off_c, 2, 52, 64
6, 29195, Note_on_c, 2, 54, 124
6, 29939, Note_off_c, 2, 54, 64
6, 29953, Note_on_c, 2, 47, 126
6, 30688, Note_off_c, 2, 47, 64
6, 30731, Note_on_c, 2, 52, 124
6, 31427, Note_off_c, 2, 52, 64
6, 31492, Note_on_c, 2, 52, 121
6, 32217, Note_off_c, 2, 52, 64
6, 32256, Note_on_c, 2, 54, 124
6, 32980, Note_off_c, 2, 54, 64
6, 33024, Note_on_c, 2, 47, 114
6, 33180, Note_off_c, 2, 47, 64
6, 33224, Note_on_c, 2, 47, 117
6, 33372, Note_off_c, 2, 47, 64
6, 33404, Note_on_c, 2, 47, 98
6, 33496, Note_on_c, 2, 49, 103
6, 33524, Note_off_c, 2, 47, 64
6, 33572, Note_on_c, 2, 52, 116
6, 33592, Note_off_c, 2, 49, 64
6, 33643, Note_off_c, 2, 52, 64
6, 33672, Note_on_c, 2, 54, 122
6, 33835, Note_off_c, 2, 54, 64
6, 33868, Note_on_c, 2, 54, 121
6, 34040, Note_off_c, 2, 54, 64
6, 34073, Note_on_c, 2, 54, 122
6, 34124, Note_off_c, 2, 54, 64
6, 34177, Note_on_c, 2, 54, 124
6, 34336, Note_off_c, 2, 54, 64
6, 34372, Note_on_c, 2, 54, 124
6, 34536, Note_off_c, 2, 54, 64
6, 34569, Note_on_c, 2, 52, 120
6, 34916, Note_off_c, 2, 52, 64
6, 34960, Note_on_c, 2, 52, 116
6, 35017, Note_off_c, 2, 52, 64
6, 35041, Note_on_c, 2, 54, 121
6, 35107, Note_off_c, 2, 54, 64
6, 35222, Note_on_c, 2, 54, 126
6, 35588, Note_off_c, 2, 54, 64
6, 35632, Note_on_c, 2, 54, 116
6, 35670, Note_off_c, 2, 54, 64
6, 35718, Note_on_c, 2, 56, 127
6, 35904, Note_off_c, 2, 56, 64
6, 35913, Note_on_c, 2, 54, 124
6, 36113, Note_off_c, 2, 54, 64
6, 36113, Note_on_c, 2, 47, 114
6, 36265, Note_off_c, 2, 47, 64
6, 36304, Note_on_c, 2, 47, 120
6, 36443, Note_off_c, 2, 47, 64
6, 36481, Note_on_c, 2, 47, 108
6, 36571, Note_on_c, 2, 49, 120
6, 36585, Note_off_c, 2, 47, 64
6, 36652, Note_off_c, 2, 49, 64
6, 36652, Note_on_c, 2, 52, 120
6, 36724, Note_off_c, 2, 52, 64
6, 36752, Note_on_c, 2, 54, 127
6, 36924, Note_off_c, 2, 54, 64
6, 36958, Note_on_c, 2, 54, 121
6, 37115, Note_off_c, 2, 54, 64
6, 37153, Note_on_c, 2, 54, 120
6, 37206, Note_off_c, 2, 54, 64
6, 37248, Note_on_c, 2, 54, 124
6, 37401, Note_off_c, 2, 54, 64
6, 37444, Note_on_c, 2, 54, 121
6, 37592, Note_off_c, 2, 54, 64
6, 37630, Note_on_c, 2, 52, 121
6, 38001, Note_off_c, 2, 52, 64
6, 38030, Note_on_c, 2, 52, 122
6, 38172, Note_off_c, 2, 52, 64
6, 38201, Note_on_c, 2, 52, 114
6, 38259, Note_off_c, 2, 52, 64
6, 38297, Note_on_c, 2, 54, 124
6, 38668, Note_off_c, 2, 54, 64
6, 38683, Note_on_c, 2, 52, 99
6, 38760, Note_off_c, 2, 52, 64
6, 38788, Note_on_c, 2, 56, 126
6, 38984, Note_on_c, 2, 54, 124
6, 38993, Note_off_c, 2, 56, 64
6, 39155, Note_off_c, 2, 54, 64
6, 39164, Note_on_c, 2, 47, 117
6, 39323, Note_off_c, 2, 47, 64
6, 39360, Note_on_c, 2, 47, 117
6, 39518, Note_off_c, 2, 47, 64
6, 39561, Note_on_c, 2, 47, 117
6, 39651, Note_on_c, 2, 49, 111
6, 39670, Note_off_c, 2, 47, 64
6, 39737, Note_off_c, 2, 49, 64
6, 39737, Note_on_c, 2, 52, 120
6, 39804, Note_off_c, 2, 52, 64
6, 39841, Note_on_c, 2, 54, 127
6, 40000, Note_off_c, 2, 54, 64
6, 40033, Note_on_c, 2, 54, 120
6, 40176, Note_off_c, 2, 54, 64
6, 40224, Note_on_c, 2, 54, 124
6, 40267, Note_off_c, 2, 54, 64
6, 40318, Note_on_c, 2, 54, 124
6, 40467, Note_off_c, 2, 54, 64
6, 40515, Note_on_c, 2, 54, 124
6, 40681, Note_off_c, 2, 54, 64
6, 40710, Note_on_c, 2, 52, 122
6, 41048, Note_off_c, 2, 52, 64
6, 41086, Note_on_c, 2, 52, 117
6, 41240, Note_off_c, 2, 52, 64
6, 41267, Note_on_c, 2, 52, 108
6, 41324, Note_off_c, 2, 52, 64
6, 41368, Note_on_c, 2, 54, 124
6, 41758, Note_off_c, 2, 54, 64
6, 41758, Note_on_c, 2, 52, 116
6, 41816, Note_off_c, 2, 52, 64
6, 41849, Note_on_c, 2, 56, 127
6, 42040, Note_on_c, 2, 54, 120
6, 42054, Note_off_c, 2, 56, 64
6, 42235, Note_off_c, 2, 54, 64
6, 42235, Note_on_c, 2, 47, 109
6, 42388, Note_off_c, 2, 47, 64
6, 42427, Note_on_c, 2, 47, 111
6, 42564, Note_off_c, 2, 47, 64
6, 42612, Note_on_c, 2, 47, 99
6, 42707, Note_on_c, 2, 49, 99
6, 42740, Note_off_c, 2, 47, 64
6, 42793, Note_off_c, 2, 49, 64
6, 42798, Note_on_c, 2, 52, 120
6, 42870, Note_off_c, 2, 52, 64
6, 42908, Note_on_c, 2, 54, 126
6, 43070, Note_off_c, 2, 54, 64
6, 43094, Note_on_c, 2, 54, 109
6, 43265, Note_off_c, 2, 54, 64
6, 43299, Note_on_c, 2, 54, 120
6, 43352, Note_off_c, 2, 54, 64
6, 43395, Note_on_c, 2, 54, 124
6, 43547, Note_off_c, 2, 54, 64
6, 43585, Note_on_c, 2, 54, 122
6, 43752, Note_off_c, 2, 54, 64
6, 43780, Note_on_c, 2, 52, 121
6, 44110, Note_off_c, 2, 52, 64
6, 44156, Note_on_c, 2, 52, 116
6, 44315, Note_off_c, 2, 52, 64
6, 44348, Note_on_c, 2, 52, 99
6, 44400, Note_off_c, 2, 52, 64
6, 44438, Note_on_c, 2, 54, 127
6, 44777, Note_off_c, 2, 54, 64
6, 44830, Note_on_c, 2, 54, 124
6, 45016, Note_off_c, 2, 54, 64
6, 45044, Note_on_c, 2, 54, 120
6, 45086, Note_off_c, 2, 54, 64
6, 45129, Note_on_c, 2, 54, 121
6, 45172, Note_off_c, 2, 54, 64
6, 45225, Note_on_c, 2, 54, 121
6, 45329, Note_on_c, 2, 47, 106
6, 45339, Note_off_c, 2, 54, 64
6, 45473, Note_off_c, 2, 47, 64
6, 45521, Note_on_c, 2, 47, 111
6, 45649, Note_off_c, 2, 47, 64
6, 45702, Note_on_c, 2, 47, 99
6, 45792, Note_on_c, 2, 49, 88
6, 45820, Note_off_c, 2, 47, 64
6, 45883, Note_off_c, 2, 49, 64
6, 45883, Note_on_c, 2, 52, 120
6, 45955, Note_off_c, 2, 52, 64
6, 45988, Note_on_c, 2, 54, 124
6, 46145, Note_off_c, 2, 54, 64
6, 46179, Note_on_c, 2, 54, 120
6, 46336, Note_off_c, 2, 54, 64
6, 46374, Note_on_c, 2, 54, 121
6, 46427, Note_off_c, 2, 54, 64
6, 46470, Note_on_c, 2, 54, 120
6, 46622, Note_off_c, 2, 54, 64
6, 46660, Note_on_c, 2, 54, 121
6, 46822, Note_off_c, 2, 54, 64
6, 46851, Note_on_c, 2, 52, 121
6, 47200, Note_off_c, 2, 52, 64
6, 47246, Note_on_c, 2, 52, 117
6, 47385, Note_off_c, 2, 52, 64
6, 47419, Note_on_c, 2, 52, 93
6, 47489, Note_off_c, 2, 52, 64
6, 47523, Note_on_c, 2, 54, 124
6, 47910, Note_off_c, 2, 54, 64
6, 47920, Note_on_c, 2, 52, 111
6, 47976, Note_off_c, 2, 52, 64
6, 48009, Note_on_c, 2, 56, 126
6, 48200, Note_on_c, 2, 54, 124
6, 48204, Note_off_c, 2, 56, 64
6, 48382, Note_off_c, 2, 54, 64
6, 48396, Note_on_c, 2, 47, 114
6, 48529, Note_off_c, 2, 47, 64
6, 48572, Note_on_c, 2, 47, 111
6, 48720, Note_off_c, 2, 47, 64
6, 48768, Note_on_c, 2, 47, 103
6, 48864, Note_on_c, 2, 49, 122
6, 48888, Note_off_c, 2, 47, 64
6, 48944, Note_off_c, 2, 49, 64
6, 48948, Note_on_c, 2, 52, 120
6, 49020, Note_off_c, 2, 52, 64
6, 49054, Note_on_c, 2, 54, 122
6, 49216, Note_off_c, 2, 54, 64
6, 49254, Note_on_c, 2, 54, 121
6, 49396, Note_off_c, 2, 54, 64
6, 49444, Note_on_c, 2, 54, 121
6, 49488, Note_off_c, 2, 54, 64
6, 49536, Note_on_c, 2, 54, 122
6, 49692, Note_off_c, 2, 54, 64
6, 49731, Note_on_c, 2, 54, 117
6, 49883, Note_off_c, 2, 54, 64
6, 49921, Note_on_c, 2, 52, 121
6, 50280, Note_off_c, 2, 52, 64
6, 50321, Note_on_c, 2, 52, 108
6, 50441, Note_off_c, 2, 52, 64
6, 50494, Note_on_c, 2, 52, 108
6, 50556, Note_off_c, 2, 52, 64
6, 50593, Note_on_c, 2, 54, 127
6, 50985, Note_on_c, 2, 52, 116
6, 50995, Note_off_c, 2, 54, 64
6, 51051, Note_off_c, 2, 52, 64
6, 51075, Note_on_c, 2, 56, 124
6, 51272, Note_on_c, 2, 54, 117
6, 51275, Note_off_c, 2, 56, 64
6, 51467, Note_off_c, 2, 54, 64
6, 51476, Note_on_c, 2, 52, 124
6, 52211, Note_off_c, 2, 52, 64
6, 52216, Note_on_c, 2, 54, 122
6, 52977, Note_off_c, 2, 54, 64
6, 52992, Note_on_c, 2, 47, 117
6, 53750, Note_off_c, 2, 47, 64
6, 53760, Note_on_c, 2, 52, 124
6, 54484, Note_off_c, 2, 52, 64
6, 54537, Note_on_c, 2, 52, 124
6, 55248, Note_off_c, 2, 52, 64
6, 55291, Note_on_c, 2, 54, 124
6, 56048, Note_off_c, 2, 54, 64
6, 56062, Note_on_c, 2, 47, 117
6, 56811, Note_off_c, 2, 47, 64
6, 56825, Note_on_c, 2, 52, 127
6, 57540, Note_off_c, 2, 52, 64
6, 57598, Note_on_c, 2, 52, 121
6, 58308, Note_off_c, 2, 52, 64
6, 58361, Note_on_c, 2, 54, 127
6, 59076, Note_off_c, 2, 54, 64
6, 59136, Note_on_c, 2, 49, 120
6, 59136, Note_on_c, 2, 56, 127
6, 59182, Note_off_c, 2, 56, 64
6, 59187, Note_off_c, 2, 49, 64
6, 59900, Note_on_c, 2, 51, 127
6, 59910, Note_on_c, 2, 44, 124
6, 59947, Note_off_c, 2, 51, 64
6, 59955, Note_off_c, 2, 44, 64
6, 60678, Note_on_c, 2, 45, 121
6, 60678, Note_on_c, 2, 52, 126
6, 60720, Note_off_c, 2, 52, 64
6, 60724, Note_off_c, 2, 45, 64
6, 61433, Note_on_c, 2, 45, 122
6, 61438, Note_on_c, 2, 52, 124
6, 61480, Note_off_c, 2, 52, 64
6, 61489, Note_off_c, 2, 45, 64
6, 62208, Note_on_c, 2, 49, 126
6, 62208, Note_on_c, 2, 56, 127
6, 62248, Note_off_c, 2, 56, 64
6, 62248, Note_off_c, 2, 49, 64
6, 62980, Note_on_c, 2, 44, 126
6, 62980, Note_on_c, 2, 51, 127
6, 63025, Note_off_c, 2, 51, 64
6, 63030, Note_off_c, 2, 44, 64
6, 63744, Note_on_c, 2, 52, 124
6, 63748, Note_on_c, 2, 45, 124
6, 63785, Note_off_c, 2, 52, 64
6, 63800, Note_off_c, 2, 45, 64
6, 64513, Note_on_c, 2, 45, 127
6, 64540, Note_off_c, 2, 45, 64
6, 64560, Note_on_c, 2, 45, 124
6, 64595, Note_off_c, 2, 45, 64
6, 64604, Note_on_c, 2, 45, 122
6, 64632, Note_off_c, 2, 45, 64
6, 64659, Note_on_c, 2, 45, 124
6, 64692, Note_off_c, 2, 45, 64
6, 64705, Note_on_c, 2, 45, 127
6, 64737, Note_off_c, 2, 45, 64
6, 65291, Note_on_c, 2, 40, 93
6, 65446, Note_off_c, 2, 40, 64
6, 65478, Note_on_c, 2, 40, 108
6, 65616, Note_off_c, 2, 40, 64
6, 65667, Note_on_c, 2, 40, 96
6, 65771, Note_on_c, 2, 42, 108
6, 65788, Note_off_c, 2, 40, 64
6, 65860, Note_off_c, 2, 42, 64
6, 65860, Note_on_c, 2, 45, 108
6, 65931, Note_off_c, 2, 45, 64
6, 65963, Note_on_c, 2, 47, 127
6, 66118, Note_off_c, 2, 47, 64
6, 66147, Note_on_c, 2, 47, 120
6, 66273, Note_off_c, 2, 47, 64
6, 66334, Note_on_c, 2, 47, 114
6, 66353, Note_off_c, 2, 47, 64
6, 66428, Note_on_c, 2, 47, 127
6, 66598, Note_off_c, 2, 47, 64
6, 66636, Note_on_c, 2, 47, 121
6, 66792, Note_off_c, 2, 47, 64
6, 66828, Note_on_c, 2, 45, 124
6, 66984, Note_off_c, 2, 45, 64
6, 67027, Note_on_c, 2, 45, 117
6, 67177, Note_off_c, 2, 45, 64
6, 67214, Note_on_c, 2, 45, 109
6, 67262, Note_off_c, 2, 45, 64
6, 67304, Note_on_c, 2, 45, 103
6, 67355, Note_off_c, 2, 45, 64
6, 67403, Note_on_c, 2, 45, 101
6, 67454, Note_off_c, 2, 45, 64
6, 67507, Note_on_c, 2, 47, 122
6, 67657, Note_off_c, 2, 47, 64
6, 67694, Note_on_c, 2, 47, 117
6, 67745, Note_off_c, 2, 47, 64
6, 67793, Note_on_c, 2, 47, 114
6, 67835, Note_off_c, 2, 47, 64
6, 67888, Note_on_c, 2, 47, 111
6, 67934, Note_off_c, 2, 47, 64
6, 67985, Note_on_c, 2, 49, 122
6, 68136, Note_off_c, 2, 49, 64
6, 68174, Note_on_c, 2, 49, 80
6, 68179, Note_on_c, 2, 47, 116
6, 68203, Note_off_c, 2, 49, 64
6, 68376, Note_off_c, 2, 47, 64
6, 68385, Note_on_c, 2, 40, 108
6, 68545, Note_off_c, 2, 40, 64
6, 68579, Note_on_c, 2, 40, 96
6, 68705, Note_off_c, 2, 40, 64
6, 68766, Note_on_c, 2, 40, 93
6, 68856, Note_on_c, 2, 42, 109
6, 68889, Note_off_c, 2, 40, 64
6, 68950, Note_off_c, 2, 42, 64
6, 68950, Note_on_c, 2, 45, 121
6, 69011, Note_off_c, 2, 45, 64
6, 69049, Note_on_c, 2, 47, 127
6, 69200, Note_off_c, 2, 47, 64
6, 69232, Note_on_c, 2, 47, 124
6, 69360, Note_off_c, 2, 47, 64
6, 69416, Note_on_c, 2, 47, 124
6, 69449, Note_off_c, 2, 47, 64
6, 69515, Note_on_c, 2, 47, 127
6, 69665, Note_off_c, 2, 47, 64
6, 69712, Note_on_c, 2, 47, 124
6, 69867, Note_off_c, 2, 47, 64
6, 69905, Note_on_c, 2, 45, 124
6, 70051, Note_off_c, 2, 45, 64
6, 70097, Note_on_c, 2, 45, 111
6, 70244, Note_off_c, 2, 45, 64
6, 70291, Note_on_c, 2, 45, 108
6, 70347, Note_off_c, 2, 45, 64
6, 70385, Note_on_c, 2, 45, 111
6, 70432, Note_off_c, 2, 45, 64
6, 70475, Note_on_c, 2, 45, 109
6, 70521, Note_off_c, 2, 45, 64
6, 70568, Note_on_c, 2, 47, 122
6, 70720, Note_off_c, 2, 47, 64
6, 70756, Note_on_c, 2, 47, 116
6, 70808, Note_off_c, 2, 47, 64
6, 70851, Note_on_c, 2, 47, 114
6, 70897, Note_off_c, 2, 47, 64
6, 70940, Note_on_c, 2, 47, 114
6, 70987, Note_off_c, 2, 47, 64
6, 71043, Note_on_c, 2, 49, 124
6, 71193, Note_off_c, 2, 49, 64
6, 71236, Note_on_c, 2, 47, 121
6, 71382, Note_off_c, 2, 47, 64
6, 71433, Note_on_c, 2, 45, 126
6, 72163, Note_off_c, 2, 45, 64
6, 72182, Note_on_c, 2, 47, 122
6, 72958, Note_off_c, 2, 47, 64
6, 72972, Note_on_c, 2, 40, 114
6, 73715, Note_off_c, 2, 40, 64
6, 73744, Note_on_c, 2, 45, 120
6, 74454, Note_off_c, 2, 45, 64
6, 74529, Note_on_c, 2, 45, 126
6, 75264, Note_off_c, 2, 45, 64
6, 75286, Note_on_c, 2, 47, 120
6, 76016, Note_off_c, 2, 47, 64
6, 76040, Note_on_c, 2, 40, 114
6, 76768, Note_off_c, 2, 40, 64
6, 76811, Note_on_c, 2, 45, 124
6, 77488, Note_off_c, 2, 45, 64
6, 77572, Note_on_c, 2, 45, 126
6, 78326, Note_off_c, 2, 45, 64
6, 78344, Note_on_c, 2, 47, 120
6, 78979, Note_off_c, 2, 47, 64
6, 79097, Note_on_c, 2, 40, 117
6, 79427, Note_off_c, 2, 40, 64
6, 79470, Note_on_c, 2, 40, 109
6, 79560, Note_on_c, 2, 42, 108
6, 79588, Note_off_c, 2, 40, 64
6, 79646, Note_off_c, 2, 42, 64
6, 79651, Note_on_c, 2, 45, 117
6, 79718, Note_off_c, 2, 45, 64
6, 79769, Note_on_c, 2, 47, 127
6, 79904, Note_off_c, 2, 47, 64
6, 79947, Note_on_c, 2, 47, 127
6, 80089, Note_off_c, 2, 47, 64
6, 80142, Note_on_c, 2, 47, 124
6, 80176, Note_off_c, 2, 47, 64
6, 80241, Note_on_c, 2, 47, 127
6, 80380, Note_off_c, 2, 47, 64
6, 80438, Note_on_c, 2, 47, 126
6, 80585, Note_off_c, 2, 47, 64
6, 80633, Note_on_c, 2, 45, 127
6, 81009, Note_off_c, 2, 45, 64
6, 81048, Note_on_c, 2, 45, 120
6, 81100, Note_off_c, 2, 45, 64
6, 81139, Note_on_c, 2, 45, 114
6, 81182, Note_off_c, 2, 45, 64
6, 81228, Note_on_c, 2, 45, 117
6, 81276, Note_off_c, 2, 45, 64
6, 81320, Note_on_c, 2, 47, 122
6, 81654, Note_off_c, 2, 47, 64
6, 81700, Note_on_c, 2, 47, 116
6, 81744, Note_off_c, 2, 47, 64
6, 81796, Note_on_c, 2, 49, 122
6, 81972, Note_on_c, 2, 47, 120
6, 81977, Note_off_c, 2, 49, 64
6, 82177, Note_on_c, 2, 40, 121
6, 82182, Note_off_c, 2, 47, 64
6, 82502, Note_off_c, 2, 40, 64
6, 82545, Note_on_c, 2, 40, 114
6, 82644, Note_on_c, 2, 42, 124
6, 82659, Note_off_c, 2, 40, 64
6, 82726, Note_off_c, 2, 42, 64
6, 82736, Note_on_c, 2, 45, 120
6, 82788, Note_off_c, 2, 45, 64
6, 82832, Note_on_c, 2, 47, 127
6, 82979, Note_off_c, 2, 47, 64
6, 83017, Note_on_c, 2, 47, 127
6, 83179, Note_off_c, 2, 47, 64
6, 83222, Note_on_c, 2, 47, 124
6, 83260, Note_off_c, 2, 47, 64
6, 83318, Note_on_c, 2, 47, 122
6, 83460, Note_off_c, 2, 47, 64
6, 83499, Note_on_c, 2, 47, 120
6, 83660, Note_off_c, 2, 47, 64
6, 83694, Note_on_c, 2, 45, 117
6, 84043, Note_off_c, 2, 45, 64
6, 84080, Note_on_c, 2, 45, 114
6, 84147, Note_off_c, 2, 45, 64
6, 84176, Note_on_c, 2, 45, 114
6, 84323, Note_off_c, 2, 45, 64
6, 84356, Note_on_c, 2, 47, 127
6, 84705, Note_off_c, 2, 47, 64
6, 84739, Note_on_c, 2, 47, 121
6, 84790, Note_off_c, 2, 47, 64
6, 84843, Note_on_c, 2, 49, 124
6, 85028, Note_off_c, 2, 49, 64
6, 85028, Note_on_c, 2, 47, 124
6, 85241, Note_on_c, 2, 40, 117
6, 85248, Note_off_c, 2, 47, 64
6, 85571, Note_off_c, 2, 40, 64
6, 85614, Note_on_c, 2, 40, 109
6, 85704, Note_on_c, 2, 42, 108
6, 85732, Note_off_c, 2, 40, 64
6, 85790, Note_off_c, 2, 42, 64
6, 85795, Note_on_c, 2, 45, 117
6, 85862, Note_off_c, 2, 45, 64
6, 85913, Note_on_c, 2, 47, 127
6, 86048, Note_off_c, 2, 47, 64
6, 86091, Note_on_c, 2, 47, 127
6, 86233, Note_off_c, 2, 47, 64
6, 86286, Note_on_c, 2, 47, 124
6, 86320, Note_off_c, 2, 47, 64
6, 86385, Note_on_c, 2, 47, 127
6, 86524, Note_off_c, 2, 47, 64
6, 86582, Note_on_c, 2, 47, 126
6, 86729, Note_off_c, 2, 47, 64
6, 86777, Note_on_c, 2, 45, 127
6, 87153, Note_off_c, 2, 45, 64
6, 87192, Note_on_c, 2, 45, 120
6, 87244, Note_off_c, 2, 45, 64
6, 87283, Note_on_c, 2, 45, 114
6, 87326, Note_off_c, 2, 45, 64
6, 87372, Note_on_c, 2, 45, 117
6, 87420, Note_off_c, 2, 45, 64
6, 87464, Note_on_c, 2, 47, 122
6, 87798, Note_off_c, 2, 47, 64
6, 87844, Note_on_c, 2, 47, 116
6, 87888, Note_off_c, 2, 47, 64
6, 87940, Note_on_c, 2, 49, 122
6, 88116, Note_on_c, 2, 47, 120
6, 88121, Note_off_c, 2, 49, 64
6, 88321, Note_on_c, 2, 40, 121
6, 88326, Note_off_c, 2, 47, 64
6, 88646, Note_off_c, 2, 40, 64
6, 88689, Note_on_c, 2, 40, 114
6, 88788, Note_on_c, 2, 42, 124
6, 88803, Note_off_c, 2, 40, 64
6, 88870, Note_off_c, 2, 42, 64
6, 88880, Note_on_c, 2, 45, 120
6, 88932, Note_off_c, 2, 45, 64
6, 88976, Note_on_c, 2, 47, 127
6, 89123, Note_off_c, 2, 47, 64
6, 89161, Note_on_c, 2, 47, 127
6, 89323, Note_off_c, 2, 47, 64
6, 89366, Note_on_c, 2, 47, 124
6, 89404, Note_off_c, 2, 47, 64
6, 89462, Note_on_c, 2, 47, 122
6, 89604, Note_off_c, 2, 47, 64
6, 89643, Note_on_c, 2, 47, 120
6, 89804, Note_off_c, 2, 47, 64
6, 89838, Note_on_c, 2, 45, 117
6, 90187, Note_off_c, 2, 45, 64
6, 90224, Note_on_c, 2, 45, 114
6, 90291, Note_off_c, 2, 45, 64
6, 90320, Note_on_c, 2, 45, 114
6, 90467, Note_off_c, 2, 45, 64
6, 90500, Note_on_c, 2, 47, 127
6, 90849, Note_off_c, 2, 47, 64
6, 90883, Note_on_c, 2, 47, 121
6, 90934, Note_off_c, 2, 47, 64
6, 90987, Note_on_c, 2, 49, 124
6, 91172, Note_off_c, 2, 49, 64
6, 91172, Note_on_c, 2, 47, 124
6, 91376, Note_on_c, 2, 40, 124
6, 91380, Note_on_c, 2, 47, 122
6, 91392, Note_off_c, 2, 47, 64
6, 91422, Note_off_c, 2, 47, 64
6, 91436, Note_off_c, 2, 40, 64
6, 91436, End_track
7, 0, Start_track
7, 0, Title_t, "GUITARS 1"
7, 0, Channel_prefix, 2
7, 0, Control_c, 2, 7, 78
7, 0, Control_c, 2, 10, 75
7, 0, Program_c, 2, 27
7, 761, Note_on_c, 2, 40, 117
7, 1091, Note_off_c, 2, 40, 64
7, 1134, Note_on_c, 2, 40, 109
7, 1224, Note_on_c, 2, 42, 108
7, 1252, Note_off_c, 2, 40, 64
7, 1310, Note_off_c, 2, 42, 64
7, 1315, Note_on_c, 2, 45, 117
7, 1382, Note_off_c, 2, 45, 64
7, 1433, Note_on_c, 2, 47, 127
7, 1568, Note_off_c, 2, 47, 64
7, 1611, Note_on_c, 2, 47, 127
7, 1753, Note_off_c, 2, 47, 64
7, 1806, Note_on_c, 2, 47, 124
7, 1840, Note_off_c, 2, 47, 64
7, 1905, Note_on_c, 2, 47, 127
7, 2044, Note_off_c, 2, 47, 64
7, 2102, Note_on_c, 2, 47, 126
7, 2249, Note_off_c, 2, 47, 64
7, 2297, Note_on_c, 2, 45, 127
7, 2673, Note_off_c, 2, 45, 64
7, 2712, Note_on_c, 2, 45, 120
7, 2764, Note_off_c, 2, 45, 64
7, 2803, Note_on_c, 2, 45, 114
7, 2846, Note_off_c, 2, 45, 64
7, 2892, Note_on_c, 2, 45, 117
7, 2940, Note_off_c, 2, 45, 64
7, 2984, Note_on_c, 2, 47, 122
7, 3318, Note_off_c, 2, 47, 64
7, 3364, Note_on_c, 2, 47, 116
7, 3408, Note_off_c, 2, 47, 64
7, 3460, Note_on_c, 2, 49, 122
7, 3636, Note_on_c, 2, 47, 120
7, 3641, Note_off_c, 2, 49, 64
7, 3841, Note_on_c, 2, 40, 121
7, 3846, Note_off_c, 2, 47, 64
7, 4166, Note_off_c, 2, 40, 64
7, 4209, Note_on_c, 2, 40, 114
7, 4308, Note_on_c, 2, 42, 124
7, 4323, Note_off_c, 2, 40, 64
7, 4390, Note_off_c, 2, 42, 64
7, 4400, Note_on_c, 2, 45, 120
7, 4452, Note_off_c, 2, 45, 64
7, 4496, Note_on_c, 2, 47, 127
7, 4643, Note_off_c, 2, 47, 64
7, 4681, Note_on_c, 2, 47, 127
7, 4843, Note_off_c, 2, 47, 64
7, 4886, Note_on_c, 2, 47, 124
7, 4924, Note_off_c, 2, 47, 64
7, 4982, Note_on_c, 2, 47, 122
7, 5124, Note_off_c, 2, 47, 64
7, 5163, Note_on_c, 2, 47, 120
7, 5324, Note_off_c, 2, 47, 64
7, 5358, Note_on_c, 2, 45, 117
7, 5707, Note_off_c, 2, 45, 64
7, 5744, Note_on_c, 2, 45, 114
7, 5811, Note_off_c, 2, 45, 64
7, 5840, Note_on_c, 2, 45, 114
7, 5987, Note_off_c, 2, 45, 64
7, 6020, Note_on_c, 2, 47, 127
7, 6369, Note_off_c, 2, 47, 64
7, 6403, Note_on_c, 2, 47, 121
7, 6454, Note_off_c, 2, 47, 64
7, 6507, Note_on_c, 2, 49, 124
7, 6692, Note_off_c, 2, 49, 64
7, 6692, Note_on_c, 2, 47, 124
7, 6908, Note_on_c, 2, 40, 117
7, 6912, Note_off_c, 2, 47, 64
7, 7070, Note_off_c, 2, 40, 64
7, 7104, Note_on_c, 2, 40, 114
7, 7251, Note_off_c, 2, 40, 64
7, 7289, Note_on_c, 2, 40, 99
7, 7380, Note_on_c, 2, 42, 109
7, 7403, Note_off_c, 2, 40, 64
7, 7470, Note_off_c, 2, 42, 64
7, 7475, Note_on_c, 2, 45, 117
7, 7537, Note_off_c, 2, 45, 64
7, 7580, Note_on_c, 2, 47, 122
7, 7928, Note_off_c, 2, 47, 64
7, 7966, Note_on_c, 2, 47, 121
7, 8132, Note_off_c, 2, 47, 64
7, 8161, Note_on_c, 2, 47, 116
7, 8224, Note_off_c, 2, 47, 64
7, 8257, Note_on_c, 2, 47, 117
7, 8315, Note_off_c, 2, 47, 64
7, 8352, Note_on_c, 2, 47, 117
7, 8414, Note_off_c, 2, 47, 64
7, 8457, Note_on_c, 2, 45, 116
7, 8792, Note_off_c, 2, 45, 64
7, 8824, Note_on_c, 2, 45, 111
7, 8886, Note_off_c, 2, 45, 64
7, 8924, Note_on_c, 2, 45, 106
7, 8972, Note_off_c, 2, 45, 64
7, 9016, Note_on_c, 2, 45, 106
7, 9062, Note_off_c, 2, 45, 64
7, 9110, Note_on_c, 2, 47, 122
7, 9478, Note_off_c, 2, 47, 64
7, 9516, Note_on_c, 2, 47, 114
7, 9563, Note_off_c, 2, 47, 64
7, 9611, Note_on_c, 2, 49, 127
7, 9801, Note_off_c, 2, 49, 64
7, 9801, Note_on_c, 2, 47, 121
7, 9998, Note_off_c, 2, 47, 64
7, 9998, Note_on_c, 2, 40, 114
7, 10297, Note_off_c, 2, 40, 64
7, 10360, Note_on_c, 2, 40, 108
7, 10451, Note_on_c, 2, 42, 117
7, 10470, Note_off_c, 2, 40, 64
7, 10540, Note_off_c, 2, 42, 64
7, 10550, Note_on_c, 2, 45, 120
7, 10622, Note_off_c, 2, 45, 64
7, 10656, Note_on_c, 2, 47, 122
7, 10817, Note_off_c, 2, 47, 64
7, 10841, Note_on_c, 2, 47, 116
7, 10984, Note_off_c, 2, 47, 64
7, 11032, Note_on_c, 2, 47, 120
7, 11065, Note_off_c, 2, 47, 64
7, 11123, Note_on_c, 2, 47, 124
7, 11275, Note_off_c, 2, 47, 64
7, 11318, Note_on_c, 2, 47, 117
7, 11475, Note_off_c, 2, 47, 64
7, 11513, Note_on_c, 2, 45, 117
7, 11867, Note_off_c, 2, 45, 64
7, 11905, Note_on_c, 2, 45, 108
7, 11961, Note_off_c, 2, 45, 64
7, 12000, Note_on_c, 2, 45, 101
7, 12148, Note_off_c, 2, 45, 64
7, 12176, Note_on_c, 2, 47, 127
7, 12515, Note_off_c, 2, 47, 64
7, 12558, Note_on_c, 2, 47, 124
7, 12734, Note_off_c, 2, 47, 64
7, 12768, Note_on_c, 2, 47, 116
7, 12811, Note_off_c, 2, 47, 64
7, 12864, Note_on_c, 2, 47, 116
7, 12900, Note_off_c, 2, 47, 64
7, 12948, Note_on_c, 2, 47, 121
7, 13040, Note_on_c, 2, 40, 91
7, 13044, Note_off_c, 2, 47, 64
7, 13192, Note_off_c, 2, 40, 64
7, 13235, Note_on_c, 2, 40, 111
7, 13392, Note_off_c, 2, 40, 64
7, 13444, Note_on_c, 2, 40, 108
7, 13536, Note_on_c, 2, 42, 111
7, 13564, Note_off_c, 2, 40, 64
7, 13625, Note_on_c, 2, 45, 116
7, 13630, Note_off_c, 2, 42, 64
7, 13683, Note_off_c, 2, 45, 64
7, 13721, Note_on_c, 2, 47, 126
7, 13892, Note_off_c, 2, 47, 64
7, 13921, Note_on_c, 2, 47, 116
7, 14032, Note_off_c, 2, 47, 64
7, 14107, Note_on_c, 2, 47, 122
7, 14145, Note_off_c, 2, 47, 64
7, 14203, Note_on_c, 2, 47, 121
7, 14360, Note_off_c, 2, 47, 64
7, 14403, Note_on_c, 2, 47, 117
7, 14564, Note_off_c, 2, 47, 64
7, 14593, Note_on_c, 2, 45, 117
7, 14937, Note_off_c, 2, 45, 64
7, 14976, Note_on_c, 2, 45, 116
7, 15041, Note_off_c, 2, 45, 64
7, 15075, Note_on_c, 2, 47, 120
7, 15132, Note_off_c, 2, 47, 64
7, 15176, Note_on_c, 2, 45, 114
7, 15238, Note_off_c, 2, 45, 64
7, 15256, Note_on_c, 2, 47, 116
7, 15633, Note_on_c, 2, 45, 111
7, 15643, Note_off_c, 2, 47, 64
7, 15715, Note_off_c, 2, 45, 64
7, 15742, Note_on_c, 2, 49, 116
7, 15939, Note_on_c, 2, 47, 121
7, 15953, Note_off_c, 2, 49, 64
7, 16144, Note_on_c, 2, 40, 117
7, 16153, Note_off_c, 2, 47, 64
7, 16276, Note_off_c, 2, 40, 64
7, 16315, Note_on_c, 2, 40, 111
7, 16462, Note_off_c, 2, 40, 64
7, 16510, Note_on_c, 2, 40, 114
7, 16596, Note_on_c, 2, 42, 103
7, 16620, Note_off_c, 2, 40, 64
7, 16691, Note_off_c, 2, 42, 64
7, 16696, Note_on_c, 2, 45, 121
7, 16763, Note_off_c, 2, 45, 64
7, 16801, Note_on_c, 2, 47, 124
7, 16944, Note_off_c, 2, 47, 64
7, 16977, Note_on_c, 2, 47, 120
7, 17136, Note_off_c, 2, 47, 64
7, 17172, Note_on_c, 2, 47, 121
7, 17211, Note_off_c, 2, 47, 64
7, 17268, Note_on_c, 2, 47, 120
7, 17416, Note_off_c, 2, 47, 64
7, 17459, Note_on_c, 2, 47, 122
7, 17617, Note_off_c, 2, 47, 64
7, 17659, Note_on_c, 2, 45, 120
7, 17993, Note_off_c, 2, 45, 64
7, 18036, Note_on_c, 2, 45, 109
7, 18099, Note_off_c, 2, 45, 64
7, 18136, Note_on_c, 2, 47, 117
7, 18193, Note_off_c, 2, 47, 64
7, 18232, Note_on_c, 2, 45, 108
7, 18284, Note_off_c, 2, 45, 64
7, 18329, Note_on_c, 2, 47, 122
7, 18692, Note_off_c, 2, 47, 64
7, 18736, Note_on_c, 2, 47, 111
7, 18779, Note_off_c, 2, 47, 64
7, 18825, Note_on_c, 2, 49, 127
7, 19012, Note_off_c, 2, 49, 64
7, 19012, Note_on_c, 2, 47, 124
7, 19188, Note_on_c, 2, 40, 114
7, 19193, Note_off_c, 2, 47, 64
7, 19355, Note_off_c, 2, 40, 64
7, 19393, Note_on_c, 2, 40, 117
7, 19540, Note_off_c, 2, 40, 64
7, 19564, Note_on_c, 2, 40, 91
7, 19651, Note_on_c, 2, 42, 96
7, 19694, Note_off_c, 2, 40, 64
7, 19755, Note_on_c, 2, 45, 121
7, 19769, Note_off_c, 2, 42, 64
7, 19812, Note_off_c, 2, 45, 64
7, 19856, Note_on_c, 2, 47, 124
7, 20027, Note_off_c, 2, 47, 64
7, 20051, Note_on_c, 2, 47, 116
7, 20214, Note_off_c, 2, 47, 64
7, 20236, Note_on_c, 2, 47, 111
7, 20284, Note_off_c, 2, 47, 64
7, 20342, Note_on_c, 2, 47, 124
7, 20499, Note_off_c, 2, 47, 64
7, 20537, Note_on_c, 2, 47, 121
7, 20691, Note_off_c, 2, 47, 64
7, 20713, Note_on_c, 2, 45, 121
7, 21081, Note_off_c, 2, 45, 64
7, 21115, Note_on_c, 2, 45, 108
7, 21172, Note_off_c, 2, 45, 64
7, 21204, Note_on_c, 2, 47, 121
7, 21267, Note_off_c, 2, 47, 64
7, 21305, Note_on_c, 2, 45, 116
7, 21363, Note_off_c, 2, 45, 64
7, 21401, Note_on_c, 2, 47, 124
7, 21777, Note_on_c, 2, 45, 116
7, 21796, Note_off_c, 2, 47, 64
7, 21859, Note_off_c, 2, 45, 64
7, 21888, Note_on_c, 2, 49, 116
7, 22075, Note_on_c, 2, 47, 124
7, 22078, Note_off_c, 2, 49, 64
7, 22270, Note_off_c, 2, 47, 64
7, 22272, Note_on_c, 2, 40, 121
7, 22585, Note_off_c, 2, 40, 64
7, 22664, Note_on_c, 2, 40, 101
7, 22755, Note_on_c, 2, 42, 109
7, 22784, Note_off_c, 2, 40, 64
7, 22836, Note_on_c, 2, 45, 116
7, 22841, Note_off_c, 2, 42, 64
7, 22888, Note_off_c, 2, 45, 64
7, 22936, Note_on_c, 2, 47, 124
7, 23097, Note_off_c, 2, 47, 64
7, 23126, Note_on_c, 2, 47, 120
7, 23284, Note_off_c, 2, 47, 64
7, 23318, Note_on_c, 2, 47, 117
7, 23355, Note_off_c, 2, 47, 64
7, 23417, Note_on_c, 2, 47, 124
7, 23579, Note_off_c, 2, 47, 64
7, 23612, Note_on_c, 2, 47, 117
7, 23776, Note_off_c, 2, 47, 64
7, 23808, Note_on_c, 2, 45, 124
7, 24161, Note_off_c, 2, 45, 64
7, 24200, Note_on_c, 2, 45, 114
7, 24267, Note_off_c, 2, 45, 64
7, 24294, Note_on_c, 2, 47, 120
7, 24352, Note_off_c, 2, 47, 64
7, 24395, Note_on_c, 2, 45, 120
7, 24448, Note_off_c, 2, 45, 64
7, 24481, Note_on_c, 2, 47, 122
7, 24862, Note_on_c, 2, 45, 116
7, 24872, Note_off_c, 2, 47, 64
7, 24963, Note_off_c, 2, 45, 64
7, 24977, Note_on_c, 2, 49, 117
7, 25153, Note_on_c, 2, 47, 121
7, 25177, Note_off_c, 2, 49, 64
7, 25356, Note_on_c, 2, 45, 124
7, 25387, Note_off_c, 2, 47, 64
7, 26052, Note_off_c, 2, 45, 64
7, 26105, Note_on_c, 2, 47, 127
7, 26878, Note_on_c, 2, 40, 122
7, 26883, Note_off_c, 2, 47, 64
7, 27656, Note_off_c, 2, 40, 64
7, 27660, Note_on_c, 2, 45, 124
7, 28366, Note_off_c, 2, 45, 64
7, 28427, Note_on_c, 2, 45, 117
7, 29152, Note_off_c, 2, 45, 64
7, 29195, Note_on_c, 2, 47, 124
7, 29939, Note_off_c, 2, 47, 64
7, 29953, Note_on_c, 2, 40, 126
7, 30688, Note_off_c, 2, 40, 64
7, 30731, Note_on_c, 2, 45, 124
7, 31427, Note_off_c, 2, 45, 64
7, 31492, Note_on_c, 2, 45, 121
7, 32217, Note_off_c, 2, 45, 64
7, 32256, Note_on_c, 2, 47, 124
7, 32980, Note_off_c, 2, 47, 64
7, 33024, Note_on_c, 2, 40, 114
7, 33180, Note_off_c, 2, 40, 64
7, 33224, Note_on_c, 2, 40, 117
7, 33372, Note_off_c, 2, 40, 64
7, 33404, Note_on_c, 2, 40, 98
7, 33496, Note_on_c, 2, 42, 103
7, 33524, Note_off_c, 2, 40, 64
7, 33572, Note_on_c, 2, 45, 116
7, 33592, Note_off_c, 2, 42, 64
7, 33643, Note_off_c, 2, 45, 64
7, 33672, Note_on_c, 2, 47, 122
7, 33835, Note_off_c, 2, 47, 64
7, 33868, Note_on_c, 2, 47, 121
7, 34040, Note_off_c, 2, 47, 64
7, 34073, Note_on_c, 2, 47, 122
7, 34124, Note_off_c, 2, 47, 64
7, 34177, Note_on_c, 2, 47, 124
7, 34336, Note_off_c, 2, 47, 64
7, 34372, Note_on_c, 2, 47, 124
7, 34536, Note_off_c, 2, 47, 64
7, 34569, Note_on_c, 2, 45, 120
7, 34916, Note_off_c, 2, 45, 64
7, 34960, Note_on_c, 2, 45, 116
7, 35017, Note_off_c, 2, 45, 64
7, 35041, Note_on_c, 2, 47, 121
7, 35107, Note_off_c, 2, 47, 64
7, 35222, Note_on_c, 2, 47, 126
7, 35588, Note_off_c, 2, 47, 64
7, 35632, Note_on_c, 2, 47, 116
7, 35670, Note_off_c, 2, 47, 64
7, 35718, Note_on_c, 2, 49, 127
7, 35904, Note_off_c, 2, 49, 64
7, 35913, Note_on_c, 2, 47, 124
7, 36113, Note_off_c, 2, 47, 64
7, 36113, Note_on_c, 2, 40, 114
7, 36265, Note_off_c, 2, 40, 64
7, 36304, Note_on_c, 2, 40, 120
7, 36443, Note_off_c, 2, 40, 64
7, 36481, Note_on_c, 2, 40, 108
7, 36571, Note_on_c, 2, 42, 120
7, 36585, Note_off_c, 2, 40, 64
7, 36652, Note_off_c, 2, 42, 64
7, 36652, Note_on_c, 2, 45, 120
7, 36724, Note_off_c, 2, 45, 64
7, 36752, Note_on_c, 2, 47, 127
7, 36924, Note_off_c, 2, 47, 64
7, 36958, Note_on_c, 2, 47, 121
7, 37115, Note_off_c, 2, 47, 64
7, 37153, Note_on_c, 2, 47, 120
7, 37206, Note_off_c, 2, 47, 64
7, 37248, Note_on_c, 2, 47, 124
7, 37401, Note_off_c, 2, 47, 64
7, 37444, Note_on_c, 2, 47, 121
7, 37592, Note_off_c, 2, 47, 64
7, 37630, Note_on_c, 2, 45, 121
7, 38001, Note_off_c, 2, 45, 64
7, 38030, Note_on_c, 2, 45, 122
7, 38172, Note_off_c, 2, 45, 64
7, 38201, Note_on_c, 2, 45, 114
7, 38259, Note_off_c, 2, 45, 64
7, 38297, Note_on_c, 2, 47, 124
7, 38668, Note_off_c, 2, 47, 64
7, 38683, Note_on_c, 2, 45, 99
7, 38760, Note_off_c, 2, 45, 64
7, 38788, Note_on_c, 2, 49, 126
7, 38984, Note_on_c, 2, 47, 124
7, 38993, Note_off_c, 2, 49, 64
7, 39155, Note_off_c, 2, 47, 64
7, 39164, Note_on_c, 2, 40, 117
7, 39323, Note_off_c, 2, 40, 64
7, 39360, Note_on_c, 2, 40, 117
7, 39518, Note_off_c, 2, 40, 64
7, 39561, Note_on_c, 2, 40, 117
7, 39651, Note_on_c, 2, 42, 111
7, 39670, Note_off_c, 2, 40, 64
7, 39737, Note_off_c, 2, 42, 64
7, 39737, Note_on_c, 2, 45, 120
7, 39804, Note_off_c, 2, 45, 64
7, 39841, Note_on_c, 2, 47, 127
7, 40000, Note_off_c, 2, 47, 64
7, 40033, Note_on_c, 2, 47, 120
7, 40176, Note_off_c, 2, 47, 64
7, 40224, Note_on_c, 2, 47, 124
7, 40267, Note_off_c, 2, 47, 64
7, 40318, Note_on_c, 2, 47, 124
7, 40467, Note_off_c, 2, 47, 64
7, 40515, Note_on_c, 2, 47, 124
7, 40681, Note_off_c, 2, 47, 64
7, 40710, Note_on_c, 2, 45, 122
7, 41048, Note_off_c, 2, 45, 64
7, 41086, Note_on_c, 2, 45, 117
7, 41240, Note_off_c, 2, 45, 64
7, 41267, Note_on_c, 2, 45, 108
7, 41324, Note_off_c, 2, 45, 64
7, 41368, Note_on_c, 2, 47, 124
7, 41758, Note_off_c, 2, 47, 64
7, 41758, Note_on_c, 2, 45, 116
7, 41816, Note_off_c, 2, 45, 64
7, 41849, Note_on_c, 2, 49, 127
7, 42040, Note_on_c, 2, 47, 120
7, 42054, Note_off_c, 2, 49, 64
7, 42235, Note_off_c, 2, 47, 64
7, 42235, Note_on_c, 2, 40, 109
7, 42388, Note_off_c, 2, 40, 64
7, 42427, Note_on_c, 2, 40, 111
7, 42564, Note_off_c, 2, 40, 64
7, 42612, Note_on_c, 2, 40, 99
7, 42707, Note_on_c, 2, 42, 99
7, 42740, Note_off_c, 2, 40, 64
7, 42793, Note_off_c, 2, 42, 64
7, 42798, Note_on_c, 2, 45, 120
7, 42870, Note_off_c, 2, 45, 64
7, 42908, Note_on_c, 2, 47, 126
7, 43070, Note_off_c, 2, 47, 64
7, 43094, Note_on_c, 2, 47, 109
7, 43265, Note_off_c, 2, 47, 64
7, 43299, Note_on_c, 2, 47, 120
7, 43352, Note_off_c, 2, 47, 64
7, 43395, Note_on_c, 2, 47, 124
7, 43547, Note_off_c, 2, 47, 64
7, 43585, Note_on_c, 2, 47, 122
7, 43752, Note_off_c, 2, 47, 64
7, 43780, Note_on_c, 2, 45, 121
7, 44110, Note_off_c, 2, 45, 64
7, 44156, Note_on_c, 2, 45, 116
7, 44315, Note_off_c, 2, 45, 64
7, 44348, Note_on_c, 2, 45, 99
7, 44400, Note_off_c, 2, 45, 64
7, 44438, Note_on_c, 2, 47, 127
7, 44777, Note_off_c, 2, 47, 64
7, 44830, Note_on_c, 2, 47, 124
7, 45016, Note_off_c, 2, 47, 64
7, 45044, Note_on_c, 2, 47, 120
7, 45086, Note_off_c, 2, 47, 64
7, 45129, Note_on_c, 2, 47, 121
7, 45172, Note_off_c, 2, 47, 64
7, 45225, Note_on_c, 2, 47, 121
7, 45329, Note_on_c, 2, 40, 106
7, 45339, Note_off_c, 2, 47, 64
7, 45473, Note_off_c, 2, 40, 64
7, 45521, Note_on_c, 2, 40, 111
7, 45649, Note_off_c, 2, 40, 64
7, 45702, Note_on_c, 2, 40, 99
7, 45792, Note_on_c, 2, 42, 88
7, 45820, Note_off_c, 2, 40, 64
7, 45883, Note_off_c, 2, 42, 64
7, 45883, Note_on_c, 2, 45, 120
7, 45955, Note_off_c, 2, 45, 64
7, 45988, Note_on_c, 2, 47, 124
7, 46145, Note_off_c, 2, 47, 64
7, 46179, Note_on_c, 2, 47, 120
7, 46336, Note_off_c, 2, 47, 64
7, 46374, Note_on_c, 2, 47, 121
7, 46427, Note_off_c, 2, 47, 64
7, 46470, Note_on_c, 2, 47, 120
7, 46622, Note_off_c, 2, 47, 64
7, 46660, Note_on_c, 2, 47, 121
7, 46822, Note_off_c, 2, 47, 64
7, 46851, Note_on_c, 2, 45, 121
7, 47200, Note_off_c, 2, 45, 64
7, 47246, Note_on_c, 2, 45, 117
7, 47385, Note_off_c, 2, 45, 64
7, 47419, Note_on_c, 2, 45, 93
7, 47489, Note_off_c, 2, 45, 64
7, 47523, Note_on_c, 2, 47, 124
7, 47910, Note_off_c, 2, 47, 64
7, 47920, Note_on_c, 2, 45, 111
7, 47976, Note_off_c, 2, 45, 64
7, 48009, Note_on_c, 2, 49, 126
7, 48200, Note_on_c, 2, 47, 124
7, 48204, Note_off_c, 2, 49, 64
7, 48382, Note_off_c, 2, 47, 64
7, 48396, Note_on_c, 2, 40, 114
7, 48529, Note_off_c, 2, 40, 64
7, 48572, Note_on_c, 2, 40, 111
7, 48720, Note_off_c, 2, 40, 64
7, 48768, Note_on_c, 2, 40, 103
7, 48864, Note_on_c, 2, 42, 122
7, 48888, Note_off_c, 2, 40, 64
7, 48944, Note_off_c, 2, 42, 64
7, 48948, Note_on_c, 2, 45, 120
7, 49020, Note_off_c, 2, 45, 64
7, 49054, Note_on_c, 2, 47, 122
7, 49216, Note_off_c, 2, 47, 64
7, 49254, Note_on_c, 2, 47, 121
7, 49396, Note_off_c, 2, 47, 64
7, 49444, Note_on_c, 2, 47, 121
7, 49488, Note_off_c, 2, 47, 64
7, 49536, Note_on_c, 2, 47, 122
7, 49692, Note_off_c, 2, 47, 64
7, 49731, Note_on_c, 2, 47, 117
7, 49883, Note_off_c, 2, 47, 64
7, 49921, Note_on_c, 2, 45, 121
7, 50280, Note_off_c, 2, 45, 64
7, 50321, Note_on_c, 2, 45, 108
7, 50441, Note_off_c, 2, 45, 64
7, 50494, Note_on_c, 2, 45, 108
7, 50556, Note_off_c, 2, 45, 64
7, 50593, Note_on_c, 2, 47, 127
7, 50985, Note_on_c, 2, 45, 116
7, 50995, Note_off_c, 2, 47, 64
7, 51051, Note_off_c, 2, 45, 64
7, 51075, Note_on_c, 2, 49, 124
7, 51272, Note_on_c, 2, 47, 117
7, 51275, Note_off_c, 2, 49, 64
7, 51467, Note_off_c, 2, 47, 64
7, 51476, Note_on_c, 2, 45, 124
7, 52211, Note_off_c, 2, 45, 64
7, 52216, Note_on_c, 2, 47, 122
7, 52977, Note_off_c, 2, 47, 64
7, 52992, Note_on_c, 2, 40, 117
7, 53750, Note_off_c, 2, 40, 64
7, 53760, Note_on_c, 2, 45, 124
7, 54484, Note_off_c, 2, 45, 64
7, 54537, Note_on_c, 2, 45, 124
7, 55248, Note_off_c, 2, 45, 64
7, 55291, Note_on_c, 2, 47, 124
7, 56048, Note_off_c, 2, 47, 64
7, 56062, Note_on_c, 2, 40, 117
7, 56811, Note_off_c, 2, 40, 64
7, 56825, Note_on_c, 2, 45, 127
7, 57540, Note_off_c, 2, 45, 64
7, 57598, Note_on_c, 2, 45, 121
7, 58308, Note_off_c, 2, 45, 64
7, 58361, Note_on_c, 2, 47, 127
7, 59076, Note_off_c, 2, 47, 64
7, 59329, Note_on_c, 2, 56, 124
7, 59369, Note_off_c, 2, 56, 64
7, 59433, Note_on_c, 2, 56, 127
7, 59475, Note_off_c, 2, 56, 64
7, 59723, Note_on_c, 2, 56, 127
7, 59758, Note_off_c, 2, 56, 64
7, 60112, Note_on_c, 2, 51, 127
7, 60144, Note_off_c, 2, 51, 64
7, 60198, Note_on_c, 2, 51, 127
7, 60235, Note_off_c, 2, 51, 64
7, 60491, Note_on_c, 2, 51, 127
7, 60528, Note_off_c, 2, 51, 64
7, 60867, Note_on_c, 2, 52, 127
7, 60902, Note_off_c, 2, 52, 64
7, 60966, Note_on_c, 2, 52, 127
7, 61003, Note_off_c, 2, 52, 64
7, 61256, Note_on_c, 2, 52, 127
7, 61292, Note_off_c, 2, 52, 64
7, 61635, Note_on_c, 2, 52, 124
7, 61672, Note_off_c, 2, 52, 64
7, 61740, Note_on_c, 2, 52, 124
7, 61782, Note_off_c, 2, 52, 64
7, 62014, Note_on_c, 2, 52, 124
7, 62051, Note_off_c, 2, 52, 64
7, 62404, Note_on_c, 2, 56, 127
7, 62436, Note_off_c, 2, 56, 64
7, 62500, Note_on_c, 2, 56, 127
7, 62536, Note_off_c, 2, 56, 64
7, 62796, Note_on_c, 2, 56, 127
7, 62833, Note_off_c, 2, 56, 64
7, 63187, Note_on_c, 2, 51, 127
7, 63222, Note_off_c, 2, 51, 64
7, 63273, Note_on_c, 2, 51, 127
7, 63310, Note_off_c, 2, 51, 64
7, 63566, Note_on_c, 2, 51, 127
7, 63603, Note_off_c, 2, 51, 64
7, 63940, Note_on_c, 2, 52, 122
7, 63972, Note_off_c, 2, 52, 64
7, 64038, Note_on_c, 2, 52, 127
7, 64073, Note_off_c, 2, 52, 64
7, 64316, Note_on_c, 2, 52, 124
7, 64358, Note_off_c, 2, 52, 64
7, 64513, Note_on_c, 2, 52, 122
7, 64540, Note_off_c, 2, 52, 64
7, 64563, Note_on_c, 2, 52, 127
7, 64595, Note_off_c, 2, 52, 64
7, 64609, Note_on_c, 2, 52, 124
7, 64636, Note_off_c, 2, 52, 64
7, 64659, Note_on_c, 2, 52, 124
7, 64692, Note_off_c, 2, 52, 64
7, 64705, Note_on_c, 2, 52, 126
7, 64737, Note_off_c, 2, 52, 64
7, 65291, Note_on_c, 2, 47, 93
7, 65446, Note_off_c, 2, 47, 64
7, 65478, Note_on_c, 2, 47, 108
7, 65616, Note_off_c, 2, 47, 64
7, 65667, Note_on_c, 2, 47, 96
7, 65771, Note_on_c, 2, 49, 108
7, 65788, Note_off_c, 2, 47, 64
7, 65860, Note_off_c, 2, 49, 64
7, 65860, Note_on_c, 2, 52, 108
7, 65931, Note_off_c, 2, 52, 64
7, 65963, Note_on_c, 2, 54, 127
7, 66118, Note_off_c, 2, 54, 64
7, 66147, Note_on_c, 2, 54, 120
7, 66273, Note_off_c, 2, 54, 64
7, 66334, Note_on_c, 2, 54, 114
7, 66353, Note_off_c, 2, 54, 64
7, 66428, Note_on_c, 2, 54, 127
7, 66598, Note_off_c, 2, 54, 64
7, 66636, Note_on_c, 2, 54, 121
7, 66792, Note_off_c, 2, 54, 64
7, 66828, Note_on_c, 2, 52, 124
7, 66984, Note_off_c, 2, 52, 64
7, 67027, Note_on_c, 2, 52, 117
7, 67177, Note_off_c, 2, 52, 64
7, 67214, Note_on_c, 2, 52, 109
7, 67262, Note_off_c, 2, 52, 64
7, 67304, Note_on_c, 2, 52, 103
7, 67355, Note_off_c, 2, 52, 64
7, 67403, Note_on_c, 2, 52, 101
7, 67454, Note_off_c, 2, 52, 64
7, 67507, Note_on_c, 2, 54, 122
7, 67657, Note_off_c, 2, 54, 64
7, 67694, Note_on_c, 2, 54, 117
7, 67745, Note_off_c, 2, 54, 64
7, 67793, Note_on_c, 2, 54, 114
7, 67835, Note_off_c, 2, 54, 64
7, 67888, Note_on_c, 2, 54, 111
7, 67934, Note_off_c, 2, 54, 64
7, 67985, Note_on_c, 2, 56, 122
7, 68136, Note_off_c, 2, 56, 64
7, 68174, Note_on_c, 2, 56, 80
7, 68179, Note_on_c, 2, 54, 116
7, 68203, Note_off_c, 2, 56, 64
7, 68376, Note_off_c, 2, 54, 64
7, 68385, Note_on_c, 2, 47, 108
7, 68545, Note_off_c, 2, 47, 64
7, 68579, Note_on_c, 2, 47, 96
7, 68705, Note_off_c, 2, 47, 64
7, 68766, Note_on_c, 2, 47, 93
7, 68856, Note_on_c, 2, 49, 109
7, 68889, Note_off_c, 2, 47, 64
7, 68950, Note_off_c, 2, 49, 64
7, 68950, Note_on_c, 2, 52, 121
7, 69011, Note_off_c, 2, 52, 64
7, 69049, Note_on_c, 2, 54, 127
7, 69200, Note_off_c, 2, 54, 64
7, 69232, Note_on_c, 2, 54, 124
7, 69360, Note_off_c, 2, 54, 64
7, 69416, Note_on_c, 2, 54, 124
7, 69449, Note_off_c, 2, 54, 64
7, 69515, Note_on_c, 2, 54, 127
7, 69665, Note_off_c, 2, 54, 64
7, 69712, Note_on_c, 2, 54, 124
7, 69867, Note_off_c, 2, 54, 64
7, 69905, Note_on_c, 2, 52, 124
7, 70051, Note_off_c, 2, 52, 64
7, 70097, Note_on_c, 2, 52, 111
7, 70244, Note_off_c, 2, 52, 64
7, 70291, Note_on_c, 2, 52, 108
7, 70347, Note_off_c, 2, 52, 64
7, 70385, Note_on_c, 2, 52, 111
7, 70432, Note_off_c, 2, 52, 64
7, 70475, Note_on_c, 2, 52, 109
7, 70521, Note_off_c, 2, 52, 64
7, 70568, Note_on_c, 2, 54, 122
7, 70720, Note_off_c, 2, 54, 64
7, 70756, Note_on_c, 2, 54, 116
7, 70808, Note_off_c, 2, 54, 64
7, 70851, Note_on_c, 2, 54, 114
7, 70897, Note_off_c, 2, 54, 64
7, 70940, Note_on_c, 2, 54, 114
7, 70987, Note_off_c, 2, 54, 64
7, 71043, Note_on_c, 2, 56, 124
7, 71193, Note_off_c, 2, 56, 64
7, 71236, Note_on_c, 2, 54, 121
7, 71382, Note_off_c, 2, 54, 64
7, 71433, Note_on_c, 2, 52, 126
7, 72163, Note_off_c, 2, 52, 64
7, 72182, Note_on_c, 2, 54, 122
7, 72958, Note_off_c, 2, 54, 64
7, 72972, Note_on_c, 2, 47, 114
7, 73715, Note_off_c, 2, 47, 64
7, 73744, Note_on_c, 2, 52, 120
7, 74454, Note_off_c, 2, 52, 64
7, 74529, Note_on_c, 2, 52, 126
7, 75264, Note_off_c, 2, 52, 64
7, 75286, Note_on_c, 2, 54, 120
7, 76016, Note_off_c, 2, 54, 64
7, 76040, Note_on_c, 2, 47, 114
7, 76768, Note_off_c, 2, 47, 64
7, 76811, Note_on_c, 2, 52, 124
7, 77488, Note_off_c, 2, 52, 64
7, 77572, Note_on_c, 2, 52, 126
7, 78326, Note_off_c, 2, 52, 64
7, 78344, Note_on_c, 2, 54, 120
7, 78979, Note_off_c, 2, 54, 64
7, 79097, Note_on_c, 2, 47, 117
7, 79427, Note_off_c, 2, 47, 64
7, 79470, Note_on_c, 2, 47, 109
7, 79560, Note_on_c, 2, 49, 108
7, 79588, Note_off_c, 2, 47, 64
7, 79646, Note_off_c, 2, 49, 64
7, 79651, Note_on_c, 2, 52, 117
7, 79718, Note_off_c, 2, 52, 64
7, 79769, Note_on_c, 2, 54, 127
7, 79904, Note_off_c, 2, 54, 64
7, 79947, Note_on_c, 2, 54, 127
7, 80089, Note_off_c, 2, 54, 64
7, 80142, Note_on_c, 2, 54, 124
7, 80176, Note_off_c, 2, 54, 64
7, 80241, Note_on_c, 2, 54, 127
7, 80380, Note_off_c, 2, 54, 64
7, 80438, Note_on_c, 2, 54, 126
7, 80585, Note_off_c, 2, 54, 64
7, 80633, Note_on_c, 2, 52, 127
7, 81009, Note_off_c, 2, 52, 64
7, 81048, Note_on_c, 2, 52, 120
7, 81100, Note_off_c, 2, 52, 64
7, 81139, Note_on_c, 2, 52, 114
7, 81182, Note_off_c, 2, 52, 64
7, 81228, Note_on_c, 2, 52, 117
7, 81276, Note_off_c, 2, 52, 64
7, 81320, Note_on_c, 2, 54, 122
7, 81654, Note_off_c, 2, 54, 64
7, 81700, Note_on_c, 2, 54, 116
7, 81744, Note_off_c, 2, 54, 64
7, 81796, Note_on_c, 2, 56, 122
7, 81972, Note_on_c, 2, 54, 120
7, 81977, Note_off_c, 2, 56, 64
7, 82177, Note_on_c, 2, 47, 121
7, 82182, Note_off_c, 2, 54, 64
7, 82502, Note_off_c, 2, 47, 64
7, 82545, Note_on_c, 2, 47, 114
7, 82644, Note_on_c, 2, 49, 124
7, 82659, Note_off_c, 2, 47, 64
7, 82726, Note_off_c, 2, 49, 64
7, 82736, Note_on_c, 2, 52, 120
7, 82788, Note_off_c, 2, 52, 64
7, 82832, Note_on_c, 2, 54, 127
7, 82979, Note_off_c, 2, 54, 64
7, 83017, Note_on_c, 2, 54, 127
7, 83179, Note_off_c, 2, 54, 64
7, 83222, Note_on_c, 2, 54, 124
7, 83260, Note_off_c, 2, 54, 64
7, 83318, Note_on_c, 2, 54, 122
7, 83460, Note_off_c, 2, 54, 64
7, 83499, Note_on_c, 2, 54, 120
7, 83660, Note_off_c, 2, 54, 64
7, 83694, Note_on_c, 2, 52, 117
7, 84043, Note_off_c, 2, 52, 64
7, 84080, Note_on_c, 2, 52, 114
7, 84147, Note_off_c, 2, 52, 64
7, 84176, Note_on_c, 2, 52, 114
7, 84323, Note_off_c, 2, 52, 64
7, 84356, Note_on_c, 2, 54, 127
7, 84705, Note_off_c, 2, 54, 64
7, 84739, Note_on_c, 2, 54, 121
7, 84790, Note_off_c, 2, 54, 64
7, 84843, Note_on_c, 2, 56, 124
7, 85028, Note_off_c, 2, 56, 64
7, 85028, Note_on_c, 2, 54, 124
7, 85241, Note_on_c, 2, 47, 117
7, 85248, Note_off_c, 2, 54, 64
7, 85571, Note_off_c, 2, 47, 64
7, 85614, Note_on_c, 2, 47, 109
7, 85704, Note_on_c, 2, 49, 108
7, 85732, Note_off_c, 2, 47, 64
7, 85790, Note_off_c, 2, 49, 64
7, 85795, Note_on_c, 2, 52, 117
7, 85862, Note_off_c, 2, 52, 64
7, 85913, Note_on_c, 2, 54, 127
7, 86048, Note_off_c, 2, 54, 64
7, 86091, Note_on_c, 2, 54, 127
7, 86233, Note_off_c, 2, 54, 64
7, 86286, Note_on_c, 2, 54, 124
7, 86320, Note_off_c, 2, 54, 64
7, 86385, Note_on_c, 2, 54, 127
7, 86524, Note_off_c, 2, 54, 64
7, 86582, Note_on_c, 2, 54, 126
7, 86729, Note_off_c, 2, 54, 64
7, 86777, Note_on_c, 2, 52, 127
7, 87153, Note_off_c, 2, 52, 64
7, 87192, Note_on_c, 2, 52, 120
7, 87244, Note_off_c, 2, 52, 64
7, 87283, Note_on_c, 2, 52, 114
7, 87326, Note_off_c, 2, 52, 64
7, 87372, Note_on_c, 2, 52, 117
7, 87420, Note_off_c, 2, 52, 64
7, 87464, Note_on_c, 2, 54, 122
7, 87798, Note_off_c, 2, 54, 64
7, 87844, Note_on_c, 2, 54, 116
7, 87888, Note_off_c, 2, 54, 64
7, 87940, Note_on_c, 2, 56, 122
7, 88116, Note_on_c, 2, 54, 120
7, 88121, Note_off_c, 2, 56, 64
7, 88321, Note_on_c, 2, 47, 121
7, 88326, Note_off_c, 2, 54, 64
7, 88646, Note_off_c, 2, 47, 64
7, 88689, Note_on_c, 2, 47, 114
7, 88788, Note_on_c, 2, 49, 124
7, 88803, Note_off_c, 2, 47, 64
7, 88870, Note_off_c, 2, 49, 64
7, 88880, Note_on_c, 2, 52, 120
7, 88932, Note_off_c, 2, 52, 64
7, 88976, Note_on_c, 2, 54, 127
7, 89123, Note_off_c, 2, 54, 64
7, 89161, Note_on_c, 2, 54, 127
7, 89323, Note_off_c, 2, 54, 64
7, 89366, Note_on_c, 2, 54, 124
7, 89404, Note_off_c, 2, 54, 64
7, 89462, Note_on_c, 2, 54, 122
7, 89604, Note_off_c, 2, 54, 64
7, 89643, Note_on_c, 2, 54, 120
7, 89804, Note_off_c, 2, 54, 64
7, 89838, Note_on_c, 2, 52, 117
7, 90187, Note_off_c, 2, 52, 64
7, 90224, Note_on_c, 2, 52, 114
7, 90291, Note_off_c, 2, 52, 64
7, 90320, Note_on_c, 2, 52, 114
7, 90467, Note_off_c, 2, 52, 64
7, 90500, Note_on_c, 2, 54, 127
7, 90849, Note_off_c, 2, 54, 64
7, 90883, Note_on_c, 2, 54, 121
7, 90934, Note_off_c, 2, 54, 64
7, 90987, Note_on_c, 2, 56, 124
7, 91172, Note_off_c, 2, 56, 64
7, 91172, Note_on_c, 2, 54, 124
7, 91392, Note_off_c, 2, 54, 64
7, 91392, End_track
8, 0, Start_track
8, 0, Title_t, "LEAD GTR"
8, 0, Channel_prefix, 3
8, 0, Control_c, 3, 7, 100
8, 0, Control_c, 3, 10, 125
8, 0, Program_c, 3, 27
8, 1129, Note_on_c, 3, 59, 92
8, 1224, Note_on_c, 3, 61, 121
8, 1252, Note_off_c, 3, 59, 64
8, 1315, Note_off_c, 3, 61, 64
8, 1315, Note_on_c, 3, 64, 101
8, 1377, Note_off_c, 3, 64, 64
8, 1406, Note_on_c, 3, 66, 127
8, 2307, Note_off_c, 3, 66, 64
8, 2307, Note_on_c, 3, 64, 111
8, 2644, Note_off_c, 3, 64, 64
8, 2692, Note_on_c, 3, 64, 91
8, 2760, Note_off_c, 3, 64, 64
8, 2784, Note_on_c, 3, 66, 122
8, 2836, Note_off_c, 3, 66, 64
8, 2868, Note_on_c, 3, 64, 111
8, 2940, Note_off_c, 3, 64, 64
8, 2969, Note_on_c, 3, 66, 124
8, 3340, Note_on_c, 3, 64, 92
8, 3350, Note_off_c, 3, 66, 64
8, 3422, Note_off_c, 3, 64, 64
8, 3446, Note_on_c, 3, 68, 120
8, 3641, Note_on_c, 3, 66, 121
8, 3660, Note_off_c, 3, 68, 64
8, 3737, Note_on_c, 3, 64, 108
8, 3752, Note_off_c, 3, 66, 64
8, 3827, Note_off_c, 3, 64, 64
8, 3846, Note_on_c, 3, 59, 121
8, 3971, Note_off_c, 3, 59, 64
8, 4024, Note_on_c, 3, 59, 109
8, 4185, Note_off_c, 3, 59, 64
8, 4214, Note_on_c, 3, 59, 108
8, 4313, Note_on_c, 3, 61, 99
8, 4332, Note_off_c, 3, 59, 64
8, 4395, Note_off_c, 3, 61, 64
8, 4400, Note_on_c, 3, 64, 92
8, 4496, Note_off_c, 3, 64, 64
8, 4510, Note_on_c, 3, 66, 127
8, 5758, Note_on_c, 3, 64, 92
8, 5763, Note_off_c, 3, 66, 64
8, 5830, Note_off_c, 3, 64, 64
8, 5840, Note_on_c, 3, 66, 127
8, 5936, Note_off_c, 3, 66, 64
8, 5945, Note_on_c, 3, 64, 117
8, 6016, Note_off_c, 3, 64, 64
8, 6016, Note_on_c, 3, 66, 121
8, 6417, Note_on_c, 3, 64, 89
8, 6435, Note_off_c, 3, 66, 64
8, 6502, Note_off_c, 3, 64, 64
8, 6521, Note_on_c, 3, 68, 124
8, 6702, Note_on_c, 3, 66, 124
8, 6721, Note_off_c, 3, 68, 64
8, 6803, Note_off_c, 3, 66, 64
8, 6817, Note_on_c, 3, 64, 87
8, 6880, Note_off_c, 3, 64, 64
8, 6921, Note_on_c, 3, 64, 122
8, 7036, Note_off_c, 3, 64, 64
8, 25352, Note_on_c, 3, 52, 124
8, 25352, Note_on_c, 3, 45, 127
8, 26067, Note_off_c, 3, 52, 64
8, 26072, Note_off_c, 3, 45, 64
8, 26115, Note_on_c, 3, 54, 127
8, 26124, Note_on_c, 3, 47, 121
8, 26744, Note_off_c, 3, 47, 64
8, 26758, Note_off_c, 3, 54, 64
8, 26878, Note_on_c, 3, 40, 96
8, 26888, Note_on_c, 3, 47, 92
8, 27531, Note_off_c, 3, 47, 64
8, 27555, Note_off_c, 3, 40, 64
8, 27660, Note_on_c, 3, 52, 121
8, 27660, Note_on_c, 3, 45, 121
8, 28318, Note_off_c, 3, 45, 64
8, 28332, Note_off_c, 3, 52, 64
8, 28427, Note_on_c, 3, 52, 124
8, 28436, Note_on_c, 3, 45, 124
8, 29132, Note_off_c, 3, 52, 64
8, 29137, Note_off_c, 3, 45, 64
8, 29195, Note_on_c, 3, 54, 127
8, 29200, Note_on_c, 3, 47, 114
8, 29838, Note_off_c, 3, 47, 64
8, 29838, Note_off_c, 3, 54, 64
8, 29953, Note_on_c, 3, 47, 93
8, 29958, Note_on_c, 3, 40, 96
8, 30659, Note_off_c, 3, 40, 64
8, 30668, Note_off_c, 3, 47, 64
8, 30731, Note_on_c, 3, 45, 121
8, 30731, Note_on_c, 3, 52, 122
8, 31379, Note_off_c, 3, 45, 64
8, 31398, Note_off_c, 3, 52, 64
8, 31497, Note_on_c, 3, 52, 124
8, 31497, Note_on_c, 3, 45, 121
8, 32217, Note_off_c, 3, 52, 64
8, 32227, Note_off_c, 3, 45, 64
8, 32265, Note_on_c, 3, 54, 127
8, 32270, Note_on_c, 3, 47, 117
8, 32971, Note_off_c, 3, 47, 64
8, 32980, Note_off_c, 3, 54, 64
8, 33385, Note_on_c, 3, 59, 92
8, 33480, Note_on_c, 3, 61, 121
8, 33508, Note_off_c, 3, 59, 64
8, 33571, Note_off_c, 3, 61, 64
8, 33571, Note_on_c, 3, 64, 101
8, 33633, Note_off_c, 3, 64, 64
8, 33662, Note_on_c, 3, 66, 127
8, 34563, Note_off_c, 3, 66, 64
8, 34563, Note_on_c, 3, 64, 111
8, 34900, Note_off_c, 3, 64, 64
8, 34948, Note_on_c, 3, 64, 91
8, 35016, Note_off_c, 3, 64, 64
8, 35040, Note_on_c, 3, 66, 122
8, 35092, Note_off_c, 3, 66, 64
8, 35124, Note_on_c, 3, 64, 111
8, 35196, Note_off_c, 3, 64, 64
8, 35225, Note_on_c, 3, 66, 124
8, 35596, Note_on_c, 3, 64, 92
8, 35606, Note_off_c, 3, 66, 64
8, 35678, Note_off_c, 3, 64, 64
8, 35702, Note_on_c, 3, 68, 120
8, 35897, Note_on_c, 3, 66, 121
8, 35916, Note_off_c, 3, 68, 64
8, 35993, Note_on_c, 3, 64, 108
8, 36008, Note_off_c, 3, 66, 64
8, 36083, Note_off_c, 3, 64, 64
8, 36102, Note_on_c, 3, 59, 121
8, 36227, Note_off_c, 3, 59, 64
8, 36280, Note_on_c, 3, 59, 109
8, 36441, Note_off_c, 3, 59, 64
8, 36470, Note_on_c, 3, 59, 108
8, 36569, Note_on_c, 3, 61, 99
8, 36588, Note_off_c, 3, 59, 64
8, 36651, Note_off_c, 3, 61, 64
8, 36656, Note_on_c, 3, 64, 92
8, 36752, Note_off_c, 3, 64, 64
8, 36766, Note_on_c, 3, 66, 127
8, 38014, Note_on_c, 3, 64, 92
8, 38019, Note_off_c, 3, 66, 64
8, 38086, Note_off_c, 3, 64, 64
8, 38096, Note_on_c, 3, 66, 127
8, 38192, Note_off_c, 3, 66, 64
8, 38201, Note_on_c, 3, 64, 117
8, 38272, Note_off_c, 3, 64, 64
8, 38272, Note_on_c, 3, 66, 121
8, 38673, Note_on_c, 3, 64, 89
8, 38691, Note_off_c, 3, 66, 64
8, 38758, Note_off_c, 3, 64, 64
8, 38777, Note_on_c, 3, 68, 124
8, 38958, Note_on_c, 3, 66, 124
8, 38977, Note_off_c, 3, 68, 64
8, 39059, Note_off_c, 3, 66, 64
8, 39073, Note_on_c, 3, 64, 87
8, 39136, Note_off_c, 3, 64, 64
8, 39177, Note_on_c, 3, 64, 122
8, 39292, Note_off_c, 3, 64, 64
8, 51464, Note_on_c, 3, 52, 124
8, 51464, Note_on_c, 3, 45, 127
8, 52179, Note_off_c, 3, 52, 64
8, 52184, Note_off_c, 3, 45, 64
8, 52227, Note_on_c, 3, 54, 127
8, 52236, Note_on_c, 3, 47, 121
8, 52856, Note_off_c, 3, 47, 64
8, 52870, Note_off_c, 3, 54, 64
8, 52990, Note_on_c, 3, 40, 96
8, 53000, Note_on_c, 3, 47, 92
8, 53643, Note_off_c, 3, 47, 64
8, 53667, Note_off_c, 3, 40, 64
8, 53772, Note_on_c, 3, 52, 121
8, 53772, Note_on_c, 3, 45, 121
8, 54430, Note_off_c, 3, 45, 64
8, 54444, Note_off_c, 3, 52, 64
8, 54539, Note_on_c, 3, 52, 124
8, 54548, Note_on_c, 3, 45, 124
8, 55244, Note_off_c, 3, 52, 64
8, 55249, Note_off_c, 3, 45, 64
8, 55307, Note_on_c, 3, 54, 127
8, 55312, Note_on_c, 3, 47, 114
8, 55950, Note_off_c, 3, 47, 64
8, 55950, Note_off_c, 3, 54, 64
8, 56065, Note_on_c, 3, 47, 93
8, 56070, Note_on_c, 3, 40, 96
8, 56771, Note_off_c, 3, 40, 64
8, 56780, Note_off_c, 3, 47, 64
8, 56843, Note_on_c, 3, 45, 121
8, 56843, Note_on_c, 3, 52, 122
8, 57491, Note_off_c, 3, 45, 64
8, 57510, Note_off_c, 3, 52, 64
8, 57609, Note_on_c, 3, 52, 124
8, 57609, Note_on_c, 3, 45, 121
8, 58329, Note_off_c, 3, 52, 64
8, 58339, Note_off_c, 3, 45, 64
8, 58377, Note_on_c, 3, 54, 127
8, 58382, Note_on_c, 3, 47, 117
8, 59083, Note_off_c, 3, 47, 64
8, 59092, Note_off_c, 3, 54, 64
8, 59342, Note_on_c, 3, 56, 127
8, 59374, Note_off_c, 3, 56, 64
8, 59433, Note_on_c, 3, 56, 126
8, 59475, Note_off_c, 3, 56, 64
8, 59712, Note_on_c, 3, 56, 127
8, 59748, Note_off_c, 3, 56, 64
8, 60110, Note_on_c, 3, 51, 127
8, 60142, Note_off_c, 3, 51, 64
8, 60193, Note_on_c, 3, 51, 127
8, 60238, Note_off_c, 3, 51, 64
8, 60486, Note_on_c, 3, 51, 127
8, 60526, Note_off_c, 3, 51, 64
8, 60875, Note_on_c, 3, 52, 124
8, 60912, Note_off_c, 3, 52, 64
8, 60971, Note_on_c, 3, 52, 122
8, 61008, Note_off_c, 3, 52, 64
8, 61244, Note_on_c, 3, 52, 122
8, 61281, Note_off_c, 3, 52, 64
8, 61630, Note_on_c, 3, 52, 124
8, 61667, Note_off_c, 3, 52, 64
8, 61734, Note_on_c, 3, 52, 124
8, 61776, Note_off_c, 3, 52, 64
8, 62019, Note_on_c, 3, 52, 122
8, 62060, Note_off_c, 3, 52, 64
8, 62398, Note_on_c, 3, 56, 127
8, 62435, Note_off_c, 3, 56, 64
8, 62504, Note_on_c, 3, 56, 126
8, 62540, Note_off_c, 3, 56, 64
8, 62787, Note_on_c, 3, 56, 126
8, 62828, Note_off_c, 3, 56, 64
8, 63176, Note_on_c, 3, 51, 127
8, 63217, Note_off_c, 3, 51, 64
8, 63272, Note_on_c, 3, 51, 126
8, 63313, Note_off_c, 3, 51, 64
8, 63564, Note_on_c, 3, 51, 127
8, 63601, Note_off_c, 3, 51, 64
8, 63936, Note_on_c, 3, 52, 122
8, 63977, Note_off_c, 3, 52, 64
8, 64041, Note_on_c, 3, 52, 124
8, 64083, Note_off_c, 3, 52, 64
8, 64316, Note_on_c, 3, 52, 124
8, 64356, Note_off_c, 3, 52, 64
8, 64512, Note_on_c, 3, 52, 127
8, 64540, Note_off_c, 3, 52, 64
8, 64558, Note_on_c, 3, 52, 124
8, 64600, Note_off_c, 3, 52, 64
8, 64604, Note_on_c, 3, 52, 124
8, 64636, Note_off_c, 3, 52, 64
8, 64659, Note_on_c, 3, 52, 127
8, 64668, Note_on_c, 3, 50, 121
8, 64670, Note_off_c, 3, 50, 64
8, 64696, Note_off_c, 3, 52, 64
8, 64705, Note_on_c, 3, 52, 126
8, 64745, Note_off_c, 3, 52, 64
8, 71432, Note_on_c, 3, 52, 124
8, 71432, Note_on_c, 3, 45, 127
8, 72147, Note_off_c, 3, 52, 64
8, 72152, Note_off_c, 3, 45, 64
8, 72195, Note_on_c, 3, 54, 127
8, 72204, Note_on_c, 3, 47, 121
8, 72824, Note_off_c, 3, 47, 64
8, 72838, Note_off_c, 3, 54, 64
8, 72958, Note_on_c, 3, 40, 96
8, 72968, Note_on_c, 3, 47, 92
8, 73611, Note_off_c, 3, 47, 64
8, 73635, Note_off_c, 3, 40, 64
8, 73740, Note_on_c, 3, 52, 121
8, 73740, Note_on_c, 3, 45, 121
8, 74398, Note_off_c, 3, 45, 64
8, 74412, Note_off_c, 3, 52, 64
8, 74507, Note_on_c, 3, 52, 124
8, 74516, Note_on_c, 3, 45, 124
8, 75212, Note_off_c, 3, 52, 64
8, 75217, Note_off_c, 3, 45, 64
8, 75275, Note_on_c, 3, 54, 127
8, 75280, Note_on_c, 3, 47, 114
8, 75918, Note_off_c, 3, 47, 64
8, 75918, Note_off_c, 3, 54, 64
8, 76033, Note_on_c, 3, 47, 93
8, 76038, Note_on_c, 3, 40, 96
8, 76739, Note_off_c, 3, 40, 64
8, 76748, Note_off_c, 3, 47, 64
8, 76811, Note_on_c, 3, 45, 121
8, 76811, Note_on_c, 3, 52, 122
8, 77459, Note_off_c, 3, 45, 64
8, 77478, Note_off_c, 3, 52, 64
8, 77577, Note_on_c, 3, 52, 124
8, 77577, Note_on_c, 3, 45, 121
8, 78297, Note_off_c, 3, 52, 64
8, 78307, Note_off_c, 3, 45, 64
8, 78345, Note_on_c, 3, 54, 127
8, 78350, Note_on_c, 3, 47, 117
8, 79051, Note_off_c, 3, 47, 64
8, 79060, Note_off_c, 3, 54, 64
8, 79488, Note_on_c, 3, 59, 74
8, 79568, Note_on_c, 3, 61, 106
8, 79600, Note_off_c, 3, 59, 64
8, 79667, Note_on_c, 3, 64, 101
8, 79680, Note_off_c, 3, 61, 64
8, 79732, Note_off_c, 3, 64, 64
8, 79764, Note_on_c, 3, 66, 127
8, 80984, Note_off_c, 3, 66, 64
8, 81025, Note_on_c, 3, 64, 96
8, 81086, Note_off_c, 3, 64, 64
8, 81124, Note_on_c, 3, 66, 121
8, 81166, Note_off_c, 3, 66, 64
8, 81224, Note_on_c, 3, 64, 108
8, 81280, Note_off_c, 3, 64, 64
8, 81321, Note_on_c, 3, 66, 127
8, 81684, Note_on_c, 3, 64, 88
8, 81689, Note_off_c, 3, 66, 64
8, 81760, Note_off_c, 3, 64, 64
8, 81787, Note_on_c, 3, 68, 122
8, 81976, Note_on_c, 3, 66, 127
8, 82000, Note_off_c, 3, 68, 64
8, 82041, Note_off_c, 3, 66, 64
8, 82075, Note_on_c, 3, 64, 99
8, 82131, Note_off_c, 3, 64, 64
8, 82174, Note_on_c, 3, 64, 116
8, 82521, Note_off_c, 3, 64, 64
8, 82540, Note_on_c, 3, 59, 79
8, 82640, Note_on_c, 3, 61, 121
8, 82662, Note_off_c, 3, 59, 64
8, 82724, Note_on_c, 3, 64, 103
8, 82728, Note_off_c, 3, 61, 64
8, 82790, Note_off_c, 3, 64, 64
8, 82832, Note_on_c, 3, 66, 126
8, 84068, Note_off_c, 3, 66, 64
8, 84088, Note_on_c, 3, 64, 84
8, 84158, Note_off_c, 3, 64, 64
8, 84187, Note_on_c, 3, 66, 122
8, 84233, Note_off_c, 3, 66, 64
8, 84267, Note_on_c, 3, 64, 108
8, 84332, Note_off_c, 3, 64, 64
8, 84366, Note_on_c, 3, 66, 124
8, 84756, Note_on_c, 3, 64, 77
8, 84761, Note_off_c, 3, 66, 64
8, 84836, Note_off_c, 3, 64, 64
8, 84859, Note_on_c, 3, 68, 124
8, 85038, Note_on_c, 3, 66, 124
8, 85057, Note_off_c, 3, 68, 64
8, 85113, Note_off_c, 3, 66, 64
8, 85132, Note_on_c, 3, 64, 111
8, 85188, Note_off_c, 3, 64, 64
8, 85235, Note_on_c, 3, 64, 117
8, 85593, Note_off_c, 3, 64, 64
8, 85622, Note_on_c, 3, 59, 81
8, 85720, Note_on_c, 3, 61, 81
8, 85753, Note_off_c, 3, 59, 64
8, 85804, Note_off_c, 3, 61, 64
8, 85804, Note_on_c, 3, 64, 99
8, 85865, Note_off_c, 3, 64, 64
8, 85894, Note_on_c, 3, 66, 124
8, 87179, Note_off_c, 3, 66, 64
8, 87184, Note_on_c, 3, 64, 83
8, 87249, Note_off_c, 3, 64, 64
8, 87286, Note_on_c, 3, 66, 122
8, 87352, Note_off_c, 3, 66, 64
8, 87371, Note_on_c, 3, 64, 111
8, 87432, Note_off_c, 3, 64, 64
8, 87460, Note_on_c, 3, 66, 124
8, 87846, Note_on_c, 3, 64, 108
8, 87856, Note_off_c, 3, 66, 64
8, 87921, Note_off_c, 3, 64, 64
8, 87950, Note_on_c, 3, 68, 122
8, 88124, Note_on_c, 3, 66, 124
8, 88137, Note_off_c, 3, 68, 64
8, 88204, Note_off_c, 3, 66, 64
8, 88227, Note_on_c, 3, 64, 117
8, 88275, Note_off_c, 3, 64, 64
8, 88326, Note_on_c, 3, 64, 116
8, 88684, Note_off_c, 3, 64, 64
8, 88702, Note_on_c, 3, 59, 89
8, 88796, Note_on_c, 3, 61, 120
8, 88820, Note_off_c, 3, 59, 64
8, 88876, Note_off_c, 3, 61, 64
8, 88881, Note_on_c, 3, 64, 101
8, 88952, Note_off_c, 3, 64, 64
8, 88980, Note_on_c, 3, 66, 126
8, 90227, Note_off_c, 3, 66, 64
8, 90241, Note_on_c, 3, 64, 74
8, 90312, Note_off_c, 3, 64, 64
8, 90326, Note_on_c, 3, 66, 124
8, 90387, Note_off_c, 3, 66, 64
8, 90409, Note_on_c, 3, 64, 117
8, 90481, Note_off_c, 3, 64, 64
8, 90513, Note_on_c, 3, 66, 127
8, 90913, Note_on_c, 3, 64, 89
8, 90923, Note_off_c, 3, 66, 64
8, 90993, Note_off_c, 3, 64, 64
8, 91008, Note_on_c, 3, 68, 116
8, 91187, Note_on_c, 3, 66, 124
8, 91195, Note_off_c, 3, 68, 64
8, 91262, Note_off_c, 3, 66, 64
8, 91275, Note_on_c, 3, 64, 114
8, 91328, Note_off_c, 3, 64, 64
8, 91388, Note_on_c, 3, 64, 121
8, 91459, Note_off_c, 3, 64, 64
8, 91459, End_track
9, 0, Start_track
9, 0, Title_t, "LEAD GTR"
9, 0, Channel_prefix, 4
9, 0, Control_c, 4, 7, 100
9, 0, Control_c, 4, 10, 0
9, 0, Program_c, 4, 27
9, 1129, Note_on_c, 4, 59, 92
9, 1224, Note_on_c, 4, 61, 121
9, 1252, Note_off_c, 4, 59, 64
9, 1315, Note_off_c, 4, 61, 64
9, 1315, Note_on_c, 4, 64, 101
9, 1377, Note_off_c, 4, 64, 64
9, 1406, Note_on_c, 4, 66, 127
9, 2307, Note_off_c, 4, 66, 64
9, 2307, Note_on_c, 4, 64, 111
9, 2644, Note_off_c, 4, 64, 64
9, 2692, Note_on_c, 4, 64, 91
9, 2760, Note_off_c, 4, 64, 64
9, 2784, Note_on_c, 4, 66, 122
9, 2836, Note_off_c, 4, 66, 64
9, 2868, Note_on_c, 4, 64, 111
9, 2940, Note_off_c, 4, 64, 64
9, 2969, Note_on_c, 4, 66, 124
9, 3340, Note_on_c, 4, 64, 92
9, 3350, Note_off_c, 4, 66, 64
9, 3422, Note_off_c, 4, 64, 64
9, 3446, Note_on_c, 4, 68, 120
9, 3641, Note_on_c, 4, 66, 121
9, 3660, Note_off_c, 4, 68, 64
9, 3737, Note_on_c, 4, 64, 108
9, 3752, Note_off_c, 4, 66, 64
9, 3827, Note_off_c, 4, 64, 64
9, 3846, Note_on_c, 4, 59, 121
9, 3971, Note_off_c, 4, 59, 64
9, 4024, Note_on_c, 4, 59, 109
9, 4185, Note_off_c, 4, 59, 64
9, 4214, Note_on_c, 4, 59, 108
9, 4313, Note_on_c, 4, 61, 99
9, 4332, Note_off_c, 4, 59, 64
9, 4395, Note_off_c, 4, 61, 64
9, 4400, Note_on_c, 4, 64, 92
9, 4496, Note_off_c, 4, 64, 64
9, 4510, Note_on_c, 4, 66, 127
9, 5758, Note_on_c, 4, 64, 92
9, 5763, Note_off_c, 4, 66, 64
9, 5830, Note_off_c, 4, 64, 64
9, 5840, Note_on_c, 4, 66, 127
9, 5936, Note_off_c, 4, 66, 64
9, 5945, Note_on_c, 4, 64, 117
9, 6016, Note_off_c, 4, 64, 64
9, 6016, Note_on_c, 4, 66, 121
9, 6417, Note_on_c, 4, 64, 89
9, 6435, Note_off_c, 4, 66, 64
9, 6502, Note_off_c, 4, 64, 64
9, 6521, Note_on_c, 4, 68, 124
9, 6702, Note_on_c, 4, 66, 124
9, 6721, Note_off_c, 4, 68, 64
9, 6803, Note_off_c, 4, 66, 64
9, 6817, Note_on_c, 4, 64, 87
9, 6880, Note_off_c, 4, 64, 64
9, 6921, Note_on_c, 4, 64, 122
9, 7036, Note_off_c, 4, 64, 64
9, 25537, Note_on_c, 4, 57, 109
9, 25643, Note_on_c, 4, 61, 127
9, 25652, Note_off_c, 4, 57, 64
9, 25900, Note_on_c, 4, 57, 106
9, 25910, Note_off_c, 4, 61, 64
9, 26004, Note_off_c, 4, 57, 64
9, 26004, Note_on_c, 4, 52, 121
9, 26305, Note_on_c, 4, 59, 103
9, 26334, Note_off_c, 4, 52, 64
9, 26396, Note_off_c, 4, 59, 64
9, 26411, Note_on_c, 4, 63, 127
9, 26688, Note_on_c, 4, 59, 99
9, 26692, Note_off_c, 4, 63, 64
9, 26796, Note_on_c, 4, 54, 127
9, 26811, Note_off_c, 4, 59, 64
9, 27064, Note_off_c, 4, 54, 64
9, 27088, Note_on_c, 4, 56, 117
9, 27179, Note_on_c, 4, 59, 121
9, 27193, Note_off_c, 4, 56, 64
9, 27464, Note_on_c, 4, 52, 106
9, 27488, Note_off_c, 4, 59, 64
9, 27841, Note_on_c, 4, 57, 98
9, 27856, Note_off_c, 4, 52, 64
9, 27936, Note_off_c, 4, 57, 64
9, 27945, Note_on_c, 4, 61, 127
9, 28212, Note_on_c, 4, 57, 87
9, 28227, Note_off_c, 4, 61, 64
9, 28313, Note_off_c, 4, 57, 64
9, 28318, Note_on_c, 4, 52, 116
9, 28627, Note_on_c, 4, 57, 93
9, 28651, Note_off_c, 4, 52, 64
9, 28718, Note_on_c, 4, 61, 127
9, 28723, Note_off_c, 4, 57, 64
9, 28995, Note_off_c, 4, 61, 64
9, 28995, Note_on_c, 4, 57, 114
9, 29339, Note_off_c, 4, 57, 64
9, 29395, Note_on_c, 4, 59, 111
9, 29481, Note_off_c, 4, 59, 64
9, 29486, Note_on_c, 4, 63, 126
9, 29758, Note_on_c, 4, 59, 108
9, 29772, Note_off_c, 4, 63, 64
9, 29862, Note_on_c, 4, 54, 126
9, 29872, Note_off_c, 4, 59, 64
9, 30153, Note_on_c, 4, 56, 114
9, 30177, Note_off_c, 4, 54, 64
9, 30264, Note_off_c, 4, 56, 64
9, 30264, Note_on_c, 4, 59, 124
9, 30548, Note_on_c, 4, 52, 117
9, 30568, Note_off_c, 4, 59, 64
9, 30736, Note_on_c, 4, 59, 124
9, 30825, Note_off_c, 4, 52, 64
9, 31486, Note_on_c, 4, 57, 91
9, 31486, Note_on_c, 4, 61, 114
9, 31488, Note_off_c, 4, 59, 64
9, 31488, Note_on_c, 4, 52, 120
9, 32192, Note_off_c, 4, 57, 64
9, 32206, Note_off_c, 4, 61, 64
9, 32278, Note_on_c, 4, 63, 117
9, 32278, Note_on_c, 4, 59, 85
9, 32371, Note_off_c, 4, 52, 64
9, 32988, Note_off_c, 4, 59, 64
9, 32998, Note_off_c, 4, 63, 64
9, 33385, Note_on_c, 4, 59, 92
9, 33480, Note_on_c, 4, 61, 121
9, 33508, Note_off_c, 4, 59, 64
9, 33571, Note_off_c, 4, 61, 64
9, 33571, Note_on_c, 4, 64, 101
9, 33633, Note_off_c, 4, 64, 64
9, 33662, Note_on_c, 4, 66, 127
9, 34563, Note_off_c, 4, 66, 64
9, 34563, Note_on_c, 4, 64, 111
9, 34900, Note_off_c, 4, 64, 64
9, 34948, Note_on_c, 4, 64, 91
9, 35016, Note_off_c, 4, 64, 64
9, 35040, Note_on_c, 4, 66, 122
9, 35092, Note_off_c, 4, 66, 64
9, 35124, Note_on_c, 4, 64, 111
9, 35196, Note_off_c, 4, 64, 64
9, 35225, Note_on_c, 4, 66, 124
9, 35596, Note_on_c, 4, 64, 92
9, 35606, Note_off_c, 4, 66, 64
9, 35678, Note_off_c, 4, 64, 64
9, 35702, Note_on_c, 4, 68, 120
9, 35897, Note_on_c, 4, 66, 121
9, 35916, Note_off_c, 4, 68, 64
9, 35993, Note_on_c, 4, 64, 108
9, 36008, Note_off_c, 4, 66, 64
9, 36083, Note_off_c, 4, 64, 64
9, 36102, Note_on_c, 4, 59, 121
9, 36227, Note_off_c, 4, 59, 64
9, 36280, Note_on_c, 4, 59, 109
9, 36441, Note_off_c, 4, 59, 64
9, 36470, Note_on_c, 4, 59, 108
9, 36569, Note_on_c, 4, 61, 99
9, 36588, Note_off_c, 4, 59, 64
9, 36651, Note_off_c, 4, 61, 64
9, 36656, Note_on_c, 4, 64, 92
9, 36752, Note_off_c, 4, 64, 64
9, 36766, Note_on_c, 4, 66, 127
9, 38014, Note_on_c, 4, 64, 92
9, 38019, Note_off_c, 4, 66, 64
9, 38086, Note_off_c, 4, 64, 64
9, 38096, Note_on_c, 4, 66, 127
9, 38192, Note_off_c, 4, 66, 64
9, 38201, Note_on_c, 4, 64, 117
9, 38272, Note_off_c, 4, 64, 64
9, 38272, Note_on_c, 4, 66, 121
9, 38673, Note_on_c, 4, 64, 89
9, 38691, Note_off_c, 4, 66, 64
9, 38758, Note_off_c, 4, 64, 64
9, 38777, Note_on_c, 4, 68, 124
9, 38958, Note_on_c, 4, 66, 124
9, 38977, Note_off_c, 4, 68, 64
9, 39059, Note_off_c, 4, 66, 64
9, 39073, Note_on_c, 4, 64, 87
9, 39136, Note_off_c, 4, 64, 64
9, 39177, Note_on_c, 4, 64, 122
9, 39292, Note_off_c, 4, 64, 64
9, 51649, Note_on_c, 4, 57, 109
9, 51755, Note_on_c, 4, 61, 127
9, 51764, Note_off_c, 4, 57, 64
9, 52012, Note_on_c, 4, 57, 106
9, 52022, Note_off_c, 4, 61, 64
9, 52116, Note_off_c, 4, 57, 64
9, 52116, Note_on_c, 4, 52, 121
9, 52417, Note_on_c, 4, 59, 103
9, 52446, Note_off_c, 4, 52, 64
9, 52508, Note_off_c, 4, 59, 64
9, 52523, Note_on_c, 4, 63, 127
9, 52800, Note_on_c, 4, 59, 99
9, 52804, Note_off_c, 4, 63, 64
9, 52908, Note_on_c, 4, 54, 127
9, 52923, Note_off_c, 4, 59, 64
9, 53176, Note_off_c, 4, 54, 64
9, 53200, Note_on_c, 4, 56, 117
9, 53291, Note_on_c, 4, 59, 121
9, 53305, Note_off_c, 4, 56, 64
9, 53576, Note_on_c, 4, 52, 106
9, 53600, Note_off_c, 4, 59, 64
9, 53953, Note_on_c, 4, 57, 98
9, 53968, Note_off_c, 4, 52, 64
9, 54048, Note_off_c, 4, 57, 64
9, 54057, Note_on_c, 4, 61, 127
9, 54324, Note_on_c, 4, 57, 87
9, 54339, Note_off_c, 4, 61, 64
9, 54425, Note_off_c, 4, 57, 64
9, 54430, Note_on_c, 4, 52, 116
9, 54739, Note_on_c, 4, 57, 93
9, 54763, Note_off_c, 4, 52, 64
9, 54830, Note_on_c, 4, 61, 127
9, 54835, Note_off_c, 4, 57, 64
9, 55107, Note_off_c, 4, 61, 64
9, 55107, Note_on_c, 4, 57, 114
9, 55451, Note_off_c, 4, 57, 64
9, 55507, Note_on_c, 4, 59, 111
9, 55593, Note_off_c, 4, 59, 64
9, 55598, Note_on_c, 4, 63, 126
9, 55870, Note_on_c, 4, 59, 108
9, 55884, Note_off_c, 4, 63, 64
9, 55974, Note_on_c, 4, 54, 126
9, 55984, Note_off_c, 4, 59, 64
9, 56265, Note_on_c, 4, 56, 114
9, 56289, Note_off_c, 4, 54, 64
9, 56376, Note_off_c, 4, 56, 64
9, 56376, Note_on_c, 4, 59, 124
9, 56660, Note_on_c, 4, 52, 117
9, 56680, Note_off_c, 4, 59, 64
9, 56848, Note_on_c, 4, 59, 124
9, 56937, Note_off_c, 4, 52, 64
9, 57598, Note_on_c, 4, 57, 91
9, 57598, Note_on_c, 4, 61, 114
9, 57600, Note_off_c, 4, 59, 64
9, 57600, Note_on_c, 4, 52, 120
9, 58304, Note_off_c, 4, 57, 64
9, 58318, Note_off_c, 4, 61, 64
9, 58390, Note_on_c, 4, 63, 117
9, 58390, Note_on_c, 4, 59, 85
9, 58483, Note_off_c, 4, 52, 64
9, 59100, Note_off_c, 4, 59, 64
9, 59110, Note_off_c, 4, 63, 64
9, 59332, Note_on_c, 4, 80, 126
9, 59332, Note_on_c, 4, 61, 126
9, 59364, Note_off_c, 4, 61, 64
9, 59364, Note_off_c, 4, 80, 64
9, 59424, Note_on_c, 4, 80, 127
9, 59424, Note_on_c, 4, 61, 127
9, 59465, Note_off_c, 4, 61, 64
9, 59465, Note_off_c, 4, 80, 64
9, 59721, Note_on_c, 4, 80, 126
9, 59721, Note_on_c, 4, 61, 126
9, 59758, Note_off_c, 4, 61, 64
9, 59758, Note_off_c, 4, 80, 64
9, 60100, Note_on_c, 4, 75, 127
9, 60100, Note_on_c, 4, 56, 127
9, 60137, Note_off_c, 4, 56, 64
9, 60137, Note_off_c, 4, 75, 64
9, 60198, Note_on_c, 4, 75, 127
9, 60198, Note_on_c, 4, 56, 127
9, 60233, Note_off_c, 4, 56, 64
9, 60233, Note_off_c, 4, 75, 64
9, 60491, Note_on_c, 4, 75, 127
9, 60491, Note_on_c, 4, 56, 127
9, 60526, Note_off_c, 4, 56, 64
9, 60526, Note_off_c, 4, 75, 64
9, 60875, Note_on_c, 4, 76, 124
9, 60875, Note_on_c, 4, 57, 124
9, 60907, Note_off_c, 4, 57, 64
9, 60907, Note_off_c, 4, 76, 64
9, 60976, Note_on_c, 4, 76, 127
9, 60976, Note_on_c, 4, 57, 127
9, 61008, Note_off_c, 4, 57, 64
9, 61008, Note_off_c, 4, 76, 64
9, 61249, Note_on_c, 4, 76, 127
9, 61249, Note_on_c, 4, 57, 127
9, 61291, Note_off_c, 4, 57, 64
9, 61291, Note_off_c, 4, 76, 64
9, 61630, Note_on_c, 4, 76, 127
9, 61630, Note_on_c, 4, 57, 127
9, 61667, Note_off_c, 4, 57, 64
9, 61667, Note_off_c, 4, 76, 64
9, 61731, Note_on_c, 4, 76, 127
9, 61731, Note_on_c, 4, 57, 127
9, 61771, Note_off_c, 4, 57, 64
9, 61771, Note_off_c, 4, 76, 64
9, 62024, Note_on_c, 4, 76, 127
9, 62024, Note_on_c, 4, 57, 127
9, 62060, Note_off_c, 4, 57, 64
9, 62060, Note_off_c, 4, 76, 64
9, 62403, Note_on_c, 4, 80, 126
9, 62403, Note_on_c, 4, 61, 126
9, 62430, Note_off_c, 4, 61, 64
9, 62430, Note_off_c, 4, 80, 64
9, 62504, Note_on_c, 4, 80, 127
9, 62504, Note_on_c, 4, 61, 127
9, 62540, Note_off_c, 4, 61, 64
9, 62540, Note_off_c, 4, 80, 64
9, 62811, Note_on_c, 4, 80, 127
9, 62811, Note_on_c, 4, 61, 127
9, 62846, Note_off_c, 4, 61, 64
9, 62846, Note_off_c, 4, 80, 64
9, 63163, Note_on_c, 4, 75, 127
9, 63163, Note_on_c, 4, 56, 127
9, 63195, Note_off_c, 4, 56, 64
9, 63195, Note_off_c, 4, 75, 64
9, 63272, Note_on_c, 4, 75, 127
9, 63272, Note_on_c, 4, 56, 127
9, 63308, Note_off_c, 4, 56, 64
9, 63308, Note_off_c, 4, 75, 64
9, 63561, Note_on_c, 4, 75, 127
9, 63561, Note_on_c, 4, 56, 127
9, 63596, Note_off_c, 4, 56, 64
9, 63596, Note_off_c, 4, 75, 64
9, 63940, Note_on_c, 4, 76, 122
9, 63940, Note_on_c, 4, 57, 122
9, 63968, Note_off_c, 4, 57, 64
9, 63968, Note_off_c, 4, 76, 64
9, 64041, Note_on_c, 4, 76, 124
9, 64041, Note_on_c, 4, 57, 124
9, 64083, Note_off_c, 4, 57, 64
9, 64083, Note_off_c, 4, 76, 64
9, 64334, Note_on_c, 4, 76, 124
9, 64334, Note_on_c, 4, 57, 124
9, 64371, Note_off_c, 4, 57, 64
9, 64371, Note_off_c, 4, 76, 64
9, 64516, Note_on_c, 4, 76, 127
9, 64516, Note_on_c, 4, 57, 127
9, 64548, Note_off_c, 4, 57, 64
9, 64548, Note_off_c, 4, 76, 64
9, 64572, Note_on_c, 4, 76, 122
9, 64572, Note_on_c, 4, 57, 122
9, 64604, Note_off_c, 4, 57, 64
9, 64604, Note_off_c, 4, 76, 64
9, 64612, Note_on_c, 4, 76, 127
9, 64612, Note_on_c, 4, 57, 127
9, 64644, Note_off_c, 4, 57, 64
9, 64644, Note_off_c, 4, 76, 64
9, 64659, Note_on_c, 4, 76, 124
9, 64659, Note_on_c, 4, 57, 124
9, 64696, Note_off_c, 4, 57, 64
9, 64696, Note_off_c, 4, 76, 64
9, 64708, Note_on_c, 4, 76, 127
9, 64708, Note_on_c, 4, 57, 127
9, 64737, Note_off_c, 4, 57, 64
9, 64737, Note_off_c, 4, 76, 64
9, 71617, Note_on_c, 4, 57, 109
9, 71723, Note_on_c, 4, 61, 127
9, 71732, Note_off_c, 4, 57, 64
9, 71980, Note_on_c, 4, 57, 106
9, 71990, Note_off_c, 4, 61, 64
9, 72084, Note_off_c, 4, 57, 64
9, 72084, Note_on_c, 4, 52, 121
9, 72385, Note_on_c, 4, 59, 103
9, 72414, Note_off_c, 4, 52, 64
9, 72476, Note_off_c, 4, 59, 64
9, 72491, Note_on_c, 4, 63, 127
9, 72768, Note_on_c, 4, 59, 99
9, 72772, Note_off_c, 4, 63, 64
9, 72876, Note_on_c, 4, 54, 127
9, 72891, Note_off_c, 4, 59, 64
9, 73144, Note_off_c, 4, 54, 64
9, 73168, Note_on_c, 4, 56, 117
9, 73259, Note_on_c, 4, 59, 121
9, 73273, Note_off_c, 4, 56, 64
9, 73544, Note_on_c, 4, 52, 106
9, 73568, Note_off_c, 4, 59, 64
9, 73921, Note_on_c, 4, 57, 98
9, 73936, Note_off_c, 4, 52, 64
9, 74016, Note_off_c, 4, 57, 64
9, 74025, Note_on_c, 4, 61, 127
9, 74292, Note_on_c, 4, 57, 87
9, 74307, Note_off_c, 4, 61, 64
9, 74393, Note_off_c, 4, 57, 64
9, 74398, Note_on_c, 4, 52, 116
9, 74707, Note_on_c, 4, 57, 93
9, 74731, Note_off_c, 4, 52, 64
9, 74798, Note_on_c, 4, 61, 127
9, 74803, Note_off_c, 4, 57, 64
9, 75075, Note_off_c, 4, 61, 64
9, 75075, Note_on_c, 4, 57, 114
9, 75419, Note_off_c, 4, 57, 64
9, 75475, Note_on_c, 4, 59, 111
9, 75561, Note_off_c, 4, 59, 64
9, 75566, Note_on_c, 4, 63, 126
9, 75838, Note_on_c, 4, 59, 108
9, 75852, Note_off_c, 4, 63, 64
9, 75942, Note_on_c, 4, 54, 126
9, 75952, Note_off_c, 4, 59, 64
9, 76233, Note_on_c, 4, 56, 114
9, 76257, Note_off_c, 4, 54, 64
9, 76344, Note_off_c, 4, 56, 64
9, 76344, Note_on_c, 4, 59, 124
9, 76628, Note_on_c, 4, 52, 117
9, 76648, Note_off_c, 4, 59, 64
9, 76816, Note_on_c, 4, 59, 124
9, 76905, Note_off_c, 4, 52, 64
9, 77566, Note_on_c, 4, 57, 91
9, 77566, Note_on_c, 4, 61, 114
9, 77568, Note_off_c, 4, 59, 64
9, 77568, Note_on_c, 4, 52, 120
9, 78272, Note_off_c, 4, 57, 64
9, 78286, Note_off_c, 4, 61, 64
9, 78358, Note_on_c, 4, 63, 117
9, 78358, Note_on_c, 4, 59, 85
9, 78451, Note_off_c, 4, 52, 64
9, 79068, Note_off_c, 4, 59, 64
9, 79078, Note_off_c, 4, 63, 64
9, 85248, Note_on_c, 4, 66, 124
9, 85248, Note_on_c, 4, 78, 127
9, 85438, Note_off_c, 4, 78, 64
9, 85438, Note_off_c, 4, 66, 64
9, 85440, Note_on_c, 4, 78, 122
9, 85440, Note_on_c, 4, 66, 124
9, 85630, Note_off_c, 4, 66, 64
9, 85630, Note_off_c, 4, 78, 64
9, 85632, Note_on_c, 4, 66, 116
9, 85632, Note_on_c, 4, 78, 124
9, 85822, Note_off_c, 4, 78, 64
9, 85822, Note_off_c, 4, 66, 64
9, 85824, Note_on_c, 4, 78, 121
9, 85824, Note_on_c, 4, 66, 121
9, 86014, Note_off_c, 4, 66, 64
9, 86014, Note_off_c, 4, 78, 64
9, 86016, Note_on_c, 4, 78, 122
9, 86016, Note_on_c, 4, 66, 122
9, 86206, Note_off_c, 4, 66, 64
9, 86206, Note_off_c, 4, 78, 64
9, 86208, Note_on_c, 4, 66, 121
9, 86208, Note_on_c, 4, 78, 121
9, 86398, Note_off_c, 4, 78, 64
9, 86398, Note_off_c, 4, 66, 64
9, 86400, Note_on_c, 4, 78, 121
9, 86400, Note_on_c, 4, 66, 121
9, 86590, Note_off_c, 4, 66, 64
9, 86590, Note_off_c, 4, 78, 64
9, 86592, Note_on_c, 4, 66, 121
9, 86592, Note_on_c, 4, 78, 124
9, 86782, Note_off_c, 4, 78, 64
9, 86782, Note_off_c, 4, 66, 64
9, 86784, Note_on_c, 4, 66, 117
9, 86784, Note_on_c, 4, 78, 127
9, 86974, Note_off_c, 4, 78, 64
9, 86974, Note_off_c, 4, 66, 64
9, 86976, Note_on_c, 4, 78, 120
9, 86976, Note_on_c, 4, 66, 122
9, 87166, Note_off_c, 4, 66, 64
9, 87166, Note_off_c, 4, 78, 64
9, 87168, Note_on_c, 4, 78, 120
9, 87168, Note_on_c, 4, 66, 122
9, 87358, Note_off_c, 4, 66, 64
9, 87358, Note_off_c, 4, 78, 64
9, 87360, Note_on_c, 4, 66, 121
9, 87360, Note_on_c, 4, 78, 126
9, 87550, Note_off_c, 4, 78, 64
9, 87550, Note_off_c, 4, 66, 64
9, 87552, Note_on_c, 4, 66, 114
9, 87552, Note_on_c, 4, 78, 122
9, 87742, Note_off_c, 4, 78, 64
9, 87742, Note_off_c, 4, 66, 64
9, 87744, Note_on_c, 4, 66, 121
9, 87744, Note_on_c, 4, 78, 121
9, 87934, Note_off_c, 4, 78, 64
9, 87934, Note_off_c, 4, 66, 64
9, 87936, Note_on_c, 4, 66, 117
9, 87936, Note_on_c, 4, 78, 120
9, 88126, Note_off_c, 4, 78, 64
9, 88126, Note_off_c, 4, 66, 64
9, 88128, Note_on_c, 4, 66, 120
9, 88128, Note_on_c, 4, 78, 116
9, 88318, Note_off_c, 4, 78, 64
9, 88318, Note_off_c, 4, 66, 64
9, 88320, Note_on_c, 4, 66, 122
9, 88320, Note_on_c, 4, 78, 121
9, 88510, Note_off_c, 4, 78, 64
9, 88510, Note_off_c, 4, 66, 64
9, 88512, Note_on_c, 4, 66, 121
9, 88512, Note_on_c, 4, 78, 124
9, 88702, Note_off_c, 4, 78, 64
9, 88702, Note_off_c, 4, 66, 64
9, 88704, Note_on_c, 4, 78, 124
9, 88704, Note_on_c, 4, 66, 114
9, 88894, Note_off_c, 4, 66, 64
9, 88894, Note_off_c, 4, 78, 64
9, 88896, Note_on_c, 4, 66, 121
9, 88896, Note_on_c, 4, 78, 127
9, 89086, Note_off_c, 4, 78, 64
9, 89086, Note_off_c, 4, 66, 64
9, 89088, Note_on_c, 4, 66, 116
9, 89088, Note_on_c, 4, 78, 124
9, 89278, Note_off_c, 4, 78, 64
9, 89278, Note_off_c, 4, 66, 64
9, 89280, Note_on_c, 4, 66, 121
9, 89280, Note_on_c, 4, 78, 126
9, 89470, Note_off_c, 4, 78, 64
9, 89470, Note_off_c, 4, 66, 64
9, 89472, Note_on_c, 4, 78, 124
9, 89472, Note_on_c, 4, 66, 124
9, 89662, Note_off_c, 4, 66, 64
9, 89662, Note_off_c, 4, 78, 64
9, 89664, Note_on_c, 4, 66, 120
9, 89664, Note_on_c, 4, 78, 122
9, 89854, Note_off_c, 4, 78, 64
9, 89854, Note_off_c, 4, 66, 64
9, 89856, Note_on_c, 4, 66, 121
9, 89856, Note_on_c, 4, 78, 120
9, 90046, Note_off_c, 4, 78, 64
9, 90046, Note_off_c, 4, 66, 64
9, 90048, Note_on_c, 4, 66, 121
9, 90048, Note_on_c, 4, 78, 120
9, 90238, Note_off_c, 4, 78, 64
9, 90238, Note_off_c, 4, 66, 64
9, 90240, Note_on_c, 4, 66, 124
9, 90240, Note_on_c, 4, 78, 124
9, 90430, Note_off_c, 4, 78, 64
9, 90430, Note_off_c, 4, 66, 64
9, 90432, Note_on_c, 4, 66, 120
9, 90432, Note_on_c, 4, 78, 121
9, 90622, Note_off_c, 4, 78, 64
9, 90622, Note_off_c, 4, 66, 64
9, 90624, Note_on_c, 4, 66, 121
9, 90624, Note_on_c, 4, 78, 120
9, 90814, Note_off_c, 4, 78, 64
9, 90814, Note_off_c, 4, 66, 64
9, 90816, Note_on_c, 4, 66, 120
9, 90816, Note_on_c, 4, 78, 121
9, 91006, Note_off_c, 4, 78, 64
9, 91006, Note_off_c, 4, 66, 64
9, 91008, Note_on_c, 4, 66, 124
9, 91008, Note_on_c, 4, 78, 121
9, 91198, Note_off_c, 4, 78, 64
9, 91198, Note_off_c, 4, 66, 64
9, 91200, Note_on_c, 4, 66, 124
9, 91200, Note_on_c, 4, 78, 127
9, 91390, Note_off_c, 4, 78, 64
9, 91390, Note_off_c, 4, 66, 64
9, 91390, End_track
10, 0, Start_track
10, 0, Title_t, "BRASS 2"
10, 0, Channel_prefix, 5
10, 0, Control_c, 5, 7, 90
10, 0, Control_c, 5, 10, 125
10, 0, Program_c, 5, 90
10, 1134, Note_on_c, 5, 71, 108
10, 1238, Note_on_c, 5, 73, 127
10, 1267, Note_off_c, 5, 71, 64
10, 1320, Note_on_c, 5, 76, 81
10, 1334, Note_off_c, 5, 73, 64
10, 1406, Note_on_c, 5, 78, 122
10, 1416, Note_off_c, 5, 76, 64
10, 2692, Note_on_c, 5, 76, 87
10, 2712, Note_off_c, 5, 78, 64
10, 2769, Note_off_c, 5, 76, 64
10, 2774, Note_on_c, 5, 78, 116
10, 2878, Note_off_c, 5, 78, 64
10, 2878, Note_on_c, 5, 76, 111
10, 2955, Note_off_c, 5, 76, 64
10, 2964, Note_on_c, 5, 78, 111
10, 3350, Note_on_c, 5, 76, 93
10, 3364, Note_off_c, 5, 78, 64
10, 3456, Note_off_c, 5, 76, 64
10, 3456, Note_on_c, 5, 80, 122
10, 3641, Note_on_c, 5, 78, 124
10, 3660, Note_off_c, 5, 80, 64
10, 3742, Note_on_c, 5, 76, 99
10, 3752, Note_off_c, 5, 78, 64
10, 3790, Note_off_c, 5, 76, 64
10, 3822, Note_on_c, 5, 76, 103
10, 4224, Note_on_c, 5, 71, 74
10, 4233, Note_off_c, 5, 76, 64
10, 4328, Note_on_c, 5, 73, 127
10, 4366, Note_off_c, 5, 71, 64
10, 4414, Note_off_c, 5, 73, 64
10, 4414, Note_on_c, 5, 76, 106
10, 4486, Note_off_c, 5, 76, 64
10, 4500, Note_on_c, 5, 78, 121
10, 5748, Note_off_c, 5, 78, 64
10, 5748, Note_on_c, 5, 76, 84
10, 5820, Note_off_c, 5, 76, 64
10, 5825, Note_on_c, 5, 78, 120
10, 5921, Note_off_c, 5, 78, 64
10, 5921, Note_on_c, 5, 76, 109
10, 6001, Note_off_c, 5, 76, 64
10, 6016, Note_on_c, 5, 78, 116
10, 6412, Note_off_c, 5, 78, 64
10, 6412, Note_on_c, 5, 76, 92
10, 6502, Note_off_c, 5, 76, 64
10, 6512, Note_on_c, 5, 80, 120
10, 6702, Note_on_c, 5, 78, 122
10, 6721, Note_off_c, 5, 80, 64
10, 6803, Note_off_c, 5, 78, 64
10, 6817, Note_on_c, 5, 76, 91
10, 6880, Note_off_c, 5, 76, 64
10, 6912, Note_on_c, 5, 76, 120
10, 7012, Note_off_c, 5, 76, 64
10, 33395, Note_on_c, 5, 71, 103
10, 33489, Note_on_c, 5, 73, 124
10, 33523, Note_off_c, 5, 71, 64
10, 33576, Note_on_c, 5, 76, 109
10, 33609, Note_off_c, 5, 73, 64
10, 33648, Note_off_c, 5, 76, 64
10, 33662, Note_on_c, 5, 78, 122
10, 34939, Note_on_c, 5, 76, 74
10, 34948, Note_off_c, 5, 78, 64
10, 35025, Note_off_c, 5, 76, 64
10, 35035, Note_on_c, 5, 78, 120
10, 35120, Note_off_c, 5, 78, 64
10, 35120, Note_on_c, 5, 76, 106
10, 35196, Note_off_c, 5, 76, 64
10, 35206, Note_on_c, 5, 78, 111
10, 35606, Note_on_c, 5, 76, 91
10, 35625, Note_off_c, 5, 78, 64
10, 35692, Note_off_c, 5, 76, 64
10, 35707, Note_on_c, 5, 80, 117
10, 35912, Note_on_c, 5, 78, 120
10, 35940, Note_off_c, 5, 80, 64
10, 35993, Note_on_c, 5, 76, 81
10, 35998, Note_off_c, 5, 78, 64
10, 36046, Note_off_c, 5, 76, 64
10, 36097, Note_on_c, 5, 76, 121
10, 36484, Note_on_c, 5, 71, 96
10, 36489, Note_off_c, 5, 76, 64
10, 36574, Note_on_c, 5, 73, 114
10, 36612, Note_off_c, 5, 71, 64
10, 36665, Note_on_c, 5, 76, 91
10, 36675, Note_off_c, 5, 73, 64
10, 36752, Note_off_c, 5, 76, 64
10, 36756, Note_on_c, 5, 78, 116
10, 38033, Note_on_c, 5, 76, 101
10, 38038, Note_off_c, 5, 78, 64
10, 38110, Note_on_c, 5, 78, 121
10, 38124, Note_off_c, 5, 76, 64
10, 38214, Note_off_c, 5, 78, 64
10, 38214, Note_on_c, 5, 76, 108
10, 38296, Note_off_c, 5, 76, 64
10, 38300, Note_on_c, 5, 78, 126
10, 38691, Note_on_c, 5, 76, 99
10, 38720, Note_off_c, 5, 78, 64
10, 38777, Note_on_c, 5, 80, 117
10, 38787, Note_off_c, 5, 76, 64
10, 38977, Note_on_c, 5, 78, 121
10, 39006, Note_off_c, 5, 80, 64
10, 39083, Note_on_c, 5, 76, 114
10, 39088, Note_off_c, 5, 78, 64
10, 39145, Note_off_c, 5, 76, 64
10, 39177, Note_on_c, 5, 76, 121
10, 39264, Note_off_c, 5, 76, 64
10, 79481, Note_on_c, 5, 71, 101
10, 79585, Note_on_c, 5, 73, 103
10, 79622, Note_off_c, 5, 71, 64
10, 79670, Note_on_c, 5, 76, 92
10, 79684, Note_off_c, 5, 73, 64
10, 79755, Note_on_c, 5, 78, 124
10, 79772, Note_off_c, 5, 76, 64
10, 81019, Note_on_c, 5, 76, 84
10, 81024, Note_off_c, 5, 78, 64
10, 81118, Note_off_c, 5, 76, 64
10, 81118, Note_on_c, 5, 78, 120
10, 81212, Note_off_c, 5, 78, 64
10, 81217, Note_on_c, 5, 76, 101
10, 81312, Note_on_c, 5, 78, 127
10, 81326, Note_off_c, 5, 76, 64
10, 81683, Note_on_c, 5, 76, 96
10, 81697, Note_off_c, 5, 78, 64
10, 81782, Note_on_c, 5, 80, 124
10, 81792, Note_off_c, 5, 76, 64
10, 81969, Note_on_c, 5, 78, 124
10, 82008, Note_off_c, 5, 80, 64
10, 82073, Note_off_c, 5, 78, 64
10, 82078, Note_on_c, 5, 76, 91
10, 82129, Note_off_c, 5, 76, 64
10, 82168, Note_on_c, 5, 76, 117
10, 82539, Note_on_c, 5, 71, 93
10, 82563, Note_off_c, 5, 76, 64
10, 82633, Note_on_c, 5, 73, 124
10, 82665, Note_off_c, 5, 71, 64
10, 82718, Note_on_c, 5, 76, 114
10, 82742, Note_off_c, 5, 73, 64
10, 82798, Note_off_c, 5, 76, 64
10, 82820, Note_on_c, 5, 78, 124
10, 84076, Note_on_c, 5, 76, 91
10, 84081, Note_off_c, 5, 78, 64
10, 84161, Note_off_c, 5, 76, 64
10, 84161, Note_on_c, 5, 78, 117
10, 84256, Note_off_c, 5, 78, 64
10, 84260, Note_on_c, 5, 76, 111
10, 84350, Note_off_c, 5, 76, 64
10, 84364, Note_on_c, 5, 78, 124
10, 84750, Note_on_c, 5, 76, 92
10, 84769, Note_off_c, 5, 78, 64
10, 84844, Note_off_c, 5, 76, 64
10, 84849, Note_on_c, 5, 80, 116
10, 85032, Note_on_c, 5, 78, 117
10, 85060, Note_off_c, 5, 80, 64
10, 85126, Note_off_c, 5, 78, 64
10, 85126, Note_on_c, 5, 76, 106
10, 85172, Note_off_c, 5, 76, 64
10, 85216, Note_on_c, 5, 76, 117
10, 85611, Note_off_c, 5, 76, 64
10, 85611, Note_on_c, 5, 71, 76
10, 85700, Note_on_c, 5, 73, 124
10, 85732, Note_off_c, 5, 71, 64
10, 85776, Note_on_c, 5, 76, 98
10, 85803, Note_off_c, 5, 73, 64
10, 85856, Note_off_c, 5, 76, 64
10, 85878, Note_on_c, 5, 78, 124
10, 87168, Note_on_c, 5, 76, 73
10, 87177, Note_off_c, 5, 78, 64
10, 87262, Note_off_c, 5, 76, 64
10, 87262, Note_on_c, 5, 78, 124
10, 87366, Note_off_c, 5, 78, 64
10, 87366, Note_on_c, 5, 76, 108
10, 87454, Note_off_c, 5, 76, 64
10, 87459, Note_on_c, 5, 78, 121
10, 87844, Note_on_c, 5, 76, 99
10, 87859, Note_off_c, 5, 78, 64
10, 87939, Note_off_c, 5, 76, 64
10, 87944, Note_on_c, 5, 80, 124
10, 88132, Note_on_c, 5, 78, 120
10, 88152, Note_off_c, 5, 80, 64
10, 88212, Note_off_c, 5, 78, 64
10, 88227, Note_on_c, 5, 76, 98
10, 88288, Note_off_c, 5, 76, 64
10, 88329, Note_on_c, 5, 76, 116
10, 88705, Note_on_c, 5, 71, 92
10, 88710, Note_off_c, 5, 76, 64
10, 88785, Note_on_c, 5, 73, 124
10, 88814, Note_off_c, 5, 71, 64
10, 88860, Note_on_c, 5, 76, 93
10, 88889, Note_off_c, 5, 73, 64
10, 88945, Note_off_c, 5, 76, 64
10, 88960, Note_on_c, 5, 78, 121
10, 90244, Note_off_c, 5, 78, 64
10, 90244, Note_on_c, 5, 76, 87
10, 90320, Note_off_c, 5, 76, 64
10, 90329, Note_on_c, 5, 78, 121
10, 90409, Note_off_c, 5, 78, 64
10, 90424, Note_on_c, 5, 76, 103
10, 90494, Note_off_c, 5, 76, 64
10, 90504, Note_on_c, 5, 78, 127
10, 90907, Note_on_c, 5, 76, 89
10, 90916, Note_off_c, 5, 78, 64
10, 90987, Note_off_c, 5, 76, 64
10, 91001, Note_on_c, 5, 80, 124
10, 91185, Note_on_c, 5, 78, 124
10, 91209, Note_off_c, 5, 80, 64
10, 91260, Note_on_c, 5, 76, 92
10, 91280, Note_off_c, 5, 78, 64
10, 91316, Note_off_c, 5, 76, 64
10, 91377, Note_on_c, 5, 76, 124
10, 91496, Note_off_c, 5, 76, 64
10, 91496, End_track
11, 0, Start_track
11, 0, Title_t, "LEAD KEYS"
11, 0, Channel_prefix, 7
11, 0, Control_c, 7, 7, 125
11, 0, Program_c, 7, 81
11, 51449, Note_on_c, 7, 52, 72
11, 51459, Note_on_c, 7, 57, 71
11, 52212, Note_off_c, 7, 57, 64
11, 52212, Note_off_c, 7, 52, 64
11, 52227, Note_on_c, 7, 54, 92
11, 52232, Note_on_c, 7, 59, 99
11, 52971, Note_off_c, 7, 54, 64
11, 52990, Note_off_c, 7, 59, 64
11, 53017, Note_on_c, 7, 52, 108
11, 53027, Note_on_c, 7, 59, 88
11, 53761, Note_off_c, 7, 52, 64
11, 53771, Note_off_c, 7, 59, 64
11, 53790, Note_on_c, 7, 57, 92
11, 53790, Note_on_c, 7, 52, 106
11, 54491, Note_off_c, 7, 52, 64
11, 54500, Note_off_c, 7, 57, 64
11, 54539, Note_on_c, 7, 52, 87
11, 54548, Note_on_c, 7, 57, 92
11, 55273, Note_off_c, 7, 52, 64
11, 55278, Note_off_c, 7, 57, 64
11, 55307, Note_on_c, 7, 54, 101
11, 55307, Note_on_c, 7, 59, 99
11, 56032, Note_off_c, 7, 54, 64
11, 56041, Note_off_c, 7, 59, 64
11, 56065, Note_on_c, 7, 52, 80
11, 56080, Note_on_c, 7, 59, 96
11, 56737, Note_off_c, 7, 52, 64
11, 56785, Note_off_c, 7, 59, 64
11, 56824, Note_on_c, 7, 52, 77
11, 56832, Note_on_c, 7, 57, 71
11, 57547, Note_off_c, 7, 52, 64
11, 57552, Note_off_c, 7, 57, 64
11, 59108, Control_c, 7, 7, 56
11, 59121, Control_c, 7, 7, 58
11, 59131, Note_on_c, 7, 78, 117
11, 59136, Control_c, 7, 7, 69
11, 59145, Control_c, 7, 7, 65
11, 59160, Control_c, 7, 7, 68
11, 59174, Control_c, 7, 7, 71
11, 59286, Control_c, 7, 7, 72
11, 59724, Control_c, 7, 1, 127
11, 59734, Control_c, 7, 1, 126
11, 59744, Control_c, 7, 1, 118
11, 59753, Control_c, 7, 1, 108
11, 59761, Control_c, 7, 1, 99
11, 59766, Control_c, 7, 1, 91
11, 59776, Control_c, 7, 1, 84
11, 59780, Control_c, 7, 1, 76
11, 59790, Control_c, 7, 1, 70
11, 59800, Control_c, 7, 1, 64
11, 59809, Control_c, 7, 1, 59
11, 59817, Control_c, 7, 1, 53
11, 59832, Control_c, 7, 1, 47
11, 59836, Control_c, 7, 1, 41
11, 59851, Control_c, 7, 1, 39
11, 59883, Control_c, 7, 1, 35
11, 59892, Control_c, 7, 1, 31
11, 59902, Control_c, 7, 1, 28
11, 59912, Control_c, 7, 1, 25
11, 59926, Control_c, 7, 1, 22
11, 59944, Control_c, 7, 1, 20
11, 60038, Control_c, 7, 1, 24
11, 60051, Control_c, 7, 1, 29
11, 60056, Control_c, 7, 1, 36
11, 60065, Control_c, 7, 1, 45
11, 60070, Control_c, 7, 1, 53
11, 60080, Control_c, 7, 1, 64
11, 60084, Control_c, 7, 1, 78
11, 60094, Control_c, 7, 1, 90
11, 60099, Control_c, 7, 1, 99
11, 60112, Control_c, 7, 1, 106
11, 60121, Control_c, 7, 1, 114
11, 60126, Control_c, 7, 1, 122
11, 60136, Control_c, 7, 1, 127
11, 60150, Control_c, 7, 1, 127
11, 60160, Control_c, 7, 1, 127
11, 60172, Control_c, 7, 1, 127
11, 60313, Control_c, 7, 1, 127
11, 60566, Control_c, 7, 1, 127
11, 60576, Control_c, 7, 1, 127
11, 60584, Control_c, 7, 1, 127
11, 60593, Control_c, 7, 1, 122
11, 60603, Control_c, 7, 1, 114
11, 60612, Control_c, 7, 1, 106
11, 60622, Control_c, 7, 1, 99
11, 60632, Control_c, 7, 1, 93
11, 60640, Control_c, 7, 1, 87
11, 60649, Control_c, 7, 1, 81
11, 60659, Control_c, 7, 1, 73
11, 60668, Control_c, 7, 1, 66
11, 60673, Control_c, 7, 1, 59
11, 60683, Control_c, 7, 1, 52
11, 60688, Control_c, 7, 1, 44
11, 60696, Control_c, 7, 1, 36
11, 60705, Control_c, 7, 1, 29
11, 60715, Control_c, 7, 1, 23
11, 60720, Control_c, 7, 1, 17
11, 60734, Control_c, 7, 1, 11
11, 60744, Control_c, 7, 1, 7
11, 60752, Control_c, 7, 1, 4
11, 60761, Control_c, 7, 1, 1
11, 60771, Control_c, 7, 1, 0
11, 60785, Control_c, 7, 1, 0
11, 60856, Control_c, 7, 1, 1
11, 60860, Control_c, 7, 1, 7
11, 60868, Control_c, 7, 1, 14
11, 60873, Control_c, 7, 1, 22
11, 60878, Control_c, 7, 1, 29
11, 60888, Control_c, 7, 1, 35
11, 60897, Control_c, 7, 1, 41
11, 60902, Control_c, 7, 1, 49
11, 60916, Control_c, 7, 1, 57
11, 60926, Control_c, 7, 1, 64
11, 60929, Control_c, 7, 1, 72
11, 60939, Control_c, 7, 1, 78
11, 60948, Control_c, 7, 1, 84
11, 60963, Control_c, 7, 1, 90
11, 60972, Control_c, 7, 1, 94
11, 60982, Control_c, 7, 1, 99
11, 60990, Control_c, 7, 1, 106
11, 61004, Control_c, 7, 1, 112
11, 61014, Control_c, 7, 1, 118
11, 61024, Control_c, 7, 1, 124
11, 61038, Control_c, 7, 1, 127
11, 61046, Control_c, 7, 1, 127
11, 61060, Control_c, 7, 1, 127
11, 61070, Control_c, 7, 1, 127
11, 61294, Control_c, 7, 1, 127
11, 61308, Control_c, 7, 1, 127
11, 61323, Control_c, 7, 1, 127
11, 61336, Control_c, 7, 1, 126
11, 61345, Control_c, 7, 1, 118
11, 61355, Control_c, 7, 1, 112
11, 61364, Control_c, 7, 1, 104
11, 61374, Control_c, 7, 1, 97
11, 61384, Control_c, 7, 1, 90
11, 61393, Control_c, 7, 1, 84
11, 61401, Control_c, 7, 1, 76
11, 61411, Control_c, 7, 1, 70
11, 61420, Control_c, 7, 1, 63
11, 61430, Control_c, 7, 1, 56
11, 61435, Control_c, 7, 1, 51
11, 61449, Control_c, 7, 1, 44
11, 61452, Control_c, 7, 1, 36
11, 61457, Control_c, 7, 1, 30
11, 61467, Control_c, 7, 1, 25
11, 61472, Control_c, 7, 1, 20
11, 61481, Control_c, 7, 1, 16
11, 61486, Control_c, 7, 1, 11
11, 61496, Control_c, 7, 1, 5
11, 61505, Control_c, 7, 1, 1
11, 61513, Control_c, 7, 1, 0
11, 61547, Control_c, 7, 1, 0
11, 61579, Control_c, 7, 1, 0
11, 61584, Control_c, 7, 1, 6
11, 61593, Control_c, 7, 1, 11
11, 61598, Control_c, 7, 1, 16
11, 61608, Control_c, 7, 1, 21
11, 61612, Control_c, 7, 1, 27
11, 61622, Control_c, 7, 1, 35
11, 61630, Control_c, 7, 1, 43
11, 61635, Control_c, 7, 1, 51
11, 61644, Control_c, 7, 1, 57
11, 61654, Control_c, 7, 1, 64
11, 61664, Control_c, 7, 1, 72
11, 61668, Control_c, 7, 1, 79
11, 61678, Control_c, 7, 1, 87
11, 61683, Control_c, 7, 1, 94
11, 61691, Control_c, 7, 1, 100
11, 61700, Control_c, 7, 1, 108
11, 61710, Control_c, 7, 1, 118
11, 61720, Control_c, 7, 1, 127
11, 61729, Control_c, 7, 1, 127
11, 61739, Control_c, 7, 1, 127
11, 61747, Control_c, 7, 1, 127
11, 61761, Control_c, 7, 1, 127
11, 61923, Note_on_c, 7, 76, 96
11, 61939, Note_off_c, 7, 78, 64
11, 61963, Note_off_c, 7, 76, 64
11, 62014, Note_on_c, 7, 76, 117
11, 62051, Note_off_c, 7, 76, 64
11, 62100, Note_on_c, 7, 76, 116
11, 62137, Note_off_c, 7, 76, 64
11, 62201, Note_on_c, 7, 76, 116
11, 62257, Control_c, 7, 1, 127
11, 62270, Control_c, 7, 1, 127
11, 62280, Control_c, 7, 1, 127
11, 62292, Control_c, 7, 1, 124
11, 62302, Control_c, 7, 1, 118
11, 62312, Control_c, 7, 1, 112
11, 62316, Note_on_c, 7, 78, 124
11, 62321, Control_c, 7, 1, 108
11, 62334, Note_off_c, 7, 76, 64
11, 62356, Control_c, 7, 1, 114
11, 62366, Note_off_c, 7, 78, 64
11, 62366, Control_c, 7, 1, 122
11, 62376, Control_c, 7, 1, 127
11, 62380, Control_c, 7, 1, 127
11, 62388, Control_c, 7, 1, 127
11, 62788, Note_on_c, 7, 80, 87
11, 62835, Note_on_c, 7, 73, 124
11, 62844, Note_off_c, 7, 80, 64
11, 62876, Note_on_c, 7, 76, 70
11, 62892, Note_off_c, 7, 73, 64
11, 62928, Note_off_c, 7, 76, 64
11, 62928, Note_on_c, 7, 78, 108
11, 62964, Note_off_c, 7, 78, 64
11, 62976, Note_on_c, 7, 73, 117
11, 63022, Note_on_c, 7, 76, 92
11, 63040, Note_off_c, 7, 73, 64
11, 63073, Note_on_c, 7, 78, 120
11, 63083, Note_off_c, 7, 76, 64
11, 63112, Note_off_c, 7, 78, 64
11, 63121, Note_on_c, 7, 73, 117
11, 63156, Note_on_c, 7, 76, 81
11, 63171, Note_off_c, 7, 73, 64
11, 63212, Note_on_c, 7, 78, 117
11, 63227, Note_off_c, 7, 76, 64
11, 63251, Note_off_c, 7, 78, 64
11, 63257, Note_on_c, 7, 73, 108
11, 63302, Note_on_c, 7, 76, 91
11, 63313, Note_off_c, 7, 73, 64
11, 63358, Note_on_c, 7, 78, 122
11, 63374, Note_off_c, 7, 76, 64
11, 63404, Note_off_c, 7, 78, 64
11, 63419, Note_on_c, 7, 73, 98
11, 63467, Note_on_c, 7, 76, 83
11, 63484, Note_off_c, 7, 73, 64
11, 63508, Note_on_c, 7, 78, 108
11, 63526, Note_off_c, 7, 76, 64
11, 63556, Note_off_c, 7, 78, 64
11, 63566, Note_on_c, 7, 73, 120
11, 63611, Note_on_c, 7, 76, 92
11, 63622, Note_off_c, 7, 73, 64
11, 63654, Note_on_c, 7, 78, 127
11, 63664, Note_off_c, 7, 76, 64
11, 63704, Note_off_c, 7, 78, 64
11, 63737, Note_on_c, 7, 78, 108
11, 63977, Note_off_c, 7, 78, 64
11, 63984, Note_on_c, 7, 78, 114
11, 64030, Note_off_c, 7, 78, 64
11, 64032, Note_on_c, 7, 76, 84
11, 64080, Note_on_c, 7, 73, 121
11, 64176, Note_off_c, 7, 76, 64
11, 64497, Note_off_c, 7, 73, 64
11, 71417, Note_on_c, 7, 52, 72
11, 71427, Note_on_c, 7, 57, 71
11, 72180, Note_off_c, 7, 57, 64
11, 72180, Note_off_c, 7, 52, 64
11, 72195, Note_on_c, 7, 54, 92
11, 72200, Note_on_c, 7, 59, 99
11, 72939, Note_off_c, 7, 54, 64
11, 72958, Note_off_c, 7, 59, 64
11, 72985, Note_on_c, 7, 52, 108
11, 72995, Note_on_c, 7, 59, 88
11, 73729, Note_off_c, 7, 52, 64
11, 73739, Note_off_c, 7, 59, 64
11, 73758, Note_on_c, 7, 57, 92
11, 73758, Note_on_c, 7, 52, 106
11, 74459, Note_off_c, 7, 52, 64
11, 74468, Note_off_c, 7, 57, 64
11, 74507, Note_on_c, 7, 52, 87
11, 74516, Note_on_c, 7, 57, 92
11, 75241, Note_off_c, 7, 52, 64
11, 75246, Note_off_c, 7, 57, 64
11, 75275, Note_on_c, 7, 54, 101
11, 75275, Note_on_c, 7, 59, 99
11, 76000, Note_off_c, 7, 54, 64
11, 76009, Note_off_c, 7, 59, 64
11, 76033, Note_on_c, 7, 52, 80
11, 76048, Note_on_c, 7, 59, 96
11, 76705, Note_off_c, 7, 52, 64
11, 76753, Note_off_c, 7, 59, 64
11, 76792, Note_on_c, 7, 52, 77
11, 76800, Note_on_c, 7, 57, 71
11, 77515, Note_off_c, 7, 52, 64
11, 77520, Note_off_c, 7, 57, 64
11, 77520, End_track
12, 0, Start_track
12, 0, Title_t, "DRUM FILLS"
12, 0, Channel_prefix, 8
12, 0, Control_c, 8, 7, 100
12, 0, Program_c, 8, 117
12, 31696, Note_on_c, 8, 55, 117
12, 31696, Note_on_c, 8, 53, 117
12, 31720, Note_off_c, 8, 53, 64
12, 31720, Note_off_c, 8, 55, 64
12, 31790, Note_on_c, 8, 55, 116
12, 31790, Note_on_c, 8, 53, 111
12, 31827, Note_off_c, 8, 53, 64
12, 31832, Note_off_c, 8, 55, 64
12, 32062, Note_on_c, 8, 47, 120
12, 32062, Note_on_c, 8, 48, 106
12, 32091, Note_off_c, 8, 48, 64
12, 32091, Note_off_c, 8, 47, 64
12, 32156, Note_on_c, 8, 45, 111
12, 32156, Note_on_c, 8, 47, 109
12, 32190, Note_off_c, 8, 47, 64
12, 32190, Note_off_c, 8, 45, 64
12, 32452, Note_on_c, 8, 43, 114
12, 32452, Note_on_c, 8, 45, 98
12, 32491, Note_off_c, 8, 45, 64
12, 32491, Note_off_c, 8, 43, 64
12, 32552, Note_on_c, 8, 43, 120
12, 32552, Note_on_c, 8, 45, 111
12, 32588, Note_off_c, 8, 45, 64
12, 32593, Note_off_c, 8, 43, 64
12, 32852, Note_on_c, 8, 38, 120
12, 32904, Note_off_c, 8, 38, 64
12, 32918, Note_on_c, 8, 41, 81
12, 32918, Note_on_c, 8, 40, 76
12, 32956, Note_off_c, 8, 41, 64
12, 32961, Note_off_c, 8, 40, 64
12, 57596, Note_on_c, 8, 53, 120
12, 57601, Note_on_c, 8, 55, 120
12, 57633, Note_off_c, 8, 55, 64
12, 57643, Note_off_c, 8, 53, 64
12, 57798, Note_on_c, 8, 52, 121
12, 57827, Note_off_c, 8, 52, 64
12, 57883, Note_on_c, 8, 50, 124
12, 57926, Note_off_c, 8, 50, 64
12, 58091, Note_on_c, 8, 48, 122
12, 58091, Note_on_c, 8, 47, 124
12, 58132, Note_off_c, 8, 47, 64
12, 58137, Note_off_c, 8, 48, 64
12, 58184, Note_on_c, 8, 45, 120
12, 58236, Note_off_c, 8, 45, 64
12, 58278, Note_on_c, 8, 45, 126
12, 58331, Note_off_c, 8, 45, 64
12, 58363, Note_on_c, 8, 43, 120
12, 58416, Note_off_c, 8, 43, 64
12, 58448, Note_on_c, 8, 43, 121
12, 58504, Note_off_c, 8, 43, 64
12, 58556, Note_on_c, 8, 41, 121
12, 58608, Note_off_c, 8, 41, 64
12, 58646, Note_on_c, 8, 41, 120
12, 58721, Note_off_c, 8, 41, 64
12, 58753, Note_on_c, 8, 40, 122
12, 58801, Note_off_c, 8, 40, 64
12, 58833, Note_on_c, 8, 40, 120
12, 58899, Note_off_c, 8, 40, 64
12, 58932, Note_on_c, 8, 38, 126
12, 58984, Note_off_c, 8, 38, 64
12, 59022, Note_on_c, 8, 38, 127
12, 59097, Note_off_c, 8, 38, 64
12, 59121, Note_on_c, 8, 36, 127
12, 59163, Note_off_c, 8, 36, 64
12, 77588, Note_on_c, 8, 53, 127
12, 77616, Note_off_c, 8, 53, 64
12, 77673, Note_on_c, 8, 53, 124
12, 77705, Note_off_c, 8, 53, 64
12, 77870, Note_on_c, 8, 52, 124
12, 77894, Note_off_c, 8, 52, 64
12, 78068, Note_on_c, 8, 50, 127
12, 78091, Note_off_c, 8, 50, 64
12, 78161, Note_on_c, 8, 48, 124
12, 78195, Note_off_c, 8, 48, 64
12, 78256, Note_on_c, 8, 47, 124
12, 78256, Note_on_c, 8, 48, 124
12, 78280, Note_off_c, 8, 48, 64
12, 78284, Note_off_c, 8, 47, 64
12, 78336, Note_on_c, 8, 47, 127
12, 78379, Note_off_c, 8, 47, 64
12, 78440, Note_on_c, 8, 45, 122
12, 78472, Note_off_c, 8, 45, 64
12, 78646, Note_on_c, 8, 43, 127
12, 78680, Note_off_c, 8, 43, 64
12, 78820, Note_on_c, 8, 41, 127
12, 78854, Note_off_c, 8, 41, 64
12, 78929, Note_on_c, 8, 40, 124
12, 78966, Note_off_c, 8, 40, 64
12, 79009, Note_on_c, 8, 36, 127
12, 79017, Note_on_c, 8, 38, 116
12, 79056, Note_off_c, 8, 38, 64
12, 79075, Note_off_c, 8, 36, 64
12, 84952, Note_on_c, 8, 47, 124
12, 84985, Note_off_c, 8, 47, 64
12, 85046, Note_on_c, 8, 43, 124
12, 85046, Note_on_c, 8, 41, 122
12, 85051, Note_off_c, 8, 41, 64
12, 85094, Note_off_c, 8, 43, 64
12, 85145, Note_on_c, 8, 45, 126
12, 85187, Note_off_c, 8, 45, 64
12, 85235, Note_on_c, 8, 38, 127
12, 85286, Note_off_c, 8, 38, 64
12, 88038, Note_on_c, 8, 45, 127
12, 88067, Note_off_c, 8, 45, 64
12, 88084, Note_on_c, 8, 41, 124
12, 88084, Note_on_c, 8, 43, 127
12, 88118, Note_off_c, 8, 43, 64
12, 88118, Note_off_c, 8, 41, 64
12, 88128, Note_on_c, 8, 43, 127
12, 88174, Note_off_c, 8, 43, 64
12, 88244, Note_on_c, 8, 38, 127
12, 88244, Note_on_c, 8, 36, 122
12, 88278, Note_off_c, 8, 36, 64
12, 88288, Note_off_c, 8, 38, 64
12, 88368, Note_on_c, 8, 36, 126
12, 88368, Note_on_c, 8, 38, 126
12, 88400, Note_off_c, 8, 38, 64
12, 88438, Note_off_c, 8, 36, 64
12, 90724, Note_on_c, 8, 43, 106
12, 90756, Note_off_c, 8, 43, 64
12, 90814, Note_on_c, 8, 41, 120
12, 90846, Note_off_c, 8, 41, 64
12, 90912, Note_on_c, 8, 40, 117
12, 90945, Note_off_c, 8, 40, 64
12, 91006, Note_on_c, 8, 38, 120
12, 91044, Note_off_c, 8, 38, 64
12, 91096, Note_on_c, 8, 38, 114
12, 91096, Note_on_c, 8, 36, 111
12, 91129, Note_off_c, 8, 36, 64
12, 91129, Note_off_c, 8, 38, 64
12, 91195, Note_on_c, 8, 36, 127
12, 91251, Note_off_c, 8, 36, 64
12, 91292, Note_on_c, 8, 36, 117
12, 91340, Note_off_c, 8, 36, 64
12, 91392, Note_on_c, 8, 36, 126
12, 91452, Note_off_c, 8, 36, 64
12, 91452, End_track
13, 0, Start_track
13, 0, Title_t, "0+> VOX"
13, 0, Channel_prefix, 6
13, 0, Control_c, 6, 7, 125
13, 0, Control_c, 6, 10, 65
13, 0, Program_c, 6, 85
13, 7304, Note_on_c, 6, 59, 85
13, 7384, Note_on_c, 6, 61, 121
13, 7398, Note_off_c, 6, 59, 64
13, 7449, Note_off_c, 6, 61, 64
13, 7478, Note_on_c, 6, 64, 89
13, 7544, Note_off_c, 6, 64, 64
13, 7582, Note_on_c, 6, 66, 127
13, 7672, Note_off_c, 6, 66, 64
13, 8833, Note_on_c, 6, 64, 101
13, 8884, Note_off_c, 6, 64, 64
13, 8928, Note_on_c, 6, 66, 127
13, 8979, Note_off_c, 6, 66, 64
13, 9120, Note_on_c, 6, 66, 127
13, 9248, Note_off_c, 6, 66, 64
13, 9308, Note_on_c, 6, 64, 111
13, 9369, Note_off_c, 6, 64, 64
13, 9416, Note_on_c, 6, 66, 127
13, 9464, Note_off_c, 6, 66, 64
13, 9500, Note_on_c, 6, 64, 114
13, 9553, Note_off_c, 6, 64, 64
13, 9600, Note_on_c, 6, 68, 126
13, 9745, Note_off_c, 6, 68, 64
13, 9793, Note_on_c, 6, 66, 124
13, 9868, Note_off_c, 6, 66, 64
13, 10361, Note_on_c, 6, 59, 87
13, 10451, Note_on_c, 6, 61, 114
13, 10484, Note_off_c, 6, 59, 64
13, 10526, Note_off_c, 6, 61, 64
13, 10540, Note_on_c, 6, 64, 93
13, 10601, Note_off_c, 6, 64, 64
13, 10644, Note_on_c, 6, 66, 126
13, 10705, Note_off_c, 6, 66, 64
13, 11886, Note_on_c, 6, 64, 116
13, 11928, Note_off_c, 6, 64, 64
13, 11985, Note_on_c, 6, 66, 124
13, 12027, Note_off_c, 6, 66, 64
13, 12083, Note_on_c, 6, 66, 127
13, 12126, Note_off_c, 6, 66, 64
13, 12192, Note_on_c, 6, 66, 127
13, 12238, Note_off_c, 6, 66, 64
13, 13353, Note_on_c, 6, 59, 108
13, 13396, Note_off_c, 6, 59, 64
13, 13438, Note_on_c, 6, 59, 99
13, 13494, Note_off_c, 6, 59, 64
13, 13532, Note_on_c, 6, 61, 121
13, 13603, Note_off_c, 6, 61, 64
13, 13622, Note_on_c, 6, 64, 92
13, 13673, Note_off_c, 6, 64, 64
13, 13720, Note_on_c, 6, 66, 127
13, 13872, Note_off_c, 6, 66, 64
13, 14888, Note_on_c, 6, 64, 108
13, 14939, Note_off_c, 6, 64, 64
13, 14985, Note_on_c, 6, 66, 127
13, 15024, Note_off_c, 6, 66, 64
13, 15070, Note_on_c, 6, 64, 103
13, 15128, Note_off_c, 6, 64, 64
13, 15179, Note_on_c, 6, 66, 127
13, 15216, Note_off_c, 6, 66, 64
13, 15268, Note_on_c, 6, 66, 124
13, 15499, Note_off_c, 6, 66, 64
13, 15555, Note_on_c, 6, 66, 124
13, 15601, Note_off_c, 6, 66, 64
13, 15649, Note_on_c, 6, 64, 120
13, 15696, Note_off_c, 6, 64, 64
13, 15753, Note_on_c, 6, 68, 127
13, 15875, Note_off_c, 6, 68, 64
13, 15931, Note_on_c, 6, 66, 124
13, 15964, Note_off_c, 6, 66, 64
13, 16124, Note_on_c, 6, 59, 114
13, 16185, Note_off_c, 6, 59, 64
13, 16515, Note_on_c, 6, 59, 82
13, 16600, Note_on_c, 6, 61, 117
13, 16614, Note_off_c, 6, 59, 64
13, 16651, Note_off_c, 6, 61, 64
13, 16670, Note_on_c, 6, 64, 81
13, 16726, Note_off_c, 6, 64, 64
13, 16782, Note_on_c, 6, 66, 127
13, 16854, Note_off_c, 6, 66, 64
13, 17953, Note_on_c, 6, 64, 108
13, 17996, Note_off_c, 6, 64, 64
13, 18048, Note_on_c, 6, 66, 127
13, 18096, Note_off_c, 6, 66, 64
13, 18147, Note_on_c, 6, 66, 127
13, 18180, Note_off_c, 6, 66, 64
13, 18227, Note_on_c, 6, 66, 124
13, 18268, Note_off_c, 6, 66, 64
13, 18321, Note_on_c, 6, 66, 124
13, 18358, Note_off_c, 6, 66, 64
13, 18416, Note_on_c, 6, 66, 124
13, 18452, Note_off_c, 6, 66, 64
13, 18513, Note_on_c, 6, 66, 122
13, 18552, Note_off_c, 6, 66, 64
13, 18617, Note_on_c, 6, 66, 127
13, 18651, Note_off_c, 6, 66, 64
13, 18712, Note_on_c, 6, 64, 120
13, 18748, Note_off_c, 6, 64, 64
13, 18838, Note_on_c, 6, 68, 92
13, 18952, Note_off_c, 6, 68, 64
13, 19032, Note_on_c, 6, 66, 122
13, 19148, Note_off_c, 6, 66, 64
13, 19228, Note_on_c, 6, 59, 114
13, 19289, Note_off_c, 6, 59, 64
13, 19409, Note_on_c, 6, 71, 96
13, 19518, Note_off_c, 6, 71, 64
13, 19593, Note_on_c, 6, 68, 122
13, 19683, Note_on_c, 6, 66, 99
13, 19705, Note_off_c, 6, 68, 64
13, 19758, Note_off_c, 6, 66, 64
13, 19870, Note_on_c, 6, 66, 124
13, 19899, Note_off_c, 6, 66, 64
13, 19955, Note_on_c, 6, 66, 124
13, 20059, Note_off_c, 6, 66, 64
13, 20148, Note_on_c, 6, 66, 122
13, 20185, Note_off_c, 6, 66, 64
13, 20246, Note_on_c, 6, 66, 126
13, 20336, Note_off_c, 6, 66, 64
13, 21110, Note_on_c, 6, 64, 117
13, 21148, Note_off_c, 6, 64, 64
13, 21204, Note_on_c, 6, 66, 126
13, 21251, Note_off_c, 6, 66, 64
13, 21313, Note_on_c, 6, 66, 127
13, 21350, Note_off_c, 6, 66, 64
13, 21406, Note_on_c, 6, 66, 127
13, 21544, Note_off_c, 6, 66, 64
13, 21600, Note_on_c, 6, 64, 121
13, 21646, Note_off_c, 6, 64, 64
13, 21704, Note_on_c, 6, 66, 127
13, 21745, Note_off_c, 6, 66, 64
13, 21788, Note_on_c, 6, 64, 120
13, 21830, Note_off_c, 6, 64, 64
13, 21891, Note_on_c, 6, 68, 122
13, 21971, Note_off_c, 6, 68, 64
13, 22084, Note_on_c, 6, 66, 127
13, 22136, Note_off_c, 6, 66, 64
13, 22281, Note_on_c, 6, 59, 108
13, 22339, Note_off_c, 6, 59, 64
13, 22662, Note_on_c, 6, 59, 93
13, 22737, Note_off_c, 6, 59, 64
13, 22756, Note_on_c, 6, 61, 120
13, 22809, Note_off_c, 6, 61, 64
13, 22836, Note_on_c, 6, 64, 114
13, 22892, Note_off_c, 6, 64, 64
13, 22945, Note_on_c, 6, 66, 127
13, 23001, Note_off_c, 6, 66, 64
13, 24185, Note_on_c, 6, 64, 114
13, 24228, Note_off_c, 6, 64, 64
13, 24284, Note_on_c, 6, 66, 124
13, 24326, Note_off_c, 6, 66, 64
13, 24384, Note_on_c, 6, 66, 124
13, 24425, Note_off_c, 6, 66, 64
13, 24481, Note_on_c, 6, 66, 124
13, 24520, Note_off_c, 6, 66, 64
13, 24576, Note_on_c, 6, 66, 126
13, 24609, Note_off_c, 6, 66, 64
13, 24665, Note_on_c, 6, 66, 124
13, 24699, Note_off_c, 6, 66, 64
13, 24760, Note_on_c, 6, 66, 127
13, 24796, Note_off_c, 6, 66, 64
13, 24859, Note_on_c, 6, 64, 121
13, 24891, Note_off_c, 6, 64, 64
13, 24956, Note_on_c, 6, 68, 121
13, 25017, Note_off_c, 6, 68, 64
13, 25164, Note_on_c, 6, 66, 127
13, 25211, Note_off_c, 6, 66, 64
13, 25361, Note_on_c, 6, 64, 127
13, 25390, Note_off_c, 6, 64, 64
13, 25550, Note_on_c, 6, 68, 127
13, 25601, Note_off_c, 6, 68, 64
13, 25742, Note_on_c, 6, 66, 126
13, 25790, Note_off_c, 6, 66, 64
13, 26288, Note_on_c, 6, 66, 124
13, 26324, Note_off_c, 6, 66, 64
13, 26380, Note_on_c, 6, 66, 124
13, 26419, Note_off_c, 6, 66, 64
13, 26484, Note_on_c, 6, 66, 121
13, 26523, Note_off_c, 6, 66, 64
13, 26584, Note_on_c, 6, 66, 121
13, 26620, Note_off_c, 6, 66, 64
13, 26683, Note_on_c, 6, 66, 124
13, 26715, Note_off_c, 6, 66, 64
13, 26776, Note_on_c, 6, 66, 124
13, 26809, Note_off_c, 6, 66, 64
13, 26880, Note_on_c, 6, 66, 124
13, 26918, Note_off_c, 6, 66, 64
13, 26974, Note_on_c, 6, 64, 98
13, 27030, Note_off_c, 6, 64, 64
13, 27166, Note_on_c, 6, 64, 111
13, 27459, Note_off_c, 6, 64, 64
13, 27459, Note_on_c, 6, 66, 127
13, 27491, Note_off_c, 6, 66, 64
13, 28521, Note_on_c, 6, 64, 92
13, 28569, Note_off_c, 6, 64, 64
13, 28620, Note_on_c, 6, 68, 124
13, 28681, Note_off_c, 6, 68, 64
13, 28800, Note_on_c, 6, 66, 126
13, 28851, Note_off_c, 6, 66, 64
13, 29392, Note_on_c, 6, 66, 122
13, 29425, Note_off_c, 6, 66, 64
13, 29481, Note_on_c, 6, 66, 126
13, 29518, Note_off_c, 6, 66, 64
13, 29571, Note_on_c, 6, 66, 121
13, 29608, Note_off_c, 6, 66, 64
13, 29665, Note_on_c, 6, 66, 124
13, 29697, Note_off_c, 6, 66, 64
13, 29758, Note_on_c, 6, 66, 124
13, 29792, Note_off_c, 6, 66, 64
13, 29848, Note_on_c, 6, 66, 124
13, 29881, Note_off_c, 6, 66, 64
13, 29956, Note_on_c, 6, 66, 124
13, 29998, Note_off_c, 6, 66, 64
13, 30051, Note_on_c, 6, 64, 116
13, 30112, Note_off_c, 6, 64, 64
13, 30238, Note_on_c, 6, 64, 111
13, 30521, Note_on_c, 6, 66, 127
13, 30526, Note_off_c, 6, 64, 64
13, 30553, Note_off_c, 6, 66, 64
13, 31598, Note_on_c, 6, 66, 116
13, 31625, Note_off_c, 6, 66, 64
13, 31686, Note_on_c, 6, 66, 121
13, 31720, Note_off_c, 6, 66, 64
13, 31785, Note_on_c, 6, 66, 121
13, 31819, Note_off_c, 6, 66, 64
13, 31875, Note_on_c, 6, 66, 122
13, 31916, Note_off_c, 6, 66, 64
13, 32081, Note_on_c, 6, 66, 124
13, 32115, Note_off_c, 6, 66, 64
13, 32161, Note_on_c, 6, 66, 124
13, 32200, Note_off_c, 6, 66, 64
13, 32256, Note_on_c, 6, 66, 126
13, 32304, Note_off_c, 6, 66, 64
13, 32454, Note_on_c, 6, 66, 127
13, 32500, Note_off_c, 6, 66, 64
13, 32651, Note_on_c, 6, 66, 127
13, 32694, Note_off_c, 6, 66, 64
13, 32840, Note_on_c, 6, 64, 126
13, 32881, Note_off_c, 6, 64, 64
13, 32947, Note_on_c, 6, 64, 122
13, 32995, Note_off_c, 6, 64, 64
13, 39556, Note_on_c, 6, 59, 83
13, 39617, Note_off_c, 6, 59, 64
13, 39656, Note_on_c, 6, 61, 109
13, 39707, Note_off_c, 6, 61, 64
13, 39736, Note_on_c, 6, 64, 116
13, 39777, Note_off_c, 6, 64, 64
13, 39838, Note_on_c, 6, 66, 127
13, 39886, Note_off_c, 6, 66, 64
13, 41081, Note_on_c, 6, 64, 108
13, 41113, Note_off_c, 6, 64, 64
13, 41188, Note_on_c, 6, 66, 127
13, 41241, Note_off_c, 6, 66, 64
13, 41387, Note_on_c, 6, 66, 124
13, 41433, Note_off_c, 6, 66, 64
13, 41574, Note_on_c, 6, 64, 120
13, 41612, Note_off_c, 6, 64, 64
13, 41673, Note_on_c, 6, 66, 127
13, 41715, Note_off_c, 6, 66, 64
13, 41768, Note_on_c, 6, 64, 117
13, 41800, Note_off_c, 6, 64, 64
13, 41857, Note_on_c, 6, 68, 122
13, 41918, Note_off_c, 6, 68, 64
13, 42064, Note_on_c, 6, 66, 126
13, 42115, Note_off_c, 6, 66, 64
13, 42236, Note_on_c, 6, 59, 124
13, 42278, Note_off_c, 6, 59, 64
13, 42619, Note_on_c, 6, 59, 98
13, 42675, Note_off_c, 6, 59, 64
13, 42728, Note_on_c, 6, 61, 117
13, 42779, Note_off_c, 6, 61, 64
13, 42798, Note_on_c, 6, 64, 111
13, 42835, Note_off_c, 6, 64, 64
13, 42905, Note_on_c, 6, 66, 124
13, 42958, Note_off_c, 6, 66, 64
13, 44096, Note_on_c, 6, 66, 121
13, 44120, Note_off_c, 6, 66, 64
13, 44166, Note_on_c, 6, 66, 121
13, 44204, Note_off_c, 6, 66, 64
13, 44260, Note_on_c, 6, 66, 121
13, 44289, Note_off_c, 6, 66, 64
13, 44345, Note_on_c, 6, 66, 127
13, 44377, Note_off_c, 6, 66, 64
13, 44430, Note_on_c, 6, 66, 126
13, 44462, Note_off_c, 6, 66, 64
13, 44534, Note_on_c, 6, 66, 127
13, 44576, Note_off_c, 6, 66, 64
13, 45705, Note_on_c, 6, 59, 99
13, 45785, Note_on_c, 6, 61, 111
13, 45798, Note_off_c, 6, 59, 64
13, 45865, Note_off_c, 6, 61, 64
13, 45883, Note_on_c, 6, 64, 121
13, 45926, Note_off_c, 6, 64, 64
13, 45982, Note_on_c, 6, 66, 127
13, 46038, Note_off_c, 6, 66, 64
13, 47148, Note_on_c, 6, 64, 108
13, 47187, Note_off_c, 6, 64, 64
13, 47243, Note_on_c, 6, 66, 122
13, 47280, Note_off_c, 6, 66, 64
13, 47332, Note_on_c, 6, 66, 122
13, 47369, Note_off_c, 6, 66, 64
13, 47440, Note_on_c, 6, 66, 124
13, 47468, Note_off_c, 6, 66, 64
13, 47524, Note_on_c, 6, 66, 122
13, 47558, Note_off_c, 6, 66, 64
13, 47619, Note_on_c, 6, 66, 122
13, 47680, Note_off_c, 6, 66, 64
13, 47817, Note_on_c, 6, 66, 124
13, 47864, Note_off_c, 6, 66, 64
13, 47905, Note_on_c, 6, 64, 120
13, 47939, Note_off_c, 6, 64, 64
13, 48000, Note_on_c, 6, 68, 127
13, 48070, Note_off_c, 6, 68, 64
13, 48203, Note_on_c, 6, 66, 127
13, 48264, Note_off_c, 6, 66, 64
13, 48424, Note_on_c, 6, 59, 117
13, 48489, Note_off_c, 6, 59, 64
13, 48574, Note_on_c, 6, 59, 99
13, 48640, Note_off_c, 6, 59, 64
13, 48768, Note_on_c, 6, 59, 82
13, 48838, Note_off_c, 6, 59, 64
13, 48865, Note_on_c, 6, 61, 87
13, 48923, Note_off_c, 6, 61, 64
13, 48955, Note_on_c, 6, 64, 121
13, 48998, Note_off_c, 6, 64, 64
13, 49054, Note_on_c, 6, 66, 126
13, 49105, Note_off_c, 6, 66, 64
13, 50310, Note_on_c, 6, 66, 124
13, 50347, Note_off_c, 6, 66, 64
13, 50404, Note_on_c, 6, 66, 124
13, 50436, Note_off_c, 6, 66, 64
13, 50492, Note_on_c, 6, 66, 124
13, 50531, Note_off_c, 6, 66, 64
13, 50592, Note_on_c, 6, 66, 121
13, 50625, Note_off_c, 6, 66, 64
13, 50681, Note_on_c, 6, 66, 121
13, 50720, Note_off_c, 6, 66, 64
13, 50888, Note_on_c, 6, 66, 127
13, 50926, Note_off_c, 6, 66, 64
13, 51072, Note_on_c, 6, 68, 127
13, 51120, Note_off_c, 6, 68, 64
13, 51283, Note_on_c, 6, 66, 127
13, 51316, Note_off_c, 6, 66, 64
13, 51476, Note_on_c, 6, 64, 122
13, 51513, Note_off_c, 6, 64, 64
13, 51668, Note_on_c, 6, 68, 127
13, 51712, Note_off_c, 6, 68, 64
13, 51857, Note_on_c, 6, 66, 127
13, 51900, Note_off_c, 6, 66, 64
13, 52393, Note_on_c, 6, 64, 108
13, 52432, Note_off_c, 6, 64, 64
13, 52502, Note_on_c, 6, 64, 111
13, 52539, Note_off_c, 6, 64, 64
13, 52606, Note_on_c, 6, 66, 124
13, 52643, Note_off_c, 6, 66, 64
13, 52708, Note_on_c, 6, 66, 121
13, 52742, Note_off_c, 6, 66, 64
13, 52808, Note_on_c, 6, 66, 124
13, 52841, Note_off_c, 6, 66, 64
13, 52897, Note_on_c, 6, 66, 122
13, 52924, Note_off_c, 6, 66, 64
13, 52992, Note_on_c, 6, 66, 122
13, 53043, Note_off_c, 6, 66, 64
13, 53104, Note_on_c, 6, 64, 124
13, 53152, Note_off_c, 6, 64, 64
13, 53292, Note_on_c, 6, 64, 124
13, 53569, Note_on_c, 6, 66, 127
13, 53584, Note_off_c, 6, 64, 64
13, 53603, Note_off_c, 6, 66, 64
13, 54628, Note_on_c, 6, 64, 117
13, 54665, Note_off_c, 6, 64, 64
13, 54726, Note_on_c, 6, 68, 124
13, 54788, Note_off_c, 6, 68, 64
13, 54920, Note_on_c, 6, 66, 127
13, 54971, Note_off_c, 6, 66, 64
13, 55480, Note_on_c, 6, 66, 124
13, 55516, Note_off_c, 6, 66, 64
13, 55584, Note_on_c, 6, 66, 122
13, 55620, Note_off_c, 6, 66, 64
13, 55681, Note_on_c, 6, 66, 127
13, 55720, Note_off_c, 6, 66, 64
13, 55780, Note_on_c, 6, 66, 127
13, 55819, Note_off_c, 6, 66, 64
13, 55870, Note_on_c, 6, 66, 122
13, 55912, Note_off_c, 6, 66, 64
13, 55979, Note_on_c, 6, 66, 127
13, 56016, Note_off_c, 6, 66, 64
13, 56072, Note_on_c, 6, 66, 127
13, 56115, Note_off_c, 6, 66, 64
13, 56171, Note_on_c, 6, 64, 120
13, 56214, Note_off_c, 6, 64, 64
13, 56364, Note_on_c, 6, 64, 124
13, 56636, Note_on_c, 6, 66, 127
13, 56646, Note_off_c, 6, 64, 64
13, 56665, Note_off_c, 6, 66, 64
13, 57788, Note_on_c, 6, 64, 121
13, 57827, Note_off_c, 6, 64, 64
13, 57888, Note_on_c, 6, 66, 127
13, 57926, Note_off_c, 6, 66, 64
13, 57992, Note_on_c, 6, 66, 126
13, 58043, Note_off_c, 6, 66, 64
13, 58193, Note_on_c, 6, 66, 126
13, 58232, Note_off_c, 6, 66, 64
13, 58288, Note_on_c, 6, 66, 124
13, 58321, Note_off_c, 6, 66, 64
13, 58368, Note_on_c, 6, 66, 127
13, 58424, Note_off_c, 6, 66, 64
13, 58758, Note_on_c, 6, 66, 126
13, 58792, Note_off_c, 6, 66, 64
13, 58857, Note_on_c, 6, 64, 124
13, 58894, Note_off_c, 6, 64, 64
13, 58956, Note_on_c, 6, 64, 127
13, 58988, Note_off_c, 6, 64, 64
13, 59044, Note_on_c, 6, 64, 122
13, 59083, Note_off_c, 6, 64, 64
13, 59137, Note_on_c, 6, 78, 127
13, 59433, Pitch_bend_c, 6, 8192
13, 59494, Pitch_bend_c, 6, 8192
13, 59518, Pitch_bend_c, 6, 8448
13, 59532, Pitch_bend_c, 6, 8704
13, 59632, Pitch_bend_c, 6, 8448
13, 59640, Pitch_bend_c, 6, 8192
13, 59644, Pitch_bend_c, 6, 8192
13, 60764, Note_off_c, 6, 78, 64
13, 65694, Note_on_c, 6, 59, 91
13, 65769, Note_off_c, 6, 59, 64
13, 65779, Note_on_c, 6, 61, 117
13, 65835, Note_off_c, 6, 61, 64
13, 65872, Note_on_c, 6, 64, 121
13, 65910, Note_off_c, 6, 64, 64
13, 65966, Note_on_c, 6, 66, 127
13, 66022, Note_off_c, 6, 66, 64
13, 67222, Note_on_c, 6, 64, 111
13, 67260, Note_off_c, 6, 64, 64
13, 67312, Note_on_c, 6, 66, 127
13, 67363, Note_off_c, 6, 66, 64
13, 67508, Note_on_c, 6, 66, 127
13, 67561, Note_off_c, 6, 66, 64
13, 67702, Note_on_c, 6, 64, 121
13, 67744, Note_off_c, 6, 64, 64
13, 67801, Note_on_c, 6, 66, 124
13, 67843, Note_off_c, 6, 66, 64
13, 67886, Note_on_c, 6, 64, 120
13, 67923, Note_off_c, 6, 64, 64
13, 67993, Note_on_c, 6, 68, 124
13, 68059, Note_off_c, 6, 68, 64
13, 68187, Note_on_c, 6, 66, 127
13, 68238, Note_off_c, 6, 66, 64
13, 68374, Note_on_c, 6, 59, 111
13, 68436, Note_off_c, 6, 59, 64
13, 68774, Note_on_c, 6, 68, 126
13, 68808, Note_off_c, 6, 68, 64
13, 68868, Note_on_c, 6, 68, 127
13, 68912, Note_off_c, 6, 68, 64
13, 69057, Note_on_c, 6, 68, 127
13, 69113, Note_off_c, 6, 68, 64
13, 69244, Note_on_c, 6, 66, 127
13, 69292, Note_off_c, 6, 66, 64
13, 69438, Note_on_c, 6, 66, 127
13, 69622, Note_on_c, 6, 64, 121
13, 69625, Note_off_c, 6, 66, 64
13, 69659, Note_off_c, 6, 64, 64
13, 70280, Note_on_c, 6, 64, 116
13, 70323, Note_off_c, 6, 64, 64
13, 70374, Note_on_c, 6, 66, 124
13, 70420, Note_off_c, 6, 66, 64
13, 70483, Note_on_c, 6, 64, 117
13, 70520, Note_off_c, 6, 64, 64
13, 70571, Note_on_c, 6, 66, 126
13, 70624, Note_off_c, 6, 66, 64
13, 70760, Note_on_c, 6, 66, 122
13, 70793, Note_off_c, 6, 66, 64
13, 70849, Note_on_c, 6, 66, 121
13, 70878, Note_off_c, 6, 66, 64
13, 70934, Note_on_c, 6, 66, 121
13, 70971, Note_off_c, 6, 66, 64
13, 71033, Note_on_c, 6, 68, 124
13, 71104, Note_off_c, 6, 68, 64
13, 71225, Note_on_c, 6, 66, 127
13, 71276, Note_off_c, 6, 66, 64
13, 71404, Note_on_c, 6, 64, 124
13, 71456, Note_off_c, 6, 64, 64
13, 71620, Note_on_c, 6, 68, 126
13, 71659, Note_off_c, 6, 68, 64
13, 71814, Note_on_c, 6, 66, 126
13, 71860, Note_off_c, 6, 66, 64
13, 72369, Note_on_c, 6, 66, 124
13, 72406, Note_off_c, 6, 66, 64
13, 72467, Note_on_c, 6, 66, 124
13, 72505, Note_off_c, 6, 66, 64
13, 72571, Note_on_c, 6, 66, 120
13, 72608, Note_off_c, 6, 66, 64
13, 72675, Note_on_c, 6, 66, 124
13, 72702, Note_off_c, 6, 66, 64
13, 72768, Note_on_c, 6, 66, 124
13, 72806, Note_off_c, 6, 66, 64
13, 72867, Note_on_c, 6, 66, 122
13, 72900, Note_off_c, 6, 66, 64
13, 72952, Note_on_c, 6, 66, 126
13, 73060, Note_off_c, 6, 66, 64
13, 73070, Note_on_c, 6, 64, 122
13, 73116, Note_off_c, 6, 64, 64
13, 73248, Note_on_c, 6, 64, 120
13, 73540, Note_on_c, 6, 66, 127
13, 73548, Note_off_c, 6, 64, 64
13, 73577, Note_off_c, 6, 66, 64
13, 74598, Note_on_c, 6, 64, 81
13, 74688, Note_off_c, 6, 64, 64
13, 74697, Note_on_c, 6, 68, 122
13, 74796, Note_off_c, 6, 68, 64
13, 74884, Note_on_c, 6, 66, 124
13, 74998, Note_off_c, 6, 66, 64
13, 75468, Note_on_c, 6, 66, 120
13, 75505, Note_off_c, 6, 66, 64
13, 75558, Note_on_c, 6, 66, 120
13, 75595, Note_off_c, 6, 66, 64
13, 75648, Note_on_c, 6, 66, 124
13, 75689, Note_off_c, 6, 66, 64
13, 75740, Note_on_c, 6, 66, 122
13, 75779, Note_off_c, 6, 66, 64
13, 75835, Note_on_c, 6, 66, 122
13, 75878, Note_off_c, 6, 66, 64
13, 75934, Note_on_c, 6, 66, 124
13, 75972, Note_off_c, 6, 66, 64
13, 76033, Note_on_c, 6, 66, 127
13, 76080, Note_off_c, 6, 66, 64
13, 76136, Note_on_c, 6, 64, 121
13, 76184, Note_off_c, 6, 64, 64
13, 76334, Note_on_c, 6, 64, 127
13, 76611, Note_on_c, 6, 66, 127
13, 76625, Note_off_c, 6, 64, 64
13, 76654, Note_off_c, 6, 66, 64
13, 77771, Note_on_c, 6, 64, 116
13, 77828, Note_off_c, 6, 64, 64
13, 77875, Note_on_c, 6, 66, 127
13, 77926, Note_off_c, 6, 66, 64
13, 77979, Note_on_c, 6, 66, 127
13, 78120, Note_off_c, 6, 66, 64
13, 78156, Note_on_c, 6, 66, 121
13, 78209, Note_off_c, 6, 66, 64
13, 78251, Note_on_c, 6, 66, 122
13, 78299, Note_off_c, 6, 66, 64
13, 78336, Note_on_c, 6, 66, 127
13, 78510, Note_off_c, 6, 66, 64
13, 78552, Note_on_c, 6, 66, 127
13, 78684, Note_off_c, 6, 66, 64
13, 78726, Note_on_c, 6, 66, 126
13, 78881, Note_off_c, 6, 66, 64
13, 78915, Note_on_c, 6, 64, 121
13, 78966, Note_off_c, 6, 64, 64
13, 79017, Note_on_c, 6, 64, 124
13, 79244, Note_off_c, 6, 64, 64
13, 79244, End_track
14, 0, Start_track
14, 0, Title_t, "0+> BACKING VOX"
14, 0, Channel_prefix, 10
14, 0, Control_c, 10, 7, 100
14, 0, Control_c, 10, 10, 0
14, 0, Program_c, 10, 52
14, 19856, Note_on_c, 10, 59, 120
14, 19907, Note_off_c, 10, 59, 64
14, 19958, Note_on_c, 10, 59, 120
14, 20094, Note_off_c, 10, 59, 64
14, 20142, Note_on_c, 10, 59, 117
14, 20193, Note_off_c, 10, 59, 64
14, 20236, Note_on_c, 10, 59, 121
14, 20457, Note_off_c, 10, 59, 64
14, 23219, Note_on_c, 10, 59, 121
14, 23304, Note_off_c, 10, 59, 64
14, 23406, Note_on_c, 10, 59, 117
14, 23702, Note_on_c, 10, 61, 117
14, 23731, Note_off_c, 10, 59, 64
14, 23806, Note_on_c, 10, 57, 122
14, 23811, Note_off_c, 10, 61, 64
14, 23971, Note_off_c, 10, 57, 64
14, 25904, Note_on_c, 10, 64, 84
14, 26078, Note_off_c, 10, 64, 64
14, 26107, Note_on_c, 10, 63, 122
14, 26308, Note_off_c, 10, 63, 64
14, 29000, Note_on_c, 10, 64, 99
14, 29184, Note_off_c, 10, 64, 64
14, 29184, Note_on_c, 10, 63, 89
14, 29432, Note_off_c, 10, 63, 64
14, 31678, Note_on_c, 10, 64, 92
14, 31729, Note_off_c, 10, 64, 64
14, 31782, Note_on_c, 10, 64, 99
14, 31828, Note_off_c, 10, 64, 64
14, 31881, Note_on_c, 10, 64, 108
14, 32017, Note_off_c, 10, 64, 64
14, 32073, Note_on_c, 10, 64, 108
14, 32124, Note_off_c, 10, 64, 64
14, 32163, Note_on_c, 10, 64, 106
14, 32209, Note_off_c, 10, 64, 64
14, 32257, Note_on_c, 10, 63, 126
14, 32403, Note_off_c, 10, 63, 64
14, 43193, Note_on_c, 10, 59, 121
14, 43268, Note_off_c, 10, 59, 64
14, 43392, Note_on_c, 10, 59, 117
14, 43702, Note_on_c, 10, 61, 85
14, 43712, Note_off_c, 10, 59, 64
14, 43787, Note_off_c, 10, 61, 64
14, 43787, Note_on_c, 10, 57, 117
14, 44073, Note_off_c, 10, 57, 64
14, 46275, Note_on_c, 10, 59, 111
14, 46312, Note_off_c, 10, 59, 64
14, 46364, Note_on_c, 10, 59, 111
14, 46406, Note_off_c, 10, 59, 64
14, 46462, Note_on_c, 10, 59, 121
14, 46796, Note_on_c, 10, 61, 120
14, 46811, Note_off_c, 10, 59, 64
14, 46849, Note_off_c, 10, 61, 64
14, 46852, Note_on_c, 10, 57, 108
14, 47187, Note_off_c, 10, 57, 64
14, 48776, Note_on_c, 10, 64, 87
14, 48827, Note_off_c, 10, 64, 64
14, 48870, Note_on_c, 10, 64, 92
14, 48921, Note_off_c, 10, 64, 64
14, 48960, Note_on_c, 10, 64, 93
14, 49006, Note_off_c, 10, 64, 64
14, 49048, Note_on_c, 10, 63, 127
14, 49256, Note_off_c, 10, 63, 64
14, 52035, Note_on_c, 10, 64, 84
14, 52209, Note_on_c, 10, 63, 117
14, 52228, Note_off_c, 10, 64, 64
14, 52520, Note_off_c, 10, 63, 64
14, 55092, Note_on_c, 10, 64, 85
14, 55300, Note_on_c, 10, 63, 117
14, 55318, Note_off_c, 10, 64, 64
14, 55611, Note_off_c, 10, 63, 64
14, 57793, Note_on_c, 10, 64, 89
14, 57830, Note_off_c, 10, 64, 64
14, 57883, Note_on_c, 10, 64, 89
14, 57929, Note_off_c, 10, 64, 64
14, 57990, Note_on_c, 10, 64, 101
14, 58113, Note_off_c, 10, 64, 64
14, 58184, Note_on_c, 10, 64, 117
14, 58230, Note_off_c, 10, 64, 64
14, 58278, Note_on_c, 10, 64, 116
14, 58324, Note_off_c, 10, 64, 64
14, 58368, Note_on_c, 10, 63, 127
14, 58531, Note_off_c, 10, 63, 64
14, 71968, Note_on_c, 10, 64, 92
14, 72179, Note_on_c, 10, 63, 124
14, 72184, Note_off_c, 10, 64, 64
14, 72424, Note_off_c, 10, 63, 64
14, 75081, Note_on_c, 10, 64, 93
14, 75265, Note_on_c, 10, 63, 117
14, 75278, Note_off_c, 10, 64, 64
14, 75636, Note_off_c, 10, 63, 64
14, 77758, Note_on_c, 10, 64, 120
14, 77796, Note_off_c, 10, 64, 64
14, 77857, Note_on_c, 10, 64, 121
14, 77896, Note_off_c, 10, 64, 64
14, 77956, Note_on_c, 10, 64, 116
14, 78097, Note_off_c, 10, 64, 64
14, 78139, Note_on_c, 10, 64, 116
14, 78182, Note_off_c, 10, 64, 64
14, 78228, Note_on_c, 10, 64, 116
14, 78272, Note_off_c, 10, 64, 64
14, 78328, Note_on_c, 10, 63, 124
14, 78464, Note_off_c, 10, 63, 64
14, 78524, Note_on_c, 10, 64, 120
14, 78652, Note_off_c, 10, 64, 64
14, 78718, Note_on_c, 10, 64, 120
14, 78859, Note_off_c, 10, 64, 64
14, 78912, Note_on_c, 10, 64, 117
14, 78953, Note_off_c, 10, 64, 64
14, 79009, Note_on_c, 10, 64, 120
14, 79169, Note_on_c, 10, 62, 89
14, 79174, Note_off_c, 10, 64, 64
14, 79222, Note_off_c, 10, 62, 64
14, 79230, Note_on_c, 10, 59, 124
14, 79452, Note_off_c, 10, 59, 64
14, 83115, Note_on_c, 10, 59, 120
14, 83236, Note_off_c, 10, 59, 64
14, 83316, Note_on_c, 10, 59, 121
14, 83585, Note_on_c, 10, 61, 108
14, 83603, Note_off_c, 10, 59, 64
14, 83692, Note_on_c, 10, 57, 122
14, 83721, Note_off_c, 10, 61, 64
14, 84116, Note_off_c, 10, 57, 64
14, 86209, Note_on_c, 10, 71, 116
14, 86318, Note_off_c, 10, 71, 64
14, 86384, Note_on_c, 10, 71, 116
14, 86694, Note_on_c, 10, 73, 116
14, 86723, Note_off_c, 10, 71, 64
14, 86798, Note_on_c, 10, 69, 117
14, 86825, Note_off_c, 10, 73, 64
14, 87344, Note_off_c, 10, 69, 64
14, 88716, Note_on_c, 10, 69, 72
14, 88755, Note_off_c, 10, 69, 64
14, 89252, Note_on_c, 10, 71, 121
14, 89318, Note_off_c, 10, 71, 64
14, 89451, Note_on_c, 10, 71, 116
14, 89728, Note_on_c, 10, 73, 98
14, 89761, Note_off_c, 10, 71, 64
14, 89836, Note_on_c, 10, 69, 116
14, 89856, Note_off_c, 10, 73, 64
14, 90414, Note_off_c, 10, 69, 64
14, 90414, End_track
15, 0, Start_track
15, 0, Title_t, "0+> BACKING VOX"
15, 0, Channel_prefix, 11
15, 0, Control_c, 11, 7, 100
15, 0, Control_c, 11, 10, 125
15, 0, Program_c, 11, 52
15, 19856, Note_on_c, 11, 59, 120
15, 19907, Note_off_c, 11, 59, 64
15, 19958, Note_on_c, 11, 59, 120
15, 20094, Note_off_c, 11, 59, 64
15, 20142, Note_on_c, 11, 59, 117
15, 20193, Note_off_c, 11, 59, 64
15, 20236, Note_on_c, 11, 59, 121
15, 20457, Note_off_c, 11, 59, 64
15, 23219, Note_on_c, 11, 59, 121
15, 23304, Note_off_c, 11, 59, 64
15, 23406, Note_on_c, 11, 59, 117
15, 23702, Note_on_c, 11, 61, 117
15, 23731, Note_off_c, 11, 59, 64
15, 23806, Note_on_c, 11, 57, 122
15, 23811, Note_off_c, 11, 61, 64
15, 23971, Note_off_c, 11, 57, 64
15, 25904, Note_on_c, 11, 64, 84
15, 26078, Note_off_c, 11, 64, 64
15, 26107, Note_on_c, 11, 63, 122
15, 26308, Note_off_c, 11, 63, 64
15, 29000, Note_on_c, 11, 64, 99
15, 29184, Note_off_c, 11, 64, 64
15, 29184, Note_on_c, 11, 63, 89
15, 29432, Note_off_c, 11, 63, 64
15, 31678, Note_on_c, 11, 64, 92
15, 31729, Note_off_c, 11, 64, 64
15, 31782, Note_on_c, 11, 64, 99
15, 31828, Note_off_c, 11, 64, 64
15, 31881, Note_on_c, 11, 64, 108
15, 32017, Note_off_c, 11, 64, 64
15, 32073, Note_on_c, 11, 64, 108
15, 32124, Note_off_c, 11, 64, 64
15, 32163, Note_on_c, 11, 64, 106
15, 32209, Note_off_c, 11, 64, 64
15, 32257, Note_on_c, 11, 63, 126
15, 32403, Note_off_c, 11, 63, 64
15, 43193, Note_on_c, 11, 59, 121
15, 43268, Note_off_c, 11, 59, 64
15, 43392, Note_on_c, 11, 59, 117
15, 43702, Note_on_c, 11, 61, 85
15, 43712, Note_off_c, 11, 59, 64
15, 43787, Note_off_c, 11, 61, 64
15, 43787, Note_on_c, 11, 57, 117
15, 44073, Note_off_c, 11, 57, 64
15, 46275, Note_on_c, 11, 59, 111
15, 46312, Note_off_c, 11, 59, 64
15, 46364, Note_on_c, 11, 59, 111
15, 46406, Note_off_c, 11, 59, 64
15, 46462, Note_on_c, 11, 59, 121
15, 46796, Note_on_c, 11, 61, 120
15, 46811, Note_off_c, 11, 59, 64
15, 46849, Note_off_c, 11, 61, 64
15, 46852, Note_on_c, 11, 57, 108
15, 47187, Note_off_c, 11, 57, 64
15, 48776, Note_on_c, 11, 64, 87
15, 48827, Note_off_c, 11, 64, 64
15, 48870, Note_on_c, 11, 64, 92
15, 48921, Note_off_c, 11, 64, 64
15, 48960, Note_on_c, 11, 64, 93
15, 49006, Note_off_c, 11, 64, 64
15, 49048, Note_on_c, 11, 63, 127
15, 49256, Note_off_c, 11, 63, 64
15, 52035, Note_on_c, 11, 64, 84
15, 52209, Note_on_c, 11, 63, 117
15, 52228, Note_off_c, 11, 64, 64
15, 52520, Note_off_c, 11, 63, 64
15, 55092, Note_on_c, 11, 64, 85
15, 55300, Note_on_c, 11, 63, 117
15, 55318, Note_off_c, 11, 64, 64
15, 55611, Note_off_c, 11, 63, 64
15, 57793, Note_on_c, 11, 64, 89
15, 57830, Note_off_c, 11, 64, 64
15, 57883, Note_on_c, 11, 64, 89
15, 57929, Note_off_c, 11, 64, 64
15, 57990, Note_on_c, 11, 64, 101
15, 58113, Note_off_c, 11, 64, 64
15, 58184, Note_on_c, 11, 64, 117
15, 58230, Note_off_c, 11, 64, 64
15, 58278, Note_on_c, 11, 64, 116
15, 58324, Note_off_c, 11, 64, 64
15, 58368, Note_on_c, 11, 63, 127
15, 58531, Note_off_c, 11, 63, 64
15, 71968, Note_on_c, 11, 64, 92
15, 72179, Note_on_c, 11, 63, 124
15, 72184, Note_off_c, 11, 64, 64
15, 72424, Note_off_c, 11, 63, 64
15, 75081, Note_on_c, 11, 64, 93
15, 75265, Note_on_c, 11, 63, 117
15, 75278, Note_off_c, 11, 64, 64
15, 75636, Note_off_c, 11, 63, 64
15, 77758, Note_on_c, 11, 64, 120
15, 77796, Note_off_c, 11, 64, 64
15, 77857, Note_on_c, 11, 64, 121
15, 77896, Note_off_c, 11, 64, 64
15, 77956, Note_on_c, 11, 64, 116
15, 78097, Note_off_c, 11, 64, 64
15, 78139, Note_on_c, 11, 64, 116
15, 78182, Note_off_c, 11, 64, 64
15, 78228, Note_on_c, 11, 64, 116
15, 78272, Note_off_c, 11, 64, 64
15, 78328, Note_on_c, 11, 63, 124
15, 78464, Note_off_c, 11, 63, 64
15, 78524, Note_on_c, 11, 64, 120
15, 78652, Note_off_c, 11, 64, 64
15, 78718, Note_on_c, 11, 64, 120
15, 78859, Note_off_c, 11, 64, 64
15, 78912, Note_on_c, 11, 64, 117
15, 78953, Note_off_c, 11, 64, 64
15, 79009, Note_on_c, 11, 64, 120
15, 79169, Note_on_c, 11, 62, 89
15, 79174, Note_off_c, 11, 64, 64
15, 79222, Note_off_c, 11, 62, 64
15, 79230, Note_on_c, 11, 59, 124
15, 79452, Note_off_c, 11, 59, 64
15, 83115, Note_on_c, 11, 59, 120
15, 83236, Note_off_c, 11, 59, 64
15, 83316, Note_on_c, 11, 59, 121
15, 83585, Note_on_c, 11, 61, 108
15, 83603, Note_off_c, 11, 59, 64
15, 83692, Note_on_c, 11, 57, 122
15, 83721, Note_off_c, 11, 61, 64
15, 84116, Note_off_c, 11, 57, 64
15, 86209, Note_on_c, 11, 71, 116
15, 86318, Note_off_c, 11, 71, 64
15, 86384, Note_on_c, 11, 71, 116
15, 86694, Note_on_c, 11, 73, 116
15, 86723, Note_off_c, 11, 71, 64
15, 86798, Note_on_c, 11, 69, 117
15, 86825, Note_off_c, 11, 73, 64
15, 87344, Note_off_c, 11, 69, 64
15, 88716, Note_on_c, 11, 69, 72
15, 88755, Note_off_c, 11, 69, 64
15, 89252, Note_on_c, 11, 71, 121
15, 89318, Note_off_c, 11, 71, 64
15, 89451, Note_on_c, 11, 71, 116
15, 89728, Note_on_c, 11, 73, 98
15, 89761, Note_off_c, 11, 71, 64
15, 89836, Note_on_c, 11, 69, 116
15, 89856, Note_off_c, 11, 73, 64
15, 90414, Note_off_c, 11, 69, 64
15, 90414, End_track
0, 0, End_of_file
