0, 0, Header, 0, 1, 384
1, 0, Start_track
1, 0, Title_t, "By Nokio-Copyrighted ®"
1, 0, Control_c, 2, 0, 0
1, 0, Program_c, 2, 24
1, 0, Control_c, 5, 0, 0
1, 0, Program_c, 5, 48
1, 0, Control_c, 5, 10, 74
1, 0, Control_c, 5, 91, 52
1, 0, Control_c, 5, 93, 30
1, 0, Time_signature, 4, 2, 96, 8
1, 0, Sequencer_specific, 3, 0, 0, 65
1, 0, Tempo, 645161
1, 0, Note_on_c, 9, 42, 110
1, 92, Note_off_c, 9, 42, 0
1, 292, Control_c, 1, 121, 0
1, 296, Control_c, 2, 121, 0
1, 308, Control_c, 5, 121, 0
1, 324, Control_c, 9, 121, 0
1, 384, Note_on_c, 9, 42, 90
1, 440, Control_c, 1, 11, 127
1, 472, Control_c, 2, 11, 127
1, 476, Note_off_c, 9, 42, 0
1, 568, Control_c, 5, 11, 127
1, 684, Program_c, 9, 0
1, 688, Control_c, 9, 7, 100
1, 692, Control_c, 9, 10, 64
1, 696, Control_c, 9, 11, 127
1, 700, Control_c, 9, 91, 20
1, 704, Control_c, 9, 93, 0
1, 768, Note_on_c, 9, 42, 90
1, 860, Note_off_c, 9, 42, 0
1, 1152, Note_on_c, 9, 42, 90
1, 1244, Note_off_c, 9, 42, 0
1, 1532, Note_on_c, 2, 65, 91
1, 1532, Note_on_c, 9, 56, 123
1, 1536, Note_on_c, 2, 60, 102
1, 1536, Note_on_c, 2, 68, 91
1, 1536, Note_on_c, 5, 72, 123
1, 1536, Note_on_c, 9, 82, 89
1, 1540, Note_on_c, 2, 53, 106
1, 1556, Note_off_c, 9, 82, 0
1, 1564, Note_off_c, 9, 56, 64
1, 1628, Note_on_c, 9, 82, 74
1, 1652, Note_off_c, 9, 82, 0
1, 1720, Note_off_c, 5, 72, 0
1, 1724, Note_on_c, 9, 82, 81
1, 1732, Note_on_c, 9, 42, 127
1, 1748, Note_off_c, 9, 82, 0
1, 1760, Note_off_c, 2, 60, 0
1, 1760, Note_off_c, 2, 53, 0
1, 1764, Note_off_c, 9, 42, 0
1, 1772, Note_off_c, 2, 65, 64
1, 1772, Note_off_c, 2, 68, 0
1, 1820, Note_on_c, 9, 82, 89
1, 1828, Note_on_c, 9, 56, 114
1, 1852, Note_off_c, 9, 82, 0
1, 1856, Note_off_c, 9, 56, 0
1, 2108, Note_on_c, 9, 42, 123
1, 2108, Note_on_c, 9, 82, 98
1, 2112, Note_on_c, 9, 56, 106
1, 2132, Note_off_c, 9, 82, 0
1, 2144, Note_off_c, 9, 42, 0
1, 2144, Note_off_c, 9, 56, 0
1, 2204, Note_on_c, 9, 82, 81
1, 2232, Note_off_c, 9, 82, 0
1, 2300, Note_on_c, 5, 72, 114
1, 2300, Note_on_c, 9, 82, 81
1, 2304, Note_on_c, 9, 56, 106
1, 2328, Note_off_c, 9, 82, 0
1, 2328, Note_off_c, 9, 56, 0
1, 2392, Note_on_c, 9, 82, 74
1, 2404, Note_on_c, 9, 56, 106
1, 2428, Note_off_c, 9, 82, 0
1, 2440, Note_off_c, 9, 56, 0
1, 2452, Note_off_c, 5, 72, 0
1, 2488, Note_on_c, 9, 82, 81
1, 2496, Note_on_c, 9, 42, 127
1, 2524, Note_off_c, 9, 82, 0
1, 2528, Note_off_c, 9, 42, 0
1, 2584, Note_on_c, 9, 82, 89
1, 2592, Note_on_c, 9, 56, 114
1, 2596, Note_on_c, 2, 65, 96
1, 2596, Note_on_c, 2, 60, 102
1, 2596, Note_on_c, 5, 72, 110
1, 2600, Note_on_c, 2, 68, 99
1, 2600, Note_on_c, 2, 53, 110
1, 2624, Note_off_c, 9, 82, 0
1, 2632, Note_off_c, 9, 56, 0
1, 2756, Note_off_c, 5, 72, 0
1, 2780, Note_on_c, 9, 56, 106
1, 2808, Note_off_c, 9, 56, 0
1, 2820, Note_off_c, 2, 53, 0
1, 2824, Note_off_c, 2, 60, 0
1, 2844, Note_off_c, 2, 65, 0
1, 2844, Note_off_c, 2, 68, 0
1, 2876, Note_on_c, 9, 42, 127
1, 2880, Note_on_c, 9, 56, 106
1, 2908, Note_off_c, 9, 42, 0
1, 2916, Note_off_c, 9, 56, 0
1, 3064, Note_on_c, 2, 61, 99
1, 3064, Note_on_c, 2, 68, 114
1, 3064, Note_on_c, 5, 73, 114
1, 3068, Note_on_c, 2, 65, 96
1, 3068, Note_on_c, 2, 58, 99
1, 3068, Note_on_c, 9, 56, 123
1, 3072, Note_on_c, 2, 46, 99
1, 3072, Note_on_c, 9, 82, 89
1, 3100, Note_off_c, 9, 56, 64
1, 3104, Note_off_c, 9, 82, 0
1, 3168, Note_on_c, 9, 82, 89
1, 3200, Note_off_c, 9, 82, 0
1, 3232, Note_off_c, 5, 73, 64
1, 3260, Note_on_c, 9, 42, 127
1, 3260, Note_on_c, 9, 82, 74
1, 3296, Note_off_c, 9, 42, 0
1, 3296, Note_off_c, 9, 82, 0
1, 3336, Note_off_c, 2, 61, 64
1, 3340, Note_off_c, 2, 68, 64
1, 3340, Note_off_c, 2, 58, 64
1, 3348, Note_off_c, 2, 65, 64
1, 3348, Note_off_c, 2, 46, 0
1, 3360, Note_on_c, 9, 82, 81
1, 3364, Note_on_c, 9, 56, 114
1, 3392, Note_off_c, 9, 82, 0
1, 3392, Note_off_c, 9, 56, 0
1, 3644, Note_on_c, 9, 42, 127
1, 3648, Note_on_c, 9, 56, 106
1, 3648, Note_on_c, 9, 82, 98
1, 3680, Note_off_c, 9, 56, 0
1, 3680, Note_off_c, 9, 82, 0
1, 3688, Note_off_c, 9, 42, 0
1, 3744, Note_on_c, 9, 82, 74
1, 3772, Note_off_c, 9, 82, 0
1, 3836, Note_on_c, 5, 73, 123
1, 3840, Note_on_c, 9, 82, 81
1, 3840, Note_on_c, 9, 56, 106
1, 3864, Note_off_c, 9, 56, 0
1, 3876, Note_off_c, 9, 82, 0
1, 3936, Note_on_c, 9, 82, 81
1, 3940, Note_on_c, 9, 56, 106
1, 3968, Note_off_c, 5, 73, 0
1, 3968, Note_off_c, 9, 82, 0
1, 3976, Note_off_c, 9, 56, 0
1, 4028, Note_on_c, 9, 82, 74
1, 4032, Note_on_c, 9, 42, 127
1, 4064, Note_off_c, 9, 82, 0
1, 4072, Note_off_c, 9, 42, 0
1, 4124, Note_on_c, 9, 82, 81
1, 4128, Note_on_c, 5, 73, 114
1, 4128, Note_on_c, 9, 56, 114
1, 4132, Note_on_c, 2, 68, 99
1, 4132, Note_on_c, 2, 61, 91
1, 4132, Note_on_c, 2, 58, 99
1, 4136, Note_on_c, 2, 46, 99
1, 4136, Note_on_c, 2, 65, 96
1, 4156, Note_off_c, 9, 82, 0
1, 4168, Note_off_c, 9, 56, 0
1, 4272, Note_off_c, 5, 73, 0
1, 4316, Note_on_c, 9, 56, 106
1, 4344, Note_off_c, 9, 56, 0
1, 4360, Note_off_c, 2, 61, 0
1, 4364, Note_off_c, 2, 68, 0
1, 4364, Note_off_c, 2, 58, 0
1, 4364, Note_off_c, 2, 46, 0
1, 4368, Note_off_c, 2, 65, 0
1, 4416, Note_on_c, 9, 56, 106
1, 4416, Note_on_c, 9, 42, 127
1, 4452, Note_off_c, 9, 56, 0
1, 4452, Note_off_c, 9, 42, 0
1, 4600, Note_on_c, 5, 70, 114
1, 4604, Note_on_c, 2, 58, 99
1, 4604, Note_on_c, 2, 67, 106
1, 4604, Note_on_c, 9, 82, 89
1, 4608, Note_on_c, 2, 64, 102
1, 4608, Note_on_c, 2, 48, 96
1, 4608, Note_on_c, 9, 56, 114
1, 4636, Note_off_c, 9, 82, 64
1, 4644, Note_off_c, 9, 56, 0
1, 4700, Note_on_c, 9, 82, 74
1, 4704, Note_on_c, 9, 56, 106
1, 4732, Note_off_c, 9, 82, 0
1, 4748, Note_off_c, 9, 56, 0
1, 4780, Note_off_c, 5, 70, 64
1, 4796, Note_on_c, 9, 82, 74
1, 4800, Note_on_c, 9, 42, 127
1, 4828, Note_off_c, 9, 82, 0
1, 4836, Note_off_c, 9, 42, 0
1, 4892, Note_off_c, 2, 58, 64
1, 4892, Note_off_c, 2, 67, 64
1, 4892, Note_on_c, 9, 82, 81
1, 4900, Note_off_c, 2, 48, 0
1, 4904, Note_off_c, 2, 64, 0
1, 4932, Note_off_c, 9, 82, 0
1, 5180, Note_on_c, 9, 42, 127
1, 5184, Note_on_c, 9, 82, 89
1, 5184, Note_on_c, 9, 56, 106
1, 5208, Note_off_c, 9, 82, 0
1, 5216, Note_off_c, 9, 56, 0
1, 5224, Note_off_c, 9, 42, 0
1, 5276, Note_on_c, 9, 82, 74
1, 5308, Note_off_c, 9, 82, 0
1, 5372, Note_on_c, 9, 82, 81
1, 5376, Note_on_c, 5, 70, 114
1, 5376, Note_on_c, 9, 56, 99
1, 5396, Note_off_c, 9, 56, 0
1, 5408, Note_off_c, 9, 82, 0
1, 5468, Note_on_c, 9, 82, 74
1, 5472, Note_on_c, 9, 56, 91
1, 5504, Note_off_c, 9, 82, 0
1, 5504, Note_off_c, 9, 56, 0
1, 5508, Note_off_c, 5, 70, 0
1, 5564, Note_on_c, 9, 42, 127
1, 5564, Note_on_c, 9, 82, 74
1, 5600, Note_off_c, 9, 82, 0
1, 5608, Note_off_c, 9, 42, 0
1, 5660, Note_on_c, 9, 82, 74
1, 5664, Note_on_c, 2, 48, 91
1, 5664, Note_on_c, 2, 67, 102
1, 5664, Note_on_c, 2, 64, 102
1, 5668, Note_on_c, 2, 58, 106
1, 5668, Note_on_c, 9, 56, 114
1, 5672, Note_on_c, 5, 70, 114
1, 5696, Note_off_c, 9, 56, 0
1, 5700, Note_off_c, 9, 82, 0
1, 5804, Note_off_c, 5, 70, 0
1, 5856, Note_on_c, 9, 56, 123
1, 5888, Note_off_c, 9, 56, 0
1, 5916, Note_off_c, 2, 58, 0
1, 5920, Note_off_c, 2, 67, 0
1, 5924, Note_off_c, 2, 48, 0
1, 5932, Note_off_c, 2, 64, 0
1, 5948, Note_on_c, 9, 42, 127
1, 5996, Note_off_c, 9, 42, 0
1, 6136, Note_on_c, 5, 72, 114
1, 6140, Note_on_c, 2, 65, 96
1, 6140, Note_on_c, 2, 68, 99
1, 6140, Note_on_c, 2, 60, 96
1, 6140, Note_on_c, 9, 82, 98
1, 6140, Note_on_c, 9, 56, 114
1, 6144, Note_on_c, 2, 53, 96
1, 6172, Note_off_c, 9, 82, 64
1, 6172, Note_off_c, 9, 56, 64
1, 6236, Note_on_c, 9, 82, 74
1, 6268, Note_off_c, 9, 82, 0
1, 6300, Note_off_c, 5, 72, 64
1, 6328, Note_on_c, 9, 82, 66
1, 6332, Note_on_c, 9, 42, 127
1, 6364, Note_off_c, 9, 82, 0
1, 6376, Note_off_c, 9, 42, 0
1, 6428, Note_on_c, 9, 82, 81
1, 6432, Note_off_c, 2, 60, 64
1, 6436, Note_off_c, 2, 68, 64
1, 6436, Note_off_c, 2, 53, 0
1, 6440, Note_off_c, 2, 65, 64
1, 6464, Note_off_c, 9, 82, 0
1, 6716, Note_on_c, 9, 82, 98
1, 6720, Note_on_c, 9, 42, 127
1, 6724, Note_on_c, 9, 56, 99
1, 6744, Note_off_c, 9, 56, 0
1, 6748, Note_off_c, 9, 82, 0
1, 6764, Note_off_c, 9, 42, 0
1, 6812, Note_on_c, 9, 82, 81
1, 6816, Note_on_c, 9, 56, 99
1, 6844, Note_off_c, 9, 82, 0
1, 6844, Note_off_c, 9, 56, 0
1, 6908, Note_on_c, 9, 82, 81
1, 6912, Note_on_c, 5, 72, 114
1, 6912, Note_on_c, 9, 56, 99
1, 6936, Note_off_c, 9, 56, 0
1, 6948, Note_off_c, 9, 82, 0
1, 7008, Note_on_c, 9, 82, 74
1, 7008, Note_on_c, 9, 56, 99
1, 7036, Note_off_c, 5, 72, 0
1, 7040, Note_off_c, 9, 82, 0
1, 7040, Note_off_c, 9, 56, 0
1, 7100, Note_on_c, 9, 82, 66
1, 7104, Note_on_c, 9, 42, 127
1, 7136, Note_off_c, 9, 82, 0
1, 7152, Note_off_c, 9, 42, 0
1, 7196, Note_on_c, 9, 82, 81
1, 7200, Note_on_c, 2, 60, 86
1, 7200, Note_on_c, 9, 56, 106
1, 7204, Note_on_c, 2, 68, 99
1, 7204, Note_on_c, 2, 65, 96
1, 7204, Note_on_c, 2, 53, 102
1, 7204, Note_on_c, 5, 72, 110
1, 7228, Note_off_c, 9, 82, 0
1, 7232, Note_off_c, 9, 56, 0
1, 7348, Note_off_c, 5, 72, 0
1, 7388, Note_on_c, 9, 56, 114
1, 7424, Note_off_c, 9, 56, 0
1, 7444, Note_off_c, 2, 60, 0
1, 7448, Note_off_c, 2, 68, 0
1, 7448, Note_off_c, 2, 65, 0
1, 7452, Note_off_c, 2, 53, 0
1, 7484, Note_on_c, 9, 42, 127
1, 7532, Note_off_c, 9, 42, 0
1, 7676, Note_on_c, 2, 65, 91
1, 7676, Note_on_c, 9, 35, 123
1, 7676, Note_on_c, 9, 56, 123
1, 7680, Note_on_c, 2, 60, 102
1, 7680, Note_on_c, 2, 68, 91
1, 7680, Note_on_c, 5, 72, 123
1, 7680, Note_on_c, 9, 82, 89
1, 7680, Note_on_c, 1, 41, 127
1, 7684, Note_on_c, 2, 53, 106
1, 7700, Note_off_c, 9, 82, 0
1, 7708, Note_off_c, 9, 56, 64
1, 7724, Note_off_c, 9, 35, 64
1, 7772, Note_on_c, 9, 82, 74
1, 7796, Note_off_c, 9, 82, 0
1, 7864, Note_off_c, 5, 72, 0
1, 7868, Note_on_c, 9, 82, 81
1, 7876, Note_on_c, 9, 42, 127
1, 7892, Note_off_c, 9, 82, 0
1, 7904, Note_off_c, 2, 60, 0
1, 7904, Note_off_c, 2, 53, 0
1, 7908, Note_off_c, 9, 42, 0
1, 7912, Note_off_c, 1, 41, 0
1, 7916, Note_off_c, 2, 65, 64
1, 7916, Note_off_c, 2, 68, 0
1, 7964, Note_on_c, 9, 82, 89
1, 7972, Note_on_c, 9, 56, 114
1, 7996, Note_off_c, 9, 82, 0
1, 8000, Note_off_c, 9, 56, 0
1, 8248, Note_on_c, 9, 35, 123
1, 8252, Note_on_c, 9, 42, 123
1, 8252, Note_on_c, 9, 82, 98
1, 8256, Note_on_c, 9, 56, 106
1, 8276, Note_off_c, 9, 82, 0
1, 8288, Note_off_c, 9, 35, 0
1, 8288, Note_off_c, 9, 42, 0
1, 8288, Note_off_c, 9, 56, 0
1, 8348, Note_on_c, 9, 35, 127
1, 8348, Note_on_c, 9, 82, 81
1, 8376, Note_off_c, 9, 82, 0
1, 8380, Note_off_c, 9, 35, 0
1, 8444, Note_on_c, 5, 72, 114
1, 8444, Note_on_c, 9, 35, 127
1, 8444, Note_on_c, 9, 82, 81
1, 8448, Note_on_c, 9, 56, 106
1, 8472, Note_off_c, 9, 82, 0
1, 8472, Note_off_c, 9, 56, 0
1, 8484, Note_off_c, 9, 35, 0
1, 8536, Note_on_c, 9, 82, 74
1, 8548, Note_on_c, 9, 56, 106
1, 8572, Note_off_c, 9, 82, 0
1, 8584, Note_off_c, 9, 56, 0
1, 8596, Note_off_c, 5, 72, 0
1, 8632, Note_on_c, 9, 82, 81
1, 8640, Note_on_c, 9, 42, 127
1, 8668, Note_off_c, 9, 82, 0
1, 8672, Note_off_c, 9, 42, 0
1, 8728, Note_on_c, 9, 82, 89
1, 8728, Note_on_c, 1, 41, 123
1, 8736, Note_on_c, 9, 56, 114
1, 8740, Note_on_c, 2, 65, 96
1, 8740, Note_on_c, 2, 60, 102
1, 8740, Note_on_c, 5, 72, 110
1, 8744, Note_on_c, 2, 68, 99
1, 8744, Note_on_c, 2, 53, 110
1, 8768, Note_off_c, 9, 82, 0
1, 8776, Note_off_c, 9, 56, 0
1, 8900, Note_off_c, 5, 72, 0
1, 8924, Note_on_c, 9, 56, 106
1, 8952, Note_off_c, 9, 56, 0
1, 8964, Note_off_c, 2, 53, 0
1, 8968, Note_off_c, 2, 60, 0
1, 8988, Note_off_c, 2, 65, 0
1, 8988, Note_off_c, 2, 68, 0
1, 9008, Note_off_c, 1, 41, 0
1, 9020, Note_on_c, 9, 42, 127
1, 9024, Note_on_c, 9, 56, 106
1, 9052, Note_off_c, 9, 42, 0
1, 9060, Note_off_c, 9, 56, 0
1, 9208, Note_on_c, 2, 61, 99
1, 9208, Note_on_c, 2, 68, 114
1, 9208, Note_on_c, 5, 73, 114
1, 9208, Note_on_c, 9, 35, 123
1, 9212, Note_on_c, 2, 65, 96
1, 9212, Note_on_c, 2, 58, 99
1, 9212, Note_on_c, 9, 56, 123
1, 9216, Note_on_c, 2, 46, 99
1, 9216, Note_on_c, 9, 82, 89
1, 9216, Note_on_c, 1, 34, 123
1, 9244, Note_off_c, 9, 56, 64
1, 9248, Note_off_c, 9, 82, 0
1, 9256, Note_off_c, 9, 35, 64
1, 9312, Note_on_c, 9, 82, 89
1, 9344, Note_off_c, 9, 82, 0
1, 9376, Note_off_c, 5, 73, 64
1, 9404, Note_on_c, 9, 42, 127
1, 9404, Note_on_c, 9, 82, 74
1, 9440, Note_off_c, 9, 42, 0
1, 9440, Note_off_c, 9, 82, 0
1, 9472, Note_off_c, 1, 34, 0
1, 9480, Note_off_c, 2, 61, 64
1, 9484, Note_off_c, 2, 68, 64
1, 9484, Note_off_c, 2, 58, 64
1, 9492, Note_off_c, 2, 65, 64
1, 9492, Note_off_c, 2, 46, 0
1, 9504, Note_on_c, 9, 82, 81
1, 9508, Note_on_c, 9, 56, 114
1, 9536, Note_off_c, 9, 82, 0
1, 9536, Note_off_c, 9, 56, 0
1, 9788, Note_on_c, 9, 42, 127
1, 9792, Note_on_c, 9, 35, 123
1, 9792, Note_on_c, 9, 56, 106
1, 9792, Note_on_c, 9, 82, 98
1, 9824, Note_off_c, 9, 56, 0
1, 9824, Note_off_c, 9, 82, 0
1, 9828, Note_off_c, 9, 35, 0
1, 9832, Note_off_c, 9, 42, 0
1, 9888, Note_on_c, 9, 35, 127
1, 9888, Note_on_c, 9, 82, 74
1, 9916, Note_off_c, 9, 82, 0
1, 9920, Note_off_c, 9, 35, 0
1, 9980, Note_on_c, 5, 73, 123
1, 9980, Note_on_c, 9, 35, 127
1, 9984, Note_on_c, 9, 82, 81
1, 9984, Note_on_c, 9, 56, 106
1, 10008, Note_off_c, 9, 56, 0
1, 10020, Note_off_c, 9, 82, 0
1, 10024, Note_off_c, 9, 35, 0
1, 10080, Note_on_c, 9, 82, 81
1, 10084, Note_on_c, 9, 56, 106
1, 10112, Note_off_c, 5, 73, 0
1, 10112, Note_off_c, 9, 82, 0
1, 10120, Note_off_c, 9, 56, 0
1, 10172, Note_on_c, 9, 82, 74
1, 10176, Note_on_c, 9, 42, 127
1, 10208, Note_off_c, 9, 82, 0
1, 10216, Note_off_c, 9, 42, 0
1, 10268, Note_on_c, 9, 82, 81
1, 10272, Note_on_c, 5, 73, 114
1, 10272, Note_on_c, 9, 56, 114
1, 10272, Note_on_c, 1, 34, 123
1, 10276, Note_on_c, 2, 68, 99
1, 10276, Note_on_c, 2, 61, 91
1, 10276, Note_on_c, 2, 58, 99
1, 10280, Note_on_c, 2, 46, 99
1, 10280, Note_on_c, 2, 65, 96
1, 10300, Note_off_c, 9, 82, 0
1, 10312, Note_off_c, 9, 56, 0
1, 10416, Note_off_c, 5, 73, 0
1, 10460, Note_on_c, 9, 56, 106
1, 10488, Note_off_c, 9, 56, 0
1, 10504, Note_off_c, 2, 61, 0
1, 10508, Note_off_c, 2, 68, 0
1, 10508, Note_off_c, 2, 58, 0
1, 10508, Note_off_c, 2, 46, 0
1, 10512, Note_off_c, 2, 65, 0
1, 10532, Note_off_c, 1, 34, 0
1, 10560, Note_on_c, 9, 56, 106
1, 10560, Note_on_c, 9, 42, 127
1, 10596, Note_off_c, 9, 56, 0
1, 10596, Note_off_c, 9, 42, 0
1, 10744, Note_on_c, 5, 70, 114
1, 10748, Note_on_c, 2, 58, 99
1, 10748, Note_on_c, 2, 67, 106
1, 10748, Note_on_c, 9, 82, 89
1, 10752, Note_on_c, 2, 64, 102
1, 10752, Note_on_c, 2, 48, 96
1, 10752, Note_on_c, 9, 35, 127
1, 10752, Note_on_c, 9, 56, 114
1, 10752, Note_on_c, 1, 40, 114
1, 10780, Note_off_c, 9, 82, 64
1, 10788, Note_off_c, 9, 56, 0
1, 10796, Note_off_c, 9, 35, 0
1, 10844, Note_on_c, 9, 82, 74
1, 10848, Note_on_c, 9, 56, 106
1, 10876, Note_off_c, 9, 82, 0
1, 10892, Note_off_c, 9, 56, 0
1, 10924, Note_off_c, 5, 70, 64
1, 10940, Note_on_c, 9, 82, 74
1, 10944, Note_on_c, 9, 42, 127
1, 10972, Note_off_c, 9, 82, 0
1, 10980, Note_off_c, 9, 42, 0
1, 11016, Note_off_c, 1, 40, 0
1, 11036, Note_off_c, 2, 58, 64
1, 11036, Note_off_c, 2, 67, 64
1, 11036, Note_on_c, 9, 82, 81
1, 11044, Note_off_c, 2, 48, 0
1, 11048, Note_off_c, 2, 64, 0
1, 11076, Note_off_c, 9, 82, 0
1, 11324, Note_on_c, 9, 35, 127
1, 11324, Note_on_c, 9, 42, 127
1, 11328, Note_on_c, 9, 82, 89
1, 11328, Note_on_c, 9, 56, 106
1, 11352, Note_off_c, 9, 82, 0
1, 11356, Note_off_c, 9, 35, 0
1, 11360, Note_off_c, 9, 56, 0
1, 11368, Note_off_c, 9, 42, 0
1, 11420, Note_on_c, 9, 35, 114
1, 11420, Note_on_c, 9, 82, 74
1, 11452, Note_off_c, 9, 82, 0
1, 11456, Note_off_c, 9, 35, 0
1, 11516, Note_on_c, 9, 82, 81
1, 11516, Note_on_c, 9, 35, 127
1, 11520, Note_on_c, 5, 70, 114
1, 11520, Note_on_c, 9, 56, 99
1, 11540, Note_off_c, 9, 56, 0
1, 11552, Note_off_c, 9, 82, 0
1, 11564, Note_off_c, 9, 35, 0
1, 11612, Note_on_c, 9, 82, 74
1, 11616, Note_on_c, 9, 56, 91
1, 11648, Note_off_c, 9, 82, 0
1, 11648, Note_off_c, 9, 56, 0
1, 11652, Note_off_c, 5, 70, 0
1, 11708, Note_on_c, 9, 42, 127
1, 11708, Note_on_c, 9, 82, 74
1, 11744, Note_off_c, 9, 82, 0
1, 11752, Note_off_c, 9, 42, 0
1, 11804, Note_on_c, 9, 82, 74
1, 11808, Note_on_c, 2, 48, 91
1, 11808, Note_on_c, 2, 67, 102
1, 11808, Note_on_c, 2, 64, 102
1, 11808, Note_on_c, 1, 40, 123
1, 11812, Note_on_c, 2, 58, 106
1, 11812, Note_on_c, 9, 56, 114
1, 11816, Note_on_c, 5, 70, 114
1, 11840, Note_off_c, 9, 56, 0
1, 11844, Note_off_c, 9, 82, 0
1, 11948, Note_off_c, 5, 70, 0
1, 12000, Note_on_c, 9, 56, 123
1, 12032, Note_off_c, 9, 56, 0
1, 12060, Note_off_c, 2, 58, 0
1, 12064, Note_off_c, 2, 67, 0
1, 12068, Note_off_c, 2, 48, 0
1, 12068, Note_off_c, 1, 40, 0
1, 12076, Note_off_c, 2, 64, 0
1, 12092, Note_on_c, 9, 42, 127
1, 12140, Note_off_c, 9, 42, 0
1, 12280, Note_on_c, 5, 72, 114
1, 12284, Note_on_c, 2, 65, 96
1, 12284, Note_on_c, 2, 68, 99
1, 12284, Note_on_c, 2, 60, 96
1, 12284, Note_on_c, 9, 82, 98
1, 12284, Note_on_c, 9, 35, 123
1, 12284, Note_on_c, 9, 56, 114
1, 12284, Note_on_c, 1, 29, 110
1, 12288, Note_on_c, 2, 53, 96
1, 12316, Note_off_c, 9, 82, 64
1, 12316, Note_off_c, 9, 56, 64
1, 12336, Note_off_c, 9, 35, 64
1, 12380, Note_on_c, 9, 82, 74
1, 12412, Note_off_c, 9, 82, 0
1, 12444, Note_off_c, 5, 72, 64
1, 12472, Note_on_c, 9, 82, 66
1, 12476, Note_on_c, 9, 42, 127
1, 12508, Note_off_c, 9, 82, 0
1, 12520, Note_off_c, 9, 42, 0
1, 12572, Note_on_c, 9, 82, 81
1, 12576, Note_off_c, 2, 60, 64
1, 12580, Note_off_c, 2, 68, 64
1, 12580, Note_off_c, 2, 53, 0
1, 12584, Note_off_c, 2, 65, 64
1, 12608, Note_off_c, 9, 82, 0
1, 12680, Note_off_c, 1, 29, 64
1, 12860, Note_on_c, 9, 35, 127
1, 12860, Note_on_c, 9, 82, 98
1, 12864, Note_on_c, 9, 42, 127
1, 12868, Note_on_c, 9, 56, 99
1, 12888, Note_off_c, 9, 56, 0
1, 12892, Note_off_c, 9, 82, 0
1, 12896, Note_off_c, 9, 35, 0
1, 12908, Note_off_c, 9, 42, 0
1, 12956, Note_on_c, 9, 82, 81
1, 12960, Note_on_c, 9, 35, 123
1, 12960, Note_on_c, 9, 56, 99
1, 12988, Note_off_c, 9, 82, 0
1, 12988, Note_off_c, 9, 56, 0
1, 12992, Note_off_c, 9, 35, 0
1, 13052, Note_on_c, 9, 82, 81
1, 13056, Note_on_c, 5, 72, 114
1, 13056, Note_on_c, 9, 35, 127
1, 13056, Note_on_c, 9, 56, 99
1, 13080, Note_off_c, 9, 56, 0
1, 13092, Note_off_c, 9, 82, 0
1, 13100, Note_off_c, 9, 35, 0
1, 13152, Note_on_c, 9, 82, 74
1, 13152, Note_on_c, 9, 56, 99
1, 13180, Note_off_c, 5, 72, 0
1, 13184, Note_off_c, 9, 82, 0
1, 13184, Note_off_c, 9, 56, 0
1, 13244, Note_on_c, 9, 82, 66
1, 13248, Note_on_c, 9, 42, 127
1, 13280, Note_off_c, 9, 82, 0
1, 13296, Note_off_c, 9, 42, 0
1, 13340, Note_on_c, 9, 82, 81
1, 13344, Note_on_c, 2, 60, 86
1, 13344, Note_on_c, 9, 56, 106
1, 13348, Note_on_c, 2, 68, 99
1, 13348, Note_on_c, 2, 65, 96
1, 13348, Note_on_c, 2, 53, 102
1, 13348, Note_on_c, 5, 72, 110
1, 13352, Note_on_c, 1, 36, 114
1, 13372, Note_off_c, 9, 82, 0
1, 13376, Note_off_c, 9, 56, 0
1, 13492, Note_off_c, 5, 72, 0
1, 13532, Note_on_c, 9, 56, 114
1, 13536, Note_on_c, 9, 35, 127
1, 13568, Note_off_c, 9, 56, 0
1, 13572, Note_off_c, 9, 35, 0
1, 13588, Note_off_c, 2, 60, 0
1, 13592, Note_off_c, 2, 68, 0
1, 13592, Note_off_c, 2, 65, 0
1, 13596, Note_off_c, 2, 53, 0
1, 13628, Note_on_c, 9, 42, 127
1, 13632, Note_on_c, 9, 35, 123
1, 13640, Note_off_c, 1, 36, 0
1, 13668, Note_off_c, 9, 35, 0
1, 13676, Note_off_c, 9, 42, 0
1, 13728, Note_on_c, 9, 35, 127
1, 13764, Note_off_c, 9, 35, 0
1, 13820, Note_on_c, 2, 65, 91
1, 13820, Note_on_c, 9, 35, 123
1, 13820, Note_on_c, 9, 56, 123
1, 13824, Note_on_c, 2, 60, 102
1, 13824, Note_on_c, 2, 68, 91
1, 13824, Note_on_c, 9, 82, 89
1, 13824, Note_on_c, 1, 41, 123
1, 13828, Note_on_c, 2, 53, 106
1, 13844, Note_off_c, 9, 82, 0
1, 13852, Note_off_c, 9, 56, 64
1, 13868, Note_off_c, 9, 35, 64
1, 13916, Note_on_c, 9, 82, 74
1, 13940, Note_off_c, 9, 82, 0
1, 14012, Note_on_c, 9, 82, 81
1, 14020, Note_on_c, 9, 42, 127
1, 14036, Note_off_c, 9, 82, 0
1, 14040, Note_off_c, 1, 41, 0
1, 14048, Note_off_c, 2, 60, 0
1, 14048, Note_off_c, 2, 53, 0
1, 14052, Note_off_c, 9, 42, 0
1, 14060, Note_off_c, 2, 65, 64
1, 14060, Note_off_c, 2, 68, 0
1, 14108, Note_on_c, 9, 82, 89
1, 14116, Note_on_c, 9, 56, 114
1, 14140, Note_off_c, 9, 82, 0
1, 14144, Note_off_c, 9, 56, 0
1, 14204, Note_on_c, 9, 39, 127
1, 14256, Note_off_c, 9, 39, 0
1, 14392, Note_on_c, 9, 35, 123
1, 14396, Note_on_c, 9, 42, 123
1, 14396, Note_on_c, 9, 82, 98
1, 14400, Note_on_c, 9, 56, 106
1, 14420, Note_off_c, 9, 82, 0
1, 14432, Note_off_c, 9, 35, 0
1, 14432, Note_off_c, 9, 42, 0
1, 14432, Note_off_c, 9, 56, 0
1, 14492, Note_on_c, 9, 35, 127
1, 14492, Note_on_c, 9, 82, 81
1, 14520, Note_off_c, 9, 82, 0
1, 14524, Note_off_c, 9, 35, 0
1, 14588, Note_on_c, 9, 35, 127
1, 14588, Note_on_c, 9, 82, 81
1, 14592, Note_on_c, 9, 56, 106
1, 14616, Note_off_c, 9, 82, 0
1, 14616, Note_off_c, 9, 56, 0
1, 14628, Note_off_c, 9, 35, 0
1, 14680, Note_on_c, 9, 82, 74
1, 14692, Note_on_c, 9, 56, 106
1, 14716, Note_off_c, 9, 82, 0
1, 14728, Note_off_c, 9, 56, 0
1, 14776, Note_on_c, 9, 82, 81
1, 14780, Note_on_c, 9, 39, 91
1, 14784, Note_on_c, 9, 42, 127
1, 14812, Note_off_c, 9, 82, 0
1, 14812, Note_off_c, 9, 39, 0
1, 14816, Note_off_c, 9, 42, 0
1, 14872, Note_on_c, 9, 82, 89
1, 14876, Note_on_c, 1, 41, 110
1, 14880, Note_on_c, 9, 56, 114
1, 14884, Note_on_c, 2, 65, 96
1, 14884, Note_on_c, 2, 60, 102
1, 14888, Note_on_c, 2, 68, 99
1, 14888, Note_on_c, 2, 53, 110
1, 14912, Note_off_c, 9, 82, 0
1, 14920, Note_off_c, 9, 56, 0
1, 15068, Note_on_c, 9, 39, 127
1, 15068, Note_on_c, 9, 56, 106
1, 15096, Note_off_c, 9, 56, 0
1, 15108, Note_off_c, 2, 53, 0
1, 15112, Note_off_c, 2, 60, 0
1, 15112, Note_off_c, 9, 39, 0
1, 15132, Note_off_c, 2, 65, 0
1, 15132, Note_off_c, 2, 68, 0
1, 15164, Note_on_c, 9, 42, 127
1, 15168, Note_on_c, 9, 56, 106
1, 15192, Note_off_c, 1, 41, 0
1, 15196, Note_off_c, 9, 42, 0
1, 15204, Note_off_c, 9, 56, 0
1, 15352, Note_on_c, 2, 61, 99
1, 15352, Note_on_c, 2, 68, 114
1, 15352, Note_on_c, 9, 35, 123
1, 15356, Note_on_c, 2, 65, 96
1, 15356, Note_on_c, 2, 58, 99
1, 15356, Note_on_c, 9, 56, 123
1, 15356, Note_on_c, 1, 34, 114
1, 15360, Note_on_c, 2, 46, 99
1, 15360, Note_on_c, 9, 82, 89
1, 15388, Note_off_c, 9, 56, 64
1, 15392, Note_off_c, 9, 82, 0
1, 15400, Note_off_c, 9, 35, 64
1, 15456, Note_on_c, 9, 82, 89
1, 15488, Note_off_c, 9, 82, 0
1, 15548, Note_on_c, 9, 42, 127
1, 15548, Note_on_c, 9, 82, 74
1, 15584, Note_off_c, 9, 42, 0
1, 15584, Note_off_c, 9, 82, 0
1, 15616, Note_off_c, 1, 34, 64
1, 15624, Note_off_c, 2, 61, 64
1, 15628, Note_off_c, 2, 68, 64
1, 15628, Note_off_c, 2, 58, 64
1, 15636, Note_off_c, 2, 65, 64
1, 15636, Note_off_c, 2, 46, 0
1, 15648, Note_on_c, 9, 82, 81
1, 15652, Note_on_c, 9, 56, 114
1, 15680, Note_off_c, 9, 82, 0
1, 15680, Note_off_c, 9, 56, 0
1, 15736, Note_on_c, 9, 39, 127
1, 15784, Note_off_c, 9, 39, 0
1, 15932, Note_on_c, 9, 42, 127
1, 15936, Note_on_c, 9, 35, 123
1, 15936, Note_on_c, 9, 56, 106
1, 15936, Note_on_c, 9, 82, 98
1, 15968, Note_off_c, 9, 56, 0
1, 15968, Note_off_c, 9, 82, 0
1, 15972, Note_off_c, 9, 35, 0
1, 15976, Note_off_c, 9, 42, 0
1, 16032, Note_on_c, 9, 35, 127
1, 16032, Note_on_c, 9, 82, 74
1, 16060, Note_off_c, 9, 82, 0
1, 16064, Note_off_c, 9, 35, 0
1, 16124, Note_on_c, 9, 35, 127
1, 16128, Note_on_c, 9, 82, 81
1, 16128, Note_on_c, 9, 56, 106
1, 16152, Note_off_c, 9, 56, 0
1, 16164, Note_off_c, 9, 82, 0
1, 16168, Note_off_c, 9, 35, 0
1, 16224, Note_on_c, 9, 82, 81
1, 16228, Note_on_c, 9, 56, 106
1, 16256, Note_off_c, 9, 82, 0
1, 16264, Note_off_c, 9, 56, 0
1, 16316, Note_on_c, 9, 82, 74
1, 16320, Note_on_c, 9, 42, 127
1, 16324, Note_on_c, 9, 39, 85
1, 16352, Note_off_c, 9, 82, 0
1, 16360, Note_off_c, 9, 42, 0
1, 16360, Note_off_c, 9, 39, 0
1, 16412, Note_on_c, 9, 82, 81
1, 16416, Note_on_c, 9, 56, 114
1, 16420, Note_on_c, 2, 68, 99
1, 16420, Note_on_c, 2, 61, 91
1, 16420, Note_on_c, 2, 58, 99
1, 16420, Note_on_c, 1, 34, 123
1, 16424, Note_on_c, 2, 46, 99
1, 16424, Note_on_c, 2, 65, 96
1, 16444, Note_off_c, 9, 82, 0
1, 16456, Note_off_c, 9, 56, 0
1, 16604, Note_on_c, 9, 56, 106
1, 16612, Note_on_c, 9, 39, 127
1, 16632, Note_off_c, 9, 56, 0
1, 16648, Note_off_c, 2, 61, 0
1, 16652, Note_off_c, 2, 68, 0
1, 16652, Note_off_c, 2, 58, 0
1, 16652, Note_off_c, 2, 46, 0
1, 16656, Note_off_c, 2, 65, 0
1, 16656, Note_off_c, 9, 39, 0
1, 16704, Note_on_c, 9, 56, 106
1, 16704, Note_on_c, 9, 42, 127
1, 16704, Note_off_c, 1, 34, 0
1, 16740, Note_off_c, 9, 56, 0
1, 16740, Note_off_c, 9, 42, 0
1, 16892, Note_on_c, 2, 58, 99
1, 16892, Note_on_c, 2, 67, 106
1, 16892, Note_on_c, 9, 82, 89
1, 16896, Note_on_c, 2, 64, 102
1, 16896, Note_on_c, 2, 48, 96
1, 16896, Note_on_c, 9, 35, 127
1, 16896, Note_on_c, 9, 56, 114
1, 16896, Note_on_c, 1, 40, 114
1, 16924, Note_off_c, 9, 82, 64
1, 16932, Note_off_c, 9, 56, 0
1, 16940, Note_off_c, 9, 35, 0
1, 16988, Note_on_c, 9, 82, 74
1, 16992, Note_on_c, 9, 56, 106
1, 17020, Note_off_c, 9, 82, 0
1, 17036, Note_off_c, 9, 56, 0
1, 17084, Note_on_c, 9, 82, 74
1, 17088, Note_on_c, 9, 42, 127
1, 17116, Note_off_c, 9, 82, 0
1, 17124, Note_off_c, 9, 42, 0
1, 17156, Note_off_c, 1, 40, 0
1, 17180, Note_off_c, 2, 58, 64
1, 17180, Note_off_c, 2, 67, 64
1, 17180, Note_on_c, 9, 82, 81
1, 17188, Note_off_c, 2, 48, 0
1, 17192, Note_off_c, 2, 64, 0
1, 17220, Note_off_c, 9, 82, 0
1, 17272, Note_on_c, 9, 39, 127
1, 17320, Note_off_c, 9, 39, 0
1, 17468, Note_on_c, 9, 35, 127
1, 17468, Note_on_c, 9, 42, 127
1, 17472, Note_on_c, 9, 82, 89
1, 17472, Note_on_c, 9, 56, 106
1, 17496, Note_off_c, 9, 82, 0
1, 17500, Note_off_c, 9, 35, 0
1, 17504, Note_off_c, 9, 56, 0
1, 17512, Note_off_c, 9, 42, 0
1, 17564, Note_on_c, 9, 35, 114
1, 17564, Note_on_c, 9, 82, 74
1, 17596, Note_off_c, 9, 82, 0
1, 17600, Note_off_c, 9, 35, 0
1, 17660, Note_on_c, 9, 82, 81
1, 17660, Note_on_c, 9, 35, 127
1, 17664, Note_on_c, 9, 56, 99
1, 17684, Note_off_c, 9, 56, 0
1, 17696, Note_off_c, 9, 82, 0
1, 17708, Note_off_c, 9, 35, 0
1, 17756, Note_on_c, 9, 82, 74
1, 17760, Note_on_c, 9, 56, 91
1, 17792, Note_off_c, 9, 82, 0
1, 17792, Note_off_c, 9, 56, 0
1, 17852, Note_on_c, 9, 42, 127
1, 17852, Note_on_c, 9, 82, 74
1, 17856, Note_on_c, 9, 39, 85
1, 17888, Note_off_c, 9, 82, 0
1, 17892, Note_off_c, 9, 39, 0
1, 17896, Note_off_c, 9, 42, 0
1, 17948, Note_on_c, 9, 82, 74
1, 17952, Note_on_c, 2, 48, 91
1, 17952, Note_on_c, 2, 67, 102
1, 17952, Note_on_c, 2, 64, 102
1, 17956, Note_on_c, 2, 58, 106
1, 17956, Note_on_c, 9, 56, 114
1, 17956, Note_on_c, 1, 40, 114
1, 17984, Note_off_c, 9, 56, 0
1, 17988, Note_off_c, 9, 82, 0
1, 18144, Note_on_c, 9, 56, 123
1, 18144, Note_on_c, 9, 39, 127
1, 18176, Note_off_c, 9, 56, 0
1, 18196, Note_off_c, 9, 39, 0
1, 18204, Note_off_c, 2, 58, 0
1, 18208, Note_off_c, 2, 67, 0
1, 18212, Note_off_c, 2, 48, 0
1, 18220, Note_off_c, 2, 64, 0
1, 18232, Note_off_c, 1, 40, 0
1, 18236, Note_on_c, 9, 42, 127
1, 18284, Note_off_c, 9, 42, 0
1, 18428, Note_on_c, 2, 65, 96
1, 18428, Note_on_c, 2, 68, 99
1, 18428, Note_on_c, 2, 60, 96
1, 18428, Note_on_c, 9, 82, 98
1, 18428, Note_on_c, 9, 35, 123
1, 18428, Note_on_c, 9, 56, 114
1, 18432, Note_on_c, 2, 53, 96
1, 18432, Note_on_c, 1, 41, 114
1, 18460, Note_off_c, 9, 82, 64
1, 18460, Note_off_c, 9, 56, 64
1, 18480, Note_off_c, 9, 35, 64
1, 18524, Note_on_c, 9, 82, 74
1, 18556, Note_off_c, 9, 82, 0
1, 18616, Note_on_c, 9, 82, 66
1, 18620, Note_on_c, 9, 42, 127
1, 18652, Note_off_c, 9, 82, 0
1, 18664, Note_off_c, 9, 42, 0
1, 18708, Note_off_c, 1, 41, 0
1, 18716, Note_on_c, 9, 82, 81
1, 18720, Note_off_c, 2, 60, 64
1, 18724, Note_off_c, 2, 68, 64
1, 18724, Note_off_c, 2, 53, 0
1, 18728, Note_off_c, 2, 65, 64
1, 18752, Note_off_c, 9, 82, 0
1, 18812, Note_on_c, 9, 39, 127
1, 18856, Note_off_c, 9, 39, 0
1, 19004, Note_on_c, 9, 35, 127
1, 19004, Note_on_c, 9, 82, 98
1, 19008, Note_on_c, 9, 42, 127
1, 19012, Note_on_c, 9, 56, 99
1, 19032, Note_off_c, 9, 56, 0
1, 19036, Note_off_c, 9, 82, 0
1, 19040, Note_off_c, 9, 35, 0
1, 19052, Note_off_c, 9, 42, 0
1, 19100, Note_on_c, 9, 82, 81
1, 19104, Note_on_c, 9, 35, 123
1, 19104, Note_on_c, 9, 56, 99
1, 19132, Note_off_c, 9, 82, 0
1, 19132, Note_off_c, 9, 56, 0
1, 19136, Note_off_c, 9, 35, 0
1, 19196, Note_on_c, 9, 82, 81
1, 19200, Note_on_c, 9, 35, 127
1, 19200, Note_on_c, 9, 56, 99
1, 19200, Note_on_c, 1, 36, 96
1, 19224, Note_off_c, 9, 56, 0
1, 19236, Note_off_c, 9, 82, 0
1, 19244, Note_off_c, 9, 35, 0
1, 19296, Note_on_c, 9, 82, 74
1, 19296, Note_on_c, 9, 56, 99
1, 19328, Note_off_c, 9, 82, 0
1, 19328, Note_off_c, 9, 56, 0
1, 19388, Note_on_c, 9, 82, 66
1, 19392, Note_on_c, 9, 42, 127
1, 19424, Note_off_c, 9, 82, 0
1, 19440, Note_off_c, 9, 42, 0
1, 19484, Note_on_c, 9, 82, 81
1, 19488, Note_on_c, 2, 60, 86
1, 19488, Note_on_c, 9, 56, 106
1, 19492, Note_on_c, 2, 68, 99
1, 19492, Note_on_c, 2, 65, 96
1, 19492, Note_on_c, 2, 53, 102
1, 19516, Note_off_c, 9, 82, 0
1, 19520, Note_off_c, 9, 56, 0
1, 19584, Note_on_c, 9, 39, 127
1, 19636, Note_off_c, 9, 39, 0
1, 19676, Note_on_c, 9, 56, 114
1, 19712, Note_off_c, 9, 56, 0
1, 19732, Note_off_c, 2, 60, 0
1, 19736, Note_off_c, 2, 68, 0
1, 19736, Note_off_c, 2, 65, 0
1, 19740, Note_off_c, 2, 53, 0
1, 19772, Note_on_c, 9, 42, 127
1, 19776, Note_on_c, 9, 35, 123
1, 19812, Note_off_c, 9, 35, 0
1, 19820, Note_off_c, 9, 42, 0
1, 19876, Note_on_c, 9, 39, 99
1, 19908, Note_off_c, 9, 39, 0
1, 19944, Note_off_c, 1, 36, 0
1, 19964, Note_on_c, 2, 65, 91
1, 19964, Note_on_c, 9, 35, 123
1, 19968, Note_on_c, 2, 60, 102
1, 19968, Note_on_c, 2, 68, 91
1, 19968, Note_on_c, 9, 82, 89
1, 19968, Note_on_c, 1, 41, 127
1, 19972, Note_on_c, 2, 53, 106
1, 19988, Note_off_c, 9, 82, 0
1, 20012, Note_off_c, 9, 35, 64
1, 20060, Note_on_c, 9, 82, 74
1, 20084, Note_off_c, 9, 82, 0
1, 20156, Note_on_c, 9, 82, 81
1, 20164, Note_on_c, 9, 42, 127
1, 20180, Note_off_c, 9, 82, 0
1, 20192, Note_off_c, 2, 60, 0
1, 20192, Note_off_c, 2, 53, 0
1, 20196, Note_off_c, 9, 42, 0
1, 20200, Note_off_c, 1, 41, 0
1, 20204, Note_off_c, 2, 65, 64
1, 20204, Note_off_c, 2, 68, 0
1, 20252, Note_on_c, 9, 82, 89
1, 20284, Note_off_c, 9, 82, 0
1, 20348, Note_on_c, 9, 39, 127
1, 20400, Note_off_c, 9, 39, 0
1, 21496, Note_on_c, 2, 61, 99
1, 21496, Note_on_c, 2, 68, 114
1, 21496, Note_on_c, 9, 35, 123
1, 21500, Note_on_c, 2, 65, 96
1, 21500, Note_on_c, 2, 58, 99
1, 21500, Note_on_c, 9, 56, 123
1, 21504, Note_on_c, 2, 46, 99
1, 21504, Note_on_c, 9, 82, 89
1, 21504, Note_on_c, 1, 34, 123
1, 21532, Note_off_c, 9, 56, 64
1, 21536, Note_off_c, 9, 82, 0
1, 21544, Note_off_c, 9, 35, 64
1, 21600, Note_on_c, 9, 82, 89
1, 21632, Note_off_c, 9, 82, 0
1, 21692, Note_on_c, 9, 42, 127
1, 21692, Note_on_c, 9, 82, 74
1, 21728, Note_off_c, 9, 42, 0
1, 21728, Note_off_c, 9, 82, 0
1, 21760, Note_off_c, 1, 34, 0
1, 21768, Note_off_c, 2, 61, 64
1, 21772, Note_off_c, 2, 68, 64
1, 21772, Note_off_c, 2, 58, 64
1, 21780, Note_off_c, 2, 65, 64
1, 21780, Note_off_c, 2, 46, 0
1, 21792, Note_on_c, 9, 82, 81
1, 21796, Note_on_c, 9, 56, 114
1, 21824, Note_off_c, 9, 82, 0
1, 21824, Note_off_c, 9, 56, 0
1, 21880, Note_on_c, 9, 39, 127
1, 21928, Note_off_c, 9, 39, 0
1, 22076, Note_on_c, 9, 42, 127
1, 22080, Note_on_c, 9, 35, 123
1, 22080, Note_on_c, 9, 56, 106
1, 22080, Note_on_c, 9, 82, 98
1, 22112, Note_off_c, 9, 56, 0
1, 22112, Note_off_c, 9, 82, 0
1, 22116, Note_off_c, 9, 35, 0
1, 22120, Note_off_c, 9, 42, 0
1, 22176, Note_on_c, 9, 35, 127
1, 22176, Note_on_c, 9, 82, 74
1, 22204, Note_off_c, 9, 82, 0
1, 22208, Note_off_c, 9, 35, 0
1, 22268, Note_on_c, 9, 35, 127
1, 22272, Note_on_c, 9, 82, 81
1, 22272, Note_on_c, 9, 56, 106
1, 22296, Note_off_c, 9, 56, 0
1, 22308, Note_off_c, 9, 82, 0
1, 22312, Note_off_c, 9, 35, 0
1, 22368, Note_on_c, 9, 82, 81
1, 22372, Note_on_c, 9, 56, 106
1, 22400, Note_off_c, 9, 82, 0
1, 22408, Note_off_c, 9, 56, 0
1, 22460, Note_on_c, 9, 82, 74
1, 22464, Note_on_c, 9, 42, 127
1, 22468, Note_on_c, 9, 39, 85
1, 22496, Note_off_c, 9, 82, 0
1, 22504, Note_off_c, 9, 42, 0
1, 22504, Note_off_c, 9, 39, 0
1, 22556, Note_on_c, 9, 82, 81
1, 22560, Note_on_c, 9, 56, 114
1, 22560, Note_on_c, 1, 34, 123
1, 22564, Note_on_c, 2, 68, 99
1, 22564, Note_on_c, 2, 61, 91
1, 22564, Note_on_c, 2, 58, 99
1, 22568, Note_on_c, 2, 46, 99
1, 22568, Note_on_c, 2, 65, 96
1, 22588, Note_off_c, 9, 82, 0
1, 22600, Note_off_c, 9, 56, 0
1, 22748, Note_on_c, 9, 56, 106
1, 22756, Note_on_c, 9, 39, 127
1, 22776, Note_off_c, 9, 56, 0
1, 22792, Note_off_c, 2, 61, 0
1, 22796, Note_off_c, 2, 68, 0
1, 22796, Note_off_c, 2, 58, 0
1, 22796, Note_off_c, 2, 46, 0
1, 22800, Note_off_c, 2, 65, 0
1, 22800, Note_off_c, 9, 39, 0
1, 22820, Note_off_c, 1, 34, 0
1, 22848, Note_on_c, 9, 56, 106
1, 22848, Note_on_c, 9, 42, 127
1, 22884, Note_off_c, 9, 56, 0
1, 22884, Note_off_c, 9, 42, 0
1, 23036, Note_on_c, 2, 58, 99
1, 23036, Note_on_c, 2, 67, 106
1, 23036, Note_on_c, 9, 82, 89
1, 23040, Note_off_c, 2, 58, 64
1, 23040, Note_off_c, 2, 67, 64
1, 23040, Note_off_c, 9, 82, 64
1, 23040, Note_on_c, 2, 64, 102
1, 23040, Note_on_c, 2, 48, 96
1, 23040, Note_on_c, 9, 35, 127
1, 23040, Note_on_c, 9, 56, 114
1, 23040, Note_on_c, 1, 40, 114
1, 23076, Note_off_c, 9, 56, 0
1, 23084, Note_off_c, 9, 35, 0
1, 23132, Note_on_c, 9, 82, 74
1, 23136, Note_on_c, 9, 56, 106
1, 23164, Note_off_c, 9, 82, 0
1, 23180, Note_off_c, 9, 56, 0
1, 23228, Note_on_c, 9, 82, 74
1, 23232, Note_on_c, 9, 42, 127
1, 23260, Note_off_c, 9, 82, 0
1, 23268, Note_off_c, 9, 42, 0
1, 23300, Note_off_c, 1, 40, 0
1, 23324, Note_on_c, 9, 82, 81
1, 23332, Note_off_c, 2, 48, 0
1, 23336, Note_off_c, 2, 64, 0
1, 23364, Note_off_c, 9, 82, 0
1, 23416, Note_on_c, 9, 39, 127
1, 23464, Note_off_c, 9, 39, 0
1, 23612, Note_on_c, 9, 35, 127
1, 23612, Note_on_c, 9, 42, 127
1, 23616, Note_on_c, 9, 82, 89
1, 23616, Note_on_c, 9, 56, 106
1, 23640, Note_off_c, 9, 82, 0
1, 23644, Note_off_c, 9, 35, 0
1, 23648, Note_off_c, 9, 56, 0
1, 23656, Note_off_c, 9, 42, 0
1, 23708, Note_on_c, 9, 35, 114
1, 23708, Note_on_c, 9, 82, 74
1, 23740, Note_off_c, 9, 82, 0
1, 23744, Note_off_c, 9, 35, 0
1, 23804, Note_on_c, 9, 82, 81
1, 23804, Note_on_c, 9, 35, 127
1, 23808, Note_on_c, 9, 56, 99
1, 23828, Note_off_c, 9, 56, 0
1, 23840, Note_off_c, 9, 82, 0
1, 23852, Note_off_c, 9, 35, 0
1, 23900, Note_on_c, 9, 82, 74
1, 23904, Note_on_c, 9, 56, 91
1, 23936, Note_off_c, 9, 82, 0
1, 23936, Note_off_c, 9, 56, 0
1, 23996, Note_on_c, 9, 42, 127
1, 23996, Note_on_c, 9, 82, 74
1, 24000, Note_on_c, 9, 39, 85
1, 24032, Note_off_c, 9, 82, 0
1, 24036, Note_off_c, 9, 39, 0
1, 24040, Note_off_c, 9, 42, 0
1, 24092, Note_on_c, 9, 82, 74
1, 24096, Note_on_c, 2, 48, 91
1, 24096, Note_on_c, 2, 67, 102
1, 24096, Note_on_c, 2, 64, 102
1, 24100, Note_on_c, 2, 58, 106
1, 24100, Note_on_c, 9, 56, 114
1, 24100, Note_on_c, 1, 40, 114
1, 24128, Note_off_c, 9, 56, 0
1, 24132, Note_off_c, 9, 82, 0
1, 24288, Note_on_c, 9, 56, 123
1, 24288, Note_on_c, 9, 39, 127
1, 24320, Note_off_c, 9, 56, 0
1, 24340, Note_off_c, 9, 39, 0
1, 24348, Note_off_c, 2, 58, 0
1, 24352, Note_off_c, 2, 67, 0
1, 24356, Note_off_c, 2, 48, 0
1, 24364, Note_off_c, 2, 64, 0
1, 24376, Note_off_c, 1, 40, 0
1, 24380, Note_on_c, 9, 42, 127
1, 24428, Note_off_c, 9, 42, 0
1, 24572, Note_on_c, 2, 65, 96
1, 24572, Note_on_c, 2, 68, 99
1, 24572, Note_on_c, 2, 60, 96
1, 24572, Note_on_c, 9, 82, 98
1, 24572, Note_on_c, 9, 35, 123
1, 24572, Note_on_c, 9, 56, 114
1, 24576, Note_on_c, 2, 53, 96
1, 24576, Note_on_c, 1, 41, 114
1, 24604, Note_off_c, 9, 82, 64
1, 24604, Note_off_c, 9, 56, 64
1, 24624, Note_off_c, 9, 35, 64
1, 24668, Note_on_c, 9, 82, 74
1, 24700, Note_off_c, 9, 82, 0
1, 24760, Note_on_c, 9, 82, 66
1, 24764, Note_on_c, 9, 42, 127
1, 24796, Note_off_c, 9, 82, 0
1, 24808, Note_off_c, 9, 42, 0
1, 24852, Note_off_c, 1, 41, 0
1, 24860, Note_on_c, 9, 82, 81
1, 24864, Note_off_c, 2, 60, 64
1, 24868, Note_off_c, 2, 68, 64
1, 24868, Note_off_c, 2, 53, 0
1, 24872, Note_off_c, 2, 65, 64
1, 24896, Note_off_c, 9, 82, 0
1, 24956, Note_on_c, 9, 39, 127
1, 25000, Note_off_c, 9, 39, 0
1, 25148, Note_on_c, 9, 35, 127
1, 25148, Note_on_c, 9, 82, 98
1, 25152, Note_on_c, 9, 42, 127
1, 25156, Note_on_c, 9, 56, 99
1, 25176, Note_off_c, 9, 56, 0
1, 25180, Note_off_c, 9, 82, 0
1, 25184, Note_off_c, 9, 35, 0
1, 25196, Note_off_c, 9, 42, 0
1, 25244, Note_on_c, 9, 82, 81
1, 25248, Note_on_c, 9, 35, 123
1, 25248, Note_on_c, 9, 56, 99
1, 25276, Note_off_c, 9, 82, 0
1, 25276, Note_off_c, 9, 56, 0
1, 25280, Note_off_c, 9, 35, 0
1, 25340, Note_on_c, 9, 82, 81
1, 25344, Note_on_c, 9, 35, 127
1, 25344, Note_on_c, 9, 56, 99
1, 25344, Note_on_c, 1, 36, 96
1, 25368, Note_off_c, 9, 56, 0
1, 25380, Note_off_c, 9, 82, 0
1, 25388, Note_off_c, 9, 35, 0
1, 25440, Note_on_c, 9, 82, 74
1, 25440, Note_on_c, 9, 56, 99
1, 25472, Note_off_c, 9, 82, 0
1, 25472, Note_off_c, 9, 56, 0
1, 25532, Note_on_c, 9, 82, 66
1, 25536, Note_on_c, 9, 42, 127
1, 25568, Note_off_c, 9, 82, 0
1, 25584, Note_off_c, 9, 42, 0
1, 25628, Note_on_c, 9, 82, 81
1, 25632, Note_on_c, 2, 60, 86
1, 25632, Note_on_c, 9, 56, 106
1, 25636, Note_on_c, 2, 68, 99
1, 25636, Note_on_c, 2, 65, 96
1, 25636, Note_on_c, 2, 53, 102
1, 25660, Note_off_c, 9, 82, 0
1, 25664, Note_off_c, 9, 56, 0
1, 25728, Note_on_c, 9, 39, 127
1, 25780, Note_off_c, 9, 39, 0
1, 25820, Note_on_c, 9, 56, 114
1, 25856, Note_off_c, 9, 56, 0
1, 25876, Note_off_c, 2, 60, 0
1, 25880, Note_off_c, 2, 68, 0
1, 25880, Note_off_c, 2, 65, 0
1, 25884, Note_off_c, 2, 53, 0
1, 25916, Note_on_c, 9, 42, 127
1, 25920, Note_on_c, 9, 35, 123
1, 25956, Note_off_c, 9, 35, 0
1, 25964, Note_off_c, 9, 42, 0
1, 26020, Note_on_c, 9, 39, 99
1, 26052, Note_off_c, 9, 39, 0
1, 26088, Note_off_c, 1, 36, 0
1, 26108, Note_on_c, 2, 65, 91
1, 26108, Note_on_c, 9, 35, 123
1, 26112, Note_on_c, 2, 60, 102
1, 26112, Note_on_c, 2, 68, 91
1, 26112, Note_on_c, 5, 72, 123
1, 26112, Note_on_c, 9, 82, 89
1, 26112, Note_on_c, 1, 41, 123
1, 26116, Note_on_c, 2, 53, 106
1, 26132, Note_off_c, 9, 82, 0
1, 26156, Note_off_c, 9, 35, 64
1, 26204, Note_on_c, 9, 82, 74
1, 26228, Note_off_c, 9, 82, 0
1, 26296, Note_off_c, 5, 72, 0
1, 26300, Note_on_c, 9, 82, 81
1, 26308, Note_on_c, 9, 42, 127
1, 26324, Note_off_c, 9, 82, 0
1, 26328, Note_off_c, 1, 41, 0
1, 26336, Note_off_c, 2, 60, 0
1, 26336, Note_off_c, 2, 53, 0
1, 26340, Note_off_c, 9, 42, 0
1, 26348, Note_off_c, 2, 65, 64
1, 26348, Note_off_c, 2, 68, 0
1, 26396, Note_on_c, 9, 82, 89
1, 26404, Note_on_c, 9, 56, 114
1, 26428, Note_off_c, 9, 82, 0
1, 26432, Note_off_c, 9, 56, 0
1, 26492, Note_on_c, 9, 39, 127
1, 26544, Note_off_c, 9, 39, 0
1, 26680, Note_on_c, 9, 35, 123
1, 26684, Note_on_c, 9, 42, 123
1, 26684, Note_on_c, 9, 82, 98
1, 26688, Note_on_c, 9, 56, 106
1, 26708, Note_off_c, 9, 82, 0
1, 26720, Note_off_c, 9, 35, 0
1, 26720, Note_off_c, 9, 42, 0
1, 26720, Note_off_c, 9, 56, 0
1, 26780, Note_on_c, 9, 35, 127
1, 26780, Note_on_c, 9, 82, 81
1, 26808, Note_off_c, 9, 82, 0
1, 26812, Note_off_c, 9, 35, 0
1, 26876, Note_on_c, 5, 72, 114
1, 26876, Note_on_c, 9, 35, 127
1, 26876, Note_on_c, 9, 82, 81
1, 26880, Note_on_c, 9, 56, 106
1, 26904, Note_off_c, 9, 82, 0
1, 26904, Note_off_c, 9, 56, 0
1, 26916, Note_off_c, 9, 35, 0
1, 26968, Note_on_c, 9, 82, 74
1, 26980, Note_on_c, 9, 56, 106
1, 27004, Note_off_c, 9, 82, 0
1, 27016, Note_off_c, 9, 56, 0
1, 27028, Note_off_c, 5, 72, 0
1, 27064, Note_on_c, 9, 82, 81
1, 27068, Note_on_c, 9, 39, 91
1, 27072, Note_on_c, 9, 42, 127
1, 27100, Note_off_c, 9, 82, 0
1, 27100, Note_off_c, 9, 39, 0
1, 27104, Note_off_c, 9, 42, 0
1, 27160, Note_on_c, 9, 82, 89
1, 27164, Note_on_c, 1, 41, 110
1, 27168, Note_on_c, 9, 56, 114
1, 27172, Note_on_c, 2, 65, 96
1, 27172, Note_on_c, 2, 60, 102
1, 27172, Note_on_c, 5, 72, 110
1, 27176, Note_on_c, 2, 68, 99
1, 27176, Note_on_c, 2, 53, 110
1, 27200, Note_off_c, 9, 82, 0
1, 27208, Note_off_c, 9, 56, 0
1, 27332, Note_off_c, 5, 72, 0
1, 27356, Note_on_c, 9, 39, 127
1, 27356, Note_on_c, 9, 56, 106
1, 27384, Note_off_c, 9, 56, 0
1, 27396, Note_off_c, 2, 53, 0
1, 27400, Note_off_c, 2, 60, 0
1, 27400, Note_off_c, 9, 39, 0
1, 27420, Note_off_c, 2, 65, 0
1, 27420, Note_off_c, 2, 68, 0
1, 27452, Note_on_c, 9, 42, 127
1, 27456, Note_on_c, 9, 56, 106
1, 27480, Note_off_c, 1, 41, 0
1, 27484, Note_off_c, 9, 42, 0
1, 27492, Note_off_c, 9, 56, 0
1, 27640, Note_on_c, 2, 61, 99
1, 27640, Note_on_c, 2, 68, 114
1, 27640, Note_on_c, 5, 73, 114
1, 27640, Note_on_c, 9, 35, 123
1, 27644, Note_on_c, 2, 65, 96
1, 27644, Note_on_c, 2, 58, 99
1, 27644, Note_on_c, 9, 56, 123
1, 27644, Note_on_c, 1, 34, 114
1, 27648, Note_on_c, 2, 46, 99
1, 27648, Note_on_c, 9, 82, 89
1, 27676, Note_off_c, 9, 56, 64
1, 27680, Note_off_c, 9, 82, 0
1, 27688, Note_off_c, 9, 35, 64
1, 27744, Note_on_c, 9, 82, 89
1, 27776, Note_off_c, 9, 82, 0
1, 27808, Note_off_c, 5, 73, 64
1, 27836, Note_on_c, 9, 42, 127
1, 27836, Note_on_c, 9, 82, 74
1, 27872, Note_off_c, 9, 42, 0
1, 27872, Note_off_c, 9, 82, 0
1, 27904, Note_off_c, 1, 34, 64
1, 27912, Note_off_c, 2, 61, 64
1, 27916, Note_off_c, 2, 68, 64
1, 27916, Note_off_c, 2, 58, 64
1, 27924, Note_off_c, 2, 65, 64
1, 27924, Note_off_c, 2, 46, 0
1, 27936, Note_on_c, 9, 82, 81
1, 27940, Note_on_c, 9, 56, 114
1, 27968, Note_off_c, 9, 82, 0
1, 27968, Note_off_c, 9, 56, 0
1, 28024, Note_on_c, 9, 39, 127
1, 28072, Note_off_c, 9, 39, 0
1, 28220, Note_on_c, 9, 42, 127
1, 28224, Note_on_c, 9, 35, 123
1, 28224, Note_on_c, 9, 56, 106
1, 28224, Note_on_c, 9, 82, 98
1, 28256, Note_off_c, 9, 56, 0
1, 28256, Note_off_c, 9, 82, 0
1, 28260, Note_off_c, 9, 35, 0
1, 28264, Note_off_c, 9, 42, 0
1, 28320, Note_on_c, 9, 35, 127
1, 28320, Note_on_c, 9, 82, 74
1, 28348, Note_off_c, 9, 82, 0
1, 28352, Note_off_c, 9, 35, 0
1, 28412, Note_on_c, 5, 73, 123
1, 28412, Note_on_c, 9, 35, 127
1, 28416, Note_on_c, 9, 82, 81
1, 28416, Note_on_c, 9, 56, 106
1, 28440, Note_off_c, 9, 56, 0
1, 28452, Note_off_c, 9, 82, 0
1, 28456, Note_off_c, 9, 35, 0
1, 28512, Note_on_c, 9, 82, 81
1, 28516, Note_on_c, 9, 56, 106
1, 28544, Note_off_c, 5, 73, 0
1, 28544, Note_off_c, 9, 82, 0
1, 28552, Note_off_c, 9, 56, 0
1, 28604, Note_on_c, 9, 82, 74
1, 28608, Note_on_c, 9, 42, 127
1, 28612, Note_on_c, 9, 39, 85
1, 28640, Note_off_c, 9, 82, 0
1, 28648, Note_off_c, 9, 42, 0
1, 28648, Note_off_c, 9, 39, 0
1, 28700, Note_on_c, 9, 82, 81
1, 28704, Note_on_c, 5, 73, 114
1, 28704, Note_on_c, 9, 56, 114
1, 28708, Note_on_c, 2, 68, 99
1, 28708, Note_on_c, 2, 61, 91
1, 28708, Note_on_c, 2, 58, 99
1, 28708, Note_on_c, 1, 34, 123
1, 28712, Note_on_c, 2, 46, 99
1, 28712, Note_on_c, 2, 65, 96
1, 28732, Note_off_c, 9, 82, 0
1, 28744, Note_off_c, 9, 56, 0
1, 28848, Note_off_c, 5, 73, 0
1, 28892, Note_on_c, 9, 56, 106
1, 28900, Note_on_c, 9, 39, 127
1, 28920, Note_off_c, 9, 56, 0
1, 28936, Note_off_c, 2, 61, 0
1, 28940, Note_off_c, 2, 68, 0
1, 28940, Note_off_c, 2, 58, 0
1, 28940, Note_off_c, 2, 46, 0
1, 28944, Note_off_c, 2, 65, 0
1, 28944, Note_off_c, 9, 39, 0
1, 28992, Note_on_c, 9, 56, 106
1, 28992, Note_on_c, 9, 42, 127
1, 28992, Note_off_c, 1, 34, 0
1, 29028, Note_off_c, 9, 56, 0
1, 29028, Note_off_c, 9, 42, 0
1, 29176, Note_on_c, 5, 70, 114
1, 29180, Note_on_c, 2, 58, 99
1, 29180, Note_on_c, 2, 67, 106
1, 29180, Note_on_c, 9, 82, 89
1, 29184, Note_on_c, 2, 65, 91
1, 29184, Note_on_c, 2, 64, 102
1, 29184, Note_on_c, 2, 48, 96
1, 29184, Note_on_c, 9, 35, 123
1, 29184, Note_on_c, 9, 35, 127
1, 29184, Note_on_c, 9, 56, 114
1, 29184, Note_on_c, 1, 40, 114
1, 29212, Note_off_c, 9, 82, 64
1, 29220, Note_off_c, 9, 56, 0
1, 29228, Note_off_c, 9, 35, 64
1, 29228, Note_off_c, 9, 35, 0
1, 29276, Note_on_c, 9, 82, 74
1, 29280, Note_on_c, 9, 56, 106
1, 29308, Note_off_c, 9, 82, 0
1, 29324, Note_off_c, 9, 56, 0
1, 29356, Note_off_c, 5, 70, 64
1, 29372, Note_on_c, 9, 82, 74
1, 29376, Note_on_c, 9, 42, 127
1, 29404, Note_off_c, 9, 82, 0
1, 29412, Note_off_c, 9, 42, 0
1, 29420, Note_off_c, 2, 65, 64
1, 29444, Note_off_c, 1, 40, 0
1, 29468, Note_off_c, 2, 58, 64
1, 29468, Note_off_c, 2, 67, 64
1, 29468, Note_on_c, 9, 82, 81
1, 29476, Note_off_c, 2, 48, 0
1, 29480, Note_off_c, 2, 64, 0
1, 29508, Note_off_c, 9, 82, 0
1, 29560, Note_on_c, 9, 39, 127
1, 29608, Note_off_c, 9, 39, 0
1, 29756, Note_on_c, 9, 35, 127
1, 29756, Note_on_c, 9, 42, 127
1, 29760, Note_on_c, 9, 82, 89
1, 29760, Note_on_c, 9, 56, 106
1, 29784, Note_off_c, 9, 82, 0
1, 29788, Note_off_c, 9, 35, 0
1, 29792, Note_off_c, 9, 56, 0
1, 29800, Note_off_c, 9, 42, 0
1, 29852, Note_on_c, 9, 35, 114
1, 29852, Note_on_c, 9, 82, 74
1, 29884, Note_off_c, 9, 82, 0
1, 29888, Note_off_c, 9, 35, 0
1, 29948, Note_on_c, 9, 82, 81
1, 29948, Note_on_c, 9, 35, 127
1, 29952, Note_on_c, 5, 70, 114
1, 29952, Note_on_c, 9, 56, 99
1, 29972, Note_off_c, 9, 56, 0
1, 29984, Note_off_c, 9, 82, 0
1, 29996, Note_off_c, 9, 35, 0
1, 30044, Note_on_c, 9, 82, 74
1, 30048, Note_on_c, 9, 56, 91
1, 30080, Note_off_c, 9, 82, 0
1, 30080, Note_off_c, 9, 56, 0
1, 30084, Note_off_c, 5, 70, 0
1, 30140, Note_on_c, 9, 42, 127
1, 30140, Note_on_c, 9, 82, 74
1, 30144, Note_on_c, 9, 39, 85
1, 30176, Note_off_c, 9, 82, 0
1, 30180, Note_off_c, 9, 39, 0
1, 30184, Note_off_c, 9, 42, 0
1, 30236, Note_on_c, 9, 82, 74
1, 30240, Note_on_c, 2, 48, 91
1, 30240, Note_on_c, 2, 67, 102
1, 30240, Note_on_c, 2, 64, 102
1, 30244, Note_on_c, 2, 58, 106
1, 30244, Note_on_c, 9, 56, 114
1, 30244, Note_on_c, 1, 40, 114
1, 30248, Note_on_c, 5, 70, 114
1, 30272, Note_off_c, 9, 56, 0
1, 30276, Note_off_c, 9, 82, 0
1, 30380, Note_off_c, 5, 70, 0
1, 30432, Note_on_c, 9, 56, 123
1, 30432, Note_on_c, 9, 39, 127
1, 30464, Note_off_c, 9, 56, 0
1, 30484, Note_off_c, 9, 39, 0
1, 30492, Note_off_c, 2, 58, 0
1, 30496, Note_off_c, 2, 67, 0
1, 30500, Note_off_c, 2, 48, 0
1, 30508, Note_off_c, 2, 64, 0
1, 30520, Note_off_c, 1, 40, 0
1, 30524, Note_on_c, 9, 42, 127
1, 30572, Note_off_c, 9, 42, 0
1, 30712, Note_on_c, 5, 72, 114
1, 30716, Note_on_c, 2, 65, 96
1, 30716, Note_on_c, 2, 68, 99
1, 30716, Note_on_c, 2, 60, 96
1, 30716, Note_on_c, 9, 82, 98
1, 30716, Note_on_c, 9, 35, 123
1, 30716, Note_on_c, 9, 56, 114
1, 30720, Note_on_c, 2, 53, 96
1, 30720, Note_on_c, 1, 41, 114
1, 30748, Note_off_c, 9, 82, 64
1, 30748, Note_off_c, 9, 56, 64
1, 30768, Note_off_c, 9, 35, 64
1, 30812, Note_on_c, 9, 82, 74
1, 30844, Note_off_c, 9, 82, 0
1, 30876, Note_off_c, 5, 72, 64
1, 30904, Note_on_c, 9, 82, 66
1, 30908, Note_on_c, 9, 42, 127
1, 30940, Note_off_c, 9, 82, 0
1, 30952, Note_off_c, 9, 42, 0
1, 30996, Note_off_c, 1, 41, 0
1, 31004, Note_on_c, 9, 82, 81
1, 31008, Note_off_c, 2, 60, 64
1, 31012, Note_off_c, 2, 68, 64
1, 31012, Note_off_c, 2, 53, 0
1, 31016, Note_off_c, 2, 65, 64
1, 31040, Note_off_c, 9, 82, 0
1, 31100, Note_on_c, 9, 39, 127
1, 31144, Note_off_c, 9, 39, 0
1, 31292, Note_on_c, 9, 35, 127
1, 31292, Note_on_c, 9, 82, 98
1, 31296, Note_on_c, 9, 42, 127
1, 31300, Note_on_c, 9, 56, 99
1, 31320, Note_off_c, 9, 56, 0
1, 31324, Note_off_c, 9, 82, 0
1, 31328, Note_off_c, 9, 35, 0
1, 31340, Note_off_c, 9, 42, 0
1, 31388, Note_on_c, 9, 82, 81
1, 31392, Note_on_c, 9, 35, 123
1, 31392, Note_on_c, 9, 56, 99
1, 31420, Note_off_c, 9, 82, 0
1, 31420, Note_off_c, 9, 56, 0
1, 31424, Note_off_c, 9, 35, 0
1, 31484, Note_on_c, 9, 82, 81
1, 31488, Note_on_c, 5, 72, 114
1, 31488, Note_on_c, 9, 35, 127
1, 31488, Note_on_c, 9, 56, 99
1, 31488, Note_on_c, 1, 36, 96
1, 31512, Note_off_c, 9, 56, 0
1, 31524, Note_off_c, 9, 82, 0
1, 31532, Note_off_c, 9, 35, 0
1, 31584, Note_on_c, 9, 82, 74
1, 31584, Note_on_c, 9, 56, 99
1, 31612, Note_off_c, 5, 72, 0
1, 31616, Note_off_c, 9, 82, 0
1, 31616, Note_off_c, 9, 56, 0
1, 31676, Note_on_c, 9, 82, 66
1, 31680, Note_on_c, 9, 42, 127
1, 31712, Note_off_c, 9, 82, 0
1, 31728, Note_off_c, 9, 42, 0
1, 31772, Note_on_c, 9, 82, 81
1, 31776, Note_on_c, 2, 60, 86
1, 31776, Note_on_c, 9, 56, 106
1, 31780, Note_on_c, 2, 68, 99
1, 31780, Note_on_c, 2, 65, 96
1, 31780, Note_on_c, 2, 53, 102
1, 31780, Note_on_c, 5, 72, 110
1, 31804, Note_off_c, 9, 82, 0
1, 31808, Note_off_c, 9, 56, 0
1, 31872, Note_on_c, 9, 39, 127
1, 31924, Note_off_c, 5, 72, 0
1, 31924, Note_off_c, 9, 39, 0
1, 31964, Note_on_c, 9, 56, 114
1, 32000, Note_off_c, 9, 56, 0
1, 32020, Note_off_c, 2, 60, 0
1, 32024, Note_off_c, 2, 68, 0
1, 32024, Note_off_c, 2, 65, 0
1, 32028, Note_off_c, 2, 53, 0
1, 32060, Note_on_c, 9, 42, 127
1, 32064, Note_on_c, 9, 35, 123
1, 32100, Note_off_c, 9, 35, 0
1, 32108, Note_off_c, 9, 42, 0
1, 32164, Note_on_c, 9, 39, 99
1, 32196, Note_off_c, 9, 39, 0
1, 32232, Note_off_c, 1, 36, 0
1, 32252, Note_on_c, 2, 65, 91
1, 32252, Note_on_c, 9, 35, 123
1, 32256, Note_on_c, 2, 60, 102
1, 32256, Note_on_c, 2, 68, 91
1, 32256, Note_on_c, 5, 72, 123
1, 32256, Note_on_c, 9, 82, 89
1, 32256, Note_on_c, 1, 41, 123
1, 32260, Note_on_c, 2, 53, 106
1, 32276, Note_off_c, 9, 82, 0
1, 32300, Note_off_c, 9, 35, 64
1, 32348, Note_on_c, 9, 82, 74
1, 32372, Note_off_c, 9, 82, 0
1, 32440, Note_off_c, 5, 72, 0
1, 32444, Note_on_c, 9, 82, 81
1, 32452, Note_on_c, 9, 42, 127
1, 32468, Note_off_c, 9, 82, 0
1, 32472, Note_off_c, 1, 41, 0
1, 32480, Note_off_c, 2, 60, 0
1, 32480, Note_off_c, 2, 53, 0
1, 32484, Note_off_c, 9, 42, 0
1, 32492, Note_off_c, 2, 65, 64
1, 32492, Note_off_c, 2, 68, 0
1, 32540, Note_on_c, 9, 82, 89
1, 32548, Note_on_c, 9, 56, 114
1, 32572, Note_off_c, 9, 82, 0
1, 32576, Note_off_c, 9, 56, 0
1, 32636, Note_on_c, 9, 39, 127
1, 32688, Note_off_c, 9, 39, 0
1, 32824, Note_on_c, 9, 35, 123
1, 32828, Note_on_c, 9, 42, 123
1, 32828, Note_on_c, 9, 82, 98
1, 32832, Note_on_c, 9, 56, 106
1, 32852, Note_off_c, 9, 82, 0
1, 32864, Note_off_c, 9, 35, 0
1, 32864, Note_off_c, 9, 42, 0
1, 32864, Note_off_c, 9, 56, 0
1, 32924, Note_on_c, 9, 35, 127
1, 32924, Note_on_c, 9, 82, 81
1, 32952, Note_off_c, 9, 82, 0
1, 32956, Note_off_c, 9, 35, 0
1, 33020, Note_on_c, 5, 72, 114
1, 33020, Note_on_c, 9, 35, 127
1, 33020, Note_on_c, 9, 82, 81
1, 33024, Note_on_c, 9, 56, 106
1, 33048, Note_off_c, 9, 82, 0
1, 33048, Note_off_c, 9, 56, 0
1, 33060, Note_off_c, 9, 35, 0
1, 33112, Note_on_c, 9, 82, 74
1, 33124, Note_on_c, 9, 56, 106
1, 33148, Note_off_c, 9, 82, 0
1, 33160, Note_off_c, 9, 56, 0
1, 33172, Note_off_c, 5, 72, 0
1, 33208, Note_on_c, 9, 82, 81
1, 33212, Note_on_c, 9, 39, 91
1, 33216, Note_on_c, 9, 42, 127
1, 33244, Note_off_c, 9, 82, 0
1, 33244, Note_off_c, 9, 39, 0
1, 33248, Note_off_c, 9, 42, 0
1, 33304, Note_on_c, 9, 82, 89
1, 33308, Note_on_c, 1, 41, 110
1, 33312, Note_on_c, 9, 56, 114
1, 33316, Note_on_c, 2, 65, 96
1, 33316, Note_on_c, 2, 60, 102
1, 33316, Note_on_c, 5, 72, 110
1, 33320, Note_on_c, 2, 68, 99
1, 33320, Note_on_c, 2, 53, 110
1, 33344, Note_off_c, 9, 82, 0
1, 33352, Note_off_c, 9, 56, 0
1, 33476, Note_off_c, 5, 72, 0
1, 33500, Note_on_c, 9, 39, 127
1, 33500, Note_on_c, 9, 56, 106
1, 33528, Note_off_c, 9, 56, 0
1, 33540, Note_off_c, 2, 53, 0
1, 33544, Note_off_c, 2, 60, 0
1, 33544, Note_off_c, 9, 39, 0
1, 33564, Note_off_c, 2, 65, 0
1, 33564, Note_off_c, 2, 68, 0
1, 33596, Note_on_c, 9, 42, 127
1, 33600, Note_on_c, 9, 56, 106
1, 33624, Note_off_c, 1, 41, 0
1, 33628, Note_off_c, 9, 42, 0
1, 33636, Note_off_c, 9, 56, 0
1, 33784, Note_on_c, 2, 61, 99
1, 33784, Note_on_c, 2, 68, 114
1, 33784, Note_on_c, 5, 73, 114
1, 33784, Note_on_c, 9, 35, 123
1, 33788, Note_on_c, 2, 65, 96
1, 33788, Note_on_c, 2, 58, 99
1, 33788, Note_on_c, 9, 56, 123
1, 33788, Note_on_c, 1, 34, 114
1, 33792, Note_on_c, 2, 46, 99
1, 33792, Note_on_c, 9, 82, 89
1, 33820, Note_off_c, 9, 56, 64
1, 33824, Note_off_c, 9, 82, 0
1, 33832, Note_off_c, 9, 35, 64
1, 33888, Note_on_c, 9, 82, 89
1, 33920, Note_off_c, 9, 82, 0
1, 33952, Note_off_c, 5, 73, 64
1, 33980, Note_on_c, 9, 42, 127
1, 33980, Note_on_c, 9, 82, 74
1, 34016, Note_off_c, 9, 42, 0
1, 34016, Note_off_c, 9, 82, 0
1, 34048, Note_off_c, 1, 34, 64
1, 34056, Note_off_c, 2, 61, 64
1, 34060, Note_off_c, 2, 68, 64
1, 34060, Note_off_c, 2, 58, 64
1, 34068, Note_off_c, 2, 65, 64
1, 34068, Note_off_c, 2, 46, 0
1, 34080, Note_on_c, 9, 82, 81
1, 34084, Note_on_c, 9, 56, 114
1, 34112, Note_off_c, 9, 82, 0
1, 34112, Note_off_c, 9, 56, 0
1, 34168, Note_on_c, 9, 39, 127
1, 34216, Note_off_c, 9, 39, 0
1, 34364, Note_on_c, 9, 42, 127
1, 34368, Note_on_c, 9, 35, 123
1, 34368, Note_on_c, 9, 56, 106
1, 34368, Note_on_c, 9, 82, 98
1, 34400, Note_off_c, 9, 56, 0
1, 34400, Note_off_c, 9, 82, 0
1, 34404, Note_off_c, 9, 35, 0
1, 34408, Note_off_c, 9, 42, 0
1, 34464, Note_on_c, 9, 35, 127
1, 34464, Note_on_c, 9, 82, 74
1, 34492, Note_off_c, 9, 82, 0
1, 34496, Note_off_c, 9, 35, 0
1, 34556, Note_on_c, 5, 73, 123
1, 34556, Note_on_c, 9, 35, 127
1, 34560, Note_on_c, 9, 82, 81
1, 34560, Note_on_c, 9, 56, 106
1, 34584, Note_off_c, 9, 56, 0
1, 34596, Note_off_c, 9, 82, 0
1, 34600, Note_off_c, 9, 35, 0
1, 34656, Note_on_c, 9, 82, 81
1, 34660, Note_on_c, 9, 56, 106
1, 34688, Note_off_c, 5, 73, 0
1, 34688, Note_off_c, 9, 82, 0
1, 34696, Note_off_c, 9, 56, 0
1, 34748, Note_on_c, 9, 82, 74
1, 34752, Note_on_c, 9, 42, 127
1, 34756, Note_on_c, 9, 39, 85
1, 34784, Note_off_c, 9, 82, 0
1, 34792, Note_off_c, 9, 42, 0
1, 34792, Note_off_c, 9, 39, 0
1, 34844, Note_on_c, 9, 82, 81
1, 34848, Note_on_c, 5, 73, 114
1, 34848, Note_on_c, 9, 56, 114
1, 34852, Note_on_c, 2, 68, 99
1, 34852, Note_on_c, 2, 61, 91
1, 34852, Note_on_c, 2, 58, 99
1, 34852, Note_on_c, 1, 34, 123
1, 34856, Note_on_c, 2, 46, 99
1, 34856, Note_on_c, 2, 65, 96
1, 34876, Note_off_c, 9, 82, 0
1, 34888, Note_off_c, 9, 56, 0
1, 34992, Note_off_c, 5, 73, 0
1, 35036, Note_on_c, 9, 56, 106
1, 35044, Note_on_c, 9, 39, 127
1, 35064, Note_off_c, 9, 56, 0
1, 35080, Note_off_c, 2, 61, 0
1, 35084, Note_off_c, 2, 68, 0
1, 35084, Note_off_c, 2, 58, 0
1, 35084, Note_off_c, 2, 46, 0
1, 35088, Note_off_c, 2, 65, 0
1, 35088, Note_off_c, 9, 39, 0
1, 35136, Note_on_c, 9, 56, 106
1, 35136, Note_on_c, 9, 42, 127
1, 35136, Note_off_c, 1, 34, 0
1, 35172, Note_off_c, 9, 56, 0
1, 35172, Note_off_c, 9, 42, 0
1, 35320, Note_on_c, 5, 70, 114
1, 35324, Note_on_c, 2, 58, 99
1, 35324, Note_on_c, 2, 67, 106
1, 35324, Note_on_c, 9, 82, 89
1, 35328, Note_on_c, 2, 64, 102
1, 35328, Note_on_c, 2, 48, 96
1, 35328, Note_on_c, 9, 35, 127
1, 35328, Note_on_c, 9, 56, 114
1, 35328, Note_on_c, 1, 40, 114
1, 35356, Note_off_c, 9, 82, 64
1, 35364, Note_off_c, 9, 56, 0
1, 35372, Note_off_c, 9, 35, 0
1, 35420, Note_on_c, 9, 82, 74
1, 35424, Note_on_c, 9, 56, 106
1, 35452, Note_off_c, 9, 82, 0
1, 35468, Note_off_c, 9, 56, 0
1, 35500, Note_off_c, 5, 70, 64
1, 35516, Note_on_c, 9, 82, 74
1, 35520, Note_on_c, 9, 42, 127
1, 35548, Note_off_c, 9, 82, 0
1, 35556, Note_off_c, 9, 42, 0
1, 35588, Note_off_c, 1, 40, 0
1, 35612, Note_off_c, 2, 58, 64
1, 35612, Note_off_c, 2, 67, 64
1, 35612, Note_on_c, 9, 82, 81
1, 35620, Note_off_c, 2, 48, 0
1, 35624, Note_off_c, 2, 64, 0
1, 35652, Note_off_c, 9, 82, 0
1, 35704, Note_on_c, 9, 39, 127
1, 35752, Note_off_c, 9, 39, 0
1, 35900, Note_on_c, 9, 35, 127
1, 35900, Note_on_c, 9, 42, 127
1, 35904, Note_on_c, 9, 82, 89
1, 35904, Note_on_c, 9, 56, 106
1, 35928, Note_off_c, 9, 82, 0
1, 35932, Note_off_c, 9, 35, 0
1, 35936, Note_off_c, 9, 56, 0
1, 35944, Note_off_c, 9, 42, 0
1, 35996, Note_on_c, 9, 35, 114
1, 35996, Note_on_c, 9, 82, 74
1, 36028, Note_off_c, 9, 82, 0
1, 36032, Note_off_c, 9, 35, 0
1, 36092, Note_on_c, 9, 82, 81
1, 36092, Note_on_c, 9, 35, 127
1, 36096, Note_on_c, 5, 70, 114
1, 36096, Note_on_c, 9, 56, 99
1, 36116, Note_off_c, 9, 56, 0
1, 36128, Note_off_c, 9, 82, 0
1, 36140, Note_off_c, 9, 35, 0
1, 36188, Note_on_c, 9, 82, 74
1, 36192, Note_on_c, 9, 56, 91
1, 36224, Note_off_c, 9, 82, 0
1, 36224, Note_off_c, 9, 56, 0
1, 36228, Note_off_c, 5, 70, 0
1, 36284, Note_on_c, 9, 42, 127
1, 36284, Note_on_c, 9, 82, 74
1, 36288, Note_on_c, 9, 39, 85
1, 36320, Note_off_c, 9, 82, 0
1, 36324, Note_off_c, 9, 39, 0
1, 36328, Note_off_c, 9, 42, 0
1, 36380, Note_on_c, 9, 82, 74
1, 36384, Note_on_c, 2, 48, 91
1, 36384, Note_on_c, 2, 67, 102
1, 36384, Note_on_c, 2, 64, 102
1, 36388, Note_on_c, 2, 58, 106
1, 36388, Note_on_c, 9, 56, 114
1, 36388, Note_on_c, 1, 40, 114
1, 36392, Note_on_c, 5, 70, 114
1, 36416, Note_off_c, 9, 56, 0
1, 36420, Note_off_c, 9, 82, 0
1, 36524, Note_off_c, 5, 70, 0
1, 36576, Note_on_c, 9, 56, 123
1, 36576, Note_on_c, 9, 39, 127
1, 36608, Note_off_c, 9, 56, 0
1, 36628, Note_off_c, 9, 39, 0
1, 36636, Note_off_c, 2, 58, 0
1, 36640, Note_off_c, 2, 67, 0
1, 36644, Note_off_c, 2, 48, 0
1, 36652, Note_off_c, 2, 64, 0
1, 36664, Note_off_c, 1, 40, 0
1, 36668, Note_on_c, 9, 42, 127
1, 36716, Note_off_c, 9, 42, 0
1, 36856, Note_on_c, 5, 72, 114
1, 36860, Note_on_c, 2, 65, 96
1, 36860, Note_on_c, 2, 68, 99
1, 36860, Note_on_c, 2, 60, 96
1, 36860, Note_on_c, 9, 82, 98
1, 36860, Note_on_c, 9, 35, 123
1, 36860, Note_on_c, 9, 56, 114
1, 36864, Note_on_c, 2, 53, 96
1, 36864, Note_on_c, 1, 41, 114
1, 36892, Note_off_c, 9, 82, 64
1, 36892, Note_off_c, 9, 56, 64
1, 36912, Note_off_c, 9, 35, 64
1, 36956, Note_on_c, 9, 82, 74
1, 36988, Note_off_c, 9, 82, 0
1, 37020, Note_off_c, 5, 72, 64
1, 37048, Note_on_c, 9, 82, 66
1, 37052, Note_on_c, 9, 42, 127
1, 37084, Note_off_c, 9, 82, 0
1, 37096, Note_off_c, 9, 42, 0
1, 37140, Note_off_c, 1, 41, 0
1, 37148, Note_on_c, 9, 82, 81
1, 37152, Note_off_c, 2, 60, 64
1, 37156, Note_off_c, 2, 68, 64
1, 37156, Note_off_c, 2, 53, 0
1, 37160, Note_off_c, 2, 65, 64
1, 37184, Note_off_c, 9, 82, 0
1, 37244, Note_on_c, 9, 39, 127
1, 37288, Note_off_c, 9, 39, 0
1, 37436, Note_on_c, 9, 35, 127
1, 37436, Note_on_c, 9, 82, 98
1, 37440, Note_on_c, 9, 42, 127
1, 37444, Note_on_c, 9, 56, 99
1, 37464, Note_off_c, 9, 56, 0
1, 37468, Note_off_c, 9, 82, 0
1, 37472, Note_off_c, 9, 35, 0
1, 37484, Note_off_c, 9, 42, 0
1, 37532, Note_on_c, 9, 82, 81
1, 37536, Note_on_c, 9, 35, 123
1, 37536, Note_on_c, 9, 56, 99
1, 37564, Note_off_c, 9, 82, 0
1, 37564, Note_off_c, 9, 56, 0
1, 37568, Note_off_c, 9, 35, 0
1, 37628, Note_on_c, 9, 82, 81
1, 37632, Note_on_c, 5, 72, 114
1, 37632, Note_on_c, 9, 35, 127
1, 37632, Note_on_c, 9, 56, 99
1, 37632, Note_on_c, 1, 36, 96
1, 37656, Note_off_c, 9, 56, 0
1, 37668, Note_off_c, 9, 82, 0
1, 37676, Note_off_c, 9, 35, 0
1, 37728, Note_on_c, 9, 82, 74
1, 37728, Note_on_c, 9, 56, 99
1, 37756, Note_off_c, 5, 72, 0
1, 37760, Note_off_c, 9, 82, 0
1, 37760, Note_off_c, 9, 56, 0
1, 37820, Note_on_c, 9, 82, 66
1, 37824, Note_on_c, 9, 42, 127
1, 37856, Note_off_c, 9, 82, 0
1, 37872, Note_off_c, 9, 42, 0
1, 37916, Note_on_c, 9, 82, 81
1, 37920, Note_on_c, 2, 60, 86
1, 37920, Note_on_c, 9, 56, 106
1, 37924, Note_on_c, 2, 68, 99
1, 37924, Note_on_c, 2, 65, 96
1, 37924, Note_on_c, 2, 53, 102
1, 37924, Note_on_c, 5, 72, 110
1, 37948, Note_off_c, 9, 82, 0
1, 37952, Note_off_c, 9, 56, 0
1, 38016, Note_on_c, 9, 39, 127
1, 38068, Note_off_c, 5, 72, 0
1, 38068, Note_off_c, 9, 39, 0
1, 38108, Note_on_c, 9, 56, 114
1, 38144, Note_off_c, 9, 56, 0
1, 38164, Note_off_c, 2, 60, 0
1, 38168, Note_off_c, 2, 68, 0
1, 38168, Note_off_c, 2, 65, 0
1, 38172, Note_off_c, 2, 53, 0
1, 38204, Note_on_c, 9, 42, 127
1, 38208, Note_on_c, 9, 35, 123
1, 38244, Note_off_c, 9, 35, 0
1, 38252, Note_off_c, 9, 42, 0
1, 38308, Note_on_c, 9, 39, 99
1, 38340, Note_off_c, 9, 39, 0
1, 38376, Note_off_c, 1, 36, 0
1, 38396, Note_on_c, 2, 65, 91
1, 38396, Note_on_c, 9, 35, 123
1, 38400, Note_on_c, 2, 60, 102
1, 38400, Note_on_c, 2, 68, 91
1, 38400, Note_on_c, 9, 82, 89
1, 38400, Note_on_c, 1, 41, 123
1, 38404, Note_on_c, 2, 53, 106
1, 38420, Note_off_c, 9, 82, 0
1, 38444, Note_off_c, 9, 35, 64
1, 38492, Note_on_c, 9, 82, 74
1, 38516, Note_off_c, 9, 82, 0
1, 38616, Note_off_c, 1, 41, 0
1, 38624, Note_off_c, 2, 60, 0
1, 38624, Note_off_c, 2, 53, 0
1, 38636, Note_off_c, 2, 65, 64
1, 38636, Note_off_c, 2, 68, 0
1, 38780, Note_on_c, 9, 39, 127
1, 38832, Note_off_c, 9, 39, 0
1, 39452, Note_on_c, 1, 41, 110
1, 39460, Note_on_c, 2, 65, 96
1, 39460, Note_on_c, 2, 60, 102
1, 39464, Note_on_c, 2, 68, 99
1, 39464, Note_on_c, 2, 53, 110
1, 39644, Note_on_c, 9, 39, 127
1, 39644, Note_on_c, 9, 56, 106
1, 39672, Note_off_c, 9, 56, 0
1, 39684, Note_off_c, 2, 53, 0
1, 39688, Note_off_c, 2, 60, 0
1, 39688, Note_off_c, 9, 39, 0
1, 39708, Note_off_c, 2, 65, 0
1, 39708, Note_off_c, 2, 68, 0
1, 39740, Note_on_c, 9, 42, 127
1, 39744, Note_on_c, 9, 56, 106
1, 39768, Note_off_c, 1, 41, 0
1, 39772, Note_off_c, 9, 42, 0
1, 39780, Note_off_c, 9, 56, 0
1, 39928, Note_on_c, 2, 61, 99
1, 39928, Note_on_c, 2, 68, 114
1, 39928, Note_on_c, 9, 35, 123
1, 39932, Note_on_c, 2, 65, 96
1, 39932, Note_on_c, 2, 58, 99
1, 39932, Note_on_c, 9, 56, 123
1, 39932, Note_on_c, 1, 34, 114
1, 39936, Note_on_c, 2, 46, 99
1, 39936, Note_on_c, 9, 82, 89
1, 39964, Note_off_c, 9, 56, 64
1, 39968, Note_off_c, 9, 82, 0
1, 39976, Note_off_c, 9, 35, 64
1, 40032, Note_on_c, 9, 82, 89
1, 40064, Note_off_c, 9, 82, 0
1, 40124, Note_on_c, 9, 42, 127
1, 40124, Note_on_c, 9, 82, 74
1, 40160, Note_off_c, 9, 42, 0
1, 40160, Note_off_c, 9, 82, 0
1, 40192, Note_off_c, 1, 34, 64
1, 40200, Note_off_c, 2, 61, 64
1, 40204, Note_off_c, 2, 68, 64
1, 40204, Note_off_c, 2, 58, 64
1, 40212, Note_off_c, 2, 65, 64
1, 40212, Note_off_c, 2, 46, 0
1, 40224, Note_on_c, 9, 82, 81
1, 40228, Note_on_c, 9, 56, 114
1, 40256, Note_off_c, 9, 82, 0
1, 40256, Note_off_c, 9, 56, 0
1, 40312, Note_on_c, 9, 39, 127
1, 40360, Note_off_c, 9, 39, 0
1, 40508, Note_on_c, 9, 42, 127
1, 40512, Note_on_c, 9, 35, 123
1, 40512, Note_on_c, 9, 56, 106
1, 40512, Note_on_c, 9, 82, 98
1, 40544, Note_off_c, 9, 56, 0
1, 40544, Note_off_c, 9, 82, 0
1, 40548, Note_off_c, 9, 35, 0
1, 40552, Note_off_c, 9, 42, 0
1, 40608, Note_on_c, 9, 35, 127
1, 40608, Note_on_c, 9, 82, 74
1, 40636, Note_off_c, 9, 82, 0
1, 40640, Note_off_c, 9, 35, 0
1, 40700, Note_on_c, 9, 35, 127
1, 40704, Note_on_c, 9, 82, 81
1, 40704, Note_on_c, 9, 56, 106
1, 40728, Note_off_c, 9, 56, 0
1, 40740, Note_off_c, 9, 82, 0
1, 40744, Note_off_c, 9, 35, 0
1, 40800, Note_on_c, 9, 82, 81
1, 40804, Note_on_c, 9, 56, 106
1, 40832, Note_off_c, 9, 82, 0
1, 40840, Note_off_c, 9, 56, 0
1, 40892, Note_on_c, 9, 82, 74
1, 40896, Note_on_c, 9, 42, 127
1, 40900, Note_on_c, 9, 39, 85
1, 40928, Note_off_c, 9, 82, 0
1, 40936, Note_off_c, 9, 42, 0
1, 40936, Note_off_c, 9, 39, 0
1, 40988, Note_on_c, 9, 82, 81
1, 40992, Note_on_c, 9, 56, 114
1, 40996, Note_on_c, 2, 68, 99
1, 40996, Note_on_c, 2, 61, 91
1, 40996, Note_on_c, 2, 58, 99
1, 40996, Note_on_c, 1, 34, 123
1, 41000, Note_on_c, 2, 46, 99
1, 41000, Note_on_c, 2, 65, 96
1, 41020, Note_off_c, 9, 82, 0
1, 41032, Note_off_c, 9, 56, 0
1, 41180, Note_on_c, 9, 56, 106
1, 41188, Note_on_c, 9, 39, 127
1, 41208, Note_off_c, 9, 56, 0
1, 41224, Note_off_c, 2, 61, 0
1, 41228, Note_off_c, 2, 68, 0
1, 41228, Note_off_c, 2, 58, 0
1, 41228, Note_off_c, 2, 46, 0
1, 41232, Note_off_c, 2, 65, 0
1, 41232, Note_off_c, 9, 39, 0
1, 41280, Note_on_c, 9, 56, 106
1, 41280, Note_on_c, 9, 42, 127
1, 41280, Note_off_c, 1, 34, 0
1, 41316, Note_off_c, 9, 56, 0
1, 41316, Note_off_c, 9, 42, 0
1, 41468, Note_on_c, 2, 58, 99
1, 41468, Note_on_c, 2, 67, 106
1, 41468, Note_on_c, 9, 82, 89
1, 41472, Note_on_c, 2, 64, 102
1, 41472, Note_on_c, 2, 48, 96
1, 41472, Note_on_c, 9, 35, 127
1, 41472, Note_on_c, 9, 56, 114
1, 41472, Note_on_c, 1, 40, 114
1, 41500, Note_off_c, 9, 82, 64
1, 41508, Note_off_c, 9, 56, 0
1, 41516, Note_off_c, 9, 35, 0
1, 41564, Note_on_c, 9, 82, 74
1, 41568, Note_on_c, 9, 56, 106
1, 41596, Note_off_c, 9, 82, 0
1, 41612, Note_off_c, 9, 56, 0
1, 41660, Note_on_c, 9, 82, 74
1, 41664, Note_on_c, 9, 42, 127
1, 41692, Note_off_c, 9, 82, 0
1, 41700, Note_off_c, 9, 42, 0
1, 41732, Note_off_c, 1, 40, 0
1, 41756, Note_off_c, 2, 58, 64
1, 41756, Note_off_c, 2, 67, 64
1, 41756, Note_on_c, 9, 82, 81
1, 41764, Note_off_c, 2, 48, 0
1, 41768, Note_off_c, 2, 64, 0
1, 41796, Note_off_c, 9, 82, 0
1, 41848, Note_on_c, 9, 39, 127
1, 41896, Note_off_c, 9, 39, 0
1, 42044, Note_on_c, 9, 35, 127
1, 42044, Note_on_c, 9, 42, 127
1, 42048, Note_on_c, 9, 82, 89
1, 42048, Note_on_c, 9, 56, 106
1, 42072, Note_off_c, 9, 82, 0
1, 42076, Note_off_c, 9, 35, 0
1, 42080, Note_off_c, 9, 56, 0
1, 42088, Note_off_c, 9, 42, 0
1, 42140, Note_on_c, 9, 35, 114
1, 42140, Note_on_c, 9, 82, 74
1, 42172, Note_off_c, 9, 82, 0
1, 42176, Note_off_c, 9, 35, 0
1, 42236, Note_on_c, 9, 82, 81
1, 42236, Note_on_c, 9, 35, 127
1, 42240, Note_on_c, 9, 56, 99
1, 42260, Note_off_c, 9, 56, 0
1, 42272, Note_off_c, 9, 82, 0
1, 42284, Note_off_c, 9, 35, 0
1, 42332, Note_on_c, 9, 82, 74
1, 42336, Note_on_c, 9, 56, 91
1, 42368, Note_off_c, 9, 82, 0
1, 42368, Note_off_c, 9, 56, 0
1, 42428, Note_on_c, 9, 42, 127
1, 42428, Note_on_c, 9, 82, 74
1, 42432, Note_on_c, 9, 39, 85
1, 42464, Note_off_c, 9, 82, 0
1, 42468, Note_off_c, 9, 39, 0
1, 42472, Note_off_c, 9, 42, 0
1, 42524, Note_on_c, 9, 82, 74
1, 42528, Note_on_c, 2, 48, 91
1, 42528, Note_on_c, 2, 67, 102
1, 42528, Note_on_c, 2, 64, 102
1, 42532, Note_on_c, 2, 58, 106
1, 42532, Note_on_c, 9, 56, 114
1, 42532, Note_on_c, 1, 40, 114
1, 42560, Note_off_c, 9, 56, 0
1, 42564, Note_off_c, 9, 82, 0
1, 42720, Note_on_c, 9, 56, 123
1, 42720, Note_on_c, 9, 39, 127
1, 42752, Note_off_c, 9, 56, 0
1, 42772, Note_off_c, 9, 39, 0
1, 42780, Note_off_c, 2, 58, 0
1, 42784, Note_off_c, 2, 67, 0
1, 42788, Note_off_c, 2, 48, 0
1, 42796, Note_off_c, 2, 64, 0
1, 42808, Note_off_c, 1, 40, 0
1, 42812, Note_on_c, 9, 42, 127
1, 42860, Note_off_c, 9, 42, 0
1, 43004, Note_on_c, 2, 65, 96
1, 43004, Note_on_c, 2, 68, 99
1, 43004, Note_on_c, 2, 60, 96
1, 43004, Note_on_c, 9, 82, 98
1, 43004, Note_on_c, 9, 35, 123
1, 43004, Note_on_c, 9, 56, 114
1, 43008, Note_on_c, 2, 53, 96
1, 43008, Note_on_c, 1, 41, 114
1, 43036, Note_off_c, 9, 82, 64
1, 43036, Note_off_c, 9, 56, 64
1, 43056, Note_off_c, 9, 35, 64
1, 43100, Note_on_c, 9, 82, 74
1, 43132, Note_off_c, 9, 82, 0
1, 43192, Note_on_c, 9, 82, 66
1, 43196, Note_on_c, 9, 42, 127
1, 43228, Note_off_c, 9, 82, 0
1, 43240, Note_off_c, 9, 42, 0
1, 43284, Note_off_c, 1, 41, 0
1, 43292, Note_on_c, 9, 82, 81
1, 43296, Note_off_c, 2, 60, 64
1, 43300, Note_off_c, 2, 68, 64
1, 43300, Note_off_c, 2, 53, 0
1, 43304, Note_off_c, 2, 65, 64
1, 43328, Note_off_c, 9, 82, 0
1, 43388, Note_on_c, 9, 39, 127
1, 43432, Note_off_c, 9, 39, 0
1, 43580, Note_on_c, 9, 35, 127
1, 43580, Note_on_c, 9, 82, 98
1, 43584, Note_on_c, 9, 42, 127
1, 43588, Note_on_c, 9, 56, 99
1, 43608, Note_off_c, 9, 56, 0
1, 43612, Note_off_c, 9, 82, 0
1, 43616, Note_off_c, 9, 35, 0
1, 43628, Note_off_c, 9, 42, 0
1, 43676, Note_on_c, 9, 82, 81
1, 43680, Note_on_c, 9, 35, 123
1, 43680, Note_on_c, 9, 56, 99
1, 43708, Note_off_c, 9, 82, 0
1, 43708, Note_off_c, 9, 56, 0
1, 43712, Note_off_c, 9, 35, 0
1, 43772, Note_on_c, 9, 82, 81
1, 43776, Note_on_c, 9, 35, 127
1, 43776, Note_on_c, 9, 56, 99
1, 43776, Note_on_c, 1, 36, 96
1, 43800, Note_off_c, 9, 56, 0
1, 43812, Note_off_c, 9, 82, 0
1, 43820, Note_off_c, 9, 35, 0
1, 43872, Note_on_c, 9, 82, 74
1, 43872, Note_on_c, 9, 56, 99
1, 43904, Note_off_c, 9, 82, 0
1, 43904, Note_off_c, 9, 56, 0
1, 43964, Note_on_c, 9, 82, 66
1, 43968, Note_on_c, 9, 42, 127
1, 44000, Note_off_c, 9, 82, 0
1, 44016, Note_off_c, 9, 42, 0
1, 44060, Note_on_c, 9, 82, 81
1, 44064, Note_on_c, 2, 60, 86
1, 44064, Note_on_c, 9, 56, 106
1, 44068, Note_on_c, 2, 68, 99
1, 44068, Note_on_c, 2, 65, 96
1, 44068, Note_on_c, 2, 53, 102
1, 44092, Note_off_c, 9, 82, 0
1, 44096, Note_off_c, 9, 56, 0
1, 44160, Note_on_c, 9, 39, 127
1, 44212, Note_off_c, 9, 39, 0
1, 44252, Note_on_c, 9, 56, 114
1, 44288, Note_off_c, 9, 56, 0
1, 44308, Note_off_c, 2, 60, 0
1, 44312, Note_off_c, 2, 68, 0
1, 44312, Note_off_c, 2, 65, 0
1, 44316, Note_off_c, 2, 53, 0
1, 44348, Note_on_c, 9, 42, 127
1, 44352, Note_on_c, 9, 35, 123
1, 44388, Note_off_c, 9, 35, 0
1, 44396, Note_off_c, 9, 42, 0
1, 44452, Note_on_c, 9, 39, 99
1, 44484, Note_off_c, 9, 39, 0
1, 44520, Note_off_c, 1, 36, 0
1, 44540, Note_on_c, 2, 65, 91
1, 44540, Note_on_c, 9, 35, 123
1, 44544, Note_on_c, 2, 60, 102
1, 44544, Note_on_c, 2, 68, 91
1, 44544, Note_on_c, 9, 82, 89
1, 44544, Note_on_c, 1, 41, 123
1, 44548, Note_on_c, 2, 53, 106
1, 44564, Note_off_c, 9, 82, 0
1, 44588, Note_off_c, 9, 35, 64
1, 44636, Note_on_c, 9, 82, 74
1, 44660, Note_off_c, 9, 82, 0
1, 44732, Note_on_c, 9, 82, 81
1, 44740, Note_on_c, 9, 42, 127
1, 44756, Note_off_c, 9, 82, 0
1, 44760, Note_off_c, 1, 41, 0
1, 44768, Note_off_c, 2, 60, 0
1, 44768, Note_off_c, 2, 53, 0
1, 44772, Note_off_c, 9, 42, 0
1, 44780, Note_off_c, 2, 65, 64
1, 44780, Note_off_c, 2, 68, 0
1, 44828, Note_on_c, 9, 82, 89
1, 44836, Note_on_c, 9, 56, 114
1, 44860, Note_off_c, 9, 82, 0
1, 44864, Note_off_c, 9, 56, 0
1, 44924, Note_on_c, 9, 39, 127
1, 44976, Note_off_c, 9, 39, 0
1, 45112, Note_on_c, 9, 35, 123
1, 45116, Note_on_c, 9, 42, 123
1, 45116, Note_on_c, 9, 82, 98
1, 45120, Note_on_c, 9, 56, 106
1, 45140, Note_off_c, 9, 82, 0
1, 45152, Note_off_c, 9, 35, 0
1, 45152, Note_off_c, 9, 42, 0
1, 45152, Note_off_c, 9, 56, 0
1, 45212, Note_on_c, 9, 35, 127
1, 45212, Note_on_c, 9, 82, 81
1, 45240, Note_off_c, 9, 82, 0
1, 45244, Note_off_c, 9, 35, 0
1, 45308, Note_on_c, 9, 35, 127
1, 45308, Note_on_c, 9, 82, 81
1, 45312, Note_on_c, 9, 56, 106
1, 45336, Note_off_c, 9, 82, 0
1, 45336, Note_off_c, 9, 56, 0
1, 45348, Note_off_c, 9, 35, 0
1, 45400, Note_on_c, 9, 82, 74
1, 45412, Note_on_c, 9, 56, 106
1, 45436, Note_off_c, 9, 82, 0
1, 45448, Note_off_c, 9, 56, 0
1, 45496, Note_on_c, 9, 82, 81
1, 45500, Note_on_c, 9, 39, 91
1, 45504, Note_on_c, 9, 42, 127
1, 45532, Note_off_c, 9, 82, 0
1, 45532, Note_off_c, 9, 39, 0
1, 45536, Note_off_c, 9, 42, 0
1, 45592, Note_on_c, 9, 82, 89
1, 45596, Note_on_c, 1, 41, 110
1, 45600, Note_on_c, 9, 56, 114
1, 45604, Note_on_c, 2, 65, 96
1, 45604, Note_on_c, 2, 60, 102
1, 45608, Note_on_c, 2, 68, 99
1, 45608, Note_on_c, 2, 53, 110
1, 45632, Note_off_c, 9, 82, 0
1, 45640, Note_off_c, 9, 56, 0
1, 45788, Note_on_c, 9, 39, 127
1, 45788, Note_on_c, 9, 56, 106
1, 45816, Note_off_c, 9, 56, 0
1, 45828, Note_off_c, 2, 53, 0
1, 45832, Note_off_c, 2, 60, 0
1, 45832, Note_off_c, 9, 39, 0
1, 45852, Note_off_c, 2, 65, 0
1, 45852, Note_off_c, 2, 68, 0
1, 45884, Note_on_c, 9, 42, 127
1, 45888, Note_on_c, 9, 56, 106
1, 45912, Note_off_c, 1, 41, 0
1, 45916, Note_off_c, 9, 42, 0
1, 45924, Note_off_c, 9, 56, 0
1, 46072, Note_on_c, 2, 61, 99
1, 46072, Note_on_c, 2, 68, 114
1, 46072, Note_on_c, 9, 35, 123
1, 46076, Note_on_c, 2, 65, 96
1, 46076, Note_on_c, 2, 58, 99
1, 46076, Note_on_c, 9, 56, 123
1, 46076, Note_on_c, 1, 34, 114
1, 46080, Note_on_c, 2, 46, 99
1, 46080, Note_on_c, 9, 82, 89
1, 46108, Note_off_c, 9, 56, 64
1, 46112, Note_off_c, 9, 82, 0
1, 46120, Note_off_c, 9, 35, 64
1, 46176, Note_on_c, 9, 82, 89
1, 46208, Note_off_c, 9, 82, 0
1, 46268, Note_on_c, 9, 42, 127
1, 46268, Note_on_c, 9, 82, 74
1, 46304, Note_off_c, 9, 42, 0
1, 46304, Note_off_c, 9, 82, 0
1, 46336, Note_off_c, 1, 34, 64
1, 46344, Note_off_c, 2, 61, 64
1, 46348, Note_off_c, 2, 68, 64
1, 46348, Note_off_c, 2, 58, 64
1, 46356, Note_off_c, 2, 65, 64
1, 46356, Note_off_c, 2, 46, 0
1, 46368, Note_on_c, 9, 82, 81
1, 46372, Note_on_c, 9, 56, 114
1, 46400, Note_off_c, 9, 82, 0
1, 46400, Note_off_c, 9, 56, 0
1, 46456, Note_on_c, 9, 39, 127
1, 46504, Note_off_c, 9, 39, 0
1, 46652, Note_on_c, 9, 42, 127
1, 46656, Note_on_c, 9, 35, 123
1, 46656, Note_on_c, 9, 56, 106
1, 46656, Note_on_c, 9, 82, 98
1, 46688, Note_off_c, 9, 56, 0
1, 46688, Note_off_c, 9, 82, 0
1, 46692, Note_off_c, 9, 35, 0
1, 46696, Note_off_c, 9, 42, 0
1, 46752, Note_on_c, 9, 35, 127
1, 46752, Note_on_c, 9, 82, 74
1, 46780, Note_off_c, 9, 82, 0
1, 46784, Note_off_c, 9, 35, 0
1, 46844, Note_on_c, 9, 35, 127
1, 46848, Note_on_c, 9, 82, 81
1, 46848, Note_on_c, 9, 56, 106
1, 46872, Note_off_c, 9, 56, 0
1, 46884, Note_off_c, 9, 82, 0
1, 46888, Note_off_c, 9, 35, 0
1, 46944, Note_on_c, 9, 82, 81
1, 46948, Note_on_c, 9, 56, 106
1, 46976, Note_off_c, 9, 82, 0
1, 46984, Note_off_c, 9, 56, 0
1, 47036, Note_on_c, 9, 82, 74
1, 47040, Note_on_c, 9, 42, 127
1, 47044, Note_on_c, 9, 39, 85
1, 47072, Note_off_c, 9, 82, 0
1, 47080, Note_off_c, 9, 42, 0
1, 47080, Note_off_c, 9, 39, 0
1, 47132, Note_on_c, 9, 82, 81
1, 47136, Note_on_c, 9, 56, 114
1, 47140, Note_on_c, 2, 68, 99
1, 47140, Note_on_c, 2, 61, 91
1, 47140, Note_on_c, 2, 58, 99
1, 47140, Note_on_c, 1, 34, 123
1, 47144, Note_on_c, 2, 46, 99
1, 47144, Note_on_c, 2, 65, 96
1, 47164, Note_off_c, 9, 82, 0
1, 47176, Note_off_c, 9, 56, 0
1, 47324, Note_on_c, 9, 56, 106
1, 47332, Note_on_c, 9, 39, 127
1, 47352, Note_off_c, 9, 56, 0
1, 47368, Note_off_c, 2, 61, 0
1, 47372, Note_off_c, 2, 68, 0
1, 47372, Note_off_c, 2, 58, 0
1, 47372, Note_off_c, 2, 46, 0
1, 47376, Note_off_c, 2, 65, 0
1, 47376, Note_off_c, 9, 39, 0
1, 47424, Note_on_c, 9, 56, 106
1, 47424, Note_on_c, 9, 42, 127
1, 47424, Note_off_c, 1, 34, 0
1, 47460, Note_off_c, 9, 56, 0
1, 47460, Note_off_c, 9, 42, 0
1, 47612, Note_on_c, 2, 58, 99
1, 47612, Note_on_c, 2, 67, 106
1, 47612, Note_on_c, 9, 82, 89
1, 47616, Note_on_c, 2, 64, 102
1, 47616, Note_on_c, 2, 48, 96
1, 47616, Note_on_c, 9, 35, 127
1, 47616, Note_on_c, 9, 56, 114
1, 47616, Note_on_c, 1, 40, 114
1, 47644, Note_off_c, 9, 82, 64
1, 47652, Note_off_c, 9, 56, 0
1, 47660, Note_off_c, 9, 35, 0
1, 47708, Note_on_c, 9, 82, 74
1, 47712, Note_on_c, 9, 56, 106
1, 47740, Note_off_c, 9, 82, 0
1, 47756, Note_off_c, 9, 56, 0
1, 47804, Note_on_c, 9, 82, 74
1, 47808, Note_on_c, 9, 42, 127
1, 47836, Note_off_c, 9, 82, 0
1, 47844, Note_off_c, 9, 42, 0
1, 47876, Note_off_c, 1, 40, 0
1, 47900, Note_off_c, 2, 58, 64
1, 47900, Note_off_c, 2, 67, 64
1, 47900, Note_on_c, 9, 82, 81
1, 47908, Note_off_c, 2, 48, 0
1, 47912, Note_off_c, 2, 64, 0
1, 47940, Note_off_c, 9, 82, 0
1, 47992, Note_on_c, 9, 39, 127
1, 48040, Note_off_c, 9, 39, 0
1, 48188, Note_on_c, 9, 35, 127
1, 48188, Note_on_c, 9, 42, 127
1, 48192, Note_on_c, 9, 82, 89
1, 48192, Note_on_c, 9, 56, 106
1, 48216, Note_off_c, 9, 82, 0
1, 48220, Note_off_c, 9, 35, 0
1, 48224, Note_off_c, 9, 56, 0
1, 48232, Note_off_c, 9, 42, 0
1, 48284, Note_on_c, 9, 35, 114
1, 48284, Note_on_c, 9, 82, 74
1, 48316, Note_off_c, 9, 82, 0
1, 48320, Note_off_c, 9, 35, 0
1, 48380, Note_on_c, 9, 82, 81
1, 48380, Note_on_c, 9, 35, 127
1, 48384, Note_on_c, 9, 56, 99
1, 48404, Note_off_c, 9, 56, 0
1, 48416, Note_off_c, 9, 82, 0
1, 48428, Note_off_c, 9, 35, 0
1, 48476, Note_on_c, 9, 82, 74
1, 48480, Note_on_c, 9, 56, 91
1, 48512, Note_off_c, 9, 82, 0
1, 48512, Note_off_c, 9, 56, 0
1, 48572, Note_on_c, 9, 42, 127
1, 48572, Note_on_c, 9, 82, 74
1, 48576, Note_on_c, 9, 39, 85
1, 48608, Note_off_c, 9, 82, 0
1, 48612, Note_off_c, 9, 39, 0
1, 48616, Note_off_c, 9, 42, 0
1, 48668, Note_on_c, 9, 82, 74
1, 48672, Note_on_c, 2, 48, 91
1, 48672, Note_on_c, 2, 67, 102
1, 48672, Note_on_c, 2, 64, 102
1, 48676, Note_on_c, 2, 58, 106
1, 48676, Note_on_c, 9, 56, 114
1, 48676, Note_on_c, 1, 40, 114
1, 48704, Note_off_c, 9, 56, 0
1, 48708, Note_off_c, 9, 82, 0
1, 48864, Note_on_c, 9, 56, 123
1, 48864, Note_on_c, 9, 39, 127
1, 48896, Note_off_c, 9, 56, 0
1, 48916, Note_off_c, 9, 39, 0
1, 48924, Note_off_c, 2, 58, 0
1, 48928, Note_off_c, 2, 67, 0
1, 48932, Note_off_c, 2, 48, 0
1, 48940, Note_off_c, 2, 64, 0
1, 48952, Note_off_c, 1, 40, 0
1, 48956, Note_on_c, 9, 42, 127
1, 49004, Note_off_c, 9, 42, 0
1, 49148, Note_on_c, 2, 65, 96
1, 49148, Note_on_c, 2, 68, 99
1, 49148, Note_on_c, 2, 60, 96
1, 49148, Note_on_c, 9, 82, 98
1, 49148, Note_on_c, 9, 35, 123
1, 49148, Note_on_c, 9, 56, 114
1, 49152, Note_on_c, 2, 53, 96
1, 49152, Note_on_c, 1, 41, 114
1, 49180, Note_off_c, 9, 82, 64
1, 49180, Note_off_c, 9, 56, 64
1, 49200, Note_off_c, 9, 35, 64
1, 49244, Note_on_c, 9, 82, 74
1, 49276, Note_off_c, 9, 82, 0
1, 49336, Note_on_c, 9, 82, 66
1, 49340, Note_on_c, 9, 42, 127
1, 49372, Note_off_c, 9, 82, 0
1, 49384, Note_off_c, 9, 42, 0
1, 49428, Note_off_c, 1, 41, 0
1, 49436, Note_on_c, 9, 82, 81
1, 49440, Note_off_c, 2, 60, 64
1, 49444, Note_off_c, 2, 68, 64
1, 49444, Note_off_c, 2, 53, 0
1, 49448, Note_off_c, 2, 65, 64
1, 49472, Note_off_c, 9, 82, 0
1, 49532, Note_on_c, 9, 39, 127
1, 49576, Note_off_c, 9, 39, 0
1, 49724, Note_on_c, 9, 35, 127
1, 49724, Note_on_c, 9, 82, 98
1, 49728, Note_on_c, 9, 42, 127
1, 49732, Note_on_c, 9, 56, 99
1, 49752, Note_off_c, 9, 56, 0
1, 49756, Note_off_c, 9, 82, 0
1, 49760, Note_off_c, 9, 35, 0
1, 49772, Note_off_c, 9, 42, 0
1, 49820, Note_on_c, 9, 82, 81
1, 49824, Note_on_c, 9, 35, 123
1, 49824, Note_on_c, 9, 56, 99
1, 49852, Note_off_c, 9, 82, 0
1, 49852, Note_off_c, 9, 56, 0
1, 49856, Note_off_c, 9, 35, 0
1, 49916, Note_on_c, 9, 82, 81
1, 49920, Note_on_c, 9, 35, 127
1, 49920, Note_on_c, 9, 56, 99
1, 49920, Note_on_c, 1, 36, 96
1, 49944, Note_off_c, 9, 56, 0
1, 49956, Note_off_c, 9, 82, 0
1, 49964, Note_off_c, 9, 35, 0
1, 50016, Note_on_c, 9, 82, 74
1, 50016, Note_on_c, 9, 56, 99
1, 50048, Note_off_c, 9, 82, 0
1, 50048, Note_off_c, 9, 56, 0
1, 50108, Note_on_c, 9, 82, 66
1, 50112, Note_on_c, 9, 42, 127
1, 50144, Note_off_c, 9, 82, 0
1, 50160, Note_off_c, 9, 42, 0
1, 50204, Note_on_c, 9, 82, 81
1, 50208, Note_on_c, 2, 60, 86
1, 50208, Note_on_c, 9, 56, 106
1, 50212, Note_on_c, 2, 68, 99
1, 50212, Note_on_c, 2, 65, 96
1, 50212, Note_on_c, 2, 53, 102
1, 50236, Note_off_c, 9, 82, 0
1, 50240, Note_off_c, 9, 56, 0
1, 50304, Note_on_c, 9, 39, 127
1, 50356, Note_off_c, 9, 39, 0
1, 50396, Note_on_c, 9, 56, 114
1, 50432, Note_off_c, 9, 56, 0
1, 50452, Note_off_c, 2, 60, 0
1, 50456, Note_off_c, 2, 68, 0
1, 50456, Note_off_c, 2, 65, 0
1, 50460, Note_off_c, 2, 53, 0
1, 50492, Note_on_c, 9, 42, 127
1, 50496, Note_on_c, 9, 35, 123
1, 50532, Note_off_c, 9, 35, 0
1, 50540, Note_off_c, 9, 42, 0
1, 50596, Note_on_c, 9, 39, 99
1, 50628, Note_off_c, 9, 39, 0
1, 50664, Note_off_c, 1, 36, 0
1, 50684, Note_on_c, 2, 65, 91
1, 50684, Note_on_c, 9, 35, 123
1, 50688, Note_on_c, 2, 60, 102
1, 50688, Note_on_c, 2, 68, 91
1, 50688, Note_on_c, 5, 72, 123
1, 50688, Note_on_c, 9, 82, 89
1, 50688, Note_on_c, 1, 41, 123
1, 50692, Note_on_c, 2, 53, 106
1, 50708, Note_off_c, 9, 82, 0
1, 50732, Note_off_c, 9, 35, 64
1, 50780, Note_on_c, 9, 82, 74
1, 50804, Note_off_c, 9, 82, 0
1, 50872, Note_off_c, 5, 72, 0
1, 50876, Note_on_c, 9, 82, 81
1, 50884, Note_on_c, 9, 42, 127
1, 50900, Note_off_c, 9, 82, 0
1, 50904, Note_off_c, 1, 41, 0
1, 50912, Note_off_c, 2, 60, 0
1, 50912, Note_off_c, 2, 53, 0
1, 50916, Note_off_c, 9, 42, 0
1, 50924, Note_off_c, 2, 65, 64
1, 50924, Note_off_c, 2, 68, 0
1, 50972, Note_on_c, 9, 82, 89
1, 50980, Note_on_c, 9, 56, 114
1, 51004, Note_off_c, 9, 82, 0
1, 51008, Note_off_c, 9, 56, 0
1, 51068, Note_on_c, 9, 39, 127
1, 51120, Note_off_c, 9, 39, 0
1, 51256, Note_on_c, 9, 35, 123
1, 51260, Note_on_c, 9, 42, 123
1, 51260, Note_on_c, 9, 82, 98
1, 51264, Note_on_c, 9, 56, 106
1, 51284, Note_off_c, 9, 82, 0
1, 51296, Note_off_c, 9, 35, 0
1, 51296, Note_off_c, 9, 42, 0
1, 51296, Note_off_c, 9, 56, 0
1, 51356, Note_on_c, 9, 35, 127
1, 51356, Note_on_c, 9, 82, 81
1, 51384, Note_off_c, 9, 82, 0
1, 51388, Note_off_c, 9, 35, 0
1, 51452, Note_on_c, 5, 72, 114
1, 51452, Note_on_c, 9, 35, 127
1, 51452, Note_on_c, 9, 82, 81
1, 51456, Note_on_c, 9, 56, 106
1, 51480, Note_off_c, 9, 82, 0
1, 51480, Note_off_c, 9, 56, 0
1, 51492, Note_off_c, 9, 35, 0
1, 51544, Note_on_c, 9, 82, 74
1, 51556, Note_on_c, 9, 56, 106
1, 51580, Note_off_c, 9, 82, 0
1, 51592, Note_off_c, 9, 56, 0
1, 51604, Note_off_c, 5, 72, 0
1, 51640, Note_on_c, 9, 82, 81
1, 51644, Note_on_c, 9, 39, 91
1, 51648, Note_on_c, 9, 42, 127
1, 51676, Note_off_c, 9, 82, 0
1, 51676, Note_off_c, 9, 39, 0
1, 51680, Note_off_c, 9, 42, 0
1, 51736, Note_on_c, 9, 82, 89
1, 51740, Note_on_c, 1, 41, 110
1, 51744, Note_on_c, 9, 56, 114
1, 51748, Note_on_c, 2, 65, 96
1, 51748, Note_on_c, 2, 60, 102
1, 51748, Note_on_c, 5, 72, 110
1, 51752, Note_on_c, 2, 68, 99
1, 51752, Note_on_c, 2, 53, 110
1, 51776, Note_off_c, 9, 82, 0
1, 51784, Note_off_c, 9, 56, 0
1, 51908, Note_off_c, 5, 72, 0
1, 51932, Note_on_c, 9, 39, 127
1, 51932, Note_on_c, 9, 56, 106
1, 51960, Note_off_c, 9, 56, 0
1, 51972, Note_off_c, 2, 53, 0
1, 51976, Note_off_c, 2, 60, 0
1, 51976, Note_off_c, 9, 39, 0
1, 51996, Note_off_c, 2, 65, 0
1, 51996, Note_off_c, 2, 68, 0
1, 52028, Note_on_c, 9, 42, 127
1, 52032, Note_on_c, 9, 56, 106
1, 52056, Note_off_c, 1, 41, 0
1, 52060, Note_off_c, 9, 42, 0
1, 52068, Note_off_c, 9, 56, 0
1, 52216, Note_on_c, 2, 61, 99
1, 52216, Note_on_c, 2, 68, 114
1, 52216, Note_on_c, 5, 73, 114
1, 52216, Note_on_c, 9, 35, 123
1, 52220, Note_on_c, 2, 65, 96
1, 52220, Note_on_c, 2, 58, 99
1, 52220, Note_on_c, 9, 56, 123
1, 52220, Note_on_c, 1, 34, 114
1, 52224, Note_on_c, 2, 46, 99
1, 52224, Note_on_c, 9, 82, 89
1, 52252, Note_off_c, 9, 56, 64
1, 52256, Note_off_c, 9, 82, 0
1, 52264, Note_off_c, 9, 35, 64
1, 52320, Note_on_c, 9, 82, 89
1, 52352, Note_off_c, 9, 82, 0
1, 52384, Note_off_c, 5, 73, 64
1, 52412, Note_on_c, 9, 42, 127
1, 52412, Note_on_c, 9, 82, 74
1, 52448, Note_off_c, 9, 42, 0
1, 52448, Note_off_c, 9, 82, 0
1, 52480, Note_off_c, 1, 34, 64
1, 52488, Note_off_c, 2, 61, 64
1, 52492, Note_off_c, 2, 68, 64
1, 52492, Note_off_c, 2, 58, 64
1, 52500, Note_off_c, 2, 65, 64
1, 52500, Note_off_c, 2, 46, 0
1, 52512, Note_on_c, 9, 82, 81
1, 52516, Note_on_c, 9, 56, 114
1, 52544, Note_off_c, 9, 82, 0
1, 52544, Note_off_c, 9, 56, 0
1, 52600, Note_on_c, 9, 39, 127
1, 52648, Note_off_c, 9, 39, 0
1, 52796, Note_on_c, 9, 42, 127
1, 52800, Note_on_c, 9, 35, 123
1, 52800, Note_on_c, 9, 56, 106
1, 52800, Note_on_c, 9, 82, 98
1, 52832, Note_off_c, 9, 56, 0
1, 52832, Note_off_c, 9, 82, 0
1, 52836, Note_off_c, 9, 35, 0
1, 52840, Note_off_c, 9, 42, 0
1, 52896, Note_on_c, 9, 35, 127
1, 52896, Note_on_c, 9, 82, 74
1, 52924, Note_off_c, 9, 82, 0
1, 52928, Note_off_c, 9, 35, 0
1, 52988, Note_on_c, 5, 73, 123
1, 52988, Note_on_c, 9, 35, 127
1, 52992, Note_on_c, 9, 82, 81
1, 52992, Note_on_c, 9, 56, 106
1, 53016, Note_off_c, 9, 56, 0
1, 53028, Note_off_c, 9, 82, 0
1, 53032, Note_off_c, 9, 35, 0
1, 53088, Note_on_c, 9, 82, 81
1, 53092, Note_on_c, 9, 56, 106
1, 53120, Note_off_c, 5, 73, 0
1, 53120, Note_off_c, 9, 82, 0
1, 53128, Note_off_c, 9, 56, 0
1, 53180, Note_on_c, 9, 82, 74
1, 53184, Note_on_c, 9, 42, 127
1, 53188, Note_on_c, 9, 39, 85
1, 53216, Note_off_c, 9, 82, 0
1, 53224, Note_off_c, 9, 42, 0
1, 53224, Note_off_c, 9, 39, 0
1, 53276, Note_on_c, 9, 82, 81
1, 53280, Note_on_c, 5, 73, 114
1, 53280, Note_on_c, 9, 56, 114
1, 53284, Note_on_c, 2, 68, 99
1, 53284, Note_on_c, 2, 61, 91
1, 53284, Note_on_c, 2, 58, 99
1, 53284, Note_on_c, 1, 34, 123
1, 53288, Note_on_c, 2, 46, 99
1, 53288, Note_on_c, 2, 65, 96
1, 53308, Note_off_c, 9, 82, 0
1, 53320, Note_off_c, 9, 56, 0
1, 53424, Note_off_c, 5, 73, 0
1, 53468, Note_on_c, 9, 56, 106
1, 53476, Note_on_c, 9, 39, 127
1, 53496, Note_off_c, 9, 56, 0
1, 53512, Note_off_c, 2, 61, 0
1, 53516, Note_off_c, 2, 68, 0
1, 53516, Note_off_c, 2, 58, 0
1, 53516, Note_off_c, 2, 46, 0
1, 53520, Note_off_c, 2, 65, 0
1, 53520, Note_off_c, 9, 39, 0
1, 53568, Note_on_c, 9, 56, 106
1, 53568, Note_on_c, 9, 42, 127
1, 53568, Note_off_c, 1, 34, 0
1, 53604, Note_off_c, 9, 56, 0
1, 53604, Note_off_c, 9, 42, 0
1, 53752, Note_on_c, 5, 70, 114
1, 53756, Note_on_c, 2, 58, 99
1, 53756, Note_on_c, 2, 67, 106
1, 53756, Note_on_c, 9, 82, 89
1, 53760, Note_on_c, 2, 64, 102
1, 53760, Note_on_c, 2, 48, 96
1, 53760, Note_on_c, 9, 35, 127
1, 53760, Note_on_c, 9, 56, 114
1, 53760, Note_on_c, 1, 40, 114
1, 53788, Note_off_c, 9, 82, 64
1, 53796, Note_off_c, 9, 56, 0
1, 53804, Note_off_c, 9, 35, 0
1, 53852, Note_on_c, 9, 82, 74
1, 53856, Note_on_c, 9, 56, 106
1, 53884, Note_off_c, 9, 82, 0
1, 53900, Note_off_c, 9, 56, 0
1, 53932, Note_off_c, 5, 70, 64
1, 53948, Note_on_c, 9, 82, 74
1, 53952, Note_on_c, 9, 42, 127
1, 53980, Note_off_c, 9, 82, 0
1, 53988, Note_off_c, 9, 42, 0
1, 54020, Note_off_c, 1, 40, 0
1, 54044, Note_off_c, 2, 58, 64
1, 54044, Note_off_c, 2, 67, 64
1, 54044, Note_on_c, 9, 82, 81
1, 54052, Note_off_c, 2, 48, 0
1, 54056, Note_off_c, 2, 64, 0
1, 54084, Note_off_c, 9, 82, 0
1, 54136, Note_on_c, 9, 39, 127
1, 54184, Note_off_c, 9, 39, 0
1, 54332, Note_on_c, 9, 35, 127
1, 54332, Note_on_c, 9, 42, 127
1, 54336, Note_on_c, 9, 82, 89
1, 54336, Note_on_c, 9, 56, 106
1, 54360, Note_off_c, 9, 82, 0
1, 54364, Note_off_c, 9, 35, 0
1, 54368, Note_off_c, 9, 56, 0
1, 54376, Note_off_c, 9, 42, 0
1, 54428, Note_on_c, 9, 35, 114
1, 54428, Note_on_c, 9, 82, 74
1, 54460, Note_off_c, 9, 82, 0
1, 54464, Note_off_c, 9, 35, 0
1, 54524, Note_on_c, 9, 82, 81
1, 54524, Note_on_c, 9, 35, 127
1, 54528, Note_on_c, 5, 70, 114
1, 54528, Note_on_c, 9, 56, 99
1, 54548, Note_off_c, 9, 56, 0
1, 54560, Note_off_c, 9, 82, 0
1, 54572, Note_off_c, 9, 35, 0
1, 54620, Note_on_c, 9, 82, 74
1, 54624, Note_on_c, 9, 56, 91
1, 54656, Note_off_c, 9, 82, 0
1, 54656, Note_off_c, 9, 56, 0
1, 54660, Note_off_c, 5, 70, 0
1, 54716, Note_on_c, 9, 42, 127
1, 54716, Note_on_c, 9, 82, 74
1, 54720, Note_on_c, 9, 39, 85
1, 54752, Note_off_c, 9, 82, 0
1, 54756, Note_off_c, 9, 39, 0
1, 54760, Note_off_c, 9, 42, 0
1, 54812, Note_on_c, 9, 82, 74
1, 54816, Note_on_c, 2, 48, 91
1, 54816, Note_on_c, 2, 67, 102
1, 54816, Note_on_c, 2, 64, 102
1, 54820, Note_on_c, 2, 58, 106
1, 54820, Note_on_c, 9, 56, 114
1, 54820, Note_on_c, 1, 40, 114
1, 54824, Note_on_c, 5, 70, 114
1, 54848, Note_off_c, 9, 56, 0
1, 54852, Note_off_c, 9, 82, 0
1, 54956, Note_off_c, 5, 70, 0
1, 55008, Note_on_c, 9, 56, 123
1, 55008, Note_on_c, 9, 39, 127
1, 55040, Note_off_c, 9, 56, 0
1, 55060, Note_off_c, 9, 39, 0
1, 55068, Note_off_c, 2, 58, 0
1, 55072, Note_off_c, 2, 67, 0
1, 55076, Note_off_c, 2, 48, 0
1, 55084, Note_off_c, 2, 64, 0
1, 55096, Note_off_c, 1, 40, 0
1, 55100, Note_on_c, 9, 42, 127
1, 55148, Note_off_c, 9, 42, 0
1, 55288, Note_on_c, 5, 72, 114
1, 55292, Note_on_c, 2, 65, 96
1, 55292, Note_on_c, 2, 68, 99
1, 55292, Note_on_c, 2, 60, 96
1, 55292, Note_on_c, 9, 82, 98
1, 55292, Note_on_c, 9, 35, 123
1, 55292, Note_on_c, 9, 56, 114
1, 55296, Note_on_c, 2, 53, 96
1, 55296, Note_on_c, 1, 41, 114
1, 55324, Note_off_c, 9, 82, 64
1, 55324, Note_off_c, 9, 56, 64
1, 55344, Note_off_c, 9, 35, 64
1, 55388, Note_on_c, 9, 82, 74
1, 55420, Note_off_c, 9, 82, 0
1, 55452, Note_off_c, 5, 72, 64
1, 55480, Note_on_c, 9, 82, 66
1, 55484, Note_on_c, 9, 42, 127
1, 55516, Note_off_c, 9, 82, 0
1, 55528, Note_off_c, 9, 42, 0
1, 55572, Note_off_c, 1, 41, 0
1, 55580, Note_on_c, 9, 82, 81
1, 55584, Note_off_c, 2, 60, 64
1, 55588, Note_off_c, 2, 68, 64
1, 55588, Note_off_c, 2, 53, 0
1, 55592, Note_off_c, 2, 65, 64
1, 55616, Note_off_c, 9, 82, 0
1, 55676, Note_on_c, 9, 39, 127
1, 55720, Note_off_c, 9, 39, 0
1, 55868, Note_on_c, 9, 35, 127
1, 55868, Note_on_c, 9, 82, 98
1, 55872, Note_on_c, 9, 42, 127
1, 55876, Note_on_c, 9, 56, 99
1, 55896, Note_off_c, 9, 56, 0
1, 55900, Note_off_c, 9, 82, 0
1, 55904, Note_off_c, 9, 35, 0
1, 55916, Note_off_c, 9, 42, 0
1, 55964, Note_on_c, 9, 82, 81
1, 55968, Note_on_c, 9, 35, 123
1, 55968, Note_on_c, 9, 56, 99
1, 55996, Note_off_c, 9, 82, 0
1, 55996, Note_off_c, 9, 56, 0
1, 56000, Note_off_c, 9, 35, 0
1, 56060, Note_on_c, 9, 82, 81
1, 56064, Note_on_c, 5, 72, 114
1, 56064, Note_on_c, 9, 35, 127
1, 56064, Note_on_c, 9, 56, 99
1, 56064, Note_on_c, 1, 36, 96
1, 56088, Note_off_c, 9, 56, 0
1, 56100, Note_off_c, 9, 82, 0
1, 56108, Note_off_c, 9, 35, 0
1, 56160, Note_on_c, 9, 82, 74
1, 56160, Note_on_c, 9, 56, 99
1, 56188, Note_off_c, 5, 72, 0
1, 56192, Note_off_c, 9, 82, 0
1, 56192, Note_off_c, 9, 56, 0
1, 56252, Note_on_c, 9, 82, 66
1, 56256, Note_on_c, 9, 42, 127
1, 56288, Note_off_c, 9, 82, 0
1, 56304, Note_off_c, 9, 42, 0
1, 56348, Note_on_c, 9, 82, 81
1, 56352, Note_on_c, 2, 60, 86
1, 56352, Note_on_c, 9, 56, 106
1, 56356, Note_on_c, 2, 68, 99
1, 56356, Note_on_c, 2, 65, 96
1, 56356, Note_on_c, 2, 53, 102
1, 56356, Note_on_c, 5, 72, 110
1, 56380, Note_off_c, 9, 82, 0
1, 56384, Note_off_c, 9, 56, 0
1, 56448, Note_on_c, 9, 39, 127
1, 56500, Note_off_c, 5, 72, 0
1, 56500, Note_off_c, 9, 39, 0
1, 56540, Note_on_c, 9, 56, 114
1, 56576, Note_off_c, 9, 56, 0
1, 56596, Note_off_c, 2, 60, 0
1, 56600, Note_off_c, 2, 68, 0
1, 56600, Note_off_c, 2, 65, 0
1, 56604, Note_off_c, 2, 53, 0
1, 56636, Note_on_c, 9, 42, 127
1, 56640, Note_on_c, 9, 35, 123
1, 56676, Note_off_c, 9, 35, 0
1, 56684, Note_off_c, 9, 42, 0
1, 56740, Note_on_c, 9, 39, 99
1, 56772, Note_off_c, 9, 39, 0
1, 56808, Note_off_c, 1, 36, 0
1, 56828, Note_on_c, 2, 65, 91
1, 56828, Note_on_c, 9, 35, 123
1, 56832, Note_on_c, 2, 60, 102
1, 56832, Note_on_c, 2, 68, 91
1, 56832, Note_on_c, 5, 72, 123
1, 56832, Note_on_c, 9, 82, 89
1, 56832, Note_on_c, 1, 41, 123
1, 56836, Note_on_c, 2, 53, 106
1, 56852, Note_off_c, 9, 82, 0
1, 56876, Note_off_c, 9, 35, 64
1, 56924, Note_on_c, 9, 82, 74
1, 56948, Note_off_c, 9, 82, 0
1, 57016, Note_off_c, 5, 72, 0
1, 57020, Note_on_c, 9, 82, 81
1, 57028, Note_on_c, 9, 42, 127
1, 57044, Note_off_c, 9, 82, 0
1, 57048, Note_off_c, 1, 41, 0
1, 57056, Note_off_c, 2, 60, 0
1, 57056, Note_off_c, 2, 53, 0
1, 57060, Note_off_c, 9, 42, 0
1, 57068, Note_off_c, 2, 65, 64
1, 57068, Note_off_c, 2, 68, 0
1, 57116, Note_on_c, 9, 82, 89
1, 57124, Note_on_c, 9, 56, 114
1, 57148, Note_off_c, 9, 82, 0
1, 57152, Note_off_c, 9, 56, 0
1, 57212, Note_on_c, 9, 39, 127
1, 57264, Note_off_c, 9, 39, 0
1, 57400, Note_on_c, 9, 35, 123
1, 57404, Note_on_c, 9, 42, 123
1, 57404, Note_on_c, 9, 82, 98
1, 57408, Note_on_c, 9, 56, 106
1, 57428, Note_off_c, 9, 82, 0
1, 57440, Note_off_c, 9, 35, 0
1, 57440, Note_off_c, 9, 42, 0
1, 57440, Note_off_c, 9, 56, 0
1, 57500, Note_on_c, 9, 35, 127
1, 57500, Note_on_c, 9, 82, 81
1, 57528, Note_off_c, 9, 82, 0
1, 57532, Note_off_c, 9, 35, 0
1, 57596, Note_on_c, 5, 72, 114
1, 57596, Note_on_c, 9, 35, 127
1, 57596, Note_on_c, 9, 82, 81
1, 57600, Note_on_c, 9, 56, 106
1, 57624, Note_off_c, 9, 82, 0
1, 57624, Note_off_c, 9, 56, 0
1, 57636, Note_off_c, 9, 35, 0
1, 57688, Note_on_c, 9, 82, 74
1, 57700, Note_on_c, 9, 56, 106
1, 57724, Note_off_c, 9, 82, 0
1, 57736, Note_off_c, 9, 56, 0
1, 57748, Note_off_c, 5, 72, 0
1, 57784, Note_on_c, 9, 82, 81
1, 57788, Note_on_c, 9, 39, 91
1, 57792, Note_on_c, 9, 42, 127
1, 57820, Note_off_c, 9, 82, 0
1, 57820, Note_off_c, 9, 39, 0
1, 57824, Note_off_c, 9, 42, 0
1, 57880, Note_on_c, 9, 82, 89
1, 57884, Note_on_c, 1, 41, 110
1, 57888, Note_on_c, 9, 56, 114
1, 57892, Note_on_c, 2, 65, 96
1, 57892, Note_on_c, 2, 60, 102
1, 57892, Note_on_c, 5, 72, 110
1, 57896, Note_on_c, 2, 68, 99
1, 57896, Note_on_c, 2, 53, 110
1, 57920, Note_off_c, 9, 82, 0
1, 57928, Note_off_c, 9, 56, 0
1, 58052, Note_off_c, 5, 72, 0
1, 58076, Note_on_c, 9, 39, 127
1, 58076, Note_on_c, 9, 56, 106
1, 58104, Note_off_c, 9, 56, 0
1, 58116, Note_off_c, 2, 53, 0
1, 58120, Note_off_c, 2, 60, 0
1, 58120, Note_off_c, 9, 39, 0
1, 58140, Note_off_c, 2, 65, 0
1, 58140, Note_off_c, 2, 68, 0
1, 58172, Note_on_c, 9, 42, 127
1, 58176, Note_on_c, 9, 56, 106
1, 58200, Note_off_c, 1, 41, 0
1, 58204, Note_off_c, 9, 42, 0
1, 58212, Note_off_c, 9, 56, 0
1, 58360, Note_on_c, 2, 61, 99
1, 58360, Note_on_c, 2, 68, 114
1, 58360, Note_on_c, 5, 73, 114
1, 58360, Note_on_c, 9, 35, 123
1, 58364, Note_on_c, 2, 65, 96
1, 58364, Note_on_c, 2, 58, 99
1, 58364, Note_on_c, 9, 56, 123
1, 58364, Note_on_c, 1, 34, 114
1, 58368, Note_on_c, 2, 46, 99
1, 58368, Note_on_c, 9, 82, 89
1, 58396, Note_off_c, 9, 56, 64
1, 58400, Note_off_c, 9, 82, 0
1, 58408, Note_off_c, 9, 35, 64
1, 58464, Note_on_c, 9, 82, 89
1, 58496, Note_off_c, 9, 82, 0
1, 58528, Note_off_c, 5, 73, 64
1, 58556, Note_on_c, 9, 42, 127
1, 58556, Note_on_c, 9, 82, 74
1, 58592, Note_off_c, 9, 42, 0
1, 58592, Note_off_c, 9, 82, 0
1, 58624, Note_off_c, 1, 34, 64
1, 58632, Note_off_c, 2, 61, 64
1, 58636, Note_off_c, 2, 68, 64
1, 58636, Note_off_c, 2, 58, 64
1, 58644, Note_off_c, 2, 65, 64
1, 58644, Note_off_c, 2, 46, 0
1, 58656, Note_on_c, 9, 82, 81
1, 58660, Note_on_c, 9, 56, 114
1, 58688, Note_off_c, 9, 82, 0
1, 58688, Note_off_c, 9, 56, 0
1, 58744, Note_on_c, 9, 39, 127
1, 58792, Note_off_c, 9, 39, 0
1, 58940, Note_on_c, 9, 42, 127
1, 58944, Note_on_c, 9, 35, 123
1, 58944, Note_on_c, 9, 56, 106
1, 58944, Note_on_c, 9, 82, 98
1, 58976, Note_off_c, 9, 56, 0
1, 58976, Note_off_c, 9, 82, 0
1, 58980, Note_off_c, 9, 35, 0
1, 58984, Note_off_c, 9, 42, 0
1, 59040, Note_on_c, 9, 35, 127
1, 59040, Note_on_c, 9, 82, 74
1, 59068, Note_off_c, 9, 82, 0
1, 59072, Note_off_c, 9, 35, 0
1, 59132, Note_on_c, 5, 73, 123
1, 59132, Note_on_c, 9, 35, 127
1, 59136, Note_on_c, 9, 82, 81
1, 59136, Note_on_c, 9, 56, 106
1, 59160, Note_off_c, 9, 56, 0
1, 59172, Note_off_c, 9, 82, 0
1, 59176, Note_off_c, 9, 35, 0
1, 59232, Note_on_c, 9, 82, 81
1, 59236, Note_on_c, 9, 56, 106
1, 59264, Note_off_c, 5, 73, 0
1, 59264, Note_off_c, 9, 82, 0
1, 59272, Note_off_c, 9, 56, 0
1, 59324, Note_on_c, 9, 82, 74
1, 59328, Note_on_c, 9, 42, 127
1, 59332, Note_on_c, 9, 39, 85
1, 59360, Note_off_c, 9, 82, 0
1, 59368, Note_off_c, 9, 42, 0
1, 59368, Note_off_c, 9, 39, 0
1, 59420, Note_on_c, 9, 82, 81
1, 59424, Note_on_c, 5, 73, 114
1, 59424, Note_on_c, 9, 56, 114
1, 59428, Note_on_c, 2, 68, 99
1, 59428, Note_on_c, 2, 61, 91
1, 59428, Note_on_c, 2, 58, 99
1, 59428, Note_on_c, 1, 34, 123
1, 59432, Note_on_c, 2, 46, 99
1, 59432, Note_on_c, 2, 65, 96
1, 59452, Note_off_c, 9, 82, 0
1, 59464, Note_off_c, 9, 56, 0
1, 59568, Note_off_c, 5, 73, 0
1, 59612, Note_on_c, 9, 56, 106
1, 59620, Note_on_c, 9, 39, 127
1, 59640, Note_off_c, 9, 56, 0
1, 59656, Note_off_c, 2, 61, 0
1, 59660, Note_off_c, 2, 68, 0
1, 59660, Note_off_c, 2, 58, 0
1, 59660, Note_off_c, 2, 46, 0
1, 59664, Note_off_c, 2, 65, 0
1, 59664, Note_off_c, 9, 39, 0
1, 59712, Note_on_c, 9, 56, 106
1, 59712, Note_on_c, 9, 42, 127
1, 59712, Note_off_c, 1, 34, 0
1, 59748, Note_off_c, 9, 56, 0
1, 59748, Note_off_c, 9, 42, 0
1, 59896, Note_on_c, 5, 70, 114
1, 59900, Note_on_c, 2, 58, 99
1, 59900, Note_on_c, 2, 67, 106
1, 59900, Note_on_c, 9, 82, 89
1, 59904, Note_on_c, 2, 64, 102
1, 59904, Note_on_c, 2, 48, 96
1, 59904, Note_on_c, 9, 35, 127
1, 59904, Note_on_c, 9, 56, 114
1, 59904, Note_on_c, 1, 40, 114
1, 59932, Note_off_c, 9, 82, 64
1, 59940, Note_off_c, 9, 56, 0
1, 59948, Note_off_c, 9, 35, 0
1, 59996, Note_on_c, 9, 82, 74
1, 60000, Note_on_c, 9, 56, 106
1, 60028, Note_off_c, 9, 82, 0
1, 60044, Note_off_c, 9, 56, 0
1, 60076, Note_off_c, 5, 70, 64
1, 60092, Note_on_c, 9, 82, 74
1, 60096, Note_on_c, 9, 42, 127
1, 60124, Note_off_c, 9, 82, 0
1, 60132, Note_off_c, 9, 42, 0
1, 60164, Note_off_c, 1, 40, 0
1, 60188, Note_off_c, 2, 58, 64
1, 60188, Note_off_c, 2, 67, 64
1, 60188, Note_on_c, 9, 82, 81
1, 60196, Note_off_c, 2, 48, 0
1, 60200, Note_off_c, 2, 64, 0
1, 60228, Note_off_c, 9, 82, 0
1, 60280, Note_on_c, 9, 39, 127
1, 60328, Note_off_c, 9, 39, 0
1, 60476, Note_on_c, 9, 35, 127
1, 60476, Note_on_c, 9, 42, 127
1, 60480, Note_on_c, 9, 82, 89
1, 60480, Note_on_c, 9, 56, 106
1, 60504, Note_off_c, 9, 82, 0
1, 60508, Note_off_c, 9, 35, 0
1, 60512, Note_off_c, 9, 56, 0
1, 60520, Note_off_c, 9, 42, 0
1, 60572, Note_on_c, 9, 35, 114
1, 60572, Note_on_c, 9, 82, 74
1, 60604, Note_off_c, 9, 82, 0
1, 60608, Note_off_c, 9, 35, 0
1, 60668, Note_on_c, 9, 82, 81
1, 60668, Note_on_c, 9, 35, 127
1, 60672, Note_on_c, 5, 70, 114
1, 60672, Note_on_c, 9, 56, 99
1, 60692, Note_off_c, 9, 56, 0
1, 60704, Note_off_c, 9, 82, 0
1, 60716, Note_off_c, 9, 35, 0
1, 60764, Note_on_c, 9, 82, 74
1, 60768, Note_on_c, 9, 56, 91
1, 60800, Note_off_c, 9, 82, 0
1, 60800, Note_off_c, 9, 56, 0
1, 60804, Note_off_c, 5, 70, 0
1, 60860, Note_on_c, 9, 42, 127
1, 60860, Note_on_c, 9, 82, 74
1, 60864, Note_on_c, 9, 39, 85
1, 60896, Note_off_c, 9, 82, 0
1, 60900, Note_off_c, 9, 39, 0
1, 60904, Note_off_c, 9, 42, 0
1, 60956, Note_on_c, 9, 82, 74
1, 60960, Note_on_c, 2, 48, 91
1, 60960, Note_on_c, 2, 67, 102
1, 60960, Note_on_c, 2, 64, 102
1, 60964, Note_on_c, 2, 58, 106
1, 60964, Note_on_c, 9, 56, 114
1, 60964, Note_on_c, 1, 40, 114
1, 60968, Note_on_c, 5, 70, 114
1, 60992, Note_off_c, 9, 56, 0
1, 60996, Note_off_c, 9, 82, 0
1, 61100, Note_off_c, 5, 70, 0
1, 61152, Note_on_c, 9, 56, 123
1, 61152, Note_on_c, 9, 39, 127
1, 61184, Note_off_c, 9, 56, 0
1, 61204, Note_off_c, 9, 39, 0
1, 61212, Note_off_c, 2, 58, 0
1, 61216, Note_off_c, 2, 67, 0
1, 61220, Note_off_c, 2, 48, 0
1, 61228, Note_off_c, 2, 64, 0
1, 61240, Note_off_c, 1, 40, 0
1, 61244, Note_on_c, 9, 42, 127
1, 61292, Note_off_c, 9, 42, 0
1, 61432, Note_on_c, 5, 72, 114
1, 61436, Note_on_c, 2, 65, 96
1, 61436, Note_on_c, 2, 68, 99
1, 61436, Note_on_c, 2, 60, 96
1, 61436, Note_on_c, 9, 82, 98
1, 61436, Note_on_c, 9, 35, 123
1, 61436, Note_on_c, 9, 56, 114
1, 61440, Note_on_c, 2, 53, 96
1, 61440, Note_on_c, 1, 41, 114
1, 61468, Note_off_c, 9, 82, 64
1, 61468, Note_off_c, 9, 56, 64
1, 61488, Note_off_c, 9, 35, 64
1, 61532, Note_on_c, 9, 82, 74
1, 61564, Note_off_c, 9, 82, 0
1, 61596, Note_off_c, 5, 72, 64
1, 61624, Note_on_c, 9, 82, 66
1, 61628, Note_on_c, 9, 42, 127
1, 61660, Note_off_c, 9, 82, 0
1, 61672, Note_off_c, 9, 42, 0
1, 61716, Note_off_c, 1, 41, 0
1, 61724, Note_on_c, 9, 82, 81
1, 61728, Note_off_c, 2, 60, 64
1, 61732, Note_off_c, 2, 68, 64
1, 61732, Note_off_c, 2, 53, 0
1, 61736, Note_off_c, 2, 65, 64
1, 61760, Note_off_c, 9, 82, 0
1, 61820, Note_on_c, 9, 39, 127
1, 61864, Note_off_c, 9, 39, 0
1, 62012, Note_on_c, 9, 35, 127
1, 62012, Note_on_c, 9, 82, 98
1, 62016, Note_on_c, 9, 42, 127
1, 62020, Note_on_c, 9, 56, 99
1, 62040, Note_off_c, 9, 56, 0
1, 62044, Note_off_c, 9, 82, 0
1, 62048, Note_off_c, 9, 35, 0
1, 62060, Note_off_c, 9, 42, 0
1, 62108, Note_on_c, 9, 82, 81
1, 62112, Note_on_c, 9, 35, 123
1, 62112, Note_on_c, 9, 56, 99
1, 62140, Note_off_c, 9, 82, 0
1, 62140, Note_off_c, 9, 56, 0
1, 62144, Note_off_c, 9, 35, 0
1, 62204, Note_on_c, 9, 82, 81
1, 62208, Note_on_c, 5, 72, 114
1, 62208, Note_on_c, 9, 35, 127
1, 62208, Note_on_c, 9, 56, 99
1, 62208, Note_on_c, 1, 36, 96
1, 62232, Note_off_c, 9, 56, 0
1, 62244, Note_off_c, 9, 82, 0
1, 62252, Note_off_c, 9, 35, 0
1, 62304, Note_on_c, 9, 82, 74
1, 62304, Note_on_c, 9, 56, 99
1, 62332, Note_off_c, 5, 72, 0
1, 62336, Note_off_c, 9, 82, 0
1, 62336, Note_off_c, 9, 56, 0
1, 62396, Note_on_c, 9, 82, 66
1, 62400, Note_on_c, 9, 42, 127
1, 62432, Note_off_c, 9, 82, 0
1, 62448, Note_off_c, 9, 42, 0
1, 62492, Note_on_c, 9, 82, 81
1, 62496, Note_on_c, 2, 60, 86
1, 62496, Note_on_c, 9, 56, 106
1, 62500, Note_on_c, 2, 68, 99
1, 62500, Note_on_c, 2, 65, 96
1, 62500, Note_on_c, 2, 53, 102
1, 62500, Note_on_c, 5, 72, 110
1, 62524, Note_off_c, 9, 82, 0
1, 62528, Note_off_c, 9, 56, 0
1, 62592, Note_on_c, 9, 39, 127
1, 62644, Note_off_c, 5, 72, 0
1, 62644, Note_off_c, 9, 39, 0
1, 62684, Note_on_c, 9, 56, 114
1, 62720, Note_off_c, 9, 56, 0
1, 62740, Note_off_c, 2, 60, 0
1, 62744, Note_off_c, 2, 68, 0
1, 62744, Note_off_c, 2, 65, 0
1, 62748, Note_off_c, 2, 53, 0
1, 62780, Note_on_c, 9, 42, 127
1, 62784, Note_on_c, 9, 35, 123
1, 62820, Note_off_c, 9, 35, 0
1, 62828, Note_off_c, 9, 42, 0
1, 62884, Note_on_c, 9, 39, 99
1, 62916, Note_off_c, 9, 39, 0
1, 62952, Note_off_c, 1, 36, 0
1, 62972, Note_on_c, 2, 65, 91
1, 62972, Note_on_c, 9, 35, 123
1, 62976, Note_on_c, 2, 60, 102
1, 62976, Note_on_c, 2, 68, 91
1, 62976, Note_on_c, 5, 72, 123
1, 62976, Note_on_c, 9, 82, 89
1, 62976, Note_on_c, 1, 41, 123
1, 62980, Note_on_c, 2, 53, 106
1, 62996, Note_off_c, 9, 82, 0
1, 63020, Note_off_c, 9, 35, 64
1, 63068, Note_on_c, 9, 82, 74
1, 63092, Note_off_c, 9, 82, 0
1, 63160, Note_off_c, 5, 72, 0
1, 63164, Note_on_c, 9, 82, 81
1, 63172, Note_on_c, 9, 42, 127
1, 63188, Note_off_c, 9, 82, 0
1, 63192, Note_off_c, 1, 41, 0
1, 63200, Note_off_c, 2, 60, 0
1, 63200, Note_off_c, 2, 53, 0
1, 63204, Note_off_c, 9, 42, 0
1, 63212, Note_off_c, 2, 65, 64
1, 63212, Note_off_c, 2, 68, 0
1, 63260, Note_on_c, 9, 82, 89
1, 63268, Note_on_c, 9, 56, 114
1, 63292, Note_off_c, 9, 82, 0
1, 63296, Note_off_c, 9, 56, 0
1, 63356, Note_on_c, 9, 39, 127
1, 63408, Note_off_c, 9, 39, 0
1, 63544, Note_on_c, 9, 35, 123
1, 63548, Note_on_c, 9, 42, 123
1, 63548, Note_on_c, 9, 82, 98
1, 63552, Note_on_c, 9, 56, 106
1, 63572, Note_off_c, 9, 82, 0
1, 63584, Note_off_c, 9, 35, 0
1, 63584, Note_off_c, 9, 42, 0
1, 63584, Note_off_c, 9, 56, 0
1, 63644, Note_on_c, 9, 35, 127
1, 63644, Note_on_c, 9, 82, 81
1, 63672, Note_off_c, 9, 82, 0
1, 63676, Note_off_c, 9, 35, 0
1, 63740, Note_on_c, 5, 72, 114
1, 63740, Note_on_c, 9, 35, 127
1, 63740, Note_on_c, 9, 82, 81
1, 63744, Note_on_c, 9, 56, 106
1, 63768, Note_off_c, 9, 82, 0
1, 63768, Note_off_c, 9, 56, 0
1, 63780, Note_off_c, 9, 35, 0
1, 63832, Note_on_c, 9, 82, 74
1, 63844, Note_on_c, 9, 56, 106
1, 63868, Note_off_c, 9, 82, 0
1, 63880, Note_off_c, 9, 56, 0
1, 63892, Note_off_c, 5, 72, 0
1, 63928, Note_on_c, 9, 82, 81
1, 63932, Note_on_c, 9, 39, 91
1, 63936, Note_on_c, 9, 42, 127
1, 63964, Note_off_c, 9, 82, 0
1, 63964, Note_off_c, 9, 39, 0
1, 63968, Note_off_c, 9, 42, 0
1, 64024, Note_on_c, 9, 82, 89
1, 64028, Note_on_c, 1, 41, 110
1, 64032, Note_on_c, 9, 56, 114
1, 64036, Note_on_c, 2, 65, 96
1, 64036, Note_on_c, 2, 60, 102
1, 64036, Note_on_c, 5, 72, 110
1, 64040, Note_on_c, 2, 68, 99
1, 64040, Note_on_c, 2, 53, 110
1, 64064, Note_off_c, 9, 82, 0
1, 64072, Note_off_c, 9, 56, 0
1, 64196, Note_off_c, 5, 72, 0
1, 64220, Note_on_c, 9, 39, 127
1, 64220, Note_on_c, 9, 56, 106
1, 64248, Note_off_c, 9, 56, 0
1, 64260, Note_off_c, 2, 53, 0
1, 64264, Note_off_c, 2, 60, 0
1, 64264, Note_off_c, 9, 39, 0
1, 64284, Note_off_c, 2, 65, 0
1, 64284, Note_off_c, 2, 68, 0
1, 64316, Note_on_c, 9, 42, 127
1, 64320, Note_on_c, 9, 56, 106
1, 64344, Note_off_c, 1, 41, 0
1, 64348, Note_off_c, 9, 42, 0
1, 64356, Note_off_c, 9, 56, 0
1, 64504, Note_on_c, 2, 61, 99
1, 64504, Note_on_c, 2, 68, 114
1, 64504, Note_on_c, 5, 73, 114
1, 64504, Note_on_c, 9, 35, 123
1, 64508, Note_on_c, 2, 65, 96
1, 64508, Note_on_c, 2, 58, 99
1, 64508, Note_on_c, 9, 56, 123
1, 64508, Note_on_c, 1, 34, 114
1, 64512, Note_on_c, 2, 46, 99
1, 64512, Note_on_c, 9, 82, 89
1, 64540, Note_off_c, 9, 56, 64
1, 64544, Note_off_c, 9, 82, 0
1, 64552, Note_off_c, 9, 35, 64
1, 64608, Note_on_c, 9, 82, 89
1, 64640, Note_off_c, 9, 82, 0
1, 64672, Note_off_c, 5, 73, 64
1, 64700, Note_on_c, 9, 42, 127
1, 64700, Note_on_c, 9, 82, 74
1, 64736, Note_off_c, 9, 42, 0
1, 64736, Note_off_c, 9, 82, 0
1, 64768, Note_off_c, 1, 34, 64
1, 64776, Note_off_c, 2, 61, 64
1, 64780, Note_off_c, 2, 68, 64
1, 64780, Note_off_c, 2, 58, 64
1, 64788, Note_off_c, 2, 65, 64
1, 64788, Note_off_c, 2, 46, 0
1, 64800, Note_on_c, 9, 82, 81
1, 64804, Note_on_c, 9, 56, 114
1, 64832, Note_off_c, 9, 82, 0
1, 64832, Note_off_c, 9, 56, 0
1, 64888, Note_on_c, 9, 39, 127
1, 64936, Note_off_c, 9, 39, 0
1, 65084, Note_on_c, 9, 42, 127
1, 65088, Note_on_c, 9, 35, 123
1, 65088, Note_on_c, 9, 56, 106
1, 65088, Note_on_c, 9, 82, 98
1, 65120, Note_off_c, 9, 56, 0
1, 65120, Note_off_c, 9, 82, 0
1, 65124, Note_off_c, 9, 35, 0
1, 65128, Note_off_c, 9, 42, 0
1, 65184, Note_on_c, 9, 35, 127
1, 65184, Note_on_c, 9, 82, 74
1, 65212, Note_off_c, 9, 82, 0
1, 65216, Note_off_c, 9, 35, 0
1, 65276, Note_on_c, 5, 73, 123
1, 65276, Note_on_c, 9, 35, 127
1, 65280, Note_on_c, 9, 82, 81
1, 65280, Note_on_c, 9, 56, 106
1, 65304, Note_off_c, 9, 56, 0
1, 65316, Note_off_c, 9, 82, 0
1, 65320, Note_off_c, 9, 35, 0
1, 65376, Note_on_c, 9, 82, 81
1, 65380, Note_on_c, 9, 56, 106
1, 65408, Note_off_c, 5, 73, 0
1, 65408, Note_off_c, 9, 82, 0
1, 65416, Note_off_c, 9, 56, 0
1, 65468, Note_on_c, 9, 82, 74
1, 65472, Note_on_c, 9, 42, 127
1, 65476, Note_on_c, 9, 39, 85
1, 65504, Note_off_c, 9, 82, 0
1, 65512, Note_off_c, 9, 42, 0
1, 65512, Note_off_c, 9, 39, 0
1, 65564, Note_on_c, 9, 82, 81
1, 65568, Note_on_c, 5, 73, 114
1, 65568, Note_on_c, 9, 56, 114
1, 65572, Note_on_c, 2, 68, 99
1, 65572, Note_on_c, 2, 61, 91
1, 65572, Note_on_c, 2, 58, 99
1, 65572, Note_on_c, 1, 34, 123
1, 65576, Note_on_c, 2, 46, 99
1, 65576, Note_on_c, 2, 65, 96
1, 65596, Note_off_c, 9, 82, 0
1, 65608, Note_off_c, 9, 56, 0
1, 65712, Note_off_c, 5, 73, 0
1, 65756, Note_on_c, 9, 56, 106
1, 65764, Note_on_c, 9, 39, 127
1, 65784, Note_off_c, 9, 56, 0
1, 65800, Note_off_c, 2, 61, 0
1, 65804, Note_off_c, 2, 68, 0
1, 65804, Note_off_c, 2, 58, 0
1, 65804, Note_off_c, 2, 46, 0
1, 65808, Note_off_c, 2, 65, 0
1, 65808, Note_off_c, 9, 39, 0
1, 65856, Note_on_c, 9, 56, 106
1, 65856, Note_on_c, 9, 42, 127
1, 65856, Note_off_c, 1, 34, 0
1, 65892, Note_off_c, 9, 56, 0
1, 65892, Note_off_c, 9, 42, 0
1, 66040, Note_on_c, 5, 70, 114
1, 66044, Note_on_c, 2, 58, 99
1, 66044, Note_on_c, 2, 67, 106
1, 66044, Note_on_c, 9, 82, 89
1, 66048, Note_on_c, 2, 64, 102
1, 66048, Note_on_c, 2, 48, 96
1, 66048, Note_on_c, 9, 35, 127
1, 66048, Note_on_c, 9, 56, 114
1, 66048, Note_on_c, 1, 40, 114
1, 66076, Note_off_c, 9, 82, 64
1, 66084, Note_off_c, 9, 56, 0
1, 66092, Note_off_c, 9, 35, 0
1, 66140, Note_on_c, 9, 82, 74
1, 66144, Note_on_c, 9, 56, 106
1, 66172, Note_off_c, 9, 82, 0
1, 66188, Note_off_c, 9, 56, 0
1, 66220, Note_off_c, 5, 70, 64
1, 66236, Note_on_c, 9, 82, 74
1, 66240, Note_on_c, 9, 42, 127
1, 66268, Note_off_c, 9, 82, 0
1, 66276, Note_off_c, 9, 42, 0
1, 66308, Note_off_c, 1, 40, 0
1, 66332, Note_off_c, 2, 58, 64
1, 66332, Note_off_c, 2, 67, 64
1, 66332, Note_on_c, 9, 82, 81
1, 66340, Note_off_c, 2, 48, 0
1, 66344, Note_off_c, 2, 64, 0
1, 66372, Note_off_c, 9, 82, 0
1, 66424, Note_on_c, 9, 39, 127
1, 66472, Note_off_c, 9, 39, 0
1, 66620, Note_on_c, 9, 35, 127
1, 66620, Note_on_c, 9, 42, 127
1, 66624, Note_on_c, 9, 82, 89
1, 66624, Note_on_c, 9, 56, 106
1, 66648, Note_off_c, 9, 82, 0
1, 66652, Note_off_c, 9, 35, 0
1, 66656, Note_off_c, 9, 56, 0
1, 66664, Note_off_c, 9, 42, 0
1, 66716, Note_on_c, 9, 35, 114
1, 66716, Note_on_c, 9, 82, 74
1, 66748, Note_off_c, 9, 82, 0
1, 66752, Note_off_c, 9, 35, 0
1, 66812, Note_on_c, 9, 82, 81
1, 66812, Note_on_c, 9, 35, 127
1, 66816, Note_on_c, 5, 70, 114
1, 66816, Note_on_c, 9, 56, 99
1, 66836, Note_off_c, 9, 56, 0
1, 66848, Note_off_c, 9, 82, 0
1, 66860, Note_off_c, 9, 35, 0
1, 66908, Note_on_c, 9, 82, 74
1, 66912, Note_on_c, 9, 56, 91
1, 66944, Note_off_c, 9, 82, 0
1, 66944, Note_off_c, 9, 56, 0
1, 66948, Note_off_c, 5, 70, 0
1, 67004, Note_on_c, 9, 42, 127
1, 67004, Note_on_c, 9, 82, 74
1, 67008, Note_on_c, 9, 39, 85
1, 67040, Note_off_c, 9, 82, 0
1, 67044, Note_off_c, 9, 39, 0
1, 67048, Note_off_c, 9, 42, 0
1, 67100, Note_on_c, 9, 82, 74
1, 67104, Note_on_c, 2, 48, 91
1, 67104, Note_on_c, 2, 67, 102
1, 67104, Note_on_c, 2, 64, 102
1, 67108, Note_on_c, 2, 58, 106
1, 67108, Note_on_c, 9, 56, 114
1, 67108, Note_on_c, 1, 40, 114
1, 67112, Note_on_c, 5, 70, 114
1, 67136, Note_off_c, 9, 56, 0
1, 67140, Note_off_c, 9, 82, 0
1, 67244, Note_off_c, 5, 70, 0
1, 67296, Note_on_c, 9, 56, 123
1, 67296, Note_on_c, 9, 39, 127
1, 67328, Note_off_c, 9, 56, 0
1, 67348, Note_off_c, 9, 39, 0
1, 67356, Note_off_c, 2, 58, 0
1, 67360, Note_off_c, 2, 67, 0
1, 67364, Note_off_c, 2, 48, 0
1, 67372, Note_off_c, 2, 64, 0
1, 67384, Note_off_c, 1, 40, 0
1, 67388, Note_on_c, 9, 42, 127
1, 67436, Note_off_c, 9, 42, 0
1, 67576, Note_on_c, 5, 72, 114
1, 67580, Note_on_c, 2, 65, 96
1, 67580, Note_on_c, 2, 68, 99
1, 67580, Note_on_c, 2, 60, 96
1, 67580, Note_on_c, 9, 82, 98
1, 67580, Note_on_c, 9, 35, 123
1, 67580, Note_on_c, 9, 56, 114
1, 67584, Note_on_c, 2, 53, 96
1, 67584, Note_on_c, 1, 41, 114
1, 67612, Note_off_c, 9, 82, 64
1, 67612, Note_off_c, 9, 56, 64
1, 67632, Note_off_c, 9, 35, 64
1, 67676, Note_on_c, 9, 82, 74
1, 67708, Note_off_c, 9, 82, 0
1, 67740, Note_off_c, 5, 72, 64
1, 67768, Note_on_c, 9, 82, 66
1, 67772, Note_on_c, 9, 42, 127
1, 67804, Note_off_c, 9, 82, 0
1, 67816, Note_off_c, 9, 42, 0
1, 67860, Note_off_c, 1, 41, 0
1, 67868, Note_on_c, 9, 82, 81
1, 67872, Note_off_c, 2, 60, 64
1, 67876, Note_off_c, 2, 68, 64
1, 67876, Note_off_c, 2, 53, 0
1, 67880, Note_off_c, 2, 65, 64
1, 67904, Note_off_c, 9, 82, 0
1, 67964, Note_on_c, 9, 39, 127
1, 68008, Note_off_c, 9, 39, 0
1, 68156, Note_on_c, 9, 35, 127
1, 68156, Note_on_c, 9, 82, 98
1, 68160, Note_on_c, 9, 42, 127
1, 68164, Note_on_c, 9, 56, 99
1, 68184, Note_off_c, 9, 56, 0
1, 68188, Note_off_c, 9, 82, 0
1, 68192, Note_off_c, 9, 35, 0
1, 68204, Note_off_c, 9, 42, 0
1, 68252, Note_on_c, 9, 82, 81
1, 68256, Note_on_c, 9, 35, 123
1, 68256, Note_on_c, 9, 56, 99
1, 68284, Note_off_c, 9, 82, 0
1, 68284, Note_off_c, 9, 56, 0
1, 68288, Note_off_c, 9, 35, 0
1, 68348, Note_on_c, 9, 82, 81
1, 68352, Note_on_c, 5, 72, 114
1, 68352, Note_on_c, 9, 35, 127
1, 68352, Note_on_c, 9, 56, 99
1, 68352, Note_on_c, 1, 36, 96
1, 68376, Note_off_c, 9, 56, 0
1, 68388, Note_off_c, 9, 82, 0
1, 68396, Note_off_c, 9, 35, 0
1, 68448, Note_on_c, 9, 82, 74
1, 68448, Note_on_c, 9, 56, 99
1, 68476, Note_off_c, 5, 72, 0
1, 68480, Note_off_c, 9, 82, 0
1, 68480, Note_off_c, 9, 56, 0
1, 68540, Note_on_c, 9, 82, 66
1, 68544, Note_on_c, 9, 42, 127
1, 68576, Note_off_c, 9, 82, 0
1, 68592, Note_off_c, 9, 42, 0
1, 68636, Note_on_c, 9, 82, 81
1, 68640, Note_on_c, 2, 60, 86
1, 68640, Note_on_c, 9, 56, 106
1, 68644, Note_on_c, 2, 68, 99
1, 68644, Note_on_c, 2, 65, 96
1, 68644, Note_on_c, 2, 53, 102
1, 68644, Note_on_c, 5, 72, 110
1, 68668, Note_off_c, 9, 82, 0
1, 68672, Note_off_c, 9, 56, 0
1, 68736, Note_on_c, 9, 39, 127
1, 68788, Note_off_c, 5, 72, 0
1, 68788, Note_off_c, 9, 39, 0
1, 68828, Note_on_c, 9, 56, 114
1, 68864, Note_off_c, 9, 56, 0
1, 68884, Note_off_c, 2, 60, 0
1, 68888, Note_off_c, 2, 68, 0
1, 68888, Note_off_c, 2, 65, 0
1, 68892, Note_off_c, 2, 53, 0
1, 68924, Note_on_c, 9, 42, 127
1, 68928, Note_on_c, 9, 35, 123
1, 68964, Note_off_c, 9, 35, 0
1, 68972, Note_off_c, 9, 42, 0
1, 69028, Note_on_c, 9, 39, 99
1, 69060, Note_off_c, 9, 39, 0
1, 69096, Note_off_c, 1, 36, 0
1, 69116, Note_on_c, 2, 65, 91
1, 69116, Note_on_c, 9, 35, 123
1, 69120, Note_on_c, 2, 60, 102
1, 69120, Note_on_c, 2, 68, 91
1, 69120, Note_on_c, 5, 72, 123
1, 69120, Note_on_c, 9, 82, 89
1, 69120, Note_on_c, 1, 41, 123
1, 69124, Note_on_c, 2, 53, 106
1, 69140, Note_off_c, 9, 82, 0
1, 69164, Note_off_c, 9, 35, 64
1, 69212, Note_on_c, 9, 82, 74
1, 69236, Note_off_c, 9, 82, 0
1, 69304, Note_off_c, 5, 72, 0
1, 69308, Note_on_c, 9, 82, 81
1, 69316, Note_on_c, 9, 42, 127
1, 69332, Note_off_c, 9, 82, 0
1, 69336, Note_off_c, 1, 41, 0
1, 69344, Note_off_c, 2, 60, 0
1, 69344, Note_off_c, 2, 53, 0
1, 69348, Note_off_c, 9, 42, 0
1, 69356, Note_off_c, 2, 65, 64
1, 69356, Note_off_c, 2, 68, 0
1, 69404, Note_on_c, 9, 82, 89
1, 69412, Note_on_c, 9, 56, 114
1, 69436, Note_off_c, 9, 82, 0
1, 69440, Note_off_c, 9, 56, 0
1, 69500, Note_on_c, 9, 39, 127
1, 69552, Note_off_c, 9, 39, 0
1, 69688, Note_on_c, 9, 35, 123
1, 69692, Note_on_c, 9, 42, 123
1, 69692, Note_on_c, 9, 82, 98
1, 69696, Note_on_c, 9, 56, 106
1, 69716, Note_off_c, 9, 82, 0
1, 69728, Note_off_c, 9, 35, 0
1, 69728, Note_off_c, 9, 42, 0
1, 69728, Note_off_c, 9, 56, 0
1, 69788, Note_on_c, 9, 35, 127
1, 69788, Note_on_c, 9, 82, 81
1, 69816, Note_off_c, 9, 82, 0
1, 69820, Note_off_c, 9, 35, 0
1, 69884, Note_on_c, 5, 72, 114
1, 69884, Note_on_c, 9, 35, 127
1, 69884, Note_on_c, 9, 82, 81
1, 69888, Note_on_c, 9, 56, 106
1, 69912, Note_off_c, 9, 82, 0
1, 69912, Note_off_c, 9, 56, 0
1, 69924, Note_off_c, 9, 35, 0
1, 69976, Note_on_c, 9, 82, 74
1, 69988, Note_on_c, 9, 56, 106
1, 70012, Note_off_c, 9, 82, 0
1, 70024, Note_off_c, 9, 56, 0
1, 70036, Note_off_c, 5, 72, 0
1, 70072, Note_on_c, 9, 82, 81
1, 70076, Note_on_c, 9, 39, 91
1, 70080, Note_on_c, 9, 42, 127
1, 70108, Note_off_c, 9, 82, 0
1, 70108, Note_off_c, 9, 39, 0
1, 70112, Note_off_c, 9, 42, 0
1, 70168, Note_on_c, 9, 82, 89
1, 70172, Note_on_c, 1, 41, 110
1, 70176, Note_on_c, 9, 56, 114
1, 70180, Note_on_c, 2, 65, 96
1, 70180, Note_on_c, 2, 60, 102
1, 70180, Note_on_c, 5, 72, 110
1, 70184, Note_on_c, 2, 68, 99
1, 70184, Note_on_c, 2, 53, 110
1, 70208, Note_off_c, 9, 82, 0
1, 70216, Note_off_c, 9, 56, 0
1, 70340, Note_off_c, 5, 72, 0
1, 70364, Note_on_c, 9, 39, 127
1, 70364, Note_on_c, 9, 56, 106
1, 70392, Note_off_c, 9, 56, 0
1, 70404, Note_off_c, 2, 53, 0
1, 70408, Note_off_c, 2, 60, 0
1, 70408, Note_off_c, 9, 39, 0
1, 70428, Note_off_c, 2, 65, 0
1, 70428, Note_off_c, 2, 68, 0
1, 70460, Note_on_c, 9, 42, 127
1, 70464, Note_on_c, 9, 56, 106
1, 70488, Note_off_c, 1, 41, 0
1, 70492, Note_off_c, 9, 42, 0
1, 70500, Note_off_c, 9, 56, 0
1, 70648, Note_on_c, 2, 61, 99
1, 70648, Note_on_c, 2, 68, 114
1, 70648, Note_on_c, 5, 73, 114
1, 70648, Note_on_c, 9, 35, 123
1, 70652, Note_on_c, 2, 65, 96
1, 70652, Note_on_c, 2, 58, 99
1, 70652, Note_on_c, 9, 56, 123
1, 70652, Note_on_c, 1, 34, 114
1, 70656, Note_on_c, 2, 46, 99
1, 70656, Note_on_c, 9, 82, 89
1, 70684, Note_off_c, 9, 56, 64
1, 70688, Note_off_c, 9, 82, 0
1, 70696, Note_off_c, 9, 35, 64
1, 70752, Note_on_c, 9, 82, 89
1, 70784, Note_off_c, 9, 82, 0
1, 70816, Note_off_c, 5, 73, 64
1, 70844, Note_on_c, 9, 42, 127
1, 70844, Note_on_c, 9, 82, 74
1, 70880, Note_off_c, 9, 42, 0
1, 70880, Note_off_c, 9, 82, 0
1, 70912, Note_off_c, 1, 34, 64
1, 70920, Note_off_c, 2, 61, 64
1, 70924, Note_off_c, 2, 68, 64
1, 70924, Note_off_c, 2, 58, 64
1, 70932, Note_off_c, 2, 65, 64
1, 70932, Note_off_c, 2, 46, 0
1, 70944, Note_on_c, 9, 82, 81
1, 70948, Note_on_c, 9, 56, 114
1, 70976, Note_off_c, 9, 82, 0
1, 70976, Note_off_c, 9, 56, 0
1, 71032, Note_on_c, 9, 39, 127
1, 71080, Note_off_c, 9, 39, 0
1, 71228, Note_on_c, 9, 42, 127
1, 71232, Note_on_c, 9, 35, 123
1, 71232, Note_on_c, 9, 56, 106
1, 71232, Note_on_c, 9, 82, 98
1, 71264, Note_off_c, 9, 56, 0
1, 71264, Note_off_c, 9, 82, 0
1, 71268, Note_off_c, 9, 35, 0
1, 71272, Note_off_c, 9, 42, 0
1, 71328, Note_on_c, 9, 35, 127
1, 71328, Note_on_c, 9, 82, 74
1, 71356, Note_off_c, 9, 82, 0
1, 71360, Note_off_c, 9, 35, 0
1, 71420, Note_on_c, 5, 73, 123
1, 71420, Note_on_c, 9, 35, 127
1, 71424, Note_on_c, 9, 82, 81
1, 71424, Note_on_c, 9, 56, 106
1, 71448, Note_off_c, 9, 56, 0
1, 71460, Note_off_c, 9, 82, 0
1, 71464, Note_off_c, 9, 35, 0
1, 71520, Note_on_c, 9, 82, 81
1, 71524, Note_on_c, 9, 56, 106
1, 71552, Note_off_c, 5, 73, 0
1, 71552, Note_off_c, 9, 82, 0
1, 71560, Note_off_c, 9, 56, 0
1, 71612, Note_on_c, 9, 82, 74
1, 71616, Note_on_c, 9, 42, 127
1, 71620, Note_on_c, 9, 39, 85
1, 71648, Note_off_c, 9, 82, 0
1, 71656, Note_off_c, 9, 42, 0
1, 71656, Note_off_c, 9, 39, 0
1, 71708, Note_on_c, 9, 82, 81
1, 71712, Note_on_c, 5, 73, 114
1, 71712, Note_on_c, 9, 56, 114
1, 71716, Note_on_c, 2, 68, 99
1, 71716, Note_on_c, 2, 61, 91
1, 71716, Note_on_c, 2, 58, 99
1, 71716, Note_on_c, 1, 34, 123
1, 71720, Note_on_c, 2, 46, 99
1, 71720, Note_on_c, 2, 65, 96
1, 71740, Note_off_c, 9, 82, 0
1, 71752, Note_off_c, 9, 56, 0
1, 71856, Note_off_c, 5, 73, 0
1, 71900, Note_on_c, 9, 56, 106
1, 71908, Note_on_c, 9, 39, 127
1, 71928, Note_off_c, 9, 56, 0
1, 71944, Note_off_c, 2, 61, 0
1, 71948, Note_off_c, 2, 68, 0
1, 71948, Note_off_c, 2, 58, 0
1, 71948, Note_off_c, 2, 46, 0
1, 71952, Note_off_c, 2, 65, 0
1, 71952, Note_off_c, 9, 39, 0
1, 72000, Note_on_c, 9, 56, 106
1, 72000, Note_on_c, 9, 42, 127
1, 72000, Note_off_c, 1, 34, 0
1, 72036, Note_off_c, 9, 56, 0
1, 72036, Note_off_c, 9, 42, 0
1, 72184, Note_on_c, 5, 70, 114
1, 72188, Note_on_c, 2, 58, 99
1, 72188, Note_on_c, 2, 67, 106
1, 72188, Note_on_c, 9, 82, 89
1, 72192, Note_on_c, 2, 64, 102
1, 72192, Note_on_c, 2, 48, 96
1, 72192, Note_on_c, 9, 35, 127
1, 72192, Note_on_c, 9, 56, 114
1, 72192, Note_on_c, 1, 40, 114
1, 72220, Note_off_c, 9, 82, 64
1, 72228, Note_off_c, 9, 56, 0
1, 72236, Note_off_c, 9, 35, 0
1, 72284, Note_on_c, 9, 82, 74
1, 72288, Note_on_c, 9, 56, 106
1, 72316, Note_off_c, 9, 82, 0
1, 72332, Note_off_c, 9, 56, 0
1, 72364, Note_off_c, 5, 70, 64
1, 72380, Note_on_c, 9, 82, 74
1, 72384, Note_on_c, 9, 42, 127
1, 72412, Note_off_c, 9, 82, 0
1, 72420, Note_off_c, 9, 42, 0
1, 72452, Note_off_c, 1, 40, 0
1, 72476, Note_off_c, 2, 58, 64
1, 72476, Note_off_c, 2, 67, 64
1, 72476, Note_on_c, 9, 82, 81
1, 72484, Note_off_c, 2, 48, 0
1, 72488, Note_off_c, 2, 64, 0
1, 72516, Note_off_c, 9, 82, 0
1, 72568, Note_on_c, 9, 39, 127
1, 72616, Note_off_c, 9, 39, 0
1, 72764, Note_on_c, 9, 35, 127
1, 72764, Note_on_c, 9, 42, 127
1, 72768, Note_on_c, 9, 82, 89
1, 72768, Note_on_c, 9, 56, 106
1, 72792, Note_off_c, 9, 82, 0
1, 72796, Note_off_c, 9, 35, 0
1, 72800, Note_off_c, 9, 56, 0
1, 72808, Note_off_c, 9, 42, 0
1, 72860, Note_on_c, 9, 35, 114
1, 72860, Note_on_c, 9, 82, 74
1, 72892, Note_off_c, 9, 82, 0
1, 72896, Note_off_c, 9, 35, 0
1, 72956, Note_on_c, 9, 82, 81
1, 72956, Note_on_c, 9, 35, 127
1, 72960, Note_on_c, 5, 70, 114
1, 72960, Note_on_c, 9, 56, 99
1, 72980, Note_off_c, 9, 56, 0
1, 72992, Note_off_c, 9, 82, 0
1, 73004, Note_off_c, 9, 35, 0
1, 73052, Note_on_c, 9, 82, 74
1, 73056, Note_on_c, 9, 56, 91
1, 73088, Note_off_c, 9, 82, 0
1, 73088, Note_off_c, 9, 56, 0
1, 73092, Note_off_c, 5, 70, 0
1, 73148, Note_on_c, 9, 42, 127
1, 73148, Note_on_c, 9, 82, 74
1, 73152, Note_on_c, 9, 39, 85
1, 73184, Note_off_c, 9, 82, 0
1, 73188, Note_off_c, 9, 39, 0
1, 73192, Note_off_c, 9, 42, 0
1, 73244, Note_on_c, 9, 82, 74
1, 73248, Note_on_c, 2, 48, 91
1, 73248, Note_on_c, 2, 67, 102
1, 73248, Note_on_c, 2, 64, 102
1, 73252, Note_on_c, 2, 58, 106
1, 73252, Note_on_c, 9, 56, 114
1, 73252, Note_on_c, 1, 40, 114
1, 73256, Note_on_c, 5, 70, 114
1, 73280, Note_off_c, 9, 56, 0
1, 73284, Note_off_c, 9, 82, 0
1, 73388, Note_off_c, 5, 70, 0
1, 73440, Note_on_c, 9, 56, 123
1, 73440, Note_on_c, 9, 39, 127
1, 73472, Note_off_c, 9, 56, 0
1, 73492, Note_off_c, 9, 39, 0
1, 73500, Note_off_c, 2, 58, 0
1, 73504, Note_off_c, 2, 67, 0
1, 73508, Note_off_c, 2, 48, 0
1, 73516, Note_off_c, 2, 64, 0
1, 73528, Note_off_c, 1, 40, 0
1, 73532, Note_on_c, 9, 42, 127
1, 73580, Note_off_c, 9, 42, 0
1, 73720, Note_on_c, 5, 72, 114
1, 73724, Tempo, 645161
1, 73724, Note_on_c, 2, 65, 96
1, 73724, Note_on_c, 2, 68, 99
1, 73724, Note_on_c, 2, 60, 96
1, 73724, Note_on_c, 2, 53, 96
1, 73724, Note_on_c, 9, 82, 98
1, 73724, Note_on_c, 9, 35, 123
1, 73724, Note_on_c, 9, 56, 114
1, 73724, Note_on_c, 1, 41, 114
1, 73728, Note_off_c, 9, 82, 64
1, 73728, Note_off_c, 9, 56, 64
1, 73728, Tempo, 645161
1, 73748, Note_off_c, 9, 35, 64
1, 73792, Note_on_c, 9, 82, 74
1, 73824, Note_off_c, 9, 82, 0
1, 73856, Note_off_c, 5, 72, 64
1, 73884, Note_on_c, 9, 82, 66
1, 73888, Note_on_c, 9, 42, 127
1, 73920, Note_off_c, 9, 82, 0
1, 73932, Note_off_c, 9, 42, 0
1, 73976, Note_off_c, 1, 41, 64
1, 73984, Note_on_c, 9, 82, 81
1, 73988, Note_off_c, 2, 60, 64
1, 73992, Note_off_c, 2, 68, 64
1, 73992, Note_off_c, 2, 53, 64
1, 73996, Note_off_c, 2, 65, 64
1, 74020, Note_off_c, 9, 82, 0
1, 74080, Note_on_c, 9, 39, 127
1, 74124, Note_off_c, 9, 39, 0
1, 74272, Note_on_c, 9, 35, 127
1, 74272, Note_on_c, 9, 82, 98
1, 74276, Note_on_c, 9, 42, 127
1, 74280, Note_on_c, 9, 56, 99
1, 74300, Note_off_c, 9, 56, 0
1, 74304, Note_off_c, 9, 82, 0
1, 74308, Note_off_c, 9, 35, 0
1, 74320, Note_off_c, 9, 42, 0
1, 74368, Note_on_c, 9, 82, 81
1, 74372, Note_on_c, 9, 35, 123
1, 74372, Note_on_c, 9, 56, 99
1, 74400, Note_off_c, 9, 82, 0
1, 74400, Note_off_c, 9, 56, 0
1, 74404, Note_off_c, 9, 35, 0
1, 74464, Note_on_c, 9, 82, 81
1, 74468, Note_on_c, 5, 72, 114
1, 74468, Note_on_c, 9, 35, 127
1, 74468, Note_on_c, 9, 56, 99
1, 74468, Note_on_c, 1, 36, 96
1, 74492, Note_off_c, 9, 56, 0
1, 74504, Note_off_c, 9, 82, 0
1, 74512, Note_off_c, 9, 35, 0
1, 74564, Note_on_c, 9, 82, 74
1, 74564, Note_on_c, 9, 56, 99
1, 74592, Note_off_c, 5, 72, 0
1, 74596, Note_off_c, 9, 82, 0
1, 74596, Note_off_c, 9, 56, 0
1, 74656, Note_on_c, 9, 82, 66
1, 74660, Note_on_c, 9, 42, 127
1, 74692, Note_off_c, 9, 82, 0
1, 74708, Note_off_c, 9, 42, 0
1, 74752, Note_on_c, 9, 82, 81
1, 74756, Note_on_c, 2, 60, 86
1, 74756, Note_on_c, 9, 56, 106
1, 74760, Note_on_c, 2, 68, 99
1, 74760, Note_on_c, 2, 65, 96
1, 74760, Note_on_c, 2, 53, 102
1, 74760, Note_on_c, 5, 72, 110
1, 74784, Note_off_c, 9, 82, 0
1, 74788, Note_off_c, 9, 56, 0
1, 74852, Note_on_c, 9, 39, 127
1, 74904, Note_off_c, 5, 72, 0
1, 74904, Note_off_c, 9, 39, 0
1, 74944, Note_on_c, 9, 56, 114
1, 74980, Note_off_c, 9, 56, 0
1, 75000, Note_off_c, 2, 60, 0
1, 75004, Note_off_c, 2, 68, 0
1, 75004, Note_off_c, 2, 65, 0
1, 75008, Note_off_c, 2, 53, 0
1, 75040, Note_on_c, 9, 42, 127
1, 75044, Note_on_c, 9, 35, 123
1, 75080, Note_off_c, 9, 35, 0
1, 75088, Note_off_c, 9, 42, 0
1, 75144, Note_on_c, 9, 39, 99
1, 75176, Note_off_c, 9, 39, 0
1, 75212, Note_off_c, 1, 36, 0
1, 75232, Tempo, 645161
1, 75232, Note_on_c, 2, 65, 91
1, 75232, Note_on_c, 2, 60, 102
1, 75232, Note_on_c, 2, 68, 91
1, 75232, Note_on_c, 9, 82, 89
1, 75232, Note_on_c, 1, 41, 123
1, 75236, Note_off_c, 2, 65, 64
1, 75236, Note_off_c, 2, 60, 64
1, 75236, Note_off_c, 2, 68, 64
1, 75236, Note_on_c, 2, 60, 102
1, 75236, Note_on_c, 2, 68, 91
1, 75236, Note_on_c, 5, 72, 123
1, 75236, Note_off_c, 9, 82, 64
1, 75236, Note_on_c, 9, 82, 89
1, 75236, Note_off_c, 1, 41, 64
1, 75236, Note_on_c, 1, 41, 123
1, 75240, Note_on_c, 2, 53, 106
1, 75256, Note_off_c, 9, 82, 64
1, 75328, Note_on_c, 9, 82, 74
1, 75352, Note_off_c, 9, 82, 0
1, 75420, Note_off_c, 5, 72, 64
1, 75424, Note_on_c, 9, 82, 81
1, 75432, Note_on_c, 9, 42, 127
1, 75448, Note_off_c, 9, 82, 0
1, 75452, Note_off_c, 1, 41, 64
1, 75460, Note_off_c, 2, 60, 64
1, 75460, Note_off_c, 2, 53, 64
1, 75464, Note_off_c, 9, 42, 0
1, 75472, Note_off_c, 2, 68, 64
1, 75520, Note_on_c, 9, 82, 89
1, 75528, Note_on_c, 9, 56, 114
1, 75552, Note_off_c, 9, 82, 0
1, 75556, Note_off_c, 9, 56, 0
1, 75616, Note_on_c, 9, 39, 127
1, 75668, Note_off_c, 9, 39, 0
1, 75804, Note_on_c, 9, 35, 123
1, 75808, Note_on_c, 9, 42, 123
1, 75808, Note_on_c, 9, 82, 98
1, 75812, Note_on_c, 9, 56, 106
1, 75832, Note_off_c, 9, 82, 0
1, 75844, Note_off_c, 9, 35, 0
1, 75844, Note_off_c, 9, 42, 0
1, 75844, Note_off_c, 9, 56, 0
1, 75904, Note_on_c, 9, 35, 127
1, 75904, Note_on_c, 9, 82, 81
1, 75932, Note_off_c, 9, 82, 0
1, 75936, Note_off_c, 9, 35, 0
1, 76000, Note_on_c, 5, 72, 114
1, 76000, Note_on_c, 9, 35, 127
1, 76000, Note_on_c, 9, 82, 81
1, 76004, Note_on_c, 9, 56, 106
1, 76028, Note_off_c, 9, 82, 0
1, 76028, Note_off_c, 9, 56, 0
1, 76040, Note_off_c, 9, 35, 0
1, 76092, Note_on_c, 9, 82, 74
1, 76104, Note_on_c, 9, 56, 106
1, 76128, Note_off_c, 9, 82, 0
1, 76140, Note_off_c, 9, 56, 0
1, 76152, Note_off_c, 5, 72, 0
1, 76188, Note_on_c, 9, 82, 81
1, 76192, Note_on_c, 9, 39, 91
1, 76196, Note_on_c, 9, 42, 127
1, 76224, Note_off_c, 9, 82, 0
1, 76224, Note_off_c, 9, 39, 0
1, 76228, Note_off_c, 9, 42, 0
1, 76284, Note_on_c, 9, 82, 89
1, 76288, Note_on_c, 1, 41, 110
1, 76292, Note_on_c, 9, 56, 114
1, 76296, Note_on_c, 2, 65, 96
1, 76296, Note_on_c, 2, 60, 102
1, 76296, Note_on_c, 5, 72, 110
1, 76300, Note_on_c, 2, 68, 99
1, 76300, Note_on_c, 2, 53, 110
1, 76324, Note_off_c, 9, 82, 0
1, 76332, Note_off_c, 9, 56, 0
1, 76456, Note_off_c, 5, 72, 0
1, 76480, Note_on_c, 9, 39, 127
1, 76480, Note_on_c, 9, 56, 106
1, 76508, Note_off_c, 9, 56, 0
1, 76520, Note_off_c, 2, 53, 0
1, 76524, Note_off_c, 2, 60, 0
1, 76524, Note_off_c, 9, 39, 0
1, 76544, Note_off_c, 2, 65, 0
1, 76544, Note_off_c, 2, 68, 0
1, 76576, Note_on_c, 9, 42, 127
1, 76580, Note_on_c, 9, 56, 106
1, 76604, Note_off_c, 1, 41, 0
1, 76608, Note_off_c, 9, 42, 0
1, 76616, Note_off_c, 9, 56, 0
1, 76764, Note_on_c, 2, 61, 99
1, 76764, Note_on_c, 2, 68, 114
1, 76764, Note_on_c, 5, 73, 114
1, 76764, Note_on_c, 9, 35, 123
1, 76768, Note_on_c, 2, 65, 96
1, 76768, Note_on_c, 2, 58, 99
1, 76768, Note_on_c, 9, 56, 123
1, 76768, Note_on_c, 1, 34, 114
1, 76772, Note_on_c, 2, 46, 99
1, 76772, Note_on_c, 9, 82, 89
1, 76800, Note_off_c, 9, 56, 64
1, 76804, Note_off_c, 9, 82, 64
1, 76812, Note_off_c, 9, 35, 64
1, 76868, Note_on_c, 9, 82, 89
1, 76900, Note_off_c, 9, 82, 0
1, 76932, Note_off_c, 5, 73, 64
1, 76960, Note_on_c, 9, 42, 127
1, 76960, Note_on_c, 9, 82, 74
1, 76996, Note_off_c, 9, 42, 0
1, 76996, Note_off_c, 9, 82, 0
1, 77028, Note_off_c, 1, 34, 64
1, 77036, Note_off_c, 2, 61, 64
1, 77040, Note_off_c, 2, 68, 64
1, 77040, Note_off_c, 2, 58, 64
1, 77048, Note_off_c, 2, 65, 64
1, 77048, Note_off_c, 2, 46, 64
1, 77060, Note_on_c, 9, 82, 81
1, 77064, Note_on_c, 9, 56, 114
1, 77092, Note_off_c, 9, 82, 0
1, 77092, Note_off_c, 9, 56, 0
1, 77148, Note_on_c, 9, 39, 127
1, 77196, Note_off_c, 9, 39, 0
1, 77344, Note_on_c, 9, 42, 127
1, 77348, Note_on_c, 9, 35, 123
1, 77348, Note_on_c, 9, 56, 106
1, 77348, Note_on_c, 9, 82, 98
1, 77380, Note_off_c, 9, 56, 0
1, 77380, Note_off_c, 9, 82, 0
1, 77384, Note_off_c, 9, 35, 0
1, 77388, Note_off_c, 9, 42, 0
1, 77444, Note_on_c, 9, 35, 127
1, 77444, Note_on_c, 9, 82, 74
1, 77472, Note_off_c, 9, 82, 0
1, 77476, Note_off_c, 9, 35, 0
1, 77536, Note_on_c, 5, 73, 123
1, 77536, Note_on_c, 9, 35, 127
1, 77540, Note_on_c, 9, 82, 81
1, 77540, Note_on_c, 9, 56, 106
1, 77564, Note_off_c, 9, 56, 0
1, 77576, Note_off_c, 9, 82, 0
1, 77580, Note_off_c, 9, 35, 0
1, 77636, Note_on_c, 9, 82, 81
1, 77640, Note_on_c, 9, 56, 106
1, 77668, Note_off_c, 5, 73, 0
1, 77668, Note_off_c, 9, 82, 0
1, 77676, Note_off_c, 9, 56, 0
1, 77728, Note_on_c, 9, 82, 74
1, 77732, Note_on_c, 9, 42, 127
1, 77736, Note_on_c, 9, 39, 85
1, 77764, Note_off_c, 9, 82, 0
1, 77772, Note_off_c, 9, 42, 0
1, 77772, Note_off_c, 9, 39, 0
1, 77824, Note_on_c, 9, 82, 81
1, 77828, Note_on_c, 5, 73, 114
1, 77828, Note_on_c, 9, 56, 114
1, 77832, Note_on_c, 2, 68, 99
1, 77832, Note_on_c, 2, 61, 91
1, 77832, Note_on_c, 2, 58, 99
1, 77832, Note_on_c, 1, 34, 123
1, 77836, Note_on_c, 2, 46, 99
1, 77836, Note_on_c, 2, 65, 96
1, 77856, Note_off_c, 9, 82, 0
1, 77868, Note_off_c, 9, 56, 0
1, 77972, Note_off_c, 5, 73, 0
1, 78016, Note_on_c, 9, 56, 106
1, 78024, Note_on_c, 9, 39, 127
1, 78044, Note_off_c, 9, 56, 0
1, 78060, Note_off_c, 2, 61, 0
1, 78064, Note_off_c, 2, 68, 0
1, 78064, Note_off_c, 2, 58, 0
1, 78064, Note_off_c, 2, 46, 0
1, 78068, Note_off_c, 2, 65, 0
1, 78068, Note_off_c, 9, 39, 0
1, 78116, Note_on_c, 9, 56, 106
1, 78116, Note_on_c, 9, 42, 127
1, 78116, Note_off_c, 1, 34, 0
1, 78152, Note_off_c, 9, 56, 0
1, 78152, Note_off_c, 9, 42, 0
1, 78300, Note_on_c, 5, 70, 114
1, 78304, Note_on_c, 2, 58, 99
1, 78304, Note_on_c, 2, 67, 106
1, 78304, Note_on_c, 9, 82, 89
1, 78308, Note_on_c, 2, 64, 102
1, 78308, Note_on_c, 2, 48, 96
1, 78308, Note_on_c, 9, 35, 127
1, 78308, Note_on_c, 9, 56, 114
1, 78308, Note_on_c, 1, 40, 114
1, 78336, Note_off_c, 9, 82, 64
1, 78344, Note_off_c, 9, 56, 64
1, 78352, Note_off_c, 9, 35, 64
1, 78400, Note_on_c, 9, 82, 74
1, 78404, Note_on_c, 9, 56, 106
1, 78432, Note_off_c, 9, 82, 0
1, 78448, Note_off_c, 9, 56, 0
1, 78480, Note_off_c, 5, 70, 64
1, 78496, Note_on_c, 9, 82, 74
1, 78500, Note_on_c, 9, 42, 127
1, 78528, Note_off_c, 9, 82, 0
1, 78536, Note_off_c, 9, 42, 0
1, 78568, Note_off_c, 1, 40, 64
1, 78592, Note_off_c, 2, 58, 64
1, 78592, Note_off_c, 2, 67, 64
1, 78592, Note_on_c, 9, 82, 81
1, 78600, Note_off_c, 2, 48, 64
1, 78604, Note_off_c, 2, 64, 64
1, 78632, Note_off_c, 9, 82, 0
1, 78684, Note_on_c, 9, 39, 127
1, 78732, Note_off_c, 9, 39, 0
1, 78880, Note_on_c, 9, 35, 127
1, 78880, Note_on_c, 9, 42, 127
1, 78884, Note_on_c, 9, 82, 89
1, 78884, Note_on_c, 9, 56, 106
1, 78908, Note_off_c, 9, 82, 0
1, 78912, Note_off_c, 9, 35, 0
1, 78916, Note_off_c, 9, 56, 0
1, 78924, Note_off_c, 9, 42, 0
1, 78976, Note_on_c, 9, 35, 114
1, 78976, Note_on_c, 9, 82, 74
1, 79008, Note_off_c, 9, 82, 0
1, 79012, Note_off_c, 9, 35, 0
1, 79072, Note_on_c, 9, 82, 81
1, 79072, Note_on_c, 9, 35, 127
1, 79076, Note_on_c, 5, 70, 114
1, 79076, Note_on_c, 9, 56, 99
1, 79096, Note_off_c, 9, 56, 0
1, 79108, Note_off_c, 9, 82, 0
1, 79120, Note_off_c, 9, 35, 0
1, 79168, Note_on_c, 9, 82, 74
1, 79172, Note_on_c, 9, 56, 91
1, 79204, Note_off_c, 9, 82, 0
1, 79204, Note_off_c, 9, 56, 0
1, 79208, Note_off_c, 5, 70, 0
1, 79264, Note_on_c, 9, 42, 127
1, 79264, Note_on_c, 9, 82, 74
1, 79268, Note_on_c, 9, 39, 85
1, 79300, Note_off_c, 9, 82, 0
1, 79304, Note_off_c, 9, 39, 0
1, 79308, Note_off_c, 9, 42, 0
1, 79360, Note_on_c, 9, 82, 74
1, 79364, Note_on_c, 2, 48, 91
1, 79364, Note_on_c, 2, 67, 102
1, 79364, Note_on_c, 2, 64, 102
1, 79368, Note_on_c, 2, 58, 106
1, 79368, Note_on_c, 9, 56, 114
1, 79368, Note_on_c, 1, 40, 114
1, 79372, Note_on_c, 5, 70, 114
1, 79396, Note_off_c, 9, 56, 0
1, 79400, Note_off_c, 9, 82, 0
1, 79504, Note_off_c, 5, 70, 0
1, 79556, Note_on_c, 9, 56, 123
1, 79556, Note_on_c, 9, 39, 127
1, 79588, Note_off_c, 9, 56, 0
1, 79608, Note_off_c, 9, 39, 0
1, 79616, Note_off_c, 2, 58, 0
1, 79620, Note_off_c, 2, 67, 0
1, 79624, Note_off_c, 2, 48, 0
1, 79632, Note_off_c, 2, 64, 0
1, 79644, Note_off_c, 1, 40, 0
1, 79648, Note_on_c, 9, 42, 127
1, 79696, Note_off_c, 9, 42, 0
1, 79836, Note_on_c, 5, 72, 114
1, 79840, Note_on_c, 2, 65, 96
1, 79840, Note_on_c, 2, 68, 99
1, 79840, Note_on_c, 2, 60, 96
1, 79840, Note_on_c, 9, 82, 98
1, 79840, Note_on_c, 9, 35, 123
1, 79840, Note_on_c, 9, 56, 114
1, 79844, Note_on_c, 2, 53, 96
1, 79844, Note_on_c, 1, 41, 114
1, 79872, Note_off_c, 9, 82, 64
1, 79872, Note_off_c, 9, 56, 64
1, 79892, Note_off_c, 9, 35, 64
1, 79936, Note_on_c, 9, 82, 74
1, 79968, Note_off_c, 9, 82, 0
1, 80000, Note_off_c, 5, 72, 64
1, 80028, Note_on_c, 9, 82, 66
1, 80032, Note_on_c, 9, 42, 127
1, 80064, Note_off_c, 9, 82, 0
1, 80076, Note_off_c, 9, 42, 0
1, 80120, Note_off_c, 1, 41, 64
1, 80128, Note_on_c, 9, 82, 81
1, 80132, Note_off_c, 2, 60, 64
1, 80136, Note_off_c, 2, 68, 64
1, 80136, Note_off_c, 2, 53, 64
1, 80140, Note_off_c, 2, 65, 64
1, 80164, Note_off_c, 9, 82, 0
1, 80224, Note_on_c, 9, 39, 127
1, 80268, Note_off_c, 9, 39, 0
1, 80416, Note_on_c, 9, 35, 127
1, 80416, Note_on_c, 9, 82, 98
1, 80420, Note_on_c, 9, 42, 127
1, 80424, Note_on_c, 9, 56, 99
1, 80444, Note_off_c, 9, 56, 0
1, 80448, Note_off_c, 9, 82, 0
1, 80452, Note_off_c, 9, 35, 0
1, 80464, Note_off_c, 9, 42, 0
1, 80512, Note_on_c, 9, 82, 81
1, 80516, Note_on_c, 9, 35, 123
1, 80516, Note_on_c, 9, 56, 99
1, 80544, Note_off_c, 9, 82, 0
1, 80544, Note_off_c, 9, 56, 0
1, 80548, Note_off_c, 9, 35, 0
1, 80608, Note_on_c, 9, 82, 81
1, 80612, Note_on_c, 5, 72, 114
1, 80612, Note_on_c, 9, 35, 127
1, 80612, Note_on_c, 9, 56, 99
1, 80612, Note_on_c, 1, 36, 96
1, 80636, Note_off_c, 9, 56, 0
1, 80648, Note_off_c, 9, 82, 0
1, 80656, Note_off_c, 9, 35, 0
1, 80708, Note_on_c, 9, 82, 74
1, 80708, Note_on_c, 9, 56, 99
1, 80736, Note_off_c, 5, 72, 0
1, 80740, Note_off_c, 9, 82, 0
1, 80740, Note_off_c, 9, 56, 0
1, 80800, Note_on_c, 9, 82, 66
1, 80804, Note_on_c, 9, 42, 127
1, 80836, Note_off_c, 9, 82, 0
1, 80852, Note_off_c, 9, 42, 0
1, 80896, Note_on_c, 9, 82, 81
1, 80900, Note_on_c, 2, 60, 86
1, 80900, Note_on_c, 9, 56, 106
1, 80904, Note_on_c, 2, 68, 99
1, 80904, Note_on_c, 2, 65, 96
1, 80904, Note_on_c, 2, 53, 102
1, 80904, Note_on_c, 5, 72, 110
1, 80928, Note_off_c, 9, 82, 0
1, 80932, Note_off_c, 9, 56, 0
1, 80996, Note_on_c, 9, 39, 127
1, 81048, Note_off_c, 5, 72, 0
1, 81048, Note_off_c, 9, 39, 0
1, 81088, Note_on_c, 9, 56, 114
1, 81124, Note_off_c, 9, 56, 0
1, 81144, Note_off_c, 2, 60, 0
1, 81148, Note_off_c, 2, 68, 0
1, 81148, Note_off_c, 2, 65, 0
1, 81152, Note_off_c, 2, 53, 0
1, 81184, Note_on_c, 9, 42, 127
1, 81188, Note_on_c, 9, 35, 123
1, 81224, Note_off_c, 9, 35, 0
1, 81232, Note_off_c, 9, 42, 0
1, 81288, Note_on_c, 9, 39, 99
1, 81320, Note_off_c, 9, 39, 0
1, 81356, Note_off_c, 1, 36, 0
1, 81376, Note_on_c, 2, 65, 91
1, 81376, Note_on_c, 9, 35, 123
1, 81380, Note_on_c, 2, 60, 102
1, 81380, Note_on_c, 2, 68, 91
1, 81380, Note_on_c, 5, 72, 123
1, 81380, Note_on_c, 9, 82, 89
1, 81380, Note_on_c, 1, 41, 123
1, 81384, Note_on_c, 2, 53, 106
1, 81400, Note_off_c, 9, 82, 64
1, 81424, Note_off_c, 9, 35, 64
1, 81472, Note_on_c, 9, 82, 74
1, 81496, Note_off_c, 9, 82, 0
1, 81564, Note_off_c, 5, 72, 64
1, 81568, Note_on_c, 9, 82, 81
1, 81576, Note_on_c, 9, 42, 127
1, 81592, Note_off_c, 9, 82, 0
1, 81596, Note_off_c, 1, 41, 64
1, 81604, Note_off_c, 2, 60, 64
1, 81604, Note_off_c, 2, 53, 64
1, 81608, Note_off_c, 9, 42, 0
1, 81616, Note_off_c, 2, 65, 64
1, 81616, Note_off_c, 2, 68, 64
1, 81664, Note_on_c, 9, 82, 89
1, 81672, Note_on_c, 9, 56, 114
1, 81696, Note_off_c, 9, 82, 0
1, 81700, Note_off_c, 9, 56, 0
1, 81760, Note_on_c, 9, 39, 127
1, 81812, Note_off_c, 9, 39, 0
1, 81948, Note_on_c, 9, 35, 123
1, 81952, Note_on_c, 9, 42, 123
1, 81952, Note_on_c, 9, 82, 98
1, 81956, Note_on_c, 9, 56, 106
1, 81976, Note_off_c, 9, 82, 0
1, 81988, Note_off_c, 9, 35, 0
1, 81988, Note_off_c, 9, 42, 0
1, 81988, Note_off_c, 9, 56, 0
1, 82048, Note_on_c, 9, 35, 127
1, 82048, Note_on_c, 9, 82, 81
1, 82076, Note_off_c, 9, 82, 0
1, 82080, Note_off_c, 9, 35, 0
1, 82144, Note_on_c, 5, 72, 114
1, 82144, Note_on_c, 9, 35, 127
1, 82144, Note_on_c, 9, 82, 81
1, 82148, Note_on_c, 9, 56, 106
1, 82172, Note_off_c, 9, 82, 0
1, 82172, Note_off_c, 9, 56, 0
1, 82184, Note_off_c, 9, 35, 0
1, 82236, Note_on_c, 9, 82, 74
1, 82248, Note_on_c, 9, 56, 106
1, 82272, Note_off_c, 9, 82, 0
1, 82284, Note_off_c, 9, 56, 0
1, 82296, Note_off_c, 5, 72, 0
1, 82332, Note_on_c, 9, 82, 81
1, 82336, Note_on_c, 9, 39, 91
1, 82340, Note_on_c, 9, 42, 127
1, 82368, Note_off_c, 9, 82, 0
1, 82368, Note_off_c, 9, 39, 0
1, 82372, Note_off_c, 9, 42, 0
1, 82428, Note_on_c, 9, 82, 89
1, 82432, Note_on_c, 1, 41, 110
1, 82436, Note_on_c, 9, 56, 114
1, 82440, Note_on_c, 2, 65, 96
1, 82440, Note_on_c, 2, 60, 102
1, 82440, Note_on_c, 5, 72, 110
1, 82444, Note_on_c, 2, 68, 99
1, 82444, Note_on_c, 2, 53, 110
1, 82468, Note_off_c, 9, 82, 0
1, 82476, Note_off_c, 9, 56, 0
1, 82600, Note_off_c, 5, 72, 0
1, 82624, Note_on_c, 9, 39, 127
1, 82624, Note_on_c, 9, 56, 106
1, 82652, Note_off_c, 9, 56, 0
1, 82664, Note_off_c, 2, 53, 0
1, 82668, Note_off_c, 2, 60, 0
1, 82668, Note_off_c, 9, 39, 0
1, 82688, Note_off_c, 2, 65, 0
1, 82688, Note_off_c, 2, 68, 0
1, 82720, Note_on_c, 9, 42, 127
1, 82724, Note_on_c, 9, 56, 106
1, 82748, Note_off_c, 1, 41, 0
1, 82752, Note_off_c, 9, 42, 0
1, 82760, Note_off_c, 9, 56, 0
1, 82908, Note_on_c, 2, 61, 99
1, 82908, Note_on_c, 2, 68, 114
1, 82908, Note_on_c, 5, 73, 114
1, 82908, Note_on_c, 9, 35, 123
1, 82912, Note_on_c, 2, 65, 96
1, 82912, Note_on_c, 2, 58, 99
1, 82912, Note_on_c, 9, 56, 123
1, 82912, Note_on_c, 1, 34, 114
1, 82916, Note_on_c, 2, 46, 99
1, 82916, Note_on_c, 9, 82, 89
1, 82944, Note_off_c, 9, 56, 64
1, 82948, Note_off_c, 9, 82, 64
1, 82956, Note_off_c, 9, 35, 64
1, 83012, Note_on_c, 9, 82, 89
1, 83044, Note_off_c, 9, 82, 0
1, 83076, Note_off_c, 5, 73, 64
1, 83104, Note_on_c, 9, 42, 127
1, 83104, Note_on_c, 9, 82, 74
1, 83140, Note_off_c, 9, 42, 0
1, 83140, Note_off_c, 9, 82, 0
1, 83172, Note_off_c, 1, 34, 64
1, 83180, Note_off_c, 2, 61, 64
1, 83184, Note_off_c, 2, 68, 64
1, 83184, Note_off_c, 2, 58, 64
1, 83192, Note_off_c, 2, 65, 64
1, 83192, Note_off_c, 2, 46, 64
1, 83204, Note_on_c, 9, 82, 81
1, 83208, Note_on_c, 9, 56, 114
1, 83236, Note_off_c, 9, 82, 0
1, 83236, Note_off_c, 9, 56, 0
1, 83292, Note_on_c, 9, 39, 127
1, 83340, Note_off_c, 9, 39, 0
1, 83488, Note_on_c, 9, 42, 127
1, 83492, Note_on_c, 9, 35, 123
1, 83492, Note_on_c, 9, 56, 106
1, 83492, Note_on_c, 9, 82, 98
1, 83524, Note_off_c, 9, 56, 0
1, 83524, Note_off_c, 9, 82, 0
1, 83528, Note_off_c, 9, 35, 0
1, 83532, Note_off_c, 9, 42, 0
1, 83588, Note_on_c, 9, 35, 127
1, 83588, Note_on_c, 9, 82, 74
1, 83616, Note_off_c, 9, 82, 0
1, 83620, Note_off_c, 9, 35, 0
1, 83680, Note_on_c, 5, 73, 123
1, 83680, Note_on_c, 9, 35, 127
1, 83684, Note_on_c, 9, 82, 81
1, 83684, Note_on_c, 9, 56, 106
1, 83708, Note_off_c, 9, 56, 0
1, 83720, Note_off_c, 9, 82, 0
1, 83724, Note_off_c, 9, 35, 0
1, 83780, Note_on_c, 9, 82, 81
1, 83784, Note_on_c, 9, 56, 106
1, 83812, Note_off_c, 5, 73, 0
1, 83812, Note_off_c, 9, 82, 0
1, 83820, Note_off_c, 9, 56, 0
1, 83872, Note_on_c, 9, 82, 74
1, 83876, Note_on_c, 9, 42, 127
1, 83880, Note_on_c, 9, 39, 85
1, 83908, Note_off_c, 9, 82, 0
1, 83916, Note_off_c, 9, 42, 0
1, 83916, Note_off_c, 9, 39, 0
1, 83968, Note_on_c, 9, 82, 81
1, 83972, Note_on_c, 5, 73, 114
1, 83972, Note_on_c, 9, 56, 114
1, 83976, Note_on_c, 2, 68, 99
1, 83976, Note_on_c, 2, 61, 91
1, 83976, Note_on_c, 2, 58, 99
1, 83976, Note_on_c, 1, 34, 123
1, 83980, Note_on_c, 2, 46, 99
1, 83980, Note_on_c, 2, 65, 96
1, 84000, Note_off_c, 9, 82, 0
1, 84012, Note_off_c, 9, 56, 0
1, 84116, Note_off_c, 5, 73, 0
1, 84160, Note_on_c, 9, 56, 106
1, 84168, Note_on_c, 9, 39, 127
1, 84188, Note_off_c, 9, 56, 0
1, 84204, Note_off_c, 2, 61, 0
1, 84208, Note_off_c, 2, 68, 0
1, 84208, Note_off_c, 2, 58, 0
1, 84208, Note_off_c, 2, 46, 0
1, 84212, Note_off_c, 2, 65, 0
1, 84212, Note_off_c, 9, 39, 0
1, 84260, Note_on_c, 9, 56, 106
1, 84260, Note_on_c, 9, 42, 127
1, 84260, Note_off_c, 1, 34, 0
1, 84296, Note_off_c, 9, 56, 0
1, 84296, Note_off_c, 9, 42, 0
1, 84444, Note_on_c, 5, 70, 114
1, 84448, Note_on_c, 2, 58, 99
1, 84448, Note_on_c, 2, 67, 106
1, 84448, Note_on_c, 9, 82, 89
1, 84452, Note_on_c, 2, 64, 102
1, 84452, Note_on_c, 2, 48, 96
1, 84452, Note_on_c, 9, 35, 127
1, 84452, Note_on_c, 9, 56, 114
1, 84452, Note_on_c, 1, 40, 114
1, 84480, Note_off_c, 9, 82, 64
1, 84488, Note_off_c, 9, 56, 64
1, 84496, Note_off_c, 9, 35, 64
1, 84544, Note_on_c, 9, 82, 74
1, 84548, Note_on_c, 9, 56, 106
1, 84576, Note_off_c, 9, 82, 0
1, 84592, Note_off_c, 9, 56, 0
1, 84624, Note_off_c, 5, 70, 64
1, 84640, Note_on_c, 9, 82, 74
1, 84644, Note_on_c, 9, 42, 127
1, 84672, Note_off_c, 9, 82, 0
1, 84680, Note_off_c, 9, 42, 0
1, 84712, Note_off_c, 1, 40, 64
1, 84736, Note_off_c, 2, 58, 64
1, 84736, Note_off_c, 2, 67, 64
1, 84736, Note_on_c, 9, 82, 81
1, 84744, Note_off_c, 2, 48, 64
1, 84748, Note_off_c, 2, 64, 64
1, 84776, Note_off_c, 9, 82, 0
1, 84828, Note_on_c, 9, 39, 127
1, 84876, Note_off_c, 9, 39, 0
1, 85024, Note_on_c, 9, 35, 127
1, 85024, Note_on_c, 9, 42, 127
1, 85028, Note_on_c, 9, 82, 89
1, 85028, Note_on_c, 9, 56, 106
1, 85052, Note_off_c, 9, 82, 0
1, 85056, Note_off_c, 9, 35, 0
1, 85060, Note_off_c, 9, 56, 0
1, 85068, Note_off_c, 9, 42, 0
1, 85120, Note_on_c, 9, 35, 114
1, 85120, Note_on_c, 9, 82, 74
1, 85152, Note_off_c, 9, 82, 0
1, 85156, Note_off_c, 9, 35, 0
1, 85216, Note_on_c, 9, 82, 81
1, 85216, Note_on_c, 9, 35, 127
1, 85220, Note_on_c, 5, 70, 114
1, 85220, Note_on_c, 9, 56, 99
1, 85240, Note_off_c, 9, 56, 0
1, 85252, Note_off_c, 9, 82, 0
1, 85264, Note_off_c, 9, 35, 0
1, 85312, Note_on_c, 9, 82, 74
1, 85316, Note_on_c, 9, 56, 91
1, 85348, Note_off_c, 9, 82, 0
1, 85348, Note_off_c, 9, 56, 0
1, 85352, Note_off_c, 5, 70, 0
1, 85408, Note_on_c, 9, 42, 127
1, 85408, Note_on_c, 9, 82, 74
1, 85412, Note_on_c, 9, 39, 85
1, 85444, Note_off_c, 9, 82, 0
1, 85448, Note_off_c, 9, 39, 0
1, 85452, Note_off_c, 9, 42, 0
1, 85504, Note_on_c, 9, 82, 74
1, 85508, Note_on_c, 2, 48, 91
1, 85508, Note_on_c, 2, 67, 102
1, 85508, Note_on_c, 2, 64, 102
1, 85512, Note_on_c, 2, 58, 106
1, 85512, Note_on_c, 9, 56, 114
1, 85512, Note_on_c, 1, 40, 114
1, 85516, Note_on_c, 5, 70, 114
1, 85540, Note_off_c, 9, 56, 0
1, 85544, Note_off_c, 9, 82, 0
1, 85648, Note_off_c, 5, 70, 0
1, 85700, Note_on_c, 9, 56, 123
1, 85700, Note_on_c, 9, 39, 127
1, 85732, Note_off_c, 9, 56, 0
1, 85752, Note_off_c, 9, 39, 0
1, 85760, Note_off_c, 2, 58, 0
1, 85764, Note_off_c, 2, 67, 0
1, 85768, Note_off_c, 2, 48, 0
1, 85776, Note_off_c, 2, 64, 0
1, 85788, Note_off_c, 1, 40, 0
1, 85792, Note_on_c, 9, 42, 127
1, 85840, Note_off_c, 9, 42, 0
1, 85980, Note_on_c, 5, 72, 114
1, 85984, Note_on_c, 2, 65, 96
1, 85984, Note_on_c, 2, 68, 99
1, 85984, Note_on_c, 2, 60, 96
1, 85984, Note_on_c, 9, 82, 98
1, 85984, Note_on_c, 9, 35, 123
1, 85984, Note_on_c, 9, 56, 114
1, 85988, Note_on_c, 2, 53, 96
1, 85988, Note_on_c, 1, 41, 114
1, 86016, Note_off_c, 9, 82, 64
1, 86016, Note_off_c, 9, 56, 64
1, 86036, Note_off_c, 9, 35, 64
1, 86080, Note_on_c, 9, 82, 74
1, 86112, Note_off_c, 9, 82, 0
1, 86144, Note_off_c, 5, 72, 64
1, 86172, Note_on_c, 9, 82, 66
1, 86176, Note_on_c, 9, 42, 127
1, 86208, Note_off_c, 9, 82, 0
1, 86220, Note_off_c, 9, 42, 0
1, 86264, Note_off_c, 1, 41, 64
1, 86272, Note_on_c, 9, 82, 81
1, 86276, Note_off_c, 2, 60, 64
1, 86280, Note_off_c, 2, 68, 64
1, 86280, Note_off_c, 2, 53, 64
1, 86284, Note_off_c, 2, 65, 64
1, 86308, Note_off_c, 9, 82, 0
1, 86368, Note_on_c, 9, 39, 127
1, 86412, Note_off_c, 9, 39, 0
1, 86560, Note_on_c, 9, 35, 127
1, 86560, Note_on_c, 9, 82, 98
1, 86564, Note_on_c, 9, 42, 127
1, 86568, Note_on_c, 9, 56, 99
1, 86588, Note_off_c, 9, 56, 0
1, 86592, Note_off_c, 9, 82, 0
1, 86596, Note_off_c, 9, 35, 0
1, 86608, Note_off_c, 9, 42, 0
1, 86656, Note_on_c, 9, 82, 81
1, 86660, Note_on_c, 9, 35, 123
1, 86660, Note_on_c, 9, 56, 99
1, 86688, Note_off_c, 9, 82, 0
1, 86688, Note_off_c, 9, 56, 0
1, 86692, Note_off_c, 9, 35, 0
1, 86752, Note_on_c, 9, 82, 81
1, 86756, Note_on_c, 5, 72, 114
1, 86756, Note_on_c, 9, 35, 127
1, 86756, Note_on_c, 9, 56, 99
1, 86756, Note_on_c, 1, 36, 96
1, 86780, Note_off_c, 9, 56, 0
1, 86792, Note_off_c, 9, 82, 0
1, 86800, Note_off_c, 9, 35, 0
1, 86852, Note_on_c, 9, 82, 74
1, 86852, Note_on_c, 9, 56, 99
1, 86880, Note_off_c, 5, 72, 0
1, 86884, Note_off_c, 9, 82, 0
1, 86884, Note_off_c, 9, 56, 0
1, 86944, Note_on_c, 9, 82, 66
1, 86948, Note_on_c, 9, 42, 127
1, 86980, Note_off_c, 9, 82, 0
1, 86996, Note_off_c, 9, 42, 0
1, 87040, Note_on_c, 9, 82, 81
1, 87044, Note_on_c, 2, 60, 86
1, 87044, Note_on_c, 9, 56, 106
1, 87048, Note_on_c, 2, 68, 99
1, 87048, Note_on_c, 2, 65, 96
1, 87048, Note_on_c, 2, 53, 102
1, 87048, Note_on_c, 5, 72, 110
1, 87072, Note_off_c, 9, 82, 0
1, 87076, Note_off_c, 9, 56, 0
1, 87140, Note_on_c, 9, 39, 127
1, 87192, Note_off_c, 5, 72, 0
1, 87192, Note_off_c, 9, 39, 0
1, 87232, Note_on_c, 9, 56, 114
1, 87268, Note_off_c, 9, 56, 0
1, 87288, Note_off_c, 2, 60, 0
1, 87292, Note_off_c, 2, 68, 0
1, 87292, Note_off_c, 2, 65, 0
1, 87296, Note_off_c, 2, 53, 0
1, 87328, Note_on_c, 9, 42, 127
1, 87332, Note_on_c, 9, 35, 123
1, 87368, Note_off_c, 9, 35, 0
1, 87376, Note_off_c, 9, 42, 0
1, 87432, Note_on_c, 9, 39, 99
1, 87464, Note_off_c, 9, 39, 0
1, 87500, Note_off_c, 1, 36, 0
1, 87520, Note_on_c, 2, 65, 91
1, 87520, Note_on_c, 2, 60, 102
1, 87520, Note_on_c, 2, 68, 91
1, 87520, Note_on_c, 9, 82, 89
1, 87520, Note_on_c, 1, 41, 123
1, 87524, Note_off_c, 2, 65, 64
1, 87524, Note_off_c, 2, 60, 64
1, 87524, Note_off_c, 2, 68, 64
1, 87524, Note_on_c, 2, 65, 91
1, 87524, Note_on_c, 2, 60, 102
1, 87524, Note_on_c, 2, 68, 91
1, 87524, Note_on_c, 2, 53, 106
1, 87524, Note_on_c, 5, 72, 123
1, 87524, Note_off_c, 9, 82, 64
1, 87524, Note_on_c, 9, 82, 89
1, 87524, Note_off_c, 1, 41, 64
1, 87524, Note_on_c, 1, 41, 123
1, 87540, Note_off_c, 9, 82, 64
1, 87612, Note_on_c, 9, 82, 74
1, 87636, Note_off_c, 9, 82, 0
1, 87708, Note_off_c, 5, 72, 64
1, 87708, Note_on_c, 9, 82, 81
1, 87732, Note_off_c, 9, 82, 0
1, 87736, Note_off_c, 1, 41, 64
1, 87744, Note_off_c, 2, 60, 64
1, 87744, Note_off_c, 2, 53, 64
1, 87756, Note_off_c, 2, 65, 64
1, 87756, Note_off_c, 2, 68, 64
1, 87804, Note_on_c, 9, 82, 89
1, 87836, Note_off_c, 9, 82, 0
1, 88092, Note_on_c, 9, 82, 98
1, 88096, Note_on_c, 9, 56, 106
1, 88116, Note_off_c, 9, 82, 0
1, 88128, Note_off_c, 9, 56, 0
1, 88188, Note_on_c, 9, 82, 81
1, 88216, Note_off_c, 9, 82, 0
1, 88284, Note_on_c, 9, 82, 81
1, 88288, Note_on_c, 5, 72, 114
1, 88288, Note_on_c, 9, 56, 106
1, 88312, Note_off_c, 9, 82, 0
1, 88312, Note_off_c, 9, 56, 0
1, 88376, Note_on_c, 9, 82, 74
1, 88388, Note_on_c, 9, 56, 106
1, 88412, Note_off_c, 9, 82, 0
1, 88424, Note_off_c, 9, 56, 0
1, 88440, Note_off_c, 5, 72, 0
1, 88472, Note_on_c, 9, 82, 81
1, 88508, Note_off_c, 9, 82, 0
1, 88568, Note_on_c, 9, 82, 89
1, 88572, Note_on_c, 1, 41, 110
1, 88576, Note_on_c, 9, 56, 114
1, 88580, Note_on_c, 2, 65, 96
1, 88580, Note_on_c, 2, 60, 102
1, 88584, Note_on_c, 2, 68, 99
1, 88584, Note_on_c, 2, 53, 110
1, 88584, Note_on_c, 5, 72, 110
1, 88608, Note_off_c, 9, 82, 0
1, 88616, Note_off_c, 9, 56, 0
1, 88744, Note_off_c, 5, 72, 0
1, 88764, Note_on_c, 9, 56, 106
1, 88792, Note_off_c, 9, 56, 0
1, 88804, Note_off_c, 2, 53, 0
1, 88808, Note_off_c, 2, 60, 0
1, 88828, Note_off_c, 2, 65, 0
1, 88828, Note_off_c, 2, 68, 0
1, 88864, Note_on_c, 9, 56, 106
1, 88888, Note_off_c, 1, 41, 0
1, 88900, Note_off_c, 9, 56, 0
1, 89048, Note_on_c, 2, 61, 99
1, 89048, Note_on_c, 2, 68, 114
1, 89052, Note_on_c, 2, 65, 96
1, 89052, Note_on_c, 2, 58, 99
1, 89052, Note_on_c, 5, 73, 114
1, 89052, Note_on_c, 1, 34, 114
1, 89056, Note_on_c, 2, 46, 99
1, 89056, Note_on_c, 9, 82, 89
1, 89088, Note_off_c, 9, 82, 64
1, 89152, Note_on_c, 9, 82, 89
1, 89184, Note_off_c, 9, 82, 0
1, 89220, Note_off_c, 5, 73, 64
1, 89244, Note_on_c, 9, 82, 74
1, 89280, Note_off_c, 9, 82, 0
1, 89312, Note_off_c, 1, 34, 64
1, 89320, Note_off_c, 2, 61, 64
1, 89324, Note_off_c, 2, 68, 64
1, 89324, Note_off_c, 2, 58, 64
1, 89332, Note_off_c, 2, 65, 64
1, 89332, Note_off_c, 2, 46, 64
1, 89344, Note_on_c, 9, 82, 81
1, 89376, Note_off_c, 9, 82, 0
1, 89632, Note_on_c, 9, 56, 106
1, 89632, Note_on_c, 9, 82, 98
1, 89664, Note_off_c, 9, 56, 0
1, 89664, Note_off_c, 9, 82, 0
1, 89728, Note_on_c, 9, 82, 74
1, 89756, Note_off_c, 9, 82, 0
1, 89824, Note_on_c, 5, 73, 123
1, 89824, Note_on_c, 9, 82, 81
1, 89824, Note_on_c, 9, 56, 106
1, 89848, Note_off_c, 9, 56, 0
1, 89860, Note_off_c, 9, 82, 0
1, 89920, Note_on_c, 9, 82, 81
1, 89924, Note_on_c, 9, 56, 106
1, 89952, Note_off_c, 9, 82, 0
1, 89956, Note_off_c, 5, 73, 0
1, 89960, Note_off_c, 9, 56, 0
1, 90012, Note_on_c, 9, 82, 74
1, 90048, Note_off_c, 9, 82, 0
1, 90108, Note_on_c, 9, 82, 81
1, 90112, Note_on_c, 9, 56, 114
1, 90116, Note_on_c, 2, 68, 99
1, 90116, Note_on_c, 2, 61, 91
1, 90116, Note_on_c, 2, 58, 99
1, 90116, Note_on_c, 5, 73, 114
1, 90116, Note_on_c, 1, 34, 123
1, 90120, Note_on_c, 2, 46, 99
1, 90120, Note_on_c, 2, 65, 96
1, 90140, Note_off_c, 9, 82, 0
1, 90152, Note_off_c, 9, 56, 0
1, 90260, Note_off_c, 5, 73, 0
1, 90300, Note_on_c, 9, 56, 106
1, 90328, Note_off_c, 9, 56, 0
1, 90344, Note_off_c, 2, 61, 0
1, 90348, Note_off_c, 2, 68, 0
1, 90348, Note_off_c, 2, 58, 0
1, 90348, Note_off_c, 2, 46, 0
1, 90352, Note_off_c, 2, 65, 0
1, 90400, Note_on_c, 9, 56, 106
1, 90400, Note_off_c, 1, 34, 0
1, 90436, Note_off_c, 9, 56, 0
1, 90588, Note_on_c, 2, 58, 99
1, 90588, Note_on_c, 2, 67, 106
1, 90588, Note_on_c, 5, 70, 114
1, 90588, Note_on_c, 9, 82, 89
1, 90592, Note_on_c, 2, 64, 102
1, 90592, Note_on_c, 2, 48, 96
1, 90592, Note_on_c, 1, 40, 114
1, 90620, Note_off_c, 9, 82, 64
1, 90684, Note_on_c, 9, 82, 74
1, 90716, Note_off_c, 9, 82, 0
1, 90768, Note_off_c, 5, 70, 64
1, 90780, Note_on_c, 9, 82, 74
1, 90812, Note_off_c, 9, 82, 0
1, 90852, Note_off_c, 1, 40, 64
1, 90876, Note_off_c, 2, 58, 64
1, 90876, Note_off_c, 2, 67, 64
1, 90876, Note_on_c, 9, 82, 81
1, 90884, Note_off_c, 2, 48, 64
1, 90888, Note_off_c, 2, 64, 64
1, 90916, Note_off_c, 9, 82, 0
1, 90968, Note_on_c, 9, 39, 127
1, 91016, Note_off_c, 9, 39, 0
1, 91168, Note_on_c, 9, 82, 89
1, 91168, Note_on_c, 9, 56, 106
1, 91192, Note_off_c, 9, 82, 0
1, 91200, Note_off_c, 9, 56, 0
1, 91260, Note_on_c, 9, 82, 74
1, 91292, Note_off_c, 9, 82, 0
1, 91356, Note_on_c, 9, 82, 81
1, 91360, Note_on_c, 9, 56, 99
1, 91364, Note_on_c, 5, 70, 114
1, 91380, Note_off_c, 9, 56, 0
1, 91392, Note_off_c, 9, 82, 0
1, 91452, Note_on_c, 9, 82, 74
1, 91456, Note_on_c, 9, 56, 91
1, 91488, Note_off_c, 9, 82, 0
1, 91488, Note_off_c, 9, 56, 0
1, 91496, Note_off_c, 5, 70, 0
1, 91548, Note_on_c, 9, 82, 74
1, 91584, Note_off_c, 9, 82, 0
1, 91644, Note_on_c, 9, 82, 74
1, 91648, Note_on_c, 2, 48, 91
1, 91648, Note_on_c, 2, 67, 102
1, 91648, Note_on_c, 2, 64, 102
1, 91652, Note_on_c, 2, 58, 106
1, 91652, Note_on_c, 9, 56, 114
1, 91652, Note_on_c, 1, 40, 114
1, 91660, Note_on_c, 5, 70, 114
1, 91680, Note_off_c, 9, 56, 0
1, 91684, Note_off_c, 9, 82, 0
1, 91792, Note_off_c, 5, 70, 0
1, 91840, Note_on_c, 9, 56, 123
1, 91872, Note_off_c, 9, 56, 0
1, 91900, Note_off_c, 2, 58, 0
1, 91904, Note_off_c, 2, 67, 0
1, 91908, Note_off_c, 2, 48, 0
1, 91916, Note_off_c, 2, 64, 0
1, 91928, Note_off_c, 1, 40, 0
1, 92124, Note_on_c, 2, 65, 96
1, 92124, Note_on_c, 2, 68, 99
1, 92124, Note_on_c, 2, 60, 96
1, 92124, Note_on_c, 5, 72, 114
1, 92124, Note_on_c, 9, 82, 98
1, 92128, Note_on_c, 2, 53, 96
1, 92128, Note_on_c, 1, 41, 114
1, 92156, Note_off_c, 9, 82, 64
1, 92220, Note_on_c, 9, 82, 74
1, 92252, Note_off_c, 9, 82, 0
1, 92288, Note_off_c, 5, 72, 64
1, 92312, Note_on_c, 9, 82, 66
1, 92348, Note_off_c, 9, 82, 0
1, 92404, Note_off_c, 1, 41, 64
1, 92412, Note_on_c, 9, 82, 81
1, 92416, Note_off_c, 2, 60, 64
1, 92420, Note_off_c, 2, 68, 64
1, 92420, Note_off_c, 2, 53, 64
1, 92424, Note_off_c, 2, 65, 64
1, 92448, Note_off_c, 9, 82, 0
1, 92508, Note_on_c, 9, 39, 127
1, 92552, Note_off_c, 9, 39, 0
1, 92700, Note_on_c, 9, 82, 98
1, 92708, Note_on_c, 9, 56, 99
1, 92728, Note_off_c, 9, 56, 0
1, 92732, Note_off_c, 9, 82, 0
1, 92796, Note_on_c, 9, 82, 81
1, 92800, Note_on_c, 9, 56, 99
1, 92828, Note_off_c, 9, 82, 0
1, 92828, Note_off_c, 9, 56, 0
1, 92892, Note_on_c, 9, 82, 81
1, 92896, Note_on_c, 9, 56, 99
1, 92896, Note_on_c, 1, 36, 96
1, 92900, Note_on_c, 5, 72, 114
1, 92920, Note_off_c, 9, 56, 0
1, 92932, Note_off_c, 9, 82, 0
1, 92992, Note_on_c, 9, 82, 74
1, 92992, Note_on_c, 9, 56, 99
1, 93024, Note_off_c, 5, 72, 0
1, 93024, Note_off_c, 9, 82, 0
1, 93024, Note_off_c, 9, 56, 0
1, 93084, Note_on_c, 9, 82, 66
1, 93120, Note_off_c, 9, 82, 0
1, 93180, Note_on_c, 9, 82, 81
1, 93184, Note_on_c, 2, 60, 86
1, 93184, Note_on_c, 9, 56, 106
1, 93188, Note_on_c, 2, 68, 99
1, 93188, Note_on_c, 2, 65, 96
1, 93188, Note_on_c, 2, 53, 102
1, 93192, Note_on_c, 5, 72, 110
1, 93212, Note_off_c, 9, 82, 0
1, 93216, Note_off_c, 9, 56, 0
1, 93336, Note_off_c, 5, 72, 0
1, 93372, Note_on_c, 9, 56, 114
1, 93408, Note_off_c, 9, 56, 0
1, 93428, Note_off_c, 2, 60, 0
1, 93432, Note_off_c, 2, 68, 0
1, 93432, Note_off_c, 2, 65, 0
1, 93436, Note_off_c, 2, 53, 0
1, 93468, Note_on_c, 9, 42, 127
1, 93472, Note_on_c, 9, 35, 123
1, 93508, Note_off_c, 9, 35, 0
1, 93516, Note_off_c, 9, 42, 0
1, 93572, Note_on_c, 9, 39, 99
1, 93604, Note_off_c, 9, 39, 0
1, 93640, Note_off_c, 1, 36, 0
1, 93660, Note_on_c, 2, 65, 91
1, 93660, Note_on_c, 9, 35, 123
1, 93664, Note_on_c, 2, 60, 102
1, 93664, Note_on_c, 2, 68, 91
1, 93664, Note_on_c, 9, 82, 89
1, 93664, Note_on_c, 1, 41, 123
1, 93668, Note_on_c, 2, 53, 106
1, 93668, Note_on_c, 5, 72, 123
1, 93684, Note_off_c, 9, 82, 64
1, 93708, Note_off_c, 9, 35, 64
1, 93756, Note_on_c, 9, 82, 55
1, 93780, Note_off_c, 9, 82, 0
1, 93852, Note_off_c, 5, 72, 64
1, 93852, Note_on_c, 9, 82, 60
1, 93860, Note_on_c, 9, 42, 95
1, 93876, Note_off_c, 9, 82, 0
1, 93880, Note_off_c, 1, 41, 64
1, 93888, Note_off_c, 2, 60, 64
1, 93888, Note_off_c, 2, 53, 64
1, 93892, Note_off_c, 9, 42, 0
1, 93900, Note_off_c, 2, 65, 64
1, 93900, Note_off_c, 2, 68, 64
1, 93948, Note_on_c, 9, 82, 66
1, 93956, Note_on_c, 9, 56, 85
1, 93980, Note_off_c, 9, 82, 0
1, 93984, Note_off_c, 9, 56, 0
1, 94044, Note_on_c, 9, 39, 95
1, 94096, Note_off_c, 9, 39, 0
1, 94232, Note_on_c, 9, 35, 92
1, 94236, Note_on_c, 9, 42, 92
1, 94236, Note_on_c, 9, 82, 73
1, 94240, Note_on_c, 9, 56, 79
1, 94260, Note_off_c, 9, 82, 0
1, 94272, Note_off_c, 9, 35, 0
1, 94272, Note_off_c, 9, 42, 0
1, 94272, Note_off_c, 9, 56, 0
1, 94332, Note_on_c, 9, 35, 95
1, 94332, Note_on_c, 9, 82, 60
1, 94360, Note_off_c, 9, 82, 0
1, 94364, Note_off_c, 9, 35, 0
1, 94428, Note_on_c, 9, 35, 95
1, 94428, Note_on_c, 9, 82, 60
1, 94432, Note_on_c, 5, 72, 85
1, 94432, Note_on_c, 9, 56, 79
1, 94456, Note_off_c, 9, 82, 0
1, 94456, Note_off_c, 9, 56, 0
1, 94468, Note_off_c, 9, 35, 0
1, 94520, Note_on_c, 9, 82, 55
1, 94532, Note_on_c, 9, 56, 79
1, 94556, Note_off_c, 9, 82, 0
1, 94568, Note_off_c, 9, 56, 0
1, 94584, Note_off_c, 5, 72, 0
1, 94616, Note_on_c, 9, 82, 60
1, 94620, Note_on_c, 9, 39, 68
1, 94624, Note_on_c, 9, 42, 95
1, 94652, Note_off_c, 9, 82, 0
1, 94652, Note_off_c, 9, 39, 0
1, 94656, Note_off_c, 9, 42, 0
1, 94712, Note_on_c, 9, 82, 66
1, 94716, Note_on_c, 1, 41, 82
1, 94720, Note_on_c, 9, 56, 85
1, 94724, Note_on_c, 2, 65, 72
1, 94724, Note_on_c, 2, 60, 76
1, 94728, Note_on_c, 2, 68, 74
1, 94728, Note_on_c, 2, 53, 82
1, 94728, Note_on_c, 5, 72, 82
1, 94752, Note_off_c, 9, 82, 0
1, 94760, Note_off_c, 9, 56, 0
1, 94888, Note_off_c, 5, 72, 0
1, 94908, Note_on_c, 9, 39, 95
1, 94908, Note_on_c, 9, 56, 79
1, 94936, Note_off_c, 9, 56, 0
1, 94948, Note_off_c, 2, 53, 0
1, 94952, Note_off_c, 2, 60, 0
1, 94952, Note_off_c, 9, 39, 0
1, 94972, Note_off_c, 2, 65, 0
1, 94972, Note_off_c, 2, 68, 0
1, 95004, Note_on_c, 9, 42, 95
1, 95008, Note_on_c, 9, 56, 79
1, 95032, Note_off_c, 1, 41, 0
1, 95036, Note_off_c, 9, 42, 0
1, 95044, Note_off_c, 9, 56, 0
1, 95192, Note_on_c, 2, 61, 74
1, 95192, Note_on_c, 2, 68, 85
1, 95192, Note_on_c, 9, 35, 92
1, 95196, Note_on_c, 2, 65, 72
1, 95196, Note_on_c, 2, 58, 74
1, 95196, Note_on_c, 5, 73, 85
1, 95196, Note_on_c, 9, 56, 92
1, 95196, Note_on_c, 1, 34, 85
1, 95200, Note_on_c, 2, 46, 74
1, 95200, Note_on_c, 9, 82, 66
1, 95228, Note_off_c, 9, 56, 64
1, 95232, Note_off_c, 9, 82, 64
1, 95240, Note_off_c, 9, 35, 64
1, 95296, Note_on_c, 9, 82, 66
1, 95328, Note_off_c, 9, 82, 0
1, 95364, Note_off_c, 5, 73, 64
1, 95388, Note_on_c, 9, 42, 95
1, 95388, Note_on_c, 9, 82, 55
1, 95424, Note_off_c, 9, 42, 0
1, 95424, Note_off_c, 9, 82, 0
1, 95456, Note_off_c, 1, 34, 64
1, 95464, Note_off_c, 2, 61, 64
1, 95468, Note_off_c, 2, 68, 64
1, 95468, Note_off_c, 2, 58, 64
1, 95476, Note_off_c, 2, 65, 64
1, 95476, Note_off_c, 2, 46, 64
1, 95488, Note_on_c, 9, 82, 60
1, 95492, Note_on_c, 9, 56, 85
1, 95520, Note_off_c, 9, 82, 0
1, 95520, Note_off_c, 9, 56, 0
1, 95576, Note_on_c, 9, 39, 95
1, 95624, Note_off_c, 9, 39, 0
1, 95772, Note_on_c, 9, 42, 95
1, 95776, Note_on_c, 9, 35, 92
1, 95776, Note_on_c, 9, 56, 79
1, 95776, Note_on_c, 9, 82, 73
1, 95808, Note_off_c, 9, 56, 0
1, 95808, Note_off_c, 9, 82, 0
1, 95812, Note_off_c, 9, 35, 0
1, 95816, Note_off_c, 9, 42, 0
1, 95872, Note_on_c, 9, 35, 95
1, 95872, Note_on_c, 9, 82, 55
1, 95900, Note_off_c, 9, 82, 0
1, 95904, Note_off_c, 9, 35, 0
1, 95964, Note_on_c, 9, 35, 95
1, 95968, Note_on_c, 5, 73, 92
1, 95968, Note_on_c, 9, 82, 60
1, 95968, Note_on_c, 9, 56, 79
1, 95992, Note_off_c, 9, 56, 0
1, 96004, Note_off_c, 9, 82, 0
1, 96008, Note_off_c, 9, 35, 0
1, 96064, Note_on_c, 9, 82, 60
1, 96068, Note_on_c, 9, 56, 79
1, 96096, Note_off_c, 9, 82, 0
1, 96100, Note_off_c, 5, 73, 0
1, 96104, Note_off_c, 9, 56, 0
1, 96156, Note_on_c, 9, 82, 55
1, 96160, Note_on_c, 9, 42, 95
1, 96164, Note_on_c, 9, 39, 63
1, 96192, Note_off_c, 9, 82, 0
1, 96200, Note_off_c, 9, 42, 0
1, 96200, Note_off_c, 9, 39, 0
1, 96252, Note_on_c, 9, 82, 60
1, 96256, Note_on_c, 9, 56, 85
1, 96260, Note_on_c, 2, 68, 74
1, 96260, Note_on_c, 2, 61, 68
1, 96260, Note_on_c, 2, 58, 74
1, 96260, Note_on_c, 5, 73, 85
1, 96260, Note_on_c, 1, 34, 92
1, 96264, Note_on_c, 2, 46, 74
1, 96264, Note_on_c, 2, 65, 72
1, 96284, Note_off_c, 9, 82, 0
1, 96296, Note_off_c, 9, 56, 0
1, 96404, Note_off_c, 5, 73, 0
1, 96444, Note_on_c, 9, 56, 79
1, 96452, Note_on_c, 9, 39, 95
1, 96472, Note_off_c, 9, 56, 0
1, 96488, Note_off_c, 2, 61, 0
1, 96492, Note_off_c, 2, 68, 0
1, 96492, Note_off_c, 2, 58, 0
1, 96492, Note_off_c, 2, 46, 0
1, 96496, Note_off_c, 2, 65, 0
1, 96496, Note_off_c, 9, 39, 0
1, 96544, Note_on_c, 9, 56, 79
1, 96544, Note_on_c, 9, 42, 95
1, 96544, Note_off_c, 1, 34, 0
1, 96580, Note_off_c, 9, 56, 0
1, 96580, Note_off_c, 9, 42, 0
1, 96732, Note_on_c, 2, 58, 74
1, 96732, Note_on_c, 2, 67, 79
1, 96732, Note_on_c, 5, 70, 85
1, 96732, Note_on_c, 9, 82, 66
1, 96736, Note_on_c, 2, 64, 76
1, 96736, Note_on_c, 2, 48, 72
1, 96736, Note_on_c, 9, 35, 95
1, 96736, Note_on_c, 9, 56, 85
1, 96736, Note_on_c, 1, 40, 85
1, 96764, Note_off_c, 9, 82, 64
1, 96772, Note_off_c, 9, 56, 64
1, 96780, Note_off_c, 9, 35, 64
1, 96828, Note_on_c, 9, 82, 55
1, 96832, Note_on_c, 9, 56, 79
1, 96860, Note_off_c, 9, 82, 0
1, 96876, Note_off_c, 9, 56, 0
1, 96912, Note_off_c, 5, 70, 64
1, 96924, Note_on_c, 9, 82, 55
1, 96928, Note_on_c, 9, 42, 95
1, 96956, Note_off_c, 9, 82, 0
1, 96964, Note_off_c, 9, 42, 0
1, 96996, Note_off_c, 1, 40, 64
1, 97020, Note_off_c, 2, 58, 64
1, 97020, Note_off_c, 2, 67, 64
1, 97020, Note_on_c, 9, 82, 60
1, 97028, Note_off_c, 2, 48, 64
1, 97032, Note_off_c, 2, 64, 64
1, 97060, Note_off_c, 9, 82, 0
1, 97112, Note_on_c, 9, 39, 95
1, 97160, Note_off_c, 9, 39, 0
1, 97308, Note_on_c, 9, 35, 95
1, 97308, Note_on_c, 9, 42, 95
1, 97312, Note_on_c, 9, 82, 66
1, 97312, Note_on_c, 9, 56, 79
1, 97336, Note_off_c, 9, 82, 0
1, 97340, Note_off_c, 9, 35, 0
1, 97344, Note_off_c, 9, 56, 0
1, 97352, Note_off_c, 9, 42, 0
1, 97404, Note_on_c, 9, 35, 85
1, 97404, Note_on_c, 9, 82, 55
1, 97436, Note_off_c, 9, 82, 0
1, 97440, Note_off_c, 9, 35, 0
1, 97500, Note_on_c, 9, 82, 60
1, 97500, Note_on_c, 9, 35, 95
1, 97504, Note_on_c, 9, 56, 74
1, 97508, Note_on_c, 5, 70, 85
1, 97524, Note_off_c, 9, 56, 0
1, 97536, Note_off_c, 9, 82, 0
1, 97548, Note_off_c, 9, 35, 0
1, 97596, Note_on_c, 9, 82, 55
1, 97600, Note_on_c, 9, 56, 68
1, 97632, Note_off_c, 9, 82, 0
1, 97632, Note_off_c, 9, 56, 0
1, 97640, Note_off_c, 5, 70, 0
1, 97692, Note_on_c, 9, 42, 95
1, 97692, Note_on_c, 9, 82, 55
1, 97696, Note_on_c, 9, 39, 63
1, 97728, Note_off_c, 9, 82, 0
1, 97732, Note_off_c, 9, 39, 0
1, 97736, Note_off_c, 9, 42, 0
1, 97788, Note_on_c, 9, 82, 55
1, 97792, Note_on_c, 2, 48, 68
1, 97792, Note_on_c, 2, 67, 76
1, 97792, Note_on_c, 2, 64, 76
1, 97796, Note_on_c, 2, 58, 79
1, 97796, Note_on_c, 9, 56, 85
1, 97796, Note_on_c, 1, 40, 85
1, 97804, Note_on_c, 5, 70, 85
1, 97824, Note_off_c, 9, 56, 0
1, 97828, Note_off_c, 9, 82, 0
1, 97936, Note_off_c, 5, 70, 0
1, 97984, Note_on_c, 9, 56, 92
1, 97984, Note_on_c, 9, 39, 95
1, 98016, Note_off_c, 9, 56, 0
1, 98036, Note_off_c, 9, 39, 0
1, 98044, Note_off_c, 2, 58, 0
1, 98048, Note_off_c, 2, 67, 0
1, 98052, Note_off_c, 2, 48, 0
1, 98060, Note_off_c, 2, 64, 0
1, 98072, Note_off_c, 1, 40, 0
1, 98076, Note_on_c, 9, 42, 95
1, 98124, Note_off_c, 9, 42, 0
1, 98268, Note_on_c, 2, 65, 72
1, 98268, Note_on_c, 2, 68, 74
1, 98268, Note_on_c, 2, 60, 72
1, 98268, Note_on_c, 5, 72, 85
1, 98268, Note_on_c, 9, 82, 73
1, 98268, Note_on_c, 9, 35, 92
1, 98268, Note_on_c, 9, 56, 85
1, 98272, Note_on_c, 2, 53, 72
1, 98272, Note_on_c, 1, 41, 85
1, 98300, Note_off_c, 9, 82, 64
1, 98300, Note_off_c, 9, 56, 64
1, 98320, Note_off_c, 9, 35, 64
1, 98364, Note_on_c, 9, 82, 37
1, 98396, Note_off_c, 9, 82, 0
1, 98432, Note_off_c, 5, 72, 64
1, 98456, Note_on_c, 9, 82, 33
1, 98460, Note_on_c, 9, 42, 63
1, 98492, Note_off_c, 9, 82, 0
1, 98504, Note_off_c, 9, 42, 0
1, 98548, Note_off_c, 1, 41, 64
1, 98556, Note_on_c, 9, 82, 40
1, 98560, Note_off_c, 2, 60, 64
1, 98564, Note_off_c, 2, 68, 64
1, 98564, Note_off_c, 2, 53, 64
1, 98568, Note_off_c, 2, 65, 64
1, 98592, Note_off_c, 9, 82, 0
1, 98652, Note_on_c, 9, 39, 63
1, 98696, Note_off_c, 9, 39, 0
1, 98844, Note_on_c, 9, 35, 63
1, 98844, Note_on_c, 9, 82, 49
1, 98848, Note_on_c, 9, 42, 63
1, 98852, Note_on_c, 9, 56, 49
1, 98872, Note_off_c, 9, 56, 0
1, 98876, Note_off_c, 9, 82, 0
1, 98880, Note_off_c, 9, 35, 0
1, 98892, Note_off_c, 9, 42, 0
1, 98940, Note_on_c, 9, 82, 40
1, 98944, Note_on_c, 9, 35, 61
1, 98944, Note_on_c, 9, 56, 49
1, 98972, Note_off_c, 9, 82, 0
1, 98972, Note_off_c, 9, 56, 0
1, 98976, Note_off_c, 9, 35, 0
1, 99036, Note_on_c, 9, 82, 40
1, 99040, Note_on_c, 9, 35, 63
1, 99040, Note_on_c, 9, 56, 49
1, 99040, Note_on_c, 1, 36, 48
1, 99044, Note_on_c, 5, 72, 57
1, 99064, Note_off_c, 9, 56, 0
1, 99076, Note_off_c, 9, 82, 0
1, 99084, Note_off_c, 9, 35, 0
1, 99136, Note_on_c, 9, 82, 37
1, 99136, Note_on_c, 9, 56, 49
1, 99168, Note_off_c, 5, 72, 0
1, 99168, Note_off_c, 9, 82, 0
1, 99168, Note_off_c, 9, 56, 0
1, 99228, Note_on_c, 9, 82, 33
1, 99232, Note_on_c, 9, 42, 63
1, 99264, Note_off_c, 9, 82, 0
1, 99280, Note_off_c, 9, 42, 0
1, 99324, Note_on_c, 9, 82, 40
1, 99328, Note_on_c, 2, 60, 43
1, 99328, Note_on_c, 9, 56, 53
1, 99332, Note_on_c, 2, 68, 49
1, 99332, Note_on_c, 2, 65, 48
1, 99332, Note_on_c, 2, 53, 51
1, 99336, Note_on_c, 5, 72, 55
1, 99356, Note_off_c, 9, 82, 0
1, 99360, Note_off_c, 9, 56, 0
1, 99424, Note_on_c, 9, 39, 63
1, 99476, Note_off_c, 9, 39, 0
1, 99480, Note_off_c, 5, 72, 0
1, 99516, Note_on_c, 9, 56, 57
1, 99552, Note_off_c, 9, 56, 0
1, 99572, Note_off_c, 2, 60, 0
1, 99576, Note_off_c, 2, 68, 0
1, 99576, Note_off_c, 2, 65, 0
1, 99580, Note_off_c, 2, 53, 0
1, 99612, Note_on_c, 9, 42, 63
1, 99616, Note_on_c, 9, 35, 61
1, 99652, Note_off_c, 9, 35, 0
1, 99660, Note_off_c, 9, 42, 0
1, 99716, Note_on_c, 9, 39, 49
1, 99748, Note_off_c, 9, 39, 0
1, 99784, Note_off_c, 1, 36, 0
1, 99804, Note_on_c, 2, 65, 45
1, 99804, Note_on_c, 9, 35, 61
1, 99808, Note_on_c, 2, 60, 51
1, 99808, Note_on_c, 2, 68, 45
1, 99808, Note_on_c, 9, 82, 44
1, 99808, Note_on_c, 1, 41, 61
1, 99812, Note_on_c, 2, 53, 53
1, 99816, Note_on_c, 5, 72, 123
1, 99816, Note_on_c, 9, 82, 89
1, 99828, Note_off_c, 9, 82, 64
1, 99828, Note_off_c, 9, 82, 64
1, 99852, Note_off_c, 9, 35, 64
1, 99900, Note_on_c, 9, 82, 37
1, 99908, Note_on_c, 9, 82, 74
1, 99924, Note_off_c, 9, 82, 0
1, 99932, Note_off_c, 9, 82, 0
1, 99996, Note_on_c, 9, 82, 40
1, 100000, Note_off_c, 5, 72, 64
1, 100004, Note_on_c, 9, 42, 63
1, 100004, Note_on_c, 9, 82, 81
1, 100020, Note_off_c, 9, 82, 0
1, 100024, Note_off_c, 1, 41, 64
1, 100028, Note_off_c, 9, 82, 0
1, 100032, Note_off_c, 2, 60, 64
1, 100032, Note_off_c, 2, 53, 64
1, 100036, Note_off_c, 9, 42, 0
1, 100044, Note_off_c, 2, 65, 64
1, 100044, Note_off_c, 2, 68, 64
1, 100092, Note_on_c, 9, 82, 44
1, 100100, Note_on_c, 9, 56, 57
1, 100100, Note_on_c, 9, 82, 89
1, 100124, Note_off_c, 9, 82, 0
1, 100128, Note_off_c, 9, 56, 0
1, 100132, Note_off_c, 9, 82, 0
1, 100188, Note_on_c, 9, 39, 63
1, 100240, Note_off_c, 9, 39, 0
1, 100376, Note_on_c, 9, 35, 61
1, 100380, Note_on_c, 9, 42, 61
1, 100380, Note_on_c, 9, 82, 49
1, 100384, Note_on_c, 9, 56, 53
1, 100388, Note_on_c, 9, 82, 98
1, 100404, Note_off_c, 9, 82, 0
1, 100412, Note_off_c, 9, 82, 0
1, 100416, Note_off_c, 9, 35, 0
1, 100416, Note_off_c, 9, 42, 0
1, 100416, Note_off_c, 9, 56, 0
1, 100476, Note_on_c, 9, 35, 63
1, 100476, Note_on_c, 9, 82, 40
1, 100484, Note_on_c, 9, 82, 81
1, 100504, Note_off_c, 9, 82, 0
1, 100508, Note_off_c, 9, 35, 0
1, 100512, Note_off_c, 9, 82, 0
1, 100572, Note_on_c, 9, 35, 63
1, 100572, Note_on_c, 9, 82, 40
1, 100576, Note_on_c, 9, 56, 53
1, 100580, Note_on_c, 5, 72, 114
1, 100580, Note_on_c, 9, 82, 81
1, 100600, Note_off_c, 9, 82, 0
1, 100600, Note_off_c, 9, 56, 0
1, 100608, Note_off_c, 9, 82, 0
1, 100612, Note_off_c, 9, 35, 0
1, 100664, Note_on_c, 9, 82, 37
1, 100672, Note_on_c, 9, 82, 74
1, 100676, Note_on_c, 9, 56, 53
1, 100700, Note_off_c, 9, 82, 0
1, 100708, Note_off_c, 9, 82, 0
1, 100712, Note_off_c, 9, 56, 0
1, 100732, Note_off_c, 5, 72, 0
1, 100760, Note_on_c, 9, 82, 40
1, 100764, Note_on_c, 9, 39, 45
1, 100768, Note_on_c, 9, 42, 63
1, 100768, Note_on_c, 9, 82, 81
1, 100796, Note_off_c, 9, 82, 0
1, 100796, Note_off_c, 9, 39, 0
1, 100800, Note_off_c, 9, 42, 0
1, 100804, Note_off_c, 9, 82, 0
1, 100856, Note_on_c, 9, 82, 44
1, 100860, Note_on_c, 1, 41, 55
1, 100864, Note_on_c, 9, 56, 57
1, 100864, Note_on_c, 9, 82, 89
1, 100868, Note_on_c, 2, 65, 48
1, 100868, Note_on_c, 2, 60, 51
1, 100872, Note_on_c, 2, 68, 49
1, 100872, Note_on_c, 2, 53, 55
1, 100876, Note_on_c, 5, 72, 110
1, 100896, Note_off_c, 9, 82, 0
1, 100904, Note_off_c, 9, 56, 0
1, 100904, Note_off_c, 9, 82, 0
1, 101036, Note_off_c, 5, 72, 0
1, 101052, Note_on_c, 9, 39, 63
1, 101052, Note_on_c, 9, 56, 53
1, 101080, Note_off_c, 9, 56, 0
1, 101092, Note_off_c, 2, 53, 0
1, 101096, Note_off_c, 2, 60, 0
1, 101096, Note_off_c, 9, 39, 0
1, 101116, Note_off_c, 2, 65, 0
1, 101116, Note_off_c, 2, 68, 0
1, 101148, Note_on_c, 9, 42, 63
1, 101152, Note_on_c, 9, 56, 53
1, 101176, Note_off_c, 1, 41, 0
1, 101180, Note_off_c, 9, 42, 0
1, 101188, Note_off_c, 9, 56, 0
1, 101336, Note_on_c, 2, 61, 49
1, 101336, Note_on_c, 2, 68, 57
1, 101336, Note_on_c, 9, 35, 61
1, 101340, Note_on_c, 2, 65, 48
1, 101340, Note_on_c, 2, 58, 49
1, 101340, Note_on_c, 9, 56, 61
1, 101340, Note_on_c, 1, 34, 57
1, 101344, Note_on_c, 2, 46, 49
1, 101344, Note_on_c, 5, 73, 114
1, 101344, Note_on_c, 9, 82, 44
1, 101352, Note_on_c, 9, 82, 89
1, 101372, Note_off_c, 9, 56, 64
1, 101376, Note_off_c, 9, 82, 64
1, 101376, Note_off_c, 9, 82, 64
1, 101384, Note_off_c, 9, 35, 64
1, 101440, Note_on_c, 9, 82, 44
1, 101448, Note_on_c, 9, 82, 89
1, 101472, Note_off_c, 9, 82, 0
1, 101480, Note_off_c, 9, 82, 0
1, 101512, Note_off_c, 5, 73, 64
1, 101532, Note_on_c, 9, 42, 63
1, 101532, Note_on_c, 9, 82, 37
1, 101540, Note_on_c, 9, 82, 74
1, 101568, Note_off_c, 9, 42, 0
1, 101568, Note_off_c, 9, 82, 0
1, 101576, Note_off_c, 9, 82, 0
1, 101600, Note_off_c, 1, 34, 64
1, 101608, Note_off_c, 2, 61, 64
1, 101612, Note_off_c, 2, 68, 64
1, 101612, Note_off_c, 2, 58, 64
1, 101620, Note_off_c, 2, 65, 64
1, 101620, Note_off_c, 2, 46, 64
1, 101632, Note_on_c, 9, 82, 40
1, 101636, Note_on_c, 9, 56, 57
1, 101640, Note_on_c, 9, 82, 81
1, 101664, Note_off_c, 9, 82, 0
1, 101664, Note_off_c, 9, 56, 0
1, 101672, Note_off_c, 9, 82, 0
1, 101720, Note_on_c, 9, 39, 63
1, 101768, Note_off_c, 9, 39, 0
1, 101916, Note_on_c, 9, 42, 63
1, 101920, Note_on_c, 9, 35, 61
1, 101920, Note_on_c, 9, 56, 53
1, 101920, Note_on_c, 9, 82, 49
1, 101928, Note_on_c, 9, 82, 98
1, 101952, Note_off_c, 9, 56, 0
1, 101952, Note_off_c, 9, 82, 0
1, 101956, Note_off_c, 9, 35, 0
1, 101960, Note_off_c, 9, 42, 0
1, 101960, Note_off_c, 9, 82, 0
1, 102016, Note_on_c, 9, 35, 63
1, 102016, Note_on_c, 9, 82, 37
1, 102024, Note_on_c, 9, 82, 74
1, 102044, Note_off_c, 9, 82, 0
1, 102048, Note_off_c, 9, 35, 0
1, 102052, Note_off_c, 9, 82, 0
1, 102108, Note_on_c, 9, 35, 63
1, 102112, Note_on_c, 9, 82, 40
1, 102112, Note_on_c, 9, 56, 53
1, 102116, Note_on_c, 5, 73, 123
1, 102120, Note_on_c, 9, 82, 81
1, 102136, Note_off_c, 9, 56, 0
1, 102148, Note_off_c, 9, 82, 0
1, 102152, Note_off_c, 9, 35, 0
1, 102156, Note_off_c, 9, 82, 0
1, 102208, Note_on_c, 9, 82, 40
1, 102212, Note_on_c, 9, 56, 53
1, 102216, Note_on_c, 9, 82, 81
1, 102240, Note_off_c, 9, 82, 0
1, 102248, Note_off_c, 5, 73, 0
1, 102248, Note_off_c, 9, 56, 0
1, 102248, Note_off_c, 9, 82, 0
1, 102300, Note_on_c, 9, 82, 37
1, 102304, Note_on_c, 9, 42, 63
1, 102308, Note_on_c, 9, 39, 42
1, 102308, Note_on_c, 9, 82, 74
1, 102336, Note_off_c, 9, 82, 0
1, 102344, Note_off_c, 9, 42, 0
1, 102344, Note_off_c, 9, 39, 0
1, 102344, Note_off_c, 9, 82, 0
1, 102396, Note_on_c, 9, 82, 40
1, 102400, Note_on_c, 9, 56, 57
1, 102404, Note_on_c, 2, 68, 49
1, 102404, Note_on_c, 2, 61, 45
1, 102404, Note_on_c, 2, 58, 49
1, 102404, Note_on_c, 9, 82, 81
1, 102404, Note_on_c, 1, 34, 61
1, 102408, Note_on_c, 2, 46, 49
1, 102408, Note_on_c, 2, 65, 48
1, 102408, Note_on_c, 5, 73, 114
1, 102428, Note_off_c, 9, 82, 0
1, 102436, Note_off_c, 9, 82, 0
1, 102440, Note_off_c, 9, 56, 0
1, 102552, Note_off_c, 5, 73, 0
1, 102588, Note_on_c, 9, 56, 53
1, 102596, Note_on_c, 9, 39, 63
1, 102616, Note_off_c, 9, 56, 0
1, 102632, Note_off_c, 2, 61, 0
1, 102636, Note_off_c, 2, 68, 0
1, 102636, Note_off_c, 2, 58, 0
1, 102636, Note_off_c, 2, 46, 0
1, 102640, Note_off_c, 2, 65, 0
1, 102640, Note_off_c, 9, 39, 0
1, 102688, Note_on_c, 9, 56, 53
1, 102688, Note_on_c, 9, 42, 63
1, 102688, Note_off_c, 1, 34, 0
1, 102724, Note_off_c, 9, 56, 0
1, 102724, Note_off_c, 9, 42, 0
1, 102876, Note_on_c, 2, 58, 49
1, 102876, Note_on_c, 2, 67, 53
1, 102876, Note_on_c, 9, 82, 44
1, 102880, Note_on_c, 2, 64, 51
1, 102880, Note_on_c, 2, 48, 48
1, 102880, Note_on_c, 5, 70, 114
1, 102880, Note_on_c, 9, 35, 63
1, 102880, Note_on_c, 9, 56, 57
1, 102880, Note_on_c, 1, 40, 57
1, 102884, Note_on_c, 9, 82, 89
1, 102908, Note_off_c, 9, 82, 64
1, 102908, Note_off_c, 9, 82, 64
1, 102916, Note_off_c, 9, 56, 64
1, 102924, Note_off_c, 9, 35, 64
1, 102972, Note_on_c, 9, 82, 18
1, 102976, Note_on_c, 9, 56, 26
1, 102980, Note_on_c, 9, 82, 74
1, 103004, Note_off_c, 9, 82, 0
1, 103012, Note_off_c, 9, 82, 0
1, 103020, Note_off_c, 9, 56, 0
1, 103060, Note_off_c, 5, 70, 64
1, 103068, Note_on_c, 9, 82, 18
1, 103072, Note_on_c, 9, 42, 31
1, 103076, Note_on_c, 9, 82, 74
1, 103100, Note_off_c, 9, 82, 0
1, 103108, Note_off_c, 9, 42, 0
1, 103108, Note_off_c, 9, 82, 0
1, 103140, Note_off_c, 1, 40, 64
1, 103164, Note_off_c, 2, 58, 64
1, 103164, Note_off_c, 2, 67, 64
1, 103164, Note_on_c, 9, 82, 20
1, 103172, Note_off_c, 2, 48, 64
1, 103172, Note_on_c, 9, 82, 81
1, 103176, Note_off_c, 2, 64, 64
1, 103204, Note_off_c, 9, 82, 0
1, 103212, Note_off_c, 9, 82, 0
1, 103256, Note_on_c, 9, 39, 31
1, 103304, Note_off_c, 9, 39, 0
1, 103452, Note_on_c, 9, 35, 31
1, 103452, Note_on_c, 9, 42, 31
1, 103456, Note_on_c, 9, 82, 22
1, 103456, Note_on_c, 9, 56, 26
1, 103464, Note_on_c, 9, 82, 89
1, 103480, Note_off_c, 9, 82, 0
1, 103484, Note_off_c, 9, 35, 0
1, 103488, Note_off_c, 9, 56, 0
1, 103488, Note_off_c, 9, 82, 0
1, 103496, Note_off_c, 9, 42, 0
1, 103548, Note_on_c, 9, 35, 28
1, 103548, Note_on_c, 9, 82, 18
1, 103556, Note_on_c, 9, 82, 74
1, 103580, Note_off_c, 9, 82, 0
1, 103584, Note_off_c, 9, 35, 0
1, 103588, Note_off_c, 9, 82, 0
1, 103644, Note_on_c, 9, 82, 20
1, 103644, Note_on_c, 9, 35, 31
1, 103648, Note_on_c, 9, 56, 24
1, 103652, Note_on_c, 9, 82, 81
1, 103656, Note_on_c, 5, 70, 114
1, 103668, Note_off_c, 9, 56, 0
1, 103680, Note_off_c, 9, 82, 0
1, 103688, Note_off_c, 9, 82, 0
1, 103692, Note_off_c, 9, 35, 0
1, 103740, Note_on_c, 9, 82, 18
1, 103744, Note_on_c, 9, 56, 22
1, 103748, Note_on_c, 9, 82, 74
1, 103776, Note_off_c, 9, 82, 0
1, 103776, Note_off_c, 9, 56, 0
1, 103784, Note_off_c, 9, 82, 0
1, 103788, Note_off_c, 5, 70, 0
1, 103836, Note_on_c, 9, 42, 31
1, 103836, Note_on_c, 9, 82, 18
1, 103840, Note_on_c, 9, 39, 21
1, 103844, Note_on_c, 9, 82, 74
1, 103872, Note_off_c, 9, 82, 0
1, 103876, Note_off_c, 9, 39, 0
1, 103880, Note_off_c, 9, 42, 0
1, 103880, Note_off_c, 9, 82, 0
1, 103932, Note_on_c, 9, 82, 18
1, 103936, Note_on_c, 2, 48, 22
1, 103936, Note_on_c, 2, 67, 25
1, 103936, Note_on_c, 2, 64, 25
1, 103940, Note_on_c, 2, 58, 26
1, 103940, Note_on_c, 9, 56, 28
1, 103940, Note_on_c, 9, 82, 74
1, 103940, Note_on_c, 1, 40, 28
1, 103952, Note_on_c, 5, 70, 114
1, 103968, Note_off_c, 9, 56, 0
1, 103972, Note_off_c, 9, 82, 0
1, 103980, Note_off_c, 9, 82, 0
1, 104084, Note_off_c, 5, 70, 0
1, 104128, Note_on_c, 9, 56, 30
1, 104128, Note_on_c, 9, 39, 31
1, 104160, Note_off_c, 9, 56, 0
1, 104180, Note_off_c, 9, 39, 0
1, 104188, Note_off_c, 2, 58, 0
1, 104192, Note_off_c, 2, 67, 0
1, 104196, Note_off_c, 2, 48, 0
1, 104204, Note_off_c, 2, 64, 0
1, 104216, Note_off_c, 1, 40, 0
1, 104220, Note_on_c, 9, 42, 31
1, 104268, Note_off_c, 9, 42, 0
1, 104412, Note_on_c, 2, 65, 24
1, 104412, Note_on_c, 2, 68, 24
1, 104412, Note_on_c, 2, 60, 24
1, 104412, Note_on_c, 9, 82, 24
1, 104412, Note_on_c, 9, 35, 30
1, 104412, Note_on_c, 9, 56, 28
1, 104416, Note_on_c, 2, 53, 24
1, 104416, Note_on_c, 5, 72, 114
1, 104416, Note_on_c, 1, 41, 28
1, 104420, Note_on_c, 9, 82, 98
1, 104444, Note_off_c, 9, 82, 64
1, 104444, Note_off_c, 9, 56, 64
1, 104444, Note_off_c, 9, 82, 64
1, 104464, Note_off_c, 9, 35, 64
1, 104508, Note_on_c, 9, 82, 18
1, 104516, Note_on_c, 9, 82, 74
1, 104540, Note_off_c, 9, 82, 0
1, 104548, Note_off_c, 9, 82, 0
1, 104580, Note_off_c, 5, 72, 64
1, 104600, Note_on_c, 9, 82, 16
1, 104604, Note_on_c, 9, 42, 31
1, 104608, Note_on_c, 9, 82, 66
1, 104636, Note_off_c, 9, 82, 0
1, 104644, Note_off_c, 9, 82, 0
1, 104648, Note_off_c, 9, 42, 0
1, 104692, Note_off_c, 1, 41, 64
1, 104700, Note_on_c, 9, 82, 20
1, 104704, Note_off_c, 2, 60, 64
1, 104708, Note_off_c, 2, 68, 64
1, 104708, Note_off_c, 2, 53, 64
1, 104708, Note_on_c, 9, 82, 81
1, 104712, Note_off_c, 2, 65, 64
1, 104736, Note_off_c, 9, 82, 0
1, 104744, Note_off_c, 9, 82, 0
1, 104796, Note_on_c, 9, 39, 31
1, 104840, Note_off_c, 9, 39, 0
1, 104988, Note_on_c, 9, 35, 31
1, 104988, Note_on_c, 9, 82, 24
1, 104992, Note_on_c, 9, 42, 31
1, 104996, Note_on_c, 9, 56, 24
1, 104996, Note_on_c, 9, 82, 98
1, 105016, Note_off_c, 9, 56, 0
1, 105020, Note_off_c, 9, 82, 0
1, 105024, Note_off_c, 9, 35, 0
1, 105028, Note_off_c, 9, 82, 0
1, 105036, Note_off_c, 9, 42, 0
1, 105084, Note_on_c, 9, 82, 20
1, 105088, Note_on_c, 9, 35, 30
1, 105088, Note_on_c, 9, 56, 24
1, 105092, Note_on_c, 9, 82, 81
1, 105116, Note_off_c, 9, 82, 0
1, 105116, Note_off_c, 9, 56, 0
1, 105120, Note_off_c, 9, 35, 0
1, 105124, Note_off_c, 9, 82, 0
1, 105180, Note_on_c, 9, 82, 20
1, 105184, Note_on_c, 9, 35, 31
1, 105184, Note_on_c, 9, 56, 24
1, 105184, Note_on_c, 1, 36, 24
1, 105188, Note_on_c, 9, 82, 81
1, 105192, Note_on_c, 5, 72, 114
1, 105208, Note_off_c, 9, 56, 0
1, 105220, Note_off_c, 9, 82, 0
1, 105228, Note_off_c, 9, 35, 0
1, 105228, Note_off_c, 9, 82, 0
1, 105280, Note_on_c, 9, 82, 18
1, 105280, Note_on_c, 9, 56, 24
1, 105288, Note_on_c, 9, 82, 74
1, 105312, Note_off_c, 9, 82, 0
1, 105312, Note_off_c, 9, 56, 0
1, 105316, Note_off_c, 5, 72, 0
1, 105320, Note_off_c, 9, 82, 0
1, 105372, Note_on_c, 9, 82, 16
1, 105376, Note_on_c, 9, 42, 31
1, 105380, Note_on_c, 9, 82, 66
1, 105408, Note_off_c, 9, 82, 0
1, 105416, Note_off_c, 9, 82, 0
1, 105424, Note_off_c, 9, 42, 0
1, 105468, Note_on_c, 9, 82, 20
1, 105472, Note_on_c, 2, 60, 21
1, 105472, Note_on_c, 9, 56, 26
1, 105476, Note_on_c, 2, 68, 24
1, 105476, Note_on_c, 2, 65, 24
1, 105476, Note_on_c, 2, 53, 25
1, 105476, Note_on_c, 9, 82, 81
1, 105484, Note_on_c, 5, 72, 110
1, 105500, Note_off_c, 9, 82, 0
1, 105504, Note_off_c, 9, 56, 0
1, 105508, Note_off_c, 9, 82, 0
1, 105568, Note_on_c, 9, 39, 31
1, 105620, Note_off_c, 9, 39, 0
1, 105628, Note_off_c, 5, 72, 0
1, 105660, Note_on_c, 9, 56, 28
1, 105696, Note_off_c, 9, 56, 0
1, 105716, Note_off_c, 2, 60, 0
1, 105720, Note_off_c, 2, 68, 0
1, 105720, Note_off_c, 2, 65, 0
1, 105724, Note_off_c, 2, 53, 0
1, 105756, Note_on_c, 9, 42, 31
1, 105760, Note_on_c, 9, 35, 30
1, 105796, Note_off_c, 9, 35, 0
1, 105804, Note_off_c, 9, 42, 0
1, 105860, Note_on_c, 9, 39, 24
1, 105892, Note_off_c, 9, 39, 0
1, 105928, Note_off_c, 1, 36, 0
1, 105948, Note_on_c, 2, 65, 22
1, 105948, Note_on_c, 9, 35, 30
1, 105952, Note_on_c, 2, 60, 25
1, 105952, Note_on_c, 2, 68, 22
1, 105952, Note_on_c, 9, 82, 22
1, 105952, Note_on_c, 1, 41, 30
1, 105956, Note_on_c, 2, 53, 26
1, 105960, Note_on_c, 5, 72, 123
1, 105960, Note_on_c, 9, 82, 89
1, 105972, Note_off_c, 9, 82, 64
1, 105972, Note_off_c, 9, 82, 64
1, 105996, Note_off_c, 9, 35, 64
1, 106052, Note_on_c, 9, 82, 74
1, 106068, Note_off_c, 9, 82, 0
1, 106144, Note_off_c, 5, 72, 64
1, 106148, Note_on_c, 9, 82, 81
1, 106164, Note_off_c, 9, 82, 0
1, 106168, Note_off_c, 1, 41, 64
1, 106176, Note_off_c, 2, 60, 64
1, 106176, Note_off_c, 2, 53, 64
1, 106188, Note_off_c, 2, 65, 64
1, 106188, Note_off_c, 2, 68, 64
1, 106244, Note_on_c, 9, 82, 89
1, 106268, Note_off_c, 9, 82, 0
1, 106532, Note_on_c, 9, 82, 98
1, 106548, Note_off_c, 9, 82, 0
1, 106628, Note_on_c, 9, 82, 81
1, 106648, Note_off_c, 9, 82, 0
1, 106724, Note_on_c, 5, 72, 114
1, 106724, Note_on_c, 9, 82, 81
1, 106744, Note_off_c, 9, 82, 0
1, 106816, Note_on_c, 9, 82, 74
1, 106844, Note_off_c, 9, 82, 0
1, 106876, Note_off_c, 5, 72, 0
1, 106912, Note_on_c, 9, 82, 81
1, 106940, Note_off_c, 9, 82, 0
1, 107008, Note_on_c, 9, 82, 89
1, 107020, Note_on_c, 5, 72, 110
1, 107040, Note_off_c, 9, 82, 0
1, 107180, Note_off_c, 5, 72, 0
1, 107488, Note_on_c, 5, 73, 114
1, 107496, Note_on_c, 9, 82, 89
1, 107528, Note_off_c, 9, 82, 64
1, 107592, Note_on_c, 9, 82, 89
1, 107624, Note_off_c, 9, 82, 0
1, 107656, Note_off_c, 5, 73, 64
1, 107684, Note_on_c, 9, 82, 74
1, 107720, Note_off_c, 9, 82, 0
1, 107784, Note_on_c, 9, 82, 81
1, 107816, Note_off_c, 9, 82, 0
1, 108072, Note_on_c, 9, 82, 98
1, 108104, Note_off_c, 9, 82, 0
1, 108168, Note_on_c, 9, 82, 74
1, 108196, Note_off_c, 9, 82, 0
1, 108260, Note_on_c, 5, 73, 123
1, 108264, Note_on_c, 9, 82, 81
1, 108300, Note_off_c, 9, 82, 0
1, 108360, Note_on_c, 9, 82, 81
1, 108392, Note_off_c, 5, 73, 0
1, 108392, Note_off_c, 9, 82, 0
1, 108452, Note_on_c, 9, 82, 74
1, 108488, Note_off_c, 9, 82, 0
1, 108548, Note_on_c, 9, 82, 81
1, 108552, Note_on_c, 5, 73, 114
1, 108580, Note_off_c, 9, 82, 0
1, 108696, Note_off_c, 5, 73, 0
1, 109024, Note_on_c, 5, 70, 114
1, 109028, Note_on_c, 9, 82, 89
1, 109060, Note_off_c, 9, 82, 64
1, 109124, Note_on_c, 9, 82, 74
1, 109156, Note_off_c, 9, 82, 0
1, 109204, Note_off_c, 5, 70, 64
1, 109220, Note_on_c, 9, 82, 74
1, 109252, Note_off_c, 9, 82, 0
1, 109316, Note_on_c, 9, 82, 81
1, 109356, Note_off_c, 9, 82, 0
1, 109608, Note_on_c, 9, 82, 89
1, 109632, Note_off_c, 9, 82, 0
1, 109700, Note_on_c, 9, 82, 74
1, 109732, Note_off_c, 9, 82, 0
1, 109796, Note_on_c, 9, 82, 81
1, 109800, Note_on_c, 5, 70, 114
1, 109832, Note_off_c, 9, 82, 0
1, 109892, Note_on_c, 9, 82, 74
1, 109928, Note_off_c, 9, 82, 0
1, 109932, Note_off_c, 5, 70, 0
1, 109988, Note_on_c, 9, 82, 74
1, 110024, Note_off_c, 9, 82, 0
1, 110084, Note_on_c, 9, 82, 74
1, 110096, Note_on_c, 5, 70, 114
1, 110124, Note_off_c, 9, 82, 0
1, 110228, Note_off_c, 5, 70, 0
1, 110560, Note_on_c, 5, 72, 114
1, 110564, Note_on_c, 9, 82, 98
1, 110596, Note_off_c, 9, 82, 64
1, 110660, Note_on_c, 9, 82, 74
1, 110692, Note_off_c, 9, 82, 0
1, 110724, Note_off_c, 5, 72, 64
1, 110752, Note_on_c, 9, 82, 66
1, 110788, Note_off_c, 9, 82, 0
1, 110852, Note_on_c, 9, 82, 81
1, 110888, Note_off_c, 9, 82, 0
1, 111140, Note_on_c, 9, 82, 98
1, 111172, Note_off_c, 9, 82, 0
1, 111236, Note_on_c, 9, 82, 81
1, 111268, Note_off_c, 9, 82, 0
1, 111332, Note_on_c, 9, 82, 81
1, 111336, Note_on_c, 5, 72, 114
1, 111372, Note_off_c, 9, 82, 0
1, 111432, Note_on_c, 9, 82, 74
1, 111460, Note_off_c, 5, 72, 0
1, 111464, Note_off_c, 9, 82, 0
1, 111524, Note_on_c, 9, 82, 66
1, 111560, Note_off_c, 9, 82, 0
1, 111620, Note_on_c, 9, 82, 81
1, 111628, Note_on_c, 5, 72, 110
1, 111652, Note_off_c, 9, 82, 0
1, 111772, Note_off_c, 5, 72, 0
1, 111772, End_track
0, 0, End_of_file
