0, 0, Header, 1, 21, 240
1, 0, Start_track
1, 0, Time_signature, 4, 2, 24, 8
1, 0, Tempo, 697674
1, 1920, Marker_t, "WHO CAN I TURN TO ............................................."
1, 82560, Marker_t, "thanks for listening............................................."
1, 82560, End_track
2, 0, Start_track
2, 0, Title_t, "    "" WHO CAN I TURN TO """
2, 0, End_track
3, 0, Start_track
3, 0, End_track
4, 0, Start_track
4, 0, Title_t, "  Orchestration & midi prep by"
4, 0, End_track
5, 0, Start_track
5, 0, Title_t, "              MEL WEBB"
5, 0, End_track
6, 0, Start_track
6, 0, End_track
7, 0, Start_track
7, 0, Title_t, "Bass / Acoustic bass"
7, 0, Control_c, 1, 0, 0
7, 0, Control_c, 1, 32, 0
7, 0, Program_c, 1, 32
7, 0, Control_c, 1, 7, 65
7, 0, Control_c, 1, 10, 64
7, 0, Control_c, 1, 123, 0
7, 0, Control_c, 1, 91, 40
7, 0, Control_c, 1, 93, 0
7, 0, Control_c, 1, 64, 0
7, 1920, Note_on_c, 1, 38, 76
7, 2400, Note_on_c, 1, 45, 61
7, 2428, Note_off_c, 1, 38, 64
7, 2880, Note_off_c, 1, 45, 64
7, 2880, Note_on_c, 1, 42, 70
7, 3360, Note_off_c, 1, 42, 64
7, 3360, Note_on_c, 1, 35, 80
7, 3748, Note_off_c, 1, 35, 64
7, 3776, Note_on_c, 1, 39, 81
7, 3840, Note_off_c, 1, 39, 64
7, 3840, Note_on_c, 1, 40, 82
7, 4320, Note_off_c, 1, 40, 64
7, 4320, Note_on_c, 1, 33, 82
7, 4800, Note_off_c, 1, 33, 64
7, 4800, Note_on_c, 1, 33, 85
7, 5200, Note_off_c, 1, 33, 64
7, 5200, Note_on_c, 1, 21, 55
7, 5238, Note_off_c, 1, 21, 64
7, 5280, Note_on_c, 1, 33, 81
7, 5406, Note_off_c, 1, 33, 64
7, 5456, Note_on_c, 1, 33, 71
7, 5520, Note_on_c, 1, 40, 73
7, 5536, Note_off_c, 1, 33, 64
7, 5760, Note_off_c, 1, 40, 64
7, 5760, Note_on_c, 1, 38, 82
7, 6240, Note_off_c, 1, 38, 64
7, 6240, Note_on_c, 1, 40, 80
7, 6628, Note_off_c, 1, 40, 64
7, 6656, Note_on_c, 1, 41, 81
7, 6720, Note_off_c, 1, 41, 64
7, 6720, Note_on_c, 1, 42, 85
7, 7040, Note_on_c, 1, 30, 47
7, 7060, Note_off_c, 1, 42, 64
7, 7094, Note_off_c, 1, 30, 64
7, 7120, Note_on_c, 1, 42, 82
7, 7144, Note_off_c, 1, 42, 64
7, 7200, Note_on_c, 1, 43, 81
7, 7326, Note_off_c, 1, 43, 64
7, 7376, Note_on_c, 1, 43, 71
7, 7440, Note_on_c, 1, 50, 73
7, 7456, Note_off_c, 1, 43, 64
7, 7680, Note_off_c, 1, 50, 64
7, 7680, Note_on_c, 1, 33, 85
7, 8160, Note_off_c, 1, 33, 64
7, 8160, Note_on_c, 1, 40, 85
7, 8532, Note_off_c, 1, 40, 64
7, 8576, Note_on_c, 1, 39, 80
7, 8640, Note_off_c, 1, 39, 64
7, 8640, Note_on_c, 1, 38, 76
7, 8986, Note_off_c, 1, 38, 64
7, 9056, Note_on_c, 1, 38, 84
7, 9120, Note_on_c, 1, 45, 68
7, 9156, Note_off_c, 1, 38, 64
7, 9456, Note_off_c, 1, 45, 64
7, 9536, Note_on_c, 1, 45, 65
7, 9590, Note_off_c, 1, 45, 64
7, 9600, Note_on_c, 1, 43, 89
7, 10094, Note_off_c, 1, 43, 64
7, 10094, Note_on_c, 1, 38, 82
7, 10516, Note_off_c, 1, 38, 64
7, 10560, Note_on_c, 1, 44, 82
7, 11040, Note_off_c, 1, 44, 64
7, 11040, Note_on_c, 1, 37, 70
7, 11520, Note_off_c, 1, 37, 64
7, 11520, Note_on_c, 1, 42, 82
7, 12000, Note_off_c, 1, 42, 64
7, 12000, Note_on_c, 1, 35, 85
7, 12400, Note_off_c, 1, 35, 64
7, 12400, Note_on_c, 1, 23, 55
7, 12438, Note_off_c, 1, 23, 64
7, 12480, Note_on_c, 1, 33, 70
7, 12960, Note_off_c, 1, 33, 64
7, 12960, Note_on_c, 1, 38, 73
7, 13376, Note_off_c, 1, 38, 64
7, 13376, Note_on_c, 1, 45, 68
7, 13440, Note_off_c, 1, 45, 64
7, 13440, Note_on_c, 1, 43, 82
7, 13920, Note_off_c, 1, 43, 64
7, 13920, Note_on_c, 1, 37, 85
7, 14240, Note_on_c, 1, 25, 47
7, 14260, Note_off_c, 1, 37, 64
7, 14294, Note_off_c, 1, 25, 64
7, 14320, Note_on_c, 1, 37, 82
7, 14344, Note_off_c, 1, 37, 64
7, 14400, Note_on_c, 1, 42, 85
7, 14800, Note_off_c, 1, 42, 64
7, 14800, Note_on_c, 1, 30, 55
7, 14838, Note_off_c, 1, 30, 64
7, 14880, Note_on_c, 1, 35, 85
7, 15280, Note_off_c, 1, 35, 64
7, 15280, Note_on_c, 1, 23, 55
7, 15318, Note_off_c, 1, 23, 64
7, 15360, Note_on_c, 1, 40, 76
7, 15776, Note_off_c, 1, 40, 64
7, 15776, Note_on_c, 1, 35, 78
7, 15840, Note_off_c, 1, 35, 64
7, 15840, Note_on_c, 1, 34, 81
7, 15966, Note_off_c, 1, 34, 64
7, 16016, Note_on_c, 1, 34, 71
7, 16080, Note_on_c, 1, 41, 73
7, 16096, Note_off_c, 1, 34, 64
7, 16320, Note_off_c, 1, 41, 64
7, 16320, Note_on_c, 1, 33, 85
7, 16720, Note_off_c, 1, 33, 64
7, 16720, Note_on_c, 1, 21, 55
7, 16758, Note_off_c, 1, 21, 64
7, 16800, Note_on_c, 1, 33, 82
7, 17280, Note_off_c, 1, 33, 64
7, 17280, Note_on_c, 1, 38, 76
7, 17520, Note_on_c, 1, 50, 59
7, 17538, Note_off_c, 1, 38, 64
7, 17760, Note_on_c, 1, 45, 71
7, 17788, Note_off_c, 1, 50, 64
7, 18000, Note_on_c, 1, 42, 77
7, 18006, Note_off_c, 1, 45, 64
7, 18240, Note_off_c, 1, 42, 64
7, 18240, Note_on_c, 1, 42, 84
7, 18416, Note_on_c, 1, 37, 60
7, 18456, Note_off_c, 1, 37, 64
7, 18470, Note_off_c, 1, 42, 64
7, 18480, Note_on_c, 1, 49, 77
7, 18656, Note_off_c, 1, 49, 64
7, 18656, Note_on_c, 1, 37, 62
7, 18690, Note_off_c, 1, 37, 64
7, 18720, Note_on_c, 1, 35, 77
7, 18848, Note_off_c, 1, 35, 64
7, 18898, Note_on_c, 1, 35, 70
7, 18960, Note_on_c, 1, 42, 63
7, 18968, Note_off_c, 1, 35, 64
7, 19200, Note_off_c, 1, 42, 64
7, 19200, Note_on_c, 1, 40, 77
7, 19328, Note_off_c, 1, 40, 64
7, 19378, Note_on_c, 1, 40, 70
7, 19440, Note_on_c, 1, 47, 63
7, 19448, Note_off_c, 1, 40, 64
7, 19680, Note_off_c, 1, 47, 64
7, 19680, Note_on_c, 1, 45, 68
7, 19756, Note_off_c, 1, 45, 64
7, 19862, Note_on_c, 1, 45, 54
7, 19930, Note_on_c, 1, 40, 75
7, 19938, Note_off_c, 1, 45, 64
7, 20160, Note_off_c, 1, 40, 64
7, 20160, Note_on_c, 1, 33, 84
7, 20336, Note_on_c, 1, 35, 60
7, 20376, Note_off_c, 1, 35, 64
7, 20390, Note_off_c, 1, 33, 64
7, 20400, Note_on_c, 1, 47, 77
7, 20576, Note_off_c, 1, 47, 64
7, 20576, Note_on_c, 1, 35, 62
7, 20610, Note_off_c, 1, 35, 64
7, 20640, Note_on_c, 1, 33, 71
7, 20880, Note_on_c, 1, 40, 70
7, 20924, Note_off_c, 1, 33, 64
7, 21120, Note_off_c, 1, 40, 64
7, 21120, Note_on_c, 1, 38, 69
7, 21268, Note_off_c, 1, 38, 64
7, 21296, Note_on_c, 1, 38, 81
7, 21348, Note_off_c, 1, 38, 64
7, 21360, Note_on_c, 1, 39, 62
7, 21600, Note_off_c, 1, 39, 64
7, 21600, Note_on_c, 1, 40, 69
7, 21748, Note_off_c, 1, 40, 64
7, 21776, Note_on_c, 1, 40, 81
7, 21828, Note_off_c, 1, 40, 64
7, 21840, Note_on_c, 1, 41, 62
7, 22080, Note_off_c, 1, 41, 64
7, 22080, Note_on_c, 1, 42, 71
7, 22320, Note_on_c, 1, 49, 70
7, 22364, Note_off_c, 1, 42, 64
7, 22560, Note_off_c, 1, 49, 64
7, 22560, Note_on_c, 1, 43, 73
7, 22788, Note_off_c, 1, 43, 64
7, 22800, Note_on_c, 1, 32, 67
7, 23040, Note_off_c, 1, 32, 64
7, 23040, Note_on_c, 1, 33, 74
7, 23198, Note_off_c, 1, 33, 64
7, 23216, Note_on_c, 1, 21, 82
7, 23262, Note_off_c, 1, 21, 64
7, 23280, Note_on_c, 1, 35, 74
7, 23518, Note_off_c, 1, 35, 64
7, 23520, Note_on_c, 1, 36, 54
7, 23760, Note_off_c, 1, 36, 64
7, 23760, Note_on_c, 1, 40, 67
7, 23928, Note_off_c, 1, 40, 64
7, 23936, Note_on_c, 1, 33, 72
7, 24000, Note_off_c, 1, 33, 64
7, 24000, Note_on_c, 1, 38, 87
7, 24178, Note_on_c, 1, 33, 30
7, 24202, Note_off_c, 1, 38, 64
7, 24240, Note_off_c, 1, 33, 64
7, 24240, Note_on_c, 1, 40, 81
7, 24480, Note_on_c, 1, 41, 83
7, 24514, Note_off_c, 1, 40, 64
7, 24658, Note_on_c, 1, 33, 56
7, 24684, Note_off_c, 1, 41, 64
7, 24708, Note_off_c, 1, 33, 64
7, 24720, Note_on_c, 1, 42, 87
7, 24946, Note_off_c, 1, 42, 64
7, 24960, Note_on_c, 1, 43, 71
7, 25200, Note_on_c, 1, 45, 73
7, 25240, Note_off_c, 1, 43, 64
7, 25440, Note_on_c, 1, 47, 68
7, 25462, Note_off_c, 1, 45, 64
7, 25680, Note_on_c, 1, 50, 69
7, 25720, Note_off_c, 1, 47, 64
7, 25920, Note_off_c, 1, 50, 64
7, 25920, Note_on_c, 1, 37, 31
7, 25920, Note_on_c, 1, 37, 71
7, 25921, Note_off_c, 1, 37, 64
7, 26160, Note_off_c, 1, 37, 64
7, 26160, Note_on_c, 1, 49, 80
7, 26240, Note_on_c, 1, 43, 64
7, 26288, Note_off_c, 1, 49, 64
7, 26320, Note_on_c, 1, 37, 79
7, 26360, Note_off_c, 1, 43, 64
7, 26400, Note_off_c, 1, 37, 64
7, 26400, Note_on_c, 1, 42, 78
7, 26568, Note_on_c, 1, 30, 55
7, 26616, Note_off_c, 1, 42, 64
7, 26632, Note_off_c, 1, 30, 64
7, 26640, Note_on_c, 1, 36, 78
7, 26880, Note_off_c, 1, 36, 64
7, 26880, Note_on_c, 1, 47, 68
7, 26956, Note_off_c, 1, 47, 64
7, 27062, Note_on_c, 1, 47, 54
7, 27130, Note_on_c, 1, 42, 75
7, 27138, Note_off_c, 1, 47, 64
7, 27360, Note_off_c, 1, 42, 64
7, 27360, Note_on_c, 1, 33, 78
7, 27528, Note_on_c, 1, 21, 55
7, 27576, Note_off_c, 1, 33, 64
7, 27592, Note_off_c, 1, 21, 64
7, 27600, Note_on_c, 1, 45, 78
7, 27840, Note_off_c, 1, 45, 64
7, 27840, Note_on_c, 1, 44, 72
7, 28016, Note_on_c, 1, 32, 65
7, 28022, Note_off_c, 1, 44, 64
7, 28078, Note_off_c, 1, 32, 64
7, 28080, Note_on_c, 1, 44, 74
7, 28318, Note_off_c, 1, 44, 64
7, 28320, Note_on_c, 1, 43, 64
7, 28522, Note_off_c, 1, 43, 64
7, 28560, Note_on_c, 1, 43, 79
7, 28800, Note_off_c, 1, 43, 64
7, 28800, Note_on_c, 1, 42, 73
7, 29028, Note_off_c, 1, 42, 64
7, 29040, Note_on_c, 1, 40, 67
7, 29280, Note_off_c, 1, 40, 64
7, 29280, Note_on_c, 1, 41, 72
7, 29456, Note_on_c, 1, 29, 65
7, 29462, Note_off_c, 1, 41, 64
7, 29518, Note_off_c, 1, 29, 64
7, 29520, Note_on_c, 1, 41, 74
7, 29758, Note_off_c, 1, 41, 64
7, 29760, Note_on_c, 1, 40, 73
7, 29988, Note_off_c, 1, 40, 64
7, 30000, Note_on_c, 1, 32, 67
7, 30240, Note_off_c, 1, 32, 64
7, 30240, Note_on_c, 1, 33, 67
7, 30480, Note_off_c, 1, 33, 64
7, 30480, Note_on_c, 1, 33, 74
7, 30720, Note_off_c, 1, 33, 64
7, 30720, Note_on_c, 1, 50, 79
7, 30920, Note_off_c, 1, 50, 64
7, 30960, Note_on_c, 1, 50, 83
7, 31200, Note_on_c, 1, 45, 76
7, 31228, Note_off_c, 1, 50, 64
7, 31440, Note_on_c, 1, 33, 68
7, 31460, Note_off_c, 1, 45, 64
7, 31680, Note_off_c, 1, 33, 64
7, 31680, Note_on_c, 1, 38, 62
7, 31920, Note_off_c, 1, 38, 64
7, 31920, Note_on_c, 1, 40, 75
7, 32048, Note_off_c, 1, 40, 64
7, 32096, Note_on_c, 1, 40, 76
7, 32164, Note_off_c, 1, 40, 64
7, 32164, Note_on_c, 1, 42, 60
7, 32392, Note_off_c, 1, 42, 64
7, 32400, Note_on_c, 1, 45, 69
7, 32628, Note_off_c, 1, 45, 64
7, 32640, Note_on_c, 1, 38, 76
7, 32880, Note_on_c, 1, 50, 59
7, 32898, Note_off_c, 1, 38, 64
7, 33120, Note_on_c, 1, 45, 71
7, 33148, Note_off_c, 1, 50, 64
7, 33360, Note_on_c, 1, 42, 77
7, 33366, Note_off_c, 1, 45, 64
7, 33600, Note_off_c, 1, 42, 64
7, 33600, Note_on_c, 1, 42, 72
7, 33776, Note_on_c, 1, 30, 65
7, 33782, Note_off_c, 1, 42, 64
7, 33838, Note_off_c, 1, 30, 64
7, 33840, Note_on_c, 1, 42, 74
7, 34078, Note_off_c, 1, 42, 64
7, 34080, Note_on_c, 1, 35, 71
7, 34320, Note_on_c, 1, 42, 70
7, 34364, Note_off_c, 1, 35, 64
7, 34560, Note_off_c, 1, 42, 64
7, 34560, Note_on_c, 1, 40, 67
7, 34800, Note_off_c, 1, 40, 64
7, 34800, Note_on_c, 1, 34, 74
7, 35040, Note_off_c, 1, 34, 64
7, 35040, Note_on_c, 1, 33, 73
7, 35268, Note_off_c, 1, 33, 64
7, 35280, Note_on_c, 1, 39, 67
7, 35520, Note_off_c, 1, 39, 64
7, 35520, Note_on_c, 1, 33, 77
7, 35648, Note_off_c, 1, 33, 64
7, 35698, Note_on_c, 1, 33, 70
7, 35760, Note_on_c, 1, 47, 63
7, 35768, Note_off_c, 1, 33, 64
7, 36000, Note_off_c, 1, 47, 64
7, 36000, Note_on_c, 1, 33, 72
7, 36176, Note_on_c, 1, 21, 65
7, 36182, Note_off_c, 1, 33, 64
7, 36238, Note_off_c, 1, 21, 64
7, 36240, Note_on_c, 1, 33, 74
7, 36478, Note_off_c, 1, 33, 64
7, 36480, Note_on_c, 1, 38, 71
7, 36720, Note_on_c, 1, 45, 70
7, 36764, Note_off_c, 1, 38, 64
7, 36960, Note_off_c, 1, 45, 64
7, 36960, Note_on_c, 1, 40, 72
7, 37136, Note_on_c, 1, 28, 65
7, 37142, Note_off_c, 1, 40, 64
7, 37198, Note_off_c, 1, 28, 64
7, 37200, Note_on_c, 1, 40, 74
7, 37438, Note_off_c, 1, 40, 64
7, 37440, Note_on_c, 1, 42, 64
7, 37642, Note_off_c, 1, 42, 64
7, 37680, Note_on_c, 1, 42, 79
7, 37920, Note_off_c, 1, 42, 64
7, 37920, Note_on_c, 1, 43, 72
7, 38096, Note_on_c, 1, 31, 65
7, 38102, Note_off_c, 1, 43, 64
7, 38158, Note_off_c, 1, 31, 64
7, 38160, Note_on_c, 1, 43, 74
7, 38398, Note_off_c, 1, 43, 64
7, 38400, Note_on_c, 1, 33, 70
7, 38534, Note_off_c, 1, 33, 64
7, 38576, Note_on_c, 1, 21, 77
7, 38628, Note_off_c, 1, 21, 64
7, 38640, Note_on_c, 1, 31, 62
7, 38876, Note_off_c, 1, 31, 64
7, 38880, Note_on_c, 1, 30, 68
7, 39120, Note_on_c, 1, 28, 64
7, 39136, Note_off_c, 1, 30, 64
7, 39296, Note_on_c, 1, 39, 79
7, 39334, Note_off_c, 1, 28, 64
7, 39360, Note_off_c, 1, 39, 64
7, 39360, Note_on_c, 1, 50, 73
7, 39600, Note_on_c, 1, 38, 67
7, 39638, Note_off_c, 1, 50, 64
7, 39840, Note_on_c, 1, 42, 71
7, 39858, Note_off_c, 1, 38, 64
7, 40080, Note_on_c, 1, 45, 69
7, 40096, Note_off_c, 1, 42, 64
7, 40320, Note_off_c, 1, 45, 64
7, 40320, Note_on_c, 1, 43, 69
7, 40560, Note_off_c, 1, 43, 64
7, 40560, Note_on_c, 1, 50, 68
7, 40802, Note_off_c, 1, 50, 64
7, 40802, Note_on_c, 1, 47, 63
7, 41044, Note_off_c, 1, 47, 64
7, 41044, Note_on_c, 1, 43, 81
7, 41280, Note_off_c, 1, 43, 64
7, 41280, Note_on_c, 1, 44, 67
7, 41520, Note_off_c, 1, 44, 64
7, 41520, Note_on_c, 1, 44, 74
7, 41760, Note_off_c, 1, 44, 64
7, 41760, Note_on_c, 1, 37, 84
7, 41936, Note_on_c, 1, 32, 60
7, 41976, Note_off_c, 1, 32, 64
7, 41990, Note_off_c, 1, 37, 64
7, 42000, Note_on_c, 1, 44, 77
7, 42176, Note_off_c, 1, 44, 64
7, 42176, Note_on_c, 1, 32, 62
7, 42210, Note_off_c, 1, 32, 64
7, 42240, Note_on_c, 1, 42, 67
7, 42480, Note_off_c, 1, 42, 64
7, 42480, Note_on_c, 1, 42, 74
7, 42720, Note_off_c, 1, 42, 64
7, 42720, Note_on_c, 1, 35, 64
7, 42922, Note_off_c, 1, 35, 64
7, 42960, Note_on_c, 1, 35, 79
7, 43200, Note_off_c, 1, 35, 64
7, 43200, Note_on_c, 1, 33, 71
7, 43440, Note_on_c, 1, 40, 70
7, 43484, Note_off_c, 1, 33, 64
7, 43680, Note_off_c, 1, 40, 64
7, 43680, Note_on_c, 1, 50, 68
7, 43756, Note_off_c, 1, 50, 64
7, 43862, Note_on_c, 1, 50, 54
7, 43930, Note_on_c, 1, 45, 75
7, 43938, Note_off_c, 1, 50, 64
7, 44160, Note_off_c, 1, 45, 64
7, 44160, Note_on_c, 1, 43, 71
7, 44400, Note_on_c, 1, 50, 70
7, 44444, Note_off_c, 1, 43, 64
7, 44640, Note_off_c, 1, 50, 64
7, 44640, Note_on_c, 1, 37, 73
7, 44868, Note_off_c, 1, 37, 64
7, 44880, Note_on_c, 1, 41, 67
7, 45120, Note_off_c, 1, 41, 64
7, 45120, Note_on_c, 1, 42, 84
7, 45296, Note_on_c, 1, 37, 60
7, 45336, Note_off_c, 1, 37, 64
7, 45350, Note_off_c, 1, 42, 64
7, 45360, Note_on_c, 1, 49, 77
7, 45536, Note_off_c, 1, 49, 64
7, 45536, Note_on_c, 1, 37, 62
7, 45570, Note_off_c, 1, 37, 64
7, 45600, Note_on_c, 1, 35, 71
7, 45840, Note_on_c, 1, 42, 70
7, 45884, Note_off_c, 1, 35, 64
7, 46080, Note_off_c, 1, 42, 64
7, 46080, Note_on_c, 1, 40, 64
7, 46282, Note_off_c, 1, 40, 64
7, 46320, Note_on_c, 1, 40, 79
7, 46560, Note_off_c, 1, 40, 64
7, 46560, Note_on_c, 1, 46, 68
7, 46636, Note_off_c, 1, 46, 64
7, 46742, Note_on_c, 1, 46, 54
7, 46810, Note_on_c, 1, 41, 75
7, 46818, Note_off_c, 1, 46, 64
7, 47040, Note_off_c, 1, 41, 64
7, 47040, Note_on_c, 1, 45, 68
7, 47116, Note_off_c, 1, 45, 64
7, 47222, Note_on_c, 1, 45, 54
7, 47290, Note_on_c, 1, 40, 75
7, 47298, Note_off_c, 1, 45, 64
7, 47520, Note_off_c, 1, 40, 64
7, 47520, Note_on_c, 1, 33, 72
7, 47760, Note_on_c, 1, 37, 69
7, 47790, Note_off_c, 1, 33, 64
7, 47978, Note_off_c, 1, 37, 64
7, 48000, Note_on_c, 1, 38, 76
7, 48240, Note_on_c, 1, 50, 59
7, 48258, Note_off_c, 1, 38, 64
7, 48480, Note_on_c, 1, 45, 71
7, 48508, Note_off_c, 1, 50, 64
7, 48720, Note_on_c, 1, 42, 77
7, 48726, Note_off_c, 1, 45, 64
7, 48960, Note_off_c, 1, 42, 64
7, 48960, Note_on_c, 1, 42, 77
7, 49088, Note_off_c, 1, 42, 64
7, 49138, Note_on_c, 1, 42, 70
7, 49200, Note_on_c, 1, 49, 63
7, 49208, Note_off_c, 1, 42, 64
7, 49440, Note_off_c, 1, 49, 64
7, 49440, Note_on_c, 1, 47, 83
7, 49520, Note_on_c, 1, 42, 60
7, 49548, Note_off_c, 1, 47, 64
7, 49600, Note_on_c, 1, 39, 62
7, 49620, Note_off_c, 1, 42, 64
7, 49680, Note_off_c, 1, 39, 64
7, 49680, Note_on_c, 1, 35, 76
7, 49920, Note_off_c, 1, 35, 64
7, 49920, Note_on_c, 1, 40, 64
7, 50122, Note_off_c, 1, 40, 64
7, 50160, Note_on_c, 1, 40, 79
7, 50400, Note_off_c, 1, 40, 64
7, 50400, Note_on_c, 1, 33, 67
7, 50640, Note_off_c, 1, 33, 64
7, 50640, Note_on_c, 1, 33, 74
7, 50880, Note_off_c, 1, 33, 64
7, 50880, Note_on_c, 1, 33, 64
7, 51082, Note_off_c, 1, 33, 64
7, 51120, Note_on_c, 1, 33, 79
7, 51360, Note_off_c, 1, 33, 64
7, 51360, Note_on_c, 1, 33, 84
7, 51536, Note_on_c, 1, 28, 60
7, 51576, Note_off_c, 1, 28, 64
7, 51590, Note_off_c, 1, 33, 64
7, 51600, Note_on_c, 1, 40, 77
7, 51776, Note_off_c, 1, 40, 64
7, 51776, Note_on_c, 1, 28, 62
7, 51810, Note_off_c, 1, 28, 64
7, 51840, Note_on_c, 1, 38, 73
7, 52068, Note_off_c, 1, 38, 64
7, 52080, Note_on_c, 1, 39, 67
7, 52320, Note_off_c, 1, 39, 64
7, 52320, Note_on_c, 1, 40, 78
7, 52488, Note_on_c, 1, 28, 55
7, 52536, Note_off_c, 1, 40, 64
7, 52552, Note_off_c, 1, 28, 64
7, 52560, Note_on_c, 1, 43, 78
7, 52800, Note_off_c, 1, 43, 64
7, 52800, Note_on_c, 1, 42, 71
7, 53040, Note_on_c, 1, 49, 70
7, 53084, Note_off_c, 1, 42, 64
7, 53280, Note_off_c, 1, 49, 64
7, 53280, Note_on_c, 1, 43, 71
7, 53520, Note_on_c, 1, 50, 70
7, 53564, Note_off_c, 1, 43, 64
7, 53760, Note_off_c, 1, 50, 64
7, 53760, Note_on_c, 1, 33, 76
7, 54000, Note_off_c, 1, 33, 64
7, 54000, Note_on_c, 1, 35, 65
7, 54240, Note_off_c, 1, 35, 64
7, 54240, Note_on_c, 1, 36, 60
7, 54480, Note_off_c, 1, 36, 64
7, 54480, Note_on_c, 1, 40, 78
7, 54648, Note_off_c, 1, 40, 64
7, 54648, Note_on_c, 1, 39, 71
7, 54720, Note_off_c, 1, 39, 64
7, 54720, Note_on_c, 1, 38, 76
7, 54960, Note_on_c, 1, 50, 59
7, 54978, Note_off_c, 1, 38, 64
7, 55200, Note_on_c, 1, 45, 71
7, 55228, Note_off_c, 1, 50, 64
7, 55440, Note_on_c, 1, 42, 77
7, 55446, Note_off_c, 1, 45, 64
7, 55680, Note_off_c, 1, 42, 64
7, 55680, Note_on_c, 1, 43, 69
7, 55920, Note_on_c, 1, 50, 67
7, 55964, Note_off_c, 1, 43, 64
7, 56160, Note_on_c, 1, 55, 73
7, 56178, Note_off_c, 1, 50, 64
7, 56400, Note_on_c, 1, 50, 84
7, 56410, Note_off_c, 1, 55, 64
7, 56568, Note_on_c, 1, 38, 60
7, 56582, Note_off_c, 1, 50, 64
7, 56640, Note_off_c, 1, 38, 64
7, 56640, Note_on_c, 1, 37, 71
7, 56880, Note_on_c, 1, 43, 70
7, 56924, Note_off_c, 1, 37, 64
7, 57120, Note_off_c, 1, 43, 64
7, 57120, Note_on_c, 1, 42, 78
7, 57288, Note_on_c, 1, 30, 55
7, 57336, Note_off_c, 1, 42, 64
7, 57352, Note_off_c, 1, 30, 64
7, 57360, Note_on_c, 1, 36, 78
7, 57600, Note_off_c, 1, 36, 64
7, 57600, Note_on_c, 1, 35, 84
7, 57776, Note_on_c, 1, 30, 60
7, 57816, Note_off_c, 1, 30, 64
7, 57830, Note_off_c, 1, 35, 64
7, 57840, Note_on_c, 1, 42, 77
7, 58016, Note_off_c, 1, 42, 64
7, 58016, Note_on_c, 1, 30, 62
7, 58050, Note_off_c, 1, 30, 64
7, 58080, Note_on_c, 1, 45, 68
7, 58156, Note_off_c, 1, 45, 64
7, 58262, Note_on_c, 1, 45, 54
7, 58330, Note_on_c, 1, 42, 75
7, 58338, Note_off_c, 1, 45, 64
7, 58560, Note_off_c, 1, 42, 64
7, 58560, Note_on_c, 1, 44, 77
7, 58688, Note_off_c, 1, 44, 64
7, 58738, Note_on_c, 1, 44, 70
7, 58800, Note_on_c, 1, 50, 63
7, 58808, Note_off_c, 1, 44, 64
7, 59040, Note_off_c, 1, 50, 64
7, 59040, Note_on_c, 1, 43, 67
7, 59280, Note_off_c, 1, 43, 64
7, 59280, Note_on_c, 1, 39, 74
7, 59520, Note_off_c, 1, 39, 64
7, 59520, Note_on_c, 1, 42, 73
7, 59748, Note_off_c, 1, 42, 64
7, 59760, Note_on_c, 1, 40, 67
7, 60000, Note_off_c, 1, 40, 64
7, 60000, Note_on_c, 1, 41, 69
7, 60148, Note_off_c, 1, 41, 64
7, 60176, Note_on_c, 1, 41, 81
7, 60228, Note_off_c, 1, 41, 64
7, 60240, Note_on_c, 1, 39, 62
7, 60480, Note_off_c, 1, 39, 64
7, 60480, Note_on_c, 1, 40, 69
7, 60628, Note_off_c, 1, 40, 64
7, 60656, Note_on_c, 1, 40, 81
7, 60708, Note_off_c, 1, 40, 64
7, 60720, Note_on_c, 1, 32, 62
7, 60960, Note_off_c, 1, 32, 64
7, 60960, Note_on_c, 1, 45, 71
7, 61200, Note_on_c, 1, 41, 70
7, 61230, Note_off_c, 1, 45, 64
7, 61440, Note_off_c, 1, 41, 64
7, 61440, Note_on_c, 1, 50, 79
7, 61640, Note_off_c, 1, 50, 64
7, 61680, Note_on_c, 1, 50, 83
7, 61920, Note_on_c, 1, 45, 76
7, 61948, Note_off_c, 1, 50, 64
7, 62160, Note_on_c, 1, 33, 68
7, 62180, Note_off_c, 1, 45, 64
7, 62400, Note_off_c, 1, 33, 64
7, 62400, Note_on_c, 1, 38, 62
7, 62640, Note_off_c, 1, 38, 64
7, 62640, Note_on_c, 1, 40, 75
7, 62768, Note_off_c, 1, 40, 64
7, 62816, Note_on_c, 1, 40, 76
7, 62884, Note_off_c, 1, 40, 64
7, 62884, Note_on_c, 1, 42, 60
7, 63112, Note_off_c, 1, 42, 64
7, 63120, Note_on_c, 1, 45, 69
7, 63348, Note_off_c, 1, 45, 64
7, 63360, Note_on_c, 1, 38, 82
7, 63840, Note_on_c, 1, 45, 85
7, 63858, Note_off_c, 1, 38, 64
7, 64256, Note_off_c, 1, 45, 64
7, 64256, Note_on_c, 1, 38, 82
7, 64300, Note_off_c, 1, 38, 64
7, 64320, Note_on_c, 1, 42, 82
7, 64800, Note_off_c, 1, 42, 64
7, 64800, Note_on_c, 1, 35, 82
7, 65280, Note_off_c, 1, 35, 64
7, 65280, Note_on_c, 1, 40, 82
7, 65760, Note_off_c, 1, 40, 64
7, 65760, Note_on_c, 1, 33, 70
7, 66240, Note_off_c, 1, 33, 64
7, 66240, Note_on_c, 1, 33, 70
7, 66720, Note_off_c, 1, 33, 64
7, 66720, Note_on_c, 1, 33, 73
7, 67136, Note_off_c, 1, 33, 64
7, 67136, Note_on_c, 1, 40, 68
7, 67200, Note_off_c, 1, 40, 64
7, 67200, Note_on_c, 1, 38, 82
7, 67680, Note_off_c, 1, 38, 64
7, 67680, Note_on_c, 1, 40, 85
7, 68000, Note_on_c, 1, 28, 47
7, 68020, Note_off_c, 1, 40, 64
7, 68054, Note_off_c, 1, 28, 64
7, 68080, Note_on_c, 1, 40, 82
7, 68104, Note_off_c, 1, 40, 64
7, 68160, Note_on_c, 1, 42, 81
7, 68286, Note_off_c, 1, 42, 64
7, 68336, Note_on_c, 1, 42, 71
7, 68400, Note_on_c, 1, 49, 73
7, 68416, Note_off_c, 1, 42, 64
7, 68640, Note_off_c, 1, 49, 64
7, 68640, Note_on_c, 1, 43, 80
7, 69028, Note_off_c, 1, 43, 64
7, 69056, Note_on_c, 1, 32, 81
7, 69120, Note_off_c, 1, 32, 64
7, 69120, Note_on_c, 1, 33, 89
7, 69614, Note_off_c, 1, 33, 64
7, 69614, Note_on_c, 1, 40, 82
7, 70036, Note_off_c, 1, 40, 64
7, 70080, Note_on_c, 1, 38, 89
7, 70574, Note_off_c, 1, 38, 64
7, 70574, Note_on_c, 1, 45, 82
7, 70996, Note_off_c, 1, 45, 64
7, 71040, Note_on_c, 1, 43, 78
7, 71510, Note_off_c, 1, 43, 64
7, 71520, Note_on_c, 1, 38, 82
7, 71936, Note_on_c, 1, 31, 60
7, 71950, Note_off_c, 1, 38, 64
7, 71958, Note_off_c, 1, 31, 64
7, 72000, Note_on_c, 1, 44, 85
7, 72400, Note_off_c, 1, 44, 64
7, 72400, Note_on_c, 1, 32, 55
7, 72438, Note_off_c, 1, 32, 64
7, 72480, Note_on_c, 1, 37, 73
7, 72896, Note_off_c, 1, 37, 64
7, 72896, Note_on_c, 1, 44, 68
7, 72960, Note_off_c, 1, 44, 64
7, 72960, Note_on_c, 1, 42, 82
7, 73440, Note_off_c, 1, 42, 64
7, 73440, Note_on_c, 1, 35, 80
7, 73828, Note_off_c, 1, 35, 64
7, 73856, Note_on_c, 1, 32, 81
7, 73920, Note_off_c, 1, 32, 64
7, 73920, Note_on_c, 1, 33, 86
7, 74240, Note_on_c, 1, 35, 80
7, 74252, Note_off_c, 1, 33, 64
7, 74320, Note_on_c, 1, 36, 90
7, 74326, Note_off_c, 1, 35, 64
7, 74400, Note_off_c, 1, 36, 64
7, 74400, Note_on_c, 1, 38, 70
7, 74880, Note_off_c, 1, 38, 64
7, 74880, Note_on_c, 1, 43, 85
7, 75280, Note_off_c, 1, 43, 64
7, 75280, Note_on_c, 1, 31, 55
7, 75318, Note_off_c, 1, 31, 64
7, 75360, Note_on_c, 1, 37, 82
7, 75840, Note_off_c, 1, 37, 64
7, 75840, Note_on_c, 1, 42, 82
7, 76320, Note_off_c, 1, 42, 64
7, 76320, Note_on_c, 1, 35, 82
7, 76800, Note_off_c, 1, 35, 64
7, 76800, Note_on_c, 1, 40, 82
7, 77280, Note_off_c, 1, 40, 64
7, 77280, Note_on_c, 1, 34, 85
7, 77680, Note_off_c, 1, 34, 64
7, 77680, Note_on_c, 1, 22, 55
7, 77718, Note_off_c, 1, 22, 64
7, 77760, Note_on_c, 1, 33, 76
7, 78176, Note_off_c, 1, 33, 64
7, 78176, Note_on_c, 1, 34, 78
7, 78240, Note_off_c, 1, 34, 64
7, 78240, Note_on_c, 1, 33, 80
7, 78628, Note_off_c, 1, 33, 64
7, 78656, Note_on_c, 1, 37, 81
7, 78720, Note_off_c, 1, 37, 64
7, 78720, Note_on_c, 1, 38, 71
7, 78960, Note_on_c, 1, 40, 73
7, 79000, Note_off_c, 1, 38, 64
7, 79200, Note_on_c, 1, 42, 68
7, 79222, Note_off_c, 1, 40, 64
7, 79440, Note_on_c, 1, 45, 69
7, 79480, Note_off_c, 1, 42, 64
7, 79680, Note_off_c, 1, 45, 64
7, 79680, Note_on_c, 1, 42, 78
7, 79848, Note_on_c, 1, 30, 55
7, 79896, Note_off_c, 1, 42, 64
7, 79912, Note_off_c, 1, 30, 64
7, 79920, Note_on_c, 1, 36, 78
7, 80160, Note_off_c, 1, 36, 64
7, 80160, Note_on_c, 1, 35, 69
7, 80308, Note_off_c, 1, 35, 64
7, 80336, Note_on_c, 1, 35, 81
7, 80388, Note_off_c, 1, 35, 64
7, 80400, Note_on_c, 1, 39, 62
7, 80640, Note_off_c, 1, 39, 64
7, 80640, Note_on_c, 1, 40, 72
7, 80816, Note_on_c, 1, 28, 65
7, 80822, Note_off_c, 1, 40, 64
7, 80878, Note_off_c, 1, 28, 64
7, 80880, Note_on_c, 1, 40, 74
7, 81118, Note_off_c, 1, 40, 64
7, 81120, Note_on_c, 1, 45, 83
7, 81200, Note_on_c, 1, 40, 60
7, 81228, Note_off_c, 1, 45, 64
7, 81280, Note_on_c, 1, 37, 62
7, 81300, Note_off_c, 1, 40, 64
7, 81360, Note_off_c, 1, 37, 64
7, 81360, Note_on_c, 1, 33, 76
7, 81600, Note_off_c, 1, 33, 64
7, 81600, Note_on_c, 1, 33, 69
7, 81748, Note_off_c, 1, 33, 64
7, 81776, Note_on_c, 1, 33, 81
7, 81828, Note_off_c, 1, 33, 64
7, 81840, Note_on_c, 1, 32, 62
7, 82080, Note_off_c, 1, 32, 64
7, 82080, Note_on_c, 1, 33, 72
7, 82320, Note_on_c, 1, 37, 69
7, 82350, Note_off_c, 1, 33, 64
7, 82538, Note_off_c, 1, 37, 64
7, 82560, Note_on_c, 1, 38, 73
7, 82788, Note_off_c, 1, 38, 64
7, 82800, Note_on_c, 1, 39, 67
7, 83040, Note_off_c, 1, 39, 64
7, 83040, Note_on_c, 1, 40, 73
7, 83268, Note_off_c, 1, 40, 64
7, 83280, Note_on_c, 1, 41, 67
7, 83520, Note_off_c, 1, 41, 64
7, 83520, Note_on_c, 1, 42, 84
7, 83696, Note_on_c, 1, 37, 60
7, 83736, Note_off_c, 1, 37, 64
7, 83750, Note_off_c, 1, 42, 64
7, 83760, Note_on_c, 1, 49, 77
7, 83936, Note_off_c, 1, 49, 64
7, 83936, Note_on_c, 1, 37, 62
7, 83970, Note_off_c, 1, 37, 64
7, 84000, Note_on_c, 1, 43, 84
7, 84176, Note_on_c, 1, 38, 60
7, 84216, Note_off_c, 1, 38, 64
7, 84230, Note_off_c, 1, 43, 64
7, 84240, Note_on_c, 1, 50, 77
7, 84416, Note_off_c, 1, 50, 64
7, 84416, Note_on_c, 1, 38, 62
7, 84450, Note_off_c, 1, 38, 64
7, 84480, Note_on_c, 1, 33, 71
7, 84720, Note_on_c, 1, 35, 73
7, 84760, Note_off_c, 1, 33, 64
7, 84960, Note_on_c, 1, 36, 68
7, 84982, Note_off_c, 1, 35, 64
7, 85200, Note_on_c, 1, 40, 69
7, 85240, Note_off_c, 1, 36, 64
7, 85440, Note_off_c, 1, 40, 64
7, 85440, Note_on_c, 1, 38, 85
7, 85528, Note_off_c, 1, 38, 64
7, 85618, Note_on_c, 1, 38, 73
7, 85680, Note_on_c, 1, 40, 64
7, 85722, Note_off_c, 1, 38, 64
7, 85920, Note_off_c, 1, 40, 64
7, 85920, Note_on_c, 1, 42, 75
7, 86158, Note_off_c, 1, 42, 64
7, 86160, Note_on_c, 1, 45, 67
7, 86400, Note_off_c, 1, 45, 64
7, 86400, Note_on_c, 1, 43, 71
7, 86640, Note_on_c, 1, 45, 73
7, 86680, Note_off_c, 1, 43, 64
7, 86880, Note_on_c, 1, 47, 68
7, 86902, Note_off_c, 1, 45, 64
7, 87120, Note_on_c, 1, 50, 69
7, 87160, Note_off_c, 1, 47, 64
7, 87360, Note_off_c, 1, 50, 64
7, 87360, Note_on_c, 1, 37, 73
7, 87588, Note_off_c, 1, 37, 64
7, 87600, Note_on_c, 1, 41, 67
7, 87840, Note_off_c, 1, 41, 64
7, 87840, Note_on_c, 1, 42, 67
7, 88080, Note_off_c, 1, 42, 64
7, 88080, Note_on_c, 1, 36, 74
7, 88320, Note_off_c, 1, 36, 64
7, 88320, Note_on_c, 1, 35, 73
7, 88548, Note_off_c, 1, 35, 64
7, 88560, Note_on_c, 1, 34, 67
7, 88800, Note_off_c, 1, 34, 64
7, 88800, Note_on_c, 1, 33, 64
7, 89002, Note_off_c, 1, 33, 64
7, 89040, Note_on_c, 1, 33, 79
7, 89280, Note_off_c, 1, 33, 64
7, 89280, Note_on_c, 1, 44, 69
7, 89428, Note_off_c, 1, 44, 64
7, 89456, Note_on_c, 1, 44, 81
7, 89508, Note_off_c, 1, 44, 64
7, 89520, Note_on_c, 1, 42, 62
7, 89760, Note_off_c, 1, 42, 64
7, 89760, Note_on_c, 1, 43, 73
7, 89988, Note_off_c, 1, 43, 64
7, 90000, Note_on_c, 1, 37, 67
7, 90240, Note_off_c, 1, 37, 64
7, 90240, Note_on_c, 1, 54, 71
7, 90480, Note_on_c, 1, 45, 70
7, 90510, Note_off_c, 1, 54, 64
7, 90720, Note_off_c, 1, 45, 64
7, 90720, Note_on_c, 1, 41, 77
7, 90848, Note_off_c, 1, 41, 64
7, 90898, Note_on_c, 1, 41, 70
7, 90960, Note_on_c, 1, 47, 63
7, 90968, Note_off_c, 1, 41, 64
7, 91200, Note_off_c, 1, 47, 64
7, 91200, Note_on_c, 1, 40, 67
7, 91440, Note_off_c, 1, 40, 64
7, 91440, Note_on_c, 1, 40, 74
7, 91680, Note_off_c, 1, 40, 64
7, 91680, Note_on_c, 1, 33, 84
7, 91856, Note_on_c, 1, 29, 60
7, 91896, Note_off_c, 1, 29, 64
7, 91910, Note_off_c, 1, 33, 64
7, 91920, Note_on_c, 1, 41, 77
7, 92096, Note_off_c, 1, 41, 64
7, 92096, Note_on_c, 1, 29, 62
7, 92130, Note_off_c, 1, 29, 64
7, 92160, Note_on_c, 1, 50, 73
7, 92400, Note_on_c, 1, 38, 67
7, 92438, Note_off_c, 1, 50, 64
7, 92640, Note_on_c, 1, 42, 71
7, 92658, Note_off_c, 1, 38, 64
7, 92880, Note_on_c, 1, 45, 69
7, 92896, Note_off_c, 1, 42, 64
7, 93120, Note_off_c, 1, 45, 64
7, 93120, Note_on_c, 1, 38, 71
7, 93360, Note_on_c, 1, 40, 73
7, 93400, Note_off_c, 1, 38, 64
7, 93600, Note_on_c, 1, 42, 68
7, 93622, Note_off_c, 1, 40, 64
7, 93840, Note_on_c, 1, 45, 69
7, 93880, Note_off_c, 1, 42, 64
7, 94080, Note_off_c, 1, 45, 64
7, 94080, Note_on_c, 1, 38, 80
7, 94560, Note_on_c, 1, 45, 76
7, 94592, Note_off_c, 1, 38, 64
7, 94880, Note_off_c, 1, 45, 64
7, 94978, Note_on_c, 1, 45, 69
7, 95040, Note_on_c, 1, 50, 82
7, 95084, Note_off_c, 1, 45, 64
7, 95406, Note_off_c, 1, 50, 64
7, 95458, Note_on_c, 1, 38, 74
7, 96000, Note_off_c, 1, 38, 64
7, 96000, End_track
8, 0, Start_track
8, 0, Title_t, "Piano / Rhodes electric"
8, 0, Control_c, 2, 0, 0
8, 0, Control_c, 2, 32, 0
8, 0, Program_c, 2, 0
8, 0, Control_c, 2, 7, 80
8, 0, Control_c, 2, 10, 64
8, 0, Control_c, 2, 123, 0
8, 0, Control_c, 2, 91, 50
8, 0, Control_c, 2, 93, 10
8, 0, Control_c, 2, 64, 0
8, 1920, Note_on_c, 2, 61, 60
8, 1920, Note_on_c, 2, 64, 60
8, 1920, Note_on_c, 2, 54, 60
8, 1920, Note_on_c, 2, 57, 60
8, 2880, Note_off_c, 2, 57, 64
8, 2880, Note_off_c, 2, 54, 64
8, 2880, Note_off_c, 2, 64, 64
8, 2880, Note_off_c, 2, 61, 64
8, 2880, Note_on_c, 2, 52, 60
8, 2880, Note_on_c, 2, 54, 60
8, 2880, Note_on_c, 2, 57, 60
8, 2880, Note_on_c, 2, 61, 60
8, 3360, Note_off_c, 2, 61, 64
8, 3360, Note_off_c, 2, 57, 64
8, 3360, Note_off_c, 2, 54, 64
8, 3360, Note_off_c, 2, 52, 64
8, 3360, Note_on_c, 2, 57, 60
8, 3360, Note_on_c, 2, 72, 60
8, 3360, Note_on_c, 2, 63, 60
8, 3360, Note_on_c, 2, 67, 60
8, 3750, Note_off_c, 2, 67, 64
8, 3750, Note_off_c, 2, 63, 64
8, 3750, Note_off_c, 2, 72, 64
8, 3750, Note_off_c, 2, 57, 64
8, 3770, Note_on_c, 2, 62, 60
8, 3770, Note_on_c, 2, 66, 60
8, 3770, Note_on_c, 2, 55, 60
8, 3770, Note_on_c, 2, 71, 60
8, 4316, Note_off_c, 2, 71, 64
8, 4316, Note_off_c, 2, 55, 64
8, 4316, Note_off_c, 2, 66, 64
8, 4316, Note_off_c, 2, 62, 64
8, 4320, Note_on_c, 2, 55, 60
8, 4320, Note_on_c, 2, 71, 60
8, 4320, Note_on_c, 2, 61, 60
8, 4320, Note_on_c, 2, 66, 60
8, 4800, Note_off_c, 2, 66, 64
8, 4800, Note_off_c, 2, 61, 64
8, 4800, Note_off_c, 2, 71, 64
8, 4800, Note_off_c, 2, 55, 64
8, 4800, Note_on_c, 2, 62, 60
8, 4800, Note_on_c, 2, 66, 60
8, 4800, Note_on_c, 2, 55, 60
8, 4800, Note_on_c, 2, 71, 60
8, 5280, Note_off_c, 2, 71, 64
8, 5280, Note_off_c, 2, 55, 64
8, 5280, Note_off_c, 2, 66, 64
8, 5280, Note_off_c, 2, 62, 64
8, 5280, Note_on_c, 2, 55, 60
8, 5280, Note_on_c, 2, 70, 60
8, 5280, Note_on_c, 2, 61, 60
8, 5280, Note_on_c, 2, 65, 60
8, 5670, Note_off_c, 2, 65, 64
8, 5670, Note_off_c, 2, 61, 64
8, 5670, Note_off_c, 2, 70, 64
8, 5670, Note_off_c, 2, 55, 64
8, 5690, Note_on_c, 2, 61, 60
8, 5690, Note_on_c, 2, 64, 60
8, 5690, Note_on_c, 2, 54, 60
8, 5690, Note_on_c, 2, 69, 60
8, 6236, Note_off_c, 2, 69, 64
8, 6236, Note_off_c, 2, 54, 64
8, 6236, Note_off_c, 2, 64, 64
8, 6236, Note_off_c, 2, 61, 64
8, 6240, Note_on_c, 2, 62, 60
8, 6240, Note_on_c, 2, 64, 60
8, 6240, Note_on_c, 2, 55, 60
8, 6240, Note_on_c, 2, 71, 60
8, 6720, Note_off_c, 2, 71, 64
8, 6720, Note_off_c, 2, 55, 64
8, 6720, Note_off_c, 2, 64, 64
8, 6720, Note_off_c, 2, 62, 64
8, 6720, Note_on_c, 2, 64, 60
8, 6720, Note_on_c, 2, 66, 60
8, 6720, Note_on_c, 2, 57, 60
8, 6720, Note_on_c, 2, 61, 60
8, 7200, Note_off_c, 2, 61, 64
8, 7200, Note_off_c, 2, 57, 64
8, 7200, Note_off_c, 2, 66, 64
8, 7200, Note_off_c, 2, 64, 64
8, 7200, Note_on_c, 2, 66, 60
8, 7200, Note_on_c, 2, 69, 60
8, 7200, Note_on_c, 2, 59, 60
8, 7200, Note_on_c, 2, 74, 60
8, 7680, Note_off_c, 2, 74, 64
8, 7680, Note_off_c, 2, 59, 64
8, 7680, Note_off_c, 2, 69, 64
8, 7680, Note_off_c, 2, 66, 64
8, 7680, Note_on_c, 2, 55, 60
8, 7680, Note_on_c, 2, 69, 60
8, 7680, Note_on_c, 2, 60, 60
8, 7680, Note_on_c, 2, 64, 60
8, 8640, Note_off_c, 2, 64, 64
8, 8640, Note_off_c, 2, 60, 64
8, 8640, Note_off_c, 2, 69, 64
8, 8640, Note_off_c, 2, 55, 64
8, 8640, Note_on_c, 2, 60, 60
8, 8640, Note_on_c, 2, 64, 60
8, 8640, Note_on_c, 2, 54, 60
8, 8640, Note_on_c, 2, 71, 60
8, 9600, Note_off_c, 2, 71, 64
8, 9600, Note_off_c, 2, 54, 64
8, 9600, Note_off_c, 2, 64, 64
8, 9600, Note_off_c, 2, 60, 64
8, 9600, Note_on_c, 2, 54, 60
8, 9600, Note_on_c, 2, 57, 60
8, 9600, Note_on_c, 2, 59, 60
8, 9600, Note_on_c, 2, 62, 60
8, 10560, Note_off_c, 2, 62, 64
8, 10560, Note_off_c, 2, 59, 64
8, 10560, Note_off_c, 2, 57, 64
8, 10560, Note_off_c, 2, 54, 64
8, 10560, Note_on_c, 2, 54, 60
8, 10560, Note_on_c, 2, 68, 60
8, 10560, Note_on_c, 2, 59, 60
8, 10560, Note_on_c, 2, 62, 60
8, 11040, Note_off_c, 2, 62, 64
8, 11040, Note_off_c, 2, 59, 64
8, 11040, Note_off_c, 2, 68, 64
8, 11040, Note_off_c, 2, 54, 64
8, 11040, Note_on_c, 2, 59, 60
8, 11040, Note_on_c, 2, 62, 60
8, 11040, Note_on_c, 2, 53, 60
8, 11040, Note_on_c, 2, 69, 60
8, 11520, Note_off_c, 2, 69, 64
8, 11520, Note_off_c, 2, 53, 64
8, 11520, Note_off_c, 2, 62, 64
8, 11520, Note_off_c, 2, 59, 64
8, 11520, Note_on_c, 2, 52, 60
8, 11520, Note_on_c, 2, 66, 60
8, 11520, Note_on_c, 2, 57, 60
8, 11520, Note_on_c, 2, 61, 60
8, 12000, Note_off_c, 2, 61, 64
8, 12000, Note_off_c, 2, 57, 64
8, 12000, Note_off_c, 2, 66, 64
8, 12000, Note_off_c, 2, 52, 64
8, 12000, Note_on_c, 2, 57, 60
8, 12000, Note_on_c, 2, 61, 60
8, 12000, Note_on_c, 2, 62, 60
8, 12000, Note_on_c, 2, 66, 60
8, 12390, Note_off_c, 2, 66, 64
8, 12390, Note_off_c, 2, 62, 64
8, 12390, Note_off_c, 2, 61, 64
8, 12390, Note_off_c, 2, 57, 64
8, 12410, Note_on_c, 2, 55, 60
8, 12410, Note_on_c, 2, 71, 60
8, 12410, Note_on_c, 2, 60, 60
8, 12410, Note_on_c, 2, 64, 60
8, 12956, Note_off_c, 2, 64, 64
8, 12956, Note_off_c, 2, 60, 64
8, 12956, Note_off_c, 2, 71, 64
8, 12956, Note_off_c, 2, 55, 64
8, 12960, Note_on_c, 2, 60, 60
8, 12960, Note_on_c, 2, 65, 60
8, 12960, Note_on_c, 2, 54, 60
8, 12960, Note_on_c, 2, 69, 60
8, 13350, Note_off_c, 2, 69, 64
8, 13350, Note_off_c, 2, 54, 64
8, 13350, Note_off_c, 2, 65, 64
8, 13350, Note_off_c, 2, 60, 64
8, 13370, Note_on_c, 2, 54, 60
8, 13370, Note_on_c, 2, 69, 60
8, 13370, Note_on_c, 2, 59, 60
8, 13370, Note_on_c, 2, 62, 60
8, 13916, Note_off_c, 2, 62, 64
8, 13916, Note_off_c, 2, 59, 64
8, 13916, Note_off_c, 2, 69, 64
8, 13916, Note_off_c, 2, 54, 64
8, 13920, Note_on_c, 2, 59, 60
8, 13920, Note_on_c, 2, 61, 60
8, 13920, Note_on_c, 2, 52, 60
8, 13920, Note_on_c, 2, 67, 60
8, 14400, Note_off_c, 2, 67, 64
8, 14400, Note_off_c, 2, 52, 64
8, 14400, Note_off_c, 2, 61, 64
8, 14400, Note_off_c, 2, 59, 64
8, 14400, Note_on_c, 2, 52, 60
8, 14400, Note_on_c, 2, 66, 60
8, 14400, Note_on_c, 2, 57, 60
8, 14400, Note_on_c, 2, 61, 60
8, 14880, Note_off_c, 2, 61, 64
8, 14880, Note_off_c, 2, 57, 64
8, 14880, Note_off_c, 2, 66, 64
8, 14880, Note_off_c, 2, 52, 64
8, 14880, Note_on_c, 2, 57, 60
8, 14880, Note_on_c, 2, 60, 60
8, 14880, Note_on_c, 2, 63, 60
8, 14880, Note_on_c, 2, 66, 60
8, 15360, Note_off_c, 2, 66, 64
8, 15360, Note_off_c, 2, 63, 64
8, 15360, Note_off_c, 2, 60, 64
8, 15360, Note_off_c, 2, 57, 64
8, 15360, Note_on_c, 2, 62, 60
8, 15360, Note_on_c, 2, 64, 60
8, 15360, Note_on_c, 2, 55, 60
8, 15360, Note_on_c, 2, 71, 60
8, 15840, Note_off_c, 2, 71, 64
8, 15840, Note_off_c, 2, 55, 64
8, 15840, Note_off_c, 2, 64, 64
8, 15840, Note_off_c, 2, 62, 64
8, 15840, Note_on_c, 2, 56, 60
8, 15840, Note_on_c, 2, 72, 60
8, 15840, Note_on_c, 2, 62, 60
8, 15840, Note_on_c, 2, 67, 60
8, 16320, Note_off_c, 2, 67, 64
8, 16320, Note_off_c, 2, 62, 64
8, 16320, Note_off_c, 2, 72, 64
8, 16320, Note_off_c, 2, 56, 64
8, 16320, Note_on_c, 2, 55, 60
8, 16320, Note_on_c, 2, 59, 60
8, 16320, Note_on_c, 2, 62, 60
8, 16320, Note_on_c, 2, 64, 60
8, 16710, Note_off_c, 2, 64, 64
8, 16710, Note_off_c, 2, 62, 64
8, 16710, Note_off_c, 2, 59, 64
8, 16710, Note_off_c, 2, 55, 64
8, 16730, Note_on_c, 2, 55, 60
8, 16730, Note_on_c, 2, 70, 60
8, 16730, Note_on_c, 2, 61, 60
8, 16730, Note_on_c, 2, 65, 60
8, 17276, Note_off_c, 2, 65, 64
8, 17276, Note_off_c, 2, 61, 64
8, 17276, Note_off_c, 2, 70, 64
8, 17276, Note_off_c, 2, 55, 64
8, 17280, Note_on_c, 2, 61, 60
8, 17280, Note_on_c, 2, 64, 60
8, 17280, Note_on_c, 2, 54, 60
8, 17280, Note_on_c, 2, 69, 60
8, 18150, Note_off_c, 2, 69, 64
8, 18150, Note_off_c, 2, 54, 64
8, 18150, Note_off_c, 2, 64, 64
8, 18150, Note_off_c, 2, 61, 64
8, 18170, Note_on_c, 2, 52, 60
8, 18170, Note_on_c, 2, 54, 60
8, 18170, Note_on_c, 2, 57, 60
8, 18170, Note_on_c, 2, 61, 60
8, 18716, Note_off_c, 2, 61, 64
8, 18716, Note_off_c, 2, 57, 64
8, 18716, Note_off_c, 2, 54, 64
8, 18716, Note_off_c, 2, 52, 64
8, 18720, Note_on_c, 2, 59, 35
8, 18720, Note_on_c, 2, 54, 36
8, 18720, Note_on_c, 2, 69, 69
8, 18720, Note_on_c, 2, 63, 30
8, 18720, Note_on_c, 2, 75, 60
8, 18720, Note_on_c, 2, 57, 54
8, 18860, Note_off_c, 2, 75, 64
8, 18882, Note_off_c, 2, 69, 64
8, 18896, Note_on_c, 2, 66, 58
8, 18896, Note_on_c, 2, 71, 60
8, 19110, Note_off_c, 2, 71, 64
8, 19110, Note_off_c, 2, 66, 64
8, 19110, Note_off_c, 2, 57, 64
8, 19110, Note_off_c, 2, 63, 64
8, 19110, Note_off_c, 2, 54, 64
8, 19110, Note_off_c, 2, 59, 64
8, 19130, Note_on_c, 2, 62, 60
8, 19130, Note_on_c, 2, 66, 60
8, 19130, Note_on_c, 2, 55, 60
8, 19130, Note_on_c, 2, 59, 60
8, 19590, Note_off_c, 2, 59, 64
8, 19590, Note_off_c, 2, 55, 64
8, 19590, Note_off_c, 2, 66, 64
8, 19590, Note_off_c, 2, 62, 64
8, 19610, Note_on_c, 2, 55, 60
8, 19610, Note_on_c, 2, 59, 60
8, 19610, Note_on_c, 2, 61, 60
8, 19610, Note_on_c, 2, 66, 60
8, 20070, Note_off_c, 2, 66, 64
8, 20070, Note_off_c, 2, 61, 64
8, 20070, Note_off_c, 2, 59, 64
8, 20070, Note_off_c, 2, 55, 64
8, 20090, Note_on_c, 2, 62, 60
8, 20090, Note_on_c, 2, 64, 60
8, 20090, Note_on_c, 2, 55, 60
8, 20090, Note_on_c, 2, 71, 60
8, 20550, Note_off_c, 2, 71, 64
8, 20550, Note_off_c, 2, 55, 64
8, 20550, Note_off_c, 2, 64, 64
8, 20550, Note_off_c, 2, 62, 64
8, 20570, Note_on_c, 2, 55, 60
8, 20570, Note_on_c, 2, 72, 60
8, 20570, Note_on_c, 2, 61, 60
8, 20570, Note_on_c, 2, 64, 60
8, 21116, Note_off_c, 2, 64, 64
8, 21116, Note_off_c, 2, 61, 64
8, 21116, Note_off_c, 2, 72, 64
8, 21116, Note_off_c, 2, 55, 64
8, 21120, Note_on_c, 2, 61, 60
8, 21120, Note_on_c, 2, 64, 60
8, 21120, Note_on_c, 2, 54, 60
8, 21120, Note_on_c, 2, 57, 60
8, 21510, Note_off_c, 2, 57, 64
8, 21510, Note_off_c, 2, 54, 64
8, 21510, Note_off_c, 2, 64, 64
8, 21510, Note_off_c, 2, 61, 64
8, 21530, Note_on_c, 2, 62, 60
8, 21530, Note_on_c, 2, 66, 60
8, 21530, Note_on_c, 2, 55, 60
8, 21530, Note_on_c, 2, 71, 60
8, 22076, Note_off_c, 2, 71, 64
8, 22076, Note_off_c, 2, 55, 64
8, 22076, Note_off_c, 2, 66, 64
8, 22076, Note_off_c, 2, 62, 64
8, 22080, Note_on_c, 2, 64, 60
8, 22080, Note_on_c, 2, 66, 60
8, 22080, Note_on_c, 2, 57, 60
8, 22080, Note_on_c, 2, 73, 60
8, 22560, Note_off_c, 2, 73, 64
8, 22560, Note_off_c, 2, 57, 64
8, 22560, Note_off_c, 2, 66, 64
8, 22560, Note_off_c, 2, 64, 64
8, 22736, Note_on_c, 2, 86, 55
8, 22736, Note_on_c, 2, 74, 52
8, 22736, Note_on_c, 2, 66, 50
8, 22736, Note_on_c, 2, 55, 40
8, 22736, Note_on_c, 2, 62, 38
8, 22736, Note_on_c, 2, 59, 57
8, 22950, Note_off_c, 2, 59, 64
8, 22950, Note_off_c, 2, 62, 64
8, 22950, Note_off_c, 2, 55, 64
8, 22950, Note_off_c, 2, 66, 64
8, 22950, Note_off_c, 2, 74, 64
8, 22950, Note_off_c, 2, 86, 64
8, 23452, Note_on_c, 2, 67, 60
8, 23452, Note_on_c, 2, 71, 60
8, 23452, Note_on_c, 2, 60, 60
8, 23452, Note_on_c, 2, 64, 60
8, 23910, Note_off_c, 2, 64, 64
8, 23910, Note_off_c, 2, 60, 64
8, 23910, Note_off_c, 2, 71, 64
8, 23910, Note_off_c, 2, 67, 64
8, 23930, Note_on_c, 2, 66, 51
8, 23930, Note_on_c, 2, 57, 50
8, 23930, Note_on_c, 2, 64, 48
8, 23930, Note_on_c, 2, 60, 48
8, 24418, Note_on_c, 2, 69, 72
8, 24418, Note_on_c, 2, 76, 79
8, 24480, Note_off_c, 2, 76, 64
8, 24492, Note_off_c, 2, 69, 64
8, 24658, Note_on_c, 2, 76, 72
8, 24658, Note_on_c, 2, 69, 63
8, 24736, Note_off_c, 2, 69, 64
8, 24736, Note_off_c, 2, 76, 64
8, 24898, Note_on_c, 2, 69, 58
8, 24956, Note_off_c, 2, 60, 64
8, 24956, Note_off_c, 2, 64, 64
8, 24956, Note_off_c, 2, 57, 64
8, 24956, Note_off_c, 2, 66, 64
8, 24960, Note_off_c, 2, 69, 64
8, 24960, Note_on_c, 2, 66, 60
8, 24960, Note_on_c, 2, 69, 60
8, 24960, Note_on_c, 2, 59, 60
8, 24960, Note_on_c, 2, 62, 60
8, 25920, Note_off_c, 2, 62, 64
8, 25920, Note_off_c, 2, 59, 64
8, 25920, Note_off_c, 2, 69, 64
8, 25920, Note_off_c, 2, 66, 64
8, 26332, Note_on_c, 2, 59, 60
8, 26332, Note_on_c, 2, 73, 60
8, 26332, Note_on_c, 2, 64, 60
8, 26332, Note_on_c, 2, 67, 60
8, 26400, Note_off_c, 2, 67, 64
8, 26400, Note_off_c, 2, 64, 64
8, 26400, Note_off_c, 2, 73, 64
8, 26400, Note_off_c, 2, 59, 64
8, 26400, Note_on_c, 2, 61, 35
8, 26400, Note_on_c, 2, 54, 36
8, 26400, Note_on_c, 2, 70, 69
8, 26400, Note_on_c, 2, 64, 30
8, 26400, Note_on_c, 2, 76, 60
8, 26400, Note_on_c, 2, 58, 54
8, 26540, Note_off_c, 2, 76, 64
8, 26562, Note_off_c, 2, 70, 64
8, 26576, Note_on_c, 2, 67, 58
8, 26576, Note_on_c, 2, 73, 60
8, 26790, Note_off_c, 2, 73, 64
8, 26790, Note_off_c, 2, 67, 64
8, 26790, Note_off_c, 2, 58, 64
8, 26790, Note_off_c, 2, 64, 64
8, 26790, Note_off_c, 2, 54, 64
8, 26790, Note_off_c, 2, 61, 64
8, 26810, Note_on_c, 2, 57, 60
8, 26810, Note_on_c, 2, 71, 60
8, 26810, Note_on_c, 2, 62, 60
8, 26810, Note_on_c, 2, 66, 60
8, 27356, Note_off_c, 2, 66, 64
8, 27356, Note_off_c, 2, 62, 64
8, 27356, Note_off_c, 2, 71, 64
8, 27356, Note_off_c, 2, 57, 64
8, 27360, Note_on_c, 2, 59, 60
8, 27360, Note_on_c, 2, 71, 60
8, 27360, Note_on_c, 2, 62, 60
8, 27360, Note_on_c, 2, 66, 60
8, 27840, Note_off_c, 2, 66, 64
8, 27840, Note_off_c, 2, 62, 64
8, 27840, Note_off_c, 2, 71, 64
8, 27840, Note_off_c, 2, 59, 64
8, 27840, Note_on_c, 2, 66, 60
8, 27840, Note_on_c, 2, 68, 60
8, 27840, Note_on_c, 2, 59, 60
8, 27840, Note_on_c, 2, 74, 60
8, 28230, Note_off_c, 2, 74, 64
8, 28230, Note_off_c, 2, 59, 64
8, 28230, Note_off_c, 2, 68, 64
8, 28230, Note_off_c, 2, 66, 64
8, 28250, Note_on_c, 2, 66, 60
8, 28250, Note_on_c, 2, 69, 60
8, 28250, Note_on_c, 2, 59, 60
8, 28250, Note_on_c, 2, 74, 60
8, 28796, Note_off_c, 2, 74, 64
8, 28796, Note_off_c, 2, 59, 64
8, 28796, Note_off_c, 2, 69, 64
8, 28796, Note_off_c, 2, 66, 64
8, 28800, Note_on_c, 2, 59, 60
8, 28800, Note_on_c, 2, 76, 60
8, 28800, Note_on_c, 2, 66, 60
8, 28800, Note_on_c, 2, 69, 60
8, 29190, Note_off_c, 2, 69, 64
8, 29190, Note_off_c, 2, 66, 64
8, 29190, Note_off_c, 2, 76, 64
8, 29190, Note_off_c, 2, 59, 64
8, 29210, Note_on_c, 2, 62, 60
8, 29210, Note_on_c, 2, 65, 60
8, 29210, Note_on_c, 2, 56, 60
8, 29210, Note_on_c, 2, 59, 60
8, 29670, Note_off_c, 2, 59, 64
8, 29670, Note_off_c, 2, 56, 64
8, 29670, Note_off_c, 2, 65, 64
8, 29670, Note_off_c, 2, 62, 64
8, 29690, Note_on_c, 2, 62, 60
8, 29690, Note_on_c, 2, 66, 60
8, 29690, Note_on_c, 2, 55, 60
8, 29690, Note_on_c, 2, 59, 60
8, 30150, Note_off_c, 2, 59, 64
8, 30150, Note_off_c, 2, 55, 64
8, 30150, Note_off_c, 2, 66, 64
8, 30150, Note_off_c, 2, 62, 64
8, 30170, Note_on_c, 2, 55, 60
8, 30170, Note_on_c, 2, 58, 60
8, 30170, Note_on_c, 2, 61, 60
8, 30170, Note_on_c, 2, 65, 60
8, 30630, Note_off_c, 2, 65, 64
8, 30630, Note_off_c, 2, 61, 64
8, 30630, Note_off_c, 2, 58, 64
8, 30630, Note_off_c, 2, 55, 64
8, 30650, Note_on_c, 2, 59, 60
8, 30650, Note_on_c, 2, 64, 60
8, 30650, Note_on_c, 2, 54, 60
8, 30650, Note_on_c, 2, 69, 60
8, 32550, Note_off_c, 2, 69, 64
8, 32550, Note_off_c, 2, 54, 64
8, 32550, Note_off_c, 2, 64, 64
8, 32550, Note_off_c, 2, 59, 64
8, 32570, Note_on_c, 2, 61, 60
8, 32570, Note_on_c, 2, 64, 60
8, 32570, Note_on_c, 2, 54, 60
8, 32570, Note_on_c, 2, 69, 60
8, 33596, Note_off_c, 2, 69, 64
8, 33596, Note_off_c, 2, 54, 64
8, 33596, Note_off_c, 2, 64, 64
8, 33596, Note_off_c, 2, 61, 64
8, 33600, Note_on_c, 2, 52, 60
8, 33600, Note_on_c, 2, 66, 60
8, 33600, Note_on_c, 2, 57, 60
8, 33600, Note_on_c, 2, 61, 60
8, 33990, Note_off_c, 2, 61, 64
8, 33990, Note_off_c, 2, 57, 64
8, 33990, Note_off_c, 2, 66, 64
8, 33990, Note_off_c, 2, 52, 64
8, 34010, Note_on_c, 2, 57, 60
8, 34010, Note_on_c, 2, 72, 60
8, 34010, Note_on_c, 2, 63, 60
8, 34010, Note_on_c, 2, 67, 60
8, 34556, Note_off_c, 2, 67, 64
8, 34556, Note_off_c, 2, 63, 64
8, 34556, Note_off_c, 2, 72, 64
8, 34556, Note_off_c, 2, 57, 64
8, 34560, Note_on_c, 2, 62, 60
8, 34560, Note_on_c, 2, 64, 60
8, 34560, Note_on_c, 2, 55, 60
8, 34560, Note_on_c, 2, 71, 60
8, 35040, Note_off_c, 2, 71, 64
8, 35040, Note_off_c, 2, 55, 64
8, 35040, Note_off_c, 2, 64, 64
8, 35040, Note_off_c, 2, 62, 64
8, 35040, Note_on_c, 2, 55, 60
8, 35040, Note_on_c, 2, 69, 60
8, 35040, Note_on_c, 2, 61, 60
8, 35040, Note_on_c, 2, 64, 60
8, 35520, Note_off_c, 2, 64, 64
8, 35520, Note_off_c, 2, 61, 64
8, 35520, Note_off_c, 2, 69, 64
8, 35520, Note_off_c, 2, 55, 64
8, 35520, Note_on_c, 2, 62, 60
8, 35520, Note_on_c, 2, 66, 60
8, 35520, Note_on_c, 2, 55, 60
8, 35520, Note_on_c, 2, 71, 60
8, 35910, Note_off_c, 2, 71, 64
8, 35910, Note_off_c, 2, 55, 64
8, 35910, Note_off_c, 2, 66, 64
8, 35910, Note_off_c, 2, 62, 64
8, 35930, Note_on_c, 2, 57, 35
8, 35930, Note_on_c, 2, 52, 36
8, 35930, Note_on_c, 2, 67, 69
8, 35930, Note_on_c, 2, 61, 30
8, 35930, Note_on_c, 2, 73, 60
8, 35930, Note_on_c, 2, 55, 54
8, 36136, Note_off_c, 2, 73, 64
8, 36158, Note_off_c, 2, 67, 64
8, 36176, Note_on_c, 2, 64, 58
8, 36176, Note_on_c, 2, 69, 60
8, 36476, Note_off_c, 2, 55, 64
8, 36476, Note_off_c, 2, 61, 64
8, 36476, Note_off_c, 2, 52, 64
8, 36476, Note_off_c, 2, 57, 64
8, 36480, Note_off_c, 2, 69, 64
8, 36480, Note_off_c, 2, 64, 64
8, 37372, Note_on_c, 2, 62, 60
8, 37372, Note_on_c, 2, 66, 60
8, 37372, Note_on_c, 2, 55, 60
8, 37372, Note_on_c, 2, 71, 60
8, 37440, Note_off_c, 2, 71, 64
8, 37440, Note_off_c, 2, 55, 64
8, 37440, Note_off_c, 2, 66, 64
8, 37440, Note_off_c, 2, 62, 64
8, 37440, Note_on_c, 2, 64, 60
8, 37440, Note_on_c, 2, 66, 60
8, 37440, Note_on_c, 2, 57, 60
8, 37440, Note_on_c, 2, 73, 60
8, 37920, Note_off_c, 2, 73, 64
8, 37920, Note_off_c, 2, 57, 64
8, 37920, Note_off_c, 2, 66, 64
8, 37920, Note_off_c, 2, 64, 64
8, 38332, Note_on_c, 2, 66, 60
8, 38332, Note_on_c, 2, 69, 60
8, 38332, Note_on_c, 2, 59, 60
8, 38332, Note_on_c, 2, 62, 60
8, 38400, Note_off_c, 2, 62, 64
8, 38400, Note_off_c, 2, 59, 64
8, 38400, Note_off_c, 2, 69, 64
8, 38400, Note_off_c, 2, 66, 64
8, 38400, Note_on_c, 2, 55, 60
8, 38400, Note_on_c, 2, 71, 60
8, 38400, Note_on_c, 2, 60, 60
8, 38400, Note_on_c, 2, 64, 60
8, 39360, Note_off_c, 2, 64, 64
8, 39360, Note_off_c, 2, 60, 64
8, 39360, Note_off_c, 2, 71, 64
8, 39360, Note_off_c, 2, 55, 64
8, 39372, Note_on_c, 2, 66, 58
8, 39378, Note_on_c, 2, 64, 48
8, 39378, Note_on_c, 2, 57, 48
8, 39378, Note_on_c, 2, 60, 55
8, 39612, Note_on_c, 2, 76, 85
8, 39794, Note_on_c, 2, 69, 53
8, 39800, Note_off_c, 2, 76, 64
8, 39872, Note_off_c, 2, 69, 64
8, 40024, Note_on_c, 2, 76, 90
8, 40128, Note_off_c, 2, 76, 64
8, 40128, Note_on_c, 2, 69, 49
8, 40206, Note_off_c, 2, 69, 64
8, 40320, Note_off_c, 2, 60, 64
8, 40320, Note_off_c, 2, 57, 64
8, 40320, Note_off_c, 2, 64, 64
8, 40320, Note_off_c, 2, 66, 64
8, 40732, Note_on_c, 2, 54, 60
8, 40732, Note_on_c, 2, 69, 60
8, 40732, Note_on_c, 2, 59, 60
8, 40732, Note_on_c, 2, 62, 60
8, 41190, Note_off_c, 2, 62, 64
8, 41190, Note_off_c, 2, 59, 64
8, 41190, Note_off_c, 2, 69, 64
8, 41190, Note_off_c, 2, 54, 64
8, 41210, Note_on_c, 2, 54, 60
8, 41210, Note_on_c, 2, 56, 60
8, 41210, Note_on_c, 2, 59, 60
8, 41210, Note_on_c, 2, 62, 60
8, 41670, Note_off_c, 2, 62, 64
8, 41670, Note_off_c, 2, 59, 64
8, 41670, Note_off_c, 2, 56, 64
8, 41670, Note_off_c, 2, 54, 64
8, 41690, Note_on_c, 2, 59, 60
8, 41690, Note_on_c, 2, 64, 60
8, 41690, Note_on_c, 2, 53, 60
8, 41690, Note_on_c, 2, 68, 60
8, 42236, Note_off_c, 2, 68, 64
8, 42236, Note_off_c, 2, 53, 64
8, 42236, Note_off_c, 2, 64, 64
8, 42236, Note_off_c, 2, 59, 64
8, 42240, Note_on_c, 2, 52, 60
8, 42240, Note_on_c, 2, 66, 60
8, 42240, Note_on_c, 2, 57, 60
8, 42240, Note_on_c, 2, 61, 60
8, 42720, Note_off_c, 2, 61, 64
8, 42720, Note_off_c, 2, 57, 64
8, 42720, Note_off_c, 2, 66, 64
8, 42720, Note_off_c, 2, 52, 64
8, 42720, Note_on_c, 2, 57, 60
8, 42720, Note_on_c, 2, 73, 60
8, 42720, Note_on_c, 2, 62, 60
8, 42720, Note_on_c, 2, 66, 60
8, 43110, Note_off_c, 2, 66, 64
8, 43110, Note_off_c, 2, 62, 64
8, 43110, Note_off_c, 2, 73, 64
8, 43110, Note_off_c, 2, 57, 64
8, 43130, Note_on_c, 2, 55, 60
8, 43130, Note_on_c, 2, 57, 60
8, 43130, Note_on_c, 2, 60, 60
8, 43130, Note_on_c, 2, 64, 60
8, 43590, Note_off_c, 2, 64, 64
8, 43590, Note_off_c, 2, 60, 64
8, 43590, Note_off_c, 2, 57, 64
8, 43590, Note_off_c, 2, 55, 64
8, 43610, Note_on_c, 2, 60, 60
8, 43610, Note_on_c, 2, 65, 60
8, 43610, Note_on_c, 2, 54, 60
8, 43610, Note_on_c, 2, 69, 60
8, 44156, Note_off_c, 2, 69, 64
8, 44156, Note_off_c, 2, 54, 64
8, 44156, Note_off_c, 2, 65, 64
8, 44156, Note_off_c, 2, 60, 64
8, 44160, Note_on_c, 2, 54, 60
8, 44160, Note_on_c, 2, 69, 60
8, 44160, Note_on_c, 2, 59, 60
8, 44160, Note_on_c, 2, 62, 60
8, 44640, Note_off_c, 2, 62, 64
8, 44640, Note_off_c, 2, 59, 64
8, 44640, Note_off_c, 2, 69, 64
8, 44640, Note_off_c, 2, 54, 64
8, 44640, Note_on_c, 2, 59, 60
8, 44640, Note_on_c, 2, 61, 60
8, 44640, Note_on_c, 2, 52, 60
8, 44640, Note_on_c, 2, 55, 60
8, 45030, Note_off_c, 2, 55, 64
8, 45030, Note_off_c, 2, 52, 64
8, 45030, Note_off_c, 2, 61, 64
8, 45030, Note_off_c, 2, 59, 64
8, 45050, Note_on_c, 2, 52, 60
8, 45050, Note_on_c, 2, 66, 60
8, 45050, Note_on_c, 2, 57, 60
8, 45050, Note_on_c, 2, 61, 60
8, 45510, Note_off_c, 2, 61, 64
8, 45510, Note_off_c, 2, 57, 64
8, 45510, Note_off_c, 2, 66, 64
8, 45510, Note_off_c, 2, 52, 64
8, 45530, Note_on_c, 2, 57, 60
8, 45530, Note_on_c, 2, 72, 60
8, 45530, Note_on_c, 2, 63, 60
8, 45530, Note_on_c, 2, 66, 60
8, 45990, Note_off_c, 2, 66, 64
8, 45990, Note_off_c, 2, 63, 64
8, 45990, Note_off_c, 2, 72, 64
8, 45990, Note_off_c, 2, 57, 64
8, 46010, Note_on_c, 2, 62, 60
8, 46010, Note_on_c, 2, 66, 60
8, 46010, Note_on_c, 2, 55, 60
8, 46010, Note_on_c, 2, 59, 60
8, 46556, Note_off_c, 2, 59, 64
8, 46556, Note_off_c, 2, 55, 64
8, 46556, Note_off_c, 2, 66, 64
8, 46556, Note_off_c, 2, 62, 64
8, 46560, Note_on_c, 2, 56, 60
8, 46560, Note_on_c, 2, 72, 60
8, 46560, Note_on_c, 2, 62, 60
8, 46560, Note_on_c, 2, 65, 60
8, 47040, Note_off_c, 2, 65, 64
8, 47040, Note_off_c, 2, 62, 64
8, 47040, Note_off_c, 2, 72, 64
8, 47040, Note_off_c, 2, 56, 64
8, 47040, Note_on_c, 2, 55, 60
8, 47040, Note_on_c, 2, 59, 60
8, 47040, Note_on_c, 2, 62, 60
8, 47040, Note_on_c, 2, 64, 60
8, 47520, Note_off_c, 2, 64, 64
8, 47520, Note_off_c, 2, 62, 64
8, 47520, Note_off_c, 2, 59, 64
8, 47520, Note_off_c, 2, 55, 64
8, 47520, Note_on_c, 2, 55, 60
8, 47520, Note_on_c, 2, 70, 60
8, 47520, Note_on_c, 2, 61, 60
8, 47520, Note_on_c, 2, 65, 60
8, 48000, Note_off_c, 2, 65, 64
8, 48000, Note_off_c, 2, 61, 64
8, 48000, Note_off_c, 2, 70, 64
8, 48000, Note_off_c, 2, 55, 64
8, 48000, Note_on_c, 2, 61, 60
8, 48000, Note_on_c, 2, 64, 60
8, 48000, Note_on_c, 2, 54, 60
8, 48000, Note_on_c, 2, 57, 60
8, 48960, Note_off_c, 2, 57, 64
8, 48960, Note_off_c, 2, 54, 64
8, 48960, Note_off_c, 2, 64, 64
8, 48960, Note_off_c, 2, 61, 64
8, 48960, Note_on_c, 2, 52, 60
8, 48960, Note_on_c, 2, 66, 60
8, 48960, Note_on_c, 2, 57, 60
8, 48960, Note_on_c, 2, 61, 60
8, 49350, Note_off_c, 2, 61, 64
8, 49350, Note_off_c, 2, 57, 64
8, 49350, Note_off_c, 2, 66, 64
8, 49350, Note_off_c, 2, 52, 64
8, 49370, Note_on_c, 2, 59, 35
8, 49370, Note_on_c, 2, 54, 36
8, 49370, Note_on_c, 2, 69, 69
8, 49370, Note_on_c, 2, 63, 30
8, 49370, Note_on_c, 2, 75, 60
8, 49370, Note_on_c, 2, 57, 54
8, 49576, Note_off_c, 2, 75, 64
8, 49598, Note_off_c, 2, 69, 64
8, 49616, Note_on_c, 2, 66, 58
8, 49616, Note_on_c, 2, 71, 60
8, 49830, Note_off_c, 2, 71, 64
8, 49830, Note_off_c, 2, 66, 64
8, 49830, Note_off_c, 2, 57, 64
8, 49830, Note_off_c, 2, 63, 64
8, 49830, Note_off_c, 2, 54, 64
8, 49830, Note_off_c, 2, 59, 64
8, 49850, Note_on_c, 2, 62, 60
8, 49850, Note_on_c, 2, 64, 60
8, 49850, Note_on_c, 2, 55, 60
8, 49850, Note_on_c, 2, 71, 60
8, 50396, Note_off_c, 2, 71, 64
8, 50396, Note_off_c, 2, 55, 64
8, 50396, Note_off_c, 2, 64, 64
8, 50396, Note_off_c, 2, 62, 64
8, 50400, Note_on_c, 2, 55, 60
8, 50400, Note_on_c, 2, 69, 60
8, 50400, Note_on_c, 2, 61, 60
8, 50400, Note_on_c, 2, 64, 60
8, 50880, Note_off_c, 2, 64, 64
8, 50880, Note_off_c, 2, 61, 64
8, 50880, Note_off_c, 2, 69, 64
8, 50880, Note_off_c, 2, 55, 64
8, 50880, Note_on_c, 2, 62, 60
8, 50880, Note_on_c, 2, 64, 60
8, 50880, Note_on_c, 2, 55, 60
8, 50880, Note_on_c, 2, 71, 60
8, 51360, Note_off_c, 2, 71, 64
8, 51360, Note_off_c, 2, 55, 64
8, 51360, Note_off_c, 2, 64, 64
8, 51360, Note_off_c, 2, 62, 64
8, 51360, Note_on_c, 2, 55, 60
8, 51360, Note_on_c, 2, 59, 60
8, 51360, Note_on_c, 2, 61, 60
8, 51360, Note_on_c, 2, 64, 60
8, 51750, Note_off_c, 2, 64, 64
8, 51750, Note_off_c, 2, 61, 64
8, 51750, Note_off_c, 2, 59, 64
8, 51750, Note_off_c, 2, 55, 64
8, 51770, Note_on_c, 2, 61, 60
8, 51770, Note_on_c, 2, 64, 60
8, 51770, Note_on_c, 2, 54, 60
8, 51770, Note_on_c, 2, 69, 60
8, 52316, Note_off_c, 2, 69, 64
8, 52316, Note_off_c, 2, 54, 64
8, 52316, Note_off_c, 2, 64, 64
8, 52316, Note_off_c, 2, 61, 64
8, 52320, Note_on_c, 2, 62, 60
8, 52320, Note_on_c, 2, 66, 60
8, 52320, Note_on_c, 2, 55, 60
8, 52320, Note_on_c, 2, 71, 60
8, 52710, Note_off_c, 2, 71, 64
8, 52710, Note_off_c, 2, 55, 64
8, 52710, Note_off_c, 2, 66, 64
8, 52710, Note_off_c, 2, 62, 64
8, 53456, Note_on_c, 2, 86, 55
8, 53456, Note_on_c, 2, 74, 52
8, 53456, Note_on_c, 2, 66, 50
8, 53456, Note_on_c, 2, 55, 40
8, 53456, Note_on_c, 2, 62, 38
8, 53456, Note_on_c, 2, 59, 57
8, 53760, Note_off_c, 2, 59, 64
8, 53760, Note_off_c, 2, 62, 64
8, 53760, Note_off_c, 2, 55, 64
8, 53760, Note_off_c, 2, 66, 64
8, 53760, Note_off_c, 2, 74, 64
8, 53760, Note_off_c, 2, 86, 64
8, 53760, Note_on_c, 2, 67, 60
8, 53760, Note_on_c, 2, 69, 60
8, 53760, Note_on_c, 2, 60, 60
8, 53760, Note_on_c, 2, 76, 60
8, 54630, Note_off_c, 2, 76, 64
8, 54630, Note_off_c, 2, 60, 64
8, 54630, Note_off_c, 2, 69, 64
8, 54630, Note_off_c, 2, 67, 64
8, 54650, Note_on_c, 2, 60, 60
8, 54650, Note_on_c, 2, 64, 60
8, 54650, Note_on_c, 2, 66, 60
8, 54650, Note_on_c, 2, 71, 60
8, 55676, Note_off_c, 2, 71, 64
8, 55676, Note_off_c, 2, 66, 64
8, 55676, Note_off_c, 2, 64, 64
8, 55676, Note_off_c, 2, 60, 64
8, 55680, Note_on_c, 2, 66, 60
8, 55680, Note_on_c, 2, 69, 60
8, 55680, Note_on_c, 2, 59, 60
8, 55680, Note_on_c, 2, 74, 60
8, 56550, Note_off_c, 2, 74, 64
8, 56550, Note_off_c, 2, 59, 64
8, 56550, Note_off_c, 2, 69, 64
8, 56550, Note_off_c, 2, 66, 64
8, 56570, Note_on_c, 2, 59, 60
8, 56570, Note_on_c, 2, 73, 60
8, 56570, Note_on_c, 2, 64, 60
8, 56570, Note_on_c, 2, 67, 60
8, 57030, Note_off_c, 2, 67, 64
8, 57030, Note_off_c, 2, 64, 64
8, 57030, Note_off_c, 2, 73, 64
8, 57030, Note_off_c, 2, 59, 64
8, 57296, Note_on_c, 2, 85, 55
8, 57296, Note_on_c, 2, 73, 52
8, 57296, Note_on_c, 2, 64, 50
8, 57296, Note_on_c, 2, 54, 40
8, 57296, Note_on_c, 2, 61, 38
8, 57296, Note_on_c, 2, 58, 57
8, 57600, Note_off_c, 2, 58, 64
8, 57600, Note_off_c, 2, 61, 64
8, 57600, Note_off_c, 2, 54, 64
8, 57600, Note_off_c, 2, 64, 64
8, 57600, Note_off_c, 2, 73, 64
8, 57600, Note_off_c, 2, 85, 64
8, 57600, Note_on_c, 2, 57, 60
8, 57600, Note_on_c, 2, 71, 60
8, 57600, Note_on_c, 2, 62, 60
8, 57600, Note_on_c, 2, 66, 60
8, 57990, Note_off_c, 2, 66, 64
8, 57990, Note_off_c, 2, 62, 64
8, 57990, Note_off_c, 2, 71, 64
8, 57990, Note_off_c, 2, 57, 64
8, 58010, Note_on_c, 2, 59, 60
8, 58010, Note_on_c, 2, 71, 60
8, 58010, Note_on_c, 2, 62, 60
8, 58010, Note_on_c, 2, 66, 60
8, 58470, Note_off_c, 2, 66, 64
8, 58470, Note_off_c, 2, 62, 64
8, 58470, Note_off_c, 2, 71, 64
8, 58470, Note_off_c, 2, 59, 64
8, 58972, Note_on_c, 2, 54, 60
8, 58972, Note_on_c, 2, 68, 60
8, 58972, Note_on_c, 2, 59, 60
8, 58972, Note_on_c, 2, 62, 60
8, 59040, Note_off_c, 2, 62, 64
8, 59040, Note_off_c, 2, 59, 64
8, 59040, Note_off_c, 2, 68, 64
8, 59040, Note_off_c, 2, 54, 64
8, 59040, Note_on_c, 2, 62, 35
8, 59040, Note_on_c, 2, 55, 36
8, 59040, Note_on_c, 2, 66, 30
8, 59040, Note_on_c, 2, 59, 54
8, 59040, Note_on_c, 2, 71, 69
8, 59040, Note_on_c, 2, 78, 60
8, 59180, Note_off_c, 2, 78, 64
8, 59202, Note_off_c, 2, 71, 64
8, 59216, Note_on_c, 2, 69, 58
8, 59216, Note_on_c, 2, 74, 60
8, 59520, Note_off_c, 2, 74, 64
8, 59520, Note_off_c, 2, 69, 64
8, 59520, Note_off_c, 2, 59, 64
8, 59520, Note_off_c, 2, 66, 64
8, 59520, Note_off_c, 2, 55, 64
8, 59520, Note_off_c, 2, 62, 64
8, 59520, Note_on_c, 2, 59, 60
8, 59520, Note_on_c, 2, 64, 60
8, 59520, Note_on_c, 2, 54, 60
8, 59520, Note_on_c, 2, 57, 60
8, 60000, Note_off_c, 2, 57, 64
8, 60000, Note_off_c, 2, 54, 64
8, 60000, Note_off_c, 2, 64, 64
8, 60000, Note_off_c, 2, 59, 64
8, 60000, Note_on_c, 2, 59, 35
8, 60000, Note_on_c, 2, 53, 36
8, 60000, Note_on_c, 2, 68, 69
8, 60000, Note_on_c, 2, 62, 30
8, 60000, Note_on_c, 2, 74, 60
8, 60000, Note_on_c, 2, 56, 54
8, 60140, Note_off_c, 2, 74, 64
8, 60162, Note_off_c, 2, 68, 64
8, 60176, Note_on_c, 2, 65, 58
8, 60176, Note_on_c, 2, 71, 60
8, 60390, Note_off_c, 2, 71, 64
8, 60390, Note_off_c, 2, 65, 64
8, 60390, Note_off_c, 2, 56, 64
8, 60390, Note_off_c, 2, 62, 64
8, 60390, Note_off_c, 2, 53, 64
8, 60390, Note_off_c, 2, 59, 64
8, 60410, Note_on_c, 2, 62, 60
8, 60410, Note_on_c, 2, 66, 60
8, 60410, Note_on_c, 2, 55, 60
8, 60410, Note_on_c, 2, 71, 60
8, 60870, Note_off_c, 2, 71, 64
8, 60870, Note_off_c, 2, 55, 64
8, 60870, Note_off_c, 2, 66, 64
8, 60870, Note_off_c, 2, 62, 64
8, 60890, Note_on_c, 2, 55, 60
8, 60890, Note_on_c, 2, 58, 60
8, 60890, Note_on_c, 2, 61, 60
8, 60890, Note_on_c, 2, 65, 60
8, 61350, Note_off_c, 2, 65, 64
8, 61350, Note_off_c, 2, 61, 64
8, 61350, Note_off_c, 2, 58, 64
8, 61350, Note_off_c, 2, 55, 64
8, 61852, Note_on_c, 2, 59, 60
8, 61852, Note_on_c, 2, 64, 60
8, 61852, Note_on_c, 2, 54, 60
8, 61852, Note_on_c, 2, 57, 60
8, 63290, Note_off_c, 2, 57, 64
8, 63290, Note_off_c, 2, 54, 64
8, 63290, Note_off_c, 2, 64, 64
8, 63290, Note_off_c, 2, 59, 64
8, 63360, Note_on_c, 2, 61, 60
8, 63360, Note_on_c, 2, 64, 60
8, 63360, Note_on_c, 2, 54, 60
8, 63360, Note_on_c, 2, 69, 60
8, 64230, Note_off_c, 2, 69, 64
8, 64230, Note_off_c, 2, 54, 64
8, 64230, Note_off_c, 2, 64, 64
8, 64230, Note_off_c, 2, 61, 64
8, 64250, Note_on_c, 2, 52, 60
8, 64250, Note_on_c, 2, 54, 60
8, 64250, Note_on_c, 2, 57, 60
8, 64250, Note_on_c, 2, 61, 60
8, 64710, Note_off_c, 2, 61, 64
8, 64710, Note_off_c, 2, 57, 64
8, 64710, Note_off_c, 2, 54, 64
8, 64710, Note_off_c, 2, 52, 64
8, 64730, Note_on_c, 2, 57, 60
8, 64730, Note_on_c, 2, 72, 60
8, 64730, Note_on_c, 2, 63, 60
8, 64730, Note_on_c, 2, 67, 60
8, 65276, Note_off_c, 2, 67, 64
8, 65276, Note_off_c, 2, 63, 64
8, 65276, Note_off_c, 2, 72, 64
8, 65276, Note_off_c, 2, 57, 64
8, 65280, Note_on_c, 2, 62, 60
8, 65280, Note_on_c, 2, 64, 60
8, 65280, Note_on_c, 2, 55, 60
8, 65280, Note_on_c, 2, 59, 60
8, 65760, Note_off_c, 2, 59, 64
8, 65760, Note_off_c, 2, 55, 64
8, 65760, Note_off_c, 2, 64, 64
8, 65760, Note_off_c, 2, 62, 64
8, 65760, Note_on_c, 2, 55, 60
8, 65760, Note_on_c, 2, 71, 60
8, 65760, Note_on_c, 2, 61, 60
8, 65760, Note_on_c, 2, 64, 60
8, 66150, Note_off_c, 2, 64, 64
8, 66150, Note_off_c, 2, 61, 64
8, 66150, Note_off_c, 2, 71, 64
8, 66150, Note_off_c, 2, 55, 64
8, 66170, Note_on_c, 2, 62, 60
8, 66170, Note_on_c, 2, 64, 60
8, 66170, Note_on_c, 2, 55, 60
8, 66170, Note_on_c, 2, 71, 60
8, 66716, Note_off_c, 2, 71, 64
8, 66716, Note_off_c, 2, 55, 64
8, 66716, Note_off_c, 2, 64, 64
8, 66716, Note_off_c, 2, 62, 64
8, 66720, Note_on_c, 2, 55, 60
8, 66720, Note_on_c, 2, 70, 60
8, 66720, Note_on_c, 2, 61, 60
8, 66720, Note_on_c, 2, 65, 60
8, 67200, Note_off_c, 2, 65, 64
8, 67200, Note_off_c, 2, 61, 64
8, 67200, Note_off_c, 2, 70, 64
8, 67200, Note_off_c, 2, 55, 64
8, 67200, Note_on_c, 2, 61, 60
8, 67200, Note_on_c, 2, 64, 60
8, 67200, Note_on_c, 2, 54, 60
8, 67200, Note_on_c, 2, 69, 60
8, 67680, Note_off_c, 2, 69, 64
8, 67680, Note_off_c, 2, 54, 64
8, 67680, Note_off_c, 2, 64, 64
8, 67680, Note_off_c, 2, 61, 64
8, 67680, Note_on_c, 2, 62, 60
8, 67680, Note_on_c, 2, 66, 60
8, 67680, Note_on_c, 2, 55, 60
8, 67680, Note_on_c, 2, 59, 60
8, 68160, Note_off_c, 2, 59, 64
8, 68160, Note_off_c, 2, 55, 64
8, 68160, Note_off_c, 2, 66, 64
8, 68160, Note_off_c, 2, 62, 64
8, 68160, Note_on_c, 2, 52, 60
8, 68160, Note_on_c, 2, 66, 60
8, 68160, Note_on_c, 2, 57, 60
8, 68160, Note_on_c, 2, 61, 60
8, 68640, Note_off_c, 2, 61, 64
8, 68640, Note_off_c, 2, 57, 64
8, 68640, Note_off_c, 2, 66, 64
8, 68640, Note_off_c, 2, 52, 64
8, 68640, Note_on_c, 2, 54, 60
8, 68640, Note_on_c, 2, 69, 60
8, 68640, Note_on_c, 2, 59, 60
8, 68640, Note_on_c, 2, 62, 60
8, 69030, Note_off_c, 2, 62, 64
8, 69030, Note_off_c, 2, 59, 64
8, 69030, Note_off_c, 2, 69, 64
8, 69030, Note_off_c, 2, 54, 64
8, 69050, Note_on_c, 2, 55, 60
8, 69050, Note_on_c, 2, 57, 60
8, 69050, Note_on_c, 2, 60, 60
8, 69050, Note_on_c, 2, 64, 60
8, 69990, Note_off_c, 2, 64, 64
8, 69990, Note_off_c, 2, 60, 64
8, 69990, Note_off_c, 2, 57, 64
8, 69990, Note_off_c, 2, 55, 64
8, 70320, Note_on_c, 2, 60, 44
8, 70320, Note_on_c, 2, 64, 44
8, 70320, Note_on_c, 2, 54, 44
8, 70320, Note_on_c, 2, 59, 44
8, 70452, Note_off_c, 2, 59, 64
8, 70452, Note_off_c, 2, 54, 64
8, 70452, Note_off_c, 2, 64, 64
8, 70452, Note_off_c, 2, 60, 64
8, 70488, Note_on_c, 2, 60, 46
8, 70488, Note_on_c, 2, 64, 46
8, 70488, Note_on_c, 2, 54, 46
8, 70488, Note_on_c, 2, 59, 46
8, 70560, Note_off_c, 2, 59, 64
8, 70560, Note_off_c, 2, 54, 64
8, 70560, Note_off_c, 2, 64, 64
8, 70560, Note_off_c, 2, 60, 64
8, 70560, Note_on_c, 2, 60, 52
8, 70560, Note_on_c, 2, 64, 52
8, 70560, Note_on_c, 2, 54, 52
8, 70560, Note_on_c, 2, 59, 52
8, 70670, Note_off_c, 2, 59, 64
8, 70670, Note_off_c, 2, 54, 64
8, 70670, Note_off_c, 2, 64, 64
8, 70670, Note_off_c, 2, 60, 64
8, 70728, Note_on_c, 2, 60, 61
8, 70728, Note_on_c, 2, 64, 61
8, 70728, Note_on_c, 2, 54, 61
8, 70728, Note_on_c, 2, 59, 61
8, 70800, Note_off_c, 2, 59, 64
8, 70800, Note_off_c, 2, 54, 64
8, 70800, Note_off_c, 2, 64, 64
8, 70800, Note_off_c, 2, 60, 64
8, 70800, Note_on_c, 2, 60, 72
8, 70800, Note_on_c, 2, 64, 72
8, 70800, Note_on_c, 2, 54, 72
8, 70800, Note_on_c, 2, 59, 72
8, 70918, Note_off_c, 2, 59, 64
8, 70918, Note_off_c, 2, 54, 64
8, 70918, Note_off_c, 2, 64, 64
8, 70918, Note_off_c, 2, 60, 64
8, 71040, Note_on_c, 2, 54, 60
8, 71040, Note_on_c, 2, 69, 60
8, 71040, Note_on_c, 2, 59, 60
8, 71040, Note_on_c, 2, 62, 60
8, 72000, Note_off_c, 2, 62, 64
8, 72000, Note_off_c, 2, 59, 64
8, 72000, Note_off_c, 2, 69, 64
8, 72000, Note_off_c, 2, 54, 64
8, 72000, Note_on_c, 2, 54, 60
8, 72000, Note_on_c, 2, 68, 60
8, 72000, Note_on_c, 2, 59, 60
8, 72000, Note_on_c, 2, 62, 60
8, 72480, Note_off_c, 2, 62, 64
8, 72480, Note_off_c, 2, 59, 64
8, 72480, Note_off_c, 2, 68, 64
8, 72480, Note_off_c, 2, 54, 64
8, 72480, Note_on_c, 2, 59, 60
8, 72480, Note_on_c, 2, 62, 60
8, 72480, Note_on_c, 2, 53, 60
8, 72480, Note_on_c, 2, 68, 60
8, 72960, Note_off_c, 2, 68, 64
8, 72960, Note_off_c, 2, 53, 64
8, 72960, Note_off_c, 2, 62, 64
8, 72960, Note_off_c, 2, 59, 64
8, 72960, Note_on_c, 2, 52, 60
8, 72960, Note_on_c, 2, 54, 60
8, 72960, Note_on_c, 2, 57, 60
8, 72960, Note_on_c, 2, 61, 60
8, 73440, Note_off_c, 2, 61, 64
8, 73440, Note_off_c, 2, 57, 64
8, 73440, Note_off_c, 2, 54, 64
8, 73440, Note_off_c, 2, 52, 64
8, 73440, Note_on_c, 2, 57, 60
8, 73440, Note_on_c, 2, 73, 60
8, 73440, Note_on_c, 2, 62, 60
8, 73440, Note_on_c, 2, 66, 60
8, 73830, Note_off_c, 2, 66, 64
8, 73830, Note_off_c, 2, 62, 64
8, 73830, Note_off_c, 2, 73, 64
8, 73830, Note_off_c, 2, 57, 64
8, 73850, Note_on_c, 2, 55, 60
8, 73850, Note_on_c, 2, 57, 60
8, 73850, Note_on_c, 2, 60, 60
8, 73850, Note_on_c, 2, 64, 60
8, 74396, Note_off_c, 2, 64, 64
8, 74396, Note_off_c, 2, 60, 64
8, 74396, Note_off_c, 2, 57, 64
8, 74396, Note_off_c, 2, 55, 64
8, 74400, Note_on_c, 2, 60, 60
8, 74400, Note_on_c, 2, 63, 60
8, 74400, Note_on_c, 2, 54, 60
8, 74400, Note_on_c, 2, 70, 60
8, 74880, Note_off_c, 2, 70, 64
8, 74880, Note_off_c, 2, 54, 64
8, 74880, Note_off_c, 2, 63, 64
8, 74880, Note_off_c, 2, 60, 64
8, 74880, Note_on_c, 2, 54, 60
8, 74880, Note_on_c, 2, 69, 60
8, 74880, Note_on_c, 2, 59, 60
8, 74880, Note_on_c, 2, 62, 60
8, 75270, Note_off_c, 2, 62, 64
8, 75270, Note_off_c, 2, 59, 64
8, 75270, Note_off_c, 2, 69, 64
8, 75270, Note_off_c, 2, 54, 64
8, 75290, Note_on_c, 2, 59, 60
8, 75290, Note_on_c, 2, 61, 60
8, 75290, Note_on_c, 2, 52, 60
8, 75290, Note_on_c, 2, 67, 60
8, 75750, Note_off_c, 2, 67, 64
8, 75750, Note_off_c, 2, 52, 64
8, 75750, Note_off_c, 2, 61, 64
8, 75750, Note_off_c, 2, 59, 64
8, 75770, Note_on_c, 2, 52, 60
8, 75770, Note_on_c, 2, 66, 60
8, 75770, Note_on_c, 2, 57, 60
8, 75770, Note_on_c, 2, 61, 60
8, 76316, Note_off_c, 2, 61, 64
8, 76316, Note_off_c, 2, 57, 64
8, 76316, Note_off_c, 2, 66, 64
8, 76316, Note_off_c, 2, 52, 64
8, 76320, Note_on_c, 2, 57, 60
8, 76320, Note_on_c, 2, 72, 60
8, 76320, Note_on_c, 2, 63, 60
8, 76320, Note_on_c, 2, 67, 60
8, 76800, Note_off_c, 2, 67, 64
8, 76800, Note_off_c, 2, 63, 64
8, 76800, Note_off_c, 2, 72, 64
8, 76800, Note_off_c, 2, 57, 64
8, 76800, Note_on_c, 2, 62, 60
8, 76800, Note_on_c, 2, 64, 60
8, 76800, Note_on_c, 2, 55, 60
8, 76800, Note_on_c, 2, 59, 60
8, 77190, Note_off_c, 2, 59, 64
8, 77190, Note_off_c, 2, 55, 64
8, 77190, Note_off_c, 2, 64, 64
8, 77190, Note_off_c, 2, 62, 64
8, 77210, Note_on_c, 2, 56, 60
8, 77210, Note_on_c, 2, 72, 60
8, 77210, Note_on_c, 2, 62, 60
8, 77210, Note_on_c, 2, 65, 60
8, 77756, Note_off_c, 2, 65, 64
8, 77756, Note_off_c, 2, 62, 64
8, 77756, Note_off_c, 2, 72, 64
8, 77756, Note_off_c, 2, 56, 64
8, 77760, Note_on_c, 2, 55, 60
8, 77760, Note_on_c, 2, 71, 60
8, 77760, Note_on_c, 2, 62, 60
8, 77760, Note_on_c, 2, 66, 60
8, 78150, Note_off_c, 2, 66, 64
8, 78150, Note_off_c, 2, 62, 64
8, 78150, Note_off_c, 2, 71, 64
8, 78150, Note_off_c, 2, 55, 64
8, 78170, Note_on_c, 2, 55, 60
8, 78170, Note_on_c, 2, 58, 60
8, 78170, Note_on_c, 2, 61, 60
8, 78170, Note_on_c, 2, 65, 60
8, 78716, Note_off_c, 2, 65, 64
8, 78716, Note_off_c, 2, 61, 64
8, 78716, Note_off_c, 2, 58, 64
8, 78716, Note_off_c, 2, 55, 64
8, 78720, Note_on_c, 2, 61, 60
8, 78720, Note_on_c, 2, 64, 60
8, 78720, Note_on_c, 2, 54, 60
8, 78720, Note_on_c, 2, 69, 60
8, 79680, Note_off_c, 2, 69, 64
8, 79680, Note_off_c, 2, 54, 64
8, 79680, Note_off_c, 2, 64, 64
8, 79680, Note_off_c, 2, 61, 64
8, 80090, Note_on_c, 2, 59, 35
8, 80090, Note_on_c, 2, 54, 36
8, 80090, Note_on_c, 2, 69, 69
8, 80090, Note_on_c, 2, 63, 30
8, 80090, Note_on_c, 2, 75, 60
8, 80090, Note_on_c, 2, 57, 54
8, 80296, Note_off_c, 2, 75, 64
8, 80318, Note_off_c, 2, 69, 64
8, 80336, Note_on_c, 2, 66, 58
8, 80336, Note_on_c, 2, 71, 60
8, 80550, Note_off_c, 2, 71, 64
8, 80550, Note_off_c, 2, 66, 64
8, 80550, Note_off_c, 2, 57, 64
8, 80550, Note_off_c, 2, 63, 64
8, 80550, Note_off_c, 2, 54, 64
8, 80550, Note_off_c, 2, 59, 64
8, 80570, Note_on_c, 2, 62, 60
8, 80570, Note_on_c, 2, 66, 60
8, 80570, Note_on_c, 2, 55, 60
8, 80570, Note_on_c, 2, 71, 60
8, 81116, Note_off_c, 2, 71, 64
8, 81116, Note_off_c, 2, 55, 64
8, 81116, Note_off_c, 2, 66, 64
8, 81116, Note_off_c, 2, 62, 64
8, 81120, Note_on_c, 2, 55, 60
8, 81120, Note_on_c, 2, 59, 60
8, 81120, Note_on_c, 2, 61, 60
8, 81120, Note_on_c, 2, 66, 60
8, 81600, Note_off_c, 2, 66, 64
8, 81600, Note_off_c, 2, 61, 64
8, 81600, Note_off_c, 2, 59, 64
8, 81600, Note_off_c, 2, 55, 64
8, 81600, Note_on_c, 2, 62, 60
8, 81600, Note_on_c, 2, 66, 60
8, 81600, Note_on_c, 2, 55, 60
8, 81600, Note_on_c, 2, 71, 60
8, 81990, Note_off_c, 2, 71, 64
8, 81990, Note_off_c, 2, 55, 64
8, 81990, Note_off_c, 2, 66, 64
8, 81990, Note_off_c, 2, 62, 64
8, 82010, Note_on_c, 2, 55, 60
8, 82010, Note_on_c, 2, 69, 60
8, 82010, Note_on_c, 2, 61, 60
8, 82010, Note_on_c, 2, 64, 60
8, 82556, Note_off_c, 2, 64, 64
8, 82556, Note_off_c, 2, 61, 64
8, 82556, Note_off_c, 2, 69, 64
8, 82556, Note_off_c, 2, 55, 64
8, 82560, Note_on_c, 2, 61, 60
8, 82560, Note_on_c, 2, 64, 60
8, 82560, Note_on_c, 2, 54, 60
8, 82560, Note_on_c, 2, 69, 60
8, 82950, Note_off_c, 2, 69, 64
8, 82950, Note_off_c, 2, 54, 64
8, 82950, Note_off_c, 2, 64, 64
8, 82950, Note_off_c, 2, 61, 64
8, 82970, Note_on_c, 2, 62, 60
8, 82970, Note_on_c, 2, 64, 60
8, 82970, Note_on_c, 2, 55, 60
8, 82970, Note_on_c, 2, 71, 60
8, 83516, Note_off_c, 2, 71, 64
8, 83516, Note_off_c, 2, 55, 64
8, 83516, Note_off_c, 2, 64, 64
8, 83516, Note_off_c, 2, 62, 64
8, 83520, Note_on_c, 2, 52, 60
8, 83520, Note_on_c, 2, 54, 60
8, 83520, Note_on_c, 2, 57, 60
8, 83520, Note_on_c, 2, 61, 60
8, 83910, Note_off_c, 2, 61, 64
8, 83910, Note_off_c, 2, 57, 64
8, 83910, Note_off_c, 2, 54, 64
8, 83910, Note_off_c, 2, 52, 64
8, 84410, Note_on_c, 2, 55, 60
8, 84410, Note_on_c, 2, 59, 60
8, 84410, Note_on_c, 2, 60, 60
8, 84410, Note_on_c, 2, 64, 60
8, 85350, Note_off_c, 2, 64, 64
8, 85350, Note_off_c, 2, 60, 64
8, 85350, Note_off_c, 2, 59, 64
8, 85350, Note_off_c, 2, 55, 64
8, 85370, Note_on_c, 2, 60, 60
8, 85370, Note_on_c, 2, 64, 60
8, 85370, Note_on_c, 2, 54, 60
8, 85370, Note_on_c, 2, 69, 60
8, 86396, Note_off_c, 2, 69, 64
8, 86396, Note_off_c, 2, 54, 64
8, 86396, Note_off_c, 2, 64, 64
8, 86396, Note_off_c, 2, 60, 64
8, 86400, Note_on_c, 2, 54, 60
8, 86400, Note_on_c, 2, 57, 60
8, 86400, Note_on_c, 2, 59, 60
8, 86400, Note_on_c, 2, 62, 60
8, 87270, Note_off_c, 2, 62, 64
8, 87270, Note_off_c, 2, 59, 64
8, 87270, Note_off_c, 2, 57, 64
8, 87270, Note_off_c, 2, 54, 64
8, 87290, Note_on_c, 2, 59, 60
8, 87290, Note_on_c, 2, 61, 60
8, 87290, Note_on_c, 2, 52, 60
8, 87290, Note_on_c, 2, 67, 60
8, 87836, Note_off_c, 2, 67, 64
8, 87836, Note_off_c, 2, 52, 64
8, 87836, Note_off_c, 2, 61, 64
8, 87836, Note_off_c, 2, 59, 64
8, 87840, Note_on_c, 2, 61, 35
8, 87840, Note_on_c, 2, 54, 36
8, 87840, Note_on_c, 2, 64, 30
8, 87840, Note_on_c, 2, 58, 54
8, 87840, Note_on_c, 2, 70, 69
8, 87840, Note_on_c, 2, 76, 60
8, 87980, Note_off_c, 2, 76, 64
8, 88002, Note_off_c, 2, 70, 64
8, 88016, Note_on_c, 2, 67, 58
8, 88016, Note_on_c, 2, 73, 60
8, 88320, Note_off_c, 2, 73, 64
8, 88320, Note_off_c, 2, 67, 64
8, 88320, Note_off_c, 2, 58, 64
8, 88320, Note_off_c, 2, 64, 64
8, 88320, Note_off_c, 2, 54, 64
8, 88320, Note_off_c, 2, 61, 64
8, 88320, Note_on_c, 2, 57, 60
8, 88320, Note_on_c, 2, 71, 60
8, 88320, Note_on_c, 2, 62, 60
8, 88320, Note_on_c, 2, 66, 60
8, 88710, Note_off_c, 2, 66, 64
8, 88710, Note_off_c, 2, 62, 64
8, 88710, Note_off_c, 2, 71, 64
8, 88710, Note_off_c, 2, 57, 64
8, 88730, Note_on_c, 2, 59, 60
8, 88730, Note_on_c, 2, 71, 60
8, 88730, Note_on_c, 2, 62, 60
8, 88730, Note_on_c, 2, 66, 60
8, 89190, Note_off_c, 2, 66, 64
8, 89190, Note_off_c, 2, 62, 64
8, 89190, Note_off_c, 2, 71, 64
8, 89190, Note_off_c, 2, 59, 64
8, 89210, Note_on_c, 2, 66, 60
8, 89210, Note_on_c, 2, 68, 60
8, 89210, Note_on_c, 2, 59, 60
8, 89210, Note_on_c, 2, 62, 60
8, 89756, Note_off_c, 2, 62, 64
8, 89756, Note_off_c, 2, 59, 64
8, 89756, Note_off_c, 2, 68, 64
8, 89756, Note_off_c, 2, 66, 64
8, 89936, Note_on_c, 2, 86, 55
8, 89936, Note_on_c, 2, 74, 52
8, 89936, Note_on_c, 2, 66, 50
8, 89936, Note_on_c, 2, 55, 40
8, 89936, Note_on_c, 2, 62, 38
8, 89936, Note_on_c, 2, 59, 57
8, 90150, Note_off_c, 2, 59, 64
8, 90150, Note_off_c, 2, 62, 64
8, 90150, Note_off_c, 2, 55, 64
8, 90150, Note_off_c, 2, 66, 64
8, 90150, Note_off_c, 2, 74, 64
8, 90150, Note_off_c, 2, 86, 64
8, 90170, Note_on_c, 2, 59, 60
8, 90170, Note_on_c, 2, 64, 60
8, 90170, Note_on_c, 2, 66, 60
8, 90170, Note_on_c, 2, 69, 60
8, 90716, Note_off_c, 2, 69, 64
8, 90716, Note_off_c, 2, 66, 64
8, 90716, Note_off_c, 2, 64, 64
8, 90716, Note_off_c, 2, 59, 64
8, 90720, Note_on_c, 2, 62, 60
8, 90720, Note_on_c, 2, 65, 60
8, 90720, Note_on_c, 2, 56, 60
8, 90720, Note_on_c, 2, 71, 60
8, 91200, Note_off_c, 2, 71, 64
8, 91200, Note_off_c, 2, 56, 64
8, 91200, Note_off_c, 2, 65, 64
8, 91200, Note_off_c, 2, 62, 64
8, 91200, Note_on_c, 2, 62, 60
8, 91200, Note_on_c, 2, 66, 60
8, 91200, Note_on_c, 2, 55, 60
8, 91200, Note_on_c, 2, 71, 60
8, 91680, Note_off_c, 2, 71, 64
8, 91680, Note_off_c, 2, 55, 64
8, 91680, Note_off_c, 2, 66, 64
8, 91680, Note_off_c, 2, 62, 64
8, 91856, Note_on_c, 2, 82, 55
8, 91856, Note_on_c, 2, 70, 52
8, 91856, Note_on_c, 2, 61, 50
8, 91856, Note_on_c, 2, 53, 40
8, 91856, Note_on_c, 2, 58, 38
8, 91856, Note_on_c, 2, 55, 57
8, 92160, Note_off_c, 2, 55, 64
8, 92160, Note_off_c, 2, 58, 64
8, 92160, Note_off_c, 2, 53, 64
8, 92160, Note_off_c, 2, 61, 64
8, 92160, Note_off_c, 2, 70, 64
8, 92160, Note_off_c, 2, 82, 64
8, 92160, Note_on_c, 2, 59, 60
8, 92160, Note_on_c, 2, 64, 60
8, 92160, Note_on_c, 2, 54, 60
8, 92160, Note_on_c, 2, 69, 60
8, 93030, Note_off_c, 2, 69, 64
8, 93030, Note_off_c, 2, 54, 64
8, 93030, Note_off_c, 2, 64, 64
8, 93030, Note_off_c, 2, 59, 64
8, 93360, Note_on_c, 2, 59, 44
8, 93360, Note_on_c, 2, 64, 44
8, 93360, Note_on_c, 2, 54, 44
8, 93360, Note_on_c, 2, 69, 44
8, 93492, Note_off_c, 2, 69, 64
8, 93492, Note_off_c, 2, 54, 64
8, 93492, Note_off_c, 2, 64, 64
8, 93492, Note_off_c, 2, 59, 64
8, 93528, Note_on_c, 2, 59, 46
8, 93528, Note_on_c, 2, 64, 46
8, 93528, Note_on_c, 2, 54, 46
8, 93528, Note_on_c, 2, 69, 46
8, 93600, Note_off_c, 2, 69, 64
8, 93600, Note_off_c, 2, 54, 64
8, 93600, Note_off_c, 2, 64, 64
8, 93600, Note_off_c, 2, 59, 64
8, 93600, Note_on_c, 2, 59, 52
8, 93600, Note_on_c, 2, 64, 52
8, 93600, Note_on_c, 2, 54, 52
8, 93600, Note_on_c, 2, 69, 52
8, 93710, Note_off_c, 2, 69, 64
8, 93710, Note_off_c, 2, 54, 64
8, 93710, Note_off_c, 2, 64, 64
8, 93710, Note_off_c, 2, 59, 64
8, 93768, Note_on_c, 2, 59, 61
8, 93768, Note_on_c, 2, 64, 61
8, 93768, Note_on_c, 2, 54, 61
8, 93768, Note_on_c, 2, 69, 61
8, 93840, Note_off_c, 2, 69, 64
8, 93840, Note_off_c, 2, 54, 64
8, 93840, Note_off_c, 2, 64, 64
8, 93840, Note_off_c, 2, 59, 64
8, 93840, Note_on_c, 2, 59, 72
8, 93840, Note_on_c, 2, 64, 72
8, 93840, Note_on_c, 2, 54, 72
8, 93840, Note_on_c, 2, 69, 72
8, 93958, Note_off_c, 2, 69, 64
8, 93958, Note_off_c, 2, 54, 64
8, 93958, Note_off_c, 2, 64, 64
8, 93958, Note_off_c, 2, 59, 64
8, 94080, Note_on_c, 2, 66, 73
8, 94080, Note_on_c, 2, 69, 71
8, 94080, Note_on_c, 2, 76, 86
8, 94080, Note_on_c, 2, 59, 80
8, 94080, Note_on_c, 2, 57, 66
8, 94080, Note_on_c, 2, 64, 59
8, 94132, Note_off_c, 2, 64, 64
8, 94132, Note_off_c, 2, 59, 64
8, 94132, Note_off_c, 2, 76, 64
8, 94138, Note_off_c, 2, 66, 64
8, 94144, Note_off_c, 2, 57, 64
8, 94144, Note_off_c, 2, 69, 64
8, 94560, Note_on_c, 2, 81, 79
8, 94560, Note_on_c, 2, 59, 70
8, 94560, Note_on_c, 2, 66, 60
8, 94560, Note_on_c, 2, 76, 69
8, 94560, Note_on_c, 2, 57, 54
8, 94560, Note_on_c, 2, 64, 53
8, 94606, Note_off_c, 2, 64, 64
8, 94618, Note_off_c, 2, 59, 64
8, 94624, Note_off_c, 2, 57, 64
8, 94624, Note_off_c, 2, 66, 64
8, 94624, Note_off_c, 2, 81, 64
8, 94630, Note_off_c, 2, 76, 64
8, 95040, Note_on_c, 2, 59, 79
8, 95040, Note_on_c, 2, 66, 64
8, 95040, Note_on_c, 2, 76, 71
8, 95040, Note_on_c, 2, 57, 58
8, 95040, Note_on_c, 2, 81, 73
8, 95040, Note_on_c, 2, 64, 48
8, 95040, Note_on_c, 2, 88, 65
8, 95088, Note_off_c, 2, 64, 64
8, 95094, Note_off_c, 2, 81, 64
8, 95104, Note_off_c, 2, 88, 64
8, 95104, Note_off_c, 2, 57, 64
8, 95104, Note_off_c, 2, 76, 64
8, 95104, Note_off_c, 2, 59, 64
8, 95106, Note_off_c, 2, 66, 64
8, 95452, Note_on_c, 2, 59, 68
8, 95452, Note_on_c, 2, 66, 51
8, 95452, Note_on_c, 2, 57, 50
8, 95452, Note_on_c, 2, 81, 66
8, 95452, Note_on_c, 2, 76, 56
8, 95452, Note_on_c, 2, 88, 66
8, 95452, Note_on_c, 2, 64, 34
8, 95872, Note_off_c, 2, 81, 64
8, 95876, Note_off_c, 2, 76, 64
8, 95882, Note_off_c, 2, 88, 64
8, 95900, Note_off_c, 2, 59, 64
8, 95906, Note_off_c, 2, 64, 64
8, 95906, Note_off_c, 2, 57, 64
8, 95912, Note_off_c, 2, 66, 64
8, 96000, Control_c, 2, 64, 0
8, 96000, End_track
9, 0, Start_track
9, 0, Title_t, "Melody / Rhodes piano"
9, 0, Control_c, 3, 0, 0
9, 0, Control_c, 3, 32, 0
9, 0, Program_c, 3, 0
9, 0, Control_c, 3, 7, 90
9, 0, Control_c, 3, 93, 10
9, 0, Control_c, 3, 91, 50
9, 0, Control_c, 3, 10, 64
9, 0, Control_c, 3, 123, 0
9, 1920, Note_on_c, 3, 64, 105
9, 2176, Note_off_c, 3, 64, 64
9, 2240, Note_on_c, 3, 64, 105
9, 2304, Note_off_c, 3, 64, 64
9, 2320, Note_on_c, 3, 62, 105
9, 2384, Note_off_c, 3, 62, 64
9, 2400, Note_on_c, 3, 64, 105
9, 2528, Note_off_c, 3, 64, 64
9, 2560, Note_on_c, 3, 66, 105
9, 3392, Note_off_c, 3, 66, 64
9, 3600, Note_on_c, 3, 57, 105
9, 3792, Note_off_c, 3, 57, 64
9, 3840, Note_on_c, 3, 64, 105
9, 4096, Note_off_c, 3, 64, 64
9, 4160, Note_on_c, 3, 64, 105
9, 4224, Note_off_c, 3, 64, 64
9, 4240, Note_on_c, 3, 62, 105
9, 4304, Note_off_c, 3, 62, 64
9, 4320, Note_on_c, 3, 64, 105
9, 4448, Note_off_c, 3, 64, 64
9, 4480, Note_on_c, 3, 57, 105
9, 5312, Note_off_c, 3, 57, 64
9, 5520, Note_on_c, 3, 57, 105
9, 5712, Note_off_c, 3, 57, 64
9, 5760, Note_on_c, 3, 66, 105
9, 6016, Note_off_c, 3, 66, 64
9, 6080, Note_on_c, 3, 66, 105
9, 6144, Note_off_c, 3, 66, 64
9, 6160, Note_on_c, 3, 65, 105
9, 6224, Note_off_c, 3, 65, 64
9, 6240, Note_on_c, 3, 66, 105
9, 6432, Note_off_c, 3, 66, 64
9, 6480, Note_on_c, 3, 67, 105
9, 6672, Note_off_c, 3, 67, 64
9, 6720, Note_on_c, 3, 69, 105
9, 6976, Note_off_c, 3, 69, 64
9, 7040, Note_on_c, 3, 69, 105
9, 7104, Note_off_c, 3, 69, 64
9, 7120, Note_on_c, 3, 68, 105
9, 7184, Note_off_c, 3, 68, 64
9, 7200, Note_on_c, 3, 69, 105
9, 7392, Note_off_c, 3, 69, 64
9, 7440, Note_on_c, 3, 71, 105
9, 7632, Note_off_c, 3, 71, 64
9, 7680, Note_on_c, 3, 72, 105
9, 7936, Note_off_c, 3, 72, 64
9, 8000, Note_on_c, 3, 72, 105
9, 8064, Note_off_c, 3, 72, 64
9, 8080, Note_on_c, 3, 71, 105
9, 8144, Note_off_c, 3, 71, 64
9, 8160, Note_on_c, 3, 72, 105
9, 8288, Note_off_c, 3, 72, 64
9, 8320, Note_on_c, 3, 64, 105
9, 9152, Note_off_c, 3, 64, 64
9, 9360, Note_on_c, 3, 62, 105
9, 9552, Note_off_c, 3, 62, 64
9, 9600, Note_on_c, 3, 71, 105
9, 9856, Note_off_c, 3, 71, 64
9, 9920, Note_on_c, 3, 71, 105
9, 9984, Note_off_c, 3, 71, 64
9, 10000, Note_on_c, 3, 70, 105
9, 10064, Note_off_c, 3, 70, 64
9, 10080, Note_on_c, 3, 71, 105
9, 10208, Note_off_c, 3, 71, 64
9, 10240, Note_on_c, 3, 74, 105
9, 11072, Note_off_c, 3, 74, 64
9, 11280, Note_on_c, 3, 76, 105
9, 11472, Note_off_c, 3, 76, 64
9, 11520, Note_on_c, 3, 73, 105
9, 11776, Note_off_c, 3, 73, 64
9, 11840, Note_on_c, 3, 73, 105
9, 11904, Note_off_c, 3, 73, 64
9, 11920, Note_on_c, 3, 72, 105
9, 11984, Note_off_c, 3, 72, 64
9, 12000, Note_on_c, 3, 73, 105
9, 12128, Note_off_c, 3, 73, 64
9, 12160, Note_on_c, 3, 62, 105
9, 12992, Note_off_c, 3, 62, 64
9, 13200, Note_on_c, 3, 62, 105
9, 13392, Note_off_c, 3, 62, 64
9, 13440, Note_on_c, 3, 71, 105
9, 13696, Note_off_c, 3, 71, 64
9, 13760, Note_on_c, 3, 71, 105
9, 13824, Note_off_c, 3, 71, 64
9, 13840, Note_on_c, 3, 70, 105
9, 13904, Note_off_c, 3, 70, 64
9, 13920, Note_on_c, 3, 71, 105
9, 14112, Note_off_c, 3, 71, 64
9, 14160, Note_on_c, 3, 67, 105
9, 14352, Note_off_c, 3, 67, 64
9, 14400, Note_on_c, 3, 69, 105
9, 14656, Note_off_c, 3, 69, 64
9, 14720, Note_on_c, 3, 69, 105
9, 14784, Note_off_c, 3, 69, 64
9, 14800, Note_on_c, 3, 68, 105
9, 14864, Note_off_c, 3, 68, 64
9, 14880, Note_on_c, 3, 69, 105
9, 15072, Note_off_c, 3, 69, 64
9, 15120, Note_on_c, 3, 66, 105
9, 15312, Note_off_c, 3, 66, 64
9, 15360, Note_on_c, 3, 64, 105
9, 15616, Note_off_c, 3, 64, 64
9, 15680, Note_on_c, 3, 64, 105
9, 15744, Note_off_c, 3, 64, 64
9, 15760, Note_on_c, 3, 63, 105
9, 15824, Note_off_c, 3, 63, 64
9, 15840, Note_on_c, 3, 64, 105
9, 15968, Note_off_c, 3, 64, 64
9, 16000, Note_on_c, 3, 67, 105
9, 16832, Note_off_c, 3, 67, 64
9, 17040, Note_on_c, 3, 57, 105
9, 17270, Note_off_c, 3, 57, 64
9, 17280, Note_on_c, 3, 64, 105
9, 17536, Note_off_c, 3, 64, 64
9, 17600, Note_on_c, 3, 64, 105
9, 17664, Note_off_c, 3, 64, 64
9, 17680, Note_on_c, 3, 62, 105
9, 17744, Note_off_c, 3, 62, 64
9, 17760, Note_on_c, 3, 64, 105
9, 17888, Note_off_c, 3, 64, 64
9, 17920, Note_on_c, 3, 66, 105
9, 18752, Note_off_c, 3, 66, 64
9, 18960, Note_on_c, 3, 57, 105
9, 19152, Note_off_c, 3, 57, 64
9, 19200, Note_on_c, 3, 64, 105
9, 19456, Note_off_c, 3, 64, 64
9, 19520, Note_on_c, 3, 64, 105
9, 19584, Note_off_c, 3, 64, 64
9, 19600, Note_on_c, 3, 62, 105
9, 19664, Note_off_c, 3, 62, 64
9, 19680, Note_on_c, 3, 64, 105
9, 19808, Note_off_c, 3, 64, 64
9, 19840, Note_on_c, 3, 57, 105
9, 20672, Note_off_c, 3, 57, 64
9, 20880, Note_on_c, 3, 57, 105
9, 21072, Note_off_c, 3, 57, 64
9, 21120, Note_on_c, 3, 66, 105
9, 21376, Note_off_c, 3, 66, 64
9, 21440, Note_on_c, 3, 66, 105
9, 21504, Note_off_c, 3, 66, 64
9, 21520, Note_on_c, 3, 65, 105
9, 21584, Note_off_c, 3, 65, 64
9, 21600, Note_on_c, 3, 66, 105
9, 21792, Note_off_c, 3, 66, 64
9, 21840, Note_on_c, 3, 67, 105
9, 22032, Note_off_c, 3, 67, 64
9, 22080, Note_on_c, 3, 69, 105
9, 22336, Note_off_c, 3, 69, 64
9, 22400, Note_on_c, 3, 69, 105
9, 22464, Note_off_c, 3, 69, 64
9, 22480, Note_on_c, 3, 68, 105
9, 22544, Note_off_c, 3, 68, 64
9, 22560, Note_on_c, 3, 69, 105
9, 22752, Note_off_c, 3, 69, 64
9, 22800, Note_on_c, 3, 71, 105
9, 22992, Note_off_c, 3, 71, 64
9, 23040, Note_on_c, 3, 72, 105
9, 23296, Note_off_c, 3, 72, 64
9, 23360, Note_on_c, 3, 72, 105
9, 23424, Note_off_c, 3, 72, 64
9, 23440, Note_on_c, 3, 71, 105
9, 23504, Note_off_c, 3, 71, 64
9, 23520, Note_on_c, 3, 72, 105
9, 23648, Note_off_c, 3, 72, 64
9, 23680, Note_on_c, 3, 64, 105
9, 24512, Note_off_c, 3, 64, 64
9, 24720, Note_on_c, 3, 62, 105
9, 24912, Note_off_c, 3, 62, 64
9, 24960, Note_on_c, 3, 71, 105
9, 25216, Note_off_c, 3, 71, 64
9, 25280, Note_on_c, 3, 71, 105
9, 25344, Note_off_c, 3, 71, 64
9, 25360, Note_on_c, 3, 70, 105
9, 25424, Note_off_c, 3, 70, 64
9, 25440, Note_on_c, 3, 71, 105
9, 25568, Note_off_c, 3, 71, 64
9, 25600, Note_on_c, 3, 74, 105
9, 26432, Note_off_c, 3, 74, 64
9, 26640, Note_on_c, 3, 66, 105
9, 26832, Note_off_c, 3, 66, 64
9, 26880, Note_on_c, 3, 73, 105
9, 27136, Note_off_c, 3, 73, 64
9, 27200, Note_on_c, 3, 73, 105
9, 27264, Note_off_c, 3, 73, 64
9, 27280, Note_on_c, 3, 71, 105
9, 27344, Note_off_c, 3, 71, 64
9, 27360, Note_on_c, 3, 73, 105
9, 27488, Note_off_c, 3, 73, 64
9, 27520, Note_on_c, 3, 74, 105
9, 28352, Note_off_c, 3, 74, 64
9, 28560, Note_on_c, 3, 71, 105
9, 28752, Note_off_c, 3, 71, 64
9, 28800, Note_on_c, 3, 74, 105
9, 29056, Note_off_c, 3, 74, 64
9, 29120, Note_on_c, 3, 74, 105
9, 29184, Note_off_c, 3, 74, 64
9, 29200, Note_on_c, 3, 73, 105
9, 29264, Note_off_c, 3, 73, 64
9, 29280, Note_on_c, 3, 74, 105
9, 29408, Note_off_c, 3, 74, 64
9, 29440, Note_on_c, 3, 74, 105
9, 29568, Note_off_c, 3, 74, 64
9, 29600, Note_on_c, 3, 76, 105
9, 29728, Note_off_c, 3, 76, 64
9, 29760, Note_on_c, 3, 78, 105
9, 30200, Note_off_c, 3, 78, 64
9, 30240, Note_on_c, 3, 73, 105
9, 30450, Note_off_c, 3, 73, 64
9, 30480, Note_on_c, 3, 73, 105
9, 30608, Note_off_c, 3, 73, 64
9, 30640, Note_on_c, 3, 74, 105
9, 32438, Note_off_c, 3, 74, 64
9, 63360, Note_on_c, 3, 64, 105
9, 63616, Note_off_c, 3, 64, 64
9, 63680, Note_on_c, 3, 64, 105
9, 63744, Note_off_c, 3, 64, 64
9, 63760, Note_on_c, 3, 62, 105
9, 63824, Note_off_c, 3, 62, 64
9, 63840, Note_on_c, 3, 64, 105
9, 63968, Note_off_c, 3, 64, 64
9, 64000, Note_on_c, 3, 66, 105
9, 64832, Note_off_c, 3, 66, 64
9, 65040, Note_on_c, 3, 57, 105
9, 65232, Note_off_c, 3, 57, 64
9, 65280, Note_on_c, 3, 64, 105
9, 65536, Note_off_c, 3, 64, 64
9, 65600, Note_on_c, 3, 64, 105
9, 65664, Note_off_c, 3, 64, 64
9, 65680, Note_on_c, 3, 62, 105
9, 65744, Note_off_c, 3, 62, 64
9, 65760, Note_on_c, 3, 64, 105
9, 65888, Note_off_c, 3, 64, 64
9, 65920, Note_on_c, 3, 57, 105
9, 66752, Note_off_c, 3, 57, 64
9, 66960, Note_on_c, 3, 57, 105
9, 67152, Note_off_c, 3, 57, 64
9, 67200, Note_on_c, 3, 66, 105
9, 67456, Note_off_c, 3, 66, 64
9, 67520, Note_on_c, 3, 66, 105
9, 67584, Note_off_c, 3, 66, 64
9, 67600, Note_on_c, 3, 65, 105
9, 67664, Note_off_c, 3, 65, 64
9, 67680, Note_on_c, 3, 66, 105
9, 67872, Note_off_c, 3, 66, 64
9, 67920, Note_on_c, 3, 67, 105
9, 68112, Note_off_c, 3, 67, 64
9, 68160, Note_on_c, 3, 69, 105
9, 68416, Note_off_c, 3, 69, 64
9, 68480, Note_on_c, 3, 69, 105
9, 68544, Note_off_c, 3, 69, 64
9, 68560, Note_on_c, 3, 68, 105
9, 68624, Note_off_c, 3, 68, 64
9, 68640, Note_on_c, 3, 69, 105
9, 68832, Note_off_c, 3, 69, 64
9, 68880, Note_on_c, 3, 71, 105
9, 69072, Note_off_c, 3, 71, 64
9, 69120, Note_on_c, 3, 72, 105
9, 69376, Note_off_c, 3, 72, 64
9, 69440, Note_on_c, 3, 72, 105
9, 69504, Note_off_c, 3, 72, 64
9, 69520, Note_on_c, 3, 71, 105
9, 69584, Note_off_c, 3, 71, 64
9, 69600, Note_on_c, 3, 72, 105
9, 69728, Note_off_c, 3, 72, 64
9, 69760, Note_on_c, 3, 64, 105
9, 70592, Note_off_c, 3, 64, 64
9, 70800, Note_on_c, 3, 62, 105
9, 70992, Note_off_c, 3, 62, 64
9, 71040, Note_on_c, 3, 71, 105
9, 71296, Note_off_c, 3, 71, 64
9, 71360, Note_on_c, 3, 71, 105
9, 71424, Note_off_c, 3, 71, 64
9, 71440, Note_on_c, 3, 70, 105
9, 71504, Note_off_c, 3, 70, 64
9, 71520, Note_on_c, 3, 71, 105
9, 71648, Note_off_c, 3, 71, 64
9, 71680, Note_on_c, 3, 74, 105
9, 72512, Note_off_c, 3, 74, 64
9, 72720, Note_on_c, 3, 76, 105
9, 72912, Note_off_c, 3, 76, 64
9, 72960, Note_on_c, 3, 73, 105
9, 73216, Note_off_c, 3, 73, 64
9, 73280, Note_on_c, 3, 73, 105
9, 73344, Note_off_c, 3, 73, 64
9, 73360, Note_on_c, 3, 72, 105
9, 73424, Note_off_c, 3, 72, 64
9, 73440, Note_on_c, 3, 73, 105
9, 73568, Note_off_c, 3, 73, 64
9, 73600, Note_on_c, 3, 62, 105
9, 74432, Note_off_c, 3, 62, 64
9, 74640, Note_on_c, 3, 62, 105
9, 74832, Note_off_c, 3, 62, 64
9, 74880, Note_on_c, 3, 71, 105
9, 75136, Note_off_c, 3, 71, 64
9, 75200, Note_on_c, 3, 71, 105
9, 75264, Note_off_c, 3, 71, 64
9, 75280, Note_on_c, 3, 70, 105
9, 75344, Note_off_c, 3, 70, 64
9, 75360, Note_on_c, 3, 71, 105
9, 75552, Note_off_c, 3, 71, 64
9, 75600, Note_on_c, 3, 67, 105
9, 75792, Note_off_c, 3, 67, 64
9, 75840, Note_on_c, 3, 69, 105
9, 76096, Note_off_c, 3, 69, 64
9, 76160, Note_on_c, 3, 69, 105
9, 76224, Note_off_c, 3, 69, 64
9, 76240, Note_on_c, 3, 68, 105
9, 76304, Note_off_c, 3, 68, 64
9, 76320, Note_on_c, 3, 69, 105
9, 76512, Note_off_c, 3, 69, 64
9, 76560, Note_on_c, 3, 66, 105
9, 76752, Note_off_c, 3, 66, 64
9, 76800, Note_on_c, 3, 64, 105
9, 77056, Note_off_c, 3, 64, 64
9, 77120, Note_on_c, 3, 64, 105
9, 77184, Note_off_c, 3, 64, 64
9, 77200, Note_on_c, 3, 63, 105
9, 77264, Note_off_c, 3, 63, 64
9, 77280, Note_on_c, 3, 64, 105
9, 77408, Note_off_c, 3, 64, 64
9, 77440, Note_on_c, 3, 67, 105
9, 78272, Note_off_c, 3, 67, 64
9, 78480, Note_on_c, 3, 57, 105
9, 78710, Note_off_c, 3, 57, 64
9, 78720, Note_on_c, 3, 64, 105
9, 78976, Note_off_c, 3, 64, 64
9, 79040, Note_on_c, 3, 64, 105
9, 79104, Note_off_c, 3, 64, 64
9, 79120, Note_on_c, 3, 62, 105
9, 79184, Note_off_c, 3, 62, 64
9, 79200, Note_on_c, 3, 64, 105
9, 79328, Note_off_c, 3, 64, 64
9, 79360, Note_on_c, 3, 66, 105
9, 80192, Note_off_c, 3, 66, 64
9, 80400, Note_on_c, 3, 57, 105
9, 80592, Note_off_c, 3, 57, 64
9, 80640, Note_on_c, 3, 64, 105
9, 80896, Note_off_c, 3, 64, 64
9, 80960, Note_on_c, 3, 64, 105
9, 81024, Note_off_c, 3, 64, 64
9, 81040, Note_on_c, 3, 62, 105
9, 81104, Note_off_c, 3, 62, 64
9, 81120, Note_on_c, 3, 64, 105
9, 81248, Note_off_c, 3, 64, 64
9, 81280, Note_on_c, 3, 57, 105
9, 82112, Note_off_c, 3, 57, 64
9, 82320, Note_on_c, 3, 57, 105
9, 82512, Note_off_c, 3, 57, 64
9, 82560, Note_on_c, 3, 66, 105
9, 82816, Note_off_c, 3, 66, 64
9, 82880, Note_on_c, 3, 66, 105
9, 82944, Note_off_c, 3, 66, 64
9, 82960, Note_on_c, 3, 65, 105
9, 83024, Note_off_c, 3, 65, 64
9, 83040, Note_on_c, 3, 66, 105
9, 83232, Note_off_c, 3, 66, 64
9, 83280, Note_on_c, 3, 67, 105
9, 83472, Note_off_c, 3, 67, 64
9, 83520, Note_on_c, 3, 69, 105
9, 83776, Note_off_c, 3, 69, 64
9, 83840, Note_on_c, 3, 69, 105
9, 83904, Note_off_c, 3, 69, 64
9, 83920, Note_on_c, 3, 68, 105
9, 83984, Note_off_c, 3, 68, 64
9, 84000, Note_on_c, 3, 69, 105
9, 84192, Note_off_c, 3, 69, 64
9, 84240, Note_on_c, 3, 71, 105
9, 84432, Note_off_c, 3, 71, 64
9, 84480, Note_on_c, 3, 72, 105
9, 84736, Note_off_c, 3, 72, 64
9, 84800, Note_on_c, 3, 72, 105
9, 84864, Note_off_c, 3, 72, 64
9, 84880, Note_on_c, 3, 71, 105
9, 84944, Note_off_c, 3, 71, 64
9, 84960, Note_on_c, 3, 72, 105
9, 85088, Note_off_c, 3, 72, 64
9, 85120, Note_on_c, 3, 64, 105
9, 85952, Note_off_c, 3, 64, 64
9, 86160, Note_on_c, 3, 62, 105
9, 86352, Note_off_c, 3, 62, 64
9, 86400, Note_on_c, 3, 71, 105
9, 86656, Note_off_c, 3, 71, 64
9, 86720, Note_on_c, 3, 71, 105
9, 86784, Note_off_c, 3, 71, 64
9, 86800, Note_on_c, 3, 70, 105
9, 86864, Note_off_c, 3, 70, 64
9, 86880, Note_on_c, 3, 71, 105
9, 87008, Note_off_c, 3, 71, 64
9, 87040, Note_on_c, 3, 74, 105
9, 87872, Note_off_c, 3, 74, 64
9, 88080, Note_on_c, 3, 66, 105
9, 88272, Note_off_c, 3, 66, 64
9, 88320, Note_on_c, 3, 73, 105
9, 88576, Note_off_c, 3, 73, 64
9, 88640, Note_on_c, 3, 73, 105
9, 88704, Note_off_c, 3, 73, 64
9, 88720, Note_on_c, 3, 71, 105
9, 88784, Note_off_c, 3, 71, 64
9, 88800, Note_on_c, 3, 73, 105
9, 88928, Note_off_c, 3, 73, 64
9, 88960, Note_on_c, 3, 74, 105
9, 89792, Note_off_c, 3, 74, 64
9, 90000, Note_on_c, 3, 71, 105
9, 90192, Note_off_c, 3, 71, 64
9, 90240, Note_on_c, 3, 74, 105
9, 90496, Note_off_c, 3, 74, 64
9, 90560, Note_on_c, 3, 74, 105
9, 90624, Note_off_c, 3, 74, 64
9, 90640, Note_on_c, 3, 73, 105
9, 90704, Note_off_c, 3, 73, 64
9, 90720, Note_on_c, 3, 74, 105
9, 90848, Note_off_c, 3, 74, 64
9, 90880, Note_on_c, 3, 74, 105
9, 91008, Note_off_c, 3, 74, 64
9, 91040, Note_on_c, 3, 76, 105
9, 91168, Note_off_c, 3, 76, 64
9, 91200, Note_on_c, 3, 78, 105
9, 91640, Note_off_c, 3, 78, 64
9, 91680, Note_on_c, 3, 73, 105
9, 91890, Note_off_c, 3, 73, 64
9, 91920, Note_on_c, 3, 73, 105
9, 92048, Note_off_c, 3, 73, 64
9, 92080, Note_on_c, 3, 74, 105
9, 93878, Note_off_c, 3, 74, 64
9, 93878, End_track
10, 0, Start_track
10, 0, Title_t, "Solo / Acoustic piano"
10, 0, Control_c, 4, 0, 0
10, 0, Control_c, 4, 32, 0
10, 0, Program_c, 4, 0
10, 0, Control_c, 4, 7, 90
10, 0, Control_c, 4, 91, 40
10, 0, Control_c, 4, 10, 64
10, 0, Control_c, 4, 123, 0
10, 0, Control_c, 4, 93, 0
10, 0, Program_c, 4, 0
10, 33826, Note_on_c, 4, 78, 114
10, 33936, Note_off_c, 4, 78, 64
10, 33994, Note_on_c, 4, 81, 127
10, 34062, Note_off_c, 4, 81, 64
10, 34104, Note_on_c, 4, 83, 126
10, 34194, Note_off_c, 4, 83, 64
10, 34236, Note_on_c, 4, 79, 126
10, 34332, Note_off_c, 4, 79, 64
10, 34340, Note_on_c, 4, 75, 93
10, 34468, Note_off_c, 4, 75, 64
10, 34508, Note_on_c, 4, 71, 71
10, 34558, Note_off_c, 4, 71, 64
10, 34574, Note_on_c, 4, 67, 114
10, 34676, Note_off_c, 4, 67, 64
10, 34714, Note_on_c, 4, 69, 126
10, 34794, Note_off_c, 4, 69, 64
10, 34822, Note_on_c, 4, 67, 108
10, 34906, Note_off_c, 4, 67, 64
10, 34960, Note_on_c, 4, 66, 127
10, 35028, Note_off_c, 4, 66, 64
10, 35064, Note_on_c, 4, 64, 84
10, 35158, Note_off_c, 4, 64, 64
10, 35198, Note_on_c, 4, 66, 118
10, 35272, Note_off_c, 4, 66, 64
10, 35288, Note_on_c, 4, 67, 99
10, 35386, Note_off_c, 4, 67, 64
10, 35428, Note_on_c, 4, 69, 124
10, 35490, Note_off_c, 4, 69, 64
10, 35534, Note_on_c, 4, 71, 110
10, 35622, Note_off_c, 4, 71, 64
10, 35676, Note_on_c, 4, 67, 119
10, 35752, Note_off_c, 4, 67, 64
10, 35772, Note_on_c, 4, 64, 84
10, 35896, Note_off_c, 4, 64, 64
10, 35924, Note_on_c, 4, 62, 73
10, 35970, Note_off_c, 4, 62, 64
10, 35998, Note_on_c, 4, 69, 118
10, 36094, Note_off_c, 4, 69, 64
10, 36152, Note_on_c, 4, 68, 126
10, 36212, Note_off_c, 4, 68, 64
10, 36246, Note_on_c, 4, 67, 105
10, 36344, Note_off_c, 4, 67, 64
10, 36400, Note_on_c, 4, 65, 119
10, 36468, Note_off_c, 4, 65, 64
10, 36514, Note_on_c, 4, 66, 95
10, 36690, Note_off_c, 4, 66, 64
10, 36736, Note_on_c, 4, 73, 127
10, 36884, Note_off_c, 4, 73, 64
10, 36918, Note_on_c, 4, 69, 53
10, 36960, Note_off_c, 4, 69, 64
10, 36976, Note_on_c, 4, 71, 99
10, 37128, Note_off_c, 4, 71, 64
10, 37152, Note_on_c, 4, 74, 124
10, 37246, Note_off_c, 4, 74, 64
10, 38882, Note_on_c, 4, 71, 100
10, 39008, Note_off_c, 4, 71, 64
10, 39042, Note_on_c, 4, 74, 109
10, 39098, Note_off_c, 4, 74, 64
10, 39134, Note_on_c, 4, 76, 116
10, 39214, Note_off_c, 4, 76, 64
10, 39266, Note_on_c, 4, 79, 127
10, 39350, Note_off_c, 4, 79, 64
10, 39378, Note_on_c, 4, 81, 109
10, 39460, Note_off_c, 4, 81, 64
10, 39522, Note_on_c, 4, 83, 127
10, 39588, Note_off_c, 4, 83, 64
10, 39618, Note_on_c, 4, 81, 96
10, 39742, Note_off_c, 4, 81, 64
10, 39770, Note_on_c, 4, 79, 64
10, 39818, Note_off_c, 4, 79, 64
10, 39842, Note_on_c, 4, 80, 101
10, 39950, Note_off_c, 4, 80, 64
10, 39996, Note_on_c, 4, 84, 127
10, 40074, Note_off_c, 4, 84, 64
10, 40088, Note_on_c, 4, 82, 88
10, 40196, Note_off_c, 4, 82, 64
10, 40244, Note_on_c, 4, 80, 81
10, 40292, Note_off_c, 4, 80, 64
10, 40338, Note_on_c, 4, 81, 121
10, 40444, Note_off_c, 4, 81, 64
10, 40480, Note_on_c, 4, 86, 127
10, 40542, Note_off_c, 4, 86, 64
10, 40584, Note_on_c, 4, 83, 103
10, 40668, Note_off_c, 4, 83, 64
10, 40726, Note_on_c, 4, 78, 89
10, 40784, Note_off_c, 4, 78, 64
10, 40820, Note_on_c, 4, 76, 99
10, 40890, Note_off_c, 4, 76, 64
10, 40954, Note_on_c, 4, 81, 127
10, 41016, Note_off_c, 4, 81, 64
10, 41054, Note_on_c, 4, 78, 85
10, 41144, Note_off_c, 4, 78, 64
10, 41198, Note_on_c, 4, 71, 89
10, 41284, Note_off_c, 4, 71, 64
10, 41298, Note_on_c, 4, 66, 65
10, 41378, Note_off_c, 4, 66, 64
10, 41432, Note_on_c, 4, 68, 114
10, 41512, Note_off_c, 4, 68, 64
10, 41526, Note_on_c, 4, 66, 75
10, 41638, Note_off_c, 4, 66, 64
10, 41682, Note_on_c, 4, 64, 75
10, 41758, Note_off_c, 4, 64, 64
10, 41776, Note_on_c, 4, 65, 89
10, 41868, Note_off_c, 4, 65, 64
10, 43214, Note_on_c, 4, 64, 110
10, 43338, Note_off_c, 4, 64, 64
10, 43384, Note_on_c, 4, 66, 109
10, 43494, Note_off_c, 4, 66, 64
10, 43542, Note_on_c, 4, 67, 127
10, 43642, Note_off_c, 4, 67, 64
10, 43694, Note_on_c, 4, 69, 125
10, 43828, Note_off_c, 4, 69, 64
10, 43864, Note_on_c, 4, 67, 121
10, 43972, Note_off_c, 4, 67, 64
10, 44014, Note_on_c, 4, 66, 96
10, 44128, Note_off_c, 4, 66, 64
10, 44188, Note_on_c, 4, 69, 106
10, 44278, Note_off_c, 4, 69, 64
10, 44326, Note_on_c, 4, 71, 109
10, 44398, Note_off_c, 4, 71, 64
10, 44436, Note_on_c, 4, 69, 105
10, 44486, Note_off_c, 4, 69, 64
10, 44570, Note_on_c, 4, 67, 103
10, 44646, Note_off_c, 4, 67, 64
10, 44648, Note_on_c, 4, 66, 98
10, 44756, Note_off_c, 4, 66, 64
10, 44824, Note_on_c, 4, 66, 106
10, 44920, Note_off_c, 4, 66, 64
10, 45068, Note_on_c, 4, 62, 110
10, 45118, Note_off_c, 4, 62, 64
10, 45154, Note_on_c, 4, 61, 89
10, 45264, Note_off_c, 4, 61, 64
10, 45312, Note_on_c, 4, 62, 100
10, 45364, Note_off_c, 4, 62, 64
10, 45406, Note_on_c, 4, 63, 89
10, 45482, Note_off_c, 4, 63, 64
10, 45550, Note_on_c, 4, 66, 105
10, 45612, Note_off_c, 4, 66, 64
10, 45634, Note_on_c, 4, 69, 98
10, 45716, Note_off_c, 4, 69, 64
10, 45780, Note_on_c, 4, 72, 127
10, 45820, Note_off_c, 4, 72, 64
10, 45860, Note_on_c, 4, 71, 98
10, 45934, Note_off_c, 4, 71, 64
10, 45938, Note_on_c, 4, 66, 59
10, 45976, Note_off_c, 4, 66, 64
10, 46006, Note_on_c, 4, 69, 119
10, 46060, Note_off_c, 4, 69, 64
10, 46092, Note_on_c, 4, 67, 108
10, 46192, Note_off_c, 4, 67, 64
10, 46242, Note_on_c, 4, 69, 124
10, 46304, Note_off_c, 4, 69, 64
10, 46346, Note_on_c, 4, 71, 98
10, 46432, Note_off_c, 4, 71, 64
10, 46480, Note_on_c, 4, 73, 116
10, 46550, Note_off_c, 4, 73, 64
10, 46584, Note_on_c, 4, 74, 86
10, 46668, Note_off_c, 4, 74, 64
10, 46694, Note_on_c, 4, 72, 123
10, 46774, Note_off_c, 4, 72, 64
10, 46808, Note_on_c, 4, 70, 95
10, 46924, Note_off_c, 4, 70, 64
10, 48168, Note_on_c, 4, 65, 104
10, 48234, Note_off_c, 4, 65, 64
10, 48236, Note_on_c, 4, 66, 64
10, 48308, Note_on_c, 4, 69, 108
10, 48312, Note_off_c, 4, 66, 64
10, 48388, Note_off_c, 4, 69, 64
10, 48390, Note_on_c, 4, 73, 88
10, 48422, Note_off_c, 4, 73, 64
10, 48472, Note_on_c, 4, 76, 127
10, 48640, Note_off_c, 4, 76, 64
10, 48654, Note_on_c, 4, 74, 119
10, 48828, Note_off_c, 4, 74, 64
10, 50314, Note_on_c, 4, 76, 106
10, 50346, Note_on_c, 4, 74, 105
10, 50378, Note_off_c, 4, 76, 64
10, 50420, Note_on_c, 4, 73, 106
10, 50436, Note_off_c, 4, 74, 64
10, 50498, Note_off_c, 4, 73, 64
10, 50566, Note_on_c, 4, 71, 127
10, 50626, Note_off_c, 4, 71, 64
10, 50668, Note_on_c, 4, 69, 99
10, 50780, Note_off_c, 4, 69, 64
10, 50802, Note_on_c, 4, 67, 85
10, 50876, Note_off_c, 4, 67, 64
10, 50918, Note_on_c, 4, 64, 85
10, 51004, Note_off_c, 4, 64, 64
10, 51048, Note_on_c, 4, 66, 109
10, 51112, Note_off_c, 4, 66, 64
10, 51154, Note_on_c, 4, 67, 93
10, 51230, Note_off_c, 4, 67, 64
10, 51284, Note_on_c, 4, 69, 110
10, 51356, Note_off_c, 4, 69, 64
10, 51400, Note_on_c, 4, 73, 123
10, 51496, Note_off_c, 4, 73, 64
10, 51546, Note_on_c, 4, 71, 81
10, 51596, Note_off_c, 4, 71, 64
10, 51618, Note_on_c, 4, 72, 119
10, 51708, Note_off_c, 4, 72, 64
10, 51776, Note_on_c, 4, 70, 109
10, 51836, Note_off_c, 4, 70, 64
10, 51870, Note_on_c, 4, 69, 85
10, 51936, Note_off_c, 4, 69, 64
10, 52012, Note_on_c, 4, 66, 108
10, 52076, Note_off_c, 4, 66, 64
10, 52108, Note_on_c, 4, 64, 70
10, 52244, Note_off_c, 4, 64, 64
10, 52260, Note_on_c, 4, 62, 58
10, 52322, Note_off_c, 4, 62, 64
10, 52338, Note_on_c, 4, 67, 120
10, 52434, Note_off_c, 4, 67, 64
10, 52496, Note_on_c, 4, 66, 120
10, 52576, Note_off_c, 4, 66, 64
10, 52592, Note_on_c, 4, 64, 95
10, 52688, Note_off_c, 4, 64, 64
10, 52746, Note_on_c, 4, 62, 109
10, 52802, Note_off_c, 4, 62, 64
10, 52820, Note_on_c, 4, 61, 95
10, 52922, Note_off_c, 4, 61, 64
10, 52970, Note_on_c, 4, 64, 114
10, 53028, Note_off_c, 4, 64, 64
10, 53064, Note_on_c, 4, 66, 106
10, 53160, Note_off_c, 4, 66, 64
10, 53196, Note_on_c, 4, 69, 127
10, 53240, Note_off_c, 4, 69, 64
10, 53316, Note_on_c, 4, 71, 88
10, 53394, Note_off_c, 4, 71, 64
10, 53456, Note_on_c, 4, 69, 106
10, 53516, Note_off_c, 4, 69, 64
10, 53546, Note_on_c, 4, 67, 78
10, 53646, Note_off_c, 4, 67, 64
10, 54634, Note_on_c, 4, 70, 106
10, 54692, Note_off_c, 4, 70, 64
10, 54750, Note_on_c, 4, 69, 75
10, 54840, Note_off_c, 4, 69, 64
10, 54900, Note_on_c, 4, 72, 111
10, 54966, Note_off_c, 4, 72, 64
10, 55000, Note_on_c, 4, 76, 86
10, 55088, Note_off_c, 4, 76, 64
10, 55138, Note_on_c, 4, 79, 114
10, 55196, Note_off_c, 4, 79, 64
10, 55242, Note_on_c, 4, 78, 79
10, 55324, Note_off_c, 4, 78, 64
10, 55376, Note_on_c, 4, 81, 105
10, 55420, Note_off_c, 4, 81, 64
10, 55472, Note_on_c, 4, 84, 119
10, 55548, Note_off_c, 4, 84, 64
10, 55602, Note_on_c, 4, 88, 113
10, 55666, Note_off_c, 4, 88, 64
10, 55708, Note_on_c, 4, 86, 105
10, 55788, Note_off_c, 4, 86, 64
10, 55942, Note_on_c, 4, 83, 85
10, 56020, Note_off_c, 4, 83, 64
10, 56086, Note_on_c, 4, 79, 103
10, 56146, Note_off_c, 4, 79, 64
10, 56172, Note_on_c, 4, 78, 75
10, 56292, Note_off_c, 4, 78, 64
10, 56336, Note_on_c, 4, 76, 40
10, 56386, Note_off_c, 4, 76, 64
10, 56558, Note_on_c, 4, 78, 79
10, 56626, Note_off_c, 4, 78, 64
10, 56638, Note_on_c, 4, 79, 101
10, 56758, Note_off_c, 4, 79, 64
10, 56814, Note_on_c, 4, 81, 103
10, 56878, Note_off_c, 4, 81, 64
10, 56886, Note_on_c, 4, 82, 96
10, 56984, Note_off_c, 4, 82, 64
10, 57046, Note_on_c, 4, 85, 116
10, 57120, Note_off_c, 4, 85, 64
10, 57140, Note_on_c, 4, 88, 101
10, 57226, Note_off_c, 4, 88, 64
10, 57274, Note_on_c, 4, 90, 121
10, 57326, Note_off_c, 4, 90, 64
10, 57364, Note_on_c, 4, 91, 127
10, 57486, Note_off_c, 4, 91, 64
10, 57512, Note_on_c, 4, 90, 78
10, 57544, Note_on_c, 4, 89, 95
10, 57558, Note_off_c, 4, 90, 64
10, 57598, Note_on_c, 4, 88, 93
10, 57610, Note_off_c, 4, 89, 64
10, 57712, Note_off_c, 4, 88, 64
10, 57762, Note_on_c, 4, 89, 118
10, 57812, Note_off_c, 4, 89, 64
10, 57834, Note_on_c, 4, 90, 110
10, 57960, Note_off_c, 4, 90, 64
10, 58008, Note_on_c, 4, 95, 127
10, 58064, Note_off_c, 4, 95, 64
10, 58090, Note_on_c, 4, 90, 94
10, 58208, Note_off_c, 4, 90, 64
10, 58318, Note_on_c, 4, 83, 90
10, 58448, Note_off_c, 4, 83, 64
10, 58556, Note_on_c, 4, 85, 127
10, 58648, Note_off_c, 4, 85, 64
10, 58718, Note_on_c, 4, 83, 123
10, 58806, Note_off_c, 4, 83, 64
10, 58814, Note_on_c, 4, 78, 71
10, 58934, Note_off_c, 4, 78, 64
10, 58974, Note_on_c, 4, 74, 48
10, 59018, Note_off_c, 4, 74, 64
10, 59072, Note_on_c, 4, 76, 120
10, 59156, Note_off_c, 4, 76, 64
10, 59226, Note_on_c, 4, 74, 125
10, 59280, Note_off_c, 4, 74, 64
10, 59308, Note_on_c, 4, 71, 103
10, 59378, Note_off_c, 4, 71, 64
10, 59440, Note_on_c, 4, 67, 125
10, 59508, Note_off_c, 4, 67, 64
10, 59548, Note_on_c, 4, 66, 109
10, 59628, Note_off_c, 4, 66, 64
10, 59690, Note_on_c, 4, 67, 127
10, 59748, Note_off_c, 4, 67, 64
10, 59800, Note_on_c, 4, 66, 99
10, 59876, Note_off_c, 4, 66, 64
10, 59930, Note_on_c, 4, 64, 95
10, 60004, Note_off_c, 4, 64, 64
10, 60038, Note_on_c, 4, 65, 93
10, 60126, Note_off_c, 4, 65, 64
10, 60182, Note_on_c, 4, 68, 94
10, 60234, Note_off_c, 4, 68, 64
10, 60246, Note_on_c, 4, 73, 126
10, 60362, Note_off_c, 4, 73, 64
10, 60404, Note_on_c, 4, 71, 113
10, 60486, Note_off_c, 4, 71, 64
10, 60508, Note_on_c, 4, 73, 69
10, 60596, Note_off_c, 4, 73, 64
10, 60644, Note_on_c, 4, 74, 114
10, 60714, Note_off_c, 4, 74, 64
10, 60764, Note_on_c, 4, 71, 58
10, 60860, Note_off_c, 4, 71, 64
10, 60890, Note_on_c, 4, 74, 93
10, 60968, Note_off_c, 4, 74, 64
10, 60968, Note_on_c, 4, 75, 109
10, 61090, Note_off_c, 4, 75, 64
10, 61142, Note_on_c, 4, 76, 93
10, 61188, Note_off_c, 4, 76, 64
10, 61200, Note_on_c, 4, 72, 84
10, 61370, Note_off_c, 4, 72, 64
10, 61386, Note_on_c, 4, 69, 59
10, 61428, Note_off_c, 4, 69, 64
10, 61476, Note_on_c, 4, 71, 95
10, 61614, Note_off_c, 4, 71, 64
10, 61682, Note_on_c, 4, 69, 80
10, 61828, Note_off_c, 4, 69, 64
10, 61910, Note_on_c, 4, 71, 115
10, 62238, Note_off_c, 4, 71, 64
10, 62320, Note_on_c, 4, 69, 126
10, 62400, Note_off_c, 4, 69, 64
10, 62416, Note_on_c, 4, 66, 75
10, 62550, Note_off_c, 4, 66, 64
10, 62580, Note_on_c, 4, 62, 49
10, 62624, Note_off_c, 4, 62, 64
10, 62636, Note_on_c, 4, 64, 96
10, 62772, Note_off_c, 4, 64, 64
10, 62818, Note_on_c, 4, 62, 63
10, 63018, Note_off_c, 4, 62, 64
10, 63018, End_track
11, 0, Start_track
11, 0, Title_t, "Strings / Slow strings"
11, 0, Control_c, 5, 0, 0
11, 0, Control_c, 5, 32, 0
11, 0, Program_c, 5, 49
11, 0, Control_c, 5, 7, 40
11, 0, Control_c, 5, 10, 64
11, 0, Control_c, 5, 123, 0
11, 0, Control_c, 5, 91, 120
11, 0, Control_c, 5, 93, 100
11, 0, Control_c, 5, 64, 0
11, 17280, Note_on_c, 5, 74, 52
11, 17280, Note_on_c, 5, 81, 42
11, 17280, Note_on_c, 5, 73, 66
11, 17280, Note_on_c, 5, 66, 43
11, 18240, Note_off_c, 5, 66, 64
11, 18240, Note_off_c, 5, 73, 64
11, 18240, Note_off_c, 5, 81, 64
11, 18240, Note_off_c, 5, 74, 64
11, 18240, Note_on_c, 5, 73, 52
11, 18240, Note_on_c, 5, 78, 42
11, 18240, Note_on_c, 5, 69, 66
11, 18240, Note_on_c, 5, 64, 43
11, 18720, Note_off_c, 5, 64, 64
11, 18720, Note_off_c, 5, 69, 64
11, 18720, Note_off_c, 5, 78, 64
11, 18720, Note_off_c, 5, 73, 64
11, 18720, Note_on_c, 5, 71, 52
11, 18720, Note_on_c, 5, 78, 42
11, 18720, Note_on_c, 5, 69, 66
11, 18720, Note_on_c, 5, 63, 43
11, 19200, Note_off_c, 5, 63, 64
11, 19200, Note_off_c, 5, 69, 64
11, 19200, Note_off_c, 5, 78, 64
11, 19200, Note_off_c, 5, 71, 64
11, 19200, Note_on_c, 5, 71, 52
11, 19200, Note_on_c, 5, 76, 42
11, 19200, Note_on_c, 5, 67, 66
11, 19200, Note_on_c, 5, 62, 43
11, 19680, Note_off_c, 5, 62, 64
11, 19680, Note_off_c, 5, 67, 64
11, 19680, Note_off_c, 5, 76, 64
11, 19680, Note_off_c, 5, 71, 64
11, 19680, Note_on_c, 5, 69, 52
11, 19680, Note_on_c, 5, 76, 42
11, 19680, Note_on_c, 5, 67, 66
11, 19680, Note_on_c, 5, 61, 43
11, 20160, Note_off_c, 5, 61, 64
11, 20160, Note_off_c, 5, 67, 64
11, 20160, Note_off_c, 5, 76, 64
11, 20160, Note_off_c, 5, 69, 64
11, 20160, Note_on_c, 5, 71, 52
11, 20160, Note_on_c, 5, 76, 42
11, 20160, Note_on_c, 5, 67, 66
11, 20160, Note_on_c, 5, 62, 43
11, 20640, Note_off_c, 5, 62, 64
11, 20640, Note_off_c, 5, 67, 64
11, 20640, Note_off_c, 5, 76, 64
11, 20640, Note_off_c, 5, 71, 64
11, 20640, Note_on_c, 5, 69, 52
11, 20640, Note_on_c, 5, 76, 42
11, 20640, Note_on_c, 5, 67, 66
11, 20640, Note_on_c, 5, 61, 43
11, 21120, Note_off_c, 5, 61, 64
11, 21120, Note_off_c, 5, 67, 64
11, 21120, Note_off_c, 5, 76, 64
11, 21120, Note_off_c, 5, 69, 64
11, 21120, Note_on_c, 5, 74, 52
11, 21120, Note_on_c, 5, 81, 42
11, 21120, Note_on_c, 5, 73, 66
11, 21120, Note_on_c, 5, 66, 43
11, 21600, Note_off_c, 5, 66, 64
11, 21600, Note_off_c, 5, 73, 64
11, 21600, Note_off_c, 5, 81, 64
11, 21600, Note_off_c, 5, 74, 64
11, 21600, Note_on_c, 5, 71, 52
11, 21600, Note_on_c, 5, 76, 42
11, 21600, Note_on_c, 5, 67, 66
11, 21600, Note_on_c, 5, 62, 43
11, 22080, Note_off_c, 5, 62, 64
11, 22080, Note_off_c, 5, 67, 64
11, 22080, Note_off_c, 5, 76, 64
11, 22080, Note_off_c, 5, 71, 64
11, 22080, Note_on_c, 5, 73, 52
11, 22080, Note_on_c, 5, 78, 42
11, 22080, Note_on_c, 5, 69, 66
11, 22080, Note_on_c, 5, 64, 43
11, 22560, Note_off_c, 5, 64, 64
11, 22560, Note_off_c, 5, 69, 64
11, 22560, Note_off_c, 5, 78, 64
11, 22560, Note_off_c, 5, 73, 64
11, 22560, Note_on_c, 5, 74, 52
11, 22560, Note_on_c, 5, 81, 42
11, 22560, Note_on_c, 5, 71, 66
11, 22560, Note_on_c, 5, 66, 43
11, 23040, Note_off_c, 5, 66, 64
11, 23040, Note_off_c, 5, 71, 64
11, 23040, Note_off_c, 5, 81, 64
11, 23040, Note_off_c, 5, 74, 64
11, 23040, Note_on_c, 5, 69, 52
11, 23040, Note_on_c, 5, 76, 42
11, 23040, Note_on_c, 5, 67, 66
11, 23040, Note_on_c, 5, 60, 43
11, 24000, Note_off_c, 5, 60, 64
11, 24000, Note_off_c, 5, 67, 64
11, 24000, Note_off_c, 5, 76, 64
11, 24000, Note_off_c, 5, 69, 64
11, 24000, Note_on_c, 5, 76, 52
11, 24000, Note_on_c, 5, 81, 42
11, 24000, Note_on_c, 5, 72, 66
11, 24000, Note_on_c, 5, 66, 43
11, 24960, Note_off_c, 5, 66, 64
11, 24960, Note_off_c, 5, 72, 64
11, 24960, Note_off_c, 5, 81, 64
11, 24960, Note_off_c, 5, 76, 64
11, 24960, Note_on_c, 5, 74, 52
11, 24960, Note_on_c, 5, 81, 42
11, 24960, Note_on_c, 5, 71, 66
11, 24960, Note_on_c, 5, 66, 43
11, 25920, Note_off_c, 5, 66, 64
11, 25920, Note_off_c, 5, 71, 64
11, 25920, Note_off_c, 5, 81, 64
11, 25920, Note_off_c, 5, 74, 64
11, 25920, Note_on_c, 5, 73, 52
11, 25920, Note_on_c, 5, 79, 42
11, 25920, Note_on_c, 5, 71, 66
11, 25920, Note_on_c, 5, 64, 43
11, 26400, Note_off_c, 5, 64, 64
11, 26400, Note_off_c, 5, 71, 64
11, 26400, Note_off_c, 5, 79, 64
11, 26400, Note_off_c, 5, 73, 64
11, 26400, Note_on_c, 5, 73, 52
11, 26400, Note_on_c, 5, 79, 42
11, 26400, Note_on_c, 5, 70, 66
11, 26400, Note_on_c, 5, 64, 43
11, 26880, Note_off_c, 5, 64, 64
11, 26880, Note_off_c, 5, 70, 64
11, 26880, Note_off_c, 5, 79, 64
11, 26880, Note_off_c, 5, 73, 64
11, 26880, Note_on_c, 5, 71, 52
11, 26880, Note_on_c, 5, 78, 42
11, 26880, Note_on_c, 5, 69, 66
11, 26880, Note_on_c, 5, 62, 43
11, 27360, Note_off_c, 5, 62, 64
11, 27360, Note_off_c, 5, 69, 64
11, 27360, Note_off_c, 5, 78, 64
11, 27360, Note_off_c, 5, 71, 64
11, 27360, Note_on_c, 5, 74, 52
11, 27360, Note_on_c, 5, 78, 42
11, 27360, Note_on_c, 5, 71, 66
11, 27360, Note_on_c, 5, 62, 43
11, 27840, Note_off_c, 5, 62, 64
11, 27840, Note_off_c, 5, 71, 64
11, 27840, Note_off_c, 5, 78, 64
11, 27840, Note_off_c, 5, 74, 64
11, 27840, Note_on_c, 5, 74, 52
11, 27840, Note_on_c, 5, 80, 42
11, 27840, Note_on_c, 5, 71, 66
11, 27840, Note_on_c, 5, 66, 43
11, 28320, Note_off_c, 5, 66, 64
11, 28320, Note_off_c, 5, 71, 64
11, 28320, Note_off_c, 5, 80, 64
11, 28320, Note_off_c, 5, 74, 64
11, 28320, Note_on_c, 5, 74, 52
11, 28320, Note_on_c, 5, 81, 42
11, 28320, Note_on_c, 5, 71, 66
11, 28320, Note_on_c, 5, 66, 43
11, 28800, Note_off_c, 5, 66, 64
11, 28800, Note_off_c, 5, 71, 64
11, 28800, Note_off_c, 5, 81, 64
11, 28800, Note_off_c, 5, 74, 64
11, 28800, Note_on_c, 5, 76, 52
11, 28800, Note_on_c, 5, 81, 42
11, 28800, Note_on_c, 5, 71, 66
11, 28800, Note_on_c, 5, 66, 43
11, 29280, Note_off_c, 5, 66, 64
11, 29280, Note_off_c, 5, 71, 64
11, 29280, Note_off_c, 5, 81, 64
11, 29280, Note_off_c, 5, 76, 64
11, 29280, Note_on_c, 5, 71, 52
11, 29280, Note_on_c, 5, 77, 42
11, 29280, Note_on_c, 5, 68, 66
11, 29280, Note_on_c, 5, 62, 43
11, 29760, Note_off_c, 5, 62, 64
11, 29760, Note_off_c, 5, 68, 64
11, 29760, Note_off_c, 5, 77, 64
11, 29760, Note_off_c, 5, 71, 64
11, 29760, Note_on_c, 5, 71, 52
11, 29760, Note_on_c, 5, 78, 42
11, 29760, Note_on_c, 5, 67, 66
11, 29760, Note_on_c, 5, 62, 43
11, 30240, Note_off_c, 5, 62, 64
11, 30240, Note_off_c, 5, 67, 64
11, 30240, Note_off_c, 5, 78, 64
11, 30240, Note_off_c, 5, 71, 64
11, 30240, Note_on_c, 5, 70, 52
11, 30240, Note_on_c, 5, 77, 42
11, 30240, Note_on_c, 5, 67, 66
11, 30240, Note_on_c, 5, 61, 43
11, 30720, Note_off_c, 5, 61, 64
11, 30720, Note_off_c, 5, 67, 64
11, 30720, Note_off_c, 5, 77, 64
11, 30720, Note_off_c, 5, 70, 64
11, 30720, Note_on_c, 5, 76, 52
11, 30720, Note_on_c, 5, 81, 42
11, 30720, Note_on_c, 5, 71, 66
11, 30720, Note_on_c, 5, 66, 43
11, 32616, Note_off_c, 5, 66, 64
11, 32626, Note_off_c, 5, 71, 64
11, 32634, Note_off_c, 5, 81, 64
11, 32634, Note_off_c, 5, 76, 64
11, 32640, Note_on_c, 5, 74, 52
11, 32640, Note_on_c, 5, 81, 42
11, 32640, Note_on_c, 5, 73, 66
11, 32640, Note_on_c, 5, 66, 43
11, 33600, Note_off_c, 5, 66, 64
11, 33600, Note_off_c, 5, 73, 64
11, 33600, Note_off_c, 5, 81, 64
11, 33600, Note_off_c, 5, 74, 64
11, 33600, Note_on_c, 5, 73, 52
11, 33600, Note_on_c, 5, 78, 42
11, 33600, Note_on_c, 5, 69, 66
11, 33600, Note_on_c, 5, 64, 43
11, 34080, Note_off_c, 5, 64, 64
11, 34080, Note_off_c, 5, 69, 64
11, 34080, Note_off_c, 5, 78, 64
11, 34080, Note_off_c, 5, 73, 64
11, 34080, Note_on_c, 5, 71, 52
11, 34080, Note_on_c, 5, 78, 42
11, 34080, Note_on_c, 5, 69, 66
11, 34080, Note_on_c, 5, 63, 43
11, 34560, Note_off_c, 5, 63, 64
11, 34560, Note_off_c, 5, 69, 64
11, 34560, Note_off_c, 5, 78, 64
11, 34560, Note_off_c, 5, 71, 64
11, 34560, Note_on_c, 5, 71, 52
11, 34560, Note_on_c, 5, 76, 42
11, 34560, Note_on_c, 5, 67, 66
11, 34560, Note_on_c, 5, 62, 43
11, 35040, Note_off_c, 5, 62, 64
11, 35040, Note_off_c, 5, 67, 64
11, 35040, Note_off_c, 5, 76, 64
11, 35040, Note_off_c, 5, 71, 64
11, 35040, Note_on_c, 5, 69, 52
11, 35040, Note_on_c, 5, 76, 42
11, 35040, Note_on_c, 5, 67, 66
11, 35040, Note_on_c, 5, 61, 43
11, 35520, Note_off_c, 5, 61, 64
11, 35520, Note_off_c, 5, 67, 64
11, 35520, Note_off_c, 5, 76, 64
11, 35520, Note_off_c, 5, 69, 64
11, 35520, Note_on_c, 5, 71, 52
11, 35520, Note_on_c, 5, 76, 42
11, 35520, Note_on_c, 5, 67, 66
11, 35520, Note_on_c, 5, 62, 43
11, 36000, Note_off_c, 5, 62, 64
11, 36000, Note_off_c, 5, 67, 64
11, 36000, Note_off_c, 5, 76, 64
11, 36000, Note_off_c, 5, 71, 64
11, 36000, Note_on_c, 5, 69, 52
11, 36000, Note_on_c, 5, 76, 42
11, 36000, Note_on_c, 5, 67, 66
11, 36000, Note_on_c, 5, 61, 43
11, 36480, Note_off_c, 5, 61, 64
11, 36480, Note_off_c, 5, 67, 64
11, 36480, Note_off_c, 5, 76, 64
11, 36480, Note_off_c, 5, 69, 64
11, 36480, Note_on_c, 5, 74, 52
11, 36480, Note_on_c, 5, 81, 42
11, 36480, Note_on_c, 5, 73, 66
11, 36480, Note_on_c, 5, 66, 43
11, 36960, Note_off_c, 5, 66, 64
11, 36960, Note_off_c, 5, 73, 64
11, 36960, Note_off_c, 5, 81, 64
11, 36960, Note_off_c, 5, 74, 64
11, 36960, Note_on_c, 5, 71, 52
11, 36960, Note_on_c, 5, 76, 42
11, 36960, Note_on_c, 5, 67, 66
11, 36960, Note_on_c, 5, 62, 43
11, 37440, Note_off_c, 5, 62, 64
11, 37440, Note_off_c, 5, 67, 64
11, 37440, Note_off_c, 5, 76, 64
11, 37440, Note_off_c, 5, 71, 64
11, 37440, Note_on_c, 5, 73, 52
11, 37440, Note_on_c, 5, 78, 42
11, 37440, Note_on_c, 5, 69, 66
11, 37440, Note_on_c, 5, 64, 43
11, 37920, Note_off_c, 5, 64, 64
11, 37920, Note_off_c, 5, 69, 64
11, 37920, Note_off_c, 5, 78, 64
11, 37920, Note_off_c, 5, 73, 64
11, 37920, Note_on_c, 5, 74, 52
11, 37920, Note_on_c, 5, 81, 42
11, 37920, Note_on_c, 5, 71, 66
11, 37920, Note_on_c, 5, 66, 43
11, 38400, Note_off_c, 5, 66, 64
11, 38400, Note_off_c, 5, 71, 64
11, 38400, Note_off_c, 5, 81, 64
11, 38400, Note_off_c, 5, 74, 64
11, 38400, Note_on_c, 5, 69, 52
11, 38400, Note_on_c, 5, 76, 42
11, 38400, Note_on_c, 5, 67, 66
11, 38400, Note_on_c, 5, 60, 43
11, 39360, Note_off_c, 5, 60, 64
11, 39360, Note_off_c, 5, 67, 64
11, 39360, Note_off_c, 5, 76, 64
11, 39360, Note_off_c, 5, 69, 64
11, 39360, Note_on_c, 5, 76, 52
11, 39360, Note_on_c, 5, 81, 42
11, 39360, Note_on_c, 5, 72, 66
11, 39360, Note_on_c, 5, 66, 43
11, 40320, Note_off_c, 5, 66, 64
11, 40320, Note_off_c, 5, 72, 64
11, 40320, Note_off_c, 5, 81, 64
11, 40320, Note_off_c, 5, 76, 64
11, 40320, Note_on_c, 5, 74, 52
11, 40320, Note_on_c, 5, 81, 42
11, 40320, Note_on_c, 5, 71, 66
11, 40320, Note_on_c, 5, 66, 43
11, 41280, Note_off_c, 5, 66, 64
11, 41280, Note_off_c, 5, 71, 64
11, 41280, Note_off_c, 5, 81, 64
11, 41280, Note_off_c, 5, 74, 64
11, 41280, Note_on_c, 5, 74, 52
11, 41280, Note_on_c, 5, 80, 42
11, 41280, Note_on_c, 5, 71, 66
11, 41280, Note_on_c, 5, 66, 43
11, 41760, Note_off_c, 5, 66, 64
11, 41760, Note_off_c, 5, 71, 64
11, 41760, Note_off_c, 5, 80, 64
11, 41760, Note_off_c, 5, 74, 64
11, 41760, Note_on_c, 5, 73, 52
11, 41760, Note_on_c, 5, 80, 42
11, 41760, Note_on_c, 5, 71, 66
11, 41760, Note_on_c, 5, 65, 43
11, 42240, Note_off_c, 5, 65, 64
11, 42240, Note_off_c, 5, 71, 64
11, 42240, Note_off_c, 5, 80, 64
11, 42240, Note_off_c, 5, 73, 64
11, 42240, Note_on_c, 5, 73, 52
11, 42240, Note_on_c, 5, 78, 42
11, 42240, Note_on_c, 5, 69, 66
11, 42240, Note_on_c, 5, 64, 43
11, 42720, Note_off_c, 5, 64, 64
11, 42720, Note_off_c, 5, 69, 64
11, 42720, Note_off_c, 5, 78, 64
11, 42720, Note_off_c, 5, 73, 64
11, 42720, Note_on_c, 5, 71, 52
11, 42720, Note_on_c, 5, 78, 42
11, 42720, Note_on_c, 5, 69, 66
11, 42720, Note_on_c, 5, 62, 43
11, 43200, Note_off_c, 5, 62, 64
11, 43200, Note_off_c, 5, 69, 64
11, 43200, Note_off_c, 5, 78, 64
11, 43200, Note_off_c, 5, 71, 64
11, 43200, Note_on_c, 5, 69, 52
11, 43200, Note_on_c, 5, 76, 42
11, 43200, Note_on_c, 5, 67, 66
11, 43200, Note_on_c, 5, 60, 43
11, 43680, Note_off_c, 5, 60, 64
11, 43680, Note_off_c, 5, 67, 64
11, 43680, Note_off_c, 5, 76, 64
11, 43680, Note_off_c, 5, 69, 64
11, 43680, Note_on_c, 5, 74, 52
11, 43680, Note_on_c, 5, 81, 42
11, 43680, Note_on_c, 5, 72, 66
11, 43680, Note_on_c, 5, 66, 43
11, 44160, Note_off_c, 5, 66, 64
11, 44160, Note_off_c, 5, 72, 64
11, 44160, Note_off_c, 5, 81, 64
11, 44160, Note_off_c, 5, 74, 64
11, 44160, Note_on_c, 5, 74, 52
11, 44160, Note_on_c, 5, 81, 42
11, 44160, Note_on_c, 5, 71, 66
11, 44160, Note_on_c, 5, 66, 43
11, 44640, Note_off_c, 5, 66, 64
11, 44640, Note_off_c, 5, 71, 64
11, 44640, Note_off_c, 5, 81, 64
11, 44640, Note_off_c, 5, 74, 64
11, 44640, Note_on_c, 5, 73, 52
11, 44640, Note_on_c, 5, 79, 42
11, 44640, Note_on_c, 5, 71, 66
11, 44640, Note_on_c, 5, 64, 43
11, 45120, Note_off_c, 5, 64, 64
11, 45120, Note_off_c, 5, 71, 64
11, 45120, Note_off_c, 5, 79, 64
11, 45120, Note_off_c, 5, 73, 64
11, 45120, Note_on_c, 5, 73, 52
11, 45120, Note_on_c, 5, 78, 42
11, 45120, Note_on_c, 5, 69, 66
11, 45120, Note_on_c, 5, 64, 43
11, 45600, Note_off_c, 5, 64, 64
11, 45600, Note_off_c, 5, 69, 64
11, 45600, Note_off_c, 5, 78, 64
11, 45600, Note_off_c, 5, 73, 64
11, 45600, Note_on_c, 5, 72, 52
11, 45600, Note_on_c, 5, 78, 42
11, 45600, Note_on_c, 5, 69, 66
11, 45600, Note_on_c, 5, 63, 43
11, 46080, Note_off_c, 5, 63, 64
11, 46080, Note_off_c, 5, 69, 64
11, 46080, Note_off_c, 5, 78, 64
11, 46080, Note_off_c, 5, 72, 64
11, 46080, Note_on_c, 5, 71, 52
11, 46080, Note_on_c, 5, 76, 42
11, 46080, Note_on_c, 5, 67, 66
11, 46080, Note_on_c, 5, 62, 43
11, 46560, Note_off_c, 5, 62, 64
11, 46560, Note_off_c, 5, 67, 64
11, 46560, Note_off_c, 5, 76, 64
11, 46560, Note_off_c, 5, 71, 64
11, 46560, Note_on_c, 5, 72, 52
11, 46560, Note_on_c, 5, 77, 42
11, 46560, Note_on_c, 5, 68, 66
11, 46560, Note_on_c, 5, 62, 43
11, 47040, Note_off_c, 5, 62, 64
11, 47040, Note_off_c, 5, 68, 64
11, 47040, Note_off_c, 5, 77, 64
11, 47040, Note_off_c, 5, 72, 64
11, 47040, Note_on_c, 5, 71, 52
11, 47040, Note_on_c, 5, 76, 42
11, 47040, Note_on_c, 5, 67, 66
11, 47040, Note_on_c, 5, 62, 43
11, 47520, Note_off_c, 5, 62, 64
11, 47520, Note_off_c, 5, 67, 64
11, 47520, Note_off_c, 5, 76, 64
11, 47520, Note_off_c, 5, 71, 64
11, 47520, Note_on_c, 5, 69, 52
11, 47520, Note_on_c, 5, 76, 42
11, 47520, Note_on_c, 5, 67, 66
11, 47520, Note_on_c, 5, 61, 43
11, 48000, Note_off_c, 5, 61, 64
11, 48000, Note_off_c, 5, 67, 64
11, 48000, Note_off_c, 5, 76, 64
11, 48000, Note_off_c, 5, 69, 64
11, 48000, Note_on_c, 5, 74, 52
11, 48000, Note_on_c, 5, 81, 42
11, 48000, Note_on_c, 5, 73, 66
11, 48000, Note_on_c, 5, 66, 43
11, 48960, Note_off_c, 5, 66, 64
11, 48960, Note_off_c, 5, 73, 64
11, 48960, Note_off_c, 5, 81, 64
11, 48960, Note_off_c, 5, 74, 64
11, 48960, Note_on_c, 5, 73, 52
11, 48960, Note_on_c, 5, 78, 42
11, 48960, Note_on_c, 5, 69, 66
11, 48960, Note_on_c, 5, 64, 43
11, 49440, Note_off_c, 5, 64, 64
11, 49440, Note_off_c, 5, 69, 64
11, 49440, Note_off_c, 5, 78, 64
11, 49440, Note_off_c, 5, 73, 64
11, 49440, Note_on_c, 5, 71, 52
11, 49440, Note_on_c, 5, 78, 42
11, 49440, Note_on_c, 5, 69, 66
11, 49440, Note_on_c, 5, 63, 43
11, 49920, Note_off_c, 5, 63, 64
11, 49920, Note_off_c, 5, 69, 64
11, 49920, Note_off_c, 5, 78, 64
11, 49920, Note_off_c, 5, 71, 64
11, 49920, Note_on_c, 5, 71, 52
11, 49920, Note_on_c, 5, 76, 42
11, 49920, Note_on_c, 5, 67, 66
11, 49920, Note_on_c, 5, 62, 43
11, 50400, Note_off_c, 5, 62, 64
11, 50400, Note_off_c, 5, 67, 64
11, 50400, Note_off_c, 5, 76, 64
11, 50400, Note_off_c, 5, 71, 64
11, 50400, Note_on_c, 5, 69, 52
11, 50400, Note_on_c, 5, 76, 42
11, 50400, Note_on_c, 5, 67, 66
11, 50400, Note_on_c, 5, 61, 43
11, 50880, Note_off_c, 5, 61, 64
11, 50880, Note_off_c, 5, 67, 64
11, 50880, Note_off_c, 5, 76, 64
11, 50880, Note_off_c, 5, 69, 64
11, 50880, Note_on_c, 5, 71, 52
11, 50880, Note_on_c, 5, 76, 42
11, 50880, Note_on_c, 5, 67, 66
11, 50880, Note_on_c, 5, 62, 43
11, 51360, Note_off_c, 5, 62, 64
11, 51360, Note_off_c, 5, 67, 64
11, 51360, Note_off_c, 5, 76, 64
11, 51360, Note_off_c, 5, 71, 64
11, 51360, Note_on_c, 5, 69, 52
11, 51360, Note_on_c, 5, 76, 42
11, 51360, Note_on_c, 5, 67, 66
11, 51360, Note_on_c, 5, 61, 43
11, 51840, Note_off_c, 5, 61, 64
11, 51840, Note_off_c, 5, 67, 64
11, 51840, Note_off_c, 5, 76, 64
11, 51840, Note_off_c, 5, 69, 64
11, 51840, Note_on_c, 5, 74, 52
11, 51840, Note_on_c, 5, 81, 42
11, 51840, Note_on_c, 5, 73, 66
11, 51840, Note_on_c, 5, 66, 43
11, 52320, Note_off_c, 5, 66, 64
11, 52320, Note_off_c, 5, 73, 64
11, 52320, Note_off_c, 5, 81, 64
11, 52320, Note_off_c, 5, 74, 64
11, 52320, Note_on_c, 5, 71, 52
11, 52320, Note_on_c, 5, 76, 42
11, 52320, Note_on_c, 5, 67, 66
11, 52320, Note_on_c, 5, 62, 43
11, 52800, Note_off_c, 5, 62, 64
11, 52800, Note_off_c, 5, 67, 64
11, 52800, Note_off_c, 5, 76, 64
11, 52800, Note_off_c, 5, 71, 64
11, 52800, Note_on_c, 5, 73, 52
11, 52800, Note_on_c, 5, 78, 42
11, 52800, Note_on_c, 5, 69, 66
11, 52800, Note_on_c, 5, 64, 43
11, 53280, Note_off_c, 5, 64, 64
11, 53280, Note_off_c, 5, 69, 64
11, 53280, Note_off_c, 5, 78, 64
11, 53280, Note_off_c, 5, 73, 64
11, 53280, Note_on_c, 5, 74, 52
11, 53280, Note_on_c, 5, 81, 42
11, 53280, Note_on_c, 5, 71, 66
11, 53280, Note_on_c, 5, 66, 43
11, 53760, Note_off_c, 5, 66, 64
11, 53760, Note_off_c, 5, 71, 64
11, 53760, Note_off_c, 5, 81, 64
11, 53760, Note_off_c, 5, 74, 64
11, 53760, Note_on_c, 5, 69, 52
11, 53760, Note_on_c, 5, 76, 42
11, 53760, Note_on_c, 5, 67, 66
11, 53760, Note_on_c, 5, 60, 43
11, 54720, Note_off_c, 5, 60, 64
11, 54720, Note_off_c, 5, 67, 64
11, 54720, Note_off_c, 5, 76, 64
11, 54720, Note_off_c, 5, 69, 64
11, 54720, Note_on_c, 5, 76, 52
11, 54720, Note_on_c, 5, 81, 42
11, 54720, Note_on_c, 5, 72, 66
11, 54720, Note_on_c, 5, 66, 43
11, 55680, Note_off_c, 5, 66, 64
11, 55680, Note_off_c, 5, 72, 64
11, 55680, Note_off_c, 5, 81, 64
11, 55680, Note_off_c, 5, 76, 64
11, 55680, Note_on_c, 5, 74, 52
11, 55680, Note_on_c, 5, 81, 42
11, 55680, Note_on_c, 5, 71, 66
11, 55680, Note_on_c, 5, 66, 43
11, 56640, Note_off_c, 5, 66, 64
11, 56640, Note_off_c, 5, 71, 64
11, 56640, Note_off_c, 5, 81, 64
11, 56640, Note_off_c, 5, 74, 64
11, 56640, Note_on_c, 5, 73, 52
11, 56640, Note_on_c, 5, 79, 42
11, 56640, Note_on_c, 5, 71, 66
11, 56640, Note_on_c, 5, 64, 43
11, 57120, Note_off_c, 5, 64, 64
11, 57120, Note_off_c, 5, 71, 64
11, 57120, Note_off_c, 5, 79, 64
11, 57120, Note_off_c, 5, 73, 64
11, 57120, Note_on_c, 5, 73, 52
11, 57120, Note_on_c, 5, 79, 42
11, 57120, Note_on_c, 5, 70, 66
11, 57120, Note_on_c, 5, 64, 43
11, 57600, Note_off_c, 5, 64, 64
11, 57600, Note_off_c, 5, 70, 64
11, 57600, Note_off_c, 5, 79, 64
11, 57600, Note_off_c, 5, 73, 64
11, 57600, Note_on_c, 5, 71, 52
11, 57600, Note_on_c, 5, 78, 42
11, 57600, Note_on_c, 5, 69, 66
11, 57600, Note_on_c, 5, 62, 43
11, 58080, Note_off_c, 5, 62, 64
11, 58080, Note_off_c, 5, 69, 64
11, 58080, Note_off_c, 5, 78, 64
11, 58080, Note_off_c, 5, 71, 64
11, 58080, Note_on_c, 5, 74, 52
11, 58080, Note_on_c, 5, 78, 42
11, 58080, Note_on_c, 5, 71, 66
11, 58080, Note_on_c, 5, 62, 43
11, 58560, Note_off_c, 5, 62, 64
11, 58560, Note_off_c, 5, 71, 64
11, 58560, Note_off_c, 5, 78, 64
11, 58560, Note_off_c, 5, 74, 64
11, 58560, Note_on_c, 5, 74, 52
11, 58560, Note_on_c, 5, 80, 42
11, 58560, Note_on_c, 5, 71, 66
11, 58560, Note_on_c, 5, 66, 43
11, 59040, Note_off_c, 5, 66, 64
11, 59040, Note_off_c, 5, 71, 64
11, 59040, Note_off_c, 5, 80, 64
11, 59040, Note_off_c, 5, 74, 64
11, 59040, Note_on_c, 5, 74, 52
11, 59040, Note_on_c, 5, 81, 42
11, 59040, Note_on_c, 5, 71, 66
11, 59040, Note_on_c, 5, 66, 43
11, 59520, Note_off_c, 5, 66, 64
11, 59520, Note_off_c, 5, 71, 64
11, 59520, Note_off_c, 5, 81, 64
11, 59520, Note_off_c, 5, 74, 64
11, 59520, Note_on_c, 5, 76, 52
11, 59520, Note_on_c, 5, 81, 42
11, 59520, Note_on_c, 5, 71, 66
11, 59520, Note_on_c, 5, 66, 43
11, 60000, Note_off_c, 5, 66, 64
11, 60000, Note_off_c, 5, 71, 64
11, 60000, Note_off_c, 5, 81, 64
11, 60000, Note_off_c, 5, 76, 64
11, 60000, Note_on_c, 5, 71, 52
11, 60000, Note_on_c, 5, 77, 42
11, 60000, Note_on_c, 5, 68, 66
11, 60000, Note_on_c, 5, 62, 43
11, 60480, Note_off_c, 5, 62, 64
11, 60480, Note_off_c, 5, 68, 64
11, 60480, Note_off_c, 5, 77, 64
11, 60480, Note_off_c, 5, 71, 64
11, 60480, Note_on_c, 5, 71, 52
11, 60480, Note_on_c, 5, 78, 42
11, 60480, Note_on_c, 5, 67, 66
11, 60480, Note_on_c, 5, 62, 43
11, 60960, Note_off_c, 5, 62, 64
11, 60960, Note_off_c, 5, 67, 64
11, 60960, Note_off_c, 5, 78, 64
11, 60960, Note_off_c, 5, 71, 64
11, 60960, Note_on_c, 5, 70, 52
11, 60960, Note_on_c, 5, 77, 42
11, 60960, Note_on_c, 5, 67, 66
11, 60960, Note_on_c, 5, 61, 43
11, 61440, Note_off_c, 5, 61, 64
11, 61440, Note_off_c, 5, 67, 64
11, 61440, Note_off_c, 5, 77, 64
11, 61440, Note_off_c, 5, 70, 64
11, 61440, Note_on_c, 5, 76, 52
11, 61440, Note_on_c, 5, 81, 42
11, 61440, Note_on_c, 5, 71, 66
11, 61440, Note_on_c, 5, 66, 43
11, 63336, Note_off_c, 5, 66, 64
11, 63346, Note_off_c, 5, 71, 64
11, 63354, Note_off_c, 5, 81, 64
11, 63354, Note_off_c, 5, 76, 64
11, 78720, Note_on_c, 5, 74, 52
11, 78720, Note_on_c, 5, 81, 42
11, 78720, Note_on_c, 5, 73, 66
11, 78720, Note_on_c, 5, 66, 43
11, 79680, Note_off_c, 5, 66, 64
11, 79680, Note_off_c, 5, 73, 64
11, 79680, Note_off_c, 5, 81, 64
11, 79680, Note_off_c, 5, 74, 64
11, 79680, Note_on_c, 5, 73, 52
11, 79680, Note_on_c, 5, 78, 42
11, 79680, Note_on_c, 5, 69, 66
11, 79680, Note_on_c, 5, 64, 43
11, 80160, Note_off_c, 5, 64, 64
11, 80160, Note_off_c, 5, 69, 64
11, 80160, Note_off_c, 5, 78, 64
11, 80160, Note_off_c, 5, 73, 64
11, 80160, Note_on_c, 5, 71, 52
11, 80160, Note_on_c, 5, 78, 42
11, 80160, Note_on_c, 5, 69, 66
11, 80160, Note_on_c, 5, 63, 43
11, 80640, Note_off_c, 5, 63, 64
11, 80640, Note_off_c, 5, 69, 64
11, 80640, Note_off_c, 5, 78, 64
11, 80640, Note_off_c, 5, 71, 64
11, 80640, Note_on_c, 5, 71, 52
11, 80640, Note_on_c, 5, 76, 42
11, 80640, Note_on_c, 5, 67, 66
11, 80640, Note_on_c, 5, 62, 43
11, 81120, Note_off_c, 5, 62, 64
11, 81120, Note_off_c, 5, 67, 64
11, 81120, Note_off_c, 5, 76, 64
11, 81120, Note_off_c, 5, 71, 64
11, 81120, Note_on_c, 5, 69, 52
11, 81120, Note_on_c, 5, 76, 42
11, 81120, Note_on_c, 5, 67, 66
11, 81120, Note_on_c, 5, 61, 43
11, 81600, Note_off_c, 5, 61, 64
11, 81600, Note_off_c, 5, 67, 64
11, 81600, Note_off_c, 5, 76, 64
11, 81600, Note_off_c, 5, 69, 64
11, 81600, Note_on_c, 5, 71, 52
11, 81600, Note_on_c, 5, 76, 42
11, 81600, Note_on_c, 5, 67, 66
11, 81600, Note_on_c, 5, 62, 43
11, 82080, Note_off_c, 5, 62, 64
11, 82080, Note_off_c, 5, 67, 64
11, 82080, Note_off_c, 5, 76, 64
11, 82080, Note_off_c, 5, 71, 64
11, 82080, Note_on_c, 5, 69, 52
11, 82080, Note_on_c, 5, 76, 42
11, 82080, Note_on_c, 5, 67, 66
11, 82080, Note_on_c, 5, 61, 43
11, 82560, Note_off_c, 5, 61, 64
11, 82560, Note_off_c, 5, 67, 64
11, 82560, Note_off_c, 5, 76, 64
11, 82560, Note_off_c, 5, 69, 64
11, 82560, Note_on_c, 5, 74, 52
11, 82560, Note_on_c, 5, 81, 42
11, 82560, Note_on_c, 5, 73, 66
11, 82560, Note_on_c, 5, 66, 43
11, 83040, Note_off_c, 5, 66, 64
11, 83040, Note_off_c, 5, 73, 64
11, 83040, Note_off_c, 5, 81, 64
11, 83040, Note_off_c, 5, 74, 64
11, 83040, Note_on_c, 5, 71, 52
11, 83040, Note_on_c, 5, 76, 42
11, 83040, Note_on_c, 5, 67, 66
11, 83040, Note_on_c, 5, 62, 43
11, 83520, Note_off_c, 5, 62, 64
11, 83520, Note_off_c, 5, 67, 64
11, 83520, Note_off_c, 5, 76, 64
11, 83520, Note_off_c, 5, 71, 64
11, 83520, Note_on_c, 5, 73, 52
11, 83520, Note_on_c, 5, 78, 42
11, 83520, Note_on_c, 5, 69, 66
11, 83520, Note_on_c, 5, 64, 43
11, 84000, Note_off_c, 5, 64, 64
11, 84000, Note_off_c, 5, 69, 64
11, 84000, Note_off_c, 5, 78, 64
11, 84000, Note_off_c, 5, 73, 64
11, 84000, Note_on_c, 5, 74, 52
11, 84000, Note_on_c, 5, 81, 42
11, 84000, Note_on_c, 5, 71, 66
11, 84000, Note_on_c, 5, 66, 43
11, 84480, Note_off_c, 5, 66, 64
11, 84480, Note_off_c, 5, 71, 64
11, 84480, Note_off_c, 5, 81, 64
11, 84480, Note_off_c, 5, 74, 64
11, 84480, Note_on_c, 5, 69, 52
11, 84480, Note_on_c, 5, 76, 42
11, 84480, Note_on_c, 5, 67, 66
11, 84480, Note_on_c, 5, 60, 43
11, 85440, Note_off_c, 5, 60, 64
11, 85440, Note_off_c, 5, 67, 64
11, 85440, Note_off_c, 5, 76, 64
11, 85440, Note_off_c, 5, 69, 64
11, 85440, Note_on_c, 5, 76, 52
11, 85440, Note_on_c, 5, 81, 42
11, 85440, Note_on_c, 5, 72, 66
11, 85440, Note_on_c, 5, 66, 43
11, 86400, Note_off_c, 5, 66, 64
11, 86400, Note_off_c, 5, 72, 64
11, 86400, Note_off_c, 5, 81, 64
11, 86400, Note_off_c, 5, 76, 64
11, 86400, Note_on_c, 5, 74, 52
11, 86400, Note_on_c, 5, 81, 42
11, 86400, Note_on_c, 5, 71, 66
11, 86400, Note_on_c, 5, 66, 43
11, 87360, Note_off_c, 5, 66, 64
11, 87360, Note_off_c, 5, 71, 64
11, 87360, Note_off_c, 5, 81, 64
11, 87360, Note_off_c, 5, 74, 64
11, 87360, Note_on_c, 5, 73, 52
11, 87360, Note_on_c, 5, 79, 42
11, 87360, Note_on_c, 5, 71, 66
11, 87360, Note_on_c, 5, 64, 43
11, 87840, Note_off_c, 5, 64, 64
11, 87840, Note_off_c, 5, 71, 64
11, 87840, Note_off_c, 5, 79, 64
11, 87840, Note_off_c, 5, 73, 64
11, 87840, Note_on_c, 5, 73, 52
11, 87840, Note_on_c, 5, 79, 42
11, 87840, Note_on_c, 5, 70, 66
11, 87840, Note_on_c, 5, 64, 43
11, 88320, Note_off_c, 5, 64, 64
11, 88320, Note_off_c, 5, 70, 64
11, 88320, Note_off_c, 5, 79, 64
11, 88320, Note_off_c, 5, 73, 64
11, 88320, Note_on_c, 5, 71, 52
11, 88320, Note_on_c, 5, 78, 42
11, 88320, Note_on_c, 5, 69, 66
11, 88320, Note_on_c, 5, 62, 43
11, 88800, Note_off_c, 5, 62, 64
11, 88800, Note_off_c, 5, 69, 64
11, 88800, Note_off_c, 5, 78, 64
11, 88800, Note_off_c, 5, 71, 64
11, 88800, Note_on_c, 5, 74, 52
11, 88800, Note_on_c, 5, 78, 42
11, 88800, Note_on_c, 5, 71, 66
11, 88800, Note_on_c, 5, 62, 43
11, 89280, Note_off_c, 5, 62, 64
11, 89280, Note_off_c, 5, 71, 64
11, 89280, Note_off_c, 5, 78, 64
11, 89280, Note_off_c, 5, 74, 64
11, 89280, Note_on_c, 5, 74, 52
11, 89280, Note_on_c, 5, 80, 42
11, 89280, Note_on_c, 5, 71, 66
11, 89280, Note_on_c, 5, 66, 43
11, 89760, Note_off_c, 5, 66, 64
11, 89760, Note_off_c, 5, 71, 64
11, 89760, Note_off_c, 5, 80, 64
11, 89760, Note_off_c, 5, 74, 64
11, 89760, Note_on_c, 5, 74, 52
11, 89760, Note_on_c, 5, 81, 42
11, 89760, Note_on_c, 5, 71, 66
11, 89760, Note_on_c, 5, 66, 43
11, 90240, Note_off_c, 5, 66, 64
11, 90240, Note_off_c, 5, 71, 64
11, 90240, Note_off_c, 5, 81, 64
11, 90240, Note_off_c, 5, 74, 64
11, 90240, Note_on_c, 5, 76, 52
11, 90240, Note_on_c, 5, 81, 42
11, 90240, Note_on_c, 5, 71, 66
11, 90240, Note_on_c, 5, 66, 43
11, 90720, Note_off_c, 5, 66, 64
11, 90720, Note_off_c, 5, 71, 64
11, 90720, Note_off_c, 5, 81, 64
11, 90720, Note_off_c, 5, 76, 64
11, 90720, Note_on_c, 5, 71, 52
11, 90720, Note_on_c, 5, 77, 42
11, 90720, Note_on_c, 5, 68, 66
11, 90720, Note_on_c, 5, 62, 43
11, 91200, Note_off_c, 5, 62, 64
11, 91200, Note_off_c, 5, 68, 64
11, 91200, Note_off_c, 5, 77, 64
11, 91200, Note_off_c, 5, 71, 64
11, 91200, Note_on_c, 5, 71, 52
11, 91200, Note_on_c, 5, 78, 42
11, 91200, Note_on_c, 5, 67, 66
11, 91200, Note_on_c, 5, 62, 43
11, 91680, Note_off_c, 5, 62, 64
11, 91680, Note_off_c, 5, 67, 64
11, 91680, Note_off_c, 5, 78, 64
11, 91680, Note_off_c, 5, 71, 64
11, 91680, Note_on_c, 5, 70, 52
11, 91680, Note_on_c, 5, 77, 42
11, 91680, Note_on_c, 5, 67, 66
11, 91680, Note_on_c, 5, 61, 43
11, 92160, Note_off_c, 5, 61, 64
11, 92160, Note_off_c, 5, 67, 64
11, 92160, Note_off_c, 5, 77, 64
11, 92160, Note_off_c, 5, 70, 64
11, 92160, Note_on_c, 5, 76, 52
11, 92160, Note_on_c, 5, 81, 42
11, 92160, Note_on_c, 5, 71, 66
11, 92160, Note_on_c, 5, 66, 43
11, 93120, Note_off_c, 5, 66, 64
11, 93120, Note_off_c, 5, 71, 64
11, 93120, Note_off_c, 5, 81, 64
11, 93120, Note_off_c, 5, 76, 64
11, 93120, Note_on_c, 5, 76, 52
11, 93120, Note_on_c, 5, 81, 42
11, 93120, Note_on_c, 5, 71, 66
11, 93120, Note_on_c, 5, 66, 43
11, 94080, Note_off_c, 5, 66, 64
11, 94080, Note_off_c, 5, 71, 64
11, 94080, Note_off_c, 5, 81, 64
11, 94080, Note_off_c, 5, 76, 64
11, 94080, Note_on_c, 5, 76, 52
11, 94080, Note_on_c, 5, 81, 42
11, 94080, Note_on_c, 5, 71, 66
11, 94080, Note_on_c, 5, 66, 43
11, 95976, Note_off_c, 5, 66, 64
11, 95986, Note_off_c, 5, 71, 64
11, 95994, Note_off_c, 5, 81, 64
11, 95994, Note_off_c, 5, 76, 64
11, 96000, Control_c, 5, 64, 0
11, 96000, End_track
12, 0, Start_track
12, 0, Title_t, "Guitar / Nylon string"
12, 0, Control_c, 6, 0, 0
12, 0, Control_c, 6, 32, 0
12, 0, Program_c, 6, 24
12, 0, Control_c, 6, 7, 80
12, 0, Control_c, 6, 10, 64
12, 0, Control_c, 6, 123, 0
12, 0, Control_c, 6, 91, 40
12, 0, Control_c, 6, 93, 0
12, 0, Control_c, 6, 64, 0
12, 2160, Note_on_c, 6, 61, 73
12, 2160, Note_on_c, 6, 54, 47
12, 2222, Note_off_c, 6, 54, 64
12, 2222, Note_off_c, 6, 61, 64
12, 2640, Note_on_c, 6, 61, 70
12, 2640, Note_on_c, 6, 54, 52
12, 2706, Note_off_c, 6, 61, 64
12, 2714, Note_off_c, 6, 54, 64
12, 3120, Note_on_c, 6, 57, 73
12, 3120, Note_on_c, 6, 52, 47
12, 3182, Note_off_c, 6, 52, 64
12, 3182, Note_off_c, 6, 57, 64
12, 3600, Note_on_c, 6, 57, 73
12, 3600, Note_on_c, 6, 51, 47
12, 3662, Note_off_c, 6, 51, 64
12, 3662, Note_off_c, 6, 57, 64
12, 4080, Note_on_c, 6, 55, 73
12, 4080, Note_on_c, 6, 50, 47
12, 4142, Note_off_c, 6, 50, 64
12, 4142, Note_off_c, 6, 55, 64
12, 4560, Note_on_c, 6, 55, 73
12, 4560, Note_on_c, 6, 49, 47
12, 4622, Note_off_c, 6, 49, 64
12, 4622, Note_off_c, 6, 55, 64
12, 5040, Note_on_c, 6, 55, 73
12, 5040, Note_on_c, 6, 50, 47
12, 5102, Note_off_c, 6, 50, 64
12, 5102, Note_off_c, 6, 55, 64
12, 5520, Note_on_c, 6, 55, 68
12, 5576, Note_off_c, 6, 55, 64
12, 6000, Note_on_c, 6, 61, 73
12, 6000, Note_on_c, 6, 54, 47
12, 6062, Note_off_c, 6, 54, 64
12, 6062, Note_off_c, 6, 61, 64
12, 6480, Note_on_c, 6, 55, 73
12, 6480, Note_on_c, 6, 50, 47
12, 6542, Note_off_c, 6, 50, 64
12, 6542, Note_off_c, 6, 55, 64
12, 6960, Note_on_c, 6, 57, 73
12, 6960, Note_on_c, 6, 52, 47
12, 7022, Note_off_c, 6, 52, 64
12, 7022, Note_off_c, 6, 57, 64
12, 7440, Note_on_c, 6, 59, 73
12, 7440, Note_on_c, 6, 54, 47
12, 7502, Note_off_c, 6, 54, 64
12, 7502, Note_off_c, 6, 59, 64
12, 7920, Note_on_c, 6, 55, 73
12, 7920, Note_on_c, 6, 48, 47
12, 7982, Note_off_c, 6, 48, 64
12, 7982, Note_off_c, 6, 55, 64
12, 8400, Note_on_c, 6, 55, 70
12, 8400, Note_on_c, 6, 48, 52
12, 8466, Note_off_c, 6, 55, 64
12, 8474, Note_off_c, 6, 48, 64
12, 8880, Note_on_c, 6, 60, 73
12, 8880, Note_on_c, 6, 54, 47
12, 8942, Note_off_c, 6, 54, 64
12, 8942, Note_off_c, 6, 60, 64
12, 9360, Note_on_c, 6, 60, 70
12, 9360, Note_on_c, 6, 54, 52
12, 9426, Note_off_c, 6, 60, 64
12, 9434, Note_off_c, 6, 54, 64
12, 9840, Note_on_c, 6, 59, 73
12, 9840, Note_on_c, 6, 54, 47
12, 9902, Note_off_c, 6, 54, 64
12, 9902, Note_off_c, 6, 59, 64
12, 10320, Note_on_c, 6, 59, 70
12, 10320, Note_on_c, 6, 54, 52
12, 10386, Note_off_c, 6, 59, 64
12, 10394, Note_off_c, 6, 54, 64
12, 10800, Note_on_c, 6, 59, 73
12, 10800, Note_on_c, 6, 54, 47
12, 10862, Note_off_c, 6, 54, 64
12, 10862, Note_off_c, 6, 59, 64
12, 11280, Note_on_c, 6, 59, 73
12, 11280, Note_on_c, 6, 53, 47
12, 11342, Note_off_c, 6, 53, 64
12, 11342, Note_off_c, 6, 59, 64
12, 11760, Note_on_c, 6, 57, 73
12, 11760, Note_on_c, 6, 52, 47
12, 11822, Note_off_c, 6, 52, 64
12, 11822, Note_off_c, 6, 57, 64
12, 12240, Note_on_c, 6, 57, 73
12, 12240, Note_on_c, 6, 50, 47
12, 12302, Note_off_c, 6, 50, 64
12, 12302, Note_off_c, 6, 57, 64
12, 12720, Note_on_c, 6, 55, 68
12, 12776, Note_off_c, 6, 55, 64
12, 13200, Note_on_c, 6, 60, 73
12, 13200, Note_on_c, 6, 54, 47
12, 13262, Note_off_c, 6, 54, 64
12, 13262, Note_off_c, 6, 60, 64
12, 13680, Note_on_c, 6, 59, 73
12, 13680, Note_on_c, 6, 54, 47
12, 13742, Note_off_c, 6, 54, 64
12, 13742, Note_off_c, 6, 59, 64
12, 14160, Note_on_c, 6, 59, 73
12, 14160, Note_on_c, 6, 52, 47
12, 14222, Note_off_c, 6, 52, 64
12, 14222, Note_off_c, 6, 59, 64
12, 14640, Note_on_c, 6, 57, 73
12, 14640, Note_on_c, 6, 52, 47
12, 14702, Note_off_c, 6, 52, 64
12, 14702, Note_off_c, 6, 57, 64
12, 15120, Note_on_c, 6, 57, 73
12, 15120, Note_on_c, 6, 51, 47
12, 15182, Note_off_c, 6, 51, 64
12, 15182, Note_off_c, 6, 57, 64
12, 15600, Note_on_c, 6, 55, 73
12, 15600, Note_on_c, 6, 50, 47
12, 15662, Note_off_c, 6, 50, 64
12, 15662, Note_off_c, 6, 55, 64
12, 16080, Note_on_c, 6, 56, 73
12, 16080, Note_on_c, 6, 50, 47
12, 16142, Note_off_c, 6, 50, 64
12, 16142, Note_off_c, 6, 56, 64
12, 16560, Note_on_c, 6, 55, 68
12, 16616, Note_off_c, 6, 55, 64
12, 17040, Note_on_c, 6, 55, 68
12, 17096, Note_off_c, 6, 55, 64
12, 17280, Note_on_c, 6, 54, 48
12, 17280, Note_on_c, 6, 61, 60
12, 17486, Note_off_c, 6, 61, 64
12, 17498, Note_off_c, 6, 54, 64
12, 17520, Note_on_c, 6, 61, 59
12, 17520, Note_on_c, 6, 54, 42
12, 17546, Note_off_c, 6, 54, 64
12, 17562, Note_off_c, 6, 61, 64
12, 17760, Note_on_c, 6, 54, 26
12, 17760, Note_on_c, 6, 61, 39
12, 17974, Note_off_c, 6, 61, 64
12, 17974, Note_off_c, 6, 54, 64
12, 18000, Note_on_c, 6, 61, 62
12, 18000, Note_on_c, 6, 54, 28
12, 18040, Note_off_c, 6, 54, 64
12, 18040, Note_off_c, 6, 61, 64
12, 18240, Note_on_c, 6, 52, 52
12, 18240, Note_on_c, 6, 57, 64
12, 18466, Note_off_c, 6, 57, 64
12, 18478, Note_off_c, 6, 52, 64
12, 18480, Note_on_c, 6, 57, 63
12, 18480, Note_on_c, 6, 52, 46
12, 18526, Note_off_c, 6, 52, 64
12, 18542, Note_off_c, 6, 57, 64
12, 18720, Note_on_c, 6, 57, 48
12, 18720, Note_on_c, 6, 51, 41
12, 18916, Note_off_c, 6, 57, 64
12, 18922, Note_off_c, 6, 51, 64
12, 18960, Note_on_c, 6, 57, 79
12, 18960, Note_on_c, 6, 51, 57
12, 19002, Note_off_c, 6, 51, 64
12, 19002, Note_off_c, 6, 57, 64
12, 19200, Note_on_c, 6, 50, 52
12, 19200, Note_on_c, 6, 55, 64
12, 19426, Note_off_c, 6, 55, 64
12, 19438, Note_off_c, 6, 50, 64
12, 19440, Note_on_c, 6, 55, 63
12, 19440, Note_on_c, 6, 50, 46
12, 19486, Note_off_c, 6, 50, 64
12, 19502, Note_off_c, 6, 55, 64
12, 19680, Note_on_c, 6, 55, 54
12, 19680, Note_on_c, 6, 49, 39
12, 19798, Note_off_c, 6, 55, 64
12, 19814, Note_off_c, 6, 49, 64
12, 19920, Note_on_c, 6, 55, 78
12, 19920, Note_on_c, 6, 49, 51
12, 19984, Note_off_c, 6, 55, 64
12, 19996, Note_off_c, 6, 49, 64
12, 20160, Note_on_c, 6, 55, 54
12, 20160, Note_on_c, 6, 50, 39
12, 20278, Note_off_c, 6, 55, 64
12, 20294, Note_off_c, 6, 50, 64
12, 20400, Note_on_c, 6, 55, 78
12, 20400, Note_on_c, 6, 50, 51
12, 20464, Note_off_c, 6, 55, 64
12, 20476, Note_off_c, 6, 50, 64
12, 20640, Note_on_c, 6, 49, 52
12, 20640, Note_on_c, 6, 55, 64
12, 20866, Note_off_c, 6, 55, 64
12, 20878, Note_off_c, 6, 49, 64
12, 20880, Note_on_c, 6, 55, 63
12, 20880, Note_on_c, 6, 49, 46
12, 20926, Note_off_c, 6, 49, 64
12, 20942, Note_off_c, 6, 55, 64
12, 21120, Note_on_c, 6, 61, 54
12, 21120, Note_on_c, 6, 54, 39
12, 21238, Note_off_c, 6, 61, 64
12, 21254, Note_off_c, 6, 54, 64
12, 21360, Note_on_c, 6, 61, 78
12, 21360, Note_on_c, 6, 54, 51
12, 21424, Note_off_c, 6, 61, 64
12, 21436, Note_off_c, 6, 54, 64
12, 21600, Note_on_c, 6, 55, 48
12, 21600, Note_on_c, 6, 50, 41
12, 21796, Note_off_c, 6, 55, 64
12, 21802, Note_off_c, 6, 50, 64
12, 21840, Note_on_c, 6, 55, 79
12, 21840, Note_on_c, 6, 50, 57
12, 21882, Note_off_c, 6, 50, 64
12, 21882, Note_off_c, 6, 55, 64
12, 22080, Note_on_c, 6, 52, 52
12, 22080, Note_on_c, 6, 57, 64
12, 22306, Note_off_c, 6, 57, 64
12, 22318, Note_off_c, 6, 52, 64
12, 22320, Note_on_c, 6, 57, 63
12, 22320, Note_on_c, 6, 52, 46
12, 22366, Note_off_c, 6, 52, 64
12, 22382, Note_off_c, 6, 57, 64
12, 22560, Note_on_c, 6, 59, 48
12, 22560, Note_on_c, 6, 54, 41
12, 22756, Note_off_c, 6, 59, 64
12, 22762, Note_off_c, 6, 54, 64
12, 22800, Note_on_c, 6, 59, 79
12, 22800, Note_on_c, 6, 54, 57
12, 22842, Note_off_c, 6, 54, 64
12, 22842, Note_off_c, 6, 59, 64
12, 23040, Note_on_c, 6, 48, 48
12, 23040, Note_on_c, 6, 55, 60
12, 23246, Note_off_c, 6, 55, 64
12, 23258, Note_off_c, 6, 48, 64
12, 23280, Note_on_c, 6, 55, 59
12, 23280, Note_on_c, 6, 48, 42
12, 23306, Note_off_c, 6, 48, 64
12, 23322, Note_off_c, 6, 55, 64
12, 23520, Note_on_c, 6, 48, 26
12, 23520, Note_on_c, 6, 55, 39
12, 23734, Note_off_c, 6, 55, 64
12, 23734, Note_off_c, 6, 48, 64
12, 23760, Note_on_c, 6, 55, 62
12, 23760, Note_on_c, 6, 48, 28
12, 23800, Note_off_c, 6, 48, 64
12, 23800, Note_off_c, 6, 55, 64
12, 24000, Note_on_c, 6, 60, 54
12, 24000, Note_on_c, 6, 54, 39
12, 24118, Note_off_c, 6, 60, 64
12, 24134, Note_off_c, 6, 54, 64
12, 24240, Note_on_c, 6, 60, 78
12, 24240, Note_on_c, 6, 54, 51
12, 24304, Note_off_c, 6, 60, 64
12, 24316, Note_off_c, 6, 54, 64
12, 24480, Note_on_c, 6, 60, 33
12, 24570, Note_off_c, 6, 60, 64
12, 24720, Note_on_c, 6, 60, 80
12, 24720, Note_on_c, 6, 54, 65
12, 24788, Note_off_c, 6, 60, 64
12, 24798, Note_off_c, 6, 54, 64
12, 24960, Note_on_c, 6, 59, 48
12, 24960, Note_on_c, 6, 54, 41
12, 25196, Note_off_c, 6, 59, 64
12, 25200, Note_off_c, 6, 54, 64
12, 25200, Note_on_c, 6, 59, 79
12, 25200, Note_on_c, 6, 54, 57
12, 25282, Note_off_c, 6, 54, 64
12, 25282, Note_off_c, 6, 59, 64
12, 25440, Note_on_c, 6, 59, 30
12, 25440, Note_on_c, 6, 54, 25
12, 25664, Note_off_c, 6, 54, 64
12, 25664, Note_off_c, 6, 59, 64
12, 25680, Note_on_c, 6, 59, 86
12, 25680, Note_on_c, 6, 54, 52
12, 25774, Note_off_c, 6, 54, 64
12, 25774, Note_off_c, 6, 59, 64
12, 25920, Note_on_c, 6, 59, 54
12, 25920, Note_on_c, 6, 52, 39
12, 26038, Note_off_c, 6, 59, 64
12, 26054, Note_off_c, 6, 52, 64
12, 26160, Note_on_c, 6, 59, 78
12, 26160, Note_on_c, 6, 52, 51
12, 26224, Note_off_c, 6, 59, 64
12, 26236, Note_off_c, 6, 52, 64
12, 26400, Note_on_c, 6, 58, 54
12, 26400, Note_on_c, 6, 52, 39
12, 26518, Note_off_c, 6, 58, 64
12, 26534, Note_off_c, 6, 52, 64
12, 26640, Note_on_c, 6, 58, 78
12, 26640, Note_on_c, 6, 52, 51
12, 26704, Note_off_c, 6, 58, 64
12, 26716, Note_off_c, 6, 52, 64
12, 26880, Note_on_c, 6, 57, 48
12, 26880, Note_on_c, 6, 50, 41
12, 27076, Note_off_c, 6, 57, 64
12, 27082, Note_off_c, 6, 50, 64
12, 27120, Note_on_c, 6, 57, 79
12, 27120, Note_on_c, 6, 50, 57
12, 27162, Note_off_c, 6, 50, 64
12, 27162, Note_off_c, 6, 57, 64
12, 27360, Note_on_c, 6, 50, 52
12, 27360, Note_on_c, 6, 59, 64
12, 27586, Note_off_c, 6, 59, 64
12, 27598, Note_off_c, 6, 50, 64
12, 27600, Note_on_c, 6, 59, 63
12, 27600, Note_on_c, 6, 50, 46
12, 27646, Note_off_c, 6, 50, 64
12, 27662, Note_off_c, 6, 59, 64
12, 27840, Note_on_c, 6, 54, 52
12, 27840, Note_on_c, 6, 59, 64
12, 28066, Note_off_c, 6, 59, 64
12, 28078, Note_off_c, 6, 54, 64
12, 28080, Note_on_c, 6, 59, 63
12, 28080, Note_on_c, 6, 54, 46
12, 28126, Note_off_c, 6, 54, 64
12, 28142, Note_off_c, 6, 59, 64
12, 28320, Note_on_c, 6, 54, 52
12, 28320, Note_on_c, 6, 59, 64
12, 28546, Note_off_c, 6, 59, 64
12, 28558, Note_off_c, 6, 54, 64
12, 28560, Note_on_c, 6, 59, 63
12, 28560, Note_on_c, 6, 54, 46
12, 28606, Note_off_c, 6, 54, 64
12, 28622, Note_off_c, 6, 59, 64
12, 28800, Note_on_c, 6, 59, 54
12, 28800, Note_on_c, 6, 54, 39
12, 28918, Note_off_c, 6, 59, 64
12, 28934, Note_off_c, 6, 54, 64
12, 29040, Note_on_c, 6, 59, 78
12, 29040, Note_on_c, 6, 54, 51
12, 29104, Note_off_c, 6, 59, 64
12, 29116, Note_off_c, 6, 54, 64
12, 29280, Note_on_c, 6, 50, 52
12, 29280, Note_on_c, 6, 56, 64
12, 29506, Note_off_c, 6, 56, 64
12, 29518, Note_off_c, 6, 50, 64
12, 29520, Note_on_c, 6, 56, 63
12, 29520, Note_on_c, 6, 50, 46
12, 29566, Note_off_c, 6, 50, 64
12, 29582, Note_off_c, 6, 56, 64
12, 29760, Note_on_c, 6, 50, 52
12, 29760, Note_on_c, 6, 55, 64
12, 29986, Note_off_c, 6, 55, 64
12, 29998, Note_off_c, 6, 50, 64
12, 30000, Note_on_c, 6, 55, 63
12, 30000, Note_on_c, 6, 50, 46
12, 30046, Note_off_c, 6, 50, 64
12, 30062, Note_off_c, 6, 55, 64
12, 30240, Note_on_c, 6, 55, 54
12, 30240, Note_on_c, 6, 49, 39
12, 30358, Note_off_c, 6, 55, 64
12, 30374, Note_off_c, 6, 49, 64
12, 30480, Note_on_c, 6, 55, 78
12, 30480, Note_on_c, 6, 49, 51
12, 30544, Note_off_c, 6, 55, 64
12, 30556, Note_off_c, 6, 49, 64
12, 30720, Note_on_c, 6, 54, 52
12, 30720, Note_on_c, 6, 59, 64
12, 30946, Note_off_c, 6, 59, 64
12, 30958, Note_off_c, 6, 54, 64
12, 30960, Note_on_c, 6, 59, 63
12, 30960, Note_on_c, 6, 54, 46
12, 31006, Note_off_c, 6, 54, 64
12, 31022, Note_off_c, 6, 59, 64
12, 31200, Note_on_c, 6, 54, 30
12, 31200, Note_on_c, 6, 59, 43
12, 31434, Note_off_c, 6, 59, 64
12, 31434, Note_off_c, 6, 54, 64
12, 31440, Note_on_c, 6, 59, 66
12, 31440, Note_on_c, 6, 54, 32
12, 31500, Note_off_c, 6, 54, 64
12, 31500, Note_off_c, 6, 59, 64
12, 31680, Note_on_c, 6, 59, 57
12, 31680, Note_on_c, 6, 54, 31
12, 31902, Note_off_c, 6, 59, 64
12, 31920, Note_on_c, 6, 59, 83
12, 31978, Note_off_c, 6, 54, 64
12, 31986, Note_off_c, 6, 59, 64
12, 32160, Note_on_c, 6, 59, 55
12, 32160, Note_on_c, 6, 54, 45
12, 32400, Note_off_c, 6, 54, 64
12, 32400, Note_off_c, 6, 59, 64
12, 32400, Note_on_c, 6, 59, 75
12, 32400, Note_on_c, 6, 54, 50
12, 32462, Note_off_c, 6, 54, 64
12, 32462, Note_off_c, 6, 59, 64
12, 32640, Note_on_c, 6, 54, 48
12, 32640, Note_on_c, 6, 61, 60
12, 32846, Note_off_c, 6, 61, 64
12, 32858, Note_off_c, 6, 54, 64
12, 32880, Note_on_c, 6, 61, 59
12, 32880, Note_on_c, 6, 54, 42
12, 32906, Note_off_c, 6, 54, 64
12, 32922, Note_off_c, 6, 61, 64
12, 33120, Note_on_c, 6, 54, 26
12, 33120, Note_on_c, 6, 61, 39
12, 33334, Note_off_c, 6, 61, 64
12, 33334, Note_off_c, 6, 54, 64
12, 33360, Note_on_c, 6, 61, 62
12, 33360, Note_on_c, 6, 54, 28
12, 33400, Note_off_c, 6, 54, 64
12, 33400, Note_off_c, 6, 61, 64
12, 33600, Note_on_c, 6, 52, 52
12, 33600, Note_on_c, 6, 57, 64
12, 33826, Note_off_c, 6, 57, 64
12, 33838, Note_off_c, 6, 52, 64
12, 33840, Note_on_c, 6, 57, 63
12, 33840, Note_on_c, 6, 52, 46
12, 33886, Note_off_c, 6, 52, 64
12, 33902, Note_off_c, 6, 57, 64
12, 34080, Note_on_c, 6, 51, 52
12, 34080, Note_on_c, 6, 57, 64
12, 34306, Note_off_c, 6, 57, 64
12, 34318, Note_off_c, 6, 51, 64
12, 34320, Note_on_c, 6, 57, 63
12, 34320, Note_on_c, 6, 51, 46
12, 34366, Note_off_c, 6, 51, 64
12, 34382, Note_off_c, 6, 57, 64
12, 34560, Note_on_c, 6, 55, 54
12, 34560, Note_on_c, 6, 50, 39
12, 34678, Note_off_c, 6, 55, 64
12, 34694, Note_off_c, 6, 50, 64
12, 34800, Note_on_c, 6, 55, 78
12, 34800, Note_on_c, 6, 50, 51
12, 34864, Note_off_c, 6, 55, 64
12, 34876, Note_off_c, 6, 50, 64
12, 35040, Note_on_c, 6, 55, 48
12, 35040, Note_on_c, 6, 49, 41
12, 35236, Note_off_c, 6, 55, 64
12, 35242, Note_off_c, 6, 49, 64
12, 35280, Note_on_c, 6, 55, 79
12, 35280, Note_on_c, 6, 49, 57
12, 35322, Note_off_c, 6, 49, 64
12, 35322, Note_off_c, 6, 55, 64
12, 35520, Note_on_c, 6, 50, 52
12, 35520, Note_on_c, 6, 55, 64
12, 35746, Note_off_c, 6, 55, 64
12, 35758, Note_off_c, 6, 50, 64
12, 35760, Note_on_c, 6, 55, 63
12, 35760, Note_on_c, 6, 50, 46
12, 35806, Note_off_c, 6, 50, 64
12, 35822, Note_off_c, 6, 55, 64
12, 36000, Note_on_c, 6, 55, 48
12, 36000, Note_on_c, 6, 49, 41
12, 36196, Note_off_c, 6, 55, 64
12, 36202, Note_off_c, 6, 49, 64
12, 36240, Note_on_c, 6, 55, 79
12, 36240, Note_on_c, 6, 49, 57
12, 36282, Note_off_c, 6, 49, 64
12, 36282, Note_off_c, 6, 55, 64
12, 36480, Note_on_c, 6, 61, 54
12, 36480, Note_on_c, 6, 54, 39
12, 36598, Note_off_c, 6, 61, 64
12, 36614, Note_off_c, 6, 54, 64
12, 36720, Note_on_c, 6, 61, 78
12, 36720, Note_on_c, 6, 54, 51
12, 36784, Note_off_c, 6, 61, 64
12, 36796, Note_off_c, 6, 54, 64
12, 36960, Note_on_c, 6, 50, 52
12, 36960, Note_on_c, 6, 55, 64
12, 37186, Note_off_c, 6, 55, 64
12, 37198, Note_off_c, 6, 50, 64
12, 37200, Note_on_c, 6, 55, 63
12, 37200, Note_on_c, 6, 50, 46
12, 37246, Note_off_c, 6, 50, 64
12, 37262, Note_off_c, 6, 55, 64
12, 37440, Note_on_c, 6, 57, 48
12, 37440, Note_on_c, 6, 52, 41
12, 37636, Note_off_c, 6, 57, 64
12, 37642, Note_off_c, 6, 52, 64
12, 37680, Note_on_c, 6, 57, 79
12, 37680, Note_on_c, 6, 52, 57
12, 37722, Note_off_c, 6, 52, 64
12, 37722, Note_off_c, 6, 57, 64
12, 37920, Note_on_c, 6, 59, 54
12, 37920, Note_on_c, 6, 54, 39
12, 38038, Note_off_c, 6, 59, 64
12, 38054, Note_off_c, 6, 54, 64
12, 38160, Note_on_c, 6, 59, 78
12, 38160, Note_on_c, 6, 54, 51
12, 38224, Note_off_c, 6, 59, 64
12, 38236, Note_off_c, 6, 54, 64
12, 38640, Note_on_c, 6, 55, 73
12, 38640, Note_on_c, 6, 48, 47
12, 38698, Note_off_c, 6, 48, 64
12, 38698, Note_off_c, 6, 55, 64
12, 39120, Note_on_c, 6, 55, 70
12, 39120, Note_on_c, 6, 48, 52
12, 39182, Note_off_c, 6, 55, 64
12, 39190, Note_off_c, 6, 48, 64
12, 39360, Note_on_c, 6, 54, 48
12, 39360, Note_on_c, 6, 60, 60
12, 39566, Note_off_c, 6, 60, 64
12, 39578, Note_off_c, 6, 54, 64
12, 39600, Note_on_c, 6, 60, 59
12, 39600, Note_on_c, 6, 54, 42
12, 39626, Note_off_c, 6, 54, 64
12, 39642, Note_off_c, 6, 60, 64
12, 39840, Note_on_c, 6, 54, 26
12, 39840, Note_on_c, 6, 60, 39
12, 40054, Note_off_c, 6, 60, 64
12, 40054, Note_off_c, 6, 54, 64
12, 40080, Note_on_c, 6, 60, 62
12, 40080, Note_on_c, 6, 54, 28
12, 40120, Note_off_c, 6, 54, 64
12, 40120, Note_off_c, 6, 60, 64
12, 40320, Note_on_c, 6, 59, 48
12, 40320, Note_on_c, 6, 54, 41
12, 40556, Note_off_c, 6, 59, 64
12, 40560, Note_off_c, 6, 54, 64
12, 40560, Note_on_c, 6, 59, 79
12, 40560, Note_on_c, 6, 54, 57
12, 40642, Note_off_c, 6, 54, 64
12, 40642, Note_off_c, 6, 59, 64
12, 40800, Note_on_c, 6, 59, 30
12, 40800, Note_on_c, 6, 54, 25
12, 41024, Note_off_c, 6, 54, 64
12, 41024, Note_off_c, 6, 59, 64
12, 41040, Note_on_c, 6, 59, 86
12, 41040, Note_on_c, 6, 54, 52
12, 41134, Note_off_c, 6, 54, 64
12, 41134, Note_off_c, 6, 59, 64
12, 41280, Note_on_c, 6, 59, 48
12, 41280, Note_on_c, 6, 54, 41
12, 41476, Note_off_c, 6, 59, 64
12, 41482, Note_off_c, 6, 54, 64
12, 41520, Note_on_c, 6, 59, 79
12, 41520, Note_on_c, 6, 54, 57
12, 41562, Note_off_c, 6, 54, 64
12, 41562, Note_off_c, 6, 59, 64
12, 41760, Note_on_c, 6, 53, 52
12, 41760, Note_on_c, 6, 59, 64
12, 41986, Note_off_c, 6, 59, 64
12, 41998, Note_off_c, 6, 53, 64
12, 42000, Note_on_c, 6, 59, 63
12, 42000, Note_on_c, 6, 53, 46
12, 42046, Note_off_c, 6, 53, 64
12, 42062, Note_off_c, 6, 59, 64
12, 42240, Note_on_c, 6, 57, 54
12, 42240, Note_on_c, 6, 52, 39
12, 42358, Note_off_c, 6, 57, 64
12, 42374, Note_off_c, 6, 52, 64
12, 42480, Note_on_c, 6, 57, 78
12, 42480, Note_on_c, 6, 52, 51
12, 42544, Note_off_c, 6, 57, 64
12, 42556, Note_off_c, 6, 52, 64
12, 42720, Note_on_c, 6, 50, 52
12, 42720, Note_on_c, 6, 57, 64
12, 42946, Note_off_c, 6, 57, 64
12, 42958, Note_off_c, 6, 50, 64
12, 42960, Note_on_c, 6, 57, 63
12, 42960, Note_on_c, 6, 50, 46
12, 43006, Note_off_c, 6, 50, 64
12, 43022, Note_off_c, 6, 57, 64
12, 43200, Note_on_c, 6, 55, 48
12, 43200, Note_on_c, 6, 48, 41
12, 43396, Note_off_c, 6, 55, 64
12, 43402, Note_off_c, 6, 48, 64
12, 43440, Note_on_c, 6, 55, 79
12, 43440, Note_on_c, 6, 48, 57
12, 43482, Note_off_c, 6, 48, 64
12, 43482, Note_off_c, 6, 55, 64
12, 43680, Note_on_c, 6, 60, 48
12, 43680, Note_on_c, 6, 54, 41
12, 43876, Note_off_c, 6, 60, 64
12, 43882, Note_off_c, 6, 54, 64
12, 43920, Note_on_c, 6, 60, 79
12, 43920, Note_on_c, 6, 54, 57
12, 43962, Note_off_c, 6, 54, 64
12, 43962, Note_off_c, 6, 60, 64
12, 44160, Note_on_c, 6, 54, 52
12, 44160, Note_on_c, 6, 59, 64
12, 44386, Note_off_c, 6, 59, 64
12, 44398, Note_off_c, 6, 54, 64
12, 44400, Note_on_c, 6, 59, 63
12, 44400, Note_on_c, 6, 54, 46
12, 44446, Note_off_c, 6, 54, 64
12, 44462, Note_off_c, 6, 59, 64
12, 44640, Note_on_c, 6, 52, 52
12, 44640, Note_on_c, 6, 59, 64
12, 44866, Note_off_c, 6, 59, 64
12, 44878, Note_off_c, 6, 52, 64
12, 44880, Note_on_c, 6, 59, 63
12, 44880, Note_on_c, 6, 52, 46
12, 44926, Note_off_c, 6, 52, 64
12, 44942, Note_off_c, 6, 59, 64
12, 45120, Note_on_c, 6, 57, 48
12, 45120, Note_on_c, 6, 52, 41
12, 45316, Note_off_c, 6, 57, 64
12, 45322, Note_off_c, 6, 52, 64
12, 45360, Note_on_c, 6, 57, 79
12, 45360, Note_on_c, 6, 52, 57
12, 45402, Note_off_c, 6, 52, 64
12, 45402, Note_off_c, 6, 57, 64
12, 45600, Note_on_c, 6, 57, 48
12, 45600, Note_on_c, 6, 51, 41
12, 45796, Note_off_c, 6, 57, 64
12, 45802, Note_off_c, 6, 51, 64
12, 45840, Note_on_c, 6, 57, 79
12, 45840, Note_on_c, 6, 51, 57
12, 45882, Note_off_c, 6, 51, 64
12, 45882, Note_off_c, 6, 57, 64
12, 46080, Note_on_c, 6, 50, 52
12, 46080, Note_on_c, 6, 55, 64
12, 46306, Note_off_c, 6, 55, 64
12, 46318, Note_off_c, 6, 50, 64
12, 46320, Note_on_c, 6, 55, 63
12, 46320, Note_on_c, 6, 50, 46
12, 46366, Note_off_c, 6, 50, 64
12, 46382, Note_off_c, 6, 55, 64
12, 46560, Note_on_c, 6, 50, 52
12, 46560, Note_on_c, 6, 56, 64
12, 46786, Note_off_c, 6, 56, 64
12, 46798, Note_off_c, 6, 50, 64
12, 46800, Note_on_c, 6, 56, 63
12, 46800, Note_on_c, 6, 50, 46
12, 46846, Note_off_c, 6, 50, 64
12, 46862, Note_off_c, 6, 56, 64
12, 47040, Note_on_c, 6, 50, 52
12, 47040, Note_on_c, 6, 55, 64
12, 47266, Note_off_c, 6, 55, 64
12, 47278, Note_off_c, 6, 50, 64
12, 47280, Note_on_c, 6, 55, 63
12, 47280, Note_on_c, 6, 50, 46
12, 47326, Note_off_c, 6, 50, 64
12, 47342, Note_off_c, 6, 55, 64
12, 47520, Note_on_c, 6, 55, 54
12, 47520, Note_on_c, 6, 49, 39
12, 47638, Note_off_c, 6, 55, 64
12, 47654, Note_off_c, 6, 49, 64
12, 47760, Note_on_c, 6, 55, 78
12, 47760, Note_on_c, 6, 49, 51
12, 47824, Note_off_c, 6, 55, 64
12, 47836, Note_off_c, 6, 49, 64
12, 48240, Note_on_c, 6, 61, 73
12, 48240, Note_on_c, 6, 54, 47
12, 48298, Note_off_c, 6, 54, 64
12, 48298, Note_off_c, 6, 61, 64
12, 48720, Note_on_c, 6, 61, 70
12, 48720, Note_on_c, 6, 54, 52
12, 48782, Note_off_c, 6, 61, 64
12, 48790, Note_off_c, 6, 54, 64
12, 48960, Note_on_c, 6, 57, 48
12, 48960, Note_on_c, 6, 52, 41
12, 49156, Note_off_c, 6, 57, 64
12, 49162, Note_off_c, 6, 52, 64
12, 49200, Note_on_c, 6, 57, 79
12, 49200, Note_on_c, 6, 52, 57
12, 49242, Note_off_c, 6, 52, 64
12, 49242, Note_off_c, 6, 57, 64
12, 49440, Note_on_c, 6, 57, 48
12, 49440, Note_on_c, 6, 51, 41
12, 49636, Note_off_c, 6, 57, 64
12, 49642, Note_off_c, 6, 51, 64
12, 49680, Note_on_c, 6, 57, 79
12, 49680, Note_on_c, 6, 51, 57
12, 49722, Note_off_c, 6, 51, 64
12, 49722, Note_off_c, 6, 57, 64
12, 49920, Note_on_c, 6, 55, 54
12, 49920, Note_on_c, 6, 50, 39
12, 50038, Note_off_c, 6, 55, 64
12, 50054, Note_off_c, 6, 50, 64
12, 50160, Note_on_c, 6, 55, 78
12, 50160, Note_on_c, 6, 50, 51
12, 50224, Note_off_c, 6, 55, 64
12, 50236, Note_off_c, 6, 50, 64
12, 50400, Note_on_c, 6, 49, 52
12, 50400, Note_on_c, 6, 55, 64
12, 50626, Note_off_c, 6, 55, 64
12, 50638, Note_off_c, 6, 49, 64
12, 50640, Note_on_c, 6, 55, 63
12, 50640, Note_on_c, 6, 49, 46
12, 50686, Note_off_c, 6, 49, 64
12, 50702, Note_off_c, 6, 55, 64
12, 50880, Note_on_c, 6, 55, 54
12, 50880, Note_on_c, 6, 50, 39
12, 50998, Note_off_c, 6, 55, 64
12, 51014, Note_off_c, 6, 50, 64
12, 51120, Note_on_c, 6, 55, 78
12, 51120, Note_on_c, 6, 50, 51
12, 51184, Note_off_c, 6, 55, 64
12, 51196, Note_off_c, 6, 50, 64
12, 51360, Note_on_c, 6, 49, 52
12, 51360, Note_on_c, 6, 55, 64
12, 51586, Note_off_c, 6, 55, 64
12, 51598, Note_off_c, 6, 49, 64
12, 51600, Note_on_c, 6, 55, 63
12, 51600, Note_on_c, 6, 49, 46
12, 51646, Note_off_c, 6, 49, 64
12, 51662, Note_off_c, 6, 55, 64
12, 51840, Note_on_c, 6, 61, 54
12, 51840, Note_on_c, 6, 54, 39
12, 51958, Note_off_c, 6, 61, 64
12, 51974, Note_off_c, 6, 54, 64
12, 52080, Note_on_c, 6, 61, 78
12, 52080, Note_on_c, 6, 54, 51
12, 52144, Note_off_c, 6, 61, 64
12, 52156, Note_off_c, 6, 54, 64
12, 52320, Note_on_c, 6, 55, 48
12, 52320, Note_on_c, 6, 50, 41
12, 52516, Note_off_c, 6, 55, 64
12, 52522, Note_off_c, 6, 50, 64
12, 52560, Note_on_c, 6, 55, 79
12, 52560, Note_on_c, 6, 50, 57
12, 52602, Note_off_c, 6, 50, 64
12, 52602, Note_off_c, 6, 55, 64
12, 52800, Note_on_c, 6, 52, 52
12, 52800, Note_on_c, 6, 57, 64
12, 53026, Note_off_c, 6, 57, 64
12, 53038, Note_off_c, 6, 52, 64
12, 53040, Note_on_c, 6, 57, 63
12, 53040, Note_on_c, 6, 52, 46
12, 53086, Note_off_c, 6, 52, 64
12, 53102, Note_off_c, 6, 57, 64
12, 53280, Note_on_c, 6, 54, 52
12, 53280, Note_on_c, 6, 59, 64
12, 53506, Note_off_c, 6, 59, 64
12, 53518, Note_off_c, 6, 54, 64
12, 53520, Note_on_c, 6, 59, 63
12, 53520, Note_on_c, 6, 54, 46
12, 53566, Note_off_c, 6, 54, 64
12, 53582, Note_off_c, 6, 59, 64
12, 53760, Note_on_c, 6, 55, 54
12, 53760, Note_on_c, 6, 48, 39
12, 53878, Note_off_c, 6, 55, 64
12, 53894, Note_off_c, 6, 48, 64
12, 54000, Note_on_c, 6, 55, 78
12, 54000, Note_on_c, 6, 48, 51
12, 54064, Note_off_c, 6, 55, 64
12, 54076, Note_off_c, 6, 48, 64
12, 54240, Note_on_c, 6, 55, 33
12, 54330, Note_off_c, 6, 55, 64
12, 54480, Note_on_c, 6, 55, 80
12, 54480, Note_on_c, 6, 48, 65
12, 54548, Note_off_c, 6, 55, 64
12, 54558, Note_off_c, 6, 48, 64
12, 54720, Note_on_c, 6, 60, 54
12, 54720, Note_on_c, 6, 54, 39
12, 54838, Note_off_c, 6, 60, 64
12, 54854, Note_off_c, 6, 54, 64
12, 54960, Note_on_c, 6, 60, 78
12, 54960, Note_on_c, 6, 54, 51
12, 55024, Note_off_c, 6, 60, 64
12, 55036, Note_off_c, 6, 54, 64
12, 55200, Note_on_c, 6, 60, 33
12, 55290, Note_off_c, 6, 60, 64
12, 55440, Note_on_c, 6, 60, 80
12, 55440, Note_on_c, 6, 54, 65
12, 55508, Note_off_c, 6, 60, 64
12, 55518, Note_off_c, 6, 54, 64
12, 55680, Note_on_c, 6, 54, 48
12, 55680, Note_on_c, 6, 59, 60
12, 55886, Note_off_c, 6, 59, 64
12, 55898, Note_off_c, 6, 54, 64
12, 55920, Note_on_c, 6, 59, 59
12, 55920, Note_on_c, 6, 54, 42
12, 55946, Note_off_c, 6, 54, 64
12, 55962, Note_off_c, 6, 59, 64
12, 56160, Note_on_c, 6, 54, 26
12, 56160, Note_on_c, 6, 59, 39
12, 56374, Note_off_c, 6, 59, 64
12, 56374, Note_off_c, 6, 54, 64
12, 56400, Note_on_c, 6, 59, 62
12, 56400, Note_on_c, 6, 54, 28
12, 56440, Note_off_c, 6, 54, 64
12, 56440, Note_off_c, 6, 59, 64
12, 56640, Note_on_c, 6, 59, 54
12, 56640, Note_on_c, 6, 52, 39
12, 56758, Note_off_c, 6, 59, 64
12, 56774, Note_off_c, 6, 52, 64
12, 56880, Note_on_c, 6, 59, 78
12, 56880, Note_on_c, 6, 52, 51
12, 56944, Note_off_c, 6, 59, 64
12, 56956, Note_off_c, 6, 52, 64
12, 57120, Note_on_c, 6, 58, 48
12, 57120, Note_on_c, 6, 52, 41
12, 57316, Note_off_c, 6, 58, 64
12, 57322, Note_off_c, 6, 52, 64
12, 57360, Note_on_c, 6, 58, 79
12, 57360, Note_on_c, 6, 52, 57
12, 57402, Note_off_c, 6, 52, 64
12, 57402, Note_off_c, 6, 58, 64
12, 57600, Note_on_c, 6, 57, 48
12, 57600, Note_on_c, 6, 50, 41
12, 57796, Note_off_c, 6, 57, 64
12, 57802, Note_off_c, 6, 50, 64
12, 57840, Note_on_c, 6, 57, 79
12, 57840, Note_on_c, 6, 50, 57
12, 57882, Note_off_c, 6, 50, 64
12, 57882, Note_off_c, 6, 57, 64
12, 58080, Note_on_c, 6, 59, 48
12, 58080, Note_on_c, 6, 50, 41
12, 58276, Note_off_c, 6, 59, 64
12, 58282, Note_off_c, 6, 50, 64
12, 58320, Note_on_c, 6, 59, 79
12, 58320, Note_on_c, 6, 50, 57
12, 58362, Note_off_c, 6, 50, 64
12, 58362, Note_off_c, 6, 59, 64
12, 58560, Note_on_c, 6, 59, 54
12, 58560, Note_on_c, 6, 54, 39
12, 58678, Note_off_c, 6, 59, 64
12, 58694, Note_off_c, 6, 54, 64
12, 58800, Note_on_c, 6, 59, 78
12, 58800, Note_on_c, 6, 54, 51
12, 58864, Note_off_c, 6, 59, 64
12, 58876, Note_off_c, 6, 54, 64
12, 59040, Note_on_c, 6, 54, 52
12, 59040, Note_on_c, 6, 59, 64
12, 59266, Note_off_c, 6, 59, 64
12, 59278, Note_off_c, 6, 54, 64
12, 59280, Note_on_c, 6, 59, 63
12, 59280, Note_on_c, 6, 54, 46
12, 59326, Note_off_c, 6, 54, 64
12, 59342, Note_off_c, 6, 59, 64
12, 59520, Note_on_c, 6, 59, 48
12, 59520, Note_on_c, 6, 54, 41
12, 59716, Note_off_c, 6, 59, 64
12, 59722, Note_off_c, 6, 54, 64
12, 59760, Note_on_c, 6, 59, 79
12, 59760, Note_on_c, 6, 54, 57
12, 59802, Note_off_c, 6, 54, 64
12, 59802, Note_off_c, 6, 59, 64
12, 60000, Note_on_c, 6, 56, 54
12, 60000, Note_on_c, 6, 50, 39
12, 60118, Note_off_c, 6, 56, 64
12, 60134, Note_off_c, 6, 50, 64
12, 60240, Note_on_c, 6, 56, 78
12, 60240, Note_on_c, 6, 50, 51
12, 60304, Note_off_c, 6, 56, 64
12, 60316, Note_off_c, 6, 50, 64
12, 60480, Note_on_c, 6, 55, 48
12, 60480, Note_on_c, 6, 50, 41
12, 60676, Note_off_c, 6, 55, 64
12, 60682, Note_off_c, 6, 50, 64
12, 60720, Note_on_c, 6, 55, 79
12, 60720, Note_on_c, 6, 50, 57
12, 60762, Note_off_c, 6, 50, 64
12, 60762, Note_off_c, 6, 55, 64
12, 60960, Note_on_c, 6, 49, 52
12, 60960, Note_on_c, 6, 55, 64
12, 61186, Note_off_c, 6, 55, 64
12, 61198, Note_off_c, 6, 49, 64
12, 61200, Note_on_c, 6, 55, 63
12, 61200, Note_on_c, 6, 49, 46
12, 61246, Note_off_c, 6, 49, 64
12, 61262, Note_off_c, 6, 55, 64
12, 61440, Note_on_c, 6, 54, 52
12, 61440, Note_on_c, 6, 59, 64
12, 61666, Note_off_c, 6, 59, 64
12, 61678, Note_off_c, 6, 54, 64
12, 61680, Note_on_c, 6, 59, 63
12, 61680, Note_on_c, 6, 54, 46
12, 61726, Note_off_c, 6, 54, 64
12, 61742, Note_off_c, 6, 59, 64
12, 61920, Note_on_c, 6, 54, 30
12, 61920, Note_on_c, 6, 59, 43
12, 62154, Note_off_c, 6, 59, 64
12, 62154, Note_off_c, 6, 54, 64
12, 62160, Note_on_c, 6, 59, 66
12, 62160, Note_on_c, 6, 54, 32
12, 62220, Note_off_c, 6, 54, 64
12, 62220, Note_off_c, 6, 59, 64
12, 62400, Note_on_c, 6, 59, 57
12, 62400, Note_on_c, 6, 54, 31
12, 62622, Note_off_c, 6, 59, 64
12, 62640, Note_on_c, 6, 59, 83
12, 62698, Note_off_c, 6, 54, 64
12, 62706, Note_off_c, 6, 59, 64
12, 62880, Note_on_c, 6, 59, 55
12, 62880, Note_on_c, 6, 54, 45
12, 63120, Note_off_c, 6, 54, 64
12, 63120, Note_off_c, 6, 59, 64
12, 63120, Note_on_c, 6, 59, 75
12, 63120, Note_on_c, 6, 54, 50
12, 63182, Note_off_c, 6, 54, 64
12, 63182, Note_off_c, 6, 59, 64
12, 63600, Note_on_c, 6, 61, 73
12, 63600, Note_on_c, 6, 54, 47
12, 63662, Note_off_c, 6, 54, 64
12, 63662, Note_off_c, 6, 61, 64
12, 64080, Note_on_c, 6, 61, 70
12, 64080, Note_on_c, 6, 54, 52
12, 64146, Note_off_c, 6, 61, 64
12, 64154, Note_off_c, 6, 54, 64
12, 64560, Note_on_c, 6, 57, 73
12, 64560, Note_on_c, 6, 52, 47
12, 64622, Note_off_c, 6, 52, 64
12, 64622, Note_off_c, 6, 57, 64
12, 65040, Note_on_c, 6, 57, 73
12, 65040, Note_on_c, 6, 51, 47
12, 65102, Note_off_c, 6, 51, 64
12, 65102, Note_off_c, 6, 57, 64
12, 65520, Note_on_c, 6, 55, 73
12, 65520, Note_on_c, 6, 50, 47
12, 65582, Note_off_c, 6, 50, 64
12, 65582, Note_off_c, 6, 55, 64
12, 66000, Note_on_c, 6, 55, 73
12, 66000, Note_on_c, 6, 49, 47
12, 66062, Note_off_c, 6, 49, 64
12, 66062, Note_off_c, 6, 55, 64
12, 66480, Note_on_c, 6, 55, 73
12, 66480, Note_on_c, 6, 50, 47
12, 66542, Note_off_c, 6, 50, 64
12, 66542, Note_off_c, 6, 55, 64
12, 66960, Note_on_c, 6, 55, 73
12, 66960, Note_on_c, 6, 49, 47
12, 67022, Note_off_c, 6, 49, 64
12, 67022, Note_off_c, 6, 55, 64
12, 67440, Note_on_c, 6, 61, 73
12, 67440, Note_on_c, 6, 54, 47
12, 67502, Note_off_c, 6, 54, 64
12, 67502, Note_off_c, 6, 61, 64
12, 67920, Note_on_c, 6, 55, 73
12, 67920, Note_on_c, 6, 50, 47
12, 67982, Note_off_c, 6, 50, 64
12, 67982, Note_off_c, 6, 55, 64
12, 68400, Note_on_c, 6, 57, 73
12, 68400, Note_on_c, 6, 52, 47
12, 68462, Note_off_c, 6, 52, 64
12, 68462, Note_off_c, 6, 57, 64
12, 68880, Note_on_c, 6, 59, 73
12, 68880, Note_on_c, 6, 54, 47
12, 68942, Note_off_c, 6, 54, 64
12, 68942, Note_off_c, 6, 59, 64
12, 69360, Note_on_c, 6, 55, 73
12, 69360, Note_on_c, 6, 48, 47
12, 69422, Note_off_c, 6, 48, 64
12, 69422, Note_off_c, 6, 55, 64
12, 69840, Note_on_c, 6, 55, 70
12, 69840, Note_on_c, 6, 48, 52
12, 69906, Note_off_c, 6, 55, 64
12, 69914, Note_off_c, 6, 48, 64
12, 70320, Note_on_c, 6, 60, 68
12, 70376, Note_off_c, 6, 60, 64
12, 70560, Note_on_c, 6, 60, 61
12, 70560, Note_on_c, 6, 54, 12
12, 70608, Note_off_c, 6, 54, 64
12, 70614, Note_off_c, 6, 60, 64
12, 70800, Note_on_c, 6, 54, 73
12, 70800, Note_on_c, 6, 60, 88
12, 70858, Note_off_c, 6, 60, 64
12, 70858, Note_off_c, 6, 54, 64
12, 71280, Note_on_c, 6, 59, 73
12, 71280, Note_on_c, 6, 54, 47
12, 71342, Note_off_c, 6, 54, 64
12, 71342, Note_off_c, 6, 59, 64
12, 71760, Note_on_c, 6, 59, 70
12, 71760, Note_on_c, 6, 54, 52
12, 71826, Note_off_c, 6, 59, 64
12, 71834, Note_off_c, 6, 54, 64
12, 72240, Note_on_c, 6, 59, 73
12, 72240, Note_on_c, 6, 54, 47
12, 72302, Note_off_c, 6, 54, 64
12, 72302, Note_off_c, 6, 59, 64
12, 72720, Note_on_c, 6, 59, 73
12, 72720, Note_on_c, 6, 53, 47
12, 72782, Note_off_c, 6, 53, 64
12, 72782, Note_off_c, 6, 59, 64
12, 73200, Note_on_c, 6, 57, 73
12, 73200, Note_on_c, 6, 52, 47
12, 73262, Note_off_c, 6, 52, 64
12, 73262, Note_off_c, 6, 57, 64
12, 73680, Note_on_c, 6, 57, 73
12, 73680, Note_on_c, 6, 50, 47
12, 73742, Note_off_c, 6, 50, 64
12, 73742, Note_off_c, 6, 57, 64
12, 74160, Note_on_c, 6, 55, 73
12, 74160, Note_on_c, 6, 48, 47
12, 74222, Note_off_c, 6, 48, 64
12, 74222, Note_off_c, 6, 55, 64
12, 74640, Note_on_c, 6, 60, 68
12, 74696, Note_off_c, 6, 60, 64
12, 75120, Note_on_c, 6, 59, 73
12, 75120, Note_on_c, 6, 54, 47
12, 75182, Note_off_c, 6, 54, 64
12, 75182, Note_off_c, 6, 59, 64
12, 75600, Note_on_c, 6, 59, 73
12, 75600, Note_on_c, 6, 52, 47
12, 75662, Note_off_c, 6, 52, 64
12, 75662, Note_off_c, 6, 59, 64
12, 76080, Note_on_c, 6, 57, 73
12, 76080, Note_on_c, 6, 52, 47
12, 76142, Note_off_c, 6, 52, 64
12, 76142, Note_off_c, 6, 57, 64
12, 76560, Note_on_c, 6, 57, 73
12, 76560, Note_on_c, 6, 51, 47
12, 76622, Note_off_c, 6, 51, 64
12, 76622, Note_off_c, 6, 57, 64
12, 77040, Note_on_c, 6, 55, 73
12, 77040, Note_on_c, 6, 50, 47
12, 77102, Note_off_c, 6, 50, 64
12, 77102, Note_off_c, 6, 55, 64
12, 77520, Note_on_c, 6, 56, 73
12, 77520, Note_on_c, 6, 50, 47
12, 77582, Note_off_c, 6, 50, 64
12, 77582, Note_off_c, 6, 56, 64
12, 78000, Note_on_c, 6, 55, 73
12, 78000, Note_on_c, 6, 50, 47
12, 78062, Note_off_c, 6, 50, 64
12, 78062, Note_off_c, 6, 55, 64
12, 78480, Note_on_c, 6, 55, 68
12, 78536, Note_off_c, 6, 55, 64
12, 78720, Note_on_c, 6, 61, 48
12, 78720, Note_on_c, 6, 54, 41
12, 78956, Note_off_c, 6, 61, 64
12, 78960, Note_off_c, 6, 54, 64
12, 78960, Note_on_c, 6, 61, 79
12, 78960, Note_on_c, 6, 54, 57
12, 79042, Note_off_c, 6, 54, 64
12, 79042, Note_off_c, 6, 61, 64
12, 79200, Note_on_c, 6, 61, 30
12, 79200, Note_on_c, 6, 54, 25
12, 79424, Note_off_c, 6, 54, 64
12, 79424, Note_off_c, 6, 61, 64
12, 79440, Note_on_c, 6, 61, 86
12, 79440, Note_on_c, 6, 54, 52
12, 79534, Note_off_c, 6, 54, 64
12, 79534, Note_off_c, 6, 61, 64
12, 79680, Note_on_c, 6, 57, 48
12, 79680, Note_on_c, 6, 52, 41
12, 79876, Note_off_c, 6, 57, 64
12, 79882, Note_off_c, 6, 52, 64
12, 79920, Note_on_c, 6, 57, 79
12, 79920, Note_on_c, 6, 52, 57
12, 79962, Note_off_c, 6, 52, 64
12, 79962, Note_off_c, 6, 57, 64
12, 80160, Note_on_c, 6, 57, 54
12, 80160, Note_on_c, 6, 51, 39
12, 80278, Note_off_c, 6, 57, 64
12, 80294, Note_off_c, 6, 51, 64
12, 80400, Note_on_c, 6, 57, 78
12, 80400, Note_on_c, 6, 51, 51
12, 80464, Note_off_c, 6, 57, 64
12, 80476, Note_off_c, 6, 51, 64
12, 80640, Note_on_c, 6, 50, 52
12, 80640, Note_on_c, 6, 55, 64
12, 80866, Note_off_c, 6, 55, 64
12, 80878, Note_off_c, 6, 50, 64
12, 80880, Note_on_c, 6, 55, 63
12, 80880, Note_on_c, 6, 50, 46
12, 80926, Note_off_c, 6, 50, 64
12, 80942, Note_off_c, 6, 55, 64
12, 81120, Note_on_c, 6, 55, 54
12, 81120, Note_on_c, 6, 49, 39
12, 81238, Note_off_c, 6, 55, 64
12, 81254, Note_off_c, 6, 49, 64
12, 81360, Note_on_c, 6, 55, 78
12, 81360, Note_on_c, 6, 49, 51
12, 81424, Note_off_c, 6, 55, 64
12, 81436, Note_off_c, 6, 49, 64
12, 81600, Note_on_c, 6, 50, 52
12, 81600, Note_on_c, 6, 55, 64
12, 81826, Note_off_c, 6, 55, 64
12, 81838, Note_off_c, 6, 50, 64
12, 81840, Note_on_c, 6, 55, 63
12, 81840, Note_on_c, 6, 50, 46
12, 81886, Note_off_c, 6, 50, 64
12, 81902, Note_off_c, 6, 55, 64
12, 82080, Note_on_c, 6, 55, 54
12, 82080, Note_on_c, 6, 49, 39
12, 82198, Note_off_c, 6, 55, 64
12, 82214, Note_off_c, 6, 49, 64
12, 82320, Note_on_c, 6, 55, 78
12, 82320, Note_on_c, 6, 49, 51
12, 82384, Note_off_c, 6, 55, 64
12, 82396, Note_off_c, 6, 49, 64
12, 82560, Note_on_c, 6, 54, 52
12, 82560, Note_on_c, 6, 61, 64
12, 82786, Note_off_c, 6, 61, 64
12, 82798, Note_off_c, 6, 54, 64
12, 82800, Note_on_c, 6, 61, 63
12, 82800, Note_on_c, 6, 54, 46
12, 82846, Note_off_c, 6, 54, 64
12, 82862, Note_off_c, 6, 61, 64
12, 83040, Note_on_c, 6, 50, 52
12, 83040, Note_on_c, 6, 55, 64
12, 83266, Note_off_c, 6, 55, 64
12, 83278, Note_off_c, 6, 50, 64
12, 83280, Note_on_c, 6, 55, 63
12, 83280, Note_on_c, 6, 50, 46
12, 83326, Note_off_c, 6, 50, 64
12, 83342, Note_off_c, 6, 55, 64
12, 83520, Note_on_c, 6, 57, 48
12, 83520, Note_on_c, 6, 52, 41
12, 83716, Note_off_c, 6, 57, 64
12, 83722, Note_off_c, 6, 52, 64
12, 83760, Note_on_c, 6, 57, 79
12, 83760, Note_on_c, 6, 52, 57
12, 83802, Note_off_c, 6, 52, 64
12, 83802, Note_off_c, 6, 57, 64
12, 84000, Note_on_c, 6, 59, 48
12, 84000, Note_on_c, 6, 54, 41
12, 84196, Note_off_c, 6, 59, 64
12, 84202, Note_off_c, 6, 54, 64
12, 84240, Note_on_c, 6, 59, 79
12, 84240, Note_on_c, 6, 54, 57
12, 84282, Note_off_c, 6, 54, 64
12, 84282, Note_off_c, 6, 59, 64
12, 84480, Note_on_c, 6, 55, 48
12, 84480, Note_on_c, 6, 48, 41
12, 84716, Note_off_c, 6, 55, 64
12, 84720, Note_off_c, 6, 48, 64
12, 84720, Note_on_c, 6, 55, 79
12, 84720, Note_on_c, 6, 48, 57
12, 84802, Note_off_c, 6, 48, 64
12, 84802, Note_off_c, 6, 55, 64
12, 84960, Note_on_c, 6, 55, 30
12, 84960, Note_on_c, 6, 48, 25
12, 85184, Note_off_c, 6, 48, 64
12, 85184, Note_off_c, 6, 55, 64
12, 85200, Note_on_c, 6, 55, 86
12, 85200, Note_on_c, 6, 48, 52
12, 85294, Note_off_c, 6, 48, 64
12, 85294, Note_off_c, 6, 55, 64
12, 85440, Note_on_c, 6, 54, 48
12, 85440, Note_on_c, 6, 60, 60
12, 85646, Note_off_c, 6, 60, 64
12, 85658, Note_off_c, 6, 54, 64
12, 85680, Note_on_c, 6, 60, 59
12, 85680, Note_on_c, 6, 54, 42
12, 85706, Note_off_c, 6, 54, 64
12, 85722, Note_off_c, 6, 60, 64
12, 85920, Note_on_c, 6, 54, 26
12, 85920, Note_on_c, 6, 60, 39
12, 86134, Note_off_c, 6, 60, 64
12, 86134, Note_off_c, 6, 54, 64
12, 86160, Note_on_c, 6, 60, 62
12, 86160, Note_on_c, 6, 54, 28
12, 86200, Note_off_c, 6, 54, 64
12, 86200, Note_off_c, 6, 60, 64
12, 86400, Note_on_c, 6, 59, 54
12, 86400, Note_on_c, 6, 54, 39
12, 86518, Note_off_c, 6, 59, 64
12, 86534, Note_off_c, 6, 54, 64
12, 86640, Note_on_c, 6, 59, 78
12, 86640, Note_on_c, 6, 54, 51
12, 86704, Note_off_c, 6, 59, 64
12, 86716, Note_off_c, 6, 54, 64
12, 86880, Note_on_c, 6, 59, 33
12, 86970, Note_off_c, 6, 59, 64
12, 87120, Note_on_c, 6, 59, 80
12, 87120, Note_on_c, 6, 54, 65
12, 87188, Note_off_c, 6, 59, 64
12, 87198, Note_off_c, 6, 54, 64
12, 87360, Note_on_c, 6, 59, 54
12, 87360, Note_on_c, 6, 52, 39
12, 87478, Note_off_c, 6, 59, 64
12, 87494, Note_off_c, 6, 52, 64
12, 87600, Note_on_c, 6, 59, 78
12, 87600, Note_on_c, 6, 52, 51
12, 87664, Note_off_c, 6, 59, 64
12, 87676, Note_off_c, 6, 52, 64
12, 87840, Note_on_c, 6, 58, 54
12, 87840, Note_on_c, 6, 52, 39
12, 87958, Note_off_c, 6, 58, 64
12, 87974, Note_off_c, 6, 52, 64
12, 88080, Note_on_c, 6, 58, 78
12, 88080, Note_on_c, 6, 52, 51
12, 88144, Note_off_c, 6, 58, 64
12, 88156, Note_off_c, 6, 52, 64
12, 88320, Note_on_c, 6, 57, 48
12, 88320, Note_on_c, 6, 50, 41
12, 88516, Note_off_c, 6, 57, 64
12, 88522, Note_off_c, 6, 50, 64
12, 88560, Note_on_c, 6, 57, 79
12, 88560, Note_on_c, 6, 50, 57
12, 88602, Note_off_c, 6, 50, 64
12, 88602, Note_off_c, 6, 57, 64
12, 88800, Note_on_c, 6, 50, 52
12, 88800, Note_on_c, 6, 59, 64
12, 89026, Note_off_c, 6, 59, 64
12, 89038, Note_off_c, 6, 50, 64
12, 89040, Note_on_c, 6, 59, 63
12, 89040, Note_on_c, 6, 50, 46
12, 89086, Note_off_c, 6, 50, 64
12, 89102, Note_off_c, 6, 59, 64
12, 89280, Note_on_c, 6, 54, 52
12, 89280, Note_on_c, 6, 59, 64
12, 89506, Note_off_c, 6, 59, 64
12, 89518, Note_off_c, 6, 54, 64
12, 89520, Note_on_c, 6, 59, 63
12, 89520, Note_on_c, 6, 54, 46
12, 89566, Note_off_c, 6, 54, 64
12, 89582, Note_off_c, 6, 59, 64
12, 89760, Note_on_c, 6, 59, 48
12, 89760, Note_on_c, 6, 54, 41
12, 89956, Note_off_c, 6, 59, 64
12, 89962, Note_off_c, 6, 54, 64
12, 90000, Note_on_c, 6, 59, 79
12, 90000, Note_on_c, 6, 54, 57
12, 90042, Note_off_c, 6, 54, 64
12, 90042, Note_off_c, 6, 59, 64
12, 90240, Note_on_c, 6, 54, 52
12, 90240, Note_on_c, 6, 59, 64
12, 90466, Note_off_c, 6, 59, 64
12, 90478, Note_off_c, 6, 54, 64
12, 90480, Note_on_c, 6, 59, 63
12, 90480, Note_on_c, 6, 54, 46
12, 90526, Note_off_c, 6, 54, 64
12, 90542, Note_off_c, 6, 59, 64
12, 90720, Note_on_c, 6, 56, 48
12, 90720, Note_on_c, 6, 50, 41
12, 90916, Note_off_c, 6, 56, 64
12, 90922, Note_off_c, 6, 50, 64
12, 90960, Note_on_c, 6, 56, 79
12, 90960, Note_on_c, 6, 50, 57
12, 91002, Note_off_c, 6, 50, 64
12, 91002, Note_off_c, 6, 56, 64
12, 91200, Note_on_c, 6, 55, 48
12, 91200, Note_on_c, 6, 50, 41
12, 91396, Note_off_c, 6, 55, 64
12, 91402, Note_off_c, 6, 50, 64
12, 91440, Note_on_c, 6, 55, 79
12, 91440, Note_on_c, 6, 50, 57
12, 91482, Note_off_c, 6, 50, 64
12, 91482, Note_off_c, 6, 55, 64
12, 91680, Note_on_c, 6, 55, 54
12, 91680, Note_on_c, 6, 49, 39
12, 91798, Note_off_c, 6, 55, 64
12, 91814, Note_off_c, 6, 49, 64
12, 91920, Note_on_c, 6, 55, 78
12, 91920, Note_on_c, 6, 49, 51
12, 91984, Note_off_c, 6, 55, 64
12, 91996, Note_off_c, 6, 49, 64
12, 92160, Note_on_c, 6, 54, 48
12, 92160, Note_on_c, 6, 59, 60
12, 92366, Note_off_c, 6, 59, 64
12, 92378, Note_off_c, 6, 54, 64
12, 92400, Note_on_c, 6, 59, 59
12, 92400, Note_on_c, 6, 54, 42
12, 92426, Note_off_c, 6, 54, 64
12, 92442, Note_off_c, 6, 59, 64
12, 92640, Note_on_c, 6, 54, 26
12, 92640, Note_on_c, 6, 59, 39
12, 92854, Note_off_c, 6, 59, 64
12, 92854, Note_off_c, 6, 54, 64
12, 92880, Note_on_c, 6, 59, 62
12, 92880, Note_on_c, 6, 54, 28
12, 92920, Note_off_c, 6, 54, 64
12, 92920, Note_off_c, 6, 59, 64
12, 93360, Note_on_c, 6, 59, 73
12, 93360, Note_on_c, 6, 54, 47
12, 93418, Note_off_c, 6, 54, 64
12, 93418, Note_off_c, 6, 59, 64
12, 93840, Note_on_c, 6, 59, 70
12, 93840, Note_on_c, 6, 54, 52
12, 93902, Note_off_c, 6, 59, 64
12, 93910, Note_off_c, 6, 54, 64
12, 94318, Note_on_c, 6, 59, 75
12, 94328, Note_on_c, 6, 54, 55
12, 94358, Note_off_c, 6, 59, 64
12, 94368, Note_off_c, 6, 54, 64
12, 94798, Note_on_c, 6, 59, 63
12, 94808, Note_on_c, 6, 54, 29
12, 94834, Note_off_c, 6, 59, 64
12, 94838, Note_off_c, 6, 54, 64
12, 95046, Note_on_c, 6, 54, 50
12, 95046, Note_on_c, 6, 59, 71
12, 95098, Note_off_c, 6, 59, 64
12, 95108, Note_off_c, 6, 54, 64
12, 95460, Note_on_c, 6, 59, 51
12, 95464, Note_on_c, 6, 54, 16
12, 95944, Note_off_c, 6, 59, 64
12, 95954, Note_off_c, 6, 54, 64
12, 96000, Control_c, 6, 64, 0
12, 96000, End_track
13, 0, Start_track
13, 0, Title_t, "Drums / Traps"
13, 0, Control_c, 9, 0, 0
13, 0, Control_c, 9, 32, 0
13, 0, Program_c, 9, 1
13, 0, Control_c, 9, 7, 70
13, 0, Control_c, 9, 10, 64
13, 0, Control_c, 9, 123, 0
13, 0, Control_c, 9, 91, 40
13, 0, Control_c, 9, 93, 0
13, 1920, Note_on_c, 9, 35, 60
13, 1920, Note_on_c, 9, 42, 80
13, 1970, Note_off_c, 9, 42, 64
13, 1970, Note_off_c, 9, 35, 64
13, 2160, Note_on_c, 9, 42, 90
13, 2160, Note_on_c, 9, 37, 70
13, 2210, Note_off_c, 9, 37, 64
13, 2210, Note_off_c, 9, 42, 64
13, 2334, Note_on_c, 9, 42, 40
13, 2384, Note_off_c, 9, 42, 64
13, 2400, Note_on_c, 9, 35, 60
13, 2400, Note_on_c, 9, 42, 80
13, 2450, Note_off_c, 9, 42, 64
13, 2450, Note_off_c, 9, 35, 64
13, 2640, Note_on_c, 9, 42, 90
13, 2640, Note_on_c, 9, 37, 85
13, 2690, Note_off_c, 9, 37, 64
13, 2690, Note_off_c, 9, 42, 64
13, 2814, Note_on_c, 9, 35, 50
13, 2814, Note_on_c, 9, 42, 50
13, 2864, Note_off_c, 9, 42, 64
13, 2864, Note_off_c, 9, 35, 64
13, 2880, Note_on_c, 9, 42, 70
13, 2930, Note_off_c, 9, 42, 64
13, 3120, Note_on_c, 9, 42, 70
13, 3120, Note_on_c, 9, 37, 80
13, 3170, Note_off_c, 9, 37, 64
13, 3170, Note_off_c, 9, 42, 64
13, 3292, Note_on_c, 9, 42, 40
13, 3342, Note_off_c, 9, 42, 64
13, 3360, Note_on_c, 9, 35, 60
13, 3360, Note_on_c, 9, 42, 80
13, 3410, Note_off_c, 9, 42, 64
13, 3410, Note_off_c, 9, 35, 64
13, 3600, Note_on_c, 9, 35, 60
13, 3600, Note_on_c, 9, 42, 80
13, 3650, Note_off_c, 9, 42, 64
13, 3650, Note_off_c, 9, 35, 64
13, 3772, Note_on_c, 9, 42, 50
13, 3822, Note_off_c, 9, 42, 64
13, 3840, Note_on_c, 9, 35, 60
13, 3840, Note_on_c, 9, 42, 70
13, 3890, Note_off_c, 9, 42, 64
13, 3890, Note_off_c, 9, 35, 64
13, 4080, Note_on_c, 9, 42, 90
13, 4080, Note_on_c, 9, 37, 80
13, 4130, Note_off_c, 9, 37, 64
13, 4130, Note_off_c, 9, 42, 64
13, 4252, Note_on_c, 9, 42, 40
13, 4302, Note_off_c, 9, 42, 64
13, 4320, Note_on_c, 9, 35, 60
13, 4320, Note_on_c, 9, 42, 70
13, 4370, Note_off_c, 9, 42, 64
13, 4370, Note_off_c, 9, 35, 64
13, 4560, Note_on_c, 9, 42, 90
13, 4560, Note_on_c, 9, 37, 78
13, 4610, Note_off_c, 9, 37, 64
13, 4610, Note_off_c, 9, 42, 64
13, 4732, Note_on_c, 9, 42, 50
13, 4782, Note_off_c, 9, 42, 64
13, 4800, Note_on_c, 9, 35, 60
13, 4800, Note_on_c, 9, 42, 70
13, 4850, Note_off_c, 9, 42, 64
13, 4850, Note_off_c, 9, 35, 64
13, 5040, Note_on_c, 9, 42, 90
13, 5040, Note_on_c, 9, 37, 70
13, 5090, Note_off_c, 9, 37, 64
13, 5090, Note_off_c, 9, 42, 64
13, 5216, Note_on_c, 9, 42, 40
13, 5266, Note_off_c, 9, 42, 64
13, 5280, Note_on_c, 9, 35, 60
13, 5280, Note_on_c, 9, 42, 80
13, 5330, Note_off_c, 9, 42, 64
13, 5330, Note_off_c, 9, 35, 64
13, 5520, Note_on_c, 9, 42, 90
13, 5520, Note_on_c, 9, 37, 80
13, 5570, Note_off_c, 9, 37, 64
13, 5570, Note_off_c, 9, 42, 64
13, 5696, Note_on_c, 9, 42, 50
13, 5746, Note_off_c, 9, 42, 64
13, 5760, Note_on_c, 9, 35, 60
13, 5760, Note_on_c, 9, 42, 70
13, 5810, Note_off_c, 9, 42, 64
13, 5810, Note_off_c, 9, 35, 64
13, 6000, Note_on_c, 9, 42, 80
13, 6000, Note_on_c, 9, 37, 70
13, 6050, Note_off_c, 9, 37, 64
13, 6050, Note_off_c, 9, 42, 64
13, 6176, Note_on_c, 9, 42, 40
13, 6226, Note_off_c, 9, 42, 64
13, 6240, Note_on_c, 9, 35, 60
13, 6240, Note_on_c, 9, 42, 80
13, 6290, Note_off_c, 9, 42, 64
13, 6290, Note_off_c, 9, 35, 64
13, 6480, Note_on_c, 9, 42, 80
13, 6480, Note_on_c, 9, 37, 80
13, 6530, Note_off_c, 9, 37, 64
13, 6530, Note_off_c, 9, 42, 64
13, 6656, Note_on_c, 9, 42, 50
13, 6706, Note_off_c, 9, 42, 64
13, 6720, Note_on_c, 9, 35, 60
13, 6720, Note_on_c, 9, 42, 70
13, 6770, Note_off_c, 9, 42, 64
13, 6770, Note_off_c, 9, 35, 64
13, 6960, Note_on_c, 9, 42, 90
13, 6960, Note_on_c, 9, 37, 80
13, 7010, Note_off_c, 9, 37, 64
13, 7010, Note_off_c, 9, 42, 64
13, 7132, Note_on_c, 9, 42, 40
13, 7182, Note_off_c, 9, 42, 64
13, 7200, Note_on_c, 9, 35, 60
13, 7200, Note_on_c, 9, 42, 70
13, 7250, Note_off_c, 9, 42, 64
13, 7250, Note_off_c, 9, 35, 64
13, 7440, Note_on_c, 9, 42, 90
13, 7440, Note_on_c, 9, 37, 78
13, 7490, Note_off_c, 9, 37, 64
13, 7490, Note_off_c, 9, 42, 64
13, 7612, Note_on_c, 9, 42, 50
13, 7662, Note_off_c, 9, 42, 64
13, 7680, Note_on_c, 9, 35, 60
13, 7680, Note_on_c, 9, 42, 70
13, 7730, Note_off_c, 9, 42, 64
13, 7730, Note_off_c, 9, 35, 64
13, 7920, Note_on_c, 9, 42, 80
13, 7920, Note_on_c, 9, 37, 70
13, 7970, Note_off_c, 9, 37, 64
13, 7970, Note_off_c, 9, 42, 64
13, 8096, Note_on_c, 9, 42, 40
13, 8146, Note_off_c, 9, 42, 64
13, 8160, Note_on_c, 9, 35, 60
13, 8160, Note_on_c, 9, 42, 80
13, 8210, Note_off_c, 9, 42, 64
13, 8210, Note_off_c, 9, 35, 64
13, 8400, Note_on_c, 9, 42, 80
13, 8400, Note_on_c, 9, 37, 80
13, 8450, Note_off_c, 9, 37, 64
13, 8450, Note_off_c, 9, 42, 64
13, 8576, Note_on_c, 9, 42, 50
13, 8626, Note_off_c, 9, 42, 64
13, 8640, Note_on_c, 9, 35, 60
13, 8640, Note_on_c, 9, 42, 60
13, 8690, Note_off_c, 9, 42, 64
13, 8690, Note_off_c, 9, 35, 64
13, 8880, Note_on_c, 9, 42, 60
13, 8930, Note_off_c, 9, 42, 64
13, 9054, Note_on_c, 9, 38, 40
13, 9054, Note_on_c, 9, 42, 40
13, 9104, Note_off_c, 9, 42, 64
13, 9104, Note_off_c, 9, 38, 64
13, 9120, Note_on_c, 9, 35, 60
13, 9120, Note_on_c, 9, 42, 60
13, 9170, Note_off_c, 9, 42, 64
13, 9170, Note_off_c, 9, 35, 64
13, 9294, Note_on_c, 9, 38, 40
13, 9344, Note_off_c, 9, 38, 64
13, 9360, Note_on_c, 9, 35, 70
13, 9360, Note_on_c, 9, 42, 70
13, 9410, Note_off_c, 9, 42, 64
13, 9410, Note_off_c, 9, 35, 64
13, 9534, Note_on_c, 9, 38, 40
13, 9534, Note_on_c, 9, 42, 40
13, 9584, Note_off_c, 9, 42, 64
13, 9584, Note_off_c, 9, 38, 64
13, 9600, Note_on_c, 9, 35, 60
13, 9600, Note_on_c, 9, 42, 70
13, 9650, Note_off_c, 9, 42, 64
13, 9650, Note_off_c, 9, 35, 64
13, 9776, Note_on_c, 9, 38, 70
13, 9826, Note_off_c, 9, 38, 64
13, 9840, Note_on_c, 9, 42, 90
13, 9840, Note_on_c, 9, 37, 70
13, 9890, Note_off_c, 9, 37, 64
13, 9890, Note_off_c, 9, 42, 64
13, 10016, Note_on_c, 9, 42, 40
13, 10066, Note_off_c, 9, 42, 64
13, 10080, Note_on_c, 9, 35, 60
13, 10080, Note_on_c, 9, 42, 80
13, 10130, Note_off_c, 9, 42, 64
13, 10130, Note_off_c, 9, 35, 64
13, 10320, Note_on_c, 9, 42, 90
13, 10320, Note_on_c, 9, 37, 80
13, 10370, Note_off_c, 9, 37, 64
13, 10370, Note_off_c, 9, 42, 64
13, 10496, Note_on_c, 9, 42, 50
13, 10546, Note_off_c, 9, 42, 64
13, 10560, Note_on_c, 9, 35, 60
13, 10560, Note_on_c, 9, 42, 80
13, 10610, Note_off_c, 9, 42, 64
13, 10610, Note_off_c, 9, 35, 64
13, 10800, Note_on_c, 9, 42, 70
13, 10800, Note_on_c, 9, 37, 70
13, 10850, Note_off_c, 9, 37, 64
13, 10850, Note_off_c, 9, 42, 64
13, 10972, Note_on_c, 9, 42, 40
13, 11022, Note_off_c, 9, 42, 64
13, 11040, Note_on_c, 9, 35, 60
13, 11040, Note_on_c, 9, 42, 80
13, 11090, Note_off_c, 9, 42, 64
13, 11090, Note_off_c, 9, 35, 64
13, 11280, Note_on_c, 9, 42, 70
13, 11280, Note_on_c, 9, 37, 85
13, 11330, Note_off_c, 9, 37, 64
13, 11330, Note_off_c, 9, 42, 64
13, 11452, Note_on_c, 9, 35, 50
13, 11452, Note_on_c, 9, 42, 50
13, 11502, Note_off_c, 9, 42, 64
13, 11502, Note_off_c, 9, 35, 64
13, 11520, Note_on_c, 9, 35, 60
13, 11520, Note_on_c, 9, 42, 70
13, 11570, Note_off_c, 9, 42, 64
13, 11570, Note_off_c, 9, 35, 64
13, 11760, Note_on_c, 9, 42, 90
13, 11760, Note_on_c, 9, 37, 70
13, 11810, Note_off_c, 9, 37, 64
13, 11810, Note_off_c, 9, 42, 64
13, 11936, Note_on_c, 9, 42, 40
13, 11986, Note_off_c, 9, 42, 64
13, 12000, Note_on_c, 9, 35, 60
13, 12000, Note_on_c, 9, 42, 80
13, 12050, Note_off_c, 9, 42, 64
13, 12050, Note_off_c, 9, 35, 64
13, 12240, Note_on_c, 9, 42, 90
13, 12240, Note_on_c, 9, 37, 80
13, 12290, Note_off_c, 9, 37, 64
13, 12290, Note_off_c, 9, 42, 64
13, 12416, Note_on_c, 9, 42, 50
13, 12466, Note_off_c, 9, 42, 64
13, 12480, Note_on_c, 9, 46, 54
13, 12530, Note_off_c, 9, 46, 64
13, 12720, Note_on_c, 9, 42, 70
13, 12720, Note_on_c, 9, 37, 80
13, 12770, Note_off_c, 9, 37, 64
13, 12770, Note_off_c, 9, 42, 64
13, 12892, Note_on_c, 9, 42, 40
13, 12942, Note_off_c, 9, 42, 64
13, 12960, Note_on_c, 9, 35, 60
13, 12960, Note_on_c, 9, 42, 80
13, 13010, Note_off_c, 9, 42, 64
13, 13010, Note_off_c, 9, 35, 64
13, 13200, Note_on_c, 9, 35, 60
13, 13200, Note_on_c, 9, 42, 80
13, 13250, Note_off_c, 9, 42, 64
13, 13250, Note_off_c, 9, 35, 64
13, 13372, Note_on_c, 9, 42, 50
13, 13422, Note_off_c, 9, 42, 64
13, 13440, Note_on_c, 9, 35, 60
13, 13440, Note_on_c, 9, 42, 70
13, 13490, Note_off_c, 9, 42, 64
13, 13490, Note_off_c, 9, 35, 64
13, 13680, Note_on_c, 9, 42, 80
13, 13680, Note_on_c, 9, 37, 70
13, 13730, Note_off_c, 9, 37, 64
13, 13730, Note_off_c, 9, 42, 64
13, 13856, Note_on_c, 9, 42, 40
13, 13906, Note_off_c, 9, 42, 64
13, 13920, Note_on_c, 9, 35, 60
13, 13920, Note_on_c, 9, 42, 80
13, 13970, Note_off_c, 9, 42, 64
13, 13970, Note_off_c, 9, 35, 64
13, 14160, Note_on_c, 9, 42, 80
13, 14160, Note_on_c, 9, 37, 80
13, 14210, Note_off_c, 9, 37, 64
13, 14210, Note_off_c, 9, 42, 64
13, 14336, Note_on_c, 9, 42, 50
13, 14386, Note_off_c, 9, 42, 64
13, 14400, Note_on_c, 9, 35, 60
13, 14400, Note_on_c, 9, 42, 70
13, 14450, Note_off_c, 9, 42, 64
13, 14450, Note_off_c, 9, 35, 64
13, 14640, Note_on_c, 9, 42, 90
13, 14640, Note_on_c, 9, 37, 70
13, 14690, Note_off_c, 9, 37, 64
13, 14690, Note_off_c, 9, 42, 64
13, 14816, Note_on_c, 9, 42, 40
13, 14866, Note_off_c, 9, 42, 64
13, 14880, Note_on_c, 9, 35, 60
13, 14880, Note_on_c, 9, 42, 80
13, 14930, Note_off_c, 9, 42, 64
13, 14930, Note_off_c, 9, 35, 64
13, 15120, Note_on_c, 9, 42, 90
13, 15120, Note_on_c, 9, 37, 80
13, 15170, Note_off_c, 9, 37, 64
13, 15170, Note_off_c, 9, 42, 64
13, 15296, Note_on_c, 9, 42, 50
13, 15346, Note_off_c, 9, 42, 64
13, 15360, Note_on_c, 9, 35, 60
13, 15360, Note_on_c, 9, 42, 70
13, 15410, Note_off_c, 9, 42, 64
13, 15410, Note_off_c, 9, 35, 64
13, 15600, Note_on_c, 9, 42, 80
13, 15600, Note_on_c, 9, 37, 70
13, 15650, Note_off_c, 9, 37, 64
13, 15650, Note_off_c, 9, 42, 64
13, 15776, Note_on_c, 9, 42, 40
13, 15826, Note_off_c, 9, 42, 64
13, 15840, Note_on_c, 9, 35, 60
13, 15840, Note_on_c, 9, 42, 80
13, 15890, Note_off_c, 9, 42, 64
13, 15890, Note_off_c, 9, 35, 64
13, 16080, Note_on_c, 9, 42, 80
13, 16080, Note_on_c, 9, 37, 80
13, 16130, Note_off_c, 9, 37, 64
13, 16130, Note_off_c, 9, 42, 64
13, 16256, Note_on_c, 9, 42, 50
13, 16306, Note_off_c, 9, 42, 64
13, 16320, Note_on_c, 9, 35, 60
13, 16320, Note_on_c, 9, 42, 80
13, 16370, Note_off_c, 9, 42, 64
13, 16370, Note_off_c, 9, 35, 64
13, 16560, Note_on_c, 9, 42, 90
13, 16610, Note_off_c, 9, 42, 64
13, 16724, Note_on_c, 9, 38, 40
13, 16774, Note_off_c, 9, 38, 64
13, 16800, Note_on_c, 9, 35, 60
13, 16800, Note_on_c, 9, 42, 80
13, 16850, Note_off_c, 9, 42, 64
13, 16850, Note_off_c, 9, 35, 64
13, 16880, Note_on_c, 9, 38, 30
13, 16930, Note_off_c, 9, 38, 64
13, 16964, Note_on_c, 9, 38, 40
13, 17014, Note_off_c, 9, 38, 64
13, 17040, Note_on_c, 9, 35, 60
13, 17040, Note_on_c, 9, 38, 30
13, 17040, Note_on_c, 9, 42, 90
13, 17090, Note_off_c, 9, 42, 64
13, 17090, Note_off_c, 9, 38, 64
13, 17090, Note_off_c, 9, 35, 64
13, 17120, Note_on_c, 9, 38, 40
13, 17170, Note_off_c, 9, 38, 64
13, 17204, Note_on_c, 9, 38, 50
13, 17254, Note_off_c, 9, 38, 64
13, 17280, Note_on_c, 9, 49, 50
13, 17330, Note_off_c, 9, 49, 64
13, 17450, Note_on_c, 9, 38, 50
13, 17500, Note_off_c, 9, 38, 64
13, 17520, Note_on_c, 9, 42, 80
13, 17520, Note_on_c, 9, 37, 70
13, 17520, Note_on_c, 9, 51, 90
13, 17570, Note_off_c, 9, 51, 64
13, 17570, Note_off_c, 9, 37, 64
13, 17570, Note_off_c, 9, 42, 64
13, 17690, Note_on_c, 9, 38, 30
13, 17690, Note_on_c, 9, 51, 70
13, 17740, Note_off_c, 9, 51, 64
13, 17740, Note_off_c, 9, 38, 64
13, 17760, Note_on_c, 9, 38, 40
13, 17760, Note_on_c, 9, 51, 70
13, 17810, Note_off_c, 9, 51, 64
13, 17810, Note_off_c, 9, 38, 64
13, 18000, Note_on_c, 9, 42, 100
13, 18000, Note_on_c, 9, 37, 70
13, 18000, Note_on_c, 9, 51, 90
13, 18050, Note_off_c, 9, 51, 64
13, 18050, Note_off_c, 9, 37, 64
13, 18050, Note_off_c, 9, 42, 64
13, 18170, Note_on_c, 9, 51, 70
13, 18220, Note_off_c, 9, 51, 64
13, 18240, Note_on_c, 9, 51, 80
13, 18290, Note_off_c, 9, 51, 64
13, 18480, Note_on_c, 9, 42, 80
13, 18480, Note_on_c, 9, 37, 70
13, 18480, Note_on_c, 9, 51, 90
13, 18530, Note_off_c, 9, 51, 64
13, 18530, Note_off_c, 9, 37, 64
13, 18530, Note_off_c, 9, 42, 64
13, 18656, Note_on_c, 9, 38, 30
13, 18656, Note_on_c, 9, 51, 70
13, 18706, Note_off_c, 9, 51, 64
13, 18706, Note_off_c, 9, 38, 64
13, 18720, Note_on_c, 9, 38, 40
13, 18720, Note_on_c, 9, 51, 80
13, 18770, Note_off_c, 9, 51, 64
13, 18770, Note_off_c, 9, 38, 64
13, 18960, Note_on_c, 9, 42, 100
13, 18960, Note_on_c, 9, 37, 70
13, 18960, Note_on_c, 9, 51, 90
13, 19010, Note_off_c, 9, 51, 64
13, 19010, Note_off_c, 9, 37, 64
13, 19010, Note_off_c, 9, 42, 64
13, 19136, Note_on_c, 9, 51, 70
13, 19186, Note_off_c, 9, 51, 64
13, 19200, Note_on_c, 9, 51, 70
13, 19250, Note_off_c, 9, 51, 64
13, 19440, Note_on_c, 9, 42, 100
13, 19440, Note_on_c, 9, 37, 70
13, 19440, Note_on_c, 9, 51, 90
13, 19490, Note_off_c, 9, 51, 64
13, 19490, Note_off_c, 9, 37, 64
13, 19490, Note_off_c, 9, 42, 64
13, 19614, Note_on_c, 9, 38, 40
13, 19614, Note_on_c, 9, 51, 50
13, 19664, Note_off_c, 9, 51, 64
13, 19664, Note_off_c, 9, 38, 64
13, 19680, Note_on_c, 9, 51, 80
13, 19730, Note_off_c, 9, 51, 64
13, 19920, Note_on_c, 9, 42, 100
13, 19920, Note_on_c, 9, 37, 70
13, 19920, Note_on_c, 9, 51, 90
13, 19970, Note_off_c, 9, 51, 64
13, 19970, Note_off_c, 9, 37, 64
13, 19970, Note_off_c, 9, 42, 64
13, 20094, Note_on_c, 9, 38, 40
13, 20094, Note_on_c, 9, 51, 50
13, 20144, Note_off_c, 9, 51, 64
13, 20144, Note_off_c, 9, 38, 64
13, 20160, Note_on_c, 9, 51, 80
13, 20210, Note_off_c, 9, 51, 64
13, 20400, Note_on_c, 9, 42, 80
13, 20400, Note_on_c, 9, 37, 70
13, 20400, Note_on_c, 9, 51, 90
13, 20450, Note_off_c, 9, 51, 64
13, 20450, Note_off_c, 9, 37, 64
13, 20450, Note_off_c, 9, 42, 64
13, 20576, Note_on_c, 9, 38, 40
13, 20576, Note_on_c, 9, 51, 70
13, 20626, Note_off_c, 9, 51, 64
13, 20626, Note_off_c, 9, 38, 64
13, 20640, Note_on_c, 9, 51, 80
13, 20690, Note_off_c, 9, 51, 64
13, 20880, Note_on_c, 9, 42, 100
13, 20880, Note_on_c, 9, 37, 70
13, 20880, Note_on_c, 9, 51, 90
13, 20930, Note_off_c, 9, 51, 64
13, 20930, Note_off_c, 9, 37, 64
13, 20930, Note_off_c, 9, 42, 64
13, 21056, Note_on_c, 9, 51, 70
13, 21106, Note_off_c, 9, 51, 64
13, 21120, Note_on_c, 9, 51, 70
13, 21170, Note_off_c, 9, 51, 64
13, 21296, Note_on_c, 9, 38, 60
13, 21346, Note_off_c, 9, 38, 64
13, 21360, Note_on_c, 9, 42, 90
13, 21360, Note_on_c, 9, 37, 60
13, 21360, Note_on_c, 9, 51, 90
13, 21410, Note_off_c, 9, 51, 64
13, 21410, Note_off_c, 9, 37, 64
13, 21410, Note_off_c, 9, 42, 64
13, 21536, Note_on_c, 9, 38, 40
13, 21536, Note_on_c, 9, 51, 70
13, 21586, Note_off_c, 9, 51, 64
13, 21586, Note_off_c, 9, 38, 64
13, 21600, Note_on_c, 9, 51, 80
13, 21650, Note_off_c, 9, 51, 64
13, 21776, Note_on_c, 9, 38, 50
13, 21826, Note_off_c, 9, 38, 64
13, 21840, Note_on_c, 9, 42, 100
13, 21840, Note_on_c, 9, 37, 70
13, 21840, Note_on_c, 9, 51, 90
13, 21890, Note_off_c, 9, 51, 64
13, 21890, Note_off_c, 9, 37, 64
13, 21890, Note_off_c, 9, 42, 64
13, 22016, Note_on_c, 9, 51, 70
13, 22066, Note_off_c, 9, 51, 64
13, 22080, Note_on_c, 9, 51, 80
13, 22130, Note_off_c, 9, 51, 64
13, 22320, Note_on_c, 9, 42, 80
13, 22320, Note_on_c, 9, 37, 70
13, 22320, Note_on_c, 9, 51, 90
13, 22370, Note_off_c, 9, 51, 64
13, 22370, Note_off_c, 9, 37, 64
13, 22370, Note_off_c, 9, 42, 64
13, 22496, Note_on_c, 9, 51, 70
13, 22546, Note_off_c, 9, 51, 64
13, 22560, Note_on_c, 9, 38, 40
13, 22560, Note_on_c, 9, 51, 80
13, 22610, Note_off_c, 9, 51, 64
13, 22610, Note_off_c, 9, 38, 64
13, 22800, Note_on_c, 9, 42, 100
13, 22800, Note_on_c, 9, 37, 70
13, 22800, Note_on_c, 9, 51, 90
13, 22850, Note_off_c, 9, 51, 64
13, 22850, Note_off_c, 9, 37, 64
13, 22850, Note_off_c, 9, 42, 64
13, 22976, Note_on_c, 9, 51, 70
13, 23026, Note_off_c, 9, 51, 64
13, 23040, Note_on_c, 9, 51, 70
13, 23090, Note_off_c, 9, 51, 64
13, 23280, Note_on_c, 9, 42, 90
13, 23280, Note_on_c, 9, 37, 60
13, 23280, Note_on_c, 9, 51, 90
13, 23330, Note_off_c, 9, 51, 64
13, 23330, Note_off_c, 9, 37, 64
13, 23330, Note_off_c, 9, 42, 64
13, 23456, Note_on_c, 9, 38, 40
13, 23456, Note_on_c, 9, 51, 70
13, 23506, Note_off_c, 9, 51, 64
13, 23506, Note_off_c, 9, 38, 64
13, 23520, Note_on_c, 9, 51, 80
13, 23570, Note_off_c, 9, 51, 64
13, 23760, Note_on_c, 9, 42, 100
13, 23760, Note_on_c, 9, 37, 70
13, 23760, Note_on_c, 9, 51, 90
13, 23810, Note_off_c, 9, 51, 64
13, 23810, Note_off_c, 9, 37, 64
13, 23810, Note_off_c, 9, 42, 64
13, 23936, Note_on_c, 9, 51, 70
13, 23986, Note_off_c, 9, 51, 64
13, 24000, Note_on_c, 9, 35, 70
13, 24000, Note_on_c, 9, 51, 70
13, 24050, Note_off_c, 9, 51, 64
13, 24050, Note_off_c, 9, 35, 64
13, 24240, Note_on_c, 9, 42, 90
13, 24240, Note_on_c, 9, 37, 60
13, 24240, Note_on_c, 9, 51, 90
13, 24290, Note_off_c, 9, 51, 64
13, 24290, Note_off_c, 9, 37, 64
13, 24290, Note_off_c, 9, 42, 64
13, 24416, Note_on_c, 9, 38, 50
13, 24416, Note_on_c, 9, 51, 70
13, 24466, Note_off_c, 9, 51, 64
13, 24466, Note_off_c, 9, 38, 64
13, 24480, Note_on_c, 9, 51, 80
13, 24530, Note_off_c, 9, 51, 64
13, 24656, Note_on_c, 9, 38, 60
13, 24656, Note_on_c, 9, 46, 40
13, 24706, Note_off_c, 9, 46, 64
13, 24706, Note_off_c, 9, 38, 64
13, 24720, Note_on_c, 9, 42, 100
13, 24720, Note_on_c, 9, 37, 100
13, 24720, Note_on_c, 9, 51, 90
13, 24770, Note_off_c, 9, 51, 64
13, 24770, Note_off_c, 9, 37, 64
13, 24770, Note_off_c, 9, 42, 64
13, 24896, Note_on_c, 9, 35, 60
13, 24896, Note_on_c, 9, 38, 70
13, 24896, Note_on_c, 9, 51, 70
13, 24946, Note_off_c, 9, 51, 64
13, 24946, Note_off_c, 9, 38, 64
13, 24946, Note_off_c, 9, 35, 64
13, 24960, Note_on_c, 9, 51, 70
13, 25010, Note_off_c, 9, 51, 64
13, 25200, Note_on_c, 9, 42, 90
13, 25200, Note_on_c, 9, 37, 60
13, 25200, Note_on_c, 9, 51, 90
13, 25250, Note_off_c, 9, 51, 64
13, 25250, Note_off_c, 9, 37, 64
13, 25250, Note_off_c, 9, 42, 64
13, 25376, Note_on_c, 9, 38, 40
13, 25376, Note_on_c, 9, 51, 70
13, 25426, Note_off_c, 9, 51, 64
13, 25426, Note_off_c, 9, 38, 64
13, 25440, Note_on_c, 9, 51, 80
13, 25490, Note_off_c, 9, 51, 64
13, 25680, Note_on_c, 9, 42, 100
13, 25680, Note_on_c, 9, 37, 70
13, 25680, Note_on_c, 9, 51, 90
13, 25730, Note_off_c, 9, 51, 64
13, 25730, Note_off_c, 9, 37, 64
13, 25730, Note_off_c, 9, 42, 64
13, 25856, Note_on_c, 9, 51, 70
13, 25906, Note_off_c, 9, 51, 64
13, 25920, Note_on_c, 9, 51, 80
13, 25970, Note_off_c, 9, 51, 64
13, 26160, Note_on_c, 9, 42, 70
13, 26160, Note_on_c, 9, 37, 70
13, 26160, Note_on_c, 9, 51, 90
13, 26210, Note_off_c, 9, 51, 64
13, 26210, Note_off_c, 9, 37, 64
13, 26210, Note_off_c, 9, 42, 64
13, 26334, Note_on_c, 9, 38, 40
13, 26334, Note_on_c, 9, 51, 70
13, 26384, Note_off_c, 9, 51, 64
13, 26384, Note_off_c, 9, 38, 64
13, 26400, Note_on_c, 9, 51, 90
13, 26450, Note_off_c, 9, 51, 64
13, 26640, Note_on_c, 9, 42, 100
13, 26640, Note_on_c, 9, 51, 90
13, 26690, Note_off_c, 9, 51, 64
13, 26690, Note_off_c, 9, 42, 64
13, 26814, Note_on_c, 9, 51, 70
13, 26864, Note_off_c, 9, 51, 64
13, 26880, Note_on_c, 9, 51, 70
13, 26930, Note_off_c, 9, 51, 64
13, 27120, Note_on_c, 9, 42, 100
13, 27120, Note_on_c, 9, 37, 70
13, 27120, Note_on_c, 9, 51, 90
13, 27170, Note_off_c, 9, 51, 64
13, 27170, Note_off_c, 9, 37, 64
13, 27170, Note_off_c, 9, 42, 64
13, 27294, Note_on_c, 9, 38, 40
13, 27294, Note_on_c, 9, 51, 50
13, 27344, Note_off_c, 9, 51, 64
13, 27344, Note_off_c, 9, 38, 64
13, 27360, Note_on_c, 9, 51, 80
13, 27410, Note_off_c, 9, 51, 64
13, 27600, Note_on_c, 9, 42, 100
13, 27600, Note_on_c, 9, 37, 70
13, 27600, Note_on_c, 9, 51, 90
13, 27650, Note_off_c, 9, 51, 64
13, 27650, Note_off_c, 9, 37, 64
13, 27650, Note_off_c, 9, 42, 64
13, 27774, Note_on_c, 9, 38, 40
13, 27774, Note_on_c, 9, 51, 50
13, 27824, Note_off_c, 9, 51, 64
13, 27824, Note_off_c, 9, 38, 64
13, 27840, Note_on_c, 9, 51, 70
13, 27890, Note_off_c, 9, 51, 64
13, 28080, Note_on_c, 9, 42, 80
13, 28080, Note_on_c, 9, 37, 70
13, 28080, Note_on_c, 9, 51, 90
13, 28130, Note_off_c, 9, 51, 64
13, 28130, Note_off_c, 9, 37, 64
13, 28130, Note_off_c, 9, 42, 64
13, 28254, Note_on_c, 9, 51, 70
13, 28304, Note_off_c, 9, 51, 64
13, 28320, Note_on_c, 9, 51, 80
13, 28370, Note_off_c, 9, 51, 64
13, 28560, Note_on_c, 9, 42, 100
13, 28560, Note_on_c, 9, 37, 80
13, 28560, Note_on_c, 9, 51, 90
13, 28610, Note_off_c, 9, 51, 64
13, 28610, Note_off_c, 9, 37, 64
13, 28610, Note_off_c, 9, 42, 64
13, 28734, Note_on_c, 9, 51, 70
13, 28784, Note_off_c, 9, 51, 64
13, 28800, Note_on_c, 9, 51, 80
13, 28850, Note_off_c, 9, 51, 64
13, 29040, Note_on_c, 9, 42, 80
13, 29040, Note_on_c, 9, 37, 70
13, 29040, Note_on_c, 9, 51, 90
13, 29090, Note_off_c, 9, 51, 64
13, 29090, Note_off_c, 9, 37, 64
13, 29090, Note_off_c, 9, 42, 64
13, 29216, Note_on_c, 9, 38, 30
13, 29216, Note_on_c, 9, 51, 70
13, 29266, Note_off_c, 9, 51, 64
13, 29266, Note_off_c, 9, 38, 64
13, 29280, Note_on_c, 9, 38, 40
13, 29280, Note_on_c, 9, 51, 80
13, 29330, Note_off_c, 9, 51, 64
13, 29330, Note_off_c, 9, 38, 64
13, 29520, Note_on_c, 9, 42, 100
13, 29520, Note_on_c, 9, 37, 70
13, 29520, Note_on_c, 9, 51, 90
13, 29570, Note_off_c, 9, 51, 64
13, 29570, Note_off_c, 9, 37, 64
13, 29570, Note_off_c, 9, 42, 64
13, 29696, Note_on_c, 9, 51, 70
13, 29746, Note_off_c, 9, 51, 64
13, 29760, Note_on_c, 9, 51, 80
13, 29810, Note_off_c, 9, 51, 64
13, 30000, Note_on_c, 9, 42, 70
13, 30000, Note_on_c, 9, 37, 70
13, 30000, Note_on_c, 9, 51, 90
13, 30050, Note_off_c, 9, 51, 64
13, 30050, Note_off_c, 9, 37, 64
13, 30050, Note_off_c, 9, 42, 64
13, 30174, Note_on_c, 9, 51, 70
13, 30224, Note_off_c, 9, 51, 64
13, 30240, Note_on_c, 9, 51, 90
13, 30290, Note_off_c, 9, 51, 64
13, 30480, Note_on_c, 9, 42, 100
13, 30480, Note_on_c, 9, 51, 90
13, 30530, Note_off_c, 9, 51, 64
13, 30530, Note_off_c, 9, 42, 64
13, 30654, Note_on_c, 9, 51, 70
13, 30704, Note_off_c, 9, 51, 64
13, 30720, Note_on_c, 9, 51, 80
13, 30770, Note_off_c, 9, 51, 64
13, 30960, Note_on_c, 9, 42, 80
13, 30960, Note_on_c, 9, 37, 70
13, 30960, Note_on_c, 9, 51, 90
13, 31010, Note_off_c, 9, 51, 64
13, 31010, Note_off_c, 9, 37, 64
13, 31010, Note_off_c, 9, 42, 64
13, 31136, Note_on_c, 9, 51, 70
13, 31186, Note_off_c, 9, 51, 64
13, 31200, Note_on_c, 9, 38, 40
13, 31200, Note_on_c, 9, 51, 80
13, 31250, Note_off_c, 9, 51, 64
13, 31250, Note_off_c, 9, 38, 64
13, 31440, Note_on_c, 9, 42, 100
13, 31440, Note_on_c, 9, 37, 70
13, 31440, Note_on_c, 9, 51, 90
13, 31490, Note_off_c, 9, 51, 64
13, 31490, Note_off_c, 9, 37, 64
13, 31490, Note_off_c, 9, 42, 64
13, 31616, Note_on_c, 9, 51, 70
13, 31666, Note_off_c, 9, 51, 64
13, 31680, Note_on_c, 9, 38, 60
13, 31680, Note_on_c, 9, 51, 90
13, 31730, Note_off_c, 9, 51, 64
13, 31730, Note_off_c, 9, 38, 64
13, 31840, Note_on_c, 9, 38, 50
13, 31890, Note_off_c, 9, 38, 64
13, 31920, Note_on_c, 9, 35, 90
13, 31920, Note_on_c, 9, 42, 100
13, 31970, Note_off_c, 9, 42, 64
13, 31970, Note_off_c, 9, 35, 64
13, 32000, Note_on_c, 9, 38, 40
13, 32050, Note_off_c, 9, 38, 64
13, 32080, Note_on_c, 9, 45, 50
13, 32130, Note_off_c, 9, 45, 64
13, 32160, Note_on_c, 9, 38, 40
13, 32210, Note_off_c, 9, 38, 64
13, 32240, Note_on_c, 9, 38, 40
13, 32290, Note_off_c, 9, 38, 64
13, 32320, Note_on_c, 9, 41, 50
13, 32370, Note_off_c, 9, 41, 64
13, 32400, Note_on_c, 9, 42, 100
13, 32400, Note_on_c, 9, 48, 60
13, 32450, Note_off_c, 9, 48, 64
13, 32450, Note_off_c, 9, 42, 64
13, 32480, Note_on_c, 9, 45, 50
13, 32530, Note_off_c, 9, 45, 64
13, 32560, Note_on_c, 9, 38, 70
13, 32560, Note_on_c, 9, 41, 40
13, 32610, Note_off_c, 9, 41, 64
13, 32610, Note_off_c, 9, 38, 64
13, 32640, Note_on_c, 9, 51, 70
13, 32690, Note_off_c, 9, 51, 64
13, 32880, Note_on_c, 9, 42, 90
13, 32880, Note_on_c, 9, 37, 60
13, 32880, Note_on_c, 9, 51, 90
13, 32930, Note_off_c, 9, 51, 64
13, 32930, Note_off_c, 9, 37, 64
13, 32930, Note_off_c, 9, 42, 64
13, 33058, Note_on_c, 9, 38, 40
13, 33058, Note_on_c, 9, 51, 60
13, 33108, Note_off_c, 9, 51, 64
13, 33108, Note_off_c, 9, 38, 64
13, 33120, Note_on_c, 9, 51, 80
13, 33170, Note_off_c, 9, 51, 64
13, 33298, Note_on_c, 9, 38, 50
13, 33348, Note_off_c, 9, 38, 64
13, 33360, Note_on_c, 9, 42, 100
13, 33360, Note_on_c, 9, 37, 70
13, 33360, Note_on_c, 9, 51, 90
13, 33410, Note_off_c, 9, 51, 64
13, 33410, Note_off_c, 9, 37, 64
13, 33410, Note_off_c, 9, 42, 64
13, 33538, Note_on_c, 9, 51, 70
13, 33588, Note_off_c, 9, 51, 64
13, 33600, Note_on_c, 9, 51, 80
13, 33650, Note_off_c, 9, 51, 64
13, 33840, Note_on_c, 9, 42, 70
13, 33840, Note_on_c, 9, 37, 70
13, 33840, Note_on_c, 9, 51, 90
13, 33890, Note_off_c, 9, 51, 64
13, 33890, Note_off_c, 9, 37, 64
13, 33890, Note_off_c, 9, 42, 64
13, 34014, Note_on_c, 9, 51, 70
13, 34064, Note_off_c, 9, 51, 64
13, 34080, Note_on_c, 9, 51, 90
13, 34130, Note_off_c, 9, 51, 64
13, 34320, Note_on_c, 9, 42, 100
13, 34320, Note_on_c, 9, 51, 90
13, 34370, Note_off_c, 9, 51, 64
13, 34370, Note_off_c, 9, 42, 64
13, 34494, Note_on_c, 9, 51, 70
13, 34544, Note_off_c, 9, 51, 64
13, 34560, Note_on_c, 9, 51, 70
13, 34610, Note_off_c, 9, 51, 64
13, 34800, Note_on_c, 9, 42, 90
13, 34800, Note_on_c, 9, 37, 60
13, 34800, Note_on_c, 9, 51, 90
13, 34850, Note_off_c, 9, 51, 64
13, 34850, Note_off_c, 9, 37, 64
13, 34850, Note_off_c, 9, 42, 64
13, 34976, Note_on_c, 9, 38, 40
13, 34976, Note_on_c, 9, 51, 70
13, 35026, Note_off_c, 9, 51, 64
13, 35026, Note_off_c, 9, 38, 64
13, 35040, Note_on_c, 9, 51, 80
13, 35090, Note_off_c, 9, 51, 64
13, 35280, Note_on_c, 9, 42, 100
13, 35280, Note_on_c, 9, 37, 70
13, 35280, Note_on_c, 9, 51, 90
13, 35330, Note_off_c, 9, 51, 64
13, 35330, Note_off_c, 9, 37, 64
13, 35330, Note_off_c, 9, 42, 64
13, 35456, Note_on_c, 9, 51, 70
13, 35506, Note_off_c, 9, 51, 64
13, 35520, Note_on_c, 9, 51, 80
13, 35570, Note_off_c, 9, 51, 64
13, 35760, Note_on_c, 9, 42, 80
13, 35760, Note_on_c, 9, 37, 70
13, 35760, Note_on_c, 9, 51, 90
13, 35810, Note_off_c, 9, 51, 64
13, 35810, Note_off_c, 9, 37, 64
13, 35810, Note_off_c, 9, 42, 64
13, 35936, Note_on_c, 9, 38, 30
13, 35936, Note_on_c, 9, 51, 70
13, 35986, Note_off_c, 9, 51, 64
13, 35986, Note_off_c, 9, 38, 64
13, 36000, Note_on_c, 9, 38, 40
13, 36000, Note_on_c, 9, 51, 80
13, 36050, Note_off_c, 9, 51, 64
13, 36050, Note_off_c, 9, 38, 64
13, 36240, Note_on_c, 9, 42, 100
13, 36240, Note_on_c, 9, 37, 70
13, 36240, Note_on_c, 9, 51, 90
13, 36290, Note_off_c, 9, 51, 64
13, 36290, Note_off_c, 9, 37, 64
13, 36290, Note_off_c, 9, 42, 64
13, 36416, Note_on_c, 9, 51, 70
13, 36466, Note_off_c, 9, 51, 64
13, 36480, Note_on_c, 9, 51, 70
13, 36530, Note_off_c, 9, 51, 64
13, 36720, Note_on_c, 9, 42, 100
13, 36720, Note_on_c, 9, 37, 70
13, 36720, Note_on_c, 9, 51, 90
13, 36770, Note_off_c, 9, 51, 64
13, 36770, Note_off_c, 9, 37, 64
13, 36770, Note_off_c, 9, 42, 64
13, 36894, Note_on_c, 9, 38, 40
13, 36894, Note_on_c, 9, 51, 50
13, 36944, Note_off_c, 9, 51, 64
13, 36944, Note_off_c, 9, 38, 64
13, 36960, Note_on_c, 9, 51, 80
13, 37010, Note_off_c, 9, 51, 64
13, 37200, Note_on_c, 9, 42, 100
13, 37200, Note_on_c, 9, 37, 70
13, 37200, Note_on_c, 9, 51, 90
13, 37250, Note_off_c, 9, 51, 64
13, 37250, Note_off_c, 9, 37, 64
13, 37250, Note_off_c, 9, 42, 64
13, 37374, Note_on_c, 9, 38, 40
13, 37374, Note_on_c, 9, 51, 50
13, 37424, Note_off_c, 9, 51, 64
13, 37424, Note_off_c, 9, 38, 64
13, 37440, Note_on_c, 9, 51, 80
13, 37490, Note_off_c, 9, 51, 64
13, 37680, Note_on_c, 9, 42, 80
13, 37680, Note_on_c, 9, 37, 70
13, 37680, Note_on_c, 9, 51, 90
13, 37730, Note_off_c, 9, 51, 64
13, 37730, Note_off_c, 9, 37, 64
13, 37730, Note_off_c, 9, 42, 64
13, 37856, Note_on_c, 9, 38, 30
13, 37856, Note_on_c, 9, 51, 70
13, 37906, Note_off_c, 9, 51, 64
13, 37906, Note_off_c, 9, 38, 64
13, 37920, Note_on_c, 9, 38, 40
13, 37920, Note_on_c, 9, 51, 80
13, 37970, Note_off_c, 9, 51, 64
13, 37970, Note_off_c, 9, 38, 64
13, 38160, Note_on_c, 9, 42, 100
13, 38160, Note_on_c, 9, 37, 70
13, 38160, Note_on_c, 9, 51, 90
13, 38210, Note_off_c, 9, 51, 64
13, 38210, Note_off_c, 9, 37, 64
13, 38210, Note_off_c, 9, 42, 64
13, 38336, Note_on_c, 9, 51, 70
13, 38386, Note_off_c, 9, 51, 64
13, 38400, Note_on_c, 9, 51, 70
13, 38450, Note_off_c, 9, 51, 64
13, 38576, Note_on_c, 9, 38, 60
13, 38626, Note_off_c, 9, 38, 64
13, 38640, Note_on_c, 9, 42, 90
13, 38640, Note_on_c, 9, 37, 60
13, 38640, Note_on_c, 9, 51, 90
13, 38690, Note_off_c, 9, 51, 64
13, 38690, Note_off_c, 9, 37, 64
13, 38690, Note_off_c, 9, 42, 64
13, 38816, Note_on_c, 9, 38, 40
13, 38816, Note_on_c, 9, 51, 70
13, 38866, Note_off_c, 9, 51, 64
13, 38866, Note_off_c, 9, 38, 64
13, 38880, Note_on_c, 9, 51, 80
13, 38930, Note_off_c, 9, 51, 64
13, 39120, Note_on_c, 9, 42, 100
13, 39120, Note_on_c, 9, 37, 70
13, 39120, Note_on_c, 9, 51, 90
13, 39170, Note_off_c, 9, 51, 64
13, 39170, Note_off_c, 9, 37, 64
13, 39170, Note_off_c, 9, 42, 64
13, 39296, Note_on_c, 9, 51, 70
13, 39346, Note_off_c, 9, 51, 64
13, 39360, Note_on_c, 9, 35, 90
13, 39410, Note_off_c, 9, 35, 64
13, 39532, Note_on_c, 9, 38, 70
13, 39582, Note_off_c, 9, 38, 64
13, 39600, Note_on_c, 9, 42, 80
13, 39600, Note_on_c, 9, 51, 90
13, 39650, Note_off_c, 9, 51, 64
13, 39650, Note_off_c, 9, 42, 64
13, 39772, Note_on_c, 9, 38, 60
13, 39772, Note_on_c, 9, 51, 80
13, 39822, Note_off_c, 9, 51, 64
13, 39822, Note_off_c, 9, 38, 64
13, 39840, Note_on_c, 9, 38, 80
13, 39840, Note_on_c, 9, 51, 80
13, 39890, Note_off_c, 9, 51, 64
13, 39890, Note_off_c, 9, 38, 64
13, 40012, Note_on_c, 9, 35, 80
13, 40012, Note_on_c, 9, 38, 50
13, 40062, Note_off_c, 9, 38, 64
13, 40062, Note_off_c, 9, 35, 64
13, 40080, Note_on_c, 9, 42, 100
13, 40080, Note_on_c, 9, 51, 90
13, 40130, Note_off_c, 9, 51, 64
13, 40130, Note_off_c, 9, 42, 64
13, 40160, Note_on_c, 9, 38, 40
13, 40210, Note_off_c, 9, 38, 64
13, 40252, Note_on_c, 9, 38, 60
13, 40252, Note_on_c, 9, 51, 80
13, 40302, Note_off_c, 9, 51, 64
13, 40302, Note_off_c, 9, 38, 64
13, 40320, Note_on_c, 9, 51, 70
13, 40370, Note_off_c, 9, 51, 64
13, 40560, Note_on_c, 9, 42, 90
13, 40560, Note_on_c, 9, 37, 60
13, 40560, Note_on_c, 9, 51, 90
13, 40610, Note_off_c, 9, 51, 64
13, 40610, Note_off_c, 9, 37, 64
13, 40610, Note_off_c, 9, 42, 64
13, 40736, Note_on_c, 9, 38, 40
13, 40736, Note_on_c, 9, 51, 70
13, 40786, Note_off_c, 9, 51, 64
13, 40786, Note_off_c, 9, 38, 64
13, 40800, Note_on_c, 9, 51, 80
13, 40850, Note_off_c, 9, 51, 64
13, 41040, Note_on_c, 9, 42, 100
13, 41040, Note_on_c, 9, 37, 70
13, 41040, Note_on_c, 9, 51, 90
13, 41090, Note_off_c, 9, 51, 64
13, 41090, Note_off_c, 9, 37, 64
13, 41090, Note_off_c, 9, 42, 64
13, 41216, Note_on_c, 9, 51, 70
13, 41266, Note_off_c, 9, 51, 64
13, 41280, Note_on_c, 9, 51, 80
13, 41330, Note_off_c, 9, 51, 64
13, 41520, Note_on_c, 9, 42, 80
13, 41520, Note_on_c, 9, 37, 70
13, 41520, Note_on_c, 9, 51, 90
13, 41570, Note_off_c, 9, 51, 64
13, 41570, Note_off_c, 9, 37, 64
13, 41570, Note_off_c, 9, 42, 64
13, 41696, Note_on_c, 9, 38, 30
13, 41696, Note_on_c, 9, 51, 70
13, 41746, Note_off_c, 9, 51, 64
13, 41746, Note_off_c, 9, 38, 64
13, 41760, Note_on_c, 9, 38, 40
13, 41760, Note_on_c, 9, 51, 80
13, 41810, Note_off_c, 9, 51, 64
13, 41810, Note_off_c, 9, 38, 64
13, 41936, Note_on_c, 9, 38, 40
13, 41986, Note_off_c, 9, 38, 64
13, 42000, Note_on_c, 9, 42, 100
13, 42000, Note_on_c, 9, 37, 70
13, 42000, Note_on_c, 9, 51, 90
13, 42050, Note_off_c, 9, 51, 64
13, 42050, Note_off_c, 9, 37, 64
13, 42050, Note_off_c, 9, 42, 64
13, 42176, Note_on_c, 9, 51, 70
13, 42226, Note_off_c, 9, 51, 64
13, 42240, Note_on_c, 9, 51, 70
13, 42290, Note_off_c, 9, 51, 64
13, 42480, Note_on_c, 9, 42, 100
13, 42480, Note_on_c, 9, 37, 70
13, 42480, Note_on_c, 9, 51, 90
13, 42530, Note_off_c, 9, 51, 64
13, 42530, Note_off_c, 9, 37, 64
13, 42530, Note_off_c, 9, 42, 64
13, 42654, Note_on_c, 9, 38, 40
13, 42654, Note_on_c, 9, 51, 50
13, 42704, Note_off_c, 9, 51, 64
13, 42704, Note_off_c, 9, 38, 64
13, 42720, Note_on_c, 9, 51, 80
13, 42770, Note_off_c, 9, 51, 64
13, 42960, Note_on_c, 9, 42, 100
13, 42960, Note_on_c, 9, 37, 70
13, 42960, Note_on_c, 9, 51, 90
13, 43010, Note_off_c, 9, 51, 64
13, 43010, Note_off_c, 9, 37, 64
13, 43010, Note_off_c, 9, 42, 64
13, 43134, Note_on_c, 9, 38, 40
13, 43134, Note_on_c, 9, 51, 50
13, 43184, Note_off_c, 9, 51, 64
13, 43184, Note_off_c, 9, 38, 64
13, 43200, Note_on_c, 9, 51, 80
13, 43250, Note_off_c, 9, 51, 64
13, 43440, Note_on_c, 9, 42, 70
13, 43440, Note_on_c, 9, 37, 70
13, 43440, Note_on_c, 9, 51, 90
13, 43490, Note_off_c, 9, 51, 64
13, 43490, Note_off_c, 9, 37, 64
13, 43490, Note_off_c, 9, 42, 64
13, 43614, Note_on_c, 9, 38, 40
13, 43614, Note_on_c, 9, 51, 70
13, 43664, Note_off_c, 9, 51, 64
13, 43664, Note_off_c, 9, 38, 64
13, 43680, Note_on_c, 9, 51, 90
13, 43730, Note_off_c, 9, 51, 64
13, 43920, Note_on_c, 9, 42, 100
13, 43920, Note_on_c, 9, 51, 90
13, 43970, Note_off_c, 9, 51, 64
13, 43970, Note_off_c, 9, 42, 64
13, 44094, Note_on_c, 9, 51, 70
13, 44144, Note_off_c, 9, 51, 64
13, 44160, Note_on_c, 9, 51, 70
13, 44210, Note_off_c, 9, 51, 64
13, 44400, Note_on_c, 9, 42, 100
13, 44400, Note_on_c, 9, 37, 70
13, 44400, Note_on_c, 9, 51, 90
13, 44450, Note_off_c, 9, 51, 64
13, 44450, Note_off_c, 9, 37, 64
13, 44450, Note_off_c, 9, 42, 64
13, 44574, Note_on_c, 9, 38, 40
13, 44574, Note_on_c, 9, 51, 50
13, 44624, Note_off_c, 9, 51, 64
13, 44624, Note_off_c, 9, 38, 64
13, 44640, Note_on_c, 9, 51, 80
13, 44690, Note_off_c, 9, 51, 64
13, 44880, Note_on_c, 9, 42, 100
13, 44880, Note_on_c, 9, 37, 70
13, 44880, Note_on_c, 9, 51, 90
13, 44930, Note_off_c, 9, 51, 64
13, 44930, Note_off_c, 9, 37, 64
13, 44930, Note_off_c, 9, 42, 64
13, 45054, Note_on_c, 9, 38, 40
13, 45054, Note_on_c, 9, 51, 50
13, 45104, Note_off_c, 9, 51, 64
13, 45104, Note_off_c, 9, 38, 64
13, 45120, Note_on_c, 9, 51, 80
13, 45170, Note_off_c, 9, 51, 64
13, 45360, Note_on_c, 9, 42, 80
13, 45360, Note_on_c, 9, 37, 70
13, 45360, Note_on_c, 9, 51, 90
13, 45410, Note_off_c, 9, 51, 64
13, 45410, Note_off_c, 9, 37, 64
13, 45410, Note_off_c, 9, 42, 64
13, 45536, Note_on_c, 9, 51, 70
13, 45586, Note_off_c, 9, 51, 64
13, 45600, Note_on_c, 9, 38, 40
13, 45600, Note_on_c, 9, 51, 80
13, 45650, Note_off_c, 9, 51, 64
13, 45650, Note_off_c, 9, 38, 64
13, 45776, Note_on_c, 9, 38, 40
13, 45826, Note_off_c, 9, 38, 64
13, 45840, Note_on_c, 9, 42, 100
13, 45840, Note_on_c, 9, 37, 70
13, 45840, Note_on_c, 9, 51, 90
13, 45890, Note_off_c, 9, 51, 64
13, 45890, Note_off_c, 9, 37, 64
13, 45890, Note_off_c, 9, 42, 64
13, 46016, Note_on_c, 9, 51, 70
13, 46066, Note_off_c, 9, 51, 64
13, 46080, Note_on_c, 9, 51, 80
13, 46130, Note_off_c, 9, 51, 64
13, 46320, Note_on_c, 9, 42, 80
13, 46320, Note_on_c, 9, 37, 70
13, 46320, Note_on_c, 9, 51, 90
13, 46370, Note_off_c, 9, 51, 64
13, 46370, Note_off_c, 9, 37, 64
13, 46370, Note_off_c, 9, 42, 64
13, 46492, Note_on_c, 9, 38, 40
13, 46492, Note_on_c, 9, 51, 60
13, 46542, Note_off_c, 9, 51, 64
13, 46542, Note_off_c, 9, 38, 64
13, 46560, Note_on_c, 9, 51, 80
13, 46610, Note_off_c, 9, 51, 64
13, 46800, Note_on_c, 9, 42, 100
13, 46800, Note_on_c, 9, 37, 80
13, 46800, Note_on_c, 9, 51, 100
13, 46850, Note_off_c, 9, 51, 64
13, 46850, Note_off_c, 9, 37, 64
13, 46850, Note_off_c, 9, 42, 64
13, 46972, Note_on_c, 9, 38, 60
13, 46972, Note_on_c, 9, 51, 70
13, 47022, Note_off_c, 9, 51, 64
13, 47022, Note_off_c, 9, 38, 64
13, 47040, Note_on_c, 9, 38, 70
13, 47040, Note_on_c, 9, 51, 70
13, 47090, Note_off_c, 9, 51, 64
13, 47090, Note_off_c, 9, 38, 64
13, 47204, Note_on_c, 9, 35, 80
13, 47254, Note_off_c, 9, 35, 64
13, 47280, Note_on_c, 9, 42, 70
13, 47280, Note_on_c, 9, 51, 90
13, 47330, Note_off_c, 9, 51, 64
13, 47330, Note_off_c, 9, 42, 64
13, 47444, Note_on_c, 9, 38, 80
13, 47494, Note_off_c, 9, 38, 64
13, 47520, Note_on_c, 9, 35, 90
13, 47520, Note_on_c, 9, 51, 80
13, 47570, Note_off_c, 9, 51, 64
13, 47570, Note_off_c, 9, 35, 64
13, 47684, Note_on_c, 9, 38, 60
13, 47734, Note_off_c, 9, 38, 64
13, 47760, Note_on_c, 9, 42, 100
13, 47760, Note_on_c, 9, 51, 90
13, 47810, Note_off_c, 9, 51, 64
13, 47810, Note_off_c, 9, 42, 64
13, 47840, Note_on_c, 9, 38, 40
13, 47890, Note_off_c, 9, 38, 64
13, 47924, Note_on_c, 9, 38, 40
13, 47924, Note_on_c, 9, 45, 70
13, 47974, Note_off_c, 9, 45, 64
13, 47974, Note_off_c, 9, 38, 64
13, 48000, Note_on_c, 9, 49, 50
13, 48050, Note_off_c, 9, 49, 64
13, 48240, Note_on_c, 9, 42, 80
13, 48240, Note_on_c, 9, 37, 70
13, 48240, Note_on_c, 9, 51, 90
13, 48290, Note_off_c, 9, 51, 64
13, 48290, Note_off_c, 9, 37, 64
13, 48290, Note_off_c, 9, 42, 64
13, 48410, Note_on_c, 9, 38, 30
13, 48410, Note_on_c, 9, 51, 70
13, 48460, Note_off_c, 9, 51, 64
13, 48460, Note_off_c, 9, 38, 64
13, 48480, Note_on_c, 9, 38, 40
13, 48480, Note_on_c, 9, 51, 70
13, 48530, Note_off_c, 9, 51, 64
13, 48530, Note_off_c, 9, 38, 64
13, 48720, Note_on_c, 9, 42, 100
13, 48720, Note_on_c, 9, 37, 70
13, 48720, Note_on_c, 9, 51, 90
13, 48770, Note_off_c, 9, 51, 64
13, 48770, Note_off_c, 9, 37, 64
13, 48770, Note_off_c, 9, 42, 64
13, 48890, Note_on_c, 9, 51, 70
13, 48940, Note_off_c, 9, 51, 64
13, 48960, Note_on_c, 9, 51, 80
13, 49010, Note_off_c, 9, 51, 64
13, 49200, Note_on_c, 9, 42, 70
13, 49200, Note_on_c, 9, 37, 70
13, 49200, Note_on_c, 9, 51, 90
13, 49250, Note_off_c, 9, 51, 64
13, 49250, Note_off_c, 9, 37, 64
13, 49250, Note_off_c, 9, 42, 64
13, 49374, Note_on_c, 9, 38, 40
13, 49374, Note_on_c, 9, 51, 70
13, 49424, Note_off_c, 9, 51, 64
13, 49424, Note_off_c, 9, 38, 64
13, 49440, Note_on_c, 9, 51, 90
13, 49490, Note_off_c, 9, 51, 64
13, 49680, Note_on_c, 9, 42, 100
13, 49680, Note_on_c, 9, 51, 90
13, 49730, Note_off_c, 9, 51, 64
13, 49730, Note_off_c, 9, 42, 64
13, 49854, Note_on_c, 9, 51, 70
13, 49904, Note_off_c, 9, 51, 64
13, 49920, Note_on_c, 9, 51, 70
13, 49970, Note_off_c, 9, 51, 64
13, 50096, Note_on_c, 9, 38, 60
13, 50146, Note_off_c, 9, 38, 64
13, 50160, Note_on_c, 9, 42, 90
13, 50160, Note_on_c, 9, 37, 60
13, 50160, Note_on_c, 9, 51, 90
13, 50210, Note_off_c, 9, 51, 64
13, 50210, Note_off_c, 9, 37, 64
13, 50210, Note_off_c, 9, 42, 64
13, 50336, Note_on_c, 9, 38, 40
13, 50336, Note_on_c, 9, 51, 70
13, 50386, Note_off_c, 9, 51, 64
13, 50386, Note_off_c, 9, 38, 64
13, 50400, Note_on_c, 9, 51, 80
13, 50450, Note_off_c, 9, 51, 64
13, 50640, Note_on_c, 9, 42, 100
13, 50640, Note_on_c, 9, 37, 70
13, 50640, Note_on_c, 9, 51, 90
13, 50690, Note_off_c, 9, 51, 64
13, 50690, Note_off_c, 9, 37, 64
13, 50690, Note_off_c, 9, 42, 64
13, 50816, Note_on_c, 9, 51, 70
13, 50866, Note_off_c, 9, 51, 64
13, 50880, Note_on_c, 9, 51, 80
13, 50930, Note_off_c, 9, 51, 64
13, 51120, Note_on_c, 9, 42, 80
13, 51120, Note_on_c, 9, 37, 70
13, 51120, Note_on_c, 9, 51, 100
13, 51170, Note_off_c, 9, 51, 64
13, 51170, Note_off_c, 9, 37, 64
13, 51170, Note_off_c, 9, 42, 64
13, 51296, Note_on_c, 9, 38, 40
13, 51296, Note_on_c, 9, 51, 70
13, 51346, Note_off_c, 9, 51, 64
13, 51346, Note_off_c, 9, 38, 64
13, 51360, Note_on_c, 9, 51, 80
13, 51410, Note_off_c, 9, 51, 64
13, 51536, Note_on_c, 9, 38, 60
13, 51536, Note_on_c, 9, 51, 50
13, 51586, Note_off_c, 9, 51, 64
13, 51586, Note_off_c, 9, 38, 64
13, 51600, Note_on_c, 9, 42, 100
13, 51600, Note_on_c, 9, 37, 80
13, 51600, Note_on_c, 9, 51, 90
13, 51650, Note_off_c, 9, 51, 64
13, 51650, Note_off_c, 9, 37, 64
13, 51650, Note_off_c, 9, 42, 64
13, 51776, Note_on_c, 9, 38, 50
13, 51776, Note_on_c, 9, 51, 70
13, 51826, Note_off_c, 9, 51, 64
13, 51826, Note_off_c, 9, 38, 64
13, 51840, Note_on_c, 9, 51, 70
13, 51890, Note_off_c, 9, 51, 64
13, 52080, Note_on_c, 9, 42, 90
13, 52080, Note_on_c, 9, 37, 60
13, 52080, Note_on_c, 9, 51, 90
13, 52130, Note_off_c, 9, 51, 64
13, 52130, Note_off_c, 9, 37, 64
13, 52130, Note_off_c, 9, 42, 64
13, 52256, Note_on_c, 9, 38, 40
13, 52256, Note_on_c, 9, 51, 70
13, 52306, Note_off_c, 9, 51, 64
13, 52306, Note_off_c, 9, 38, 64
13, 52320, Note_on_c, 9, 51, 80
13, 52370, Note_off_c, 9, 51, 64
13, 52560, Note_on_c, 9, 42, 100
13, 52560, Note_on_c, 9, 37, 70
13, 52560, Note_on_c, 9, 51, 90
13, 52610, Note_off_c, 9, 51, 64
13, 52610, Note_off_c, 9, 37, 64
13, 52610, Note_off_c, 9, 42, 64
13, 52736, Note_on_c, 9, 51, 70
13, 52786, Note_off_c, 9, 51, 64
13, 52800, Note_on_c, 9, 51, 80
13, 52850, Note_off_c, 9, 51, 64
13, 53040, Note_on_c, 9, 42, 80
13, 53040, Note_on_c, 9, 37, 70
13, 53040, Note_on_c, 9, 51, 90
13, 53090, Note_off_c, 9, 51, 64
13, 53090, Note_off_c, 9, 37, 64
13, 53090, Note_off_c, 9, 42, 64
13, 53216, Note_on_c, 9, 38, 30
13, 53216, Note_on_c, 9, 51, 70
13, 53266, Note_off_c, 9, 51, 64
13, 53266, Note_off_c, 9, 38, 64
13, 53280, Note_on_c, 9, 38, 40
13, 53280, Note_on_c, 9, 51, 80
13, 53330, Note_off_c, 9, 51, 64
13, 53330, Note_off_c, 9, 38, 64
13, 53520, Note_on_c, 9, 42, 100
13, 53520, Note_on_c, 9, 37, 70
13, 53520, Note_on_c, 9, 51, 90
13, 53570, Note_off_c, 9, 51, 64
13, 53570, Note_off_c, 9, 37, 64
13, 53570, Note_off_c, 9, 42, 64
13, 53696, Note_on_c, 9, 51, 70
13, 53746, Note_off_c, 9, 51, 64
13, 53760, Note_on_c, 9, 51, 80
13, 53810, Note_off_c, 9, 51, 64
13, 54000, Note_on_c, 9, 42, 80
13, 54000, Note_on_c, 9, 37, 70
13, 54000, Note_on_c, 9, 51, 90
13, 54050, Note_off_c, 9, 51, 64
13, 54050, Note_off_c, 9, 37, 64
13, 54050, Note_off_c, 9, 42, 64
13, 54172, Note_on_c, 9, 38, 40
13, 54172, Note_on_c, 9, 51, 60
13, 54222, Note_off_c, 9, 51, 64
13, 54222, Note_off_c, 9, 38, 64
13, 54240, Note_on_c, 9, 51, 80
13, 54290, Note_off_c, 9, 51, 64
13, 54480, Note_on_c, 9, 42, 100
13, 54480, Note_on_c, 9, 37, 80
13, 54480, Note_on_c, 9, 51, 100
13, 54530, Note_off_c, 9, 51, 64
13, 54530, Note_off_c, 9, 37, 64
13, 54530, Note_off_c, 9, 42, 64
13, 54652, Note_on_c, 9, 38, 60
13, 54652, Note_on_c, 9, 51, 70
13, 54702, Note_off_c, 9, 51, 64
13, 54702, Note_off_c, 9, 38, 64
13, 54720, Note_on_c, 9, 35, 90
13, 54770, Note_off_c, 9, 35, 64
13, 54892, Note_on_c, 9, 38, 70
13, 54942, Note_off_c, 9, 38, 64
13, 54960, Note_on_c, 9, 42, 80
13, 54960, Note_on_c, 9, 51, 90
13, 55010, Note_off_c, 9, 51, 64
13, 55010, Note_off_c, 9, 42, 64
13, 55132, Note_on_c, 9, 38, 60
13, 55132, Note_on_c, 9, 51, 80
13, 55182, Note_off_c, 9, 51, 64
13, 55182, Note_off_c, 9, 38, 64
13, 55200, Note_on_c, 9, 38, 80
13, 55200, Note_on_c, 9, 51, 80
13, 55250, Note_off_c, 9, 51, 64
13, 55250, Note_off_c, 9, 38, 64
13, 55372, Note_on_c, 9, 35, 80
13, 55372, Note_on_c, 9, 38, 50
13, 55422, Note_off_c, 9, 38, 64
13, 55422, Note_off_c, 9, 35, 64
13, 55440, Note_on_c, 9, 42, 100
13, 55440, Note_on_c, 9, 51, 90
13, 55490, Note_off_c, 9, 51, 64
13, 55490, Note_off_c, 9, 42, 64
13, 55520, Note_on_c, 9, 38, 40
13, 55570, Note_off_c, 9, 38, 64
13, 55612, Note_on_c, 9, 38, 60
13, 55612, Note_on_c, 9, 51, 80
13, 55662, Note_off_c, 9, 51, 64
13, 55662, Note_off_c, 9, 38, 64
13, 55680, Note_on_c, 9, 38, 50
13, 55680, Note_on_c, 9, 49, 40
13, 55730, Note_off_c, 9, 49, 64
13, 55730, Note_off_c, 9, 38, 64
13, 55920, Note_on_c, 9, 42, 80
13, 55920, Note_on_c, 9, 37, 70
13, 55920, Note_on_c, 9, 51, 90
13, 55970, Note_off_c, 9, 51, 64
13, 55970, Note_off_c, 9, 37, 64
13, 55970, Note_off_c, 9, 42, 64
13, 56094, Note_on_c, 9, 51, 70
13, 56144, Note_off_c, 9, 51, 64
13, 56160, Note_on_c, 9, 38, 40
13, 56160, Note_on_c, 9, 51, 70
13, 56210, Note_off_c, 9, 51, 64
13, 56210, Note_off_c, 9, 38, 64
13, 56400, Note_on_c, 9, 42, 100
13, 56400, Note_on_c, 9, 37, 70
13, 56400, Note_on_c, 9, 51, 90
13, 56450, Note_off_c, 9, 51, 64
13, 56450, Note_off_c, 9, 37, 64
13, 56450, Note_off_c, 9, 42, 64
13, 56574, Note_on_c, 9, 51, 70
13, 56624, Note_off_c, 9, 51, 64
13, 56640, Note_on_c, 9, 51, 80
13, 56690, Note_off_c, 9, 51, 64
13, 56880, Note_on_c, 9, 42, 80
13, 56880, Note_on_c, 9, 37, 70
13, 56880, Note_on_c, 9, 51, 90
13, 56930, Note_off_c, 9, 51, 64
13, 56930, Note_off_c, 9, 37, 64
13, 56930, Note_off_c, 9, 42, 64
13, 57056, Note_on_c, 9, 38, 30
13, 57056, Note_on_c, 9, 51, 70
13, 57106, Note_off_c, 9, 51, 64
13, 57106, Note_off_c, 9, 38, 64
13, 57120, Note_on_c, 9, 38, 40
13, 57120, Note_on_c, 9, 51, 80
13, 57170, Note_off_c, 9, 51, 64
13, 57170, Note_off_c, 9, 38, 64
13, 57360, Note_on_c, 9, 42, 100
13, 57360, Note_on_c, 9, 37, 70
13, 57360, Note_on_c, 9, 51, 90
13, 57410, Note_off_c, 9, 51, 64
13, 57410, Note_off_c, 9, 37, 64
13, 57410, Note_off_c, 9, 42, 64
13, 57536, Note_on_c, 9, 51, 70
13, 57586, Note_off_c, 9, 51, 64
13, 57600, Note_on_c, 9, 51, 70
13, 57650, Note_off_c, 9, 51, 64
13, 57840, Note_on_c, 9, 42, 90
13, 57840, Note_on_c, 9, 37, 60
13, 57840, Note_on_c, 9, 51, 90
13, 57890, Note_off_c, 9, 51, 64
13, 57890, Note_off_c, 9, 37, 64
13, 57890, Note_off_c, 9, 42, 64
13, 58016, Note_on_c, 9, 38, 40
13, 58016, Note_on_c, 9, 51, 70
13, 58066, Note_off_c, 9, 51, 64
13, 58066, Note_off_c, 9, 38, 64
13, 58080, Note_on_c, 9, 51, 80
13, 58130, Note_off_c, 9, 51, 64
13, 58320, Note_on_c, 9, 42, 100
13, 58320, Note_on_c, 9, 37, 70
13, 58320, Note_on_c, 9, 51, 90
13, 58370, Note_off_c, 9, 51, 64
13, 58370, Note_off_c, 9, 37, 64
13, 58370, Note_off_c, 9, 42, 64
13, 58496, Note_on_c, 9, 51, 70
13, 58546, Note_off_c, 9, 51, 64
13, 58560, Note_on_c, 9, 51, 80
13, 58610, Note_off_c, 9, 51, 64
13, 58800, Note_on_c, 9, 42, 80
13, 58800, Note_on_c, 9, 37, 70
13, 58800, Note_on_c, 9, 51, 90
13, 58850, Note_off_c, 9, 51, 64
13, 58850, Note_off_c, 9, 37, 64
13, 58850, Note_off_c, 9, 42, 64
13, 58976, Note_on_c, 9, 38, 40
13, 58976, Note_on_c, 9, 51, 70
13, 59026, Note_off_c, 9, 51, 64
13, 59026, Note_off_c, 9, 38, 64
13, 59040, Note_on_c, 9, 51, 80
13, 59090, Note_off_c, 9, 51, 64
13, 59280, Note_on_c, 9, 42, 100
13, 59280, Note_on_c, 9, 37, 70
13, 59280, Note_on_c, 9, 51, 90
13, 59330, Note_off_c, 9, 51, 64
13, 59330, Note_off_c, 9, 37, 64
13, 59330, Note_off_c, 9, 42, 64
13, 59456, Note_on_c, 9, 51, 70
13, 59506, Note_off_c, 9, 51, 64
13, 59520, Note_on_c, 9, 51, 70
13, 59570, Note_off_c, 9, 51, 64
13, 59760, Note_on_c, 9, 42, 90
13, 59760, Note_on_c, 9, 37, 60
13, 59760, Note_on_c, 9, 51, 90
13, 59810, Note_off_c, 9, 51, 64
13, 59810, Note_off_c, 9, 37, 64
13, 59810, Note_off_c, 9, 42, 64
13, 59936, Note_on_c, 9, 38, 40
13, 59936, Note_on_c, 9, 51, 70
13, 59986, Note_off_c, 9, 51, 64
13, 59986, Note_off_c, 9, 38, 64
13, 60000, Note_on_c, 9, 51, 80
13, 60050, Note_off_c, 9, 51, 64
13, 60240, Note_on_c, 9, 42, 100
13, 60240, Note_on_c, 9, 37, 70
13, 60240, Note_on_c, 9, 51, 90
13, 60290, Note_off_c, 9, 51, 64
13, 60290, Note_off_c, 9, 37, 64
13, 60290, Note_off_c, 9, 42, 64
13, 60416, Note_on_c, 9, 51, 70
13, 60466, Note_off_c, 9, 51, 64
13, 60480, Note_on_c, 9, 51, 80
13, 60530, Note_off_c, 9, 51, 64
13, 60720, Note_on_c, 9, 42, 70
13, 60720, Note_on_c, 9, 37, 70
13, 60720, Note_on_c, 9, 51, 90
13, 60770, Note_off_c, 9, 51, 64
13, 60770, Note_off_c, 9, 37, 64
13, 60770, Note_off_c, 9, 42, 64
13, 60894, Note_on_c, 9, 51, 70
13, 60944, Note_off_c, 9, 51, 64
13, 60960, Note_on_c, 9, 51, 90
13, 61010, Note_off_c, 9, 51, 64
13, 61200, Note_on_c, 9, 42, 100
13, 61200, Note_on_c, 9, 51, 90
13, 61250, Note_off_c, 9, 51, 64
13, 61250, Note_off_c, 9, 42, 64
13, 61374, Note_on_c, 9, 51, 70
13, 61424, Note_off_c, 9, 51, 64
13, 61440, Note_on_c, 9, 51, 70
13, 61490, Note_off_c, 9, 51, 64
13, 61680, Note_on_c, 9, 42, 90
13, 61680, Note_on_c, 9, 37, 60
13, 61680, Note_on_c, 9, 51, 90
13, 61730, Note_off_c, 9, 51, 64
13, 61730, Note_off_c, 9, 37, 64
13, 61730, Note_off_c, 9, 42, 64
13, 61856, Note_on_c, 9, 38, 40
13, 61856, Note_on_c, 9, 51, 70
13, 61906, Note_off_c, 9, 51, 64
13, 61906, Note_off_c, 9, 38, 64
13, 61920, Note_on_c, 9, 51, 80
13, 61970, Note_off_c, 9, 51, 64
13, 62160, Note_on_c, 9, 42, 100
13, 62160, Note_on_c, 9, 37, 70
13, 62160, Note_on_c, 9, 51, 90
13, 62210, Note_off_c, 9, 51, 64
13, 62210, Note_off_c, 9, 37, 64
13, 62210, Note_off_c, 9, 42, 64
13, 62336, Note_on_c, 9, 51, 70
13, 62386, Note_off_c, 9, 51, 64
13, 62400, Note_on_c, 9, 38, 60
13, 62400, Note_on_c, 9, 51, 90
13, 62450, Note_off_c, 9, 51, 64
13, 62450, Note_off_c, 9, 38, 64
13, 62560, Note_on_c, 9, 38, 50
13, 62610, Note_off_c, 9, 38, 64
13, 62640, Note_on_c, 9, 35, 90
13, 62640, Note_on_c, 9, 42, 100
13, 62690, Note_off_c, 9, 42, 64
13, 62690, Note_off_c, 9, 35, 64
13, 62720, Note_on_c, 9, 38, 40
13, 62770, Note_off_c, 9, 38, 64
13, 62800, Note_on_c, 9, 45, 50
13, 62850, Note_off_c, 9, 45, 64
13, 62880, Note_on_c, 9, 38, 40
13, 62930, Note_off_c, 9, 38, 64
13, 62960, Note_on_c, 9, 38, 40
13, 63010, Note_off_c, 9, 38, 64
13, 63040, Note_on_c, 9, 41, 50
13, 63090, Note_off_c, 9, 41, 64
13, 63120, Note_on_c, 9, 42, 100
13, 63120, Note_on_c, 9, 48, 60
13, 63170, Note_off_c, 9, 48, 64
13, 63170, Note_off_c, 9, 42, 64
13, 63200, Note_on_c, 9, 45, 50
13, 63250, Note_off_c, 9, 45, 64
13, 63280, Note_on_c, 9, 38, 70
13, 63280, Note_on_c, 9, 41, 40
13, 63330, Note_off_c, 9, 41, 64
13, 63330, Note_off_c, 9, 38, 64
13, 63360, Note_on_c, 9, 35, 60
13, 63360, Note_on_c, 9, 42, 70
13, 63410, Note_off_c, 9, 42, 64
13, 63410, Note_off_c, 9, 35, 64
13, 63600, Note_on_c, 9, 42, 90
13, 63600, Note_on_c, 9, 37, 70
13, 63650, Note_off_c, 9, 37, 64
13, 63650, Note_off_c, 9, 42, 64
13, 63776, Note_on_c, 9, 42, 40
13, 63826, Note_off_c, 9, 42, 64
13, 63840, Note_on_c, 9, 35, 60
13, 63840, Note_on_c, 9, 42, 80
13, 63890, Note_off_c, 9, 42, 64
13, 63890, Note_off_c, 9, 35, 64
13, 64080, Note_on_c, 9, 42, 90
13, 64080, Note_on_c, 9, 37, 80
13, 64130, Note_off_c, 9, 37, 64
13, 64130, Note_off_c, 9, 42, 64
13, 64256, Note_on_c, 9, 42, 50
13, 64306, Note_off_c, 9, 42, 64
13, 64320, Note_on_c, 9, 35, 60
13, 64320, Note_on_c, 9, 42, 70
13, 64370, Note_off_c, 9, 42, 64
13, 64370, Note_off_c, 9, 35, 64
13, 64496, Note_on_c, 9, 38, 70
13, 64546, Note_off_c, 9, 38, 64
13, 64560, Note_on_c, 9, 42, 90
13, 64560, Note_on_c, 9, 37, 70
13, 64610, Note_off_c, 9, 37, 64
13, 64610, Note_off_c, 9, 42, 64
13, 64736, Note_on_c, 9, 42, 40
13, 64786, Note_off_c, 9, 42, 64
13, 64800, Note_on_c, 9, 35, 60
13, 64800, Note_on_c, 9, 42, 80
13, 64850, Note_off_c, 9, 42, 64
13, 64850, Note_off_c, 9, 35, 64
13, 65040, Note_on_c, 9, 42, 90
13, 65040, Note_on_c, 9, 37, 80
13, 65090, Note_off_c, 9, 37, 64
13, 65090, Note_off_c, 9, 42, 64
13, 65216, Note_on_c, 9, 42, 50
13, 65266, Note_off_c, 9, 42, 64
13, 65280, Note_on_c, 9, 35, 60
13, 65280, Note_on_c, 9, 42, 70
13, 65330, Note_off_c, 9, 42, 64
13, 65330, Note_off_c, 9, 35, 64
13, 65520, Note_on_c, 9, 42, 90
13, 65520, Note_on_c, 9, 37, 70
13, 65570, Note_off_c, 9, 37, 64
13, 65570, Note_off_c, 9, 42, 64
13, 65696, Note_on_c, 9, 42, 40
13, 65746, Note_off_c, 9, 42, 64
13, 65760, Note_on_c, 9, 35, 60
13, 65760, Note_on_c, 9, 42, 80
13, 65810, Note_off_c, 9, 42, 64
13, 65810, Note_off_c, 9, 35, 64
13, 66000, Note_on_c, 9, 42, 90
13, 66000, Note_on_c, 9, 37, 80
13, 66050, Note_off_c, 9, 37, 64
13, 66050, Note_off_c, 9, 42, 64
13, 66176, Note_on_c, 9, 42, 50
13, 66226, Note_off_c, 9, 42, 64
13, 66240, Note_on_c, 9, 35, 60
13, 66240, Note_on_c, 9, 42, 80
13, 66290, Note_off_c, 9, 42, 64
13, 66290, Note_off_c, 9, 35, 64
13, 66480, Note_on_c, 9, 42, 90
13, 66480, Note_on_c, 9, 37, 70
13, 66530, Note_off_c, 9, 37, 64
13, 66530, Note_off_c, 9, 42, 64
13, 66654, Note_on_c, 9, 42, 40
13, 66704, Note_off_c, 9, 42, 64
13, 66720, Note_on_c, 9, 35, 60
13, 66720, Note_on_c, 9, 42, 80
13, 66770, Note_off_c, 9, 42, 64
13, 66770, Note_off_c, 9, 35, 64
13, 66894, Note_on_c, 9, 37, 90
13, 66944, Note_off_c, 9, 37, 64
13, 66960, Note_on_c, 9, 42, 90
13, 67010, Note_off_c, 9, 42, 64
13, 67134, Note_on_c, 9, 35, 50
13, 67134, Note_on_c, 9, 42, 50
13, 67184, Note_off_c, 9, 42, 64
13, 67184, Note_off_c, 9, 35, 64
13, 67200, Note_on_c, 9, 35, 60
13, 67200, Note_on_c, 9, 42, 70
13, 67250, Note_off_c, 9, 42, 64
13, 67250, Note_off_c, 9, 35, 64
13, 67376, Note_on_c, 9, 38, 70
13, 67426, Note_off_c, 9, 38, 64
13, 67440, Note_on_c, 9, 42, 90
13, 67440, Note_on_c, 9, 37, 70
13, 67490, Note_off_c, 9, 37, 64
13, 67490, Note_off_c, 9, 42, 64
13, 67616, Note_on_c, 9, 42, 40
13, 67666, Note_off_c, 9, 42, 64
13, 67680, Note_on_c, 9, 35, 60
13, 67680, Note_on_c, 9, 42, 80
13, 67730, Note_off_c, 9, 42, 64
13, 67730, Note_off_c, 9, 35, 64
13, 67920, Note_on_c, 9, 42, 90
13, 67920, Note_on_c, 9, 37, 80
13, 67970, Note_off_c, 9, 37, 64
13, 67970, Note_off_c, 9, 42, 64
13, 68096, Note_on_c, 9, 42, 50
13, 68146, Note_off_c, 9, 42, 64
13, 68160, Note_on_c, 9, 35, 60
13, 68160, Note_on_c, 9, 42, 70
13, 68210, Note_off_c, 9, 42, 64
13, 68210, Note_off_c, 9, 35, 64
13, 68400, Note_on_c, 9, 42, 90
13, 68400, Note_on_c, 9, 37, 70
13, 68450, Note_off_c, 9, 37, 64
13, 68450, Note_off_c, 9, 42, 64
13, 68576, Note_on_c, 9, 42, 40
13, 68626, Note_off_c, 9, 42, 64
13, 68640, Note_on_c, 9, 35, 60
13, 68640, Note_on_c, 9, 42, 80
13, 68690, Note_off_c, 9, 42, 64
13, 68690, Note_off_c, 9, 35, 64
13, 68880, Note_on_c, 9, 42, 90
13, 68880, Note_on_c, 9, 37, 80
13, 68930, Note_off_c, 9, 37, 64
13, 68930, Note_off_c, 9, 42, 64
13, 69056, Note_on_c, 9, 42, 50
13, 69106, Note_off_c, 9, 42, 64
13, 69120, Note_on_c, 9, 35, 60
13, 69120, Note_on_c, 9, 42, 70
13, 69170, Note_off_c, 9, 42, 64
13, 69170, Note_off_c, 9, 35, 64
13, 69360, Note_on_c, 9, 42, 80
13, 69360, Note_on_c, 9, 37, 70
13, 69410, Note_off_c, 9, 37, 64
13, 69410, Note_off_c, 9, 42, 64
13, 69536, Note_on_c, 9, 42, 40
13, 69586, Note_off_c, 9, 42, 64
13, 69600, Note_on_c, 9, 35, 60
13, 69600, Note_on_c, 9, 42, 80
13, 69650, Note_off_c, 9, 42, 64
13, 69650, Note_off_c, 9, 35, 64
13, 69840, Note_on_c, 9, 42, 80
13, 69840, Note_on_c, 9, 37, 80
13, 69890, Note_off_c, 9, 37, 64
13, 69890, Note_off_c, 9, 42, 64
13, 70016, Note_on_c, 9, 35, 50
13, 70016, Note_on_c, 9, 42, 50
13, 70066, Note_off_c, 9, 42, 64
13, 70066, Note_off_c, 9, 35, 64
13, 70080, Note_on_c, 9, 35, 60
13, 70080, Note_on_c, 9, 42, 80
13, 70130, Note_off_c, 9, 42, 64
13, 70130, Note_off_c, 9, 35, 64
13, 70320, Note_on_c, 9, 42, 90
13, 70370, Note_off_c, 9, 42, 64
13, 70484, Note_on_c, 9, 38, 40
13, 70534, Note_off_c, 9, 38, 64
13, 70560, Note_on_c, 9, 35, 60
13, 70560, Note_on_c, 9, 42, 80
13, 70610, Note_off_c, 9, 42, 64
13, 70610, Note_off_c, 9, 35, 64
13, 70640, Note_on_c, 9, 38, 30
13, 70690, Note_off_c, 9, 38, 64
13, 70724, Note_on_c, 9, 38, 40
13, 70774, Note_off_c, 9, 38, 64
13, 70800, Note_on_c, 9, 35, 60
13, 70800, Note_on_c, 9, 38, 30
13, 70800, Note_on_c, 9, 42, 90
13, 70850, Note_off_c, 9, 42, 64
13, 70850, Note_off_c, 9, 38, 64
13, 70850, Note_off_c, 9, 35, 64
13, 70880, Note_on_c, 9, 38, 40
13, 70930, Note_off_c, 9, 38, 64
13, 70964, Note_on_c, 9, 38, 50
13, 71014, Note_off_c, 9, 38, 64
13, 71040, Note_on_c, 9, 35, 60
13, 71040, Note_on_c, 9, 42, 70
13, 71090, Note_off_c, 9, 42, 64
13, 71090, Note_off_c, 9, 35, 64
13, 71280, Note_on_c, 9, 42, 90
13, 71280, Note_on_c, 9, 37, 70
13, 71330, Note_off_c, 9, 37, 64
13, 71330, Note_off_c, 9, 42, 64
13, 71456, Note_on_c, 9, 42, 40
13, 71506, Note_off_c, 9, 42, 64
13, 71520, Note_on_c, 9, 35, 60
13, 71520, Note_on_c, 9, 42, 80
13, 71570, Note_off_c, 9, 42, 64
13, 71570, Note_off_c, 9, 35, 64
13, 71760, Note_on_c, 9, 42, 90
13, 71760, Note_on_c, 9, 37, 80
13, 71810, Note_off_c, 9, 37, 64
13, 71810, Note_off_c, 9, 42, 64
13, 71936, Note_on_c, 9, 42, 50
13, 71986, Note_off_c, 9, 42, 64
13, 72000, Note_on_c, 9, 35, 60
13, 72000, Note_on_c, 9, 42, 80
13, 72050, Note_off_c, 9, 42, 64
13, 72050, Note_off_c, 9, 35, 64
13, 72240, Note_on_c, 9, 42, 90
13, 72240, Note_on_c, 9, 37, 70
13, 72290, Note_off_c, 9, 37, 64
13, 72290, Note_off_c, 9, 42, 64
13, 72414, Note_on_c, 9, 42, 40
13, 72464, Note_off_c, 9, 42, 64
13, 72480, Note_on_c, 9, 35, 60
13, 72480, Note_on_c, 9, 42, 80
13, 72530, Note_off_c, 9, 42, 64
13, 72530, Note_off_c, 9, 35, 64
13, 72720, Note_on_c, 9, 42, 90
13, 72720, Note_on_c, 9, 37, 85
13, 72770, Note_off_c, 9, 37, 64
13, 72770, Note_off_c, 9, 42, 64
13, 72894, Note_on_c, 9, 42, 50
13, 72944, Note_off_c, 9, 42, 64
13, 72960, Note_on_c, 9, 35, 60
13, 72960, Note_on_c, 9, 42, 70
13, 73010, Note_off_c, 9, 42, 64
13, 73010, Note_off_c, 9, 35, 64
13, 73200, Note_on_c, 9, 42, 90
13, 73200, Note_on_c, 9, 37, 70
13, 73250, Note_off_c, 9, 37, 64
13, 73250, Note_off_c, 9, 42, 64
13, 73376, Note_on_c, 9, 42, 40
13, 73426, Note_off_c, 9, 42, 64
13, 73440, Note_on_c, 9, 35, 60
13, 73440, Note_on_c, 9, 42, 80
13, 73490, Note_off_c, 9, 42, 64
13, 73490, Note_off_c, 9, 35, 64
13, 73680, Note_on_c, 9, 42, 90
13, 73680, Note_on_c, 9, 37, 80
13, 73730, Note_off_c, 9, 37, 64
13, 73730, Note_off_c, 9, 42, 64
13, 73856, Note_on_c, 9, 42, 50
13, 73906, Note_off_c, 9, 42, 64
13, 73920, Note_on_c, 9, 35, 60
13, 73920, Note_on_c, 9, 42, 70
13, 73970, Note_off_c, 9, 42, 64
13, 73970, Note_off_c, 9, 35, 64
13, 74160, Note_on_c, 9, 42, 90
13, 74160, Note_on_c, 9, 37, 70
13, 74210, Note_off_c, 9, 37, 64
13, 74210, Note_off_c, 9, 42, 64
13, 74336, Note_on_c, 9, 42, 40
13, 74386, Note_off_c, 9, 42, 64
13, 74400, Note_on_c, 9, 35, 60
13, 74400, Note_on_c, 9, 42, 80
13, 74450, Note_off_c, 9, 42, 64
13, 74450, Note_off_c, 9, 35, 64
13, 74640, Note_on_c, 9, 42, 90
13, 74640, Note_on_c, 9, 37, 80
13, 74690, Note_off_c, 9, 37, 64
13, 74690, Note_off_c, 9, 42, 64
13, 74816, Note_on_c, 9, 42, 50
13, 74866, Note_off_c, 9, 42, 64
13, 74880, Note_on_c, 9, 35, 60
13, 74880, Note_on_c, 9, 42, 70
13, 74930, Note_off_c, 9, 42, 64
13, 74930, Note_off_c, 9, 35, 64
13, 75120, Note_on_c, 9, 42, 90
13, 75120, Note_on_c, 9, 37, 70
13, 75170, Note_off_c, 9, 37, 64
13, 75170, Note_off_c, 9, 42, 64
13, 75296, Note_on_c, 9, 42, 40
13, 75346, Note_off_c, 9, 42, 64
13, 75360, Note_on_c, 9, 35, 60
13, 75360, Note_on_c, 9, 42, 80
13, 75410, Note_off_c, 9, 42, 64
13, 75410, Note_off_c, 9, 35, 64
13, 75600, Note_on_c, 9, 42, 90
13, 75600, Note_on_c, 9, 37, 80
13, 75650, Note_off_c, 9, 37, 64
13, 75650, Note_off_c, 9, 42, 64
13, 75776, Note_on_c, 9, 42, 50
13, 75826, Note_off_c, 9, 42, 64
13, 75840, Note_on_c, 9, 35, 60
13, 75840, Note_on_c, 9, 42, 70
13, 75890, Note_off_c, 9, 42, 64
13, 75890, Note_off_c, 9, 35, 64
13, 76080, Note_on_c, 9, 42, 80
13, 76080, Note_on_c, 9, 37, 70
13, 76130, Note_off_c, 9, 37, 64
13, 76130, Note_off_c, 9, 42, 64
13, 76256, Note_on_c, 9, 42, 40
13, 76306, Note_off_c, 9, 42, 64
13, 76320, Note_on_c, 9, 35, 60
13, 76320, Note_on_c, 9, 42, 80
13, 76370, Note_off_c, 9, 42, 64
13, 76370, Note_off_c, 9, 35, 64
13, 76560, Note_on_c, 9, 42, 80
13, 76560, Note_on_c, 9, 37, 80
13, 76610, Note_off_c, 9, 37, 64
13, 76610, Note_off_c, 9, 42, 64
13, 76736, Note_on_c, 9, 42, 50
13, 76786, Note_off_c, 9, 42, 64
13, 76800, Note_on_c, 9, 35, 60
13, 76800, Note_on_c, 9, 42, 70
13, 76850, Note_off_c, 9, 42, 64
13, 76850, Note_off_c, 9, 35, 64
13, 77040, Note_on_c, 9, 42, 90
13, 77040, Note_on_c, 9, 37, 70
13, 77090, Note_off_c, 9, 37, 64
13, 77090, Note_off_c, 9, 42, 64
13, 77216, Note_on_c, 9, 42, 40
13, 77266, Note_off_c, 9, 42, 64
13, 77280, Note_on_c, 9, 35, 60
13, 77280, Note_on_c, 9, 42, 80
13, 77330, Note_off_c, 9, 42, 64
13, 77330, Note_off_c, 9, 35, 64
13, 77520, Note_on_c, 9, 42, 90
13, 77520, Note_on_c, 9, 37, 80
13, 77570, Note_off_c, 9, 37, 64
13, 77570, Note_off_c, 9, 42, 64
13, 77696, Note_on_c, 9, 42, 50
13, 77746, Note_off_c, 9, 42, 64
13, 77760, Note_on_c, 9, 42, 80
13, 77810, Note_off_c, 9, 42, 64
13, 78000, Note_on_c, 9, 42, 90
13, 78000, Note_on_c, 9, 37, 70
13, 78050, Note_off_c, 9, 37, 64
13, 78050, Note_off_c, 9, 42, 64
13, 78174, Note_on_c, 9, 42, 50
13, 78224, Note_off_c, 9, 42, 64
13, 78240, Note_on_c, 9, 42, 80
13, 78290, Note_off_c, 9, 42, 64
13, 78414, Note_on_c, 9, 38, 30
13, 78464, Note_off_c, 9, 38, 64
13, 78480, Note_on_c, 9, 38, 55
13, 78480, Note_on_c, 9, 42, 90
13, 78480, Note_on_c, 9, 37, 85
13, 78530, Note_off_c, 9, 37, 64
13, 78530, Note_off_c, 9, 42, 64
13, 78530, Note_off_c, 9, 38, 64
13, 78654, Note_on_c, 9, 42, 50
13, 78704, Note_off_c, 9, 42, 64
13, 78720, Note_on_c, 9, 51, 70
13, 78770, Note_off_c, 9, 51, 64
13, 78960, Note_on_c, 9, 42, 100
13, 78960, Note_on_c, 9, 37, 70
13, 78960, Note_on_c, 9, 51, 90
13, 79010, Note_off_c, 9, 51, 64
13, 79010, Note_off_c, 9, 37, 64
13, 79010, Note_off_c, 9, 42, 64
13, 79134, Note_on_c, 9, 38, 40
13, 79134, Note_on_c, 9, 51, 50
13, 79184, Note_off_c, 9, 51, 64
13, 79184, Note_off_c, 9, 38, 64
13, 79200, Note_on_c, 9, 51, 80
13, 79250, Note_off_c, 9, 51, 64
13, 79440, Note_on_c, 9, 42, 100
13, 79440, Note_on_c, 9, 37, 70
13, 79440, Note_on_c, 9, 51, 90
13, 79490, Note_off_c, 9, 51, 64
13, 79490, Note_off_c, 9, 37, 64
13, 79490, Note_off_c, 9, 42, 64
13, 79614, Note_on_c, 9, 38, 40
13, 79614, Note_on_c, 9, 51, 50
13, 79664, Note_off_c, 9, 51, 64
13, 79664, Note_off_c, 9, 38, 64
13, 79680, Note_on_c, 9, 51, 80
13, 79730, Note_off_c, 9, 51, 64
13, 79920, Note_on_c, 9, 42, 70
13, 79920, Note_on_c, 9, 37, 70
13, 79920, Note_on_c, 9, 51, 90
13, 79970, Note_off_c, 9, 51, 64
13, 79970, Note_off_c, 9, 37, 64
13, 79970, Note_off_c, 9, 42, 64
13, 80094, Note_on_c, 9, 51, 70
13, 80144, Note_off_c, 9, 51, 64
13, 80160, Note_on_c, 9, 51, 90
13, 80210, Note_off_c, 9, 51, 64
13, 80400, Note_on_c, 9, 42, 100
13, 80400, Note_on_c, 9, 51, 90
13, 80450, Note_off_c, 9, 51, 64
13, 80450, Note_off_c, 9, 42, 64
13, 80574, Note_on_c, 9, 51, 70
13, 80624, Note_off_c, 9, 51, 64
13, 80640, Note_on_c, 9, 51, 70
13, 80690, Note_off_c, 9, 51, 64
13, 80880, Note_on_c, 9, 42, 90
13, 80880, Note_on_c, 9, 37, 60
13, 80880, Note_on_c, 9, 51, 90
13, 80930, Note_off_c, 9, 51, 64
13, 80930, Note_off_c, 9, 37, 64
13, 80930, Note_off_c, 9, 42, 64
13, 81056, Note_on_c, 9, 38, 40
13, 81056, Note_on_c, 9, 51, 70
13, 81106, Note_off_c, 9, 51, 64
13, 81106, Note_off_c, 9, 38, 64
13, 81120, Note_on_c, 9, 51, 80
13, 81170, Note_off_c, 9, 51, 64
13, 81360, Note_on_c, 9, 42, 100
13, 81360, Note_on_c, 9, 37, 70
13, 81360, Note_on_c, 9, 51, 90
13, 81410, Note_off_c, 9, 51, 64
13, 81410, Note_off_c, 9, 37, 64
13, 81410, Note_off_c, 9, 42, 64
13, 81536, Note_on_c, 9, 51, 70
13, 81586, Note_off_c, 9, 51, 64
13, 81600, Note_on_c, 9, 51, 80
13, 81650, Note_off_c, 9, 51, 64
13, 81840, Note_on_c, 9, 42, 70
13, 81840, Note_on_c, 9, 37, 70
13, 81840, Note_on_c, 9, 51, 90
13, 81890, Note_off_c, 9, 51, 64
13, 81890, Note_off_c, 9, 37, 64
13, 81890, Note_off_c, 9, 42, 64
13, 82014, Note_on_c, 9, 51, 70
13, 82064, Note_off_c, 9, 51, 64
13, 82080, Note_on_c, 9, 51, 90
13, 82130, Note_off_c, 9, 51, 64
13, 82320, Note_on_c, 9, 42, 100
13, 82320, Note_on_c, 9, 51, 90
13, 82370, Note_off_c, 9, 51, 64
13, 82370, Note_off_c, 9, 42, 64
13, 82494, Note_on_c, 9, 51, 70
13, 82544, Note_off_c, 9, 51, 64
13, 82560, Note_on_c, 9, 51, 70
13, 82610, Note_off_c, 9, 51, 64
13, 82800, Note_on_c, 9, 42, 90
13, 82800, Note_on_c, 9, 37, 60
13, 82800, Note_on_c, 9, 51, 90
13, 82850, Note_off_c, 9, 51, 64
13, 82850, Note_off_c, 9, 37, 64
13, 82850, Note_off_c, 9, 42, 64
13, 82976, Note_on_c, 9, 38, 40
13, 82976, Note_on_c, 9, 51, 70
13, 83026, Note_off_c, 9, 51, 64
13, 83026, Note_off_c, 9, 38, 64
13, 83040, Note_on_c, 9, 51, 80
13, 83090, Note_off_c, 9, 51, 64
13, 83280, Note_on_c, 9, 42, 100
13, 83280, Note_on_c, 9, 37, 70
13, 83280, Note_on_c, 9, 51, 90
13, 83330, Note_off_c, 9, 51, 64
13, 83330, Note_off_c, 9, 37, 64
13, 83330, Note_off_c, 9, 42, 64
13, 83456, Note_on_c, 9, 51, 70
13, 83506, Note_off_c, 9, 51, 64
13, 83520, Note_on_c, 9, 51, 80
13, 83570, Note_off_c, 9, 51, 64
13, 83760, Note_on_c, 9, 42, 80
13, 83760, Note_on_c, 9, 37, 70
13, 83760, Note_on_c, 9, 51, 90
13, 83810, Note_off_c, 9, 51, 64
13, 83810, Note_off_c, 9, 37, 64
13, 83810, Note_off_c, 9, 42, 64
13, 83936, Note_on_c, 9, 38, 30
13, 83936, Note_on_c, 9, 51, 70
13, 83986, Note_off_c, 9, 51, 64
13, 83986, Note_off_c, 9, 38, 64
13, 84000, Note_on_c, 9, 38, 40
13, 84000, Note_on_c, 9, 51, 80
13, 84050, Note_off_c, 9, 51, 64
13, 84050, Note_off_c, 9, 38, 64
13, 84240, Note_on_c, 9, 42, 100
13, 84240, Note_on_c, 9, 37, 70
13, 84240, Note_on_c, 9, 51, 90
13, 84290, Note_off_c, 9, 51, 64
13, 84290, Note_off_c, 9, 37, 64
13, 84290, Note_off_c, 9, 42, 64
13, 84416, Note_on_c, 9, 51, 70
13, 84466, Note_off_c, 9, 51, 64
13, 84480, Note_on_c, 9, 51, 80
13, 84530, Note_off_c, 9, 51, 64
13, 84720, Note_on_c, 9, 42, 80
13, 84720, Note_on_c, 9, 37, 70
13, 84720, Note_on_c, 9, 51, 90
13, 84770, Note_off_c, 9, 51, 64
13, 84770, Note_off_c, 9, 37, 64
13, 84770, Note_off_c, 9, 42, 64
13, 84896, Note_on_c, 9, 38, 30
13, 84896, Note_on_c, 9, 51, 70
13, 84946, Note_off_c, 9, 51, 64
13, 84946, Note_off_c, 9, 38, 64
13, 84960, Note_on_c, 9, 38, 40
13, 84960, Note_on_c, 9, 51, 80
13, 85010, Note_off_c, 9, 51, 64
13, 85010, Note_off_c, 9, 38, 64
13, 85200, Note_on_c, 9, 42, 100
13, 85200, Note_on_c, 9, 37, 70
13, 85200, Note_on_c, 9, 51, 90
13, 85250, Note_off_c, 9, 51, 64
13, 85250, Note_off_c, 9, 37, 64
13, 85250, Note_off_c, 9, 42, 64
13, 85376, Note_on_c, 9, 51, 70
13, 85426, Note_off_c, 9, 51, 64
13, 85440, Note_on_c, 9, 38, 70
13, 85440, Note_on_c, 9, 51, 70
13, 85490, Note_off_c, 9, 51, 64
13, 85490, Note_off_c, 9, 38, 64
13, 85604, Note_on_c, 9, 35, 80
13, 85654, Note_off_c, 9, 35, 64
13, 85680, Note_on_c, 9, 42, 70
13, 85680, Note_on_c, 9, 51, 90
13, 85730, Note_off_c, 9, 51, 64
13, 85730, Note_off_c, 9, 42, 64
13, 85844, Note_on_c, 9, 38, 80
13, 85894, Note_off_c, 9, 38, 64
13, 85920, Note_on_c, 9, 35, 90
13, 85920, Note_on_c, 9, 51, 80
13, 85970, Note_off_c, 9, 51, 64
13, 85970, Note_off_c, 9, 35, 64
13, 86084, Note_on_c, 9, 38, 60
13, 86134, Note_off_c, 9, 38, 64
13, 86160, Note_on_c, 9, 42, 100
13, 86160, Note_on_c, 9, 51, 90
13, 86210, Note_off_c, 9, 51, 64
13, 86210, Note_off_c, 9, 42, 64
13, 86240, Note_on_c, 9, 38, 40
13, 86290, Note_off_c, 9, 38, 64
13, 86324, Note_on_c, 9, 38, 40
13, 86324, Note_on_c, 9, 45, 70
13, 86374, Note_off_c, 9, 45, 64
13, 86374, Note_off_c, 9, 38, 64
13, 86400, Note_on_c, 9, 51, 80
13, 86450, Note_off_c, 9, 51, 64
13, 86640, Note_on_c, 9, 42, 80
13, 86640, Note_on_c, 9, 37, 70
13, 86640, Note_on_c, 9, 51, 90
13, 86690, Note_off_c, 9, 51, 64
13, 86690, Note_off_c, 9, 37, 64
13, 86690, Note_off_c, 9, 42, 64
13, 86816, Note_on_c, 9, 38, 30
13, 86816, Note_on_c, 9, 51, 70
13, 86866, Note_off_c, 9, 51, 64
13, 86866, Note_off_c, 9, 38, 64
13, 86880, Note_on_c, 9, 38, 40
13, 86880, Note_on_c, 9, 51, 80
13, 86930, Note_off_c, 9, 51, 64
13, 86930, Note_off_c, 9, 38, 64
13, 87120, Note_on_c, 9, 42, 100
13, 87120, Note_on_c, 9, 37, 70
13, 87120, Note_on_c, 9, 51, 90
13, 87170, Note_off_c, 9, 51, 64
13, 87170, Note_off_c, 9, 37, 64
13, 87170, Note_off_c, 9, 42, 64
13, 87296, Note_on_c, 9, 51, 70
13, 87346, Note_off_c, 9, 51, 64
13, 87360, Note_on_c, 9, 51, 80
13, 87410, Note_off_c, 9, 51, 64
13, 87600, Note_on_c, 9, 42, 80
13, 87600, Note_on_c, 9, 37, 70
13, 87600, Note_on_c, 9, 51, 90
13, 87650, Note_off_c, 9, 51, 64
13, 87650, Note_off_c, 9, 37, 64
13, 87650, Note_off_c, 9, 42, 64
13, 87776, Note_on_c, 9, 38, 30
13, 87776, Note_on_c, 9, 51, 70
13, 87826, Note_off_c, 9, 51, 64
13, 87826, Note_off_c, 9, 38, 64
13, 87840, Note_on_c, 9, 38, 40
13, 87840, Note_on_c, 9, 51, 80
13, 87890, Note_off_c, 9, 51, 64
13, 87890, Note_off_c, 9, 38, 64
13, 88080, Note_on_c, 9, 42, 100
13, 88080, Note_on_c, 9, 37, 70
13, 88080, Note_on_c, 9, 51, 90
13, 88130, Note_off_c, 9, 51, 64
13, 88130, Note_off_c, 9, 37, 64
13, 88130, Note_off_c, 9, 42, 64
13, 88256, Note_on_c, 9, 51, 70
13, 88306, Note_off_c, 9, 51, 64
13, 88320, Note_on_c, 9, 51, 70
13, 88370, Note_off_c, 9, 51, 64
13, 88496, Note_on_c, 9, 38, 60
13, 88546, Note_off_c, 9, 38, 64
13, 88560, Note_on_c, 9, 42, 90
13, 88560, Note_on_c, 9, 37, 60
13, 88560, Note_on_c, 9, 51, 90
13, 88610, Note_off_c, 9, 51, 64
13, 88610, Note_off_c, 9, 37, 64
13, 88610, Note_off_c, 9, 42, 64
13, 88736, Note_on_c, 9, 38, 40
13, 88736, Note_on_c, 9, 51, 70
13, 88786, Note_off_c, 9, 51, 64
13, 88786, Note_off_c, 9, 38, 64
13, 88800, Note_on_c, 9, 51, 80
13, 88850, Note_off_c, 9, 51, 64
13, 89040, Note_on_c, 9, 42, 100
13, 89040, Note_on_c, 9, 37, 70
13, 89040, Note_on_c, 9, 51, 90
13, 89090, Note_off_c, 9, 51, 64
13, 89090, Note_off_c, 9, 37, 64
13, 89090, Note_off_c, 9, 42, 64
13, 89216, Note_on_c, 9, 51, 70
13, 89266, Note_off_c, 9, 51, 64
13, 89280, Note_on_c, 9, 51, 80
13, 89330, Note_off_c, 9, 51, 64
13, 89520, Note_on_c, 9, 42, 80
13, 89520, Note_on_c, 9, 37, 70
13, 89520, Note_on_c, 9, 51, 100
13, 89570, Note_off_c, 9, 51, 64
13, 89570, Note_off_c, 9, 37, 64
13, 89570, Note_off_c, 9, 42, 64
13, 89696, Note_on_c, 9, 38, 40
13, 89696, Note_on_c, 9, 51, 70
13, 89746, Note_off_c, 9, 51, 64
13, 89746, Note_off_c, 9, 38, 64
13, 89760, Note_on_c, 9, 51, 80
13, 89810, Note_off_c, 9, 51, 64
13, 89936, Note_on_c, 9, 38, 60
13, 89936, Note_on_c, 9, 51, 50
13, 89986, Note_off_c, 9, 51, 64
13, 89986, Note_off_c, 9, 38, 64
13, 90000, Note_on_c, 9, 42, 100
13, 90000, Note_on_c, 9, 37, 80
13, 90000, Note_on_c, 9, 51, 90
13, 90050, Note_off_c, 9, 51, 64
13, 90050, Note_off_c, 9, 37, 64
13, 90050, Note_off_c, 9, 42, 64
13, 90176, Note_on_c, 9, 38, 50
13, 90176, Note_on_c, 9, 51, 70
13, 90226, Note_off_c, 9, 51, 64
13, 90226, Note_off_c, 9, 38, 64
13, 90240, Note_on_c, 9, 51, 70
13, 90290, Note_off_c, 9, 51, 64
13, 90416, Note_on_c, 9, 38, 60
13, 90466, Note_off_c, 9, 38, 64
13, 90480, Note_on_c, 9, 42, 90
13, 90480, Note_on_c, 9, 37, 60
13, 90480, Note_on_c, 9, 51, 90
13, 90530, Note_off_c, 9, 51, 64
13, 90530, Note_off_c, 9, 37, 64
13, 90530, Note_off_c, 9, 42, 64
13, 90656, Note_on_c, 9, 38, 40
13, 90656, Note_on_c, 9, 51, 70
13, 90706, Note_off_c, 9, 51, 64
13, 90706, Note_off_c, 9, 38, 64
13, 90720, Note_on_c, 9, 51, 80
13, 90770, Note_off_c, 9, 51, 64
13, 90960, Note_on_c, 9, 42, 100
13, 90960, Note_on_c, 9, 37, 70
13, 90960, Note_on_c, 9, 51, 90
13, 91010, Note_off_c, 9, 51, 64
13, 91010, Note_off_c, 9, 37, 64
13, 91010, Note_off_c, 9, 42, 64
13, 91136, Note_on_c, 9, 51, 70
13, 91186, Note_off_c, 9, 51, 64
13, 91200, Note_on_c, 9, 51, 80
13, 91250, Note_off_c, 9, 51, 64
13, 91440, Note_on_c, 9, 42, 80
13, 91440, Note_on_c, 9, 37, 70
13, 91440, Note_on_c, 9, 51, 90
13, 91490, Note_off_c, 9, 51, 64
13, 91490, Note_off_c, 9, 37, 64
13, 91490, Note_off_c, 9, 42, 64
13, 91616, Note_on_c, 9, 51, 70
13, 91666, Note_off_c, 9, 51, 64
13, 91680, Note_on_c, 9, 38, 40
13, 91680, Note_on_c, 9, 51, 80
13, 91730, Note_off_c, 9, 51, 64
13, 91730, Note_off_c, 9, 38, 64
13, 91856, Note_on_c, 9, 38, 40
13, 91906, Note_off_c, 9, 38, 64
13, 91920, Note_on_c, 9, 42, 100
13, 91920, Note_on_c, 9, 37, 70
13, 91920, Note_on_c, 9, 51, 90
13, 91970, Note_off_c, 9, 51, 64
13, 91970, Note_off_c, 9, 37, 64
13, 91970, Note_off_c, 9, 42, 64
13, 92096, Note_on_c, 9, 51, 70
13, 92146, Note_off_c, 9, 51, 64
13, 92160, Note_on_c, 9, 51, 70
13, 92210, Note_off_c, 9, 51, 64
13, 92400, Note_on_c, 9, 42, 100
13, 92400, Note_on_c, 9, 37, 70
13, 92400, Note_on_c, 9, 51, 90
13, 92450, Note_off_c, 9, 51, 64
13, 92450, Note_off_c, 9, 37, 64
13, 92450, Note_off_c, 9, 42, 64
13, 92574, Note_on_c, 9, 38, 40
13, 92574, Note_on_c, 9, 51, 50
13, 92624, Note_off_c, 9, 51, 64
13, 92624, Note_off_c, 9, 38, 64
13, 92640, Note_on_c, 9, 51, 80
13, 92690, Note_off_c, 9, 51, 64
13, 92880, Note_on_c, 9, 42, 100
13, 92880, Note_on_c, 9, 37, 70
13, 92880, Note_on_c, 9, 51, 90
13, 92930, Note_off_c, 9, 51, 64
13, 92930, Note_off_c, 9, 37, 64
13, 92930, Note_off_c, 9, 42, 64
13, 93054, Note_on_c, 9, 38, 40
13, 93054, Note_on_c, 9, 51, 50
13, 93104, Note_off_c, 9, 51, 64
13, 93104, Note_off_c, 9, 38, 64
13, 93120, Note_on_c, 9, 35, 70
13, 93120, Note_on_c, 9, 51, 70
13, 93170, Note_off_c, 9, 51, 64
13, 93170, Note_off_c, 9, 35, 64
13, 93360, Note_on_c, 9, 42, 90
13, 93360, Note_on_c, 9, 37, 60
13, 93360, Note_on_c, 9, 51, 90
13, 93410, Note_off_c, 9, 51, 64
13, 93410, Note_off_c, 9, 37, 64
13, 93410, Note_off_c, 9, 42, 64
13, 93536, Note_on_c, 9, 38, 50
13, 93536, Note_on_c, 9, 51, 70
13, 93586, Note_off_c, 9, 51, 64
13, 93586, Note_off_c, 9, 38, 64
13, 93600, Note_on_c, 9, 51, 80
13, 93650, Note_off_c, 9, 51, 64
13, 93776, Note_on_c, 9, 38, 60
13, 93776, Note_on_c, 9, 46, 40
13, 93826, Note_off_c, 9, 46, 64
13, 93826, Note_off_c, 9, 38, 64
13, 93840, Note_on_c, 9, 42, 100
13, 93840, Note_on_c, 9, 37, 100
13, 93840, Note_on_c, 9, 51, 90
13, 93890, Note_off_c, 9, 51, 64
13, 93890, Note_off_c, 9, 37, 64
13, 93890, Note_off_c, 9, 42, 64
13, 94016, Note_on_c, 9, 35, 60
13, 94016, Note_on_c, 9, 38, 70
13, 94016, Note_on_c, 9, 51, 70
13, 94066, Note_off_c, 9, 51, 64
13, 94066, Note_off_c, 9, 38, 64
13, 94066, Note_off_c, 9, 35, 64
13, 94080, Note_on_c, 9, 35, 60
13, 94080, Note_on_c, 9, 49, 30
13, 94130, Note_off_c, 9, 49, 64
13, 94130, Note_off_c, 9, 35, 64
13, 94252, Note_on_c, 9, 38, 50
13, 94302, Note_off_c, 9, 38, 64
13, 94320, Note_on_c, 9, 42, 80
13, 94370, Note_off_c, 9, 42, 64
13, 94492, Note_on_c, 9, 38, 40
13, 94542, Note_off_c, 9, 38, 64
13, 94560, Note_on_c, 9, 42, 70
13, 94610, Note_off_c, 9, 42, 64
13, 94732, Note_on_c, 9, 38, 60
13, 94782, Note_off_c, 9, 38, 64
13, 94800, Note_on_c, 9, 46, 80
13, 94850, Note_off_c, 9, 46, 64
13, 94880, Note_on_c, 9, 38, 30
13, 94930, Note_off_c, 9, 38, 64
13, 94972, Note_on_c, 9, 38, 40
13, 95022, Note_off_c, 9, 38, 64
13, 95040, Note_on_c, 9, 35, 70
13, 95040, Note_on_c, 9, 38, 70
13, 95090, Note_off_c, 9, 38, 64
13, 95090, Note_off_c, 9, 35, 64
13, 95200, Note_on_c, 9, 35, 60
13, 95250, Note_off_c, 9, 35, 64
13, 95280, Note_on_c, 9, 38, 60
13, 95330, Note_off_c, 9, 38, 64
13, 95440, Note_on_c, 9, 35, 50
13, 95440, Note_on_c, 9, 38, 70
13, 95490, Note_off_c, 9, 38, 64
13, 95490, Note_off_c, 9, 35, 64
13, 95760, Note_on_c, 9, 35, 80
13, 95810, Note_off_c, 9, 35, 64
13, 95810, End_track
14, 0, Start_track
14, 0, End_track
15, 0, Start_track
15, 0, Title_t, "All instr/Roland Sound Canvas"
15, 0, End_track
16, 0, Start_track
16, 0, Title_t, "GS/GMidi type1/Freely distrib."
16, 0, End_track
17, 0, Start_track
17, 0, Title_t, "DO NOT! attempt to sell this"
17, 0, End_track
18, 0, Start_track
18, 0, Title_t, "copyright tune"
18, 0, End_track
19, 0, Start_track
19, 0, Title_t, "email:melvinwebb@earthlink.net"
19, 0, End_track
20, 0, Start_track
20, 0, Title_t, "Run time 4:38 / Ez listening"
20, 0, End_track
21, 0, Start_track
21, 0, Title_t, "OCT 24 / 98"
21, 0, End_track
0, 0, End_of_file
