0, 0, Header, 1, 7, 96
1, 0, Start_track
1, 0, Title_t, "untitled"
1, 0, System_exclusive, 5, 126, 127, 9, 1, 247
1, 1, System_exclusive, 10, 65, 16, 66, 18, 64, 0, 127, 0, 65, 247
1, 1, Time_signature, 4, 2, 24, 8
1, 1, Key_signature, -1, "major"
1, 1, Tempo, 571429
1, 1, End_track
2, 0, Start_track
2, 103, Program_c, 1, 0
2, 104, Control_c, 1, 7, 60
2, 384, Control_c, 1, 121, 0
2, 384, Control_c, 1, 91, 40
2, 384, Control_c, 1, 7, 80
2, 768, Note_on_c, 1, 48, 112
2, 800, Note_on_c, 1, 43, 112
2, 802, Note_on_c, 1, 48, 0
2, 832, Note_on_c, 1, 36, 112
2, 834, Note_on_c, 1, 43, 0
2, 862, Note_on_c, 1, 36, 0
2, 864, Note_on_c, 1, 36, 112
2, 954, Note_on_c, 1, 36, 0
2, 960, Note_on_c, 1, 38, 112
2, 1051, Note_on_c, 1, 38, 0
2, 1056, Note_on_c, 1, 40, 112
2, 1140, Note_on_c, 1, 40, 0
2, 1152, Note_on_c, 1, 41, 112
2, 1283, Note_on_c, 1, 41, 0
2, 1312, Note_on_c, 1, 41, 112
2, 1344, Note_on_c, 1, 36, 112
2, 1351, Note_on_c, 1, 41, 0
2, 1529, Note_on_c, 1, 36, 0
2, 1536, Note_on_c, 1, 41, 112
2, 1660, Note_on_c, 1, 41, 0
2, 1696, Note_on_c, 1, 41, 112
2, 1728, Note_on_c, 1, 36, 112
2, 1730, Note_on_c, 1, 41, 0
2, 1823, Note_on_c, 1, 36, 0
2, 1824, Note_on_c, 1, 41, 112
2, 1916, Note_on_c, 1, 41, 0
2, 1920, Note_on_c, 1, 40, 112
2, 2027, Note_on_c, 1, 40, 0
2, 2080, Note_on_c, 1, 40, 112
2, 2112, Note_on_c, 1, 40, 0
2, 2112, Note_on_c, 1, 45, 112
2, 2222, Note_on_c, 1, 45, 0
2, 2240, Note_on_c, 1, 45, 112
2, 2271, Note_on_c, 1, 45, 0
2, 2272, Note_on_c, 1, 40, 112
2, 2304, Note_on_c, 1, 33, 112
2, 2306, Note_on_c, 1, 40, 0
2, 2427, Note_on_c, 1, 33, 0
2, 2464, Note_on_c, 1, 33, 112
2, 2496, Note_on_c, 1, 45, 112
2, 2504, Note_on_c, 1, 33, 0
2, 2588, Note_on_c, 1, 45, 0
2, 2592, Note_on_c, 1, 40, 112
2, 2681, Note_on_c, 1, 40, 0
2, 2688, Note_on_c, 1, 38, 112
2, 2794, Note_on_c, 1, 38, 0
2, 2848, Note_on_c, 1, 38, 112
2, 2880, Note_on_c, 1, 45, 112
2, 2885, Note_on_c, 1, 38, 0
2, 3031, Note_on_c, 1, 45, 0
2, 3040, Note_on_c, 1, 33, 112
2, 3072, Note_on_c, 1, 38, 112
2, 3075, Note_on_c, 1, 33, 0
2, 3192, Note_on_c, 1, 38, 0
2, 3232, Note_on_c, 1, 38, 112
2, 3264, Note_on_c, 1, 45, 112
2, 3267, Note_on_c, 1, 38, 0
2, 3360, Note_on_c, 1, 45, 0
2, 3360, Note_on_c, 1, 38, 112
2, 3450, Note_on_c, 1, 38, 0
2, 3456, Note_on_c, 1, 43, 112
2, 3592, Note_on_c, 1, 43, 0
2, 3616, Note_on_c, 1, 43, 112
2, 3648, Note_on_c, 1, 43, 0
2, 3648, Note_on_c, 1, 38, 112
2, 3819, Note_on_c, 1, 38, 0
2, 3840, Note_on_c, 1, 43, 112
2, 3978, Note_on_c, 1, 43, 0
2, 4000, Note_on_c, 1, 43, 112
2, 4032, Note_on_c, 1, 38, 112
2, 4035, Note_on_c, 1, 43, 0
2, 4123, Note_on_c, 1, 38, 0
2, 4128, Note_on_c, 1, 43, 112
2, 4196, Note_on_c, 1, 43, 0
2, 4224, Note_on_c, 1, 36, 112
2, 4356, Note_on_c, 1, 36, 0
2, 4384, Note_on_c, 1, 36, 112
2, 4416, Note_on_c, 1, 43, 112
2, 4422, Note_on_c, 1, 36, 0
2, 4524, Note_on_c, 1, 43, 0
2, 4544, Note_on_c, 1, 43, 112
2, 4576, Note_on_c, 1, 43, 0
2, 4576, Note_on_c, 1, 40, 105
2, 4608, Note_on_c, 1, 36, 112
2, 4609, Note_on_c, 1, 40, 0
2, 4730, Note_on_c, 1, 36, 0
2, 4768, Note_on_c, 1, 36, 112
2, 4800, Note_on_c, 1, 43, 112
2, 4807, Note_on_c, 1, 36, 0
2, 4895, Note_on_c, 1, 43, 0
2, 4896, Note_on_c, 1, 36, 112
2, 4950, Note_on_c, 1, 36, 0
2, 4992, Note_on_c, 1, 41, 112
2, 5128, Note_on_c, 1, 41, 0
2, 5152, Note_on_c, 1, 41, 112
2, 5182, Note_on_c, 1, 41, 0
2, 5184, Note_on_c, 1, 36, 112
2, 5366, Note_on_c, 1, 36, 0
2, 5376, Note_on_c, 1, 41, 112
2, 5507, Note_on_c, 1, 41, 0
2, 5536, Note_on_c, 1, 41, 112
2, 5568, Note_on_c, 1, 36, 112
2, 5570, Note_on_c, 1, 41, 0
2, 5653, Note_on_c, 1, 36, 0
2, 5664, Note_on_c, 1, 41, 112
2, 5698, Note_on_c, 1, 41, 0
2, 5760, Note_on_c, 1, 43, 112
2, 5887, Note_on_c, 1, 43, 0
2, 5920, Note_on_c, 1, 43, 112
2, 5952, Note_on_c, 1, 36, 112
2, 5953, Note_on_c, 1, 43, 0
2, 6110, Note_on_c, 1, 36, 0
2, 6144, Note_on_c, 1, 50, 112
2, 6168, Note_on_c, 1, 50, 0
2, 6208, Note_on_c, 1, 43, 112
2, 6240, Note_on_c, 1, 38, 112
2, 6247, Note_on_c, 1, 43, 0
2, 6329, Note_on_c, 1, 38, 0
2, 6336, Note_on_c, 1, 45, 112
2, 6432, Note_on_c, 1, 47, 112
2, 6436, Note_on_c, 1, 45, 0
2, 6509, Note_on_c, 1, 47, 0
2, 6528, Note_on_c, 1, 36, 112
2, 6712, Note_on_c, 1, 36, 0
2, 6720, Note_on_c, 1, 43, 112
2, 6858, Note_on_c, 1, 43, 0
2, 6880, Note_on_c, 1, 43, 112
2, 6909, Note_on_c, 1, 43, 0
2, 6912, Note_on_c, 1, 48, 112
2, 6937, Note_on_c, 1, 48, 0
2, 7008, Note_on_c, 1, 36, 112
2, 7104, Note_on_c, 1, 36, 0
2, 7104, Note_on_c, 1, 38, 112
2, 7198, Note_on_c, 1, 38, 0
2, 7200, Note_on_c, 1, 40, 112
2, 7260, Note_on_c, 1, 40, 0
2, 7296, Note_on_c, 1, 41, 112
2, 7427, Note_on_c, 1, 41, 0
2, 7456, Note_on_c, 1, 41, 112
2, 7488, Note_on_c, 1, 36, 112
2, 7495, Note_on_c, 1, 41, 0
2, 7673, Note_on_c, 1, 36, 0
2, 7680, Note_on_c, 1, 41, 112
2, 7804, Note_on_c, 1, 41, 0
2, 7840, Note_on_c, 1, 41, 112
2, 7872, Note_on_c, 1, 36, 112
2, 7874, Note_on_c, 1, 41, 0
2, 7967, Note_on_c, 1, 36, 0
2, 7968, Note_on_c, 1, 41, 112
2, 8060, Note_on_c, 1, 41, 0
2, 8064, Note_on_c, 1, 40, 112
2, 8171, Note_on_c, 1, 40, 0
2, 8224, Note_on_c, 1, 40, 112
2, 8256, Note_on_c, 1, 40, 0
2, 8256, Note_on_c, 1, 45, 112
2, 8366, Note_on_c, 1, 45, 0
2, 8384, Note_on_c, 1, 45, 112
2, 8415, Note_on_c, 1, 45, 0
2, 8416, Note_on_c, 1, 40, 112
2, 8448, Note_on_c, 1, 33, 112
2, 8450, Note_on_c, 1, 40, 0
2, 8571, Note_on_c, 1, 33, 0
2, 8608, Note_on_c, 1, 33, 112
2, 8640, Note_on_c, 1, 45, 112
2, 8648, Note_on_c, 1, 33, 0
2, 8732, Note_on_c, 1, 45, 0
2, 8736, Note_on_c, 1, 40, 112
2, 8825, Note_on_c, 1, 40, 0
2, 8832, Note_on_c, 1, 38, 112
2, 8938, Note_on_c, 1, 38, 0
2, 8992, Note_on_c, 1, 38, 112
2, 9024, Note_on_c, 1, 45, 112
2, 9029, Note_on_c, 1, 38, 0
2, 9175, Note_on_c, 1, 45, 0
2, 9184, Note_on_c, 1, 33, 112
2, 9216, Note_on_c, 1, 38, 112
2, 9219, Note_on_c, 1, 33, 0
2, 9336, Note_on_c, 1, 38, 0
2, 9376, Note_on_c, 1, 38, 112
2, 9408, Note_on_c, 1, 45, 112
2, 9411, Note_on_c, 1, 38, 0
2, 9504, Note_on_c, 1, 45, 0
2, 9504, Note_on_c, 1, 38, 112
2, 9594, Note_on_c, 1, 38, 0
2, 9600, Note_on_c, 1, 43, 112
2, 9734, Note_on_c, 1, 43, 0
2, 9760, Note_on_c, 1, 43, 112
2, 9790, Note_on_c, 1, 43, 0
2, 9792, Note_on_c, 1, 45, 112
2, 9928, Note_on_c, 1, 45, 0
2, 9952, Note_on_c, 1, 45, 112
2, 9984, Note_on_c, 1, 45, 0
2, 9984, Note_on_c, 1, 46, 112
2, 10130, Note_on_c, 1, 46, 0
2, 10144, Note_on_c, 1, 48, 112
2, 10176, Note_on_c, 1, 50, 112
2, 10182, Note_on_c, 1, 48, 0
2, 10240, Note_on_c, 1, 38, 112
2, 10243, Note_on_c, 1, 50, 0
2, 10272, Note_on_c, 1, 50, 112
2, 10277, Note_on_c, 1, 38, 0
2, 10319, Note_on_c, 1, 50, 0
2, 10368, Note_on_c, 1, 43, 112
2, 10547, Note_on_c, 1, 43, 0
2, 10560, Note_on_c, 1, 43, 112
2, 10749, Note_on_c, 1, 43, 0
2, 10752, Note_on_c, 1, 37, 112
2, 10921, Note_on_c, 1, 37, 0
2, 10944, Note_on_c, 1, 37, 112
2, 11110, Note_on_c, 1, 37, 0
2, 11136, Note_on_c, 1, 36, 112
2, 11308, Note_on_c, 1, 36, 0
2, 11328, Note_on_c, 1, 36, 112
2, 11516, Note_on_c, 1, 36, 0
2, 11520, Note_on_c, 1, 38, 112
2, 11690, Note_on_c, 1, 38, 0
2, 11712, Note_on_c, 1, 38, 112
2, 11865, Note_on_c, 1, 38, 0
2, 11904, Note_on_c, 1, 43, 112
2, 12044, Note_on_c, 1, 43, 0
2, 12064, Note_on_c, 1, 43, 112
2, 12096, Note_on_c, 1, 38, 112
2, 12104, Note_on_c, 1, 43, 0
2, 12184, Note_on_c, 1, 38, 0
2, 12192, Note_on_c, 1, 43, 112
2, 12284, Note_on_c, 1, 43, 0
2, 12288, Note_on_c, 1, 36, 112
2, 12404, Note_on_c, 1, 36, 0
2, 12416, Note_on_c, 1, 36, 112
2, 12448, Note_on_c, 1, 43, 112
2, 12450, Note_on_c, 1, 36, 0
2, 12480, Note_on_c, 1, 48, 99
2, 12484, Note_on_c, 1, 43, 0
2, 12512, Note_on_c, 1, 43, 112
2, 12520, Note_on_c, 1, 48, 0
2, 12544, Note_on_c, 1, 43, 0
2, 12576, Note_on_c, 1, 36, 112
2, 12634, Note_on_c, 1, 36, 0
2, 12672, Note_on_c, 1, 41, 112
2, 12820, Note_on_c, 1, 41, 0
2, 12832, Note_on_c, 1, 45, 112
2, 12864, Note_on_c, 1, 48, 112
2, 12870, Note_on_c, 1, 45, 0
2, 12955, Note_on_c, 1, 48, 0
2, 12960, Note_on_c, 1, 45, 112
2, 13024, Note_on_c, 1, 48, 112
2, 13026, Note_on_c, 1, 45, 0
2, 13054, Note_on_c, 1, 48, 0
2, 13056, Note_on_c, 1, 41, 112
2, 13187, Note_on_c, 1, 41, 0
2, 13216, Note_on_c, 1, 41, 112
2, 13248, Note_on_c, 1, 36, 112
2, 13255, Note_on_c, 1, 41, 0
2, 13433, Note_on_c, 1, 36, 0
2, 13440, Note_on_c, 1, 41, 112
2, 13564, Note_on_c, 1, 41, 0
2, 13600, Note_on_c, 1, 41, 112
2, 13632, Note_on_c, 1, 36, 112
2, 13634, Note_on_c, 1, 41, 0
2, 13727, Note_on_c, 1, 36, 0
2, 13728, Note_on_c, 1, 41, 112
2, 13820, Note_on_c, 1, 41, 0
2, 13824, Note_on_c, 1, 40, 112
2, 13931, Note_on_c, 1, 40, 0
2, 13984, Note_on_c, 1, 40, 112
2, 14016, Note_on_c, 1, 40, 0
2, 14016, Note_on_c, 1, 45, 112
2, 14126, Note_on_c, 1, 45, 0
2, 14144, Note_on_c, 1, 45, 112
2, 14175, Note_on_c, 1, 45, 0
2, 14176, Note_on_c, 1, 40, 112
2, 14208, Note_on_c, 1, 33, 112
2, 14210, Note_on_c, 1, 40, 0
2, 14331, Note_on_c, 1, 33, 0
2, 14368, Note_on_c, 1, 33, 112
2, 14400, Note_on_c, 1, 45, 112
2, 14408, Note_on_c, 1, 33, 0
2, 14492, Note_on_c, 1, 45, 0
2, 14496, Note_on_c, 1, 40, 112
2, 14585, Note_on_c, 1, 40, 0
2, 14592, Note_on_c, 1, 38, 112
2, 14698, Note_on_c, 1, 38, 0
2, 14752, Note_on_c, 1, 38, 112
2, 14784, Note_on_c, 1, 45, 112
2, 14789, Note_on_c, 1, 38, 0
2, 14935, Note_on_c, 1, 45, 0
2, 14944, Note_on_c, 1, 33, 112
2, 14976, Note_on_c, 1, 38, 112
2, 14979, Note_on_c, 1, 33, 0
2, 15096, Note_on_c, 1, 38, 0
2, 15136, Note_on_c, 1, 38, 112
2, 15168, Note_on_c, 1, 45, 112
2, 15171, Note_on_c, 1, 38, 0
2, 15264, Note_on_c, 1, 45, 0
2, 15264, Note_on_c, 1, 38, 112
2, 15354, Note_on_c, 1, 38, 0
2, 15360, Note_on_c, 1, 43, 112
2, 15496, Note_on_c, 1, 43, 0
2, 15520, Note_on_c, 1, 43, 112
2, 15552, Note_on_c, 1, 43, 0
2, 15552, Note_on_c, 1, 38, 112
2, 15723, Note_on_c, 1, 38, 0
2, 15744, Note_on_c, 1, 43, 112
2, 15882, Note_on_c, 1, 43, 0
2, 15904, Note_on_c, 1, 43, 112
2, 15936, Note_on_c, 1, 38, 112
2, 15939, Note_on_c, 1, 43, 0
2, 16027, Note_on_c, 1, 38, 0
2, 16032, Note_on_c, 1, 43, 112
2, 16100, Note_on_c, 1, 43, 0
2, 16128, Note_on_c, 1, 36, 112
2, 16260, Note_on_c, 1, 36, 0
2, 16288, Note_on_c, 1, 36, 112
2, 16320, Note_on_c, 1, 43, 112
2, 16326, Note_on_c, 1, 36, 0
2, 16428, Note_on_c, 1, 43, 0
2, 16448, Note_on_c, 1, 43, 112
2, 16480, Note_on_c, 1, 43, 0
2, 16480, Note_on_c, 1, 40, 105
2, 16512, Note_on_c, 1, 36, 112
2, 16513, Note_on_c, 1, 40, 0
2, 16634, Note_on_c, 1, 36, 0
2, 16672, Note_on_c, 1, 36, 112
2, 16704, Note_on_c, 1, 43, 112
2, 16711, Note_on_c, 1, 36, 0
2, 16799, Note_on_c, 1, 43, 0
2, 16800, Note_on_c, 1, 36, 112
2, 16854, Note_on_c, 1, 36, 0
2, 16896, Note_on_c, 1, 41, 112
2, 17032, Note_on_c, 1, 41, 0
2, 17056, Note_on_c, 1, 41, 112
2, 17086, Note_on_c, 1, 41, 0
2, 17088, Note_on_c, 1, 36, 112
2, 17270, Note_on_c, 1, 36, 0
2, 17280, Note_on_c, 1, 41, 112
2, 17411, Note_on_c, 1, 41, 0
2, 17440, Note_on_c, 1, 41, 112
2, 17472, Note_on_c, 1, 36, 112
2, 17474, Note_on_c, 1, 41, 0
2, 17557, Note_on_c, 1, 36, 0
2, 17568, Note_on_c, 1, 41, 112
2, 17602, Note_on_c, 1, 41, 0
2, 17664, Note_on_c, 1, 43, 112
2, 17791, Note_on_c, 1, 43, 0
2, 17824, Note_on_c, 1, 43, 112
2, 17856, Note_on_c, 1, 36, 112
2, 17857, Note_on_c, 1, 43, 0
2, 18014, Note_on_c, 1, 36, 0
2, 18048, Note_on_c, 1, 50, 112
2, 18072, Note_on_c, 1, 50, 0
2, 18112, Note_on_c, 1, 43, 112
2, 18144, Note_on_c, 1, 38, 112
2, 18151, Note_on_c, 1, 43, 0
2, 18233, Note_on_c, 1, 38, 0
2, 18240, Note_on_c, 1, 45, 112
2, 18336, Note_on_c, 1, 47, 112
2, 18340, Note_on_c, 1, 45, 0
2, 18413, Note_on_c, 1, 47, 0
2, 18432, Note_on_c, 1, 36, 112
2, 18616, Note_on_c, 1, 36, 0
2, 18624, Note_on_c, 1, 43, 112
2, 18762, Note_on_c, 1, 43, 0
2, 18784, Note_on_c, 1, 43, 112
2, 18813, Note_on_c, 1, 43, 0
2, 18816, Note_on_c, 1, 48, 112
2, 18841, Note_on_c, 1, 48, 0
2, 18912, Note_on_c, 1, 36, 112
2, 19008, Note_on_c, 1, 36, 0
2, 19008, Note_on_c, 1, 38, 112
2, 19102, Note_on_c, 1, 38, 0
2, 19104, Note_on_c, 1, 40, 112
2, 19164, Note_on_c, 1, 40, 0
2, 19200, Note_on_c, 1, 41, 112
2, 19331, Note_on_c, 1, 41, 0
2, 19360, Note_on_c, 1, 41, 112
2, 19392, Note_on_c, 1, 36, 112
2, 19399, Note_on_c, 1, 41, 0
2, 19577, Note_on_c, 1, 36, 0
2, 19584, Note_on_c, 1, 41, 112
2, 19708, Note_on_c, 1, 41, 0
2, 19744, Note_on_c, 1, 41, 112
2, 19776, Note_on_c, 1, 36, 112
2, 19778, Note_on_c, 1, 41, 0
2, 19871, Note_on_c, 1, 36, 0
2, 19872, Note_on_c, 1, 41, 112
2, 19964, Note_on_c, 1, 41, 0
2, 19968, Note_on_c, 1, 40, 112
2, 20075, Note_on_c, 1, 40, 0
2, 20128, Note_on_c, 1, 40, 112
2, 20160, Note_on_c, 1, 40, 0
2, 20160, Note_on_c, 1, 45, 112
2, 20270, Note_on_c, 1, 45, 0
2, 20288, Note_on_c, 1, 45, 112
2, 20319, Note_on_c, 1, 45, 0
2, 20320, Note_on_c, 1, 40, 112
2, 20352, Note_on_c, 1, 33, 112
2, 20354, Note_on_c, 1, 40, 0
2, 20475, Note_on_c, 1, 33, 0
2, 20512, Note_on_c, 1, 33, 112
2, 20544, Note_on_c, 1, 45, 112
2, 20552, Note_on_c, 1, 33, 0
2, 20636, Note_on_c, 1, 45, 0
2, 20640, Note_on_c, 1, 40, 112
2, 20729, Note_on_c, 1, 40, 0
2, 20736, Note_on_c, 1, 38, 112
2, 20842, Note_on_c, 1, 38, 0
2, 20896, Note_on_c, 1, 38, 112
2, 20928, Note_on_c, 1, 45, 112
2, 20933, Note_on_c, 1, 38, 0
2, 21079, Note_on_c, 1, 45, 0
2, 21088, Note_on_c, 1, 33, 112
2, 21120, Note_on_c, 1, 38, 112
2, 21123, Note_on_c, 1, 33, 0
2, 21240, Note_on_c, 1, 38, 0
2, 21280, Note_on_c, 1, 38, 112
2, 21312, Note_on_c, 1, 45, 112
2, 21315, Note_on_c, 1, 38, 0
2, 21408, Note_on_c, 1, 45, 0
2, 21408, Note_on_c, 1, 38, 112
2, 21498, Note_on_c, 1, 38, 0
2, 21504, Note_on_c, 1, 43, 112
2, 21638, Note_on_c, 1, 43, 0
2, 21664, Note_on_c, 1, 43, 112
2, 21694, Note_on_c, 1, 43, 0
2, 21696, Note_on_c, 1, 45, 112
2, 21832, Note_on_c, 1, 45, 0
2, 21856, Note_on_c, 1, 45, 112
2, 21888, Note_on_c, 1, 45, 0
2, 21888, Note_on_c, 1, 46, 112
2, 22034, Note_on_c, 1, 46, 0
2, 22048, Note_on_c, 1, 48, 112
2, 22080, Note_on_c, 1, 50, 112
2, 22086, Note_on_c, 1, 48, 0
2, 22144, Note_on_c, 1, 38, 112
2, 22147, Note_on_c, 1, 50, 0
2, 22176, Note_on_c, 1, 50, 112
2, 22181, Note_on_c, 1, 38, 0
2, 22223, Note_on_c, 1, 50, 0
2, 22272, Note_on_c, 1, 43, 112
2, 22451, Note_on_c, 1, 43, 0
2, 22464, Note_on_c, 1, 43, 112
2, 22653, Note_on_c, 1, 43, 0
2, 22656, Note_on_c, 1, 37, 112
2, 22825, Note_on_c, 1, 37, 0
2, 22848, Note_on_c, 1, 37, 112
2, 23014, Note_on_c, 1, 37, 0
2, 23040, Note_on_c, 1, 36, 112
2, 23212, Note_on_c, 1, 36, 0
2, 23232, Note_on_c, 1, 36, 112
2, 23420, Note_on_c, 1, 36, 0
2, 23424, Note_on_c, 1, 38, 112
2, 23594, Note_on_c, 1, 38, 0
2, 23616, Note_on_c, 1, 38, 112
2, 23769, Note_on_c, 1, 38, 0
2, 23808, Note_on_c, 1, 43, 112
2, 23948, Note_on_c, 1, 43, 0
2, 23968, Note_on_c, 1, 43, 112
2, 24000, Note_on_c, 1, 38, 112
2, 24008, Note_on_c, 1, 43, 0
2, 24088, Note_on_c, 1, 38, 0
2, 24096, Note_on_c, 1, 43, 112
2, 24188, Note_on_c, 1, 43, 0
2, 24192, Note_on_c, 1, 36, 112
2, 24308, Note_on_c, 1, 36, 0
2, 24320, Note_on_c, 1, 36, 112
2, 24352, Note_on_c, 1, 43, 112
2, 24354, Note_on_c, 1, 36, 0
2, 24384, Note_on_c, 1, 48, 99
2, 24388, Note_on_c, 1, 43, 0
2, 24416, Note_on_c, 1, 43, 112
2, 24424, Note_on_c, 1, 48, 0
2, 24448, Note_on_c, 1, 43, 0
2, 24480, Note_on_c, 1, 36, 112
2, 24538, Note_on_c, 1, 36, 0
2, 24576, Note_on_c, 1, 41, 112
2, 24724, Note_on_c, 1, 41, 0
2, 24736, Note_on_c, 1, 45, 112
2, 24768, Note_on_c, 1, 48, 112
2, 24774, Note_on_c, 1, 45, 0
2, 24859, Note_on_c, 1, 48, 0
2, 24864, Note_on_c, 1, 45, 112
2, 24928, Note_on_c, 1, 48, 112
2, 24930, Note_on_c, 1, 45, 0
2, 24958, Note_on_c, 1, 48, 0
2, 24960, Note_on_c, 1, 41, 112
2, 24990, Note_on_c, 1, 41, 0
2, 25056, Note_on_c, 1, 37, 112
2, 25146, Note_on_c, 1, 37, 0
2, 25152, Note_on_c, 1, 39, 112
2, 25243, Note_on_c, 1, 39, 0
2, 25248, Note_on_c, 1, 41, 112
2, 25332, Note_on_c, 1, 41, 0
2, 25344, Note_on_c, 1, 42, 112
2, 25475, Note_on_c, 1, 42, 0
2, 25504, Note_on_c, 1, 42, 112
2, 25536, Note_on_c, 1, 37, 112
2, 25543, Note_on_c, 1, 42, 0
2, 25721, Note_on_c, 1, 37, 0
2, 25728, Note_on_c, 1, 42, 112
2, 25852, Note_on_c, 1, 42, 0
2, 25888, Note_on_c, 1, 42, 112
2, 25920, Note_on_c, 1, 37, 112
2, 25922, Note_on_c, 1, 42, 0
2, 26015, Note_on_c, 1, 37, 0
2, 26016, Note_on_c, 1, 42, 112
2, 26108, Note_on_c, 1, 42, 0
2, 26112, Note_on_c, 1, 41, 112
2, 26219, Note_on_c, 1, 41, 0
2, 26272, Note_on_c, 1, 41, 112
2, 26304, Note_on_c, 1, 41, 0
2, 26304, Note_on_c, 1, 46, 112
2, 26414, Note_on_c, 1, 46, 0
2, 26432, Note_on_c, 1, 46, 112
2, 26463, Note_on_c, 1, 46, 0
2, 26464, Note_on_c, 1, 41, 112
2, 26496, Note_on_c, 1, 34, 112
2, 26498, Note_on_c, 1, 41, 0
2, 26619, Note_on_c, 1, 34, 0
2, 26656, Note_on_c, 1, 34, 112
2, 26688, Note_on_c, 1, 46, 112
2, 26696, Note_on_c, 1, 34, 0
2, 26780, Note_on_c, 1, 46, 0
2, 26784, Note_on_c, 1, 41, 112
2, 26873, Note_on_c, 1, 41, 0
2, 26880, Note_on_c, 1, 39, 112
2, 26986, Note_on_c, 1, 39, 0
2, 27040, Note_on_c, 1, 39, 112
2, 27072, Note_on_c, 1, 46, 112
2, 27077, Note_on_c, 1, 39, 0
2, 27223, Note_on_c, 1, 46, 0
2, 27232, Note_on_c, 1, 34, 112
2, 27264, Note_on_c, 1, 39, 112
2, 27267, Note_on_c, 1, 34, 0
2, 27384, Note_on_c, 1, 39, 0
2, 27424, Note_on_c, 1, 39, 112
2, 27456, Note_on_c, 1, 46, 112
2, 27459, Note_on_c, 1, 39, 0
2, 27552, Note_on_c, 1, 46, 0
2, 27552, Note_on_c, 1, 39, 112
2, 27642, Note_on_c, 1, 39, 0
2, 27648, Note_on_c, 1, 44, 112
2, 27782, Note_on_c, 1, 44, 0
2, 27808, Note_on_c, 1, 44, 112
2, 27838, Note_on_c, 1, 44, 0
2, 27840, Note_on_c, 1, 46, 112
2, 27976, Note_on_c, 1, 46, 0
2, 28000, Note_on_c, 1, 46, 112
2, 28032, Note_on_c, 1, 46, 0
2, 28032, Note_on_c, 1, 47, 112
2, 28178, Note_on_c, 1, 47, 0
2, 28192, Note_on_c, 1, 49, 112
2, 28224, Note_on_c, 1, 51, 112
2, 28230, Note_on_c, 1, 49, 0
2, 28288, Note_on_c, 1, 39, 112
2, 28291, Note_on_c, 1, 51, 0
2, 28320, Note_on_c, 1, 51, 112
2, 28325, Note_on_c, 1, 39, 0
2, 28367, Note_on_c, 1, 51, 0
2, 28416, Note_on_c, 1, 44, 112
2, 28595, Note_on_c, 1, 44, 0
2, 28608, Note_on_c, 1, 44, 112
2, 28797, Note_on_c, 1, 44, 0
2, 28800, Note_on_c, 1, 38, 112
2, 28969, Note_on_c, 1, 38, 0
2, 28992, Note_on_c, 1, 38, 112
2, 29158, Note_on_c, 1, 38, 0
2, 29184, Note_on_c, 1, 37, 112
2, 29356, Note_on_c, 1, 37, 0
2, 29376, Note_on_c, 1, 37, 112
2, 29564, Note_on_c, 1, 37, 0
2, 29568, Control_c, 1, 7, 90
2, 29568, Note_on_c, 1, 39, 112
2, 29625, Control_c, 1, 7, 89
2, 29683, Control_c, 1, 7, 88
2, 29738, Note_on_c, 1, 39, 0
2, 29740, Control_c, 1, 7, 87
2, 29760, Note_on_c, 1, 39, 112
2, 29798, Control_c, 1, 7, 86
2, 29856, Control_c, 1, 7, 85
2, 29913, Note_on_c, 1, 39, 0
2, 29913, Control_c, 1, 7, 84
2, 29952, Note_on_c, 1, 44, 112
2, 29971, Control_c, 1, 7, 83
2, 30028, Control_c, 1, 7, 82
2, 30086, Control_c, 1, 7, 81
2, 30144, Control_c, 1, 7, 80
2, 30201, Control_c, 1, 7, 79
2, 30259, Control_c, 1, 7, 78
2, 30316, Control_c, 1, 7, 77
2, 30331, Note_on_c, 1, 44, 0
2, 30336, Note_on_c, 1, 37, 112
2, 30374, Control_c, 1, 7, 76
2, 30432, Control_c, 1, 7, 75
2, 30489, Control_c, 1, 7, 74
2, 30547, Control_c, 1, 7, 73
2, 30604, Control_c, 1, 7, 72
2, 30662, Control_c, 1, 7, 71
2, 30683, Note_on_c, 1, 37, 0
2, 30720, Control_c, 1, 7, 70
2, 30720, Note_on_c, 1, 42, 112
2, 30777, Control_c, 1, 7, 69
2, 30835, Control_c, 1, 7, 68
2, 30868, Note_on_c, 1, 42, 0
2, 30880, Note_on_c, 1, 46, 112
2, 30892, Control_c, 1, 7, 67
2, 30910, Note_on_c, 1, 46, 0
2, 30912, Note_on_c, 1, 47, 112
2, 30950, Control_c, 1, 7, 66
2, 31000, Note_on_c, 1, 47, 0
2, 31008, Control_c, 1, 7, 65
2, 31008, Note_on_c, 1, 42, 112
2, 31065, Control_c, 1, 7, 64
2, 31070, Note_on_c, 1, 42, 0
2, 31072, Note_on_c, 1, 35, 112
2, 31104, Note_on_c, 1, 35, 0
2, 31104, Note_on_c, 1, 42, 112
2, 31123, Control_c, 1, 7, 63
2, 31180, Control_c, 1, 7, 62
2, 31192, Note_on_c, 1, 42, 0
2, 31200, Note_on_c, 1, 37, 112
2, 31238, Control_c, 1, 7, 61
2, 31295, Note_on_c, 1, 37, 0
2, 31296, Control_c, 1, 7, 60
2, 31296, Note_on_c, 1, 42, 112
2, 31331, Note_on_c, 1, 42, 0
2, 31331, End_track
3, 0, Start_track
3, 108, Program_c, 2, 24
3, 109, Control_c, 2, 7, 90
3, 384, Control_c, 2, 121, 0
3, 384, Control_c, 2, 91, 55
3, 768, Note_on_c, 2, 60, 75
3, 789, Note_on_c, 2, 60, 0
3, 800, Note_on_c, 2, 60, 75
3, 820, Note_on_c, 2, 60, 0
3, 832, Note_on_c, 2, 60, 75
3, 852, Note_on_c, 2, 60, 0
3, 864, Note_on_c, 2, 72, 65
3, 864, Note_on_c, 2, 69, 56
3, 864, Note_on_c, 2, 48, 75
3, 883, Note_on_c, 2, 69, 0
3, 883, Note_on_c, 2, 72, 0
3, 888, Note_on_c, 2, 48, 0
3, 896, Note_on_c, 2, 69, 43
3, 896, Note_on_c, 2, 72, 61
3, 911, Note_on_c, 2, 72, 0
3, 911, Note_on_c, 2, 69, 0
3, 928, Note_on_c, 2, 72, 75
3, 928, Note_on_c, 2, 69, 70
3, 940, Note_on_c, 2, 69, 0
3, 940, Note_on_c, 2, 72, 0
3, 960, Note_on_c, 2, 68, 61
3, 960, Note_on_c, 2, 71, 75
3, 981, Note_on_c, 2, 68, 0
3, 982, Note_on_c, 2, 71, 0
3, 992, Note_on_c, 2, 68, 52
3, 992, Note_on_c, 2, 71, 70
3, 1007, Note_on_c, 2, 71, 0
3, 1007, Note_on_c, 2, 68, 0
3, 1024, Note_on_c, 2, 68, 46
3, 1024, Note_on_c, 2, 71, 65
3, 1037, Note_on_c, 2, 68, 0
3, 1038, Note_on_c, 2, 71, 0
3, 1056, Note_on_c, 2, 70, 75
3, 1056, Note_on_c, 2, 67, 75
3, 1072, Note_on_c, 2, 67, 0
3, 1074, Note_on_c, 2, 70, 0
3, 1088, Note_on_c, 2, 67, 61
3, 1088, Note_on_c, 2, 70, 70
3, 1104, Note_on_c, 2, 70, 0
3, 1105, Note_on_c, 2, 67, 0
3, 1120, Note_on_c, 2, 70, 75
3, 1120, Note_on_c, 2, 67, 75
3, 1136, Note_on_c, 2, 67, 0
3, 1137, Note_on_c, 2, 70, 0
3, 1248, Note_on_c, 2, 65, 75
3, 1248, Note_on_c, 2, 60, 75
3, 1248, Note_on_c, 2, 69, 75
3, 1262, Note_on_c, 2, 60, 0
3, 1262, Note_on_c, 2, 65, 0
3, 1264, Note_on_c, 2, 69, 0
3, 1440, Note_on_c, 2, 69, 75
3, 1440, Note_on_c, 2, 60, 75
3, 1440, Note_on_c, 2, 65, 75
3, 1456, Note_on_c, 2, 65, 0
3, 1457, Note_on_c, 2, 69, 0
3, 1458, Note_on_c, 2, 60, 0
3, 1632, Note_on_c, 2, 65, 75
3, 1632, Note_on_c, 2, 69, 75
3, 1632, Note_on_c, 2, 60, 75
3, 1646, Note_on_c, 2, 65, 0
3, 1647, Note_on_c, 2, 69, 0
3, 1648, Note_on_c, 2, 60, 0
3, 1824, Note_on_c, 2, 69, 75
3, 1824, Note_on_c, 2, 60, 75
3, 1824, Note_on_c, 2, 65, 75
3, 1839, Note_on_c, 2, 65, 0
3, 1839, Note_on_c, 2, 60, 0
3, 1840, Note_on_c, 2, 69, 0
3, 2016, Note_on_c, 2, 64, 75
3, 2016, Note_on_c, 2, 61, 75
3, 2016, Note_on_c, 2, 69, 75
3, 2037, Note_on_c, 2, 64, 0
3, 2038, Note_on_c, 2, 61, 0
3, 2039, Note_on_c, 2, 69, 0
3, 2208, Note_on_c, 2, 61, 70
3, 2208, Note_on_c, 2, 69, 75
3, 2208, Note_on_c, 2, 64, 75
3, 2228, Note_on_c, 2, 64, 0
3, 2229, Note_on_c, 2, 61, 0
3, 2230, Note_on_c, 2, 69, 0
3, 2400, Note_on_c, 2, 64, 75
3, 2400, Note_on_c, 2, 61, 75
3, 2400, Note_on_c, 2, 69, 75
3, 2418, Note_on_c, 2, 69, 0
3, 2418, Note_on_c, 2, 64, 0
3, 2419, Note_on_c, 2, 61, 0
3, 2592, Note_on_c, 2, 61, 75
3, 2592, Note_on_c, 2, 69, 75
3, 2592, Note_on_c, 2, 64, 75
3, 2612, Note_on_c, 2, 64, 0
3, 2612, Note_on_c, 2, 61, 0
3, 2613, Note_on_c, 2, 69, 0
3, 2784, Note_on_c, 2, 60, 75
3, 2784, Note_on_c, 2, 66, 75
3, 2784, Note_on_c, 2, 69, 75
3, 2802, Note_on_c, 2, 66, 0
3, 2804, Note_on_c, 2, 69, 0
3, 2805, Note_on_c, 2, 60, 0
3, 2976, Note_on_c, 2, 60, 75
3, 2976, Note_on_c, 2, 69, 75
3, 2976, Note_on_c, 2, 66, 75
3, 2993, Note_on_c, 2, 60, 0
3, 2995, Note_on_c, 2, 66, 0
3, 2997, Note_on_c, 2, 69, 0
3, 3168, Note_on_c, 2, 66, 75
3, 3168, Note_on_c, 2, 69, 75
3, 3168, Note_on_c, 2, 60, 75
3, 3188, Note_on_c, 2, 69, 0
3, 3188, Note_on_c, 2, 66, 0
3, 3189, Note_on_c, 2, 60, 0
3, 3360, Note_on_c, 2, 66, 75
3, 3360, Note_on_c, 2, 60, 75
3, 3360, Note_on_c, 2, 69, 75
3, 3380, Note_on_c, 2, 60, 0
3, 3380, Note_on_c, 2, 66, 0
3, 3384, Note_on_c, 2, 69, 0
3, 3552, Note_on_c, 2, 62, 75
3, 3552, Note_on_c, 2, 59, 70
3, 3552, Note_on_c, 2, 65, 75
3, 3552, Note_on_c, 2, 67, 75
3, 3566, Note_on_c, 2, 62, 0
3, 3567, Note_on_c, 2, 65, 0
3, 3569, Note_on_c, 2, 59, 0
3, 3569, Note_on_c, 2, 67, 0
3, 3744, Note_on_c, 2, 67, 75
3, 3744, Note_on_c, 2, 65, 75
3, 3744, Note_on_c, 2, 62, 75
3, 3744, Note_on_c, 2, 59, 70
3, 3758, Note_on_c, 2, 62, 0
3, 3761, Note_on_c, 2, 67, 0
3, 3761, Note_on_c, 2, 65, 0
3, 3761, Note_on_c, 2, 59, 0
3, 3936, Note_on_c, 2, 59, 56
3, 3936, Note_on_c, 2, 67, 75
3, 3936, Note_on_c, 2, 62, 75
3, 3936, Note_on_c, 2, 65, 70
3, 3950, Note_on_c, 2, 62, 0
3, 3950, Note_on_c, 2, 67, 0
3, 3951, Note_on_c, 2, 65, 0
3, 3952, Note_on_c, 2, 59, 0
3, 4128, Note_on_c, 2, 59, 49
3, 4128, Note_on_c, 2, 65, 75
3, 4128, Note_on_c, 2, 62, 75
3, 4128, Note_on_c, 2, 67, 75
3, 4143, Note_on_c, 2, 65, 0
3, 4144, Note_on_c, 2, 62, 0
3, 4145, Note_on_c, 2, 67, 0
3, 4146, Note_on_c, 2, 59, 0
3, 4320, Note_on_c, 2, 67, 75
3, 4320, Note_on_c, 2, 60, 70
3, 4320, Note_on_c, 2, 64, 75
3, 4337, Note_on_c, 2, 64, 0
3, 4337, Note_on_c, 2, 60, 0
3, 4338, Note_on_c, 2, 67, 0
3, 4512, Note_on_c, 2, 60, 75
3, 4512, Note_on_c, 2, 67, 75
3, 4512, Note_on_c, 2, 64, 75
3, 4529, Note_on_c, 2, 60, 0
3, 4530, Note_on_c, 2, 64, 0
3, 4530, Note_on_c, 2, 67, 0
3, 4704, Note_on_c, 2, 64, 75
3, 4704, Note_on_c, 2, 60, 65
3, 4704, Note_on_c, 2, 67, 75
3, 4718, Note_on_c, 2, 64, 0
3, 4720, Note_on_c, 2, 67, 0
3, 4720, Note_on_c, 2, 60, 0
3, 4896, Note_on_c, 2, 64, 75
3, 4896, Note_on_c, 2, 67, 75
3, 4896, Note_on_c, 2, 58, 75
3, 4914, Note_on_c, 2, 64, 0
3, 4917, Note_on_c, 2, 58, 0
3, 4917, Note_on_c, 2, 67, 0
3, 5088, Note_on_c, 2, 69, 75
3, 5088, Note_on_c, 2, 72, 75
3, 5088, Note_on_c, 2, 65, 75
3, 5099, Note_on_c, 2, 69, 0
3, 5100, Note_on_c, 2, 65, 0
3, 5104, Note_on_c, 2, 72, 0
3, 5280, Note_on_c, 2, 60, 65
3, 5280, Note_on_c, 2, 65, 75
3, 5280, Note_on_c, 2, 69, 75
3, 5296, Note_on_c, 2, 65, 0
3, 5296, Note_on_c, 2, 60, 0
3, 5298, Note_on_c, 2, 69, 0
3, 5472, Note_on_c, 2, 72, 75
3, 5472, Note_on_c, 2, 69, 75
3, 5472, Note_on_c, 2, 65, 75
3, 5483, Note_on_c, 2, 65, 0
3, 5483, Note_on_c, 2, 69, 0
3, 5485, Note_on_c, 2, 72, 0
3, 5664, Note_on_c, 2, 65, 75
3, 5664, Note_on_c, 2, 69, 75
3, 5664, Note_on_c, 2, 60, 75
3, 5678, Note_on_c, 2, 69, 0
3, 5678, Note_on_c, 2, 65, 0
3, 5680, Note_on_c, 2, 60, 0
3, 5856, Note_on_c, 2, 76, 75
3, 5856, Note_on_c, 2, 67, 75
3, 5856, Note_on_c, 2, 72, 75
3, 5868, Note_on_c, 2, 72, 0
3, 5869, Note_on_c, 2, 67, 0
3, 5872, Note_on_c, 2, 76, 0
3, 6048, Note_on_c, 2, 76, 75
3, 6048, Note_on_c, 2, 67, 75
3, 6048, Note_on_c, 2, 72, 75
3, 6062, Note_on_c, 2, 76, 0
3, 6063, Note_on_c, 2, 72, 0
3, 6064, Note_on_c, 2, 67, 0
3, 6240, Note_on_c, 2, 74, 75
3, 6240, Note_on_c, 2, 65, 75
3, 6240, Note_on_c, 2, 71, 75
3, 6249, Note_on_c, 2, 65, 0
3, 6250, Note_on_c, 2, 71, 0
3, 6252, Note_on_c, 2, 74, 0
3, 6432, Note_on_c, 2, 71, 75
3, 6432, Note_on_c, 2, 65, 75
3, 6432, Note_on_c, 2, 74, 75
3, 6443, Note_on_c, 2, 65, 0
3, 6445, Note_on_c, 2, 71, 0
3, 6447, Note_on_c, 2, 74, 0
3, 6560, Note_on_c, 2, 72, 65
3, 6592, Note_on_c, 2, 74, 75
3, 6606, Note_on_c, 2, 72, 0
3, 6624, Note_on_c, 2, 76, 75
3, 6630, Note_on_c, 2, 74, 0
3, 6656, Note_on_c, 2, 74, 61
3, 6658, Note_on_c, 2, 76, 0
3, 6688, Note_on_c, 2, 74, 0
3, 6688, Note_on_c, 2, 72, 70
3, 6812, Note_on_c, 2, 72, 0
3, 6816, Note_on_c, 2, 70, 75
3, 6910, Note_on_c, 2, 70, 0
3, 6912, Note_on_c, 2, 67, 75
3, 6931, Note_on_c, 2, 67, 0
3, 7392, Note_on_c, 2, 60, 75
3, 7392, Note_on_c, 2, 69, 75
3, 7392, Note_on_c, 2, 65, 75
3, 7406, Note_on_c, 2, 65, 0
3, 7406, Note_on_c, 2, 60, 0
3, 7408, Note_on_c, 2, 69, 0
3, 7584, Note_on_c, 2, 65, 75
3, 7584, Note_on_c, 2, 69, 75
3, 7584, Note_on_c, 2, 60, 75
3, 7600, Note_on_c, 2, 65, 0
3, 7601, Note_on_c, 2, 69, 0
3, 7602, Note_on_c, 2, 60, 0
3, 7776, Note_on_c, 2, 65, 75
3, 7776, Note_on_c, 2, 69, 75
3, 7776, Note_on_c, 2, 60, 75
3, 7790, Note_on_c, 2, 65, 0
3, 7791, Note_on_c, 2, 69, 0
3, 7792, Note_on_c, 2, 60, 0
3, 7968, Note_on_c, 2, 69, 75
3, 7968, Note_on_c, 2, 65, 75
3, 7968, Note_on_c, 2, 60, 75
3, 7983, Note_on_c, 2, 60, 0
3, 7983, Note_on_c, 2, 65, 0
3, 7984, Note_on_c, 2, 69, 0
3, 8160, Note_on_c, 2, 61, 75
3, 8160, Note_on_c, 2, 69, 75
3, 8160, Note_on_c, 2, 64, 75
3, 8181, Note_on_c, 2, 64, 0
3, 8182, Note_on_c, 2, 61, 0
3, 8183, Note_on_c, 2, 69, 0
3, 8352, Note_on_c, 2, 69, 75
3, 8352, Note_on_c, 2, 61, 70
3, 8352, Note_on_c, 2, 64, 75
3, 8372, Note_on_c, 2, 64, 0
3, 8373, Note_on_c, 2, 61, 0
3, 8374, Note_on_c, 2, 69, 0
3, 8544, Note_on_c, 2, 69, 75
3, 8544, Note_on_c, 2, 61, 75
3, 8544, Note_on_c, 2, 64, 75
3, 8562, Note_on_c, 2, 64, 0
3, 8562, Note_on_c, 2, 69, 0
3, 8563, Note_on_c, 2, 61, 0
3, 8736, Note_on_c, 2, 69, 75
3, 8736, Note_on_c, 2, 64, 75
3, 8736, Note_on_c, 2, 61, 75
3, 8756, Note_on_c, 2, 61, 0
3, 8756, Note_on_c, 2, 64, 0
3, 8757, Note_on_c, 2, 69, 0
3, 8928, Note_on_c, 2, 60, 75
3, 8928, Note_on_c, 2, 66, 75
3, 8928, Note_on_c, 2, 69, 75
3, 8946, Note_on_c, 2, 66, 0
3, 8948, Note_on_c, 2, 69, 0
3, 8949, Note_on_c, 2, 60, 0
3, 9120, Note_on_c, 2, 69, 75
3, 9120, Note_on_c, 2, 60, 75
3, 9120, Note_on_c, 2, 66, 75
3, 9137, Note_on_c, 2, 60, 0
3, 9139, Note_on_c, 2, 66, 0
3, 9141, Note_on_c, 2, 69, 0
3, 9312, Note_on_c, 2, 66, 75
3, 9312, Note_on_c, 2, 60, 75
3, 9312, Note_on_c, 2, 69, 75
3, 9332, Note_on_c, 2, 69, 0
3, 9332, Note_on_c, 2, 66, 0
3, 9333, Note_on_c, 2, 60, 0
3, 9504, Note_on_c, 2, 66, 75
3, 9504, Note_on_c, 2, 69, 75
3, 9504, Note_on_c, 2, 60, 75
3, 9524, Note_on_c, 2, 60, 0
3, 9524, Note_on_c, 2, 66, 0
3, 9528, Note_on_c, 2, 69, 0
3, 9696, Note_on_c, 2, 79, 75
3, 9696, Note_on_c, 2, 74, 75
3, 9729, Pitch_bend_c, 2, 7888
3, 9731, Pitch_bend_c, 2, 7433
3, 9733, Pitch_bend_c, 2, 6902
3, 9735, Pitch_bend_c, 2, 5916
3, 9737, Pitch_bend_c, 2, 5006
3, 9739, Pitch_bend_c, 2, 4247
3, 9740, Note_on_c, 2, 79, 0
3, 9741, Pitch_bend_c, 2, 3640
3, 9742, Note_on_c, 2, 74, 0
3, 9743, Pitch_bend_c, 2, 3337
3, 9745, Pitch_bend_c, 2, 2958
3, 9747, Pitch_bend_c, 2, 2654
3, 9749, Pitch_bend_c, 2, 2427
3, 9751, Pitch_bend_c, 2, 1972
3, 9753, Pitch_bend_c, 2, 1365
3, 9756, Pitch_bend_c, 2, 834
3, 9757, Pitch_bend_c, 2, 227
3, 9760, Pitch_bend_c, 2, 0
3, 9766, Pitch_bend_c, 2, 758
3, 9768, Pitch_bend_c, 2, 2199
3, 9770, Pitch_bend_c, 2, 4475
3, 9772, Pitch_bend_c, 2, 7281
3, 9774, Pitch_bend_c, 2, 8192
3, 9792, Note_on_c, 2, 72, 75
3, 9924, Note_on_c, 2, 72, 0
3, 9952, Note_on_c, 2, 72, 75
3, 9984, Note_on_c, 2, 74, 75
3, 9993, Note_on_c, 2, 72, 0
3, 10152, Note_on_c, 2, 74, 0
3, 10240, Note_on_c, 2, 74, 75
3, 10240, Note_on_c, 2, 79, 75
3, 10250, Note_on_c, 2, 74, 0
3, 10253, Note_on_c, 2, 79, 0
3, 10368, Note_on_c, 2, 77, 75
3, 10368, Note_on_c, 2, 74, 75
3, 10379, Note_on_c, 2, 77, 0
3, 10381, Note_on_c, 2, 74, 0
3, 10528, Note_on_c, 2, 77, 75
3, 10528, Note_on_c, 2, 74, 75
3, 10661, Note_on_c, 2, 74, 0
3, 10662, Note_on_c, 2, 77, 0
3, 10752, Note_on_c, 2, 77, 75
3, 10752, Note_on_c, 2, 73, 75
3, 10766, Note_on_c, 2, 73, 0
3, 10766, Note_on_c, 2, 77, 0
3, 10912, Note_on_c, 2, 73, 65
3, 10912, Note_on_c, 2, 77, 75
3, 11051, Note_on_c, 2, 73, 0
3, 11057, Note_on_c, 2, 77, 0
3, 11136, Note_on_c, 2, 77, 75
3, 11136, Note_on_c, 2, 72, 75
3, 11147, Note_on_c, 2, 77, 0
3, 11148, Note_on_c, 2, 72, 0
3, 11296, Note_on_c, 2, 77, 75
3, 11296, Note_on_c, 2, 72, 70
3, 11430, Note_on_c, 2, 77, 0
3, 11432, Note_on_c, 2, 72, 0
3, 11520, Note_on_c, 2, 74, 75
3, 11520, Note_on_c, 2, 69, 75
3, 11520, Note_on_c, 2, 78, 75
3, 11529, Note_on_c, 2, 74, 0
3, 11533, Note_on_c, 2, 78, 0
3, 11533, Note_on_c, 2, 69, 0
3, 11680, Note_on_c, 2, 72, 75
3, 11680, Note_on_c, 2, 78, 75
3, 11680, Note_on_c, 2, 69, 75
3, 11781, Note_on_c, 2, 72, 0
3, 11782, Note_on_c, 2, 69, 0
3, 11786, Note_on_c, 2, 78, 0
3, 11808, Note_on_c, 2, 69, 75
3, 11808, Note_on_c, 2, 72, 75
3, 11808, Note_on_c, 2, 78, 75
3, 11819, Note_on_c, 2, 72, 0
3, 11822, Note_on_c, 2, 69, 0
3, 11823, Note_on_c, 2, 78, 0
3, 11904, Note_on_c, 2, 62, 75
3, 11904, Note_on_c, 2, 65, 75
3, 11914, Note_on_c, 2, 62, 0
3, 11917, Note_on_c, 2, 65, 0
3, 12064, Note_on_c, 2, 70, 75
3, 12064, Note_on_c, 2, 74, 75
3, 12186, Note_on_c, 2, 70, 0
3, 12187, Note_on_c, 2, 74, 0
3, 12192, Note_on_c, 2, 70, 75
3, 12192, Note_on_c, 2, 74, 75
3, 12202, Note_on_c, 2, 74, 0
3, 12203, Note_on_c, 2, 70, 0
3, 12352, Note_on_c, 2, 67, 75
3, 12352, Note_on_c, 2, 72, 75
3, 12362, Note_on_c, 2, 72, 0
3, 12363, Note_on_c, 2, 67, 0
3, 12480, Note_on_c, 2, 72, 75
3, 12480, Note_on_c, 2, 76, 75
3, 12562, Note_on_c, 2, 72, 0
3, 12564, Note_on_c, 2, 76, 0
3, 12576, Note_on_c, 2, 72, 75
3, 12576, Note_on_c, 2, 76, 75
3, 12588, Note_on_c, 2, 76, 0
3, 12588, Note_on_c, 2, 72, 0
3, 12672, Note_on_c, 2, 53, 75
3, 12773, Note_on_c, 2, 53, 0
3, 12832, Note_on_c, 2, 57, 75
3, 12861, Note_on_c, 2, 57, 0
3, 12864, Note_on_c, 2, 60, 75
3, 12955, Note_on_c, 2, 60, 0
3, 12960, Note_on_c, 2, 57, 75
3, 13015, Note_on_c, 2, 57, 0
3, 13024, Note_on_c, 2, 60, 75
3, 13047, Note_on_c, 2, 60, 0
3, 13152, Note_on_c, 2, 65, 75
3, 13152, Note_on_c, 2, 60, 75
3, 13152, Note_on_c, 2, 69, 75
3, 13166, Note_on_c, 2, 60, 0
3, 13166, Note_on_c, 2, 65, 0
3, 13168, Note_on_c, 2, 69, 0
3, 13344, Note_on_c, 2, 69, 75
3, 13344, Note_on_c, 2, 60, 75
3, 13344, Note_on_c, 2, 65, 75
3, 13360, Note_on_c, 2, 65, 0
3, 13361, Note_on_c, 2, 69, 0
3, 13362, Note_on_c, 2, 60, 0
3, 13536, Note_on_c, 2, 65, 75
3, 13536, Note_on_c, 2, 69, 75
3, 13536, Note_on_c, 2, 60, 75
3, 13550, Note_on_c, 2, 65, 0
3, 13551, Note_on_c, 2, 69, 0
3, 13552, Note_on_c, 2, 60, 0
3, 13728, Note_on_c, 2, 69, 75
3, 13728, Note_on_c, 2, 60, 75
3, 13728, Note_on_c, 2, 65, 75
3, 13743, Note_on_c, 2, 65, 0
3, 13743, Note_on_c, 2, 60, 0
3, 13744, Note_on_c, 2, 69, 0
3, 13920, Note_on_c, 2, 64, 75
3, 13920, Note_on_c, 2, 61, 75
3, 13920, Note_on_c, 2, 69, 75
3, 13941, Note_on_c, 2, 64, 0
3, 13942, Note_on_c, 2, 61, 0
3, 13943, Note_on_c, 2, 69, 0
3, 14112, Note_on_c, 2, 61, 70
3, 14112, Note_on_c, 2, 69, 75
3, 14112, Note_on_c, 2, 64, 75
3, 14132, Note_on_c, 2, 64, 0
3, 14133, Note_on_c, 2, 61, 0
3, 14134, Note_on_c, 2, 69, 0
3, 14304, Note_on_c, 2, 64, 75
3, 14304, Note_on_c, 2, 61, 75
3, 14304, Note_on_c, 2, 69, 75
3, 14322, Note_on_c, 2, 69, 0
3, 14322, Note_on_c, 2, 64, 0
3, 14323, Note_on_c, 2, 61, 0
3, 14496, Note_on_c, 2, 61, 75
3, 14496, Note_on_c, 2, 69, 75
3, 14496, Note_on_c, 2, 64, 75
3, 14516, Note_on_c, 2, 64, 0
3, 14516, Note_on_c, 2, 61, 0
3, 14517, Note_on_c, 2, 69, 0
3, 14688, Note_on_c, 2, 60, 75
3, 14688, Note_on_c, 2, 66, 75
3, 14688, Note_on_c, 2, 69, 75
3, 14706, Note_on_c, 2, 66, 0
3, 14708, Note_on_c, 2, 69, 0
3, 14709, Note_on_c, 2, 60, 0
3, 14880, Note_on_c, 2, 60, 75
3, 14880, Note_on_c, 2, 69, 75
3, 14880, Note_on_c, 2, 66, 75
3, 14897, Note_on_c, 2, 60, 0
3, 14899, Note_on_c, 2, 66, 0
3, 14901, Note_on_c, 2, 69, 0
3, 15072, Note_on_c, 2, 66, 75
3, 15072, Note_on_c, 2, 69, 75
3, 15072, Note_on_c, 2, 60, 75
3, 15092, Note_on_c, 2, 69, 0
3, 15092, Note_on_c, 2, 66, 0
3, 15093, Note_on_c, 2, 60, 0
3, 15264, Note_on_c, 2, 66, 75
3, 15264, Note_on_c, 2, 60, 75
3, 15264, Note_on_c, 2, 69, 75
3, 15284, Note_on_c, 2, 60, 0
3, 15284, Note_on_c, 2, 66, 0
3, 15288, Note_on_c, 2, 69, 0
3, 15456, Note_on_c, 2, 62, 75
3, 15456, Note_on_c, 2, 59, 70
3, 15456, Note_on_c, 2, 65, 75
3, 15456, Note_on_c, 2, 67, 75
3, 15470, Note_on_c, 2, 62, 0
3, 15471, Note_on_c, 2, 65, 0
3, 15473, Note_on_c, 2, 59, 0
3, 15473, Note_on_c, 2, 67, 0
3, 15648, Note_on_c, 2, 67, 75
3, 15648, Note_on_c, 2, 65, 75
3, 15648, Note_on_c, 2, 62, 75
3, 15648, Note_on_c, 2, 59, 70
3, 15662, Note_on_c, 2, 62, 0
3, 15665, Note_on_c, 2, 67, 0
3, 15665, Note_on_c, 2, 65, 0
3, 15665, Note_on_c, 2, 59, 0
3, 15840, Note_on_c, 2, 59, 56
3, 15840, Note_on_c, 2, 67, 75
3, 15840, Note_on_c, 2, 62, 75
3, 15840, Note_on_c, 2, 65, 70
3, 15854, Note_on_c, 2, 62, 0
3, 15854, Note_on_c, 2, 67, 0
3, 15855, Note_on_c, 2, 65, 0
3, 15856, Note_on_c, 2, 59, 0
3, 16032, Note_on_c, 2, 59, 49
3, 16032, Note_on_c, 2, 65, 75
3, 16032, Note_on_c, 2, 62, 75
3, 16032, Note_on_c, 2, 67, 75
3, 16047, Note_on_c, 2, 65, 0
3, 16048, Note_on_c, 2, 62, 0
3, 16049, Note_on_c, 2, 67, 0
3, 16050, Note_on_c, 2, 59, 0
3, 16224, Note_on_c, 2, 67, 75
3, 16224, Note_on_c, 2, 60, 70
3, 16224, Note_on_c, 2, 64, 75
3, 16241, Note_on_c, 2, 64, 0
3, 16241, Note_on_c, 2, 60, 0
3, 16242, Note_on_c, 2, 67, 0
3, 16416, Note_on_c, 2, 60, 75
3, 16416, Note_on_c, 2, 67, 75
3, 16416, Note_on_c, 2, 64, 75
3, 16433, Note_on_c, 2, 60, 0
3, 16434, Note_on_c, 2, 64, 0
3, 16434, Note_on_c, 2, 67, 0
3, 16608, Note_on_c, 2, 64, 75
3, 16608, Note_on_c, 2, 60, 65
3, 16608, Note_on_c, 2, 67, 75
3, 16622, Note_on_c, 2, 64, 0
3, 16624, Note_on_c, 2, 67, 0
3, 16624, Note_on_c, 2, 60, 0
3, 16800, Note_on_c, 2, 64, 75
3, 16800, Note_on_c, 2, 67, 75
3, 16800, Note_on_c, 2, 58, 75
3, 16818, Note_on_c, 2, 64, 0
3, 16821, Note_on_c, 2, 58, 0
3, 16821, Note_on_c, 2, 67, 0
3, 16992, Note_on_c, 2, 69, 75
3, 16992, Note_on_c, 2, 72, 75
3, 16992, Note_on_c, 2, 65, 75
3, 17003, Note_on_c, 2, 69, 0
3, 17004, Note_on_c, 2, 65, 0
3, 17008, Note_on_c, 2, 72, 0
3, 17184, Note_on_c, 2, 60, 65
3, 17184, Note_on_c, 2, 65, 75
3, 17184, Note_on_c, 2, 69, 75
3, 17200, Note_on_c, 2, 65, 0
3, 17200, Note_on_c, 2, 60, 0
3, 17202, Note_on_c, 2, 69, 0
3, 17376, Note_on_c, 2, 72, 75
3, 17376, Note_on_c, 2, 69, 75
3, 17376, Note_on_c, 2, 65, 75
3, 17387, Note_on_c, 2, 65, 0
3, 17387, Note_on_c, 2, 69, 0
3, 17389, Note_on_c, 2, 72, 0
3, 17568, Note_on_c, 2, 65, 75
3, 17568, Note_on_c, 2, 69, 75
3, 17568, Note_on_c, 2, 60, 75
3, 17582, Note_on_c, 2, 69, 0
3, 17582, Note_on_c, 2, 65, 0
3, 17584, Note_on_c, 2, 60, 0
3, 17760, Note_on_c, 2, 76, 75
3, 17760, Note_on_c, 2, 67, 75
3, 17760, Note_on_c, 2, 72, 75
3, 17772, Note_on_c, 2, 72, 0
3, 17773, Note_on_c, 2, 67, 0
3, 17776, Note_on_c, 2, 76, 0
3, 17952, Note_on_c, 2, 76, 75
3, 17952, Note_on_c, 2, 67, 75
3, 17952, Note_on_c, 2, 72, 75
3, 17966, Note_on_c, 2, 76, 0
3, 17967, Note_on_c, 2, 72, 0
3, 17968, Note_on_c, 2, 67, 0
3, 18144, Note_on_c, 2, 74, 75
3, 18144, Note_on_c, 2, 65, 75
3, 18144, Note_on_c, 2, 71, 75
3, 18153, Note_on_c, 2, 65, 0
3, 18154, Note_on_c, 2, 71, 0
3, 18156, Note_on_c, 2, 74, 0
3, 18336, Note_on_c, 2, 71, 75
3, 18336, Note_on_c, 2, 65, 75
3, 18336, Note_on_c, 2, 74, 75
3, 18347, Note_on_c, 2, 65, 0
3, 18349, Note_on_c, 2, 71, 0
3, 18351, Note_on_c, 2, 74, 0
3, 18464, Note_on_c, 2, 72, 65
3, 18496, Note_on_c, 2, 74, 75
3, 18510, Note_on_c, 2, 72, 0
3, 18528, Note_on_c, 2, 76, 75
3, 18534, Note_on_c, 2, 74, 0
3, 18560, Note_on_c, 2, 74, 61
3, 18562, Note_on_c, 2, 76, 0
3, 18592, Note_on_c, 2, 74, 0
3, 18592, Note_on_c, 2, 72, 70
3, 18716, Note_on_c, 2, 72, 0
3, 18720, Note_on_c, 2, 70, 75
3, 18814, Note_on_c, 2, 70, 0
3, 18816, Note_on_c, 2, 67, 75
3, 18835, Note_on_c, 2, 67, 0
3, 19296, Note_on_c, 2, 60, 75
3, 19296, Note_on_c, 2, 69, 75
3, 19296, Note_on_c, 2, 65, 75
3, 19310, Note_on_c, 2, 65, 0
3, 19310, Note_on_c, 2, 60, 0
3, 19312, Note_on_c, 2, 69, 0
3, 19488, Note_on_c, 2, 65, 75
3, 19488, Note_on_c, 2, 69, 75
3, 19488, Note_on_c, 2, 60, 75
3, 19504, Note_on_c, 2, 65, 0
3, 19505, Note_on_c, 2, 69, 0
3, 19506, Note_on_c, 2, 60, 0
3, 19680, Note_on_c, 2, 65, 75
3, 19680, Note_on_c, 2, 69, 75
3, 19680, Note_on_c, 2, 60, 75
3, 19694, Note_on_c, 2, 65, 0
3, 19695, Note_on_c, 2, 69, 0
3, 19696, Note_on_c, 2, 60, 0
3, 19872, Note_on_c, 2, 69, 75
3, 19872, Note_on_c, 2, 65, 75
3, 19872, Note_on_c, 2, 60, 75
3, 19887, Note_on_c, 2, 60, 0
3, 19887, Note_on_c, 2, 65, 0
3, 19888, Note_on_c, 2, 69, 0
3, 20064, Note_on_c, 2, 61, 75
3, 20064, Note_on_c, 2, 69, 75
3, 20064, Note_on_c, 2, 64, 75
3, 20085, Note_on_c, 2, 64, 0
3, 20086, Note_on_c, 2, 61, 0
3, 20087, Note_on_c, 2, 69, 0
3, 20256, Note_on_c, 2, 69, 75
3, 20256, Note_on_c, 2, 61, 70
3, 20256, Note_on_c, 2, 64, 75
3, 20276, Note_on_c, 2, 64, 0
3, 20277, Note_on_c, 2, 61, 0
3, 20278, Note_on_c, 2, 69, 0
3, 20448, Note_on_c, 2, 69, 75
3, 20448, Note_on_c, 2, 61, 75
3, 20448, Note_on_c, 2, 64, 75
3, 20466, Note_on_c, 2, 64, 0
3, 20466, Note_on_c, 2, 69, 0
3, 20467, Note_on_c, 2, 61, 0
3, 20640, Note_on_c, 2, 69, 75
3, 20640, Note_on_c, 2, 64, 75
3, 20640, Note_on_c, 2, 61, 75
3, 20660, Note_on_c, 2, 61, 0
3, 20660, Note_on_c, 2, 64, 0
3, 20661, Note_on_c, 2, 69, 0
3, 20832, Note_on_c, 2, 60, 75
3, 20832, Note_on_c, 2, 66, 75
3, 20832, Note_on_c, 2, 69, 75
3, 20850, Note_on_c, 2, 66, 0
3, 20852, Note_on_c, 2, 69, 0
3, 20853, Note_on_c, 2, 60, 0
3, 21024, Note_on_c, 2, 69, 75
3, 21024, Note_on_c, 2, 60, 75
3, 21024, Note_on_c, 2, 66, 75
3, 21041, Note_on_c, 2, 60, 0
3, 21043, Note_on_c, 2, 66, 0
3, 21045, Note_on_c, 2, 69, 0
3, 21216, Note_on_c, 2, 66, 75
3, 21216, Note_on_c, 2, 60, 75
3, 21216, Note_on_c, 2, 69, 75
3, 21236, Note_on_c, 2, 69, 0
3, 21236, Note_on_c, 2, 66, 0
3, 21237, Note_on_c, 2, 60, 0
3, 21408, Note_on_c, 2, 66, 75
3, 21408, Note_on_c, 2, 69, 75
3, 21408, Note_on_c, 2, 60, 75
3, 21428, Note_on_c, 2, 60, 0
3, 21428, Note_on_c, 2, 66, 0
3, 21432, Note_on_c, 2, 69, 0
3, 21600, Note_on_c, 2, 79, 75
3, 21600, Note_on_c, 2, 74, 75
3, 21633, Pitch_bend_c, 2, 7888
3, 21635, Pitch_bend_c, 2, 7433
3, 21637, Pitch_bend_c, 2, 6902
3, 21639, Pitch_bend_c, 2, 5916
3, 21641, Pitch_bend_c, 2, 5006
3, 21643, Pitch_bend_c, 2, 4247
3, 21644, Note_on_c, 2, 79, 0
3, 21645, Pitch_bend_c, 2, 3640
3, 21646, Note_on_c, 2, 74, 0
3, 21647, Pitch_bend_c, 2, 3337
3, 21649, Pitch_bend_c, 2, 2958
3, 21651, Pitch_bend_c, 2, 2654
3, 21653, Pitch_bend_c, 2, 2427
3, 21655, Pitch_bend_c, 2, 1972
3, 21657, Pitch_bend_c, 2, 1365
3, 21660, Pitch_bend_c, 2, 834
3, 21661, Pitch_bend_c, 2, 227
3, 21664, Pitch_bend_c, 2, 0
3, 21670, Pitch_bend_c, 2, 758
3, 21672, Pitch_bend_c, 2, 2199
3, 21674, Pitch_bend_c, 2, 4475
3, 21676, Pitch_bend_c, 2, 7281
3, 21678, Pitch_bend_c, 2, 8192
3, 21696, Note_on_c, 2, 72, 75
3, 21828, Note_on_c, 2, 72, 0
3, 21856, Note_on_c, 2, 72, 75
3, 21888, Note_on_c, 2, 74, 75
3, 21897, Note_on_c, 2, 72, 0
3, 22056, Note_on_c, 2, 74, 0
3, 22144, Note_on_c, 2, 74, 75
3, 22144, Note_on_c, 2, 79, 75
3, 22154, Note_on_c, 2, 74, 0
3, 22157, Note_on_c, 2, 79, 0
3, 22272, Note_on_c, 2, 77, 75
3, 22272, Note_on_c, 2, 74, 75
3, 22283, Note_on_c, 2, 77, 0
3, 22285, Note_on_c, 2, 74, 0
3, 22432, Note_on_c, 2, 77, 75
3, 22432, Note_on_c, 2, 74, 75
3, 22565, Note_on_c, 2, 74, 0
3, 22566, Note_on_c, 2, 77, 0
3, 22656, Note_on_c, 2, 77, 75
3, 22656, Note_on_c, 2, 73, 75
3, 22670, Note_on_c, 2, 73, 0
3, 22670, Note_on_c, 2, 77, 0
3, 22816, Note_on_c, 2, 73, 65
3, 22816, Note_on_c, 2, 77, 75
3, 22955, Note_on_c, 2, 73, 0
3, 22961, Note_on_c, 2, 77, 0
3, 23040, Note_on_c, 2, 77, 75
3, 23040, Note_on_c, 2, 72, 75
3, 23051, Note_on_c, 2, 77, 0
3, 23052, Note_on_c, 2, 72, 0
3, 23200, Note_on_c, 2, 77, 75
3, 23200, Note_on_c, 2, 72, 70
3, 23334, Note_on_c, 2, 77, 0
3, 23336, Note_on_c, 2, 72, 0
3, 23424, Note_on_c, 2, 74, 75
3, 23424, Note_on_c, 2, 69, 75
3, 23424, Note_on_c, 2, 78, 75
3, 23433, Note_on_c, 2, 74, 0
3, 23437, Note_on_c, 2, 78, 0
3, 23437, Note_on_c, 2, 69, 0
3, 23584, Note_on_c, 2, 72, 75
3, 23584, Note_on_c, 2, 78, 75
3, 23584, Note_on_c, 2, 69, 75
3, 23685, Note_on_c, 2, 72, 0
3, 23686, Note_on_c, 2, 69, 0
3, 23690, Note_on_c, 2, 78, 0
3, 23712, Note_on_c, 2, 69, 75
3, 23712, Note_on_c, 2, 72, 75
3, 23712, Note_on_c, 2, 78, 75
3, 23723, Note_on_c, 2, 72, 0
3, 23726, Note_on_c, 2, 69, 0
3, 23727, Note_on_c, 2, 78, 0
3, 23808, Note_on_c, 2, 62, 75
3, 23808, Note_on_c, 2, 65, 75
3, 23818, Note_on_c, 2, 62, 0
3, 23821, Note_on_c, 2, 65, 0
3, 23968, Note_on_c, 2, 70, 75
3, 23968, Note_on_c, 2, 74, 75
3, 24090, Note_on_c, 2, 70, 0
3, 24091, Note_on_c, 2, 74, 0
3, 24096, Note_on_c, 2, 70, 75
3, 24096, Note_on_c, 2, 74, 75
3, 24106, Note_on_c, 2, 74, 0
3, 24107, Note_on_c, 2, 70, 0
3, 24256, Note_on_c, 2, 67, 75
3, 24256, Note_on_c, 2, 72, 75
3, 24266, Note_on_c, 2, 72, 0
3, 24267, Note_on_c, 2, 67, 0
3, 24384, Note_on_c, 2, 72, 75
3, 24384, Note_on_c, 2, 76, 75
3, 24466, Note_on_c, 2, 72, 0
3, 24468, Note_on_c, 2, 76, 0
3, 24480, Note_on_c, 2, 72, 75
3, 24480, Note_on_c, 2, 76, 75
3, 24492, Note_on_c, 2, 76, 0
3, 24492, Note_on_c, 2, 72, 0
3, 24576, Note_on_c, 2, 53, 75
3, 24677, Note_on_c, 2, 53, 0
3, 24736, Note_on_c, 2, 57, 75
3, 24765, Note_on_c, 2, 57, 0
3, 24768, Note_on_c, 2, 60, 75
3, 24859, Note_on_c, 2, 60, 0
3, 24864, Note_on_c, 2, 57, 75
3, 24919, Note_on_c, 2, 57, 0
3, 24928, Note_on_c, 2, 60, 75
3, 24951, Note_on_c, 2, 60, 0
3, 24960, Note_on_c, 2, 53, 75
3, 24987, Note_on_c, 2, 53, 0
3, 25056, Note_on_c, 2, 70, 56
3, 25056, Note_on_c, 2, 73, 65
3, 25075, Note_on_c, 2, 73, 0
3, 25075, Note_on_c, 2, 70, 0
3, 25088, Note_on_c, 2, 73, 61
3, 25088, Note_on_c, 2, 70, 43
3, 25103, Note_on_c, 2, 70, 0
3, 25103, Note_on_c, 2, 73, 0
3, 25120, Note_on_c, 2, 70, 70
3, 25120, Note_on_c, 2, 73, 75
3, 25132, Note_on_c, 2, 73, 0
3, 25132, Note_on_c, 2, 70, 0
3, 25152, Note_on_c, 2, 72, 75
3, 25152, Note_on_c, 2, 69, 61
3, 25173, Note_on_c, 2, 69, 0
3, 25174, Note_on_c, 2, 72, 0
3, 25184, Note_on_c, 2, 69, 52
3, 25184, Note_on_c, 2, 72, 70
3, 25199, Note_on_c, 2, 72, 0
3, 25199, Note_on_c, 2, 69, 0
3, 25216, Note_on_c, 2, 69, 46
3, 25216, Note_on_c, 2, 72, 65
3, 25229, Note_on_c, 2, 69, 0
3, 25230, Note_on_c, 2, 72, 0
3, 25248, Note_on_c, 2, 68, 75
3, 25248, Note_on_c, 2, 71, 75
3, 25264, Note_on_c, 2, 68, 0
3, 25266, Note_on_c, 2, 71, 0
3, 25280, Note_on_c, 2, 71, 70
3, 25280, Note_on_c, 2, 68, 61
3, 25296, Note_on_c, 2, 71, 0
3, 25297, Note_on_c, 2, 68, 0
3, 25312, Note_on_c, 2, 71, 75
3, 25312, Note_on_c, 2, 68, 75
3, 25328, Note_on_c, 2, 68, 0
3, 25329, Note_on_c, 2, 71, 0
3, 25440, Note_on_c, 2, 61, 75
3, 25440, Note_on_c, 2, 70, 75
3, 25440, Note_on_c, 2, 66, 75
3, 25454, Note_on_c, 2, 66, 0
3, 25454, Note_on_c, 2, 61, 0
3, 25456, Note_on_c, 2, 70, 0
3, 25632, Note_on_c, 2, 61, 75
3, 25632, Note_on_c, 2, 70, 75
3, 25632, Note_on_c, 2, 66, 75
3, 25648, Note_on_c, 2, 66, 0
3, 25649, Note_on_c, 2, 70, 0
3, 25650, Note_on_c, 2, 61, 0
3, 25824, Note_on_c, 2, 61, 75
3, 25824, Note_on_c, 2, 70, 75
3, 25824, Note_on_c, 2, 66, 75
3, 25838, Note_on_c, 2, 66, 0
3, 25839, Note_on_c, 2, 70, 0
3, 25840, Note_on_c, 2, 61, 0
3, 26016, Note_on_c, 2, 61, 75
3, 26016, Note_on_c, 2, 66, 75
3, 26016, Note_on_c, 2, 70, 75
3, 26031, Note_on_c, 2, 66, 0
3, 26031, Note_on_c, 2, 61, 0
3, 26032, Note_on_c, 2, 70, 0
3, 26208, Note_on_c, 2, 70, 75
3, 26208, Note_on_c, 2, 62, 75
3, 26208, Note_on_c, 2, 65, 75
3, 26229, Note_on_c, 2, 65, 0
3, 26230, Note_on_c, 2, 62, 0
3, 26231, Note_on_c, 2, 70, 0
3, 26400, Note_on_c, 2, 65, 75
3, 26400, Note_on_c, 2, 70, 75
3, 26400, Note_on_c, 2, 62, 70
3, 26420, Note_on_c, 2, 65, 0
3, 26421, Note_on_c, 2, 62, 0
3, 26422, Note_on_c, 2, 70, 0
3, 26592, Note_on_c, 2, 70, 75
3, 26592, Note_on_c, 2, 62, 75
3, 26592, Note_on_c, 2, 65, 75
3, 26610, Note_on_c, 2, 65, 0
3, 26610, Note_on_c, 2, 70, 0
3, 26611, Note_on_c, 2, 62, 0
3, 26784, Note_on_c, 2, 70, 75
3, 26784, Note_on_c, 2, 65, 75
3, 26784, Note_on_c, 2, 62, 75
3, 26804, Note_on_c, 2, 62, 0
3, 26804, Note_on_c, 2, 65, 0
3, 26805, Note_on_c, 2, 70, 0
3, 26976, Note_on_c, 2, 70, 75
3, 26976, Note_on_c, 2, 67, 75
3, 26976, Note_on_c, 2, 61, 75
3, 26994, Note_on_c, 2, 67, 0
3, 26996, Note_on_c, 2, 70, 0
3, 26997, Note_on_c, 2, 61, 0
3, 27168, Note_on_c, 2, 70, 75
3, 27168, Note_on_c, 2, 61, 75
3, 27168, Note_on_c, 2, 67, 75
3, 27185, Note_on_c, 2, 61, 0
3, 27187, Note_on_c, 2, 67, 0
3, 27189, Note_on_c, 2, 70, 0
3, 27360, Note_on_c, 2, 67, 75
3, 27360, Note_on_c, 2, 61, 75
3, 27360, Note_on_c, 2, 70, 75
3, 27380, Note_on_c, 2, 70, 0
3, 27380, Note_on_c, 2, 67, 0
3, 27381, Note_on_c, 2, 61, 0
3, 27552, Note_on_c, 2, 70, 75
3, 27552, Note_on_c, 2, 67, 75
3, 27552, Note_on_c, 2, 61, 75
3, 27572, Note_on_c, 2, 61, 0
3, 27572, Note_on_c, 2, 67, 0
3, 27576, Note_on_c, 2, 70, 0
3, 27744, Note_on_c, 2, 75, 75
3, 27744, Note_on_c, 2, 80, 75
3, 27777, Pitch_bend_c, 2, 7888
3, 27779, Pitch_bend_c, 2, 7433
3, 27781, Pitch_bend_c, 2, 6902
3, 27783, Pitch_bend_c, 2, 5916
3, 27785, Pitch_bend_c, 2, 5006
3, 27787, Pitch_bend_c, 2, 4247
3, 27788, Note_on_c, 2, 80, 0
3, 27789, Pitch_bend_c, 2, 3640
3, 27790, Note_on_c, 2, 75, 0
3, 27791, Pitch_bend_c, 2, 3337
3, 27793, Pitch_bend_c, 2, 2958
3, 27795, Pitch_bend_c, 2, 2654
3, 27797, Pitch_bend_c, 2, 2427
3, 27799, Pitch_bend_c, 2, 1972
3, 27801, Pitch_bend_c, 2, 1365
3, 27804, Pitch_bend_c, 2, 834
3, 27805, Pitch_bend_c, 2, 227
3, 27808, Pitch_bend_c, 2, 0
3, 27814, Pitch_bend_c, 2, 758
3, 27816, Pitch_bend_c, 2, 2199
3, 27818, Pitch_bend_c, 2, 4475
3, 27820, Pitch_bend_c, 2, 7281
3, 27822, Pitch_bend_c, 2, 8192
3, 27840, Note_on_c, 2, 73, 75
3, 27972, Note_on_c, 2, 73, 0
3, 28000, Note_on_c, 2, 73, 75
3, 28032, Note_on_c, 2, 75, 75
3, 28041, Note_on_c, 2, 73, 0
3, 28200, Note_on_c, 2, 75, 0
3, 28288, Note_on_c, 2, 75, 75
3, 28288, Note_on_c, 2, 80, 75
3, 28298, Note_on_c, 2, 75, 0
3, 28301, Note_on_c, 2, 80, 0
3, 28416, Note_on_c, 2, 75, 75
3, 28416, Note_on_c, 2, 78, 75
3, 28427, Note_on_c, 2, 78, 0
3, 28429, Note_on_c, 2, 75, 0
3, 28576, Note_on_c, 2, 75, 75
3, 28576, Note_on_c, 2, 78, 75
3, 28709, Note_on_c, 2, 75, 0
3, 28710, Note_on_c, 2, 78, 0
3, 28800, Note_on_c, 2, 78, 75
3, 28800, Note_on_c, 2, 74, 75
3, 28814, Note_on_c, 2, 74, 0
3, 28814, Note_on_c, 2, 78, 0
3, 28960, Note_on_c, 2, 78, 75
3, 28960, Note_on_c, 2, 74, 65
3, 29099, Note_on_c, 2, 74, 0
3, 29105, Note_on_c, 2, 78, 0
3, 29184, Note_on_c, 2, 73, 75
3, 29184, Note_on_c, 2, 78, 75
3, 29195, Note_on_c, 2, 78, 0
3, 29196, Note_on_c, 2, 73, 0
3, 29344, Note_on_c, 2, 73, 70
3, 29344, Note_on_c, 2, 78, 75
3, 29478, Note_on_c, 2, 78, 0
3, 29480, Note_on_c, 2, 73, 0
3, 29568, Control_c, 2, 7, 90
3, 29568, Note_on_c, 2, 75, 75
3, 29568, Note_on_c, 2, 70, 75
3, 29568, Note_on_c, 2, 79, 75
3, 29577, Note_on_c, 2, 75, 0
3, 29581, Note_on_c, 2, 79, 0
3, 29581, Note_on_c, 2, 70, 0
3, 29625, Control_c, 2, 7, 89
3, 29683, Control_c, 2, 7, 88
3, 29728, Note_on_c, 2, 70, 75
3, 29728, Note_on_c, 2, 79, 75
3, 29728, Note_on_c, 2, 73, 75
3, 29740, Control_c, 2, 7, 87
3, 29798, Control_c, 2, 7, 86
3, 29829, Note_on_c, 2, 73, 0
3, 29830, Note_on_c, 2, 70, 0
3, 29834, Note_on_c, 2, 79, 0
3, 29856, Control_c, 2, 7, 85
3, 29856, Note_on_c, 2, 70, 75
3, 29856, Note_on_c, 2, 79, 75
3, 29856, Note_on_c, 2, 73, 75
3, 29867, Note_on_c, 2, 73, 0
3, 29870, Note_on_c, 2, 70, 0
3, 29871, Note_on_c, 2, 79, 0
3, 29913, Control_c, 2, 7, 84
3, 29952, Note_on_c, 2, 68, 70
3, 29952, Note_on_c, 2, 78, 65
3, 29952, Note_on_c, 2, 75, 75
3, 29952, Note_on_c, 2, 71, 65
3, 29971, Control_c, 2, 7, 83
3, 30028, Control_c, 2, 7, 82
3, 30086, Control_c, 2, 7, 81
3, 30144, Control_c, 2, 7, 80
3, 30201, Control_c, 2, 7, 79
3, 30246, Note_on_c, 2, 68, 0
3, 30258, Note_on_c, 2, 75, 0
3, 30259, Control_c, 2, 7, 78
3, 30260, Note_on_c, 2, 71, 0
3, 30262, Note_on_c, 2, 78, 0
3, 30316, Control_c, 2, 7, 77
3, 30336, Note_on_c, 2, 61, 65
3, 30374, Control_c, 2, 7, 76
3, 30432, Control_c, 2, 7, 75
3, 30489, Control_c, 2, 7, 74
3, 30547, Control_c, 2, 7, 73
3, 30604, Control_c, 2, 7, 72
3, 30662, Control_c, 2, 7, 71
3, 30677, Note_on_c, 2, 61, 0
3, 30720, Control_c, 2, 7, 70
3, 30720, Note_on_c, 2, 54, 75
3, 30777, Control_c, 2, 7, 69
3, 30835, Control_c, 2, 7, 68
3, 30868, Note_on_c, 2, 54, 0
3, 30880, Note_on_c, 2, 58, 75
3, 30892, Control_c, 2, 7, 67
3, 30910, Note_on_c, 2, 58, 0
3, 30912, Note_on_c, 2, 59, 75
3, 30950, Control_c, 2, 7, 66
3, 31000, Note_on_c, 2, 59, 0
3, 31008, Control_c, 2, 7, 65
3, 31008, Note_on_c, 2, 54, 75
3, 31065, Control_c, 2, 7, 64
3, 31070, Note_on_c, 2, 54, 0
3, 31072, Note_on_c, 2, 47, 75
3, 31104, Note_on_c, 2, 47, 0
3, 31104, Note_on_c, 2, 54, 75
3, 31123, Control_c, 2, 7, 63
3, 31180, Control_c, 2, 7, 62
3, 31192, Note_on_c, 2, 54, 0
3, 31200, Note_on_c, 2, 49, 75
3, 31238, Control_c, 2, 7, 61
3, 31295, Note_on_c, 2, 49, 0
3, 31296, Control_c, 2, 7, 60
3, 31296, Note_on_c, 2, 54, 75
3, 31331, Note_on_c, 2, 54, 0
3, 31331, End_track
4, 0, Start_track
4, 114, Control_c, 3, 7, 90
4, 1152, Note_on_c, 3, 45, 127
4, 1344, Note_on_c, 3, 45, 0
4, 1344, Control_c, 3, 121, 0
4, 1344, Control_c, 3, 91, 75
4, 1344, Control_c, 3, 7, 90
4, 1344, Program_c, 3, 25
4, 1344, Note_on_c, 3, 48, 127
4, 1344, Note_on_c, 3, 48, 127
4, 1344, Note_on_c, 3, 48, 127
4, 1431, Note_on_c, 3, 48, 0
4, 1431, Note_on_c, 3, 48, 0
4, 1440, Note_on_c, 3, 53, 127
4, 1440, Note_on_c, 3, 53, 127
4, 1492, Note_on_c, 3, 53, 0
4, 1492, Note_on_c, 3, 53, 0
4, 1504, Note_on_c, 3, 57, 127
4, 1504, Note_on_c, 3, 57, 127
4, 1536, Note_on_c, 3, 48, 0
4, 1898, Note_on_c, 3, 57, 0
4, 1898, Note_on_c, 3, 57, 0
4, 1920, Note_on_c, 3, 45, 127
4, 2112, Note_on_c, 3, 49, 127
4, 2116, Note_on_c, 3, 45, 0
4, 2199, Note_on_c, 3, 49, 0
4, 2208, Note_on_c, 3, 52, 127
4, 2259, Note_on_c, 3, 52, 0
4, 2272, Note_on_c, 3, 57, 127
4, 2606, Note_on_c, 3, 57, 0
4, 2784, Note_on_c, 3, 58, 127
4, 2927, Note_on_c, 3, 58, 0
4, 2944, Note_on_c, 3, 57, 127
4, 3008, Note_on_c, 3, 54, 127
4, 3011, Note_on_c, 3, 57, 0
4, 3046, Note_on_c, 3, 54, 0
4, 3072, Note_on_c, 3, 50, 127
4, 3345, Note_on_c, 3, 50, 0
4, 3360, Note_on_c, 3, 48, 127
4, 3436, Note_on_c, 3, 48, 0
4, 3456, Note_on_c, 3, 47, 127
4, 3639, Note_on_c, 3, 47, 0
4, 3648, Note_on_c, 3, 50, 127
4, 3734, Note_on_c, 3, 50, 0
4, 3744, Note_on_c, 3, 57, 127
4, 3797, Note_on_c, 3, 57, 0
4, 3808, Note_on_c, 3, 55, 127
4, 4098, Note_on_c, 3, 55, 0
4, 4224, Note_on_c, 3, 46, 127
4, 4407, Note_on_c, 3, 46, 0
4, 4416, Note_on_c, 3, 48, 127
4, 4497, Note_on_c, 3, 48, 0
4, 4512, Note_on_c, 3, 52, 127
4, 4569, Note_on_c, 3, 52, 0
4, 4576, Note_on_c, 3, 55, 127
4, 4902, Note_on_c, 3, 55, 0
4, 4992, Note_on_c, 3, 45, 127
4, 5171, Note_on_c, 3, 45, 0
4, 5184, Note_on_c, 3, 48, 127
4, 5278, Note_on_c, 3, 48, 0
4, 5280, Note_on_c, 3, 53, 127
4, 5340, Note_on_c, 3, 53, 0
4, 5344, Note_on_c, 3, 57, 127
4, 5664, Note_on_c, 3, 57, 0
4, 5760, Note_on_c, 3, 55, 127
4, 5949, Note_on_c, 3, 55, 0
4, 5952, Note_on_c, 3, 52, 127
4, 6044, Note_on_c, 3, 52, 0
4, 6048, Note_on_c, 3, 53, 127
4, 6106, Note_on_c, 3, 53, 0
4, 6112, Note_on_c, 3, 55, 127
4, 6384, Note_on_c, 3, 55, 0
4, 6400, Note_on_c, 3, 53, 127
4, 6464, Note_on_c, 3, 52, 127
4, 6467, Note_on_c, 3, 53, 0
4, 6496, Note_on_c, 3, 50, 127
4, 6498, Note_on_c, 3, 52, 0
4, 6528, Note_on_c, 3, 55, 127
4, 6529, Note_on_c, 3, 50, 0
4, 6723, Note_on_c, 3, 55, 0
4, 7296, Note_on_c, 3, 45, 127
4, 7488, Note_on_c, 3, 45, 0
4, 7488, Note_on_c, 3, 48, 127
4, 7575, Note_on_c, 3, 48, 0
4, 7584, Note_on_c, 3, 53, 127
4, 7636, Note_on_c, 3, 53, 0
4, 7648, Note_on_c, 3, 57, 127
4, 8042, Note_on_c, 3, 57, 0
4, 8064, Note_on_c, 3, 45, 127
4, 8256, Note_on_c, 3, 49, 127
4, 8260, Note_on_c, 3, 45, 0
4, 8343, Note_on_c, 3, 49, 0
4, 8352, Note_on_c, 3, 52, 127
4, 8403, Note_on_c, 3, 52, 0
4, 8416, Note_on_c, 3, 57, 127
4, 8750, Note_on_c, 3, 57, 0
4, 8928, Note_on_c, 3, 58, 127
4, 9071, Note_on_c, 3, 58, 0
4, 9088, Note_on_c, 3, 57, 127
4, 9152, Note_on_c, 3, 54, 127
4, 9155, Note_on_c, 3, 57, 0
4, 9190, Note_on_c, 3, 54, 0
4, 9216, Note_on_c, 3, 57, 127
4, 9305, Note_on_c, 3, 57, 0
4, 9312, Note_on_c, 3, 58, 127
4, 9492, Note_on_c, 3, 58, 0
4, 9504, Note_on_c, 3, 57, 127
4, 9583, Note_on_c, 3, 57, 0
4, 9600, Note_on_c, 3, 55, 127
4, 9664, Note_on_c, 3, 57, 127
4, 9666, Note_on_c, 3, 55, 0
4, 9728, Note_on_c, 3, 55, 127
4, 9738, Note_on_c, 3, 57, 0
4, 9784, Note_on_c, 3, 55, 0
4, 9792, Note_on_c, 3, 50, 127
4, 10146, Note_on_c, 3, 50, 0
4, 10368, Note_on_c, 3, 58, 127
4, 10611, Note_on_c, 3, 58, 0
4, 10624, Note_on_c, 3, 57, 127
4, 10685, Note_on_c, 3, 57, 0
4, 10688, Note_on_c, 3, 55, 127
4, 10744, Note_on_c, 3, 55, 0
4, 10752, Note_on_c, 3, 58, 127
4, 11112, Note_on_c, 3, 58, 0
4, 11136, Note_on_c, 3, 57, 127
4, 11389, Note_on_c, 3, 57, 0
4, 11392, Note_on_c, 3, 55, 127
4, 11456, Note_on_c, 3, 55, 0
4, 11456, Note_on_c, 3, 53, 127
4, 11505, Note_on_c, 3, 53, 0
4, 11520, Note_on_c, 3, 57, 127
4, 11836, Note_on_c, 3, 57, 0
4, 11904, Note_on_c, 3, 50, 127
4, 12088, Note_on_c, 3, 50, 0
4, 12096, Note_on_c, 3, 52, 127
4, 12183, Note_on_c, 3, 52, 0
4, 12192, Note_on_c, 3, 53, 127
4, 12235, Note_on_c, 3, 53, 0
4, 12256, Note_on_c, 3, 55, 127
4, 12460, Note_on_c, 3, 55, 0
4, 12480, Note_on_c, 3, 57, 127
4, 12572, Note_on_c, 3, 57, 0
4, 12576, Note_on_c, 3, 48, 127
4, 12640, Note_on_c, 3, 48, 0
4, 12640, Note_on_c, 3, 53, 127
4, 12640, Program_c, 3, 0
4, 13048, Note_on_c, 3, 53, 0
4, 13056, Note_on_c, 3, 57, 127
4, 13248, Note_on_c, 3, 57, 0
4, 13248, Note_on_c, 3, 60, 127
4, 13248, Note_on_c, 3, 60, 127
4, 13248, Note_on_c, 3, 60, 127
4, 13335, Note_on_c, 3, 60, 0
4, 13335, Note_on_c, 3, 60, 0
4, 13344, Note_on_c, 3, 65, 127
4, 13344, Note_on_c, 3, 65, 127
4, 13396, Note_on_c, 3, 65, 0
4, 13396, Note_on_c, 3, 65, 0
4, 13408, Note_on_c, 3, 69, 127
4, 13408, Note_on_c, 3, 69, 127
4, 13440, Note_on_c, 3, 60, 0
4, 13802, Note_on_c, 3, 69, 0
4, 13802, Note_on_c, 3, 69, 0
4, 13824, Note_on_c, 3, 57, 127
4, 14016, Note_on_c, 3, 61, 127
4, 14020, Note_on_c, 3, 57, 0
4, 14103, Note_on_c, 3, 61, 0
4, 14112, Note_on_c, 3, 64, 127
4, 14163, Note_on_c, 3, 64, 0
4, 14176, Note_on_c, 3, 69, 127
4, 14510, Note_on_c, 3, 69, 0
4, 14688, Note_on_c, 3, 70, 127
4, 14831, Note_on_c, 3, 70, 0
4, 14848, Note_on_c, 3, 69, 127
4, 14912, Note_on_c, 3, 66, 127
4, 14915, Note_on_c, 3, 69, 0
4, 14950, Note_on_c, 3, 66, 0
4, 14976, Note_on_c, 3, 62, 127
4, 15249, Note_on_c, 3, 62, 0
4, 15264, Note_on_c, 3, 60, 127
4, 15340, Note_on_c, 3, 60, 0
4, 15360, Note_on_c, 3, 59, 127
4, 15543, Note_on_c, 3, 59, 0
4, 15552, Note_on_c, 3, 62, 127
4, 15638, Note_on_c, 3, 62, 0
4, 15648, Note_on_c, 3, 69, 127
4, 15701, Note_on_c, 3, 69, 0
4, 15712, Note_on_c, 3, 67, 127
4, 16002, Note_on_c, 3, 67, 0
4, 16128, Note_on_c, 3, 58, 127
4, 16311, Note_on_c, 3, 58, 0
4, 16320, Note_on_c, 3, 60, 127
4, 16401, Note_on_c, 3, 60, 0
4, 16416, Note_on_c, 3, 64, 127
4, 16473, Note_on_c, 3, 64, 0
4, 16480, Note_on_c, 3, 67, 127
4, 16806, Note_on_c, 3, 67, 0
4, 16896, Note_on_c, 3, 57, 127
4, 17075, Note_on_c, 3, 57, 0
4, 17088, Note_on_c, 3, 60, 127
4, 17182, Note_on_c, 3, 60, 0
4, 17184, Note_on_c, 3, 65, 127
4, 17244, Note_on_c, 3, 65, 0
4, 17248, Note_on_c, 3, 69, 127
4, 17568, Note_on_c, 3, 69, 0
4, 17664, Note_on_c, 3, 67, 127
4, 17853, Note_on_c, 3, 67, 0
4, 17856, Note_on_c, 3, 64, 127
4, 17948, Note_on_c, 3, 64, 0
4, 17952, Note_on_c, 3, 65, 127
4, 18010, Note_on_c, 3, 65, 0
4, 18016, Note_on_c, 3, 67, 127
4, 18288, Note_on_c, 3, 67, 0
4, 18304, Note_on_c, 3, 65, 127
4, 18368, Note_on_c, 3, 64, 127
4, 18371, Note_on_c, 3, 65, 0
4, 18400, Note_on_c, 3, 62, 127
4, 18402, Note_on_c, 3, 64, 0
4, 18432, Note_on_c, 3, 67, 127
4, 18433, Note_on_c, 3, 62, 0
4, 18627, Note_on_c, 3, 67, 0
4, 19200, Note_on_c, 3, 57, 127
4, 19392, Note_on_c, 3, 57, 0
4, 19392, Note_on_c, 3, 60, 127
4, 19479, Note_on_c, 3, 60, 0
4, 19488, Note_on_c, 3, 65, 127
4, 19540, Note_on_c, 3, 65, 0
4, 19552, Note_on_c, 3, 69, 127
4, 19946, Note_on_c, 3, 69, 0
4, 19968, Note_on_c, 3, 57, 127
4, 20160, Note_on_c, 3, 61, 127
4, 20164, Note_on_c, 3, 57, 0
4, 20247, Note_on_c, 3, 61, 0
4, 20256, Note_on_c, 3, 64, 127
4, 20307, Note_on_c, 3, 64, 0
4, 20320, Note_on_c, 3, 69, 127
4, 20654, Note_on_c, 3, 69, 0
4, 20832, Note_on_c, 3, 70, 127
4, 20975, Note_on_c, 3, 70, 0
4, 20992, Note_on_c, 3, 69, 127
4, 21056, Note_on_c, 3, 66, 127
4, 21059, Note_on_c, 3, 69, 0
4, 21094, Note_on_c, 3, 66, 0
4, 21120, Note_on_c, 3, 69, 127
4, 21209, Note_on_c, 3, 69, 0
4, 21216, Note_on_c, 3, 70, 127
4, 21396, Note_on_c, 3, 70, 0
4, 21408, Note_on_c, 3, 69, 127
4, 21487, Note_on_c, 3, 69, 0
4, 21504, Note_on_c, 3, 67, 127
4, 21568, Note_on_c, 3, 69, 127
4, 21570, Note_on_c, 3, 67, 0
4, 21632, Note_on_c, 3, 67, 127
4, 21642, Note_on_c, 3, 69, 0
4, 21688, Note_on_c, 3, 67, 0
4, 21696, Note_on_c, 3, 62, 127
4, 22050, Note_on_c, 3, 62, 0
4, 22272, Note_on_c, 3, 70, 127
4, 22515, Note_on_c, 3, 70, 0
4, 22528, Note_on_c, 3, 69, 127
4, 22589, Note_on_c, 3, 69, 0
4, 22592, Note_on_c, 3, 67, 127
4, 22648, Note_on_c, 3, 67, 0
4, 22656, Note_on_c, 3, 70, 127
4, 23016, Note_on_c, 3, 70, 0
4, 23040, Note_on_c, 3, 69, 127
4, 23293, Note_on_c, 3, 69, 0
4, 23296, Note_on_c, 3, 67, 127
4, 23360, Note_on_c, 3, 67, 0
4, 23360, Note_on_c, 3, 65, 127
4, 23409, Note_on_c, 3, 65, 0
4, 23424, Note_on_c, 3, 69, 127
4, 23740, Note_on_c, 3, 69, 0
4, 23808, Note_on_c, 3, 62, 127
4, 23992, Note_on_c, 3, 62, 0
4, 24000, Note_on_c, 3, 64, 127
4, 24087, Note_on_c, 3, 64, 0
4, 24096, Note_on_c, 3, 65, 127
4, 24139, Note_on_c, 3, 65, 0
4, 24160, Note_on_c, 3, 67, 127
4, 24364, Note_on_c, 3, 67, 0
4, 24384, Note_on_c, 3, 69, 127
4, 24476, Note_on_c, 3, 69, 0
4, 24480, Note_on_c, 3, 60, 127
4, 24544, Note_on_c, 3, 60, 0
4, 24544, Note_on_c, 3, 65, 127
4, 24952, Note_on_c, 3, 65, 0
4, 25344, Program_c, 3, 11
4, 25344, Note_on_c, 3, 58, 127
4, 25536, Note_on_c, 3, 58, 0
4, 25536, Note_on_c, 3, 61, 127
4, 25623, Note_on_c, 3, 61, 0
4, 25632, Note_on_c, 3, 66, 127
4, 25684, Note_on_c, 3, 66, 0
4, 25696, Note_on_c, 3, 70, 127
4, 26090, Note_on_c, 3, 70, 0
4, 26112, Note_on_c, 3, 58, 127
4, 26304, Note_on_c, 3, 62, 127
4, 26308, Note_on_c, 3, 58, 0
4, 26391, Note_on_c, 3, 62, 0
4, 26400, Note_on_c, 3, 65, 127
4, 26451, Note_on_c, 3, 65, 0
4, 26464, Note_on_c, 3, 70, 127
4, 26798, Note_on_c, 3, 70, 0
4, 26976, Note_on_c, 3, 71, 127
4, 27119, Note_on_c, 3, 71, 0
4, 27136, Note_on_c, 3, 70, 127
4, 27200, Note_on_c, 3, 67, 127
4, 27203, Note_on_c, 3, 70, 0
4, 27238, Note_on_c, 3, 67, 0
4, 27264, Note_on_c, 3, 70, 127
4, 27353, Note_on_c, 3, 70, 0
4, 27360, Note_on_c, 3, 71, 127
4, 27540, Note_on_c, 3, 71, 0
4, 27552, Note_on_c, 3, 70, 127
4, 27631, Note_on_c, 3, 70, 0
4, 27648, Note_on_c, 3, 68, 127
4, 27712, Note_on_c, 3, 70, 127
4, 27714, Note_on_c, 3, 68, 0
4, 27776, Note_on_c, 3, 68, 127
4, 27786, Note_on_c, 3, 70, 0
4, 27832, Note_on_c, 3, 68, 0
4, 27840, Note_on_c, 3, 63, 127
4, 28194, Note_on_c, 3, 63, 0
4, 28416, Note_on_c, 3, 71, 127
4, 28659, Note_on_c, 3, 71, 0
4, 28672, Note_on_c, 3, 70, 127
4, 28733, Note_on_c, 3, 70, 0
4, 28736, Note_on_c, 3, 68, 127
4, 28792, Note_on_c, 3, 68, 0
4, 28800, Note_on_c, 3, 71, 127
4, 29160, Note_on_c, 3, 71, 0
4, 29184, Note_on_c, 3, 70, 127
4, 29437, Note_on_c, 3, 70, 0
4, 29440, Note_on_c, 3, 68, 127
4, 29504, Note_on_c, 3, 68, 0
4, 29504, Note_on_c, 3, 66, 127
4, 29553, Note_on_c, 3, 66, 0
4, 29568, Control_c, 3, 7, 90
4, 29568, Note_on_c, 3, 70, 127
4, 29625, Control_c, 3, 7, 89
4, 29683, Control_c, 3, 7, 88
4, 29740, Control_c, 3, 7, 87
4, 29798, Control_c, 3, 7, 86
4, 29856, Control_c, 3, 7, 85
4, 29884, Note_on_c, 3, 70, 0
4, 29913, Control_c, 3, 7, 84
4, 29971, Control_c, 3, 7, 83
4, 30028, Control_c, 3, 7, 82
4, 30048, Note_on_c, 3, 63, 127
4, 30086, Control_c, 3, 7, 81
4, 30144, Control_c, 3, 7, 80
4, 30144, Note_on_c, 3, 65, 127
4, 30146, Note_on_c, 3, 63, 0
4, 30201, Control_c, 3, 7, 79
4, 30231, Note_on_c, 3, 65, 0
4, 30240, Note_on_c, 3, 66, 127
4, 30259, Control_c, 3, 7, 78
4, 30316, Control_c, 3, 7, 77
4, 30334, Note_on_c, 3, 66, 0
4, 30336, Note_on_c, 3, 68, 127
4, 30374, Control_c, 3, 7, 76
4, 30432, Control_c, 3, 7, 75
4, 30489, Control_c, 3, 7, 74
4, 30508, Note_on_c, 3, 68, 0
4, 30528, Note_on_c, 3, 70, 127
4, 30547, Control_c, 3, 7, 73
4, 30604, Control_c, 3, 7, 72
4, 30624, Note_on_c, 3, 70, 0
4, 30624, Note_on_c, 3, 61, 127
4, 30662, Control_c, 3, 7, 71
4, 30717, Note_on_c, 3, 61, 0
4, 30720, Control_c, 3, 7, 70
4, 30720, Note_on_c, 3, 66, 127
4, 30777, Control_c, 3, 7, 69
4, 30835, Control_c, 3, 7, 68
4, 30892, Control_c, 3, 7, 67
4, 30950, Control_c, 3, 7, 66
4, 31008, Control_c, 3, 7, 65
4, 31027, Note_on_c, 3, 66, 0
4, 31065, Control_c, 3, 7, 64
4, 31123, Control_c, 3, 7, 63
4, 31180, Control_c, 3, 7, 62
4, 31238, Control_c, 3, 7, 61
4, 31296, Control_c, 3, 7, 60
4, 31296, End_track
5, 0, Start_track
5, 118, Program_c, 4, 18
5, 119, Control_c, 4, 7, 80
5, 384, Control_c, 4, 121, 0
5, 384, Control_c, 4, 91, 55
5, 384, Control_c, 4, 7, 70
5, 768, Note_on_c, 4, 76, 51
5, 768, Note_on_c, 4, 70, 51
5, 768, Note_on_c, 4, 72, 51
5, 778, Note_on_c, 4, 70, 0
5, 779, Note_on_c, 4, 72, 0
5, 781, Note_on_c, 4, 76, 0
5, 800, Note_on_c, 4, 76, 51
5, 800, Note_on_c, 4, 70, 47
5, 800, Note_on_c, 4, 72, 51
5, 810, Note_on_c, 4, 70, 0
5, 812, Note_on_c, 4, 72, 0
5, 812, Note_on_c, 4, 76, 0
5, 832, Note_on_c, 4, 76, 51
5, 832, Note_on_c, 4, 70, 51
5, 832, Note_on_c, 4, 72, 51
5, 843, Note_on_c, 4, 70, 0
5, 844, Note_on_c, 4, 72, 0
5, 844, Note_on_c, 4, 76, 0
5, 864, Note_on_c, 4, 76, 51
5, 864, Note_on_c, 4, 36, 51
5, 864, Note_on_c, 4, 46, 51
5, 864, Note_on_c, 4, 72, 51
5, 864, Note_on_c, 4, 52, 51
5, 864, Note_on_c, 4, 70, 51
5, 864, Note_on_c, 4, 43, 51
5, 874, Note_on_c, 4, 70, 0
5, 876, Note_on_c, 4, 72, 0
5, 878, Note_on_c, 4, 76, 0
5, 896, Note_on_c, 4, 70, 39
5, 896, Note_on_c, 4, 76, 51
5, 896, Note_on_c, 4, 72, 51
5, 904, Note_on_c, 4, 46, 0
5, 906, Note_on_c, 4, 70, 0
5, 907, Note_on_c, 4, 52, 0
5, 907, Note_on_c, 4, 72, 0
5, 909, Note_on_c, 4, 76, 0
5, 912, Note_on_c, 4, 43, 0
5, 913, Note_on_c, 4, 36, 0
5, 928, Note_on_c, 4, 70, 39
5, 928, Note_on_c, 4, 72, 51
5, 928, Note_on_c, 4, 76, 51
5, 938, Note_on_c, 4, 70, 0
5, 940, Note_on_c, 4, 72, 0
5, 941, Note_on_c, 4, 76, 0
5, 960, Note_on_c, 4, 74, 51
5, 960, Note_on_c, 4, 36, 51
5, 960, Note_on_c, 4, 77, 51
5, 960, Note_on_c, 4, 70, 51
5, 960, Note_on_c, 4, 50, 51
5, 960, Note_on_c, 4, 53, 51
5, 972, Note_on_c, 4, 77, 0
5, 972, Note_on_c, 4, 74, 0
5, 973, Note_on_c, 4, 70, 0
5, 992, Note_on_c, 4, 77, 51
5, 992, Note_on_c, 4, 70, 47
5, 992, Note_on_c, 4, 74, 51
5, 1002, Note_on_c, 4, 70, 0
5, 1004, Note_on_c, 4, 74, 0
5, 1005, Note_on_c, 4, 77, 0
5, 1014, Note_on_c, 4, 53, 0
5, 1015, Note_on_c, 4, 50, 0
5, 1024, Note_on_c, 4, 70, 47
5, 1024, Note_on_c, 4, 77, 51
5, 1024, Note_on_c, 4, 74, 51
5, 1029, Note_on_c, 4, 36, 0
5, 1034, Note_on_c, 4, 70, 0
5, 1036, Note_on_c, 4, 74, 0
5, 1037, Note_on_c, 4, 77, 0
5, 1056, Note_on_c, 4, 79, 51
5, 1056, Note_on_c, 4, 55, 51
5, 1056, Note_on_c, 4, 52, 51
5, 1056, Note_on_c, 4, 76, 51
5, 1056, Note_on_c, 4, 36, 51
5, 1056, Note_on_c, 4, 70, 51
5, 1067, Note_on_c, 4, 70, 0
5, 1070, Note_on_c, 4, 76, 0
5, 1071, Note_on_c, 4, 79, 0
5, 1088, Note_on_c, 4, 79, 51
5, 1088, Note_on_c, 4, 76, 51
5, 1088, Note_on_c, 4, 70, 47
5, 1098, Note_on_c, 4, 70, 0
5, 1100, Note_on_c, 4, 76, 0
5, 1102, Note_on_c, 4, 79, 0
5, 1120, Note_on_c, 4, 76, 51
5, 1120, Note_on_c, 4, 79, 51
5, 1120, Note_on_c, 4, 70, 51
5, 1121, Note_on_c, 4, 52, 0
5, 1122, Note_on_c, 4, 55, 0
5, 1124, Note_on_c, 4, 36, 0
5, 1130, Note_on_c, 4, 70, 0
5, 1132, Note_on_c, 4, 79, 0
5, 1132, Note_on_c, 4, 76, 0
5, 1152, Note_on_c, 4, 81, 51
5, 1152, Note_on_c, 4, 72, 51
5, 1152, Note_on_c, 4, 77, 51
5, 1161, Note_on_c, 4, 77, 0
5, 1162, Note_on_c, 4, 72, 0
5, 1162, Note_on_c, 4, 81, 0
5, 1184, Note_on_c, 4, 81, 51
5, 1184, Note_on_c, 4, 77, 51
5, 1184, Note_on_c, 4, 72, 39
5, 1194, Note_on_c, 4, 77, 0
5, 1195, Note_on_c, 4, 72, 0
5, 1195, Note_on_c, 4, 81, 0
5, 1216, Note_on_c, 4, 72, 43
5, 1216, Note_on_c, 4, 81, 51
5, 1216, Note_on_c, 4, 77, 51
5, 1225, Note_on_c, 4, 77, 0
5, 1226, Note_on_c, 4, 81, 0
5, 1226, Note_on_c, 4, 72, 0
5, 1248, Note_on_c, 4, 81, 51
5, 1248, Note_on_c, 4, 72, 51
5, 1248, Note_on_c, 4, 77, 51
5, 1258, Note_on_c, 4, 77, 0
5, 1258, Note_on_c, 4, 72, 0
5, 1260, Note_on_c, 4, 81, 0
5, 1280, Note_on_c, 4, 72, 47
5, 1280, Note_on_c, 4, 77, 51
5, 1280, Note_on_c, 4, 81, 51
5, 1289, Note_on_c, 4, 77, 0
5, 1290, Note_on_c, 4, 72, 0
5, 1291, Note_on_c, 4, 81, 0
5, 1312, Note_on_c, 4, 72, 47
5, 1312, Note_on_c, 4, 81, 51
5, 1312, Note_on_c, 4, 77, 51
5, 1321, Note_on_c, 4, 77, 0
5, 1321, Note_on_c, 4, 72, 0
5, 1323, Note_on_c, 4, 81, 0
5, 1344, Note_on_c, 4, 72, 47
5, 1344, Note_on_c, 4, 81, 51
5, 1344, Note_on_c, 4, 77, 51
5, 1354, Note_on_c, 4, 77, 0
5, 1354, Note_on_c, 4, 72, 0
5, 1356, Note_on_c, 4, 81, 0
5, 1376, Note_on_c, 4, 81, 51
5, 1376, Note_on_c, 4, 77, 51
5, 1376, Note_on_c, 4, 72, 43
5, 1384, Note_on_c, 4, 77, 0
5, 1386, Note_on_c, 4, 72, 0
5, 1386, Note_on_c, 4, 81, 0
5, 1408, Note_on_c, 4, 81, 51
5, 1408, Note_on_c, 4, 77, 51
5, 1408, Note_on_c, 4, 72, 47
5, 1417, Note_on_c, 4, 77, 0
5, 1418, Note_on_c, 4, 72, 0
5, 1419, Note_on_c, 4, 81, 0
5, 1440, Note_on_c, 4, 72, 51
5, 1440, Note_on_c, 4, 81, 51
5, 1440, Note_on_c, 4, 77, 51
5, 1450, Note_on_c, 4, 77, 0
5, 1450, Note_on_c, 4, 72, 0
5, 1452, Note_on_c, 4, 81, 0
5, 1472, Note_on_c, 4, 81, 51
5, 1472, Note_on_c, 4, 77, 51
5, 1472, Note_on_c, 4, 72, 47
5, 1482, Note_on_c, 4, 72, 0
5, 1482, Note_on_c, 4, 77, 0
5, 1484, Note_on_c, 4, 81, 0
5, 1504, Note_on_c, 4, 72, 39
5, 1504, Note_on_c, 4, 81, 51
5, 1504, Note_on_c, 4, 77, 51
5, 1513, Note_on_c, 4, 77, 0
5, 1514, Note_on_c, 4, 72, 0
5, 1516, Note_on_c, 4, 81, 0
5, 1536, Note_on_c, 4, 72, 51
5, 1536, Note_on_c, 4, 77, 51
5, 1536, Note_on_c, 4, 81, 51
5, 1545, Note_on_c, 4, 77, 0
5, 1546, Note_on_c, 4, 72, 0
5, 1548, Note_on_c, 4, 81, 0
5, 1568, Note_on_c, 4, 72, 39
5, 1568, Note_on_c, 4, 77, 51
5, 1568, Note_on_c, 4, 81, 51
5, 1577, Note_on_c, 4, 77, 0
5, 1578, Note_on_c, 4, 72, 0
5, 1580, Note_on_c, 4, 81, 0
5, 1600, Note_on_c, 4, 77, 51
5, 1600, Note_on_c, 4, 81, 51
5, 1600, Note_on_c, 4, 72, 32
5, 1610, Note_on_c, 4, 72, 0
5, 1610, Note_on_c, 4, 77, 0
5, 1611, Note_on_c, 4, 81, 0
5, 1632, Note_on_c, 4, 72, 43
5, 1632, Note_on_c, 4, 77, 51
5, 1632, Note_on_c, 4, 81, 51
5, 1643, Note_on_c, 4, 77, 0
5, 1643, Note_on_c, 4, 72, 0
5, 1644, Note_on_c, 4, 81, 0
5, 1664, Note_on_c, 4, 81, 51
5, 1664, Note_on_c, 4, 77, 51
5, 1664, Note_on_c, 4, 72, 43
5, 1675, Note_on_c, 4, 77, 0
5, 1676, Note_on_c, 4, 72, 0
5, 1678, Note_on_c, 4, 81, 0
5, 1696, Note_on_c, 4, 81, 51
5, 1696, Note_on_c, 4, 72, 47
5, 1696, Note_on_c, 4, 77, 51
5, 1707, Note_on_c, 4, 77, 0
5, 1708, Note_on_c, 4, 72, 0
5, 1708, Note_on_c, 4, 81, 0
5, 1728, Note_on_c, 4, 72, 51
5, 1728, Note_on_c, 4, 77, 51
5, 1728, Note_on_c, 4, 81, 51
5, 1739, Note_on_c, 4, 77, 0
5, 1739, Note_on_c, 4, 72, 0
5, 1740, Note_on_c, 4, 81, 0
5, 1760, Note_on_c, 4, 81, 51
5, 1760, Note_on_c, 4, 77, 51
5, 1760, Note_on_c, 4, 72, 32
5, 1771, Note_on_c, 4, 72, 0
5, 1771, Note_on_c, 4, 77, 0
5, 1772, Note_on_c, 4, 81, 0
5, 1792, Note_on_c, 4, 77, 51
5, 1792, Note_on_c, 4, 72, 30
5, 1792, Note_on_c, 4, 81, 51
5, 1803, Note_on_c, 4, 72, 0
5, 1804, Note_on_c, 4, 81, 0
5, 1804, Note_on_c, 4, 77, 0
5, 1824, Note_on_c, 4, 72, 39
5, 1824, Note_on_c, 4, 81, 51
5, 1824, Note_on_c, 4, 77, 51
5, 1835, Note_on_c, 4, 72, 0
5, 1836, Note_on_c, 4, 77, 0
5, 1838, Note_on_c, 4, 81, 0
5, 1856, Note_on_c, 4, 77, 51
5, 1856, Note_on_c, 4, 72, 30
5, 1856, Note_on_c, 4, 81, 51
5, 1866, Note_on_c, 4, 72, 0
5, 1867, Note_on_c, 4, 77, 0
5, 1868, Note_on_c, 4, 81, 0
5, 1888, Note_on_c, 4, 72, 47
5, 1888, Note_on_c, 4, 77, 51
5, 1888, Note_on_c, 4, 81, 51
5, 1899, Note_on_c, 4, 77, 0
5, 1900, Note_on_c, 4, 72, 0
5, 1901, Note_on_c, 4, 81, 0
5, 1920, Note_on_c, 4, 76, 51
5, 1920, Note_on_c, 4, 81, 51
5, 1920, Note_on_c, 4, 73, 51
5, 1930, Note_on_c, 4, 73, 0
5, 1931, Note_on_c, 4, 76, 0
5, 1932, Note_on_c, 4, 81, 0
5, 1952, Note_on_c, 4, 76, 51
5, 1952, Note_on_c, 4, 81, 51
5, 1952, Note_on_c, 4, 73, 35
5, 1961, Note_on_c, 4, 73, 0
5, 1962, Note_on_c, 4, 81, 0
5, 1963, Note_on_c, 4, 76, 0
5, 1984, Note_on_c, 4, 76, 51
5, 1984, Note_on_c, 4, 81, 51
5, 1984, Note_on_c, 4, 73, 28
5, 1993, Note_on_c, 4, 73, 0
5, 1994, Note_on_c, 4, 76, 0
5, 1995, Note_on_c, 4, 81, 0
5, 2016, Note_on_c, 4, 73, 47
5, 2016, Note_on_c, 4, 76, 51
5, 2016, Note_on_c, 4, 81, 51
5, 2024, Note_on_c, 4, 73, 0
5, 2026, Note_on_c, 4, 76, 0
5, 2027, Note_on_c, 4, 81, 0
5, 2048, Note_on_c, 4, 76, 51
5, 2048, Note_on_c, 4, 73, 27
5, 2048, Note_on_c, 4, 81, 51
5, 2055, Note_on_c, 4, 73, 0
5, 2058, Note_on_c, 4, 81, 0
5, 2058, Note_on_c, 4, 76, 0
5, 2080, Note_on_c, 4, 81, 51
5, 2080, Note_on_c, 4, 73, 39
5, 2080, Note_on_c, 4, 76, 51
5, 2089, Note_on_c, 4, 73, 0
5, 2090, Note_on_c, 4, 76, 0
5, 2090, Note_on_c, 4, 81, 0
5, 2112, Note_on_c, 4, 81, 51
5, 2112, Note_on_c, 4, 76, 51
5, 2112, Note_on_c, 4, 73, 35
5, 2121, Note_on_c, 4, 73, 0
5, 2122, Note_on_c, 4, 76, 0
5, 2122, Note_on_c, 4, 81, 0
5, 2144, Note_on_c, 4, 76, 51
5, 2144, Note_on_c, 4, 73, 35
5, 2144, Note_on_c, 4, 81, 51
5, 2153, Note_on_c, 4, 73, 0
5, 2153, Note_on_c, 4, 76, 0
5, 2154, Note_on_c, 4, 81, 0
5, 2176, Note_on_c, 4, 76, 51
5, 2176, Note_on_c, 4, 73, 43
5, 2176, Note_on_c, 4, 81, 51
5, 2185, Note_on_c, 4, 81, 0
5, 2185, Note_on_c, 4, 73, 0
5, 2185, Note_on_c, 4, 76, 0
5, 2208, Note_on_c, 4, 81, 51
5, 2208, Note_on_c, 4, 76, 51
5, 2208, Note_on_c, 4, 73, 35
5, 2217, Note_on_c, 4, 73, 0
5, 2218, Note_on_c, 4, 76, 0
5, 2218, Note_on_c, 4, 81, 0
5, 2240, Note_on_c, 4, 76, 51
5, 2240, Note_on_c, 4, 81, 51
5, 2240, Note_on_c, 4, 73, 35
5, 2249, Note_on_c, 4, 73, 0
5, 2249, Note_on_c, 4, 76, 0
5, 2251, Note_on_c, 4, 81, 0
5, 2272, Note_on_c, 4, 73, 43
5, 2272, Note_on_c, 4, 81, 51
5, 2272, Note_on_c, 4, 76, 51
5, 2281, Note_on_c, 4, 73, 0
5, 2282, Note_on_c, 4, 76, 0
5, 2282, Note_on_c, 4, 81, 0
5, 2304, Note_on_c, 4, 81, 51
5, 2304, Note_on_c, 4, 73, 39
5, 2304, Note_on_c, 4, 76, 51
5, 2313, Note_on_c, 4, 76, 0
5, 2313, Note_on_c, 4, 73, 0
5, 2315, Note_on_c, 4, 81, 0
5, 2336, Note_on_c, 4, 81, 51
5, 2336, Note_on_c, 4, 73, 39
5, 2336, Note_on_c, 4, 76, 51
5, 2345, Note_on_c, 4, 73, 0
5, 2346, Note_on_c, 4, 76, 0
5, 2347, Note_on_c, 4, 81, 0
5, 2368, Note_on_c, 4, 73, 39
5, 2368, Note_on_c, 4, 81, 51
5, 2368, Note_on_c, 4, 76, 51
5, 2376, Note_on_c, 4, 73, 0
5, 2377, Note_on_c, 4, 76, 0
5, 2377, Note_on_c, 4, 81, 0
5, 2400, Note_on_c, 4, 81, 51
5, 2400, Note_on_c, 4, 76, 51
5, 2400, Note_on_c, 4, 73, 51
5, 2409, Note_on_c, 4, 73, 0
5, 2410, Note_on_c, 4, 76, 0
5, 2410, Note_on_c, 4, 81, 0
5, 2432, Note_on_c, 4, 73, 43
5, 2432, Note_on_c, 4, 81, 51
5, 2432, Note_on_c, 4, 76, 51
5, 2441, Note_on_c, 4, 76, 0
5, 2441, Note_on_c, 4, 73, 0
5, 2442, Note_on_c, 4, 81, 0
5, 2464, Note_on_c, 4, 81, 51
5, 2464, Note_on_c, 4, 76, 51
5, 2464, Note_on_c, 4, 73, 43
5, 2472, Note_on_c, 4, 73, 0
5, 2473, Note_on_c, 4, 76, 0
5, 2474, Note_on_c, 4, 81, 0
5, 2496, Note_on_c, 4, 81, 51
5, 2496, Note_on_c, 4, 73, 51
5, 2496, Note_on_c, 4, 76, 51
5, 2505, Note_on_c, 4, 73, 0
5, 2506, Note_on_c, 4, 76, 0
5, 2506, Note_on_c, 4, 81, 0
5, 2528, Note_on_c, 4, 81, 51
5, 2528, Note_on_c, 4, 76, 51
5, 2528, Note_on_c, 4, 73, 39
5, 2536, Note_on_c, 4, 73, 0
5, 2537, Note_on_c, 4, 76, 0
5, 2538, Note_on_c, 4, 81, 0
5, 2560, Note_on_c, 4, 81, 51
5, 2560, Note_on_c, 4, 76, 51
5, 2560, Note_on_c, 4, 73, 39
5, 2568, Note_on_c, 4, 73, 0
5, 2569, Note_on_c, 4, 76, 0
5, 2571, Note_on_c, 4, 81, 0
5, 2592, Note_on_c, 4, 76, 51
5, 2592, Note_on_c, 4, 81, 51
5, 2592, Note_on_c, 4, 73, 39
5, 2600, Note_on_c, 4, 81, 0
5, 2601, Note_on_c, 4, 73, 0
5, 2602, Note_on_c, 4, 76, 0
5, 2624, Note_on_c, 4, 81, 51
5, 2624, Note_on_c, 4, 73, 28
5, 2624, Note_on_c, 4, 76, 51
5, 2633, Note_on_c, 4, 76, 0
5, 2633, Note_on_c, 4, 73, 0
5, 2634, Note_on_c, 4, 81, 0
5, 2656, Note_on_c, 4, 76, 51
5, 2656, Note_on_c, 4, 81, 51
5, 2656, Note_on_c, 4, 73, 51
5, 2664, Note_on_c, 4, 76, 0
5, 2666, Note_on_c, 4, 73, 0
5, 2666, Note_on_c, 4, 81, 0
5, 2688, Note_on_c, 4, 78, 51
5, 2688, Note_on_c, 4, 72, 16
5, 2688, Note_on_c, 4, 81, 51
5, 2696, Note_on_c, 4, 72, 0
5, 2699, Note_on_c, 4, 78, 0
5, 2702, Note_on_c, 4, 81, 0
5, 2720, Note_on_c, 4, 78, 43
5, 2720, Note_on_c, 4, 72, 47
5, 2720, Note_on_c, 4, 81, 51
5, 2728, Note_on_c, 4, 78, 0
5, 2730, Note_on_c, 4, 72, 0
5, 2731, Note_on_c, 4, 81, 0
5, 2752, Note_on_c, 4, 78, 51
5, 2752, Note_on_c, 4, 72, 43
5, 2752, Note_on_c, 4, 81, 51
5, 2762, Note_on_c, 4, 72, 0
5, 2762, Note_on_c, 4, 78, 0
5, 2764, Note_on_c, 4, 81, 0
5, 2784, Note_on_c, 4, 78, 51
5, 2784, Note_on_c, 4, 72, 51
5, 2784, Note_on_c, 4, 81, 51
5, 2793, Note_on_c, 4, 78, 0
5, 2794, Note_on_c, 4, 72, 0
5, 2796, Note_on_c, 4, 81, 0
5, 2816, Note_on_c, 4, 72, 35
5, 2816, Note_on_c, 4, 78, 43
5, 2816, Note_on_c, 4, 81, 51
5, 2825, Note_on_c, 4, 78, 0
5, 2826, Note_on_c, 4, 72, 0
5, 2828, Note_on_c, 4, 81, 0
5, 2848, Note_on_c, 4, 72, 35
5, 2848, Note_on_c, 4, 78, 35
5, 2848, Note_on_c, 4, 81, 51
5, 2856, Note_on_c, 4, 78, 0
5, 2857, Note_on_c, 4, 72, 0
5, 2859, Note_on_c, 4, 81, 0
5, 2880, Note_on_c, 4, 72, 51
5, 2880, Note_on_c, 4, 78, 51
5, 2880, Note_on_c, 4, 81, 51
5, 2890, Note_on_c, 4, 78, 0
5, 2890, Note_on_c, 4, 72, 0
5, 2892, Note_on_c, 4, 81, 0
5, 2912, Note_on_c, 4, 81, 51
5, 2912, Note_on_c, 4, 72, 32
5, 2912, Note_on_c, 4, 78, 39
5, 2921, Note_on_c, 4, 78, 0
5, 2921, Note_on_c, 4, 72, 0
5, 2924, Note_on_c, 4, 81, 0
5, 2944, Note_on_c, 4, 78, 47
5, 2944, Note_on_c, 4, 81, 43
5, 2944, Note_on_c, 4, 72, 43
5, 2954, Note_on_c, 4, 72, 0
5, 2954, Note_on_c, 4, 78, 0
5, 2955, Note_on_c, 4, 81, 0
5, 2976, Note_on_c, 4, 72, 51
5, 2976, Note_on_c, 4, 78, 51
5, 2976, Note_on_c, 4, 81, 51
5, 2986, Note_on_c, 4, 72, 0
5, 2987, Note_on_c, 4, 78, 0
5, 2988, Note_on_c, 4, 81, 0
5, 3008, Note_on_c, 4, 78, 47
5, 3008, Note_on_c, 4, 72, 43
5, 3008, Note_on_c, 4, 81, 51
5, 3017, Note_on_c, 4, 78, 0
5, 3018, Note_on_c, 4, 72, 0
5, 3019, Note_on_c, 4, 81, 0
5, 3040, Note_on_c, 4, 78, 51
5, 3040, Note_on_c, 4, 81, 51
5, 3040, Note_on_c, 4, 72, 43
5, 3049, Note_on_c, 4, 72, 0
5, 3050, Note_on_c, 4, 78, 0
5, 3051, Note_on_c, 4, 81, 0
5, 3072, Note_on_c, 4, 78, 51
5, 3072, Note_on_c, 4, 72, 51
5, 3072, Note_on_c, 4, 81, 51
5, 3082, Note_on_c, 4, 72, 0
5, 3083, Note_on_c, 4, 78, 0
5, 3085, Note_on_c, 4, 81, 0
5, 3104, Note_on_c, 4, 72, 35
5, 3104, Note_on_c, 4, 78, 39
5, 3104, Note_on_c, 4, 81, 43
5, 3113, Note_on_c, 4, 72, 0
5, 3114, Note_on_c, 4, 78, 0
5, 3115, Note_on_c, 4, 81, 0
5, 3136, Note_on_c, 4, 72, 47
5, 3136, Note_on_c, 4, 78, 51
5, 3136, Note_on_c, 4, 81, 51
5, 3145, Note_on_c, 4, 72, 0
5, 3146, Note_on_c, 4, 81, 0
5, 3146, Note_on_c, 4, 78, 0
5, 3168, Note_on_c, 4, 78, 51
5, 3168, Note_on_c, 4, 72, 47
5, 3168, Note_on_c, 4, 81, 51
5, 3177, Note_on_c, 4, 72, 0
5, 3178, Note_on_c, 4, 78, 0
5, 3180, Note_on_c, 4, 81, 0
5, 3200, Note_on_c, 4, 78, 39
5, 3200, Note_on_c, 4, 72, 35
5, 3200, Note_on_c, 4, 81, 47
5, 3209, Note_on_c, 4, 78, 0
5, 3210, Note_on_c, 4, 72, 0
5, 3212, Note_on_c, 4, 81, 0
5, 3232, Note_on_c, 4, 81, 51
5, 3232, Note_on_c, 4, 78, 51
5, 3232, Note_on_c, 4, 72, 51
5, 3240, Note_on_c, 4, 78, 0
5, 3242, Note_on_c, 4, 72, 0
5, 3243, Note_on_c, 4, 81, 0
5, 3264, Note_on_c, 4, 78, 39
5, 3264, Note_on_c, 4, 72, 39
5, 3264, Note_on_c, 4, 81, 51
5, 3274, Note_on_c, 4, 72, 0
5, 3274, Note_on_c, 4, 78, 0
5, 3276, Note_on_c, 4, 81, 0
5, 3296, Note_on_c, 4, 72, 30
5, 3296, Note_on_c, 4, 78, 43
5, 3296, Note_on_c, 4, 81, 51
5, 3305, Note_on_c, 4, 72, 0
5, 3307, Note_on_c, 4, 78, 0
5, 3308, Note_on_c, 4, 81, 0
5, 3328, Note_on_c, 4, 78, 43
5, 3328, Note_on_c, 4, 81, 51
5, 3328, Note_on_c, 4, 72, 35
5, 3336, Note_on_c, 4, 78, 0
5, 3337, Note_on_c, 4, 72, 0
5, 3341, Note_on_c, 4, 81, 0
5, 3360, Note_on_c, 4, 72, 35
5, 3360, Note_on_c, 4, 78, 51
5, 3360, Note_on_c, 4, 81, 51
5, 3368, Note_on_c, 4, 72, 0
5, 3371, Note_on_c, 4, 81, 0
5, 3371, Note_on_c, 4, 78, 0
5, 3392, Note_on_c, 4, 78, 51
5, 3392, Note_on_c, 4, 81, 51
5, 3392, Note_on_c, 4, 72, 47
5, 3401, Note_on_c, 4, 72, 0
5, 3401, Note_on_c, 4, 78, 0
5, 3405, Note_on_c, 4, 81, 0
5, 3424, Note_on_c, 4, 78, 47
5, 3424, Note_on_c, 4, 72, 47
5, 3424, Note_on_c, 4, 81, 51
5, 3430, Note_on_c, 4, 72, 0
5, 3431, Note_on_c, 4, 78, 0
5, 3434, Note_on_c, 4, 81, 0
5, 3456, Note_on_c, 4, 77, 39
5, 3456, Note_on_c, 4, 71, 23
5, 3456, Note_on_c, 4, 74, 51
5, 3456, Note_on_c, 4, 79, 51
5, 3467, Note_on_c, 4, 77, 0
5, 3468, Note_on_c, 4, 71, 0
5, 3468, Note_on_c, 4, 74, 0
5, 3470, Note_on_c, 4, 79, 0
5, 3488, Note_on_c, 4, 71, 16
5, 3488, Note_on_c, 4, 77, 21
5, 3488, Note_on_c, 4, 79, 16
5, 3488, Note_on_c, 4, 74, 20
5, 3496, Note_on_c, 4, 74, 0
5, 3496, Note_on_c, 4, 71, 0
5, 3496, Note_on_c, 4, 77, 0
5, 3498, Note_on_c, 4, 79, 0
5, 3520, Note_on_c, 4, 74, 35
5, 3520, Note_on_c, 4, 77, 30
5, 3520, Note_on_c, 4, 71, 20
5, 3520, Note_on_c, 4, 79, 25
5, 3531, Note_on_c, 4, 77, 0
5, 3531, Note_on_c, 4, 74, 0
5, 3532, Note_on_c, 4, 71, 0
5, 3532, Note_on_c, 4, 79, 0
5, 3552, Note_on_c, 4, 79, 51
5, 3552, Note_on_c, 4, 71, 35
5, 3552, Note_on_c, 4, 77, 51
5, 3552, Note_on_c, 4, 74, 51
5, 3565, Note_on_c, 4, 74, 0
5, 3565, Note_on_c, 4, 77, 0
5, 3565, Note_on_c, 4, 71, 0
5, 3568, Note_on_c, 4, 79, 0
5, 3584, Note_on_c, 4, 79, 20
5, 3584, Note_on_c, 4, 74, 32
5, 3584, Note_on_c, 4, 77, 35
5, 3584, Note_on_c, 4, 71, 18
5, 3594, Note_on_c, 4, 71, 0
5, 3596, Note_on_c, 4, 74, 0
5, 3597, Note_on_c, 4, 77, 0
5, 3598, Note_on_c, 4, 79, 0
5, 3616, Note_on_c, 4, 74, 35
5, 3616, Note_on_c, 4, 71, 22
5, 3616, Note_on_c, 4, 79, 30
5, 3616, Note_on_c, 4, 77, 39
5, 3628, Note_on_c, 4, 71, 0
5, 3630, Note_on_c, 4, 74, 0
5, 3631, Note_on_c, 4, 79, 0
5, 3631, Note_on_c, 4, 77, 0
5, 3648, Note_on_c, 4, 79, 43
5, 3648, Note_on_c, 4, 74, 51
5, 3648, Note_on_c, 4, 71, 25
5, 3648, Note_on_c, 4, 77, 51
5, 3661, Note_on_c, 4, 71, 0
5, 3662, Note_on_c, 4, 74, 0
5, 3663, Note_on_c, 4, 77, 0
5, 3665, Note_on_c, 4, 79, 0
5, 3680, Note_on_c, 4, 74, 39
5, 3680, Note_on_c, 4, 79, 35
5, 3680, Note_on_c, 4, 77, 47
5, 3680, Note_on_c, 4, 71, 23
5, 3692, Note_on_c, 4, 71, 0
5, 3692, Note_on_c, 4, 74, 0
5, 3694, Note_on_c, 4, 77, 0
5, 3696, Note_on_c, 4, 79, 0
5, 3712, Note_on_c, 4, 79, 28
5, 3712, Note_on_c, 4, 71, 20
5, 3712, Note_on_c, 4, 74, 43
5, 3712, Note_on_c, 4, 77, 47
5, 3723, Note_on_c, 4, 71, 0
5, 3724, Note_on_c, 4, 74, 0
5, 3726, Note_on_c, 4, 77, 0
5, 3727, Note_on_c, 4, 79, 0
5, 3744, Note_on_c, 4, 71, 28
5, 3744, Note_on_c, 4, 74, 51
5, 3744, Note_on_c, 4, 77, 51
5, 3744, Note_on_c, 4, 79, 47
5, 3757, Note_on_c, 4, 71, 0
5, 3759, Note_on_c, 4, 74, 0
5, 3760, Note_on_c, 4, 77, 0
5, 3762, Note_on_c, 4, 79, 0
5, 3776, Note_on_c, 4, 71, 27
5, 3776, Note_on_c, 4, 79, 27
5, 3776, Note_on_c, 4, 74, 43
5, 3776, Note_on_c, 4, 77, 47
5, 3787, Note_on_c, 4, 74, 0
5, 3788, Note_on_c, 4, 71, 0
5, 3788, Note_on_c, 4, 79, 0
5, 3788, Note_on_c, 4, 77, 0
5, 3808, Note_on_c, 4, 74, 39
5, 3808, Note_on_c, 4, 79, 39
5, 3808, Note_on_c, 4, 71, 28
5, 3808, Note_on_c, 4, 77, 51
5, 3818, Note_on_c, 4, 74, 0
5, 3819, Note_on_c, 4, 71, 0
5, 3820, Note_on_c, 4, 77, 0
5, 3821, Note_on_c, 4, 79, 0
5, 3840, Note_on_c, 4, 74, 51
5, 3840, Note_on_c, 4, 77, 51
5, 3840, Note_on_c, 4, 71, 35
5, 3840, Note_on_c, 4, 79, 51
5, 3851, Note_on_c, 4, 74, 0
5, 3852, Note_on_c, 4, 77, 0
5, 3852, Note_on_c, 4, 71, 0
5, 3855, Note_on_c, 4, 79, 0
5, 3872, Note_on_c, 4, 77, 39
5, 3872, Note_on_c, 4, 74, 43
5, 3872, Note_on_c, 4, 79, 25
5, 3872, Note_on_c, 4, 71, 27
5, 3883, Note_on_c, 4, 71, 0
5, 3884, Note_on_c, 4, 74, 0
5, 3885, Note_on_c, 4, 77, 0
5, 3886, Note_on_c, 4, 79, 0
5, 3904, Note_on_c, 4, 79, 30
5, 3904, Note_on_c, 4, 71, 25
5, 3904, Note_on_c, 4, 74, 47
5, 3904, Note_on_c, 4, 77, 51
5, 3914, Note_on_c, 4, 74, 0
5, 3914, Note_on_c, 4, 71, 0
5, 3916, Note_on_c, 4, 77, 0
5, 3917, Note_on_c, 4, 79, 0
5, 3936, Note_on_c, 4, 74, 51
5, 3936, Note_on_c, 4, 79, 39
5, 3936, Note_on_c, 4, 77, 51
5, 3936, Note_on_c, 4, 71, 27
5, 3946, Note_on_c, 4, 71, 0
5, 3948, Note_on_c, 4, 74, 0
5, 3950, Note_on_c, 4, 77, 0
5, 3951, Note_on_c, 4, 79, 0
5, 3968, Note_on_c, 4, 71, 25
5, 3968, Note_on_c, 4, 77, 35
5, 3968, Note_on_c, 4, 74, 39
5, 3968, Note_on_c, 4, 79, 25
5, 3977, Note_on_c, 4, 71, 0
5, 3978, Note_on_c, 4, 74, 0
5, 3980, Note_on_c, 4, 77, 0
5, 3981, Note_on_c, 4, 79, 0
5, 4000, Note_on_c, 4, 71, 22
5, 4000, Note_on_c, 4, 74, 43
5, 4000, Note_on_c, 4, 77, 51
5, 4000, Note_on_c, 4, 79, 30
5, 4010, Note_on_c, 4, 74, 0
5, 4010, Note_on_c, 4, 71, 0
5, 4013, Note_on_c, 4, 77, 0
5, 4014, Note_on_c, 4, 79, 0
5, 4032, Note_on_c, 4, 79, 47
5, 4032, Note_on_c, 4, 71, 35
5, 4032, Note_on_c, 4, 77, 51
5, 4032, Note_on_c, 4, 74, 51
5, 4041, Note_on_c, 4, 71, 0
5, 4043, Note_on_c, 4, 74, 0
5, 4046, Note_on_c, 4, 77, 0
5, 4046, Note_on_c, 4, 79, 0
5, 4064, Note_on_c, 4, 79, 35
5, 4064, Note_on_c, 4, 74, 51
5, 4064, Note_on_c, 4, 77, 51
5, 4064, Note_on_c, 4, 71, 25
5, 4073, Note_on_c, 4, 71, 0
5, 4074, Note_on_c, 4, 74, 0
5, 4076, Note_on_c, 4, 77, 0
5, 4076, Note_on_c, 4, 79, 0
5, 4096, Note_on_c, 4, 77, 51
5, 4096, Note_on_c, 4, 71, 27
5, 4096, Note_on_c, 4, 74, 51
5, 4096, Note_on_c, 4, 79, 43
5, 4105, Note_on_c, 4, 71, 0
5, 4106, Note_on_c, 4, 74, 0
5, 4108, Note_on_c, 4, 77, 0
5, 4108, Note_on_c, 4, 79, 0
5, 4128, Note_on_c, 4, 71, 27
5, 4128, Note_on_c, 4, 79, 39
5, 4128, Note_on_c, 4, 77, 51
5, 4128, Note_on_c, 4, 74, 51
5, 4138, Note_on_c, 4, 71, 0
5, 4140, Note_on_c, 4, 74, 0
5, 4140, Note_on_c, 4, 77, 0
5, 4142, Note_on_c, 4, 79, 0
5, 4160, Note_on_c, 4, 74, 47
5, 4160, Note_on_c, 4, 77, 43
5, 4160, Note_on_c, 4, 79, 30
5, 4160, Note_on_c, 4, 71, 25
5, 4171, Note_on_c, 4, 71, 0
5, 4172, Note_on_c, 4, 74, 0
5, 4173, Note_on_c, 4, 77, 0
5, 4174, Note_on_c, 4, 79, 0
5, 4192, Note_on_c, 4, 74, 51
5, 4192, Note_on_c, 4, 71, 35
5, 4192, Note_on_c, 4, 79, 43
5, 4192, Note_on_c, 4, 77, 51
5, 4201, Note_on_c, 4, 71, 0
5, 4202, Note_on_c, 4, 74, 0
5, 4202, Note_on_c, 4, 77, 0
5, 4203, Note_on_c, 4, 79, 0
5, 4224, Note_on_c, 4, 70, 30
5, 4224, Note_on_c, 4, 76, 51
5, 4224, Note_on_c, 4, 79, 51
5, 4235, Note_on_c, 4, 76, 0
5, 4236, Note_on_c, 4, 70, 0
5, 4239, Note_on_c, 4, 79, 0
5, 4256, Note_on_c, 4, 79, 51
5, 4256, Note_on_c, 4, 76, 43
5, 4256, Note_on_c, 4, 70, 30
5, 4267, Note_on_c, 4, 76, 0
5, 4268, Note_on_c, 4, 70, 0
5, 4270, Note_on_c, 4, 79, 0
5, 4288, Note_on_c, 4, 70, 23
5, 4288, Note_on_c, 4, 79, 43
5, 4288, Note_on_c, 4, 76, 39
5, 4298, Note_on_c, 4, 76, 0
5, 4298, Note_on_c, 4, 79, 0
5, 4299, Note_on_c, 4, 70, 0
5, 4320, Note_on_c, 4, 76, 51
5, 4320, Note_on_c, 4, 79, 51
5, 4320, Note_on_c, 4, 70, 39
5, 4330, Note_on_c, 4, 70, 0
5, 4331, Note_on_c, 4, 76, 0
5, 4334, Note_on_c, 4, 79, 0
5, 4352, Note_on_c, 4, 70, 27
5, 4352, Note_on_c, 4, 76, 39
5, 4352, Note_on_c, 4, 79, 43
5, 4362, Note_on_c, 4, 76, 0
5, 4362, Note_on_c, 4, 70, 0
5, 4363, Note_on_c, 4, 79, 0
5, 4384, Note_on_c, 4, 70, 30
5, 4384, Note_on_c, 4, 79, 51
5, 4384, Note_on_c, 4, 76, 39
5, 4394, Note_on_c, 4, 76, 0
5, 4394, Note_on_c, 4, 70, 0
5, 4396, Note_on_c, 4, 79, 0
5, 4416, Note_on_c, 4, 76, 47
5, 4416, Note_on_c, 4, 70, 30
5, 4416, Note_on_c, 4, 79, 51
5, 4426, Note_on_c, 4, 76, 0
5, 4427, Note_on_c, 4, 70, 0
5, 4429, Note_on_c, 4, 79, 0
5, 4448, Note_on_c, 4, 70, 28
5, 4448, Note_on_c, 4, 79, 51
5, 4448, Note_on_c, 4, 76, 39
5, 4458, Note_on_c, 4, 76, 0
5, 4458, Note_on_c, 4, 70, 0
5, 4462, Note_on_c, 4, 79, 0
5, 4480, Note_on_c, 4, 76, 39
5, 4480, Note_on_c, 4, 79, 51
5, 4480, Note_on_c, 4, 70, 30
5, 4489, Note_on_c, 4, 76, 0
5, 4491, Note_on_c, 4, 70, 0
5, 4492, Note_on_c, 4, 79, 0
5, 4512, Note_on_c, 4, 76, 51
5, 4512, Note_on_c, 4, 70, 30
5, 4512, Note_on_c, 4, 79, 51
5, 4522, Note_on_c, 4, 70, 0
5, 4522, Note_on_c, 4, 76, 0
5, 4525, Note_on_c, 4, 79, 0
5, 4544, Note_on_c, 4, 76, 43
5, 4544, Note_on_c, 4, 70, 32
5, 4544, Note_on_c, 4, 79, 51
5, 4553, Note_on_c, 4, 76, 0
5, 4554, Note_on_c, 4, 70, 0
5, 4557, Note_on_c, 4, 79, 0
5, 4576, Note_on_c, 4, 76, 43
5, 4576, Note_on_c, 4, 70, 30
5, 4576, Note_on_c, 4, 79, 51
5, 4585, Note_on_c, 4, 70, 0
5, 4586, Note_on_c, 4, 76, 0
5, 4588, Note_on_c, 4, 79, 0
5, 4608, Note_on_c, 4, 76, 47
5, 4608, Note_on_c, 4, 79, 51
5, 4608, Note_on_c, 4, 70, 35
5, 4618, Note_on_c, 4, 76, 0
5, 4619, Note_on_c, 4, 70, 0
5, 4621, Note_on_c, 4, 79, 0
5, 4640, Note_on_c, 4, 70, 25
5, 4640, Note_on_c, 4, 79, 51
5, 4640, Note_on_c, 4, 76, 35
5, 4649, Note_on_c, 4, 76, 0
5, 4650, Note_on_c, 4, 70, 0
5, 4653, Note_on_c, 4, 79, 0
5, 4672, Note_on_c, 4, 70, 25
5, 4672, Note_on_c, 4, 76, 43
5, 4672, Note_on_c, 4, 79, 47
5, 4682, Note_on_c, 4, 76, 0
5, 4682, Note_on_c, 4, 70, 0
5, 4684, Note_on_c, 4, 79, 0
5, 4704, Note_on_c, 4, 79, 51
5, 4704, Note_on_c, 4, 70, 32
5, 4704, Note_on_c, 4, 76, 43
5, 4714, Note_on_c, 4, 76, 0
5, 4715, Note_on_c, 4, 70, 0
5, 4718, Note_on_c, 4, 79, 0
5, 4736, Note_on_c, 4, 76, 39
5, 4736, Note_on_c, 4, 70, 28
5, 4736, Note_on_c, 4, 79, 51
5, 4745, Note_on_c, 4, 76, 0
5, 4747, Note_on_c, 4, 70, 0
5, 4749, Note_on_c, 4, 79, 0
5, 4768, Note_on_c, 4, 76, 43
5, 4768, Note_on_c, 4, 70, 28
5, 4768, Note_on_c, 4, 79, 51
5, 4778, Note_on_c, 4, 70, 0
5, 4778, Note_on_c, 4, 76, 0
5, 4781, Note_on_c, 4, 79, 0
5, 4800, Note_on_c, 4, 70, 39
5, 4800, Note_on_c, 4, 76, 51
5, 4800, Note_on_c, 4, 79, 51
5, 4811, Note_on_c, 4, 76, 0
5, 4811, Note_on_c, 4, 70, 0
5, 4814, Note_on_c, 4, 79, 0
5, 4832, Note_on_c, 4, 76, 43
5, 4832, Note_on_c, 4, 70, 28
5, 4832, Note_on_c, 4, 79, 51
5, 4842, Note_on_c, 4, 70, 0
5, 4842, Note_on_c, 4, 76, 0
5, 4844, Note_on_c, 4, 79, 0
5, 4864, Note_on_c, 4, 70, 30
5, 4864, Note_on_c, 4, 76, 51
5, 4864, Note_on_c, 4, 79, 51
5, 4874, Note_on_c, 4, 76, 0
5, 4874, Note_on_c, 4, 70, 0
5, 4877, Note_on_c, 4, 79, 0
5, 4896, Note_on_c, 4, 70, 39
5, 4896, Note_on_c, 4, 76, 51
5, 4896, Note_on_c, 4, 79, 51
5, 4906, Note_on_c, 4, 76, 0
5, 4906, Note_on_c, 4, 70, 0
5, 4908, Note_on_c, 4, 79, 0
5, 4928, Note_on_c, 4, 79, 51
5, 4928, Note_on_c, 4, 76, 51
5, 4928, Note_on_c, 4, 70, 35
5, 4937, Note_on_c, 4, 76, 0
5, 4938, Note_on_c, 4, 70, 0
5, 4939, Note_on_c, 4, 79, 0
5, 4960, Note_on_c, 4, 76, 51
5, 4960, Note_on_c, 4, 70, 35
5, 4960, Note_on_c, 4, 79, 51
5, 4970, Note_on_c, 4, 70, 0
5, 4970, Note_on_c, 4, 76, 0
5, 4973, Note_on_c, 4, 79, 0
5, 4992, Note_on_c, 4, 77, 47
5, 4992, Note_on_c, 4, 81, 51
5, 4992, Note_on_c, 4, 72, 39
5, 5003, Note_on_c, 4, 77, 0
5, 5005, Note_on_c, 4, 72, 0
5, 5006, Note_on_c, 4, 81, 0
5, 5024, Note_on_c, 4, 81, 51
5, 5024, Note_on_c, 4, 72, 32
5, 5024, Note_on_c, 4, 77, 47
5, 5034, Note_on_c, 4, 77, 0
5, 5035, Note_on_c, 4, 72, 0
5, 5036, Note_on_c, 4, 81, 0
5, 5056, Note_on_c, 4, 77, 43
5, 5056, Note_on_c, 4, 72, 43
5, 5056, Note_on_c, 4, 81, 51
5, 5064, Note_on_c, 4, 77, 0
5, 5066, Note_on_c, 4, 72, 0
5, 5067, Note_on_c, 4, 81, 0
5, 5088, Note_on_c, 4, 72, 51
5, 5088, Note_on_c, 4, 77, 51
5, 5088, Note_on_c, 4, 81, 51
5, 5098, Note_on_c, 4, 77, 0
5, 5099, Note_on_c, 4, 72, 0
5, 5101, Note_on_c, 4, 81, 0
5, 5120, Note_on_c, 4, 81, 51
5, 5120, Note_on_c, 4, 77, 51
5, 5120, Note_on_c, 4, 72, 35
5, 5130, Note_on_c, 4, 77, 0
5, 5131, Note_on_c, 4, 72, 0
5, 5132, Note_on_c, 4, 81, 0
5, 5152, Note_on_c, 4, 72, 39
5, 5152, Note_on_c, 4, 77, 51
5, 5152, Note_on_c, 4, 81, 51
5, 5161, Note_on_c, 4, 77, 0
5, 5162, Note_on_c, 4, 72, 0
5, 5163, Note_on_c, 4, 81, 0
5, 5184, Note_on_c, 4, 77, 51
5, 5184, Note_on_c, 4, 81, 51
5, 5184, Note_on_c, 4, 72, 39
5, 5194, Note_on_c, 4, 72, 0
5, 5194, Note_on_c, 4, 77, 0
5, 5196, Note_on_c, 4, 81, 0
5, 5216, Note_on_c, 4, 81, 51
5, 5216, Note_on_c, 4, 72, 30
5, 5216, Note_on_c, 4, 77, 51
5, 5226, Note_on_c, 4, 77, 0
5, 5227, Note_on_c, 4, 72, 0
5, 5228, Note_on_c, 4, 81, 0
5, 5248, Note_on_c, 4, 77, 51
5, 5248, Note_on_c, 4, 81, 51
5, 5248, Note_on_c, 4, 72, 39
5, 5257, Note_on_c, 4, 77, 0
5, 5259, Note_on_c, 4, 72, 0
5, 5259, Note_on_c, 4, 81, 0
5, 5280, Note_on_c, 4, 77, 51
5, 5280, Note_on_c, 4, 72, 43
5, 5280, Note_on_c, 4, 81, 51
5, 5290, Note_on_c, 4, 77, 0
5, 5291, Note_on_c, 4, 72, 0
5, 5292, Note_on_c, 4, 81, 0
5, 5312, Note_on_c, 4, 81, 51
5, 5312, Note_on_c, 4, 77, 51
5, 5312, Note_on_c, 4, 72, 39
5, 5321, Note_on_c, 4, 77, 0
5, 5323, Note_on_c, 4, 72, 0
5, 5324, Note_on_c, 4, 81, 0
5, 5344, Note_on_c, 4, 77, 51
5, 5344, Note_on_c, 4, 81, 51
5, 5344, Note_on_c, 4, 72, 47
5, 5352, Note_on_c, 4, 72, 0
5, 5352, Note_on_c, 4, 77, 0
5, 5353, Note_on_c, 4, 81, 0
5, 5376, Note_on_c, 4, 81, 39
5, 5376, Note_on_c, 4, 72, 25
5, 5376, Note_on_c, 4, 77, 28
5, 5387, Note_on_c, 4, 77, 0
5, 5389, Note_on_c, 4, 72, 0
5, 5389, Note_on_c, 4, 81, 0
5, 5408, Note_on_c, 4, 72, 28
5, 5408, Note_on_c, 4, 77, 39
5, 5408, Note_on_c, 4, 81, 51
5, 5418, Note_on_c, 4, 77, 0
5, 5420, Note_on_c, 4, 72, 0
5, 5422, Note_on_c, 4, 81, 0
5, 5440, Note_on_c, 4, 81, 51
5, 5440, Note_on_c, 4, 77, 51
5, 5440, Note_on_c, 4, 72, 30
5, 5450, Note_on_c, 4, 77, 0
5, 5452, Note_on_c, 4, 72, 0
5, 5454, Note_on_c, 4, 81, 0
5, 5472, Note_on_c, 4, 72, 39
5, 5472, Note_on_c, 4, 77, 51
5, 5472, Note_on_c, 4, 81, 51
5, 5482, Note_on_c, 4, 77, 0
5, 5484, Note_on_c, 4, 72, 0
5, 5485, Note_on_c, 4, 81, 0
5, 5504, Note_on_c, 4, 81, 51
5, 5504, Note_on_c, 4, 77, 51
5, 5504, Note_on_c, 4, 72, 35
5, 5514, Note_on_c, 4, 77, 0
5, 5515, Note_on_c, 4, 72, 0
5, 5516, Note_on_c, 4, 81, 0
5, 5536, Note_on_c, 4, 81, 51
5, 5536, Note_on_c, 4, 77, 43
5, 5536, Note_on_c, 4, 72, 30
5, 5546, Note_on_c, 4, 77, 0
5, 5547, Note_on_c, 4, 72, 0
5, 5548, Note_on_c, 4, 81, 0
5, 5568, Note_on_c, 4, 77, 51
5, 5568, Note_on_c, 4, 72, 39
5, 5568, Note_on_c, 4, 81, 51
5, 5578, Note_on_c, 4, 77, 0
5, 5579, Note_on_c, 4, 72, 0
5, 5581, Note_on_c, 4, 81, 0
5, 5600, Note_on_c, 4, 77, 51
5, 5600, Note_on_c, 4, 81, 51
5, 5600, Note_on_c, 4, 72, 30
5, 5610, Note_on_c, 4, 77, 0
5, 5612, Note_on_c, 4, 72, 0
5, 5612, Note_on_c, 4, 81, 0
5, 5632, Note_on_c, 4, 81, 51
5, 5632, Note_on_c, 4, 72, 43
5, 5632, Note_on_c, 4, 77, 51
5, 5641, Note_on_c, 4, 77, 0
5, 5643, Note_on_c, 4, 72, 0
5, 5645, Note_on_c, 4, 81, 0
5, 5664, Note_on_c, 4, 77, 51
5, 5664, Note_on_c, 4, 72, 35
5, 5664, Note_on_c, 4, 81, 51
5, 5674, Note_on_c, 4, 77, 0
5, 5675, Note_on_c, 4, 72, 0
5, 5677, Note_on_c, 4, 81, 0
5, 5696, Note_on_c, 4, 77, 51
5, 5696, Note_on_c, 4, 81, 51
5, 5696, Note_on_c, 4, 72, 39
5, 5706, Note_on_c, 4, 77, 0
5, 5707, Note_on_c, 4, 72, 0
5, 5709, Note_on_c, 4, 81, 0
5, 5728, Note_on_c, 4, 81, 51
5, 5728, Note_on_c, 4, 72, 39
5, 5728, Note_on_c, 4, 77, 51
5, 5735, Note_on_c, 4, 77, 0
5, 5735, Note_on_c, 4, 72, 0
5, 5741, Note_on_c, 4, 81, 0
5, 5760, Note_on_c, 4, 76, 51
5, 5760, Note_on_c, 4, 67, 47
5, 5760, Note_on_c, 4, 79, 47
5, 5760, Note_on_c, 4, 72, 27
5, 5771, Note_on_c, 4, 79, 0
5, 5772, Note_on_c, 4, 76, 0
5, 5772, Note_on_c, 4, 67, 0
5, 5773, Note_on_c, 4, 72, 0
5, 5792, Note_on_c, 4, 76, 30
5, 5792, Note_on_c, 4, 79, 47
5, 5792, Note_on_c, 4, 67, 47
5, 5792, Note_on_c, 4, 72, 25
5, 5802, Note_on_c, 4, 67, 0
5, 5802, Note_on_c, 4, 76, 0
5, 5804, Note_on_c, 4, 72, 0
5, 5806, Note_on_c, 4, 79, 0
5, 5824, Note_on_c, 4, 76, 25
5, 5824, Note_on_c, 4, 79, 30
5, 5824, Note_on_c, 4, 67, 35
5, 5824, Note_on_c, 4, 72, 16
5, 5833, Note_on_c, 4, 76, 0
5, 5834, Note_on_c, 4, 79, 0
5, 5834, Note_on_c, 4, 67, 0
5, 5834, Note_on_c, 4, 72, 0
5, 5856, Note_on_c, 4, 76, 32
5, 5856, Note_on_c, 4, 72, 27
5, 5856, Note_on_c, 4, 79, 43
5, 5856, Note_on_c, 4, 67, 47
5, 5866, Note_on_c, 4, 76, 0
5, 5867, Note_on_c, 4, 67, 0
5, 5868, Note_on_c, 4, 79, 0
5, 5868, Note_on_c, 4, 72, 0
5, 5888, Note_on_c, 4, 79, 51
5, 5888, Note_on_c, 4, 67, 39
5, 5888, Note_on_c, 4, 76, 39
5, 5888, Note_on_c, 4, 72, 27
5, 5898, Note_on_c, 4, 76, 0
5, 5898, Note_on_c, 4, 67, 0
5, 5899, Note_on_c, 4, 72, 0
5, 5900, Note_on_c, 4, 79, 0
5, 5920, Note_on_c, 4, 76, 43
5, 5920, Note_on_c, 4, 72, 28
5, 5920, Note_on_c, 4, 79, 51
5, 5920, Note_on_c, 4, 67, 43
5, 5930, Note_on_c, 4, 76, 0
5, 5931, Note_on_c, 4, 72, 0
5, 5931, Note_on_c, 4, 67, 0
5, 5932, Note_on_c, 4, 79, 0
5, 5952, Note_on_c, 4, 72, 32
5, 5952, Note_on_c, 4, 76, 43
5, 5952, Note_on_c, 4, 67, 43
5, 5952, Note_on_c, 4, 79, 51
5, 5961, Note_on_c, 4, 76, 0
5, 5962, Note_on_c, 4, 72, 0
5, 5963, Note_on_c, 4, 67, 0
5, 5964, Note_on_c, 4, 79, 0
5, 5984, Note_on_c, 4, 76, 39
5, 5984, Note_on_c, 4, 67, 39
5, 5984, Note_on_c, 4, 79, 43
5, 5984, Note_on_c, 4, 72, 32
5, 5994, Note_on_c, 4, 76, 0
5, 5996, Note_on_c, 4, 67, 0
5, 5996, Note_on_c, 4, 79, 0
5, 5997, Note_on_c, 4, 72, 0
5, 6016, Note_on_c, 4, 67, 39
5, 6016, Note_on_c, 4, 79, 47
5, 6016, Note_on_c, 4, 76, 47
5, 6016, Note_on_c, 4, 72, 27
5, 6026, Note_on_c, 4, 76, 0
5, 6028, Note_on_c, 4, 67, 0
5, 6028, Note_on_c, 4, 79, 0
5, 6028, Note_on_c, 4, 72, 0
5, 6048, Note_on_c, 4, 76, 43
5, 6048, Note_on_c, 4, 67, 43
5, 6048, Note_on_c, 4, 72, 30
5, 6048, Note_on_c, 4, 79, 47
5, 6058, Note_on_c, 4, 76, 0
5, 6060, Note_on_c, 4, 67, 0
5, 6060, Note_on_c, 4, 72, 0
5, 6061, Note_on_c, 4, 79, 0
5, 6080, Note_on_c, 4, 76, 43
5, 6080, Note_on_c, 4, 79, 51
5, 6080, Note_on_c, 4, 67, 43
5, 6080, Note_on_c, 4, 72, 30
5, 6090, Note_on_c, 4, 76, 0
5, 6091, Note_on_c, 4, 72, 0
5, 6092, Note_on_c, 4, 67, 0
5, 6093, Note_on_c, 4, 79, 0
5, 6112, Note_on_c, 4, 72, 39
5, 6112, Note_on_c, 4, 67, 51
5, 6112, Note_on_c, 4, 76, 51
5, 6112, Note_on_c, 4, 79, 51
5, 6121, Note_on_c, 4, 76, 0
5, 6122, Note_on_c, 4, 79, 0
5, 6123, Note_on_c, 4, 72, 0
5, 6124, Note_on_c, 4, 67, 0
5, 6144, Note_on_c, 4, 74, 51
5, 6144, Note_on_c, 4, 71, 51
5, 6144, Note_on_c, 4, 65, 51
5, 6155, Note_on_c, 4, 65, 0
5, 6158, Note_on_c, 4, 71, 0
5, 6158, Note_on_c, 4, 74, 0
5, 6176, Note_on_c, 4, 65, 22
5, 6176, Note_on_c, 4, 74, 43
5, 6176, Note_on_c, 4, 71, 27
5, 6188, Note_on_c, 4, 71, 0
5, 6188, Note_on_c, 4, 74, 0
5, 6188, Note_on_c, 4, 65, 0
5, 6208, Note_on_c, 4, 65, 30
5, 6208, Note_on_c, 4, 71, 32
5, 6208, Note_on_c, 4, 74, 51
5, 6218, Note_on_c, 4, 65, 0
5, 6219, Note_on_c, 4, 74, 0
5, 6220, Note_on_c, 4, 71, 0
5, 6240, Note_on_c, 4, 74, 51
5, 6240, Note_on_c, 4, 65, 47
5, 6240, Note_on_c, 4, 71, 51
5, 6250, Note_on_c, 4, 65, 0
5, 6252, Note_on_c, 4, 71, 0
5, 6253, Note_on_c, 4, 74, 0
5, 6272, Note_on_c, 4, 74, 51
5, 6272, Note_on_c, 4, 71, 30
5, 6272, Note_on_c, 4, 65, 25
5, 6282, Note_on_c, 4, 65, 0
5, 6283, Note_on_c, 4, 71, 0
5, 6283, Note_on_c, 4, 74, 0
5, 6304, Note_on_c, 4, 71, 35
5, 6304, Note_on_c, 4, 65, 32
5, 6304, Note_on_c, 4, 74, 51
5, 6315, Note_on_c, 4, 65, 0
5, 6315, Note_on_c, 4, 71, 0
5, 6316, Note_on_c, 4, 74, 0
5, 6336, Note_on_c, 4, 74, 51
5, 6336, Note_on_c, 4, 65, 39
5, 6336, Note_on_c, 4, 71, 51
5, 6347, Note_on_c, 4, 65, 0
5, 6348, Note_on_c, 4, 74, 0
5, 6349, Note_on_c, 4, 71, 0
5, 6368, Note_on_c, 4, 71, 35
5, 6368, Note_on_c, 4, 65, 28
5, 6368, Note_on_c, 4, 74, 51
5, 6378, Note_on_c, 4, 65, 0
5, 6379, Note_on_c, 4, 71, 0
5, 6380, Note_on_c, 4, 74, 0
5, 6400, Note_on_c, 4, 71, 30
5, 6400, Note_on_c, 4, 65, 25
5, 6400, Note_on_c, 4, 74, 43
5, 6409, Note_on_c, 4, 65, 0
5, 6410, Note_on_c, 4, 71, 0
5, 6412, Note_on_c, 4, 74, 0
5, 6432, Note_on_c, 4, 71, 47
5, 6432, Note_on_c, 4, 65, 35
5, 6432, Note_on_c, 4, 74, 51
5, 6444, Note_on_c, 4, 65, 0
5, 6445, Note_on_c, 4, 71, 0
5, 6446, Note_on_c, 4, 74, 0
5, 6464, Note_on_c, 4, 65, 27
5, 6464, Note_on_c, 4, 71, 30
5, 6464, Note_on_c, 4, 74, 43
5, 6473, Note_on_c, 4, 65, 0
5, 6475, Note_on_c, 4, 74, 0
5, 6476, Note_on_c, 4, 71, 0
5, 6496, Note_on_c, 4, 65, 28
5, 6496, Note_on_c, 4, 71, 32
5, 6496, Note_on_c, 4, 74, 43
5, 6506, Note_on_c, 4, 65, 0
5, 6508, Note_on_c, 4, 71, 0
5, 6509, Note_on_c, 4, 74, 0
5, 6528, Note_on_c, 4, 74, 47
5, 6528, Note_on_c, 4, 67, 32
5, 6528, Note_on_c, 4, 76, 43
5, 6528, Note_on_c, 4, 72, 43
5, 6538, Note_on_c, 4, 72, 0
5, 6539, Note_on_c, 4, 74, 0
5, 6539, Note_on_c, 4, 67, 0
5, 6540, Note_on_c, 4, 76, 0
5, 6560, Note_on_c, 4, 67, 25
5, 6560, Note_on_c, 4, 72, 28
5, 6560, Note_on_c, 4, 76, 51
5, 6571, Note_on_c, 4, 72, 0
5, 6572, Note_on_c, 4, 67, 0
5, 6574, Note_on_c, 4, 76, 0
5, 6592, Note_on_c, 4, 72, 39
5, 6592, Note_on_c, 4, 67, 35
5, 6592, Note_on_c, 4, 76, 51
5, 6601, Note_on_c, 4, 72, 0
5, 6602, Note_on_c, 4, 67, 0
5, 6605, Note_on_c, 4, 76, 0
5, 6624, Note_on_c, 4, 67, 43
5, 6624, Note_on_c, 4, 76, 51
5, 6624, Note_on_c, 4, 72, 51
5, 6634, Note_on_c, 4, 72, 0
5, 6634, Note_on_c, 4, 67, 0
5, 6638, Note_on_c, 4, 76, 0
5, 6656, Note_on_c, 4, 76, 51
5, 6656, Note_on_c, 4, 72, 51
5, 6656, Note_on_c, 4, 67, 30
5, 6666, Note_on_c, 4, 67, 0
5, 6666, Note_on_c, 4, 72, 0
5, 6669, Note_on_c, 4, 76, 0
5, 6688, Note_on_c, 4, 67, 28
5, 6688, Note_on_c, 4, 72, 43
5, 6688, Note_on_c, 4, 76, 51
5, 6697, Note_on_c, 4, 72, 0
5, 6699, Note_on_c, 4, 67, 0
5, 6701, Note_on_c, 4, 76, 0
5, 6720, Note_on_c, 4, 70, 51
5, 6720, Note_on_c, 4, 65, 47
5, 6720, Note_on_c, 4, 74, 51
5, 6730, Note_on_c, 4, 70, 0
5, 6732, Note_on_c, 4, 65, 0
5, 6735, Note_on_c, 4, 74, 0
5, 6752, Note_on_c, 4, 70, 43
5, 6752, Note_on_c, 4, 65, 32
5, 6752, Note_on_c, 4, 74, 51
5, 6760, Note_on_c, 4, 70, 0
5, 6763, Note_on_c, 4, 65, 0
5, 6764, Note_on_c, 4, 74, 0
5, 6784, Note_on_c, 4, 70, 51
5, 6784, Note_on_c, 4, 74, 51
5, 6784, Note_on_c, 4, 65, 39
5, 6792, Note_on_c, 4, 70, 0
5, 6793, Note_on_c, 4, 65, 0
5, 6797, Note_on_c, 4, 74, 0
5, 6816, Note_on_c, 4, 70, 51
5, 6816, Note_on_c, 4, 65, 43
5, 6816, Note_on_c, 4, 74, 51
5, 6824, Note_on_c, 4, 70, 0
5, 6826, Note_on_c, 4, 65, 0
5, 6829, Note_on_c, 4, 74, 0
5, 6848, Note_on_c, 4, 65, 43
5, 6848, Note_on_c, 4, 74, 51
5, 6848, Note_on_c, 4, 70, 51
5, 6856, Note_on_c, 4, 70, 0
5, 6857, Note_on_c, 4, 65, 0
5, 6860, Note_on_c, 4, 74, 0
5, 6880, Note_on_c, 4, 70, 51
5, 6880, Note_on_c, 4, 74, 51
5, 6880, Note_on_c, 4, 65, 43
5, 6889, Note_on_c, 4, 70, 0
5, 6890, Note_on_c, 4, 65, 0
5, 6892, Note_on_c, 4, 74, 0
5, 6912, Note_on_c, 4, 72, 51
5, 6912, Note_on_c, 4, 67, 51
5, 6912, Note_on_c, 4, 76, 51
5, 6928, Note_on_c, 4, 72, 0
5, 6930, Note_on_c, 4, 67, 0
5, 6931, Note_on_c, 4, 76, 0
5, 7296, Note_on_c, 4, 72, 51
5, 7296, Note_on_c, 4, 77, 51
5, 7296, Note_on_c, 4, 81, 51
5, 7305, Note_on_c, 4, 77, 0
5, 7306, Note_on_c, 4, 81, 0
5, 7306, Note_on_c, 4, 72, 0
5, 7328, Note_on_c, 4, 77, 51
5, 7328, Note_on_c, 4, 72, 39
5, 7328, Note_on_c, 4, 81, 51
5, 7338, Note_on_c, 4, 77, 0
5, 7339, Note_on_c, 4, 81, 0
5, 7339, Note_on_c, 4, 72, 0
5, 7360, Note_on_c, 4, 81, 51
5, 7360, Note_on_c, 4, 77, 51
5, 7360, Note_on_c, 4, 72, 43
5, 7369, Note_on_c, 4, 77, 0
5, 7370, Note_on_c, 4, 72, 0
5, 7370, Note_on_c, 4, 81, 0
5, 7392, Note_on_c, 4, 77, 51
5, 7392, Note_on_c, 4, 72, 51
5, 7392, Note_on_c, 4, 81, 51
5, 7402, Note_on_c, 4, 72, 0
5, 7402, Note_on_c, 4, 77, 0
5, 7404, Note_on_c, 4, 81, 0
5, 7424, Note_on_c, 4, 81, 51
5, 7424, Note_on_c, 4, 77, 51
5, 7424, Note_on_c, 4, 72, 47
5, 7433, Note_on_c, 4, 77, 0
5, 7434, Note_on_c, 4, 72, 0
5, 7435, Note_on_c, 4, 81, 0
5, 7456, Note_on_c, 4, 77, 51
5, 7456, Note_on_c, 4, 72, 47
5, 7456, Note_on_c, 4, 81, 51
5, 7465, Note_on_c, 4, 72, 0
5, 7465, Note_on_c, 4, 77, 0
5, 7467, Note_on_c, 4, 81, 0
5, 7488, Note_on_c, 4, 77, 51
5, 7488, Note_on_c, 4, 81, 51
5, 7488, Note_on_c, 4, 72, 47
5, 7498, Note_on_c, 4, 72, 0
5, 7498, Note_on_c, 4, 77, 0
5, 7500, Note_on_c, 4, 81, 0
5, 7520, Note_on_c, 4, 77, 51
5, 7520, Note_on_c, 4, 72, 43
5, 7520, Note_on_c, 4, 81, 51
5, 7528, Note_on_c, 4, 77, 0
5, 7530, Note_on_c, 4, 81, 0
5, 7530, Note_on_c, 4, 72, 0
5, 7552, Note_on_c, 4, 72, 47
5, 7552, Note_on_c, 4, 77, 51
5, 7552, Note_on_c, 4, 81, 51
5, 7561, Note_on_c, 4, 77, 0
5, 7562, Note_on_c, 4, 72, 0
5, 7563, Note_on_c, 4, 81, 0
5, 7584, Note_on_c, 4, 81, 51
5, 7584, Note_on_c, 4, 72, 51
5, 7584, Note_on_c, 4, 77, 51
5, 7594, Note_on_c, 4, 77, 0
5, 7594, Note_on_c, 4, 72, 0
5, 7596, Note_on_c, 4, 81, 0
5, 7616, Note_on_c, 4, 72, 47
5, 7616, Note_on_c, 4, 81, 51
5, 7616, Note_on_c, 4, 77, 51
5, 7626, Note_on_c, 4, 77, 0
5, 7626, Note_on_c, 4, 72, 0
5, 7628, Note_on_c, 4, 81, 0
5, 7648, Note_on_c, 4, 72, 39
5, 7648, Note_on_c, 4, 77, 51
5, 7648, Note_on_c, 4, 81, 51
5, 7657, Note_on_c, 4, 77, 0
5, 7658, Note_on_c, 4, 72, 0
5, 7660, Note_on_c, 4, 81, 0
5, 7680, Note_on_c, 4, 77, 51
5, 7680, Note_on_c, 4, 72, 51
5, 7680, Note_on_c, 4, 81, 51
5, 7689, Note_on_c, 4, 77, 0
5, 7690, Note_on_c, 4, 72, 0
5, 7692, Note_on_c, 4, 81, 0
5, 7712, Note_on_c, 4, 72, 39
5, 7712, Note_on_c, 4, 81, 51
5, 7712, Note_on_c, 4, 77, 51
5, 7721, Note_on_c, 4, 77, 0
5, 7722, Note_on_c, 4, 72, 0
5, 7724, Note_on_c, 4, 81, 0
5, 7744, Note_on_c, 4, 72, 32
5, 7744, Note_on_c, 4, 81, 51
5, 7744, Note_on_c, 4, 77, 51
5, 7754, Note_on_c, 4, 77, 0
5, 7754, Note_on_c, 4, 72, 0
5, 7755, Note_on_c, 4, 81, 0
5, 7776, Note_on_c, 4, 81, 51
5, 7776, Note_on_c, 4, 77, 51
5, 7776, Note_on_c, 4, 72, 43
5, 7787, Note_on_c, 4, 72, 0
5, 7787, Note_on_c, 4, 77, 0
5, 7788, Note_on_c, 4, 81, 0
5, 7808, Note_on_c, 4, 72, 43
5, 7808, Note_on_c, 4, 77, 51
5, 7808, Note_on_c, 4, 81, 51
5, 7819, Note_on_c, 4, 77, 0
5, 7820, Note_on_c, 4, 72, 0
5, 7822, Note_on_c, 4, 81, 0
5, 7840, Note_on_c, 4, 72, 47
5, 7840, Note_on_c, 4, 81, 51
5, 7840, Note_on_c, 4, 77, 51
5, 7851, Note_on_c, 4, 77, 0
5, 7852, Note_on_c, 4, 81, 0
5, 7852, Note_on_c, 4, 72, 0
5, 7872, Note_on_c, 4, 81, 51
5, 7872, Note_on_c, 4, 72, 51
5, 7872, Note_on_c, 4, 77, 51
5, 7883, Note_on_c, 4, 77, 0
5, 7883, Note_on_c, 4, 72, 0
5, 7884, Note_on_c, 4, 81, 0
5, 7904, Note_on_c, 4, 77, 51
5, 7904, Note_on_c, 4, 81, 51
5, 7904, Note_on_c, 4, 72, 32
5, 7915, Note_on_c, 4, 72, 0
5, 7915, Note_on_c, 4, 77, 0
5, 7916, Note_on_c, 4, 81, 0
5, 7936, Note_on_c, 4, 72, 30
5, 7936, Note_on_c, 4, 77, 51
5, 7936, Note_on_c, 4, 81, 51
5, 7947, Note_on_c, 4, 72, 0
5, 7948, Note_on_c, 4, 81, 0
5, 7948, Note_on_c, 4, 77, 0
5, 7968, Note_on_c, 4, 72, 39
5, 7968, Note_on_c, 4, 77, 51
5, 7968, Note_on_c, 4, 81, 51
5, 7979, Note_on_c, 4, 72, 0
5, 7980, Note_on_c, 4, 77, 0
5, 7982, Note_on_c, 4, 81, 0
5, 8000, Note_on_c, 4, 72, 30
5, 8000, Note_on_c, 4, 81, 51
5, 8000, Note_on_c, 4, 77, 51
5, 8010, Note_on_c, 4, 72, 0
5, 8011, Note_on_c, 4, 77, 0
5, 8012, Note_on_c, 4, 81, 0
5, 8032, Note_on_c, 4, 72, 47
5, 8032, Note_on_c, 4, 77, 51
5, 8032, Note_on_c, 4, 81, 51
5, 8043, Note_on_c, 4, 77, 0
5, 8044, Note_on_c, 4, 72, 0
5, 8045, Note_on_c, 4, 81, 0
5, 8064, Note_on_c, 4, 73, 51
5, 8064, Note_on_c, 4, 81, 51
5, 8064, Note_on_c, 4, 76, 51
5, 8074, Note_on_c, 4, 73, 0
5, 8075, Note_on_c, 4, 76, 0
5, 8076, Note_on_c, 4, 81, 0
5, 8096, Note_on_c, 4, 76, 51
5, 8096, Note_on_c, 4, 81, 51
5, 8096, Note_on_c, 4, 73, 35
5, 8105, Note_on_c, 4, 73, 0
5, 8106, Note_on_c, 4, 81, 0
5, 8107, Note_on_c, 4, 76, 0
5, 8128, Note_on_c, 4, 76, 51
5, 8128, Note_on_c, 4, 81, 51
5, 8128, Note_on_c, 4, 73, 28
5, 8137, Note_on_c, 4, 73, 0
5, 8138, Note_on_c, 4, 76, 0
5, 8139, Note_on_c, 4, 81, 0
5, 8160, Note_on_c, 4, 73, 47
5, 8160, Note_on_c, 4, 76, 51
5, 8160, Note_on_c, 4, 81, 51
5, 8168, Note_on_c, 4, 73, 0
5, 8170, Note_on_c, 4, 76, 0
5, 8171, Note_on_c, 4, 81, 0
5, 8192, Note_on_c, 4, 81, 51
5, 8192, Note_on_c, 4, 73, 27
5, 8192, Note_on_c, 4, 76, 51
5, 8199, Note_on_c, 4, 73, 0
5, 8202, Note_on_c, 4, 76, 0
5, 8202, Note_on_c, 4, 81, 0
5, 8224, Note_on_c, 4, 81, 51
5, 8224, Note_on_c, 4, 76, 51
5, 8224, Note_on_c, 4, 73, 39
5, 8233, Note_on_c, 4, 73, 0
5, 8234, Note_on_c, 4, 76, 0
5, 8234, Note_on_c, 4, 81, 0
5, 8256, Note_on_c, 4, 81, 51
5, 8256, Note_on_c, 4, 76, 51
5, 8256, Note_on_c, 4, 73, 35
5, 8265, Note_on_c, 4, 73, 0
5, 8266, Note_on_c, 4, 76, 0
5, 8266, Note_on_c, 4, 81, 0
5, 8288, Note_on_c, 4, 76, 51
5, 8288, Note_on_c, 4, 81, 51
5, 8288, Note_on_c, 4, 73, 35
5, 8297, Note_on_c, 4, 73, 0
5, 8297, Note_on_c, 4, 76, 0
5, 8298, Note_on_c, 4, 81, 0
5, 8320, Note_on_c, 4, 81, 51
5, 8320, Note_on_c, 4, 73, 43
5, 8320, Note_on_c, 4, 76, 51
5, 8329, Note_on_c, 4, 76, 0
5, 8329, Note_on_c, 4, 73, 0
5, 8329, Note_on_c, 4, 81, 0
5, 8352, Note_on_c, 4, 81, 51
5, 8352, Note_on_c, 4, 73, 35
5, 8352, Note_on_c, 4, 76, 51
5, 8361, Note_on_c, 4, 73, 0
5, 8362, Note_on_c, 4, 76, 0
5, 8362, Note_on_c, 4, 81, 0
5, 8384, Note_on_c, 4, 76, 51
5, 8384, Note_on_c, 4, 73, 35
5, 8384, Note_on_c, 4, 81, 51
5, 8393, Note_on_c, 4, 73, 0
5, 8393, Note_on_c, 4, 76, 0
5, 8395, Note_on_c, 4, 81, 0
5, 8416, Note_on_c, 4, 76, 51
5, 8416, Note_on_c, 4, 81, 51
5, 8416, Note_on_c, 4, 73, 43
5, 8425, Note_on_c, 4, 73, 0
5, 8426, Note_on_c, 4, 81, 0
5, 8426, Note_on_c, 4, 76, 0
5, 8448, Note_on_c, 4, 76, 51
5, 8448, Note_on_c, 4, 81, 51
5, 8448, Note_on_c, 4, 73, 39
5, 8457, Note_on_c, 4, 73, 0
5, 8457, Note_on_c, 4, 76, 0
5, 8459, Note_on_c, 4, 81, 0
5, 8480, Note_on_c, 4, 81, 51
5, 8480, Note_on_c, 4, 73, 39
5, 8480, Note_on_c, 4, 76, 51
5, 8489, Note_on_c, 4, 73, 0
5, 8490, Note_on_c, 4, 76, 0
5, 8491, Note_on_c, 4, 81, 0
5, 8512, Note_on_c, 4, 73, 39
5, 8512, Note_on_c, 4, 81, 51
5, 8512, Note_on_c, 4, 76, 51
5, 8520, Note_on_c, 4, 73, 0
5, 8521, Note_on_c, 4, 76, 0
5, 8521, Note_on_c, 4, 81, 0
5, 8544, Note_on_c, 4, 81, 51
5, 8544, Note_on_c, 4, 73, 51
5, 8544, Note_on_c, 4, 76, 51
5, 8553, Note_on_c, 4, 73, 0
5, 8554, Note_on_c, 4, 76, 0
5, 8554, Note_on_c, 4, 81, 0
5, 8576, Note_on_c, 4, 81, 51
5, 8576, Note_on_c, 4, 73, 43
5, 8576, Note_on_c, 4, 76, 51
5, 8585, Note_on_c, 4, 76, 0
5, 8585, Note_on_c, 4, 73, 0
5, 8586, Note_on_c, 4, 81, 0
5, 8608, Note_on_c, 4, 76, 51
5, 8608, Note_on_c, 4, 81, 51
5, 8608, Note_on_c, 4, 73, 43
5, 8616, Note_on_c, 4, 73, 0
5, 8617, Note_on_c, 4, 76, 0
5, 8618, Note_on_c, 4, 81, 0
5, 8640, Note_on_c, 4, 76, 51
5, 8640, Note_on_c, 4, 81, 51
5, 8640, Note_on_c, 4, 73, 51
5, 8649, Note_on_c, 4, 73, 0
5, 8650, Note_on_c, 4, 81, 0
5, 8650, Note_on_c, 4, 76, 0
5, 8672, Note_on_c, 4, 76, 51
5, 8672, Note_on_c, 4, 81, 51
5, 8672, Note_on_c, 4, 73, 39
5, 8680, Note_on_c, 4, 73, 0
5, 8681, Note_on_c, 4, 76, 0
5, 8682, Note_on_c, 4, 81, 0
5, 8704, Note_on_c, 4, 81, 51
5, 8704, Note_on_c, 4, 73, 39
5, 8704, Note_on_c, 4, 76, 51
5, 8712, Note_on_c, 4, 73, 0
5, 8713, Note_on_c, 4, 76, 0
5, 8715, Note_on_c, 4, 81, 0
5, 8736, Note_on_c, 4, 81, 51
5, 8736, Note_on_c, 4, 73, 39
5, 8736, Note_on_c, 4, 76, 51
5, 8744, Note_on_c, 4, 81, 0
5, 8745, Note_on_c, 4, 73, 0
5, 8746, Note_on_c, 4, 76, 0
5, 8768, Note_on_c, 4, 81, 51
5, 8768, Note_on_c, 4, 73, 28
5, 8768, Note_on_c, 4, 76, 51
5, 8777, Note_on_c, 4, 76, 0
5, 8777, Note_on_c, 4, 73, 0
5, 8778, Note_on_c, 4, 81, 0
5, 8800, Note_on_c, 4, 73, 51
5, 8800, Note_on_c, 4, 76, 51
5, 8800, Note_on_c, 4, 81, 51
5, 8808, Note_on_c, 4, 76, 0
5, 8810, Note_on_c, 4, 81, 0
5, 8810, Note_on_c, 4, 73, 0
5, 8832, Note_on_c, 4, 72, 16
5, 8832, Note_on_c, 4, 78, 51
5, 8832, Note_on_c, 4, 81, 51
5, 8840, Note_on_c, 4, 72, 0
5, 8843, Note_on_c, 4, 78, 0
5, 8846, Note_on_c, 4, 81, 0
5, 8864, Note_on_c, 4, 78, 43
5, 8864, Note_on_c, 4, 81, 51
5, 8864, Note_on_c, 4, 72, 47
5, 8872, Note_on_c, 4, 78, 0
5, 8874, Note_on_c, 4, 72, 0
5, 8875, Note_on_c, 4, 81, 0
5, 8896, Note_on_c, 4, 78, 51
5, 8896, Note_on_c, 4, 72, 43
5, 8896, Note_on_c, 4, 81, 51
5, 8906, Note_on_c, 4, 72, 0
5, 8906, Note_on_c, 4, 78, 0
5, 8908, Note_on_c, 4, 81, 0
5, 8928, Note_on_c, 4, 81, 51
5, 8928, Note_on_c, 4, 78, 51
5, 8928, Note_on_c, 4, 72, 51
5, 8937, Note_on_c, 4, 78, 0
5, 8938, Note_on_c, 4, 72, 0
5, 8940, Note_on_c, 4, 81, 0
5, 8960, Note_on_c, 4, 78, 43
5, 8960, Note_on_c, 4, 72, 35
5, 8960, Note_on_c, 4, 81, 51
5, 8969, Note_on_c, 4, 78, 0
5, 8970, Note_on_c, 4, 72, 0
5, 8972, Note_on_c, 4, 81, 0
5, 8992, Note_on_c, 4, 72, 35
5, 8992, Note_on_c, 4, 81, 51
5, 8992, Note_on_c, 4, 78, 35
5, 9000, Note_on_c, 4, 78, 0
5, 9001, Note_on_c, 4, 72, 0
5, 9003, Note_on_c, 4, 81, 0
5, 9024, Note_on_c, 4, 78, 51
5, 9024, Note_on_c, 4, 72, 51
5, 9024, Note_on_c, 4, 81, 51
5, 9034, Note_on_c, 4, 72, 0
5, 9034, Note_on_c, 4, 78, 0
5, 9036, Note_on_c, 4, 81, 0
5, 9056, Note_on_c, 4, 72, 32
5, 9056, Note_on_c, 4, 81, 51
5, 9056, Note_on_c, 4, 78, 39
5, 9065, Note_on_c, 4, 78, 0
5, 9065, Note_on_c, 4, 72, 0
5, 9068, Note_on_c, 4, 81, 0
5, 9088, Note_on_c, 4, 81, 43
5, 9088, Note_on_c, 4, 78, 47
5, 9088, Note_on_c, 4, 72, 43
5, 9098, Note_on_c, 4, 72, 0
5, 9098, Note_on_c, 4, 78, 0
5, 9099, Note_on_c, 4, 81, 0
5, 9120, Note_on_c, 4, 72, 51
5, 9120, Note_on_c, 4, 78, 51
5, 9120, Note_on_c, 4, 81, 51
5, 9130, Note_on_c, 4, 72, 0
5, 9131, Note_on_c, 4, 78, 0
5, 9132, Note_on_c, 4, 81, 0
5, 9152, Note_on_c, 4, 78, 47
5, 9152, Note_on_c, 4, 81, 51
5, 9152, Note_on_c, 4, 72, 43
5, 9161, Note_on_c, 4, 78, 0
5, 9162, Note_on_c, 4, 72, 0
5, 9163, Note_on_c, 4, 81, 0
5, 9184, Note_on_c, 4, 72, 43
5, 9184, Note_on_c, 4, 78, 51
5, 9184, Note_on_c, 4, 81, 51
5, 9193, Note_on_c, 4, 72, 0
5, 9194, Note_on_c, 4, 78, 0
5, 9195, Note_on_c, 4, 81, 0
5, 9216, Note_on_c, 4, 72, 51
5, 9216, Note_on_c, 4, 81, 51
5, 9216, Note_on_c, 4, 78, 51
5, 9226, Note_on_c, 4, 72, 0
5, 9227, Note_on_c, 4, 78, 0
5, 9229, Note_on_c, 4, 81, 0
5, 9248, Note_on_c, 4, 81, 43
5, 9248, Note_on_c, 4, 72, 35
5, 9248, Note_on_c, 4, 78, 39
5, 9257, Note_on_c, 4, 72, 0
5, 9258, Note_on_c, 4, 78, 0
5, 9259, Note_on_c, 4, 81, 0
5, 9280, Note_on_c, 4, 72, 47
5, 9280, Note_on_c, 4, 78, 51
5, 9280, Note_on_c, 4, 81, 51
5, 9289, Note_on_c, 4, 72, 0
5, 9290, Note_on_c, 4, 81, 0
5, 9290, Note_on_c, 4, 78, 0
5, 9312, Note_on_c, 4, 78, 51
5, 9312, Note_on_c, 4, 72, 47
5, 9312, Note_on_c, 4, 81, 51
5, 9321, Note_on_c, 4, 72, 0
5, 9322, Note_on_c, 4, 78, 0
5, 9324, Note_on_c, 4, 81, 0
5, 9344, Note_on_c, 4, 72, 35
5, 9344, Note_on_c, 4, 81, 47
5, 9344, Note_on_c, 4, 78, 39
5, 9353, Note_on_c, 4, 78, 0
5, 9354, Note_on_c, 4, 72, 0
5, 9356, Note_on_c, 4, 81, 0
5, 9376, Note_on_c, 4, 78, 51
5, 9376, Note_on_c, 4, 81, 51
5, 9376, Note_on_c, 4, 72, 51
5, 9384, Note_on_c, 4, 78, 0
5, 9386, Note_on_c, 4, 72, 0
5, 9387, Note_on_c, 4, 81, 0
5, 9408, Note_on_c, 4, 78, 39
5, 9408, Note_on_c, 4, 81, 51
5, 9408, Note_on_c, 4, 72, 39
5, 9418, Note_on_c, 4, 72, 0
5, 9418, Note_on_c, 4, 78, 0
5, 9420, Note_on_c, 4, 81, 0
5, 9440, Note_on_c, 4, 72, 30
5, 9440, Note_on_c, 4, 78, 43
5, 9440, Note_on_c, 4, 81, 51
5, 9449, Note_on_c, 4, 72, 0
5, 9451, Note_on_c, 4, 78, 0
5, 9452, Note_on_c, 4, 81, 0
5, 9472, Note_on_c, 4, 81, 51
5, 9472, Note_on_c, 4, 78, 43
5, 9472, Note_on_c, 4, 72, 35
5, 9480, Note_on_c, 4, 78, 0
5, 9481, Note_on_c, 4, 72, 0
5, 9485, Note_on_c, 4, 81, 0
5, 9504, Note_on_c, 4, 78, 51
5, 9504, Note_on_c, 4, 72, 35
5, 9504, Note_on_c, 4, 81, 51
5, 9512, Note_on_c, 4, 72, 0
5, 9515, Note_on_c, 4, 81, 0
5, 9515, Note_on_c, 4, 78, 0
5, 9536, Note_on_c, 4, 78, 51
5, 9536, Note_on_c, 4, 81, 51
5, 9536, Note_on_c, 4, 72, 47
5, 9545, Note_on_c, 4, 72, 0
5, 9545, Note_on_c, 4, 78, 0
5, 9549, Note_on_c, 4, 81, 0
5, 9568, Note_on_c, 4, 81, 51
5, 9568, Note_on_c, 4, 72, 47
5, 9568, Note_on_c, 4, 78, 47
5, 9574, Note_on_c, 4, 72, 0
5, 9575, Note_on_c, 4, 78, 0
5, 9578, Note_on_c, 4, 81, 0
5, 9600, Note_on_c, 4, 74, 51
5, 9600, Note_on_c, 4, 79, 51
5, 9600, Note_on_c, 4, 70, 39
5, 9612, Note_on_c, 4, 74, 0
5, 9613, Note_on_c, 4, 70, 0
5, 9614, Note_on_c, 4, 79, 0
5, 9632, Note_on_c, 4, 74, 35
5, 9632, Note_on_c, 4, 79, 51
5, 9632, Note_on_c, 4, 70, 32
5, 9644, Note_on_c, 4, 74, 0
5, 9645, Note_on_c, 4, 70, 0
5, 9646, Note_on_c, 4, 79, 0
5, 9664, Note_on_c, 4, 74, 39
5, 9664, Note_on_c, 4, 70, 35
5, 9664, Note_on_c, 4, 79, 51
5, 9675, Note_on_c, 4, 74, 0
5, 9677, Note_on_c, 4, 70, 0
5, 9678, Note_on_c, 4, 79, 0
5, 9696, Note_on_c, 4, 79, 51
5, 9696, Note_on_c, 4, 70, 43
5, 9696, Note_on_c, 4, 74, 51
5, 9707, Note_on_c, 4, 74, 0
5, 9708, Note_on_c, 4, 70, 0
5, 9711, Note_on_c, 4, 79, 0
5, 9728, Note_on_c, 4, 70, 35
5, 9728, Note_on_c, 4, 79, 43
5, 9728, Note_on_c, 4, 74, 47
5, 9739, Note_on_c, 4, 74, 0
5, 9740, Note_on_c, 4, 70, 0
5, 9744, Note_on_c, 4, 79, 0
5, 9760, Note_on_c, 4, 70, 39
5, 9760, Note_on_c, 4, 74, 51
5, 9760, Note_on_c, 4, 79, 43
5, 9771, Note_on_c, 4, 70, 0
5, 9772, Note_on_c, 4, 74, 0
5, 9776, Note_on_c, 4, 79, 0
5, 9792, Note_on_c, 4, 69, 27
5, 9792, Note_on_c, 4, 78, 51
5, 9792, Note_on_c, 4, 74, 39
5, 9802, Note_on_c, 4, 69, 0
5, 9803, Note_on_c, 4, 74, 0
5, 9809, Note_on_c, 4, 78, 0
5, 9824, Note_on_c, 4, 74, 32
5, 9824, Note_on_c, 4, 78, 47
5, 9824, Note_on_c, 4, 69, 30
5, 9832, Note_on_c, 4, 74, 0
5, 9836, Note_on_c, 4, 69, 0
5, 9838, Note_on_c, 4, 78, 0
5, 9856, Note_on_c, 4, 74, 43
5, 9856, Note_on_c, 4, 69, 35
5, 9856, Note_on_c, 4, 78, 51
5, 9866, Note_on_c, 4, 74, 0
5, 9867, Note_on_c, 4, 69, 0
5, 9868, Note_on_c, 4, 78, 0
5, 9888, Note_on_c, 4, 74, 43
5, 9888, Note_on_c, 4, 78, 51
5, 9888, Note_on_c, 4, 69, 39
5, 9898, Note_on_c, 4, 74, 0
5, 9901, Note_on_c, 4, 69, 0
5, 9902, Note_on_c, 4, 78, 0
5, 9920, Note_on_c, 4, 69, 39
5, 9920, Note_on_c, 4, 74, 43
5, 9920, Note_on_c, 4, 78, 51
5, 9929, Note_on_c, 4, 74, 0
5, 9931, Note_on_c, 4, 69, 0
5, 9933, Note_on_c, 4, 78, 0
5, 9952, Note_on_c, 4, 69, 43
5, 9952, Note_on_c, 4, 78, 51
5, 9952, Note_on_c, 4, 74, 32
5, 9962, Note_on_c, 4, 74, 0
5, 9965, Note_on_c, 4, 78, 0
5, 9965, Note_on_c, 4, 69, 0
5, 9984, Note_on_c, 4, 70, 28
5, 9984, Note_on_c, 4, 79, 51
5, 9984, Note_on_c, 4, 74, 51
5, 9992, Note_on_c, 4, 70, 0
5, 9997, Note_on_c, 4, 74, 0
5, 9999, Note_on_c, 4, 79, 0
5, 10016, Note_on_c, 4, 79, 43
5, 10016, Note_on_c, 4, 74, 43
5, 10016, Note_on_c, 4, 70, 35
5, 10025, Note_on_c, 4, 79, 0
5, 10026, Note_on_c, 4, 74, 0
5, 10028, Note_on_c, 4, 70, 0
5, 10048, Note_on_c, 4, 74, 51
5, 10048, Note_on_c, 4, 79, 51
5, 10048, Note_on_c, 4, 70, 43
5, 10057, Note_on_c, 4, 74, 0
5, 10058, Note_on_c, 4, 70, 0
5, 10060, Note_on_c, 4, 79, 0
5, 10080, Note_on_c, 4, 70, 43
5, 10080, Note_on_c, 4, 74, 51
5, 10080, Note_on_c, 4, 79, 51
5, 10090, Note_on_c, 4, 74, 0
5, 10091, Note_on_c, 4, 70, 0
5, 10094, Note_on_c, 4, 79, 0
5, 10112, Note_on_c, 4, 70, 35
5, 10112, Note_on_c, 4, 79, 51
5, 10112, Note_on_c, 4, 74, 51
5, 10122, Note_on_c, 4, 74, 0
5, 10123, Note_on_c, 4, 70, 0
5, 10124, Note_on_c, 4, 79, 0
5, 10144, Note_on_c, 4, 74, 51
5, 10144, Note_on_c, 4, 70, 39
5, 10144, Note_on_c, 4, 79, 51
5, 10154, Note_on_c, 4, 74, 0
5, 10155, Note_on_c, 4, 70, 0
5, 10156, Note_on_c, 4, 79, 0
5, 10176, Note_on_c, 4, 74, 43
5, 10176, Note_on_c, 4, 70, 30
5, 10176, Note_on_c, 4, 79, 51
5, 10185, Note_on_c, 4, 74, 0
5, 10187, Note_on_c, 4, 70, 0
5, 10189, Note_on_c, 4, 79, 0
5, 10208, Note_on_c, 4, 74, 51
5, 10208, Note_on_c, 4, 70, 43
5, 10208, Note_on_c, 4, 79, 51
5, 10218, Note_on_c, 4, 74, 0
5, 10219, Note_on_c, 4, 70, 0
5, 10221, Note_on_c, 4, 79, 0
5, 10240, Note_on_c, 4, 70, 39
5, 10240, Note_on_c, 4, 74, 43
5, 10240, Note_on_c, 4, 79, 51
5, 10249, Note_on_c, 4, 74, 0
5, 10251, Note_on_c, 4, 70, 0
5, 10253, Note_on_c, 4, 79, 0
5, 10272, Note_on_c, 4, 74, 51
5, 10272, Note_on_c, 4, 70, 47
5, 10272, Note_on_c, 4, 79, 51
5, 10282, Note_on_c, 4, 74, 0
5, 10284, Note_on_c, 4, 70, 0
5, 10285, Note_on_c, 4, 79, 0
5, 10304, Note_on_c, 4, 74, 47
5, 10304, Note_on_c, 4, 70, 39
5, 10304, Note_on_c, 4, 79, 51
5, 10314, Note_on_c, 4, 74, 0
5, 10315, Note_on_c, 4, 70, 0
5, 10317, Note_on_c, 4, 79, 0
5, 10336, Note_on_c, 4, 79, 51
5, 10336, Note_on_c, 4, 74, 51
5, 10336, Note_on_c, 4, 70, 47
5, 10344, Note_on_c, 4, 79, 0
5, 10345, Note_on_c, 4, 74, 0
5, 10346, Note_on_c, 4, 70, 0
5, 10368, Note_on_c, 4, 77, 51
5, 10368, Note_on_c, 4, 74, 51
5, 10368, Note_on_c, 4, 70, 39
5, 10379, Note_on_c, 4, 74, 0
5, 10381, Note_on_c, 4, 70, 0
5, 10382, Note_on_c, 4, 77, 0
5, 10400, Note_on_c, 4, 77, 43
5, 10400, Note_on_c, 4, 70, 30
5, 10400, Note_on_c, 4, 74, 39
5, 10410, Note_on_c, 4, 74, 0
5, 10413, Note_on_c, 4, 70, 0
5, 10413, Note_on_c, 4, 77, 0
5, 10432, Note_on_c, 4, 70, 28
5, 10432, Note_on_c, 4, 77, 51
5, 10432, Note_on_c, 4, 74, 35
5, 10442, Note_on_c, 4, 74, 0
5, 10444, Note_on_c, 4, 77, 0
5, 10444, Note_on_c, 4, 70, 0
5, 10464, Note_on_c, 4, 77, 51
5, 10464, Note_on_c, 4, 70, 43
5, 10464, Note_on_c, 4, 74, 51
5, 10476, Note_on_c, 4, 74, 0
5, 10478, Note_on_c, 4, 70, 0
5, 10478, Note_on_c, 4, 77, 0
5, 10496, Note_on_c, 4, 70, 28
5, 10496, Note_on_c, 4, 74, 47
5, 10496, Note_on_c, 4, 77, 51
5, 10506, Note_on_c, 4, 74, 0
5, 10507, Note_on_c, 4, 70, 0
5, 10509, Note_on_c, 4, 77, 0
5, 10528, Note_on_c, 4, 77, 51
5, 10528, Note_on_c, 4, 74, 47
5, 10528, Note_on_c, 4, 70, 30
5, 10539, Note_on_c, 4, 70, 0
5, 10539, Note_on_c, 4, 74, 0
5, 10540, Note_on_c, 4, 77, 0
5, 10560, Note_on_c, 4, 70, 32
5, 10560, Note_on_c, 4, 77, 51
5, 10560, Note_on_c, 4, 74, 51
5, 10572, Note_on_c, 4, 74, 0
5, 10572, Note_on_c, 4, 70, 0
5, 10573, Note_on_c, 4, 77, 0
5, 10592, Note_on_c, 4, 77, 47
5, 10592, Note_on_c, 4, 74, 39
5, 10592, Note_on_c, 4, 70, 25
5, 10602, Note_on_c, 4, 74, 0
5, 10604, Note_on_c, 4, 70, 0
5, 10604, Note_on_c, 4, 77, 0
5, 10624, Note_on_c, 4, 70, 32
5, 10624, Note_on_c, 4, 77, 51
5, 10624, Note_on_c, 4, 74, 51
5, 10634, Note_on_c, 4, 74, 0
5, 10635, Note_on_c, 4, 70, 0
5, 10636, Note_on_c, 4, 77, 0
5, 10656, Note_on_c, 4, 77, 51
5, 10656, Note_on_c, 4, 74, 47
5, 10656, Note_on_c, 4, 70, 39
5, 10666, Note_on_c, 4, 74, 0
5, 10667, Note_on_c, 4, 70, 0
5, 10670, Note_on_c, 4, 77, 0
5, 10688, Note_on_c, 4, 77, 51
5, 10688, Note_on_c, 4, 74, 47
5, 10688, Note_on_c, 4, 70, 32
5, 10699, Note_on_c, 4, 74, 0
5, 10700, Note_on_c, 4, 70, 0
5, 10700, Note_on_c, 4, 77, 0
5, 10720, Note_on_c, 4, 74, 51
5, 10720, Note_on_c, 4, 77, 51
5, 10720, Note_on_c, 4, 70, 32
5, 10732, Note_on_c, 4, 70, 0
5, 10732, Note_on_c, 4, 74, 0
5, 10733, Note_on_c, 4, 77, 0
5, 10752, Note_on_c, 4, 77, 51
5, 10752, Note_on_c, 4, 70, 39
5, 10752, Note_on_c, 4, 73, 51
5, 10761, Note_on_c, 4, 70, 0
5, 10763, Note_on_c, 4, 77, 0
5, 10765, Note_on_c, 4, 73, 0
5, 10784, Note_on_c, 4, 77, 43
5, 10784, Note_on_c, 4, 73, 35
5, 10784, Note_on_c, 4, 70, 30
5, 10796, Note_on_c, 4, 70, 0
5, 10796, Note_on_c, 4, 73, 0
5, 10796, Note_on_c, 4, 77, 0
5, 10816, Note_on_c, 4, 70, 27
5, 10816, Note_on_c, 4, 73, 39
5, 10816, Note_on_c, 4, 77, 47
5, 10826, Note_on_c, 4, 70, 0
5, 10827, Note_on_c, 4, 77, 0
5, 10827, Note_on_c, 4, 73, 0
5, 10848, Note_on_c, 4, 70, 39
5, 10848, Note_on_c, 4, 77, 51
5, 10848, Note_on_c, 4, 73, 51
5, 10858, Note_on_c, 4, 70, 0
5, 10860, Note_on_c, 4, 73, 0
5, 10862, Note_on_c, 4, 77, 0
5, 10880, Note_on_c, 4, 70, 27
5, 10880, Note_on_c, 4, 73, 39
5, 10880, Note_on_c, 4, 77, 47
5, 10889, Note_on_c, 4, 70, 0
5, 10891, Note_on_c, 4, 73, 0
5, 10892, Note_on_c, 4, 77, 0
5, 10912, Note_on_c, 4, 77, 43
5, 10912, Note_on_c, 4, 70, 30
5, 10912, Note_on_c, 4, 73, 39
5, 10921, Note_on_c, 4, 70, 0
5, 10923, Note_on_c, 4, 73, 0
5, 10924, Note_on_c, 4, 77, 0
5, 10944, Note_on_c, 4, 70, 32
5, 10944, Note_on_c, 4, 73, 43
5, 10944, Note_on_c, 4, 77, 47
5, 10954, Note_on_c, 4, 70, 0
5, 10955, Note_on_c, 4, 73, 0
5, 10958, Note_on_c, 4, 77, 0
5, 10976, Note_on_c, 4, 77, 47
5, 10976, Note_on_c, 4, 70, 30
5, 10976, Note_on_c, 4, 73, 39
5, 10986, Note_on_c, 4, 70, 0
5, 10987, Note_on_c, 4, 73, 0
5, 10991, Note_on_c, 4, 77, 0
5, 11008, Note_on_c, 4, 73, 47
5, 11008, Note_on_c, 4, 77, 51
5, 11008, Note_on_c, 4, 70, 30
5, 11018, Note_on_c, 4, 70, 0
5, 11019, Note_on_c, 4, 73, 0
5, 11020, Note_on_c, 4, 77, 0
5, 11040, Note_on_c, 4, 73, 43
5, 11040, Note_on_c, 4, 77, 51
5, 11040, Note_on_c, 4, 70, 30
5, 11049, Note_on_c, 4, 70, 0
5, 11050, Note_on_c, 4, 73, 0
5, 11053, Note_on_c, 4, 77, 0
5, 11072, Note_on_c, 4, 70, 27
5, 11072, Note_on_c, 4, 73, 47
5, 11072, Note_on_c, 4, 77, 51
5, 11080, Note_on_c, 4, 70, 0
5, 11082, Note_on_c, 4, 73, 0
5, 11083, Note_on_c, 4, 77, 0
5, 11104, Note_on_c, 4, 73, 51
5, 11104, Note_on_c, 4, 77, 51
5, 11104, Note_on_c, 4, 70, 32
5, 11112, Note_on_c, 4, 70, 0
5, 11114, Note_on_c, 4, 73, 0
5, 11117, Note_on_c, 4, 77, 0
5, 11136, Note_on_c, 4, 72, 43
5, 11136, Note_on_c, 4, 69, 39
5, 11136, Note_on_c, 4, 77, 51
5, 11147, Note_on_c, 4, 72, 0
5, 11148, Note_on_c, 4, 69, 0
5, 11151, Note_on_c, 4, 77, 0
5, 11168, Note_on_c, 4, 72, 32
5, 11168, Note_on_c, 4, 69, 25
5, 11168, Note_on_c, 4, 77, 39
5, 11178, Note_on_c, 4, 72, 0
5, 11180, Note_on_c, 4, 69, 0
5, 11182, Note_on_c, 4, 77, 0
5, 11200, Note_on_c, 4, 72, 39
5, 11200, Note_on_c, 4, 77, 51
5, 11200, Note_on_c, 4, 69, 28
5, 11211, Note_on_c, 4, 69, 0
5, 11211, Note_on_c, 4, 72, 0
5, 11212, Note_on_c, 4, 77, 0
5, 11232, Note_on_c, 4, 72, 43
5, 11232, Note_on_c, 4, 69, 35
5, 11232, Note_on_c, 4, 77, 51
5, 11242, Note_on_c, 4, 72, 0
5, 11244, Note_on_c, 4, 69, 0
5, 11246, Note_on_c, 4, 77, 0
5, 11264, Note_on_c, 4, 72, 39
5, 11264, Note_on_c, 4, 69, 30
5, 11264, Note_on_c, 4, 77, 51
5, 11274, Note_on_c, 4, 72, 0
5, 11275, Note_on_c, 4, 69, 0
5, 11278, Note_on_c, 4, 77, 0
5, 11296, Note_on_c, 4, 72, 43
5, 11296, Note_on_c, 4, 69, 30
5, 11296, Note_on_c, 4, 77, 51
5, 11306, Note_on_c, 4, 72, 0
5, 11307, Note_on_c, 4, 69, 0
5, 11309, Note_on_c, 4, 77, 0
5, 11328, Note_on_c, 4, 69, 35
5, 11328, Note_on_c, 4, 72, 47
5, 11328, Note_on_c, 4, 77, 51
5, 11338, Note_on_c, 4, 72, 0
5, 11339, Note_on_c, 4, 69, 0
5, 11342, Note_on_c, 4, 77, 0
5, 11360, Note_on_c, 4, 69, 28
5, 11360, Note_on_c, 4, 72, 51
5, 11360, Note_on_c, 4, 77, 51
5, 11370, Note_on_c, 4, 72, 0
5, 11371, Note_on_c, 4, 69, 0
5, 11373, Note_on_c, 4, 77, 0
5, 11392, Note_on_c, 4, 69, 32
5, 11392, Note_on_c, 4, 72, 51
5, 11392, Note_on_c, 4, 77, 51
5, 11403, Note_on_c, 4, 72, 0
5, 11403, Note_on_c, 4, 69, 0
5, 11405, Note_on_c, 4, 77, 0
5, 11424, Note_on_c, 4, 69, 32
5, 11424, Note_on_c, 4, 77, 51
5, 11424, Note_on_c, 4, 72, 51
5, 11435, Note_on_c, 4, 72, 0
5, 11435, Note_on_c, 4, 69, 0
5, 11437, Note_on_c, 4, 77, 0
5, 11456, Note_on_c, 4, 77, 51
5, 11456, Note_on_c, 4, 72, 43
5, 11456, Note_on_c, 4, 69, 30
5, 11466, Note_on_c, 4, 72, 0
5, 11467, Note_on_c, 4, 69, 0
5, 11469, Note_on_c, 4, 77, 0
5, 11488, Note_on_c, 4, 72, 47
5, 11488, Note_on_c, 4, 69, 39
5, 11488, Note_on_c, 4, 77, 51
5, 11496, Note_on_c, 4, 72, 0
5, 11498, Note_on_c, 4, 77, 0
5, 11498, Note_on_c, 4, 69, 0
5, 11520, Note_on_c, 4, 69, 35
5, 11520, Note_on_c, 4, 72, 51
5, 11520, Note_on_c, 4, 78, 51
5, 11530, Note_on_c, 4, 72, 0
5, 11530, Note_on_c, 4, 69, 0
5, 11532, Note_on_c, 4, 78, 0
5, 11552, Note_on_c, 4, 69, 16
5, 11552, Note_on_c, 4, 78, 39
5, 11552, Note_on_c, 4, 72, 28
5, 11561, Note_on_c, 4, 69, 0
5, 11562, Note_on_c, 4, 72, 0
5, 11563, Note_on_c, 4, 78, 0
5, 11584, Note_on_c, 4, 72, 43
5, 11584, Note_on_c, 4, 78, 35
5, 11584, Note_on_c, 4, 69, 25
5, 11594, Note_on_c, 4, 69, 0
5, 11594, Note_on_c, 4, 78, 0
5, 11594, Note_on_c, 4, 72, 0
5, 11616, Note_on_c, 4, 69, 39
5, 11616, Note_on_c, 4, 72, 51
5, 11616, Note_on_c, 4, 78, 51
5, 11627, Note_on_c, 4, 72, 0
5, 11627, Note_on_c, 4, 69, 0
5, 11628, Note_on_c, 4, 78, 0
5, 11648, Note_on_c, 4, 69, 25
5, 11648, Note_on_c, 4, 78, 39
5, 11648, Note_on_c, 4, 72, 47
5, 11657, Note_on_c, 4, 78, 0
5, 11657, Note_on_c, 4, 69, 0
5, 11658, Note_on_c, 4, 72, 0
5, 11680, Note_on_c, 4, 69, 32
5, 11680, Note_on_c, 4, 72, 51
5, 11680, Note_on_c, 4, 78, 51
5, 11688, Note_on_c, 4, 69, 0
5, 11689, Note_on_c, 4, 72, 0
5, 11693, Note_on_c, 4, 78, 0
5, 11712, Note_on_c, 4, 69, 28
5, 11712, Note_on_c, 4, 78, 51
5, 11712, Note_on_c, 4, 72, 51
5, 11724, Note_on_c, 4, 72, 0
5, 11724, Note_on_c, 4, 78, 0
5, 11724, Note_on_c, 4, 69, 0
5, 11744, Note_on_c, 4, 72, 47
5, 11744, Note_on_c, 4, 78, 47
5, 11744, Note_on_c, 4, 69, 30
5, 11753, Note_on_c, 4, 69, 0
5, 11753, Note_on_c, 4, 72, 0
5, 11754, Note_on_c, 4, 78, 0
5, 11776, Note_on_c, 4, 69, 39
5, 11776, Note_on_c, 4, 72, 51
5, 11776, Note_on_c, 4, 78, 51
5, 11784, Note_on_c, 4, 72, 0
5, 11785, Note_on_c, 4, 69, 0
5, 11788, Note_on_c, 4, 78, 0
5, 11808, Note_on_c, 4, 69, 32
5, 11808, Note_on_c, 4, 78, 47
5, 11808, Note_on_c, 4, 72, 51
5, 11818, Note_on_c, 4, 72, 0
5, 11818, Note_on_c, 4, 69, 0
5, 11819, Note_on_c, 4, 78, 0
5, 11840, Note_on_c, 4, 69, 28
5, 11840, Note_on_c, 4, 72, 47
5, 11840, Note_on_c, 4, 78, 51
5, 11848, Note_on_c, 4, 72, 0
5, 11848, Note_on_c, 4, 69, 0
5, 11852, Note_on_c, 4, 78, 0
5, 11872, Note_on_c, 4, 72, 25
5, 11872, Note_on_c, 4, 69, 30
5, 11872, Note_on_c, 4, 78, 47
5, 11881, Note_on_c, 4, 72, 0
5, 11883, Note_on_c, 4, 69, 0
5, 11884, Note_on_c, 4, 78, 0
5, 11904, Note_on_c, 4, 70, 43
5, 11904, Note_on_c, 4, 77, 51
5, 11904, Note_on_c, 4, 74, 51
5, 11915, Note_on_c, 4, 70, 0
5, 11916, Note_on_c, 4, 74, 0
5, 11919, Note_on_c, 4, 77, 0
5, 11936, Note_on_c, 4, 74, 32
5, 11936, Note_on_c, 4, 70, 25
5, 11936, Note_on_c, 4, 77, 39
5, 11948, Note_on_c, 4, 70, 0
5, 11948, Note_on_c, 4, 74, 0
5, 11949, Note_on_c, 4, 77, 0
5, 11968, Note_on_c, 4, 77, 51
5, 11968, Note_on_c, 4, 70, 39
5, 11968, Note_on_c, 4, 74, 51
5, 11979, Note_on_c, 4, 74, 0
5, 11980, Note_on_c, 4, 70, 0
5, 11980, Note_on_c, 4, 77, 0
5, 12000, Note_on_c, 4, 77, 51
5, 12000, Note_on_c, 4, 74, 51
5, 12000, Note_on_c, 4, 70, 39
5, 12010, Note_on_c, 4, 70, 0
5, 12010, Note_on_c, 4, 74, 0
5, 12014, Note_on_c, 4, 77, 0
5, 12032, Note_on_c, 4, 70, 28
5, 12032, Note_on_c, 4, 77, 47
5, 12032, Note_on_c, 4, 74, 43
5, 12042, Note_on_c, 4, 74, 0
5, 12042, Note_on_c, 4, 70, 0
5, 12044, Note_on_c, 4, 77, 0
5, 12064, Note_on_c, 4, 74, 51
5, 12064, Note_on_c, 4, 77, 51
5, 12064, Note_on_c, 4, 70, 30
5, 12073, Note_on_c, 4, 74, 0
5, 12074, Note_on_c, 4, 70, 0
5, 12075, Note_on_c, 4, 77, 0
5, 12096, Note_on_c, 4, 74, 51
5, 12096, Note_on_c, 4, 70, 35
5, 12096, Note_on_c, 4, 77, 51
5, 12105, Note_on_c, 4, 70, 0
5, 12106, Note_on_c, 4, 74, 0
5, 12108, Note_on_c, 4, 77, 0
5, 12128, Note_on_c, 4, 70, 35
5, 12128, Note_on_c, 4, 74, 43
5, 12128, Note_on_c, 4, 77, 51
5, 12137, Note_on_c, 4, 74, 0
5, 12138, Note_on_c, 4, 70, 0
5, 12141, Note_on_c, 4, 77, 0
5, 12160, Note_on_c, 4, 70, 35
5, 12160, Note_on_c, 4, 74, 51
5, 12160, Note_on_c, 4, 77, 51
5, 12169, Note_on_c, 4, 74, 0
5, 12169, Note_on_c, 4, 70, 0
5, 12173, Note_on_c, 4, 77, 0
5, 12192, Note_on_c, 4, 77, 51
5, 12192, Note_on_c, 4, 70, 43
5, 12192, Note_on_c, 4, 74, 51
5, 12204, Note_on_c, 4, 74, 0
5, 12204, Note_on_c, 4, 70, 0
5, 12208, Note_on_c, 4, 77, 0
5, 12224, Note_on_c, 4, 70, 27
5, 12224, Note_on_c, 4, 74, 39
5, 12224, Note_on_c, 4, 77, 51
5, 12234, Note_on_c, 4, 70, 0
5, 12235, Note_on_c, 4, 74, 0
5, 12240, Note_on_c, 4, 77, 0
5, 12256, Note_on_c, 4, 77, 39
5, 12256, Note_on_c, 4, 74, 47
5, 12256, Note_on_c, 4, 70, 30
5, 12269, Note_on_c, 4, 70, 0
5, 12271, Note_on_c, 4, 74, 0
5, 12272, Note_on_c, 4, 77, 0
5, 12288, Note_on_c, 4, 76, 51
5, 12288, Note_on_c, 4, 72, 51
5, 12302, Note_on_c, 4, 72, 0
5, 12303, Note_on_c, 4, 76, 0
5, 12320, Note_on_c, 4, 72, 28
5, 12320, Note_on_c, 4, 76, 35
5, 12335, Note_on_c, 4, 76, 0
5, 12335, Note_on_c, 4, 72, 0
5, 12352, Note_on_c, 4, 72, 28
5, 12352, Note_on_c, 4, 76, 43
5, 12366, Note_on_c, 4, 72, 0
5, 12368, Note_on_c, 4, 76, 0
5, 12384, Note_on_c, 4, 72, 32
5, 12384, Note_on_c, 4, 76, 51
5, 12399, Note_on_c, 4, 72, 0
5, 12401, Note_on_c, 4, 76, 0
5, 12416, Note_on_c, 4, 72, 32
5, 12416, Note_on_c, 4, 76, 51
5, 12430, Note_on_c, 4, 76, 0
5, 12430, Note_on_c, 4, 72, 0
5, 12448, Note_on_c, 4, 76, 51
5, 12448, Note_on_c, 4, 72, 35
5, 12464, Note_on_c, 4, 72, 0
5, 12464, Note_on_c, 4, 76, 0
5, 12480, Note_on_c, 4, 76, 51
5, 12480, Note_on_c, 4, 72, 39
5, 12494, Note_on_c, 4, 72, 0
5, 12496, Note_on_c, 4, 76, 0
5, 12512, Note_on_c, 4, 72, 32
5, 12512, Note_on_c, 4, 76, 51
5, 12527, Note_on_c, 4, 76, 0
5, 12527, Note_on_c, 4, 72, 0
5, 12544, Note_on_c, 4, 72, 30
5, 12544, Note_on_c, 4, 76, 51
5, 12558, Note_on_c, 4, 72, 0
5, 12560, Note_on_c, 4, 76, 0
5, 12576, Note_on_c, 4, 72, 43
5, 12576, Note_on_c, 4, 76, 51
5, 12588, Note_on_c, 4, 72, 0
5, 12590, Note_on_c, 4, 76, 0
5, 12608, Note_on_c, 4, 72, 43
5, 12608, Note_on_c, 4, 76, 51
5, 12620, Note_on_c, 4, 76, 0
5, 12620, Note_on_c, 4, 72, 0
5, 12640, Note_on_c, 4, 76, 51
5, 12640, Note_on_c, 4, 72, 51
5, 12649, Note_on_c, 4, 72, 0
5, 12650, Note_on_c, 4, 76, 0
5, 12672, Note_on_c, 4, 72, 39
5, 12672, Note_on_c, 4, 77, 39
5, 12672, Note_on_c, 4, 81, 47
5, 12683, Note_on_c, 4, 77, 0
5, 12684, Note_on_c, 4, 81, 0
5, 12686, Note_on_c, 4, 72, 0
5, 12704, Note_on_c, 4, 81, 39
5, 12704, Note_on_c, 4, 77, 35
5, 12704, Note_on_c, 4, 72, 25
5, 12715, Note_on_c, 4, 81, 0
5, 12716, Note_on_c, 4, 72, 0
5, 12716, Note_on_c, 4, 77, 0
5, 12736, Note_on_c, 4, 77, 47
5, 12736, Note_on_c, 4, 72, 32
5, 12736, Note_on_c, 4, 81, 51
5, 12746, Note_on_c, 4, 77, 0
5, 12747, Note_on_c, 4, 72, 0
5, 12749, Note_on_c, 4, 81, 0
5, 12768, Note_on_c, 4, 81, 51
5, 12768, Note_on_c, 4, 72, 43
5, 12768, Note_on_c, 4, 77, 51
5, 12780, Note_on_c, 4, 77, 0
5, 12780, Note_on_c, 4, 72, 0
5, 12782, Note_on_c, 4, 81, 0
5, 12800, Note_on_c, 4, 81, 51
5, 12800, Note_on_c, 4, 72, 43
5, 12800, Note_on_c, 4, 77, 51
5, 12810, Note_on_c, 4, 77, 0
5, 12811, Note_on_c, 4, 72, 0
5, 12812, Note_on_c, 4, 81, 0
5, 12832, Note_on_c, 4, 81, 51
5, 12832, Note_on_c, 4, 72, 39
5, 12832, Note_on_c, 4, 77, 51
5, 12843, Note_on_c, 4, 77, 0
5, 12844, Note_on_c, 4, 72, 0
5, 12845, Note_on_c, 4, 81, 0
5, 12864, Note_on_c, 4, 77, 51
5, 12864, Note_on_c, 4, 72, 35
5, 12864, Note_on_c, 4, 81, 51
5, 12874, Note_on_c, 4, 77, 0
5, 12876, Note_on_c, 4, 72, 0
5, 12877, Note_on_c, 4, 81, 0
5, 12896, Note_on_c, 4, 77, 51
5, 12896, Note_on_c, 4, 72, 35
5, 12896, Note_on_c, 4, 81, 51
5, 12906, Note_on_c, 4, 77, 0
5, 12907, Note_on_c, 4, 72, 0
5, 12910, Note_on_c, 4, 81, 0
5, 12928, Note_on_c, 4, 72, 39
5, 12928, Note_on_c, 4, 81, 51
5, 12928, Note_on_c, 4, 77, 51
5, 12940, Note_on_c, 4, 77, 0
5, 12940, Note_on_c, 4, 72, 0
5, 12942, Note_on_c, 4, 81, 0
5, 12960, Note_on_c, 4, 72, 51
5, 12960, Note_on_c, 4, 81, 51
5, 12960, Note_on_c, 4, 77, 51
5, 12971, Note_on_c, 4, 77, 0
5, 12971, Note_on_c, 4, 72, 0
5, 12973, Note_on_c, 4, 81, 0
5, 12992, Note_on_c, 4, 77, 51
5, 12992, Note_on_c, 4, 81, 51
5, 12992, Note_on_c, 4, 72, 51
5, 13001, Note_on_c, 4, 77, 0
5, 13002, Note_on_c, 4, 81, 0
5, 13003, Note_on_c, 4, 72, 0
5, 13024, Note_on_c, 4, 77, 51
5, 13024, Note_on_c, 4, 81, 51
5, 13024, Note_on_c, 4, 72, 47
5, 13034, Note_on_c, 4, 72, 0
5, 13034, Note_on_c, 4, 81, 0
5, 13034, Note_on_c, 4, 77, 0
5, 13056, Note_on_c, 4, 81, 51
5, 13056, Note_on_c, 4, 72, 51
5, 13056, Note_on_c, 4, 77, 51
5, 13065, Note_on_c, 4, 77, 0
5, 13066, Note_on_c, 4, 72, 0
5, 13066, Note_on_c, 4, 81, 0
5, 13088, Note_on_c, 4, 81, 51
5, 13088, Note_on_c, 4, 77, 51
5, 13088, Note_on_c, 4, 72, 39
5, 13098, Note_on_c, 4, 77, 0
5, 13099, Note_on_c, 4, 72, 0
5, 13099, Note_on_c, 4, 81, 0
5, 13120, Note_on_c, 4, 72, 43
5, 13120, Note_on_c, 4, 81, 51
5, 13120, Note_on_c, 4, 77, 51
5, 13129, Note_on_c, 4, 77, 0
5, 13130, Note_on_c, 4, 81, 0
5, 13130, Note_on_c, 4, 72, 0
5, 13152, Note_on_c, 4, 81, 51
5, 13152, Note_on_c, 4, 72, 51
5, 13152, Note_on_c, 4, 77, 51
5, 13162, Note_on_c, 4, 77, 0
5, 13162, Note_on_c, 4, 72, 0
5, 13164, Note_on_c, 4, 81, 0
5, 13184, Note_on_c, 4, 72, 47
5, 13184, Note_on_c, 4, 77, 51
5, 13184, Note_on_c, 4, 81, 51
5, 13193, Note_on_c, 4, 77, 0
5, 13194, Note_on_c, 4, 72, 0
5, 13195, Note_on_c, 4, 81, 0
5, 13216, Note_on_c, 4, 72, 47
5, 13216, Note_on_c, 4, 81, 51
5, 13216, Note_on_c, 4, 77, 51
5, 13225, Note_on_c, 4, 77, 0
5, 13225, Note_on_c, 4, 72, 0
5, 13227, Note_on_c, 4, 81, 0
5, 13248, Note_on_c, 4, 72, 47
5, 13248, Note_on_c, 4, 81, 51
5, 13248, Note_on_c, 4, 77, 51
5, 13258, Note_on_c, 4, 77, 0
5, 13258, Note_on_c, 4, 72, 0
5, 13260, Note_on_c, 4, 81, 0
5, 13280, Note_on_c, 4, 81, 51
5, 13280, Note_on_c, 4, 77, 51
5, 13280, Note_on_c, 4, 72, 43
5, 13288, Note_on_c, 4, 77, 0
5, 13290, Note_on_c, 4, 72, 0
5, 13290, Note_on_c, 4, 81, 0
5, 13312, Note_on_c, 4, 81, 51
5, 13312, Note_on_c, 4, 77, 51
5, 13312, Note_on_c, 4, 72, 47
5, 13321, Note_on_c, 4, 77, 0
5, 13322, Note_on_c, 4, 72, 0
5, 13323, Note_on_c, 4, 81, 0
5, 13344, Note_on_c, 4, 72, 51
5, 13344, Note_on_c, 4, 81, 51
5, 13344, Note_on_c, 4, 77, 51
5, 13354, Note_on_c, 4, 77, 0
5, 13354, Note_on_c, 4, 72, 0
5, 13356, Note_on_c, 4, 81, 0
5, 13376, Note_on_c, 4, 81, 51
5, 13376, Note_on_c, 4, 77, 51
5, 13376, Note_on_c, 4, 72, 47
5, 13386, Note_on_c, 4, 72, 0
5, 13386, Note_on_c, 4, 77, 0
5, 13388, Note_on_c, 4, 81, 0
5, 13408, Note_on_c, 4, 72, 39
5, 13408, Note_on_c, 4, 81, 51
5, 13408, Note_on_c, 4, 77, 51
5, 13417, Note_on_c, 4, 77, 0
5, 13418, Note_on_c, 4, 72, 0
5, 13420, Note_on_c, 4, 81, 0
5, 13440, Note_on_c, 4, 72, 51
5, 13440, Note_on_c, 4, 77, 51
5, 13440, Note_on_c, 4, 81, 51
5, 13449, Note_on_c, 4, 77, 0
5, 13450, Note_on_c, 4, 72, 0
5, 13452, Note_on_c, 4, 81, 0
5, 13472, Note_on_c, 4, 72, 39
5, 13472, Note_on_c, 4, 77, 51
5, 13472, Note_on_c, 4, 81, 51
5, 13481, Note_on_c, 4, 77, 0
5, 13482, Note_on_c, 4, 72, 0
5, 13484, Note_on_c, 4, 81, 0
5, 13504, Note_on_c, 4, 77, 51
5, 13504, Note_on_c, 4, 81, 51
5, 13504, Note_on_c, 4, 72, 32
5, 13514, Note_on_c, 4, 72, 0
5, 13514, Note_on_c, 4, 77, 0
5, 13515, Note_on_c, 4, 81, 0
5, 13536, Note_on_c, 4, 72, 43
5, 13536, Note_on_c, 4, 77, 51
5, 13536, Note_on_c, 4, 81, 51
5, 13547, Note_on_c, 4, 77, 0
5, 13547, Note_on_c, 4, 72, 0
5, 13548, Note_on_c, 4, 81, 0
5, 13568, Note_on_c, 4, 81, 51
5, 13568, Note_on_c, 4, 77, 51
5, 13568, Note_on_c, 4, 72, 43
5, 13579, Note_on_c, 4, 77, 0
5, 13580, Note_on_c, 4, 72, 0
5, 13582, Note_on_c, 4, 81, 0
5, 13600, Note_on_c, 4, 81, 51
5, 13600, Note_on_c, 4, 72, 47
5, 13600, Note_on_c, 4, 77, 51
5, 13611, Note_on_c, 4, 77, 0
5, 13612, Note_on_c, 4, 72, 0
5, 13612, Note_on_c, 4, 81, 0
5, 13632, Note_on_c, 4, 72, 51
5, 13632, Note_on_c, 4, 77, 51
5, 13632, Note_on_c, 4, 81, 51
5, 13643, Note_on_c, 4, 77, 0
5, 13643, Note_on_c, 4, 72, 0
5, 13644, Note_on_c, 4, 81, 0
5, 13664, Note_on_c, 4, 81, 51
5, 13664, Note_on_c, 4, 77, 51
5, 13664, Note_on_c, 4, 72, 32
5, 13675, Note_on_c, 4, 72, 0
5, 13675, Note_on_c, 4, 77, 0
5, 13676, Note_on_c, 4, 81, 0
5, 13696, Note_on_c, 4, 77, 51
5, 13696, Note_on_c, 4, 72, 30
5, 13696, Note_on_c, 4, 81, 51
5, 13707, Note_on_c, 4, 72, 0
5, 13708, Note_on_c, 4, 81, 0
5, 13708, Note_on_c, 4, 77, 0
5, 13728, Note_on_c, 4, 72, 39
5, 13728, Note_on_c, 4, 81, 51
5, 13728, Note_on_c, 4, 77, 51
5, 13739, Note_on_c, 4, 72, 0
5, 13740, Note_on_c, 4, 77, 0
5, 13742, Note_on_c, 4, 81, 0
5, 13760, Note_on_c, 4, 77, 51
5, 13760, Note_on_c, 4, 72, 30
5, 13760, Note_on_c, 4, 81, 51
5, 13770, Note_on_c, 4, 72, 0
5, 13771, Note_on_c, 4, 77, 0
5, 13772, Note_on_c, 4, 81, 0
5, 13792, Note_on_c, 4, 72, 47
5, 13792, Note_on_c, 4, 77, 51
5, 13792, Note_on_c, 4, 81, 51
5, 13803, Note_on_c, 4, 77, 0
5, 13804, Note_on_c, 4, 72, 0
5, 13805, Note_on_c, 4, 81, 0
5, 13824, Note_on_c, 4, 76, 51
5, 13824, Note_on_c, 4, 81, 51
5, 13824, Note_on_c, 4, 73, 51
5, 13834, Note_on_c, 4, 73, 0
5, 13835, Note_on_c, 4, 76, 0
5, 13836, Note_on_c, 4, 81, 0
5, 13856, Note_on_c, 4, 76, 51
5, 13856, Note_on_c, 4, 81, 51
5, 13856, Note_on_c, 4, 73, 35
5, 13865, Note_on_c, 4, 73, 0
5, 13866, Note_on_c, 4, 81, 0
5, 13867, Note_on_c, 4, 76, 0
5, 13888, Note_on_c, 4, 76, 51
5, 13888, Note_on_c, 4, 81, 51
5, 13888, Note_on_c, 4, 73, 28
5, 13897, Note_on_c, 4, 73, 0
5, 13898, Note_on_c, 4, 76, 0
5, 13899, Note_on_c, 4, 81, 0
5, 13920, Note_on_c, 4, 73, 47
5, 13920, Note_on_c, 4, 76, 51
5, 13920, Note_on_c, 4, 81, 51
5, 13928, Note_on_c, 4, 73, 0
5, 13930, Note_on_c, 4, 76, 0
5, 13931, Note_on_c, 4, 81, 0
5, 13952, Note_on_c, 4, 76, 51
5, 13952, Note_on_c, 4, 73, 27
5, 13952, Note_on_c, 4, 81, 51
5, 13959, Note_on_c, 4, 73, 0
5, 13962, Note_on_c, 4, 81, 0
5, 13962, Note_on_c, 4, 76, 0
5, 13984, Note_on_c, 4, 81, 51
5, 13984, Note_on_c, 4, 73, 39
5, 13984, Note_on_c, 4, 76, 51
5, 13993, Note_on_c, 4, 73, 0
5, 13994, Note_on_c, 4, 76, 0
5, 13994, Note_on_c, 4, 81, 0
5, 14016, Note_on_c, 4, 81, 51
5, 14016, Note_on_c, 4, 76, 51
5, 14016, Note_on_c, 4, 73, 35
5, 14025, Note_on_c, 4, 73, 0
5, 14026, Note_on_c, 4, 76, 0
5, 14026, Note_on_c, 4, 81, 0
5, 14048, Note_on_c, 4, 76, 51
5, 14048, Note_on_c, 4, 73, 35
5, 14048, Note_on_c, 4, 81, 51
5, 14057, Note_on_c, 4, 73, 0
5, 14057, Note_on_c, 4, 76, 0
5, 14058, Note_on_c, 4, 81, 0
5, 14080, Note_on_c, 4, 76, 51
5, 14080, Note_on_c, 4, 73, 43
5, 14080, Note_on_c, 4, 81, 51
5, 14089, Note_on_c, 4, 81, 0
5, 14089, Note_on_c, 4, 73, 0
5, 14089, Note_on_c, 4, 76, 0
5, 14112, Note_on_c, 4, 81, 51
5, 14112, Note_on_c, 4, 76, 51
5, 14112, Note_on_c, 4, 73, 35
5, 14121, Note_on_c, 4, 73, 0
5, 14122, Note_on_c, 4, 76, 0
5, 14122, Note_on_c, 4, 81, 0
5, 14144, Note_on_c, 4, 76, 51
5, 14144, Note_on_c, 4, 81, 51
5, 14144, Note_on_c, 4, 73, 35
5, 14153, Note_on_c, 4, 73, 0
5, 14153, Note_on_c, 4, 76, 0
5, 14155, Note_on_c, 4, 81, 0
5, 14176, Note_on_c, 4, 73, 43
5, 14176, Note_on_c, 4, 81, 51
5, 14176, Note_on_c, 4, 76, 51
5, 14185, Note_on_c, 4, 73, 0
5, 14186, Note_on_c, 4, 76, 0
5, 14186, Note_on_c, 4, 81, 0
5, 14208, Note_on_c, 4, 81, 51
5, 14208, Note_on_c, 4, 73, 39
5, 14208, Note_on_c, 4, 76, 51
5, 14217, Note_on_c, 4, 76, 0
5, 14217, Note_on_c, 4, 73, 0
5, 14219, Note_on_c, 4, 81, 0
5, 14240, Note_on_c, 4, 81, 51
5, 14240, Note_on_c, 4, 73, 39
5, 14240, Note_on_c, 4, 76, 51
5, 14249, Note_on_c, 4, 73, 0
5, 14250, Note_on_c, 4, 76, 0
5, 14251, Note_on_c, 4, 81, 0
5, 14272, Note_on_c, 4, 73, 39
5, 14272, Note_on_c, 4, 81, 51
5, 14272, Note_on_c, 4, 76, 51
5, 14280, Note_on_c, 4, 73, 0
5, 14281, Note_on_c, 4, 76, 0
5, 14281, Note_on_c, 4, 81, 0
5, 14304, Note_on_c, 4, 81, 51
5, 14304, Note_on_c, 4, 76, 51
5, 14304, Note_on_c, 4, 73, 51
5, 14313, Note_on_c, 4, 73, 0
5, 14314, Note_on_c, 4, 76, 0
5, 14314, Note_on_c, 4, 81, 0
5, 14336, Note_on_c, 4, 73, 43
5, 14336, Note_on_c, 4, 81, 51
5, 14336, Note_on_c, 4, 76, 51
5, 14345, Note_on_c, 4, 76, 0
5, 14345, Note_on_c, 4, 73, 0
5, 14346, Note_on_c, 4, 81, 0
5, 14368, Note_on_c, 4, 81, 51
5, 14368, Note_on_c, 4, 76, 51
5, 14368, Note_on_c, 4, 73, 43
5, 14376, Note_on_c, 4, 73, 0
5, 14377, Note_on_c, 4, 76, 0
5, 14378, Note_on_c, 4, 81, 0
5, 14400, Note_on_c, 4, 81, 51
5, 14400, Note_on_c, 4, 73, 51
5, 14400, Note_on_c, 4, 76, 51
5, 14409, Note_on_c, 4, 73, 0
5, 14410, Note_on_c, 4, 76, 0
5, 14410, Note_on_c, 4, 81, 0
5, 14432, Note_on_c, 4, 81, 51
5, 14432, Note_on_c, 4, 76, 51
5, 14432, Note_on_c, 4, 73, 39
5, 14440, Note_on_c, 4, 73, 0
5, 14441, Note_on_c, 4, 76, 0
5, 14442, Note_on_c, 4, 81, 0
5, 14464, Note_on_c, 4, 81, 51
5, 14464, Note_on_c, 4, 76, 51
5, 14464, Note_on_c, 4, 73, 39
5, 14472, Note_on_c, 4, 73, 0
5, 14473, Note_on_c, 4, 76, 0
5, 14475, Note_on_c, 4, 81, 0
5, 14496, Note_on_c, 4, 76, 51
5, 14496, Note_on_c, 4, 81, 51
5, 14496, Note_on_c, 4, 73, 39
5, 14504, Note_on_c, 4, 81, 0
5, 14505, Note_on_c, 4, 73, 0
5, 14506, Note_on_c, 4, 76, 0
5, 14528, Note_on_c, 4, 81, 51
5, 14528, Note_on_c, 4, 73, 28
5, 14528, Note_on_c, 4, 76, 51
5, 14537, Note_on_c, 4, 76, 0
5, 14537, Note_on_c, 4, 73, 0
5, 14538, Note_on_c, 4, 81, 0
5, 14560, Note_on_c, 4, 76, 51
5, 14560, Note_on_c, 4, 81, 51
5, 14560, Note_on_c, 4, 73, 51
5, 14568, Note_on_c, 4, 76, 0
5, 14570, Note_on_c, 4, 73, 0
5, 14570, Note_on_c, 4, 81, 0
5, 14592, Note_on_c, 4, 78, 51
5, 14592, Note_on_c, 4, 72, 16
5, 14592, Note_on_c, 4, 81, 51
5, 14600, Note_on_c, 4, 72, 0
5, 14603, Note_on_c, 4, 78, 0
5, 14606, Note_on_c, 4, 81, 0
5, 14624, Note_on_c, 4, 78, 43
5, 14624, Note_on_c, 4, 72, 47
5, 14624, Note_on_c, 4, 81, 51
5, 14632, Note_on_c, 4, 78, 0
5, 14634, Note_on_c, 4, 72, 0
5, 14635, Note_on_c, 4, 81, 0
5, 14656, Note_on_c, 4, 78, 51
5, 14656, Note_on_c, 4, 72, 43
5, 14656, Note_on_c, 4, 81, 51
5, 14666, Note_on_c, 4, 72, 0
5, 14666, Note_on_c, 4, 78, 0
5, 14668, Note_on_c, 4, 81, 0
5, 14688, Note_on_c, 4, 78, 51
5, 14688, Note_on_c, 4, 72, 51
5, 14688, Note_on_c, 4, 81, 51
5, 14697, Note_on_c, 4, 78, 0
5, 14698, Note_on_c, 4, 72, 0
5, 14700, Note_on_c, 4, 81, 0
5, 14720, Note_on_c, 4, 72, 35
5, 14720, Note_on_c, 4, 78, 43
5, 14720, Note_on_c, 4, 81, 51
5, 14729, Note_on_c, 4, 78, 0
5, 14730, Note_on_c, 4, 72, 0
5, 14732, Note_on_c, 4, 81, 0
5, 14752, Note_on_c, 4, 72, 35
5, 14752, Note_on_c, 4, 78, 35
5, 14752, Note_on_c, 4, 81, 51
5, 14760, Note_on_c, 4, 78, 0
5, 14761, Note_on_c, 4, 72, 0
5, 14763, Note_on_c, 4, 81, 0
5, 14784, Note_on_c, 4, 72, 51
5, 14784, Note_on_c, 4, 78, 51
5, 14784, Note_on_c, 4, 81, 51
5, 14794, Note_on_c, 4, 78, 0
5, 14794, Note_on_c, 4, 72, 0
5, 14796, Note_on_c, 4, 81, 0
5, 14816, Note_on_c, 4, 81, 51
5, 14816, Note_on_c, 4, 72, 32
5, 14816, Note_on_c, 4, 78, 39
5, 14825, Note_on_c, 4, 78, 0
5, 14825, Note_on_c, 4, 72, 0
5, 14828, Note_on_c, 4, 81, 0
5, 14848, Note_on_c, 4, 78, 47
5, 14848, Note_on_c, 4, 81, 43
5, 14848, Note_on_c, 4, 72, 43
5, 14858, Note_on_c, 4, 72, 0
5, 14858, Note_on_c, 4, 78, 0
5, 14859, Note_on_c, 4, 81, 0
5, 14880, Note_on_c, 4, 72, 51
5, 14880, Note_on_c, 4, 78, 51
5, 14880, Note_on_c, 4, 81, 51
5, 14890, Note_on_c, 4, 72, 0
5, 14891, Note_on_c, 4, 78, 0
5, 14892, Note_on_c, 4, 81, 0
5, 14912, Note_on_c, 4, 78, 47
5, 14912, Note_on_c, 4, 72, 43
5, 14912, Note_on_c, 4, 81, 51
5, 14921, Note_on_c, 4, 78, 0
5, 14922, Note_on_c, 4, 72, 0
5, 14923, Note_on_c, 4, 81, 0
5, 14944, Note_on_c, 4, 78, 51
5, 14944, Note_on_c, 4, 81, 51
5, 14944, Note_on_c, 4, 72, 43
5, 14953, Note_on_c, 4, 72, 0
5, 14954, Note_on_c, 4, 78, 0
5, 14955, Note_on_c, 4, 81, 0
5, 14976, Note_on_c, 4, 78, 51
5, 14976, Note_on_c, 4, 72, 51
5, 14976, Note_on_c, 4, 81, 51
5, 14986, Note_on_c, 4, 72, 0
5, 14987, Note_on_c, 4, 78, 0
5, 14989, Note_on_c, 4, 81, 0
5, 15008, Note_on_c, 4, 72, 35
5, 15008, Note_on_c, 4, 78, 39
5, 15008, Note_on_c, 4, 81, 43
5, 15017, Note_on_c, 4, 72, 0
5, 15018, Note_on_c, 4, 78, 0
5, 15019, Note_on_c, 4, 81, 0
5, 15040, Note_on_c, 4, 72, 47
5, 15040, Note_on_c, 4, 78, 51
5, 15040, Note_on_c, 4, 81, 51
5, 15049, Note_on_c, 4, 72, 0
5, 15050, Note_on_c, 4, 81, 0
5, 15050, Note_on_c, 4, 78, 0
5, 15072, Note_on_c, 4, 78, 51
5, 15072, Note_on_c, 4, 72, 47
5, 15072, Note_on_c, 4, 81, 51
5, 15081, Note_on_c, 4, 72, 0
5, 15082, Note_on_c, 4, 78, 0
5, 15084, Note_on_c, 4, 81, 0
5, 15104, Note_on_c, 4, 78, 39
5, 15104, Note_on_c, 4, 72, 35
5, 15104, Note_on_c, 4, 81, 47
5, 15113, Note_on_c, 4, 78, 0
5, 15114, Note_on_c, 4, 72, 0
5, 15116, Note_on_c, 4, 81, 0
5, 15136, Note_on_c, 4, 81, 51
5, 15136, Note_on_c, 4, 78, 51
5, 15136, Note_on_c, 4, 72, 51
5, 15144, Note_on_c, 4, 78, 0
5, 15146, Note_on_c, 4, 72, 0
5, 15147, Note_on_c, 4, 81, 0
5, 15168, Note_on_c, 4, 78, 39
5, 15168, Note_on_c, 4, 72, 39
5, 15168, Note_on_c, 4, 81, 51
5, 15178, Note_on_c, 4, 72, 0
5, 15178, Note_on_c, 4, 78, 0
5, 15180, Note_on_c, 4, 81, 0
5, 15200, Note_on_c, 4, 72, 30
5, 15200, Note_on_c, 4, 78, 43
5, 15200, Note_on_c, 4, 81, 51
5, 15209, Note_on_c, 4, 72, 0
5, 15211, Note_on_c, 4, 78, 0
5, 15212, Note_on_c, 4, 81, 0
5, 15232, Note_on_c, 4, 78, 43
5, 15232, Note_on_c, 4, 81, 51
5, 15232, Note_on_c, 4, 72, 35
5, 15240, Note_on_c, 4, 78, 0
5, 15241, Note_on_c, 4, 72, 0
5, 15245, Note_on_c, 4, 81, 0
5, 15264, Note_on_c, 4, 72, 35
5, 15264, Note_on_c, 4, 78, 51
5, 15264, Note_on_c, 4, 81, 51
5, 15272, Note_on_c, 4, 72, 0
5, 15275, Note_on_c, 4, 81, 0
5, 15275, Note_on_c, 4, 78, 0
5, 15296, Note_on_c, 4, 78, 51
5, 15296, Note_on_c, 4, 81, 51
5, 15296, Note_on_c, 4, 72, 47
5, 15305, Note_on_c, 4, 72, 0
5, 15305, Note_on_c, 4, 78, 0
5, 15309, Note_on_c, 4, 81, 0
5, 15328, Note_on_c, 4, 78, 47
5, 15328, Note_on_c, 4, 72, 47
5, 15328, Note_on_c, 4, 81, 51
5, 15334, Note_on_c, 4, 72, 0
5, 15335, Note_on_c, 4, 78, 0
5, 15338, Note_on_c, 4, 81, 0
5, 15360, Note_on_c, 4, 77, 39
5, 15360, Note_on_c, 4, 71, 23
5, 15360, Note_on_c, 4, 74, 51
5, 15360, Note_on_c, 4, 79, 51
5, 15371, Note_on_c, 4, 77, 0
5, 15372, Note_on_c, 4, 71, 0
5, 15372, Note_on_c, 4, 74, 0
5, 15374, Note_on_c, 4, 79, 0
5, 15392, Note_on_c, 4, 71, 16
5, 15392, Note_on_c, 4, 77, 21
5, 15392, Note_on_c, 4, 79, 16
5, 15392, Note_on_c, 4, 74, 20
5, 15400, Note_on_c, 4, 74, 0
5, 15400, Note_on_c, 4, 71, 0
5, 15400, Note_on_c, 4, 77, 0
5, 15402, Note_on_c, 4, 79, 0
5, 15424, Note_on_c, 4, 74, 35
5, 15424, Note_on_c, 4, 77, 30
5, 15424, Note_on_c, 4, 71, 20
5, 15424, Note_on_c, 4, 79, 25
5, 15435, Note_on_c, 4, 77, 0
5, 15435, Note_on_c, 4, 74, 0
5, 15436, Note_on_c, 4, 71, 0
5, 15436, Note_on_c, 4, 79, 0
5, 15456, Note_on_c, 4, 79, 51
5, 15456, Note_on_c, 4, 71, 35
5, 15456, Note_on_c, 4, 77, 51
5, 15456, Note_on_c, 4, 74, 51
5, 15469, Note_on_c, 4, 74, 0
5, 15469, Note_on_c, 4, 77, 0
5, 15469, Note_on_c, 4, 71, 0
5, 15472, Note_on_c, 4, 79, 0
5, 15488, Note_on_c, 4, 79, 20
5, 15488, Note_on_c, 4, 74, 32
5, 15488, Note_on_c, 4, 77, 35
5, 15488, Note_on_c, 4, 71, 18
5, 15498, Note_on_c, 4, 71, 0
5, 15500, Note_on_c, 4, 74, 0
5, 15501, Note_on_c, 4, 77, 0
5, 15502, Note_on_c, 4, 79, 0
5, 15520, Note_on_c, 4, 74, 35
5, 15520, Note_on_c, 4, 71, 22
5, 15520, Note_on_c, 4, 79, 30
5, 15520, Note_on_c, 4, 77, 39
5, 15532, Note_on_c, 4, 71, 0
5, 15534, Note_on_c, 4, 74, 0
5, 15535, Note_on_c, 4, 79, 0
5, 15535, Note_on_c, 4, 77, 0
5, 15552, Note_on_c, 4, 79, 43
5, 15552, Note_on_c, 4, 74, 51
5, 15552, Note_on_c, 4, 71, 25
5, 15552, Note_on_c, 4, 77, 51
5, 15565, Note_on_c, 4, 71, 0
5, 15566, Note_on_c, 4, 74, 0
5, 15567, Note_on_c, 4, 77, 0
5, 15569, Note_on_c, 4, 79, 0
5, 15584, Note_on_c, 4, 74, 39
5, 15584, Note_on_c, 4, 79, 35
5, 15584, Note_on_c, 4, 77, 47
5, 15584, Note_on_c, 4, 71, 23
5, 15596, Note_on_c, 4, 71, 0
5, 15596, Note_on_c, 4, 74, 0
5, 15598, Note_on_c, 4, 77, 0
5, 15600, Note_on_c, 4, 79, 0
5, 15616, Note_on_c, 4, 79, 28
5, 15616, Note_on_c, 4, 71, 20
5, 15616, Note_on_c, 4, 74, 43
5, 15616, Note_on_c, 4, 77, 47
5, 15627, Note_on_c, 4, 71, 0
5, 15628, Note_on_c, 4, 74, 0
5, 15630, Note_on_c, 4, 77, 0
5, 15631, Note_on_c, 4, 79, 0
5, 15648, Note_on_c, 4, 71, 28
5, 15648, Note_on_c, 4, 74, 51
5, 15648, Note_on_c, 4, 77, 51
5, 15648, Note_on_c, 4, 79, 47
5, 15661, Note_on_c, 4, 71, 0
5, 15663, Note_on_c, 4, 74, 0
5, 15664, Note_on_c, 4, 77, 0
5, 15666, Note_on_c, 4, 79, 0
5, 15680, Note_on_c, 4, 71, 27
5, 15680, Note_on_c, 4, 79, 27
5, 15680, Note_on_c, 4, 74, 43
5, 15680, Note_on_c, 4, 77, 47
5, 15691, Note_on_c, 4, 74, 0
5, 15692, Note_on_c, 4, 71, 0
5, 15692, Note_on_c, 4, 79, 0
5, 15692, Note_on_c, 4, 77, 0
5, 15712, Note_on_c, 4, 74, 39
5, 15712, Note_on_c, 4, 79, 39
5, 15712, Note_on_c, 4, 71, 28
5, 15712, Note_on_c, 4, 77, 51
5, 15722, Note_on_c, 4, 74, 0
5, 15723, Note_on_c, 4, 71, 0
5, 15724, Note_on_c, 4, 77, 0
5, 15725, Note_on_c, 4, 79, 0
5, 15744, Note_on_c, 4, 74, 51
5, 15744, Note_on_c, 4, 77, 51
5, 15744, Note_on_c, 4, 71, 35
5, 15744, Note_on_c, 4, 79, 51
5, 15755, Note_on_c, 4, 74, 0
5, 15756, Note_on_c, 4, 77, 0
5, 15756, Note_on_c, 4, 71, 0
5, 15759, Note_on_c, 4, 79, 0
5, 15776, Note_on_c, 4, 77, 39
5, 15776, Note_on_c, 4, 74, 43
5, 15776, Note_on_c, 4, 79, 25
5, 15776, Note_on_c, 4, 71, 27
5, 15787, Note_on_c, 4, 71, 0
5, 15788, Note_on_c, 4, 74, 0
5, 15789, Note_on_c, 4, 77, 0
5, 15790, Note_on_c, 4, 79, 0
5, 15808, Note_on_c, 4, 79, 30
5, 15808, Note_on_c, 4, 71, 25
5, 15808, Note_on_c, 4, 74, 47
5, 15808, Note_on_c, 4, 77, 51
5, 15818, Note_on_c, 4, 74, 0
5, 15818, Note_on_c, 4, 71, 0
5, 15820, Note_on_c, 4, 77, 0
5, 15821, Note_on_c, 4, 79, 0
5, 15840, Note_on_c, 4, 74, 51
5, 15840, Note_on_c, 4, 79, 39
5, 15840, Note_on_c, 4, 77, 51
5, 15840, Note_on_c, 4, 71, 27
5, 15850, Note_on_c, 4, 71, 0
5, 15852, Note_on_c, 4, 74, 0
5, 15854, Note_on_c, 4, 77, 0
5, 15855, Note_on_c, 4, 79, 0
5, 15872, Note_on_c, 4, 71, 25
5, 15872, Note_on_c, 4, 77, 35
5, 15872, Note_on_c, 4, 74, 39
5, 15872, Note_on_c, 4, 79, 25
5, 15881, Note_on_c, 4, 71, 0
5, 15882, Note_on_c, 4, 74, 0
5, 15884, Note_on_c, 4, 77, 0
5, 15885, Note_on_c, 4, 79, 0
5, 15904, Note_on_c, 4, 71, 22
5, 15904, Note_on_c, 4, 74, 43
5, 15904, Note_on_c, 4, 77, 51
5, 15904, Note_on_c, 4, 79, 30
5, 15914, Note_on_c, 4, 74, 0
5, 15914, Note_on_c, 4, 71, 0
5, 15917, Note_on_c, 4, 77, 0
5, 15918, Note_on_c, 4, 79, 0
5, 15936, Note_on_c, 4, 79, 47
5, 15936, Note_on_c, 4, 71, 35
5, 15936, Note_on_c, 4, 77, 51
5, 15936, Note_on_c, 4, 74, 51
5, 15945, Note_on_c, 4, 71, 0
5, 15947, Note_on_c, 4, 74, 0
5, 15950, Note_on_c, 4, 77, 0
5, 15950, Note_on_c, 4, 79, 0
5, 15968, Note_on_c, 4, 79, 35
5, 15968, Note_on_c, 4, 74, 51
5, 15968, Note_on_c, 4, 77, 51
5, 15968, Note_on_c, 4, 71, 25
5, 15977, Note_on_c, 4, 71, 0
5, 15978, Note_on_c, 4, 74, 0
5, 15980, Note_on_c, 4, 77, 0
5, 15980, Note_on_c, 4, 79, 0
5, 16000, Note_on_c, 4, 77, 51
5, 16000, Note_on_c, 4, 71, 27
5, 16000, Note_on_c, 4, 74, 51
5, 16000, Note_on_c, 4, 79, 43
5, 16009, Note_on_c, 4, 71, 0
5, 16010, Note_on_c, 4, 74, 0
5, 16012, Note_on_c, 4, 77, 0
5, 16012, Note_on_c, 4, 79, 0
5, 16032, Note_on_c, 4, 71, 27
5, 16032, Note_on_c, 4, 79, 39
5, 16032, Note_on_c, 4, 77, 51
5, 16032, Note_on_c, 4, 74, 51
5, 16042, Note_on_c, 4, 71, 0
5, 16044, Note_on_c, 4, 74, 0
5, 16044, Note_on_c, 4, 77, 0
5, 16046, Note_on_c, 4, 79, 0
5, 16064, Note_on_c, 4, 74, 47
5, 16064, Note_on_c, 4, 77, 43
5, 16064, Note_on_c, 4, 79, 30
5, 16064, Note_on_c, 4, 71, 25
5, 16075, Note_on_c, 4, 71, 0
5, 16076, Note_on_c, 4, 74, 0
5, 16077, Note_on_c, 4, 77, 0
5, 16078, Note_on_c, 4, 79, 0
5, 16096, Note_on_c, 4, 74, 51
5, 16096, Note_on_c, 4, 71, 35
5, 16096, Note_on_c, 4, 79, 43
5, 16096, Note_on_c, 4, 77, 51
5, 16105, Note_on_c, 4, 71, 0
5, 16106, Note_on_c, 4, 74, 0
5, 16106, Note_on_c, 4, 77, 0
5, 16107, Note_on_c, 4, 79, 0
5, 16128, Note_on_c, 4, 70, 30
5, 16128, Note_on_c, 4, 76, 51
5, 16128, Note_on_c, 4, 79, 51
5, 16139, Note_on_c, 4, 76, 0
5, 16140, Note_on_c, 4, 70, 0
5, 16143, Note_on_c, 4, 79, 0
5, 16160, Note_on_c, 4, 79, 51
5, 16160, Note_on_c, 4, 76, 43
5, 16160, Note_on_c, 4, 70, 30
5, 16171, Note_on_c, 4, 76, 0
5, 16172, Note_on_c, 4, 70, 0
5, 16174, Note_on_c, 4, 79, 0
5, 16192, Note_on_c, 4, 70, 23
5, 16192, Note_on_c, 4, 79, 43
5, 16192, Note_on_c, 4, 76, 39
5, 16202, Note_on_c, 4, 76, 0
5, 16202, Note_on_c, 4, 79, 0
5, 16203, Note_on_c, 4, 70, 0
5, 16224, Note_on_c, 4, 76, 51
5, 16224, Note_on_c, 4, 79, 51
5, 16224, Note_on_c, 4, 70, 39
5, 16234, Note_on_c, 4, 70, 0
5, 16235, Note_on_c, 4, 76, 0
5, 16238, Note_on_c, 4, 79, 0
5, 16256, Note_on_c, 4, 70, 27
5, 16256, Note_on_c, 4, 76, 39
5, 16256, Note_on_c, 4, 79, 43
5, 16266, Note_on_c, 4, 76, 0
5, 16266, Note_on_c, 4, 70, 0
5, 16267, Note_on_c, 4, 79, 0
5, 16288, Note_on_c, 4, 70, 30
5, 16288, Note_on_c, 4, 79, 51
5, 16288, Note_on_c, 4, 76, 39
5, 16298, Note_on_c, 4, 76, 0
5, 16298, Note_on_c, 4, 70, 0
5, 16300, Note_on_c, 4, 79, 0
5, 16320, Note_on_c, 4, 76, 47
5, 16320, Note_on_c, 4, 70, 30
5, 16320, Note_on_c, 4, 79, 51
5, 16330, Note_on_c, 4, 76, 0
5, 16331, Note_on_c, 4, 70, 0
5, 16333, Note_on_c, 4, 79, 0
5, 16352, Note_on_c, 4, 70, 28
5, 16352, Note_on_c, 4, 79, 51
5, 16352, Note_on_c, 4, 76, 39
5, 16362, Note_on_c, 4, 76, 0
5, 16362, Note_on_c, 4, 70, 0
5, 16366, Note_on_c, 4, 79, 0
5, 16384, Note_on_c, 4, 76, 39
5, 16384, Note_on_c, 4, 79, 51
5, 16384, Note_on_c, 4, 70, 30
5, 16393, Note_on_c, 4, 76, 0
5, 16395, Note_on_c, 4, 70, 0
5, 16396, Note_on_c, 4, 79, 0
5, 16416, Note_on_c, 4, 76, 51
5, 16416, Note_on_c, 4, 70, 30
5, 16416, Note_on_c, 4, 79, 51
5, 16426, Note_on_c, 4, 70, 0
5, 16426, Note_on_c, 4, 76, 0
5, 16429, Note_on_c, 4, 79, 0
5, 16448, Note_on_c, 4, 76, 43
5, 16448, Note_on_c, 4, 70, 32
5, 16448, Note_on_c, 4, 79, 51
5, 16457, Note_on_c, 4, 76, 0
5, 16458, Note_on_c, 4, 70, 0
5, 16461, Note_on_c, 4, 79, 0
5, 16480, Note_on_c, 4, 76, 43
5, 16480, Note_on_c, 4, 70, 30
5, 16480, Note_on_c, 4, 79, 51
5, 16489, Note_on_c, 4, 70, 0
5, 16490, Note_on_c, 4, 76, 0
5, 16492, Note_on_c, 4, 79, 0
5, 16512, Note_on_c, 4, 76, 47
5, 16512, Note_on_c, 4, 79, 51
5, 16512, Note_on_c, 4, 70, 35
5, 16522, Note_on_c, 4, 76, 0
5, 16523, Note_on_c, 4, 70, 0
5, 16525, Note_on_c, 4, 79, 0
5, 16544, Note_on_c, 4, 70, 25
5, 16544, Note_on_c, 4, 79, 51
5, 16544, Note_on_c, 4, 76, 35
5, 16553, Note_on_c, 4, 76, 0
5, 16554, Note_on_c, 4, 70, 0
5, 16557, Note_on_c, 4, 79, 0
5, 16576, Note_on_c, 4, 70, 25
5, 16576, Note_on_c, 4, 76, 43
5, 16576, Note_on_c, 4, 79, 47
5, 16586, Note_on_c, 4, 76, 0
5, 16586, Note_on_c, 4, 70, 0
5, 16588, Note_on_c, 4, 79, 0
5, 16608, Note_on_c, 4, 79, 51
5, 16608, Note_on_c, 4, 70, 32
5, 16608, Note_on_c, 4, 76, 43
5, 16618, Note_on_c, 4, 76, 0
5, 16619, Note_on_c, 4, 70, 0
5, 16622, Note_on_c, 4, 79, 0
5, 16640, Note_on_c, 4, 76, 39
5, 16640, Note_on_c, 4, 70, 28
5, 16640, Note_on_c, 4, 79, 51
5, 16649, Note_on_c, 4, 76, 0
5, 16651, Note_on_c, 4, 70, 0
5, 16653, Note_on_c, 4, 79, 0
5, 16672, Note_on_c, 4, 76, 43
5, 16672, Note_on_c, 4, 70, 28
5, 16672, Note_on_c, 4, 79, 51
5, 16682, Note_on_c, 4, 70, 0
5, 16682, Note_on_c, 4, 76, 0
5, 16685, Note_on_c, 4, 79, 0
5, 16704, Note_on_c, 4, 70, 39
5, 16704, Note_on_c, 4, 76, 51
5, 16704, Note_on_c, 4, 79, 51
5, 16715, Note_on_c, 4, 76, 0
5, 16715, Note_on_c, 4, 70, 0
5, 16718, Note_on_c, 4, 79, 0
5, 16736, Note_on_c, 4, 76, 43
5, 16736, Note_on_c, 4, 70, 28
5, 16736, Note_on_c, 4, 79, 51
5, 16746, Note_on_c, 4, 70, 0
5, 16746, Note_on_c, 4, 76, 0
5, 16748, Note_on_c, 4, 79, 0
5, 16768, Note_on_c, 4, 70, 30
5, 16768, Note_on_c, 4, 76, 51
5, 16768, Note_on_c, 4, 79, 51
5, 16778, Note_on_c, 4, 76, 0
5, 16778, Note_on_c, 4, 70, 0
5, 16781, Note_on_c, 4, 79, 0
5, 16800, Note_on_c, 4, 70, 39
5, 16800, Note_on_c, 4, 76, 51
5, 16800, Note_on_c, 4, 79, 51
5, 16810, Note_on_c, 4, 76, 0
5, 16810, Note_on_c, 4, 70, 0
5, 16812, Note_on_c, 4, 79, 0
5, 16832, Note_on_c, 4, 79, 51
5, 16832, Note_on_c, 4, 76, 51
5, 16832, Note_on_c, 4, 70, 35
5, 16841, Note_on_c, 4, 76, 0
5, 16842, Note_on_c, 4, 70, 0
5, 16843, Note_on_c, 4, 79, 0
5, 16864, Note_on_c, 4, 76, 51
5, 16864, Note_on_c, 4, 70, 35
5, 16864, Note_on_c, 4, 79, 51
5, 16874, Note_on_c, 4, 70, 0
5, 16874, Note_on_c, 4, 76, 0
5, 16877, Note_on_c, 4, 79, 0
5, 16896, Note_on_c, 4, 77, 47
5, 16896, Note_on_c, 4, 81, 51
5, 16896, Note_on_c, 4, 72, 39
5, 16907, Note_on_c, 4, 77, 0
5, 16909, Note_on_c, 4, 72, 0
5, 16910, Note_on_c, 4, 81, 0
5, 16928, Note_on_c, 4, 81, 51
5, 16928, Note_on_c, 4, 72, 32
5, 16928, Note_on_c, 4, 77, 47
5, 16938, Note_on_c, 4, 77, 0
5, 16939, Note_on_c, 4, 72, 0
5, 16940, Note_on_c, 4, 81, 0
5, 16960, Note_on_c, 4, 77, 43
5, 16960, Note_on_c, 4, 72, 43
5, 16960, Note_on_c, 4, 81, 51
5, 16968, Note_on_c, 4, 77, 0
5, 16970, Note_on_c, 4, 72, 0
5, 16971, Note_on_c, 4, 81, 0
5, 16992, Note_on_c, 4, 72, 51
5, 16992, Note_on_c, 4, 77, 51
5, 16992, Note_on_c, 4, 81, 51
5, 17002, Note_on_c, 4, 77, 0
5, 17003, Note_on_c, 4, 72, 0
5, 17005, Note_on_c, 4, 81, 0
5, 17024, Note_on_c, 4, 81, 51
5, 17024, Note_on_c, 4, 77, 51
5, 17024, Note_on_c, 4, 72, 35
5, 17034, Note_on_c, 4, 77, 0
5, 17035, Note_on_c, 4, 72, 0
5, 17036, Note_on_c, 4, 81, 0
5, 17056, Note_on_c, 4, 72, 39
5, 17056, Note_on_c, 4, 77, 51
5, 17056, Note_on_c, 4, 81, 51
5, 17065, Note_on_c, 4, 77, 0
5, 17066, Note_on_c, 4, 72, 0
5, 17067, Note_on_c, 4, 81, 0
5, 17088, Note_on_c, 4, 77, 51
5, 17088, Note_on_c, 4, 81, 51
5, 17088, Note_on_c, 4, 72, 39
5, 17098, Note_on_c, 4, 72, 0
5, 17098, Note_on_c, 4, 77, 0
5, 17100, Note_on_c, 4, 81, 0
5, 17120, Note_on_c, 4, 81, 51
5, 17120, Note_on_c, 4, 72, 30
5, 17120, Note_on_c, 4, 77, 51
5, 17130, Note_on_c, 4, 77, 0
5, 17131, Note_on_c, 4, 72, 0
5, 17132, Note_on_c, 4, 81, 0
5, 17152, Note_on_c, 4, 77, 51
5, 17152, Note_on_c, 4, 81, 51
5, 17152, Note_on_c, 4, 72, 39
5, 17161, Note_on_c, 4, 77, 0
5, 17163, Note_on_c, 4, 72, 0
5, 17163, Note_on_c, 4, 81, 0
5, 17184, Note_on_c, 4, 77, 51
5, 17184, Note_on_c, 4, 72, 43
5, 17184, Note_on_c, 4, 81, 51
5, 17194, Note_on_c, 4, 77, 0
5, 17195, Note_on_c, 4, 72, 0
5, 17196, Note_on_c, 4, 81, 0
5, 17216, Note_on_c, 4, 81, 51
5, 17216, Note_on_c, 4, 77, 51
5, 17216, Note_on_c, 4, 72, 39
5, 17225, Note_on_c, 4, 77, 0
5, 17227, Note_on_c, 4, 72, 0
5, 17228, Note_on_c, 4, 81, 0
5, 17248, Note_on_c, 4, 77, 51
5, 17248, Note_on_c, 4, 81, 51
5, 17248, Note_on_c, 4, 72, 47
5, 17256, Note_on_c, 4, 72, 0
5, 17256, Note_on_c, 4, 77, 0
5, 17257, Note_on_c, 4, 81, 0
5, 17280, Note_on_c, 4, 81, 39
5, 17280, Note_on_c, 4, 72, 25
5, 17280, Note_on_c, 4, 77, 28
5, 17291, Note_on_c, 4, 77, 0
5, 17293, Note_on_c, 4, 72, 0
5, 17293, Note_on_c, 4, 81, 0
5, 17312, Note_on_c, 4, 72, 28
5, 17312, Note_on_c, 4, 77, 39
5, 17312, Note_on_c, 4, 81, 51
5, 17322, Note_on_c, 4, 77, 0
5, 17324, Note_on_c, 4, 72, 0
5, 17326, Note_on_c, 4, 81, 0
5, 17344, Note_on_c, 4, 81, 51
5, 17344, Note_on_c, 4, 77, 51
5, 17344, Note_on_c, 4, 72, 30
5, 17354, Note_on_c, 4, 77, 0
5, 17356, Note_on_c, 4, 72, 0
5, 17358, Note_on_c, 4, 81, 0
5, 17376, Note_on_c, 4, 72, 39
5, 17376, Note_on_c, 4, 77, 51
5, 17376, Note_on_c, 4, 81, 51
5, 17386, Note_on_c, 4, 77, 0
5, 17388, Note_on_c, 4, 72, 0
5, 17389, Note_on_c, 4, 81, 0
5, 17408, Note_on_c, 4, 81, 51
5, 17408, Note_on_c, 4, 77, 51
5, 17408, Note_on_c, 4, 72, 35
5, 17418, Note_on_c, 4, 77, 0
5, 17419, Note_on_c, 4, 72, 0
5, 17420, Note_on_c, 4, 81, 0
5, 17440, Note_on_c, 4, 81, 51
5, 17440, Note_on_c, 4, 77, 43
5, 17440, Note_on_c, 4, 72, 30
5, 17450, Note_on_c, 4, 77, 0
5, 17451, Note_on_c, 4, 72, 0
5, 17452, Note_on_c, 4, 81, 0
5, 17472, Note_on_c, 4, 77, 51
5, 17472, Note_on_c, 4, 72, 39
5, 17472, Note_on_c, 4, 81, 51
5, 17482, Note_on_c, 4, 77, 0
5, 17483, Note_on_c, 4, 72, 0
5, 17485, Note_on_c, 4, 81, 0
5, 17504, Note_on_c, 4, 77, 51
5, 17504, Note_on_c, 4, 81, 51
5, 17504, Note_on_c, 4, 72, 30
5, 17514, Note_on_c, 4, 77, 0
5, 17516, Note_on_c, 4, 72, 0
5, 17516, Note_on_c, 4, 81, 0
5, 17536, Note_on_c, 4, 81, 51
5, 17536, Note_on_c, 4, 72, 43
5, 17536, Note_on_c, 4, 77, 51
5, 17545, Note_on_c, 4, 77, 0
5, 17547, Note_on_c, 4, 72, 0
5, 17549, Note_on_c, 4, 81, 0
5, 17568, Note_on_c, 4, 77, 51
5, 17568, Note_on_c, 4, 72, 35
5, 17568, Note_on_c, 4, 81, 51
5, 17578, Note_on_c, 4, 77, 0
5, 17579, Note_on_c, 4, 72, 0
5, 17581, Note_on_c, 4, 81, 0
5, 17600, Note_on_c, 4, 77, 51
5, 17600, Note_on_c, 4, 81, 51
5, 17600, Note_on_c, 4, 72, 39
5, 17610, Note_on_c, 4, 77, 0
5, 17611, Note_on_c, 4, 72, 0
5, 17613, Note_on_c, 4, 81, 0
5, 17632, Note_on_c, 4, 81, 51
5, 17632, Note_on_c, 4, 72, 39
5, 17632, Note_on_c, 4, 77, 51
5, 17639, Note_on_c, 4, 77, 0
5, 17639, Note_on_c, 4, 72, 0
5, 17645, Note_on_c, 4, 81, 0
5, 17664, Note_on_c, 4, 76, 51
5, 17664, Note_on_c, 4, 67, 47
5, 17664, Note_on_c, 4, 79, 47
5, 17664, Note_on_c, 4, 72, 27
5, 17675, Note_on_c, 4, 79, 0
5, 17676, Note_on_c, 4, 76, 0
5, 17676, Note_on_c, 4, 67, 0
5, 17677, Note_on_c, 4, 72, 0
5, 17696, Note_on_c, 4, 76, 30
5, 17696, Note_on_c, 4, 79, 47
5, 17696, Note_on_c, 4, 67, 47
5, 17696, Note_on_c, 4, 72, 25
5, 17706, Note_on_c, 4, 67, 0
5, 17706, Note_on_c, 4, 76, 0
5, 17708, Note_on_c, 4, 72, 0
5, 17710, Note_on_c, 4, 79, 0
5, 17728, Note_on_c, 4, 76, 25
5, 17728, Note_on_c, 4, 79, 30
5, 17728, Note_on_c, 4, 67, 35
5, 17728, Note_on_c, 4, 72, 16
5, 17737, Note_on_c, 4, 76, 0
5, 17738, Note_on_c, 4, 79, 0
5, 17738, Note_on_c, 4, 67, 0
5, 17738, Note_on_c, 4, 72, 0
5, 17760, Note_on_c, 4, 76, 32
5, 17760, Note_on_c, 4, 72, 27
5, 17760, Note_on_c, 4, 79, 43
5, 17760, Note_on_c, 4, 67, 47
5, 17770, Note_on_c, 4, 76, 0
5, 17771, Note_on_c, 4, 67, 0
5, 17772, Note_on_c, 4, 79, 0
5, 17772, Note_on_c, 4, 72, 0
5, 17792, Note_on_c, 4, 79, 51
5, 17792, Note_on_c, 4, 67, 39
5, 17792, Note_on_c, 4, 76, 39
5, 17792, Note_on_c, 4, 72, 27
5, 17802, Note_on_c, 4, 76, 0
5, 17802, Note_on_c, 4, 67, 0
5, 17803, Note_on_c, 4, 72, 0
5, 17804, Note_on_c, 4, 79, 0
5, 17824, Note_on_c, 4, 76, 43
5, 17824, Note_on_c, 4, 72, 28
5, 17824, Note_on_c, 4, 79, 51
5, 17824, Note_on_c, 4, 67, 43
5, 17834, Note_on_c, 4, 76, 0
5, 17835, Note_on_c, 4, 72, 0
5, 17835, Note_on_c, 4, 67, 0
5, 17836, Note_on_c, 4, 79, 0
5, 17856, Note_on_c, 4, 72, 32
5, 17856, Note_on_c, 4, 76, 43
5, 17856, Note_on_c, 4, 67, 43
5, 17856, Note_on_c, 4, 79, 51
5, 17865, Note_on_c, 4, 76, 0
5, 17866, Note_on_c, 4, 72, 0
5, 17867, Note_on_c, 4, 67, 0
5, 17868, Note_on_c, 4, 79, 0
5, 17888, Note_on_c, 4, 76, 39
5, 17888, Note_on_c, 4, 67, 39
5, 17888, Note_on_c, 4, 79, 43
5, 17888, Note_on_c, 4, 72, 32
5, 17898, Note_on_c, 4, 76, 0
5, 17900, Note_on_c, 4, 67, 0
5, 17900, Note_on_c, 4, 79, 0
5, 17901, Note_on_c, 4, 72, 0
5, 17920, Note_on_c, 4, 67, 39
5, 17920, Note_on_c, 4, 79, 47
5, 17920, Note_on_c, 4, 76, 47
5, 17920, Note_on_c, 4, 72, 27
5, 17930, Note_on_c, 4, 76, 0
5, 17932, Note_on_c, 4, 67, 0
5, 17932, Note_on_c, 4, 79, 0
5, 17932, Note_on_c, 4, 72, 0
5, 17952, Note_on_c, 4, 76, 43
5, 17952, Note_on_c, 4, 67, 43
5, 17952, Note_on_c, 4, 72, 30
5, 17952, Note_on_c, 4, 79, 47
5, 17962, Note_on_c, 4, 76, 0
5, 17964, Note_on_c, 4, 67, 0
5, 17964, Note_on_c, 4, 72, 0
5, 17965, Note_on_c, 4, 79, 0
5, 17984, Note_on_c, 4, 76, 43
5, 17984, Note_on_c, 4, 79, 51
5, 17984, Note_on_c, 4, 67, 43
5, 17984, Note_on_c, 4, 72, 30
5, 17994, Note_on_c, 4, 76, 0
5, 17995, Note_on_c, 4, 72, 0
5, 17996, Note_on_c, 4, 67, 0
5, 17997, Note_on_c, 4, 79, 0
5, 18016, Note_on_c, 4, 72, 39
5, 18016, Note_on_c, 4, 67, 51
5, 18016, Note_on_c, 4, 76, 51
5, 18016, Note_on_c, 4, 79, 51
5, 18025, Note_on_c, 4, 76, 0
5, 18026, Note_on_c, 4, 79, 0
5, 18027, Note_on_c, 4, 72, 0
5, 18028, Note_on_c, 4, 67, 0
5, 18048, Note_on_c, 4, 74, 51
5, 18048, Note_on_c, 4, 71, 51
5, 18048, Note_on_c, 4, 65, 51
5, 18059, Note_on_c, 4, 65, 0
5, 18062, Note_on_c, 4, 71, 0
5, 18062, Note_on_c, 4, 74, 0
5, 18080, Note_on_c, 4, 65, 22
5, 18080, Note_on_c, 4, 74, 43
5, 18080, Note_on_c, 4, 71, 27
5, 18092, Note_on_c, 4, 71, 0
5, 18092, Note_on_c, 4, 74, 0
5, 18092, Note_on_c, 4, 65, 0
5, 18112, Note_on_c, 4, 65, 30
5, 18112, Note_on_c, 4, 71, 32
5, 18112, Note_on_c, 4, 74, 51
5, 18122, Note_on_c, 4, 65, 0
5, 18123, Note_on_c, 4, 74, 0
5, 18124, Note_on_c, 4, 71, 0
5, 18144, Note_on_c, 4, 74, 51
5, 18144, Note_on_c, 4, 65, 47
5, 18144, Note_on_c, 4, 71, 51
5, 18154, Note_on_c, 4, 65, 0
5, 18156, Note_on_c, 4, 71, 0
5, 18157, Note_on_c, 4, 74, 0
5, 18176, Note_on_c, 4, 74, 51
5, 18176, Note_on_c, 4, 71, 30
5, 18176, Note_on_c, 4, 65, 25
5, 18186, Note_on_c, 4, 65, 0
5, 18187, Note_on_c, 4, 71, 0
5, 18187, Note_on_c, 4, 74, 0
5, 18208, Note_on_c, 4, 71, 35
5, 18208, Note_on_c, 4, 65, 32
5, 18208, Note_on_c, 4, 74, 51
5, 18219, Note_on_c, 4, 65, 0
5, 18219, Note_on_c, 4, 71, 0
5, 18220, Note_on_c, 4, 74, 0
5, 18240, Note_on_c, 4, 74, 51
5, 18240, Note_on_c, 4, 65, 39
5, 18240, Note_on_c, 4, 71, 51
5, 18251, Note_on_c, 4, 65, 0
5, 18252, Note_on_c, 4, 74, 0
5, 18253, Note_on_c, 4, 71, 0
5, 18272, Note_on_c, 4, 71, 35
5, 18272, Note_on_c, 4, 65, 28
5, 18272, Note_on_c, 4, 74, 51
5, 18282, Note_on_c, 4, 65, 0
5, 18283, Note_on_c, 4, 71, 0
5, 18284, Note_on_c, 4, 74, 0
5, 18304, Note_on_c, 4, 71, 30
5, 18304, Note_on_c, 4, 65, 25
5, 18304, Note_on_c, 4, 74, 43
5, 18313, Note_on_c, 4, 65, 0
5, 18314, Note_on_c, 4, 71, 0
5, 18316, Note_on_c, 4, 74, 0
5, 18336, Note_on_c, 4, 71, 47
5, 18336, Note_on_c, 4, 65, 35
5, 18336, Note_on_c, 4, 74, 51
5, 18348, Note_on_c, 4, 65, 0
5, 18349, Note_on_c, 4, 71, 0
5, 18350, Note_on_c, 4, 74, 0
5, 18368, Note_on_c, 4, 65, 27
5, 18368, Note_on_c, 4, 71, 30
5, 18368, Note_on_c, 4, 74, 43
5, 18377, Note_on_c, 4, 65, 0
5, 18379, Note_on_c, 4, 74, 0
5, 18380, Note_on_c, 4, 71, 0
5, 18400, Note_on_c, 4, 65, 28
5, 18400, Note_on_c, 4, 71, 32
5, 18400, Note_on_c, 4, 74, 43
5, 18410, Note_on_c, 4, 65, 0
5, 18412, Note_on_c, 4, 71, 0
5, 18413, Note_on_c, 4, 74, 0
5, 18432, Note_on_c, 4, 74, 47
5, 18432, Note_on_c, 4, 67, 32
5, 18432, Note_on_c, 4, 76, 43
5, 18432, Note_on_c, 4, 72, 43
5, 18442, Note_on_c, 4, 72, 0
5, 18443, Note_on_c, 4, 74, 0
5, 18443, Note_on_c, 4, 67, 0
5, 18444, Note_on_c, 4, 76, 0
5, 18464, Note_on_c, 4, 67, 25
5, 18464, Note_on_c, 4, 72, 28
5, 18464, Note_on_c, 4, 76, 51
5, 18475, Note_on_c, 4, 72, 0
5, 18476, Note_on_c, 4, 67, 0
5, 18478, Note_on_c, 4, 76, 0
5, 18496, Note_on_c, 4, 72, 39
5, 18496, Note_on_c, 4, 67, 35
5, 18496, Note_on_c, 4, 76, 51
5, 18505, Note_on_c, 4, 72, 0
5, 18506, Note_on_c, 4, 67, 0
5, 18509, Note_on_c, 4, 76, 0
5, 18528, Note_on_c, 4, 67, 43
5, 18528, Note_on_c, 4, 76, 51
5, 18528, Note_on_c, 4, 72, 51
5, 18538, Note_on_c, 4, 72, 0
5, 18538, Note_on_c, 4, 67, 0
5, 18542, Note_on_c, 4, 76, 0
5, 18560, Note_on_c, 4, 76, 51
5, 18560, Note_on_c, 4, 72, 51
5, 18560, Note_on_c, 4, 67, 30
5, 18570, Note_on_c, 4, 67, 0
5, 18570, Note_on_c, 4, 72, 0
5, 18573, Note_on_c, 4, 76, 0
5, 18592, Note_on_c, 4, 67, 28
5, 18592, Note_on_c, 4, 72, 43
5, 18592, Note_on_c, 4, 76, 51
5, 18601, Note_on_c, 4, 72, 0
5, 18603, Note_on_c, 4, 67, 0
5, 18605, Note_on_c, 4, 76, 0
5, 18624, Note_on_c, 4, 70, 51
5, 18624, Note_on_c, 4, 65, 47
5, 18624, Note_on_c, 4, 74, 51
5, 18634, Note_on_c, 4, 70, 0
5, 18636, Note_on_c, 4, 65, 0
5, 18639, Note_on_c, 4, 74, 0
5, 18656, Note_on_c, 4, 70, 43
5, 18656, Note_on_c, 4, 65, 32
5, 18656, Note_on_c, 4, 74, 51
5, 18664, Note_on_c, 4, 70, 0
5, 18667, Note_on_c, 4, 65, 0
5, 18668, Note_on_c, 4, 74, 0
5, 18688, Note_on_c, 4, 70, 51
5, 18688, Note_on_c, 4, 74, 51
5, 18688, Note_on_c, 4, 65, 39
5, 18696, Note_on_c, 4, 70, 0
5, 18697, Note_on_c, 4, 65, 0
5, 18701, Note_on_c, 4, 74, 0
5, 18720, Note_on_c, 4, 70, 51
5, 18720, Note_on_c, 4, 65, 43
5, 18720, Note_on_c, 4, 74, 51
5, 18728, Note_on_c, 4, 70, 0
5, 18730, Note_on_c, 4, 65, 0
5, 18733, Note_on_c, 4, 74, 0
5, 18752, Note_on_c, 4, 65, 43
5, 18752, Note_on_c, 4, 74, 51
5, 18752, Note_on_c, 4, 70, 51
5, 18760, Note_on_c, 4, 70, 0
5, 18761, Note_on_c, 4, 65, 0
5, 18764, Note_on_c, 4, 74, 0
5, 18784, Note_on_c, 4, 70, 51
5, 18784, Note_on_c, 4, 74, 51
5, 18784, Note_on_c, 4, 65, 43
5, 18793, Note_on_c, 4, 70, 0
5, 18794, Note_on_c, 4, 65, 0
5, 18796, Note_on_c, 4, 74, 0
5, 18816, Note_on_c, 4, 72, 51
5, 18816, Note_on_c, 4, 67, 51
5, 18816, Note_on_c, 4, 76, 51
5, 18832, Note_on_c, 4, 72, 0
5, 18834, Note_on_c, 4, 67, 0
5, 18835, Note_on_c, 4, 76, 0
5, 19200, Note_on_c, 4, 72, 51
5, 19200, Note_on_c, 4, 77, 51
5, 19200, Note_on_c, 4, 81, 51
5, 19209, Note_on_c, 4, 77, 0
5, 19210, Note_on_c, 4, 81, 0
5, 19210, Note_on_c, 4, 72, 0
5, 19232, Note_on_c, 4, 77, 51
5, 19232, Note_on_c, 4, 72, 39
5, 19232, Note_on_c, 4, 81, 51
5, 19242, Note_on_c, 4, 77, 0
5, 19243, Note_on_c, 4, 81, 0
5, 19243, Note_on_c, 4, 72, 0
5, 19264, Note_on_c, 4, 81, 51
5, 19264, Note_on_c, 4, 77, 51
5, 19264, Note_on_c, 4, 72, 43
5, 19273, Note_on_c, 4, 77, 0
5, 19274, Note_on_c, 4, 72, 0
5, 19274, Note_on_c, 4, 81, 0
5, 19296, Note_on_c, 4, 77, 51
5, 19296, Note_on_c, 4, 72, 51
5, 19296, Note_on_c, 4, 81, 51
5, 19306, Note_on_c, 4, 72, 0
5, 19306, Note_on_c, 4, 77, 0
5, 19308, Note_on_c, 4, 81, 0
5, 19328, Note_on_c, 4, 81, 51
5, 19328, Note_on_c, 4, 77, 51
5, 19328, Note_on_c, 4, 72, 47
5, 19337, Note_on_c, 4, 77, 0
5, 19338, Note_on_c, 4, 72, 0
5, 19339, Note_on_c, 4, 81, 0
5, 19360, Note_on_c, 4, 77, 51
5, 19360, Note_on_c, 4, 72, 47
5, 19360, Note_on_c, 4, 81, 51
5, 19369, Note_on_c, 4, 72, 0
5, 19369, Note_on_c, 4, 77, 0
5, 19371, Note_on_c, 4, 81, 0
5, 19392, Note_on_c, 4, 77, 51
5, 19392, Note_on_c, 4, 81, 51
5, 19392, Note_on_c, 4, 72, 47
5, 19402, Note_on_c, 4, 72, 0
5, 19402, Note_on_c, 4, 77, 0
5, 19404, Note_on_c, 4, 81, 0
5, 19424, Note_on_c, 4, 77, 51
5, 19424, Note_on_c, 4, 72, 43
5, 19424, Note_on_c, 4, 81, 51
5, 19432, Note_on_c, 4, 77, 0
5, 19434, Note_on_c, 4, 81, 0
5, 19434, Note_on_c, 4, 72, 0
5, 19456, Note_on_c, 4, 72, 47
5, 19456, Note_on_c, 4, 77, 51
5, 19456, Note_on_c, 4, 81, 51
5, 19465, Note_on_c, 4, 77, 0
5, 19466, Note_on_c, 4, 72, 0
5, 19467, Note_on_c, 4, 81, 0
5, 19488, Note_on_c, 4, 81, 51
5, 19488, Note_on_c, 4, 72, 51
5, 19488, Note_on_c, 4, 77, 51
5, 19498, Note_on_c, 4, 77, 0
5, 19498, Note_on_c, 4, 72, 0
5, 19500, Note_on_c, 4, 81, 0
5, 19520, Note_on_c, 4, 72, 47
5, 19520, Note_on_c, 4, 81, 51
5, 19520, Note_on_c, 4, 77, 51
5, 19530, Note_on_c, 4, 77, 0
5, 19530, Note_on_c, 4, 72, 0
5, 19532, Note_on_c, 4, 81, 0
5, 19552, Note_on_c, 4, 72, 39
5, 19552, Note_on_c, 4, 77, 51
5, 19552, Note_on_c, 4, 81, 51
5, 19561, Note_on_c, 4, 77, 0
5, 19562, Note_on_c, 4, 72, 0
5, 19564, Note_on_c, 4, 81, 0
5, 19584, Note_on_c, 4, 77, 51
5, 19584, Note_on_c, 4, 72, 51
5, 19584, Note_on_c, 4, 81, 51
5, 19593, Note_on_c, 4, 77, 0
5, 19594, Note_on_c, 4, 72, 0
5, 19596, Note_on_c, 4, 81, 0
5, 19616, Note_on_c, 4, 72, 39
5, 19616, Note_on_c, 4, 81, 51
5, 19616, Note_on_c, 4, 77, 51
5, 19625, Note_on_c, 4, 77, 0
5, 19626, Note_on_c, 4, 72, 0
5, 19628, Note_on_c, 4, 81, 0
5, 19648, Note_on_c, 4, 72, 32
5, 19648, Note_on_c, 4, 81, 51
5, 19648, Note_on_c, 4, 77, 51
5, 19658, Note_on_c, 4, 77, 0
5, 19658, Note_on_c, 4, 72, 0
5, 19659, Note_on_c, 4, 81, 0
5, 19680, Note_on_c, 4, 81, 51
5, 19680, Note_on_c, 4, 77, 51
5, 19680, Note_on_c, 4, 72, 43
5, 19691, Note_on_c, 4, 72, 0
5, 19691, Note_on_c, 4, 77, 0
5, 19692, Note_on_c, 4, 81, 0
5, 19712, Note_on_c, 4, 72, 43
5, 19712, Note_on_c, 4, 77, 51
5, 19712, Note_on_c, 4, 81, 51
5, 19723, Note_on_c, 4, 77, 0
5, 19724, Note_on_c, 4, 72, 0
5, 19726, Note_on_c, 4, 81, 0
5, 19744, Note_on_c, 4, 72, 47
5, 19744, Note_on_c, 4, 81, 51
5, 19744, Note_on_c, 4, 77, 51
5, 19755, Note_on_c, 4, 77, 0
5, 19756, Note_on_c, 4, 81, 0
5, 19756, Note_on_c, 4, 72, 0
5, 19776, Note_on_c, 4, 81, 51
5, 19776, Note_on_c, 4, 72, 51
5, 19776, Note_on_c, 4, 77, 51
5, 19787, Note_on_c, 4, 77, 0
5, 19787, Note_on_c, 4, 72, 0
5, 19788, Note_on_c, 4, 81, 0
5, 19808, Note_on_c, 4, 77, 51
5, 19808, Note_on_c, 4, 81, 51
5, 19808, Note_on_c, 4, 72, 32
5, 19819, Note_on_c, 4, 72, 0
5, 19819, Note_on_c, 4, 77, 0
5, 19820, Note_on_c, 4, 81, 0
5, 19840, Note_on_c, 4, 72, 30
5, 19840, Note_on_c, 4, 77, 51
5, 19840, Note_on_c, 4, 81, 51
5, 19851, Note_on_c, 4, 72, 0
5, 19852, Note_on_c, 4, 81, 0
5, 19852, Note_on_c, 4, 77, 0
5, 19872, Note_on_c, 4, 72, 39
5, 19872, Note_on_c, 4, 77, 51
5, 19872, Note_on_c, 4, 81, 51
5, 19883, Note_on_c, 4, 72, 0
5, 19884, Note_on_c, 4, 77, 0
5, 19886, Note_on_c, 4, 81, 0
5, 19904, Note_on_c, 4, 72, 30
5, 19904, Note_on_c, 4, 81, 51
5, 19904, Note_on_c, 4, 77, 51
5, 19914, Note_on_c, 4, 72, 0
5, 19915, Note_on_c, 4, 77, 0
5, 19916, Note_on_c, 4, 81, 0
5, 19936, Note_on_c, 4, 72, 47
5, 19936, Note_on_c, 4, 77, 51
5, 19936, Note_on_c, 4, 81, 51
5, 19947, Note_on_c, 4, 77, 0
5, 19948, Note_on_c, 4, 72, 0
5, 19949, Note_on_c, 4, 81, 0
5, 19968, Note_on_c, 4, 73, 51
5, 19968, Note_on_c, 4, 81, 51
5, 19968, Note_on_c, 4, 76, 51
5, 19978, Note_on_c, 4, 73, 0
5, 19979, Note_on_c, 4, 76, 0
5, 19980, Note_on_c, 4, 81, 0
5, 20000, Note_on_c, 4, 76, 51
5, 20000, Note_on_c, 4, 81, 51
5, 20000, Note_on_c, 4, 73, 35
5, 20009, Note_on_c, 4, 73, 0
5, 20010, Note_on_c, 4, 81, 0
5, 20011, Note_on_c, 4, 76, 0
5, 20032, Note_on_c, 4, 76, 51
5, 20032, Note_on_c, 4, 81, 51
5, 20032, Note_on_c, 4, 73, 28
5, 20041, Note_on_c, 4, 73, 0
5, 20042, Note_on_c, 4, 76, 0
5, 20043, Note_on_c, 4, 81, 0
5, 20064, Note_on_c, 4, 73, 47
5, 20064, Note_on_c, 4, 76, 51
5, 20064, Note_on_c, 4, 81, 51
5, 20072, Note_on_c, 4, 73, 0
5, 20074, Note_on_c, 4, 76, 0
5, 20075, Note_on_c, 4, 81, 0
5, 20096, Note_on_c, 4, 81, 51
5, 20096, Note_on_c, 4, 73, 27
5, 20096, Note_on_c, 4, 76, 51
5, 20103, Note_on_c, 4, 73, 0
5, 20106, Note_on_c, 4, 76, 0
5, 20106, Note_on_c, 4, 81, 0
5, 20128, Note_on_c, 4, 81, 51
5, 20128, Note_on_c, 4, 76, 51
5, 20128, Note_on_c, 4, 73, 39
5, 20137, Note_on_c, 4, 73, 0
5, 20138, Note_on_c, 4, 76, 0
5, 20138, Note_on_c, 4, 81, 0
5, 20160, Note_on_c, 4, 81, 51
5, 20160, Note_on_c, 4, 76, 51
5, 20160, Note_on_c, 4, 73, 35
5, 20169, Note_on_c, 4, 73, 0
5, 20170, Note_on_c, 4, 76, 0
5, 20170, Note_on_c, 4, 81, 0
5, 20192, Note_on_c, 4, 76, 51
5, 20192, Note_on_c, 4, 81, 51
5, 20192, Note_on_c, 4, 73, 35
5, 20201, Note_on_c, 4, 73, 0
5, 20201, Note_on_c, 4, 76, 0
5, 20202, Note_on_c, 4, 81, 0
5, 20224, Note_on_c, 4, 81, 51
5, 20224, Note_on_c, 4, 73, 43
5, 20224, Note_on_c, 4, 76, 51
5, 20233, Note_on_c, 4, 76, 0
5, 20233, Note_on_c, 4, 73, 0
5, 20233, Note_on_c, 4, 81, 0
5, 20256, Note_on_c, 4, 81, 51
5, 20256, Note_on_c, 4, 73, 35
5, 20256, Note_on_c, 4, 76, 51
5, 20265, Note_on_c, 4, 73, 0
5, 20266, Note_on_c, 4, 76, 0
5, 20266, Note_on_c, 4, 81, 0
5, 20288, Note_on_c, 4, 76, 51
5, 20288, Note_on_c, 4, 73, 35
5, 20288, Note_on_c, 4, 81, 51
5, 20297, Note_on_c, 4, 73, 0
5, 20297, Note_on_c, 4, 76, 0
5, 20299, Note_on_c, 4, 81, 0
5, 20320, Note_on_c, 4, 76, 51
5, 20320, Note_on_c, 4, 81, 51
5, 20320, Note_on_c, 4, 73, 43
5, 20329, Note_on_c, 4, 73, 0
5, 20330, Note_on_c, 4, 81, 0
5, 20330, Note_on_c, 4, 76, 0
5, 20352, Note_on_c, 4, 76, 51
5, 20352, Note_on_c, 4, 81, 51
5, 20352, Note_on_c, 4, 73, 39
5, 20361, Note_on_c, 4, 73, 0
5, 20361, Note_on_c, 4, 76, 0
5, 20363, Note_on_c, 4, 81, 0
5, 20384, Note_on_c, 4, 81, 51
5, 20384, Note_on_c, 4, 73, 39
5, 20384, Note_on_c, 4, 76, 51
5, 20393, Note_on_c, 4, 73, 0
5, 20394, Note_on_c, 4, 76, 0
5, 20395, Note_on_c, 4, 81, 0
5, 20416, Note_on_c, 4, 73, 39
5, 20416, Note_on_c, 4, 81, 51
5, 20416, Note_on_c, 4, 76, 51
5, 20424, Note_on_c, 4, 73, 0
5, 20425, Note_on_c, 4, 76, 0
5, 20425, Note_on_c, 4, 81, 0
5, 20448, Note_on_c, 4, 81, 51
5, 20448, Note_on_c, 4, 73, 51
5, 20448, Note_on_c, 4, 76, 51
5, 20457, Note_on_c, 4, 73, 0
5, 20458, Note_on_c, 4, 76, 0
5, 20458, Note_on_c, 4, 81, 0
5, 20480, Note_on_c, 4, 81, 51
5, 20480, Note_on_c, 4, 73, 43
5, 20480, Note_on_c, 4, 76, 51
5, 20489, Note_on_c, 4, 76, 0
5, 20489, Note_on_c, 4, 73, 0
5, 20490, Note_on_c, 4, 81, 0
5, 20512, Note_on_c, 4, 76, 51
5, 20512, Note_on_c, 4, 81, 51
5, 20512, Note_on_c, 4, 73, 43
5, 20520, Note_on_c, 4, 73, 0
5, 20521, Note_on_c, 4, 76, 0
5, 20522, Note_on_c, 4, 81, 0
5, 20544, Note_on_c, 4, 76, 51
5, 20544, Note_on_c, 4, 81, 51
5, 20544, Note_on_c, 4, 73, 51
5, 20553, Note_on_c, 4, 73, 0
5, 20554, Note_on_c, 4, 81, 0
5, 20554, Note_on_c, 4, 76, 0
5, 20576, Note_on_c, 4, 76, 51
5, 20576, Note_on_c, 4, 81, 51
5, 20576, Note_on_c, 4, 73, 39
5, 20584, Note_on_c, 4, 73, 0
5, 20585, Note_on_c, 4, 76, 0
5, 20586, Note_on_c, 4, 81, 0
5, 20608, Note_on_c, 4, 81, 51
5, 20608, Note_on_c, 4, 73, 39
5, 20608, Note_on_c, 4, 76, 51
5, 20616, Note_on_c, 4, 73, 0
5, 20617, Note_on_c, 4, 76, 0
5, 20619, Note_on_c, 4, 81, 0
5, 20640, Note_on_c, 4, 81, 51
5, 20640, Note_on_c, 4, 73, 39
5, 20640, Note_on_c, 4, 76, 51
5, 20648, Note_on_c, 4, 81, 0
5, 20649, Note_on_c, 4, 73, 0
5, 20650, Note_on_c, 4, 76, 0
5, 20672, Note_on_c, 4, 81, 51
5, 20672, Note_on_c, 4, 73, 28
5, 20672, Note_on_c, 4, 76, 51
5, 20681, Note_on_c, 4, 76, 0
5, 20681, Note_on_c, 4, 73, 0
5, 20682, Note_on_c, 4, 81, 0
5, 20704, Note_on_c, 4, 73, 51
5, 20704, Note_on_c, 4, 76, 51
5, 20704, Note_on_c, 4, 81, 51
5, 20712, Note_on_c, 4, 76, 0
5, 20714, Note_on_c, 4, 81, 0
5, 20714, Note_on_c, 4, 73, 0
5, 20736, Note_on_c, 4, 72, 16
5, 20736, Note_on_c, 4, 78, 51
5, 20736, Note_on_c, 4, 81, 51
5, 20744, Note_on_c, 4, 72, 0
5, 20747, Note_on_c, 4, 78, 0
5, 20750, Note_on_c, 4, 81, 0
5, 20768, Note_on_c, 4, 78, 43
5, 20768, Note_on_c, 4, 81, 51
5, 20768, Note_on_c, 4, 72, 47
5, 20776, Note_on_c, 4, 78, 0
5, 20778, Note_on_c, 4, 72, 0
5, 20779, Note_on_c, 4, 81, 0
5, 20800, Note_on_c, 4, 78, 51
5, 20800, Note_on_c, 4, 72, 43
5, 20800, Note_on_c, 4, 81, 51
5, 20810, Note_on_c, 4, 72, 0
5, 20810, Note_on_c, 4, 78, 0
5, 20812, Note_on_c, 4, 81, 0
5, 20832, Note_on_c, 4, 81, 51
5, 20832, Note_on_c, 4, 78, 51
5, 20832, Note_on_c, 4, 72, 51
5, 20841, Note_on_c, 4, 78, 0
5, 20842, Note_on_c, 4, 72, 0
5, 20844, Note_on_c, 4, 81, 0
5, 20864, Note_on_c, 4, 78, 43
5, 20864, Note_on_c, 4, 72, 35
5, 20864, Note_on_c, 4, 81, 51
5, 20873, Note_on_c, 4, 78, 0
5, 20874, Note_on_c, 4, 72, 0
5, 20876, Note_on_c, 4, 81, 0
5, 20896, Note_on_c, 4, 72, 35
5, 20896, Note_on_c, 4, 81, 51
5, 20896, Note_on_c, 4, 78, 35
5, 20904, Note_on_c, 4, 78, 0
5, 20905, Note_on_c, 4, 72, 0
5, 20907, Note_on_c, 4, 81, 0
5, 20928, Note_on_c, 4, 78, 51
5, 20928, Note_on_c, 4, 72, 51
5, 20928, Note_on_c, 4, 81, 51
5, 20938, Note_on_c, 4, 72, 0
5, 20938, Note_on_c, 4, 78, 0
5, 20940, Note_on_c, 4, 81, 0
5, 20960, Note_on_c, 4, 72, 32
5, 20960, Note_on_c, 4, 81, 51
5, 20960, Note_on_c, 4, 78, 39
5, 20969, Note_on_c, 4, 78, 0
5, 20969, Note_on_c, 4, 72, 0
5, 20972, Note_on_c, 4, 81, 0
5, 20992, Note_on_c, 4, 81, 43
5, 20992, Note_on_c, 4, 78, 47
5, 20992, Note_on_c, 4, 72, 43
5, 21002, Note_on_c, 4, 72, 0
5, 21002, Note_on_c, 4, 78, 0
5, 21003, Note_on_c, 4, 81, 0
5, 21024, Note_on_c, 4, 72, 51
5, 21024, Note_on_c, 4, 78, 51
5, 21024, Note_on_c, 4, 81, 51
5, 21034, Note_on_c, 4, 72, 0
5, 21035, Note_on_c, 4, 78, 0
5, 21036, Note_on_c, 4, 81, 0
5, 21056, Note_on_c, 4, 78, 47
5, 21056, Note_on_c, 4, 81, 51
5, 21056, Note_on_c, 4, 72, 43
5, 21065, Note_on_c, 4, 78, 0
5, 21066, Note_on_c, 4, 72, 0
5, 21067, Note_on_c, 4, 81, 0
5, 21088, Note_on_c, 4, 72, 43
5, 21088, Note_on_c, 4, 78, 51
5, 21088, Note_on_c, 4, 81, 51
5, 21097, Note_on_c, 4, 72, 0
5, 21098, Note_on_c, 4, 78, 0
5, 21099, Note_on_c, 4, 81, 0
5, 21120, Note_on_c, 4, 72, 51
5, 21120, Note_on_c, 4, 81, 51
5, 21120, Note_on_c, 4, 78, 51
5, 21130, Note_on_c, 4, 72, 0
5, 21131, Note_on_c, 4, 78, 0
5, 21133, Note_on_c, 4, 81, 0
5, 21152, Note_on_c, 4, 81, 43
5, 21152, Note_on_c, 4, 72, 35
5, 21152, Note_on_c, 4, 78, 39
5, 21161, Note_on_c, 4, 72, 0
5, 21162, Note_on_c, 4, 78, 0
5, 21163, Note_on_c, 4, 81, 0
5, 21184, Note_on_c, 4, 72, 47
5, 21184, Note_on_c, 4, 78, 51
5, 21184, Note_on_c, 4, 81, 51
5, 21193, Note_on_c, 4, 72, 0
5, 21194, Note_on_c, 4, 81, 0
5, 21194, Note_on_c, 4, 78, 0
5, 21216, Note_on_c, 4, 78, 51
5, 21216, Note_on_c, 4, 72, 47
5, 21216, Note_on_c, 4, 81, 51
5, 21225, Note_on_c, 4, 72, 0
5, 21226, Note_on_c, 4, 78, 0
5, 21228, Note_on_c, 4, 81, 0
5, 21248, Note_on_c, 4, 72, 35
5, 21248, Note_on_c, 4, 81, 47
5, 21248, Note_on_c, 4, 78, 39
5, 21257, Note_on_c, 4, 78, 0
5, 21258, Note_on_c, 4, 72, 0
5, 21260, Note_on_c, 4, 81, 0
5, 21280, Note_on_c, 4, 78, 51
5, 21280, Note_on_c, 4, 81, 51
5, 21280, Note_on_c, 4, 72, 51
5, 21288, Note_on_c, 4, 78, 0
5, 21290, Note_on_c, 4, 72, 0
5, 21291, Note_on_c, 4, 81, 0
5, 21312, Note_on_c, 4, 78, 39
5, 21312, Note_on_c, 4, 81, 51
5, 21312, Note_on_c, 4, 72, 39
5, 21322, Note_on_c, 4, 72, 0
5, 21322, Note_on_c, 4, 78, 0
5, 21324, Note_on_c, 4, 81, 0
5, 21344, Note_on_c, 4, 72, 30
5, 21344, Note_on_c, 4, 78, 43
5, 21344, Note_on_c, 4, 81, 51
5, 21353, Note_on_c, 4, 72, 0
5, 21355, Note_on_c, 4, 78, 0
5, 21356, Note_on_c, 4, 81, 0
5, 21376, Note_on_c, 4, 81, 51
5, 21376, Note_on_c, 4, 78, 43
5, 21376, Note_on_c, 4, 72, 35
5, 21384, Note_on_c, 4, 78, 0
5, 21385, Note_on_c, 4, 72, 0
5, 21389, Note_on_c, 4, 81, 0
5, 21408, Note_on_c, 4, 78, 51
5, 21408, Note_on_c, 4, 72, 35
5, 21408, Note_on_c, 4, 81, 51
5, 21416, Note_on_c, 4, 72, 0
5, 21419, Note_on_c, 4, 81, 0
5, 21419, Note_on_c, 4, 78, 0
5, 21440, Note_on_c, 4, 78, 51
5, 21440, Note_on_c, 4, 81, 51
5, 21440, Note_on_c, 4, 72, 47
5, 21449, Note_on_c, 4, 72, 0
5, 21449, Note_on_c, 4, 78, 0
5, 21453, Note_on_c, 4, 81, 0
5, 21472, Note_on_c, 4, 81, 51
5, 21472, Note_on_c, 4, 72, 47
5, 21472, Note_on_c, 4, 78, 47
5, 21478, Note_on_c, 4, 72, 0
5, 21479, Note_on_c, 4, 78, 0
5, 21482, Note_on_c, 4, 81, 0
5, 21504, Note_on_c, 4, 74, 51
5, 21504, Note_on_c, 4, 79, 51
5, 21504, Note_on_c, 4, 70, 39
5, 21516, Note_on_c, 4, 74, 0
5, 21517, Note_on_c, 4, 70, 0
5, 21518, Note_on_c, 4, 79, 0
5, 21536, Note_on_c, 4, 74, 35
5, 21536, Note_on_c, 4, 79, 51
5, 21536, Note_on_c, 4, 70, 32
5, 21548, Note_on_c, 4, 74, 0
5, 21549, Note_on_c, 4, 70, 0
5, 21550, Note_on_c, 4, 79, 0
5, 21568, Note_on_c, 4, 74, 39
5, 21568, Note_on_c, 4, 70, 35
5, 21568, Note_on_c, 4, 79, 51
5, 21579, Note_on_c, 4, 74, 0
5, 21581, Note_on_c, 4, 70, 0
5, 21582, Note_on_c, 4, 79, 0
5, 21600, Note_on_c, 4, 79, 51
5, 21600, Note_on_c, 4, 70, 43
5, 21600, Note_on_c, 4, 74, 51
5, 21611, Note_on_c, 4, 74, 0
5, 21612, Note_on_c, 4, 70, 0
5, 21615, Note_on_c, 4, 79, 0
5, 21632, Note_on_c, 4, 70, 35
5, 21632, Note_on_c, 4, 79, 43
5, 21632, Note_on_c, 4, 74, 47
5, 21643, Note_on_c, 4, 74, 0
5, 21644, Note_on_c, 4, 70, 0
5, 21648, Note_on_c, 4, 79, 0
5, 21664, Note_on_c, 4, 70, 39
5, 21664, Note_on_c, 4, 74, 51
5, 21664, Note_on_c, 4, 79, 43
5, 21675, Note_on_c, 4, 70, 0
5, 21676, Note_on_c, 4, 74, 0
5, 21680, Note_on_c, 4, 79, 0
5, 21696, Note_on_c, 4, 69, 27
5, 21696, Note_on_c, 4, 78, 51
5, 21696, Note_on_c, 4, 74, 39
5, 21706, Note_on_c, 4, 69, 0
5, 21707, Note_on_c, 4, 74, 0
5, 21713, Note_on_c, 4, 78, 0
5, 21728, Note_on_c, 4, 74, 32
5, 21728, Note_on_c, 4, 78, 47
5, 21728, Note_on_c, 4, 69, 30
5, 21736, Note_on_c, 4, 74, 0
5, 21740, Note_on_c, 4, 69, 0
5, 21742, Note_on_c, 4, 78, 0
5, 21760, Note_on_c, 4, 74, 43
5, 21760, Note_on_c, 4, 69, 35
5, 21760, Note_on_c, 4, 78, 51
5, 21770, Note_on_c, 4, 74, 0
5, 21771, Note_on_c, 4, 69, 0
5, 21772, Note_on_c, 4, 78, 0
5, 21792, Note_on_c, 4, 74, 43
5, 21792, Note_on_c, 4, 78, 51
5, 21792, Note_on_c, 4, 69, 39
5, 21802, Note_on_c, 4, 74, 0
5, 21805, Note_on_c, 4, 69, 0
5, 21806, Note_on_c, 4, 78, 0
5, 21824, Note_on_c, 4, 69, 39
5, 21824, Note_on_c, 4, 74, 43
5, 21824, Note_on_c, 4, 78, 51
5, 21833, Note_on_c, 4, 74, 0
5, 21835, Note_on_c, 4, 69, 0
5, 21837, Note_on_c, 4, 78, 0
5, 21856, Note_on_c, 4, 69, 43
5, 21856, Note_on_c, 4, 78, 51
5, 21856, Note_on_c, 4, 74, 32
5, 21866, Note_on_c, 4, 74, 0
5, 21869, Note_on_c, 4, 78, 0
5, 21869, Note_on_c, 4, 69, 0
5, 21888, Note_on_c, 4, 70, 28
5, 21888, Note_on_c, 4, 79, 51
5, 21888, Note_on_c, 4, 74, 51
5, 21896, Note_on_c, 4, 70, 0
5, 21901, Note_on_c, 4, 74, 0
5, 21903, Note_on_c, 4, 79, 0
5, 21920, Note_on_c, 4, 79, 43
5, 21920, Note_on_c, 4, 74, 43
5, 21920, Note_on_c, 4, 70, 35
5, 21929, Note_on_c, 4, 79, 0
5, 21930, Note_on_c, 4, 74, 0
5, 21932, Note_on_c, 4, 70, 0
5, 21952, Note_on_c, 4, 74, 51
5, 21952, Note_on_c, 4, 79, 51
5, 21952, Note_on_c, 4, 70, 43
5, 21961, Note_on_c, 4, 74, 0
5, 21962, Note_on_c, 4, 70, 0
5, 21964, Note_on_c, 4, 79, 0
5, 21984, Note_on_c, 4, 70, 43
5, 21984, Note_on_c, 4, 74, 51
5, 21984, Note_on_c, 4, 79, 51
5, 21994, Note_on_c, 4, 74, 0
5, 21995, Note_on_c, 4, 70, 0
5, 21998, Note_on_c, 4, 79, 0
5, 22016, Note_on_c, 4, 70, 35
5, 22016, Note_on_c, 4, 79, 51
5, 22016, Note_on_c, 4, 74, 51
5, 22026, Note_on_c, 4, 74, 0
5, 22027, Note_on_c, 4, 70, 0
5, 22028, Note_on_c, 4, 79, 0
5, 22048, Note_on_c, 4, 74, 51
5, 22048, Note_on_c, 4, 70, 39
5, 22048, Note_on_c, 4, 79, 51
5, 22058, Note_on_c, 4, 74, 0
5, 22059, Note_on_c, 4, 70, 0
5, 22060, Note_on_c, 4, 79, 0
5, 22080, Note_on_c, 4, 74, 43
5, 22080, Note_on_c, 4, 70, 30
5, 22080, Note_on_c, 4, 79, 51
5, 22089, Note_on_c, 4, 74, 0
5, 22091, Note_on_c, 4, 70, 0
5, 22093, Note_on_c, 4, 79, 0
5, 22112, Note_on_c, 4, 74, 51
5, 22112, Note_on_c, 4, 70, 43
5, 22112, Note_on_c, 4, 79, 51
5, 22122, Note_on_c, 4, 74, 0
5, 22123, Note_on_c, 4, 70, 0
5, 22125, Note_on_c, 4, 79, 0
5, 22144, Note_on_c, 4, 70, 39
5, 22144, Note_on_c, 4, 74, 43
5, 22144, Note_on_c, 4, 79, 51
5, 22153, Note_on_c, 4, 74, 0
5, 22155, Note_on_c, 4, 70, 0
5, 22157, Note_on_c, 4, 79, 0
5, 22176, Note_on_c, 4, 74, 51
5, 22176, Note_on_c, 4, 70, 47
5, 22176, Note_on_c, 4, 79, 51
5, 22186, Note_on_c, 4, 74, 0
5, 22188, Note_on_c, 4, 70, 0
5, 22189, Note_on_c, 4, 79, 0
5, 22208, Note_on_c, 4, 74, 47
5, 22208, Note_on_c, 4, 70, 39
5, 22208, Note_on_c, 4, 79, 51
5, 22218, Note_on_c, 4, 74, 0
5, 22219, Note_on_c, 4, 70, 0
5, 22221, Note_on_c, 4, 79, 0
5, 22240, Note_on_c, 4, 79, 51
5, 22240, Note_on_c, 4, 74, 51
5, 22240, Note_on_c, 4, 70, 47
5, 22248, Note_on_c, 4, 79, 0
5, 22249, Note_on_c, 4, 74, 0
5, 22250, Note_on_c, 4, 70, 0
5, 22272, Note_on_c, 4, 77, 51
5, 22272, Note_on_c, 4, 74, 51
5, 22272, Note_on_c, 4, 70, 39
5, 22283, Note_on_c, 4, 74, 0
5, 22285, Note_on_c, 4, 70, 0
5, 22286, Note_on_c, 4, 77, 0
5, 22304, Note_on_c, 4, 77, 43
5, 22304, Note_on_c, 4, 70, 30
5, 22304, Note_on_c, 4, 74, 39
5, 22314, Note_on_c, 4, 74, 0
5, 22317, Note_on_c, 4, 70, 0
5, 22317, Note_on_c, 4, 77, 0
5, 22336, Note_on_c, 4, 70, 28
5, 22336, Note_on_c, 4, 77, 51
5, 22336, Note_on_c, 4, 74, 35
5, 22346, Note_on_c, 4, 74, 0
5, 22348, Note_on_c, 4, 77, 0
5, 22348, Note_on_c, 4, 70, 0
5, 22368, Note_on_c, 4, 77, 51
5, 22368, Note_on_c, 4, 70, 43
5, 22368, Note_on_c, 4, 74, 51
5, 22380, Note_on_c, 4, 74, 0
5, 22382, Note_on_c, 4, 70, 0
5, 22382, Note_on_c, 4, 77, 0
5, 22400, Note_on_c, 4, 70, 28
5, 22400, Note_on_c, 4, 74, 47
5, 22400, Note_on_c, 4, 77, 51
5, 22410, Note_on_c, 4, 74, 0
5, 22411, Note_on_c, 4, 70, 0
5, 22413, Note_on_c, 4, 77, 0
5, 22432, Note_on_c, 4, 77, 51
5, 22432, Note_on_c, 4, 74, 47
5, 22432, Note_on_c, 4, 70, 30
5, 22443, Note_on_c, 4, 70, 0
5, 22443, Note_on_c, 4, 74, 0
5, 22444, Note_on_c, 4, 77, 0
5, 22464, Note_on_c, 4, 70, 32
5, 22464, Note_on_c, 4, 77, 51
5, 22464, Note_on_c, 4, 74, 51
5, 22476, Note_on_c, 4, 74, 0
5, 22476, Note_on_c, 4, 70, 0
5, 22477, Note_on_c, 4, 77, 0
5, 22496, Note_on_c, 4, 77, 47
5, 22496, Note_on_c, 4, 74, 39
5, 22496, Note_on_c, 4, 70, 25
5, 22506, Note_on_c, 4, 74, 0
5, 22508, Note_on_c, 4, 70, 0
5, 22508, Note_on_c, 4, 77, 0
5, 22528, Note_on_c, 4, 70, 32
5, 22528, Note_on_c, 4, 77, 51
5, 22528, Note_on_c, 4, 74, 51
5, 22538, Note_on_c, 4, 74, 0
5, 22539, Note_on_c, 4, 70, 0
5, 22540, Note_on_c, 4, 77, 0
5, 22560, Note_on_c, 4, 77, 51
5, 22560, Note_on_c, 4, 74, 47
5, 22560, Note_on_c, 4, 70, 39
5, 22570, Note_on_c, 4, 74, 0
5, 22571, Note_on_c, 4, 70, 0
5, 22574, Note_on_c, 4, 77, 0
5, 22592, Note_on_c, 4, 77, 51
5, 22592, Note_on_c, 4, 74, 47
5, 22592, Note_on_c, 4, 70, 32
5, 22603, Note_on_c, 4, 74, 0
5, 22604, Note_on_c, 4, 70, 0
5, 22604, Note_on_c, 4, 77, 0
5, 22624, Note_on_c, 4, 74, 51
5, 22624, Note_on_c, 4, 77, 51
5, 22624, Note_on_c, 4, 70, 32
5, 22636, Note_on_c, 4, 70, 0
5, 22636, Note_on_c, 4, 74, 0
5, 22637, Note_on_c, 4, 77, 0
5, 22656, Note_on_c, 4, 77, 51
5, 22656, Note_on_c, 4, 70, 39
5, 22656, Note_on_c, 4, 73, 51
5, 22665, Note_on_c, 4, 70, 0
5, 22667, Note_on_c, 4, 77, 0
5, 22669, Note_on_c, 4, 73, 0
5, 22688, Note_on_c, 4, 77, 43
5, 22688, Note_on_c, 4, 73, 35
5, 22688, Note_on_c, 4, 70, 30
5, 22700, Note_on_c, 4, 70, 0
5, 22700, Note_on_c, 4, 73, 0
5, 22700, Note_on_c, 4, 77, 0
5, 22720, Note_on_c, 4, 70, 27
5, 22720, Note_on_c, 4, 73, 39
5, 22720, Note_on_c, 4, 77, 47
5, 22730, Note_on_c, 4, 70, 0
5, 22731, Note_on_c, 4, 77, 0
5, 22731, Note_on_c, 4, 73, 0
5, 22752, Note_on_c, 4, 70, 39
5, 22752, Note_on_c, 4, 77, 51
5, 22752, Note_on_c, 4, 73, 51
5, 22762, Note_on_c, 4, 70, 0
5, 22764, Note_on_c, 4, 73, 0
5, 22766, Note_on_c, 4, 77, 0
5, 22784, Note_on_c, 4, 70, 27
5, 22784, Note_on_c, 4, 73, 39
5, 22784, Note_on_c, 4, 77, 47
5, 22793, Note_on_c, 4, 70, 0
5, 22795, Note_on_c, 4, 73, 0
5, 22796, Note_on_c, 4, 77, 0
5, 22816, Note_on_c, 4, 77, 43
5, 22816, Note_on_c, 4, 70, 30
5, 22816, Note_on_c, 4, 73, 39
5, 22825, Note_on_c, 4, 70, 0
5, 22827, Note_on_c, 4, 73, 0
5, 22828, Note_on_c, 4, 77, 0
5, 22848, Note_on_c, 4, 70, 32
5, 22848, Note_on_c, 4, 73, 43
5, 22848, Note_on_c, 4, 77, 47
5, 22858, Note_on_c, 4, 70, 0
5, 22859, Note_on_c, 4, 73, 0
5, 22862, Note_on_c, 4, 77, 0
5, 22880, Note_on_c, 4, 77, 47
5, 22880, Note_on_c, 4, 70, 30
5, 22880, Note_on_c, 4, 73, 39
5, 22890, Note_on_c, 4, 70, 0
5, 22891, Note_on_c, 4, 73, 0
5, 22895, Note_on_c, 4, 77, 0
5, 22912, Note_on_c, 4, 73, 47
5, 22912, Note_on_c, 4, 77, 51
5, 22912, Note_on_c, 4, 70, 30
5, 22922, Note_on_c, 4, 70, 0
5, 22923, Note_on_c, 4, 73, 0
5, 22924, Note_on_c, 4, 77, 0
5, 22944, Note_on_c, 4, 73, 43
5, 22944, Note_on_c, 4, 77, 51
5, 22944, Note_on_c, 4, 70, 30
5, 22953, Note_on_c, 4, 70, 0
5, 22954, Note_on_c, 4, 73, 0
5, 22957, Note_on_c, 4, 77, 0
5, 22976, Note_on_c, 4, 70, 27
5, 22976, Note_on_c, 4, 73, 47
5, 22976, Note_on_c, 4, 77, 51
5, 22984, Note_on_c, 4, 70, 0
5, 22986, Note_on_c, 4, 73, 0
5, 22987, Note_on_c, 4, 77, 0
5, 23008, Note_on_c, 4, 73, 51
5, 23008, Note_on_c, 4, 77, 51
5, 23008, Note_on_c, 4, 70, 32
5, 23016, Note_on_c, 4, 70, 0
5, 23018, Note_on_c, 4, 73, 0
5, 23021, Note_on_c, 4, 77, 0
5, 23040, Note_on_c, 4, 72, 43
5, 23040, Note_on_c, 4, 69, 39
5, 23040, Note_on_c, 4, 77, 51
5, 23051, Note_on_c, 4, 72, 0
5, 23052, Note_on_c, 4, 69, 0
5, 23055, Note_on_c, 4, 77, 0
5, 23072, Note_on_c, 4, 72, 32
5, 23072, Note_on_c, 4, 69, 25
5, 23072, Note_on_c, 4, 77, 39
5, 23082, Note_on_c, 4, 72, 0
5, 23084, Note_on_c, 4, 69, 0
5, 23086, Note_on_c, 4, 77, 0
5, 23104, Note_on_c, 4, 72, 39
5, 23104, Note_on_c, 4, 77, 51
5, 23104, Note_on_c, 4, 69, 28
5, 23115, Note_on_c, 4, 69, 0
5, 23115, Note_on_c, 4, 72, 0
5, 23116, Note_on_c, 4, 77, 0
5, 23136, Note_on_c, 4, 72, 43
5, 23136, Note_on_c, 4, 69, 35
5, 23136, Note_on_c, 4, 77, 51
5, 23146, Note_on_c, 4, 72, 0
5, 23148, Note_on_c, 4, 69, 0
5, 23150, Note_on_c, 4, 77, 0
5, 23168, Note_on_c, 4, 72, 39
5, 23168, Note_on_c, 4, 69, 30
5, 23168, Note_on_c, 4, 77, 51
5, 23178, Note_on_c, 4, 72, 0
5, 23179, Note_on_c, 4, 69, 0
5, 23182, Note_on_c, 4, 77, 0
5, 23200, Note_on_c, 4, 72, 43
5, 23200, Note_on_c, 4, 69, 30
5, 23200, Note_on_c, 4, 77, 51
5, 23210, Note_on_c, 4, 72, 0
5, 23211, Note_on_c, 4, 69, 0
5, 23213, Note_on_c, 4, 77, 0
5, 23232, Note_on_c, 4, 69, 35
5, 23232, Note_on_c, 4, 72, 47
5, 23232, Note_on_c, 4, 77, 51
5, 23242, Note_on_c, 4, 72, 0
5, 23243, Note_on_c, 4, 69, 0
5, 23246, Note_on_c, 4, 77, 0
5, 23264, Note_on_c, 4, 69, 28
5, 23264, Note_on_c, 4, 72, 51
5, 23264, Note_on_c, 4, 77, 51
5, 23274, Note_on_c, 4, 72, 0
5, 23275, Note_on_c, 4, 69, 0
5, 23277, Note_on_c, 4, 77, 0
5, 23296, Note_on_c, 4, 69, 32
5, 23296, Note_on_c, 4, 72, 51
5, 23296, Note_on_c, 4, 77, 51
5, 23307, Note_on_c, 4, 72, 0
5, 23307, Note_on_c, 4, 69, 0
5, 23309, Note_on_c, 4, 77, 0
5, 23328, Note_on_c, 4, 69, 32
5, 23328, Note_on_c, 4, 77, 51
5, 23328, Note_on_c, 4, 72, 51
5, 23339, Note_on_c, 4, 72, 0
5, 23339, Note_on_c, 4, 69, 0
5, 23341, Note_on_c, 4, 77, 0
5, 23360, Note_on_c, 4, 77, 51
5, 23360, Note_on_c, 4, 72, 43
5, 23360, Note_on_c, 4, 69, 30
5, 23370, Note_on_c, 4, 72, 0
5, 23371, Note_on_c, 4, 69, 0
5, 23373, Note_on_c, 4, 77, 0
5, 23392, Note_on_c, 4, 72, 47
5, 23392, Note_on_c, 4, 69, 39
5, 23392, Note_on_c, 4, 77, 51
5, 23400, Note_on_c, 4, 72, 0
5, 23402, Note_on_c, 4, 77, 0
5, 23402, Note_on_c, 4, 69, 0
5, 23424, Note_on_c, 4, 69, 35
5, 23424, Note_on_c, 4, 72, 51
5, 23424, Note_on_c, 4, 78, 51
5, 23434, Note_on_c, 4, 72, 0
5, 23434, Note_on_c, 4, 69, 0
5, 23436, Note_on_c, 4, 78, 0
5, 23456, Note_on_c, 4, 69, 16
5, 23456, Note_on_c, 4, 78, 39
5, 23456, Note_on_c, 4, 72, 28
5, 23465, Note_on_c, 4, 69, 0
5, 23466, Note_on_c, 4, 72, 0
5, 23467, Note_on_c, 4, 78, 0
5, 23488, Note_on_c, 4, 72, 43
5, 23488, Note_on_c, 4, 78, 35
5, 23488, Note_on_c, 4, 69, 25
5, 23498, Note_on_c, 4, 69, 0
5, 23498, Note_on_c, 4, 78, 0
5, 23498, Note_on_c, 4, 72, 0
5, 23520, Note_on_c, 4, 69, 39
5, 23520, Note_on_c, 4, 72, 51
5, 23520, Note_on_c, 4, 78, 51
5, 23531, Note_on_c, 4, 72, 0
5, 23531, Note_on_c, 4, 69, 0
5, 23532, Note_on_c, 4, 78, 0
5, 23552, Note_on_c, 4, 69, 25
5, 23552, Note_on_c, 4, 78, 39
5, 23552, Note_on_c, 4, 72, 47
5, 23561, Note_on_c, 4, 78, 0
5, 23561, Note_on_c, 4, 69, 0
5, 23562, Note_on_c, 4, 72, 0
5, 23584, Note_on_c, 4, 69, 32
5, 23584, Note_on_c, 4, 72, 51
5, 23584, Note_on_c, 4, 78, 51
5, 23592, Note_on_c, 4, 69, 0
5, 23593, Note_on_c, 4, 72, 0
5, 23597, Note_on_c, 4, 78, 0
5, 23616, Note_on_c, 4, 69, 28
5, 23616, Note_on_c, 4, 78, 51
5, 23616, Note_on_c, 4, 72, 51
5, 23628, Note_on_c, 4, 72, 0
5, 23628, Note_on_c, 4, 78, 0
5, 23628, Note_on_c, 4, 69, 0
5, 23648, Note_on_c, 4, 72, 47
5, 23648, Note_on_c, 4, 78, 47
5, 23648, Note_on_c, 4, 69, 30
5, 23657, Note_on_c, 4, 69, 0
5, 23657, Note_on_c, 4, 72, 0
5, 23658, Note_on_c, 4, 78, 0
5, 23680, Note_on_c, 4, 69, 39
5, 23680, Note_on_c, 4, 72, 51
5, 23680, Note_on_c, 4, 78, 51
5, 23688, Note_on_c, 4, 72, 0
5, 23689, Note_on_c, 4, 69, 0
5, 23692, Note_on_c, 4, 78, 0
5, 23712, Note_on_c, 4, 69, 32
5, 23712, Note_on_c, 4, 78, 47
5, 23712, Note_on_c, 4, 72, 51
5, 23722, Note_on_c, 4, 72, 0
5, 23722, Note_on_c, 4, 69, 0
5, 23723, Note_on_c, 4, 78, 0
5, 23744, Note_on_c, 4, 69, 28
5, 23744, Note_on_c, 4, 72, 47
5, 23744, Note_on_c, 4, 78, 51
5, 23752, Note_on_c, 4, 72, 0
5, 23752, Note_on_c, 4, 69, 0
5, 23756, Note_on_c, 4, 78, 0
5, 23776, Note_on_c, 4, 72, 25
5, 23776, Note_on_c, 4, 69, 30
5, 23776, Note_on_c, 4, 78, 47
5, 23785, Note_on_c, 4, 72, 0
5, 23787, Note_on_c, 4, 69, 0
5, 23788, Note_on_c, 4, 78, 0
5, 23808, Note_on_c, 4, 70, 43
5, 23808, Note_on_c, 4, 77, 51
5, 23808, Note_on_c, 4, 74, 51
5, 23819, Note_on_c, 4, 70, 0
5, 23820, Note_on_c, 4, 74, 0
5, 23823, Note_on_c, 4, 77, 0
5, 23840, Note_on_c, 4, 74, 32
5, 23840, Note_on_c, 4, 70, 25
5, 23840, Note_on_c, 4, 77, 39
5, 23852, Note_on_c, 4, 70, 0
5, 23852, Note_on_c, 4, 74, 0
5, 23853, Note_on_c, 4, 77, 0
5, 23872, Note_on_c, 4, 77, 51
5, 23872, Note_on_c, 4, 70, 39
5, 23872, Note_on_c, 4, 74, 51
5, 23883, Note_on_c, 4, 74, 0
5, 23884, Note_on_c, 4, 70, 0
5, 23884, Note_on_c, 4, 77, 0
5, 23904, Note_on_c, 4, 77, 51
5, 23904, Note_on_c, 4, 74, 51
5, 23904, Note_on_c, 4, 70, 39
5, 23914, Note_on_c, 4, 70, 0
5, 23914, Note_on_c, 4, 74, 0
5, 23918, Note_on_c, 4, 77, 0
5, 23936, Note_on_c, 4, 70, 28
5, 23936, Note_on_c, 4, 77, 47
5, 23936, Note_on_c, 4, 74, 43
5, 23946, Note_on_c, 4, 74, 0
5, 23946, Note_on_c, 4, 70, 0
5, 23948, Note_on_c, 4, 77, 0
5, 23968, Note_on_c, 4, 74, 51
5, 23968, Note_on_c, 4, 77, 51
5, 23968, Note_on_c, 4, 70, 30
5, 23977, Note_on_c, 4, 74, 0
5, 23978, Note_on_c, 4, 70, 0
5, 23979, Note_on_c, 4, 77, 0
5, 24000, Note_on_c, 4, 74, 51
5, 24000, Note_on_c, 4, 70, 35
5, 24000, Note_on_c, 4, 77, 51
5, 24009, Note_on_c, 4, 70, 0
5, 24010, Note_on_c, 4, 74, 0
5, 24012, Note_on_c, 4, 77, 0
5, 24032, Note_on_c, 4, 70, 35
5, 24032, Note_on_c, 4, 74, 43
5, 24032, Note_on_c, 4, 77, 51
5, 24041, Note_on_c, 4, 74, 0
5, 24042, Note_on_c, 4, 70, 0
5, 24045, Note_on_c, 4, 77, 0
5, 24064, Note_on_c, 4, 70, 35
5, 24064, Note_on_c, 4, 74, 51
5, 24064, Note_on_c, 4, 77, 51
5, 24073, Note_on_c, 4, 74, 0
5, 24073, Note_on_c, 4, 70, 0
5, 24077, Note_on_c, 4, 77, 0
5, 24096, Note_on_c, 4, 77, 51
5, 24096, Note_on_c, 4, 70, 43
5, 24096, Note_on_c, 4, 74, 51
5, 24108, Note_on_c, 4, 74, 0
5, 24108, Note_on_c, 4, 70, 0
5, 24112, Note_on_c, 4, 77, 0
5, 24128, Note_on_c, 4, 70, 27
5, 24128, Note_on_c, 4, 74, 39
5, 24128, Note_on_c, 4, 77, 51
5, 24138, Note_on_c, 4, 70, 0
5, 24139, Note_on_c, 4, 74, 0
5, 24144, Note_on_c, 4, 77, 0
5, 24160, Note_on_c, 4, 77, 39
5, 24160, Note_on_c, 4, 74, 47
5, 24160, Note_on_c, 4, 70, 30
5, 24173, Note_on_c, 4, 70, 0
5, 24175, Note_on_c, 4, 74, 0
5, 24176, Note_on_c, 4, 77, 0
5, 24192, Note_on_c, 4, 76, 51
5, 24192, Note_on_c, 4, 72, 51
5, 24206, Note_on_c, 4, 72, 0
5, 24207, Note_on_c, 4, 76, 0
5, 24224, Note_on_c, 4, 72, 28
5, 24224, Note_on_c, 4, 76, 35
5, 24239, Note_on_c, 4, 76, 0
5, 24239, Note_on_c, 4, 72, 0
5, 24256, Note_on_c, 4, 72, 28
5, 24256, Note_on_c, 4, 76, 43
5, 24270, Note_on_c, 4, 72, 0
5, 24272, Note_on_c, 4, 76, 0
5, 24288, Note_on_c, 4, 72, 32
5, 24288, Note_on_c, 4, 76, 51
5, 24303, Note_on_c, 4, 72, 0
5, 24305, Note_on_c, 4, 76, 0
5, 24320, Note_on_c, 4, 72, 32
5, 24320, Note_on_c, 4, 76, 51
5, 24334, Note_on_c, 4, 76, 0
5, 24334, Note_on_c, 4, 72, 0
5, 24352, Note_on_c, 4, 76, 51
5, 24352, Note_on_c, 4, 72, 35
5, 24368, Note_on_c, 4, 72, 0
5, 24368, Note_on_c, 4, 76, 0
5, 24384, Note_on_c, 4, 76, 51
5, 24384, Note_on_c, 4, 72, 39
5, 24398, Note_on_c, 4, 72, 0
5, 24400, Note_on_c, 4, 76, 0
5, 24416, Note_on_c, 4, 72, 32
5, 24416, Note_on_c, 4, 76, 51
5, 24431, Note_on_c, 4, 76, 0
5, 24431, Note_on_c, 4, 72, 0
5, 24448, Note_on_c, 4, 72, 30
5, 24448, Note_on_c, 4, 76, 51
5, 24462, Note_on_c, 4, 72, 0
5, 24464, Note_on_c, 4, 76, 0
5, 24480, Note_on_c, 4, 72, 43
5, 24480, Note_on_c, 4, 76, 51
5, 24492, Note_on_c, 4, 72, 0
5, 24494, Note_on_c, 4, 76, 0
5, 24512, Note_on_c, 4, 72, 43
5, 24512, Note_on_c, 4, 76, 51
5, 24524, Note_on_c, 4, 76, 0
5, 24524, Note_on_c, 4, 72, 0
5, 24544, Note_on_c, 4, 76, 51
5, 24544, Note_on_c, 4, 72, 51
5, 24553, Note_on_c, 4, 72, 0
5, 24554, Note_on_c, 4, 76, 0
5, 24576, Note_on_c, 4, 72, 39
5, 24576, Note_on_c, 4, 77, 39
5, 24576, Note_on_c, 4, 81, 47
5, 24587, Note_on_c, 4, 77, 0
5, 24588, Note_on_c, 4, 81, 0
5, 24590, Note_on_c, 4, 72, 0
5, 24608, Note_on_c, 4, 81, 39
5, 24608, Note_on_c, 4, 77, 35
5, 24608, Note_on_c, 4, 72, 25
5, 24619, Note_on_c, 4, 81, 0
5, 24620, Note_on_c, 4, 72, 0
5, 24620, Note_on_c, 4, 77, 0
5, 24640, Note_on_c, 4, 77, 47
5, 24640, Note_on_c, 4, 72, 32
5, 24640, Note_on_c, 4, 81, 51
5, 24650, Note_on_c, 4, 77, 0
5, 24651, Note_on_c, 4, 72, 0
5, 24653, Note_on_c, 4, 81, 0
5, 24672, Note_on_c, 4, 81, 51
5, 24672, Note_on_c, 4, 72, 43
5, 24672, Note_on_c, 4, 77, 51
5, 24684, Note_on_c, 4, 77, 0
5, 24684, Note_on_c, 4, 72, 0
5, 24686, Note_on_c, 4, 81, 0
5, 24704, Note_on_c, 4, 81, 51
5, 24704, Note_on_c, 4, 72, 43
5, 24704, Note_on_c, 4, 77, 51
5, 24714, Note_on_c, 4, 77, 0
5, 24715, Note_on_c, 4, 72, 0
5, 24716, Note_on_c, 4, 81, 0
5, 24736, Note_on_c, 4, 81, 51
5, 24736, Note_on_c, 4, 72, 39
5, 24736, Note_on_c, 4, 77, 51
5, 24747, Note_on_c, 4, 77, 0
5, 24748, Note_on_c, 4, 72, 0
5, 24749, Note_on_c, 4, 81, 0
5, 24768, Note_on_c, 4, 77, 51
5, 24768, Note_on_c, 4, 72, 35
5, 24768, Note_on_c, 4, 81, 51
5, 24778, Note_on_c, 4, 77, 0
5, 24780, Note_on_c, 4, 72, 0
5, 24781, Note_on_c, 4, 81, 0
5, 24800, Note_on_c, 4, 77, 51
5, 24800, Note_on_c, 4, 72, 35
5, 24800, Note_on_c, 4, 81, 51
5, 24810, Note_on_c, 4, 77, 0
5, 24811, Note_on_c, 4, 72, 0
5, 24814, Note_on_c, 4, 81, 0
5, 24832, Note_on_c, 4, 72, 39
5, 24832, Note_on_c, 4, 81, 51
5, 24832, Note_on_c, 4, 77, 51
5, 24844, Note_on_c, 4, 77, 0
5, 24844, Note_on_c, 4, 72, 0
5, 24846, Note_on_c, 4, 81, 0
5, 24864, Note_on_c, 4, 72, 51
5, 24864, Note_on_c, 4, 81, 51
5, 24864, Note_on_c, 4, 77, 51
5, 24875, Note_on_c, 4, 77, 0
5, 24875, Note_on_c, 4, 72, 0
5, 24877, Note_on_c, 4, 81, 0
5, 24896, Note_on_c, 4, 77, 51
5, 24896, Note_on_c, 4, 81, 51
5, 24896, Note_on_c, 4, 72, 51
5, 24905, Note_on_c, 4, 77, 0
5, 24906, Note_on_c, 4, 81, 0
5, 24907, Note_on_c, 4, 72, 0
5, 24928, Note_on_c, 4, 77, 51
5, 24928, Note_on_c, 4, 81, 51
5, 24928, Note_on_c, 4, 72, 47
5, 24938, Note_on_c, 4, 72, 0
5, 24938, Note_on_c, 4, 81, 0
5, 24938, Note_on_c, 4, 77, 0
5, 24960, Note_on_c, 4, 29, 51
5, 24960, Note_on_c, 4, 41, 51
5, 24982, Note_on_c, 4, 41, 0
5, 24983, Note_on_c, 4, 29, 0
5, 25056, Note_on_c, 4, 44, 51
5, 25056, Note_on_c, 4, 53, 51
5, 25056, Note_on_c, 4, 47, 51
5, 25056, Note_on_c, 4, 37, 51
5, 25096, Note_on_c, 4, 47, 0
5, 25099, Note_on_c, 4, 53, 0
5, 25104, Note_on_c, 4, 44, 0
5, 25105, Note_on_c, 4, 37, 0
5, 25152, Note_on_c, 4, 54, 51
5, 25152, Note_on_c, 4, 51, 51
5, 25152, Note_on_c, 4, 37, 51
5, 25206, Note_on_c, 4, 54, 0
5, 25207, Note_on_c, 4, 51, 0
5, 25221, Note_on_c, 4, 37, 0
5, 25248, Note_on_c, 4, 56, 51
5, 25248, Note_on_c, 4, 53, 51
5, 25248, Note_on_c, 4, 37, 51
5, 25313, Note_on_c, 4, 53, 0
5, 25314, Note_on_c, 4, 56, 0
5, 25316, Note_on_c, 4, 37, 0
5, 25344, Note_on_c, 4, 82, 51
5, 25344, Note_on_c, 4, 73, 51
5, 25344, Note_on_c, 4, 78, 51
5, 25353, Note_on_c, 4, 78, 0
5, 25354, Note_on_c, 4, 73, 0
5, 25354, Note_on_c, 4, 82, 0
5, 25376, Note_on_c, 4, 78, 51
5, 25376, Note_on_c, 4, 73, 39
5, 25376, Note_on_c, 4, 82, 51
5, 25386, Note_on_c, 4, 78, 0
5, 25387, Note_on_c, 4, 82, 0
5, 25387, Note_on_c, 4, 73, 0
5, 25408, Note_on_c, 4, 73, 43
5, 25408, Note_on_c, 4, 78, 51
5, 25408, Note_on_c, 4, 82, 51
5, 25417, Note_on_c, 4, 78, 0
5, 25418, Note_on_c, 4, 82, 0
5, 25418, Note_on_c, 4, 73, 0
5, 25440, Note_on_c, 4, 82, 51
5, 25440, Note_on_c, 4, 73, 51
5, 25440, Note_on_c, 4, 78, 51
5, 25450, Note_on_c, 4, 78, 0
5, 25450, Note_on_c, 4, 73, 0
5, 25452, Note_on_c, 4, 82, 0
5, 25472, Note_on_c, 4, 73, 47
5, 25472, Note_on_c, 4, 82, 51
5, 25472, Note_on_c, 4, 78, 51
5, 25481, Note_on_c, 4, 78, 0
5, 25482, Note_on_c, 4, 73, 0
5, 25483, Note_on_c, 4, 82, 0
5, 25504, Note_on_c, 4, 82, 51
5, 25504, Note_on_c, 4, 73, 47
5, 25504, Note_on_c, 4, 78, 51
5, 25513, Note_on_c, 4, 78, 0
5, 25513, Note_on_c, 4, 73, 0
5, 25515, Note_on_c, 4, 82, 0
5, 25536, Note_on_c, 4, 82, 51
5, 25536, Note_on_c, 4, 73, 47
5, 25536, Note_on_c, 4, 78, 51
5, 25546, Note_on_c, 4, 78, 0
5, 25546, Note_on_c, 4, 73, 0
5, 25548, Note_on_c, 4, 82, 0
5, 25568, Note_on_c, 4, 73, 43
5, 25568, Note_on_c, 4, 82, 51
5, 25568, Note_on_c, 4, 78, 51
5, 25576, Note_on_c, 4, 78, 0
5, 25578, Note_on_c, 4, 82, 0
5, 25578, Note_on_c, 4, 73, 0
5, 25600, Note_on_c, 4, 78, 51
5, 25600, Note_on_c, 4, 82, 51
5, 25600, Note_on_c, 4, 73, 47
5, 25609, Note_on_c, 4, 78, 0
5, 25610, Note_on_c, 4, 73, 0
5, 25611, Note_on_c, 4, 82, 0
5, 25632, Note_on_c, 4, 78, 51
5, 25632, Note_on_c, 4, 73, 51
5, 25632, Note_on_c, 4, 82, 51
5, 25642, Note_on_c, 4, 73, 0
5, 25642, Note_on_c, 4, 78, 0
5, 25644, Note_on_c, 4, 82, 0
5, 25664, Note_on_c, 4, 78, 51
5, 25664, Note_on_c, 4, 73, 47
5, 25664, Note_on_c, 4, 82, 51
5, 25674, Note_on_c, 4, 73, 0
5, 25674, Note_on_c, 4, 78, 0
5, 25676, Note_on_c, 4, 82, 0
5, 25696, Note_on_c, 4, 78, 51
5, 25696, Note_on_c, 4, 82, 51
5, 25696, Note_on_c, 4, 73, 39
5, 25705, Note_on_c, 4, 78, 0
5, 25706, Note_on_c, 4, 73, 0
5, 25708, Note_on_c, 4, 82, 0
5, 25728, Note_on_c, 4, 78, 51
5, 25728, Note_on_c, 4, 73, 51
5, 25728, Note_on_c, 4, 82, 51
5, 25737, Note_on_c, 4, 78, 0
5, 25738, Note_on_c, 4, 73, 0
5, 25740, Note_on_c, 4, 82, 0
5, 25760, Note_on_c, 4, 82, 51
5, 25760, Note_on_c, 4, 78, 51
5, 25760, Note_on_c, 4, 73, 39
5, 25769, Note_on_c, 4, 78, 0
5, 25770, Note_on_c, 4, 73, 0
5, 25772, Note_on_c, 4, 82, 0
5, 25792, Note_on_c, 4, 73, 32
5, 25792, Note_on_c, 4, 82, 51
5, 25792, Note_on_c, 4, 78, 51
5, 25802, Note_on_c, 4, 78, 0
5, 25802, Note_on_c, 4, 73, 0
5, 25803, Note_on_c, 4, 82, 0
5, 25824, Note_on_c, 4, 82, 51
5, 25824, Note_on_c, 4, 73, 43
5, 25824, Note_on_c, 4, 78, 51
5, 25835, Note_on_c, 4, 78, 0
5, 25835, Note_on_c, 4, 73, 0
5, 25836, Note_on_c, 4, 82, 0
5, 25856, Note_on_c, 4, 82, 51
5, 25856, Note_on_c, 4, 73, 43
5, 25856, Note_on_c, 4, 78, 51
5, 25867, Note_on_c, 4, 78, 0
5, 25868, Note_on_c, 4, 73, 0
5, 25870, Note_on_c, 4, 82, 0
5, 25888, Note_on_c, 4, 82, 51
5, 25888, Note_on_c, 4, 73, 47
5, 25888, Note_on_c, 4, 78, 51
5, 25899, Note_on_c, 4, 78, 0
5, 25900, Note_on_c, 4, 73, 0
5, 25900, Note_on_c, 4, 82, 0
5, 25920, Note_on_c, 4, 73, 51
5, 25920, Note_on_c, 4, 78, 51
5, 25920, Note_on_c, 4, 82, 51
5, 25931, Note_on_c, 4, 78, 0
5, 25931, Note_on_c, 4, 73, 0
5, 25932, Note_on_c, 4, 82, 0
5, 25952, Note_on_c, 4, 82, 51
5, 25952, Note_on_c, 4, 78, 51
5, 25952, Note_on_c, 4, 73, 32
5, 25963, Note_on_c, 4, 73, 0
5, 25963, Note_on_c, 4, 78, 0
5, 25964, Note_on_c, 4, 82, 0
5, 25984, Note_on_c, 4, 78, 51
5, 25984, Note_on_c, 4, 82, 51
5, 25984, Note_on_c, 4, 73, 30
5, 25995, Note_on_c, 4, 73, 0
5, 25996, Note_on_c, 4, 82, 0
5, 25996, Note_on_c, 4, 78, 0
5, 26016, Note_on_c, 4, 82, 51
5, 26016, Note_on_c, 4, 78, 51
5, 26016, Note_on_c, 4, 73, 39
5, 26027, Note_on_c, 4, 73, 0
5, 26028, Note_on_c, 4, 78, 0
5, 26030, Note_on_c, 4, 82, 0
5, 26048, Note_on_c, 4, 73, 30
5, 26048, Note_on_c, 4, 82, 51
5, 26048, Note_on_c, 4, 78, 51
5, 26058, Note_on_c, 4, 73, 0
5, 26059, Note_on_c, 4, 78, 0
5, 26060, Note_on_c, 4, 82, 0
5, 26080, Note_on_c, 4, 82, 51
5, 26080, Note_on_c, 4, 78, 51
5, 26080, Note_on_c, 4, 73, 47
5, 26091, Note_on_c, 4, 78, 0
5, 26092, Note_on_c, 4, 73, 0
5, 26093, Note_on_c, 4, 82, 0
5, 26112, Note_on_c, 4, 77, 51
5, 26112, Note_on_c, 4, 82, 51
5, 26112, Note_on_c, 4, 74, 51
5, 26122, Note_on_c, 4, 74, 0
5, 26123, Note_on_c, 4, 77, 0
5, 26124, Note_on_c, 4, 82, 0
5, 26144, Note_on_c, 4, 77, 51
5, 26144, Note_on_c, 4, 82, 51
5, 26144, Note_on_c, 4, 74, 35
5, 26153, Note_on_c, 4, 74, 0
5, 26154, Note_on_c, 4, 82, 0
5, 26155, Note_on_c, 4, 77, 0
5, 26176, Note_on_c, 4, 82, 51
5, 26176, Note_on_c, 4, 77, 51
5, 26176, Note_on_c, 4, 74, 28
5, 26185, Note_on_c, 4, 74, 0
5, 26186, Note_on_c, 4, 77, 0
5, 26187, Note_on_c, 4, 82, 0
5, 26208, Note_on_c, 4, 82, 51
5, 26208, Note_on_c, 4, 77, 51
5, 26208, Note_on_c, 4, 74, 47
5, 26216, Note_on_c, 4, 74, 0
5, 26218, Note_on_c, 4, 77, 0
5, 26219, Note_on_c, 4, 82, 0
5, 26240, Note_on_c, 4, 77, 51
5, 26240, Note_on_c, 4, 74, 27
5, 26240, Note_on_c, 4, 82, 51
5, 26247, Note_on_c, 4, 74, 0
5, 26250, Note_on_c, 4, 82, 0
5, 26250, Note_on_c, 4, 77, 0
5, 26272, Note_on_c, 4, 74, 39
5, 26272, Note_on_c, 4, 77, 51
5, 26272, Note_on_c, 4, 82, 51
5, 26281, Note_on_c, 4, 74, 0
5, 26282, Note_on_c, 4, 82, 0
5, 26282, Note_on_c, 4, 77, 0
5, 26304, Note_on_c, 4, 77, 51
5, 26304, Note_on_c, 4, 74, 35
5, 26304, Note_on_c, 4, 82, 51
5, 26313, Note_on_c, 4, 74, 0
5, 26314, Note_on_c, 4, 82, 0
5, 26314, Note_on_c, 4, 77, 0
5, 26336, Note_on_c, 4, 74, 35
5, 26336, Note_on_c, 4, 77, 51
5, 26336, Note_on_c, 4, 82, 51
5, 26345, Note_on_c, 4, 77, 0
5, 26345, Note_on_c, 4, 74, 0
5, 26346, Note_on_c, 4, 82, 0
5, 26368, Note_on_c, 4, 77, 51
5, 26368, Note_on_c, 4, 74, 43
5, 26368, Note_on_c, 4, 82, 51
5, 26377, Note_on_c, 4, 82, 0
5, 26377, Note_on_c, 4, 74, 0
5, 26377, Note_on_c, 4, 77, 0
5, 26400, Note_on_c, 4, 77, 51
5, 26400, Note_on_c, 4, 82, 51
5, 26400, Note_on_c, 4, 74, 35
5, 26409, Note_on_c, 4, 74, 0
5, 26410, Note_on_c, 4, 82, 0
5, 26410, Note_on_c, 4, 77, 0
5, 26432, Note_on_c, 4, 74, 35
5, 26432, Note_on_c, 4, 82, 51
5, 26432, Note_on_c, 4, 77, 51
5, 26441, Note_on_c, 4, 77, 0
5, 26441, Note_on_c, 4, 74, 0
5, 26443, Note_on_c, 4, 82, 0
5, 26464, Note_on_c, 4, 82, 51
5, 26464, Note_on_c, 4, 74, 43
5, 26464, Note_on_c, 4, 77, 51
5, 26473, Note_on_c, 4, 74, 0
5, 26474, Note_on_c, 4, 77, 0
5, 26474, Note_on_c, 4, 82, 0
5, 26496, Note_on_c, 4, 74, 39
5, 26496, Note_on_c, 4, 77, 51
5, 26496, Note_on_c, 4, 82, 51
5, 26505, Note_on_c, 4, 77, 0
5, 26505, Note_on_c, 4, 74, 0
5, 26507, Note_on_c, 4, 82, 0
5, 26528, Note_on_c, 4, 77, 51
5, 26528, Note_on_c, 4, 82, 51
5, 26528, Note_on_c, 4, 74, 39
5, 26537, Note_on_c, 4, 74, 0
5, 26538, Note_on_c, 4, 77, 0
5, 26539, Note_on_c, 4, 82, 0
5, 26560, Note_on_c, 4, 82, 51
5, 26560, Note_on_c, 4, 74, 39
5, 26560, Note_on_c, 4, 77, 51
5, 26568, Note_on_c, 4, 74, 0
5, 26569, Note_on_c, 4, 77, 0
5, 26569, Note_on_c, 4, 82, 0
5, 26592, Note_on_c, 4, 74, 51
5, 26592, Note_on_c, 4, 82, 51
5, 26592, Note_on_c, 4, 77, 51
5, 26601, Note_on_c, 4, 74, 0
5, 26602, Note_on_c, 4, 77, 0
5, 26602, Note_on_c, 4, 82, 0
5, 26624, Note_on_c, 4, 77, 51
5, 26624, Note_on_c, 4, 82, 51
5, 26624, Note_on_c, 4, 74, 43
5, 26633, Note_on_c, 4, 74, 0
5, 26633, Note_on_c, 4, 77, 0
5, 26634, Note_on_c, 4, 82, 0
5, 26656, Note_on_c, 4, 77, 51
5, 26656, Note_on_c, 4, 82, 51
5, 26656, Note_on_c, 4, 74, 43
5, 26664, Note_on_c, 4, 74, 0
5, 26665, Note_on_c, 4, 77, 0
5, 26666, Note_on_c, 4, 82, 0
5, 26688, Note_on_c, 4, 74, 51
5, 26688, Note_on_c, 4, 77, 51
5, 26688, Note_on_c, 4, 82, 51
5, 26697, Note_on_c, 4, 74, 0
5, 26698, Note_on_c, 4, 82, 0
5, 26698, Note_on_c, 4, 77, 0
5, 26720, Note_on_c, 4, 74, 39
5, 26720, Note_on_c, 4, 77, 51
5, 26720, Note_on_c, 4, 82, 51
5, 26728, Note_on_c, 4, 74, 0
5, 26729, Note_on_c, 4, 77, 0
5, 26730, Note_on_c, 4, 82, 0
5, 26752, Note_on_c, 4, 74, 39
5, 26752, Note_on_c, 4, 82, 51
5, 26752, Note_on_c, 4, 77, 51
5, 26760, Note_on_c, 4, 74, 0
5, 26761, Note_on_c, 4, 77, 0
5, 26763, Note_on_c, 4, 82, 0
5, 26784, Note_on_c, 4, 74, 39
5, 26784, Note_on_c, 4, 77, 51
5, 26784, Note_on_c, 4, 82, 51
5, 26792, Note_on_c, 4, 82, 0
5, 26793, Note_on_c, 4, 74, 0
5, 26794, Note_on_c, 4, 77, 0
5, 26816, Note_on_c, 4, 74, 28
5, 26816, Note_on_c, 4, 77, 51
5, 26816, Note_on_c, 4, 82, 51
5, 26825, Note_on_c, 4, 77, 0
5, 26825, Note_on_c, 4, 74, 0
5, 26826, Note_on_c, 4, 82, 0
5, 26848, Note_on_c, 4, 82, 51
5, 26848, Note_on_c, 4, 74, 51
5, 26848, Note_on_c, 4, 77, 51
5, 26856, Note_on_c, 4, 77, 0
5, 26858, Note_on_c, 4, 74, 0
5, 26858, Note_on_c, 4, 82, 0
5, 26880, Note_on_c, 4, 82, 51
5, 26880, Note_on_c, 4, 79, 51
5, 26880, Note_on_c, 4, 73, 16
5, 26888, Note_on_c, 4, 73, 0
5, 26891, Note_on_c, 4, 79, 0
5, 26894, Note_on_c, 4, 82, 0
5, 26912, Note_on_c, 4, 73, 47
5, 26912, Note_on_c, 4, 82, 51
5, 26912, Note_on_c, 4, 79, 43
5, 26920, Note_on_c, 4, 79, 0
5, 26922, Note_on_c, 4, 73, 0
5, 26923, Note_on_c, 4, 82, 0
5, 26944, Note_on_c, 4, 79, 51
5, 26944, Note_on_c, 4, 73, 43
5, 26944, Note_on_c, 4, 82, 51
5, 26954, Note_on_c, 4, 73, 0
5, 26954, Note_on_c, 4, 79, 0
5, 26956, Note_on_c, 4, 82, 0
5, 26976, Note_on_c, 4, 79, 51
5, 26976, Note_on_c, 4, 82, 51
5, 26976, Note_on_c, 4, 73, 51
5, 26985, Note_on_c, 4, 79, 0
5, 26986, Note_on_c, 4, 73, 0
5, 26988, Note_on_c, 4, 82, 0
5, 27008, Note_on_c, 4, 82, 51
5, 27008, Note_on_c, 4, 73, 35
5, 27008, Note_on_c, 4, 79, 43
5, 27017, Note_on_c, 4, 79, 0
5, 27018, Note_on_c, 4, 73, 0
5, 27020, Note_on_c, 4, 82, 0
5, 27040, Note_on_c, 4, 82, 51
5, 27040, Note_on_c, 4, 73, 35
5, 27040, Note_on_c, 4, 79, 35
5, 27048, Note_on_c, 4, 79, 0
5, 27049, Note_on_c, 4, 73, 0
5, 27051, Note_on_c, 4, 82, 0
5, 27072, Note_on_c, 4, 79, 51
5, 27072, Note_on_c, 4, 82, 51
5, 27072, Note_on_c, 4, 73, 51
5, 27082, Note_on_c, 4, 73, 0
5, 27082, Note_on_c, 4, 79, 0
5, 27084, Note_on_c, 4, 82, 0
5, 27104, Note_on_c, 4, 82, 51
5, 27104, Note_on_c, 4, 73, 32
5, 27104, Note_on_c, 4, 79, 39
5, 27113, Note_on_c, 4, 79, 0
5, 27113, Note_on_c, 4, 73, 0
5, 27116, Note_on_c, 4, 82, 0
5, 27136, Note_on_c, 4, 73, 43
5, 27136, Note_on_c, 4, 79, 47
5, 27136, Note_on_c, 4, 82, 43
5, 27146, Note_on_c, 4, 79, 0
5, 27146, Note_on_c, 4, 73, 0
5, 27147, Note_on_c, 4, 82, 0
5, 27168, Note_on_c, 4, 82, 51
5, 27168, Note_on_c, 4, 73, 51
5, 27168, Note_on_c, 4, 79, 51
5, 27178, Note_on_c, 4, 73, 0
5, 27179, Note_on_c, 4, 79, 0
5, 27180, Note_on_c, 4, 82, 0
5, 27200, Note_on_c, 4, 73, 43
5, 27200, Note_on_c, 4, 79, 47
5, 27200, Note_on_c, 4, 82, 51
5, 27209, Note_on_c, 4, 79, 0
5, 27210, Note_on_c, 4, 73, 0
5, 27211, Note_on_c, 4, 82, 0
5, 27232, Note_on_c, 4, 82, 51
5, 27232, Note_on_c, 4, 79, 51
5, 27232, Note_on_c, 4, 73, 43
5, 27241, Note_on_c, 4, 73, 0
5, 27242, Note_on_c, 4, 79, 0
5, 27243, Note_on_c, 4, 82, 0
5, 27264, Note_on_c, 4, 82, 51
5, 27264, Note_on_c, 4, 73, 51
5, 27264, Note_on_c, 4, 79, 51
5, 27274, Note_on_c, 4, 73, 0
5, 27275, Note_on_c, 4, 79, 0
5, 27277, Note_on_c, 4, 82, 0
5, 27296, Note_on_c, 4, 82, 43
5, 27296, Note_on_c, 4, 73, 35
5, 27296, Note_on_c, 4, 79, 39
5, 27305, Note_on_c, 4, 73, 0
5, 27306, Note_on_c, 4, 79, 0
5, 27307, Note_on_c, 4, 82, 0
5, 27328, Note_on_c, 4, 82, 51
5, 27328, Note_on_c, 4, 79, 51
5, 27328, Note_on_c, 4, 73, 47
5, 27337, Note_on_c, 4, 73, 0
5, 27338, Note_on_c, 4, 79, 0
5, 27338, Note_on_c, 4, 82, 0
5, 27360, Note_on_c, 4, 82, 51
5, 27360, Note_on_c, 4, 79, 51
5, 27360, Note_on_c, 4, 73, 47
5, 27369, Note_on_c, 4, 73, 0
5, 27370, Note_on_c, 4, 79, 0
5, 27372, Note_on_c, 4, 82, 0
5, 27392, Note_on_c, 4, 82, 47
5, 27392, Note_on_c, 4, 73, 35
5, 27392, Note_on_c, 4, 79, 39
5, 27401, Note_on_c, 4, 79, 0
5, 27402, Note_on_c, 4, 73, 0
5, 27404, Note_on_c, 4, 82, 0
5, 27424, Note_on_c, 4, 79, 51
5, 27424, Note_on_c, 4, 82, 51
5, 27424, Note_on_c, 4, 73, 51
5, 27432, Note_on_c, 4, 79, 0
5, 27434, Note_on_c, 4, 73, 0
5, 27435, Note_on_c, 4, 82, 0
5, 27456, Note_on_c, 4, 82, 51
5, 27456, Note_on_c, 4, 79, 39
5, 27456, Note_on_c, 4, 73, 39
5, 27466, Note_on_c, 4, 73, 0
5, 27466, Note_on_c, 4, 79, 0
5, 27468, Note_on_c, 4, 82, 0
5, 27488, Note_on_c, 4, 82, 51
5, 27488, Note_on_c, 4, 73, 30
5, 27488, Note_on_c, 4, 79, 43
5, 27497, Note_on_c, 4, 73, 0
5, 27499, Note_on_c, 4, 79, 0
5, 27500, Note_on_c, 4, 82, 0
5, 27520, Note_on_c, 4, 79, 43
5, 27520, Note_on_c, 4, 82, 51
5, 27520, Note_on_c, 4, 73, 35
5, 27528, Note_on_c, 4, 79, 0
5, 27529, Note_on_c, 4, 73, 0
5, 27533, Note_on_c, 4, 82, 0
5, 27552, Note_on_c, 4, 82, 51
5, 27552, Note_on_c, 4, 79, 51
5, 27552, Note_on_c, 4, 73, 35
5, 27560, Note_on_c, 4, 73, 0
5, 27563, Note_on_c, 4, 79, 0
5, 27563, Note_on_c, 4, 82, 0
5, 27584, Note_on_c, 4, 79, 51
5, 27584, Note_on_c, 4, 73, 47
5, 27584, Note_on_c, 4, 82, 51
5, 27593, Note_on_c, 4, 73, 0
5, 27593, Note_on_c, 4, 79, 0
5, 27597, Note_on_c, 4, 82, 0
5, 27616, Note_on_c, 4, 82, 51
5, 27616, Note_on_c, 4, 79, 47
5, 27616, Note_on_c, 4, 73, 47
5, 27622, Note_on_c, 4, 73, 0
5, 27623, Note_on_c, 4, 79, 0
5, 27626, Note_on_c, 4, 82, 0
5, 27648, Note_on_c, 4, 80, 51
5, 27648, Note_on_c, 4, 71, 39
5, 27648, Note_on_c, 4, 75, 51
5, 27660, Note_on_c, 4, 75, 0
5, 27661, Note_on_c, 4, 71, 0
5, 27662, Note_on_c, 4, 80, 0
5, 27680, Note_on_c, 4, 71, 32
5, 27680, Note_on_c, 4, 75, 35
5, 27680, Note_on_c, 4, 80, 51
5, 27692, Note_on_c, 4, 75, 0
5, 27693, Note_on_c, 4, 71, 0
5, 27694, Note_on_c, 4, 80, 0
5, 27712, Note_on_c, 4, 80, 51
5, 27712, Note_on_c, 4, 71, 35
5, 27712, Note_on_c, 4, 75, 39
5, 27723, Note_on_c, 4, 75, 0
5, 27725, Note_on_c, 4, 71, 0
5, 27726, Note_on_c, 4, 80, 0
5, 27744, Note_on_c, 4, 80, 51
5, 27744, Note_on_c, 4, 75, 51
5, 27744, Note_on_c, 4, 71, 43
5, 27755, Note_on_c, 4, 75, 0
5, 27756, Note_on_c, 4, 71, 0
5, 27759, Note_on_c, 4, 80, 0
5, 27776, Note_on_c, 4, 75, 47
5, 27776, Note_on_c, 4, 80, 43
5, 27776, Note_on_c, 4, 71, 35
5, 27787, Note_on_c, 4, 75, 0
5, 27788, Note_on_c, 4, 71, 0
5, 27792, Note_on_c, 4, 80, 0
5, 27808, Note_on_c, 4, 80, 43
5, 27808, Note_on_c, 4, 75, 51
5, 27808, Note_on_c, 4, 71, 39
5, 27819, Note_on_c, 4, 71, 0
5, 27820, Note_on_c, 4, 75, 0
5, 27824, Note_on_c, 4, 80, 0
5, 27840, Note_on_c, 4, 70, 27
5, 27840, Note_on_c, 4, 75, 39
5, 27840, Note_on_c, 4, 79, 51
5, 27850, Note_on_c, 4, 70, 0
5, 27851, Note_on_c, 4, 75, 0
5, 27857, Note_on_c, 4, 79, 0
5, 27872, Note_on_c, 4, 79, 47
5, 27872, Note_on_c, 4, 70, 30
5, 27872, Note_on_c, 4, 75, 32
5, 27880, Note_on_c, 4, 75, 0
5, 27884, Note_on_c, 4, 70, 0
5, 27886, Note_on_c, 4, 79, 0
5, 27904, Note_on_c, 4, 70, 35
5, 27904, Note_on_c, 4, 79, 51
5, 27904, Note_on_c, 4, 75, 43
5, 27914, Note_on_c, 4, 75, 0
5, 27915, Note_on_c, 4, 70, 0
5, 27916, Note_on_c, 4, 79, 0
5, 27936, Note_on_c, 4, 70, 39
5, 27936, Note_on_c, 4, 79, 51
5, 27936, Note_on_c, 4, 75, 43
5, 27946, Note_on_c, 4, 75, 0
5, 27949, Note_on_c, 4, 70, 0
5, 27950, Note_on_c, 4, 79, 0
5, 27968, Note_on_c, 4, 79, 51
5, 27968, Note_on_c, 4, 70, 39
5, 27968, Note_on_c, 4, 75, 43
5, 27977, Note_on_c, 4, 75, 0
5, 27979, Note_on_c, 4, 70, 0
5, 27981, Note_on_c, 4, 79, 0
5, 28000, Note_on_c, 4, 70, 43
5, 28000, Note_on_c, 4, 75, 32
5, 28000, Note_on_c, 4, 79, 51
5, 28010, Note_on_c, 4, 75, 0
5, 28013, Note_on_c, 4, 79, 0
5, 28013, Note_on_c, 4, 70, 0
5, 28032, Note_on_c, 4, 75, 51
5, 28032, Note_on_c, 4, 80, 51
5, 28032, Note_on_c, 4, 71, 28
5, 28040, Note_on_c, 4, 71, 0
5, 28045, Note_on_c, 4, 75, 0
5, 28047, Note_on_c, 4, 80, 0
5, 28064, Note_on_c, 4, 75, 43
5, 28064, Note_on_c, 4, 71, 35
5, 28064, Note_on_c, 4, 80, 43
5, 28073, Note_on_c, 4, 80, 0
5, 28074, Note_on_c, 4, 75, 0
5, 28076, Note_on_c, 4, 71, 0
5, 28096, Note_on_c, 4, 80, 51
5, 28096, Note_on_c, 4, 71, 43
5, 28096, Note_on_c, 4, 75, 51
5, 28105, Note_on_c, 4, 75, 0
5, 28106, Note_on_c, 4, 71, 0
5, 28108, Note_on_c, 4, 80, 0
5, 28128, Note_on_c, 4, 75, 51
5, 28128, Note_on_c, 4, 80, 51
5, 28128, Note_on_c, 4, 71, 43
5, 28138, Note_on_c, 4, 75, 0
5, 28139, Note_on_c, 4, 71, 0
5, 28142, Note_on_c, 4, 80, 0
5, 28160, Note_on_c, 4, 80, 51
5, 28160, Note_on_c, 4, 71, 35
5, 28160, Note_on_c, 4, 75, 51
5, 28170, Note_on_c, 4, 75, 0
5, 28171, Note_on_c, 4, 71, 0
5, 28172, Note_on_c, 4, 80, 0
5, 28192, Note_on_c, 4, 80, 51
5, 28192, Note_on_c, 4, 75, 51
5, 28192, Note_on_c, 4, 71, 39
5, 28202, Note_on_c, 4, 75, 0
5, 28203, Note_on_c, 4, 71, 0
5, 28204, Note_on_c, 4, 80, 0
5, 28224, Note_on_c, 4, 75, 43
5, 28224, Note_on_c, 4, 80, 51
5, 28224, Note_on_c, 4, 71, 30
5, 28233, Note_on_c, 4, 75, 0
5, 28235, Note_on_c, 4, 71, 0
5, 28237, Note_on_c, 4, 80, 0
5, 28256, Note_on_c, 4, 75, 51
5, 28256, Note_on_c, 4, 80, 51
5, 28256, Note_on_c, 4, 71, 43
5, 28266, Note_on_c, 4, 75, 0
5, 28267, Note_on_c, 4, 71, 0
5, 28269, Note_on_c, 4, 80, 0
5, 28288, Note_on_c, 4, 71, 39
5, 28288, Note_on_c, 4, 75, 43
5, 28288, Note_on_c, 4, 80, 51
5, 28297, Note_on_c, 4, 75, 0
5, 28299, Note_on_c, 4, 71, 0
5, 28301, Note_on_c, 4, 80, 0
5, 28320, Note_on_c, 4, 71, 47
5, 28320, Note_on_c, 4, 75, 51
5, 28320, Note_on_c, 4, 80, 51
5, 28330, Note_on_c, 4, 75, 0
5, 28332, Note_on_c, 4, 71, 0
5, 28333, Note_on_c, 4, 80, 0
5, 28352, Note_on_c, 4, 80, 51
5, 28352, Note_on_c, 4, 71, 39
5, 28352, Note_on_c, 4, 75, 47
5, 28362, Note_on_c, 4, 75, 0
5, 28363, Note_on_c, 4, 71, 0
5, 28365, Note_on_c, 4, 80, 0
5, 28384, Note_on_c, 4, 71, 47
5, 28384, Note_on_c, 4, 75, 51
5, 28384, Note_on_c, 4, 80, 51
5, 28392, Note_on_c, 4, 80, 0
5, 28393, Note_on_c, 4, 75, 0
5, 28394, Note_on_c, 4, 71, 0
5, 28416, Note_on_c, 4, 71, 39
5, 28416, Note_on_c, 4, 75, 51
5, 28416, Note_on_c, 4, 78, 51
5, 28427, Note_on_c, 4, 75, 0
5, 28429, Note_on_c, 4, 71, 0
5, 28430, Note_on_c, 4, 78, 0
5, 28448, Note_on_c, 4, 71, 30
5, 28448, Note_on_c, 4, 75, 39
5, 28448, Note_on_c, 4, 78, 43
5, 28458, Note_on_c, 4, 75, 0
5, 28461, Note_on_c, 4, 78, 0
5, 28461, Note_on_c, 4, 71, 0
5, 28480, Note_on_c, 4, 71, 28
5, 28480, Note_on_c, 4, 78, 51
5, 28480, Note_on_c, 4, 75, 35
5, 28490, Note_on_c, 4, 75, 0
5, 28492, Note_on_c, 4, 78, 0
5, 28492, Note_on_c, 4, 71, 0
5, 28512, Note_on_c, 4, 71, 43
5, 28512, Note_on_c, 4, 78, 51
5, 28512, Note_on_c, 4, 75, 51
5, 28524, Note_on_c, 4, 75, 0
5, 28526, Note_on_c, 4, 78, 0
5, 28526, Note_on_c, 4, 71, 0
5, 28544, Note_on_c, 4, 75, 47
5, 28544, Note_on_c, 4, 71, 28
5, 28544, Note_on_c, 4, 78, 51
5, 28554, Note_on_c, 4, 75, 0
5, 28555, Note_on_c, 4, 71, 0
5, 28557, Note_on_c, 4, 78, 0
5, 28576, Note_on_c, 4, 71, 30
5, 28576, Note_on_c, 4, 75, 47
5, 28576, Note_on_c, 4, 78, 51
5, 28587, Note_on_c, 4, 75, 0
5, 28587, Note_on_c, 4, 71, 0
5, 28588, Note_on_c, 4, 78, 0
5, 28608, Note_on_c, 4, 75, 51
5, 28608, Note_on_c, 4, 78, 51
5, 28608, Note_on_c, 4, 71, 32
5, 28620, Note_on_c, 4, 71, 0
5, 28620, Note_on_c, 4, 75, 0
5, 28621, Note_on_c, 4, 78, 0
5, 28640, Note_on_c, 4, 75, 39
5, 28640, Note_on_c, 4, 71, 25
5, 28640, Note_on_c, 4, 78, 47
5, 28650, Note_on_c, 4, 75, 0
5, 28652, Note_on_c, 4, 78, 0
5, 28652, Note_on_c, 4, 71, 0
5, 28672, Note_on_c, 4, 71, 32
5, 28672, Note_on_c, 4, 78, 51
5, 28672, Note_on_c, 4, 75, 51
5, 28682, Note_on_c, 4, 75, 0
5, 28683, Note_on_c, 4, 71, 0
5, 28684, Note_on_c, 4, 78, 0
5, 28704, Note_on_c, 4, 75, 47
5, 28704, Note_on_c, 4, 71, 39
5, 28704, Note_on_c, 4, 78, 51
5, 28714, Note_on_c, 4, 75, 0
5, 28715, Note_on_c, 4, 71, 0
5, 28718, Note_on_c, 4, 78, 0
5, 28736, Note_on_c, 4, 71, 32
5, 28736, Note_on_c, 4, 78, 51
5, 28736, Note_on_c, 4, 75, 47
5, 28747, Note_on_c, 4, 75, 0
5, 28748, Note_on_c, 4, 78, 0
5, 28748, Note_on_c, 4, 71, 0
5, 28768, Note_on_c, 4, 75, 51
5, 28768, Note_on_c, 4, 78, 51
5, 28768, Note_on_c, 4, 71, 32
5, 28780, Note_on_c, 4, 71, 0
5, 28780, Note_on_c, 4, 75, 0
5, 28781, Note_on_c, 4, 78, 0
5, 28800, Note_on_c, 4, 74, 51
5, 28800, Note_on_c, 4, 71, 39
5, 28800, Note_on_c, 4, 78, 51
5, 28809, Note_on_c, 4, 71, 0
5, 28811, Note_on_c, 4, 78, 0
5, 28813, Note_on_c, 4, 74, 0
5, 28832, Note_on_c, 4, 71, 30
5, 28832, Note_on_c, 4, 78, 43
5, 28832, Note_on_c, 4, 74, 35
5, 28844, Note_on_c, 4, 74, 0
5, 28844, Note_on_c, 4, 78, 0
5, 28844, Note_on_c, 4, 71, 0
5, 28864, Note_on_c, 4, 74, 39
5, 28864, Note_on_c, 4, 71, 27
5, 28864, Note_on_c, 4, 78, 47
5, 28874, Note_on_c, 4, 71, 0
5, 28875, Note_on_c, 4, 78, 0
5, 28875, Note_on_c, 4, 74, 0
5, 28896, Note_on_c, 4, 74, 51
5, 28896, Note_on_c, 4, 71, 39
5, 28896, Note_on_c, 4, 78, 51
5, 28906, Note_on_c, 4, 71, 0
5, 28908, Note_on_c, 4, 74, 0
5, 28910, Note_on_c, 4, 78, 0
5, 28928, Note_on_c, 4, 78, 47
5, 28928, Note_on_c, 4, 74, 39
5, 28928, Note_on_c, 4, 71, 27
5, 28937, Note_on_c, 4, 71, 0
5, 28939, Note_on_c, 4, 74, 0
5, 28940, Note_on_c, 4, 78, 0
5, 28960, Note_on_c, 4, 71, 30
5, 28960, Note_on_c, 4, 74, 39
5, 28960, Note_on_c, 4, 78, 43
5, 28969, Note_on_c, 4, 71, 0
5, 28971, Note_on_c, 4, 74, 0
5, 28972, Note_on_c, 4, 78, 0
5, 28992, Note_on_c, 4, 78, 47
5, 28992, Note_on_c, 4, 74, 43
5, 28992, Note_on_c, 4, 71, 32
5, 29002, Note_on_c, 4, 71, 0
5, 29003, Note_on_c, 4, 74, 0
5, 29006, Note_on_c, 4, 78, 0
5, 29024, Note_on_c, 4, 74, 39
5, 29024, Note_on_c, 4, 78, 47
5, 29024, Note_on_c, 4, 71, 30
5, 29034, Note_on_c, 4, 71, 0
5, 29035, Note_on_c, 4, 74, 0
5, 29039, Note_on_c, 4, 78, 0
5, 29056, Note_on_c, 4, 71, 30
5, 29056, Note_on_c, 4, 74, 47
5, 29056, Note_on_c, 4, 78, 51
5, 29066, Note_on_c, 4, 71, 0
5, 29067, Note_on_c, 4, 74, 0
5, 29068, Note_on_c, 4, 78, 0
5, 29088, Note_on_c, 4, 78, 51
5, 29088, Note_on_c, 4, 74, 43
5, 29088, Note_on_c, 4, 71, 30
5, 29097, Note_on_c, 4, 71, 0
5, 29098, Note_on_c, 4, 74, 0
5, 29101, Note_on_c, 4, 78, 0
5, 29120, Note_on_c, 4, 74, 47
5, 29120, Note_on_c, 4, 78, 51
5, 29120, Note_on_c, 4, 71, 27
5, 29128, Note_on_c, 4, 71, 0
5, 29130, Note_on_c, 4, 74, 0
5, 29131, Note_on_c, 4, 78, 0
5, 29152, Note_on_c, 4, 74, 51
5, 29152, Note_on_c, 4, 71, 32
5, 29152, Note_on_c, 4, 78, 51
5, 29160, Note_on_c, 4, 71, 0
5, 29162, Note_on_c, 4, 74, 0
5, 29165, Note_on_c, 4, 78, 0
5, 29184, Note_on_c, 4, 70, 39
5, 29184, Note_on_c, 4, 78, 51
5, 29184, Note_on_c, 4, 73, 43
5, 29195, Note_on_c, 4, 73, 0
5, 29196, Note_on_c, 4, 70, 0
5, 29199, Note_on_c, 4, 78, 0
5, 29216, Note_on_c, 4, 73, 32
5, 29216, Note_on_c, 4, 70, 25
5, 29216, Note_on_c, 4, 78, 39
5, 29226, Note_on_c, 4, 73, 0
5, 29228, Note_on_c, 4, 70, 0
5, 29230, Note_on_c, 4, 78, 0
5, 29248, Note_on_c, 4, 78, 51
5, 29248, Note_on_c, 4, 73, 39
5, 29248, Note_on_c, 4, 70, 28
5, 29259, Note_on_c, 4, 70, 0
5, 29259, Note_on_c, 4, 73, 0
5, 29260, Note_on_c, 4, 78, 0
5, 29280, Note_on_c, 4, 70, 35
5, 29280, Note_on_c, 4, 73, 43
5, 29280, Note_on_c, 4, 78, 51
5, 29290, Note_on_c, 4, 73, 0
5, 29292, Note_on_c, 4, 70, 0
5, 29294, Note_on_c, 4, 78, 0
5, 29312, Note_on_c, 4, 78, 51
5, 29312, Note_on_c, 4, 70, 30
5, 29312, Note_on_c, 4, 73, 39
5, 29322, Note_on_c, 4, 73, 0
5, 29323, Note_on_c, 4, 70, 0
5, 29326, Note_on_c, 4, 78, 0
5, 29344, Note_on_c, 4, 78, 51
5, 29344, Note_on_c, 4, 70, 30
5, 29344, Note_on_c, 4, 73, 43
5, 29354, Note_on_c, 4, 73, 0
5, 29355, Note_on_c, 4, 70, 0
5, 29357, Note_on_c, 4, 78, 0
5, 29376, Note_on_c, 4, 73, 47
5, 29376, Note_on_c, 4, 78, 51
5, 29376, Note_on_c, 4, 70, 35
5, 29386, Note_on_c, 4, 73, 0
5, 29387, Note_on_c, 4, 70, 0
5, 29390, Note_on_c, 4, 78, 0
5, 29408, Note_on_c, 4, 78, 51
5, 29408, Note_on_c, 4, 73, 51
5, 29408, Note_on_c, 4, 70, 28
5, 29418, Note_on_c, 4, 73, 0
5, 29419, Note_on_c, 4, 70, 0
5, 29421, Note_on_c, 4, 78, 0
5, 29440, Note_on_c, 4, 73, 51
5, 29440, Note_on_c, 4, 78, 51
5, 29440, Note_on_c, 4, 70, 32
5, 29451, Note_on_c, 4, 70, 0
5, 29451, Note_on_c, 4, 73, 0
5, 29453, Note_on_c, 4, 78, 0
5, 29472, Note_on_c, 4, 73, 51
5, 29472, Note_on_c, 4, 78, 51
5, 29472, Note_on_c, 4, 70, 32
5, 29483, Note_on_c, 4, 70, 0
5, 29483, Note_on_c, 4, 73, 0
5, 29485, Note_on_c, 4, 78, 0
5, 29504, Note_on_c, 4, 78, 51
5, 29504, Note_on_c, 4, 70, 30
5, 29504, Note_on_c, 4, 73, 43
5, 29514, Note_on_c, 4, 73, 0
5, 29515, Note_on_c, 4, 70, 0
5, 29517, Note_on_c, 4, 78, 0
5, 29536, Note_on_c, 4, 78, 51
5, 29536, Note_on_c, 4, 73, 47
5, 29536, Note_on_c, 4, 70, 39
5, 29544, Note_on_c, 4, 73, 0
5, 29546, Note_on_c, 4, 70, 0
5, 29546, Note_on_c, 4, 78, 0
5, 29568, Control_c, 4, 7, 90
5, 29568, Note_on_c, 4, 73, 51
5, 29568, Note_on_c, 4, 79, 51
5, 29568, Note_on_c, 4, 70, 35
5, 29578, Note_on_c, 4, 70, 0
5, 29578, Note_on_c, 4, 73, 0
5, 29580, Note_on_c, 4, 79, 0
5, 29600, Note_on_c, 4, 79, 39
5, 29600, Note_on_c, 4, 73, 28
5, 29600, Note_on_c, 4, 70, 16
5, 29609, Note_on_c, 4, 70, 0
5, 29610, Note_on_c, 4, 73, 0
5, 29611, Note_on_c, 4, 79, 0
5, 29625, Control_c, 4, 7, 89
5, 29632, Note_on_c, 4, 79, 35
5, 29632, Note_on_c, 4, 73, 43
5, 29632, Note_on_c, 4, 70, 25
5, 29642, Note_on_c, 4, 70, 0
5, 29642, Note_on_c, 4, 73, 0
5, 29642, Note_on_c, 4, 79, 0
5, 29664, Note_on_c, 4, 70, 39
5, 29664, Note_on_c, 4, 73, 51
5, 29664, Note_on_c, 4, 79, 51
5, 29675, Note_on_c, 4, 73, 0
5, 29675, Note_on_c, 4, 70, 0
5, 29676, Note_on_c, 4, 79, 0
5, 29683, Control_c, 4, 7, 88
5, 29696, Note_on_c, 4, 73, 47
5, 29696, Note_on_c, 4, 70, 25
5, 29696, Note_on_c, 4, 79, 39
5, 29705, Note_on_c, 4, 79, 0
5, 29705, Note_on_c, 4, 70, 0
5, 29706, Note_on_c, 4, 73, 0
5, 29728, Note_on_c, 4, 79, 51
5, 29728, Note_on_c, 4, 73, 51
5, 29728, Note_on_c, 4, 70, 32
5, 29736, Note_on_c, 4, 70, 0
5, 29737, Note_on_c, 4, 73, 0
5, 29740, Control_c, 4, 7, 87
5, 29741, Note_on_c, 4, 79, 0
5, 29760, Note_on_c, 4, 73, 51
5, 29760, Note_on_c, 4, 79, 51
5, 29760, Note_on_c, 4, 70, 28
5, 29772, Note_on_c, 4, 70, 0
5, 29772, Note_on_c, 4, 79, 0
5, 29772, Note_on_c, 4, 73, 0
5, 29792, Note_on_c, 4, 79, 47
5, 29792, Note_on_c, 4, 73, 47
5, 29792, Note_on_c, 4, 70, 30
5, 29798, Control_c, 4, 7, 86
5, 29801, Note_on_c, 4, 70, 0
5, 29801, Note_on_c, 4, 73, 0
5, 29802, Note_on_c, 4, 79, 0
5, 29824, Note_on_c, 4, 70, 39
5, 29824, Note_on_c, 4, 73, 51
5, 29824, Note_on_c, 4, 79, 51
5, 29832, Note_on_c, 4, 73, 0
5, 29833, Note_on_c, 4, 70, 0
5, 29836, Note_on_c, 4, 79, 0
5, 29856, Control_c, 4, 7, 85
5, 29856, Note_on_c, 4, 70, 32
5, 29856, Note_on_c, 4, 79, 47
5, 29856, Note_on_c, 4, 73, 51
5, 29866, Note_on_c, 4, 73, 0
5, 29866, Note_on_c, 4, 70, 0
5, 29867, Note_on_c, 4, 79, 0
5, 29888, Note_on_c, 4, 79, 51
5, 29888, Note_on_c, 4, 70, 28
5, 29888, Note_on_c, 4, 73, 47
5, 29896, Note_on_c, 4, 73, 0
5, 29896, Note_on_c, 4, 70, 0
5, 29900, Note_on_c, 4, 79, 0
5, 29913, Control_c, 4, 7, 84
5, 29920, Note_on_c, 4, 70, 30
5, 29920, Note_on_c, 4, 79, 47
5, 29920, Note_on_c, 4, 73, 25
5, 29929, Note_on_c, 4, 73, 0
5, 29931, Note_on_c, 4, 70, 0
5, 29932, Note_on_c, 4, 79, 0
5, 29952, Note_on_c, 4, 71, 39
5, 29952, Note_on_c, 4, 66, 32
5, 29952, Note_on_c, 4, 75, 39
5, 29952, Note_on_c, 4, 59, 43
5, 29952, Note_on_c, 4, 63, 25
5, 29952, Note_on_c, 4, 56, 20
5, 29971, Control_c, 4, 7, 83
5, 30028, Control_c, 4, 7, 82
5, 30086, Control_c, 4, 7, 81
5, 30144, Control_c, 4, 7, 80
5, 30201, Control_c, 4, 7, 79
5, 30226, Note_on_c, 4, 63, 0
5, 30230, Note_on_c, 4, 59, 0
5, 30230, Note_on_c, 4, 75, 0
5, 30232, Note_on_c, 4, 71, 0
5, 30233, Note_on_c, 4, 56, 0
5, 30238, Note_on_c, 4, 66, 0
5, 30259, Control_c, 4, 7, 78
5, 30316, Control_c, 4, 7, 77
5, 30336, Note_on_c, 4, 65, 25
5, 30336, Note_on_c, 4, 61, 30
5, 30336, Note_on_c, 4, 49, 35
5, 30336, Note_on_c, 4, 68, 39
5, 30374, Control_c, 4, 7, 76
5, 30432, Control_c, 4, 7, 75
5, 30489, Control_c, 4, 7, 74
5, 30547, Control_c, 4, 7, 73
5, 30604, Control_c, 4, 7, 72
5, 30662, Control_c, 4, 7, 71
5, 30686, Note_on_c, 4, 68, 0
5, 30686, Note_on_c, 4, 61, 0
5, 30687, Note_on_c, 4, 49, 0
5, 30688, Note_on_c, 4, 65, 0
5, 30720, Control_c, 4, 7, 70
5, 30720, Note_on_c, 4, 82, 51
5, 30720, Note_on_c, 4, 73, 51
5, 30720, Note_on_c, 4, 78, 51
5, 30731, Note_on_c, 4, 73, 0
5, 30732, Note_on_c, 4, 78, 0
5, 30733, Note_on_c, 4, 82, 0
5, 30752, Note_on_c, 4, 78, 51
5, 30752, Note_on_c, 4, 82, 51
5, 30752, Note_on_c, 4, 73, 51
5, 30762, Note_on_c, 4, 78, 0
5, 30763, Note_on_c, 4, 73, 0
5, 30765, Note_on_c, 4, 82, 0
5, 30777, Control_c, 4, 7, 69
5, 30784, Note_on_c, 4, 78, 51
5, 30784, Note_on_c, 4, 82, 51
5, 30784, Note_on_c, 4, 73, 51
5, 30795, Note_on_c, 4, 78, 0
5, 30796, Note_on_c, 4, 73, 0
5, 30796, Note_on_c, 4, 82, 0
5, 30816, Note_on_c, 4, 73, 51
5, 30816, Note_on_c, 4, 78, 51
5, 30816, Note_on_c, 4, 82, 51
5, 30828, Note_on_c, 4, 78, 0
5, 30828, Note_on_c, 4, 73, 0
5, 30831, Note_on_c, 4, 82, 0
5, 30835, Control_c, 4, 7, 68
5, 30848, Note_on_c, 4, 78, 51
5, 30848, Note_on_c, 4, 82, 51
5, 30848, Note_on_c, 4, 73, 51
5, 30860, Note_on_c, 4, 73, 0
5, 30860, Note_on_c, 4, 78, 0
5, 30864, Note_on_c, 4, 82, 0
5, 30880, Note_on_c, 4, 82, 51
5, 30880, Note_on_c, 4, 78, 51
5, 30880, Note_on_c, 4, 73, 51
5, 30892, Note_on_c, 4, 73, 0
5, 30892, Control_c, 4, 7, 67
5, 30894, Note_on_c, 4, 78, 0
5, 30894, Note_on_c, 4, 82, 0
5, 30912, Note_on_c, 4, 75, 43
5, 30912, Note_on_c, 4, 83, 51
5, 30912, Note_on_c, 4, 78, 51
5, 30925, Note_on_c, 4, 75, 0
5, 30926, Note_on_c, 4, 78, 0
5, 30927, Note_on_c, 4, 83, 0
5, 30944, Note_on_c, 4, 75, 51
5, 30944, Note_on_c, 4, 83, 51
5, 30944, Note_on_c, 4, 78, 51
5, 30950, Control_c, 4, 7, 66
5, 30956, Note_on_c, 4, 78, 0
5, 30956, Note_on_c, 4, 75, 0
5, 30959, Note_on_c, 4, 83, 0
5, 30976, Note_on_c, 4, 83, 51
5, 30976, Note_on_c, 4, 75, 51
5, 30976, Note_on_c, 4, 78, 51
5, 30987, Note_on_c, 4, 78, 0
5, 30987, Note_on_c, 4, 75, 0
5, 30989, Note_on_c, 4, 83, 0
5, 31008, Control_c, 4, 7, 65
5, 31008, Note_on_c, 4, 83, 51
5, 31008, Note_on_c, 4, 78, 51
5, 31008, Note_on_c, 4, 75, 51
5, 31018, Note_on_c, 4, 78, 0
5, 31019, Note_on_c, 4, 75, 0
5, 31022, Note_on_c, 4, 83, 0
5, 31040, Note_on_c, 4, 83, 51
5, 31040, Note_on_c, 4, 78, 51
5, 31040, Note_on_c, 4, 75, 51
5, 31050, Note_on_c, 4, 75, 0
5, 31050, Note_on_c, 4, 78, 0
5, 31053, Note_on_c, 4, 83, 0
5, 31065, Control_c, 4, 7, 64
5, 31072, Note_on_c, 4, 83, 51
5, 31072, Note_on_c, 4, 78, 51
5, 31072, Note_on_c, 4, 75, 51
5, 31084, Note_on_c, 4, 75, 0
5, 31084, Note_on_c, 4, 78, 0
5, 31087, Note_on_c, 4, 83, 0
5, 31104, Note_on_c, 4, 73, 51
5, 31104, Note_on_c, 4, 82, 51
5, 31104, Note_on_c, 4, 78, 51
5, 31115, Note_on_c, 4, 78, 0
5, 31116, Note_on_c, 4, 73, 0
5, 31118, Note_on_c, 4, 82, 0
5, 31123, Control_c, 4, 7, 63
5, 31136, Note_on_c, 4, 73, 51
5, 31136, Note_on_c, 4, 82, 51
5, 31136, Note_on_c, 4, 78, 51
5, 31146, Note_on_c, 4, 78, 0
5, 31147, Note_on_c, 4, 73, 0
5, 31148, Note_on_c, 4, 82, 0
5, 31168, Note_on_c, 4, 82, 51
5, 31168, Note_on_c, 4, 78, 51
5, 31168, Note_on_c, 4, 73, 51
5, 31177, Note_on_c, 4, 78, 0
5, 31178, Note_on_c, 4, 73, 0
5, 31180, Note_on_c, 4, 82, 0
5, 31180, Control_c, 4, 7, 62
5, 31200, Note_on_c, 4, 82, 51
5, 31200, Note_on_c, 4, 73, 51
5, 31200, Note_on_c, 4, 78, 51
5, 31209, Note_on_c, 4, 78, 0
5, 31210, Note_on_c, 4, 73, 0
5, 31211, Note_on_c, 4, 82, 0
5, 31232, Note_on_c, 4, 73, 51
5, 31232, Note_on_c, 4, 82, 51
5, 31232, Note_on_c, 4, 78, 51
5, 31238, Control_c, 4, 7, 61
5, 31242, Note_on_c, 4, 78, 0
5, 31243, Note_on_c, 4, 73, 0
5, 31244, Note_on_c, 4, 82, 0
5, 31264, Note_on_c, 4, 78, 51
5, 31264, Note_on_c, 4, 73, 51
5, 31264, Note_on_c, 4, 82, 51
5, 31275, Note_on_c, 4, 73, 0
5, 31275, Note_on_c, 4, 78, 0
5, 31277, Note_on_c, 4, 82, 0
5, 31296, Control_c, 4, 7, 60
5, 31296, Note_on_c, 4, 82, 51
5, 31296, Note_on_c, 4, 78, 51
5, 31296, Note_on_c, 4, 73, 51
5, 31312, Note_on_c, 4, 78, 0
5, 31313, Note_on_c, 4, 73, 0
5, 31315, Note_on_c, 4, 82, 0
5, 31315, End_track
6, 0, Start_track
6, 123, Program_c, 5, 94
6, 124, Control_c, 5, 7, 90
6, 480, Control_c, 5, 121, 0
6, 480, Control_c, 5, 91, 55
6, 864, Note_on_c, 5, 88, 115
6, 864, Note_on_c, 5, 84, 115
6, 864, Note_on_c, 5, 82, 115
6, 945, Note_on_c, 5, 84, 0
6, 950, Note_on_c, 5, 82, 0
6, 953, Note_on_c, 5, 88, 0
6, 960, Note_on_c, 5, 82, 115
6, 960, Note_on_c, 5, 89, 115
6, 960, Note_on_c, 5, 86, 115
6, 1042, Note_on_c, 5, 86, 0
6, 1043, Note_on_c, 5, 89, 0
6, 1045, Note_on_c, 5, 82, 0
6, 1056, Note_on_c, 5, 82, 115
6, 1056, Note_on_c, 5, 91, 115
6, 1056, Note_on_c, 5, 88, 115
6, 1126, Note_on_c, 5, 88, 0
6, 1128, Note_on_c, 5, 91, 0
6, 1131, Note_on_c, 5, 82, 0
6, 1152, Note_on_c, 5, 60, 86
6, 1152, Note_on_c, 5, 65, 96
6, 1152, Note_on_c, 5, 57, 77
6, 1651, Note_on_c, 5, 57, 0
6, 1651, Note_on_c, 5, 65, 0
6, 1651, Note_on_c, 5, 60, 0
6, 1920, Note_on_c, 5, 64, 87
6, 1920, Note_on_c, 5, 55, 77
6, 1920, Note_on_c, 5, 61, 81
6, 2665, Note_on_c, 5, 61, 0
6, 2667, Note_on_c, 5, 55, 0
6, 2668, Note_on_c, 5, 64, 0
6, 2688, Note_on_c, 5, 60, 87
6, 2688, Note_on_c, 5, 66, 83
6, 2688, Note_on_c, 5, 69, 96
6, 3067, Note_on_c, 5, 69, 0
6, 3258, Note_on_c, 5, 66, 0
6, 3416, Note_on_c, 5, 60, 0
6, 3456, Note_on_c, 5, 59, 76
6, 4032, Note_on_c, 5, 55, 79
6, 4042, Note_on_c, 5, 59, 0
6, 4184, Note_on_c, 5, 55, 0
6, 5760, Note_on_c, 5, 64, 86
6, 6144, Note_on_c, 5, 62, 67
6, 6156, Note_on_c, 5, 64, 0
6, 6518, Note_on_c, 5, 62, 0
6, 6528, Note_on_c, 5, 64, 115
6, 6528, Note_on_c, 5, 60, 110
6, 6675, Note_on_c, 5, 60, 0
6, 6678, Note_on_c, 5, 64, 0
6, 6720, Note_on_c, 5, 65, 115
6, 6720, Note_on_c, 5, 62, 115
6, 6854, Note_on_c, 5, 62, 0
6, 6854, Note_on_c, 5, 65, 0
6, 6912, Note_on_c, 5, 67, 115
6, 6912, Note_on_c, 5, 64, 115
6, 6943, Note_on_c, 5, 67, 0
6, 6944, Note_on_c, 5, 64, 0
6, 7008, Note_on_c, 5, 64, 115
6, 7008, Note_on_c, 5, 60, 115
6, 7076, Note_on_c, 5, 60, 0
6, 7084, Note_on_c, 5, 64, 0
6, 7104, Note_on_c, 5, 65, 115
6, 7104, Note_on_c, 5, 62, 115
6, 7180, Note_on_c, 5, 62, 0
6, 7180, Note_on_c, 5, 65, 0
6, 7200, Note_on_c, 5, 67, 115
6, 7200, Note_on_c, 5, 64, 115
6, 7254, Note_on_c, 5, 67, 0
6, 7255, Note_on_c, 5, 64, 0
6, 7296, Note_on_c, 5, 57, 77
6, 7296, Note_on_c, 5, 65, 96
6, 7296, Note_on_c, 5, 60, 86
6, 7795, Note_on_c, 5, 60, 0
6, 7795, Note_on_c, 5, 65, 0
6, 7795, Note_on_c, 5, 57, 0
6, 8064, Note_on_c, 5, 64, 87
6, 8064, Note_on_c, 5, 55, 77
6, 8064, Note_on_c, 5, 61, 81
6, 8809, Note_on_c, 5, 61, 0
6, 8811, Note_on_c, 5, 55, 0
6, 8812, Note_on_c, 5, 64, 0
6, 8832, Note_on_c, 5, 66, 83
6, 8832, Note_on_c, 5, 60, 87
6, 8832, Note_on_c, 5, 69, 96
6, 9211, Note_on_c, 5, 69, 0
6, 9402, Note_on_c, 5, 66, 0
6, 9560, Note_on_c, 5, 60, 0
6, 9600, Note_on_c, 5, 62, 87
6, 9600, Note_on_c, 5, 67, 92
6, 9600, Note_on_c, 5, 58, 78
6, 9704, Note_on_c, 5, 58, 0
6, 9709, Note_on_c, 5, 62, 0
6, 9710, Note_on_c, 5, 67, 0
6, 9792, Note_on_c, 5, 66, 101
6, 9792, Note_on_c, 5, 60, 86
6, 9792, Note_on_c, 5, 69, 86
6, 9901, Note_on_c, 5, 66, 0
6, 9902, Note_on_c, 5, 69, 0
6, 9905, Note_on_c, 5, 60, 0
6, 9984, Note_on_c, 5, 67, 83
6, 9984, Note_on_c, 5, 62, 77
6, 9984, Note_on_c, 5, 70, 87
6, 10176, Note_on_c, 5, 62, 0
6, 10300, Note_on_c, 5, 70, 0
6, 10301, Note_on_c, 5, 67, 0
6, 10368, Note_on_c, 5, 62, 105
6, 10750, Note_on_c, 5, 62, 0
6, 10752, Note_on_c, 5, 65, 105
6, 11120, Note_on_c, 5, 65, 0
6, 11136, Note_on_c, 5, 65, 115
6, 11520, Note_on_c, 5, 66, 115
6, 11524, Note_on_c, 5, 65, 0
6, 11712, Note_on_c, 5, 62, 92
6, 11867, Note_on_c, 5, 62, 0
6, 11869, Note_on_c, 5, 66, 0
6, 11904, Note_on_c, 5, 62, 92
6, 12288, Note_on_c, 5, 60, 92
6, 12290, Note_on_c, 5, 62, 0
6, 12640, Note_on_c, 5, 60, 0
6, 13056, Note_on_c, 5, 60, 86
6, 13056, Note_on_c, 5, 65, 96
6, 13056, Note_on_c, 5, 57, 77
6, 13555, Note_on_c, 5, 57, 0
6, 13555, Note_on_c, 5, 65, 0
6, 13555, Note_on_c, 5, 60, 0
6, 13824, Note_on_c, 5, 64, 87
6, 13824, Note_on_c, 5, 55, 77
6, 13824, Note_on_c, 5, 61, 81
6, 14569, Note_on_c, 5, 61, 0
6, 14571, Note_on_c, 5, 55, 0
6, 14572, Note_on_c, 5, 64, 0
6, 14592, Note_on_c, 5, 60, 87
6, 14592, Note_on_c, 5, 66, 83
6, 14592, Note_on_c, 5, 69, 96
6, 14971, Note_on_c, 5, 69, 0
6, 15162, Note_on_c, 5, 66, 0
6, 15320, Note_on_c, 5, 60, 0
6, 15360, Note_on_c, 5, 59, 76
6, 15936, Note_on_c, 5, 55, 79
6, 15946, Note_on_c, 5, 59, 0
6, 16088, Note_on_c, 5, 55, 0
6, 17664, Note_on_c, 5, 64, 86
6, 18048, Note_on_c, 5, 62, 67
6, 18060, Note_on_c, 5, 64, 0
6, 18422, Note_on_c, 5, 62, 0
6, 18432, Note_on_c, 5, 64, 115
6, 18432, Note_on_c, 5, 60, 110
6, 18579, Note_on_c, 5, 60, 0
6, 18582, Note_on_c, 5, 64, 0
6, 18624, Note_on_c, 5, 65, 115
6, 18624, Note_on_c, 5, 62, 115
6, 18758, Note_on_c, 5, 62, 0
6, 18758, Note_on_c, 5, 65, 0
6, 18816, Note_on_c, 5, 67, 115
6, 18816, Note_on_c, 5, 64, 115
6, 18847, Note_on_c, 5, 67, 0
6, 18848, Note_on_c, 5, 64, 0
6, 18912, Note_on_c, 5, 64, 115
6, 18912, Note_on_c, 5, 60, 115
6, 18980, Note_on_c, 5, 60, 0
6, 18988, Note_on_c, 5, 64, 0
6, 19008, Note_on_c, 5, 65, 115
6, 19008, Note_on_c, 5, 62, 115
6, 19084, Note_on_c, 5, 62, 0
6, 19084, Note_on_c, 5, 65, 0
6, 19104, Note_on_c, 5, 67, 115
6, 19104, Note_on_c, 5, 64, 115
6, 19158, Note_on_c, 5, 67, 0
6, 19159, Note_on_c, 5, 64, 0
6, 19200, Note_on_c, 5, 57, 77
6, 19200, Note_on_c, 5, 65, 96
6, 19200, Note_on_c, 5, 60, 86
6, 19699, Note_on_c, 5, 60, 0
6, 19699, Note_on_c, 5, 65, 0
6, 19699, Note_on_c, 5, 57, 0
6, 19968, Note_on_c, 5, 64, 87
6, 19968, Note_on_c, 5, 55, 77
6, 19968, Note_on_c, 5, 61, 81
6, 20713, Note_on_c, 5, 61, 0
6, 20715, Note_on_c, 5, 55, 0
6, 20716, Note_on_c, 5, 64, 0
6, 20736, Note_on_c, 5, 66, 83
6, 20736, Note_on_c, 5, 60, 87
6, 20736, Note_on_c, 5, 69, 96
6, 21115, Note_on_c, 5, 69, 0
6, 21306, Note_on_c, 5, 66, 0
6, 21464, Note_on_c, 5, 60, 0
6, 21504, Note_on_c, 5, 62, 87
6, 21504, Note_on_c, 5, 67, 92
6, 21504, Note_on_c, 5, 58, 78
6, 21608, Note_on_c, 5, 58, 0
6, 21613, Note_on_c, 5, 62, 0
6, 21614, Note_on_c, 5, 67, 0
6, 21696, Note_on_c, 5, 66, 101
6, 21696, Note_on_c, 5, 60, 86
6, 21696, Note_on_c, 5, 69, 86
6, 21805, Note_on_c, 5, 66, 0
6, 21806, Note_on_c, 5, 69, 0
6, 21809, Note_on_c, 5, 60, 0
6, 21888, Note_on_c, 5, 67, 83
6, 21888, Note_on_c, 5, 62, 77
6, 21888, Note_on_c, 5, 70, 87
6, 22080, Note_on_c, 5, 62, 0
6, 22204, Note_on_c, 5, 70, 0
6, 22205, Note_on_c, 5, 67, 0
6, 22272, Note_on_c, 5, 62, 105
6, 22654, Note_on_c, 5, 62, 0
6, 22656, Note_on_c, 5, 65, 105
6, 23024, Note_on_c, 5, 65, 0
6, 23040, Note_on_c, 5, 65, 115
6, 23424, Note_on_c, 5, 66, 115
6, 23428, Note_on_c, 5, 65, 0
6, 23616, Note_on_c, 5, 62, 92
6, 23771, Note_on_c, 5, 62, 0
6, 23773, Note_on_c, 5, 66, 0
6, 23808, Note_on_c, 5, 62, 92
6, 24192, Note_on_c, 5, 60, 92
6, 24194, Note_on_c, 5, 62, 0
6, 24544, Note_on_c, 5, 60, 0
6, 25056, Note_on_c, 5, 83, 115
6, 25056, Note_on_c, 5, 85, 115
6, 25056, Note_on_c, 5, 89, 115
6, 25137, Note_on_c, 5, 85, 0
6, 25142, Note_on_c, 5, 83, 0
6, 25145, Note_on_c, 5, 89, 0
6, 25152, Note_on_c, 5, 87, 115
6, 25152, Note_on_c, 5, 83, 115
6, 25152, Note_on_c, 5, 90, 115
6, 25234, Note_on_c, 5, 87, 0
6, 25235, Note_on_c, 5, 90, 0
6, 25237, Note_on_c, 5, 83, 0
6, 25248, Note_on_c, 5, 83, 115
6, 25248, Note_on_c, 5, 92, 115
6, 25248, Note_on_c, 5, 89, 115
6, 25318, Note_on_c, 5, 89, 0
6, 25320, Note_on_c, 5, 92, 0
6, 25323, Note_on_c, 5, 83, 0
6, 25344, Note_on_c, 5, 94, 80
6, 25344, Note_on_c, 5, 58, 77
6, 25344, Note_on_c, 5, 61, 86
6, 25344, Note_on_c, 5, 66, 96
6, 25728, Note_on_c, 5, 66, 0
6, 25728, Note_on_c, 5, 61, 0
6, 25728, Note_on_c, 5, 58, 0
6, 25728, Note_on_c, 5, 61, 86
6, 25728, Note_on_c, 5, 66, 96
6, 25728, Note_on_c, 5, 58, 77
6, 25868, Note_on_c, 5, 66, 0
6, 25870, Note_on_c, 5, 61, 0
6, 25871, Note_on_c, 5, 58, 0
6, 26112, Note_on_c, 5, 92, 69
6, 26112, Note_on_c, 5, 62, 81
6, 26112, Note_on_c, 5, 56, 77
6, 26112, Note_on_c, 5, 65, 87
6, 26119, Note_on_c, 5, 94, 0
6, 26857, Note_on_c, 5, 62, 0
6, 26859, Note_on_c, 5, 56, 0
6, 26860, Note_on_c, 5, 65, 0
6, 26880, Note_on_c, 5, 91, 69
6, 26880, Note_on_c, 5, 61, 87
6, 26880, Note_on_c, 5, 70, 96
6, 26880, Note_on_c, 5, 67, 83
6, 26889, Note_on_c, 5, 92, 0
6, 27259, Note_on_c, 5, 70, 0
6, 27450, Note_on_c, 5, 67, 0
6, 27608, Note_on_c, 5, 61, 0
6, 27648, Note_on_c, 5, 91, 0
6, 27648, Note_on_c, 5, 68, 92
6, 27648, Note_on_c, 5, 63, 87
6, 27648, Note_on_c, 5, 59, 78
6, 27752, Note_on_c, 5, 59, 0
6, 27757, Note_on_c, 5, 63, 0
6, 27758, Note_on_c, 5, 68, 0
6, 27840, Note_on_c, 5, 67, 101
6, 27840, Note_on_c, 5, 61, 86
6, 27840, Note_on_c, 5, 70, 86
6, 27949, Note_on_c, 5, 67, 0
6, 27950, Note_on_c, 5, 70, 0
6, 27953, Note_on_c, 5, 61, 0
6, 28032, Note_on_c, 5, 71, 87
6, 28032, Note_on_c, 5, 68, 83
6, 28032, Note_on_c, 5, 63, 77
6, 28224, Note_on_c, 5, 63, 0
6, 28348, Note_on_c, 5, 71, 0
6, 28349, Note_on_c, 5, 68, 0
6, 28416, Note_on_c, 5, 63, 105
6, 28798, Note_on_c, 5, 63, 0
6, 28800, Note_on_c, 5, 66, 105
6, 29168, Note_on_c, 5, 66, 0
6, 29184, Note_on_c, 5, 66, 115
6, 29568, Control_c, 5, 7, 90
6, 29568, Note_on_c, 5, 67, 115
6, 29572, Note_on_c, 5, 66, 0
6, 29625, Control_c, 5, 7, 89
6, 29683, Control_c, 5, 7, 88
6, 29740, Control_c, 5, 7, 87
6, 29760, Note_on_c, 5, 63, 92
6, 29798, Control_c, 5, 7, 86
6, 29856, Control_c, 5, 7, 85
6, 29913, Control_c, 5, 7, 84
6, 29915, Note_on_c, 5, 63, 0
6, 29917, Note_on_c, 5, 67, 0
6, 29952, Note_on_c, 5, 63, 56
6, 29952, Note_on_c, 5, 59, 68
6, 29952, Note_on_c, 5, 56, 63
6, 29971, Control_c, 5, 7, 83
6, 30028, Control_c, 5, 7, 82
6, 30086, Control_c, 5, 7, 81
6, 30144, Control_c, 5, 7, 80
6, 30201, Control_c, 5, 7, 79
6, 30259, Control_c, 5, 7, 78
6, 30316, Control_c, 5, 7, 77
6, 30332, Note_on_c, 5, 59, 0
6, 30334, Note_on_c, 5, 56, 0
6, 30336, Note_on_c, 5, 63, 0
6, 30336, Note_on_c, 5, 61, 87
6, 30374, Control_c, 5, 7, 76
6, 30432, Control_c, 5, 7, 75
6, 30489, Control_c, 5, 7, 74
6, 30547, Control_c, 5, 7, 73
6, 30604, Control_c, 5, 7, 72
6, 30662, Control_c, 5, 7, 71
6, 30694, Note_on_c, 5, 61, 0
6, 30720, Control_c, 5, 7, 70
6, 30720, Note_on_c, 5, 73, 101
6, 30720, Note_on_c, 5, 82, 110
6, 30720, Note_on_c, 5, 78, 110
6, 30777, Control_c, 5, 7, 69
6, 30835, Control_c, 5, 7, 68
6, 30854, Note_on_c, 5, 73, 0
6, 30861, Note_on_c, 5, 82, 0
6, 30862, Note_on_c, 5, 78, 0
6, 30892, Control_c, 5, 7, 67
6, 30912, Note_on_c, 5, 78, 101
6, 30912, Note_on_c, 5, 75, 105
6, 30912, Note_on_c, 5, 83, 115
6, 30950, Control_c, 5, 7, 66
6, 31008, Control_c, 5, 7, 65
6, 31055, Note_on_c, 5, 75, 0
6, 31062, Note_on_c, 5, 78, 0
6, 31063, Note_on_c, 5, 83, 0
6, 31065, Control_c, 5, 7, 64
6, 31104, Note_on_c, 5, 73, 115
6, 31104, Note_on_c, 5, 82, 115
6, 31104, Note_on_c, 5, 78, 115
6, 31123, Control_c, 5, 7, 63
6, 31180, Control_c, 5, 7, 62
6, 31238, Control_c, 5, 7, 61
6, 31296, Control_c, 5, 7, 60
6, 31304, Note_on_c, 5, 78, 0
6, 31305, Note_on_c, 5, 82, 0
6, 31307, Note_on_c, 5, 73, 0
6, 31307, End_track
7, 0, Start_track
7, 96, Control_c, 9, 121, 0
7, 96, Control_c, 9, 91, 55
7, 96, Control_c, 9, 7, 80
7, 143, Program_c, 9, 9
7, 144, Control_c, 9, 7, 90
7, 480, Note_on_c, 9, 42, 117
7, 480, Note_on_c, 9, 42, 117
7, 492, Note_on_c, 9, 42, 0
7, 493, Note_on_c, 9, 42, 0
7, 576, Note_on_c, 9, 42, 117
7, 589, Note_on_c, 9, 42, 0
7, 672, Note_on_c, 9, 42, 117
7, 683, Note_on_c, 9, 42, 0
7, 768, Note_on_c, 9, 42, 117
7, 782, Note_on_c, 9, 42, 0
7, 864, Note_on_c, 9, 42, 117
7, 864, Note_on_c, 9, 36, 117
7, 864, Note_on_c, 9, 51, 117
7, 873, Note_on_c, 9, 51, 0
7, 874, Note_on_c, 9, 42, 0
7, 888, Note_on_c, 9, 36, 0
7, 896, Note_on_c, 9, 42, 117
7, 908, Note_on_c, 9, 42, 0
7, 928, Note_on_c, 9, 46, 97
7, 937, Note_on_c, 9, 46, 0
7, 960, Note_on_c, 9, 51, 117
7, 960, Note_on_c, 9, 36, 117
7, 960, Note_on_c, 9, 42, 117
7, 969, Note_on_c, 9, 42, 0
7, 969, Note_on_c, 9, 51, 0
7, 974, Note_on_c, 9, 36, 0
7, 992, Note_on_c, 9, 42, 117
7, 1002, Note_on_c, 9, 42, 0
7, 1024, Note_on_c, 9, 46, 92
7, 1034, Note_on_c, 9, 46, 0
7, 1056, Note_on_c, 9, 42, 117
7, 1056, Note_on_c, 9, 51, 117
7, 1056, Note_on_c, 9, 36, 117
7, 1064, Note_on_c, 9, 42, 0
7, 1065, Note_on_c, 9, 51, 0
7, 1069, Note_on_c, 9, 36, 0
7, 1088, Note_on_c, 9, 42, 117
7, 1100, Note_on_c, 9, 42, 0
7, 1120, Note_on_c, 9, 46, 92
7, 1129, Note_on_c, 9, 46, 0
7, 1152, Note_on_c, 9, 42, 36
7, 1152, Note_on_c, 9, 51, 117
7, 1152, Note_on_c, 9, 36, 117
7, 1162, Note_on_c, 9, 36, 0
7, 1162, Note_on_c, 9, 51, 0
7, 1163, Note_on_c, 9, 42, 0
7, 1184, Note_on_c, 9, 42, 21
7, 1194, Note_on_c, 9, 42, 0
7, 1216, Note_on_c, 9, 42, 26
7, 1229, Note_on_c, 9, 42, 0
7, 1248, Note_on_c, 9, 42, 117
7, 1248, Note_on_c, 9, 37, 117
7, 1257, Note_on_c, 9, 37, 0
7, 1262, Note_on_c, 9, 42, 0
7, 1280, Note_on_c, 9, 42, 20
7, 1289, Note_on_c, 9, 42, 0
7, 1312, Note_on_c, 9, 42, 21
7, 1312, Note_on_c, 9, 36, 117
7, 1321, Note_on_c, 9, 42, 0
7, 1322, Note_on_c, 9, 36, 0
7, 1344, Note_on_c, 9, 36, 117
7, 1344, Note_on_c, 9, 42, 36
7, 1354, Note_on_c, 9, 36, 0
7, 1356, Note_on_c, 9, 42, 0
7, 1376, Note_on_c, 9, 42, 21
7, 1385, Note_on_c, 9, 42, 0
7, 1408, Note_on_c, 9, 42, 32
7, 1420, Note_on_c, 9, 42, 0
7, 1440, Note_on_c, 9, 37, 117
7, 1440, Note_on_c, 9, 42, 117
7, 1449, Note_on_c, 9, 37, 0
7, 1455, Note_on_c, 9, 42, 0
7, 1472, Note_on_c, 9, 42, 24
7, 1482, Note_on_c, 9, 42, 0
7, 1504, Note_on_c, 9, 42, 35
7, 1516, Note_on_c, 9, 42, 0
7, 1536, Note_on_c, 9, 42, 39
7, 1536, Note_on_c, 9, 36, 117
7, 1547, Note_on_c, 9, 36, 0
7, 1548, Note_on_c, 9, 42, 0
7, 1568, Note_on_c, 9, 42, 21
7, 1578, Note_on_c, 9, 42, 0
7, 1600, Note_on_c, 9, 42, 26
7, 1610, Note_on_c, 9, 42, 0
7, 1632, Note_on_c, 9, 37, 117
7, 1632, Note_on_c, 9, 42, 117
7, 1640, Note_on_c, 9, 37, 0
7, 1645, Note_on_c, 9, 42, 0
7, 1664, Note_on_c, 9, 42, 24
7, 1673, Note_on_c, 9, 42, 0
7, 1696, Note_on_c, 9, 42, 27
7, 1696, Note_on_c, 9, 36, 117
7, 1706, Note_on_c, 9, 36, 0
7, 1706, Note_on_c, 9, 42, 0
7, 1728, Note_on_c, 9, 42, 35
7, 1728, Note_on_c, 9, 36, 117
7, 1738, Note_on_c, 9, 36, 0
7, 1739, Note_on_c, 9, 42, 0
7, 1760, Note_on_c, 9, 42, 24
7, 1769, Note_on_c, 9, 42, 0
7, 1792, Note_on_c, 9, 42, 35
7, 1807, Note_on_c, 9, 42, 0
7, 1824, Note_on_c, 9, 37, 117
7, 1824, Note_on_c, 9, 42, 117
7, 1831, Note_on_c, 9, 37, 0
7, 1839, Note_on_c, 9, 42, 0
7, 1856, Note_on_c, 9, 42, 35
7, 1870, Note_on_c, 9, 42, 0
7, 1888, Note_on_c, 9, 46, 97
7, 1901, Note_on_c, 9, 46, 0
7, 1920, Note_on_c, 9, 42, 36
7, 1920, Note_on_c, 9, 51, 117
7, 1920, Note_on_c, 9, 36, 117
7, 1930, Note_on_c, 9, 36, 0
7, 1930, Note_on_c, 9, 51, 0
7, 1931, Note_on_c, 9, 42, 0
7, 1952, Note_on_c, 9, 42, 21
7, 1962, Note_on_c, 9, 42, 0
7, 1984, Note_on_c, 9, 42, 26
7, 1997, Note_on_c, 9, 42, 0
7, 2016, Note_on_c, 9, 37, 117
7, 2016, Note_on_c, 9, 42, 117
7, 2025, Note_on_c, 9, 37, 0
7, 2030, Note_on_c, 9, 42, 0
7, 2048, Note_on_c, 9, 42, 20
7, 2057, Note_on_c, 9, 42, 0
7, 2080, Note_on_c, 9, 36, 117
7, 2080, Note_on_c, 9, 42, 21
7, 2089, Note_on_c, 9, 42, 0
7, 2090, Note_on_c, 9, 36, 0
7, 2112, Note_on_c, 9, 42, 36
7, 2112, Note_on_c, 9, 36, 117
7, 2122, Note_on_c, 9, 36, 0
7, 2124, Note_on_c, 9, 42, 0
7, 2144, Note_on_c, 9, 42, 21
7, 2153, Note_on_c, 9, 42, 0
7, 2176, Note_on_c, 9, 42, 32
7, 2188, Note_on_c, 9, 42, 0
7, 2208, Note_on_c, 9, 37, 117
7, 2208, Note_on_c, 9, 42, 117
7, 2217, Note_on_c, 9, 37, 0
7, 2223, Note_on_c, 9, 42, 0
7, 2240, Note_on_c, 9, 42, 24
7, 2250, Note_on_c, 9, 42, 0
7, 2272, Note_on_c, 9, 42, 35
7, 2284, Note_on_c, 9, 42, 0
7, 2304, Note_on_c, 9, 36, 117
7, 2304, Note_on_c, 9, 42, 39
7, 2315, Note_on_c, 9, 36, 0
7, 2316, Note_on_c, 9, 42, 0
7, 2336, Note_on_c, 9, 42, 21
7, 2346, Note_on_c, 9, 42, 0
7, 2368, Note_on_c, 9, 42, 26
7, 2378, Note_on_c, 9, 42, 0
7, 2400, Note_on_c, 9, 37, 117
7, 2400, Note_on_c, 9, 42, 117
7, 2408, Note_on_c, 9, 37, 0
7, 2413, Note_on_c, 9, 42, 0
7, 2432, Note_on_c, 9, 42, 24
7, 2441, Note_on_c, 9, 42, 0
7, 2464, Note_on_c, 9, 36, 117
7, 2464, Note_on_c, 9, 42, 27
7, 2474, Note_on_c, 9, 42, 0
7, 2474, Note_on_c, 9, 36, 0
7, 2496, Note_on_c, 9, 36, 117
7, 2496, Note_on_c, 9, 42, 35
7, 2506, Note_on_c, 9, 36, 0
7, 2507, Note_on_c, 9, 42, 0
7, 2528, Note_on_c, 9, 42, 24
7, 2537, Note_on_c, 9, 42, 0
7, 2560, Note_on_c, 9, 42, 35
7, 2575, Note_on_c, 9, 42, 0
7, 2592, Note_on_c, 9, 42, 117
7, 2592, Note_on_c, 9, 37, 117
7, 2599, Note_on_c, 9, 37, 0
7, 2607, Note_on_c, 9, 42, 0
7, 2624, Note_on_c, 9, 42, 35
7, 2638, Note_on_c, 9, 42, 0
7, 2656, Note_on_c, 9, 46, 97
7, 2669, Note_on_c, 9, 46, 0
7, 2688, Note_on_c, 9, 42, 36
7, 2688, Note_on_c, 9, 51, 117
7, 2688, Note_on_c, 9, 36, 117
7, 2698, Note_on_c, 9, 36, 0
7, 2698, Note_on_c, 9, 51, 0
7, 2699, Note_on_c, 9, 42, 0
7, 2720, Note_on_c, 9, 42, 21
7, 2730, Note_on_c, 9, 42, 0
7, 2752, Note_on_c, 9, 42, 26
7, 2765, Note_on_c, 9, 42, 0
7, 2784, Note_on_c, 9, 37, 117
7, 2784, Note_on_c, 9, 42, 117
7, 2793, Note_on_c, 9, 37, 0
7, 2798, Note_on_c, 9, 42, 0
7, 2816, Note_on_c, 9, 42, 20
7, 2825, Note_on_c, 9, 42, 0
7, 2848, Note_on_c, 9, 36, 117
7, 2848, Note_on_c, 9, 42, 21
7, 2857, Note_on_c, 9, 42, 0
7, 2858, Note_on_c, 9, 36, 0
7, 2880, Note_on_c, 9, 42, 36
7, 2880, Note_on_c, 9, 36, 117
7, 2890, Note_on_c, 9, 36, 0
7, 2892, Note_on_c, 9, 42, 0
7, 2912, Note_on_c, 9, 42, 21
7, 2921, Note_on_c, 9, 42, 0
7, 2944, Note_on_c, 9, 42, 32
7, 2956, Note_on_c, 9, 42, 0
7, 2976, Note_on_c, 9, 37, 117
7, 2976, Note_on_c, 9, 42, 117
7, 2985, Note_on_c, 9, 37, 0
7, 2991, Note_on_c, 9, 42, 0
7, 3008, Note_on_c, 9, 42, 24
7, 3018, Note_on_c, 9, 42, 0
7, 3040, Note_on_c, 9, 42, 35
7, 3052, Note_on_c, 9, 42, 0
7, 3072, Note_on_c, 9, 36, 117
7, 3072, Note_on_c, 9, 42, 39
7, 3083, Note_on_c, 9, 36, 0
7, 3084, Note_on_c, 9, 42, 0
7, 3104, Note_on_c, 9, 42, 21
7, 3114, Note_on_c, 9, 42, 0
7, 3136, Note_on_c, 9, 42, 26
7, 3146, Note_on_c, 9, 42, 0
7, 3168, Note_on_c, 9, 37, 117
7, 3168, Note_on_c, 9, 42, 117
7, 3176, Note_on_c, 9, 37, 0
7, 3181, Note_on_c, 9, 42, 0
7, 3200, Note_on_c, 9, 42, 24
7, 3209, Note_on_c, 9, 42, 0
7, 3232, Note_on_c, 9, 36, 117
7, 3232, Note_on_c, 9, 42, 27
7, 3242, Note_on_c, 9, 42, 0
7, 3242, Note_on_c, 9, 36, 0
7, 3264, Note_on_c, 9, 36, 117
7, 3264, Note_on_c, 9, 42, 35
7, 3274, Note_on_c, 9, 36, 0
7, 3275, Note_on_c, 9, 42, 0
7, 3296, Note_on_c, 9, 42, 24
7, 3305, Note_on_c, 9, 42, 0
7, 3328, Note_on_c, 9, 42, 35
7, 3343, Note_on_c, 9, 42, 0
7, 3360, Note_on_c, 9, 42, 117
7, 3360, Note_on_c, 9, 37, 117
7, 3367, Note_on_c, 9, 37, 0
7, 3375, Note_on_c, 9, 42, 0
7, 3392, Note_on_c, 9, 42, 35
7, 3406, Note_on_c, 9, 42, 0
7, 3424, Note_on_c, 9, 46, 97
7, 3437, Note_on_c, 9, 46, 0
7, 3456, Note_on_c, 9, 51, 117
7, 3456, Note_on_c, 9, 36, 117
7, 3456, Note_on_c, 9, 42, 36
7, 3466, Note_on_c, 9, 36, 0
7, 3466, Note_on_c, 9, 51, 0
7, 3467, Note_on_c, 9, 42, 0
7, 3488, Note_on_c, 9, 42, 21
7, 3498, Note_on_c, 9, 42, 0
7, 3520, Note_on_c, 9, 42, 26
7, 3533, Note_on_c, 9, 42, 0
7, 3552, Note_on_c, 9, 42, 117
7, 3552, Note_on_c, 9, 37, 117
7, 3561, Note_on_c, 9, 37, 0
7, 3566, Note_on_c, 9, 42, 0
7, 3584, Note_on_c, 9, 42, 20
7, 3593, Note_on_c, 9, 42, 0
7, 3616, Note_on_c, 9, 42, 21
7, 3616, Note_on_c, 9, 36, 117
7, 3625, Note_on_c, 9, 42, 0
7, 3626, Note_on_c, 9, 36, 0
7, 3648, Note_on_c, 9, 36, 117
7, 3648, Note_on_c, 9, 42, 36
7, 3658, Note_on_c, 9, 36, 0
7, 3660, Note_on_c, 9, 42, 0
7, 3680, Note_on_c, 9, 42, 21
7, 3689, Note_on_c, 9, 42, 0
7, 3712, Note_on_c, 9, 42, 32
7, 3724, Note_on_c, 9, 42, 0
7, 3744, Note_on_c, 9, 37, 117
7, 3744, Note_on_c, 9, 42, 117
7, 3753, Note_on_c, 9, 37, 0
7, 3759, Note_on_c, 9, 42, 0
7, 3776, Note_on_c, 9, 42, 24
7, 3786, Note_on_c, 9, 42, 0
7, 3808, Note_on_c, 9, 42, 35
7, 3820, Note_on_c, 9, 42, 0
7, 3840, Note_on_c, 9, 42, 39
7, 3840, Note_on_c, 9, 36, 117
7, 3851, Note_on_c, 9, 36, 0
7, 3852, Note_on_c, 9, 42, 0
7, 3872, Note_on_c, 9, 42, 21
7, 3882, Note_on_c, 9, 42, 0
7, 3904, Note_on_c, 9, 42, 26
7, 3914, Note_on_c, 9, 42, 0
7, 3936, Note_on_c, 9, 37, 117
7, 3936, Note_on_c, 9, 42, 117
7, 3944, Note_on_c, 9, 37, 0
7, 3949, Note_on_c, 9, 42, 0
7, 3968, Note_on_c, 9, 42, 24
7, 3977, Note_on_c, 9, 42, 0
7, 4000, Note_on_c, 9, 42, 27
7, 4000, Note_on_c, 9, 36, 117
7, 4010, Note_on_c, 9, 36, 0
7, 4010, Note_on_c, 9, 42, 0
7, 4032, Note_on_c, 9, 42, 35
7, 4032, Note_on_c, 9, 36, 117
7, 4042, Note_on_c, 9, 36, 0
7, 4043, Note_on_c, 9, 42, 0
7, 4064, Note_on_c, 9, 42, 24
7, 4073, Note_on_c, 9, 42, 0
7, 4096, Note_on_c, 9, 42, 35
7, 4111, Note_on_c, 9, 42, 0
7, 4128, Note_on_c, 9, 37, 117
7, 4128, Note_on_c, 9, 42, 117
7, 4135, Note_on_c, 9, 37, 0
7, 4143, Note_on_c, 9, 42, 0
7, 4160, Note_on_c, 9, 42, 35
7, 4174, Note_on_c, 9, 42, 0
7, 4192, Note_on_c, 9, 46, 97
7, 4205, Note_on_c, 9, 46, 0
7, 4224, Note_on_c, 9, 51, 117
7, 4224, Note_on_c, 9, 36, 117
7, 4224, Note_on_c, 9, 42, 36
7, 4234, Note_on_c, 9, 36, 0
7, 4234, Note_on_c, 9, 51, 0
7, 4235, Note_on_c, 9, 42, 0
7, 4256, Note_on_c, 9, 42, 21
7, 4266, Note_on_c, 9, 42, 0
7, 4288, Note_on_c, 9, 42, 26
7, 4301, Note_on_c, 9, 42, 0
7, 4320, Note_on_c, 9, 37, 117
7, 4320, Note_on_c, 9, 42, 117
7, 4329, Note_on_c, 9, 37, 0
7, 4334, Note_on_c, 9, 42, 0
7, 4352, Note_on_c, 9, 42, 20
7, 4361, Note_on_c, 9, 42, 0
7, 4384, Note_on_c, 9, 36, 117
7, 4384, Note_on_c, 9, 42, 21
7, 4393, Note_on_c, 9, 42, 0
7, 4394, Note_on_c, 9, 36, 0
7, 4416, Note_on_c, 9, 36, 117
7, 4416, Note_on_c, 9, 42, 36
7, 4426, Note_on_c, 9, 36, 0
7, 4428, Note_on_c, 9, 42, 0
7, 4448, Note_on_c, 9, 42, 21
7, 4457, Note_on_c, 9, 42, 0
7, 4480, Note_on_c, 9, 42, 32
7, 4492, Note_on_c, 9, 42, 0
7, 4512, Note_on_c, 9, 42, 117
7, 4512, Note_on_c, 9, 37, 117
7, 4521, Note_on_c, 9, 37, 0
7, 4527, Note_on_c, 9, 42, 0
7, 4544, Note_on_c, 9, 42, 24
7, 4554, Note_on_c, 9, 42, 0
7, 4576, Note_on_c, 9, 42, 35
7, 4588, Note_on_c, 9, 42, 0
7, 4608, Note_on_c, 9, 36, 117
7, 4608, Note_on_c, 9, 42, 39
7, 4619, Note_on_c, 9, 36, 0
7, 4620, Note_on_c, 9, 42, 0
7, 4640, Note_on_c, 9, 42, 21
7, 4650, Note_on_c, 9, 42, 0
7, 4672, Note_on_c, 9, 42, 26
7, 4682, Note_on_c, 9, 42, 0
7, 4704, Note_on_c, 9, 37, 117
7, 4704, Note_on_c, 9, 42, 117
7, 4712, Note_on_c, 9, 37, 0
7, 4717, Note_on_c, 9, 42, 0
7, 4736, Note_on_c, 9, 42, 24
7, 4745, Note_on_c, 9, 42, 0
7, 4768, Note_on_c, 9, 42, 27
7, 4768, Note_on_c, 9, 36, 117
7, 4778, Note_on_c, 9, 36, 0
7, 4778, Note_on_c, 9, 42, 0
7, 4800, Note_on_c, 9, 36, 117
7, 4800, Note_on_c, 9, 42, 35
7, 4810, Note_on_c, 9, 36, 0
7, 4811, Note_on_c, 9, 42, 0
7, 4832, Note_on_c, 9, 42, 24
7, 4841, Note_on_c, 9, 42, 0
7, 4864, Note_on_c, 9, 42, 35
7, 4879, Note_on_c, 9, 42, 0
7, 4896, Note_on_c, 9, 42, 117
7, 4896, Note_on_c, 9, 37, 117
7, 4903, Note_on_c, 9, 37, 0
7, 4911, Note_on_c, 9, 42, 0
7, 4928, Note_on_c, 9, 42, 35
7, 4942, Note_on_c, 9, 42, 0
7, 4960, Note_on_c, 9, 46, 97
7, 4973, Note_on_c, 9, 46, 0
7, 4992, Note_on_c, 9, 36, 117
7, 4992, Note_on_c, 9, 42, 36
7, 4992, Note_on_c, 9, 51, 117
7, 5002, Note_on_c, 9, 51, 0
7, 5002, Note_on_c, 9, 36, 0
7, 5003, Note_on_c, 9, 42, 0
7, 5024, Note_on_c, 9, 42, 21
7, 5034, Note_on_c, 9, 42, 0
7, 5056, Note_on_c, 9, 42, 26
7, 5069, Note_on_c, 9, 42, 0
7, 5088, Note_on_c, 9, 37, 117
7, 5088, Note_on_c, 9, 42, 117
7, 5097, Note_on_c, 9, 37, 0
7, 5102, Note_on_c, 9, 42, 0
7, 5120, Note_on_c, 9, 42, 20
7, 5129, Note_on_c, 9, 42, 0
7, 5152, Note_on_c, 9, 36, 117
7, 5152, Note_on_c, 9, 42, 21
7, 5161, Note_on_c, 9, 42, 0
7, 5162, Note_on_c, 9, 36, 0
7, 5184, Note_on_c, 9, 42, 36
7, 5184, Note_on_c, 9, 36, 117
7, 5194, Note_on_c, 9, 36, 0
7, 5196, Note_on_c, 9, 42, 0
7, 5216, Note_on_c, 9, 42, 21
7, 5225, Note_on_c, 9, 42, 0
7, 5248, Note_on_c, 9, 42, 32
7, 5260, Note_on_c, 9, 42, 0
7, 5280, Note_on_c, 9, 37, 117
7, 5280, Note_on_c, 9, 42, 117
7, 5289, Note_on_c, 9, 37, 0
7, 5295, Note_on_c, 9, 42, 0
7, 5312, Note_on_c, 9, 42, 24
7, 5322, Note_on_c, 9, 42, 0
7, 5344, Note_on_c, 9, 42, 35
7, 5356, Note_on_c, 9, 42, 0
7, 5376, Note_on_c, 9, 36, 117
7, 5376, Note_on_c, 9, 42, 39
7, 5387, Note_on_c, 9, 36, 0
7, 5388, Note_on_c, 9, 42, 0
7, 5408, Note_on_c, 9, 42, 21
7, 5418, Note_on_c, 9, 42, 0
7, 5440, Note_on_c, 9, 42, 26
7, 5450, Note_on_c, 9, 42, 0
7, 5472, Note_on_c, 9, 37, 117
7, 5472, Note_on_c, 9, 42, 117
7, 5480, Note_on_c, 9, 37, 0
7, 5485, Note_on_c, 9, 42, 0
7, 5504, Note_on_c, 9, 42, 24
7, 5513, Note_on_c, 9, 42, 0
7, 5536, Note_on_c, 9, 36, 117
7, 5536, Note_on_c, 9, 42, 27
7, 5546, Note_on_c, 9, 42, 0
7, 5546, Note_on_c, 9, 36, 0
7, 5568, Note_on_c, 9, 36, 117
7, 5568, Note_on_c, 9, 42, 35
7, 5578, Note_on_c, 9, 36, 0
7, 5579, Note_on_c, 9, 42, 0
7, 5600, Note_on_c, 9, 42, 24
7, 5609, Note_on_c, 9, 42, 0
7, 5632, Note_on_c, 9, 42, 35
7, 5647, Note_on_c, 9, 42, 0
7, 5664, Note_on_c, 9, 42, 117
7, 5664, Note_on_c, 9, 37, 117
7, 5671, Note_on_c, 9, 37, 0
7, 5679, Note_on_c, 9, 42, 0
7, 5696, Note_on_c, 9, 42, 35
7, 5710, Note_on_c, 9, 42, 0
7, 5728, Note_on_c, 9, 46, 97
7, 5741, Note_on_c, 9, 46, 0
7, 5760, Note_on_c, 9, 36, 117
7, 5760, Note_on_c, 9, 42, 36
7, 5760, Note_on_c, 9, 51, 117
7, 5770, Note_on_c, 9, 51, 0
7, 5770, Note_on_c, 9, 36, 0
7, 5771, Note_on_c, 9, 42, 0
7, 5792, Note_on_c, 9, 42, 21
7, 5802, Note_on_c, 9, 42, 0
7, 5824, Note_on_c, 9, 42, 26
7, 5837, Note_on_c, 9, 42, 0
7, 5856, Note_on_c, 9, 37, 117
7, 5856, Note_on_c, 9, 42, 117
7, 5865, Note_on_c, 9, 37, 0
7, 5870, Note_on_c, 9, 42, 0
7, 5888, Note_on_c, 9, 42, 20
7, 5897, Note_on_c, 9, 42, 0
7, 5920, Note_on_c, 9, 36, 117
7, 5920, Note_on_c, 9, 42, 21
7, 5929, Note_on_c, 9, 42, 0
7, 5930, Note_on_c, 9, 36, 0
7, 5952, Note_on_c, 9, 36, 117
7, 5952, Note_on_c, 9, 42, 36
7, 5962, Note_on_c, 9, 36, 0
7, 5964, Note_on_c, 9, 42, 0
7, 5984, Note_on_c, 9, 42, 21
7, 5993, Note_on_c, 9, 42, 0
7, 6016, Note_on_c, 9, 42, 32
7, 6028, Note_on_c, 9, 42, 0
7, 6048, Note_on_c, 9, 37, 117
7, 6048, Note_on_c, 9, 42, 117
7, 6057, Note_on_c, 9, 37, 0
7, 6063, Note_on_c, 9, 42, 0
7, 6080, Note_on_c, 9, 42, 24
7, 6090, Note_on_c, 9, 42, 0
7, 6112, Note_on_c, 9, 42, 35
7, 6124, Note_on_c, 9, 42, 0
7, 6144, Note_on_c, 9, 36, 117
7, 6144, Note_on_c, 9, 42, 39
7, 6155, Note_on_c, 9, 36, 0
7, 6156, Note_on_c, 9, 42, 0
7, 6176, Note_on_c, 9, 42, 21
7, 6186, Note_on_c, 9, 42, 0
7, 6208, Note_on_c, 9, 42, 26
7, 6218, Note_on_c, 9, 42, 0
7, 6240, Note_on_c, 9, 42, 117
7, 6240, Note_on_c, 9, 37, 117
7, 6248, Note_on_c, 9, 37, 0
7, 6253, Note_on_c, 9, 42, 0
7, 6272, Note_on_c, 9, 42, 24
7, 6281, Note_on_c, 9, 42, 0
7, 6304, Note_on_c, 9, 36, 117
7, 6304, Note_on_c, 9, 42, 27
7, 6314, Note_on_c, 9, 42, 0
7, 6314, Note_on_c, 9, 36, 0
7, 6336, Note_on_c, 9, 42, 35
7, 6336, Note_on_c, 9, 36, 117
7, 6346, Note_on_c, 9, 36, 0
7, 6347, Note_on_c, 9, 42, 0
7, 6368, Note_on_c, 9, 42, 24
7, 6377, Note_on_c, 9, 42, 0
7, 6400, Note_on_c, 9, 42, 35
7, 6415, Note_on_c, 9, 42, 0
7, 6432, Note_on_c, 9, 42, 117
7, 6432, Note_on_c, 9, 37, 117
7, 6439, Note_on_c, 9, 37, 0
7, 6447, Note_on_c, 9, 42, 0
7, 6464, Note_on_c, 9, 42, 35
7, 6478, Note_on_c, 9, 42, 0
7, 6496, Note_on_c, 9, 46, 97
7, 6509, Note_on_c, 9, 46, 0
7, 6528, Note_on_c, 9, 36, 117
7, 6528, Note_on_c, 9, 42, 36
7, 6528, Note_on_c, 9, 51, 117
7, 6538, Note_on_c, 9, 51, 0
7, 6538, Note_on_c, 9, 36, 0
7, 6539, Note_on_c, 9, 42, 0
7, 6560, Note_on_c, 9, 42, 21
7, 6570, Note_on_c, 9, 42, 0
7, 6592, Note_on_c, 9, 42, 26
7, 6605, Note_on_c, 9, 42, 0
7, 6624, Note_on_c, 9, 37, 117
7, 6624, Note_on_c, 9, 42, 117
7, 6633, Note_on_c, 9, 37, 0
7, 6638, Note_on_c, 9, 42, 0
7, 6656, Note_on_c, 9, 42, 20
7, 6665, Note_on_c, 9, 42, 0
7, 6688, Note_on_c, 9, 36, 117
7, 6688, Note_on_c, 9, 42, 21
7, 6697, Note_on_c, 9, 42, 0
7, 6698, Note_on_c, 9, 36, 0
7, 6720, Note_on_c, 9, 36, 117
7, 6720, Note_on_c, 9, 42, 36
7, 6730, Note_on_c, 9, 36, 0
7, 6732, Note_on_c, 9, 42, 0
7, 6752, Note_on_c, 9, 42, 21
7, 6761, Note_on_c, 9, 42, 0
7, 6784, Note_on_c, 9, 42, 32
7, 6796, Note_on_c, 9, 42, 0
7, 6816, Note_on_c, 9, 37, 117
7, 6816, Note_on_c, 9, 42, 117
7, 6825, Note_on_c, 9, 37, 0
7, 6831, Note_on_c, 9, 42, 0
7, 6848, Note_on_c, 9, 42, 24
7, 6858, Note_on_c, 9, 42, 0
7, 6880, Note_on_c, 9, 42, 35
7, 6892, Note_on_c, 9, 42, 0
7, 6912, Note_on_c, 9, 42, 117
7, 6926, Note_on_c, 9, 42, 0
7, 7008, Note_on_c, 9, 51, 117
7, 7008, Note_on_c, 9, 42, 117
7, 7008, Note_on_c, 9, 36, 117
7, 7017, Note_on_c, 9, 51, 0
7, 7018, Note_on_c, 9, 42, 0
7, 7032, Note_on_c, 9, 36, 0
7, 7040, Note_on_c, 9, 42, 117
7, 7052, Note_on_c, 9, 42, 0
7, 7072, Note_on_c, 9, 46, 97
7, 7081, Note_on_c, 9, 46, 0
7, 7104, Note_on_c, 9, 51, 117
7, 7104, Note_on_c, 9, 42, 117
7, 7104, Note_on_c, 9, 36, 117
7, 7113, Note_on_c, 9, 42, 0
7, 7113, Note_on_c, 9, 51, 0
7, 7118, Note_on_c, 9, 36, 0
7, 7136, Note_on_c, 9, 42, 117
7, 7146, Note_on_c, 9, 42, 0
7, 7168, Note_on_c, 9, 46, 92
7, 7178, Note_on_c, 9, 46, 0
7, 7200, Note_on_c, 9, 42, 117
7, 7200, Note_on_c, 9, 36, 117
7, 7200, Note_on_c, 9, 51, 117
7, 7208, Note_on_c, 9, 42, 0
7, 7209, Note_on_c, 9, 51, 0
7, 7213, Note_on_c, 9, 36, 0
7, 7232, Note_on_c, 9, 42, 117
7, 7244, Note_on_c, 9, 42, 0
7, 7264, Note_on_c, 9, 46, 92
7, 7273, Note_on_c, 9, 46, 0
7, 7296, Note_on_c, 9, 42, 36
7, 7296, Note_on_c, 9, 36, 117
7, 7296, Note_on_c, 9, 51, 117
7, 7306, Note_on_c, 9, 51, 0
7, 7306, Note_on_c, 9, 36, 0
7, 7307, Note_on_c, 9, 42, 0
7, 7328, Note_on_c, 9, 42, 21
7, 7338, Note_on_c, 9, 42, 0
7, 7360, Note_on_c, 9, 42, 26
7, 7373, Note_on_c, 9, 42, 0
7, 7392, Note_on_c, 9, 37, 117
7, 7392, Note_on_c, 9, 42, 117
7, 7401, Note_on_c, 9, 37, 0
7, 7406, Note_on_c, 9, 42, 0
7, 7424, Note_on_c, 9, 42, 20
7, 7433, Note_on_c, 9, 42, 0
7, 7456, Note_on_c, 9, 36, 117
7, 7456, Note_on_c, 9, 42, 21
7, 7465, Note_on_c, 9, 42, 0
7, 7466, Note_on_c, 9, 36, 0
7, 7488, Note_on_c, 9, 36, 117
7, 7488, Note_on_c, 9, 42, 36
7, 7498, Note_on_c, 9, 36, 0
7, 7500, Note_on_c, 9, 42, 0
7, 7520, Note_on_c, 9, 42, 21
7, 7529, Note_on_c, 9, 42, 0
7, 7552, Note_on_c, 9, 42, 32
7, 7564, Note_on_c, 9, 42, 0
7, 7584, Note_on_c, 9, 37, 117
7, 7584, Note_on_c, 9, 42, 117
7, 7593, Note_on_c, 9, 37, 0
7, 7599, Note_on_c, 9, 42, 0
7, 7616, Note_on_c, 9, 42, 24
7, 7626, Note_on_c, 9, 42, 0
7, 7648, Note_on_c, 9, 42, 35
7, 7660, Note_on_c, 9, 42, 0
7, 7680, Note_on_c, 9, 36, 117
7, 7680, Note_on_c, 9, 42, 39
7, 7691, Note_on_c, 9, 36, 0
7, 7692, Note_on_c, 9, 42, 0
7, 7712, Note_on_c, 9, 42, 21
7, 7722, Note_on_c, 9, 42, 0
7, 7744, Note_on_c, 9, 42, 26
7, 7754, Note_on_c, 9, 42, 0
7, 7776, Note_on_c, 9, 42, 117
7, 7776, Note_on_c, 9, 37, 117
7, 7784, Note_on_c, 9, 37, 0
7, 7789, Note_on_c, 9, 42, 0
7, 7808, Note_on_c, 9, 42, 24
7, 7817, Note_on_c, 9, 42, 0
7, 7840, Note_on_c, 9, 42, 27
7, 7840, Note_on_c, 9, 36, 117
7, 7850, Note_on_c, 9, 36, 0
7, 7850, Note_on_c, 9, 42, 0
7, 7872, Note_on_c, 9, 36, 117
7, 7872, Note_on_c, 9, 42, 35
7, 7882, Note_on_c, 9, 36, 0
7, 7883, Note_on_c, 9, 42, 0
7, 7904, Note_on_c, 9, 42, 24
7, 7913, Note_on_c, 9, 42, 0
7, 7936, Note_on_c, 9, 42, 35
7, 7951, Note_on_c, 9, 42, 0
7, 7968, Note_on_c, 9, 37, 117
7, 7968, Note_on_c, 9, 42, 117
7, 7975, Note_on_c, 9, 37, 0
7, 7983, Note_on_c, 9, 42, 0
7, 8000, Note_on_c, 9, 42, 35
7, 8014, Note_on_c, 9, 42, 0
7, 8032, Note_on_c, 9, 46, 97
7, 8045, Note_on_c, 9, 46, 0
7, 8064, Note_on_c, 9, 42, 36
7, 8064, Note_on_c, 9, 36, 117
7, 8064, Note_on_c, 9, 51, 117
7, 8074, Note_on_c, 9, 51, 0
7, 8074, Note_on_c, 9, 36, 0
7, 8075, Note_on_c, 9, 42, 0
7, 8096, Note_on_c, 9, 42, 21
7, 8106, Note_on_c, 9, 42, 0
7, 8128, Note_on_c, 9, 42, 26
7, 8141, Note_on_c, 9, 42, 0
7, 8160, Note_on_c, 9, 37, 117
7, 8160, Note_on_c, 9, 42, 117
7, 8169, Note_on_c, 9, 37, 0
7, 8174, Note_on_c, 9, 42, 0
7, 8192, Note_on_c, 9, 42, 20
7, 8201, Note_on_c, 9, 42, 0
7, 8224, Note_on_c, 9, 36, 117
7, 8224, Note_on_c, 9, 42, 21
7, 8233, Note_on_c, 9, 42, 0
7, 8234, Note_on_c, 9, 36, 0
7, 8256, Note_on_c, 9, 36, 117
7, 8256, Note_on_c, 9, 42, 36
7, 8266, Note_on_c, 9, 36, 0
7, 8268, Note_on_c, 9, 42, 0
7, 8288, Note_on_c, 9, 42, 21
7, 8297, Note_on_c, 9, 42, 0
7, 8320, Note_on_c, 9, 42, 32
7, 8332, Note_on_c, 9, 42, 0
7, 8352, Note_on_c, 9, 37, 117
7, 8352, Note_on_c, 9, 42, 117
7, 8361, Note_on_c, 9, 37, 0
7, 8367, Note_on_c, 9, 42, 0
7, 8384, Note_on_c, 9, 42, 24
7, 8394, Note_on_c, 9, 42, 0
7, 8416, Note_on_c, 9, 42, 35
7, 8428, Note_on_c, 9, 42, 0
7, 8448, Note_on_c, 9, 36, 117
7, 8448, Note_on_c, 9, 42, 39
7, 8459, Note_on_c, 9, 36, 0
7, 8460, Note_on_c, 9, 42, 0
7, 8480, Note_on_c, 9, 42, 21
7, 8490, Note_on_c, 9, 42, 0
7, 8512, Note_on_c, 9, 42, 26
7, 8522, Note_on_c, 9, 42, 0
7, 8544, Note_on_c, 9, 37, 117
7, 8544, Note_on_c, 9, 42, 117
7, 8552, Note_on_c, 9, 37, 0
7, 8557, Note_on_c, 9, 42, 0
7, 8576, Note_on_c, 9, 42, 24
7, 8585, Note_on_c, 9, 42, 0
7, 8608, Note_on_c, 9, 36, 117
7, 8608, Note_on_c, 9, 42, 27
7, 8618, Note_on_c, 9, 42, 0
7, 8618, Note_on_c, 9, 36, 0
7, 8640, Note_on_c, 9, 36, 117
7, 8640, Note_on_c, 9, 42, 35
7, 8650, Note_on_c, 9, 36, 0
7, 8651, Note_on_c, 9, 42, 0
7, 8672, Note_on_c, 9, 42, 24
7, 8681, Note_on_c, 9, 42, 0
7, 8704, Note_on_c, 9, 42, 35
7, 8719, Note_on_c, 9, 42, 0
7, 8736, Note_on_c, 9, 37, 117
7, 8736, Note_on_c, 9, 42, 117
7, 8743, Note_on_c, 9, 37, 0
7, 8751, Note_on_c, 9, 42, 0
7, 8768, Note_on_c, 9, 42, 35
7, 8782, Note_on_c, 9, 42, 0
7, 8800, Note_on_c, 9, 46, 97
7, 8813, Note_on_c, 9, 46, 0
7, 8832, Note_on_c, 9, 51, 117
7, 8832, Note_on_c, 9, 36, 117
7, 8832, Note_on_c, 9, 42, 36
7, 8842, Note_on_c, 9, 36, 0
7, 8842, Note_on_c, 9, 51, 0
7, 8843, Note_on_c, 9, 42, 0
7, 8864, Note_on_c, 9, 42, 21
7, 8874, Note_on_c, 9, 42, 0
7, 8896, Note_on_c, 9, 42, 26
7, 8909, Note_on_c, 9, 42, 0
7, 8928, Note_on_c, 9, 37, 117
7, 8928, Note_on_c, 9, 42, 117
7, 8937, Note_on_c, 9, 37, 0
7, 8942, Note_on_c, 9, 42, 0
7, 8960, Note_on_c, 9, 42, 20
7, 8969, Note_on_c, 9, 42, 0
7, 8992, Note_on_c, 9, 42, 21
7, 8992, Note_on_c, 9, 36, 117
7, 9001, Note_on_c, 9, 42, 0
7, 9002, Note_on_c, 9, 36, 0
7, 9024, Note_on_c, 9, 36, 117
7, 9024, Note_on_c, 9, 42, 36
7, 9034, Note_on_c, 9, 36, 0
7, 9036, Note_on_c, 9, 42, 0
7, 9056, Note_on_c, 9, 42, 21
7, 9065, Note_on_c, 9, 42, 0
7, 9088, Note_on_c, 9, 42, 32
7, 9100, Note_on_c, 9, 42, 0
7, 9120, Note_on_c, 9, 37, 117
7, 9120, Note_on_c, 9, 42, 117
7, 9129, Note_on_c, 9, 37, 0
7, 9135, Note_on_c, 9, 42, 0
7, 9152, Note_on_c, 9, 42, 24
7, 9162, Note_on_c, 9, 42, 0
7, 9184, Note_on_c, 9, 42, 35
7, 9196, Note_on_c, 9, 42, 0
7, 9216, Note_on_c, 9, 42, 39
7, 9216, Note_on_c, 9, 36, 117
7, 9227, Note_on_c, 9, 36, 0
7, 9228, Note_on_c, 9, 42, 0
7, 9248, Note_on_c, 9, 42, 21
7, 9258, Note_on_c, 9, 42, 0
7, 9280, Note_on_c, 9, 42, 26
7, 9290, Note_on_c, 9, 42, 0
7, 9312, Note_on_c, 9, 37, 117
7, 9312, Note_on_c, 9, 42, 117
7, 9320, Note_on_c, 9, 37, 0
7, 9325, Note_on_c, 9, 42, 0
7, 9344, Note_on_c, 9, 42, 24
7, 9353, Note_on_c, 9, 42, 0
7, 9376, Note_on_c, 9, 42, 27
7, 9376, Note_on_c, 9, 36, 117
7, 9386, Note_on_c, 9, 36, 0
7, 9386, Note_on_c, 9, 42, 0
7, 9408, Note_on_c, 9, 36, 117
7, 9408, Note_on_c, 9, 42, 35
7, 9418, Note_on_c, 9, 36, 0
7, 9419, Note_on_c, 9, 42, 0
7, 9440, Note_on_c, 9, 42, 24
7, 9449, Note_on_c, 9, 42, 0
7, 9472, Note_on_c, 9, 42, 35
7, 9487, Note_on_c, 9, 42, 0
7, 9504, Note_on_c, 9, 42, 117
7, 9504, Note_on_c, 9, 37, 117
7, 9511, Note_on_c, 9, 37, 0
7, 9519, Note_on_c, 9, 42, 0
7, 9536, Note_on_c, 9, 42, 35
7, 9550, Note_on_c, 9, 42, 0
7, 9568, Note_on_c, 9, 46, 97
7, 9581, Note_on_c, 9, 46, 0
7, 9600, Note_on_c, 9, 42, 36
7, 9600, Note_on_c, 9, 51, 117
7, 9600, Note_on_c, 9, 36, 117
7, 9610, Note_on_c, 9, 36, 0
7, 9610, Note_on_c, 9, 51, 0
7, 9611, Note_on_c, 9, 42, 0
7, 9632, Note_on_c, 9, 42, 21
7, 9642, Note_on_c, 9, 42, 0
7, 9664, Note_on_c, 9, 42, 26
7, 9677, Note_on_c, 9, 42, 0
7, 9696, Note_on_c, 9, 42, 117
7, 9696, Note_on_c, 9, 37, 117
7, 9705, Note_on_c, 9, 37, 0
7, 9710, Note_on_c, 9, 42, 0
7, 9728, Note_on_c, 9, 42, 20
7, 9737, Note_on_c, 9, 42, 0
7, 9760, Note_on_c, 9, 36, 117
7, 9760, Note_on_c, 9, 42, 21
7, 9769, Note_on_c, 9, 42, 0
7, 9770, Note_on_c, 9, 36, 0
7, 9792, Note_on_c, 9, 36, 117
7, 9792, Note_on_c, 9, 42, 36
7, 9802, Note_on_c, 9, 36, 0
7, 9804, Note_on_c, 9, 42, 0
7, 9824, Note_on_c, 9, 42, 21
7, 9833, Note_on_c, 9, 42, 0
7, 9856, Note_on_c, 9, 42, 32
7, 9868, Note_on_c, 9, 42, 0
7, 9888, Note_on_c, 9, 37, 117
7, 9888, Note_on_c, 9, 42, 117
7, 9897, Note_on_c, 9, 37, 0
7, 9903, Note_on_c, 9, 42, 0
7, 9920, Note_on_c, 9, 42, 24
7, 9930, Note_on_c, 9, 42, 0
7, 9952, Note_on_c, 9, 42, 35
7, 9964, Note_on_c, 9, 42, 0
7, 9984, Note_on_c, 9, 42, 39
7, 9984, Note_on_c, 9, 36, 117
7, 9995, Note_on_c, 9, 36, 0
7, 9996, Note_on_c, 9, 42, 0
7, 10016, Note_on_c, 9, 42, 21
7, 10026, Note_on_c, 9, 42, 0
7, 10048, Note_on_c, 9, 42, 26
7, 10058, Note_on_c, 9, 42, 0
7, 10080, Note_on_c, 9, 37, 117
7, 10080, Note_on_c, 9, 42, 117
7, 10088, Note_on_c, 9, 37, 0
7, 10093, Note_on_c, 9, 42, 0
7, 10112, Note_on_c, 9, 42, 24
7, 10121, Note_on_c, 9, 42, 0
7, 10144, Note_on_c, 9, 36, 117
7, 10144, Note_on_c, 9, 42, 27
7, 10154, Note_on_c, 9, 42, 0
7, 10154, Note_on_c, 9, 36, 0
7, 10176, Note_on_c, 9, 36, 117
7, 10176, Note_on_c, 9, 42, 35
7, 10186, Note_on_c, 9, 36, 0
7, 10187, Note_on_c, 9, 42, 0
7, 10208, Note_on_c, 9, 42, 24
7, 10217, Note_on_c, 9, 42, 0
7, 10240, Note_on_c, 9, 42, 35
7, 10255, Note_on_c, 9, 42, 0
7, 10272, Note_on_c, 9, 37, 117
7, 10272, Note_on_c, 9, 42, 117
7, 10279, Note_on_c, 9, 37, 0
7, 10287, Note_on_c, 9, 42, 0
7, 10304, Note_on_c, 9, 42, 35
7, 10318, Note_on_c, 9, 42, 0
7, 10336, Note_on_c, 9, 46, 97
7, 10349, Note_on_c, 9, 46, 0
7, 10368, Note_on_c, 9, 36, 117
7, 10368, Note_on_c, 9, 42, 36
7, 10368, Note_on_c, 9, 51, 117
7, 10378, Note_on_c, 9, 51, 0
7, 10378, Note_on_c, 9, 36, 0
7, 10379, Note_on_c, 9, 42, 0
7, 10400, Note_on_c, 9, 42, 21
7, 10410, Note_on_c, 9, 42, 0
7, 10432, Note_on_c, 9, 42, 26
7, 10445, Note_on_c, 9, 42, 0
7, 10464, Note_on_c, 9, 37, 117
7, 10464, Note_on_c, 9, 42, 117
7, 10473, Note_on_c, 9, 37, 0
7, 10478, Note_on_c, 9, 42, 0
7, 10496, Note_on_c, 9, 42, 20
7, 10505, Note_on_c, 9, 42, 0
7, 10528, Note_on_c, 9, 36, 117
7, 10528, Note_on_c, 9, 42, 21
7, 10537, Note_on_c, 9, 42, 0
7, 10538, Note_on_c, 9, 36, 0
7, 10560, Note_on_c, 9, 42, 36
7, 10560, Note_on_c, 9, 36, 117
7, 10570, Note_on_c, 9, 36, 0
7, 10572, Note_on_c, 9, 42, 0
7, 10592, Note_on_c, 9, 42, 21
7, 10601, Note_on_c, 9, 42, 0
7, 10624, Note_on_c, 9, 42, 32
7, 10636, Note_on_c, 9, 42, 0
7, 10656, Note_on_c, 9, 42, 117
7, 10656, Note_on_c, 9, 37, 117
7, 10665, Note_on_c, 9, 37, 0
7, 10671, Note_on_c, 9, 42, 0
7, 10688, Note_on_c, 9, 42, 24
7, 10698, Note_on_c, 9, 42, 0
7, 10720, Note_on_c, 9, 42, 35
7, 10732, Note_on_c, 9, 42, 0
7, 10752, Note_on_c, 9, 36, 117
7, 10752, Note_on_c, 9, 42, 39
7, 10763, Note_on_c, 9, 36, 0
7, 10764, Note_on_c, 9, 42, 0
7, 10784, Note_on_c, 9, 42, 21
7, 10794, Note_on_c, 9, 42, 0
7, 10816, Note_on_c, 9, 42, 26
7, 10826, Note_on_c, 9, 42, 0
7, 10848, Note_on_c, 9, 37, 117
7, 10848, Note_on_c, 9, 42, 117
7, 10856, Note_on_c, 9, 37, 0
7, 10861, Note_on_c, 9, 42, 0
7, 10880, Note_on_c, 9, 42, 24
7, 10889, Note_on_c, 9, 42, 0
7, 10912, Note_on_c, 9, 36, 117
7, 10912, Note_on_c, 9, 42, 27
7, 10922, Note_on_c, 9, 42, 0
7, 10922, Note_on_c, 9, 36, 0
7, 10944, Note_on_c, 9, 36, 117
7, 10944, Note_on_c, 9, 42, 35
7, 10954, Note_on_c, 9, 36, 0
7, 10955, Note_on_c, 9, 42, 0
7, 10976, Note_on_c, 9, 42, 24
7, 10985, Note_on_c, 9, 42, 0
7, 11008, Note_on_c, 9, 42, 35
7, 11023, Note_on_c, 9, 42, 0
7, 11040, Note_on_c, 9, 37, 117
7, 11040, Note_on_c, 9, 42, 117
7, 11047, Note_on_c, 9, 37, 0
7, 11055, Note_on_c, 9, 42, 0
7, 11072, Note_on_c, 9, 42, 35
7, 11086, Note_on_c, 9, 42, 0
7, 11104, Note_on_c, 9, 46, 97
7, 11117, Note_on_c, 9, 46, 0
7, 11136, Note_on_c, 9, 36, 117
7, 11136, Note_on_c, 9, 42, 36
7, 11136, Note_on_c, 9, 51, 117
7, 11146, Note_on_c, 9, 51, 0
7, 11146, Note_on_c, 9, 36, 0
7, 11147, Note_on_c, 9, 42, 0
7, 11168, Note_on_c, 9, 42, 21
7, 11178, Note_on_c, 9, 42, 0
7, 11200, Note_on_c, 9, 42, 26
7, 11213, Note_on_c, 9, 42, 0
7, 11232, Note_on_c, 9, 37, 117
7, 11232, Note_on_c, 9, 42, 117
7, 11241, Note_on_c, 9, 37, 0
7, 11246, Note_on_c, 9, 42, 0
7, 11264, Note_on_c, 9, 42, 20
7, 11273, Note_on_c, 9, 42, 0
7, 11296, Note_on_c, 9, 36, 117
7, 11296, Note_on_c, 9, 42, 21
7, 11305, Note_on_c, 9, 42, 0
7, 11306, Note_on_c, 9, 36, 0
7, 11328, Note_on_c, 9, 42, 36
7, 11328, Note_on_c, 9, 36, 117
7, 11338, Note_on_c, 9, 36, 0
7, 11340, Note_on_c, 9, 42, 0
7, 11360, Note_on_c, 9, 42, 21
7, 11369, Note_on_c, 9, 42, 0
7, 11392, Note_on_c, 9, 42, 32
7, 11404, Note_on_c, 9, 42, 0
7, 11424, Note_on_c, 9, 37, 117
7, 11424, Note_on_c, 9, 42, 117
7, 11433, Note_on_c, 9, 37, 0
7, 11439, Note_on_c, 9, 42, 0
7, 11456, Note_on_c, 9, 42, 24
7, 11466, Note_on_c, 9, 42, 0
7, 11488, Note_on_c, 9, 42, 35
7, 11500, Note_on_c, 9, 42, 0
7, 11520, Note_on_c, 9, 36, 117
7, 11520, Note_on_c, 9, 42, 39
7, 11531, Note_on_c, 9, 36, 0
7, 11532, Note_on_c, 9, 42, 0
7, 11552, Note_on_c, 9, 42, 21
7, 11562, Note_on_c, 9, 42, 0
7, 11584, Note_on_c, 9, 42, 26
7, 11594, Note_on_c, 9, 42, 0
7, 11616, Note_on_c, 9, 42, 117
7, 11616, Note_on_c, 9, 37, 117
7, 11624, Note_on_c, 9, 37, 0
7, 11629, Note_on_c, 9, 42, 0
7, 11648, Note_on_c, 9, 42, 24
7, 11657, Note_on_c, 9, 42, 0
7, 11680, Note_on_c, 9, 36, 117
7, 11680, Note_on_c, 9, 42, 27
7, 11690, Note_on_c, 9, 42, 0
7, 11690, Note_on_c, 9, 36, 0
7, 11712, Note_on_c, 9, 36, 117
7, 11712, Note_on_c, 9, 42, 35
7, 11722, Note_on_c, 9, 36, 0
7, 11723, Note_on_c, 9, 42, 0
7, 11744, Note_on_c, 9, 42, 24
7, 11753, Note_on_c, 9, 42, 0
7, 11776, Note_on_c, 9, 42, 35
7, 11791, Note_on_c, 9, 42, 0
7, 11808, Note_on_c, 9, 37, 117
7, 11808, Note_on_c, 9, 42, 117
7, 11815, Note_on_c, 9, 37, 0
7, 11823, Note_on_c, 9, 42, 0
7, 11840, Note_on_c, 9, 42, 35
7, 11854, Note_on_c, 9, 42, 0
7, 11872, Note_on_c, 9, 46, 97
7, 11885, Note_on_c, 9, 46, 0
7, 11904, Note_on_c, 9, 42, 36
7, 11904, Note_on_c, 9, 36, 117
7, 11904, Note_on_c, 9, 51, 117
7, 11914, Note_on_c, 9, 51, 0
7, 11914, Note_on_c, 9, 36, 0
7, 11915, Note_on_c, 9, 42, 0
7, 11936, Note_on_c, 9, 42, 21
7, 11946, Note_on_c, 9, 42, 0
7, 11968, Note_on_c, 9, 42, 26
7, 11981, Note_on_c, 9, 42, 0
7, 12000, Note_on_c, 9, 37, 117
7, 12000, Note_on_c, 9, 42, 117
7, 12009, Note_on_c, 9, 37, 0
7, 12014, Note_on_c, 9, 42, 0
7, 12032, Note_on_c, 9, 42, 20
7, 12041, Note_on_c, 9, 42, 0
7, 12064, Note_on_c, 9, 36, 117
7, 12064, Note_on_c, 9, 42, 21
7, 12073, Note_on_c, 9, 42, 0
7, 12074, Note_on_c, 9, 36, 0
7, 12096, Note_on_c, 9, 36, 117
7, 12096, Note_on_c, 9, 42, 36
7, 12106, Note_on_c, 9, 36, 0
7, 12108, Note_on_c, 9, 42, 0
7, 12128, Note_on_c, 9, 42, 21
7, 12137, Note_on_c, 9, 42, 0
7, 12160, Note_on_c, 9, 42, 32
7, 12172, Note_on_c, 9, 42, 0
7, 12192, Note_on_c, 9, 37, 117
7, 12192, Note_on_c, 9, 42, 117
7, 12201, Note_on_c, 9, 37, 0
7, 12207, Note_on_c, 9, 42, 0
7, 12224, Note_on_c, 9, 42, 24
7, 12234, Note_on_c, 9, 42, 0
7, 12256, Note_on_c, 9, 42, 35
7, 12268, Note_on_c, 9, 42, 0
7, 12288, Note_on_c, 9, 36, 117
7, 12288, Note_on_c, 9, 42, 39
7, 12299, Note_on_c, 9, 36, 0
7, 12300, Note_on_c, 9, 42, 0
7, 12320, Note_on_c, 9, 42, 21
7, 12330, Note_on_c, 9, 42, 0
7, 12352, Note_on_c, 9, 42, 26
7, 12362, Note_on_c, 9, 42, 0
7, 12384, Note_on_c, 9, 37, 117
7, 12384, Note_on_c, 9, 42, 117
7, 12392, Note_on_c, 9, 37, 0
7, 12397, Note_on_c, 9, 42, 0
7, 12416, Note_on_c, 9, 42, 24
7, 12425, Note_on_c, 9, 42, 0
7, 12448, Note_on_c, 9, 36, 117
7, 12448, Note_on_c, 9, 42, 27
7, 12458, Note_on_c, 9, 42, 0
7, 12458, Note_on_c, 9, 36, 0
7, 12480, Note_on_c, 9, 42, 35
7, 12480, Note_on_c, 9, 36, 117
7, 12490, Note_on_c, 9, 36, 0
7, 12491, Note_on_c, 9, 42, 0
7, 12512, Note_on_c, 9, 42, 24
7, 12521, Note_on_c, 9, 42, 0
7, 12544, Note_on_c, 9, 42, 35
7, 12559, Note_on_c, 9, 42, 0
7, 12576, Note_on_c, 9, 37, 117
7, 12576, Note_on_c, 9, 42, 117
7, 12583, Note_on_c, 9, 37, 0
7, 12591, Note_on_c, 9, 42, 0
7, 12608, Note_on_c, 9, 42, 35
7, 12622, Note_on_c, 9, 42, 0
7, 12640, Note_on_c, 9, 46, 97
7, 12653, Note_on_c, 9, 46, 0
7, 12672, Note_on_c, 9, 51, 117
7, 12672, Note_on_c, 9, 42, 36
7, 12672, Note_on_c, 9, 36, 117
7, 12682, Note_on_c, 9, 36, 0
7, 12682, Note_on_c, 9, 51, 0
7, 12683, Note_on_c, 9, 42, 0
7, 12704, Note_on_c, 9, 42, 21
7, 12714, Note_on_c, 9, 42, 0
7, 12736, Note_on_c, 9, 42, 26
7, 12749, Note_on_c, 9, 42, 0
7, 12768, Note_on_c, 9, 37, 117
7, 12768, Note_on_c, 9, 42, 117
7, 12777, Note_on_c, 9, 37, 0
7, 12782, Note_on_c, 9, 42, 0
7, 12800, Note_on_c, 9, 42, 20
7, 12809, Note_on_c, 9, 42, 0
7, 12832, Note_on_c, 9, 42, 21
7, 12832, Note_on_c, 9, 36, 117
7, 12841, Note_on_c, 9, 42, 0
7, 12842, Note_on_c, 9, 36, 0
7, 12864, Note_on_c, 9, 36, 117
7, 12864, Note_on_c, 9, 42, 36
7, 12874, Note_on_c, 9, 36, 0
7, 12876, Note_on_c, 9, 42, 0
7, 12896, Note_on_c, 9, 42, 21
7, 12905, Note_on_c, 9, 42, 0
7, 12928, Note_on_c, 9, 42, 32
7, 12940, Note_on_c, 9, 42, 0
7, 12960, Note_on_c, 9, 37, 117
7, 12960, Note_on_c, 9, 42, 117
7, 12969, Note_on_c, 9, 37, 0
7, 12975, Note_on_c, 9, 42, 0
7, 12992, Note_on_c, 9, 42, 24
7, 13002, Note_on_c, 9, 42, 0
7, 13024, Note_on_c, 9, 42, 35
7, 13036, Note_on_c, 9, 42, 0
7, 13056, Note_on_c, 9, 42, 36
7, 13056, Note_on_c, 9, 51, 117
7, 13056, Note_on_c, 9, 36, 117
7, 13066, Note_on_c, 9, 36, 0
7, 13066, Note_on_c, 9, 51, 0
7, 13067, Note_on_c, 9, 42, 0
7, 13088, Note_on_c, 9, 42, 21
7, 13098, Note_on_c, 9, 42, 0
7, 13120, Note_on_c, 9, 42, 26
7, 13133, Note_on_c, 9, 42, 0
7, 13152, Note_on_c, 9, 42, 117
7, 13152, Note_on_c, 9, 37, 117
7, 13161, Note_on_c, 9, 37, 0
7, 13166, Note_on_c, 9, 42, 0
7, 13184, Note_on_c, 9, 42, 20
7, 13193, Note_on_c, 9, 42, 0
7, 13216, Note_on_c, 9, 42, 21
7, 13216, Note_on_c, 9, 36, 117
7, 13225, Note_on_c, 9, 42, 0
7, 13226, Note_on_c, 9, 36, 0
7, 13248, Note_on_c, 9, 36, 117
7, 13248, Note_on_c, 9, 42, 36
7, 13258, Note_on_c, 9, 36, 0
7, 13260, Note_on_c, 9, 42, 0
7, 13280, Note_on_c, 9, 42, 21
7, 13289, Note_on_c, 9, 42, 0
7, 13312, Note_on_c, 9, 42, 32
7, 13324, Note_on_c, 9, 42, 0
7, 13344, Note_on_c, 9, 37, 117
7, 13344, Note_on_c, 9, 42, 117
7, 13353, Note_on_c, 9, 37, 0
7, 13359, Note_on_c, 9, 42, 0
7, 13376, Note_on_c, 9, 42, 24
7, 13386, Note_on_c, 9, 42, 0
7, 13408, Note_on_c, 9, 42, 35
7, 13420, Note_on_c, 9, 42, 0
7, 13440, Note_on_c, 9, 42, 39
7, 13440, Note_on_c, 9, 36, 117
7, 13451, Note_on_c, 9, 36, 0
7, 13452, Note_on_c, 9, 42, 0
7, 13472, Note_on_c, 9, 42, 21
7, 13482, Note_on_c, 9, 42, 0
7, 13504, Note_on_c, 9, 42, 26
7, 13514, Note_on_c, 9, 42, 0
7, 13536, Note_on_c, 9, 37, 117
7, 13536, Note_on_c, 9, 42, 117
7, 13544, Note_on_c, 9, 37, 0
7, 13549, Note_on_c, 9, 42, 0
7, 13568, Note_on_c, 9, 42, 24
7, 13577, Note_on_c, 9, 42, 0
7, 13600, Note_on_c, 9, 42, 27
7, 13600, Note_on_c, 9, 36, 117
7, 13610, Note_on_c, 9, 36, 0
7, 13610, Note_on_c, 9, 42, 0
7, 13632, Note_on_c, 9, 42, 35
7, 13632, Note_on_c, 9, 36, 117
7, 13642, Note_on_c, 9, 36, 0
7, 13643, Note_on_c, 9, 42, 0
7, 13664, Note_on_c, 9, 42, 24
7, 13673, Note_on_c, 9, 42, 0
7, 13696, Note_on_c, 9, 42, 35
7, 13711, Note_on_c, 9, 42, 0
7, 13728, Note_on_c, 9, 37, 117
7, 13728, Note_on_c, 9, 42, 117
7, 13735, Note_on_c, 9, 37, 0
7, 13743, Note_on_c, 9, 42, 0
7, 13760, Note_on_c, 9, 42, 35
7, 13774, Note_on_c, 9, 42, 0
7, 13792, Note_on_c, 9, 46, 97
7, 13805, Note_on_c, 9, 46, 0
7, 13824, Note_on_c, 9, 42, 36
7, 13824, Note_on_c, 9, 51, 117
7, 13824, Note_on_c, 9, 36, 117
7, 13834, Note_on_c, 9, 36, 0
7, 13834, Note_on_c, 9, 51, 0
7, 13835, Note_on_c, 9, 42, 0
7, 13856, Note_on_c, 9, 42, 21
7, 13866, Note_on_c, 9, 42, 0
7, 13888, Note_on_c, 9, 42, 26
7, 13901, Note_on_c, 9, 42, 0
7, 13920, Note_on_c, 9, 37, 117
7, 13920, Note_on_c, 9, 42, 117
7, 13929, Note_on_c, 9, 37, 0
7, 13934, Note_on_c, 9, 42, 0
7, 13952, Note_on_c, 9, 42, 20
7, 13961, Note_on_c, 9, 42, 0
7, 13984, Note_on_c, 9, 36, 117
7, 13984, Note_on_c, 9, 42, 21
7, 13993, Note_on_c, 9, 42, 0
7, 13994, Note_on_c, 9, 36, 0
7, 14016, Note_on_c, 9, 42, 36
7, 14016, Note_on_c, 9, 36, 117
7, 14026, Note_on_c, 9, 36, 0
7, 14028, Note_on_c, 9, 42, 0
7, 14048, Note_on_c, 9, 42, 21
7, 14057, Note_on_c, 9, 42, 0
7, 14080, Note_on_c, 9, 42, 32
7, 14092, Note_on_c, 9, 42, 0
7, 14112, Note_on_c, 9, 37, 117
7, 14112, Note_on_c, 9, 42, 117
7, 14121, Note_on_c, 9, 37, 0
7, 14127, Note_on_c, 9, 42, 0
7, 14144, Note_on_c, 9, 42, 24
7, 14154, Note_on_c, 9, 42, 0
7, 14176, Note_on_c, 9, 42, 35
7, 14188, Note_on_c, 9, 42, 0
7, 14208, Note_on_c, 9, 36, 117
7, 14208, Note_on_c, 9, 42, 39
7, 14219, Note_on_c, 9, 36, 0
7, 14220, Note_on_c, 9, 42, 0
7, 14240, Note_on_c, 9, 42, 21
7, 14250, Note_on_c, 9, 42, 0
7, 14272, Note_on_c, 9, 42, 26
7, 14282, Note_on_c, 9, 42, 0
7, 14304, Note_on_c, 9, 37, 117
7, 14304, Note_on_c, 9, 42, 117
7, 14312, Note_on_c, 9, 37, 0
7, 14317, Note_on_c, 9, 42, 0
7, 14336, Note_on_c, 9, 42, 24
7, 14345, Note_on_c, 9, 42, 0
7, 14368, Note_on_c, 9, 36, 117
7, 14368, Note_on_c, 9, 42, 27
7, 14378, Note_on_c, 9, 42, 0
7, 14378, Note_on_c, 9, 36, 0
7, 14400, Note_on_c, 9, 36, 117
7, 14400, Note_on_c, 9, 42, 35
7, 14410, Note_on_c, 9, 36, 0
7, 14411, Note_on_c, 9, 42, 0
7, 14432, Note_on_c, 9, 42, 24
7, 14441, Note_on_c, 9, 42, 0
7, 14464, Note_on_c, 9, 42, 35
7, 14479, Note_on_c, 9, 42, 0
7, 14496, Note_on_c, 9, 42, 117
7, 14496, Note_on_c, 9, 37, 117
7, 14503, Note_on_c, 9, 37, 0
7, 14511, Note_on_c, 9, 42, 0
7, 14528, Note_on_c, 9, 42, 35
7, 14542, Note_on_c, 9, 42, 0
7, 14560, Note_on_c, 9, 46, 97
7, 14573, Note_on_c, 9, 46, 0
7, 14592, Note_on_c, 9, 42, 36
7, 14592, Note_on_c, 9, 51, 117
7, 14592, Note_on_c, 9, 36, 117
7, 14602, Note_on_c, 9, 36, 0
7, 14602, Note_on_c, 9, 51, 0
7, 14603, Note_on_c, 9, 42, 0
7, 14624, Note_on_c, 9, 42, 21
7, 14634, Note_on_c, 9, 42, 0
7, 14656, Note_on_c, 9, 42, 26
7, 14669, Note_on_c, 9, 42, 0
7, 14688, Note_on_c, 9, 37, 117
7, 14688, Note_on_c, 9, 42, 117
7, 14697, Note_on_c, 9, 37, 0
7, 14702, Note_on_c, 9, 42, 0
7, 14720, Note_on_c, 9, 42, 20
7, 14729, Note_on_c, 9, 42, 0
7, 14752, Note_on_c, 9, 36, 117
7, 14752, Note_on_c, 9, 42, 21
7, 14761, Note_on_c, 9, 42, 0
7, 14762, Note_on_c, 9, 36, 0
7, 14784, Note_on_c, 9, 42, 36
7, 14784, Note_on_c, 9, 36, 117
7, 14794, Note_on_c, 9, 36, 0
7, 14796, Note_on_c, 9, 42, 0
7, 14816, Note_on_c, 9, 42, 21
7, 14825, Note_on_c, 9, 42, 0
7, 14848, Note_on_c, 9, 42, 32
7, 14860, Note_on_c, 9, 42, 0
7, 14880, Note_on_c, 9, 37, 117
7, 14880, Note_on_c, 9, 42, 117
7, 14889, Note_on_c, 9, 37, 0
7, 14895, Note_on_c, 9, 42, 0
7, 14912, Note_on_c, 9, 42, 24
7, 14922, Note_on_c, 9, 42, 0
7, 14944, Note_on_c, 9, 42, 35
7, 14956, Note_on_c, 9, 42, 0
7, 14976, Note_on_c, 9, 36, 117
7, 14976, Note_on_c, 9, 42, 39
7, 14987, Note_on_c, 9, 36, 0
7, 14988, Note_on_c, 9, 42, 0
7, 15008, Note_on_c, 9, 42, 21
7, 15018, Note_on_c, 9, 42, 0
7, 15040, Note_on_c, 9, 42, 26
7, 15050, Note_on_c, 9, 42, 0
7, 15072, Note_on_c, 9, 37, 117
7, 15072, Note_on_c, 9, 42, 117
7, 15080, Note_on_c, 9, 37, 0
7, 15085, Note_on_c, 9, 42, 0
7, 15104, Note_on_c, 9, 42, 24
7, 15113, Note_on_c, 9, 42, 0
7, 15136, Note_on_c, 9, 36, 117
7, 15136, Note_on_c, 9, 42, 27
7, 15146, Note_on_c, 9, 42, 0
7, 15146, Note_on_c, 9, 36, 0
7, 15168, Note_on_c, 9, 36, 117
7, 15168, Note_on_c, 9, 42, 35
7, 15178, Note_on_c, 9, 36, 0
7, 15179, Note_on_c, 9, 42, 0
7, 15200, Note_on_c, 9, 42, 24
7, 15209, Note_on_c, 9, 42, 0
7, 15232, Note_on_c, 9, 42, 35
7, 15247, Note_on_c, 9, 42, 0
7, 15264, Note_on_c, 9, 42, 117
7, 15264, Note_on_c, 9, 37, 117
7, 15271, Note_on_c, 9, 37, 0
7, 15279, Note_on_c, 9, 42, 0
7, 15296, Note_on_c, 9, 42, 35
7, 15310, Note_on_c, 9, 42, 0
7, 15328, Note_on_c, 9, 46, 97
7, 15341, Note_on_c, 9, 46, 0
7, 15360, Note_on_c, 9, 51, 117
7, 15360, Note_on_c, 9, 36, 117
7, 15360, Note_on_c, 9, 42, 36
7, 15370, Note_on_c, 9, 36, 0
7, 15370, Note_on_c, 9, 51, 0
7, 15371, Note_on_c, 9, 42, 0
7, 15392, Note_on_c, 9, 42, 21
7, 15402, Note_on_c, 9, 42, 0
7, 15424, Note_on_c, 9, 42, 26
7, 15437, Note_on_c, 9, 42, 0
7, 15456, Note_on_c, 9, 42, 117
7, 15456, Note_on_c, 9, 37, 117
7, 15465, Note_on_c, 9, 37, 0
7, 15470, Note_on_c, 9, 42, 0
7, 15488, Note_on_c, 9, 42, 20
7, 15497, Note_on_c, 9, 42, 0
7, 15520, Note_on_c, 9, 42, 21
7, 15520, Note_on_c, 9, 36, 117
7, 15529, Note_on_c, 9, 42, 0
7, 15530, Note_on_c, 9, 36, 0
7, 15552, Note_on_c, 9, 36, 117
7, 15552, Note_on_c, 9, 42, 36
7, 15562, Note_on_c, 9, 36, 0
7, 15564, Note_on_c, 9, 42, 0
7, 15584, Note_on_c, 9, 42, 21
7, 15593, Note_on_c, 9, 42, 0
7, 15616, Note_on_c, 9, 42, 32
7, 15628, Note_on_c, 9, 42, 0
7, 15648, Note_on_c, 9, 37, 117
7, 15648, Note_on_c, 9, 42, 117
7, 15657, Note_on_c, 9, 37, 0
7, 15663, Note_on_c, 9, 42, 0
7, 15680, Note_on_c, 9, 42, 24
7, 15690, Note_on_c, 9, 42, 0
7, 15712, Note_on_c, 9, 42, 35
7, 15724, Note_on_c, 9, 42, 0
7, 15744, Note_on_c, 9, 42, 39
7, 15744, Note_on_c, 9, 36, 117
7, 15755, Note_on_c, 9, 36, 0
7, 15756, Note_on_c, 9, 42, 0
7, 15776, Note_on_c, 9, 42, 21
7, 15786, Note_on_c, 9, 42, 0
7, 15808, Note_on_c, 9, 42, 26
7, 15818, Note_on_c, 9, 42, 0
7, 15840, Note_on_c, 9, 37, 117
7, 15840, Note_on_c, 9, 42, 117
7, 15848, Note_on_c, 9, 37, 0
7, 15853, Note_on_c, 9, 42, 0
7, 15872, Note_on_c, 9, 42, 24
7, 15881, Note_on_c, 9, 42, 0
7, 15904, Note_on_c, 9, 42, 27
7, 15904, Note_on_c, 9, 36, 117
7, 15914, Note_on_c, 9, 36, 0
7, 15914, Note_on_c, 9, 42, 0
7, 15936, Note_on_c, 9, 42, 35
7, 15936, Note_on_c, 9, 36, 117
7, 15946, Note_on_c, 9, 36, 0
7, 15947, Note_on_c, 9, 42, 0
7, 15968, Note_on_c, 9, 42, 24
7, 15977, Note_on_c, 9, 42, 0
7, 16000, Note_on_c, 9, 42, 35
7, 16015, Note_on_c, 9, 42, 0
7, 16032, Note_on_c, 9, 37, 117
7, 16032, Note_on_c, 9, 42, 117
7, 16039, Note_on_c, 9, 37, 0
7, 16047, Note_on_c, 9, 42, 0
7, 16064, Note_on_c, 9, 42, 35
7, 16078, Note_on_c, 9, 42, 0
7, 16096, Note_on_c, 9, 46, 97
7, 16109, Note_on_c, 9, 46, 0
7, 16128, Note_on_c, 9, 51, 117
7, 16128, Note_on_c, 9, 36, 117
7, 16128, Note_on_c, 9, 42, 36
7, 16138, Note_on_c, 9, 36, 0
7, 16138, Note_on_c, 9, 51, 0
7, 16139, Note_on_c, 9, 42, 0
7, 16160, Note_on_c, 9, 42, 21
7, 16170, Note_on_c, 9, 42, 0
7, 16192, Note_on_c, 9, 42, 26
7, 16205, Note_on_c, 9, 42, 0
7, 16224, Note_on_c, 9, 37, 117
7, 16224, Note_on_c, 9, 42, 117
7, 16233, Note_on_c, 9, 37, 0
7, 16238, Note_on_c, 9, 42, 0
7, 16256, Note_on_c, 9, 42, 20
7, 16265, Note_on_c, 9, 42, 0
7, 16288, Note_on_c, 9, 36, 117
7, 16288, Note_on_c, 9, 42, 21
7, 16297, Note_on_c, 9, 42, 0
7, 16298, Note_on_c, 9, 36, 0
7, 16320, Note_on_c, 9, 36, 117
7, 16320, Note_on_c, 9, 42, 36
7, 16330, Note_on_c, 9, 36, 0
7, 16332, Note_on_c, 9, 42, 0
7, 16352, Note_on_c, 9, 42, 21
7, 16361, Note_on_c, 9, 42, 0
7, 16384, Note_on_c, 9, 42, 32
7, 16396, Note_on_c, 9, 42, 0
7, 16416, Note_on_c, 9, 42, 117
7, 16416, Note_on_c, 9, 37, 117
7, 16425, Note_on_c, 9, 37, 0
7, 16431, Note_on_c, 9, 42, 0
7, 16448, Note_on_c, 9, 42, 24
7, 16458, Note_on_c, 9, 42, 0
7, 16480, Note_on_c, 9, 42, 35
7, 16492, Note_on_c, 9, 42, 0
7, 16512, Note_on_c, 9, 36, 117
7, 16512, Note_on_c, 9, 42, 39
7, 16523, Note_on_c, 9, 36, 0
7, 16524, Note_on_c, 9, 42, 0
7, 16544, Note_on_c, 9, 42, 21
7, 16554, Note_on_c, 9, 42, 0
7, 16576, Note_on_c, 9, 42, 26
7, 16586, Note_on_c, 9, 42, 0
7, 16608, Note_on_c, 9, 37, 117
7, 16608, Note_on_c, 9, 42, 117
7, 16616, Note_on_c, 9, 37, 0
7, 16621, Note_on_c, 9, 42, 0
7, 16640, Note_on_c, 9, 42, 24
7, 16649, Note_on_c, 9, 42, 0
7, 16672, Note_on_c, 9, 42, 27
7, 16672, Note_on_c, 9, 36, 117
7, 16682, Note_on_c, 9, 36, 0
7, 16682, Note_on_c, 9, 42, 0
7, 16704, Note_on_c, 9, 36, 117
7, 16704, Note_on_c, 9, 42, 35
7, 16714, Note_on_c, 9, 36, 0
7, 16715, Note_on_c, 9, 42, 0
7, 16736, Note_on_c, 9, 42, 24
7, 16745, Note_on_c, 9, 42, 0
7, 16768, Note_on_c, 9, 42, 35
7, 16783, Note_on_c, 9, 42, 0
7, 16800, Note_on_c, 9, 42, 117
7, 16800, Note_on_c, 9, 37, 117
7, 16807, Note_on_c, 9, 37, 0
7, 16815, Note_on_c, 9, 42, 0
7, 16832, Note_on_c, 9, 42, 35
7, 16846, Note_on_c, 9, 42, 0
7, 16864, Note_on_c, 9, 46, 97
7, 16877, Note_on_c, 9, 46, 0
7, 16896, Note_on_c, 9, 36, 117
7, 16896, Note_on_c, 9, 42, 36
7, 16896, Note_on_c, 9, 51, 117
7, 16906, Note_on_c, 9, 51, 0
7, 16906, Note_on_c, 9, 36, 0
7, 16907, Note_on_c, 9, 42, 0
7, 16928, Note_on_c, 9, 42, 21
7, 16938, Note_on_c, 9, 42, 0
7, 16960, Note_on_c, 9, 42, 26
7, 16973, Note_on_c, 9, 42, 0
7, 16992, Note_on_c, 9, 37, 117
7, 16992, Note_on_c, 9, 42, 117
7, 17001, Note_on_c, 9, 37, 0
7, 17006, Note_on_c, 9, 42, 0
7, 17024, Note_on_c, 9, 42, 20
7, 17033, Note_on_c, 9, 42, 0
7, 17056, Note_on_c, 9, 36, 117
7, 17056, Note_on_c, 9, 42, 21
7, 17065, Note_on_c, 9, 42, 0
7, 17066, Note_on_c, 9, 36, 0
7, 17088, Note_on_c, 9, 42, 36
7, 17088, Note_on_c, 9, 36, 117
7, 17098, Note_on_c, 9, 36, 0
7, 17100, Note_on_c, 9, 42, 0
7, 17120, Note_on_c, 9, 42, 21
7, 17129, Note_on_c, 9, 42, 0
7, 17152, Note_on_c, 9, 42, 32
7, 17164, Note_on_c, 9, 42, 0
7, 17184, Note_on_c, 9, 37, 117
7, 17184, Note_on_c, 9, 42, 117
7, 17193, Note_on_c, 9, 37, 0
7, 17199, Note_on_c, 9, 42, 0
7, 17216, Note_on_c, 9, 42, 24
7, 17226, Note_on_c, 9, 42, 0
7, 17248, Note_on_c, 9, 42, 35
7, 17260, Note_on_c, 9, 42, 0
7, 17280, Note_on_c, 9, 36, 117
7, 17280, Note_on_c, 9, 42, 39
7, 17291, Note_on_c, 9, 36, 0
7, 17292, Note_on_c, 9, 42, 0
7, 17312, Note_on_c, 9, 42, 21
7, 17322, Note_on_c, 9, 42, 0
7, 17344, Note_on_c, 9, 42, 26
7, 17354, Note_on_c, 9, 42, 0
7, 17376, Note_on_c, 9, 37, 117
7, 17376, Note_on_c, 9, 42, 117
7, 17384, Note_on_c, 9, 37, 0
7, 17389, Note_on_c, 9, 42, 0
7, 17408, Note_on_c, 9, 42, 24
7, 17417, Note_on_c, 9, 42, 0
7, 17440, Note_on_c, 9, 36, 117
7, 17440, Note_on_c, 9, 42, 27
7, 17450, Note_on_c, 9, 42, 0
7, 17450, Note_on_c, 9, 36, 0
7, 17472, Note_on_c, 9, 36, 117
7, 17472, Note_on_c, 9, 42, 35
7, 17482, Note_on_c, 9, 36, 0
7, 17483, Note_on_c, 9, 42, 0
7, 17504, Note_on_c, 9, 42, 24
7, 17513, Note_on_c, 9, 42, 0
7, 17536, Note_on_c, 9, 42, 35
7, 17551, Note_on_c, 9, 42, 0
7, 17568, Note_on_c, 9, 42, 117
7, 17568, Note_on_c, 9, 37, 117
7, 17575, Note_on_c, 9, 37, 0
7, 17583, Note_on_c, 9, 42, 0
7, 17600, Note_on_c, 9, 42, 35
7, 17614, Note_on_c, 9, 42, 0
7, 17632, Note_on_c, 9, 46, 97
7, 17645, Note_on_c, 9, 46, 0
7, 17664, Note_on_c, 9, 36, 117
7, 17664, Note_on_c, 9, 42, 36
7, 17664, Note_on_c, 9, 51, 117
7, 17674, Note_on_c, 9, 51, 0
7, 17674, Note_on_c, 9, 36, 0
7, 17675, Note_on_c, 9, 42, 0
7, 17696, Note_on_c, 9, 42, 21
7, 17706, Note_on_c, 9, 42, 0
7, 17728, Note_on_c, 9, 42, 26
7, 17741, Note_on_c, 9, 42, 0
7, 17760, Note_on_c, 9, 37, 117
7, 17760, Note_on_c, 9, 42, 117
7, 17769, Note_on_c, 9, 37, 0
7, 17774, Note_on_c, 9, 42, 0
7, 17792, Note_on_c, 9, 42, 20
7, 17801, Note_on_c, 9, 42, 0
7, 17824, Note_on_c, 9, 36, 117
7, 17824, Note_on_c, 9, 42, 21
7, 17833, Note_on_c, 9, 42, 0
7, 17834, Note_on_c, 9, 36, 0
7, 17856, Note_on_c, 9, 36, 117
7, 17856, Note_on_c, 9, 42, 36
7, 17866, Note_on_c, 9, 36, 0
7, 17868, Note_on_c, 9, 42, 0
7, 17888, Note_on_c, 9, 42, 21
7, 17897, Note_on_c, 9, 42, 0
7, 17920, Note_on_c, 9, 42, 32
7, 17932, Note_on_c, 9, 42, 0
7, 17952, Note_on_c, 9, 37, 117
7, 17952, Note_on_c, 9, 42, 117
7, 17961, Note_on_c, 9, 37, 0
7, 17967, Note_on_c, 9, 42, 0
7, 17984, Note_on_c, 9, 42, 24
7, 17994, Note_on_c, 9, 42, 0
7, 18016, Note_on_c, 9, 42, 35
7, 18028, Note_on_c, 9, 42, 0
7, 18048, Note_on_c, 9, 36, 117
7, 18048, Note_on_c, 9, 42, 39
7, 18059, Note_on_c, 9, 36, 0
7, 18060, Note_on_c, 9, 42, 0
7, 18080, Note_on_c, 9, 42, 21
7, 18090, Note_on_c, 9, 42, 0
7, 18112, Note_on_c, 9, 42, 26
7, 18122, Note_on_c, 9, 42, 0
7, 18144, Note_on_c, 9, 42, 117
7, 18144, Note_on_c, 9, 37, 117
7, 18152, Note_on_c, 9, 37, 0
7, 18157, Note_on_c, 9, 42, 0
7, 18176, Note_on_c, 9, 42, 24
7, 18185, Note_on_c, 9, 42, 0
7, 18208, Note_on_c, 9, 36, 117
7, 18208, Note_on_c, 9, 42, 27
7, 18218, Note_on_c, 9, 42, 0
7, 18218, Note_on_c, 9, 36, 0
7, 18240, Note_on_c, 9, 42, 35
7, 18240, Note_on_c, 9, 36, 117
7, 18250, Note_on_c, 9, 36, 0
7, 18251, Note_on_c, 9, 42, 0
7, 18272, Note_on_c, 9, 42, 24
7, 18281, Note_on_c, 9, 42, 0
7, 18304, Note_on_c, 9, 42, 35
7, 18319, Note_on_c, 9, 42, 0
7, 18336, Note_on_c, 9, 42, 117
7, 18336, Note_on_c, 9, 37, 117
7, 18343, Note_on_c, 9, 37, 0
7, 18351, Note_on_c, 9, 42, 0
7, 18368, Note_on_c, 9, 42, 35
7, 18382, Note_on_c, 9, 42, 0
7, 18400, Note_on_c, 9, 46, 97
7, 18413, Note_on_c, 9, 46, 0
7, 18432, Note_on_c, 9, 36, 117
7, 18432, Note_on_c, 9, 42, 36
7, 18432, Note_on_c, 9, 51, 117
7, 18442, Note_on_c, 9, 51, 0
7, 18442, Note_on_c, 9, 36, 0
7, 18443, Note_on_c, 9, 42, 0
7, 18464, Note_on_c, 9, 42, 21
7, 18474, Note_on_c, 9, 42, 0
7, 18496, Note_on_c, 9, 42, 26
7, 18509, Note_on_c, 9, 42, 0
7, 18528, Note_on_c, 9, 37, 117
7, 18528, Note_on_c, 9, 42, 117
7, 18537, Note_on_c, 9, 37, 0
7, 18542, Note_on_c, 9, 42, 0
7, 18560, Note_on_c, 9, 42, 20
7, 18569, Note_on_c, 9, 42, 0
7, 18592, Note_on_c, 9, 36, 117
7, 18592, Note_on_c, 9, 42, 21
7, 18601, Note_on_c, 9, 42, 0
7, 18602, Note_on_c, 9, 36, 0
7, 18624, Note_on_c, 9, 36, 117
7, 18624, Note_on_c, 9, 42, 36
7, 18634, Note_on_c, 9, 36, 0
7, 18636, Note_on_c, 9, 42, 0
7, 18656, Note_on_c, 9, 42, 21
7, 18665, Note_on_c, 9, 42, 0
7, 18688, Note_on_c, 9, 42, 32
7, 18700, Note_on_c, 9, 42, 0
7, 18720, Note_on_c, 9, 37, 117
7, 18720, Note_on_c, 9, 42, 117
7, 18729, Note_on_c, 9, 37, 0
7, 18735, Note_on_c, 9, 42, 0
7, 18752, Note_on_c, 9, 42, 24
7, 18762, Note_on_c, 9, 42, 0
7, 18784, Note_on_c, 9, 42, 35
7, 18796, Note_on_c, 9, 42, 0
7, 18816, Note_on_c, 9, 42, 117
7, 18830, Note_on_c, 9, 42, 0
7, 18912, Note_on_c, 9, 51, 117
7, 18912, Note_on_c, 9, 42, 117
7, 18912, Note_on_c, 9, 36, 117
7, 18921, Note_on_c, 9, 51, 0
7, 18922, Note_on_c, 9, 42, 0
7, 18936, Note_on_c, 9, 36, 0
7, 18944, Note_on_c, 9, 42, 117
7, 18956, Note_on_c, 9, 42, 0
7, 18976, Note_on_c, 9, 46, 97
7, 18985, Note_on_c, 9, 46, 0
7, 19008, Note_on_c, 9, 51, 117
7, 19008, Note_on_c, 9, 42, 117
7, 19008, Note_on_c, 9, 36, 117
7, 19017, Note_on_c, 9, 42, 0
7, 19017, Note_on_c, 9, 51, 0
7, 19022, Note_on_c, 9, 36, 0
7, 19040, Note_on_c, 9, 42, 117
7, 19050, Note_on_c, 9, 42, 0
7, 19072, Note_on_c, 9, 46, 92
7, 19082, Note_on_c, 9, 46, 0
7, 19104, Note_on_c, 9, 42, 117
7, 19104, Note_on_c, 9, 36, 117
7, 19104, Note_on_c, 9, 51, 117
7, 19112, Note_on_c, 9, 42, 0
7, 19113, Note_on_c, 9, 51, 0
7, 19117, Note_on_c, 9, 36, 0
7, 19136, Note_on_c, 9, 42, 117
7, 19148, Note_on_c, 9, 42, 0
7, 19168, Note_on_c, 9, 46, 92
7, 19177, Note_on_c, 9, 46, 0
7, 19200, Note_on_c, 9, 42, 36
7, 19200, Note_on_c, 9, 36, 117
7, 19200, Note_on_c, 9, 51, 117
7, 19210, Note_on_c, 9, 51, 0
7, 19210, Note_on_c, 9, 36, 0
7, 19211, Note_on_c, 9, 42, 0
7, 19232, Note_on_c, 9, 42, 21
7, 19242, Note_on_c, 9, 42, 0
7, 19264, Note_on_c, 9, 42, 26
7, 19277, Note_on_c, 9, 42, 0
7, 19296, Note_on_c, 9, 37, 117
7, 19296, Note_on_c, 9, 42, 117
7, 19305, Note_on_c, 9, 37, 0
7, 19310, Note_on_c, 9, 42, 0
7, 19328, Note_on_c, 9, 42, 20
7, 19337, Note_on_c, 9, 42, 0
7, 19360, Note_on_c, 9, 36, 117
7, 19360, Note_on_c, 9, 42, 21
7, 19369, Note_on_c, 9, 42, 0
7, 19370, Note_on_c, 9, 36, 0
7, 19392, Note_on_c, 9, 36, 117
7, 19392, Note_on_c, 9, 42, 36
7, 19402, Note_on_c, 9, 36, 0
7, 19404, Note_on_c, 9, 42, 0
7, 19424, Note_on_c, 9, 42, 21
7, 19433, Note_on_c, 9, 42, 0
7, 19456, Note_on_c, 9, 42, 32
7, 19468, Note_on_c, 9, 42, 0
7, 19488, Note_on_c, 9, 37, 117
7, 19488, Note_on_c, 9, 42, 117
7, 19497, Note_on_c, 9, 37, 0
7, 19503, Note_on_c, 9, 42, 0
7, 19520, Note_on_c, 9, 42, 24
7, 19530, Note_on_c, 9, 42, 0
7, 19552, Note_on_c, 9, 42, 35
7, 19564, Note_on_c, 9, 42, 0
7, 19584, Note_on_c, 9, 36, 117
7, 19584, Note_on_c, 9, 42, 39
7, 19595, Note_on_c, 9, 36, 0
7, 19596, Note_on_c, 9, 42, 0
7, 19616, Note_on_c, 9, 42, 21
7, 19626, Note_on_c, 9, 42, 0
7, 19648, Note_on_c, 9, 42, 26
7, 19658, Note_on_c, 9, 42, 0
7, 19680, Note_on_c, 9, 42, 117
7, 19680, Note_on_c, 9, 37, 117
7, 19688, Note_on_c, 9, 37, 0
7, 19693, Note_on_c, 9, 42, 0
7, 19712, Note_on_c, 9, 42, 24
7, 19721, Note_on_c, 9, 42, 0
7, 19744, Note_on_c, 9, 42, 27
7, 19744, Note_on_c, 9, 36, 117
7, 19754, Note_on_c, 9, 36, 0
7, 19754, Note_on_c, 9, 42, 0
7, 19776, Note_on_c, 9, 36, 117
7, 19776, Note_on_c, 9, 42, 35
7, 19786, Note_on_c, 9, 36, 0
7, 19787, Note_on_c, 9, 42, 0
7, 19808, Note_on_c, 9, 42, 24
7, 19817, Note_on_c, 9, 42, 0
7, 19840, Note_on_c, 9, 42, 35
7, 19855, Note_on_c, 9, 42, 0
7, 19872, Note_on_c, 9, 37, 117
7, 19872, Note_on_c, 9, 42, 117
7, 19879, Note_on_c, 9, 37, 0
7, 19887, Note_on_c, 9, 42, 0
7, 19904, Note_on_c, 9, 42, 35
7, 19918, Note_on_c, 9, 42, 0
7, 19936, Note_on_c, 9, 46, 97
7, 19949, Note_on_c, 9, 46, 0
7, 19968, Note_on_c, 9, 42, 36
7, 19968, Note_on_c, 9, 36, 117
7, 19968, Note_on_c, 9, 51, 117
7, 19978, Note_on_c, 9, 51, 0
7, 19978, Note_on_c, 9, 36, 0
7, 19979, Note_on_c, 9, 42, 0
7, 20000, Note_on_c, 9, 42, 21
7, 20010, Note_on_c, 9, 42, 0
7, 20032, Note_on_c, 9, 42, 26
7, 20045, Note_on_c, 9, 42, 0
7, 20064, Note_on_c, 9, 37, 117
7, 20064, Note_on_c, 9, 42, 117
7, 20073, Note_on_c, 9, 37, 0
7, 20078, Note_on_c, 9, 42, 0
7, 20096, Note_on_c, 9, 42, 20
7, 20105, Note_on_c, 9, 42, 0
7, 20128, Note_on_c, 9, 36, 117
7, 20128, Note_on_c, 9, 42, 21
7, 20137, Note_on_c, 9, 42, 0
7, 20138, Note_on_c, 9, 36, 0
7, 20160, Note_on_c, 9, 36, 117
7, 20160, Note_on_c, 9, 42, 36
7, 20170, Note_on_c, 9, 36, 0
7, 20172, Note_on_c, 9, 42, 0
7, 20192, Note_on_c, 9, 42, 21
7, 20201, Note_on_c, 9, 42, 0
7, 20224, Note_on_c, 9, 42, 32
7, 20236, Note_on_c, 9, 42, 0
7, 20256, Note_on_c, 9, 37, 117
7, 20256, Note_on_c, 9, 42, 117
7, 20265, Note_on_c, 9, 37, 0
7, 20271, Note_on_c, 9, 42, 0
7, 20288, Note_on_c, 9, 42, 24
7, 20298, Note_on_c, 9, 42, 0
7, 20320, Note_on_c, 9, 42, 35
7, 20332, Note_on_c, 9, 42, 0
7, 20352, Note_on_c, 9, 36, 117
7, 20352, Note_on_c, 9, 42, 39
7, 20363, Note_on_c, 9, 36, 0
7, 20364, Note_on_c, 9, 42, 0
7, 20384, Note_on_c, 9, 42, 21
7, 20394, Note_on_c, 9, 42, 0
7, 20416, Note_on_c, 9, 42, 26
7, 20426, Note_on_c, 9, 42, 0
7, 20448, Note_on_c, 9, 37, 117
7, 20448, Note_on_c, 9, 42, 117
7, 20456, Note_on_c, 9, 37, 0
7, 20461, Note_on_c, 9, 42, 0
7, 20480, Note_on_c, 9, 42, 24
7, 20489, Note_on_c, 9, 42, 0
7, 20512, Note_on_c, 9, 36, 117
7, 20512, Note_on_c, 9, 42, 27
7, 20522, Note_on_c, 9, 42, 0
7, 20522, Note_on_c, 9, 36, 0
7, 20544, Note_on_c, 9, 36, 117
7, 20544, Note_on_c, 9, 42, 35
7, 20554, Note_on_c, 9, 36, 0
7, 20555, Note_on_c, 9, 42, 0
7, 20576, Note_on_c, 9, 42, 24
7, 20585, Note_on_c, 9, 42, 0
7, 20608, Note_on_c, 9, 42, 35
7, 20623, Note_on_c, 9, 42, 0
7, 20640, Note_on_c, 9, 37, 117
7, 20640, Note_on_c, 9, 42, 117
7, 20647, Note_on_c, 9, 37, 0
7, 20655, Note_on_c, 9, 42, 0
7, 20672, Note_on_c, 9, 42, 35
7, 20686, Note_on_c, 9, 42, 0
7, 20704, Note_on_c, 9, 46, 97
7, 20717, Note_on_c, 9, 46, 0
7, 20736, Note_on_c, 9, 51, 117
7, 20736, Note_on_c, 9, 36, 117
7, 20736, Note_on_c, 9, 42, 36
7, 20746, Note_on_c, 9, 36, 0
7, 20746, Note_on_c, 9, 51, 0
7, 20747, Note_on_c, 9, 42, 0
7, 20768, Note_on_c, 9, 42, 21
7, 20778, Note_on_c, 9, 42, 0
7, 20800, Note_on_c, 9, 42, 26
7, 20813, Note_on_c, 9, 42, 0
7, 20832, Note_on_c, 9, 37, 117
7, 20832, Note_on_c, 9, 42, 117
7, 20841, Note_on_c, 9, 37, 0
7, 20846, Note_on_c, 9, 42, 0
7, 20864, Note_on_c, 9, 42, 20
7, 20873, Note_on_c, 9, 42, 0
7, 20896, Note_on_c, 9, 42, 21
7, 20896, Note_on_c, 9, 36, 117
7, 20905, Note_on_c, 9, 42, 0
7, 20906, Note_on_c, 9, 36, 0
7, 20928, Note_on_c, 9, 36, 117
7, 20928, Note_on_c, 9, 42, 36
7, 20938, Note_on_c, 9, 36, 0
7, 20940, Note_on_c, 9, 42, 0
7, 20960, Note_on_c, 9, 42, 21
7, 20969, Note_on_c, 9, 42, 0
7, 20992, Note_on_c, 9, 42, 32
7, 21004, Note_on_c, 9, 42, 0
7, 21024, Note_on_c, 9, 37, 117
7, 21024, Note_on_c, 9, 42, 117
7, 21033, Note_on_c, 9, 37, 0
7, 21039, Note_on_c, 9, 42, 0
7, 21056, Note_on_c, 9, 42, 24
7, 21066, Note_on_c, 9, 42, 0
7, 21088, Note_on_c, 9, 42, 35
7, 21100, Note_on_c, 9, 42, 0
7, 21120, Note_on_c, 9, 42, 39
7, 21120, Note_on_c, 9, 36, 117
7, 21131, Note_on_c, 9, 36, 0
7, 21132, Note_on_c, 9, 42, 0
7, 21152, Note_on_c, 9, 42, 21
7, 21162, Note_on_c, 9, 42, 0
7, 21184, Note_on_c, 9, 42, 26
7, 21194, Note_on_c, 9, 42, 0
7, 21216, Note_on_c, 9, 37, 117
7, 21216, Note_on_c, 9, 42, 117
7, 21224, Note_on_c, 9, 37, 0
7, 21229, Note_on_c, 9, 42, 0
7, 21248, Note_on_c, 9, 42, 24
7, 21257, Note_on_c, 9, 42, 0
7, 21280, Note_on_c, 9, 42, 27
7, 21280, Note_on_c, 9, 36, 117
7, 21290, Note_on_c, 9, 36, 0
7, 21290, Note_on_c, 9, 42, 0
7, 21312, Note_on_c, 9, 36, 117
7, 21312, Note_on_c, 9, 42, 35
7, 21322, Note_on_c, 9, 36, 0
7, 21323, Note_on_c, 9, 42, 0
7, 21344, Note_on_c, 9, 42, 24
7, 21353, Note_on_c, 9, 42, 0
7, 21376, Note_on_c, 9, 42, 35
7, 21391, Note_on_c, 9, 42, 0
7, 21408, Note_on_c, 9, 42, 117
7, 21408, Note_on_c, 9, 37, 117
7, 21415, Note_on_c, 9, 37, 0
7, 21423, Note_on_c, 9, 42, 0
7, 21440, Note_on_c, 9, 42, 35
7, 21454, Note_on_c, 9, 42, 0
7, 21472, Note_on_c, 9, 46, 97
7, 21485, Note_on_c, 9, 46, 0
7, 21504, Note_on_c, 9, 42, 36
7, 21504, Note_on_c, 9, 51, 117
7, 21504, Note_on_c, 9, 36, 117
7, 21514, Note_on_c, 9, 36, 0
7, 21514, Note_on_c, 9, 51, 0
7, 21515, Note_on_c, 9, 42, 0
7, 21536, Note_on_c, 9, 42, 21
7, 21546, Note_on_c, 9, 42, 0
7, 21568, Note_on_c, 9, 42, 26
7, 21581, Note_on_c, 9, 42, 0
7, 21600, Note_on_c, 9, 42, 117
7, 21600, Note_on_c, 9, 37, 117
7, 21609, Note_on_c, 9, 37, 0
7, 21614, Note_on_c, 9, 42, 0
7, 21632, Note_on_c, 9, 42, 20
7, 21641, Note_on_c, 9, 42, 0
7, 21664, Note_on_c, 9, 36, 117
7, 21664, Note_on_c, 9, 42, 21
7, 21673, Note_on_c, 9, 42, 0
7, 21674, Note_on_c, 9, 36, 0
7, 21696, Note_on_c, 9, 36, 117
7, 21696, Note_on_c, 9, 42, 36
7, 21706, Note_on_c, 9, 36, 0
7, 21708, Note_on_c, 9, 42, 0
7, 21728, Note_on_c, 9, 42, 21
7, 21737, Note_on_c, 9, 42, 0
7, 21760, Note_on_c, 9, 42, 32
7, 21772, Note_on_c, 9, 42, 0
7, 21792, Note_on_c, 9, 37, 117
7, 21792, Note_on_c, 9, 42, 117
7, 21801, Note_on_c, 9, 37, 0
7, 21807, Note_on_c, 9, 42, 0
7, 21824, Note_on_c, 9, 42, 24
7, 21834, Note_on_c, 9, 42, 0
7, 21856, Note_on_c, 9, 42, 35
7, 21868, Note_on_c, 9, 42, 0
7, 21888, Note_on_c, 9, 42, 39
7, 21888, Note_on_c, 9, 36, 117
7, 21899, Note_on_c, 9, 36, 0
7, 21900, Note_on_c, 9, 42, 0
7, 21920, Note_on_c, 9, 42, 21
7, 21930, Note_on_c, 9, 42, 0
7, 21952, Note_on_c, 9, 42, 26
7, 21962, Note_on_c, 9, 42, 0
7, 21984, Note_on_c, 9, 37, 117
7, 21984, Note_on_c, 9, 42, 117
7, 21992, Note_on_c, 9, 37, 0
7, 21997, Note_on_c, 9, 42, 0
7, 22016, Note_on_c, 9, 42, 24
7, 22025, Note_on_c, 9, 42, 0
7, 22048, Note_on_c, 9, 36, 117
7, 22048, Note_on_c, 9, 42, 27
7, 22058, Note_on_c, 9, 42, 0
7, 22058, Note_on_c, 9, 36, 0
7, 22080, Note_on_c, 9, 36, 117
7, 22080, Note_on_c, 9, 42, 35
7, 22090, Note_on_c, 9, 36, 0
7, 22091, Note_on_c, 9, 42, 0
7, 22112, Note_on_c, 9, 42, 24
7, 22121, Note_on_c, 9, 42, 0
7, 22144, Note_on_c, 9, 42, 35
7, 22159, Note_on_c, 9, 42, 0
7, 22176, Note_on_c, 9, 37, 117
7, 22176, Note_on_c, 9, 42, 117
7, 22183, Note_on_c, 9, 37, 0
7, 22191, Note_on_c, 9, 42, 0
7, 22208, Note_on_c, 9, 42, 35
7, 22222, Note_on_c, 9, 42, 0
7, 22240, Note_on_c, 9, 46, 97
7, 22253, Note_on_c, 9, 46, 0
7, 22272, Note_on_c, 9, 36, 117
7, 22272, Note_on_c, 9, 42, 36
7, 22272, Note_on_c, 9, 51, 117
7, 22282, Note_on_c, 9, 51, 0
7, 22282, Note_on_c, 9, 36, 0
7, 22283, Note_on_c, 9, 42, 0
7, 22304, Note_on_c, 9, 42, 21
7, 22314, Note_on_c, 9, 42, 0
7, 22336, Note_on_c, 9, 42, 26
7, 22349, Note_on_c, 9, 42, 0
7, 22368, Note_on_c, 9, 37, 117
7, 22368, Note_on_c, 9, 42, 117
7, 22377, Note_on_c, 9, 37, 0
7, 22382, Note_on_c, 9, 42, 0
7, 22400, Note_on_c, 9, 42, 20
7, 22409, Note_on_c, 9, 42, 0
7, 22432, Note_on_c, 9, 36, 117
7, 22432, Note_on_c, 9, 42, 21
7, 22441, Note_on_c, 9, 42, 0
7, 22442, Note_on_c, 9, 36, 0
7, 22464, Note_on_c, 9, 42, 36
7, 22464, Note_on_c, 9, 36, 117
7, 22474, Note_on_c, 9, 36, 0
7, 22476, Note_on_c, 9, 42, 0
7, 22496, Note_on_c, 9, 42, 21
7, 22505, Note_on_c, 9, 42, 0
7, 22528, Note_on_c, 9, 42, 32
7, 22540, Note_on_c, 9, 42, 0
7, 22560, Note_on_c, 9, 42, 117
7, 22560, Note_on_c, 9, 37, 117
7, 22569, Note_on_c, 9, 37, 0
7, 22575, Note_on_c, 9, 42, 0
7, 22592, Note_on_c, 9, 42, 24
7, 22602, Note_on_c, 9, 42, 0
7, 22624, Note_on_c, 9, 42, 35
7, 22636, Note_on_c, 9, 42, 0
7, 22656, Note_on_c, 9, 36, 117
7, 22656, Note_on_c, 9, 42, 39
7, 22667, Note_on_c, 9, 36, 0
7, 22668, Note_on_c, 9, 42, 0
7, 22688, Note_on_c, 9, 42, 21
7, 22698, Note_on_c, 9, 42, 0
7, 22720, Note_on_c, 9, 42, 26
7, 22730, Note_on_c, 9, 42, 0
7, 22752, Note_on_c, 9, 37, 117
7, 22752, Note_on_c, 9, 42, 117
7, 22760, Note_on_c, 9, 37, 0
7, 22765, Note_on_c, 9, 42, 0
7, 22784, Note_on_c, 9, 42, 24
7, 22793, Note_on_c, 9, 42, 0
7, 22816, Note_on_c, 9, 36, 117
7, 22816, Note_on_c, 9, 42, 27
7, 22826, Note_on_c, 9, 42, 0
7, 22826, Note_on_c, 9, 36, 0
7, 22848, Note_on_c, 9, 36, 117
7, 22848, Note_on_c, 9, 42, 35
7, 22858, Note_on_c, 9, 36, 0
7, 22859, Note_on_c, 9, 42, 0
7, 22880, Note_on_c, 9, 42, 24
7, 22889, Note_on_c, 9, 42, 0
7, 22912, Note_on_c, 9, 42, 35
7, 22927, Note_on_c, 9, 42, 0
7, 22944, Note_on_c, 9, 37, 117
7, 22944, Note_on_c, 9, 42, 117
7, 22951, Note_on_c, 9, 37, 0
7, 22959, Note_on_c, 9, 42, 0
7, 22976, Note_on_c, 9, 42, 35
7, 22990, Note_on_c, 9, 42, 0
7, 23008, Note_on_c, 9, 46, 97
7, 23021, Note_on_c, 9, 46, 0
7, 23040, Note_on_c, 9, 36, 117
7, 23040, Note_on_c, 9, 42, 36
7, 23040, Note_on_c, 9, 51, 117
7, 23050, Note_on_c, 9, 51, 0
7, 23050, Note_on_c, 9, 36, 0
7, 23051, Note_on_c, 9, 42, 0
7, 23072, Note_on_c, 9, 42, 21
7, 23082, Note_on_c, 9, 42, 0
7, 23104, Note_on_c, 9, 42, 26
7, 23117, Note_on_c, 9, 42, 0
7, 23136, Note_on_c, 9, 37, 117
7, 23136, Note_on_c, 9, 42, 117
7, 23145, Note_on_c, 9, 37, 0
7, 23150, Note_on_c, 9, 42, 0
7, 23168, Note_on_c, 9, 42, 20
7, 23177, Note_on_c, 9, 42, 0
7, 23200, Note_on_c, 9, 36, 117
7, 23200, Note_on_c, 9, 42, 21
7, 23209, Note_on_c, 9, 42, 0
7, 23210, Note_on_c, 9, 36, 0
7, 23232, Note_on_c, 9, 42, 36
7, 23232, Note_on_c, 9, 36, 117
7, 23242, Note_on_c, 9, 36, 0
7, 23244, Note_on_c, 9, 42, 0
7, 23264, Note_on_c, 9, 42, 21
7, 23273, Note_on_c, 9, 42, 0
7, 23296, Note_on_c, 9, 42, 32
7, 23308, Note_on_c, 9, 42, 0
7, 23328, Note_on_c, 9, 37, 117
7, 23328, Note_on_c, 9, 42, 117
7, 23337, Note_on_c, 9, 37, 0
7, 23343, Note_on_c, 9, 42, 0
7, 23360, Note_on_c, 9, 42, 24
7, 23370, Note_on_c, 9, 42, 0
7, 23392, Note_on_c, 9, 42, 35
7, 23404, Note_on_c, 9, 42, 0
7, 23424, Note_on_c, 9, 36, 117
7, 23424, Note_on_c, 9, 42, 39
7, 23435, Note_on_c, 9, 36, 0
7, 23436, Note_on_c, 9, 42, 0
7, 23456, Note_on_c, 9, 42, 21
7, 23466, Note_on_c, 9, 42, 0
7, 23488, Note_on_c, 9, 42, 26
7, 23498, Note_on_c, 9, 42, 0
7, 23520, Note_on_c, 9, 42, 117
7, 23520, Note_on_c, 9, 37, 117
7, 23528, Note_on_c, 9, 37, 0
7, 23533, Note_on_c, 9, 42, 0
7, 23552, Note_on_c, 9, 42, 24
7, 23561, Note_on_c, 9, 42, 0
7, 23584, Note_on_c, 9, 36, 117
7, 23584, Note_on_c, 9, 42, 27
7, 23594, Note_on_c, 9, 42, 0
7, 23594, Note_on_c, 9, 36, 0
7, 23616, Note_on_c, 9, 36, 117
7, 23616, Note_on_c, 9, 42, 35
7, 23626, Note_on_c, 9, 36, 0
7, 23627, Note_on_c, 9, 42, 0
7, 23648, Note_on_c, 9, 42, 24
7, 23657, Note_on_c, 9, 42, 0
7, 23680, Note_on_c, 9, 42, 35
7, 23695, Note_on_c, 9, 42, 0
7, 23712, Note_on_c, 9, 37, 117
7, 23712, Note_on_c, 9, 42, 117
7, 23719, Note_on_c, 9, 37, 0
7, 23727, Note_on_c, 9, 42, 0
7, 23744, Note_on_c, 9, 42, 35
7, 23758, Note_on_c, 9, 42, 0
7, 23776, Note_on_c, 9, 46, 97
7, 23789, Note_on_c, 9, 46, 0
7, 23808, Note_on_c, 9, 42, 36
7, 23808, Note_on_c, 9, 36, 117
7, 23808, Note_on_c, 9, 51, 117
7, 23818, Note_on_c, 9, 51, 0
7, 23818, Note_on_c, 9, 36, 0
7, 23819, Note_on_c, 9, 42, 0
7, 23840, Note_on_c, 9, 42, 21
7, 23850, Note_on_c, 9, 42, 0
7, 23872, Note_on_c, 9, 42, 26
7, 23885, Note_on_c, 9, 42, 0
7, 23904, Note_on_c, 9, 37, 117
7, 23904, Note_on_c, 9, 42, 117
7, 23913, Note_on_c, 9, 37, 0
7, 23918, Note_on_c, 9, 42, 0
7, 23936, Note_on_c, 9, 42, 20
7, 23945, Note_on_c, 9, 42, 0
7, 23968, Note_on_c, 9, 36, 117
7, 23968, Note_on_c, 9, 42, 21
7, 23977, Note_on_c, 9, 42, 0
7, 23978, Note_on_c, 9, 36, 0
7, 24000, Note_on_c, 9, 36, 117
7, 24000, Note_on_c, 9, 42, 36
7, 24010, Note_on_c, 9, 36, 0
7, 24012, Note_on_c, 9, 42, 0
7, 24032, Note_on_c, 9, 42, 21
7, 24041, Note_on_c, 9, 42, 0
7, 24064, Note_on_c, 9, 42, 32
7, 24076, Note_on_c, 9, 42, 0
7, 24096, Note_on_c, 9, 37, 117
7, 24096, Note_on_c, 9, 42, 117
7, 24105, Note_on_c, 9, 37, 0
7, 24111, Note_on_c, 9, 42, 0
7, 24128, Note_on_c, 9, 42, 24
7, 24138, Note_on_c, 9, 42, 0
7, 24160, Note_on_c, 9, 42, 35
7, 24172, Note_on_c, 9, 42, 0
7, 24192, Note_on_c, 9, 36, 117
7, 24192, Note_on_c, 9, 42, 39
7, 24203, Note_on_c, 9, 36, 0
7, 24204, Note_on_c, 9, 42, 0
7, 24224, Note_on_c, 9, 42, 21
7, 24234, Note_on_c, 9, 42, 0
7, 24256, Note_on_c, 9, 42, 26
7, 24266, Note_on_c, 9, 42, 0
7, 24288, Note_on_c, 9, 37, 117
7, 24288, Note_on_c, 9, 42, 117
7, 24296, Note_on_c, 9, 37, 0
7, 24301, Note_on_c, 9, 42, 0
7, 24320, Note_on_c, 9, 42, 24
7, 24329, Note_on_c, 9, 42, 0
7, 24352, Note_on_c, 9, 36, 117
7, 24352, Note_on_c, 9, 42, 27
7, 24362, Note_on_c, 9, 42, 0
7, 24362, Note_on_c, 9, 36, 0
7, 24384, Note_on_c, 9, 42, 35
7, 24384, Note_on_c, 9, 36, 117
7, 24394, Note_on_c, 9, 36, 0
7, 24395, Note_on_c, 9, 42, 0
7, 24416, Note_on_c, 9, 42, 24
7, 24425, Note_on_c, 9, 42, 0
7, 24448, Note_on_c, 9, 42, 35
7, 24463, Note_on_c, 9, 42, 0
7, 24480, Note_on_c, 9, 37, 117
7, 24480, Note_on_c, 9, 42, 117
7, 24487, Note_on_c, 9, 37, 0
7, 24495, Note_on_c, 9, 42, 0
7, 24512, Note_on_c, 9, 42, 35
7, 24526, Note_on_c, 9, 42, 0
7, 24544, Note_on_c, 9, 46, 97
7, 24557, Note_on_c, 9, 46, 0
7, 24576, Note_on_c, 9, 51, 117
7, 24576, Note_on_c, 9, 42, 36
7, 24576, Note_on_c, 9, 36, 117
7, 24586, Note_on_c, 9, 36, 0
7, 24586, Note_on_c, 9, 51, 0
7, 24587, Note_on_c, 9, 42, 0
7, 24608, Note_on_c, 9, 42, 21
7, 24618, Note_on_c, 9, 42, 0
7, 24640, Note_on_c, 9, 42, 26
7, 24653, Note_on_c, 9, 42, 0
7, 24672, Note_on_c, 9, 37, 117
7, 24672, Note_on_c, 9, 42, 117
7, 24681, Note_on_c, 9, 37, 0
7, 24686, Note_on_c, 9, 42, 0
7, 24704, Note_on_c, 9, 42, 20
7, 24713, Note_on_c, 9, 42, 0
7, 24736, Note_on_c, 9, 42, 21
7, 24736, Note_on_c, 9, 36, 117
7, 24745, Note_on_c, 9, 42, 0
7, 24746, Note_on_c, 9, 36, 0
7, 24768, Note_on_c, 9, 36, 117
7, 24768, Note_on_c, 9, 42, 36
7, 24778, Note_on_c, 9, 36, 0
7, 24780, Note_on_c, 9, 42, 0
7, 24800, Note_on_c, 9, 42, 21
7, 24809, Note_on_c, 9, 42, 0
7, 24832, Note_on_c, 9, 42, 32
7, 24844, Note_on_c, 9, 42, 0
7, 24864, Note_on_c, 9, 37, 117
7, 24864, Note_on_c, 9, 42, 117
7, 24873, Note_on_c, 9, 37, 0
7, 24879, Note_on_c, 9, 42, 0
7, 24896, Note_on_c, 9, 42, 24
7, 24906, Note_on_c, 9, 42, 0
7, 24928, Note_on_c, 9, 42, 35
7, 24940, Note_on_c, 9, 42, 0
7, 24960, Note_on_c, 9, 42, 117
7, 24974, Note_on_c, 9, 42, 0
7, 25056, Note_on_c, 9, 42, 117
7, 25056, Note_on_c, 9, 36, 117
7, 25056, Note_on_c, 9, 51, 117
7, 25065, Note_on_c, 9, 51, 0
7, 25066, Note_on_c, 9, 42, 0
7, 25080, Note_on_c, 9, 36, 0
7, 25088, Note_on_c, 9, 42, 117
7, 25100, Note_on_c, 9, 42, 0
7, 25120, Note_on_c, 9, 46, 97
7, 25129, Note_on_c, 9, 46, 0
7, 25152, Note_on_c, 9, 36, 117
7, 25152, Note_on_c, 9, 42, 117
7, 25152, Note_on_c, 9, 51, 117
7, 25161, Note_on_c, 9, 51, 0
7, 25161, Note_on_c, 9, 42, 0
7, 25166, Note_on_c, 9, 36, 0
7, 25184, Note_on_c, 9, 42, 117
7, 25194, Note_on_c, 9, 42, 0
7, 25216, Note_on_c, 9, 46, 92
7, 25226, Note_on_c, 9, 46, 0
7, 25248, Note_on_c, 9, 42, 117
7, 25248, Note_on_c, 9, 36, 117
7, 25248, Note_on_c, 9, 51, 117
7, 25256, Note_on_c, 9, 42, 0
7, 25257, Note_on_c, 9, 51, 0
7, 25261, Note_on_c, 9, 36, 0
7, 25280, Note_on_c, 9, 42, 117
7, 25292, Note_on_c, 9, 42, 0
7, 25312, Note_on_c, 9, 46, 92
7, 25321, Note_on_c, 9, 46, 0
7, 25344, Note_on_c, 9, 36, 117
7, 25344, Note_on_c, 9, 51, 117
7, 25344, Note_on_c, 9, 42, 36
7, 25354, Note_on_c, 9, 51, 0
7, 25354, Note_on_c, 9, 36, 0
7, 25355, Note_on_c, 9, 42, 0
7, 25376, Note_on_c, 9, 42, 21
7, 25386, Note_on_c, 9, 42, 0
7, 25408, Note_on_c, 9, 42, 26
7, 25421, Note_on_c, 9, 42, 0
7, 25440, Note_on_c, 9, 37, 117
7, 25440, Note_on_c, 9, 42, 117
7, 25449, Note_on_c, 9, 37, 0
7, 25454, Note_on_c, 9, 42, 0
7, 25472, Note_on_c, 9, 42, 20
7, 25481, Note_on_c, 9, 42, 0
7, 25504, Note_on_c, 9, 36, 117
7, 25504, Note_on_c, 9, 42, 21
7, 25513, Note_on_c, 9, 42, 0
7, 25514, Note_on_c, 9, 36, 0
7, 25536, Note_on_c, 9, 36, 117
7, 25536, Note_on_c, 9, 42, 36
7, 25546, Note_on_c, 9, 36, 0
7, 25548, Note_on_c, 9, 42, 0
7, 25568, Note_on_c, 9, 42, 21
7, 25577, Note_on_c, 9, 42, 0
7, 25600, Note_on_c, 9, 42, 32
7, 25612, Note_on_c, 9, 42, 0
7, 25632, Note_on_c, 9, 37, 117
7, 25632, Note_on_c, 9, 42, 117
7, 25641, Note_on_c, 9, 37, 0
7, 25647, Note_on_c, 9, 42, 0
7, 25664, Note_on_c, 9, 42, 24
7, 25674, Note_on_c, 9, 42, 0
7, 25696, Note_on_c, 9, 42, 35
7, 25708, Note_on_c, 9, 42, 0
7, 25728, Note_on_c, 9, 36, 117
7, 25728, Note_on_c, 9, 42, 39
7, 25739, Note_on_c, 9, 36, 0
7, 25740, Note_on_c, 9, 42, 0
7, 25760, Note_on_c, 9, 42, 21
7, 25770, Note_on_c, 9, 42, 0
7, 25792, Note_on_c, 9, 42, 26
7, 25802, Note_on_c, 9, 42, 0
7, 25824, Note_on_c, 9, 37, 117
7, 25824, Note_on_c, 9, 42, 117
7, 25832, Note_on_c, 9, 37, 0
7, 25837, Note_on_c, 9, 42, 0
7, 25856, Note_on_c, 9, 42, 24
7, 25865, Note_on_c, 9, 42, 0
7, 25888, Note_on_c, 9, 36, 117
7, 25888, Note_on_c, 9, 42, 27
7, 25898, Note_on_c, 9, 42, 0
7, 25898, Note_on_c, 9, 36, 0
7, 25920, Note_on_c, 9, 36, 117
7, 25920, Note_on_c, 9, 42, 35
7, 25930, Note_on_c, 9, 36, 0
7, 25931, Note_on_c, 9, 42, 0
7, 25952, Note_on_c, 9, 42, 24
7, 25961, Note_on_c, 9, 42, 0
7, 25984, Note_on_c, 9, 42, 35
7, 25999, Note_on_c, 9, 42, 0
7, 26016, Note_on_c, 9, 42, 117
7, 26016, Note_on_c, 9, 37, 117
7, 26023, Note_on_c, 9, 37, 0
7, 26031, Note_on_c, 9, 42, 0
7, 26048, Note_on_c, 9, 42, 35
7, 26062, Note_on_c, 9, 42, 0
7, 26080, Note_on_c, 9, 46, 97
7, 26093, Note_on_c, 9, 46, 0
7, 26112, Note_on_c, 9, 36, 117
7, 26112, Note_on_c, 9, 42, 36
7, 26112, Note_on_c, 9, 51, 117
7, 26122, Note_on_c, 9, 51, 0
7, 26122, Note_on_c, 9, 36, 0
7, 26123, Note_on_c, 9, 42, 0
7, 26144, Note_on_c, 9, 42, 21
7, 26154, Note_on_c, 9, 42, 0
7, 26176, Note_on_c, 9, 42, 26
7, 26189, Note_on_c, 9, 42, 0
7, 26208, Note_on_c, 9, 37, 117
7, 26208, Note_on_c, 9, 42, 117
7, 26217, Note_on_c, 9, 37, 0
7, 26222, Note_on_c, 9, 42, 0
7, 26240, Note_on_c, 9, 42, 20
7, 26249, Note_on_c, 9, 42, 0
7, 26272, Note_on_c, 9, 36, 117
7, 26272, Note_on_c, 9, 42, 21
7, 26281, Note_on_c, 9, 42, 0
7, 26282, Note_on_c, 9, 36, 0
7, 26304, Note_on_c, 9, 36, 117
7, 26304, Note_on_c, 9, 42, 36
7, 26314, Note_on_c, 9, 36, 0
7, 26316, Note_on_c, 9, 42, 0
7, 26336, Note_on_c, 9, 42, 21
7, 26345, Note_on_c, 9, 42, 0
7, 26368, Note_on_c, 9, 42, 32
7, 26380, Note_on_c, 9, 42, 0
7, 26400, Note_on_c, 9, 37, 117
7, 26400, Note_on_c, 9, 42, 117
7, 26409, Note_on_c, 9, 37, 0
7, 26415, Note_on_c, 9, 42, 0
7, 26432, Note_on_c, 9, 42, 24
7, 26442, Note_on_c, 9, 42, 0
7, 26464, Note_on_c, 9, 42, 35
7, 26476, Note_on_c, 9, 42, 0
7, 26496, Note_on_c, 9, 42, 39
7, 26496, Note_on_c, 9, 36, 117
7, 26507, Note_on_c, 9, 36, 0
7, 26508, Note_on_c, 9, 42, 0
7, 26528, Note_on_c, 9, 42, 21
7, 26538, Note_on_c, 9, 42, 0
7, 26560, Note_on_c, 9, 42, 26
7, 26570, Note_on_c, 9, 42, 0
7, 26592, Note_on_c, 9, 37, 117
7, 26592, Note_on_c, 9, 42, 117
7, 26600, Note_on_c, 9, 37, 0
7, 26605, Note_on_c, 9, 42, 0
7, 26624, Note_on_c, 9, 42, 24
7, 26633, Note_on_c, 9, 42, 0
7, 26656, Note_on_c, 9, 36, 117
7, 26656, Note_on_c, 9, 42, 27
7, 26666, Note_on_c, 9, 42, 0
7, 26666, Note_on_c, 9, 36, 0
7, 26688, Note_on_c, 9, 36, 117
7, 26688, Note_on_c, 9, 42, 35
7, 26698, Note_on_c, 9, 36, 0
7, 26699, Note_on_c, 9, 42, 0
7, 26720, Note_on_c, 9, 42, 24
7, 26729, Note_on_c, 9, 42, 0
7, 26752, Note_on_c, 9, 42, 35
7, 26767, Note_on_c, 9, 42, 0
7, 26784, Note_on_c, 9, 37, 117
7, 26784, Note_on_c, 9, 42, 117
7, 26791, Note_on_c, 9, 37, 0
7, 26799, Note_on_c, 9, 42, 0
7, 26816, Note_on_c, 9, 42, 35
7, 26830, Note_on_c, 9, 42, 0
7, 26848, Note_on_c, 9, 46, 97
7, 26861, Note_on_c, 9, 46, 0
7, 26880, Note_on_c, 9, 36, 117
7, 26880, Note_on_c, 9, 42, 36
7, 26880, Note_on_c, 9, 51, 117
7, 26890, Note_on_c, 9, 51, 0
7, 26890, Note_on_c, 9, 36, 0
7, 26891, Note_on_c, 9, 42, 0
7, 26912, Note_on_c, 9, 42, 21
7, 26922, Note_on_c, 9, 42, 0
7, 26944, Note_on_c, 9, 42, 26
7, 26957, Note_on_c, 9, 42, 0
7, 26976, Note_on_c, 9, 37, 117
7, 26976, Note_on_c, 9, 42, 117
7, 26985, Note_on_c, 9, 37, 0
7, 26990, Note_on_c, 9, 42, 0
7, 27008, Note_on_c, 9, 42, 20
7, 27017, Note_on_c, 9, 42, 0
7, 27040, Note_on_c, 9, 36, 117
7, 27040, Note_on_c, 9, 42, 21
7, 27049, Note_on_c, 9, 42, 0
7, 27050, Note_on_c, 9, 36, 0
7, 27072, Note_on_c, 9, 36, 117
7, 27072, Note_on_c, 9, 42, 36
7, 27082, Note_on_c, 9, 36, 0
7, 27084, Note_on_c, 9, 42, 0
7, 27104, Note_on_c, 9, 42, 21
7, 27113, Note_on_c, 9, 42, 0
7, 27136, Note_on_c, 9, 42, 32
7, 27148, Note_on_c, 9, 42, 0
7, 27168, Note_on_c, 9, 37, 117
7, 27168, Note_on_c, 9, 42, 117
7, 27177, Note_on_c, 9, 37, 0
7, 27183, Note_on_c, 9, 42, 0
7, 27200, Note_on_c, 9, 42, 24
7, 27210, Note_on_c, 9, 42, 0
7, 27232, Note_on_c, 9, 42, 35
7, 27244, Note_on_c, 9, 42, 0
7, 27264, Note_on_c, 9, 36, 117
7, 27264, Note_on_c, 9, 42, 39
7, 27275, Note_on_c, 9, 36, 0
7, 27276, Note_on_c, 9, 42, 0
7, 27296, Note_on_c, 9, 42, 21
7, 27306, Note_on_c, 9, 42, 0
7, 27328, Note_on_c, 9, 42, 26
7, 27338, Note_on_c, 9, 42, 0
7, 27360, Note_on_c, 9, 37, 117
7, 27360, Note_on_c, 9, 42, 117
7, 27368, Note_on_c, 9, 37, 0
7, 27373, Note_on_c, 9, 42, 0
7, 27392, Note_on_c, 9, 42, 24
7, 27401, Note_on_c, 9, 42, 0
7, 27424, Note_on_c, 9, 36, 117
7, 27424, Note_on_c, 9, 42, 27
7, 27434, Note_on_c, 9, 42, 0
7, 27434, Note_on_c, 9, 36, 0
7, 27456, Note_on_c, 9, 36, 117
7, 27456, Note_on_c, 9, 42, 35
7, 27466, Note_on_c, 9, 36, 0
7, 27467, Note_on_c, 9, 42, 0
7, 27488, Note_on_c, 9, 42, 24
7, 27497, Note_on_c, 9, 42, 0
7, 27520, Note_on_c, 9, 42, 35
7, 27535, Note_on_c, 9, 42, 0
7, 27552, Note_on_c, 9, 42, 117
7, 27552, Note_on_c, 9, 37, 117
7, 27559, Note_on_c, 9, 37, 0
7, 27567, Note_on_c, 9, 42, 0
7, 27584, Note_on_c, 9, 42, 35
7, 27598, Note_on_c, 9, 42, 0
7, 27616, Note_on_c, 9, 46, 97
7, 27629, Note_on_c, 9, 46, 0
7, 27648, Note_on_c, 9, 51, 117
7, 27648, Note_on_c, 9, 36, 117
7, 27648, Note_on_c, 9, 42, 36
7, 27658, Note_on_c, 9, 36, 0
7, 27658, Note_on_c, 9, 51, 0
7, 27659, Note_on_c, 9, 42, 0
7, 27680, Note_on_c, 9, 42, 21
7, 27690, Note_on_c, 9, 42, 0
7, 27712, Note_on_c, 9, 42, 26
7, 27725, Note_on_c, 9, 42, 0
7, 27744, Note_on_c, 9, 37, 117
7, 27744, Note_on_c, 9, 42, 117
7, 27753, Note_on_c, 9, 37, 0
7, 27758, Note_on_c, 9, 42, 0
7, 27776, Note_on_c, 9, 42, 20
7, 27785, Note_on_c, 9, 42, 0
7, 27808, Note_on_c, 9, 42, 21
7, 27808, Note_on_c, 9, 36, 117
7, 27817, Note_on_c, 9, 42, 0
7, 27818, Note_on_c, 9, 36, 0
7, 27840, Note_on_c, 9, 36, 117
7, 27840, Note_on_c, 9, 42, 36
7, 27850, Note_on_c, 9, 36, 0
7, 27852, Note_on_c, 9, 42, 0
7, 27872, Note_on_c, 9, 42, 21
7, 27881, Note_on_c, 9, 42, 0
7, 27904, Note_on_c, 9, 42, 32
7, 27916, Note_on_c, 9, 42, 0
7, 27936, Note_on_c, 9, 37, 117
7, 27936, Note_on_c, 9, 42, 117
7, 27945, Note_on_c, 9, 37, 0
7, 27951, Note_on_c, 9, 42, 0
7, 27968, Note_on_c, 9, 42, 24
7, 27978, Note_on_c, 9, 42, 0
7, 28000, Note_on_c, 9, 42, 35
7, 28012, Note_on_c, 9, 42, 0
7, 28032, Note_on_c, 9, 36, 117
7, 28032, Note_on_c, 9, 42, 39
7, 28043, Note_on_c, 9, 36, 0
7, 28044, Note_on_c, 9, 42, 0
7, 28064, Note_on_c, 9, 42, 21
7, 28074, Note_on_c, 9, 42, 0
7, 28096, Note_on_c, 9, 42, 26
7, 28106, Note_on_c, 9, 42, 0
7, 28128, Note_on_c, 9, 37, 117
7, 28128, Note_on_c, 9, 42, 117
7, 28136, Note_on_c, 9, 37, 0
7, 28141, Note_on_c, 9, 42, 0
7, 28160, Note_on_c, 9, 42, 24
7, 28169, Note_on_c, 9, 42, 0
7, 28192, Note_on_c, 9, 36, 117
7, 28192, Note_on_c, 9, 42, 27
7, 28202, Note_on_c, 9, 42, 0
7, 28202, Note_on_c, 9, 36, 0
7, 28224, Note_on_c, 9, 36, 117
7, 28224, Note_on_c, 9, 42, 35
7, 28234, Note_on_c, 9, 36, 0
7, 28235, Note_on_c, 9, 42, 0
7, 28256, Note_on_c, 9, 42, 24
7, 28265, Note_on_c, 9, 42, 0
7, 28288, Note_on_c, 9, 42, 35
7, 28303, Note_on_c, 9, 42, 0
7, 28320, Note_on_c, 9, 37, 117
7, 28320, Note_on_c, 9, 42, 117
7, 28327, Note_on_c, 9, 37, 0
7, 28335, Note_on_c, 9, 42, 0
7, 28352, Note_on_c, 9, 42, 35
7, 28366, Note_on_c, 9, 42, 0
7, 28384, Note_on_c, 9, 46, 97
7, 28397, Note_on_c, 9, 46, 0
7, 28416, Note_on_c, 9, 51, 117
7, 28416, Note_on_c, 9, 42, 36
7, 28416, Note_on_c, 9, 36, 117
7, 28426, Note_on_c, 9, 36, 0
7, 28426, Note_on_c, 9, 51, 0
7, 28427, Note_on_c, 9, 42, 0
7, 28448, Note_on_c, 9, 42, 21
7, 28458, Note_on_c, 9, 42, 0
7, 28480, Note_on_c, 9, 42, 26
7, 28493, Note_on_c, 9, 42, 0
7, 28512, Note_on_c, 9, 42, 117
7, 28512, Note_on_c, 9, 37, 117
7, 28521, Note_on_c, 9, 37, 0
7, 28526, Note_on_c, 9, 42, 0
7, 28544, Note_on_c, 9, 42, 20
7, 28553, Note_on_c, 9, 42, 0
7, 28576, Note_on_c, 9, 36, 117
7, 28576, Note_on_c, 9, 42, 21
7, 28585, Note_on_c, 9, 42, 0
7, 28586, Note_on_c, 9, 36, 0
7, 28608, Note_on_c, 9, 36, 117
7, 28608, Note_on_c, 9, 42, 36
7, 28618, Note_on_c, 9, 36, 0
7, 28620, Note_on_c, 9, 42, 0
7, 28640, Note_on_c, 9, 42, 21
7, 28649, Note_on_c, 9, 42, 0
7, 28672, Note_on_c, 9, 42, 32
7, 28684, Note_on_c, 9, 42, 0
7, 28704, Note_on_c, 9, 37, 117
7, 28704, Note_on_c, 9, 42, 117
7, 28713, Note_on_c, 9, 37, 0
7, 28719, Note_on_c, 9, 42, 0
7, 28736, Note_on_c, 9, 42, 24
7, 28746, Note_on_c, 9, 42, 0
7, 28768, Note_on_c, 9, 42, 35
7, 28780, Note_on_c, 9, 42, 0
7, 28800, Note_on_c, 9, 36, 117
7, 28800, Note_on_c, 9, 42, 39
7, 28811, Note_on_c, 9, 36, 0
7, 28812, Note_on_c, 9, 42, 0
7, 28832, Note_on_c, 9, 42, 21
7, 28842, Note_on_c, 9, 42, 0
7, 28864, Note_on_c, 9, 42, 26
7, 28874, Note_on_c, 9, 42, 0
7, 28896, Note_on_c, 9, 37, 117
7, 28896, Note_on_c, 9, 42, 117
7, 28904, Note_on_c, 9, 37, 0
7, 28909, Note_on_c, 9, 42, 0
7, 28928, Note_on_c, 9, 42, 24
7, 28937, Note_on_c, 9, 42, 0
7, 28960, Note_on_c, 9, 36, 117
7, 28960, Note_on_c, 9, 42, 27
7, 28970, Note_on_c, 9, 42, 0
7, 28970, Note_on_c, 9, 36, 0
7, 28992, Note_on_c, 9, 36, 117
7, 28992, Note_on_c, 9, 42, 35
7, 29002, Note_on_c, 9, 36, 0
7, 29003, Note_on_c, 9, 42, 0
7, 29024, Note_on_c, 9, 42, 24
7, 29033, Note_on_c, 9, 42, 0
7, 29056, Note_on_c, 9, 42, 35
7, 29071, Note_on_c, 9, 42, 0
7, 29088, Note_on_c, 9, 37, 117
7, 29088, Note_on_c, 9, 42, 117
7, 29095, Note_on_c, 9, 37, 0
7, 29103, Note_on_c, 9, 42, 0
7, 29120, Note_on_c, 9, 42, 35
7, 29134, Note_on_c, 9, 42, 0
7, 29152, Note_on_c, 9, 46, 97
7, 29165, Note_on_c, 9, 46, 0
7, 29184, Note_on_c, 9, 36, 117
7, 29184, Note_on_c, 9, 42, 36
7, 29184, Note_on_c, 9, 51, 117
7, 29194, Note_on_c, 9, 51, 0
7, 29194, Note_on_c, 9, 36, 0
7, 29195, Note_on_c, 9, 42, 0
7, 29216, Note_on_c, 9, 42, 21
7, 29226, Note_on_c, 9, 42, 0
7, 29248, Note_on_c, 9, 42, 26
7, 29261, Note_on_c, 9, 42, 0
7, 29280, Note_on_c, 9, 42, 117
7, 29280, Note_on_c, 9, 37, 117
7, 29289, Note_on_c, 9, 37, 0
7, 29294, Note_on_c, 9, 42, 0
7, 29312, Note_on_c, 9, 42, 20
7, 29321, Note_on_c, 9, 42, 0
7, 29344, Note_on_c, 9, 36, 117
7, 29344, Note_on_c, 9, 42, 21
7, 29353, Note_on_c, 9, 42, 0
7, 29354, Note_on_c, 9, 36, 0
7, 29376, Note_on_c, 9, 42, 36
7, 29376, Note_on_c, 9, 36, 117
7, 29386, Note_on_c, 9, 36, 0
7, 29388, Note_on_c, 9, 42, 0
7, 29408, Note_on_c, 9, 42, 21
7, 29417, Note_on_c, 9, 42, 0
7, 29440, Note_on_c, 9, 42, 32
7, 29452, Note_on_c, 9, 42, 0
7, 29472, Note_on_c, 9, 37, 117
7, 29472, Note_on_c, 9, 42, 117
7, 29481, Note_on_c, 9, 37, 0
7, 29487, Note_on_c, 9, 42, 0
7, 29504, Note_on_c, 9, 42, 24
7, 29514, Note_on_c, 9, 42, 0
7, 29536, Note_on_c, 9, 42, 35
7, 29548, Note_on_c, 9, 42, 0
7, 29568, Control_c, 9, 7, 90
7, 29568, Note_on_c, 9, 36, 117
7, 29568, Note_on_c, 9, 42, 39
7, 29579, Note_on_c, 9, 36, 0
7, 29580, Note_on_c, 9, 42, 0
7, 29600, Note_on_c, 9, 42, 21
7, 29610, Note_on_c, 9, 42, 0
7, 29625, Control_c, 9, 7, 89
7, 29632, Note_on_c, 9, 42, 26
7, 29642, Note_on_c, 9, 42, 0
7, 29664, Note_on_c, 9, 42, 117
7, 29664, Note_on_c, 9, 37, 117
7, 29672, Note_on_c, 9, 37, 0
7, 29677, Note_on_c, 9, 42, 0
7, 29683, Control_c, 9, 7, 88
7, 29696, Note_on_c, 9, 42, 24
7, 29705, Note_on_c, 9, 42, 0
7, 29728, Note_on_c, 9, 36, 117
7, 29728, Note_on_c, 9, 42, 27
7, 29738, Note_on_c, 9, 42, 0
7, 29738, Note_on_c, 9, 36, 0
7, 29740, Control_c, 9, 7, 87
7, 29760, Note_on_c, 9, 36, 117
7, 29760, Note_on_c, 9, 42, 35
7, 29770, Note_on_c, 9, 36, 0
7, 29771, Note_on_c, 9, 42, 0
7, 29792, Note_on_c, 9, 42, 24
7, 29798, Control_c, 9, 7, 86
7, 29801, Note_on_c, 9, 42, 0
7, 29824, Note_on_c, 9, 42, 35
7, 29839, Note_on_c, 9, 42, 0
7, 29856, Control_c, 9, 7, 85
7, 29856, Note_on_c, 9, 42, 117
7, 29856, Note_on_c, 9, 37, 117
7, 29863, Note_on_c, 9, 37, 0
7, 29871, Note_on_c, 9, 42, 0
7, 29888, Note_on_c, 9, 42, 35
7, 29902, Note_on_c, 9, 42, 0
7, 29913, Control_c, 9, 7, 84
7, 29920, Note_on_c, 9, 46, 97
7, 29933, Note_on_c, 9, 46, 0
7, 29952, Note_on_c, 9, 36, 117
7, 29964, Note_on_c, 9, 36, 0
7, 29971, Control_c, 9, 7, 83
7, 30028, Control_c, 9, 7, 82
7, 30048, Note_on_c, 9, 42, 117
7, 30058, Note_on_c, 9, 42, 0
7, 30086, Control_c, 9, 7, 81
7, 30144, Control_c, 9, 7, 80
7, 30201, Control_c, 9, 7, 79
7, 30240, Note_on_c, 9, 42, 117
7, 30252, Note_on_c, 9, 42, 0
7, 30259, Control_c, 9, 7, 78
7, 30316, Control_c, 9, 7, 77
7, 30374, Control_c, 9, 7, 76
7, 30432, Control_c, 9, 7, 75
7, 30432, Note_on_c, 9, 42, 117
7, 30444, Note_on_c, 9, 42, 0
7, 30489, Control_c, 9, 7, 74
7, 30547, Control_c, 9, 7, 73
7, 30604, Control_c, 9, 7, 72
7, 30624, Note_on_c, 9, 42, 117
7, 30636, Note_on_c, 9, 42, 0
7, 30662, Control_c, 9, 7, 71
7, 30720, Control_c, 9, 7, 70
7, 30720, Note_on_c, 9, 36, 117
7, 30720, Note_on_c, 9, 42, 36
7, 30720, Note_on_c, 9, 51, 117
7, 30730, Note_on_c, 9, 51, 0
7, 30730, Note_on_c, 9, 36, 0
7, 30731, Note_on_c, 9, 42, 0
7, 30752, Note_on_c, 9, 42, 21
7, 30762, Note_on_c, 9, 42, 0
7, 30777, Control_c, 9, 7, 69
7, 30784, Note_on_c, 9, 42, 26
7, 30797, Note_on_c, 9, 42, 0
7, 30816, Note_on_c, 9, 37, 117
7, 30816, Note_on_c, 9, 42, 117
7, 30825, Note_on_c, 9, 37, 0
7, 30830, Note_on_c, 9, 42, 0
7, 30835, Control_c, 9, 7, 68
7, 30848, Note_on_c, 9, 42, 20
7, 30857, Note_on_c, 9, 42, 0
7, 30880, Note_on_c, 9, 36, 117
7, 30880, Note_on_c, 9, 42, 21
7, 30889, Note_on_c, 9, 42, 0
7, 30890, Note_on_c, 9, 36, 0
7, 30892, Control_c, 9, 7, 67
7, 30912, Note_on_c, 9, 36, 117
7, 30912, Note_on_c, 9, 42, 36
7, 30922, Note_on_c, 9, 36, 0
7, 30924, Note_on_c, 9, 42, 0
7, 30944, Note_on_c, 9, 42, 21
7, 30950, Control_c, 9, 7, 66
7, 30953, Note_on_c, 9, 42, 0
7, 30976, Note_on_c, 9, 42, 32
7, 30988, Note_on_c, 9, 42, 0
7, 31008, Control_c, 9, 7, 65
7, 31008, Note_on_c, 9, 37, 117
7, 31008, Note_on_c, 9, 42, 117
7, 31017, Note_on_c, 9, 37, 0
7, 31023, Note_on_c, 9, 42, 0
7, 31040, Note_on_c, 9, 42, 24
7, 31050, Note_on_c, 9, 42, 0
7, 31065, Control_c, 9, 7, 64
7, 31072, Note_on_c, 9, 42, 35
7, 31084, Note_on_c, 9, 42, 0
7, 31104, Note_on_c, 9, 36, 117
7, 31104, Note_on_c, 9, 42, 39
7, 31115, Note_on_c, 9, 36, 0
7, 31116, Note_on_c, 9, 42, 0
7, 31123, Control_c, 9, 7, 63
7, 31136, Note_on_c, 9, 42, 21
7, 31146, Note_on_c, 9, 42, 0
7, 31168, Note_on_c, 9, 42, 26
7, 31178, Note_on_c, 9, 42, 0
7, 31180, Control_c, 9, 7, 62
7, 31200, Note_on_c, 9, 37, 117
7, 31200, Note_on_c, 9, 42, 117
7, 31208, Note_on_c, 9, 37, 0
7, 31213, Note_on_c, 9, 42, 0
7, 31232, Note_on_c, 9, 42, 24
7, 31238, Control_c, 9, 7, 61
7, 31241, Note_on_c, 9, 42, 0
7, 31264, Note_on_c, 9, 36, 117
7, 31264, Note_on_c, 9, 42, 27
7, 31274, Note_on_c, 9, 42, 0
7, 31274, Note_on_c, 9, 36, 0
7, 31296, Control_c, 9, 7, 60
7, 31296, Note_on_c, 9, 36, 117
7, 31296, Note_on_c, 9, 42, 35
7, 31306, Note_on_c, 9, 36, 0
7, 31307, Note_on_c, 9, 42, 0
7, 31307, End_track
0, 0, End_of_file
