0, 0, Header, 1, 23, 120
1, 0, Start_track
1, 0, Time_signature, 4, 2, 24, 8
1, 0, Key_signature, 0, "major"
1, 0, Tempo, 545455
1, 0, Marker_t, "Sade: Why can't we live together"
1, 6720, Marker_t, "Sequenced by Johannes Karhula 5/1994"
1, 6720, End_track
2, 0, Start_track
2, 0, MIDI_port, 0
2, 0, Title_t, "E.Organ"
2, 0, Program_c, 0, 17
2, 5760, Note_on_c, 0, 73, 98
2, 5760, Note_on_c, 0, 73, 98
2, 5760, Note_on_c, 0, 76, 96
2, 5760, Note_on_c, 0, 80, 96
2, 5802, Control_c, 0, 64, 127
2, 5861, Note_on_c, 0, 76, 0
2, 5871, Note_on_c, 0, 80, 0
2, 5873, Note_on_c, 0, 73, 0
2, 5873, Note_on_c, 0, 73, 0
2, 6110, Note_on_c, 0, 68, 71
2, 6139, Control_c, 0, 64, 0
2, 6172, Note_on_c, 0, 73, 90
2, 6178, Control_c, 0, 64, 127
2, 6295, Note_on_c, 0, 76, 90
2, 6313, Note_on_c, 0, 73, 0
2, 6420, Note_on_c, 0, 73, 100
2, 6426, Note_on_c, 0, 68, 0
2, 6430, Note_on_c, 0, 76, 0
2, 6538, Note_on_c, 0, 68, 88
2, 6551, Note_on_c, 0, 73, 0
2, 6599, Note_on_c, 0, 76, 100
2, 6602, Note_on_c, 0, 68, 0
2, 6626, Note_on_c, 0, 76, 0
2, 6719, Note_on_c, 0, 75, 100
2, 6720, Note_on_c, 0, 71, 100
2, 6720, Note_on_c, 0, 78, 82
2, 6727, Control_c, 0, 64, 0
2, 6786, Control_c, 0, 64, 127
2, 6950, Note_on_c, 0, 75, 0
2, 6951, Note_on_c, 0, 71, 0
2, 6963, Note_on_c, 0, 78, 0
2, 7074, Note_on_c, 0, 66, 94
2, 7136, Note_on_c, 0, 71, 90
2, 7152, Control_c, 0, 64, 0
2, 7193, Control_c, 0, 64, 127
2, 7257, Note_on_c, 0, 75, 92
2, 7276, Note_on_c, 0, 71, 0
2, 7336, Note_on_c, 0, 75, 0
2, 7372, Note_on_c, 0, 66, 0
2, 7378, Note_on_c, 0, 71, 101
2, 7498, Note_on_c, 0, 66, 90
2, 7511, Note_on_c, 0, 71, 0
2, 7559, Note_on_c, 0, 75, 101
2, 7567, Note_on_c, 0, 66, 0
2, 7588, Note_on_c, 0, 75, 0
2, 7679, Control_c, 0, 64, 0
2, 7680, Note_on_c, 0, 73, 98
2, 7680, Note_on_c, 0, 73, 98
2, 7680, Note_on_c, 0, 76, 96
2, 7680, Note_on_c, 0, 80, 96
2, 7722, Control_c, 0, 64, 127
2, 7781, Note_on_c, 0, 76, 0
2, 7791, Note_on_c, 0, 80, 0
2, 7793, Note_on_c, 0, 73, 0
2, 7793, Note_on_c, 0, 73, 0
2, 8030, Note_on_c, 0, 68, 71
2, 8059, Control_c, 0, 64, 0
2, 8092, Note_on_c, 0, 73, 90
2, 8098, Control_c, 0, 64, 127
2, 8215, Note_on_c, 0, 76, 90
2, 8233, Note_on_c, 0, 73, 0
2, 8340, Note_on_c, 0, 73, 100
2, 8346, Note_on_c, 0, 68, 0
2, 8350, Note_on_c, 0, 76, 0
2, 8458, Note_on_c, 0, 68, 88
2, 8471, Note_on_c, 0, 73, 0
2, 8519, Note_on_c, 0, 76, 100
2, 8522, Note_on_c, 0, 68, 0
2, 8546, Note_on_c, 0, 76, 0
2, 8639, Note_on_c, 0, 75, 100
2, 8640, Note_on_c, 0, 71, 100
2, 8640, Note_on_c, 0, 78, 82
2, 8647, Control_c, 0, 64, 0
2, 8706, Control_c, 0, 64, 127
2, 8870, Note_on_c, 0, 75, 0
2, 8871, Note_on_c, 0, 71, 0
2, 8883, Note_on_c, 0, 78, 0
2, 8994, Note_on_c, 0, 66, 94
2, 9056, Note_on_c, 0, 71, 90
2, 9072, Control_c, 0, 64, 0
2, 9113, Control_c, 0, 64, 127
2, 9177, Note_on_c, 0, 75, 92
2, 9196, Note_on_c, 0, 71, 0
2, 9256, Note_on_c, 0, 75, 0
2, 9292, Note_on_c, 0, 66, 0
2, 9298, Note_on_c, 0, 71, 101
2, 9418, Note_on_c, 0, 66, 90
2, 9431, Note_on_c, 0, 71, 0
2, 9479, Note_on_c, 0, 75, 101
2, 9487, Note_on_c, 0, 66, 0
2, 9508, Note_on_c, 0, 75, 0
2, 9599, Control_c, 0, 64, 0
2, 9604, Note_on_c, 0, 66, 82
2, 9605, Note_on_c, 0, 75, 74
2, 9605, Note_on_c, 0, 71, 84
2, 9632, Control_c, 0, 64, 127
2, 9742, Note_on_c, 0, 75, 0
2, 9743, Note_on_c, 0, 66, 0
2, 9746, Note_on_c, 0, 71, 0
2, 9783, Note_on_c, 0, 66, 82
2, 9838, Note_on_c, 0, 66, 0
2, 9838, Note_on_c, 0, 71, 81
2, 9894, Note_on_c, 0, 66, 83
2, 9909, Note_on_c, 0, 71, 0
2, 9947, Note_on_c, 0, 66, 0
2, 10019, Note_on_c, 0, 71, 88
2, 10079, Note_on_c, 0, 66, 75
2, 10171, Note_on_c, 0, 66, 0
2, 10196, Note_on_c, 0, 75, 98
2, 10212, Note_on_c, 0, 71, 0
2, 10279, Note_on_c, 0, 75, 0
2, 10318, Note_on_c, 0, 71, 89
2, 10381, Note_on_c, 0, 66, 88
2, 10392, Note_on_c, 0, 71, 0
2, 10423, Note_on_c, 0, 66, 0
2, 10558, Note_on_c, 0, 73, 88
2, 10559, Note_on_c, 0, 80, 89
2, 10560, Note_on_c, 0, 76, 90
2, 10568, Control_c, 0, 64, 0
2, 10606, Control_c, 0, 64, 127
2, 10742, Note_on_c, 0, 80, 0
2, 10742, Note_on_c, 0, 73, 0
2, 10745, Note_on_c, 0, 76, 0
2, 11510, Control_c, 0, 64, 0
2, 11520, Note_on_c, 0, 73, 98
2, 11520, Note_on_c, 0, 73, 98
2, 11520, Note_on_c, 0, 76, 96
2, 11520, Note_on_c, 0, 80, 96
2, 11562, Control_c, 0, 64, 127
2, 11621, Note_on_c, 0, 76, 0
2, 11631, Note_on_c, 0, 80, 0
2, 11633, Note_on_c, 0, 73, 0
2, 11633, Note_on_c, 0, 73, 0
2, 11870, Note_on_c, 0, 68, 71
2, 11899, Control_c, 0, 64, 0
2, 11932, Note_on_c, 0, 73, 90
2, 11938, Control_c, 0, 64, 127
2, 12055, Note_on_c, 0, 76, 90
2, 12073, Note_on_c, 0, 73, 0
2, 12180, Note_on_c, 0, 73, 100
2, 12186, Note_on_c, 0, 68, 0
2, 12190, Note_on_c, 0, 76, 0
2, 12298, Note_on_c, 0, 68, 88
2, 12311, Note_on_c, 0, 73, 0
2, 12359, Note_on_c, 0, 76, 100
2, 12362, Note_on_c, 0, 68, 0
2, 12386, Note_on_c, 0, 76, 0
2, 12479, Note_on_c, 0, 75, 100
2, 12480, Note_on_c, 0, 71, 100
2, 12480, Note_on_c, 0, 78, 82
2, 12487, Control_c, 0, 64, 0
2, 12546, Control_c, 0, 64, 127
2, 12710, Note_on_c, 0, 75, 0
2, 12711, Note_on_c, 0, 71, 0
2, 12723, Note_on_c, 0, 78, 0
2, 12834, Note_on_c, 0, 66, 94
2, 12896, Note_on_c, 0, 71, 90
2, 12912, Control_c, 0, 64, 0
2, 12953, Control_c, 0, 64, 127
2, 13017, Note_on_c, 0, 75, 92
2, 13036, Note_on_c, 0, 71, 0
2, 13096, Note_on_c, 0, 75, 0
2, 13132, Note_on_c, 0, 66, 0
2, 13138, Note_on_c, 0, 71, 101
2, 13258, Note_on_c, 0, 66, 90
2, 13271, Note_on_c, 0, 71, 0
2, 13319, Note_on_c, 0, 75, 101
2, 13327, Note_on_c, 0, 66, 0
2, 13348, Note_on_c, 0, 75, 0
2, 13439, Control_c, 0, 64, 0
2, 13440, Note_on_c, 0, 73, 98
2, 13440, Note_on_c, 0, 73, 98
2, 13440, Note_on_c, 0, 76, 96
2, 13440, Note_on_c, 0, 80, 96
2, 13482, Control_c, 0, 64, 127
2, 13541, Note_on_c, 0, 76, 0
2, 13551, Note_on_c, 0, 80, 0
2, 13553, Note_on_c, 0, 73, 0
2, 13553, Note_on_c, 0, 73, 0
2, 13790, Note_on_c, 0, 68, 71
2, 13819, Control_c, 0, 64, 0
2, 13852, Note_on_c, 0, 73, 90
2, 13858, Control_c, 0, 64, 127
2, 13975, Note_on_c, 0, 76, 90
2, 13993, Note_on_c, 0, 73, 0
2, 14100, Note_on_c, 0, 73, 100
2, 14106, Note_on_c, 0, 68, 0
2, 14110, Note_on_c, 0, 76, 0
2, 14218, Note_on_c, 0, 68, 88
2, 14231, Note_on_c, 0, 73, 0
2, 14279, Note_on_c, 0, 76, 100
2, 14282, Note_on_c, 0, 68, 0
2, 14306, Note_on_c, 0, 76, 0
2, 14399, Note_on_c, 0, 75, 100
2, 14400, Note_on_c, 0, 71, 100
2, 14400, Note_on_c, 0, 78, 82
2, 14407, Control_c, 0, 64, 0
2, 14466, Control_c, 0, 64, 127
2, 14630, Note_on_c, 0, 75, 0
2, 14631, Note_on_c, 0, 71, 0
2, 14643, Note_on_c, 0, 78, 0
2, 14754, Note_on_c, 0, 66, 94
2, 14816, Note_on_c, 0, 71, 90
2, 14832, Control_c, 0, 64, 0
2, 14873, Control_c, 0, 64, 127
2, 14937, Note_on_c, 0, 75, 92
2, 14956, Note_on_c, 0, 71, 0
2, 15016, Note_on_c, 0, 75, 0
2, 15052, Note_on_c, 0, 66, 0
2, 15058, Note_on_c, 0, 71, 101
2, 15178, Note_on_c, 0, 66, 90
2, 15191, Note_on_c, 0, 71, 0
2, 15239, Note_on_c, 0, 75, 101
2, 15247, Note_on_c, 0, 66, 0
2, 15268, Note_on_c, 0, 75, 0
2, 15359, Control_c, 0, 64, 0
2, 15364, Note_on_c, 0, 66, 82
2, 15365, Note_on_c, 0, 75, 74
2, 15365, Note_on_c, 0, 71, 84
2, 15392, Control_c, 0, 64, 127
2, 15502, Note_on_c, 0, 75, 0
2, 15503, Note_on_c, 0, 66, 0
2, 15506, Note_on_c, 0, 71, 0
2, 15543, Note_on_c, 0, 66, 82
2, 15598, Note_on_c, 0, 66, 0
2, 15598, Note_on_c, 0, 71, 81
2, 15654, Note_on_c, 0, 66, 83
2, 15669, Note_on_c, 0, 71, 0
2, 15707, Note_on_c, 0, 66, 0
2, 15779, Note_on_c, 0, 71, 88
2, 15839, Note_on_c, 0, 66, 75
2, 15931, Note_on_c, 0, 66, 0
2, 15956, Note_on_c, 0, 75, 98
2, 15972, Note_on_c, 0, 71, 0
2, 16039, Note_on_c, 0, 75, 0
2, 16078, Note_on_c, 0, 71, 89
2, 16141, Note_on_c, 0, 66, 88
2, 16152, Note_on_c, 0, 71, 0
2, 16183, Note_on_c, 0, 66, 0
2, 16318, Note_on_c, 0, 73, 88
2, 16319, Note_on_c, 0, 80, 89
2, 16320, Note_on_c, 0, 76, 90
2, 16328, Control_c, 0, 64, 0
2, 16366, Control_c, 0, 64, 127
2, 16502, Note_on_c, 0, 80, 0
2, 16502, Note_on_c, 0, 73, 0
2, 16505, Note_on_c, 0, 76, 0
2, 17270, Control_c, 0, 64, 0
2, 17280, Note_on_c, 0, 73, 109
2, 17280, Note_on_c, 0, 80, 124
2, 17291, Note_on_c, 0, 73, 0
2, 17297, Note_on_c, 0, 80, 0
2, 17457, Note_on_c, 0, 73, 109
2, 17458, Note_on_c, 0, 80, 109
2, 17478, Note_on_c, 0, 73, 0
2, 17483, Note_on_c, 0, 80, 0
2, 17637, Note_on_c, 0, 80, 109
2, 17637, Note_on_c, 0, 73, 96
2, 17659, Note_on_c, 0, 73, 0
2, 17664, Note_on_c, 0, 80, 0
2, 17820, Note_on_c, 0, 73, 111
2, 17820, Note_on_c, 0, 80, 127
2, 17851, Note_on_c, 0, 73, 0
2, 17857, Note_on_c, 0, 80, 0
2, 17995, Note_on_c, 0, 80, 114
2, 17995, Note_on_c, 0, 73, 98
2, 18022, Note_on_c, 0, 73, 0
2, 18025, Note_on_c, 0, 80, 0
2, 18234, Note_on_c, 0, 80, 118
2, 18234, Note_on_c, 0, 73, 96
2, 18262, Note_on_c, 0, 73, 0
2, 18267, Note_on_c, 0, 80, 0
2, 18420, Note_on_c, 0, 73, 111
2, 18421, Note_on_c, 0, 80, 116
2, 18449, Note_on_c, 0, 73, 0
2, 18454, Note_on_c, 0, 80, 0
2, 18598, Note_on_c, 0, 73, 111
2, 18598, Note_on_c, 0, 80, 116
2, 18627, Note_on_c, 0, 73, 0
2, 18636, Note_on_c, 0, 80, 0
2, 18778, Note_on_c, 0, 80, 111
2, 18779, Note_on_c, 0, 73, 109
2, 18816, Note_on_c, 0, 73, 0
2, 18819, Note_on_c, 0, 80, 0
2, 18956, Note_on_c, 0, 80, 120
2, 18957, Note_on_c, 0, 73, 103
2, 18984, Note_on_c, 0, 73, 0
2, 18993, Note_on_c, 0, 80, 0
2, 19200, Note_on_c, 0, 80, 120
2, 19200, Note_on_c, 0, 73, 111
2, 19223, Note_on_c, 0, 73, 0
2, 19224, Note_on_c, 0, 80, 0
2, 19380, Note_on_c, 0, 73, 111
2, 19380, Note_on_c, 0, 80, 114
2, 19411, Note_on_c, 0, 73, 0
2, 19417, Note_on_c, 0, 80, 0
2, 19555, Note_on_c, 0, 73, 109
2, 19556, Note_on_c, 0, 80, 101
2, 19591, Note_on_c, 0, 73, 0
2, 19595, Note_on_c, 0, 80, 0
2, 19740, Note_on_c, 0, 73, 109
2, 19741, Note_on_c, 0, 80, 109
2, 19772, Note_on_c, 0, 73, 0
2, 19779, Note_on_c, 0, 80, 0
2, 19915, Note_on_c, 0, 73, 105
2, 19915, Note_on_c, 0, 80, 111
2, 19949, Note_on_c, 0, 73, 0
2, 19953, Note_on_c, 0, 80, 0
2, 20167, Note_on_c, 0, 73, 116
2, 20168, Note_on_c, 0, 80, 127
2, 20190, Note_on_c, 0, 73, 0
2, 20199, Note_on_c, 0, 80, 0
2, 20340, Note_on_c, 0, 73, 107
2, 20341, Note_on_c, 0, 80, 113
2, 20373, Note_on_c, 0, 73, 0
2, 20379, Note_on_c, 0, 80, 0
2, 20519, Note_on_c, 0, 73, 105
2, 20519, Note_on_c, 0, 80, 107
2, 20549, Note_on_c, 0, 73, 0
2, 20553, Note_on_c, 0, 80, 0
2, 20703, Note_on_c, 0, 73, 113
2, 20703, Note_on_c, 0, 80, 127
2, 20729, Note_on_c, 0, 73, 0
2, 20737, Note_on_c, 0, 80, 0
2, 21120, Note_on_c, 0, 73, 98
2, 21120, Note_on_c, 0, 73, 98
2, 21120, Note_on_c, 0, 76, 96
2, 21120, Note_on_c, 0, 80, 96
2, 21162, Control_c, 0, 64, 127
2, 21221, Note_on_c, 0, 76, 0
2, 21231, Note_on_c, 0, 80, 0
2, 21233, Note_on_c, 0, 73, 0
2, 21233, Note_on_c, 0, 73, 0
2, 21470, Note_on_c, 0, 68, 71
2, 21499, Control_c, 0, 64, 0
2, 21532, Note_on_c, 0, 73, 90
2, 21538, Control_c, 0, 64, 127
2, 21655, Note_on_c, 0, 76, 90
2, 21673, Note_on_c, 0, 73, 0
2, 21780, Note_on_c, 0, 73, 100
2, 21786, Note_on_c, 0, 68, 0
2, 21790, Note_on_c, 0, 76, 0
2, 21898, Note_on_c, 0, 68, 88
2, 21911, Note_on_c, 0, 73, 0
2, 21959, Note_on_c, 0, 76, 100
2, 21962, Note_on_c, 0, 68, 0
2, 21986, Note_on_c, 0, 76, 0
2, 22079, Note_on_c, 0, 75, 100
2, 22080, Note_on_c, 0, 71, 100
2, 22080, Note_on_c, 0, 78, 82
2, 22087, Control_c, 0, 64, 0
2, 22146, Control_c, 0, 64, 127
2, 22310, Note_on_c, 0, 75, 0
2, 22311, Note_on_c, 0, 71, 0
2, 22323, Note_on_c, 0, 78, 0
2, 22434, Note_on_c, 0, 66, 94
2, 22496, Note_on_c, 0, 71, 90
2, 22512, Control_c, 0, 64, 0
2, 22553, Control_c, 0, 64, 127
2, 22617, Note_on_c, 0, 75, 92
2, 22636, Note_on_c, 0, 71, 0
2, 22696, Note_on_c, 0, 75, 0
2, 22732, Note_on_c, 0, 66, 0
2, 22738, Note_on_c, 0, 71, 101
2, 22858, Note_on_c, 0, 66, 90
2, 22871, Note_on_c, 0, 71, 0
2, 22919, Note_on_c, 0, 75, 101
2, 22927, Note_on_c, 0, 66, 0
2, 22948, Note_on_c, 0, 75, 0
2, 23039, Control_c, 0, 64, 0
2, 23040, Note_on_c, 0, 73, 98
2, 23040, Note_on_c, 0, 73, 98
2, 23040, Note_on_c, 0, 76, 96
2, 23040, Note_on_c, 0, 80, 96
2, 23082, Control_c, 0, 64, 127
2, 23141, Note_on_c, 0, 76, 0
2, 23151, Note_on_c, 0, 80, 0
2, 23153, Note_on_c, 0, 73, 0
2, 23153, Note_on_c, 0, 73, 0
2, 23390, Note_on_c, 0, 68, 71
2, 23419, Control_c, 0, 64, 0
2, 23452, Note_on_c, 0, 73, 90
2, 23458, Control_c, 0, 64, 127
2, 23575, Note_on_c, 0, 76, 90
2, 23593, Note_on_c, 0, 73, 0
2, 23700, Note_on_c, 0, 73, 100
2, 23706, Note_on_c, 0, 68, 0
2, 23710, Note_on_c, 0, 76, 0
2, 23818, Note_on_c, 0, 68, 88
2, 23831, Note_on_c, 0, 73, 0
2, 23879, Note_on_c, 0, 76, 100
2, 23882, Note_on_c, 0, 68, 0
2, 23906, Note_on_c, 0, 76, 0
2, 23999, Note_on_c, 0, 75, 100
2, 24000, Note_on_c, 0, 71, 100
2, 24000, Note_on_c, 0, 78, 82
2, 24007, Control_c, 0, 64, 0
2, 24066, Control_c, 0, 64, 127
2, 24230, Note_on_c, 0, 75, 0
2, 24231, Note_on_c, 0, 71, 0
2, 24243, Note_on_c, 0, 78, 0
2, 24354, Note_on_c, 0, 66, 94
2, 24416, Note_on_c, 0, 71, 90
2, 24432, Control_c, 0, 64, 0
2, 24473, Control_c, 0, 64, 127
2, 24537, Note_on_c, 0, 75, 92
2, 24556, Note_on_c, 0, 71, 0
2, 24616, Note_on_c, 0, 75, 0
2, 24652, Note_on_c, 0, 66, 0
2, 24658, Note_on_c, 0, 71, 101
2, 24778, Note_on_c, 0, 66, 90
2, 24791, Note_on_c, 0, 71, 0
2, 24839, Note_on_c, 0, 75, 101
2, 24847, Note_on_c, 0, 66, 0
2, 24868, Note_on_c, 0, 75, 0
2, 24959, Control_c, 0, 64, 0
2, 24960, Note_on_c, 0, 73, 98
2, 24960, Note_on_c, 0, 73, 98
2, 24960, Note_on_c, 0, 76, 96
2, 24960, Note_on_c, 0, 80, 96
2, 25002, Control_c, 0, 64, 127
2, 25061, Note_on_c, 0, 76, 0
2, 25071, Note_on_c, 0, 80, 0
2, 25073, Note_on_c, 0, 73, 0
2, 25073, Note_on_c, 0, 73, 0
2, 25310, Note_on_c, 0, 68, 71
2, 25339, Control_c, 0, 64, 0
2, 25372, Note_on_c, 0, 73, 90
2, 25378, Control_c, 0, 64, 127
2, 25495, Note_on_c, 0, 76, 90
2, 25513, Note_on_c, 0, 73, 0
2, 25620, Note_on_c, 0, 73, 100
2, 25626, Note_on_c, 0, 68, 0
2, 25630, Note_on_c, 0, 76, 0
2, 25738, Note_on_c, 0, 68, 88
2, 25751, Note_on_c, 0, 73, 0
2, 25799, Note_on_c, 0, 76, 100
2, 25802, Note_on_c, 0, 68, 0
2, 25826, Note_on_c, 0, 76, 0
2, 25919, Note_on_c, 0, 75, 100
2, 25920, Note_on_c, 0, 71, 100
2, 25920, Note_on_c, 0, 78, 82
2, 25927, Control_c, 0, 64, 0
2, 25986, Control_c, 0, 64, 127
2, 26150, Note_on_c, 0, 75, 0
2, 26151, Note_on_c, 0, 71, 0
2, 26163, Note_on_c, 0, 78, 0
2, 26274, Note_on_c, 0, 66, 94
2, 26336, Note_on_c, 0, 71, 90
2, 26352, Control_c, 0, 64, 0
2, 26393, Control_c, 0, 64, 127
2, 26457, Note_on_c, 0, 75, 92
2, 26476, Note_on_c, 0, 71, 0
2, 26536, Note_on_c, 0, 75, 0
2, 26572, Note_on_c, 0, 66, 0
2, 26578, Note_on_c, 0, 71, 101
2, 26698, Note_on_c, 0, 66, 90
2, 26711, Note_on_c, 0, 71, 0
2, 26759, Note_on_c, 0, 75, 101
2, 26767, Note_on_c, 0, 66, 0
2, 26788, Note_on_c, 0, 75, 0
2, 26879, Control_c, 0, 64, 0
2, 26880, Note_on_c, 0, 73, 98
2, 26880, Note_on_c, 0, 73, 98
2, 26880, Note_on_c, 0, 76, 96
2, 26880, Note_on_c, 0, 80, 96
2, 26922, Control_c, 0, 64, 127
2, 26981, Note_on_c, 0, 76, 0
2, 26991, Note_on_c, 0, 80, 0
2, 26993, Note_on_c, 0, 73, 0
2, 26993, Note_on_c, 0, 73, 0
2, 27230, Note_on_c, 0, 68, 71
2, 27259, Control_c, 0, 64, 0
2, 27292, Note_on_c, 0, 73, 90
2, 27298, Control_c, 0, 64, 127
2, 27415, Note_on_c, 0, 76, 90
2, 27433, Note_on_c, 0, 73, 0
2, 27540, Note_on_c, 0, 73, 100
2, 27546, Note_on_c, 0, 68, 0
2, 27550, Note_on_c, 0, 76, 0
2, 27658, Note_on_c, 0, 68, 88
2, 27671, Note_on_c, 0, 73, 0
2, 27719, Note_on_c, 0, 76, 100
2, 27722, Note_on_c, 0, 68, 0
2, 27746, Note_on_c, 0, 76, 0
2, 27839, Note_on_c, 0, 75, 100
2, 27840, Note_on_c, 0, 71, 100
2, 27840, Note_on_c, 0, 78, 82
2, 27847, Control_c, 0, 64, 0
2, 27906, Control_c, 0, 64, 127
2, 28070, Note_on_c, 0, 75, 0
2, 28071, Note_on_c, 0, 71, 0
2, 28083, Note_on_c, 0, 78, 0
2, 28194, Note_on_c, 0, 66, 94
2, 28256, Note_on_c, 0, 71, 90
2, 28272, Control_c, 0, 64, 0
2, 28313, Control_c, 0, 64, 127
2, 28377, Note_on_c, 0, 75, 92
2, 28396, Note_on_c, 0, 71, 0
2, 28456, Note_on_c, 0, 75, 0
2, 28492, Note_on_c, 0, 66, 0
2, 28498, Note_on_c, 0, 71, 101
2, 28618, Note_on_c, 0, 66, 90
2, 28631, Note_on_c, 0, 71, 0
2, 28679, Note_on_c, 0, 75, 101
2, 28687, Note_on_c, 0, 66, 0
2, 28708, Note_on_c, 0, 75, 0
2, 28804, Note_on_c, 0, 66, 82
2, 28805, Note_on_c, 0, 75, 74
2, 28805, Note_on_c, 0, 71, 84
2, 28832, Control_c, 0, 64, 127
2, 28942, Note_on_c, 0, 75, 0
2, 28943, Note_on_c, 0, 66, 0
2, 28946, Note_on_c, 0, 71, 0
2, 28983, Note_on_c, 0, 66, 82
2, 29038, Note_on_c, 0, 66, 0
2, 29038, Note_on_c, 0, 71, 81
2, 29094, Note_on_c, 0, 66, 83
2, 29109, Note_on_c, 0, 71, 0
2, 29147, Note_on_c, 0, 66, 0
2, 29219, Note_on_c, 0, 71, 88
2, 29279, Note_on_c, 0, 66, 75
2, 29371, Note_on_c, 0, 66, 0
2, 29396, Note_on_c, 0, 75, 98
2, 29412, Note_on_c, 0, 71, 0
2, 29479, Note_on_c, 0, 75, 0
2, 29518, Note_on_c, 0, 71, 89
2, 29581, Note_on_c, 0, 66, 88
2, 29592, Note_on_c, 0, 71, 0
2, 29623, Note_on_c, 0, 66, 0
2, 29758, Note_on_c, 0, 73, 88
2, 29759, Note_on_c, 0, 80, 89
2, 29760, Note_on_c, 0, 76, 90
2, 29768, Control_c, 0, 64, 0
2, 29806, Control_c, 0, 64, 127
2, 29942, Note_on_c, 0, 80, 0
2, 29942, Note_on_c, 0, 73, 0
2, 29945, Note_on_c, 0, 76, 0
2, 30710, Control_c, 0, 64, 0
2, 30720, Note_on_c, 0, 73, 98
2, 30720, Note_on_c, 0, 73, 98
2, 30720, Note_on_c, 0, 76, 96
2, 30720, Note_on_c, 0, 80, 96
2, 30762, Control_c, 0, 64, 127
2, 30821, Note_on_c, 0, 76, 0
2, 30831, Note_on_c, 0, 80, 0
2, 30833, Note_on_c, 0, 73, 0
2, 30833, Note_on_c, 0, 73, 0
2, 31070, Note_on_c, 0, 68, 71
2, 31099, Control_c, 0, 64, 0
2, 31132, Note_on_c, 0, 73, 90
2, 31138, Control_c, 0, 64, 127
2, 31255, Note_on_c, 0, 76, 90
2, 31273, Note_on_c, 0, 73, 0
2, 31380, Note_on_c, 0, 73, 100
2, 31386, Note_on_c, 0, 68, 0
2, 31390, Note_on_c, 0, 76, 0
2, 31498, Note_on_c, 0, 68, 88
2, 31511, Note_on_c, 0, 73, 0
2, 31559, Note_on_c, 0, 76, 100
2, 31562, Note_on_c, 0, 68, 0
2, 31586, Note_on_c, 0, 76, 0
2, 31679, Note_on_c, 0, 75, 100
2, 31680, Note_on_c, 0, 71, 100
2, 31680, Note_on_c, 0, 78, 82
2, 31687, Control_c, 0, 64, 0
2, 31746, Control_c, 0, 64, 127
2, 31910, Note_on_c, 0, 75, 0
2, 31911, Note_on_c, 0, 71, 0
2, 31923, Note_on_c, 0, 78, 0
2, 32034, Note_on_c, 0, 66, 94
2, 32096, Note_on_c, 0, 71, 90
2, 32112, Control_c, 0, 64, 0
2, 32153, Control_c, 0, 64, 127
2, 32217, Note_on_c, 0, 75, 92
2, 32236, Note_on_c, 0, 71, 0
2, 32296, Note_on_c, 0, 75, 0
2, 32332, Note_on_c, 0, 66, 0
2, 32338, Note_on_c, 0, 71, 101
2, 32458, Note_on_c, 0, 66, 90
2, 32471, Note_on_c, 0, 71, 0
2, 32519, Note_on_c, 0, 75, 101
2, 32527, Note_on_c, 0, 66, 0
2, 32548, Note_on_c, 0, 75, 0
2, 32639, Control_c, 0, 64, 0
2, 32640, Note_on_c, 0, 73, 98
2, 32640, Note_on_c, 0, 73, 98
2, 32640, Note_on_c, 0, 76, 96
2, 32640, Note_on_c, 0, 80, 96
2, 32682, Control_c, 0, 64, 127
2, 32741, Note_on_c, 0, 76, 0
2, 32751, Note_on_c, 0, 80, 0
2, 32753, Note_on_c, 0, 73, 0
2, 32753, Note_on_c, 0, 73, 0
2, 32990, Note_on_c, 0, 68, 71
2, 33019, Control_c, 0, 64, 0
2, 33052, Note_on_c, 0, 73, 90
2, 33058, Control_c, 0, 64, 127
2, 33175, Note_on_c, 0, 76, 90
2, 33193, Note_on_c, 0, 73, 0
2, 33300, Note_on_c, 0, 73, 100
2, 33306, Note_on_c, 0, 68, 0
2, 33310, Note_on_c, 0, 76, 0
2, 33418, Note_on_c, 0, 68, 88
2, 33431, Note_on_c, 0, 73, 0
2, 33479, Note_on_c, 0, 76, 100
2, 33482, Note_on_c, 0, 68, 0
2, 33506, Note_on_c, 0, 76, 0
2, 33599, Note_on_c, 0, 75, 100
2, 33600, Note_on_c, 0, 71, 100
2, 33600, Note_on_c, 0, 78, 82
2, 33607, Control_c, 0, 64, 0
2, 33666, Control_c, 0, 64, 127
2, 33830, Note_on_c, 0, 75, 0
2, 33831, Note_on_c, 0, 71, 0
2, 33843, Note_on_c, 0, 78, 0
2, 33954, Note_on_c, 0, 66, 94
2, 34016, Note_on_c, 0, 71, 90
2, 34032, Control_c, 0, 64, 0
2, 34073, Control_c, 0, 64, 127
2, 34137, Note_on_c, 0, 75, 92
2, 34156, Note_on_c, 0, 71, 0
2, 34216, Note_on_c, 0, 75, 0
2, 34252, Note_on_c, 0, 66, 0
2, 34258, Note_on_c, 0, 71, 101
2, 34378, Note_on_c, 0, 66, 90
2, 34391, Note_on_c, 0, 71, 0
2, 34439, Note_on_c, 0, 75, 101
2, 34447, Note_on_c, 0, 66, 0
2, 34468, Note_on_c, 0, 75, 0
2, 34564, Note_on_c, 0, 66, 82
2, 34565, Note_on_c, 0, 75, 74
2, 34565, Note_on_c, 0, 71, 84
2, 34592, Control_c, 0, 64, 127
2, 34702, Note_on_c, 0, 75, 0
2, 34703, Note_on_c, 0, 66, 0
2, 34706, Note_on_c, 0, 71, 0
2, 34743, Note_on_c, 0, 66, 82
2, 34798, Note_on_c, 0, 66, 0
2, 34798, Note_on_c, 0, 71, 81
2, 34854, Note_on_c, 0, 66, 83
2, 34869, Note_on_c, 0, 71, 0
2, 34907, Note_on_c, 0, 66, 0
2, 34979, Note_on_c, 0, 71, 88
2, 35039, Note_on_c, 0, 66, 75
2, 35131, Note_on_c, 0, 66, 0
2, 35156, Note_on_c, 0, 75, 98
2, 35172, Note_on_c, 0, 71, 0
2, 35239, Note_on_c, 0, 75, 0
2, 35278, Note_on_c, 0, 71, 89
2, 35341, Note_on_c, 0, 66, 88
2, 35352, Note_on_c, 0, 71, 0
2, 35383, Note_on_c, 0, 66, 0
2, 35518, Note_on_c, 0, 73, 88
2, 35519, Note_on_c, 0, 80, 89
2, 35520, Note_on_c, 0, 77, 90
2, 35528, Control_c, 0, 64, 0
2, 35566, Control_c, 0, 64, 127
2, 35702, Note_on_c, 0, 80, 0
2, 35702, Note_on_c, 0, 73, 0
2, 35705, Note_on_c, 0, 77, 0
2, 36470, Control_c, 0, 64, 0
2, 36480, Note_on_c, 0, 73, 109
2, 36480, Note_on_c, 0, 80, 124
2, 36491, Note_on_c, 0, 73, 0
2, 36497, Note_on_c, 0, 80, 0
2, 36657, Note_on_c, 0, 73, 109
2, 36658, Note_on_c, 0, 80, 109
2, 36678, Note_on_c, 0, 73, 0
2, 36683, Note_on_c, 0, 80, 0
2, 36837, Note_on_c, 0, 80, 109
2, 36837, Note_on_c, 0, 73, 96
2, 36859, Note_on_c, 0, 73, 0
2, 36864, Note_on_c, 0, 80, 0
2, 37020, Note_on_c, 0, 73, 111
2, 37020, Note_on_c, 0, 80, 127
2, 37051, Note_on_c, 0, 73, 0
2, 37057, Note_on_c, 0, 80, 0
2, 37195, Note_on_c, 0, 80, 114
2, 37195, Note_on_c, 0, 73, 98
2, 37222, Note_on_c, 0, 73, 0
2, 37225, Note_on_c, 0, 80, 0
2, 37434, Note_on_c, 0, 80, 118
2, 37434, Note_on_c, 0, 73, 96
2, 37462, Note_on_c, 0, 73, 0
2, 37467, Note_on_c, 0, 80, 0
2, 37620, Note_on_c, 0, 73, 111
2, 37621, Note_on_c, 0, 80, 116
2, 37649, Note_on_c, 0, 73, 0
2, 37654, Note_on_c, 0, 80, 0
2, 37798, Note_on_c, 0, 73, 111
2, 37798, Note_on_c, 0, 80, 116
2, 37827, Note_on_c, 0, 73, 0
2, 37836, Note_on_c, 0, 80, 0
2, 37978, Note_on_c, 0, 80, 111
2, 37979, Note_on_c, 0, 73, 109
2, 38016, Note_on_c, 0, 73, 0
2, 38019, Note_on_c, 0, 80, 0
2, 38156, Note_on_c, 0, 80, 120
2, 38157, Note_on_c, 0, 73, 103
2, 38184, Note_on_c, 0, 73, 0
2, 38193, Note_on_c, 0, 80, 0
2, 38400, Note_on_c, 0, 80, 120
2, 38400, Note_on_c, 0, 73, 111
2, 38423, Note_on_c, 0, 73, 0
2, 38424, Note_on_c, 0, 80, 0
2, 38580, Note_on_c, 0, 73, 111
2, 38580, Note_on_c, 0, 80, 114
2, 38611, Note_on_c, 0, 73, 0
2, 38617, Note_on_c, 0, 80, 0
2, 38755, Note_on_c, 0, 73, 109
2, 38756, Note_on_c, 0, 80, 101
2, 38791, Note_on_c, 0, 73, 0
2, 38795, Note_on_c, 0, 80, 0
2, 38940, Note_on_c, 0, 73, 109
2, 38941, Note_on_c, 0, 80, 109
2, 38972, Note_on_c, 0, 73, 0
2, 38979, Note_on_c, 0, 80, 0
2, 39115, Note_on_c, 0, 73, 105
2, 39115, Note_on_c, 0, 80, 111
2, 39149, Note_on_c, 0, 73, 0
2, 39153, Note_on_c, 0, 80, 0
2, 39367, Note_on_c, 0, 73, 116
2, 39368, Note_on_c, 0, 80, 127
2, 39390, Note_on_c, 0, 73, 0
2, 39399, Note_on_c, 0, 80, 0
2, 39540, Note_on_c, 0, 73, 107
2, 39541, Note_on_c, 0, 80, 113
2, 39573, Note_on_c, 0, 73, 0
2, 39579, Note_on_c, 0, 80, 0
2, 39719, Note_on_c, 0, 73, 105
2, 39719, Note_on_c, 0, 80, 107
2, 39749, Note_on_c, 0, 73, 0
2, 39753, Note_on_c, 0, 80, 0
2, 39903, Note_on_c, 0, 73, 113
2, 39903, Note_on_c, 0, 80, 127
2, 39929, Note_on_c, 0, 73, 0
2, 39937, Note_on_c, 0, 80, 0
2, 40320, Note_on_c, 0, 73, 98
2, 40320, Note_on_c, 0, 73, 98
2, 40320, Note_on_c, 0, 76, 96
2, 40320, Note_on_c, 0, 80, 96
2, 40362, Control_c, 0, 64, 127
2, 40421, Note_on_c, 0, 76, 0
2, 40431, Note_on_c, 0, 80, 0
2, 40433, Note_on_c, 0, 73, 0
2, 40433, Note_on_c, 0, 73, 0
2, 40670, Note_on_c, 0, 68, 71
2, 40699, Control_c, 0, 64, 0
2, 40732, Note_on_c, 0, 73, 90
2, 40738, Control_c, 0, 64, 127
2, 40855, Note_on_c, 0, 76, 90
2, 40873, Note_on_c, 0, 73, 0
2, 40980, Note_on_c, 0, 73, 100
2, 40986, Note_on_c, 0, 68, 0
2, 40990, Note_on_c, 0, 76, 0
2, 41098, Note_on_c, 0, 68, 88
2, 41111, Note_on_c, 0, 73, 0
2, 41159, Note_on_c, 0, 76, 100
2, 41162, Note_on_c, 0, 68, 0
2, 41186, Note_on_c, 0, 76, 0
2, 41279, Note_on_c, 0, 75, 100
2, 41280, Note_on_c, 0, 71, 100
2, 41280, Note_on_c, 0, 78, 82
2, 41287, Control_c, 0, 64, 0
2, 41346, Control_c, 0, 64, 127
2, 41510, Note_on_c, 0, 75, 0
2, 41511, Note_on_c, 0, 71, 0
2, 41523, Note_on_c, 0, 78, 0
2, 41634, Note_on_c, 0, 66, 94
2, 41696, Note_on_c, 0, 71, 90
2, 41712, Control_c, 0, 64, 0
2, 41753, Control_c, 0, 64, 127
2, 41817, Note_on_c, 0, 75, 92
2, 41836, Note_on_c, 0, 71, 0
2, 41896, Note_on_c, 0, 75, 0
2, 41932, Note_on_c, 0, 66, 0
2, 41938, Note_on_c, 0, 71, 101
2, 42058, Note_on_c, 0, 66, 90
2, 42071, Note_on_c, 0, 71, 0
2, 42119, Note_on_c, 0, 75, 101
2, 42127, Note_on_c, 0, 66, 0
2, 42148, Note_on_c, 0, 75, 0
2, 42239, Control_c, 0, 64, 0
2, 42240, Note_on_c, 0, 73, 98
2, 42240, Note_on_c, 0, 73, 98
2, 42240, Note_on_c, 0, 76, 96
2, 42240, Note_on_c, 0, 80, 96
2, 42282, Control_c, 0, 64, 127
2, 42341, Note_on_c, 0, 76, 0
2, 42351, Note_on_c, 0, 80, 0
2, 42353, Note_on_c, 0, 73, 0
2, 42353, Note_on_c, 0, 73, 0
2, 42590, Note_on_c, 0, 68, 71
2, 42619, Control_c, 0, 64, 0
2, 42652, Note_on_c, 0, 73, 90
2, 42658, Control_c, 0, 64, 127
2, 42775, Note_on_c, 0, 76, 90
2, 42793, Note_on_c, 0, 73, 0
2, 42900, Note_on_c, 0, 73, 100
2, 42906, Note_on_c, 0, 68, 0
2, 42910, Note_on_c, 0, 76, 0
2, 43018, Note_on_c, 0, 68, 88
2, 43031, Note_on_c, 0, 73, 0
2, 43079, Note_on_c, 0, 76, 100
2, 43082, Note_on_c, 0, 68, 0
2, 43106, Note_on_c, 0, 76, 0
2, 43199, Note_on_c, 0, 75, 100
2, 43200, Note_on_c, 0, 71, 100
2, 43200, Note_on_c, 0, 78, 82
2, 43207, Control_c, 0, 64, 0
2, 43266, Control_c, 0, 64, 127
2, 43430, Note_on_c, 0, 75, 0
2, 43431, Note_on_c, 0, 71, 0
2, 43443, Note_on_c, 0, 78, 0
2, 43554, Note_on_c, 0, 66, 94
2, 43616, Note_on_c, 0, 71, 90
2, 43632, Control_c, 0, 64, 0
2, 43673, Control_c, 0, 64, 127
2, 43737, Note_on_c, 0, 75, 92
2, 43756, Note_on_c, 0, 71, 0
2, 43816, Note_on_c, 0, 75, 0
2, 43852, Note_on_c, 0, 66, 0
2, 43858, Note_on_c, 0, 71, 101
2, 43978, Note_on_c, 0, 66, 90
2, 43991, Note_on_c, 0, 71, 0
2, 44039, Note_on_c, 0, 75, 101
2, 44047, Note_on_c, 0, 66, 0
2, 44068, Note_on_c, 0, 75, 0
2, 44164, Note_on_c, 0, 66, 82
2, 44165, Note_on_c, 0, 75, 74
2, 44165, Note_on_c, 0, 71, 84
2, 44192, Control_c, 0, 64, 127
2, 44302, Note_on_c, 0, 75, 0
2, 44303, Note_on_c, 0, 66, 0
2, 44306, Note_on_c, 0, 71, 0
2, 44343, Note_on_c, 0, 66, 82
2, 44398, Note_on_c, 0, 66, 0
2, 44398, Note_on_c, 0, 71, 81
2, 44454, Note_on_c, 0, 66, 83
2, 44469, Note_on_c, 0, 71, 0
2, 44507, Note_on_c, 0, 66, 0
2, 44579, Note_on_c, 0, 71, 88
2, 44639, Note_on_c, 0, 66, 75
2, 44731, Note_on_c, 0, 66, 0
2, 44756, Note_on_c, 0, 75, 98
2, 44772, Note_on_c, 0, 71, 0
2, 44839, Note_on_c, 0, 75, 0
2, 44878, Note_on_c, 0, 71, 89
2, 44941, Note_on_c, 0, 66, 88
2, 44952, Note_on_c, 0, 71, 0
2, 44983, Note_on_c, 0, 66, 0
2, 45118, Note_on_c, 0, 73, 88
2, 45119, Note_on_c, 0, 80, 89
2, 45120, Note_on_c, 0, 76, 90
2, 45128, Control_c, 0, 64, 0
2, 45166, Control_c, 0, 64, 127
2, 45302, Note_on_c, 0, 80, 0
2, 45302, Note_on_c, 0, 73, 0
2, 45305, Note_on_c, 0, 76, 0
2, 46070, Control_c, 0, 64, 0
2, 46201, Note_on_c, 0, 76, 64
2, 46201, Note_on_c, 0, 80, 64
2, 46203, Note_on_c, 0, 83, 64
2, 46274, Note_on_c, 0, 83, 0
2, 46274, Note_on_c, 0, 76, 0
2, 46277, Note_on_c, 0, 80, 0
2, 46288, Note_on_c, 0, 80, 64
2, 46290, Note_on_c, 0, 76, 64
2, 46290, Note_on_c, 0, 83, 64
2, 46300, Note_on_c, 0, 76, 0
2, 46301, Note_on_c, 0, 83, 0
2, 46301, Note_on_c, 0, 80, 0
2, 46444, Note_on_c, 0, 78, 64
2, 46444, Note_on_c, 0, 82, 64
2, 46445, Note_on_c, 0, 75, 64
2, 46457, Note_on_c, 0, 82, 0
2, 46458, Note_on_c, 0, 75, 0
2, 46461, Note_on_c, 0, 78, 0
2, 46556, Note_on_c, 0, 80, 64
2, 46558, Note_on_c, 0, 71, 64
2, 46558, Note_on_c, 0, 73, 64
2, 46560, Note_on_c, 0, 76, 64
2, 46637, Pitch_bend_c, 0, 8192
2, 46639, Pitch_bend_c, 0, 8192
2, 46642, Pitch_bend_c, 0, 7424
2, 46644, Pitch_bend_c, 0, 6784
2, 46646, Pitch_bend_c, 0, 6272
2, 46648, Pitch_bend_c, 0, 5760
2, 46651, Pitch_bend_c, 0, 5248
2, 46653, Pitch_bend_c, 0, 4736
2, 46655, Pitch_bend_c, 0, 4352
2, 46658, Pitch_bend_c, 0, 3968
2, 46660, Pitch_bend_c, 0, 3584
2, 46662, Pitch_bend_c, 0, 3200
2, 46664, Pitch_bend_c, 0, 2944
2, 46667, Pitch_bend_c, 0, 2816
2, 46673, Pitch_bend_c, 0, 3456
2, 46676, Pitch_bend_c, 0, 4992
2, 46678, Pitch_bend_c, 0, 7296
2, 46680, Pitch_bend_c, 0, 8192
2, 46682, Pitch_bend_c, 0, 8192
2, 46727, Note_on_c, 0, 76, 0
2, 46727, Note_on_c, 0, 71, 0
2, 46729, Note_on_c, 0, 73, 0
2, 46732, Note_on_c, 0, 80, 0
2, 46805, Note_on_c, 0, 78, 64
2, 46805, Note_on_c, 0, 82, 64
2, 46807, Note_on_c, 0, 73, 64
2, 46902, Note_on_c, 0, 82, 0
2, 46903, Note_on_c, 0, 73, 0
2, 46903, Note_on_c, 0, 78, 0
2, 46920, Note_on_c, 0, 73, 64
2, 46922, Note_on_c, 0, 78, 64
2, 46922, Note_on_c, 0, 82, 64
2, 46929, Note_on_c, 0, 78, 0
2, 46930, Note_on_c, 0, 82, 0
2, 46930, Note_on_c, 0, 73, 0
2, 47165, Note_on_c, 0, 76, 64
2, 47165, Note_on_c, 0, 80, 64
2, 47165, Note_on_c, 0, 83, 64
2, 47166, Note_on_c, 0, 77, 64
2, 47169, Note_on_c, 0, 77, 0
2, 47240, Note_on_c, 0, 83, 0
2, 47243, Note_on_c, 0, 76, 0
2, 47244, Note_on_c, 0, 80, 0
2, 47255, Note_on_c, 0, 83, 64
2, 47255, Note_on_c, 0, 76, 64
2, 47256, Note_on_c, 0, 80, 64
2, 47266, Note_on_c, 0, 80, 0
2, 47268, Note_on_c, 0, 76, 0
2, 47268, Note_on_c, 0, 83, 0
2, 47330, Pitch_bend_c, 0, 8192
2, 47332, Pitch_bend_c, 0, 8064
2, 47334, Pitch_bend_c, 0, 7296
2, 47336, Pitch_bend_c, 0, 6784
2, 47339, Pitch_bend_c, 0, 6528
2, 47341, Pitch_bend_c, 0, 6272
2, 47343, Pitch_bend_c, 0, 5760
2, 47346, Pitch_bend_c, 0, 5504
2, 47348, Pitch_bend_c, 0, 5120
2, 47350, Pitch_bend_c, 0, 4992
2, 47352, Pitch_bend_c, 0, 4864
2, 47355, Pitch_bend_c, 0, 4608
2, 47357, Pitch_bend_c, 0, 4480
2, 47361, Pitch_bend_c, 0, 4352
2, 47368, Pitch_bend_c, 0, 4480
2, 47370, Pitch_bend_c, 0, 5248
2, 47373, Pitch_bend_c, 0, 6656
2, 47375, Pitch_bend_c, 0, 8192
2, 47377, Pitch_bend_c, 0, 8192
2, 47408, Note_on_c, 0, 75, 64
2, 47408, Note_on_c, 0, 78, 64
2, 47408, Note_on_c, 0, 82, 64
2, 47459, Pitch_bend_c, 0, 8192
2, 47461, Pitch_bend_c, 0, 7680
2, 47464, Pitch_bend_c, 0, 6656
2, 47465, Pitch_bend_c, 0, 6144
2, 47467, Note_on_c, 0, 78, 0
2, 47468, Pitch_bend_c, 0, 5504
2, 47470, Note_on_c, 0, 82, 0
2, 47470, Pitch_bend_c, 0, 4864
2, 47471, Note_on_c, 0, 75, 0
2, 47473, Pitch_bend_c, 0, 4480
2, 47475, Pitch_bend_c, 0, 4096
2, 47477, Pitch_bend_c, 0, 3712
2, 47479, Pitch_bend_c, 0, 3584
2, 47489, Pitch_bend_c, 0, 4352
2, 47490, Pitch_bend_c, 0, 5632
2, 47493, Pitch_bend_c, 0, 8064
2, 47495, Pitch_bend_c, 0, 8192
2, 47498, Pitch_bend_c, 0, 8192
2, 47526, Note_on_c, 0, 73, 64
2, 47526, Note_on_c, 0, 80, 64
2, 47528, Note_on_c, 0, 71, 64
2, 47529, Note_on_c, 0, 76, 64
2, 47622, Pitch_bend_c, 0, 8192
2, 47624, Pitch_bend_c, 0, 7936
2, 47626, Pitch_bend_c, 0, 7040
2, 47629, Pitch_bend_c, 0, 6528
2, 47631, Pitch_bend_c, 0, 6016
2, 47633, Pitch_bend_c, 0, 5376
2, 47635, Pitch_bend_c, 0, 4864
2, 47638, Pitch_bend_c, 0, 4224
2, 47640, Pitch_bend_c, 0, 3712
2, 47642, Pitch_bend_c, 0, 3328
2, 47644, Pitch_bend_c, 0, 3200
2, 47651, Pitch_bend_c, 0, 3584
2, 47654, Pitch_bend_c, 0, 4608
2, 47656, Pitch_bend_c, 0, 6400
2, 47658, Pitch_bend_c, 0, 8192
2, 47660, Pitch_bend_c, 0, 8192
2, 47718, Note_on_c, 0, 76, 0
2, 47718, Note_on_c, 0, 73, 0
2, 47720, Note_on_c, 0, 71, 0
2, 47725, Note_on_c, 0, 80, 0
2, 47757, Note_on_c, 0, 73, 64
2, 47757, Note_on_c, 0, 82, 64
2, 47760, Note_on_c, 0, 78, 64
2, 47874, Note_on_c, 0, 82, 0
2, 47876, Note_on_c, 0, 73, 0
2, 47879, Note_on_c, 0, 78, 0
2, 47886, Note_on_c, 0, 73, 64
2, 47887, Note_on_c, 0, 78, 64
2, 47889, Note_on_c, 0, 82, 64
2, 47898, Note_on_c, 0, 82, 0
2, 47898, Note_on_c, 0, 78, 0
2, 47900, Note_on_c, 0, 73, 0
2, 48121, Note_on_c, 0, 76, 64
2, 48121, Note_on_c, 0, 80, 64
2, 48123, Note_on_c, 0, 83, 64
2, 48194, Note_on_c, 0, 83, 0
2, 48194, Note_on_c, 0, 76, 0
2, 48197, Note_on_c, 0, 80, 0
2, 48208, Note_on_c, 0, 80, 64
2, 48210, Note_on_c, 0, 76, 64
2, 48210, Note_on_c, 0, 83, 64
2, 48220, Note_on_c, 0, 76, 0
2, 48221, Note_on_c, 0, 83, 0
2, 48221, Note_on_c, 0, 80, 0
2, 48364, Note_on_c, 0, 78, 64
2, 48364, Note_on_c, 0, 82, 64
2, 48365, Note_on_c, 0, 75, 64
2, 48377, Note_on_c, 0, 82, 0
2, 48378, Note_on_c, 0, 75, 0
2, 48381, Note_on_c, 0, 78, 0
2, 48476, Note_on_c, 0, 80, 64
2, 48478, Note_on_c, 0, 71, 64
2, 48478, Note_on_c, 0, 73, 64
2, 48480, Note_on_c, 0, 76, 64
2, 48557, Pitch_bend_c, 0, 8192
2, 48559, Pitch_bend_c, 0, 8192
2, 48562, Pitch_bend_c, 0, 7424
2, 48564, Pitch_bend_c, 0, 6784
2, 48566, Pitch_bend_c, 0, 6272
2, 48568, Pitch_bend_c, 0, 5760
2, 48571, Pitch_bend_c, 0, 5248
2, 48573, Pitch_bend_c, 0, 4736
2, 48575, Pitch_bend_c, 0, 4352
2, 48578, Pitch_bend_c, 0, 3968
2, 48580, Pitch_bend_c, 0, 3584
2, 48582, Pitch_bend_c, 0, 3200
2, 48584, Pitch_bend_c, 0, 2944
2, 48587, Pitch_bend_c, 0, 2816
2, 48593, Pitch_bend_c, 0, 3456
2, 48596, Pitch_bend_c, 0, 4992
2, 48598, Pitch_bend_c, 0, 7296
2, 48600, Pitch_bend_c, 0, 8192
2, 48602, Pitch_bend_c, 0, 8192
2, 48647, Note_on_c, 0, 76, 0
2, 48647, Note_on_c, 0, 71, 0
2, 48649, Note_on_c, 0, 73, 0
2, 48652, Note_on_c, 0, 80, 0
2, 48725, Note_on_c, 0, 78, 64
2, 48725, Note_on_c, 0, 82, 64
2, 48727, Note_on_c, 0, 73, 64
2, 48822, Note_on_c, 0, 82, 0
2, 48823, Note_on_c, 0, 73, 0
2, 48823, Note_on_c, 0, 78, 0
2, 48840, Note_on_c, 0, 73, 64
2, 48842, Note_on_c, 0, 78, 64
2, 48842, Note_on_c, 0, 82, 64
2, 48849, Note_on_c, 0, 78, 0
2, 48850, Note_on_c, 0, 82, 0
2, 48850, Note_on_c, 0, 73, 0
2, 49085, Note_on_c, 0, 76, 64
2, 49085, Note_on_c, 0, 80, 64
2, 49085, Note_on_c, 0, 83, 64
2, 49086, Note_on_c, 0, 77, 64
2, 49089, Note_on_c, 0, 77, 0
2, 49160, Note_on_c, 0, 83, 0
2, 49163, Note_on_c, 0, 76, 0
2, 49164, Note_on_c, 0, 80, 0
2, 49175, Note_on_c, 0, 83, 64
2, 49175, Note_on_c, 0, 76, 64
2, 49176, Note_on_c, 0, 80, 64
2, 49186, Note_on_c, 0, 80, 0
2, 49188, Note_on_c, 0, 76, 0
2, 49188, Note_on_c, 0, 83, 0
2, 49250, Pitch_bend_c, 0, 8192
2, 49252, Pitch_bend_c, 0, 8064
2, 49254, Pitch_bend_c, 0, 7296
2, 49256, Pitch_bend_c, 0, 6784
2, 49259, Pitch_bend_c, 0, 6528
2, 49261, Pitch_bend_c, 0, 6272
2, 49263, Pitch_bend_c, 0, 5760
2, 49266, Pitch_bend_c, 0, 5504
2, 49268, Pitch_bend_c, 0, 5120
2, 49270, Pitch_bend_c, 0, 4992
2, 49272, Pitch_bend_c, 0, 4864
2, 49275, Pitch_bend_c, 0, 4608
2, 49277, Pitch_bend_c, 0, 4480
2, 49281, Pitch_bend_c, 0, 4352
2, 49288, Pitch_bend_c, 0, 4480
2, 49290, Pitch_bend_c, 0, 5248
2, 49293, Pitch_bend_c, 0, 6656
2, 49295, Pitch_bend_c, 0, 8192
2, 49297, Pitch_bend_c, 0, 8192
2, 49328, Note_on_c, 0, 75, 64
2, 49328, Note_on_c, 0, 78, 64
2, 49328, Note_on_c, 0, 82, 64
2, 49379, Pitch_bend_c, 0, 8192
2, 49381, Pitch_bend_c, 0, 7680
2, 49384, Pitch_bend_c, 0, 6656
2, 49385, Pitch_bend_c, 0, 6144
2, 49387, Note_on_c, 0, 78, 0
2, 49388, Pitch_bend_c, 0, 5504
2, 49390, Note_on_c, 0, 82, 0
2, 49390, Pitch_bend_c, 0, 4864
2, 49391, Note_on_c, 0, 75, 0
2, 49393, Pitch_bend_c, 0, 4480
2, 49395, Pitch_bend_c, 0, 4096
2, 49397, Pitch_bend_c, 0, 3712
2, 49399, Pitch_bend_c, 0, 3584
2, 49409, Pitch_bend_c, 0, 4352
2, 49410, Pitch_bend_c, 0, 5632
2, 49413, Pitch_bend_c, 0, 8064
2, 49415, Pitch_bend_c, 0, 8192
2, 49418, Pitch_bend_c, 0, 8192
2, 49446, Note_on_c, 0, 73, 64
2, 49446, Note_on_c, 0, 80, 64
2, 49448, Note_on_c, 0, 71, 64
2, 49449, Note_on_c, 0, 76, 64
2, 49542, Pitch_bend_c, 0, 8192
2, 49544, Pitch_bend_c, 0, 7936
2, 49546, Pitch_bend_c, 0, 7040
2, 49549, Pitch_bend_c, 0, 6528
2, 49551, Pitch_bend_c, 0, 6016
2, 49553, Pitch_bend_c, 0, 5376
2, 49555, Pitch_bend_c, 0, 4864
2, 49558, Pitch_bend_c, 0, 4224
2, 49560, Pitch_bend_c, 0, 3712
2, 49562, Pitch_bend_c, 0, 3328
2, 49564, Pitch_bend_c, 0, 3200
2, 49571, Pitch_bend_c, 0, 3584
2, 49574, Pitch_bend_c, 0, 4608
2, 49576, Pitch_bend_c, 0, 6400
2, 49578, Pitch_bend_c, 0, 8192
2, 49580, Pitch_bend_c, 0, 8192
2, 49638, Note_on_c, 0, 76, 0
2, 49638, Note_on_c, 0, 73, 0
2, 49640, Note_on_c, 0, 71, 0
2, 49645, Note_on_c, 0, 80, 0
2, 49677, Note_on_c, 0, 73, 64
2, 49677, Note_on_c, 0, 82, 64
2, 49680, Note_on_c, 0, 78, 64
2, 49794, Note_on_c, 0, 82, 0
2, 49796, Note_on_c, 0, 73, 0
2, 49799, Note_on_c, 0, 78, 0
2, 49806, Note_on_c, 0, 73, 64
2, 49807, Note_on_c, 0, 78, 64
2, 49809, Note_on_c, 0, 82, 64
2, 49818, Note_on_c, 0, 82, 0
2, 49818, Note_on_c, 0, 78, 0
2, 49820, Note_on_c, 0, 73, 0
2, 49920, Note_on_c, 0, 71, 64
2, 49921, Note_on_c, 0, 75, 64
2, 49921, Note_on_c, 0, 78, 64
2, 51832, Note_on_c, 0, 69, 64
2, 51836, Note_on_c, 0, 73, 64
2, 51843, Note_on_c, 0, 75, 0
2, 51843, Note_on_c, 0, 71, 0
2, 52796, Note_on_c, 0, 73, 0
2, 52797, Note_on_c, 0, 71, 64
2, 52797, Note_on_c, 0, 75, 64
2, 52804, Note_on_c, 0, 69, 0
2, 53731, Note_on_c, 0, 78, 0
2, 53732, Note_on_c, 0, 75, 0
2, 53735, Note_on_c, 0, 71, 0
2, 53760, Note_on_c, 0, 73, 98
2, 53760, Note_on_c, 0, 73, 98
2, 53760, Note_on_c, 0, 76, 96
2, 53760, Note_on_c, 0, 80, 96
2, 53802, Control_c, 0, 64, 127
2, 53861, Note_on_c, 0, 76, 0
2, 53871, Note_on_c, 0, 80, 0
2, 53873, Note_on_c, 0, 73, 0
2, 53873, Note_on_c, 0, 73, 0
2, 54110, Note_on_c, 0, 68, 71
2, 54139, Control_c, 0, 64, 0
2, 54172, Note_on_c, 0, 73, 90
2, 54178, Control_c, 0, 64, 127
2, 54295, Note_on_c, 0, 76, 90
2, 54313, Note_on_c, 0, 73, 0
2, 54420, Note_on_c, 0, 73, 100
2, 54426, Note_on_c, 0, 68, 0
2, 54430, Note_on_c, 0, 76, 0
2, 54538, Note_on_c, 0, 68, 88
2, 54551, Note_on_c, 0, 73, 0
2, 54599, Note_on_c, 0, 76, 100
2, 54602, Note_on_c, 0, 68, 0
2, 54626, Note_on_c, 0, 76, 0
2, 54719, Note_on_c, 0, 75, 100
2, 54720, Note_on_c, 0, 71, 100
2, 54720, Note_on_c, 0, 78, 82
2, 54727, Control_c, 0, 64, 0
2, 54786, Control_c, 0, 64, 127
2, 54950, Note_on_c, 0, 75, 0
2, 54951, Note_on_c, 0, 71, 0
2, 54963, Note_on_c, 0, 78, 0
2, 55074, Note_on_c, 0, 66, 94
2, 55136, Note_on_c, 0, 71, 90
2, 55152, Control_c, 0, 64, 0
2, 55193, Control_c, 0, 64, 127
2, 55257, Note_on_c, 0, 75, 92
2, 55276, Note_on_c, 0, 71, 0
2, 55336, Note_on_c, 0, 75, 0
2, 55372, Note_on_c, 0, 66, 0
2, 55378, Note_on_c, 0, 71, 101
2, 55498, Note_on_c, 0, 66, 90
2, 55511, Note_on_c, 0, 71, 0
2, 55559, Note_on_c, 0, 75, 101
2, 55567, Note_on_c, 0, 66, 0
2, 55588, Note_on_c, 0, 75, 0
2, 55679, Control_c, 0, 64, 0
2, 55680, Note_on_c, 0, 73, 98
2, 55680, Note_on_c, 0, 73, 98
2, 55680, Note_on_c, 0, 76, 96
2, 55680, Note_on_c, 0, 80, 96
2, 55722, Control_c, 0, 64, 127
2, 55781, Note_on_c, 0, 76, 0
2, 55791, Note_on_c, 0, 80, 0
2, 55793, Note_on_c, 0, 73, 0
2, 55793, Note_on_c, 0, 73, 0
2, 56030, Note_on_c, 0, 68, 71
2, 56059, Control_c, 0, 64, 0
2, 56092, Note_on_c, 0, 73, 90
2, 56098, Control_c, 0, 64, 127
2, 56215, Note_on_c, 0, 76, 90
2, 56233, Note_on_c, 0, 73, 0
2, 56340, Note_on_c, 0, 73, 100
2, 56346, Note_on_c, 0, 68, 0
2, 56350, Note_on_c, 0, 76, 0
2, 56458, Note_on_c, 0, 68, 88
2, 56471, Note_on_c, 0, 73, 0
2, 56519, Note_on_c, 0, 76, 100
2, 56522, Note_on_c, 0, 68, 0
2, 56546, Note_on_c, 0, 76, 0
2, 56639, Note_on_c, 0, 75, 100
2, 56640, Note_on_c, 0, 71, 100
2, 56640, Note_on_c, 0, 78, 82
2, 56647, Control_c, 0, 64, 0
2, 56706, Control_c, 0, 64, 127
2, 56870, Note_on_c, 0, 75, 0
2, 56871, Note_on_c, 0, 71, 0
2, 56883, Note_on_c, 0, 78, 0
2, 56994, Note_on_c, 0, 66, 94
2, 57056, Note_on_c, 0, 71, 90
2, 57072, Control_c, 0, 64, 0
2, 57113, Control_c, 0, 64, 127
2, 57177, Note_on_c, 0, 75, 92
2, 57196, Note_on_c, 0, 71, 0
2, 57256, Note_on_c, 0, 75, 0
2, 57292, Note_on_c, 0, 66, 0
2, 57298, Note_on_c, 0, 71, 101
2, 57418, Note_on_c, 0, 66, 90
2, 57431, Note_on_c, 0, 71, 0
2, 57479, Note_on_c, 0, 75, 101
2, 57487, Note_on_c, 0, 66, 0
2, 57508, Note_on_c, 0, 75, 0
2, 57599, Control_c, 0, 64, 0
2, 57600, Note_on_c, 0, 73, 98
2, 57600, Note_on_c, 0, 73, 98
2, 57600, Note_on_c, 0, 76, 96
2, 57600, Note_on_c, 0, 80, 96
2, 57642, Control_c, 0, 64, 127
2, 57701, Note_on_c, 0, 76, 0
2, 57711, Note_on_c, 0, 80, 0
2, 57713, Note_on_c, 0, 73, 0
2, 57713, Note_on_c, 0, 73, 0
2, 57950, Note_on_c, 0, 68, 71
2, 57979, Control_c, 0, 64, 0
2, 58012, Note_on_c, 0, 73, 90
2, 58018, Control_c, 0, 64, 127
2, 58135, Note_on_c, 0, 76, 90
2, 58153, Note_on_c, 0, 73, 0
2, 58260, Note_on_c, 0, 73, 100
2, 58266, Note_on_c, 0, 68, 0
2, 58270, Note_on_c, 0, 76, 0
2, 58378, Note_on_c, 0, 68, 88
2, 58391, Note_on_c, 0, 73, 0
2, 58439, Note_on_c, 0, 76, 100
2, 58442, Note_on_c, 0, 68, 0
2, 58466, Note_on_c, 0, 76, 0
2, 58559, Note_on_c, 0, 75, 100
2, 58560, Note_on_c, 0, 71, 100
2, 58560, Note_on_c, 0, 78, 82
2, 58567, Control_c, 0, 64, 0
2, 58626, Control_c, 0, 64, 127
2, 58790, Note_on_c, 0, 75, 0
2, 58791, Note_on_c, 0, 71, 0
2, 58803, Note_on_c, 0, 78, 0
2, 58914, Note_on_c, 0, 66, 94
2, 58976, Note_on_c, 0, 71, 90
2, 58992, Control_c, 0, 64, 0
2, 59033, Control_c, 0, 64, 127
2, 59097, Note_on_c, 0, 75, 92
2, 59116, Note_on_c, 0, 71, 0
2, 59176, Note_on_c, 0, 75, 0
2, 59212, Note_on_c, 0, 66, 0
2, 59218, Note_on_c, 0, 71, 101
2, 59338, Note_on_c, 0, 66, 90
2, 59351, Note_on_c, 0, 71, 0
2, 59399, Note_on_c, 0, 75, 101
2, 59407, Note_on_c, 0, 66, 0
2, 59428, Note_on_c, 0, 75, 0
2, 59519, Control_c, 0, 64, 0
2, 59520, Note_on_c, 0, 73, 98
2, 59520, Note_on_c, 0, 73, 98
2, 59520, Note_on_c, 0, 76, 96
2, 59520, Note_on_c, 0, 80, 96
2, 59562, Control_c, 0, 64, 127
2, 59621, Note_on_c, 0, 76, 0
2, 59631, Note_on_c, 0, 80, 0
2, 59633, Note_on_c, 0, 73, 0
2, 59633, Note_on_c, 0, 73, 0
2, 59870, Note_on_c, 0, 68, 71
2, 59899, Control_c, 0, 64, 0
2, 59932, Note_on_c, 0, 73, 90
2, 59938, Control_c, 0, 64, 127
2, 60055, Note_on_c, 0, 76, 90
2, 60073, Note_on_c, 0, 73, 0
2, 60180, Note_on_c, 0, 73, 100
2, 60186, Note_on_c, 0, 68, 0
2, 60190, Note_on_c, 0, 76, 0
2, 60298, Note_on_c, 0, 68, 88
2, 60311, Note_on_c, 0, 73, 0
2, 60359, Note_on_c, 0, 76, 100
2, 60362, Note_on_c, 0, 68, 0
2, 60386, Note_on_c, 0, 76, 0
2, 60479, Note_on_c, 0, 75, 100
2, 60480, Note_on_c, 0, 71, 100
2, 60480, Note_on_c, 0, 78, 82
2, 60487, Control_c, 0, 64, 0
2, 60546, Control_c, 0, 64, 127
2, 60710, Note_on_c, 0, 75, 0
2, 60711, Note_on_c, 0, 71, 0
2, 60723, Note_on_c, 0, 78, 0
2, 60834, Note_on_c, 0, 66, 94
2, 60896, Note_on_c, 0, 71, 90
2, 60912, Control_c, 0, 64, 0
2, 60953, Control_c, 0, 64, 127
2, 61017, Note_on_c, 0, 75, 92
2, 61036, Note_on_c, 0, 71, 0
2, 61096, Note_on_c, 0, 75, 0
2, 61132, Note_on_c, 0, 66, 0
2, 61138, Note_on_c, 0, 71, 101
2, 61258, Note_on_c, 0, 66, 90
2, 61271, Note_on_c, 0, 71, 0
2, 61319, Note_on_c, 0, 75, 101
2, 61327, Note_on_c, 0, 66, 0
2, 61348, Note_on_c, 0, 75, 0
2, 61439, Control_c, 0, 64, 0
2, 61444, Note_on_c, 0, 66, 82
2, 61445, Note_on_c, 0, 75, 74
2, 61445, Note_on_c, 0, 71, 84
2, 61472, Control_c, 0, 64, 127
2, 61582, Note_on_c, 0, 75, 0
2, 61583, Note_on_c, 0, 66, 0
2, 61586, Note_on_c, 0, 71, 0
2, 61623, Note_on_c, 0, 66, 82
2, 61678, Note_on_c, 0, 66, 0
2, 61678, Note_on_c, 0, 71, 81
2, 61734, Note_on_c, 0, 66, 83
2, 61749, Note_on_c, 0, 71, 0
2, 61787, Note_on_c, 0, 66, 0
2, 61859, Note_on_c, 0, 71, 88
2, 61919, Note_on_c, 0, 66, 75
2, 62011, Note_on_c, 0, 66, 0
2, 62036, Note_on_c, 0, 75, 98
2, 62052, Note_on_c, 0, 71, 0
2, 62119, Note_on_c, 0, 75, 0
2, 62158, Note_on_c, 0, 71, 89
2, 62221, Note_on_c, 0, 66, 88
2, 62232, Note_on_c, 0, 71, 0
2, 62263, Note_on_c, 0, 66, 0
2, 62398, Note_on_c, 0, 73, 88
2, 62399, Note_on_c, 0, 80, 89
2, 62400, Note_on_c, 0, 76, 90
2, 62408, Control_c, 0, 64, 0
2, 62446, Control_c, 0, 64, 127
2, 62582, Note_on_c, 0, 80, 0
2, 62582, Note_on_c, 0, 73, 0
2, 62585, Note_on_c, 0, 76, 0
2, 63350, Control_c, 0, 64, 0
2, 63350, End_track
3, 0, Start_track
3, 0, MIDI_port, 0
3, 0, Title_t, "Fretless bass"
3, 0, Program_c, 1, 35
3, 1925, Note_on_c, 1, 49, 113
3, 1976, Note_on_c, 1, 49, 0
3, 2095, Note_on_c, 1, 49, 113
3, 2124, Note_on_c, 1, 49, 0
3, 2158, Note_on_c, 1, 49, 111
3, 2188, Note_on_c, 1, 49, 0
3, 2217, Note_on_c, 1, 49, 109
3, 2252, Note_on_c, 1, 49, 0
3, 2274, Note_on_c, 1, 47, 103
3, 2305, Note_on_c, 1, 47, 0
3, 2337, Note_on_c, 1, 49, 120
3, 2372, Note_on_c, 1, 49, 0
3, 2456, Note_on_c, 1, 49, 94
3, 2496, Note_on_c, 1, 49, 0
3, 2572, Note_on_c, 1, 47, 98
3, 2619, Note_on_c, 1, 47, 0
3, 2634, Note_on_c, 1, 49, 111
3, 2678, Note_on_c, 1, 49, 0
3, 2695, Note_on_c, 1, 49, 98
3, 2750, Note_on_c, 1, 49, 0
3, 2752, Note_on_c, 1, 44, 98
3, 2814, Note_on_c, 1, 47, 105
3, 2815, Note_on_c, 1, 44, 0
3, 2859, Note_on_c, 1, 47, 0
3, 2885, Note_on_c, 1, 49, 113
3, 2936, Note_on_c, 1, 49, 0
3, 3055, Note_on_c, 1, 49, 113
3, 3084, Note_on_c, 1, 49, 0
3, 3118, Note_on_c, 1, 49, 111
3, 3148, Note_on_c, 1, 49, 0
3, 3177, Note_on_c, 1, 49, 109
3, 3212, Note_on_c, 1, 49, 0
3, 3234, Note_on_c, 1, 47, 103
3, 3265, Note_on_c, 1, 47, 0
3, 3297, Note_on_c, 1, 49, 120
3, 3332, Note_on_c, 1, 49, 0
3, 3416, Note_on_c, 1, 49, 94
3, 3456, Note_on_c, 1, 49, 0
3, 3532, Note_on_c, 1, 47, 98
3, 3579, Note_on_c, 1, 47, 0
3, 3594, Note_on_c, 1, 49, 111
3, 3638, Note_on_c, 1, 49, 0
3, 3655, Note_on_c, 1, 49, 98
3, 3710, Note_on_c, 1, 49, 0
3, 3712, Note_on_c, 1, 44, 98
3, 3774, Note_on_c, 1, 47, 105
3, 3775, Note_on_c, 1, 44, 0
3, 3819, Note_on_c, 1, 47, 0
3, 3845, Note_on_c, 1, 49, 113
3, 3896, Note_on_c, 1, 49, 0
3, 4015, Note_on_c, 1, 49, 113
3, 4044, Note_on_c, 1, 49, 0
3, 4078, Note_on_c, 1, 49, 111
3, 4108, Note_on_c, 1, 49, 0
3, 4137, Note_on_c, 1, 49, 109
3, 4172, Note_on_c, 1, 49, 0
3, 4194, Note_on_c, 1, 47, 103
3, 4225, Note_on_c, 1, 47, 0
3, 4257, Note_on_c, 1, 49, 120
3, 4292, Note_on_c, 1, 49, 0
3, 4376, Note_on_c, 1, 49, 94
3, 4416, Note_on_c, 1, 49, 0
3, 4492, Note_on_c, 1, 47, 98
3, 4539, Note_on_c, 1, 47, 0
3, 4554, Note_on_c, 1, 49, 111
3, 4598, Note_on_c, 1, 49, 0
3, 4615, Note_on_c, 1, 49, 98
3, 4670, Note_on_c, 1, 49, 0
3, 4672, Note_on_c, 1, 44, 98
3, 4734, Note_on_c, 1, 47, 105
3, 4735, Note_on_c, 1, 44, 0
3, 4779, Note_on_c, 1, 47, 0
3, 4805, Note_on_c, 1, 49, 113
3, 4856, Note_on_c, 1, 49, 0
3, 4975, Note_on_c, 1, 49, 113
3, 5004, Note_on_c, 1, 49, 0
3, 5038, Note_on_c, 1, 49, 111
3, 5068, Note_on_c, 1, 49, 0
3, 5097, Note_on_c, 1, 49, 109
3, 5132, Note_on_c, 1, 49, 0
3, 5154, Note_on_c, 1, 47, 103
3, 5185, Note_on_c, 1, 47, 0
3, 5217, Note_on_c, 1, 49, 120
3, 5252, Note_on_c, 1, 49, 0
3, 5336, Note_on_c, 1, 49, 94
3, 5376, Note_on_c, 1, 49, 0
3, 5452, Note_on_c, 1, 47, 98
3, 5499, Note_on_c, 1, 47, 0
3, 5514, Note_on_c, 1, 49, 111
3, 5558, Note_on_c, 1, 49, 0
3, 5575, Note_on_c, 1, 49, 98
3, 5630, Note_on_c, 1, 49, 0
3, 5632, Note_on_c, 1, 44, 98
3, 5694, Note_on_c, 1, 47, 105
3, 5695, Note_on_c, 1, 44, 0
3, 5739, Note_on_c, 1, 47, 0
3, 5765, Note_on_c, 1, 49, 113
3, 5816, Note_on_c, 1, 49, 0
3, 5935, Note_on_c, 1, 49, 113
3, 5964, Note_on_c, 1, 49, 0
3, 5998, Note_on_c, 1, 49, 111
3, 6028, Note_on_c, 1, 49, 0
3, 6057, Note_on_c, 1, 49, 109
3, 6092, Note_on_c, 1, 49, 0
3, 6114, Note_on_c, 1, 47, 103
3, 6145, Note_on_c, 1, 47, 0
3, 6177, Note_on_c, 1, 49, 120
3, 6212, Note_on_c, 1, 49, 0
3, 6296, Note_on_c, 1, 49, 94
3, 6336, Note_on_c, 1, 49, 0
3, 6412, Note_on_c, 1, 47, 98
3, 6459, Note_on_c, 1, 47, 0
3, 6474, Note_on_c, 1, 49, 111
3, 6518, Note_on_c, 1, 49, 0
3, 6535, Note_on_c, 1, 49, 98
3, 6590, Note_on_c, 1, 49, 0
3, 6592, Note_on_c, 1, 44, 98
3, 6654, Note_on_c, 1, 47, 105
3, 6655, Note_on_c, 1, 44, 0
3, 6699, Note_on_c, 1, 47, 0
3, 6725, Note_on_c, 1, 49, 113
3, 6776, Note_on_c, 1, 49, 0
3, 6895, Note_on_c, 1, 49, 113
3, 6924, Note_on_c, 1, 49, 0
3, 6958, Note_on_c, 1, 49, 111
3, 6988, Note_on_c, 1, 49, 0
3, 7017, Note_on_c, 1, 49, 109
3, 7052, Note_on_c, 1, 49, 0
3, 7074, Note_on_c, 1, 47, 103
3, 7105, Note_on_c, 1, 47, 0
3, 7137, Note_on_c, 1, 49, 120
3, 7172, Note_on_c, 1, 49, 0
3, 7256, Note_on_c, 1, 49, 94
3, 7296, Note_on_c, 1, 49, 0
3, 7372, Note_on_c, 1, 47, 98
3, 7419, Note_on_c, 1, 47, 0
3, 7434, Note_on_c, 1, 49, 111
3, 7478, Note_on_c, 1, 49, 0
3, 7495, Note_on_c, 1, 49, 98
3, 7550, Note_on_c, 1, 49, 0
3, 7552, Note_on_c, 1, 44, 98
3, 7614, Note_on_c, 1, 47, 105
3, 7615, Note_on_c, 1, 44, 0
3, 7659, Note_on_c, 1, 47, 0
3, 7685, Note_on_c, 1, 49, 113
3, 7736, Note_on_c, 1, 49, 0
3, 7855, Note_on_c, 1, 49, 113
3, 7884, Note_on_c, 1, 49, 0
3, 7918, Note_on_c, 1, 49, 111
3, 7948, Note_on_c, 1, 49, 0
3, 7977, Note_on_c, 1, 49, 109
3, 8012, Note_on_c, 1, 49, 0
3, 8034, Note_on_c, 1, 47, 103
3, 8065, Note_on_c, 1, 47, 0
3, 8097, Note_on_c, 1, 49, 120
3, 8132, Note_on_c, 1, 49, 0
3, 8216, Note_on_c, 1, 49, 94
3, 8256, Note_on_c, 1, 49, 0
3, 8332, Note_on_c, 1, 47, 98
3, 8379, Note_on_c, 1, 47, 0
3, 8394, Note_on_c, 1, 49, 111
3, 8438, Note_on_c, 1, 49, 0
3, 8455, Note_on_c, 1, 49, 98
3, 8510, Note_on_c, 1, 49, 0
3, 8512, Note_on_c, 1, 44, 98
3, 8574, Note_on_c, 1, 47, 105
3, 8575, Note_on_c, 1, 44, 0
3, 8619, Note_on_c, 1, 47, 0
3, 8645, Note_on_c, 1, 49, 113
3, 8696, Note_on_c, 1, 49, 0
3, 8815, Note_on_c, 1, 49, 113
3, 8844, Note_on_c, 1, 49, 0
3, 8878, Note_on_c, 1, 49, 111
3, 8908, Note_on_c, 1, 49, 0
3, 8937, Note_on_c, 1, 49, 109
3, 8972, Note_on_c, 1, 49, 0
3, 8994, Note_on_c, 1, 47, 103
3, 9025, Note_on_c, 1, 47, 0
3, 9057, Note_on_c, 1, 49, 120
3, 9092, Note_on_c, 1, 49, 0
3, 9176, Note_on_c, 1, 49, 94
3, 9216, Note_on_c, 1, 49, 0
3, 9292, Note_on_c, 1, 47, 98
3, 9339, Note_on_c, 1, 47, 0
3, 9354, Note_on_c, 1, 49, 111
3, 9398, Note_on_c, 1, 49, 0
3, 9415, Note_on_c, 1, 49, 98
3, 9470, Note_on_c, 1, 49, 0
3, 9472, Note_on_c, 1, 44, 98
3, 9534, Note_on_c, 1, 47, 105
3, 9535, Note_on_c, 1, 44, 0
3, 9579, Note_on_c, 1, 47, 0
3, 9605, Note_on_c, 1, 47, 109
3, 9719, Note_on_c, 1, 47, 0
3, 9782, Note_on_c, 1, 44, 109
3, 9835, Note_on_c, 1, 44, 0
3, 9844, Note_on_c, 1, 47, 111
3, 9877, Note_on_c, 1, 47, 0
3, 9900, Note_on_c, 1, 47, 105
3, 9947, Note_on_c, 1, 47, 0
3, 9960, Note_on_c, 1, 44, 109
3, 10002, Note_on_c, 1, 44, 0
3, 10019, Note_on_c, 1, 47, 109
3, 10082, Note_on_c, 1, 47, 0
3, 10140, Note_on_c, 1, 47, 111
3, 10199, Note_on_c, 1, 47, 0
3, 10260, Note_on_c, 1, 44, 120
3, 10304, Note_on_c, 1, 44, 0
3, 10318, Note_on_c, 1, 47, 111
3, 10379, Note_on_c, 1, 47, 0
3, 10439, Note_on_c, 1, 44, 114
3, 10512, Note_on_c, 1, 44, 0
3, 10565, Note_on_c, 1, 49, 113
3, 10616, Note_on_c, 1, 49, 0
3, 10735, Note_on_c, 1, 49, 113
3, 10764, Note_on_c, 1, 49, 0
3, 10798, Note_on_c, 1, 49, 111
3, 10828, Note_on_c, 1, 49, 0
3, 10857, Note_on_c, 1, 49, 109
3, 10892, Note_on_c, 1, 49, 0
3, 10914, Note_on_c, 1, 47, 103
3, 10945, Note_on_c, 1, 47, 0
3, 10977, Note_on_c, 1, 49, 120
3, 11012, Note_on_c, 1, 49, 0
3, 11096, Note_on_c, 1, 49, 94
3, 11136, Note_on_c, 1, 49, 0
3, 11212, Note_on_c, 1, 47, 98
3, 11259, Note_on_c, 1, 47, 0
3, 11274, Note_on_c, 1, 49, 111
3, 11318, Note_on_c, 1, 49, 0
3, 11335, Note_on_c, 1, 49, 98
3, 11390, Note_on_c, 1, 49, 0
3, 11392, Note_on_c, 1, 44, 98
3, 11454, Note_on_c, 1, 47, 105
3, 11455, Note_on_c, 1, 44, 0
3, 11499, Note_on_c, 1, 47, 0
3, 11525, Note_on_c, 1, 49, 113
3, 11576, Note_on_c, 1, 49, 0
3, 11695, Note_on_c, 1, 49, 113
3, 11724, Note_on_c, 1, 49, 0
3, 11758, Note_on_c, 1, 49, 111
3, 11788, Note_on_c, 1, 49, 0
3, 11817, Note_on_c, 1, 49, 109
3, 11852, Note_on_c, 1, 49, 0
3, 11874, Note_on_c, 1, 47, 103
3, 11905, Note_on_c, 1, 47, 0
3, 11937, Note_on_c, 1, 49, 120
3, 11972, Note_on_c, 1, 49, 0
3, 12056, Note_on_c, 1, 49, 94
3, 12096, Note_on_c, 1, 49, 0
3, 12172, Note_on_c, 1, 47, 98
3, 12219, Note_on_c, 1, 47, 0
3, 12234, Note_on_c, 1, 49, 111
3, 12278, Note_on_c, 1, 49, 0
3, 12295, Note_on_c, 1, 49, 98
3, 12350, Note_on_c, 1, 49, 0
3, 12352, Note_on_c, 1, 44, 98
3, 12414, Note_on_c, 1, 47, 105
3, 12415, Note_on_c, 1, 44, 0
3, 12459, Note_on_c, 1, 47, 0
3, 12485, Note_on_c, 1, 49, 113
3, 12536, Note_on_c, 1, 49, 0
3, 12655, Note_on_c, 1, 49, 113
3, 12684, Note_on_c, 1, 49, 0
3, 12718, Note_on_c, 1, 49, 111
3, 12748, Note_on_c, 1, 49, 0
3, 12777, Note_on_c, 1, 49, 109
3, 12812, Note_on_c, 1, 49, 0
3, 12834, Note_on_c, 1, 47, 103
3, 12865, Note_on_c, 1, 47, 0
3, 12897, Note_on_c, 1, 49, 120
3, 12932, Note_on_c, 1, 49, 0
3, 13016, Note_on_c, 1, 49, 94
3, 13056, Note_on_c, 1, 49, 0
3, 13132, Note_on_c, 1, 47, 98
3, 13179, Note_on_c, 1, 47, 0
3, 13194, Note_on_c, 1, 49, 111
3, 13238, Note_on_c, 1, 49, 0
3, 13255, Note_on_c, 1, 49, 98
3, 13310, Note_on_c, 1, 49, 0
3, 13312, Note_on_c, 1, 44, 98
3, 13374, Note_on_c, 1, 47, 105
3, 13375, Note_on_c, 1, 44, 0
3, 13419, Note_on_c, 1, 47, 0
3, 13445, Note_on_c, 1, 49, 113
3, 13496, Note_on_c, 1, 49, 0
3, 13615, Note_on_c, 1, 49, 113
3, 13644, Note_on_c, 1, 49, 0
3, 13678, Note_on_c, 1, 49, 111
3, 13708, Note_on_c, 1, 49, 0
3, 13737, Note_on_c, 1, 49, 109
3, 13772, Note_on_c, 1, 49, 0
3, 13794, Note_on_c, 1, 47, 103
3, 13825, Note_on_c, 1, 47, 0
3, 13857, Note_on_c, 1, 49, 120
3, 13892, Note_on_c, 1, 49, 0
3, 13976, Note_on_c, 1, 49, 94
3, 14016, Note_on_c, 1, 49, 0
3, 14092, Note_on_c, 1, 47, 98
3, 14139, Note_on_c, 1, 47, 0
3, 14154, Note_on_c, 1, 49, 111
3, 14198, Note_on_c, 1, 49, 0
3, 14215, Note_on_c, 1, 49, 98
3, 14270, Note_on_c, 1, 49, 0
3, 14272, Note_on_c, 1, 44, 98
3, 14334, Note_on_c, 1, 47, 105
3, 14335, Note_on_c, 1, 44, 0
3, 14379, Note_on_c, 1, 47, 0
3, 14405, Note_on_c, 1, 49, 113
3, 14456, Note_on_c, 1, 49, 0
3, 14575, Note_on_c, 1, 49, 113
3, 14604, Note_on_c, 1, 49, 0
3, 14638, Note_on_c, 1, 49, 111
3, 14668, Note_on_c, 1, 49, 0
3, 14697, Note_on_c, 1, 49, 109
3, 14732, Note_on_c, 1, 49, 0
3, 14754, Note_on_c, 1, 47, 103
3, 14785, Note_on_c, 1, 47, 0
3, 14817, Note_on_c, 1, 49, 120
3, 14852, Note_on_c, 1, 49, 0
3, 14936, Note_on_c, 1, 49, 94
3, 14976, Note_on_c, 1, 49, 0
3, 15052, Note_on_c, 1, 47, 98
3, 15099, Note_on_c, 1, 47, 0
3, 15114, Note_on_c, 1, 49, 111
3, 15158, Note_on_c, 1, 49, 0
3, 15175, Note_on_c, 1, 49, 98
3, 15230, Note_on_c, 1, 49, 0
3, 15232, Note_on_c, 1, 44, 98
3, 15294, Note_on_c, 1, 47, 105
3, 15295, Note_on_c, 1, 44, 0
3, 15339, Note_on_c, 1, 47, 0
3, 15365, Note_on_c, 1, 47, 109
3, 15479, Note_on_c, 1, 47, 0
3, 15542, Note_on_c, 1, 44, 109
3, 15595, Note_on_c, 1, 44, 0
3, 15604, Note_on_c, 1, 47, 111
3, 15637, Note_on_c, 1, 47, 0
3, 15660, Note_on_c, 1, 47, 105
3, 15707, Note_on_c, 1, 47, 0
3, 15720, Note_on_c, 1, 44, 109
3, 15762, Note_on_c, 1, 44, 0
3, 15779, Note_on_c, 1, 47, 109
3, 15842, Note_on_c, 1, 47, 0
3, 15900, Note_on_c, 1, 47, 111
3, 15959, Note_on_c, 1, 47, 0
3, 16020, Note_on_c, 1, 44, 120
3, 16064, Note_on_c, 1, 44, 0
3, 16078, Note_on_c, 1, 47, 111
3, 16139, Note_on_c, 1, 47, 0
3, 16199, Note_on_c, 1, 44, 114
3, 16272, Note_on_c, 1, 44, 0
3, 16325, Note_on_c, 1, 49, 113
3, 16376, Note_on_c, 1, 49, 0
3, 16495, Note_on_c, 1, 49, 113
3, 16524, Note_on_c, 1, 49, 0
3, 16558, Note_on_c, 1, 49, 111
3, 16588, Note_on_c, 1, 49, 0
3, 16617, Note_on_c, 1, 49, 109
3, 16652, Note_on_c, 1, 49, 0
3, 16674, Note_on_c, 1, 47, 103
3, 16705, Note_on_c, 1, 47, 0
3, 16737, Note_on_c, 1, 49, 120
3, 16772, Note_on_c, 1, 49, 0
3, 16856, Note_on_c, 1, 49, 94
3, 16896, Note_on_c, 1, 49, 0
3, 16972, Note_on_c, 1, 47, 98
3, 17019, Note_on_c, 1, 47, 0
3, 17034, Note_on_c, 1, 49, 111
3, 17078, Note_on_c, 1, 49, 0
3, 17095, Note_on_c, 1, 49, 98
3, 17150, Note_on_c, 1, 49, 0
3, 17152, Note_on_c, 1, 44, 98
3, 17214, Note_on_c, 1, 47, 105
3, 17215, Note_on_c, 1, 44, 0
3, 17259, Note_on_c, 1, 47, 0
3, 17281, Note_on_c, 1, 49, 64
3, 17377, Note_on_c, 1, 49, 0
3, 18104, Note_on_c, 1, 47, 96
3, 18233, Note_on_c, 1, 49, 107
3, 18237, Note_on_c, 1, 47, 0
3, 18261, Note_on_c, 1, 49, 0
3, 18291, Note_on_c, 1, 49, 120
3, 18318, Note_on_c, 1, 49, 0
3, 19080, Note_on_c, 1, 44, 103
3, 19146, Note_on_c, 1, 47, 105
3, 19154, Note_on_c, 1, 44, 0
3, 19196, Note_on_c, 1, 47, 0
3, 19200, Note_on_c, 1, 49, 94
3, 19239, Note_on_c, 1, 49, 0
3, 19253, Note_on_c, 1, 49, 94
3, 19286, Note_on_c, 1, 49, 0
3, 20040, Note_on_c, 1, 47, 113
3, 20059, Note_on_c, 1, 47, 0
3, 20066, Note_on_c, 1, 47, 109
3, 20087, Note_on_c, 1, 47, 0
3, 20094, Note_on_c, 1, 47, 111
3, 20114, Note_on_c, 1, 47, 0
3, 20130, Note_on_c, 1, 47, 111
3, 20150, Note_on_c, 1, 47, 0
3, 20155, Note_on_c, 1, 49, 101
3, 20185, Note_on_c, 1, 49, 0
3, 20215, Note_on_c, 1, 49, 114
3, 20246, Note_on_c, 1, 49, 0
3, 20825, Note_on_c, 1, 68, 64
3, 20854, Pitch_bend_c, 1, 8192
3, 20856, Pitch_bend_c, 1, 9472
3, 20859, Pitch_bend_c, 1, 10624
3, 20861, Pitch_bend_c, 1, 12032
3, 20863, Pitch_bend_c, 1, 13696
3, 20866, Pitch_bend_c, 1, 15616
3, 20868, Pitch_bend_c, 1, 16256
3, 20879, Pitch_bend_c, 1, 15360
3, 20881, Pitch_bend_c, 1, 9600
3, 20884, Pitch_bend_c, 1, 8192
3, 20886, Pitch_bend_c, 1, 8192
3, 20939, Note_on_c, 1, 68, 0
3, 20942, Note_on_c, 1, 64, 64
3, 20997, Note_on_c, 1, 63, 64
3, 20998, Note_on_c, 1, 64, 0
3, 21110, Note_on_c, 1, 63, 0
3, 21125, Note_on_c, 1, 49, 113
3, 21176, Note_on_c, 1, 49, 0
3, 21295, Note_on_c, 1, 49, 113
3, 21324, Note_on_c, 1, 49, 0
3, 21358, Note_on_c, 1, 49, 111
3, 21388, Note_on_c, 1, 49, 0
3, 21417, Note_on_c, 1, 49, 109
3, 21452, Note_on_c, 1, 49, 0
3, 21474, Note_on_c, 1, 47, 103
3, 21505, Note_on_c, 1, 47, 0
3, 21537, Note_on_c, 1, 49, 120
3, 21572, Note_on_c, 1, 49, 0
3, 21656, Note_on_c, 1, 49, 94
3, 21696, Note_on_c, 1, 49, 0
3, 21772, Note_on_c, 1, 47, 98
3, 21819, Note_on_c, 1, 47, 0
3, 21834, Note_on_c, 1, 49, 111
3, 21878, Note_on_c, 1, 49, 0
3, 21895, Note_on_c, 1, 49, 98
3, 21950, Note_on_c, 1, 49, 0
3, 21952, Note_on_c, 1, 44, 98
3, 22014, Note_on_c, 1, 47, 105
3, 22015, Note_on_c, 1, 44, 0
3, 22059, Note_on_c, 1, 47, 0
3, 22085, Note_on_c, 1, 49, 113
3, 22136, Note_on_c, 1, 49, 0
3, 22255, Note_on_c, 1, 49, 113
3, 22284, Note_on_c, 1, 49, 0
3, 22318, Note_on_c, 1, 49, 111
3, 22348, Note_on_c, 1, 49, 0
3, 22377, Note_on_c, 1, 49, 109
3, 22412, Note_on_c, 1, 49, 0
3, 22434, Note_on_c, 1, 47, 103
3, 22465, Note_on_c, 1, 47, 0
3, 22497, Note_on_c, 1, 49, 120
3, 22532, Note_on_c, 1, 49, 0
3, 22616, Note_on_c, 1, 49, 94
3, 22656, Note_on_c, 1, 49, 0
3, 22732, Note_on_c, 1, 47, 98
3, 22779, Note_on_c, 1, 47, 0
3, 22794, Note_on_c, 1, 49, 111
3, 22838, Note_on_c, 1, 49, 0
3, 22855, Note_on_c, 1, 49, 98
3, 22910, Note_on_c, 1, 49, 0
3, 22912, Note_on_c, 1, 44, 98
3, 22974, Note_on_c, 1, 47, 105
3, 22975, Note_on_c, 1, 44, 0
3, 23019, Note_on_c, 1, 47, 0
3, 23045, Note_on_c, 1, 49, 113
3, 23096, Note_on_c, 1, 49, 0
3, 23215, Note_on_c, 1, 49, 113
3, 23244, Note_on_c, 1, 49, 0
3, 23278, Note_on_c, 1, 49, 111
3, 23308, Note_on_c, 1, 49, 0
3, 23337, Note_on_c, 1, 49, 109
3, 23372, Note_on_c, 1, 49, 0
3, 23394, Note_on_c, 1, 47, 103
3, 23425, Note_on_c, 1, 47, 0
3, 23457, Note_on_c, 1, 49, 120
3, 23492, Note_on_c, 1, 49, 0
3, 23576, Note_on_c, 1, 49, 94
3, 23616, Note_on_c, 1, 49, 0
3, 23692, Note_on_c, 1, 47, 98
3, 23739, Note_on_c, 1, 47, 0
3, 23754, Note_on_c, 1, 49, 111
3, 23798, Note_on_c, 1, 49, 0
3, 23815, Note_on_c, 1, 49, 98
3, 23870, Note_on_c, 1, 49, 0
3, 23872, Note_on_c, 1, 44, 98
3, 23934, Note_on_c, 1, 47, 105
3, 23935, Note_on_c, 1, 44, 0
3, 23979, Note_on_c, 1, 47, 0
3, 24005, Note_on_c, 1, 49, 113
3, 24056, Note_on_c, 1, 49, 0
3, 24175, Note_on_c, 1, 49, 113
3, 24204, Note_on_c, 1, 49, 0
3, 24238, Note_on_c, 1, 49, 111
3, 24268, Note_on_c, 1, 49, 0
3, 24297, Note_on_c, 1, 49, 109
3, 24332, Note_on_c, 1, 49, 0
3, 24354, Note_on_c, 1, 47, 103
3, 24385, Note_on_c, 1, 47, 0
3, 24417, Note_on_c, 1, 49, 120
3, 24452, Note_on_c, 1, 49, 0
3, 24536, Note_on_c, 1, 49, 94
3, 24576, Note_on_c, 1, 49, 0
3, 24652, Note_on_c, 1, 47, 98
3, 24699, Note_on_c, 1, 47, 0
3, 24714, Note_on_c, 1, 49, 111
3, 24758, Note_on_c, 1, 49, 0
3, 24775, Note_on_c, 1, 49, 98
3, 24830, Note_on_c, 1, 49, 0
3, 24832, Note_on_c, 1, 44, 98
3, 24894, Note_on_c, 1, 47, 105
3, 24895, Note_on_c, 1, 44, 0
3, 24939, Note_on_c, 1, 47, 0
3, 24965, Note_on_c, 1, 49, 113
3, 25016, Note_on_c, 1, 49, 0
3, 25135, Note_on_c, 1, 49, 113
3, 25164, Note_on_c, 1, 49, 0
3, 25198, Note_on_c, 1, 49, 111
3, 25228, Note_on_c, 1, 49, 0
3, 25257, Note_on_c, 1, 49, 109
3, 25292, Note_on_c, 1, 49, 0
3, 25314, Note_on_c, 1, 47, 103
3, 25345, Note_on_c, 1, 47, 0
3, 25377, Note_on_c, 1, 49, 120
3, 25412, Note_on_c, 1, 49, 0
3, 25496, Note_on_c, 1, 49, 94
3, 25536, Note_on_c, 1, 49, 0
3, 25612, Note_on_c, 1, 47, 98
3, 25659, Note_on_c, 1, 47, 0
3, 25674, Note_on_c, 1, 49, 111
3, 25718, Note_on_c, 1, 49, 0
3, 25735, Note_on_c, 1, 49, 98
3, 25790, Note_on_c, 1, 49, 0
3, 25792, Note_on_c, 1, 44, 98
3, 25854, Note_on_c, 1, 47, 105
3, 25855, Note_on_c, 1, 44, 0
3, 25899, Note_on_c, 1, 47, 0
3, 25925, Note_on_c, 1, 49, 113
3, 25976, Note_on_c, 1, 49, 0
3, 26095, Note_on_c, 1, 49, 113
3, 26124, Note_on_c, 1, 49, 0
3, 26158, Note_on_c, 1, 49, 111
3, 26188, Note_on_c, 1, 49, 0
3, 26217, Note_on_c, 1, 49, 109
3, 26252, Note_on_c, 1, 49, 0
3, 26274, Note_on_c, 1, 47, 103
3, 26305, Note_on_c, 1, 47, 0
3, 26337, Note_on_c, 1, 49, 120
3, 26372, Note_on_c, 1, 49, 0
3, 26456, Note_on_c, 1, 49, 94
3, 26496, Note_on_c, 1, 49, 0
3, 26572, Note_on_c, 1, 47, 98
3, 26619, Note_on_c, 1, 47, 0
3, 26634, Note_on_c, 1, 49, 111
3, 26678, Note_on_c, 1, 49, 0
3, 26695, Note_on_c, 1, 49, 98
3, 26750, Note_on_c, 1, 49, 0
3, 26752, Note_on_c, 1, 44, 98
3, 26814, Note_on_c, 1, 47, 105
3, 26815, Note_on_c, 1, 44, 0
3, 26859, Note_on_c, 1, 47, 0
3, 26885, Note_on_c, 1, 49, 113
3, 26936, Note_on_c, 1, 49, 0
3, 27055, Note_on_c, 1, 49, 113
3, 27084, Note_on_c, 1, 49, 0
3, 27118, Note_on_c, 1, 49, 111
3, 27148, Note_on_c, 1, 49, 0
3, 27177, Note_on_c, 1, 49, 109
3, 27212, Note_on_c, 1, 49, 0
3, 27234, Note_on_c, 1, 47, 103
3, 27265, Note_on_c, 1, 47, 0
3, 27297, Note_on_c, 1, 49, 120
3, 27332, Note_on_c, 1, 49, 0
3, 27416, Note_on_c, 1, 49, 94
3, 27456, Note_on_c, 1, 49, 0
3, 27532, Note_on_c, 1, 47, 98
3, 27579, Note_on_c, 1, 47, 0
3, 27594, Note_on_c, 1, 49, 111
3, 27638, Note_on_c, 1, 49, 0
3, 27655, Note_on_c, 1, 49, 98
3, 27710, Note_on_c, 1, 49, 0
3, 27712, Note_on_c, 1, 44, 98
3, 27774, Note_on_c, 1, 47, 105
3, 27775, Note_on_c, 1, 44, 0
3, 27819, Note_on_c, 1, 47, 0
3, 27845, Note_on_c, 1, 49, 113
3, 27896, Note_on_c, 1, 49, 0
3, 28015, Note_on_c, 1, 49, 113
3, 28044, Note_on_c, 1, 49, 0
3, 28078, Note_on_c, 1, 49, 111
3, 28108, Note_on_c, 1, 49, 0
3, 28137, Note_on_c, 1, 49, 109
3, 28172, Note_on_c, 1, 49, 0
3, 28194, Note_on_c, 1, 47, 103
3, 28225, Note_on_c, 1, 47, 0
3, 28257, Note_on_c, 1, 49, 120
3, 28292, Note_on_c, 1, 49, 0
3, 28376, Note_on_c, 1, 49, 94
3, 28416, Note_on_c, 1, 49, 0
3, 28492, Note_on_c, 1, 47, 98
3, 28539, Note_on_c, 1, 47, 0
3, 28554, Note_on_c, 1, 49, 111
3, 28598, Note_on_c, 1, 49, 0
3, 28615, Note_on_c, 1, 49, 98
3, 28670, Note_on_c, 1, 49, 0
3, 28672, Note_on_c, 1, 44, 98
3, 28734, Note_on_c, 1, 47, 105
3, 28735, Note_on_c, 1, 44, 0
3, 28779, Note_on_c, 1, 47, 0
3, 28805, Note_on_c, 1, 47, 109
3, 28919, Note_on_c, 1, 47, 0
3, 28982, Note_on_c, 1, 44, 109
3, 29035, Note_on_c, 1, 44, 0
3, 29044, Note_on_c, 1, 47, 111
3, 29077, Note_on_c, 1, 47, 0
3, 29100, Note_on_c, 1, 47, 105
3, 29147, Note_on_c, 1, 47, 0
3, 29160, Note_on_c, 1, 44, 109
3, 29202, Note_on_c, 1, 44, 0
3, 29219, Note_on_c, 1, 47, 109
3, 29282, Note_on_c, 1, 47, 0
3, 29340, Note_on_c, 1, 47, 111
3, 29399, Note_on_c, 1, 47, 0
3, 29460, Note_on_c, 1, 44, 120
3, 29504, Note_on_c, 1, 44, 0
3, 29518, Note_on_c, 1, 47, 111
3, 29579, Note_on_c, 1, 47, 0
3, 29639, Note_on_c, 1, 44, 114
3, 29712, Note_on_c, 1, 44, 0
3, 29765, Note_on_c, 1, 49, 113
3, 29816, Note_on_c, 1, 49, 0
3, 29935, Note_on_c, 1, 49, 113
3, 29964, Note_on_c, 1, 49, 0
3, 29998, Note_on_c, 1, 49, 111
3, 30028, Note_on_c, 1, 49, 0
3, 30057, Note_on_c, 1, 49, 109
3, 30092, Note_on_c, 1, 49, 0
3, 30114, Note_on_c, 1, 47, 103
3, 30145, Note_on_c, 1, 47, 0
3, 30177, Note_on_c, 1, 49, 120
3, 30212, Note_on_c, 1, 49, 0
3, 30296, Note_on_c, 1, 49, 94
3, 30336, Note_on_c, 1, 49, 0
3, 30412, Note_on_c, 1, 47, 98
3, 30459, Note_on_c, 1, 47, 0
3, 30474, Note_on_c, 1, 49, 111
3, 30518, Note_on_c, 1, 49, 0
3, 30535, Note_on_c, 1, 49, 98
3, 30590, Note_on_c, 1, 49, 0
3, 30592, Note_on_c, 1, 44, 98
3, 30654, Note_on_c, 1, 47, 105
3, 30655, Note_on_c, 1, 44, 0
3, 30699, Note_on_c, 1, 47, 0
3, 30725, Note_on_c, 1, 49, 113
3, 30776, Note_on_c, 1, 49, 0
3, 30895, Note_on_c, 1, 49, 113
3, 30924, Note_on_c, 1, 49, 0
3, 30958, Note_on_c, 1, 49, 111
3, 30988, Note_on_c, 1, 49, 0
3, 31017, Note_on_c, 1, 49, 109
3, 31052, Note_on_c, 1, 49, 0
3, 31074, Note_on_c, 1, 47, 103
3, 31105, Note_on_c, 1, 47, 0
3, 31137, Note_on_c, 1, 49, 120
3, 31172, Note_on_c, 1, 49, 0
3, 31256, Note_on_c, 1, 49, 94
3, 31296, Note_on_c, 1, 49, 0
3, 31372, Note_on_c, 1, 47, 98
3, 31419, Note_on_c, 1, 47, 0
3, 31434, Note_on_c, 1, 49, 111
3, 31478, Note_on_c, 1, 49, 0
3, 31495, Note_on_c, 1, 49, 98
3, 31550, Note_on_c, 1, 49, 0
3, 31552, Note_on_c, 1, 44, 98
3, 31614, Note_on_c, 1, 47, 105
3, 31615, Note_on_c, 1, 44, 0
3, 31659, Note_on_c, 1, 47, 0
3, 31685, Note_on_c, 1, 49, 113
3, 31736, Note_on_c, 1, 49, 0
3, 31855, Note_on_c, 1, 49, 113
3, 31884, Note_on_c, 1, 49, 0
3, 31918, Note_on_c, 1, 49, 111
3, 31948, Note_on_c, 1, 49, 0
3, 31977, Note_on_c, 1, 49, 109
3, 32012, Note_on_c, 1, 49, 0
3, 32034, Note_on_c, 1, 47, 103
3, 32065, Note_on_c, 1, 47, 0
3, 32097, Note_on_c, 1, 49, 120
3, 32132, Note_on_c, 1, 49, 0
3, 32216, Note_on_c, 1, 49, 94
3, 32256, Note_on_c, 1, 49, 0
3, 32332, Note_on_c, 1, 47, 98
3, 32379, Note_on_c, 1, 47, 0
3, 32394, Note_on_c, 1, 49, 111
3, 32438, Note_on_c, 1, 49, 0
3, 32455, Note_on_c, 1, 49, 98
3, 32510, Note_on_c, 1, 49, 0
3, 32512, Note_on_c, 1, 44, 98
3, 32574, Note_on_c, 1, 47, 105
3, 32575, Note_on_c, 1, 44, 0
3, 32619, Note_on_c, 1, 47, 0
3, 32645, Note_on_c, 1, 49, 113
3, 32696, Note_on_c, 1, 49, 0
3, 32815, Note_on_c, 1, 49, 113
3, 32844, Note_on_c, 1, 49, 0
3, 32878, Note_on_c, 1, 49, 111
3, 32908, Note_on_c, 1, 49, 0
3, 32937, Note_on_c, 1, 49, 109
3, 32972, Note_on_c, 1, 49, 0
3, 32994, Note_on_c, 1, 47, 103
3, 33025, Note_on_c, 1, 47, 0
3, 33057, Note_on_c, 1, 49, 120
3, 33092, Note_on_c, 1, 49, 0
3, 33176, Note_on_c, 1, 49, 94
3, 33216, Note_on_c, 1, 49, 0
3, 33292, Note_on_c, 1, 47, 98
3, 33339, Note_on_c, 1, 47, 0
3, 33354, Note_on_c, 1, 49, 111
3, 33398, Note_on_c, 1, 49, 0
3, 33415, Note_on_c, 1, 49, 98
3, 33470, Note_on_c, 1, 49, 0
3, 33472, Note_on_c, 1, 44, 98
3, 33534, Note_on_c, 1, 47, 105
3, 33535, Note_on_c, 1, 44, 0
3, 33579, Note_on_c, 1, 47, 0
3, 33605, Note_on_c, 1, 49, 113
3, 33656, Note_on_c, 1, 49, 0
3, 33775, Note_on_c, 1, 49, 113
3, 33804, Note_on_c, 1, 49, 0
3, 33838, Note_on_c, 1, 49, 111
3, 33868, Note_on_c, 1, 49, 0
3, 33897, Note_on_c, 1, 49, 109
3, 33932, Note_on_c, 1, 49, 0
3, 33954, Note_on_c, 1, 47, 103
3, 33985, Note_on_c, 1, 47, 0
3, 34017, Note_on_c, 1, 49, 120
3, 34052, Note_on_c, 1, 49, 0
3, 34136, Note_on_c, 1, 49, 94
3, 34176, Note_on_c, 1, 49, 0
3, 34252, Note_on_c, 1, 47, 98
3, 34299, Note_on_c, 1, 47, 0
3, 34314, Note_on_c, 1, 49, 111
3, 34358, Note_on_c, 1, 49, 0
3, 34375, Note_on_c, 1, 49, 98
3, 34430, Note_on_c, 1, 49, 0
3, 34432, Note_on_c, 1, 44, 98
3, 34494, Note_on_c, 1, 47, 105
3, 34495, Note_on_c, 1, 44, 0
3, 34539, Note_on_c, 1, 47, 0
3, 34565, Note_on_c, 1, 47, 109
3, 34679, Note_on_c, 1, 47, 0
3, 34742, Note_on_c, 1, 44, 109
3, 34795, Note_on_c, 1, 44, 0
3, 34804, Note_on_c, 1, 47, 111
3, 34837, Note_on_c, 1, 47, 0
3, 34860, Note_on_c, 1, 47, 105
3, 34907, Note_on_c, 1, 47, 0
3, 34920, Note_on_c, 1, 44, 109
3, 34962, Note_on_c, 1, 44, 0
3, 34979, Note_on_c, 1, 47, 109
3, 35042, Note_on_c, 1, 47, 0
3, 35100, Note_on_c, 1, 47, 111
3, 35159, Note_on_c, 1, 47, 0
3, 35220, Note_on_c, 1, 44, 120
3, 35264, Note_on_c, 1, 44, 0
3, 35278, Note_on_c, 1, 47, 111
3, 35339, Note_on_c, 1, 47, 0
3, 35399, Note_on_c, 1, 44, 114
3, 35472, Note_on_c, 1, 44, 0
3, 35525, Note_on_c, 1, 49, 113
3, 35576, Note_on_c, 1, 49, 0
3, 35695, Note_on_c, 1, 49, 113
3, 35724, Note_on_c, 1, 49, 0
3, 35758, Note_on_c, 1, 49, 111
3, 35788, Note_on_c, 1, 49, 0
3, 35817, Note_on_c, 1, 49, 109
3, 35852, Note_on_c, 1, 49, 0
3, 35874, Note_on_c, 1, 47, 103
3, 35905, Note_on_c, 1, 47, 0
3, 35937, Note_on_c, 1, 49, 120
3, 35972, Note_on_c, 1, 49, 0
3, 36056, Note_on_c, 1, 49, 94
3, 36096, Note_on_c, 1, 49, 0
3, 36172, Note_on_c, 1, 47, 98
3, 36219, Note_on_c, 1, 47, 0
3, 36234, Note_on_c, 1, 49, 111
3, 36278, Note_on_c, 1, 49, 0
3, 36295, Note_on_c, 1, 49, 98
3, 36350, Note_on_c, 1, 49, 0
3, 36352, Note_on_c, 1, 44, 98
3, 36414, Note_on_c, 1, 47, 105
3, 36415, Note_on_c, 1, 44, 0
3, 36459, Note_on_c, 1, 47, 0
3, 36480, Note_on_c, 1, 49, 64
3, 36574, Note_on_c, 1, 49, 0
3, 37304, Note_on_c, 1, 47, 96
3, 37433, Note_on_c, 1, 49, 107
3, 37437, Note_on_c, 1, 47, 0
3, 37461, Note_on_c, 1, 49, 0
3, 37491, Note_on_c, 1, 49, 120
3, 37518, Note_on_c, 1, 49, 0
3, 38280, Note_on_c, 1, 44, 103
3, 38346, Note_on_c, 1, 47, 105
3, 38354, Note_on_c, 1, 44, 0
3, 38396, Note_on_c, 1, 47, 0
3, 38400, Note_on_c, 1, 49, 94
3, 38439, Note_on_c, 1, 49, 0
3, 38453, Note_on_c, 1, 49, 94
3, 38486, Note_on_c, 1, 49, 0
3, 39240, Note_on_c, 1, 47, 113
3, 39259, Note_on_c, 1, 47, 0
3, 39266, Note_on_c, 1, 47, 109
3, 39287, Note_on_c, 1, 47, 0
3, 39294, Note_on_c, 1, 47, 111
3, 39314, Note_on_c, 1, 47, 0
3, 39330, Note_on_c, 1, 47, 111
3, 39350, Note_on_c, 1, 47, 0
3, 39355, Note_on_c, 1, 49, 101
3, 39385, Note_on_c, 1, 49, 0
3, 39415, Note_on_c, 1, 49, 114
3, 39446, Note_on_c, 1, 49, 0
3, 40025, Note_on_c, 1, 68, 64
3, 40054, Pitch_bend_c, 1, 8192
3, 40056, Pitch_bend_c, 1, 9472
3, 40059, Pitch_bend_c, 1, 10624
3, 40061, Pitch_bend_c, 1, 12032
3, 40063, Pitch_bend_c, 1, 13696
3, 40066, Pitch_bend_c, 1, 15616
3, 40068, Pitch_bend_c, 1, 16256
3, 40079, Pitch_bend_c, 1, 15360
3, 40081, Pitch_bend_c, 1, 9600
3, 40084, Pitch_bend_c, 1, 8192
3, 40086, Pitch_bend_c, 1, 8192
3, 40139, Note_on_c, 1, 68, 0
3, 40142, Note_on_c, 1, 64, 64
3, 40197, Note_on_c, 1, 63, 64
3, 40198, Note_on_c, 1, 64, 0
3, 40310, Note_on_c, 1, 63, 0
3, 40325, Note_on_c, 1, 49, 113
3, 40376, Note_on_c, 1, 49, 0
3, 40495, Note_on_c, 1, 49, 113
3, 40524, Note_on_c, 1, 49, 0
3, 40558, Note_on_c, 1, 49, 111
3, 40588, Note_on_c, 1, 49, 0
3, 40617, Note_on_c, 1, 49, 109
3, 40652, Note_on_c, 1, 49, 0
3, 40674, Note_on_c, 1, 47, 103
3, 40705, Note_on_c, 1, 47, 0
3, 40737, Note_on_c, 1, 49, 120
3, 40772, Note_on_c, 1, 49, 0
3, 40856, Note_on_c, 1, 49, 94
3, 40896, Note_on_c, 1, 49, 0
3, 40972, Note_on_c, 1, 47, 98
3, 41019, Note_on_c, 1, 47, 0
3, 41034, Note_on_c, 1, 49, 111
3, 41078, Note_on_c, 1, 49, 0
3, 41095, Note_on_c, 1, 49, 98
3, 41150, Note_on_c, 1, 49, 0
3, 41152, Note_on_c, 1, 44, 98
3, 41214, Note_on_c, 1, 47, 105
3, 41215, Note_on_c, 1, 44, 0
3, 41259, Note_on_c, 1, 47, 0
3, 41285, Note_on_c, 1, 49, 113
3, 41336, Note_on_c, 1, 49, 0
3, 41455, Note_on_c, 1, 49, 113
3, 41484, Note_on_c, 1, 49, 0
3, 41518, Note_on_c, 1, 49, 111
3, 41548, Note_on_c, 1, 49, 0
3, 41577, Note_on_c, 1, 49, 109
3, 41612, Note_on_c, 1, 49, 0
3, 41634, Note_on_c, 1, 47, 103
3, 41665, Note_on_c, 1, 47, 0
3, 41697, Note_on_c, 1, 49, 120
3, 41732, Note_on_c, 1, 49, 0
3, 41816, Note_on_c, 1, 49, 94
3, 41856, Note_on_c, 1, 49, 0
3, 41932, Note_on_c, 1, 47, 98
3, 41979, Note_on_c, 1, 47, 0
3, 41994, Note_on_c, 1, 49, 111
3, 42038, Note_on_c, 1, 49, 0
3, 42055, Note_on_c, 1, 49, 98
3, 42110, Note_on_c, 1, 49, 0
3, 42112, Note_on_c, 1, 44, 98
3, 42174, Note_on_c, 1, 47, 105
3, 42175, Note_on_c, 1, 44, 0
3, 42219, Note_on_c, 1, 47, 0
3, 42245, Note_on_c, 1, 49, 113
3, 42296, Note_on_c, 1, 49, 0
3, 42415, Note_on_c, 1, 49, 113
3, 42444, Note_on_c, 1, 49, 0
3, 42478, Note_on_c, 1, 49, 111
3, 42508, Note_on_c, 1, 49, 0
3, 42537, Note_on_c, 1, 49, 109
3, 42572, Note_on_c, 1, 49, 0
3, 42594, Note_on_c, 1, 47, 103
3, 42625, Note_on_c, 1, 47, 0
3, 42657, Note_on_c, 1, 49, 120
3, 42692, Note_on_c, 1, 49, 0
3, 42776, Note_on_c, 1, 49, 94
3, 42816, Note_on_c, 1, 49, 0
3, 42892, Note_on_c, 1, 47, 98
3, 42939, Note_on_c, 1, 47, 0
3, 42954, Note_on_c, 1, 49, 111
3, 42998, Note_on_c, 1, 49, 0
3, 43015, Note_on_c, 1, 49, 98
3, 43070, Note_on_c, 1, 49, 0
3, 43072, Note_on_c, 1, 44, 98
3, 43134, Note_on_c, 1, 47, 105
3, 43135, Note_on_c, 1, 44, 0
3, 43179, Note_on_c, 1, 47, 0
3, 43205, Note_on_c, 1, 49, 113
3, 43256, Note_on_c, 1, 49, 0
3, 43375, Note_on_c, 1, 49, 113
3, 43404, Note_on_c, 1, 49, 0
3, 43438, Note_on_c, 1, 49, 111
3, 43468, Note_on_c, 1, 49, 0
3, 43497, Note_on_c, 1, 49, 109
3, 43532, Note_on_c, 1, 49, 0
3, 43554, Note_on_c, 1, 47, 103
3, 43585, Note_on_c, 1, 47, 0
3, 43617, Note_on_c, 1, 49, 120
3, 43652, Note_on_c, 1, 49, 0
3, 43736, Note_on_c, 1, 49, 94
3, 43776, Note_on_c, 1, 49, 0
3, 43852, Note_on_c, 1, 47, 98
3, 43899, Note_on_c, 1, 47, 0
3, 43914, Note_on_c, 1, 49, 111
3, 43958, Note_on_c, 1, 49, 0
3, 43975, Note_on_c, 1, 49, 98
3, 44030, Note_on_c, 1, 49, 0
3, 44032, Note_on_c, 1, 44, 98
3, 44094, Note_on_c, 1, 47, 105
3, 44095, Note_on_c, 1, 44, 0
3, 44139, Note_on_c, 1, 47, 0
3, 44165, Note_on_c, 1, 47, 109
3, 44279, Note_on_c, 1, 47, 0
3, 44342, Note_on_c, 1, 44, 109
3, 44395, Note_on_c, 1, 44, 0
3, 44404, Note_on_c, 1, 47, 111
3, 44437, Note_on_c, 1, 47, 0
3, 44460, Note_on_c, 1, 47, 105
3, 44507, Note_on_c, 1, 47, 0
3, 44520, Note_on_c, 1, 44, 109
3, 44562, Note_on_c, 1, 44, 0
3, 44579, Note_on_c, 1, 47, 109
3, 44642, Note_on_c, 1, 47, 0
3, 44700, Note_on_c, 1, 47, 111
3, 44759, Note_on_c, 1, 47, 0
3, 44820, Note_on_c, 1, 44, 120
3, 44864, Note_on_c, 1, 44, 0
3, 44878, Note_on_c, 1, 47, 111
3, 44939, Note_on_c, 1, 47, 0
3, 44999, Note_on_c, 1, 44, 114
3, 45072, Note_on_c, 1, 44, 0
3, 45125, Note_on_c, 1, 49, 113
3, 45176, Note_on_c, 1, 49, 0
3, 45295, Note_on_c, 1, 49, 113
3, 45324, Note_on_c, 1, 49, 0
3, 45358, Note_on_c, 1, 49, 111
3, 45388, Note_on_c, 1, 49, 0
3, 45417, Note_on_c, 1, 49, 109
3, 45452, Note_on_c, 1, 49, 0
3, 45474, Note_on_c, 1, 47, 103
3, 45505, Note_on_c, 1, 47, 0
3, 45537, Note_on_c, 1, 49, 120
3, 45572, Note_on_c, 1, 49, 0
3, 45656, Note_on_c, 1, 49, 94
3, 45696, Note_on_c, 1, 49, 0
3, 45772, Note_on_c, 1, 47, 98
3, 45819, Note_on_c, 1, 47, 0
3, 45834, Note_on_c, 1, 49, 111
3, 45878, Note_on_c, 1, 49, 0
3, 45895, Note_on_c, 1, 49, 98
3, 45950, Note_on_c, 1, 49, 0
3, 45952, Note_on_c, 1, 44, 98
3, 46014, Note_on_c, 1, 47, 105
3, 46015, Note_on_c, 1, 44, 0
3, 46059, Note_on_c, 1, 47, 0
3, 46082, Note_on_c, 1, 49, 64
3, 46194, Note_on_c, 1, 49, 0
3, 46262, Note_on_c, 1, 49, 64
3, 46282, Note_on_c, 1, 49, 0
3, 46319, Note_on_c, 1, 49, 64
3, 46341, Note_on_c, 1, 49, 0
3, 46382, Note_on_c, 1, 49, 64
3, 46437, Note_on_c, 1, 47, 64
3, 46440, Note_on_c, 1, 49, 0
3, 46502, Note_on_c, 1, 49, 64
3, 46505, Note_on_c, 1, 47, 0
3, 46580, Note_on_c, 1, 49, 0
3, 46619, Note_on_c, 1, 49, 64
3, 46693, Note_on_c, 1, 49, 0
3, 46742, Note_on_c, 1, 47, 64
3, 46798, Note_on_c, 1, 49, 64
3, 46803, Note_on_c, 1, 47, 0
3, 46856, Note_on_c, 1, 40, 64
3, 46857, Note_on_c, 1, 49, 0
3, 46917, Note_on_c, 1, 42, 64
3, 46922, Note_on_c, 1, 40, 0
3, 46972, Note_on_c, 1, 42, 0
3, 46972, Note_on_c, 1, 44, 64
3, 47042, Note_on_c, 1, 49, 64
3, 47049, Note_on_c, 1, 44, 0
3, 47154, Note_on_c, 1, 49, 0
3, 47222, Note_on_c, 1, 49, 64
3, 47242, Note_on_c, 1, 49, 0
3, 47279, Note_on_c, 1, 49, 64
3, 47301, Note_on_c, 1, 49, 0
3, 47342, Note_on_c, 1, 49, 64
3, 47397, Note_on_c, 1, 47, 64
3, 47400, Note_on_c, 1, 49, 0
3, 47462, Note_on_c, 1, 49, 64
3, 47465, Note_on_c, 1, 47, 0
3, 47540, Note_on_c, 1, 49, 0
3, 47579, Note_on_c, 1, 49, 64
3, 47653, Note_on_c, 1, 49, 0
3, 47702, Note_on_c, 1, 47, 64
3, 47758, Note_on_c, 1, 49, 64
3, 47763, Note_on_c, 1, 47, 0
3, 47816, Note_on_c, 1, 40, 64
3, 47817, Note_on_c, 1, 49, 0
3, 47877, Note_on_c, 1, 42, 64
3, 47882, Note_on_c, 1, 40, 0
3, 47932, Note_on_c, 1, 42, 0
3, 47932, Note_on_c, 1, 44, 64
3, 48002, Note_on_c, 1, 49, 64
3, 48009, Note_on_c, 1, 44, 0
3, 48114, Note_on_c, 1, 49, 0
3, 48182, Note_on_c, 1, 49, 64
3, 48202, Note_on_c, 1, 49, 0
3, 48239, Note_on_c, 1, 49, 64
3, 48261, Note_on_c, 1, 49, 0
3, 48302, Note_on_c, 1, 49, 64
3, 48357, Note_on_c, 1, 47, 64
3, 48360, Note_on_c, 1, 49, 0
3, 48422, Note_on_c, 1, 49, 64
3, 48425, Note_on_c, 1, 47, 0
3, 48500, Note_on_c, 1, 49, 0
3, 48539, Note_on_c, 1, 49, 64
3, 48613, Note_on_c, 1, 49, 0
3, 48662, Note_on_c, 1, 47, 64
3, 48718, Note_on_c, 1, 49, 64
3, 48723, Note_on_c, 1, 47, 0
3, 48776, Note_on_c, 1, 40, 64
3, 48777, Note_on_c, 1, 49, 0
3, 48837, Note_on_c, 1, 42, 64
3, 48842, Note_on_c, 1, 40, 0
3, 48892, Note_on_c, 1, 42, 0
3, 48892, Note_on_c, 1, 44, 64
3, 48965, Note_on_c, 1, 49, 64
3, 48969, Note_on_c, 1, 44, 0
3, 49081, Note_on_c, 1, 49, 0
3, 49139, Note_on_c, 1, 49, 64
3, 49152, Note_on_c, 1, 49, 0
3, 49198, Note_on_c, 1, 49, 64
3, 49213, Note_on_c, 1, 49, 0
3, 49254, Note_on_c, 1, 49, 64
3, 49316, Note_on_c, 1, 47, 64
3, 49317, Note_on_c, 1, 49, 0
3, 49369, Note_on_c, 1, 47, 0
3, 49371, Control_c, 1, 1, 0
3, 49371, Control_c, 1, 2, 0
3, 49380, Note_on_c, 1, 49, 64
3, 49485, Note_on_c, 1, 49, 0
3, 49496, Note_on_c, 1, 40, 64
3, 49547, Note_on_c, 1, 40, 0
3, 49553, Note_on_c, 1, 42, 64
3, 49618, Note_on_c, 1, 42, 0
3, 49619, Note_on_c, 1, 44, 64
3, 49677, Note_on_c, 1, 44, 0
3, 49681, Note_on_c, 1, 47, 64
3, 49733, Note_on_c, 1, 47, 0
3, 49738, Note_on_c, 1, 51, 64
3, 49799, Note_on_c, 1, 54, 64
3, 49802, Note_on_c, 1, 51, 0
3, 49858, Note_on_c, 1, 51, 64
3, 49866, Note_on_c, 1, 54, 0
3, 49911, Note_on_c, 1, 51, 0
3, 49922, Note_on_c, 1, 49, 64
3, 50034, Note_on_c, 1, 49, 0
3, 50102, Note_on_c, 1, 49, 64
3, 50122, Note_on_c, 1, 49, 0
3, 50159, Note_on_c, 1, 49, 64
3, 50181, Note_on_c, 1, 49, 0
3, 50222, Note_on_c, 1, 49, 64
3, 50277, Note_on_c, 1, 47, 64
3, 50280, Note_on_c, 1, 49, 0
3, 50342, Note_on_c, 1, 49, 64
3, 50345, Note_on_c, 1, 47, 0
3, 50420, Note_on_c, 1, 49, 0
3, 50459, Note_on_c, 1, 49, 64
3, 50533, Note_on_c, 1, 49, 0
3, 50582, Note_on_c, 1, 47, 64
3, 50638, Note_on_c, 1, 49, 64
3, 50643, Note_on_c, 1, 47, 0
3, 50696, Note_on_c, 1, 40, 64
3, 50697, Note_on_c, 1, 49, 0
3, 50757, Note_on_c, 1, 42, 64
3, 50762, Note_on_c, 1, 40, 0
3, 50812, Note_on_c, 1, 42, 0
3, 50812, Note_on_c, 1, 44, 64
3, 50882, Note_on_c, 1, 49, 64
3, 50889, Note_on_c, 1, 44, 0
3, 50994, Note_on_c, 1, 49, 0
3, 51062, Note_on_c, 1, 49, 64
3, 51082, Note_on_c, 1, 49, 0
3, 51119, Note_on_c, 1, 49, 64
3, 51141, Note_on_c, 1, 49, 0
3, 51182, Note_on_c, 1, 49, 64
3, 51237, Note_on_c, 1, 47, 64
3, 51240, Note_on_c, 1, 49, 0
3, 51302, Note_on_c, 1, 49, 64
3, 51305, Note_on_c, 1, 47, 0
3, 51380, Note_on_c, 1, 49, 0
3, 51419, Note_on_c, 1, 49, 64
3, 51493, Note_on_c, 1, 49, 0
3, 51542, Note_on_c, 1, 47, 64
3, 51598, Note_on_c, 1, 49, 64
3, 51603, Note_on_c, 1, 47, 0
3, 51656, Note_on_c, 1, 40, 64
3, 51657, Note_on_c, 1, 49, 0
3, 51717, Note_on_c, 1, 42, 64
3, 51722, Note_on_c, 1, 40, 0
3, 51772, Note_on_c, 1, 42, 0
3, 51772, Note_on_c, 1, 44, 64
3, 51842, Note_on_c, 1, 49, 64
3, 51849, Note_on_c, 1, 44, 0
3, 51954, Note_on_c, 1, 49, 0
3, 52022, Note_on_c, 1, 49, 64
3, 52042, Note_on_c, 1, 49, 0
3, 52079, Note_on_c, 1, 49, 64
3, 52101, Note_on_c, 1, 49, 0
3, 52142, Note_on_c, 1, 49, 64
3, 52197, Note_on_c, 1, 47, 64
3, 52200, Note_on_c, 1, 49, 0
3, 52262, Note_on_c, 1, 49, 64
3, 52265, Note_on_c, 1, 47, 0
3, 52340, Note_on_c, 1, 49, 0
3, 52379, Note_on_c, 1, 49, 64
3, 52453, Note_on_c, 1, 49, 0
3, 52502, Note_on_c, 1, 47, 64
3, 52558, Note_on_c, 1, 49, 64
3, 52563, Note_on_c, 1, 47, 0
3, 52616, Note_on_c, 1, 40, 64
3, 52617, Note_on_c, 1, 49, 0
3, 52677, Note_on_c, 1, 42, 64
3, 52682, Note_on_c, 1, 40, 0
3, 52732, Note_on_c, 1, 42, 0
3, 52732, Note_on_c, 1, 44, 64
3, 52802, Note_on_c, 1, 49, 64
3, 52809, Note_on_c, 1, 44, 0
3, 52914, Note_on_c, 1, 49, 0
3, 52982, Note_on_c, 1, 49, 64
3, 53002, Note_on_c, 1, 49, 0
3, 53039, Note_on_c, 1, 49, 64
3, 53061, Note_on_c, 1, 49, 0
3, 53102, Note_on_c, 1, 49, 64
3, 53157, Note_on_c, 1, 47, 64
3, 53160, Note_on_c, 1, 49, 0
3, 53222, Note_on_c, 1, 49, 64
3, 53225, Note_on_c, 1, 47, 0
3, 53300, Note_on_c, 1, 49, 0
3, 53339, Note_on_c, 1, 49, 64
3, 53413, Note_on_c, 1, 49, 0
3, 53462, Note_on_c, 1, 47, 64
3, 53518, Note_on_c, 1, 49, 64
3, 53523, Note_on_c, 1, 47, 0
3, 53576, Note_on_c, 1, 40, 64
3, 53577, Note_on_c, 1, 49, 0
3, 53637, Note_on_c, 1, 42, 64
3, 53642, Note_on_c, 1, 40, 0
3, 53692, Note_on_c, 1, 42, 0
3, 53692, Note_on_c, 1, 44, 64
3, 53765, Note_on_c, 1, 49, 113
3, 53769, Note_on_c, 1, 44, 0
3, 53816, Note_on_c, 1, 49, 0
3, 53935, Note_on_c, 1, 49, 113
3, 53964, Note_on_c, 1, 49, 0
3, 53998, Note_on_c, 1, 49, 111
3, 54028, Note_on_c, 1, 49, 0
3, 54057, Note_on_c, 1, 49, 109
3, 54092, Note_on_c, 1, 49, 0
3, 54114, Note_on_c, 1, 47, 103
3, 54145, Note_on_c, 1, 47, 0
3, 54177, Note_on_c, 1, 49, 120
3, 54212, Note_on_c, 1, 49, 0
3, 54296, Note_on_c, 1, 49, 94
3, 54336, Note_on_c, 1, 49, 0
3, 54412, Note_on_c, 1, 47, 98
3, 54459, Note_on_c, 1, 47, 0
3, 54474, Note_on_c, 1, 49, 111
3, 54518, Note_on_c, 1, 49, 0
3, 54535, Note_on_c, 1, 49, 98
3, 54590, Note_on_c, 1, 49, 0
3, 54592, Note_on_c, 1, 44, 98
3, 54654, Note_on_c, 1, 47, 105
3, 54655, Note_on_c, 1, 44, 0
3, 54699, Note_on_c, 1, 47, 0
3, 54725, Note_on_c, 1, 49, 113
3, 54776, Note_on_c, 1, 49, 0
3, 54895, Note_on_c, 1, 49, 113
3, 54924, Note_on_c, 1, 49, 0
3, 54958, Note_on_c, 1, 49, 111
3, 54988, Note_on_c, 1, 49, 0
3, 55017, Note_on_c, 1, 49, 109
3, 55052, Note_on_c, 1, 49, 0
3, 55074, Note_on_c, 1, 47, 103
3, 55105, Note_on_c, 1, 47, 0
3, 55137, Note_on_c, 1, 49, 120
3, 55172, Note_on_c, 1, 49, 0
3, 55256, Note_on_c, 1, 49, 94
3, 55296, Note_on_c, 1, 49, 0
3, 55372, Note_on_c, 1, 47, 98
3, 55419, Note_on_c, 1, 47, 0
3, 55434, Note_on_c, 1, 49, 111
3, 55478, Note_on_c, 1, 49, 0
3, 55495, Note_on_c, 1, 49, 98
3, 55550, Note_on_c, 1, 49, 0
3, 55552, Note_on_c, 1, 44, 98
3, 55614, Note_on_c, 1, 47, 105
3, 55615, Note_on_c, 1, 44, 0
3, 55659, Note_on_c, 1, 47, 0
3, 55685, Note_on_c, 1, 49, 113
3, 55736, Note_on_c, 1, 49, 0
3, 55855, Note_on_c, 1, 49, 113
3, 55884, Note_on_c, 1, 49, 0
3, 55918, Note_on_c, 1, 49, 111
3, 55948, Note_on_c, 1, 49, 0
3, 55977, Note_on_c, 1, 49, 109
3, 56012, Note_on_c, 1, 49, 0
3, 56034, Note_on_c, 1, 47, 103
3, 56065, Note_on_c, 1, 47, 0
3, 56097, Note_on_c, 1, 49, 120
3, 56132, Note_on_c, 1, 49, 0
3, 56216, Note_on_c, 1, 49, 94
3, 56256, Note_on_c, 1, 49, 0
3, 56332, Note_on_c, 1, 47, 98
3, 56379, Note_on_c, 1, 47, 0
3, 56394, Note_on_c, 1, 49, 111
3, 56438, Note_on_c, 1, 49, 0
3, 56455, Note_on_c, 1, 49, 98
3, 56510, Note_on_c, 1, 49, 0
3, 56512, Note_on_c, 1, 44, 98
3, 56574, Note_on_c, 1, 47, 105
3, 56575, Note_on_c, 1, 44, 0
3, 56619, Note_on_c, 1, 47, 0
3, 56645, Note_on_c, 1, 49, 113
3, 56696, Note_on_c, 1, 49, 0
3, 56815, Note_on_c, 1, 49, 113
3, 56844, Note_on_c, 1, 49, 0
3, 56878, Note_on_c, 1, 49, 111
3, 56908, Note_on_c, 1, 49, 0
3, 56937, Note_on_c, 1, 49, 109
3, 56972, Note_on_c, 1, 49, 0
3, 56994, Note_on_c, 1, 47, 103
3, 57025, Note_on_c, 1, 47, 0
3, 57057, Note_on_c, 1, 49, 120
3, 57092, Note_on_c, 1, 49, 0
3, 57176, Note_on_c, 1, 49, 94
3, 57216, Note_on_c, 1, 49, 0
3, 57292, Note_on_c, 1, 47, 98
3, 57339, Note_on_c, 1, 47, 0
3, 57354, Note_on_c, 1, 49, 111
3, 57398, Note_on_c, 1, 49, 0
3, 57415, Note_on_c, 1, 49, 98
3, 57470, Note_on_c, 1, 49, 0
3, 57472, Note_on_c, 1, 44, 98
3, 57534, Note_on_c, 1, 47, 105
3, 57535, Note_on_c, 1, 44, 0
3, 57579, Note_on_c, 1, 47, 0
3, 57605, Note_on_c, 1, 49, 113
3, 57656, Note_on_c, 1, 49, 0
3, 57775, Note_on_c, 1, 49, 113
3, 57804, Note_on_c, 1, 49, 0
3, 57838, Note_on_c, 1, 49, 111
3, 57868, Note_on_c, 1, 49, 0
3, 57897, Note_on_c, 1, 49, 109
3, 57932, Note_on_c, 1, 49, 0
3, 57954, Note_on_c, 1, 47, 103
3, 57985, Note_on_c, 1, 47, 0
3, 58017, Note_on_c, 1, 49, 120
3, 58052, Note_on_c, 1, 49, 0
3, 58136, Note_on_c, 1, 49, 94
3, 58176, Note_on_c, 1, 49, 0
3, 58252, Note_on_c, 1, 47, 98
3, 58299, Note_on_c, 1, 47, 0
3, 58314, Note_on_c, 1, 49, 111
3, 58358, Note_on_c, 1, 49, 0
3, 58375, Note_on_c, 1, 49, 98
3, 58430, Note_on_c, 1, 49, 0
3, 58432, Note_on_c, 1, 44, 98
3, 58494, Note_on_c, 1, 47, 105
3, 58495, Note_on_c, 1, 44, 0
3, 58539, Note_on_c, 1, 47, 0
3, 58565, Note_on_c, 1, 49, 113
3, 58616, Note_on_c, 1, 49, 0
3, 58735, Note_on_c, 1, 49, 113
3, 58764, Note_on_c, 1, 49, 0
3, 58798, Note_on_c, 1, 49, 111
3, 58828, Note_on_c, 1, 49, 0
3, 58857, Note_on_c, 1, 49, 109
3, 58892, Note_on_c, 1, 49, 0
3, 58914, Note_on_c, 1, 47, 103
3, 58945, Note_on_c, 1, 47, 0
3, 58977, Note_on_c, 1, 49, 120
3, 59012, Note_on_c, 1, 49, 0
3, 59096, Note_on_c, 1, 49, 94
3, 59136, Note_on_c, 1, 49, 0
3, 59212, Note_on_c, 1, 47, 98
3, 59259, Note_on_c, 1, 47, 0
3, 59274, Note_on_c, 1, 49, 111
3, 59318, Note_on_c, 1, 49, 0
3, 59335, Note_on_c, 1, 49, 98
3, 59390, Note_on_c, 1, 49, 0
3, 59392, Note_on_c, 1, 44, 98
3, 59454, Note_on_c, 1, 47, 105
3, 59455, Note_on_c, 1, 44, 0
3, 59499, Note_on_c, 1, 47, 0
3, 59525, Note_on_c, 1, 49, 113
3, 59576, Note_on_c, 1, 49, 0
3, 59695, Note_on_c, 1, 49, 113
3, 59724, Note_on_c, 1, 49, 0
3, 59758, Note_on_c, 1, 49, 111
3, 59788, Note_on_c, 1, 49, 0
3, 59817, Note_on_c, 1, 49, 109
3, 59852, Note_on_c, 1, 49, 0
3, 59874, Note_on_c, 1, 47, 103
3, 59905, Note_on_c, 1, 47, 0
3, 59937, Note_on_c, 1, 49, 120
3, 59972, Note_on_c, 1, 49, 0
3, 60056, Note_on_c, 1, 49, 94
3, 60096, Note_on_c, 1, 49, 0
3, 60172, Note_on_c, 1, 47, 98
3, 60219, Note_on_c, 1, 47, 0
3, 60234, Note_on_c, 1, 49, 111
3, 60278, Note_on_c, 1, 49, 0
3, 60295, Note_on_c, 1, 49, 98
3, 60350, Note_on_c, 1, 49, 0
3, 60352, Note_on_c, 1, 44, 98
3, 60414, Note_on_c, 1, 47, 105
3, 60415, Note_on_c, 1, 44, 0
3, 60459, Note_on_c, 1, 47, 0
3, 60485, Note_on_c, 1, 49, 113
3, 60536, Note_on_c, 1, 49, 0
3, 60655, Note_on_c, 1, 49, 113
3, 60684, Note_on_c, 1, 49, 0
3, 60718, Note_on_c, 1, 49, 111
3, 60748, Note_on_c, 1, 49, 0
3, 60777, Note_on_c, 1, 49, 109
3, 60812, Note_on_c, 1, 49, 0
3, 60834, Note_on_c, 1, 47, 103
3, 60865, Note_on_c, 1, 47, 0
3, 60897, Note_on_c, 1, 49, 120
3, 60932, Note_on_c, 1, 49, 0
3, 61016, Note_on_c, 1, 49, 94
3, 61056, Note_on_c, 1, 49, 0
3, 61132, Note_on_c, 1, 47, 98
3, 61179, Note_on_c, 1, 47, 0
3, 61194, Note_on_c, 1, 49, 111
3, 61238, Note_on_c, 1, 49, 0
3, 61255, Note_on_c, 1, 49, 98
3, 61310, Note_on_c, 1, 49, 0
3, 61312, Note_on_c, 1, 44, 98
3, 61374, Note_on_c, 1, 47, 105
3, 61375, Note_on_c, 1, 44, 0
3, 61419, Note_on_c, 1, 47, 0
3, 61445, Note_on_c, 1, 47, 109
3, 61559, Note_on_c, 1, 47, 0
3, 61622, Note_on_c, 1, 44, 109
3, 61675, Note_on_c, 1, 44, 0
3, 61684, Note_on_c, 1, 47, 111
3, 61717, Note_on_c, 1, 47, 0
3, 61740, Note_on_c, 1, 47, 105
3, 61787, Note_on_c, 1, 47, 0
3, 61800, Note_on_c, 1, 44, 109
3, 61842, Note_on_c, 1, 44, 0
3, 61859, Note_on_c, 1, 47, 109
3, 61922, Note_on_c, 1, 47, 0
3, 61980, Note_on_c, 1, 47, 111
3, 62039, Note_on_c, 1, 47, 0
3, 62100, Note_on_c, 1, 44, 120
3, 62144, Note_on_c, 1, 44, 0
3, 62158, Note_on_c, 1, 47, 111
3, 62219, Note_on_c, 1, 47, 0
3, 62279, Note_on_c, 1, 44, 114
3, 62352, Note_on_c, 1, 44, 0
3, 62405, Note_on_c, 1, 49, 113
3, 62456, Note_on_c, 1, 49, 0
3, 62575, Note_on_c, 1, 49, 113
3, 62604, Note_on_c, 1, 49, 0
3, 62638, Note_on_c, 1, 49, 111
3, 62668, Note_on_c, 1, 49, 0
3, 62697, Note_on_c, 1, 49, 109
3, 62732, Note_on_c, 1, 49, 0
3, 62754, Note_on_c, 1, 47, 103
3, 62785, Note_on_c, 1, 47, 0
3, 62817, Note_on_c, 1, 49, 120
3, 62852, Note_on_c, 1, 49, 0
3, 62936, Note_on_c, 1, 49, 94
3, 62976, Note_on_c, 1, 49, 0
3, 63052, Note_on_c, 1, 47, 98
3, 63099, Note_on_c, 1, 47, 0
3, 63114, Note_on_c, 1, 49, 111
3, 63158, Note_on_c, 1, 49, 0
3, 63175, Note_on_c, 1, 49, 98
3, 63230, Note_on_c, 1, 49, 0
3, 63232, Note_on_c, 1, 44, 98
3, 63294, Note_on_c, 1, 47, 105
3, 63295, Note_on_c, 1, 44, 0
3, 63339, Note_on_c, 1, 47, 0
3, 63365, Note_on_c, 1, 49, 113
3, 63416, Note_on_c, 1, 49, 0
3, 63535, Note_on_c, 1, 49, 113
3, 63564, Note_on_c, 1, 49, 0
3, 63598, Note_on_c, 1, 49, 111
3, 63628, Note_on_c, 1, 49, 0
3, 63657, Note_on_c, 1, 49, 109
3, 63692, Note_on_c, 1, 49, 0
3, 63714, Note_on_c, 1, 47, 103
3, 63745, Note_on_c, 1, 47, 0
3, 63777, Note_on_c, 1, 49, 120
3, 63812, Note_on_c, 1, 49, 0
3, 63896, Note_on_c, 1, 49, 94
3, 63936, Note_on_c, 1, 49, 0
3, 64012, Note_on_c, 1, 47, 98
3, 64059, Note_on_c, 1, 47, 0
3, 64074, Note_on_c, 1, 49, 111
3, 64118, Note_on_c, 1, 49, 0
3, 64135, Note_on_c, 1, 49, 98
3, 64190, Note_on_c, 1, 49, 0
3, 64192, Note_on_c, 1, 44, 98
3, 64254, Note_on_c, 1, 47, 105
3, 64255, Note_on_c, 1, 44, 0
3, 64299, Note_on_c, 1, 47, 0
3, 64325, Note_on_c, 1, 49, 113
3, 64376, Note_on_c, 1, 49, 0
3, 64495, Note_on_c, 1, 49, 113
3, 64524, Note_on_c, 1, 49, 0
3, 64558, Note_on_c, 1, 49, 111
3, 64588, Note_on_c, 1, 49, 0
3, 64617, Note_on_c, 1, 49, 109
3, 64652, Note_on_c, 1, 49, 0
3, 64674, Note_on_c, 1, 47, 103
3, 64705, Note_on_c, 1, 47, 0
3, 64737, Note_on_c, 1, 49, 120
3, 64772, Note_on_c, 1, 49, 0
3, 64856, Note_on_c, 1, 49, 94
3, 64896, Note_on_c, 1, 49, 0
3, 64972, Note_on_c, 1, 47, 98
3, 65019, Note_on_c, 1, 47, 0
3, 65034, Note_on_c, 1, 49, 111
3, 65078, Note_on_c, 1, 49, 0
3, 65095, Note_on_c, 1, 49, 98
3, 65150, Note_on_c, 1, 49, 0
3, 65152, Note_on_c, 1, 44, 98
3, 65214, Note_on_c, 1, 47, 105
3, 65215, Note_on_c, 1, 44, 0
3, 65259, Note_on_c, 1, 47, 0
3, 65285, Note_on_c, 1, 49, 113
3, 65336, Note_on_c, 1, 49, 0
3, 65455, Note_on_c, 1, 49, 113
3, 65484, Note_on_c, 1, 49, 0
3, 65518, Note_on_c, 1, 49, 111
3, 65548, Note_on_c, 1, 49, 0
3, 65577, Note_on_c, 1, 49, 109
3, 65612, Note_on_c, 1, 49, 0
3, 65634, Note_on_c, 1, 47, 103
3, 65665, Note_on_c, 1, 47, 0
3, 65697, Note_on_c, 1, 49, 120
3, 65732, Note_on_c, 1, 49, 0
3, 65816, Note_on_c, 1, 49, 94
3, 65856, Note_on_c, 1, 49, 0
3, 65932, Note_on_c, 1, 47, 98
3, 65979, Note_on_c, 1, 47, 0
3, 65994, Note_on_c, 1, 49, 111
3, 66038, Note_on_c, 1, 49, 0
3, 66055, Note_on_c, 1, 49, 98
3, 66110, Note_on_c, 1, 49, 0
3, 66112, Note_on_c, 1, 44, 98
3, 66174, Note_on_c, 1, 47, 105
3, 66175, Note_on_c, 1, 44, 0
3, 66219, Note_on_c, 1, 47, 0
3, 66219, End_track
4, 0, Start_track
4, 0, MIDI_port, 0
4, 0, Title_t, "E.Guitar"
4, 0, Program_c, 3, 26
4, 46201, Note_on_c, 3, 64, 64
4, 46201, Note_on_c, 3, 68, 64
4, 46203, Note_on_c, 3, 71, 64
4, 46274, Note_on_c, 3, 71, 0
4, 46274, Note_on_c, 3, 64, 0
4, 46277, Note_on_c, 3, 68, 0
4, 46288, Note_on_c, 3, 68, 64
4, 46290, Note_on_c, 3, 64, 64
4, 46290, Note_on_c, 3, 71, 64
4, 46295, Pitch_bend_c, 3, 4608
4, 46297, Pitch_bend_c, 3, 5248
4, 46300, Note_on_c, 3, 64, 0
4, 46300, Pitch_bend_c, 3, 6400
4, 46301, Note_on_c, 3, 71, 0
4, 46301, Note_on_c, 3, 68, 0
4, 46302, Pitch_bend_c, 3, 8192
4, 46304, Pitch_bend_c, 3, 8192
4, 46444, Note_on_c, 3, 66, 64
4, 46444, Note_on_c, 3, 70, 64
4, 46445, Note_on_c, 3, 63, 64
4, 46457, Note_on_c, 3, 70, 0
4, 46458, Note_on_c, 3, 63, 0
4, 46461, Note_on_c, 3, 66, 0
4, 46556, Note_on_c, 3, 68, 64
4, 46558, Note_on_c, 3, 59, 64
4, 46558, Note_on_c, 3, 61, 64
4, 46560, Note_on_c, 3, 64, 64
4, 46637, Pitch_bend_c, 3, 8192
4, 46639, Pitch_bend_c, 3, 8192
4, 46642, Pitch_bend_c, 3, 7424
4, 46644, Pitch_bend_c, 3, 6784
4, 46646, Pitch_bend_c, 3, 6272
4, 46648, Pitch_bend_c, 3, 5760
4, 46651, Pitch_bend_c, 3, 5248
4, 46653, Pitch_bend_c, 3, 4736
4, 46655, Pitch_bend_c, 3, 4352
4, 46658, Pitch_bend_c, 3, 3968
4, 46660, Pitch_bend_c, 3, 3584
4, 46662, Pitch_bend_c, 3, 3200
4, 46664, Pitch_bend_c, 3, 2944
4, 46667, Pitch_bend_c, 3, 2816
4, 46673, Pitch_bend_c, 3, 3456
4, 46676, Pitch_bend_c, 3, 4992
4, 46678, Pitch_bend_c, 3, 7296
4, 46680, Pitch_bend_c, 3, 8192
4, 46682, Pitch_bend_c, 3, 8192
4, 46727, Note_on_c, 3, 64, 0
4, 46727, Note_on_c, 3, 59, 0
4, 46729, Note_on_c, 3, 61, 0
4, 46732, Note_on_c, 3, 68, 0
4, 46805, Note_on_c, 3, 66, 64
4, 46805, Note_on_c, 3, 70, 64
4, 46807, Note_on_c, 3, 61, 64
4, 46902, Note_on_c, 3, 70, 0
4, 46903, Note_on_c, 3, 61, 0
4, 46903, Note_on_c, 3, 66, 0
4, 46920, Note_on_c, 3, 61, 64
4, 46922, Note_on_c, 3, 66, 64
4, 46922, Note_on_c, 3, 70, 64
4, 46929, Note_on_c, 3, 66, 0
4, 46930, Note_on_c, 3, 70, 0
4, 46930, Note_on_c, 3, 61, 0
4, 47165, Note_on_c, 3, 64, 64
4, 47165, Note_on_c, 3, 68, 64
4, 47165, Note_on_c, 3, 71, 64
4, 47166, Note_on_c, 3, 65, 64
4, 47169, Note_on_c, 3, 65, 0
4, 47240, Note_on_c, 3, 71, 0
4, 47243, Note_on_c, 3, 64, 0
4, 47244, Note_on_c, 3, 68, 0
4, 47255, Note_on_c, 3, 71, 64
4, 47255, Note_on_c, 3, 64, 64
4, 47256, Note_on_c, 3, 68, 64
4, 47266, Note_on_c, 3, 68, 0
4, 47268, Note_on_c, 3, 64, 0
4, 47268, Note_on_c, 3, 71, 0
4, 47330, Pitch_bend_c, 3, 8192
4, 47332, Pitch_bend_c, 3, 8064
4, 47334, Pitch_bend_c, 3, 7296
4, 47336, Pitch_bend_c, 3, 6784
4, 47339, Pitch_bend_c, 3, 6528
4, 47341, Pitch_bend_c, 3, 6272
4, 47343, Pitch_bend_c, 3, 5760
4, 47346, Pitch_bend_c, 3, 5504
4, 47348, Pitch_bend_c, 3, 5120
4, 47350, Pitch_bend_c, 3, 4992
4, 47352, Pitch_bend_c, 3, 4864
4, 47355, Pitch_bend_c, 3, 4608
4, 47357, Pitch_bend_c, 3, 4480
4, 47361, Pitch_bend_c, 3, 4352
4, 47368, Pitch_bend_c, 3, 4480
4, 47370, Pitch_bend_c, 3, 5248
4, 47373, Pitch_bend_c, 3, 6656
4, 47375, Pitch_bend_c, 3, 8192
4, 47377, Pitch_bend_c, 3, 8192
4, 47408, Note_on_c, 3, 63, 64
4, 47408, Note_on_c, 3, 66, 64
4, 47408, Note_on_c, 3, 70, 64
4, 47459, Pitch_bend_c, 3, 8192
4, 47461, Pitch_bend_c, 3, 7680
4, 47464, Pitch_bend_c, 3, 6656
4, 47465, Pitch_bend_c, 3, 6144
4, 47467, Note_on_c, 3, 66, 0
4, 47468, Pitch_bend_c, 3, 5504
4, 47470, Note_on_c, 3, 70, 0
4, 47470, Pitch_bend_c, 3, 4864
4, 47471, Note_on_c, 3, 63, 0
4, 47473, Pitch_bend_c, 3, 4480
4, 47475, Pitch_bend_c, 3, 4096
4, 47477, Pitch_bend_c, 3, 3712
4, 47479, Pitch_bend_c, 3, 3584
4, 47489, Pitch_bend_c, 3, 4352
4, 47490, Pitch_bend_c, 3, 5632
4, 47493, Pitch_bend_c, 3, 8064
4, 47495, Pitch_bend_c, 3, 8192
4, 47498, Pitch_bend_c, 3, 8192
4, 47526, Note_on_c, 3, 61, 64
4, 47526, Note_on_c, 3, 68, 64
4, 47528, Note_on_c, 3, 59, 64
4, 47529, Note_on_c, 3, 64, 64
4, 47622, Pitch_bend_c, 3, 8192
4, 47624, Pitch_bend_c, 3, 7936
4, 47626, Pitch_bend_c, 3, 7040
4, 47629, Pitch_bend_c, 3, 6528
4, 47631, Pitch_bend_c, 3, 6016
4, 47633, Pitch_bend_c, 3, 5376
4, 47635, Pitch_bend_c, 3, 4864
4, 47638, Pitch_bend_c, 3, 4224
4, 47640, Pitch_bend_c, 3, 3712
4, 47642, Pitch_bend_c, 3, 3328
4, 47644, Pitch_bend_c, 3, 3200
4, 47651, Pitch_bend_c, 3, 3584
4, 47654, Pitch_bend_c, 3, 4608
4, 47656, Pitch_bend_c, 3, 6400
4, 47658, Pitch_bend_c, 3, 8192
4, 47660, Pitch_bend_c, 3, 8192
4, 47718, Note_on_c, 3, 64, 0
4, 47718, Note_on_c, 3, 61, 0
4, 47720, Note_on_c, 3, 59, 0
4, 47725, Note_on_c, 3, 68, 0
4, 47757, Note_on_c, 3, 61, 64
4, 47757, Note_on_c, 3, 70, 64
4, 47760, Note_on_c, 3, 66, 64
4, 47874, Note_on_c, 3, 70, 0
4, 47876, Note_on_c, 3, 61, 0
4, 47879, Note_on_c, 3, 66, 0
4, 47886, Note_on_c, 3, 61, 64
4, 47887, Note_on_c, 3, 66, 64
4, 47889, Note_on_c, 3, 70, 64
4, 47898, Note_on_c, 3, 70, 0
4, 47898, Note_on_c, 3, 66, 0
4, 47900, Note_on_c, 3, 61, 0
4, 48121, Note_on_c, 3, 64, 64
4, 48121, Note_on_c, 3, 68, 64
4, 48123, Note_on_c, 3, 71, 64
4, 48194, Note_on_c, 3, 71, 0
4, 48194, Note_on_c, 3, 64, 0
4, 48197, Note_on_c, 3, 68, 0
4, 48199, Pitch_bend_c, 3, 8192
4, 48201, Pitch_bend_c, 3, 7168
4, 48204, Pitch_bend_c, 3, 6400
4, 48206, Pitch_bend_c, 3, 5760
4, 48208, Pitch_bend_c, 3, 5120
4, 48208, Note_on_c, 3, 68, 64
4, 48210, Pitch_bend_c, 3, 4736
4, 48210, Note_on_c, 3, 64, 64
4, 48210, Note_on_c, 3, 71, 64
4, 48215, Pitch_bend_c, 3, 4608
4, 48217, Pitch_bend_c, 3, 5248
4, 48220, Note_on_c, 3, 64, 0
4, 48220, Pitch_bend_c, 3, 6400
4, 48221, Note_on_c, 3, 71, 0
4, 48221, Note_on_c, 3, 68, 0
4, 48222, Pitch_bend_c, 3, 8192
4, 48224, Pitch_bend_c, 3, 8192
4, 48364, Note_on_c, 3, 66, 64
4, 48364, Note_on_c, 3, 70, 64
4, 48365, Note_on_c, 3, 63, 64
4, 48377, Note_on_c, 3, 70, 0
4, 48378, Note_on_c, 3, 63, 0
4, 48381, Note_on_c, 3, 66, 0
4, 48476, Note_on_c, 3, 68, 64
4, 48478, Note_on_c, 3, 59, 64
4, 48478, Note_on_c, 3, 61, 64
4, 48480, Note_on_c, 3, 64, 64
4, 48557, Pitch_bend_c, 3, 8192
4, 48559, Pitch_bend_c, 3, 8192
4, 48562, Pitch_bend_c, 3, 7424
4, 48564, Pitch_bend_c, 3, 6784
4, 48566, Pitch_bend_c, 3, 6272
4, 48568, Pitch_bend_c, 3, 5760
4, 48571, Pitch_bend_c, 3, 5248
4, 48573, Pitch_bend_c, 3, 4736
4, 48575, Pitch_bend_c, 3, 4352
4, 48578, Pitch_bend_c, 3, 3968
4, 48580, Pitch_bend_c, 3, 3584
4, 48582, Pitch_bend_c, 3, 3200
4, 48584, Pitch_bend_c, 3, 2944
4, 48587, Pitch_bend_c, 3, 2816
4, 48593, Pitch_bend_c, 3, 3456
4, 48596, Pitch_bend_c, 3, 4992
4, 48598, Pitch_bend_c, 3, 7296
4, 48600, Pitch_bend_c, 3, 8192
4, 48602, Pitch_bend_c, 3, 8192
4, 48647, Note_on_c, 3, 64, 0
4, 48647, Note_on_c, 3, 59, 0
4, 48649, Note_on_c, 3, 61, 0
4, 48652, Note_on_c, 3, 68, 0
4, 48725, Note_on_c, 3, 66, 64
4, 48725, Note_on_c, 3, 70, 64
4, 48727, Note_on_c, 3, 61, 64
4, 48822, Note_on_c, 3, 70, 0
4, 48823, Note_on_c, 3, 61, 0
4, 48823, Note_on_c, 3, 66, 0
4, 48840, Note_on_c, 3, 61, 64
4, 48842, Note_on_c, 3, 66, 64
4, 48842, Note_on_c, 3, 70, 64
4, 48849, Note_on_c, 3, 66, 0
4, 48850, Note_on_c, 3, 70, 0
4, 48850, Note_on_c, 3, 61, 0
4, 49085, Note_on_c, 3, 64, 64
4, 49085, Note_on_c, 3, 68, 64
4, 49085, Note_on_c, 3, 71, 64
4, 49086, Note_on_c, 3, 65, 64
4, 49089, Note_on_c, 3, 65, 0
4, 49160, Note_on_c, 3, 71, 0
4, 49163, Note_on_c, 3, 64, 0
4, 49164, Note_on_c, 3, 68, 0
4, 49175, Note_on_c, 3, 71, 64
4, 49175, Note_on_c, 3, 64, 64
4, 49176, Note_on_c, 3, 68, 64
4, 49186, Note_on_c, 3, 68, 0
4, 49188, Note_on_c, 3, 64, 0
4, 49188, Note_on_c, 3, 71, 0
4, 49250, Pitch_bend_c, 3, 8192
4, 49252, Pitch_bend_c, 3, 8064
4, 49254, Pitch_bend_c, 3, 7296
4, 49256, Pitch_bend_c, 3, 6784
4, 49259, Pitch_bend_c, 3, 6528
4, 49261, Pitch_bend_c, 3, 6272
4, 49263, Pitch_bend_c, 3, 5760
4, 49266, Pitch_bend_c, 3, 5504
4, 49268, Pitch_bend_c, 3, 5120
4, 49270, Pitch_bend_c, 3, 4992
4, 49272, Pitch_bend_c, 3, 4864
4, 49275, Pitch_bend_c, 3, 4608
4, 49277, Pitch_bend_c, 3, 4480
4, 49281, Pitch_bend_c, 3, 4352
4, 49288, Pitch_bend_c, 3, 4480
4, 49290, Pitch_bend_c, 3, 5248
4, 49293, Pitch_bend_c, 3, 6656
4, 49295, Pitch_bend_c, 3, 8192
4, 49297, Pitch_bend_c, 3, 8192
4, 49328, Note_on_c, 3, 63, 64
4, 49328, Note_on_c, 3, 66, 64
4, 49328, Note_on_c, 3, 70, 64
4, 49379, Pitch_bend_c, 3, 8192
4, 49381, Pitch_bend_c, 3, 7680
4, 49384, Pitch_bend_c, 3, 6656
4, 49385, Pitch_bend_c, 3, 6144
4, 49387, Note_on_c, 3, 66, 0
4, 49388, Pitch_bend_c, 3, 5504
4, 49390, Note_on_c, 3, 70, 0
4, 49390, Pitch_bend_c, 3, 4864
4, 49391, Note_on_c, 3, 63, 0
4, 49393, Pitch_bend_c, 3, 4480
4, 49395, Pitch_bend_c, 3, 4096
4, 49397, Pitch_bend_c, 3, 3712
4, 49399, Pitch_bend_c, 3, 3584
4, 49409, Pitch_bend_c, 3, 4352
4, 49410, Pitch_bend_c, 3, 5632
4, 49413, Pitch_bend_c, 3, 8064
4, 49415, Pitch_bend_c, 3, 8192
4, 49418, Pitch_bend_c, 3, 8192
4, 49446, Note_on_c, 3, 61, 64
4, 49446, Note_on_c, 3, 68, 64
4, 49448, Note_on_c, 3, 59, 64
4, 49449, Note_on_c, 3, 64, 64
4, 49542, Pitch_bend_c, 3, 8192
4, 49544, Pitch_bend_c, 3, 7936
4, 49546, Pitch_bend_c, 3, 7040
4, 49549, Pitch_bend_c, 3, 6528
4, 49551, Pitch_bend_c, 3, 6016
4, 49553, Pitch_bend_c, 3, 5376
4, 49555, Pitch_bend_c, 3, 4864
4, 49558, Pitch_bend_c, 3, 4224
4, 49560, Pitch_bend_c, 3, 3712
4, 49562, Pitch_bend_c, 3, 3328
4, 49564, Pitch_bend_c, 3, 3200
4, 49571, Pitch_bend_c, 3, 3584
4, 49574, Pitch_bend_c, 3, 4608
4, 49576, Pitch_bend_c, 3, 6400
4, 49578, Pitch_bend_c, 3, 8192
4, 49580, Pitch_bend_c, 3, 8192
4, 49638, Note_on_c, 3, 64, 0
4, 49638, Note_on_c, 3, 61, 0
4, 49640, Note_on_c, 3, 59, 0
4, 49645, Note_on_c, 3, 68, 0
4, 49677, Note_on_c, 3, 61, 64
4, 49677, Note_on_c, 3, 70, 64
4, 49680, Note_on_c, 3, 66, 64
4, 49794, Note_on_c, 3, 70, 0
4, 49796, Note_on_c, 3, 61, 0
4, 49799, Note_on_c, 3, 66, 0
4, 49806, Note_on_c, 3, 61, 64
4, 49807, Note_on_c, 3, 66, 64
4, 49809, Note_on_c, 3, 70, 64
4, 49818, Note_on_c, 3, 70, 0
4, 49818, Note_on_c, 3, 66, 0
4, 49820, Note_on_c, 3, 61, 0
4, 49820, End_track
5, 0, Start_track
5, 0, MIDI_port, 0
5, 0, Title_t, "Dist.Guitar"
5, 0, Program_c, 5, 30
5, 49932, Note_on_c, 5, 68, 64
5, 49957, Note_on_c, 5, 68, 0
5, 49994, Note_on_c, 5, 66, 64
5, 50044, Pitch_bend_c, 5, 8192
5, 50046, Pitch_bend_c, 5, 7040
5, 50049, Pitch_bend_c, 5, 6400
5, 50051, Pitch_bend_c, 5, 5888
5, 50053, Pitch_bend_c, 5, 5504
5, 50055, Pitch_bend_c, 5, 5120
5, 50058, Pitch_bend_c, 5, 4864
5, 50060, Pitch_bend_c, 5, 4608
5, 50062, Pitch_bend_c, 5, 4480
5, 50065, Pitch_bend_c, 5, 4224
5, 50066, Pitch_bend_c, 5, 4096
5, 50076, Pitch_bend_c, 5, 4224
5, 50078, Pitch_bend_c, 5, 4864
5, 50080, Pitch_bend_c, 5, 6144
5, 50082, Pitch_bend_c, 5, 8192
5, 50084, Pitch_bend_c, 5, 8192
5, 50132, Pitch_bend_c, 5, 8192
5, 50134, Pitch_bend_c, 5, 7168
5, 50136, Pitch_bend_c, 5, 6528
5, 50139, Pitch_bend_c, 5, 6144
5, 50141, Pitch_bend_c, 5, 5632
5, 50143, Pitch_bend_c, 5, 5248
5, 50146, Pitch_bend_c, 5, 4992
5, 50155, Pitch_bend_c, 5, 5760
5, 50157, Pitch_bend_c, 5, 7040
5, 50159, Pitch_bend_c, 5, 8192
5, 50161, Pitch_bend_c, 5, 8192
5, 50230, Pitch_bend_c, 5, 8192
5, 50232, Pitch_bend_c, 5, 7040
5, 50234, Pitch_bend_c, 5, 6144
5, 50236, Pitch_bend_c, 5, 5248
5, 50239, Pitch_bend_c, 5, 4736
5, 50241, Pitch_bend_c, 5, 4224
5, 50243, Pitch_bend_c, 5, 3584
5, 50245, Pitch_bend_c, 5, 2816
5, 50248, Pitch_bend_c, 5, 2304
5, 50250, Pitch_bend_c, 5, 1792
5, 50252, Pitch_bend_c, 5, 1664
5, 50259, Pitch_bend_c, 5, 2688
5, 50261, Pitch_bend_c, 5, 4224
5, 50264, Pitch_bend_c, 5, 6656
5, 50266, Pitch_bend_c, 5, 8192
5, 50268, Pitch_bend_c, 5, 8192
5, 50332, Note_on_c, 5, 66, 0
5, 50426, Note_on_c, 5, 61, 64
5, 50458, Pitch_bend_c, 5, 8192
5, 50460, Pitch_bend_c, 5, 5888
5, 50463, Pitch_bend_c, 5, 3584
5, 50465, Pitch_bend_c, 5, 896
5, 50467, Pitch_bend_c, 5, 0
5, 50470, Pitch_bend_c, 5, 0
5, 50497, Pitch_bend_c, 5, 0
5, 50499, Pitch_bend_c, 5, 1792
5, 50501, Pitch_bend_c, 5, 4096
5, 50504, Pitch_bend_c, 5, 6656
5, 50506, Pitch_bend_c, 5, 8192
5, 50508, Pitch_bend_c, 5, 8192
5, 50513, Note_on_c, 5, 61, 64
5, 50547, Pitch_bend_c, 5, 8192
5, 50549, Pitch_bend_c, 5, 6656
5, 50550, Note_on_c, 5, 61, 0
5, 50551, Pitch_bend_c, 5, 4736
5, 50554, Pitch_bend_c, 5, 2688
5, 50556, Pitch_bend_c, 5, 1152
5, 50558, Pitch_bend_c, 5, 0
5, 50560, Pitch_bend_c, 5, 0
5, 50569, Pitch_bend_c, 5, 128
5, 50572, Pitch_bend_c, 5, 2048
5, 50574, Pitch_bend_c, 5, 4608
5, 50576, Pitch_bend_c, 5, 7552
5, 50578, Pitch_bend_c, 5, 8192
5, 50583, Pitch_bend_c, 5, 8192
5, 50612, Pitch_bend_c, 5, 7936
5, 50615, Pitch_bend_c, 5, 6272
5, 50617, Pitch_bend_c, 5, 4736
5, 50619, Pitch_bend_c, 5, 3584
5, 50622, Pitch_bend_c, 5, 2816
5, 50624, Pitch_bend_c, 5, 2432
5, 50631, Pitch_bend_c, 5, 3456
5, 50632, Pitch_bend_c, 5, 5120
5, 50635, Pitch_bend_c, 5, 7808
5, 50637, Pitch_bend_c, 5, 8192
5, 50642, Pitch_bend_c, 5, 8192
5, 50684, Pitch_bend_c, 5, 7040
5, 50687, Pitch_bend_c, 5, 5376
5, 50689, Pitch_bend_c, 5, 3840
5, 50691, Pitch_bend_c, 5, 2304
5, 50694, Pitch_bend_c, 5, 1152
5, 50696, Pitch_bend_c, 5, 0
5, 50698, Pitch_bend_c, 5, 0
5, 50703, Pitch_bend_c, 5, 896
5, 50705, Pitch_bend_c, 5, 2560
5, 50707, Pitch_bend_c, 5, 5376
5, 50709, Pitch_bend_c, 5, 8192
5, 50712, Pitch_bend_c, 5, 8192
5, 50766, Pitch_bend_c, 5, 8192
5, 50768, Pitch_bend_c, 5, 7552
5, 50771, Pitch_bend_c, 5, 6400
5, 50773, Pitch_bend_c, 5, 5504
5, 50775, Pitch_bend_c, 5, 4736
5, 50778, Pitch_bend_c, 5, 4224
5, 50780, Pitch_bend_c, 5, 3840
5, 50782, Pitch_bend_c, 5, 3712
5, 50789, Pitch_bend_c, 5, 4096
5, 50791, Pitch_bend_c, 5, 4608
5, 50793, Pitch_bend_c, 5, 5504
5, 50796, Pitch_bend_c, 5, 7424
5, 50798, Pitch_bend_c, 5, 8192
5, 50803, Pitch_bend_c, 5, 8192
5, 50815, Note_on_c, 5, 61, 0
5, 50927, Note_on_c, 5, 68, 64
5, 50986, Pitch_bend_c, 5, 8192
5, 50988, Pitch_bend_c, 5, 6656
5, 50990, Pitch_bend_c, 5, 5504
5, 50993, Pitch_bend_c, 5, 4736
5, 50995, Pitch_bend_c, 5, 4352
5, 50997, Pitch_bend_c, 5, 4224
5, 51004, Pitch_bend_c, 5, 4608
5, 51006, Pitch_bend_c, 5, 5632
5, 51008, Pitch_bend_c, 5, 7296
5, 51009, Note_on_c, 5, 68, 0
5, 51011, Pitch_bend_c, 5, 8192
5, 51013, Pitch_bend_c, 5, 8192
5, 51036, Note_on_c, 5, 68, 64
5, 51070, Pitch_bend_c, 5, 8192
5, 51072, Pitch_bend_c, 5, 7040
5, 51074, Pitch_bend_c, 5, 5632
5, 51077, Pitch_bend_c, 5, 4480
5, 51079, Pitch_bend_c, 5, 3584
5, 51081, Pitch_bend_c, 5, 2944
5, 51083, Pitch_bend_c, 5, 2304
5, 51086, Pitch_bend_c, 5, 1920
5, 51088, Pitch_bend_c, 5, 1792
5, 51091, Note_on_c, 5, 66, 64
5, 51092, Pitch_bend_c, 5, 1920
5, 51095, Pitch_bend_c, 5, 2688
5, 51097, Pitch_bend_c, 5, 3840
5, 51099, Pitch_bend_c, 5, 5376
5, 51101, Pitch_bend_c, 5, 7808
5, 51102, Note_on_c, 5, 68, 0
5, 51104, Pitch_bend_c, 5, 8192
5, 51106, Pitch_bend_c, 5, 8192
5, 51156, Pitch_bend_c, 5, 7552
5, 51158, Pitch_bend_c, 5, 5888
5, 51161, Pitch_bend_c, 5, 4352
5, 51163, Pitch_bend_c, 5, 3072
5, 51165, Pitch_bend_c, 5, 2176
5, 51167, Pitch_bend_c, 5, 1408
5, 51170, Pitch_bend_c, 5, 1024
5, 51172, Pitch_bend_c, 5, 384
5, 51179, Pitch_bend_c, 5, 640
5, 51181, Pitch_bend_c, 5, 1408
5, 51183, Pitch_bend_c, 5, 2304
5, 51186, Pitch_bend_c, 5, 3584
5, 51188, Pitch_bend_c, 5, 5504
5, 51190, Pitch_bend_c, 5, 7936
5, 51192, Pitch_bend_c, 5, 8192
5, 51195, Pitch_bend_c, 5, 8192
5, 51408, Note_on_c, 5, 66, 0
5, 51438, Note_on_c, 5, 61, 64
5, 51459, Pitch_bend_c, 5, 7936
5, 51462, Pitch_bend_c, 5, 5760
5, 51464, Pitch_bend_c, 5, 3840
5, 51466, Pitch_bend_c, 5, 2048
5, 51469, Pitch_bend_c, 5, 0
5, 51471, Pitch_bend_c, 5, 0
5, 51496, Pitch_bend_c, 5, 1536
5, 51498, Pitch_bend_c, 5, 3840
5, 51500, Pitch_bend_c, 5, 6528
5, 51502, Pitch_bend_c, 5, 8192
5, 51505, Pitch_bend_c, 5, 8192
5, 51534, Pitch_bend_c, 5, 7424
5, 51536, Pitch_bend_c, 5, 5632
5, 51538, Pitch_bend_c, 5, 3840
5, 51540, Pitch_bend_c, 5, 2304
5, 51543, Pitch_bend_c, 5, 1280
5, 51545, Pitch_bend_c, 5, 256
5, 51547, Pitch_bend_c, 5, 0
5, 51552, Pitch_bend_c, 5, 0
5, 51554, Pitch_bend_c, 5, 1408
5, 51556, Pitch_bend_c, 5, 2688
5, 51559, Pitch_bend_c, 5, 4736
5, 51561, Pitch_bend_c, 5, 7424
5, 51563, Pitch_bend_c, 5, 8192
5, 51565, Pitch_bend_c, 5, 8192
5, 51600, Pitch_bend_c, 5, 6656
5, 51602, Pitch_bend_c, 5, 4352
5, 51604, Pitch_bend_c, 5, 2304
5, 51606, Pitch_bend_c, 5, 768
5, 51609, Pitch_bend_c, 5, 0
5, 51611, Pitch_bend_c, 5, 0
5, 51620, Pitch_bend_c, 5, 0
5, 51622, Pitch_bend_c, 5, 1408
5, 51624, Pitch_bend_c, 5, 2816
5, 51627, Pitch_bend_c, 5, 4736
5, 51629, Pitch_bend_c, 5, 7040
5, 51631, Pitch_bend_c, 5, 8192
5, 51634, Pitch_bend_c, 5, 8192
5, 51671, Note_on_c, 5, 61, 0
5, 51800, Pitch_bend_c, 5, 8192
5, 51802, Pitch_bend_c, 5, 6272
5, 51805, Pitch_bend_c, 5, 4608
5, 51807, Pitch_bend_c, 5, 2944
5, 51809, Pitch_bend_c, 5, 1536
5, 51811, Pitch_bend_c, 5, 0
5, 51814, Pitch_bend_c, 5, 0
5, 51818, Pitch_bend_c, 5, 0
5, 51823, Pitch_bend_c, 5, 0
5, 51825, Pitch_bend_c, 5, 1408
5, 51827, Pitch_bend_c, 5, 3200
5, 51830, Pitch_bend_c, 5, 5632
5, 51832, Pitch_bend_c, 5, 8192
5, 51834, Pitch_bend_c, 5, 8192
5, 51842, Note_on_c, 5, 61, 64
5, 51884, Pitch_bend_c, 5, 8192
5, 51886, Pitch_bend_c, 5, 6272
5, 51889, Pitch_bend_c, 5, 3712
5, 51891, Pitch_bend_c, 5, 1280
5, 51893, Pitch_bend_c, 5, 0
5, 51895, Pitch_bend_c, 5, 0
5, 51907, Pitch_bend_c, 5, 0
5, 51909, Pitch_bend_c, 5, 1792
5, 51911, Pitch_bend_c, 5, 4480
5, 51914, Pitch_bend_c, 5, 7552
5, 51915, Note_on_c, 5, 61, 0
5, 51915, Note_on_c, 5, 68, 64
5, 51916, Pitch_bend_c, 5, 8192
5, 51918, Pitch_bend_c, 5, 8192
5, 51943, Note_on_c, 5, 68, 0
5, 51954, Note_on_c, 5, 71, 64
5, 51975, Note_on_c, 5, 71, 0
5, 51995, Note_on_c, 5, 73, 64
5, 52048, Note_on_c, 5, 73, 0
5, 52063, Note_on_c, 5, 71, 64
5, 52095, Note_on_c, 5, 71, 0
5, 52104, Note_on_c, 5, 73, 64
5, 52152, Pitch_bend_c, 5, 7936
5, 52154, Pitch_bend_c, 5, 6016
5, 52157, Pitch_bend_c, 5, 4352
5, 52159, Pitch_bend_c, 5, 2560
5, 52160, Note_on_c, 5, 68, 64
5, 52161, Pitch_bend_c, 5, 512
5, 52163, Pitch_bend_c, 5, 0
5, 52166, Pitch_bend_c, 5, 0
5, 52179, Pitch_bend_c, 5, 1280
5, 52182, Pitch_bend_c, 5, 3840
5, 52184, Pitch_bend_c, 5, 7040
5, 52186, Pitch_bend_c, 5, 8192
5, 52188, Pitch_bend_c, 5, 8192
5, 52244, Note_on_c, 5, 68, 0
5, 52258, Pitch_bend_c, 5, 7680
5, 52260, Pitch_bend_c, 5, 6016
5, 52263, Pitch_bend_c, 5, 4736
5, 52265, Pitch_bend_c, 5, 3968
5, 52267, Pitch_bend_c, 5, 3456
5, 52269, Pitch_bend_c, 5, 3328
5, 52274, Pitch_bend_c, 5, 3840
5, 52276, Pitch_bend_c, 5, 5120
5, 52278, Pitch_bend_c, 5, 6912
5, 52281, Pitch_bend_c, 5, 8192
5, 52283, Pitch_bend_c, 5, 8192
5, 52418, Note_on_c, 5, 73, 0
5, 52865, Note_on_c, 5, 61, 64
5, 52894, Note_on_c, 5, 61, 0
5, 52925, Note_on_c, 5, 68, 64
5, 52955, Note_on_c, 5, 68, 0
5, 52985, Note_on_c, 5, 73, 64
5, 53017, Note_on_c, 5, 73, 0
5, 53082, Note_on_c, 5, 78, 64
5, 53155, Pitch_bend_c, 5, 8192
5, 53157, Pitch_bend_c, 5, 7040
5, 53159, Pitch_bend_c, 5, 6144
5, 53162, Pitch_bend_c, 5, 5120
5, 53164, Pitch_bend_c, 5, 4224
5, 53166, Pitch_bend_c, 5, 3456
5, 53168, Pitch_bend_c, 5, 2816
5, 53171, Pitch_bend_c, 5, 2432
5, 53173, Pitch_bend_c, 5, 2176
5, 53175, Pitch_bend_c, 5, 2048
5, 53184, Pitch_bend_c, 5, 2688
5, 53187, Pitch_bend_c, 5, 3840
5, 53189, Pitch_bend_c, 5, 5504
5, 53191, Pitch_bend_c, 5, 7936
5, 53193, Pitch_bend_c, 5, 8192
5, 53196, Pitch_bend_c, 5, 8192
5, 53229, Note_on_c, 5, 78, 0
5, 53256, Note_on_c, 5, 80, 64
5, 53300, Pitch_bend_c, 5, 8192
5, 53302, Pitch_bend_c, 5, 6784
5, 53304, Pitch_bend_c, 5, 5888
5, 53306, Pitch_bend_c, 5, 4992
5, 53309, Pitch_bend_c, 5, 4096
5, 53311, Pitch_bend_c, 5, 3328
5, 53313, Pitch_bend_c, 5, 2688
5, 53315, Pitch_bend_c, 5, 2176
5, 53317, Pitch_bend_c, 5, 1920
5, 53324, Pitch_bend_c, 5, 2304
5, 53327, Pitch_bend_c, 5, 3712
5, 53329, Pitch_bend_c, 5, 6144
5, 53331, Pitch_bend_c, 5, 8192
5, 53333, Pitch_bend_c, 5, 8192
5, 53354, Note_on_c, 5, 78, 64
5, 53361, Note_on_c, 5, 80, 0
5, 53429, Pitch_bend_c, 5, 7936
5, 53431, Pitch_bend_c, 5, 6272
5, 53433, Pitch_bend_c, 5, 5120
5, 53436, Pitch_bend_c, 5, 3968
5, 53438, Pitch_bend_c, 5, 2944
5, 53440, Pitch_bend_c, 5, 2176
5, 53442, Pitch_bend_c, 5, 1664
5, 53445, Pitch_bend_c, 5, 1536
5, 53447, Pitch_bend_c, 5, 1408
5, 53449, Pitch_bend_c, 5, 1536
5, 53451, Pitch_bend_c, 5, 2304
5, 53454, Pitch_bend_c, 5, 3968
5, 53456, Pitch_bend_c, 5, 6272
5, 53458, Pitch_bend_c, 5, 8192
5, 53461, Pitch_bend_c, 5, 8192
5, 53484, Note_on_c, 5, 78, 0
5, 53484, End_track
6, 0, Start_track
6, 0, MIDI_port, 0
6, 0, Title_t, "Melody"
6, 0, Program_c, 6, 80
6, 24840, Note_on_c, 6, 83, 64
6, 24877, Note_on_c, 6, 83, 0
6, 24900, Note_on_c, 6, 83, 64
6, 24953, Note_on_c, 6, 80, 64
6, 24960, Note_on_c, 6, 83, 0
6, 24968, Pitch_bend_c, 6, 7040
6, 24970, Pitch_bend_c, 6, 5760
6, 24973, Pitch_bend_c, 6, 4480
6, 24975, Pitch_bend_c, 6, 3456
6, 24977, Pitch_bend_c, 6, 2432
6, 24980, Pitch_bend_c, 6, 1664
6, 24982, Pitch_bend_c, 6, 896
6, 24984, Pitch_bend_c, 6, 128
6, 24991, Pitch_bend_c, 6, 384
6, 24993, Pitch_bend_c, 6, 1536
6, 24995, Pitch_bend_c, 6, 3072
6, 24998, Pitch_bend_c, 6, 5504
6, 25000, Pitch_bend_c, 6, 8192
6, 25002, Pitch_bend_c, 6, 8192
6, 25078, Note_on_c, 6, 80, 0
6, 25078, Note_on_c, 6, 78, 64
6, 25125, Note_on_c, 6, 78, 0
6, 25143, Note_on_c, 6, 76, 64
6, 25173, Note_on_c, 6, 76, 0
6, 25199, Note_on_c, 6, 76, 64
6, 25227, Note_on_c, 6, 76, 0
6, 25254, Note_on_c, 6, 76, 64
6, 25302, Note_on_c, 6, 76, 0
6, 25320, Note_on_c, 6, 78, 64
6, 25363, Note_on_c, 6, 78, 0
6, 25380, Note_on_c, 6, 80, 64
6, 25447, Pitch_bend_c, 6, 8192
6, 25449, Pitch_bend_c, 6, 7552
6, 25451, Pitch_bend_c, 6, 6784
6, 25453, Pitch_bend_c, 6, 6144
6, 25456, Pitch_bend_c, 6, 5760
6, 25458, Pitch_bend_c, 6, 5248
6, 25460, Pitch_bend_c, 6, 4992
6, 25469, Pitch_bend_c, 6, 5760
6, 25472, Pitch_bend_c, 6, 7168
6, 25474, Pitch_bend_c, 6, 8192
6, 25476, Pitch_bend_c, 6, 8192
6, 25924, Note_on_c, 6, 80, 0
6, 25924, Note_on_c, 6, 78, 64
6, 26195, Note_on_c, 6, 78, 0
6, 26209, Note_on_c, 6, 75, 64
6, 26259, Note_on_c, 6, 75, 0
6, 26282, Note_on_c, 6, 76, 64
6, 26307, Note_on_c, 6, 76, 0
6, 26325, Note_on_c, 6, 75, 64
6, 26347, Note_on_c, 6, 75, 0
6, 26364, Note_on_c, 6, 76, 64
6, 26385, Note_on_c, 6, 76, 0
6, 26407, Note_on_c, 6, 75, 64
6, 26452, Note_on_c, 6, 75, 0
6, 26459, Note_on_c, 6, 71, 64
6, 26707, Note_on_c, 6, 71, 0
6, 26755, Note_on_c, 6, 83, 64
6, 26792, Note_on_c, 6, 83, 0
6, 26808, Note_on_c, 6, 83, 64
6, 26849, Pitch_bend_c, 6, 8192
6, 26851, Pitch_bend_c, 6, 6656
6, 26854, Pitch_bend_c, 6, 5504
6, 26856, Pitch_bend_c, 6, 4480
6, 26858, Pitch_bend_c, 6, 3712
6, 26860, Pitch_bend_c, 6, 3328
6, 26863, Pitch_bend_c, 6, 3072
6, 26867, Pitch_bend_c, 6, 3712
6, 26869, Pitch_bend_c, 6, 4992
6, 26872, Pitch_bend_c, 6, 7680
6, 26874, Pitch_bend_c, 6, 8192
6, 26876, Pitch_bend_c, 6, 8192
6, 26880, Note_on_c, 6, 80, 64
6, 26893, Note_on_c, 6, 83, 0
6, 26995, Note_on_c, 6, 80, 0
6, 27000, Note_on_c, 6, 78, 64
6, 27051, Note_on_c, 6, 78, 0
6, 27062, Note_on_c, 6, 76, 64
6, 27102, Note_on_c, 6, 76, 0
6, 27122, Note_on_c, 6, 76, 64
6, 27158, Note_on_c, 6, 76, 0
6, 27181, Note_on_c, 6, 76, 64
6, 27219, Note_on_c, 6, 76, 0
6, 27242, Note_on_c, 6, 78, 64
6, 27277, Note_on_c, 6, 78, 0
6, 27297, Note_on_c, 6, 80, 64
6, 27361, Pitch_bend_c, 6, 7808
6, 27364, Pitch_bend_c, 6, 6656
6, 27366, Pitch_bend_c, 6, 5888
6, 27368, Pitch_bend_c, 6, 5376
6, 27371, Pitch_bend_c, 6, 4864
6, 27373, Pitch_bend_c, 6, 4608
6, 27380, Pitch_bend_c, 6, 4864
6, 27382, Pitch_bend_c, 6, 5632
6, 27384, Pitch_bend_c, 6, 7552
6, 27386, Pitch_bend_c, 6, 8192
6, 27389, Pitch_bend_c, 6, 8192
6, 27712, Note_on_c, 6, 80, 0
6, 27717, Note_on_c, 6, 78, 64
6, 28013, Note_on_c, 6, 78, 0
6, 28023, Note_on_c, 6, 75, 64
6, 28111, Note_on_c, 6, 75, 0
6, 28118, Note_on_c, 6, 76, 64
6, 28148, Note_on_c, 6, 75, 64
6, 28149, Note_on_c, 6, 76, 0
6, 28181, Note_on_c, 6, 75, 0
6, 28186, Note_on_c, 6, 76, 64
6, 28226, Note_on_c, 6, 76, 0
6, 28233, Note_on_c, 6, 75, 64
6, 28274, Note_on_c, 6, 75, 0
6, 28274, Note_on_c, 6, 71, 64
6, 28725, Note_on_c, 6, 71, 0
6, 29041, Note_on_c, 6, 78, 64
6, 29056, Note_on_c, 6, 78, 0
6, 29072, Note_on_c, 6, 78, 64
6, 29088, Note_on_c, 6, 78, 0
6, 29104, Note_on_c, 6, 78, 64
6, 29120, Note_on_c, 6, 78, 0
6, 29135, Note_on_c, 6, 78, 64
6, 29150, Note_on_c, 6, 78, 0
6, 29168, Note_on_c, 6, 78, 64
6, 29182, Note_on_c, 6, 78, 0
6, 29224, Note_on_c, 6, 78, 64
6, 29242, Note_on_c, 6, 78, 0
6, 29282, Note_on_c, 6, 80, 64
6, 29343, Pitch_bend_c, 6, 7040
6, 29346, Pitch_bend_c, 6, 5504
6, 29348, Pitch_bend_c, 6, 3840
6, 29350, Pitch_bend_c, 6, 2176
6, 29352, Pitch_bend_c, 6, 512
6, 29355, Pitch_bend_c, 6, 0
6, 29357, Pitch_bend_c, 6, 0
6, 29366, Pitch_bend_c, 6, 0
6, 29368, Pitch_bend_c, 6, 1536
6, 29371, Pitch_bend_c, 6, 4352
6, 29373, Pitch_bend_c, 6, 7808
6, 29375, Pitch_bend_c, 6, 8192
6, 29380, Pitch_bend_c, 6, 8192
6, 29404, Note_on_c, 6, 78, 64
6, 29407, Note_on_c, 6, 80, 0
6, 29421, Note_on_c, 6, 78, 0
6, 29463, Note_on_c, 6, 75, 64
6, 29473, Note_on_c, 6, 75, 0
6, 29523, Note_on_c, 6, 71, 64
6, 29747, Note_on_c, 6, 71, 0
6, 29756, Note_on_c, 6, 73, 64
6, 29773, Note_on_c, 6, 73, 0
6, 29809, Note_on_c, 6, 73, 64
6, 29823, Note_on_c, 6, 73, 0
6, 29840, Note_on_c, 6, 73, 64
6, 29857, Note_on_c, 6, 73, 0
6, 29909, Note_on_c, 6, 73, 64
6, 29933, Note_on_c, 6, 73, 0
6, 29942, Note_on_c, 6, 75, 64
6, 29943, Note_on_c, 6, 76, 64
6, 29950, Note_on_c, 6, 75, 0
6, 29994, Note_on_c, 6, 76, 0
6, 30002, Note_on_c, 6, 73, 64
6, 30607, Note_on_c, 6, 83, 64
6, 30619, Note_on_c, 6, 73, 0
6, 30643, Note_on_c, 6, 83, 0
6, 30660, Note_on_c, 6, 83, 64
6, 30696, Pitch_bend_c, 6, 8192
6, 30698, Pitch_bend_c, 6, 5760
6, 30700, Pitch_bend_c, 6, 3456
6, 30702, Pitch_bend_c, 6, 1536
6, 30705, Pitch_bend_c, 6, 0
6, 30707, Pitch_bend_c, 6, 0
6, 30712, Pitch_bend_c, 6, 384
6, 30714, Pitch_bend_c, 6, 2176
6, 30716, Pitch_bend_c, 6, 4736
6, 30718, Pitch_bend_c, 6, 7808
6, 30720, Pitch_bend_c, 6, 8192
6, 30723, Pitch_bend_c, 6, 8192
6, 30727, Note_on_c, 6, 80, 64
6, 30734, Note_on_c, 6, 83, 0
6, 30830, Note_on_c, 6, 80, 0
6, 30833, Note_on_c, 6, 78, 64
6, 30885, Note_on_c, 6, 78, 0
6, 30894, Note_on_c, 6, 76, 64
6, 30931, Note_on_c, 6, 76, 0
6, 30951, Note_on_c, 6, 76, 64
6, 30984, Note_on_c, 6, 76, 0
6, 31014, Note_on_c, 6, 76, 64
6, 31066, Note_on_c, 6, 76, 0
6, 31076, Note_on_c, 6, 78, 64
6, 31122, Note_on_c, 6, 78, 0
6, 31131, Note_on_c, 6, 80, 64
6, 31301, Pitch_bend_c, 6, 8192
6, 31303, Pitch_bend_c, 6, 8064
6, 31306, Pitch_bend_c, 6, 7296
6, 31308, Pitch_bend_c, 6, 6784
6, 31310, Pitch_bend_c, 6, 6400
6, 31313, Pitch_bend_c, 6, 6016
6, 31315, Pitch_bend_c, 6, 5504
6, 31317, Pitch_bend_c, 6, 4992
6, 31319, Pitch_bend_c, 6, 4608
6, 31322, Pitch_bend_c, 6, 4224
6, 31324, Pitch_bend_c, 6, 3968
6, 31326, Pitch_bend_c, 6, 3584
6, 31328, Pitch_bend_c, 6, 3456
6, 31335, Pitch_bend_c, 6, 3328
6, 31340, Pitch_bend_c, 6, 3712
6, 31342, Pitch_bend_c, 6, 4736
6, 31344, Pitch_bend_c, 6, 6272
6, 31347, Pitch_bend_c, 6, 8192
6, 31349, Pitch_bend_c, 6, 8192
6, 31674, Note_on_c, 6, 78, 64
6, 31684, Note_on_c, 6, 80, 0
6, 31831, Pitch_bend_c, 6, 7808
6, 31833, Pitch_bend_c, 6, 6656
6, 31836, Pitch_bend_c, 6, 6016
6, 31838, Pitch_bend_c, 6, 5504
6, 31840, Pitch_bend_c, 6, 5120
6, 31842, Pitch_bend_c, 6, 4992
6, 31851, Pitch_bend_c, 6, 5632
6, 31854, Pitch_bend_c, 6, 6656
6, 31856, Pitch_bend_c, 6, 8192
6, 31858, Pitch_bend_c, 6, 8192
6, 32035, Note_on_c, 6, 78, 0
6, 32037, Note_on_c, 6, 75, 64
6, 32097, Note_on_c, 6, 76, 64
6, 32098, Note_on_c, 6, 75, 0
6, 32214, Note_on_c, 6, 75, 64
6, 32219, Note_on_c, 6, 76, 0
6, 32246, Note_on_c, 6, 76, 64
6, 32251, Note_on_c, 6, 75, 0
6, 32275, Note_on_c, 6, 75, 64
6, 32279, Note_on_c, 6, 76, 0
6, 32302, Note_on_c, 6, 75, 0
6, 32307, Note_on_c, 6, 71, 64
6, 32490, Note_on_c, 6, 71, 0
6, 32516, Note_on_c, 6, 83, 64
6, 32561, Note_on_c, 6, 83, 0
6, 32577, Note_on_c, 6, 83, 64
6, 32580, Pitch_bend_c, 6, 7424
6, 32583, Pitch_bend_c, 6, 5760
6, 32585, Pitch_bend_c, 6, 3968
6, 32587, Pitch_bend_c, 6, 1920
6, 32589, Pitch_bend_c, 6, 0
6, 32592, Pitch_bend_c, 6, 0
6, 32608, Pitch_bend_c, 6, 1408
6, 32610, Pitch_bend_c, 6, 4480
6, 32612, Pitch_bend_c, 6, 8064
6, 32614, Pitch_bend_c, 6, 8192
6, 32617, Pitch_bend_c, 6, 8192
6, 32643, Note_on_c, 6, 80, 64
6, 32647, Note_on_c, 6, 83, 0
6, 32757, Note_on_c, 6, 78, 64
6, 32763, Note_on_c, 6, 80, 0
6, 32806, Note_on_c, 6, 78, 0
6, 32820, Note_on_c, 6, 78, 64
6, 32874, Note_on_c, 6, 78, 0
6, 32875, Note_on_c, 6, 76, 64
6, 32997, Pitch_bend_c, 6, 8064
6, 33000, Pitch_bend_c, 6, 6656
6, 33002, Pitch_bend_c, 6, 5760
6, 33004, Pitch_bend_c, 6, 4736
6, 33006, Pitch_bend_c, 6, 3968
6, 33009, Pitch_bend_c, 6, 3328
6, 33011, Pitch_bend_c, 6, 2688
6, 33013, Pitch_bend_c, 6, 2432
6, 33018, Pitch_bend_c, 6, 2304
6, 33022, Pitch_bend_c, 6, 3072
6, 33025, Pitch_bend_c, 6, 4608
6, 33027, Pitch_bend_c, 6, 6784
6, 33029, Pitch_bend_c, 6, 8192
6, 33031, Pitch_bend_c, 6, 8192
6, 33141, Note_on_c, 6, 76, 0
6, 33173, Note_on_c, 6, 76, 64
6, 33236, Note_on_c, 6, 76, 0
6, 33236, Note_on_c, 6, 78, 64
6, 33296, Note_on_c, 6, 76, 64
6, 33297, Note_on_c, 6, 78, 0
6, 33577, Note_on_c, 6, 76, 0
6, 33652, Note_on_c, 6, 75, 64
6, 33722, Note_on_c, 6, 73, 64
6, 33725, Note_on_c, 6, 75, 0
6, 33776, Note_on_c, 6, 73, 0
6, 33778, Note_on_c, 6, 75, 64
6, 33832, Note_on_c, 6, 75, 0
6, 33833, Note_on_c, 6, 73, 64
6, 33887, Note_on_c, 6, 73, 0
6, 33888, Note_on_c, 6, 71, 64
6, 34487, Note_on_c, 6, 71, 0
6, 34802, Note_on_c, 6, 78, 64
6, 34817, Note_on_c, 6, 78, 0
6, 34830, Note_on_c, 6, 78, 64
6, 34846, Note_on_c, 6, 78, 0
6, 34858, Note_on_c, 6, 78, 64
6, 34876, Note_on_c, 6, 78, 0
6, 34888, Note_on_c, 6, 78, 64
6, 34904, Note_on_c, 6, 78, 0
6, 34919, Note_on_c, 6, 78, 64
6, 34934, Note_on_c, 6, 78, 0
6, 34949, Note_on_c, 6, 78, 64
6, 34964, Note_on_c, 6, 78, 0
6, 35031, Note_on_c, 6, 80, 64
6, 35147, Note_on_c, 6, 80, 0
6, 35151, Note_on_c, 6, 78, 64
6, 35161, Note_on_c, 6, 78, 0
6, 35213, Note_on_c, 6, 75, 64
6, 35277, Note_on_c, 6, 75, 0
6, 35279, Note_on_c, 6, 71, 64
6, 35416, Pitch_bend_c, 6, 7680
6, 35419, Pitch_bend_c, 6, 6144
6, 35422, Pitch_bend_c, 6, 4864
6, 35424, Pitch_bend_c, 6, 3456
6, 35425, Pitch_bend_c, 6, 2048
6, 35428, Pitch_bend_c, 6, 768
6, 35430, Pitch_bend_c, 6, 0
6, 35432, Pitch_bend_c, 6, 0
6, 35448, Pitch_bend_c, 6, 128
6, 35450, Pitch_bend_c, 6, 2176
6, 35453, Pitch_bend_c, 6, 4608
6, 35455, Pitch_bend_c, 6, 7680
6, 35457, Pitch_bend_c, 6, 8192
6, 35459, Pitch_bend_c, 6, 8192
6, 35511, Note_on_c, 6, 73, 64
6, 35516, Note_on_c, 6, 71, 0
6, 35537, Note_on_c, 6, 73, 0
6, 35571, Note_on_c, 6, 73, 64
6, 35588, Note_on_c, 6, 73, 0
6, 35600, Note_on_c, 6, 73, 64
6, 35624, Note_on_c, 6, 73, 0
6, 35667, Note_on_c, 6, 73, 64
6, 35691, Note_on_c, 6, 73, 0
6, 35697, Note_on_c, 6, 77, 64
6, 35760, Note_on_c, 6, 73, 64
6, 35761, Note_on_c, 6, 77, 0
6, 36350, Note_on_c, 6, 73, 0
6, 40200, Note_on_c, 6, 83, 64
6, 40237, Note_on_c, 6, 83, 0
6, 40260, Note_on_c, 6, 83, 64
6, 40313, Note_on_c, 6, 80, 64
6, 40320, Note_on_c, 6, 83, 0
6, 40328, Pitch_bend_c, 6, 7040
6, 40330, Pitch_bend_c, 6, 5760
6, 40333, Pitch_bend_c, 6, 4480
6, 40335, Pitch_bend_c, 6, 3456
6, 40337, Pitch_bend_c, 6, 2432
6, 40340, Pitch_bend_c, 6, 1664
6, 40342, Pitch_bend_c, 6, 896
6, 40344, Pitch_bend_c, 6, 128
6, 40351, Pitch_bend_c, 6, 384
6, 40353, Pitch_bend_c, 6, 1536
6, 40355, Pitch_bend_c, 6, 3072
6, 40358, Pitch_bend_c, 6, 5504
6, 40360, Pitch_bend_c, 6, 8192
6, 40362, Pitch_bend_c, 6, 8192
6, 40438, Note_on_c, 6, 80, 0
6, 40438, Note_on_c, 6, 78, 64
6, 40485, Note_on_c, 6, 78, 0
6, 40503, Note_on_c, 6, 76, 64
6, 40533, Note_on_c, 6, 76, 0
6, 40559, Note_on_c, 6, 76, 64
6, 40587, Note_on_c, 6, 76, 0
6, 40614, Note_on_c, 6, 76, 64
6, 40662, Note_on_c, 6, 76, 0
6, 40680, Note_on_c, 6, 78, 64
6, 40723, Note_on_c, 6, 78, 0
6, 40740, Note_on_c, 6, 80, 64
6, 40807, Pitch_bend_c, 6, 8192
6, 40809, Pitch_bend_c, 6, 7552
6, 40811, Pitch_bend_c, 6, 6784
6, 40813, Pitch_bend_c, 6, 6144
6, 40816, Pitch_bend_c, 6, 5760
6, 40818, Pitch_bend_c, 6, 5248
6, 40820, Pitch_bend_c, 6, 4992
6, 40829, Pitch_bend_c, 6, 5760
6, 40832, Pitch_bend_c, 6, 7168
6, 40834, Pitch_bend_c, 6, 8192
6, 40836, Pitch_bend_c, 6, 8192
6, 41284, Note_on_c, 6, 80, 0
6, 41284, Note_on_c, 6, 78, 64
6, 41555, Note_on_c, 6, 78, 0
6, 41569, Note_on_c, 6, 75, 64
6, 41619, Note_on_c, 6, 75, 0
6, 41642, Note_on_c, 6, 76, 64
6, 41667, Note_on_c, 6, 76, 0
6, 41685, Note_on_c, 6, 75, 64
6, 41707, Note_on_c, 6, 75, 0
6, 41724, Note_on_c, 6, 76, 64
6, 41745, Note_on_c, 6, 76, 0
6, 41767, Note_on_c, 6, 75, 64
6, 41812, Note_on_c, 6, 75, 0
6, 41819, Note_on_c, 6, 71, 64
6, 42067, Note_on_c, 6, 71, 0
6, 42115, Note_on_c, 6, 83, 64
6, 42152, Note_on_c, 6, 83, 0
6, 42168, Note_on_c, 6, 83, 64
6, 42209, Pitch_bend_c, 6, 8192
6, 42211, Pitch_bend_c, 6, 6656
6, 42214, Pitch_bend_c, 6, 5504
6, 42216, Pitch_bend_c, 6, 4480
6, 42218, Pitch_bend_c, 6, 3712
6, 42220, Pitch_bend_c, 6, 3328
6, 42223, Pitch_bend_c, 6, 3072
6, 42227, Pitch_bend_c, 6, 3712
6, 42229, Pitch_bend_c, 6, 4992
6, 42232, Pitch_bend_c, 6, 7680
6, 42234, Pitch_bend_c, 6, 8192
6, 42236, Pitch_bend_c, 6, 8192
6, 42240, Note_on_c, 6, 80, 64
6, 42253, Note_on_c, 6, 83, 0
6, 42355, Note_on_c, 6, 80, 0
6, 42360, Note_on_c, 6, 78, 64
6, 42411, Note_on_c, 6, 78, 0
6, 42422, Note_on_c, 6, 76, 64
6, 42462, Note_on_c, 6, 76, 0
6, 42482, Note_on_c, 6, 76, 64
6, 42518, Note_on_c, 6, 76, 0
6, 42541, Note_on_c, 6, 76, 64
6, 42579, Note_on_c, 6, 76, 0
6, 42602, Note_on_c, 6, 78, 64
6, 42637, Note_on_c, 6, 78, 0
6, 42657, Note_on_c, 6, 80, 64
6, 42721, Pitch_bend_c, 6, 7808
6, 42724, Pitch_bend_c, 6, 6656
6, 42726, Pitch_bend_c, 6, 5888
6, 42728, Pitch_bend_c, 6, 5376
6, 42731, Pitch_bend_c, 6, 4864
6, 42733, Pitch_bend_c, 6, 4608
6, 42740, Pitch_bend_c, 6, 4864
6, 42742, Pitch_bend_c, 6, 5632
6, 42744, Pitch_bend_c, 6, 7552
6, 42746, Pitch_bend_c, 6, 8192
6, 42749, Pitch_bend_c, 6, 8192
6, 43072, Note_on_c, 6, 80, 0
6, 43077, Note_on_c, 6, 78, 64
6, 43373, Note_on_c, 6, 78, 0
6, 43383, Note_on_c, 6, 75, 64
6, 43471, Note_on_c, 6, 75, 0
6, 43478, Note_on_c, 6, 76, 64
6, 43508, Note_on_c, 6, 75, 64
6, 43509, Note_on_c, 6, 76, 0
6, 43541, Note_on_c, 6, 75, 0
6, 43546, Note_on_c, 6, 76, 64
6, 43586, Note_on_c, 6, 76, 0
6, 43593, Note_on_c, 6, 75, 64
6, 43634, Note_on_c, 6, 75, 0
6, 43634, Note_on_c, 6, 71, 64
6, 44085, Note_on_c, 6, 71, 0
6, 44401, Note_on_c, 6, 78, 64
6, 44416, Note_on_c, 6, 78, 0
6, 44432, Note_on_c, 6, 78, 64
6, 44448, Note_on_c, 6, 78, 0
6, 44464, Note_on_c, 6, 78, 64
6, 44480, Note_on_c, 6, 78, 0
6, 44495, Note_on_c, 6, 78, 64
6, 44510, Note_on_c, 6, 78, 0
6, 44528, Note_on_c, 6, 78, 64
6, 44542, Note_on_c, 6, 78, 0
6, 44584, Note_on_c, 6, 78, 64
6, 44602, Note_on_c, 6, 78, 0
6, 44642, Note_on_c, 6, 80, 64
6, 44703, Pitch_bend_c, 6, 7040
6, 44706, Pitch_bend_c, 6, 5504
6, 44708, Pitch_bend_c, 6, 3840
6, 44710, Pitch_bend_c, 6, 2176
6, 44712, Pitch_bend_c, 6, 512
6, 44715, Pitch_bend_c, 6, 0
6, 44717, Pitch_bend_c, 6, 0
6, 44726, Pitch_bend_c, 6, 0
6, 44728, Pitch_bend_c, 6, 1536
6, 44731, Pitch_bend_c, 6, 4352
6, 44733, Pitch_bend_c, 6, 7808
6, 44735, Pitch_bend_c, 6, 8192
6, 44740, Pitch_bend_c, 6, 8192
6, 44764, Note_on_c, 6, 78, 64
6, 44767, Note_on_c, 6, 80, 0
6, 44781, Note_on_c, 6, 78, 0
6, 44823, Note_on_c, 6, 75, 64
6, 44833, Note_on_c, 6, 75, 0
6, 44883, Note_on_c, 6, 71, 64
6, 45107, Note_on_c, 6, 71, 0
6, 45116, Note_on_c, 6, 73, 64
6, 45133, Note_on_c, 6, 73, 0
6, 45169, Note_on_c, 6, 73, 64
6, 45183, Note_on_c, 6, 73, 0
6, 45200, Note_on_c, 6, 73, 64
6, 45217, Note_on_c, 6, 73, 0
6, 45269, Note_on_c, 6, 73, 64
6, 45293, Note_on_c, 6, 73, 0
6, 45302, Note_on_c, 6, 75, 64
6, 45303, Note_on_c, 6, 76, 64
6, 45310, Note_on_c, 6, 75, 0
6, 45354, Note_on_c, 6, 76, 0
6, 45362, Note_on_c, 6, 73, 64
6, 45979, Note_on_c, 6, 73, 0
6, 49927, Note_on_c, 6, 85, 64
6, 50006, Pitch_bend_c, 6, 8192
6, 50008, Pitch_bend_c, 6, 7808
6, 50010, Pitch_bend_c, 6, 6912
6, 50012, Pitch_bend_c, 6, 6272
6, 50014, Pitch_bend_c, 6, 5632
6, 50017, Pitch_bend_c, 6, 4992
6, 50019, Pitch_bend_c, 6, 4480
6, 50021, Pitch_bend_c, 6, 3840
6, 50024, Pitch_bend_c, 6, 3200
6, 50026, Pitch_bend_c, 6, 2688
6, 50028, Pitch_bend_c, 6, 2304
6, 50030, Pitch_bend_c, 6, 2176
6, 50037, Pitch_bend_c, 6, 2048
6, 50039, Pitch_bend_c, 6, 2304
6, 50042, Pitch_bend_c, 6, 3328
6, 50043, Pitch_bend_c, 6, 4992
6, 50046, Pitch_bend_c, 6, 7296
6, 50049, Pitch_bend_c, 6, 8192
6, 50053, Pitch_bend_c, 6, 8192
6, 50121, Pitch_bend_c, 6, 8192
6, 50123, Pitch_bend_c, 6, 7680
6, 50125, Pitch_bend_c, 6, 6912
6, 50127, Pitch_bend_c, 6, 6528
6, 50130, Pitch_bend_c, 6, 6144
6, 50132, Pitch_bend_c, 6, 5888
6, 50134, Pitch_bend_c, 6, 5632
6, 50139, Pitch_bend_c, 6, 5504
6, 50143, Pitch_bend_c, 6, 5760
6, 50146, Pitch_bend_c, 6, 6656
6, 50148, Pitch_bend_c, 6, 8192
6, 50150, Pitch_bend_c, 6, 8192
6, 50230, Pitch_bend_c, 6, 8192
6, 50232, Pitch_bend_c, 6, 7168
6, 50234, Pitch_bend_c, 6, 6400
6, 50236, Pitch_bend_c, 6, 5760
6, 50239, Pitch_bend_c, 6, 5376
6, 50241, Pitch_bend_c, 6, 5120
6, 50243, Pitch_bend_c, 6, 4992
6, 50248, Pitch_bend_c, 6, 5248
6, 50250, Pitch_bend_c, 6, 6400
6, 50252, Pitch_bend_c, 6, 8192
6, 50255, Pitch_bend_c, 6, 8192
6, 50318, Pitch_bend_c, 6, 8064
6, 50320, Pitch_bend_c, 6, 6400
6, 50323, Pitch_bend_c, 6, 5632
6, 50325, Pitch_bend_c, 6, 4992
6, 50327, Pitch_bend_c, 6, 4608
6, 50329, Pitch_bend_c, 6, 4480
6, 50334, Pitch_bend_c, 6, 4736
6, 50336, Pitch_bend_c, 6, 5760
6, 50339, Pitch_bend_c, 6, 7936
6, 50340, Pitch_bend_c, 6, 8192
6, 50342, Pitch_bend_c, 6, 8192
6, 50398, Note_on_c, 6, 73, 64
6, 50408, Note_on_c, 6, 85, 0
6, 50483, Pitch_bend_c, 6, 8192
6, 50485, Pitch_bend_c, 6, 7424
6, 50488, Pitch_bend_c, 6, 6784
6, 50490, Pitch_bend_c, 6, 6400
6, 50492, Pitch_bend_c, 6, 6144
6, 50494, Pitch_bend_c, 6, 5760
6, 50497, Pitch_bend_c, 6, 5504
6, 50499, Pitch_bend_c, 6, 5120
6, 50501, Pitch_bend_c, 6, 4864
6, 50504, Pitch_bend_c, 6, 4736
6, 50506, Pitch_bend_c, 6, 4608
6, 50515, Pitch_bend_c, 6, 5120
6, 50517, Pitch_bend_c, 6, 6144
6, 50519, Pitch_bend_c, 6, 8064
6, 50522, Pitch_bend_c, 6, 8192
6, 50524, Pitch_bend_c, 6, 8192
6, 50598, Pitch_bend_c, 6, 8192
6, 50601, Pitch_bend_c, 6, 7680
6, 50603, Pitch_bend_c, 6, 6912
6, 50606, Pitch_bend_c, 6, 6528
6, 50607, Pitch_bend_c, 6, 6144
6, 50610, Pitch_bend_c, 6, 5888
6, 50612, Pitch_bend_c, 6, 5504
6, 50614, Pitch_bend_c, 6, 5376
6, 50616, Pitch_bend_c, 6, 5248
6, 50619, Pitch_bend_c, 6, 5120
6, 50625, Pitch_bend_c, 6, 5248
6, 50628, Pitch_bend_c, 6, 5888
6, 50630, Pitch_bend_c, 6, 6912
6, 50632, Pitch_bend_c, 6, 8192
6, 50635, Pitch_bend_c, 6, 8192
6, 50703, Pitch_bend_c, 6, 7296
6, 50705, Pitch_bend_c, 6, 6144
6, 50707, Pitch_bend_c, 6, 4992
6, 50709, Pitch_bend_c, 6, 3968
6, 50712, Pitch_bend_c, 6, 3200
6, 50714, Pitch_bend_c, 6, 2560
6, 50716, Pitch_bend_c, 6, 2176
6, 50719, Pitch_bend_c, 6, 2048
6, 50725, Pitch_bend_c, 6, 2304
6, 50728, Pitch_bend_c, 6, 3072
6, 50730, Pitch_bend_c, 6, 4608
6, 50732, Pitch_bend_c, 6, 6656
6, 50734, Pitch_bend_c, 6, 8192
6, 50737, Pitch_bend_c, 6, 8192
6, 50840, Note_on_c, 6, 78, 64
6, 50851, Note_on_c, 6, 73, 0
6, 50882, Note_on_c, 6, 78, 0
6, 50891, Note_on_c, 6, 80, 64
6, 50958, Pitch_bend_c, 6, 7936
6, 50961, Pitch_bend_c, 6, 6912
6, 50963, Pitch_bend_c, 6, 6400
6, 50965, Pitch_bend_c, 6, 6016
6, 50968, Pitch_bend_c, 6, 5760
6, 50970, Pitch_bend_c, 6, 5632
6, 50977, Pitch_bend_c, 6, 6016
6, 50979, Pitch_bend_c, 6, 6912
6, 50981, Pitch_bend_c, 6, 8192
6, 50983, Pitch_bend_c, 6, 8192
6, 51036, Pitch_bend_c, 6, 8192
6, 51038, Pitch_bend_c, 6, 6912
6, 51040, Pitch_bend_c, 6, 6400
6, 51042, Pitch_bend_c, 6, 6016
6, 51045, Pitch_bend_c, 6, 5888
6, 51052, Pitch_bend_c, 6, 6528
6, 51054, Pitch_bend_c, 6, 8192
6, 51056, Pitch_bend_c, 6, 8192
6, 51058, Pitch_bend_c, 6, 8192
6, 51092, Pitch_bend_c, 6, 8192
6, 51095, Pitch_bend_c, 6, 6784
6, 51097, Pitch_bend_c, 6, 5248
6, 51099, Pitch_bend_c, 6, 4096
6, 51101, Pitch_bend_c, 6, 3200
6, 51104, Pitch_bend_c, 6, 2688
6, 51106, Pitch_bend_c, 6, 2560
6, 51111, Pitch_bend_c, 6, 3200
6, 51113, Pitch_bend_c, 6, 4352
6, 51115, Pitch_bend_c, 6, 6400
6, 51117, Pitch_bend_c, 6, 8192
6, 51120, Pitch_bend_c, 6, 8192
6, 51158, Pitch_bend_c, 6, 7808
6, 51161, Pitch_bend_c, 6, 6656
6, 51163, Pitch_bend_c, 6, 6144
6, 51165, Pitch_bend_c, 6, 5632
6, 51167, Pitch_bend_c, 6, 5248
6, 51170, Pitch_bend_c, 6, 5120
6, 51176, Pitch_bend_c, 6, 5760
6, 51179, Pitch_bend_c, 6, 6784
6, 51180, Pitch_bend_c, 6, 8192
6, 51183, Pitch_bend_c, 6, 8192
6, 51230, Pitch_bend_c, 6, 6912
6, 51232, Pitch_bend_c, 6, 5632
6, 51235, Pitch_bend_c, 6, 4480
6, 51237, Pitch_bend_c, 6, 3456
6, 51239, Pitch_bend_c, 6, 2816
6, 51242, Pitch_bend_c, 6, 2560
6, 51244, Pitch_bend_c, 6, 2432
6, 51248, Pitch_bend_c, 6, 2816
6, 51251, Pitch_bend_c, 6, 3840
6, 51253, Pitch_bend_c, 6, 5504
6, 51255, Pitch_bend_c, 6, 7936
6, 51257, Pitch_bend_c, 6, 8192
6, 51260, Pitch_bend_c, 6, 8192
6, 51305, Pitch_bend_c, 6, 8192
6, 51307, Pitch_bend_c, 6, 6400
6, 51310, Pitch_bend_c, 6, 5120
6, 51312, Pitch_bend_c, 6, 3968
6, 51314, Pitch_bend_c, 6, 3072
6, 51316, Pitch_bend_c, 6, 2432
6, 51319, Pitch_bend_c, 6, 2176
6, 51323, Pitch_bend_c, 6, 2048
6, 51326, Pitch_bend_c, 6, 2560
6, 51328, Pitch_bend_c, 6, 3584
6, 51330, Pitch_bend_c, 6, 5376
6, 51332, Pitch_bend_c, 6, 7808
6, 51335, Pitch_bend_c, 6, 8192
6, 51337, Pitch_bend_c, 6, 8192
6, 51378, Pitch_bend_c, 6, 8192
6, 51380, Pitch_bend_c, 6, 6656
6, 51382, Pitch_bend_c, 6, 5376
6, 51385, Pitch_bend_c, 6, 4096
6, 51387, Pitch_bend_c, 6, 3328
6, 51389, Pitch_bend_c, 6, 2688
6, 51391, Pitch_bend_c, 6, 2560
6, 51396, Pitch_bend_c, 6, 2688
6, 51398, Pitch_bend_c, 6, 3584
6, 51400, Pitch_bend_c, 6, 5120
6, 51403, Pitch_bend_c, 6, 7424
6, 51405, Pitch_bend_c, 6, 8192
6, 51410, Pitch_bend_c, 6, 8192
6, 51478, Note_on_c, 6, 73, 64
6, 51482, Note_on_c, 6, 80, 0
6, 51529, Note_on_c, 6, 71, 64
6, 51530, Note_on_c, 6, 73, 0
6, 51575, Note_on_c, 6, 73, 64
6, 51579, Note_on_c, 6, 71, 0
6, 51631, Note_on_c, 6, 71, 64
6, 51632, Note_on_c, 6, 73, 0
6, 51691, Note_on_c, 6, 71, 0
6, 51699, Note_on_c, 6, 76, 64
6, 51780, Note_on_c, 6, 75, 64
6, 51782, Note_on_c, 6, 76, 0
6, 51883, Note_on_c, 6, 75, 0
6, 51976, Note_on_c, 6, 80, 64
6, 51998, Note_on_c, 6, 80, 0
6, 52005, Note_on_c, 6, 78, 64
6, 52024, Note_on_c, 6, 78, 0
6, 52035, Note_on_c, 6, 80, 64
6, 52062, Note_on_c, 6, 80, 0
6, 52065, Note_on_c, 6, 78, 64
6, 52084, Note_on_c, 6, 78, 0
6, 52099, Note_on_c, 6, 80, 64
6, 52179, Note_on_c, 6, 80, 0
6, 52179, Note_on_c, 6, 78, 64
6, 52217, Note_on_c, 6, 78, 0
6, 52220, Note_on_c, 6, 80, 64
6, 52284, Note_on_c, 6, 80, 0
6, 52296, Note_on_c, 6, 73, 64
6, 52366, Note_on_c, 6, 73, 0
6, 52381, Note_on_c, 6, 75, 64
6, 52383, Note_on_c, 6, 76, 64
6, 52384, Note_on_c, 6, 75, 0
6, 52469, Note_on_c, 6, 76, 0
6, 52499, Note_on_c, 6, 75, 64
6, 53237, Note_on_c, 6, 75, 0
6, 57418, Note_on_c, 6, 83, 64
6, 57439, Note_on_c, 6, 83, 0
6, 57477, Note_on_c, 6, 83, 64
6, 57502, Note_on_c, 6, 83, 0
6, 57539, Note_on_c, 6, 83, 64
6, 57566, Note_on_c, 6, 83, 0
6, 57599, Note_on_c, 6, 80, 64
6, 57620, Note_on_c, 6, 80, 0
6, 57626, Note_on_c, 6, 78, 64
6, 57648, Note_on_c, 6, 78, 0
6, 57656, Note_on_c, 6, 76, 64
6, 57701, Note_on_c, 6, 76, 0
6, 57719, Note_on_c, 6, 76, 64
6, 57741, Note_on_c, 6, 76, 0
6, 57748, Note_on_c, 6, 76, 64
6, 57770, Note_on_c, 6, 76, 0
6, 57778, Note_on_c, 6, 78, 64
6, 57819, Note_on_c, 6, 78, 0
6, 57835, Note_on_c, 6, 78, 64
6, 57885, Note_on_c, 6, 78, 0
6, 57897, Note_on_c, 6, 80, 64
6, 58317, Note_on_c, 6, 80, 0
6, 58381, Note_on_c, 6, 80, 64
6, 58416, Note_on_c, 6, 80, 0
6, 58436, Note_on_c, 6, 80, 64
6, 58488, Note_on_c, 6, 80, 0
6, 58504, Note_on_c, 6, 80, 64
6, 58545, Note_on_c, 6, 80, 0
6, 58558, Note_on_c, 6, 78, 64
6, 58712, Note_on_c, 6, 78, 0
6, 58731, Note_on_c, 6, 73, 64
6, 58855, Note_on_c, 6, 73, 0
6, 58860, Note_on_c, 6, 75, 64
6, 58976, Note_on_c, 6, 73, 64
6, 58981, Note_on_c, 6, 75, 0
6, 59034, Note_on_c, 6, 71, 64
6, 59036, Note_on_c, 6, 73, 0
6, 59257, Note_on_c, 6, 71, 0
6, 59340, Note_on_c, 6, 83, 64
6, 59377, Note_on_c, 6, 83, 0
6, 59395, Note_on_c, 6, 83, 64
6, 59435, Note_on_c, 6, 83, 0
6, 59449, Note_on_c, 6, 83, 64
6, 59487, Note_on_c, 6, 83, 0
6, 59512, Note_on_c, 6, 80, 64
6, 59531, Note_on_c, 6, 80, 0
6, 59539, Note_on_c, 6, 78, 64
6, 59559, Note_on_c, 6, 78, 0
6, 59570, Note_on_c, 6, 76, 64
6, 59612, Note_on_c, 6, 76, 0
6, 59631, Note_on_c, 6, 76, 64
6, 59649, Note_on_c, 6, 76, 0
6, 59662, Note_on_c, 6, 76, 64
6, 59683, Note_on_c, 6, 76, 0
6, 59698, Note_on_c, 6, 78, 64
6, 59739, Note_on_c, 6, 78, 0
6, 59758, Note_on_c, 6, 80, 64
6, 59811, Note_on_c, 6, 80, 0
6, 59824, Note_on_c, 6, 80, 64
6, 60281, Note_on_c, 6, 80, 0
6, 60298, Note_on_c, 6, 80, 64
6, 60347, Note_on_c, 6, 80, 0
6, 60359, Note_on_c, 6, 80, 64
6, 60399, Note_on_c, 6, 80, 0
6, 60413, Note_on_c, 6, 80, 64
6, 60469, Note_on_c, 6, 80, 0
6, 60474, Note_on_c, 6, 78, 64
6, 60635, Note_on_c, 6, 78, 0
6, 60650, Note_on_c, 6, 73, 64
6, 60711, Note_on_c, 6, 73, 0
6, 60782, Note_on_c, 6, 73, 64
6, 60826, Note_on_c, 6, 75, 64
6, 60828, Note_on_c, 6, 73, 0
6, 60884, Note_on_c, 6, 73, 64
6, 60888, Note_on_c, 6, 75, 0
6, 60925, Note_on_c, 6, 73, 0
6, 60927, Note_on_c, 6, 71, 64
6, 61223, Note_on_c, 6, 71, 0
6, 61683, Note_on_c, 6, 78, 64
6, 61697, Note_on_c, 6, 78, 0
6, 61710, Note_on_c, 6, 78, 64
6, 61725, Note_on_c, 6, 78, 0
6, 61742, Note_on_c, 6, 78, 64
6, 61757, Note_on_c, 6, 78, 0
6, 61772, Note_on_c, 6, 78, 64
6, 61787, Note_on_c, 6, 78, 0
6, 61804, Note_on_c, 6, 78, 64
6, 61817, Note_on_c, 6, 78, 0
6, 61860, Note_on_c, 6, 78, 64
6, 61877, Note_on_c, 6, 78, 0
6, 61923, Note_on_c, 6, 80, 64
6, 62033, Note_on_c, 6, 80, 0
6, 62035, Note_on_c, 6, 78, 64
6, 62046, Note_on_c, 6, 78, 0
6, 62100, Note_on_c, 6, 75, 64
6, 62230, Note_on_c, 6, 75, 0
6, 62230, Note_on_c, 6, 71, 64
6, 62398, Note_on_c, 6, 71, 0
6, 62399, Note_on_c, 6, 73, 64
6, 62416, Note_on_c, 6, 73, 0
6, 62456, Note_on_c, 6, 73, 64
6, 62472, Note_on_c, 6, 73, 0
6, 62490, Note_on_c, 6, 73, 64
6, 62508, Note_on_c, 6, 73, 0
6, 62551, Note_on_c, 6, 73, 64
6, 62582, Note_on_c, 6, 73, 0
6, 62582, Note_on_c, 6, 75, 64
6, 62587, Note_on_c, 6, 76, 64
6, 62591, Note_on_c, 6, 75, 0
6, 62641, Note_on_c, 6, 76, 0
6, 62643, Note_on_c, 6, 73, 64
6, 63289, Note_on_c, 6, 73, 0
6, 63289, End_track
7, 0, Start_track
7, 0, MIDI_port, 0
7, 0, Title_t, "CONGA LO"
7, 60, Note_on_c, 9, 64, 77
7, 87, Note_on_c, 9, 64, 0
7, 240, Note_on_c, 9, 64, 64
7, 272, Note_on_c, 9, 64, 0
7, 420, Note_on_c, 9, 64, 66
7, 447, Note_on_c, 9, 64, 0
7, 600, Note_on_c, 9, 64, 86
7, 627, Note_on_c, 9, 64, 0
7, 780, Note_on_c, 9, 64, 78
7, 801, Note_on_c, 9, 64, 0
7, 1020, Note_on_c, 9, 64, 77
7, 1047, Note_on_c, 9, 64, 0
7, 1200, Note_on_c, 9, 64, 64
7, 1232, Note_on_c, 9, 64, 0
7, 1380, Note_on_c, 9, 64, 66
7, 1407, Note_on_c, 9, 64, 0
7, 1560, Note_on_c, 9, 64, 86
7, 1587, Note_on_c, 9, 64, 0
7, 1740, Note_on_c, 9, 64, 78
7, 1761, Note_on_c, 9, 64, 0
7, 1980, Note_on_c, 9, 64, 77
7, 2007, Note_on_c, 9, 64, 0
7, 2160, Note_on_c, 9, 64, 64
7, 2192, Note_on_c, 9, 64, 0
7, 2340, Note_on_c, 9, 64, 66
7, 2367, Note_on_c, 9, 64, 0
7, 2520, Note_on_c, 9, 64, 86
7, 2547, Note_on_c, 9, 64, 0
7, 2700, Note_on_c, 9, 64, 78
7, 2721, Note_on_c, 9, 64, 0
7, 2940, Note_on_c, 9, 64, 77
7, 2967, Note_on_c, 9, 64, 0
7, 3120, Note_on_c, 9, 64, 64
7, 3152, Note_on_c, 9, 64, 0
7, 3300, Note_on_c, 9, 64, 66
7, 3327, Note_on_c, 9, 64, 0
7, 3480, Note_on_c, 9, 64, 86
7, 3507, Note_on_c, 9, 64, 0
7, 3660, Note_on_c, 9, 64, 78
7, 3681, Note_on_c, 9, 64, 0
7, 3900, Note_on_c, 9, 64, 77
7, 3927, Note_on_c, 9, 64, 0
7, 4080, Note_on_c, 9, 64, 64
7, 4112, Note_on_c, 9, 64, 0
7, 4260, Note_on_c, 9, 64, 66
7, 4287, Note_on_c, 9, 64, 0
7, 4440, Note_on_c, 9, 64, 86
7, 4467, Note_on_c, 9, 64, 0
7, 4620, Note_on_c, 9, 64, 78
7, 4641, Note_on_c, 9, 64, 0
7, 4860, Note_on_c, 9, 64, 77
7, 4887, Note_on_c, 9, 64, 0
7, 5040, Note_on_c, 9, 64, 64
7, 5072, Note_on_c, 9, 64, 0
7, 5220, Note_on_c, 9, 64, 66
7, 5247, Note_on_c, 9, 64, 0
7, 5400, Note_on_c, 9, 64, 86
7, 5427, Note_on_c, 9, 64, 0
7, 5580, Note_on_c, 9, 64, 78
7, 5601, Note_on_c, 9, 64, 0
7, 5820, Note_on_c, 9, 64, 77
7, 5847, Note_on_c, 9, 64, 0
7, 6000, Note_on_c, 9, 64, 64
7, 6032, Note_on_c, 9, 64, 0
7, 6180, Note_on_c, 9, 64, 66
7, 6207, Note_on_c, 9, 64, 0
7, 6360, Note_on_c, 9, 64, 86
7, 6387, Note_on_c, 9, 64, 0
7, 6540, Note_on_c, 9, 64, 78
7, 6561, Note_on_c, 9, 64, 0
7, 6780, Note_on_c, 9, 64, 77
7, 6807, Note_on_c, 9, 64, 0
7, 6960, Note_on_c, 9, 64, 64
7, 6992, Note_on_c, 9, 64, 0
7, 7140, Note_on_c, 9, 64, 66
7, 7167, Note_on_c, 9, 64, 0
7, 7320, Note_on_c, 9, 64, 86
7, 7347, Note_on_c, 9, 64, 0
7, 7500, Note_on_c, 9, 64, 78
7, 7521, Note_on_c, 9, 64, 0
7, 7740, Note_on_c, 9, 64, 77
7, 7767, Note_on_c, 9, 64, 0
7, 7920, Note_on_c, 9, 64, 64
7, 7952, Note_on_c, 9, 64, 0
7, 8100, Note_on_c, 9, 64, 66
7, 8127, Note_on_c, 9, 64, 0
7, 8280, Note_on_c, 9, 64, 86
7, 8307, Note_on_c, 9, 64, 0
7, 8460, Note_on_c, 9, 64, 78
7, 8481, Note_on_c, 9, 64, 0
7, 8700, Note_on_c, 9, 64, 77
7, 8727, Note_on_c, 9, 64, 0
7, 8880, Note_on_c, 9, 64, 64
7, 8912, Note_on_c, 9, 64, 0
7, 9060, Note_on_c, 9, 64, 66
7, 9087, Note_on_c, 9, 64, 0
7, 9240, Note_on_c, 9, 64, 86
7, 9267, Note_on_c, 9, 64, 0
7, 9420, Note_on_c, 9, 64, 78
7, 9441, Note_on_c, 9, 64, 0
7, 9660, Note_on_c, 9, 64, 77
7, 9687, Note_on_c, 9, 64, 0
7, 9840, Note_on_c, 9, 64, 64
7, 9872, Note_on_c, 9, 64, 0
7, 10020, Note_on_c, 9, 64, 66
7, 10047, Note_on_c, 9, 64, 0
7, 10200, Note_on_c, 9, 64, 86
7, 10227, Note_on_c, 9, 64, 0
7, 10380, Note_on_c, 9, 64, 78
7, 10401, Note_on_c, 9, 64, 0
7, 10620, Note_on_c, 9, 64, 77
7, 10647, Note_on_c, 9, 64, 0
7, 10800, Note_on_c, 9, 64, 64
7, 10832, Note_on_c, 9, 64, 0
7, 10980, Note_on_c, 9, 64, 66
7, 11007, Note_on_c, 9, 64, 0
7, 11160, Note_on_c, 9, 64, 86
7, 11187, Note_on_c, 9, 64, 0
7, 11340, Note_on_c, 9, 64, 78
7, 11361, Note_on_c, 9, 64, 0
7, 11580, Note_on_c, 9, 64, 77
7, 11607, Note_on_c, 9, 64, 0
7, 11760, Note_on_c, 9, 64, 64
7, 11792, Note_on_c, 9, 64, 0
7, 11940, Note_on_c, 9, 64, 66
7, 11967, Note_on_c, 9, 64, 0
7, 12120, Note_on_c, 9, 64, 86
7, 12147, Note_on_c, 9, 64, 0
7, 12300, Note_on_c, 9, 64, 78
7, 12321, Note_on_c, 9, 64, 0
7, 12540, Note_on_c, 9, 64, 77
7, 12567, Note_on_c, 9, 64, 0
7, 12720, Note_on_c, 9, 64, 64
7, 12752, Note_on_c, 9, 64, 0
7, 12900, Note_on_c, 9, 64, 66
7, 12927, Note_on_c, 9, 64, 0
7, 13080, Note_on_c, 9, 64, 86
7, 13107, Note_on_c, 9, 64, 0
7, 13260, Note_on_c, 9, 64, 78
7, 13281, Note_on_c, 9, 64, 0
7, 13500, Note_on_c, 9, 64, 77
7, 13527, Note_on_c, 9, 64, 0
7, 13680, Note_on_c, 9, 64, 64
7, 13712, Note_on_c, 9, 64, 0
7, 13860, Note_on_c, 9, 64, 66
7, 13887, Note_on_c, 9, 64, 0
7, 14040, Note_on_c, 9, 64, 86
7, 14067, Note_on_c, 9, 64, 0
7, 14220, Note_on_c, 9, 64, 78
7, 14241, Note_on_c, 9, 64, 0
7, 14460, Note_on_c, 9, 64, 77
7, 14487, Note_on_c, 9, 64, 0
7, 14640, Note_on_c, 9, 64, 64
7, 14672, Note_on_c, 9, 64, 0
7, 14820, Note_on_c, 9, 64, 66
7, 14847, Note_on_c, 9, 64, 0
7, 15000, Note_on_c, 9, 64, 86
7, 15027, Note_on_c, 9, 64, 0
7, 15180, Note_on_c, 9, 64, 78
7, 15201, Note_on_c, 9, 64, 0
7, 15420, Note_on_c, 9, 64, 77
7, 15447, Note_on_c, 9, 64, 0
7, 15600, Note_on_c, 9, 64, 64
7, 15632, Note_on_c, 9, 64, 0
7, 15780, Note_on_c, 9, 64, 66
7, 15807, Note_on_c, 9, 64, 0
7, 15960, Note_on_c, 9, 64, 86
7, 15987, Note_on_c, 9, 64, 0
7, 16140, Note_on_c, 9, 64, 78
7, 16161, Note_on_c, 9, 64, 0
7, 16380, Note_on_c, 9, 64, 77
7, 16407, Note_on_c, 9, 64, 0
7, 16560, Note_on_c, 9, 64, 64
7, 16592, Note_on_c, 9, 64, 0
7, 16740, Note_on_c, 9, 64, 66
7, 16767, Note_on_c, 9, 64, 0
7, 16920, Note_on_c, 9, 64, 86
7, 16947, Note_on_c, 9, 64, 0
7, 17100, Note_on_c, 9, 64, 78
7, 17121, Note_on_c, 9, 64, 0
7, 17340, Note_on_c, 9, 64, 77
7, 17367, Note_on_c, 9, 64, 0
7, 17520, Note_on_c, 9, 64, 64
7, 17552, Note_on_c, 9, 64, 0
7, 17700, Note_on_c, 9, 64, 66
7, 17727, Note_on_c, 9, 64, 0
7, 17880, Note_on_c, 9, 64, 86
7, 17907, Note_on_c, 9, 64, 0
7, 18060, Note_on_c, 9, 64, 78
7, 18081, Note_on_c, 9, 64, 0
7, 18300, Note_on_c, 9, 64, 77
7, 18327, Note_on_c, 9, 64, 0
7, 18480, Note_on_c, 9, 64, 64
7, 18512, Note_on_c, 9, 64, 0
7, 18660, Note_on_c, 9, 64, 66
7, 18687, Note_on_c, 9, 64, 0
7, 18840, Note_on_c, 9, 64, 86
7, 18867, Note_on_c, 9, 64, 0
7, 19020, Note_on_c, 9, 64, 78
7, 19041, Note_on_c, 9, 64, 0
7, 19260, Note_on_c, 9, 64, 77
7, 19287, Note_on_c, 9, 64, 0
7, 19440, Note_on_c, 9, 64, 64
7, 19472, Note_on_c, 9, 64, 0
7, 19620, Note_on_c, 9, 64, 66
7, 19647, Note_on_c, 9, 64, 0
7, 19800, Note_on_c, 9, 64, 86
7, 19827, Note_on_c, 9, 64, 0
7, 19980, Note_on_c, 9, 64, 78
7, 20001, Note_on_c, 9, 64, 0
7, 20220, Note_on_c, 9, 64, 77
7, 20247, Note_on_c, 9, 64, 0
7, 20400, Note_on_c, 9, 64, 64
7, 20432, Note_on_c, 9, 64, 0
7, 20580, Note_on_c, 9, 64, 66
7, 20607, Note_on_c, 9, 64, 0
7, 20760, Note_on_c, 9, 64, 86
7, 20787, Note_on_c, 9, 64, 0
7, 20940, Note_on_c, 9, 64, 78
7, 20961, Note_on_c, 9, 64, 0
7, 21180, Note_on_c, 9, 64, 77
7, 21207, Note_on_c, 9, 64, 0
7, 21360, Note_on_c, 9, 64, 64
7, 21392, Note_on_c, 9, 64, 0
7, 21540, Note_on_c, 9, 64, 66
7, 21567, Note_on_c, 9, 64, 0
7, 21720, Note_on_c, 9, 64, 86
7, 21747, Note_on_c, 9, 64, 0
7, 21900, Note_on_c, 9, 64, 78
7, 21921, Note_on_c, 9, 64, 0
7, 22140, Note_on_c, 9, 64, 77
7, 22167, Note_on_c, 9, 64, 0
7, 22320, Note_on_c, 9, 64, 64
7, 22352, Note_on_c, 9, 64, 0
7, 22500, Note_on_c, 9, 64, 66
7, 22527, Note_on_c, 9, 64, 0
7, 22680, Note_on_c, 9, 64, 86
7, 22707, Note_on_c, 9, 64, 0
7, 22860, Note_on_c, 9, 64, 78
7, 22881, Note_on_c, 9, 64, 0
7, 23100, Note_on_c, 9, 64, 77
7, 23127, Note_on_c, 9, 64, 0
7, 23280, Note_on_c, 9, 64, 64
7, 23312, Note_on_c, 9, 64, 0
7, 23460, Note_on_c, 9, 64, 66
7, 23487, Note_on_c, 9, 64, 0
7, 23640, Note_on_c, 9, 64, 86
7, 23667, Note_on_c, 9, 64, 0
7, 23820, Note_on_c, 9, 64, 78
7, 23841, Note_on_c, 9, 64, 0
7, 24060, Note_on_c, 9, 64, 77
7, 24087, Note_on_c, 9, 64, 0
7, 24240, Note_on_c, 9, 64, 64
7, 24272, Note_on_c, 9, 64, 0
7, 24420, Note_on_c, 9, 64, 66
7, 24447, Note_on_c, 9, 64, 0
7, 24600, Note_on_c, 9, 64, 86
7, 24627, Note_on_c, 9, 64, 0
7, 24780, Note_on_c, 9, 64, 78
7, 24801, Note_on_c, 9, 64, 0
7, 25020, Note_on_c, 9, 64, 77
7, 25047, Note_on_c, 9, 64, 0
7, 25200, Note_on_c, 9, 64, 64
7, 25232, Note_on_c, 9, 64, 0
7, 25380, Note_on_c, 9, 64, 66
7, 25407, Note_on_c, 9, 64, 0
7, 25560, Note_on_c, 9, 64, 86
7, 25587, Note_on_c, 9, 64, 0
7, 25740, Note_on_c, 9, 64, 78
7, 25761, Note_on_c, 9, 64, 0
7, 25980, Note_on_c, 9, 64, 77
7, 26007, Note_on_c, 9, 64, 0
7, 26160, Note_on_c, 9, 64, 64
7, 26192, Note_on_c, 9, 64, 0
7, 26340, Note_on_c, 9, 64, 66
7, 26367, Note_on_c, 9, 64, 0
7, 26520, Note_on_c, 9, 64, 86
7, 26547, Note_on_c, 9, 64, 0
7, 26700, Note_on_c, 9, 64, 78
7, 26721, Note_on_c, 9, 64, 0
7, 26940, Note_on_c, 9, 64, 77
7, 26967, Note_on_c, 9, 64, 0
7, 27120, Note_on_c, 9, 64, 64
7, 27152, Note_on_c, 9, 64, 0
7, 27300, Note_on_c, 9, 64, 66
7, 27327, Note_on_c, 9, 64, 0
7, 27480, Note_on_c, 9, 64, 86
7, 27507, Note_on_c, 9, 64, 0
7, 27660, Note_on_c, 9, 64, 78
7, 27681, Note_on_c, 9, 64, 0
7, 27900, Note_on_c, 9, 64, 77
7, 27927, Note_on_c, 9, 64, 0
7, 28080, Note_on_c, 9, 64, 64
7, 28112, Note_on_c, 9, 64, 0
7, 28260, Note_on_c, 9, 64, 66
7, 28287, Note_on_c, 9, 64, 0
7, 28440, Note_on_c, 9, 64, 86
7, 28467, Note_on_c, 9, 64, 0
7, 28620, Note_on_c, 9, 64, 78
7, 28641, Note_on_c, 9, 64, 0
7, 28860, Note_on_c, 9, 64, 77
7, 28887, Note_on_c, 9, 64, 0
7, 29040, Note_on_c, 9, 64, 64
7, 29072, Note_on_c, 9, 64, 0
7, 29220, Note_on_c, 9, 64, 66
7, 29247, Note_on_c, 9, 64, 0
7, 29400, Note_on_c, 9, 64, 86
7, 29427, Note_on_c, 9, 64, 0
7, 29580, Note_on_c, 9, 64, 78
7, 29601, Note_on_c, 9, 64, 0
7, 29820, Note_on_c, 9, 64, 77
7, 29847, Note_on_c, 9, 64, 0
7, 30000, Note_on_c, 9, 64, 64
7, 30032, Note_on_c, 9, 64, 0
7, 30180, Note_on_c, 9, 64, 66
7, 30207, Note_on_c, 9, 64, 0
7, 30360, Note_on_c, 9, 64, 86
7, 30387, Note_on_c, 9, 64, 0
7, 30540, Note_on_c, 9, 64, 78
7, 30561, Note_on_c, 9, 64, 0
7, 30780, Note_on_c, 9, 64, 77
7, 30807, Note_on_c, 9, 64, 0
7, 30960, Note_on_c, 9, 64, 64
7, 30992, Note_on_c, 9, 64, 0
7, 31140, Note_on_c, 9, 64, 66
7, 31167, Note_on_c, 9, 64, 0
7, 31320, Note_on_c, 9, 64, 86
7, 31347, Note_on_c, 9, 64, 0
7, 31500, Note_on_c, 9, 64, 78
7, 31521, Note_on_c, 9, 64, 0
7, 31800, Note_on_c, 9, 64, 86
7, 31827, Note_on_c, 9, 64, 0
7, 31980, Note_on_c, 9, 64, 78
7, 32001, Note_on_c, 9, 64, 0
7, 32280, Note_on_c, 9, 64, 86
7, 32307, Note_on_c, 9, 64, 0
7, 32460, Note_on_c, 9, 64, 78
7, 32481, Note_on_c, 9, 64, 0
7, 32760, Note_on_c, 9, 64, 86
7, 32787, Note_on_c, 9, 64, 0
7, 32940, Note_on_c, 9, 64, 78
7, 32961, Note_on_c, 9, 64, 0
7, 33240, Note_on_c, 9, 64, 86
7, 33267, Note_on_c, 9, 64, 0
7, 33420, Note_on_c, 9, 64, 78
7, 33441, Note_on_c, 9, 64, 0
7, 33720, Note_on_c, 9, 64, 86
7, 33747, Note_on_c, 9, 64, 0
7, 33900, Note_on_c, 9, 64, 78
7, 33921, Note_on_c, 9, 64, 0
7, 34200, Note_on_c, 9, 64, 86
7, 34227, Note_on_c, 9, 64, 0
7, 34380, Note_on_c, 9, 64, 78
7, 34401, Note_on_c, 9, 64, 0
7, 34680, Note_on_c, 9, 64, 86
7, 34707, Note_on_c, 9, 64, 0
7, 34860, Note_on_c, 9, 64, 78
7, 34881, Note_on_c, 9, 64, 0
7, 35160, Note_on_c, 9, 64, 86
7, 35187, Note_on_c, 9, 64, 0
7, 35340, Note_on_c, 9, 64, 78
7, 35361, Note_on_c, 9, 64, 0
7, 35640, Note_on_c, 9, 64, 86
7, 35667, Note_on_c, 9, 64, 0
7, 35820, Note_on_c, 9, 64, 78
7, 35841, Note_on_c, 9, 64, 0
7, 36120, Note_on_c, 9, 64, 86
7, 36147, Note_on_c, 9, 64, 0
7, 36300, Note_on_c, 9, 64, 78
7, 36321, Note_on_c, 9, 64, 0
7, 36600, Note_on_c, 9, 64, 86
7, 36627, Note_on_c, 9, 64, 0
7, 36780, Note_on_c, 9, 64, 78
7, 36801, Note_on_c, 9, 64, 0
7, 37080, Note_on_c, 9, 64, 86
7, 37107, Note_on_c, 9, 64, 0
7, 37260, Note_on_c, 9, 64, 78
7, 37281, Note_on_c, 9, 64, 0
7, 37560, Note_on_c, 9, 64, 86
7, 37587, Note_on_c, 9, 64, 0
7, 37740, Note_on_c, 9, 64, 78
7, 37761, Note_on_c, 9, 64, 0
7, 38040, Note_on_c, 9, 64, 86
7, 38067, Note_on_c, 9, 64, 0
7, 38220, Note_on_c, 9, 64, 78
7, 38241, Note_on_c, 9, 64, 0
7, 38520, Note_on_c, 9, 64, 86
7, 38547, Note_on_c, 9, 64, 0
7, 38700, Note_on_c, 9, 64, 78
7, 38721, Note_on_c, 9, 64, 0
7, 39000, Note_on_c, 9, 64, 86
7, 39027, Note_on_c, 9, 64, 0
7, 39180, Note_on_c, 9, 64, 78
7, 39201, Note_on_c, 9, 64, 0
7, 39480, Note_on_c, 9, 64, 86
7, 39507, Note_on_c, 9, 64, 0
7, 39660, Note_on_c, 9, 64, 78
7, 39681, Note_on_c, 9, 64, 0
7, 39960, Note_on_c, 9, 64, 86
7, 39987, Note_on_c, 9, 64, 0
7, 40140, Note_on_c, 9, 64, 78
7, 40161, Note_on_c, 9, 64, 0
7, 40440, Note_on_c, 9, 64, 86
7, 40467, Note_on_c, 9, 64, 0
7, 40620, Note_on_c, 9, 64, 78
7, 40641, Note_on_c, 9, 64, 0
7, 40920, Note_on_c, 9, 64, 86
7, 40947, Note_on_c, 9, 64, 0
7, 41100, Note_on_c, 9, 64, 78
7, 41121, Note_on_c, 9, 64, 0
7, 41400, Note_on_c, 9, 64, 86
7, 41427, Note_on_c, 9, 64, 0
7, 41580, Note_on_c, 9, 64, 78
7, 41601, Note_on_c, 9, 64, 0
7, 41880, Note_on_c, 9, 64, 86
7, 41907, Note_on_c, 9, 64, 0
7, 42060, Note_on_c, 9, 64, 78
7, 42081, Note_on_c, 9, 64, 0
7, 42360, Note_on_c, 9, 64, 86
7, 42387, Note_on_c, 9, 64, 0
7, 42540, Note_on_c, 9, 64, 78
7, 42561, Note_on_c, 9, 64, 0
7, 42840, Note_on_c, 9, 64, 86
7, 42867, Note_on_c, 9, 64, 0
7, 43020, Note_on_c, 9, 64, 78
7, 43041, Note_on_c, 9, 64, 0
7, 43320, Note_on_c, 9, 64, 86
7, 43347, Note_on_c, 9, 64, 0
7, 43500, Note_on_c, 9, 64, 78
7, 43521, Note_on_c, 9, 64, 0
7, 43800, Note_on_c, 9, 64, 86
7, 43827, Note_on_c, 9, 64, 0
7, 43980, Note_on_c, 9, 64, 78
7, 44001, Note_on_c, 9, 64, 0
7, 44280, Note_on_c, 9, 64, 86
7, 44307, Note_on_c, 9, 64, 0
7, 44460, Note_on_c, 9, 64, 78
7, 44481, Note_on_c, 9, 64, 0
7, 44760, Note_on_c, 9, 64, 86
7, 44787, Note_on_c, 9, 64, 0
7, 44940, Note_on_c, 9, 64, 78
7, 44961, Note_on_c, 9, 64, 0
7, 45240, Note_on_c, 9, 64, 86
7, 45267, Note_on_c, 9, 64, 0
7, 45420, Note_on_c, 9, 64, 78
7, 45441, Note_on_c, 9, 64, 0
7, 45720, Note_on_c, 9, 64, 86
7, 45747, Note_on_c, 9, 64, 0
7, 45900, Note_on_c, 9, 64, 78
7, 45921, Note_on_c, 9, 64, 0
7, 53880, Note_on_c, 9, 64, 86
7, 53907, Note_on_c, 9, 64, 0
7, 54060, Note_on_c, 9, 64, 78
7, 54081, Note_on_c, 9, 64, 0
7, 54360, Note_on_c, 9, 64, 86
7, 54387, Note_on_c, 9, 64, 0
7, 54540, Note_on_c, 9, 64, 78
7, 54561, Note_on_c, 9, 64, 0
7, 54840, Note_on_c, 9, 64, 86
7, 54867, Note_on_c, 9, 64, 0
7, 55020, Note_on_c, 9, 64, 78
7, 55041, Note_on_c, 9, 64, 0
7, 55320, Note_on_c, 9, 64, 86
7, 55347, Note_on_c, 9, 64, 0
7, 55500, Note_on_c, 9, 64, 78
7, 55521, Note_on_c, 9, 64, 0
7, 55800, Note_on_c, 9, 64, 86
7, 55827, Note_on_c, 9, 64, 0
7, 55980, Note_on_c, 9, 64, 78
7, 56001, Note_on_c, 9, 64, 0
7, 56280, Note_on_c, 9, 64, 86
7, 56307, Note_on_c, 9, 64, 0
7, 56460, Note_on_c, 9, 64, 78
7, 56481, Note_on_c, 9, 64, 0
7, 56760, Note_on_c, 9, 64, 86
7, 56787, Note_on_c, 9, 64, 0
7, 56940, Note_on_c, 9, 64, 78
7, 56961, Note_on_c, 9, 64, 0
7, 57240, Note_on_c, 9, 64, 86
7, 57267, Note_on_c, 9, 64, 0
7, 57420, Note_on_c, 9, 64, 78
7, 57441, Note_on_c, 9, 64, 0
7, 57720, Note_on_c, 9, 64, 86
7, 57747, Note_on_c, 9, 64, 0
7, 57900, Note_on_c, 9, 64, 78
7, 57921, Note_on_c, 9, 64, 0
7, 58200, Note_on_c, 9, 64, 86
7, 58227, Note_on_c, 9, 64, 0
7, 58380, Note_on_c, 9, 64, 78
7, 58401, Note_on_c, 9, 64, 0
7, 58680, Note_on_c, 9, 64, 86
7, 58707, Note_on_c, 9, 64, 0
7, 58860, Note_on_c, 9, 64, 78
7, 58881, Note_on_c, 9, 64, 0
7, 59160, Note_on_c, 9, 64, 86
7, 59187, Note_on_c, 9, 64, 0
7, 59340, Note_on_c, 9, 64, 78
7, 59361, Note_on_c, 9, 64, 0
7, 59640, Note_on_c, 9, 64, 86
7, 59667, Note_on_c, 9, 64, 0
7, 59820, Note_on_c, 9, 64, 78
7, 59841, Note_on_c, 9, 64, 0
7, 60120, Note_on_c, 9, 64, 86
7, 60147, Note_on_c, 9, 64, 0
7, 60300, Note_on_c, 9, 64, 78
7, 60321, Note_on_c, 9, 64, 0
7, 60600, Note_on_c, 9, 64, 86
7, 60627, Note_on_c, 9, 64, 0
7, 60780, Note_on_c, 9, 64, 78
7, 60801, Note_on_c, 9, 64, 0
7, 61080, Note_on_c, 9, 64, 86
7, 61107, Note_on_c, 9, 64, 0
7, 61260, Note_on_c, 9, 64, 78
7, 61281, Note_on_c, 9, 64, 0
7, 61560, Note_on_c, 9, 64, 86
7, 61587, Note_on_c, 9, 64, 0
7, 61740, Note_on_c, 9, 64, 78
7, 61761, Note_on_c, 9, 64, 0
7, 62040, Note_on_c, 9, 64, 86
7, 62067, Note_on_c, 9, 64, 0
7, 62220, Note_on_c, 9, 64, 78
7, 62241, Note_on_c, 9, 64, 0
7, 62520, Note_on_c, 9, 64, 86
7, 62547, Note_on_c, 9, 64, 0
7, 62700, Note_on_c, 9, 64, 78
7, 62721, Note_on_c, 9, 64, 0
7, 63000, Note_on_c, 9, 64, 86
7, 63027, Note_on_c, 9, 64, 0
7, 63180, Note_on_c, 9, 64, 78
7, 63201, Note_on_c, 9, 64, 0
7, 63480, Note_on_c, 9, 64, 86
7, 63507, Note_on_c, 9, 64, 0
7, 63660, Note_on_c, 9, 64, 78
7, 63681, Note_on_c, 9, 64, 0
7, 63960, Note_on_c, 9, 64, 86
7, 63987, Note_on_c, 9, 64, 0
7, 64140, Note_on_c, 9, 64, 78
7, 64161, Note_on_c, 9, 64, 0
7, 64440, Note_on_c, 9, 64, 86
7, 64467, Note_on_c, 9, 64, 0
7, 64620, Note_on_c, 9, 64, 78
7, 64641, Note_on_c, 9, 64, 0
7, 64920, Note_on_c, 9, 64, 86
7, 64947, Note_on_c, 9, 64, 0
7, 65100, Note_on_c, 9, 64, 78
7, 65121, Note_on_c, 9, 64, 0
7, 65400, Note_on_c, 9, 64, 86
7, 65427, Note_on_c, 9, 64, 0
7, 65580, Note_on_c, 9, 64, 78
7, 65601, Note_on_c, 9, 64, 0
7, 65880, Note_on_c, 9, 64, 86
7, 65907, Note_on_c, 9, 64, 0
7, 66060, Note_on_c, 9, 64, 78
7, 66081, Note_on_c, 9, 64, 0
7, 66081, End_track
8, 0, Start_track
8, 0, MIDI_port, 0
8, 0, Title_t, "CONGA HI"
8, 120, Note_on_c, 9, 63, 57
8, 154, Note_on_c, 9, 63, 0
8, 300, Note_on_c, 9, 63, 74
8, 330, Note_on_c, 9, 63, 0
8, 480, Note_on_c, 9, 63, 74
8, 503, Note_on_c, 9, 63, 0
8, 660, Note_on_c, 9, 63, 75
8, 680, Note_on_c, 9, 63, 0
8, 810, Note_on_c, 9, 63, 90
8, 827, Note_on_c, 9, 63, 0
8, 1080, Note_on_c, 9, 63, 57
8, 1114, Note_on_c, 9, 63, 0
8, 1260, Note_on_c, 9, 63, 74
8, 1290, Note_on_c, 9, 63, 0
8, 1440, Note_on_c, 9, 63, 74
8, 1463, Note_on_c, 9, 63, 0
8, 1620, Note_on_c, 9, 63, 75
8, 1640, Note_on_c, 9, 63, 0
8, 1770, Note_on_c, 9, 63, 90
8, 1787, Note_on_c, 9, 63, 0
8, 2040, Note_on_c, 9, 63, 57
8, 2074, Note_on_c, 9, 63, 0
8, 2220, Note_on_c, 9, 63, 74
8, 2250, Note_on_c, 9, 63, 0
8, 2400, Note_on_c, 9, 63, 74
8, 2423, Note_on_c, 9, 63, 0
8, 2580, Note_on_c, 9, 63, 75
8, 2600, Note_on_c, 9, 63, 0
8, 2730, Note_on_c, 9, 63, 90
8, 2747, Note_on_c, 9, 63, 0
8, 3000, Note_on_c, 9, 63, 57
8, 3034, Note_on_c, 9, 63, 0
8, 3180, Note_on_c, 9, 63, 74
8, 3210, Note_on_c, 9, 63, 0
8, 3360, Note_on_c, 9, 63, 74
8, 3383, Note_on_c, 9, 63, 0
8, 3540, Note_on_c, 9, 63, 75
8, 3560, Note_on_c, 9, 63, 0
8, 3690, Note_on_c, 9, 63, 90
8, 3707, Note_on_c, 9, 63, 0
8, 3960, Note_on_c, 9, 63, 57
8, 3994, Note_on_c, 9, 63, 0
8, 4140, Note_on_c, 9, 63, 74
8, 4170, Note_on_c, 9, 63, 0
8, 4320, Note_on_c, 9, 63, 74
8, 4343, Note_on_c, 9, 63, 0
8, 4500, Note_on_c, 9, 63, 75
8, 4520, Note_on_c, 9, 63, 0
8, 4650, Note_on_c, 9, 63, 90
8, 4667, Note_on_c, 9, 63, 0
8, 4920, Note_on_c, 9, 63, 57
8, 4954, Note_on_c, 9, 63, 0
8, 5100, Note_on_c, 9, 63, 74
8, 5130, Note_on_c, 9, 63, 0
8, 5280, Note_on_c, 9, 63, 74
8, 5303, Note_on_c, 9, 63, 0
8, 5460, Note_on_c, 9, 63, 75
8, 5480, Note_on_c, 9, 63, 0
8, 5610, Note_on_c, 9, 63, 90
8, 5627, Note_on_c, 9, 63, 0
8, 5880, Note_on_c, 9, 63, 57
8, 5914, Note_on_c, 9, 63, 0
8, 6060, Note_on_c, 9, 63, 74
8, 6090, Note_on_c, 9, 63, 0
8, 6240, Note_on_c, 9, 63, 74
8, 6263, Note_on_c, 9, 63, 0
8, 6420, Note_on_c, 9, 63, 75
8, 6440, Note_on_c, 9, 63, 0
8, 6570, Note_on_c, 9, 63, 90
8, 6587, Note_on_c, 9, 63, 0
8, 6840, Note_on_c, 9, 63, 57
8, 6874, Note_on_c, 9, 63, 0
8, 7020, Note_on_c, 9, 63, 74
8, 7050, Note_on_c, 9, 63, 0
8, 7200, Note_on_c, 9, 63, 74
8, 7223, Note_on_c, 9, 63, 0
8, 7380, Note_on_c, 9, 63, 75
8, 7400, Note_on_c, 9, 63, 0
8, 7530, Note_on_c, 9, 63, 90
8, 7547, Note_on_c, 9, 63, 0
8, 7800, Note_on_c, 9, 63, 57
8, 7834, Note_on_c, 9, 63, 0
8, 7980, Note_on_c, 9, 63, 74
8, 8010, Note_on_c, 9, 63, 0
8, 8160, Note_on_c, 9, 63, 74
8, 8183, Note_on_c, 9, 63, 0
8, 8340, Note_on_c, 9, 63, 75
8, 8360, Note_on_c, 9, 63, 0
8, 8490, Note_on_c, 9, 63, 90
8, 8507, Note_on_c, 9, 63, 0
8, 8760, Note_on_c, 9, 63, 57
8, 8794, Note_on_c, 9, 63, 0
8, 8940, Note_on_c, 9, 63, 74
8, 8970, Note_on_c, 9, 63, 0
8, 9120, Note_on_c, 9, 63, 74
8, 9143, Note_on_c, 9, 63, 0
8, 9300, Note_on_c, 9, 63, 75
8, 9320, Note_on_c, 9, 63, 0
8, 9450, Note_on_c, 9, 63, 90
8, 9467, Note_on_c, 9, 63, 0
8, 9720, Note_on_c, 9, 63, 57
8, 9754, Note_on_c, 9, 63, 0
8, 9900, Note_on_c, 9, 63, 74
8, 9930, Note_on_c, 9, 63, 0
8, 10080, Note_on_c, 9, 63, 74
8, 10103, Note_on_c, 9, 63, 0
8, 10260, Note_on_c, 9, 63, 75
8, 10280, Note_on_c, 9, 63, 0
8, 10410, Note_on_c, 9, 63, 90
8, 10427, Note_on_c, 9, 63, 0
8, 10680, Note_on_c, 9, 63, 57
8, 10714, Note_on_c, 9, 63, 0
8, 10860, Note_on_c, 9, 63, 74
8, 10890, Note_on_c, 9, 63, 0
8, 11040, Note_on_c, 9, 63, 74
8, 11063, Note_on_c, 9, 63, 0
8, 11220, Note_on_c, 9, 63, 75
8, 11240, Note_on_c, 9, 63, 0
8, 11370, Note_on_c, 9, 63, 90
8, 11387, Note_on_c, 9, 63, 0
8, 11640, Note_on_c, 9, 63, 57
8, 11674, Note_on_c, 9, 63, 0
8, 11820, Note_on_c, 9, 63, 74
8, 11850, Note_on_c, 9, 63, 0
8, 12000, Note_on_c, 9, 63, 74
8, 12023, Note_on_c, 9, 63, 0
8, 12180, Note_on_c, 9, 63, 75
8, 12200, Note_on_c, 9, 63, 0
8, 12330, Note_on_c, 9, 63, 90
8, 12347, Note_on_c, 9, 63, 0
8, 12600, Note_on_c, 9, 63, 57
8, 12634, Note_on_c, 9, 63, 0
8, 12780, Note_on_c, 9, 63, 74
8, 12810, Note_on_c, 9, 63, 0
8, 12960, Note_on_c, 9, 63, 74
8, 12983, Note_on_c, 9, 63, 0
8, 13140, Note_on_c, 9, 63, 75
8, 13160, Note_on_c, 9, 63, 0
8, 13290, Note_on_c, 9, 63, 90
8, 13307, Note_on_c, 9, 63, 0
8, 13560, Note_on_c, 9, 63, 57
8, 13594, Note_on_c, 9, 63, 0
8, 13740, Note_on_c, 9, 63, 74
8, 13770, Note_on_c, 9, 63, 0
8, 13920, Note_on_c, 9, 63, 74
8, 13943, Note_on_c, 9, 63, 0
8, 14100, Note_on_c, 9, 63, 75
8, 14120, Note_on_c, 9, 63, 0
8, 14250, Note_on_c, 9, 63, 90
8, 14267, Note_on_c, 9, 63, 0
8, 14520, Note_on_c, 9, 63, 57
8, 14554, Note_on_c, 9, 63, 0
8, 14700, Note_on_c, 9, 63, 74
8, 14730, Note_on_c, 9, 63, 0
8, 14880, Note_on_c, 9, 63, 74
8, 14903, Note_on_c, 9, 63, 0
8, 15060, Note_on_c, 9, 63, 75
8, 15080, Note_on_c, 9, 63, 0
8, 15210, Note_on_c, 9, 63, 90
8, 15227, Note_on_c, 9, 63, 0
8, 15480, Note_on_c, 9, 63, 57
8, 15514, Note_on_c, 9, 63, 0
8, 15660, Note_on_c, 9, 63, 74
8, 15690, Note_on_c, 9, 63, 0
8, 15840, Note_on_c, 9, 63, 74
8, 15863, Note_on_c, 9, 63, 0
8, 16020, Note_on_c, 9, 63, 75
8, 16040, Note_on_c, 9, 63, 0
8, 16170, Note_on_c, 9, 63, 90
8, 16187, Note_on_c, 9, 63, 0
8, 16440, Note_on_c, 9, 63, 57
8, 16474, Note_on_c, 9, 63, 0
8, 16620, Note_on_c, 9, 63, 74
8, 16650, Note_on_c, 9, 63, 0
8, 16800, Note_on_c, 9, 63, 74
8, 16823, Note_on_c, 9, 63, 0
8, 16980, Note_on_c, 9, 63, 75
8, 17000, Note_on_c, 9, 63, 0
8, 17130, Note_on_c, 9, 63, 90
8, 17147, Note_on_c, 9, 63, 0
8, 17400, Note_on_c, 9, 63, 57
8, 17434, Note_on_c, 9, 63, 0
8, 17580, Note_on_c, 9, 63, 74
8, 17610, Note_on_c, 9, 63, 0
8, 17760, Note_on_c, 9, 63, 74
8, 17783, Note_on_c, 9, 63, 0
8, 17940, Note_on_c, 9, 63, 75
8, 17960, Note_on_c, 9, 63, 0
8, 18090, Note_on_c, 9, 63, 90
8, 18107, Note_on_c, 9, 63, 0
8, 18360, Note_on_c, 9, 63, 57
8, 18394, Note_on_c, 9, 63, 0
8, 18540, Note_on_c, 9, 63, 74
8, 18570, Note_on_c, 9, 63, 0
8, 18720, Note_on_c, 9, 63, 74
8, 18743, Note_on_c, 9, 63, 0
8, 18900, Note_on_c, 9, 63, 75
8, 18920, Note_on_c, 9, 63, 0
8, 19050, Note_on_c, 9, 63, 90
8, 19067, Note_on_c, 9, 63, 0
8, 19320, Note_on_c, 9, 63, 57
8, 19354, Note_on_c, 9, 63, 0
8, 19500, Note_on_c, 9, 63, 74
8, 19530, Note_on_c, 9, 63, 0
8, 19680, Note_on_c, 9, 63, 74
8, 19703, Note_on_c, 9, 63, 0
8, 19860, Note_on_c, 9, 63, 75
8, 19880, Note_on_c, 9, 63, 0
8, 20010, Note_on_c, 9, 63, 90
8, 20027, Note_on_c, 9, 63, 0
8, 20280, Note_on_c, 9, 63, 57
8, 20314, Note_on_c, 9, 63, 0
8, 20460, Note_on_c, 9, 63, 74
8, 20490, Note_on_c, 9, 63, 0
8, 20640, Note_on_c, 9, 63, 74
8, 20663, Note_on_c, 9, 63, 0
8, 20820, Note_on_c, 9, 63, 75
8, 20840, Note_on_c, 9, 63, 0
8, 20970, Note_on_c, 9, 63, 90
8, 20987, Note_on_c, 9, 63, 0
8, 21240, Note_on_c, 9, 63, 57
8, 21274, Note_on_c, 9, 63, 0
8, 21420, Note_on_c, 9, 63, 74
8, 21450, Note_on_c, 9, 63, 0
8, 21600, Note_on_c, 9, 63, 74
8, 21623, Note_on_c, 9, 63, 0
8, 21780, Note_on_c, 9, 63, 75
8, 21800, Note_on_c, 9, 63, 0
8, 21930, Note_on_c, 9, 63, 90
8, 21947, Note_on_c, 9, 63, 0
8, 22200, Note_on_c, 9, 63, 57
8, 22234, Note_on_c, 9, 63, 0
8, 22380, Note_on_c, 9, 63, 74
8, 22410, Note_on_c, 9, 63, 0
8, 22560, Note_on_c, 9, 63, 74
8, 22583, Note_on_c, 9, 63, 0
8, 22740, Note_on_c, 9, 63, 75
8, 22760, Note_on_c, 9, 63, 0
8, 22890, Note_on_c, 9, 63, 90
8, 22907, Note_on_c, 9, 63, 0
8, 23160, Note_on_c, 9, 63, 57
8, 23194, Note_on_c, 9, 63, 0
8, 23340, Note_on_c, 9, 63, 74
8, 23370, Note_on_c, 9, 63, 0
8, 23520, Note_on_c, 9, 63, 74
8, 23543, Note_on_c, 9, 63, 0
8, 23700, Note_on_c, 9, 63, 75
8, 23720, Note_on_c, 9, 63, 0
8, 23850, Note_on_c, 9, 63, 90
8, 23867, Note_on_c, 9, 63, 0
8, 24120, Note_on_c, 9, 63, 57
8, 24154, Note_on_c, 9, 63, 0
8, 24300, Note_on_c, 9, 63, 74
8, 24330, Note_on_c, 9, 63, 0
8, 24480, Note_on_c, 9, 63, 74
8, 24503, Note_on_c, 9, 63, 0
8, 24660, Note_on_c, 9, 63, 75
8, 24680, Note_on_c, 9, 63, 0
8, 24810, Note_on_c, 9, 63, 90
8, 24827, Note_on_c, 9, 63, 0
8, 25080, Note_on_c, 9, 63, 57
8, 25114, Note_on_c, 9, 63, 0
8, 25260, Note_on_c, 9, 63, 74
8, 25290, Note_on_c, 9, 63, 0
8, 25440, Note_on_c, 9, 63, 74
8, 25463, Note_on_c, 9, 63, 0
8, 25620, Note_on_c, 9, 63, 75
8, 25640, Note_on_c, 9, 63, 0
8, 25770, Note_on_c, 9, 63, 90
8, 25787, Note_on_c, 9, 63, 0
8, 26040, Note_on_c, 9, 63, 57
8, 26074, Note_on_c, 9, 63, 0
8, 26220, Note_on_c, 9, 63, 74
8, 26250, Note_on_c, 9, 63, 0
8, 26400, Note_on_c, 9, 63, 74
8, 26423, Note_on_c, 9, 63, 0
8, 26580, Note_on_c, 9, 63, 75
8, 26600, Note_on_c, 9, 63, 0
8, 26730, Note_on_c, 9, 63, 90
8, 26747, Note_on_c, 9, 63, 0
8, 27000, Note_on_c, 9, 63, 57
8, 27034, Note_on_c, 9, 63, 0
8, 27180, Note_on_c, 9, 63, 74
8, 27210, Note_on_c, 9, 63, 0
8, 27360, Note_on_c, 9, 63, 74
8, 27383, Note_on_c, 9, 63, 0
8, 27540, Note_on_c, 9, 63, 75
8, 27560, Note_on_c, 9, 63, 0
8, 27690, Note_on_c, 9, 63, 90
8, 27707, Note_on_c, 9, 63, 0
8, 27960, Note_on_c, 9, 63, 57
8, 27994, Note_on_c, 9, 63, 0
8, 28140, Note_on_c, 9, 63, 74
8, 28170, Note_on_c, 9, 63, 0
8, 28320, Note_on_c, 9, 63, 74
8, 28343, Note_on_c, 9, 63, 0
8, 28500, Note_on_c, 9, 63, 75
8, 28520, Note_on_c, 9, 63, 0
8, 28650, Note_on_c, 9, 63, 90
8, 28667, Note_on_c, 9, 63, 0
8, 28920, Note_on_c, 9, 63, 57
8, 28954, Note_on_c, 9, 63, 0
8, 29100, Note_on_c, 9, 63, 74
8, 29130, Note_on_c, 9, 63, 0
8, 29280, Note_on_c, 9, 63, 74
8, 29303, Note_on_c, 9, 63, 0
8, 29460, Note_on_c, 9, 63, 75
8, 29480, Note_on_c, 9, 63, 0
8, 29610, Note_on_c, 9, 63, 90
8, 29627, Note_on_c, 9, 63, 0
8, 29880, Note_on_c, 9, 63, 57
8, 29914, Note_on_c, 9, 63, 0
8, 30060, Note_on_c, 9, 63, 74
8, 30090, Note_on_c, 9, 63, 0
8, 30240, Note_on_c, 9, 63, 74
8, 30263, Note_on_c, 9, 63, 0
8, 30420, Note_on_c, 9, 63, 75
8, 30440, Note_on_c, 9, 63, 0
8, 30570, Note_on_c, 9, 63, 90
8, 30587, Note_on_c, 9, 63, 0
8, 30840, Note_on_c, 9, 63, 57
8, 30874, Note_on_c, 9, 63, 0
8, 31020, Note_on_c, 9, 63, 74
8, 31050, Note_on_c, 9, 63, 0
8, 31200, Note_on_c, 9, 63, 74
8, 31223, Note_on_c, 9, 63, 0
8, 31380, Note_on_c, 9, 63, 75
8, 31400, Note_on_c, 9, 63, 0
8, 31530, Note_on_c, 9, 63, 90
8, 31547, Note_on_c, 9, 63, 0
8, 31680, Note_on_c, 9, 63, 74
8, 31703, Note_on_c, 9, 63, 0
8, 31860, Note_on_c, 9, 63, 75
8, 31880, Note_on_c, 9, 63, 0
8, 32010, Note_on_c, 9, 63, 90
8, 32027, Note_on_c, 9, 63, 0
8, 32160, Note_on_c, 9, 63, 74
8, 32183, Note_on_c, 9, 63, 0
8, 32340, Note_on_c, 9, 63, 75
8, 32360, Note_on_c, 9, 63, 0
8, 32490, Note_on_c, 9, 63, 90
8, 32507, Note_on_c, 9, 63, 0
8, 32640, Note_on_c, 9, 63, 74
8, 32663, Note_on_c, 9, 63, 0
8, 32820, Note_on_c, 9, 63, 75
8, 32840, Note_on_c, 9, 63, 0
8, 32970, Note_on_c, 9, 63, 90
8, 32987, Note_on_c, 9, 63, 0
8, 33120, Note_on_c, 9, 63, 74
8, 33143, Note_on_c, 9, 63, 0
8, 33300, Note_on_c, 9, 63, 75
8, 33320, Note_on_c, 9, 63, 0
8, 33450, Note_on_c, 9, 63, 90
8, 33467, Note_on_c, 9, 63, 0
8, 33600, Note_on_c, 9, 63, 74
8, 33623, Note_on_c, 9, 63, 0
8, 33780, Note_on_c, 9, 63, 75
8, 33800, Note_on_c, 9, 63, 0
8, 33930, Note_on_c, 9, 63, 90
8, 33947, Note_on_c, 9, 63, 0
8, 34080, Note_on_c, 9, 63, 74
8, 34103, Note_on_c, 9, 63, 0
8, 34260, Note_on_c, 9, 63, 75
8, 34280, Note_on_c, 9, 63, 0
8, 34410, Note_on_c, 9, 63, 90
8, 34427, Note_on_c, 9, 63, 0
8, 34560, Note_on_c, 9, 63, 74
8, 34583, Note_on_c, 9, 63, 0
8, 34740, Note_on_c, 9, 63, 75
8, 34760, Note_on_c, 9, 63, 0
8, 34890, Note_on_c, 9, 63, 90
8, 34907, Note_on_c, 9, 63, 0
8, 35040, Note_on_c, 9, 63, 74
8, 35063, Note_on_c, 9, 63, 0
8, 35220, Note_on_c, 9, 63, 75
8, 35240, Note_on_c, 9, 63, 0
8, 35370, Note_on_c, 9, 63, 90
8, 35387, Note_on_c, 9, 63, 0
8, 35520, Note_on_c, 9, 63, 74
8, 35543, Note_on_c, 9, 63, 0
8, 35700, Note_on_c, 9, 63, 75
8, 35720, Note_on_c, 9, 63, 0
8, 35850, Note_on_c, 9, 63, 90
8, 35867, Note_on_c, 9, 63, 0
8, 36000, Note_on_c, 9, 63, 74
8, 36023, Note_on_c, 9, 63, 0
8, 36180, Note_on_c, 9, 63, 75
8, 36200, Note_on_c, 9, 63, 0
8, 36330, Note_on_c, 9, 63, 90
8, 36347, Note_on_c, 9, 63, 0
8, 36480, Note_on_c, 9, 63, 74
8, 36503, Note_on_c, 9, 63, 0
8, 36660, Note_on_c, 9, 63, 75
8, 36680, Note_on_c, 9, 63, 0
8, 36810, Note_on_c, 9, 63, 90
8, 36827, Note_on_c, 9, 63, 0
8, 36960, Note_on_c, 9, 63, 74
8, 36983, Note_on_c, 9, 63, 0
8, 37140, Note_on_c, 9, 63, 75
8, 37160, Note_on_c, 9, 63, 0
8, 37290, Note_on_c, 9, 63, 90
8, 37307, Note_on_c, 9, 63, 0
8, 37440, Note_on_c, 9, 63, 74
8, 37463, Note_on_c, 9, 63, 0
8, 37620, Note_on_c, 9, 63, 75
8, 37640, Note_on_c, 9, 63, 0
8, 37770, Note_on_c, 9, 63, 90
8, 37787, Note_on_c, 9, 63, 0
8, 37920, Note_on_c, 9, 63, 74
8, 37943, Note_on_c, 9, 63, 0
8, 38100, Note_on_c, 9, 63, 75
8, 38120, Note_on_c, 9, 63, 0
8, 38250, Note_on_c, 9, 63, 90
8, 38267, Note_on_c, 9, 63, 0
8, 38400, Note_on_c, 9, 63, 74
8, 38423, Note_on_c, 9, 63, 0
8, 38580, Note_on_c, 9, 63, 75
8, 38600, Note_on_c, 9, 63, 0
8, 38730, Note_on_c, 9, 63, 90
8, 38747, Note_on_c, 9, 63, 0
8, 38880, Note_on_c, 9, 63, 74
8, 38903, Note_on_c, 9, 63, 0
8, 39060, Note_on_c, 9, 63, 75
8, 39080, Note_on_c, 9, 63, 0
8, 39210, Note_on_c, 9, 63, 90
8, 39227, Note_on_c, 9, 63, 0
8, 39360, Note_on_c, 9, 63, 74
8, 39383, Note_on_c, 9, 63, 0
8, 39540, Note_on_c, 9, 63, 75
8, 39560, Note_on_c, 9, 63, 0
8, 39690, Note_on_c, 9, 63, 90
8, 39707, Note_on_c, 9, 63, 0
8, 39840, Note_on_c, 9, 63, 74
8, 39863, Note_on_c, 9, 63, 0
8, 40020, Note_on_c, 9, 63, 75
8, 40040, Note_on_c, 9, 63, 0
8, 40170, Note_on_c, 9, 63, 90
8, 40187, Note_on_c, 9, 63, 0
8, 40320, Note_on_c, 9, 63, 74
8, 40343, Note_on_c, 9, 63, 0
8, 40500, Note_on_c, 9, 63, 75
8, 40520, Note_on_c, 9, 63, 0
8, 40650, Note_on_c, 9, 63, 90
8, 40667, Note_on_c, 9, 63, 0
8, 40800, Note_on_c, 9, 63, 74
8, 40823, Note_on_c, 9, 63, 0
8, 40980, Note_on_c, 9, 63, 75
8, 41000, Note_on_c, 9, 63, 0
8, 41130, Note_on_c, 9, 63, 90
8, 41147, Note_on_c, 9, 63, 0
8, 41280, Note_on_c, 9, 63, 74
8, 41303, Note_on_c, 9, 63, 0
8, 41460, Note_on_c, 9, 63, 75
8, 41480, Note_on_c, 9, 63, 0
8, 41610, Note_on_c, 9, 63, 90
8, 41627, Note_on_c, 9, 63, 0
8, 41760, Note_on_c, 9, 63, 74
8, 41783, Note_on_c, 9, 63, 0
8, 41940, Note_on_c, 9, 63, 75
8, 41960, Note_on_c, 9, 63, 0
8, 42090, Note_on_c, 9, 63, 90
8, 42107, Note_on_c, 9, 63, 0
8, 42240, Note_on_c, 9, 63, 74
8, 42263, Note_on_c, 9, 63, 0
8, 42420, Note_on_c, 9, 63, 75
8, 42440, Note_on_c, 9, 63, 0
8, 42570, Note_on_c, 9, 63, 90
8, 42587, Note_on_c, 9, 63, 0
8, 42720, Note_on_c, 9, 63, 74
8, 42743, Note_on_c, 9, 63, 0
8, 42900, Note_on_c, 9, 63, 75
8, 42920, Note_on_c, 9, 63, 0
8, 43050, Note_on_c, 9, 63, 90
8, 43067, Note_on_c, 9, 63, 0
8, 43200, Note_on_c, 9, 63, 74
8, 43223, Note_on_c, 9, 63, 0
8, 43380, Note_on_c, 9, 63, 75
8, 43400, Note_on_c, 9, 63, 0
8, 43530, Note_on_c, 9, 63, 90
8, 43547, Note_on_c, 9, 63, 0
8, 43680, Note_on_c, 9, 63, 74
8, 43703, Note_on_c, 9, 63, 0
8, 43860, Note_on_c, 9, 63, 75
8, 43880, Note_on_c, 9, 63, 0
8, 44010, Note_on_c, 9, 63, 90
8, 44027, Note_on_c, 9, 63, 0
8, 44160, Note_on_c, 9, 63, 74
8, 44183, Note_on_c, 9, 63, 0
8, 44340, Note_on_c, 9, 63, 75
8, 44360, Note_on_c, 9, 63, 0
8, 44490, Note_on_c, 9, 63, 90
8, 44507, Note_on_c, 9, 63, 0
8, 44640, Note_on_c, 9, 63, 74
8, 44663, Note_on_c, 9, 63, 0
8, 44820, Note_on_c, 9, 63, 75
8, 44840, Note_on_c, 9, 63, 0
8, 44970, Note_on_c, 9, 63, 90
8, 44987, Note_on_c, 9, 63, 0
8, 45120, Note_on_c, 9, 63, 74
8, 45143, Note_on_c, 9, 63, 0
8, 45300, Note_on_c, 9, 63, 75
8, 45320, Note_on_c, 9, 63, 0
8, 45450, Note_on_c, 9, 63, 90
8, 45467, Note_on_c, 9, 63, 0
8, 45600, Note_on_c, 9, 63, 74
8, 45623, Note_on_c, 9, 63, 0
8, 45780, Note_on_c, 9, 63, 75
8, 45800, Note_on_c, 9, 63, 0
8, 45930, Note_on_c, 9, 63, 90
8, 45947, Note_on_c, 9, 63, 0
8, 53760, Note_on_c, 9, 63, 74
8, 53783, Note_on_c, 9, 63, 0
8, 53940, Note_on_c, 9, 63, 75
8, 53960, Note_on_c, 9, 63, 0
8, 54090, Note_on_c, 9, 63, 90
8, 54107, Note_on_c, 9, 63, 0
8, 54240, Note_on_c, 9, 63, 74
8, 54263, Note_on_c, 9, 63, 0
8, 54420, Note_on_c, 9, 63, 75
8, 54440, Note_on_c, 9, 63, 0
8, 54570, Note_on_c, 9, 63, 90
8, 54587, Note_on_c, 9, 63, 0
8, 54720, Note_on_c, 9, 63, 74
8, 54743, Note_on_c, 9, 63, 0
8, 54900, Note_on_c, 9, 63, 75
8, 54920, Note_on_c, 9, 63, 0
8, 55050, Note_on_c, 9, 63, 90
8, 55067, Note_on_c, 9, 63, 0
8, 55200, Note_on_c, 9, 63, 74
8, 55223, Note_on_c, 9, 63, 0
8, 55380, Note_on_c, 9, 63, 75
8, 55400, Note_on_c, 9, 63, 0
8, 55530, Note_on_c, 9, 63, 90
8, 55547, Note_on_c, 9, 63, 0
8, 55680, Note_on_c, 9, 63, 74
8, 55703, Note_on_c, 9, 63, 0
8, 55860, Note_on_c, 9, 63, 75
8, 55880, Note_on_c, 9, 63, 0
8, 56010, Note_on_c, 9, 63, 90
8, 56027, Note_on_c, 9, 63, 0
8, 56160, Note_on_c, 9, 63, 74
8, 56183, Note_on_c, 9, 63, 0
8, 56340, Note_on_c, 9, 63, 75
8, 56360, Note_on_c, 9, 63, 0
8, 56490, Note_on_c, 9, 63, 90
8, 56507, Note_on_c, 9, 63, 0
8, 56640, Note_on_c, 9, 63, 74
8, 56663, Note_on_c, 9, 63, 0
8, 56820, Note_on_c, 9, 63, 75
8, 56840, Note_on_c, 9, 63, 0
8, 56970, Note_on_c, 9, 63, 90
8, 56987, Note_on_c, 9, 63, 0
8, 57120, Note_on_c, 9, 63, 74
8, 57143, Note_on_c, 9, 63, 0
8, 57300, Note_on_c, 9, 63, 75
8, 57320, Note_on_c, 9, 63, 0
8, 57450, Note_on_c, 9, 63, 90
8, 57467, Note_on_c, 9, 63, 0
8, 57600, Note_on_c, 9, 63, 74
8, 57623, Note_on_c, 9, 63, 0
8, 57780, Note_on_c, 9, 63, 75
8, 57800, Note_on_c, 9, 63, 0
8, 57930, Note_on_c, 9, 63, 90
8, 57947, Note_on_c, 9, 63, 0
8, 58080, Note_on_c, 9, 63, 74
8, 58103, Note_on_c, 9, 63, 0
8, 58260, Note_on_c, 9, 63, 75
8, 58280, Note_on_c, 9, 63, 0
8, 58410, Note_on_c, 9, 63, 90
8, 58427, Note_on_c, 9, 63, 0
8, 58560, Note_on_c, 9, 63, 74
8, 58583, Note_on_c, 9, 63, 0
8, 58740, Note_on_c, 9, 63, 75
8, 58760, Note_on_c, 9, 63, 0
8, 58890, Note_on_c, 9, 63, 90
8, 58907, Note_on_c, 9, 63, 0
8, 59040, Note_on_c, 9, 63, 74
8, 59063, Note_on_c, 9, 63, 0
8, 59220, Note_on_c, 9, 63, 75
8, 59240, Note_on_c, 9, 63, 0
8, 59370, Note_on_c, 9, 63, 90
8, 59387, Note_on_c, 9, 63, 0
8, 59520, Note_on_c, 9, 63, 74
8, 59543, Note_on_c, 9, 63, 0
8, 59700, Note_on_c, 9, 63, 75
8, 59720, Note_on_c, 9, 63, 0
8, 59850, Note_on_c, 9, 63, 90
8, 59867, Note_on_c, 9, 63, 0
8, 60000, Note_on_c, 9, 63, 74
8, 60023, Note_on_c, 9, 63, 0
8, 60180, Note_on_c, 9, 63, 75
8, 60200, Note_on_c, 9, 63, 0
8, 60330, Note_on_c, 9, 63, 90
8, 60347, Note_on_c, 9, 63, 0
8, 60480, Note_on_c, 9, 63, 74
8, 60503, Note_on_c, 9, 63, 0
8, 60660, Note_on_c, 9, 63, 75
8, 60680, Note_on_c, 9, 63, 0
8, 60810, Note_on_c, 9, 63, 90
8, 60827, Note_on_c, 9, 63, 0
8, 60960, Note_on_c, 9, 63, 74
8, 60983, Note_on_c, 9, 63, 0
8, 61140, Note_on_c, 9, 63, 75
8, 61160, Note_on_c, 9, 63, 0
8, 61290, Note_on_c, 9, 63, 90
8, 61307, Note_on_c, 9, 63, 0
8, 61440, Note_on_c, 9, 63, 74
8, 61463, Note_on_c, 9, 63, 0
8, 61620, Note_on_c, 9, 63, 75
8, 61640, Note_on_c, 9, 63, 0
8, 61681, Note_on_c, 9, 78, 64
8, 61695, Note_on_c, 9, 78, 0
8, 61711, Note_on_c, 9, 78, 64
8, 61726, Note_on_c, 9, 78, 0
8, 61743, Note_on_c, 9, 78, 64
8, 61758, Note_on_c, 9, 78, 0
8, 61770, Note_on_c, 9, 63, 90
8, 61773, Note_on_c, 9, 78, 64
8, 61787, Note_on_c, 9, 63, 0
8, 61788, Note_on_c, 9, 78, 0
8, 61803, Note_on_c, 9, 78, 64
8, 61817, Note_on_c, 9, 78, 0
8, 61861, Note_on_c, 9, 78, 64
8, 61873, Note_on_c, 9, 78, 0
8, 61920, Note_on_c, 9, 63, 74
8, 61921, Note_on_c, 9, 80, 64
8, 61927, Note_on_c, 9, 81, 64
8, 61943, Note_on_c, 9, 63, 0
8, 61975, Note_on_c, 9, 81, 0
8, 62027, Note_on_c, 9, 80, 0
8, 62032, Note_on_c, 9, 78, 64
8, 62044, Note_on_c, 9, 78, 0
8, 62100, Note_on_c, 9, 63, 75
8, 62108, Note_on_c, 9, 75, 64
8, 62120, Note_on_c, 9, 63, 0
8, 62158, Note_on_c, 9, 75, 0
8, 62162, Note_on_c, 9, 71, 64
8, 62250, Note_on_c, 9, 63, 90
8, 62267, Note_on_c, 9, 63, 0
8, 62375, Note_on_c, 9, 71, 0
8, 62397, Note_on_c, 9, 73, 64
8, 62400, Note_on_c, 9, 63, 74
8, 62414, Note_on_c, 9, 73, 0
8, 62423, Note_on_c, 9, 63, 0
8, 62459, Note_on_c, 9, 73, 64
8, 62472, Note_on_c, 9, 73, 0
8, 62490, Note_on_c, 9, 73, 64
8, 62506, Note_on_c, 9, 73, 0
8, 62552, Note_on_c, 9, 73, 64
8, 62576, Note_on_c, 9, 73, 0
8, 62580, Note_on_c, 9, 63, 75
8, 62583, Note_on_c, 9, 75, 64
8, 62594, Note_on_c, 9, 76, 64
8, 62600, Note_on_c, 9, 75, 0
8, 62600, Note_on_c, 9, 63, 0
8, 62643, Note_on_c, 9, 76, 0
8, 62643, Note_on_c, 9, 73, 64
8, 62730, Note_on_c, 9, 63, 90
8, 62747, Note_on_c, 9, 63, 0
8, 62880, Note_on_c, 9, 63, 74
8, 62903, Note_on_c, 9, 63, 0
8, 63060, Note_on_c, 9, 63, 75
8, 63080, Note_on_c, 9, 63, 0
8, 63210, Note_on_c, 9, 63, 90
8, 63227, Note_on_c, 9, 63, 0
8, 63264, Note_on_c, 9, 73, 0
8, 63360, Note_on_c, 9, 63, 74
8, 63383, Note_on_c, 9, 63, 0
8, 63540, Note_on_c, 9, 63, 75
8, 63560, Note_on_c, 9, 63, 0
8, 63690, Note_on_c, 9, 63, 90
8, 63707, Note_on_c, 9, 63, 0
8, 63840, Note_on_c, 9, 63, 74
8, 63863, Note_on_c, 9, 63, 0
8, 64020, Note_on_c, 9, 63, 75
8, 64040, Note_on_c, 9, 63, 0
8, 64170, Note_on_c, 9, 63, 90
8, 64187, Note_on_c, 9, 63, 0
8, 64320, Note_on_c, 9, 63, 74
8, 64343, Note_on_c, 9, 63, 0
8, 64500, Note_on_c, 9, 63, 75
8, 64520, Note_on_c, 9, 63, 0
8, 64650, Note_on_c, 9, 63, 90
8, 64667, Note_on_c, 9, 63, 0
8, 64800, Note_on_c, 9, 63, 74
8, 64823, Note_on_c, 9, 63, 0
8, 64980, Note_on_c, 9, 63, 75
8, 65000, Note_on_c, 9, 63, 0
8, 65130, Note_on_c, 9, 63, 90
8, 65147, Note_on_c, 9, 63, 0
8, 65280, Note_on_c, 9, 63, 74
8, 65303, Note_on_c, 9, 63, 0
8, 65460, Note_on_c, 9, 63, 75
8, 65480, Note_on_c, 9, 63, 0
8, 65610, Note_on_c, 9, 63, 90
8, 65627, Note_on_c, 9, 63, 0
8, 65760, Note_on_c, 9, 63, 74
8, 65783, Note_on_c, 9, 63, 0
8, 65940, Note_on_c, 9, 63, 75
8, 65960, Note_on_c, 9, 63, 0
8, 66090, Note_on_c, 9, 63, 90
8, 66107, Note_on_c, 9, 63, 0
8, 66107, End_track
9, 0, Start_track
9, 0, MIDI_port, 0
9, 0, Title_t, "CONGA MUT"
9, 0, Note_on_c, 9, 62, 116
9, 25, Note_on_c, 9, 62, 0
9, 180, Note_on_c, 9, 62, 94
9, 205, Note_on_c, 9, 62, 0
9, 360, Note_on_c, 9, 62, 101
9, 382, Note_on_c, 9, 62, 0
9, 540, Note_on_c, 9, 62, 100
9, 562, Note_on_c, 9, 62, 0
9, 720, Note_on_c, 9, 62, 101
9, 740, Note_on_c, 9, 62, 0
9, 840, Note_on_c, 9, 62, 80
9, 859, Note_on_c, 9, 62, 0
9, 960, Note_on_c, 9, 62, 116
9, 985, Note_on_c, 9, 62, 0
9, 1140, Note_on_c, 9, 62, 94
9, 1165, Note_on_c, 9, 62, 0
9, 1320, Note_on_c, 9, 62, 101
9, 1342, Note_on_c, 9, 62, 0
9, 1500, Note_on_c, 9, 62, 100
9, 1522, Note_on_c, 9, 62, 0
9, 1680, Note_on_c, 9, 62, 101
9, 1700, Note_on_c, 9, 62, 0
9, 1800, Note_on_c, 9, 62, 80
9, 1819, Note_on_c, 9, 62, 0
9, 1920, Note_on_c, 9, 62, 116
9, 1945, Note_on_c, 9, 62, 0
9, 2100, Note_on_c, 9, 62, 94
9, 2125, Note_on_c, 9, 62, 0
9, 2280, Note_on_c, 9, 62, 101
9, 2302, Note_on_c, 9, 62, 0
9, 2460, Note_on_c, 9, 62, 100
9, 2482, Note_on_c, 9, 62, 0
9, 2640, Note_on_c, 9, 62, 101
9, 2660, Note_on_c, 9, 62, 0
9, 2760, Note_on_c, 9, 62, 80
9, 2779, Note_on_c, 9, 62, 0
9, 2880, Note_on_c, 9, 62, 116
9, 2905, Note_on_c, 9, 62, 0
9, 3060, Note_on_c, 9, 62, 94
9, 3085, Note_on_c, 9, 62, 0
9, 3240, Note_on_c, 9, 62, 101
9, 3262, Note_on_c, 9, 62, 0
9, 3420, Note_on_c, 9, 62, 100
9, 3442, Note_on_c, 9, 62, 0
9, 3600, Note_on_c, 9, 62, 101
9, 3620, Note_on_c, 9, 62, 0
9, 3720, Note_on_c, 9, 62, 80
9, 3739, Note_on_c, 9, 62, 0
9, 3840, Note_on_c, 9, 62, 116
9, 3865, Note_on_c, 9, 62, 0
9, 4020, Note_on_c, 9, 62, 94
9, 4045, Note_on_c, 9, 62, 0
9, 4200, Note_on_c, 9, 62, 101
9, 4222, Note_on_c, 9, 62, 0
9, 4380, Note_on_c, 9, 62, 100
9, 4402, Note_on_c, 9, 62, 0
9, 4560, Note_on_c, 9, 62, 101
9, 4580, Note_on_c, 9, 62, 0
9, 4680, Note_on_c, 9, 62, 80
9, 4699, Note_on_c, 9, 62, 0
9, 4800, Note_on_c, 9, 62, 116
9, 4825, Note_on_c, 9, 62, 0
9, 4980, Note_on_c, 9, 62, 94
9, 5005, Note_on_c, 9, 62, 0
9, 5160, Note_on_c, 9, 62, 101
9, 5182, Note_on_c, 9, 62, 0
9, 5340, Note_on_c, 9, 62, 100
9, 5362, Note_on_c, 9, 62, 0
9, 5520, Note_on_c, 9, 62, 101
9, 5540, Note_on_c, 9, 62, 0
9, 5640, Note_on_c, 9, 62, 80
9, 5659, Note_on_c, 9, 62, 0
9, 5760, Note_on_c, 9, 62, 116
9, 5785, Note_on_c, 9, 62, 0
9, 5940, Note_on_c, 9, 62, 94
9, 5965, Note_on_c, 9, 62, 0
9, 6120, Note_on_c, 9, 62, 101
9, 6142, Note_on_c, 9, 62, 0
9, 6300, Note_on_c, 9, 62, 100
9, 6322, Note_on_c, 9, 62, 0
9, 6480, Note_on_c, 9, 62, 101
9, 6500, Note_on_c, 9, 62, 0
9, 6600, Note_on_c, 9, 62, 80
9, 6619, Note_on_c, 9, 62, 0
9, 6720, Note_on_c, 9, 62, 116
9, 6745, Note_on_c, 9, 62, 0
9, 6900, Note_on_c, 9, 62, 94
9, 6925, Note_on_c, 9, 62, 0
9, 7080, Note_on_c, 9, 62, 101
9, 7102, Note_on_c, 9, 62, 0
9, 7260, Note_on_c, 9, 62, 100
9, 7282, Note_on_c, 9, 62, 0
9, 7440, Note_on_c, 9, 62, 101
9, 7460, Note_on_c, 9, 62, 0
9, 7560, Note_on_c, 9, 62, 80
9, 7579, Note_on_c, 9, 62, 0
9, 7680, Note_on_c, 9, 62, 116
9, 7705, Note_on_c, 9, 62, 0
9, 7860, Note_on_c, 9, 62, 94
9, 7885, Note_on_c, 9, 62, 0
9, 8040, Note_on_c, 9, 62, 101
9, 8062, Note_on_c, 9, 62, 0
9, 8220, Note_on_c, 9, 62, 100
9, 8242, Note_on_c, 9, 62, 0
9, 8400, Note_on_c, 9, 62, 101
9, 8420, Note_on_c, 9, 62, 0
9, 8520, Note_on_c, 9, 62, 80
9, 8539, Note_on_c, 9, 62, 0
9, 8640, Note_on_c, 9, 62, 116
9, 8665, Note_on_c, 9, 62, 0
9, 8820, Note_on_c, 9, 62, 94
9, 8845, Note_on_c, 9, 62, 0
9, 9000, Note_on_c, 9, 62, 101
9, 9022, Note_on_c, 9, 62, 0
9, 9180, Note_on_c, 9, 62, 100
9, 9202, Note_on_c, 9, 62, 0
9, 9360, Note_on_c, 9, 62, 101
9, 9380, Note_on_c, 9, 62, 0
9, 9480, Note_on_c, 9, 62, 80
9, 9499, Note_on_c, 9, 62, 0
9, 9600, Note_on_c, 9, 62, 116
9, 9625, Note_on_c, 9, 62, 0
9, 9780, Note_on_c, 9, 62, 94
9, 9805, Note_on_c, 9, 62, 0
9, 9960, Note_on_c, 9, 62, 101
9, 9982, Note_on_c, 9, 62, 0
9, 10140, Note_on_c, 9, 62, 100
9, 10162, Note_on_c, 9, 62, 0
9, 10320, Note_on_c, 9, 62, 101
9, 10340, Note_on_c, 9, 62, 0
9, 10440, Note_on_c, 9, 62, 80
9, 10459, Note_on_c, 9, 62, 0
9, 10560, Note_on_c, 9, 62, 116
9, 10585, Note_on_c, 9, 62, 0
9, 10740, Note_on_c, 9, 62, 94
9, 10765, Note_on_c, 9, 62, 0
9, 10920, Note_on_c, 9, 62, 101
9, 10942, Note_on_c, 9, 62, 0
9, 11100, Note_on_c, 9, 62, 100
9, 11122, Note_on_c, 9, 62, 0
9, 11280, Note_on_c, 9, 62, 101
9, 11300, Note_on_c, 9, 62, 0
9, 11400, Note_on_c, 9, 62, 80
9, 11419, Note_on_c, 9, 62, 0
9, 11520, Note_on_c, 9, 62, 116
9, 11545, Note_on_c, 9, 62, 0
9, 11700, Note_on_c, 9, 62, 94
9, 11725, Note_on_c, 9, 62, 0
9, 11880, Note_on_c, 9, 62, 101
9, 11902, Note_on_c, 9, 62, 0
9, 12060, Note_on_c, 9, 62, 100
9, 12082, Note_on_c, 9, 62, 0
9, 12240, Note_on_c, 9, 62, 101
9, 12260, Note_on_c, 9, 62, 0
9, 12360, Note_on_c, 9, 62, 80
9, 12379, Note_on_c, 9, 62, 0
9, 12480, Note_on_c, 9, 62, 116
9, 12505, Note_on_c, 9, 62, 0
9, 12660, Note_on_c, 9, 62, 94
9, 12685, Note_on_c, 9, 62, 0
9, 12840, Note_on_c, 9, 62, 101
9, 12862, Note_on_c, 9, 62, 0
9, 13020, Note_on_c, 9, 62, 100
9, 13042, Note_on_c, 9, 62, 0
9, 13200, Note_on_c, 9, 62, 101
9, 13220, Note_on_c, 9, 62, 0
9, 13320, Note_on_c, 9, 62, 80
9, 13339, Note_on_c, 9, 62, 0
9, 13440, Note_on_c, 9, 62, 116
9, 13465, Note_on_c, 9, 62, 0
9, 13620, Note_on_c, 9, 62, 94
9, 13645, Note_on_c, 9, 62, 0
9, 13800, Note_on_c, 9, 62, 101
9, 13822, Note_on_c, 9, 62, 0
9, 13980, Note_on_c, 9, 62, 100
9, 14002, Note_on_c, 9, 62, 0
9, 14160, Note_on_c, 9, 62, 101
9, 14180, Note_on_c, 9, 62, 0
9, 14280, Note_on_c, 9, 62, 80
9, 14299, Note_on_c, 9, 62, 0
9, 14400, Note_on_c, 9, 62, 116
9, 14425, Note_on_c, 9, 62, 0
9, 14580, Note_on_c, 9, 62, 94
9, 14605, Note_on_c, 9, 62, 0
9, 14760, Note_on_c, 9, 62, 101
9, 14782, Note_on_c, 9, 62, 0
9, 14940, Note_on_c, 9, 62, 100
9, 14962, Note_on_c, 9, 62, 0
9, 15120, Note_on_c, 9, 62, 101
9, 15140, Note_on_c, 9, 62, 0
9, 15240, Note_on_c, 9, 62, 80
9, 15259, Note_on_c, 9, 62, 0
9, 15360, Note_on_c, 9, 62, 116
9, 15385, Note_on_c, 9, 62, 0
9, 15540, Note_on_c, 9, 62, 94
9, 15565, Note_on_c, 9, 62, 0
9, 15720, Note_on_c, 9, 62, 101
9, 15742, Note_on_c, 9, 62, 0
9, 15900, Note_on_c, 9, 62, 100
9, 15922, Note_on_c, 9, 62, 0
9, 16080, Note_on_c, 9, 62, 101
9, 16100, Note_on_c, 9, 62, 0
9, 16200, Note_on_c, 9, 62, 80
9, 16219, Note_on_c, 9, 62, 0
9, 16320, Note_on_c, 9, 62, 116
9, 16345, Note_on_c, 9, 62, 0
9, 16500, Note_on_c, 9, 62, 94
9, 16525, Note_on_c, 9, 62, 0
9, 16680, Note_on_c, 9, 62, 101
9, 16702, Note_on_c, 9, 62, 0
9, 16860, Note_on_c, 9, 62, 100
9, 16882, Note_on_c, 9, 62, 0
9, 17040, Note_on_c, 9, 62, 101
9, 17060, Note_on_c, 9, 62, 0
9, 17160, Note_on_c, 9, 62, 80
9, 17179, Note_on_c, 9, 62, 0
9, 17280, Note_on_c, 9, 62, 116
9, 17305, Note_on_c, 9, 62, 0
9, 17460, Note_on_c, 9, 62, 94
9, 17485, Note_on_c, 9, 62, 0
9, 17640, Note_on_c, 9, 62, 101
9, 17662, Note_on_c, 9, 62, 0
9, 17820, Note_on_c, 9, 62, 100
9, 17842, Note_on_c, 9, 62, 0
9, 18000, Note_on_c, 9, 62, 101
9, 18020, Note_on_c, 9, 62, 0
9, 18120, Note_on_c, 9, 62, 80
9, 18139, Note_on_c, 9, 62, 0
9, 18240, Note_on_c, 9, 62, 116
9, 18265, Note_on_c, 9, 62, 0
9, 18420, Note_on_c, 9, 62, 94
9, 18445, Note_on_c, 9, 62, 0
9, 18600, Note_on_c, 9, 62, 101
9, 18622, Note_on_c, 9, 62, 0
9, 18780, Note_on_c, 9, 62, 100
9, 18802, Note_on_c, 9, 62, 0
9, 18960, Note_on_c, 9, 62, 101
9, 18980, Note_on_c, 9, 62, 0
9, 19080, Note_on_c, 9, 62, 80
9, 19099, Note_on_c, 9, 62, 0
9, 19200, Note_on_c, 9, 62, 116
9, 19225, Note_on_c, 9, 62, 0
9, 19380, Note_on_c, 9, 62, 94
9, 19405, Note_on_c, 9, 62, 0
9, 19560, Note_on_c, 9, 62, 101
9, 19582, Note_on_c, 9, 62, 0
9, 19740, Note_on_c, 9, 62, 100
9, 19762, Note_on_c, 9, 62, 0
9, 19920, Note_on_c, 9, 62, 101
9, 19940, Note_on_c, 9, 62, 0
9, 20040, Note_on_c, 9, 62, 80
9, 20059, Note_on_c, 9, 62, 0
9, 20160, Note_on_c, 9, 62, 116
9, 20185, Note_on_c, 9, 62, 0
9, 20340, Note_on_c, 9, 62, 94
9, 20365, Note_on_c, 9, 62, 0
9, 20520, Note_on_c, 9, 62, 101
9, 20542, Note_on_c, 9, 62, 0
9, 20700, Note_on_c, 9, 62, 100
9, 20722, Note_on_c, 9, 62, 0
9, 20880, Note_on_c, 9, 62, 101
9, 20900, Note_on_c, 9, 62, 0
9, 21000, Note_on_c, 9, 62, 80
9, 21019, Note_on_c, 9, 62, 0
9, 21120, Note_on_c, 9, 62, 116
9, 21145, Note_on_c, 9, 62, 0
9, 21300, Note_on_c, 9, 62, 94
9, 21325, Note_on_c, 9, 62, 0
9, 21480, Note_on_c, 9, 62, 101
9, 21502, Note_on_c, 9, 62, 0
9, 21660, Note_on_c, 9, 62, 100
9, 21682, Note_on_c, 9, 62, 0
9, 21840, Note_on_c, 9, 62, 101
9, 21860, Note_on_c, 9, 62, 0
9, 21960, Note_on_c, 9, 62, 80
9, 21979, Note_on_c, 9, 62, 0
9, 22080, Note_on_c, 9, 62, 116
9, 22105, Note_on_c, 9, 62, 0
9, 22260, Note_on_c, 9, 62, 94
9, 22285, Note_on_c, 9, 62, 0
9, 22440, Note_on_c, 9, 62, 101
9, 22462, Note_on_c, 9, 62, 0
9, 22620, Note_on_c, 9, 62, 100
9, 22642, Note_on_c, 9, 62, 0
9, 22800, Note_on_c, 9, 62, 101
9, 22820, Note_on_c, 9, 62, 0
9, 22920, Note_on_c, 9, 62, 80
9, 22939, Note_on_c, 9, 62, 0
9, 23040, Note_on_c, 9, 62, 116
9, 23065, Note_on_c, 9, 62, 0
9, 23220, Note_on_c, 9, 62, 94
9, 23245, Note_on_c, 9, 62, 0
9, 23400, Note_on_c, 9, 62, 101
9, 23422, Note_on_c, 9, 62, 0
9, 23580, Note_on_c, 9, 62, 100
9, 23602, Note_on_c, 9, 62, 0
9, 23760, Note_on_c, 9, 62, 101
9, 23780, Note_on_c, 9, 62, 0
9, 23880, Note_on_c, 9, 62, 80
9, 23899, Note_on_c, 9, 62, 0
9, 24000, Note_on_c, 9, 62, 116
9, 24025, Note_on_c, 9, 62, 0
9, 24180, Note_on_c, 9, 62, 94
9, 24205, Note_on_c, 9, 62, 0
9, 24360, Note_on_c, 9, 62, 101
9, 24382, Note_on_c, 9, 62, 0
9, 24540, Note_on_c, 9, 62, 100
9, 24562, Note_on_c, 9, 62, 0
9, 24720, Note_on_c, 9, 62, 101
9, 24740, Note_on_c, 9, 62, 0
9, 24840, Note_on_c, 9, 62, 80
9, 24859, Note_on_c, 9, 62, 0
9, 24960, Note_on_c, 9, 62, 116
9, 24985, Note_on_c, 9, 62, 0
9, 25140, Note_on_c, 9, 62, 94
9, 25165, Note_on_c, 9, 62, 0
9, 25320, Note_on_c, 9, 62, 101
9, 25342, Note_on_c, 9, 62, 0
9, 25500, Note_on_c, 9, 62, 100
9, 25522, Note_on_c, 9, 62, 0
9, 25680, Note_on_c, 9, 62, 101
9, 25700, Note_on_c, 9, 62, 0
9, 25800, Note_on_c, 9, 62, 80
9, 25819, Note_on_c, 9, 62, 0
9, 25920, Note_on_c, 9, 62, 116
9, 25945, Note_on_c, 9, 62, 0
9, 26100, Note_on_c, 9, 62, 94
9, 26125, Note_on_c, 9, 62, 0
9, 26280, Note_on_c, 9, 62, 101
9, 26302, Note_on_c, 9, 62, 0
9, 26460, Note_on_c, 9, 62, 100
9, 26482, Note_on_c, 9, 62, 0
9, 26640, Note_on_c, 9, 62, 101
9, 26660, Note_on_c, 9, 62, 0
9, 26760, Note_on_c, 9, 62, 80
9, 26779, Note_on_c, 9, 62, 0
9, 26880, Note_on_c, 9, 62, 116
9, 26905, Note_on_c, 9, 62, 0
9, 27060, Note_on_c, 9, 62, 94
9, 27085, Note_on_c, 9, 62, 0
9, 27240, Note_on_c, 9, 62, 101
9, 27262, Note_on_c, 9, 62, 0
9, 27420, Note_on_c, 9, 62, 100
9, 27442, Note_on_c, 9, 62, 0
9, 27600, Note_on_c, 9, 62, 101
9, 27620, Note_on_c, 9, 62, 0
9, 27720, Note_on_c, 9, 62, 80
9, 27739, Note_on_c, 9, 62, 0
9, 27840, Note_on_c, 9, 62, 116
9, 27865, Note_on_c, 9, 62, 0
9, 28020, Note_on_c, 9, 62, 94
9, 28045, Note_on_c, 9, 62, 0
9, 28200, Note_on_c, 9, 62, 101
9, 28222, Note_on_c, 9, 62, 0
9, 28380, Note_on_c, 9, 62, 100
9, 28402, Note_on_c, 9, 62, 0
9, 28560, Note_on_c, 9, 62, 101
9, 28580, Note_on_c, 9, 62, 0
9, 28680, Note_on_c, 9, 62, 80
9, 28699, Note_on_c, 9, 62, 0
9, 28800, Note_on_c, 9, 62, 116
9, 28825, Note_on_c, 9, 62, 0
9, 28980, Note_on_c, 9, 62, 94
9, 29005, Note_on_c, 9, 62, 0
9, 29160, Note_on_c, 9, 62, 101
9, 29182, Note_on_c, 9, 62, 0
9, 29340, Note_on_c, 9, 62, 100
9, 29362, Note_on_c, 9, 62, 0
9, 29520, Note_on_c, 9, 62, 101
9, 29540, Note_on_c, 9, 62, 0
9, 29640, Note_on_c, 9, 62, 80
9, 29659, Note_on_c, 9, 62, 0
9, 29760, Note_on_c, 9, 62, 116
9, 29785, Note_on_c, 9, 62, 0
9, 29940, Note_on_c, 9, 62, 94
9, 29965, Note_on_c, 9, 62, 0
9, 30120, Note_on_c, 9, 62, 101
9, 30142, Note_on_c, 9, 62, 0
9, 30300, Note_on_c, 9, 62, 100
9, 30322, Note_on_c, 9, 62, 0
9, 30480, Note_on_c, 9, 62, 101
9, 30500, Note_on_c, 9, 62, 0
9, 30600, Note_on_c, 9, 62, 80
9, 30619, Note_on_c, 9, 62, 0
9, 30720, Note_on_c, 9, 62, 116
9, 30745, Note_on_c, 9, 62, 0
9, 30900, Note_on_c, 9, 62, 94
9, 30925, Note_on_c, 9, 62, 0
9, 31080, Note_on_c, 9, 62, 101
9, 31102, Note_on_c, 9, 62, 0
9, 31260, Note_on_c, 9, 62, 100
9, 31282, Note_on_c, 9, 62, 0
9, 31440, Note_on_c, 9, 62, 101
9, 31460, Note_on_c, 9, 62, 0
9, 31560, Note_on_c, 9, 62, 80
9, 31579, Note_on_c, 9, 62, 0
9, 31740, Note_on_c, 9, 62, 100
9, 31762, Note_on_c, 9, 62, 0
9, 31920, Note_on_c, 9, 62, 101
9, 31940, Note_on_c, 9, 62, 0
9, 32040, Note_on_c, 9, 62, 80
9, 32059, Note_on_c, 9, 62, 0
9, 32220, Note_on_c, 9, 62, 100
9, 32242, Note_on_c, 9, 62, 0
9, 32400, Note_on_c, 9, 62, 101
9, 32420, Note_on_c, 9, 62, 0
9, 32520, Note_on_c, 9, 62, 80
9, 32539, Note_on_c, 9, 62, 0
9, 32700, Note_on_c, 9, 62, 100
9, 32722, Note_on_c, 9, 62, 0
9, 32880, Note_on_c, 9, 62, 101
9, 32900, Note_on_c, 9, 62, 0
9, 33000, Note_on_c, 9, 62, 80
9, 33019, Note_on_c, 9, 62, 0
9, 33180, Note_on_c, 9, 62, 100
9, 33202, Note_on_c, 9, 62, 0
9, 33360, Note_on_c, 9, 62, 101
9, 33380, Note_on_c, 9, 62, 0
9, 33480, Note_on_c, 9, 62, 80
9, 33499, Note_on_c, 9, 62, 0
9, 33660, Note_on_c, 9, 62, 100
9, 33682, Note_on_c, 9, 62, 0
9, 33840, Note_on_c, 9, 62, 101
9, 33860, Note_on_c, 9, 62, 0
9, 33960, Note_on_c, 9, 62, 80
9, 33979, Note_on_c, 9, 62, 0
9, 34140, Note_on_c, 9, 62, 100
9, 34162, Note_on_c, 9, 62, 0
9, 34320, Note_on_c, 9, 62, 101
9, 34340, Note_on_c, 9, 62, 0
9, 34440, Note_on_c, 9, 62, 80
9, 34459, Note_on_c, 9, 62, 0
9, 34620, Note_on_c, 9, 62, 100
9, 34642, Note_on_c, 9, 62, 0
9, 34800, Note_on_c, 9, 62, 101
9, 34820, Note_on_c, 9, 62, 0
9, 34920, Note_on_c, 9, 62, 80
9, 34939, Note_on_c, 9, 62, 0
9, 35100, Note_on_c, 9, 62, 100
9, 35122, Note_on_c, 9, 62, 0
9, 35280, Note_on_c, 9, 62, 101
9, 35300, Note_on_c, 9, 62, 0
9, 35400, Note_on_c, 9, 62, 80
9, 35419, Note_on_c, 9, 62, 0
9, 35580, Note_on_c, 9, 62, 100
9, 35602, Note_on_c, 9, 62, 0
9, 35760, Note_on_c, 9, 62, 101
9, 35780, Note_on_c, 9, 62, 0
9, 35880, Note_on_c, 9, 62, 80
9, 35899, Note_on_c, 9, 62, 0
9, 36060, Note_on_c, 9, 62, 100
9, 36082, Note_on_c, 9, 62, 0
9, 36240, Note_on_c, 9, 62, 101
9, 36260, Note_on_c, 9, 62, 0
9, 36360, Note_on_c, 9, 62, 80
9, 36379, Note_on_c, 9, 62, 0
9, 36540, Note_on_c, 9, 62, 100
9, 36562, Note_on_c, 9, 62, 0
9, 36720, Note_on_c, 9, 62, 101
9, 36740, Note_on_c, 9, 62, 0
9, 36840, Note_on_c, 9, 62, 80
9, 36859, Note_on_c, 9, 62, 0
9, 37020, Note_on_c, 9, 62, 100
9, 37042, Note_on_c, 9, 62, 0
9, 37200, Note_on_c, 9, 62, 101
9, 37220, Note_on_c, 9, 62, 0
9, 37320, Note_on_c, 9, 62, 80
9, 37339, Note_on_c, 9, 62, 0
9, 37500, Note_on_c, 9, 62, 100
9, 37522, Note_on_c, 9, 62, 0
9, 37680, Note_on_c, 9, 62, 101
9, 37700, Note_on_c, 9, 62, 0
9, 37800, Note_on_c, 9, 62, 80
9, 37819, Note_on_c, 9, 62, 0
9, 37980, Note_on_c, 9, 62, 100
9, 38002, Note_on_c, 9, 62, 0
9, 38160, Note_on_c, 9, 62, 101
9, 38180, Note_on_c, 9, 62, 0
9, 38280, Note_on_c, 9, 62, 80
9, 38299, Note_on_c, 9, 62, 0
9, 38460, Note_on_c, 9, 62, 100
9, 38482, Note_on_c, 9, 62, 0
9, 38640, Note_on_c, 9, 62, 101
9, 38660, Note_on_c, 9, 62, 0
9, 38760, Note_on_c, 9, 62, 80
9, 38779, Note_on_c, 9, 62, 0
9, 38940, Note_on_c, 9, 62, 100
9, 38962, Note_on_c, 9, 62, 0
9, 39120, Note_on_c, 9, 62, 101
9, 39140, Note_on_c, 9, 62, 0
9, 39240, Note_on_c, 9, 62, 80
9, 39259, Note_on_c, 9, 62, 0
9, 39420, Note_on_c, 9, 62, 100
9, 39442, Note_on_c, 9, 62, 0
9, 39600, Note_on_c, 9, 62, 101
9, 39620, Note_on_c, 9, 62, 0
9, 39720, Note_on_c, 9, 62, 80
9, 39739, Note_on_c, 9, 62, 0
9, 39900, Note_on_c, 9, 62, 100
9, 39922, Note_on_c, 9, 62, 0
9, 40080, Note_on_c, 9, 62, 101
9, 40100, Note_on_c, 9, 62, 0
9, 40200, Note_on_c, 9, 62, 80
9, 40219, Note_on_c, 9, 62, 0
9, 40380, Note_on_c, 9, 62, 100
9, 40402, Note_on_c, 9, 62, 0
9, 40560, Note_on_c, 9, 62, 101
9, 40580, Note_on_c, 9, 62, 0
9, 40680, Note_on_c, 9, 62, 80
9, 40699, Note_on_c, 9, 62, 0
9, 40860, Note_on_c, 9, 62, 100
9, 40882, Note_on_c, 9, 62, 0
9, 41040, Note_on_c, 9, 62, 101
9, 41060, Note_on_c, 9, 62, 0
9, 41160, Note_on_c, 9, 62, 80
9, 41179, Note_on_c, 9, 62, 0
9, 41340, Note_on_c, 9, 62, 100
9, 41362, Note_on_c, 9, 62, 0
9, 41520, Note_on_c, 9, 62, 101
9, 41540, Note_on_c, 9, 62, 0
9, 41640, Note_on_c, 9, 62, 80
9, 41659, Note_on_c, 9, 62, 0
9, 41820, Note_on_c, 9, 62, 100
9, 41842, Note_on_c, 9, 62, 0
9, 42000, Note_on_c, 9, 62, 101
9, 42020, Note_on_c, 9, 62, 0
9, 42120, Note_on_c, 9, 62, 80
9, 42139, Note_on_c, 9, 62, 0
9, 42300, Note_on_c, 9, 62, 100
9, 42322, Note_on_c, 9, 62, 0
9, 42480, Note_on_c, 9, 62, 101
9, 42500, Note_on_c, 9, 62, 0
9, 42600, Note_on_c, 9, 62, 80
9, 42619, Note_on_c, 9, 62, 0
9, 42780, Note_on_c, 9, 62, 100
9, 42802, Note_on_c, 9, 62, 0
9, 42960, Note_on_c, 9, 62, 101
9, 42980, Note_on_c, 9, 62, 0
9, 43080, Note_on_c, 9, 62, 80
9, 43099, Note_on_c, 9, 62, 0
9, 43260, Note_on_c, 9, 62, 100
9, 43282, Note_on_c, 9, 62, 0
9, 43440, Note_on_c, 9, 62, 101
9, 43460, Note_on_c, 9, 62, 0
9, 43560, Note_on_c, 9, 62, 80
9, 43579, Note_on_c, 9, 62, 0
9, 43740, Note_on_c, 9, 62, 100
9, 43762, Note_on_c, 9, 62, 0
9, 43920, Note_on_c, 9, 62, 101
9, 43940, Note_on_c, 9, 62, 0
9, 44040, Note_on_c, 9, 62, 80
9, 44059, Note_on_c, 9, 62, 0
9, 44220, Note_on_c, 9, 62, 100
9, 44242, Note_on_c, 9, 62, 0
9, 44400, Note_on_c, 9, 62, 101
9, 44420, Note_on_c, 9, 62, 0
9, 44520, Note_on_c, 9, 62, 80
9, 44539, Note_on_c, 9, 62, 0
9, 44700, Note_on_c, 9, 62, 100
9, 44722, Note_on_c, 9, 62, 0
9, 44880, Note_on_c, 9, 62, 101
9, 44900, Note_on_c, 9, 62, 0
9, 45000, Note_on_c, 9, 62, 80
9, 45019, Note_on_c, 9, 62, 0
9, 45180, Note_on_c, 9, 62, 100
9, 45202, Note_on_c, 9, 62, 0
9, 45360, Note_on_c, 9, 62, 101
9, 45380, Note_on_c, 9, 62, 0
9, 45480, Note_on_c, 9, 62, 80
9, 45499, Note_on_c, 9, 62, 0
9, 45660, Note_on_c, 9, 62, 100
9, 45682, Note_on_c, 9, 62, 0
9, 45840, Note_on_c, 9, 62, 101
9, 45860, Note_on_c, 9, 62, 0
9, 45960, Note_on_c, 9, 62, 80
9, 45979, Note_on_c, 9, 62, 0
9, 53820, Note_on_c, 9, 62, 100
9, 53842, Note_on_c, 9, 62, 0
9, 54000, Note_on_c, 9, 62, 101
9, 54020, Note_on_c, 9, 62, 0
9, 54120, Note_on_c, 9, 62, 80
9, 54139, Note_on_c, 9, 62, 0
9, 54300, Note_on_c, 9, 62, 100
9, 54322, Note_on_c, 9, 62, 0
9, 54480, Note_on_c, 9, 62, 101
9, 54500, Note_on_c, 9, 62, 0
9, 54600, Note_on_c, 9, 62, 80
9, 54619, Note_on_c, 9, 62, 0
9, 54780, Note_on_c, 9, 62, 100
9, 54802, Note_on_c, 9, 62, 0
9, 54960, Note_on_c, 9, 62, 101
9, 54980, Note_on_c, 9, 62, 0
9, 55080, Note_on_c, 9, 62, 80
9, 55099, Note_on_c, 9, 62, 0
9, 55260, Note_on_c, 9, 62, 100
9, 55282, Note_on_c, 9, 62, 0
9, 55440, Note_on_c, 9, 62, 101
9, 55460, Note_on_c, 9, 62, 0
9, 55560, Note_on_c, 9, 62, 80
9, 55579, Note_on_c, 9, 62, 0
9, 55740, Note_on_c, 9, 62, 100
9, 55762, Note_on_c, 9, 62, 0
9, 55920, Note_on_c, 9, 62, 101
9, 55940, Note_on_c, 9, 62, 0
9, 56040, Note_on_c, 9, 62, 80
9, 56059, Note_on_c, 9, 62, 0
9, 56220, Note_on_c, 9, 62, 100
9, 56242, Note_on_c, 9, 62, 0
9, 56400, Note_on_c, 9, 62, 101
9, 56420, Note_on_c, 9, 62, 0
9, 56520, Note_on_c, 9, 62, 80
9, 56539, Note_on_c, 9, 62, 0
9, 56700, Note_on_c, 9, 62, 100
9, 56722, Note_on_c, 9, 62, 0
9, 56880, Note_on_c, 9, 62, 101
9, 56900, Note_on_c, 9, 62, 0
9, 57000, Note_on_c, 9, 62, 80
9, 57019, Note_on_c, 9, 62, 0
9, 57180, Note_on_c, 9, 62, 100
9, 57202, Note_on_c, 9, 62, 0
9, 57360, Note_on_c, 9, 62, 101
9, 57380, Note_on_c, 9, 62, 0
9, 57480, Note_on_c, 9, 62, 80
9, 57499, Note_on_c, 9, 62, 0
9, 57660, Note_on_c, 9, 62, 100
9, 57682, Note_on_c, 9, 62, 0
9, 57840, Note_on_c, 9, 62, 101
9, 57860, Note_on_c, 9, 62, 0
9, 57960, Note_on_c, 9, 62, 80
9, 57979, Note_on_c, 9, 62, 0
9, 58140, Note_on_c, 9, 62, 100
9, 58162, Note_on_c, 9, 62, 0
9, 58320, Note_on_c, 9, 62, 101
9, 58340, Note_on_c, 9, 62, 0
9, 58440, Note_on_c, 9, 62, 80
9, 58459, Note_on_c, 9, 62, 0
9, 58620, Note_on_c, 9, 62, 100
9, 58642, Note_on_c, 9, 62, 0
9, 58800, Note_on_c, 9, 62, 101
9, 58820, Note_on_c, 9, 62, 0
9, 58920, Note_on_c, 9, 62, 80
9, 58939, Note_on_c, 9, 62, 0
9, 59100, Note_on_c, 9, 62, 100
9, 59122, Note_on_c, 9, 62, 0
9, 59280, Note_on_c, 9, 62, 101
9, 59300, Note_on_c, 9, 62, 0
9, 59400, Note_on_c, 9, 62, 80
9, 59419, Note_on_c, 9, 62, 0
9, 59580, Note_on_c, 9, 62, 100
9, 59602, Note_on_c, 9, 62, 0
9, 59760, Note_on_c, 9, 62, 101
9, 59780, Note_on_c, 9, 62, 0
9, 59880, Note_on_c, 9, 62, 80
9, 59899, Note_on_c, 9, 62, 0
9, 60060, Note_on_c, 9, 62, 100
9, 60082, Note_on_c, 9, 62, 0
9, 60240, Note_on_c, 9, 62, 101
9, 60260, Note_on_c, 9, 62, 0
9, 60360, Note_on_c, 9, 62, 80
9, 60379, Note_on_c, 9, 62, 0
9, 60540, Note_on_c, 9, 62, 100
9, 60562, Note_on_c, 9, 62, 0
9, 60720, Note_on_c, 9, 62, 101
9, 60740, Note_on_c, 9, 62, 0
9, 60840, Note_on_c, 9, 62, 80
9, 60859, Note_on_c, 9, 62, 0
9, 61020, Note_on_c, 9, 62, 100
9, 61042, Note_on_c, 9, 62, 0
9, 61200, Note_on_c, 9, 62, 101
9, 61220, Note_on_c, 9, 62, 0
9, 61320, Note_on_c, 9, 62, 80
9, 61339, Note_on_c, 9, 62, 0
9, 61500, Note_on_c, 9, 62, 100
9, 61522, Note_on_c, 9, 62, 0
9, 61680, Note_on_c, 9, 62, 101
9, 61700, Note_on_c, 9, 62, 0
9, 61800, Note_on_c, 9, 62, 80
9, 61819, Note_on_c, 9, 62, 0
9, 61980, Note_on_c, 9, 62, 100
9, 62002, Note_on_c, 9, 62, 0
9, 62160, Note_on_c, 9, 62, 101
9, 62180, Note_on_c, 9, 62, 0
9, 62280, Note_on_c, 9, 62, 80
9, 62299, Note_on_c, 9, 62, 0
9, 62460, Note_on_c, 9, 62, 100
9, 62482, Note_on_c, 9, 62, 0
9, 62640, Note_on_c, 9, 62, 101
9, 62660, Note_on_c, 9, 62, 0
9, 62760, Note_on_c, 9, 62, 80
9, 62779, Note_on_c, 9, 62, 0
9, 62940, Note_on_c, 9, 62, 100
9, 62962, Note_on_c, 9, 62, 0
9, 63120, Note_on_c, 9, 62, 101
9, 63140, Note_on_c, 9, 62, 0
9, 63240, Note_on_c, 9, 62, 80
9, 63259, Note_on_c, 9, 62, 0
9, 63420, Note_on_c, 9, 62, 100
9, 63442, Note_on_c, 9, 62, 0
9, 63600, Note_on_c, 9, 62, 101
9, 63620, Note_on_c, 9, 62, 0
9, 63720, Note_on_c, 9, 62, 80
9, 63739, Note_on_c, 9, 62, 0
9, 63900, Note_on_c, 9, 62, 100
9, 63922, Note_on_c, 9, 62, 0
9, 64080, Note_on_c, 9, 62, 101
9, 64100, Note_on_c, 9, 62, 0
9, 64200, Note_on_c, 9, 62, 80
9, 64219, Note_on_c, 9, 62, 0
9, 64380, Note_on_c, 9, 62, 100
9, 64402, Note_on_c, 9, 62, 0
9, 64560, Note_on_c, 9, 62, 101
9, 64580, Note_on_c, 9, 62, 0
9, 64680, Note_on_c, 9, 62, 80
9, 64699, Note_on_c, 9, 62, 0
9, 64860, Note_on_c, 9, 62, 100
9, 64882, Note_on_c, 9, 62, 0
9, 65040, Note_on_c, 9, 62, 101
9, 65060, Note_on_c, 9, 62, 0
9, 65160, Note_on_c, 9, 62, 80
9, 65179, Note_on_c, 9, 62, 0
9, 65340, Note_on_c, 9, 62, 100
9, 65362, Note_on_c, 9, 62, 0
9, 65520, Note_on_c, 9, 62, 101
9, 65540, Note_on_c, 9, 62, 0
9, 65640, Note_on_c, 9, 62, 80
9, 65659, Note_on_c, 9, 62, 0
9, 65820, Note_on_c, 9, 62, 100
9, 65842, Note_on_c, 9, 62, 0
9, 66000, Note_on_c, 9, 62, 101
9, 66020, Note_on_c, 9, 62, 0
9, 66120, Note_on_c, 9, 62, 80
9, 66139, Note_on_c, 9, 62, 0
9, 66139, End_track
10, 0, Start_track
10, 0, MIDI_port, 0
10, 0, Title_t, "CLOSED HIHAT"
10, 1920, Note_on_c, 9, 42, 105
10, 1943, Note_on_c, 9, 42, 0
10, 1980, Note_on_c, 9, 42, 86
10, 2004, Note_on_c, 9, 42, 0
10, 2040, Note_on_c, 9, 42, 94
10, 2062, Note_on_c, 9, 42, 0
10, 2100, Note_on_c, 9, 42, 98
10, 2122, Note_on_c, 9, 42, 0
10, 2160, Note_on_c, 9, 42, 86
10, 2181, Note_on_c, 9, 42, 0
10, 2220, Note_on_c, 9, 42, 101
10, 2245, Note_on_c, 9, 42, 0
10, 2280, Note_on_c, 9, 42, 101
10, 2306, Note_on_c, 9, 42, 0
10, 2340, Note_on_c, 9, 42, 83
10, 2370, Note_on_c, 9, 42, 0
10, 2400, Note_on_c, 9, 42, 105
10, 2423, Note_on_c, 9, 42, 0
10, 2460, Note_on_c, 9, 42, 86
10, 2484, Note_on_c, 9, 42, 0
10, 2520, Note_on_c, 9, 42, 94
10, 2542, Note_on_c, 9, 42, 0
10, 2580, Note_on_c, 9, 42, 98
10, 2602, Note_on_c, 9, 42, 0
10, 2640, Note_on_c, 9, 42, 86
10, 2661, Note_on_c, 9, 42, 0
10, 2700, Note_on_c, 9, 42, 101
10, 2725, Note_on_c, 9, 42, 0
10, 2760, Note_on_c, 9, 42, 101
10, 2786, Note_on_c, 9, 42, 0
10, 2820, Note_on_c, 9, 42, 83
10, 2850, Note_on_c, 9, 42, 0
10, 2880, Note_on_c, 9, 42, 105
10, 2903, Note_on_c, 9, 42, 0
10, 2940, Note_on_c, 9, 42, 86
10, 2964, Note_on_c, 9, 42, 0
10, 3000, Note_on_c, 9, 42, 94
10, 3022, Note_on_c, 9, 42, 0
10, 3060, Note_on_c, 9, 42, 98
10, 3082, Note_on_c, 9, 42, 0
10, 3120, Note_on_c, 9, 42, 86
10, 3141, Note_on_c, 9, 42, 0
10, 3180, Note_on_c, 9, 42, 101
10, 3205, Note_on_c, 9, 42, 0
10, 3240, Note_on_c, 9, 42, 101
10, 3266, Note_on_c, 9, 42, 0
10, 3300, Note_on_c, 9, 42, 83
10, 3330, Note_on_c, 9, 42, 0
10, 3360, Note_on_c, 9, 42, 105
10, 3383, Note_on_c, 9, 42, 0
10, 3420, Note_on_c, 9, 42, 86
10, 3444, Note_on_c, 9, 42, 0
10, 3480, Note_on_c, 9, 42, 94
10, 3502, Note_on_c, 9, 42, 0
10, 3540, Note_on_c, 9, 42, 98
10, 3562, Note_on_c, 9, 42, 0
10, 3600, Note_on_c, 9, 42, 86
10, 3621, Note_on_c, 9, 42, 0
10, 3660, Note_on_c, 9, 42, 101
10, 3685, Note_on_c, 9, 42, 0
10, 3720, Note_on_c, 9, 42, 101
10, 3746, Note_on_c, 9, 42, 0
10, 3780, Note_on_c, 9, 42, 83
10, 3810, Note_on_c, 9, 42, 0
10, 3840, Note_on_c, 9, 42, 105
10, 3863, Note_on_c, 9, 42, 0
10, 3900, Note_on_c, 9, 42, 86
10, 3924, Note_on_c, 9, 42, 0
10, 3960, Note_on_c, 9, 42, 94
10, 3982, Note_on_c, 9, 42, 0
10, 4020, Note_on_c, 9, 42, 98
10, 4042, Note_on_c, 9, 42, 0
10, 4080, Note_on_c, 9, 42, 86
10, 4101, Note_on_c, 9, 42, 0
10, 4140, Note_on_c, 9, 42, 101
10, 4165, Note_on_c, 9, 42, 0
10, 4200, Note_on_c, 9, 42, 101
10, 4226, Note_on_c, 9, 42, 0
10, 4260, Note_on_c, 9, 42, 83
10, 4290, Note_on_c, 9, 42, 0
10, 4320, Note_on_c, 9, 42, 105
10, 4343, Note_on_c, 9, 42, 0
10, 4380, Note_on_c, 9, 42, 86
10, 4404, Note_on_c, 9, 42, 0
10, 4440, Note_on_c, 9, 42, 94
10, 4462, Note_on_c, 9, 42, 0
10, 4500, Note_on_c, 9, 42, 98
10, 4522, Note_on_c, 9, 42, 0
10, 4560, Note_on_c, 9, 42, 86
10, 4581, Note_on_c, 9, 42, 0
10, 4620, Note_on_c, 9, 42, 101
10, 4645, Note_on_c, 9, 42, 0
10, 4680, Note_on_c, 9, 42, 101
10, 4706, Note_on_c, 9, 42, 0
10, 4740, Note_on_c, 9, 42, 83
10, 4770, Note_on_c, 9, 42, 0
10, 4800, Note_on_c, 9, 42, 105
10, 4823, Note_on_c, 9, 42, 0
10, 4860, Note_on_c, 9, 42, 86
10, 4884, Note_on_c, 9, 42, 0
10, 4920, Note_on_c, 9, 42, 94
10, 4942, Note_on_c, 9, 42, 0
10, 4980, Note_on_c, 9, 42, 98
10, 5002, Note_on_c, 9, 42, 0
10, 5040, Note_on_c, 9, 42, 86
10, 5061, Note_on_c, 9, 42, 0
10, 5100, Note_on_c, 9, 42, 101
10, 5125, Note_on_c, 9, 42, 0
10, 5160, Note_on_c, 9, 42, 101
10, 5186, Note_on_c, 9, 42, 0
10, 5220, Note_on_c, 9, 42, 83
10, 5250, Note_on_c, 9, 42, 0
10, 5280, Note_on_c, 9, 42, 105
10, 5303, Note_on_c, 9, 42, 0
10, 5340, Note_on_c, 9, 42, 86
10, 5364, Note_on_c, 9, 42, 0
10, 5400, Note_on_c, 9, 42, 94
10, 5422, Note_on_c, 9, 42, 0
10, 5460, Note_on_c, 9, 42, 98
10, 5482, Note_on_c, 9, 42, 0
10, 5520, Note_on_c, 9, 42, 86
10, 5541, Note_on_c, 9, 42, 0
10, 5580, Note_on_c, 9, 42, 101
10, 5605, Note_on_c, 9, 42, 0
10, 5640, Note_on_c, 9, 42, 101
10, 5666, Note_on_c, 9, 42, 0
10, 5700, Note_on_c, 9, 42, 83
10, 5730, Note_on_c, 9, 42, 0
10, 5760, Note_on_c, 9, 42, 105
10, 5783, Note_on_c, 9, 42, 0
10, 5820, Note_on_c, 9, 42, 86
10, 5844, Note_on_c, 9, 42, 0
10, 5880, Note_on_c, 9, 42, 94
10, 5902, Note_on_c, 9, 42, 0
10, 5940, Note_on_c, 9, 42, 98
10, 5962, Note_on_c, 9, 42, 0
10, 6000, Note_on_c, 9, 42, 86
10, 6021, Note_on_c, 9, 42, 0
10, 6060, Note_on_c, 9, 42, 101
10, 6085, Note_on_c, 9, 42, 0
10, 6120, Note_on_c, 9, 42, 101
10, 6146, Note_on_c, 9, 42, 0
10, 6180, Note_on_c, 9, 42, 83
10, 6210, Note_on_c, 9, 42, 0
10, 6240, Note_on_c, 9, 42, 105
10, 6263, Note_on_c, 9, 42, 0
10, 6300, Note_on_c, 9, 42, 86
10, 6324, Note_on_c, 9, 42, 0
10, 6360, Note_on_c, 9, 42, 94
10, 6382, Note_on_c, 9, 42, 0
10, 6420, Note_on_c, 9, 42, 98
10, 6442, Note_on_c, 9, 42, 0
10, 6480, Note_on_c, 9, 42, 86
10, 6501, Note_on_c, 9, 42, 0
10, 6540, Note_on_c, 9, 42, 101
10, 6565, Note_on_c, 9, 42, 0
10, 6600, Note_on_c, 9, 42, 101
10, 6626, Note_on_c, 9, 42, 0
10, 6660, Note_on_c, 9, 42, 83
10, 6690, Note_on_c, 9, 42, 0
10, 6720, Note_on_c, 9, 42, 105
10, 6743, Note_on_c, 9, 42, 0
10, 6780, Note_on_c, 9, 42, 86
10, 6804, Note_on_c, 9, 42, 0
10, 6840, Note_on_c, 9, 42, 94
10, 6862, Note_on_c, 9, 42, 0
10, 6900, Note_on_c, 9, 42, 98
10, 6922, Note_on_c, 9, 42, 0
10, 6960, Note_on_c, 9, 42, 86
10, 6981, Note_on_c, 9, 42, 0
10, 7020, Note_on_c, 9, 42, 101
10, 7045, Note_on_c, 9, 42, 0
10, 7080, Note_on_c, 9, 42, 101
10, 7106, Note_on_c, 9, 42, 0
10, 7140, Note_on_c, 9, 42, 83
10, 7170, Note_on_c, 9, 42, 0
10, 7200, Note_on_c, 9, 42, 105
10, 7223, Note_on_c, 9, 42, 0
10, 7260, Note_on_c, 9, 42, 86
10, 7284, Note_on_c, 9, 42, 0
10, 7320, Note_on_c, 9, 42, 94
10, 7342, Note_on_c, 9, 42, 0
10, 7380, Note_on_c, 9, 42, 98
10, 7402, Note_on_c, 9, 42, 0
10, 7440, Note_on_c, 9, 42, 86
10, 7461, Note_on_c, 9, 42, 0
10, 7500, Note_on_c, 9, 42, 101
10, 7525, Note_on_c, 9, 42, 0
10, 7560, Note_on_c, 9, 42, 101
10, 7586, Note_on_c, 9, 42, 0
10, 7620, Note_on_c, 9, 42, 83
10, 7650, Note_on_c, 9, 42, 0
10, 7680, Note_on_c, 9, 42, 105
10, 7703, Note_on_c, 9, 42, 0
10, 7740, Note_on_c, 9, 42, 86
10, 7764, Note_on_c, 9, 42, 0
10, 7800, Note_on_c, 9, 42, 94
10, 7822, Note_on_c, 9, 42, 0
10, 7860, Note_on_c, 9, 42, 98
10, 7882, Note_on_c, 9, 42, 0
10, 7920, Note_on_c, 9, 42, 86
10, 7941, Note_on_c, 9, 42, 0
10, 7980, Note_on_c, 9, 42, 101
10, 8005, Note_on_c, 9, 42, 0
10, 8040, Note_on_c, 9, 42, 101
10, 8066, Note_on_c, 9, 42, 0
10, 8100, Note_on_c, 9, 42, 83
10, 8130, Note_on_c, 9, 42, 0
10, 8160, Note_on_c, 9, 42, 105
10, 8183, Note_on_c, 9, 42, 0
10, 8220, Note_on_c, 9, 42, 86
10, 8244, Note_on_c, 9, 42, 0
10, 8280, Note_on_c, 9, 42, 94
10, 8302, Note_on_c, 9, 42, 0
10, 8340, Note_on_c, 9, 42, 98
10, 8362, Note_on_c, 9, 42, 0
10, 8400, Note_on_c, 9, 42, 86
10, 8421, Note_on_c, 9, 42, 0
10, 8460, Note_on_c, 9, 42, 101
10, 8485, Note_on_c, 9, 42, 0
10, 8520, Note_on_c, 9, 42, 101
10, 8546, Note_on_c, 9, 42, 0
10, 8580, Note_on_c, 9, 42, 83
10, 8610, Note_on_c, 9, 42, 0
10, 8640, Note_on_c, 9, 42, 105
10, 8663, Note_on_c, 9, 42, 0
10, 8700, Note_on_c, 9, 42, 86
10, 8724, Note_on_c, 9, 42, 0
10, 8760, Note_on_c, 9, 42, 94
10, 8782, Note_on_c, 9, 42, 0
10, 8820, Note_on_c, 9, 42, 98
10, 8842, Note_on_c, 9, 42, 0
10, 8880, Note_on_c, 9, 42, 86
10, 8901, Note_on_c, 9, 42, 0
10, 8940, Note_on_c, 9, 42, 101
10, 8965, Note_on_c, 9, 42, 0
10, 9000, Note_on_c, 9, 42, 101
10, 9026, Note_on_c, 9, 42, 0
10, 9060, Note_on_c, 9, 42, 83
10, 9090, Note_on_c, 9, 42, 0
10, 9120, Note_on_c, 9, 42, 105
10, 9143, Note_on_c, 9, 42, 0
10, 9180, Note_on_c, 9, 42, 86
10, 9204, Note_on_c, 9, 42, 0
10, 9240, Note_on_c, 9, 42, 94
10, 9262, Note_on_c, 9, 42, 0
10, 9300, Note_on_c, 9, 42, 98
10, 9322, Note_on_c, 9, 42, 0
10, 9360, Note_on_c, 9, 42, 86
10, 9381, Note_on_c, 9, 42, 0
10, 9420, Note_on_c, 9, 42, 101
10, 9445, Note_on_c, 9, 42, 0
10, 9480, Note_on_c, 9, 42, 101
10, 9506, Note_on_c, 9, 42, 0
10, 9540, Note_on_c, 9, 42, 83
10, 9570, Note_on_c, 9, 42, 0
10, 9600, Note_on_c, 9, 42, 105
10, 9623, Note_on_c, 9, 42, 0
10, 9660, Note_on_c, 9, 42, 86
10, 9684, Note_on_c, 9, 42, 0
10, 9720, Note_on_c, 9, 42, 94
10, 9742, Note_on_c, 9, 42, 0
10, 9780, Note_on_c, 9, 42, 98
10, 9802, Note_on_c, 9, 42, 0
10, 9840, Note_on_c, 9, 42, 86
10, 9861, Note_on_c, 9, 42, 0
10, 9900, Note_on_c, 9, 42, 101
10, 9925, Note_on_c, 9, 42, 0
10, 9960, Note_on_c, 9, 42, 101
10, 9986, Note_on_c, 9, 42, 0
10, 10020, Note_on_c, 9, 42, 83
10, 10050, Note_on_c, 9, 42, 0
10, 10080, Note_on_c, 9, 42, 105
10, 10103, Note_on_c, 9, 42, 0
10, 10140, Note_on_c, 9, 42, 86
10, 10164, Note_on_c, 9, 42, 0
10, 10200, Note_on_c, 9, 42, 94
10, 10222, Note_on_c, 9, 42, 0
10, 10260, Note_on_c, 9, 42, 98
10, 10282, Note_on_c, 9, 42, 0
10, 10320, Note_on_c, 9, 42, 86
10, 10341, Note_on_c, 9, 42, 0
10, 10380, Note_on_c, 9, 42, 101
10, 10405, Note_on_c, 9, 42, 0
10, 10440, Note_on_c, 9, 42, 101
10, 10466, Note_on_c, 9, 42, 0
10, 10500, Note_on_c, 9, 42, 83
10, 10530, Note_on_c, 9, 42, 0
10, 10560, Note_on_c, 9, 42, 105
10, 10583, Note_on_c, 9, 42, 0
10, 10620, Note_on_c, 9, 42, 86
10, 10644, Note_on_c, 9, 42, 0
10, 10680, Note_on_c, 9, 42, 94
10, 10702, Note_on_c, 9, 42, 0
10, 10740, Note_on_c, 9, 42, 98
10, 10762, Note_on_c, 9, 42, 0
10, 10800, Note_on_c, 9, 42, 86
10, 10821, Note_on_c, 9, 42, 0
10, 10860, Note_on_c, 9, 42, 101
10, 10885, Note_on_c, 9, 42, 0
10, 10920, Note_on_c, 9, 42, 101
10, 10946, Note_on_c, 9, 42, 0
10, 10980, Note_on_c, 9, 42, 83
10, 11010, Note_on_c, 9, 42, 0
10, 11040, Note_on_c, 9, 42, 105
10, 11063, Note_on_c, 9, 42, 0
10, 11100, Note_on_c, 9, 42, 86
10, 11124, Note_on_c, 9, 42, 0
10, 11160, Note_on_c, 9, 42, 94
10, 11182, Note_on_c, 9, 42, 0
10, 11220, Note_on_c, 9, 42, 98
10, 11242, Note_on_c, 9, 42, 0
10, 11280, Note_on_c, 9, 42, 86
10, 11301, Note_on_c, 9, 42, 0
10, 11340, Note_on_c, 9, 42, 101
10, 11365, Note_on_c, 9, 42, 0
10, 11400, Note_on_c, 9, 42, 101
10, 11426, Note_on_c, 9, 42, 0
10, 11460, Note_on_c, 9, 42, 83
10, 11490, Note_on_c, 9, 42, 0
10, 11520, Note_on_c, 9, 42, 105
10, 11543, Note_on_c, 9, 42, 0
10, 11580, Note_on_c, 9, 42, 86
10, 11604, Note_on_c, 9, 42, 0
10, 11640, Note_on_c, 9, 42, 94
10, 11662, Note_on_c, 9, 42, 0
10, 11700, Note_on_c, 9, 42, 98
10, 11722, Note_on_c, 9, 42, 0
10, 11760, Note_on_c, 9, 42, 86
10, 11781, Note_on_c, 9, 42, 0
10, 11820, Note_on_c, 9, 42, 101
10, 11845, Note_on_c, 9, 42, 0
10, 11880, Note_on_c, 9, 42, 101
10, 11906, Note_on_c, 9, 42, 0
10, 11940, Note_on_c, 9, 42, 83
10, 11970, Note_on_c, 9, 42, 0
10, 12000, Note_on_c, 9, 42, 105
10, 12023, Note_on_c, 9, 42, 0
10, 12060, Note_on_c, 9, 42, 86
10, 12084, Note_on_c, 9, 42, 0
10, 12120, Note_on_c, 9, 42, 94
10, 12142, Note_on_c, 9, 42, 0
10, 12180, Note_on_c, 9, 42, 98
10, 12202, Note_on_c, 9, 42, 0
10, 12240, Note_on_c, 9, 42, 86
10, 12261, Note_on_c, 9, 42, 0
10, 12300, Note_on_c, 9, 42, 101
10, 12325, Note_on_c, 9, 42, 0
10, 12360, Note_on_c, 9, 42, 101
10, 12386, Note_on_c, 9, 42, 0
10, 12420, Note_on_c, 9, 42, 83
10, 12450, Note_on_c, 9, 42, 0
10, 12480, Note_on_c, 9, 42, 105
10, 12503, Note_on_c, 9, 42, 0
10, 12540, Note_on_c, 9, 42, 86
10, 12564, Note_on_c, 9, 42, 0
10, 12600, Note_on_c, 9, 42, 94
10, 12622, Note_on_c, 9, 42, 0
10, 12660, Note_on_c, 9, 42, 98
10, 12682, Note_on_c, 9, 42, 0
10, 12720, Note_on_c, 9, 42, 86
10, 12741, Note_on_c, 9, 42, 0
10, 12780, Note_on_c, 9, 42, 101
10, 12805, Note_on_c, 9, 42, 0
10, 12840, Note_on_c, 9, 42, 101
10, 12866, Note_on_c, 9, 42, 0
10, 12900, Note_on_c, 9, 42, 83
10, 12930, Note_on_c, 9, 42, 0
10, 12960, Note_on_c, 9, 42, 105
10, 12983, Note_on_c, 9, 42, 0
10, 13020, Note_on_c, 9, 42, 86
10, 13044, Note_on_c, 9, 42, 0
10, 13080, Note_on_c, 9, 42, 94
10, 13102, Note_on_c, 9, 42, 0
10, 13140, Note_on_c, 9, 42, 98
10, 13162, Note_on_c, 9, 42, 0
10, 13200, Note_on_c, 9, 42, 86
10, 13221, Note_on_c, 9, 42, 0
10, 13260, Note_on_c, 9, 42, 101
10, 13285, Note_on_c, 9, 42, 0
10, 13320, Note_on_c, 9, 42, 101
10, 13346, Note_on_c, 9, 42, 0
10, 13380, Note_on_c, 9, 42, 83
10, 13410, Note_on_c, 9, 42, 0
10, 13440, Note_on_c, 9, 42, 105
10, 13463, Note_on_c, 9, 42, 0
10, 13500, Note_on_c, 9, 42, 86
10, 13524, Note_on_c, 9, 42, 0
10, 13560, Note_on_c, 9, 42, 94
10, 13582, Note_on_c, 9, 42, 0
10, 13620, Note_on_c, 9, 42, 98
10, 13642, Note_on_c, 9, 42, 0
10, 13680, Note_on_c, 9, 42, 86
10, 13701, Note_on_c, 9, 42, 0
10, 13740, Note_on_c, 9, 42, 101
10, 13765, Note_on_c, 9, 42, 0
10, 13800, Note_on_c, 9, 42, 101
10, 13826, Note_on_c, 9, 42, 0
10, 13860, Note_on_c, 9, 42, 83
10, 13890, Note_on_c, 9, 42, 0
10, 13920, Note_on_c, 9, 42, 105
10, 13943, Note_on_c, 9, 42, 0
10, 13980, Note_on_c, 9, 42, 86
10, 14004, Note_on_c, 9, 42, 0
10, 14040, Note_on_c, 9, 42, 94
10, 14062, Note_on_c, 9, 42, 0
10, 14100, Note_on_c, 9, 42, 98
10, 14122, Note_on_c, 9, 42, 0
10, 14160, Note_on_c, 9, 42, 86
10, 14181, Note_on_c, 9, 42, 0
10, 14220, Note_on_c, 9, 42, 101
10, 14245, Note_on_c, 9, 42, 0
10, 14280, Note_on_c, 9, 42, 101
10, 14306, Note_on_c, 9, 42, 0
10, 14340, Note_on_c, 9, 42, 83
10, 14370, Note_on_c, 9, 42, 0
10, 14400, Note_on_c, 9, 42, 105
10, 14423, Note_on_c, 9, 42, 0
10, 14460, Note_on_c, 9, 42, 86
10, 14484, Note_on_c, 9, 42, 0
10, 14520, Note_on_c, 9, 42, 94
10, 14542, Note_on_c, 9, 42, 0
10, 14580, Note_on_c, 9, 42, 98
10, 14602, Note_on_c, 9, 42, 0
10, 14640, Note_on_c, 9, 42, 86
10, 14661, Note_on_c, 9, 42, 0
10, 14700, Note_on_c, 9, 42, 101
10, 14725, Note_on_c, 9, 42, 0
10, 14760, Note_on_c, 9, 42, 101
10, 14786, Note_on_c, 9, 42, 0
10, 14820, Note_on_c, 9, 42, 83
10, 14850, Note_on_c, 9, 42, 0
10, 14880, Note_on_c, 9, 42, 105
10, 14903, Note_on_c, 9, 42, 0
10, 14940, Note_on_c, 9, 42, 86
10, 14964, Note_on_c, 9, 42, 0
10, 15000, Note_on_c, 9, 42, 94
10, 15022, Note_on_c, 9, 42, 0
10, 15060, Note_on_c, 9, 42, 98
10, 15082, Note_on_c, 9, 42, 0
10, 15120, Note_on_c, 9, 42, 86
10, 15141, Note_on_c, 9, 42, 0
10, 15180, Note_on_c, 9, 42, 101
10, 15205, Note_on_c, 9, 42, 0
10, 15240, Note_on_c, 9, 42, 101
10, 15266, Note_on_c, 9, 42, 0
10, 15300, Note_on_c, 9, 42, 83
10, 15330, Note_on_c, 9, 42, 0
10, 15360, Note_on_c, 9, 42, 105
10, 15383, Note_on_c, 9, 42, 0
10, 15420, Note_on_c, 9, 42, 86
10, 15444, Note_on_c, 9, 42, 0
10, 15480, Note_on_c, 9, 42, 94
10, 15502, Note_on_c, 9, 42, 0
10, 15540, Note_on_c, 9, 42, 98
10, 15562, Note_on_c, 9, 42, 0
10, 15600, Note_on_c, 9, 42, 86
10, 15621, Note_on_c, 9, 42, 0
10, 15660, Note_on_c, 9, 42, 101
10, 15685, Note_on_c, 9, 42, 0
10, 15720, Note_on_c, 9, 42, 101
10, 15746, Note_on_c, 9, 42, 0
10, 15780, Note_on_c, 9, 42, 83
10, 15810, Note_on_c, 9, 42, 0
10, 15840, Note_on_c, 9, 42, 105
10, 15863, Note_on_c, 9, 42, 0
10, 15900, Note_on_c, 9, 42, 86
10, 15924, Note_on_c, 9, 42, 0
10, 15960, Note_on_c, 9, 42, 94
10, 15982, Note_on_c, 9, 42, 0
10, 16020, Note_on_c, 9, 42, 98
10, 16042, Note_on_c, 9, 42, 0
10, 16080, Note_on_c, 9, 42, 86
10, 16101, Note_on_c, 9, 42, 0
10, 16140, Note_on_c, 9, 42, 101
10, 16165, Note_on_c, 9, 42, 0
10, 16200, Note_on_c, 9, 42, 101
10, 16226, Note_on_c, 9, 42, 0
10, 16260, Note_on_c, 9, 42, 83
10, 16290, Note_on_c, 9, 42, 0
10, 16320, Note_on_c, 9, 42, 105
10, 16343, Note_on_c, 9, 42, 0
10, 16380, Note_on_c, 9, 42, 86
10, 16404, Note_on_c, 9, 42, 0
10, 16440, Note_on_c, 9, 42, 94
10, 16462, Note_on_c, 9, 42, 0
10, 16500, Note_on_c, 9, 42, 98
10, 16522, Note_on_c, 9, 42, 0
10, 16560, Note_on_c, 9, 42, 86
10, 16581, Note_on_c, 9, 42, 0
10, 16620, Note_on_c, 9, 42, 101
10, 16645, Note_on_c, 9, 42, 0
10, 16680, Note_on_c, 9, 42, 101
10, 16706, Note_on_c, 9, 42, 0
10, 16740, Note_on_c, 9, 42, 83
10, 16770, Note_on_c, 9, 42, 0
10, 16800, Note_on_c, 9, 42, 105
10, 16823, Note_on_c, 9, 42, 0
10, 16860, Note_on_c, 9, 42, 86
10, 16884, Note_on_c, 9, 42, 0
10, 16920, Note_on_c, 9, 42, 94
10, 16942, Note_on_c, 9, 42, 0
10, 16980, Note_on_c, 9, 42, 98
10, 17002, Note_on_c, 9, 42, 0
10, 17040, Note_on_c, 9, 42, 86
10, 17061, Note_on_c, 9, 42, 0
10, 17100, Note_on_c, 9, 42, 101
10, 17125, Note_on_c, 9, 42, 0
10, 17160, Note_on_c, 9, 42, 101
10, 17186, Note_on_c, 9, 42, 0
10, 17220, Note_on_c, 9, 42, 83
10, 17250, Note_on_c, 9, 42, 0
10, 17280, Note_on_c, 9, 42, 105
10, 17303, Note_on_c, 9, 42, 0
10, 17340, Note_on_c, 9, 42, 86
10, 17364, Note_on_c, 9, 42, 0
10, 17400, Note_on_c, 9, 42, 94
10, 17422, Note_on_c, 9, 42, 0
10, 17460, Note_on_c, 9, 42, 98
10, 17482, Note_on_c, 9, 42, 0
10, 17520, Note_on_c, 9, 42, 86
10, 17541, Note_on_c, 9, 42, 0
10, 17580, Note_on_c, 9, 42, 101
10, 17605, Note_on_c, 9, 42, 0
10, 17640, Note_on_c, 9, 42, 101
10, 17666, Note_on_c, 9, 42, 0
10, 17700, Note_on_c, 9, 42, 83
10, 17730, Note_on_c, 9, 42, 0
10, 17760, Note_on_c, 9, 42, 105
10, 17783, Note_on_c, 9, 42, 0
10, 17820, Note_on_c, 9, 42, 86
10, 17844, Note_on_c, 9, 42, 0
10, 17880, Note_on_c, 9, 42, 94
10, 17902, Note_on_c, 9, 42, 0
10, 17940, Note_on_c, 9, 42, 98
10, 17962, Note_on_c, 9, 42, 0
10, 18000, Note_on_c, 9, 42, 86
10, 18021, Note_on_c, 9, 42, 0
10, 18060, Note_on_c, 9, 42, 101
10, 18085, Note_on_c, 9, 42, 0
10, 18120, Note_on_c, 9, 42, 101
10, 18146, Note_on_c, 9, 42, 0
10, 18180, Note_on_c, 9, 42, 83
10, 18210, Note_on_c, 9, 42, 0
10, 18240, Note_on_c, 9, 42, 105
10, 18263, Note_on_c, 9, 42, 0
10, 18300, Note_on_c, 9, 42, 86
10, 18324, Note_on_c, 9, 42, 0
10, 18360, Note_on_c, 9, 42, 94
10, 18382, Note_on_c, 9, 42, 0
10, 18420, Note_on_c, 9, 42, 98
10, 18442, Note_on_c, 9, 42, 0
10, 18480, Note_on_c, 9, 42, 86
10, 18501, Note_on_c, 9, 42, 0
10, 18540, Note_on_c, 9, 42, 101
10, 18565, Note_on_c, 9, 42, 0
10, 18600, Note_on_c, 9, 42, 101
10, 18626, Note_on_c, 9, 42, 0
10, 18660, Note_on_c, 9, 42, 83
10, 18690, Note_on_c, 9, 42, 0
10, 18720, Note_on_c, 9, 42, 105
10, 18743, Note_on_c, 9, 42, 0
10, 18780, Note_on_c, 9, 42, 86
10, 18804, Note_on_c, 9, 42, 0
10, 18840, Note_on_c, 9, 42, 94
10, 18862, Note_on_c, 9, 42, 0
10, 18900, Note_on_c, 9, 42, 98
10, 18922, Note_on_c, 9, 42, 0
10, 18960, Note_on_c, 9, 42, 86
10, 18981, Note_on_c, 9, 42, 0
10, 19020, Note_on_c, 9, 42, 101
10, 19045, Note_on_c, 9, 42, 0
10, 19080, Note_on_c, 9, 42, 101
10, 19106, Note_on_c, 9, 42, 0
10, 19140, Note_on_c, 9, 42, 83
10, 19170, Note_on_c, 9, 42, 0
10, 19200, Note_on_c, 9, 42, 105
10, 19223, Note_on_c, 9, 42, 0
10, 19260, Note_on_c, 9, 42, 86
10, 19284, Note_on_c, 9, 42, 0
10, 19320, Note_on_c, 9, 42, 94
10, 19342, Note_on_c, 9, 42, 0
10, 19380, Note_on_c, 9, 42, 98
10, 19402, Note_on_c, 9, 42, 0
10, 19440, Note_on_c, 9, 42, 86
10, 19461, Note_on_c, 9, 42, 0
10, 19500, Note_on_c, 9, 42, 101
10, 19525, Note_on_c, 9, 42, 0
10, 19560, Note_on_c, 9, 42, 101
10, 19586, Note_on_c, 9, 42, 0
10, 19620, Note_on_c, 9, 42, 83
10, 19650, Note_on_c, 9, 42, 0
10, 19680, Note_on_c, 9, 42, 105
10, 19703, Note_on_c, 9, 42, 0
10, 19740, Note_on_c, 9, 42, 86
10, 19764, Note_on_c, 9, 42, 0
10, 19800, Note_on_c, 9, 42, 94
10, 19822, Note_on_c, 9, 42, 0
10, 19860, Note_on_c, 9, 42, 98
10, 19882, Note_on_c, 9, 42, 0
10, 19920, Note_on_c, 9, 42, 86
10, 19941, Note_on_c, 9, 42, 0
10, 19980, Note_on_c, 9, 42, 101
10, 20005, Note_on_c, 9, 42, 0
10, 20040, Note_on_c, 9, 42, 101
10, 20066, Note_on_c, 9, 42, 0
10, 20100, Note_on_c, 9, 42, 83
10, 20130, Note_on_c, 9, 42, 0
10, 20160, Note_on_c, 9, 42, 105
10, 20183, Note_on_c, 9, 42, 0
10, 20220, Note_on_c, 9, 42, 86
10, 20244, Note_on_c, 9, 42, 0
10, 20280, Note_on_c, 9, 42, 94
10, 20302, Note_on_c, 9, 42, 0
10, 20340, Note_on_c, 9, 42, 98
10, 20362, Note_on_c, 9, 42, 0
10, 20400, Note_on_c, 9, 42, 86
10, 20421, Note_on_c, 9, 42, 0
10, 20460, Note_on_c, 9, 42, 101
10, 20485, Note_on_c, 9, 42, 0
10, 20520, Note_on_c, 9, 42, 101
10, 20546, Note_on_c, 9, 42, 0
10, 20580, Note_on_c, 9, 42, 83
10, 20610, Note_on_c, 9, 42, 0
10, 20640, Note_on_c, 9, 42, 105
10, 20663, Note_on_c, 9, 42, 0
10, 20700, Note_on_c, 9, 42, 86
10, 20724, Note_on_c, 9, 42, 0
10, 20760, Note_on_c, 9, 42, 94
10, 20782, Note_on_c, 9, 42, 0
10, 20820, Note_on_c, 9, 42, 98
10, 20842, Note_on_c, 9, 42, 0
10, 20880, Note_on_c, 9, 42, 86
10, 20901, Note_on_c, 9, 42, 0
10, 20940, Note_on_c, 9, 42, 101
10, 20965, Note_on_c, 9, 42, 0
10, 21000, Note_on_c, 9, 42, 101
10, 21026, Note_on_c, 9, 42, 0
10, 21060, Note_on_c, 9, 42, 83
10, 21090, Note_on_c, 9, 42, 0
10, 21120, Note_on_c, 9, 42, 105
10, 21143, Note_on_c, 9, 42, 0
10, 21180, Note_on_c, 9, 42, 86
10, 21204, Note_on_c, 9, 42, 0
10, 21240, Note_on_c, 9, 42, 94
10, 21262, Note_on_c, 9, 42, 0
10, 21300, Note_on_c, 9, 42, 98
10, 21322, Note_on_c, 9, 42, 0
10, 21360, Note_on_c, 9, 42, 86
10, 21381, Note_on_c, 9, 42, 0
10, 21420, Note_on_c, 9, 42, 101
10, 21445, Note_on_c, 9, 42, 0
10, 21480, Note_on_c, 9, 42, 101
10, 21506, Note_on_c, 9, 42, 0
10, 21540, Note_on_c, 9, 42, 83
10, 21570, Note_on_c, 9, 42, 0
10, 21600, Note_on_c, 9, 42, 105
10, 21623, Note_on_c, 9, 42, 0
10, 21660, Note_on_c, 9, 42, 86
10, 21684, Note_on_c, 9, 42, 0
10, 21720, Note_on_c, 9, 42, 94
10, 21742, Note_on_c, 9, 42, 0
10, 21780, Note_on_c, 9, 42, 98
10, 21802, Note_on_c, 9, 42, 0
10, 21840, Note_on_c, 9, 42, 86
10, 21861, Note_on_c, 9, 42, 0
10, 21900, Note_on_c, 9, 42, 101
10, 21925, Note_on_c, 9, 42, 0
10, 21960, Note_on_c, 9, 42, 101
10, 21986, Note_on_c, 9, 42, 0
10, 22020, Note_on_c, 9, 42, 83
10, 22050, Note_on_c, 9, 42, 0
10, 22080, Note_on_c, 9, 42, 105
10, 22103, Note_on_c, 9, 42, 0
10, 22140, Note_on_c, 9, 42, 86
10, 22164, Note_on_c, 9, 42, 0
10, 22200, Note_on_c, 9, 42, 94
10, 22222, Note_on_c, 9, 42, 0
10, 22260, Note_on_c, 9, 42, 98
10, 22282, Note_on_c, 9, 42, 0
10, 22320, Note_on_c, 9, 42, 86
10, 22341, Note_on_c, 9, 42, 0
10, 22380, Note_on_c, 9, 42, 101
10, 22405, Note_on_c, 9, 42, 0
10, 22440, Note_on_c, 9, 42, 101
10, 22466, Note_on_c, 9, 42, 0
10, 22500, Note_on_c, 9, 42, 83
10, 22530, Note_on_c, 9, 42, 0
10, 22560, Note_on_c, 9, 42, 105
10, 22583, Note_on_c, 9, 42, 0
10, 22620, Note_on_c, 9, 42, 86
10, 22644, Note_on_c, 9, 42, 0
10, 22680, Note_on_c, 9, 42, 94
10, 22702, Note_on_c, 9, 42, 0
10, 22740, Note_on_c, 9, 42, 98
10, 22762, Note_on_c, 9, 42, 0
10, 22800, Note_on_c, 9, 42, 86
10, 22821, Note_on_c, 9, 42, 0
10, 22860, Note_on_c, 9, 42, 101
10, 22885, Note_on_c, 9, 42, 0
10, 22920, Note_on_c, 9, 42, 101
10, 22946, Note_on_c, 9, 42, 0
10, 22980, Note_on_c, 9, 42, 83
10, 23010, Note_on_c, 9, 42, 0
10, 23040, Note_on_c, 9, 42, 105
10, 23063, Note_on_c, 9, 42, 0
10, 23100, Note_on_c, 9, 42, 86
10, 23124, Note_on_c, 9, 42, 0
10, 23160, Note_on_c, 9, 42, 94
10, 23182, Note_on_c, 9, 42, 0
10, 23220, Note_on_c, 9, 42, 98
10, 23242, Note_on_c, 9, 42, 0
10, 23280, Note_on_c, 9, 42, 86
10, 23301, Note_on_c, 9, 42, 0
10, 23340, Note_on_c, 9, 42, 101
10, 23365, Note_on_c, 9, 42, 0
10, 23400, Note_on_c, 9, 42, 101
10, 23426, Note_on_c, 9, 42, 0
10, 23460, Note_on_c, 9, 42, 83
10, 23490, Note_on_c, 9, 42, 0
10, 23520, Note_on_c, 9, 42, 105
10, 23543, Note_on_c, 9, 42, 0
10, 23580, Note_on_c, 9, 42, 86
10, 23604, Note_on_c, 9, 42, 0
10, 23640, Note_on_c, 9, 42, 94
10, 23662, Note_on_c, 9, 42, 0
10, 23700, Note_on_c, 9, 42, 98
10, 23722, Note_on_c, 9, 42, 0
10, 23760, Note_on_c, 9, 42, 86
10, 23781, Note_on_c, 9, 42, 0
10, 23820, Note_on_c, 9, 42, 101
10, 23845, Note_on_c, 9, 42, 0
10, 23880, Note_on_c, 9, 42, 101
10, 23906, Note_on_c, 9, 42, 0
10, 23940, Note_on_c, 9, 42, 83
10, 23970, Note_on_c, 9, 42, 0
10, 24000, Note_on_c, 9, 42, 105
10, 24023, Note_on_c, 9, 42, 0
10, 24060, Note_on_c, 9, 42, 86
10, 24084, Note_on_c, 9, 42, 0
10, 24120, Note_on_c, 9, 42, 94
10, 24142, Note_on_c, 9, 42, 0
10, 24180, Note_on_c, 9, 42, 98
10, 24202, Note_on_c, 9, 42, 0
10, 24240, Note_on_c, 9, 42, 86
10, 24261, Note_on_c, 9, 42, 0
10, 24300, Note_on_c, 9, 42, 101
10, 24325, Note_on_c, 9, 42, 0
10, 24360, Note_on_c, 9, 42, 101
10, 24386, Note_on_c, 9, 42, 0
10, 24420, Note_on_c, 9, 42, 83
10, 24450, Note_on_c, 9, 42, 0
10, 24480, Note_on_c, 9, 42, 105
10, 24503, Note_on_c, 9, 42, 0
10, 24540, Note_on_c, 9, 42, 86
10, 24564, Note_on_c, 9, 42, 0
10, 24600, Note_on_c, 9, 42, 94
10, 24622, Note_on_c, 9, 42, 0
10, 24660, Note_on_c, 9, 42, 98
10, 24682, Note_on_c, 9, 42, 0
10, 24720, Note_on_c, 9, 42, 86
10, 24741, Note_on_c, 9, 42, 0
10, 24780, Note_on_c, 9, 42, 101
10, 24805, Note_on_c, 9, 42, 0
10, 24840, Note_on_c, 9, 42, 101
10, 24866, Note_on_c, 9, 42, 0
10, 24900, Note_on_c, 9, 42, 83
10, 24930, Note_on_c, 9, 42, 0
10, 24960, Note_on_c, 9, 42, 105
10, 24983, Note_on_c, 9, 42, 0
10, 25020, Note_on_c, 9, 42, 86
10, 25044, Note_on_c, 9, 42, 0
10, 25080, Note_on_c, 9, 42, 94
10, 25102, Note_on_c, 9, 42, 0
10, 25140, Note_on_c, 9, 42, 98
10, 25162, Note_on_c, 9, 42, 0
10, 25200, Note_on_c, 9, 42, 86
10, 25221, Note_on_c, 9, 42, 0
10, 25260, Note_on_c, 9, 42, 101
10, 25285, Note_on_c, 9, 42, 0
10, 25320, Note_on_c, 9, 42, 101
10, 25346, Note_on_c, 9, 42, 0
10, 25380, Note_on_c, 9, 42, 83
10, 25410, Note_on_c, 9, 42, 0
10, 25440, Note_on_c, 9, 42, 105
10, 25463, Note_on_c, 9, 42, 0
10, 25500, Note_on_c, 9, 42, 86
10, 25524, Note_on_c, 9, 42, 0
10, 25560, Note_on_c, 9, 42, 94
10, 25582, Note_on_c, 9, 42, 0
10, 25620, Note_on_c, 9, 42, 98
10, 25642, Note_on_c, 9, 42, 0
10, 25680, Note_on_c, 9, 42, 86
10, 25701, Note_on_c, 9, 42, 0
10, 25740, Note_on_c, 9, 42, 101
10, 25765, Note_on_c, 9, 42, 0
10, 25800, Note_on_c, 9, 42, 101
10, 25826, Note_on_c, 9, 42, 0
10, 25860, Note_on_c, 9, 42, 83
10, 25890, Note_on_c, 9, 42, 0
10, 25920, Note_on_c, 9, 42, 105
10, 25943, Note_on_c, 9, 42, 0
10, 25980, Note_on_c, 9, 42, 86
10, 26004, Note_on_c, 9, 42, 0
10, 26040, Note_on_c, 9, 42, 94
10, 26062, Note_on_c, 9, 42, 0
10, 26100, Note_on_c, 9, 42, 98
10, 26122, Note_on_c, 9, 42, 0
10, 26160, Note_on_c, 9, 42, 86
10, 26181, Note_on_c, 9, 42, 0
10, 26220, Note_on_c, 9, 42, 101
10, 26245, Note_on_c, 9, 42, 0
10, 26280, Note_on_c, 9, 42, 101
10, 26306, Note_on_c, 9, 42, 0
10, 26340, Note_on_c, 9, 42, 83
10, 26370, Note_on_c, 9, 42, 0
10, 26400, Note_on_c, 9, 42, 105
10, 26423, Note_on_c, 9, 42, 0
10, 26460, Note_on_c, 9, 42, 86
10, 26484, Note_on_c, 9, 42, 0
10, 26520, Note_on_c, 9, 42, 94
10, 26542, Note_on_c, 9, 42, 0
10, 26580, Note_on_c, 9, 42, 98
10, 26602, Note_on_c, 9, 42, 0
10, 26640, Note_on_c, 9, 42, 86
10, 26661, Note_on_c, 9, 42, 0
10, 26700, Note_on_c, 9, 42, 101
10, 26725, Note_on_c, 9, 42, 0
10, 26760, Note_on_c, 9, 42, 101
10, 26786, Note_on_c, 9, 42, 0
10, 26820, Note_on_c, 9, 42, 83
10, 26850, Note_on_c, 9, 42, 0
10, 26880, Note_on_c, 9, 42, 105
10, 26903, Note_on_c, 9, 42, 0
10, 26940, Note_on_c, 9, 42, 86
10, 26964, Note_on_c, 9, 42, 0
10, 27000, Note_on_c, 9, 42, 94
10, 27022, Note_on_c, 9, 42, 0
10, 27060, Note_on_c, 9, 42, 98
10, 27082, Note_on_c, 9, 42, 0
10, 27120, Note_on_c, 9, 42, 86
10, 27141, Note_on_c, 9, 42, 0
10, 27180, Note_on_c, 9, 42, 101
10, 27205, Note_on_c, 9, 42, 0
10, 27240, Note_on_c, 9, 42, 101
10, 27266, Note_on_c, 9, 42, 0
10, 27300, Note_on_c, 9, 42, 83
10, 27330, Note_on_c, 9, 42, 0
10, 27360, Note_on_c, 9, 42, 105
10, 27383, Note_on_c, 9, 42, 0
10, 27420, Note_on_c, 9, 42, 86
10, 27444, Note_on_c, 9, 42, 0
10, 27480, Note_on_c, 9, 42, 94
10, 27502, Note_on_c, 9, 42, 0
10, 27540, Note_on_c, 9, 42, 98
10, 27562, Note_on_c, 9, 42, 0
10, 27600, Note_on_c, 9, 42, 86
10, 27621, Note_on_c, 9, 42, 0
10, 27660, Note_on_c, 9, 42, 101
10, 27685, Note_on_c, 9, 42, 0
10, 27720, Note_on_c, 9, 42, 101
10, 27746, Note_on_c, 9, 42, 0
10, 27780, Note_on_c, 9, 42, 83
10, 27810, Note_on_c, 9, 42, 0
10, 27840, Note_on_c, 9, 42, 105
10, 27863, Note_on_c, 9, 42, 0
10, 27900, Note_on_c, 9, 42, 86
10, 27924, Note_on_c, 9, 42, 0
10, 27960, Note_on_c, 9, 42, 94
10, 27982, Note_on_c, 9, 42, 0
10, 28020, Note_on_c, 9, 42, 98
10, 28042, Note_on_c, 9, 42, 0
10, 28080, Note_on_c, 9, 42, 86
10, 28101, Note_on_c, 9, 42, 0
10, 28140, Note_on_c, 9, 42, 101
10, 28165, Note_on_c, 9, 42, 0
10, 28200, Note_on_c, 9, 42, 101
10, 28226, Note_on_c, 9, 42, 0
10, 28260, Note_on_c, 9, 42, 83
10, 28290, Note_on_c, 9, 42, 0
10, 28320, Note_on_c, 9, 42, 105
10, 28343, Note_on_c, 9, 42, 0
10, 28380, Note_on_c, 9, 42, 86
10, 28404, Note_on_c, 9, 42, 0
10, 28440, Note_on_c, 9, 42, 94
10, 28462, Note_on_c, 9, 42, 0
10, 28500, Note_on_c, 9, 42, 98
10, 28522, Note_on_c, 9, 42, 0
10, 28560, Note_on_c, 9, 42, 86
10, 28581, Note_on_c, 9, 42, 0
10, 28620, Note_on_c, 9, 42, 101
10, 28645, Note_on_c, 9, 42, 0
10, 28680, Note_on_c, 9, 42, 101
10, 28706, Note_on_c, 9, 42, 0
10, 28740, Note_on_c, 9, 42, 83
10, 28770, Note_on_c, 9, 42, 0
10, 28800, Note_on_c, 9, 42, 105
10, 28823, Note_on_c, 9, 42, 0
10, 28860, Note_on_c, 9, 42, 86
10, 28884, Note_on_c, 9, 42, 0
10, 28920, Note_on_c, 9, 42, 94
10, 28942, Note_on_c, 9, 42, 0
10, 28980, Note_on_c, 9, 42, 98
10, 29002, Note_on_c, 9, 42, 0
10, 29040, Note_on_c, 9, 42, 86
10, 29061, Note_on_c, 9, 42, 0
10, 29100, Note_on_c, 9, 42, 101
10, 29125, Note_on_c, 9, 42, 0
10, 29160, Note_on_c, 9, 42, 101
10, 29186, Note_on_c, 9, 42, 0
10, 29220, Note_on_c, 9, 42, 83
10, 29250, Note_on_c, 9, 42, 0
10, 29280, Note_on_c, 9, 42, 105
10, 29303, Note_on_c, 9, 42, 0
10, 29340, Note_on_c, 9, 42, 86
10, 29364, Note_on_c, 9, 42, 0
10, 29400, Note_on_c, 9, 42, 94
10, 29422, Note_on_c, 9, 42, 0
10, 29460, Note_on_c, 9, 42, 98
10, 29482, Note_on_c, 9, 42, 0
10, 29520, Note_on_c, 9, 42, 86
10, 29541, Note_on_c, 9, 42, 0
10, 29580, Note_on_c, 9, 42, 101
10, 29605, Note_on_c, 9, 42, 0
10, 29640, Note_on_c, 9, 42, 101
10, 29666, Note_on_c, 9, 42, 0
10, 29700, Note_on_c, 9, 42, 83
10, 29730, Note_on_c, 9, 42, 0
10, 29760, Note_on_c, 9, 42, 105
10, 29783, Note_on_c, 9, 42, 0
10, 29820, Note_on_c, 9, 42, 86
10, 29844, Note_on_c, 9, 42, 0
10, 29880, Note_on_c, 9, 42, 94
10, 29902, Note_on_c, 9, 42, 0
10, 29940, Note_on_c, 9, 42, 98
10, 29962, Note_on_c, 9, 42, 0
10, 30000, Note_on_c, 9, 42, 86
10, 30021, Note_on_c, 9, 42, 0
10, 30060, Note_on_c, 9, 42, 101
10, 30085, Note_on_c, 9, 42, 0
10, 30120, Note_on_c, 9, 42, 101
10, 30146, Note_on_c, 9, 42, 0
10, 30180, Note_on_c, 9, 42, 83
10, 30210, Note_on_c, 9, 42, 0
10, 30240, Note_on_c, 9, 42, 105
10, 30263, Note_on_c, 9, 42, 0
10, 30300, Note_on_c, 9, 42, 86
10, 30324, Note_on_c, 9, 42, 0
10, 30360, Note_on_c, 9, 42, 94
10, 30382, Note_on_c, 9, 42, 0
10, 30420, Note_on_c, 9, 42, 98
10, 30442, Note_on_c, 9, 42, 0
10, 30480, Note_on_c, 9, 42, 86
10, 30501, Note_on_c, 9, 42, 0
10, 30540, Note_on_c, 9, 42, 101
10, 30565, Note_on_c, 9, 42, 0
10, 30600, Note_on_c, 9, 42, 101
10, 30626, Note_on_c, 9, 42, 0
10, 30660, Note_on_c, 9, 42, 83
10, 30690, Note_on_c, 9, 42, 0
10, 30720, Note_on_c, 9, 42, 105
10, 30743, Note_on_c, 9, 42, 0
10, 30780, Note_on_c, 9, 42, 86
10, 30804, Note_on_c, 9, 42, 0
10, 30840, Note_on_c, 9, 42, 94
10, 30862, Note_on_c, 9, 42, 0
10, 30900, Note_on_c, 9, 42, 98
10, 30922, Note_on_c, 9, 42, 0
10, 30960, Note_on_c, 9, 42, 86
10, 30981, Note_on_c, 9, 42, 0
10, 31020, Note_on_c, 9, 42, 101
10, 31045, Note_on_c, 9, 42, 0
10, 31080, Note_on_c, 9, 42, 101
10, 31106, Note_on_c, 9, 42, 0
10, 31140, Note_on_c, 9, 42, 83
10, 31170, Note_on_c, 9, 42, 0
10, 31200, Note_on_c, 9, 42, 105
10, 31223, Note_on_c, 9, 42, 0
10, 31260, Note_on_c, 9, 42, 86
10, 31284, Note_on_c, 9, 42, 0
10, 31320, Note_on_c, 9, 42, 94
10, 31342, Note_on_c, 9, 42, 0
10, 31380, Note_on_c, 9, 42, 98
10, 31402, Note_on_c, 9, 42, 0
10, 31440, Note_on_c, 9, 42, 86
10, 31461, Note_on_c, 9, 42, 0
10, 31500, Note_on_c, 9, 42, 101
10, 31525, Note_on_c, 9, 42, 0
10, 31560, Note_on_c, 9, 42, 101
10, 31586, Note_on_c, 9, 42, 0
10, 31620, Note_on_c, 9, 42, 83
10, 31650, Note_on_c, 9, 42, 0
10, 31680, Note_on_c, 9, 42, 105
10, 31703, Note_on_c, 9, 42, 0
10, 31740, Note_on_c, 9, 42, 86
10, 31764, Note_on_c, 9, 42, 0
10, 31800, Note_on_c, 9, 42, 94
10, 31822, Note_on_c, 9, 42, 0
10, 31860, Note_on_c, 9, 42, 98
10, 31882, Note_on_c, 9, 42, 0
10, 31920, Note_on_c, 9, 42, 86
10, 31941, Note_on_c, 9, 42, 0
10, 31980, Note_on_c, 9, 42, 101
10, 32005, Note_on_c, 9, 42, 0
10, 32040, Note_on_c, 9, 42, 101
10, 32066, Note_on_c, 9, 42, 0
10, 32100, Note_on_c, 9, 42, 83
10, 32130, Note_on_c, 9, 42, 0
10, 32160, Note_on_c, 9, 42, 105
10, 32183, Note_on_c, 9, 42, 0
10, 32220, Note_on_c, 9, 42, 86
10, 32244, Note_on_c, 9, 42, 0
10, 32280, Note_on_c, 9, 42, 94
10, 32302, Note_on_c, 9, 42, 0
10, 32340, Note_on_c, 9, 42, 98
10, 32362, Note_on_c, 9, 42, 0
10, 32400, Note_on_c, 9, 42, 86
10, 32421, Note_on_c, 9, 42, 0
10, 32460, Note_on_c, 9, 42, 101
10, 32485, Note_on_c, 9, 42, 0
10, 32520, Note_on_c, 9, 42, 101
10, 32546, Note_on_c, 9, 42, 0
10, 32580, Note_on_c, 9, 42, 83
10, 32610, Note_on_c, 9, 42, 0
10, 32640, Note_on_c, 9, 42, 105
10, 32663, Note_on_c, 9, 42, 0
10, 32700, Note_on_c, 9, 42, 86
10, 32724, Note_on_c, 9, 42, 0
10, 32760, Note_on_c, 9, 42, 94
10, 32782, Note_on_c, 9, 42, 0
10, 32820, Note_on_c, 9, 42, 98
10, 32842, Note_on_c, 9, 42, 0
10, 32880, Note_on_c, 9, 42, 86
10, 32901, Note_on_c, 9, 42, 0
10, 32940, Note_on_c, 9, 42, 101
10, 32965, Note_on_c, 9, 42, 0
10, 33000, Note_on_c, 9, 42, 101
10, 33026, Note_on_c, 9, 42, 0
10, 33060, Note_on_c, 9, 42, 83
10, 33090, Note_on_c, 9, 42, 0
10, 33120, Note_on_c, 9, 42, 105
10, 33143, Note_on_c, 9, 42, 0
10, 33180, Note_on_c, 9, 42, 86
10, 33204, Note_on_c, 9, 42, 0
10, 33240, Note_on_c, 9, 42, 94
10, 33262, Note_on_c, 9, 42, 0
10, 33300, Note_on_c, 9, 42, 98
10, 33322, Note_on_c, 9, 42, 0
10, 33360, Note_on_c, 9, 42, 86
10, 33381, Note_on_c, 9, 42, 0
10, 33420, Note_on_c, 9, 42, 101
10, 33445, Note_on_c, 9, 42, 0
10, 33480, Note_on_c, 9, 42, 101
10, 33506, Note_on_c, 9, 42, 0
10, 33540, Note_on_c, 9, 42, 83
10, 33570, Note_on_c, 9, 42, 0
10, 33600, Note_on_c, 9, 42, 105
10, 33623, Note_on_c, 9, 42, 0
10, 33660, Note_on_c, 9, 42, 86
10, 33684, Note_on_c, 9, 42, 0
10, 33720, Note_on_c, 9, 42, 94
10, 33742, Note_on_c, 9, 42, 0
10, 33780, Note_on_c, 9, 42, 98
10, 33802, Note_on_c, 9, 42, 0
10, 33840, Note_on_c, 9, 42, 86
10, 33861, Note_on_c, 9, 42, 0
10, 33900, Note_on_c, 9, 42, 101
10, 33925, Note_on_c, 9, 42, 0
10, 33960, Note_on_c, 9, 42, 101
10, 33986, Note_on_c, 9, 42, 0
10, 34020, Note_on_c, 9, 42, 83
10, 34050, Note_on_c, 9, 42, 0
10, 34080, Note_on_c, 9, 42, 105
10, 34103, Note_on_c, 9, 42, 0
10, 34140, Note_on_c, 9, 42, 86
10, 34164, Note_on_c, 9, 42, 0
10, 34200, Note_on_c, 9, 42, 94
10, 34222, Note_on_c, 9, 42, 0
10, 34260, Note_on_c, 9, 42, 98
10, 34282, Note_on_c, 9, 42, 0
10, 34320, Note_on_c, 9, 42, 86
10, 34341, Note_on_c, 9, 42, 0
10, 34380, Note_on_c, 9, 42, 101
10, 34405, Note_on_c, 9, 42, 0
10, 34440, Note_on_c, 9, 42, 101
10, 34466, Note_on_c, 9, 42, 0
10, 34500, Note_on_c, 9, 42, 83
10, 34530, Note_on_c, 9, 42, 0
10, 34560, Note_on_c, 9, 42, 105
10, 34583, Note_on_c, 9, 42, 0
10, 34620, Note_on_c, 9, 42, 86
10, 34644, Note_on_c, 9, 42, 0
10, 34680, Note_on_c, 9, 42, 94
10, 34702, Note_on_c, 9, 42, 0
10, 34740, Note_on_c, 9, 42, 98
10, 34762, Note_on_c, 9, 42, 0
10, 34800, Note_on_c, 9, 42, 86
10, 34821, Note_on_c, 9, 42, 0
10, 34860, Note_on_c, 9, 42, 101
10, 34885, Note_on_c, 9, 42, 0
10, 34920, Note_on_c, 9, 42, 101
10, 34946, Note_on_c, 9, 42, 0
10, 34980, Note_on_c, 9, 42, 83
10, 35010, Note_on_c, 9, 42, 0
10, 35040, Note_on_c, 9, 42, 105
10, 35063, Note_on_c, 9, 42, 0
10, 35100, Note_on_c, 9, 42, 86
10, 35124, Note_on_c, 9, 42, 0
10, 35160, Note_on_c, 9, 42, 94
10, 35182, Note_on_c, 9, 42, 0
10, 35220, Note_on_c, 9, 42, 98
10, 35242, Note_on_c, 9, 42, 0
10, 35280, Note_on_c, 9, 42, 86
10, 35301, Note_on_c, 9, 42, 0
10, 35340, Note_on_c, 9, 42, 101
10, 35365, Note_on_c, 9, 42, 0
10, 35400, Note_on_c, 9, 42, 101
10, 35426, Note_on_c, 9, 42, 0
10, 35460, Note_on_c, 9, 42, 83
10, 35490, Note_on_c, 9, 42, 0
10, 35520, Note_on_c, 9, 42, 105
10, 35543, Note_on_c, 9, 42, 0
10, 35580, Note_on_c, 9, 42, 86
10, 35604, Note_on_c, 9, 42, 0
10, 35640, Note_on_c, 9, 42, 94
10, 35662, Note_on_c, 9, 42, 0
10, 35700, Note_on_c, 9, 42, 98
10, 35722, Note_on_c, 9, 42, 0
10, 35760, Note_on_c, 9, 42, 86
10, 35781, Note_on_c, 9, 42, 0
10, 35820, Note_on_c, 9, 42, 101
10, 35845, Note_on_c, 9, 42, 0
10, 35880, Note_on_c, 9, 42, 101
10, 35906, Note_on_c, 9, 42, 0
10, 35940, Note_on_c, 9, 42, 83
10, 35970, Note_on_c, 9, 42, 0
10, 36000, Note_on_c, 9, 42, 105
10, 36023, Note_on_c, 9, 42, 0
10, 36060, Note_on_c, 9, 42, 86
10, 36084, Note_on_c, 9, 42, 0
10, 36120, Note_on_c, 9, 42, 94
10, 36142, Note_on_c, 9, 42, 0
10, 36180, Note_on_c, 9, 42, 98
10, 36202, Note_on_c, 9, 42, 0
10, 36240, Note_on_c, 9, 42, 86
10, 36261, Note_on_c, 9, 42, 0
10, 36300, Note_on_c, 9, 42, 101
10, 36325, Note_on_c, 9, 42, 0
10, 36360, Note_on_c, 9, 42, 101
10, 36386, Note_on_c, 9, 42, 0
10, 36420, Note_on_c, 9, 42, 83
10, 36450, Note_on_c, 9, 42, 0
10, 36480, Note_on_c, 9, 42, 105
10, 36503, Note_on_c, 9, 42, 0
10, 36540, Note_on_c, 9, 42, 86
10, 36564, Note_on_c, 9, 42, 0
10, 36600, Note_on_c, 9, 42, 94
10, 36622, Note_on_c, 9, 42, 0
10, 36660, Note_on_c, 9, 42, 98
10, 36682, Note_on_c, 9, 42, 0
10, 36720, Note_on_c, 9, 42, 86
10, 36741, Note_on_c, 9, 42, 0
10, 36780, Note_on_c, 9, 42, 101
10, 36805, Note_on_c, 9, 42, 0
10, 36840, Note_on_c, 9, 42, 101
10, 36866, Note_on_c, 9, 42, 0
10, 36900, Note_on_c, 9, 42, 83
10, 36930, Note_on_c, 9, 42, 0
10, 36960, Note_on_c, 9, 42, 105
10, 36983, Note_on_c, 9, 42, 0
10, 37020, Note_on_c, 9, 42, 86
10, 37044, Note_on_c, 9, 42, 0
10, 37080, Note_on_c, 9, 42, 94
10, 37102, Note_on_c, 9, 42, 0
10, 37140, Note_on_c, 9, 42, 98
10, 37162, Note_on_c, 9, 42, 0
10, 37200, Note_on_c, 9, 42, 86
10, 37221, Note_on_c, 9, 42, 0
10, 37260, Note_on_c, 9, 42, 101
10, 37285, Note_on_c, 9, 42, 0
10, 37320, Note_on_c, 9, 42, 101
10, 37346, Note_on_c, 9, 42, 0
10, 37380, Note_on_c, 9, 42, 83
10, 37410, Note_on_c, 9, 42, 0
10, 37440, Note_on_c, 9, 42, 105
10, 37463, Note_on_c, 9, 42, 0
10, 37500, Note_on_c, 9, 42, 86
10, 37524, Note_on_c, 9, 42, 0
10, 37560, Note_on_c, 9, 42, 94
10, 37582, Note_on_c, 9, 42, 0
10, 37620, Note_on_c, 9, 42, 98
10, 37642, Note_on_c, 9, 42, 0
10, 37680, Note_on_c, 9, 42, 86
10, 37701, Note_on_c, 9, 42, 0
10, 37740, Note_on_c, 9, 42, 101
10, 37765, Note_on_c, 9, 42, 0
10, 37800, Note_on_c, 9, 42, 101
10, 37826, Note_on_c, 9, 42, 0
10, 37860, Note_on_c, 9, 42, 83
10, 37890, Note_on_c, 9, 42, 0
10, 37920, Note_on_c, 9, 42, 105
10, 37943, Note_on_c, 9, 42, 0
10, 37980, Note_on_c, 9, 42, 86
10, 38004, Note_on_c, 9, 42, 0
10, 38040, Note_on_c, 9, 42, 94
10, 38062, Note_on_c, 9, 42, 0
10, 38100, Note_on_c, 9, 42, 98
10, 38122, Note_on_c, 9, 42, 0
10, 38160, Note_on_c, 9, 42, 86
10, 38181, Note_on_c, 9, 42, 0
10, 38220, Note_on_c, 9, 42, 101
10, 38245, Note_on_c, 9, 42, 0
10, 38280, Note_on_c, 9, 42, 101
10, 38306, Note_on_c, 9, 42, 0
10, 38340, Note_on_c, 9, 42, 83
10, 38370, Note_on_c, 9, 42, 0
10, 38400, Note_on_c, 9, 42, 105
10, 38423, Note_on_c, 9, 42, 0
10, 38460, Note_on_c, 9, 42, 86
10, 38484, Note_on_c, 9, 42, 0
10, 38520, Note_on_c, 9, 42, 94
10, 38542, Note_on_c, 9, 42, 0
10, 38580, Note_on_c, 9, 42, 98
10, 38602, Note_on_c, 9, 42, 0
10, 38640, Note_on_c, 9, 42, 86
10, 38661, Note_on_c, 9, 42, 0
10, 38700, Note_on_c, 9, 42, 101
10, 38725, Note_on_c, 9, 42, 0
10, 38760, Note_on_c, 9, 42, 101
10, 38786, Note_on_c, 9, 42, 0
10, 38820, Note_on_c, 9, 42, 83
10, 38850, Note_on_c, 9, 42, 0
10, 38880, Note_on_c, 9, 42, 105
10, 38903, Note_on_c, 9, 42, 0
10, 38940, Note_on_c, 9, 42, 86
10, 38964, Note_on_c, 9, 42, 0
10, 39000, Note_on_c, 9, 42, 94
10, 39022, Note_on_c, 9, 42, 0
10, 39060, Note_on_c, 9, 42, 98
10, 39082, Note_on_c, 9, 42, 0
10, 39120, Note_on_c, 9, 42, 86
10, 39141, Note_on_c, 9, 42, 0
10, 39180, Note_on_c, 9, 42, 101
10, 39205, Note_on_c, 9, 42, 0
10, 39240, Note_on_c, 9, 42, 101
10, 39266, Note_on_c, 9, 42, 0
10, 39300, Note_on_c, 9, 42, 83
10, 39330, Note_on_c, 9, 42, 0
10, 39360, Note_on_c, 9, 42, 105
10, 39383, Note_on_c, 9, 42, 0
10, 39420, Note_on_c, 9, 42, 86
10, 39444, Note_on_c, 9, 42, 0
10, 39480, Note_on_c, 9, 42, 94
10, 39502, Note_on_c, 9, 42, 0
10, 39540, Note_on_c, 9, 42, 98
10, 39562, Note_on_c, 9, 42, 0
10, 39600, Note_on_c, 9, 42, 86
10, 39621, Note_on_c, 9, 42, 0
10, 39660, Note_on_c, 9, 42, 101
10, 39685, Note_on_c, 9, 42, 0
10, 39720, Note_on_c, 9, 42, 101
10, 39746, Note_on_c, 9, 42, 0
10, 39780, Note_on_c, 9, 42, 83
10, 39810, Note_on_c, 9, 42, 0
10, 39840, Note_on_c, 9, 42, 105
10, 39863, Note_on_c, 9, 42, 0
10, 39900, Note_on_c, 9, 42, 86
10, 39924, Note_on_c, 9, 42, 0
10, 39960, Note_on_c, 9, 42, 94
10, 39982, Note_on_c, 9, 42, 0
10, 40020, Note_on_c, 9, 42, 98
10, 40042, Note_on_c, 9, 42, 0
10, 40080, Note_on_c, 9, 42, 86
10, 40101, Note_on_c, 9, 42, 0
10, 40140, Note_on_c, 9, 42, 101
10, 40165, Note_on_c, 9, 42, 0
10, 40200, Note_on_c, 9, 42, 101
10, 40226, Note_on_c, 9, 42, 0
10, 40260, Note_on_c, 9, 42, 83
10, 40290, Note_on_c, 9, 42, 0
10, 40320, Note_on_c, 9, 42, 105
10, 40343, Note_on_c, 9, 42, 0
10, 40380, Note_on_c, 9, 42, 86
10, 40404, Note_on_c, 9, 42, 0
10, 40440, Note_on_c, 9, 42, 94
10, 40462, Note_on_c, 9, 42, 0
10, 40500, Note_on_c, 9, 42, 98
10, 40522, Note_on_c, 9, 42, 0
10, 40560, Note_on_c, 9, 42, 86
10, 40581, Note_on_c, 9, 42, 0
10, 40620, Note_on_c, 9, 42, 101
10, 40645, Note_on_c, 9, 42, 0
10, 40680, Note_on_c, 9, 42, 101
10, 40706, Note_on_c, 9, 42, 0
10, 40740, Note_on_c, 9, 42, 83
10, 40770, Note_on_c, 9, 42, 0
10, 40800, Note_on_c, 9, 42, 105
10, 40823, Note_on_c, 9, 42, 0
10, 40860, Note_on_c, 9, 42, 86
10, 40884, Note_on_c, 9, 42, 0
10, 40920, Note_on_c, 9, 42, 94
10, 40942, Note_on_c, 9, 42, 0
10, 40980, Note_on_c, 9, 42, 98
10, 41002, Note_on_c, 9, 42, 0
10, 41040, Note_on_c, 9, 42, 86
10, 41061, Note_on_c, 9, 42, 0
10, 41100, Note_on_c, 9, 42, 101
10, 41125, Note_on_c, 9, 42, 0
10, 41160, Note_on_c, 9, 42, 101
10, 41186, Note_on_c, 9, 42, 0
10, 41220, Note_on_c, 9, 42, 83
10, 41250, Note_on_c, 9, 42, 0
10, 41280, Note_on_c, 9, 42, 105
10, 41303, Note_on_c, 9, 42, 0
10, 41340, Note_on_c, 9, 42, 86
10, 41364, Note_on_c, 9, 42, 0
10, 41400, Note_on_c, 9, 42, 94
10, 41422, Note_on_c, 9, 42, 0
10, 41460, Note_on_c, 9, 42, 98
10, 41482, Note_on_c, 9, 42, 0
10, 41520, Note_on_c, 9, 42, 86
10, 41541, Note_on_c, 9, 42, 0
10, 41580, Note_on_c, 9, 42, 101
10, 41605, Note_on_c, 9, 42, 0
10, 41640, Note_on_c, 9, 42, 101
10, 41666, Note_on_c, 9, 42, 0
10, 41700, Note_on_c, 9, 42, 83
10, 41730, Note_on_c, 9, 42, 0
10, 41760, Note_on_c, 9, 42, 105
10, 41783, Note_on_c, 9, 42, 0
10, 41820, Note_on_c, 9, 42, 86
10, 41844, Note_on_c, 9, 42, 0
10, 41880, Note_on_c, 9, 42, 94
10, 41902, Note_on_c, 9, 42, 0
10, 41940, Note_on_c, 9, 42, 98
10, 41962, Note_on_c, 9, 42, 0
10, 42000, Note_on_c, 9, 42, 86
10, 42021, Note_on_c, 9, 42, 0
10, 42060, Note_on_c, 9, 42, 101
10, 42085, Note_on_c, 9, 42, 0
10, 42120, Note_on_c, 9, 42, 101
10, 42146, Note_on_c, 9, 42, 0
10, 42180, Note_on_c, 9, 42, 83
10, 42210, Note_on_c, 9, 42, 0
10, 42240, Note_on_c, 9, 42, 105
10, 42263, Note_on_c, 9, 42, 0
10, 42300, Note_on_c, 9, 42, 86
10, 42324, Note_on_c, 9, 42, 0
10, 42360, Note_on_c, 9, 42, 94
10, 42382, Note_on_c, 9, 42, 0
10, 42420, Note_on_c, 9, 42, 98
10, 42442, Note_on_c, 9, 42, 0
10, 42480, Note_on_c, 9, 42, 86
10, 42501, Note_on_c, 9, 42, 0
10, 42540, Note_on_c, 9, 42, 101
10, 42565, Note_on_c, 9, 42, 0
10, 42600, Note_on_c, 9, 42, 101
10, 42626, Note_on_c, 9, 42, 0
10, 42660, Note_on_c, 9, 42, 83
10, 42690, Note_on_c, 9, 42, 0
10, 42720, Note_on_c, 9, 42, 105
10, 42743, Note_on_c, 9, 42, 0
10, 42780, Note_on_c, 9, 42, 86
10, 42804, Note_on_c, 9, 42, 0
10, 42840, Note_on_c, 9, 42, 94
10, 42862, Note_on_c, 9, 42, 0
10, 42900, Note_on_c, 9, 42, 98
10, 42922, Note_on_c, 9, 42, 0
10, 42960, Note_on_c, 9, 42, 86
10, 42981, Note_on_c, 9, 42, 0
10, 43020, Note_on_c, 9, 42, 101
10, 43045, Note_on_c, 9, 42, 0
10, 43080, Note_on_c, 9, 42, 101
10, 43106, Note_on_c, 9, 42, 0
10, 43140, Note_on_c, 9, 42, 83
10, 43170, Note_on_c, 9, 42, 0
10, 43200, Note_on_c, 9, 42, 105
10, 43223, Note_on_c, 9, 42, 0
10, 43260, Note_on_c, 9, 42, 86
10, 43284, Note_on_c, 9, 42, 0
10, 43320, Note_on_c, 9, 42, 94
10, 43342, Note_on_c, 9, 42, 0
10, 43380, Note_on_c, 9, 42, 98
10, 43402, Note_on_c, 9, 42, 0
10, 43440, Note_on_c, 9, 42, 86
10, 43461, Note_on_c, 9, 42, 0
10, 43500, Note_on_c, 9, 42, 101
10, 43525, Note_on_c, 9, 42, 0
10, 43560, Note_on_c, 9, 42, 101
10, 43586, Note_on_c, 9, 42, 0
10, 43620, Note_on_c, 9, 42, 83
10, 43650, Note_on_c, 9, 42, 0
10, 43680, Note_on_c, 9, 42, 105
10, 43703, Note_on_c, 9, 42, 0
10, 43740, Note_on_c, 9, 42, 86
10, 43764, Note_on_c, 9, 42, 0
10, 43800, Note_on_c, 9, 42, 94
10, 43822, Note_on_c, 9, 42, 0
10, 43860, Note_on_c, 9, 42, 98
10, 43882, Note_on_c, 9, 42, 0
10, 43920, Note_on_c, 9, 42, 86
10, 43941, Note_on_c, 9, 42, 0
10, 43980, Note_on_c, 9, 42, 101
10, 44005, Note_on_c, 9, 42, 0
10, 44040, Note_on_c, 9, 42, 101
10, 44066, Note_on_c, 9, 42, 0
10, 44100, Note_on_c, 9, 42, 83
10, 44130, Note_on_c, 9, 42, 0
10, 44160, Note_on_c, 9, 42, 105
10, 44183, Note_on_c, 9, 42, 0
10, 44220, Note_on_c, 9, 42, 86
10, 44244, Note_on_c, 9, 42, 0
10, 44280, Note_on_c, 9, 42, 94
10, 44302, Note_on_c, 9, 42, 0
10, 44340, Note_on_c, 9, 42, 98
10, 44362, Note_on_c, 9, 42, 0
10, 44400, Note_on_c, 9, 42, 86
10, 44421, Note_on_c, 9, 42, 0
10, 44460, Note_on_c, 9, 42, 101
10, 44485, Note_on_c, 9, 42, 0
10, 44520, Note_on_c, 9, 42, 101
10, 44546, Note_on_c, 9, 42, 0
10, 44580, Note_on_c, 9, 42, 83
10, 44610, Note_on_c, 9, 42, 0
10, 44640, Note_on_c, 9, 42, 105
10, 44663, Note_on_c, 9, 42, 0
10, 44700, Note_on_c, 9, 42, 86
10, 44724, Note_on_c, 9, 42, 0
10, 44760, Note_on_c, 9, 42, 94
10, 44782, Note_on_c, 9, 42, 0
10, 44820, Note_on_c, 9, 42, 98
10, 44842, Note_on_c, 9, 42, 0
10, 44880, Note_on_c, 9, 42, 86
10, 44901, Note_on_c, 9, 42, 0
10, 44940, Note_on_c, 9, 42, 101
10, 44965, Note_on_c, 9, 42, 0
10, 45000, Note_on_c, 9, 42, 101
10, 45026, Note_on_c, 9, 42, 0
10, 45060, Note_on_c, 9, 42, 83
10, 45090, Note_on_c, 9, 42, 0
10, 45120, Note_on_c, 9, 42, 105
10, 45143, Note_on_c, 9, 42, 0
10, 45180, Note_on_c, 9, 42, 86
10, 45204, Note_on_c, 9, 42, 0
10, 45240, Note_on_c, 9, 42, 94
10, 45262, Note_on_c, 9, 42, 0
10, 45300, Note_on_c, 9, 42, 98
10, 45322, Note_on_c, 9, 42, 0
10, 45360, Note_on_c, 9, 42, 86
10, 45381, Note_on_c, 9, 42, 0
10, 45420, Note_on_c, 9, 42, 101
10, 45445, Note_on_c, 9, 42, 0
10, 45480, Note_on_c, 9, 42, 101
10, 45506, Note_on_c, 9, 42, 0
10, 45540, Note_on_c, 9, 42, 83
10, 45570, Note_on_c, 9, 42, 0
10, 45600, Note_on_c, 9, 42, 105
10, 45623, Note_on_c, 9, 42, 0
10, 45660, Note_on_c, 9, 42, 86
10, 45684, Note_on_c, 9, 42, 0
10, 45720, Note_on_c, 9, 42, 94
10, 45742, Note_on_c, 9, 42, 0
10, 45780, Note_on_c, 9, 42, 98
10, 45802, Note_on_c, 9, 42, 0
10, 45840, Note_on_c, 9, 42, 86
10, 45861, Note_on_c, 9, 42, 0
10, 45900, Note_on_c, 9, 42, 101
10, 45925, Note_on_c, 9, 42, 0
10, 45960, Note_on_c, 9, 42, 101
10, 45986, Note_on_c, 9, 42, 0
10, 46020, Note_on_c, 9, 42, 83
10, 46050, Note_on_c, 9, 42, 0
10, 46080, Note_on_c, 9, 42, 105
10, 46103, Note_on_c, 9, 42, 0
10, 46140, Note_on_c, 9, 42, 86
10, 46164, Note_on_c, 9, 42, 0
10, 46200, Note_on_c, 9, 42, 94
10, 46222, Note_on_c, 9, 42, 0
10, 46260, Note_on_c, 9, 42, 98
10, 46282, Note_on_c, 9, 42, 0
10, 46320, Note_on_c, 9, 42, 86
10, 46341, Note_on_c, 9, 42, 0
10, 46380, Note_on_c, 9, 42, 101
10, 46405, Note_on_c, 9, 42, 0
10, 46440, Note_on_c, 9, 42, 101
10, 46466, Note_on_c, 9, 42, 0
10, 46500, Note_on_c, 9, 42, 83
10, 46530, Note_on_c, 9, 42, 0
10, 46560, Note_on_c, 9, 42, 105
10, 46583, Note_on_c, 9, 42, 0
10, 46620, Note_on_c, 9, 42, 86
10, 46644, Note_on_c, 9, 42, 0
10, 46680, Note_on_c, 9, 42, 94
10, 46702, Note_on_c, 9, 42, 0
10, 46740, Note_on_c, 9, 42, 98
10, 46762, Note_on_c, 9, 42, 0
10, 46800, Note_on_c, 9, 42, 86
10, 46821, Note_on_c, 9, 42, 0
10, 46860, Note_on_c, 9, 42, 101
10, 46885, Note_on_c, 9, 42, 0
10, 46920, Note_on_c, 9, 42, 101
10, 46946, Note_on_c, 9, 42, 0
10, 46980, Note_on_c, 9, 42, 83
10, 47010, Note_on_c, 9, 42, 0
10, 47040, Note_on_c, 9, 42, 105
10, 47063, Note_on_c, 9, 42, 0
10, 47100, Note_on_c, 9, 42, 86
10, 47124, Note_on_c, 9, 42, 0
10, 47160, Note_on_c, 9, 42, 94
10, 47182, Note_on_c, 9, 42, 0
10, 47220, Note_on_c, 9, 42, 98
10, 47242, Note_on_c, 9, 42, 0
10, 47280, Note_on_c, 9, 42, 86
10, 47301, Note_on_c, 9, 42, 0
10, 47340, Note_on_c, 9, 42, 101
10, 47365, Note_on_c, 9, 42, 0
10, 47400, Note_on_c, 9, 42, 101
10, 47426, Note_on_c, 9, 42, 0
10, 47460, Note_on_c, 9, 42, 83
10, 47490, Note_on_c, 9, 42, 0
10, 47520, Note_on_c, 9, 42, 105
10, 47543, Note_on_c, 9, 42, 0
10, 47580, Note_on_c, 9, 42, 86
10, 47604, Note_on_c, 9, 42, 0
10, 47640, Note_on_c, 9, 42, 94
10, 47662, Note_on_c, 9, 42, 0
10, 47700, Note_on_c, 9, 42, 98
10, 47722, Note_on_c, 9, 42, 0
10, 47760, Note_on_c, 9, 42, 86
10, 47781, Note_on_c, 9, 42, 0
10, 47820, Note_on_c, 9, 42, 101
10, 47845, Note_on_c, 9, 42, 0
10, 47880, Note_on_c, 9, 42, 101
10, 47906, Note_on_c, 9, 42, 0
10, 47940, Note_on_c, 9, 42, 83
10, 47970, Note_on_c, 9, 42, 0
10, 48000, Note_on_c, 9, 42, 105
10, 48023, Note_on_c, 9, 42, 0
10, 48060, Note_on_c, 9, 42, 86
10, 48084, Note_on_c, 9, 42, 0
10, 48120, Note_on_c, 9, 42, 94
10, 48142, Note_on_c, 9, 42, 0
10, 48180, Note_on_c, 9, 42, 98
10, 48202, Note_on_c, 9, 42, 0
10, 48240, Note_on_c, 9, 42, 86
10, 48261, Note_on_c, 9, 42, 0
10, 48300, Note_on_c, 9, 42, 101
10, 48325, Note_on_c, 9, 42, 0
10, 48360, Note_on_c, 9, 42, 101
10, 48386, Note_on_c, 9, 42, 0
10, 48420, Note_on_c, 9, 42, 83
10, 48450, Note_on_c, 9, 42, 0
10, 48480, Note_on_c, 9, 42, 105
10, 48503, Note_on_c, 9, 42, 0
10, 48540, Note_on_c, 9, 42, 86
10, 48564, Note_on_c, 9, 42, 0
10, 48600, Note_on_c, 9, 42, 94
10, 48622, Note_on_c, 9, 42, 0
10, 48660, Note_on_c, 9, 42, 98
10, 48682, Note_on_c, 9, 42, 0
10, 48720, Note_on_c, 9, 42, 86
10, 48741, Note_on_c, 9, 42, 0
10, 48780, Note_on_c, 9, 42, 101
10, 48805, Note_on_c, 9, 42, 0
10, 48840, Note_on_c, 9, 42, 101
10, 48866, Note_on_c, 9, 42, 0
10, 48900, Note_on_c, 9, 42, 83
10, 48930, Note_on_c, 9, 42, 0
10, 48960, Note_on_c, 9, 42, 105
10, 48983, Note_on_c, 9, 42, 0
10, 49020, Note_on_c, 9, 42, 86
10, 49044, Note_on_c, 9, 42, 0
10, 49080, Note_on_c, 9, 42, 94
10, 49102, Note_on_c, 9, 42, 0
10, 49140, Note_on_c, 9, 42, 98
10, 49162, Note_on_c, 9, 42, 0
10, 49200, Note_on_c, 9, 42, 86
10, 49221, Note_on_c, 9, 42, 0
10, 49260, Note_on_c, 9, 42, 101
10, 49285, Note_on_c, 9, 42, 0
10, 49320, Note_on_c, 9, 42, 101
10, 49346, Note_on_c, 9, 42, 0
10, 49380, Note_on_c, 9, 42, 83
10, 49410, Note_on_c, 9, 42, 0
10, 49440, Note_on_c, 9, 42, 105
10, 49463, Note_on_c, 9, 42, 0
10, 49500, Note_on_c, 9, 42, 86
10, 49524, Note_on_c, 9, 42, 0
10, 49560, Note_on_c, 9, 42, 94
10, 49582, Note_on_c, 9, 42, 0
10, 49620, Note_on_c, 9, 42, 98
10, 49642, Note_on_c, 9, 42, 0
10, 49680, Note_on_c, 9, 42, 86
10, 49701, Note_on_c, 9, 42, 0
10, 49740, Note_on_c, 9, 42, 101
10, 49765, Note_on_c, 9, 42, 0
10, 49800, Note_on_c, 9, 42, 101
10, 49826, Note_on_c, 9, 42, 0
10, 49860, Note_on_c, 9, 42, 83
10, 49890, Note_on_c, 9, 42, 0
10, 49920, Note_on_c, 9, 42, 105
10, 49943, Note_on_c, 9, 42, 0
10, 49980, Note_on_c, 9, 42, 86
10, 50004, Note_on_c, 9, 42, 0
10, 50040, Note_on_c, 9, 42, 94
10, 50062, Note_on_c, 9, 42, 0
10, 50100, Note_on_c, 9, 42, 98
10, 50122, Note_on_c, 9, 42, 0
10, 50160, Note_on_c, 9, 42, 86
10, 50181, Note_on_c, 9, 42, 0
10, 50220, Note_on_c, 9, 42, 101
10, 50245, Note_on_c, 9, 42, 0
10, 50280, Note_on_c, 9, 42, 101
10, 50306, Note_on_c, 9, 42, 0
10, 50340, Note_on_c, 9, 42, 83
10, 50370, Note_on_c, 9, 42, 0
10, 50400, Note_on_c, 9, 42, 105
10, 50423, Note_on_c, 9, 42, 0
10, 50460, Note_on_c, 9, 42, 86
10, 50484, Note_on_c, 9, 42, 0
10, 50520, Note_on_c, 9, 42, 94
10, 50542, Note_on_c, 9, 42, 0
10, 50580, Note_on_c, 9, 42, 98
10, 50602, Note_on_c, 9, 42, 0
10, 50640, Note_on_c, 9, 42, 86
10, 50661, Note_on_c, 9, 42, 0
10, 50700, Note_on_c, 9, 42, 101
10, 50725, Note_on_c, 9, 42, 0
10, 50760, Note_on_c, 9, 42, 101
10, 50786, Note_on_c, 9, 42, 0
10, 50820, Note_on_c, 9, 42, 83
10, 50850, Note_on_c, 9, 42, 0
10, 50880, Note_on_c, 9, 42, 105
10, 50903, Note_on_c, 9, 42, 0
10, 50940, Note_on_c, 9, 42, 86
10, 50964, Note_on_c, 9, 42, 0
10, 51000, Note_on_c, 9, 42, 94
10, 51022, Note_on_c, 9, 42, 0
10, 51060, Note_on_c, 9, 42, 98
10, 51082, Note_on_c, 9, 42, 0
10, 51120, Note_on_c, 9, 42, 86
10, 51141, Note_on_c, 9, 42, 0
10, 51180, Note_on_c, 9, 42, 101
10, 51205, Note_on_c, 9, 42, 0
10, 51240, Note_on_c, 9, 42, 101
10, 51266, Note_on_c, 9, 42, 0
10, 51300, Note_on_c, 9, 42, 83
10, 51330, Note_on_c, 9, 42, 0
10, 51360, Note_on_c, 9, 42, 105
10, 51383, Note_on_c, 9, 42, 0
10, 51420, Note_on_c, 9, 42, 86
10, 51444, Note_on_c, 9, 42, 0
10, 51480, Note_on_c, 9, 42, 94
10, 51502, Note_on_c, 9, 42, 0
10, 51540, Note_on_c, 9, 42, 98
10, 51562, Note_on_c, 9, 42, 0
10, 51600, Note_on_c, 9, 42, 86
10, 51621, Note_on_c, 9, 42, 0
10, 51660, Note_on_c, 9, 42, 101
10, 51685, Note_on_c, 9, 42, 0
10, 51720, Note_on_c, 9, 42, 101
10, 51746, Note_on_c, 9, 42, 0
10, 51780, Note_on_c, 9, 42, 83
10, 51810, Note_on_c, 9, 42, 0
10, 51840, Note_on_c, 9, 42, 105
10, 51863, Note_on_c, 9, 42, 0
10, 51900, Note_on_c, 9, 42, 86
10, 51924, Note_on_c, 9, 42, 0
10, 51960, Note_on_c, 9, 42, 94
10, 51982, Note_on_c, 9, 42, 0
10, 52020, Note_on_c, 9, 42, 98
10, 52042, Note_on_c, 9, 42, 0
10, 52080, Note_on_c, 9, 42, 86
10, 52101, Note_on_c, 9, 42, 0
10, 52140, Note_on_c, 9, 42, 101
10, 52165, Note_on_c, 9, 42, 0
10, 52200, Note_on_c, 9, 42, 101
10, 52226, Note_on_c, 9, 42, 0
10, 52260, Note_on_c, 9, 42, 83
10, 52290, Note_on_c, 9, 42, 0
10, 52320, Note_on_c, 9, 42, 105
10, 52343, Note_on_c, 9, 42, 0
10, 52380, Note_on_c, 9, 42, 86
10, 52404, Note_on_c, 9, 42, 0
10, 52440, Note_on_c, 9, 42, 94
10, 52462, Note_on_c, 9, 42, 0
10, 52500, Note_on_c, 9, 42, 98
10, 52522, Note_on_c, 9, 42, 0
10, 52560, Note_on_c, 9, 42, 86
10, 52581, Note_on_c, 9, 42, 0
10, 52620, Note_on_c, 9, 42, 101
10, 52645, Note_on_c, 9, 42, 0
10, 52680, Note_on_c, 9, 42, 101
10, 52706, Note_on_c, 9, 42, 0
10, 52740, Note_on_c, 9, 42, 83
10, 52770, Note_on_c, 9, 42, 0
10, 52800, Note_on_c, 9, 42, 105
10, 52823, Note_on_c, 9, 42, 0
10, 52860, Note_on_c, 9, 42, 86
10, 52884, Note_on_c, 9, 42, 0
10, 52920, Note_on_c, 9, 42, 94
10, 52942, Note_on_c, 9, 42, 0
10, 52980, Note_on_c, 9, 42, 98
10, 53002, Note_on_c, 9, 42, 0
10, 53040, Note_on_c, 9, 42, 86
10, 53061, Note_on_c, 9, 42, 0
10, 53100, Note_on_c, 9, 42, 101
10, 53125, Note_on_c, 9, 42, 0
10, 53160, Note_on_c, 9, 42, 101
10, 53186, Note_on_c, 9, 42, 0
10, 53220, Note_on_c, 9, 42, 83
10, 53250, Note_on_c, 9, 42, 0
10, 53280, Note_on_c, 9, 42, 105
10, 53303, Note_on_c, 9, 42, 0
10, 53340, Note_on_c, 9, 42, 86
10, 53364, Note_on_c, 9, 42, 0
10, 53400, Note_on_c, 9, 42, 94
10, 53422, Note_on_c, 9, 42, 0
10, 53460, Note_on_c, 9, 42, 98
10, 53482, Note_on_c, 9, 42, 0
10, 53520, Note_on_c, 9, 42, 86
10, 53541, Note_on_c, 9, 42, 0
10, 53580, Note_on_c, 9, 42, 101
10, 53605, Note_on_c, 9, 42, 0
10, 53640, Note_on_c, 9, 42, 101
10, 53666, Note_on_c, 9, 42, 0
10, 53700, Note_on_c, 9, 42, 83
10, 53730, Note_on_c, 9, 42, 0
10, 53760, Note_on_c, 9, 42, 105
10, 53783, Note_on_c, 9, 42, 0
10, 53820, Note_on_c, 9, 42, 86
10, 53844, Note_on_c, 9, 42, 0
10, 53880, Note_on_c, 9, 42, 94
10, 53902, Note_on_c, 9, 42, 0
10, 53940, Note_on_c, 9, 42, 98
10, 53962, Note_on_c, 9, 42, 0
10, 54000, Note_on_c, 9, 42, 86
10, 54021, Note_on_c, 9, 42, 0
10, 54060, Note_on_c, 9, 42, 101
10, 54085, Note_on_c, 9, 42, 0
10, 54120, Note_on_c, 9, 42, 101
10, 54146, Note_on_c, 9, 42, 0
10, 54180, Note_on_c, 9, 42, 83
10, 54210, Note_on_c, 9, 42, 0
10, 54240, Note_on_c, 9, 42, 105
10, 54263, Note_on_c, 9, 42, 0
10, 54300, Note_on_c, 9, 42, 86
10, 54324, Note_on_c, 9, 42, 0
10, 54360, Note_on_c, 9, 42, 94
10, 54382, Note_on_c, 9, 42, 0
10, 54420, Note_on_c, 9, 42, 98
10, 54442, Note_on_c, 9, 42, 0
10, 54480, Note_on_c, 9, 42, 86
10, 54501, Note_on_c, 9, 42, 0
10, 54540, Note_on_c, 9, 42, 101
10, 54565, Note_on_c, 9, 42, 0
10, 54600, Note_on_c, 9, 42, 101
10, 54626, Note_on_c, 9, 42, 0
10, 54660, Note_on_c, 9, 42, 83
10, 54690, Note_on_c, 9, 42, 0
10, 54720, Note_on_c, 9, 42, 105
10, 54743, Note_on_c, 9, 42, 0
10, 54780, Note_on_c, 9, 42, 86
10, 54804, Note_on_c, 9, 42, 0
10, 54840, Note_on_c, 9, 42, 94
10, 54862, Note_on_c, 9, 42, 0
10, 54900, Note_on_c, 9, 42, 98
10, 54922, Note_on_c, 9, 42, 0
10, 54960, Note_on_c, 9, 42, 86
10, 54981, Note_on_c, 9, 42, 0
10, 55020, Note_on_c, 9, 42, 101
10, 55045, Note_on_c, 9, 42, 0
10, 55080, Note_on_c, 9, 42, 101
10, 55106, Note_on_c, 9, 42, 0
10, 55140, Note_on_c, 9, 42, 83
10, 55170, Note_on_c, 9, 42, 0
10, 55200, Note_on_c, 9, 42, 105
10, 55223, Note_on_c, 9, 42, 0
10, 55260, Note_on_c, 9, 42, 86
10, 55284, Note_on_c, 9, 42, 0
10, 55320, Note_on_c, 9, 42, 94
10, 55342, Note_on_c, 9, 42, 0
10, 55380, Note_on_c, 9, 42, 98
10, 55402, Note_on_c, 9, 42, 0
10, 55440, Note_on_c, 9, 42, 86
10, 55461, Note_on_c, 9, 42, 0
10, 55500, Note_on_c, 9, 42, 101
10, 55525, Note_on_c, 9, 42, 0
10, 55560, Note_on_c, 9, 42, 101
10, 55586, Note_on_c, 9, 42, 0
10, 55620, Note_on_c, 9, 42, 83
10, 55650, Note_on_c, 9, 42, 0
10, 55680, Note_on_c, 9, 42, 105
10, 55703, Note_on_c, 9, 42, 0
10, 55740, Note_on_c, 9, 42, 86
10, 55764, Note_on_c, 9, 42, 0
10, 55800, Note_on_c, 9, 42, 94
10, 55822, Note_on_c, 9, 42, 0
10, 55860, Note_on_c, 9, 42, 98
10, 55882, Note_on_c, 9, 42, 0
10, 55920, Note_on_c, 9, 42, 86
10, 55941, Note_on_c, 9, 42, 0
10, 55980, Note_on_c, 9, 42, 101
10, 56005, Note_on_c, 9, 42, 0
10, 56040, Note_on_c, 9, 42, 101
10, 56066, Note_on_c, 9, 42, 0
10, 56100, Note_on_c, 9, 42, 83
10, 56130, Note_on_c, 9, 42, 0
10, 56160, Note_on_c, 9, 42, 105
10, 56183, Note_on_c, 9, 42, 0
10, 56220, Note_on_c, 9, 42, 86
10, 56244, Note_on_c, 9, 42, 0
10, 56280, Note_on_c, 9, 42, 94
10, 56302, Note_on_c, 9, 42, 0
10, 56340, Note_on_c, 9, 42, 98
10, 56362, Note_on_c, 9, 42, 0
10, 56400, Note_on_c, 9, 42, 86
10, 56421, Note_on_c, 9, 42, 0
10, 56460, Note_on_c, 9, 42, 101
10, 56485, Note_on_c, 9, 42, 0
10, 56520, Note_on_c, 9, 42, 101
10, 56546, Note_on_c, 9, 42, 0
10, 56580, Note_on_c, 9, 42, 83
10, 56610, Note_on_c, 9, 42, 0
10, 56640, Note_on_c, 9, 42, 105
10, 56663, Note_on_c, 9, 42, 0
10, 56700, Note_on_c, 9, 42, 86
10, 56724, Note_on_c, 9, 42, 0
10, 56760, Note_on_c, 9, 42, 94
10, 56782, Note_on_c, 9, 42, 0
10, 56820, Note_on_c, 9, 42, 98
10, 56842, Note_on_c, 9, 42, 0
10, 56880, Note_on_c, 9, 42, 86
10, 56901, Note_on_c, 9, 42, 0
10, 56940, Note_on_c, 9, 42, 101
10, 56965, Note_on_c, 9, 42, 0
10, 57000, Note_on_c, 9, 42, 101
10, 57026, Note_on_c, 9, 42, 0
10, 57060, Note_on_c, 9, 42, 83
10, 57090, Note_on_c, 9, 42, 0
10, 57120, Note_on_c, 9, 42, 105
10, 57143, Note_on_c, 9, 42, 0
10, 57180, Note_on_c, 9, 42, 86
10, 57204, Note_on_c, 9, 42, 0
10, 57240, Note_on_c, 9, 42, 94
10, 57262, Note_on_c, 9, 42, 0
10, 57300, Note_on_c, 9, 42, 98
10, 57322, Note_on_c, 9, 42, 0
10, 57360, Note_on_c, 9, 42, 86
10, 57381, Note_on_c, 9, 42, 0
10, 57420, Note_on_c, 9, 42, 101
10, 57445, Note_on_c, 9, 42, 0
10, 57480, Note_on_c, 9, 42, 101
10, 57506, Note_on_c, 9, 42, 0
10, 57540, Note_on_c, 9, 42, 83
10, 57570, Note_on_c, 9, 42, 0
10, 57600, Note_on_c, 9, 42, 105
10, 57623, Note_on_c, 9, 42, 0
10, 57660, Note_on_c, 9, 42, 86
10, 57684, Note_on_c, 9, 42, 0
10, 57720, Note_on_c, 9, 42, 94
10, 57742, Note_on_c, 9, 42, 0
10, 57780, Note_on_c, 9, 42, 98
10, 57802, Note_on_c, 9, 42, 0
10, 57840, Note_on_c, 9, 42, 86
10, 57861, Note_on_c, 9, 42, 0
10, 57900, Note_on_c, 9, 42, 101
10, 57925, Note_on_c, 9, 42, 0
10, 57960, Note_on_c, 9, 42, 101
10, 57986, Note_on_c, 9, 42, 0
10, 58020, Note_on_c, 9, 42, 83
10, 58050, Note_on_c, 9, 42, 0
10, 58080, Note_on_c, 9, 42, 105
10, 58103, Note_on_c, 9, 42, 0
10, 58140, Note_on_c, 9, 42, 86
10, 58164, Note_on_c, 9, 42, 0
10, 58200, Note_on_c, 9, 42, 94
10, 58222, Note_on_c, 9, 42, 0
10, 58260, Note_on_c, 9, 42, 98
10, 58282, Note_on_c, 9, 42, 0
10, 58320, Note_on_c, 9, 42, 86
10, 58341, Note_on_c, 9, 42, 0
10, 58380, Note_on_c, 9, 42, 101
10, 58405, Note_on_c, 9, 42, 0
10, 58440, Note_on_c, 9, 42, 101
10, 58466, Note_on_c, 9, 42, 0
10, 58500, Note_on_c, 9, 42, 83
10, 58530, Note_on_c, 9, 42, 0
10, 58560, Note_on_c, 9, 42, 105
10, 58583, Note_on_c, 9, 42, 0
10, 58620, Note_on_c, 9, 42, 86
10, 58644, Note_on_c, 9, 42, 0
10, 58680, Note_on_c, 9, 42, 94
10, 58702, Note_on_c, 9, 42, 0
10, 58740, Note_on_c, 9, 42, 98
10, 58762, Note_on_c, 9, 42, 0
10, 58800, Note_on_c, 9, 42, 86
10, 58821, Note_on_c, 9, 42, 0
10, 58860, Note_on_c, 9, 42, 101
10, 58885, Note_on_c, 9, 42, 0
10, 58920, Note_on_c, 9, 42, 101
10, 58946, Note_on_c, 9, 42, 0
10, 58980, Note_on_c, 9, 42, 83
10, 59010, Note_on_c, 9, 42, 0
10, 59040, Note_on_c, 9, 42, 105
10, 59063, Note_on_c, 9, 42, 0
10, 59100, Note_on_c, 9, 42, 86
10, 59124, Note_on_c, 9, 42, 0
10, 59160, Note_on_c, 9, 42, 94
10, 59182, Note_on_c, 9, 42, 0
10, 59220, Note_on_c, 9, 42, 98
10, 59242, Note_on_c, 9, 42, 0
10, 59280, Note_on_c, 9, 42, 86
10, 59301, Note_on_c, 9, 42, 0
10, 59340, Note_on_c, 9, 42, 101
10, 59365, Note_on_c, 9, 42, 0
10, 59400, Note_on_c, 9, 42, 101
10, 59426, Note_on_c, 9, 42, 0
10, 59460, Note_on_c, 9, 42, 83
10, 59490, Note_on_c, 9, 42, 0
10, 59520, Note_on_c, 9, 42, 105
10, 59543, Note_on_c, 9, 42, 0
10, 59580, Note_on_c, 9, 42, 86
10, 59604, Note_on_c, 9, 42, 0
10, 59640, Note_on_c, 9, 42, 94
10, 59662, Note_on_c, 9, 42, 0
10, 59700, Note_on_c, 9, 42, 98
10, 59722, Note_on_c, 9, 42, 0
10, 59760, Note_on_c, 9, 42, 86
10, 59781, Note_on_c, 9, 42, 0
10, 59820, Note_on_c, 9, 42, 101
10, 59845, Note_on_c, 9, 42, 0
10, 59880, Note_on_c, 9, 42, 101
10, 59906, Note_on_c, 9, 42, 0
10, 59940, Note_on_c, 9, 42, 83
10, 59970, Note_on_c, 9, 42, 0
10, 60000, Note_on_c, 9, 42, 105
10, 60023, Note_on_c, 9, 42, 0
10, 60060, Note_on_c, 9, 42, 86
10, 60084, Note_on_c, 9, 42, 0
10, 60120, Note_on_c, 9, 42, 94
10, 60142, Note_on_c, 9, 42, 0
10, 60180, Note_on_c, 9, 42, 98
10, 60202, Note_on_c, 9, 42, 0
10, 60240, Note_on_c, 9, 42, 86
10, 60261, Note_on_c, 9, 42, 0
10, 60300, Note_on_c, 9, 42, 101
10, 60325, Note_on_c, 9, 42, 0
10, 60360, Note_on_c, 9, 42, 101
10, 60386, Note_on_c, 9, 42, 0
10, 60420, Note_on_c, 9, 42, 83
10, 60450, Note_on_c, 9, 42, 0
10, 60480, Note_on_c, 9, 42, 105
10, 60503, Note_on_c, 9, 42, 0
10, 60540, Note_on_c, 9, 42, 86
10, 60564, Note_on_c, 9, 42, 0
10, 60600, Note_on_c, 9, 42, 94
10, 60622, Note_on_c, 9, 42, 0
10, 60660, Note_on_c, 9, 42, 98
10, 60682, Note_on_c, 9, 42, 0
10, 60720, Note_on_c, 9, 42, 86
10, 60741, Note_on_c, 9, 42, 0
10, 60780, Note_on_c, 9, 42, 101
10, 60805, Note_on_c, 9, 42, 0
10, 60840, Note_on_c, 9, 42, 101
10, 60866, Note_on_c, 9, 42, 0
10, 60900, Note_on_c, 9, 42, 83
10, 60930, Note_on_c, 9, 42, 0
10, 60960, Note_on_c, 9, 42, 105
10, 60983, Note_on_c, 9, 42, 0
10, 61020, Note_on_c, 9, 42, 86
10, 61044, Note_on_c, 9, 42, 0
10, 61080, Note_on_c, 9, 42, 94
10, 61102, Note_on_c, 9, 42, 0
10, 61140, Note_on_c, 9, 42, 98
10, 61162, Note_on_c, 9, 42, 0
10, 61200, Note_on_c, 9, 42, 86
10, 61221, Note_on_c, 9, 42, 0
10, 61260, Note_on_c, 9, 42, 101
10, 61285, Note_on_c, 9, 42, 0
10, 61320, Note_on_c, 9, 42, 101
10, 61346, Note_on_c, 9, 42, 0
10, 61380, Note_on_c, 9, 42, 83
10, 61410, Note_on_c, 9, 42, 0
10, 61440, Note_on_c, 9, 42, 105
10, 61463, Note_on_c, 9, 42, 0
10, 61500, Note_on_c, 9, 42, 86
10, 61524, Note_on_c, 9, 42, 0
10, 61560, Note_on_c, 9, 42, 94
10, 61582, Note_on_c, 9, 42, 0
10, 61620, Note_on_c, 9, 42, 98
10, 61642, Note_on_c, 9, 42, 0
10, 61680, Note_on_c, 9, 42, 86
10, 61701, Note_on_c, 9, 42, 0
10, 61740, Note_on_c, 9, 42, 101
10, 61765, Note_on_c, 9, 42, 0
10, 61800, Note_on_c, 9, 42, 101
10, 61826, Note_on_c, 9, 42, 0
10, 61860, Note_on_c, 9, 42, 83
10, 61890, Note_on_c, 9, 42, 0
10, 61920, Note_on_c, 9, 42, 105
10, 61943, Note_on_c, 9, 42, 0
10, 61980, Note_on_c, 9, 42, 86
10, 62004, Note_on_c, 9, 42, 0
10, 62040, Note_on_c, 9, 42, 94
10, 62062, Note_on_c, 9, 42, 0
10, 62100, Note_on_c, 9, 42, 98
10, 62122, Note_on_c, 9, 42, 0
10, 62160, Note_on_c, 9, 42, 86
10, 62181, Note_on_c, 9, 42, 0
10, 62220, Note_on_c, 9, 42, 101
10, 62245, Note_on_c, 9, 42, 0
10, 62280, Note_on_c, 9, 42, 101
10, 62306, Note_on_c, 9, 42, 0
10, 62340, Note_on_c, 9, 42, 83
10, 62370, Note_on_c, 9, 42, 0
10, 62400, Note_on_c, 9, 42, 105
10, 62423, Note_on_c, 9, 42, 0
10, 62460, Note_on_c, 9, 42, 86
10, 62484, Note_on_c, 9, 42, 0
10, 62520, Note_on_c, 9, 42, 94
10, 62542, Note_on_c, 9, 42, 0
10, 62580, Note_on_c, 9, 42, 98
10, 62602, Note_on_c, 9, 42, 0
10, 62640, Note_on_c, 9, 42, 86
10, 62661, Note_on_c, 9, 42, 0
10, 62700, Note_on_c, 9, 42, 101
10, 62725, Note_on_c, 9, 42, 0
10, 62760, Note_on_c, 9, 42, 101
10, 62786, Note_on_c, 9, 42, 0
10, 62820, Note_on_c, 9, 42, 83
10, 62850, Note_on_c, 9, 42, 0
10, 62880, Note_on_c, 9, 42, 105
10, 62903, Note_on_c, 9, 42, 0
10, 62940, Note_on_c, 9, 42, 86
10, 62964, Note_on_c, 9, 42, 0
10, 63000, Note_on_c, 9, 42, 94
10, 63022, Note_on_c, 9, 42, 0
10, 63060, Note_on_c, 9, 42, 98
10, 63082, Note_on_c, 9, 42, 0
10, 63120, Note_on_c, 9, 42, 86
10, 63141, Note_on_c, 9, 42, 0
10, 63180, Note_on_c, 9, 42, 101
10, 63205, Note_on_c, 9, 42, 0
10, 63240, Note_on_c, 9, 42, 101
10, 63266, Note_on_c, 9, 42, 0
10, 63300, Note_on_c, 9, 42, 83
10, 63330, Note_on_c, 9, 42, 0
10, 63360, Note_on_c, 9, 42, 105
10, 63383, Note_on_c, 9, 42, 0
10, 63420, Note_on_c, 9, 42, 86
10, 63444, Note_on_c, 9, 42, 0
10, 63480, Note_on_c, 9, 42, 94
10, 63502, Note_on_c, 9, 42, 0
10, 63540, Note_on_c, 9, 42, 98
10, 63562, Note_on_c, 9, 42, 0
10, 63600, Note_on_c, 9, 42, 86
10, 63621, Note_on_c, 9, 42, 0
10, 63660, Note_on_c, 9, 42, 101
10, 63685, Note_on_c, 9, 42, 0
10, 63720, Note_on_c, 9, 42, 101
10, 63746, Note_on_c, 9, 42, 0
10, 63780, Note_on_c, 9, 42, 83
10, 63810, Note_on_c, 9, 42, 0
10, 63840, Note_on_c, 9, 42, 105
10, 63863, Note_on_c, 9, 42, 0
10, 63900, Note_on_c, 9, 42, 86
10, 63924, Note_on_c, 9, 42, 0
10, 63960, Note_on_c, 9, 42, 94
10, 63982, Note_on_c, 9, 42, 0
10, 64020, Note_on_c, 9, 42, 98
10, 64042, Note_on_c, 9, 42, 0
10, 64080, Note_on_c, 9, 42, 86
10, 64101, Note_on_c, 9, 42, 0
10, 64140, Note_on_c, 9, 42, 101
10, 64165, Note_on_c, 9, 42, 0
10, 64200, Note_on_c, 9, 42, 101
10, 64226, Note_on_c, 9, 42, 0
10, 64260, Note_on_c, 9, 42, 83
10, 64290, Note_on_c, 9, 42, 0
10, 64320, Note_on_c, 9, 42, 105
10, 64343, Note_on_c, 9, 42, 0
10, 64380, Note_on_c, 9, 42, 86
10, 64404, Note_on_c, 9, 42, 0
10, 64440, Note_on_c, 9, 42, 94
10, 64462, Note_on_c, 9, 42, 0
10, 64500, Note_on_c, 9, 42, 98
10, 64522, Note_on_c, 9, 42, 0
10, 64560, Note_on_c, 9, 42, 86
10, 64581, Note_on_c, 9, 42, 0
10, 64620, Note_on_c, 9, 42, 101
10, 64645, Note_on_c, 9, 42, 0
10, 64680, Note_on_c, 9, 42, 101
10, 64706, Note_on_c, 9, 42, 0
10, 64740, Note_on_c, 9, 42, 83
10, 64770, Note_on_c, 9, 42, 0
10, 64800, Note_on_c, 9, 42, 105
10, 64823, Note_on_c, 9, 42, 0
10, 64860, Note_on_c, 9, 42, 86
10, 64884, Note_on_c, 9, 42, 0
10, 64920, Note_on_c, 9, 42, 94
10, 64942, Note_on_c, 9, 42, 0
10, 64980, Note_on_c, 9, 42, 98
10, 65002, Note_on_c, 9, 42, 0
10, 65040, Note_on_c, 9, 42, 86
10, 65061, Note_on_c, 9, 42, 0
10, 65100, Note_on_c, 9, 42, 101
10, 65125, Note_on_c, 9, 42, 0
10, 65160, Note_on_c, 9, 42, 101
10, 65186, Note_on_c, 9, 42, 0
10, 65220, Note_on_c, 9, 42, 83
10, 65250, Note_on_c, 9, 42, 0
10, 65280, Note_on_c, 9, 42, 105
10, 65303, Note_on_c, 9, 42, 0
10, 65340, Note_on_c, 9, 42, 86
10, 65364, Note_on_c, 9, 42, 0
10, 65400, Note_on_c, 9, 42, 94
10, 65422, Note_on_c, 9, 42, 0
10, 65460, Note_on_c, 9, 42, 98
10, 65482, Note_on_c, 9, 42, 0
10, 65520, Note_on_c, 9, 42, 86
10, 65541, Note_on_c, 9, 42, 0
10, 65580, Note_on_c, 9, 42, 101
10, 65605, Note_on_c, 9, 42, 0
10, 65640, Note_on_c, 9, 42, 101
10, 65666, Note_on_c, 9, 42, 0
10, 65700, Note_on_c, 9, 42, 83
10, 65730, Note_on_c, 9, 42, 0
10, 65760, Note_on_c, 9, 42, 105
10, 65783, Note_on_c, 9, 42, 0
10, 65820, Note_on_c, 9, 42, 86
10, 65844, Note_on_c, 9, 42, 0
10, 65880, Note_on_c, 9, 42, 94
10, 65902, Note_on_c, 9, 42, 0
10, 65940, Note_on_c, 9, 42, 98
10, 65962, Note_on_c, 9, 42, 0
10, 66000, Note_on_c, 9, 42, 86
10, 66021, Note_on_c, 9, 42, 0
10, 66060, Note_on_c, 9, 42, 101
10, 66085, Note_on_c, 9, 42, 0
10, 66120, Note_on_c, 9, 42, 101
10, 66146, Note_on_c, 9, 42, 0
10, 66180, Note_on_c, 9, 42, 83
10, 66210, Note_on_c, 9, 42, 0
10, 66210, End_track
11, 0, Start_track
11, 0, MIDI_port, 0
11, 0, Title_t, "HIGH TOM"
11, 64228, Note_on_c, 9, 48, 64
11, 64243, Note_on_c, 9, 48, 0
11, 64285, Note_on_c, 9, 48, 64
11, 64303, Note_on_c, 9, 48, 0
11, 65239, Note_on_c, 9, 48, 64
11, 65254, Note_on_c, 9, 48, 0
11, 66126, Note_on_c, 9, 48, 64
11, 66151, Note_on_c, 9, 48, 0
11, 66151, End_track
12, 0, Start_track
12, 0, MIDI_port, 0
12, 0, Title_t, "KICK"
12, 46080, Note_on_c, 9, 35, 64
12, 46107, Note_on_c, 9, 35, 0
12, 46260, Note_on_c, 9, 35, 64
12, 46277, Note_on_c, 9, 35, 0
12, 46320, Note_on_c, 9, 35, 64
12, 46342, Note_on_c, 9, 35, 0
12, 46560, Note_on_c, 9, 35, 64
12, 46587, Note_on_c, 9, 35, 0
12, 46740, Note_on_c, 9, 35, 64
12, 46757, Note_on_c, 9, 35, 0
12, 46800, Note_on_c, 9, 35, 64
12, 46822, Note_on_c, 9, 35, 0
12, 47040, Note_on_c, 9, 35, 64
12, 47067, Note_on_c, 9, 35, 0
12, 47220, Note_on_c, 9, 35, 64
12, 47237, Note_on_c, 9, 35, 0
12, 47280, Note_on_c, 9, 35, 64
12, 47302, Note_on_c, 9, 35, 0
12, 47520, Note_on_c, 9, 35, 64
12, 47547, Note_on_c, 9, 35, 0
12, 47700, Note_on_c, 9, 35, 64
12, 47717, Note_on_c, 9, 35, 0
12, 47760, Note_on_c, 9, 35, 64
12, 47782, Note_on_c, 9, 35, 0
12, 48000, Note_on_c, 9, 35, 64
12, 48027, Note_on_c, 9, 35, 0
12, 48180, Note_on_c, 9, 35, 64
12, 48197, Note_on_c, 9, 35, 0
12, 48240, Note_on_c, 9, 35, 64
12, 48262, Note_on_c, 9, 35, 0
12, 48480, Note_on_c, 9, 35, 64
12, 48507, Note_on_c, 9, 35, 0
12, 48660, Note_on_c, 9, 35, 64
12, 48677, Note_on_c, 9, 35, 0
12, 48720, Note_on_c, 9, 35, 64
12, 48742, Note_on_c, 9, 35, 0
12, 48960, Note_on_c, 9, 35, 64
12, 48987, Note_on_c, 9, 35, 0
12, 49140, Note_on_c, 9, 35, 64
12, 49157, Note_on_c, 9, 35, 0
12, 49200, Note_on_c, 9, 35, 64
12, 49222, Note_on_c, 9, 35, 0
12, 49440, Note_on_c, 9, 35, 64
12, 49467, Note_on_c, 9, 35, 0
12, 49620, Note_on_c, 9, 35, 64
12, 49637, Note_on_c, 9, 35, 0
12, 49680, Note_on_c, 9, 35, 64
12, 49702, Note_on_c, 9, 35, 0
12, 49920, Note_on_c, 9, 35, 64
12, 49947, Note_on_c, 9, 35, 0
12, 50100, Note_on_c, 9, 35, 64
12, 50117, Note_on_c, 9, 35, 0
12, 50160, Note_on_c, 9, 35, 64
12, 50182, Note_on_c, 9, 35, 0
12, 50400, Note_on_c, 9, 35, 64
12, 50427, Note_on_c, 9, 35, 0
12, 50580, Note_on_c, 9, 35, 64
12, 50597, Note_on_c, 9, 35, 0
12, 50640, Note_on_c, 9, 35, 64
12, 50662, Note_on_c, 9, 35, 0
12, 50880, Note_on_c, 9, 35, 64
12, 50907, Note_on_c, 9, 35, 0
12, 51060, Note_on_c, 9, 35, 64
12, 51077, Note_on_c, 9, 35, 0
12, 51120, Note_on_c, 9, 35, 64
12, 51142, Note_on_c, 9, 35, 0
12, 51360, Note_on_c, 9, 35, 64
12, 51387, Note_on_c, 9, 35, 0
12, 51540, Note_on_c, 9, 35, 64
12, 51557, Note_on_c, 9, 35, 0
12, 51600, Note_on_c, 9, 35, 64
12, 51622, Note_on_c, 9, 35, 0
12, 51840, Note_on_c, 9, 35, 64
12, 51867, Note_on_c, 9, 35, 0
12, 52020, Note_on_c, 9, 35, 64
12, 52037, Note_on_c, 9, 35, 0
12, 52080, Note_on_c, 9, 35, 64
12, 52102, Note_on_c, 9, 35, 0
12, 52320, Note_on_c, 9, 35, 64
12, 52347, Note_on_c, 9, 35, 0
12, 52500, Note_on_c, 9, 35, 64
12, 52517, Note_on_c, 9, 35, 0
12, 52560, Note_on_c, 9, 35, 64
12, 52582, Note_on_c, 9, 35, 0
12, 52800, Note_on_c, 9, 35, 64
12, 52827, Note_on_c, 9, 35, 0
12, 52980, Note_on_c, 9, 35, 64
12, 52997, Note_on_c, 9, 35, 0
12, 53040, Note_on_c, 9, 35, 64
12, 53062, Note_on_c, 9, 35, 0
12, 53280, Note_on_c, 9, 35, 64
12, 53307, Note_on_c, 9, 35, 0
12, 53460, Note_on_c, 9, 35, 64
12, 53477, Note_on_c, 9, 35, 0
12, 53520, Note_on_c, 9, 35, 64
12, 53542, Note_on_c, 9, 35, 0
12, 53760, Note_on_c, 9, 35, 64
12, 53787, Note_on_c, 9, 35, 0
12, 53940, Note_on_c, 9, 35, 64
12, 53957, Note_on_c, 9, 35, 0
12, 54000, Note_on_c, 9, 35, 64
12, 54022, Note_on_c, 9, 35, 0
12, 54240, Note_on_c, 9, 35, 64
12, 54267, Note_on_c, 9, 35, 0
12, 54420, Note_on_c, 9, 35, 64
12, 54437, Note_on_c, 9, 35, 0
12, 54480, Note_on_c, 9, 35, 64
12, 54502, Note_on_c, 9, 35, 0
12, 54720, Note_on_c, 9, 35, 64
12, 54747, Note_on_c, 9, 35, 0
12, 54900, Note_on_c, 9, 35, 64
12, 54917, Note_on_c, 9, 35, 0
12, 54960, Note_on_c, 9, 35, 64
12, 54982, Note_on_c, 9, 35, 0
12, 55200, Note_on_c, 9, 35, 64
12, 55227, Note_on_c, 9, 35, 0
12, 55380, Note_on_c, 9, 35, 64
12, 55397, Note_on_c, 9, 35, 0
12, 55440, Note_on_c, 9, 35, 64
12, 55462, Note_on_c, 9, 35, 0
12, 55680, Note_on_c, 9, 35, 64
12, 55707, Note_on_c, 9, 35, 0
12, 55860, Note_on_c, 9, 35, 64
12, 55877, Note_on_c, 9, 35, 0
12, 55920, Note_on_c, 9, 35, 64
12, 55942, Note_on_c, 9, 35, 0
12, 56160, Note_on_c, 9, 35, 64
12, 56187, Note_on_c, 9, 35, 0
12, 56340, Note_on_c, 9, 35, 64
12, 56357, Note_on_c, 9, 35, 0
12, 56400, Note_on_c, 9, 35, 64
12, 56422, Note_on_c, 9, 35, 0
12, 56640, Note_on_c, 9, 35, 64
12, 56667, Note_on_c, 9, 35, 0
12, 56820, Note_on_c, 9, 35, 64
12, 56837, Note_on_c, 9, 35, 0
12, 56880, Note_on_c, 9, 35, 64
12, 56902, Note_on_c, 9, 35, 0
12, 57120, Note_on_c, 9, 35, 64
12, 57147, Note_on_c, 9, 35, 0
12, 57300, Note_on_c, 9, 35, 64
12, 57317, Note_on_c, 9, 35, 0
12, 57360, Note_on_c, 9, 35, 64
12, 57382, Note_on_c, 9, 35, 0
12, 57600, Note_on_c, 9, 35, 64
12, 57627, Note_on_c, 9, 35, 0
12, 57780, Note_on_c, 9, 35, 64
12, 57797, Note_on_c, 9, 35, 0
12, 57840, Note_on_c, 9, 35, 64
12, 57862, Note_on_c, 9, 35, 0
12, 58080, Note_on_c, 9, 35, 64
12, 58107, Note_on_c, 9, 35, 0
12, 58260, Note_on_c, 9, 35, 64
12, 58277, Note_on_c, 9, 35, 0
12, 58320, Note_on_c, 9, 35, 64
12, 58342, Note_on_c, 9, 35, 0
12, 58560, Note_on_c, 9, 35, 64
12, 58587, Note_on_c, 9, 35, 0
12, 58740, Note_on_c, 9, 35, 64
12, 58757, Note_on_c, 9, 35, 0
12, 58800, Note_on_c, 9, 35, 64
12, 58822, Note_on_c, 9, 35, 0
12, 59040, Note_on_c, 9, 35, 64
12, 59067, Note_on_c, 9, 35, 0
12, 59220, Note_on_c, 9, 35, 64
12, 59237, Note_on_c, 9, 35, 0
12, 59280, Note_on_c, 9, 35, 64
12, 59302, Note_on_c, 9, 35, 0
12, 59520, Note_on_c, 9, 35, 64
12, 59547, Note_on_c, 9, 35, 0
12, 59700, Note_on_c, 9, 35, 64
12, 59717, Note_on_c, 9, 35, 0
12, 59760, Note_on_c, 9, 35, 64
12, 59782, Note_on_c, 9, 35, 0
12, 60000, Note_on_c, 9, 35, 64
12, 60027, Note_on_c, 9, 35, 0
12, 60180, Note_on_c, 9, 35, 64
12, 60197, Note_on_c, 9, 35, 0
12, 60240, Note_on_c, 9, 35, 64
12, 60262, Note_on_c, 9, 35, 0
12, 60480, Note_on_c, 9, 35, 64
12, 60507, Note_on_c, 9, 35, 0
12, 60660, Note_on_c, 9, 35, 64
12, 60677, Note_on_c, 9, 35, 0
12, 60720, Note_on_c, 9, 35, 64
12, 60742, Note_on_c, 9, 35, 0
12, 60960, Note_on_c, 9, 35, 64
12, 60987, Note_on_c, 9, 35, 0
12, 61140, Note_on_c, 9, 35, 64
12, 61157, Note_on_c, 9, 35, 0
12, 61200, Note_on_c, 9, 35, 64
12, 61222, Note_on_c, 9, 35, 0
12, 61440, Note_on_c, 9, 35, 64
12, 61467, Note_on_c, 9, 35, 0
12, 61620, Note_on_c, 9, 35, 64
12, 61637, Note_on_c, 9, 35, 0
12, 61680, Note_on_c, 9, 35, 64
12, 61702, Note_on_c, 9, 35, 0
12, 61920, Note_on_c, 9, 35, 64
12, 61947, Note_on_c, 9, 35, 0
12, 62100, Note_on_c, 9, 35, 64
12, 62117, Note_on_c, 9, 35, 0
12, 62160, Note_on_c, 9, 35, 64
12, 62182, Note_on_c, 9, 35, 0
12, 62400, Note_on_c, 9, 35, 64
12, 62427, Note_on_c, 9, 35, 0
12, 62580, Note_on_c, 9, 35, 64
12, 62597, Note_on_c, 9, 35, 0
12, 62640, Note_on_c, 9, 35, 64
12, 62662, Note_on_c, 9, 35, 0
12, 62880, Note_on_c, 9, 35, 64
12, 62907, Note_on_c, 9, 35, 0
12, 63060, Note_on_c, 9, 35, 64
12, 63077, Note_on_c, 9, 35, 0
12, 63120, Note_on_c, 9, 35, 64
12, 63142, Note_on_c, 9, 35, 0
12, 63142, End_track
13, 0, Start_track
13, 0, MIDI_port, 0
13, 0, Title_t, "LOW TOM"
13, 37318, Note_on_c, 9, 43, 64
13, 37331, Note_on_c, 9, 43, 0
13, 37345, Note_on_c, 9, 43, 64
13, 37360, Note_on_c, 9, 43, 0
13, 37379, Note_on_c, 9, 43, 64
13, 37396, Note_on_c, 9, 43, 0
13, 37435, Note_on_c, 9, 43, 64
13, 37448, Note_on_c, 9, 43, 0
13, 38321, Note_on_c, 9, 43, 64
13, 38348, Note_on_c, 9, 43, 0
13, 39240, Note_on_c, 9, 43, 64
13, 39255, Note_on_c, 9, 43, 0
13, 39318, Note_on_c, 9, 43, 64
13, 39336, Note_on_c, 9, 43, 0
13, 40255, Note_on_c, 9, 43, 64
13, 40273, Note_on_c, 9, 43, 0
13, 64312, Note_on_c, 9, 43, 64
13, 64336, Note_on_c, 9, 43, 0
13, 65263, Note_on_c, 9, 43, 64
13, 65286, Note_on_c, 9, 43, 0
13, 66173, Note_on_c, 9, 43, 64
13, 66240, Note_on_c, 9, 43, 0
13, 66240, End_track
14, 0, Start_track
14, 0, MIDI_port, 0
14, 0, Title_t, "MID TOM"
14, 37320, Note_on_c, 9, 45, 64
14, 37332, Note_on_c, 9, 45, 0
14, 37347, Note_on_c, 9, 45, 64
14, 37360, Note_on_c, 9, 45, 0
14, 37378, Note_on_c, 9, 45, 64
14, 37394, Note_on_c, 9, 45, 0
14, 38344, Note_on_c, 9, 45, 64
14, 38364, Note_on_c, 9, 45, 0
14, 39287, Note_on_c, 9, 45, 64
14, 39304, Note_on_c, 9, 45, 0
14, 40295, Note_on_c, 9, 45, 64
14, 40307, Note_on_c, 9, 45, 0
14, 64201, Note_on_c, 9, 45, 64
14, 64221, Note_on_c, 9, 45, 0
14, 64255, Note_on_c, 9, 45, 64
14, 64277, Note_on_c, 9, 45, 0
14, 65264, Note_on_c, 9, 45, 64
14, 65268, Note_on_c, 9, 45, 0
14, 65279, Note_on_c, 9, 45, 64
14, 65299, Note_on_c, 9, 45, 0
14, 66243, Note_on_c, 9, 45, 64
14, 66263, Note_on_c, 9, 45, 0
14, 66263, End_track
15, 0, Start_track
15, 0, MIDI_port, 0
15, 0, Title_t, "OPEN HIHAT"
15, 53521, Note_on_c, 9, 46, 64
15, 53529, Note_on_c, 9, 46, 0
15, 53576, Note_on_c, 9, 46, 64
15, 53587, Note_on_c, 9, 46, 0
15, 53637, Note_on_c, 9, 46, 64
15, 53652, Note_on_c, 9, 46, 0
15, 53702, Note_on_c, 9, 46, 64
15, 53733, Note_on_c, 9, 46, 0
15, 53733, End_track
16, 0, Start_track
16, 0, MIDI_port, 0
16, 0, Title_t, "OTHER TOMS"
16, 37436, Note_on_c, 9, 47, 64
16, 37449, Note_on_c, 9, 47, 0
16, 38277, Note_on_c, 9, 50, 64
16, 38288, Note_on_c, 9, 48, 64
16, 38294, Note_on_c, 9, 50, 0
16, 38298, Note_on_c, 9, 47, 64
16, 38305, Note_on_c, 9, 48, 0
16, 38315, Note_on_c, 9, 47, 0
16, 38404, Note_on_c, 9, 47, 64
16, 38416, Note_on_c, 9, 47, 0
16, 39256, Note_on_c, 9, 47, 64
16, 39272, Note_on_c, 9, 47, 0
16, 39355, Note_on_c, 9, 48, 64
16, 39367, Note_on_c, 9, 48, 0
16, 40202, Note_on_c, 9, 48, 64
16, 40217, Note_on_c, 9, 48, 0
16, 40231, Note_on_c, 9, 47, 64
16, 40244, Note_on_c, 9, 47, 0
16, 64285, Note_on_c, 9, 50, 64
16, 64306, Note_on_c, 9, 50, 0
16, 65226, Note_on_c, 9, 50, 64
16, 65243, Note_on_c, 9, 47, 64
16, 65248, Note_on_c, 9, 50, 0
16, 65256, Note_on_c, 9, 41, 64
16, 65259, Note_on_c, 9, 47, 0
16, 65265, Note_on_c, 9, 47, 64
16, 65267, Note_on_c, 9, 47, 0
16, 65278, Note_on_c, 9, 41, 0
16, 66117, Note_on_c, 9, 50, 64
16, 66139, Note_on_c, 9, 47, 64
16, 66140, Note_on_c, 9, 50, 0
16, 66157, Note_on_c, 9, 47, 0
16, 66159, Note_on_c, 9, 41, 64
16, 66189, Note_on_c, 9, 41, 0
16, 66241, Note_on_c, 9, 47, 64
16, 66260, Note_on_c, 9, 47, 0
16, 66260, End_track
17, 0, Start_track
17, 0, MIDI_port, 0
17, 0, Title_t, "RIM"
17, 53400, Note_on_c, 9, 37, 64
17, 53421, Note_on_c, 9, 37, 0
17, 53640, Note_on_c, 9, 37, 64
17, 53662, Note_on_c, 9, 37, 0
17, 53880, Note_on_c, 9, 37, 64
17, 53901, Note_on_c, 9, 37, 0
17, 54120, Note_on_c, 9, 37, 64
17, 54142, Note_on_c, 9, 37, 0
17, 54360, Note_on_c, 9, 37, 64
17, 54381, Note_on_c, 9, 37, 0
17, 54600, Note_on_c, 9, 37, 64
17, 54622, Note_on_c, 9, 37, 0
17, 54840, Note_on_c, 9, 37, 64
17, 54861, Note_on_c, 9, 37, 0
17, 55080, Note_on_c, 9, 37, 64
17, 55102, Note_on_c, 9, 37, 0
17, 55320, Note_on_c, 9, 37, 64
17, 55341, Note_on_c, 9, 37, 0
17, 55560, Note_on_c, 9, 37, 64
17, 55582, Note_on_c, 9, 37, 0
17, 55800, Note_on_c, 9, 37, 64
17, 55821, Note_on_c, 9, 37, 0
17, 56040, Note_on_c, 9, 37, 64
17, 56062, Note_on_c, 9, 37, 0
17, 56280, Note_on_c, 9, 37, 64
17, 56301, Note_on_c, 9, 37, 0
17, 56520, Note_on_c, 9, 37, 64
17, 56542, Note_on_c, 9, 37, 0
17, 56760, Note_on_c, 9, 37, 64
17, 56781, Note_on_c, 9, 37, 0
17, 57000, Note_on_c, 9, 37, 64
17, 57022, Note_on_c, 9, 37, 0
17, 57240, Note_on_c, 9, 37, 64
17, 57261, Note_on_c, 9, 37, 0
17, 57480, Note_on_c, 9, 37, 64
17, 57502, Note_on_c, 9, 37, 0
17, 57720, Note_on_c, 9, 37, 64
17, 57741, Note_on_c, 9, 37, 0
17, 57960, Note_on_c, 9, 37, 64
17, 57982, Note_on_c, 9, 37, 0
17, 58200, Note_on_c, 9, 37, 64
17, 58221, Note_on_c, 9, 37, 0
17, 58440, Note_on_c, 9, 37, 64
17, 58462, Note_on_c, 9, 37, 0
17, 58680, Note_on_c, 9, 37, 64
17, 58701, Note_on_c, 9, 37, 0
17, 58920, Note_on_c, 9, 37, 64
17, 58942, Note_on_c, 9, 37, 0
17, 59160, Note_on_c, 9, 37, 64
17, 59181, Note_on_c, 9, 37, 0
17, 59400, Note_on_c, 9, 37, 64
17, 59422, Note_on_c, 9, 37, 0
17, 59640, Note_on_c, 9, 37, 64
17, 59661, Note_on_c, 9, 37, 0
17, 59880, Note_on_c, 9, 37, 64
17, 59902, Note_on_c, 9, 37, 0
17, 60120, Note_on_c, 9, 37, 64
17, 60141, Note_on_c, 9, 37, 0
17, 60360, Note_on_c, 9, 37, 64
17, 60382, Note_on_c, 9, 37, 0
17, 60600, Note_on_c, 9, 37, 64
17, 60621, Note_on_c, 9, 37, 0
17, 60840, Note_on_c, 9, 37, 64
17, 60862, Note_on_c, 9, 37, 0
17, 61080, Note_on_c, 9, 37, 64
17, 61101, Note_on_c, 9, 37, 0
17, 61320, Note_on_c, 9, 37, 64
17, 61342, Note_on_c, 9, 37, 0
17, 61560, Note_on_c, 9, 37, 64
17, 61581, Note_on_c, 9, 37, 0
17, 61800, Note_on_c, 9, 37, 64
17, 61822, Note_on_c, 9, 37, 0
17, 62040, Note_on_c, 9, 37, 64
17, 62061, Note_on_c, 9, 37, 0
17, 62280, Note_on_c, 9, 37, 64
17, 62302, Note_on_c, 9, 37, 0
17, 62520, Note_on_c, 9, 37, 64
17, 62541, Note_on_c, 9, 37, 0
17, 62760, Note_on_c, 9, 37, 64
17, 62782, Note_on_c, 9, 37, 0
17, 63000, Note_on_c, 9, 37, 64
17, 63021, Note_on_c, 9, 37, 0
17, 63240, Note_on_c, 9, 37, 64
17, 63262, Note_on_c, 9, 37, 0
17, 63262, End_track
18, 0, Start_track
18, 0, MIDI_port, 0
18, 0, Title_t, "SNARE"
18, 46200, Note_on_c, 9, 38, 64
18, 46221, Note_on_c, 9, 38, 0
18, 46440, Note_on_c, 9, 38, 64
18, 46462, Note_on_c, 9, 38, 0
18, 46680, Note_on_c, 9, 38, 64
18, 46701, Note_on_c, 9, 38, 0
18, 46920, Note_on_c, 9, 38, 64
18, 46942, Note_on_c, 9, 38, 0
18, 47160, Note_on_c, 9, 38, 64
18, 47181, Note_on_c, 9, 38, 0
18, 47400, Note_on_c, 9, 38, 64
18, 47422, Note_on_c, 9, 38, 0
18, 47640, Note_on_c, 9, 38, 64
18, 47661, Note_on_c, 9, 38, 0
18, 47880, Note_on_c, 9, 38, 64
18, 47902, Note_on_c, 9, 38, 0
18, 48120, Note_on_c, 9, 38, 64
18, 48141, Note_on_c, 9, 38, 0
18, 48360, Note_on_c, 9, 38, 64
18, 48382, Note_on_c, 9, 38, 0
18, 48600, Note_on_c, 9, 38, 64
18, 48621, Note_on_c, 9, 38, 0
18, 48840, Note_on_c, 9, 38, 64
18, 48862, Note_on_c, 9, 38, 0
18, 49080, Note_on_c, 9, 38, 64
18, 49101, Note_on_c, 9, 38, 0
18, 49320, Note_on_c, 9, 38, 64
18, 49342, Note_on_c, 9, 38, 0
18, 49560, Note_on_c, 9, 38, 64
18, 49581, Note_on_c, 9, 38, 0
18, 49800, Note_on_c, 9, 38, 64
18, 49822, Note_on_c, 9, 38, 0
18, 50040, Note_on_c, 9, 38, 64
18, 50061, Note_on_c, 9, 38, 0
18, 50280, Note_on_c, 9, 38, 64
18, 50302, Note_on_c, 9, 38, 0
18, 50520, Note_on_c, 9, 38, 64
18, 50541, Note_on_c, 9, 38, 0
18, 50760, Note_on_c, 9, 38, 64
18, 50782, Note_on_c, 9, 38, 0
18, 51000, Note_on_c, 9, 38, 64
18, 51021, Note_on_c, 9, 38, 0
18, 51240, Note_on_c, 9, 38, 64
18, 51262, Note_on_c, 9, 38, 0
18, 51480, Note_on_c, 9, 38, 64
18, 51501, Note_on_c, 9, 38, 0
18, 51720, Note_on_c, 9, 38, 64
18, 51742, Note_on_c, 9, 38, 0
18, 51960, Note_on_c, 9, 38, 64
18, 51981, Note_on_c, 9, 38, 0
18, 52200, Note_on_c, 9, 38, 64
18, 52222, Note_on_c, 9, 38, 0
18, 52440, Note_on_c, 9, 38, 64
18, 52461, Note_on_c, 9, 38, 0
18, 52680, Note_on_c, 9, 38, 64
18, 52702, Note_on_c, 9, 38, 0
18, 52920, Note_on_c, 9, 38, 64
18, 52941, Note_on_c, 9, 38, 0
18, 53160, Note_on_c, 9, 38, 64
18, 53182, Note_on_c, 9, 38, 0
18, 53182, End_track
19, 0, Start_track
19, 0, MIDI_port, 0
19, 0, Title_t, "Ac.Guitar"
19, 0, Program_c, 10, 24
19, 11520, Note_on_c, 10, 56, 74
19, 11520, Note_on_c, 10, 61, 88
19, 11520, Note_on_c, 10, 68, 92
19, 11520, Note_on_c, 10, 64, 83
19, 11654, Control_c, 10, 64, 127
19, 11805, Note_on_c, 10, 64, 0
19, 11809, Note_on_c, 10, 68, 0
19, 11811, Note_on_c, 10, 61, 0
19, 11812, Note_on_c, 10, 56, 0
19, 11877, Note_on_c, 10, 56, 88
19, 11912, Control_c, 10, 64, 0
19, 11938, Note_on_c, 10, 61, 86
19, 12054, Note_on_c, 10, 64, 92
19, 12065, Note_on_c, 10, 56, 0
19, 12073, Note_on_c, 10, 61, 0
19, 12181, Note_on_c, 10, 61, 84
19, 12202, Note_on_c, 10, 64, 0
19, 12296, Note_on_c, 10, 56, 81
19, 12324, Note_on_c, 10, 61, 0
19, 12359, Note_on_c, 10, 64, 88
19, 12364, Note_on_c, 10, 56, 0
19, 12456, Note_on_c, 10, 64, 0
19, 12474, Note_on_c, 10, 59, 83
19, 12488, Note_on_c, 10, 66, 103
19, 12581, Control_c, 10, 64, 127
19, 12624, Note_on_c, 10, 59, 0
19, 12628, Note_on_c, 10, 66, 0
19, 12832, Note_on_c, 10, 54, 96
19, 12893, Note_on_c, 10, 59, 94
19, 12903, Note_on_c, 10, 54, 0
19, 13015, Note_on_c, 10, 63, 103
19, 13020, Note_on_c, 10, 59, 0
19, 13137, Note_on_c, 10, 63, 0
19, 13137, Note_on_c, 10, 59, 89
19, 13254, Note_on_c, 10, 54, 92
19, 13260, Note_on_c, 10, 59, 0
19, 13311, Note_on_c, 10, 63, 92
19, 13316, Note_on_c, 10, 54, 0
19, 13336, Note_on_c, 10, 63, 0
19, 13419, Note_on_c, 10, 56, 76
19, 13432, Note_on_c, 10, 61, 81
19, 13436, Note_on_c, 10, 63, 54
19, 13437, Note_on_c, 10, 64, 90
19, 13446, Note_on_c, 10, 68, 82
19, 13450, Note_on_c, 10, 63, 0
19, 13456, Control_c, 10, 64, 0
19, 13554, Control_c, 10, 64, 127
19, 13699, Note_on_c, 10, 64, 0
19, 13707, Note_on_c, 10, 68, 0
19, 13717, Note_on_c, 10, 61, 0
19, 13717, Note_on_c, 10, 56, 0
19, 13800, Note_on_c, 10, 56, 86
19, 13860, Note_on_c, 10, 61, 89
19, 13861, Control_c, 10, 64, 0
19, 13882, Note_on_c, 10, 56, 0
19, 13904, Note_on_c, 10, 56, 46
19, 13980, Note_on_c, 10, 64, 89
19, 13989, Note_on_c, 10, 56, 0
19, 13991, Note_on_c, 10, 61, 0
19, 14102, Note_on_c, 10, 61, 92
19, 14109, Note_on_c, 10, 64, 0
19, 14219, Note_on_c, 10, 56, 78
19, 14277, Note_on_c, 10, 68, 92
19, 14289, Control_c, 10, 64, 127
19, 14311, Note_on_c, 10, 61, 0
19, 14312, Note_on_c, 10, 68, 0
19, 14319, Note_on_c, 10, 56, 0
19, 14383, Note_on_c, 10, 54, 82
19, 14389, Note_on_c, 10, 59, 86
19, 14394, Note_on_c, 10, 63, 86
19, 14398, Note_on_c, 10, 66, 85
19, 14399, Control_c, 10, 64, 0
19, 14541, Control_c, 10, 64, 127
19, 15029, Note_on_c, 10, 63, 0
19, 15041, Note_on_c, 10, 66, 0
19, 15043, Note_on_c, 10, 59, 0
19, 15059, Note_on_c, 10, 54, 0
19, 15326, Note_on_c, 10, 54, 76
19, 15345, Note_on_c, 10, 59, 89
19, 15347, Note_on_c, 10, 63, 78
19, 15352, Note_on_c, 10, 66, 100
19, 15360, Control_c, 10, 64, 0
19, 15449, Control_c, 10, 64, 127
19, 15498, Note_on_c, 10, 66, 0
19, 15513, Note_on_c, 10, 59, 0
19, 15526, Note_on_c, 10, 63, 0
19, 15533, Note_on_c, 10, 54, 0
19, 15779, Note_on_c, 10, 59, 88
19, 15796, Control_c, 10, 64, 0
19, 15894, Note_on_c, 10, 54, 82
19, 15909, Note_on_c, 10, 59, 0
19, 16019, Note_on_c, 10, 59, 98
19, 16030, Note_on_c, 10, 54, 0
19, 16135, Note_on_c, 10, 54, 65
19, 16154, Note_on_c, 10, 59, 0
19, 16199, Note_on_c, 10, 63, 96
19, 16207, Control_c, 10, 64, 127
19, 16211, Note_on_c, 10, 54, 0
19, 16231, Note_on_c, 10, 63, 0
19, 16305, Note_on_c, 10, 56, 82
19, 16313, Note_on_c, 10, 61, 85
19, 16320, Control_c, 10, 64, 0
19, 16320, Note_on_c, 10, 64, 84
19, 16322, Note_on_c, 10, 68, 86
19, 16408, Control_c, 10, 64, 127
19, 16472, Note_on_c, 10, 61, 0
19, 16473, Note_on_c, 10, 64, 0
19, 16476, Note_on_c, 10, 68, 0
19, 16480, Note_on_c, 10, 56, 0
19, 21120, Note_on_c, 10, 56, 74
19, 21120, Note_on_c, 10, 61, 88
19, 21120, Note_on_c, 10, 68, 92
19, 21120, Note_on_c, 10, 64, 83
19, 21254, Control_c, 10, 64, 127
19, 21405, Note_on_c, 10, 64, 0
19, 21409, Note_on_c, 10, 68, 0
19, 21411, Note_on_c, 10, 61, 0
19, 21412, Note_on_c, 10, 56, 0
19, 21477, Note_on_c, 10, 56, 88
19, 21512, Control_c, 10, 64, 0
19, 21538, Note_on_c, 10, 61, 86
19, 21654, Note_on_c, 10, 64, 92
19, 21665, Note_on_c, 10, 56, 0
19, 21673, Note_on_c, 10, 61, 0
19, 21781, Note_on_c, 10, 61, 84
19, 21802, Note_on_c, 10, 64, 0
19, 21896, Note_on_c, 10, 56, 81
19, 21924, Note_on_c, 10, 61, 0
19, 21959, Note_on_c, 10, 64, 88
19, 21964, Note_on_c, 10, 56, 0
19, 22056, Note_on_c, 10, 64, 0
19, 22074, Note_on_c, 10, 59, 83
19, 22088, Note_on_c, 10, 66, 103
19, 22181, Control_c, 10, 64, 127
19, 22224, Note_on_c, 10, 59, 0
19, 22228, Note_on_c, 10, 66, 0
19, 22432, Note_on_c, 10, 54, 96
19, 22493, Note_on_c, 10, 59, 94
19, 22503, Note_on_c, 10, 54, 0
19, 22615, Note_on_c, 10, 63, 103
19, 22620, Note_on_c, 10, 59, 0
19, 22737, Note_on_c, 10, 63, 0
19, 22737, Note_on_c, 10, 59, 89
19, 22854, Note_on_c, 10, 54, 92
19, 22860, Note_on_c, 10, 59, 0
19, 22911, Note_on_c, 10, 63, 92
19, 22916, Note_on_c, 10, 54, 0
19, 22936, Note_on_c, 10, 63, 0
19, 23019, Note_on_c, 10, 56, 76
19, 23032, Note_on_c, 10, 61, 81
19, 23036, Note_on_c, 10, 63, 54
19, 23037, Note_on_c, 10, 64, 90
19, 23046, Note_on_c, 10, 68, 82
19, 23050, Note_on_c, 10, 63, 0
19, 23056, Control_c, 10, 64, 0
19, 23154, Control_c, 10, 64, 127
19, 23299, Note_on_c, 10, 64, 0
19, 23307, Note_on_c, 10, 68, 0
19, 23317, Note_on_c, 10, 61, 0
19, 23317, Note_on_c, 10, 56, 0
19, 23400, Note_on_c, 10, 56, 86
19, 23460, Note_on_c, 10, 61, 89
19, 23461, Control_c, 10, 64, 0
19, 23482, Note_on_c, 10, 56, 0
19, 23504, Note_on_c, 10, 56, 46
19, 23580, Note_on_c, 10, 64, 89
19, 23589, Note_on_c, 10, 56, 0
19, 23591, Note_on_c, 10, 61, 0
19, 23702, Note_on_c, 10, 61, 92
19, 23709, Note_on_c, 10, 64, 0
19, 23819, Note_on_c, 10, 56, 78
19, 23877, Note_on_c, 10, 68, 92
19, 23889, Control_c, 10, 64, 127
19, 23911, Note_on_c, 10, 61, 0
19, 23912, Note_on_c, 10, 68, 0
19, 23919, Note_on_c, 10, 56, 0
19, 23983, Note_on_c, 10, 54, 82
19, 23989, Note_on_c, 10, 59, 86
19, 23994, Note_on_c, 10, 63, 86
19, 23998, Note_on_c, 10, 66, 85
19, 23999, Control_c, 10, 64, 0
19, 24141, Control_c, 10, 64, 127
19, 24629, Note_on_c, 10, 63, 0
19, 24641, Note_on_c, 10, 66, 0
19, 24643, Note_on_c, 10, 59, 0
19, 24659, Note_on_c, 10, 54, 0
19, 24960, Note_on_c, 10, 56, 74
19, 24960, Note_on_c, 10, 61, 88
19, 24960, Note_on_c, 10, 68, 92
19, 24960, Note_on_c, 10, 64, 83
19, 25094, Control_c, 10, 64, 127
19, 25245, Note_on_c, 10, 64, 0
19, 25249, Note_on_c, 10, 68, 0
19, 25251, Note_on_c, 10, 61, 0
19, 25252, Note_on_c, 10, 56, 0
19, 25317, Note_on_c, 10, 56, 88
19, 25352, Control_c, 10, 64, 0
19, 25378, Note_on_c, 10, 61, 86
19, 25494, Note_on_c, 10, 64, 92
19, 25505, Note_on_c, 10, 56, 0
19, 25513, Note_on_c, 10, 61, 0
19, 25621, Note_on_c, 10, 61, 84
19, 25642, Note_on_c, 10, 64, 0
19, 25736, Note_on_c, 10, 56, 81
19, 25764, Note_on_c, 10, 61, 0
19, 25799, Note_on_c, 10, 64, 88
19, 25804, Note_on_c, 10, 56, 0
19, 25896, Note_on_c, 10, 64, 0
19, 25914, Note_on_c, 10, 59, 83
19, 25928, Note_on_c, 10, 66, 103
19, 26021, Control_c, 10, 64, 127
19, 26064, Note_on_c, 10, 59, 0
19, 26068, Note_on_c, 10, 66, 0
19, 26272, Note_on_c, 10, 54, 96
19, 26333, Note_on_c, 10, 59, 94
19, 26343, Note_on_c, 10, 54, 0
19, 26455, Note_on_c, 10, 63, 103
19, 26460, Note_on_c, 10, 59, 0
19, 26577, Note_on_c, 10, 63, 0
19, 26577, Note_on_c, 10, 59, 89
19, 26694, Note_on_c, 10, 54, 92
19, 26700, Note_on_c, 10, 59, 0
19, 26751, Note_on_c, 10, 63, 92
19, 26756, Note_on_c, 10, 54, 0
19, 26776, Note_on_c, 10, 63, 0
19, 26859, Note_on_c, 10, 56, 76
19, 26872, Note_on_c, 10, 61, 81
19, 26876, Note_on_c, 10, 63, 54
19, 26877, Note_on_c, 10, 64, 90
19, 26886, Note_on_c, 10, 68, 82
19, 26890, Note_on_c, 10, 63, 0
19, 26896, Control_c, 10, 64, 0
19, 26994, Control_c, 10, 64, 127
19, 27139, Note_on_c, 10, 64, 0
19, 27147, Note_on_c, 10, 68, 0
19, 27157, Note_on_c, 10, 61, 0
19, 27157, Note_on_c, 10, 56, 0
19, 27240, Note_on_c, 10, 56, 86
19, 27300, Note_on_c, 10, 61, 89
19, 27301, Control_c, 10, 64, 0
19, 27322, Note_on_c, 10, 56, 0
19, 27344, Note_on_c, 10, 56, 46
19, 27420, Note_on_c, 10, 64, 89
19, 27429, Note_on_c, 10, 56, 0
19, 27431, Note_on_c, 10, 61, 0
19, 27542, Note_on_c, 10, 61, 92
19, 27549, Note_on_c, 10, 64, 0
19, 27659, Note_on_c, 10, 56, 78
19, 27717, Note_on_c, 10, 68, 92
19, 27729, Control_c, 10, 64, 127
19, 27751, Note_on_c, 10, 61, 0
19, 27752, Note_on_c, 10, 68, 0
19, 27759, Note_on_c, 10, 56, 0
19, 27823, Note_on_c, 10, 54, 82
19, 27829, Note_on_c, 10, 59, 86
19, 27834, Note_on_c, 10, 63, 86
19, 27838, Note_on_c, 10, 66, 85
19, 27839, Control_c, 10, 64, 0
19, 27981, Control_c, 10, 64, 127
19, 28469, Note_on_c, 10, 63, 0
19, 28481, Note_on_c, 10, 66, 0
19, 28483, Note_on_c, 10, 59, 0
19, 28499, Note_on_c, 10, 54, 0
19, 28800, Control_c, 10, 64, 0
19, 28889, Control_c, 10, 64, 127
19, 29219, Note_on_c, 10, 59, 88
19, 29236, Control_c, 10, 64, 0
19, 29334, Note_on_c, 10, 54, 82
19, 29349, Note_on_c, 10, 59, 0
19, 29459, Note_on_c, 10, 59, 98
19, 29470, Note_on_c, 10, 54, 0
19, 29575, Note_on_c, 10, 54, 65
19, 29594, Note_on_c, 10, 59, 0
19, 29639, Note_on_c, 10, 63, 96
19, 29647, Control_c, 10, 64, 127
19, 29651, Note_on_c, 10, 54, 0
19, 29671, Note_on_c, 10, 63, 0
19, 29745, Note_on_c, 10, 56, 82
19, 29753, Note_on_c, 10, 61, 85
19, 29760, Control_c, 10, 64, 0
19, 29760, Note_on_c, 10, 64, 84
19, 29762, Note_on_c, 10, 68, 86
19, 29848, Control_c, 10, 64, 127
19, 29912, Note_on_c, 10, 61, 0
19, 29913, Note_on_c, 10, 64, 0
19, 29916, Note_on_c, 10, 68, 0
19, 29920, Note_on_c, 10, 56, 0
19, 30720, Note_on_c, 10, 56, 74
19, 30720, Note_on_c, 10, 61, 88
19, 30720, Note_on_c, 10, 68, 92
19, 30720, Note_on_c, 10, 64, 83
19, 30854, Control_c, 10, 64, 127
19, 31005, Note_on_c, 10, 64, 0
19, 31009, Note_on_c, 10, 68, 0
19, 31011, Note_on_c, 10, 61, 0
19, 31012, Note_on_c, 10, 56, 0
19, 31077, Note_on_c, 10, 56, 88
19, 31112, Control_c, 10, 64, 0
19, 31138, Note_on_c, 10, 61, 86
19, 31254, Note_on_c, 10, 64, 92
19, 31265, Note_on_c, 10, 56, 0
19, 31273, Note_on_c, 10, 61, 0
19, 31381, Note_on_c, 10, 61, 84
19, 31402, Note_on_c, 10, 64, 0
19, 31496, Note_on_c, 10, 56, 81
19, 31524, Note_on_c, 10, 61, 0
19, 31559, Note_on_c, 10, 64, 88
19, 31564, Note_on_c, 10, 56, 0
19, 31656, Note_on_c, 10, 64, 0
19, 31674, Note_on_c, 10, 59, 83
19, 31688, Note_on_c, 10, 66, 103
19, 31781, Control_c, 10, 64, 127
19, 31824, Note_on_c, 10, 59, 0
19, 31828, Note_on_c, 10, 66, 0
19, 32032, Note_on_c, 10, 54, 96
19, 32093, Note_on_c, 10, 59, 94
19, 32103, Note_on_c, 10, 54, 0
19, 32215, Note_on_c, 10, 63, 103
19, 32220, Note_on_c, 10, 59, 0
19, 32337, Note_on_c, 10, 63, 0
19, 32337, Note_on_c, 10, 59, 89
19, 32454, Note_on_c, 10, 54, 92
19, 32460, Note_on_c, 10, 59, 0
19, 32511, Note_on_c, 10, 63, 92
19, 32516, Note_on_c, 10, 54, 0
19, 32536, Note_on_c, 10, 63, 0
19, 32619, Note_on_c, 10, 56, 76
19, 32632, Note_on_c, 10, 61, 81
19, 32636, Note_on_c, 10, 63, 54
19, 32637, Note_on_c, 10, 64, 90
19, 32646, Note_on_c, 10, 68, 82
19, 32650, Note_on_c, 10, 63, 0
19, 32656, Control_c, 10, 64, 0
19, 32754, Control_c, 10, 64, 127
19, 32899, Note_on_c, 10, 64, 0
19, 32907, Note_on_c, 10, 68, 0
19, 32917, Note_on_c, 10, 61, 0
19, 32917, Note_on_c, 10, 56, 0
19, 33000, Note_on_c, 10, 56, 86
19, 33060, Note_on_c, 10, 61, 89
19, 33061, Control_c, 10, 64, 0
19, 33082, Note_on_c, 10, 56, 0
19, 33104, Note_on_c, 10, 56, 46
19, 33180, Note_on_c, 10, 64, 89
19, 33189, Note_on_c, 10, 56, 0
19, 33191, Note_on_c, 10, 61, 0
19, 33302, Note_on_c, 10, 61, 92
19, 33309, Note_on_c, 10, 64, 0
19, 33419, Note_on_c, 10, 56, 78
19, 33477, Note_on_c, 10, 68, 92
19, 33489, Control_c, 10, 64, 127
19, 33511, Note_on_c, 10, 61, 0
19, 33512, Note_on_c, 10, 68, 0
19, 33519, Note_on_c, 10, 56, 0
19, 33583, Note_on_c, 10, 54, 82
19, 33589, Note_on_c, 10, 59, 86
19, 33594, Note_on_c, 10, 63, 86
19, 33598, Note_on_c, 10, 66, 85
19, 33599, Control_c, 10, 64, 0
19, 33741, Control_c, 10, 64, 127
19, 34229, Note_on_c, 10, 63, 0
19, 34241, Note_on_c, 10, 66, 0
19, 34243, Note_on_c, 10, 59, 0
19, 34259, Note_on_c, 10, 54, 0
19, 34560, Control_c, 10, 64, 0
19, 34649, Control_c, 10, 64, 127
19, 34979, Note_on_c, 10, 59, 88
19, 34996, Control_c, 10, 64, 0
19, 35094, Note_on_c, 10, 54, 82
19, 35109, Note_on_c, 10, 59, 0
19, 35219, Note_on_c, 10, 59, 98
19, 35230, Note_on_c, 10, 54, 0
19, 35335, Note_on_c, 10, 54, 65
19, 35354, Note_on_c, 10, 59, 0
19, 35399, Note_on_c, 10, 63, 96
19, 35407, Control_c, 10, 64, 127
19, 35411, Note_on_c, 10, 54, 0
19, 35431, Note_on_c, 10, 63, 0
19, 35505, Note_on_c, 10, 56, 82
19, 35513, Note_on_c, 10, 61, 85
19, 35520, Control_c, 10, 64, 0
19, 35520, Note_on_c, 10, 77, 84
19, 35522, Note_on_c, 10, 68, 86
19, 35672, Note_on_c, 10, 61, 0
19, 35673, Note_on_c, 10, 77, 0
19, 35676, Note_on_c, 10, 68, 0
19, 35680, Note_on_c, 10, 56, 0
19, 36480, Note_on_c, 10, 61, 60
19, 36480, Note_on_c, 10, 68, 60
19, 36491, Note_on_c, 10, 61, 0
19, 36497, Note_on_c, 10, 68, 0
19, 36657, Note_on_c, 10, 61, 60
19, 36658, Note_on_c, 10, 68, 60
19, 36678, Note_on_c, 10, 61, 0
19, 36683, Note_on_c, 10, 68, 0
19, 36837, Note_on_c, 10, 68, 60
19, 36837, Note_on_c, 10, 61, 60
19, 36859, Note_on_c, 10, 61, 0
19, 36864, Note_on_c, 10, 68, 0
19, 37020, Note_on_c, 10, 61, 60
19, 37020, Note_on_c, 10, 68, 60
19, 37051, Note_on_c, 10, 61, 0
19, 37057, Note_on_c, 10, 68, 0
19, 37195, Note_on_c, 10, 68, 60
19, 37195, Note_on_c, 10, 61, 60
19, 37222, Note_on_c, 10, 61, 0
19, 37225, Note_on_c, 10, 68, 0
19, 37434, Note_on_c, 10, 68, 60
19, 37434, Note_on_c, 10, 61, 60
19, 37462, Note_on_c, 10, 61, 0
19, 37467, Note_on_c, 10, 68, 0
19, 37620, Note_on_c, 10, 61, 60
19, 37621, Note_on_c, 10, 68, 60
19, 37649, Note_on_c, 10, 61, 0
19, 37654, Note_on_c, 10, 68, 0
19, 37798, Note_on_c, 10, 61, 60
19, 37798, Note_on_c, 10, 68, 60
19, 37827, Note_on_c, 10, 61, 0
19, 37836, Note_on_c, 10, 68, 0
19, 37978, Note_on_c, 10, 68, 60
19, 37979, Note_on_c, 10, 61, 60
19, 38016, Note_on_c, 10, 61, 0
19, 38019, Note_on_c, 10, 68, 0
19, 38156, Note_on_c, 10, 68, 60
19, 38157, Note_on_c, 10, 61, 60
19, 38184, Note_on_c, 10, 61, 0
19, 38193, Note_on_c, 10, 68, 0
19, 38400, Note_on_c, 10, 68, 60
19, 38400, Note_on_c, 10, 61, 60
19, 38423, Note_on_c, 10, 61, 0
19, 38424, Note_on_c, 10, 68, 0
19, 38580, Note_on_c, 10, 61, 60
19, 38580, Note_on_c, 10, 68, 60
19, 38611, Note_on_c, 10, 61, 0
19, 38617, Note_on_c, 10, 68, 0
19, 38755, Note_on_c, 10, 61, 60
19, 38756, Note_on_c, 10, 68, 60
19, 38791, Note_on_c, 10, 61, 0
19, 38795, Note_on_c, 10, 68, 0
19, 38940, Note_on_c, 10, 61, 60
19, 38941, Note_on_c, 10, 68, 60
19, 38972, Note_on_c, 10, 61, 0
19, 38979, Note_on_c, 10, 68, 0
19, 39115, Note_on_c, 10, 61, 60
19, 39115, Note_on_c, 10, 68, 60
19, 39149, Note_on_c, 10, 61, 0
19, 39153, Note_on_c, 10, 68, 0
19, 39367, Note_on_c, 10, 61, 60
19, 39368, Note_on_c, 10, 68, 60
19, 39390, Note_on_c, 10, 61, 0
19, 39399, Note_on_c, 10, 68, 0
19, 39540, Note_on_c, 10, 61, 60
19, 39541, Note_on_c, 10, 68, 60
19, 39573, Note_on_c, 10, 61, 0
19, 39579, Note_on_c, 10, 68, 0
19, 39719, Note_on_c, 10, 61, 60
19, 39719, Note_on_c, 10, 68, 60
19, 39749, Note_on_c, 10, 61, 0
19, 39753, Note_on_c, 10, 68, 0
19, 39903, Note_on_c, 10, 61, 60
19, 39903, Note_on_c, 10, 68, 60
19, 39929, Note_on_c, 10, 61, 0
19, 39937, Note_on_c, 10, 68, 0
19, 40320, Note_on_c, 10, 56, 74
19, 40320, Note_on_c, 10, 61, 88
19, 40320, Note_on_c, 10, 68, 92
19, 40320, Note_on_c, 10, 64, 83
19, 40454, Control_c, 10, 64, 127
19, 40605, Note_on_c, 10, 64, 0
19, 40609, Note_on_c, 10, 68, 0
19, 40611, Note_on_c, 10, 61, 0
19, 40612, Note_on_c, 10, 56, 0
19, 40677, Note_on_c, 10, 56, 88
19, 40712, Control_c, 10, 64, 0
19, 40738, Note_on_c, 10, 61, 86
19, 40854, Note_on_c, 10, 64, 92
19, 40865, Note_on_c, 10, 56, 0
19, 40873, Note_on_c, 10, 61, 0
19, 40981, Note_on_c, 10, 61, 84
19, 41002, Note_on_c, 10, 64, 0
19, 41096, Note_on_c, 10, 56, 81
19, 41124, Note_on_c, 10, 61, 0
19, 41159, Note_on_c, 10, 64, 88
19, 41164, Note_on_c, 10, 56, 0
19, 41256, Note_on_c, 10, 64, 0
19, 41274, Note_on_c, 10, 59, 83
19, 41288, Note_on_c, 10, 66, 103
19, 41381, Control_c, 10, 64, 127
19, 41424, Note_on_c, 10, 59, 0
19, 41428, Note_on_c, 10, 66, 0
19, 41632, Note_on_c, 10, 54, 96
19, 41693, Note_on_c, 10, 59, 94
19, 41703, Note_on_c, 10, 54, 0
19, 41815, Note_on_c, 10, 63, 103
19, 41820, Note_on_c, 10, 59, 0
19, 41937, Note_on_c, 10, 63, 0
19, 41937, Note_on_c, 10, 59, 89
19, 42054, Note_on_c, 10, 54, 92
19, 42060, Note_on_c, 10, 59, 0
19, 42111, Note_on_c, 10, 63, 92
19, 42116, Note_on_c, 10, 54, 0
19, 42136, Note_on_c, 10, 63, 0
19, 42219, Note_on_c, 10, 56, 76
19, 42232, Note_on_c, 10, 61, 81
19, 42236, Note_on_c, 10, 63, 54
19, 42237, Note_on_c, 10, 64, 90
19, 42246, Note_on_c, 10, 68, 82
19, 42250, Note_on_c, 10, 63, 0
19, 42256, Control_c, 10, 64, 0
19, 42354, Control_c, 10, 64, 127
19, 42499, Note_on_c, 10, 64, 0
19, 42507, Note_on_c, 10, 68, 0
19, 42517, Note_on_c, 10, 61, 0
19, 42517, Note_on_c, 10, 56, 0
19, 42600, Note_on_c, 10, 56, 86
19, 42660, Note_on_c, 10, 61, 89
19, 42661, Control_c, 10, 64, 0
19, 42682, Note_on_c, 10, 56, 0
19, 42704, Note_on_c, 10, 56, 46
19, 42780, Note_on_c, 10, 64, 89
19, 42789, Note_on_c, 10, 56, 0
19, 42791, Note_on_c, 10, 61, 0
19, 42902, Note_on_c, 10, 61, 92
19, 42909, Note_on_c, 10, 64, 0
19, 43019, Note_on_c, 10, 56, 78
19, 43077, Note_on_c, 10, 68, 92
19, 43089, Control_c, 10, 64, 127
19, 43111, Note_on_c, 10, 61, 0
19, 43112, Note_on_c, 10, 68, 0
19, 43119, Note_on_c, 10, 56, 0
19, 43183, Note_on_c, 10, 54, 82
19, 43189, Note_on_c, 10, 59, 86
19, 43194, Note_on_c, 10, 63, 86
19, 43198, Note_on_c, 10, 66, 85
19, 43199, Control_c, 10, 64, 0
19, 43341, Control_c, 10, 64, 127
19, 43829, Note_on_c, 10, 63, 0
19, 43841, Note_on_c, 10, 66, 0
19, 43843, Note_on_c, 10, 59, 0
19, 43859, Note_on_c, 10, 54, 0
19, 44160, Control_c, 10, 64, 0
19, 44249, Control_c, 10, 64, 127
19, 44579, Note_on_c, 10, 59, 88
19, 44596, Control_c, 10, 64, 0
19, 44694, Note_on_c, 10, 54, 82
19, 44709, Note_on_c, 10, 59, 0
19, 44819, Note_on_c, 10, 59, 98
19, 44830, Note_on_c, 10, 54, 0
19, 44935, Note_on_c, 10, 54, 65
19, 44954, Note_on_c, 10, 59, 0
19, 44999, Note_on_c, 10, 63, 96
19, 45007, Control_c, 10, 64, 127
19, 45011, Note_on_c, 10, 54, 0
19, 45031, Note_on_c, 10, 63, 0
19, 45105, Note_on_c, 10, 56, 82
19, 45113, Note_on_c, 10, 61, 85
19, 45120, Control_c, 10, 64, 0
19, 45120, Note_on_c, 10, 64, 84
19, 45122, Note_on_c, 10, 68, 86
19, 45208, Control_c, 10, 64, 127
19, 45272, Note_on_c, 10, 61, 0
19, 45273, Note_on_c, 10, 64, 0
19, 45276, Note_on_c, 10, 68, 0
19, 45280, Note_on_c, 10, 56, 0
19, 53760, Note_on_c, 10, 56, 74
19, 53760, Note_on_c, 10, 61, 88
19, 53760, Note_on_c, 10, 68, 92
19, 53760, Note_on_c, 10, 64, 83
19, 53894, Control_c, 10, 64, 127
19, 54045, Note_on_c, 10, 64, 0
19, 54049, Note_on_c, 10, 68, 0
19, 54051, Note_on_c, 10, 61, 0
19, 54052, Note_on_c, 10, 56, 0
19, 54117, Note_on_c, 10, 56, 88
19, 54152, Control_c, 10, 64, 0
19, 54178, Note_on_c, 10, 61, 86
19, 54294, Note_on_c, 10, 64, 92
19, 54305, Note_on_c, 10, 56, 0
19, 54313, Note_on_c, 10, 61, 0
19, 54421, Note_on_c, 10, 61, 84
19, 54442, Note_on_c, 10, 64, 0
19, 54536, Note_on_c, 10, 56, 81
19, 54564, Note_on_c, 10, 61, 0
19, 54599, Note_on_c, 10, 64, 88
19, 54604, Note_on_c, 10, 56, 0
19, 54696, Note_on_c, 10, 64, 0
19, 54714, Note_on_c, 10, 59, 83
19, 54728, Note_on_c, 10, 66, 103
19, 54821, Control_c, 10, 64, 127
19, 54864, Note_on_c, 10, 59, 0
19, 54868, Note_on_c, 10, 66, 0
19, 55072, Note_on_c, 10, 54, 96
19, 55133, Note_on_c, 10, 59, 94
19, 55143, Note_on_c, 10, 54, 0
19, 55255, Note_on_c, 10, 63, 103
19, 55260, Note_on_c, 10, 59, 0
19, 55377, Note_on_c, 10, 63, 0
19, 55377, Note_on_c, 10, 59, 89
19, 55494, Note_on_c, 10, 54, 92
19, 55500, Note_on_c, 10, 59, 0
19, 55551, Note_on_c, 10, 63, 92
19, 55556, Note_on_c, 10, 54, 0
19, 55576, Note_on_c, 10, 63, 0
19, 55659, Note_on_c, 10, 56, 76
19, 55672, Note_on_c, 10, 61, 81
19, 55676, Note_on_c, 10, 63, 54
19, 55677, Note_on_c, 10, 64, 90
19, 55686, Note_on_c, 10, 68, 82
19, 55690, Note_on_c, 10, 63, 0
19, 55696, Control_c, 10, 64, 0
19, 55794, Control_c, 10, 64, 127
19, 55939, Note_on_c, 10, 64, 0
19, 55947, Note_on_c, 10, 68, 0
19, 55957, Note_on_c, 10, 61, 0
19, 55957, Note_on_c, 10, 56, 0
19, 56040, Note_on_c, 10, 56, 86
19, 56100, Note_on_c, 10, 61, 89
19, 56101, Control_c, 10, 64, 0
19, 56122, Note_on_c, 10, 56, 0
19, 56144, Note_on_c, 10, 56, 46
19, 56220, Note_on_c, 10, 64, 89
19, 56229, Note_on_c, 10, 56, 0
19, 56231, Note_on_c, 10, 61, 0
19, 56342, Note_on_c, 10, 61, 92
19, 56349, Note_on_c, 10, 64, 0
19, 56459, Note_on_c, 10, 56, 78
19, 56517, Note_on_c, 10, 68, 92
19, 56529, Control_c, 10, 64, 127
19, 56551, Note_on_c, 10, 61, 0
19, 56552, Note_on_c, 10, 68, 0
19, 56559, Note_on_c, 10, 56, 0
19, 56623, Note_on_c, 10, 54, 82
19, 56629, Note_on_c, 10, 59, 86
19, 56634, Note_on_c, 10, 63, 86
19, 56638, Note_on_c, 10, 66, 85
19, 56639, Control_c, 10, 64, 0
19, 57269, Note_on_c, 10, 63, 0
19, 57281, Note_on_c, 10, 66, 0
19, 57283, Note_on_c, 10, 59, 0
19, 57299, Note_on_c, 10, 54, 0
19, 57600, Note_on_c, 10, 56, 74
19, 57600, Note_on_c, 10, 61, 88
19, 57600, Note_on_c, 10, 68, 92
19, 57600, Note_on_c, 10, 64, 83
19, 57734, Control_c, 10, 64, 127
19, 57885, Note_on_c, 10, 64, 0
19, 57889, Note_on_c, 10, 68, 0
19, 57891, Note_on_c, 10, 61, 0
19, 57892, Note_on_c, 10, 56, 0
19, 57957, Note_on_c, 10, 56, 88
19, 57992, Control_c, 10, 64, 0
19, 58018, Note_on_c, 10, 61, 86
19, 58134, Note_on_c, 10, 64, 92
19, 58145, Note_on_c, 10, 56, 0
19, 58153, Note_on_c, 10, 61, 0
19, 58261, Note_on_c, 10, 61, 84
19, 58282, Note_on_c, 10, 64, 0
19, 58376, Note_on_c, 10, 56, 81
19, 58404, Note_on_c, 10, 61, 0
19, 58439, Note_on_c, 10, 64, 88
19, 58444, Note_on_c, 10, 56, 0
19, 58536, Note_on_c, 10, 64, 0
19, 58554, Note_on_c, 10, 59, 83
19, 58568, Note_on_c, 10, 66, 103
19, 58661, Control_c, 10, 64, 127
19, 58704, Note_on_c, 10, 59, 0
19, 58708, Note_on_c, 10, 66, 0
19, 58912, Note_on_c, 10, 54, 96
19, 58973, Note_on_c, 10, 59, 94
19, 58983, Note_on_c, 10, 54, 0
19, 59095, Note_on_c, 10, 63, 103
19, 59100, Note_on_c, 10, 59, 0
19, 59217, Note_on_c, 10, 63, 0
19, 59217, Note_on_c, 10, 59, 89
19, 59334, Note_on_c, 10, 54, 92
19, 59340, Note_on_c, 10, 59, 0
19, 59391, Note_on_c, 10, 63, 92
19, 59396, Note_on_c, 10, 54, 0
19, 59416, Note_on_c, 10, 63, 0
19, 59499, Note_on_c, 10, 56, 76
19, 59512, Note_on_c, 10, 61, 81
19, 59516, Note_on_c, 10, 63, 54
19, 59517, Note_on_c, 10, 64, 90
19, 59526, Note_on_c, 10, 68, 82
19, 59530, Note_on_c, 10, 63, 0
19, 59536, Control_c, 10, 64, 0
19, 59634, Control_c, 10, 64, 127
19, 59779, Note_on_c, 10, 64, 0
19, 59787, Note_on_c, 10, 68, 0
19, 59797, Note_on_c, 10, 61, 0
19, 59797, Note_on_c, 10, 56, 0
19, 59880, Note_on_c, 10, 56, 86
19, 59940, Note_on_c, 10, 61, 89
19, 59941, Control_c, 10, 64, 0
19, 59962, Note_on_c, 10, 56, 0
19, 59984, Note_on_c, 10, 56, 46
19, 60060, Note_on_c, 10, 64, 89
19, 60069, Note_on_c, 10, 56, 0
19, 60071, Note_on_c, 10, 61, 0
19, 60182, Note_on_c, 10, 61, 92
19, 60189, Note_on_c, 10, 64, 0
19, 60299, Note_on_c, 10, 56, 78
19, 60357, Note_on_c, 10, 68, 92
19, 60369, Control_c, 10, 64, 127
19, 60391, Note_on_c, 10, 61, 0
19, 60392, Note_on_c, 10, 68, 0
19, 60399, Note_on_c, 10, 56, 0
19, 60463, Note_on_c, 10, 54, 82
19, 60469, Note_on_c, 10, 59, 86
19, 60474, Note_on_c, 10, 63, 86
19, 60478, Note_on_c, 10, 66, 85
19, 60479, Control_c, 10, 64, 0
19, 61109, Note_on_c, 10, 63, 0
19, 61121, Note_on_c, 10, 66, 0
19, 61123, Note_on_c, 10, 59, 0
19, 61139, Note_on_c, 10, 54, 0
19, 61440, Control_c, 10, 64, 0
19, 61529, Control_c, 10, 64, 127
19, 61859, Note_on_c, 10, 59, 88
19, 61876, Control_c, 10, 64, 0
19, 61974, Note_on_c, 10, 54, 82
19, 61989, Note_on_c, 10, 59, 0
19, 62099, Note_on_c, 10, 59, 98
19, 62110, Note_on_c, 10, 54, 0
19, 62215, Note_on_c, 10, 54, 65
19, 62234, Note_on_c, 10, 59, 0
19, 62279, Note_on_c, 10, 63, 96
19, 62287, Control_c, 10, 64, 127
19, 62291, Note_on_c, 10, 54, 0
19, 62311, Note_on_c, 10, 63, 0
19, 62385, Note_on_c, 10, 56, 82
19, 62393, Note_on_c, 10, 61, 85
19, 62400, Control_c, 10, 64, 0
19, 62400, Note_on_c, 10, 64, 84
19, 62402, Note_on_c, 10, 68, 86
19, 62488, Control_c, 10, 64, 127
19, 62552, Note_on_c, 10, 61, 0
19, 62553, Note_on_c, 10, 64, 0
19, 62556, Note_on_c, 10, 68, 0
19, 62560, Note_on_c, 10, 56, 0
19, 62560, End_track
20, 0, Start_track
20, 0, MIDI_port, 0
20, 0, Title_t, "SADE:"
20, 0, End_track
21, 0, Start_track
21, 0, MIDI_port, 0
21, 0, Title_t, "Why can't we live together"
21, 0, End_track
22, 0, Start_track
22, 0, MIDI_port, 0
22, 0, Title_t, "Sequenced by"
22, 0, End_track
23, 0, Start_track
23, 0, MIDI_port, 0
23, 0, Title_t, "Johannes Karhula 5/1994"
23, 0, End_track
0, 0, End_of_file
