0, 0, Header, 1, 9, 120
1, 0, Start_track
1, 0, Key_signature, -4, "major"
1, 0, Tempo, 342857
1, 0, Time_signature, 4, 2, 24, 8
1, 71520, Tempo, 387096
1, 71760, Tempo, 413793
1, 71880, Tempo, 444444
1, 72000, Tempo, 480000
1, 72000, End_track
2, 0, Start_track
2, 0, Title_t, "Vocal"
2, 0, Instrument_name_t, "Who Do You Love"
2, 5, Control_c, 0, 121, 0
2, 5, Program_c, 0, 16
2, 5, Control_c, 0, 7, 100
2, 5, Control_c, 0, 91, 0
2, 5, Control_c, 0, 93, 123
2, 5, Control_c, 0, 10, 64
2, 5, Control_c, 0, 1, 0
2, 5, Control_c, 0, 64, 0
2, 5, Pitch_bend_c, 0, 8192
2, 9420, Note_on_c, 0, 63, 125
2, 9474, Note_on_c, 0, 63, 0
2, 9480, Note_on_c, 0, 65, 115
2, 9534, Note_on_c, 0, 65, 0
2, 9600, Note_on_c, 0, 68, 117
2, 9654, Note_on_c, 0, 68, 0
2, 9680, Note_on_c, 0, 68, 117
2, 9720, Note_on_c, 0, 68, 112
2, 9734, Note_on_c, 0, 68, 0
2, 9774, Note_on_c, 0, 68, 0
2, 9800, Note_on_c, 0, 68, 115
2, 9840, Note_on_c, 0, 68, 123
2, 9854, Note_on_c, 0, 68, 0
2, 9894, Note_on_c, 0, 68, 0
2, 9960, Note_on_c, 0, 65, 125
2, 10014, Note_on_c, 0, 65, 0
2, 10040, Note_on_c, 0, 68, 112
2, 10094, Note_on_c, 0, 68, 0
2, 10160, Note_on_c, 0, 63, 112
2, 10241, Note_on_c, 0, 63, 0
2, 10400, Note_on_c, 0, 63, 112
2, 10440, Note_on_c, 0, 65, 115
2, 10454, Note_on_c, 0, 63, 0
2, 10494, Note_on_c, 0, 65, 0
2, 10520, Note_on_c, 0, 63, 117
2, 10560, Note_on_c, 0, 68, 110
2, 10574, Note_on_c, 0, 63, 0
2, 10614, Note_on_c, 0, 68, 0
2, 10680, Note_on_c, 0, 65, 125
2, 10734, Note_on_c, 0, 65, 0
2, 10760, Note_on_c, 0, 68, 117
2, 10814, Note_on_c, 0, 68, 0
2, 10840, Note_on_c, 0, 68, 115
2, 10880, Note_on_c, 0, 65, 119
2, 10894, Note_on_c, 0, 68, 0
2, 10934, Note_on_c, 0, 65, 0
2, 10960, Note_on_c, 0, 68, 119
2, 11014, Note_on_c, 0, 68, 0
2, 11100, Note_on_c, 0, 63, 117
2, 11181, Note_on_c, 0, 63, 0
2, 11360, Note_on_c, 0, 63, 117
2, 11400, Note_on_c, 0, 65, 115
2, 11414, Note_on_c, 0, 63, 0
2, 11454, Note_on_c, 0, 65, 0
2, 11480, Note_on_c, 0, 63, 127
2, 11520, Note_on_c, 0, 68, 123
2, 11534, Note_on_c, 0, 63, 0
2, 11574, Note_on_c, 0, 68, 0
2, 11640, Note_on_c, 0, 68, 123
2, 11694, Note_on_c, 0, 68, 0
2, 11760, Note_on_c, 0, 68, 117
2, 11814, Note_on_c, 0, 68, 0
2, 11880, Note_on_c, 0, 68, 123
2, 11934, Note_on_c, 0, 68, 0
2, 11960, Note_on_c, 0, 65, 127
2, 12000, Note_on_c, 0, 68, 115
2, 12014, Note_on_c, 0, 65, 0
2, 12081, Note_on_c, 0, 68, 0
2, 12180, Note_on_c, 0, 63, 112
2, 12261, Note_on_c, 0, 63, 0
2, 12480, Note_on_c, 0, 68, 125
2, 12534, Note_on_c, 0, 68, 0
2, 12600, Note_on_c, 0, 65, 119
2, 12654, Note_on_c, 0, 65, 0
2, 12680, Note_on_c, 0, 68, 112
2, 12734, Note_on_c, 0, 68, 0
2, 12800, Note_on_c, 0, 68, 117
2, 12840, Note_on_c, 0, 65, 125
2, 12854, Note_on_c, 0, 68, 0
2, 12894, Note_on_c, 0, 65, 0
2, 12960, Note_on_c, 0, 63, 115
2, 13014, Note_on_c, 0, 63, 0
2, 13280, Note_on_c, 0, 63, 112
2, 13320, Note_on_c, 0, 65, 117
2, 13334, Note_on_c, 0, 63, 0
2, 13374, Note_on_c, 0, 65, 0
2, 13400, Note_on_c, 0, 63, 112
2, 13440, Note_on_c, 0, 68, 112
2, 13454, Note_on_c, 0, 63, 0
2, 13494, Note_on_c, 0, 68, 0
2, 13560, Note_on_c, 0, 68, 125
2, 13614, Note_on_c, 0, 68, 0
2, 13680, Note_on_c, 0, 68, 112
2, 13734, Note_on_c, 0, 68, 0
2, 13800, Note_on_c, 0, 65, 123
2, 13854, Note_on_c, 0, 65, 0
2, 13920, Note_on_c, 0, 68, 115
2, 13974, Note_on_c, 0, 68, 0
2, 13980, Note_on_c, 0, 65, 125
2, 14034, Note_on_c, 0, 65, 0
2, 14100, Note_on_c, 0, 63, 123
2, 14181, Note_on_c, 0, 63, 0
2, 14400, Note_on_c, 0, 68, 112
2, 14454, Note_on_c, 0, 68, 0
2, 14480, Note_on_c, 0, 68, 117
2, 14520, Note_on_c, 0, 68, 123
2, 14534, Note_on_c, 0, 68, 0
2, 14574, Note_on_c, 0, 68, 0
2, 14600, Note_on_c, 0, 65, 127
2, 14640, Note_on_c, 0, 68, 112
2, 14654, Note_on_c, 0, 65, 0
2, 14694, Note_on_c, 0, 68, 0
2, 14760, Note_on_c, 0, 65, 125
2, 14814, Note_on_c, 0, 65, 0
2, 14880, Note_on_c, 0, 68, 123
2, 14934, Note_on_c, 0, 68, 0
2, 15240, Note_on_c, 0, 65, 125
2, 15294, Note_on_c, 0, 65, 0
2, 15360, Note_on_c, 0, 68, 112
2, 15414, Note_on_c, 0, 68, 0
2, 15420, Note_on_c, 0, 68, 123
2, 15501, Note_on_c, 0, 68, 0
2, 15600, Note_on_c, 0, 68, 125
2, 15654, Note_on_c, 0, 68, 0
2, 15680, Note_on_c, 0, 68, 127
2, 15720, Note_on_c, 0, 68, 123
2, 15734, Note_on_c, 0, 68, 0
2, 15774, Note_on_c, 0, 68, 0
2, 15800, Note_on_c, 0, 68, 123
2, 15840, Note_on_c, 0, 68, 119
2, 15854, Note_on_c, 0, 68, 0
2, 15894, Note_on_c, 0, 68, 0
2, 15920, Note_on_c, 0, 68, 112
2, 15974, Note_on_c, 0, 68, 0
2, 16000, Note_on_c, 0, 68, 123
2, 16054, Note_on_c, 0, 68, 0
2, 16080, Note_on_c, 0, 68, 117
2, 16134, Note_on_c, 0, 68, 0
2, 16160, Note_on_c, 0, 68, 117
2, 16214, Note_on_c, 0, 68, 0
2, 16240, Note_on_c, 0, 68, 127
2, 16294, Note_on_c, 0, 68, 0
2, 16320, Note_on_c, 0, 71, 127
2, 16374, Note_on_c, 0, 71, 0
2, 16440, Note_on_c, 0, 71, 119
2, 16494, Note_on_c, 0, 71, 0
2, 16500, Note_on_c, 0, 71, 127
2, 16554, Note_on_c, 0, 71, 0
2, 16620, Note_on_c, 0, 68, 123
2, 16674, Note_on_c, 0, 68, 0
2, 16680, Note_on_c, 0, 65, 125
2, 16734, Note_on_c, 0, 65, 0
2, 16740, Note_on_c, 0, 63, 115
2, 16794, Note_on_c, 0, 63, 0
2, 17280, Note_on_c, 0, 71, 127
2, 17334, Note_on_c, 0, 71, 0
2, 17520, Note_on_c, 0, 70, 117
2, 17574, Note_on_c, 0, 70, 0
2, 17640, Note_on_c, 0, 68, 123
2, 17694, Note_on_c, 0, 68, 0
2, 17700, Note_on_c, 0, 68, 115
2, 17754, Note_on_c, 0, 68, 0
2, 18240, Note_on_c, 0, 71, 123
2, 18294, Note_on_c, 0, 71, 0
2, 18480, Note_on_c, 0, 70, 117
2, 18534, Note_on_c, 0, 70, 0
2, 18600, Note_on_c, 0, 68, 123
2, 18654, Note_on_c, 0, 68, 0
2, 18660, Note_on_c, 0, 68, 117
2, 18714, Note_on_c, 0, 68, 0
2, 19200, Note_on_c, 0, 71, 127
2, 19254, Note_on_c, 0, 71, 0
2, 19440, Note_on_c, 0, 70, 125
2, 19494, Note_on_c, 0, 70, 0
2, 19560, Note_on_c, 0, 68, 123
2, 19614, Note_on_c, 0, 68, 0
2, 19620, Note_on_c, 0, 68, 117
2, 19674, Note_on_c, 0, 68, 0
2, 20160, Note_on_c, 0, 71, 119
2, 20377, Note_on_c, 0, 71, 0
2, 20400, Note_on_c, 0, 70, 110
2, 20508, Note_on_c, 0, 70, 0
2, 20520, Note_on_c, 0, 68, 123
2, 20574, Note_on_c, 0, 68, 0
2, 20580, Note_on_c, 0, 68, 123
2, 20852, Note_on_c, 0, 68, 0
2, 21120, Note_on_c, 0, 71, 127
2, 21337, Note_on_c, 0, 71, 0
2, 21360, Note_on_c, 0, 70, 125
2, 21468, Note_on_c, 0, 70, 0
2, 21480, Note_on_c, 0, 68, 125
2, 21534, Note_on_c, 0, 68, 0
2, 21540, Note_on_c, 0, 68, 125
2, 21812, Note_on_c, 0, 68, 0
2, 22080, Note_on_c, 0, 68, 117
2, 22152, Note_on_c, 0, 68, 0
2, 22160, Note_on_c, 0, 68, 123
2, 22195, Note_on_c, 0, 68, 0
2, 22200, Note_on_c, 0, 65, 119
2, 22272, Note_on_c, 0, 65, 0
2, 22280, Note_on_c, 0, 68, 123
2, 22425, Note_on_c, 0, 68, 0
2, 22440, Note_on_c, 0, 68, 123
2, 22512, Note_on_c, 0, 68, 0
2, 22520, Note_on_c, 0, 68, 117
2, 22555, Note_on_c, 0, 68, 0
2, 22560, Note_on_c, 0, 68, 123
2, 22632, Note_on_c, 0, 68, 0
2, 22640, Note_on_c, 0, 68, 117
2, 22675, Note_on_c, 0, 68, 0
2, 22680, Note_on_c, 0, 68, 117
2, 22788, Note_on_c, 0, 68, 0
2, 22800, Note_on_c, 0, 68, 117
2, 23017, Note_on_c, 0, 68, 0
2, 23040, Note_on_c, 0, 68, 117
2, 23112, Note_on_c, 0, 68, 0
2, 23120, Note_on_c, 0, 68, 123
2, 23155, Note_on_c, 0, 68, 0
2, 23160, Note_on_c, 0, 68, 123
2, 23232, Note_on_c, 0, 68, 0
2, 23240, Note_on_c, 0, 68, 123
2, 23275, Note_on_c, 0, 68, 0
2, 23280, Note_on_c, 0, 68, 123
2, 23352, Note_on_c, 0, 68, 0
2, 23360, Note_on_c, 0, 68, 119
2, 23395, Note_on_c, 0, 68, 0
2, 23400, Note_on_c, 0, 65, 125
2, 23472, Note_on_c, 0, 65, 0
2, 23480, Note_on_c, 0, 71, 127
2, 23570, Note_on_c, 0, 71, 0
2, 23580, Note_on_c, 0, 63, 125
2, 23743, Note_on_c, 0, 63, 0
2, 23760, Note_on_c, 0, 63, 110
2, 23814, Note_on_c, 0, 63, 0
2, 23820, Note_on_c, 0, 63, 115
2, 23983, Note_on_c, 0, 63, 0
2, 24000, Note_on_c, 0, 71, 127
2, 24217, Note_on_c, 0, 71, 0
2, 24240, Note_on_c, 0, 70, 112
2, 24348, Note_on_c, 0, 70, 0
2, 24360, Note_on_c, 0, 68, 123
2, 24414, Note_on_c, 0, 68, 0
2, 24420, Note_on_c, 0, 68, 123
2, 24692, Note_on_c, 0, 68, 0
2, 24960, Note_on_c, 0, 71, 127
2, 25177, Note_on_c, 0, 71, 0
2, 25200, Note_on_c, 0, 70, 112
2, 25308, Note_on_c, 0, 70, 0
2, 25320, Note_on_c, 0, 68, 123
2, 25374, Note_on_c, 0, 68, 0
2, 25380, Note_on_c, 0, 68, 123
2, 25652, Note_on_c, 0, 68, 0
2, 25920, Note_on_c, 0, 71, 125
2, 26137, Note_on_c, 0, 71, 0
2, 26160, Note_on_c, 0, 70, 123
2, 26268, Note_on_c, 0, 70, 0
2, 26280, Note_on_c, 0, 68, 123
2, 26334, Note_on_c, 0, 68, 0
2, 26340, Note_on_c, 0, 68, 119
2, 26612, Note_on_c, 0, 68, 0
2, 26880, Note_on_c, 0, 71, 127
2, 27097, Note_on_c, 0, 71, 0
2, 27120, Note_on_c, 0, 70, 112
2, 27228, Note_on_c, 0, 70, 0
2, 27240, Note_on_c, 0, 68, 119
2, 27294, Note_on_c, 0, 68, 0
2, 27300, Note_on_c, 0, 68, 117
2, 27572, Note_on_c, 0, 68, 0
2, 27680, Note_on_c, 0, 63, 119
2, 27715, Note_on_c, 0, 63, 0
2, 27720, Note_on_c, 0, 65, 119
2, 27792, Note_on_c, 0, 65, 0
2, 27800, Note_on_c, 0, 63, 123
2, 27835, Note_on_c, 0, 63, 0
2, 27840, Note_on_c, 0, 68, 117
2, 27912, Note_on_c, 0, 68, 0
2, 27920, Note_on_c, 0, 68, 123
2, 27955, Note_on_c, 0, 68, 0
2, 27960, Note_on_c, 0, 65, 119
2, 28032, Note_on_c, 0, 65, 0
2, 28040, Note_on_c, 0, 68, 123
2, 28185, Note_on_c, 0, 68, 0
2, 28200, Note_on_c, 0, 68, 123
2, 28272, Note_on_c, 0, 68, 0
2, 28280, Note_on_c, 0, 68, 117
2, 28315, Note_on_c, 0, 68, 0
2, 28320, Note_on_c, 0, 68, 123
2, 28392, Note_on_c, 0, 68, 0
2, 28400, Note_on_c, 0, 68, 117
2, 28435, Note_on_c, 0, 68, 0
2, 28440, Note_on_c, 0, 68, 117
2, 28548, Note_on_c, 0, 68, 0
2, 28560, Note_on_c, 0, 68, 117
2, 28777, Note_on_c, 0, 68, 0
2, 28800, Note_on_c, 0, 68, 117
2, 28872, Note_on_c, 0, 68, 0
2, 28880, Note_on_c, 0, 68, 123
2, 28915, Note_on_c, 0, 68, 0
2, 28920, Note_on_c, 0, 68, 123
2, 28992, Note_on_c, 0, 68, 0
2, 29000, Note_on_c, 0, 68, 123
2, 29035, Note_on_c, 0, 68, 0
2, 29040, Note_on_c, 0, 68, 123
2, 29112, Note_on_c, 0, 68, 0
2, 29120, Note_on_c, 0, 68, 119
2, 29155, Note_on_c, 0, 68, 0
2, 29160, Note_on_c, 0, 65, 125
2, 29232, Note_on_c, 0, 65, 0
2, 29240, Note_on_c, 0, 71, 127
2, 29330, Note_on_c, 0, 71, 0
2, 29340, Note_on_c, 0, 63, 125
2, 29503, Note_on_c, 0, 63, 0
2, 29520, Note_on_c, 0, 63, 110
2, 29574, Note_on_c, 0, 63, 0
2, 29580, Note_on_c, 0, 63, 115
2, 29743, Note_on_c, 0, 63, 0
2, 29760, Note_on_c, 0, 71, 127
2, 29977, Note_on_c, 0, 71, 0
2, 30000, Note_on_c, 0, 70, 112
2, 30108, Note_on_c, 0, 70, 0
2, 30120, Note_on_c, 0, 68, 123
2, 30174, Note_on_c, 0, 68, 0
2, 30180, Note_on_c, 0, 68, 123
2, 30452, Note_on_c, 0, 68, 0
2, 30720, Note_on_c, 0, 71, 127
2, 30937, Note_on_c, 0, 71, 0
2, 30960, Note_on_c, 0, 70, 112
2, 31068, Note_on_c, 0, 70, 0
2, 31080, Note_on_c, 0, 68, 123
2, 31134, Note_on_c, 0, 68, 0
2, 31140, Note_on_c, 0, 68, 123
2, 31412, Note_on_c, 0, 68, 0
2, 31680, Note_on_c, 0, 71, 125
2, 31897, Note_on_c, 0, 71, 0
2, 31920, Note_on_c, 0, 70, 123
2, 32028, Note_on_c, 0, 70, 0
2, 32040, Note_on_c, 0, 68, 123
2, 32094, Note_on_c, 0, 68, 0
2, 32100, Note_on_c, 0, 68, 119
2, 32372, Note_on_c, 0, 68, 0
2, 32640, Note_on_c, 0, 71, 127
2, 32857, Note_on_c, 0, 71, 0
2, 32880, Note_on_c, 0, 70, 112
2, 32988, Note_on_c, 0, 70, 0
2, 33000, Note_on_c, 0, 68, 119
2, 33054, Note_on_c, 0, 68, 0
2, 33060, Note_on_c, 0, 68, 117
2, 33332, Note_on_c, 0, 68, 0
2, 47040, Note_on_c, 0, 68, 112
2, 47094, Note_on_c, 0, 68, 0
2, 47160, Note_on_c, 0, 65, 127
2, 47214, Note_on_c, 0, 65, 0
2, 47220, Note_on_c, 0, 68, 117
2, 47301, Note_on_c, 0, 68, 0
2, 47400, Note_on_c, 0, 65, 127
2, 47454, Note_on_c, 0, 65, 0
2, 47480, Note_on_c, 0, 65, 127
2, 47520, Note_on_c, 0, 68, 127
2, 47534, Note_on_c, 0, 65, 0
2, 47574, Note_on_c, 0, 68, 0
2, 47640, Note_on_c, 0, 68, 123
2, 47694, Note_on_c, 0, 68, 0
2, 47700, Note_on_c, 0, 63, 123
2, 47781, Note_on_c, 0, 63, 0
2, 48000, Note_on_c, 0, 68, 119
2, 48054, Note_on_c, 0, 68, 0
2, 48120, Note_on_c, 0, 65, 127
2, 48174, Note_on_c, 0, 65, 0
2, 48180, Note_on_c, 0, 68, 123
2, 48234, Note_on_c, 0, 68, 0
2, 48300, Note_on_c, 0, 68, 123
2, 48354, Note_on_c, 0, 68, 0
2, 48360, Note_on_c, 0, 68, 123
2, 48414, Note_on_c, 0, 68, 0
2, 48420, Note_on_c, 0, 71, 127
2, 48474, Note_on_c, 0, 71, 0
2, 48540, Note_on_c, 0, 65, 125
2, 48594, Note_on_c, 0, 65, 0
2, 48660, Note_on_c, 0, 65, 127
2, 48714, Note_on_c, 0, 65, 0
2, 48720, Note_on_c, 0, 63, 112
2, 48774, Note_on_c, 0, 63, 0
2, 48960, Note_on_c, 0, 68, 123
2, 49014, Note_on_c, 0, 68, 0
2, 49020, Note_on_c, 0, 68, 123
2, 49074, Note_on_c, 0, 68, 0
2, 49140, Note_on_c, 0, 68, 123
2, 49194, Note_on_c, 0, 68, 0
2, 49260, Note_on_c, 0, 65, 127
2, 49341, Note_on_c, 0, 65, 0
2, 49440, Note_on_c, 0, 68, 115
2, 49494, Note_on_c, 0, 68, 0
2, 49520, Note_on_c, 0, 68, 123
2, 49560, Note_on_c, 0, 68, 123
2, 49574, Note_on_c, 0, 68, 0
2, 49614, Note_on_c, 0, 68, 0
2, 49640, Note_on_c, 0, 63, 115
2, 49680, Note_on_c, 0, 63, 119
2, 49694, Note_on_c, 0, 63, 0
2, 49734, Note_on_c, 0, 63, 0
2, 49920, Note_on_c, 0, 68, 117
2, 49974, Note_on_c, 0, 68, 0
2, 50040, Note_on_c, 0, 68, 117
2, 50094, Note_on_c, 0, 68, 0
2, 50120, Note_on_c, 0, 68, 127
2, 50160, Note_on_c, 0, 68, 117
2, 50174, Note_on_c, 0, 68, 0
2, 50214, Note_on_c, 0, 68, 0
2, 50240, Note_on_c, 0, 68, 117
2, 50280, Note_on_c, 0, 65, 127
2, 50294, Note_on_c, 0, 68, 0
2, 50334, Note_on_c, 0, 65, 0
2, 50360, Note_on_c, 0, 63, 119
2, 50400, Note_on_c, 0, 68, 123
2, 50414, Note_on_c, 0, 63, 0
2, 50454, Note_on_c, 0, 68, 0
2, 50460, Note_on_c, 0, 68, 117
2, 50514, Note_on_c, 0, 68, 0
2, 50580, Note_on_c, 0, 63, 123
2, 50661, Note_on_c, 0, 63, 0
2, 50880, Note_on_c, 0, 71, 125
2, 51097, Note_on_c, 0, 71, 0
2, 51120, Note_on_c, 0, 70, 117
2, 51228, Note_on_c, 0, 70, 0
2, 51240, Note_on_c, 0, 68, 123
2, 51294, Note_on_c, 0, 68, 0
2, 51300, Note_on_c, 0, 68, 115
2, 51572, Note_on_c, 0, 68, 0
2, 51840, Note_on_c, 0, 71, 127
2, 52057, Note_on_c, 0, 71, 0
2, 52080, Note_on_c, 0, 70, 117
2, 52188, Note_on_c, 0, 70, 0
2, 52200, Note_on_c, 0, 68, 123
2, 52254, Note_on_c, 0, 68, 0
2, 52260, Note_on_c, 0, 68, 125
2, 52532, Note_on_c, 0, 68, 0
2, 52800, Note_on_c, 0, 71, 123
2, 53017, Note_on_c, 0, 71, 0
2, 53040, Note_on_c, 0, 70, 115
2, 53148, Note_on_c, 0, 70, 0
2, 53160, Note_on_c, 0, 68, 117
2, 53214, Note_on_c, 0, 68, 0
2, 53220, Note_on_c, 0, 68, 123
2, 53492, Note_on_c, 0, 68, 0
2, 53760, Note_on_c, 0, 71, 127
2, 53977, Note_on_c, 0, 71, 0
2, 54000, Note_on_c, 0, 70, 115
2, 54108, Note_on_c, 0, 70, 0
2, 54120, Note_on_c, 0, 68, 123
2, 54174, Note_on_c, 0, 68, 0
2, 54180, Note_on_c, 0, 68, 117
2, 54452, Note_on_c, 0, 68, 0
2, 54720, Note_on_c, 0, 68, 123
2, 54774, Note_on_c, 0, 68, 0
2, 54780, Note_on_c, 0, 68, 123
2, 54834, Note_on_c, 0, 68, 0
2, 54900, Note_on_c, 0, 68, 123
2, 54954, Note_on_c, 0, 68, 0
2, 55020, Note_on_c, 0, 65, 127
2, 55101, Note_on_c, 0, 65, 0
2, 55200, Note_on_c, 0, 68, 115
2, 55254, Note_on_c, 0, 68, 0
2, 55280, Note_on_c, 0, 68, 123
2, 55320, Note_on_c, 0, 68, 123
2, 55334, Note_on_c, 0, 68, 0
2, 55374, Note_on_c, 0, 68, 0
2, 55400, Note_on_c, 0, 63, 115
2, 55440, Note_on_c, 0, 63, 119
2, 55454, Note_on_c, 0, 63, 0
2, 55494, Note_on_c, 0, 63, 0
2, 55680, Note_on_c, 0, 68, 117
2, 55734, Note_on_c, 0, 68, 0
2, 55800, Note_on_c, 0, 68, 117
2, 55854, Note_on_c, 0, 68, 0
2, 55880, Note_on_c, 0, 68, 127
2, 55920, Note_on_c, 0, 68, 117
2, 55934, Note_on_c, 0, 68, 0
2, 55974, Note_on_c, 0, 68, 0
2, 56000, Note_on_c, 0, 68, 117
2, 56040, Note_on_c, 0, 65, 127
2, 56054, Note_on_c, 0, 68, 0
2, 56094, Note_on_c, 0, 65, 0
2, 56120, Note_on_c, 0, 63, 119
2, 56160, Note_on_c, 0, 68, 123
2, 56174, Note_on_c, 0, 63, 0
2, 56214, Note_on_c, 0, 68, 0
2, 56220, Note_on_c, 0, 68, 117
2, 56274, Note_on_c, 0, 68, 0
2, 56340, Note_on_c, 0, 63, 123
2, 56421, Note_on_c, 0, 63, 0
2, 56640, Note_on_c, 0, 71, 125
2, 56857, Note_on_c, 0, 71, 0
2, 56880, Note_on_c, 0, 70, 117
2, 56988, Note_on_c, 0, 70, 0
2, 57000, Note_on_c, 0, 68, 123
2, 57054, Note_on_c, 0, 68, 0
2, 57060, Note_on_c, 0, 68, 115
2, 57332, Note_on_c, 0, 68, 0
2, 57600, Note_on_c, 0, 71, 127
2, 57817, Note_on_c, 0, 71, 0
2, 57840, Note_on_c, 0, 70, 117
2, 57948, Note_on_c, 0, 70, 0
2, 57960, Note_on_c, 0, 68, 123
2, 58014, Note_on_c, 0, 68, 0
2, 58020, Note_on_c, 0, 68, 125
2, 58292, Note_on_c, 0, 68, 0
2, 58560, Note_on_c, 0, 71, 123
2, 58777, Note_on_c, 0, 71, 0
2, 58800, Note_on_c, 0, 70, 115
2, 58908, Note_on_c, 0, 70, 0
2, 58920, Note_on_c, 0, 68, 117
2, 58974, Note_on_c, 0, 68, 0
2, 58980, Note_on_c, 0, 68, 123
2, 59252, Note_on_c, 0, 68, 0
2, 59520, Note_on_c, 0, 71, 127
2, 59737, Note_on_c, 0, 71, 0
2, 59760, Note_on_c, 0, 70, 115
2, 59868, Note_on_c, 0, 70, 0
2, 59880, Note_on_c, 0, 68, 123
2, 59934, Note_on_c, 0, 68, 0
2, 59940, Note_on_c, 0, 68, 117
2, 60212, Note_on_c, 0, 68, 0
2, 68160, Note_on_c, 0, 71, 125
2, 68377, Note_on_c, 0, 71, 0
2, 68400, Note_on_c, 0, 70, 117
2, 68508, Note_on_c, 0, 70, 0
2, 68520, Note_on_c, 0, 68, 123
2, 68574, Note_on_c, 0, 68, 0
2, 68580, Note_on_c, 0, 68, 115
2, 68852, Note_on_c, 0, 68, 0
2, 69120, Note_on_c, 0, 71, 127
2, 69337, Note_on_c, 0, 71, 0
2, 69360, Note_on_c, 0, 70, 117
2, 69468, Note_on_c, 0, 70, 0
2, 69480, Note_on_c, 0, 68, 123
2, 69534, Note_on_c, 0, 68, 0
2, 69540, Note_on_c, 0, 68, 125
2, 69812, Note_on_c, 0, 68, 0
2, 70080, Note_on_c, 0, 71, 123
2, 70297, Note_on_c, 0, 71, 0
2, 70320, Note_on_c, 0, 70, 115
2, 70428, Note_on_c, 0, 70, 0
2, 70440, Note_on_c, 0, 68, 117
2, 70494, Note_on_c, 0, 68, 0
2, 70500, Note_on_c, 0, 68, 123
2, 70772, Note_on_c, 0, 68, 0
2, 71040, Note_on_c, 0, 71, 127
2, 71257, Note_on_c, 0, 71, 0
2, 71280, Note_on_c, 0, 70, 115
2, 71388, Note_on_c, 0, 70, 0
2, 71400, Note_on_c, 0, 68, 123
2, 71454, Note_on_c, 0, 68, 0
2, 72000, Control_c, 0, 91, 0
2, 72000, Control_c, 0, 93, 0
2, 72000, Control_c, 0, 1, 0
2, 72000, Control_c, 0, 0, 0
2, 72000, Control_c, 0, 10, 64
2, 72000, Control_c, 0, 64, 0
2, 72000, Control_c, 0, 7, 127
2, 72000, Pitch_bend_c, 0, 8192
2, 72000, End_track
3, 0, Start_track
3, 0, Title_t, "Guitar 1"
3, 5, Control_c, 1, 121, 0
3, 5, Program_c, 1, 26
3, 5, Control_c, 1, 7, 100
3, 5, Control_c, 1, 91, 53
3, 5, Control_c, 1, 93, 32
3, 5, Control_c, 1, 10, 34
3, 5, Control_c, 1, 1, 0
3, 5, Control_c, 1, 64, 0
3, 5, Pitch_bend_c, 1, 8192
3, 240, Note_on_c, 1, 51, 80
3, 479, Note_on_c, 1, 51, 0
3, 480, Note_on_c, 1, 53, 89
3, 719, Note_on_c, 1, 53, 0
3, 720, Note_on_c, 1, 55, 80
3, 959, Note_on_c, 1, 55, 0
3, 960, Note_on_c, 1, 56, 79
3, 1199, Note_on_c, 1, 56, 0
3, 1200, Note_on_c, 1, 54, 84
3, 1319, Note_on_c, 1, 54, 0
3, 1320, Note_on_c, 1, 51, 80
3, 1439, Note_on_c, 1, 51, 0
3, 1440, Note_on_c, 1, 44, 84
3, 1919, Note_on_c, 1, 44, 0
3, 1920, Note_on_c, 1, 56, 79
3, 2159, Note_on_c, 1, 56, 0
3, 2160, Note_on_c, 1, 54, 84
3, 2279, Note_on_c, 1, 54, 0
3, 2280, Note_on_c, 1, 51, 80
3, 2399, Note_on_c, 1, 51, 0
3, 2400, Note_on_c, 1, 44, 84
3, 2879, Note_on_c, 1, 44, 0
3, 2880, Note_on_c, 1, 56, 88
3, 2939, Note_on_c, 1, 56, 0
3, 3000, Note_on_c, 1, 56, 89
3, 3059, Note_on_c, 1, 56, 0
3, 3120, Note_on_c, 1, 55, 76
3, 3159, Note_on_c, 1, 55, 0
3, 3160, Note_on_c, 1, 56, 85
3, 3199, Note_on_c, 1, 56, 0
3, 3200, Note_on_c, 1, 55, 88
3, 3239, Note_on_c, 1, 55, 0
3, 3240, Note_on_c, 1, 51, 88
3, 3319, Note_on_c, 1, 51, 0
3, 3320, Note_on_c, 1, 55, 95
3, 3359, Note_on_c, 1, 55, 0
3, 3440, Note_on_c, 1, 56, 93
3, 3479, Note_on_c, 1, 56, 0
3, 3800, Note_on_c, 1, 51, 93
3, 3839, Note_on_c, 1, 51, 0
3, 3840, Note_on_c, 1, 55, 100
3, 3919, Note_on_c, 1, 55, 0
3, 3920, Note_on_c, 1, 56, 89
3, 3959, Note_on_c, 1, 56, 0
3, 4080, Note_on_c, 1, 55, 93
3, 4139, Note_on_c, 1, 55, 0
3, 4200, Note_on_c, 1, 51, 85
3, 4279, Note_on_c, 1, 51, 0
3, 4280, Note_on_c, 1, 56, 88
3, 4319, Note_on_c, 1, 56, 0
3, 4640, Note_on_c, 1, 56, 89
3, 4679, Note_on_c, 1, 56, 0
3, 4760, Note_on_c, 1, 56, 92
3, 4799, Note_on_c, 1, 56, 0
3, 4800, Note_on_c, 1, 58, 89
3, 4879, Note_on_c, 1, 58, 0
3, 4880, Note_on_c, 1, 56, 93
3, 4919, Note_on_c, 1, 56, 0
3, 5000, Note_on_c, 1, 61, 93
3, 5039, Note_on_c, 1, 61, 0
3, 5040, Note_on_c, 1, 63, 98
3, 5119, Note_on_c, 1, 63, 0
3, 5120, Note_on_c, 1, 61, 93
3, 5159, Note_on_c, 1, 61, 0
3, 5160, Note_on_c, 1, 58, 93
3, 5239, Note_on_c, 1, 58, 0
3, 5240, Note_on_c, 1, 61, 92
3, 5279, Note_on_c, 1, 61, 0
3, 5280, Note_on_c, 1, 63, 88
3, 5399, Note_on_c, 1, 63, 0
3, 5400, Note_on_c, 1, 67, 92
3, 5519, Note_on_c, 1, 67, 0
3, 5520, Note_on_c, 1, 68, 85
3, 5699, Note_on_c, 1, 68, 0
3, 5840, Note_on_c, 1, 61, 98
3, 5879, Note_on_c, 1, 61, 0
3, 5880, Note_on_c, 1, 63, 88
3, 5919, Note_on_c, 1, 63, 0
3, 5920, Note_on_c, 1, 61, 92
3, 5959, Note_on_c, 1, 61, 0
3, 5960, Note_on_c, 1, 59, 84
3, 5999, Note_on_c, 1, 59, 0
3, 6000, Note_on_c, 1, 61, 84
3, 6029, Note_on_c, 1, 61, 0
3, 6030, Note_on_c, 1, 58, 82
3, 6059, Note_on_c, 1, 58, 0
3, 6060, Note_on_c, 1, 56, 92
3, 6089, Note_on_c, 1, 56, 0
3, 6090, Note_on_c, 1, 58, 93
3, 6239, Note_on_c, 1, 58, 0
3, 6240, Note_on_c, 1, 56, 92
3, 6359, Note_on_c, 1, 56, 0
3, 6360, Note_on_c, 1, 51, 89
3, 6479, Note_on_c, 1, 51, 0
3, 6480, Note_on_c, 1, 53, 88
3, 6599, Note_on_c, 1, 53, 0
3, 6600, Note_on_c, 1, 55, 89
3, 6719, Note_on_c, 1, 55, 0
3, 6720, Note_on_c, 1, 56, 89
3, 6959, Note_on_c, 1, 56, 0
3, 6960, Note_on_c, 1, 54, 93
3, 7079, Note_on_c, 1, 54, 0
3, 7080, Note_on_c, 1, 51, 89
3, 7199, Note_on_c, 1, 51, 0
3, 7200, Note_on_c, 1, 44, 85
3, 7679, Note_on_c, 1, 44, 0
3, 7680, Note_on_c, 1, 56, 89
3, 7919, Note_on_c, 1, 56, 0
3, 7920, Note_on_c, 1, 54, 93
3, 8039, Note_on_c, 1, 54, 0
3, 8040, Note_on_c, 1, 51, 89
3, 8159, Note_on_c, 1, 51, 0
3, 8160, Note_on_c, 1, 44, 85
3, 8639, Note_on_c, 1, 44, 0
3, 8640, Note_on_c, 1, 56, 89
3, 8879, Note_on_c, 1, 56, 0
3, 8880, Note_on_c, 1, 54, 93
3, 8999, Note_on_c, 1, 54, 0
3, 9000, Note_on_c, 1, 51, 89
3, 9119, Note_on_c, 1, 51, 0
3, 9120, Note_on_c, 1, 44, 85
3, 9599, Note_on_c, 1, 44, 0
3, 9600, Note_on_c, 1, 56, 88
3, 9839, Note_on_c, 1, 56, 0
3, 9840, Note_on_c, 1, 54, 92
3, 9959, Note_on_c, 1, 54, 0
3, 9960, Note_on_c, 1, 51, 89
3, 10079, Note_on_c, 1, 51, 0
3, 10080, Note_on_c, 1, 44, 92
3, 10559, Note_on_c, 1, 44, 0
3, 10560, Note_on_c, 1, 56, 88
3, 10799, Note_on_c, 1, 56, 0
3, 10800, Note_on_c, 1, 54, 92
3, 10919, Note_on_c, 1, 54, 0
3, 10920, Note_on_c, 1, 51, 89
3, 11039, Note_on_c, 1, 51, 0
3, 11040, Note_on_c, 1, 44, 92
3, 11519, Note_on_c, 1, 44, 0
3, 11520, Note_on_c, 1, 56, 88
3, 11759, Note_on_c, 1, 56, 0
3, 11760, Note_on_c, 1, 54, 92
3, 11879, Note_on_c, 1, 54, 0
3, 11880, Note_on_c, 1, 51, 89
3, 11999, Note_on_c, 1, 51, 0
3, 12000, Note_on_c, 1, 44, 92
3, 12479, Note_on_c, 1, 44, 0
3, 12480, Note_on_c, 1, 56, 88
3, 12719, Note_on_c, 1, 56, 0
3, 12720, Note_on_c, 1, 54, 92
3, 12839, Note_on_c, 1, 54, 0
3, 12840, Note_on_c, 1, 51, 89
3, 12959, Note_on_c, 1, 51, 0
3, 12960, Note_on_c, 1, 44, 92
3, 13439, Note_on_c, 1, 44, 0
3, 13440, Note_on_c, 1, 56, 88
3, 13679, Note_on_c, 1, 56, 0
3, 13680, Note_on_c, 1, 54, 92
3, 13799, Note_on_c, 1, 54, 0
3, 13800, Note_on_c, 1, 51, 89
3, 13919, Note_on_c, 1, 51, 0
3, 13920, Note_on_c, 1, 44, 92
3, 14399, Note_on_c, 1, 44, 0
3, 14400, Note_on_c, 1, 56, 88
3, 14639, Note_on_c, 1, 56, 0
3, 14640, Note_on_c, 1, 54, 92
3, 14759, Note_on_c, 1, 54, 0
3, 14760, Note_on_c, 1, 51, 89
3, 14879, Note_on_c, 1, 51, 0
3, 14880, Note_on_c, 1, 44, 92
3, 15359, Note_on_c, 1, 44, 0
3, 15360, Note_on_c, 1, 56, 88
3, 15599, Note_on_c, 1, 56, 0
3, 15600, Note_on_c, 1, 54, 92
3, 15719, Note_on_c, 1, 54, 0
3, 15720, Note_on_c, 1, 51, 89
3, 15839, Note_on_c, 1, 51, 0
3, 15840, Note_on_c, 1, 44, 92
3, 16319, Note_on_c, 1, 44, 0
3, 16320, Note_on_c, 1, 56, 88
3, 16559, Note_on_c, 1, 56, 0
3, 16560, Note_on_c, 1, 54, 92
3, 16679, Note_on_c, 1, 54, 0
3, 16680, Note_on_c, 1, 51, 89
3, 16799, Note_on_c, 1, 51, 0
3, 16800, Note_on_c, 1, 44, 92
3, 17279, Note_on_c, 1, 44, 0
3, 17280, Note_on_c, 1, 56, 93
3, 17519, Note_on_c, 1, 56, 0
3, 17520, Note_on_c, 1, 54, 92
3, 17639, Note_on_c, 1, 54, 0
3, 17640, Note_on_c, 1, 51, 95
3, 17759, Note_on_c, 1, 51, 0
3, 17760, Note_on_c, 1, 44, 93
3, 17879, Note_on_c, 1, 44, 0
3, 17880, Note_on_c, 1, 68, 93
3, 17939, Note_on_c, 1, 68, 0
3, 17960, Note_on_c, 1, 68, 89
3, 18000, Note_on_c, 1, 71, 101
3, 18019, Note_on_c, 1, 68, 0
3, 18119, Note_on_c, 1, 71, 0
3, 18240, Note_on_c, 1, 56, 93
3, 18479, Note_on_c, 1, 56, 0
3, 18480, Note_on_c, 1, 54, 92
3, 18599, Note_on_c, 1, 54, 0
3, 18600, Note_on_c, 1, 51, 95
3, 18719, Note_on_c, 1, 51, 0
3, 18720, Note_on_c, 1, 44, 93
3, 18839, Note_on_c, 1, 44, 0
3, 18840, Note_on_c, 1, 68, 93
3, 18899, Note_on_c, 1, 68, 0
3, 18920, Note_on_c, 1, 68, 89
3, 18960, Note_on_c, 1, 71, 101
3, 18979, Note_on_c, 1, 68, 0
3, 19079, Note_on_c, 1, 71, 0
3, 19200, Note_on_c, 1, 56, 93
3, 19439, Note_on_c, 1, 56, 0
3, 19440, Note_on_c, 1, 54, 92
3, 19559, Note_on_c, 1, 54, 0
3, 19560, Note_on_c, 1, 51, 95
3, 19679, Note_on_c, 1, 51, 0
3, 19680, Note_on_c, 1, 44, 93
3, 19799, Note_on_c, 1, 44, 0
3, 19800, Note_on_c, 1, 68, 93
3, 19859, Note_on_c, 1, 68, 0
3, 19880, Note_on_c, 1, 68, 89
3, 19920, Note_on_c, 1, 71, 101
3, 19939, Note_on_c, 1, 68, 0
3, 20039, Note_on_c, 1, 71, 0
3, 20160, Note_on_c, 1, 56, 93
3, 20399, Note_on_c, 1, 56, 0
3, 20400, Note_on_c, 1, 54, 92
3, 20519, Note_on_c, 1, 54, 0
3, 20520, Note_on_c, 1, 51, 95
3, 20639, Note_on_c, 1, 51, 0
3, 20640, Note_on_c, 1, 44, 93
3, 20759, Note_on_c, 1, 44, 0
3, 20760, Note_on_c, 1, 68, 93
3, 20819, Note_on_c, 1, 68, 0
3, 20840, Note_on_c, 1, 68, 89
3, 20880, Note_on_c, 1, 71, 101
3, 20899, Note_on_c, 1, 68, 0
3, 20999, Note_on_c, 1, 71, 0
3, 21120, Note_on_c, 1, 56, 93
3, 21359, Note_on_c, 1, 56, 0
3, 21360, Note_on_c, 1, 54, 92
3, 21479, Note_on_c, 1, 54, 0
3, 21480, Note_on_c, 1, 51, 95
3, 21599, Note_on_c, 1, 51, 0
3, 21600, Note_on_c, 1, 44, 93
3, 21719, Note_on_c, 1, 44, 0
3, 21720, Note_on_c, 1, 68, 93
3, 21779, Note_on_c, 1, 68, 0
3, 21800, Note_on_c, 1, 68, 89
3, 21840, Note_on_c, 1, 71, 101
3, 21859, Note_on_c, 1, 68, 0
3, 21959, Note_on_c, 1, 71, 0
3, 22080, Note_on_c, 1, 56, 93
3, 22139, Note_on_c, 1, 56, 0
3, 22320, Note_on_c, 1, 54, 93
3, 22379, Note_on_c, 1, 54, 0
3, 22440, Note_on_c, 1, 51, 98
3, 22499, Note_on_c, 1, 51, 0
3, 22560, Note_on_c, 1, 44, 92
3, 22619, Note_on_c, 1, 44, 0
3, 23040, Note_on_c, 1, 56, 93
3, 23099, Note_on_c, 1, 56, 0
3, 23280, Note_on_c, 1, 54, 93
3, 23339, Note_on_c, 1, 54, 0
3, 23400, Note_on_c, 1, 51, 98
3, 23459, Note_on_c, 1, 51, 0
3, 23520, Note_on_c, 1, 44, 92
3, 23579, Note_on_c, 1, 44, 0
3, 24000, Note_on_c, 1, 56, 92
3, 24239, Note_on_c, 1, 56, 0
3, 24240, Note_on_c, 1, 54, 89
3, 24359, Note_on_c, 1, 54, 0
3, 24360, Note_on_c, 1, 51, 101
3, 24479, Note_on_c, 1, 51, 0
3, 24480, Note_on_c, 1, 44, 98
3, 24599, Note_on_c, 1, 44, 0
3, 24600, Note_on_c, 1, 68, 100
3, 24679, Note_on_c, 1, 68, 0
3, 24680, Note_on_c, 1, 68, 89
3, 24719, Note_on_c, 1, 68, 0
3, 24720, Note_on_c, 1, 71, 101
3, 24839, Note_on_c, 1, 71, 0
3, 24960, Note_on_c, 1, 56, 92
3, 25199, Note_on_c, 1, 56, 0
3, 25200, Note_on_c, 1, 54, 89
3, 25319, Note_on_c, 1, 54, 0
3, 25320, Note_on_c, 1, 51, 101
3, 25439, Note_on_c, 1, 51, 0
3, 25440, Note_on_c, 1, 44, 98
3, 25559, Note_on_c, 1, 44, 0
3, 25560, Note_on_c, 1, 68, 100
3, 25639, Note_on_c, 1, 68, 0
3, 25640, Note_on_c, 1, 68, 89
3, 25679, Note_on_c, 1, 68, 0
3, 25680, Note_on_c, 1, 71, 101
3, 25799, Note_on_c, 1, 71, 0
3, 25920, Note_on_c, 1, 56, 92
3, 26159, Note_on_c, 1, 56, 0
3, 26160, Note_on_c, 1, 54, 89
3, 26279, Note_on_c, 1, 54, 0
3, 26280, Note_on_c, 1, 51, 101
3, 26399, Note_on_c, 1, 51, 0
3, 26400, Note_on_c, 1, 44, 98
3, 26519, Note_on_c, 1, 44, 0
3, 26520, Note_on_c, 1, 68, 100
3, 26599, Note_on_c, 1, 68, 0
3, 26600, Note_on_c, 1, 68, 89
3, 26639, Note_on_c, 1, 68, 0
3, 26640, Note_on_c, 1, 71, 101
3, 26759, Note_on_c, 1, 71, 0
3, 26880, Note_on_c, 1, 56, 92
3, 27119, Note_on_c, 1, 56, 0
3, 27120, Note_on_c, 1, 54, 89
3, 27239, Note_on_c, 1, 54, 0
3, 27240, Note_on_c, 1, 51, 101
3, 27359, Note_on_c, 1, 51, 0
3, 27360, Note_on_c, 1, 44, 98
3, 27479, Note_on_c, 1, 44, 0
3, 27480, Note_on_c, 1, 68, 100
3, 27559, Note_on_c, 1, 68, 0
3, 27560, Note_on_c, 1, 68, 89
3, 27599, Note_on_c, 1, 68, 0
3, 27600, Note_on_c, 1, 71, 101
3, 27719, Note_on_c, 1, 71, 0
3, 27840, Note_on_c, 1, 56, 93
3, 27899, Note_on_c, 1, 56, 0
3, 28080, Note_on_c, 1, 54, 93
3, 28139, Note_on_c, 1, 54, 0
3, 28200, Note_on_c, 1, 51, 98
3, 28259, Note_on_c, 1, 51, 0
3, 28320, Note_on_c, 1, 44, 92
3, 28379, Note_on_c, 1, 44, 0
3, 28800, Note_on_c, 1, 56, 93
3, 28859, Note_on_c, 1, 56, 0
3, 29040, Note_on_c, 1, 54, 93
3, 29099, Note_on_c, 1, 54, 0
3, 29160, Note_on_c, 1, 51, 98
3, 29219, Note_on_c, 1, 51, 0
3, 29280, Note_on_c, 1, 44, 92
3, 29339, Note_on_c, 1, 44, 0
3, 29760, Note_on_c, 1, 56, 92
3, 29999, Note_on_c, 1, 56, 0
3, 30000, Note_on_c, 1, 54, 89
3, 30119, Note_on_c, 1, 54, 0
3, 30120, Note_on_c, 1, 51, 101
3, 30239, Note_on_c, 1, 51, 0
3, 30240, Note_on_c, 1, 44, 98
3, 30359, Note_on_c, 1, 44, 0
3, 30360, Note_on_c, 1, 68, 100
3, 30439, Note_on_c, 1, 68, 0
3, 30440, Note_on_c, 1, 68, 89
3, 30479, Note_on_c, 1, 68, 0
3, 30480, Note_on_c, 1, 71, 101
3, 30599, Note_on_c, 1, 71, 0
3, 30720, Note_on_c, 1, 56, 92
3, 30959, Note_on_c, 1, 56, 0
3, 30960, Note_on_c, 1, 54, 89
3, 31079, Note_on_c, 1, 54, 0
3, 31080, Note_on_c, 1, 51, 101
3, 31199, Note_on_c, 1, 51, 0
3, 31200, Note_on_c, 1, 44, 98
3, 31319, Note_on_c, 1, 44, 0
3, 31320, Note_on_c, 1, 68, 100
3, 31399, Note_on_c, 1, 68, 0
3, 31400, Note_on_c, 1, 68, 89
3, 31439, Note_on_c, 1, 68, 0
3, 31440, Note_on_c, 1, 71, 101
3, 31559, Note_on_c, 1, 71, 0
3, 31680, Note_on_c, 1, 56, 92
3, 31919, Note_on_c, 1, 56, 0
3, 31920, Note_on_c, 1, 54, 89
3, 32039, Note_on_c, 1, 54, 0
3, 32040, Note_on_c, 1, 51, 101
3, 32159, Note_on_c, 1, 51, 0
3, 32160, Note_on_c, 1, 44, 98
3, 32279, Note_on_c, 1, 44, 0
3, 32280, Note_on_c, 1, 68, 100
3, 32359, Note_on_c, 1, 68, 0
3, 32360, Note_on_c, 1, 68, 89
3, 32399, Note_on_c, 1, 68, 0
3, 32400, Note_on_c, 1, 71, 101
3, 32519, Note_on_c, 1, 71, 0
3, 32640, Note_on_c, 1, 56, 92
3, 32879, Note_on_c, 1, 56, 0
3, 32880, Note_on_c, 1, 54, 89
3, 32999, Note_on_c, 1, 54, 0
3, 33000, Note_on_c, 1, 51, 101
3, 33119, Note_on_c, 1, 51, 0
3, 33120, Note_on_c, 1, 44, 98
3, 33239, Note_on_c, 1, 44, 0
3, 33240, Note_on_c, 1, 68, 100
3, 33319, Note_on_c, 1, 68, 0
3, 33320, Note_on_c, 1, 68, 89
3, 33359, Note_on_c, 1, 68, 0
3, 33360, Note_on_c, 1, 71, 101
3, 33479, Note_on_c, 1, 71, 0
3, 33600, Note_on_c, 1, 56, 92
3, 33839, Note_on_c, 1, 56, 0
3, 33840, Note_on_c, 1, 54, 101
3, 33959, Note_on_c, 1, 54, 0
3, 33960, Note_on_c, 1, 51, 98
3, 34079, Note_on_c, 1, 51, 0
3, 34080, Note_on_c, 1, 44, 93
3, 34559, Note_on_c, 1, 44, 0
3, 34560, Note_on_c, 1, 54, 95
3, 34639, Note_on_c, 1, 54, 0
3, 34640, Note_on_c, 1, 56, 92
3, 34679, Note_on_c, 1, 56, 0
3, 34760, Note_on_c, 1, 54, 93
3, 34799, Note_on_c, 1, 54, 0
3, 34880, Note_on_c, 1, 51, 98
3, 34919, Note_on_c, 1, 51, 0
3, 35000, Note_on_c, 1, 54, 98
3, 35039, Note_on_c, 1, 54, 0
3, 35120, Note_on_c, 1, 56, 89
3, 35159, Note_on_c, 1, 56, 0
3, 35480, Note_on_c, 1, 51, 101
3, 35519, Note_on_c, 1, 51, 0
3, 35520, Note_on_c, 1, 54, 92
3, 35599, Note_on_c, 1, 54, 0
3, 35600, Note_on_c, 1, 56, 98
3, 35639, Note_on_c, 1, 56, 0
3, 35760, Note_on_c, 1, 54, 93
3, 35839, Note_on_c, 1, 54, 0
3, 35880, Note_on_c, 1, 51, 98
3, 35959, Note_on_c, 1, 51, 0
3, 35960, Note_on_c, 1, 56, 98
3, 35999, Note_on_c, 1, 56, 0
3, 36320, Note_on_c, 1, 56, 98
3, 36359, Note_on_c, 1, 56, 0
3, 36440, Note_on_c, 1, 56, 95
3, 36479, Note_on_c, 1, 56, 0
3, 36480, Note_on_c, 1, 59, 100
3, 36559, Note_on_c, 1, 59, 0
3, 36560, Note_on_c, 1, 56, 93
3, 36599, Note_on_c, 1, 56, 0
3, 36680, Note_on_c, 1, 61, 93
3, 36719, Note_on_c, 1, 61, 0
3, 36720, Note_on_c, 1, 63, 93
3, 36899, Note_on_c, 1, 63, 0
3, 36900, Note_on_c, 1, 61, 98
3, 36959, Note_on_c, 1, 61, 0
3, 36960, Note_on_c, 1, 63, 98
3, 37039, Note_on_c, 1, 63, 0
3, 37040, Note_on_c, 1, 61, 98
3, 37079, Note_on_c, 1, 61, 0
3, 37080, Note_on_c, 1, 59, 100
3, 37159, Note_on_c, 1, 59, 0
3, 37160, Note_on_c, 1, 56, 95
3, 37199, Note_on_c, 1, 56, 0
3, 37200, Note_on_c, 1, 59, 98
3, 37279, Note_on_c, 1, 59, 0
3, 37280, Note_on_c, 1, 61, 95
3, 37319, Note_on_c, 1, 61, 0
3, 37320, Note_on_c, 1, 63, 93
3, 37399, Note_on_c, 1, 63, 0
3, 37400, Note_on_c, 1, 68, 100
3, 37439, Note_on_c, 1, 68, 0
3, 37440, Note_on_c, 1, 68, 98
3, 37619, Note_on_c, 1, 68, 0
3, 37620, Note_on_c, 1, 68, 95
3, 37679, Note_on_c, 1, 68, 0
3, 37680, Note_on_c, 1, 63, 101
3, 37759, Note_on_c, 1, 63, 0
3, 37760, Note_on_c, 1, 61, 93
3, 37799, Note_on_c, 1, 61, 0
3, 37820, Note_on_c, 1, 63, 95
3, 37899, Note_on_c, 1, 63, 0
3, 37900, Note_on_c, 1, 61, 93
3, 37920, Note_on_c, 1, 58, 92
3, 37939, Note_on_c, 1, 61, 0
3, 37999, Note_on_c, 1, 58, 0
3, 38000, Note_on_c, 1, 56, 100
3, 38039, Note_on_c, 1, 56, 0
3, 38120, Note_on_c, 1, 63, 98
3, 38159, Note_on_c, 1, 63, 0
3, 38160, Note_on_c, 1, 65, 100
3, 38239, Note_on_c, 1, 65, 0
3, 38240, Note_on_c, 1, 63, 98
3, 38279, Note_on_c, 1, 63, 0
3, 38280, Note_on_c, 1, 65, 100
3, 38359, Note_on_c, 1, 65, 0
3, 38360, Note_on_c, 1, 68, 89
3, 38399, Note_on_c, 1, 68, 0
3, 38400, Note_on_c, 1, 68, 98
3, 38519, Note_on_c, 1, 68, 0
3, 38640, Note_on_c, 1, 68, 101
3, 38759, Note_on_c, 1, 68, 0
3, 38840, Note_on_c, 1, 70, 95
3, 38859, Note_on_c, 1, 70, 0
3, 38860, Note_on_c, 1, 72, 92
3, 38879, Note_on_c, 1, 72, 0
3, 39080, Note_on_c, 1, 63, 98
3, 39119, Note_on_c, 1, 63, 0
3, 39120, Note_on_c, 1, 65, 95
3, 39199, Note_on_c, 1, 65, 0
3, 39200, Note_on_c, 1, 63, 98
3, 39239, Note_on_c, 1, 63, 0
3, 39240, Note_on_c, 1, 63, 93
3, 39319, Note_on_c, 1, 63, 0
3, 39360, Note_on_c, 1, 68, 93
3, 39479, Note_on_c, 1, 68, 0
3, 39600, Note_on_c, 1, 68, 89
3, 39719, Note_on_c, 1, 68, 0
3, 39800, Note_on_c, 1, 70, 95
3, 39839, Note_on_c, 1, 70, 0
3, 39920, Note_on_c, 1, 68, 98
3, 39959, Note_on_c, 1, 68, 0
3, 40040, Note_on_c, 1, 71, 101
3, 40079, Note_on_c, 1, 71, 0
3, 40160, Note_on_c, 1, 68, 89
3, 40199, Note_on_c, 1, 68, 0
3, 40280, Note_on_c, 1, 73, 98
3, 40319, Note_on_c, 1, 73, 0
3, 40320, Note_on_c, 1, 75, 93
3, 40559, Note_on_c, 1, 75, 0
3, 40560, Note_on_c, 1, 73, 98
3, 40639, Note_on_c, 1, 73, 0
3, 40640, Note_on_c, 1, 71, 100
3, 40679, Note_on_c, 1, 71, 0
3, 40680, Note_on_c, 1, 68, 98
3, 40759, Note_on_c, 1, 68, 0
3, 40760, Note_on_c, 1, 71, 100
3, 40799, Note_on_c, 1, 71, 0
3, 41000, Note_on_c, 1, 61, 98
3, 41039, Note_on_c, 1, 61, 0
3, 41040, Note_on_c, 1, 63, 100
3, 41119, Note_on_c, 1, 63, 0
3, 41120, Note_on_c, 1, 63, 98
3, 41159, Note_on_c, 1, 63, 0
3, 41160, Note_on_c, 1, 65, 101
3, 41239, Note_on_c, 1, 65, 0
3, 41280, Note_on_c, 1, 68, 89
3, 41399, Note_on_c, 1, 68, 0
3, 41520, Note_on_c, 1, 65, 100
3, 41599, Note_on_c, 1, 65, 0
3, 41600, Note_on_c, 1, 63, 95
3, 41639, Note_on_c, 1, 63, 0
3, 41720, Note_on_c, 1, 68, 98
3, 41759, Note_on_c, 1, 68, 0
3, 42080, Note_on_c, 1, 63, 98
3, 42119, Note_on_c, 1, 63, 0
3, 42120, Note_on_c, 1, 65, 101
3, 42199, Note_on_c, 1, 65, 0
3, 42240, Note_on_c, 1, 70, 98
3, 42299, Note_on_c, 1, 70, 0
3, 42300, Note_on_c, 1, 71, 100
3, 42479, Note_on_c, 1, 71, 0
3, 42480, Note_on_c, 1, 68, 92
3, 42519, Note_on_c, 1, 68, 0
3, 42520, Note_on_c, 1, 70, 100
3, 42559, Note_on_c, 1, 70, 0
3, 42560, Note_on_c, 1, 68, 98
3, 42599, Note_on_c, 1, 68, 0
3, 42600, Note_on_c, 1, 65, 101
3, 42679, Note_on_c, 1, 65, 0
3, 42680, Note_on_c, 1, 70, 98
3, 42719, Note_on_c, 1, 70, 0
3, 42720, Note_on_c, 1, 71, 101
3, 42839, Note_on_c, 1, 71, 0
3, 42840, Note_on_c, 1, 68, 92
3, 42879, Note_on_c, 1, 68, 0
3, 42880, Note_on_c, 1, 70, 89
3, 42919, Note_on_c, 1, 70, 0
3, 42920, Note_on_c, 1, 68, 89
3, 42959, Note_on_c, 1, 68, 0
3, 42960, Note_on_c, 1, 65, 101
3, 43019, Note_on_c, 1, 65, 0
3, 43020, Note_on_c, 1, 70, 89
3, 43079, Note_on_c, 1, 70, 0
3, 43080, Note_on_c, 1, 71, 95
3, 43199, Note_on_c, 1, 71, 0
3, 43200, Note_on_c, 1, 68, 101
3, 43239, Note_on_c, 1, 68, 0
3, 43240, Note_on_c, 1, 70, 93
3, 43279, Note_on_c, 1, 70, 0
3, 43280, Note_on_c, 1, 68, 98
3, 43319, Note_on_c, 1, 68, 0
3, 43320, Note_on_c, 1, 65, 100
3, 43399, Note_on_c, 1, 65, 0
3, 43440, Note_on_c, 1, 70, 98
3, 43519, Note_on_c, 1, 70, 0
3, 43520, Note_on_c, 1, 71, 101
3, 43559, Note_on_c, 1, 71, 0
3, 43560, Note_on_c, 1, 71, 101
3, 43679, Note_on_c, 1, 71, 0
3, 43680, Note_on_c, 1, 68, 93
3, 43759, Note_on_c, 1, 68, 0
3, 43760, Note_on_c, 1, 61, 98
3, 43799, Note_on_c, 1, 61, 0
3, 44000, Note_on_c, 1, 61, 93
3, 44019, Note_on_c, 1, 61, 0
3, 44020, Note_on_c, 1, 63, 93
3, 44039, Note_on_c, 1, 63, 0
3, 44040, Note_on_c, 1, 63, 98
3, 44119, Note_on_c, 1, 63, 0
3, 44120, Note_on_c, 1, 68, 89
3, 44159, Note_on_c, 1, 68, 0
3, 44160, Note_on_c, 1, 66, 88
3, 44399, Note_on_c, 1, 66, 0
3, 44400, Note_on_c, 1, 62, 101
3, 44479, Note_on_c, 1, 62, 0
3, 44480, Note_on_c, 1, 56, 95
3, 44519, Note_on_c, 1, 56, 0
3, 44600, Note_on_c, 1, 62, 100
3, 44639, Note_on_c, 1, 62, 0
3, 44720, Note_on_c, 1, 62, 100
3, 44759, Note_on_c, 1, 62, 0
3, 44760, Note_on_c, 1, 59, 92
3, 44839, Note_on_c, 1, 59, 0
3, 44840, Note_on_c, 1, 56, 89
3, 44879, Note_on_c, 1, 56, 0
3, 44880, Note_on_c, 1, 61, 98
3, 44959, Note_on_c, 1, 61, 0
3, 44960, Note_on_c, 1, 59, 98
3, 44999, Note_on_c, 1, 59, 0
3, 45000, Note_on_c, 1, 56, 92
3, 45079, Note_on_c, 1, 56, 0
3, 45120, Note_on_c, 1, 61, 98
3, 45199, Note_on_c, 1, 61, 0
3, 45200, Note_on_c, 1, 63, 98
3, 45239, Note_on_c, 1, 63, 0
3, 45240, Note_on_c, 1, 63, 98
3, 45319, Note_on_c, 1, 63, 0
3, 45320, Note_on_c, 1, 61, 95
3, 45359, Note_on_c, 1, 61, 0
3, 45360, Note_on_c, 1, 59, 100
3, 45439, Note_on_c, 1, 59, 0
3, 45440, Note_on_c, 1, 56, 95
3, 45479, Note_on_c, 1, 56, 0
3, 45560, Note_on_c, 1, 56, 98
3, 45599, Note_on_c, 1, 56, 0
3, 45680, Note_on_c, 1, 51, 92
3, 45719, Note_on_c, 1, 51, 0
3, 45720, Note_on_c, 1, 51, 89
3, 45839, Note_on_c, 1, 51, 0
3, 45840, Note_on_c, 1, 53, 100
3, 45959, Note_on_c, 1, 53, 0
3, 45960, Note_on_c, 1, 55, 101
3, 46079, Note_on_c, 1, 55, 0
3, 46080, Note_on_c, 1, 56, 98
3, 46319, Note_on_c, 1, 56, 0
3, 46320, Note_on_c, 1, 54, 98
3, 46439, Note_on_c, 1, 54, 0
3, 46440, Note_on_c, 1, 51, 100
3, 46559, Note_on_c, 1, 51, 0
3, 46560, Note_on_c, 1, 44, 93
3, 47039, Note_on_c, 1, 44, 0
3, 47040, Note_on_c, 1, 56, 98
3, 47099, Note_on_c, 1, 56, 0
3, 47280, Note_on_c, 1, 54, 98
3, 47339, Note_on_c, 1, 54, 0
3, 47400, Note_on_c, 1, 51, 93
3, 47459, Note_on_c, 1, 51, 0
3, 47520, Note_on_c, 1, 44, 98
3, 47579, Note_on_c, 1, 44, 0
3, 48000, Note_on_c, 1, 56, 98
3, 48059, Note_on_c, 1, 56, 0
3, 48240, Note_on_c, 1, 54, 98
3, 48299, Note_on_c, 1, 54, 0
3, 48360, Note_on_c, 1, 51, 93
3, 48419, Note_on_c, 1, 51, 0
3, 48480, Note_on_c, 1, 44, 98
3, 48539, Note_on_c, 1, 44, 0
3, 48960, Note_on_c, 1, 56, 98
3, 49019, Note_on_c, 1, 56, 0
3, 49200, Note_on_c, 1, 54, 98
3, 49259, Note_on_c, 1, 54, 0
3, 49320, Note_on_c, 1, 51, 93
3, 49379, Note_on_c, 1, 51, 0
3, 49440, Note_on_c, 1, 44, 98
3, 49499, Note_on_c, 1, 44, 0
3, 49920, Note_on_c, 1, 56, 92
3, 49979, Note_on_c, 1, 56, 0
3, 50160, Note_on_c, 1, 54, 98
3, 50219, Note_on_c, 1, 54, 0
3, 50280, Note_on_c, 1, 51, 98
3, 50339, Note_on_c, 1, 51, 0
3, 50400, Note_on_c, 1, 44, 89
3, 50459, Note_on_c, 1, 44, 0
3, 50520, Note_on_c, 1, 51, 95
3, 50579, Note_on_c, 1, 51, 0
3, 50640, Note_on_c, 1, 53, 95
3, 50699, Note_on_c, 1, 53, 0
3, 50760, Note_on_c, 1, 55, 101
3, 50819, Note_on_c, 1, 55, 0
3, 50880, Note_on_c, 1, 56, 98
3, 51119, Note_on_c, 1, 56, 0
3, 51120, Note_on_c, 1, 54, 92
3, 51239, Note_on_c, 1, 54, 0
3, 51240, Note_on_c, 1, 51, 92
3, 51359, Note_on_c, 1, 51, 0
3, 51360, Note_on_c, 1, 44, 89
3, 51479, Note_on_c, 1, 44, 0
3, 51480, Note_on_c, 1, 68, 92
3, 51559, Note_on_c, 1, 68, 0
3, 51560, Note_on_c, 1, 68, 101
3, 51599, Note_on_c, 1, 68, 0
3, 51600, Note_on_c, 1, 71, 95
3, 51719, Note_on_c, 1, 71, 0
3, 51840, Note_on_c, 1, 56, 98
3, 52079, Note_on_c, 1, 56, 0
3, 52080, Note_on_c, 1, 54, 92
3, 52199, Note_on_c, 1, 54, 0
3, 52200, Note_on_c, 1, 51, 92
3, 52319, Note_on_c, 1, 51, 0
3, 52320, Note_on_c, 1, 44, 89
3, 52439, Note_on_c, 1, 44, 0
3, 52440, Note_on_c, 1, 68, 92
3, 52519, Note_on_c, 1, 68, 0
3, 52520, Note_on_c, 1, 68, 101
3, 52559, Note_on_c, 1, 68, 0
3, 52560, Note_on_c, 1, 71, 95
3, 52679, Note_on_c, 1, 71, 0
3, 52800, Note_on_c, 1, 56, 98
3, 53039, Note_on_c, 1, 56, 0
3, 53040, Note_on_c, 1, 54, 92
3, 53159, Note_on_c, 1, 54, 0
3, 53160, Note_on_c, 1, 51, 92
3, 53279, Note_on_c, 1, 51, 0
3, 53280, Note_on_c, 1, 44, 89
3, 53399, Note_on_c, 1, 44, 0
3, 53400, Note_on_c, 1, 68, 92
3, 53479, Note_on_c, 1, 68, 0
3, 53480, Note_on_c, 1, 68, 101
3, 53519, Note_on_c, 1, 68, 0
3, 53520, Note_on_c, 1, 71, 95
3, 53639, Note_on_c, 1, 71, 0
3, 53760, Note_on_c, 1, 56, 98
3, 53999, Note_on_c, 1, 56, 0
3, 54000, Note_on_c, 1, 54, 92
3, 54119, Note_on_c, 1, 54, 0
3, 54120, Note_on_c, 1, 51, 92
3, 54239, Note_on_c, 1, 51, 0
3, 54240, Note_on_c, 1, 44, 89
3, 54359, Note_on_c, 1, 44, 0
3, 54360, Note_on_c, 1, 68, 92
3, 54439, Note_on_c, 1, 68, 0
3, 54440, Note_on_c, 1, 68, 101
3, 54479, Note_on_c, 1, 68, 0
3, 54480, Note_on_c, 1, 71, 95
3, 54599, Note_on_c, 1, 71, 0
3, 54720, Note_on_c, 1, 56, 98
3, 54779, Note_on_c, 1, 56, 0
3, 54960, Note_on_c, 1, 54, 98
3, 55019, Note_on_c, 1, 54, 0
3, 55080, Note_on_c, 1, 51, 93
3, 55139, Note_on_c, 1, 51, 0
3, 55200, Note_on_c, 1, 44, 98
3, 55259, Note_on_c, 1, 44, 0
3, 55680, Note_on_c, 1, 56, 92
3, 55739, Note_on_c, 1, 56, 0
3, 55920, Note_on_c, 1, 54, 98
3, 55979, Note_on_c, 1, 54, 0
3, 56040, Note_on_c, 1, 51, 98
3, 56099, Note_on_c, 1, 51, 0
3, 56160, Note_on_c, 1, 44, 89
3, 56219, Note_on_c, 1, 44, 0
3, 56280, Note_on_c, 1, 51, 95
3, 56339, Note_on_c, 1, 51, 0
3, 56400, Note_on_c, 1, 53, 95
3, 56459, Note_on_c, 1, 53, 0
3, 56520, Note_on_c, 1, 55, 101
3, 56579, Note_on_c, 1, 55, 0
3, 56640, Note_on_c, 1, 56, 98
3, 56879, Note_on_c, 1, 56, 0
3, 56880, Note_on_c, 1, 54, 92
3, 56999, Note_on_c, 1, 54, 0
3, 57000, Note_on_c, 1, 51, 92
3, 57119, Note_on_c, 1, 51, 0
3, 57120, Note_on_c, 1, 44, 89
3, 57239, Note_on_c, 1, 44, 0
3, 57240, Note_on_c, 1, 68, 92
3, 57319, Note_on_c, 1, 68, 0
3, 57320, Note_on_c, 1, 68, 101
3, 57359, Note_on_c, 1, 68, 0
3, 57360, Note_on_c, 1, 71, 95
3, 57479, Note_on_c, 1, 71, 0
3, 57600, Note_on_c, 1, 56, 98
3, 57839, Note_on_c, 1, 56, 0
3, 57840, Note_on_c, 1, 54, 92
3, 57959, Note_on_c, 1, 54, 0
3, 57960, Note_on_c, 1, 51, 92
3, 58079, Note_on_c, 1, 51, 0
3, 58080, Note_on_c, 1, 44, 89
3, 58199, Note_on_c, 1, 44, 0
3, 58200, Note_on_c, 1, 68, 92
3, 58279, Note_on_c, 1, 68, 0
3, 58280, Note_on_c, 1, 68, 101
3, 58319, Note_on_c, 1, 68, 0
3, 58320, Note_on_c, 1, 71, 95
3, 58439, Note_on_c, 1, 71, 0
3, 58560, Note_on_c, 1, 56, 98
3, 58799, Note_on_c, 1, 56, 0
3, 58800, Note_on_c, 1, 54, 92
3, 58919, Note_on_c, 1, 54, 0
3, 58920, Note_on_c, 1, 51, 92
3, 59039, Note_on_c, 1, 51, 0
3, 59040, Note_on_c, 1, 44, 89
3, 59159, Note_on_c, 1, 44, 0
3, 59160, Note_on_c, 1, 68, 92
3, 59239, Note_on_c, 1, 68, 0
3, 59240, Note_on_c, 1, 68, 101
3, 59279, Note_on_c, 1, 68, 0
3, 59280, Note_on_c, 1, 71, 95
3, 59399, Note_on_c, 1, 71, 0
3, 59520, Note_on_c, 1, 56, 98
3, 59759, Note_on_c, 1, 56, 0
3, 59760, Note_on_c, 1, 54, 92
3, 59879, Note_on_c, 1, 54, 0
3, 59880, Note_on_c, 1, 51, 92
3, 59999, Note_on_c, 1, 51, 0
3, 60000, Note_on_c, 1, 44, 89
3, 60119, Note_on_c, 1, 44, 0
3, 60120, Note_on_c, 1, 68, 92
3, 60199, Note_on_c, 1, 68, 0
3, 60200, Note_on_c, 1, 68, 101
3, 60239, Note_on_c, 1, 68, 0
3, 60240, Note_on_c, 1, 71, 95
3, 60359, Note_on_c, 1, 71, 0
3, 60480, Note_on_c, 1, 56, 93
3, 60599, Note_on_c, 1, 56, 0
3, 60600, Note_on_c, 1, 56, 93
3, 60719, Note_on_c, 1, 56, 0
3, 60720, Note_on_c, 1, 55, 95
3, 60759, Note_on_c, 1, 55, 0
3, 60760, Note_on_c, 1, 56, 93
3, 60799, Note_on_c, 1, 56, 0
3, 60800, Note_on_c, 1, 55, 95
3, 60839, Note_on_c, 1, 55, 0
3, 60840, Note_on_c, 1, 51, 101
3, 60919, Note_on_c, 1, 51, 0
3, 60920, Note_on_c, 1, 55, 100
3, 60959, Note_on_c, 1, 55, 0
3, 61040, Note_on_c, 1, 56, 98
3, 61079, Note_on_c, 1, 56, 0
3, 61400, Note_on_c, 1, 51, 98
3, 61439, Note_on_c, 1, 51, 0
3, 61440, Note_on_c, 1, 55, 100
3, 61519, Note_on_c, 1, 55, 0
3, 61520, Note_on_c, 1, 56, 89
3, 61559, Note_on_c, 1, 56, 0
3, 61680, Note_on_c, 1, 55, 95
3, 61739, Note_on_c, 1, 55, 0
3, 61800, Note_on_c, 1, 51, 89
3, 61879, Note_on_c, 1, 51, 0
3, 61880, Note_on_c, 1, 56, 101
3, 61919, Note_on_c, 1, 56, 0
3, 62240, Note_on_c, 1, 56, 98
3, 62279, Note_on_c, 1, 56, 0
3, 62360, Note_on_c, 1, 56, 101
3, 62399, Note_on_c, 1, 56, 0
3, 62400, Note_on_c, 1, 59, 101
3, 62479, Note_on_c, 1, 59, 0
3, 62480, Note_on_c, 1, 56, 98
3, 62519, Note_on_c, 1, 56, 0
3, 62600, Note_on_c, 1, 61, 95
3, 62639, Note_on_c, 1, 61, 0
3, 62640, Note_on_c, 1, 63, 98
3, 62719, Note_on_c, 1, 63, 0
3, 62720, Note_on_c, 1, 61, 93
3, 62759, Note_on_c, 1, 61, 0
3, 62760, Note_on_c, 1, 59, 98
3, 62839, Note_on_c, 1, 59, 0
3, 62840, Note_on_c, 1, 61, 95
3, 62879, Note_on_c, 1, 61, 0
3, 62880, Note_on_c, 1, 63, 98
3, 62999, Note_on_c, 1, 63, 0
3, 63000, Note_on_c, 1, 67, 101
3, 63119, Note_on_c, 1, 67, 0
3, 63120, Note_on_c, 1, 68, 98
3, 63299, Note_on_c, 1, 68, 0
3, 63440, Note_on_c, 1, 61, 98
3, 63479, Note_on_c, 1, 61, 0
3, 63480, Note_on_c, 1, 63, 100
3, 63509, Note_on_c, 1, 63, 0
3, 63510, Note_on_c, 1, 61, 98
3, 63539, Note_on_c, 1, 61, 0
3, 63540, Note_on_c, 1, 59, 100
3, 63599, Note_on_c, 1, 59, 0
3, 63600, Note_on_c, 1, 61, 89
3, 63629, Note_on_c, 1, 61, 0
3, 63630, Note_on_c, 1, 59, 95
3, 63659, Note_on_c, 1, 59, 0
3, 63660, Note_on_c, 1, 56, 98
3, 63689, Note_on_c, 1, 56, 0
3, 63690, Note_on_c, 1, 59, 93
3, 63839, Note_on_c, 1, 59, 0
3, 63840, Note_on_c, 1, 56, 100
3, 63959, Note_on_c, 1, 56, 0
3, 63960, Note_on_c, 1, 51, 98
3, 64079, Note_on_c, 1, 51, 0
3, 64080, Note_on_c, 1, 53, 98
3, 64199, Note_on_c, 1, 53, 0
3, 64200, Note_on_c, 1, 55, 95
3, 64319, Note_on_c, 1, 55, 0
3, 64320, Note_on_c, 1, 56, 93
3, 64439, Note_on_c, 1, 56, 0
3, 64440, Note_on_c, 1, 56, 93
3, 64559, Note_on_c, 1, 56, 0
3, 64560, Note_on_c, 1, 55, 95
3, 64599, Note_on_c, 1, 55, 0
3, 64600, Note_on_c, 1, 56, 93
3, 64639, Note_on_c, 1, 56, 0
3, 64640, Note_on_c, 1, 55, 95
3, 64679, Note_on_c, 1, 55, 0
3, 64680, Note_on_c, 1, 51, 101
3, 64759, Note_on_c, 1, 51, 0
3, 64760, Note_on_c, 1, 55, 100
3, 64799, Note_on_c, 1, 55, 0
3, 64880, Note_on_c, 1, 56, 98
3, 64919, Note_on_c, 1, 56, 0
3, 65240, Note_on_c, 1, 51, 98
3, 65279, Note_on_c, 1, 51, 0
3, 65280, Note_on_c, 1, 55, 100
3, 65359, Note_on_c, 1, 55, 0
3, 65360, Note_on_c, 1, 56, 89
3, 65399, Note_on_c, 1, 56, 0
3, 65520, Note_on_c, 1, 55, 95
3, 65579, Note_on_c, 1, 55, 0
3, 65640, Note_on_c, 1, 51, 89
3, 65719, Note_on_c, 1, 51, 0
3, 65720, Note_on_c, 1, 56, 101
3, 65759, Note_on_c, 1, 56, 0
3, 66080, Note_on_c, 1, 56, 98
3, 66119, Note_on_c, 1, 56, 0
3, 66200, Note_on_c, 1, 56, 101
3, 66239, Note_on_c, 1, 56, 0
3, 66240, Note_on_c, 1, 59, 101
3, 66319, Note_on_c, 1, 59, 0
3, 66320, Note_on_c, 1, 56, 98
3, 66359, Note_on_c, 1, 56, 0
3, 66440, Note_on_c, 1, 61, 95
3, 66479, Note_on_c, 1, 61, 0
3, 66480, Note_on_c, 1, 63, 98
3, 66559, Note_on_c, 1, 63, 0
3, 66560, Note_on_c, 1, 61, 93
3, 66599, Note_on_c, 1, 61, 0
3, 66600, Note_on_c, 1, 59, 98
3, 66679, Note_on_c, 1, 59, 0
3, 66680, Note_on_c, 1, 61, 95
3, 66719, Note_on_c, 1, 61, 0
3, 66720, Note_on_c, 1, 63, 98
3, 66839, Note_on_c, 1, 63, 0
3, 66840, Note_on_c, 1, 67, 101
3, 66959, Note_on_c, 1, 67, 0
3, 66960, Note_on_c, 1, 68, 98
3, 67139, Note_on_c, 1, 68, 0
3, 67280, Note_on_c, 1, 61, 98
3, 67319, Note_on_c, 1, 61, 0
3, 67320, Note_on_c, 1, 63, 100
3, 67349, Note_on_c, 1, 63, 0
3, 67350, Note_on_c, 1, 61, 98
3, 67379, Note_on_c, 1, 61, 0
3, 67380, Note_on_c, 1, 59, 100
3, 67439, Note_on_c, 1, 59, 0
3, 67440, Note_on_c, 1, 61, 89
3, 67469, Note_on_c, 1, 61, 0
3, 67470, Note_on_c, 1, 59, 95
3, 67499, Note_on_c, 1, 59, 0
3, 67500, Note_on_c, 1, 56, 98
3, 67529, Note_on_c, 1, 56, 0
3, 67530, Note_on_c, 1, 59, 93
3, 67679, Note_on_c, 1, 59, 0
3, 67680, Note_on_c, 1, 56, 100
3, 67799, Note_on_c, 1, 56, 0
3, 67800, Note_on_c, 1, 51, 98
3, 67919, Note_on_c, 1, 51, 0
3, 67920, Note_on_c, 1, 53, 98
3, 68039, Note_on_c, 1, 53, 0
3, 68040, Note_on_c, 1, 55, 95
3, 68159, Note_on_c, 1, 55, 0
3, 68160, Note_on_c, 1, 56, 98
3, 68399, Note_on_c, 1, 56, 0
3, 68400, Note_on_c, 1, 54, 92
3, 68519, Note_on_c, 1, 54, 0
3, 68520, Note_on_c, 1, 51, 92
3, 68639, Note_on_c, 1, 51, 0
3, 68640, Note_on_c, 1, 44, 89
3, 68759, Note_on_c, 1, 44, 0
3, 68760, Note_on_c, 1, 68, 92
3, 68839, Note_on_c, 1, 68, 0
3, 68840, Note_on_c, 1, 68, 101
3, 68879, Note_on_c, 1, 68, 0
3, 68880, Note_on_c, 1, 71, 95
3, 68999, Note_on_c, 1, 71, 0
3, 69120, Note_on_c, 1, 56, 98
3, 69359, Note_on_c, 1, 56, 0
3, 69360, Note_on_c, 1, 54, 92
3, 69479, Note_on_c, 1, 54, 0
3, 69480, Note_on_c, 1, 51, 92
3, 69599, Note_on_c, 1, 51, 0
3, 69600, Note_on_c, 1, 44, 89
3, 69719, Note_on_c, 1, 44, 0
3, 69720, Note_on_c, 1, 68, 92
3, 69799, Note_on_c, 1, 68, 0
3, 69800, Note_on_c, 1, 68, 101
3, 69839, Note_on_c, 1, 68, 0
3, 69840, Note_on_c, 1, 71, 95
3, 69959, Note_on_c, 1, 71, 0
3, 70080, Note_on_c, 1, 56, 98
3, 70319, Note_on_c, 1, 56, 0
3, 70320, Note_on_c, 1, 54, 92
3, 70439, Note_on_c, 1, 54, 0
3, 70440, Note_on_c, 1, 51, 92
3, 70559, Note_on_c, 1, 51, 0
3, 70560, Note_on_c, 1, 44, 89
3, 70679, Note_on_c, 1, 44, 0
3, 70680, Note_on_c, 1, 68, 92
3, 70759, Note_on_c, 1, 68, 0
3, 70760, Note_on_c, 1, 68, 101
3, 70799, Note_on_c, 1, 68, 0
3, 70800, Note_on_c, 1, 71, 95
3, 70919, Note_on_c, 1, 71, 0
3, 71040, Note_on_c, 1, 56, 98
3, 71279, Note_on_c, 1, 56, 0
3, 71280, Note_on_c, 1, 54, 92
3, 71399, Note_on_c, 1, 54, 0
3, 71400, Note_on_c, 1, 51, 92
3, 71519, Note_on_c, 1, 51, 0
3, 71520, Note_on_c, 1, 56, 89
3, 71599, Note_on_c, 1, 56, 0
3, 71600, Note_on_c, 1, 56, 89
3, 71639, Note_on_c, 1, 56, 0
3, 71640, Note_on_c, 1, 54, 98
3, 71719, Note_on_c, 1, 54, 0
3, 71720, Note_on_c, 1, 54, 95
3, 71759, Note_on_c, 1, 54, 0
3, 71760, Note_on_c, 1, 51, 98
3, 71839, Note_on_c, 1, 51, 0
3, 71840, Note_on_c, 1, 51, 93
3, 71879, Note_on_c, 1, 51, 0
3, 72120, Note_on_c, 1, 51, 79
3, 72142, Note_on_c, 1, 56, 79
3, 72177, Note_on_c, 1, 63, 79
3, 72211, Note_on_c, 1, 68, 79
3, 72246, Note_on_c, 1, 72, 79
3, 72281, Note_on_c, 1, 75, 79
3, 72761, Note_on_c, 1, 75, 0
3, 72761, Note_on_c, 1, 56, 0
3, 72761, Note_on_c, 1, 63, 0
3, 72761, Note_on_c, 1, 51, 0
3, 72761, Note_on_c, 1, 72, 0
3, 72761, Note_on_c, 1, 68, 0
3, 72761, End_track
4, 0, Start_track
4, 0, Title_t, "Guitar 2"
4, 0, Instrument_name_t, "Bo Diddley"
4, 5, Control_c, 2, 121, 0
4, 5, Program_c, 2, 27
4, 5, Control_c, 2, 7, 100
4, 5, Control_c, 2, 91, 77
4, 5, Control_c, 2, 93, 33
4, 5, Control_c, 2, 10, 94
4, 5, Control_c, 2, 1, 0
4, 5, Control_c, 2, 64, 0
4, 5, Pitch_bend_c, 2, 8192
4, 960, Note_on_c, 2, 60, 83
4, 1199, Note_on_c, 2, 60, 0
4, 1200, Note_on_c, 2, 58, 92
4, 1319, Note_on_c, 2, 58, 0
4, 1320, Note_on_c, 2, 56, 85
4, 1439, Note_on_c, 2, 56, 0
4, 1560, Note_on_c, 2, 56, 84
4, 1560, Note_on_c, 2, 60, 75
4, 1619, Note_on_c, 2, 60, 0
4, 1619, Note_on_c, 2, 56, 0
4, 1800, Note_on_c, 2, 56, 84
4, 1800, Note_on_c, 2, 60, 88
4, 1859, Note_on_c, 2, 60, 0
4, 1859, Note_on_c, 2, 56, 0
4, 1920, Note_on_c, 2, 60, 95
4, 2159, Note_on_c, 2, 60, 0
4, 2160, Note_on_c, 2, 58, 89
4, 2279, Note_on_c, 2, 58, 0
4, 2280, Note_on_c, 2, 60, 83
4, 2399, Note_on_c, 2, 60, 0
4, 2520, Note_on_c, 2, 60, 71
4, 2520, Note_on_c, 2, 56, 80
4, 2579, Note_on_c, 2, 56, 0
4, 2579, Note_on_c, 2, 60, 0
4, 2760, Note_on_c, 2, 60, 75
4, 2760, Note_on_c, 2, 56, 89
4, 2819, Note_on_c, 2, 56, 0
4, 2819, Note_on_c, 2, 60, 0
4, 3000, Note_on_c, 2, 60, 71
4, 3000, Note_on_c, 2, 56, 80
4, 3059, Note_on_c, 2, 56, 0
4, 3059, Note_on_c, 2, 60, 0
4, 3240, Note_on_c, 2, 60, 75
4, 3240, Note_on_c, 2, 56, 89
4, 3299, Note_on_c, 2, 56, 0
4, 3299, Note_on_c, 2, 60, 0
4, 3480, Note_on_c, 2, 60, 71
4, 3480, Note_on_c, 2, 56, 82
4, 3559, Note_on_c, 2, 56, 0
4, 3559, Note_on_c, 2, 60, 0
4, 3600, Note_on_c, 2, 72, 68
4, 3600, Note_on_c, 2, 63, 84
4, 3600, Note_on_c, 2, 68, 80
4, 3719, Note_on_c, 2, 68, 0
4, 3719, Note_on_c, 2, 63, 0
4, 3719, Note_on_c, 2, 72, 0
4, 3960, Note_on_c, 2, 60, 71
4, 3960, Note_on_c, 2, 56, 80
4, 4019, Note_on_c, 2, 56, 0
4, 4019, Note_on_c, 2, 60, 0
4, 4200, Note_on_c, 2, 60, 75
4, 4200, Note_on_c, 2, 56, 89
4, 4259, Note_on_c, 2, 56, 0
4, 4259, Note_on_c, 2, 60, 0
4, 4440, Note_on_c, 2, 60, 71
4, 4440, Note_on_c, 2, 56, 82
4, 4519, Note_on_c, 2, 56, 0
4, 4519, Note_on_c, 2, 60, 0
4, 4560, Note_on_c, 2, 72, 68
4, 4560, Note_on_c, 2, 63, 84
4, 4560, Note_on_c, 2, 68, 80
4, 4679, Note_on_c, 2, 68, 0
4, 4679, Note_on_c, 2, 63, 0
4, 4679, Note_on_c, 2, 72, 0
4, 4920, Note_on_c, 2, 60, 71
4, 4920, Note_on_c, 2, 56, 80
4, 4979, Note_on_c, 2, 56, 0
4, 4979, Note_on_c, 2, 60, 0
4, 5160, Note_on_c, 2, 60, 75
4, 5160, Note_on_c, 2, 56, 89
4, 5219, Note_on_c, 2, 56, 0
4, 5219, Note_on_c, 2, 60, 0
4, 5400, Note_on_c, 2, 60, 71
4, 5400, Note_on_c, 2, 56, 82
4, 5479, Note_on_c, 2, 56, 0
4, 5479, Note_on_c, 2, 60, 0
4, 5520, Note_on_c, 2, 72, 68
4, 5520, Note_on_c, 2, 63, 84
4, 5520, Note_on_c, 2, 68, 80
4, 5639, Note_on_c, 2, 68, 0
4, 5639, Note_on_c, 2, 63, 0
4, 5639, Note_on_c, 2, 72, 0
4, 5880, Note_on_c, 2, 60, 76
4, 5880, Note_on_c, 2, 56, 85
4, 5939, Note_on_c, 2, 56, 0
4, 5939, Note_on_c, 2, 60, 0
4, 6120, Note_on_c, 2, 60, 79
4, 6120, Note_on_c, 2, 56, 88
4, 6179, Note_on_c, 2, 56, 0
4, 6179, Note_on_c, 2, 60, 0
4, 6360, Note_on_c, 2, 60, 76
4, 6360, Note_on_c, 2, 56, 85
4, 6419, Note_on_c, 2, 56, 0
4, 6419, Note_on_c, 2, 60, 0
4, 6600, Note_on_c, 2, 60, 79
4, 6600, Note_on_c, 2, 56, 88
4, 6659, Note_on_c, 2, 56, 0
4, 6659, Note_on_c, 2, 60, 0
4, 6840, Note_on_c, 2, 60, 76
4, 6840, Note_on_c, 2, 56, 85
4, 6899, Note_on_c, 2, 56, 0
4, 6899, Note_on_c, 2, 60, 0
4, 7080, Note_on_c, 2, 60, 79
4, 7080, Note_on_c, 2, 56, 88
4, 7139, Note_on_c, 2, 56, 0
4, 7139, Note_on_c, 2, 60, 0
4, 7320, Note_on_c, 2, 60, 76
4, 7320, Note_on_c, 2, 56, 85
4, 7379, Note_on_c, 2, 56, 0
4, 7379, Note_on_c, 2, 60, 0
4, 7560, Note_on_c, 2, 60, 79
4, 7560, Note_on_c, 2, 56, 88
4, 7619, Note_on_c, 2, 56, 0
4, 7619, Note_on_c, 2, 60, 0
4, 7800, Note_on_c, 2, 60, 76
4, 7800, Note_on_c, 2, 56, 85
4, 7859, Note_on_c, 2, 56, 0
4, 7859, Note_on_c, 2, 60, 0
4, 8040, Note_on_c, 2, 60, 79
4, 8040, Note_on_c, 2, 56, 88
4, 8099, Note_on_c, 2, 56, 0
4, 8099, Note_on_c, 2, 60, 0
4, 8280, Note_on_c, 2, 60, 76
4, 8280, Note_on_c, 2, 56, 85
4, 8339, Note_on_c, 2, 56, 0
4, 8339, Note_on_c, 2, 60, 0
4, 8520, Note_on_c, 2, 60, 79
4, 8520, Note_on_c, 2, 56, 88
4, 8579, Note_on_c, 2, 56, 0
4, 8579, Note_on_c, 2, 60, 0
4, 8760, Note_on_c, 2, 60, 76
4, 8760, Note_on_c, 2, 56, 85
4, 8819, Note_on_c, 2, 56, 0
4, 8819, Note_on_c, 2, 60, 0
4, 9000, Note_on_c, 2, 60, 79
4, 9000, Note_on_c, 2, 56, 88
4, 9059, Note_on_c, 2, 56, 0
4, 9059, Note_on_c, 2, 60, 0
4, 9240, Note_on_c, 2, 60, 76
4, 9240, Note_on_c, 2, 56, 85
4, 9299, Note_on_c, 2, 56, 0
4, 9299, Note_on_c, 2, 60, 0
4, 9480, Note_on_c, 2, 60, 79
4, 9480, Note_on_c, 2, 56, 88
4, 9539, Note_on_c, 2, 56, 0
4, 9539, Note_on_c, 2, 60, 0
4, 9720, Note_on_c, 2, 60, 76
4, 9720, Note_on_c, 2, 56, 85
4, 9779, Note_on_c, 2, 56, 0
4, 9779, Note_on_c, 2, 60, 0
4, 9960, Note_on_c, 2, 60, 79
4, 9960, Note_on_c, 2, 56, 88
4, 10019, Note_on_c, 2, 56, 0
4, 10019, Note_on_c, 2, 60, 0
4, 10200, Note_on_c, 2, 60, 83
4, 10200, Note_on_c, 2, 56, 93
4, 10259, Note_on_c, 2, 56, 0
4, 10259, Note_on_c, 2, 60, 0
4, 10440, Note_on_c, 2, 56, 82
4, 10440, Note_on_c, 2, 65, 71
4, 10440, Note_on_c, 2, 61, 79
4, 10499, Note_on_c, 2, 61, 0
4, 10499, Note_on_c, 2, 65, 0
4, 10499, Note_on_c, 2, 56, 0
4, 10680, Note_on_c, 2, 60, 76
4, 10680, Note_on_c, 2, 56, 85
4, 10739, Note_on_c, 2, 56, 0
4, 10739, Note_on_c, 2, 60, 0
4, 10920, Note_on_c, 2, 60, 79
4, 10920, Note_on_c, 2, 56, 88
4, 10979, Note_on_c, 2, 56, 0
4, 10979, Note_on_c, 2, 60, 0
4, 11160, Note_on_c, 2, 60, 83
4, 11160, Note_on_c, 2, 56, 93
4, 11219, Note_on_c, 2, 56, 0
4, 11219, Note_on_c, 2, 60, 0
4, 11400, Note_on_c, 2, 56, 82
4, 11400, Note_on_c, 2, 65, 71
4, 11400, Note_on_c, 2, 61, 79
4, 11459, Note_on_c, 2, 61, 0
4, 11459, Note_on_c, 2, 65, 0
4, 11459, Note_on_c, 2, 56, 0
4, 11640, Note_on_c, 2, 60, 76
4, 11640, Note_on_c, 2, 56, 85
4, 11699, Note_on_c, 2, 56, 0
4, 11699, Note_on_c, 2, 60, 0
4, 11880, Note_on_c, 2, 60, 79
4, 11880, Note_on_c, 2, 56, 88
4, 11939, Note_on_c, 2, 56, 0
4, 11939, Note_on_c, 2, 60, 0
4, 12120, Note_on_c, 2, 60, 83
4, 12120, Note_on_c, 2, 56, 93
4, 12179, Note_on_c, 2, 56, 0
4, 12179, Note_on_c, 2, 60, 0
4, 12360, Note_on_c, 2, 56, 82
4, 12360, Note_on_c, 2, 65, 71
4, 12360, Note_on_c, 2, 61, 79
4, 12419, Note_on_c, 2, 61, 0
4, 12419, Note_on_c, 2, 65, 0
4, 12419, Note_on_c, 2, 56, 0
4, 12600, Note_on_c, 2, 60, 76
4, 12600, Note_on_c, 2, 56, 85
4, 12659, Note_on_c, 2, 56, 0
4, 12659, Note_on_c, 2, 60, 0
4, 12840, Note_on_c, 2, 60, 79
4, 12840, Note_on_c, 2, 56, 88
4, 12899, Note_on_c, 2, 56, 0
4, 12899, Note_on_c, 2, 60, 0
4, 13080, Note_on_c, 2, 60, 83
4, 13080, Note_on_c, 2, 56, 93
4, 13139, Note_on_c, 2, 56, 0
4, 13139, Note_on_c, 2, 60, 0
4, 13320, Note_on_c, 2, 56, 82
4, 13320, Note_on_c, 2, 65, 71
4, 13320, Note_on_c, 2, 61, 79
4, 13379, Note_on_c, 2, 61, 0
4, 13379, Note_on_c, 2, 65, 0
4, 13379, Note_on_c, 2, 56, 0
4, 13560, Note_on_c, 2, 60, 76
4, 13560, Note_on_c, 2, 56, 85
4, 13619, Note_on_c, 2, 56, 0
4, 13619, Note_on_c, 2, 60, 0
4, 13800, Note_on_c, 2, 60, 79
4, 13800, Note_on_c, 2, 56, 88
4, 13859, Note_on_c, 2, 56, 0
4, 13859, Note_on_c, 2, 60, 0
4, 14040, Note_on_c, 2, 60, 83
4, 14040, Note_on_c, 2, 56, 93
4, 14099, Note_on_c, 2, 56, 0
4, 14099, Note_on_c, 2, 60, 0
4, 14280, Note_on_c, 2, 56, 82
4, 14280, Note_on_c, 2, 65, 71
4, 14280, Note_on_c, 2, 61, 79
4, 14339, Note_on_c, 2, 61, 0
4, 14339, Note_on_c, 2, 65, 0
4, 14339, Note_on_c, 2, 56, 0
4, 14520, Note_on_c, 2, 60, 76
4, 14520, Note_on_c, 2, 56, 85
4, 14579, Note_on_c, 2, 56, 0
4, 14579, Note_on_c, 2, 60, 0
4, 14760, Note_on_c, 2, 60, 79
4, 14760, Note_on_c, 2, 56, 88
4, 14819, Note_on_c, 2, 56, 0
4, 14819, Note_on_c, 2, 60, 0
4, 15000, Note_on_c, 2, 60, 83
4, 15000, Note_on_c, 2, 56, 93
4, 15059, Note_on_c, 2, 56, 0
4, 15059, Note_on_c, 2, 60, 0
4, 15240, Note_on_c, 2, 56, 82
4, 15240, Note_on_c, 2, 65, 71
4, 15240, Note_on_c, 2, 61, 79
4, 15299, Note_on_c, 2, 61, 0
4, 15299, Note_on_c, 2, 65, 0
4, 15299, Note_on_c, 2, 56, 0
4, 15480, Note_on_c, 2, 60, 76
4, 15480, Note_on_c, 2, 56, 85
4, 15539, Note_on_c, 2, 56, 0
4, 15539, Note_on_c, 2, 60, 0
4, 15720, Note_on_c, 2, 60, 79
4, 15720, Note_on_c, 2, 56, 88
4, 15779, Note_on_c, 2, 56, 0
4, 15779, Note_on_c, 2, 60, 0
4, 15960, Note_on_c, 2, 60, 83
4, 15960, Note_on_c, 2, 56, 93
4, 16019, Note_on_c, 2, 56, 0
4, 16019, Note_on_c, 2, 60, 0
4, 16200, Note_on_c, 2, 56, 82
4, 16200, Note_on_c, 2, 65, 71
4, 16200, Note_on_c, 2, 61, 79
4, 16259, Note_on_c, 2, 61, 0
4, 16259, Note_on_c, 2, 65, 0
4, 16259, Note_on_c, 2, 56, 0
4, 16440, Note_on_c, 2, 60, 76
4, 16440, Note_on_c, 2, 56, 85
4, 16499, Note_on_c, 2, 56, 0
4, 16499, Note_on_c, 2, 60, 0
4, 16680, Note_on_c, 2, 60, 79
4, 16680, Note_on_c, 2, 56, 88
4, 16739, Note_on_c, 2, 56, 0
4, 16739, Note_on_c, 2, 60, 0
4, 16920, Note_on_c, 2, 60, 83
4, 16920, Note_on_c, 2, 56, 93
4, 16979, Note_on_c, 2, 56, 0
4, 16979, Note_on_c, 2, 60, 0
4, 17160, Note_on_c, 2, 56, 82
4, 17160, Note_on_c, 2, 65, 71
4, 17160, Note_on_c, 2, 61, 79
4, 17219, Note_on_c, 2, 61, 0
4, 17219, Note_on_c, 2, 65, 0
4, 17219, Note_on_c, 2, 56, 0
4, 17400, Note_on_c, 2, 60, 80
4, 17400, Note_on_c, 2, 56, 89
4, 17459, Note_on_c, 2, 56, 0
4, 17459, Note_on_c, 2, 60, 0
4, 17640, Note_on_c, 2, 60, 71
4, 17640, Note_on_c, 2, 56, 89
4, 17699, Note_on_c, 2, 56, 0
4, 17699, Note_on_c, 2, 60, 0
4, 17880, Note_on_c, 2, 60, 64
4, 17880, Note_on_c, 2, 56, 88
4, 17939, Note_on_c, 2, 56, 0
4, 17939, Note_on_c, 2, 60, 0
4, 18000, Note_on_c, 2, 72, 72
4, 18000, Note_on_c, 2, 68, 84
4, 18000, Note_on_c, 2, 63, 88
4, 18119, Note_on_c, 2, 63, 0
4, 18119, Note_on_c, 2, 68, 0
4, 18119, Note_on_c, 2, 72, 0
4, 18360, Note_on_c, 2, 60, 80
4, 18360, Note_on_c, 2, 56, 89
4, 18419, Note_on_c, 2, 56, 0
4, 18419, Note_on_c, 2, 60, 0
4, 18600, Note_on_c, 2, 60, 71
4, 18600, Note_on_c, 2, 56, 89
4, 18659, Note_on_c, 2, 56, 0
4, 18659, Note_on_c, 2, 60, 0
4, 18840, Note_on_c, 2, 60, 64
4, 18840, Note_on_c, 2, 56, 88
4, 18899, Note_on_c, 2, 56, 0
4, 18899, Note_on_c, 2, 60, 0
4, 18960, Note_on_c, 2, 72, 72
4, 18960, Note_on_c, 2, 68, 84
4, 18960, Note_on_c, 2, 63, 88
4, 19079, Note_on_c, 2, 63, 0
4, 19079, Note_on_c, 2, 68, 0
4, 19079, Note_on_c, 2, 72, 0
4, 19320, Note_on_c, 2, 60, 80
4, 19320, Note_on_c, 2, 56, 89
4, 19379, Note_on_c, 2, 56, 0
4, 19379, Note_on_c, 2, 60, 0
4, 19560, Note_on_c, 2, 60, 71
4, 19560, Note_on_c, 2, 56, 89
4, 19619, Note_on_c, 2, 56, 0
4, 19619, Note_on_c, 2, 60, 0
4, 19800, Note_on_c, 2, 60, 64
4, 19800, Note_on_c, 2, 56, 88
4, 19859, Note_on_c, 2, 56, 0
4, 19859, Note_on_c, 2, 60, 0
4, 19920, Note_on_c, 2, 72, 72
4, 19920, Note_on_c, 2, 68, 84
4, 19920, Note_on_c, 2, 63, 88
4, 20039, Note_on_c, 2, 63, 0
4, 20039, Note_on_c, 2, 68, 0
4, 20039, Note_on_c, 2, 72, 0
4, 20280, Note_on_c, 2, 60, 80
4, 20280, Note_on_c, 2, 56, 89
4, 20339, Note_on_c, 2, 56, 0
4, 20339, Note_on_c, 2, 60, 0
4, 20520, Note_on_c, 2, 60, 71
4, 20520, Note_on_c, 2, 56, 89
4, 20579, Note_on_c, 2, 56, 0
4, 20579, Note_on_c, 2, 60, 0
4, 20760, Note_on_c, 2, 60, 64
4, 20760, Note_on_c, 2, 56, 88
4, 20819, Note_on_c, 2, 56, 0
4, 20819, Note_on_c, 2, 60, 0
4, 20880, Note_on_c, 2, 72, 72
4, 20880, Note_on_c, 2, 68, 84
4, 20880, Note_on_c, 2, 63, 88
4, 20999, Note_on_c, 2, 63, 0
4, 20999, Note_on_c, 2, 68, 0
4, 20999, Note_on_c, 2, 72, 0
4, 21240, Note_on_c, 2, 60, 80
4, 21240, Note_on_c, 2, 56, 89
4, 21299, Note_on_c, 2, 56, 0
4, 21299, Note_on_c, 2, 60, 0
4, 21480, Note_on_c, 2, 60, 71
4, 21480, Note_on_c, 2, 56, 89
4, 21539, Note_on_c, 2, 56, 0
4, 21539, Note_on_c, 2, 60, 0
4, 21720, Note_on_c, 2, 60, 64
4, 21720, Note_on_c, 2, 56, 88
4, 21779, Note_on_c, 2, 56, 0
4, 21779, Note_on_c, 2, 60, 0
4, 21840, Note_on_c, 2, 72, 72
4, 21840, Note_on_c, 2, 68, 84
4, 21840, Note_on_c, 2, 63, 88
4, 21959, Note_on_c, 2, 63, 0
4, 21959, Note_on_c, 2, 68, 0
4, 21959, Note_on_c, 2, 72, 0
4, 22200, Note_on_c, 2, 60, 78
4, 22200, Note_on_c, 2, 56, 85
4, 22259, Note_on_c, 2, 56, 0
4, 22259, Note_on_c, 2, 60, 0
4, 22440, Note_on_c, 2, 60, 75
4, 22440, Note_on_c, 2, 56, 93
4, 22499, Note_on_c, 2, 56, 0
4, 22499, Note_on_c, 2, 60, 0
4, 22680, Note_on_c, 2, 60, 78
4, 22680, Note_on_c, 2, 56, 88
4, 22739, Note_on_c, 2, 56, 0
4, 22739, Note_on_c, 2, 60, 0
4, 22920, Note_on_c, 2, 65, 71
4, 22920, Note_on_c, 2, 61, 79
4, 22920, Note_on_c, 2, 56, 84
4, 22979, Note_on_c, 2, 56, 0
4, 22979, Note_on_c, 2, 61, 0
4, 22979, Note_on_c, 2, 65, 0
4, 23160, Note_on_c, 2, 60, 78
4, 23160, Note_on_c, 2, 56, 85
4, 23219, Note_on_c, 2, 56, 0
4, 23219, Note_on_c, 2, 60, 0
4, 23400, Note_on_c, 2, 60, 75
4, 23400, Note_on_c, 2, 56, 93
4, 23459, Note_on_c, 2, 56, 0
4, 23459, Note_on_c, 2, 60, 0
4, 23640, Note_on_c, 2, 60, 78
4, 23640, Note_on_c, 2, 56, 88
4, 23699, Note_on_c, 2, 56, 0
4, 23699, Note_on_c, 2, 60, 0
4, 23880, Note_on_c, 2, 65, 71
4, 23880, Note_on_c, 2, 61, 79
4, 23880, Note_on_c, 2, 56, 84
4, 23939, Note_on_c, 2, 56, 0
4, 23939, Note_on_c, 2, 61, 0
4, 23939, Note_on_c, 2, 65, 0
4, 24120, Note_on_c, 2, 60, 80
4, 24120, Note_on_c, 2, 56, 89
4, 24179, Note_on_c, 2, 56, 0
4, 24179, Note_on_c, 2, 60, 0
4, 24360, Note_on_c, 2, 56, 88
4, 24360, Note_on_c, 2, 60, 79
4, 24419, Note_on_c, 2, 60, 0
4, 24419, Note_on_c, 2, 56, 0
4, 24600, Note_on_c, 2, 60, 71
4, 24600, Note_on_c, 2, 56, 93
4, 24659, Note_on_c, 2, 56, 0
4, 24659, Note_on_c, 2, 60, 0
4, 24720, Note_on_c, 2, 72, 76
4, 24720, Note_on_c, 2, 68, 89
4, 24720, Note_on_c, 2, 63, 84
4, 24839, Note_on_c, 2, 63, 0
4, 24839, Note_on_c, 2, 68, 0
4, 24839, Note_on_c, 2, 72, 0
4, 25080, Note_on_c, 2, 60, 80
4, 25080, Note_on_c, 2, 56, 89
4, 25139, Note_on_c, 2, 56, 0
4, 25139, Note_on_c, 2, 60, 0
4, 25320, Note_on_c, 2, 56, 88
4, 25320, Note_on_c, 2, 60, 79
4, 25379, Note_on_c, 2, 60, 0
4, 25379, Note_on_c, 2, 56, 0
4, 25560, Note_on_c, 2, 60, 71
4, 25560, Note_on_c, 2, 56, 93
4, 25619, Note_on_c, 2, 56, 0
4, 25619, Note_on_c, 2, 60, 0
4, 25680, Note_on_c, 2, 72, 76
4, 25680, Note_on_c, 2, 68, 89
4, 25680, Note_on_c, 2, 63, 84
4, 25799, Note_on_c, 2, 63, 0
4, 25799, Note_on_c, 2, 68, 0
4, 25799, Note_on_c, 2, 72, 0
4, 26040, Note_on_c, 2, 60, 80
4, 26040, Note_on_c, 2, 56, 89
4, 26099, Note_on_c, 2, 56, 0
4, 26099, Note_on_c, 2, 60, 0
4, 26280, Note_on_c, 2, 56, 88
4, 26280, Note_on_c, 2, 60, 79
4, 26339, Note_on_c, 2, 60, 0
4, 26339, Note_on_c, 2, 56, 0
4, 26520, Note_on_c, 2, 60, 71
4, 26520, Note_on_c, 2, 56, 93
4, 26579, Note_on_c, 2, 56, 0
4, 26579, Note_on_c, 2, 60, 0
4, 26640, Note_on_c, 2, 72, 76
4, 26640, Note_on_c, 2, 68, 89
4, 26640, Note_on_c, 2, 63, 84
4, 26759, Note_on_c, 2, 63, 0
4, 26759, Note_on_c, 2, 68, 0
4, 26759, Note_on_c, 2, 72, 0
4, 27000, Note_on_c, 2, 60, 80
4, 27000, Note_on_c, 2, 56, 89
4, 27059, Note_on_c, 2, 56, 0
4, 27059, Note_on_c, 2, 60, 0
4, 27240, Note_on_c, 2, 56, 88
4, 27240, Note_on_c, 2, 60, 79
4, 27299, Note_on_c, 2, 60, 0
4, 27299, Note_on_c, 2, 56, 0
4, 27480, Note_on_c, 2, 60, 71
4, 27480, Note_on_c, 2, 56, 93
4, 27539, Note_on_c, 2, 56, 0
4, 27539, Note_on_c, 2, 60, 0
4, 27600, Note_on_c, 2, 72, 76
4, 27600, Note_on_c, 2, 68, 89
4, 27600, Note_on_c, 2, 63, 84
4, 27719, Note_on_c, 2, 63, 0
4, 27719, Note_on_c, 2, 68, 0
4, 27719, Note_on_c, 2, 72, 0
4, 27960, Note_on_c, 2, 60, 78
4, 27960, Note_on_c, 2, 56, 85
4, 28019, Note_on_c, 2, 56, 0
4, 28019, Note_on_c, 2, 60, 0
4, 28200, Note_on_c, 2, 60, 75
4, 28200, Note_on_c, 2, 56, 93
4, 28259, Note_on_c, 2, 56, 0
4, 28259, Note_on_c, 2, 60, 0
4, 28440, Note_on_c, 2, 60, 78
4, 28440, Note_on_c, 2, 56, 88
4, 28499, Note_on_c, 2, 56, 0
4, 28499, Note_on_c, 2, 60, 0
4, 28680, Note_on_c, 2, 65, 71
4, 28680, Note_on_c, 2, 61, 79
4, 28680, Note_on_c, 2, 56, 84
4, 28739, Note_on_c, 2, 56, 0
4, 28739, Note_on_c, 2, 61, 0
4, 28739, Note_on_c, 2, 65, 0
4, 28920, Note_on_c, 2, 60, 78
4, 28920, Note_on_c, 2, 56, 85
4, 28979, Note_on_c, 2, 56, 0
4, 28979, Note_on_c, 2, 60, 0
4, 29160, Note_on_c, 2, 60, 75
4, 29160, Note_on_c, 2, 56, 93
4, 29219, Note_on_c, 2, 56, 0
4, 29219, Note_on_c, 2, 60, 0
4, 29400, Note_on_c, 2, 60, 78
4, 29400, Note_on_c, 2, 56, 88
4, 29459, Note_on_c, 2, 56, 0
4, 29459, Note_on_c, 2, 60, 0
4, 29640, Note_on_c, 2, 65, 71
4, 29640, Note_on_c, 2, 61, 79
4, 29640, Note_on_c, 2, 56, 84
4, 29699, Note_on_c, 2, 56, 0
4, 29699, Note_on_c, 2, 61, 0
4, 29699, Note_on_c, 2, 65, 0
4, 29880, Note_on_c, 2, 60, 80
4, 29880, Note_on_c, 2, 56, 89
4, 29939, Note_on_c, 2, 56, 0
4, 29939, Note_on_c, 2, 60, 0
4, 30120, Note_on_c, 2, 56, 88
4, 30120, Note_on_c, 2, 60, 79
4, 30179, Note_on_c, 2, 60, 0
4, 30179, Note_on_c, 2, 56, 0
4, 30360, Note_on_c, 2, 60, 71
4, 30360, Note_on_c, 2, 56, 93
4, 30419, Note_on_c, 2, 56, 0
4, 30419, Note_on_c, 2, 60, 0
4, 30480, Note_on_c, 2, 72, 76
4, 30480, Note_on_c, 2, 68, 89
4, 30480, Note_on_c, 2, 63, 84
4, 30599, Note_on_c, 2, 63, 0
4, 30599, Note_on_c, 2, 68, 0
4, 30599, Note_on_c, 2, 72, 0
4, 30840, Note_on_c, 2, 60, 80
4, 30840, Note_on_c, 2, 56, 89
4, 30899, Note_on_c, 2, 56, 0
4, 30899, Note_on_c, 2, 60, 0
4, 31080, Note_on_c, 2, 56, 88
4, 31080, Note_on_c, 2, 60, 79
4, 31139, Note_on_c, 2, 60, 0
4, 31139, Note_on_c, 2, 56, 0
4, 31320, Note_on_c, 2, 60, 71
4, 31320, Note_on_c, 2, 56, 93
4, 31379, Note_on_c, 2, 56, 0
4, 31379, Note_on_c, 2, 60, 0
4, 31440, Note_on_c, 2, 72, 76
4, 31440, Note_on_c, 2, 68, 89
4, 31440, Note_on_c, 2, 63, 84
4, 31559, Note_on_c, 2, 63, 0
4, 31559, Note_on_c, 2, 68, 0
4, 31559, Note_on_c, 2, 72, 0
4, 31800, Note_on_c, 2, 60, 80
4, 31800, Note_on_c, 2, 56, 89
4, 31859, Note_on_c, 2, 56, 0
4, 31859, Note_on_c, 2, 60, 0
4, 32040, Note_on_c, 2, 56, 88
4, 32040, Note_on_c, 2, 60, 79
4, 32099, Note_on_c, 2, 60, 0
4, 32099, Note_on_c, 2, 56, 0
4, 32280, Note_on_c, 2, 60, 71
4, 32280, Note_on_c, 2, 56, 93
4, 32339, Note_on_c, 2, 56, 0
4, 32339, Note_on_c, 2, 60, 0
4, 32400, Note_on_c, 2, 72, 76
4, 32400, Note_on_c, 2, 68, 89
4, 32400, Note_on_c, 2, 63, 84
4, 32519, Note_on_c, 2, 63, 0
4, 32519, Note_on_c, 2, 68, 0
4, 32519, Note_on_c, 2, 72, 0
4, 32760, Note_on_c, 2, 60, 80
4, 32760, Note_on_c, 2, 56, 89
4, 32819, Note_on_c, 2, 56, 0
4, 32819, Note_on_c, 2, 60, 0
4, 33000, Note_on_c, 2, 56, 88
4, 33000, Note_on_c, 2, 60, 79
4, 33059, Note_on_c, 2, 60, 0
4, 33059, Note_on_c, 2, 56, 0
4, 33240, Note_on_c, 2, 60, 71
4, 33240, Note_on_c, 2, 56, 93
4, 33299, Note_on_c, 2, 56, 0
4, 33299, Note_on_c, 2, 60, 0
4, 33360, Note_on_c, 2, 72, 76
4, 33360, Note_on_c, 2, 68, 89
4, 33360, Note_on_c, 2, 63, 84
4, 33479, Note_on_c, 2, 63, 0
4, 33479, Note_on_c, 2, 68, 0
4, 33479, Note_on_c, 2, 72, 0
4, 33720, Note_on_c, 2, 60, 80
4, 33720, Note_on_c, 2, 56, 89
4, 33779, Note_on_c, 2, 56, 0
4, 33779, Note_on_c, 2, 60, 0
4, 33960, Note_on_c, 2, 56, 88
4, 33960, Note_on_c, 2, 60, 79
4, 34019, Note_on_c, 2, 60, 0
4, 34019, Note_on_c, 2, 56, 0
4, 34200, Note_on_c, 2, 60, 71
4, 34200, Note_on_c, 2, 56, 93
4, 34259, Note_on_c, 2, 56, 0
4, 34259, Note_on_c, 2, 60, 0
4, 34320, Note_on_c, 2, 72, 76
4, 34320, Note_on_c, 2, 68, 89
4, 34320, Note_on_c, 2, 63, 84
4, 34439, Note_on_c, 2, 63, 0
4, 34439, Note_on_c, 2, 68, 0
4, 34439, Note_on_c, 2, 72, 0
4, 34680, Note_on_c, 2, 60, 80
4, 34680, Note_on_c, 2, 56, 89
4, 34739, Note_on_c, 2, 56, 0
4, 34739, Note_on_c, 2, 60, 0
4, 34920, Note_on_c, 2, 56, 88
4, 34920, Note_on_c, 2, 60, 79
4, 34979, Note_on_c, 2, 60, 0
4, 34979, Note_on_c, 2, 56, 0
4, 35160, Note_on_c, 2, 60, 71
4, 35160, Note_on_c, 2, 56, 93
4, 35219, Note_on_c, 2, 56, 0
4, 35219, Note_on_c, 2, 60, 0
4, 35280, Note_on_c, 2, 72, 76
4, 35280, Note_on_c, 2, 68, 89
4, 35280, Note_on_c, 2, 63, 84
4, 35399, Note_on_c, 2, 63, 0
4, 35399, Note_on_c, 2, 68, 0
4, 35399, Note_on_c, 2, 72, 0
4, 35640, Note_on_c, 2, 60, 80
4, 35640, Note_on_c, 2, 56, 89
4, 35699, Note_on_c, 2, 56, 0
4, 35699, Note_on_c, 2, 60, 0
4, 35880, Note_on_c, 2, 56, 88
4, 35880, Note_on_c, 2, 60, 79
4, 35939, Note_on_c, 2, 60, 0
4, 35939, Note_on_c, 2, 56, 0
4, 36120, Note_on_c, 2, 60, 71
4, 36120, Note_on_c, 2, 56, 93
4, 36179, Note_on_c, 2, 56, 0
4, 36179, Note_on_c, 2, 60, 0
4, 36240, Note_on_c, 2, 72, 76
4, 36240, Note_on_c, 2, 68, 89
4, 36240, Note_on_c, 2, 63, 84
4, 36359, Note_on_c, 2, 63, 0
4, 36359, Note_on_c, 2, 68, 0
4, 36359, Note_on_c, 2, 72, 0
4, 36600, Note_on_c, 2, 60, 80
4, 36600, Note_on_c, 2, 56, 89
4, 36659, Note_on_c, 2, 56, 0
4, 36659, Note_on_c, 2, 60, 0
4, 36840, Note_on_c, 2, 56, 88
4, 36840, Note_on_c, 2, 60, 79
4, 36899, Note_on_c, 2, 60, 0
4, 36899, Note_on_c, 2, 56, 0
4, 37080, Note_on_c, 2, 60, 71
4, 37080, Note_on_c, 2, 56, 93
4, 37139, Note_on_c, 2, 56, 0
4, 37139, Note_on_c, 2, 60, 0
4, 37200, Note_on_c, 2, 72, 76
4, 37200, Note_on_c, 2, 68, 89
4, 37200, Note_on_c, 2, 63, 84
4, 37319, Note_on_c, 2, 63, 0
4, 37319, Note_on_c, 2, 68, 0
4, 37319, Note_on_c, 2, 72, 0
4, 37560, Note_on_c, 2, 60, 80
4, 37560, Note_on_c, 2, 56, 89
4, 37619, Note_on_c, 2, 56, 0
4, 37619, Note_on_c, 2, 60, 0
4, 37800, Note_on_c, 2, 56, 88
4, 37800, Note_on_c, 2, 60, 79
4, 37859, Note_on_c, 2, 60, 0
4, 37859, Note_on_c, 2, 56, 0
4, 38040, Note_on_c, 2, 60, 71
4, 38040, Note_on_c, 2, 56, 93
4, 38099, Note_on_c, 2, 56, 0
4, 38099, Note_on_c, 2, 60, 0
4, 38160, Note_on_c, 2, 72, 76
4, 38160, Note_on_c, 2, 68, 89
4, 38160, Note_on_c, 2, 63, 84
4, 38279, Note_on_c, 2, 63, 0
4, 38279, Note_on_c, 2, 68, 0
4, 38279, Note_on_c, 2, 72, 0
4, 38520, Note_on_c, 2, 60, 80
4, 38520, Note_on_c, 2, 56, 89
4, 38579, Note_on_c, 2, 56, 0
4, 38579, Note_on_c, 2, 60, 0
4, 38760, Note_on_c, 2, 56, 88
4, 38760, Note_on_c, 2, 60, 79
4, 38819, Note_on_c, 2, 60, 0
4, 38819, Note_on_c, 2, 56, 0
4, 39000, Note_on_c, 2, 60, 71
4, 39000, Note_on_c, 2, 56, 93
4, 39059, Note_on_c, 2, 56, 0
4, 39059, Note_on_c, 2, 60, 0
4, 39120, Note_on_c, 2, 72, 76
4, 39120, Note_on_c, 2, 68, 89
4, 39120, Note_on_c, 2, 63, 84
4, 39239, Note_on_c, 2, 63, 0
4, 39239, Note_on_c, 2, 68, 0
4, 39239, Note_on_c, 2, 72, 0
4, 39480, Note_on_c, 2, 60, 80
4, 39480, Note_on_c, 2, 56, 89
4, 39539, Note_on_c, 2, 56, 0
4, 39539, Note_on_c, 2, 60, 0
4, 39720, Note_on_c, 2, 56, 88
4, 39720, Note_on_c, 2, 60, 79
4, 39779, Note_on_c, 2, 60, 0
4, 39779, Note_on_c, 2, 56, 0
4, 39960, Note_on_c, 2, 60, 71
4, 39960, Note_on_c, 2, 56, 93
4, 40019, Note_on_c, 2, 56, 0
4, 40019, Note_on_c, 2, 60, 0
4, 40080, Note_on_c, 2, 72, 76
4, 40080, Note_on_c, 2, 68, 89
4, 40080, Note_on_c, 2, 63, 84
4, 40199, Note_on_c, 2, 63, 0
4, 40199, Note_on_c, 2, 68, 0
4, 40199, Note_on_c, 2, 72, 0
4, 40440, Note_on_c, 2, 60, 80
4, 40440, Note_on_c, 2, 56, 89
4, 40499, Note_on_c, 2, 56, 0
4, 40499, Note_on_c, 2, 60, 0
4, 40680, Note_on_c, 2, 56, 88
4, 40680, Note_on_c, 2, 60, 79
4, 40739, Note_on_c, 2, 60, 0
4, 40739, Note_on_c, 2, 56, 0
4, 40920, Note_on_c, 2, 60, 71
4, 40920, Note_on_c, 2, 56, 93
4, 40979, Note_on_c, 2, 56, 0
4, 40979, Note_on_c, 2, 60, 0
4, 41040, Note_on_c, 2, 72, 76
4, 41040, Note_on_c, 2, 68, 89
4, 41040, Note_on_c, 2, 63, 84
4, 41159, Note_on_c, 2, 63, 0
4, 41159, Note_on_c, 2, 68, 0
4, 41159, Note_on_c, 2, 72, 0
4, 41400, Note_on_c, 2, 60, 80
4, 41400, Note_on_c, 2, 56, 89
4, 41459, Note_on_c, 2, 56, 0
4, 41459, Note_on_c, 2, 60, 0
4, 41640, Note_on_c, 2, 56, 88
4, 41640, Note_on_c, 2, 60, 79
4, 41699, Note_on_c, 2, 60, 0
4, 41699, Note_on_c, 2, 56, 0
4, 41880, Note_on_c, 2, 60, 71
4, 41880, Note_on_c, 2, 56, 93
4, 41939, Note_on_c, 2, 56, 0
4, 41939, Note_on_c, 2, 60, 0
4, 42000, Note_on_c, 2, 72, 76
4, 42000, Note_on_c, 2, 68, 89
4, 42000, Note_on_c, 2, 63, 84
4, 42119, Note_on_c, 2, 63, 0
4, 42119, Note_on_c, 2, 68, 0
4, 42119, Note_on_c, 2, 72, 0
4, 42360, Note_on_c, 2, 60, 80
4, 42360, Note_on_c, 2, 56, 89
4, 42419, Note_on_c, 2, 56, 0
4, 42419, Note_on_c, 2, 60, 0
4, 42600, Note_on_c, 2, 56, 88
4, 42600, Note_on_c, 2, 60, 79
4, 42659, Note_on_c, 2, 60, 0
4, 42659, Note_on_c, 2, 56, 0
4, 42840, Note_on_c, 2, 60, 71
4, 42840, Note_on_c, 2, 56, 93
4, 42899, Note_on_c, 2, 56, 0
4, 42899, Note_on_c, 2, 60, 0
4, 42960, Note_on_c, 2, 72, 76
4, 42960, Note_on_c, 2, 68, 89
4, 42960, Note_on_c, 2, 63, 84
4, 43079, Note_on_c, 2, 63, 0
4, 43079, Note_on_c, 2, 68, 0
4, 43079, Note_on_c, 2, 72, 0
4, 43320, Note_on_c, 2, 60, 80
4, 43320, Note_on_c, 2, 56, 89
4, 43379, Note_on_c, 2, 56, 0
4, 43379, Note_on_c, 2, 60, 0
4, 43560, Note_on_c, 2, 56, 88
4, 43560, Note_on_c, 2, 60, 79
4, 43619, Note_on_c, 2, 60, 0
4, 43619, Note_on_c, 2, 56, 0
4, 43800, Note_on_c, 2, 60, 71
4, 43800, Note_on_c, 2, 56, 93
4, 43859, Note_on_c, 2, 56, 0
4, 43859, Note_on_c, 2, 60, 0
4, 43920, Note_on_c, 2, 72, 76
4, 43920, Note_on_c, 2, 68, 89
4, 43920, Note_on_c, 2, 63, 84
4, 44039, Note_on_c, 2, 63, 0
4, 44039, Note_on_c, 2, 68, 0
4, 44039, Note_on_c, 2, 72, 0
4, 44280, Note_on_c, 2, 60, 80
4, 44280, Note_on_c, 2, 56, 89
4, 44339, Note_on_c, 2, 56, 0
4, 44339, Note_on_c, 2, 60, 0
4, 44520, Note_on_c, 2, 56, 88
4, 44520, Note_on_c, 2, 60, 79
4, 44579, Note_on_c, 2, 60, 0
4, 44579, Note_on_c, 2, 56, 0
4, 44760, Note_on_c, 2, 60, 71
4, 44760, Note_on_c, 2, 56, 93
4, 44819, Note_on_c, 2, 56, 0
4, 44819, Note_on_c, 2, 60, 0
4, 44880, Note_on_c, 2, 72, 76
4, 44880, Note_on_c, 2, 68, 89
4, 44880, Note_on_c, 2, 63, 84
4, 44999, Note_on_c, 2, 63, 0
4, 44999, Note_on_c, 2, 68, 0
4, 44999, Note_on_c, 2, 72, 0
4, 45240, Note_on_c, 2, 60, 75
4, 45240, Note_on_c, 2, 56, 100
4, 45299, Note_on_c, 2, 56, 0
4, 45299, Note_on_c, 2, 60, 0
4, 45480, Note_on_c, 2, 60, 84
4, 45480, Note_on_c, 2, 56, 89
4, 45539, Note_on_c, 2, 56, 0
4, 45539, Note_on_c, 2, 60, 0
4, 45720, Note_on_c, 2, 60, 85
4, 45720, Note_on_c, 2, 56, 92
4, 45779, Note_on_c, 2, 56, 0
4, 45779, Note_on_c, 2, 60, 0
4, 45960, Note_on_c, 2, 65, 80
4, 45960, Note_on_c, 2, 61, 92
4, 45960, Note_on_c, 2, 56, 85
4, 46019, Note_on_c, 2, 56, 0
4, 46019, Note_on_c, 2, 61, 0
4, 46019, Note_on_c, 2, 65, 0
4, 46200, Note_on_c, 2, 60, 75
4, 46200, Note_on_c, 2, 56, 100
4, 46259, Note_on_c, 2, 56, 0
4, 46259, Note_on_c, 2, 60, 0
4, 46440, Note_on_c, 2, 60, 84
4, 46440, Note_on_c, 2, 56, 89
4, 46499, Note_on_c, 2, 56, 0
4, 46499, Note_on_c, 2, 60, 0
4, 46680, Note_on_c, 2, 60, 85
4, 46680, Note_on_c, 2, 56, 92
4, 46739, Note_on_c, 2, 56, 0
4, 46739, Note_on_c, 2, 60, 0
4, 46920, Note_on_c, 2, 65, 80
4, 46920, Note_on_c, 2, 61, 92
4, 46920, Note_on_c, 2, 56, 85
4, 46979, Note_on_c, 2, 56, 0
4, 46979, Note_on_c, 2, 61, 0
4, 46979, Note_on_c, 2, 65, 0
4, 47160, Note_on_c, 2, 60, 83
4, 47160, Note_on_c, 2, 56, 89
4, 47219, Note_on_c, 2, 56, 0
4, 47219, Note_on_c, 2, 60, 0
4, 47400, Note_on_c, 2, 60, 79
4, 47400, Note_on_c, 2, 56, 92
4, 47459, Note_on_c, 2, 56, 0
4, 47459, Note_on_c, 2, 60, 0
4, 47640, Note_on_c, 2, 56, 98
4, 47640, Note_on_c, 2, 60, 84
4, 47699, Note_on_c, 2, 60, 0
4, 47699, Note_on_c, 2, 56, 0
4, 47880, Note_on_c, 2, 65, 84
4, 47880, Note_on_c, 2, 61, 85
4, 47880, Note_on_c, 2, 56, 84
4, 47939, Note_on_c, 2, 56, 0
4, 47939, Note_on_c, 2, 61, 0
4, 47939, Note_on_c, 2, 65, 0
4, 48120, Note_on_c, 2, 60, 83
4, 48120, Note_on_c, 2, 56, 89
4, 48179, Note_on_c, 2, 56, 0
4, 48179, Note_on_c, 2, 60, 0
4, 48360, Note_on_c, 2, 60, 79
4, 48360, Note_on_c, 2, 56, 92
4, 48419, Note_on_c, 2, 56, 0
4, 48419, Note_on_c, 2, 60, 0
4, 48600, Note_on_c, 2, 56, 98
4, 48600, Note_on_c, 2, 60, 84
4, 48659, Note_on_c, 2, 60, 0
4, 48659, Note_on_c, 2, 56, 0
4, 48840, Note_on_c, 2, 65, 84
4, 48840, Note_on_c, 2, 61, 85
4, 48840, Note_on_c, 2, 56, 84
4, 48899, Note_on_c, 2, 56, 0
4, 48899, Note_on_c, 2, 61, 0
4, 48899, Note_on_c, 2, 65, 0
4, 49080, Note_on_c, 2, 60, 83
4, 49080, Note_on_c, 2, 56, 89
4, 49139, Note_on_c, 2, 56, 0
4, 49139, Note_on_c, 2, 60, 0
4, 49320, Note_on_c, 2, 60, 79
4, 49320, Note_on_c, 2, 56, 92
4, 49379, Note_on_c, 2, 56, 0
4, 49379, Note_on_c, 2, 60, 0
4, 49560, Note_on_c, 2, 56, 98
4, 49560, Note_on_c, 2, 60, 84
4, 49619, Note_on_c, 2, 60, 0
4, 49619, Note_on_c, 2, 56, 0
4, 49800, Note_on_c, 2, 65, 84
4, 49800, Note_on_c, 2, 61, 85
4, 49800, Note_on_c, 2, 56, 84
4, 49859, Note_on_c, 2, 56, 0
4, 49859, Note_on_c, 2, 61, 0
4, 49859, Note_on_c, 2, 65, 0
4, 50040, Note_on_c, 2, 60, 83
4, 50040, Note_on_c, 2, 56, 89
4, 50099, Note_on_c, 2, 56, 0
4, 50099, Note_on_c, 2, 60, 0
4, 50280, Note_on_c, 2, 60, 79
4, 50280, Note_on_c, 2, 56, 92
4, 50339, Note_on_c, 2, 56, 0
4, 50339, Note_on_c, 2, 60, 0
4, 50520, Note_on_c, 2, 56, 98
4, 50520, Note_on_c, 2, 60, 84
4, 50579, Note_on_c, 2, 60, 0
4, 50579, Note_on_c, 2, 56, 0
4, 50760, Note_on_c, 2, 65, 84
4, 50760, Note_on_c, 2, 61, 85
4, 50760, Note_on_c, 2, 56, 84
4, 50819, Note_on_c, 2, 56, 0
4, 50819, Note_on_c, 2, 61, 0
4, 50819, Note_on_c, 2, 65, 0
4, 51000, Note_on_c, 2, 60, 83
4, 51000, Note_on_c, 2, 56, 89
4, 51059, Note_on_c, 2, 56, 0
4, 51059, Note_on_c, 2, 60, 0
4, 51240, Note_on_c, 2, 60, 79
4, 51240, Note_on_c, 2, 56, 92
4, 51299, Note_on_c, 2, 56, 0
4, 51299, Note_on_c, 2, 60, 0
4, 51480, Note_on_c, 2, 60, 79
4, 51480, Note_on_c, 2, 56, 89
4, 51539, Note_on_c, 2, 56, 0
4, 51539, Note_on_c, 2, 60, 0
4, 51600, Note_on_c, 2, 72, 88
4, 51600, Note_on_c, 2, 68, 98
4, 51600, Note_on_c, 2, 63, 95
4, 51719, Note_on_c, 2, 63, 0
4, 51719, Note_on_c, 2, 68, 0
4, 51719, Note_on_c, 2, 72, 0
4, 51960, Note_on_c, 2, 60, 83
4, 51960, Note_on_c, 2, 56, 89
4, 52019, Note_on_c, 2, 56, 0
4, 52019, Note_on_c, 2, 60, 0
4, 52200, Note_on_c, 2, 60, 79
4, 52200, Note_on_c, 2, 56, 92
4, 52259, Note_on_c, 2, 56, 0
4, 52259, Note_on_c, 2, 60, 0
4, 52440, Note_on_c, 2, 60, 79
4, 52440, Note_on_c, 2, 56, 89
4, 52499, Note_on_c, 2, 56, 0
4, 52499, Note_on_c, 2, 60, 0
4, 52560, Note_on_c, 2, 72, 88
4, 52560, Note_on_c, 2, 68, 98
4, 52560, Note_on_c, 2, 63, 95
4, 52679, Note_on_c, 2, 63, 0
4, 52679, Note_on_c, 2, 68, 0
4, 52679, Note_on_c, 2, 72, 0
4, 52920, Note_on_c, 2, 60, 83
4, 52920, Note_on_c, 2, 56, 89
4, 52979, Note_on_c, 2, 56, 0
4, 52979, Note_on_c, 2, 60, 0
4, 53160, Note_on_c, 2, 60, 79
4, 53160, Note_on_c, 2, 56, 92
4, 53219, Note_on_c, 2, 56, 0
4, 53219, Note_on_c, 2, 60, 0
4, 53400, Note_on_c, 2, 60, 79
4, 53400, Note_on_c, 2, 56, 89
4, 53459, Note_on_c, 2, 56, 0
4, 53459, Note_on_c, 2, 60, 0
4, 53520, Note_on_c, 2, 72, 88
4, 53520, Note_on_c, 2, 68, 98
4, 53520, Note_on_c, 2, 63, 95
4, 53639, Note_on_c, 2, 63, 0
4, 53639, Note_on_c, 2, 68, 0
4, 53639, Note_on_c, 2, 72, 0
4, 53880, Note_on_c, 2, 60, 83
4, 53880, Note_on_c, 2, 56, 89
4, 53939, Note_on_c, 2, 56, 0
4, 53939, Note_on_c, 2, 60, 0
4, 54120, Note_on_c, 2, 60, 79
4, 54120, Note_on_c, 2, 56, 92
4, 54179, Note_on_c, 2, 56, 0
4, 54179, Note_on_c, 2, 60, 0
4, 54360, Note_on_c, 2, 60, 79
4, 54360, Note_on_c, 2, 56, 89
4, 54419, Note_on_c, 2, 56, 0
4, 54419, Note_on_c, 2, 60, 0
4, 54480, Note_on_c, 2, 72, 88
4, 54480, Note_on_c, 2, 68, 98
4, 54480, Note_on_c, 2, 63, 95
4, 54599, Note_on_c, 2, 63, 0
4, 54599, Note_on_c, 2, 68, 0
4, 54599, Note_on_c, 2, 72, 0
4, 54840, Note_on_c, 2, 60, 83
4, 54840, Note_on_c, 2, 56, 89
4, 54899, Note_on_c, 2, 56, 0
4, 54899, Note_on_c, 2, 60, 0
4, 55080, Note_on_c, 2, 60, 79
4, 55080, Note_on_c, 2, 56, 92
4, 55139, Note_on_c, 2, 56, 0
4, 55139, Note_on_c, 2, 60, 0
4, 55320, Note_on_c, 2, 56, 98
4, 55320, Note_on_c, 2, 60, 84
4, 55379, Note_on_c, 2, 60, 0
4, 55379, Note_on_c, 2, 56, 0
4, 55560, Note_on_c, 2, 65, 84
4, 55560, Note_on_c, 2, 61, 85
4, 55560, Note_on_c, 2, 56, 84
4, 55619, Note_on_c, 2, 56, 0
4, 55619, Note_on_c, 2, 61, 0
4, 55619, Note_on_c, 2, 65, 0
4, 55800, Note_on_c, 2, 60, 83
4, 55800, Note_on_c, 2, 56, 89
4, 55859, Note_on_c, 2, 56, 0
4, 55859, Note_on_c, 2, 60, 0
4, 56040, Note_on_c, 2, 60, 79
4, 56040, Note_on_c, 2, 56, 92
4, 56099, Note_on_c, 2, 56, 0
4, 56099, Note_on_c, 2, 60, 0
4, 56280, Note_on_c, 2, 56, 98
4, 56280, Note_on_c, 2, 60, 84
4, 56339, Note_on_c, 2, 60, 0
4, 56339, Note_on_c, 2, 56, 0
4, 56520, Note_on_c, 2, 65, 84
4, 56520, Note_on_c, 2, 61, 85
4, 56520, Note_on_c, 2, 56, 84
4, 56579, Note_on_c, 2, 56, 0
4, 56579, Note_on_c, 2, 61, 0
4, 56579, Note_on_c, 2, 65, 0
4, 56760, Note_on_c, 2, 60, 83
4, 56760, Note_on_c, 2, 56, 89
4, 56819, Note_on_c, 2, 56, 0
4, 56819, Note_on_c, 2, 60, 0
4, 57000, Note_on_c, 2, 60, 79
4, 57000, Note_on_c, 2, 56, 92
4, 57059, Note_on_c, 2, 56, 0
4, 57059, Note_on_c, 2, 60, 0
4, 57240, Note_on_c, 2, 60, 79
4, 57240, Note_on_c, 2, 56, 89
4, 57299, Note_on_c, 2, 56, 0
4, 57299, Note_on_c, 2, 60, 0
4, 57360, Note_on_c, 2, 72, 88
4, 57360, Note_on_c, 2, 68, 98
4, 57360, Note_on_c, 2, 63, 95
4, 57479, Note_on_c, 2, 63, 0
4, 57479, Note_on_c, 2, 68, 0
4, 57479, Note_on_c, 2, 72, 0
4, 57720, Note_on_c, 2, 60, 83
4, 57720, Note_on_c, 2, 56, 89
4, 57779, Note_on_c, 2, 56, 0
4, 57779, Note_on_c, 2, 60, 0
4, 57960, Note_on_c, 2, 60, 79
4, 57960, Note_on_c, 2, 56, 92
4, 58019, Note_on_c, 2, 56, 0
4, 58019, Note_on_c, 2, 60, 0
4, 58200, Note_on_c, 2, 60, 79
4, 58200, Note_on_c, 2, 56, 89
4, 58259, Note_on_c, 2, 56, 0
4, 58259, Note_on_c, 2, 60, 0
4, 58320, Note_on_c, 2, 72, 88
4, 58320, Note_on_c, 2, 68, 98
4, 58320, Note_on_c, 2, 63, 95
4, 58439, Note_on_c, 2, 63, 0
4, 58439, Note_on_c, 2, 68, 0
4, 58439, Note_on_c, 2, 72, 0
4, 58680, Note_on_c, 2, 60, 83
4, 58680, Note_on_c, 2, 56, 89
4, 58739, Note_on_c, 2, 56, 0
4, 58739, Note_on_c, 2, 60, 0
4, 58920, Note_on_c, 2, 60, 79
4, 58920, Note_on_c, 2, 56, 92
4, 58979, Note_on_c, 2, 56, 0
4, 58979, Note_on_c, 2, 60, 0
4, 59160, Note_on_c, 2, 60, 79
4, 59160, Note_on_c, 2, 56, 89
4, 59219, Note_on_c, 2, 56, 0
4, 59219, Note_on_c, 2, 60, 0
4, 59280, Note_on_c, 2, 72, 88
4, 59280, Note_on_c, 2, 68, 98
4, 59280, Note_on_c, 2, 63, 95
4, 59399, Note_on_c, 2, 63, 0
4, 59399, Note_on_c, 2, 68, 0
4, 59399, Note_on_c, 2, 72, 0
4, 59640, Note_on_c, 2, 60, 83
4, 59640, Note_on_c, 2, 56, 89
4, 59699, Note_on_c, 2, 56, 0
4, 59699, Note_on_c, 2, 60, 0
4, 59880, Note_on_c, 2, 60, 79
4, 59880, Note_on_c, 2, 56, 92
4, 59939, Note_on_c, 2, 56, 0
4, 59939, Note_on_c, 2, 60, 0
4, 60120, Note_on_c, 2, 60, 79
4, 60120, Note_on_c, 2, 56, 89
4, 60179, Note_on_c, 2, 56, 0
4, 60179, Note_on_c, 2, 60, 0
4, 60240, Note_on_c, 2, 72, 88
4, 60240, Note_on_c, 2, 68, 98
4, 60240, Note_on_c, 2, 63, 95
4, 60359, Note_on_c, 2, 63, 0
4, 60359, Note_on_c, 2, 68, 0
4, 60359, Note_on_c, 2, 72, 0
4, 60600, Note_on_c, 2, 60, 83
4, 60600, Note_on_c, 2, 56, 89
4, 60659, Note_on_c, 2, 56, 0
4, 60659, Note_on_c, 2, 60, 0
4, 60840, Note_on_c, 2, 60, 79
4, 60840, Note_on_c, 2, 56, 92
4, 60899, Note_on_c, 2, 56, 0
4, 60899, Note_on_c, 2, 60, 0
4, 61080, Note_on_c, 2, 60, 79
4, 61080, Note_on_c, 2, 56, 89
4, 61139, Note_on_c, 2, 56, 0
4, 61139, Note_on_c, 2, 60, 0
4, 61200, Note_on_c, 2, 72, 88
4, 61200, Note_on_c, 2, 68, 98
4, 61200, Note_on_c, 2, 63, 95
4, 61319, Note_on_c, 2, 63, 0
4, 61319, Note_on_c, 2, 68, 0
4, 61319, Note_on_c, 2, 72, 0
4, 61560, Note_on_c, 2, 60, 83
4, 61560, Note_on_c, 2, 56, 89
4, 61619, Note_on_c, 2, 56, 0
4, 61619, Note_on_c, 2, 60, 0
4, 61800, Note_on_c, 2, 60, 79
4, 61800, Note_on_c, 2, 56, 92
4, 61859, Note_on_c, 2, 56, 0
4, 61859, Note_on_c, 2, 60, 0
4, 62040, Note_on_c, 2, 60, 79
4, 62040, Note_on_c, 2, 56, 89
4, 62099, Note_on_c, 2, 56, 0
4, 62099, Note_on_c, 2, 60, 0
4, 62160, Note_on_c, 2, 72, 88
4, 62160, Note_on_c, 2, 68, 98
4, 62160, Note_on_c, 2, 63, 95
4, 62279, Note_on_c, 2, 63, 0
4, 62279, Note_on_c, 2, 68, 0
4, 62279, Note_on_c, 2, 72, 0
4, 62520, Note_on_c, 2, 60, 83
4, 62520, Note_on_c, 2, 56, 89
4, 62579, Note_on_c, 2, 56, 0
4, 62579, Note_on_c, 2, 60, 0
4, 62760, Note_on_c, 2, 60, 79
4, 62760, Note_on_c, 2, 56, 92
4, 62819, Note_on_c, 2, 56, 0
4, 62819, Note_on_c, 2, 60, 0
4, 63000, Note_on_c, 2, 60, 79
4, 63000, Note_on_c, 2, 56, 89
4, 63059, Note_on_c, 2, 56, 0
4, 63059, Note_on_c, 2, 60, 0
4, 63120, Note_on_c, 2, 72, 88
4, 63120, Note_on_c, 2, 68, 98
4, 63120, Note_on_c, 2, 63, 95
4, 63239, Note_on_c, 2, 63, 0
4, 63239, Note_on_c, 2, 68, 0
4, 63239, Note_on_c, 2, 72, 0
4, 63480, Note_on_c, 2, 60, 83
4, 63480, Note_on_c, 2, 56, 89
4, 63539, Note_on_c, 2, 56, 0
4, 63539, Note_on_c, 2, 60, 0
4, 63720, Note_on_c, 2, 60, 79
4, 63720, Note_on_c, 2, 56, 92
4, 63779, Note_on_c, 2, 56, 0
4, 63779, Note_on_c, 2, 60, 0
4, 63960, Note_on_c, 2, 60, 79
4, 63960, Note_on_c, 2, 56, 89
4, 64019, Note_on_c, 2, 56, 0
4, 64019, Note_on_c, 2, 60, 0
4, 64080, Note_on_c, 2, 72, 88
4, 64080, Note_on_c, 2, 68, 98
4, 64080, Note_on_c, 2, 63, 95
4, 64199, Note_on_c, 2, 63, 0
4, 64199, Note_on_c, 2, 68, 0
4, 64199, Note_on_c, 2, 72, 0
4, 64440, Note_on_c, 2, 60, 83
4, 64440, Note_on_c, 2, 56, 89
4, 64499, Note_on_c, 2, 56, 0
4, 64499, Note_on_c, 2, 60, 0
4, 64680, Note_on_c, 2, 60, 79
4, 64680, Note_on_c, 2, 56, 92
4, 64739, Note_on_c, 2, 56, 0
4, 64739, Note_on_c, 2, 60, 0
4, 64920, Note_on_c, 2, 60, 79
4, 64920, Note_on_c, 2, 56, 89
4, 64979, Note_on_c, 2, 56, 0
4, 64979, Note_on_c, 2, 60, 0
4, 65040, Note_on_c, 2, 72, 88
4, 65040, Note_on_c, 2, 68, 98
4, 65040, Note_on_c, 2, 63, 95
4, 65159, Note_on_c, 2, 63, 0
4, 65159, Note_on_c, 2, 68, 0
4, 65159, Note_on_c, 2, 72, 0
4, 65400, Note_on_c, 2, 60, 83
4, 65400, Note_on_c, 2, 56, 89
4, 65459, Note_on_c, 2, 56, 0
4, 65459, Note_on_c, 2, 60, 0
4, 65640, Note_on_c, 2, 60, 79
4, 65640, Note_on_c, 2, 56, 92
4, 65699, Note_on_c, 2, 56, 0
4, 65699, Note_on_c, 2, 60, 0
4, 65880, Note_on_c, 2, 60, 79
4, 65880, Note_on_c, 2, 56, 89
4, 65939, Note_on_c, 2, 56, 0
4, 65939, Note_on_c, 2, 60, 0
4, 66000, Note_on_c, 2, 72, 88
4, 66000, Note_on_c, 2, 68, 98
4, 66000, Note_on_c, 2, 63, 95
4, 66119, Note_on_c, 2, 63, 0
4, 66119, Note_on_c, 2, 68, 0
4, 66119, Note_on_c, 2, 72, 0
4, 66360, Note_on_c, 2, 60, 83
4, 66360, Note_on_c, 2, 56, 89
4, 66419, Note_on_c, 2, 56, 0
4, 66419, Note_on_c, 2, 60, 0
4, 66600, Note_on_c, 2, 60, 79
4, 66600, Note_on_c, 2, 56, 92
4, 66659, Note_on_c, 2, 56, 0
4, 66659, Note_on_c, 2, 60, 0
4, 66840, Note_on_c, 2, 60, 79
4, 66840, Note_on_c, 2, 56, 89
4, 66899, Note_on_c, 2, 56, 0
4, 66899, Note_on_c, 2, 60, 0
4, 66960, Note_on_c, 2, 72, 88
4, 66960, Note_on_c, 2, 68, 98
4, 66960, Note_on_c, 2, 63, 95
4, 67079, Note_on_c, 2, 63, 0
4, 67079, Note_on_c, 2, 68, 0
4, 67079, Note_on_c, 2, 72, 0
4, 67320, Note_on_c, 2, 60, 83
4, 67320, Note_on_c, 2, 56, 89
4, 67379, Note_on_c, 2, 56, 0
4, 67379, Note_on_c, 2, 60, 0
4, 67560, Note_on_c, 2, 60, 79
4, 67560, Note_on_c, 2, 56, 92
4, 67619, Note_on_c, 2, 56, 0
4, 67619, Note_on_c, 2, 60, 0
4, 67800, Note_on_c, 2, 60, 79
4, 67800, Note_on_c, 2, 56, 89
4, 67859, Note_on_c, 2, 56, 0
4, 67859, Note_on_c, 2, 60, 0
4, 67920, Note_on_c, 2, 72, 88
4, 67920, Note_on_c, 2, 68, 98
4, 67920, Note_on_c, 2, 63, 95
4, 68039, Note_on_c, 2, 63, 0
4, 68039, Note_on_c, 2, 68, 0
4, 68039, Note_on_c, 2, 72, 0
4, 68280, Note_on_c, 2, 60, 83
4, 68280, Note_on_c, 2, 56, 89
4, 68339, Note_on_c, 2, 56, 0
4, 68339, Note_on_c, 2, 60, 0
4, 68520, Note_on_c, 2, 60, 79
4, 68520, Note_on_c, 2, 56, 92
4, 68579, Note_on_c, 2, 56, 0
4, 68579, Note_on_c, 2, 60, 0
4, 68760, Note_on_c, 2, 60, 79
4, 68760, Note_on_c, 2, 56, 89
4, 68819, Note_on_c, 2, 56, 0
4, 68819, Note_on_c, 2, 60, 0
4, 68880, Note_on_c, 2, 72, 88
4, 68880, Note_on_c, 2, 68, 98
4, 68880, Note_on_c, 2, 63, 95
4, 68999, Note_on_c, 2, 63, 0
4, 68999, Note_on_c, 2, 68, 0
4, 68999, Note_on_c, 2, 72, 0
4, 69240, Note_on_c, 2, 60, 83
4, 69240, Note_on_c, 2, 56, 89
4, 69299, Note_on_c, 2, 56, 0
4, 69299, Note_on_c, 2, 60, 0
4, 69480, Note_on_c, 2, 60, 79
4, 69480, Note_on_c, 2, 56, 92
4, 69539, Note_on_c, 2, 56, 0
4, 69539, Note_on_c, 2, 60, 0
4, 69720, Note_on_c, 2, 60, 79
4, 69720, Note_on_c, 2, 56, 89
4, 69779, Note_on_c, 2, 56, 0
4, 69779, Note_on_c, 2, 60, 0
4, 69840, Note_on_c, 2, 72, 88
4, 69840, Note_on_c, 2, 68, 98
4, 69840, Note_on_c, 2, 63, 95
4, 69959, Note_on_c, 2, 63, 0
4, 69959, Note_on_c, 2, 68, 0
4, 69959, Note_on_c, 2, 72, 0
4, 70200, Note_on_c, 2, 60, 83
4, 70200, Note_on_c, 2, 56, 89
4, 70259, Note_on_c, 2, 56, 0
4, 70259, Note_on_c, 2, 60, 0
4, 70440, Note_on_c, 2, 60, 79
4, 70440, Note_on_c, 2, 56, 92
4, 70499, Note_on_c, 2, 56, 0
4, 70499, Note_on_c, 2, 60, 0
4, 70680, Note_on_c, 2, 60, 79
4, 70680, Note_on_c, 2, 56, 89
4, 70739, Note_on_c, 2, 56, 0
4, 70739, Note_on_c, 2, 60, 0
4, 70800, Note_on_c, 2, 72, 88
4, 70800, Note_on_c, 2, 68, 98
4, 70800, Note_on_c, 2, 63, 95
4, 70919, Note_on_c, 2, 63, 0
4, 70919, Note_on_c, 2, 68, 0
4, 70919, Note_on_c, 2, 72, 0
4, 71160, Note_on_c, 2, 60, 83
4, 71160, Note_on_c, 2, 56, 89
4, 71219, Note_on_c, 2, 56, 0
4, 71219, Note_on_c, 2, 60, 0
4, 71400, Note_on_c, 2, 60, 79
4, 71400, Note_on_c, 2, 56, 92
4, 71459, Note_on_c, 2, 56, 0
4, 71459, Note_on_c, 2, 60, 0
4, 71520, Note_on_c, 2, 56, 100
4, 71599, Note_on_c, 2, 56, 0
4, 71600, Note_on_c, 2, 56, 98
4, 71639, Note_on_c, 2, 56, 0
4, 71640, Note_on_c, 2, 54, 98
4, 71719, Note_on_c, 2, 54, 0
4, 71720, Note_on_c, 2, 54, 98
4, 71759, Note_on_c, 2, 54, 0
4, 71760, Note_on_c, 2, 51, 93
4, 71839, Note_on_c, 2, 51, 0
4, 71840, Note_on_c, 2, 51, 93
4, 71879, Note_on_c, 2, 51, 0
4, 71880, Note_on_c, 2, 53, 101
4, 71959, Note_on_c, 2, 53, 0
4, 71960, Note_on_c, 2, 55, 98
4, 71999, Note_on_c, 2, 55, 0
4, 72000, Note_on_c, 2, 60, 84
4, 72000, Note_on_c, 2, 56, 80
4, 72000, Note_on_c, 2, 51, 89
4, 72119, Note_on_c, 2, 51, 0
4, 72119, Note_on_c, 2, 56, 0
4, 72119, Note_on_c, 2, 60, 0
4, 72119, End_track
5, 0, Start_track
5, 0, Title_t, "Mute Guitar"
5, 5, Control_c, 4, 121, 0
5, 5, Program_c, 4, 28
5, 5, Control_c, 4, 7, 100
5, 5, Control_c, 4, 91, 89
5, 5, Control_c, 4, 93, 78
5, 5, Control_c, 4, 10, 54
5, 5, Control_c, 4, 1, 0
5, 5, Control_c, 4, 64, 0
5, 5, Pitch_bend_c, 4, 8192
5, 1440, Note_on_c, 4, 58, 89
5, 1519, Note_on_c, 4, 58, 0
5, 1520, Note_on_c, 4, 58, 88
5, 1559, Note_on_c, 4, 58, 0
5, 1680, Note_on_c, 4, 58, 88
5, 1759, Note_on_c, 4, 58, 0
5, 1760, Note_on_c, 4, 58, 98
5, 1799, Note_on_c, 4, 58, 0
5, 2400, Note_on_c, 4, 60, 67
5, 2400, Note_on_c, 4, 56, 80
5, 2479, Note_on_c, 4, 56, 0
5, 2479, Note_on_c, 4, 60, 0
5, 2480, Note_on_c, 4, 60, 68
5, 2480, Note_on_c, 4, 56, 92
5, 2519, Note_on_c, 4, 56, 0
5, 2519, Note_on_c, 4, 60, 0
5, 2640, Note_on_c, 4, 60, 79
5, 2640, Note_on_c, 4, 56, 88
5, 2719, Note_on_c, 4, 56, 0
5, 2719, Note_on_c, 4, 60, 0
5, 2720, Note_on_c, 4, 56, 89
5, 2720, Note_on_c, 4, 60, 75
5, 2759, Note_on_c, 4, 60, 0
5, 2759, Note_on_c, 4, 56, 0
5, 2880, Note_on_c, 4, 60, 67
5, 2880, Note_on_c, 4, 56, 80
5, 2959, Note_on_c, 4, 56, 0
5, 2959, Note_on_c, 4, 60, 0
5, 2960, Note_on_c, 4, 60, 68
5, 2960, Note_on_c, 4, 56, 92
5, 2999, Note_on_c, 4, 56, 0
5, 2999, Note_on_c, 4, 60, 0
5, 3120, Note_on_c, 4, 60, 79
5, 3120, Note_on_c, 4, 56, 88
5, 3199, Note_on_c, 4, 56, 0
5, 3199, Note_on_c, 4, 60, 0
5, 3200, Note_on_c, 4, 56, 89
5, 3200, Note_on_c, 4, 60, 75
5, 3239, Note_on_c, 4, 60, 0
5, 3239, Note_on_c, 4, 56, 0
5, 3360, Note_on_c, 4, 60, 72
5, 3360, Note_on_c, 4, 56, 88
5, 3439, Note_on_c, 4, 56, 0
5, 3439, Note_on_c, 4, 60, 0
5, 3440, Note_on_c, 4, 60, 71
5, 3440, Note_on_c, 4, 56, 93
5, 3479, Note_on_c, 4, 56, 0
5, 3479, Note_on_c, 4, 60, 0
5, 3560, Note_on_c, 4, 60, 75
5, 3560, Note_on_c, 4, 56, 93
5, 3599, Note_on_c, 4, 56, 0
5, 3599, Note_on_c, 4, 60, 0
5, 3720, Note_on_c, 4, 72, 57
5, 3720, Note_on_c, 4, 63, 79
5, 3720, Note_on_c, 4, 68, 79
5, 3799, Note_on_c, 4, 68, 0
5, 3799, Note_on_c, 4, 63, 0
5, 3799, Note_on_c, 4, 72, 0
5, 3800, Note_on_c, 4, 72, 58
5, 3800, Note_on_c, 4, 68, 79
5, 3800, Note_on_c, 4, 63, 74
5, 3839, Note_on_c, 4, 63, 0
5, 3839, Note_on_c, 4, 68, 0
5, 3839, Note_on_c, 4, 72, 0
5, 3840, Note_on_c, 4, 60, 67
5, 3840, Note_on_c, 4, 56, 80
5, 3919, Note_on_c, 4, 56, 0
5, 3919, Note_on_c, 4, 60, 0
5, 3920, Note_on_c, 4, 60, 68
5, 3920, Note_on_c, 4, 56, 92
5, 3959, Note_on_c, 4, 56, 0
5, 3959, Note_on_c, 4, 60, 0
5, 4080, Note_on_c, 4, 60, 79
5, 4080, Note_on_c, 4, 56, 88
5, 4159, Note_on_c, 4, 56, 0
5, 4159, Note_on_c, 4, 60, 0
5, 4160, Note_on_c, 4, 56, 89
5, 4160, Note_on_c, 4, 60, 75
5, 4199, Note_on_c, 4, 60, 0
5, 4199, Note_on_c, 4, 56, 0
5, 4320, Note_on_c, 4, 60, 72
5, 4320, Note_on_c, 4, 56, 88
5, 4399, Note_on_c, 4, 56, 0
5, 4399, Note_on_c, 4, 60, 0
5, 4400, Note_on_c, 4, 60, 71
5, 4400, Note_on_c, 4, 56, 93
5, 4439, Note_on_c, 4, 56, 0
5, 4439, Note_on_c, 4, 60, 0
5, 4520, Note_on_c, 4, 60, 75
5, 4520, Note_on_c, 4, 56, 93
5, 4559, Note_on_c, 4, 56, 0
5, 4559, Note_on_c, 4, 60, 0
5, 4680, Note_on_c, 4, 72, 57
5, 4680, Note_on_c, 4, 63, 79
5, 4680, Note_on_c, 4, 68, 79
5, 4759, Note_on_c, 4, 68, 0
5, 4759, Note_on_c, 4, 63, 0
5, 4759, Note_on_c, 4, 72, 0
5, 4760, Note_on_c, 4, 72, 58
5, 4760, Note_on_c, 4, 68, 79
5, 4760, Note_on_c, 4, 63, 74
5, 4799, Note_on_c, 4, 63, 0
5, 4799, Note_on_c, 4, 68, 0
5, 4799, Note_on_c, 4, 72, 0
5, 4800, Note_on_c, 4, 60, 67
5, 4800, Note_on_c, 4, 56, 80
5, 4879, Note_on_c, 4, 56, 0
5, 4879, Note_on_c, 4, 60, 0
5, 4880, Note_on_c, 4, 60, 68
5, 4880, Note_on_c, 4, 56, 92
5, 4919, Note_on_c, 4, 56, 0
5, 4919, Note_on_c, 4, 60, 0
5, 5040, Note_on_c, 4, 60, 79
5, 5040, Note_on_c, 4, 56, 88
5, 5119, Note_on_c, 4, 56, 0
5, 5119, Note_on_c, 4, 60, 0
5, 5120, Note_on_c, 4, 56, 89
5, 5120, Note_on_c, 4, 60, 75
5, 5159, Note_on_c, 4, 60, 0
5, 5159, Note_on_c, 4, 56, 0
5, 5280, Note_on_c, 4, 60, 72
5, 5280, Note_on_c, 4, 56, 88
5, 5359, Note_on_c, 4, 56, 0
5, 5359, Note_on_c, 4, 60, 0
5, 5360, Note_on_c, 4, 60, 71
5, 5360, Note_on_c, 4, 56, 93
5, 5399, Note_on_c, 4, 56, 0
5, 5399, Note_on_c, 4, 60, 0
5, 5480, Note_on_c, 4, 60, 75
5, 5480, Note_on_c, 4, 56, 93
5, 5519, Note_on_c, 4, 56, 0
5, 5519, Note_on_c, 4, 60, 0
5, 5640, Note_on_c, 4, 72, 57
5, 5640, Note_on_c, 4, 63, 79
5, 5640, Note_on_c, 4, 68, 79
5, 5719, Note_on_c, 4, 68, 0
5, 5719, Note_on_c, 4, 63, 0
5, 5719, Note_on_c, 4, 72, 0
5, 5720, Note_on_c, 4, 72, 58
5, 5720, Note_on_c, 4, 68, 79
5, 5720, Note_on_c, 4, 63, 74
5, 5759, Note_on_c, 4, 63, 0
5, 5759, Note_on_c, 4, 68, 0
5, 5759, Note_on_c, 4, 72, 0
5, 5760, Note_on_c, 4, 56, 89
5, 5760, Note_on_c, 4, 60, 78
5, 5839, Note_on_c, 4, 60, 0
5, 5839, Note_on_c, 4, 56, 0
5, 5840, Note_on_c, 4, 60, 79
5, 5840, Note_on_c, 4, 56, 89
5, 5879, Note_on_c, 4, 56, 0
5, 5879, Note_on_c, 4, 60, 0
5, 6000, Note_on_c, 4, 60, 65
5, 6000, Note_on_c, 4, 56, 80
5, 6079, Note_on_c, 4, 56, 0
5, 6079, Note_on_c, 4, 60, 0
5, 6080, Note_on_c, 4, 60, 74
5, 6080, Note_on_c, 4, 56, 89
5, 6119, Note_on_c, 4, 56, 0
5, 6119, Note_on_c, 4, 60, 0
5, 6240, Note_on_c, 4, 56, 89
5, 6240, Note_on_c, 4, 60, 78
5, 6319, Note_on_c, 4, 60, 0
5, 6319, Note_on_c, 4, 56, 0
5, 6320, Note_on_c, 4, 60, 79
5, 6320, Note_on_c, 4, 56, 89
5, 6359, Note_on_c, 4, 56, 0
5, 6359, Note_on_c, 4, 60, 0
5, 6480, Note_on_c, 4, 60, 65
5, 6480, Note_on_c, 4, 56, 80
5, 6559, Note_on_c, 4, 56, 0
5, 6559, Note_on_c, 4, 60, 0
5, 6560, Note_on_c, 4, 60, 74
5, 6560, Note_on_c, 4, 56, 89
5, 6599, Note_on_c, 4, 56, 0
5, 6599, Note_on_c, 4, 60, 0
5, 6720, Note_on_c, 4, 56, 89
5, 6720, Note_on_c, 4, 60, 78
5, 6799, Note_on_c, 4, 60, 0
5, 6799, Note_on_c, 4, 56, 0
5, 6800, Note_on_c, 4, 60, 79
5, 6800, Note_on_c, 4, 56, 89
5, 6839, Note_on_c, 4, 56, 0
5, 6839, Note_on_c, 4, 60, 0
5, 6960, Note_on_c, 4, 60, 65
5, 6960, Note_on_c, 4, 56, 80
5, 7039, Note_on_c, 4, 56, 0
5, 7039, Note_on_c, 4, 60, 0
5, 7040, Note_on_c, 4, 60, 74
5, 7040, Note_on_c, 4, 56, 89
5, 7079, Note_on_c, 4, 56, 0
5, 7079, Note_on_c, 4, 60, 0
5, 7200, Note_on_c, 4, 56, 89
5, 7200, Note_on_c, 4, 60, 78
5, 7279, Note_on_c, 4, 60, 0
5, 7279, Note_on_c, 4, 56, 0
5, 7280, Note_on_c, 4, 60, 79
5, 7280, Note_on_c, 4, 56, 89
5, 7319, Note_on_c, 4, 56, 0
5, 7319, Note_on_c, 4, 60, 0
5, 7440, Note_on_c, 4, 60, 65
5, 7440, Note_on_c, 4, 56, 80
5, 7519, Note_on_c, 4, 56, 0
5, 7519, Note_on_c, 4, 60, 0
5, 7520, Note_on_c, 4, 60, 74
5, 7520, Note_on_c, 4, 56, 89
5, 7559, Note_on_c, 4, 56, 0
5, 7559, Note_on_c, 4, 60, 0
5, 7680, Note_on_c, 4, 56, 89
5, 7680, Note_on_c, 4, 60, 78
5, 7759, Note_on_c, 4, 60, 0
5, 7759, Note_on_c, 4, 56, 0
5, 7760, Note_on_c, 4, 60, 79
5, 7760, Note_on_c, 4, 56, 89
5, 7799, Note_on_c, 4, 56, 0
5, 7799, Note_on_c, 4, 60, 0
5, 7920, Note_on_c, 4, 60, 65
5, 7920, Note_on_c, 4, 56, 80
5, 7999, Note_on_c, 4, 56, 0
5, 7999, Note_on_c, 4, 60, 0
5, 8000, Note_on_c, 4, 60, 74
5, 8000, Note_on_c, 4, 56, 89
5, 8039, Note_on_c, 4, 56, 0
5, 8039, Note_on_c, 4, 60, 0
5, 8160, Note_on_c, 4, 56, 89
5, 8160, Note_on_c, 4, 60, 78
5, 8239, Note_on_c, 4, 60, 0
5, 8239, Note_on_c, 4, 56, 0
5, 8240, Note_on_c, 4, 60, 79
5, 8240, Note_on_c, 4, 56, 89
5, 8279, Note_on_c, 4, 56, 0
5, 8279, Note_on_c, 4, 60, 0
5, 8400, Note_on_c, 4, 60, 65
5, 8400, Note_on_c, 4, 56, 80
5, 8479, Note_on_c, 4, 56, 0
5, 8479, Note_on_c, 4, 60, 0
5, 8480, Note_on_c, 4, 60, 74
5, 8480, Note_on_c, 4, 56, 89
5, 8519, Note_on_c, 4, 56, 0
5, 8519, Note_on_c, 4, 60, 0
5, 8640, Note_on_c, 4, 56, 89
5, 8640, Note_on_c, 4, 60, 78
5, 8719, Note_on_c, 4, 60, 0
5, 8719, Note_on_c, 4, 56, 0
5, 8720, Note_on_c, 4, 60, 79
5, 8720, Note_on_c, 4, 56, 89
5, 8759, Note_on_c, 4, 56, 0
5, 8759, Note_on_c, 4, 60, 0
5, 8880, Note_on_c, 4, 60, 65
5, 8880, Note_on_c, 4, 56, 80
5, 8959, Note_on_c, 4, 56, 0
5, 8959, Note_on_c, 4, 60, 0
5, 8960, Note_on_c, 4, 60, 74
5, 8960, Note_on_c, 4, 56, 89
5, 8999, Note_on_c, 4, 56, 0
5, 8999, Note_on_c, 4, 60, 0
5, 9120, Note_on_c, 4, 56, 89
5, 9120, Note_on_c, 4, 60, 78
5, 9199, Note_on_c, 4, 60, 0
5, 9199, Note_on_c, 4, 56, 0
5, 9200, Note_on_c, 4, 60, 79
5, 9200, Note_on_c, 4, 56, 89
5, 9239, Note_on_c, 4, 56, 0
5, 9239, Note_on_c, 4, 60, 0
5, 9360, Note_on_c, 4, 60, 65
5, 9360, Note_on_c, 4, 56, 80
5, 9439, Note_on_c, 4, 56, 0
5, 9439, Note_on_c, 4, 60, 0
5, 9440, Note_on_c, 4, 60, 74
5, 9440, Note_on_c, 4, 56, 89
5, 9479, Note_on_c, 4, 56, 0
5, 9479, Note_on_c, 4, 60, 0
5, 9600, Note_on_c, 4, 56, 89
5, 9600, Note_on_c, 4, 60, 78
5, 9679, Note_on_c, 4, 60, 0
5, 9679, Note_on_c, 4, 56, 0
5, 9680, Note_on_c, 4, 60, 79
5, 9680, Note_on_c, 4, 56, 89
5, 9719, Note_on_c, 4, 56, 0
5, 9719, Note_on_c, 4, 60, 0
5, 9840, Note_on_c, 4, 60, 65
5, 9840, Note_on_c, 4, 56, 80
5, 9919, Note_on_c, 4, 56, 0
5, 9919, Note_on_c, 4, 60, 0
5, 9920, Note_on_c, 4, 60, 74
5, 9920, Note_on_c, 4, 56, 89
5, 9959, Note_on_c, 4, 56, 0
5, 9959, Note_on_c, 4, 60, 0
5, 10080, Note_on_c, 4, 60, 75
5, 10080, Note_on_c, 4, 56, 92
5, 10159, Note_on_c, 4, 56, 0
5, 10159, Note_on_c, 4, 60, 0
5, 10160, Note_on_c, 4, 60, 75
5, 10160, Note_on_c, 4, 56, 100
5, 10199, Note_on_c, 4, 56, 0
5, 10199, Note_on_c, 4, 60, 0
5, 10320, Note_on_c, 4, 60, 71
5, 10320, Note_on_c, 4, 56, 85
5, 10399, Note_on_c, 4, 56, 0
5, 10399, Note_on_c, 4, 60, 0
5, 10400, Note_on_c, 4, 60, 71
5, 10400, Note_on_c, 4, 56, 98
5, 10439, Note_on_c, 4, 56, 0
5, 10439, Note_on_c, 4, 60, 0
5, 10560, Note_on_c, 4, 56, 89
5, 10560, Note_on_c, 4, 60, 78
5, 10639, Note_on_c, 4, 60, 0
5, 10639, Note_on_c, 4, 56, 0
5, 10640, Note_on_c, 4, 60, 79
5, 10640, Note_on_c, 4, 56, 89
5, 10679, Note_on_c, 4, 56, 0
5, 10679, Note_on_c, 4, 60, 0
5, 10800, Note_on_c, 4, 60, 65
5, 10800, Note_on_c, 4, 56, 80
5, 10879, Note_on_c, 4, 56, 0
5, 10879, Note_on_c, 4, 60, 0
5, 10880, Note_on_c, 4, 60, 74
5, 10880, Note_on_c, 4, 56, 89
5, 10919, Note_on_c, 4, 56, 0
5, 10919, Note_on_c, 4, 60, 0
5, 11040, Note_on_c, 4, 60, 75
5, 11040, Note_on_c, 4, 56, 92
5, 11119, Note_on_c, 4, 56, 0
5, 11119, Note_on_c, 4, 60, 0
5, 11120, Note_on_c, 4, 60, 75
5, 11120, Note_on_c, 4, 56, 100
5, 11159, Note_on_c, 4, 56, 0
5, 11159, Note_on_c, 4, 60, 0
5, 11280, Note_on_c, 4, 60, 71
5, 11280, Note_on_c, 4, 56, 85
5, 11359, Note_on_c, 4, 56, 0
5, 11359, Note_on_c, 4, 60, 0
5, 11360, Note_on_c, 4, 60, 71
5, 11360, Note_on_c, 4, 56, 98
5, 11399, Note_on_c, 4, 56, 0
5, 11399, Note_on_c, 4, 60, 0
5, 11520, Note_on_c, 4, 56, 89
5, 11520, Note_on_c, 4, 60, 78
5, 11599, Note_on_c, 4, 60, 0
5, 11599, Note_on_c, 4, 56, 0
5, 11600, Note_on_c, 4, 60, 79
5, 11600, Note_on_c, 4, 56, 89
5, 11639, Note_on_c, 4, 56, 0
5, 11639, Note_on_c, 4, 60, 0
5, 11760, Note_on_c, 4, 60, 65
5, 11760, Note_on_c, 4, 56, 80
5, 11839, Note_on_c, 4, 56, 0
5, 11839, Note_on_c, 4, 60, 0
5, 11840, Note_on_c, 4, 60, 74
5, 11840, Note_on_c, 4, 56, 89
5, 11879, Note_on_c, 4, 56, 0
5, 11879, Note_on_c, 4, 60, 0
5, 12000, Note_on_c, 4, 60, 75
5, 12000, Note_on_c, 4, 56, 92
5, 12079, Note_on_c, 4, 56, 0
5, 12079, Note_on_c, 4, 60, 0
5, 12080, Note_on_c, 4, 60, 75
5, 12080, Note_on_c, 4, 56, 100
5, 12119, Note_on_c, 4, 56, 0
5, 12119, Note_on_c, 4, 60, 0
5, 12240, Note_on_c, 4, 60, 71
5, 12240, Note_on_c, 4, 56, 85
5, 12319, Note_on_c, 4, 56, 0
5, 12319, Note_on_c, 4, 60, 0
5, 12320, Note_on_c, 4, 60, 71
5, 12320, Note_on_c, 4, 56, 98
5, 12359, Note_on_c, 4, 56, 0
5, 12359, Note_on_c, 4, 60, 0
5, 12480, Note_on_c, 4, 56, 89
5, 12480, Note_on_c, 4, 60, 78
5, 12559, Note_on_c, 4, 60, 0
5, 12559, Note_on_c, 4, 56, 0
5, 12560, Note_on_c, 4, 60, 79
5, 12560, Note_on_c, 4, 56, 89
5, 12599, Note_on_c, 4, 56, 0
5, 12599, Note_on_c, 4, 60, 0
5, 12720, Note_on_c, 4, 60, 65
5, 12720, Note_on_c, 4, 56, 80
5, 12799, Note_on_c, 4, 56, 0
5, 12799, Note_on_c, 4, 60, 0
5, 12800, Note_on_c, 4, 60, 74
5, 12800, Note_on_c, 4, 56, 89
5, 12839, Note_on_c, 4, 56, 0
5, 12839, Note_on_c, 4, 60, 0
5, 12960, Note_on_c, 4, 60, 75
5, 12960, Note_on_c, 4, 56, 92
5, 13039, Note_on_c, 4, 56, 0
5, 13039, Note_on_c, 4, 60, 0
5, 13040, Note_on_c, 4, 60, 75
5, 13040, Note_on_c, 4, 56, 100
5, 13079, Note_on_c, 4, 56, 0
5, 13079, Note_on_c, 4, 60, 0
5, 13200, Note_on_c, 4, 60, 71
5, 13200, Note_on_c, 4, 56, 85
5, 13279, Note_on_c, 4, 56, 0
5, 13279, Note_on_c, 4, 60, 0
5, 13280, Note_on_c, 4, 60, 71
5, 13280, Note_on_c, 4, 56, 98
5, 13319, Note_on_c, 4, 56, 0
5, 13319, Note_on_c, 4, 60, 0
5, 13440, Note_on_c, 4, 56, 89
5, 13440, Note_on_c, 4, 60, 78
5, 13519, Note_on_c, 4, 60, 0
5, 13519, Note_on_c, 4, 56, 0
5, 13520, Note_on_c, 4, 60, 79
5, 13520, Note_on_c, 4, 56, 89
5, 13559, Note_on_c, 4, 56, 0
5, 13559, Note_on_c, 4, 60, 0
5, 13680, Note_on_c, 4, 60, 65
5, 13680, Note_on_c, 4, 56, 80
5, 13759, Note_on_c, 4, 56, 0
5, 13759, Note_on_c, 4, 60, 0
5, 13760, Note_on_c, 4, 60, 74
5, 13760, Note_on_c, 4, 56, 89
5, 13799, Note_on_c, 4, 56, 0
5, 13799, Note_on_c, 4, 60, 0
5, 13920, Note_on_c, 4, 60, 75
5, 13920, Note_on_c, 4, 56, 92
5, 13999, Note_on_c, 4, 56, 0
5, 13999, Note_on_c, 4, 60, 0
5, 14000, Note_on_c, 4, 60, 75
5, 14000, Note_on_c, 4, 56, 100
5, 14039, Note_on_c, 4, 56, 0
5, 14039, Note_on_c, 4, 60, 0
5, 14160, Note_on_c, 4, 60, 71
5, 14160, Note_on_c, 4, 56, 85
5, 14239, Note_on_c, 4, 56, 0
5, 14239, Note_on_c, 4, 60, 0
5, 14240, Note_on_c, 4, 60, 71
5, 14240, Note_on_c, 4, 56, 98
5, 14279, Note_on_c, 4, 56, 0
5, 14279, Note_on_c, 4, 60, 0
5, 14400, Note_on_c, 4, 56, 89
5, 14400, Note_on_c, 4, 60, 78
5, 14479, Note_on_c, 4, 60, 0
5, 14479, Note_on_c, 4, 56, 0
5, 14480, Note_on_c, 4, 60, 79
5, 14480, Note_on_c, 4, 56, 89
5, 14519, Note_on_c, 4, 56, 0
5, 14519, Note_on_c, 4, 60, 0
5, 14640, Note_on_c, 4, 60, 65
5, 14640, Note_on_c, 4, 56, 80
5, 14719, Note_on_c, 4, 56, 0
5, 14719, Note_on_c, 4, 60, 0
5, 14720, Note_on_c, 4, 60, 74
5, 14720, Note_on_c, 4, 56, 89
5, 14759, Note_on_c, 4, 56, 0
5, 14759, Note_on_c, 4, 60, 0
5, 14880, Note_on_c, 4, 60, 75
5, 14880, Note_on_c, 4, 56, 92
5, 14959, Note_on_c, 4, 56, 0
5, 14959, Note_on_c, 4, 60, 0
5, 14960, Note_on_c, 4, 60, 75
5, 14960, Note_on_c, 4, 56, 100
5, 14999, Note_on_c, 4, 56, 0
5, 14999, Note_on_c, 4, 60, 0
5, 15120, Note_on_c, 4, 60, 71
5, 15120, Note_on_c, 4, 56, 85
5, 15199, Note_on_c, 4, 56, 0
5, 15199, Note_on_c, 4, 60, 0
5, 15200, Note_on_c, 4, 60, 71
5, 15200, Note_on_c, 4, 56, 98
5, 15239, Note_on_c, 4, 56, 0
5, 15239, Note_on_c, 4, 60, 0
5, 15360, Note_on_c, 4, 56, 89
5, 15360, Note_on_c, 4, 60, 78
5, 15439, Note_on_c, 4, 60, 0
5, 15439, Note_on_c, 4, 56, 0
5, 15440, Note_on_c, 4, 60, 79
5, 15440, Note_on_c, 4, 56, 89
5, 15479, Note_on_c, 4, 56, 0
5, 15479, Note_on_c, 4, 60, 0
5, 15600, Note_on_c, 4, 60, 65
5, 15600, Note_on_c, 4, 56, 80
5, 15679, Note_on_c, 4, 56, 0
5, 15679, Note_on_c, 4, 60, 0
5, 15680, Note_on_c, 4, 60, 74
5, 15680, Note_on_c, 4, 56, 89
5, 15719, Note_on_c, 4, 56, 0
5, 15719, Note_on_c, 4, 60, 0
5, 15840, Note_on_c, 4, 60, 75
5, 15840, Note_on_c, 4, 56, 92
5, 15919, Note_on_c, 4, 56, 0
5, 15919, Note_on_c, 4, 60, 0
5, 15920, Note_on_c, 4, 60, 75
5, 15920, Note_on_c, 4, 56, 100
5, 15959, Note_on_c, 4, 56, 0
5, 15959, Note_on_c, 4, 60, 0
5, 16080, Note_on_c, 4, 60, 71
5, 16080, Note_on_c, 4, 56, 85
5, 16159, Note_on_c, 4, 56, 0
5, 16159, Note_on_c, 4, 60, 0
5, 16160, Note_on_c, 4, 60, 71
5, 16160, Note_on_c, 4, 56, 98
5, 16199, Note_on_c, 4, 56, 0
5, 16199, Note_on_c, 4, 60, 0
5, 16320, Note_on_c, 4, 56, 89
5, 16320, Note_on_c, 4, 60, 78
5, 16399, Note_on_c, 4, 60, 0
5, 16399, Note_on_c, 4, 56, 0
5, 16400, Note_on_c, 4, 60, 79
5, 16400, Note_on_c, 4, 56, 89
5, 16439, Note_on_c, 4, 56, 0
5, 16439, Note_on_c, 4, 60, 0
5, 16560, Note_on_c, 4, 60, 65
5, 16560, Note_on_c, 4, 56, 80
5, 16639, Note_on_c, 4, 56, 0
5, 16639, Note_on_c, 4, 60, 0
5, 16640, Note_on_c, 4, 60, 74
5, 16640, Note_on_c, 4, 56, 89
5, 16679, Note_on_c, 4, 56, 0
5, 16679, Note_on_c, 4, 60, 0
5, 16800, Note_on_c, 4, 60, 75
5, 16800, Note_on_c, 4, 56, 92
5, 16879, Note_on_c, 4, 56, 0
5, 16879, Note_on_c, 4, 60, 0
5, 16880, Note_on_c, 4, 60, 75
5, 16880, Note_on_c, 4, 56, 100
5, 16919, Note_on_c, 4, 56, 0
5, 16919, Note_on_c, 4, 60, 0
5, 17040, Note_on_c, 4, 60, 71
5, 17040, Note_on_c, 4, 56, 85
5, 17119, Note_on_c, 4, 56, 0
5, 17119, Note_on_c, 4, 60, 0
5, 17120, Note_on_c, 4, 60, 71
5, 17120, Note_on_c, 4, 56, 98
5, 17159, Note_on_c, 4, 56, 0
5, 17159, Note_on_c, 4, 60, 0
5, 17280, Note_on_c, 4, 56, 92
5, 17280, Note_on_c, 4, 60, 71
5, 17339, Note_on_c, 4, 60, 0
5, 17339, Note_on_c, 4, 56, 0
5, 17360, Note_on_c, 4, 60, 75
5, 17360, Note_on_c, 4, 56, 93
5, 17419, Note_on_c, 4, 56, 0
5, 17419, Note_on_c, 4, 60, 0
5, 17520, Note_on_c, 4, 60, 68
5, 17520, Note_on_c, 4, 56, 89
5, 17599, Note_on_c, 4, 56, 0
5, 17599, Note_on_c, 4, 60, 0
5, 17600, Note_on_c, 4, 60, 75
5, 17600, Note_on_c, 4, 56, 89
5, 17639, Note_on_c, 4, 56, 0
5, 17639, Note_on_c, 4, 60, 0
5, 17760, Note_on_c, 4, 60, 74
5, 17760, Note_on_c, 4, 56, 89
5, 17839, Note_on_c, 4, 56, 0
5, 17839, Note_on_c, 4, 60, 0
5, 17840, Note_on_c, 4, 60, 76
5, 17840, Note_on_c, 4, 56, 85
5, 17879, Note_on_c, 4, 56, 0
5, 17879, Note_on_c, 4, 60, 0
5, 18120, Note_on_c, 4, 72, 71
5, 18120, Note_on_c, 4, 63, 77
5, 18120, Note_on_c, 4, 68, 76
5, 18199, Note_on_c, 4, 68, 0
5, 18199, Note_on_c, 4, 63, 0
5, 18199, Note_on_c, 4, 72, 0
5, 18200, Note_on_c, 4, 63, 80
5, 18200, Note_on_c, 4, 72, 71
5, 18200, Note_on_c, 4, 68, 84
5, 18239, Note_on_c, 4, 68, 0
5, 18239, Note_on_c, 4, 72, 0
5, 18239, Note_on_c, 4, 63, 0
5, 18240, Note_on_c, 4, 56, 92
5, 18240, Note_on_c, 4, 60, 71
5, 18299, Note_on_c, 4, 60, 0
5, 18299, Note_on_c, 4, 56, 0
5, 18320, Note_on_c, 4, 60, 75
5, 18320, Note_on_c, 4, 56, 93
5, 18379, Note_on_c, 4, 56, 0
5, 18379, Note_on_c, 4, 60, 0
5, 18480, Note_on_c, 4, 60, 68
5, 18480, Note_on_c, 4, 56, 89
5, 18559, Note_on_c, 4, 56, 0
5, 18559, Note_on_c, 4, 60, 0
5, 18560, Note_on_c, 4, 60, 75
5, 18560, Note_on_c, 4, 56, 89
5, 18599, Note_on_c, 4, 56, 0
5, 18599, Note_on_c, 4, 60, 0
5, 18720, Note_on_c, 4, 60, 74
5, 18720, Note_on_c, 4, 56, 89
5, 18799, Note_on_c, 4, 56, 0
5, 18799, Note_on_c, 4, 60, 0
5, 18800, Note_on_c, 4, 60, 76
5, 18800, Note_on_c, 4, 56, 85
5, 18839, Note_on_c, 4, 56, 0
5, 18839, Note_on_c, 4, 60, 0
5, 19080, Note_on_c, 4, 72, 71
5, 19080, Note_on_c, 4, 63, 77
5, 19080, Note_on_c, 4, 68, 76
5, 19159, Note_on_c, 4, 68, 0
5, 19159, Note_on_c, 4, 63, 0
5, 19159, Note_on_c, 4, 72, 0
5, 19160, Note_on_c, 4, 63, 80
5, 19160, Note_on_c, 4, 72, 71
5, 19160, Note_on_c, 4, 68, 84
5, 19199, Note_on_c, 4, 68, 0
5, 19199, Note_on_c, 4, 72, 0
5, 19199, Note_on_c, 4, 63, 0
5, 19200, Note_on_c, 4, 56, 92
5, 19200, Note_on_c, 4, 60, 71
5, 19259, Note_on_c, 4, 60, 0
5, 19259, Note_on_c, 4, 56, 0
5, 19280, Note_on_c, 4, 60, 75
5, 19280, Note_on_c, 4, 56, 93
5, 19339, Note_on_c, 4, 56, 0
5, 19339, Note_on_c, 4, 60, 0
5, 19440, Note_on_c, 4, 60, 68
5, 19440, Note_on_c, 4, 56, 89
5, 19519, Note_on_c, 4, 56, 0
5, 19519, Note_on_c, 4, 60, 0
5, 19520, Note_on_c, 4, 60, 75
5, 19520, Note_on_c, 4, 56, 89
5, 19559, Note_on_c, 4, 56, 0
5, 19559, Note_on_c, 4, 60, 0
5, 19680, Note_on_c, 4, 60, 74
5, 19680, Note_on_c, 4, 56, 89
5, 19759, Note_on_c, 4, 56, 0
5, 19759, Note_on_c, 4, 60, 0
5, 19760, Note_on_c, 4, 60, 76
5, 19760, Note_on_c, 4, 56, 85
5, 19799, Note_on_c, 4, 56, 0
5, 19799, Note_on_c, 4, 60, 0
5, 20040, Note_on_c, 4, 72, 71
5, 20040, Note_on_c, 4, 63, 77
5, 20040, Note_on_c, 4, 68, 76
5, 20119, Note_on_c, 4, 68, 0
5, 20119, Note_on_c, 4, 63, 0
5, 20119, Note_on_c, 4, 72, 0
5, 20120, Note_on_c, 4, 63, 80
5, 20120, Note_on_c, 4, 72, 71
5, 20120, Note_on_c, 4, 68, 84
5, 20159, Note_on_c, 4, 68, 0
5, 20159, Note_on_c, 4, 72, 0
5, 20159, Note_on_c, 4, 63, 0
5, 20160, Note_on_c, 4, 56, 92
5, 20160, Note_on_c, 4, 60, 71
5, 20219, Note_on_c, 4, 60, 0
5, 20219, Note_on_c, 4, 56, 0
5, 20240, Note_on_c, 4, 60, 75
5, 20240, Note_on_c, 4, 56, 93
5, 20299, Note_on_c, 4, 56, 0
5, 20299, Note_on_c, 4, 60, 0
5, 20400, Note_on_c, 4, 60, 68
5, 20400, Note_on_c, 4, 56, 89
5, 20479, Note_on_c, 4, 56, 0
5, 20479, Note_on_c, 4, 60, 0
5, 20480, Note_on_c, 4, 60, 75
5, 20480, Note_on_c, 4, 56, 89
5, 20519, Note_on_c, 4, 56, 0
5, 20519, Note_on_c, 4, 60, 0
5, 20640, Note_on_c, 4, 60, 74
5, 20640, Note_on_c, 4, 56, 89
5, 20719, Note_on_c, 4, 56, 0
5, 20719, Note_on_c, 4, 60, 0
5, 20720, Note_on_c, 4, 60, 76
5, 20720, Note_on_c, 4, 56, 85
5, 20759, Note_on_c, 4, 56, 0
5, 20759, Note_on_c, 4, 60, 0
5, 21000, Note_on_c, 4, 72, 71
5, 21000, Note_on_c, 4, 63, 77
5, 21000, Note_on_c, 4, 68, 76
5, 21079, Note_on_c, 4, 68, 0
5, 21079, Note_on_c, 4, 63, 0
5, 21079, Note_on_c, 4, 72, 0
5, 21080, Note_on_c, 4, 63, 80
5, 21080, Note_on_c, 4, 72, 71
5, 21080, Note_on_c, 4, 68, 84
5, 21119, Note_on_c, 4, 68, 0
5, 21119, Note_on_c, 4, 72, 0
5, 21119, Note_on_c, 4, 63, 0
5, 21120, Note_on_c, 4, 56, 92
5, 21120, Note_on_c, 4, 60, 71
5, 21179, Note_on_c, 4, 60, 0
5, 21179, Note_on_c, 4, 56, 0
5, 21200, Note_on_c, 4, 60, 75
5, 21200, Note_on_c, 4, 56, 93
5, 21259, Note_on_c, 4, 56, 0
5, 21259, Note_on_c, 4, 60, 0
5, 21360, Note_on_c, 4, 60, 68
5, 21360, Note_on_c, 4, 56, 89
5, 21439, Note_on_c, 4, 56, 0
5, 21439, Note_on_c, 4, 60, 0
5, 21440, Note_on_c, 4, 60, 75
5, 21440, Note_on_c, 4, 56, 89
5, 21479, Note_on_c, 4, 56, 0
5, 21479, Note_on_c, 4, 60, 0
5, 21600, Note_on_c, 4, 60, 74
5, 21600, Note_on_c, 4, 56, 89
5, 21679, Note_on_c, 4, 56, 0
5, 21679, Note_on_c, 4, 60, 0
5, 21680, Note_on_c, 4, 60, 76
5, 21680, Note_on_c, 4, 56, 85
5, 21719, Note_on_c, 4, 56, 0
5, 21719, Note_on_c, 4, 60, 0
5, 21960, Note_on_c, 4, 72, 71
5, 21960, Note_on_c, 4, 63, 77
5, 21960, Note_on_c, 4, 68, 76
5, 22039, Note_on_c, 4, 68, 0
5, 22039, Note_on_c, 4, 63, 0
5, 22039, Note_on_c, 4, 72, 0
5, 22040, Note_on_c, 4, 63, 80
5, 22040, Note_on_c, 4, 72, 71
5, 22040, Note_on_c, 4, 68, 84
5, 22079, Note_on_c, 4, 68, 0
5, 22079, Note_on_c, 4, 72, 0
5, 22079, Note_on_c, 4, 63, 0
5, 22080, Note_on_c, 4, 56, 93
5, 22080, Note_on_c, 4, 60, 71
5, 22159, Note_on_c, 4, 60, 0
5, 22159, Note_on_c, 4, 56, 0
5, 22160, Note_on_c, 4, 60, 79
5, 22160, Note_on_c, 4, 56, 89
5, 22199, Note_on_c, 4, 56, 0
5, 22199, Note_on_c, 4, 60, 0
5, 22320, Note_on_c, 4, 60, 78
5, 22320, Note_on_c, 4, 56, 93
5, 22399, Note_on_c, 4, 56, 0
5, 22399, Note_on_c, 4, 60, 0
5, 22400, Note_on_c, 4, 60, 83
5, 22400, Note_on_c, 4, 56, 89
5, 22439, Note_on_c, 4, 56, 0
5, 22439, Note_on_c, 4, 60, 0
5, 22560, Note_on_c, 4, 60, 78
5, 22560, Note_on_c, 4, 56, 95
5, 22639, Note_on_c, 4, 56, 0
5, 22639, Note_on_c, 4, 60, 0
5, 22640, Note_on_c, 4, 60, 79
5, 22640, Note_on_c, 4, 56, 88
5, 22679, Note_on_c, 4, 56, 0
5, 22679, Note_on_c, 4, 60, 0
5, 22800, Note_on_c, 4, 60, 76
5, 22800, Note_on_c, 4, 56, 92
5, 22879, Note_on_c, 4, 56, 0
5, 22879, Note_on_c, 4, 60, 0
5, 22880, Note_on_c, 4, 60, 83
5, 22880, Note_on_c, 4, 56, 89
5, 22919, Note_on_c, 4, 56, 0
5, 22919, Note_on_c, 4, 60, 0
5, 23040, Note_on_c, 4, 56, 93
5, 23040, Note_on_c, 4, 60, 71
5, 23119, Note_on_c, 4, 60, 0
5, 23119, Note_on_c, 4, 56, 0
5, 23120, Note_on_c, 4, 60, 79
5, 23120, Note_on_c, 4, 56, 89
5, 23159, Note_on_c, 4, 56, 0
5, 23159, Note_on_c, 4, 60, 0
5, 23280, Note_on_c, 4, 60, 78
5, 23280, Note_on_c, 4, 56, 93
5, 23359, Note_on_c, 4, 56, 0
5, 23359, Note_on_c, 4, 60, 0
5, 23360, Note_on_c, 4, 60, 83
5, 23360, Note_on_c, 4, 56, 89
5, 23399, Note_on_c, 4, 56, 0
5, 23399, Note_on_c, 4, 60, 0
5, 23520, Note_on_c, 4, 60, 78
5, 23520, Note_on_c, 4, 56, 95
5, 23599, Note_on_c, 4, 56, 0
5, 23599, Note_on_c, 4, 60, 0
5, 23600, Note_on_c, 4, 60, 79
5, 23600, Note_on_c, 4, 56, 88
5, 23639, Note_on_c, 4, 56, 0
5, 23639, Note_on_c, 4, 60, 0
5, 23760, Note_on_c, 4, 60, 76
5, 23760, Note_on_c, 4, 56, 92
5, 23839, Note_on_c, 4, 56, 0
5, 23839, Note_on_c, 4, 60, 0
5, 23840, Note_on_c, 4, 60, 83
5, 23840, Note_on_c, 4, 56, 89
5, 23879, Note_on_c, 4, 56, 0
5, 23879, Note_on_c, 4, 60, 0
5, 24000, Note_on_c, 4, 60, 75
5, 24000, Note_on_c, 4, 56, 89
5, 24079, Note_on_c, 4, 56, 0
5, 24079, Note_on_c, 4, 60, 0
5, 24080, Note_on_c, 4, 56, 93
5, 24080, Note_on_c, 4, 60, 76
5, 24119, Note_on_c, 4, 60, 0
5, 24119, Note_on_c, 4, 56, 0
5, 24240, Note_on_c, 4, 60, 75
5, 24240, Note_on_c, 4, 56, 85
5, 24319, Note_on_c, 4, 56, 0
5, 24319, Note_on_c, 4, 60, 0
5, 24320, Note_on_c, 4, 60, 80
5, 24320, Note_on_c, 4, 56, 89
5, 24359, Note_on_c, 4, 56, 0
5, 24359, Note_on_c, 4, 60, 0
5, 24480, Note_on_c, 4, 60, 84
5, 24480, Note_on_c, 4, 56, 93
5, 24559, Note_on_c, 4, 56, 0
5, 24559, Note_on_c, 4, 60, 0
5, 24560, Note_on_c, 4, 60, 80
5, 24560, Note_on_c, 4, 56, 89
5, 24599, Note_on_c, 4, 56, 0
5, 24599, Note_on_c, 4, 60, 0
5, 24840, Note_on_c, 4, 72, 74
5, 24840, Note_on_c, 4, 68, 92
5, 24840, Note_on_c, 4, 63, 82
5, 24919, Note_on_c, 4, 63, 0
5, 24919, Note_on_c, 4, 68, 0
5, 24919, Note_on_c, 4, 72, 0
5, 24920, Note_on_c, 4, 72, 80
5, 24920, Note_on_c, 4, 63, 88
5, 24920, Note_on_c, 4, 68, 92
5, 24959, Note_on_c, 4, 68, 0
5, 24959, Note_on_c, 4, 63, 0
5, 24959, Note_on_c, 4, 72, 0
5, 24960, Note_on_c, 4, 60, 75
5, 24960, Note_on_c, 4, 56, 89
5, 25039, Note_on_c, 4, 56, 0
5, 25039, Note_on_c, 4, 60, 0
5, 25040, Note_on_c, 4, 56, 93
5, 25040, Note_on_c, 4, 60, 76
5, 25079, Note_on_c, 4, 60, 0
5, 25079, Note_on_c, 4, 56, 0
5, 25200, Note_on_c, 4, 60, 75
5, 25200, Note_on_c, 4, 56, 85
5, 25279, Note_on_c, 4, 56, 0
5, 25279, Note_on_c, 4, 60, 0
5, 25280, Note_on_c, 4, 60, 80
5, 25280, Note_on_c, 4, 56, 89
5, 25319, Note_on_c, 4, 56, 0
5, 25319, Note_on_c, 4, 60, 0
5, 25440, Note_on_c, 4, 60, 84
5, 25440, Note_on_c, 4, 56, 93
5, 25519, Note_on_c, 4, 56, 0
5, 25519, Note_on_c, 4, 60, 0
5, 25520, Note_on_c, 4, 60, 80
5, 25520, Note_on_c, 4, 56, 89
5, 25559, Note_on_c, 4, 56, 0
5, 25559, Note_on_c, 4, 60, 0
5, 25800, Note_on_c, 4, 72, 74
5, 25800, Note_on_c, 4, 68, 92
5, 25800, Note_on_c, 4, 63, 82
5, 25879, Note_on_c, 4, 63, 0
5, 25879, Note_on_c, 4, 68, 0
5, 25879, Note_on_c, 4, 72, 0
5, 25880, Note_on_c, 4, 72, 80
5, 25880, Note_on_c, 4, 63, 88
5, 25880, Note_on_c, 4, 68, 92
5, 25919, Note_on_c, 4, 68, 0
5, 25919, Note_on_c, 4, 63, 0
5, 25919, Note_on_c, 4, 72, 0
5, 25920, Note_on_c, 4, 60, 75
5, 25920, Note_on_c, 4, 56, 89
5, 25999, Note_on_c, 4, 56, 0
5, 25999, Note_on_c, 4, 60, 0
5, 26000, Note_on_c, 4, 56, 93
5, 26000, Note_on_c, 4, 60, 76
5, 26039, Note_on_c, 4, 60, 0
5, 26039, Note_on_c, 4, 56, 0
5, 26160, Note_on_c, 4, 60, 75
5, 26160, Note_on_c, 4, 56, 85
5, 26239, Note_on_c, 4, 56, 0
5, 26239, Note_on_c, 4, 60, 0
5, 26240, Note_on_c, 4, 60, 80
5, 26240, Note_on_c, 4, 56, 89
5, 26279, Note_on_c, 4, 56, 0
5, 26279, Note_on_c, 4, 60, 0
5, 26400, Note_on_c, 4, 60, 84
5, 26400, Note_on_c, 4, 56, 93
5, 26479, Note_on_c, 4, 56, 0
5, 26479, Note_on_c, 4, 60, 0
5, 26480, Note_on_c, 4, 60, 80
5, 26480, Note_on_c, 4, 56, 89
5, 26519, Note_on_c, 4, 56, 0
5, 26519, Note_on_c, 4, 60, 0
5, 26760, Note_on_c, 4, 72, 74
5, 26760, Note_on_c, 4, 68, 92
5, 26760, Note_on_c, 4, 63, 82
5, 26839, Note_on_c, 4, 63, 0
5, 26839, Note_on_c, 4, 68, 0
5, 26839, Note_on_c, 4, 72, 0
5, 26840, Note_on_c, 4, 72, 80
5, 26840, Note_on_c, 4, 63, 88
5, 26840, Note_on_c, 4, 68, 92
5, 26879, Note_on_c, 4, 68, 0
5, 26879, Note_on_c, 4, 63, 0
5, 26879, Note_on_c, 4, 72, 0
5, 26880, Note_on_c, 4, 60, 75
5, 26880, Note_on_c, 4, 56, 89
5, 26959, Note_on_c, 4, 56, 0
5, 26959, Note_on_c, 4, 60, 0
5, 26960, Note_on_c, 4, 56, 93
5, 26960, Note_on_c, 4, 60, 76
5, 26999, Note_on_c, 4, 60, 0
5, 26999, Note_on_c, 4, 56, 0
5, 27120, Note_on_c, 4, 60, 75
5, 27120, Note_on_c, 4, 56, 85
5, 27199, Note_on_c, 4, 56, 0
5, 27199, Note_on_c, 4, 60, 0
5, 27200, Note_on_c, 4, 60, 80
5, 27200, Note_on_c, 4, 56, 89
5, 27239, Note_on_c, 4, 56, 0
5, 27239, Note_on_c, 4, 60, 0
5, 27360, Note_on_c, 4, 60, 84
5, 27360, Note_on_c, 4, 56, 93
5, 27439, Note_on_c, 4, 56, 0
5, 27439, Note_on_c, 4, 60, 0
5, 27440, Note_on_c, 4, 60, 80
5, 27440, Note_on_c, 4, 56, 89
5, 27479, Note_on_c, 4, 56, 0
5, 27479, Note_on_c, 4, 60, 0
5, 27720, Note_on_c, 4, 72, 74
5, 27720, Note_on_c, 4, 68, 92
5, 27720, Note_on_c, 4, 63, 82
5, 27799, Note_on_c, 4, 63, 0
5, 27799, Note_on_c, 4, 68, 0
5, 27799, Note_on_c, 4, 72, 0
5, 27800, Note_on_c, 4, 72, 80
5, 27800, Note_on_c, 4, 63, 88
5, 27800, Note_on_c, 4, 68, 92
5, 27839, Note_on_c, 4, 68, 0
5, 27839, Note_on_c, 4, 63, 0
5, 27839, Note_on_c, 4, 72, 0
5, 27840, Note_on_c, 4, 56, 93
5, 27840, Note_on_c, 4, 60, 71
5, 27919, Note_on_c, 4, 60, 0
5, 27919, Note_on_c, 4, 56, 0
5, 27920, Note_on_c, 4, 60, 79
5, 27920, Note_on_c, 4, 56, 89
5, 27959, Note_on_c, 4, 56, 0
5, 27959, Note_on_c, 4, 60, 0
5, 28080, Note_on_c, 4, 60, 78
5, 28080, Note_on_c, 4, 56, 93
5, 28159, Note_on_c, 4, 56, 0
5, 28159, Note_on_c, 4, 60, 0
5, 28160, Note_on_c, 4, 60, 83
5, 28160, Note_on_c, 4, 56, 89
5, 28199, Note_on_c, 4, 56, 0
5, 28199, Note_on_c, 4, 60, 0
5, 28320, Note_on_c, 4, 60, 78
5, 28320, Note_on_c, 4, 56, 95
5, 28399, Note_on_c, 4, 56, 0
5, 28399, Note_on_c, 4, 60, 0
5, 28400, Note_on_c, 4, 60, 79
5, 28400, Note_on_c, 4, 56, 88
5, 28439, Note_on_c, 4, 56, 0
5, 28439, Note_on_c, 4, 60, 0
5, 28560, Note_on_c, 4, 60, 76
5, 28560, Note_on_c, 4, 56, 92
5, 28639, Note_on_c, 4, 56, 0
5, 28639, Note_on_c, 4, 60, 0
5, 28640, Note_on_c, 4, 60, 83
5, 28640, Note_on_c, 4, 56, 89
5, 28679, Note_on_c, 4, 56, 0
5, 28679, Note_on_c, 4, 60, 0
5, 28800, Note_on_c, 4, 56, 93
5, 28800, Note_on_c, 4, 60, 71
5, 28879, Note_on_c, 4, 60, 0
5, 28879, Note_on_c, 4, 56, 0
5, 28880, Note_on_c, 4, 60, 79
5, 28880, Note_on_c, 4, 56, 89
5, 28919, Note_on_c, 4, 56, 0
5, 28919, Note_on_c, 4, 60, 0
5, 29040, Note_on_c, 4, 60, 78
5, 29040, Note_on_c, 4, 56, 93
5, 29119, Note_on_c, 4, 56, 0
5, 29119, Note_on_c, 4, 60, 0
5, 29120, Note_on_c, 4, 60, 83
5, 29120, Note_on_c, 4, 56, 89
5, 29159, Note_on_c, 4, 56, 0
5, 29159, Note_on_c, 4, 60, 0
5, 29280, Note_on_c, 4, 60, 78
5, 29280, Note_on_c, 4, 56, 95
5, 29359, Note_on_c, 4, 56, 0
5, 29359, Note_on_c, 4, 60, 0
5, 29360, Note_on_c, 4, 60, 79
5, 29360, Note_on_c, 4, 56, 88
5, 29399, Note_on_c, 4, 56, 0
5, 29399, Note_on_c, 4, 60, 0
5, 29520, Note_on_c, 4, 60, 76
5, 29520, Note_on_c, 4, 56, 92
5, 29599, Note_on_c, 4, 56, 0
5, 29599, Note_on_c, 4, 60, 0
5, 29600, Note_on_c, 4, 60, 83
5, 29600, Note_on_c, 4, 56, 89
5, 29639, Note_on_c, 4, 56, 0
5, 29639, Note_on_c, 4, 60, 0
5, 29760, Note_on_c, 4, 60, 75
5, 29760, Note_on_c, 4, 56, 89
5, 29839, Note_on_c, 4, 56, 0
5, 29839, Note_on_c, 4, 60, 0
5, 29840, Note_on_c, 4, 56, 93
5, 29840, Note_on_c, 4, 60, 76
5, 29879, Note_on_c, 4, 60, 0
5, 29879, Note_on_c, 4, 56, 0
5, 30000, Note_on_c, 4, 60, 75
5, 30000, Note_on_c, 4, 56, 85
5, 30079, Note_on_c, 4, 56, 0
5, 30079, Note_on_c, 4, 60, 0
5, 30080, Note_on_c, 4, 60, 80
5, 30080, Note_on_c, 4, 56, 89
5, 30119, Note_on_c, 4, 56, 0
5, 30119, Note_on_c, 4, 60, 0
5, 30240, Note_on_c, 4, 60, 84
5, 30240, Note_on_c, 4, 56, 93
5, 30319, Note_on_c, 4, 56, 0
5, 30319, Note_on_c, 4, 60, 0
5, 30320, Note_on_c, 4, 60, 80
5, 30320, Note_on_c, 4, 56, 89
5, 30359, Note_on_c, 4, 56, 0
5, 30359, Note_on_c, 4, 60, 0
5, 30600, Note_on_c, 4, 72, 74
5, 30600, Note_on_c, 4, 68, 92
5, 30600, Note_on_c, 4, 63, 82
5, 30679, Note_on_c, 4, 63, 0
5, 30679, Note_on_c, 4, 68, 0
5, 30679, Note_on_c, 4, 72, 0
5, 30680, Note_on_c, 4, 72, 80
5, 30680, Note_on_c, 4, 63, 88
5, 30680, Note_on_c, 4, 68, 92
5, 30719, Note_on_c, 4, 68, 0
5, 30719, Note_on_c, 4, 63, 0
5, 30719, Note_on_c, 4, 72, 0
5, 30720, Note_on_c, 4, 60, 75
5, 30720, Note_on_c, 4, 56, 89
5, 30799, Note_on_c, 4, 56, 0
5, 30799, Note_on_c, 4, 60, 0
5, 30800, Note_on_c, 4, 56, 93
5, 30800, Note_on_c, 4, 60, 76
5, 30839, Note_on_c, 4, 60, 0
5, 30839, Note_on_c, 4, 56, 0
5, 30960, Note_on_c, 4, 60, 75
5, 30960, Note_on_c, 4, 56, 85
5, 31039, Note_on_c, 4, 56, 0
5, 31039, Note_on_c, 4, 60, 0
5, 31040, Note_on_c, 4, 60, 80
5, 31040, Note_on_c, 4, 56, 89
5, 31079, Note_on_c, 4, 56, 0
5, 31079, Note_on_c, 4, 60, 0
5, 31200, Note_on_c, 4, 60, 84
5, 31200, Note_on_c, 4, 56, 93
5, 31279, Note_on_c, 4, 56, 0
5, 31279, Note_on_c, 4, 60, 0
5, 31280, Note_on_c, 4, 60, 80
5, 31280, Note_on_c, 4, 56, 89
5, 31319, Note_on_c, 4, 56, 0
5, 31319, Note_on_c, 4, 60, 0
5, 31560, Note_on_c, 4, 72, 74
5, 31560, Note_on_c, 4, 68, 92
5, 31560, Note_on_c, 4, 63, 82
5, 31639, Note_on_c, 4, 63, 0
5, 31639, Note_on_c, 4, 68, 0
5, 31639, Note_on_c, 4, 72, 0
5, 31640, Note_on_c, 4, 72, 80
5, 31640, Note_on_c, 4, 63, 88
5, 31640, Note_on_c, 4, 68, 92
5, 31679, Note_on_c, 4, 68, 0
5, 31679, Note_on_c, 4, 63, 0
5, 31679, Note_on_c, 4, 72, 0
5, 31680, Note_on_c, 4, 60, 75
5, 31680, Note_on_c, 4, 56, 89
5, 31759, Note_on_c, 4, 56, 0
5, 31759, Note_on_c, 4, 60, 0
5, 31760, Note_on_c, 4, 56, 93
5, 31760, Note_on_c, 4, 60, 76
5, 31799, Note_on_c, 4, 60, 0
5, 31799, Note_on_c, 4, 56, 0
5, 31920, Note_on_c, 4, 60, 75
5, 31920, Note_on_c, 4, 56, 85
5, 31999, Note_on_c, 4, 56, 0
5, 31999, Note_on_c, 4, 60, 0
5, 32000, Note_on_c, 4, 60, 80
5, 32000, Note_on_c, 4, 56, 89
5, 32039, Note_on_c, 4, 56, 0
5, 32039, Note_on_c, 4, 60, 0
5, 32160, Note_on_c, 4, 60, 84
5, 32160, Note_on_c, 4, 56, 93
5, 32239, Note_on_c, 4, 56, 0
5, 32239, Note_on_c, 4, 60, 0
5, 32240, Note_on_c, 4, 60, 80
5, 32240, Note_on_c, 4, 56, 89
5, 32279, Note_on_c, 4, 56, 0
5, 32279, Note_on_c, 4, 60, 0
5, 32520, Note_on_c, 4, 72, 74
5, 32520, Note_on_c, 4, 68, 92
5, 32520, Note_on_c, 4, 63, 82
5, 32599, Note_on_c, 4, 63, 0
5, 32599, Note_on_c, 4, 68, 0
5, 32599, Note_on_c, 4, 72, 0
5, 32600, Note_on_c, 4, 72, 80
5, 32600, Note_on_c, 4, 63, 88
5, 32600, Note_on_c, 4, 68, 92
5, 32639, Note_on_c, 4, 68, 0
5, 32639, Note_on_c, 4, 63, 0
5, 32639, Note_on_c, 4, 72, 0
5, 32640, Note_on_c, 4, 60, 75
5, 32640, Note_on_c, 4, 56, 89
5, 32719, Note_on_c, 4, 56, 0
5, 32719, Note_on_c, 4, 60, 0
5, 32720, Note_on_c, 4, 56, 93
5, 32720, Note_on_c, 4, 60, 76
5, 32759, Note_on_c, 4, 60, 0
5, 32759, Note_on_c, 4, 56, 0
5, 32880, Note_on_c, 4, 60, 75
5, 32880, Note_on_c, 4, 56, 85
5, 32959, Note_on_c, 4, 56, 0
5, 32959, Note_on_c, 4, 60, 0
5, 32960, Note_on_c, 4, 60, 80
5, 32960, Note_on_c, 4, 56, 89
5, 32999, Note_on_c, 4, 56, 0
5, 32999, Note_on_c, 4, 60, 0
5, 33120, Note_on_c, 4, 60, 84
5, 33120, Note_on_c, 4, 56, 93
5, 33199, Note_on_c, 4, 56, 0
5, 33199, Note_on_c, 4, 60, 0
5, 33200, Note_on_c, 4, 60, 80
5, 33200, Note_on_c, 4, 56, 89
5, 33239, Note_on_c, 4, 56, 0
5, 33239, Note_on_c, 4, 60, 0
5, 33480, Note_on_c, 4, 72, 74
5, 33480, Note_on_c, 4, 68, 92
5, 33480, Note_on_c, 4, 63, 82
5, 33559, Note_on_c, 4, 63, 0
5, 33559, Note_on_c, 4, 68, 0
5, 33559, Note_on_c, 4, 72, 0
5, 33560, Note_on_c, 4, 72, 80
5, 33560, Note_on_c, 4, 63, 88
5, 33560, Note_on_c, 4, 68, 92
5, 33599, Note_on_c, 4, 68, 0
5, 33599, Note_on_c, 4, 63, 0
5, 33599, Note_on_c, 4, 72, 0
5, 33600, Note_on_c, 4, 60, 75
5, 33600, Note_on_c, 4, 56, 89
5, 33679, Note_on_c, 4, 56, 0
5, 33679, Note_on_c, 4, 60, 0
5, 33680, Note_on_c, 4, 56, 93
5, 33680, Note_on_c, 4, 60, 76
5, 33719, Note_on_c, 4, 60, 0
5, 33719, Note_on_c, 4, 56, 0
5, 33840, Note_on_c, 4, 60, 75
5, 33840, Note_on_c, 4, 56, 85
5, 33919, Note_on_c, 4, 56, 0
5, 33919, Note_on_c, 4, 60, 0
5, 33920, Note_on_c, 4, 60, 80
5, 33920, Note_on_c, 4, 56, 89
5, 33959, Note_on_c, 4, 56, 0
5, 33959, Note_on_c, 4, 60, 0
5, 34080, Note_on_c, 4, 60, 84
5, 34080, Note_on_c, 4, 56, 93
5, 34159, Note_on_c, 4, 56, 0
5, 34159, Note_on_c, 4, 60, 0
5, 34160, Note_on_c, 4, 60, 80
5, 34160, Note_on_c, 4, 56, 89
5, 34199, Note_on_c, 4, 56, 0
5, 34199, Note_on_c, 4, 60, 0
5, 34440, Note_on_c, 4, 72, 74
5, 34440, Note_on_c, 4, 68, 92
5, 34440, Note_on_c, 4, 63, 82
5, 34519, Note_on_c, 4, 63, 0
5, 34519, Note_on_c, 4, 68, 0
5, 34519, Note_on_c, 4, 72, 0
5, 34520, Note_on_c, 4, 72, 80
5, 34520, Note_on_c, 4, 63, 88
5, 34520, Note_on_c, 4, 68, 92
5, 34559, Note_on_c, 4, 68, 0
5, 34559, Note_on_c, 4, 63, 0
5, 34559, Note_on_c, 4, 72, 0
5, 34560, Note_on_c, 4, 60, 75
5, 34560, Note_on_c, 4, 56, 89
5, 34639, Note_on_c, 4, 56, 0
5, 34639, Note_on_c, 4, 60, 0
5, 34640, Note_on_c, 4, 56, 93
5, 34640, Note_on_c, 4, 60, 76
5, 34679, Note_on_c, 4, 60, 0
5, 34679, Note_on_c, 4, 56, 0
5, 34800, Note_on_c, 4, 60, 75
5, 34800, Note_on_c, 4, 56, 85
5, 34879, Note_on_c, 4, 56, 0
5, 34879, Note_on_c, 4, 60, 0
5, 34880, Note_on_c, 4, 60, 80
5, 34880, Note_on_c, 4, 56, 89
5, 34919, Note_on_c, 4, 56, 0
5, 34919, Note_on_c, 4, 60, 0
5, 35040, Note_on_c, 4, 60, 84
5, 35040, Note_on_c, 4, 56, 93
5, 35119, Note_on_c, 4, 56, 0
5, 35119, Note_on_c, 4, 60, 0
5, 35120, Note_on_c, 4, 60, 80
5, 35120, Note_on_c, 4, 56, 89
5, 35159, Note_on_c, 4, 56, 0
5, 35159, Note_on_c, 4, 60, 0
5, 35400, Note_on_c, 4, 72, 74
5, 35400, Note_on_c, 4, 68, 92
5, 35400, Note_on_c, 4, 63, 82
5, 35479, Note_on_c, 4, 63, 0
5, 35479, Note_on_c, 4, 68, 0
5, 35479, Note_on_c, 4, 72, 0
5, 35480, Note_on_c, 4, 72, 80
5, 35480, Note_on_c, 4, 63, 88
5, 35480, Note_on_c, 4, 68, 92
5, 35519, Note_on_c, 4, 68, 0
5, 35519, Note_on_c, 4, 63, 0
5, 35519, Note_on_c, 4, 72, 0
5, 35520, Note_on_c, 4, 60, 75
5, 35520, Note_on_c, 4, 56, 89
5, 35599, Note_on_c, 4, 56, 0
5, 35599, Note_on_c, 4, 60, 0
5, 35600, Note_on_c, 4, 56, 93
5, 35600, Note_on_c, 4, 60, 76
5, 35639, Note_on_c, 4, 60, 0
5, 35639, Note_on_c, 4, 56, 0
5, 35760, Note_on_c, 4, 60, 75
5, 35760, Note_on_c, 4, 56, 85
5, 35839, Note_on_c, 4, 56, 0
5, 35839, Note_on_c, 4, 60, 0
5, 35840, Note_on_c, 4, 60, 80
5, 35840, Note_on_c, 4, 56, 89
5, 35879, Note_on_c, 4, 56, 0
5, 35879, Note_on_c, 4, 60, 0
5, 36000, Note_on_c, 4, 60, 84
5, 36000, Note_on_c, 4, 56, 93
5, 36079, Note_on_c, 4, 56, 0
5, 36079, Note_on_c, 4, 60, 0
5, 36080, Note_on_c, 4, 60, 80
5, 36080, Note_on_c, 4, 56, 89
5, 36119, Note_on_c, 4, 56, 0
5, 36119, Note_on_c, 4, 60, 0
5, 36360, Note_on_c, 4, 72, 74
5, 36360, Note_on_c, 4, 68, 92
5, 36360, Note_on_c, 4, 63, 82
5, 36439, Note_on_c, 4, 63, 0
5, 36439, Note_on_c, 4, 68, 0
5, 36439, Note_on_c, 4, 72, 0
5, 36440, Note_on_c, 4, 72, 80
5, 36440, Note_on_c, 4, 63, 88
5, 36440, Note_on_c, 4, 68, 92
5, 36479, Note_on_c, 4, 68, 0
5, 36479, Note_on_c, 4, 63, 0
5, 36479, Note_on_c, 4, 72, 0
5, 36480, Note_on_c, 4, 60, 75
5, 36480, Note_on_c, 4, 56, 89
5, 36559, Note_on_c, 4, 56, 0
5, 36559, Note_on_c, 4, 60, 0
5, 36560, Note_on_c, 4, 56, 93
5, 36560, Note_on_c, 4, 60, 76
5, 36599, Note_on_c, 4, 60, 0
5, 36599, Note_on_c, 4, 56, 0
5, 36720, Note_on_c, 4, 60, 75
5, 36720, Note_on_c, 4, 56, 85
5, 36799, Note_on_c, 4, 56, 0
5, 36799, Note_on_c, 4, 60, 0
5, 36800, Note_on_c, 4, 60, 80
5, 36800, Note_on_c, 4, 56, 89
5, 36839, Note_on_c, 4, 56, 0
5, 36839, Note_on_c, 4, 60, 0
5, 36960, Note_on_c, 4, 60, 84
5, 36960, Note_on_c, 4, 56, 93
5, 37039, Note_on_c, 4, 56, 0
5, 37039, Note_on_c, 4, 60, 0
5, 37040, Note_on_c, 4, 60, 80
5, 37040, Note_on_c, 4, 56, 89
5, 37079, Note_on_c, 4, 56, 0
5, 37079, Note_on_c, 4, 60, 0
5, 37320, Note_on_c, 4, 72, 74
5, 37320, Note_on_c, 4, 68, 92
5, 37320, Note_on_c, 4, 63, 82
5, 37399, Note_on_c, 4, 63, 0
5, 37399, Note_on_c, 4, 68, 0
5, 37399, Note_on_c, 4, 72, 0
5, 37400, Note_on_c, 4, 72, 80
5, 37400, Note_on_c, 4, 63, 88
5, 37400, Note_on_c, 4, 68, 92
5, 37439, Note_on_c, 4, 68, 0
5, 37439, Note_on_c, 4, 63, 0
5, 37439, Note_on_c, 4, 72, 0
5, 37440, Note_on_c, 4, 60, 75
5, 37440, Note_on_c, 4, 56, 89
5, 37519, Note_on_c, 4, 56, 0
5, 37519, Note_on_c, 4, 60, 0
5, 37520, Note_on_c, 4, 56, 93
5, 37520, Note_on_c, 4, 60, 76
5, 37559, Note_on_c, 4, 60, 0
5, 37559, Note_on_c, 4, 56, 0
5, 37680, Note_on_c, 4, 60, 75
5, 37680, Note_on_c, 4, 56, 85
5, 37759, Note_on_c, 4, 56, 0
5, 37759, Note_on_c, 4, 60, 0
5, 37760, Note_on_c, 4, 60, 80
5, 37760, Note_on_c, 4, 56, 89
5, 37799, Note_on_c, 4, 56, 0
5, 37799, Note_on_c, 4, 60, 0
5, 37920, Note_on_c, 4, 60, 84
5, 37920, Note_on_c, 4, 56, 93
5, 37999, Note_on_c, 4, 56, 0
5, 37999, Note_on_c, 4, 60, 0
5, 38000, Note_on_c, 4, 60, 80
5, 38000, Note_on_c, 4, 56, 89
5, 38039, Note_on_c, 4, 56, 0
5, 38039, Note_on_c, 4, 60, 0
5, 38280, Note_on_c, 4, 72, 74
5, 38280, Note_on_c, 4, 68, 92
5, 38280, Note_on_c, 4, 63, 82
5, 38359, Note_on_c, 4, 63, 0
5, 38359, Note_on_c, 4, 68, 0
5, 38359, Note_on_c, 4, 72, 0
5, 38360, Note_on_c, 4, 72, 80
5, 38360, Note_on_c, 4, 63, 88
5, 38360, Note_on_c, 4, 68, 92
5, 38399, Note_on_c, 4, 68, 0
5, 38399, Note_on_c, 4, 63, 0
5, 38399, Note_on_c, 4, 72, 0
5, 38400, Note_on_c, 4, 60, 75
5, 38400, Note_on_c, 4, 56, 89
5, 38479, Note_on_c, 4, 56, 0
5, 38479, Note_on_c, 4, 60, 0
5, 38480, Note_on_c, 4, 56, 93
5, 38480, Note_on_c, 4, 60, 76
5, 38519, Note_on_c, 4, 60, 0
5, 38519, Note_on_c, 4, 56, 0
5, 38640, Note_on_c, 4, 60, 75
5, 38640, Note_on_c, 4, 56, 85
5, 38719, Note_on_c, 4, 56, 0
5, 38719, Note_on_c, 4, 60, 0
5, 38720, Note_on_c, 4, 60, 80
5, 38720, Note_on_c, 4, 56, 89
5, 38759, Note_on_c, 4, 56, 0
5, 38759, Note_on_c, 4, 60, 0
5, 38880, Note_on_c, 4, 60, 84
5, 38880, Note_on_c, 4, 56, 93
5, 38959, Note_on_c, 4, 56, 0
5, 38959, Note_on_c, 4, 60, 0
5, 38960, Note_on_c, 4, 60, 80
5, 38960, Note_on_c, 4, 56, 89
5, 38999, Note_on_c, 4, 56, 0
5, 38999, Note_on_c, 4, 60, 0
5, 39240, Note_on_c, 4, 72, 74
5, 39240, Note_on_c, 4, 68, 92
5, 39240, Note_on_c, 4, 63, 82
5, 39319, Note_on_c, 4, 63, 0
5, 39319, Note_on_c, 4, 68, 0
5, 39319, Note_on_c, 4, 72, 0
5, 39320, Note_on_c, 4, 72, 80
5, 39320, Note_on_c, 4, 63, 88
5, 39320, Note_on_c, 4, 68, 92
5, 39359, Note_on_c, 4, 68, 0
5, 39359, Note_on_c, 4, 63, 0
5, 39359, Note_on_c, 4, 72, 0
5, 39360, Note_on_c, 4, 60, 75
5, 39360, Note_on_c, 4, 56, 89
5, 39439, Note_on_c, 4, 56, 0
5, 39439, Note_on_c, 4, 60, 0
5, 39440, Note_on_c, 4, 56, 93
5, 39440, Note_on_c, 4, 60, 76
5, 39479, Note_on_c, 4, 60, 0
5, 39479, Note_on_c, 4, 56, 0
5, 39600, Note_on_c, 4, 60, 75
5, 39600, Note_on_c, 4, 56, 85
5, 39679, Note_on_c, 4, 56, 0
5, 39679, Note_on_c, 4, 60, 0
5, 39680, Note_on_c, 4, 60, 80
5, 39680, Note_on_c, 4, 56, 89
5, 39719, Note_on_c, 4, 56, 0
5, 39719, Note_on_c, 4, 60, 0
5, 39840, Note_on_c, 4, 60, 84
5, 39840, Note_on_c, 4, 56, 93
5, 39919, Note_on_c, 4, 56, 0
5, 39919, Note_on_c, 4, 60, 0
5, 39920, Note_on_c, 4, 60, 80
5, 39920, Note_on_c, 4, 56, 89
5, 39959, Note_on_c, 4, 56, 0
5, 39959, Note_on_c, 4, 60, 0
5, 40200, Note_on_c, 4, 72, 74
5, 40200, Note_on_c, 4, 68, 92
5, 40200, Note_on_c, 4, 63, 82
5, 40279, Note_on_c, 4, 63, 0
5, 40279, Note_on_c, 4, 68, 0
5, 40279, Note_on_c, 4, 72, 0
5, 40280, Note_on_c, 4, 72, 80
5, 40280, Note_on_c, 4, 63, 88
5, 40280, Note_on_c, 4, 68, 92
5, 40319, Note_on_c, 4, 68, 0
5, 40319, Note_on_c, 4, 63, 0
5, 40319, Note_on_c, 4, 72, 0
5, 40320, Note_on_c, 4, 60, 75
5, 40320, Note_on_c, 4, 56, 89
5, 40399, Note_on_c, 4, 56, 0
5, 40399, Note_on_c, 4, 60, 0
5, 40400, Note_on_c, 4, 56, 93
5, 40400, Note_on_c, 4, 60, 76
5, 40439, Note_on_c, 4, 60, 0
5, 40439, Note_on_c, 4, 56, 0
5, 40560, Note_on_c, 4, 60, 75
5, 40560, Note_on_c, 4, 56, 85
5, 40639, Note_on_c, 4, 56, 0
5, 40639, Note_on_c, 4, 60, 0
5, 40640, Note_on_c, 4, 60, 80
5, 40640, Note_on_c, 4, 56, 89
5, 40679, Note_on_c, 4, 56, 0
5, 40679, Note_on_c, 4, 60, 0
5, 40800, Note_on_c, 4, 60, 84
5, 40800, Note_on_c, 4, 56, 93
5, 40879, Note_on_c, 4, 56, 0
5, 40879, Note_on_c, 4, 60, 0
5, 40880, Note_on_c, 4, 60, 80
5, 40880, Note_on_c, 4, 56, 89
5, 40919, Note_on_c, 4, 56, 0
5, 40919, Note_on_c, 4, 60, 0
5, 41160, Note_on_c, 4, 72, 74
5, 41160, Note_on_c, 4, 68, 92
5, 41160, Note_on_c, 4, 63, 82
5, 41239, Note_on_c, 4, 63, 0
5, 41239, Note_on_c, 4, 68, 0
5, 41239, Note_on_c, 4, 72, 0
5, 41240, Note_on_c, 4, 72, 80
5, 41240, Note_on_c, 4, 63, 88
5, 41240, Note_on_c, 4, 68, 92
5, 41279, Note_on_c, 4, 68, 0
5, 41279, Note_on_c, 4, 63, 0
5, 41279, Note_on_c, 4, 72, 0
5, 41280, Note_on_c, 4, 60, 75
5, 41280, Note_on_c, 4, 56, 89
5, 41359, Note_on_c, 4, 56, 0
5, 41359, Note_on_c, 4, 60, 0
5, 41360, Note_on_c, 4, 56, 93
5, 41360, Note_on_c, 4, 60, 76
5, 41399, Note_on_c, 4, 60, 0
5, 41399, Note_on_c, 4, 56, 0
5, 41520, Note_on_c, 4, 60, 75
5, 41520, Note_on_c, 4, 56, 85
5, 41599, Note_on_c, 4, 56, 0
5, 41599, Note_on_c, 4, 60, 0
5, 41600, Note_on_c, 4, 60, 80
5, 41600, Note_on_c, 4, 56, 89
5, 41639, Note_on_c, 4, 56, 0
5, 41639, Note_on_c, 4, 60, 0
5, 41760, Note_on_c, 4, 60, 84
5, 41760, Note_on_c, 4, 56, 93
5, 41839, Note_on_c, 4, 56, 0
5, 41839, Note_on_c, 4, 60, 0
5, 41840, Note_on_c, 4, 60, 80
5, 41840, Note_on_c, 4, 56, 89
5, 41879, Note_on_c, 4, 56, 0
5, 41879, Note_on_c, 4, 60, 0
5, 42120, Note_on_c, 4, 72, 74
5, 42120, Note_on_c, 4, 68, 92
5, 42120, Note_on_c, 4, 63, 82
5, 42199, Note_on_c, 4, 63, 0
5, 42199, Note_on_c, 4, 68, 0
5, 42199, Note_on_c, 4, 72, 0
5, 42200, Note_on_c, 4, 72, 80
5, 42200, Note_on_c, 4, 63, 88
5, 42200, Note_on_c, 4, 68, 92
5, 42239, Note_on_c, 4, 68, 0
5, 42239, Note_on_c, 4, 63, 0
5, 42239, Note_on_c, 4, 72, 0
5, 42240, Note_on_c, 4, 60, 75
5, 42240, Note_on_c, 4, 56, 89
5, 42319, Note_on_c, 4, 56, 0
5, 42319, Note_on_c, 4, 60, 0
5, 42320, Note_on_c, 4, 56, 93
5, 42320, Note_on_c, 4, 60, 76
5, 42359, Note_on_c, 4, 60, 0
5, 42359, Note_on_c, 4, 56, 0
5, 42480, Note_on_c, 4, 60, 75
5, 42480, Note_on_c, 4, 56, 85
5, 42559, Note_on_c, 4, 56, 0
5, 42559, Note_on_c, 4, 60, 0
5, 42560, Note_on_c, 4, 60, 80
5, 42560, Note_on_c, 4, 56, 89
5, 42599, Note_on_c, 4, 56, 0
5, 42599, Note_on_c, 4, 60, 0
5, 42720, Note_on_c, 4, 60, 84
5, 42720, Note_on_c, 4, 56, 93
5, 42799, Note_on_c, 4, 56, 0
5, 42799, Note_on_c, 4, 60, 0
5, 42800, Note_on_c, 4, 60, 80
5, 42800, Note_on_c, 4, 56, 89
5, 42839, Note_on_c, 4, 56, 0
5, 42839, Note_on_c, 4, 60, 0
5, 43080, Note_on_c, 4, 72, 74
5, 43080, Note_on_c, 4, 68, 92
5, 43080, Note_on_c, 4, 63, 82
5, 43159, Note_on_c, 4, 63, 0
5, 43159, Note_on_c, 4, 68, 0
5, 43159, Note_on_c, 4, 72, 0
5, 43160, Note_on_c, 4, 72, 80
5, 43160, Note_on_c, 4, 63, 88
5, 43160, Note_on_c, 4, 68, 92
5, 43199, Note_on_c, 4, 68, 0
5, 43199, Note_on_c, 4, 63, 0
5, 43199, Note_on_c, 4, 72, 0
5, 43200, Note_on_c, 4, 60, 75
5, 43200, Note_on_c, 4, 56, 89
5, 43279, Note_on_c, 4, 56, 0
5, 43279, Note_on_c, 4, 60, 0
5, 43280, Note_on_c, 4, 56, 93
5, 43280, Note_on_c, 4, 60, 76
5, 43319, Note_on_c, 4, 60, 0
5, 43319, Note_on_c, 4, 56, 0
5, 43440, Note_on_c, 4, 60, 75
5, 43440, Note_on_c, 4, 56, 85
5, 43519, Note_on_c, 4, 56, 0
5, 43519, Note_on_c, 4, 60, 0
5, 43520, Note_on_c, 4, 60, 80
5, 43520, Note_on_c, 4, 56, 89
5, 43559, Note_on_c, 4, 56, 0
5, 43559, Note_on_c, 4, 60, 0
5, 43680, Note_on_c, 4, 60, 84
5, 43680, Note_on_c, 4, 56, 93
5, 43759, Note_on_c, 4, 56, 0
5, 43759, Note_on_c, 4, 60, 0
5, 43760, Note_on_c, 4, 60, 80
5, 43760, Note_on_c, 4, 56, 89
5, 43799, Note_on_c, 4, 56, 0
5, 43799, Note_on_c, 4, 60, 0
5, 44040, Note_on_c, 4, 72, 74
5, 44040, Note_on_c, 4, 68, 92
5, 44040, Note_on_c, 4, 63, 82
5, 44119, Note_on_c, 4, 63, 0
5, 44119, Note_on_c, 4, 68, 0
5, 44119, Note_on_c, 4, 72, 0
5, 44120, Note_on_c, 4, 72, 80
5, 44120, Note_on_c, 4, 63, 88
5, 44120, Note_on_c, 4, 68, 92
5, 44159, Note_on_c, 4, 68, 0
5, 44159, Note_on_c, 4, 63, 0
5, 44159, Note_on_c, 4, 72, 0
5, 44160, Note_on_c, 4, 60, 75
5, 44160, Note_on_c, 4, 56, 89
5, 44239, Note_on_c, 4, 56, 0
5, 44239, Note_on_c, 4, 60, 0
5, 44240, Note_on_c, 4, 56, 93
5, 44240, Note_on_c, 4, 60, 76
5, 44279, Note_on_c, 4, 60, 0
5, 44279, Note_on_c, 4, 56, 0
5, 44400, Note_on_c, 4, 60, 75
5, 44400, Note_on_c, 4, 56, 85
5, 44479, Note_on_c, 4, 56, 0
5, 44479, Note_on_c, 4, 60, 0
5, 44480, Note_on_c, 4, 60, 80
5, 44480, Note_on_c, 4, 56, 89
5, 44519, Note_on_c, 4, 56, 0
5, 44519, Note_on_c, 4, 60, 0
5, 44640, Note_on_c, 4, 60, 84
5, 44640, Note_on_c, 4, 56, 93
5, 44719, Note_on_c, 4, 56, 0
5, 44719, Note_on_c, 4, 60, 0
5, 44720, Note_on_c, 4, 60, 80
5, 44720, Note_on_c, 4, 56, 89
5, 44759, Note_on_c, 4, 56, 0
5, 44759, Note_on_c, 4, 60, 0
5, 45000, Note_on_c, 4, 72, 74
5, 45000, Note_on_c, 4, 68, 92
5, 45000, Note_on_c, 4, 63, 82
5, 45079, Note_on_c, 4, 63, 0
5, 45079, Note_on_c, 4, 68, 0
5, 45079, Note_on_c, 4, 72, 0
5, 45080, Note_on_c, 4, 72, 80
5, 45080, Note_on_c, 4, 63, 88
5, 45080, Note_on_c, 4, 68, 92
5, 45119, Note_on_c, 4, 68, 0
5, 45119, Note_on_c, 4, 63, 0
5, 45119, Note_on_c, 4, 72, 0
5, 45120, Note_on_c, 4, 60, 83
5, 45120, Note_on_c, 4, 56, 88
5, 45199, Note_on_c, 4, 56, 0
5, 45199, Note_on_c, 4, 60, 0
5, 45200, Note_on_c, 4, 56, 93
5, 45200, Note_on_c, 4, 60, 84
5, 45239, Note_on_c, 4, 60, 0
5, 45239, Note_on_c, 4, 56, 0
5, 45360, Note_on_c, 4, 60, 79
5, 45360, Note_on_c, 4, 56, 93
5, 45439, Note_on_c, 4, 56, 0
5, 45439, Note_on_c, 4, 60, 0
5, 45440, Note_on_c, 4, 60, 83
5, 45440, Note_on_c, 4, 56, 89
5, 45479, Note_on_c, 4, 56, 0
5, 45479, Note_on_c, 4, 60, 0
5, 45600, Note_on_c, 4, 60, 80
5, 45600, Note_on_c, 4, 56, 92
5, 45679, Note_on_c, 4, 56, 0
5, 45679, Note_on_c, 4, 60, 0
5, 45680, Note_on_c, 4, 56, 101
5, 45680, Note_on_c, 4, 60, 68
5, 45719, Note_on_c, 4, 60, 0
5, 45719, Note_on_c, 4, 56, 0
5, 45840, Note_on_c, 4, 60, 83
5, 45840, Note_on_c, 4, 56, 93
5, 45919, Note_on_c, 4, 56, 0
5, 45919, Note_on_c, 4, 60, 0
5, 45920, Note_on_c, 4, 60, 84
5, 45920, Note_on_c, 4, 56, 92
5, 45959, Note_on_c, 4, 56, 0
5, 45959, Note_on_c, 4, 60, 0
5, 46080, Note_on_c, 4, 60, 83
5, 46080, Note_on_c, 4, 56, 88
5, 46159, Note_on_c, 4, 56, 0
5, 46159, Note_on_c, 4, 60, 0
5, 46160, Note_on_c, 4, 56, 93
5, 46160, Note_on_c, 4, 60, 84
5, 46199, Note_on_c, 4, 60, 0
5, 46199, Note_on_c, 4, 56, 0
5, 46320, Note_on_c, 4, 60, 79
5, 46320, Note_on_c, 4, 56, 93
5, 46399, Note_on_c, 4, 56, 0
5, 46399, Note_on_c, 4, 60, 0
5, 46400, Note_on_c, 4, 60, 83
5, 46400, Note_on_c, 4, 56, 89
5, 46439, Note_on_c, 4, 56, 0
5, 46439, Note_on_c, 4, 60, 0
5, 46560, Note_on_c, 4, 60, 80
5, 46560, Note_on_c, 4, 56, 92
5, 46639, Note_on_c, 4, 56, 0
5, 46639, Note_on_c, 4, 60, 0
5, 46640, Note_on_c, 4, 56, 101
5, 46640, Note_on_c, 4, 60, 68
5, 46679, Note_on_c, 4, 60, 0
5, 46679, Note_on_c, 4, 56, 0
5, 46800, Note_on_c, 4, 60, 83
5, 46800, Note_on_c, 4, 56, 93
5, 46879, Note_on_c, 4, 56, 0
5, 46879, Note_on_c, 4, 60, 0
5, 46880, Note_on_c, 4, 60, 84
5, 46880, Note_on_c, 4, 56, 92
5, 46919, Note_on_c, 4, 56, 0
5, 46919, Note_on_c, 4, 60, 0
5, 47040, Note_on_c, 4, 56, 93
5, 47040, Note_on_c, 4, 60, 74
5, 47099, Note_on_c, 4, 60, 0
5, 47099, Note_on_c, 4, 56, 0
5, 47120, Note_on_c, 4, 60, 84
5, 47120, Note_on_c, 4, 56, 92
5, 47179, Note_on_c, 4, 56, 0
5, 47179, Note_on_c, 4, 60, 0
5, 47280, Note_on_c, 4, 60, 84
5, 47280, Note_on_c, 4, 56, 93
5, 47359, Note_on_c, 4, 56, 0
5, 47359, Note_on_c, 4, 60, 0
5, 47360, Note_on_c, 4, 56, 92
5, 47360, Note_on_c, 4, 60, 79
5, 47399, Note_on_c, 4, 60, 0
5, 47399, Note_on_c, 4, 56, 0
5, 47520, Note_on_c, 4, 60, 84
5, 47520, Note_on_c, 4, 56, 89
5, 47599, Note_on_c, 4, 56, 0
5, 47599, Note_on_c, 4, 60, 0
5, 47600, Note_on_c, 4, 56, 100
5, 47600, Note_on_c, 4, 60, 78
5, 47639, Note_on_c, 4, 60, 0
5, 47639, Note_on_c, 4, 56, 0
5, 47760, Note_on_c, 4, 56, 85
5, 47760, Note_on_c, 4, 60, 78
5, 47839, Note_on_c, 4, 60, 0
5, 47839, Note_on_c, 4, 56, 0
5, 47840, Note_on_c, 4, 56, 89
5, 47840, Note_on_c, 4, 60, 83
5, 47879, Note_on_c, 4, 60, 0
5, 47879, Note_on_c, 4, 56, 0
5, 48000, Note_on_c, 4, 56, 93
5, 48000, Note_on_c, 4, 60, 74
5, 48059, Note_on_c, 4, 60, 0
5, 48059, Note_on_c, 4, 56, 0
5, 48080, Note_on_c, 4, 60, 84
5, 48080, Note_on_c, 4, 56, 92
5, 48139, Note_on_c, 4, 56, 0
5, 48139, Note_on_c, 4, 60, 0
5, 48240, Note_on_c, 4, 60, 84
5, 48240, Note_on_c, 4, 56, 93
5, 48319, Note_on_c, 4, 56, 0
5, 48319, Note_on_c, 4, 60, 0
5, 48320, Note_on_c, 4, 56, 92
5, 48320, Note_on_c, 4, 60, 79
5, 48359, Note_on_c, 4, 60, 0
5, 48359, Note_on_c, 4, 56, 0
5, 48480, Note_on_c, 4, 60, 84
5, 48480, Note_on_c, 4, 56, 89
5, 48559, Note_on_c, 4, 56, 0
5, 48559, Note_on_c, 4, 60, 0
5, 48560, Note_on_c, 4, 56, 100
5, 48560, Note_on_c, 4, 60, 78
5, 48599, Note_on_c, 4, 60, 0
5, 48599, Note_on_c, 4, 56, 0
5, 48720, Note_on_c, 4, 56, 85
5, 48720, Note_on_c, 4, 60, 78
5, 48799, Note_on_c, 4, 60, 0
5, 48799, Note_on_c, 4, 56, 0
5, 48800, Note_on_c, 4, 56, 89
5, 48800, Note_on_c, 4, 60, 83
5, 48839, Note_on_c, 4, 60, 0
5, 48839, Note_on_c, 4, 56, 0
5, 48960, Note_on_c, 4, 56, 93
5, 48960, Note_on_c, 4, 60, 74
5, 49019, Note_on_c, 4, 60, 0
5, 49019, Note_on_c, 4, 56, 0
5, 49040, Note_on_c, 4, 60, 84
5, 49040, Note_on_c, 4, 56, 92
5, 49099, Note_on_c, 4, 56, 0
5, 49099, Note_on_c, 4, 60, 0
5, 49200, Note_on_c, 4, 60, 84
5, 49200, Note_on_c, 4, 56, 93
5, 49279, Note_on_c, 4, 56, 0
5, 49279, Note_on_c, 4, 60, 0
5, 49280, Note_on_c, 4, 56, 92
5, 49280, Note_on_c, 4, 60, 79
5, 49319, Note_on_c, 4, 60, 0
5, 49319, Note_on_c, 4, 56, 0
5, 49440, Note_on_c, 4, 60, 84
5, 49440, Note_on_c, 4, 56, 89
5, 49519, Note_on_c, 4, 56, 0
5, 49519, Note_on_c, 4, 60, 0
5, 49520, Note_on_c, 4, 56, 100
5, 49520, Note_on_c, 4, 60, 78
5, 49559, Note_on_c, 4, 60, 0
5, 49559, Note_on_c, 4, 56, 0
5, 49680, Note_on_c, 4, 56, 85
5, 49680, Note_on_c, 4, 60, 78
5, 49759, Note_on_c, 4, 60, 0
5, 49759, Note_on_c, 4, 56, 0
5, 49760, Note_on_c, 4, 56, 89
5, 49760, Note_on_c, 4, 60, 83
5, 49799, Note_on_c, 4, 60, 0
5, 49799, Note_on_c, 4, 56, 0
5, 49920, Note_on_c, 4, 56, 93
5, 49920, Note_on_c, 4, 60, 74
5, 49979, Note_on_c, 4, 60, 0
5, 49979, Note_on_c, 4, 56, 0
5, 50000, Note_on_c, 4, 60, 84
5, 50000, Note_on_c, 4, 56, 92
5, 50059, Note_on_c, 4, 56, 0
5, 50059, Note_on_c, 4, 60, 0
5, 50160, Note_on_c, 4, 60, 84
5, 50160, Note_on_c, 4, 56, 93
5, 50239, Note_on_c, 4, 56, 0
5, 50239, Note_on_c, 4, 60, 0
5, 50240, Note_on_c, 4, 56, 92
5, 50240, Note_on_c, 4, 60, 79
5, 50279, Note_on_c, 4, 60, 0
5, 50279, Note_on_c, 4, 56, 0
5, 50400, Note_on_c, 4, 60, 84
5, 50400, Note_on_c, 4, 56, 89
5, 50479, Note_on_c, 4, 56, 0
5, 50479, Note_on_c, 4, 60, 0
5, 50480, Note_on_c, 4, 56, 100
5, 50480, Note_on_c, 4, 60, 78
5, 50519, Note_on_c, 4, 60, 0
5, 50519, Note_on_c, 4, 56, 0
5, 50640, Note_on_c, 4, 56, 85
5, 50640, Note_on_c, 4, 60, 78
5, 50719, Note_on_c, 4, 60, 0
5, 50719, Note_on_c, 4, 56, 0
5, 50720, Note_on_c, 4, 56, 89
5, 50720, Note_on_c, 4, 60, 83
5, 50759, Note_on_c, 4, 60, 0
5, 50759, Note_on_c, 4, 56, 0
5, 50880, Note_on_c, 4, 56, 93
5, 50880, Note_on_c, 4, 60, 74
5, 50939, Note_on_c, 4, 60, 0
5, 50939, Note_on_c, 4, 56, 0
5, 50960, Note_on_c, 4, 60, 84
5, 50960, Note_on_c, 4, 56, 92
5, 51019, Note_on_c, 4, 56, 0
5, 51019, Note_on_c, 4, 60, 0
5, 51120, Note_on_c, 4, 60, 84
5, 51120, Note_on_c, 4, 56, 93
5, 51199, Note_on_c, 4, 56, 0
5, 51199, Note_on_c, 4, 60, 0
5, 51200, Note_on_c, 4, 56, 92
5, 51200, Note_on_c, 4, 60, 79
5, 51239, Note_on_c, 4, 60, 0
5, 51239, Note_on_c, 4, 56, 0
5, 51360, Note_on_c, 4, 56, 85
5, 51360, Note_on_c, 4, 60, 84
5, 51439, Note_on_c, 4, 60, 0
5, 51439, Note_on_c, 4, 56, 0
5, 51440, Note_on_c, 4, 56, 100
5, 51440, Note_on_c, 4, 60, 80
5, 51479, Note_on_c, 4, 60, 0
5, 51479, Note_on_c, 4, 56, 0
5, 51720, Note_on_c, 4, 72, 64
5, 51720, Note_on_c, 4, 63, 80
5, 51720, Note_on_c, 4, 68, 79
5, 51799, Note_on_c, 4, 68, 0
5, 51799, Note_on_c, 4, 63, 0
5, 51799, Note_on_c, 4, 72, 0
5, 51800, Note_on_c, 4, 72, 68
5, 51800, Note_on_c, 4, 63, 80
5, 51800, Note_on_c, 4, 68, 92
5, 51839, Note_on_c, 4, 68, 0
5, 51839, Note_on_c, 4, 63, 0
5, 51839, Note_on_c, 4, 72, 0
5, 51840, Note_on_c, 4, 56, 93
5, 51840, Note_on_c, 4, 60, 74
5, 51899, Note_on_c, 4, 60, 0
5, 51899, Note_on_c, 4, 56, 0
5, 51920, Note_on_c, 4, 60, 84
5, 51920, Note_on_c, 4, 56, 92
5, 51979, Note_on_c, 4, 56, 0
5, 51979, Note_on_c, 4, 60, 0
5, 52080, Note_on_c, 4, 60, 84
5, 52080, Note_on_c, 4, 56, 93
5, 52159, Note_on_c, 4, 56, 0
5, 52159, Note_on_c, 4, 60, 0
5, 52160, Note_on_c, 4, 56, 92
5, 52160, Note_on_c, 4, 60, 79
5, 52199, Note_on_c, 4, 60, 0
5, 52199, Note_on_c, 4, 56, 0
5, 52320, Note_on_c, 4, 56, 85
5, 52320, Note_on_c, 4, 60, 84
5, 52399, Note_on_c, 4, 60, 0
5, 52399, Note_on_c, 4, 56, 0
5, 52400, Note_on_c, 4, 56, 100
5, 52400, Note_on_c, 4, 60, 80
5, 52439, Note_on_c, 4, 60, 0
5, 52439, Note_on_c, 4, 56, 0
5, 52680, Note_on_c, 4, 72, 64
5, 52680, Note_on_c, 4, 63, 80
5, 52680, Note_on_c, 4, 68, 79
5, 52759, Note_on_c, 4, 68, 0
5, 52759, Note_on_c, 4, 63, 0
5, 52759, Note_on_c, 4, 72, 0
5, 52760, Note_on_c, 4, 72, 68
5, 52760, Note_on_c, 4, 63, 80
5, 52760, Note_on_c, 4, 68, 92
5, 52799, Note_on_c, 4, 68, 0
5, 52799, Note_on_c, 4, 63, 0
5, 52799, Note_on_c, 4, 72, 0
5, 52800, Note_on_c, 4, 56, 93
5, 52800, Note_on_c, 4, 60, 74
5, 52859, Note_on_c, 4, 60, 0
5, 52859, Note_on_c, 4, 56, 0
5, 52880, Note_on_c, 4, 60, 84
5, 52880, Note_on_c, 4, 56, 92
5, 52939, Note_on_c, 4, 56, 0
5, 52939, Note_on_c, 4, 60, 0
5, 53040, Note_on_c, 4, 60, 84
5, 53040, Note_on_c, 4, 56, 93
5, 53119, Note_on_c, 4, 56, 0
5, 53119, Note_on_c, 4, 60, 0
5, 53120, Note_on_c, 4, 56, 92
5, 53120, Note_on_c, 4, 60, 79
5, 53159, Note_on_c, 4, 60, 0
5, 53159, Note_on_c, 4, 56, 0
5, 53280, Note_on_c, 4, 56, 85
5, 53280, Note_on_c, 4, 60, 84
5, 53359, Note_on_c, 4, 60, 0
5, 53359, Note_on_c, 4, 56, 0
5, 53360, Note_on_c, 4, 56, 100
5, 53360, Note_on_c, 4, 60, 80
5, 53399, Note_on_c, 4, 60, 0
5, 53399, Note_on_c, 4, 56, 0
5, 53640, Note_on_c, 4, 72, 64
5, 53640, Note_on_c, 4, 63, 80
5, 53640, Note_on_c, 4, 68, 79
5, 53719, Note_on_c, 4, 68, 0
5, 53719, Note_on_c, 4, 63, 0
5, 53719, Note_on_c, 4, 72, 0
5, 53720, Note_on_c, 4, 72, 68
5, 53720, Note_on_c, 4, 63, 80
5, 53720, Note_on_c, 4, 68, 92
5, 53759, Note_on_c, 4, 68, 0
5, 53759, Note_on_c, 4, 63, 0
5, 53759, Note_on_c, 4, 72, 0
5, 53760, Note_on_c, 4, 56, 93
5, 53760, Note_on_c, 4, 60, 74
5, 53819, Note_on_c, 4, 60, 0
5, 53819, Note_on_c, 4, 56, 0
5, 53840, Note_on_c, 4, 60, 84
5, 53840, Note_on_c, 4, 56, 92
5, 53899, Note_on_c, 4, 56, 0
5, 53899, Note_on_c, 4, 60, 0
5, 54000, Note_on_c, 4, 60, 84
5, 54000, Note_on_c, 4, 56, 93
5, 54079, Note_on_c, 4, 56, 0
5, 54079, Note_on_c, 4, 60, 0
5, 54080, Note_on_c, 4, 56, 92
5, 54080, Note_on_c, 4, 60, 79
5, 54119, Note_on_c, 4, 60, 0
5, 54119, Note_on_c, 4, 56, 0
5, 54240, Note_on_c, 4, 56, 85
5, 54240, Note_on_c, 4, 60, 84
5, 54319, Note_on_c, 4, 60, 0
5, 54319, Note_on_c, 4, 56, 0
5, 54320, Note_on_c, 4, 56, 100
5, 54320, Note_on_c, 4, 60, 80
5, 54359, Note_on_c, 4, 60, 0
5, 54359, Note_on_c, 4, 56, 0
5, 54600, Note_on_c, 4, 72, 64
5, 54600, Note_on_c, 4, 63, 80
5, 54600, Note_on_c, 4, 68, 79
5, 54679, Note_on_c, 4, 68, 0
5, 54679, Note_on_c, 4, 63, 0
5, 54679, Note_on_c, 4, 72, 0
5, 54680, Note_on_c, 4, 72, 68
5, 54680, Note_on_c, 4, 63, 80
5, 54680, Note_on_c, 4, 68, 92
5, 54719, Note_on_c, 4, 68, 0
5, 54719, Note_on_c, 4, 63, 0
5, 54719, Note_on_c, 4, 72, 0
5, 54720, Note_on_c, 4, 56, 93
5, 54720, Note_on_c, 4, 60, 74
5, 54779, Note_on_c, 4, 60, 0
5, 54779, Note_on_c, 4, 56, 0
5, 54800, Note_on_c, 4, 60, 84
5, 54800, Note_on_c, 4, 56, 92
5, 54859, Note_on_c, 4, 56, 0
5, 54859, Note_on_c, 4, 60, 0
5, 54960, Note_on_c, 4, 60, 84
5, 54960, Note_on_c, 4, 56, 93
5, 55039, Note_on_c, 4, 56, 0
5, 55039, Note_on_c, 4, 60, 0
5, 55040, Note_on_c, 4, 56, 92
5, 55040, Note_on_c, 4, 60, 79
5, 55079, Note_on_c, 4, 60, 0
5, 55079, Note_on_c, 4, 56, 0
5, 55200, Note_on_c, 4, 60, 84
5, 55200, Note_on_c, 4, 56, 89
5, 55279, Note_on_c, 4, 56, 0
5, 55279, Note_on_c, 4, 60, 0
5, 55280, Note_on_c, 4, 56, 100
5, 55280, Note_on_c, 4, 60, 78
5, 55319, Note_on_c, 4, 60, 0
5, 55319, Note_on_c, 4, 56, 0
5, 55440, Note_on_c, 4, 56, 85
5, 55440, Note_on_c, 4, 60, 78
5, 55519, Note_on_c, 4, 60, 0
5, 55519, Note_on_c, 4, 56, 0
5, 55520, Note_on_c, 4, 56, 89
5, 55520, Note_on_c, 4, 60, 83
5, 55559, Note_on_c, 4, 60, 0
5, 55559, Note_on_c, 4, 56, 0
5, 55680, Note_on_c, 4, 56, 93
5, 55680, Note_on_c, 4, 60, 74
5, 55739, Note_on_c, 4, 60, 0
5, 55739, Note_on_c, 4, 56, 0
5, 55760, Note_on_c, 4, 60, 84
5, 55760, Note_on_c, 4, 56, 92
5, 55819, Note_on_c, 4, 56, 0
5, 55819, Note_on_c, 4, 60, 0
5, 55920, Note_on_c, 4, 60, 84
5, 55920, Note_on_c, 4, 56, 93
5, 55999, Note_on_c, 4, 56, 0
5, 55999, Note_on_c, 4, 60, 0
5, 56000, Note_on_c, 4, 56, 92
5, 56000, Note_on_c, 4, 60, 79
5, 56039, Note_on_c, 4, 60, 0
5, 56039, Note_on_c, 4, 56, 0
5, 56160, Note_on_c, 4, 60, 84
5, 56160, Note_on_c, 4, 56, 89
5, 56239, Note_on_c, 4, 56, 0
5, 56239, Note_on_c, 4, 60, 0
5, 56240, Note_on_c, 4, 56, 100
5, 56240, Note_on_c, 4, 60, 78
5, 56279, Note_on_c, 4, 60, 0
5, 56279, Note_on_c, 4, 56, 0
5, 56400, Note_on_c, 4, 56, 85
5, 56400, Note_on_c, 4, 60, 78
5, 56479, Note_on_c, 4, 60, 0
5, 56479, Note_on_c, 4, 56, 0
5, 56480, Note_on_c, 4, 56, 89
5, 56480, Note_on_c, 4, 60, 83
5, 56519, Note_on_c, 4, 60, 0
5, 56519, Note_on_c, 4, 56, 0
5, 56640, Note_on_c, 4, 56, 93
5, 56640, Note_on_c, 4, 60, 74
5, 56699, Note_on_c, 4, 60, 0
5, 56699, Note_on_c, 4, 56, 0
5, 56720, Note_on_c, 4, 60, 84
5, 56720, Note_on_c, 4, 56, 92
5, 56779, Note_on_c, 4, 56, 0
5, 56779, Note_on_c, 4, 60, 0
5, 56880, Note_on_c, 4, 60, 84
5, 56880, Note_on_c, 4, 56, 93
5, 56959, Note_on_c, 4, 56, 0
5, 56959, Note_on_c, 4, 60, 0
5, 56960, Note_on_c, 4, 56, 92
5, 56960, Note_on_c, 4, 60, 79
5, 56999, Note_on_c, 4, 60, 0
5, 56999, Note_on_c, 4, 56, 0
5, 57120, Note_on_c, 4, 56, 85
5, 57120, Note_on_c, 4, 60, 84
5, 57199, Note_on_c, 4, 60, 0
5, 57199, Note_on_c, 4, 56, 0
5, 57200, Note_on_c, 4, 56, 100
5, 57200, Note_on_c, 4, 60, 80
5, 57239, Note_on_c, 4, 60, 0
5, 57239, Note_on_c, 4, 56, 0
5, 57480, Note_on_c, 4, 72, 64
5, 57480, Note_on_c, 4, 63, 80
5, 57480, Note_on_c, 4, 68, 79
5, 57559, Note_on_c, 4, 68, 0
5, 57559, Note_on_c, 4, 63, 0
5, 57559, Note_on_c, 4, 72, 0
5, 57560, Note_on_c, 4, 72, 68
5, 57560, Note_on_c, 4, 63, 80
5, 57560, Note_on_c, 4, 68, 92
5, 57599, Note_on_c, 4, 68, 0
5, 57599, Note_on_c, 4, 63, 0
5, 57599, Note_on_c, 4, 72, 0
5, 57600, Note_on_c, 4, 56, 93
5, 57600, Note_on_c, 4, 60, 74
5, 57659, Note_on_c, 4, 60, 0
5, 57659, Note_on_c, 4, 56, 0
5, 57680, Note_on_c, 4, 60, 84
5, 57680, Note_on_c, 4, 56, 92
5, 57739, Note_on_c, 4, 56, 0
5, 57739, Note_on_c, 4, 60, 0
5, 57840, Note_on_c, 4, 60, 84
5, 57840, Note_on_c, 4, 56, 93
5, 57919, Note_on_c, 4, 56, 0
5, 57919, Note_on_c, 4, 60, 0
5, 57920, Note_on_c, 4, 56, 92
5, 57920, Note_on_c, 4, 60, 79
5, 57959, Note_on_c, 4, 60, 0
5, 57959, Note_on_c, 4, 56, 0
5, 58080, Note_on_c, 4, 56, 85
5, 58080, Note_on_c, 4, 60, 84
5, 58159, Note_on_c, 4, 60, 0
5, 58159, Note_on_c, 4, 56, 0
5, 58160, Note_on_c, 4, 56, 100
5, 58160, Note_on_c, 4, 60, 80
5, 58199, Note_on_c, 4, 60, 0
5, 58199, Note_on_c, 4, 56, 0
5, 58440, Note_on_c, 4, 72, 64
5, 58440, Note_on_c, 4, 63, 80
5, 58440, Note_on_c, 4, 68, 79
5, 58519, Note_on_c, 4, 68, 0
5, 58519, Note_on_c, 4, 63, 0
5, 58519, Note_on_c, 4, 72, 0
5, 58520, Note_on_c, 4, 72, 68
5, 58520, Note_on_c, 4, 63, 80
5, 58520, Note_on_c, 4, 68, 92
5, 58559, Note_on_c, 4, 68, 0
5, 58559, Note_on_c, 4, 63, 0
5, 58559, Note_on_c, 4, 72, 0
5, 58560, Note_on_c, 4, 56, 93
5, 58560, Note_on_c, 4, 60, 74
5, 58619, Note_on_c, 4, 60, 0
5, 58619, Note_on_c, 4, 56, 0
5, 58640, Note_on_c, 4, 60, 84
5, 58640, Note_on_c, 4, 56, 92
5, 58699, Note_on_c, 4, 56, 0
5, 58699, Note_on_c, 4, 60, 0
5, 58800, Note_on_c, 4, 60, 84
5, 58800, Note_on_c, 4, 56, 93
5, 58879, Note_on_c, 4, 56, 0
5, 58879, Note_on_c, 4, 60, 0
5, 58880, Note_on_c, 4, 56, 92
5, 58880, Note_on_c, 4, 60, 79
5, 58919, Note_on_c, 4, 60, 0
5, 58919, Note_on_c, 4, 56, 0
5, 59040, Note_on_c, 4, 56, 85
5, 59040, Note_on_c, 4, 60, 84
5, 59119, Note_on_c, 4, 60, 0
5, 59119, Note_on_c, 4, 56, 0
5, 59120, Note_on_c, 4, 56, 100
5, 59120, Note_on_c, 4, 60, 80
5, 59159, Note_on_c, 4, 60, 0
5, 59159, Note_on_c, 4, 56, 0
5, 59400, Note_on_c, 4, 72, 64
5, 59400, Note_on_c, 4, 63, 80
5, 59400, Note_on_c, 4, 68, 79
5, 59479, Note_on_c, 4, 68, 0
5, 59479, Note_on_c, 4, 63, 0
5, 59479, Note_on_c, 4, 72, 0
5, 59480, Note_on_c, 4, 72, 68
5, 59480, Note_on_c, 4, 63, 80
5, 59480, Note_on_c, 4, 68, 92
5, 59519, Note_on_c, 4, 68, 0
5, 59519, Note_on_c, 4, 63, 0
5, 59519, Note_on_c, 4, 72, 0
5, 59520, Note_on_c, 4, 56, 93
5, 59520, Note_on_c, 4, 60, 74
5, 59579, Note_on_c, 4, 60, 0
5, 59579, Note_on_c, 4, 56, 0
5, 59600, Note_on_c, 4, 60, 84
5, 59600, Note_on_c, 4, 56, 92
5, 59659, Note_on_c, 4, 56, 0
5, 59659, Note_on_c, 4, 60, 0
5, 59760, Note_on_c, 4, 60, 84
5, 59760, Note_on_c, 4, 56, 93
5, 59839, Note_on_c, 4, 56, 0
5, 59839, Note_on_c, 4, 60, 0
5, 59840, Note_on_c, 4, 56, 92
5, 59840, Note_on_c, 4, 60, 79
5, 59879, Note_on_c, 4, 60, 0
5, 59879, Note_on_c, 4, 56, 0
5, 60000, Note_on_c, 4, 56, 85
5, 60000, Note_on_c, 4, 60, 84
5, 60079, Note_on_c, 4, 60, 0
5, 60079, Note_on_c, 4, 56, 0
5, 60080, Note_on_c, 4, 56, 100
5, 60080, Note_on_c, 4, 60, 80
5, 60119, Note_on_c, 4, 60, 0
5, 60119, Note_on_c, 4, 56, 0
5, 60360, Note_on_c, 4, 72, 64
5, 60360, Note_on_c, 4, 63, 80
5, 60360, Note_on_c, 4, 68, 79
5, 60439, Note_on_c, 4, 68, 0
5, 60439, Note_on_c, 4, 63, 0
5, 60439, Note_on_c, 4, 72, 0
5, 60440, Note_on_c, 4, 72, 68
5, 60440, Note_on_c, 4, 63, 80
5, 60440, Note_on_c, 4, 68, 92
5, 60479, Note_on_c, 4, 68, 0
5, 60479, Note_on_c, 4, 63, 0
5, 60479, Note_on_c, 4, 72, 0
5, 60480, Note_on_c, 4, 56, 93
5, 60480, Note_on_c, 4, 60, 74
5, 60539, Note_on_c, 4, 60, 0
5, 60539, Note_on_c, 4, 56, 0
5, 60560, Note_on_c, 4, 60, 84
5, 60560, Note_on_c, 4, 56, 92
5, 60619, Note_on_c, 4, 56, 0
5, 60619, Note_on_c, 4, 60, 0
5, 60720, Note_on_c, 4, 60, 84
5, 60720, Note_on_c, 4, 56, 93
5, 60799, Note_on_c, 4, 56, 0
5, 60799, Note_on_c, 4, 60, 0
5, 60800, Note_on_c, 4, 56, 92
5, 60800, Note_on_c, 4, 60, 79
5, 60839, Note_on_c, 4, 60, 0
5, 60839, Note_on_c, 4, 56, 0
5, 60960, Note_on_c, 4, 56, 85
5, 60960, Note_on_c, 4, 60, 84
5, 61039, Note_on_c, 4, 60, 0
5, 61039, Note_on_c, 4, 56, 0
5, 61040, Note_on_c, 4, 56, 100
5, 61040, Note_on_c, 4, 60, 80
5, 61079, Note_on_c, 4, 60, 0
5, 61079, Note_on_c, 4, 56, 0
5, 61320, Note_on_c, 4, 72, 64
5, 61320, Note_on_c, 4, 63, 80
5, 61320, Note_on_c, 4, 68, 79
5, 61399, Note_on_c, 4, 68, 0
5, 61399, Note_on_c, 4, 63, 0
5, 61399, Note_on_c, 4, 72, 0
5, 61400, Note_on_c, 4, 72, 68
5, 61400, Note_on_c, 4, 63, 80
5, 61400, Note_on_c, 4, 68, 92
5, 61439, Note_on_c, 4, 68, 0
5, 61439, Note_on_c, 4, 63, 0
5, 61439, Note_on_c, 4, 72, 0
5, 61440, Note_on_c, 4, 56, 93
5, 61440, Note_on_c, 4, 60, 74
5, 61499, Note_on_c, 4, 60, 0
5, 61499, Note_on_c, 4, 56, 0
5, 61520, Note_on_c, 4, 60, 84
5, 61520, Note_on_c, 4, 56, 92
5, 61579, Note_on_c, 4, 56, 0
5, 61579, Note_on_c, 4, 60, 0
5, 61680, Note_on_c, 4, 60, 84
5, 61680, Note_on_c, 4, 56, 93
5, 61759, Note_on_c, 4, 56, 0
5, 61759, Note_on_c, 4, 60, 0
5, 61760, Note_on_c, 4, 56, 92
5, 61760, Note_on_c, 4, 60, 79
5, 61799, Note_on_c, 4, 60, 0
5, 61799, Note_on_c, 4, 56, 0
5, 61920, Note_on_c, 4, 56, 85
5, 61920, Note_on_c, 4, 60, 84
5, 61999, Note_on_c, 4, 60, 0
5, 61999, Note_on_c, 4, 56, 0
5, 62000, Note_on_c, 4, 56, 100
5, 62000, Note_on_c, 4, 60, 80
5, 62039, Note_on_c, 4, 60, 0
5, 62039, Note_on_c, 4, 56, 0
5, 62280, Note_on_c, 4, 72, 64
5, 62280, Note_on_c, 4, 63, 80
5, 62280, Note_on_c, 4, 68, 79
5, 62359, Note_on_c, 4, 68, 0
5, 62359, Note_on_c, 4, 63, 0
5, 62359, Note_on_c, 4, 72, 0
5, 62360, Note_on_c, 4, 72, 68
5, 62360, Note_on_c, 4, 63, 80
5, 62360, Note_on_c, 4, 68, 92
5, 62399, Note_on_c, 4, 68, 0
5, 62399, Note_on_c, 4, 63, 0
5, 62399, Note_on_c, 4, 72, 0
5, 62400, Note_on_c, 4, 56, 93
5, 62400, Note_on_c, 4, 60, 74
5, 62459, Note_on_c, 4, 60, 0
5, 62459, Note_on_c, 4, 56, 0
5, 62480, Note_on_c, 4, 60, 84
5, 62480, Note_on_c, 4, 56, 92
5, 62539, Note_on_c, 4, 56, 0
5, 62539, Note_on_c, 4, 60, 0
5, 62640, Note_on_c, 4, 60, 84
5, 62640, Note_on_c, 4, 56, 93
5, 62719, Note_on_c, 4, 56, 0
5, 62719, Note_on_c, 4, 60, 0
5, 62720, Note_on_c, 4, 56, 92
5, 62720, Note_on_c, 4, 60, 79
5, 62759, Note_on_c, 4, 60, 0
5, 62759, Note_on_c, 4, 56, 0
5, 62880, Note_on_c, 4, 56, 85
5, 62880, Note_on_c, 4, 60, 84
5, 62959, Note_on_c, 4, 60, 0
5, 62959, Note_on_c, 4, 56, 0
5, 62960, Note_on_c, 4, 56, 100
5, 62960, Note_on_c, 4, 60, 80
5, 62999, Note_on_c, 4, 60, 0
5, 62999, Note_on_c, 4, 56, 0
5, 63240, Note_on_c, 4, 72, 64
5, 63240, Note_on_c, 4, 63, 80
5, 63240, Note_on_c, 4, 68, 79
5, 63319, Note_on_c, 4, 68, 0
5, 63319, Note_on_c, 4, 63, 0
5, 63319, Note_on_c, 4, 72, 0
5, 63320, Note_on_c, 4, 72, 68
5, 63320, Note_on_c, 4, 63, 80
5, 63320, Note_on_c, 4, 68, 92
5, 63359, Note_on_c, 4, 68, 0
5, 63359, Note_on_c, 4, 63, 0
5, 63359, Note_on_c, 4, 72, 0
5, 63360, Note_on_c, 4, 56, 93
5, 63360, Note_on_c, 4, 60, 74
5, 63419, Note_on_c, 4, 60, 0
5, 63419, Note_on_c, 4, 56, 0
5, 63440, Note_on_c, 4, 60, 84
5, 63440, Note_on_c, 4, 56, 92
5, 63499, Note_on_c, 4, 56, 0
5, 63499, Note_on_c, 4, 60, 0
5, 63600, Note_on_c, 4, 60, 84
5, 63600, Note_on_c, 4, 56, 93
5, 63679, Note_on_c, 4, 56, 0
5, 63679, Note_on_c, 4, 60, 0
5, 63680, Note_on_c, 4, 56, 92
5, 63680, Note_on_c, 4, 60, 79
5, 63719, Note_on_c, 4, 60, 0
5, 63719, Note_on_c, 4, 56, 0
5, 63840, Note_on_c, 4, 56, 85
5, 63840, Note_on_c, 4, 60, 84
5, 63919, Note_on_c, 4, 60, 0
5, 63919, Note_on_c, 4, 56, 0
5, 63920, Note_on_c, 4, 56, 100
5, 63920, Note_on_c, 4, 60, 80
5, 63959, Note_on_c, 4, 60, 0
5, 63959, Note_on_c, 4, 56, 0
5, 64200, Note_on_c, 4, 72, 64
5, 64200, Note_on_c, 4, 63, 80
5, 64200, Note_on_c, 4, 68, 79
5, 64279, Note_on_c, 4, 68, 0
5, 64279, Note_on_c, 4, 63, 0
5, 64279, Note_on_c, 4, 72, 0
5, 64280, Note_on_c, 4, 72, 68
5, 64280, Note_on_c, 4, 63, 80
5, 64280, Note_on_c, 4, 68, 92
5, 64319, Note_on_c, 4, 68, 0
5, 64319, Note_on_c, 4, 63, 0
5, 64319, Note_on_c, 4, 72, 0
5, 64320, Note_on_c, 4, 56, 93
5, 64320, Note_on_c, 4, 60, 74
5, 64379, Note_on_c, 4, 60, 0
5, 64379, Note_on_c, 4, 56, 0
5, 64400, Note_on_c, 4, 60, 84
5, 64400, Note_on_c, 4, 56, 92
5, 64459, Note_on_c, 4, 56, 0
5, 64459, Note_on_c, 4, 60, 0
5, 64560, Note_on_c, 4, 60, 84
5, 64560, Note_on_c, 4, 56, 93
5, 64639, Note_on_c, 4, 56, 0
5, 64639, Note_on_c, 4, 60, 0
5, 64640, Note_on_c, 4, 56, 92
5, 64640, Note_on_c, 4, 60, 79
5, 64679, Note_on_c, 4, 60, 0
5, 64679, Note_on_c, 4, 56, 0
5, 64800, Note_on_c, 4, 56, 85
5, 64800, Note_on_c, 4, 60, 84
5, 64879, Note_on_c, 4, 60, 0
5, 64879, Note_on_c, 4, 56, 0
5, 64880, Note_on_c, 4, 56, 100
5, 64880, Note_on_c, 4, 60, 80
5, 64919, Note_on_c, 4, 60, 0
5, 64919, Note_on_c, 4, 56, 0
5, 65160, Note_on_c, 4, 72, 64
5, 65160, Note_on_c, 4, 63, 80
5, 65160, Note_on_c, 4, 68, 79
5, 65239, Note_on_c, 4, 68, 0
5, 65239, Note_on_c, 4, 63, 0
5, 65239, Note_on_c, 4, 72, 0
5, 65240, Note_on_c, 4, 72, 68
5, 65240, Note_on_c, 4, 63, 80
5, 65240, Note_on_c, 4, 68, 92
5, 65279, Note_on_c, 4, 68, 0
5, 65279, Note_on_c, 4, 63, 0
5, 65279, Note_on_c, 4, 72, 0
5, 65280, Note_on_c, 4, 56, 93
5, 65280, Note_on_c, 4, 60, 74
5, 65339, Note_on_c, 4, 60, 0
5, 65339, Note_on_c, 4, 56, 0
5, 65360, Note_on_c, 4, 60, 84
5, 65360, Note_on_c, 4, 56, 92
5, 65419, Note_on_c, 4, 56, 0
5, 65419, Note_on_c, 4, 60, 0
5, 65520, Note_on_c, 4, 60, 84
5, 65520, Note_on_c, 4, 56, 93
5, 65599, Note_on_c, 4, 56, 0
5, 65599, Note_on_c, 4, 60, 0
5, 65600, Note_on_c, 4, 56, 92
5, 65600, Note_on_c, 4, 60, 79
5, 65639, Note_on_c, 4, 60, 0
5, 65639, Note_on_c, 4, 56, 0
5, 65760, Note_on_c, 4, 56, 85
5, 65760, Note_on_c, 4, 60, 84
5, 65839, Note_on_c, 4, 60, 0
5, 65839, Note_on_c, 4, 56, 0
5, 65840, Note_on_c, 4, 56, 100
5, 65840, Note_on_c, 4, 60, 80
5, 65879, Note_on_c, 4, 60, 0
5, 65879, Note_on_c, 4, 56, 0
5, 66120, Note_on_c, 4, 72, 64
5, 66120, Note_on_c, 4, 63, 80
5, 66120, Note_on_c, 4, 68, 79
5, 66199, Note_on_c, 4, 68, 0
5, 66199, Note_on_c, 4, 63, 0
5, 66199, Note_on_c, 4, 72, 0
5, 66200, Note_on_c, 4, 72, 68
5, 66200, Note_on_c, 4, 63, 80
5, 66200, Note_on_c, 4, 68, 92
5, 66239, Note_on_c, 4, 68, 0
5, 66239, Note_on_c, 4, 63, 0
5, 66239, Note_on_c, 4, 72, 0
5, 66240, Note_on_c, 4, 56, 93
5, 66240, Note_on_c, 4, 60, 74
5, 66299, Note_on_c, 4, 60, 0
5, 66299, Note_on_c, 4, 56, 0
5, 66320, Note_on_c, 4, 60, 84
5, 66320, Note_on_c, 4, 56, 92
5, 66379, Note_on_c, 4, 56, 0
5, 66379, Note_on_c, 4, 60, 0
5, 66480, Note_on_c, 4, 60, 84
5, 66480, Note_on_c, 4, 56, 93
5, 66559, Note_on_c, 4, 56, 0
5, 66559, Note_on_c, 4, 60, 0
5, 66560, Note_on_c, 4, 56, 92
5, 66560, Note_on_c, 4, 60, 79
5, 66599, Note_on_c, 4, 60, 0
5, 66599, Note_on_c, 4, 56, 0
5, 66720, Note_on_c, 4, 56, 85
5, 66720, Note_on_c, 4, 60, 84
5, 66799, Note_on_c, 4, 60, 0
5, 66799, Note_on_c, 4, 56, 0
5, 66800, Note_on_c, 4, 56, 100
5, 66800, Note_on_c, 4, 60, 80
5, 66839, Note_on_c, 4, 60, 0
5, 66839, Note_on_c, 4, 56, 0
5, 67080, Note_on_c, 4, 72, 64
5, 67080, Note_on_c, 4, 63, 80
5, 67080, Note_on_c, 4, 68, 79
5, 67159, Note_on_c, 4, 68, 0
5, 67159, Note_on_c, 4, 63, 0
5, 67159, Note_on_c, 4, 72, 0
5, 67160, Note_on_c, 4, 72, 68
5, 67160, Note_on_c, 4, 63, 80
5, 67160, Note_on_c, 4, 68, 92
5, 67199, Note_on_c, 4, 68, 0
5, 67199, Note_on_c, 4, 63, 0
5, 67199, Note_on_c, 4, 72, 0
5, 67200, Note_on_c, 4, 56, 93
5, 67200, Note_on_c, 4, 60, 74
5, 67259, Note_on_c, 4, 60, 0
5, 67259, Note_on_c, 4, 56, 0
5, 67280, Note_on_c, 4, 60, 84
5, 67280, Note_on_c, 4, 56, 92
5, 67339, Note_on_c, 4, 56, 0
5, 67339, Note_on_c, 4, 60, 0
5, 67440, Note_on_c, 4, 60, 84
5, 67440, Note_on_c, 4, 56, 93
5, 67519, Note_on_c, 4, 56, 0
5, 67519, Note_on_c, 4, 60, 0
5, 67520, Note_on_c, 4, 56, 92
5, 67520, Note_on_c, 4, 60, 79
5, 67559, Note_on_c, 4, 60, 0
5, 67559, Note_on_c, 4, 56, 0
5, 67680, Note_on_c, 4, 56, 85
5, 67680, Note_on_c, 4, 60, 84
5, 67759, Note_on_c, 4, 60, 0
5, 67759, Note_on_c, 4, 56, 0
5, 67760, Note_on_c, 4, 56, 100
5, 67760, Note_on_c, 4, 60, 80
5, 67799, Note_on_c, 4, 60, 0
5, 67799, Note_on_c, 4, 56, 0
5, 68040, Note_on_c, 4, 72, 64
5, 68040, Note_on_c, 4, 63, 80
5, 68040, Note_on_c, 4, 68, 79
5, 68119, Note_on_c, 4, 68, 0
5, 68119, Note_on_c, 4, 63, 0
5, 68119, Note_on_c, 4, 72, 0
5, 68120, Note_on_c, 4, 72, 68
5, 68120, Note_on_c, 4, 63, 80
5, 68120, Note_on_c, 4, 68, 92
5, 68159, Note_on_c, 4, 68, 0
5, 68159, Note_on_c, 4, 63, 0
5, 68159, Note_on_c, 4, 72, 0
5, 68160, Note_on_c, 4, 56, 93
5, 68160, Note_on_c, 4, 60, 74
5, 68219, Note_on_c, 4, 60, 0
5, 68219, Note_on_c, 4, 56, 0
5, 68240, Note_on_c, 4, 60, 84
5, 68240, Note_on_c, 4, 56, 92
5, 68299, Note_on_c, 4, 56, 0
5, 68299, Note_on_c, 4, 60, 0
5, 68400, Note_on_c, 4, 60, 84
5, 68400, Note_on_c, 4, 56, 93
5, 68479, Note_on_c, 4, 56, 0
5, 68479, Note_on_c, 4, 60, 0
5, 68480, Note_on_c, 4, 56, 92
5, 68480, Note_on_c, 4, 60, 79
5, 68519, Note_on_c, 4, 60, 0
5, 68519, Note_on_c, 4, 56, 0
5, 68640, Note_on_c, 4, 56, 85
5, 68640, Note_on_c, 4, 60, 84
5, 68719, Note_on_c, 4, 60, 0
5, 68719, Note_on_c, 4, 56, 0
5, 68720, Note_on_c, 4, 56, 100
5, 68720, Note_on_c, 4, 60, 80
5, 68759, Note_on_c, 4, 60, 0
5, 68759, Note_on_c, 4, 56, 0
5, 69000, Note_on_c, 4, 72, 64
5, 69000, Note_on_c, 4, 63, 80
5, 69000, Note_on_c, 4, 68, 79
5, 69079, Note_on_c, 4, 68, 0
5, 69079, Note_on_c, 4, 63, 0
5, 69079, Note_on_c, 4, 72, 0
5, 69080, Note_on_c, 4, 72, 68
5, 69080, Note_on_c, 4, 63, 80
5, 69080, Note_on_c, 4, 68, 92
5, 69119, Note_on_c, 4, 68, 0
5, 69119, Note_on_c, 4, 63, 0
5, 69119, Note_on_c, 4, 72, 0
5, 69120, Note_on_c, 4, 56, 93
5, 69120, Note_on_c, 4, 60, 74
5, 69179, Note_on_c, 4, 60, 0
5, 69179, Note_on_c, 4, 56, 0
5, 69200, Note_on_c, 4, 60, 84
5, 69200, Note_on_c, 4, 56, 92
5, 69259, Note_on_c, 4, 56, 0
5, 69259, Note_on_c, 4, 60, 0
5, 69360, Note_on_c, 4, 60, 84
5, 69360, Note_on_c, 4, 56, 93
5, 69439, Note_on_c, 4, 56, 0
5, 69439, Note_on_c, 4, 60, 0
5, 69440, Note_on_c, 4, 56, 92
5, 69440, Note_on_c, 4, 60, 79
5, 69479, Note_on_c, 4, 60, 0
5, 69479, Note_on_c, 4, 56, 0
5, 69600, Note_on_c, 4, 56, 85
5, 69600, Note_on_c, 4, 60, 84
5, 69679, Note_on_c, 4, 60, 0
5, 69679, Note_on_c, 4, 56, 0
5, 69680, Note_on_c, 4, 56, 100
5, 69680, Note_on_c, 4, 60, 80
5, 69719, Note_on_c, 4, 60, 0
5, 69719, Note_on_c, 4, 56, 0
5, 69960, Note_on_c, 4, 72, 64
5, 69960, Note_on_c, 4, 63, 80
5, 69960, Note_on_c, 4, 68, 79
5, 70039, Note_on_c, 4, 68, 0
5, 70039, Note_on_c, 4, 63, 0
5, 70039, Note_on_c, 4, 72, 0
5, 70040, Note_on_c, 4, 72, 68
5, 70040, Note_on_c, 4, 63, 80
5, 70040, Note_on_c, 4, 68, 92
5, 70079, Note_on_c, 4, 68, 0
5, 70079, Note_on_c, 4, 63, 0
5, 70079, Note_on_c, 4, 72, 0
5, 70080, Note_on_c, 4, 56, 93
5, 70080, Note_on_c, 4, 60, 74
5, 70139, Note_on_c, 4, 60, 0
5, 70139, Note_on_c, 4, 56, 0
5, 70160, Note_on_c, 4, 60, 84
5, 70160, Note_on_c, 4, 56, 92
5, 70219, Note_on_c, 4, 56, 0
5, 70219, Note_on_c, 4, 60, 0
5, 70320, Note_on_c, 4, 60, 84
5, 70320, Note_on_c, 4, 56, 93
5, 70399, Note_on_c, 4, 56, 0
5, 70399, Note_on_c, 4, 60, 0
5, 70400, Note_on_c, 4, 56, 92
5, 70400, Note_on_c, 4, 60, 79
5, 70439, Note_on_c, 4, 60, 0
5, 70439, Note_on_c, 4, 56, 0
5, 70560, Note_on_c, 4, 56, 85
5, 70560, Note_on_c, 4, 60, 84
5, 70639, Note_on_c, 4, 60, 0
5, 70639, Note_on_c, 4, 56, 0
5, 70640, Note_on_c, 4, 56, 100
5, 70640, Note_on_c, 4, 60, 80
5, 70679, Note_on_c, 4, 60, 0
5, 70679, Note_on_c, 4, 56, 0
5, 70920, Note_on_c, 4, 72, 64
5, 70920, Note_on_c, 4, 63, 80
5, 70920, Note_on_c, 4, 68, 79
5, 70999, Note_on_c, 4, 68, 0
5, 70999, Note_on_c, 4, 63, 0
5, 70999, Note_on_c, 4, 72, 0
5, 71000, Note_on_c, 4, 72, 68
5, 71000, Note_on_c, 4, 63, 80
5, 71000, Note_on_c, 4, 68, 92
5, 71039, Note_on_c, 4, 68, 0
5, 71039, Note_on_c, 4, 63, 0
5, 71039, Note_on_c, 4, 72, 0
5, 71040, Note_on_c, 4, 56, 93
5, 71040, Note_on_c, 4, 60, 74
5, 71099, Note_on_c, 4, 60, 0
5, 71099, Note_on_c, 4, 56, 0
5, 71120, Note_on_c, 4, 60, 84
5, 71120, Note_on_c, 4, 56, 92
5, 71179, Note_on_c, 4, 56, 0
5, 71179, Note_on_c, 4, 60, 0
5, 71280, Note_on_c, 4, 60, 84
5, 71280, Note_on_c, 4, 56, 93
5, 71359, Note_on_c, 4, 56, 0
5, 71359, Note_on_c, 4, 60, 0
5, 71360, Note_on_c, 4, 56, 92
5, 71360, Note_on_c, 4, 60, 79
5, 71399, Note_on_c, 4, 60, 0
5, 71399, Note_on_c, 4, 56, 0
5, 71399, End_track
6, 0, Start_track
6, 0, Title_t, "Bass"
6, 5, Control_c, 3, 121, 0
6, 5, Program_c, 3, 32
6, 5, Control_c, 3, 7, 100
6, 5, Control_c, 3, 91, 0
6, 5, Control_c, 3, 93, 0
6, 5, Control_c, 3, 10, 64
6, 5, Control_c, 3, 1, 0
6, 5, Control_c, 3, 64, 0
6, 5, Pitch_bend_c, 3, 8192
6, 1440, Note_on_c, 3, 32, 95
6, 1559, Note_on_c, 3, 32, 0
6, 1560, Note_on_c, 3, 32, 105
6, 1679, Note_on_c, 3, 32, 0
6, 1680, Note_on_c, 3, 32, 104
6, 1799, Note_on_c, 3, 32, 0
6, 1800, Note_on_c, 3, 32, 110
6, 1919, Note_on_c, 3, 32, 0
6, 1920, Note_on_c, 3, 32, 110
6, 2039, Note_on_c, 3, 32, 0
6, 2040, Note_on_c, 3, 32, 110
6, 2159, Note_on_c, 3, 32, 0
6, 2160, Note_on_c, 3, 32, 107
6, 2279, Note_on_c, 3, 32, 0
6, 2280, Note_on_c, 3, 32, 105
6, 2399, Note_on_c, 3, 32, 0
6, 2400, Note_on_c, 3, 32, 110
6, 2519, Note_on_c, 3, 32, 0
6, 2520, Note_on_c, 3, 32, 110
6, 2639, Note_on_c, 3, 32, 0
6, 2640, Note_on_c, 3, 32, 107
6, 2759, Note_on_c, 3, 32, 0
6, 2760, Note_on_c, 3, 32, 105
6, 2879, Note_on_c, 3, 32, 0
6, 2880, Note_on_c, 3, 32, 110
6, 2999, Note_on_c, 3, 32, 0
6, 3000, Note_on_c, 3, 32, 110
6, 3119, Note_on_c, 3, 32, 0
6, 3120, Note_on_c, 3, 32, 107
6, 3239, Note_on_c, 3, 32, 0
6, 3240, Note_on_c, 3, 32, 105
6, 3359, Note_on_c, 3, 32, 0
6, 3360, Note_on_c, 3, 32, 110
6, 3479, Note_on_c, 3, 32, 0
6, 3480, Note_on_c, 3, 32, 110
6, 3599, Note_on_c, 3, 32, 0
6, 3600, Note_on_c, 3, 32, 107
6, 3719, Note_on_c, 3, 32, 0
6, 3720, Note_on_c, 3, 32, 105
6, 3839, Note_on_c, 3, 32, 0
6, 3840, Note_on_c, 3, 32, 110
6, 3959, Note_on_c, 3, 32, 0
6, 3960, Note_on_c, 3, 32, 110
6, 4079, Note_on_c, 3, 32, 0
6, 4080, Note_on_c, 3, 32, 107
6, 4199, Note_on_c, 3, 32, 0
6, 4200, Note_on_c, 3, 32, 105
6, 4319, Note_on_c, 3, 32, 0
6, 4320, Note_on_c, 3, 32, 110
6, 4439, Note_on_c, 3, 32, 0
6, 4440, Note_on_c, 3, 32, 110
6, 4559, Note_on_c, 3, 32, 0
6, 4560, Note_on_c, 3, 32, 107
6, 4679, Note_on_c, 3, 32, 0
6, 4680, Note_on_c, 3, 32, 105
6, 4799, Note_on_c, 3, 32, 0
6, 4800, Note_on_c, 3, 32, 110
6, 4919, Note_on_c, 3, 32, 0
6, 4920, Note_on_c, 3, 32, 110
6, 5039, Note_on_c, 3, 32, 0
6, 5040, Note_on_c, 3, 32, 107
6, 5159, Note_on_c, 3, 32, 0
6, 5160, Note_on_c, 3, 32, 105
6, 5279, Note_on_c, 3, 32, 0
6, 5280, Note_on_c, 3, 32, 110
6, 5399, Note_on_c, 3, 32, 0
6, 5400, Note_on_c, 3, 32, 110
6, 5519, Note_on_c, 3, 32, 0
6, 5520, Note_on_c, 3, 32, 107
6, 5639, Note_on_c, 3, 32, 0
6, 5640, Note_on_c, 3, 32, 105
6, 5759, Note_on_c, 3, 32, 0
6, 5760, Note_on_c, 3, 32, 110
6, 5879, Note_on_c, 3, 32, 0
6, 5880, Note_on_c, 3, 32, 110
6, 5999, Note_on_c, 3, 32, 0
6, 6000, Note_on_c, 3, 32, 107
6, 6119, Note_on_c, 3, 32, 0
6, 6120, Note_on_c, 3, 32, 105
6, 6239, Note_on_c, 3, 32, 0
6, 6240, Note_on_c, 3, 32, 110
6, 6359, Note_on_c, 3, 32, 0
6, 6360, Note_on_c, 3, 32, 110
6, 6479, Note_on_c, 3, 32, 0
6, 6480, Note_on_c, 3, 32, 107
6, 6599, Note_on_c, 3, 32, 0
6, 6600, Note_on_c, 3, 32, 105
6, 6719, Note_on_c, 3, 32, 0
6, 6720, Note_on_c, 3, 32, 110
6, 6839, Note_on_c, 3, 32, 0
6, 6840, Note_on_c, 3, 32, 110
6, 6959, Note_on_c, 3, 32, 0
6, 6960, Note_on_c, 3, 32, 107
6, 7079, Note_on_c, 3, 32, 0
6, 7080, Note_on_c, 3, 32, 105
6, 7199, Note_on_c, 3, 32, 0
6, 7200, Note_on_c, 3, 32, 110
6, 7319, Note_on_c, 3, 32, 0
6, 7320, Note_on_c, 3, 32, 110
6, 7439, Note_on_c, 3, 32, 0
6, 7440, Note_on_c, 3, 32, 107
6, 7559, Note_on_c, 3, 32, 0
6, 7560, Note_on_c, 3, 32, 105
6, 7679, Note_on_c, 3, 32, 0
6, 7680, Note_on_c, 3, 32, 110
6, 7799, Note_on_c, 3, 32, 0
6, 7800, Note_on_c, 3, 32, 110
6, 7919, Note_on_c, 3, 32, 0
6, 7920, Note_on_c, 3, 32, 107
6, 8039, Note_on_c, 3, 32, 0
6, 8040, Note_on_c, 3, 32, 105
6, 8159, Note_on_c, 3, 32, 0
6, 8160, Note_on_c, 3, 32, 110
6, 8279, Note_on_c, 3, 32, 0
6, 8280, Note_on_c, 3, 32, 110
6, 8399, Note_on_c, 3, 32, 0
6, 8400, Note_on_c, 3, 32, 107
6, 8519, Note_on_c, 3, 32, 0
6, 8520, Note_on_c, 3, 32, 105
6, 8639, Note_on_c, 3, 32, 0
6, 8640, Note_on_c, 3, 32, 110
6, 8759, Note_on_c, 3, 32, 0
6, 8760, Note_on_c, 3, 32, 110
6, 8879, Note_on_c, 3, 32, 0
6, 8880, Note_on_c, 3, 32, 107
6, 8999, Note_on_c, 3, 32, 0
6, 9000, Note_on_c, 3, 32, 105
6, 9119, Note_on_c, 3, 32, 0
6, 9120, Note_on_c, 3, 32, 110
6, 9239, Note_on_c, 3, 32, 0
6, 9240, Note_on_c, 3, 32, 110
6, 9359, Note_on_c, 3, 32, 0
6, 9360, Note_on_c, 3, 32, 107
6, 9479, Note_on_c, 3, 32, 0
6, 9480, Note_on_c, 3, 32, 105
6, 9599, Note_on_c, 3, 32, 0
6, 9600, Note_on_c, 3, 32, 110
6, 9719, Note_on_c, 3, 32, 0
6, 9720, Note_on_c, 3, 32, 110
6, 9839, Note_on_c, 3, 32, 0
6, 9840, Note_on_c, 3, 32, 107
6, 9959, Note_on_c, 3, 32, 0
6, 9960, Note_on_c, 3, 32, 105
6, 10079, Note_on_c, 3, 32, 0
6, 10080, Note_on_c, 3, 32, 110
6, 10199, Note_on_c, 3, 32, 0
6, 10200, Note_on_c, 3, 32, 110
6, 10319, Note_on_c, 3, 32, 0
6, 10320, Note_on_c, 3, 32, 107
6, 10439, Note_on_c, 3, 32, 0
6, 10440, Note_on_c, 3, 32, 105
6, 10559, Note_on_c, 3, 32, 0
6, 10560, Note_on_c, 3, 32, 110
6, 10679, Note_on_c, 3, 32, 0
6, 10680, Note_on_c, 3, 32, 110
6, 10799, Note_on_c, 3, 32, 0
6, 10800, Note_on_c, 3, 32, 107
6, 10919, Note_on_c, 3, 32, 0
6, 10920, Note_on_c, 3, 32, 105
6, 11039, Note_on_c, 3, 32, 0
6, 11040, Note_on_c, 3, 32, 110
6, 11159, Note_on_c, 3, 32, 0
6, 11160, Note_on_c, 3, 32, 110
6, 11279, Note_on_c, 3, 32, 0
6, 11280, Note_on_c, 3, 32, 107
6, 11399, Note_on_c, 3, 32, 0
6, 11400, Note_on_c, 3, 32, 105
6, 11519, Note_on_c, 3, 32, 0
6, 11520, Note_on_c, 3, 32, 110
6, 11639, Note_on_c, 3, 32, 0
6, 11640, Note_on_c, 3, 32, 110
6, 11759, Note_on_c, 3, 32, 0
6, 11760, Note_on_c, 3, 32, 107
6, 11879, Note_on_c, 3, 32, 0
6, 11880, Note_on_c, 3, 32, 105
6, 11999, Note_on_c, 3, 32, 0
6, 12000, Note_on_c, 3, 32, 110
6, 12119, Note_on_c, 3, 32, 0
6, 12120, Note_on_c, 3, 32, 110
6, 12239, Note_on_c, 3, 32, 0
6, 12240, Note_on_c, 3, 32, 107
6, 12359, Note_on_c, 3, 32, 0
6, 12360, Note_on_c, 3, 32, 105
6, 12479, Note_on_c, 3, 32, 0
6, 12480, Note_on_c, 3, 32, 110
6, 12599, Note_on_c, 3, 32, 0
6, 12600, Note_on_c, 3, 32, 110
6, 12719, Note_on_c, 3, 32, 0
6, 12720, Note_on_c, 3, 32, 107
6, 12839, Note_on_c, 3, 32, 0
6, 12840, Note_on_c, 3, 32, 105
6, 12959, Note_on_c, 3, 32, 0
6, 12960, Note_on_c, 3, 32, 110
6, 13079, Note_on_c, 3, 32, 0
6, 13080, Note_on_c, 3, 32, 110
6, 13199, Note_on_c, 3, 32, 0
6, 13200, Note_on_c, 3, 32, 107
6, 13319, Note_on_c, 3, 32, 0
6, 13320, Note_on_c, 3, 32, 105
6, 13439, Note_on_c, 3, 32, 0
6, 13440, Note_on_c, 3, 32, 110
6, 13559, Note_on_c, 3, 32, 0
6, 13560, Note_on_c, 3, 32, 110
6, 13679, Note_on_c, 3, 32, 0
6, 13680, Note_on_c, 3, 32, 107
6, 13799, Note_on_c, 3, 32, 0
6, 13800, Note_on_c, 3, 32, 105
6, 13919, Note_on_c, 3, 32, 0
6, 13920, Note_on_c, 3, 32, 110
6, 14039, Note_on_c, 3, 32, 0
6, 14040, Note_on_c, 3, 32, 110
6, 14159, Note_on_c, 3, 32, 0
6, 14160, Note_on_c, 3, 32, 107
6, 14279, Note_on_c, 3, 32, 0
6, 14280, Note_on_c, 3, 32, 105
6, 14399, Note_on_c, 3, 32, 0
6, 14400, Note_on_c, 3, 32, 110
6, 14519, Note_on_c, 3, 32, 0
6, 14520, Note_on_c, 3, 32, 110
6, 14639, Note_on_c, 3, 32, 0
6, 14640, Note_on_c, 3, 32, 107
6, 14759, Note_on_c, 3, 32, 0
6, 14760, Note_on_c, 3, 32, 105
6, 14879, Note_on_c, 3, 32, 0
6, 14880, Note_on_c, 3, 32, 110
6, 14999, Note_on_c, 3, 32, 0
6, 15000, Note_on_c, 3, 32, 110
6, 15119, Note_on_c, 3, 32, 0
6, 15120, Note_on_c, 3, 32, 107
6, 15239, Note_on_c, 3, 32, 0
6, 15240, Note_on_c, 3, 32, 105
6, 15359, Note_on_c, 3, 32, 0
6, 15360, Note_on_c, 3, 32, 110
6, 15479, Note_on_c, 3, 32, 0
6, 15480, Note_on_c, 3, 32, 110
6, 15599, Note_on_c, 3, 32, 0
6, 15600, Note_on_c, 3, 32, 107
6, 15719, Note_on_c, 3, 32, 0
6, 15720, Note_on_c, 3, 32, 105
6, 15839, Note_on_c, 3, 32, 0
6, 15840, Note_on_c, 3, 32, 110
6, 15959, Note_on_c, 3, 32, 0
6, 15960, Note_on_c, 3, 32, 110
6, 16079, Note_on_c, 3, 32, 0
6, 16080, Note_on_c, 3, 32, 107
6, 16199, Note_on_c, 3, 32, 0
6, 16200, Note_on_c, 3, 32, 105
6, 16319, Note_on_c, 3, 32, 0
6, 16320, Note_on_c, 3, 32, 110
6, 16439, Note_on_c, 3, 32, 0
6, 16440, Note_on_c, 3, 32, 110
6, 16559, Note_on_c, 3, 32, 0
6, 16560, Note_on_c, 3, 32, 107
6, 16679, Note_on_c, 3, 32, 0
6, 16680, Note_on_c, 3, 32, 105
6, 16799, Note_on_c, 3, 32, 0
6, 16800, Note_on_c, 3, 32, 110
6, 16919, Note_on_c, 3, 32, 0
6, 16920, Note_on_c, 3, 32, 110
6, 17039, Note_on_c, 3, 32, 0
6, 17040, Note_on_c, 3, 32, 107
6, 17159, Note_on_c, 3, 32, 0
6, 17160, Note_on_c, 3, 32, 105
6, 17279, Note_on_c, 3, 32, 0
6, 17280, Note_on_c, 3, 32, 110
6, 17399, Note_on_c, 3, 32, 0
6, 17400, Note_on_c, 3, 32, 110
6, 17519, Note_on_c, 3, 32, 0
6, 17520, Note_on_c, 3, 32, 107
6, 17639, Note_on_c, 3, 32, 0
6, 17640, Note_on_c, 3, 32, 105
6, 17759, Note_on_c, 3, 32, 0
6, 17760, Note_on_c, 3, 32, 110
6, 17879, Note_on_c, 3, 32, 0
6, 17880, Note_on_c, 3, 32, 110
6, 17999, Note_on_c, 3, 32, 0
6, 18000, Note_on_c, 3, 32, 107
6, 18119, Note_on_c, 3, 32, 0
6, 18120, Note_on_c, 3, 32, 105
6, 18239, Note_on_c, 3, 32, 0
6, 18240, Note_on_c, 3, 32, 110
6, 18359, Note_on_c, 3, 32, 0
6, 18360, Note_on_c, 3, 32, 110
6, 18479, Note_on_c, 3, 32, 0
6, 18480, Note_on_c, 3, 32, 107
6, 18599, Note_on_c, 3, 32, 0
6, 18600, Note_on_c, 3, 32, 105
6, 18719, Note_on_c, 3, 32, 0
6, 18720, Note_on_c, 3, 32, 110
6, 18839, Note_on_c, 3, 32, 0
6, 18840, Note_on_c, 3, 32, 110
6, 18959, Note_on_c, 3, 32, 0
6, 18960, Note_on_c, 3, 32, 107
6, 19079, Note_on_c, 3, 32, 0
6, 19080, Note_on_c, 3, 32, 105
6, 19199, Note_on_c, 3, 32, 0
6, 19200, Note_on_c, 3, 32, 110
6, 19319, Note_on_c, 3, 32, 0
6, 19320, Note_on_c, 3, 32, 110
6, 19439, Note_on_c, 3, 32, 0
6, 19440, Note_on_c, 3, 32, 107
6, 19559, Note_on_c, 3, 32, 0
6, 19560, Note_on_c, 3, 32, 105
6, 19679, Note_on_c, 3, 32, 0
6, 19680, Note_on_c, 3, 32, 110
6, 19799, Note_on_c, 3, 32, 0
6, 19800, Note_on_c, 3, 32, 110
6, 19919, Note_on_c, 3, 32, 0
6, 19920, Note_on_c, 3, 32, 107
6, 20039, Note_on_c, 3, 32, 0
6, 20040, Note_on_c, 3, 32, 105
6, 20159, Note_on_c, 3, 32, 0
6, 20160, Note_on_c, 3, 32, 110
6, 20279, Note_on_c, 3, 32, 0
6, 20280, Note_on_c, 3, 32, 110
6, 20399, Note_on_c, 3, 32, 0
6, 20400, Note_on_c, 3, 32, 107
6, 20519, Note_on_c, 3, 32, 0
6, 20520, Note_on_c, 3, 32, 105
6, 20639, Note_on_c, 3, 32, 0
6, 20640, Note_on_c, 3, 32, 110
6, 20759, Note_on_c, 3, 32, 0
6, 20760, Note_on_c, 3, 32, 110
6, 20879, Note_on_c, 3, 32, 0
6, 20880, Note_on_c, 3, 32, 107
6, 20999, Note_on_c, 3, 32, 0
6, 21000, Note_on_c, 3, 32, 105
6, 21119, Note_on_c, 3, 32, 0
6, 21120, Note_on_c, 3, 32, 110
6, 21239, Note_on_c, 3, 32, 0
6, 21240, Note_on_c, 3, 32, 110
6, 21359, Note_on_c, 3, 32, 0
6, 21360, Note_on_c, 3, 32, 107
6, 21479, Note_on_c, 3, 32, 0
6, 21480, Note_on_c, 3, 32, 105
6, 21599, Note_on_c, 3, 32, 0
6, 21600, Note_on_c, 3, 32, 110
6, 21719, Note_on_c, 3, 32, 0
6, 21720, Note_on_c, 3, 32, 110
6, 21839, Note_on_c, 3, 32, 0
6, 21840, Note_on_c, 3, 32, 107
6, 21959, Note_on_c, 3, 32, 0
6, 21960, Note_on_c, 3, 32, 105
6, 22079, Note_on_c, 3, 32, 0
6, 22080, Note_on_c, 3, 32, 110
6, 22199, Note_on_c, 3, 32, 0
6, 22200, Note_on_c, 3, 32, 110
6, 22319, Note_on_c, 3, 32, 0
6, 22320, Note_on_c, 3, 32, 107
6, 22439, Note_on_c, 3, 32, 0
6, 22440, Note_on_c, 3, 32, 105
6, 22559, Note_on_c, 3, 32, 0
6, 22560, Note_on_c, 3, 32, 110
6, 22679, Note_on_c, 3, 32, 0
6, 22680, Note_on_c, 3, 32, 110
6, 22799, Note_on_c, 3, 32, 0
6, 22800, Note_on_c, 3, 32, 107
6, 22919, Note_on_c, 3, 32, 0
6, 22920, Note_on_c, 3, 32, 105
6, 23039, Note_on_c, 3, 32, 0
6, 23040, Note_on_c, 3, 32, 110
6, 23159, Note_on_c, 3, 32, 0
6, 23160, Note_on_c, 3, 32, 110
6, 23279, Note_on_c, 3, 32, 0
6, 23280, Note_on_c, 3, 32, 107
6, 23399, Note_on_c, 3, 32, 0
6, 23400, Note_on_c, 3, 32, 105
6, 23519, Note_on_c, 3, 32, 0
6, 23520, Note_on_c, 3, 32, 110
6, 23639, Note_on_c, 3, 32, 0
6, 23640, Note_on_c, 3, 32, 110
6, 23759, Note_on_c, 3, 32, 0
6, 23760, Note_on_c, 3, 32, 107
6, 23879, Note_on_c, 3, 32, 0
6, 23880, Note_on_c, 3, 32, 105
6, 23999, Note_on_c, 3, 32, 0
6, 24000, Note_on_c, 3, 32, 110
6, 24119, Note_on_c, 3, 32, 0
6, 24120, Note_on_c, 3, 32, 110
6, 24239, Note_on_c, 3, 32, 0
6, 24240, Note_on_c, 3, 32, 107
6, 24359, Note_on_c, 3, 32, 0
6, 24360, Note_on_c, 3, 32, 105
6, 24479, Note_on_c, 3, 32, 0
6, 24480, Note_on_c, 3, 32, 110
6, 24599, Note_on_c, 3, 32, 0
6, 24600, Note_on_c, 3, 32, 110
6, 24719, Note_on_c, 3, 32, 0
6, 24720, Note_on_c, 3, 32, 107
6, 24839, Note_on_c, 3, 32, 0
6, 24840, Note_on_c, 3, 32, 105
6, 24959, Note_on_c, 3, 32, 0
6, 24960, Note_on_c, 3, 32, 110
6, 25079, Note_on_c, 3, 32, 0
6, 25080, Note_on_c, 3, 32, 110
6, 25199, Note_on_c, 3, 32, 0
6, 25200, Note_on_c, 3, 32, 107
6, 25319, Note_on_c, 3, 32, 0
6, 25320, Note_on_c, 3, 32, 105
6, 25439, Note_on_c, 3, 32, 0
6, 25440, Note_on_c, 3, 32, 110
6, 25559, Note_on_c, 3, 32, 0
6, 25560, Note_on_c, 3, 32, 110
6, 25679, Note_on_c, 3, 32, 0
6, 25680, Note_on_c, 3, 32, 107
6, 25799, Note_on_c, 3, 32, 0
6, 25800, Note_on_c, 3, 32, 105
6, 25919, Note_on_c, 3, 32, 0
6, 25920, Note_on_c, 3, 32, 110
6, 26039, Note_on_c, 3, 32, 0
6, 26040, Note_on_c, 3, 32, 110
6, 26159, Note_on_c, 3, 32, 0
6, 26160, Note_on_c, 3, 32, 107
6, 26279, Note_on_c, 3, 32, 0
6, 26280, Note_on_c, 3, 32, 105
6, 26399, Note_on_c, 3, 32, 0
6, 26400, Note_on_c, 3, 32, 110
6, 26519, Note_on_c, 3, 32, 0
6, 26520, Note_on_c, 3, 32, 110
6, 26639, Note_on_c, 3, 32, 0
6, 26640, Note_on_c, 3, 32, 107
6, 26759, Note_on_c, 3, 32, 0
6, 26760, Note_on_c, 3, 32, 105
6, 26879, Note_on_c, 3, 32, 0
6, 26880, Note_on_c, 3, 32, 110
6, 26999, Note_on_c, 3, 32, 0
6, 27000, Note_on_c, 3, 32, 110
6, 27119, Note_on_c, 3, 32, 0
6, 27120, Note_on_c, 3, 32, 107
6, 27239, Note_on_c, 3, 32, 0
6, 27240, Note_on_c, 3, 32, 105
6, 27359, Note_on_c, 3, 32, 0
6, 27360, Note_on_c, 3, 32, 110
6, 27479, Note_on_c, 3, 32, 0
6, 27480, Note_on_c, 3, 32, 110
6, 27599, Note_on_c, 3, 32, 0
6, 27600, Note_on_c, 3, 32, 107
6, 27719, Note_on_c, 3, 32, 0
6, 27720, Note_on_c, 3, 32, 105
6, 27839, Note_on_c, 3, 32, 0
6, 27840, Note_on_c, 3, 32, 110
6, 27959, Note_on_c, 3, 32, 0
6, 27960, Note_on_c, 3, 32, 110
6, 28079, Note_on_c, 3, 32, 0
6, 28080, Note_on_c, 3, 32, 107
6, 28199, Note_on_c, 3, 32, 0
6, 28200, Note_on_c, 3, 32, 105
6, 28319, Note_on_c, 3, 32, 0
6, 28320, Note_on_c, 3, 32, 110
6, 28439, Note_on_c, 3, 32, 0
6, 28440, Note_on_c, 3, 32, 110
6, 28559, Note_on_c, 3, 32, 0
6, 28560, Note_on_c, 3, 32, 107
6, 28679, Note_on_c, 3, 32, 0
6, 28680, Note_on_c, 3, 32, 105
6, 28799, Note_on_c, 3, 32, 0
6, 28800, Note_on_c, 3, 32, 110
6, 28919, Note_on_c, 3, 32, 0
6, 28920, Note_on_c, 3, 32, 110
6, 29039, Note_on_c, 3, 32, 0
6, 29040, Note_on_c, 3, 32, 107
6, 29159, Note_on_c, 3, 32, 0
6, 29160, Note_on_c, 3, 32, 105
6, 29279, Note_on_c, 3, 32, 0
6, 29280, Note_on_c, 3, 32, 110
6, 29399, Note_on_c, 3, 32, 0
6, 29400, Note_on_c, 3, 32, 110
6, 29519, Note_on_c, 3, 32, 0
6, 29520, Note_on_c, 3, 32, 107
6, 29639, Note_on_c, 3, 32, 0
6, 29640, Note_on_c, 3, 32, 105
6, 29759, Note_on_c, 3, 32, 0
6, 29760, Note_on_c, 3, 32, 110
6, 29879, Note_on_c, 3, 32, 0
6, 29880, Note_on_c, 3, 32, 110
6, 29999, Note_on_c, 3, 32, 0
6, 30000, Note_on_c, 3, 32, 107
6, 30119, Note_on_c, 3, 32, 0
6, 30120, Note_on_c, 3, 32, 105
6, 30239, Note_on_c, 3, 32, 0
6, 30240, Note_on_c, 3, 32, 110
6, 30359, Note_on_c, 3, 32, 0
6, 30360, Note_on_c, 3, 32, 110
6, 30479, Note_on_c, 3, 32, 0
6, 30480, Note_on_c, 3, 32, 107
6, 30599, Note_on_c, 3, 32, 0
6, 30600, Note_on_c, 3, 32, 105
6, 30719, Note_on_c, 3, 32, 0
6, 30720, Note_on_c, 3, 32, 110
6, 30839, Note_on_c, 3, 32, 0
6, 30840, Note_on_c, 3, 32, 110
6, 30959, Note_on_c, 3, 32, 0
6, 30960, Note_on_c, 3, 32, 107
6, 31079, Note_on_c, 3, 32, 0
6, 31080, Note_on_c, 3, 32, 105
6, 31199, Note_on_c, 3, 32, 0
6, 31200, Note_on_c, 3, 32, 110
6, 31319, Note_on_c, 3, 32, 0
6, 31320, Note_on_c, 3, 32, 110
6, 31439, Note_on_c, 3, 32, 0
6, 31440, Note_on_c, 3, 32, 107
6, 31559, Note_on_c, 3, 32, 0
6, 31560, Note_on_c, 3, 32, 105
6, 31679, Note_on_c, 3, 32, 0
6, 31680, Note_on_c, 3, 32, 110
6, 31799, Note_on_c, 3, 32, 0
6, 31800, Note_on_c, 3, 32, 110
6, 31919, Note_on_c, 3, 32, 0
6, 31920, Note_on_c, 3, 32, 107
6, 32039, Note_on_c, 3, 32, 0
6, 32040, Note_on_c, 3, 32, 105
6, 32159, Note_on_c, 3, 32, 0
6, 32160, Note_on_c, 3, 32, 110
6, 32279, Note_on_c, 3, 32, 0
6, 32280, Note_on_c, 3, 32, 110
6, 32399, Note_on_c, 3, 32, 0
6, 32400, Note_on_c, 3, 32, 107
6, 32519, Note_on_c, 3, 32, 0
6, 32520, Note_on_c, 3, 32, 105
6, 32639, Note_on_c, 3, 32, 0
6, 32640, Note_on_c, 3, 32, 110
6, 32759, Note_on_c, 3, 32, 0
6, 32760, Note_on_c, 3, 32, 110
6, 32879, Note_on_c, 3, 32, 0
6, 32880, Note_on_c, 3, 32, 107
6, 32999, Note_on_c, 3, 32, 0
6, 33000, Note_on_c, 3, 32, 105
6, 33119, Note_on_c, 3, 32, 0
6, 33120, Note_on_c, 3, 32, 110
6, 33239, Note_on_c, 3, 32, 0
6, 33240, Note_on_c, 3, 32, 110
6, 33359, Note_on_c, 3, 32, 0
6, 33360, Note_on_c, 3, 32, 107
6, 33479, Note_on_c, 3, 32, 0
6, 33480, Note_on_c, 3, 32, 105
6, 33599, Note_on_c, 3, 32, 0
6, 33600, Note_on_c, 3, 32, 110
6, 33719, Note_on_c, 3, 32, 0
6, 33720, Note_on_c, 3, 32, 110
6, 33839, Note_on_c, 3, 32, 0
6, 33840, Note_on_c, 3, 32, 107
6, 33959, Note_on_c, 3, 32, 0
6, 33960, Note_on_c, 3, 32, 105
6, 34079, Note_on_c, 3, 32, 0
6, 34080, Note_on_c, 3, 32, 110
6, 34199, Note_on_c, 3, 32, 0
6, 34200, Note_on_c, 3, 32, 110
6, 34319, Note_on_c, 3, 32, 0
6, 34320, Note_on_c, 3, 32, 107
6, 34439, Note_on_c, 3, 32, 0
6, 34440, Note_on_c, 3, 32, 105
6, 34559, Note_on_c, 3, 32, 0
6, 34560, Note_on_c, 3, 32, 110
6, 34679, Note_on_c, 3, 32, 0
6, 34680, Note_on_c, 3, 32, 110
6, 34799, Note_on_c, 3, 32, 0
6, 34800, Note_on_c, 3, 32, 107
6, 34919, Note_on_c, 3, 32, 0
6, 34920, Note_on_c, 3, 32, 105
6, 35039, Note_on_c, 3, 32, 0
6, 35040, Note_on_c, 3, 32, 110
6, 35159, Note_on_c, 3, 32, 0
6, 35160, Note_on_c, 3, 32, 110
6, 35279, Note_on_c, 3, 32, 0
6, 35280, Note_on_c, 3, 32, 107
6, 35399, Note_on_c, 3, 32, 0
6, 35400, Note_on_c, 3, 32, 105
6, 35519, Note_on_c, 3, 32, 0
6, 35520, Note_on_c, 3, 32, 110
6, 35639, Note_on_c, 3, 32, 0
6, 35640, Note_on_c, 3, 32, 110
6, 35759, Note_on_c, 3, 32, 0
6, 35760, Note_on_c, 3, 32, 107
6, 35879, Note_on_c, 3, 32, 0
6, 35880, Note_on_c, 3, 32, 105
6, 35999, Note_on_c, 3, 32, 0
6, 36000, Note_on_c, 3, 32, 110
6, 36119, Note_on_c, 3, 32, 0
6, 36120, Note_on_c, 3, 32, 110
6, 36239, Note_on_c, 3, 32, 0
6, 36240, Note_on_c, 3, 32, 107
6, 36359, Note_on_c, 3, 32, 0
6, 36360, Note_on_c, 3, 32, 105
6, 36479, Note_on_c, 3, 32, 0
6, 36480, Note_on_c, 3, 32, 110
6, 36599, Note_on_c, 3, 32, 0
6, 36600, Note_on_c, 3, 32, 110
6, 36719, Note_on_c, 3, 32, 0
6, 36720, Note_on_c, 3, 32, 107
6, 36839, Note_on_c, 3, 32, 0
6, 36840, Note_on_c, 3, 32, 105
6, 36959, Note_on_c, 3, 32, 0
6, 36960, Note_on_c, 3, 32, 110
6, 37079, Note_on_c, 3, 32, 0
6, 37080, Note_on_c, 3, 32, 110
6, 37199, Note_on_c, 3, 32, 0
6, 37200, Note_on_c, 3, 32, 107
6, 37319, Note_on_c, 3, 32, 0
6, 37320, Note_on_c, 3, 32, 105
6, 37439, Note_on_c, 3, 32, 0
6, 37440, Note_on_c, 3, 32, 110
6, 37559, Note_on_c, 3, 32, 0
6, 37560, Note_on_c, 3, 32, 110
6, 37679, Note_on_c, 3, 32, 0
6, 37680, Note_on_c, 3, 32, 107
6, 37799, Note_on_c, 3, 32, 0
6, 37800, Note_on_c, 3, 32, 105
6, 37919, Note_on_c, 3, 32, 0
6, 37920, Note_on_c, 3, 32, 110
6, 38039, Note_on_c, 3, 32, 0
6, 38040, Note_on_c, 3, 32, 110
6, 38159, Note_on_c, 3, 32, 0
6, 38160, Note_on_c, 3, 32, 107
6, 38279, Note_on_c, 3, 32, 0
6, 38280, Note_on_c, 3, 32, 105
6, 38399, Note_on_c, 3, 32, 0
6, 38400, Note_on_c, 3, 32, 110
6, 38519, Note_on_c, 3, 32, 0
6, 38520, Note_on_c, 3, 32, 110
6, 38639, Note_on_c, 3, 32, 0
6, 38640, Note_on_c, 3, 32, 107
6, 38759, Note_on_c, 3, 32, 0
6, 38760, Note_on_c, 3, 32, 105
6, 38879, Note_on_c, 3, 32, 0
6, 38880, Note_on_c, 3, 32, 110
6, 38999, Note_on_c, 3, 32, 0
6, 39000, Note_on_c, 3, 32, 110
6, 39119, Note_on_c, 3, 32, 0
6, 39120, Note_on_c, 3, 32, 107
6, 39239, Note_on_c, 3, 32, 0
6, 39240, Note_on_c, 3, 32, 105
6, 39359, Note_on_c, 3, 32, 0
6, 39360, Note_on_c, 3, 32, 110
6, 39479, Note_on_c, 3, 32, 0
6, 39480, Note_on_c, 3, 32, 110
6, 39599, Note_on_c, 3, 32, 0
6, 39600, Note_on_c, 3, 32, 107
6, 39719, Note_on_c, 3, 32, 0
6, 39720, Note_on_c, 3, 32, 105
6, 39839, Note_on_c, 3, 32, 0
6, 39840, Note_on_c, 3, 32, 110
6, 39959, Note_on_c, 3, 32, 0
6, 39960, Note_on_c, 3, 32, 110
6, 40079, Note_on_c, 3, 32, 0
6, 40080, Note_on_c, 3, 32, 107
6, 40199, Note_on_c, 3, 32, 0
6, 40200, Note_on_c, 3, 32, 105
6, 40319, Note_on_c, 3, 32, 0
6, 40320, Note_on_c, 3, 32, 110
6, 40439, Note_on_c, 3, 32, 0
6, 40440, Note_on_c, 3, 32, 110
6, 40559, Note_on_c, 3, 32, 0
6, 40560, Note_on_c, 3, 32, 107
6, 40679, Note_on_c, 3, 32, 0
6, 40680, Note_on_c, 3, 32, 105
6, 40799, Note_on_c, 3, 32, 0
6, 40800, Note_on_c, 3, 32, 110
6, 40919, Note_on_c, 3, 32, 0
6, 40920, Note_on_c, 3, 32, 110
6, 41039, Note_on_c, 3, 32, 0
6, 41040, Note_on_c, 3, 32, 107
6, 41159, Note_on_c, 3, 32, 0
6, 41160, Note_on_c, 3, 32, 105
6, 41279, Note_on_c, 3, 32, 0
6, 41280, Note_on_c, 3, 32, 110
6, 41399, Note_on_c, 3, 32, 0
6, 41400, Note_on_c, 3, 32, 110
6, 41519, Note_on_c, 3, 32, 0
6, 41520, Note_on_c, 3, 32, 107
6, 41639, Note_on_c, 3, 32, 0
6, 41640, Note_on_c, 3, 32, 105
6, 41759, Note_on_c, 3, 32, 0
6, 41760, Note_on_c, 3, 32, 110
6, 41879, Note_on_c, 3, 32, 0
6, 41880, Note_on_c, 3, 32, 110
6, 41999, Note_on_c, 3, 32, 0
6, 42000, Note_on_c, 3, 32, 107
6, 42119, Note_on_c, 3, 32, 0
6, 42120, Note_on_c, 3, 32, 105
6, 42239, Note_on_c, 3, 32, 0
6, 42240, Note_on_c, 3, 32, 110
6, 42359, Note_on_c, 3, 32, 0
6, 42360, Note_on_c, 3, 32, 110
6, 42479, Note_on_c, 3, 32, 0
6, 42480, Note_on_c, 3, 32, 107
6, 42599, Note_on_c, 3, 32, 0
6, 42600, Note_on_c, 3, 32, 105
6, 42719, Note_on_c, 3, 32, 0
6, 42720, Note_on_c, 3, 32, 110
6, 42839, Note_on_c, 3, 32, 0
6, 42840, Note_on_c, 3, 32, 110
6, 42959, Note_on_c, 3, 32, 0
6, 42960, Note_on_c, 3, 32, 107
6, 43079, Note_on_c, 3, 32, 0
6, 43080, Note_on_c, 3, 32, 105
6, 43199, Note_on_c, 3, 32, 0
6, 43200, Note_on_c, 3, 32, 110
6, 43319, Note_on_c, 3, 32, 0
6, 43320, Note_on_c, 3, 32, 110
6, 43439, Note_on_c, 3, 32, 0
6, 43440, Note_on_c, 3, 32, 107
6, 43559, Note_on_c, 3, 32, 0
6, 43560, Note_on_c, 3, 32, 105
6, 43679, Note_on_c, 3, 32, 0
6, 43680, Note_on_c, 3, 32, 110
6, 43799, Note_on_c, 3, 32, 0
6, 43800, Note_on_c, 3, 32, 110
6, 43919, Note_on_c, 3, 32, 0
6, 43920, Note_on_c, 3, 32, 107
6, 44039, Note_on_c, 3, 32, 0
6, 44040, Note_on_c, 3, 32, 105
6, 44159, Note_on_c, 3, 32, 0
6, 44160, Note_on_c, 3, 32, 110
6, 44279, Note_on_c, 3, 32, 0
6, 44280, Note_on_c, 3, 32, 110
6, 44399, Note_on_c, 3, 32, 0
6, 44400, Note_on_c, 3, 32, 107
6, 44519, Note_on_c, 3, 32, 0
6, 44520, Note_on_c, 3, 32, 105
6, 44639, Note_on_c, 3, 32, 0
6, 44640, Note_on_c, 3, 32, 110
6, 44759, Note_on_c, 3, 32, 0
6, 44760, Note_on_c, 3, 32, 110
6, 44879, Note_on_c, 3, 32, 0
6, 44880, Note_on_c, 3, 32, 107
6, 44999, Note_on_c, 3, 32, 0
6, 45000, Note_on_c, 3, 32, 105
6, 45119, Note_on_c, 3, 32, 0
6, 45120, Note_on_c, 3, 32, 110
6, 45239, Note_on_c, 3, 32, 0
6, 45240, Note_on_c, 3, 32, 110
6, 45359, Note_on_c, 3, 32, 0
6, 45360, Note_on_c, 3, 32, 107
6, 45479, Note_on_c, 3, 32, 0
6, 45480, Note_on_c, 3, 32, 105
6, 45599, Note_on_c, 3, 32, 0
6, 45600, Note_on_c, 3, 32, 110
6, 45719, Note_on_c, 3, 32, 0
6, 45720, Note_on_c, 3, 32, 110
6, 45839, Note_on_c, 3, 32, 0
6, 45840, Note_on_c, 3, 32, 107
6, 45959, Note_on_c, 3, 32, 0
6, 45960, Note_on_c, 3, 32, 105
6, 46079, Note_on_c, 3, 32, 0
6, 46080, Note_on_c, 3, 32, 110
6, 46199, Note_on_c, 3, 32, 0
6, 46200, Note_on_c, 3, 32, 110
6, 46319, Note_on_c, 3, 32, 0
6, 46320, Note_on_c, 3, 32, 107
6, 46439, Note_on_c, 3, 32, 0
6, 46440, Note_on_c, 3, 32, 105
6, 46559, Note_on_c, 3, 32, 0
6, 46560, Note_on_c, 3, 32, 110
6, 46679, Note_on_c, 3, 32, 0
6, 46680, Note_on_c, 3, 32, 110
6, 46799, Note_on_c, 3, 32, 0
6, 46800, Note_on_c, 3, 32, 107
6, 46919, Note_on_c, 3, 32, 0
6, 46920, Note_on_c, 3, 32, 105
6, 47039, Note_on_c, 3, 32, 0
6, 47040, Note_on_c, 3, 32, 110
6, 47159, Note_on_c, 3, 32, 0
6, 47160, Note_on_c, 3, 32, 110
6, 47279, Note_on_c, 3, 32, 0
6, 47280, Note_on_c, 3, 32, 107
6, 47399, Note_on_c, 3, 32, 0
6, 47400, Note_on_c, 3, 32, 105
6, 47519, Note_on_c, 3, 32, 0
6, 47520, Note_on_c, 3, 32, 110
6, 47639, Note_on_c, 3, 32, 0
6, 47640, Note_on_c, 3, 32, 110
6, 47759, Note_on_c, 3, 32, 0
6, 47760, Note_on_c, 3, 32, 107
6, 47879, Note_on_c, 3, 32, 0
6, 47880, Note_on_c, 3, 32, 105
6, 47999, Note_on_c, 3, 32, 0
6, 48000, Note_on_c, 3, 32, 110
6, 48119, Note_on_c, 3, 32, 0
6, 48120, Note_on_c, 3, 32, 110
6, 48239, Note_on_c, 3, 32, 0
6, 48240, Note_on_c, 3, 32, 107
6, 48359, Note_on_c, 3, 32, 0
6, 48360, Note_on_c, 3, 32, 105
6, 48479, Note_on_c, 3, 32, 0
6, 48480, Note_on_c, 3, 32, 110
6, 48599, Note_on_c, 3, 32, 0
6, 48600, Note_on_c, 3, 32, 110
6, 48719, Note_on_c, 3, 32, 0
6, 48720, Note_on_c, 3, 32, 107
6, 48839, Note_on_c, 3, 32, 0
6, 48840, Note_on_c, 3, 32, 105
6, 48959, Note_on_c, 3, 32, 0
6, 48960, Note_on_c, 3, 32, 110
6, 49079, Note_on_c, 3, 32, 0
6, 49080, Note_on_c, 3, 32, 110
6, 49199, Note_on_c, 3, 32, 0
6, 49200, Note_on_c, 3, 32, 107
6, 49319, Note_on_c, 3, 32, 0
6, 49320, Note_on_c, 3, 32, 105
6, 49439, Note_on_c, 3, 32, 0
6, 49440, Note_on_c, 3, 32, 110
6, 49559, Note_on_c, 3, 32, 0
6, 49560, Note_on_c, 3, 32, 110
6, 49679, Note_on_c, 3, 32, 0
6, 49680, Note_on_c, 3, 32, 107
6, 49799, Note_on_c, 3, 32, 0
6, 49800, Note_on_c, 3, 32, 105
6, 49919, Note_on_c, 3, 32, 0
6, 49920, Note_on_c, 3, 32, 110
6, 50039, Note_on_c, 3, 32, 0
6, 50040, Note_on_c, 3, 32, 110
6, 50159, Note_on_c, 3, 32, 0
6, 50160, Note_on_c, 3, 32, 107
6, 50279, Note_on_c, 3, 32, 0
6, 50280, Note_on_c, 3, 32, 105
6, 50399, Note_on_c, 3, 32, 0
6, 50400, Note_on_c, 3, 32, 110
6, 50519, Note_on_c, 3, 32, 0
6, 50520, Note_on_c, 3, 32, 110
6, 50639, Note_on_c, 3, 32, 0
6, 50640, Note_on_c, 3, 32, 107
6, 50759, Note_on_c, 3, 32, 0
6, 50760, Note_on_c, 3, 32, 105
6, 50879, Note_on_c, 3, 32, 0
6, 50880, Note_on_c, 3, 32, 110
6, 50999, Note_on_c, 3, 32, 0
6, 51000, Note_on_c, 3, 32, 110
6, 51119, Note_on_c, 3, 32, 0
6, 51120, Note_on_c, 3, 32, 107
6, 51239, Note_on_c, 3, 32, 0
6, 51240, Note_on_c, 3, 32, 105
6, 51359, Note_on_c, 3, 32, 0
6, 51360, Note_on_c, 3, 32, 110
6, 51479, Note_on_c, 3, 32, 0
6, 51480, Note_on_c, 3, 32, 110
6, 51599, Note_on_c, 3, 32, 0
6, 51600, Note_on_c, 3, 32, 107
6, 51719, Note_on_c, 3, 32, 0
6, 51720, Note_on_c, 3, 32, 105
6, 51839, Note_on_c, 3, 32, 0
6, 51840, Note_on_c, 3, 32, 110
6, 51959, Note_on_c, 3, 32, 0
6, 51960, Note_on_c, 3, 32, 110
6, 52079, Note_on_c, 3, 32, 0
6, 52080, Note_on_c, 3, 32, 107
6, 52199, Note_on_c, 3, 32, 0
6, 52200, Note_on_c, 3, 32, 105
6, 52319, Note_on_c, 3, 32, 0
6, 52320, Note_on_c, 3, 32, 110
6, 52439, Note_on_c, 3, 32, 0
6, 52440, Note_on_c, 3, 32, 110
6, 52559, Note_on_c, 3, 32, 0
6, 52560, Note_on_c, 3, 32, 107
6, 52679, Note_on_c, 3, 32, 0
6, 52680, Note_on_c, 3, 32, 105
6, 52799, Note_on_c, 3, 32, 0
6, 52800, Note_on_c, 3, 32, 110
6, 52919, Note_on_c, 3, 32, 0
6, 52920, Note_on_c, 3, 32, 110
6, 53039, Note_on_c, 3, 32, 0
6, 53040, Note_on_c, 3, 32, 107
6, 53159, Note_on_c, 3, 32, 0
6, 53160, Note_on_c, 3, 32, 105
6, 53279, Note_on_c, 3, 32, 0
6, 53280, Note_on_c, 3, 32, 110
6, 53399, Note_on_c, 3, 32, 0
6, 53400, Note_on_c, 3, 32, 110
6, 53519, Note_on_c, 3, 32, 0
6, 53520, Note_on_c, 3, 32, 107
6, 53639, Note_on_c, 3, 32, 0
6, 53640, Note_on_c, 3, 32, 105
6, 53759, Note_on_c, 3, 32, 0
6, 53760, Note_on_c, 3, 32, 110
6, 53879, Note_on_c, 3, 32, 0
6, 53880, Note_on_c, 3, 32, 110
6, 53999, Note_on_c, 3, 32, 0
6, 54000, Note_on_c, 3, 32, 107
6, 54119, Note_on_c, 3, 32, 0
6, 54120, Note_on_c, 3, 32, 105
6, 54239, Note_on_c, 3, 32, 0
6, 54240, Note_on_c, 3, 32, 110
6, 54359, Note_on_c, 3, 32, 0
6, 54360, Note_on_c, 3, 32, 110
6, 54479, Note_on_c, 3, 32, 0
6, 54480, Note_on_c, 3, 32, 107
6, 54599, Note_on_c, 3, 32, 0
6, 54600, Note_on_c, 3, 32, 105
6, 54719, Note_on_c, 3, 32, 0
6, 54720, Note_on_c, 3, 32, 110
6, 54839, Note_on_c, 3, 32, 0
6, 54840, Note_on_c, 3, 32, 110
6, 54959, Note_on_c, 3, 32, 0
6, 54960, Note_on_c, 3, 32, 107
6, 55079, Note_on_c, 3, 32, 0
6, 55080, Note_on_c, 3, 32, 105
6, 55199, Note_on_c, 3, 32, 0
6, 55200, Note_on_c, 3, 32, 110
6, 55319, Note_on_c, 3, 32, 0
6, 55320, Note_on_c, 3, 32, 110
6, 55439, Note_on_c, 3, 32, 0
6, 55440, Note_on_c, 3, 32, 107
6, 55559, Note_on_c, 3, 32, 0
6, 55560, Note_on_c, 3, 32, 105
6, 55679, Note_on_c, 3, 32, 0
6, 55680, Note_on_c, 3, 32, 110
6, 55799, Note_on_c, 3, 32, 0
6, 55800, Note_on_c, 3, 32, 110
6, 55919, Note_on_c, 3, 32, 0
6, 55920, Note_on_c, 3, 32, 107
6, 56039, Note_on_c, 3, 32, 0
6, 56040, Note_on_c, 3, 32, 105
6, 56159, Note_on_c, 3, 32, 0
6, 56160, Note_on_c, 3, 32, 110
6, 56279, Note_on_c, 3, 32, 0
6, 56280, Note_on_c, 3, 32, 110
6, 56399, Note_on_c, 3, 32, 0
6, 56400, Note_on_c, 3, 32, 107
6, 56519, Note_on_c, 3, 32, 0
6, 56520, Note_on_c, 3, 32, 105
6, 56639, Note_on_c, 3, 32, 0
6, 56640, Note_on_c, 3, 32, 110
6, 56759, Note_on_c, 3, 32, 0
6, 56760, Note_on_c, 3, 32, 110
6, 56879, Note_on_c, 3, 32, 0
6, 56880, Note_on_c, 3, 32, 107
6, 56999, Note_on_c, 3, 32, 0
6, 57000, Note_on_c, 3, 32, 105
6, 57119, Note_on_c, 3, 32, 0
6, 57120, Note_on_c, 3, 32, 110
6, 57239, Note_on_c, 3, 32, 0
6, 57240, Note_on_c, 3, 32, 110
6, 57359, Note_on_c, 3, 32, 0
6, 57360, Note_on_c, 3, 32, 107
6, 57479, Note_on_c, 3, 32, 0
6, 57480, Note_on_c, 3, 32, 105
6, 57599, Note_on_c, 3, 32, 0
6, 57600, Note_on_c, 3, 32, 110
6, 57719, Note_on_c, 3, 32, 0
6, 57720, Note_on_c, 3, 32, 110
6, 57839, Note_on_c, 3, 32, 0
6, 57840, Note_on_c, 3, 32, 107
6, 57959, Note_on_c, 3, 32, 0
6, 57960, Note_on_c, 3, 32, 105
6, 58079, Note_on_c, 3, 32, 0
6, 58080, Note_on_c, 3, 32, 110
6, 58199, Note_on_c, 3, 32, 0
6, 58200, Note_on_c, 3, 32, 110
6, 58319, Note_on_c, 3, 32, 0
6, 58320, Note_on_c, 3, 32, 107
6, 58439, Note_on_c, 3, 32, 0
6, 58440, Note_on_c, 3, 32, 105
6, 58559, Note_on_c, 3, 32, 0
6, 58560, Note_on_c, 3, 32, 110
6, 58679, Note_on_c, 3, 32, 0
6, 58680, Note_on_c, 3, 32, 110
6, 58799, Note_on_c, 3, 32, 0
6, 58800, Note_on_c, 3, 32, 107
6, 58919, Note_on_c, 3, 32, 0
6, 58920, Note_on_c, 3, 32, 105
6, 59039, Note_on_c, 3, 32, 0
6, 59040, Note_on_c, 3, 32, 110
6, 59159, Note_on_c, 3, 32, 0
6, 59160, Note_on_c, 3, 32, 110
6, 59279, Note_on_c, 3, 32, 0
6, 59280, Note_on_c, 3, 32, 107
6, 59399, Note_on_c, 3, 32, 0
6, 59400, Note_on_c, 3, 32, 105
6, 59519, Note_on_c, 3, 32, 0
6, 59520, Note_on_c, 3, 32, 110
6, 59639, Note_on_c, 3, 32, 0
6, 59640, Note_on_c, 3, 32, 110
6, 59759, Note_on_c, 3, 32, 0
6, 59760, Note_on_c, 3, 32, 107
6, 59879, Note_on_c, 3, 32, 0
6, 59880, Note_on_c, 3, 32, 105
6, 59999, Note_on_c, 3, 32, 0
6, 60000, Note_on_c, 3, 32, 110
6, 60119, Note_on_c, 3, 32, 0
6, 60120, Note_on_c, 3, 32, 110
6, 60239, Note_on_c, 3, 32, 0
6, 60240, Note_on_c, 3, 32, 107
6, 60359, Note_on_c, 3, 32, 0
6, 60360, Note_on_c, 3, 32, 105
6, 60479, Note_on_c, 3, 32, 0
6, 60480, Note_on_c, 3, 32, 110
6, 60599, Note_on_c, 3, 32, 0
6, 60600, Note_on_c, 3, 32, 110
6, 60719, Note_on_c, 3, 32, 0
6, 60720, Note_on_c, 3, 32, 107
6, 60839, Note_on_c, 3, 32, 0
6, 60840, Note_on_c, 3, 32, 105
6, 60959, Note_on_c, 3, 32, 0
6, 60960, Note_on_c, 3, 32, 110
6, 61079, Note_on_c, 3, 32, 0
6, 61080, Note_on_c, 3, 32, 110
6, 61199, Note_on_c, 3, 32, 0
6, 61200, Note_on_c, 3, 32, 107
6, 61319, Note_on_c, 3, 32, 0
6, 61320, Note_on_c, 3, 32, 105
6, 61439, Note_on_c, 3, 32, 0
6, 61440, Note_on_c, 3, 32, 110
6, 61559, Note_on_c, 3, 32, 0
6, 61560, Note_on_c, 3, 32, 110
6, 61679, Note_on_c, 3, 32, 0
6, 61680, Note_on_c, 3, 32, 107
6, 61799, Note_on_c, 3, 32, 0
6, 61800, Note_on_c, 3, 32, 105
6, 61919, Note_on_c, 3, 32, 0
6, 61920, Note_on_c, 3, 32, 110
6, 62039, Note_on_c, 3, 32, 0
6, 62040, Note_on_c, 3, 32, 110
6, 62159, Note_on_c, 3, 32, 0
6, 62160, Note_on_c, 3, 32, 107
6, 62279, Note_on_c, 3, 32, 0
6, 62280, Note_on_c, 3, 32, 105
6, 62399, Note_on_c, 3, 32, 0
6, 62400, Note_on_c, 3, 32, 110
6, 62519, Note_on_c, 3, 32, 0
6, 62520, Note_on_c, 3, 32, 110
6, 62639, Note_on_c, 3, 32, 0
6, 62640, Note_on_c, 3, 32, 107
6, 62759, Note_on_c, 3, 32, 0
6, 62760, Note_on_c, 3, 32, 105
6, 62879, Note_on_c, 3, 32, 0
6, 62880, Note_on_c, 3, 32, 110
6, 62999, Note_on_c, 3, 32, 0
6, 63000, Note_on_c, 3, 32, 110
6, 63119, Note_on_c, 3, 32, 0
6, 63120, Note_on_c, 3, 32, 107
6, 63239, Note_on_c, 3, 32, 0
6, 63240, Note_on_c, 3, 32, 105
6, 63359, Note_on_c, 3, 32, 0
6, 63360, Note_on_c, 3, 32, 110
6, 63479, Note_on_c, 3, 32, 0
6, 63480, Note_on_c, 3, 32, 110
6, 63599, Note_on_c, 3, 32, 0
6, 63600, Note_on_c, 3, 32, 107
6, 63719, Note_on_c, 3, 32, 0
6, 63720, Note_on_c, 3, 32, 105
6, 63839, Note_on_c, 3, 32, 0
6, 63840, Note_on_c, 3, 32, 110
6, 63959, Note_on_c, 3, 32, 0
6, 63960, Note_on_c, 3, 32, 110
6, 64079, Note_on_c, 3, 32, 0
6, 64080, Note_on_c, 3, 32, 107
6, 64199, Note_on_c, 3, 32, 0
6, 64200, Note_on_c, 3, 32, 105
6, 64319, Note_on_c, 3, 32, 0
6, 64320, Note_on_c, 3, 32, 110
6, 64439, Note_on_c, 3, 32, 0
6, 64440, Note_on_c, 3, 32, 110
6, 64559, Note_on_c, 3, 32, 0
6, 64560, Note_on_c, 3, 32, 107
6, 64679, Note_on_c, 3, 32, 0
6, 64680, Note_on_c, 3, 32, 105
6, 64799, Note_on_c, 3, 32, 0
6, 64800, Note_on_c, 3, 32, 110
6, 64919, Note_on_c, 3, 32, 0
6, 64920, Note_on_c, 3, 32, 110
6, 65039, Note_on_c, 3, 32, 0
6, 65040, Note_on_c, 3, 32, 107
6, 65159, Note_on_c, 3, 32, 0
6, 65160, Note_on_c, 3, 32, 105
6, 65279, Note_on_c, 3, 32, 0
6, 65280, Note_on_c, 3, 32, 110
6, 65399, Note_on_c, 3, 32, 0
6, 65400, Note_on_c, 3, 32, 110
6, 65519, Note_on_c, 3, 32, 0
6, 65520, Note_on_c, 3, 32, 107
6, 65639, Note_on_c, 3, 32, 0
6, 65640, Note_on_c, 3, 32, 105
6, 65759, Note_on_c, 3, 32, 0
6, 65760, Note_on_c, 3, 32, 110
6, 65879, Note_on_c, 3, 32, 0
6, 65880, Note_on_c, 3, 32, 110
6, 65999, Note_on_c, 3, 32, 0
6, 66000, Note_on_c, 3, 32, 107
6, 66119, Note_on_c, 3, 32, 0
6, 66120, Note_on_c, 3, 32, 105
6, 66239, Note_on_c, 3, 32, 0
6, 66240, Note_on_c, 3, 32, 110
6, 66359, Note_on_c, 3, 32, 0
6, 66360, Note_on_c, 3, 32, 110
6, 66479, Note_on_c, 3, 32, 0
6, 66480, Note_on_c, 3, 32, 107
6, 66599, Note_on_c, 3, 32, 0
6, 66600, Note_on_c, 3, 32, 105
6, 66719, Note_on_c, 3, 32, 0
6, 66720, Note_on_c, 3, 32, 110
6, 66839, Note_on_c, 3, 32, 0
6, 66840, Note_on_c, 3, 32, 110
6, 66959, Note_on_c, 3, 32, 0
6, 66960, Note_on_c, 3, 32, 107
6, 67079, Note_on_c, 3, 32, 0
6, 67080, Note_on_c, 3, 32, 105
6, 67199, Note_on_c, 3, 32, 0
6, 67200, Note_on_c, 3, 32, 110
6, 67319, Note_on_c, 3, 32, 0
6, 67320, Note_on_c, 3, 32, 110
6, 67439, Note_on_c, 3, 32, 0
6, 67440, Note_on_c, 3, 32, 107
6, 67559, Note_on_c, 3, 32, 0
6, 67560, Note_on_c, 3, 32, 105
6, 67679, Note_on_c, 3, 32, 0
6, 67680, Note_on_c, 3, 32, 110
6, 67799, Note_on_c, 3, 32, 0
6, 67800, Note_on_c, 3, 32, 110
6, 67919, Note_on_c, 3, 32, 0
6, 67920, Note_on_c, 3, 32, 107
6, 68039, Note_on_c, 3, 32, 0
6, 68040, Note_on_c, 3, 32, 105
6, 68159, Note_on_c, 3, 32, 0
6, 68160, Note_on_c, 3, 32, 110
6, 68279, Note_on_c, 3, 32, 0
6, 68280, Note_on_c, 3, 32, 110
6, 68399, Note_on_c, 3, 32, 0
6, 68400, Note_on_c, 3, 32, 107
6, 68519, Note_on_c, 3, 32, 0
6, 68520, Note_on_c, 3, 32, 105
6, 68639, Note_on_c, 3, 32, 0
6, 68640, Note_on_c, 3, 32, 110
6, 68759, Note_on_c, 3, 32, 0
6, 68760, Note_on_c, 3, 32, 110
6, 68879, Note_on_c, 3, 32, 0
6, 68880, Note_on_c, 3, 32, 107
6, 68999, Note_on_c, 3, 32, 0
6, 69000, Note_on_c, 3, 32, 105
6, 69119, Note_on_c, 3, 32, 0
6, 69120, Note_on_c, 3, 32, 110
6, 69239, Note_on_c, 3, 32, 0
6, 69240, Note_on_c, 3, 32, 110
6, 69359, Note_on_c, 3, 32, 0
6, 69360, Note_on_c, 3, 32, 107
6, 69479, Note_on_c, 3, 32, 0
6, 69480, Note_on_c, 3, 32, 105
6, 69599, Note_on_c, 3, 32, 0
6, 69600, Note_on_c, 3, 32, 110
6, 69719, Note_on_c, 3, 32, 0
6, 69720, Note_on_c, 3, 32, 110
6, 69839, Note_on_c, 3, 32, 0
6, 69840, Note_on_c, 3, 32, 107
6, 69959, Note_on_c, 3, 32, 0
6, 69960, Note_on_c, 3, 32, 105
6, 70079, Note_on_c, 3, 32, 0
6, 70080, Note_on_c, 3, 32, 110
6, 70199, Note_on_c, 3, 32, 0
6, 70200, Note_on_c, 3, 32, 110
6, 70319, Note_on_c, 3, 32, 0
6, 70320, Note_on_c, 3, 32, 107
6, 70439, Note_on_c, 3, 32, 0
6, 70440, Note_on_c, 3, 32, 105
6, 70559, Note_on_c, 3, 32, 0
6, 70560, Note_on_c, 3, 32, 110
6, 70679, Note_on_c, 3, 32, 0
6, 70680, Note_on_c, 3, 32, 110
6, 70799, Note_on_c, 3, 32, 0
6, 70800, Note_on_c, 3, 32, 107
6, 70919, Note_on_c, 3, 32, 0
6, 70920, Note_on_c, 3, 32, 105
6, 71039, Note_on_c, 3, 32, 0
6, 71040, Note_on_c, 3, 32, 110
6, 71159, Note_on_c, 3, 32, 0
6, 71160, Note_on_c, 3, 32, 110
6, 71279, Note_on_c, 3, 32, 0
6, 71280, Note_on_c, 3, 32, 107
6, 71399, Note_on_c, 3, 32, 0
6, 71400, Note_on_c, 3, 32, 105
6, 71519, Note_on_c, 3, 32, 0
6, 71520, Note_on_c, 3, 43, 127
6, 71599, Note_on_c, 3, 43, 0
6, 71600, Note_on_c, 3, 43, 112
6, 71639, Note_on_c, 3, 43, 0
6, 71640, Note_on_c, 3, 41, 123
6, 71719, Note_on_c, 3, 41, 0
6, 71720, Note_on_c, 3, 41, 123
6, 71759, Note_on_c, 3, 41, 0
6, 71760, Note_on_c, 3, 38, 123
6, 71839, Note_on_c, 3, 38, 0
6, 71840, Note_on_c, 3, 38, 112
6, 71879, Note_on_c, 3, 38, 0
6, 71880, Note_on_c, 3, 40, 115
6, 71959, Note_on_c, 3, 40, 0
6, 71960, Note_on_c, 3, 42, 125
6, 71999, Note_on_c, 3, 42, 0
6, 71999, End_track
7, 0, Start_track
7, 0, Title_t, "Kick"
7, 5, Control_c, 9, 121, 0
7, 5, Program_c, 9, 0
7, 5, Control_c, 9, 7, 100
7, 5, Control_c, 9, 91, 0
7, 5, Control_c, 9, 93, 0
7, 5, Control_c, 9, 10, 64
7, 5, Control_c, 9, 1, 0
7, 5, Control_c, 9, 64, 0
7, 5, Pitch_bend_c, 9, 8192
7, 1440, Note_on_c, 9, 36, 119
7, 1559, Note_on_c, 9, 36, 0
7, 1560, Note_on_c, 9, 36, 123
7, 1679, Note_on_c, 9, 36, 0
7, 1680, Note_on_c, 9, 36, 123
7, 1799, Note_on_c, 9, 36, 0
7, 1800, Note_on_c, 9, 36, 127
7, 1919, Note_on_c, 9, 36, 0
7, 1920, Note_on_c, 9, 36, 119
7, 2039, Note_on_c, 9, 36, 0
7, 2040, Note_on_c, 9, 36, 123
7, 2159, Note_on_c, 9, 36, 0
7, 2160, Note_on_c, 9, 36, 123
7, 2279, Note_on_c, 9, 36, 0
7, 2280, Note_on_c, 9, 36, 127
7, 2399, Note_on_c, 9, 36, 0
7, 2400, Note_on_c, 9, 36, 119
7, 2519, Note_on_c, 9, 36, 0
7, 2520, Note_on_c, 9, 36, 123
7, 2639, Note_on_c, 9, 36, 0
7, 2640, Note_on_c, 9, 36, 123
7, 2759, Note_on_c, 9, 36, 0
7, 2760, Note_on_c, 9, 36, 127
7, 2879, Note_on_c, 9, 36, 0
7, 2880, Note_on_c, 9, 36, 119
7, 2999, Note_on_c, 9, 36, 0
7, 3000, Note_on_c, 9, 36, 123
7, 3119, Note_on_c, 9, 36, 0
7, 3120, Note_on_c, 9, 36, 123
7, 3239, Note_on_c, 9, 36, 0
7, 3240, Note_on_c, 9, 36, 127
7, 3359, Note_on_c, 9, 36, 0
7, 3360, Note_on_c, 9, 36, 119
7, 3479, Note_on_c, 9, 36, 0
7, 3480, Note_on_c, 9, 36, 123
7, 3599, Note_on_c, 9, 36, 0
7, 3600, Note_on_c, 9, 36, 123
7, 3719, Note_on_c, 9, 36, 0
7, 3720, Note_on_c, 9, 36, 127
7, 3839, Note_on_c, 9, 36, 0
7, 3840, Note_on_c, 9, 36, 119
7, 3959, Note_on_c, 9, 36, 0
7, 3960, Note_on_c, 9, 36, 123
7, 4079, Note_on_c, 9, 36, 0
7, 4080, Note_on_c, 9, 36, 123
7, 4199, Note_on_c, 9, 36, 0
7, 4200, Note_on_c, 9, 36, 127
7, 4319, Note_on_c, 9, 36, 0
7, 4320, Note_on_c, 9, 36, 119
7, 4439, Note_on_c, 9, 36, 0
7, 4440, Note_on_c, 9, 36, 123
7, 4559, Note_on_c, 9, 36, 0
7, 4560, Note_on_c, 9, 36, 123
7, 4679, Note_on_c, 9, 36, 0
7, 4680, Note_on_c, 9, 36, 127
7, 4799, Note_on_c, 9, 36, 0
7, 4800, Note_on_c, 9, 36, 119
7, 4919, Note_on_c, 9, 36, 0
7, 4920, Note_on_c, 9, 36, 123
7, 5039, Note_on_c, 9, 36, 0
7, 5040, Note_on_c, 9, 36, 123
7, 5159, Note_on_c, 9, 36, 0
7, 5160, Note_on_c, 9, 36, 127
7, 5279, Note_on_c, 9, 36, 0
7, 5280, Note_on_c, 9, 36, 119
7, 5399, Note_on_c, 9, 36, 0
7, 5400, Note_on_c, 9, 36, 123
7, 5519, Note_on_c, 9, 36, 0
7, 5520, Note_on_c, 9, 36, 123
7, 5639, Note_on_c, 9, 36, 0
7, 5640, Note_on_c, 9, 36, 127
7, 5759, Note_on_c, 9, 36, 0
7, 5760, Note_on_c, 9, 36, 119
7, 5879, Note_on_c, 9, 36, 0
7, 5880, Note_on_c, 9, 36, 123
7, 5999, Note_on_c, 9, 36, 0
7, 6000, Note_on_c, 9, 36, 123
7, 6119, Note_on_c, 9, 36, 0
7, 6120, Note_on_c, 9, 36, 127
7, 6239, Note_on_c, 9, 36, 0
7, 6240, Note_on_c, 9, 36, 119
7, 6359, Note_on_c, 9, 36, 0
7, 6360, Note_on_c, 9, 36, 123
7, 6479, Note_on_c, 9, 36, 0
7, 6480, Note_on_c, 9, 36, 123
7, 6599, Note_on_c, 9, 36, 0
7, 6600, Note_on_c, 9, 36, 127
7, 6719, Note_on_c, 9, 36, 0
7, 6720, Note_on_c, 9, 36, 119
7, 6839, Note_on_c, 9, 36, 0
7, 6840, Note_on_c, 9, 36, 123
7, 6959, Note_on_c, 9, 36, 0
7, 6960, Note_on_c, 9, 36, 123
7, 7079, Note_on_c, 9, 36, 0
7, 7080, Note_on_c, 9, 36, 127
7, 7199, Note_on_c, 9, 36, 0
7, 7200, Note_on_c, 9, 36, 119
7, 7319, Note_on_c, 9, 36, 0
7, 7320, Note_on_c, 9, 36, 123
7, 7439, Note_on_c, 9, 36, 0
7, 7440, Note_on_c, 9, 36, 123
7, 7559, Note_on_c, 9, 36, 0
7, 7560, Note_on_c, 9, 36, 127
7, 7679, Note_on_c, 9, 36, 0
7, 7680, Note_on_c, 9, 36, 119
7, 7799, Note_on_c, 9, 36, 0
7, 7800, Note_on_c, 9, 36, 123
7, 7919, Note_on_c, 9, 36, 0
7, 7920, Note_on_c, 9, 36, 123
7, 8039, Note_on_c, 9, 36, 0
7, 8040, Note_on_c, 9, 36, 127
7, 8159, Note_on_c, 9, 36, 0
7, 8160, Note_on_c, 9, 36, 119
7, 8279, Note_on_c, 9, 36, 0
7, 8280, Note_on_c, 9, 36, 123
7, 8399, Note_on_c, 9, 36, 0
7, 8400, Note_on_c, 9, 36, 123
7, 8519, Note_on_c, 9, 36, 0
7, 8520, Note_on_c, 9, 36, 127
7, 8639, Note_on_c, 9, 36, 0
7, 8640, Note_on_c, 9, 36, 119
7, 8759, Note_on_c, 9, 36, 0
7, 8760, Note_on_c, 9, 36, 123
7, 8879, Note_on_c, 9, 36, 0
7, 8880, Note_on_c, 9, 36, 123
7, 8999, Note_on_c, 9, 36, 0
7, 9000, Note_on_c, 9, 36, 127
7, 9119, Note_on_c, 9, 36, 0
7, 9120, Note_on_c, 9, 36, 119
7, 9239, Note_on_c, 9, 36, 0
7, 9240, Note_on_c, 9, 36, 123
7, 9359, Note_on_c, 9, 36, 0
7, 9360, Note_on_c, 9, 36, 123
7, 9479, Note_on_c, 9, 36, 0
7, 9480, Note_on_c, 9, 36, 127
7, 9599, Note_on_c, 9, 36, 0
7, 9600, Note_on_c, 9, 36, 119
7, 9719, Note_on_c, 9, 36, 0
7, 9720, Note_on_c, 9, 36, 123
7, 9839, Note_on_c, 9, 36, 0
7, 9840, Note_on_c, 9, 36, 123
7, 9959, Note_on_c, 9, 36, 0
7, 9960, Note_on_c, 9, 36, 127
7, 10079, Note_on_c, 9, 36, 0
7, 10080, Note_on_c, 9, 36, 119
7, 10199, Note_on_c, 9, 36, 0
7, 10200, Note_on_c, 9, 36, 123
7, 10319, Note_on_c, 9, 36, 0
7, 10320, Note_on_c, 9, 36, 123
7, 10439, Note_on_c, 9, 36, 0
7, 10440, Note_on_c, 9, 36, 127
7, 10559, Note_on_c, 9, 36, 0
7, 10560, Note_on_c, 9, 36, 119
7, 10679, Note_on_c, 9, 36, 0
7, 10680, Note_on_c, 9, 36, 123
7, 10799, Note_on_c, 9, 36, 0
7, 10800, Note_on_c, 9, 36, 123
7, 10919, Note_on_c, 9, 36, 0
7, 10920, Note_on_c, 9, 36, 127
7, 11039, Note_on_c, 9, 36, 0
7, 11040, Note_on_c, 9, 36, 119
7, 11159, Note_on_c, 9, 36, 0
7, 11160, Note_on_c, 9, 36, 123
7, 11279, Note_on_c, 9, 36, 0
7, 11280, Note_on_c, 9, 36, 123
7, 11399, Note_on_c, 9, 36, 0
7, 11400, Note_on_c, 9, 36, 127
7, 11519, Note_on_c, 9, 36, 0
7, 11520, Note_on_c, 9, 36, 119
7, 11639, Note_on_c, 9, 36, 0
7, 11640, Note_on_c, 9, 36, 123
7, 11759, Note_on_c, 9, 36, 0
7, 11760, Note_on_c, 9, 36, 123
7, 11879, Note_on_c, 9, 36, 0
7, 11880, Note_on_c, 9, 36, 127
7, 11999, Note_on_c, 9, 36, 0
7, 12000, Note_on_c, 9, 36, 119
7, 12119, Note_on_c, 9, 36, 0
7, 12120, Note_on_c, 9, 36, 123
7, 12239, Note_on_c, 9, 36, 0
7, 12240, Note_on_c, 9, 36, 123
7, 12359, Note_on_c, 9, 36, 0
7, 12360, Note_on_c, 9, 36, 127
7, 12479, Note_on_c, 9, 36, 0
7, 12480, Note_on_c, 9, 36, 119
7, 12599, Note_on_c, 9, 36, 0
7, 12600, Note_on_c, 9, 36, 123
7, 12719, Note_on_c, 9, 36, 0
7, 12720, Note_on_c, 9, 36, 123
7, 12839, Note_on_c, 9, 36, 0
7, 12840, Note_on_c, 9, 36, 127
7, 12959, Note_on_c, 9, 36, 0
7, 12960, Note_on_c, 9, 36, 125
7, 13079, Note_on_c, 9, 36, 0
7, 13080, Note_on_c, 9, 36, 125
7, 13199, Note_on_c, 9, 36, 0
7, 13200, Note_on_c, 9, 36, 119
7, 13319, Note_on_c, 9, 36, 0
7, 13320, Note_on_c, 9, 36, 119
7, 13439, Note_on_c, 9, 36, 0
7, 13440, Note_on_c, 9, 36, 125
7, 13559, Note_on_c, 9, 36, 0
7, 13560, Note_on_c, 9, 36, 125
7, 13679, Note_on_c, 9, 36, 0
7, 13680, Note_on_c, 9, 36, 119
7, 13799, Note_on_c, 9, 36, 0
7, 13800, Note_on_c, 9, 36, 119
7, 13919, Note_on_c, 9, 36, 0
7, 13920, Note_on_c, 9, 36, 125
7, 14039, Note_on_c, 9, 36, 0
7, 14040, Note_on_c, 9, 36, 125
7, 14159, Note_on_c, 9, 36, 0
7, 14160, Note_on_c, 9, 36, 119
7, 14279, Note_on_c, 9, 36, 0
7, 14280, Note_on_c, 9, 36, 119
7, 14399, Note_on_c, 9, 36, 0
7, 14400, Note_on_c, 9, 36, 119
7, 14519, Note_on_c, 9, 36, 0
7, 14520, Note_on_c, 9, 36, 123
7, 14639, Note_on_c, 9, 36, 0
7, 14640, Note_on_c, 9, 36, 123
7, 14759, Note_on_c, 9, 36, 0
7, 14760, Note_on_c, 9, 36, 127
7, 14879, Note_on_c, 9, 36, 0
7, 14880, Note_on_c, 9, 36, 119
7, 14999, Note_on_c, 9, 36, 0
7, 15000, Note_on_c, 9, 36, 123
7, 15119, Note_on_c, 9, 36, 0
7, 15120, Note_on_c, 9, 36, 123
7, 15239, Note_on_c, 9, 36, 0
7, 15240, Note_on_c, 9, 36, 127
7, 15359, Note_on_c, 9, 36, 0
7, 15360, Note_on_c, 9, 36, 119
7, 15479, Note_on_c, 9, 36, 0
7, 15480, Note_on_c, 9, 36, 123
7, 15599, Note_on_c, 9, 36, 0
7, 15600, Note_on_c, 9, 36, 123
7, 15719, Note_on_c, 9, 36, 0
7, 15720, Note_on_c, 9, 36, 127
7, 15839, Note_on_c, 9, 36, 0
7, 15840, Note_on_c, 9, 36, 119
7, 15959, Note_on_c, 9, 36, 0
7, 15960, Note_on_c, 9, 36, 123
7, 16079, Note_on_c, 9, 36, 0
7, 16080, Note_on_c, 9, 36, 123
7, 16199, Note_on_c, 9, 36, 0
7, 16200, Note_on_c, 9, 36, 127
7, 16319, Note_on_c, 9, 36, 0
7, 16320, Note_on_c, 9, 36, 119
7, 16439, Note_on_c, 9, 36, 0
7, 16440, Note_on_c, 9, 36, 123
7, 16559, Note_on_c, 9, 36, 0
7, 16560, Note_on_c, 9, 36, 123
7, 16679, Note_on_c, 9, 36, 0
7, 16680, Note_on_c, 9, 36, 127
7, 16799, Note_on_c, 9, 36, 0
7, 16800, Note_on_c, 9, 36, 119
7, 16919, Note_on_c, 9, 36, 0
7, 16920, Note_on_c, 9, 36, 123
7, 17039, Note_on_c, 9, 36, 0
7, 17040, Note_on_c, 9, 36, 123
7, 17159, Note_on_c, 9, 36, 0
7, 17160, Note_on_c, 9, 36, 127
7, 17279, Note_on_c, 9, 36, 0
7, 17280, Note_on_c, 9, 36, 119
7, 17399, Note_on_c, 9, 36, 0
7, 17400, Note_on_c, 9, 36, 123
7, 17519, Note_on_c, 9, 36, 0
7, 17520, Note_on_c, 9, 36, 123
7, 17639, Note_on_c, 9, 36, 0
7, 17640, Note_on_c, 9, 36, 127
7, 17759, Note_on_c, 9, 36, 0
7, 17760, Note_on_c, 9, 36, 123
7, 17819, Note_on_c, 9, 36, 0
7, 17880, Note_on_c, 9, 36, 115
7, 17939, Note_on_c, 9, 36, 0
7, 18000, Note_on_c, 9, 36, 125
7, 18059, Note_on_c, 9, 36, 0
7, 18120, Note_on_c, 9, 36, 119
7, 18179, Note_on_c, 9, 36, 0
7, 18240, Note_on_c, 9, 36, 119
7, 18359, Note_on_c, 9, 36, 0
7, 18360, Note_on_c, 9, 36, 123
7, 18479, Note_on_c, 9, 36, 0
7, 18480, Note_on_c, 9, 36, 123
7, 18599, Note_on_c, 9, 36, 0
7, 18600, Note_on_c, 9, 36, 127
7, 18719, Note_on_c, 9, 36, 0
7, 18720, Note_on_c, 9, 36, 123
7, 18779, Note_on_c, 9, 36, 0
7, 18840, Note_on_c, 9, 36, 115
7, 18899, Note_on_c, 9, 36, 0
7, 18960, Note_on_c, 9, 36, 125
7, 19019, Note_on_c, 9, 36, 0
7, 19080, Note_on_c, 9, 36, 119
7, 19139, Note_on_c, 9, 36, 0
7, 19200, Note_on_c, 9, 36, 119
7, 19319, Note_on_c, 9, 36, 0
7, 19320, Note_on_c, 9, 36, 123
7, 19439, Note_on_c, 9, 36, 0
7, 19440, Note_on_c, 9, 36, 123
7, 19559, Note_on_c, 9, 36, 0
7, 19560, Note_on_c, 9, 36, 127
7, 19679, Note_on_c, 9, 36, 0
7, 19680, Note_on_c, 9, 36, 123
7, 19739, Note_on_c, 9, 36, 0
7, 19800, Note_on_c, 9, 36, 115
7, 19859, Note_on_c, 9, 36, 0
7, 19920, Note_on_c, 9, 36, 125
7, 19979, Note_on_c, 9, 36, 0
7, 20040, Note_on_c, 9, 36, 119
7, 20099, Note_on_c, 9, 36, 0
7, 20160, Note_on_c, 9, 36, 119
7, 20279, Note_on_c, 9, 36, 0
7, 20280, Note_on_c, 9, 36, 123
7, 20399, Note_on_c, 9, 36, 0
7, 20400, Note_on_c, 9, 36, 123
7, 20519, Note_on_c, 9, 36, 0
7, 20520, Note_on_c, 9, 36, 127
7, 20639, Note_on_c, 9, 36, 0
7, 20640, Note_on_c, 9, 36, 123
7, 20699, Note_on_c, 9, 36, 0
7, 20760, Note_on_c, 9, 36, 115
7, 20819, Note_on_c, 9, 36, 0
7, 20880, Note_on_c, 9, 36, 125
7, 20939, Note_on_c, 9, 36, 0
7, 21000, Note_on_c, 9, 36, 119
7, 21059, Note_on_c, 9, 36, 0
7, 21120, Note_on_c, 9, 36, 119
7, 21239, Note_on_c, 9, 36, 0
7, 21240, Note_on_c, 9, 36, 123
7, 21359, Note_on_c, 9, 36, 0
7, 21360, Note_on_c, 9, 36, 123
7, 21479, Note_on_c, 9, 36, 0
7, 21480, Note_on_c, 9, 36, 127
7, 21599, Note_on_c, 9, 36, 0
7, 21600, Note_on_c, 9, 36, 123
7, 21659, Note_on_c, 9, 36, 0
7, 21720, Note_on_c, 9, 36, 115
7, 21779, Note_on_c, 9, 36, 0
7, 21840, Note_on_c, 9, 36, 125
7, 21899, Note_on_c, 9, 36, 0
7, 21960, Note_on_c, 9, 36, 119
7, 22019, Note_on_c, 9, 36, 0
7, 22080, Note_on_c, 9, 36, 119
7, 22199, Note_on_c, 9, 36, 0
7, 22200, Note_on_c, 9, 36, 123
7, 22319, Note_on_c, 9, 36, 0
7, 22320, Note_on_c, 9, 36, 123
7, 22439, Note_on_c, 9, 36, 0
7, 22440, Note_on_c, 9, 36, 127
7, 22559, Note_on_c, 9, 36, 0
7, 22560, Note_on_c, 9, 36, 119
7, 22679, Note_on_c, 9, 36, 0
7, 22680, Note_on_c, 9, 36, 123
7, 22799, Note_on_c, 9, 36, 0
7, 22800, Note_on_c, 9, 36, 123
7, 22919, Note_on_c, 9, 36, 0
7, 22920, Note_on_c, 9, 36, 127
7, 23039, Note_on_c, 9, 36, 0
7, 23040, Note_on_c, 9, 36, 119
7, 23159, Note_on_c, 9, 36, 0
7, 23160, Note_on_c, 9, 36, 123
7, 23279, Note_on_c, 9, 36, 0
7, 23280, Note_on_c, 9, 36, 123
7, 23399, Note_on_c, 9, 36, 0
7, 23400, Note_on_c, 9, 36, 127
7, 23519, Note_on_c, 9, 36, 0
7, 23520, Note_on_c, 9, 36, 119
7, 23639, Note_on_c, 9, 36, 0
7, 23640, Note_on_c, 9, 36, 123
7, 23759, Note_on_c, 9, 36, 0
7, 23760, Note_on_c, 9, 36, 123
7, 23879, Note_on_c, 9, 36, 0
7, 23880, Note_on_c, 9, 36, 127
7, 23999, Note_on_c, 9, 36, 0
7, 24000, Note_on_c, 9, 36, 127
7, 24119, Note_on_c, 9, 36, 0
7, 24120, Note_on_c, 9, 36, 119
7, 24239, Note_on_c, 9, 36, 0
7, 24240, Note_on_c, 9, 36, 119
7, 24359, Note_on_c, 9, 36, 0
7, 24360, Note_on_c, 9, 36, 115
7, 24479, Note_on_c, 9, 36, 0
7, 24480, Note_on_c, 9, 36, 125
7, 24599, Note_on_c, 9, 36, 0
7, 24600, Note_on_c, 9, 36, 119
7, 24719, Note_on_c, 9, 36, 0
7, 24720, Note_on_c, 9, 36, 119
7, 24839, Note_on_c, 9, 36, 0
7, 24840, Note_on_c, 9, 36, 115
7, 24959, Note_on_c, 9, 36, 0
7, 24960, Note_on_c, 9, 36, 127
7, 25079, Note_on_c, 9, 36, 0
7, 25080, Note_on_c, 9, 36, 119
7, 25199, Note_on_c, 9, 36, 0
7, 25200, Note_on_c, 9, 36, 119
7, 25319, Note_on_c, 9, 36, 0
7, 25320, Note_on_c, 9, 36, 115
7, 25439, Note_on_c, 9, 36, 0
7, 25440, Note_on_c, 9, 36, 125
7, 25559, Note_on_c, 9, 36, 0
7, 25560, Note_on_c, 9, 36, 119
7, 25679, Note_on_c, 9, 36, 0
7, 25680, Note_on_c, 9, 36, 119
7, 25799, Note_on_c, 9, 36, 0
7, 25800, Note_on_c, 9, 36, 115
7, 25919, Note_on_c, 9, 36, 0
7, 25920, Note_on_c, 9, 36, 127
7, 26039, Note_on_c, 9, 36, 0
7, 26040, Note_on_c, 9, 36, 119
7, 26159, Note_on_c, 9, 36, 0
7, 26160, Note_on_c, 9, 36, 119
7, 26279, Note_on_c, 9, 36, 0
7, 26280, Note_on_c, 9, 36, 115
7, 26399, Note_on_c, 9, 36, 0
7, 26400, Note_on_c, 9, 36, 125
7, 26519, Note_on_c, 9, 36, 0
7, 26520, Note_on_c, 9, 36, 119
7, 26639, Note_on_c, 9, 36, 0
7, 26640, Note_on_c, 9, 36, 119
7, 26759, Note_on_c, 9, 36, 0
7, 26760, Note_on_c, 9, 36, 115
7, 26879, Note_on_c, 9, 36, 0
7, 26880, Note_on_c, 9, 36, 127
7, 26999, Note_on_c, 9, 36, 0
7, 27000, Note_on_c, 9, 36, 119
7, 27119, Note_on_c, 9, 36, 0
7, 27120, Note_on_c, 9, 36, 119
7, 27239, Note_on_c, 9, 36, 0
7, 27240, Note_on_c, 9, 36, 115
7, 27359, Note_on_c, 9, 36, 0
7, 27360, Note_on_c, 9, 36, 125
7, 27479, Note_on_c, 9, 36, 0
7, 27480, Note_on_c, 9, 36, 119
7, 27599, Note_on_c, 9, 36, 0
7, 27600, Note_on_c, 9, 36, 119
7, 27719, Note_on_c, 9, 36, 0
7, 27720, Note_on_c, 9, 36, 115
7, 27839, Note_on_c, 9, 36, 0
7, 27840, Note_on_c, 9, 36, 119
7, 27959, Note_on_c, 9, 36, 0
7, 27960, Note_on_c, 9, 36, 123
7, 28079, Note_on_c, 9, 36, 0
7, 28080, Note_on_c, 9, 36, 123
7, 28199, Note_on_c, 9, 36, 0
7, 28200, Note_on_c, 9, 36, 127
7, 28319, Note_on_c, 9, 36, 0
7, 28320, Note_on_c, 9, 36, 119
7, 28439, Note_on_c, 9, 36, 0
7, 28440, Note_on_c, 9, 36, 123
7, 28559, Note_on_c, 9, 36, 0
7, 28560, Note_on_c, 9, 36, 123
7, 28679, Note_on_c, 9, 36, 0
7, 28680, Note_on_c, 9, 36, 127
7, 28799, Note_on_c, 9, 36, 0
7, 28800, Note_on_c, 9, 36, 119
7, 28919, Note_on_c, 9, 36, 0
7, 28920, Note_on_c, 9, 36, 123
7, 29039, Note_on_c, 9, 36, 0
7, 29040, Note_on_c, 9, 36, 123
7, 29159, Note_on_c, 9, 36, 0
7, 29160, Note_on_c, 9, 36, 127
7, 29279, Note_on_c, 9, 36, 0
7, 29280, Note_on_c, 9, 36, 119
7, 29399, Note_on_c, 9, 36, 0
7, 29400, Note_on_c, 9, 36, 123
7, 29519, Note_on_c, 9, 36, 0
7, 29520, Note_on_c, 9, 36, 123
7, 29639, Note_on_c, 9, 36, 0
7, 29640, Note_on_c, 9, 36, 127
7, 29759, Note_on_c, 9, 36, 0
7, 29760, Note_on_c, 9, 36, 127
7, 29879, Note_on_c, 9, 36, 0
7, 29880, Note_on_c, 9, 36, 119
7, 29999, Note_on_c, 9, 36, 0
7, 30000, Note_on_c, 9, 36, 119
7, 30119, Note_on_c, 9, 36, 0
7, 30120, Note_on_c, 9, 36, 115
7, 30239, Note_on_c, 9, 36, 0
7, 30240, Note_on_c, 9, 36, 125
7, 30359, Note_on_c, 9, 36, 0
7, 30360, Note_on_c, 9, 36, 119
7, 30479, Note_on_c, 9, 36, 0
7, 30480, Note_on_c, 9, 36, 119
7, 30599, Note_on_c, 9, 36, 0
7, 30600, Note_on_c, 9, 36, 115
7, 30719, Note_on_c, 9, 36, 0
7, 30720, Note_on_c, 9, 36, 127
7, 30839, Note_on_c, 9, 36, 0
7, 30840, Note_on_c, 9, 36, 119
7, 30959, Note_on_c, 9, 36, 0
7, 30960, Note_on_c, 9, 36, 119
7, 31079, Note_on_c, 9, 36, 0
7, 31080, Note_on_c, 9, 36, 115
7, 31199, Note_on_c, 9, 36, 0
7, 31200, Note_on_c, 9, 36, 125
7, 31319, Note_on_c, 9, 36, 0
7, 31320, Note_on_c, 9, 36, 119
7, 31439, Note_on_c, 9, 36, 0
7, 31440, Note_on_c, 9, 36, 119
7, 31559, Note_on_c, 9, 36, 0
7, 31560, Note_on_c, 9, 36, 115
7, 31679, Note_on_c, 9, 36, 0
7, 31680, Note_on_c, 9, 36, 127
7, 31799, Note_on_c, 9, 36, 0
7, 31800, Note_on_c, 9, 36, 119
7, 31919, Note_on_c, 9, 36, 0
7, 31920, Note_on_c, 9, 36, 119
7, 32039, Note_on_c, 9, 36, 0
7, 32040, Note_on_c, 9, 36, 115
7, 32159, Note_on_c, 9, 36, 0
7, 32160, Note_on_c, 9, 36, 125
7, 32279, Note_on_c, 9, 36, 0
7, 32280, Note_on_c, 9, 36, 119
7, 32399, Note_on_c, 9, 36, 0
7, 32400, Note_on_c, 9, 36, 119
7, 32519, Note_on_c, 9, 36, 0
7, 32520, Note_on_c, 9, 36, 115
7, 32639, Note_on_c, 9, 36, 0
7, 32640, Note_on_c, 9, 36, 127
7, 32759, Note_on_c, 9, 36, 0
7, 32760, Note_on_c, 9, 36, 119
7, 32879, Note_on_c, 9, 36, 0
7, 32880, Note_on_c, 9, 36, 119
7, 32999, Note_on_c, 9, 36, 0
7, 33000, Note_on_c, 9, 36, 115
7, 33119, Note_on_c, 9, 36, 0
7, 33120, Note_on_c, 9, 36, 125
7, 33239, Note_on_c, 9, 36, 0
7, 33240, Note_on_c, 9, 36, 119
7, 33359, Note_on_c, 9, 36, 0
7, 33360, Note_on_c, 9, 36, 119
7, 33479, Note_on_c, 9, 36, 0
7, 33480, Note_on_c, 9, 36, 115
7, 33599, Note_on_c, 9, 36, 0
7, 33600, Note_on_c, 9, 36, 127
7, 33719, Note_on_c, 9, 36, 0
7, 33720, Note_on_c, 9, 36, 117
7, 33839, Note_on_c, 9, 36, 0
7, 33840, Note_on_c, 9, 36, 115
7, 33959, Note_on_c, 9, 36, 0
7, 33960, Note_on_c, 9, 36, 127
7, 34079, Note_on_c, 9, 36, 0
7, 34080, Note_on_c, 9, 36, 127
7, 34199, Note_on_c, 9, 36, 0
7, 34200, Note_on_c, 9, 36, 117
7, 34319, Note_on_c, 9, 36, 0
7, 34320, Note_on_c, 9, 36, 115
7, 34439, Note_on_c, 9, 36, 0
7, 34440, Note_on_c, 9, 36, 127
7, 34559, Note_on_c, 9, 36, 0
7, 34560, Note_on_c, 9, 36, 127
7, 34679, Note_on_c, 9, 36, 0
7, 34680, Note_on_c, 9, 36, 117
7, 34799, Note_on_c, 9, 36, 0
7, 34800, Note_on_c, 9, 36, 115
7, 34919, Note_on_c, 9, 36, 0
7, 34920, Note_on_c, 9, 36, 127
7, 35039, Note_on_c, 9, 36, 0
7, 35040, Note_on_c, 9, 36, 127
7, 35159, Note_on_c, 9, 36, 0
7, 35160, Note_on_c, 9, 36, 117
7, 35279, Note_on_c, 9, 36, 0
7, 35280, Note_on_c, 9, 36, 115
7, 35399, Note_on_c, 9, 36, 0
7, 35400, Note_on_c, 9, 36, 127
7, 35519, Note_on_c, 9, 36, 0
7, 35520, Note_on_c, 9, 36, 127
7, 35639, Note_on_c, 9, 36, 0
7, 35640, Note_on_c, 9, 36, 117
7, 35759, Note_on_c, 9, 36, 0
7, 35760, Note_on_c, 9, 36, 115
7, 35879, Note_on_c, 9, 36, 0
7, 35880, Note_on_c, 9, 36, 127
7, 35999, Note_on_c, 9, 36, 0
7, 36000, Note_on_c, 9, 36, 127
7, 36119, Note_on_c, 9, 36, 0
7, 36120, Note_on_c, 9, 36, 117
7, 36239, Note_on_c, 9, 36, 0
7, 36240, Note_on_c, 9, 36, 115
7, 36359, Note_on_c, 9, 36, 0
7, 36360, Note_on_c, 9, 36, 127
7, 36479, Note_on_c, 9, 36, 0
7, 36480, Note_on_c, 9, 36, 127
7, 36599, Note_on_c, 9, 36, 0
7, 36600, Note_on_c, 9, 36, 117
7, 36719, Note_on_c, 9, 36, 0
7, 36720, Note_on_c, 9, 36, 115
7, 36839, Note_on_c, 9, 36, 0
7, 36840, Note_on_c, 9, 36, 127
7, 36959, Note_on_c, 9, 36, 0
7, 36960, Note_on_c, 9, 36, 127
7, 37079, Note_on_c, 9, 36, 0
7, 37080, Note_on_c, 9, 36, 117
7, 37199, Note_on_c, 9, 36, 0
7, 37200, Note_on_c, 9, 36, 115
7, 37319, Note_on_c, 9, 36, 0
7, 37320, Note_on_c, 9, 36, 127
7, 37439, Note_on_c, 9, 36, 0
7, 37440, Note_on_c, 9, 36, 127
7, 37559, Note_on_c, 9, 36, 0
7, 37560, Note_on_c, 9, 36, 117
7, 37679, Note_on_c, 9, 36, 0
7, 37680, Note_on_c, 9, 36, 115
7, 37799, Note_on_c, 9, 36, 0
7, 37800, Note_on_c, 9, 36, 127
7, 37919, Note_on_c, 9, 36, 0
7, 37920, Note_on_c, 9, 36, 127
7, 38039, Note_on_c, 9, 36, 0
7, 38040, Note_on_c, 9, 36, 117
7, 38159, Note_on_c, 9, 36, 0
7, 38160, Note_on_c, 9, 36, 115
7, 38279, Note_on_c, 9, 36, 0
7, 38280, Note_on_c, 9, 36, 127
7, 38399, Note_on_c, 9, 36, 0
7, 38400, Note_on_c, 9, 36, 127
7, 38519, Note_on_c, 9, 36, 0
7, 38520, Note_on_c, 9, 36, 117
7, 38639, Note_on_c, 9, 36, 0
7, 38640, Note_on_c, 9, 36, 115
7, 38759, Note_on_c, 9, 36, 0
7, 38760, Note_on_c, 9, 36, 127
7, 38879, Note_on_c, 9, 36, 0
7, 38880, Note_on_c, 9, 36, 127
7, 38999, Note_on_c, 9, 36, 0
7, 39000, Note_on_c, 9, 36, 117
7, 39119, Note_on_c, 9, 36, 0
7, 39120, Note_on_c, 9, 36, 115
7, 39239, Note_on_c, 9, 36, 0
7, 39240, Note_on_c, 9, 36, 127
7, 39359, Note_on_c, 9, 36, 0
7, 39360, Note_on_c, 9, 36, 127
7, 39479, Note_on_c, 9, 36, 0
7, 39480, Note_on_c, 9, 36, 117
7, 39599, Note_on_c, 9, 36, 0
7, 39600, Note_on_c, 9, 36, 115
7, 39719, Note_on_c, 9, 36, 0
7, 39720, Note_on_c, 9, 36, 127
7, 39839, Note_on_c, 9, 36, 0
7, 39840, Note_on_c, 9, 36, 127
7, 39959, Note_on_c, 9, 36, 0
7, 39960, Note_on_c, 9, 36, 117
7, 40079, Note_on_c, 9, 36, 0
7, 40080, Note_on_c, 9, 36, 115
7, 40199, Note_on_c, 9, 36, 0
7, 40200, Note_on_c, 9, 36, 127
7, 40319, Note_on_c, 9, 36, 0
7, 40320, Note_on_c, 9, 36, 127
7, 40439, Note_on_c, 9, 36, 0
7, 40440, Note_on_c, 9, 36, 117
7, 40559, Note_on_c, 9, 36, 0
7, 40560, Note_on_c, 9, 36, 115
7, 40679, Note_on_c, 9, 36, 0
7, 40680, Note_on_c, 9, 36, 127
7, 40799, Note_on_c, 9, 36, 0
7, 40800, Note_on_c, 9, 36, 127
7, 40919, Note_on_c, 9, 36, 0
7, 40920, Note_on_c, 9, 36, 117
7, 41039, Note_on_c, 9, 36, 0
7, 41040, Note_on_c, 9, 36, 115
7, 41159, Note_on_c, 9, 36, 0
7, 41160, Note_on_c, 9, 36, 127
7, 41279, Note_on_c, 9, 36, 0
7, 41280, Note_on_c, 9, 36, 127
7, 41399, Note_on_c, 9, 36, 0
7, 41400, Note_on_c, 9, 36, 117
7, 41519, Note_on_c, 9, 36, 0
7, 41520, Note_on_c, 9, 36, 115
7, 41639, Note_on_c, 9, 36, 0
7, 41640, Note_on_c, 9, 36, 127
7, 41759, Note_on_c, 9, 36, 0
7, 41760, Note_on_c, 9, 36, 127
7, 41879, Note_on_c, 9, 36, 0
7, 41880, Note_on_c, 9, 36, 117
7, 41999, Note_on_c, 9, 36, 0
7, 42000, Note_on_c, 9, 36, 115
7, 42119, Note_on_c, 9, 36, 0
7, 42120, Note_on_c, 9, 36, 127
7, 42239, Note_on_c, 9, 36, 0
7, 42240, Note_on_c, 9, 36, 127
7, 42359, Note_on_c, 9, 36, 0
7, 42360, Note_on_c, 9, 36, 117
7, 42479, Note_on_c, 9, 36, 0
7, 42480, Note_on_c, 9, 36, 115
7, 42599, Note_on_c, 9, 36, 0
7, 42600, Note_on_c, 9, 36, 127
7, 42719, Note_on_c, 9, 36, 0
7, 42720, Note_on_c, 9, 36, 127
7, 42839, Note_on_c, 9, 36, 0
7, 42840, Note_on_c, 9, 36, 117
7, 42959, Note_on_c, 9, 36, 0
7, 42960, Note_on_c, 9, 36, 115
7, 43079, Note_on_c, 9, 36, 0
7, 43080, Note_on_c, 9, 36, 127
7, 43199, Note_on_c, 9, 36, 0
7, 43200, Note_on_c, 9, 36, 127
7, 43319, Note_on_c, 9, 36, 0
7, 43320, Note_on_c, 9, 36, 117
7, 43439, Note_on_c, 9, 36, 0
7, 43440, Note_on_c, 9, 36, 115
7, 43559, Note_on_c, 9, 36, 0
7, 43560, Note_on_c, 9, 36, 127
7, 43679, Note_on_c, 9, 36, 0
7, 43680, Note_on_c, 9, 36, 127
7, 43799, Note_on_c, 9, 36, 0
7, 43800, Note_on_c, 9, 36, 117
7, 43919, Note_on_c, 9, 36, 0
7, 43920, Note_on_c, 9, 36, 115
7, 44039, Note_on_c, 9, 36, 0
7, 44040, Note_on_c, 9, 36, 127
7, 44159, Note_on_c, 9, 36, 0
7, 44160, Note_on_c, 9, 36, 127
7, 44279, Note_on_c, 9, 36, 0
7, 44280, Note_on_c, 9, 36, 117
7, 44399, Note_on_c, 9, 36, 0
7, 44400, Note_on_c, 9, 36, 115
7, 44519, Note_on_c, 9, 36, 0
7, 44520, Note_on_c, 9, 36, 127
7, 44639, Note_on_c, 9, 36, 0
7, 44640, Note_on_c, 9, 36, 127
7, 44759, Note_on_c, 9, 36, 0
7, 44760, Note_on_c, 9, 36, 117
7, 44879, Note_on_c, 9, 36, 0
7, 44880, Note_on_c, 9, 36, 115
7, 44999, Note_on_c, 9, 36, 0
7, 45000, Note_on_c, 9, 36, 127
7, 45119, Note_on_c, 9, 36, 0
7, 45120, Note_on_c, 9, 36, 127
7, 45239, Note_on_c, 9, 36, 0
7, 45240, Note_on_c, 9, 36, 117
7, 45359, Note_on_c, 9, 36, 0
7, 45360, Note_on_c, 9, 36, 115
7, 45479, Note_on_c, 9, 36, 0
7, 45480, Note_on_c, 9, 36, 127
7, 45599, Note_on_c, 9, 36, 0
7, 45600, Note_on_c, 9, 36, 127
7, 45719, Note_on_c, 9, 36, 0
7, 45720, Note_on_c, 9, 36, 117
7, 45839, Note_on_c, 9, 36, 0
7, 45840, Note_on_c, 9, 36, 115
7, 45959, Note_on_c, 9, 36, 0
7, 45960, Note_on_c, 9, 36, 127
7, 46079, Note_on_c, 9, 36, 0
7, 46080, Note_on_c, 9, 36, 127
7, 46199, Note_on_c, 9, 36, 0
7, 46200, Note_on_c, 9, 36, 117
7, 46319, Note_on_c, 9, 36, 0
7, 46320, Note_on_c, 9, 36, 115
7, 46439, Note_on_c, 9, 36, 0
7, 46440, Note_on_c, 9, 36, 127
7, 46559, Note_on_c, 9, 36, 0
7, 46560, Note_on_c, 9, 36, 127
7, 46679, Note_on_c, 9, 36, 0
7, 46680, Note_on_c, 9, 36, 117
7, 46799, Note_on_c, 9, 36, 0
7, 46800, Note_on_c, 9, 36, 115
7, 46919, Note_on_c, 9, 36, 0
7, 46920, Note_on_c, 9, 36, 127
7, 47039, Note_on_c, 9, 36, 0
7, 47040, Note_on_c, 9, 36, 127
7, 47159, Note_on_c, 9, 36, 0
7, 47160, Note_on_c, 9, 36, 117
7, 47279, Note_on_c, 9, 36, 0
7, 47280, Note_on_c, 9, 36, 115
7, 47399, Note_on_c, 9, 36, 0
7, 47400, Note_on_c, 9, 36, 127
7, 47519, Note_on_c, 9, 36, 0
7, 47520, Note_on_c, 9, 36, 127
7, 47639, Note_on_c, 9, 36, 0
7, 47640, Note_on_c, 9, 36, 117
7, 47759, Note_on_c, 9, 36, 0
7, 47760, Note_on_c, 9, 36, 115
7, 47879, Note_on_c, 9, 36, 0
7, 47880, Note_on_c, 9, 36, 127
7, 47999, Note_on_c, 9, 36, 0
7, 48000, Note_on_c, 9, 36, 127
7, 48119, Note_on_c, 9, 36, 0
7, 48120, Note_on_c, 9, 36, 117
7, 48239, Note_on_c, 9, 36, 0
7, 48240, Note_on_c, 9, 36, 115
7, 48359, Note_on_c, 9, 36, 0
7, 48360, Note_on_c, 9, 36, 127
7, 48479, Note_on_c, 9, 36, 0
7, 48480, Note_on_c, 9, 36, 127
7, 48599, Note_on_c, 9, 36, 0
7, 48600, Note_on_c, 9, 36, 117
7, 48719, Note_on_c, 9, 36, 0
7, 48720, Note_on_c, 9, 36, 115
7, 48839, Note_on_c, 9, 36, 0
7, 48840, Note_on_c, 9, 36, 127
7, 48959, Note_on_c, 9, 36, 0
7, 48960, Note_on_c, 9, 36, 127
7, 49079, Note_on_c, 9, 36, 0
7, 49080, Note_on_c, 9, 36, 117
7, 49199, Note_on_c, 9, 36, 0
7, 49200, Note_on_c, 9, 36, 115
7, 49319, Note_on_c, 9, 36, 0
7, 49320, Note_on_c, 9, 36, 127
7, 49439, Note_on_c, 9, 36, 0
7, 49440, Note_on_c, 9, 36, 127
7, 49559, Note_on_c, 9, 36, 0
7, 49560, Note_on_c, 9, 36, 117
7, 49679, Note_on_c, 9, 36, 0
7, 49680, Note_on_c, 9, 36, 115
7, 49799, Note_on_c, 9, 36, 0
7, 49800, Note_on_c, 9, 36, 127
7, 49919, Note_on_c, 9, 36, 0
7, 49920, Note_on_c, 9, 36, 127
7, 50039, Note_on_c, 9, 36, 0
7, 50040, Note_on_c, 9, 36, 117
7, 50159, Note_on_c, 9, 36, 0
7, 50160, Note_on_c, 9, 36, 115
7, 50279, Note_on_c, 9, 36, 0
7, 50280, Note_on_c, 9, 36, 127
7, 50399, Note_on_c, 9, 36, 0
7, 50400, Note_on_c, 9, 36, 127
7, 50519, Note_on_c, 9, 36, 0
7, 50520, Note_on_c, 9, 36, 117
7, 50639, Note_on_c, 9, 36, 0
7, 50640, Note_on_c, 9, 36, 115
7, 50759, Note_on_c, 9, 36, 0
7, 50760, Note_on_c, 9, 36, 127
7, 50879, Note_on_c, 9, 36, 0
7, 50880, Note_on_c, 9, 36, 127
7, 50999, Note_on_c, 9, 36, 0
7, 51000, Note_on_c, 9, 36, 117
7, 51119, Note_on_c, 9, 36, 0
7, 51120, Note_on_c, 9, 36, 115
7, 51239, Note_on_c, 9, 36, 0
7, 51240, Note_on_c, 9, 36, 127
7, 51359, Note_on_c, 9, 36, 0
7, 51360, Note_on_c, 9, 36, 127
7, 51479, Note_on_c, 9, 36, 0
7, 51480, Note_on_c, 9, 36, 117
7, 51599, Note_on_c, 9, 36, 0
7, 51600, Note_on_c, 9, 36, 115
7, 51719, Note_on_c, 9, 36, 0
7, 51720, Note_on_c, 9, 36, 127
7, 51839, Note_on_c, 9, 36, 0
7, 51840, Note_on_c, 9, 36, 127
7, 51959, Note_on_c, 9, 36, 0
7, 51960, Note_on_c, 9, 36, 117
7, 52079, Note_on_c, 9, 36, 0
7, 52080, Note_on_c, 9, 36, 115
7, 52199, Note_on_c, 9, 36, 0
7, 52200, Note_on_c, 9, 36, 127
7, 52319, Note_on_c, 9, 36, 0
7, 52320, Note_on_c, 9, 36, 127
7, 52439, Note_on_c, 9, 36, 0
7, 52440, Note_on_c, 9, 36, 117
7, 52559, Note_on_c, 9, 36, 0
7, 52560, Note_on_c, 9, 36, 115
7, 52679, Note_on_c, 9, 36, 0
7, 52680, Note_on_c, 9, 36, 127
7, 52799, Note_on_c, 9, 36, 0
7, 52800, Note_on_c, 9, 36, 127
7, 52919, Note_on_c, 9, 36, 0
7, 52920, Note_on_c, 9, 36, 117
7, 53039, Note_on_c, 9, 36, 0
7, 53040, Note_on_c, 9, 36, 115
7, 53159, Note_on_c, 9, 36, 0
7, 53160, Note_on_c, 9, 36, 127
7, 53279, Note_on_c, 9, 36, 0
7, 53280, Note_on_c, 9, 36, 127
7, 53399, Note_on_c, 9, 36, 0
7, 53400, Note_on_c, 9, 36, 117
7, 53519, Note_on_c, 9, 36, 0
7, 53520, Note_on_c, 9, 36, 115
7, 53639, Note_on_c, 9, 36, 0
7, 53640, Note_on_c, 9, 36, 127
7, 53759, Note_on_c, 9, 36, 0
7, 53760, Note_on_c, 9, 36, 127
7, 53879, Note_on_c, 9, 36, 0
7, 53880, Note_on_c, 9, 36, 117
7, 53999, Note_on_c, 9, 36, 0
7, 54000, Note_on_c, 9, 36, 115
7, 54119, Note_on_c, 9, 36, 0
7, 54120, Note_on_c, 9, 36, 127
7, 54239, Note_on_c, 9, 36, 0
7, 54240, Note_on_c, 9, 36, 127
7, 54359, Note_on_c, 9, 36, 0
7, 54360, Note_on_c, 9, 36, 117
7, 54479, Note_on_c, 9, 36, 0
7, 54480, Note_on_c, 9, 36, 115
7, 54599, Note_on_c, 9, 36, 0
7, 54600, Note_on_c, 9, 36, 127
7, 54719, Note_on_c, 9, 36, 0
7, 54720, Note_on_c, 9, 36, 127
7, 54839, Note_on_c, 9, 36, 0
7, 54840, Note_on_c, 9, 36, 117
7, 54959, Note_on_c, 9, 36, 0
7, 54960, Note_on_c, 9, 36, 115
7, 55079, Note_on_c, 9, 36, 0
7, 55080, Note_on_c, 9, 36, 127
7, 55199, Note_on_c, 9, 36, 0
7, 55200, Note_on_c, 9, 36, 127
7, 55319, Note_on_c, 9, 36, 0
7, 55320, Note_on_c, 9, 36, 117
7, 55439, Note_on_c, 9, 36, 0
7, 55440, Note_on_c, 9, 36, 115
7, 55559, Note_on_c, 9, 36, 0
7, 55560, Note_on_c, 9, 36, 127
7, 55679, Note_on_c, 9, 36, 0
7, 55680, Note_on_c, 9, 36, 127
7, 55799, Note_on_c, 9, 36, 0
7, 55800, Note_on_c, 9, 36, 117
7, 55919, Note_on_c, 9, 36, 0
7, 55920, Note_on_c, 9, 36, 115
7, 56039, Note_on_c, 9, 36, 0
7, 56040, Note_on_c, 9, 36, 127
7, 56159, Note_on_c, 9, 36, 0
7, 56160, Note_on_c, 9, 36, 127
7, 56279, Note_on_c, 9, 36, 0
7, 56280, Note_on_c, 9, 36, 117
7, 56399, Note_on_c, 9, 36, 0
7, 56400, Note_on_c, 9, 36, 115
7, 56519, Note_on_c, 9, 36, 0
7, 56520, Note_on_c, 9, 36, 127
7, 56639, Note_on_c, 9, 36, 0
7, 56640, Note_on_c, 9, 36, 127
7, 56759, Note_on_c, 9, 36, 0
7, 56760, Note_on_c, 9, 36, 117
7, 56879, Note_on_c, 9, 36, 0
7, 56880, Note_on_c, 9, 36, 115
7, 56999, Note_on_c, 9, 36, 0
7, 57000, Note_on_c, 9, 36, 127
7, 57119, Note_on_c, 9, 36, 0
7, 57120, Note_on_c, 9, 36, 127
7, 57239, Note_on_c, 9, 36, 0
7, 57240, Note_on_c, 9, 36, 117
7, 57359, Note_on_c, 9, 36, 0
7, 57360, Note_on_c, 9, 36, 115
7, 57479, Note_on_c, 9, 36, 0
7, 57480, Note_on_c, 9, 36, 127
7, 57599, Note_on_c, 9, 36, 0
7, 57600, Note_on_c, 9, 36, 127
7, 57719, Note_on_c, 9, 36, 0
7, 57720, Note_on_c, 9, 36, 117
7, 57839, Note_on_c, 9, 36, 0
7, 57840, Note_on_c, 9, 36, 115
7, 57959, Note_on_c, 9, 36, 0
7, 57960, Note_on_c, 9, 36, 127
7, 58079, Note_on_c, 9, 36, 0
7, 58080, Note_on_c, 9, 36, 127
7, 58199, Note_on_c, 9, 36, 0
7, 58200, Note_on_c, 9, 36, 117
7, 58319, Note_on_c, 9, 36, 0
7, 58320, Note_on_c, 9, 36, 115
7, 58439, Note_on_c, 9, 36, 0
7, 58440, Note_on_c, 9, 36, 127
7, 58559, Note_on_c, 9, 36, 0
7, 58560, Note_on_c, 9, 36, 127
7, 58679, Note_on_c, 9, 36, 0
7, 58680, Note_on_c, 9, 36, 117
7, 58799, Note_on_c, 9, 36, 0
7, 58800, Note_on_c, 9, 36, 115
7, 58919, Note_on_c, 9, 36, 0
7, 58920, Note_on_c, 9, 36, 127
7, 59039, Note_on_c, 9, 36, 0
7, 59040, Note_on_c, 9, 36, 127
7, 59159, Note_on_c, 9, 36, 0
7, 59160, Note_on_c, 9, 36, 117
7, 59279, Note_on_c, 9, 36, 0
7, 59280, Note_on_c, 9, 36, 115
7, 59399, Note_on_c, 9, 36, 0
7, 59400, Note_on_c, 9, 36, 127
7, 59519, Note_on_c, 9, 36, 0
7, 59520, Note_on_c, 9, 36, 127
7, 59639, Note_on_c, 9, 36, 0
7, 59640, Note_on_c, 9, 36, 117
7, 59759, Note_on_c, 9, 36, 0
7, 59760, Note_on_c, 9, 36, 115
7, 59879, Note_on_c, 9, 36, 0
7, 59880, Note_on_c, 9, 36, 127
7, 59999, Note_on_c, 9, 36, 0
7, 60000, Note_on_c, 9, 36, 127
7, 60119, Note_on_c, 9, 36, 0
7, 60120, Note_on_c, 9, 36, 117
7, 60239, Note_on_c, 9, 36, 0
7, 60240, Note_on_c, 9, 36, 115
7, 60359, Note_on_c, 9, 36, 0
7, 60360, Note_on_c, 9, 36, 127
7, 60479, Note_on_c, 9, 36, 0
7, 60480, Note_on_c, 9, 36, 127
7, 60599, Note_on_c, 9, 36, 0
7, 60600, Note_on_c, 9, 36, 117
7, 60719, Note_on_c, 9, 36, 0
7, 60720, Note_on_c, 9, 36, 115
7, 60839, Note_on_c, 9, 36, 0
7, 60840, Note_on_c, 9, 36, 127
7, 60959, Note_on_c, 9, 36, 0
7, 60960, Note_on_c, 9, 36, 127
7, 61079, Note_on_c, 9, 36, 0
7, 61080, Note_on_c, 9, 36, 117
7, 61199, Note_on_c, 9, 36, 0
7, 61200, Note_on_c, 9, 36, 115
7, 61319, Note_on_c, 9, 36, 0
7, 61320, Note_on_c, 9, 36, 127
7, 61439, Note_on_c, 9, 36, 0
7, 61440, Note_on_c, 9, 36, 127
7, 61559, Note_on_c, 9, 36, 0
7, 61560, Note_on_c, 9, 36, 117
7, 61679, Note_on_c, 9, 36, 0
7, 61680, Note_on_c, 9, 36, 115
7, 61799, Note_on_c, 9, 36, 0
7, 61800, Note_on_c, 9, 36, 127
7, 61919, Note_on_c, 9, 36, 0
7, 61920, Note_on_c, 9, 36, 127
7, 62039, Note_on_c, 9, 36, 0
7, 62040, Note_on_c, 9, 36, 117
7, 62159, Note_on_c, 9, 36, 0
7, 62160, Note_on_c, 9, 36, 115
7, 62279, Note_on_c, 9, 36, 0
7, 62280, Note_on_c, 9, 36, 127
7, 62399, Note_on_c, 9, 36, 0
7, 62400, Note_on_c, 9, 36, 127
7, 62519, Note_on_c, 9, 36, 0
7, 62520, Note_on_c, 9, 36, 117
7, 62639, Note_on_c, 9, 36, 0
7, 62640, Note_on_c, 9, 36, 115
7, 62759, Note_on_c, 9, 36, 0
7, 62760, Note_on_c, 9, 36, 127
7, 62879, Note_on_c, 9, 36, 0
7, 62880, Note_on_c, 9, 36, 127
7, 62999, Note_on_c, 9, 36, 0
7, 63000, Note_on_c, 9, 36, 117
7, 63119, Note_on_c, 9, 36, 0
7, 63120, Note_on_c, 9, 36, 115
7, 63239, Note_on_c, 9, 36, 0
7, 63240, Note_on_c, 9, 36, 127
7, 63359, Note_on_c, 9, 36, 0
7, 63360, Note_on_c, 9, 36, 127
7, 63479, Note_on_c, 9, 36, 0
7, 63480, Note_on_c, 9, 36, 117
7, 63599, Note_on_c, 9, 36, 0
7, 63600, Note_on_c, 9, 36, 115
7, 63719, Note_on_c, 9, 36, 0
7, 63720, Note_on_c, 9, 36, 127
7, 63839, Note_on_c, 9, 36, 0
7, 63840, Note_on_c, 9, 36, 127
7, 63959, Note_on_c, 9, 36, 0
7, 63960, Note_on_c, 9, 36, 117
7, 64079, Note_on_c, 9, 36, 0
7, 64080, Note_on_c, 9, 36, 115
7, 64199, Note_on_c, 9, 36, 0
7, 64200, Note_on_c, 9, 36, 127
7, 64319, Note_on_c, 9, 36, 0
7, 64320, Note_on_c, 9, 36, 127
7, 64439, Note_on_c, 9, 36, 0
7, 64440, Note_on_c, 9, 36, 117
7, 64559, Note_on_c, 9, 36, 0
7, 64560, Note_on_c, 9, 36, 115
7, 64679, Note_on_c, 9, 36, 0
7, 64680, Note_on_c, 9, 36, 127
7, 64799, Note_on_c, 9, 36, 0
7, 64800, Note_on_c, 9, 36, 127
7, 64919, Note_on_c, 9, 36, 0
7, 64920, Note_on_c, 9, 36, 117
7, 65039, Note_on_c, 9, 36, 0
7, 65040, Note_on_c, 9, 36, 115
7, 65159, Note_on_c, 9, 36, 0
7, 65160, Note_on_c, 9, 36, 127
7, 65279, Note_on_c, 9, 36, 0
7, 65280, Note_on_c, 9, 36, 127
7, 65399, Note_on_c, 9, 36, 0
7, 65400, Note_on_c, 9, 36, 117
7, 65519, Note_on_c, 9, 36, 0
7, 65520, Note_on_c, 9, 36, 115
7, 65639, Note_on_c, 9, 36, 0
7, 65640, Note_on_c, 9, 36, 127
7, 65759, Note_on_c, 9, 36, 0
7, 65760, Note_on_c, 9, 36, 127
7, 65879, Note_on_c, 9, 36, 0
7, 65880, Note_on_c, 9, 36, 117
7, 65999, Note_on_c, 9, 36, 0
7, 66000, Note_on_c, 9, 36, 115
7, 66119, Note_on_c, 9, 36, 0
7, 66120, Note_on_c, 9, 36, 127
7, 66239, Note_on_c, 9, 36, 0
7, 66240, Note_on_c, 9, 36, 127
7, 66359, Note_on_c, 9, 36, 0
7, 66360, Note_on_c, 9, 36, 117
7, 66479, Note_on_c, 9, 36, 0
7, 66480, Note_on_c, 9, 36, 115
7, 66599, Note_on_c, 9, 36, 0
7, 66600, Note_on_c, 9, 36, 127
7, 66719, Note_on_c, 9, 36, 0
7, 66720, Note_on_c, 9, 36, 127
7, 66839, Note_on_c, 9, 36, 0
7, 66840, Note_on_c, 9, 36, 117
7, 66959, Note_on_c, 9, 36, 0
7, 66960, Note_on_c, 9, 36, 115
7, 67079, Note_on_c, 9, 36, 0
7, 67080, Note_on_c, 9, 36, 127
7, 67199, Note_on_c, 9, 36, 0
7, 67200, Note_on_c, 9, 36, 127
7, 67319, Note_on_c, 9, 36, 0
7, 67320, Note_on_c, 9, 36, 117
7, 67439, Note_on_c, 9, 36, 0
7, 67440, Note_on_c, 9, 36, 115
7, 67559, Note_on_c, 9, 36, 0
7, 67560, Note_on_c, 9, 36, 127
7, 67679, Note_on_c, 9, 36, 0
7, 67680, Note_on_c, 9, 36, 127
7, 67799, Note_on_c, 9, 36, 0
7, 67800, Note_on_c, 9, 36, 117
7, 67919, Note_on_c, 9, 36, 0
7, 67920, Note_on_c, 9, 36, 115
7, 68039, Note_on_c, 9, 36, 0
7, 68040, Note_on_c, 9, 36, 127
7, 68159, Note_on_c, 9, 36, 0
7, 68160, Note_on_c, 9, 36, 127
7, 68279, Note_on_c, 9, 36, 0
7, 68280, Note_on_c, 9, 36, 117
7, 68399, Note_on_c, 9, 36, 0
7, 68400, Note_on_c, 9, 36, 115
7, 68519, Note_on_c, 9, 36, 0
7, 68520, Note_on_c, 9, 36, 127
7, 68639, Note_on_c, 9, 36, 0
7, 68640, Note_on_c, 9, 36, 127
7, 68759, Note_on_c, 9, 36, 0
7, 68760, Note_on_c, 9, 36, 117
7, 68879, Note_on_c, 9, 36, 0
7, 68880, Note_on_c, 9, 36, 115
7, 68999, Note_on_c, 9, 36, 0
7, 69000, Note_on_c, 9, 36, 127
7, 69119, Note_on_c, 9, 36, 0
7, 69120, Note_on_c, 9, 36, 127
7, 69239, Note_on_c, 9, 36, 0
7, 69240, Note_on_c, 9, 36, 117
7, 69359, Note_on_c, 9, 36, 0
7, 69360, Note_on_c, 9, 36, 115
7, 69479, Note_on_c, 9, 36, 0
7, 69480, Note_on_c, 9, 36, 127
7, 69599, Note_on_c, 9, 36, 0
7, 69600, Note_on_c, 9, 36, 127
7, 69719, Note_on_c, 9, 36, 0
7, 69720, Note_on_c, 9, 36, 117
7, 69839, Note_on_c, 9, 36, 0
7, 69840, Note_on_c, 9, 36, 115
7, 69959, Note_on_c, 9, 36, 0
7, 69960, Note_on_c, 9, 36, 127
7, 70079, Note_on_c, 9, 36, 0
7, 70080, Note_on_c, 9, 36, 127
7, 70199, Note_on_c, 9, 36, 0
7, 70200, Note_on_c, 9, 36, 117
7, 70319, Note_on_c, 9, 36, 0
7, 70320, Note_on_c, 9, 36, 115
7, 70439, Note_on_c, 9, 36, 0
7, 70440, Note_on_c, 9, 36, 127
7, 70559, Note_on_c, 9, 36, 0
7, 70560, Note_on_c, 9, 36, 127
7, 70679, Note_on_c, 9, 36, 0
7, 70680, Note_on_c, 9, 36, 117
7, 70799, Note_on_c, 9, 36, 0
7, 70800, Note_on_c, 9, 36, 115
7, 70919, Note_on_c, 9, 36, 0
7, 70920, Note_on_c, 9, 36, 127
7, 71039, Note_on_c, 9, 36, 0
7, 71040, Note_on_c, 9, 36, 127
7, 71159, Note_on_c, 9, 36, 0
7, 71160, Note_on_c, 9, 36, 117
7, 71279, Note_on_c, 9, 36, 0
7, 71280, Note_on_c, 9, 36, 115
7, 71399, Note_on_c, 9, 36, 0
7, 71400, Note_on_c, 9, 36, 127
7, 71519, Note_on_c, 9, 36, 0
7, 71519, End_track
8, 0, Start_track
8, 0, Title_t, "Snare"
8, 1080, Note_on_c, 9, 38, 119
8, 1199, Note_on_c, 9, 38, 0
8, 1320, Note_on_c, 9, 38, 112
8, 1439, Note_on_c, 9, 38, 0
8, 1560, Note_on_c, 9, 38, 119
8, 1679, Note_on_c, 9, 38, 0
8, 1800, Note_on_c, 9, 38, 112
8, 1919, Note_on_c, 9, 38, 0
8, 2040, Note_on_c, 9, 38, 119
8, 2159, Note_on_c, 9, 38, 0
8, 2280, Note_on_c, 9, 38, 112
8, 2399, Note_on_c, 9, 38, 0
8, 2520, Note_on_c, 9, 38, 119
8, 2639, Note_on_c, 9, 38, 0
8, 2760, Note_on_c, 9, 38, 112
8, 2879, Note_on_c, 9, 38, 0
8, 3000, Note_on_c, 9, 38, 119
8, 3119, Note_on_c, 9, 38, 0
8, 3240, Note_on_c, 9, 38, 112
8, 3359, Note_on_c, 9, 38, 0
8, 3480, Note_on_c, 9, 38, 119
8, 3599, Note_on_c, 9, 38, 0
8, 3720, Note_on_c, 9, 38, 112
8, 3839, Note_on_c, 9, 38, 0
8, 3960, Note_on_c, 9, 38, 119
8, 4079, Note_on_c, 9, 38, 0
8, 4200, Note_on_c, 9, 38, 112
8, 4319, Note_on_c, 9, 38, 0
8, 4440, Note_on_c, 9, 38, 119
8, 4559, Note_on_c, 9, 38, 0
8, 4680, Note_on_c, 9, 38, 112
8, 4799, Note_on_c, 9, 38, 0
8, 4920, Note_on_c, 9, 38, 119
8, 5039, Note_on_c, 9, 38, 0
8, 5160, Note_on_c, 9, 38, 112
8, 5279, Note_on_c, 9, 38, 0
8, 5400, Note_on_c, 9, 38, 119
8, 5519, Note_on_c, 9, 38, 0
8, 5640, Note_on_c, 9, 38, 112
8, 5759, Note_on_c, 9, 38, 0
8, 5880, Note_on_c, 9, 38, 119
8, 5999, Note_on_c, 9, 38, 0
8, 6120, Note_on_c, 9, 38, 112
8, 6239, Note_on_c, 9, 38, 0
8, 6360, Note_on_c, 9, 38, 119
8, 6479, Note_on_c, 9, 38, 0
8, 6600, Note_on_c, 9, 38, 112
8, 6719, Note_on_c, 9, 38, 0
8, 6840, Note_on_c, 9, 38, 119
8, 6959, Note_on_c, 9, 38, 0
8, 7080, Note_on_c, 9, 38, 112
8, 7199, Note_on_c, 9, 38, 0
8, 7320, Note_on_c, 9, 38, 119
8, 7439, Note_on_c, 9, 38, 0
8, 7560, Note_on_c, 9, 38, 112
8, 7679, Note_on_c, 9, 38, 0
8, 7800, Note_on_c, 9, 38, 119
8, 7919, Note_on_c, 9, 38, 0
8, 8040, Note_on_c, 9, 38, 112
8, 8159, Note_on_c, 9, 38, 0
8, 8280, Note_on_c, 9, 38, 119
8, 8399, Note_on_c, 9, 38, 0
8, 8520, Note_on_c, 9, 38, 112
8, 8639, Note_on_c, 9, 38, 0
8, 8760, Note_on_c, 9, 38, 119
8, 8879, Note_on_c, 9, 38, 0
8, 9000, Note_on_c, 9, 38, 112
8, 9119, Note_on_c, 9, 38, 0
8, 9240, Note_on_c, 9, 38, 119
8, 9359, Note_on_c, 9, 38, 0
8, 9480, Note_on_c, 9, 38, 112
8, 9599, Note_on_c, 9, 38, 0
8, 9720, Note_on_c, 9, 38, 119
8, 9839, Note_on_c, 9, 38, 0
8, 9960, Note_on_c, 9, 38, 112
8, 10079, Note_on_c, 9, 38, 0
8, 10200, Note_on_c, 9, 38, 119
8, 10319, Note_on_c, 9, 38, 0
8, 10440, Note_on_c, 9, 38, 112
8, 10559, Note_on_c, 9, 38, 0
8, 10680, Note_on_c, 9, 38, 119
8, 10799, Note_on_c, 9, 38, 0
8, 10920, Note_on_c, 9, 38, 112
8, 11039, Note_on_c, 9, 38, 0
8, 11160, Note_on_c, 9, 38, 119
8, 11279, Note_on_c, 9, 38, 0
8, 11400, Note_on_c, 9, 38, 112
8, 11519, Note_on_c, 9, 38, 0
8, 11640, Note_on_c, 9, 38, 119
8, 11759, Note_on_c, 9, 38, 0
8, 11880, Note_on_c, 9, 38, 112
8, 11999, Note_on_c, 9, 38, 0
8, 12120, Note_on_c, 9, 38, 119
8, 12239, Note_on_c, 9, 38, 0
8, 12360, Note_on_c, 9, 38, 112
8, 12479, Note_on_c, 9, 38, 0
8, 12600, Note_on_c, 9, 38, 119
8, 12719, Note_on_c, 9, 38, 0
8, 12840, Note_on_c, 9, 38, 112
8, 12959, Note_on_c, 9, 38, 0
8, 13080, Note_on_c, 9, 38, 115
8, 13139, Note_on_c, 9, 38, 0
8, 13280, Note_on_c, 9, 38, 125
8, 13319, Note_on_c, 9, 38, 0
8, 13320, Note_on_c, 9, 38, 125
8, 13399, Note_on_c, 9, 38, 0
8, 13400, Note_on_c, 9, 38, 119
8, 13439, Note_on_c, 9, 38, 0
8, 13560, Note_on_c, 9, 38, 115
8, 13619, Note_on_c, 9, 38, 0
8, 13760, Note_on_c, 9, 38, 125
8, 13799, Note_on_c, 9, 38, 0
8, 13800, Note_on_c, 9, 38, 125
8, 13879, Note_on_c, 9, 38, 0
8, 13880, Note_on_c, 9, 38, 119
8, 13919, Note_on_c, 9, 38, 0
8, 14040, Note_on_c, 9, 38, 115
8, 14099, Note_on_c, 9, 38, 0
8, 14240, Note_on_c, 9, 38, 125
8, 14279, Note_on_c, 9, 38, 0
8, 14280, Note_on_c, 9, 38, 125
8, 14359, Note_on_c, 9, 38, 0
8, 14360, Note_on_c, 9, 38, 119
8, 14399, Note_on_c, 9, 38, 0
8, 14520, Note_on_c, 9, 38, 119
8, 14639, Note_on_c, 9, 38, 0
8, 14760, Note_on_c, 9, 38, 112
8, 14879, Note_on_c, 9, 38, 0
8, 15000, Note_on_c, 9, 38, 119
8, 15119, Note_on_c, 9, 38, 0
8, 15240, Note_on_c, 9, 38, 112
8, 15359, Note_on_c, 9, 38, 0
8, 15480, Note_on_c, 9, 38, 119
8, 15599, Note_on_c, 9, 38, 0
8, 15720, Note_on_c, 9, 38, 112
8, 15839, Note_on_c, 9, 38, 0
8, 15960, Note_on_c, 9, 38, 119
8, 16079, Note_on_c, 9, 38, 0
8, 16200, Note_on_c, 9, 38, 112
8, 16319, Note_on_c, 9, 38, 0
8, 16440, Note_on_c, 9, 38, 119
8, 16559, Note_on_c, 9, 38, 0
8, 16680, Note_on_c, 9, 38, 112
8, 16799, Note_on_c, 9, 38, 0
8, 16920, Note_on_c, 9, 38, 119
8, 17039, Note_on_c, 9, 38, 0
8, 17160, Note_on_c, 9, 38, 112
8, 17279, Note_on_c, 9, 38, 0
8, 17400, Note_on_c, 9, 38, 119
8, 17519, Note_on_c, 9, 38, 0
8, 17640, Note_on_c, 9, 38, 112
8, 17759, Note_on_c, 9, 38, 0
8, 17880, Note_on_c, 9, 38, 117
8, 17939, Note_on_c, 9, 38, 0
8, 17960, Note_on_c, 9, 38, 127
8, 18000, Note_on_c, 9, 38, 119
8, 18019, Note_on_c, 9, 38, 0
8, 18059, Note_on_c, 9, 38, 0
8, 18080, Note_on_c, 9, 38, 117
8, 18120, Note_on_c, 9, 38, 119
8, 18139, Note_on_c, 9, 38, 0
8, 18179, Note_on_c, 9, 38, 0
8, 18200, Note_on_c, 9, 38, 125
8, 18259, Note_on_c, 9, 38, 0
8, 18360, Note_on_c, 9, 38, 119
8, 18479, Note_on_c, 9, 38, 0
8, 18600, Note_on_c, 9, 38, 112
8, 18719, Note_on_c, 9, 38, 0
8, 18840, Note_on_c, 9, 38, 117
8, 18899, Note_on_c, 9, 38, 0
8, 18920, Note_on_c, 9, 38, 127
8, 18960, Note_on_c, 9, 38, 119
8, 18979, Note_on_c, 9, 38, 0
8, 19019, Note_on_c, 9, 38, 0
8, 19040, Note_on_c, 9, 38, 117
8, 19080, Note_on_c, 9, 38, 119
8, 19099, Note_on_c, 9, 38, 0
8, 19139, Note_on_c, 9, 38, 0
8, 19160, Note_on_c, 9, 38, 125
8, 19219, Note_on_c, 9, 38, 0
8, 19320, Note_on_c, 9, 38, 119
8, 19439, Note_on_c, 9, 38, 0
8, 19560, Note_on_c, 9, 38, 112
8, 19679, Note_on_c, 9, 38, 0
8, 19800, Note_on_c, 9, 38, 117
8, 19859, Note_on_c, 9, 38, 0
8, 19880, Note_on_c, 9, 38, 127
8, 19920, Note_on_c, 9, 38, 119
8, 19939, Note_on_c, 9, 38, 0
8, 19979, Note_on_c, 9, 38, 0
8, 20000, Note_on_c, 9, 38, 117
8, 20040, Note_on_c, 9, 38, 119
8, 20059, Note_on_c, 9, 38, 0
8, 20099, Note_on_c, 9, 38, 0
8, 20120, Note_on_c, 9, 38, 125
8, 20179, Note_on_c, 9, 38, 0
8, 20280, Note_on_c, 9, 38, 119
8, 20399, Note_on_c, 9, 38, 0
8, 20520, Note_on_c, 9, 38, 112
8, 20639, Note_on_c, 9, 38, 0
8, 20760, Note_on_c, 9, 38, 117
8, 20819, Note_on_c, 9, 38, 0
8, 20840, Note_on_c, 9, 38, 127
8, 20880, Note_on_c, 9, 38, 119
8, 20899, Note_on_c, 9, 38, 0
8, 20939, Note_on_c, 9, 38, 0
8, 20960, Note_on_c, 9, 38, 117
8, 21000, Note_on_c, 9, 38, 119
8, 21019, Note_on_c, 9, 38, 0
8, 21059, Note_on_c, 9, 38, 0
8, 21080, Note_on_c, 9, 38, 125
8, 21139, Note_on_c, 9, 38, 0
8, 21240, Note_on_c, 9, 38, 119
8, 21359, Note_on_c, 9, 38, 0
8, 21480, Note_on_c, 9, 38, 112
8, 21599, Note_on_c, 9, 38, 0
8, 21720, Note_on_c, 9, 38, 117
8, 21779, Note_on_c, 9, 38, 0
8, 21800, Note_on_c, 9, 38, 127
8, 21840, Note_on_c, 9, 38, 119
8, 21859, Note_on_c, 9, 38, 0
8, 21899, Note_on_c, 9, 38, 0
8, 21920, Note_on_c, 9, 38, 117
8, 21960, Note_on_c, 9, 38, 119
8, 21979, Note_on_c, 9, 38, 0
8, 22019, Note_on_c, 9, 38, 0
8, 22040, Note_on_c, 9, 38, 125
8, 22099, Note_on_c, 9, 38, 0
8, 22200, Note_on_c, 9, 38, 119
8, 22319, Note_on_c, 9, 38, 0
8, 22440, Note_on_c, 9, 38, 112
8, 22559, Note_on_c, 9, 38, 0
8, 22680, Note_on_c, 9, 38, 119
8, 22799, Note_on_c, 9, 38, 0
8, 22920, Note_on_c, 9, 38, 112
8, 23039, Note_on_c, 9, 38, 0
8, 23160, Note_on_c, 9, 38, 119
8, 23279, Note_on_c, 9, 38, 0
8, 23400, Note_on_c, 9, 38, 112
8, 23519, Note_on_c, 9, 38, 0
8, 23640, Note_on_c, 9, 38, 119
8, 23759, Note_on_c, 9, 38, 0
8, 23880, Note_on_c, 9, 38, 112
8, 23999, Note_on_c, 9, 38, 0
8, 24120, Note_on_c, 9, 38, 125
8, 24179, Note_on_c, 9, 38, 0
8, 24360, Note_on_c, 9, 38, 125
8, 24419, Note_on_c, 9, 38, 0
8, 24600, Note_on_c, 9, 38, 119
8, 24679, Note_on_c, 9, 38, 0
8, 24680, Note_on_c, 9, 38, 127
8, 24719, Note_on_c, 9, 38, 0
8, 24720, Note_on_c, 9, 38, 125
8, 24799, Note_on_c, 9, 38, 0
8, 24800, Note_on_c, 9, 38, 127
8, 24839, Note_on_c, 9, 38, 0
8, 24840, Note_on_c, 9, 38, 127
8, 24919, Note_on_c, 9, 38, 0
8, 24920, Note_on_c, 9, 38, 125
8, 24959, Note_on_c, 9, 38, 0
8, 25080, Note_on_c, 9, 38, 125
8, 25139, Note_on_c, 9, 38, 0
8, 25320, Note_on_c, 9, 38, 125
8, 25379, Note_on_c, 9, 38, 0
8, 25560, Note_on_c, 9, 38, 119
8, 25639, Note_on_c, 9, 38, 0
8, 25640, Note_on_c, 9, 38, 127
8, 25679, Note_on_c, 9, 38, 0
8, 25680, Note_on_c, 9, 38, 125
8, 25759, Note_on_c, 9, 38, 0
8, 25760, Note_on_c, 9, 38, 127
8, 25799, Note_on_c, 9, 38, 0
8, 25800, Note_on_c, 9, 38, 127
8, 25879, Note_on_c, 9, 38, 0
8, 25880, Note_on_c, 9, 38, 125
8, 25919, Note_on_c, 9, 38, 0
8, 26040, Note_on_c, 9, 38, 125
8, 26099, Note_on_c, 9, 38, 0
8, 26280, Note_on_c, 9, 38, 125
8, 26339, Note_on_c, 9, 38, 0
8, 26520, Note_on_c, 9, 38, 119
8, 26599, Note_on_c, 9, 38, 0
8, 26600, Note_on_c, 9, 38, 127
8, 26639, Note_on_c, 9, 38, 0
8, 26640, Note_on_c, 9, 38, 125
8, 26719, Note_on_c, 9, 38, 0
8, 26720, Note_on_c, 9, 38, 127
8, 26759, Note_on_c, 9, 38, 0
8, 26760, Note_on_c, 9, 38, 127
8, 26839, Note_on_c, 9, 38, 0
8, 26840, Note_on_c, 9, 38, 125
8, 26879, Note_on_c, 9, 38, 0
8, 27000, Note_on_c, 9, 38, 125
8, 27059, Note_on_c, 9, 38, 0
8, 27240, Note_on_c, 9, 38, 125
8, 27299, Note_on_c, 9, 38, 0
8, 27480, Note_on_c, 9, 38, 119
8, 27559, Note_on_c, 9, 38, 0
8, 27560, Note_on_c, 9, 38, 127
8, 27599, Note_on_c, 9, 38, 0
8, 27600, Note_on_c, 9, 38, 125
8, 27679, Note_on_c, 9, 38, 0
8, 27680, Note_on_c, 9, 38, 127
8, 27719, Note_on_c, 9, 38, 0
8, 27720, Note_on_c, 9, 38, 127
8, 27799, Note_on_c, 9, 38, 0
8, 27800, Note_on_c, 9, 38, 125
8, 27839, Note_on_c, 9, 38, 0
8, 27960, Note_on_c, 9, 38, 119
8, 28079, Note_on_c, 9, 38, 0
8, 28200, Note_on_c, 9, 38, 112
8, 28319, Note_on_c, 9, 38, 0
8, 28440, Note_on_c, 9, 38, 119
8, 28559, Note_on_c, 9, 38, 0
8, 28680, Note_on_c, 9, 38, 112
8, 28799, Note_on_c, 9, 38, 0
8, 28920, Note_on_c, 9, 38, 119
8, 29039, Note_on_c, 9, 38, 0
8, 29160, Note_on_c, 9, 38, 112
8, 29279, Note_on_c, 9, 38, 0
8, 29400, Note_on_c, 9, 38, 119
8, 29519, Note_on_c, 9, 38, 0
8, 29640, Note_on_c, 9, 38, 112
8, 29759, Note_on_c, 9, 38, 0
8, 29880, Note_on_c, 9, 38, 125
8, 29939, Note_on_c, 9, 38, 0
8, 30120, Note_on_c, 9, 38, 125
8, 30179, Note_on_c, 9, 38, 0
8, 30360, Note_on_c, 9, 38, 119
8, 30439, Note_on_c, 9, 38, 0
8, 30440, Note_on_c, 9, 38, 127
8, 30479, Note_on_c, 9, 38, 0
8, 30480, Note_on_c, 9, 38, 125
8, 30559, Note_on_c, 9, 38, 0
8, 30560, Note_on_c, 9, 38, 127
8, 30599, Note_on_c, 9, 38, 0
8, 30600, Note_on_c, 9, 38, 127
8, 30679, Note_on_c, 9, 38, 0
8, 30680, Note_on_c, 9, 38, 125
8, 30719, Note_on_c, 9, 38, 0
8, 30840, Note_on_c, 9, 38, 125
8, 30899, Note_on_c, 9, 38, 0
8, 31080, Note_on_c, 9, 38, 125
8, 31139, Note_on_c, 9, 38, 0
8, 31320, Note_on_c, 9, 38, 119
8, 31399, Note_on_c, 9, 38, 0
8, 31400, Note_on_c, 9, 38, 127
8, 31439, Note_on_c, 9, 38, 0
8, 31440, Note_on_c, 9, 38, 125
8, 31519, Note_on_c, 9, 38, 0
8, 31520, Note_on_c, 9, 38, 127
8, 31559, Note_on_c, 9, 38, 0
8, 31560, Note_on_c, 9, 38, 127
8, 31639, Note_on_c, 9, 38, 0
8, 31640, Note_on_c, 9, 38, 125
8, 31679, Note_on_c, 9, 38, 0
8, 31800, Note_on_c, 9, 38, 125
8, 31859, Note_on_c, 9, 38, 0
8, 32040, Note_on_c, 9, 38, 125
8, 32099, Note_on_c, 9, 38, 0
8, 32280, Note_on_c, 9, 38, 119
8, 32359, Note_on_c, 9, 38, 0
8, 32360, Note_on_c, 9, 38, 127
8, 32399, Note_on_c, 9, 38, 0
8, 32400, Note_on_c, 9, 38, 125
8, 32479, Note_on_c, 9, 38, 0
8, 32480, Note_on_c, 9, 38, 127
8, 32519, Note_on_c, 9, 38, 0
8, 32520, Note_on_c, 9, 38, 127
8, 32599, Note_on_c, 9, 38, 0
8, 32600, Note_on_c, 9, 38, 125
8, 32639, Note_on_c, 9, 38, 0
8, 32760, Note_on_c, 9, 38, 125
8, 32819, Note_on_c, 9, 38, 0
8, 33000, Note_on_c, 9, 38, 125
8, 33059, Note_on_c, 9, 38, 0
8, 33240, Note_on_c, 9, 38, 119
8, 33319, Note_on_c, 9, 38, 0
8, 33320, Note_on_c, 9, 38, 127
8, 33359, Note_on_c, 9, 38, 0
8, 33360, Note_on_c, 9, 38, 125
8, 33439, Note_on_c, 9, 38, 0
8, 33440, Note_on_c, 9, 38, 127
8, 33479, Note_on_c, 9, 38, 0
8, 33480, Note_on_c, 9, 38, 127
8, 33559, Note_on_c, 9, 38, 0
8, 33560, Note_on_c, 9, 38, 125
8, 33599, Note_on_c, 9, 38, 0
8, 33720, Note_on_c, 9, 38, 119
8, 33779, Note_on_c, 9, 38, 0
8, 33960, Note_on_c, 9, 38, 127
8, 34019, Note_on_c, 9, 38, 0
8, 34200, Note_on_c, 9, 38, 119
8, 34259, Note_on_c, 9, 38, 0
8, 34440, Note_on_c, 9, 38, 127
8, 34499, Note_on_c, 9, 38, 0
8, 34680, Note_on_c, 9, 38, 119
8, 34739, Note_on_c, 9, 38, 0
8, 34920, Note_on_c, 9, 38, 127
8, 34979, Note_on_c, 9, 38, 0
8, 35160, Note_on_c, 9, 38, 123
8, 35219, Note_on_c, 9, 38, 0
8, 35360, Note_on_c, 9, 38, 127
8, 35399, Note_on_c, 9, 38, 0
8, 35400, Note_on_c, 9, 38, 119
8, 35479, Note_on_c, 9, 38, 0
8, 35480, Note_on_c, 9, 38, 127
8, 35519, Note_on_c, 9, 38, 0
8, 35640, Note_on_c, 9, 38, 119
8, 35699, Note_on_c, 9, 38, 0
8, 35880, Note_on_c, 9, 38, 127
8, 35939, Note_on_c, 9, 38, 0
8, 36120, Note_on_c, 9, 38, 119
8, 36179, Note_on_c, 9, 38, 0
8, 36360, Note_on_c, 9, 38, 127
8, 36419, Note_on_c, 9, 38, 0
8, 36600, Note_on_c, 9, 38, 119
8, 36659, Note_on_c, 9, 38, 0
8, 36840, Note_on_c, 9, 38, 127
8, 36899, Note_on_c, 9, 38, 0
8, 37080, Note_on_c, 9, 38, 123
8, 37139, Note_on_c, 9, 38, 0
8, 37280, Note_on_c, 9, 38, 127
8, 37319, Note_on_c, 9, 38, 0
8, 37320, Note_on_c, 9, 38, 119
8, 37399, Note_on_c, 9, 38, 0
8, 37400, Note_on_c, 9, 38, 127
8, 37439, Note_on_c, 9, 38, 0
8, 37560, Note_on_c, 9, 38, 119
8, 37619, Note_on_c, 9, 38, 0
8, 37800, Note_on_c, 9, 38, 127
8, 37859, Note_on_c, 9, 38, 0
8, 38040, Note_on_c, 9, 38, 119
8, 38099, Note_on_c, 9, 38, 0
8, 38280, Note_on_c, 9, 38, 127
8, 38339, Note_on_c, 9, 38, 0
8, 38520, Note_on_c, 9, 38, 119
8, 38579, Note_on_c, 9, 38, 0
8, 38760, Note_on_c, 9, 38, 127
8, 38819, Note_on_c, 9, 38, 0
8, 39000, Note_on_c, 9, 38, 123
8, 39059, Note_on_c, 9, 38, 0
8, 39200, Note_on_c, 9, 38, 127
8, 39239, Note_on_c, 9, 38, 0
8, 39240, Note_on_c, 9, 38, 119
8, 39319, Note_on_c, 9, 38, 0
8, 39320, Note_on_c, 9, 38, 127
8, 39359, Note_on_c, 9, 38, 0
8, 39480, Note_on_c, 9, 38, 119
8, 39539, Note_on_c, 9, 38, 0
8, 39720, Note_on_c, 9, 38, 127
8, 39779, Note_on_c, 9, 38, 0
8, 39960, Note_on_c, 9, 38, 119
8, 40019, Note_on_c, 9, 38, 0
8, 40160, Note_on_c, 9, 38, 127
8, 40199, Note_on_c, 9, 38, 0
8, 40200, Note_on_c, 9, 38, 127
8, 40279, Note_on_c, 9, 38, 0
8, 40280, Note_on_c, 9, 38, 125
8, 40319, Note_on_c, 9, 38, 0
8, 40440, Note_on_c, 9, 38, 119
8, 40499, Note_on_c, 9, 38, 0
8, 40680, Note_on_c, 9, 38, 127
8, 40739, Note_on_c, 9, 38, 0
8, 40920, Note_on_c, 9, 38, 119
8, 40979, Note_on_c, 9, 38, 0
8, 41120, Note_on_c, 9, 38, 127
8, 41159, Note_on_c, 9, 38, 0
8, 41160, Note_on_c, 9, 38, 127
8, 41239, Note_on_c, 9, 38, 0
8, 41240, Note_on_c, 9, 38, 125
8, 41279, Note_on_c, 9, 38, 0
8, 41400, Note_on_c, 9, 38, 119
8, 41459, Note_on_c, 9, 38, 0
8, 41640, Note_on_c, 9, 38, 127
8, 41699, Note_on_c, 9, 38, 0
8, 41880, Note_on_c, 9, 38, 119
8, 41939, Note_on_c, 9, 38, 0
8, 42080, Note_on_c, 9, 38, 127
8, 42119, Note_on_c, 9, 38, 0
8, 42120, Note_on_c, 9, 38, 127
8, 42199, Note_on_c, 9, 38, 0
8, 42200, Note_on_c, 9, 38, 125
8, 42239, Note_on_c, 9, 38, 0
8, 42360, Note_on_c, 9, 38, 119
8, 42419, Note_on_c, 9, 38, 0
8, 42600, Note_on_c, 9, 38, 127
8, 42659, Note_on_c, 9, 38, 0
8, 42840, Note_on_c, 9, 38, 119
8, 42899, Note_on_c, 9, 38, 0
8, 43040, Note_on_c, 9, 38, 127
8, 43079, Note_on_c, 9, 38, 0
8, 43080, Note_on_c, 9, 38, 127
8, 43159, Note_on_c, 9, 38, 0
8, 43160, Note_on_c, 9, 38, 125
8, 43199, Note_on_c, 9, 38, 0
8, 43320, Note_on_c, 9, 38, 119
8, 43379, Note_on_c, 9, 38, 0
8, 43560, Note_on_c, 9, 38, 127
8, 43619, Note_on_c, 9, 38, 0
8, 43800, Note_on_c, 9, 38, 119
8, 43859, Note_on_c, 9, 38, 0
8, 44040, Note_on_c, 9, 38, 127
8, 44099, Note_on_c, 9, 38, 0
8, 44280, Note_on_c, 9, 38, 119
8, 44339, Note_on_c, 9, 38, 0
8, 44520, Note_on_c, 9, 38, 127
8, 44579, Note_on_c, 9, 38, 0
8, 44760, Note_on_c, 9, 38, 119
8, 44819, Note_on_c, 9, 38, 0
8, 45000, Note_on_c, 9, 38, 127
8, 45059, Note_on_c, 9, 38, 0
8, 45240, Note_on_c, 9, 38, 119
8, 45299, Note_on_c, 9, 38, 0
8, 45480, Note_on_c, 9, 38, 127
8, 45539, Note_on_c, 9, 38, 0
8, 45720, Note_on_c, 9, 38, 119
8, 45779, Note_on_c, 9, 38, 0
8, 45840, Note_on_c, 9, 38, 123
8, 45919, Note_on_c, 9, 38, 0
8, 45920, Note_on_c, 9, 38, 127
8, 45959, Note_on_c, 9, 38, 0
8, 45960, Note_on_c, 9, 38, 127
8, 46039, Note_on_c, 9, 38, 0
8, 46040, Note_on_c, 9, 38, 125
8, 46079, Note_on_c, 9, 38, 0
8, 46200, Note_on_c, 9, 38, 119
8, 46259, Note_on_c, 9, 38, 0
8, 46440, Note_on_c, 9, 38, 127
8, 46499, Note_on_c, 9, 38, 0
8, 46680, Note_on_c, 9, 38, 119
8, 46739, Note_on_c, 9, 38, 0
8, 46800, Note_on_c, 9, 38, 123
8, 46879, Note_on_c, 9, 38, 0
8, 46880, Note_on_c, 9, 38, 127
8, 46919, Note_on_c, 9, 38, 0
8, 46920, Note_on_c, 9, 38, 127
8, 46999, Note_on_c, 9, 38, 0
8, 47000, Note_on_c, 9, 38, 125
8, 47039, Note_on_c, 9, 38, 0
8, 47160, Note_on_c, 9, 38, 119
8, 47219, Note_on_c, 9, 38, 0
8, 47400, Note_on_c, 9, 38, 127
8, 47459, Note_on_c, 9, 38, 0
8, 47640, Note_on_c, 9, 38, 119
8, 47699, Note_on_c, 9, 38, 0
8, 47880, Note_on_c, 9, 38, 127
8, 47939, Note_on_c, 9, 38, 0
8, 48120, Note_on_c, 9, 38, 119
8, 48179, Note_on_c, 9, 38, 0
8, 48360, Note_on_c, 9, 38, 127
8, 48419, Note_on_c, 9, 38, 0
8, 48600, Note_on_c, 9, 38, 119
8, 48659, Note_on_c, 9, 38, 0
8, 48840, Note_on_c, 9, 38, 127
8, 48899, Note_on_c, 9, 38, 0
8, 49080, Note_on_c, 9, 38, 119
8, 49139, Note_on_c, 9, 38, 0
8, 49320, Note_on_c, 9, 38, 127
8, 49379, Note_on_c, 9, 38, 0
8, 49560, Note_on_c, 9, 38, 119
8, 49619, Note_on_c, 9, 38, 0
8, 49800, Note_on_c, 9, 38, 127
8, 49859, Note_on_c, 9, 38, 0
8, 50040, Note_on_c, 9, 38, 119
8, 50099, Note_on_c, 9, 38, 0
8, 50280, Note_on_c, 9, 38, 127
8, 50339, Note_on_c, 9, 38, 0
8, 50520, Note_on_c, 9, 38, 127
8, 50579, Note_on_c, 9, 38, 0
8, 50760, Note_on_c, 9, 38, 123
8, 50839, Note_on_c, 9, 38, 0
8, 50840, Note_on_c, 9, 38, 127
8, 50879, Note_on_c, 9, 38, 0
8, 51000, Note_on_c, 9, 38, 119
8, 51059, Note_on_c, 9, 38, 0
8, 51240, Note_on_c, 9, 38, 127
8, 51299, Note_on_c, 9, 38, 0
8, 51480, Note_on_c, 9, 38, 119
8, 51539, Note_on_c, 9, 38, 0
8, 51720, Note_on_c, 9, 38, 127
8, 51779, Note_on_c, 9, 38, 0
8, 51960, Note_on_c, 9, 38, 119
8, 52019, Note_on_c, 9, 38, 0
8, 52200, Note_on_c, 9, 38, 127
8, 52259, Note_on_c, 9, 38, 0
8, 52440, Note_on_c, 9, 38, 119
8, 52499, Note_on_c, 9, 38, 0
8, 52680, Note_on_c, 9, 38, 127
8, 52739, Note_on_c, 9, 38, 0
8, 52920, Note_on_c, 9, 38, 119
8, 52979, Note_on_c, 9, 38, 0
8, 53160, Note_on_c, 9, 38, 127
8, 53219, Note_on_c, 9, 38, 0
8, 53400, Note_on_c, 9, 38, 119
8, 53459, Note_on_c, 9, 38, 0
8, 53640, Note_on_c, 9, 38, 127
8, 53699, Note_on_c, 9, 38, 0
8, 53880, Note_on_c, 9, 38, 119
8, 53939, Note_on_c, 9, 38, 0
8, 54120, Note_on_c, 9, 38, 127
8, 54179, Note_on_c, 9, 38, 0
8, 54360, Note_on_c, 9, 38, 119
8, 54419, Note_on_c, 9, 38, 0
8, 54600, Note_on_c, 9, 38, 127
8, 54659, Note_on_c, 9, 38, 0
8, 54840, Note_on_c, 9, 38, 119
8, 54899, Note_on_c, 9, 38, 0
8, 55080, Note_on_c, 9, 38, 127
8, 55139, Note_on_c, 9, 38, 0
8, 55320, Note_on_c, 9, 38, 119
8, 55379, Note_on_c, 9, 38, 0
8, 55560, Note_on_c, 9, 38, 127
8, 55619, Note_on_c, 9, 38, 0
8, 55800, Note_on_c, 9, 38, 119
8, 55859, Note_on_c, 9, 38, 0
8, 56040, Note_on_c, 9, 38, 127
8, 56099, Note_on_c, 9, 38, 0
8, 56280, Note_on_c, 9, 38, 127
8, 56339, Note_on_c, 9, 38, 0
8, 56520, Note_on_c, 9, 38, 123
8, 56599, Note_on_c, 9, 38, 0
8, 56600, Note_on_c, 9, 38, 127
8, 56639, Note_on_c, 9, 38, 0
8, 56760, Note_on_c, 9, 38, 119
8, 56819, Note_on_c, 9, 38, 0
8, 57000, Note_on_c, 9, 38, 127
8, 57059, Note_on_c, 9, 38, 0
8, 57240, Note_on_c, 9, 38, 119
8, 57299, Note_on_c, 9, 38, 0
8, 57480, Note_on_c, 9, 38, 127
8, 57539, Note_on_c, 9, 38, 0
8, 57720, Note_on_c, 9, 38, 119
8, 57779, Note_on_c, 9, 38, 0
8, 57960, Note_on_c, 9, 38, 127
8, 58019, Note_on_c, 9, 38, 0
8, 58200, Note_on_c, 9, 38, 119
8, 58259, Note_on_c, 9, 38, 0
8, 58440, Note_on_c, 9, 38, 127
8, 58499, Note_on_c, 9, 38, 0
8, 58680, Note_on_c, 9, 38, 119
8, 58739, Note_on_c, 9, 38, 0
8, 58920, Note_on_c, 9, 38, 127
8, 58979, Note_on_c, 9, 38, 0
8, 59160, Note_on_c, 9, 38, 119
8, 59219, Note_on_c, 9, 38, 0
8, 59400, Note_on_c, 9, 38, 127
8, 59459, Note_on_c, 9, 38, 0
8, 59640, Note_on_c, 9, 38, 119
8, 59699, Note_on_c, 9, 38, 0
8, 59880, Note_on_c, 9, 38, 127
8, 59939, Note_on_c, 9, 38, 0
8, 60120, Note_on_c, 9, 38, 119
8, 60179, Note_on_c, 9, 38, 0
8, 60360, Note_on_c, 9, 38, 127
8, 60419, Note_on_c, 9, 38, 0
8, 60600, Note_on_c, 9, 38, 119
8, 60659, Note_on_c, 9, 38, 0
8, 60840, Note_on_c, 9, 38, 127
8, 60899, Note_on_c, 9, 38, 0
8, 61080, Note_on_c, 9, 38, 127
8, 61139, Note_on_c, 9, 38, 0
8, 61200, Note_on_c, 9, 38, 127
8, 61279, Note_on_c, 9, 38, 0
8, 61280, Note_on_c, 9, 38, 125
8, 61319, Note_on_c, 9, 38, 0
8, 61320, Note_on_c, 9, 38, 127
8, 61399, Note_on_c, 9, 38, 0
8, 61400, Note_on_c, 9, 38, 127
8, 61439, Note_on_c, 9, 38, 0
8, 61560, Note_on_c, 9, 38, 119
8, 61619, Note_on_c, 9, 38, 0
8, 61800, Note_on_c, 9, 38, 127
8, 61859, Note_on_c, 9, 38, 0
8, 62040, Note_on_c, 9, 38, 127
8, 62099, Note_on_c, 9, 38, 0
8, 62160, Note_on_c, 9, 38, 127
8, 62239, Note_on_c, 9, 38, 0
8, 62240, Note_on_c, 9, 38, 125
8, 62279, Note_on_c, 9, 38, 0
8, 62280, Note_on_c, 9, 38, 127
8, 62359, Note_on_c, 9, 38, 0
8, 62360, Note_on_c, 9, 38, 127
8, 62399, Note_on_c, 9, 38, 0
8, 62520, Note_on_c, 9, 38, 119
8, 62579, Note_on_c, 9, 38, 0
8, 62760, Note_on_c, 9, 38, 127
8, 62819, Note_on_c, 9, 38, 0
8, 63000, Note_on_c, 9, 38, 127
8, 63059, Note_on_c, 9, 38, 0
8, 63120, Note_on_c, 9, 38, 127
8, 63199, Note_on_c, 9, 38, 0
8, 63200, Note_on_c, 9, 38, 125
8, 63239, Note_on_c, 9, 38, 0
8, 63240, Note_on_c, 9, 38, 127
8, 63319, Note_on_c, 9, 38, 0
8, 63320, Note_on_c, 9, 38, 127
8, 63359, Note_on_c, 9, 38, 0
8, 63480, Note_on_c, 9, 38, 119
8, 63539, Note_on_c, 9, 38, 0
8, 63720, Note_on_c, 9, 38, 127
8, 63779, Note_on_c, 9, 38, 0
8, 63960, Note_on_c, 9, 38, 127
8, 64019, Note_on_c, 9, 38, 0
8, 64080, Note_on_c, 9, 38, 127
8, 64159, Note_on_c, 9, 38, 0
8, 64160, Note_on_c, 9, 38, 125
8, 64199, Note_on_c, 9, 38, 0
8, 64200, Note_on_c, 9, 38, 127
8, 64279, Note_on_c, 9, 38, 0
8, 64280, Note_on_c, 9, 38, 127
8, 64319, Note_on_c, 9, 38, 0
8, 64440, Note_on_c, 9, 38, 119
8, 64499, Note_on_c, 9, 38, 0
8, 64680, Note_on_c, 9, 38, 127
8, 64739, Note_on_c, 9, 38, 0
8, 64920, Note_on_c, 9, 38, 127
8, 64979, Note_on_c, 9, 38, 0
8, 65040, Note_on_c, 9, 38, 127
8, 65119, Note_on_c, 9, 38, 0
8, 65120, Note_on_c, 9, 38, 125
8, 65159, Note_on_c, 9, 38, 0
8, 65160, Note_on_c, 9, 38, 127
8, 65239, Note_on_c, 9, 38, 0
8, 65240, Note_on_c, 9, 38, 127
8, 65279, Note_on_c, 9, 38, 0
8, 65400, Note_on_c, 9, 38, 119
8, 65459, Note_on_c, 9, 38, 0
8, 65640, Note_on_c, 9, 38, 127
8, 65699, Note_on_c, 9, 38, 0
8, 65880, Note_on_c, 9, 38, 127
8, 65939, Note_on_c, 9, 38, 0
8, 66000, Note_on_c, 9, 38, 127
8, 66079, Note_on_c, 9, 38, 0
8, 66080, Note_on_c, 9, 38, 125
8, 66119, Note_on_c, 9, 38, 0
8, 66120, Note_on_c, 9, 38, 127
8, 66199, Note_on_c, 9, 38, 0
8, 66200, Note_on_c, 9, 38, 127
8, 66239, Note_on_c, 9, 38, 0
8, 66360, Note_on_c, 9, 38, 119
8, 66419, Note_on_c, 9, 38, 0
8, 66600, Note_on_c, 9, 38, 127
8, 66659, Note_on_c, 9, 38, 0
8, 66840, Note_on_c, 9, 38, 127
8, 66899, Note_on_c, 9, 38, 0
8, 66960, Note_on_c, 9, 38, 127
8, 67039, Note_on_c, 9, 38, 0
8, 67040, Note_on_c, 9, 38, 125
8, 67079, Note_on_c, 9, 38, 0
8, 67080, Note_on_c, 9, 38, 127
8, 67159, Note_on_c, 9, 38, 0
8, 67160, Note_on_c, 9, 38, 127
8, 67199, Note_on_c, 9, 38, 0
8, 67320, Note_on_c, 9, 38, 119
8, 67379, Note_on_c, 9, 38, 0
8, 67560, Note_on_c, 9, 38, 127
8, 67619, Note_on_c, 9, 38, 0
8, 67800, Note_on_c, 9, 38, 127
8, 67859, Note_on_c, 9, 38, 0
8, 67920, Note_on_c, 9, 38, 127
8, 67999, Note_on_c, 9, 38, 0
8, 68000, Note_on_c, 9, 38, 125
8, 68039, Note_on_c, 9, 38, 0
8, 68040, Note_on_c, 9, 38, 127
8, 68119, Note_on_c, 9, 38, 0
8, 68120, Note_on_c, 9, 38, 127
8, 68159, Note_on_c, 9, 38, 0
8, 68280, Note_on_c, 9, 38, 119
8, 68339, Note_on_c, 9, 38, 0
8, 68520, Note_on_c, 9, 38, 127
8, 68579, Note_on_c, 9, 38, 0
8, 68760, Note_on_c, 9, 38, 119
8, 68819, Note_on_c, 9, 38, 0
8, 69000, Note_on_c, 9, 38, 127
8, 69059, Note_on_c, 9, 38, 0
8, 69240, Note_on_c, 9, 38, 119
8, 69299, Note_on_c, 9, 38, 0
8, 69480, Note_on_c, 9, 38, 127
8, 69539, Note_on_c, 9, 38, 0
8, 69720, Note_on_c, 9, 38, 119
8, 69779, Note_on_c, 9, 38, 0
8, 69960, Note_on_c, 9, 38, 127
8, 70019, Note_on_c, 9, 38, 0
8, 70200, Note_on_c, 9, 38, 119
8, 70259, Note_on_c, 9, 38, 0
8, 70440, Note_on_c, 9, 38, 127
8, 70499, Note_on_c, 9, 38, 0
8, 70680, Note_on_c, 9, 38, 119
8, 70739, Note_on_c, 9, 38, 0
8, 70920, Note_on_c, 9, 38, 127
8, 70979, Note_on_c, 9, 38, 0
8, 71160, Note_on_c, 9, 38, 119
8, 71219, Note_on_c, 9, 38, 0
8, 71400, Note_on_c, 9, 38, 127
8, 71459, Note_on_c, 9, 38, 0
8, 71520, Note_on_c, 9, 38, 119
8, 71599, Note_on_c, 9, 38, 0
8, 71600, Note_on_c, 9, 38, 125
8, 71639, Note_on_c, 9, 38, 0
8, 71640, Note_on_c, 9, 38, 125
8, 71719, Note_on_c, 9, 38, 0
8, 71720, Note_on_c, 9, 38, 127
8, 71759, Note_on_c, 9, 38, 0
8, 71760, Note_on_c, 9, 38, 127
8, 71839, Note_on_c, 9, 38, 0
8, 71840, Note_on_c, 9, 38, 127
8, 71879, Note_on_c, 9, 38, 0
8, 71880, Note_on_c, 9, 38, 127
8, 71959, Note_on_c, 9, 38, 0
8, 71960, Note_on_c, 9, 38, 127
8, 71999, Note_on_c, 9, 38, 0
8, 72000, Note_on_c, 9, 38, 127
8, 72119, Note_on_c, 9, 38, 0
8, 72119, End_track
9, 0, Start_track
9, 0, Title_t, "HH Closed"
9, 0, Note_on_c, 9, 42, 127
9, 119, Note_on_c, 9, 42, 0
9, 120, Note_on_c, 9, 42, 117
9, 239, Note_on_c, 9, 42, 0
9, 240, Note_on_c, 9, 42, 117
9, 359, Note_on_c, 9, 42, 0
9, 360, Note_on_c, 9, 42, 112
9, 479, Note_on_c, 9, 42, 0
9, 1200, Note_on_c, 9, 42, 112
9, 1279, Note_on_c, 9, 42, 0
9, 1280, Note_on_c, 9, 42, 123
9, 1319, Note_on_c, 9, 42, 0
9, 1320, Note_on_c, 9, 42, 117
9, 1399, Note_on_c, 9, 42, 0
9, 1400, Note_on_c, 9, 42, 125
9, 1439, Note_on_c, 9, 42, 0
9, 1440, Note_on_c, 9, 42, 123
9, 1519, Note_on_c, 9, 42, 0
9, 1520, Note_on_c, 9, 42, 127
9, 1559, Note_on_c, 9, 42, 0
9, 1560, Note_on_c, 9, 42, 112
9, 1639, Note_on_c, 9, 42, 0
9, 1640, Note_on_c, 9, 42, 117
9, 1679, Note_on_c, 9, 42, 0
9, 1680, Note_on_c, 9, 42, 112
9, 1759, Note_on_c, 9, 42, 0
9, 1760, Note_on_c, 9, 42, 119
9, 1799, Note_on_c, 9, 42, 0
9, 1800, Note_on_c, 9, 42, 123
9, 1879, Note_on_c, 9, 42, 0
9, 1880, Note_on_c, 9, 42, 112
9, 1919, Note_on_c, 9, 42, 0
9, 1920, Note_on_c, 9, 42, 123
9, 1999, Note_on_c, 9, 42, 0
9, 2000, Note_on_c, 9, 42, 127
9, 2039, Note_on_c, 9, 42, 0
9, 2040, Note_on_c, 9, 42, 112
9, 2119, Note_on_c, 9, 42, 0
9, 2120, Note_on_c, 9, 42, 117
9, 2159, Note_on_c, 9, 42, 0
9, 2160, Note_on_c, 9, 42, 112
9, 2239, Note_on_c, 9, 42, 0
9, 2240, Note_on_c, 9, 42, 119
9, 2279, Note_on_c, 9, 42, 0
9, 2280, Note_on_c, 9, 42, 123
9, 2359, Note_on_c, 9, 42, 0
9, 2360, Note_on_c, 9, 42, 112
9, 2399, Note_on_c, 9, 42, 0
9, 2400, Note_on_c, 9, 42, 123
9, 2479, Note_on_c, 9, 42, 0
9, 2480, Note_on_c, 9, 42, 127
9, 2519, Note_on_c, 9, 42, 0
9, 2520, Note_on_c, 9, 42, 112
9, 2599, Note_on_c, 9, 42, 0
9, 2600, Note_on_c, 9, 42, 117
9, 2639, Note_on_c, 9, 42, 0
9, 2640, Note_on_c, 9, 42, 112
9, 2719, Note_on_c, 9, 42, 0
9, 2720, Note_on_c, 9, 42, 119
9, 2759, Note_on_c, 9, 42, 0
9, 2760, Note_on_c, 9, 42, 123
9, 2839, Note_on_c, 9, 42, 0
9, 2840, Note_on_c, 9, 42, 112
9, 2879, Note_on_c, 9, 42, 0
9, 2880, Note_on_c, 9, 42, 123
9, 2959, Note_on_c, 9, 42, 0
9, 2960, Note_on_c, 9, 42, 127
9, 2999, Note_on_c, 9, 42, 0
9, 3000, Note_on_c, 9, 42, 112
9, 3079, Note_on_c, 9, 42, 0
9, 3080, Note_on_c, 9, 42, 117
9, 3119, Note_on_c, 9, 42, 0
9, 3120, Note_on_c, 9, 42, 112
9, 3199, Note_on_c, 9, 42, 0
9, 3200, Note_on_c, 9, 42, 119
9, 3239, Note_on_c, 9, 42, 0
9, 3240, Note_on_c, 9, 42, 123
9, 3319, Note_on_c, 9, 42, 0
9, 3320, Note_on_c, 9, 42, 112
9, 3359, Note_on_c, 9, 42, 0
9, 3360, Note_on_c, 9, 42, 123
9, 3439, Note_on_c, 9, 42, 0
9, 3440, Note_on_c, 9, 42, 127
9, 3479, Note_on_c, 9, 42, 0
9, 3480, Note_on_c, 9, 42, 112
9, 3559, Note_on_c, 9, 42, 0
9, 3560, Note_on_c, 9, 42, 117
9, 3599, Note_on_c, 9, 42, 0
9, 3600, Note_on_c, 9, 42, 112
9, 3679, Note_on_c, 9, 42, 0
9, 3680, Note_on_c, 9, 42, 119
9, 3719, Note_on_c, 9, 42, 0
9, 3720, Note_on_c, 9, 42, 123
9, 3799, Note_on_c, 9, 42, 0
9, 3800, Note_on_c, 9, 42, 112
9, 3839, Note_on_c, 9, 42, 0
9, 3840, Note_on_c, 9, 42, 123
9, 3919, Note_on_c, 9, 42, 0
9, 3920, Note_on_c, 9, 42, 127
9, 3959, Note_on_c, 9, 42, 0
9, 3960, Note_on_c, 9, 42, 112
9, 4039, Note_on_c, 9, 42, 0
9, 4040, Note_on_c, 9, 42, 117
9, 4079, Note_on_c, 9, 42, 0
9, 4080, Note_on_c, 9, 42, 112
9, 4159, Note_on_c, 9, 42, 0
9, 4160, Note_on_c, 9, 42, 119
9, 4199, Note_on_c, 9, 42, 0
9, 4200, Note_on_c, 9, 42, 123
9, 4279, Note_on_c, 9, 42, 0
9, 4280, Note_on_c, 9, 42, 112
9, 4319, Note_on_c, 9, 42, 0
9, 4320, Note_on_c, 9, 42, 123
9, 4399, Note_on_c, 9, 42, 0
9, 4400, Note_on_c, 9, 42, 127
9, 4439, Note_on_c, 9, 42, 0
9, 4440, Note_on_c, 9, 42, 112
9, 4519, Note_on_c, 9, 42, 0
9, 4520, Note_on_c, 9, 42, 117
9, 4559, Note_on_c, 9, 42, 0
9, 4560, Note_on_c, 9, 42, 112
9, 4639, Note_on_c, 9, 42, 0
9, 4640, Note_on_c, 9, 42, 119
9, 4679, Note_on_c, 9, 42, 0
9, 4680, Note_on_c, 9, 42, 123
9, 4759, Note_on_c, 9, 42, 0
9, 4760, Note_on_c, 9, 42, 112
9, 4799, Note_on_c, 9, 42, 0
9, 4800, Note_on_c, 9, 42, 123
9, 4879, Note_on_c, 9, 42, 0
9, 4880, Note_on_c, 9, 42, 127
9, 4919, Note_on_c, 9, 42, 0
9, 4920, Note_on_c, 9, 42, 112
9, 4999, Note_on_c, 9, 42, 0
9, 5000, Note_on_c, 9, 42, 117
9, 5039, Note_on_c, 9, 42, 0
9, 5040, Note_on_c, 9, 42, 112
9, 5119, Note_on_c, 9, 42, 0
9, 5120, Note_on_c, 9, 42, 119
9, 5159, Note_on_c, 9, 42, 0
9, 5160, Note_on_c, 9, 42, 123
9, 5239, Note_on_c, 9, 42, 0
9, 5240, Note_on_c, 9, 42, 112
9, 5279, Note_on_c, 9, 42, 0
9, 5280, Note_on_c, 9, 42, 123
9, 5359, Note_on_c, 9, 42, 0
9, 5360, Note_on_c, 9, 42, 127
9, 5399, Note_on_c, 9, 42, 0
9, 5400, Note_on_c, 9, 42, 112
9, 5479, Note_on_c, 9, 42, 0
9, 5480, Note_on_c, 9, 42, 117
9, 5519, Note_on_c, 9, 42, 0
9, 5520, Note_on_c, 9, 42, 112
9, 5599, Note_on_c, 9, 42, 0
9, 5600, Note_on_c, 9, 42, 119
9, 5639, Note_on_c, 9, 42, 0
9, 5640, Note_on_c, 9, 42, 123
9, 5719, Note_on_c, 9, 42, 0
9, 5720, Note_on_c, 9, 42, 112
9, 5759, Note_on_c, 9, 42, 0
9, 5760, Note_on_c, 9, 42, 123
9, 5839, Note_on_c, 9, 42, 0
9, 5840, Note_on_c, 9, 42, 127
9, 5879, Note_on_c, 9, 42, 0
9, 5880, Note_on_c, 9, 42, 112
9, 5959, Note_on_c, 9, 42, 0
9, 5960, Note_on_c, 9, 42, 117
9, 5999, Note_on_c, 9, 42, 0
9, 6000, Note_on_c, 9, 42, 112
9, 6079, Note_on_c, 9, 42, 0
9, 6080, Note_on_c, 9, 42, 119
9, 6119, Note_on_c, 9, 42, 0
9, 6120, Note_on_c, 9, 42, 123
9, 6199, Note_on_c, 9, 42, 0
9, 6200, Note_on_c, 9, 42, 112
9, 6239, Note_on_c, 9, 42, 0
9, 6240, Note_on_c, 9, 42, 123
9, 6319, Note_on_c, 9, 42, 0
9, 6320, Note_on_c, 9, 42, 127
9, 6359, Note_on_c, 9, 42, 0
9, 6360, Note_on_c, 9, 42, 112
9, 6439, Note_on_c, 9, 42, 0
9, 6440, Note_on_c, 9, 42, 117
9, 6479, Note_on_c, 9, 42, 0
9, 6480, Note_on_c, 9, 42, 112
9, 6559, Note_on_c, 9, 42, 0
9, 6560, Note_on_c, 9, 42, 119
9, 6599, Note_on_c, 9, 42, 0
9, 6600, Note_on_c, 9, 42, 123
9, 6679, Note_on_c, 9, 42, 0
9, 6680, Note_on_c, 9, 42, 112
9, 6719, Note_on_c, 9, 42, 0
9, 6720, Note_on_c, 9, 42, 123
9, 6799, Note_on_c, 9, 42, 0
9, 6800, Note_on_c, 9, 42, 127
9, 6839, Note_on_c, 9, 42, 0
9, 6840, Note_on_c, 9, 42, 112
9, 6919, Note_on_c, 9, 42, 0
9, 6920, Note_on_c, 9, 42, 117
9, 6959, Note_on_c, 9, 42, 0
9, 6960, Note_on_c, 9, 42, 112
9, 7039, Note_on_c, 9, 42, 0
9, 7040, Note_on_c, 9, 42, 119
9, 7079, Note_on_c, 9, 42, 0
9, 7080, Note_on_c, 9, 42, 123
9, 7159, Note_on_c, 9, 42, 0
9, 7160, Note_on_c, 9, 42, 112
9, 7199, Note_on_c, 9, 42, 0
9, 7200, Note_on_c, 9, 42, 123
9, 7279, Note_on_c, 9, 42, 0
9, 7280, Note_on_c, 9, 42, 127
9, 7319, Note_on_c, 9, 42, 0
9, 7320, Note_on_c, 9, 42, 112
9, 7399, Note_on_c, 9, 42, 0
9, 7400, Note_on_c, 9, 42, 117
9, 7439, Note_on_c, 9, 42, 0
9, 7440, Note_on_c, 9, 42, 112
9, 7519, Note_on_c, 9, 42, 0
9, 7520, Note_on_c, 9, 42, 119
9, 7559, Note_on_c, 9, 42, 0
9, 7560, Note_on_c, 9, 42, 123
9, 7639, Note_on_c, 9, 42, 0
9, 7640, Note_on_c, 9, 42, 112
9, 7679, Note_on_c, 9, 42, 0
9, 7680, Note_on_c, 9, 42, 123
9, 7759, Note_on_c, 9, 42, 0
9, 7760, Note_on_c, 9, 42, 127
9, 7799, Note_on_c, 9, 42, 0
9, 7800, Note_on_c, 9, 42, 112
9, 7879, Note_on_c, 9, 42, 0
9, 7880, Note_on_c, 9, 42, 117
9, 7919, Note_on_c, 9, 42, 0
9, 7920, Note_on_c, 9, 42, 112
9, 7999, Note_on_c, 9, 42, 0
9, 8000, Note_on_c, 9, 42, 119
9, 8039, Note_on_c, 9, 42, 0
9, 8040, Note_on_c, 9, 42, 123
9, 8119, Note_on_c, 9, 42, 0
9, 8120, Note_on_c, 9, 42, 112
9, 8159, Note_on_c, 9, 42, 0
9, 8160, Note_on_c, 9, 42, 123
9, 8239, Note_on_c, 9, 42, 0
9, 8240, Note_on_c, 9, 42, 127
9, 8279, Note_on_c, 9, 42, 0
9, 8280, Note_on_c, 9, 42, 112
9, 8359, Note_on_c, 9, 42, 0
9, 8360, Note_on_c, 9, 42, 117
9, 8399, Note_on_c, 9, 42, 0
9, 8400, Note_on_c, 9, 42, 112
9, 8479, Note_on_c, 9, 42, 0
9, 8480, Note_on_c, 9, 42, 119
9, 8519, Note_on_c, 9, 42, 0
9, 8520, Note_on_c, 9, 42, 123
9, 8599, Note_on_c, 9, 42, 0
9, 8600, Note_on_c, 9, 42, 112
9, 8639, Note_on_c, 9, 42, 0
9, 8640, Note_on_c, 9, 42, 123
9, 8719, Note_on_c, 9, 42, 0
9, 8720, Note_on_c, 9, 42, 127
9, 8759, Note_on_c, 9, 42, 0
9, 8760, Note_on_c, 9, 42, 112
9, 8839, Note_on_c, 9, 42, 0
9, 8840, Note_on_c, 9, 42, 117
9, 8879, Note_on_c, 9, 42, 0
9, 8880, Note_on_c, 9, 42, 112
9, 8959, Note_on_c, 9, 42, 0
9, 8960, Note_on_c, 9, 42, 119
9, 8999, Note_on_c, 9, 42, 0
9, 9000, Note_on_c, 9, 42, 123
9, 9079, Note_on_c, 9, 42, 0
9, 9080, Note_on_c, 9, 42, 112
9, 9119, Note_on_c, 9, 42, 0
9, 9120, Note_on_c, 9, 42, 123
9, 9199, Note_on_c, 9, 42, 0
9, 9200, Note_on_c, 9, 42, 127
9, 9239, Note_on_c, 9, 42, 0
9, 9240, Note_on_c, 9, 42, 112
9, 9319, Note_on_c, 9, 42, 0
9, 9320, Note_on_c, 9, 42, 117
9, 9359, Note_on_c, 9, 42, 0
9, 9360, Note_on_c, 9, 42, 112
9, 9439, Note_on_c, 9, 42, 0
9, 9440, Note_on_c, 9, 42, 119
9, 9479, Note_on_c, 9, 42, 0
9, 9480, Note_on_c, 9, 42, 123
9, 9559, Note_on_c, 9, 42, 0
9, 9560, Note_on_c, 9, 42, 112
9, 9599, Note_on_c, 9, 42, 0
9, 9600, Note_on_c, 9, 42, 123
9, 9679, Note_on_c, 9, 42, 0
9, 9680, Note_on_c, 9, 42, 127
9, 9719, Note_on_c, 9, 42, 0
9, 9720, Note_on_c, 9, 42, 112
9, 9799, Note_on_c, 9, 42, 0
9, 9800, Note_on_c, 9, 42, 117
9, 9839, Note_on_c, 9, 42, 0
9, 9840, Note_on_c, 9, 42, 112
9, 9919, Note_on_c, 9, 42, 0
9, 9920, Note_on_c, 9, 42, 119
9, 9959, Note_on_c, 9, 42, 0
9, 9960, Note_on_c, 9, 42, 123
9, 10039, Note_on_c, 9, 42, 0
9, 10040, Note_on_c, 9, 42, 112
9, 10079, Note_on_c, 9, 42, 0
9, 10080, Note_on_c, 9, 42, 123
9, 10159, Note_on_c, 9, 42, 0
9, 10160, Note_on_c, 9, 42, 127
9, 10199, Note_on_c, 9, 42, 0
9, 10200, Note_on_c, 9, 42, 112
9, 10279, Note_on_c, 9, 42, 0
9, 10280, Note_on_c, 9, 42, 117
9, 10319, Note_on_c, 9, 42, 0
9, 10320, Note_on_c, 9, 42, 112
9, 10399, Note_on_c, 9, 42, 0
9, 10400, Note_on_c, 9, 42, 119
9, 10439, Note_on_c, 9, 42, 0
9, 10440, Note_on_c, 9, 42, 123
9, 10519, Note_on_c, 9, 42, 0
9, 10520, Note_on_c, 9, 42, 112
9, 10559, Note_on_c, 9, 42, 0
9, 10560, Note_on_c, 9, 42, 123
9, 10639, Note_on_c, 9, 42, 0
9, 10640, Note_on_c, 9, 42, 127
9, 10679, Note_on_c, 9, 42, 0
9, 10680, Note_on_c, 9, 42, 112
9, 10759, Note_on_c, 9, 42, 0
9, 10760, Note_on_c, 9, 42, 117
9, 10799, Note_on_c, 9, 42, 0
9, 10800, Note_on_c, 9, 42, 112
9, 10879, Note_on_c, 9, 42, 0
9, 10880, Note_on_c, 9, 42, 119
9, 10919, Note_on_c, 9, 42, 0
9, 10920, Note_on_c, 9, 42, 123
9, 10999, Note_on_c, 9, 42, 0
9, 11000, Note_on_c, 9, 42, 112
9, 11039, Note_on_c, 9, 42, 0
9, 11040, Note_on_c, 9, 42, 123
9, 11119, Note_on_c, 9, 42, 0
9, 11120, Note_on_c, 9, 42, 127
9, 11159, Note_on_c, 9, 42, 0
9, 11160, Note_on_c, 9, 42, 112
9, 11239, Note_on_c, 9, 42, 0
9, 11240, Note_on_c, 9, 42, 117
9, 11279, Note_on_c, 9, 42, 0
9, 11280, Note_on_c, 9, 42, 112
9, 11359, Note_on_c, 9, 42, 0
9, 11360, Note_on_c, 9, 42, 119
9, 11399, Note_on_c, 9, 42, 0
9, 11400, Note_on_c, 9, 42, 123
9, 11479, Note_on_c, 9, 42, 0
9, 11480, Note_on_c, 9, 42, 112
9, 11519, Note_on_c, 9, 42, 0
9, 11520, Note_on_c, 9, 42, 123
9, 11599, Note_on_c, 9, 42, 0
9, 11600, Note_on_c, 9, 42, 127
9, 11639, Note_on_c, 9, 42, 0
9, 11640, Note_on_c, 9, 42, 112
9, 11719, Note_on_c, 9, 42, 0
9, 11720, Note_on_c, 9, 42, 117
9, 11759, Note_on_c, 9, 42, 0
9, 11760, Note_on_c, 9, 42, 112
9, 11839, Note_on_c, 9, 42, 0
9, 11840, Note_on_c, 9, 42, 119
9, 11879, Note_on_c, 9, 42, 0
9, 11880, Note_on_c, 9, 42, 123
9, 11959, Note_on_c, 9, 42, 0
9, 11960, Note_on_c, 9, 42, 112
9, 11999, Note_on_c, 9, 42, 0
9, 12000, Note_on_c, 9, 42, 123
9, 12079, Note_on_c, 9, 42, 0
9, 12080, Note_on_c, 9, 42, 127
9, 12119, Note_on_c, 9, 42, 0
9, 12120, Note_on_c, 9, 42, 112
9, 12199, Note_on_c, 9, 42, 0
9, 12200, Note_on_c, 9, 42, 117
9, 12239, Note_on_c, 9, 42, 0
9, 12240, Note_on_c, 9, 42, 112
9, 12319, Note_on_c, 9, 42, 0
9, 12320, Note_on_c, 9, 42, 119
9, 12359, Note_on_c, 9, 42, 0
9, 12360, Note_on_c, 9, 42, 123
9, 12439, Note_on_c, 9, 42, 0
9, 12440, Note_on_c, 9, 42, 112
9, 12479, Note_on_c, 9, 42, 0
9, 12480, Note_on_c, 9, 42, 123
9, 12559, Note_on_c, 9, 42, 0
9, 12560, Note_on_c, 9, 42, 127
9, 12599, Note_on_c, 9, 42, 0
9, 12600, Note_on_c, 9, 42, 112
9, 12679, Note_on_c, 9, 42, 0
9, 12680, Note_on_c, 9, 42, 117
9, 12719, Note_on_c, 9, 42, 0
9, 12720, Note_on_c, 9, 42, 112
9, 12799, Note_on_c, 9, 42, 0
9, 12800, Note_on_c, 9, 42, 119
9, 12839, Note_on_c, 9, 42, 0
9, 12840, Note_on_c, 9, 42, 123
9, 12919, Note_on_c, 9, 42, 0
9, 12920, Note_on_c, 9, 42, 112
9, 12959, Note_on_c, 9, 42, 0
9, 12960, Note_on_c, 9, 42, 123
9, 13039, Note_on_c, 9, 42, 0
9, 13040, Note_on_c, 9, 42, 127
9, 13079, Note_on_c, 9, 42, 0
9, 13080, Note_on_c, 9, 42, 112
9, 13159, Note_on_c, 9, 42, 0
9, 13160, Note_on_c, 9, 42, 117
9, 13199, Note_on_c, 9, 42, 0
9, 13200, Note_on_c, 9, 42, 112
9, 13279, Note_on_c, 9, 42, 0
9, 13280, Note_on_c, 9, 42, 119
9, 13319, Note_on_c, 9, 42, 0
9, 13320, Note_on_c, 9, 42, 123
9, 13399, Note_on_c, 9, 42, 0
9, 13400, Note_on_c, 9, 42, 112
9, 13439, Note_on_c, 9, 42, 0
9, 13440, Note_on_c, 9, 42, 123
9, 13519, Note_on_c, 9, 42, 0
9, 13520, Note_on_c, 9, 42, 127
9, 13559, Note_on_c, 9, 42, 0
9, 13560, Note_on_c, 9, 42, 112
9, 13639, Note_on_c, 9, 42, 0
9, 13640, Note_on_c, 9, 42, 117
9, 13679, Note_on_c, 9, 42, 0
9, 13680, Note_on_c, 9, 42, 112
9, 13759, Note_on_c, 9, 42, 0
9, 13760, Note_on_c, 9, 42, 119
9, 13799, Note_on_c, 9, 42, 0
9, 13800, Note_on_c, 9, 42, 123
9, 13879, Note_on_c, 9, 42, 0
9, 13880, Note_on_c, 9, 42, 112
9, 13919, Note_on_c, 9, 42, 0
9, 13920, Note_on_c, 9, 42, 123
9, 13999, Note_on_c, 9, 42, 0
9, 14000, Note_on_c, 9, 42, 127
9, 14039, Note_on_c, 9, 42, 0
9, 14040, Note_on_c, 9, 42, 112
9, 14119, Note_on_c, 9, 42, 0
9, 14120, Note_on_c, 9, 42, 117
9, 14159, Note_on_c, 9, 42, 0
9, 14160, Note_on_c, 9, 42, 112
9, 14239, Note_on_c, 9, 42, 0
9, 14240, Note_on_c, 9, 42, 119
9, 14279, Note_on_c, 9, 42, 0
9, 14280, Note_on_c, 9, 42, 123
9, 14359, Note_on_c, 9, 42, 0
9, 14360, Note_on_c, 9, 42, 112
9, 14399, Note_on_c, 9, 42, 0
9, 14400, Note_on_c, 9, 42, 123
9, 14479, Note_on_c, 9, 42, 0
9, 14480, Note_on_c, 9, 42, 127
9, 14519, Note_on_c, 9, 42, 0
9, 14520, Note_on_c, 9, 42, 112
9, 14599, Note_on_c, 9, 42, 0
9, 14600, Note_on_c, 9, 42, 117
9, 14639, Note_on_c, 9, 42, 0
9, 14640, Note_on_c, 9, 42, 112
9, 14719, Note_on_c, 9, 42, 0
9, 14720, Note_on_c, 9, 42, 119
9, 14759, Note_on_c, 9, 42, 0
9, 14760, Note_on_c, 9, 42, 123
9, 14839, Note_on_c, 9, 42, 0
9, 14840, Note_on_c, 9, 42, 112
9, 14879, Note_on_c, 9, 42, 0
9, 14880, Note_on_c, 9, 42, 123
9, 14959, Note_on_c, 9, 42, 0
9, 14960, Note_on_c, 9, 42, 127
9, 14999, Note_on_c, 9, 42, 0
9, 15000, Note_on_c, 9, 42, 112
9, 15079, Note_on_c, 9, 42, 0
9, 15080, Note_on_c, 9, 42, 117
9, 15119, Note_on_c, 9, 42, 0
9, 15120, Note_on_c, 9, 42, 112
9, 15199, Note_on_c, 9, 42, 0
9, 15200, Note_on_c, 9, 42, 119
9, 15239, Note_on_c, 9, 42, 0
9, 15240, Note_on_c, 9, 42, 123
9, 15319, Note_on_c, 9, 42, 0
9, 15320, Note_on_c, 9, 42, 112
9, 15359, Note_on_c, 9, 42, 0
9, 15360, Note_on_c, 9, 42, 123
9, 15439, Note_on_c, 9, 42, 0
9, 15440, Note_on_c, 9, 42, 127
9, 15479, Note_on_c, 9, 42, 0
9, 15480, Note_on_c, 9, 42, 112
9, 15559, Note_on_c, 9, 42, 0
9, 15560, Note_on_c, 9, 42, 117
9, 15599, Note_on_c, 9, 42, 0
9, 15600, Note_on_c, 9, 42, 112
9, 15679, Note_on_c, 9, 42, 0
9, 15680, Note_on_c, 9, 42, 119
9, 15719, Note_on_c, 9, 42, 0
9, 15720, Note_on_c, 9, 42, 123
9, 15799, Note_on_c, 9, 42, 0
9, 15800, Note_on_c, 9, 42, 112
9, 15839, Note_on_c, 9, 42, 0
9, 15840, Note_on_c, 9, 42, 123
9, 15919, Note_on_c, 9, 42, 0
9, 15920, Note_on_c, 9, 42, 127
9, 15959, Note_on_c, 9, 42, 0
9, 15960, Note_on_c, 9, 42, 112
9, 16039, Note_on_c, 9, 42, 0
9, 16040, Note_on_c, 9, 42, 117
9, 16079, Note_on_c, 9, 42, 0
9, 16080, Note_on_c, 9, 42, 112
9, 16159, Note_on_c, 9, 42, 0
9, 16160, Note_on_c, 9, 42, 119
9, 16199, Note_on_c, 9, 42, 0
9, 16200, Note_on_c, 9, 42, 123
9, 16279, Note_on_c, 9, 42, 0
9, 16280, Note_on_c, 9, 42, 112
9, 16319, Note_on_c, 9, 42, 0
9, 16320, Note_on_c, 9, 42, 123
9, 16399, Note_on_c, 9, 42, 0
9, 16400, Note_on_c, 9, 42, 127
9, 16439, Note_on_c, 9, 42, 0
9, 16440, Note_on_c, 9, 42, 112
9, 16519, Note_on_c, 9, 42, 0
9, 16520, Note_on_c, 9, 42, 117
9, 16559, Note_on_c, 9, 42, 0
9, 16560, Note_on_c, 9, 42, 112
9, 16639, Note_on_c, 9, 42, 0
9, 16640, Note_on_c, 9, 42, 119
9, 16679, Note_on_c, 9, 42, 0
9, 16680, Note_on_c, 9, 42, 123
9, 16759, Note_on_c, 9, 42, 0
9, 16760, Note_on_c, 9, 42, 112
9, 16799, Note_on_c, 9, 42, 0
9, 16800, Note_on_c, 9, 42, 123
9, 16879, Note_on_c, 9, 42, 0
9, 16880, Note_on_c, 9, 42, 127
9, 16919, Note_on_c, 9, 42, 0
9, 16920, Note_on_c, 9, 42, 112
9, 16999, Note_on_c, 9, 42, 0
9, 17000, Note_on_c, 9, 42, 117
9, 17039, Note_on_c, 9, 42, 0
9, 17040, Note_on_c, 9, 42, 112
9, 17119, Note_on_c, 9, 42, 0
9, 17120, Note_on_c, 9, 42, 119
9, 17159, Note_on_c, 9, 42, 0
9, 17160, Note_on_c, 9, 42, 123
9, 17239, Note_on_c, 9, 42, 0
9, 17240, Note_on_c, 9, 42, 112
9, 17279, Note_on_c, 9, 42, 0
9, 17280, Note_on_c, 9, 42, 123
9, 17359, Note_on_c, 9, 42, 0
9, 17360, Note_on_c, 9, 42, 127
9, 17399, Note_on_c, 9, 42, 0
9, 17400, Note_on_c, 9, 42, 112
9, 17479, Note_on_c, 9, 42, 0
9, 17480, Note_on_c, 9, 42, 117
9, 17519, Note_on_c, 9, 42, 0
9, 17520, Note_on_c, 9, 42, 112
9, 17599, Note_on_c, 9, 42, 0
9, 17600, Note_on_c, 9, 42, 119
9, 17639, Note_on_c, 9, 42, 0
9, 17640, Note_on_c, 9, 42, 123
9, 17719, Note_on_c, 9, 42, 0
9, 17720, Note_on_c, 9, 42, 112
9, 17759, Note_on_c, 9, 42, 0
9, 17760, Note_on_c, 9, 42, 123
9, 17839, Note_on_c, 9, 42, 0
9, 17840, Note_on_c, 9, 42, 127
9, 17879, Note_on_c, 9, 42, 0
9, 17880, Note_on_c, 9, 42, 112
9, 17959, Note_on_c, 9, 42, 0
9, 17960, Note_on_c, 9, 42, 117
9, 17999, Note_on_c, 9, 42, 0
9, 18000, Note_on_c, 9, 42, 112
9, 18079, Note_on_c, 9, 42, 0
9, 18080, Note_on_c, 9, 42, 119
9, 18119, Note_on_c, 9, 42, 0
9, 18120, Note_on_c, 9, 42, 123
9, 18199, Note_on_c, 9, 42, 0
9, 18200, Note_on_c, 9, 42, 112
9, 18239, Note_on_c, 9, 42, 0
9, 18240, Note_on_c, 9, 42, 123
9, 18319, Note_on_c, 9, 42, 0
9, 18320, Note_on_c, 9, 42, 127
9, 18359, Note_on_c, 9, 42, 0
9, 18360, Note_on_c, 9, 42, 112
9, 18439, Note_on_c, 9, 42, 0
9, 18440, Note_on_c, 9, 42, 117
9, 18479, Note_on_c, 9, 42, 0
9, 18480, Note_on_c, 9, 42, 112
9, 18559, Note_on_c, 9, 42, 0
9, 18560, Note_on_c, 9, 42, 119
9, 18599, Note_on_c, 9, 42, 0
9, 18600, Note_on_c, 9, 42, 123
9, 18679, Note_on_c, 9, 42, 0
9, 18680, Note_on_c, 9, 42, 112
9, 18719, Note_on_c, 9, 42, 0
9, 18720, Note_on_c, 9, 42, 123
9, 18799, Note_on_c, 9, 42, 0
9, 18800, Note_on_c, 9, 42, 127
9, 18839, Note_on_c, 9, 42, 0
9, 18840, Note_on_c, 9, 42, 112
9, 18919, Note_on_c, 9, 42, 0
9, 18920, Note_on_c, 9, 42, 117
9, 18959, Note_on_c, 9, 42, 0
9, 18960, Note_on_c, 9, 42, 112
9, 19039, Note_on_c, 9, 42, 0
9, 19040, Note_on_c, 9, 42, 119
9, 19079, Note_on_c, 9, 42, 0
9, 19080, Note_on_c, 9, 42, 123
9, 19159, Note_on_c, 9, 42, 0
9, 19160, Note_on_c, 9, 42, 112
9, 19199, Note_on_c, 9, 42, 0
9, 19200, Note_on_c, 9, 42, 123
9, 19279, Note_on_c, 9, 42, 0
9, 19280, Note_on_c, 9, 42, 127
9, 19319, Note_on_c, 9, 42, 0
9, 19320, Note_on_c, 9, 42, 112
9, 19399, Note_on_c, 9, 42, 0
9, 19400, Note_on_c, 9, 42, 117
9, 19439, Note_on_c, 9, 42, 0
9, 19440, Note_on_c, 9, 42, 112
9, 19519, Note_on_c, 9, 42, 0
9, 19520, Note_on_c, 9, 42, 119
9, 19559, Note_on_c, 9, 42, 0
9, 19560, Note_on_c, 9, 42, 123
9, 19639, Note_on_c, 9, 42, 0
9, 19640, Note_on_c, 9, 42, 112
9, 19679, Note_on_c, 9, 42, 0
9, 19680, Note_on_c, 9, 42, 123
9, 19759, Note_on_c, 9, 42, 0
9, 19760, Note_on_c, 9, 42, 127
9, 19799, Note_on_c, 9, 42, 0
9, 19800, Note_on_c, 9, 42, 112
9, 19879, Note_on_c, 9, 42, 0
9, 19880, Note_on_c, 9, 42, 117
9, 19919, Note_on_c, 9, 42, 0
9, 19920, Note_on_c, 9, 42, 112
9, 19999, Note_on_c, 9, 42, 0
9, 20000, Note_on_c, 9, 42, 119
9, 20039, Note_on_c, 9, 42, 0
9, 20040, Note_on_c, 9, 42, 123
9, 20119, Note_on_c, 9, 42, 0
9, 20120, Note_on_c, 9, 42, 112
9, 20159, Note_on_c, 9, 42, 0
9, 20160, Note_on_c, 9, 42, 123
9, 20239, Note_on_c, 9, 42, 0
9, 20240, Note_on_c, 9, 42, 127
9, 20279, Note_on_c, 9, 42, 0
9, 20280, Note_on_c, 9, 42, 112
9, 20359, Note_on_c, 9, 42, 0
9, 20360, Note_on_c, 9, 42, 117
9, 20399, Note_on_c, 9, 42, 0
9, 20400, Note_on_c, 9, 42, 112
9, 20479, Note_on_c, 9, 42, 0
9, 20480, Note_on_c, 9, 42, 119
9, 20519, Note_on_c, 9, 42, 0
9, 20520, Note_on_c, 9, 42, 123
9, 20599, Note_on_c, 9, 42, 0
9, 20600, Note_on_c, 9, 42, 112
9, 20639, Note_on_c, 9, 42, 0
9, 20640, Note_on_c, 9, 42, 123
9, 20719, Note_on_c, 9, 42, 0
9, 20720, Note_on_c, 9, 42, 127
9, 20759, Note_on_c, 9, 42, 0
9, 20760, Note_on_c, 9, 42, 112
9, 20839, Note_on_c, 9, 42, 0
9, 20840, Note_on_c, 9, 42, 117
9, 20879, Note_on_c, 9, 42, 0
9, 20880, Note_on_c, 9, 42, 112
9, 20959, Note_on_c, 9, 42, 0
9, 20960, Note_on_c, 9, 42, 119
9, 20999, Note_on_c, 9, 42, 0
9, 21000, Note_on_c, 9, 42, 123
9, 21079, Note_on_c, 9, 42, 0
9, 21080, Note_on_c, 9, 42, 112
9, 21119, Note_on_c, 9, 42, 0
9, 21120, Note_on_c, 9, 42, 123
9, 21199, Note_on_c, 9, 42, 0
9, 21200, Note_on_c, 9, 42, 127
9, 21239, Note_on_c, 9, 42, 0
9, 21240, Note_on_c, 9, 42, 112
9, 21319, Note_on_c, 9, 42, 0
9, 21320, Note_on_c, 9, 42, 117
9, 21359, Note_on_c, 9, 42, 0
9, 21360, Note_on_c, 9, 42, 112
9, 21439, Note_on_c, 9, 42, 0
9, 21440, Note_on_c, 9, 42, 119
9, 21479, Note_on_c, 9, 42, 0
9, 21480, Note_on_c, 9, 42, 123
9, 21559, Note_on_c, 9, 42, 0
9, 21560, Note_on_c, 9, 42, 112
9, 21599, Note_on_c, 9, 42, 0
9, 21600, Note_on_c, 9, 42, 123
9, 21679, Note_on_c, 9, 42, 0
9, 21680, Note_on_c, 9, 42, 127
9, 21719, Note_on_c, 9, 42, 0
9, 21720, Note_on_c, 9, 42, 112
9, 21799, Note_on_c, 9, 42, 0
9, 21800, Note_on_c, 9, 42, 117
9, 21839, Note_on_c, 9, 42, 0
9, 21840, Note_on_c, 9, 42, 112
9, 21919, Note_on_c, 9, 42, 0
9, 21920, Note_on_c, 9, 42, 119
9, 21959, Note_on_c, 9, 42, 0
9, 21960, Note_on_c, 9, 42, 123
9, 22039, Note_on_c, 9, 42, 0
9, 22040, Note_on_c, 9, 42, 112
9, 22079, Note_on_c, 9, 42, 0
9, 22080, Note_on_c, 9, 42, 123
9, 22159, Note_on_c, 9, 42, 0
9, 22160, Note_on_c, 9, 42, 127
9, 22199, Note_on_c, 9, 42, 0
9, 22200, Note_on_c, 9, 42, 112
9, 22279, Note_on_c, 9, 42, 0
9, 22280, Note_on_c, 9, 42, 117
9, 22319, Note_on_c, 9, 42, 0
9, 22320, Note_on_c, 9, 42, 112
9, 22399, Note_on_c, 9, 42, 0
9, 22400, Note_on_c, 9, 42, 119
9, 22439, Note_on_c, 9, 42, 0
9, 22440, Note_on_c, 9, 42, 123
9, 22519, Note_on_c, 9, 42, 0
9, 22520, Note_on_c, 9, 42, 112
9, 22559, Note_on_c, 9, 42, 0
9, 22560, Note_on_c, 9, 42, 123
9, 22639, Note_on_c, 9, 42, 0
9, 22640, Note_on_c, 9, 42, 127
9, 22679, Note_on_c, 9, 42, 0
9, 22680, Note_on_c, 9, 42, 112
9, 22759, Note_on_c, 9, 42, 0
9, 22760, Note_on_c, 9, 42, 117
9, 22799, Note_on_c, 9, 42, 0
9, 22800, Note_on_c, 9, 42, 112
9, 22879, Note_on_c, 9, 42, 0
9, 22880, Note_on_c, 9, 42, 119
9, 22919, Note_on_c, 9, 42, 0
9, 22920, Note_on_c, 9, 42, 123
9, 22999, Note_on_c, 9, 42, 0
9, 23000, Note_on_c, 9, 42, 112
9, 23039, Note_on_c, 9, 42, 0
9, 23040, Note_on_c, 9, 42, 123
9, 23119, Note_on_c, 9, 42, 0
9, 23120, Note_on_c, 9, 42, 127
9, 23159, Note_on_c, 9, 42, 0
9, 23160, Note_on_c, 9, 42, 112
9, 23239, Note_on_c, 9, 42, 0
9, 23240, Note_on_c, 9, 42, 117
9, 23279, Note_on_c, 9, 42, 0
9, 23280, Note_on_c, 9, 42, 112
9, 23359, Note_on_c, 9, 42, 0
9, 23360, Note_on_c, 9, 42, 119
9, 23399, Note_on_c, 9, 42, 0
9, 23400, Note_on_c, 9, 42, 123
9, 23479, Note_on_c, 9, 42, 0
9, 23480, Note_on_c, 9, 42, 112
9, 23519, Note_on_c, 9, 42, 0
9, 23520, Note_on_c, 9, 42, 123
9, 23599, Note_on_c, 9, 42, 0
9, 23600, Note_on_c, 9, 42, 127
9, 23639, Note_on_c, 9, 42, 0
9, 23640, Note_on_c, 9, 42, 112
9, 23719, Note_on_c, 9, 42, 0
9, 23720, Note_on_c, 9, 42, 117
9, 23759, Note_on_c, 9, 42, 0
9, 23760, Note_on_c, 9, 42, 112
9, 23839, Note_on_c, 9, 42, 0
9, 23840, Note_on_c, 9, 42, 119
9, 23879, Note_on_c, 9, 42, 0
9, 23880, Note_on_c, 9, 42, 123
9, 23959, Note_on_c, 9, 42, 0
9, 23960, Note_on_c, 9, 42, 112
9, 23999, Note_on_c, 9, 42, 0
9, 24000, Note_on_c, 9, 42, 123
9, 24079, Note_on_c, 9, 42, 0
9, 24080, Note_on_c, 9, 42, 127
9, 24119, Note_on_c, 9, 42, 0
9, 24120, Note_on_c, 9, 42, 112
9, 24199, Note_on_c, 9, 42, 0
9, 24200, Note_on_c, 9, 42, 117
9, 24239, Note_on_c, 9, 42, 0
9, 24240, Note_on_c, 9, 42, 112
9, 24319, Note_on_c, 9, 42, 0
9, 24320, Note_on_c, 9, 42, 119
9, 24359, Note_on_c, 9, 42, 0
9, 24360, Note_on_c, 9, 42, 123
9, 24439, Note_on_c, 9, 42, 0
9, 24440, Note_on_c, 9, 42, 112
9, 24479, Note_on_c, 9, 42, 0
9, 24480, Note_on_c, 9, 42, 123
9, 24559, Note_on_c, 9, 42, 0
9, 24560, Note_on_c, 9, 42, 127
9, 24599, Note_on_c, 9, 42, 0
9, 24600, Note_on_c, 9, 42, 112
9, 24679, Note_on_c, 9, 42, 0
9, 24680, Note_on_c, 9, 42, 117
9, 24719, Note_on_c, 9, 42, 0
9, 24720, Note_on_c, 9, 42, 112
9, 24799, Note_on_c, 9, 42, 0
9, 24800, Note_on_c, 9, 42, 119
9, 24839, Note_on_c, 9, 42, 0
9, 24840, Note_on_c, 9, 42, 123
9, 24919, Note_on_c, 9, 42, 0
9, 24920, Note_on_c, 9, 42, 112
9, 24959, Note_on_c, 9, 42, 0
9, 24960, Note_on_c, 9, 42, 123
9, 25039, Note_on_c, 9, 42, 0
9, 25040, Note_on_c, 9, 42, 127
9, 25079, Note_on_c, 9, 42, 0
9, 25080, Note_on_c, 9, 42, 112
9, 25159, Note_on_c, 9, 42, 0
9, 25160, Note_on_c, 9, 42, 117
9, 25199, Note_on_c, 9, 42, 0
9, 25200, Note_on_c, 9, 42, 112
9, 25279, Note_on_c, 9, 42, 0
9, 25280, Note_on_c, 9, 42, 119
9, 25319, Note_on_c, 9, 42, 0
9, 25320, Note_on_c, 9, 42, 123
9, 25399, Note_on_c, 9, 42, 0
9, 25400, Note_on_c, 9, 42, 112
9, 25439, Note_on_c, 9, 42, 0
9, 25440, Note_on_c, 9, 42, 123
9, 25519, Note_on_c, 9, 42, 0
9, 25520, Note_on_c, 9, 42, 127
9, 25559, Note_on_c, 9, 42, 0
9, 25560, Note_on_c, 9, 42, 112
9, 25639, Note_on_c, 9, 42, 0
9, 25640, Note_on_c, 9, 42, 117
9, 25679, Note_on_c, 9, 42, 0
9, 25680, Note_on_c, 9, 42, 112
9, 25759, Note_on_c, 9, 42, 0
9, 25760, Note_on_c, 9, 42, 119
9, 25799, Note_on_c, 9, 42, 0
9, 25800, Note_on_c, 9, 42, 123
9, 25879, Note_on_c, 9, 42, 0
9, 25880, Note_on_c, 9, 42, 112
9, 25919, Note_on_c, 9, 42, 0
9, 25920, Note_on_c, 9, 42, 123
9, 25999, Note_on_c, 9, 42, 0
9, 26000, Note_on_c, 9, 42, 127
9, 26039, Note_on_c, 9, 42, 0
9, 26040, Note_on_c, 9, 42, 112
9, 26119, Note_on_c, 9, 42, 0
9, 26120, Note_on_c, 9, 42, 117
9, 26159, Note_on_c, 9, 42, 0
9, 26160, Note_on_c, 9, 42, 112
9, 26239, Note_on_c, 9, 42, 0
9, 26240, Note_on_c, 9, 42, 119
9, 26279, Note_on_c, 9, 42, 0
9, 26280, Note_on_c, 9, 42, 123
9, 26359, Note_on_c, 9, 42, 0
9, 26360, Note_on_c, 9, 42, 112
9, 26399, Note_on_c, 9, 42, 0
9, 26400, Note_on_c, 9, 42, 123
9, 26479, Note_on_c, 9, 42, 0
9, 26480, Note_on_c, 9, 42, 127
9, 26519, Note_on_c, 9, 42, 0
9, 26520, Note_on_c, 9, 42, 112
9, 26599, Note_on_c, 9, 42, 0
9, 26600, Note_on_c, 9, 42, 117
9, 26639, Note_on_c, 9, 42, 0
9, 26640, Note_on_c, 9, 42, 112
9, 26719, Note_on_c, 9, 42, 0
9, 26720, Note_on_c, 9, 42, 119
9, 26759, Note_on_c, 9, 42, 0
9, 26760, Note_on_c, 9, 42, 123
9, 26839, Note_on_c, 9, 42, 0
9, 26840, Note_on_c, 9, 42, 112
9, 26879, Note_on_c, 9, 42, 0
9, 26880, Note_on_c, 9, 42, 123
9, 26959, Note_on_c, 9, 42, 0
9, 26960, Note_on_c, 9, 42, 127
9, 26999, Note_on_c, 9, 42, 0
9, 27000, Note_on_c, 9, 42, 112
9, 27079, Note_on_c, 9, 42, 0
9, 27080, Note_on_c, 9, 42, 117
9, 27119, Note_on_c, 9, 42, 0
9, 27120, Note_on_c, 9, 42, 112
9, 27199, Note_on_c, 9, 42, 0
9, 27200, Note_on_c, 9, 42, 119
9, 27239, Note_on_c, 9, 42, 0
9, 27240, Note_on_c, 9, 42, 123
9, 27319, Note_on_c, 9, 42, 0
9, 27320, Note_on_c, 9, 42, 112
9, 27359, Note_on_c, 9, 42, 0
9, 27360, Note_on_c, 9, 42, 123
9, 27439, Note_on_c, 9, 42, 0
9, 27440, Note_on_c, 9, 42, 127
9, 27479, Note_on_c, 9, 42, 0
9, 27480, Note_on_c, 9, 42, 112
9, 27559, Note_on_c, 9, 42, 0
9, 27560, Note_on_c, 9, 42, 117
9, 27599, Note_on_c, 9, 42, 0
9, 27600, Note_on_c, 9, 42, 112
9, 27679, Note_on_c, 9, 42, 0
9, 27680, Note_on_c, 9, 42, 119
9, 27719, Note_on_c, 9, 42, 0
9, 27720, Note_on_c, 9, 42, 123
9, 27799, Note_on_c, 9, 42, 0
9, 27800, Note_on_c, 9, 42, 112
9, 27839, Note_on_c, 9, 42, 0
9, 27840, Note_on_c, 9, 42, 123
9, 27919, Note_on_c, 9, 42, 0
9, 27920, Note_on_c, 9, 42, 127
9, 27959, Note_on_c, 9, 42, 0
9, 27960, Note_on_c, 9, 42, 112
9, 28039, Note_on_c, 9, 42, 0
9, 28040, Note_on_c, 9, 42, 117
9, 28079, Note_on_c, 9, 42, 0
9, 28080, Note_on_c, 9, 42, 112
9, 28159, Note_on_c, 9, 42, 0
9, 28160, Note_on_c, 9, 42, 119
9, 28199, Note_on_c, 9, 42, 0
9, 28200, Note_on_c, 9, 42, 123
9, 28279, Note_on_c, 9, 42, 0
9, 28280, Note_on_c, 9, 42, 112
9, 28319, Note_on_c, 9, 42, 0
9, 28320, Note_on_c, 9, 42, 123
9, 28399, Note_on_c, 9, 42, 0
9, 28400, Note_on_c, 9, 42, 127
9, 28439, Note_on_c, 9, 42, 0
9, 28440, Note_on_c, 9, 42, 112
9, 28519, Note_on_c, 9, 42, 0
9, 28520, Note_on_c, 9, 42, 117
9, 28559, Note_on_c, 9, 42, 0
9, 28560, Note_on_c, 9, 42, 112
9, 28639, Note_on_c, 9, 42, 0
9, 28640, Note_on_c, 9, 42, 119
9, 28679, Note_on_c, 9, 42, 0
9, 28680, Note_on_c, 9, 42, 123
9, 28759, Note_on_c, 9, 42, 0
9, 28760, Note_on_c, 9, 42, 112
9, 28799, Note_on_c, 9, 42, 0
9, 28800, Note_on_c, 9, 42, 123
9, 28879, Note_on_c, 9, 42, 0
9, 28880, Note_on_c, 9, 42, 127
9, 28919, Note_on_c, 9, 42, 0
9, 28920, Note_on_c, 9, 42, 112
9, 28999, Note_on_c, 9, 42, 0
9, 29000, Note_on_c, 9, 42, 117
9, 29039, Note_on_c, 9, 42, 0
9, 29040, Note_on_c, 9, 42, 112
9, 29119, Note_on_c, 9, 42, 0
9, 29120, Note_on_c, 9, 42, 119
9, 29159, Note_on_c, 9, 42, 0
9, 29160, Note_on_c, 9, 42, 123
9, 29239, Note_on_c, 9, 42, 0
9, 29240, Note_on_c, 9, 42, 112
9, 29279, Note_on_c, 9, 42, 0
9, 29280, Note_on_c, 9, 42, 123
9, 29359, Note_on_c, 9, 42, 0
9, 29360, Note_on_c, 9, 42, 127
9, 29399, Note_on_c, 9, 42, 0
9, 29400, Note_on_c, 9, 42, 112
9, 29479, Note_on_c, 9, 42, 0
9, 29480, Note_on_c, 9, 42, 117
9, 29519, Note_on_c, 9, 42, 0
9, 29520, Note_on_c, 9, 42, 112
9, 29599, Note_on_c, 9, 42, 0
9, 29600, Note_on_c, 9, 42, 119
9, 29639, Note_on_c, 9, 42, 0
9, 29640, Note_on_c, 9, 42, 123
9, 29719, Note_on_c, 9, 42, 0
9, 29720, Note_on_c, 9, 42, 112
9, 29759, Note_on_c, 9, 42, 0
9, 29760, Note_on_c, 9, 42, 123
9, 29839, Note_on_c, 9, 42, 0
9, 29840, Note_on_c, 9, 42, 127
9, 29879, Note_on_c, 9, 42, 0
9, 29880, Note_on_c, 9, 42, 112
9, 29959, Note_on_c, 9, 42, 0
9, 29960, Note_on_c, 9, 42, 117
9, 29999, Note_on_c, 9, 42, 0
9, 30000, Note_on_c, 9, 42, 112
9, 30079, Note_on_c, 9, 42, 0
9, 30080, Note_on_c, 9, 42, 119
9, 30119, Note_on_c, 9, 42, 0
9, 30120, Note_on_c, 9, 42, 123
9, 30199, Note_on_c, 9, 42, 0
9, 30200, Note_on_c, 9, 42, 112
9, 30239, Note_on_c, 9, 42, 0
9, 30240, Note_on_c, 9, 42, 123
9, 30319, Note_on_c, 9, 42, 0
9, 30320, Note_on_c, 9, 42, 127
9, 30359, Note_on_c, 9, 42, 0
9, 30360, Note_on_c, 9, 42, 112
9, 30439, Note_on_c, 9, 42, 0
9, 30440, Note_on_c, 9, 42, 117
9, 30479, Note_on_c, 9, 42, 0
9, 30480, Note_on_c, 9, 42, 112
9, 30559, Note_on_c, 9, 42, 0
9, 30560, Note_on_c, 9, 42, 119
9, 30599, Note_on_c, 9, 42, 0
9, 30600, Note_on_c, 9, 42, 123
9, 30679, Note_on_c, 9, 42, 0
9, 30680, Note_on_c, 9, 42, 112
9, 30719, Note_on_c, 9, 42, 0
9, 30720, Note_on_c, 9, 42, 123
9, 30799, Note_on_c, 9, 42, 0
9, 30800, Note_on_c, 9, 42, 127
9, 30839, Note_on_c, 9, 42, 0
9, 30840, Note_on_c, 9, 42, 112
9, 30919, Note_on_c, 9, 42, 0
9, 30920, Note_on_c, 9, 42, 117
9, 30959, Note_on_c, 9, 42, 0
9, 30960, Note_on_c, 9, 42, 112
9, 31039, Note_on_c, 9, 42, 0
9, 31040, Note_on_c, 9, 42, 119
9, 31079, Note_on_c, 9, 42, 0
9, 31080, Note_on_c, 9, 42, 123
9, 31159, Note_on_c, 9, 42, 0
9, 31160, Note_on_c, 9, 42, 112
9, 31199, Note_on_c, 9, 42, 0
9, 31200, Note_on_c, 9, 42, 123
9, 31279, Note_on_c, 9, 42, 0
9, 31280, Note_on_c, 9, 42, 127
9, 31319, Note_on_c, 9, 42, 0
9, 31320, Note_on_c, 9, 42, 112
9, 31399, Note_on_c, 9, 42, 0
9, 31400, Note_on_c, 9, 42, 117
9, 31439, Note_on_c, 9, 42, 0
9, 31440, Note_on_c, 9, 42, 112
9, 31519, Note_on_c, 9, 42, 0
9, 31520, Note_on_c, 9, 42, 119
9, 31559, Note_on_c, 9, 42, 0
9, 31560, Note_on_c, 9, 42, 123
9, 31639, Note_on_c, 9, 42, 0
9, 31640, Note_on_c, 9, 42, 112
9, 31679, Note_on_c, 9, 42, 0
9, 31680, Note_on_c, 9, 42, 123
9, 31759, Note_on_c, 9, 42, 0
9, 31760, Note_on_c, 9, 42, 127
9, 31799, Note_on_c, 9, 42, 0
9, 31800, Note_on_c, 9, 42, 112
9, 31879, Note_on_c, 9, 42, 0
9, 31880, Note_on_c, 9, 42, 117
9, 31919, Note_on_c, 9, 42, 0
9, 31920, Note_on_c, 9, 42, 112
9, 31999, Note_on_c, 9, 42, 0
9, 32000, Note_on_c, 9, 42, 119
9, 32039, Note_on_c, 9, 42, 0
9, 32040, Note_on_c, 9, 42, 123
9, 32119, Note_on_c, 9, 42, 0
9, 32120, Note_on_c, 9, 42, 112
9, 32159, Note_on_c, 9, 42, 0
9, 32160, Note_on_c, 9, 42, 123
9, 32239, Note_on_c, 9, 42, 0
9, 32240, Note_on_c, 9, 42, 127
9, 32279, Note_on_c, 9, 42, 0
9, 32280, Note_on_c, 9, 42, 112
9, 32359, Note_on_c, 9, 42, 0
9, 32360, Note_on_c, 9, 42, 117
9, 32399, Note_on_c, 9, 42, 0
9, 32400, Note_on_c, 9, 42, 112
9, 32479, Note_on_c, 9, 42, 0
9, 32480, Note_on_c, 9, 42, 119
9, 32519, Note_on_c, 9, 42, 0
9, 32520, Note_on_c, 9, 42, 123
9, 32599, Note_on_c, 9, 42, 0
9, 32600, Note_on_c, 9, 42, 112
9, 32639, Note_on_c, 9, 42, 0
9, 32640, Note_on_c, 9, 42, 123
9, 32719, Note_on_c, 9, 42, 0
9, 32720, Note_on_c, 9, 42, 127
9, 32759, Note_on_c, 9, 42, 0
9, 32760, Note_on_c, 9, 42, 112
9, 32839, Note_on_c, 9, 42, 0
9, 32840, Note_on_c, 9, 42, 117
9, 32879, Note_on_c, 9, 42, 0
9, 32880, Note_on_c, 9, 42, 112
9, 32959, Note_on_c, 9, 42, 0
9, 32960, Note_on_c, 9, 42, 119
9, 32999, Note_on_c, 9, 42, 0
9, 33000, Note_on_c, 9, 42, 123
9, 33079, Note_on_c, 9, 42, 0
9, 33080, Note_on_c, 9, 42, 112
9, 33119, Note_on_c, 9, 42, 0
9, 33120, Note_on_c, 9, 42, 123
9, 33199, Note_on_c, 9, 42, 0
9, 33200, Note_on_c, 9, 42, 127
9, 33239, Note_on_c, 9, 42, 0
9, 33240, Note_on_c, 9, 42, 112
9, 33319, Note_on_c, 9, 42, 0
9, 33320, Note_on_c, 9, 42, 117
9, 33359, Note_on_c, 9, 42, 0
9, 33360, Note_on_c, 9, 42, 112
9, 33439, Note_on_c, 9, 42, 0
9, 33440, Note_on_c, 9, 42, 119
9, 33479, Note_on_c, 9, 42, 0
9, 33480, Note_on_c, 9, 42, 123
9, 33559, Note_on_c, 9, 42, 0
9, 33560, Note_on_c, 9, 42, 112
9, 33599, Note_on_c, 9, 42, 0
9, 33600, Note_on_c, 9, 42, 123
9, 33679, Note_on_c, 9, 42, 0
9, 33680, Note_on_c, 9, 42, 127
9, 33719, Note_on_c, 9, 42, 0
9, 33720, Note_on_c, 9, 42, 112
9, 33799, Note_on_c, 9, 42, 0
9, 33800, Note_on_c, 9, 42, 117
9, 33839, Note_on_c, 9, 42, 0
9, 33840, Note_on_c, 9, 42, 112
9, 33919, Note_on_c, 9, 42, 0
9, 33920, Note_on_c, 9, 42, 119
9, 33959, Note_on_c, 9, 42, 0
9, 33960, Note_on_c, 9, 42, 123
9, 34039, Note_on_c, 9, 42, 0
9, 34040, Note_on_c, 9, 42, 112
9, 34079, Note_on_c, 9, 42, 0
9, 34080, Note_on_c, 9, 42, 123
9, 34159, Note_on_c, 9, 42, 0
9, 34160, Note_on_c, 9, 42, 127
9, 34199, Note_on_c, 9, 42, 0
9, 34200, Note_on_c, 9, 42, 112
9, 34279, Note_on_c, 9, 42, 0
9, 34280, Note_on_c, 9, 42, 117
9, 34319, Note_on_c, 9, 42, 0
9, 34320, Note_on_c, 9, 42, 112
9, 34399, Note_on_c, 9, 42, 0
9, 34400, Note_on_c, 9, 42, 119
9, 34439, Note_on_c, 9, 42, 0
9, 34440, Note_on_c, 9, 42, 123
9, 34519, Note_on_c, 9, 42, 0
9, 34520, Note_on_c, 9, 42, 112
9, 34559, Note_on_c, 9, 42, 0
9, 34560, Note_on_c, 9, 42, 123
9, 34639, Note_on_c, 9, 42, 0
9, 34640, Note_on_c, 9, 42, 127
9, 34679, Note_on_c, 9, 42, 0
9, 34680, Note_on_c, 9, 42, 112
9, 34759, Note_on_c, 9, 42, 0
9, 34760, Note_on_c, 9, 42, 117
9, 34799, Note_on_c, 9, 42, 0
9, 34800, Note_on_c, 9, 42, 112
9, 34879, Note_on_c, 9, 42, 0
9, 34880, Note_on_c, 9, 42, 119
9, 34919, Note_on_c, 9, 42, 0
9, 34920, Note_on_c, 9, 42, 123
9, 34999, Note_on_c, 9, 42, 0
9, 35000, Note_on_c, 9, 42, 112
9, 35039, Note_on_c, 9, 42, 0
9, 35040, Note_on_c, 9, 42, 123
9, 35119, Note_on_c, 9, 42, 0
9, 35120, Note_on_c, 9, 42, 127
9, 35159, Note_on_c, 9, 42, 0
9, 35160, Note_on_c, 9, 42, 112
9, 35239, Note_on_c, 9, 42, 0
9, 35240, Note_on_c, 9, 42, 117
9, 35279, Note_on_c, 9, 42, 0
9, 35280, Note_on_c, 9, 42, 112
9, 35359, Note_on_c, 9, 42, 0
9, 35360, Note_on_c, 9, 42, 119
9, 35399, Note_on_c, 9, 42, 0
9, 35400, Note_on_c, 9, 42, 123
9, 35479, Note_on_c, 9, 42, 0
9, 35480, Note_on_c, 9, 42, 112
9, 35519, Note_on_c, 9, 42, 0
9, 35520, Note_on_c, 9, 42, 123
9, 35599, Note_on_c, 9, 42, 0
9, 35600, Note_on_c, 9, 42, 127
9, 35639, Note_on_c, 9, 42, 0
9, 35640, Note_on_c, 9, 42, 112
9, 35719, Note_on_c, 9, 42, 0
9, 35720, Note_on_c, 9, 42, 117
9, 35759, Note_on_c, 9, 42, 0
9, 35760, Note_on_c, 9, 42, 112
9, 35839, Note_on_c, 9, 42, 0
9, 35840, Note_on_c, 9, 42, 119
9, 35879, Note_on_c, 9, 42, 0
9, 35880, Note_on_c, 9, 42, 123
9, 35959, Note_on_c, 9, 42, 0
9, 35960, Note_on_c, 9, 42, 112
9, 35999, Note_on_c, 9, 42, 0
9, 36000, Note_on_c, 9, 42, 123
9, 36079, Note_on_c, 9, 42, 0
9, 36080, Note_on_c, 9, 42, 127
9, 36119, Note_on_c, 9, 42, 0
9, 36120, Note_on_c, 9, 42, 112
9, 36199, Note_on_c, 9, 42, 0
9, 36200, Note_on_c, 9, 42, 117
9, 36239, Note_on_c, 9, 42, 0
9, 36240, Note_on_c, 9, 42, 112
9, 36319, Note_on_c, 9, 42, 0
9, 36320, Note_on_c, 9, 42, 119
9, 36359, Note_on_c, 9, 42, 0
9, 36360, Note_on_c, 9, 42, 123
9, 36439, Note_on_c, 9, 42, 0
9, 36440, Note_on_c, 9, 42, 112
9, 36479, Note_on_c, 9, 42, 0
9, 36480, Note_on_c, 9, 42, 123
9, 36559, Note_on_c, 9, 42, 0
9, 36560, Note_on_c, 9, 42, 127
9, 36599, Note_on_c, 9, 42, 0
9, 36600, Note_on_c, 9, 42, 112
9, 36679, Note_on_c, 9, 42, 0
9, 36680, Note_on_c, 9, 42, 117
9, 36719, Note_on_c, 9, 42, 0
9, 36720, Note_on_c, 9, 42, 112
9, 36799, Note_on_c, 9, 42, 0
9, 36800, Note_on_c, 9, 42, 119
9, 36839, Note_on_c, 9, 42, 0
9, 36840, Note_on_c, 9, 42, 123
9, 36919, Note_on_c, 9, 42, 0
9, 36920, Note_on_c, 9, 42, 112
9, 36959, Note_on_c, 9, 42, 0
9, 36960, Note_on_c, 9, 42, 123
9, 37039, Note_on_c, 9, 42, 0
9, 37040, Note_on_c, 9, 42, 127
9, 37079, Note_on_c, 9, 42, 0
9, 37080, Note_on_c, 9, 42, 112
9, 37159, Note_on_c, 9, 42, 0
9, 37160, Note_on_c, 9, 42, 117
9, 37199, Note_on_c, 9, 42, 0
9, 37200, Note_on_c, 9, 42, 112
9, 37279, Note_on_c, 9, 42, 0
9, 37280, Note_on_c, 9, 42, 119
9, 37319, Note_on_c, 9, 42, 0
9, 37320, Note_on_c, 9, 42, 123
9, 37399, Note_on_c, 9, 42, 0
9, 37400, Note_on_c, 9, 42, 112
9, 37439, Note_on_c, 9, 42, 0
9, 37440, Note_on_c, 9, 42, 123
9, 37519, Note_on_c, 9, 42, 0
9, 37520, Note_on_c, 9, 42, 127
9, 37559, Note_on_c, 9, 42, 0
9, 37560, Note_on_c, 9, 42, 112
9, 37639, Note_on_c, 9, 42, 0
9, 37640, Note_on_c, 9, 42, 117
9, 37679, Note_on_c, 9, 42, 0
9, 37680, Note_on_c, 9, 42, 112
9, 37759, Note_on_c, 9, 42, 0
9, 37760, Note_on_c, 9, 42, 119
9, 37799, Note_on_c, 9, 42, 0
9, 37800, Note_on_c, 9, 42, 123
9, 37879, Note_on_c, 9, 42, 0
9, 37880, Note_on_c, 9, 42, 112
9, 37919, Note_on_c, 9, 42, 0
9, 37920, Note_on_c, 9, 42, 123
9, 37999, Note_on_c, 9, 42, 0
9, 38000, Note_on_c, 9, 42, 127
9, 38039, Note_on_c, 9, 42, 0
9, 38040, Note_on_c, 9, 42, 112
9, 38119, Note_on_c, 9, 42, 0
9, 38120, Note_on_c, 9, 42, 117
9, 38159, Note_on_c, 9, 42, 0
9, 38160, Note_on_c, 9, 42, 112
9, 38239, Note_on_c, 9, 42, 0
9, 38240, Note_on_c, 9, 42, 119
9, 38279, Note_on_c, 9, 42, 0
9, 38280, Note_on_c, 9, 42, 123
9, 38359, Note_on_c, 9, 42, 0
9, 38360, Note_on_c, 9, 42, 112
9, 38399, Note_on_c, 9, 42, 0
9, 38400, Note_on_c, 9, 42, 123
9, 38479, Note_on_c, 9, 42, 0
9, 38480, Note_on_c, 9, 42, 127
9, 38519, Note_on_c, 9, 42, 0
9, 38520, Note_on_c, 9, 42, 112
9, 38599, Note_on_c, 9, 42, 0
9, 38600, Note_on_c, 9, 42, 117
9, 38639, Note_on_c, 9, 42, 0
9, 38640, Note_on_c, 9, 42, 112
9, 38719, Note_on_c, 9, 42, 0
9, 38720, Note_on_c, 9, 42, 119
9, 38759, Note_on_c, 9, 42, 0
9, 38760, Note_on_c, 9, 42, 123
9, 38839, Note_on_c, 9, 42, 0
9, 38840, Note_on_c, 9, 42, 112
9, 38879, Note_on_c, 9, 42, 0
9, 38880, Note_on_c, 9, 42, 123
9, 38959, Note_on_c, 9, 42, 0
9, 38960, Note_on_c, 9, 42, 127
9, 38999, Note_on_c, 9, 42, 0
9, 39000, Note_on_c, 9, 42, 112
9, 39079, Note_on_c, 9, 42, 0
9, 39080, Note_on_c, 9, 42, 117
9, 39119, Note_on_c, 9, 42, 0
9, 39120, Note_on_c, 9, 42, 112
9, 39199, Note_on_c, 9, 42, 0
9, 39200, Note_on_c, 9, 42, 119
9, 39239, Note_on_c, 9, 42, 0
9, 39240, Note_on_c, 9, 42, 123
9, 39319, Note_on_c, 9, 42, 0
9, 39320, Note_on_c, 9, 42, 112
9, 39359, Note_on_c, 9, 42, 0
9, 39360, Note_on_c, 9, 42, 123
9, 39439, Note_on_c, 9, 42, 0
9, 39440, Note_on_c, 9, 42, 127
9, 39479, Note_on_c, 9, 42, 0
9, 39480, Note_on_c, 9, 42, 112
9, 39559, Note_on_c, 9, 42, 0
9, 39560, Note_on_c, 9, 42, 117
9, 39599, Note_on_c, 9, 42, 0
9, 39600, Note_on_c, 9, 42, 112
9, 39679, Note_on_c, 9, 42, 0
9, 39680, Note_on_c, 9, 42, 119
9, 39719, Note_on_c, 9, 42, 0
9, 39720, Note_on_c, 9, 42, 123
9, 39799, Note_on_c, 9, 42, 0
9, 39800, Note_on_c, 9, 42, 112
9, 39839, Note_on_c, 9, 42, 0
9, 39840, Note_on_c, 9, 42, 123
9, 39919, Note_on_c, 9, 42, 0
9, 39920, Note_on_c, 9, 42, 127
9, 39959, Note_on_c, 9, 42, 0
9, 39960, Note_on_c, 9, 42, 112
9, 40039, Note_on_c, 9, 42, 0
9, 40040, Note_on_c, 9, 42, 117
9, 40079, Note_on_c, 9, 42, 0
9, 40080, Note_on_c, 9, 42, 112
9, 40159, Note_on_c, 9, 42, 0
9, 40160, Note_on_c, 9, 42, 119
9, 40199, Note_on_c, 9, 42, 0
9, 40200, Note_on_c, 9, 42, 123
9, 40279, Note_on_c, 9, 42, 0
9, 40280, Note_on_c, 9, 42, 112
9, 40319, Note_on_c, 9, 42, 0
9, 40320, Note_on_c, 9, 42, 123
9, 40399, Note_on_c, 9, 42, 0
9, 40400, Note_on_c, 9, 42, 127
9, 40439, Note_on_c, 9, 42, 0
9, 40440, Note_on_c, 9, 42, 112
9, 40519, Note_on_c, 9, 42, 0
9, 40520, Note_on_c, 9, 42, 117
9, 40559, Note_on_c, 9, 42, 0
9, 40560, Note_on_c, 9, 42, 112
9, 40639, Note_on_c, 9, 42, 0
9, 40640, Note_on_c, 9, 42, 119
9, 40679, Note_on_c, 9, 42, 0
9, 40680, Note_on_c, 9, 42, 123
9, 40759, Note_on_c, 9, 42, 0
9, 40760, Note_on_c, 9, 42, 112
9, 40799, Note_on_c, 9, 42, 0
9, 40800, Note_on_c, 9, 42, 123
9, 40879, Note_on_c, 9, 42, 0
9, 40880, Note_on_c, 9, 42, 127
9, 40919, Note_on_c, 9, 42, 0
9, 40920, Note_on_c, 9, 42, 112
9, 40999, Note_on_c, 9, 42, 0
9, 41000, Note_on_c, 9, 42, 117
9, 41039, Note_on_c, 9, 42, 0
9, 41040, Note_on_c, 9, 42, 112
9, 41119, Note_on_c, 9, 42, 0
9, 41120, Note_on_c, 9, 42, 119
9, 41159, Note_on_c, 9, 42, 0
9, 41160, Note_on_c, 9, 42, 123
9, 41239, Note_on_c, 9, 42, 0
9, 41240, Note_on_c, 9, 42, 112
9, 41279, Note_on_c, 9, 42, 0
9, 41280, Note_on_c, 9, 42, 123
9, 41359, Note_on_c, 9, 42, 0
9, 41360, Note_on_c, 9, 42, 127
9, 41399, Note_on_c, 9, 42, 0
9, 41400, Note_on_c, 9, 42, 112
9, 41479, Note_on_c, 9, 42, 0
9, 41480, Note_on_c, 9, 42, 117
9, 41519, Note_on_c, 9, 42, 0
9, 41520, Note_on_c, 9, 42, 112
9, 41599, Note_on_c, 9, 42, 0
9, 41600, Note_on_c, 9, 42, 119
9, 41639, Note_on_c, 9, 42, 0
9, 41640, Note_on_c, 9, 42, 123
9, 41719, Note_on_c, 9, 42, 0
9, 41720, Note_on_c, 9, 42, 112
9, 41759, Note_on_c, 9, 42, 0
9, 41760, Note_on_c, 9, 42, 123
9, 41839, Note_on_c, 9, 42, 0
9, 41840, Note_on_c, 9, 42, 127
9, 41879, Note_on_c, 9, 42, 0
9, 41880, Note_on_c, 9, 42, 112
9, 41959, Note_on_c, 9, 42, 0
9, 41960, Note_on_c, 9, 42, 117
9, 41999, Note_on_c, 9, 42, 0
9, 42000, Note_on_c, 9, 42, 112
9, 42079, Note_on_c, 9, 42, 0
9, 42080, Note_on_c, 9, 42, 119
9, 42119, Note_on_c, 9, 42, 0
9, 42120, Note_on_c, 9, 42, 123
9, 42199, Note_on_c, 9, 42, 0
9, 42200, Note_on_c, 9, 42, 112
9, 42239, Note_on_c, 9, 42, 0
9, 42240, Note_on_c, 9, 42, 123
9, 42319, Note_on_c, 9, 42, 0
9, 42320, Note_on_c, 9, 42, 127
9, 42359, Note_on_c, 9, 42, 0
9, 42360, Note_on_c, 9, 42, 112
9, 42439, Note_on_c, 9, 42, 0
9, 42440, Note_on_c, 9, 42, 117
9, 42479, Note_on_c, 9, 42, 0
9, 42480, Note_on_c, 9, 42, 112
9, 42559, Note_on_c, 9, 42, 0
9, 42560, Note_on_c, 9, 42, 119
9, 42599, Note_on_c, 9, 42, 0
9, 42600, Note_on_c, 9, 42, 123
9, 42679, Note_on_c, 9, 42, 0
9, 42680, Note_on_c, 9, 42, 112
9, 42719, Note_on_c, 9, 42, 0
9, 42720, Note_on_c, 9, 42, 123
9, 42799, Note_on_c, 9, 42, 0
9, 42800, Note_on_c, 9, 42, 127
9, 42839, Note_on_c, 9, 42, 0
9, 42840, Note_on_c, 9, 42, 112
9, 42919, Note_on_c, 9, 42, 0
9, 42920, Note_on_c, 9, 42, 117
9, 42959, Note_on_c, 9, 42, 0
9, 42960, Note_on_c, 9, 42, 112
9, 43039, Note_on_c, 9, 42, 0
9, 43040, Note_on_c, 9, 42, 119
9, 43079, Note_on_c, 9, 42, 0
9, 43080, Note_on_c, 9, 42, 123
9, 43159, Note_on_c, 9, 42, 0
9, 43160, Note_on_c, 9, 42, 112
9, 43199, Note_on_c, 9, 42, 0
9, 43200, Note_on_c, 9, 42, 123
9, 43279, Note_on_c, 9, 42, 0
9, 43280, Note_on_c, 9, 42, 127
9, 43319, Note_on_c, 9, 42, 0
9, 43320, Note_on_c, 9, 42, 112
9, 43399, Note_on_c, 9, 42, 0
9, 43400, Note_on_c, 9, 42, 117
9, 43439, Note_on_c, 9, 42, 0
9, 43440, Note_on_c, 9, 42, 112
9, 43519, Note_on_c, 9, 42, 0
9, 43520, Note_on_c, 9, 42, 119
9, 43559, Note_on_c, 9, 42, 0
9, 43560, Note_on_c, 9, 42, 123
9, 43639, Note_on_c, 9, 42, 0
9, 43640, Note_on_c, 9, 42, 112
9, 43679, Note_on_c, 9, 42, 0
9, 43680, Note_on_c, 9, 42, 123
9, 43759, Note_on_c, 9, 42, 0
9, 43760, Note_on_c, 9, 42, 127
9, 43799, Note_on_c, 9, 42, 0
9, 43800, Note_on_c, 9, 42, 112
9, 43879, Note_on_c, 9, 42, 0
9, 43880, Note_on_c, 9, 42, 117
9, 43919, Note_on_c, 9, 42, 0
9, 43920, Note_on_c, 9, 42, 112
9, 43999, Note_on_c, 9, 42, 0
9, 44000, Note_on_c, 9, 42, 119
9, 44039, Note_on_c, 9, 42, 0
9, 44040, Note_on_c, 9, 42, 123
9, 44119, Note_on_c, 9, 42, 0
9, 44120, Note_on_c, 9, 42, 112
9, 44159, Note_on_c, 9, 42, 0
9, 44160, Note_on_c, 9, 42, 123
9, 44239, Note_on_c, 9, 42, 0
9, 44240, Note_on_c, 9, 42, 127
9, 44279, Note_on_c, 9, 42, 0
9, 44280, Note_on_c, 9, 42, 112
9, 44359, Note_on_c, 9, 42, 0
9, 44360, Note_on_c, 9, 42, 117
9, 44399, Note_on_c, 9, 42, 0
9, 44400, Note_on_c, 9, 42, 112
9, 44479, Note_on_c, 9, 42, 0
9, 44480, Note_on_c, 9, 42, 119
9, 44519, Note_on_c, 9, 42, 0
9, 44520, Note_on_c, 9, 42, 123
9, 44599, Note_on_c, 9, 42, 0
9, 44600, Note_on_c, 9, 42, 112
9, 44639, Note_on_c, 9, 42, 0
9, 44640, Note_on_c, 9, 42, 123
9, 44719, Note_on_c, 9, 42, 0
9, 44720, Note_on_c, 9, 42, 127
9, 44759, Note_on_c, 9, 42, 0
9, 44760, Note_on_c, 9, 42, 112
9, 44839, Note_on_c, 9, 42, 0
9, 44840, Note_on_c, 9, 42, 117
9, 44879, Note_on_c, 9, 42, 0
9, 44880, Note_on_c, 9, 42, 112
9, 44959, Note_on_c, 9, 42, 0
9, 44960, Note_on_c, 9, 42, 119
9, 44999, Note_on_c, 9, 42, 0
9, 45000, Note_on_c, 9, 42, 123
9, 45079, Note_on_c, 9, 42, 0
9, 45080, Note_on_c, 9, 42, 112
9, 45119, Note_on_c, 9, 42, 0
9, 45120, Note_on_c, 9, 42, 123
9, 45199, Note_on_c, 9, 42, 0
9, 45200, Note_on_c, 9, 42, 127
9, 45239, Note_on_c, 9, 42, 0
9, 45240, Note_on_c, 9, 42, 112
9, 45319, Note_on_c, 9, 42, 0
9, 45320, Note_on_c, 9, 42, 117
9, 45359, Note_on_c, 9, 42, 0
9, 45360, Note_on_c, 9, 42, 112
9, 45439, Note_on_c, 9, 42, 0
9, 45440, Note_on_c, 9, 42, 119
9, 45479, Note_on_c, 9, 42, 0
9, 45480, Note_on_c, 9, 42, 123
9, 45559, Note_on_c, 9, 42, 0
9, 45560, Note_on_c, 9, 42, 112
9, 45599, Note_on_c, 9, 42, 0
9, 45600, Note_on_c, 9, 42, 123
9, 45679, Note_on_c, 9, 42, 0
9, 45680, Note_on_c, 9, 42, 127
9, 45719, Note_on_c, 9, 42, 0
9, 45720, Note_on_c, 9, 42, 112
9, 45799, Note_on_c, 9, 42, 0
9, 45800, Note_on_c, 9, 42, 117
9, 45839, Note_on_c, 9, 42, 0
9, 45840, Note_on_c, 9, 42, 112
9, 45919, Note_on_c, 9, 42, 0
9, 45920, Note_on_c, 9, 42, 119
9, 45959, Note_on_c, 9, 42, 0
9, 45960, Note_on_c, 9, 42, 123
9, 46039, Note_on_c, 9, 42, 0
9, 46040, Note_on_c, 9, 42, 112
9, 46079, Note_on_c, 9, 42, 0
9, 46080, Note_on_c, 9, 42, 123
9, 46159, Note_on_c, 9, 42, 0
9, 46160, Note_on_c, 9, 42, 127
9, 46199, Note_on_c, 9, 42, 0
9, 46200, Note_on_c, 9, 42, 112
9, 46279, Note_on_c, 9, 42, 0
9, 46280, Note_on_c, 9, 42, 117
9, 46319, Note_on_c, 9, 42, 0
9, 46320, Note_on_c, 9, 42, 112
9, 46399, Note_on_c, 9, 42, 0
9, 46400, Note_on_c, 9, 42, 119
9, 46439, Note_on_c, 9, 42, 0
9, 46440, Note_on_c, 9, 42, 123
9, 46519, Note_on_c, 9, 42, 0
9, 46520, Note_on_c, 9, 42, 112
9, 46559, Note_on_c, 9, 42, 0
9, 46560, Note_on_c, 9, 42, 123
9, 46639, Note_on_c, 9, 42, 0
9, 46640, Note_on_c, 9, 42, 127
9, 46679, Note_on_c, 9, 42, 0
9, 46680, Note_on_c, 9, 42, 112
9, 46759, Note_on_c, 9, 42, 0
9, 46760, Note_on_c, 9, 42, 117
9, 46799, Note_on_c, 9, 42, 0
9, 46800, Note_on_c, 9, 42, 112
9, 46879, Note_on_c, 9, 42, 0
9, 46880, Note_on_c, 9, 42, 119
9, 46919, Note_on_c, 9, 42, 0
9, 46920, Note_on_c, 9, 42, 123
9, 46999, Note_on_c, 9, 42, 0
9, 47000, Note_on_c, 9, 42, 112
9, 47039, Note_on_c, 9, 42, 0
9, 47040, Note_on_c, 9, 42, 123
9, 47119, Note_on_c, 9, 42, 0
9, 47120, Note_on_c, 9, 42, 127
9, 47159, Note_on_c, 9, 42, 0
9, 47160, Note_on_c, 9, 42, 112
9, 47239, Note_on_c, 9, 42, 0
9, 47240, Note_on_c, 9, 42, 117
9, 47279, Note_on_c, 9, 42, 0
9, 47280, Note_on_c, 9, 42, 112
9, 47359, Note_on_c, 9, 42, 0
9, 47360, Note_on_c, 9, 42, 119
9, 47399, Note_on_c, 9, 42, 0
9, 47400, Note_on_c, 9, 42, 123
9, 47479, Note_on_c, 9, 42, 0
9, 47480, Note_on_c, 9, 42, 112
9, 47519, Note_on_c, 9, 42, 0
9, 47520, Note_on_c, 9, 42, 123
9, 47599, Note_on_c, 9, 42, 0
9, 47600, Note_on_c, 9, 42, 127
9, 47639, Note_on_c, 9, 42, 0
9, 47640, Note_on_c, 9, 42, 112
9, 47719, Note_on_c, 9, 42, 0
9, 47720, Note_on_c, 9, 42, 117
9, 47759, Note_on_c, 9, 42, 0
9, 47760, Note_on_c, 9, 42, 112
9, 47839, Note_on_c, 9, 42, 0
9, 47840, Note_on_c, 9, 42, 119
9, 47879, Note_on_c, 9, 42, 0
9, 47880, Note_on_c, 9, 42, 123
9, 47959, Note_on_c, 9, 42, 0
9, 47960, Note_on_c, 9, 42, 112
9, 47999, Note_on_c, 9, 42, 0
9, 48000, Note_on_c, 9, 42, 123
9, 48079, Note_on_c, 9, 42, 0
9, 48080, Note_on_c, 9, 42, 127
9, 48119, Note_on_c, 9, 42, 0
9, 48120, Note_on_c, 9, 42, 112
9, 48199, Note_on_c, 9, 42, 0
9, 48200, Note_on_c, 9, 42, 117
9, 48239, Note_on_c, 9, 42, 0
9, 48240, Note_on_c, 9, 42, 112
9, 48319, Note_on_c, 9, 42, 0
9, 48320, Note_on_c, 9, 42, 119
9, 48359, Note_on_c, 9, 42, 0
9, 48360, Note_on_c, 9, 42, 123
9, 48439, Note_on_c, 9, 42, 0
9, 48440, Note_on_c, 9, 42, 112
9, 48479, Note_on_c, 9, 42, 0
9, 48480, Note_on_c, 9, 42, 123
9, 48559, Note_on_c, 9, 42, 0
9, 48560, Note_on_c, 9, 42, 127
9, 48599, Note_on_c, 9, 42, 0
9, 48600, Note_on_c, 9, 42, 112
9, 48679, Note_on_c, 9, 42, 0
9, 48680, Note_on_c, 9, 42, 117
9, 48719, Note_on_c, 9, 42, 0
9, 48720, Note_on_c, 9, 42, 112
9, 48799, Note_on_c, 9, 42, 0
9, 48800, Note_on_c, 9, 42, 119
9, 48839, Note_on_c, 9, 42, 0
9, 48840, Note_on_c, 9, 42, 123
9, 48919, Note_on_c, 9, 42, 0
9, 48920, Note_on_c, 9, 42, 112
9, 48959, Note_on_c, 9, 42, 0
9, 48960, Note_on_c, 9, 42, 123
9, 49039, Note_on_c, 9, 42, 0
9, 49040, Note_on_c, 9, 42, 127
9, 49079, Note_on_c, 9, 42, 0
9, 49080, Note_on_c, 9, 42, 112
9, 49159, Note_on_c, 9, 42, 0
9, 49160, Note_on_c, 9, 42, 117
9, 49199, Note_on_c, 9, 42, 0
9, 49200, Note_on_c, 9, 42, 112
9, 49279, Note_on_c, 9, 42, 0
9, 49280, Note_on_c, 9, 42, 119
9, 49319, Note_on_c, 9, 42, 0
9, 49320, Note_on_c, 9, 42, 123
9, 49399, Note_on_c, 9, 42, 0
9, 49400, Note_on_c, 9, 42, 112
9, 49439, Note_on_c, 9, 42, 0
9, 49440, Note_on_c, 9, 42, 123
9, 49519, Note_on_c, 9, 42, 0
9, 49520, Note_on_c, 9, 42, 127
9, 49559, Note_on_c, 9, 42, 0
9, 49560, Note_on_c, 9, 42, 112
9, 49639, Note_on_c, 9, 42, 0
9, 49640, Note_on_c, 9, 42, 117
9, 49679, Note_on_c, 9, 42, 0
9, 49680, Note_on_c, 9, 42, 112
9, 49759, Note_on_c, 9, 42, 0
9, 49760, Note_on_c, 9, 42, 119
9, 49799, Note_on_c, 9, 42, 0
9, 49800, Note_on_c, 9, 42, 123
9, 49879, Note_on_c, 9, 42, 0
9, 49880, Note_on_c, 9, 42, 112
9, 49919, Note_on_c, 9, 42, 0
9, 49920, Note_on_c, 9, 42, 123
9, 49999, Note_on_c, 9, 42, 0
9, 50000, Note_on_c, 9, 42, 127
9, 50039, Note_on_c, 9, 42, 0
9, 50040, Note_on_c, 9, 42, 112
9, 50119, Note_on_c, 9, 42, 0
9, 50120, Note_on_c, 9, 42, 117
9, 50159, Note_on_c, 9, 42, 0
9, 50160, Note_on_c, 9, 42, 112
9, 50239, Note_on_c, 9, 42, 0
9, 50240, Note_on_c, 9, 42, 119
9, 50279, Note_on_c, 9, 42, 0
9, 50280, Note_on_c, 9, 42, 123
9, 50359, Note_on_c, 9, 42, 0
9, 50360, Note_on_c, 9, 42, 112
9, 50399, Note_on_c, 9, 42, 0
9, 50400, Note_on_c, 9, 42, 123
9, 50479, Note_on_c, 9, 42, 0
9, 50480, Note_on_c, 9, 42, 127
9, 50519, Note_on_c, 9, 42, 0
9, 50520, Note_on_c, 9, 42, 112
9, 50599, Note_on_c, 9, 42, 0
9, 50600, Note_on_c, 9, 42, 117
9, 50639, Note_on_c, 9, 42, 0
9, 50640, Note_on_c, 9, 42, 112
9, 50719, Note_on_c, 9, 42, 0
9, 50720, Note_on_c, 9, 42, 119
9, 50759, Note_on_c, 9, 42, 0
9, 50760, Note_on_c, 9, 42, 123
9, 50839, Note_on_c, 9, 42, 0
9, 50840, Note_on_c, 9, 42, 112
9, 50879, Note_on_c, 9, 42, 0
9, 50880, Note_on_c, 9, 42, 123
9, 50959, Note_on_c, 9, 42, 0
9, 50960, Note_on_c, 9, 42, 127
9, 50999, Note_on_c, 9, 42, 0
9, 51000, Note_on_c, 9, 42, 112
9, 51079, Note_on_c, 9, 42, 0
9, 51080, Note_on_c, 9, 42, 117
9, 51119, Note_on_c, 9, 42, 0
9, 51120, Note_on_c, 9, 42, 112
9, 51199, Note_on_c, 9, 42, 0
9, 51200, Note_on_c, 9, 42, 119
9, 51239, Note_on_c, 9, 42, 0
9, 51240, Note_on_c, 9, 42, 123
9, 51319, Note_on_c, 9, 42, 0
9, 51320, Note_on_c, 9, 42, 112
9, 51359, Note_on_c, 9, 42, 0
9, 51360, Note_on_c, 9, 42, 123
9, 51439, Note_on_c, 9, 42, 0
9, 51440, Note_on_c, 9, 42, 127
9, 51479, Note_on_c, 9, 42, 0
9, 51480, Note_on_c, 9, 42, 112
9, 51559, Note_on_c, 9, 42, 0
9, 51560, Note_on_c, 9, 42, 117
9, 51599, Note_on_c, 9, 42, 0
9, 51600, Note_on_c, 9, 42, 112
9, 51679, Note_on_c, 9, 42, 0
9, 51680, Note_on_c, 9, 42, 119
9, 51719, Note_on_c, 9, 42, 0
9, 51720, Note_on_c, 9, 42, 123
9, 51799, Note_on_c, 9, 42, 0
9, 51800, Note_on_c, 9, 42, 112
9, 51839, Note_on_c, 9, 42, 0
9, 51840, Note_on_c, 9, 42, 123
9, 51919, Note_on_c, 9, 42, 0
9, 51920, Note_on_c, 9, 42, 127
9, 51959, Note_on_c, 9, 42, 0
9, 51960, Note_on_c, 9, 42, 112
9, 52039, Note_on_c, 9, 42, 0
9, 52040, Note_on_c, 9, 42, 117
9, 52079, Note_on_c, 9, 42, 0
9, 52080, Note_on_c, 9, 42, 112
9, 52159, Note_on_c, 9, 42, 0
9, 52160, Note_on_c, 9, 42, 119
9, 52199, Note_on_c, 9, 42, 0
9, 52200, Note_on_c, 9, 42, 123
9, 52279, Note_on_c, 9, 42, 0
9, 52280, Note_on_c, 9, 42, 112
9, 52319, Note_on_c, 9, 42, 0
9, 52320, Note_on_c, 9, 42, 123
9, 52399, Note_on_c, 9, 42, 0
9, 52400, Note_on_c, 9, 42, 127
9, 52439, Note_on_c, 9, 42, 0
9, 52440, Note_on_c, 9, 42, 112
9, 52519, Note_on_c, 9, 42, 0
9, 52520, Note_on_c, 9, 42, 117
9, 52559, Note_on_c, 9, 42, 0
9, 52560, Note_on_c, 9, 42, 112
9, 52639, Note_on_c, 9, 42, 0
9, 52640, Note_on_c, 9, 42, 119
9, 52679, Note_on_c, 9, 42, 0
9, 52680, Note_on_c, 9, 42, 123
9, 52759, Note_on_c, 9, 42, 0
9, 52760, Note_on_c, 9, 42, 112
9, 52799, Note_on_c, 9, 42, 0
9, 52800, Note_on_c, 9, 42, 123
9, 52879, Note_on_c, 9, 42, 0
9, 52880, Note_on_c, 9, 42, 127
9, 52919, Note_on_c, 9, 42, 0
9, 52920, Note_on_c, 9, 42, 112
9, 52999, Note_on_c, 9, 42, 0
9, 53000, Note_on_c, 9, 42, 117
9, 53039, Note_on_c, 9, 42, 0
9, 53040, Note_on_c, 9, 42, 112
9, 53119, Note_on_c, 9, 42, 0
9, 53120, Note_on_c, 9, 42, 119
9, 53159, Note_on_c, 9, 42, 0
9, 53160, Note_on_c, 9, 42, 123
9, 53239, Note_on_c, 9, 42, 0
9, 53240, Note_on_c, 9, 42, 112
9, 53279, Note_on_c, 9, 42, 0
9, 53280, Note_on_c, 9, 42, 123
9, 53359, Note_on_c, 9, 42, 0
9, 53360, Note_on_c, 9, 42, 127
9, 53399, Note_on_c, 9, 42, 0
9, 53400, Note_on_c, 9, 42, 112
9, 53479, Note_on_c, 9, 42, 0
9, 53480, Note_on_c, 9, 42, 117
9, 53519, Note_on_c, 9, 42, 0
9, 53520, Note_on_c, 9, 42, 112
9, 53599, Note_on_c, 9, 42, 0
9, 53600, Note_on_c, 9, 42, 119
9, 53639, Note_on_c, 9, 42, 0
9, 53640, Note_on_c, 9, 42, 123
9, 53719, Note_on_c, 9, 42, 0
9, 53720, Note_on_c, 9, 42, 112
9, 53759, Note_on_c, 9, 42, 0
9, 53760, Note_on_c, 9, 42, 123
9, 53839, Note_on_c, 9, 42, 0
9, 53840, Note_on_c, 9, 42, 127
9, 53879, Note_on_c, 9, 42, 0
9, 53880, Note_on_c, 9, 42, 112
9, 53959, Note_on_c, 9, 42, 0
9, 53960, Note_on_c, 9, 42, 117
9, 53999, Note_on_c, 9, 42, 0
9, 54000, Note_on_c, 9, 42, 112
9, 54079, Note_on_c, 9, 42, 0
9, 54080, Note_on_c, 9, 42, 119
9, 54119, Note_on_c, 9, 42, 0
9, 54120, Note_on_c, 9, 42, 123
9, 54199, Note_on_c, 9, 42, 0
9, 54200, Note_on_c, 9, 42, 112
9, 54239, Note_on_c, 9, 42, 0
9, 54240, Note_on_c, 9, 42, 123
9, 54319, Note_on_c, 9, 42, 0
9, 54320, Note_on_c, 9, 42, 127
9, 54359, Note_on_c, 9, 42, 0
9, 54360, Note_on_c, 9, 42, 112
9, 54439, Note_on_c, 9, 42, 0
9, 54440, Note_on_c, 9, 42, 117
9, 54479, Note_on_c, 9, 42, 0
9, 54480, Note_on_c, 9, 42, 112
9, 54559, Note_on_c, 9, 42, 0
9, 54560, Note_on_c, 9, 42, 119
9, 54599, Note_on_c, 9, 42, 0
9, 54600, Note_on_c, 9, 42, 123
9, 54679, Note_on_c, 9, 42, 0
9, 54680, Note_on_c, 9, 42, 112
9, 54719, Note_on_c, 9, 42, 0
9, 54720, Note_on_c, 9, 42, 123
9, 54799, Note_on_c, 9, 42, 0
9, 54800, Note_on_c, 9, 42, 127
9, 54839, Note_on_c, 9, 42, 0
9, 54840, Note_on_c, 9, 42, 112
9, 54919, Note_on_c, 9, 42, 0
9, 54920, Note_on_c, 9, 42, 117
9, 54959, Note_on_c, 9, 42, 0
9, 54960, Note_on_c, 9, 42, 112
9, 55039, Note_on_c, 9, 42, 0
9, 55040, Note_on_c, 9, 42, 119
9, 55079, Note_on_c, 9, 42, 0
9, 55080, Note_on_c, 9, 42, 123
9, 55159, Note_on_c, 9, 42, 0
9, 55160, Note_on_c, 9, 42, 112
9, 55199, Note_on_c, 9, 42, 0
9, 55200, Note_on_c, 9, 42, 123
9, 55279, Note_on_c, 9, 42, 0
9, 55280, Note_on_c, 9, 42, 127
9, 55319, Note_on_c, 9, 42, 0
9, 55320, Note_on_c, 9, 42, 112
9, 55399, Note_on_c, 9, 42, 0
9, 55400, Note_on_c, 9, 42, 117
9, 55439, Note_on_c, 9, 42, 0
9, 55440, Note_on_c, 9, 42, 112
9, 55519, Note_on_c, 9, 42, 0
9, 55520, Note_on_c, 9, 42, 119
9, 55559, Note_on_c, 9, 42, 0
9, 55560, Note_on_c, 9, 42, 123
9, 55639, Note_on_c, 9, 42, 0
9, 55640, Note_on_c, 9, 42, 112
9, 55679, Note_on_c, 9, 42, 0
9, 55680, Note_on_c, 9, 42, 123
9, 55759, Note_on_c, 9, 42, 0
9, 55760, Note_on_c, 9, 42, 127
9, 55799, Note_on_c, 9, 42, 0
9, 55800, Note_on_c, 9, 42, 112
9, 55879, Note_on_c, 9, 42, 0
9, 55880, Note_on_c, 9, 42, 117
9, 55919, Note_on_c, 9, 42, 0
9, 55920, Note_on_c, 9, 42, 112
9, 55999, Note_on_c, 9, 42, 0
9, 56000, Note_on_c, 9, 42, 119
9, 56039, Note_on_c, 9, 42, 0
9, 56040, Note_on_c, 9, 42, 123
9, 56119, Note_on_c, 9, 42, 0
9, 56120, Note_on_c, 9, 42, 112
9, 56159, Note_on_c, 9, 42, 0
9, 56160, Note_on_c, 9, 42, 123
9, 56239, Note_on_c, 9, 42, 0
9, 56240, Note_on_c, 9, 42, 127
9, 56279, Note_on_c, 9, 42, 0
9, 56280, Note_on_c, 9, 42, 112
9, 56359, Note_on_c, 9, 42, 0
9, 56360, Note_on_c, 9, 42, 117
9, 56399, Note_on_c, 9, 42, 0
9, 56400, Note_on_c, 9, 42, 112
9, 56479, Note_on_c, 9, 42, 0
9, 56480, Note_on_c, 9, 42, 119
9, 56519, Note_on_c, 9, 42, 0
9, 56520, Note_on_c, 9, 42, 123
9, 56599, Note_on_c, 9, 42, 0
9, 56600, Note_on_c, 9, 42, 112
9, 56639, Note_on_c, 9, 42, 0
9, 56640, Note_on_c, 9, 42, 123
9, 56719, Note_on_c, 9, 42, 0
9, 56720, Note_on_c, 9, 42, 127
9, 56759, Note_on_c, 9, 42, 0
9, 56760, Note_on_c, 9, 42, 112
9, 56839, Note_on_c, 9, 42, 0
9, 56840, Note_on_c, 9, 42, 117
9, 56879, Note_on_c, 9, 42, 0
9, 56880, Note_on_c, 9, 42, 112
9, 56959, Note_on_c, 9, 42, 0
9, 56960, Note_on_c, 9, 42, 119
9, 56999, Note_on_c, 9, 42, 0
9, 57000, Note_on_c, 9, 42, 123
9, 57079, Note_on_c, 9, 42, 0
9, 57080, Note_on_c, 9, 42, 112
9, 57119, Note_on_c, 9, 42, 0
9, 57120, Note_on_c, 9, 42, 123
9, 57199, Note_on_c, 9, 42, 0
9, 57200, Note_on_c, 9, 42, 127
9, 57239, Note_on_c, 9, 42, 0
9, 57240, Note_on_c, 9, 42, 112
9, 57319, Note_on_c, 9, 42, 0
9, 57320, Note_on_c, 9, 42, 117
9, 57359, Note_on_c, 9, 42, 0
9, 57360, Note_on_c, 9, 42, 112
9, 57439, Note_on_c, 9, 42, 0
9, 57440, Note_on_c, 9, 42, 119
9, 57479, Note_on_c, 9, 42, 0
9, 57480, Note_on_c, 9, 42, 123
9, 57559, Note_on_c, 9, 42, 0
9, 57560, Note_on_c, 9, 42, 112
9, 57599, Note_on_c, 9, 42, 0
9, 57600, Note_on_c, 9, 42, 123
9, 57679, Note_on_c, 9, 42, 0
9, 57680, Note_on_c, 9, 42, 127
9, 57719, Note_on_c, 9, 42, 0
9, 57720, Note_on_c, 9, 42, 112
9, 57799, Note_on_c, 9, 42, 0
9, 57800, Note_on_c, 9, 42, 117
9, 57839, Note_on_c, 9, 42, 0
9, 57840, Note_on_c, 9, 42, 112
9, 57919, Note_on_c, 9, 42, 0
9, 57920, Note_on_c, 9, 42, 119
9, 57959, Note_on_c, 9, 42, 0
9, 57960, Note_on_c, 9, 42, 123
9, 58039, Note_on_c, 9, 42, 0
9, 58040, Note_on_c, 9, 42, 112
9, 58079, Note_on_c, 9, 42, 0
9, 58080, Note_on_c, 9, 42, 123
9, 58159, Note_on_c, 9, 42, 0
9, 58160, Note_on_c, 9, 42, 127
9, 58199, Note_on_c, 9, 42, 0
9, 58200, Note_on_c, 9, 42, 112
9, 58279, Note_on_c, 9, 42, 0
9, 58280, Note_on_c, 9, 42, 117
9, 58319, Note_on_c, 9, 42, 0
9, 58320, Note_on_c, 9, 42, 112
9, 58399, Note_on_c, 9, 42, 0
9, 58400, Note_on_c, 9, 42, 119
9, 58439, Note_on_c, 9, 42, 0
9, 58440, Note_on_c, 9, 42, 123
9, 58519, Note_on_c, 9, 42, 0
9, 58520, Note_on_c, 9, 42, 112
9, 58559, Note_on_c, 9, 42, 0
9, 58560, Note_on_c, 9, 42, 123
9, 58639, Note_on_c, 9, 42, 0
9, 58640, Note_on_c, 9, 42, 127
9, 58679, Note_on_c, 9, 42, 0
9, 58680, Note_on_c, 9, 42, 112
9, 58759, Note_on_c, 9, 42, 0
9, 58760, Note_on_c, 9, 42, 117
9, 58799, Note_on_c, 9, 42, 0
9, 58800, Note_on_c, 9, 42, 112
9, 58879, Note_on_c, 9, 42, 0
9, 58880, Note_on_c, 9, 42, 119
9, 58919, Note_on_c, 9, 42, 0
9, 58920, Note_on_c, 9, 42, 123
9, 58999, Note_on_c, 9, 42, 0
9, 59000, Note_on_c, 9, 42, 112
9, 59039, Note_on_c, 9, 42, 0
9, 59040, Note_on_c, 9, 42, 123
9, 59119, Note_on_c, 9, 42, 0
9, 59120, Note_on_c, 9, 42, 127
9, 59159, Note_on_c, 9, 42, 0
9, 59160, Note_on_c, 9, 42, 112
9, 59239, Note_on_c, 9, 42, 0
9, 59240, Note_on_c, 9, 42, 117
9, 59279, Note_on_c, 9, 42, 0
9, 59280, Note_on_c, 9, 42, 112
9, 59359, Note_on_c, 9, 42, 0
9, 59360, Note_on_c, 9, 42, 119
9, 59399, Note_on_c, 9, 42, 0
9, 59400, Note_on_c, 9, 42, 123
9, 59479, Note_on_c, 9, 42, 0
9, 59480, Note_on_c, 9, 42, 112
9, 59519, Note_on_c, 9, 42, 0
9, 59520, Note_on_c, 9, 42, 123
9, 59599, Note_on_c, 9, 42, 0
9, 59600, Note_on_c, 9, 42, 127
9, 59639, Note_on_c, 9, 42, 0
9, 59640, Note_on_c, 9, 42, 112
9, 59719, Note_on_c, 9, 42, 0
9, 59720, Note_on_c, 9, 42, 117
9, 59759, Note_on_c, 9, 42, 0
9, 59760, Note_on_c, 9, 42, 112
9, 59839, Note_on_c, 9, 42, 0
9, 59840, Note_on_c, 9, 42, 119
9, 59879, Note_on_c, 9, 42, 0
9, 59880, Note_on_c, 9, 42, 123
9, 59959, Note_on_c, 9, 42, 0
9, 59960, Note_on_c, 9, 42, 112
9, 59999, Note_on_c, 9, 42, 0
9, 60000, Note_on_c, 9, 42, 123
9, 60079, Note_on_c, 9, 42, 0
9, 60080, Note_on_c, 9, 42, 127
9, 60119, Note_on_c, 9, 42, 0
9, 60120, Note_on_c, 9, 42, 112
9, 60199, Note_on_c, 9, 42, 0
9, 60200, Note_on_c, 9, 42, 117
9, 60239, Note_on_c, 9, 42, 0
9, 60240, Note_on_c, 9, 42, 112
9, 60319, Note_on_c, 9, 42, 0
9, 60320, Note_on_c, 9, 42, 119
9, 60359, Note_on_c, 9, 42, 0
9, 60360, Note_on_c, 9, 42, 123
9, 60439, Note_on_c, 9, 42, 0
9, 60440, Note_on_c, 9, 42, 112
9, 60479, Note_on_c, 9, 42, 0
9, 60480, Note_on_c, 9, 42, 123
9, 60559, Note_on_c, 9, 42, 0
9, 60560, Note_on_c, 9, 42, 127
9, 60599, Note_on_c, 9, 42, 0
9, 60600, Note_on_c, 9, 42, 112
9, 60679, Note_on_c, 9, 42, 0
9, 60680, Note_on_c, 9, 42, 117
9, 60719, Note_on_c, 9, 42, 0
9, 60720, Note_on_c, 9, 42, 112
9, 60799, Note_on_c, 9, 42, 0
9, 60800, Note_on_c, 9, 42, 119
9, 60839, Note_on_c, 9, 42, 0
9, 60840, Note_on_c, 9, 42, 123
9, 60919, Note_on_c, 9, 42, 0
9, 60920, Note_on_c, 9, 42, 112
9, 60959, Note_on_c, 9, 42, 0
9, 60960, Note_on_c, 9, 42, 123
9, 61039, Note_on_c, 9, 42, 0
9, 61040, Note_on_c, 9, 42, 127
9, 61079, Note_on_c, 9, 42, 0
9, 61080, Note_on_c, 9, 42, 112
9, 61159, Note_on_c, 9, 42, 0
9, 61160, Note_on_c, 9, 42, 117
9, 61199, Note_on_c, 9, 42, 0
9, 61200, Note_on_c, 9, 42, 112
9, 61279, Note_on_c, 9, 42, 0
9, 61280, Note_on_c, 9, 42, 119
9, 61319, Note_on_c, 9, 42, 0
9, 61320, Note_on_c, 9, 42, 123
9, 61399, Note_on_c, 9, 42, 0
9, 61400, Note_on_c, 9, 42, 112
9, 61439, Note_on_c, 9, 42, 0
9, 61440, Note_on_c, 9, 42, 123
9, 61519, Note_on_c, 9, 42, 0
9, 61520, Note_on_c, 9, 42, 127
9, 61559, Note_on_c, 9, 42, 0
9, 61560, Note_on_c, 9, 42, 112
9, 61639, Note_on_c, 9, 42, 0
9, 61640, Note_on_c, 9, 42, 117
9, 61679, Note_on_c, 9, 42, 0
9, 61680, Note_on_c, 9, 42, 112
9, 61759, Note_on_c, 9, 42, 0
9, 61760, Note_on_c, 9, 42, 119
9, 61799, Note_on_c, 9, 42, 0
9, 61800, Note_on_c, 9, 42, 123
9, 61879, Note_on_c, 9, 42, 0
9, 61880, Note_on_c, 9, 42, 112
9, 61919, Note_on_c, 9, 42, 0
9, 61920, Note_on_c, 9, 42, 123
9, 61999, Note_on_c, 9, 42, 0
9, 62000, Note_on_c, 9, 42, 127
9, 62039, Note_on_c, 9, 42, 0
9, 62040, Note_on_c, 9, 42, 112
9, 62119, Note_on_c, 9, 42, 0
9, 62120, Note_on_c, 9, 42, 117
9, 62159, Note_on_c, 9, 42, 0
9, 62160, Note_on_c, 9, 42, 112
9, 62239, Note_on_c, 9, 42, 0
9, 62240, Note_on_c, 9, 42, 119
9, 62279, Note_on_c, 9, 42, 0
9, 62280, Note_on_c, 9, 42, 123
9, 62359, Note_on_c, 9, 42, 0
9, 62360, Note_on_c, 9, 42, 112
9, 62399, Note_on_c, 9, 42, 0
9, 62400, Note_on_c, 9, 42, 123
9, 62479, Note_on_c, 9, 42, 0
9, 62480, Note_on_c, 9, 42, 127
9, 62519, Note_on_c, 9, 42, 0
9, 62520, Note_on_c, 9, 42, 112
9, 62599, Note_on_c, 9, 42, 0
9, 62600, Note_on_c, 9, 42, 117
9, 62639, Note_on_c, 9, 42, 0
9, 62640, Note_on_c, 9, 42, 112
9, 62719, Note_on_c, 9, 42, 0
9, 62720, Note_on_c, 9, 42, 119
9, 62759, Note_on_c, 9, 42, 0
9, 62760, Note_on_c, 9, 42, 123
9, 62839, Note_on_c, 9, 42, 0
9, 62840, Note_on_c, 9, 42, 112
9, 62879, Note_on_c, 9, 42, 0
9, 62880, Note_on_c, 9, 42, 123
9, 62959, Note_on_c, 9, 42, 0
9, 62960, Note_on_c, 9, 42, 127
9, 62999, Note_on_c, 9, 42, 0
9, 63000, Note_on_c, 9, 42, 112
9, 63079, Note_on_c, 9, 42, 0
9, 63080, Note_on_c, 9, 42, 117
9, 63119, Note_on_c, 9, 42, 0
9, 63120, Note_on_c, 9, 42, 112
9, 63199, Note_on_c, 9, 42, 0
9, 63200, Note_on_c, 9, 42, 119
9, 63239, Note_on_c, 9, 42, 0
9, 63240, Note_on_c, 9, 42, 123
9, 63319, Note_on_c, 9, 42, 0
9, 63320, Note_on_c, 9, 42, 112
9, 63359, Note_on_c, 9, 42, 0
9, 63360, Note_on_c, 9, 42, 123
9, 63439, Note_on_c, 9, 42, 0
9, 63440, Note_on_c, 9, 42, 127
9, 63479, Note_on_c, 9, 42, 0
9, 63480, Note_on_c, 9, 42, 112
9, 63559, Note_on_c, 9, 42, 0
9, 63560, Note_on_c, 9, 42, 117
9, 63599, Note_on_c, 9, 42, 0
9, 63600, Note_on_c, 9, 42, 112
9, 63679, Note_on_c, 9, 42, 0
9, 63680, Note_on_c, 9, 42, 119
9, 63719, Note_on_c, 9, 42, 0
9, 63720, Note_on_c, 9, 42, 123
9, 63799, Note_on_c, 9, 42, 0
9, 63800, Note_on_c, 9, 42, 112
9, 63839, Note_on_c, 9, 42, 0
9, 63840, Note_on_c, 9, 42, 123
9, 63919, Note_on_c, 9, 42, 0
9, 63920, Note_on_c, 9, 42, 127
9, 63959, Note_on_c, 9, 42, 0
9, 63960, Note_on_c, 9, 42, 112
9, 64039, Note_on_c, 9, 42, 0
9, 64040, Note_on_c, 9, 42, 117
9, 64079, Note_on_c, 9, 42, 0
9, 64080, Note_on_c, 9, 42, 112
9, 64159, Note_on_c, 9, 42, 0
9, 64160, Note_on_c, 9, 42, 119
9, 64199, Note_on_c, 9, 42, 0
9, 64200, Note_on_c, 9, 42, 123
9, 64279, Note_on_c, 9, 42, 0
9, 64280, Note_on_c, 9, 42, 112
9, 64319, Note_on_c, 9, 42, 0
9, 64320, Note_on_c, 9, 42, 123
9, 64399, Note_on_c, 9, 42, 0
9, 64400, Note_on_c, 9, 42, 127
9, 64439, Note_on_c, 9, 42, 0
9, 64440, Note_on_c, 9, 42, 112
9, 64519, Note_on_c, 9, 42, 0
9, 64520, Note_on_c, 9, 42, 117
9, 64559, Note_on_c, 9, 42, 0
9, 64560, Note_on_c, 9, 42, 112
9, 64639, Note_on_c, 9, 42, 0
9, 64640, Note_on_c, 9, 42, 119
9, 64679, Note_on_c, 9, 42, 0
9, 64680, Note_on_c, 9, 42, 123
9, 64759, Note_on_c, 9, 42, 0
9, 64760, Note_on_c, 9, 42, 112
9, 64799, Note_on_c, 9, 42, 0
9, 64800, Note_on_c, 9, 42, 123
9, 64879, Note_on_c, 9, 42, 0
9, 64880, Note_on_c, 9, 42, 127
9, 64919, Note_on_c, 9, 42, 0
9, 64920, Note_on_c, 9, 42, 112
9, 64999, Note_on_c, 9, 42, 0
9, 65000, Note_on_c, 9, 42, 117
9, 65039, Note_on_c, 9, 42, 0
9, 65040, Note_on_c, 9, 42, 112
9, 65119, Note_on_c, 9, 42, 0
9, 65120, Note_on_c, 9, 42, 119
9, 65159, Note_on_c, 9, 42, 0
9, 65160, Note_on_c, 9, 42, 123
9, 65239, Note_on_c, 9, 42, 0
9, 65240, Note_on_c, 9, 42, 112
9, 65279, Note_on_c, 9, 42, 0
9, 65280, Note_on_c, 9, 42, 123
9, 65359, Note_on_c, 9, 42, 0
9, 65360, Note_on_c, 9, 42, 127
9, 65399, Note_on_c, 9, 42, 0
9, 65400, Note_on_c, 9, 42, 112
9, 65479, Note_on_c, 9, 42, 0
9, 65480, Note_on_c, 9, 42, 117
9, 65519, Note_on_c, 9, 42, 0
9, 65520, Note_on_c, 9, 42, 112
9, 65599, Note_on_c, 9, 42, 0
9, 65600, Note_on_c, 9, 42, 119
9, 65639, Note_on_c, 9, 42, 0
9, 65640, Note_on_c, 9, 42, 123
9, 65719, Note_on_c, 9, 42, 0
9, 65720, Note_on_c, 9, 42, 112
9, 65759, Note_on_c, 9, 42, 0
9, 65760, Note_on_c, 9, 42, 123
9, 65839, Note_on_c, 9, 42, 0
9, 65840, Note_on_c, 9, 42, 127
9, 65879, Note_on_c, 9, 42, 0
9, 65880, Note_on_c, 9, 42, 112
9, 65959, Note_on_c, 9, 42, 0
9, 65960, Note_on_c, 9, 42, 117
9, 65999, Note_on_c, 9, 42, 0
9, 66000, Note_on_c, 9, 42, 112
9, 66079, Note_on_c, 9, 42, 0
9, 66080, Note_on_c, 9, 42, 119
9, 66119, Note_on_c, 9, 42, 0
9, 66120, Note_on_c, 9, 42, 123
9, 66199, Note_on_c, 9, 42, 0
9, 66200, Note_on_c, 9, 42, 112
9, 66239, Note_on_c, 9, 42, 0
9, 66240, Note_on_c, 9, 42, 123
9, 66319, Note_on_c, 9, 42, 0
9, 66320, Note_on_c, 9, 42, 127
9, 66359, Note_on_c, 9, 42, 0
9, 66360, Note_on_c, 9, 42, 112
9, 66439, Note_on_c, 9, 42, 0
9, 66440, Note_on_c, 9, 42, 117
9, 66479, Note_on_c, 9, 42, 0
9, 66480, Note_on_c, 9, 42, 112
9, 66559, Note_on_c, 9, 42, 0
9, 66560, Note_on_c, 9, 42, 119
9, 66599, Note_on_c, 9, 42, 0
9, 66600, Note_on_c, 9, 42, 123
9, 66679, Note_on_c, 9, 42, 0
9, 66680, Note_on_c, 9, 42, 112
9, 66719, Note_on_c, 9, 42, 0
9, 66720, Note_on_c, 9, 42, 123
9, 66799, Note_on_c, 9, 42, 0
9, 66800, Note_on_c, 9, 42, 127
9, 66839, Note_on_c, 9, 42, 0
9, 66840, Note_on_c, 9, 42, 112
9, 66919, Note_on_c, 9, 42, 0
9, 66920, Note_on_c, 9, 42, 117
9, 66959, Note_on_c, 9, 42, 0
9, 66960, Note_on_c, 9, 42, 112
9, 67039, Note_on_c, 9, 42, 0
9, 67040, Note_on_c, 9, 42, 119
9, 67079, Note_on_c, 9, 42, 0
9, 67080, Note_on_c, 9, 42, 123
9, 67159, Note_on_c, 9, 42, 0
9, 67160, Note_on_c, 9, 42, 112
9, 67199, Note_on_c, 9, 42, 0
9, 67200, Note_on_c, 9, 42, 123
9, 67279, Note_on_c, 9, 42, 0
9, 67280, Note_on_c, 9, 42, 127
9, 67319, Note_on_c, 9, 42, 0
9, 67320, Note_on_c, 9, 42, 112
9, 67399, Note_on_c, 9, 42, 0
9, 67400, Note_on_c, 9, 42, 117
9, 67439, Note_on_c, 9, 42, 0
9, 67440, Note_on_c, 9, 42, 112
9, 67519, Note_on_c, 9, 42, 0
9, 67520, Note_on_c, 9, 42, 119
9, 67559, Note_on_c, 9, 42, 0
9, 67560, Note_on_c, 9, 42, 123
9, 67639, Note_on_c, 9, 42, 0
9, 67640, Note_on_c, 9, 42, 112
9, 67679, Note_on_c, 9, 42, 0
9, 67680, Note_on_c, 9, 42, 123
9, 67759, Note_on_c, 9, 42, 0
9, 67760, Note_on_c, 9, 42, 127
9, 67799, Note_on_c, 9, 42, 0
9, 67800, Note_on_c, 9, 42, 112
9, 67879, Note_on_c, 9, 42, 0
9, 67880, Note_on_c, 9, 42, 117
9, 67919, Note_on_c, 9, 42, 0
9, 67920, Note_on_c, 9, 42, 112
9, 67999, Note_on_c, 9, 42, 0
9, 68000, Note_on_c, 9, 42, 119
9, 68039, Note_on_c, 9, 42, 0
9, 68040, Note_on_c, 9, 42, 123
9, 68119, Note_on_c, 9, 42, 0
9, 68120, Note_on_c, 9, 42, 112
9, 68159, Note_on_c, 9, 42, 0
9, 68160, Note_on_c, 9, 42, 123
9, 68239, Note_on_c, 9, 42, 0
9, 68240, Note_on_c, 9, 42, 127
9, 68279, Note_on_c, 9, 42, 0
9, 68280, Note_on_c, 9, 42, 112
9, 68359, Note_on_c, 9, 42, 0
9, 68360, Note_on_c, 9, 42, 117
9, 68399, Note_on_c, 9, 42, 0
9, 68400, Note_on_c, 9, 42, 112
9, 68479, Note_on_c, 9, 42, 0
9, 68480, Note_on_c, 9, 42, 119
9, 68519, Note_on_c, 9, 42, 0
9, 68520, Note_on_c, 9, 42, 123
9, 68599, Note_on_c, 9, 42, 0
9, 68600, Note_on_c, 9, 42, 112
9, 68639, Note_on_c, 9, 42, 0
9, 68640, Note_on_c, 9, 42, 123
9, 68719, Note_on_c, 9, 42, 0
9, 68720, Note_on_c, 9, 42, 127
9, 68759, Note_on_c, 9, 42, 0
9, 68760, Note_on_c, 9, 42, 112
9, 68839, Note_on_c, 9, 42, 0
9, 68840, Note_on_c, 9, 42, 117
9, 68879, Note_on_c, 9, 42, 0
9, 68880, Note_on_c, 9, 42, 112
9, 68959, Note_on_c, 9, 42, 0
9, 68960, Note_on_c, 9, 42, 119
9, 68999, Note_on_c, 9, 42, 0
9, 69000, Note_on_c, 9, 42, 123
9, 69079, Note_on_c, 9, 42, 0
9, 69080, Note_on_c, 9, 42, 112
9, 69119, Note_on_c, 9, 42, 0
9, 69120, Note_on_c, 9, 42, 123
9, 69199, Note_on_c, 9, 42, 0
9, 69200, Note_on_c, 9, 42, 127
9, 69239, Note_on_c, 9, 42, 0
9, 69240, Note_on_c, 9, 42, 112
9, 69319, Note_on_c, 9, 42, 0
9, 69320, Note_on_c, 9, 42, 117
9, 69359, Note_on_c, 9, 42, 0
9, 69360, Note_on_c, 9, 42, 112
9, 69439, Note_on_c, 9, 42, 0
9, 69440, Note_on_c, 9, 42, 119
9, 69479, Note_on_c, 9, 42, 0
9, 69480, Note_on_c, 9, 42, 123
9, 69559, Note_on_c, 9, 42, 0
9, 69560, Note_on_c, 9, 42, 112
9, 69599, Note_on_c, 9, 42, 0
9, 69600, Note_on_c, 9, 42, 123
9, 69679, Note_on_c, 9, 42, 0
9, 69680, Note_on_c, 9, 42, 127
9, 69719, Note_on_c, 9, 42, 0
9, 69720, Note_on_c, 9, 42, 112
9, 69799, Note_on_c, 9, 42, 0
9, 69800, Note_on_c, 9, 42, 117
9, 69839, Note_on_c, 9, 42, 0
9, 69840, Note_on_c, 9, 42, 112
9, 69919, Note_on_c, 9, 42, 0
9, 69920, Note_on_c, 9, 42, 119
9, 69959, Note_on_c, 9, 42, 0
9, 69960, Note_on_c, 9, 42, 123
9, 70039, Note_on_c, 9, 42, 0
9, 70040, Note_on_c, 9, 42, 112
9, 70079, Note_on_c, 9, 42, 0
9, 70080, Note_on_c, 9, 42, 123
9, 70159, Note_on_c, 9, 42, 0
9, 70160, Note_on_c, 9, 42, 127
9, 70199, Note_on_c, 9, 42, 0
9, 70200, Note_on_c, 9, 42, 112
9, 70279, Note_on_c, 9, 42, 0
9, 70280, Note_on_c, 9, 42, 117
9, 70319, Note_on_c, 9, 42, 0
9, 70320, Note_on_c, 9, 42, 112
9, 70399, Note_on_c, 9, 42, 0
9, 70400, Note_on_c, 9, 42, 119
9, 70439, Note_on_c, 9, 42, 0
9, 70440, Note_on_c, 9, 42, 123
9, 70519, Note_on_c, 9, 42, 0
9, 70520, Note_on_c, 9, 42, 112
9, 70559, Note_on_c, 9, 42, 0
9, 70560, Note_on_c, 9, 42, 123
9, 70639, Note_on_c, 9, 42, 0
9, 70640, Note_on_c, 9, 42, 127
9, 70679, Note_on_c, 9, 42, 0
9, 70680, Note_on_c, 9, 42, 112
9, 70759, Note_on_c, 9, 42, 0
9, 70760, Note_on_c, 9, 42, 117
9, 70799, Note_on_c, 9, 42, 0
9, 70800, Note_on_c, 9, 42, 112
9, 70879, Note_on_c, 9, 42, 0
9, 70880, Note_on_c, 9, 42, 119
9, 70919, Note_on_c, 9, 42, 0
9, 70920, Note_on_c, 9, 42, 123
9, 70999, Note_on_c, 9, 42, 0
9, 71000, Note_on_c, 9, 42, 112
9, 71039, Note_on_c, 9, 42, 0
9, 71040, Note_on_c, 9, 42, 123
9, 71119, Note_on_c, 9, 42, 0
9, 71120, Note_on_c, 9, 42, 127
9, 71159, Note_on_c, 9, 42, 0
9, 71160, Note_on_c, 9, 42, 112
9, 71239, Note_on_c, 9, 42, 0
9, 71240, Note_on_c, 9, 42, 117
9, 71279, Note_on_c, 9, 42, 0
9, 71280, Note_on_c, 9, 42, 112
9, 71359, Note_on_c, 9, 42, 0
9, 71360, Note_on_c, 9, 42, 119
9, 71399, Note_on_c, 9, 42, 0
9, 71400, Note_on_c, 9, 42, 123
9, 71479, Note_on_c, 9, 42, 0
9, 71480, Note_on_c, 9, 42, 112
9, 71519, Note_on_c, 9, 42, 0
9, 71519, End_track
0, 0, End_of_file
